<svg xmlns="http://www.w3.org/2000/svg" width="666" height="232" fill="none"><path fill="#fff" d="M0 0h666v232H0z"/><path fill="#000" d="M34.6875 52.1797c0 1.8854-.513 3.3281-1.5391 4.3281C32.1276 57.5026 30.6562 58 28.7344 58h-3.1641V46.5781h3.5c1.7761 0 3.1563.4922 4.1406 1.4766.9844.9844 1.4766 2.3594 1.4766 4.125Zm-1.4063.0469c0-1.4896-.375-2.612-1.125-3.3672-.7447-.7552-1.8541-1.1328-3.3281-1.1328h-1.9297v9.125h1.6172c1.5834 0 2.7735-.3881 3.5703-1.1641.7969-.7813 1.1953-1.9349 1.1953-3.4609Zm7.4069 5.9296c-1.2657 0-2.2657-.3854-3-1.1562-.7292-.7708-1.0938-1.8411-1.0938-3.2109 0-1.3802.3386-2.4766 1.0156-3.2891.6823-.8125 1.5964-1.2188 2.7422-1.2188 1.0729 0 1.9219.3542 2.5469 1.0626.625.7031.9375 1.6328.9375 2.789v.8203h-5.8984c.026 1.0052.2786 1.7683.7578 2.2891.4844.5208 1.164.7812 2.039.7812.9219 0 1.8334-.1927 2.7344-.5781v1.1563c-.4583.1979-.8932.3385-1.3047.4218-.4062.0886-.8984.1328-1.4765.1328Zm-.3516-7.789c-.6875 0-1.237.2239-1.6484.6719-.4063.4479-.6459 1.0677-.7188 1.8593h4.4766c0-.8177-.1823-1.4427-.5469-1.875-.3646-.4375-.8854-.6562-1.5625-.6562Zm9.6021.0781h-2.1797V58h-1.2968v-7.5547h-1.5313v-.5859l1.5313-.4688v-.4765c0-2.1042.9192-3.1563 2.7578-3.1563.4531 0 .9844.0912 1.5937.2734l-.3359 1.0391c-.5-.1614-.9271-.2422-1.2813-.2422-.4895 0-.8515.1641-1.0859.4922-.2344.3229-.3516.8438-.3516 1.5625v.5547h2.1797v1.0078ZM56.7908 58l-.2579-1.2188h-.0625c-.427.5365-.8541.9011-1.2812 1.0938-.4219.1875-.9505.2812-1.5859.2812-.849 0-1.5157-.2187-2-.6562-.4792-.4375-.7188-1.0599-.7188-1.8672 0-1.7292 1.3828-2.6354 4.1484-2.7187l1.4532-.0469v-.5313c0-.6718-.1459-1.1666-.4375-1.4843-.2865-.323-.7474-.4844-1.3828-.4844-.7136 0-1.5209.2187-2.4219.6562l-.3985-.9922c.4219-.2291.8829-.4088 1.3829-.539.5052-.1302 1.0104-.1953 1.5156-.1953 1.0208 0 1.776.2265 2.2656.6797.4948.4531.7422 1.1796.7422 2.1796V58h-.9609Zm-2.9297-.9141c.8073 0 1.4401-.2213 1.8984-.664.4635-.4427.6953-1.0625.6953-1.8594v-.7734l-1.2969.0547c-1.0312.0364-1.776.1979-2.2343.4843-.4532.2813-.6797.7214-.6797 1.3203 0 .4688.1406.8256.4219 1.0704.2864.2447.6848.3671 1.1953.3671Zm7.813-7.6484v5.5547c0 .6979.1589 1.2187.4766 1.5625.3177.3437.8151.5156 1.4922.5156.8958 0 1.5495-.2448 1.9609-.7344.4167-.4895.625-1.289.625-2.3984v-4.5h1.2969V58h-1.0703l-.1875-1.1484h-.0703c-.2657.4218-.6355.7448-1.1094.9687-.4688.224-1.0052.3359-1.6094.3359-1.0417 0-1.8229-.2473-2.3437-.7421-.5157-.4948-.7735-1.2865-.7735-2.375v-5.6016h1.3125ZM71.6044 58h-1.2969V45.8438h1.2969V58Zm5.5396-.9141c.2292 0 .4505-.0156.6641-.0468.2135-.0365.3828-.073.5078-.1094v.9922c-.1406.0677-.349.1224-.625.164-.2709.0469-.5156.0703-.7344.0703-1.6562 0-2.4844-.8723-2.4844-2.6171v-5.0938h-1.2265v-.625l1.2265-.5391.5469-1.8281h.75v1.9844h2.4844v1.0078H75.769v5.0391c0 .5156.1224.9114.3672 1.1875.2448.276.5807.414 1.0078.414ZM34.2422 122h-1.3281v-5.375h-6.0157V122h-1.3281v-11.422h1.3281v4.86h6.0157v-4.86h1.3281V122Zm10.3599-4.289c0 1.396-.3515 2.487-1.0547 3.273-.7031.782-1.6744 1.172-2.914 1.172-.7656 0-1.4453-.179-2.0391-.539-.5937-.359-1.0521-.875-1.375-1.547-.3229-.672-.4844-1.458-.4844-2.359 0-1.396.349-2.482 1.0469-3.258.6979-.781 1.6667-1.172 2.9063-1.172 1.1979 0 2.1484.399 2.8515 1.196.7084.796 1.0625 1.875 1.0625 3.234Zm-6.5234 0c0 1.094.2187 1.927.6562 2.5s1.0808.859 1.9297.859c.849 0 1.4922-.284 1.9297-.851.4427-.573.6641-1.409.6641-2.508 0-1.089-.2214-1.914-.6641-2.477-.4375-.567-1.0859-.851-1.9453-.851-.849 0-1.4896.278-1.9219.836-.4323.557-.6484 1.388-.6484 2.492ZM48.7824 122l-3.25-8.562h1.3906l1.8438 5.078c.4166 1.187.6614 1.958.7343 2.312h.0625c.0573-.276.237-.846.5391-1.711.3073-.87.9922-2.763 2.0547-5.679h1.3906L50.298 122h-1.5156Zm9.7818.156c-1.2656 0-2.2656-.385-3-1.156-.7292-.771-1.0938-1.841-1.0938-3.211 0-1.38.3386-2.477 1.0157-3.289.6823-.812 1.5963-1.219 2.7422-1.219 1.0729 0 1.9218.354 2.5468 1.063.625.703.9375 1.633.9375 2.789v.82h-5.8984c.026 1.005.2786 1.768.7578 2.289.4844.521 1.1641.781 2.0391.781.9218 0 1.8333-.192 2.7343-.578v1.157c-.4583.197-.8932.338-1.3046.421-.4063.089-.8985.133-1.4766.133Zm-.3516-7.789c-.6875 0-1.237.224-1.6484.672-.4063.448-.6458 1.068-.7188 1.859h4.4766c0-.817-.1823-1.442-.5469-1.875-.3646-.437-.8854-.656-1.5625-.656Zm9.649-1.086c.3802 0 .7214.031 1.0235.094l-.1797 1.203c-.3542-.078-.6667-.117-.9375-.117-.6927 0-1.2865.281-1.7813.844-.4896.562-.7343 1.263-.7343 2.101V122h-1.2969v-8.562h1.0703l.1484 1.585h.0625c.3177-.557.7005-.987 1.1485-1.289.4479-.302.9401-.453 1.4765-.453ZM32.8125 177.906c0 1.156-.3958 2.047-1.1875 2.672-.7865.62-1.9141.93-3.3828.93h-1.3438V186h-1.3281v-11.422h2.9609c2.8542 0 4.2813 1.11 4.2813 3.328Zm-5.9141 2.461h1.1954c1.177 0 2.0286-.19 2.5546-.57.5261-.38.7891-.99.7891-1.828 0-.755-.2474-1.318-.7422-1.688-.4948-.37-1.2656-.554-2.3125-.554h-1.4844v4.64Zm12.0475-3.086c.3802 0 .7213.031 1.0234.094l-.1797 1.203c-.3541-.078-.6666-.117-.9375-.117-.6927 0-1.2864.281-1.7812.844-.4896.562-.7344 1.263-.7344 2.101V186h-1.2969v-8.562h1.0703l.1485 1.585h.0625c.3177-.557.7005-.987 1.1484-1.289.4479-.302.9401-.453 1.4766-.453Zm6.2662 8.875c-1.2657 0-2.2657-.385-3-1.156-.7292-.771-1.0938-1.841-1.0938-3.211 0-1.38.3386-2.477 1.0156-3.289.6823-.812 1.5964-1.219 2.7422-1.219 1.0729 0 1.9219.354 2.5469 1.063.625.703.9375 1.633.9375 2.789v.82h-5.8984c.026 1.005.2786 1.768.7578 2.289.4844.521 1.164.781 2.039.781.9219 0 1.8334-.192 2.7344-.578v1.157c-.4583.197-.8932.338-1.3047.421-.4062.089-.8984.133-1.4765.133Zm-.3516-7.789c-.6875 0-1.237.224-1.6484.672-.4063.448-.6459 1.068-.7188 1.859h4.4766c0-.817-.1823-1.442-.5469-1.875-.3646-.437-.8854-.656-1.5625-.656Zm11.2662 5.297c0 .797-.2969 1.412-.8906 1.844-.5938.432-1.4271.648-2.5.648-1.1355 0-2.0209-.179-2.6563-.539v-1.203c.4115.208.8516.372 1.3203.492.474.12.9297.18 1.3672.18.6771 0 1.1979-.107 1.5625-.32.3646-.219.5469-.55.5469-.993 0-.333-.1458-.617-.4375-.851-.2865-.24-.849-.521-1.6875-.844-.7969-.297-1.3646-.555-1.7031-.773-.3334-.224-.5834-.477-.75-.758-.1615-.281-.2422-.617-.2422-1.008 0-.698.2838-1.247.8515-1.648.5677-.407 1.3464-.61 2.336-.61.9219 0 1.8229.188 2.7031.563l-.4609 1.054c-.8594-.354-1.6381-.531-2.336-.531-.6146 0-1.0781.097-1.3906.289-.3125.193-.4687.459-.4687.797 0 .229.0572.425.1718.586.1198.162.3099.315.5703.461.2605.146.7605.357 1.5.633 1.0157.37 1.7006.742 2.0547 1.117.3594.375.5391.846.5391 1.414Zm7.6646 0c0 .797-.2969 1.412-.8906 1.844-.5938.432-1.4271.648-2.5.648-1.1354 0-2.0208-.179-2.6563-.539v-1.203c.4115.208.8516.372 1.3204.492.4739.12.9296.18 1.3671.18.6771 0 1.198-.107 1.5625-.32.3646-.219.5469-.55.5469-.993 0-.333-.1458-.617-.4375-.851-.2864-.24-.8489-.521-1.6875-.844-.7969-.297-1.3646-.555-1.7031-.773-.3333-.224-.5833-.477-.75-.758-.1615-.281-.2422-.617-.2422-1.008 0-.698.2839-1.247.8516-1.648.5677-.407 1.3463-.61 2.3359-.61.9219 0 1.8229.188 2.7031.563l-.4609 1.054c-.8594-.354-1.638-.531-2.3359-.531-.6146 0-1.0782.097-1.3907.289-.3125.193-.4687.459-.4687.797 0 .229.0573.425.1719.586.1197.162.3098.315.5703.461.2604.146.7604.357 1.5.633 1.0156.37 1.7005.742 2.0547 1.117.3593.375.539.846.539 1.414Zm5.7584 2.492c-1.2656 0-2.2656-.385-3-1.156-.7292-.771-1.0938-1.841-1.0938-3.211 0-1.38.3386-2.477 1.0157-3.289.6823-.812 1.5963-1.219 2.7421-1.219 1.073 0 1.9219.354 2.5469 1.063.625.703.9375 1.633.9375 2.789v.82h-5.8984c.026 1.005.2786 1.768.7578 2.289.4844.521 1.1641.781 2.0391.781.9218 0 1.8333-.192 2.7343-.578v1.157c-.4583.197-.8932.338-1.3047.421-.4062.089-.8984.133-1.4765.133Zm-.3516-7.789c-.6875 0-1.237.224-1.6484.672-.4063.448-.6458 1.068-.7188 1.859h4.4766c0-.817-.1823-1.442-.5469-1.875-.3646-.437-.8854-.656-1.5625-.656Zm11.5709 6.485h-.0703c-.599.869-1.4948 1.304-2.6875 1.304-1.1198 0-1.9922-.383-2.6172-1.148-.6198-.766-.9297-1.854-.9297-3.266 0-1.411.3125-2.508.9375-3.289.625-.781 1.4948-1.172 2.6094-1.172 1.1614 0 2.0521.422 2.6719 1.266h.1015l-.0547-.617-.0312-.602v-3.484h1.2969V186h-1.0547l-.1719-1.148Zm-2.5937.218c.8854 0 1.526-.239 1.9218-.718.4011-.485.6016-1.263.6016-2.336v-.274c0-1.213-.2031-2.078-.6094-2.594-.401-.52-1.0443-.781-1.9297-.781-.7604 0-1.3437.297-1.75.891-.401.588-.6015 1.422-.6015 2.5 0 1.094.2005 1.919.6015 2.476.4011.558.9896.836 1.7657.836Z"/><path fill="#fff" d="M406 152h236v56H406z"/><rect width="236" height="56" x="406" y="152" fill="#D0D0D7" rx="2"/><path fill="#F3F3F7" d="M457.6 156.4h-47.2v47.2h47.2v-47.2Z"/><path fill="#005F9E" d="M410.8 156.7h46.5v46.5h-46.5v-46.5ZM410 204h48v-48h-48v48Z"/><path fill="#005F9E" d="m424.4 167.1 14.1 8.2-2.2 8h10.2l4.4-16.2h-26.5Z"/><path fill="#005F9E" d="m435 176.7-13.9-8.1-4 14.7h16.2l1.7-6.6ZM419.3 186.3h13.2l-1.8 6.6-11.4-6.6Z"/><path fill="#363545" d="M474.771 177h-1.633v-8.593h-2.94v-1.401h7.513v1.401h-2.94V177Zm7.63.137c-1.176 0-2.096-.342-2.762-1.026-.661-.688-.991-1.633-.991-2.837 0-1.235.308-2.205.923-2.912.615-.706 1.46-1.059 2.536-1.059.998 0 1.786.303 2.365.909.579.606.868 1.44.868 2.502v.868h-5.038c.023.734.221 1.299.595 1.695.374.392.9.588 1.579.588.447 0 .861-.041 1.244-.123.388-.086.802-.228 1.244-.424v1.306c-.392.187-.788.319-1.189.397-.401.077-.859.116-1.374.116Zm-.294-6.617c-.51 0-.921.161-1.231.485-.305.323-.487.795-.546 1.415h3.431c-.009-.624-.159-1.096-.451-1.415-.292-.324-.693-.485-1.203-.485Zm6.631 2.488.909-1.135 2.284-2.434h1.852l-3.042 3.248 3.234 4.313h-1.887l-2.427-3.315-.882.724V177h-1.592v-10.637h1.592v5.189l-.082 1.456h.041Zm8.088 3.992h-1.607v-10.637h1.607V177Zm7.055 0-.321-1.053h-.055c-.365.461-.732.775-1.101.944-.369.164-.843.246-1.422.246-.742 0-1.323-.201-1.743-.602-.414-.401-.622-.968-.622-1.702 0-.779.29-1.367.868-1.764.579-.396 1.461-.613 2.646-.649l1.306-.041v-.403c0-.483-.114-.844-.342-1.08-.224-.242-.572-.363-1.046-.363-.388 0-.759.057-1.114.171-.356.114-.698.248-1.026.403l-.519-1.148c.41-.214.859-.376 1.346-.485.488-.114.948-.171 1.381-.171.962 0 1.686.209 2.174.629.492.419.738 1.077.738 1.975V177h-1.148Zm-2.393-1.094c.584 0 1.051-.162 1.402-.485.355-.328.533-.786.533-1.374v-.656l-.971.041c-.756.027-1.308.155-1.654.382-.342.224-.513.568-.513 1.033 0 .337.1.599.301.786.2.182.501.273.902.273Zm15.396-1.62c0 .889-.321 1.586-.964 2.092s-1.529.759-2.659.759-2.056-.176-2.776-.527v-1.545c.456.215.939.383 1.45.506.515.123.993.185 1.435.185.647 0 1.124-.123 1.429-.369.31-.246.465-.577.465-.991 0-.374-.142-.691-.424-.951-.283-.259-.866-.567-1.75-.923-.912-.369-1.554-.79-1.928-1.264-.374-.474-.56-1.044-.56-1.709 0-.834.296-1.49.888-1.969.593-.478 1.388-.718 2.386-.718.957 0 1.91.21 2.857.629l-.519 1.333c-.889-.373-1.682-.56-2.379-.56-.529 0-.93.116-1.203.348-.274.228-.41.531-.41.909 0 .26.054.484.164.67.109.183.289.356.54.52.25.164.702.38 1.353.649.734.306 1.272.591 1.614.855.341.264.592.563.752.895.159.333.239.725.239 1.176Zm4.601 1.552c.392 0 .784-.062 1.176-.185v1.21c-.178.078-.408.142-.691.192-.278.054-.567.082-.868.082-1.522 0-2.283-.802-2.283-2.407v-4.074h-1.032v-.711l1.107-.588.547-1.599h.991v1.681h2.153v1.217h-2.153v4.047c0 .387.096.675.287.861.196.183.451.274.766.274Zm6.549-6.535c.324 0 .59.023.8.068l-.157 1.497c-.228-.055-.465-.082-.711-.082-.643 0-1.165.21-1.566.629-.396.419-.594.964-.594 1.634V177h-1.607v-7.561h1.258l.212 1.333h.082c.251-.451.577-.808.978-1.073.405-.264.84-.396 1.305-.396Zm7.561 7.697-.225-.991h-.082c-.224.351-.543.626-.957.827-.411.2-.88.301-1.409.301-.916 0-1.599-.228-2.05-.684-.452-.456-.677-1.146-.677-2.071v-4.943h1.62v4.663c0 .578.118 1.014.355 1.305.237.287.609.431 1.115.431.674 0 1.169-.201 1.483-.602.319-.405.479-1.082.479-2.03v-3.767h1.613V177h-1.265Zm6.625.137c-1.144 0-2.015-.333-2.612-.998-.592-.67-.888-1.63-.888-2.878 0-1.272.31-2.249.929-2.933.625-.683 1.525-1.025 2.701-1.025.797 0 1.515.148 2.153.444l-.485 1.292c-.679-.264-1.24-.396-1.682-.396-1.308 0-1.962.868-1.962 2.604 0 .848.162 1.486.485 1.914.329.424.807.636 1.436.636.715 0 1.392-.178 2.03-.533v1.401c-.287.169-.594.289-.923.362-.323.073-.717.11-1.182.11Zm6.72-1.299c.392 0 .784-.062 1.176-.185v1.21c-.178.078-.408.142-.691.192-.278.054-.567.082-.868.082-1.522 0-2.283-.802-2.283-2.407v-4.074h-1.032v-.711l1.107-.588.547-1.599h.991v1.681h2.154v1.217h-2.154v4.047c0 .387.096.675.287.861.196.183.452.274.766.274Zm8.046 1.162-.225-.991h-.082c-.224.351-.543.626-.957.827-.41.2-.88.301-1.408.301-.916 0-1.6-.228-2.051-.684-.451-.456-.677-1.146-.677-2.071v-4.943h1.62v4.663c0 .578.119 1.014.356 1.305.237.287.608.431 1.114.431.674 0 1.169-.201 1.483-.602.319-.405.479-1.082.479-2.03v-3.767h1.613V177h-1.265Zm7.411-7.697c.324 0 .59.023.8.068l-.157 1.497c-.228-.055-.465-.082-.711-.082-.643 0-1.165.21-1.566.629-.396.419-.594.964-.594 1.634V177h-1.607v-7.561h1.258l.212 1.333h.082c.25-.451.576-.808.977-1.073.406-.264.841-.396 1.306-.396Zm5.531 7.834c-1.176 0-2.097-.342-2.762-1.026-.661-.688-.991-1.633-.991-2.837 0-1.235.307-2.205.923-2.912.615-.706 1.46-1.059 2.536-1.059.998 0 1.786.303 2.365.909.579.606.868 1.44.868 2.502v.868h-5.038c.023.734.221 1.299.595 1.695.374.392.9.588 1.579.588.447 0 .861-.041 1.244-.123.387-.086.802-.228 1.244-.424v1.306c-.392.187-.788.319-1.189.397-.401.077-.859.116-1.374.116Zm-.294-6.617c-.511 0-.921.161-1.231.485-.305.323-.487.795-.547 1.415h3.432c-.009-.624-.159-1.096-.451-1.415-.292-.324-.693-.485-1.203-.485Zm10.159 4.327c0 .738-.269 1.305-.807 1.702-.538.392-1.308.588-2.311.588-1.007 0-1.816-.153-2.426-.458v-1.388c.888.41 1.715.615 2.481.615.989 0 1.483-.298 1.483-.895 0-.192-.054-.351-.164-.479-.109-.127-.289-.26-.54-.396-.25-.137-.599-.292-1.046-.465-.87-.337-1.46-.675-1.77-1.012-.305-.337-.458-.775-.458-1.312 0-.647.26-1.149.779-1.504.524-.36 1.235-.54 2.133-.54.889 0 1.73.18 2.522.54l-.519 1.21c-.816-.338-1.502-.506-2.058-.506-.847 0-1.271.241-1.271.724 0 .237.109.438.328.602.223.164.706.39 1.449.677.625.241 1.078.462 1.361.663.282.2.492.433.628.697.137.26.206.572.206.937ZM474.846 187.201c-.942 0-1.686.315-2.233.944-.543.625-.814 1.482-.814 2.572 0 1.121.262 1.988.785 2.601.527.61 1.277.914 2.25.914.598 0 1.279-.107 2.045-.322v.873c-.594.223-1.326.334-2.197.334-1.262 0-2.237-.383-2.924-1.148-.684-.766-1.026-1.854-1.026-3.264 0-.883.164-1.656.493-2.32.332-.664.808-1.176 1.429-1.535.625-.36 1.36-.539 2.203-.539.899 0 1.684.164 2.356.492l-.422.855c-.648-.304-1.297-.457-1.945-.457Zm6.715 1.26c.285 0 .541.023.768.07l-.135.903c-.266-.059-.5-.088-.703-.088-.52 0-.965.211-1.336.633-.367.421-.551.947-.551 1.576V195h-.972v-6.422h.802l.112 1.19h.047c.238-.418.525-.741.861-.967.336-.227.705-.34 1.107-.34Zm4.712 6.656c-.949 0-1.699-.289-2.25-.867-.547-.578-.82-1.381-.82-2.408 0-1.035.253-1.858.761-2.467.512-.609 1.198-.914 2.057-.914.805 0 1.441.266 1.91.797.469.527.703 1.224.703 2.092v.615h-4.424c.02.754.209 1.326.569 1.717.363.39.873.586 1.529.586.691 0 1.375-.145 2.051-.434v.867c-.344.149-.67.254-.979.317-.304.066-.674.099-1.107.099Zm-.264-5.842c-.515 0-.928.168-1.236.504-.305.336-.484.801-.539 1.395h3.357c0-.613-.136-1.082-.41-1.406-.273-.329-.664-.493-1.172-.493Zm8.269 5.725-.194-.914h-.047c-.32.402-.64.676-.961.82-.316.141-.713.211-1.189.211-.637 0-1.137-.164-1.5-.492-.359-.328-.539-.795-.539-1.4 0-1.297 1.037-1.977 3.111-2.039l1.09-.036v-.398c0-.504-.109-.875-.328-1.113-.215-.243-.561-.364-1.037-.364-.535 0-1.141.164-1.817.493l-.298-.745c.316-.171.662-.306 1.037-.404.379-.098.757-.146 1.136-.146.766 0 1.332.17 1.7.509.371.34.556.885.556 1.635V195h-.72Zm-2.198-.686c.606 0 1.08-.166 1.424-.498.348-.332.522-.796.522-1.394v-.58l-.973.041c-.774.027-1.332.148-1.676.363-.34.211-.51.541-.51.99 0 .352.106.619.317.803.215.184.513.275.896.275Zm7.032 0c.172 0 .338-.011.498-.035.16-.027.287-.054.381-.082v.744c-.105.051-.262.092-.469.123-.203.036-.386.053-.55.053-1.243 0-1.864-.654-1.864-1.963v-3.82h-.92v-.469l.92-.404.41-1.371h.563v1.488h1.863v.756h-1.863v3.779c0 .387.092.684.275.891.184.207.436.31.756.31Zm4.911.803c-.949 0-1.699-.289-2.25-.867-.547-.578-.82-1.381-.82-2.408 0-1.035.254-1.858.761-2.467.512-.609 1.198-.914 2.057-.914.805 0 1.441.266 1.91.797.469.527.703 1.224.703 2.092v.615h-4.423c.019.754.209 1.326.568 1.717.363.39.873.586 1.529.586.692 0 1.375-.145 2.051-.434v.867c-.344.149-.67.254-.979.317-.304.066-.673.099-1.107.099Zm-.264-5.842c-.515 0-.927.168-1.236.504-.305.336-.484.801-.539 1.395h3.357c0-.613-.136-1.082-.41-1.406-.273-.329-.664-.493-1.172-.493Zm10.033 5.842c-.93 0-1.65-.285-2.162-.855-.508-.574-.762-1.385-.762-2.432 0-1.074.258-1.904.774-2.49.519-.586 1.257-.879 2.214-.879.309 0 .618.033.926.1.309.066.551.144.727.234l-.299.826c-.215-.086-.449-.156-.703-.211-.254-.058-.479-.088-.674-.088-1.305 0-1.957.832-1.957 2.496 0 .789.158 1.395.475 1.817.32.422.793.633 1.418.633.535 0 1.084-.116 1.646-.346v.861c-.43.223-.971.334-1.623.334Zm8.725-3.334c0 1.047-.263 1.865-.791 2.455-.527.586-1.256.879-2.185.879-.574 0-1.084-.135-1.53-.404-.445-.27-.789-.656-1.031-1.16-.242-.504-.363-1.094-.363-1.77 0-1.047.262-1.861.785-2.443.524-.586 1.25-.879 2.18-.879.898 0 1.611.299 2.138.896.532.598.797 1.407.797 2.426Zm-4.892 0c0 .821.164 1.446.492 1.875.328.43.811.645 1.447.645.637 0 1.119-.213 1.447-.639.333-.43.499-1.057.499-1.881 0-.816-.166-1.435-.499-1.857-.328-.426-.814-.639-1.458-.639-.637 0-1.118.209-1.442.627-.324.418-.486 1.041-.486 1.869ZM528.653 195v-4.154c0-.524-.119-.914-.358-1.172-.238-.258-.611-.387-1.119-.387-.672 0-1.164.182-1.476.545-.313.363-.469.963-.469 1.799V195h-.973v-6.422h.791l.159.879h.046c.2-.316.479-.561.838-.732.36-.176.76-.264 1.201-.264.774 0 1.356.187 1.747.562.39.372.585.967.585 1.788V195h-.972Zm7.149-1.752c0 .598-.223 1.059-.668 1.383-.445.324-1.07.486-1.875.486-.852 0-1.516-.135-1.992-.404v-.902c.308.156.638.279.99.369.355.09.697.134 1.025.134.508 0 .899-.08 1.172-.24.274-.164.41-.412.41-.744 0-.25-.109-.463-.328-.639-.215-.179-.636-.39-1.265-.632-.598-.223-1.024-.416-1.278-.58-.25-.168-.437-.358-.562-.569-.121-.211-.182-.463-.182-.756 0-.523.213-.935.639-1.236.426-.305 1.01-.457 1.752-.457.691 0 1.367.141 2.027.422l-.346.791c-.644-.266-1.228-.399-1.751-.399-.461 0-.809.073-1.043.217-.235.145-.352.344-.352.598 0 .172.043.318.129.439.09.121.232.237.428.346.195.109.57.268 1.125.475.761.277 1.275.556 1.541.838.269.281.404.634.404 1.06Zm3.692 1.066c.172 0 .338-.011.498-.035.16-.027.287-.054.381-.082v.744c-.105.051-.262.092-.469.123-.203.036-.386.053-.551.053-1.242 0-1.863-.654-1.863-1.963v-3.82h-.92v-.469l.92-.404.41-1.371h.563v1.488h1.863v.756h-1.863v3.779c0 .387.092.684.275.891.184.207.436.31.756.31Zm5.128-5.853c.285 0 .541.023.767.07l-.134.903c-.266-.059-.5-.088-.704-.088-.519 0-.964.211-1.336.633-.367.421-.55.947-.55 1.576V195h-.973v-6.422h.803l.111 1.19h.047c.238-.418.525-.741.861-.967.336-.227.705-.34 1.108-.34Zm2.913.117v4.166c0 .524.119.914.357 1.172.238.258.611.387 1.119.387.672 0 1.162-.184 1.471-.551.312-.367.469-.967.469-1.799v-3.375h.972V195h-.803l-.14-.861h-.053c-.199.316-.476.558-.832.726-.351.168-.754.252-1.207.252-.781 0-1.367-.185-1.758-.556-.386-.372-.58-.965-.58-1.782v-4.201h.985Zm9.053 6.539c-.93 0-1.65-.285-2.162-.855-.508-.574-.762-1.385-.762-2.432 0-1.074.258-1.904.774-2.49.519-.586 1.257-.879 2.214-.879.309 0 .618.033.926.1.309.066.551.144.727.234l-.299.826c-.215-.086-.449-.156-.703-.211-.254-.058-.479-.088-.674-.088-1.305 0-1.957.832-1.957 2.496 0 .789.158 1.395.475 1.817.32.422.793.633 1.418.633.535 0 1.084-.116 1.646-.346v.861c-.43.223-.971.334-1.623.334Zm5.257-.803c.171 0 .337-.011.498-.035.16-.027.287-.054.38-.082v.744c-.105.051-.261.092-.468.123-.203.036-.387.053-.551.053-1.242 0-1.863-.654-1.863-1.963v-3.82h-.92v-.469l.92-.404.41-1.371h.562v1.488h1.864v.756h-1.864v3.779c0 .387.092.684.276.891.183.207.435.31.756.31Zm3.17.686h-.972v-6.422h.972V195Zm-1.055-8.162c0-.223.055-.385.165-.486.109-.106.246-.159.41-.159.156 0 .291.053.404.159.113.105.17.267.17.486 0 .219-.057.383-.17.492-.113.106-.248.158-.404.158-.164 0-.301-.052-.41-.158-.11-.109-.165-.273-.165-.492Zm6.136 1.635c.844 0 1.498.289 1.963.867.469.574.703 1.389.703 2.443 0 1.055-.236 1.875-.709 2.461-.469.582-1.121.873-1.957.873-.418 0-.801-.076-1.148-.228-.344-.157-.633-.395-.868-.715h-.07l-.205.826h-.697v-9.117h.972v2.215c0 .496-.015.941-.047 1.336h.047c.453-.641 1.125-.961 2.016-.961Zm-.141.814c-.664 0-1.142.192-1.435.574-.293.379-.44 1.02-.44 1.922 0 .903.151 1.549.451 1.94.301.386.784.58 1.448.58.597 0 1.043-.217 1.336-.651.293-.437.439-1.064.439-1.881 0-.835-.146-1.459-.439-1.869-.293-.41-.746-.615-1.36-.615ZM575.47 195h-.973v-9.117h.973V195Zm4.805.117c-.949 0-1.699-.289-2.25-.867-.547-.578-.82-1.381-.82-2.408 0-1.035.254-1.858.761-2.467.512-.609 1.198-.914 2.057-.914.805 0 1.442.266 1.91.797.469.527.703 1.224.703 2.092v.615h-4.423c.019.754.209 1.326.568 1.717.363.39.873.586 1.529.586.692 0 1.375-.145 2.051-.434v.867c-.344.149-.67.254-.979.317-.304.066-.673.099-1.107.099Zm-.264-5.842c-.515 0-.927.168-1.236.504-.305.336-.484.801-.539 1.395h3.357c0-.613-.136-1.082-.41-1.406-.273-.329-.664-.493-1.172-.493ZM595.663 195v-4.178c0-.511-.109-.894-.328-1.148-.219-.258-.559-.387-1.019-.387-.606 0-1.053.174-1.342.522-.289.347-.434.882-.434 1.605V195h-.973v-4.178c0-.511-.109-.894-.328-1.148-.218-.258-.56-.387-1.025-.387-.609 0-1.057.184-1.342.551-.281.363-.422.961-.422 1.793V195h-.972v-6.422h.791l.158.879h.047c.183-.312.441-.557.773-.732.336-.176.711-.264 1.125-.264 1.004 0 1.66.363 1.969 1.09h.047c.191-.336.469-.602.832-.797.363-.195.777-.293 1.242-.293.727 0 1.27.187 1.629.562.363.372.545.967.545 1.788V195h-.973Zm8.556-3.217c0 1.047-.264 1.865-.791 2.455-.528.586-1.256.879-2.186.879-.574 0-1.084-.135-1.529-.404-.446-.27-.789-.656-1.032-1.16-.242-.504-.363-1.094-.363-1.77 0-1.047.262-1.861.785-2.443.524-.586 1.25-.879 2.18-.879.898 0 1.611.299 2.139.896.531.598.797 1.407.797 2.426Zm-4.893 0c0 .821.164 1.446.492 1.875.328.43.811.645 1.447.645.637 0 1.12-.213 1.448-.639.332-.43.498-1.057.498-1.881 0-.816-.166-1.435-.498-1.857-.328-.426-.815-.639-1.459-.639-.637 0-1.117.209-1.442.627-.324.418-.486 1.041-.486 1.869Zm11.005 2.356h-.053c-.449.652-1.121.978-2.016.978-.84 0-1.494-.287-1.963-.861-.464-.574-.697-1.391-.697-2.449 0-1.059.234-1.881.703-2.467.469-.586 1.121-.879 1.957-.879.871 0 1.539.316 2.004.949h.076l-.041-.463-.023-.451v-2.613h.973V195h-.791l-.129-.861Zm-1.946.164c.664 0 1.145-.18 1.442-.539.301-.364.451-.948.451-1.752v-.205c0-.911-.152-1.559-.457-1.946-.301-.39-.783-.586-1.447-.586-.571 0-1.008.223-1.313.668-.301.442-.451 1.067-.451 1.875 0 .821.15 1.44.451 1.858.301.418.742.627 1.324.627Zm7.677.814c-.949 0-1.699-.289-2.25-.867-.547-.578-.821-1.381-.821-2.408 0-1.035.254-1.858.762-2.467.512-.609 1.197-.914 2.057-.914.805 0 1.441.266 1.91.797.469.527.703 1.224.703 2.092v.615h-4.424c.02.754.209 1.326.569 1.717.363.39.873.586 1.529.586.691 0 1.375-.145 2.051-.434v.867c-.344.149-.67.254-.979.317-.304.066-.674.099-1.107.099Zm-.264-5.842c-.515 0-.928.168-1.236.504-.305.336-.485.801-.539 1.395h3.357c0-.613-.137-1.082-.41-1.406-.273-.329-.664-.493-1.172-.493ZM621.09 195h-.973v-9.117h.973V195Zm6.235-1.752c0 .598-.223 1.059-.668 1.383-.445.324-1.07.486-1.875.486-.852 0-1.516-.135-1.992-.404v-.902c.308.156.638.279.99.369.355.09.697.134 1.025.134.508 0 .899-.08 1.172-.24.274-.164.41-.412.41-.744 0-.25-.109-.463-.328-.639-.215-.179-.636-.39-1.265-.632-.598-.223-1.024-.416-1.278-.58-.25-.168-.437-.358-.562-.569-.121-.211-.182-.463-.182-.756 0-.523.213-.935.639-1.236.426-.305 1.01-.457 1.752-.457.691 0 1.367.141 2.027.422l-.346.791c-.644-.266-1.228-.399-1.752-.399-.46 0-.808.073-1.042.217-.235.145-.352.344-.352.598 0 .172.043.318.129.439.09.121.232.237.428.346.195.109.57.268 1.125.475.761.277 1.275.556 1.541.838.269.281.404.634.404 1.06Z"/><path fill="#fff" d="M135 152h236v56H135z"/><rect width="236" height="56" x="135" y="152" fill="#D0D0D7" rx="2"/><path fill="#363545" d="M203.771 186h-1.633v-8.593h-2.94v-1.401h7.513v1.401h-2.94V186Zm7.63.137c-1.176 0-2.096-.342-2.762-1.026-.661-.688-.991-1.633-.991-2.837 0-1.235.308-2.205.923-2.912.615-.706 1.46-1.059 2.536-1.059.998 0 1.786.303 2.365.909.579.606.868 1.44.868 2.502v.868h-5.038c.023.734.221 1.299.595 1.695.374.392.9.588 1.579.588.447 0 .861-.041 1.244-.123.388-.086.802-.228 1.244-.424v1.306c-.392.187-.788.319-1.189.397-.401.077-.859.116-1.374.116Zm-.294-6.617c-.51 0-.921.161-1.231.485-.305.323-.487.795-.546 1.415h3.431c-.009-.624-.159-1.096-.451-1.415-.292-.324-.693-.485-1.203-.485Zm6.631 2.488.909-1.135 2.284-2.434h1.852l-3.042 3.248 3.234 4.313h-1.887l-2.427-3.315-.882.724V186h-1.592v-10.637h1.592v5.189l-.082 1.456h.041Zm8.088 3.992h-1.607v-10.637h1.607V186Zm7.055 0-.321-1.053h-.055c-.365.461-.732.775-1.101.944-.369.164-.843.246-1.422.246-.742 0-1.323-.201-1.743-.602-.414-.401-.622-.968-.622-1.702 0-.779.29-1.367.868-1.764.579-.396 1.461-.613 2.646-.649l1.306-.041v-.403c0-.483-.114-.844-.342-1.08-.224-.242-.572-.363-1.046-.363-.388 0-.759.057-1.114.171-.356.114-.698.248-1.026.403l-.519-1.148c.41-.214.859-.376 1.346-.485.488-.114.948-.171 1.381-.171.962 0 1.686.209 2.174.629.492.419.738 1.077.738 1.975V186h-1.148Zm-2.393-1.094c.584 0 1.051-.162 1.402-.485.355-.328.533-.786.533-1.374v-.656l-.971.041c-.756.027-1.308.155-1.654.382-.342.224-.513.568-.513 1.033 0 .337.1.599.301.786.2.182.501.273.902.273Zm15.396-1.62c0 .889-.321 1.586-.964 2.092s-1.529.759-2.659.759-2.056-.176-2.776-.527v-1.545c.456.215.939.383 1.45.506.515.123.993.185 1.435.185.647 0 1.124-.123 1.429-.369.31-.246.465-.577.465-.991 0-.374-.142-.691-.424-.951-.283-.259-.866-.567-1.75-.923-.912-.369-1.554-.79-1.928-1.264-.374-.474-.56-1.044-.56-1.709 0-.834.296-1.49.888-1.969.593-.478 1.388-.718 2.386-.718.957 0 1.91.21 2.857.629l-.519 1.333c-.889-.373-1.682-.56-2.379-.56-.529 0-.93.116-1.203.348-.274.228-.41.531-.41.909 0 .26.054.484.164.67.109.183.289.356.54.52.25.164.702.38 1.353.649.734.306 1.272.591 1.614.855.341.264.592.563.752.895.159.333.239.725.239 1.176Zm4.601 1.552c.392 0 .784-.062 1.176-.185v1.21c-.178.078-.408.142-.691.192-.278.054-.567.082-.868.082-1.522 0-2.283-.802-2.283-2.407v-4.074h-1.032v-.711l1.107-.588.547-1.599h.991v1.681h2.153v1.217h-2.153v4.047c0 .387.096.675.287.861.196.183.451.274.766.274Zm6.549-6.535c.324 0 .59.023.8.068l-.157 1.497c-.228-.055-.465-.082-.711-.082-.643 0-1.165.21-1.566.629-.396.419-.594.964-.594 1.634V186h-1.607v-7.561h1.258l.212 1.333h.082c.251-.451.577-.808.978-1.073.405-.264.84-.396 1.305-.396Zm7.561 7.697-.225-.991h-.082c-.224.351-.543.626-.957.827-.411.2-.88.301-1.409.301-.916 0-1.599-.228-2.05-.684-.452-.456-.677-1.146-.677-2.071v-4.943h1.62v4.663c0 .578.118 1.014.355 1.305.237.287.609.431 1.115.431.674 0 1.169-.201 1.483-.602.319-.405.479-1.082.479-2.03v-3.767h1.613V186h-1.265Zm6.625.137c-1.144 0-2.015-.333-2.612-.998-.592-.67-.888-1.63-.888-2.878 0-1.272.31-2.249.929-2.933.625-.683 1.525-1.025 2.701-1.025.797 0 1.515.148 2.153.444l-.485 1.292c-.679-.264-1.24-.396-1.682-.396-1.308 0-1.962.868-1.962 2.604 0 .848.162 1.486.485 1.914.329.424.807.636 1.436.636.715 0 1.392-.178 2.03-.533v1.401c-.287.169-.594.289-.923.362-.323.073-.717.11-1.182.11Zm6.72-1.299c.392 0 .784-.062 1.176-.185v1.21c-.178.078-.408.142-.691.192-.278.054-.567.082-.868.082-1.522 0-2.283-.802-2.283-2.407v-4.074h-1.032v-.711l1.107-.588.547-1.599h.991v1.681h2.154v1.217h-2.154v4.047c0 .387.096.675.287.861.196.183.452.274.766.274Zm8.046 1.162-.225-.991h-.082c-.224.351-.543.626-.957.827-.41.2-.88.301-1.408.301-.916 0-1.6-.228-2.051-.684-.451-.456-.677-1.146-.677-2.071v-4.943h1.62v4.663c0 .578.119 1.014.356 1.305.237.287.608.431 1.114.431.674 0 1.169-.201 1.483-.602.319-.405.479-1.082.479-2.03v-3.767h1.613V186h-1.265Zm7.411-7.697c.324 0 .59.023.8.068l-.157 1.497c-.228-.055-.465-.082-.711-.082-.643 0-1.165.21-1.566.629-.396.419-.594.964-.594 1.634V186h-1.607v-7.561h1.258l.212 1.333h.082c.25-.451.576-.808.977-1.073.406-.264.841-.396 1.306-.396Zm5.531 7.834c-1.176 0-2.097-.342-2.762-1.026-.661-.688-.991-1.633-.991-2.837 0-1.235.307-2.205.923-2.912.615-.706 1.46-1.059 2.536-1.059.998 0 1.786.303 2.365.909.579.606.868 1.44.868 2.502v.868h-5.038c.023.734.221 1.299.595 1.695.374.392.9.588 1.579.588.447 0 .861-.041 1.244-.123.387-.086.802-.228 1.244-.424v1.306c-.392.187-.788.319-1.189.397-.401.077-.859.116-1.374.116Zm-.294-6.617c-.511 0-.921.161-1.231.485-.305.323-.487.795-.547 1.415h3.432c-.009-.624-.159-1.096-.451-1.415-.292-.324-.693-.485-1.203-.485Zm10.159 4.327c0 .738-.269 1.305-.807 1.702-.538.392-1.308.588-2.311.588-1.007 0-1.816-.153-2.426-.458v-1.388c.888.41 1.715.615 2.481.615.989 0 1.483-.298 1.483-.895 0-.192-.054-.351-.164-.479-.109-.127-.289-.26-.54-.396-.25-.137-.599-.292-1.046-.465-.87-.337-1.46-.675-1.77-1.012-.305-.337-.458-.775-.458-1.312 0-.647.26-1.149.779-1.504.524-.36 1.235-.54 2.133-.54.889 0 1.73.18 2.522.54l-.519 1.21c-.816-.338-1.502-.506-2.058-.506-.847 0-1.271.241-1.271.724 0 .237.109.438.328.602.223.164.706.39 1.449.677.625.241 1.078.462 1.361.663.282.2.492.433.628.697.137.26.206.572.206.937Z"/><path fill="#F3F3F7" d="M186.6 156.4h-47.2v47.2h47.2v-47.2Z"/><path fill="#005F9E" d="M139.8 156.7h46.5v46.5h-46.5v-46.5ZM139 204h48v-48h-48v48Z"/><path fill="#005F9E" d="m153.4 167.1 14.1 8.2-2.2 8h10.2l4.4-16.2h-26.5Z"/><path fill="#005F9E" d="m164 176.7-13.9-8.1-4 14.7h16.2l1.7-6.6ZM148.3 186.3h13.2l-1.8 6.6-11.4-6.6Z"/><path fill="#363545" d="M474.771 49h-1.633v-8.5928h-2.94v-1.4013h7.513v1.4013h-2.94V49Zm7.63.1367c-1.176 0-2.096-.3418-2.762-1.0254-.661-.6881-.991-1.6338-.991-2.8369 0-1.235.308-2.2057.923-2.9121.615-.7064 1.46-1.0596 2.536-1.0596.998 0 1.786.3031 2.365.9092.579.6061.868 1.4401.868 2.502v.8681h-5.038c.023.7338.221 1.2989.595 1.6953.374.392.9.5879 1.579.5879.447 0 .861-.041 1.244-.123.388-.0866.802-.2279 1.244-.4238v1.3056c-.392.1869-.788.319-1.189.3965-.401.0775-.859.1162-1.374.1162Zm-.294-6.6172c-.51 0-.921.1618-1.231.4854-.305.3236-.487.7952-.546 1.415h3.431c-.009-.6243-.159-1.096-.451-1.415-.292-.3236-.693-.4854-1.203-.4854Zm6.631 2.4883.909-1.1348 2.284-2.4335h1.852l-3.042 3.247L493.975 49h-1.887l-2.427-3.3154-.882.7246V49h-1.592V38.3633h1.592v5.1885l-.082 1.456h.041ZM496.826 49h-1.607V38.3633h1.607V49Zm7.055 0-.321-1.0527h-.055c-.365.4603-.732.7747-1.101.9433-.369.1641-.843.2461-1.422.2461-.742 0-1.323-.2005-1.743-.6015-.414-.4011-.622-.9685-.622-1.7022 0-.7793.29-1.3672.868-1.7637.579-.3964 1.461-.6129 2.646-.6494l1.306-.041v-.4033c0-.4831-.114-.8431-.342-1.0801-.224-.2415-.572-.3623-1.046-.3623-.388 0-.759.057-1.114.1709-.356.1139-.698.2484-1.026.4033l-.519-1.1484c.41-.2142.859-.376 1.346-.4854.488-.1139.948-.1709 1.381-.1709.962 0 1.686.2097 2.174.6289.492.4193.738 1.0778.738 1.9756V49h-1.148Zm-2.393-1.0938c.584 0 1.051-.1617 1.402-.4853.355-.3281.533-.7861.533-1.374v-.6563l-.971.041c-.756.0274-1.308.155-1.654.3829-.342.2233-.513.5673-.513 1.0322 0 .3372.1.5993.301.7861.2.1823.501.2734.902.2734Zm15.396-1.6201c0 .8887-.321 1.586-.964 2.0918-.643.5059-1.529.7588-2.659.7588s-2.056-.1754-2.776-.5263v-1.545c.456.2142.939.3828 1.45.5059.515.123.993.1846 1.435.1846.647 0 1.124-.1231 1.429-.3692.31-.2461.465-.5765.465-.9912 0-.3737-.142-.6904-.424-.9502-.283-.2598-.866-.5674-1.75-.9228-.912-.3692-1.554-.7907-1.928-1.2647-.374-.4739-.56-1.0436-.56-1.709 0-.834.296-1.4902.888-1.9687.593-.4785 1.388-.7178 2.386-.7178.957 0 1.91.2096 2.857.6289l-.519 1.333c-.889-.3737-1.682-.5605-2.379-.5605-.529 0-.93.1162-1.203.3486-.274.2279-.41.5309-.41.9092 0 .2597.054.4831.164.6699.109.1823.289.3555.54.5195.25.1641.702.3806 1.353.6495.734.3053 1.272.5901 1.614.8544.341.2644.592.5629.752.8956.159.3326.239.7246.239 1.1757Zm4.601 1.5518c.392 0 .784-.0615 1.176-.1846v1.21c-.178.0775-.408.1413-.691.1914-.278.0547-.567.082-.868.082-1.522 0-2.283-.8021-2.283-2.4062v-4.0743h-1.032v-.7109l1.107-.5879.547-1.5996h.991v1.6817h2.153v1.2167h-2.153v4.0469c0 .3874.096.6745.287.8614.196.1822.451.2734.766.2734Zm6.549-6.5352c.324 0 .59.0228.8.0684l-.157 1.4971c-.228-.0547-.465-.0821-.711-.0821-.643 0-1.165.2097-1.566.6289-.396.4193-.594.9639-.594 1.6338V49h-1.607v-7.5605h1.258l.212 1.333h.082c.251-.4512.577-.809.978-1.0733.405-.2643.84-.3965 1.305-.3965ZM535.595 49l-.225-.9912h-.082c-.224.3509-.543.6266-.957.8271-.411.2006-.88.3008-1.409.3008-.916 0-1.599-.2278-2.05-.6836-.452-.4557-.677-1.1461-.677-2.0713v-4.9423h1.62v4.6621c0 .5787.118 1.014.355 1.3056.237.2871.609.4307 1.115.4307.674 0 1.169-.2005 1.483-.6016.319-.4056.479-1.0823.479-2.0302v-3.7666h1.613V49h-1.265Zm6.625.1367c-1.144 0-2.015-.3327-2.612-.998-.592-.6699-.888-1.6293-.888-2.878 0-1.2714.31-2.249.929-2.9326.625-.6836 1.525-1.0254 2.701-1.0254.797 0 1.515.1481 2.153.4444l-.485 1.292c-.679-.2644-1.24-.3965-1.682-.3965-1.308 0-1.962.8681-1.962 2.6045 0 .8476.162 1.4856.485 1.914.329.4239.807.6358 1.436.6358.715 0 1.392-.1778 2.03-.5332v1.4013c-.287.1687-.594.2894-.923.3623-.323.073-.717.1094-1.182.1094Zm6.72-1.2988c.392 0 .784-.0615 1.176-.1846v1.21c-.178.0775-.408.1413-.691.1914-.278.0547-.567.082-.868.082-1.522 0-2.283-.8021-2.283-2.4062v-4.0743h-1.032v-.7109l1.107-.5879.547-1.5996h.991v1.6817h2.154v1.2167h-2.154v4.0469c0 .3874.096.6745.287.8614.196.1822.452.2734.766.2734ZM556.986 49l-.225-.9912h-.082c-.224.3509-.543.6266-.957.8271-.41.2006-.88.3008-1.408.3008-.916 0-1.6-.2278-2.051-.6836-.451-.4557-.677-1.1461-.677-2.0713v-4.9423h1.62v4.6621c0 .5787.119 1.014.356 1.3056.237.2871.608.4307 1.114.4307.674 0 1.169-.2005 1.483-.6016.319-.4056.479-1.0823.479-2.0302v-3.7666h1.613V49h-1.265Zm7.411-7.6973c.324 0 .59.0228.8.0684l-.157 1.4971c-.228-.0547-.465-.0821-.711-.0821-.643 0-1.165.2097-1.566.6289-.396.4193-.594.9639-.594 1.6338V49h-1.607v-7.5605h1.258l.212 1.333h.082c.25-.4512.576-.809.977-1.0733.406-.2643.841-.3965 1.306-.3965Zm5.531 7.834c-1.176 0-2.097-.3418-2.762-1.0254-.661-.6881-.991-1.6338-.991-2.8369 0-1.235.307-2.2057.923-2.9121.615-.7064 1.46-1.0596 2.536-1.0596.998 0 1.786.3031 2.365.9092.579.6061.868 1.4401.868 2.502v.8681h-5.038c.023.7338.221 1.2989.595 1.6953.374.392.9.5879 1.579.5879.447 0 .861-.041 1.244-.123.387-.0866.802-.2279 1.244-.4238v1.3056c-.392.1869-.788.319-1.189.3965-.401.0775-.859.1162-1.374.1162Zm-.294-6.6172c-.511 0-.921.1618-1.231.4854-.305.3236-.487.7952-.547 1.415h3.432c-.009-.6243-.159-1.096-.451-1.415-.292-.3236-.693-.4854-1.203-.4854Zm10.159 4.3272c0 .7383-.269 1.3056-.807 1.7021-.538.392-1.308.5879-2.311.5879-1.007 0-1.816-.1527-2.426-.458V47.291c.888.4102 1.715.6152 2.481.6152.989 0 1.483-.2985 1.483-.8955 0-.1914-.054-.3509-.164-.4785-.109-.1276-.289-.2597-.54-.3965-.25-.1367-.599-.2916-1.046-.4648-.87-.3372-1.46-.6745-1.77-1.0117-.305-.3373-.458-.7748-.458-1.3125 0-.6472.26-1.1485.779-1.5039.524-.3601 1.235-.5401 2.133-.5401.889 0 1.73.18 2.522.5401l-.519 1.2099c-.816-.3372-1.502-.5058-2.058-.5058-.847 0-1.271.2415-1.271.7246 0 .237.109.4375.328.6015.223.1641.706.3897 1.449.6768.625.2415 1.078.4626 1.361.6631.282.2005.492.4329.628.6973.137.2597.206.5719.206.9365ZM474.846 59.2012c-.942 0-1.686.3144-2.233.9433-.543.625-.814 1.4825-.814 2.5723 0 1.1211.262 1.9883.785 2.6016.527.6093 1.277.914 2.25.914.598 0 1.279-.1074 2.045-.3222v.873c-.594.2227-1.326.334-2.197.334-1.262 0-2.237-.3828-2.924-1.1484-.684-.7657-1.026-1.8536-1.026-3.2637 0-.8828.164-1.6563.493-2.3203.332-.6641.808-1.1758 1.429-1.5352.625-.3594 1.36-.5391 2.203-.5391.899 0 1.684.1641 2.356.4922l-.422.8555c-.648-.3047-1.297-.457-1.945-.457Zm6.715 1.2597c.285 0 .541.0235.768.0703l-.135.9024c-.266-.0586-.5-.0879-.703-.0879-.52 0-.965.2109-1.336.6328-.367.4219-.551.9473-.551 1.5762V67h-.972v-6.4219h.802l.112 1.1895h.047c.238-.418.525-.7403.861-.9668.336-.2266.705-.3399 1.107-.3399Zm4.712 6.6563c-.949 0-1.699-.2891-2.25-.8672-.547-.5781-.82-1.3809-.82-2.4082 0-1.0352.253-1.8574.761-2.4668.512-.6094 1.198-.9141 2.057-.9141.805 0 1.441.2657 1.91.7969.469.5274.703 1.2246.703 2.0918v.6152h-4.424c.02.754.209 1.3262.569 1.7168.363.3907.873.586 1.529.586.691 0 1.375-.1446 2.051-.4336v.8672c-.344.1484-.67.2539-.979.3164-.304.0664-.674.0996-1.107.0996Zm-.264-5.8418c-.515 0-.928.168-1.236.5039-.305.3359-.484.8008-.539 1.3945h3.357c0-.6133-.136-1.082-.41-1.4062-.273-.3281-.664-.4922-1.172-.4922ZM494.278 67l-.194-.9141h-.047c-.32.4024-.64.6758-.961.8203-.316.1407-.713.211-1.189.211-.637 0-1.137-.1641-1.5-.4922-.359-.3281-.539-.7949-.539-1.4004 0-1.2969 1.037-1.9766 3.111-2.0391l1.09-.0351v-.3984c0-.504-.109-.875-.328-1.1133-.215-.2422-.561-.3633-1.037-.3633-.535 0-1.141.1641-1.817.4922l-.298-.7442c.316-.1718.662-.3066 1.037-.4043.379-.0976.757-.1464 1.136-.1464.766 0 1.332.1699 1.7.5097.371.3399.556.8848.556 1.6348V67h-.72Zm-2.198-.6855c.606 0 1.08-.1661 1.424-.4981.348-.332.522-.7969.522-1.3945v-.5801l-.973.041c-.774.0274-1.332.1484-1.676.3633-.34.2109-.51.541-.51.9902 0 .3516.106.6192.317.8028.215.1836.513.2754.896.2754Zm7.032 0c.172 0 .338-.0118.498-.0352.16-.0273.287-.0547.381-.082v.7441c-.105.0508-.262.0918-.469.1231-.203.0351-.386.0527-.55.0527-1.243 0-1.864-.6543-1.864-1.9629V61.334h-.92v-.4688l.92-.4043.41-1.3711h.563v1.4883h1.863v.7559h-1.863v3.7793c0 .3867.092.6836.275.8906.184.207.436.3106.756.3106Zm4.911.8027c-.949 0-1.699-.2891-2.25-.8672-.547-.5781-.82-1.3809-.82-2.4082 0-1.0352.254-1.8574.761-2.4668.512-.6094 1.198-.9141 2.057-.9141.805 0 1.441.2657 1.91.7969.469.5274.703 1.2246.703 2.0918v.6152h-4.423c.019.754.209 1.3262.568 1.7168.363.3907.873.586 1.529.586.692 0 1.375-.1446 2.051-.4336v.8672c-.344.1484-.67.2539-.979.3164-.304.0664-.673.0996-1.107.0996Zm-.264-5.8418c-.515 0-.927.168-1.236.5039-.305.3359-.484.8008-.539 1.3945h3.357c0-.6133-.136-1.082-.41-1.4062-.273-.3281-.664-.4922-1.172-.4922Zm10.033 5.8418c-.93 0-1.65-.2852-2.162-.8555-.508-.5742-.762-1.3847-.762-2.4316 0-1.0742.258-1.9043.774-2.4903.519-.5859 1.257-.8789 2.214-.8789.309 0 .618.0332.926.0996.309.0665.551.1446.727.2344l-.299.8262c-.215-.0859-.449-.1563-.703-.2109-.254-.0586-.479-.0879-.674-.0879-1.305 0-1.957.832-1.957 2.4961 0 .789.158 1.3945.475 1.8164.32.4218.793.6328 1.418.6328.535 0 1.084-.1153 1.646-.3457v.8613c-.43.2227-.971.334-1.623.334Zm8.725-3.334c0 1.0469-.263 1.8652-.791 2.4551-.527.5859-1.256.8789-2.185.8789-.574 0-1.084-.1348-1.53-.4043-.445-.2695-.789-.6563-1.031-1.1602-.242-.5039-.363-1.0937-.363-1.7695 0-1.0469.262-1.8613.785-2.4434.524-.5859 1.25-.8789 2.18-.8789.898 0 1.611.2989 2.138.8965.532.5977.797 1.4063.797 2.4258Zm-4.892 0c0 .8203.164 1.4453.492 1.875.328.4297.811.6445 1.447.6445.637 0 1.119-.2129 1.447-.6386.333-.4297.499-1.0567.499-1.8809 0-.8164-.166-1.4355-.499-1.8574-.328-.4258-.814-.6387-1.458-.6387-.637 0-1.118.209-1.442.627-.324.4179-.486 1.041-.486 1.8691ZM528.653 67v-4.1543c0-.5234-.119-.9141-.358-1.1719-.238-.2578-.611-.3867-1.119-.3867-.672 0-1.164.1817-1.476.5449-.313.3633-.469.9629-.469 1.7989V67h-.973v-6.4219h.791l.159.8789h.046c.2-.3164.479-.5605.838-.7324.36-.1758.76-.2637 1.201-.2637.774 0 1.356.1875 1.747.5625.39.3711.585.9668.585 1.7871V67h-.972Zm7.149-1.752c0 .5977-.223 1.0586-.668 1.3829-.445.3242-1.07.4863-1.875.4863-.852 0-1.516-.1348-1.992-.4043v-.9024c.308.1563.638.2793.99.3692.355.0898.697.1348 1.025.1348.508 0 .899-.0801 1.172-.2403.274-.164.41-.4121.41-.7441 0-.25-.109-.4629-.328-.6387-.215-.1797-.636-.3906-1.265-.6328-.598-.2227-1.024-.416-1.278-.5801-.25-.168-.437-.3574-.562-.5683-.121-.211-.182-.4629-.182-.7559 0-.5234.213-.9355.639-1.2363.426-.3047 1.01-.4571 1.752-.4571.691 0 1.367.1407 2.027.4219l-.346.791c-.644-.2656-1.228-.3984-1.751-.3984-.461 0-.809.0723-1.043.2168-.235.1445-.352.3437-.352.5976 0 .1719.043.3184.129.4395.09.1211.232.2363.428.3457.195.1094.57.2676 1.125.4746.761.2774 1.275.5566 1.541.8379.269.2813.404.6348.404 1.0605Zm3.692 1.0665c.172 0 .338-.0118.498-.0352.16-.0273.287-.0547.381-.082v.7441c-.105.0508-.262.0918-.469.1231-.203.0351-.386.0527-.551.0527-1.242 0-1.863-.6543-1.863-1.9629V61.334h-.92v-.4688l.92-.4043.41-1.3711h.563v1.4883h1.863v.7559h-1.863v3.7793c0 .3867.092.6836.275.8906.184.207.436.3106.756.3106Zm5.128-5.8536c.285 0 .541.0235.767.0703l-.134.9024c-.266-.0586-.5-.0879-.704-.0879-.519 0-.964.2109-1.336.6328-.367.4219-.55.9473-.55 1.5762V67h-.973v-6.4219h.803l.111 1.1895h.047c.238-.418.525-.7403.861-.9668.336-.2266.705-.3399 1.108-.3399Zm2.913.1172v4.166c0 .5235.119.9141.357 1.1719.238.2578.611.3867 1.119.3867.672 0 1.162-.1836 1.471-.5507.312-.3672.469-.9668.469-1.7989v-3.375h.972V67h-.803l-.14-.8613h-.053c-.199.3164-.476.5586-.832.7265-.351.168-.754.252-1.207.252-.781 0-1.367-.1856-1.758-.5567-.386-.371-.58-.9648-.58-1.7812v-4.2012h.985Zm9.053 6.5391c-.93 0-1.65-.2852-2.162-.8555-.508-.5742-.762-1.3847-.762-2.4316 0-1.0742.258-1.9043.774-2.4903.519-.5859 1.257-.8789 2.214-.8789.309 0 .618.0332.926.0996.309.0665.551.1446.727.2344l-.299.8262c-.215-.0859-.449-.1563-.703-.2109-.254-.0586-.479-.0879-.674-.0879-1.305 0-1.957.832-1.957 2.4961 0 .789.158 1.3945.475 1.8164.32.4218.793.6328 1.418.6328.535 0 1.084-.1153 1.646-.3457v.8613c-.43.2227-.971.334-1.623.334Zm5.257-.8027c.171 0 .337-.0118.498-.0352.16-.0273.287-.0547.38-.082v.7441c-.105.0508-.261.0918-.468.1231-.203.0351-.387.0527-.551.0527-1.242 0-1.863-.6543-1.863-1.9629V61.334h-.92v-.4688l.92-.4043.41-1.3711h.562v1.4883h1.864v.7559h-1.864v3.7793c0 .3867.092.6836.276.8906.183.207.435.3106.756.3106Zm3.17.6855h-.972v-6.4219h.972V67Zm-1.055-8.1621c0-.2227.055-.3848.165-.4863.109-.1055.246-.1582.41-.1582.156 0 .291.0527.404.1582.113.1054.17.2675.17.4863 0 .2187-.057.3828-.17.4922-.113.1054-.248.1582-.404.1582-.164 0-.301-.0528-.41-.1582-.11-.1094-.165-.2735-.165-.4922Zm6.136 1.6348c.844 0 1.498.289 1.963.8671.469.5743.703 1.3887.703 2.4434s-.236 1.875-.709 2.4609c-.469.5821-1.121.8731-1.957.8731-.418 0-.801-.0762-1.148-.2285-.344-.1563-.633-.3946-.868-.7149h-.07l-.205.8262h-.697v-9.1172h.972v2.2149c0 .4961-.015.9414-.047 1.3359h.047c.453-.6406 1.125-.9609 2.016-.9609Zm-.141.8144c-.664 0-1.142.1914-1.435.5742-.293.3789-.44 1.0196-.44 1.9219 0 .9023.151 1.5488.451 1.9395.301.3867.784.58 1.448.58.597 0 1.043-.2168 1.336-.6504.293-.4375.439-1.0644.439-1.8808 0-.836-.146-1.459-.439-1.8692-.293-.4101-.746-.6152-1.36-.6152ZM575.47 67h-.973v-9.1172h.973V67Zm4.805.1172c-.949 0-1.699-.2891-2.25-.8672-.547-.5781-.82-1.3809-.82-2.4082 0-1.0352.254-1.8574.761-2.4668.512-.6094 1.198-.9141 2.057-.9141.805 0 1.442.2657 1.91.7969.469.5274.703 1.2246.703 2.0918v.6152h-4.423c.019.754.209 1.3262.568 1.7168.363.3907.873.586 1.529.586.692 0 1.375-.1446 2.051-.4336v.8672c-.344.1484-.67.2539-.979.3164-.304.0664-.673.0996-1.107.0996Zm-.264-5.8418c-.515 0-.927.168-1.236.5039-.305.3359-.484.8008-.539 1.3945h3.357c0-.6133-.136-1.082-.41-1.4062-.273-.3281-.664-.4922-1.172-.4922ZM595.663 67v-4.1777c0-.5118-.109-.8946-.328-1.1485-.219-.2578-.559-.3867-1.019-.3867-.606 0-1.053.1738-1.342.5215-.289.3476-.434.8828-.434 1.6055V67h-.973v-4.1777c0-.5118-.109-.8946-.328-1.1485-.218-.2578-.56-.3867-1.025-.3867-.609 0-1.057.1836-1.342.5508-.281.3633-.422.9609-.422 1.793V67h-.972v-6.4219h.791l.158.8789h.047c.183-.3125.441-.5566.773-.7324.336-.1758.711-.2637 1.125-.2637 1.004 0 1.66.3633 1.969 1.0899h.047c.191-.336.469-.6016.832-.7969.363-.1953.777-.293 1.242-.293.727 0 1.27.1875 1.629.5625.363.3711.545.9668.545 1.7871V67h-.973Zm8.556-3.2168c0 1.0469-.264 1.8652-.791 2.4551-.528.5859-1.256.8789-2.186.8789-.574 0-1.084-.1348-1.529-.4043-.446-.2695-.789-.6563-1.032-1.1602-.242-.5039-.363-1.0937-.363-1.7695 0-1.0469.262-1.8613.785-2.4434.524-.5859 1.25-.8789 2.18-.8789.898 0 1.611.2989 2.139.8965.531.5977.797 1.4063.797 2.4258Zm-4.893 0c0 .8203.164 1.4453.492 1.875.328.4297.811.6445 1.447.6445.637 0 1.12-.2129 1.448-.6386.332-.4297.498-1.0567.498-1.8809 0-.8164-.166-1.4355-.498-1.8574-.328-.4258-.815-.6387-1.459-.6387-.637 0-1.117.209-1.442.627-.324.4179-.486 1.041-.486 1.8691Zm11.005 2.3555h-.053c-.449.6523-1.121.9785-2.016.9785-.84 0-1.494-.2871-1.963-.8613-.464-.5743-.697-1.3907-.697-2.4493s.234-1.8808.703-2.4668c.469-.5859 1.121-.8789 1.957-.8789.871 0 1.539.3164 2.004.9493h.076l-.041-.4629-.023-.4512v-2.6133h.973V67h-.791l-.129-.8613Zm-1.946.164c.664 0 1.145-.1797 1.442-.539.301-.3633.451-.9473.451-1.752v-.2051c0-.9101-.152-1.5586-.457-1.9453-.301-.3906-.783-.5859-1.447-.5859-.571 0-1.008.2226-1.313.668-.301.4414-.451 1.0664-.451 1.875 0 .8203.15 1.4394.451 1.8574.301.418.742.6269 1.324.6269Zm7.677.8145c-.949 0-1.699-.2891-2.25-.8672-.547-.5781-.821-1.3809-.821-2.4082 0-1.0352.254-1.8574.762-2.4668.512-.6094 1.197-.9141 2.057-.9141.805 0 1.441.2657 1.91.7969.469.5274.703 1.2246.703 2.0918v.6152h-4.424c.02.754.209 1.3262.569 1.7168.363.3907.873.586 1.529.586.691 0 1.375-.1446 2.051-.4336v.8672c-.344.1484-.67.2539-.979.3164-.304.0664-.674.0996-1.107.0996Zm-.264-5.8418c-.515 0-.928.168-1.236.5039-.305.3359-.485.8008-.539 1.3945h3.357c0-.6133-.137-1.082-.41-1.4062-.273-.3281-.664-.4922-1.172-.4922ZM621.09 67h-.973v-9.1172h.973V67Zm6.235-1.752c0 .5977-.223 1.0586-.668 1.3829-.445.3242-1.07.4863-1.875.4863-.852 0-1.516-.1348-1.992-.4043v-.9024c.308.1563.638.2793.99.3692.355.0898.697.1348 1.025.1348.508 0 .899-.0801 1.172-.2403.274-.164.41-.4121.41-.7441 0-.25-.109-.4629-.328-.6387-.215-.1797-.636-.3906-1.265-.6328-.598-.2227-1.024-.416-1.278-.5801-.25-.168-.437-.3574-.562-.5683-.121-.211-.182-.4629-.182-.7559 0-.5234.213-.9355.639-1.2363.426-.3047 1.01-.4571 1.752-.4571.691 0 1.367.1407 2.027.4219l-.346.791c-.644-.2656-1.228-.3984-1.752-.3984-.46 0-.808.0723-1.042.2168-.235.1445-.352.3437-.352.5976 0 .1719.043.3184.129.4395.09.1211.232.2363.428.3457.195.1094.57.2676 1.125.4746.761.2774 1.275.5566 1.541.8379.269.2813.404.6348.404 1.0605Z"/><path fill="#F3F3F7" d="M457.6 28.3999h-47.2v47.2h47.2v-47.2Z"/><path fill="#005F9E" d="M410.8 28.7h46.5v46.5h-46.5V28.7ZM410 76h48V28h-48v48Z"/><path fill="#005F9E" d="m424.4 39.1001 14.1 8.2-2.2 8h10.2l4.4-16.2h-26.5Z"/><path fill="#005F9E" d="m435 48.7001-13.9-8.1-4 14.7h16.2l1.7-6.6ZM419.3 58.2998h13.2l-1.8 6.6-11.4-6.6Z"/><path fill="#fff" d="M135 24h236v56H135z"/><path fill="#363545" d="M203.771 58h-1.633v-8.5928h-2.94v-1.4013h7.513v1.4013h-2.94V58Zm7.63.1367c-1.176 0-2.096-.3418-2.762-1.0254-.661-.6881-.991-1.6338-.991-2.8369 0-1.235.308-2.2057.923-2.9121.615-.7064 1.46-1.0596 2.536-1.0596.998 0 1.786.3031 2.365.9092.579.6061.868 1.4401.868 2.502v.8681h-5.038c.023.7338.221 1.2989.595 1.6953.374.392.9.5879 1.579.5879.447 0 .861-.041 1.244-.123.388-.0866.802-.2279 1.244-.4238v1.3056c-.392.1869-.788.319-1.189.3965-.401.0775-.859.1162-1.374.1162Zm-.294-6.6172c-.51 0-.921.1618-1.231.4854-.305.3236-.487.7952-.546 1.415h3.431c-.009-.6243-.159-1.096-.451-1.415-.292-.3236-.693-.4854-1.203-.4854Zm6.631 2.4883.909-1.1348 2.284-2.4335h1.852l-3.042 3.247L222.975 58h-1.887l-2.427-3.3154-.882.7246V58h-1.592V47.3633h1.592v5.1885l-.082 1.456h.041ZM225.826 58h-1.607V47.3633h1.607V58Zm7.055 0-.321-1.0527h-.055c-.365.4603-.732.7747-1.101.9433-.369.1641-.843.2461-1.422.2461-.742 0-1.323-.2005-1.743-.6015-.414-.4011-.622-.9685-.622-1.7022 0-.7793.29-1.3672.868-1.7637.579-.3964 1.461-.6129 2.646-.6494l1.306-.041v-.4033c0-.4831-.114-.8431-.342-1.0801-.224-.2415-.572-.3623-1.046-.3623-.388 0-.759.057-1.114.1709-.356.1139-.698.2484-1.026.4033l-.519-1.1484c.41-.2142.859-.376 1.346-.4854.488-.1139.948-.1709 1.381-.1709.962 0 1.686.2097 2.174.6289.492.4193.738 1.0778.738 1.9756V58h-1.148Zm-2.393-1.0938c.584 0 1.051-.1617 1.402-.4853.355-.3281.533-.7861.533-1.374v-.6563l-.971.041c-.756.0274-1.308.155-1.654.3829-.342.2233-.513.5673-.513 1.0322 0 .3372.1.5993.301.7861.2.1823.501.2734.902.2734Zm15.396-1.6201c0 .8887-.321 1.586-.964 2.0918-.643.5059-1.529.7588-2.659.7588s-2.056-.1754-2.776-.5263v-1.545c.456.2142.939.3828 1.45.5059.515.123.993.1846 1.435.1846.647 0 1.124-.1231 1.429-.3692.31-.2461.465-.5765.465-.9912 0-.3737-.142-.6904-.424-.9502-.283-.2598-.866-.5674-1.75-.9228-.912-.3692-1.554-.7907-1.928-1.2647-.374-.4739-.56-1.0436-.56-1.709 0-.834.296-1.4902.888-1.9687.593-.4785 1.388-.7178 2.386-.7178.957 0 1.91.2096 2.857.6289l-.519 1.333c-.889-.3737-1.682-.5605-2.379-.5605-.529 0-.93.1162-1.203.3486-.274.2279-.41.5309-.41.9092 0 .2597.054.4831.164.6699.109.1823.289.3555.54.5195.25.1641.702.3806 1.353.6495.734.3053 1.272.5901 1.614.8544.341.2644.592.5629.752.8956.159.3326.239.7246.239 1.1757Zm4.601 1.5518c.392 0 .784-.0615 1.176-.1846v1.21c-.178.0775-.408.1413-.691.1914-.278.0547-.567.082-.868.082-1.522 0-2.283-.8021-2.283-2.4062v-4.0743h-1.032v-.7109l1.107-.5879.547-1.5996h.991v1.6817h2.153v1.2167h-2.153v4.0469c0 .3874.096.6745.287.8614.196.1822.451.2734.766.2734Zm6.549-6.5352c.324 0 .59.0228.8.0684l-.157 1.4971c-.228-.0547-.465-.0821-.711-.0821-.643 0-1.165.2097-1.566.6289-.396.4193-.594.9639-.594 1.6338V58h-1.607v-7.5605h1.258l.212 1.333h.082c.251-.4512.577-.809.978-1.0733.405-.2643.84-.3965 1.305-.3965ZM264.595 58l-.225-.9912h-.082c-.224.3509-.543.6266-.957.8271-.411.2006-.88.3008-1.409.3008-.916 0-1.599-.2278-2.05-.6836-.452-.4557-.677-1.1461-.677-2.0713v-4.9423h1.62v4.6621c0 .5787.118 1.014.355 1.3056.237.2871.609.4307 1.115.4307.674 0 1.169-.2005 1.483-.6016.319-.4056.479-1.0823.479-2.0302v-3.7666h1.613V58h-1.265Zm6.625.1367c-1.144 0-2.015-.3327-2.612-.998-.592-.6699-.888-1.6293-.888-2.878 0-1.2714.31-2.249.929-2.9326.625-.6836 1.525-1.0254 2.701-1.0254.797 0 1.515.1481 2.153.4444l-.485 1.292c-.679-.2644-1.24-.3965-1.682-.3965-1.308 0-1.962.8681-1.962 2.6045 0 .8476.162 1.4856.485 1.914.329.4239.807.6358 1.436.6358.715 0 1.392-.1778 2.03-.5332v1.4013c-.287.1687-.594.2894-.923.3623-.323.073-.717.1094-1.182.1094Zm6.72-1.2988c.392 0 .784-.0615 1.176-.1846v1.21c-.178.0775-.408.1413-.691.1914-.278.0547-.567.082-.868.082-1.522 0-2.283-.8021-2.283-2.4062v-4.0743h-1.032v-.7109l1.107-.5879.547-1.5996h.991v1.6817h2.154v1.2167h-2.154v4.0469c0 .3874.096.6745.287.8614.196.1822.452.2734.766.2734ZM285.986 58l-.225-.9912h-.082c-.224.3509-.543.6266-.957.8271-.41.2006-.88.3008-1.408.3008-.916 0-1.6-.2278-2.051-.6836-.451-.4557-.677-1.1461-.677-2.0713v-4.9423h1.62v4.6621c0 .5787.119 1.014.356 1.3056.237.2871.608.4307 1.114.4307.674 0 1.169-.2005 1.483-.6016.319-.4056.479-1.0823.479-2.0302v-3.7666h1.613V58h-1.265Zm7.411-7.6973c.324 0 .59.0228.8.0684l-.157 1.4971c-.228-.0547-.465-.0821-.711-.0821-.643 0-1.165.2097-1.566.6289-.396.4193-.594.9639-.594 1.6338V58h-1.607v-7.5605h1.258l.212 1.333h.082c.25-.4512.576-.809.977-1.0733.406-.2643.841-.3965 1.306-.3965Zm5.531 7.834c-1.176 0-2.097-.3418-2.762-1.0254-.661-.6881-.991-1.6338-.991-2.8369 0-1.235.307-2.2057.923-2.9121.615-.7064 1.46-1.0596 2.536-1.0596.998 0 1.786.3031 2.365.9092.579.6061.868 1.4401.868 2.502v.8681h-5.038c.023.7338.221 1.2989.595 1.6953.374.392.9.5879 1.579.5879.447 0 .861-.041 1.244-.123.387-.0866.802-.2279 1.244-.4238v1.3056c-.392.1869-.788.319-1.189.3965-.401.0775-.859.1162-1.374.1162Zm-.294-6.6172c-.511 0-.921.1618-1.231.4854-.305.3236-.487.7952-.547 1.415h3.432c-.009-.6243-.159-1.096-.451-1.415-.292-.3236-.693-.4854-1.203-.4854Zm10.159 4.3272c0 .7383-.269 1.3056-.807 1.7021-.538.392-1.308.5879-2.311.5879-1.007 0-1.816-.1527-2.426-.458V56.291c.888.4102 1.715.6152 2.481.6152.989 0 1.483-.2985 1.483-.8955 0-.1914-.054-.3509-.164-.4785-.109-.1276-.289-.2597-.54-.3965-.25-.1367-.599-.2916-1.046-.4648-.87-.3372-1.46-.6745-1.77-1.0117-.305-.3373-.458-.7748-.458-1.3125 0-.6472.26-1.1485.779-1.5039.524-.3601 1.235-.5401 2.133-.5401.889 0 1.73.18 2.522.5401l-.519 1.2099c-.816-.3372-1.502-.5058-2.058-.5058-.847 0-1.271.2415-1.271.7246 0 .237.109.4375.328.6015.223.1641.706.3897 1.449.6768.625.2415 1.078.4626 1.361.6631.282.2005.492.4329.628.6973.137.2597.206.5719.206.9365Z"/><path fill="#F3F3F7" d="M186.6 28.3999h-47.2v47.2h47.2v-47.2Z"/><path fill="#005F9E" d="M139.8 28.7h46.5v46.5h-46.5V28.7ZM139 76h48V28h-48v48Z"/><path fill="#005F9E" d="m153.4 39.1001 14.1 8.2-2.2 8h10.2l4.4-16.2h-26.5Z"/><path fill="#005F9E" d="m164 48.7001-13.9-8.1-4 14.7h16.2l1.7-6.6ZM148.3 58.2998h13.2l-1.8 6.6-11.4-6.6Z"/><path fill="#fff" d="M406 88h236v56H406z"/><rect width="236" height="56" x="406" y="88" fill="#F3F3F7" rx="2"/><path fill="#F3F3F7" d="M457.6 92.3999h-47.2V139.6h47.2V92.3999Z"/><path fill="#005F9E" d="M410.8 92.7h46.5v46.5h-46.5V92.7ZM410 140h48V92h-48v48Z"/><path fill="#005F9E" d="m424.4 103.1 14.1 8.2-2.2 8h10.2l4.4-16.2h-26.5Z"/><path fill="#005F9E" d="m435 112.7-13.9-8.1-4 14.7h16.2l1.7-6.6ZM419.3 122.3h13.2l-1.8 6.6-11.4-6.6Z"/><path fill="#363545" d="M474.771 113h-1.633v-8.593h-2.94v-1.401h7.513v1.401h-2.94V113Zm7.63.137c-1.176 0-2.096-.342-2.762-1.026-.661-.688-.991-1.633-.991-2.837 0-1.235.308-2.205.923-2.912.615-.706 1.46-1.059 2.536-1.059.998 0 1.786.303 2.365.909.579.606.868 1.44.868 2.502v.868h-5.038c.023.734.221 1.299.595 1.695.374.392.9.588 1.579.588.447 0 .861-.041 1.244-.123.388-.086.802-.228 1.244-.424v1.306c-.392.187-.788.319-1.189.397-.401.077-.859.116-1.374.116Zm-.294-6.617c-.51 0-.921.161-1.231.485-.305.323-.487.795-.546 1.415h3.431c-.009-.624-.159-1.096-.451-1.415-.292-.324-.693-.485-1.203-.485Zm6.631 2.488.909-1.135 2.284-2.434h1.852l-3.042 3.248 3.234 4.313h-1.887l-2.427-3.315-.882.724V113h-1.592v-10.637h1.592v5.189l-.082 1.456h.041Zm8.088 3.992h-1.607v-10.637h1.607V113Zm7.055 0-.321-1.053h-.055c-.365.461-.732.775-1.101.944-.369.164-.843.246-1.422.246-.742 0-1.323-.201-1.743-.602-.414-.401-.622-.968-.622-1.702 0-.779.29-1.367.868-1.764.579-.396 1.461-.613 2.646-.649l1.306-.041v-.403c0-.483-.114-.844-.342-1.08-.224-.242-.572-.363-1.046-.363-.388 0-.759.057-1.114.171-.356.114-.698.248-1.026.403l-.519-1.148c.41-.214.859-.376 1.346-.485.488-.114.948-.171 1.381-.171.962 0 1.686.209 2.174.629.492.419.738 1.077.738 1.975V113h-1.148Zm-2.393-1.094c.584 0 1.051-.162 1.402-.485.355-.328.533-.786.533-1.374v-.656l-.971.041c-.756.027-1.308.155-1.654.382-.342.224-.513.568-.513 1.033 0 .337.1.599.301.786.2.182.501.273.902.273Zm15.396-1.62c0 .889-.321 1.586-.964 2.092s-1.529.759-2.659.759-2.056-.176-2.776-.527v-1.545c.456.215.939.383 1.45.506.515.123.993.185 1.435.185.647 0 1.124-.123 1.429-.369.31-.246.465-.577.465-.991 0-.374-.142-.691-.424-.951-.283-.259-.866-.567-1.75-.923-.912-.369-1.554-.79-1.928-1.264-.374-.474-.56-1.044-.56-1.709 0-.834.296-1.49.888-1.969.593-.478 1.388-.718 2.386-.718.957 0 1.91.21 2.857.629l-.519 1.333c-.889-.373-1.682-.56-2.379-.56-.529 0-.93.116-1.203.348-.274.228-.41.531-.41.909 0 .26.054.484.164.67.109.183.289.356.54.52.25.164.702.38 1.353.649.734.306 1.272.591 1.614.855.341.264.592.563.752.895.159.333.239.725.239 1.176Zm4.601 1.552c.392 0 .784-.062 1.176-.185v1.21c-.178.078-.408.142-.691.192-.278.054-.567.082-.868.082-1.522 0-2.283-.802-2.283-2.407v-4.074h-1.032v-.711l1.107-.588.547-1.599h.991v1.681h2.153v1.217h-2.153v4.047c0 .387.096.675.287.861.196.183.451.274.766.274Zm6.549-6.535c.324 0 .59.023.8.068l-.157 1.497c-.228-.055-.465-.082-.711-.082-.643 0-1.165.21-1.566.629-.396.419-.594.964-.594 1.634V113h-1.607v-7.561h1.258l.212 1.333h.082c.251-.451.577-.808.978-1.073.405-.264.84-.396 1.305-.396Zm7.561 7.697-.225-.991h-.082c-.224.351-.543.626-.957.827-.411.2-.88.301-1.409.301-.916 0-1.599-.228-2.05-.684-.452-.456-.677-1.146-.677-2.071v-4.943h1.62v4.663c0 .578.118 1.014.355 1.305.237.287.609.431 1.115.431.674 0 1.169-.201 1.483-.602.319-.405.479-1.082.479-2.03v-3.767h1.613V113h-1.265Zm6.625.137c-1.144 0-2.015-.333-2.612-.998-.592-.67-.888-1.63-.888-2.878 0-1.272.31-2.249.929-2.933.625-.683 1.525-1.025 2.701-1.025.797 0 1.515.148 2.153.444l-.485 1.292c-.679-.264-1.24-.396-1.682-.396-1.308 0-1.962.868-1.962 2.604 0 .848.162 1.486.485 1.914.329.424.807.636 1.436.636.715 0 1.392-.178 2.03-.533v1.401c-.287.169-.594.289-.923.362-.323.073-.717.11-1.182.11Zm6.72-1.299c.392 0 .784-.062 1.176-.185v1.21c-.178.078-.408.142-.691.192-.278.054-.567.082-.868.082-1.522 0-2.283-.802-2.283-2.407v-4.074h-1.032v-.711l1.107-.588.547-1.599h.991v1.681h2.154v1.217h-2.154v4.047c0 .387.096.675.287.861.196.183.452.274.766.274Zm8.046 1.162-.225-.991h-.082c-.224.351-.543.626-.957.827-.41.2-.88.301-1.408.301-.916 0-1.6-.228-2.051-.684-.451-.456-.677-1.146-.677-2.071v-4.943h1.62v4.663c0 .578.119 1.014.356 1.305.237.287.608.431 1.114.431.674 0 1.169-.201 1.483-.602.319-.405.479-1.082.479-2.03v-3.767h1.613V113h-1.265Zm7.411-7.697c.324 0 .59.023.8.068l-.157 1.497c-.228-.055-.465-.082-.711-.082-.643 0-1.165.21-1.566.629-.396.419-.594.964-.594 1.634V113h-1.607v-7.561h1.258l.212 1.333h.082c.25-.451.576-.808.977-1.073.406-.264.841-.396 1.306-.396Zm5.531 7.834c-1.176 0-2.097-.342-2.762-1.026-.661-.688-.991-1.633-.991-2.837 0-1.235.307-2.205.923-2.912.615-.706 1.46-1.059 2.536-1.059.998 0 1.786.303 2.365.909.579.606.868 1.44.868 2.502v.868h-5.038c.023.734.221 1.299.595 1.695.374.392.9.588 1.579.588.447 0 .861-.041 1.244-.123.387-.086.802-.228 1.244-.424v1.306c-.392.187-.788.319-1.189.397-.401.077-.859.116-1.374.116Zm-.294-6.617c-.511 0-.921.161-1.231.485-.305.323-.487.795-.547 1.415h3.432c-.009-.624-.159-1.096-.451-1.415-.292-.324-.693-.485-1.203-.485Zm10.159 4.327c0 .738-.269 1.305-.807 1.702-.538.392-1.308.588-2.311.588-1.007 0-1.816-.153-2.426-.458v-1.388c.888.41 1.715.615 2.481.615.989 0 1.483-.298 1.483-.895 0-.192-.054-.351-.164-.479-.109-.127-.289-.26-.54-.396-.25-.137-.599-.292-1.046-.465-.87-.337-1.46-.675-1.77-1.012-.305-.337-.458-.775-.458-1.312 0-.647.26-1.149.779-1.504.524-.36 1.235-.54 2.133-.54.889 0 1.73.18 2.522.54l-.519 1.21c-.816-.338-1.502-.506-2.058-.506-.847 0-1.271.241-1.271.724 0 .237.109.438.328.602.223.164.706.39 1.449.677.625.241 1.078.462 1.361.663.282.2.492.433.628.697.137.26.206.572.206.937ZM474.846 123.201c-.942 0-1.686.315-2.233.944-.543.625-.814 1.482-.814 2.572 0 1.121.262 1.988.785 2.601.527.61 1.277.914 2.25.914.598 0 1.279-.107 2.045-.322v.873c-.594.223-1.326.334-2.197.334-1.262 0-2.237-.383-2.924-1.148-.684-.766-1.026-1.854-1.026-3.264 0-.883.164-1.656.493-2.32.332-.664.808-1.176 1.429-1.535.625-.36 1.36-.539 2.203-.539.899 0 1.684.164 2.356.492l-.422.855c-.648-.304-1.297-.457-1.945-.457Zm6.715 1.26c.285 0 .541.023.768.07l-.135.903c-.266-.059-.5-.088-.703-.088-.52 0-.965.211-1.336.633-.367.421-.551.947-.551 1.576V131h-.972v-6.422h.802l.112 1.19h.047c.238-.418.525-.741.861-.967.336-.227.705-.34 1.107-.34Zm4.712 6.656c-.949 0-1.699-.289-2.25-.867-.547-.578-.82-1.381-.82-2.408 0-1.035.253-1.858.761-2.467.512-.609 1.198-.914 2.057-.914.805 0 1.441.266 1.91.797.469.527.703 1.224.703 2.092v.615h-4.424c.02.754.209 1.326.569 1.717.363.39.873.586 1.529.586.691 0 1.375-.145 2.051-.434v.867c-.344.149-.67.254-.979.317-.304.066-.674.099-1.107.099Zm-.264-5.842c-.515 0-.928.168-1.236.504-.305.336-.484.801-.539 1.395h3.357c0-.613-.136-1.082-.41-1.406-.273-.329-.664-.493-1.172-.493Zm8.269 5.725-.194-.914h-.047c-.32.402-.64.676-.961.82-.316.141-.713.211-1.189.211-.637 0-1.137-.164-1.5-.492-.359-.328-.539-.795-.539-1.4 0-1.297 1.037-1.977 3.111-2.039l1.09-.036v-.398c0-.504-.109-.875-.328-1.113-.215-.243-.561-.364-1.037-.364-.535 0-1.141.164-1.817.493l-.298-.745c.316-.171.662-.306 1.037-.404.379-.098.757-.146 1.136-.146.766 0 1.332.17 1.7.509.371.34.556.885.556 1.635V131h-.72Zm-2.198-.686c.606 0 1.08-.166 1.424-.498.348-.332.522-.796.522-1.394v-.58l-.973.041c-.774.027-1.332.148-1.676.363-.34.211-.51.541-.51.99 0 .352.106.619.317.803.215.184.513.275.896.275Zm7.032 0c.172 0 .338-.011.498-.035.16-.027.287-.054.381-.082v.744c-.105.051-.262.092-.469.123-.203.036-.386.053-.55.053-1.243 0-1.864-.654-1.864-1.963v-3.82h-.92v-.469l.92-.404.41-1.371h.563v1.488h1.863v.756h-1.863v3.779c0 .387.092.684.275.891.184.207.436.31.756.31Zm4.911.803c-.949 0-1.699-.289-2.25-.867-.547-.578-.82-1.381-.82-2.408 0-1.035.254-1.858.761-2.467.512-.609 1.198-.914 2.057-.914.805 0 1.441.266 1.91.797.469.527.703 1.224.703 2.092v.615h-4.423c.019.754.209 1.326.568 1.717.363.39.873.586 1.529.586.692 0 1.375-.145 2.051-.434v.867c-.344.149-.67.254-.979.317-.304.066-.673.099-1.107.099Zm-.264-5.842c-.515 0-.927.168-1.236.504-.305.336-.484.801-.539 1.395h3.357c0-.613-.136-1.082-.41-1.406-.273-.329-.664-.493-1.172-.493Zm10.033 5.842c-.93 0-1.65-.285-2.162-.855-.508-.574-.762-1.385-.762-2.432 0-1.074.258-1.904.774-2.49.519-.586 1.257-.879 2.214-.879.309 0 .618.033.926.1.309.066.551.144.727.234l-.299.826c-.215-.086-.449-.156-.703-.211-.254-.058-.479-.088-.674-.088-1.305 0-1.957.832-1.957 2.496 0 .789.158 1.395.475 1.817.32.422.793.633 1.418.633.535 0 1.084-.116 1.646-.346v.861c-.43.223-.971.334-1.623.334Zm8.725-3.334c0 1.047-.263 1.865-.791 2.455-.527.586-1.256.879-2.185.879-.574 0-1.084-.135-1.53-.404-.445-.27-.789-.656-1.031-1.16-.242-.504-.363-1.094-.363-1.77 0-1.047.262-1.861.785-2.443.524-.586 1.25-.879 2.18-.879.898 0 1.611.299 2.138.896.532.598.797 1.407.797 2.426Zm-4.892 0c0 .821.164 1.446.492 1.875.328.43.811.645 1.447.645.637 0 1.119-.213 1.447-.639.333-.43.499-1.057.499-1.881 0-.816-.166-1.435-.499-1.857-.328-.426-.814-.639-1.458-.639-.637 0-1.118.209-1.442.627-.324.418-.486 1.041-.486 1.869ZM528.653 131v-4.154c0-.524-.119-.914-.358-1.172-.238-.258-.611-.387-1.119-.387-.672 0-1.164.182-1.476.545-.313.363-.469.963-.469 1.799V131h-.973v-6.422h.791l.159.879h.046c.2-.316.479-.561.838-.732.36-.176.76-.264 1.201-.264.774 0 1.356.187 1.747.562.39.372.585.967.585 1.788V131h-.972Zm7.149-1.752c0 .598-.223 1.059-.668 1.383-.445.324-1.07.486-1.875.486-.852 0-1.516-.135-1.992-.404v-.902c.308.156.638.279.99.369.355.09.697.134 1.025.134.508 0 .899-.08 1.172-.24.274-.164.41-.412.41-.744 0-.25-.109-.463-.328-.639-.215-.179-.636-.39-1.265-.632-.598-.223-1.024-.416-1.278-.58-.25-.168-.437-.358-.562-.569-.121-.211-.182-.463-.182-.756 0-.523.213-.935.639-1.236.426-.305 1.01-.457 1.752-.457.691 0 1.367.141 2.027.422l-.346.791c-.644-.266-1.228-.399-1.751-.399-.461 0-.809.073-1.043.217-.235.145-.352.344-.352.598 0 .172.043.318.129.439.09.121.232.237.428.346.195.109.57.268 1.125.475.761.277 1.275.556 1.541.838.269.281.404.634.404 1.06Zm3.692 1.066c.172 0 .338-.011.498-.035.16-.027.287-.054.381-.082v.744c-.105.051-.262.092-.469.123-.203.036-.386.053-.551.053-1.242 0-1.863-.654-1.863-1.963v-3.82h-.92v-.469l.92-.404.41-1.371h.563v1.488h1.863v.756h-1.863v3.779c0 .387.092.684.275.891.184.207.436.31.756.31Zm5.128-5.853c.285 0 .541.023.767.07l-.134.903c-.266-.059-.5-.088-.704-.088-.519 0-.964.211-1.336.633-.367.421-.55.947-.55 1.576V131h-.973v-6.422h.803l.111 1.19h.047c.238-.418.525-.741.861-.967.336-.227.705-.34 1.108-.34Zm2.913.117v4.166c0 .524.119.914.357 1.172.238.258.611.387 1.119.387.672 0 1.162-.184 1.471-.551.312-.367.469-.967.469-1.799v-3.375h.972V131h-.803l-.14-.861h-.053c-.199.316-.476.558-.832.726-.351.168-.754.252-1.207.252-.781 0-1.367-.185-1.758-.556-.386-.372-.58-.965-.58-1.782v-4.201h.985Zm9.053 6.539c-.93 0-1.65-.285-2.162-.855-.508-.574-.762-1.385-.762-2.432 0-1.074.258-1.904.774-2.49.519-.586 1.257-.879 2.214-.879.309 0 .618.033.926.1.309.066.551.144.727.234l-.299.826c-.215-.086-.449-.156-.703-.211-.254-.058-.479-.088-.674-.088-1.305 0-1.957.832-1.957 2.496 0 .789.158 1.395.475 1.817.32.422.793.633 1.418.633.535 0 1.084-.116 1.646-.346v.861c-.43.223-.971.334-1.623.334Zm5.257-.803c.171 0 .337-.011.498-.035.16-.027.287-.054.38-.082v.744c-.105.051-.261.092-.468.123-.203.036-.387.053-.551.053-1.242 0-1.863-.654-1.863-1.963v-3.82h-.92v-.469l.92-.404.41-1.371h.562v1.488h1.864v.756h-1.864v3.779c0 .387.092.684.276.891.183.207.435.31.756.31Zm3.17.686h-.972v-6.422h.972V131Zm-1.055-8.162c0-.223.055-.385.165-.486.109-.106.246-.159.41-.159.156 0 .291.053.404.159.113.105.17.267.17.486 0 .219-.057.383-.17.492-.113.106-.248.158-.404.158-.164 0-.301-.052-.41-.158-.11-.109-.165-.273-.165-.492Zm6.136 1.635c.844 0 1.498.289 1.963.867.469.574.703 1.389.703 2.443 0 1.055-.236 1.875-.709 2.461-.469.582-1.121.873-1.957.873-.418 0-.801-.076-1.148-.228-.344-.157-.633-.395-.868-.715h-.07l-.205.826h-.697v-9.117h.972v2.215c0 .496-.015.941-.047 1.336h.047c.453-.641 1.125-.961 2.016-.961Zm-.141.814c-.664 0-1.142.192-1.435.574-.293.379-.44 1.02-.44 1.922 0 .903.151 1.549.451 1.94.301.386.784.58 1.448.58.597 0 1.043-.217 1.336-.651.293-.437.439-1.064.439-1.881 0-.835-.146-1.459-.439-1.869-.293-.41-.746-.615-1.36-.615ZM575.47 131h-.973v-9.117h.973V131Zm4.805.117c-.949 0-1.699-.289-2.25-.867-.547-.578-.82-1.381-.82-2.408 0-1.035.254-1.858.761-2.467.512-.609 1.198-.914 2.057-.914.805 0 1.442.266 1.91.797.469.527.703 1.224.703 2.092v.615h-4.423c.019.754.209 1.326.568 1.717.363.39.873.586 1.529.586.692 0 1.375-.145 2.051-.434v.867c-.344.149-.67.254-.979.317-.304.066-.673.099-1.107.099Zm-.264-5.842c-.515 0-.927.168-1.236.504-.305.336-.484.801-.539 1.395h3.357c0-.613-.136-1.082-.41-1.406-.273-.329-.664-.493-1.172-.493ZM595.663 131v-4.178c0-.511-.109-.894-.328-1.148-.219-.258-.559-.387-1.019-.387-.606 0-1.053.174-1.342.522-.289.347-.434.882-.434 1.605V131h-.973v-4.178c0-.511-.109-.894-.328-1.148-.218-.258-.56-.387-1.025-.387-.609 0-1.057.184-1.342.551-.281.363-.422.961-.422 1.793V131h-.972v-6.422h.791l.158.879h.047c.183-.312.441-.557.773-.732.336-.176.711-.264 1.125-.264 1.004 0 1.66.363 1.969 1.09h.047c.191-.336.469-.602.832-.797.363-.195.777-.293 1.242-.293.727 0 1.27.187 1.629.562.363.372.545.967.545 1.788V131h-.973Zm8.556-3.217c0 1.047-.264 1.865-.791 2.455-.528.586-1.256.879-2.186.879-.574 0-1.084-.135-1.529-.404-.446-.27-.789-.656-1.032-1.16-.242-.504-.363-1.094-.363-1.77 0-1.047.262-1.861.785-2.443.524-.586 1.25-.879 2.18-.879.898 0 1.611.299 2.139.896.531.598.797 1.407.797 2.426Zm-4.893 0c0 .821.164 1.446.492 1.875.328.43.811.645 1.447.645.637 0 1.12-.213 1.448-.639.332-.43.498-1.057.498-1.881 0-.816-.166-1.435-.498-1.857-.328-.426-.815-.639-1.459-.639-.637 0-1.117.209-1.442.627-.324.418-.486 1.041-.486 1.869Zm11.005 2.356h-.053c-.449.652-1.121.978-2.016.978-.84 0-1.494-.287-1.963-.861-.464-.574-.697-1.391-.697-2.449 0-1.059.234-1.881.703-2.467.469-.586 1.121-.879 1.957-.879.871 0 1.539.316 2.004.949h.076l-.041-.463-.023-.451v-2.613h.973V131h-.791l-.129-.861Zm-1.946.164c.664 0 1.145-.18 1.442-.539.301-.364.451-.948.451-1.752v-.205c0-.911-.152-1.559-.457-1.946-.301-.39-.783-.586-1.447-.586-.571 0-1.008.223-1.313.668-.301.442-.451 1.067-.451 1.875 0 .821.15 1.44.451 1.858.301.418.742.627 1.324.627Zm7.677.814c-.949 0-1.699-.289-2.25-.867-.547-.578-.821-1.381-.821-2.408 0-1.035.254-1.858.762-2.467.512-.609 1.197-.914 2.057-.914.805 0 1.441.266 1.91.797.469.527.703 1.224.703 2.092v.615h-4.424c.02.754.209 1.326.569 1.717.363.39.873.586 1.529.586.691 0 1.375-.145 2.051-.434v.867c-.344.149-.67.254-.979.317-.304.066-.674.099-1.107.099Zm-.264-5.842c-.515 0-.928.168-1.236.504-.305.336-.485.801-.539 1.395h3.357c0-.613-.137-1.082-.41-1.406-.273-.329-.664-.493-1.172-.493ZM621.09 131h-.973v-9.117h.973V131Zm6.235-1.752c0 .598-.223 1.059-.668 1.383-.445.324-1.07.486-1.875.486-.852 0-1.516-.135-1.992-.404v-.902c.308.156.638.279.99.369.355.09.697.134 1.025.134.508 0 .899-.08 1.172-.24.274-.164.41-.412.41-.744 0-.25-.109-.463-.328-.639-.215-.179-.636-.39-1.265-.632-.598-.223-1.024-.416-1.278-.58-.25-.168-.437-.358-.562-.569-.121-.211-.182-.463-.182-.756 0-.523.213-.935.639-1.236.426-.305 1.01-.457 1.752-.457.691 0 1.367.141 2.027.422l-.346.791c-.644-.266-1.228-.399-1.752-.399-.46 0-.808.073-1.042.217-.235.145-.352.344-.352.598 0 .172.043.318.129.439.09.121.232.237.428.346.195.109.57.268 1.125.475.761.277 1.275.556 1.541.838.269.281.404.634.404 1.06Z"/><path fill="#fff" d="M135 88h236v56H135z"/><rect width="236" height="56" x="135" y="88" fill="#F3F3F7" rx="2"/><path fill="#363545" d="M203.771 122h-1.633v-8.593h-2.94v-1.401h7.513v1.401h-2.94V122Zm7.63.137c-1.176 0-2.096-.342-2.762-1.026-.661-.688-.991-1.633-.991-2.837 0-1.235.308-2.205.923-2.912.615-.706 1.46-1.059 2.536-1.059.998 0 1.786.303 2.365.909.579.606.868 1.44.868 2.502v.868h-5.038c.023.734.221 1.299.595 1.695.374.392.9.588 1.579.588.447 0 .861-.041 1.244-.123.388-.086.802-.228 1.244-.424v1.306c-.392.187-.788.319-1.189.397-.401.077-.859.116-1.374.116Zm-.294-6.617c-.51 0-.921.161-1.231.485-.305.323-.487.795-.546 1.415h3.431c-.009-.624-.159-1.096-.451-1.415-.292-.324-.693-.485-1.203-.485Zm6.631 2.488.909-1.135 2.284-2.434h1.852l-3.042 3.248 3.234 4.313h-1.887l-2.427-3.315-.882.724V122h-1.592v-10.637h1.592v5.189l-.082 1.456h.041Zm8.088 3.992h-1.607v-10.637h1.607V122Zm7.055 0-.321-1.053h-.055c-.365.461-.732.775-1.101.944-.369.164-.843.246-1.422.246-.742 0-1.323-.201-1.743-.602-.414-.401-.622-.968-.622-1.702 0-.779.29-1.367.868-1.764.579-.396 1.461-.613 2.646-.649l1.306-.041v-.403c0-.483-.114-.844-.342-1.08-.224-.242-.572-.363-1.046-.363-.388 0-.759.057-1.114.171-.356.114-.698.248-1.026.403l-.519-1.148c.41-.214.859-.376 1.346-.485.488-.114.948-.171 1.381-.171.962 0 1.686.209 2.174.629.492.419.738 1.077.738 1.975V122h-1.148Zm-2.393-1.094c.584 0 1.051-.162 1.402-.485.355-.328.533-.786.533-1.374v-.656l-.971.041c-.756.027-1.308.155-1.654.382-.342.224-.513.568-.513 1.033 0 .337.1.599.301.786.2.182.501.273.902.273Zm15.396-1.62c0 .889-.321 1.586-.964 2.092s-1.529.759-2.659.759-2.056-.176-2.776-.527v-1.545c.456.215.939.383 1.45.506.515.123.993.185 1.435.185.647 0 1.124-.123 1.429-.369.31-.246.465-.577.465-.991 0-.374-.142-.691-.424-.951-.283-.259-.866-.567-1.75-.923-.912-.369-1.554-.79-1.928-1.264-.374-.474-.56-1.044-.56-1.709 0-.834.296-1.49.888-1.969.593-.478 1.388-.718 2.386-.718.957 0 1.91.21 2.857.629l-.519 1.333c-.889-.373-1.682-.56-2.379-.56-.529 0-.93.116-1.203.348-.274.228-.41.531-.41.909 0 .26.054.484.164.67.109.183.289.356.54.52.25.164.702.38 1.353.649.734.306 1.272.591 1.614.855.341.264.592.563.752.895.159.333.239.725.239 1.176Zm4.601 1.552c.392 0 .784-.062 1.176-.185v1.21c-.178.078-.408.142-.691.192-.278.054-.567.082-.868.082-1.522 0-2.283-.802-2.283-2.407v-4.074h-1.032v-.711l1.107-.588.547-1.599h.991v1.681h2.153v1.217h-2.153v4.047c0 .387.096.675.287.861.196.183.451.274.766.274Zm6.549-6.535c.324 0 .59.023.8.068l-.157 1.497c-.228-.055-.465-.082-.711-.082-.643 0-1.165.21-1.566.629-.396.419-.594.964-.594 1.634V122h-1.607v-7.561h1.258l.212 1.333h.082c.251-.451.577-.808.978-1.073.405-.264.84-.396 1.305-.396Zm7.561 7.697-.225-.991h-.082c-.224.351-.543.626-.957.827-.411.2-.88.301-1.409.301-.916 0-1.599-.228-2.05-.684-.452-.456-.677-1.146-.677-2.071v-4.943h1.62v4.663c0 .578.118 1.014.355 1.305.237.287.609.431 1.115.431.674 0 1.169-.201 1.483-.602.319-.405.479-1.082.479-2.03v-3.767h1.613V122h-1.265Zm6.625.137c-1.144 0-2.015-.333-2.612-.998-.592-.67-.888-1.63-.888-2.878 0-1.272.31-2.249.929-2.933.625-.683 1.525-1.025 2.701-1.025.797 0 1.515.148 2.153.444l-.485 1.292c-.679-.264-1.24-.396-1.682-.396-1.308 0-1.962.868-1.962 2.604 0 .848.162 1.486.485 1.914.329.424.807.636 1.436.636.715 0 1.392-.178 2.03-.533v1.401c-.287.169-.594.289-.923.362-.323.073-.717.11-1.182.11Zm6.72-1.299c.392 0 .784-.062 1.176-.185v1.21c-.178.078-.408.142-.691.192-.278.054-.567.082-.868.082-1.522 0-2.283-.802-2.283-2.407v-4.074h-1.032v-.711l1.107-.588.547-1.599h.991v1.681h2.154v1.217h-2.154v4.047c0 .387.096.675.287.861.196.183.452.274.766.274Zm8.046 1.162-.225-.991h-.082c-.224.351-.543.626-.957.827-.41.2-.88.301-1.408.301-.916 0-1.6-.228-2.051-.684-.451-.456-.677-1.146-.677-2.071v-4.943h1.62v4.663c0 .578.119 1.014.356 1.305.237.287.608.431 1.114.431.674 0 1.169-.201 1.483-.602.319-.405.479-1.082.479-2.03v-3.767h1.613V122h-1.265Zm7.411-7.697c.324 0 .59.023.8.068l-.157 1.497c-.228-.055-.465-.082-.711-.082-.643 0-1.165.21-1.566.629-.396.419-.594.964-.594 1.634V122h-1.607v-7.561h1.258l.212 1.333h.082c.25-.451.576-.808.977-1.073.406-.264.841-.396 1.306-.396Zm5.531 7.834c-1.176 0-2.097-.342-2.762-1.026-.661-.688-.991-1.633-.991-2.837 0-1.235.307-2.205.923-2.912.615-.706 1.46-1.059 2.536-1.059.998 0 1.786.303 2.365.909.579.606.868 1.44.868 2.502v.868h-5.038c.023.734.221 1.299.595 1.695.374.392.9.588 1.579.588.447 0 .861-.041 1.244-.123.387-.086.802-.228 1.244-.424v1.306c-.392.187-.788.319-1.189.397-.401.077-.859.116-1.374.116Zm-.294-6.617c-.511 0-.921.161-1.231.485-.305.323-.487.795-.547 1.415h3.432c-.009-.624-.159-1.096-.451-1.415-.292-.324-.693-.485-1.203-.485Zm10.159 4.327c0 .738-.269 1.305-.807 1.702-.538.392-1.308.588-2.311.588-1.007 0-1.816-.153-2.426-.458v-1.388c.888.41 1.715.615 2.481.615.989 0 1.483-.298 1.483-.895 0-.192-.054-.351-.164-.479-.109-.127-.289-.26-.54-.396-.25-.137-.599-.292-1.046-.465-.87-.337-1.46-.675-1.77-1.012-.305-.337-.458-.775-.458-1.312 0-.647.26-1.149.779-1.504.524-.36 1.235-.54 2.133-.54.889 0 1.73.18 2.522.54l-.519 1.21c-.816-.338-1.502-.506-2.058-.506-.847 0-1.271.241-1.271.724 0 .237.109.438.328.602.223.164.706.39 1.449.677.625.241 1.078.462 1.361.663.282.2.492.433.628.697.137.26.206.572.206.937Z"/><path fill="#F3F3F7" d="M186.6 92.3999h-47.2V139.6h47.2V92.3999Z"/><path fill="#005F9E" d="M139.8 92.7h46.5v46.5h-46.5V92.7ZM139 140h48V92h-48v48Z"/><path fill="#005F9E" d="m153.4 103.1 14.1 8.2-2.2 8h10.2l4.4-16.2h-26.5Z"/><path fill="#005F9E" d="m164 112.7-13.9-8.1-4 14.7h16.2l1.7-6.6ZM148.3 122.3h13.2l-1.8 6.6-11.4-6.6Z"/></svg>