<svg width="768" height="80" viewBox="0 0 768 80" fill="none" xmlns="http://www.w3.org/2000/svg">
<rect width="768" height="80" fill="#F3F3F7"/>
<rect width="768" height="56" fill="white"/>
<rect width="768" height="56" fill="white"/>
<circle cx="728" cy="28" r="16" fill="#EAEAEF"/>
<path d="M726.297 30.2861C726.297 31.1748 725.976 31.8721 725.333 32.3779C724.69 32.8838 723.804 33.1367 722.674 33.1367C721.544 33.1367 720.618 32.9613 719.898 32.6104V31.0654C720.354 31.2796 720.837 31.4482 721.348 31.5713C721.863 31.6943 722.341 31.7559 722.783 31.7559C723.43 31.7559 723.907 31.6328 724.212 31.3867C724.522 31.1406 724.677 30.8102 724.677 30.3955C724.677 30.0218 724.535 29.7051 724.253 29.4453C723.97 29.1855 723.387 28.8779 722.503 28.5225C721.591 28.1533 720.949 27.7318 720.575 27.2578C720.201 26.7839 720.015 26.2142 720.015 25.5488C720.015 24.7148 720.311 24.0586 720.903 23.5801C721.496 23.1016 722.291 22.8623 723.289 22.8623C724.246 22.8623 725.199 23.0719 726.146 23.4912L725.627 24.8242C724.738 24.4505 723.945 24.2637 723.248 24.2637C722.719 24.2637 722.318 24.3799 722.045 24.6123C721.771 24.8402 721.635 25.1432 721.635 25.5215C721.635 25.7812 721.689 26.0046 721.799 26.1914C721.908 26.3737 722.088 26.5469 722.339 26.7109C722.59 26.875 723.041 27.0915 723.692 27.3604C724.426 27.6657 724.964 27.9505 725.306 28.2148C725.647 28.4792 725.898 28.7777 726.058 29.1104C726.217 29.443 726.297 29.835 726.297 30.2861ZM732.483 24.2637C731.545 24.2637 730.806 24.5964 730.269 25.2617C729.731 25.9271 729.462 26.8454 729.462 28.0166C729.462 29.2425 729.719 30.1699 730.234 30.7988C730.754 31.4277 731.504 31.7422 732.483 31.7422C732.907 31.7422 733.317 31.7012 733.714 31.6191C734.11 31.5326 734.523 31.4232 734.951 31.291V32.6924C734.167 32.9886 733.279 33.1367 732.285 33.1367C730.822 33.1367 729.699 32.6947 728.915 31.8105C728.131 30.9219 727.739 29.6527 727.739 28.0029C727.739 26.9639 727.928 26.0547 728.307 25.2754C728.689 24.4961 729.241 23.8991 729.961 23.4844C730.681 23.0697 731.526 22.8623 732.497 22.8623C733.518 22.8623 734.461 23.0765 735.327 23.5049L734.739 24.8652C734.402 24.7057 734.044 24.5667 733.666 24.4482C733.292 24.3252 732.898 24.2637 732.483 24.2637Z" fill="#363545"/>
<g clip-path="url(#clip0)">
<path d="M77.8509 25.4439L86.6652 20.3568V16L77.8509 21.0871L72.8142 18.191V22.5477L77.8509 25.4439Z" fill="#005F9E"/>
<path d="M79.1101 27.6348V37.809L82.8877 40V29.8006L87.9244 26.9045L84.1468 24.7135L79.1101 27.6348Z" fill="#005F9E"/>
<path d="M76.5918 27.6348L67.7775 22.5477L64 24.7135L72.8143 29.8006V35.618L76.5918 33.4522V27.6348Z" fill="#005F9E"/>
<path d="M101.524 36.8017V22.0441H96.1343V19.2991H109.885V22.0441H104.495V36.8269H101.524V36.8017Z" fill="#363545"/>
<path d="M109.431 36.8017V24.2351H112.352V26.3001H112.403C113.184 25.041 114.543 24.0084 116.936 24.0084H117.137L117.037 26.6779C116.886 26.6527 116.432 26.6275 116.256 26.6275C114.392 26.6275 113.209 27.5089 112.378 28.8437V36.8017H109.431Z" fill="#363545"/>
<path d="M118.648 22.0693V19.5258H121.62V22.0693H118.648ZM118.674 36.8017V24.2351H121.62V36.8017H118.674Z" fill="#363545"/>
<path d="M124.34 36.8017V24.2351H127.261V25.9727C128.243 24.915 129.654 24.0084 131.568 24.0084C133.683 24.0084 134.514 24.8395 134.993 26.0735C135.975 24.9906 137.486 24.0084 139.4 24.0084C141.968 24.0084 143.076 25.5446 143.076 27.786V36.8017H140.155V28.5163C140.155 27.1312 139.752 26.4764 138.392 26.4764C137.209 26.4764 136.252 27.1312 135.169 28.1134V36.8017H132.248V28.5163C132.248 27.1312 131.845 26.4764 130.485 26.4764C129.326 26.4764 128.344 27.1312 127.261 28.1134V36.8017H124.34Z" fill="#363545"/>
<path d="M148.642 35.4166V36.8017H145.721V19.2991H148.642V25.8972C149.473 24.915 150.783 24.0084 152.646 24.0084C155.517 24.0084 157.608 26.1742 157.608 30.5058C157.608 34.8374 155.442 37.0032 152.244 37.0032C150.909 37.0032 149.574 36.4491 148.642 35.4166ZM154.712 30.531C154.712 27.8867 153.578 26.4764 151.715 26.4764C150.506 26.4764 149.347 27.2319 148.667 28.063V33.0997C149.448 34.107 150.581 34.6611 151.614 34.6611C153.805 34.6863 154.712 33.3264 154.712 30.531Z" fill="#363545"/>
<path d="M159.824 36.8017V19.2991H162.77V36.8269H159.824V36.8017Z" fill="#363545"/>
<path d="M164.835 30.531C164.835 25.7461 168.21 24.0084 170.829 24.0084C173.649 24.0084 176.344 25.6957 176.344 30.808V31.488H167.757C167.882 33.7545 169.268 34.7618 171.106 34.7618C172.743 34.7618 173.675 34.2078 174.632 33.3012L176.168 34.8122C174.858 36.2477 173.146 37.0787 170.879 37.0787C167.757 37.0787 164.835 35.1648 164.835 30.531ZM173.675 29.297C173.498 27.383 172.567 26.3505 170.804 26.3505C169.393 26.3505 168.084 27.1564 167.807 29.297H173.675Z" fill="#363545"/>
<path d="M184.604 19.2991H195.056V20.8605H186.266V26.8038H192.814V28.3148H186.266V35.2655H195.534V36.8017H184.579V19.2991H184.604Z" fill="#363545"/>
<path d="M197.397 34.8122L198.43 33.8553C199.387 34.9382 200.596 35.6433 202.308 35.6433C204.449 35.6433 205.557 34.8626 205.557 33.4775C205.557 32.0924 204.575 31.5636 202.132 30.9843C199.261 30.2792 197.8 29.5237 197.8 27.3327C197.8 25.5699 199.337 24.0588 202.031 24.0588C204.172 24.0588 205.532 24.764 206.64 25.8469L205.708 26.9298C204.751 25.9728 203.567 25.3936 202.056 25.3936C200.117 25.3936 199.362 26.3002 199.362 27.232C199.362 28.4408 200.218 28.9445 202.384 29.4481C205.507 30.2036 207.118 30.9592 207.118 33.402C207.118 35.6685 205.078 36.978 202.258 36.978C200.067 37.0536 198.354 36.0966 197.397 34.8122Z" fill="#363545"/>
<path d="M210.695 33.9056V25.7209H208.529V24.3358H210.695V19.8531H212.332V24.3358H215.58V25.7209H212.332V33.553C212.332 34.8878 212.76 35.5929 214.296 35.5929C214.774 35.5929 215.253 35.5426 215.605 35.4166V36.8017C215.228 36.8773 214.573 36.9528 213.994 36.9528C211.601 36.978 210.695 36.0462 210.695 33.9056Z" fill="#363545"/>
<path d="M217.721 19.702H219.458V21.4649H217.721V19.702ZM217.771 24.3358H219.408V36.8017H217.771V24.3358Z" fill="#363545"/>
<path d="M222.606 24.3358H224.243V26.3001C225.503 25.0661 226.938 24.1091 228.802 24.1091C230.917 24.1091 231.849 25.0409 232.227 26.3505C233.536 25.1165 235.098 24.1091 236.936 24.1091C239.505 24.1091 240.537 25.5446 240.537 27.8111V36.8269H238.9V28.0881C238.9 26.3253 238.296 25.4942 236.558 25.4942C235.047 25.4942 233.788 26.3253 232.403 27.66V36.8017H230.766V28.0881C230.766 26.3253 230.162 25.4942 228.399 25.4942C226.913 25.4942 225.628 26.3253 224.243 27.66V36.8017H222.606V24.3358Z" fill="#363545"/>
<path d="M242.879 33.9056C242.879 31.4376 244.995 29.6495 251.341 28.6674V28.0378C251.341 26.3001 250.434 25.469 248.797 25.469C246.833 25.469 245.448 26.3001 244.138 27.4334L243.257 26.426C244.743 25.0409 246.48 24.1091 248.948 24.1091C251.744 24.1091 252.953 25.595 252.953 28.0881V33.7545C252.953 35.2655 253.053 36.1973 253.305 36.8269H251.618C251.442 36.298 251.341 35.7692 251.341 35.064C249.905 36.3736 248.294 37.0535 246.405 37.0535C244.189 37.0283 242.879 35.8447 242.879 33.9056ZM251.341 33.7041V29.8258C246.002 30.7324 244.491 32.042 244.491 33.6789C244.491 34.9885 245.372 35.6684 246.757 35.6684C248.52 35.6684 250.056 34.9381 251.341 33.7041Z" fill="#363545"/>
<path d="M256.781 33.9056V25.7209H254.615V24.3358H256.781V19.8531H258.417V24.3358H261.666V25.7209H258.417V33.553C258.417 34.8878 258.846 35.5929 260.382 35.5929C260.86 35.5929 261.339 35.5426 261.691 35.4166V36.8017C261.314 36.8773 260.659 36.9528 260.08 36.9528C257.687 36.978 256.781 36.0462 256.781 33.9056Z" fill="#363545"/>
<path d="M263.807 19.702H265.545V21.4649H263.807V19.702ZM263.857 24.3358H265.494V36.8017H263.857V24.3358Z" fill="#363545"/>
<path d="M268.038 30.5814C268.038 26.4261 270.606 24.084 273.704 24.084C276.751 24.084 279.345 26.4009 279.345 30.5814C279.345 34.7115 276.776 37.0787 273.704 37.0787C270.632 37.0787 268.038 34.7367 268.038 30.5814ZM277.683 30.5562C277.683 27.8363 276.298 25.4943 273.679 25.4943C271.135 25.4943 269.649 27.6349 269.649 30.5562C269.649 33.3264 271.009 35.6685 273.679 35.6685C276.197 35.6685 277.683 33.5782 277.683 30.5562Z" fill="#363545"/>
<path d="M281.838 24.3358H283.475V26.3001C284.684 25.1165 286.271 24.1091 288.235 24.1091C290.703 24.1091 291.962 25.4942 291.962 27.8111V36.8269H290.325V28.0881C290.325 26.3253 289.545 25.4942 287.832 25.4942C286.22 25.4942 284.886 26.3253 283.475 27.66V36.8017H281.838V24.3358Z" fill="#363545"/>
</g>
<path d="M539.5 30H538.71L538.43 29.73C539.41 28.59 540 27.11 540 25.5C540 21.91 537.09 19 533.5 19C529.91 19 527 21.91 527 25.5C527 29.09 529.91 32 533.5 32C535.11 32 536.59 31.41 537.73 30.43L538 30.71V31.5L543 36.49L544.49 35L539.5 30ZM533.5 30C531.01 30 529 27.99 529 25.5C529 23.01 531.01 21 533.5 21C535.99 21 538 23.01 538 25.5C538 27.99 535.99 30 533.5 30Z" fill="#6A6976"/>
<path d="M584 38C585.1 38 586 37.1 586 36H582C582 37.1 582.89 38 584 38ZM590 32V27C590 23.93 588.36 21.36 585.5 20.68V20C585.5 19.17 584.83 18.5 584 18.5C583.17 18.5 582.5 19.17 582.5 20V20.68C579.63 21.36 578 23.92 578 27V32L576 34V35H592V34L590 32Z" fill="#6A6976"/>
<path d="M632 18C626.48 18 622 22.48 622 28C622 33.52 626.48 38 632 38C637.52 38 642 33.52 642 28C642 22.48 637.52 18 632 18ZM633 35H631V33H633V35ZM635.07 27.25L634.17 28.17C633.45 28.9 633 29.5 633 31H631V30.5C631 29.4 631.45 28.4 632.17 27.67L633.41 26.41C633.78 26.05 634 25.55 634 25C634 23.9 633.1 23 632 23C630.9 23 630 23.9 630 25H628C628 22.79 629.79 21 632 21C634.21 21 636 22.79 636 25C636 25.88 635.64 26.68 635.07 27.25Z" fill="#6A6976"/>
<path d="M672 24H676V20H672V24ZM678 36H682V32H678V36ZM672 36H676V32H672V36ZM672 30H676V26H672V30ZM678 30H682V26H678V30ZM684 20V24H688V20H684ZM678 24H682V20H678V24ZM684 30H688V26H684V30ZM684 36H688V32H684V36Z" fill="#6A6976"/>
<path d="M23 34H41V32H23V34ZM23 29H41V27H23V29ZM23 22V24H41V22H23Z" fill="#6A6976"/>
<defs>
<clipPath id="clip0">
<rect width="227.937" height="24" fill="white" transform="translate(64 16)"/>
</clipPath>
</defs>
</svg>
