<svg xmlns="http://www.w3.org/2000/svg" width="790" height="322"><defs><filter id="a" x="257" y="87" width="292" height="180" filterUnits="userSpaceOnUse"><feOffset/><feGaussianBlur stdDeviation="2" result="blur"/><feFlood flood-opacity=".161"/><feComposite operator="in" in2="blur"/><feComposite in="SourceGraphic"/></filter></defs><g data-name="Path 6582" fill="#f1f1f6"><path d="M789.5 321.5H.5V.5h789v321Z"/><path d="M1 1v320h788V1H1M0 0h790v322H0V0Z" fill="#cbcdd6"/></g><g data-name="search + Menu"><g data-name="Search Input"><g data-name="Rectangle 1841" fill="#fff" stroke="#e0e1e9"><path d="M265 61h276a2 2 0 0 1 2 2v30H263V63a2 2 0 0 1 2-2Z" stroke="none"/><path d="M265 61.5h276a1.5 1.5 0 0 1 1.5 1.5v29.5h-279V63a1.5 1.5 0 0 1 1.5-1.5Z" fill="none"/></g><path data-name="Bottom Line" fill="#217cbb" d="M263 91h280v2H263z"/><g data-name="Search Icon"><path data-name="Path 6175" d="M271 67h20v20h-20Z" fill="none"/><path data-name="Path 6176" d="M283.641 78.484h-.609l-.216-.208a5.021 5.021 0 1 0-.54.54l.208.216v.609l3.856 3.849 1.149-1.149Zm-4.628 0a3.471 3.471 0 1 1 3.471-3.471 3.466 3.466 0 0 1-3.471 3.471Z" fill="#6a6e79"/></g><path data-name="Path 6658" d="M305.012 78.721a2.1 2.1 0 0 1-.82 1.764 3.557 3.557 0 0 1-2.227.632 5.577 5.577 0 0 1-2.344-.392v-.961a6.171 6.171 0 0 0 1.149.351 6.042 6.042 0 0 0 1.23.129 2.483 2.483 0 0 0 1.5-.378 1.24 1.24 0 0 0 .5-1.052 1.35 1.35 0 0 0-.179-.729 1.66 1.66 0 0 0-.6-.524 8.361 8.361 0 0 0-1.274-.545A4.068 4.068 0 0 1 300.245 76a2.238 2.238 0 0 1-.513-1.527 1.9 1.9 0 0 1 .745-1.573 3.092 3.092 0 0 1 1.969-.586 5.8 5.8 0 0 1 2.35.469l-.311.867a5.31 5.31 0 0 0-2.063-.45 2 2 0 0 0-1.236.34 1.12 1.12 0 0 0-.445.943 1.446 1.446 0 0 0 .164.729 1.545 1.545 0 0 0 .554.521 6.88 6.88 0 0 0 1.191.527 4.721 4.721 0 0 1 1.85 1.031 2.028 2.028 0 0 1 .512 1.43Zm4.318 2.396a2.95 2.95 0 0 1-2.247-.867 3.357 3.357 0 0 1-.823-2.408 3.723 3.723 0 0 1 .765-2.467 2.54 2.54 0 0 1 2.054-.914 2.422 2.422 0 0 1 1.91.794 3.043 3.043 0 0 1 .7 2.095v.615h-4.421a2.546 2.546 0 0 0 .571 1.717 1.976 1.976 0 0 0 1.526.586 5.172 5.172 0 0 0 2.051-.434v.866a5.147 5.147 0 0 1-.976.319 5.483 5.483 0 0 1-1.11.098Zm-.264-5.842a1.588 1.588 0 0 0-1.233.5 2.323 2.323 0 0 0-.542 1.395h3.357a2.139 2.139 0 0 0-.41-1.409 1.444 1.444 0 0 0-1.172-.486ZM317.3 81l-.193-.914h-.047a2.7 2.7 0 0 1-.96.814 2.92 2.92 0 0 1-1.192.214 2.145 2.145 0 0 1-1.5-.492 1.8 1.8 0 0 1-.542-1.4q0-1.945 3.111-2.039l1.09-.035v-.4a1.628 1.628 0 0 0-.325-1.116 1.337 1.337 0 0 0-1.04-.36 4.238 4.238 0 0 0-1.816.492l-.3-.744a4.571 4.571 0 0 1 1.04-.4 4.5 4.5 0 0 1 1.134-.146 2.446 2.446 0 0 1 1.7.51 2.128 2.128 0 0 1 .554 1.635V81Zm-2.2-.686a1.974 1.974 0 0 0 1.427-.5 1.842 1.842 0 0 0 .519-1.395v-.58l-.973.041a3.538 3.538 0 0 0-1.673.36 1.087 1.087 0 0 0-.513.993 1 1 0 0 0 .319.8 1.326 1.326 0 0 0 .894.281Zm7.852-5.854a3.806 3.806 0 0 1 .768.07l-.135.9a3.313 3.313 0 0 0-.7-.088 1.712 1.712 0 0 0-1.333.633 2.307 2.307 0 0 0-.552 1.58V81h-.973v-6.422h.8l.111 1.189h.047a2.823 2.823 0 0 1 .861-.967 1.939 1.939 0 0 1 1.107-.339Zm4.536 6.657a2.741 2.741 0 0 1-2.159-.858 3.53 3.53 0 0 1-.765-2.429 3.64 3.64 0 0 1 .776-2.49 2.8 2.8 0 0 1 2.212-.879 4.389 4.389 0 0 1 .926.1 3.05 3.05 0 0 1 .727.234l-.3.826a4.574 4.574 0 0 0-.7-.214 3.139 3.139 0 0 0-.674-.085q-1.957 0-1.957 2.5a2.972 2.972 0 0 0 .478 1.816 1.661 1.661 0 0 0 1.415.633 4.326 4.326 0 0 0 1.646-.346v.861a3.509 3.509 0 0 1-1.625.331Zm7.541-.117v-4.154a1.676 1.676 0 0 0-.357-1.172 1.456 1.456 0 0 0-1.119-.387 1.834 1.834 0 0 0-1.479.551 2.79 2.79 0 0 0-.466 1.8V81h-.973v-9.117h.973v2.76a6.013 6.013 0 0 1-.047.826h.059a1.984 1.984 0 0 1 .817-.729 2.657 2.657 0 0 1 1.21-.267 2.478 2.478 0 0 1 1.767.56 2.357 2.357 0 0 1 .586 1.778V81Z" fill="#b7b9c3"/></g><g data-name="Group 156743"><g filter="url(#a)"><path data-name="Rectangle 3464" fill="#fff" d="M263 93h280v168H263z"/></g><g data-name="Group 156742"><g data-name="List Item Condensed"><path data-name="Rectangle 3286" fill="#fff" d="M264 221h277v32H264z"/><path data-name="Path 6663" d="m281.563 242-1.063-2.725h-3.437L276.008 242H275l3.387-8.6h.838l3.369 8.6Zm-1.377-3.621-1-2.654q-.193-.5-.4-1.236a11.1 11.1 0 0 1-.369 1.236l-1.003 2.654Zm4.4.334a11.438 11.438 0 0 1 .768-.937l2.074-2.2h1.154l-2.6 2.736 2.782 3.688h-1.178l-2.268-3.035-.732.635v2.4h-.961v-9.117h.961v4.834q0 .322-.047 1Zm8.268-3.252a3.806 3.806 0 0 1 .768.07l-.135.9a3.313 3.313 0 0 0-.7-.088 1.712 1.712 0 0 0-1.333.633 2.307 2.307 0 0 0-.554 1.579V242h-.973v-6.422h.8l.111 1.189h.047a2.823 2.823 0 0 1 .861-.967 1.939 1.939 0 0 1 1.108-.339Zm7.512 3.322a3.543 3.543 0 0 1-.791 2.452 2.786 2.786 0 0 1-2.186.882 2.9 2.9 0 0 1-1.529-.4 2.668 2.668 0 0 1-1.031-1.16 4.043 4.043 0 0 1-.363-1.77 3.537 3.537 0 0 1 .785-2.446 2.777 2.777 0 0 1 2.18-.876 2.717 2.717 0 0 1 2.142.9 3.527 3.527 0 0 1 .792 2.418Zm-4.893 0a3.048 3.048 0 0 0 .492 1.875 1.708 1.708 0 0 0 1.447.642 1.72 1.72 0 0 0 1.45-.642 3.033 3.033 0 0 0 .5-1.878 2.984 2.984 0 0 0-.5-1.86 1.74 1.74 0 0 0-1.462-.633 1.712 1.712 0 0 0-1.441.627 3.017 3.017 0 0 0-.486 1.869ZM306.465 242v-4.154a1.676 1.676 0 0 0-.357-1.172 1.456 1.456 0 0 0-1.119-.387 1.846 1.846 0 0 0-1.477.545 2.751 2.751 0 0 0-.469 1.8V242h-.973v-6.422h.791l.158.879h.047a1.986 1.986 0 0 1 .838-.735 2.722 2.722 0 0 1 1.2-.261 2.439 2.439 0 0 1 1.746.56 2.381 2.381 0 0 1 .586 1.79V242Z" fill="#252a2e"/></g><g data-name="List Item Condensed"><path data-name="Rectangle 3286" fill="#fff" d="M264 189h277v32H264z"/><path data-name="Path 6662" d="m281.563 210-1.063-2.725h-3.437L276.008 210H275l3.387-8.6h.838l3.369 8.6Zm-1.377-3.621-1-2.654q-.193-.5-.4-1.236a11.1 11.1 0 0 1-.369 1.236l-1.003 2.654Zm7.814 2.76h-.053a2.285 2.285 0 0 1-2.016.979 2.384 2.384 0 0 1-1.96-.861 3.791 3.791 0 0 1-.7-2.449 3.855 3.855 0 0 1 .7-2.467 2.366 2.366 0 0 1 1.957-.879 2.335 2.335 0 0 1 2 .949h.076l-.041-.463-.02-.448v-2.617h.973V210h-.791Zm-1.949.161a1.771 1.771 0 0 0 1.449-.539 2.739 2.739 0 0 0 .448-1.749v-.205a3.222 3.222 0 0 0-.454-1.948 1.724 1.724 0 0 0-1.45-.583 1.489 1.489 0 0 0-1.31.665 3.307 3.307 0 0 0-.454 1.878 3.17 3.17 0 0 0 .451 1.857 1.528 1.528 0 0 0 1.32.624Zm9.3-.164h-.051a2.285 2.285 0 0 1-2.016.979 2.384 2.384 0 0 1-1.96-.861 3.791 3.791 0 0 1-.7-2.449 3.855 3.855 0 0 1 .7-2.467 2.366 2.366 0 0 1 1.957-.879 2.335 2.335 0 0 1 2 .949h.076l-.041-.463-.016-.445v-2.617h.973V210h-.791Zm-1.951.164a1.771 1.771 0 0 0 1.444-.542 2.739 2.739 0 0 0 .456-1.746v-.205a3.222 3.222 0 0 0-.454-1.948 1.724 1.724 0 0 0-1.45-.583 1.489 1.489 0 0 0-1.31.665 3.307 3.307 0 0 0-.454 1.878 3.17 3.17 0 0 0 .451 1.857 1.528 1.528 0 0 0 1.317.624Zm5.9.7h-.973v-6.422h.973Zm-1.05-8.162a.646.646 0 0 1 .164-.489.573.573 0 0 1 .41-.155.573.573 0 0 1 .4.158.634.634 0 0 1 .17.486.644.644 0 0 1-.17.489.567.567 0 0 1-.4.161.562.562 0 0 1-.41-.161.658.658 0 0 1-.164-.489Zm7.26 6.41a1.609 1.609 0 0 1-.668 1.383 3.14 3.14 0 0 1-1.875.486 4.077 4.077 0 0 1-1.992-.4v-.9a4.818 4.818 0 0 0 .993.369 4.147 4.147 0 0 0 1.022.135 2.319 2.319 0 0 0 1.172-.243.8.8 0 0 0 .41-.741.8.8 0 0 0-.325-.642 5.115 5.115 0 0 0-1.269-.63 6.879 6.879 0 0 1-1.278-.589 1.741 1.741 0 0 1-.562-.565 1.475 1.475 0 0 1-.185-.756 1.441 1.441 0 0 1 .647-1.24 2.976 2.976 0 0 1 1.752-.454 5.126 5.126 0 0 1 2.027.422l-.346.791a4.654 4.654 0 0 0-1.752-.4 2.016 2.016 0 0 0-1.043.217.67.67 0 0 0-.352.6.728.728 0 0 0 .132.439 1.3 1.3 0 0 0 .425.346 9.493 9.493 0 0 0 1.125.475 4.2 4.2 0 0 1 1.544.838 1.478 1.478 0 0 1 .398 1.059Zm7.125-1.465a3.543 3.543 0 0 1-.791 2.452 2.786 2.786 0 0 1-2.186.882 2.9 2.9 0 0 1-1.529-.4 2.668 2.668 0 0 1-1.029-1.164 4.043 4.043 0 0 1-.363-1.77 3.537 3.537 0 0 1 .785-2.446 2.777 2.777 0 0 1 2.18-.876 2.717 2.717 0 0 1 2.142.9 3.527 3.527 0 0 1 .791 2.422Zm-4.893 0a3.048 3.048 0 0 0 .492 1.875 1.708 1.708 0 0 0 1.448.642 1.72 1.72 0 0 0 1.45-.642 3.033 3.033 0 0 0 .5-1.878 2.984 2.984 0 0 0-.5-1.86 1.74 1.74 0 0 0-1.462-.636 1.712 1.712 0 0 0-1.441.627 3.017 3.017 0 0 0-.487 1.872ZM318.734 210v-4.154a1.676 1.676 0 0 0-.357-1.172 1.456 1.456 0 0 0-1.119-.387 1.846 1.846 0 0 0-1.477.545 2.751 2.751 0 0 0-.469 1.8V210h-.972v-6.422h.791l.158.879h.047a1.986 1.986 0 0 1 .838-.735 2.722 2.722 0 0 1 1.2-.261 2.439 2.439 0 0 1 1.746.56 2.381 2.381 0 0 1 .586 1.79V210Z" fill="#252a2e"/></g><g data-name="List Item Condensed"><path data-name="Rectangle 3286" fill="#fff" d="M264 157h277v32H264z"/><path data-name="Path 6661" d="m281.563 178-1.063-2.725h-3.437L276.008 178H275l3.387-8.6h.838l3.369 8.6Zm-1.377-3.621-1-2.654q-.193-.5-.4-1.236a11.1 11.1 0 0 1-.369 1.236l-1.003 2.654Zm7.814 2.76h-.053a2.285 2.285 0 0 1-2.016.979 2.384 2.384 0 0 1-1.96-.861 3.791 3.791 0 0 1-.7-2.449 3.855 3.855 0 0 1 .7-2.467 2.366 2.366 0 0 1 1.957-.879 2.335 2.335 0 0 1 2 .949h.076l-.041-.463-.02-.448v-2.617h.973V178h-.791Zm-1.949.161a1.771 1.771 0 0 0 1.449-.539 2.739 2.739 0 0 0 .448-1.749v-.205a3.222 3.222 0 0 0-.454-1.948 1.724 1.724 0 0 0-1.45-.583 1.489 1.489 0 0 0-1.31.665 3.307 3.307 0 0 0-.454 1.878 3.17 3.17 0 0 0 .451 1.857 1.528 1.528 0 0 0 1.32.624Zm8.877.7-.193-.914h-.047a2.7 2.7 0 0 1-.958.817 2.92 2.92 0 0 1-1.192.214 2.145 2.145 0 0 1-1.5-.492 1.8 1.8 0 0 1-.542-1.4q0-1.945 3.111-2.039l1.093-.036v-.4a1.628 1.628 0 0 0-.325-1.116 1.337 1.337 0 0 0-1.04-.36 4.238 4.238 0 0 0-1.816.492l-.3-.744a4.571 4.571 0 0 1 1.04-.4 4.5 4.5 0 0 1 1.134-.146 2.446 2.446 0 0 1 1.7.51 2.128 2.128 0 0 1 .554 1.635V178Zm-2.2-.686a1.974 1.974 0 0 0 1.427-.5 1.842 1.842 0 0 0 .519-1.395v-.58l-.973.041a3.538 3.538 0 0 0-1.673.36 1.087 1.087 0 0 0-.513.993 1 1 0 0 0 .319.8 1.326 1.326 0 0 0 .896.281Zm13.11.686v-4.178a1.734 1.734 0 0 0-.328-1.151 1.269 1.269 0 0 0-1.02-.384 1.646 1.646 0 0 0-1.342.521 2.478 2.478 0 0 0-.434 1.605V178h-.973v-4.178a1.734 1.734 0 0 0-.328-1.151 1.277 1.277 0 0 0-1.025-.384 1.588 1.588 0 0 0-1.339.548 2.965 2.965 0 0 0-.425 1.8V178h-.973v-6.422h.791l.158.879h.047a1.912 1.912 0 0 1 .776-.732 2.372 2.372 0 0 1 1.122-.264 1.908 1.908 0 0 1 1.969 1.09h.047a2.048 2.048 0 0 1 .832-.8 2.582 2.582 0 0 1 1.242-.293 2.175 2.175 0 0 1 1.632.56 2.5 2.5 0 0 1 .542 1.79V178Zm7.119-1.752a1.609 1.609 0 0 1-.668 1.383 3.14 3.14 0 0 1-1.875.486 4.077 4.077 0 0 1-1.992-.4v-.9a4.818 4.818 0 0 0 .993.369 4.147 4.147 0 0 0 1.022.135 2.319 2.319 0 0 0 1.172-.243.8.8 0 0 0 .41-.741.8.8 0 0 0-.325-.642 5.115 5.115 0 0 0-1.269-.63 6.879 6.879 0 0 1-1.274-.583 1.741 1.741 0 0 1-.562-.565 1.475 1.475 0 0 1-.185-.756 1.441 1.441 0 0 1 .639-1.239 2.976 2.976 0 0 1 1.752-.454 5.126 5.126 0 0 1 2.027.422l-.346.791a4.654 4.654 0 0 0-1.752-.4 2.016 2.016 0 0 0-1.043.217.67.67 0 0 0-.352.6.728.728 0 0 0 .132.439 1.3 1.3 0 0 0 .425.346 9.493 9.493 0 0 0 1.125.475 4.2 4.2 0 0 1 1.544.838 1.478 1.478 0 0 1 .402 1.052Zm2.988 1.752-2.437-6.422h1.043l1.383 3.809a18.027 18.027 0 0 1 .551 1.734h.047a13.1 13.1 0 0 1 .407-1.286q.343-.976 1.538-4.257h1.043L317.082 178Zm5.578 0h-.973v-6.422h.973Zm-1.054-8.162a.646.646 0 0 1 .164-.489.573.573 0 0 1 .41-.155.573.573 0 0 1 .4.158.634.634 0 0 1 .17.486.644.644 0 0 1-.17.489.567.567 0 0 1-.4.161.562.562 0 0 1-.41-.161.658.658 0 0 1-.164-.489Zm4.09 8.162h-.973v-9.117h.973Zm3.035 0h-.973v-9.117h.973Zm4.775.117a2.95 2.95 0 0 1-2.247-.867 3.357 3.357 0 0 1-.822-2.408 3.723 3.723 0 0 1 .765-2.467 2.54 2.54 0 0 1 2.054-.914 2.422 2.422 0 0 1 1.91.794 3.043 3.043 0 0 1 .7 2.095v.615h-4.422a2.546 2.546 0 0 0 .571 1.717 1.976 1.976 0 0 0 1.522.586 5.172 5.172 0 0 0 2.051-.434v.866a5.147 5.147 0 0 1-.976.319 5.483 5.483 0 0 1-1.106.098Zm-.264-5.842a1.588 1.588 0 0 0-1.233.5 2.323 2.323 0 0 0-.542 1.395h3.357a2.139 2.139 0 0 0-.41-1.409 1.444 1.444 0 0 0-1.172-.486Z" fill="#252a2e"/></g><g data-name="List Item Condensed"><path data-name="Rectangle 3286" fill="#fff" d="M264 125h277v32H264z"/><path data-name="Path 6660" d="m281.563 146-1.063-2.725h-3.437L276.008 146H275l3.387-8.6h.838l3.369 8.6Zm-1.377-3.621-1-2.654q-.193-.5-.4-1.236a11.1 11.1 0 0 1-.369 1.236l-1.003 2.654Zm6.428-2.906a2.387 2.387 0 0 1 1.966.864 3.793 3.793 0 0 1 .7 2.446 3.821 3.821 0 0 1-.706 2.458 2.378 2.378 0 0 1-1.96.876 2.779 2.779 0 0 1-1.146-.231 2.154 2.154 0 0 1-.868-.712h-.07l-.208.826h-.7v-9.117h.978v2.217q0 .744-.047 1.336h.047a2.309 2.309 0 0 1 2.013-.963Zm-.141.814a1.7 1.7 0 0 0-1.436.571 3.223 3.223 0 0 0-.437 1.925 3.214 3.214 0 0 0 .451 1.937 1.716 1.716 0 0 0 1.449.58 1.5 1.5 0 0 0 1.336-.653 3.358 3.358 0 0 0 .439-1.878 3.227 3.227 0 0 0-.443-1.869 1.557 1.557 0 0 0-1.359-.613Zm7.494-.814a2.387 2.387 0 0 1 1.966.864 3.793 3.793 0 0 1 .7 2.446 3.821 3.821 0 0 1-.706 2.458 2.378 2.378 0 0 1-1.96.876 2.779 2.779 0 0 1-1.146-.231 2.154 2.154 0 0 1-.87-.712h-.07l-.205.826h-.7v-9.117h.973v2.217q0 .744-.047 1.336h.047a2.309 2.309 0 0 1 2.018-.963Zm-.141.814a1.7 1.7 0 0 0-1.436.571 3.223 3.223 0 0 0-.439 1.925 3.214 3.214 0 0 0 .449 1.937 1.716 1.716 0 0 0 1.45.58 1.5 1.5 0 0 0 1.336-.653 3.358 3.358 0 0 0 .439-1.878 3.227 3.227 0 0 0-.439-1.869 1.557 1.557 0 0 0-1.36-.613Zm7.219 5.83a2.95 2.95 0 0 1-2.245-.867 3.357 3.357 0 0 1-.823-2.408 3.723 3.723 0 0 1 .765-2.467 2.54 2.54 0 0 1 2.054-.914 2.422 2.422 0 0 1 1.91.794 3.043 3.043 0 0 1 .7 2.095v.615h-4.424a2.546 2.546 0 0 0 .571 1.717 1.976 1.976 0 0 0 1.526.586 5.172 5.172 0 0 0 2.051-.434v.866a5.147 5.147 0 0 1-.976.319 5.483 5.483 0 0 1-1.109.098Zm-.264-5.842a1.588 1.588 0 0 0-1.233.5 2.323 2.323 0 0 0-.542 1.395h3.357a2.139 2.139 0 0 0-.41-1.409 1.444 1.444 0 0 0-1.172-.486Zm5.69 5.725-2.438-6.422h1.043l1.383 3.809a18.027 18.027 0 0 1 .551 1.734h.047a13.1 13.1 0 0 1 .407-1.286q.343-.976 1.536-4.257h1.043L307.607 146Zm5.578 0h-.973v-6.422h.973Zm-1.055-8.162a.646.646 0 0 1 .164-.489.573.573 0 0 1 .41-.155.573.573 0 0 1 .4.158.634.634 0 0 1 .17.486.644.644 0 0 1-.17.489.567.567 0 0 1-.4.161.562.562 0 0 1-.41-.161.658.658 0 0 1-.164-.489Zm4.09 8.162h-.973v-9.117h.973Zm3.035 0h-.973v-9.117h.973Zm4.775.117a2.95 2.95 0 0 1-2.247-.867 3.357 3.357 0 0 1-.823-2.408 3.723 3.723 0 0 1 .765-2.467 2.54 2.54 0 0 1 2.054-.914 2.422 2.422 0 0 1 1.91.794 3.043 3.043 0 0 1 .7 2.095v.615h-4.421a2.546 2.546 0 0 0 .568 1.717 1.976 1.976 0 0 0 1.526.586 5.172 5.172 0 0 0 2.051-.434v.866a5.147 5.147 0 0 1-.977.321 5.483 5.483 0 0 1-1.105.096Zm-.264-5.842a1.588 1.588 0 0 0-1.233.5 2.323 2.323 0 0 0-.542 1.395h3.357a2.139 2.139 0 0 0-.41-1.409 1.444 1.444 0 0 0-1.171-.486Z" fill="#252a2e"/></g><g data-name="List Item Condensed"><path data-name="Rectangle 3286" fill="#fff" d="M264 93h277v32H264z"/><path data-name="Path 6659" d="m281.445 114-.855-2.379h-3.276l-.837 2.379H275l3.205-8.6h1.524l3.205 8.6Zm-1.224-3.586-.8-2.332q-.088-.234-.243-.738t-.214-.738a13.132 13.132 0 0 1-.464 1.576l-.775 2.232Zm3.843 3.586v-8.566h1.4v7.366h3.627v1.2Zm11.819 0-.855-2.379h-3.276l-.838 2.379h-1.476l3.205-8.6h1.523l3.205 8.6Zm-1.225-3.586-.8-2.332q-.088-.234-.243-.738t-.215-.739a13.132 13.132 0 0 1-.463 1.576l-.773 2.232Zm3.842-4.98h2.543a4.826 4.826 0 0 1 2.558.516 1.805 1.805 0 0 1 .788 1.629 1.974 1.974 0 0 1-.389 1.247 1.729 1.729 0 0 1-1.113.627v.059a2.21 2.21 0 0 1 1.327.671 2.029 2.029 0 0 1 .425 1.356 2.2 2.2 0 0 1-.806 1.808 3.466 3.466 0 0 1-2.233.653h-3.1Zm1.4 3.539h1.35a2.307 2.307 0 0 0 1.283-.278 1.066 1.066 0 0 0 .4-.946.948.948 0 0 0-.437-.873 2.726 2.726 0 0 0-1.386-.27h-1.21Zm0 1.137v2.713h1.488a2.191 2.191 0 0 0 1.327-.337 1.244 1.244 0 0 0 .448-1.063 1.129 1.129 0 0 0-.457-.99 2.422 2.422 0 0 0-1.389-.322Zm11.838 3.89-.855-2.379h-3.276L306.77 114h-1.477l3.207-8.6h1.523l3.204 8.6Zm-1.224-3.586-.8-2.332q-.088-.234-.243-.738t-.214-.738a13.132 13.132 0 0 1-.463 1.576l-.773 2.232Zm7.547 3.586-2.485-7.154h-.047q.1 1.594.1 2.988V114h-1.272v-8.566h1.975l2.379 6.814h.035l2.454-6.814h1.98V114h-1.352v-4.236q0-.639.032-1.664t.056-1.242h-.047L319.3 114Zm12.685 0-.855-2.379h-3.276l-.838 2.379H324.3l3.205-8.6h1.523l3.206 8.6Zm-1.225-3.586-.8-2.332q-.088-.234-.243-.738t-.214-.738a13.132 13.132 0 0 1-.464 1.576l-.773 2.232Z" fill="#6a6e79"/></g></g></g></g></svg>