<svg xmlns="http://www.w3.org/2000/svg" width="790" height="253"><defs><filter id="a" x="251" y="88" width="292" height="117" filterUnits="userSpaceOnUse"><feOffset/><feGaussianBlur stdDeviation="2" result="blur"/><feFlood flood-opacity=".161"/><feComposite operator="in" in2="blur"/><feComposite in="SourceGraphic"/></filter></defs><g data-name="Path 6582" fill="#f1f1f6"><path d="M789.5 252.5H.5V.5h789v252Z"/><path d="M1 1v251h788V1H1M0 0h790v253H0V0Z" fill="#cbcdd6"/></g><g data-name="Group 156792"><g filter="url(#a)"><path data-name="Rectangle 3464" fill="#fff" d="M257 94h280v105H257z"/></g><g data-name="Group 6710"><g data-name="Rectangle 1841" fill="#fff" stroke="#e0e1e9"><path d="M259 61h276a2 2 0 0 1 2 2v30H257V63a2 2 0 0 1 2-2Z" stroke="none"/><path d="M259 61.5h276a1.5 1.5 0 0 1 1.5 1.5v29.5h-279V63a1.5 1.5 0 0 1 1.5-1.5Z" fill="none"/></g><path data-name="Bottom Line" fill="#217cbb" d="M257 91h280v2H257z"/></g><path data-name="Path 6670" d="M258.178 50v-8.566h1V49.1h3.775v.9Zm10.031 0-.193-.914h-.047a2.7 2.7 0 0 1-.958.817 2.92 2.92 0 0 1-1.193.214 2.145 2.145 0 0 1-1.5-.492 1.8 1.8 0 0 1-.542-1.4q0-1.945 3.111-2.039l1.09-.035v-.4a1.628 1.628 0 0 0-.325-1.116 1.337 1.337 0 0 0-1.04-.36 4.238 4.238 0 0 0-1.812.493l-.3-.744a4.571 4.571 0 0 1 1.04-.4 4.5 4.5 0 0 1 1.134-.146 2.446 2.446 0 0 1 1.7.51 2.128 2.128 0 0 1 .554 1.635V50Zm-2.2-.686a1.974 1.974 0 0 0 1.427-.5 1.842 1.842 0 0 0 .519-1.395v-.58l-.973.041a3.538 3.538 0 0 0-1.673.36 1.087 1.087 0 0 0-.513.993 1 1 0 0 0 .319.8 1.326 1.326 0 0 0 .897.281Zm7.91-5.842a2.387 2.387 0 0 1 1.966.864 3.793 3.793 0 0 1 .7 2.446 3.821 3.821 0 0 1-.706 2.458 2.378 2.378 0 0 1-1.96.876 2.779 2.779 0 0 1-1.146-.231 2.154 2.154 0 0 1-.87-.712h-.07l-.202.827h-.7v-9.117h.973V43.1q0 .744-.047 1.336h.047a2.309 2.309 0 0 1 2.018-.963Zm-.141.814a1.7 1.7 0 0 0-1.436.571 3.223 3.223 0 0 0-.439 1.925 3.214 3.214 0 0 0 .451 1.937 1.716 1.716 0 0 0 1.446.581 1.5 1.5 0 0 0 1.336-.653 3.358 3.358 0 0 0 .439-1.878 3.227 3.227 0 0 0-.434-1.869 1.557 1.557 0 0 0-1.36-.613ZM281 50.117a2.95 2.95 0 0 1-2.247-.867 3.357 3.357 0 0 1-.823-2.408 3.723 3.723 0 0 1 .765-2.467 2.54 2.54 0 0 1 2.054-.914 2.422 2.422 0 0 1 1.91.794 3.043 3.043 0 0 1 .7 2.095v.615h-4.421a2.546 2.546 0 0 0 .571 1.717 1.976 1.976 0 0 0 1.526.586 5.172 5.172 0 0 0 2.051-.434v.866a5.147 5.147 0 0 1-.976.319 5.483 5.483 0 0 1-1.11.098Zm-.264-5.842a1.588 1.588 0 0 0-1.233.5 2.323 2.323 0 0 0-.542 1.395h3.357a2.139 2.139 0 0 0-.41-1.409 1.444 1.444 0 0 0-1.172-.486ZM285.992 50h-.972v-9.117h.973Z" fill="#464b52"/><path data-name="Path 6671" d="M274.992 77.713a11.438 11.438 0 0 1 .768-.937l2.074-2.2h1.154l-2.6 2.736L279.17 81h-1.178l-2.267-3.035-.733.635V81h-.961v-9.117h.961v4.834q0 .322-.047 1ZM285.861 81l-1.066-2.725h-3.434L280.307 81H279.3l3.386-8.6h.838l3.369 8.6Zm-1.377-3.621-1-2.654q-.193-.5-.4-1.236a11.1 11.1 0 0 1-.369 1.236l-1.002 2.654Zm6.428-2.906a2.387 2.387 0 0 1 1.966.864 3.793 3.793 0 0 1 .7 2.446 3.821 3.821 0 0 1-.706 2.458 2.378 2.378 0 0 1-1.96.876 2.779 2.779 0 0 1-1.146-.231 2.154 2.154 0 0 1-.87-.712h-.07l-.205.826h-.7v-9.117h.979V74.1q0 .744-.047 1.336h.047a2.309 2.309 0 0 1 2.012-.963Zm-.141.814a1.7 1.7 0 0 0-1.436.571 3.223 3.223 0 0 0-.435 1.925 3.214 3.214 0 0 0 .451 1.937 1.716 1.716 0 0 0 1.444.58 1.5 1.5 0 0 0 1.336-.653 3.358 3.358 0 0 0 .439-1.878 3.227 3.227 0 0 0-.439-1.869 1.557 1.557 0 0 0-1.36-.613ZM296.684 81l-2.438-6.422h1.043l1.383 3.809a18.027 18.027 0 0 1 .551 1.734h.047a13.1 13.1 0 0 1 .407-1.286q.343-.976 1.538-4.257h1.043L297.82 81Zm5.516-6.422v4.166a1.676 1.676 0 0 0 .357 1.172 1.456 1.456 0 0 0 1.123.384 1.826 1.826 0 0 0 1.474-.551 2.778 2.778 0 0 0 .466-1.8v-3.371h.973V81h-.8l-.141-.861h-.052a1.939 1.939 0 0 1-.829.727 2.787 2.787 0 0 1-1.21.252 2.455 2.455 0 0 1-1.761-.557 2.37 2.37 0 0 1-.583-1.781v-4.2ZM309.627 81h-.973v-6.422h.973Zm-1.055-8.162a.646.646 0 0 1 .164-.489.573.573 0 0 1 .41-.155.573.573 0 0 1 .4.158.634.634 0 0 1 .17.486.644.644 0 0 1-.17.489.567.567 0 0 1-.4.161.562.562 0 0 1-.41-.161.658.658 0 0 1-.164-.489Z" fill="#252a2e"/></g><path fill="none" stroke="#252a2e" d="M313.5 67.5v18"/><g data-name="Group 156791"><g data-name="Search Icon"><path data-name="Path 6175" d="M315 117h24v24h-24Z" fill="none"/><path data-name="Path 6176" d="M330.5 131h-.79l-.28-.27a6.51 6.51 0 1 0-.7.7l.27.28v.79l5 4.99 1.49-1.49Zm-6 0a4.5 4.5 0 1 1 4.5-4.5 4.494 4.494 0 0 1-4.5 4.5Z" fill="#6a6e79"/></g><path data-name="Path 6672" d="M358.023 134h-2.289l-5.617-9.1h-.062l.039.508q.106 1.451.106 2.655V134h-1.7v-11.422h2.273l5.6 9.055h.047q-.016-.18-.062-1.309t-.045-1.761v-5.984h1.711Zm10.485-4.336a4.716 4.716 0 0 1-1.086 3.3 3.891 3.891 0 0 1-3.022 1.192 4.143 4.143 0 0 1-2.141-.547 3.61 3.61 0 0 1-1.43-1.57 5.348 5.348 0 0 1-.5-2.375 4.684 4.684 0 0 1 1.078-3.281 3.909 3.909 0 0 1 3.038-1.183 3.807 3.807 0 0 1 2.969 1.21 4.663 4.663 0 0 1 1.094 3.254Zm-6.289 0q0 2.992 2.211 2.992 2.188 0 2.188-2.992 0-2.961-2.2-2.961a1.879 1.879 0 0 0-1.676.766 3.9 3.9 0 0 0-.523 2.195Zm16.937-4.464a4.42 4.42 0 0 1 .914.078l-.18 1.711a3.47 3.47 0 0 0-.812-.094 2.351 2.351 0 0 0-1.785.719 2.6 2.6 0 0 0-.684 1.867V134h-1.836v-8.641h1.438l.242 1.523h.094a3.423 3.423 0 0 1 1.121-1.227 2.665 2.665 0 0 1 1.488-.455Zm6.289 8.956a4.18 4.18 0 0 1-3.152-1.176 4.463 4.463 0 0 1-1.137-3.238 4.9 4.9 0 0 1 1.055-3.328 3.643 3.643 0 0 1 2.9-1.211 3.561 3.561 0 0 1 2.7 1.039 3.97 3.97 0 0 1 .989 2.858v.992h-5.753a2.838 2.838 0 0 0 .68 1.934 2.367 2.367 0 0 0 1.8.676 6.662 6.662 0 0 0 1.426-.145 7.474 7.474 0 0 0 1.418-.48v1.493a5.637 5.637 0 0 1-1.359.453 8.336 8.336 0 0 1-1.567.133Zm-.336-7.562a1.845 1.845 0 0 0-1.4.555 2.643 2.643 0 0 0-.629 1.617H387a2.392 2.392 0 0 0-.516-1.621 1.764 1.764 0 0 0-1.375-.551Zm11.591 4.945a2.261 2.261 0 0 1-.927 1.941 4.414 4.414 0 0 1-2.641.676 6.237 6.237 0 0 1-2.773-.523v-1.586a6.809 6.809 0 0 0 2.836.7q1.7 0 1.7-1.023a.811.811 0 0 0-.195-.544 2.219 2.219 0 0 0-.617-.453 10.621 10.621 0 0 0-1.2-.531 5.529 5.529 0 0 1-2.02-1.156 2.139 2.139 0 0 1-.527-1.5 1.97 1.97 0 0 1 .895-1.723 4.245 4.245 0 0 1 2.441-.617 6.893 6.893 0 0 1 2.883.617l-.594 1.383a6.412 6.412 0 0 0-2.352-.578q-1.453 0-1.453.828a.833.833 0 0 0 .379.688 8.333 8.333 0 0 0 1.652.773 7.553 7.553 0 0 1 1.555.758 2.265 2.265 0 0 1 .719.793 2.3 2.3 0 0 1 .239 1.077Zm8.073 2.461-.258-1.133h-.094a2.6 2.6 0 0 1-1.09.945 3.644 3.644 0 0 1-1.613.344 3.167 3.167 0 0 1-2.344-.781 3.239 3.239 0 0 1-.774-2.367v-5.649h1.852v5.328a2.311 2.311 0 0 0 .406 1.488 1.551 1.551 0 0 0 1.273.5 2.028 2.028 0 0 0 1.7-.691 3.81 3.81 0 0 0 .543-2.316v-4.3h1.844V134Zm5.9 0h-1.837v-12.156h1.836Zm5.844-1.328a4.465 4.465 0 0 0 1.344-.211v1.383a3.706 3.706 0 0 1-.785.223 5.409 5.409 0 0 1-1 .09q-2.609 0-2.609-2.75v-4.657h-1.18v-.812l1.266-.672.625-1.828h1.133v1.922h2.461v1.39h-2.459v4.625a1.3 1.3 0 0 0 .332.98 1.21 1.21 0 0 0 .871.317Zm8.875-1.133a2.261 2.261 0 0 1-.923 1.941 4.414 4.414 0 0 1-2.641.676 6.237 6.237 0 0 1-2.773-.523v-1.586a6.809 6.809 0 0 0 2.836.7q1.7 0 1.7-1.023a.811.811 0 0 0-.191-.544 2.219 2.219 0 0 0-.617-.453 10.621 10.621 0 0 0-1.2-.531 5.529 5.529 0 0 1-2.02-1.156 2.139 2.139 0 0 1-.527-1.5 1.97 1.97 0 0 1 .895-1.723 4.245 4.245 0 0 1 2.436-.617 6.893 6.893 0 0 1 2.883.617l-.594 1.383a6.412 6.412 0 0 0-2.356-.575q-1.453 0-1.453.828a.833.833 0 0 0 .379.688 8.332 8.332 0 0 0 1.652.773 7.553 7.553 0 0 1 1.555.758 2.265 2.265 0 0 1 .719.793 2.3 2.3 0 0 1 .239 1.074Zm10.475-4.789h-2.109V134h-1.844v-7.25h-1.422v-.859l1.422-.562v-.562a3.144 3.144 0 0 1 .719-2.27 2.939 2.939 0 0 1 2.2-.738 5.859 5.859 0 0 1 1.906.32l-.484 1.391a4.232 4.232 0 0 0-1.3-.219 1.056 1.056 0 0 0-.91.387 1.949 1.949 0 0 0-.285 1.16v.563h2.109Zm9.133 2.914a4.716 4.716 0 0 1-1.086 3.3 3.891 3.891 0 0 1-3.023 1.192 4.143 4.143 0 0 1-2.141-.547 3.61 3.61 0 0 1-1.43-1.57 5.348 5.348 0 0 1-.5-2.375 4.684 4.684 0 0 1 1.08-3.281 3.909 3.909 0 0 1 3.038-1.183 3.807 3.807 0 0 1 2.968 1.21 4.663 4.663 0 0 1 1.094 3.254Zm-6.289 0q0 2.992 2.211 2.992 2.188 0 2.188-2.992 0-2.961-2.2-2.961a1.879 1.879 0 0 0-1.676.766 3.9 3.9 0 0 0-.523 2.195ZM453.2 134l-.258-1.133h-.094a2.6 2.6 0 0 1-1.09.945 3.644 3.644 0 0 1-1.613.344 3.167 3.167 0 0 1-2.345-.781 3.239 3.239 0 0 1-.773-2.367v-5.649h1.852v5.328a2.311 2.311 0 0 0 .406 1.488 1.551 1.551 0 0 0 1.273.5 2.028 2.028 0 0 0 1.7-.691 3.81 3.81 0 0 0 .543-2.316v-4.3h1.844V134Zm11.664 0h-1.844v-5.312a2.325 2.325 0 0 0-.4-1.492 1.555 1.555 0 0 0-1.277-.492 2.031 2.031 0 0 0-1.7.688 3.8 3.8 0 0 0-.539 2.3V134h-1.836v-8.641h1.432l.258 1.133h.094a2.556 2.556 0 0 1 1.109-.953 3.718 3.718 0 0 1 1.594-.336q3.109 0 3.109 3.164Zm5.469.156a3.01 3.01 0 0 1-2.523-1.172 5.267 5.267 0 0 1-.906-3.289 5.284 5.284 0 0 1 .918-3.309 3.038 3.038 0 0 1 2.545-1.186 2.979 2.979 0 0 1 2.594 1.258h.094a11.006 11.006 0 0 1-.133-1.469v-3.148h1.844V134h-1.437l-.32-1.133h-.086a2.935 2.935 0 0 1-2.587 1.289Zm.492-1.484a2 2 0 0 0 1.648-.637 3.352 3.352 0 0 0 .531-2.066v-.258a3.873 3.873 0 0 0-.531-2.32 1.971 1.971 0 0 0-1.664-.687 1.688 1.688 0 0 0-1.492.785 4.024 4.024 0 0 0-.523 2.238 3.923 3.923 0 0 0 .508 2.191 1.714 1.714 0 0 0 1.526.754Z" fill="#6a6e79"/></g><path data-name="Path 6673" d="M286.846 153.2a2.8 2.8 0 0 0-2.229.94 3.793 3.793 0 0 0-.817 2.577 3.869 3.869 0 0 0 .788 2.6 2.8 2.8 0 0 0 2.247.917 7.672 7.672 0 0 0 2.044-.324v.873a6.3 6.3 0 0 1-2.2.334 3.717 3.717 0 0 1-2.918-1.148 4.729 4.729 0 0 1-1.029-3.264 5.151 5.151 0 0 1 .5-2.32 3.555 3.555 0 0 1 1.425-1.535 4.327 4.327 0 0 1 2.2-.539 5.309 5.309 0 0 1 2.356.489l-.422.855a4.54 4.54 0 0 0-1.945-.455ZM295 161v-4.154a1.676 1.676 0 0 0-.357-1.172 1.456 1.456 0 0 0-1.119-.387 1.834 1.834 0 0 0-1.479.551 2.79 2.79 0 0 0-.466 1.8V161h-.979v-9.117h.973v2.76a6.013 6.013 0 0 1-.047.826h.059a1.984 1.984 0 0 1 .817-.729 2.657 2.657 0 0 1 1.21-.267 2.478 2.478 0 0 1 1.767.56 2.357 2.357 0 0 1 .589 1.778V161Zm5.68.117a2.95 2.95 0 0 1-2.247-.867 3.357 3.357 0 0 1-.823-2.408 3.723 3.723 0 0 1 .765-2.467 2.54 2.54 0 0 1 2.054-.914 2.422 2.422 0 0 1 1.91.794 3.043 3.043 0 0 1 .7 2.095v.615h-4.422a2.546 2.546 0 0 0 .571 1.717 1.976 1.976 0 0 0 1.526.586 5.172 5.172 0 0 0 2.051-.434v.866a5.147 5.147 0 0 1-.976.319 5.483 5.483 0 0 1-1.109.098Zm-.264-5.842a1.588 1.588 0 0 0-1.233.5 2.323 2.323 0 0 0-.542 1.395H302a2.139 2.139 0 0 0-.41-1.409 1.444 1.444 0 0 0-1.174-.486Zm6.85 5.842a2.741 2.741 0 0 1-2.159-.858 3.53 3.53 0 0 1-.765-2.429 3.64 3.64 0 0 1 .776-2.49 2.8 2.8 0 0 1 2.212-.879 4.389 4.389 0 0 1 .926.1 3.05 3.05 0 0 1 .727.234l-.3.826a4.574 4.574 0 0 0-.7-.214 3.139 3.139 0 0 0-.674-.085q-1.957 0-1.957 2.5a2.972 2.972 0 0 0 .478 1.816 1.661 1.661 0 0 0 1.415.633 4.326 4.326 0 0 0 1.646-.346v.861a3.509 3.509 0 0 1-1.625.331Zm4.107-3.4a11.438 11.438 0 0 1 .768-.937l2.074-2.2h1.154l-2.6 2.736 2.782 3.684h-1.178l-2.268-3.035-.732.633V161h-.961v-9.117h.961v4.834q0 .322-.047 1Zm12.6 1.535a1.609 1.609 0 0 1-.673 1.379 3.14 3.14 0 0 1-1.875.486 4.077 4.077 0 0 1-1.992-.4v-.9a4.818 4.818 0 0 0 .993.369 4.147 4.147 0 0 0 1.022.135 2.319 2.319 0 0 0 1.172-.243.8.8 0 0 0 .41-.741.8.8 0 0 0-.325-.642 5.115 5.115 0 0 0-1.269-.63 6.879 6.879 0 0 1-1.274-.583 1.741 1.741 0 0 1-.562-.572 1.475 1.475 0 0 1-.185-.756 1.441 1.441 0 0 1 .639-1.239 2.976 2.976 0 0 1 1.752-.454 5.126 5.126 0 0 1 2.027.422l-.346.791a4.654 4.654 0 0 0-1.752-.4 2.016 2.016 0 0 0-1.043.217.67.67 0 0 0-.352.6.728.728 0 0 0 .132.439 1.3 1.3 0 0 0 .425.346 9.493 9.493 0 0 0 1.125.475 4.2 4.2 0 0 1 1.544.838 1.478 1.478 0 0 1 .405 1.059Zm4.568 1.865a2.779 2.779 0 0 1-1.141-.231 2.154 2.154 0 0 1-.87-.712h-.07a8.614 8.614 0 0 1 .065 1.066v2.643h-.973v-9.3h.791l.135.879h.047a2.259 2.259 0 0 1 .875-.762 2.654 2.654 0 0 1 1.143-.234 2.374 2.374 0 0 1 1.972.873 3.844 3.844 0 0 1 .694 2.449 3.821 3.821 0 0 1-.709 2.453 2.378 2.378 0 0 1-1.959.876Zm-.141-5.83a1.724 1.724 0 0 0-1.424.545 2.8 2.8 0 0 0-.451 1.734v.217a3.214 3.214 0 0 0 .451 1.937 1.716 1.716 0 0 0 1.448.58 1.5 1.5 0 0 0 1.3-.674 3.2 3.2 0 0 0 .476-1.855 3.075 3.075 0 0 0-.472-1.843 1.551 1.551 0 0 0-1.328-.641Zm7.219 5.83a2.95 2.95 0 0 1-2.247-.867 3.357 3.357 0 0 1-.823-2.408 3.723 3.723 0 0 1 .765-2.467 2.54 2.54 0 0 1 2.054-.914 2.422 2.422 0 0 1 1.91.794 3.043 3.043 0 0 1 .7 2.095v.615h-4.421a2.546 2.546 0 0 0 .571 1.717 1.976 1.976 0 0 0 1.526.586 5.172 5.172 0 0 0 2.051-.434v.866a5.147 5.147 0 0 1-.976.319 5.483 5.483 0 0 1-1.11.098Zm-.264-5.842a1.588 1.588 0 0 0-1.233.5 2.323 2.323 0 0 0-.542 1.395h3.357a2.139 2.139 0 0 0-.41-1.409 1.444 1.444 0 0 0-1.172-.486Zm5.256 5.725h-.973v-9.117h.973Zm3.035 0h-.973v-9.117h.973Zm3.035 0h-.973v-6.422h.973Zm-1.054-8.162a.646.646 0 0 1 .164-.489.573.573 0 0 1 .41-.155.573.573 0 0 1 .4.158.634.634 0 0 1 .17.486.644.644 0 0 1-.17.489.567.567 0 0 1-.4.161.562.562 0 0 1-.41-.161.658.658 0 0 1-.164-.489Zm7.512 8.162v-4.154a1.676 1.676 0 0 0-.357-1.172 1.456 1.456 0 0 0-1.119-.387 1.846 1.846 0 0 0-1.477.545 2.751 2.751 0 0 0-.469 1.8V161h-.973v-6.422h.791l.158.879h.047a1.986 1.986 0 0 1 .838-.735 2.722 2.722 0 0 1 1.2-.261 2.439 2.439 0 0 1 1.746.56 2.381 2.381 0 0 1 .586 1.79V161Zm8.227-6.422v.615l-1.189.141a2.045 2.045 0 0 1 .293.536 2.046 2.046 0 0 1 .129.747 1.9 1.9 0 0 1-.645 1.506 2.6 2.6 0 0 1-1.77.563 2.947 2.947 0 0 1-.539-.047.957.957 0 0 0-.621.826.42.42 0 0 0 .217.39 1.584 1.584 0 0 0 .744.126h1.137a2.545 2.545 0 0 1 1.6.439 1.527 1.527 0 0 1 .561 1.28 1.823 1.823 0 0 1-.855 1.626 4.579 4.579 0 0 1-2.5.56 3.41 3.41 0 0 1-1.942-.469 1.513 1.513 0 0 1-.683-1.324 1.487 1.487 0 0 1 .379-1.017 1.909 1.909 0 0 1 1.054-.576 1.017 1.017 0 0 1-.413-.346.915.915 0 0 1-.167-.545 1.034 1.034 0 0 1 .188-.615 1.971 1.971 0 0 1 .592-.51 1.735 1.735 0 0 1-.812-.7 2.049 2.049 0 0 1-.313-1.125 2.078 2.078 0 0 1 .633-1.626 2.584 2.584 0 0 1 1.793-.571 3.26 3.26 0 0 1 .908.117Zm-5.121 7.5a.872.872 0 0 0 .439.791 2.425 2.425 0 0 0 1.26.27 3.515 3.515 0 0 0 1.813-.366 1.121 1.121 0 0 0 .589-.993.786.786 0 0 0-.322-.724 2.5 2.5 0 0 0-1.213-.2h-1.166a1.536 1.536 0 0 0-1.032.314 1.131 1.131 0 0 0-.369.908Zm.527-5.443a1.307 1.307 0 0 0 .381 1.02 1.521 1.521 0 0 0 1.06.345 1.241 1.241 0 0 0 1.424-1.383 1.277 1.277 0 0 0-1.437-1.447 1.427 1.427 0 0 0-1.055.369 1.487 1.487 0 0 0-.374 1.096Zm14.572 1.148a3.543 3.543 0 0 1-.791 2.452 2.786 2.786 0 0 1-2.186.882 2.9 2.9 0 0 1-1.529-.4 2.668 2.668 0 0 1-1.031-1.16 4.043 4.043 0 0 1-.363-1.77 3.537 3.537 0 0 1 .785-2.446 2.777 2.777 0 0 1 2.18-.876 2.717 2.717 0 0 1 2.142.9 3.527 3.527 0 0 1 .793 2.418Zm-4.893 0a3.048 3.048 0 0 0 .492 1.875 1.708 1.708 0 0 0 1.448.642 1.72 1.72 0 0 0 1.45-.642 3.033 3.033 0 0 0 .5-1.878 2.984 2.984 0 0 0-.5-1.86 1.74 1.74 0 0 0-1.462-.636 1.712 1.712 0 0 0-1.441.627 3.017 3.017 0 0 0-.487 1.872Zm9.527-3.322a3.806 3.806 0 0 1 .768.07l-.135.9a3.313 3.313 0 0 0-.7-.088 1.712 1.712 0 0 0-1.333.633 2.307 2.307 0 0 0-.554 1.576V161h-.973v-6.422h.8l.111 1.189h.047a2.823 2.823 0 0 1 .861-.967 1.939 1.939 0 0 1 1.109-.339Zm7.16 5.854a3.177 3.177 0 0 0 .5-.038 3.224 3.224 0 0 0 .381-.079v.744a1.778 1.778 0 0 1-.466.126 3.5 3.5 0 0 1-.554.05q-1.863 0-1.863-1.963v-3.82h-.92v-.469l.92-.4.41-1.371h.563v1.488h1.863v.756h-1.863v3.779a1.3 1.3 0 0 0 .275.891.958.958 0 0 0 .755.305Zm5.092-5.854a3.806 3.806 0 0 1 .768.07l-.135.9a3.313 3.313 0 0 0-.7-.088 1.712 1.712 0 0 0-1.333.633 2.307 2.307 0 0 0-.554 1.576V161h-.976v-6.422h.8l.111 1.189h.047a2.823 2.823 0 0 1 .861-.967 1.939 1.939 0 0 1 1.111-.339Zm.949.117h1.043l1.406 3.662a13.929 13.929 0 0 1 .572 1.811h.047q.076-.3.319-1.022t1.591-4.45h1.043l-2.757 7.312a3.648 3.648 0 0 1-.958 1.538 2.037 2.037 0 0 1-1.345.454 3.913 3.913 0 0 1-.879-.1V163a3.39 3.39 0 0 0 .721.07 1.486 1.486 0 0 0 1.43-1.125l.357-.914ZM403.313 161l-.193-.914h-.047a2.7 2.7 0 0 1-.958.817 2.92 2.92 0 0 1-1.192.214 2.145 2.145 0 0 1-1.5-.492 1.8 1.8 0 0 1-.542-1.4q0-1.945 3.111-2.039l1.09-.035v-.4a1.628 1.628 0 0 0-.325-1.116 1.337 1.337 0 0 0-1.04-.36 4.238 4.238 0 0 0-1.816.492l-.3-.744a4.571 4.571 0 0 1 1.04-.4 4.5 4.5 0 0 1 1.134-.146 2.446 2.446 0 0 1 1.7.51 2.128 2.128 0 0 1 .554 1.635V161Zm-2.2-.686a1.974 1.974 0 0 0 1.427-.5 1.842 1.842 0 0 0 .519-1.395v-.58l-.973.041a3.538 3.538 0 0 0-1.673.36 1.087 1.087 0 0 0-.513.993 1 1 0 0 0 .319.8 1.326 1.326 0 0 0 .896.281Zm12.41-.176h-.053a2.285 2.285 0 0 1-2.016.979 2.384 2.384 0 0 1-1.96-.861 3.791 3.791 0 0 1-.7-2.449 3.855 3.855 0 0 1 .7-2.467 2.366 2.366 0 0 1 1.957-.879 2.335 2.335 0 0 1 2 .949h.076l-.041-.463-.023-.451v-2.613h.973V161h-.791Zm-1.943.162a1.771 1.771 0 0 0 1.444-.542 2.739 2.739 0 0 0 .448-1.749v-.205a3.222 3.222 0 0 0-.454-1.948 1.724 1.724 0 0 0-1.45-.583 1.489 1.489 0 0 0-1.31.665 3.307 3.307 0 0 0-.454 1.878 3.17 3.17 0 0 0 .451 1.857 1.528 1.528 0 0 0 1.325.627Zm5.9.7h-.973v-6.422h.973Zm-1.055-8.162a.646.646 0 0 1 .164-.489.573.573 0 0 1 .41-.155.573.573 0 0 1 .4.158.634.634 0 0 1 .17.486.644.644 0 0 1-.17.489.567.567 0 0 1-.4.161.562.562 0 0 1-.41-.161.658.658 0 0 1-.163-.489Zm10.078 2.5h-1.635V161h-.968v-5.666h-1.148v-.439l1.148-.352v-.357q0-2.367 2.068-2.367a4.256 4.256 0 0 1 1.2.205l-.252.779a3.218 3.218 0 0 0-.961-.182.936.936 0 0 0-.814.366 2.044 2.044 0 0 0-.264 1.175v.416h1.623Zm-4.066 0H420.8V161h-.973v-5.666h-1.148v-.439l1.148-.352v-.357q0-2.367 2.068-2.367a4.256 4.256 0 0 1 1.2.205l-.252.779a3.218 3.218 0 0 0-.961-.182.936.936 0 0 0-.814.366 2.044 2.044 0 0 0-.264 1.175v.416h1.635Zm7.958 5.779a2.95 2.95 0 0 1-2.247-.867 3.357 3.357 0 0 1-.823-2.408 3.723 3.723 0 0 1 .765-2.467 2.54 2.54 0 0 1 2.054-.914 2.422 2.422 0 0 1 1.91.794 3.043 3.043 0 0 1 .7 2.095v.615h-4.424a2.546 2.546 0 0 0 .571 1.717 1.976 1.976 0 0 0 1.526.586 5.172 5.172 0 0 0 2.051-.434v.866a5.147 5.147 0 0 1-.976.319 5.483 5.483 0 0 1-1.107.098Zm-.264-5.842a1.588 1.588 0 0 0-1.233.5 2.323 2.323 0 0 0-.542 1.395h3.357a2.139 2.139 0 0 0-.41-1.409 1.444 1.444 0 0 0-1.172-.486Zm7.213-.814a3.806 3.806 0 0 1 .768.07l-.135.9a3.313 3.313 0 0 0-.7-.088 1.712 1.712 0 0 0-1.333.633 2.307 2.307 0 0 0-.554 1.576V161h-.973v-6.422h.8l.111 1.189h.047a2.823 2.823 0 0 1 .861-.967 1.939 1.939 0 0 1 1.108-.339Zm4.681 6.656a2.95 2.95 0 0 1-2.247-.867 3.357 3.357 0 0 1-.823-2.408 3.723 3.723 0 0 1 .765-2.467 2.54 2.54 0 0 1 2.054-.914 2.422 2.422 0 0 1 1.91.794 3.043 3.043 0 0 1 .7 2.095v.615h-4.424a2.546 2.546 0 0 0 .571 1.717 1.976 1.976 0 0 0 1.526.586 5.172 5.172 0 0 0 2.051-.434v.866a5.147 5.147 0 0 1-.976.319 5.483 5.483 0 0 1-1.107.098Zm-.264-5.842a1.588 1.588 0 0 0-1.233.5 2.323 2.323 0 0 0-.542 1.395h3.357a2.139 2.139 0 0 0-.41-1.409 1.444 1.444 0 0 0-1.171-.486Zm8.678 5.725v-4.154a1.676 1.676 0 0 0-.357-1.172 1.456 1.456 0 0 0-1.119-.387 1.846 1.846 0 0 0-1.477.545 2.751 2.751 0 0 0-.469 1.8V161h-.973v-6.422h.791l.158.879h.047a1.986 1.986 0 0 1 .838-.735 2.722 2.722 0 0 1 1.2-.261 2.439 2.439 0 0 1 1.746.56 2.381 2.381 0 0 1 .586 1.79V161Zm5.045-.686a3.177 3.177 0 0 0 .5-.038 3.224 3.224 0 0 0 .381-.079v.744a1.778 1.778 0 0 1-.466.126 3.5 3.5 0 0 1-.554.05q-1.863 0-1.863-1.963v-3.82h-.92v-.469l.92-.4.41-1.371h.563v1.488h1.863v.756h-1.863v3.779a1.3 1.3 0 0 0 .275.891.958.958 0 0 0 .754.306Zm6.24-2.6a11.438 11.438 0 0 1 .768-.937l2.074-2.2h1.154l-2.6 2.736L465.9 161h-1.178l-2.268-3.035-.732.633V161h-.961v-9.117h.961v4.834q0 .322-.047 1Zm8.051 3.4a2.95 2.95 0 0 1-2.247-.867 3.357 3.357 0 0 1-.823-2.408 3.723 3.723 0 0 1 .765-2.467 2.54 2.54 0 0 1 2.054-.914 2.422 2.422 0 0 1 1.91.794 3.043 3.043 0 0 1 .7 2.095v.615h-4.424a2.546 2.546 0 0 0 .571 1.717 1.976 1.976 0 0 0 1.526.586 5.172 5.172 0 0 0 2.051-.434v.869a5.147 5.147 0 0 1-.976.319 5.483 5.483 0 0 1-1.107.098Zm-.264-5.842a1.588 1.588 0 0 0-1.233.5 2.323 2.323 0 0 0-.542 1.395h3.357a2.139 2.139 0 0 0-.41-1.409 1.444 1.444 0 0 0-1.171-.483Zm3.264-.7h1.043l1.406 3.662a13.929 13.929 0 0 1 .576 1.817h.047q.076-.3.319-1.022t1.591-4.45h1.043l-2.761 7.312a3.648 3.648 0 0 1-.958 1.538 2.037 2.037 0 0 1-1.345.454 3.913 3.913 0 0 1-.879-.1V163a3.39 3.39 0 0 0 .721.07 1.486 1.486 0 0 0 1.43-1.125l.357-.914ZM485.086 161l-1.178-3.768q-.111-.346-.416-1.57h-.047q-.234 1.025-.41 1.582L481.822 161H480.7l-1.752-6.422h1.02l.946 3.686a14.932 14.932 0 0 1 .372 1.705h.047q.064-.334.208-.864t.249-.841l1.178-3.686h1.055l1.148 3.686a12.439 12.439 0 0 1 .445 1.693h.047a6.211 6.211 0 0 1 .126-.65q.1-.439 1.222-4.729h1.008L486.24 161Zm9.633-3.217a3.543 3.543 0 0 1-.791 2.452 2.786 2.786 0 0 1-2.186.882 2.9 2.9 0 0 1-1.529-.4 2.668 2.668 0 0 1-1.031-1.16 4.043 4.043 0 0 1-.363-1.77 3.537 3.537 0 0 1 .785-2.446 2.777 2.777 0 0 1 2.18-.876 2.717 2.717 0 0 1 2.142.9 3.527 3.527 0 0 1 .793 2.418Zm-4.893 0a3.048 3.048 0 0 0 .492 1.875 1.708 1.708 0 0 0 1.447.645 1.72 1.72 0 0 0 1.45-.642 3.033 3.033 0 0 0 .5-1.878 2.984 2.984 0 0 0-.5-1.86 1.74 1.74 0 0 0-1.462-.636 1.712 1.712 0 0 0-1.441.627 3.017 3.017 0 0 0-.486 1.869Zm9.527-3.322a3.806 3.806 0 0 1 .768.07l-.135.9a3.313 3.313 0 0 0-.7-.088 1.712 1.712 0 0 0-1.333.633 2.307 2.307 0 0 0-.554 1.576V161h-.973v-6.422h.8l.111 1.189h.047a2.823 2.823 0 0 1 .861-.967 1.939 1.939 0 0 1 1.109-.339Zm6.34 5.678h-.053a2.285 2.285 0 0 1-2.016.979 2.384 2.384 0 0 1-1.96-.861 3.791 3.791 0 0 1-.7-2.449 3.855 3.855 0 0 1 .7-2.467 2.366 2.366 0 0 1 1.957-.879 2.335 2.335 0 0 1 2 .949h.076l-.041-.463-.023-.451v-2.614h.973V161h-.791Zm-1.945.161a1.771 1.771 0 0 0 1.444-.542 2.739 2.739 0 0 0 .448-1.749v-.205a3.222 3.222 0 0 0-.454-1.948 1.724 1.724 0 0 0-1.45-.583 1.489 1.489 0 0 0-1.31.665 3.307 3.307 0 0 0-.454 1.878 3.17 3.17 0 0 0 .451 1.857 1.528 1.528 0 0 0 1.325.627Z" fill="#b7b9c3"/></svg>