<svg xmlns="http://www.w3.org/2000/svg" xmlns:xlink="http://www.w3.org/1999/xlink" id="autocomplate-types" width="790" height="842" viewBox="0 0 790 842"><defs><filter id="Rectangle_3464" width="292" height="84" x="48" y="90" filterUnits="userSpaceOnUse"><feOffset input="SourceAlpha"/><feGaussianBlur result="blur" stdDeviation="2"/><feFlood flood-opacity=".161"/><feComposite in2="blur" operator="in"/><feComposite in="SourceGraphic"/></filter><filter id="Rectangle_3464-2" width="292" height="180" x="414" y="90" filterUnits="userSpaceOnUse"><feOffset input="SourceAlpha"/><feGaussianBlur result="blur-2" stdDeviation="2"/><feFlood flood-opacity=".161"/><feComposite in2="blur-2" operator="in"/><feComposite in="SourceGraphic"/></filter><filter id="Rectangle_3464-3" width="412" height="416" x="354" y="393" filterUnits="userSpaceOnUse"><feOffset input="SourceAlpha"/><feGaussianBlur result="blur-3" stdDeviation="2"/><feFlood flood-opacity=".161"/><feComposite in2="blur-3" operator="in"/><feComposite in="SourceGraphic"/></filter></defs><g id="Path_6582" fill="#f1f1f6" data-name="Path 6582"><path stroke="none" d="M 789.5 841.5 L 0.5 841.5 L 0.5 0.5 L 789.5 0.5 L 789.5 841.5 Z"/><path fill="#cbcdd6" stroke="none" d="M 1 1 L 1 841 L 789 841 L 789 1 L 1 1 M 0 0 L 790 0 L 790 842 L 0 842 L 0 0 Z"/></g><text id="Basic" font-family="OpenSans-Bold, Open Sans" font-size="12" font-weight="700" letter-spacing="0em" transform="translate(54 42)"><tspan x="0" y="0">BASIC</tspan></text><text id="Suggestions" font-family="OpenSans-Bold, Open Sans" font-size="12" font-weight="700" letter-spacing="0em" transform="translate(420 42)"><tspan x="0" y="0">SUGGESTIONS</tspan></text><g id="search_Menu" data-name="search + Menu" transform="translate(3 -32)"><g id="Search_Input" data-name="Search Input" transform="translate(51 96)"><g id="Rectangle_1841" fill="#fff" stroke="#e0e1e9" stroke-width="1" data-name="Rectangle 1841"><path stroke="none" d="M2,0H278a2,2,0,0,1,2,2V32a0,0,0,0,1,0,0H0a0,0,0,0,1,0,0V2A2,2,0,0,1,2,0Z"/><path fill="none" d="M2,.5H278A1.5,1.5,0,0,1,279.5,2V31.5a0,0,0,0,1,0,0H.5a0,0,0,0,1,0,0V2A1.5,1.5,0,0,1,2,.5Z"/></g><rect id="Bottom_Line" width="280" height="2" fill="#217cbb" data-name="Bottom Line" transform="translate(0 30)"/><g id="Search_Icon" data-name="Search Icon" transform="translate(8 6)"><path id="Path_6175" fill="none" d="M0,0H20V20H0Z" data-name="Path 6175"/><path id="Path_6176" fill="#6a6e79" d="M12.641,11.484h-.609l-.216-.208a5.021,5.021,0,1,0-.54.54l.208.216v.609l3.856,3.849,1.149-1.149Zm-4.628,0a3.471,3.471,0,1,1,3.471-3.471A3.466,3.466,0,0,1,8.013,11.484Z" data-name="Path 6176"/></g><text id="act" fill="#252a2e" font-family="OpenSans, Open Sans" font-size="12" transform="translate(36 20)"><tspan x="0" y="0">act</tspan></text><line id="cursor" y2="18" fill="none" stroke="#252a2e" stroke-width="1" transform="translate(55.5 6.5)"/><g id="search-clear-icon" transform="translate(252 8)"><rect id="icon-box" width="16" height="16" fill="none"/><path id="close" fill="#6a6e79" d="M68,228.8l-.8-.8L64,231.2,60.8,228l-.8.8,3.2,3.2L60,235.2l.8.8,3.2-3.2,3.2,3.2.8-.8L64.8,232Z" transform="translate(-56 -224)"/></g></g><g id="Group_156743" data-name="Group 156743"><g filter="url(#Rectangle_3464)" transform="matrix(1, 0, 0, 1, -3, 32)"><rect id="Rectangle_3464-4" width="280" height="72" fill="#fff" data-name="Rectangle 3464" transform="translate(54 96)"/></g><g id="Group_156742" data-name="Group 156742"><g id="List_Item_Condensed" data-name="List Item Condensed" transform="translate(52 160)"><rect id="Rectangle_3286" width="277" height="32" fill="#fff" data-name="Rectangle 3286"/><text id="UA28_Lighting_Upgrade_active_PS" fill="#252a2e" data-name="UA28 Lighting Upgrade active PS" font-family="OpenSans, Open Sans" font-size="12" transform="translate(11 21)"><tspan x="0" y="0">UA28 Lighting Upgrade </tspan><tspan y="0" font-family="OpenSans-Bold, Open Sans" font-weight="700">act</tspan><tspan y="0" xml:space="preserve">ive PS</tspan></text><g id="Group_6796" data-name="Group 6796" opacity="0" transform="translate(256.225 8)"><rect id="icon-box-2" width="14" height="14" fill="none" data-name="icon-box" transform="translate(-0.225)"/><path id="check" fill="#252a2e" d="M342.955,67.42l-2.17-2.17-.785.739,2.955,2.955,6.279-6.325-.739-.739Z" transform="translate(-337.692 -58.487)"/></g></g><g id="List_Item_Condensed-2" data-name="List Item Condensed" transform="translate(52 128)"><rect id="Rectangle_3286-2" width="277" height="32" fill="#fff" data-name="Rectangle 3286"/><text id="_2019_Holland_active_project" fill="#252a2e" data-name="2019 Holland active project" font-family="OpenSans, Open Sans" font-size="12" transform="translate(11 21)"><tspan x="0" y="0">2019 Holland </tspan><tspan y="0" font-family="OpenSans-Bold, Open Sans" font-weight="700">act</tspan><tspan y="0">ive project</tspan></text><g id="Group_6796-2" data-name="Group 6796" opacity="0" transform="translate(256.225 8)"><rect id="icon-box-3" width="14" height="14" fill="none" data-name="icon-box" transform="translate(-0.225)"/><path id="check-2" fill="#252a2e" d="M342.955,67.42l-2.17-2.17-.785.739,2.955,2.955,6.279-6.325-.739-.739Z" data-name="check" transform="translate(-337.692 -58.487)"/></g></g></g></g></g><g id="search_Menu-2" data-name="search + Menu" transform="translate(369 -32)"><g id="Search_Input-2" data-name="Search Input" transform="translate(51 96)"><g id="Rectangle_1841-2" fill="#fff" stroke="#e0e1e9" stroke-width="1" data-name="Rectangle 1841"><path stroke="none" d="M2,0H278a2,2,0,0,1,2,2V32a0,0,0,0,1,0,0H0a0,0,0,0,1,0,0V2A2,2,0,0,1,2,0Z"/><path fill="none" d="M2,.5H278A1.5,1.5,0,0,1,279.5,2V31.5a0,0,0,0,1,0,0H.5a0,0,0,0,1,0,0V2A1.5,1.5,0,0,1,2,.5Z"/></g><rect id="Bottom_Line-2" width="280" height="2" fill="#217cbb" data-name="Bottom Line" transform="translate(0 30)"/><g id="Search_Icon-2" data-name="Search Icon" transform="translate(8 6)"><path id="Path_6175-2" fill="none" d="M0,0H20V20H0Z" data-name="Path 6175"/><path id="Path_6176-2" fill="#6a6e79" d="M12.641,11.484h-.609l-.216-.208a5.021,5.021,0,1,0-.54.54l.208.216v.609l3.856,3.849,1.149-1.149Zm-4.628,0a3.471,3.471,0,1,1,3.471-3.471A3.466,3.466,0,0,1,8.013,11.484Z" data-name="Path 6176"/></g><text id="UX" fill="#252a2e" font-family="OpenSans, Open Sans" font-size="12" transform="translate(36 20)"><tspan x="0" y="0">UX</tspan></text><line id="cursor-2" y2="18" fill="none" stroke="#252a2e" stroke-width="1" data-name="cursor" transform="translate(55.5 6.5)"/><g id="search-clear-icon-2" data-name="search-clear-icon" transform="translate(252 8)"><rect id="icon-box-4" width="16" height="16" fill="none" data-name="icon-box"/><path id="close-2" fill="#6a6e79" d="M68,228.8l-.8-.8L64,231.2,60.8,228l-.8.8,3.2,3.2L60,235.2l.8.8,3.2-3.2,3.2,3.2.8-.8L64.8,232Z" data-name="close" transform="translate(-56 -224)"/></g></g><g id="Group_156743-2" data-name="Group 156743"><g filter="url(#Rectangle_3464-2)" transform="matrix(1, 0, 0, 1, -369, 32)"><rect id="Rectangle_3464-5" width="280" height="168" fill="#fff" data-name="Rectangle 3464" transform="translate(420 96)"/></g><g id="Group_156742-2" data-name="Group 156742"><g id="List_Item_Condensed-3" data-name="List Item Condensed" transform="translate(52 256)"><rect id="Rectangle_3286-3" width="277" height="32" fill="#fff" data-name="Rectangle 3286"/><text id="ux_vs_ui" fill="#252a2e" data-name="ux vs ui" font-family="OpenSans, Open Sans" font-size="12" transform="translate(11 21)"><tspan x="0" y="0">ux </tspan><tspan y="0" font-family="OpenSans-Bold, Open Sans" font-weight="700">vs ui</tspan></text><g id="Group_6796-3" data-name="Group 6796" opacity="0" transform="translate(256.225 8)"><rect id="icon-box-5" width="14" height="14" fill="none" data-name="icon-box" transform="translate(-0.225)"/><path id="check-3" fill="#252a2e" d="M342.955,67.42l-2.17-2.17-.785.739,2.955,2.955,6.279-6.325-.739-.739Z" data-name="check" transform="translate(-337.692 -58.487)"/></g></g><g id="List_Item_Condensed-4" data-name="List Item Condensed" transform="translate(52 224)"><rect id="Rectangle_3286-4" width="277" height="32" fill="#fff" data-name="Rectangle 3286"/><text id="ux_meaning" fill="#252a2e" data-name="ux meaning" font-family="OpenSans, Open Sans" font-size="12" transform="translate(11 21)"><tspan x="0" y="0">ux </tspan><tspan y="0" font-family="OpenSans-Bold, Open Sans" font-weight="700">meaning</tspan></text><g id="Group_6796-4" data-name="Group 6796" opacity="0" transform="translate(256.225 8)"><rect id="icon-box-6" width="14" height="14" fill="none" data-name="icon-box" transform="translate(-0.225)"/><path id="check-4" fill="#252a2e" d="M342.955,67.42l-2.17-2.17-.785.739,2.955,2.955,6.279-6.325-.739-.739Z" data-name="check" transform="translate(-337.692 -58.487)"/></g></g><g id="List_Item_Condensed-5" data-name="List Item Condensed" transform="translate(52 192)"><rect id="Rectangle_3286-5" width="277" height="32" fill="#fff" data-name="Rectangle 3286"/><text id="ux_researcher" fill="#252a2e" data-name="ux researcher" font-family="OpenSans, Open Sans" font-size="12" transform="translate(11 21)"><tspan x="0" y="0">ux </tspan><tspan y="0" font-family="OpenSans-Bold, Open Sans" font-weight="700">researcher</tspan></text><g id="Group_6796-5" data-name="Group 6796" opacity="0" transform="translate(256.225 8)"><rect id="icon-box-7" width="14" height="14" fill="none" data-name="icon-box" transform="translate(-0.225)"/><path id="check-5" fill="#252a2e" d="M342.955,67.42l-2.17-2.17-.785.739,2.955,2.955,6.279-6.325-.739-.739Z" data-name="check" transform="translate(-337.692 -58.487)"/></g></g><g id="List_Item_Condensed-6" data-name="List Item Condensed" transform="translate(52 160)"><rect id="Rectangle_3286-6" width="277" height="32" fill="#fff" data-name="Rectangle 3286"/><text id="ux_designer_salary" fill="#252a2e" data-name="ux designer salary" font-family="OpenSans, Open Sans" font-size="12" transform="translate(11 21)"><tspan x="0" y="0">ux </tspan><tspan y="0" font-family="OpenSans-Bold, Open Sans" font-weight="700">designer salary</tspan></text><g id="Group_6796-6" data-name="Group 6796" opacity="0" transform="translate(256.225 8)"><rect id="icon-box-8" width="14" height="14" fill="none" data-name="icon-box" transform="translate(-0.225)"/><path id="check-6" fill="#252a2e" d="M342.955,67.42l-2.17-2.17-.785.739,2.955,2.955,6.279-6.325-.739-.739Z" data-name="check" transform="translate(-337.692 -58.487)"/></g></g><g id="List_Item_Condensed-7" data-name="List Item Condensed" transform="translate(52 128)"><rect id="Rectangle_3286-7" width="277" height="32" fill="#fff" data-name="Rectangle 3286"/><text id="ux_design" fill="#252a2e" data-name="ux design" font-family="OpenSans, Open Sans" font-size="12" transform="translate(11 21)"><tspan x="0" y="0">ux </tspan><tspan y="0" font-family="OpenSans-Bold, Open Sans" font-weight="700">design</tspan></text><g id="Group_6796-7" data-name="Group 6796" opacity="0" transform="translate(256.225 8)"><rect id="icon-box-9" width="14" height="14" fill="none" data-name="icon-box" transform="translate(-0.225)"/><path id="check-7" fill="#252a2e" d="M342.955,67.42l-2.17-2.17-.785.739,2.955,2.955,6.279-6.325-.739-.739Z" data-name="check" transform="translate(-337.692 -58.487)"/></g></g></g></g></g><g id="Group_6796-8" data-name="Group 6796" opacity="0" transform="translate(639.225 404)"><rect id="icon-box-10" width="14" height="14" fill="none" data-name="icon-box" transform="translate(-0.225)"/><path id="check-8" fill="#252a2e" d="M342.955,67.42l-2.17-2.17-.785.739,2.955,2.955,6.279-6.325-.739-.739Z" data-name="check" transform="translate(-337.692 -58.487)"/></g><g id="Group_156788" data-name="Group 156788"><g id="Search_Input-3" data-name="Search Input" transform="translate(360 367)"><g id="Rectangle_1841-3" fill="#fff" stroke="#e0e1e9" stroke-width="1" data-name="Rectangle 1841"><path stroke="none" d="M2,0H278a2,2,0,0,1,2,2V32a0,0,0,0,1,0,0H0a0,0,0,0,1,0,0V2A2,2,0,0,1,2,0Z"/><path fill="none" d="M2,.5H278A1.5,1.5,0,0,1,279.5,2V31.5a0,0,0,0,1,0,0H.5a0,0,0,0,1,0,0V2A1.5,1.5,0,0,1,2,.5Z"/></g><rect id="Bottom_Line-3" width="280" height="2" fill="#217cbb" data-name="Bottom Line" transform="translate(0 30)"/><g id="Search_Icon-3" data-name="Search Icon" transform="translate(8 6)"><path id="Path_6175-3" fill="none" d="M0,0H20V20H0Z" data-name="Path 6175"/><path id="Path_6176-3" fill="#6a6e79" d="M12.641,11.484h-.609l-.216-.208a5.021,5.021,0,1,0-.54.54l.208.216v.609l3.856,3.849,1.149-1.149Zm-4.628,0a3.471,3.471,0,1,1,3.471-3.471A3.466,3.466,0,0,1,8.013,11.484Z" data-name="Path 6176"/></g><text id="Pro" fill="#252a2e" font-family="OpenSans, Open Sans" font-size="12" transform="translate(36 20)"><tspan x="0" y="0">Pro</tspan></text><line id="cursor-3" y2="18" fill="none" stroke="#252a2e" stroke-width="1" data-name="cursor" transform="translate(55.5 6.5)"/><g id="search-clear-icon-3" data-name="search-clear-icon" transform="translate(252 8)"><rect id="icon-box-11" width="16" height="16" fill="none" data-name="icon-box"/><path id="close-3" fill="#6a6e79" d="M68,228.8l-.8-.8L64,231.2,60.8,228l-.8.8,3.2,3.2L60,235.2l.8.8,3.2-3.2,3.2,3.2.8-.8L64.8,232Z" data-name="close" transform="translate(-56 -224)"/></g></g><g id="Group_156780" data-name="Group 156780" transform="translate(297 64)"><g filter="url(#Rectangle_3464-3)" transform="matrix(1, 0, 0, 1, -297, -64)"><rect id="Rectangle_3464-6" width="400" height="404" fill="#fff" data-name="Rectangle 3464" transform="translate(360 399)"/></g><g id="Group_156782" data-name="Group 156782"><g id="Group_156785" data-name="Group 156785" transform="translate(63 292)"><rect id="Rectangle_3286-8" width="400" height="64" fill="#fff" data-name="Rectangle 3286" transform="translate(0 369)"/><rect id="Rectangle_3478" width="48" height="48" fill="#e0e1e9" data-name="Rectangle 3478" rx="6" transform="translate(12 377)"/><g id="Group_156776" data-name="Group 156776" transform="translate(68.667 375)"><text id="Project_Title" fill="#252a2e" data-name="Project Title" font-family="OpenSans-Bold, Open Sans" font-size="14" font-weight="700" transform="translate(0.333 15)"><tspan x="0" y="0">Project Title</tspan></text><text id="Lorem_ipsum_dolor_sit_amet_consetetur_sadipscing_elitr_sed" fill="#252a2e" data-name="Lorem ipsum dolor sit amet, consetetur sadipscing elitr, sed" font-family="OpenSans, Open Sans" font-size="11" transform="translate(0.333 21)"><tspan x="0" y="12">Lorem ipsum dolor sit amet, consetetur </tspan><tspan x="0" y="25">sadipscing elitr, sed</tspan></text></g><g id="photo_camera_black_24dp" transform="translate(18.625 383.625)"><path id="Path_6248" fill="none" d="M0,0H34.75V34.75H0Z" data-name="Path 6248"/><path id="Path_6250" fill="#b7b9c3" d="M4.633,0A4.633,4.633,0,1,1,0,4.633,4.633,4.633,0,0,1,4.633,0Z" data-name="Path 6250" transform="translate(12.742 12.742)"/><path id="Path_6249" fill="#b7b9c3" d="M12.135,2,9.486,4.9H4.9A2.9,2.9,0,0,0,2,7.792V25.167a2.9,2.9,0,0,0,2.9,2.9H28.063a2.9,2.9,0,0,0,2.9-2.9V7.792a2.9,2.9,0,0,0-2.9-2.9h-4.59L20.823,2Zm4.344,21.719a7.24,7.24,0,1,1,7.24-7.24A7.242,7.242,0,0,1,16.479,23.719Z" data-name="Path 6249" transform="translate(0.896 0.896)"/></g><g id="Badge_Primary" data-name="Badge Primary" transform="translate(319 403)"><rect id="Rectangle_3247" width="56" height="20" fill="#da212c" data-name="Rectangle 3247" rx="2"/><text id="Status" fill="#fff" font-family="OpenSans-Bold, Open Sans" font-size="12" font-weight="700" letter-spacing=".016em" transform="translate(28 14)"><tspan x="-19.543" y="0">Status</tspan></text></g></g><g id="Group_156784" data-name="Group 156784" transform="translate(63 228)"><rect id="Rectangle_3286-9" width="400" height="64" fill="#fff" data-name="Rectangle 3286" transform="translate(0 369)"/><rect id="Rectangle_3478-2" width="48" height="48" fill="#e0e1e9" data-name="Rectangle 3478" rx="6" transform="translate(12 377)"/><g id="Group_156776-2" data-name="Group 156776" transform="translate(68.667 375)"><text id="Project_Title-2" fill="#252a2e" data-name="Project Title" font-family="OpenSans-Bold, Open Sans" font-size="14" font-weight="700" transform="translate(0.333 15)"><tspan x="0" y="0">Project Title</tspan></text><text id="Lorem_ipsum_dolor_sit_amet_consetetur_sadipscing_elitr_sed-2" fill="#252a2e" data-name="Lorem ipsum dolor sit amet, consetetur sadipscing elitr, sed" font-family="OpenSans, Open Sans" font-size="11" transform="translate(0.333 21)"><tspan x="0" y="12">Lorem ipsum dolor sit amet, consetetur </tspan><tspan x="0" y="25">sadipscing elitr, sed</tspan></text></g><g id="photo_camera_black_24dp-2" data-name="photo_camera_black_24dp" transform="translate(18.625 383.625)"><path id="Path_6248-2" fill="none" d="M0,0H34.75V34.75H0Z" data-name="Path 6248"/><path id="Path_6250-2" fill="#b7b9c3" d="M4.633,0A4.633,4.633,0,1,1,0,4.633,4.633,4.633,0,0,1,4.633,0Z" data-name="Path 6250" transform="translate(12.742 12.742)"/><path id="Path_6249-2" fill="#b7b9c3" d="M12.135,2,9.486,4.9H4.9A2.9,2.9,0,0,0,2,7.792V25.167a2.9,2.9,0,0,0,2.9,2.9H28.063a2.9,2.9,0,0,0,2.9-2.9V7.792a2.9,2.9,0,0,0-2.9-2.9h-4.59L20.823,2Zm4.344,21.719a7.24,7.24,0,1,1,7.24-7.24A7.242,7.242,0,0,1,16.479,23.719Z" data-name="Path 6249" transform="translate(0.896 0.896)"/></g><g id="Badge_Primary-2" data-name="Badge Primary" transform="translate(319 403)"><rect id="Rectangle_3247-2" width="56" height="20" fill="#fbad26" data-name="Rectangle 3247" rx="2"/><text id="Status-2" fill="#252a2e" data-name="Status" font-family="OpenSans-Bold, Open Sans" font-size="12" font-weight="700" letter-spacing=".016em" transform="translate(28 14)"><tspan x="-19.543" y="0">Status</tspan></text></g></g><g id="Group_156787" data-name="Group 156787" transform="translate(63 164)"><rect id="Rectangle_3286-10" width="400" height="64" fill="#fff" data-name="Rectangle 3286" transform="translate(0 369)"/><rect id="Rectangle_3478-3" width="48" height="48" fill="#e0e1e9" data-name="Rectangle 3478" rx="6" transform="translate(12 377)"/><g id="Group_156776-3" data-name="Group 156776" transform="translate(68.667 375)"><text id="Project_Title-3" fill="#252a2e" data-name="Project Title" font-family="OpenSans-Bold, Open Sans" font-size="14" font-weight="700" transform="translate(0.333 15)"><tspan x="0" y="0">Project Title</tspan></text><text id="Lorem_ipsum_dolor_sit_amet_consetetur_sadipscing_elitr_sed-3" fill="#252a2e" data-name="Lorem ipsum dolor sit amet, consetetur sadipscing elitr, sed" font-family="OpenSans, Open Sans" font-size="11" transform="translate(0.333 21)"><tspan x="0" y="12">Lorem ipsum dolor sit amet, consetetur </tspan><tspan x="0" y="25">sadipscing elitr, sed</tspan></text></g><g id="photo_camera_black_24dp-3" data-name="photo_camera_black_24dp" transform="translate(18.625 383.625)"><path id="Path_6248-3" fill="none" d="M0,0H34.75V34.75H0Z" data-name="Path 6248"/><path id="Path_6250-3" fill="#b7b9c3" d="M4.633,0A4.633,4.633,0,1,1,0,4.633,4.633,4.633,0,0,1,4.633,0Z" data-name="Path 6250" transform="translate(12.742 12.742)"/><path id="Path_6249-3" fill="#b7b9c3" d="M12.135,2,9.486,4.9H4.9A2.9,2.9,0,0,0,2,7.792V25.167a2.9,2.9,0,0,0,2.9,2.9H28.063a2.9,2.9,0,0,0,2.9-2.9V7.792a2.9,2.9,0,0,0-2.9-2.9h-4.59L20.823,2Zm4.344,21.719a7.24,7.24,0,1,1,7.24-7.24A7.242,7.242,0,0,1,16.479,23.719Z" data-name="Path 6249" transform="translate(0.896 0.896)"/></g><g id="Badge_Primary-3" data-name="Badge Primary" transform="translate(319 403)"><rect id="Rectangle_3247-3" width="56" height="20" fill="#006638" data-name="Rectangle 3247" rx="2"/><text id="Status-3" fill="#fff" data-name="Status" font-family="OpenSans-Bold, Open Sans" font-size="12" font-weight="700" letter-spacing=".016em" transform="translate(28 14)"><tspan x="-19.543" y="0">Status</tspan></text></g></g><g id="Group_156786" data-name="Group 156786" transform="translate(63 100)"><rect id="Rectangle_3286-11" width="400" height="64" fill="#fff" data-name="Rectangle 3286" transform="translate(0 369)"/><rect id="Rectangle_3478-4" width="48" height="48" fill="#e0e1e9" data-name="Rectangle 3478" rx="6" transform="translate(12 377)"/><g id="Group_156776-4" data-name="Group 156776" transform="translate(68.667 375)"><text id="Project_Title-4" fill="#252a2e" data-name="Project Title" font-family="OpenSans-Bold, Open Sans" font-size="14" font-weight="700" transform="translate(0.333 15)"><tspan x="0" y="0">Project Title</tspan></text><text id="Lorem_ipsum_dolor_sit_amet_consetetur_sadipscing_elitr_sed-4" fill="#252a2e" data-name="Lorem ipsum dolor sit amet, consetetur sadipscing elitr, sed" font-family="OpenSans, Open Sans" font-size="11" transform="translate(0.333 21)"><tspan x="0" y="12">Lorem ipsum dolor sit amet, consetetur </tspan><tspan x="0" y="25">sadipscing elitr, sed</tspan></text></g><g id="photo_camera_black_24dp-4" data-name="photo_camera_black_24dp" transform="translate(18.625 383.625)"><path id="Path_6248-4" fill="none" d="M0,0H34.75V34.75H0Z" data-name="Path 6248"/><path id="Path_6250-4" fill="#b7b9c3" d="M4.633,0A4.633,4.633,0,1,1,0,4.633,4.633,4.633,0,0,1,4.633,0Z" data-name="Path 6250" transform="translate(12.742 12.742)"/><path id="Path_6249-4" fill="#b7b9c3" d="M12.135,2,9.486,4.9H4.9A2.9,2.9,0,0,0,2,7.792V25.167a2.9,2.9,0,0,0,2.9,2.9H28.063a2.9,2.9,0,0,0,2.9-2.9V7.792a2.9,2.9,0,0,0-2.9-2.9h-4.59L20.823,2Zm4.344,21.719a7.24,7.24,0,1,1,7.24-7.24A7.242,7.242,0,0,1,16.479,23.719Z" data-name="Path 6249" transform="translate(0.896 0.896)"/></g><g id="Badge_Primary-4" data-name="Badge Primary" transform="translate(319 403)"><rect id="Rectangle_3247-4" width="56" height="20" fill="#006638" data-name="Rectangle 3247" rx="2"/><text id="Status-4" fill="#fff" data-name="Status" font-family="OpenSans-Bold, Open Sans" font-size="12" font-weight="700" letter-spacing=".016em" transform="translate(28 14)"><tspan x="-19.543" y="0">Status</tspan></text></g></g><g id="Group_156781" data-name="Group 156781" transform="translate(63 36)"><rect id="Rectangle_3286-12" width="400" height="64" fill="#fff" data-name="Rectangle 3286" transform="translate(0 369)"/><rect id="Rectangle_3478-5" width="48" height="48" fill="#e0e1e9" data-name="Rectangle 3478" rx="6" transform="translate(12 377)"/><g id="Group_156776-5" data-name="Group 156776" transform="translate(68.667 375)"><text id="Project_Title-5" fill="#252a2e" data-name="Project Title" font-family="OpenSans-Bold, Open Sans" font-size="14" font-weight="700" transform="translate(0.333 15)"><tspan x="0" y="0">Project Title</tspan></text><text id="Lorem_ipsum_dolor_sit_amet_consetetur_sadipscing_elitr_sed-5" fill="#252a2e" data-name="Lorem ipsum dolor sit amet, consetetur sadipscing elitr, sed" font-family="OpenSans, Open Sans" font-size="11" transform="translate(0.333 21)"><tspan x="0" y="12">Lorem ipsum dolor sit amet, consetetur </tspan><tspan x="0" y="25">sadipscing elitr, sed</tspan></text></g><g id="photo_camera_black_24dp-5" data-name="photo_camera_black_24dp" transform="translate(18.625 383.625)"><path id="Path_6248-5" fill="none" d="M0,0H34.75V34.75H0Z" data-name="Path 6248"/><path id="Path_6250-5" fill="#b7b9c3" d="M4.633,0A4.633,4.633,0,1,1,0,4.633,4.633,4.633,0,0,1,4.633,0Z" data-name="Path 6250" transform="translate(12.742 12.742)"/><path id="Path_6249-5" fill="#b7b9c3" d="M12.135,2,9.486,4.9H4.9A2.9,2.9,0,0,0,2,7.792V25.167a2.9,2.9,0,0,0,2.9,2.9H28.063a2.9,2.9,0,0,0,2.9-2.9V7.792a2.9,2.9,0,0,0-2.9-2.9h-4.59L20.823,2Zm4.344,21.719a7.24,7.24,0,1,1,7.24-7.24A7.242,7.242,0,0,1,16.479,23.719Z" data-name="Path 6249" transform="translate(0.896 0.896)"/></g><g id="Badge_Primary-5" data-name="Badge Primary" transform="translate(319 403)"><rect id="Rectangle_3247-5" width="56" height="20" fill="#da212c" data-name="Rectangle 3247" rx="2"/><text id="Status-5" fill="#fff" data-name="Status" font-family="OpenSans-Bold, Open Sans" font-size="12" font-weight="700" letter-spacing=".016em" transform="translate(28 14)"><tspan x="-19.543" y="0">Status</tspan></text></g></g><g id="Group_156777" data-name="Group 156777" transform="translate(63 -28)"><rect id="Rectangle_3286-13" width="400" height="64" fill="#fff" data-name="Rectangle 3286" transform="translate(0 369)"/><rect id="Rectangle_3478-6" width="48" height="48" fill="#e0e1e9" data-name="Rectangle 3478" rx="6" transform="translate(12 377)"/><g id="Group_156776-6" data-name="Group 156776" transform="translate(68.667 375)"><text id="Project_Title-6" fill="#252a2e" data-name="Project Title" font-family="OpenSans-Bold, Open Sans" font-size="14" font-weight="700" transform="translate(0.333 15)"><tspan x="0" y="0">Project Title</tspan></text><text id="Lorem_ipsum_dolor_sit_amet_consetetur_sadipscing_elitr_sed-6" fill="#252a2e" data-name="Lorem ipsum dolor sit amet, consetetur sadipscing elitr, sed" font-family="OpenSans, Open Sans" font-size="11" transform="translate(0.333 21)"><tspan x="0" y="12">Lorem ipsum dolor sit amet, consetetur </tspan><tspan x="0" y="25">sadipscing elitr, sed</tspan></text></g><g id="photo_camera_black_24dp-6" data-name="photo_camera_black_24dp" transform="translate(18.625 383.625)"><path id="Path_6248-6" fill="none" d="M0,0H34.75V34.75H0Z" data-name="Path 6248"/><path id="Path_6250-6" fill="#b7b9c3" d="M4.633,0A4.633,4.633,0,1,1,0,4.633,4.633,4.633,0,0,1,4.633,0Z" data-name="Path 6250" transform="translate(12.742 12.742)"/><path id="Path_6249-6" fill="#b7b9c3" d="M12.135,2,9.486,4.9H4.9A2.9,2.9,0,0,0,2,7.792V25.167a2.9,2.9,0,0,0,2.9,2.9H28.063a2.9,2.9,0,0,0,2.9-2.9V7.792a2.9,2.9,0,0,0-2.9-2.9h-4.59L20.823,2Zm4.344,21.719a7.24,7.24,0,1,1,7.24-7.24A7.242,7.242,0,0,1,16.479,23.719Z" data-name="Path 6249" transform="translate(0.896 0.896)"/></g><g id="Badge_Primary-6" data-name="Badge Primary" transform="translate(319 403)"><rect id="Rectangle_3247-6" width="56" height="20" fill="#006638" data-name="Rectangle 3247" rx="2"/><text id="Status-6" fill="#fff" data-name="Status" font-family="OpenSans-Bold, Open Sans" font-size="12" font-weight="700" letter-spacing=".016em" transform="translate(28 14)"><tspan x="-19.543" y="0">Status</tspan></text></g></g></g></g></g><g id="Group_156789" data-name="Group 156789"><text id="Instant_Results" data-name="Instant Results" font-family="OpenSans-Bold, Open Sans" font-size="12" font-weight="700" letter-spacing="0em" transform="translate(54 377)"><tspan x="0" y="0">INSTANT RESULTS</tspan></text><text id="Results_are_displayed_with_detailed_information._Selecting_a_result_bypasses_a_search_results_page_bringing_the_user_directly_to_their_intended_result_or_in_some_cases_can_also_open_a_file." data-name="Results are displayed with detailed information. Selecting a result bypasses a search results page, bringing the user directly to their intended result, or in some cases can also open a file." font-family="OpenSans, Open Sans" font-size="12" letter-spacing=".016em" transform="translate(54 383)"><tspan x="0" y="13">Results are displayed with detailed information. </tspan><tspan x="0" y="30">Selecting a result bypasses a search results page, </tspan><tspan x="0" y="47">bringing the user directly to their intended result, </tspan><tspan x="0" y="64">or in some cases can also open a file.</tspan></text></g></svg>