<svg version="1.1" id="Layer_1" xmlns="http://www.w3.org/2000/svg" x="0" y="0" viewBox="0 0 1285 339" xml:space="preserve"><style>.st2{enable-background:new}.st3{fill:#363545}.st6{fill:#fff}</style><path d="M0 0h339v339H0V0z" fill-rule="evenodd" clip-rule="evenodd" fill="#f9f9fb"/><path d="M339 0h339v339H339V0z" fill-rule="evenodd" clip-rule="evenodd" fill="#f3f3f7"/><g class="st2"><path class="st3" d="M117.5 170.5h6.8v9.7c-1.1.3-2.1.6-3.2.8s-2.4.3-3.8.3c-3 0-5.4-.9-7.1-2.7-1.7-1.8-2.5-4.3-2.5-7.6 0-2.1.4-3.9 1.3-5.5s2-2.8 3.6-3.6c1.6-.8 3.4-1.2 5.5-1.2s4.1.4 6 1.2l-.9 2.1c-1.8-.8-3.5-1.1-5.2-1.1-2.4 0-4.3.7-5.7 2.2s-2.1 3.5-2.1 6c0 2.7.7 4.7 2 6.1 1.3 1.4 3.3 2.1 5.8 2.1 1.4 0 2.7-.2 4.1-.5v-6.2h-4.5v-2.1zm18.7-4.8c.7 0 1.3.1 1.8.2l-.3 2.1c-.6-.1-1.2-.2-1.6-.2-1.2 0-2.2.5-3.1 1.5s-1.3 2.2-1.3 3.7v8h-2.3v-15h1.9l.3 2.8h.1c.6-1 1.2-1.7 2-2.3.7-.5 1.5-.8 2.5-.8zm14.4 15.3l-.5-2.1h-.1c-.7.9-1.5 1.6-2.2 1.9-.7.3-1.7.5-2.8.5-1.5 0-2.7-.4-3.5-1.1-.8-.8-1.3-1.9-1.3-3.3 0-3 2.4-4.6 7.3-4.8l2.5-.1v-.9c0-1.2-.3-2-.8-2.6s-1.3-.8-2.4-.8c-1.2 0-2.7.4-4.2 1.1l-.7-1.7c.7-.4 1.5-.7 2.4-.9.9-.2 1.8-.3 2.6-.3 1.8 0 3.1.4 4 1.2s1.3 2.1 1.3 3.8V181h-1.6zm-5.2-1.6c1.4 0 2.5-.4 3.3-1.2s1.2-1.9 1.2-3.3v-1.4l-2.3.1c-1.8.1-3.1.3-3.9.8-.8.5-1.2 1.3-1.2 2.3 0 .8.2 1.4.7 1.9.6.6 1.3.8 2.2.8zm9.7-13.4h2.4l3.3 8.5c.7 2 1.2 3.4 1.3 4.2h.1c.1-.5.4-1.3.7-2.4.4-1.1 1.6-4.6 3.7-10.4h2.4l-6.4 17.1c-.6 1.7-1.4 2.9-2.2 3.6-.9.7-1.9 1.1-3.1 1.1-.7 0-1.4-.1-2.1-.2v-1.8c.5.1 1.1.2 1.7.2 1.6 0 2.7-.9 3.3-2.6l.8-2.1-5.9-15.2zm40.4 15h-2.3v-9.4h-10.5v9.4h-2.3v-20h2.3v8.5h10.5V161h2.3v20zm14.9 0l-.5-2.1h-.1c-.7.9-1.5 1.6-2.2 1.9-.7.3-1.7.5-2.8.5-1.5 0-2.7-.4-3.5-1.1-.8-.8-1.3-1.9-1.3-3.3 0-3 2.4-4.6 7.3-4.8l2.5-.1v-.9c0-1.2-.3-2-.8-2.6s-1.3-.8-2.4-.8c-1.2 0-2.7.4-4.2 1.1l-.7-1.7c.7-.4 1.5-.7 2.4-.9.9-.2 1.8-.3 2.6-.3 1.8 0 3.1.4 4 1.2s1.3 2.1 1.3 3.8V181h-1.6zm-5.1-1.6c1.4 0 2.5-.4 3.3-1.2s1.2-1.9 1.2-3.3v-1.4l-2.3.1c-1.8.1-3.1.3-3.9.8-.8.5-1.2 1.3-1.2 2.3 0 .8.2 1.4.7 1.9.6.6 1.3.8 2.2.8zm14.3 1.6h-2.3v-21.3h2.3V181zm12.1-13.2h-3.8V181h-2.3v-13.2H223v-1l2.7-.8v-.8c0-3.7 1.6-5.5 4.8-5.5.8 0 1.7.2 2.8.5l-.6 1.8c-.9-.3-1.6-.4-2.2-.4-.9 0-1.5.3-1.9.9s-.6 1.5-.6 2.7v1h3.8v1.6z"/></g><g class="st2"><path class="st3" d="M450.5 170.5h6.8v9.7c-1.1.3-2.1.6-3.2.8s-2.4.3-3.8.3c-3 0-5.4-.9-7.1-2.7-1.7-1.8-2.5-4.3-2.5-7.6 0-2.1.4-3.9 1.3-5.5s2-2.8 3.6-3.6c1.6-.8 3.4-1.2 5.5-1.2s4.1.4 6 1.2l-.9 2.1c-1.8-.8-3.5-1.1-5.2-1.1-2.4 0-4.3.7-5.7 2.2s-2.1 3.5-2.1 6c0 2.7.7 4.7 2 6.1 1.3 1.4 3.3 2.1 5.8 2.1 1.4 0 2.7-.2 4.1-.5v-6.2h-4.5v-2.1zm18.7-4.8c.7 0 1.3.1 1.8.2l-.3 2.1c-.6-.1-1.2-.2-1.6-.2-1.2 0-2.2.5-3.1 1.5s-1.3 2.2-1.3 3.7v8h-2.3v-15h1.9l.3 2.8h.1c.6-1 1.2-1.7 2-2.3.7-.5 1.5-.8 2.5-.8zm14.4 15.3l-.5-2.1h-.1c-.7.9-1.5 1.6-2.2 1.9-.7.3-1.7.5-2.8.5-1.5 0-2.7-.4-3.5-1.1-.8-.8-1.3-1.9-1.3-3.3 0-3 2.4-4.6 7.3-4.8l2.5-.1v-.9c0-1.2-.3-2-.8-2.6s-1.3-.8-2.4-.8c-1.2 0-2.7.4-4.2 1.1l-.7-1.7c.7-.4 1.5-.7 2.4-.9.9-.2 1.8-.3 2.6-.3 1.8 0 3.1.4 4 1.2s1.3 2.1 1.3 3.8V181h-1.6zm-5.2-1.6c1.4 0 2.5-.4 3.3-1.2s1.2-1.9 1.2-3.3v-1.4l-2.3.1c-1.8.1-3.1.3-3.9.8-.8.5-1.2 1.3-1.2 2.3 0 .8.2 1.4.7 1.9.6.6 1.3.8 2.2.8zm9.7-13.4h2.4l3.3 8.5c.7 2 1.2 3.4 1.3 4.2h.1c.1-.5.4-1.3.7-2.4.4-1.1 1.6-4.6 3.7-10.4h2.4l-6.4 17.1c-.6 1.7-1.4 2.9-2.2 3.6-.9.7-1.9 1.1-3.1 1.1-.7 0-1.4-.1-2.1-.2v-1.8c.5.1 1.1.2 1.7.2 1.6 0 2.7-.9 3.3-2.6l.8-2.1-5.9-15.2zm25.2 15v-20h2.3v17.9h8.8v2.1h-11.1zm14.6-19c0-.5.1-.9.4-1.1.3-.2.6-.4 1-.4s.7.1.9.4c.3.2.4.6.4 1.1s-.1.9-.4 1.1c-.3.3-.6.4-.9.4-.4 0-.7-.1-1-.4-.3-.3-.4-.6-.4-1.1zm2.4 19H528v-15h2.3v15zm17.7-15v1.4l-2.8.3c.3.3.5.7.7 1.3.2.5.3 1.1.3 1.7 0 1.5-.5 2.6-1.5 3.5-1 .9-2.4 1.3-4.1 1.3-.4 0-.9 0-1.3-.1-1 .5-1.4 1.2-1.4 1.9 0 .4.2.7.5.9.3.2.9.3 1.7.3h2.7c1.6 0 2.9.3 3.7 1 .9.7 1.3 1.7 1.3 3 0 1.7-.7 2.9-2 3.8-1.3.9-3.3 1.3-5.8 1.3-2 0-3.5-.4-4.5-1.1-1.1-.7-1.6-1.8-1.6-3.1 0-.9.3-1.7.9-2.4.6-.7 1.4-1.1 2.5-1.4-.4-.2-.7-.4-1-.8s-.4-.8-.4-1.3.1-1 .4-1.4c.3-.4.8-.8 1.4-1.2-.8-.3-1.4-.9-1.9-1.6-.5-.8-.7-1.6-.7-2.6 0-1.6.5-2.9 1.5-3.8s2.4-1.3 4.2-1.3c.8 0 1.5.1 2.1.3h5.1zm-12 17.5c0 .8.3 1.4 1 1.8s1.7.6 2.9.6c1.9 0 3.3-.3 4.2-.9s1.4-1.3 1.4-2.3c0-.8-.3-1.4-.8-1.7-.5-.3-1.4-.5-2.8-.5h-2.7c-1 0-1.8.2-2.4.7s-.8 1.4-.8 2.3zm1.3-12.7c0 1 .3 1.8.9 2.4.6.5 1.4.8 2.5.8 2.2 0 3.3-1.1 3.3-3.2 0-2.3-1.1-3.4-3.4-3.4-1.1 0-1.9.3-2.5.9s-.8 1.4-.8 2.5zm24.6 10.2v-9.7c0-1.2-.3-2.1-.8-2.7-.6-.6-1.4-.9-2.6-.9-1.6 0-2.7.4-3.5 1.3s-1.1 2.3-1.1 4.2v7.8h-2.3v-21.3h2.3v6.4c0 .8 0 1.4-.1 1.9h.1c.4-.7 1.1-1.3 1.9-1.7.8-.4 1.8-.6 2.8-.6 1.8 0 3.2.4 4.1 1.3s1.4 2.3 1.4 4.1v9.8h-2.2zm12.3-1.6c.4 0 .8 0 1.2-.1.4-.1.7-.1.9-.2v1.7c-.2.1-.6.2-1.1.3s-.9.1-1.3.1c-2.9 0-4.3-1.5-4.3-4.6v-8.9h-2.1v-1.1l2.1-.9 1-3.2h1.3v3.5h4.3v1.8h-4.3v8.8c0 .9.2 1.6.6 2.1.4.5.9.7 1.7.7z"/></g><path d="M678 0h337v91H678V0z" fill-rule="evenodd" clip-rule="evenodd" fill="#005f9e"/><path d="M678 91h337v248H678V91z" fill-rule="evenodd" clip-rule="evenodd" fill="#00437b"/><g class="st2"><path class="st6" d="M760.9 226h-2.3v-17.9h-6.3V206h15v2.1H761V226zm16.4-15.3c.7 0 1.3.1 1.8.2l-.3 2.1c-.6-.1-1.2-.2-1.6-.2-1.2 0-2.2.5-3.1 1.5s-1.3 2.2-1.3 3.7v8h-2.3v-15h1.9l.3 2.8h.1c.6-1 1.2-1.7 2-2.3.7-.5 1.6-.8 2.5-.8zm5-3.7c0-.5.1-.9.4-1.1s.6-.4 1-.4.7.1.9.4.4.6.4 1.1-.1.9-.4 1.1-.6.4-.9.4c-.4 0-.7-.1-1-.4s-.4-.6-.4-1.1zm2.4 19h-2.3v-15h2.3v15zm24.5 0v-9.7c0-1.2-.3-2.1-.8-2.7-.5-.6-1.3-.9-2.4-.9-1.4 0-2.5.4-3.1 1.2-.7.8-1 2.1-1 3.7v8.4h-2.3v-9.7c0-1.2-.3-2.1-.8-2.7-.5-.6-1.3-.9-2.4-.9-1.4 0-2.5.4-3.1 1.3-.7.9-1 2.2-1 4.2v7.9H790v-15h1.8l.4 2.1h.1c.4-.7 1-1.3 1.8-1.7s1.7-.6 2.6-.6c2.3 0 3.9.8 4.6 2.5h.1c.4-.8 1.1-1.4 1.9-1.9s1.8-.7 2.9-.7c1.7 0 3 .4 3.8 1.3.8.9 1.3 2.3 1.3 4.2v9.8h-2.1zm14.5-15.2c2 0 3.5.7 4.6 2s1.6 3.2 1.6 5.7-.5 4.4-1.6 5.7-2.6 2-4.6 2c-1 0-1.9-.2-2.7-.5s-1.5-.9-2-1.7h-.2l-.5 1.9h-1.6v-21.3h2.3v5.2c0 1.2 0 2.2-.1 3.1h.1c1-1.4 2.6-2.1 4.7-2.1zm-.4 1.9c-1.5 0-2.7.4-3.3 1.3s-1 2.4-1 4.5.4 3.6 1.1 4.5c.7.9 1.8 1.4 3.4 1.4 1.4 0 2.4-.5 3.1-1.5s1-2.5 1-4.4c0-2-.3-3.4-1-4.4s-1.8-1.4-3.3-1.4zm13.4 13.3h-2.3v-21.3h2.3V226zm11.7.3c-2.2 0-4-.7-5.2-2-1.3-1.3-1.9-3.2-1.9-5.6 0-2.4.6-4.3 1.8-5.8s2.8-2.1 4.8-2.1c1.9 0 3.4.6 4.5 1.9s1.6 2.9 1.6 4.9v1.4h-10.3c0 1.8.5 3.1 1.3 4 .8.9 2 1.4 3.6 1.4s3.2-.3 4.8-1v2c-.8.3-1.6.6-2.3.7-.8.1-1.7.2-2.7.2zm-.6-13.7c-1.2 0-2.2.4-2.9 1.2-.7.8-1.1 1.9-1.3 3.3h7.8c0-1.4-.3-2.5-1-3.3-.5-.8-1.4-1.2-2.6-1.2zm18.7-6.6h5.6c2.7 0 4.6.4 5.8 1.2 1.2.8 1.8 2 1.8 3.8 0 1.2-.3 2.2-1 2.9-.7.8-1.6 1.3-2.9 1.5v.1c3 .5 4.6 2.1 4.6 4.8 0 1.8-.6 3.2-1.8 4.2-1.2 1-2.9 1.5-5.1 1.5h-7v-20zm2.3 8.6h3.8c1.6 0 2.8-.3 3.5-.8.7-.5 1.1-1.4 1.1-2.6 0-1.1-.4-1.9-1.2-2.4-.8-.5-2.1-.7-3.8-.7h-3.4v6.5zm0 1.9v7.5h4.2c1.6 0 2.8-.3 3.6-.9.8-.6 1.2-1.6 1.2-2.9 0-1.2-.4-2.2-1.3-2.7s-2.1-.9-3.8-.9h-3.9zm18.3 9.5h-2.3v-21.3h2.3V226zm7.5-15v9.7c0 1.2.3 2.1.8 2.7.6.6 1.4.9 2.6.9 1.6 0 2.7-.4 3.4-1.3s1.1-2.3 1.1-4.2V211h2.3v15H903l-.3-2h-.1c-.5.7-1.1 1.3-1.9 1.7-.8.4-1.8.6-2.8.6-1.8 0-3.2-.4-4.1-1.3-.9-.9-1.4-2.3-1.4-4.2V211h2.2zm22 15.3c-2.2 0-4-.7-5.2-2s-1.9-3.2-1.9-5.6c0-2.4.6-4.3 1.8-5.8s2.8-2.1 4.8-2.1c1.9 0 3.4.6 4.5 1.9s1.6 2.9 1.6 4.9v1.4h-10.3c0 1.8.5 3.1 1.3 4s2 1.4 3.6 1.4 3.2-.3 4.8-1v2c-.8.3-1.6.6-2.3.7s-1.7.2-2.7.2zm-.6-13.7c-1.2 0-2.2.4-2.9 1.2s-1.1 1.9-1.3 3.3h7.8c0-1.4-.3-2.5-1-3.3-.5-.8-1.5-1.2-2.6-1.2z"/></g><g class="st2"><path class="st6" d="M731.9 57h-2.3V39.1h-6.3V37h15v2.1H732V57zm16.4-15.3c.7 0 1.3.1 1.8.2l-.3 2.1c-.6-.1-1.2-.2-1.6-.2-1.2 0-2.2.5-3.1 1.5s-1.3 2.2-1.3 3.7v8h-2.3V42h1.9l.3 2.8h.1c.6-1 1.2-1.7 2-2.3.7-.5 1.6-.8 2.5-.8zm5-3.7c0-.5.1-.9.4-1.1s.6-.4 1-.4.7.1.9.4.4.6.4 1.1-.1.9-.4 1.1-.6.4-.9.4c-.4 0-.7-.1-1-.4s-.4-.6-.4-1.1zm2.4 19h-2.3V42h2.3v15zm24.5 0v-9.7c0-1.2-.3-2.1-.8-2.7-.5-.6-1.3-.9-2.4-.9-1.4 0-2.5.4-3.1 1.2-.7.8-1 2.1-1 3.7V57h-2.3v-9.7c0-1.2-.3-2.1-.8-2.7-.5-.6-1.3-.9-2.4-.9-1.4 0-2.5.4-3.1 1.3-.7.9-1 2.2-1 4.2V57H761V42h1.8l.4 2.1h.1c.4-.7 1-1.3 1.8-1.7s1.7-.6 2.6-.6c2.3 0 3.9.8 4.6 2.5h.1c.4-.8 1.1-1.4 1.9-1.9s1.8-.7 2.9-.7c1.7 0 3 .4 3.8 1.3.8.9 1.3 2.3 1.3 4.2V57h-2.1zm14.5-15.2c2 0 3.5.7 4.6 2s1.6 3.2 1.6 5.7-.5 4.4-1.6 5.7-2.6 2-4.6 2c-1 0-1.9-.2-2.7-.5s-1.5-.9-2-1.7h-.2l-.5 1.9h-1.6V35.7h2.3v5.2c0 1.2 0 2.2-.1 3.1h.1c1-1.5 2.6-2.2 4.7-2.2zm-.4 1.9c-1.5 0-2.7.4-3.3 1.3s-1 2.4-1 4.5.4 3.6 1.1 4.5c.7.9 1.8 1.4 3.4 1.4 1.4 0 2.4-.5 3.1-1.5s1-2.5 1-4.4c0-2-.3-3.4-1-4.4s-1.8-1.4-3.3-1.4zM807.7 57h-2.3V35.7h2.3V57zm11.7.3c-2.2 0-4-.7-5.2-2-1.3-1.3-1.9-3.2-1.9-5.6 0-2.4.6-4.3 1.8-5.8s2.8-2.1 4.8-2.1c1.9 0 3.4.6 4.5 1.9s1.6 2.9 1.6 4.9V50h-10.3c0 1.8.5 3.1 1.3 4 .8.9 2 1.4 3.6 1.4s3.2-.3 4.8-1v2c-.8.3-1.6.6-2.3.7-.8.1-1.7.2-2.7.2zm-.6-13.7c-1.2 0-2.2.4-2.9 1.2-.7.8-1.1 1.9-1.3 3.3h7.8c0-1.4-.3-2.5-1-3.3-.5-.8-1.4-1.2-2.6-1.2zm18.7-6.6h5.6c2.7 0 4.6.4 5.8 1.2 1.2.8 1.8 2 1.8 3.8 0 1.2-.3 2.2-1 2.9-.7.8-1.6 1.3-2.9 1.5v.1c3 .5 4.6 2.1 4.6 4.8 0 1.8-.6 3.2-1.8 4.2-1.2 1-2.9 1.5-5.1 1.5h-7V37zm2.3 8.6h3.8c1.6 0 2.8-.3 3.5-.8.7-.5 1.1-1.4 1.1-2.6 0-1.1-.4-1.9-1.2-2.4-.8-.5-2.1-.7-3.8-.7h-3.4v6.5zm0 1.9V55h4.2c1.6 0 2.8-.3 3.6-.9.8-.6 1.2-1.6 1.2-2.9 0-1.2-.4-2.2-1.3-2.7s-2.1-.9-3.8-.9h-3.9zm18.3 9.5h-2.3V35.7h2.3V57zm7.5-15v9.7c0 1.2.3 2.1.8 2.7.6.6 1.4.9 2.6.9 1.6 0 2.7-.4 3.4-1.3s1.1-2.3 1.1-4.2V42h2.3v15H874l-.3-2h-.1c-.5.7-1.1 1.3-1.9 1.7-.8.4-1.8.6-2.8.6-1.8 0-3.2-.4-4.1-1.3-.9-.9-1.4-2.3-1.4-4.2V42h2.2zm22 15.3c-2.2 0-4-.7-5.2-2s-1.9-3.2-1.9-5.6c0-2.4.6-4.3 1.8-5.8s2.8-2.1 4.8-2.1c1.9 0 3.4.6 4.5 1.9s1.6 2.9 1.6 4.9V50h-10.3c0 1.8.5 3.1 1.3 4s2 1.4 3.6 1.4 3.2-.3 4.8-1v2c-.8.3-1.6.6-2.3.7s-1.7.2-2.7.2zm-.6-13.7c-1.2 0-2.2.4-2.9 1.2s-1.1 1.9-1.3 3.3h7.8c0-1.4-.3-2.5-1-3.3-.5-.8-1.5-1.2-2.6-1.2zM914.5 57l-6.8-17.7h-.1c.1 1.4.2 3.1.2 5V57h-2.1V37h3.5l6.3 16.5h.1L922 37h3.5v20h-2.3V44.1c0-1.5.1-3.1.2-4.8h-.1L916.4 57h-1.9zM931 38c0-.5.1-.9.4-1.1.3-.2.6-.4 1-.4s.7.1.9.4c.3.2.4.6.4 1.1s-.1.9-.4 1.1c-.3.3-.6.4-.9.4-.4 0-.7-.1-1-.4-.3-.3-.4-.6-.4-1.1zm2.5 19h-2.3V42h2.3v15zm15.5-2h-.1c-1 1.5-2.6 2.3-4.7 2.3-2 0-3.5-.7-4.6-2-1.1-1.3-1.6-3.2-1.6-5.7s.5-4.4 1.6-5.8 2.6-2.1 4.6-2.1c2 0 3.6.7 4.7 2.2h.2l-.1-1.1-.1-1.1v-6.1h2.3V57h-1.8l-.4-2zm-4.5.4c1.5 0 2.7-.4 3.4-1.3s1-2.2 1-4.1v-.5c0-2.1-.4-3.6-1.1-4.5-.7-.9-1.8-1.4-3.4-1.4-1.3 0-2.3.5-3.1 1.6-.7 1-1.1 2.5-1.1 4.4 0 1.9.3 3.4 1.1 4.3.8 1 1.8 1.5 3.2 1.5z"/></g><path d="M1015 0h90v339h-90V0z" fill-rule="evenodd" clip-rule="evenodd" fill="#363545"/><path d="M1105 0h90v339h-90V0z" fill-rule="evenodd" clip-rule="evenodd" fill="#ffbe00"/><path d="M1195 0h90v339h-90V0z" fill-rule="evenodd" clip-rule="evenodd" fill="#009ad9"/><g class="st2"><path class="st6" d="M1071 249v2.3h-17.9v6.3h-2.1v-15h2.1v6.3h17.9zm-15.3-16.4c0-.7.1-1.3.2-1.8l2.1.3c-.1.6-.2 1.2-.2 1.6 0 1.2.5 2.2 1.5 3.1s2.2 1.3 3.7 1.3h8v2.3h-15v-1.9l2.8-.3v-.1c-1-.6-1.7-1.2-2.3-2-.5-.7-.8-1.6-.8-2.5zm-3.7-5c-.5 0-.9-.1-1.1-.4s-.4-.6-.4-1 .1-.7.4-.9.6-.4 1.1-.4.9.1 1.1.4.4.6.4.9c0 .4-.1.7-.4 1s-.6.4-1.1.4zm19-2.4v2.3h-15v-2.3h15zm0-24.5h-9.7c-1.2 0-2.1.3-2.7.8-.6.5-.9 1.3-.9 2.4 0 1.4.4 2.5 1.2 3.1.8.7 2.1 1 3.7 1h8.4v2.3h-9.7c-1.2 0-2.1.3-2.7.8-.6.5-.9 1.3-.9 2.4 0 1.4.4 2.5 1.3 3.1.9.7 2.2 1 4.2 1h7.9v2.3h-15v-1.8l2.1-.4v-.1c-.7-.4-1.3-1-1.7-1.8s-.6-1.7-.6-2.6c0-2.3.8-3.9 2.5-4.6v-.1c-.8-.4-1.4-1.1-1.9-1.9s-.7-1.8-.7-2.9c0-1.7.4-3 1.3-3.8.9-.8 2.3-1.3 4.2-1.3h9.8v2.1zm-15.2-14.5c0-2 .7-3.5 2-4.6s3.2-1.6 5.7-1.6 4.4.5 5.7 1.6 2 2.6 2 4.6c0 1-.2 1.9-.5 2.7s-.9 1.5-1.7 2v.2l1.9.5v1.6h-21.3v-2.3h5.2c1.2 0 2.2 0 3.1.1v-.1c-1.4-1-2.1-2.6-2.1-4.7zm1.9.3c0 1.5.4 2.7 1.3 3.3s2.4 1 4.5 1 3.6-.4 4.5-1.1c.9-.7 1.4-1.8 1.4-3.4 0-1.4-.5-2.4-1.5-3.1s-2.5-1-4.4-1c-2 0-3.4.3-4.4 1s-1.4 1.9-1.4 3.3zm13.3-13.3v2.3h-21.3v-2.3h21.3zm.3-11.7c0 2.2-.7 4-2 5.2-1.3 1.3-3.2 1.9-5.6 1.9-2.4 0-4.3-.6-5.8-1.8s-2.1-2.8-2.1-4.8c0-1.9.6-3.4 1.9-4.5s2.9-1.6 4.9-1.6h1.4v10.3c1.8 0 3.1-.5 4-1.3.9-.8 1.4-2 1.4-3.6s-.3-3.2-1-4.8h2c.3.8.6 1.6.7 2.3.1.8.2 1.7.2 2.7zm-13.7.6c0 1.2.4 2.2 1.2 2.9.8.7 1.9 1.1 3.3 1.3v-7.8c-1.4 0-2.5.3-3.3 1-.8.5-1.2 1.4-1.2 2.6zm2.9-27.5v-6.8h9.7c.3 1.1.6 2.1.8 3.2s.3 2.4.3 3.8c0 3-.9 5.4-2.7 7.1-1.8 1.7-4.3 2.5-7.6 2.5-2.1 0-3.9-.4-5.5-1.3s-2.8-2-3.6-3.6c-.8-1.6-1.2-3.4-1.2-5.5s.4-4.1 1.2-6l2.1.9c-.8 1.8-1.1 3.5-1.1 5.2 0 2.4.7 4.3 2.2 5.7s3.5 2.1 6 2.1c2.7 0 4.7-.7 6.1-2 1.4-1.3 2.1-3.3 2.1-5.8 0-1.4-.2-2.7-.5-4.1h-6.2v4.5h-2.1zm-4.8-18.7c0-.7.1-1.3.2-1.8l2.1.3c-.1.6-.2 1.2-.2 1.6 0 1.2.5 2.2 1.5 3.1s2.2 1.3 3.7 1.3h8v2.3h-15v-1.9l2.8-.3v-.1c-1-.6-1.7-1.2-2.3-2-.5-.7-.8-1.5-.8-2.5zm15.3-14.3l-2.1.5v.1c.9.7 1.6 1.5 1.9 2.2.3.7.5 1.7.5 2.8 0 1.5-.4 2.7-1.1 3.5-.8.8-1.9 1.3-3.3 1.3-3 0-4.6-2.4-4.8-7.3l-.1-2.5h-.9c-1.2 0-2 .3-2.6.8s-.8 1.3-.8 2.4c0 1.2.4 2.7 1.1 4.2l-1.7.7c-.4-.7-.7-1.5-.9-2.4-.2-.9-.3-1.8-.3-2.6 0-1.8.4-3.1 1.2-4s2.1-1.3 3.8-1.3h10.2v1.6zm-1.6 5.1c0-1.4-.4-2.5-1.2-3.3s-1.9-1.2-3.3-1.2h-1.4l.1 2.3c.1 1.8.3 3.1.8 3.9.5.8 1.3 1.2 2.3 1.2.8 0 1.4-.2 1.9-.7.6-.6.8-1.3.8-2.2zM1056 97v-2.4l8.5-3.3c2-.7 3.4-1.2 4.2-1.3v-.1c-.5-.1-1.3-.4-2.4-.7-1.1-.4-4.6-1.6-10.4-3.7V83l17.1 6.4c1.7.6 2.9 1.4 3.6 2.2.7.9 1.1 1.9 1.1 3.1 0 .7-.1 1.4-.2 2.1h-1.8c.1-.5.2-1.1.2-1.7 0-1.6-.9-2.7-2.6-3.3l-2.1-.8-15.2 6z"/></g><g class="st2"><path class="st6" d="M1251 284.7v2.3h-17.9v6.3h-2.1v-15h2.1v6.3h17.9zm-15.3-16.4c0-.7.1-1.3.2-1.8l2.1.3c-.1.6-.2 1.2-.2 1.6 0 1.2.5 2.2 1.5 3.1s2.2 1.3 3.7 1.3h8v2.3h-15v-1.9l2.8-.3v-.1c-1-.6-1.7-1.2-2.3-2-.5-.7-.8-1.6-.8-2.5zm-3.7-5c-.5 0-.9-.1-1.1-.4s-.4-.6-.4-1 .1-.7.4-.9.6-.4 1.1-.4.9.1 1.1.4.4.6.4.9c0 .4-.1.7-.4 1s-.6.4-1.1.4zm19-2.4v2.3h-15v-2.3h15zm0-24.5h-9.7c-1.2 0-2.1.3-2.7.8-.6.5-.9 1.3-.9 2.4 0 1.4.4 2.5 1.2 3.1.8.7 2.1 1 3.7 1h8.4v2.3h-9.7c-1.2 0-2.1.3-2.7.8-.6.5-.9 1.3-.9 2.4 0 1.4.4 2.5 1.3 3.1.9.7 2.2 1 4.2 1h7.9v2.3h-15v-1.8l2.1-.4v-.1c-.7-.4-1.3-1-1.7-1.8s-.6-1.7-.6-2.6c0-2.3.8-3.9 2.5-4.6v-.3c-.8-.4-1.4-1.1-1.9-1.9s-.7-1.8-.7-2.9c0-1.7.4-3 1.3-3.8.9-.8 2.3-1.3 4.2-1.3h9.8v2.3zm-15.2-14.5c0-2 .7-3.5 2-4.6s3.2-1.6 5.7-1.6 4.4.5 5.7 1.6 2 2.6 2 4.6c0 1-.2 1.9-.5 2.7s-.9 1.5-1.7 2v.2l1.9.5v1.6h-21.3v-2.3h5.2c1.2 0 2.2 0 3.1.1v-.1c-1.4-1-2.1-2.6-2.1-4.7zm1.9.4c0 1.5.4 2.7 1.3 3.3s2.4 1 4.5 1 3.6-.4 4.5-1.1c.9-.7 1.4-1.8 1.4-3.4 0-1.4-.5-2.4-1.5-3.1s-2.5-1-4.4-1c-2 0-3.4.3-4.4 1s-1.4 1.8-1.4 3.3zm13.3-13.4v2.3h-21.3v-2.3h21.3zm.3-11.7c0 2.2-.7 4-2 5.2-1.3 1.3-3.2 1.9-5.6 1.9-2.4 0-4.3-.6-5.8-1.8s-2.1-2.8-2.1-4.8c0-1.9.6-3.4 1.9-4.5s2.9-1.6 4.9-1.6h1.4V202c1.8 0 3.1-.5 4-1.3.9-.8 1.4-2 1.4-3.6s-.3-3.2-1-4.8h2c.3.8.6 1.6.7 2.3.1.7.2 1.6.2 2.6zm-13.7.6c0 1.2.4 2.2 1.2 2.9.8.7 1.9 1.1 3.3 1.3v-7.8c-1.4 0-2.5.3-3.3 1-.8.5-1.2 1.4-1.2 2.6zm-6.6-18.7v-5.6c0-2.7.4-4.6 1.2-5.8.8-1.2 2-1.8 3.8-1.8 1.2 0 2.2.3 2.9 1 .8.7 1.3 1.6 1.5 2.9h.1c.5-3 2.1-4.6 4.8-4.6 1.8 0 3.2.6 4.2 1.8 1 1.2 1.5 2.9 1.5 5.1v7h-20zm8.6-2.3V173c0-1.6-.3-2.8-.8-3.5-.5-.7-1.4-1.1-2.6-1.1-1.1 0-1.9.4-2.4 1.2-.5.8-.7 2.1-.7 3.8v3.4h6.5zm1.9 0h7.5v-4.2c0-1.6-.3-2.8-.9-3.6-.6-.8-1.6-1.2-2.9-1.2-1.2 0-2.2.4-2.7 1.3s-.9 2.1-.9 3.8v3.9zm9.5-18.3v2.3h-21.3v-2.3h21.3zm-15-7.5h9.7c1.2 0 2.1-.3 2.7-.8.6-.6.9-1.4.9-2.6 0-1.6-.4-2.7-1.3-3.4s-2.3-1.1-4.2-1.1h-7.9v-2.3h15v1.9l-2 .3v.1c.7.5 1.3 1.1 1.7 1.9.4.8.6 1.8.6 2.8 0 1.8-.4 3.2-1.3 4.1-.9.9-2.3 1.4-4.2 1.4h-9.8V151zm15.3-22c0 2.2-.7 4-2 5.2-1.3 1.3-3.2 1.9-5.6 1.9-2.4 0-4.3-.6-5.8-1.8s-2.1-2.8-2.1-4.8c0-1.9.6-3.4 1.9-4.5s2.9-1.6 4.9-1.6h1.4v10.3c1.8 0 3.1-.5 4-1.3.9-.8 1.4-2 1.4-3.6s-.3-3.2-1-4.8h2c.3.8.6 1.6.7 2.3.1.8.2 1.7.2 2.7zm-13.7.6c0 1.2.4 2.2 1.2 2.9.8.7 1.9 1.1 3.3 1.3V126c-1.4 0-2.5.3-3.3 1-.8.5-1.2 1.4-1.2 2.6zm13.4-18.7h-20v-2.3h17.9v-8.8h2.1v11.1zm-19-14.6c-.5 0-.9-.1-1.1-.4-.2-.3-.4-.6-.4-1s.1-.7.4-.9c.2-.3.6-.4 1.1-.4s.9.1 1.1.4c.3.3.4.6.4.9 0 .4-.1.7-.4 1-.3.3-.6.4-1.1.4zm19-2.4v2.3h-15v-2.3h15zm-15-17.7h1.4l.3 2.8c.3-.3.7-.5 1.3-.7.5-.2 1.1-.3 1.7-.3 1.5 0 2.6.5 3.5 1.5.9 1 1.3 2.4 1.3 4.1 0 .4 0 .9-.1 1.3.5 1 1.2 1.4 1.9 1.4.4 0 .7-.2.9-.5.2-.3.3-.9.3-1.7v-2.7c0-1.6.3-2.9 1-3.7.7-.9 1.7-1.3 3-1.3 1.7 0 2.9.7 3.8 2 .9 1.3 1.3 3.3 1.3 5.8 0 2-.4 3.5-1.1 4.5-.7 1.1-1.8 1.6-3.1 1.6-.9 0-1.7-.3-2.4-.9-.7-.6-1.1-1.4-1.4-2.5-.2.4-.4.7-.8 1s-.8.4-1.3.4-1-.1-1.4-.4c-.4-.3-.8-.8-1.2-1.4-.3.8-.9 1.4-1.6 1.9-.8.5-1.6.7-2.6.7-1.6 0-2.9-.5-3.8-1.5s-1.3-2.4-1.3-4.2c0-.8.1-1.5.3-2.1v-5.1zm4.8 10.8c1 0 1.8-.3 2.4-.9.5-.6.8-1.4.8-2.5 0-2.2-1.1-3.3-3.2-3.3-2.3 0-3.4 1.1-3.4 3.4 0 1.1.3 1.9.9 2.5s1.4.8 2.5.8zm12.7 1.2c.8 0 1.4-.3 1.8-1s.6-1.7.6-2.9c0-1.9-.3-3.3-.9-4.2s-1.3-1.4-2.3-1.4c-.8 0-1.4.3-1.7.8-.3.5-.5 1.4-.5 2.8V85c0 1 .2 1.8.7 2.4s1.4.8 2.3.8zm-2.5-25.8h-9.7c-1.2 0-2.1.3-2.7.8-.6.6-.9 1.4-.9 2.6 0 1.6.4 2.7 1.3 3.5s2.3 1.1 4.2 1.1h7.8v2.3h-21.3v-2.3h6.4c.8 0 1.4 0 1.9.1v-.1c-.7-.4-1.3-1.1-1.7-1.9-.4-.8-.6-1.8-.6-2.8 0-1.8.4-3.2 1.3-4.1s2.3-1.4 4.1-1.4h9.8v2.2zm-1.6-12.4c0-.4 0-.8-.1-1.2-.1-.4-.1-.7-.2-.9h1.7c.1.2.2.6.3 1.1s.1.9.1 1.3c0 2.9-1.5 4.3-4.6 4.3h-8.9v2.1h-1.1l-.9-2.1-3.2-1v-1.3h3.5V48h1.8v4.3h8.8c.9 0 1.6-.2 2.1-.6.5-.3.7-.9.7-1.7z"/></g><g class="st2"><path class="st3" d="M1161 260.9v2.3h-17.9v6.3h-2.1v-15h2.1v6.3h17.9zm-15.3-16.4c0-.7.1-1.3.2-1.8l2.1.3c-.1.6-.2 1.2-.2 1.6 0 1.2.5 2.2 1.5 3.1s2.2 1.3 3.7 1.3h8v2.3h-15v-1.9l2.8-.3v-.1c-1-.6-1.7-1.2-2.3-2-.5-.7-.8-1.5-.8-2.5zm-3.7-4.9c-.5 0-.9-.1-1.1-.4-.2-.3-.4-.6-.4-1s.1-.7.4-.9c.2-.3.6-.4 1.1-.4s.9.1 1.1.4c.3.3.4.6.4.9 0 .4-.1.7-.4 1-.3.3-.6.4-1.1.4zm19-2.5v2.3h-15v-2.3h15zm0-24.4h-9.7c-1.2 0-2.1.3-2.7.8-.6.5-.9 1.3-.9 2.4 0 1.4.4 2.5 1.2 3.1.8.7 2.1 1 3.7 1h8.4v2.3h-9.7c-1.2 0-2.1.3-2.7.8-.6.5-.9 1.3-.9 2.4 0 1.4.4 2.5 1.3 3.1.9.7 2.2 1 4.2 1h7.9v2.3h-15v-1.8l2.1-.4v-.1c-.7-.4-1.3-1-1.7-1.8s-.6-1.7-.6-2.6c0-2.3.8-3.9 2.5-4.6v-.1c-.8-.4-1.4-1.1-1.9-1.9s-.7-1.8-.7-2.9c0-1.7.4-3 1.3-3.8.9-.8 2.3-1.3 4.2-1.3h9.8v2.1zm-15.2-14.5c0-2 .7-3.5 2-4.6 1.3-1.1 3.2-1.6 5.7-1.6s4.4.5 5.7 1.6c1.4 1.1 2 2.6 2 4.6 0 1-.2 1.9-.5 2.7s-.9 1.5-1.7 2v.2l1.9.5v1.6h-21.3v-2.3h5.2c1.2 0 2.2 0 3.1.1v-.1c-1.4-1.1-2.1-2.6-2.1-4.7zm1.9.3c0 1.5.4 2.7 1.3 3.3s2.4 1 4.5 1 3.6-.4 4.5-1.1 1.4-1.8 1.4-3.4c0-1.4-.5-2.4-1.5-3.1s-2.5-1-4.4-1c-2 0-3.4.3-4.4 1s-1.4 1.9-1.4 3.3zm13.3-13.3v2.3h-21.3v-2.3h21.3zm.3-11.7c0 2.2-.7 4-2 5.2-1.3 1.3-3.2 1.9-5.6 1.9-2.4 0-4.3-.6-5.8-1.8s-2.1-2.8-2.1-4.8c0-1.9.6-3.4 1.9-4.5 1.2-1.1 2.9-1.6 4.9-1.6h1.4v10.3c1.8 0 3.1-.5 4-1.3.9-.8 1.4-2 1.4-3.6s-.3-3.2-1-4.8h2c.3.8.6 1.6.7 2.3.1.8.2 1.6.2 2.7zm-13.7.6c0 1.2.4 2.2 1.2 2.9.8.7 1.9 1.1 3.3 1.3v-7.8c-1.4 0-2.5.3-3.3 1-.8.5-1.2 1.4-1.2 2.6zm3.4-23.8l-10-5.3v-2.5l12.2 6.7h7.8v2.4h-7.6l-12.3 6.7v-2.5l9.9-5.5zm10.3-17.2c0 2.2-.7 4-2 5.2-1.3 1.3-3.2 1.9-5.6 1.9-2.4 0-4.3-.6-5.8-1.8s-2.1-2.8-2.1-4.8c0-1.9.6-3.4 1.9-4.5s2.9-1.6 4.9-1.6h1.4v10.3c1.8 0 3.1-.5 4-1.3.9-.8 1.4-2 1.4-3.6s-.3-3.2-1-4.8h2c.3.8.6 1.6.7 2.3.1.8.2 1.7.2 2.7zm-13.7.6c0 1.2.4 2.2 1.2 2.9.8.7 1.9 1.1 3.3 1.3V130c-1.4 0-2.5.3-3.3 1-.8.6-1.2 1.5-1.2 2.7zm13.4-12.8v2.3h-21.3v-2.3h21.3zm0-7.6v2.3h-21.3v-2.3h21.3zm-7.5-18.3c2.4 0 4.3.6 5.7 1.8s2.1 2.9 2.1 5.1c0 1.3-.3 2.5-.9 3.6s-1.5 1.8-2.7 2.4c-1.2.6-2.6.8-4.1.8-2.4 0-4.3-.6-5.7-1.8-1.4-1.2-2-2.9-2-5.1 0-2.1.7-3.8 2.1-5 1.2-1.2 3.1-1.8 5.5-1.8zm0 11.4c1.9 0 3.4-.4 4.4-1.1s1.5-1.9 1.5-3.4-.5-2.6-1.5-3.4c-1-.8-2.5-1.2-4.4-1.2-1.9 0-3.4.4-4.3 1.2-1 .8-1.5 1.9-1.5 3.4s.5 2.6 1.5 3.4c.9.7 2.4 1.1 4.3 1.1zm7.5-28.2l-8.8 2.7c-.5.2-1.8.5-3.7 1v.1c1.6.4 2.8.7 3.7 1l8.8 2.8v2.6l-15 4.1v-2.4c3.8-1 6.6-1.7 8.6-2.2s3.3-.8 4-.9v-.1c-.5-.1-1.2-.3-2-.5s-1.5-.4-2-.6l-8.6-2.7v-2.5l8.6-2.7c1.6-.5 2.9-.9 4-1v-.1c-.3 0-.8-.1-1.5-.3-.7-.2-4.4-1.1-11-2.9v-2.4l15 4.1v2.9z"/></g></svg>