<svg xmlns="http://www.w3.org/2000/svg" width="100%" height="100%" viewBox="0 0 1400 800"><rect width="1200" height="800" fill="#004f83"/><defs><linearGradient id="a" x1="600" x2="600" y1="25" y2="777" gradientUnits="userSpaceOnUse"><stop offset="0" stop-color="#0e416c"/><stop offset="1" stop-color="#0e416c"/></linearGradient><linearGradient id="b" x1="650" x2="650" y1="25" y2="777" gradientUnits="userSpaceOnUse"><stop offset="0" stop-color="#004f83"/><stop offset="1" stop-color="#004f83"/></linearGradient><linearGradient id="c" x1="700" x2="700" y1="25" y2="777" gradientUnits="userSpaceOnUse"><stop offset="0" stop-color="#0063a3"/><stop offset="1" stop-color="#0063a3"/></linearGradient><linearGradient id="d" x1="750" x2="750" y1="25" y2="777" gradientUnits="userSpaceOnUse"><stop offset="0" stop-color="#217cbb"/><stop offset="1" stop-color="#217cbb"/></linearGradient><linearGradient id="f" x1="850" x2="850" y1="25" y2="777" gradientUnits="userSpaceOnUse"><stop offset="0" stop-color="#e49325"/><stop offset="1" stop-color="#e49325"/></linearGradient><linearGradient id="g" x1="900" x2="900" y1="25" y2="777" gradientUnits="userSpaceOnUse"><stop offset="0" stop-color="#fbad26"/><stop offset="1" stop-color="#fbad26"/></linearGradient><linearGradient id="h" x1="950" x2="950" y1="25" y2="777" gradientUnits="userSpaceOnUse"><stop offset="0" stop-color="#fec157"/><stop offset="1" stop-color="#fec157"/></linearGradient><linearGradient id="i" x1="1000" x2="1000" y1="25" y2="777" gradientUnits="userSpaceOnUse"><stop offset="0" stop-color="#fff5e4"/><stop offset="1" stop-color="#fff5e4"/></linearGradient><linearGradient id="j" x1="1050" x2="1050" y1="25" y2="777" gradientUnits="userSpaceOnUse"><stop offset="0" stop-color="#f100d1"/><stop offset="1" stop-color="#2b0090"/></linearGradient><linearGradient id="k" x1="1100" x2="1100" y1="25" y2="777" gradientUnits="userSpaceOnUse"><stop offset="0" stop-color="#f000e8"/><stop offset="1" stop-color="#160083"/></linearGradient><linearGradient id="l" x1="1150" x2="1150" y1="25" y2="777" gradientUnits="userSpaceOnUse"><stop offset="0" stop-color="#E0F"/><stop offset="1" stop-color="#007"/></linearGradient></defs><g fill-opacity="1"><rect width="1200" height="800" fill="url(#a)"/><rect width="1100" height="800" x="100" fill="url(#b)"/><rect width="1000" height="800" x="200" fill="url(#c)"/><rect width="900" height="800" x="300" fill="url(#d)"/><rect width="800" height="800" x="400" fill="#019aeb"/><rect width="700" height="800" x="500" fill="#e49325"/><rect width="600" height="800" x="600" fill="#fbad26"/><rect width="500" height="800" x="700" fill="#fec157"/><rect width="400" height="800" x="800" fill="#ab1f26"/><rect width="300" height="800" x="900" fill="#da212c"/><rect width="200" height="800" x="1000" fill="#e86363"/><rect width="100" height="800" x="1100" fill="#006638"/><rect width="100" height="800" x="1200" fill="#1e8a44"/><rect width="100" height="800" x="1300" fill="#4ea646"/></g></svg>