<svg id="Layer_1" xmlns="http://www.w3.org/2000/svg" xmlns:xlink="http://www.w3.org/1999/xlink" x="0px" y="0px"
	 viewBox="0 0 790 449" style="enable-background:new 0 0 790 449;" xml:space="preserve">
<style type="text/css">
	.Graphic_x0020_Style_x0020_2{fill:#FF00DD;fill-opacity:0.3;stroke:#FF00DD;}
	.st0{fill:#F1F1F6;}
	.st1{fill:none;stroke:#CBCDD6;}
	.st2{fill:#FFFFFF;}
	.st3{enable-background:new    ;}
	.st4{fill:#252A2E;}
	.st5{fill:none;}
	.st6{fill:#90939F;}
	.st7{fill:none;stroke:#90939F;stroke-width:2;}
	.st8{fill:none;stroke:#E0E1E9;}
	.st9{opacity:0;}
	.st10{fill:#217CBB;}
	.st11{fill:#E0E1E9;}
	.st12{fill:#585C65;}
	.st13{display:none;}
	.st14{fill:none;stroke:#FF00DD;}
	.st15{fill:#FF00DD;}
</style>
<g id="tree-text-overflow" transform="translate(0 -17)">
	<g id="Rectangle_3463" transform="translate(0 17)">
		<rect class="st0" width="790" height="449"/>
		<rect x="0.5" y="0.5" class="st1" width="789" height="448"/>
	</g>
	<g id="Group_8355" transform="translate(-30 -3518)">
		<g id="tree-item-checkbox-level_1" transform="translate(235 3896)">
			<rect id="Rectangle_3345" class="st2" width="320" height="48"/>
			<g class="st3">
				<path class="st4" d="M85.1,30.2h-1.3V19.9h-3.6v-1.2h8.6v1.2h-3.6V30.2z"/>
				<path class="st4" d="M94.1,21.5c0.4,0,0.7,0,1,0.1L95,22.8c-0.4-0.1-0.7-0.1-0.9-0.1c-0.7,0-1.3,0.3-1.8,0.8s-0.7,1.3-0.7,2.1
					v4.6h-1.3v-8.6h1.1l0.1,1.6h0.1c0.3-0.6,0.7-1,1.1-1.3C93.1,21.6,93.6,21.5,94.1,21.5z"/>
				<path class="st4" d="M100.4,30.3c-1.3,0-2.3-0.4-3-1.2c-0.7-0.8-1.1-1.8-1.1-3.2c0-1.4,0.3-2.5,1-3.3s1.6-1.2,2.7-1.2
					c1.1,0,1.9,0.4,2.5,1.1s0.9,1.6,0.9,2.8v0.8h-5.9c0,1,0.3,1.8,0.8,2.3c0.5,0.5,1.2,0.8,2,0.8c0.9,0,1.8-0.2,2.7-0.6v1.2
					c-0.5,0.2-0.9,0.3-1.3,0.4C101.4,30.3,101,30.3,100.4,30.3z M100,22.6c-0.7,0-1.2,0.2-1.6,0.7c-0.4,0.4-0.6,1.1-0.7,1.9h4.5
					c0-0.8-0.2-1.4-0.5-1.9C101.2,22.8,100.7,22.6,100,22.6z"/>
				<path class="st4" d="M109.4,30.3c-1.3,0-2.3-0.4-3-1.2c-0.7-0.8-1.1-1.8-1.1-3.2c0-1.4,0.3-2.5,1-3.3s1.6-1.2,2.7-1.2
					c1.1,0,1.9,0.4,2.5,1.1s0.9,1.6,0.9,2.8v0.8h-5.9c0,1,0.3,1.8,0.8,2.3c0.5,0.5,1.2,0.8,2,0.8c0.9,0,1.8-0.2,2.7-0.6v1.2
					c-0.5,0.2-0.9,0.3-1.3,0.4C110.4,30.3,109.9,30.3,109.4,30.3z M109,22.6c-0.7,0-1.2,0.2-1.6,0.7c-0.4,0.4-0.6,1.1-0.7,1.9h4.5
					c0-0.8-0.2-1.4-0.5-1.9C110.2,22.8,109.7,22.6,109,22.6z"/>
				<path class="st4" d="M119.1,30.2V18.8h1.3v11.4H119.1z"/>
				<path class="st4" d="M126.1,29.3c0.2,0,0.5,0,0.7-0.1c0.2,0,0.4-0.1,0.5-0.1v1c-0.1,0.1-0.3,0.1-0.6,0.2s-0.5,0.1-0.7,0.1
					c-1.7,0-2.5-0.9-2.5-2.6v-5.1h-1.2V22l1.2-0.5l0.5-1.8h0.8v2h2.5v1h-2.5v5c0,0.5,0.1,0.9,0.4,1.2
					C125.3,29.1,125.7,29.3,126.1,29.3z"/>
				<path class="st4" d="M132.6,30.3c-1.3,0-2.3-0.4-3-1.2c-0.7-0.8-1.1-1.8-1.1-3.2c0-1.4,0.3-2.5,1-3.3s1.6-1.2,2.7-1.2
					c1.1,0,1.9,0.4,2.5,1.1s0.9,1.6,0.9,2.8v0.8h-5.9c0,1,0.3,1.8,0.8,2.3c0.5,0.5,1.2,0.8,2,0.8c0.9,0,1.8-0.2,2.7-0.6v1.2
					c-0.5,0.2-0.9,0.3-1.3,0.4C133.7,30.3,133.2,30.3,132.6,30.3z M132.2,22.6c-0.7,0-1.2,0.2-1.6,0.7c-0.4,0.4-0.6,1.1-0.7,1.9h4.5
					c0-0.8-0.2-1.4-0.5-1.9C133.4,22.8,132.9,22.6,132.2,22.6z"/>
				<path class="st4" d="M148.9,30.2v-5.6c0-0.7-0.1-1.2-0.4-1.5c-0.3-0.3-0.7-0.5-1.4-0.5c-0.8,0-1.4,0.2-1.8,0.7
					c-0.4,0.5-0.6,1.2-0.6,2.1v4.8h-1.3v-5.6c0-0.7-0.1-1.2-0.4-1.5c-0.3-0.3-0.7-0.5-1.4-0.5c-0.8,0-1.4,0.2-1.8,0.7
					c-0.4,0.5-0.6,1.3-0.6,2.4v4.5H138v-8.6h1.1l0.2,1.2h0.1c0.2-0.4,0.6-0.7,1-1s0.9-0.4,1.5-0.4c1.3,0,2.2,0.5,2.6,1.5h0.1
					c0.3-0.4,0.6-0.8,1.1-1.1s1-0.4,1.7-0.4c1,0,1.7,0.2,2.2,0.7c0.5,0.5,0.7,1.3,0.7,2.4v5.6H148.9z"/>
			</g>
			<g id="Arrow_down" transform="translate(16 36) rotate(-90)">
				<path id="Path_3872" class="st5" d="M0,0h24v24H0V0z"/>
				<path id="Path_3871" class="st6" d="M11.8,15.5c-0.2,0-0.4-0.1-0.6-0.2L6,10.1L7.1,9l4.7,4.7L16.4,9l1.1,1.1l-5.2,5.2
					C12.2,15.5,12,15.5,11.8,15.5z"/>
			</g>
			<g id="Checkbox" transform="translate(48 12)">
				<rect id="box" class="st5" width="24" height="24"/>
				<g id="BG" transform="translate(4 4)">
					<path class="st2" d="M2,0h12c1.1,0,2,0.9,2,2v12c0,1.1-0.9,2-2,2H2c-1.1,0-2-0.9-2-2V2C0,0.9,0.9,0,2,0z"/>
					<path class="st7" d="M2,1h12c0.6,0,1,0.4,1,1v12c0,0.6-0.4,1-1,1H2c-0.6,0-1-0.4-1-1V2C1,1.4,1.4,1,2,1z"/>
				</g>
			</g>
		</g>
		<g id="tree-item-checkbox-level_1-2" transform="translate(235 3847.5)">
			<rect id="Rectangle_3345-2" class="st2" width="320" height="48"/>
			<line id="bottom_border" class="st8" x1="0" y1="48.5" x2="320" y2="48.5"/>
			<line id="top_border" class="st8" x1="0" y1="0.5" x2="320" y2="0.5"/>
			<g class="st3">
				<path class="st4" d="M85.1,30.2h-1.3V19.9h-3.6v-1.2h8.6v1.2h-3.6V30.2z"/>
				<path class="st4" d="M94.1,21.5c0.4,0,0.7,0,1,0.1L95,22.8c-0.4-0.1-0.7-0.1-0.9-0.1c-0.7,0-1.3,0.3-1.8,0.8s-0.7,1.3-0.7,2.1
					v4.6h-1.3v-8.6h1.1l0.1,1.6h0.1c0.3-0.6,0.7-1,1.1-1.3C93.1,21.6,93.6,21.5,94.1,21.5z"/>
				<path class="st4" d="M100.4,30.3c-1.3,0-2.3-0.4-3-1.2c-0.7-0.8-1.1-1.8-1.1-3.2c0-1.4,0.3-2.5,1-3.3s1.6-1.2,2.7-1.2
					c1.1,0,1.9,0.4,2.5,1.1s0.9,1.6,0.9,2.8v0.8h-5.9c0,1,0.3,1.8,0.8,2.3c0.5,0.5,1.2,0.8,2,0.8c0.9,0,1.8-0.2,2.7-0.6v1.2
					c-0.5,0.2-0.9,0.3-1.3,0.4C101.4,30.3,101,30.3,100.4,30.3z M100,22.6c-0.7,0-1.2,0.2-1.6,0.7c-0.4,0.4-0.6,1.1-0.7,1.9h4.5
					c0-0.8-0.2-1.4-0.5-1.9C101.2,22.8,100.7,22.6,100,22.6z"/>
				<path class="st4" d="M109.4,30.3c-1.3,0-2.3-0.4-3-1.2c-0.7-0.8-1.1-1.8-1.1-3.2c0-1.4,0.3-2.5,1-3.3s1.6-1.2,2.7-1.2
					c1.1,0,1.9,0.4,2.5,1.1s0.9,1.6,0.9,2.8v0.8h-5.9c0,1,0.3,1.8,0.8,2.3c0.5,0.5,1.2,0.8,2,0.8c0.9,0,1.8-0.2,2.7-0.6v1.2
					c-0.5,0.2-0.9,0.3-1.3,0.4C110.4,30.3,109.9,30.3,109.4,30.3z M109,22.6c-0.7,0-1.2,0.2-1.6,0.7c-0.4,0.4-0.6,1.1-0.7,1.9h4.5
					c0-0.8-0.2-1.4-0.5-1.9C110.2,22.8,109.7,22.6,109,22.6z"/>
				<path class="st4" d="M119.1,30.2V18.8h1.3v11.4H119.1z"/>
				<path class="st4" d="M126.1,29.3c0.2,0,0.5,0,0.7-0.1c0.2,0,0.4-0.1,0.5-0.1v1c-0.1,0.1-0.3,0.1-0.6,0.2s-0.5,0.1-0.7,0.1
					c-1.7,0-2.5-0.9-2.5-2.6v-5.1h-1.2V22l1.2-0.5l0.5-1.8h0.8v2h2.5v1h-2.5v5c0,0.5,0.1,0.9,0.4,1.2
					C125.3,29.1,125.7,29.3,126.1,29.3z"/>
				<path class="st4" d="M132.6,30.3c-1.3,0-2.3-0.4-3-1.2c-0.7-0.8-1.1-1.8-1.1-3.2c0-1.4,0.3-2.5,1-3.3s1.6-1.2,2.7-1.2
					c1.1,0,1.9,0.4,2.5,1.1s0.9,1.6,0.9,2.8v0.8h-5.9c0,1,0.3,1.8,0.8,2.3c0.5,0.5,1.2,0.8,2,0.8c0.9,0,1.8-0.2,2.7-0.6v1.2
					c-0.5,0.2-0.9,0.3-1.3,0.4C133.7,30.3,133.2,30.3,132.6,30.3z M132.2,22.6c-0.7,0-1.2,0.2-1.6,0.7c-0.4,0.4-0.6,1.1-0.7,1.9h4.5
					c0-0.8-0.2-1.4-0.5-1.9C133.4,22.8,132.9,22.6,132.2,22.6z"/>
				<path class="st4" d="M148.9,30.2v-5.6c0-0.7-0.1-1.2-0.4-1.5c-0.3-0.3-0.7-0.5-1.4-0.5c-0.8,0-1.4,0.2-1.8,0.7
					c-0.4,0.5-0.6,1.2-0.6,2.1v4.8h-1.3v-5.6c0-0.7-0.1-1.2-0.4-1.5c-0.3-0.3-0.7-0.5-1.4-0.5c-0.8,0-1.4,0.2-1.8,0.7
					c-0.4,0.5-0.6,1.3-0.6,2.4v4.5H138v-8.6h1.1l0.2,1.2h0.1c0.2-0.4,0.6-0.7,1-1s0.9-0.4,1.5-0.4c1.3,0,2.2,0.5,2.6,1.5h0.1
					c0.3-0.4,0.6-0.8,1.1-1.1s1-0.4,1.7-0.4c1,0,1.7,0.2,2.2,0.7c0.5,0.5,0.7,1.3,0.7,2.4v5.6H148.9z"/>
			</g>
			<g id="Arrow_down-2" transform="translate(16 36) rotate(-90)">
				<path id="Path_3872-2" class="st5" d="M0,0h24v24H0V0z"/>
				<path id="Path_3871-2" class="st6" d="M11.8,15.5c-0.2,0-0.4-0.1-0.6-0.2L6,10.1L7.1,9l4.7,4.7L16.4,9l1.1,1.1l-5.2,5.2
					C12.2,15.5,12,15.5,11.8,15.5z"/>
			</g>
			<g id="Checkbox-2" transform="translate(48 12)">
				<rect id="box-2" class="st5" width="24" height="24"/>
				<g id="BG-2" transform="translate(4 4)">
					<path class="st2" d="M2,0h12c1.1,0,2,0.9,2,2v12c0,1.1-0.9,2-2,2H2c-1.1,0-2-0.9-2-2V2C0,0.9,0.9,0,2,0z"/>
					<path class="st7" d="M2,1h12c0.6,0,1,0.4,1,1v12c0,0.6-0.4,1-1,1H2c-0.6,0-1-0.4-1-1V2C1,1.4,1.4,1,2,1z"/>
				</g>
			</g>
		</g>
		<g id="tree-item-checkbox-level_1-3" transform="translate(235 3799)">
			<rect id="Rectangle_3345-3" class="st2" width="320" height="48"/>
			<line id="bottom_border-2" class="st8" x1="0" y1="48.5" x2="320" y2="48.5"/>
			<g class="st3">
				<path class="st4" d="M179.1,30.2h-1.3V19.9h-3.6v-1.2h8.6v1.2h-3.6V30.2z"/>
				<path class="st4" d="M188.1,21.5c0.4,0,0.7,0,1,0.1l-0.2,1.2c-0.4-0.1-0.7-0.1-0.9-0.1c-0.7,0-1.3,0.3-1.8,0.8s-0.7,1.3-0.7,2.1
					v4.6h-1.3v-8.6h1.1l0.1,1.6h0.1c0.3-0.6,0.7-1,1.1-1.3C187.1,21.6,187.6,21.5,188.1,21.5z"/>
				<path class="st4" d="M194.4,30.3c-1.3,0-2.3-0.4-3-1.2c-0.7-0.8-1.1-1.8-1.1-3.2c0-1.4,0.3-2.5,1-3.3s1.6-1.2,2.7-1.2
					c1.1,0,1.9,0.4,2.5,1.1s0.9,1.6,0.9,2.8v0.8h-5.9c0,1,0.3,1.8,0.8,2.3c0.5,0.5,1.2,0.8,2,0.8c0.9,0,1.8-0.2,2.7-0.6v1.2
					c-0.5,0.2-0.9,0.3-1.3,0.4C195.4,30.3,195,30.3,194.4,30.3z M194,22.6c-0.7,0-1.2,0.2-1.6,0.7c-0.4,0.4-0.7,1.1-0.7,1.9h4.5
					c0-0.8-0.2-1.4-0.5-1.9C195.2,22.8,194.7,22.6,194,22.6z"/>
				<path class="st4" d="M203.4,30.3c-1.3,0-2.3-0.4-3-1.2c-0.7-0.8-1.1-1.8-1.1-3.2c0-1.4,0.3-2.5,1-3.3s1.6-1.2,2.7-1.2
					c1.1,0,1.9,0.4,2.5,1.1s0.9,1.6,0.9,2.8v0.8h-5.9c0,1,0.3,1.8,0.8,2.3c0.5,0.5,1.2,0.8,2,0.8c0.9,0,1.8-0.2,2.7-0.6v1.2
					c-0.5,0.2-0.9,0.3-1.3,0.4C204.4,30.3,203.9,30.3,203.4,30.3z M203,22.6c-0.7,0-1.2,0.2-1.6,0.7c-0.4,0.4-0.7,1.1-0.7,1.9h4.5
					c0-0.8-0.2-1.4-0.5-1.9C204.2,22.8,203.7,22.6,203,22.6z"/>
				<path class="st4" d="M213.1,30.2V18.8h1.3v11.4H213.1z"/>
				<path class="st4" d="M220.1,29.3c0.2,0,0.5,0,0.7-0.1c0.2,0,0.4-0.1,0.5-0.1v1c-0.1,0.1-0.3,0.1-0.6,0.2s-0.5,0.1-0.7,0.1
					c-1.7,0-2.5-0.9-2.5-2.6v-5.1h-1.2V22l1.2-0.5l0.5-1.8h0.8v2h2.5v1h-2.5v5c0,0.5,0.1,0.9,0.4,1.2
					C219.3,29.1,219.7,29.3,220.1,29.3z"/>
				<path class="st4" d="M226.6,30.3c-1.3,0-2.3-0.4-3-1.2c-0.7-0.8-1.1-1.8-1.1-3.2c0-1.4,0.3-2.5,1-3.3s1.6-1.2,2.7-1.2
					c1.1,0,1.9,0.4,2.5,1.1s0.9,1.6,0.9,2.8v0.8h-5.9c0,1,0.3,1.8,0.8,2.3c0.5,0.5,1.2,0.8,2,0.8c0.9,0,1.8-0.2,2.7-0.6v1.2
					c-0.5,0.2-0.9,0.3-1.3,0.4C227.7,30.3,227.2,30.3,226.6,30.3z M226.2,22.6c-0.7,0-1.2,0.2-1.6,0.7c-0.4,0.4-0.7,1.1-0.7,1.9h4.5
					c0-0.8-0.2-1.4-0.5-1.9C227.4,22.8,226.9,22.6,226.2,22.6z"/>
				<path class="st4" d="M242.9,30.2v-5.6c0-0.7-0.1-1.2-0.4-1.5c-0.3-0.3-0.7-0.5-1.4-0.5c-0.8,0-1.4,0.2-1.8,0.7
					c-0.4,0.5-0.6,1.2-0.6,2.1v4.8h-1.3v-5.6c0-0.7-0.1-1.2-0.4-1.5c-0.3-0.3-0.7-0.5-1.4-0.5c-0.8,0-1.4,0.2-1.8,0.7
					c-0.4,0.5-0.6,1.3-0.6,2.4v4.5H232v-8.6h1.1l0.2,1.2h0.1c0.2-0.4,0.6-0.7,1-1s0.9-0.4,1.5-0.4c1.3,0,2.2,0.5,2.6,1.5h0.1
					c0.3-0.4,0.6-0.8,1.1-1.1s1-0.4,1.7-0.4c1,0,1.7,0.2,2.2,0.7c0.5,0.5,0.7,1.3,0.7,2.4v5.6H242.9z"/>
			</g>
			<g id="Arrow_down-3" transform="translate(80 12)" class="st9">
				<path id="Path_3872-3" class="st5" d="M0,0h24v24H0V0z"/>
				<path id="Path_3871-3" class="st6" d="M11.8,15.5c-0.2,0-0.4-0.1-0.6-0.2L6,10.1L7.1,9l4.7,4.7L16.4,9l1.1,1.1l-5.2,5.2
					C12.2,15.5,12,15.5,11.8,15.5z"/>
			</g>
			<g id="Checkbox-3" transform="translate(142 12)">
				<rect id="box-3" class="st5" width="24" height="24"/>
				<g id="BG-3" transform="translate(4 4)">
					<path class="st2" d="M2,0h12c1.1,0,2,0.9,2,2v12c0,1.1-0.9,2-2,2H2c-1.1,0-2-0.9-2-2V2C0,0.9,0.9,0,2,0z"/>
					<path class="st7" d="M2,1h12c0.6,0,1,0.4,1,1v12c0,0.6-0.4,1-1,1H2c-0.6,0-1-0.4-1-1V2C1,1.4,1.4,1,2,1z"/>
				</g>
			</g>
		</g>
		<g id="tree-item-checkbox-level_1-4" transform="translate(235 3751)">
			<rect id="Rectangle_3345-4" class="st2" width="320" height="48"/>
			<g class="st3">
				<path class="st4" d="M179.1,30.2h-1.3V19.9h-3.6v-1.2h8.6v1.2h-3.6V30.2z"/>
				<path class="st4" d="M188.1,21.5c0.4,0,0.7,0,1,0.1l-0.2,1.2c-0.4-0.1-0.7-0.1-0.9-0.1c-0.7,0-1.3,0.3-1.8,0.8s-0.7,1.3-0.7,2.1
					v4.6h-1.3v-8.6h1.1l0.1,1.6h0.1c0.3-0.6,0.7-1,1.1-1.3C187.1,21.6,187.6,21.5,188.1,21.5z"/>
				<path class="st4" d="M194.4,30.3c-1.3,0-2.3-0.4-3-1.2c-0.7-0.8-1.1-1.8-1.1-3.2c0-1.4,0.3-2.5,1-3.3s1.6-1.2,2.7-1.2
					c1.1,0,1.9,0.4,2.5,1.1c0.6,0.7,0.9,1.6,0.9,2.8v0.8h-5.9c0,1,0.3,1.8,0.8,2.3c0.5,0.5,1.2,0.8,2,0.8c0.9,0,1.8-0.2,2.7-0.6v1.2
					c-0.5,0.2-0.9,0.3-1.3,0.4C195.4,30.3,195,30.3,194.4,30.3z M194,22.6c-0.7,0-1.2,0.2-1.6,0.7c-0.4,0.4-0.7,1.1-0.7,1.9h4.5
					c0-0.8-0.2-1.4-0.5-1.9C195.2,22.8,194.7,22.6,194,22.6z"/>
				<path class="st4" d="M203.4,30.3c-1.3,0-2.3-0.4-3-1.2c-0.7-0.8-1.1-1.8-1.1-3.2c0-1.4,0.3-2.5,1-3.3s1.6-1.2,2.7-1.2
					c1.1,0,1.9,0.4,2.5,1.1c0.6,0.7,0.9,1.6,0.9,2.8v0.8h-5.9c0,1,0.3,1.8,0.8,2.3c0.5,0.5,1.2,0.8,2,0.8c0.9,0,1.8-0.2,2.7-0.6v1.2
					c-0.5,0.2-0.9,0.3-1.3,0.4C204.4,30.3,203.9,30.3,203.4,30.3z M203,22.6c-0.7,0-1.2,0.2-1.6,0.7c-0.4,0.4-0.7,1.1-0.7,1.9h4.5
					c0-0.8-0.2-1.4-0.5-1.9C204.2,22.8,203.7,22.6,203,22.6z"/>
				<path class="st4" d="M213.1,30.2V18.8h1.3v11.4H213.1z"/>
				<path class="st4" d="M220.1,29.3c0.2,0,0.5,0,0.7-0.1c0.2,0,0.4-0.1,0.5-0.1v1c-0.1,0.1-0.3,0.1-0.6,0.2c-0.3,0-0.5,0.1-0.7,0.1
					c-1.7,0-2.5-0.9-2.5-2.6v-5.1h-1.2V22l1.2-0.5l0.5-1.8h0.8v2h2.5v1h-2.5v5c0,0.5,0.1,0.9,0.4,1.2
					C219.3,29.1,219.7,29.3,220.1,29.3z"/>
				<path class="st4" d="M226.6,30.3c-1.3,0-2.3-0.4-3-1.2c-0.7-0.8-1.1-1.8-1.1-3.2c0-1.4,0.3-2.5,1-3.3s1.6-1.2,2.7-1.2
					c1.1,0,1.9,0.4,2.5,1.1c0.6,0.7,0.9,1.6,0.9,2.8v0.8h-5.9c0,1,0.3,1.8,0.8,2.3c0.5,0.5,1.2,0.8,2,0.8c0.9,0,1.8-0.2,2.7-0.6v1.2
					c-0.5,0.2-0.9,0.3-1.3,0.4C227.7,30.3,227.2,30.3,226.6,30.3z M226.2,22.6c-0.7,0-1.2,0.2-1.6,0.7c-0.4,0.4-0.7,1.1-0.7,1.9h4.5
					c0-0.8-0.2-1.4-0.5-1.9C227.4,22.8,226.9,22.6,226.2,22.6z"/>
				<path class="st4" d="M242.9,30.2v-5.6c0-0.7-0.1-1.2-0.4-1.5c-0.3-0.3-0.7-0.5-1.4-0.5c-0.8,0-1.4,0.2-1.8,0.7
					c-0.4,0.5-0.6,1.2-0.6,2.1v4.8h-1.3v-5.6c0-0.7-0.1-1.2-0.4-1.5c-0.3-0.3-0.7-0.5-1.4-0.5c-0.8,0-1.4,0.2-1.8,0.7
					c-0.4,0.5-0.6,1.3-0.6,2.4v4.5H232v-8.6h1.1l0.2,1.2h0.1c0.2-0.4,0.6-0.7,1-1s0.9-0.4,1.5-0.4c1.3,0,2.2,0.5,2.6,1.5h0.1
					c0.3-0.4,0.6-0.8,1.1-1.1c0.5-0.3,1-0.4,1.7-0.4c1,0,1.7,0.2,2.2,0.7c0.5,0.5,0.7,1.3,0.7,2.4v5.6H242.9z"/>
			</g>
			<g id="Arrow_down-4" transform="translate(110 36) rotate(-90)" class="st9">
				<path id="Path_3872-4" class="st5" d="M0,0h24v24H0V0z"/>
				<path id="Path_3871-4" class="st6" d="M11.8,15.5c-0.2,0-0.4-0.1-0.6-0.2L6,10.1L7.1,9l4.7,4.7L16.4,9l1.1,1.1l-5.2,5.2
					C12.2,15.5,12,15.5,11.8,15.5z"/>
			</g>
			<g id="Checkbox-4" transform="translate(142 12)">
				<rect id="box-4" class="st5" width="24" height="24"/>
				<path id="BG-4" class="st10" d="M6,4h12c1.1,0,2,0.9,2,2v12c0,1.1-0.9,2-2,2H6c-1.1,0-2-0.9-2-2V6C4,4.9,4.9,4,6,4z"/>
				<path id="Check" class="st2" d="M10.4,16l-4-4l1.1-1.1l2.9,2.9l6.1-6.1l1.1,1.1L10.4,16z"/>
			</g>
		</g>
		<g id="tree-item-checkbox-level_1-5" transform="translate(235 3703)">
			<rect id="Rectangle_3345-5" class="st2" width="320" height="48"/>
			<g class="st3">
				<path class="st4" d="M179.1,30.2h-1.3V19.9h-3.6v-1.2h8.6v1.2h-3.6V30.2z"/>
				<path class="st4" d="M188.1,21.5c0.4,0,0.7,0,1,0.1l-0.2,1.2c-0.4-0.1-0.7-0.1-0.9-0.1c-0.7,0-1.3,0.3-1.8,0.8s-0.7,1.3-0.7,2.1
					v4.6h-1.3v-8.6h1.1l0.1,1.6h0.1c0.3-0.6,0.7-1,1.1-1.3C187.1,21.6,187.6,21.5,188.1,21.5z"/>
				<path class="st4" d="M194.4,30.3c-1.3,0-2.3-0.4-3-1.2c-0.7-0.8-1.1-1.8-1.1-3.2c0-1.4,0.3-2.5,1-3.3s1.6-1.2,2.7-1.2
					c1.1,0,1.9,0.4,2.5,1.1s0.9,1.6,0.9,2.8v0.8h-5.9c0,1,0.3,1.8,0.8,2.3c0.5,0.5,1.2,0.8,2,0.8c0.9,0,1.8-0.2,2.7-0.6v1.2
					c-0.5,0.2-0.9,0.3-1.3,0.4C195.4,30.3,195,30.3,194.4,30.3z M194,22.6c-0.7,0-1.2,0.2-1.6,0.7c-0.4,0.4-0.7,1.1-0.7,1.9h4.5
					c0-0.8-0.2-1.4-0.5-1.9C195.2,22.8,194.7,22.6,194,22.6z"/>
				<path class="st4" d="M203.4,30.3c-1.3,0-2.3-0.4-3-1.2c-0.7-0.8-1.1-1.8-1.1-3.2c0-1.4,0.3-2.5,1-3.3s1.6-1.2,2.7-1.2
					c1.1,0,1.9,0.4,2.5,1.1s0.9,1.6,0.9,2.8v0.8h-5.9c0,1,0.3,1.8,0.8,2.3c0.5,0.5,1.2,0.8,2,0.8c0.9,0,1.8-0.2,2.7-0.6v1.2
					c-0.5,0.2-0.9,0.3-1.3,0.4C204.4,30.3,203.9,30.3,203.4,30.3z M203,22.6c-0.7,0-1.2,0.2-1.6,0.7c-0.4,0.4-0.7,1.1-0.7,1.9h4.5
					c0-0.8-0.2-1.4-0.5-1.9C204.2,22.8,203.7,22.6,203,22.6z"/>
				<path class="st4" d="M213.1,30.2V18.8h1.3v11.4H213.1z"/>
				<path class="st4" d="M220.1,29.3c0.2,0,0.5,0,0.7-0.1c0.2,0,0.4-0.1,0.5-0.1v1c-0.1,0.1-0.3,0.1-0.6,0.2s-0.5,0.1-0.7,0.1
					c-1.7,0-2.5-0.9-2.5-2.6v-5.1h-1.2V22l1.2-0.5l0.5-1.8h0.8v2h2.5v1h-2.5v5c0,0.5,0.1,0.9,0.4,1.2
					C219.3,29.1,219.7,29.3,220.1,29.3z"/>
				<path class="st4" d="M226.6,30.3c-1.3,0-2.3-0.4-3-1.2c-0.7-0.8-1.1-1.8-1.1-3.2c0-1.4,0.3-2.5,1-3.3s1.6-1.2,2.7-1.2
					c1.1,0,1.9,0.4,2.5,1.1s0.9,1.6,0.9,2.8v0.8h-5.9c0,1,0.3,1.8,0.8,2.3c0.5,0.5,1.2,0.8,2,0.8c0.9,0,1.8-0.2,2.7-0.6v1.2
					c-0.5,0.2-0.9,0.3-1.3,0.4C227.7,30.3,227.2,30.3,226.6,30.3z M226.2,22.6c-0.7,0-1.2,0.2-1.6,0.7c-0.4,0.4-0.7,1.1-0.7,1.9h4.5
					c0-0.8-0.2-1.4-0.5-1.9C227.4,22.8,226.9,22.6,226.2,22.6z"/>
				<path class="st4" d="M242.9,30.2v-5.6c0-0.7-0.1-1.2-0.4-1.5c-0.3-0.3-0.7-0.5-1.4-0.5c-0.8,0-1.4,0.2-1.8,0.7
					c-0.4,0.5-0.6,1.2-0.6,2.1v4.8h-1.3v-5.6c0-0.7-0.1-1.2-0.4-1.5c-0.3-0.3-0.7-0.5-1.4-0.5c-0.8,0-1.4,0.2-1.8,0.7
					c-0.4,0.5-0.6,1.3-0.6,2.4v4.5H232v-8.6h1.1l0.2,1.2h0.1c0.2-0.4,0.6-0.7,1-1s0.9-0.4,1.5-0.4c1.3,0,2.2,0.5,2.6,1.5h0.1
					c0.3-0.4,0.6-0.8,1.1-1.1s1-0.4,1.7-0.4c1,0,1.7,0.2,2.2,0.7c0.5,0.5,0.7,1.3,0.7,2.4v5.6H242.9z"/>
			</g>
			<g id="Arrow_down-5" transform="translate(80 12)" class="st9">
				<path id="Path_3872-5" class="st5" d="M0,0h24v24H0V0z"/>
				<path id="Path_3871-5" class="st6" d="M11.8,15.5c-0.2,0-0.4-0.1-0.6-0.2L6,10.1L7.1,9l4.7,4.7L16.4,9l1.1,1.1l-5.2,5.2
					C12.2,15.5,12,15.5,11.8,15.5z"/>
			</g>
			<g id="Checkbox-5" transform="translate(142 12)">
				<rect id="box-5" class="st5" width="24" height="24"/>
				<g id="BG-5" transform="translate(4 4)">
					<path class="st2" d="M2,0h12c1.1,0,2,0.9,2,2v12c0,1.1-0.9,2-2,2H2c-1.1,0-2-0.9-2-2V2C0,0.9,0.9,0,2,0z"/>
					<path class="st7" d="M2,1h12c0.6,0,1,0.4,1,1v12c0,0.6-0.4,1-1,1H2c-0.6,0-1-0.4-1-1V2C1,1.4,1.4,1,2,1z"/>
				</g>
			</g>
		</g>
		<g id="tree-item-checkbox-level_1-6" transform="translate(235 3655)">
			<rect id="Rectangle_3345-6" class="st11" width="320" height="48"/>
			<g class="st3">
				<path class="st4" d="M149.1,30.2h-1.3V19.9h-3.6v-1.2h8.6v1.2h-3.6V30.2z"/>
				<path class="st4" d="M158.1,21.5c0.4,0,0.7,0,1,0.1l-0.2,1.2c-0.4-0.1-0.7-0.1-0.9-0.1c-0.7,0-1.3,0.3-1.8,0.8s-0.7,1.3-0.7,2.1
					v4.6h-1.3v-8.6h1.1l0.1,1.6h0.1c0.3-0.6,0.7-1,1.1-1.3C157.1,21.6,157.6,21.5,158.1,21.5z"/>
				<path class="st4" d="M164.4,30.3c-1.3,0-2.3-0.4-3-1.2c-0.7-0.8-1.1-1.8-1.1-3.2c0-1.4,0.3-2.5,1-3.3s1.6-1.2,2.7-1.2
					c1.1,0,1.9,0.4,2.5,1.1s0.9,1.6,0.9,2.8v0.8h-5.9c0,1,0.3,1.8,0.8,2.3c0.5,0.5,1.2,0.8,2,0.8c0.9,0,1.8-0.2,2.7-0.6v1.2
					c-0.5,0.2-0.9,0.3-1.3,0.4C165.4,30.3,165,30.3,164.4,30.3z M164,22.6c-0.7,0-1.2,0.2-1.6,0.7c-0.4,0.4-0.6,1.1-0.7,1.9h4.5
					c0-0.8-0.2-1.4-0.5-1.9C165.2,22.8,164.7,22.6,164,22.6z"/>
				<path class="st4" d="M173.4,30.3c-1.3,0-2.3-0.4-3-1.2c-0.7-0.8-1.1-1.8-1.1-3.2c0-1.4,0.3-2.5,1-3.3s1.6-1.2,2.7-1.2
					c1.1,0,1.9,0.4,2.5,1.1s0.9,1.6,0.9,2.8v0.8h-5.9c0,1,0.3,1.8,0.8,2.3c0.5,0.5,1.2,0.8,2,0.8c0.9,0,1.8-0.2,2.7-0.6v1.2
					c-0.5,0.2-0.9,0.3-1.3,0.4C174.4,30.3,173.9,30.3,173.4,30.3z M173,22.6c-0.7,0-1.2,0.2-1.6,0.7c-0.4,0.4-0.6,1.1-0.7,1.9h4.5
					c0-0.8-0.2-1.4-0.5-1.9C174.2,22.8,173.7,22.6,173,22.6z"/>
				<path class="st4" d="M183.1,30.2V18.8h1.3v11.4H183.1z"/>
				<path class="st4" d="M190.1,29.3c0.2,0,0.5,0,0.7-0.1c0.2,0,0.4-0.1,0.5-0.1v1c-0.1,0.1-0.3,0.1-0.6,0.2s-0.5,0.1-0.7,0.1
					c-1.7,0-2.5-0.9-2.5-2.6v-5.1h-1.2V22l1.2-0.5l0.5-1.8h0.8v2h2.5v1h-2.5v5c0,0.5,0.1,0.9,0.4,1.2
					C189.3,29.1,189.7,29.3,190.1,29.3z"/>
				<path class="st4" d="M196.6,30.3c-1.3,0-2.3-0.4-3-1.2c-0.7-0.8-1.1-1.8-1.1-3.2c0-1.4,0.3-2.5,1-3.3s1.6-1.2,2.7-1.2
					c1.1,0,1.9,0.4,2.5,1.1s0.9,1.6,0.9,2.8v0.8h-5.9c0,1,0.3,1.8,0.8,2.3c0.5,0.5,1.2,0.8,2,0.8c0.9,0,1.8-0.2,2.7-0.6v1.2
					c-0.5,0.2-0.9,0.3-1.3,0.4C197.7,30.3,197.2,30.3,196.6,30.3z M196.2,22.6c-0.7,0-1.2,0.2-1.6,0.7c-0.4,0.4-0.7,1.1-0.7,1.9h4.5
					c0-0.8-0.2-1.4-0.5-1.9C197.4,22.8,196.9,22.6,196.2,22.6z"/>
				<path class="st4" d="M212.9,30.2v-5.6c0-0.7-0.1-1.2-0.4-1.5c-0.3-0.3-0.7-0.5-1.4-0.5c-0.8,0-1.4,0.2-1.8,0.7
					c-0.4,0.5-0.6,1.2-0.6,2.1v4.8h-1.3v-5.6c0-0.7-0.1-1.2-0.4-1.5c-0.3-0.3-0.7-0.5-1.4-0.5c-0.8,0-1.4,0.2-1.8,0.7
					c-0.4,0.5-0.6,1.3-0.6,2.4v4.5H202v-8.6h1.1l0.2,1.2h0.1c0.2-0.4,0.6-0.7,1-1s0.9-0.4,1.5-0.4c1.3,0,2.2,0.5,2.6,1.5h0.1
					c0.3-0.4,0.6-0.8,1.1-1.1s1-0.4,1.7-0.4c1,0,1.7,0.2,2.2,0.7c0.5,0.5,0.7,1.3,0.7,2.4v5.6H212.9z"/>
				<path class="st4" d="M223.8,29.3c0.2,0,0.5,0,0.7-0.1c0.2,0,0.4-0.1,0.5-0.1v1c-0.1,0.1-0.3,0.1-0.6,0.2s-0.5,0.1-0.7,0.1
					c-1.7,0-2.5-0.9-2.5-2.6v-5.1h-1.2V22l1.2-0.5l0.5-1.8h0.8v2h2.5v1h-2.5v5c0,0.5,0.1,0.9,0.4,1.2
					C223,29.1,223.3,29.3,223.8,29.3z"/>
				<path class="st4" d="M232.5,30.2v-5.5c0-0.7-0.2-1.2-0.5-1.6c-0.3-0.3-0.8-0.5-1.5-0.5c-0.9,0-1.6,0.2-2,0.7s-0.6,1.3-0.6,2.4
					v4.5h-1.3V18h1.3v3.7c0,0.4,0,0.8-0.1,1.1h0.1c0.3-0.4,0.6-0.7,1.1-1c0.5-0.2,1-0.4,1.6-0.4c1,0,1.8,0.2,2.4,0.7
					s0.8,1.3,0.8,2.4v5.6H232.5z"/>
				<path class="st4" d="M241.7,30.2l-0.3-1.2h-0.1c-0.4,0.5-0.9,0.9-1.3,1.1c-0.4,0.2-1,0.3-1.6,0.3c-0.8,0-1.5-0.2-2-0.7
					c-0.5-0.4-0.7-1.1-0.7-1.9c0-1.7,1.4-2.6,4.1-2.7l1.5,0v-0.5c0-0.7-0.1-1.2-0.4-1.5s-0.8-0.5-1.4-0.5c-0.7,0-1.5,0.2-2.4,0.7
					l-0.4-1c0.4-0.2,0.9-0.4,1.4-0.5c0.5-0.1,1-0.2,1.5-0.2c1,0,1.8,0.2,2.3,0.7s0.7,1.2,0.7,2.2v5.8H241.7z M238.8,29.3
					c0.8,0,1.4-0.2,1.9-0.7s0.7-1.1,0.7-1.9V26l-1.3,0.1c-1,0-1.8,0.2-2.2,0.5c-0.5,0.3-0.7,0.7-0.7,1.3c0,0.5,0.1,0.8,0.4,1.1
					C237.9,29.2,238.3,29.3,238.8,29.3z"/>
				<path class="st4" d="M248.1,29.3c0.2,0,0.5,0,0.7-0.1c0.2,0,0.4-0.1,0.5-0.1v1c-0.1,0.1-0.3,0.1-0.6,0.2s-0.5,0.1-0.7,0.1
					c-1.7,0-2.5-0.9-2.5-2.6v-5.1h-1.2V22l1.2-0.5l0.5-1.8h0.8v2h2.5v1h-2.5v5c0,0.5,0.1,0.9,0.4,1.2
					C247.4,29.1,247.7,29.3,248.1,29.3z"/>
				<path class="st4" d="M261,30.2v-5.5c0-0.7-0.2-1.2-0.5-1.6c-0.3-0.3-0.8-0.5-1.5-0.5c-0.9,0-1.6,0.2-2,0.7s-0.6,1.3-0.6,2.4v4.5
					h-1.3V18h1.3v3.7c0,0.4,0,0.8-0.1,1.1h0.1c0.3-0.4,0.6-0.7,1.1-1c0.5-0.2,1-0.4,1.6-0.4c1,0,1.8,0.2,2.4,0.7s0.8,1.3,0.8,2.4
					v5.6H261z"/>
				<path class="st4" d="M270.2,30.2L270,29h-0.1c-0.4,0.5-0.9,0.9-1.3,1.1c-0.4,0.2-1,0.3-1.6,0.3c-0.8,0-1.5-0.2-2-0.7
					c-0.5-0.4-0.7-1.1-0.7-1.9c0-1.7,1.4-2.6,4.1-2.7l1.5,0v-0.5c0-0.7-0.1-1.2-0.4-1.5s-0.8-0.5-1.4-0.5c-0.7,0-1.5,0.2-2.4,0.7
					l-0.4-1c0.4-0.2,0.9-0.4,1.4-0.5c0.5-0.1,1-0.2,1.5-0.2c1,0,1.8,0.2,2.3,0.7s0.7,1.2,0.7,2.2v5.8H270.2z M267.3,29.3
					c0.8,0,1.4-0.2,1.9-0.7s0.7-1.1,0.7-1.9V26l-1.3,0.1c-1,0-1.8,0.2-2.2,0.5c-0.5,0.3-0.7,0.7-0.7,1.3c0,0.5,0.1,0.8,0.4,1.1
					C266.4,29.2,266.8,29.3,267.3,29.3z"/>
				<path class="st4" d="M273.7,29.4c0-0.3,0.1-0.6,0.2-0.8c0.2-0.2,0.4-0.3,0.7-0.3c0.3,0,0.5,0.1,0.7,0.3c0.2,0.2,0.3,0.4,0.3,0.8
					c0,0.3-0.1,0.6-0.3,0.8s-0.4,0.3-0.7,0.3c-0.3,0-0.5-0.1-0.7-0.2C273.8,30,273.7,29.7,273.7,29.4z"/>
				<path class="st4" d="M278,29.4c0-0.3,0.1-0.6,0.2-0.8c0.2-0.2,0.4-0.3,0.7-0.3c0.3,0,0.5,0.1,0.7,0.3c0.2,0.2,0.3,0.4,0.3,0.8
					c0,0.3-0.1,0.6-0.3,0.8s-0.4,0.3-0.7,0.3c-0.3,0-0.5-0.1-0.7-0.2C278,30,278,29.7,278,29.4z"/>
				<path class="st4" d="M282.2,29.4c0-0.3,0.1-0.6,0.2-0.8c0.2-0.2,0.4-0.3,0.7-0.3c0.3,0,0.5,0.1,0.7,0.3c0.2,0.2,0.3,0.4,0.3,0.8
					c0,0.3-0.1,0.6-0.3,0.8s-0.4,0.3-0.7,0.3c-0.3,0-0.5-0.1-0.7-0.2C282.3,30,282.2,29.7,282.2,29.4z"/>
			</g>
			<g id="Arrow_down-6" transform="translate(80 12)">
				<path id="Path_3872-6" class="st5" d="M0,0h24v24H0V0z"/>
				<path id="Path_3871-6" class="st6" d="M11.8,15.5c-0.2,0-0.4-0.1-0.6-0.2L6,10.1L7.1,9l4.7,4.7L16.4,9l1.1,1.1l-5.2,5.2
					C12.2,15.5,12,15.5,11.8,15.5z"/>
			</g>
			<g id="Checkbox-6" transform="translate(112 12)">
				<rect id="box-6" class="st5" width="24" height="24"/>
				<g id="BG-6" transform="translate(4 4)">
					<path class="st2" d="M2,0h12c1.1,0,2,0.9,2,2v12c0,1.1-0.9,2-2,2H2c-1.1,0-2-0.9-2-2V2C0,0.9,0.9,0,2,0z"/>
					<path class="st7" d="M2,1h12c0.6,0,1,0.4,1,1v12c0,0.6-0.4,1-1,1H2c-0.6,0-1-0.4-1-1V2C1,1.4,1.4,1,2,1z"/>
				</g>
			</g>
		</g>
		<g id="tree-item-checkbox-level_1-7" transform="translate(235 3607)">
			<rect id="Rectangle_3345-7" class="st2" width="320" height="48"/>
			<g class="st3">
				<path class="st4" d="M117.5,30.2h-1.9v-9.8h-3.4v-1.6h8.6v1.6h-3.4V30.2z"/>
				<path class="st4" d="M126.8,21.4c0.4,0,0.7,0,0.9,0.1l-0.2,1.7c-0.3-0.1-0.5-0.1-0.8-0.1c-0.7,0-1.3,0.2-1.8,0.7
					c-0.5,0.5-0.7,1.1-0.7,1.9v4.5h-1.8v-8.6h1.4l0.2,1.5h0.1c0.3-0.5,0.7-0.9,1.1-1.2S126.2,21.4,126.8,21.4z"/>
				<path class="st4" d="M133,30.3c-1.3,0-2.4-0.4-3.2-1.2s-1.1-1.9-1.1-3.2c0-1.4,0.4-2.5,1.1-3.3s1.7-1.2,2.9-1.2
					c1.1,0,2,0.3,2.7,1c0.7,0.7,1,1.6,1,2.9v1h-5.8c0,0.8,0.3,1.5,0.7,1.9c0.4,0.5,1,0.7,1.8,0.7c0.5,0,1,0,1.4-0.1
					c0.4-0.1,0.9-0.3,1.4-0.5v1.5c-0.4,0.2-0.9,0.4-1.4,0.5C134.2,30.3,133.6,30.3,133,30.3z M132.7,22.8c-0.6,0-1.1,0.2-1.4,0.6
					s-0.6,0.9-0.6,1.6h3.9c0-0.7-0.2-1.3-0.5-1.6C133.7,23,133.3,22.8,132.7,22.8z"/>
				<path class="st4" d="M142.3,30.3c-1.3,0-2.4-0.4-3.2-1.2s-1.1-1.9-1.1-3.2c0-1.4,0.4-2.5,1.1-3.3s1.7-1.2,2.9-1.2
					c1.1,0,2,0.3,2.7,1c0.7,0.7,1,1.6,1,2.9v1h-5.8c0,0.8,0.3,1.5,0.7,1.9c0.4,0.5,1,0.7,1.8,0.7c0.5,0,1,0,1.4-0.1
					c0.4-0.1,0.9-0.3,1.4-0.5v1.5c-0.4,0.2-0.9,0.4-1.4,0.5C143.4,30.3,142.8,30.3,142.3,30.3z M141.9,22.8c-0.6,0-1.1,0.2-1.4,0.6
					s-0.6,0.9-0.6,1.6h3.9c0-0.7-0.2-1.3-0.5-1.6C143,23,142.5,22.8,141.9,22.8z"/>
				<path class="st4" d="M152.1,30.2V18.8h1.9v11.4H152.1z"/>
				<path class="st4" d="M160,28.9c0.4,0,0.9-0.1,1.3-0.2V30c-0.2,0.1-0.5,0.2-0.8,0.2s-0.7,0.1-1,0.1c-1.7,0-2.6-0.9-2.6-2.8v-4.7
					h-1.2v-0.8l1.3-0.7l0.6-1.8h1.1v1.9h2.5v1.4h-2.5v4.6c0,0.4,0.1,0.8,0.3,1C159.3,28.8,159.6,28.9,160,28.9z"/>
				<path class="st4" d="M166.8,30.3c-1.3,0-2.4-0.4-3.2-1.2s-1.1-1.9-1.1-3.2c0-1.4,0.4-2.5,1.1-3.3s1.7-1.2,2.9-1.2
					c1.1,0,2,0.3,2.7,1c0.7,0.7,1,1.6,1,2.9v1h-5.8c0,0.8,0.3,1.5,0.7,1.9c0.4,0.5,1,0.7,1.8,0.7c0.5,0,1,0,1.4-0.1
					c0.4-0.1,0.9-0.3,1.4-0.5v1.5c-0.4,0.2-0.9,0.4-1.4,0.5C167.9,30.3,167.4,30.3,166.8,30.3z M166.5,22.8c-0.6,0-1.1,0.2-1.4,0.6
					s-0.6,0.9-0.6,1.6h3.9c0-0.7-0.2-1.3-0.5-1.6C167.5,23,167.1,22.8,166.5,22.8z"/>
				<path class="st4" d="M179.5,30.2h-1.8v-5.3c0-0.7-0.1-1.2-0.4-1.5s-0.6-0.5-1.2-0.5c-0.7,0-1.2,0.2-1.6,0.7
					c-0.3,0.5-0.5,1.2-0.5,2.3v4.3h-1.8v-8.6h1.4l0.3,1.1h0.1c0.2-0.4,0.6-0.7,1-1c0.5-0.2,1-0.3,1.5-0.3c1.3,0,2.2,0.5,2.6,1.4h0.1
					c0.3-0.4,0.6-0.8,1.1-1c0.5-0.2,1-0.4,1.6-0.4c1,0,1.8,0.3,2.3,0.8c0.5,0.5,0.7,1.3,0.7,2.4v5.6h-1.8v-5.3
					c0-0.7-0.1-1.2-0.4-1.5c-0.3-0.3-0.6-0.5-1.2-0.5c-0.7,0-1.2,0.2-1.6,0.7c-0.3,0.4-0.5,1.1-0.5,2.1V30.2z"/>
			</g>
			<g id="Arrow_down-7" transform="translate(48 12)">
				<path id="Path_3872-7" class="st5" d="M0,0h24v24H0V0z"/>
				<path id="Path_3871-7" class="st6" d="M11.8,15.5c-0.2,0-0.4-0.1-0.6-0.2L6,10.1L7.1,9l4.7,4.7L16.4,9l1.1,1.1l-5.2,5.2
					C12.2,15.5,12,15.5,11.8,15.5z"/>
			</g>
			<g id="Checkbox-7" transform="translate(80 12)">
				<rect id="box-7" class="st5" width="24" height="24"/>
				<g id="BG-7" transform="translate(4 4)">
					<path class="st2" d="M2,0h12c1.1,0,2,0.9,2,2v12c0,1.1-0.9,2-2,2H2c-1.1,0-2-0.9-2-2V2C0,0.9,0.9,0,2,0z"/>
					<path class="st7" d="M2,1h12c0.6,0,1,0.4,1,1v12c0,0.6-0.4,1-1,1H2c-0.6,0-1-0.4-1-1V2C1,1.4,1.4,1,2,1z"/>
				</g>
			</g>
		</g>
		<g id="tree-item-checkbox-level_1-8" transform="translate(235 3559)">
			<rect id="Rectangle_3345-8" class="st2" width="320" height="48"/>
			<line id="top_border-2" class="st8" x1="0" y1="0.5" x2="320" y2="0.5"/>
			<g class="st3">
				<path class="st4" d="M85.8,30.2h-2.4v-9.4h-3.1v-2h8.6v2h-3.1V30.2z"/>
				<path class="st4" d="M95.4,21.3c0.3,0,0.6,0,0.8,0.1L96,23.6c-0.2-0.1-0.4-0.1-0.7-0.1c-0.8,0-1.4,0.2-1.8,0.6
					c-0.4,0.4-0.6,0.9-0.6,1.6v4.4h-2.4v-8.7h1.8l0.4,1.5h0.1c0.3-0.5,0.6-0.9,1.1-1.2S94.8,21.3,95.4,21.3z"/>
				<path class="st4" d="M101.7,30.3c-1.4,0-2.5-0.4-3.3-1.2c-0.8-0.8-1.2-1.9-1.2-3.3c0-1.5,0.4-2.6,1.1-3.4c0.7-0.8,1.7-1.2,3-1.2
					c1.2,0,2.2,0.4,2.9,1.1s1,1.7,1,2.9v1.2h-5.6c0,0.7,0.2,1.2,0.6,1.6s0.9,0.6,1.6,0.6c0.5,0,1-0.1,1.5-0.2s1-0.3,1.5-0.5v1.8
					c-0.4,0.2-0.9,0.4-1.3,0.5C103,30.3,102.4,30.3,101.7,30.3z M101.4,23c-0.5,0-0.9,0.2-1.2,0.5c-0.3,0.3-0.5,0.8-0.5,1.4h3.3
					c0-0.6-0.2-1-0.5-1.4S101.9,23,101.4,23z"/>
				<path class="st4" d="M111.2,30.3c-1.4,0-2.5-0.4-3.3-1.2c-0.8-0.8-1.2-1.9-1.2-3.3c0-1.5,0.4-2.6,1.1-3.4c0.7-0.8,1.7-1.2,3-1.2
					c1.2,0,2.2,0.4,2.9,1.1s1,1.7,1,2.9v1.2h-5.6c0,0.7,0.2,1.2,0.6,1.6s0.9,0.6,1.6,0.6c0.5,0,1-0.1,1.5-0.2s1-0.3,1.5-0.5v1.8
					c-0.4,0.2-0.9,0.4-1.3,0.5C112.4,30.3,111.9,30.3,111.2,30.3z M110.9,23c-0.5,0-0.9,0.2-1.2,0.5c-0.3,0.3-0.5,0.8-0.5,1.4h3.3
					c0-0.6-0.2-1-0.5-1.4S111.4,23,110.9,23z"/>
				<path class="st4" d="M121,30.2V18.8h2.4v11.4H121z"/>
				<path class="st4" d="M129.8,28.4c0.4,0,0.9-0.1,1.5-0.3v1.8c-0.6,0.3-1.3,0.4-2.2,0.4c-1,0-1.6-0.2-2.1-0.7
					c-0.4-0.5-0.7-1.2-0.7-2.2v-4.2h-1.1v-1l1.3-0.8l0.7-1.8h1.5v1.9h2.4v1.8h-2.4v4.2c0,0.3,0.1,0.6,0.3,0.8
					C129.3,28.4,129.5,28.4,129.8,28.4z"/>
				<path class="st4" d="M137,30.3c-1.4,0-2.5-0.4-3.3-1.2c-0.8-0.8-1.2-1.9-1.2-3.3c0-1.5,0.4-2.6,1.1-3.4c0.7-0.8,1.7-1.2,3-1.2
					c1.2,0,2.2,0.4,2.9,1.1s1,1.7,1,2.9v1.2H135c0,0.7,0.2,1.2,0.6,1.6s0.9,0.6,1.6,0.6c0.5,0,1-0.1,1.5-0.2s1-0.3,1.5-0.5v1.8
					c-0.4,0.2-0.9,0.4-1.3,0.5C138.3,30.3,137.7,30.3,137,30.3z M136.7,23c-0.5,0-0.9,0.2-1.2,0.5c-0.3,0.3-0.5,0.8-0.5,1.4h3.3
					c0-0.6-0.2-1-0.5-1.4S137.2,23,136.7,23z"/>
				<path class="st4" d="M150.4,30.2H148v-5.1c0-0.6-0.1-1.1-0.3-1.4s-0.5-0.5-1-0.5c-0.6,0-1.1,0.2-1.3,0.7
					c-0.3,0.4-0.4,1.2-0.4,2.2v4.1h-2.4v-8.7h1.8l0.3,1.1h0.1c0.2-0.4,0.6-0.7,1-0.9c0.4-0.2,1-0.3,1.5-0.3c1.3,0,2.2,0.4,2.7,1.3
					h0.2c0.2-0.4,0.6-0.7,1-0.9c0.5-0.2,1-0.3,1.5-0.3c1,0,1.7,0.3,2.2,0.8s0.8,1.3,0.8,2.4v5.7h-2.4v-5.1c0-0.6-0.1-1.1-0.3-1.4
					s-0.5-0.5-1-0.5c-0.6,0-1,0.2-1.3,0.6s-0.4,1.1-0.4,2V30.2z"/>
				<path class="st4" d="M169.2,30.2h-6.6V18.8h6.6v2H165v2.5h3.9v2H165v2.9h4.2V30.2z"/>
				<path class="st4" d="M173.2,25.7l-2.8-4.3h2.7l1.7,2.8l1.7-2.8h2.7l-2.8,4.3l3,4.5h-2.7l-1.8-3l-1.8,3h-2.7L173.2,25.7z"/>
				<path class="st4" d="M185.4,30.3c-1,0-1.8-0.4-2.4-1.1h-0.1c0.1,0.7,0.1,1.2,0.1,1.3V34h-2.4V21.5h1.9l0.3,1.1h0.1
					c0.6-0.9,1.4-1.3,2.5-1.3c1,0,1.8,0.4,2.4,1.2c0.6,0.8,0.9,1.9,0.9,3.3c0,0.9-0.1,1.7-0.4,2.4s-0.7,1.2-1.2,1.6
					C186.7,30.2,186.1,30.3,185.4,30.3z M184.7,23.2c-0.6,0-1,0.2-1.3,0.5c-0.3,0.4-0.4,1-0.4,1.8v0.3c0,0.9,0.1,1.6,0.4,2
					c0.3,0.4,0.7,0.6,1.3,0.6c1.1,0,1.6-0.9,1.6-2.6c0-0.9-0.1-1.5-0.4-1.9C185.7,23.4,185.3,23.2,184.7,23.2z"/>
				<path class="st4" d="M196.3,30.2l-0.5-1.2h-0.1c-0.4,0.5-0.8,0.9-1.2,1.1c-0.4,0.2-1,0.3-1.7,0.3c-0.8,0-1.5-0.2-2-0.7
					c-0.5-0.5-0.7-1.2-0.7-2c0-0.9,0.3-1.6,1-2.1s1.6-0.7,2.9-0.7l1.5,0v-0.4c0-0.9-0.5-1.3-1.4-1.3c-0.7,0-1.5,0.2-2.5,0.6
					l-0.8-1.6c1-0.5,2.1-0.8,3.3-0.8c1.2,0,2.1,0.3,2.7,0.8s0.9,1.3,0.9,2.3v5.8H196.3z M195.6,26.1l-0.9,0c-0.7,0-1.2,0.1-1.5,0.4
					c-0.3,0.2-0.5,0.6-0.5,1c0,0.7,0.4,1,1.2,1c0.6,0,1-0.2,1.3-0.5c0.3-0.3,0.5-0.7,0.5-1.3V26.1z"/>
				<path class="st4" d="M208.5,30.2h-2.4v-5.1c0-0.6-0.1-1.1-0.3-1.4c-0.2-0.3-0.6-0.5-1.1-0.5c-0.7,0-1.1,0.2-1.4,0.7
					s-0.4,1.2-0.4,2.2v4.1h-2.4v-8.7h1.8l0.3,1.1h0.1c0.3-0.4,0.6-0.7,1.1-1c0.5-0.2,1-0.3,1.6-0.3c1,0,1.8,0.3,2.3,0.8
					c0.5,0.5,0.8,1.3,0.8,2.4V30.2z"/>
				<path class="st4" d="M213.7,30.3c-1,0-1.8-0.4-2.4-1.2s-0.9-1.9-0.9-3.3c0-1.4,0.3-2.5,0.9-3.3c0.6-0.8,1.4-1.2,2.5-1.2
					c1.1,0,1.9,0.4,2.5,1.3h0.1c-0.1-0.7-0.2-1.2-0.2-1.7V18h2.4v12.2h-1.8l-0.5-1.1h-0.1C215.6,29.9,214.8,30.3,213.7,30.3z
					 M214.5,28.4c0.6,0,1.1-0.2,1.3-0.5c0.3-0.4,0.4-1,0.5-1.8v-0.3c0-0.9-0.1-1.6-0.4-2s-0.8-0.6-1.4-0.6c-0.5,0-0.9,0.2-1.2,0.7
					c-0.3,0.5-0.4,1.1-0.4,2s0.1,1.5,0.4,1.9S214,28.4,214.5,28.4z"/>
				<path class="st4" d="M225,30.3c-1.4,0-2.5-0.4-3.3-1.2c-0.8-0.8-1.2-1.9-1.2-3.3c0-1.5,0.4-2.6,1.1-3.4c0.7-0.8,1.7-1.2,3-1.2
					c1.2,0,2.2,0.4,2.9,1.1s1,1.7,1,2.9v1.2h-5.6c0,0.7,0.2,1.2,0.6,1.6s0.9,0.6,1.6,0.6c0.5,0,1-0.1,1.5-0.2s1-0.3,1.5-0.5v1.8
					c-0.4,0.2-0.9,0.4-1.3,0.5C226.3,30.3,225.7,30.3,225,30.3z M224.7,23c-0.5,0-0.9,0.2-1.2,0.5c-0.3,0.3-0.5,0.8-0.5,1.4h3.3
					c0-0.6-0.2-1-0.5-1.4S225.2,23,224.7,23z"/>
				<path class="st4" d="M233.3,30.3c-1,0-1.8-0.4-2.4-1.2s-0.9-1.9-0.9-3.3c0-1.4,0.3-2.5,0.9-3.3c0.6-0.8,1.4-1.2,2.5-1.2
					c1.1,0,1.9,0.4,2.5,1.3h0.1c-0.1-0.7-0.2-1.2-0.2-1.7V18h2.4v12.2h-1.8l-0.5-1.1h-0.1C235.2,29.9,234.4,30.3,233.3,30.3z
					 M234.1,28.4c0.6,0,1.1-0.2,1.3-0.5c0.3-0.4,0.4-1,0.5-1.8v-0.3c0-0.9-0.1-1.6-0.4-2s-0.8-0.6-1.4-0.6c-0.5,0-0.9,0.2-1.2,0.7
					c-0.3,0.5-0.4,1.1-0.4,2s0.1,1.5,0.4,1.9S233.5,28.4,234.1,28.4z"/>
			</g>
			<g id="Arrow_down-8" transform="translate(16 12)">
				<path id="Path_3872-8" class="st5" d="M0,0h24v24H0V0z"/>
				<path id="Path_3871-8" class="st6" d="M11.8,15.5c-0.2,0-0.4-0.1-0.6-0.2L6,10.1L7.1,9l4.7,4.7L16.4,9l1.1,1.1l-5.2,5.2
					C12.2,15.5,12,15.5,11.8,15.5z"/>
			</g>
			<g id="Checkbox-8" transform="translate(48 12)">
				<rect id="box-8" class="st5" width="24" height="24"/>
				<g id="BG-8" transform="translate(4 4)">
					<path class="st2" d="M2,0h12c1.1,0,2,0.9,2,2v12c0,1.1-0.9,2-2,2H2c-1.1,0-2-0.9-2-2V2C0,0.9,0.9,0,2,0z"/>
					<path class="st7" d="M2,1h12c0.6,0,1,0.4,1,1v12c0,0.6-0.4,1-1,1H2c-0.6,0-1-0.4-1-1V2C1,1.4,1.4,1,2,1z"/>
				</g>
			</g>
		</g>
	</g>
	<g id="Tooltip" transform="translate(286 116)">
		<g id="Arrow" transform="translate(-890 -1159)">
			<path id="Rectangle_1845" class="st12" d="M892,1159h352c1.1,0,2,0.9,2,2v22.5c0,1.1-0.9,2-2,2H892c-1.1,0-2-0.9-2-2V1161
				C890,1159.9,890.9,1159,892,1159z"/>
			<path id="Polygon_1" class="st12" d="M1068,1192l-6-8h12L1068,1192z"/>
		</g>
		<g class="st3">
			<path class="st2" d="M11.6,17h-1V9.3H7.9V8.4h6.4v0.9h-2.7V17z"/>
			<path class="st2" d="M18.4,10.5c0.3,0,0.5,0,0.8,0.1l-0.1,0.9c-0.3-0.1-0.5-0.1-0.7-0.1c-0.5,0-1,0.2-1.3,0.6s-0.6,0.9-0.6,1.6
				V17h-1v-6.4h0.8l0.1,1.2h0c0.2-0.4,0.5-0.7,0.9-1S18,10.5,18.4,10.5z"/>
			<path class="st2" d="M23.1,17.1c-0.9,0-1.7-0.3-2.2-0.9S20,14.9,20,13.8c0-1,0.3-1.9,0.8-2.5s1.2-0.9,2.1-0.9
				c0.8,0,1.4,0.3,1.9,0.8s0.7,1.2,0.7,2.1V14h-4.4c0,0.8,0.2,1.3,0.6,1.7s0.9,0.6,1.5,0.6c0.7,0,1.4-0.1,2.1-0.4v0.9
				c-0.3,0.1-0.7,0.3-1,0.3S23.5,17.1,23.1,17.1z M22.8,11.3c-0.5,0-0.9,0.2-1.2,0.5s-0.5,0.8-0.5,1.4h3.4c0-0.6-0.1-1.1-0.4-1.4
				S23.4,11.3,22.8,11.3z"/>
			<path class="st2" d="M29.8,17.1c-0.9,0-1.7-0.3-2.2-0.9s-0.8-1.4-0.8-2.4c0-1,0.3-1.9,0.8-2.5s1.2-0.9,2.1-0.9
				c0.8,0,1.4,0.3,1.9,0.8s0.7,1.2,0.7,2.1V14h-4.4c0,0.8,0.2,1.3,0.6,1.7s0.9,0.6,1.5,0.6c0.7,0,1.4-0.1,2.1-0.4v0.9
				c-0.3,0.1-0.7,0.3-1,0.3S30.3,17.1,29.8,17.1z M29.6,11.3c-0.5,0-0.9,0.2-1.2,0.5s-0.5,0.8-0.5,1.4h3.4c0-0.6-0.1-1.1-0.4-1.4
				S30.1,11.3,29.6,11.3z"/>
			<path class="st2" d="M36.9,8.8c0-0.2,0.1-0.4,0.2-0.5s0.2-0.2,0.4-0.2c0.2,0,0.3,0.1,0.4,0.2S38,8.6,38,8.8S38,9.2,37.9,9.3
				s-0.2,0.2-0.4,0.2c-0.2,0-0.3-0.1-0.4-0.2S36.9,9.1,36.9,8.8z M38,17h-1v-6.4h1V17z"/>
			<path class="st2" d="M42.1,16.3c0.2,0,0.3,0,0.5,0s0.3-0.1,0.4-0.1v0.7c-0.1,0.1-0.3,0.1-0.5,0.1s-0.4,0-0.6,0
				c-1.2,0-1.9-0.7-1.9-2v-3.8h-0.9v-0.5l0.9-0.4l0.4-1.4h0.6v1.5h1.9v0.8h-1.9v3.8c0,0.4,0.1,0.7,0.3,0.9S41.8,16.3,42.1,16.3z"/>
			<path class="st2" d="M47,17.1c-0.9,0-1.7-0.3-2.2-0.9s-0.8-1.4-0.8-2.4c0-1,0.3-1.9,0.8-2.5s1.2-0.9,2.1-0.9
				c0.8,0,1.4,0.3,1.9,0.8s0.7,1.2,0.7,2.1V14h-4.4c0,0.8,0.2,1.3,0.6,1.7s0.9,0.6,1.5,0.6c0.7,0,1.4-0.1,2.1-0.4v0.9
				c-0.3,0.1-0.7,0.3-1,0.3S47.4,17.1,47,17.1z M46.7,11.3c-0.5,0-0.9,0.2-1.2,0.5s-0.5,0.8-0.5,1.4h3.4c0-0.6-0.1-1.1-0.4-1.4
				S47.2,11.3,46.7,11.3z"/>
			<path class="st2" d="M59.2,17v-4.2c0-0.5-0.1-0.9-0.3-1.2s-0.6-0.4-1-0.4c-0.6,0-1.1,0.2-1.3,0.5S56,12.7,56,13.4V17h-1v-4.2
				c0-0.5-0.1-0.9-0.3-1.2s-0.6-0.4-1-0.4c-0.6,0-1.1,0.2-1.3,0.5s-0.4,1-0.4,1.8V17h-1v-6.4h0.8l0.2,0.9h0c0.2-0.3,0.4-0.6,0.8-0.7
				s0.7-0.3,1.1-0.3c1,0,1.7,0.4,2,1.1h0c0.2-0.3,0.5-0.6,0.8-0.8s0.8-0.3,1.2-0.3c0.7,0,1.3,0.2,1.6,0.6s0.5,1,0.5,1.8V17H59.2z"/>
			<path class="st2" d="M67.3,16.3c0.2,0,0.3,0,0.5,0s0.3-0.1,0.4-0.1v0.7C68.1,17,68,17,67.8,17.1s-0.4,0-0.6,0
				c-1.2,0-1.9-0.7-1.9-2v-3.8h-0.9v-0.5l0.9-0.4l0.4-1.4h0.6v1.5h1.9v0.8h-1.9v3.8c0,0.4,0.1,0.7,0.3,0.9S67,16.3,67.3,16.3z"/>
			<path class="st2" d="M73.9,17v-4.2c0-0.5-0.1-0.9-0.4-1.2s-0.6-0.4-1.1-0.4c-0.7,0-1.2,0.2-1.5,0.6s-0.5,1-0.5,1.8V17h-1V7.9h1
				v2.8c0,0.3,0,0.6,0,0.8h0.1c0.2-0.3,0.5-0.6,0.8-0.7s0.8-0.3,1.2-0.3c0.8,0,1.4,0.2,1.8,0.6s0.6,1,0.6,1.8V17H73.9z"/>
			<path class="st2" d="M80.8,17l-0.2-0.9h0c-0.3,0.4-0.6,0.7-1,0.8s-0.7,0.2-1.2,0.2c-0.6,0-1.1-0.2-1.5-0.5s-0.5-0.8-0.5-1.4
				c0-1.3,1-2,3.1-2l1.1,0v-0.4c0-0.5-0.1-0.9-0.3-1.1s-0.6-0.4-1-0.4c-0.5,0-1.1,0.2-1.8,0.5L77.1,11c0.3-0.2,0.7-0.3,1-0.4
				s0.8-0.1,1.1-0.1c0.8,0,1.3,0.2,1.7,0.5s0.6,0.9,0.6,1.6V17H80.8z M78.6,16.3c0.6,0,1.1-0.2,1.4-0.5s0.5-0.8,0.5-1.4v-0.6l-1,0
				c-0.8,0-1.3,0.1-1.7,0.4s-0.5,0.5-0.5,1c0,0.4,0.1,0.6,0.3,0.8S78.2,16.3,78.6,16.3z"/>
			<path class="st2" d="M85.6,16.3c0.2,0,0.3,0,0.5,0s0.3-0.1,0.4-0.1v0.7C86.4,17,86.2,17,86,17.1s-0.4,0-0.6,0
				c-1.2,0-1.9-0.7-1.9-2v-3.8h-0.9v-0.5l0.9-0.4L84,9.1h0.6v1.5h1.9v0.8h-1.9v3.8c0,0.4,0.1,0.7,0.3,0.9S85.3,16.3,85.6,16.3z"/>
			<path class="st2" d="M95.3,17v-4.2c0-0.5-0.1-0.9-0.4-1.2s-0.6-0.4-1.1-0.4c-0.7,0-1.2,0.2-1.5,0.6s-0.5,1-0.5,1.8V17h-1V7.9h1
				v2.8c0,0.3,0,0.6,0,0.8h0.1c0.2-0.3,0.5-0.6,0.8-0.7s0.8-0.3,1.2-0.3c0.8,0,1.4,0.2,1.8,0.6s0.6,1,0.6,1.8V17H95.3z"/>
			<path class="st2" d="M102.2,17l-0.2-0.9h0c-0.3,0.4-0.6,0.7-1,0.8s-0.7,0.2-1.2,0.2c-0.6,0-1.1-0.2-1.5-0.5s-0.5-0.8-0.5-1.4
				c0-1.3,1-2,3.1-2l1.1,0v-0.4c0-0.5-0.1-0.9-0.3-1.1s-0.6-0.4-1-0.4c-0.5,0-1.1,0.2-1.8,0.5L98.5,11c0.3-0.2,0.7-0.3,1-0.4
				s0.8-0.1,1.1-0.1c0.8,0,1.3,0.2,1.7,0.5s0.6,0.9,0.6,1.6V17H102.2z M100,16.3c0.6,0,1.1-0.2,1.4-0.5s0.5-0.8,0.5-1.4v-0.6l-1,0
				c-0.8,0-1.3,0.1-1.7,0.4s-0.5,0.5-0.5,1c0,0.4,0.1,0.6,0.3,0.8S99.6,16.3,100,16.3z"/>
			<path class="st2" d="M109.1,15.2c0,0.6-0.2,1.1-0.7,1.4s-1.1,0.5-1.9,0.5c-0.9,0-1.5-0.1-2-0.4v-0.9c0.3,0.2,0.6,0.3,1,0.4
				s0.7,0.1,1,0.1c0.5,0,0.9-0.1,1.2-0.2s0.4-0.4,0.4-0.7c0-0.2-0.1-0.5-0.3-0.6s-0.6-0.4-1.3-0.6c-0.6-0.2-1-0.4-1.3-0.6
				s-0.4-0.4-0.6-0.6s-0.2-0.5-0.2-0.8c0-0.5,0.2-0.9,0.6-1.2s1-0.5,1.8-0.5c0.7,0,1.4,0.1,2,0.4l-0.3,0.8c-0.6-0.3-1.2-0.4-1.8-0.4
				c-0.5,0-0.8,0.1-1,0.2s-0.4,0.3-0.4,0.6c0,0.2,0,0.3,0.1,0.4s0.2,0.2,0.4,0.3s0.6,0.3,1.1,0.5c0.8,0.3,1.3,0.6,1.5,0.8
				S109.1,14.8,109.1,15.2z"/>
			<path class="st2" d="M117.7,17l-0.2-0.9h0c-0.3,0.4-0.6,0.7-1,0.8s-0.7,0.2-1.2,0.2c-0.6,0-1.1-0.2-1.5-0.5s-0.5-0.8-0.5-1.4
				c0-1.3,1-2,3.1-2l1.1,0v-0.4c0-0.5-0.1-0.9-0.3-1.1s-0.6-0.4-1-0.4c-0.5,0-1.1,0.2-1.8,0.5L114,11c0.3-0.2,0.7-0.3,1-0.4
				s0.8-0.1,1.1-0.1c0.8,0,1.3,0.2,1.7,0.5s0.6,0.9,0.6,1.6V17H117.7z M115.5,16.3c0.6,0,1.1-0.2,1.4-0.5s0.5-0.8,0.5-1.4v-0.6l-1,0
				c-0.8,0-1.3,0.1-1.7,0.4s-0.5,0.5-0.5,1c0,0.4,0.1,0.6,0.3,0.8S115.1,16.3,115.5,16.3z"/>
			<path class="st2" d="M125,17l-2.4-6.4h1l1.4,3.8c0.3,0.9,0.5,1.5,0.6,1.7h0c0-0.2,0.2-0.6,0.4-1.3s0.7-2.1,1.5-4.3h1l-2.4,6.4
				H125z"/>
			<path class="st2" d="M132.3,17.1c-0.9,0-1.7-0.3-2.2-0.9s-0.8-1.4-0.8-2.4c0-1,0.3-1.9,0.8-2.5s1.2-0.9,2.1-0.9
				c0.8,0,1.4,0.3,1.9,0.8s0.7,1.2,0.7,2.1V14h-4.4c0,0.8,0.2,1.3,0.6,1.7s0.9,0.6,1.5,0.6c0.7,0,1.4-0.1,2.1-0.4v0.9
				c-0.3,0.1-0.7,0.3-1,0.3S132.7,17.1,132.3,17.1z M132,11.3c-0.5,0-0.9,0.2-1.2,0.5s-0.5,0.8-0.5,1.4h3.4c0-0.6-0.1-1.1-0.4-1.4
				S132.5,11.3,132,11.3z"/>
			<path class="st2" d="M139.2,10.5c0.3,0,0.5,0,0.8,0.1l-0.1,0.9c-0.3-0.1-0.5-0.1-0.7-0.1c-0.5,0-1,0.2-1.3,0.6s-0.6,0.9-0.6,1.6
				V17h-1v-6.4h0.8l0.1,1.2h0c0.2-0.4,0.5-0.7,0.9-1S138.8,10.5,139.2,10.5z"/>
			<path class="st2" d="M140.2,10.6h1l1.4,3.7c0.3,0.8,0.5,1.4,0.6,1.8h0c0.1-0.2,0.2-0.5,0.3-1s0.7-2,1.6-4.5h1l-2.8,7.3
				c-0.3,0.7-0.6,1.2-1,1.5s-0.8,0.5-1.3,0.5c-0.3,0-0.6,0-0.9-0.1V19c0.2,0,0.5,0.1,0.7,0.1c0.7,0,1.1-0.4,1.4-1.1l0.4-0.9
				L140.2,10.6z"/>
			<path class="st2" d="M151.8,17l-2.4-6.4h1l1.4,3.8c0.3,0.9,0.5,1.5,0.6,1.7h0c0-0.2,0.2-0.6,0.4-1.3s0.7-2.1,1.5-4.3h1l-2.4,6.4
				H151.8z"/>
			<path class="st2" d="M159.1,17.1c-0.9,0-1.7-0.3-2.2-0.9s-0.8-1.4-0.8-2.4c0-1,0.3-1.9,0.8-2.5s1.2-0.9,2.1-0.9
				c0.8,0,1.4,0.3,1.9,0.8s0.7,1.2,0.7,2.1V14H157c0,0.8,0.2,1.3,0.6,1.7s0.9,0.6,1.5,0.6c0.7,0,1.4-0.1,2.1-0.4v0.9
				c-0.3,0.1-0.7,0.3-1,0.3S159.5,17.1,159.1,17.1z M158.8,11.3c-0.5,0-0.9,0.2-1.2,0.5s-0.5,0.8-0.5,1.4h3.4c0-0.6-0.1-1.1-0.4-1.4
				S159.3,11.3,158.8,11.3z"/>
			<path class="st2" d="M166,10.5c0.3,0,0.5,0,0.8,0.1l-0.1,0.9c-0.3-0.1-0.5-0.1-0.7-0.1c-0.5,0-1,0.2-1.3,0.6s-0.6,0.9-0.6,1.6V17
				h-1v-6.4h0.8l0.1,1.2h0c0.2-0.4,0.5-0.7,0.9-1S165.6,10.5,166,10.5z"/>
			<path class="st2" d="M167,10.6h1l1.4,3.7c0.3,0.8,0.5,1.4,0.6,1.8h0c0.1-0.2,0.2-0.5,0.3-1s0.7-2,1.6-4.5h1l-2.8,7.3
				c-0.3,0.7-0.6,1.2-1,1.5s-0.8,0.5-1.3,0.5c-0.3,0-0.6,0-0.9-0.1V19c0.2,0,0.5,0.1,0.7,0.1c0.7,0,1.1-0.4,1.4-1.1l0.4-0.9
				L167,10.6z"/>
			<path class="st2" d="M178.2,17h-1V7.9h1V17z"/>
			<path class="st2" d="M185.8,13.8c0,1-0.3,1.9-0.8,2.5s-1.3,0.9-2.2,0.9c-0.6,0-1.1-0.1-1.5-0.4s-0.8-0.7-1-1.2s-0.4-1.1-0.4-1.8
				c0-1,0.3-1.9,0.8-2.4s1.2-0.9,2.2-0.9c0.9,0,1.6,0.3,2.1,0.9S185.8,12.8,185.8,13.8z M180.9,13.8c0,0.8,0.2,1.4,0.5,1.9
				s0.8,0.6,1.4,0.6s1.1-0.2,1.5-0.6s0.5-1.1,0.5-1.9c0-0.8-0.2-1.4-0.5-1.9s-0.8-0.6-1.5-0.6c-0.6,0-1.1,0.2-1.4,0.6
				S180.9,13,180.9,13.8z"/>
			<path class="st2" d="M191.9,17v-4.2c0-0.5-0.1-0.9-0.4-1.2s-0.6-0.4-1.1-0.4c-0.7,0-1.2,0.2-1.5,0.5s-0.5,1-0.5,1.8V17h-1v-6.4
				h0.8l0.2,0.9h0c0.2-0.3,0.5-0.6,0.8-0.7s0.8-0.3,1.2-0.3c0.8,0,1.4,0.2,1.7,0.6s0.6,1,0.6,1.8V17H191.9z"/>
			<path class="st2" d="M200.1,10.6v0.6l-1.2,0.1c0.1,0.1,0.2,0.3,0.3,0.5s0.1,0.5,0.1,0.7c0,0.6-0.2,1.1-0.6,1.5s-1,0.6-1.8,0.6
				c-0.2,0-0.4,0-0.5,0c-0.4,0.2-0.6,0.5-0.6,0.8c0,0.2,0.1,0.3,0.2,0.4s0.4,0.1,0.7,0.1h1.1c0.7,0,1.2,0.1,1.6,0.4s0.6,0.7,0.6,1.3
				c0,0.7-0.3,1.3-0.9,1.6s-1.4,0.6-2.5,0.6c-0.8,0-1.5-0.2-1.9-0.5s-0.7-0.8-0.7-1.3c0-0.4,0.1-0.7,0.4-1s0.6-0.5,1.1-0.6
				c-0.2-0.1-0.3-0.2-0.4-0.3s-0.2-0.3-0.2-0.5c0-0.2,0.1-0.4,0.2-0.6s0.3-0.3,0.6-0.5c-0.3-0.1-0.6-0.4-0.8-0.7s-0.3-0.7-0.3-1.1
				c0-0.7,0.2-1.2,0.6-1.6s1-0.6,1.8-0.6c0.3,0,0.6,0,0.9,0.1H200.1z M195,18.1c0,0.3,0.1,0.6,0.4,0.8s0.7,0.3,1.3,0.3
				c0.8,0,1.4-0.1,1.8-0.4s0.6-0.6,0.6-1c0-0.3-0.1-0.6-0.3-0.7s-0.6-0.2-1.2-0.2h-1.2c-0.4,0-0.8,0.1-1,0.3S195,17.7,195,18.1z
				 M195.5,12.6c0,0.4,0.1,0.8,0.4,1s0.6,0.3,1.1,0.3c0.9,0,1.4-0.5,1.4-1.4c0-1-0.5-1.4-1.4-1.4c-0.5,0-0.8,0.1-1.1,0.4
				S195.5,12.2,195.5,12.6z"/>
			<path class="st2" d="M208.9,17v-4.2c0-0.5-0.1-0.9-0.4-1.2s-0.6-0.4-1.1-0.4c-0.7,0-1.2,0.2-1.5,0.5s-0.5,1-0.5,1.8V17h-1v-6.4
				h0.8l0.2,0.9h0c0.2-0.3,0.5-0.6,0.8-0.7s0.8-0.3,1.2-0.3c0.8,0,1.4,0.2,1.7,0.6s0.6,1,0.6,1.8V17H208.9z"/>
			<path class="st2" d="M215.8,17l-0.2-0.9h0c-0.3,0.4-0.6,0.7-1,0.8s-0.7,0.2-1.2,0.2c-0.6,0-1.1-0.2-1.5-0.5s-0.5-0.8-0.5-1.4
				c0-1.3,1-2,3.1-2l1.1,0v-0.4c0-0.5-0.1-0.9-0.3-1.1s-0.6-0.4-1-0.4c-0.5,0-1.1,0.2-1.8,0.5l-0.3-0.7c0.3-0.2,0.7-0.3,1-0.4
				s0.8-0.1,1.1-0.1c0.8,0,1.3,0.2,1.7,0.5s0.6,0.9,0.6,1.6V17H215.8z M213.6,16.3c0.6,0,1.1-0.2,1.4-0.5s0.5-0.8,0.5-1.4v-0.6l-1,0
				c-0.8,0-1.3,0.1-1.7,0.4s-0.5,0.5-0.5,1c0,0.4,0.1,0.6,0.3,0.8S213.3,16.3,213.6,16.3z"/>
			<path class="st2" d="M226.7,17v-4.2c0-0.5-0.1-0.9-0.3-1.2s-0.6-0.4-1-0.4c-0.6,0-1.1,0.2-1.3,0.5s-0.4,0.9-0.4,1.6V17h-1v-4.2
				c0-0.5-0.1-0.9-0.3-1.2s-0.6-0.4-1-0.4c-0.6,0-1.1,0.2-1.3,0.5s-0.4,1-0.4,1.8V17h-1v-6.4h0.8l0.2,0.9h0c0.2-0.3,0.4-0.6,0.8-0.7
				s0.7-0.3,1.1-0.3c1,0,1.7,0.4,2,1.1h0c0.2-0.3,0.5-0.6,0.8-0.8s0.8-0.3,1.2-0.3c0.7,0,1.3,0.2,1.6,0.6s0.5,1,0.5,1.8V17H226.7z"
				/>
			<path class="st2" d="M232.4,17.1c-0.9,0-1.7-0.3-2.2-0.9s-0.8-1.4-0.8-2.4c0-1,0.3-1.9,0.8-2.5s1.2-0.9,2.1-0.9
				c0.8,0,1.4,0.3,1.9,0.8s0.7,1.2,0.7,2.1V14h-4.4c0,0.8,0.2,1.3,0.6,1.7s0.9,0.6,1.5,0.6c0.7,0,1.4-0.1,2.1-0.4v0.9
				c-0.3,0.1-0.7,0.3-1,0.3S232.9,17.1,232.4,17.1z M232.2,11.3c-0.5,0-0.9,0.2-1.2,0.5s-0.5,0.8-0.5,1.4h3.4c0-0.6-0.1-1.1-0.4-1.4
				S232.7,11.3,232.2,11.3z"/>
			<path class="st2" d="M241.6,16.3c0.2,0,0.3,0,0.5,0s0.3-0.1,0.4-0.1v0.7c-0.1,0.1-0.3,0.1-0.5,0.1s-0.4,0-0.6,0
				c-1.2,0-1.9-0.7-1.9-2v-3.8h-0.9v-0.5l0.9-0.4l0.4-1.4h0.6v1.5h1.9v0.8h-1.9v3.8c0,0.4,0.1,0.7,0.3,0.9S241.3,16.3,241.6,16.3z"
				/>
			<path class="st2" d="M248.2,17v-4.2c0-0.5-0.1-0.9-0.4-1.2s-0.6-0.4-1.1-0.4c-0.7,0-1.2,0.2-1.5,0.6s-0.5,1-0.5,1.8V17h-1V7.9h1
				v2.8c0,0.3,0,0.6,0,0.8h0.1c0.2-0.3,0.5-0.6,0.8-0.7s0.8-0.3,1.2-0.3c0.8,0,1.4,0.2,1.8,0.6s0.6,1,0.6,1.8V17H248.2z"/>
			<path class="st2" d="M255.1,17l-0.2-0.9h0c-0.3,0.4-0.6,0.7-1,0.8s-0.7,0.2-1.2,0.2c-0.6,0-1.1-0.2-1.5-0.5s-0.5-0.8-0.5-1.4
				c0-1.3,1-2,3.1-2l1.1,0v-0.4c0-0.5-0.1-0.9-0.3-1.1s-0.6-0.4-1-0.4c-0.5,0-1.1,0.2-1.8,0.5l-0.3-0.7c0.3-0.2,0.7-0.3,1-0.4
				s0.8-0.1,1.1-0.1c0.8,0,1.3,0.2,1.7,0.5s0.6,0.9,0.6,1.6V17H255.1z M252.9,16.3c0.6,0,1.1-0.2,1.4-0.5s0.5-0.8,0.5-1.4v-0.6l-1,0
				c-0.8,0-1.3,0.1-1.7,0.4s-0.5,0.5-0.5,1c0,0.4,0.1,0.6,0.3,0.8S252.5,16.3,252.9,16.3z"/>
			<path class="st2" d="M259.9,16.3c0.2,0,0.3,0,0.5,0s0.3-0.1,0.4-0.1v0.7c-0.1,0.1-0.3,0.1-0.5,0.1s-0.4,0-0.6,0
				c-1.2,0-1.9-0.7-1.9-2v-3.8H257v-0.5l0.9-0.4l0.4-1.4h0.6v1.5h1.9v0.8h-1.9v3.8c0,0.4,0.1,0.7,0.3,0.9S259.6,16.3,259.9,16.3z"/>
			<path class="st2" d="M269.6,16.1L269.6,16.1c-0.5,0.7-1.2,1-2.1,1c-0.8,0-1.5-0.3-2-0.9s-0.7-1.4-0.7-2.4s0.2-1.9,0.7-2.5
				s1.1-0.9,2-0.9c0.9,0,1.5,0.3,2,0.9h0.1l0-0.5l0-0.5V7.9h1V17h-0.8L269.6,16.1z M267.6,16.3c0.7,0,1.1-0.2,1.4-0.5
				s0.4-0.9,0.4-1.7v-0.2c0-0.9-0.2-1.6-0.5-1.9s-0.8-0.6-1.5-0.6c-0.6,0-1,0.2-1.3,0.7s-0.5,1.1-0.5,1.9c0,0.8,0.2,1.4,0.5,1.9
				S267,16.3,267.6,16.3z"/>
			<path class="st2" d="M278.1,13.8c0,1-0.3,1.9-0.8,2.5s-1.3,0.9-2.2,0.9c-0.6,0-1.1-0.1-1.5-0.4s-0.8-0.7-1-1.2s-0.4-1.1-0.4-1.8
				c0-1,0.3-1.9,0.8-2.4s1.2-0.9,2.2-0.9c0.9,0,1.6,0.3,2.1,0.9S278.1,12.8,278.1,13.8z M273.2,13.8c0,0.8,0.2,1.4,0.5,1.9
				s0.8,0.6,1.4,0.6s1.1-0.2,1.5-0.6s0.5-1.1,0.5-1.9c0-0.8-0.2-1.4-0.5-1.9s-0.8-0.6-1.5-0.6c-0.6,0-1.1,0.2-1.4,0.6
				S273.2,13,273.2,13.8z"/>
			<path class="st2" d="M282.5,17.1c-0.9,0-1.7-0.3-2.2-0.9s-0.8-1.4-0.8-2.4c0-1,0.3-1.9,0.8-2.5s1.2-0.9,2.1-0.9
				c0.8,0,1.4,0.3,1.9,0.8s0.7,1.2,0.7,2.1V14h-4.4c0,0.8,0.2,1.3,0.6,1.7s0.9,0.6,1.5,0.6c0.7,0,1.4-0.1,2.1-0.4v0.9
				c-0.3,0.1-0.7,0.3-1,0.3S282.9,17.1,282.5,17.1z M282.2,11.3c-0.5,0-0.9,0.2-1.2,0.5s-0.5,0.8-0.5,1.4h3.4c0-0.6-0.1-1.1-0.4-1.4
				S282.8,11.3,282.2,11.3z"/>
			<path class="st2" d="M290.7,15.2c0,0.6-0.2,1.1-0.7,1.4s-1.1,0.5-1.9,0.5c-0.9,0-1.5-0.1-2-0.4v-0.9c0.3,0.2,0.6,0.3,1,0.4
				s0.7,0.1,1,0.1c0.5,0,0.9-0.1,1.2-0.2s0.4-0.4,0.4-0.7c0-0.2-0.1-0.5-0.3-0.6s-0.6-0.4-1.3-0.6c-0.6-0.2-1-0.4-1.3-0.6
				s-0.4-0.4-0.6-0.6s-0.2-0.5-0.2-0.8c0-0.5,0.2-0.9,0.6-1.2s1-0.5,1.8-0.5c0.7,0,1.4,0.1,2,0.4l-0.3,0.8c-0.6-0.3-1.2-0.4-1.8-0.4
				c-0.5,0-0.8,0.1-1,0.2s-0.4,0.3-0.4,0.6c0,0.2,0,0.3,0.1,0.4s0.2,0.2,0.4,0.3s0.6,0.3,1.1,0.5c0.8,0.3,1.3,0.6,1.5,0.8
				S290.7,14.8,290.7,15.2z"/>
			<path class="st2" d="M296.7,17v-4.2c0-0.5-0.1-0.9-0.4-1.2s-0.6-0.4-1.1-0.4c-0.7,0-1.2,0.2-1.5,0.5s-0.5,1-0.5,1.8V17h-1v-6.4
				h0.8l0.2,0.9h0c0.2-0.3,0.5-0.6,0.8-0.7s0.8-0.3,1.2-0.3c0.8,0,1.4,0.2,1.7,0.6s0.6,1,0.6,1.8V17H296.7z"/>
			<path class="st2" d="M300.4,8.4l0.1,0.1c-0.1,0.4-0.2,0.8-0.4,1.4s-0.4,1-0.6,1.4h-0.7c0.3-1.1,0.5-2.1,0.6-2.9H300.4z"/>
			<path class="st2" d="M303.7,16.3c0.2,0,0.3,0,0.5,0s0.3-0.1,0.4-0.1v0.7c-0.1,0.1-0.3,0.1-0.5,0.1s-0.4,0-0.6,0
				c-1.2,0-1.9-0.7-1.9-2v-3.8h-0.9v-0.5l0.9-0.4l0.4-1.4h0.6v1.5h1.9v0.8h-1.9v3.8c0,0.4,0.1,0.7,0.3,0.9S303.4,16.3,303.7,16.3z"
				/>
			<path class="st2" d="M311.9,11.3h-1.6V17h-1v-5.7h-1.1v-0.4l1.1-0.4v-0.4c0-1.6,0.7-2.4,2.1-2.4c0.3,0,0.7,0.1,1.2,0.2l-0.3,0.8
				c-0.4-0.1-0.7-0.2-1-0.2c-0.4,0-0.6,0.1-0.8,0.4s-0.3,0.6-0.3,1.2v0.4h1.6V11.3z M313,8.8c0-0.2,0.1-0.4,0.2-0.5s0.2-0.2,0.4-0.2
				c0.2,0,0.3,0.1,0.4,0.2s0.2,0.3,0.2,0.5s-0.1,0.4-0.2,0.5s-0.2,0.2-0.4,0.2c-0.2,0-0.3-0.1-0.4-0.2S313,9.1,313,8.8z M314.1,17
				h-1v-6.4h1V17z"/>
			<path class="st2" d="M318.2,16.3c0.2,0,0.3,0,0.5,0s0.3-0.1,0.4-0.1v0.7c-0.1,0.1-0.3,0.1-0.5,0.1s-0.4,0-0.6,0
				c-1.2,0-1.9-0.7-1.9-2v-3.8h-0.9v-0.5l0.9-0.4l0.4-1.4h0.6v1.5h1.9v0.8h-1.9v3.8c0,0.4,0.1,0.7,0.3,0.9S317.9,16.3,318.2,16.3z"
				/>
			<path class="st2" d="M327.9,17v-4.2c0-0.5-0.1-0.9-0.4-1.2s-0.6-0.4-1.1-0.4c-0.7,0-1.2,0.2-1.5,0.6s-0.5,1-0.5,1.8V17h-1V7.9h1
				v2.8c0,0.3,0,0.6,0,0.8h0.1c0.2-0.3,0.5-0.6,0.8-0.7s0.8-0.3,1.2-0.3c0.8,0,1.4,0.2,1.8,0.6s0.6,1,0.6,1.8V17H327.9z"/>
			<path class="st2" d="M333.5,17.1c-0.9,0-1.7-0.3-2.2-0.9s-0.8-1.4-0.8-2.4c0-1,0.3-1.9,0.8-2.5s1.2-0.9,2.1-0.9
				c0.8,0,1.4,0.3,1.9,0.8s0.7,1.2,0.7,2.1V14h-4.4c0,0.8,0.2,1.3,0.6,1.7s0.9,0.6,1.5,0.6c0.7,0,1.4-0.1,2.1-0.4v0.9
				c-0.3,0.1-0.7,0.3-1,0.3S334,17.1,333.5,17.1z M333.3,11.3c-0.5,0-0.9,0.2-1.2,0.5s-0.5,0.8-0.5,1.4h3.4c0-0.6-0.1-1.1-0.4-1.4
				S333.8,11.3,333.3,11.3z"/>
			<path class="st2" d="M340.5,10.5c0.3,0,0.5,0,0.8,0.1l-0.1,0.9c-0.3-0.1-0.5-0.1-0.7-0.1c-0.5,0-1,0.2-1.3,0.6s-0.6,0.9-0.6,1.6
				V17h-1v-6.4h0.8l0.1,1.2h0c0.2-0.4,0.5-0.7,0.9-1S340.1,10.5,340.5,10.5z"/>
			<path class="st2" d="M345.2,17.1c-0.9,0-1.7-0.3-2.2-0.9s-0.8-1.4-0.8-2.4c0-1,0.3-1.9,0.8-2.5s1.2-0.9,2.1-0.9
				c0.8,0,1.4,0.3,1.9,0.8s0.7,1.2,0.7,2.1V14h-4.4c0,0.8,0.2,1.3,0.6,1.7s0.9,0.6,1.5,0.6c0.7,0,1.4-0.1,2.1-0.4v0.9
				c-0.3,0.1-0.7,0.3-1,0.3S345.6,17.1,345.2,17.1z M344.9,11.3c-0.5,0-0.9,0.2-1.2,0.5s-0.5,0.8-0.5,1.4h3.4c0-0.6-0.1-1.1-0.4-1.4
				S345.4,11.3,344.9,11.3z"/>
		</g>
	</g>
	<g id="Group_156744" transform="translate(64 -103)">
		<g id="Group_156743" transform="translate(355 403.208) rotate(-90)">
			<g id="Ellipse_2" transform="translate(144 164)">
				<circle class="st13" cx="4" cy="4" r="4"/>
				<circle class="Graphic_x0020_Style_x0020_2" cx="4" cy="4" r="3.5"/>
			</g>
			<path id="Path_6581" class="st14" d="M144,168h-15.6"/>
		</g>
		<g class="st3">
			<path class="st15" d="M500.8,287H500v-7.1h4v0.7h-3.1v2.6h3v0.7h-3V287z"/>
			<path class="st15" d="M509.6,284.3c0,0.9-0.2,1.6-0.7,2c-0.4,0.5-1,0.7-1.8,0.7c-0.5,0-0.9-0.1-1.3-0.3s-0.7-0.5-0.9-1
				s-0.3-0.9-0.3-1.5c0-0.9,0.2-1.6,0.7-2c0.4-0.5,1-0.7,1.8-0.7c0.7,0,1.3,0.2,1.8,0.7C509.4,282.8,509.6,283.5,509.6,284.3z
				 M505.6,284.3c0,0.7,0.1,1.2,0.4,1.6s0.7,0.5,1.2,0.5s0.9-0.2,1.2-0.5c0.3-0.4,0.4-0.9,0.4-1.6c0-0.7-0.1-1.2-0.4-1.5
				c-0.3-0.4-0.7-0.5-1.2-0.5c-0.5,0-0.9,0.2-1.2,0.5S505.6,283.6,505.6,284.3z"/>
			<path class="st15" d="M511.9,287h-0.8v-7.6h0.8V287z"/>
			<path class="st15" d="M514.4,287h-0.8v-7.6h0.8V287z"/>
			<path class="st15" d="M520.8,284.3c0,0.9-0.2,1.6-0.7,2c-0.4,0.5-1,0.7-1.8,0.7c-0.5,0-0.9-0.1-1.3-0.3s-0.7-0.5-0.9-1
				s-0.3-0.9-0.3-1.5c0-0.9,0.2-1.6,0.7-2c0.4-0.5,1-0.7,1.8-0.7c0.7,0,1.3,0.2,1.8,0.7C520.6,282.8,520.8,283.5,520.8,284.3z
				 M516.7,284.3c0,0.7,0.1,1.2,0.4,1.6s0.7,0.5,1.2,0.5s0.9-0.2,1.2-0.5c0.3-0.4,0.4-0.9,0.4-1.6c0-0.7-0.1-1.2-0.4-1.5
				c-0.3-0.4-0.7-0.5-1.2-0.5c-0.5,0-0.9,0.2-1.2,0.5S516.7,283.6,516.7,284.3z"/>
			<path class="st15" d="M526.6,287l-1-3.1c-0.1-0.2-0.2-0.6-0.3-1.3h0c-0.1,0.6-0.2,1-0.3,1.3l-1,3.1h-0.9l-1.5-5.4h0.8
				c0.3,1.3,0.6,2.4,0.8,3.1c0.2,0.7,0.3,1.2,0.3,1.4h0c0-0.2,0.1-0.4,0.2-0.7c0.1-0.3,0.1-0.5,0.2-0.7l1-3.1h0.9l1,3.1
				c0.2,0.6,0.3,1,0.4,1.4h0c0-0.1,0-0.3,0.1-0.5c0.1-0.2,0.4-1.6,1-3.9h0.8l-1.5,5.4H526.6z"/>
			<path class="st15" d="M535.9,287l-2.4-6.3h0c0,0.5,0.1,1.1,0.1,1.8v4.5h-0.8v-7.1h1.2l2.3,5.9h0l2.3-5.9h1.2v7.1H539v-4.6
				c0-0.5,0-1.1,0.1-1.7h0l-2.4,6.3H535.9z"/>
			<path class="st15" d="M546.3,284.3c0,0.9-0.2,1.6-0.7,2c-0.4,0.5-1,0.7-1.8,0.7c-0.5,0-0.9-0.1-1.3-0.3s-0.7-0.5-0.9-1
				s-0.3-0.9-0.3-1.5c0-0.9,0.2-1.6,0.7-2c0.4-0.5,1-0.7,1.8-0.7c0.7,0,1.3,0.2,1.8,0.7C546,282.8,546.3,283.5,546.3,284.3z
				 M542.2,284.3c0,0.7,0.1,1.2,0.4,1.6s0.7,0.5,1.2,0.5s0.9-0.2,1.2-0.5c0.3-0.4,0.4-0.9,0.4-1.6c0-0.7-0.1-1.2-0.4-1.5
				c-0.3-0.4-0.7-0.5-1.2-0.5c-0.5,0-0.9,0.2-1.2,0.5S542.2,283.6,542.2,284.3z"/>
			<path class="st15" d="M551.3,286.3L551.3,286.3c-0.4,0.5-1,0.8-1.7,0.8c-0.7,0-1.2-0.2-1.6-0.7c-0.4-0.5-0.6-1.2-0.6-2
				s0.2-1.6,0.6-2.1s0.9-0.7,1.6-0.7c0.7,0,1.3,0.3,1.7,0.8h0.1l0-0.4l0-0.4v-2.2h0.8v7.6h-0.7L551.3,286.3z M549.7,286.4
				c0.6,0,1-0.2,1.2-0.5c0.2-0.3,0.4-0.8,0.4-1.5v-0.2c0-0.8-0.1-1.3-0.4-1.6c-0.3-0.3-0.7-0.5-1.2-0.5c-0.5,0-0.8,0.2-1.1,0.6
				c-0.3,0.4-0.4,0.9-0.4,1.6c0,0.7,0.1,1.2,0.4,1.5S549.2,286.4,549.7,286.4z"/>
			<path class="st15" d="M554.6,281.6v3.5c0,0.4,0.1,0.8,0.3,1c0.2,0.2,0.5,0.3,0.9,0.3c0.6,0,1-0.2,1.2-0.5s0.4-0.8,0.4-1.5v-2.8
				h0.8v5.4h-0.7l-0.1-0.7h0c-0.2,0.3-0.4,0.5-0.7,0.6s-0.6,0.2-1,0.2c-0.7,0-1.1-0.2-1.5-0.5s-0.5-0.8-0.5-1.5v-3.5H554.6z"/>
			<path class="st15" d="M563.4,285.5c0,0.5-0.2,0.9-0.6,1.2s-0.9,0.4-1.6,0.4c-0.7,0-1.3-0.1-1.7-0.3V286c0.3,0.1,0.5,0.2,0.8,0.3
				s0.6,0.1,0.9,0.1c0.4,0,0.7-0.1,1-0.2c0.2-0.1,0.3-0.3,0.3-0.6c0-0.2-0.1-0.4-0.3-0.5c-0.2-0.1-0.5-0.3-1.1-0.5
				c-0.5-0.2-0.9-0.3-1.1-0.5c-0.2-0.1-0.4-0.3-0.5-0.5s-0.2-0.4-0.2-0.6c0-0.4,0.2-0.8,0.5-1c0.4-0.3,0.8-0.4,1.5-0.4
				c0.6,0,1.1,0.1,1.7,0.4l-0.3,0.7c-0.5-0.2-1-0.3-1.5-0.3c-0.4,0-0.7,0.1-0.9,0.2s-0.3,0.3-0.3,0.5c0,0.1,0,0.3,0.1,0.4
				s0.2,0.2,0.4,0.3c0.2,0.1,0.5,0.2,0.9,0.4c0.6,0.2,1.1,0.5,1.3,0.7S563.4,285.2,563.4,285.5z"/>
			<path class="st15" d="M569.1,286.4c0.1,0,0.3,0,0.4,0c0.1,0,0.2,0,0.3-0.1v0.6c-0.1,0-0.2,0.1-0.4,0.1c-0.2,0-0.3,0-0.5,0
				c-1,0-1.6-0.5-1.6-1.6v-3.2h-0.8v-0.4l0.8-0.3l0.3-1.1h0.5v1.2h1.6v0.6h-1.6v3.1c0,0.3,0.1,0.6,0.2,0.7S568.8,286.4,569.1,286.4z
				"/>
			<path class="st15" d="M575.5,284.3c0,0.9-0.2,1.6-0.7,2c-0.4,0.5-1,0.7-1.8,0.7c-0.5,0-0.9-0.1-1.3-0.3s-0.7-0.5-0.9-1
				c-0.2-0.4-0.3-0.9-0.3-1.5c0-0.9,0.2-1.6,0.7-2c0.4-0.5,1-0.7,1.8-0.7c0.7,0,1.3,0.2,1.8,0.7S575.5,283.5,575.5,284.3z
				 M571.4,284.3c0,0.7,0.1,1.2,0.4,1.6s0.7,0.5,1.2,0.5c0.5,0,0.9-0.2,1.2-0.5c0.3-0.4,0.4-0.9,0.4-1.6c0-0.7-0.1-1.2-0.4-1.5
				c-0.3-0.4-0.7-0.5-1.2-0.5c-0.5,0-0.9,0.2-1.2,0.5C571.6,283.1,571.4,283.6,571.4,284.3z"/>
			<path class="st15" d="M581.6,284.3c0,0.9-0.2,1.6-0.7,2c-0.4,0.5-1,0.7-1.8,0.7c-0.5,0-0.9-0.1-1.3-0.3s-0.7-0.5-0.9-1
				c-0.2-0.4-0.3-0.9-0.3-1.5c0-0.9,0.2-1.6,0.7-2c0.4-0.5,1-0.7,1.8-0.7c0.7,0,1.3,0.2,1.8,0.7S581.6,283.5,581.6,284.3z
				 M577.5,284.3c0,0.7,0.1,1.2,0.4,1.6s0.7,0.5,1.2,0.5c0.5,0,0.9-0.2,1.2-0.5c0.3-0.4,0.4-0.9,0.4-1.6c0-0.7-0.1-1.2-0.4-1.5
				c-0.3-0.4-0.7-0.5-1.2-0.5c-0.5,0-0.9,0.2-1.2,0.5C577.6,283.1,577.5,283.6,577.5,284.3z"/>
			<path class="st15" d="M583.8,287H583v-7.6h0.8V287z"/>
			<path class="st15" d="M587.3,286.4c0.1,0,0.3,0,0.4,0c0.1,0,0.2,0,0.3-0.1v0.6c-0.1,0-0.2,0.1-0.4,0.1c-0.2,0-0.3,0-0.5,0
				c-1,0-1.6-0.5-1.6-1.6v-3.2h-0.8v-0.4l0.8-0.3l0.3-1.1h0.5v1.2h1.6v0.6h-1.6v3.1c0,0.3,0.1,0.6,0.2,0.7S587,286.4,587.3,286.4z"
				/>
			<path class="st15" d="M589,280.2c0-0.2,0-0.3,0.1-0.4c0.1-0.1,0.2-0.1,0.3-0.1c0.1,0,0.2,0,0.3,0.1c0.1,0.1,0.1,0.2,0.1,0.4
				s0,0.3-0.1,0.4c-0.1,0.1-0.2,0.1-0.3,0.1c-0.1,0-0.3,0-0.3-0.1C589.1,280.5,589,280.4,589,280.2z M589.9,287h-0.8v-5.4h0.8V287z"
				/>
			<path class="st15" d="M594.1,287.1c-0.3,0-0.7-0.1-1-0.2c-0.3-0.1-0.5-0.3-0.7-0.6h-0.1c0,0.3,0.1,0.6,0.1,0.9v2.2h-0.8v-7.8h0.7
				l0.1,0.7h0c0.2-0.3,0.5-0.5,0.7-0.6c0.3-0.1,0.6-0.2,1-0.2c0.7,0,1.3,0.2,1.6,0.7s0.6,1.2,0.6,2c0,0.9-0.2,1.6-0.6,2
				C595.4,286.9,594.8,287.1,594.1,287.1z M594,282.2c-0.5,0-0.9,0.2-1.2,0.5s-0.4,0.8-0.4,1.4v0.2c0,0.8,0.1,1.3,0.4,1.6
				c0.3,0.3,0.7,0.5,1.2,0.5c0.5,0,0.8-0.2,1.1-0.6s0.4-0.9,0.4-1.5c0-0.7-0.1-1.2-0.4-1.5C594.8,282.4,594.5,282.2,594,282.2z"/>
		</g>
		<g class="st3">
			<path class="st15" d="M504.2,296.6v0.5l-1,0.1c0.1,0.1,0.2,0.3,0.2,0.4c0.1,0.2,0.1,0.4,0.1,0.6c0,0.5-0.2,0.9-0.5,1.3
				s-0.8,0.5-1.5,0.5c-0.2,0-0.3,0-0.4,0c-0.3,0.2-0.5,0.4-0.5,0.7c0,0.1,0.1,0.3,0.2,0.3c0.1,0.1,0.3,0.1,0.6,0.1h0.9
				c0.6,0,1,0.1,1.3,0.4c0.3,0.2,0.5,0.6,0.5,1.1c0,0.6-0.2,1-0.7,1.4c-0.5,0.3-1.2,0.5-2.1,0.5c-0.7,0-1.2-0.1-1.6-0.4
				c-0.4-0.3-0.6-0.6-0.6-1.1c0-0.3,0.1-0.6,0.3-0.8s0.5-0.4,0.9-0.5c-0.1-0.1-0.3-0.2-0.3-0.3c-0.1-0.1-0.1-0.3-0.1-0.5
				c0-0.2,0.1-0.4,0.2-0.5s0.3-0.3,0.5-0.4c-0.3-0.1-0.5-0.3-0.7-0.6c-0.2-0.3-0.3-0.6-0.3-0.9c0-0.6,0.2-1,0.5-1.4
				c0.4-0.3,0.8-0.5,1.5-0.5c0.3,0,0.5,0,0.8,0.1H504.2z M500,302.9c0,0.3,0.1,0.5,0.4,0.7s0.6,0.2,1,0.2c0.7,0,1.2-0.1,1.5-0.3
				c0.3-0.2,0.5-0.5,0.5-0.8c0-0.3-0.1-0.5-0.3-0.6c-0.2-0.1-0.5-0.2-1-0.2h-1c-0.4,0-0.7,0.1-0.9,0.3S500,302.6,500,302.9z
				 M500.4,298.4c0,0.4,0.1,0.7,0.3,0.8s0.5,0.3,0.9,0.3c0.8,0,1.2-0.4,1.2-1.2c0-0.8-0.4-1.2-1.2-1.2c-0.4,0-0.7,0.1-0.9,0.3
				S500.4,298,500.4,298.4z"/>
			<path class="st15" d="M506.1,296.6v3.5c0,0.4,0.1,0.8,0.3,1s0.5,0.3,0.9,0.3c0.6,0,1-0.2,1.2-0.5c0.3-0.3,0.4-0.8,0.4-1.5v-2.8
				h0.8v5.4h-0.7l-0.1-0.7h0c-0.2,0.3-0.4,0.5-0.7,0.6c-0.3,0.1-0.6,0.2-1,0.2c-0.7,0-1.1-0.2-1.5-0.5c-0.3-0.3-0.5-0.8-0.5-1.5
				v-3.5H506.1z"/>
			<path class="st15" d="M511.4,295.2c0-0.2,0-0.3,0.1-0.4c0.1-0.1,0.2-0.1,0.3-0.1c0.1,0,0.2,0,0.3,0.1c0.1,0.1,0.1,0.2,0.1,0.4
				s0,0.3-0.1,0.4c-0.1,0.1-0.2,0.1-0.3,0.1c-0.1,0-0.3,0-0.3-0.1C511.5,295.5,511.4,295.4,511.4,295.2z M512.3,302h-0.8v-5.4h0.8
				V302z"/>
			<path class="st15" d="M517.7,301.3L517.7,301.3c-0.4,0.5-1,0.8-1.7,0.8c-0.7,0-1.2-0.2-1.6-0.7s-0.6-1.2-0.6-2s0.2-1.6,0.6-2.1
				s0.9-0.7,1.6-0.7c0.7,0,1.3,0.3,1.7,0.8h0.1l0-0.4l0-0.4v-2.2h0.8v7.6h-0.7L517.7,301.3z M516.1,301.4c0.6,0,1-0.2,1.2-0.5
				c0.2-0.3,0.4-0.8,0.4-1.5v-0.2c0-0.8-0.1-1.3-0.4-1.6c-0.3-0.3-0.7-0.5-1.2-0.5c-0.5,0-0.8,0.2-1.1,0.6c-0.3,0.4-0.4,0.9-0.4,1.6
				c0,0.7,0.1,1.2,0.4,1.5C515.2,301.2,515.6,301.4,516.1,301.4z"/>
			<path class="st15" d="M522.4,302.1c-0.8,0-1.4-0.2-1.9-0.7c-0.5-0.5-0.7-1.2-0.7-2c0-0.9,0.2-1.5,0.6-2.1c0.4-0.5,1-0.8,1.7-0.8
				c0.7,0,1.2,0.2,1.6,0.7c0.4,0.4,0.6,1,0.6,1.7v0.5h-3.7c0,0.6,0.2,1.1,0.5,1.4c0.3,0.3,0.7,0.5,1.3,0.5c0.6,0,1.1-0.1,1.7-0.4
				v0.7c-0.3,0.1-0.6,0.2-0.8,0.3C523.1,302.1,522.8,302.1,522.4,302.1z M522.2,297.2c-0.4,0-0.8,0.1-1,0.4
				c-0.3,0.3-0.4,0.7-0.5,1.2h2.8c0-0.5-0.1-0.9-0.3-1.2C523,297.4,522.6,297.2,522.2,297.2z"/>
			<path class="st15" d="M526.6,302h-0.8v-7.6h0.8V302z"/>
			<path class="st15" d="M528.3,295.2c0-0.2,0-0.3,0.1-0.4c0.1-0.1,0.2-0.1,0.3-0.1c0.1,0,0.2,0,0.3,0.1c0.1,0.1,0.1,0.2,0.1,0.4
				s0,0.3-0.1,0.4c-0.1,0.1-0.2,0.1-0.3,0.1c-0.1,0-0.2,0-0.3-0.1C528.3,295.5,528.3,295.4,528.3,295.2z M529.1,302h-0.8v-5.4h0.8
				V302z"/>
			<path class="st15" d="M534.5,302v-3.5c0-0.4-0.1-0.8-0.3-1c-0.2-0.2-0.5-0.3-0.9-0.3c-0.6,0-1,0.2-1.2,0.5
				c-0.3,0.3-0.4,0.8-0.4,1.5v2.8h-0.8v-5.4h0.7l0.1,0.7h0c0.2-0.3,0.4-0.5,0.7-0.6c0.3-0.1,0.6-0.2,1-0.2c0.6,0,1.1,0.2,1.5,0.5
				c0.3,0.3,0.5,0.8,0.5,1.5v3.5H534.5z"/>
			<path class="st15" d="M539.3,302.1c-0.8,0-1.4-0.2-1.9-0.7c-0.5-0.5-0.7-1.2-0.7-2c0-0.9,0.2-1.5,0.6-2.1c0.4-0.5,1-0.8,1.7-0.8
				c0.7,0,1.2,0.2,1.6,0.7c0.4,0.4,0.6,1,0.6,1.7v0.5h-3.7c0,0.6,0.2,1.1,0.5,1.4c0.3,0.3,0.7,0.5,1.3,0.5c0.6,0,1.1-0.1,1.7-0.4
				v0.7c-0.3,0.1-0.6,0.2-0.8,0.3C540,302.1,539.6,302.1,539.3,302.1z M539.1,297.2c-0.4,0-0.8,0.1-1,0.4c-0.3,0.3-0.4,0.7-0.5,1.2
				h2.8c0-0.5-0.1-0.9-0.3-1.2C539.8,297.4,539.5,297.2,539.1,297.2z"/>
			<path class="st15" d="M546.1,300.5c0,0.5-0.2,0.9-0.6,1.2s-0.9,0.4-1.6,0.4c-0.7,0-1.3-0.1-1.7-0.3V301c0.3,0.1,0.5,0.2,0.8,0.3
				c0.3,0.1,0.6,0.1,0.9,0.1c0.4,0,0.7-0.1,1-0.2c0.2-0.1,0.3-0.3,0.3-0.6c0-0.2-0.1-0.4-0.3-0.5c-0.2-0.1-0.5-0.3-1.1-0.5
				c-0.5-0.2-0.9-0.3-1.1-0.5c-0.2-0.1-0.4-0.3-0.5-0.5c-0.1-0.2-0.2-0.4-0.2-0.6c0-0.4,0.2-0.8,0.5-1c0.4-0.3,0.8-0.4,1.5-0.4
				c0.6,0,1.1,0.1,1.7,0.4l-0.3,0.7c-0.5-0.2-1-0.3-1.5-0.3c-0.4,0-0.7,0.1-0.9,0.2s-0.3,0.3-0.3,0.5c0,0.1,0,0.3,0.1,0.4
				c0.1,0.1,0.2,0.2,0.4,0.3s0.5,0.2,0.9,0.4c0.6,0.2,1.1,0.5,1.3,0.7C546,299.9,546.1,300.2,546.1,300.5z"/>
			<path class="st15" d="M550.9,300.5c0,0.5-0.2,0.9-0.6,1.2s-0.9,0.4-1.6,0.4c-0.7,0-1.3-0.1-1.7-0.3V301c0.3,0.1,0.5,0.2,0.8,0.3
				s0.6,0.1,0.9,0.1c0.4,0,0.7-0.1,1-0.2c0.2-0.1,0.3-0.3,0.3-0.6c0-0.2-0.1-0.4-0.3-0.5c-0.2-0.1-0.5-0.3-1.1-0.5
				c-0.5-0.2-0.9-0.3-1.1-0.5c-0.2-0.1-0.4-0.3-0.5-0.5s-0.2-0.4-0.2-0.6c0-0.4,0.2-0.8,0.5-1c0.4-0.3,0.8-0.4,1.5-0.4
				c0.6,0,1.1,0.1,1.7,0.4l-0.3,0.7c-0.5-0.2-1-0.3-1.5-0.3c-0.4,0-0.7,0.1-0.9,0.2s-0.3,0.3-0.3,0.5c0,0.1,0,0.3,0.1,0.4
				s0.2,0.2,0.4,0.3c0.2,0.1,0.5,0.2,0.9,0.4c0.6,0.2,1.1,0.5,1.3,0.7S550.9,300.2,550.9,300.5z"/>
		</g>
	</g>
</g>
</svg>
