<svg xmlns="http://www.w3.org/2000/svg" xmlns:xlink="http://www.w3.org/1999/xlink" id="tree-edit" x="0" y="0" viewBox="0 0 790 773" xml:space="preserve" style="enable-background:new 0 0 790 773"><style type="text/css">.st0{fill:#f1f1f6}.st1{fill:none;stroke:#cbcdd6}.st2{enable-background:new}.st3{fill:#fff}.st4{fill:#252a2e}.st5{fill:none}.st6{fill:#90939f}.st7{fill:none;stroke:#90939f;stroke-width:2}.st8{fill:none;stroke:#e0e1e9}.st9{opacity:0}.st10{fill:#217cbb}.st11{fill:#dcedf9}.st12{fill:none;stroke:#252a2e}.st13{fill:#6a6e79}.st14{fill:#b7b9c3}.st15{fill:#d6d5db}.st16{fill:none;stroke:#000;stroke-miterlimit:10}.st17{fill:#2b2a37}</style><g id="Rectangle_3463"><rect width="790" height="773" class="st0"/><rect width="789" height="772" x=".5" y=".5" class="st1"/></g><g class="st2"><path d="M43,43h-4.9v-8.6H43v1.5h-3.1v1.9h2.9v1.5h-2.9v2.2H43V43z"/><path d="M51.9,38.6c0,1.4-0.4,2.5-1.2,3.2s-2,1.1-3.5,1.1h-2.4v-8.6h2.7c1.4,0,2.5,0.4,3.3,1.1S51.9,37.3,51.9,38.6z M50,38.7 c0-1.8-0.8-2.8-2.4-2.8h-1v5.6h0.8C49.1,41.5,50,40.6,50,38.7z"/><path d="M53.7,43v-8.6h1.8V43H53.7z"/><path d="M61,43h-1.8v-7.1h-2.3v-1.5h6.5v1.5H61V43z"/><path d="M64.6,43v-8.6h1.8V43H64.6z"/><path d="M76.2,43h-2.3l-3.7-6.5h-0.1c0.1,1.1,0.1,2,0.1,2.4v4h-1.6v-8.6h2.3l3.7,6.4h0c-0.1-1.1-0.1-1.9-0.1-2.4v-4.1h1.6V43z"/><path d="M81.6,38.2H85v4.4c-0.6,0.2-1.1,0.3-1.6,0.4s-1,0.1-1.5,0.1c-1.3,0-2.3-0.4-3-1.1s-1-1.9-1-3.3c0-1.4,0.4-2.5,1.2-3.2 s1.9-1.2,3.3-1.2c0.9,0,1.7,0.2,2.5,0.5l-0.6,1.5c-0.6-0.3-1.3-0.5-2-0.5c-0.8,0-1.4,0.3-1.9,0.8s-0.7,1.2-0.7,2.1 c0,0.9,0.2,1.6,0.6,2.1s0.9,0.7,1.7,0.7c0.4,0,0.8,0,1.2-0.1v-1.8h-1.6V38.2z"/><path d="M95.4,43l-0.6-2h-3.1L91,43h-2l3-8.6h2.2l3,8.6H95.4z M94.3,39.4c-0.6-1.8-0.9-2.9-1-3.1s-0.1-0.4-0.2-0.6 c-0.1,0.5-0.5,1.7-1.1,3.7H94.3z"/><path d="M104.8,43H103v-7.1h-2.3v-1.5h6.5v1.5h-2.3V43z"/><path d="M110.3,39.7V43h-1.8v-8.6h2.5c1.2,0,2,0.2,2.6,0.6s0.8,1.1,0.8,1.9c0,0.5-0.1,1-0.4,1.3s-0.7,0.7-1.2,0.9 c1.3,1.9,2.1,3.2,2.5,3.7h-2l-2-3.3H110.3z M110.3,38.2h0.6c0.6,0,1-0.1,1.3-0.3s0.4-0.5,0.4-0.9c0-0.4-0.1-0.7-0.4-0.9 s-0.7-0.3-1.3-0.3h-0.6V38.2z"/><path d="M121.3,43h-4.9v-8.6h4.9v1.5h-3.1v1.9h2.9v1.5h-2.9v2.2h3.1V43z"/><path d="M128.1,43h-4.9v-8.6h4.9v1.5h-3.1v1.9h2.9v1.5h-2.9v2.2h3.1V43z"/><path d="M133,43v-8.6h1.8V43H133z"/><path d="M140.2,43h-1.8v-7.1h-2.3v-1.5h6.5v1.5h-2.3V43z"/><path d="M148.8,43h-4.9v-8.6h4.9v1.5h-3.1v1.9h2.9v1.5h-2.9v2.2h3.1V43z"/><path d="M154.2,43l-2.1-6.7h-0.1c0.1,1.4,0.1,2.3,0.1,2.7v4h-1.6v-8.6h2.5l2,6.6h0l2.2-6.6h2.5V43h-1.7v-4.1c0-0.2,0-0.4,0-0.7 s0-0.9,0.1-2h-0.1l-2.2,6.7H154.2z"/></g><g id="Group_156752" transform="translate(-693 -5605)"><g id="Group_156699" transform="translate(496 2196)"><g id="tree-item-checkbox-level_1" transform="translate(235 3991.5)"><rect id="Rectangle_3345" width="320" height="48" class="st3"/><g class="st2"><path d="M85.1,30.2h-1.3V19.9h-3.6v-1.2h8.6v1.2h-3.6V30.2z" class="st4"/><path d="M94.1,21.5c0.4,0,0.7,0,1,0.1L95,22.8c-0.4-0.1-0.7-0.1-0.9-0.1c-0.7,0-1.3,0.3-1.8,0.8s-0.7,1.3-0.7,2.1 v4.6h-1.3v-8.6h1.1l0.1,1.6h0.1c0.3-0.6,0.7-1,1.1-1.3C93.1,21.6,93.6,21.5,94.1,21.5z" class="st4"/><path d="M100.4,30.3c-1.3,0-2.3-0.4-3-1.2c-0.7-0.8-1.1-1.8-1.1-3.2c0-1.4,0.3-2.5,1-3.3s1.6-1.2,2.7-1.2 c1.1,0,1.9,0.4,2.5,1.1s0.9,1.6,0.9,2.8v0.8h-5.9c0,1,0.3,1.8,0.8,2.3c0.5,0.5,1.2,0.8,2,0.8c0.9,0,1.8-0.2,2.7-0.6v1.2 c-0.5,0.2-0.9,0.3-1.3,0.4C101.4,30.3,101,30.3,100.4,30.3z M100,22.6c-0.7,0-1.2,0.2-1.6,0.7c-0.4,0.4-0.6,1.1-0.7,1.9h4.5 c0-0.8-0.2-1.4-0.5-1.9C101.2,22.8,100.7,22.6,100,22.6z" class="st4"/><path d="M109.4,30.3c-1.3,0-2.3-0.4-3-1.2c-0.7-0.8-1.1-1.8-1.1-3.2c0-1.4,0.3-2.5,1-3.3s1.6-1.2,2.7-1.2 c1.1,0,1.9,0.4,2.5,1.1s0.9,1.6,0.9,2.8v0.8h-5.9c0,1,0.3,1.8,0.8,2.3c0.5,0.5,1.2,0.8,2,0.8c0.9,0,1.8-0.2,2.7-0.6v1.2 c-0.5,0.2-0.9,0.3-1.3,0.4C110.4,30.3,109.9,30.3,109.4,30.3z M109,22.6c-0.7,0-1.2,0.2-1.6,0.7c-0.4,0.4-0.6,1.1-0.7,1.9h4.5 c0-0.8-0.2-1.4-0.5-1.9C110.2,22.8,109.7,22.6,109,22.6z" class="st4"/><path d="M119.1,30.2V18.8h1.3v11.4H119.1z" class="st4"/><path d="M126.1,29.3c0.2,0,0.5,0,0.7-0.1c0.2,0,0.4-0.1,0.5-0.1v1c-0.1,0.1-0.3,0.1-0.6,0.2s-0.5,0.1-0.7,0.1 c-1.7,0-2.5-0.9-2.5-2.6v-5.1h-1.2V22l1.2-0.5l0.5-1.8h0.8v2h2.5v1h-2.5v5c0,0.5,0.1,0.9,0.4,1.2 C125.3,29.1,125.7,29.3,126.1,29.3z" class="st4"/><path d="M132.6,30.3c-1.3,0-2.3-0.4-3-1.2c-0.7-0.8-1.1-1.8-1.1-3.2c0-1.4,0.3-2.5,1-3.3s1.6-1.2,2.7-1.2 c1.1,0,1.9,0.4,2.5,1.1s0.9,1.6,0.9,2.8v0.8h-5.9c0,1,0.3,1.8,0.8,2.3c0.5,0.5,1.2,0.8,2,0.8c0.9,0,1.8-0.2,2.7-0.6v1.2 c-0.5,0.2-0.9,0.3-1.3,0.4C133.7,30.3,133.2,30.3,132.6,30.3z M132.2,22.6c-0.7,0-1.2,0.2-1.6,0.7c-0.4,0.4-0.6,1.1-0.7,1.9h4.5 c0-0.8-0.2-1.4-0.5-1.9C133.4,22.8,132.9,22.6,132.2,22.6z" class="st4"/><path d="M148.9,30.2v-5.6c0-0.7-0.1-1.2-0.4-1.5c-0.3-0.3-0.7-0.5-1.4-0.5c-0.8,0-1.4,0.2-1.8,0.7 c-0.4,0.5-0.6,1.2-0.6,2.1v4.8h-1.3v-5.6c0-0.7-0.1-1.2-0.4-1.5c-0.3-0.3-0.7-0.5-1.4-0.5c-0.8,0-1.4,0.2-1.8,0.7 c-0.4,0.5-0.6,1.3-0.6,2.4v4.5H138v-8.6h1.1l0.2,1.2h0.1c0.2-0.4,0.6-0.7,1-1s0.9-0.4,1.5-0.4c1.3,0,2.2,0.5,2.6,1.5h0.1 c0.3-0.4,0.6-0.8,1.1-1.1s1-0.4,1.7-0.4c1,0,1.7,0.2,2.2,0.7c0.5,0.5,0.7,1.3,0.7,2.4v5.6H148.9z" class="st4"/></g><g id="Arrow_down" transform="translate(16 36) rotate(-90)"><path id="Path_3872" d="M0,0h24v24H0V0z" class="st5"/><path id="Path_3871" d="M11.8,15.5c-0.2,0-0.4-0.1-0.6-0.2L6,10.1L7.1,9l4.7,4.7L16.4,9l1.1,1.1l-5.2,5.2 C12.2,15.5,12,15.5,11.8,15.5z" class="st6"/></g><g id="Checkbox" transform="translate(48 12)"><rect id="box" width="24" height="24" class="st5"/><g id="BG"><path d="M2,0h12c1.1,0,2,0.9,2,2v12c0,1.1-0.9,2-2,2H2c-1.1,0-2-0.9-2-2V2C0,0.9,0.9,0,2,0z" class="st3" transform="translate(4 4)"/><path d="M2,1h12c0.6,0,1,0.4,1,1v12c0,0.6-0.4,1-1,1H2c-0.6,0-1-0.4-1-1V2C1,1.4,1.4,1,2,1z" class="st7" transform="translate(4 4)"/></g></g></g><g id="tree-item-checkbox-level_1-2" transform="translate(235 3943)"><rect id="Rectangle_3345-2" width="320" height="48" class="st3"/><line id="bottom_border" x1="0" x2="320" y1="48.5" y2="48.5" class="st8"/><line id="top_border" x1="0" x2="320" y1=".5" y2=".5" class="st8"/><g class="st2"><path d="M85.1,30.2h-1.3V19.9h-3.6v-1.2h8.6v1.2h-3.6V30.2z" class="st4"/><path d="M94.1,21.5c0.4,0,0.7,0,1,0.1L95,22.8c-0.4-0.1-0.7-0.1-0.9-0.1c-0.7,0-1.3,0.3-1.8,0.8s-0.7,1.3-0.7,2.1 v4.6h-1.3v-8.6h1.1l0.1,1.6h0.1c0.3-0.6,0.7-1,1.1-1.3C93.1,21.6,93.6,21.5,94.1,21.5z" class="st4"/><path d="M100.4,30.3c-1.3,0-2.3-0.4-3-1.2c-0.7-0.8-1.1-1.8-1.1-3.2c0-1.4,0.3-2.5,1-3.3s1.6-1.2,2.7-1.2 c1.1,0,1.9,0.4,2.5,1.1s0.9,1.6,0.9,2.8v0.8h-5.9c0,1,0.3,1.8,0.8,2.3c0.5,0.5,1.2,0.8,2,0.8c0.9,0,1.8-0.2,2.7-0.6v1.2 c-0.5,0.2-0.9,0.3-1.3,0.4C101.4,30.3,101,30.3,100.4,30.3z M100,22.6c-0.7,0-1.2,0.2-1.6,0.7c-0.4,0.4-0.6,1.1-0.7,1.9h4.5 c0-0.8-0.2-1.4-0.5-1.9C101.2,22.8,100.7,22.6,100,22.6z" class="st4"/><path d="M109.4,30.3c-1.3,0-2.3-0.4-3-1.2c-0.7-0.8-1.1-1.8-1.1-3.2c0-1.4,0.3-2.5,1-3.3s1.6-1.2,2.7-1.2 c1.1,0,1.9,0.4,2.5,1.1s0.9,1.6,0.9,2.8v0.8h-5.9c0,1,0.3,1.8,0.8,2.3c0.5,0.5,1.2,0.8,2,0.8c0.9,0,1.8-0.2,2.7-0.6v1.2 c-0.5,0.2-0.9,0.3-1.3,0.4C110.4,30.3,109.9,30.3,109.4,30.3z M109,22.6c-0.7,0-1.2,0.2-1.6,0.7c-0.4,0.4-0.6,1.1-0.7,1.9h4.5 c0-0.8-0.2-1.4-0.5-1.9C110.2,22.8,109.7,22.6,109,22.6z" class="st4"/><path d="M119.1,30.2V18.8h1.3v11.4H119.1z" class="st4"/><path d="M126.1,29.3c0.2,0,0.5,0,0.7-0.1c0.2,0,0.4-0.1,0.5-0.1v1c-0.1,0.1-0.3,0.1-0.6,0.2s-0.5,0.1-0.7,0.1 c-1.7,0-2.5-0.9-2.5-2.6v-5.1h-1.2V22l1.2-0.5l0.5-1.8h0.8v2h2.5v1h-2.5v5c0,0.5,0.1,0.9,0.4,1.2 C125.3,29.1,125.7,29.3,126.1,29.3z" class="st4"/><path d="M132.6,30.3c-1.3,0-2.3-0.4-3-1.2c-0.7-0.8-1.1-1.8-1.1-3.2c0-1.4,0.3-2.5,1-3.3s1.6-1.2,2.7-1.2 c1.1,0,1.9,0.4,2.5,1.1s0.9,1.6,0.9,2.8v0.8h-5.9c0,1,0.3,1.8,0.8,2.3c0.5,0.5,1.2,0.8,2,0.8c0.9,0,1.8-0.2,2.7-0.6v1.2 c-0.5,0.2-0.9,0.3-1.3,0.4C133.7,30.3,133.2,30.3,132.6,30.3z M132.2,22.6c-0.7,0-1.2,0.2-1.6,0.7c-0.4,0.4-0.6,1.1-0.7,1.9h4.5 c0-0.8-0.2-1.4-0.5-1.9C133.4,22.8,132.9,22.6,132.2,22.6z" class="st4"/><path d="M148.9,30.2v-5.6c0-0.7-0.1-1.2-0.4-1.5c-0.3-0.3-0.7-0.5-1.4-0.5c-0.8,0-1.4,0.2-1.8,0.7 c-0.4,0.5-0.6,1.2-0.6,2.1v4.8h-1.3v-5.6c0-0.7-0.1-1.2-0.4-1.5c-0.3-0.3-0.7-0.5-1.4-0.5c-0.8,0-1.4,0.2-1.8,0.7 c-0.4,0.5-0.6,1.3-0.6,2.4v4.5H138v-8.6h1.1l0.2,1.2h0.1c0.2-0.4,0.6-0.7,1-1s0.9-0.4,1.5-0.4c1.3,0,2.2,0.5,2.6,1.5h0.1 c0.3-0.4,0.6-0.8,1.1-1.1s1-0.4,1.7-0.4c1,0,1.7,0.2,2.2,0.7c0.5,0.5,0.7,1.3,0.7,2.4v5.6H148.9z" class="st4"/></g><g id="Arrow_down-2" transform="translate(16 36) rotate(-90)"><path id="Path_3872-2" d="M0,0h24v24H0V0z" class="st5"/><path id="Path_3871-2" d="M11.8,15.5c-0.2,0-0.4-0.1-0.6-0.2L6,10.1L7.1,9l4.7,4.7L16.4,9l1.1,1.1l-5.2,5.2 C12.2,15.5,12,15.5,11.8,15.5z" class="st6"/></g><g id="Checkbox-2" transform="translate(48 12)"><rect id="box-2" width="24" height="24" class="st5"/><g id="BG-2"><path d="M2,0h12c1.1,0,2,0.9,2,2v12c0,1.1-0.9,2-2,2H2c-1.1,0-2-0.9-2-2V2C0,0.9,0.9,0,2,0z" class="st3" transform="translate(4 4)"/><path d="M2,1h12c0.6,0,1,0.4,1,1v12c0,0.6-0.4,1-1,1H2c-0.6,0-1-0.4-1-1V2C1,1.4,1.4,1,2,1z" class="st7" transform="translate(4 4)"/></g></g></g><g id="tree-item-checkbox-level_1-3" transform="translate(235 3895)"><rect id="Rectangle_3345-3" width="320" height="48" class="st3"/><g class="st2"><path d="M179.1,30.2h-1.3V19.9h-3.6v-1.2h8.6v1.2h-3.6V30.2z" class="st4"/><path d="M188.1,21.5c0.4,0,0.7,0,1,0.1l-0.2,1.2c-0.4-0.1-0.7-0.1-0.9-0.1c-0.7,0-1.3,0.3-1.8,0.8s-0.7,1.3-0.7,2.1 v4.6h-1.3v-8.6h1.1l0.1,1.6h0.1c0.3-0.6,0.7-1,1.1-1.3C187.1,21.6,187.6,21.5,188.1,21.5z" class="st4"/><path d="M194.4,30.3c-1.3,0-2.3-0.4-3-1.2c-0.7-0.8-1.1-1.8-1.1-3.2c0-1.4,0.3-2.5,1-3.3s1.6-1.2,2.7-1.2 c1.1,0,1.9,0.4,2.5,1.1s0.9,1.6,0.9,2.8v0.8h-5.9c0,1,0.3,1.8,0.8,2.3c0.5,0.5,1.2,0.8,2,0.8c0.9,0,1.8-0.2,2.7-0.6v1.2 c-0.5,0.2-0.9,0.3-1.3,0.4C195.4,30.3,195,30.3,194.4,30.3z M194,22.6c-0.7,0-1.2,0.2-1.6,0.7c-0.4,0.4-0.6,1.1-0.7,1.9h4.5 c0-0.8-0.2-1.4-0.5-1.9C195.2,22.8,194.7,22.6,194,22.6z" class="st4"/><path d="M203.4,30.3c-1.3,0-2.3-0.4-3-1.2c-0.7-0.8-1.1-1.8-1.1-3.2c0-1.4,0.3-2.5,1-3.3s1.6-1.2,2.7-1.2 c1.1,0,1.9,0.4,2.5,1.1s0.9,1.6,0.9,2.8v0.8h-5.9c0,1,0.3,1.8,0.8,2.3c0.5,0.5,1.2,0.8,2,0.8c0.9,0,1.8-0.2,2.7-0.6v1.2 c-0.5,0.2-0.9,0.3-1.3,0.4C204.4,30.3,203.9,30.3,203.4,30.3z M203,22.6c-0.7,0-1.2,0.2-1.6,0.7c-0.4,0.4-0.6,1.1-0.7,1.9h4.5 c0-0.8-0.2-1.4-0.5-1.9C204.2,22.8,203.7,22.6,203,22.6z" class="st4"/><path d="M213.1,30.2V18.8h1.3v11.4H213.1z" class="st4"/><path d="M220.1,29.3c0.2,0,0.5,0,0.7-0.1c0.2,0,0.4-0.1,0.5-0.1v1c-0.1,0.1-0.3,0.1-0.6,0.2s-0.5,0.1-0.7,0.1 c-1.7,0-2.5-0.9-2.5-2.6v-5.1h-1.2V22l1.2-0.5l0.5-1.8h0.8v2h2.5v1h-2.5v5c0,0.5,0.1,0.9,0.4,1.2 C219.3,29.1,219.7,29.3,220.1,29.3z" class="st4"/><path d="M226.6,30.3c-1.3,0-2.3-0.4-3-1.2c-0.7-0.8-1.1-1.8-1.1-3.2c0-1.4,0.3-2.5,1-3.3s1.6-1.2,2.7-1.2 c1.1,0,1.9,0.4,2.5,1.1s0.9,1.6,0.9,2.8v0.8h-5.9c0,1,0.3,1.8,0.8,2.3c0.5,0.5,1.2,0.8,2,0.8c0.9,0,1.8-0.2,2.7-0.6v1.2 c-0.5,0.2-0.9,0.3-1.3,0.4C227.7,30.3,227.2,30.3,226.6,30.3z M226.2,22.6c-0.7,0-1.2,0.2-1.6,0.7c-0.4,0.4-0.6,1.1-0.7,1.9h4.5 c0-0.8-0.2-1.4-0.5-1.9C227.4,22.8,226.9,22.6,226.2,22.6z" class="st4"/><path d="M242.9,30.2v-5.6c0-0.7-0.1-1.2-0.4-1.5c-0.3-0.3-0.7-0.5-1.4-0.5c-0.8,0-1.4,0.2-1.8,0.7 c-0.4,0.5-0.6,1.2-0.6,2.1v4.8h-1.3v-5.6c0-0.7-0.1-1.2-0.4-1.5c-0.3-0.3-0.7-0.5-1.4-0.5c-0.8,0-1.4,0.2-1.8,0.7 c-0.4,0.5-0.6,1.3-0.6,2.4v4.5H232v-8.6h1.1l0.2,1.2h0.1c0.2-0.4,0.6-0.7,1-1s0.9-0.4,1.5-0.4c1.3,0,2.2,0.5,2.6,1.5h0.1 c0.3-0.4,0.6-0.8,1.1-1.1s1-0.4,1.7-0.4c1,0,1.7,0.2,2.2,0.7c0.5,0.5,0.7,1.3,0.7,2.4v5.6H242.9z" class="st4"/></g><g id="Arrow_down-3" class="st9" transform="translate(80 12)"><path id="Path_3872-3" d="M0,0h24v24H0V0z" class="st5"/><path id="Path_3871-3" d="M11.8,15.5c-0.2,0-0.4-0.1-0.6-0.2L6,10.1L7.1,9l4.7,4.7L16.4,9l1.1,1.1l-5.2,5.2 C12.2,15.5,12,15.5,11.8,15.5z" class="st6"/></g><g id="Checkbox-3" transform="translate(142 12)"><rect id="box-3" width="24" height="24" class="st5"/><g id="BG-3"><path d="M2,0h12c1.1,0,2,0.9,2,2v12c0,1.1-0.9,2-2,2H2c-1.1,0-2-0.9-2-2V2C0,0.9,0.9,0,2,0z" class="st3" transform="translate(4 4)"/><path d="M2,1h12c0.6,0,1,0.4,1,1v12c0,0.6-0.4,1-1,1H2c-0.6,0-1-0.4-1-1V2C1,1.4,1.4,1,2,1z" class="st7" transform="translate(4 4)"/></g></g></g><g id="tree-item-checkbox-level_1-4" transform="translate(235 3847)"><rect id="Rectangle_3345-4" width="320" height="48" class="st3"/><g class="st2"><path d="M179.1,30.2h-1.3V19.9h-3.6v-1.2h8.6v1.2h-3.6V30.2z" class="st4"/><path d="M188.1,21.5c0.4,0,0.7,0,1,0.1l-0.2,1.2c-0.4-0.1-0.7-0.1-0.9-0.1c-0.7,0-1.3,0.3-1.8,0.8s-0.7,1.3-0.7,2.1 v4.6h-1.3v-8.6h1.1l0.1,1.6h0.1c0.3-0.6,0.7-1,1.1-1.3C187.1,21.6,187.6,21.5,188.1,21.5z" class="st4"/><path d="M194.4,30.3c-1.3,0-2.3-0.4-3-1.2c-0.7-0.8-1.1-1.8-1.1-3.2c0-1.4,0.3-2.5,1-3.3s1.6-1.2,2.7-1.2 c1.1,0,1.9,0.4,2.5,1.1s0.9,1.6,0.9,2.8v0.8h-5.9c0,1,0.3,1.8,0.8,2.3c0.5,0.5,1.2,0.8,2,0.8c0.9,0,1.8-0.2,2.7-0.6v1.2 c-0.5,0.2-0.9,0.3-1.3,0.4C195.4,30.3,195,30.3,194.4,30.3z M194,22.6c-0.7,0-1.2,0.2-1.6,0.7c-0.4,0.4-0.6,1.1-0.7,1.9h4.5 c0-0.8-0.2-1.4-0.5-1.9C195.2,22.8,194.7,22.6,194,22.6z" class="st4"/><path d="M203.4,30.3c-1.3,0-2.3-0.4-3-1.2c-0.7-0.8-1.1-1.8-1.1-3.2c0-1.4,0.3-2.5,1-3.3s1.6-1.2,2.7-1.2 c1.1,0,1.9,0.4,2.5,1.1s0.9,1.6,0.9,2.8v0.8h-5.9c0,1,0.3,1.8,0.8,2.3c0.5,0.5,1.2,0.8,2,0.8c0.9,0,1.8-0.2,2.7-0.6v1.2 c-0.5,0.2-0.9,0.3-1.3,0.4C204.4,30.3,203.9,30.3,203.4,30.3z M203,22.6c-0.7,0-1.2,0.2-1.6,0.7c-0.4,0.4-0.6,1.1-0.7,1.9h4.5 c0-0.8-0.2-1.4-0.5-1.9C204.2,22.8,203.7,22.6,203,22.6z" class="st4"/><path d="M213.1,30.2V18.8h1.3v11.4H213.1z" class="st4"/><path d="M220.1,29.3c0.2,0,0.5,0,0.7-0.1c0.2,0,0.4-0.1,0.5-0.1v1c-0.1,0.1-0.3,0.1-0.6,0.2s-0.5,0.1-0.7,0.1 c-1.7,0-2.5-0.9-2.5-2.6v-5.1h-1.2V22l1.2-0.5l0.5-1.8h0.8v2h2.5v1h-2.5v5c0,0.5,0.1,0.9,0.4,1.2 C219.3,29.1,219.7,29.3,220.1,29.3z" class="st4"/><path d="M226.6,30.3c-1.3,0-2.3-0.4-3-1.2c-0.7-0.8-1.1-1.8-1.1-3.2c0-1.4,0.3-2.5,1-3.3s1.6-1.2,2.7-1.2 c1.1,0,1.9,0.4,2.5,1.1s0.9,1.6,0.9,2.8v0.8h-5.9c0,1,0.3,1.8,0.8,2.3c0.5,0.5,1.2,0.8,2,0.8c0.9,0,1.8-0.2,2.7-0.6v1.2 c-0.5,0.2-0.9,0.3-1.3,0.4C227.7,30.3,227.2,30.3,226.6,30.3z M226.2,22.6c-0.7,0-1.2,0.2-1.6,0.7c-0.4,0.4-0.6,1.1-0.7,1.9h4.5 c0-0.8-0.2-1.4-0.5-1.9C227.4,22.8,226.9,22.6,226.2,22.6z" class="st4"/><path d="M242.9,30.2v-5.6c0-0.7-0.1-1.2-0.4-1.5c-0.3-0.3-0.7-0.5-1.4-0.5c-0.8,0-1.4,0.2-1.8,0.7 c-0.4,0.5-0.6,1.2-0.6,2.1v4.8h-1.3v-5.6c0-0.7-0.1-1.2-0.4-1.5c-0.3-0.3-0.7-0.5-1.4-0.5c-0.8,0-1.4,0.2-1.8,0.7 c-0.4,0.5-0.6,1.3-0.6,2.4v4.5H232v-8.6h1.1l0.2,1.2h0.1c0.2-0.4,0.6-0.7,1-1s0.9-0.4,1.5-0.4c1.3,0,2.2,0.5,2.6,1.5h0.1 c0.3-0.4,0.6-0.8,1.1-1.1s1-0.4,1.7-0.4c1,0,1.7,0.2,2.2,0.7c0.5,0.5,0.7,1.3,0.7,2.4v5.6H242.9z" class="st4"/></g><g id="Arrow_down-4" class="st9" transform="translate(110 36) rotate(-90)"><path id="Path_3872-4" d="M0,0h24v24H0V0z" class="st5"/><path id="Path_3871-4" d="M11.8,15.5c-0.2,0-0.4-0.1-0.6-0.2L6,10.1L7.1,9l4.7,4.7L16.4,9l1.1,1.1l-5.2,5.2 C12.2,15.5,12,15.5,11.8,15.5z" class="st6"/></g><g id="Checkbox-4" transform="translate(142 12)"><rect id="box-4" width="24" height="24" class="st5"/><path id="BG-4" d="M6,4h12c1.1,0,2,0.9,2,2v12c0,1.1-0.9,2-2,2H6c-1.1,0-2-0.9-2-2V6C4,4.9,4.9,4,6,4z" class="st10"/><path id="Check" d="M10.4,16l-4-4l1.1-1.1l2.9,2.9l6.1-6.1l1.1,1.1L10.4,16z" class="st3"/></g></g><g id="tree-item-checkbox-level_1-5" transform="translate(235 3799)"><rect id="Rectangle_3345-5" width="320" height="48" class="st3"/><g class="st2"><path d="M179.1,30.2h-1.3V19.9h-3.6v-1.2h8.6v1.2h-3.6V30.2z" class="st4"/><path d="M188.1,21.5c0.4,0,0.7,0,1,0.1l-0.2,1.2c-0.4-0.1-0.7-0.1-0.9-0.1c-0.7,0-1.3,0.3-1.8,0.8s-0.7,1.3-0.7,2.1 v4.6h-1.3v-8.6h1.1l0.1,1.6h0.1c0.3-0.6,0.7-1,1.1-1.3C187.1,21.6,187.6,21.5,188.1,21.5z" class="st4"/><path d="M194.4,30.3c-1.3,0-2.3-0.4-3-1.2c-0.7-0.8-1.1-1.8-1.1-3.2c0-1.4,0.3-2.5,1-3.3s1.6-1.2,2.7-1.2 c1.1,0,1.9,0.4,2.5,1.1s0.9,1.6,0.9,2.8v0.8h-5.9c0,1,0.3,1.8,0.8,2.3c0.5,0.5,1.2,0.8,2,0.8c0.9,0,1.8-0.2,2.7-0.6v1.2 c-0.5,0.2-0.9,0.3-1.3,0.4C195.4,30.3,195,30.3,194.4,30.3z M194,22.6c-0.7,0-1.2,0.2-1.6,0.7c-0.4,0.4-0.6,1.1-0.7,1.9h4.5 c0-0.8-0.2-1.4-0.5-1.9C195.2,22.8,194.7,22.6,194,22.6z" class="st4"/><path d="M203.4,30.3c-1.3,0-2.3-0.4-3-1.2c-0.7-0.8-1.1-1.8-1.1-3.2c0-1.4,0.3-2.5,1-3.3s1.6-1.2,2.7-1.2 c1.1,0,1.9,0.4,2.5,1.1s0.9,1.6,0.9,2.8v0.8h-5.9c0,1,0.3,1.8,0.8,2.3c0.5,0.5,1.2,0.8,2,0.8c0.9,0,1.8-0.2,2.7-0.6v1.2 c-0.5,0.2-0.9,0.3-1.3,0.4C204.4,30.3,203.9,30.3,203.4,30.3z M203,22.6c-0.7,0-1.2,0.2-1.6,0.7c-0.4,0.4-0.6,1.1-0.7,1.9h4.5 c0-0.8-0.2-1.4-0.5-1.9C204.2,22.8,203.7,22.6,203,22.6z" class="st4"/><path d="M213.1,30.2V18.8h1.3v11.4H213.1z" class="st4"/><path d="M220.1,29.3c0.2,0,0.5,0,0.7-0.1c0.2,0,0.4-0.1,0.5-0.1v1c-0.1,0.1-0.3,0.1-0.6,0.2s-0.5,0.1-0.7,0.1 c-1.7,0-2.5-0.9-2.5-2.6v-5.1h-1.2V22l1.2-0.5l0.5-1.8h0.8v2h2.5v1h-2.5v5c0,0.5,0.1,0.9,0.4,1.2 C219.3,29.1,219.7,29.3,220.1,29.3z" class="st4"/><path d="M226.6,30.3c-1.3,0-2.3-0.4-3-1.2c-0.7-0.8-1.1-1.8-1.1-3.2c0-1.4,0.3-2.5,1-3.3s1.6-1.2,2.7-1.2 c1.1,0,1.9,0.4,2.5,1.1s0.9,1.6,0.9,2.8v0.8h-5.9c0,1,0.3,1.8,0.8,2.3c0.5,0.5,1.2,0.8,2,0.8c0.9,0,1.8-0.2,2.7-0.6v1.2 c-0.5,0.2-0.9,0.3-1.3,0.4C227.7,30.3,227.2,30.3,226.6,30.3z M226.2,22.6c-0.7,0-1.2,0.2-1.6,0.7c-0.4,0.4-0.6,1.1-0.7,1.9h4.5 c0-0.8-0.2-1.4-0.5-1.9C227.4,22.8,226.9,22.6,226.2,22.6z" class="st4"/><path d="M242.9,30.2v-5.6c0-0.7-0.1-1.2-0.4-1.5c-0.3-0.3-0.7-0.5-1.4-0.5c-0.8,0-1.4,0.2-1.8,0.7 c-0.4,0.5-0.6,1.2-0.6,2.1v4.8h-1.3v-5.6c0-0.7-0.1-1.2-0.4-1.5c-0.3-0.3-0.7-0.5-1.4-0.5c-0.8,0-1.4,0.2-1.8,0.7 c-0.4,0.5-0.6,1.3-0.6,2.4v4.5H232v-8.6h1.1l0.2,1.2h0.1c0.2-0.4,0.6-0.7,1-1s0.9-0.4,1.5-0.4c1.3,0,2.2,0.5,2.6,1.5h0.1 c0.3-0.4,0.6-0.8,1.1-1.1s1-0.4,1.7-0.4c1,0,1.7,0.2,2.2,0.7c0.5,0.5,0.7,1.3,0.7,2.4v5.6H242.9z" class="st4"/></g><g id="Arrow_down-5" class="st9" transform="translate(80 12)"><path id="Path_3872-5" d="M0,0h24v24H0V0z" class="st5"/><path id="Path_3871-5" d="M11.8,15.5c-0.2,0-0.4-0.1-0.6-0.2L6,10.1L7.1,9l4.7,4.7L16.4,9l1.1,1.1l-5.2,5.2 C12.2,15.5,12,15.5,11.8,15.5z" class="st6"/></g><g id="Checkbox-5" transform="translate(142 12)"><rect id="box-5" width="24" height="24" class="st5"/><g id="BG-5"><path d="M2,0h12c1.1,0,2,0.9,2,2v12c0,1.1-0.9,2-2,2H2c-1.1,0-2-0.9-2-2V2C0,0.9,0.9,0,2,0z" class="st3" transform="translate(4 4)"/><path d="M2,1h12c0.6,0,1,0.4,1,1v12c0,0.6-0.4,1-1,1H2c-0.6,0-1-0.4-1-1V2C1,1.4,1.4,1,2,1z" class="st7" transform="translate(4 4)"/></g></g></g><g id="tree-item-checkbox-level_1-6" transform="translate(235 3751)"><rect id="Rectangle_3345-6" width="320" height="48" class="st3"/><g class="st2"><path d="M149.1,30.2h-1.3V19.9h-3.6v-1.2h8.6v1.2h-3.6V30.2z" class="st4"/><path d="M158.1,21.5c0.4,0,0.7,0,1,0.1l-0.2,1.2c-0.4-0.1-0.7-0.1-0.9-0.1c-0.7,0-1.3,0.3-1.8,0.8s-0.7,1.3-0.7,2.1 v4.6h-1.3v-8.6h1.1l0.1,1.6h0.1c0.3-0.6,0.7-1,1.1-1.3C157.1,21.6,157.6,21.5,158.1,21.5z" class="st4"/><path d="M164.4,30.3c-1.3,0-2.3-0.4-3-1.2c-0.7-0.8-1.1-1.8-1.1-3.2c0-1.4,0.3-2.5,1-3.3s1.6-1.2,2.7-1.2 c1.1,0,1.9,0.4,2.5,1.1s0.9,1.6,0.9,2.8v0.8h-5.9c0,1,0.3,1.8,0.8,2.3c0.5,0.5,1.2,0.8,2,0.8c0.9,0,1.8-0.2,2.7-0.6v1.2 c-0.5,0.2-0.9,0.3-1.3,0.4C165.4,30.3,165,30.3,164.4,30.3z M164,22.6c-0.7,0-1.2,0.2-1.6,0.7c-0.4,0.4-0.6,1.1-0.7,1.9h4.5 c0-0.8-0.2-1.4-0.5-1.9C165.2,22.8,164.7,22.6,164,22.6z" class="st4"/><path d="M173.4,30.3c-1.3,0-2.3-0.4-3-1.2c-0.7-0.8-1.1-1.8-1.1-3.2c0-1.4,0.3-2.5,1-3.3s1.6-1.2,2.7-1.2 c1.1,0,1.9,0.4,2.5,1.1s0.9,1.6,0.9,2.8v0.8h-5.9c0,1,0.3,1.8,0.8,2.3c0.5,0.5,1.2,0.8,2,0.8c0.9,0,1.8-0.2,2.7-0.6v1.2 c-0.5,0.2-0.9,0.3-1.3,0.4C174.4,30.3,173.9,30.3,173.4,30.3z M173,22.6c-0.7,0-1.2,0.2-1.6,0.7c-0.4,0.4-0.6,1.1-0.7,1.9h4.5 c0-0.8-0.2-1.4-0.5-1.9C174.2,22.8,173.7,22.6,173,22.6z" class="st4"/><path d="M183.1,30.2V18.8h1.3v11.4H183.1z" class="st4"/><path d="M190.1,29.3c0.2,0,0.5,0,0.7-0.1c0.2,0,0.4-0.1,0.5-0.1v1c-0.1,0.1-0.3,0.1-0.6,0.2s-0.5,0.1-0.7,0.1 c-1.7,0-2.5-0.9-2.5-2.6v-5.1h-1.2V22l1.2-0.5l0.5-1.8h0.8v2h2.5v1h-2.5v5c0,0.5,0.1,0.9,0.4,1.2 C189.3,29.1,189.7,29.3,190.1,29.3z" class="st4"/><path d="M196.6,30.3c-1.3,0-2.3-0.4-3-1.2c-0.7-0.8-1.1-1.8-1.1-3.2c0-1.4,0.3-2.5,1-3.3s1.6-1.2,2.7-1.2 c1.1,0,1.9,0.4,2.5,1.1s0.9,1.6,0.9,2.8v0.8h-5.9c0,1,0.3,1.8,0.8,2.3c0.5,0.5,1.2,0.8,2,0.8c0.9,0,1.8-0.2,2.7-0.6v1.2 c-0.5,0.2-0.9,0.3-1.3,0.4C197.7,30.3,197.2,30.3,196.6,30.3z M196.2,22.6c-0.7,0-1.2,0.2-1.6,0.7c-0.4,0.4-0.6,1.1-0.7,1.9h4.5 c0-0.8-0.2-1.4-0.5-1.9C197.4,22.8,196.9,22.6,196.2,22.6z" class="st4"/><path d="M212.9,30.2v-5.6c0-0.7-0.1-1.2-0.4-1.5c-0.3-0.3-0.7-0.5-1.4-0.5c-0.8,0-1.4,0.2-1.8,0.7 c-0.4,0.5-0.6,1.2-0.6,2.1v4.8h-1.3v-5.6c0-0.7-0.1-1.2-0.4-1.5c-0.3-0.3-0.7-0.5-1.4-0.5c-0.8,0-1.4,0.2-1.8,0.7 c-0.4,0.5-0.6,1.3-0.6,2.4v4.5H202v-8.6h1.1l0.2,1.2h0.1c0.2-0.4,0.6-0.7,1-1s0.9-0.4,1.5-0.4c1.3,0,2.2,0.5,2.6,1.5h0.1 c0.3-0.4,0.6-0.8,1.1-1.1s1-0.4,1.7-0.4c1,0,1.7,0.2,2.2,0.7c0.5,0.5,0.7,1.3,0.7,2.4v5.6H212.9z" class="st4"/></g><g id="Arrow_down-6" transform="translate(80 12)"><path id="Path_3872-6" d="M0,0h24v24H0V0z" class="st5"/><path id="Path_3871-6" d="M11.8,15.5c-0.2,0-0.4-0.1-0.6-0.2L6,10.1L7.1,9l4.7,4.7L16.4,9l1.1,1.1l-5.2,5.2 C12.2,15.5,12,15.5,11.8,15.5z" class="st6"/></g><g id="Checkbox-6" transform="translate(112 12)"><rect id="box-6" width="24" height="24" class="st5"/><g id="BG-6"><path d="M2,0h12c1.1,0,2,0.9,2,2v12c0,1.1-0.9,2-2,2H2c-1.1,0-2-0.9-2-2V2C0,0.9,0.9,0,2,0z" class="st3" transform="translate(4 4)"/><path d="M2,1h12c0.6,0,1,0.4,1,1v12c0,0.6-0.4,1-1,1H2c-0.6,0-1-0.4-1-1V2C1,1.4,1.4,1,2,1z" class="st7" transform="translate(4 4)"/></g></g></g><g id="tree-item-checkbox-level_1-7" transform="translate(235 3703)"><rect id="Rectangle_3345-7" width="320" height="48" class="st3"/><g class="st2"><path d="M117.5,30.2h-1.9v-9.8h-3.4v-1.6h8.6v1.6h-3.4V30.2z" class="st4"/><path d="M126.8,21.4c0.4,0,0.7,0,0.9,0.1l-0.2,1.7c-0.3-0.1-0.5-0.1-0.8-0.1c-0.7,0-1.3,0.2-1.8,0.7 c-0.5,0.5-0.7,1.1-0.7,1.9v4.5h-1.8v-8.6h1.4l0.2,1.5h0.1c0.3-0.5,0.7-0.9,1.1-1.2S126.2,21.4,126.8,21.4z" class="st4"/><path d="M133,30.3c-1.3,0-2.4-0.4-3.2-1.2s-1.1-1.9-1.1-3.2c0-1.4,0.4-2.5,1.1-3.3s1.7-1.2,2.9-1.2 c1.1,0,2,0.3,2.7,1c0.7,0.7,1,1.6,1,2.9v1h-5.8c0,0.8,0.3,1.5,0.7,1.9c0.4,0.5,1,0.7,1.8,0.7c0.5,0,1,0,1.4-0.1 c0.4-0.1,0.9-0.3,1.4-0.5v1.5c-0.4,0.2-0.9,0.4-1.4,0.5C134.2,30.3,133.6,30.3,133,30.3z M132.7,22.8c-0.6,0-1.1,0.2-1.4,0.6 s-0.6,0.9-0.6,1.6h3.9c0-0.7-0.2-1.3-0.5-1.6C133.7,23,133.3,22.8,132.7,22.8z" class="st4"/><path d="M142.3,30.3c-1.3,0-2.4-0.4-3.2-1.2s-1.1-1.9-1.1-3.2c0-1.4,0.4-2.5,1.1-3.3s1.7-1.2,2.9-1.2 c1.1,0,2,0.3,2.7,1c0.7,0.7,1,1.6,1,2.9v1h-5.8c0,0.8,0.3,1.5,0.7,1.9c0.4,0.5,1,0.7,1.8,0.7c0.5,0,1,0,1.4-0.1 c0.4-0.1,0.9-0.3,1.4-0.5v1.5c-0.4,0.2-0.9,0.4-1.4,0.5C143.4,30.3,142.8,30.3,142.3,30.3z M141.9,22.8c-0.6,0-1.1,0.2-1.4,0.6 s-0.6,0.9-0.6,1.6h3.9c0-0.7-0.2-1.3-0.5-1.6C143,23,142.5,22.8,141.9,22.8z" class="st4"/><path d="M152.1,30.2V18.8h1.9v11.4H152.1z" class="st4"/><path d="M160,28.9c0.4,0,0.9-0.1,1.3-0.2V30c-0.2,0.1-0.5,0.2-0.8,0.2s-0.7,0.1-1,0.1c-1.7,0-2.6-0.9-2.6-2.8v-4.7 h-1.2v-0.8l1.3-0.7l0.6-1.8h1.1v1.9h2.5v1.4h-2.5v4.6c0,0.4,0.1,0.8,0.3,1C159.3,28.8,159.6,28.9,160,28.9z" class="st4"/><path d="M166.8,30.3c-1.3,0-2.4-0.4-3.2-1.2s-1.1-1.9-1.1-3.2c0-1.4,0.4-2.5,1.1-3.3s1.7-1.2,2.9-1.2 c1.1,0,2,0.3,2.7,1c0.7,0.7,1,1.6,1,2.9v1h-5.8c0,0.8,0.3,1.5,0.7,1.9c0.4,0.5,1,0.7,1.8,0.7c0.5,0,1,0,1.4-0.1 c0.4-0.1,0.9-0.3,1.4-0.5v1.5c-0.4,0.2-0.9,0.4-1.4,0.5C167.9,30.3,167.4,30.3,166.8,30.3z M166.5,22.8c-0.6,0-1.1,0.2-1.4,0.6 s-0.6,0.9-0.6,1.6h3.9c0-0.7-0.2-1.3-0.5-1.6C167.5,23,167.1,22.8,166.5,22.8z" class="st4"/><path d="M179.5,30.2h-1.8v-5.3c0-0.7-0.1-1.2-0.4-1.5s-0.6-0.5-1.2-0.5c-0.7,0-1.2,0.2-1.6,0.7 c-0.3,0.5-0.5,1.2-0.5,2.3v4.3h-1.8v-8.6h1.4l0.3,1.1h0.1c0.2-0.4,0.6-0.7,1-1c0.5-0.2,1-0.3,1.5-0.3c1.3,0,2.2,0.5,2.6,1.4h0.1 c0.3-0.4,0.6-0.8,1.1-1c0.5-0.2,1-0.4,1.6-0.4c1,0,1.8,0.3,2.3,0.8c0.5,0.5,0.7,1.3,0.7,2.4v5.6h-1.8v-5.3 c0-0.7-0.1-1.2-0.4-1.5c-0.3-0.3-0.6-0.5-1.2-0.5c-0.7,0-1.2,0.2-1.6,0.7c-0.3,0.4-0.5,1.1-0.5,2.1V30.2z" class="st4"/></g><g id="Arrow_down-7" transform="translate(48 12)"><path id="Path_3872-7" d="M0,0h24v24H0V0z" class="st5"/><path id="Path_3871-7" d="M11.8,15.5c-0.2,0-0.4-0.1-0.6-0.2L6,10.1L7.1,9l4.7,4.7L16.4,9l1.1,1.1l-5.2,5.2 C12.2,15.5,12,15.5,11.8,15.5z" class="st6"/></g><g id="Checkbox-7" transform="translate(80 12)"><rect id="box-7" width="24" height="24" class="st5"/><g id="BG-7"><path d="M2,0h12c1.1,0,2,0.9,2,2v12c0,1.1-0.9,2-2,2H2c-1.1,0-2-0.9-2-2V2C0,0.9,0.9,0,2,0z" class="st3" transform="translate(4 4)"/><path d="M2,1h12c0.6,0,1,0.4,1,1v12c0,0.6-0.4,1-1,1H2c-0.6,0-1-0.4-1-1V2C1,1.4,1.4,1,2,1z" class="st7" transform="translate(4 4)"/></g></g></g><g id="tree-item-checkbox-level_1-8" transform="translate(235 3655)"><rect id="Rectangle_3345-8" width="320" height="48" class="st11"/><g class="st2"><path d="M85.8,30.2h-2.4v-9.4h-3.1v-2h8.6v2h-3.1V30.2z" class="st4"/><path d="M95.4,21.3c0.3,0,0.6,0,0.8,0.1L96,23.6c-0.2-0.1-0.4-0.1-0.7-0.1c-0.8,0-1.4,0.2-1.8,0.6 c-0.4,0.4-0.6,0.9-0.6,1.6v4.4h-2.4v-8.7h1.8l0.4,1.5h0.1c0.3-0.5,0.6-0.9,1.1-1.2S94.8,21.3,95.4,21.3z" class="st4"/><path d="M101.7,30.3c-1.4,0-2.5-0.4-3.3-1.2c-0.8-0.8-1.2-1.9-1.2-3.3c0-1.5,0.4-2.6,1.1-3.4c0.7-0.8,1.7-1.2,3-1.2 c1.2,0,2.2,0.4,2.9,1.1s1,1.7,1,2.9v1.2h-5.6c0,0.7,0.2,1.2,0.6,1.6s0.9,0.6,1.6,0.6c0.5,0,1-0.1,1.5-0.2s1-0.3,1.5-0.5v1.8 c-0.4,0.2-0.9,0.4-1.3,0.5C103,30.3,102.4,30.3,101.7,30.3z M101.4,23c-0.5,0-0.9,0.2-1.2,0.5c-0.3,0.3-0.5,0.8-0.5,1.4h3.3 c0-0.6-0.2-1-0.5-1.4S101.9,23,101.4,23z" class="st4"/><path d="M111.2,30.3c-1.4,0-2.5-0.4-3.3-1.2c-0.8-0.8-1.2-1.9-1.2-3.3c0-1.5,0.4-2.6,1.1-3.4c0.7-0.8,1.7-1.2,3-1.2 c1.2,0,2.2,0.4,2.9,1.1s1,1.7,1,2.9v1.2h-5.6c0,0.7,0.2,1.2,0.6,1.6s0.9,0.6,1.6,0.6c0.5,0,1-0.1,1.5-0.2s1-0.3,1.5-0.5v1.8 c-0.4,0.2-0.9,0.4-1.3,0.5C112.4,30.3,111.9,30.3,111.2,30.3z M110.9,23c-0.5,0-0.9,0.2-1.2,0.5c-0.3,0.3-0.5,0.8-0.5,1.4h3.3 c0-0.6-0.2-1-0.5-1.4S111.4,23,110.9,23z" class="st4"/><path d="M121,30.2V18.8h2.4v11.4H121z" class="st4"/><path d="M129.8,28.4c0.4,0,0.9-0.1,1.5-0.3v1.8c-0.6,0.3-1.3,0.4-2.2,0.4c-1,0-1.6-0.2-2.1-0.7 c-0.4-0.5-0.7-1.2-0.7-2.2v-4.2h-1.1v-1l1.3-0.8l0.7-1.8h1.5v1.9h2.4v1.8h-2.4v4.2c0,0.3,0.1,0.6,0.3,0.8 C129.3,28.4,129.5,28.4,129.8,28.4z" class="st4"/><path d="M137,30.3c-1.4,0-2.5-0.4-3.3-1.2c-0.8-0.8-1.2-1.9-1.2-3.3c0-1.5,0.4-2.6,1.1-3.4c0.7-0.8,1.7-1.2,3-1.2 c1.2,0,2.2,0.4,2.9,1.1s1,1.7,1,2.9v1.2H135c0,0.7,0.2,1.2,0.6,1.6s0.9,0.6,1.6,0.6c0.5,0,1-0.1,1.5-0.2s1-0.3,1.5-0.5v1.8 c-0.4,0.2-0.9,0.4-1.3,0.5C138.3,30.3,137.7,30.3,137,30.3z M136.7,23c-0.5,0-0.9,0.2-1.2,0.5c-0.3,0.3-0.5,0.8-0.5,1.4h3.3 c0-0.6-0.2-1-0.5-1.4S137.2,23,136.7,23z" class="st4"/><path d="M150.4,30.2H148v-5.1c0-0.6-0.1-1.1-0.3-1.4s-0.5-0.5-1-0.5c-0.6,0-1.1,0.2-1.3,0.7 c-0.3,0.4-0.4,1.2-0.4,2.2v4.1h-2.4v-8.7h1.8l0.3,1.1h0.1c0.2-0.4,0.6-0.7,1-0.9c0.4-0.2,1-0.3,1.5-0.3c1.3,0,2.2,0.4,2.7,1.3 h0.2c0.2-0.4,0.6-0.7,1-0.9c0.5-0.2,1-0.3,1.5-0.3c1,0,1.7,0.3,2.2,0.8s0.8,1.3,0.8,2.4v5.7h-2.4v-5.1c0-0.6-0.1-1.1-0.3-1.4 s-0.5-0.5-1-0.5c-0.6,0-1,0.2-1.3,0.6s-0.4,1.1-0.4,2V30.2z" class="st4"/><path d="M169.2,30.2h-6.6V18.8h6.6v2H165v2.5h3.9v2H165v2.9h4.2V30.2z" class="st4"/><path d="M173.2,25.7l-2.8-4.3h2.7l1.7,2.8l1.7-2.8h2.7l-2.8,4.3l3,4.5h-2.7l-1.8-3l-1.8,3h-2.7L173.2,25.7z" class="st4"/><path d="M185.4,30.3c-1,0-1.8-0.4-2.4-1.1h-0.1c0.1,0.7,0.1,1.2,0.1,1.3V34h-2.4V21.5h1.9l0.3,1.1h0.1 c0.6-0.9,1.4-1.3,2.5-1.3c1,0,1.8,0.4,2.4,1.2c0.6,0.8,0.9,1.9,0.9,3.3c0,0.9-0.1,1.7-0.4,2.4s-0.7,1.2-1.2,1.6 C186.7,30.2,186.1,30.3,185.4,30.3z M184.7,23.2c-0.6,0-1,0.2-1.3,0.5c-0.3,0.4-0.4,1-0.4,1.8v0.3c0,0.9,0.1,1.6,0.4,2 c0.3,0.4,0.7,0.6,1.3,0.6c1.1,0,1.6-0.9,1.6-2.6c0-0.9-0.1-1.5-0.4-1.9C185.7,23.4,185.3,23.2,184.7,23.2z" class="st4"/><path d="M196.3,30.2l-0.5-1.2h-0.1c-0.4,0.5-0.8,0.9-1.2,1.1c-0.4,0.2-1,0.3-1.7,0.3c-0.8,0-1.5-0.2-2-0.7 c-0.5-0.5-0.7-1.2-0.7-2c0-0.9,0.3-1.6,1-2.1s1.6-0.7,2.9-0.7l1.5,0v-0.4c0-0.9-0.5-1.3-1.4-1.3c-0.7,0-1.5,0.2-2.5,0.6 l-0.8-1.6c1-0.5,2.1-0.8,3.3-0.8c1.2,0,2.1,0.3,2.7,0.8s0.9,1.3,0.9,2.3v5.8H196.3z M195.6,26.1l-0.9,0c-0.7,0-1.2,0.1-1.5,0.4 c-0.3,0.2-0.5,0.6-0.5,1c0,0.7,0.4,1,1.2,1c0.6,0,1-0.2,1.3-0.5c0.3-0.3,0.5-0.7,0.5-1.3V26.1z" class="st4"/><path d="M208.5,30.2h-2.4v-5.1c0-0.6-0.1-1.1-0.3-1.4c-0.2-0.3-0.6-0.5-1.1-0.5c-0.7,0-1.1,0.2-1.4,0.7 s-0.4,1.2-0.4,2.2v4.1h-2.4v-8.7h1.8l0.3,1.1h0.1c0.3-0.4,0.6-0.7,1.1-1c0.5-0.2,1-0.3,1.6-0.3c1,0,1.8,0.3,2.3,0.8 c0.5,0.5,0.8,1.3,0.8,2.4V30.2z" class="st4"/><path d="M213.7,30.3c-1,0-1.8-0.4-2.4-1.2s-0.9-1.9-0.9-3.3c0-1.4,0.3-2.5,0.9-3.3c0.6-0.8,1.4-1.2,2.5-1.2 c1.1,0,1.9,0.4,2.5,1.3h0.1c-0.1-0.7-0.2-1.2-0.2-1.7V18h2.4v12.2h-1.8l-0.5-1.1h-0.1C215.6,29.9,214.8,30.3,213.7,30.3z M214.5,28.4c0.6,0,1.1-0.2,1.3-0.5c0.3-0.4,0.4-1,0.5-1.8v-0.3c0-0.9-0.1-1.6-0.4-2s-0.8-0.6-1.4-0.6c-0.5,0-0.9,0.2-1.2,0.7 c-0.3,0.5-0.4,1.1-0.4,2s0.1,1.5,0.4,1.9S214,28.4,214.5,28.4z" class="st4"/><path d="M225,30.3c-1.4,0-2.5-0.4-3.3-1.2c-0.8-0.8-1.2-1.9-1.2-3.3c0-1.5,0.4-2.6,1.1-3.4c0.7-0.8,1.7-1.2,3-1.2 c1.2,0,2.2,0.4,2.9,1.1s1,1.7,1,2.9v1.2h-5.6c0,0.7,0.2,1.2,0.6,1.6s0.9,0.6,1.6,0.6c0.5,0,1-0.1,1.5-0.2s1-0.3,1.5-0.5v1.8 c-0.4,0.2-0.9,0.4-1.3,0.5C226.3,30.3,225.7,30.3,225,30.3z M224.7,23c-0.5,0-0.9,0.2-1.2,0.5c-0.3,0.3-0.5,0.8-0.5,1.4h3.3 c0-0.6-0.2-1-0.5-1.4S225.2,23,224.7,23z" class="st4"/><path d="M233.3,30.3c-1,0-1.8-0.4-2.4-1.2s-0.9-1.9-0.9-3.3c0-1.4,0.3-2.5,0.9-3.3c0.6-0.8,1.4-1.2,2.5-1.2 c1.1,0,1.9,0.4,2.5,1.3h0.1c-0.1-0.7-0.2-1.2-0.2-1.7V18h2.4v12.2h-1.8l-0.5-1.1h-0.1C235.2,29.9,234.4,30.3,233.3,30.3z M234.1,28.4c0.6,0,1.1-0.2,1.3-0.5c0.3-0.4,0.4-1,0.5-1.8v-0.3c0-0.9-0.1-1.6-0.4-2s-0.8-0.6-1.4-0.6c-0.5,0-0.9,0.2-1.2,0.7 c-0.3,0.5-0.4,1.1-0.4,2s0.1,1.5,0.4,1.9S233.5,28.4,234.1,28.4z" class="st4"/></g><g id="Arrow_down-8" transform="translate(16 12)"><path id="Path_3872-8" d="M0,0h24v24H0V0z" class="st5"/><path id="Path_3871-8" d="M11.8,15.5c-0.2,0-0.4-0.1-0.6-0.2L6,10.1L7.1,9l4.7,4.7L16.4,9l1.1,1.1l-5.2,5.2 C12.2,15.5,12,15.5,11.8,15.5z" class="st6"/></g><g id="Checkbox-8" transform="translate(48 12)"><rect id="box-8" width="24" height="24" class="st5"/><path id="BG-8" d="M6,4h12c1.1,0,2,0.9,2,2v12c0,1.1-0.9,2-2,2H6c-1.1,0-2-0.9-2-2V6C4,4.9,4.9,4,6,4z" class="st10"/><path id="Check-2" d="M10.4,16l-4-4l1.1-1.1l2.9,2.9l6.1-6.1l1.1,1.1L10.4,16z" class="st3"/></g><g id="Input" transform="translate(80 -16)"><g id="Group_6710" transform="translate(0 54)"><path id="Rectangle_3444" d="M2-30h204c1.1,0,2,0.9,2,2V2l0,0H0l0,0v-30C0-29.1,0.9-30,2-30z" class="st3"/><rect id="Bottom_Line" width="208" height="2" class="st10"/></g><g class="st2"><path d="M13.1,44H11v-8.2H8.3V34h7.5v1.8h-2.7V44z" class="st4"/><path d="M21.5,36.2c0.3,0,0.5,0,0.7,0.1l-0.2,2c-0.2,0-0.4-0.1-0.6-0.1c-0.7,0-1.2,0.2-1.6,0.5s-0.6,0.8-0.6,1.4 V44h-2.1v-7.6h1.6l0.3,1.3h0.1c0.2-0.4,0.6-0.8,1-1C20.6,36.3,21,36.2,21.5,36.2z" class="st4"/><path d="M27,44.1c-1.2,0-2.2-0.3-2.9-1s-1-1.6-1-2.9c0-1.3,0.3-2.3,1-3c0.6-0.7,1.5-1,2.7-1c1.1,0,1.9,0.3,2.5,0.9 s0.9,1.5,0.9,2.5v1h-4.9c0,0.6,0.2,1.1,0.5,1.4s0.8,0.5,1.4,0.5c0.5,0,0.9,0,1.3-0.1s0.8-0.2,1.3-0.5v1.6 c-0.4,0.2-0.8,0.3-1.2,0.4C28.1,44.1,27.6,44.1,27,44.1z M26.7,37.7c-0.4,0-0.8,0.1-1,0.4c-0.3,0.3-0.4,0.7-0.4,1.2h2.9 c0-0.5-0.1-0.9-0.4-1.2C27.5,37.8,27.2,37.7,26.7,37.7z" class="st4"/><path d="M35.3,44.1c-1.2,0-2.2-0.3-2.9-1s-1-1.6-1-2.9c0-1.3,0.3-2.3,1-3c0.6-0.7,1.5-1,2.7-1 c1.1,0,1.9,0.3,2.5,0.9s0.9,1.5,0.9,2.5v1h-4.9c0,0.6,0.2,1.1,0.5,1.4s0.8,0.5,1.4,0.5c0.5,0,0.9,0,1.3-0.1s0.8-0.2,1.3-0.5 v1.6c-0.4,0.2-0.8,0.3-1.2,0.4C36.4,44.1,35.9,44.1,35.3,44.1z M35,37.7c-0.4,0-0.8,0.1-1,0.4c-0.3,0.3-0.4,0.7-0.4,1.2h2.9 c0-0.5-0.1-0.9-0.4-1.2C35.8,37.8,35.4,37.7,35,37.7z" class="st4"/><path d="M43.9,44V34H46v10H43.9z" class="st4"/><path d="M51.6,42.5c0.4,0,0.8-0.1,1.3-0.2v1.6c-0.5,0.2-1.2,0.3-1.9,0.3c-0.8,0-1.4-0.2-1.8-0.6 c-0.4-0.4-0.6-1.1-0.6-1.9v-3.7h-1V37l1.1-0.7l0.6-1.6h1.3v1.6h2.1v1.6h-2.1v3.7c0,0.3,0.1,0.5,0.2,0.7S51.3,42.5,51.6,42.5z" class="st4"/><path d="M57.9,44.1c-1.2,0-2.2-0.3-2.9-1s-1-1.6-1-2.9c0-1.3,0.3-2.3,1-3c0.6-0.7,1.5-1,2.7-1 c1.1,0,1.9,0.3,2.5,0.9s0.9,1.5,0.9,2.5v1h-4.9c0,0.6,0.2,1.1,0.5,1.4s0.8,0.5,1.4,0.5c0.5,0,0.9,0,1.3-0.1s0.8-0.2,1.3-0.5 v1.6c-0.4,0.2-0.8,0.3-1.2,0.4C59,44.1,58.5,44.1,57.9,44.1z M57.6,37.7c-0.4,0-0.8,0.1-1,0.4c-0.3,0.3-0.4,0.7-0.4,1.2h2.9 c0-0.5-0.1-0.9-0.4-1.2C58.4,37.8,58.1,37.7,57.6,37.7z" class="st4"/><path d="M69.6,44h-2.1v-4.5c0-0.6-0.1-1-0.3-1.2c-0.2-0.3-0.5-0.4-0.9-0.4c-0.5,0-0.9,0.2-1.2,0.6s-0.4,1-0.4,1.9 V44h-2.1v-7.6h1.6l0.3,1h0.1c0.2-0.4,0.5-0.6,0.9-0.8c0.4-0.2,0.8-0.3,1.3-0.3c1.1,0,1.9,0.4,2.3,1.1h0.2 c0.2-0.4,0.5-0.6,0.9-0.8s0.8-0.3,1.4-0.3c0.9,0,1.5,0.2,2,0.7c0.4,0.4,0.7,1.2,0.7,2.1v5h-2.1v-4.5c0-0.6-0.1-1-0.3-1.2 c-0.2-0.3-0.5-0.4-0.9-0.4c-0.5,0-0.9,0.2-1.1,0.5s-0.4,0.9-0.4,1.7V44z" class="st4"/><path d="M84.8,44h-2.1v-5.8l0-1l0-1c-0.4,0.4-0.6,0.6-0.7,0.7l-1.1,0.9l-1-1.3l3.2-2.6h1.7V44z" class="st4"/><path d="M94.5,44h-7v-1.5l2.5-2.5c0.7-0.8,1.2-1.3,1.5-1.6c0.2-0.3,0.4-0.6,0.5-0.8s0.2-0.5,0.2-0.8 c0-0.4-0.1-0.7-0.3-0.9s-0.5-0.3-0.9-0.3c-0.4,0-0.8,0.1-1.1,0.3s-0.7,0.4-1.1,0.8l-1.1-1.4c0.5-0.4,0.9-0.7,1.2-0.9 s0.7-0.3,1.1-0.4c0.4-0.1,0.8-0.1,1.3-0.1c0.6,0,1.2,0.1,1.7,0.3s0.9,0.5,1.1,1s0.4,0.9,0.4,1.4c0,0.5-0.1,0.9-0.2,1.3 c-0.2,0.4-0.4,0.8-0.8,1.2s-0.9,1-1.8,1.8l-1.3,1.2v0.1h4.4V44z" class="st4"/><path d="M102.2,36.2c0,0.6-0.2,1.2-0.6,1.6s-0.9,0.7-1.6,0.9v0c0.8,0.1,1.4,0.3,1.8,0.7c0.4,0.4,0.6,0.9,0.6,1.6 c0,1-0.3,1.7-1,2.2c-0.7,0.5-1.7,0.8-3,0.8c-1.1,0-2-0.2-2.9-0.5v-1.8c0.4,0.2,0.8,0.4,1.3,0.5s0.9,0.2,1.4,0.2 c0.7,0,1.2-0.1,1.5-0.4s0.5-0.6,0.5-1.1c0-0.5-0.2-0.8-0.6-1s-1-0.3-1.8-0.3h-0.8v-1.6h0.8c0.8,0,1.3-0.1,1.7-0.3 c0.4-0.2,0.5-0.5,0.5-1c0-0.8-0.5-1.1-1.4-1.1c-0.3,0-0.7,0.1-1,0.2s-0.7,0.3-1.1,0.6l-1-1.5c0.9-0.7,2-1,3.3-1 c1,0,1.9,0.2,2.5,0.6S102.2,35.5,102.2,36.2z" class="st4"/></g><line id="Line_532" x1="105" x2="105" y1="29" y2="49" class="st12"/></g></g><g id="tree-item-checkbox-level_1-9" transform="translate(235 3607)"><rect id="Rectangle_3345-9" width="320" height="48" class="st3"/><g class="st2"><path d="M85.1,30.2h-1.3V19.9h-3.6v-1.2h8.6v1.2h-3.6V30.2z" class="st4"/><path d="M94.1,21.5c0.4,0,0.7,0,1,0.1L95,22.8c-0.4-0.1-0.7-0.1-0.9-0.1c-0.7,0-1.3,0.3-1.8,0.8s-0.7,1.3-0.7,2.1 v4.6h-1.3v-8.6h1.1l0.1,1.6h0.1c0.3-0.6,0.7-1,1.1-1.3C93.1,21.6,93.6,21.5,94.1,21.5z" class="st4"/><path d="M100.4,30.3c-1.3,0-2.3-0.4-3-1.2c-0.7-0.8-1.1-1.8-1.1-3.2c0-1.4,0.3-2.5,1-3.3s1.6-1.2,2.7-1.2 c1.1,0,1.9,0.4,2.5,1.1s0.9,1.6,0.9,2.8v0.8h-5.9c0,1,0.3,1.8,0.8,2.3c0.5,0.5,1.2,0.8,2,0.8c0.9,0,1.8-0.2,2.7-0.6v1.2 c-0.5,0.2-0.9,0.3-1.3,0.4C101.4,30.3,101,30.3,100.4,30.3z M100,22.6c-0.7,0-1.2,0.2-1.6,0.7c-0.4,0.4-0.6,1.1-0.7,1.9h4.5 c0-0.8-0.2-1.4-0.5-1.9C101.2,22.8,100.7,22.6,100,22.6z" class="st4"/><path d="M109.4,30.3c-1.3,0-2.3-0.4-3-1.2c-0.7-0.8-1.1-1.8-1.1-3.2c0-1.4,0.3-2.5,1-3.3s1.6-1.2,2.7-1.2 c1.1,0,1.9,0.4,2.5,1.1s0.9,1.6,0.9,2.8v0.8h-5.9c0,1,0.3,1.8,0.8,2.3c0.5,0.5,1.2,0.8,2,0.8c0.9,0,1.8-0.2,2.7-0.6v1.2 c-0.5,0.2-0.9,0.3-1.3,0.4C110.4,30.3,109.9,30.3,109.4,30.3z M109,22.6c-0.7,0-1.2,0.2-1.6,0.7c-0.4,0.4-0.6,1.1-0.7,1.9h4.5 c0-0.8-0.2-1.4-0.5-1.9C110.2,22.8,109.7,22.6,109,22.6z" class="st4"/><path d="M119.1,30.2V18.8h1.3v11.4H119.1z" class="st4"/><path d="M126.1,29.3c0.2,0,0.5,0,0.7-0.1c0.2,0,0.4-0.1,0.5-0.1v1c-0.1,0.1-0.3,0.1-0.6,0.2s-0.5,0.1-0.7,0.1 c-1.7,0-2.5-0.9-2.5-2.6v-5.1h-1.2V22l1.2-0.5l0.5-1.8h0.8v2h2.5v1h-2.5v5c0,0.5,0.1,0.9,0.4,1.2 C125.3,29.1,125.7,29.3,126.1,29.3z" class="st4"/><path d="M132.6,30.3c-1.3,0-2.3-0.4-3-1.2c-0.7-0.8-1.1-1.8-1.1-3.2c0-1.4,0.3-2.5,1-3.3s1.6-1.2,2.7-1.2 c1.1,0,1.9,0.4,2.5,1.1s0.9,1.6,0.9,2.8v0.8h-5.9c0,1,0.3,1.8,0.8,2.3c0.5,0.5,1.2,0.8,2,0.8c0.9,0,1.8-0.2,2.7-0.6v1.2 c-0.5,0.2-0.9,0.3-1.3,0.4C133.7,30.3,133.2,30.3,132.6,30.3z M132.2,22.6c-0.7,0-1.2,0.2-1.6,0.7c-0.4,0.4-0.6,1.1-0.7,1.9h4.5 c0-0.8-0.2-1.4-0.5-1.9C133.4,22.8,132.9,22.6,132.2,22.6z" class="st4"/><path d="M148.9,30.2v-5.6c0-0.7-0.1-1.2-0.4-1.5c-0.3-0.3-0.7-0.5-1.4-0.5c-0.8,0-1.4,0.2-1.8,0.7 c-0.4,0.5-0.6,1.2-0.6,2.1v4.8h-1.3v-5.6c0-0.7-0.1-1.2-0.4-1.5c-0.3-0.3-0.7-0.5-1.4-0.5c-0.8,0-1.4,0.2-1.8,0.7 c-0.4,0.5-0.6,1.3-0.6,2.4v4.5H138v-8.6h1.1l0.2,1.2h0.1c0.2-0.4,0.6-0.7,1-1s0.9-0.4,1.5-0.4c1.3,0,2.2,0.5,2.6,1.5h0.1 c0.3-0.4,0.6-0.8,1.1-1.1s1-0.4,1.7-0.4c1,0,1.7,0.2,2.2,0.7c0.5,0.5,0.7,1.3,0.7,2.4v5.6H148.9z" class="st4"/></g><g id="Arrow_down-9" transform="translate(16 36) rotate(-90)"><path id="Path_3872-9" d="M0,0h24v24H0V0z" class="st5"/><path id="Path_3871-9" d="M11.8,15.5c-0.2,0-0.4-0.1-0.6-0.2L6,10.1L7.1,9l4.7,4.7L16.4,9l1.1,1.1l-5.2,5.2 C12.2,15.5,12,15.5,11.8,15.5z" class="st6"/></g><g id="Checkbox-9" transform="translate(48 12)"><rect id="box-9" width="24" height="24" class="st5"/><g id="BG-9"><path d="M2,0h12c1.1,0,2,0.9,2,2v12c0,1.1-0.9,2-2,2H2c-1.1,0-2-0.9-2-2V2C0,0.9,0.9,0,2,0z" class="st3" transform="translate(4 4)"/><path d="M2,1h12c0.6,0,1,0.4,1,1v12c0,0.6-0.4,1-1,1H2c-0.6,0-1-0.4-1-1V2C1,1.4,1.4,1,2,1z" class="st7" transform="translate(4 4)"/></g></g></g><g id="tree-item-checkbox-level_1-10" transform="translate(235 3559)"><rect id="Rectangle_3345-10" width="320" height="48" class="st3"/><line id="top_border-2" x1="0" x2="320" y1=".5" y2=".5" class="st8"/><g class="st2"><path d="M85.1,30.2h-1.3V19.9h-3.6v-1.2h8.6v1.2h-3.6V30.2z" class="st4"/><path d="M94.1,21.5c0.4,0,0.7,0,1,0.1L95,22.8c-0.4-0.1-0.7-0.1-0.9-0.1c-0.7,0-1.3,0.3-1.8,0.8s-0.7,1.3-0.7,2.1 v4.6h-1.3v-8.6h1.1l0.1,1.6h0.1c0.3-0.6,0.7-1,1.1-1.3C93.1,21.6,93.6,21.5,94.1,21.5z" class="st4"/><path d="M100.4,30.3c-1.3,0-2.3-0.4-3-1.2c-0.7-0.8-1.1-1.8-1.1-3.2c0-1.4,0.3-2.5,1-3.3s1.6-1.2,2.7-1.2 c1.1,0,1.9,0.4,2.5,1.1s0.9,1.6,0.9,2.8v0.8h-5.9c0,1,0.3,1.8,0.8,2.3c0.5,0.5,1.2,0.8,2,0.8c0.9,0,1.8-0.2,2.7-0.6v1.2 c-0.5,0.2-0.9,0.3-1.3,0.4C101.4,30.3,101,30.3,100.4,30.3z M100,22.6c-0.7,0-1.2,0.2-1.6,0.7c-0.4,0.4-0.6,1.1-0.7,1.9h4.5 c0-0.8-0.2-1.4-0.5-1.9C101.2,22.8,100.7,22.6,100,22.6z" class="st4"/><path d="M109.4,30.3c-1.3,0-2.3-0.4-3-1.2c-0.7-0.8-1.1-1.8-1.1-3.2c0-1.4,0.3-2.5,1-3.3s1.6-1.2,2.7-1.2 c1.1,0,1.9,0.4,2.5,1.1s0.9,1.6,0.9,2.8v0.8h-5.9c0,1,0.3,1.8,0.8,2.3c0.5,0.5,1.2,0.8,2,0.8c0.9,0,1.8-0.2,2.7-0.6v1.2 c-0.5,0.2-0.9,0.3-1.3,0.4C110.4,30.3,109.9,30.3,109.4,30.3z M109,22.6c-0.7,0-1.2,0.2-1.6,0.7c-0.4,0.4-0.6,1.1-0.7,1.9h4.5 c0-0.8-0.2-1.4-0.5-1.9C110.2,22.8,109.7,22.6,109,22.6z" class="st4"/><path d="M119.1,30.2V18.8h1.3v11.4H119.1z" class="st4"/><path d="M126.1,29.3c0.2,0,0.5,0,0.7-0.1c0.2,0,0.4-0.1,0.5-0.1v1c-0.1,0.1-0.3,0.1-0.6,0.2s-0.5,0.1-0.7,0.1 c-1.7,0-2.5-0.9-2.5-2.6v-5.1h-1.2V22l1.2-0.5l0.5-1.8h0.8v2h2.5v1h-2.5v5c0,0.5,0.1,0.9,0.4,1.2 C125.3,29.1,125.7,29.3,126.1,29.3z" class="st4"/><path d="M132.6,30.3c-1.3,0-2.3-0.4-3-1.2c-0.7-0.8-1.1-1.8-1.1-3.2c0-1.4,0.3-2.5,1-3.3s1.6-1.2,2.7-1.2 c1.1,0,1.9,0.4,2.5,1.1s0.9,1.6,0.9,2.8v0.8h-5.9c0,1,0.3,1.8,0.8,2.3c0.5,0.5,1.2,0.8,2,0.8c0.9,0,1.8-0.2,2.7-0.6v1.2 c-0.5,0.2-0.9,0.3-1.3,0.4C133.7,30.3,133.2,30.3,132.6,30.3z M132.2,22.6c-0.7,0-1.2,0.2-1.6,0.7c-0.4,0.4-0.6,1.1-0.7,1.9h4.5 c0-0.8-0.2-1.4-0.5-1.9C133.4,22.8,132.9,22.6,132.2,22.6z" class="st4"/><path d="M148.9,30.2v-5.6c0-0.7-0.1-1.2-0.4-1.5c-0.3-0.3-0.7-0.5-1.4-0.5c-0.8,0-1.4,0.2-1.8,0.7 c-0.4,0.5-0.6,1.2-0.6,2.1v4.8h-1.3v-5.6c0-0.7-0.1-1.2-0.4-1.5c-0.3-0.3-0.7-0.5-1.4-0.5c-0.8,0-1.4,0.2-1.8,0.7 c-0.4,0.5-0.6,1.3-0.6,2.4v4.5H138v-8.6h1.1l0.2,1.2h0.1c0.2-0.4,0.6-0.7,1-1s0.9-0.4,1.5-0.4c1.3,0,2.2,0.5,2.6,1.5h0.1 c0.3-0.4,0.6-0.8,1.1-1.1s1-0.4,1.7-0.4c1,0,1.7,0.2,2.2,0.7c0.5,0.5,0.7,1.3,0.7,2.4v5.6H148.9z" class="st4"/></g><g id="Arrow_down-10" transform="translate(16 36) rotate(-90)"><path id="Path_3872-10" d="M0,0h24v24H0V0z" class="st5"/><path id="Path_3871-10" d="M11.8,15.5c-0.2,0-0.4-0.1-0.6-0.2L6,10.1L7.1,9l4.7,4.7L16.4,9l1.1,1.1l-5.2,5.2 C12.2,15.5,12,15.5,11.8,15.5z" class="st6"/></g><g id="Checkbox-10" transform="translate(48 12)"><rect id="box-10" width="24" height="24" class="st5"/><g id="BG-10"><path d="M2,0h12c1.1,0,2,0.9,2,2v12c0,1.1-0.9,2-2,2H2c-1.1,0-2-0.9-2-2V2C0,0.9,0.9,0,2,0z" class="st3" transform="translate(4 4)"/><path d="M2,1h12c0.6,0,1,0.4,1,1v12c0,0.6-0.4,1-1,1H2c-0.6,0-1-0.4-1-1V2C1,1.4,1.4,1,2,1z" class="st7" transform="translate(4 4)"/></g></g></g></g><g id="scrollbar" transform="translate(707 5739)"><rect id="Rectangle_3435" width="8" height="480" x="336" y="16" class="st3"/><path id="Rectangle_3434" d="M340,128L340,128c2.2,0,4,1.8,4,4v88c0,2.2-1.8,4-4,4l0,0c-2.2,0-4-1.8-4-4v-88 C336,129.8,337.8,128,340,128z" class="st6"/></g><g id="content_bar" transform="translate(116 4293)"><rect id="Rectangle_3441" width="321" height="80" x="614" y="1382" class="st3"/><g id="drag_indicator_black_24dp_2_" transform="translate(863 1430)"><path id="Path_6572" d="M0,0h24v24H0V0z" class="st5"/><path id="Path_6573" d="M11,18c0,1.1-0.9,2-2,2s-2-0.9-2-2s0.9-2,2-2C10.1,16,11,16.9,11,18z M9,10c-1.1,0-2,0.9-2,2 s0.9,2,2,2s2-0.9,2-2C11,10.9,10.1,10,9,10z M9,4C7.9,4,7,4.9,7,6s0.9,2,2,2s2-0.9,2-2C11,4.9,10.1,4,9,4z M15,8c1.1,0,2-0.9,2-2 s-0.9-2-2-2s-2,0.9-2,2C13,7.1,13.9,8,15,8z M15,10c-1.1,0-2,0.9-2,2s0.9,2,2,2s2-0.9,2-2C17,10.9,16.1,10,15,10z M15,16 c-1.1,0-2,0.9-2,2s0.9,2,2,2s2-0.9,2-2C17,16.9,16.1,16,15,16z" class="st4"/></g><g id="Search_Input" transform="translate(622 1390)"><g id="Rectangle_1841"><path d="M2,0h301c1.1,0,2,0.9,2,2v30l0,0H0l0,0V2C0,0.9,0.9,0,2,0z" class="st3"/><path d="M2,0.5h301c0.8,0,1.5,0.7,1.5,1.5v29.5l0,0H0.5l0,0V2C0.5,1.2,1.2,0.5,2,0.5z" class="st8"/></g><rect id="Bottom_Line-2" width="305" height="1" y="31" class="st13"/><g id="Search_Icon" transform="translate(8 6)"><path id="Path_6175" d="M0,0h20v20H0V0z" class="st5"/><path id="Path_6176" d="M12.6,11.5H12l-0.2-0.2c1.8-2.1,1.6-5.3-0.5-7.1S6,2.6,4.2,4.7S2.6,10,4.7,11.8 c1.9,1.6,4.7,1.6,6.5,0l0.2,0.2v0.6l3.9,3.8l1.1-1.1L12.6,11.5z M8,11.5c-1.9,0-3.5-1.6-3.5-3.5S6.1,4.5,8,4.5s3.5,1.6,3.5,3.5 c0,0,0,0,0,0C11.5,9.9,9.9,11.5,8,11.5C8,11.5,8,11.5,8,11.5z" class="st13"/></g><g class="st2"><path d="M42,17.7c0,0.8-0.3,1.3-0.8,1.8s-1.3,0.6-2.2,0.6c-1,0-1.8-0.1-2.3-0.4v-1c0.4,0.1,0.7,0.3,1.1,0.4 s0.8,0.1,1.2,0.1c0.7,0,1.2-0.1,1.5-0.4s0.5-0.6,0.5-1.1c0-0.3-0.1-0.5-0.2-0.7s-0.3-0.4-0.6-0.5S39.5,16.2,39,16 c-0.8-0.3-1.4-0.6-1.7-1s-0.5-0.9-0.5-1.5c0-0.7,0.2-1.2,0.7-1.6s1.2-0.6,2-0.6c0.9,0,1.6,0.2,2.3,0.5l-0.3,0.9 c-0.7-0.3-1.4-0.4-2.1-0.4c-0.5,0-0.9,0.1-1.2,0.3s-0.4,0.5-0.4,0.9c0,0.3,0.1,0.5,0.2,0.7s0.3,0.4,0.6,0.5s0.7,0.3,1.2,0.5 c0.9,0.3,1.5,0.7,1.9,1S42,17.1,42,17.7z" class="st14"/><path d="M46.3,20.1c-0.9,0-1.7-0.3-2.2-0.9s-0.8-1.4-0.8-2.4c0-1,0.3-1.9,0.8-2.5s1.2-0.9,2.1-0.9 c0.8,0,1.4,0.3,1.9,0.8s0.7,1.2,0.7,2.1V17h-4.4c0,0.8,0.2,1.3,0.6,1.7s0.9,0.6,1.5,0.6c0.7,0,1.4-0.1,2.1-0.4v0.9 c-0.3,0.1-0.7,0.3-1,0.3S46.8,20.1,46.3,20.1z M46.1,14.3c-0.5,0-0.9,0.2-1.2,0.5s-0.5,0.8-0.5,1.4h3.4c0-0.6-0.1-1.1-0.4-1.4 S46.6,14.3,46.1,14.3z" class="st14"/><path d="M54.3,20l-0.2-0.9h0c-0.3,0.4-0.6,0.7-1,0.8s-0.7,0.2-1.2,0.2c-0.6,0-1.1-0.2-1.5-0.5s-0.5-0.8-0.5-1.4 c0-1.3,1-2,3.1-2l1.1,0v-0.4c0-0.5-0.1-0.9-0.3-1.1s-0.6-0.4-1-0.4c-0.5,0-1.1,0.2-1.8,0.5L50.6,14c0.3-0.2,0.7-0.3,1-0.4 s0.8-0.1,1.1-0.1c0.8,0,1.3,0.2,1.7,0.5s0.6,0.9,0.6,1.6V20H54.3z M52.1,19.3c0.6,0,1.1-0.2,1.4-0.5S54,18,54,17.4v-0.6l-1,0 c-0.8,0-1.3,0.1-1.7,0.4s-0.5,0.5-0.5,1c0,0.4,0.1,0.6,0.3,0.8S51.7,19.3,52.1,19.3z" class="st14"/><path d="M60,13.5c0.3,0,0.5,0,0.8,0.1l-0.1,0.9c-0.3-0.1-0.5-0.1-0.7-0.1c-0.5,0-1,0.2-1.3,0.6S58,15.9,58,16.6V20 h-1v-6.4h0.8l0.1,1.2h0c0.2-0.4,0.5-0.7,0.9-1S59.6,13.5,60,13.5z" class="st14"/><path d="M64.5,20.1c-0.9,0-1.6-0.3-2.2-0.9s-0.8-1.4-0.8-2.4c0-1.1,0.3-1.9,0.8-2.5s1.3-0.9,2.2-0.9 c0.3,0,0.6,0,0.9,0.1s0.6,0.1,0.7,0.2l-0.3,0.8c-0.2-0.1-0.4-0.2-0.7-0.2s-0.5-0.1-0.7-0.1c-1.3,0-2,0.8-2,2.5 c0,0.8,0.2,1.4,0.5,1.8s0.8,0.6,1.4,0.6c0.5,0,1.1-0.1,1.6-0.3v0.9C65.7,20,65.1,20.1,64.5,20.1z" class="st14"/><path d="M72,20v-4.2c0-0.5-0.1-0.9-0.4-1.2s-0.6-0.4-1.1-0.4c-0.7,0-1.2,0.2-1.5,0.6s-0.5,1-0.5,1.8V20h-1v-9.1h1 v2.8c0,0.3,0,0.6,0,0.8h0.1c0.2-0.3,0.5-0.6,0.8-0.7s0.8-0.3,1.2-0.3c0.8,0,1.4,0.2,1.8,0.6s0.6,1,0.6,1.8V20H72z" class="st14"/></g><g id="search-clear-icon" class="st9" transform="translate(277 8)"><rect id="icon-box" width="16" height="16" class="st5"/><path id="close" d="M12,4.8L11.2,4L8,7.2L4.8,4L4,4.8L7.2,8L4,11.2L4.8,12L8,8.8l3.2,3.2l0.8-0.8L8.8,8L12,4.8z" class="st13"/></g></g><g id="unfold_less_black_24dp" transform="translate(903 1430)"><path id="Path_6566" d="M0,0h24v24H0V0z" class="st5"/><path id="Path_6567" d="M7.4,18.6L8.8,20l3.2-3.2l3.2,3.2l1.4-1.4L12,14L7.4,18.6z M16.6,5.4L15.2,4L12,7.2L8.8,4 L7.4,5.4L12,10L16.6,5.4z" class="st4"/></g><g id="add_black_24dp" transform="translate(825.026 1430)"><path id="Path_6564" d="M0,0h24v24H0V0z" class="st5"/><path id="Path_6565" d="M19,13h-6v6h-2v-6H5v-2h6V5h2v6h6V13z" class="st4"/></g><g id="delete_black_24dp_2_" transform="translate(707.789 1430)"><path id="Path_6570" d="M0,0h24v24H0V0z" class="st5"/><path id="Path_6571" d="M6,19c0,1.1,0.9,2,2,2h8c1.1,0,2-0.9,2-2V7H6V19z M19,4h-3.5l-1-1h-5l-1,1H5v2h14V4z" class="st4"/></g><g id="content_copy_black_24dp" transform="translate(746.868 1430)"><path id="Path_6576" d="M0,0h24v24H0V0z" class="st5"/><path id="Path_6577" d="M16,1H4C2.9,1,2,1.9,2,3v14h2V3h12V1z M19,5H8C6.9,5,6,5.9,6,7v14c0,1.1,0.9,2,2,2h11 c1.1,0,2-0.9,2-2V7C21,5.9,20.1,5,19,5z M19,21H8V7h11V21z" class="st4"/></g><g id="edit-btn" transform="translate(782 1426)"><path id="bg-11" d="M2,0h28c1.1,0,2,0.9,2,2v28c0,1.1-0.9,2-2,2H2c-1.1,0-2-0.9-2-2V2C0,0.9,0.9,0,2,0z" class="st15"/><g id="icon" transform="translate(4 4)"><g id="icon-box-2" class="st9"><rect width="24" height="24" class="st5"/><rect width="23" height="23" x=".5" y=".5" class="st16"/></g><path id="edit" d="M3,17.2V21h3.8L17.9,9.9l-3.8-3.8L3,17.2z M20.7,7c0.4-0.4,0.4-1,0-1.4l-2.3-2.3 c-0.4-0.4-1-0.4-1.4,0l-1.8,1.8l3.8,3.8L20.7,7z" class="st17"/></g></g></g></g></svg>