<svg xmlns="http://www.w3.org/2000/svg" {{ with .width }} width="{{ . }}"{{ end }}{{ with .height }} height="{{ . }}"{{ end }}{{ with .class }} class="{{ . }}"{{ end }} viewBox="0 0 32 32">
<g stroke="none" stroke-width="1" fill="none" fill-rule="evenodd"><g stroke="none" stroke-width="1" fill="none" fill-rule="evenodd"><g fill="currentColor" fill-rule="nonzero">
<path d="M16.75,30 L6.36,30 C5.5137901,30.0850581 4.67124373,29.8069524 4.04194391,29.2348617 C3.41264409,28.662771 3.05573587,27.8504633 3.05996222,27 C3.05996222,26.4477153 3.50771525,26 4.06,26 C4.61228475,26 5.06,26.4477153 5.06,27 C5.06,27.9 5.97,28 6.36,28 L16.75,28 C17.14,28 18.06,27.9 18.06,27 L18.06,25 C18.06,24.4477153 18.5077153,24 19.06,24 C19.6122847,24 20.0600431,24.4477153 20.0600431,25 L20.0600431,27 C20.0645644,27.8523922 19.7063074,28.6664817 19.0747165,29.2389205 C18.4431257,29.8113594 17.59784,30.088094 16.75,30 L16.75,30 Z"></path>
<path d="M19.06,14 C18.5077153,14 18.06,13.5522847 18.06,13 L18.06,3.33 C18.0600822,2.60320141 17.4767164,2.0109293 16.75,2 L6.36,2 C5.63489542,2.01096625 5.05442324,2.60483395 5.06,3.33 L5.06,4 C5.06,4.55228475 4.61228475,5 4.06,5 C3.50771525,5 3.05998443,4.55228475 3.05998443,4 L3.05998443,3.33 C3.05445567,1.50029767 4.53032242,0.0110139536 6.36,0 L16.75,0 C18.5812929,0.0109989544 20.06,1.49867404 20.06,3.33 L20.06,13 C20.06,13.5522847 19.6122847,14 19.06,14 Z"></path>
<path d="M14,6 L9.3,6 C8.01285413,5.90400195 7.04403866,4.78785511 7.13,3.5 L7.13,2 C7.13,1.44771525 7.57771525,1 8.13,1 C8.68228475,1 9.13,1.44771525 9.13,2 L9.13,3.5 C9.10811474,3.68766492 9.17900877,3.87422815 9.32,4 L14,4 C14.1285013,3.86659358 14.1939827,3.68470065 14.18,3.5 L14.18,2 C14.18,1.44771525 14.6277153,1 15.18,1 C15.7322847,1 16.18,1.44771525 16.18,2 L16.18,3.5 C16.2602247,4.78959453 15.288512,5.9039439 14,6 L14,6 Z"></path>
<path d="M7.06,15 L1,15 C0.44771525,15 0,14.5522847 0,14 L0,8 C0,7.44771525 0.44771525,7 1,7 L7.06,7 C7.61228475,7 8.06,7.44771525 8.06,8 L8.06,14 C8.06,14.5522847 7.61228475,15 7.06,15 Z M2,13 L6.06,13 L6.06,9 L2,9 L2,13 Z"></path>
<path d="M14,14 L11,14 C10.4477153,14 10,13.5522847 10,13 C10,12.4477153 10.4477153,12 11,12 L14,12 C14.5522847,12 15,12.4477153 15,13 C15,13.5522847 14.5522847,14 14,14 Z"></path>
<path d="M15,10 L11,10 C10.4477153,10 10,9.55228475 10,9 C10,8.44771525 10.4477153,8 11,8 L15,8 C15.5522847,8 16,8.44771525 16,9 C16,9.55228475 15.5522847,10 15,10 Z"></path>
<path d="M23,22 L11,22 C10.4477153,22 10,21.5522847 10,21 L10,17 C10,16.4477153 10.4477153,16 11,16 L23,16 C23.5522847,16 24,16.4477153 24,17 L24,21 C24,21.5522847 23.5522847,22 23,22 Z M12,20 L22,20 L22,18 L12,18 L12,20 Z"></path>
<circle cx="11.5" cy="25.5" r="1.5"></circle>
<path d="M7.06,24 C6.50771525,24 6.06,23.5522847 6.06,23 L6.06,19 L2,19 C1.44771525,19 1,18.5522847 1,18 C1,17.4477153 1.44771525,17 2,17 L7.06,17 C7.61228475,17 8.06,17.4477153 8.06,18 L8.06,23 C8.06,23.5522847 7.61228475,24 7.06,24 Z"></path>
<line x1="7.06" y1="18" x2="1.06" y2="24"></line>
<path d="M1.06,25.0000167 C0.794197015,25.0015368 0.538718831,24.8971865 0.35,24.71 C0.160687349,24.5222334 0.0542016757,24.2666375 0.0542016757,24 C0.0542016757,23.7333625 0.160687349,23.4777666 0.35,23.29 L6.35,17.29 C6.74003745,16.9022764 7.36996255,16.9022764 7.76,17.29 C7.94931265,17.4777666 8.05579832,17.7333625 8.05579832,18 C8.05579832,18.2666375 7.94931265,18.5222334 7.76,18.71 L1.76,24.71 C1.57373936,24.8947442 1.32233988,24.9988954 1.06,25.0000167 Z"></path>
</g>
</g>
</svg>