<svg fill="none" height="312" viewBox="0 0 960 312" width="960" xmlns="http://www.w3.org/2000/svg" xmlns:xlink="http://www.w3.org/1999/xlink"><filter id="a" color-interpolation-filters="sRGB" filterUnits="userSpaceOnUse" height="180" width="258.667" x="30" y="102"><feFlood flood-opacity="0" result="BackgroundImageFix"/><feColorMatrix in="SourceAlpha" result="hardAlpha" type="matrix" values="0 0 0 0 0 0 0 0 0 0 0 0 0 0 0 0 0 0 127 0"/><feOffset/><feGaussianBlur stdDeviation="5"/><feColorMatrix type="matrix" values="0 0 0 0 0.145098 0 0 0 0 0.164706 0 0 0 0 0.180392 0 0 0 0.2 0"/><feBlend in2="BackgroundImageFix" mode="normal" result="effect1_dropShadow_213_32750"/><feBlend in="SourceGraphic" in2="effect1_dropShadow_213_32750" mode="normal" result="shape"/></filter><clipPath id="b"><path d="m0 0h960v312h-960z"/></clipPath><clipPath id="c"><path d="m222.667 44h48v48h-48z"/></clipPath><clipPath id="d"><rect height="160" rx="4" width="238.667" x="40" y="112"/></clipPath><clipPath id="e"><path d="m222.667 116h48v48h-48z"/></clipPath><clipPath id="f"><path d="m543.333 44h48v48h-48z"/></clipPath><clipPath id="g"><rect height="160" rx="4" width="238.667" x="360.667" y="112"/></clipPath><clipPath id="h"><path d="m543.333 116h48v48h-48z"/></clipPath><clipPath id="i"><path d="m384.667 168h190.667v24h-190.667z"/></clipPath><clipPath id="j"><path d="m384.667 200h190.667v24h-190.667z"/></clipPath><clipPath id="k"><path d="m384.667 232h190.667v24h-190.667z"/></clipPath><clipPath id="l"><path d="m864 44h48v48h-48z"/></clipPath><clipPath id="m"><rect height="160" rx="4" width="238.667" x="681.333" y="112"/></clipPath><clipPath id="n"><path d="m864 116h48v48h-48z"/></clipPath><clipPath id="o"><path d="m705.333 168h190.667v24h-190.667z"/></clipPath><clipPath id="p"><path d="m705.333 200h190.667v24h-190.667z"/></clipPath><clipPath id="q"><path d="m705.333 232h190.667v24h-190.667z"/></clipPath><g clip-path="url(#b)"><path d="m0 0h318.667v312h-318.667z" fill="#252a2e"/><rect fill="#464b52" height="56" rx="4" width="238.667" x="40" y="40"/><path d="m70.4609 63.6016c-1.2552 0-2.2474.4192-2.9765 1.2578-.724.8333-1.086 1.9765-1.086 3.4297 0 1.4948.349 2.651 1.0469 3.4687.7031.8125 1.7031 1.2188 3 1.2188.7969 0 1.7057-.1433 2.7266-.4297v1.164c-.7917.2969-1.7683.4453-2.9297.4453-1.6823 0-2.9818-.5104-3.8984-1.5312-.9115-1.0208-1.3672-2.4714-1.3672-4.3516 0-1.177.2187-2.2083.6562-3.0937.4427-.8854 1.0781-1.5677 1.9063-2.0469.8333-.4792 1.8125-.7187 2.9375-.7187 1.1979 0 2.2448.2187 3.1406.6562l-.5625 1.1406c-.8646-.4062-1.7292-.6093-2.5938-.6093zm10.4235 10.3984-.2578-1.2188h-.0625c-.4271.5365-.8542.9011-1.2813 1.0938-.4219.1875-.9505.2812-1.5859.2812-.849 0-1.5157-.2187-2-.6562-.4792-.4375-.7188-1.0599-.7188-1.8672 0-1.7292 1.3828-2.6354 4.1485-2.7187l1.4531-.0469v-.5313c0-.6718-.1458-1.1666-.4375-1.4843-.2865-.323-.7474-.4844-1.3828-.4844-.7136 0-1.5209.2187-2.4219.6562l-.3984-.9922c.4218-.2291.8828-.4088 1.3828-.539.5052-.1302 1.0104-.1953 1.5156-.1953 1.0208 0 1.776.2265 2.2656.6797.4948.4531.7422 1.1796.7422 2.1796v5.8438zm-2.9297-.9141c.8073 0 1.4401-.2213 1.8984-.664.4636-.4427.6953-1.0625.6953-1.8594v-.7734l-1.2968.0547c-1.0313.0364-1.7761.1979-2.2344.4843-.4531.2813-.6797.7214-.6797 1.3203 0 .4688.1406.8256.4219 1.0704.2864.2447.6849.3671 1.1953.3671zm10.6265-7.8047c.3803 0 .7214.0313 1.0235.0938l-.1797 1.2031c-.3542-.0781-.6667-.1172-.9375-.1172-.6927 0-1.2865.2813-1.7813.8438-.4895.5625-.7343 1.263-.7343 2.1015v4.5938h-1.2969v-8.5625h1.0703l.1484 1.5859h.0625c.3178-.5573.7006-.9869 1.1485-1.289s.9401-.4532 1.4765-.4532zm6.3922 8.875c-1.2656 0-2.2656-.3854-3-1.1562-.7291-.7708-1.0937-1.8411-1.0937-3.2109 0-1.3802.3385-2.4766 1.0156-3.2891.6823-.8125 1.5964-1.2188 2.7422-1.2188 1.0729 0 1.9219.3542 2.5469 1.0626.625.7031.9375 1.6328.9375 2.789v.8203h-5.8985c.0261 1.0052.2787 1.7683.7579 2.2891.4843.5208 1.164.7812 2.039.7812.9219 0 1.8333-.1927 2.7344-.5781v1.1563c-.4583.1979-.8932.3385-1.3047.4218-.4062.0886-.8984.1328-1.4766.1328zm-.3515-7.789c-.6875 0-1.237.2239-1.6485.6719-.4062.4479-.6458 1.0677-.7187 1.8593h4.4766c0-.8177-.1823-1.4427-.5469-1.875-.3646-.4375-.8854-.6562-1.5625-.6562zm8.6341 6.7187c.229 0 .451-.0156.664-.0468.214-.0365.383-.073.508-.1094v.9922c-.141.0677-.349.1224-.625.164-.271.0469-.516.0703-.734.0703-1.657 0-2.485-.8723-2.485-2.6171v-5.0938h-1.2262v-.625l1.2262-.5391.547-1.8281h.75v1.9844h2.485v1.0078h-2.485v5.0391c0 .5156.123.9114.367 1.1875.245.276.581.414 1.008.414zm16.66-4.9062c0 1.8854-.513 3.3281-1.539 4.3281-1.021.9948-2.493 1.4922-4.414 1.4922h-3.165v-11.4219h3.5c1.776 0 3.157.4922 4.141 1.4766s1.477 2.3594 1.477 4.125zm-1.407.0469c0-1.4896-.375-2.612-1.125-3.3672-.744-.7552-1.854-1.1328-3.328-1.1328h-1.929v9.125h1.617c1.583 0 2.773-.3881 3.57-1.1641.797-.7813 1.195-1.9349 1.195-3.4609zm11.307 1.4843c0 1.3959-.352 2.487-1.055 3.2735-.703.7812-1.675 1.1718-2.914 1.1718-.766 0-1.445-.1796-2.039-.539s-1.052-.875-1.375-1.5469-.485-1.4583-.485-2.3594c0-1.3958.349-2.4817 1.047-3.2578.698-.7812 1.667-1.1719 2.907-1.1719 1.197 0 2.148.3985 2.851 1.1954.708.7968 1.063 1.875 1.063 3.2343zm-6.524 0c0 1.0938.219 1.9271.656 2.5.438.573 1.081.8594 1.93.8594s1.492-.2838 1.93-.8515c.443-.573.664-1.4089.664-2.5079 0-1.0885-.221-1.914-.664-2.4765-.438-.5677-1.086-.8516-1.946-.8516-.848 0-1.489.2787-1.921.836-.433.5572-.649 1.388-.649 2.4921zm15.947 4.2891-1.57-5.0234c-.099-.3073-.284-1.0052-.555-2.0938h-.062c-.209.9115-.391 1.6146-.547 2.1094l-1.618 5.0078h-1.5l-2.335-8.5625h1.359c.552 2.151.971 3.7891 1.258 4.9141.291 1.125.458 1.8828.5 2.2734h.062c.058-.2969.149-.6797.274-1.1484.13-.474.242-.849.336-1.125l1.57-4.9141h1.406l1.531 4.9141c.292.8958.49 1.6484.594 2.2578h.063c.021-.1875.075-.4766.164-.8672.093-.3906.638-2.4922 1.633-6.3047h1.343l-2.367 8.5625zm11.47 0v-5.5391c0-.6979-.158-1.2187-.476-1.5625-.318-.3437-.815-.5156-1.492-.5156-.896 0-1.552.2422-1.969.7266s-.625 1.2838-.625 2.3984v4.4922h-1.297v-8.5625h1.055l.211 1.1719h.062c.266-.4219.638-.7474 1.117-.9766.479-.2344 1.013-.3516 1.602-.3516 1.031 0 1.807.25 2.328.75.521.4948.781 1.2891.781 2.3829v5.5859z" fill="#fff"/><g clip-path="url(#c)"><path d="m254.427 62.5801-7.76 7.76-7.76-7.76c-.78-.78-2.04-.78-2.82 0s-.78 2.04 0 2.82l9.18 9.18c.78.78 2.04.78 2.82 0l9.18-9.18c.78-.78.78-2.04 0-2.82-.78-.76-2.06-.78-2.84 0z" fill="#fff"/></g><g filter="url(#a)"><g clip-path="url(#d)"><rect fill="#464b52" height="160" rx="4" width="238.667" x="40" y="112"/><rect fill="#464b52" height="56" rx="4" width="238.667" x="40" y="112"/><path d="m70.3672 136.008c-.5469 0-1.0365.099-1.4688.297-.427.198-.789.484-1.0859.859-.2969.37-.5234.82-.6797 1.352-.1562.526-.2344 1.119-.2344 1.781 0 .885.125 1.648.375 2.289.25.635.6302 1.125 1.1407 1.469.5104.338 1.1562.507 1.9375.507.4843 0 .9557-.046 1.414-.14.4584-.094.9323-.221 1.4219-.383v1.594c-.4635.182-.9323.315-1.4063.398-.4739.084-1.0208.125-1.6406.125-1.1666 0-2.1354-.242-2.9062-.726-.7656-.485-1.3386-1.167-1.7188-2.047-.375-.88-.5625-1.912-.5625-3.094 0-.865.1198-1.656.3594-2.375s.5885-1.338 1.0469-1.859c.4583-.526 1.0234-.93 1.6953-1.211.6771-.287 1.4505-.43 2.3203-.43.5729 0 1.1354.065 1.6875.195.5573.125 1.0729.305 1.5469.539l-.6563 1.547c-.3958-.187-.8099-.349-1.2422-.484s-.8802-.203-1.3437-.203zm8.6265 1.18c1.0938 0 1.9193.242 2.4766.726.5625.484.8438 1.24.8438 2.266v5.82h-1.3047l-.3516-1.227h-.0625c-.2448.313-.4974.571-.7578.774s-.5625.354-.9063.453c-.3385.104-.7526.156-1.2421.156-.5157 0-.9766-.094-1.3829-.281-.4062-.193-.7265-.484-.9609-.875s-.3516-.885-.3516-1.484c0-.891.3308-1.56.9922-2.008.6667-.448 1.6719-.696 3.0157-.742l1.5-.055v-.453c0-.599-.1407-1.026-.4219-1.281-.2761-.256-.6667-.383-1.1719-.383-.4323 0-.8516.062-1.2578.187-.4063.125-.8021.279-1.1875.461l-.5938-1.297c.4219-.224.9011-.406 1.4375-.547.5417-.14 1.1042-.21 1.6875-.21zm1.5 4.679-1.1171.039c-.9167.032-1.5599.188-1.9297.469s-.5547.667-.5547 1.156c0 .427.1276.74.3828.938.2552.192.5911.289 1.0078.289.6354 0 1.1615-.18 1.5781-.539.4219-.365.6328-.899.6328-1.602zm8.9235-4.679c.1458 0 .3047.007.4765.023.1719.016.3204.036.4454.062l-.1719 1.719c-.1094-.031-.2448-.054-.4063-.07-.1562-.016-.2968-.024-.4218-.024-.3282 0-.6407.055-.9375.164-.2969.105-.5599.266-.7891.485-.2292.213-.4089.482-.5391.805-.1302.322-.1953.697-.1953 1.125v4.523h-1.8437v-8.648h1.4375l.25 1.523h.0859c.1719-.307.3854-.589.6406-.844s.5469-.458.875-.609c.3334-.156.698-.234 1.0938-.234zm6.1187 0c.7709 0 1.4323.158 1.9844.476s.9766.768 1.2735 1.352c.2968.583.4453 1.281.4453 2.093v.985h-5.7735c.0209.838.2448 1.484.6719 1.937.4323.453 1.0365.68 1.8125.68.5521 0 1.0469-.052 1.4844-.156.4427-.11.8984-.269 1.3672-.477v1.492c-.4323.203-.8724.352-1.3203.446-.448.093-.9844.14-1.6094.14-.849 0-1.5964-.164-2.2422-.492-.6406-.333-1.1432-.828-1.5078-1.484-.3594-.657-.5391-1.472-.5391-2.446 0-.968.1641-1.791.4922-2.468s.7891-1.193 1.3828-1.547c.5938-.354 1.2865-.531 2.0781-.531zm0 1.382c-.5781 0-1.0468.188-1.4062.563-.3542.375-.5625.924-.625 1.648h3.9375c-.0052-.432-.0781-.815-.2188-1.148-.1354-.334-.3437-.594-.625-.781-.276-.188-.6302-.282-1.0625-.282zm9.1421 6.102c.24 0 .477-.021.711-.063.234-.047.448-.101.641-.164v1.391c-.203.088-.466.164-.789.226-.323.063-.659.094-1.008.094-.49 0-.93-.08-1.321-.242-.39-.167-.7-.45-.929-.852-.229-.401-.344-.955-.344-1.664v-4.648h-1.18v-.82l1.266-.649.602-1.851h1.156v1.922h2.476v1.398h-2.476v4.625c0 .437.109.763.328.977.219.213.508.32.867.32zm16.722-10.094v7.391c0 .797-.169 1.51-.508 2.14-.333.631-.838 1.131-1.515 1.5-.678.365-1.529.547-2.555.547-1.464 0-2.578-.383-3.344-1.148-.76-.771-1.14-1.794-1.14-3.07v-7.36h1.875v7.195c0 .954.223 1.657.671 2.11s1.118.679 2.008.679c.615 0 1.115-.106 1.5-.32.391-.219.677-.536.86-.953.187-.422.281-.93.281-1.523v-7.188zm7.322 2.61c1.026 0 1.849.374 2.469 1.124.625.75.937 1.865.937 3.344 0 .979-.146 1.805-.437 2.477-.287.666-.69 1.172-1.211 1.515-.516.339-1.118.508-1.805.508-.438 0-.818-.057-1.141-.172-.323-.114-.599-.263-.828-.445-.229-.187-.422-.391-.578-.609h-.109c.026.208.049.44.07.695.026.25.039.479.039.687v3.524h-1.844v-12.484h1.5l.258 1.195h.086c.162-.245.357-.471.586-.68.234-.208.516-.372.844-.492.333-.125.721-.187 1.164-.187zm-.492 1.5c-.506 0-.912.101-1.219.304-.302.198-.524.498-.664.899-.136.401-.208.903-.219 1.507v.258c0 .641.065 1.185.195 1.633.136.443.357.781.664 1.016.313.229.735.343 1.266.343.448 0 .818-.122 1.109-.367.297-.245.519-.593.665-1.047.145-.453.218-.987.218-1.601 0-.932-.166-1.656-.5-2.172-.328-.516-.833-.773-1.515-.773z" fill="#fff"/><g clip-path="url(#e)"><path d="m254.427 134.58-7.76 7.76-7.76-7.76c-.78-.78-2.04-.78-2.82 0s-.78 2.04 0 2.82l9.18 9.18c.78.78 2.04.78 2.82 0l9.18-9.18c.78-.78.78-2.04 0-2.82-.78-.76-2.06-.78-2.84 0z" fill="#fff"/></g><g fill="#353a40"><circle cx="76" cy="180" r="12"/><rect height="20" rx="4" width="43" x="98" y="170"/><circle cx="76" cy="212" r="12"/><rect height="20" rx="4" width="112" x="98" y="202"/><circle cx="76" cy="244" r="12"/><rect height="20" rx="4" width="64" x="98" y="234"/></g></g></g><path d="m0 0h318.667v312h-318.667z" fill="#252a2e" transform="translate(320.667)"/><path d="m393.479 65.9062c0 1.1563-.396 2.0469-1.187 2.6719-.787.6198-1.914.9297-3.383.9297h-1.344v4.4922h-1.328v-11.4219h2.961c2.854 0 4.281 1.1094 4.281 3.3281zm-5.914 2.461h1.195c1.177 0 2.029-.1901 2.555-.5703s.789-.9896.789-1.8281c0-.7553-.247-1.3178-.742-1.6876-.495-.3697-1.266-.5546-2.313-.5546h-1.484zm9.564 5.6328h-1.297v-12.1562h1.297zm4.119-8.5625v5.5547c0 .6979.159 1.2187.476 1.5625.318.3437.816.5156 1.493.5156.895 0 1.549-.2448 1.961-.7344.416-.4895.625-1.289.625-2.3984v-4.5h1.296v8.5625h-1.07l-.187-1.1484h-.071c-.265.4218-.635.7448-1.109.9687-.469.224-1.005.3359-1.609.3359-1.042 0-1.823-.2473-2.344-.7421-.516-.4948-.774-1.2865-.774-2.375v-5.6016zm14.283 6.2266c0 .7968-.297 1.4114-.891 1.8437s-1.427.6484-2.5.6484c-1.135 0-2.021-.1796-2.656-.539v-1.2031c.411.2083.851.3724 1.32.4921.474.1198.93.1797 1.367.1797.677 0 1.198-.1067 1.563-.3203.364-.2187.547-.5495.547-.9922 0-.3333-.146-.6172-.438-.8515-.286-.2396-.849-.5209-1.687-.8438-.797-.2969-1.365-.5547-1.703-.7734-.334-.224-.584-.4766-.75-.7578-.162-.2813-.243-.6172-.243-1.0078 0-.698.284-1.2474.852-1.6485.568-.4062 1.346-.6094 2.336-.6094.922 0 1.823.1876 2.703.5626l-.461 1.0546c-.859-.3541-1.638-.5312-2.336-.5312-.614 0-1.078.0963-1.39.289-.313.1928-.469.4584-.469.7969 0 .2292.057.4245.172.586.119.1614.31.3151.57.4609s.76.3568 1.5.6328c1.016.3698 1.7.7422 2.055 1.1172.359.375.539.8464.539 1.4141z" fill="#fff"/><g clip-path="url(#f)"><path d="m575.093 62.5801-7.76 7.76-7.76-7.76c-.78-.78-2.04-.78-2.82 0s-.78 2.04 0 2.82l9.18 9.18c.78.78 2.04.78 2.82 0l9.18-9.18c.78-.78.78-2.04 0-2.82-.78-.76-2.06-.78-2.84 0z" fill="#fff"/></g><g clip-path="url(#g)"><rect fill="#464b52" height="160" rx="4" width="238.667" x="360.667" y="112"/><path d="m391.096 146-3.289-9.539h-.07c.016.213.034.505.055.875.02.37.039.766.054 1.187.016.422.024.826.024 1.211v6.266h-1.703v-11.422h2.632l3.165 9.117h.046l3.274-9.117h2.625v11.422h-1.789v-6.359c0-.349.005-.727.015-1.133.016-.406.032-.792.047-1.156.021-.365.037-.657.047-.875h-.062l-3.414 9.523zm11.619-8.648v8.648h-1.836v-8.648zm-.906-3.313c.281 0 .523.076.726.227.209.151.313.411.313.781 0 .364-.104.625-.313.781-.203.151-.445.227-.726.227-.292 0-.539-.076-.742-.227-.198-.156-.297-.417-.297-.781 0-.37.099-.63.297-.781.203-.151.45-.227.742-.227zm8.197 3.149c.974 0 1.731.252 2.273.757.547.5.82 1.305.82 2.414v5.641h-1.835v-5.297c0-.672-.139-1.174-.415-1.508-.276-.338-.703-.507-1.281-.507-.838 0-1.422.257-1.75.773-.323.516-.484 1.263-.484 2.242v4.297h-1.836v-8.648h1.43l.257 1.171h.102c.187-.302.419-.549.695-.742.282-.198.594-.346.938-.445.349-.099.711-.148 1.086-.148zm13.353.164v8.648h-1.445l-.25-1.164h-.102c-.182.297-.414.544-.695.742-.282.193-.594.336-.938.43-.344.099-.706.148-1.086.148-.651 0-1.208-.109-1.672-.328-.458-.224-.81-.568-1.054-1.031-.245-.464-.368-1.063-.368-1.797v-5.648h1.844v5.304c0 .672.136 1.175.406 1.508.276.333.704.5 1.282.5.557 0 1-.115 1.328-.344s.56-.567.695-1.015c.141-.448.211-.998.211-1.649v-4.304zm8.595 6.179c0 .568-.138 1.047-.414 1.438-.276.39-.68.687-1.211.89-.526.198-1.172.297-1.937.297-.605 0-1.125-.044-1.563-.133-.432-.083-.841-.213-1.226-.39v-1.586c.411.193.872.359 1.382.5.516.141 1.003.211 1.461.211.604 0 1.039-.094 1.305-.281.266-.193.398-.448.398-.766 0-.188-.054-.354-.164-.5-.104-.151-.302-.305-.593-.461-.287-.161-.709-.354-1.266-.578-.547-.219-1.008-.438-1.383-.656-.375-.219-.659-.482-.851-.789-.193-.313-.289-.711-.289-1.196 0-.765.302-1.346.906-1.742.609-.401 1.414-.601 2.414-.601.531 0 1.031.054 1.5.164.474.104.937.257 1.39.46l-.578 1.383c-.39-.172-.783-.312-1.179-.422-.391-.114-.789-.171-1.196-.171-.474 0-.836.072-1.086.218-.244.146-.367.354-.367.625 0 .203.06.375.18.516s.325.281.617.422c.297.14.708.315 1.234.523.516.198.961.406 1.336.625.381.214.672.477.875.789.204.313.305.716.305 1.211z" fill="#fff"/><g clip-path="url(#h)"><path d="m575.093 134.58-7.76 7.76-7.76-7.76c-.78-.78-2.04-.78-2.82 0s-.78 2.04 0 2.82l9.18 9.18c.78.78 2.04.78 2.82 0l9.18-9.18c.78-.78.78-2.04 0-2.82-.78-.76-2.06-.78-2.84 0z" fill="#fff"/></g><g fill="#353a40"><g clip-path="url(#i)"><circle cx="396.667" cy="180" r="12"/><rect height="20" rx="4" width="43" x="418.667" y="170"/></g><g clip-path="url(#j)"><circle cx="396.667" cy="212" r="12"/><rect height="20" rx="4" width="112" x="418.667" y="202"/></g><g clip-path="url(#k)"><circle cx="396.667" cy="244" r="12"/><rect height="20" rx="4" width="64" x="418.667" y="234"/></g></g></g><path d="m0 0h318.667v312h-318.667z" fill="#252a2e" transform="translate(641.333)"/><rect fill="#464b52" height="56" rx="4" width="238.667" x="681.333" y="40"/><path d="m714.083 74-1.422-3.6328h-4.578l-1.406 3.6328h-1.344l4.516-11.4688h1.117l4.492 11.4688zm-1.836-4.8281-1.328-3.5391c-.172-.4479-.349-.9974-.531-1.6484-.115.5-.279 1.0495-.492 1.6484l-1.344 3.5391zm8.643-3.8907c.38 0 .721.0313 1.023.0938l-.18 1.2031c-.354-.0781-.666-.1172-.937-.1172-.693 0-1.287.2813-1.781.8438-.49.5625-.735 1.263-.735 2.1015v4.5938h-1.297v-8.5625h1.071l.148 1.5859h.063c.317-.5573.7-.9869 1.148-1.289s.94-.4532 1.477-.4532zm6.681 0c.38 0 .721.0313 1.023.0938l-.179 1.2031c-.355-.0781-.667-.1172-.938-.1172-.693 0-1.286.2813-1.781.8438-.49.5625-.735 1.263-.735 2.1015v4.5938h-1.296v-8.5625h1.07l.148 1.5859h.063c.317-.5573.7-.9869 1.148-1.289s.94-.4532 1.477-.4532zm10.165 4.4297c0 1.3959-.351 2.487-1.054 3.2735-.703.7812-1.675 1.1718-2.914 1.1718-.766 0-1.446-.1796-2.039-.539-.594-.3594-1.053-.875-1.375-1.5469-.323-.6719-.485-1.4583-.485-2.3594 0-1.3958.349-2.4817 1.047-3.2578.698-.7812 1.667-1.1719 2.906-1.1719 1.198 0 2.149.3985 2.852 1.1954.708.7968 1.062 1.875 1.062 3.2343zm-6.523 0c0 1.0938.219 1.9271.656 2.5.438.573 1.081.8594 1.93.8594s1.492-.2838 1.93-.8515c.442-.573.664-1.4089.664-2.5079 0-1.0885-.222-1.914-.664-2.4765-.438-.5677-1.086-.8516-1.946-.8516-.849 0-1.489.2787-1.922.836-.432.5572-.648 1.388-.648 2.4921zm15.947 4.2891-1.57-5.0234c-.099-.3073-.284-1.0052-.555-2.0938h-.063c-.208.9115-.39 1.6146-.547 2.1094l-1.617 5.0078h-1.5l-2.336-8.5625h1.36c.552 2.151.971 3.7891 1.258 4.9141.291 1.125.458 1.8828.5 2.2734h.062c.057-.2969.148-.6797.273-1.1484.131-.474.243-.849.336-1.125l1.571-4.9141h1.406l1.531 4.9141c.292.8958.49 1.6484.594 2.2578h.062c.021-.1875.076-.4766.165-.8672.093-.3906.638-2.4922 1.632-6.3047h1.344l-2.367 8.5625zm19.23-5.8203c0 1.8854-.514 3.3281-1.54 4.3281-1.02.9948-2.492 1.4922-4.414 1.4922h-3.164v-11.4219h3.5c1.776 0 3.157.4922 4.141 1.4766s1.477 2.3594 1.477 4.125zm-1.407.0469c0-1.4896-.375-2.612-1.125-3.3672-.745-.7552-1.854-1.1328-3.328-1.1328h-1.93v9.125h1.618c1.583 0 2.773-.3881 3.57-1.1641.797-.7813 1.195-1.9349 1.195-3.4609zm11.307 1.4843c0 1.3959-.352 2.487-1.055 3.2735-.703.7812-1.675 1.1718-2.914 1.1718-.766 0-1.446-.1796-2.039-.539-.594-.3594-1.052-.875-1.375-1.5469s-.485-1.4583-.485-2.3594c0-1.3958.349-2.4817 1.047-3.2578.698-.7812 1.667-1.1719 2.906-1.1719 1.198 0 2.149.3985 2.852 1.1954.708.7968 1.063 1.875 1.063 3.2343zm-6.524 0c0 1.0938.219 1.9271.656 2.5.438.573 1.081.8594 1.93.8594s1.492-.2838 1.93-.8515c.442-.573.664-1.4089.664-2.5079 0-1.0885-.222-1.914-.664-2.4765-.438-.5677-1.086-.8516-1.946-.8516-.849 0-1.489.2787-1.921.836-.433.5572-.649 1.388-.649 2.4921zm15.947 4.2891-1.57-5.0234c-.099-.3073-.284-1.0052-.555-2.0938h-.063c-.208.9115-.39 1.6146-.546 2.1094l-1.618 5.0078h-1.5l-2.336-8.5625h1.36c.552 2.151.971 3.7891 1.258 4.9141.291 1.125.458 1.8828.5 2.2734h.062c.057-.2969.149-.6797.274-1.1484.13-.474.242-.849.335-1.125l1.571-4.9141h1.406l1.531 4.9141c.292.8958.49 1.6484.594 2.2578h.063c.02-.1875.075-.4766.164-.8672.093-.3906.638-2.4922 1.632-6.3047h1.344l-2.367 8.5625zm11.47 0v-5.5391c0-.6979-.159-1.2187-.476-1.5625-.318-.3437-.815-.5156-1.492-.5156-.896 0-1.553.2422-1.969.7266-.417.4844-.625 1.2838-.625 2.3984v4.4922h-1.297v-8.5625h1.055l.211 1.1719h.062c.266-.4219.638-.7474 1.117-.9766.479-.2344 1.013-.3516 1.602-.3516 1.031 0 1.807.25 2.328.75.521.4948.781 1.2891.781 2.3829v5.5859z" fill="#4ea646"/><g clip-path="url(#l)"><path d="m895.76 62.5801-7.76 7.76-7.76-7.76c-.78-.78-2.04-.78-2.82 0s-.78 2.04 0 2.82l9.18 9.18c.78.78 2.04.78 2.82 0l9.18-9.18c.78-.78.78-2.04 0-2.82-.78-.76-2.06-.78-2.84 0z" fill="#fff"/></g><g clip-path="url(#m)"><rect fill="#1e8a44" fill-opacity=".5" height="160" rx="4" width="238.667" x="681.333" y="112"/><path d="m713.911 146-1.117-3.172h-4.367l-1.117 3.172h-1.977l4.25-11.469h2.078l4.243 11.469zm-1.601-4.781-1.086-3.125c-.042-.136-.102-.326-.18-.571-.078-.25-.156-.502-.234-.757-.078-.261-.143-.48-.195-.657-.053.214-.118.453-.196.719-.073.261-.146.505-.219.734-.067.23-.119.407-.156.532l-1.094 3.125zm9.447-4.031c.146 0 .304.007.476.023s.321.036.446.062l-.172 1.719c-.11-.031-.245-.054-.407-.07-.156-.016-.296-.024-.421-.024-.329 0-.641.055-.938.164-.297.105-.56.266-.789.485-.229.213-.409.482-.539.805-.13.322-.195.697-.195 1.125v4.523h-1.844v-8.648h1.437l.25 1.523h.086c.172-.307.386-.589.641-.844s.547-.458.875-.609c.333-.156.698-.234 1.094-.234zm7.056 0c.146 0 .305.007.477.023.171.016.32.036.445.062l-.172 1.719c-.109-.031-.245-.054-.406-.07-.157-.016-.297-.024-.422-.024-.328 0-.641.055-.938.164-.297.105-.56.266-.789.485-.229.213-.409.482-.539.805-.13.322-.195.697-.195 1.125v4.523h-1.844v-8.648h1.438l.25 1.523h.086c.171-.307.385-.589.64-.844s.547-.458.875-.609c.334-.156.698-.234 1.094-.234zm10.33 4.468c0 .719-.094 1.357-.282 1.914-.187.558-.461 1.029-.82 1.414-.359.381-.792.672-1.297.875-.505.198-1.075.297-1.711.297-.593 0-1.138-.099-1.633-.297-.494-.203-.924-.494-1.289-.875-.359-.385-.638-.856-.836-1.414-.197-.557-.296-1.195-.296-1.914 0-.953.164-1.76.492-2.422.333-.666.807-1.174 1.422-1.523.614-.349 1.346-.523 2.195-.523.797 0 1.5.174 2.109.523.61.349 1.086.857 1.43 1.523.344.667.516 1.474.516 2.422zm-6.274 0c0 .63.076 1.17.227 1.617.156.448.396.792.719 1.032.322.234.739.351 1.25.351.51 0 .927-.117 1.25-.351.322-.24.559-.584.71-1.032.151-.447.227-.987.227-1.617s-.076-1.164-.227-1.601c-.151-.443-.388-.779-.71-1.008-.323-.235-.743-.352-1.258-.352-.761 0-1.315.256-1.664.766s-.524 1.242-.524 2.195zm15.603 4.336-1.093-4.023c-.053-.198-.115-.438-.188-.719s-.146-.57-.219-.867c-.073-.302-.14-.581-.203-.836-.057-.255-.101-.453-.133-.594h-.062c-.026.141-.068.339-.125.594s-.123.534-.195.836c-.073.302-.146.596-.219.883-.068.286-.13.531-.188.734l-1.148 3.992h-2.016l-2.422-8.648h1.86l1.125 4.297c.073.291.143.606.211.945.073.338.135.661.187.969.052.307.091.56.117.757h.063c.021-.14.049-.317.086-.531.036-.219.078-.445.125-.679.047-.24.094-.464.14-.672.047-.214.092-.386.133-.516l1.328-4.57h2.008l1.274 4.57c.057.198.119.448.187.75.068.297.128.596.18.898.057.297.094.545.109.743h.063c.021-.177.057-.417.109-.719.057-.307.122-.633.195-.977.073-.349.149-.671.227-.968l1.148-4.297h1.829l-2.438 8.648zm19.589-11.414v7.391c0 .797-.169 1.51-.507 2.14-.334.631-.839 1.131-1.516 1.5-.677.365-1.529.547-2.555.547-1.463 0-2.578-.383-3.343-1.148-.761-.771-1.141-1.794-1.141-3.07v-7.36h1.875v7.195c0 .954.224 1.657.672 2.11s1.117.679 2.008.679c.614 0 1.114-.106 1.5-.32.39-.219.677-.536.859-.953.187-.422.281-.93.281-1.523v-7.188zm7.322 2.61c1.026 0 1.849.374 2.469 1.124.625.75.938 1.865.938 3.344 0 .979-.146 1.805-.438 2.477-.286.666-.69 1.172-1.211 1.515-.516.339-1.117.508-1.805.508-.437 0-.817-.057-1.14-.172-.323-.114-.599-.263-.828-.445-.23-.187-.422-.391-.578-.609h-.11c.026.208.05.44.07.695.026.25.04.479.04.687v3.524h-1.844v-12.484h1.5l.258 1.195h.086c.161-.245.356-.471.585-.68.235-.208.516-.372.844-.492.334-.125.722-.187 1.164-.187zm-.492 1.5c-.505 0-.911.101-1.219.304-.302.198-.523.498-.664.899-.135.401-.208.903-.218 1.507v.258c0 .641.065 1.185.195 1.633.135.443.357.781.664 1.016.312.229.734.343 1.266.343.447 0 .817-.122 1.109-.367.297-.245.518-.593.664-1.047.146-.453.219-.987.219-1.601 0-.932-.167-1.656-.5-2.172-.328-.516-.834-.773-1.516-.773z" fill="#f1f1f6"/><g clip-path="url(#n)"><path d="m895.76 134.58-7.76 7.76-7.76-7.76c-.78-.78-2.04-.78-2.82 0s-.78 2.04 0 2.82l9.18 9.18c.78.78 2.04.78 2.82 0l9.18-9.18c.78-.78.78-2.04 0-2.82-.78-.76-2.06-.78-2.84 0z" fill="#fff"/></g><g fill="#fff"><g clip-path="url(#o)"><circle cx="717.333" cy="180" r="12"/><rect height="20" rx="4" width="43" x="739.333" y="170"/></g><g clip-path="url(#p)"><circle cx="717.333" cy="212" r="12"/><rect height="20" rx="4" width="112" x="739.333" y="202"/></g><g clip-path="url(#q)"><circle cx="717.333" cy="244" r="12"/><rect height="20" rx="4" width="64" x="739.333" y="234"/></g></g></g><rect height="159" rx="3.5" stroke="#1e8a44" width="237.667" x="681.833" y="112.5"/></g></svg>