<svg width="961" height="260" viewBox="0 0 961 260" fill="none" xmlns="http://www.w3.org/2000/svg">
<rect width="961" height="260" fill="#252A2E"/>
<rect x="109.5" y="102" width="361" height="56" rx="4" fill="#464B52"/>
<path d="M138.586 128H137.258V117.758H133.641V116.578H142.203V117.758H138.586V128ZM145.181 128H143.884V119.438H145.181V128ZM143.775 117.117C143.775 116.82 143.848 116.604 143.994 116.469C144.14 116.328 144.322 116.258 144.541 116.258C144.749 116.258 144.929 116.328 145.08 116.469C145.231 116.609 145.306 116.826 145.306 117.117C145.306 117.409 145.231 117.628 145.08 117.773C144.929 117.914 144.749 117.984 144.541 117.984C144.322 117.984 144.14 117.914 143.994 117.773C143.848 117.628 143.775 117.409 143.775 117.117ZM150.847 127.086C151.076 127.086 151.297 127.07 151.511 127.039C151.724 127.003 151.894 126.966 152.019 126.93V127.922C151.878 127.99 151.67 128.044 151.394 128.086C151.123 128.133 150.878 128.156 150.659 128.156C149.003 128.156 148.175 127.284 148.175 125.539V120.445H146.948V119.82L148.175 119.281L148.722 117.453H149.472V119.438H151.956V120.445H149.472V125.484C149.472 126 149.594 126.396 149.839 126.672C150.084 126.948 150.42 127.086 150.847 127.086ZM155.184 128H153.888V115.844H155.184V128ZM161.702 128.156C160.436 128.156 159.436 127.771 158.702 127C157.972 126.229 157.608 125.159 157.608 123.789C157.608 122.409 157.946 121.312 158.623 120.5C159.306 119.688 160.22 119.281 161.366 119.281C162.439 119.281 163.288 119.635 163.913 120.344C164.538 121.047 164.85 121.977 164.85 123.133V123.953H158.952C158.978 124.958 159.23 125.721 159.709 126.242C160.194 126.763 160.873 127.023 161.748 127.023C162.67 127.023 163.582 126.831 164.483 126.445V127.602C164.024 127.799 163.59 127.94 163.178 128.023C162.772 128.112 162.28 128.156 161.702 128.156ZM161.35 120.367C160.663 120.367 160.113 120.591 159.702 121.039C159.295 121.487 159.056 122.107 158.983 122.898H163.459C163.459 122.081 163.277 121.456 162.913 121.023C162.548 120.586 162.027 120.367 161.35 120.367Z" fill="white"/>
<path d="M140.233 141.362C140.233 142.166 140.084 142.839 139.784 143.379C139.485 143.916 139.05 144.321 138.48 144.595C137.911 144.865 137.224 145 136.42 145H134.438V137.861H136.635C137.374 137.861 138.012 137.995 138.549 138.262C139.086 138.525 139.501 138.918 139.794 139.438C140.087 139.956 140.233 140.597 140.233 141.362ZM139.013 141.396C139.013 140.811 138.92 140.329 138.734 139.951C138.552 139.574 138.282 139.294 137.924 139.111C137.569 138.926 137.131 138.833 136.61 138.833H135.609V144.019H136.439C137.302 144.019 137.947 143.799 138.373 143.359C138.799 142.92 139.013 142.266 139.013 141.396ZM143.858 139.492C144.339 139.492 144.753 139.591 145.098 139.79C145.443 139.989 145.708 140.27 145.894 140.635C146.079 140.999 146.172 141.436 146.172 141.943V142.559H142.564C142.577 143.083 142.717 143.486 142.984 143.77C143.254 144.053 143.631 144.194 144.116 144.194C144.461 144.194 144.771 144.162 145.044 144.097C145.321 144.028 145.606 143.929 145.899 143.799V144.731C145.628 144.858 145.353 144.951 145.073 145.01C144.793 145.068 144.458 145.098 144.068 145.098C143.537 145.098 143.07 144.995 142.666 144.79C142.266 144.582 141.952 144.272 141.724 143.862C141.499 143.452 141.387 142.943 141.387 142.334C141.387 141.729 141.489 141.214 141.695 140.791C141.9 140.368 142.188 140.046 142.559 139.824C142.93 139.603 143.363 139.492 143.858 139.492ZM143.858 140.356C143.496 140.356 143.203 140.474 142.979 140.708C142.757 140.942 142.627 141.286 142.588 141.738H145.049C145.046 141.468 145 141.229 144.912 141.021C144.828 140.812 144.697 140.649 144.522 140.532C144.349 140.415 144.128 140.356 143.858 140.356ZM151.149 143.457C151.149 143.812 151.063 144.111 150.89 144.355C150.718 144.6 150.465 144.785 150.133 144.912C149.804 145.036 149.401 145.098 148.922 145.098C148.545 145.098 148.219 145.07 147.946 145.015C147.676 144.963 147.42 144.881 147.179 144.771V143.779C147.436 143.9 147.724 144.004 148.043 144.092C148.366 144.18 148.67 144.224 148.956 144.224C149.334 144.224 149.606 144.165 149.772 144.048C149.938 143.927 150.021 143.768 150.021 143.569C150.021 143.452 149.987 143.348 149.918 143.257C149.853 143.162 149.73 143.066 149.547 142.969C149.368 142.868 149.105 142.747 148.756 142.607C148.414 142.471 148.126 142.334 147.892 142.197C147.658 142.061 147.48 141.896 147.36 141.704C147.239 141.509 147.179 141.26 147.179 140.957C147.179 140.479 147.368 140.116 147.746 139.868C148.126 139.618 148.629 139.492 149.254 139.492C149.586 139.492 149.899 139.526 150.192 139.595C150.488 139.66 150.778 139.756 151.061 139.883L150.7 140.747C150.455 140.64 150.21 140.552 149.962 140.483C149.718 140.412 149.469 140.376 149.215 140.376C148.919 140.376 148.693 140.422 148.537 140.513C148.384 140.604 148.307 140.734 148.307 140.903C148.307 141.03 148.344 141.138 148.419 141.226C148.494 141.313 148.623 141.401 148.805 141.489C148.991 141.577 149.248 141.686 149.577 141.816C149.899 141.94 150.177 142.07 150.412 142.207C150.649 142.34 150.831 142.505 150.958 142.7C151.085 142.896 151.149 143.148 151.149 143.457ZM154.617 145.098C154.106 145.098 153.663 144.998 153.289 144.8C152.914 144.601 152.626 144.297 152.424 143.887C152.223 143.477 152.122 142.956 152.122 142.324C152.122 141.667 152.232 141.13 152.454 140.713C152.675 140.296 152.981 139.989 153.372 139.79C153.766 139.591 154.216 139.492 154.724 139.492C155.046 139.492 155.338 139.525 155.598 139.59C155.862 139.652 156.085 139.728 156.267 139.819L155.925 140.737C155.727 140.656 155.523 140.588 155.315 140.532C155.107 140.477 154.907 140.449 154.714 140.449C154.399 140.449 154.135 140.519 153.923 140.659C153.715 140.799 153.559 141.007 153.455 141.284C153.354 141.561 153.303 141.904 153.303 142.314C153.303 142.712 153.355 143.047 153.46 143.32C153.564 143.59 153.718 143.796 153.923 143.936C154.129 144.072 154.381 144.141 154.68 144.141C154.976 144.141 155.242 144.105 155.476 144.033C155.711 143.962 155.932 143.869 156.14 143.755V144.751C155.935 144.868 155.715 144.954 155.481 145.01C155.247 145.068 154.959 145.098 154.617 145.098ZM160.199 139.492C160.29 139.492 160.389 139.497 160.497 139.507C160.604 139.517 160.697 139.53 160.775 139.546L160.668 140.62C160.599 140.601 160.515 140.586 160.414 140.576C160.316 140.566 160.228 140.562 160.15 140.562C159.945 140.562 159.75 140.596 159.564 140.664C159.379 140.729 159.214 140.83 159.071 140.967C158.928 141.1 158.816 141.268 158.734 141.47C158.653 141.672 158.612 141.906 158.612 142.173V145H157.46V139.595H158.358L158.514 140.547H158.568C158.676 140.355 158.809 140.179 158.969 140.02C159.128 139.86 159.31 139.733 159.515 139.639C159.724 139.541 159.952 139.492 160.199 139.492ZM162.974 139.595V145H161.826V139.595H162.974ZM162.407 137.524C162.583 137.524 162.734 137.572 162.861 137.666C162.992 137.76 163.057 137.923 163.057 138.154C163.057 138.382 162.992 138.545 162.861 138.643C162.734 138.737 162.583 138.784 162.407 138.784C162.225 138.784 162.07 138.737 161.943 138.643C161.82 138.545 161.758 138.382 161.758 138.154C161.758 137.923 161.82 137.76 161.943 137.666C162.07 137.572 162.225 137.524 162.407 137.524ZM167.443 139.492C168.084 139.492 168.598 139.727 168.986 140.195C169.376 140.664 169.571 141.361 169.571 142.285C169.571 142.897 169.48 143.413 169.298 143.833C169.119 144.25 168.867 144.565 168.541 144.78C168.219 144.992 167.843 145.098 167.413 145.098C167.14 145.098 166.902 145.062 166.7 144.99C166.499 144.919 166.326 144.826 166.183 144.712C166.04 144.595 165.919 144.468 165.821 144.331H165.753C165.769 144.461 165.784 144.606 165.797 144.766C165.813 144.922 165.821 145.065 165.821 145.195V147.397H164.669V139.595H165.607L165.768 140.342H165.821C165.922 140.189 166.044 140.047 166.188 139.917C166.334 139.787 166.51 139.684 166.715 139.609C166.923 139.531 167.166 139.492 167.443 139.492ZM167.135 140.43C166.819 140.43 166.565 140.493 166.373 140.62C166.184 140.744 166.046 140.931 165.958 141.182C165.874 141.432 165.828 141.746 165.821 142.124V142.285C165.821 142.686 165.862 143.026 165.944 143.306C166.028 143.582 166.167 143.794 166.359 143.94C166.554 144.084 166.818 144.155 167.15 144.155C167.43 144.155 167.661 144.079 167.843 143.926C168.029 143.773 168.167 143.555 168.258 143.271C168.349 142.988 168.395 142.655 168.395 142.271C168.395 141.688 168.291 141.235 168.082 140.913C167.877 140.591 167.561 140.43 167.135 140.43ZM172.961 144.17C173.111 144.17 173.259 144.157 173.406 144.131C173.552 144.102 173.686 144.067 173.806 144.028V144.897C173.679 144.953 173.515 145 173.313 145.039C173.111 145.078 172.901 145.098 172.683 145.098C172.377 145.098 172.102 145.047 171.858 144.946C171.614 144.842 171.42 144.665 171.277 144.414C171.134 144.163 171.062 143.817 171.062 143.374V140.469H170.325V139.956L171.116 139.551L171.492 138.394H172.214V139.595H173.762V140.469H172.214V143.359C172.214 143.633 172.283 143.836 172.419 143.97C172.556 144.103 172.737 144.17 172.961 144.17ZM176.102 139.595V145H174.955V139.595H176.102ZM175.536 137.524C175.712 137.524 175.863 137.572 175.99 137.666C176.12 137.76 176.185 137.923 176.185 138.154C176.185 138.382 176.12 138.545 175.99 138.643C175.863 138.737 175.712 138.784 175.536 138.784C175.353 138.784 175.199 138.737 175.072 138.643C174.948 138.545 174.886 138.382 174.886 138.154C174.886 137.923 174.948 137.76 175.072 137.666C175.199 137.572 175.353 137.524 175.536 137.524ZM182.583 142.285C182.583 142.734 182.524 143.133 182.407 143.481C182.29 143.83 182.119 144.124 181.894 144.365C181.67 144.603 181.4 144.785 181.084 144.912C180.768 145.036 180.412 145.098 180.014 145.098C179.643 145.098 179.303 145.036 178.994 144.912C178.685 144.785 178.416 144.603 178.188 144.365C177.964 144.124 177.79 143.83 177.666 143.481C177.542 143.133 177.48 142.734 177.48 142.285C177.48 141.689 177.583 141.185 177.788 140.771C177.996 140.355 178.292 140.037 178.677 139.819C179.061 139.601 179.518 139.492 180.049 139.492C180.547 139.492 180.986 139.601 181.367 139.819C181.748 140.037 182.046 140.355 182.261 140.771C182.475 141.188 182.583 141.693 182.583 142.285ZM178.662 142.285C178.662 142.679 178.709 143.016 178.804 143.296C178.901 143.576 179.051 143.791 179.253 143.94C179.455 144.087 179.715 144.16 180.034 144.16C180.353 144.16 180.613 144.087 180.815 143.94C181.017 143.791 181.165 143.576 181.26 143.296C181.354 143.016 181.401 142.679 181.401 142.285C181.401 141.891 181.354 141.558 181.26 141.284C181.165 141.007 181.017 140.798 180.815 140.654C180.613 140.508 180.351 140.435 180.029 140.435C179.554 140.435 179.207 140.594 178.989 140.913C178.771 141.232 178.662 141.689 178.662 142.285ZM186.769 139.492C187.377 139.492 187.851 139.65 188.189 139.966C188.531 140.278 188.702 140.781 188.702 141.475V145H187.555V141.689C187.555 141.27 187.468 140.955 187.296 140.747C187.123 140.535 186.856 140.43 186.495 140.43C185.971 140.43 185.606 140.591 185.401 140.913C185.2 141.235 185.099 141.702 185.099 142.314V145H183.951V139.595H184.845L185.006 140.327H185.069C185.187 140.138 185.331 139.984 185.504 139.863C185.68 139.74 185.875 139.647 186.09 139.585C186.308 139.523 186.534 139.492 186.769 139.492Z" fill="#B7B9C3"/>
<rect x="362.5" y="114" width="52" height="32" rx="4" fill="#019AEB"/>
<path d="M381.441 129.039L381.059 130.994H382.904V132.136H380.84L380.286 135H379.069L379.63 132.136H377.921L377.381 135H376.191L376.718 132.136H375.009V130.994H376.937L377.326 129.039H375.515V127.897H377.531L378.078 125.013H379.295L378.748 127.897H380.471L381.024 125.013H382.207L381.66 127.897H383.383V129.039H381.441ZM378.14 130.994H379.849L380.238 129.039H378.522L378.14 130.994ZM390.742 129.039L390.359 130.994H392.205V132.136H390.141L389.587 135H388.37L388.931 132.136H387.222L386.682 135H385.492L386.019 132.136H384.31V130.994H386.237L386.627 129.039H384.815V127.897H386.832L387.379 125.013H388.596L388.049 127.897H389.771L390.325 125.013H391.508L390.961 127.897H392.684V129.039H390.742ZM387.44 130.994H389.149L389.539 129.039H387.823L387.44 130.994ZM400.043 129.039L399.66 130.994H401.506V132.136H399.441L398.888 135H397.671L398.231 132.136H396.522L395.982 135H394.793L395.319 132.136H393.61V130.994H395.538L395.928 129.039H394.116V127.897H396.133L396.68 125.013H397.896L397.35 127.897H399.072L399.626 125.013H400.809L400.262 127.897H401.984V129.039H400.043ZM396.741 130.994H398.45L398.84 129.039H397.124L396.741 130.994Z" fill="#464B52"/>
<path d="M443.09 126.295L438.5 130.875L433.91 126.295L432.5 127.705L438.5 133.705L444.5 127.705L443.09 126.295Z" fill="#B7B9C3"/>
<rect x="491.5" y="103" width="359" height="54" rx="3" fill="#464B52"/>
<path d="M519.586 128H518.258V117.758H514.641V116.578H523.203V117.758H519.586V128ZM526.181 128H524.884V119.438H526.181V128ZM524.775 117.117C524.775 116.82 524.848 116.604 524.994 116.469C525.14 116.328 525.322 116.258 525.541 116.258C525.749 116.258 525.929 116.328 526.08 116.469C526.231 116.609 526.306 116.826 526.306 117.117C526.306 117.409 526.231 117.628 526.08 117.773C525.929 117.914 525.749 117.984 525.541 117.984C525.322 117.984 525.14 117.914 524.994 117.773C524.848 117.628 524.775 117.409 524.775 117.117ZM531.847 127.086C532.076 127.086 532.297 127.07 532.511 127.039C532.724 127.003 532.894 126.966 533.019 126.93V127.922C532.878 127.99 532.67 128.044 532.394 128.086C532.123 128.133 531.878 128.156 531.659 128.156C530.003 128.156 529.175 127.284 529.175 125.539V120.445H527.948V119.82L529.175 119.281L529.722 117.453H530.472V119.438H532.956V120.445H530.472V125.484C530.472 126 530.594 126.396 530.839 126.672C531.084 126.948 531.42 127.086 531.847 127.086ZM536.184 128H534.888V115.844H536.184V128ZM542.702 128.156C541.436 128.156 540.436 127.771 539.702 127C538.972 126.229 538.608 125.159 538.608 123.789C538.608 122.409 538.946 121.312 539.623 120.5C540.306 119.688 541.22 119.281 542.366 119.281C543.439 119.281 544.288 119.635 544.913 120.344C545.538 121.047 545.85 121.977 545.85 123.133V123.953H539.952C539.978 124.958 540.23 125.721 540.709 126.242C541.194 126.763 541.873 127.023 542.748 127.023C543.67 127.023 544.582 126.831 545.483 126.445V127.602C545.024 127.799 544.59 127.94 544.178 128.023C543.772 128.112 543.28 128.156 542.702 128.156ZM542.35 120.367C541.663 120.367 541.113 120.591 540.702 121.039C540.295 121.487 540.056 122.107 539.983 122.898H544.459C544.459 122.081 544.277 121.456 543.913 121.023C543.548 120.586 543.027 120.367 542.35 120.367Z" fill="white"/>
<path d="M521.233 141.362C521.233 142.166 521.084 142.839 520.784 143.379C520.485 143.916 520.05 144.321 519.48 144.595C518.911 144.865 518.224 145 517.42 145H515.438V137.861H517.635C518.374 137.861 519.012 137.995 519.549 138.262C520.086 138.525 520.501 138.918 520.794 139.438C521.087 139.956 521.233 140.597 521.233 141.362ZM520.013 141.396C520.013 140.811 519.92 140.329 519.734 139.951C519.552 139.574 519.282 139.294 518.924 139.111C518.569 138.926 518.131 138.833 517.61 138.833H516.609V144.019H517.439C518.302 144.019 518.947 143.799 519.373 143.359C519.799 142.92 520.013 142.266 520.013 141.396ZM524.858 139.492C525.339 139.492 525.753 139.591 526.098 139.79C526.443 139.989 526.708 140.27 526.894 140.635C527.079 140.999 527.172 141.436 527.172 141.943V142.559H523.564C523.577 143.083 523.717 143.486 523.984 143.77C524.254 144.053 524.631 144.194 525.116 144.194C525.461 144.194 525.771 144.162 526.044 144.097C526.321 144.028 526.606 143.929 526.899 143.799V144.731C526.628 144.858 526.353 144.951 526.073 145.01C525.793 145.068 525.458 145.098 525.068 145.098C524.537 145.098 524.07 144.995 523.666 144.79C523.266 144.582 522.952 144.272 522.724 143.862C522.499 143.452 522.387 142.943 522.387 142.334C522.387 141.729 522.489 141.214 522.695 140.791C522.9 140.368 523.188 140.046 523.559 139.824C523.93 139.603 524.363 139.492 524.858 139.492ZM524.858 140.356C524.496 140.356 524.203 140.474 523.979 140.708C523.757 140.942 523.627 141.286 523.588 141.738H526.049C526.046 141.468 526 141.229 525.912 141.021C525.828 140.812 525.697 140.649 525.522 140.532C525.349 140.415 525.128 140.356 524.858 140.356ZM532.149 143.457C532.149 143.812 532.063 144.111 531.89 144.355C531.718 144.6 531.465 144.785 531.133 144.912C530.804 145.036 530.401 145.098 529.922 145.098C529.545 145.098 529.219 145.07 528.946 145.015C528.676 144.963 528.42 144.881 528.179 144.771V143.779C528.436 143.9 528.724 144.004 529.043 144.092C529.366 144.18 529.67 144.224 529.956 144.224C530.334 144.224 530.606 144.165 530.772 144.048C530.938 143.927 531.021 143.768 531.021 143.569C531.021 143.452 530.987 143.348 530.918 143.257C530.853 143.162 530.73 143.066 530.547 142.969C530.368 142.868 530.105 142.747 529.756 142.607C529.414 142.471 529.126 142.334 528.892 142.197C528.658 142.061 528.48 141.896 528.36 141.704C528.239 141.509 528.179 141.26 528.179 140.957C528.179 140.479 528.368 140.116 528.746 139.868C529.126 139.618 529.629 139.492 530.254 139.492C530.586 139.492 530.899 139.526 531.192 139.595C531.488 139.66 531.778 139.756 532.061 139.883L531.7 140.747C531.455 140.64 531.21 140.552 530.962 140.483C530.718 140.412 530.469 140.376 530.215 140.376C529.919 140.376 529.693 140.422 529.537 140.513C529.384 140.604 529.307 140.734 529.307 140.903C529.307 141.03 529.344 141.138 529.419 141.226C529.494 141.313 529.623 141.401 529.805 141.489C529.991 141.577 530.248 141.686 530.577 141.816C530.899 141.94 531.177 142.07 531.412 142.207C531.649 142.34 531.831 142.505 531.958 142.7C532.085 142.896 532.149 143.148 532.149 143.457ZM535.617 145.098C535.106 145.098 534.663 144.998 534.289 144.8C533.914 144.601 533.626 144.297 533.424 143.887C533.223 143.477 533.122 142.956 533.122 142.324C533.122 141.667 533.232 141.13 533.454 140.713C533.675 140.296 533.981 139.989 534.372 139.79C534.766 139.591 535.216 139.492 535.724 139.492C536.046 139.492 536.338 139.525 536.598 139.59C536.862 139.652 537.085 139.728 537.267 139.819L536.925 140.737C536.727 140.656 536.523 140.588 536.315 140.532C536.107 140.477 535.907 140.449 535.714 140.449C535.399 140.449 535.135 140.519 534.923 140.659C534.715 140.799 534.559 141.007 534.455 141.284C534.354 141.561 534.303 141.904 534.303 142.314C534.303 142.712 534.355 143.047 534.46 143.32C534.564 143.59 534.718 143.796 534.923 143.936C535.129 144.072 535.381 144.141 535.68 144.141C535.976 144.141 536.242 144.105 536.476 144.033C536.711 143.962 536.932 143.869 537.14 143.755V144.751C536.935 144.868 536.715 144.954 536.481 145.01C536.247 145.068 535.959 145.098 535.617 145.098ZM541.199 139.492C541.29 139.492 541.389 139.497 541.497 139.507C541.604 139.517 541.697 139.53 541.775 139.546L541.668 140.62C541.599 140.601 541.515 140.586 541.414 140.576C541.316 140.566 541.228 140.562 541.15 140.562C540.945 140.562 540.75 140.596 540.564 140.664C540.379 140.729 540.214 140.83 540.071 140.967C539.928 141.1 539.816 141.268 539.734 141.47C539.653 141.672 539.612 141.906 539.612 142.173V145H538.46V139.595H539.358L539.514 140.547H539.568C539.676 140.355 539.809 140.179 539.969 140.02C540.128 139.86 540.31 139.733 540.515 139.639C540.724 139.541 540.952 139.492 541.199 139.492ZM543.974 139.595V145H542.826V139.595H543.974ZM543.407 137.524C543.583 137.524 543.734 137.572 543.861 137.666C543.992 137.76 544.057 137.923 544.057 138.154C544.057 138.382 543.992 138.545 543.861 138.643C543.734 138.737 543.583 138.784 543.407 138.784C543.225 138.784 543.07 138.737 542.943 138.643C542.82 138.545 542.758 138.382 542.758 138.154C542.758 137.923 542.82 137.76 542.943 137.666C543.07 137.572 543.225 137.524 543.407 137.524ZM548.443 139.492C549.084 139.492 549.598 139.727 549.986 140.195C550.376 140.664 550.571 141.361 550.571 142.285C550.571 142.897 550.48 143.413 550.298 143.833C550.119 144.25 549.867 144.565 549.541 144.78C549.219 144.992 548.843 145.098 548.413 145.098C548.14 145.098 547.902 145.062 547.7 144.99C547.499 144.919 547.326 144.826 547.183 144.712C547.04 144.595 546.919 144.468 546.821 144.331H546.753C546.769 144.461 546.784 144.606 546.797 144.766C546.813 144.922 546.821 145.065 546.821 145.195V147.397H545.669V139.595H546.607L546.768 140.342H546.821C546.922 140.189 547.044 140.047 547.188 139.917C547.334 139.787 547.51 139.684 547.715 139.609C547.923 139.531 548.166 139.492 548.443 139.492ZM548.135 140.43C547.819 140.43 547.565 140.493 547.373 140.62C547.184 140.744 547.046 140.931 546.958 141.182C546.874 141.432 546.828 141.746 546.821 142.124V142.285C546.821 142.686 546.862 143.026 546.944 143.306C547.028 143.582 547.167 143.794 547.359 143.94C547.554 144.084 547.818 144.155 548.15 144.155C548.43 144.155 548.661 144.079 548.843 143.926C549.029 143.773 549.167 143.555 549.258 143.271C549.349 142.988 549.395 142.655 549.395 142.271C549.395 141.688 549.291 141.235 549.082 140.913C548.877 140.591 548.561 140.43 548.135 140.43ZM553.961 144.17C554.111 144.17 554.259 144.157 554.406 144.131C554.552 144.102 554.686 144.067 554.806 144.028V144.897C554.679 144.953 554.515 145 554.313 145.039C554.111 145.078 553.901 145.098 553.683 145.098C553.377 145.098 553.102 145.047 552.858 144.946C552.614 144.842 552.42 144.665 552.277 144.414C552.134 144.163 552.062 143.817 552.062 143.374V140.469H551.325V139.956L552.116 139.551L552.492 138.394H553.214V139.595H554.762V140.469H553.214V143.359C553.214 143.633 553.283 143.836 553.419 143.97C553.556 144.103 553.737 144.17 553.961 144.17ZM557.102 139.595V145H555.955V139.595H557.102ZM556.536 137.524C556.712 137.524 556.863 137.572 556.99 137.666C557.12 137.76 557.185 137.923 557.185 138.154C557.185 138.382 557.12 138.545 556.99 138.643C556.863 138.737 556.712 138.784 556.536 138.784C556.353 138.784 556.199 138.737 556.072 138.643C555.948 138.545 555.886 138.382 555.886 138.154C555.886 137.923 555.948 137.76 556.072 137.666C556.199 137.572 556.353 137.524 556.536 137.524ZM563.583 142.285C563.583 142.734 563.524 143.133 563.407 143.481C563.29 143.83 563.119 144.124 562.894 144.365C562.67 144.603 562.4 144.785 562.084 144.912C561.768 145.036 561.412 145.098 561.014 145.098C560.643 145.098 560.303 145.036 559.994 144.912C559.685 144.785 559.416 144.603 559.188 144.365C558.964 144.124 558.79 143.83 558.666 143.481C558.542 143.133 558.48 142.734 558.48 142.285C558.48 141.689 558.583 141.185 558.788 140.771C558.996 140.355 559.292 140.037 559.677 139.819C560.061 139.601 560.518 139.492 561.049 139.492C561.547 139.492 561.986 139.601 562.367 139.819C562.748 140.037 563.046 140.355 563.261 140.771C563.475 141.188 563.583 141.693 563.583 142.285ZM559.662 142.285C559.662 142.679 559.709 143.016 559.804 143.296C559.901 143.576 560.051 143.791 560.253 143.94C560.455 144.087 560.715 144.16 561.034 144.16C561.353 144.16 561.613 144.087 561.815 143.94C562.017 143.791 562.165 143.576 562.26 143.296C562.354 143.016 562.401 142.679 562.401 142.285C562.401 141.891 562.354 141.558 562.26 141.284C562.165 141.007 562.017 140.798 561.815 140.654C561.613 140.508 561.351 140.435 561.029 140.435C560.554 140.435 560.207 140.594 559.989 140.913C559.771 141.232 559.662 141.689 559.662 142.285ZM567.769 139.492C568.377 139.492 568.851 139.65 569.189 139.966C569.531 140.278 569.702 140.781 569.702 141.475V145H568.555V141.689C568.555 141.27 568.468 140.955 568.296 140.747C568.123 140.535 567.856 140.43 567.495 140.43C566.971 140.43 566.606 140.591 566.401 140.913C566.2 141.235 566.099 141.702 566.099 142.314V145H564.951V139.595H565.845L566.006 140.327H566.069C566.187 140.138 566.331 139.984 566.504 139.863C566.68 139.74 566.875 139.647 567.09 139.585C567.308 139.523 567.534 139.492 567.769 139.492Z" fill="#B7B9C3"/>
<rect x="743.5" y="114" width="52" height="32" rx="4" fill="#019AEB"/>
<path d="M762.441 129.039L762.059 130.994H763.904V132.136H761.84L761.286 135H760.069L760.63 132.136H758.921L758.381 135H757.191L757.718 132.136H756.009V130.994H757.937L758.326 129.039H756.515V127.897H758.531L759.078 125.013H760.295L759.748 127.897H761.471L762.024 125.013H763.207L762.66 127.897H764.383V129.039H762.441ZM759.14 130.994H760.849L761.238 129.039H759.522L759.14 130.994ZM771.742 129.039L771.359 130.994H773.205V132.136H771.141L770.587 135H769.37L769.931 132.136H768.222L767.682 135H766.492L767.019 132.136H765.31V130.994H767.237L767.627 129.039H765.815V127.897H767.832L768.379 125.013H769.596L769.049 127.897H770.771L771.325 125.013H772.508L771.961 127.897H773.684V129.039H771.742ZM768.44 130.994H770.149L770.539 129.039H768.823L768.44 130.994ZM781.043 129.039L780.66 130.994H782.506V132.136H780.441L779.888 135H778.671L779.231 132.136H777.522L776.982 135H775.793L776.319 132.136H774.61V130.994H776.538L776.928 129.039H775.116V127.897H777.133L777.68 125.013H778.896L778.35 127.897H780.072L780.626 125.013H781.809L781.262 127.897H782.984V129.039H781.043ZM777.741 130.994H779.45L779.84 129.039H778.124L777.741 130.994Z" fill="#464B52"/>
<path d="M824.09 126.295L819.5 130.875L814.91 126.295L813.5 127.705L819.5 133.705L825.5 127.705L824.09 126.295Z" fill="#B7B9C3"/>
<rect x="491.5" y="103" width="359" height="54" rx="3" stroke="#019AEB" stroke-width="2"/>
</svg>
