<svg fill="none" height="260" viewBox="0 0 961 260" width="961" xmlns="http://www.w3.org/2000/svg" xmlns:xlink="http://www.w3.org/1999/xlink"><clipPath id="a"><path d="m414.5 106h48v48h-48z"/></clipPath><clipPath id="b"><path d="m850.5 106h48v48h-48z"/></clipPath><path d="m0 0h961v260h-961z" fill="#252a2e"/><rect fill="#464b52" height="56" rx="4" width="416" x="54.5" y="102"/><path d="m83.5859 128h-1.3281v-10.242h-3.6172v-1.18h8.5625v1.18h-3.6172zm6.5953 0h-1.2968v-8.562h1.2968zm-1.4062-10.883c0-.297.0729-.513.2187-.648.1459-.141.3282-.211.5469-.211.2084 0 .388.07.5391.211.151.14.2265.357.2265.648 0 .292-.0755.511-.2265.656-.1511.141-.3307.211-.5391.211-.2187 0-.401-.07-.5469-.211-.1458-.145-.2187-.364-.2187-.656zm7.0719 9.969c.2291 0 .4505-.016.664-.047.2136-.036.3829-.073.5079-.109v.992c-.1407.068-.349.122-.625.164-.2709.047-.5157.07-.7344.07-1.6563 0-2.4844-.872-2.4844-2.617v-5.094h-1.2266v-.625l1.2266-.539.5469-1.828h.75v1.985h2.4844v1.007h-2.4844v5.039c0 .516.1224.912.3672 1.188s.5807.414 1.0078.414zm4.3371.914h-1.2965v-12.156h1.2965zm6.518.156c-1.266 0-2.266-.385-3-1.156-.73-.771-1.094-1.841-1.094-3.211 0-1.38.338-2.477 1.015-3.289.683-.812 1.597-1.219 2.743-1.219 1.073 0 1.922.354 2.547 1.063.625.703.937 1.633.937 2.789v.82h-5.898c.026 1.005.278 1.768.757 2.289.485.521 1.164.781 2.039.781.922 0 1.834-.192 2.735-.578v1.157c-.459.197-.893.338-1.305.421-.406.089-.898.133-1.476.133zm-.352-7.789c-.687 0-1.237.224-1.648.672-.407.448-.646 1.068-.719 1.859h4.476c0-.817-.182-1.442-.546-1.875-.365-.437-.886-.656-1.563-.656z" fill="#fff"/><path d="m85.2334 141.362c0 .804-.1497 1.477-.4492 2.017-.2995.537-.7341.942-1.3037 1.216-.5697.27-1.2565.405-2.0606.405h-1.9824v-7.139h2.1973c.7389 0 1.3769.134 1.914.401.5371.263.9522.656 1.2451 1.176.293.518.4395 1.159.4395 1.924zm-1.2207.034c0-.585-.0928-1.067-.2783-1.445-.1823-.377-.4525-.657-.8106-.84-.3548-.185-.7926-.278-1.3134-.278h-1.001v5.186h.8301c.8626 0 1.5071-.22 1.9335-.66.4265-.439.6397-1.093.6397-1.963zm4.8449-1.904c.4818 0 .8952.099 1.2403.298.345.199.6103.48.7959.845.1855.364.2783.801.2783 1.308v.616h-3.6084c.013.524.153.927.4199 1.211.2702.283.6478.424 1.1328.424.3451 0 .6543-.032.9277-.097.2767-.069.5616-.168.8545-.298v.932c-.2701.127-.5452.22-.8252.279-.2799.058-.6152.088-1.0058.088-.5306 0-.9977-.103-1.4014-.308-.4004-.208-.7145-.518-.9424-.928-.2246-.41-.3369-.919-.3369-1.528 0-.605.1026-1.12.3076-1.543.2051-.423.4932-.745.8643-.967.3711-.221.804-.332 1.2988-.332zm0 .864c-.3613 0-.6543.118-.8789.352-.2213.234-.3516.578-.3906 1.03h2.4609c-.0032-.27-.0488-.509-.1367-.717-.0846-.209-.2148-.372-.3906-.489-.1725-.117-.3939-.176-.6641-.176zm7.2912 3.101c0 .355-.0862.654-.2588.898-.1725.245-.4248.43-.7568.557-.3288.124-.7324.186-1.2109.186-.3776 0-.7032-.028-.9766-.083-.2702-.052-.5257-.134-.7666-.244v-.992c.2572.121.5452.225.8643.313.3222.088.6266.132.913.132.3776 0 .6495-.059.8155-.176.166-.121.249-.28.249-.479 0-.117-.0342-.221-.1025-.312-.0651-.095-.1888-.191-.3711-.288-.1791-.101-.4427-.222-.791-.362-.3418-.136-.6299-.273-.8643-.41-.2344-.136-.4118-.301-.5322-.493-.1205-.195-.1807-.444-.1807-.747 0-.478.1888-.841.5664-1.089.3809-.25.8838-.376 1.5088-.376.332 0 .6445.034.9375.103.2962.065.5859.161.8691.288l-.3613.864c-.2441-.107-.4899-.195-.7373-.264-.2441-.071-.4932-.107-.7471-.107-.2962 0-.5224.046-.6787.137-.153.091-.2295.221-.2295.39 0 .127.0375.235.1123.323.0749.087.2035.175.3858.263.1855.088.4427.197.7715.327.3222.124.6005.254.8349.391.2377.133.4199.298.5469.493.127.196.1904.448.1904.757zm3.468 1.641c-.5111 0-.9538-.1-1.3281-.298-.3744-.199-.6625-.503-.8643-.913s-.3027-.931-.3027-1.563c0-.657.1107-1.194.332-1.611.2214-.417.5274-.724.918-.923.3939-.199.8447-.298 1.3525-.298.3218 0 .6138.033.8738.098.264.062.487.138.669.229l-.342.918c-.198-.081-.402-.149-.61-.205-.208-.055-.4085-.083-.6005-.083-.3158 0-.5795.07-.7911.21-.2083.14-.3645.348-.4687.625-.1009.277-.1514.62-.1514 1.03 0 .398.0521.733.1563 1.006.1041.27.2588.476.4638.616.2051.136.4574.205.7569.205.2962 0 .5617-.036.7957-.108.235-.071.456-.164.664-.278v.996c-.205.117-.425.203-.659.259-.234.058-.5224.088-.8642.088zm5.5822-5.606c.091 0 .19.005.298.015.107.01.2.023.278.039l-.107 1.074c-.069-.019-.153-.034-.254-.044-.098-.01-.186-.014-.264-.014-.205 0-.4.034-.586.102-.185.065-.35.166-.493.303-.143.133-.255.301-.337.503-.081.202-.122.436-.122.703v2.827h-1.152v-5.405h.898l.156.952h.054c.108-.192.241-.368.401-.527.159-.16.341-.287.546-.381.209-.098.437-.147.684-.147zm2.775.103v5.405h-1.148v-5.405zm-.567-2.071c.176 0 .327.048.454.142.131.094.196.257.196.488 0 .228-.065.391-.196.489-.127.094-.278.141-.454.141-.182 0-.337-.047-.464-.141-.123-.098-.185-.261-.185-.489 0-.231.062-.394.185-.488.127-.094.282-.142.464-.142zm5.036 1.968c.641 0 1.155.235 1.543.703.39.469.585 1.166.585 2.09 0 .612-.091 1.128-.273 1.548-.179.417-.431.732-.757.947-.322.212-.698.318-1.128.318-.273 0-.511-.036-.713-.108-.201-.071-.374-.164-.517-.278-.143-.117-.264-.244-.362-.381h-.068c.016.13.031.275.044.435.016.156.024.299.024.429v2.202h-1.152v-7.802h.938l.161.747h.053c.101-.153.223-.295.367-.425.146-.13.322-.233.527-.308.208-.078.451-.117.728-.117zm-.308.938c-.316 0-.57.063-.762.19-.189.124-.327.311-.415.562-.084.25-.13.564-.137.942v.161c0 .401.041.741.123 1.021.084.276.223.488.415.634.195.144.459.215.791.215.28 0 .511-.076.693-.229.186-.153.324-.371.415-.655.091-.283.137-.616.137-1 0-.583-.104-1.036-.313-1.358-.205-.322-.521-.483-.947-.483zm5.826 3.74c.15 0 .298-.013.445-.039.146-.029.28-.064.4-.103v.869c-.127.056-.291.103-.493.142s-.412.059-.63.059c-.306 0-.581-.051-.825-.152-.244-.104-.438-.281-.581-.532s-.215-.597-.215-1.04v-2.905h-.737v-.513l.791-.405.376-1.157h.722v1.201h1.548v.874h-1.548v2.89c0 .274.069.477.205.611.137.133.318.2.542.2zm3.141-4.575v5.405h-1.147v-5.405zm-.566-2.071c.176 0 .327.048.454.142.13.094.195.257.195.488 0 .228-.065.391-.195.489-.127.094-.278.141-.454.141-.183 0-.337-.047-.464-.141-.124-.098-.186-.261-.186-.489 0-.231.062-.394.186-.488.127-.094.281-.142.464-.142zm7.047 4.761c0 .449-.059.848-.176 1.196-.117.349-.288.643-.513.884-.224.238-.494.42-.81.547-.316.124-.672.186-1.07.186-.371 0-.711-.062-1.02-.186-.309-.127-.578-.309-.806-.547-.224-.241-.398-.535-.522-.884-.124-.348-.186-.747-.186-1.196 0-.596.103-1.1.308-1.514.208-.416.504-.734.889-.952.384-.218.841-.327 1.372-.327.498 0 .937.109 1.318.327s.679.536.894.952c.214.417.322.922.322 1.514zm-3.921 0c0 .394.047.731.142 1.011.097.28.247.495.449.644.202.147.462.22.781.22s.579-.073.781-.22c.202-.149.35-.364.445-.644.094-.28.141-.617.141-1.011s-.047-.727-.141-1.001c-.095-.277-.243-.486-.445-.63-.202-.146-.464-.219-.786-.219-.475 0-.822.159-1.04.478s-.327.776-.327 1.372zm8.107-2.793c.608 0 1.082.158 1.42.474.342.312.513.815.513 1.509v3.525h-1.147v-3.311c0-.419-.087-.734-.259-.942-.173-.212-.44-.317-.801-.317-.524 0-.889.161-1.094.483-.201.322-.302.789-.302 1.401v2.686h-1.148v-5.405h.894l.161.732h.063c.118-.189.262-.343.435-.464.176-.123.371-.216.586-.278.218-.062.444-.093.679-.093z" fill="#b7b9c3"/><g clip-path="url(#a)"><path d="m446.26 124.58-7.76 7.76-7.76-7.76c-.78-.78-2.04-.78-2.82 0s-.78 2.04 0 2.82l9.18 9.18c.78.78 2.04.78 2.82 0l9.18-9.18c.78-.78.78-2.04 0-2.82-.78-.76-2.06-.78-2.84 0z" fill="#fff"/></g><rect fill="#464b52" height="54" rx="3" width="414" x="491.5" y="103"/><path d="m519.586 128h-1.328v-10.242h-3.617v-1.18h8.562v1.18h-3.617zm6.595 0h-1.297v-8.562h1.297zm-1.406-10.883c0-.297.073-.513.219-.648.146-.141.328-.211.547-.211.208 0 .388.07.539.211.151.14.226.357.226.648 0 .292-.075.511-.226.656-.151.141-.331.211-.539.211-.219 0-.401-.07-.547-.211-.146-.145-.219-.364-.219-.656zm7.072 9.969c.229 0 .45-.016.664-.047.213-.036.383-.073.508-.109v.992c-.141.068-.349.122-.625.164-.271.047-.516.07-.735.07-1.656 0-2.484-.872-2.484-2.617v-5.094h-1.227v-.625l1.227-.539.547-1.828h.75v1.985h2.484v1.007h-2.484v5.039c0 .516.122.912.367 1.188s.581.414 1.008.414zm4.337.914h-1.296v-12.156h1.296zm6.518.156c-1.266 0-2.266-.385-3-1.156-.73-.771-1.094-1.841-1.094-3.211 0-1.38.338-2.477 1.015-3.289.683-.812 1.597-1.219 2.743-1.219 1.073 0 1.922.354 2.547 1.063.625.703.937 1.633.937 2.789v.82h-5.898c.026 1.005.278 1.768.757 2.289.485.521 1.164.781 2.039.781.922 0 1.834-.192 2.735-.578v1.157c-.459.197-.893.338-1.305.421-.406.089-.898.133-1.476.133zm-.352-7.789c-.687 0-1.237.224-1.648.672-.407.448-.646 1.068-.719 1.859h4.476c0-.817-.182-1.442-.546-1.875-.365-.437-.886-.656-1.563-.656z" fill="#fff"/><path d="m521.233 141.362c0 .804-.149 1.477-.449 2.017-.299.537-.734.942-1.304 1.216-.569.27-1.256.405-2.06.405h-1.982v-7.139h2.197c.739 0 1.377.134 1.914.401.537.263.952.656 1.245 1.176.293.518.439 1.159.439 1.924zm-1.22.034c0-.585-.093-1.067-.279-1.445-.182-.377-.452-.657-.81-.84-.355-.185-.793-.278-1.314-.278h-1.001v5.186h.83c.863 0 1.508-.22 1.934-.66.426-.439.64-1.093.64-1.963zm4.845-1.904c.481 0 .895.099 1.24.298s.61.48.796.845c.185.364.278.801.278 1.308v.616h-3.608c.013.524.153.927.42 1.211.27.283.647.424 1.132.424.345 0 .655-.032.928-.097.277-.069.562-.168.855-.298v.932c-.271.127-.546.22-.826.279-.28.058-.615.088-1.005.088-.531 0-.998-.103-1.402-.308-.4-.208-.714-.518-.942-.928-.225-.41-.337-.919-.337-1.528 0-.605.102-1.12.308-1.543.205-.423.493-.745.864-.967.371-.221.804-.332 1.299-.332zm0 .864c-.362 0-.655.118-.879.352-.222.234-.352.578-.391 1.03h2.461c-.003-.27-.049-.509-.137-.717-.084-.209-.215-.372-.39-.489-.173-.117-.394-.176-.664-.176zm7.291 3.101c0 .355-.086.654-.259.898-.172.245-.425.43-.757.557-.329.124-.732.186-1.211.186-.377 0-.703-.028-.976-.083-.27-.052-.526-.134-.767-.244v-.992c.257.121.545.225.864.313.323.088.627.132.913.132.378 0 .65-.059.816-.176.166-.121.249-.28.249-.479 0-.117-.034-.221-.103-.312-.065-.095-.188-.191-.371-.288-.179-.101-.442-.222-.791-.362-.342-.136-.63-.273-.864-.41-.234-.136-.412-.301-.532-.493-.121-.195-.181-.444-.181-.747 0-.478.189-.841.567-1.089.38-.25.883-.376 1.508-.376.332 0 .645.034.938.103.296.065.586.161.869.288l-.361.864c-.245-.107-.49-.195-.738-.264-.244-.071-.493-.107-.747-.107-.296 0-.522.046-.678.137-.153.091-.23.221-.23.39 0 .127.037.235.112.323.075.087.204.175.386.263.186.088.443.197.772.327.322.124.6.254.835.391.237.133.419.298.546.493.127.196.191.448.191.757zm3.468 1.641c-.511 0-.954-.1-1.328-.298-.375-.199-.663-.503-.865-.913-.201-.41-.302-.931-.302-1.563 0-.657.11-1.194.332-1.611.221-.417.527-.724.918-.923.394-.199.844-.298 1.352-.298.322 0 .614.033.874.098.264.062.487.138.669.229l-.342.918c-.198-.081-.402-.149-.61-.205-.208-.055-.408-.083-.601-.083-.315 0-.579.07-.791.21-.208.14-.364.348-.468.625-.101.277-.152.62-.152 1.03 0 .398.052.733.157 1.006.104.27.258.476.463.616.206.136.458.205.757.205.296 0 .562-.036.796-.108.235-.071.456-.164.664-.278v.996c-.205.117-.425.203-.659.259-.234.058-.522.088-.864.088zm5.582-5.606c.091 0 .19.005.298.015.107.01.2.023.278.039l-.107 1.074c-.069-.019-.153-.034-.254-.044-.098-.01-.186-.014-.264-.014-.205 0-.4.034-.586.102-.185.065-.35.166-.493.303-.143.133-.255.301-.337.503-.081.202-.122.436-.122.703v2.827h-1.152v-5.405h.898l.156.952h.054c.108-.192.241-.368.401-.527.159-.16.341-.287.546-.381.209-.098.437-.147.684-.147zm2.775.103v5.405h-1.148v-5.405zm-.567-2.071c.176 0 .327.048.454.142.131.094.196.257.196.488 0 .228-.065.391-.196.489-.127.094-.278.141-.454.141-.182 0-.337-.047-.464-.141-.123-.098-.185-.261-.185-.489 0-.231.062-.394.185-.488.127-.094.282-.142.464-.142zm5.036 1.968c.641 0 1.155.235 1.543.703.39.469.585 1.166.585 2.09 0 .612-.091 1.128-.273 1.548-.179.417-.431.732-.757.947-.322.212-.698.318-1.128.318-.273 0-.511-.036-.713-.108-.201-.071-.374-.164-.517-.278-.143-.117-.264-.244-.362-.381h-.068c.016.13.031.275.044.435.016.156.024.299.024.429v2.202h-1.152v-7.802h.938l.161.747h.053c.101-.153.223-.295.367-.425.146-.13.322-.233.527-.308.208-.078.451-.117.728-.117zm-.308.938c-.316 0-.57.063-.762.19-.189.124-.327.311-.415.562-.084.25-.13.564-.137.942v.161c0 .401.041.741.123 1.021.084.276.223.488.415.634.195.144.459.215.791.215.28 0 .511-.076.693-.229.186-.153.324-.371.415-.655.091-.283.137-.616.137-1 0-.583-.104-1.036-.313-1.358-.205-.322-.521-.483-.947-.483zm5.826 3.74c.15 0 .298-.013.445-.039.146-.029.28-.064.4-.103v.869c-.127.056-.291.103-.493.142s-.412.059-.63.059c-.306 0-.581-.051-.825-.152-.244-.104-.438-.281-.581-.532s-.215-.597-.215-1.04v-2.905h-.737v-.513l.791-.405.376-1.157h.722v1.201h1.548v.874h-1.548v2.89c0 .274.069.477.205.611.137.133.318.2.542.2zm3.141-4.575v5.405h-1.147v-5.405zm-.566-2.071c.176 0 .327.048.454.142.13.094.195.257.195.488 0 .228-.065.391-.195.489-.127.094-.278.141-.454.141-.183 0-.337-.047-.464-.141-.124-.098-.186-.261-.186-.489 0-.231.062-.394.186-.488.127-.094.281-.142.464-.142zm7.047 4.761c0 .449-.059.848-.176 1.196-.117.349-.288.643-.513.884-.224.238-.494.42-.81.547-.316.124-.672.186-1.07.186-.371 0-.711-.062-1.02-.186-.309-.127-.578-.309-.806-.547-.224-.241-.398-.535-.522-.884-.124-.348-.186-.747-.186-1.196 0-.596.103-1.1.308-1.514.208-.416.504-.734.889-.952.384-.218.841-.327 1.372-.327.498 0 .937.109 1.318.327s.679.536.894.952c.214.417.322.922.322 1.514zm-3.921 0c0 .394.047.731.142 1.011.097.28.247.495.449.644.202.147.462.22.781.22s.579-.073.781-.22c.202-.149.35-.364.445-.644.094-.28.141-.617.141-1.011s-.047-.727-.141-1.001c-.095-.277-.243-.486-.445-.63-.202-.146-.464-.219-.786-.219-.475 0-.822.159-1.04.478s-.327.776-.327 1.372zm8.107-2.793c.608 0 1.082.158 1.42.474.342.312.513.815.513 1.509v3.525h-1.147v-3.311c0-.419-.087-.734-.259-.942-.173-.212-.44-.317-.801-.317-.524 0-.889.161-1.094.483-.201.322-.302.789-.302 1.401v2.686h-1.148v-5.405h.894l.161.732h.063c.118-.189.262-.343.435-.464.176-.123.371-.216.586-.278.218-.062.444-.093.679-.093z" fill="#b7b9c3"/><rect fill="#019aeb" height="32" rx="4" width="52" x="798.5" y="114"/><path d="m817.441 129.039-.382 1.955h1.845v1.142h-2.064l-.554 2.864h-1.217l.561-2.864h-1.709l-.54 2.864h-1.19l.527-2.864h-1.709v-1.142h1.928l.389-1.955h-1.811v-1.142h2.016l.547-2.884h1.217l-.547 2.884h1.723l.553-2.884h1.183l-.547 2.884h1.723v1.142zm-3.301 1.955h1.709l.389-1.955h-1.716zm12.602-1.955-.383 1.955h1.846v1.142h-2.064l-.554 2.864h-1.217l.561-2.864h-1.709l-.54 2.864h-1.19l.527-2.864h-1.709v-1.142h1.927l.39-1.955h-1.812v-1.142h2.017l.547-2.884h1.217l-.547 2.884h1.722l.554-2.884h1.183l-.547 2.884h1.723v1.142zm-3.302 1.955h1.709l.39-1.955h-1.716zm12.603-1.955-.383 1.955h1.846v1.142h-2.065l-.553 2.864h-1.217l.56-2.864h-1.709l-.54 2.864h-1.189l.526-2.864h-1.709v-1.142h1.928l.39-1.955h-1.812v-1.142h2.017l.547-2.884h1.216l-.546 2.884h1.722l.554-2.884h1.183l-.547 2.884h1.722v1.142zm-3.302 1.955h1.709l.39-1.955h-1.716z" fill="#464b52"/><g clip-path="url(#b)"><path d="m882.26 124.58-7.76 7.76-7.76-7.76c-.78-.78-2.04-.78-2.82 0s-.78 2.04 0 2.82l9.18 9.18c.78.78 2.04.78 2.82 0l9.18-9.18c.78-.78.78-2.04 0-2.82-.78-.76-2.06-.78-2.84 0z" fill="#fff"/></g><rect height="54" rx="3" stroke="#019aeb" stroke-width="2" width="414" x="491.5" y="103"/></svg>