<svg width="960" height="397" viewBox="0 0 960 397" fill="none" xmlns="http://www.w3.org/2000/svg"><g clip-path="url(#clip0_210_32882)"><rect width="318.667" height="205" fill="#F1F1F6"/><rect x="40" y="40" width="238.667" height="56" rx="4" fill="#fff"/><g filter="url(#filter0_d_210_32882)"><rect x="113.833" y="106" width="91" height="59" rx="7" fill="#fff"/><path fill-rule="evenodd" clip-rule="evenodd" d="M131.835 121.002C132.077 121.252 132.308 121.491 132.528 121.72C134.732 124.012 135.833 125.294 135.833 126.852C135.836 127.914 135.445 128.977 134.662 129.788C133.1 131.404 130.567 131.404 129.005 129.788C128.221 128.977 127.831 127.914 127.833 126.852C127.833 125.294 128.935 124.012 131.139 121.72C131.359 121.491 131.59 121.252 131.832 121.002L131.833 121L131.833 121L131.835 121.002ZM129.638 124.911C130.14 124.231 130.857 123.457 131.833 122.44C132.81 123.457 133.527 124.231 134.029 124.911C134.628 125.724 134.833 126.291 134.833 126.852V126.854C134.833 126.903 134.833 126.951 134.83 127H128.836C128.834 126.951 128.833 126.903 128.833 126.854V126.852C128.833 126.291 129.038 125.724 129.638 124.911Z" fill="#8C8C8C"/><path d="M167.661 130.5H168.443L168.806 128.281H169.99L170.115 127.5H168.935L169.263 125.5H170.458L170.583 124.719H169.392L169.755 122.5H168.974L168.611 124.719H166.579L166.943 122.5H166.161L165.798 124.719H164.615L164.49 125.5H165.669L165.341 127.5H164.146L164.021 128.281H165.212L164.849 130.5H165.63L165.993 128.281H168.025L167.661 130.5ZM166.122 127.5L166.451 125.5H168.482L168.154 127.5H166.122ZM174.288 124.5H172.945V123.891C172.945 123.297 173.195 122.984 173.804 122.984C174.07 122.984 174.226 123.047 174.32 123.078L174.585 122.281C174.445 122.219 174.163 122.125 173.71 122.125C172.851 122.125 172.023 122.641 172.023 123.672V124.5H171.054V125.281H172.023V130.5H172.945V125.281H174.288V124.5ZM178.252 124.5H176.909V123.891C176.909 123.297 177.159 122.984 177.768 122.984C178.034 122.984 178.19 123.047 178.284 123.078L178.549 122.281C178.409 122.219 178.127 122.125 177.674 122.125C176.815 122.125 175.987 122.641 175.987 123.672V124.5H175.018V125.281H175.987V130.5H176.909V125.281H178.252V124.5ZM182.216 124.5H180.872V123.891C180.872 123.297 181.122 122.984 181.732 122.984C181.997 122.984 182.154 123.047 182.247 123.078L182.513 122.281C182.372 122.219 182.091 122.125 181.638 122.125C180.779 122.125 179.951 122.641 179.951 123.672V124.5H178.982V125.281H179.951V130.5H180.872V125.281H182.216V124.5ZM186.18 124.5H184.836V123.891C184.836 123.297 185.086 122.984 185.696 122.984C185.961 122.984 186.117 123.047 186.211 123.078L186.477 122.281C186.336 122.219 186.055 122.125 185.602 122.125C184.742 122.125 183.914 122.641 183.914 123.672V124.5H182.946V125.281H183.914V130.5H184.836V125.281H186.18V124.5ZM190.144 124.5H188.8V123.891C188.8 123.297 189.05 122.984 189.659 122.984C189.925 122.984 190.081 123.047 190.175 123.078L190.441 122.281C190.3 122.219 190.019 122.125 189.566 122.125C188.706 122.125 187.878 122.641 187.878 123.672V124.5H186.909V125.281H187.878V130.5H188.8V125.281H190.144V124.5ZM194.108 124.5H192.764V123.891C192.764 123.297 193.014 122.984 193.623 122.984C193.889 122.984 194.045 123.047 194.139 123.078L194.405 122.281C194.264 122.219 193.983 122.125 193.53 122.125C192.67 122.125 191.842 122.641 191.842 123.672V124.5H190.873V125.281H191.842V130.5H192.764V125.281H194.108V124.5Z" fill="#000"/><path d="M143.833 121C143.833 119.343 145.176 118 146.833 118H151.833V134H146.833C145.176 134 143.833 132.657 143.833 131V121Z" fill="#fff"/><path d="M151.833 118H156.833C158.49 118 159.833 119.343 159.833 121V131C159.833 132.657 158.49 134 156.833 134H151.833V118Z" fill="#fff"/><path fill-rule="evenodd" clip-rule="evenodd" d="M128.833 147V148H129.833V147C129.833 144.791 131.624 143 133.833 143H134.5C134.612 143 134.723 143.005 134.833 143.014V142.011C134.723 142.004 134.612 142 134.5 142H133.833C131.072 142 128.833 144.239 128.833 147Z" fill="#000" fill-opacity=".8"/><path d="M144.474 147.859H148.24V149.5H149.161V147.859H150.255V147H149.161V141.5H147.99L144.474 147.062V147.859ZM148.24 147H145.521V146.937L148.177 142.734H148.24V147Z" fill="#000"/><g clip-path="url(#clip1_210_32882)"><rect x="159.333" y="100.5" width="11" height="11" transform="rotate(45 159.333 100.5)" fill="#fff"/></g></g><rect width="318.667" height="205" transform="translate(320.667)" fill="#F1F1F6"/><path d="M468.586 72.25H467.258V62.0078H463.641V60.8281H472.203V62.0078H468.586V72.25ZM475.181 72.25H473.884V63.6875H475.181V72.25ZM473.775 61.3672C473.775 61.0703 473.848 60.8542 473.994 60.7188C474.14 60.5781 474.322 60.5078 474.541 60.5078C474.749 60.5078 474.929 60.5781 475.08 60.7188C475.231 60.8594 475.306 61.0755 475.306 61.3672C475.306 61.6589 475.231 61.8776 475.08 62.0234C474.929 62.1641 474.749 62.2344 474.541 62.2344C474.322 62.2344 474.14 62.1641 473.994 62.0234C473.848 61.8776 473.775 61.6589 473.775 61.3672ZM480.847 71.3359C481.076 71.3359 481.297 71.3203 481.511 71.2891C481.724 71.2526 481.894 71.2161 482.019 71.1797V72.1719C481.878 72.2396 481.67 72.2943 481.394 72.3359C481.123 72.3828 480.878 72.4062 480.659 72.4062C479.003 72.4062 478.175 71.5339 478.175 69.7891V64.6953H476.948V64.0703L478.175 63.5312L478.722 61.7031H479.472V63.6875H481.956V64.6953H479.472V69.7344C479.472 70.25 479.594 70.6458 479.839 70.9219C480.084 71.1979 480.42 71.3359 480.847 71.3359ZM485.184 72.25H483.887V60.0938H485.184V72.25ZM491.702 72.4062C490.436 72.4062 489.436 72.0208 488.702 71.25C487.972 70.4792 487.608 69.4089 487.608 68.0391C487.608 66.6589 487.946 65.5625 488.623 64.75C489.306 63.9375 490.22 63.5312 491.366 63.5312C492.438 63.5312 493.287 63.8854 493.912 64.5938C494.537 65.2969 494.85 66.2266 494.85 67.3828V68.2031H488.952C488.978 69.2083 489.23 69.9714 489.709 70.4922C490.194 71.013 490.873 71.2734 491.748 71.2734C492.67 71.2734 493.582 71.0807 494.483 70.6953V71.8516C494.024 72.0495 493.59 72.1901 493.178 72.2734C492.772 72.362 492.28 72.4062 491.702 72.4062ZM491.35 64.6172C490.662 64.6172 490.113 64.8411 489.702 65.2891C489.295 65.737 489.056 66.3568 488.983 67.1484H493.459C493.459 66.3307 493.277 65.7057 492.912 65.2734C492.548 64.8359 492.027 64.6172 491.35 64.6172Z" fill="#252A2E"/><g filter="url(#filter1_d_210_32882)"><rect x="431.5" y="87.25" width="97" height="62.5" rx="7" fill="#fff"/><path d="M454.68 108.949H453.562V108.875C453.57 107.426 454 106.984 454.727 106.539C455.191 106.25 455.555 105.84 455.555 105.258C455.555 104.566 455.016 104.125 454.352 104.125C453.754 104.125 453.164 104.488 453.117 105.316H451.93C451.98 103.91 453.035 103.141 454.352 103.141C455.785 103.141 456.746 104 456.746 105.27C456.746 106.148 456.316 106.742 455.617 107.164C454.953 107.574 454.695 107.977 454.68 108.875V108.949Z" fill="#8C8C8C"/><path d="M454.934 110.543C454.934 110.977 454.578 111.324 454.152 111.324C453.723 111.324 453.371 110.977 453.371 110.543C453.371 110.117 453.723 109.766 454.152 109.766C454.578 109.766 454.934 110.117 454.934 110.543Z" fill="#8C8C8C"/><path fill-rule="evenodd" clip-rule="evenodd" d="M443.5 111.25L446.611 103.25H447.696L450.807 111.25H449.734L448.957 109.25H445.351L444.573 111.25H443.5ZM447.154 104.614L448.568 108.25H445.74L447.154 104.614Z" fill="#8C8C8C"/><path d="M469.219 107.75C469.219 105.219 467.734 103.641 465.687 103.641C463.641 103.641 462.156 105.219 462.156 107.75C462.156 110.281 463.641 111.859 465.687 111.859C467.734 111.859 469.219 110.281 469.219 107.75ZM468.281 107.75C468.281 109.828 467.141 110.953 465.687 110.953C464.234 110.953 463.094 109.828 463.094 107.75C463.094 105.672 464.234 104.547 465.687 104.547C467.141 104.547 468.281 105.672 468.281 107.75ZM470.723 114H471.644V110.828H471.723C471.926 111.156 472.316 111.875 473.473 111.875C474.973 111.875 476.019 110.672 476.019 108.766C476.019 106.875 474.973 105.672 473.457 105.672C472.285 105.672 471.926 106.391 471.723 106.703H471.613V105.75H470.723V114ZM471.629 108.75C471.629 107.406 472.223 106.5 473.348 106.5C474.519 106.5 475.098 107.484 475.098 108.75C475.098 110.031 474.504 111.047 473.348 111.047C472.238 111.047 471.629 110.109 471.629 108.75ZM479.941 111.875C481.16 111.875 482.051 111.266 482.332 110.359L481.441 110.109C481.207 110.734 480.664 111.047 479.941 111.047C478.859 111.047 478.113 110.348 478.07 109.062H482.426V108.672C482.426 106.437 481.098 105.672 479.848 105.672C478.223 105.672 477.144 106.953 477.144 108.797C477.144 110.641 478.207 111.875 479.941 111.875ZM478.07 108.266C478.133 107.332 478.793 106.5 479.848 106.5C480.848 106.5 481.488 107.25 481.488 108.266H478.07ZM484.75 108.141C484.75 107.094 485.398 106.5 486.281 106.5C487.137 106.5 487.656 107.059 487.656 108V111.75H488.578V107.938C488.578 106.406 487.762 105.672 486.547 105.672C485.641 105.672 485.078 106.078 484.797 106.687H484.719V105.75H483.828V111.75H484.75V108.141ZM497.856 105.75H498.794C498.751 104.543 497.638 103.641 496.091 103.641C494.56 103.641 493.356 104.531 493.356 105.875C493.356 106.953 494.138 107.594 495.388 107.953L496.372 108.234C497.216 108.469 497.966 108.766 497.966 109.562C497.966 110.437 497.122 111.016 496.013 111.016C495.06 111.016 494.216 110.594 494.138 109.688H493.138C493.231 111 494.294 111.891 496.013 111.891C497.856 111.891 498.903 110.875 498.903 109.578C498.903 108.078 497.481 107.594 496.653 107.375L495.841 107.156C495.247 107 494.294 106.687 494.294 105.828C494.294 105.062 494.997 104.5 496.06 104.5C497.028 104.5 497.763 104.961 497.856 105.75ZM502.137 111.891C503.184 111.891 503.73 111.328 503.918 110.937H503.965V111.75H504.887V107.797C504.887 105.891 503.434 105.672 502.668 105.672C501.762 105.672 500.73 105.984 500.262 107.078L501.137 107.391C501.34 106.953 501.82 106.484 502.699 106.484C503.547 106.484 503.965 106.934 503.965 107.703V107.734C503.965 108.18 503.512 108.141 502.418 108.281C501.305 108.426 500.09 108.672 500.09 110.047C500.09 111.219 500.996 111.891 502.137 111.891ZM502.277 111.062C501.543 111.062 501.012 110.734 501.012 110.094C501.012 109.391 501.652 109.172 502.371 109.078C502.762 109.031 503.809 108.922 503.965 108.734V109.578C503.965 110.328 503.371 111.062 502.277 111.062ZM507.491 108.141C507.491 107.094 508.14 106.5 509.022 106.5C509.878 106.5 510.397 107.059 510.397 108V111.75H511.319V107.938C511.319 106.406 510.503 105.672 509.288 105.672C508.382 105.672 507.819 106.078 507.538 106.687H507.46V105.75H506.569V111.75H507.491V108.141ZM517.254 107.094C516.965 106.242 516.316 105.672 515.129 105.672C513.863 105.672 512.926 106.391 512.926 107.406C512.926 108.234 513.418 108.789 514.519 109.047L515.519 109.281C516.125 109.422 516.41 109.711 516.41 110.125C516.41 110.641 515.863 111.062 515.004 111.062C514.25 111.062 513.777 110.738 513.613 110.094L512.738 110.312C512.953 111.332 513.793 111.875 515.019 111.875C516.414 111.875 517.363 111.113 517.363 110.078C517.363 109.242 516.84 108.715 515.769 108.453L514.879 108.234C514.168 108.059 513.848 107.82 513.848 107.359C513.848 106.844 514.394 106.469 515.129 106.469C515.934 106.469 516.266 106.914 516.426 107.328L517.254 107.094Z" fill="#000"/><path d="M462.381 123.75H463.261V120.909H464.852C464.916 120.909 464.977 120.909 465.037 120.906L466.571 123.75H467.594L465.95 120.746C466.876 120.43 467.31 119.673 467.31 118.707C467.31 117.422 466.543 116.477 464.838 116.477H462.381V123.75ZM463.261 120.114V117.259H464.81C465.989 117.259 466.443 117.834 466.443 118.707C466.443 119.581 465.989 120.114 464.824 120.114H463.261ZM470.892 123.864C472 123.864 472.809 123.31 473.065 122.486L472.255 122.259C472.042 122.827 471.549 123.111 470.892 123.111C469.908 123.111 469.23 122.475 469.191 121.307H473.15V120.952C473.15 118.92 471.943 118.224 470.807 118.224C469.329 118.224 468.349 119.389 468.349 121.065C468.349 122.741 469.315 123.864 470.892 123.864ZM469.191 120.582C469.248 119.734 469.848 118.977 470.807 118.977C471.716 118.977 472.298 119.659 472.298 120.582H469.191ZM476.627 125.909C477.934 125.909 478.985 125.312 478.985 123.906V118.295H478.175V119.162H478.09C477.905 118.878 477.564 118.224 476.499 118.224C475.121 118.224 474.17 119.318 474.17 120.994C474.17 122.699 475.164 123.665 476.485 123.665C477.55 123.665 477.891 123.04 478.076 122.741H478.147V123.849C478.147 124.759 477.508 125.17 476.627 125.17C475.636 125.17 475.288 124.648 475.064 124.347L474.397 124.815C474.738 125.387 475.409 125.909 476.627 125.909ZM476.598 122.912C475.547 122.912 475.008 122.116 475.008 120.98C475.008 119.872 475.533 118.977 476.598 118.977C477.621 118.977 478.161 119.801 478.161 120.98C478.161 122.188 477.607 122.912 476.598 122.912ZM483.956 121.52C483.956 122.543 483.175 123.011 482.55 123.011C481.854 123.011 481.357 122.5 481.357 121.705V118.295H480.519V121.761C480.519 123.153 481.258 123.821 482.28 123.821C483.104 123.821 483.644 123.381 483.9 122.827H483.956V123.75H484.795V118.295H483.956V121.52ZM487.168 116.477H486.329V123.75H487.168V116.477ZM490.308 123.878C491.259 123.878 491.757 123.366 491.927 123.011H491.97V123.75H492.808V120.156C492.808 118.423 491.487 118.224 490.791 118.224C489.967 118.224 489.029 118.509 488.603 119.503L489.399 119.787C489.583 119.389 490.02 118.963 490.819 118.963C491.59 118.963 491.97 119.371 491.97 120.071V120.099C491.97 120.504 491.558 120.469 490.563 120.597C489.551 120.728 488.447 120.952 488.447 122.202C488.447 123.267 489.271 123.878 490.308 123.878ZM490.435 123.125C489.768 123.125 489.285 122.827 489.285 122.244C489.285 121.605 489.867 121.406 490.521 121.321C490.876 121.278 491.828 121.179 491.97 121.009V121.776C491.97 122.457 491.43 123.125 490.435 123.125ZM494.337 123.75H495.175V120.298C495.175 119.56 495.758 119.02 496.553 119.02C496.777 119.02 497.008 119.062 497.065 119.077V118.224C496.969 118.217 496.749 118.21 496.624 118.21C495.971 118.21 495.403 118.58 495.204 119.119H495.147V118.295H494.337V123.75ZM466.358 130.295H467.21C467.171 129.198 466.159 128.378 464.753 128.378C463.361 128.378 462.267 129.188 462.267 130.409C462.267 131.389 462.977 131.972 464.114 132.298L465.008 132.554C465.776 132.767 466.457 133.037 466.457 133.761C466.457 134.557 465.69 135.082 464.682 135.082C463.815 135.082 463.048 134.699 462.977 133.875H462.068C462.153 135.068 463.119 135.878 464.682 135.878C466.358 135.878 467.31 134.955 467.31 133.776C467.31 132.412 466.017 131.972 465.264 131.773L464.526 131.574C463.986 131.432 463.119 131.148 463.119 130.366C463.119 129.67 463.758 129.159 464.724 129.159C465.605 129.159 466.273 129.578 466.358 130.295ZM468.644 135.75H469.482V130.295H468.644V135.75ZM469.07 129.386C469.397 129.386 469.667 129.131 469.667 128.818C469.667 128.506 469.397 128.25 469.07 128.25C468.743 128.25 468.473 128.506 468.473 128.818C468.473 129.131 468.743 129.386 469.07 129.386ZM470.861 135.75H475.136V134.969H472.026V134.912L475.037 130.963V130.295H470.96V131.077H473.957V131.134L470.861 135.111V135.75ZM478.558 135.864C479.666 135.864 480.475 135.31 480.731 134.486L479.921 134.259C479.708 134.827 479.215 135.111 478.558 135.111C477.574 135.111 476.896 134.475 476.857 133.307H480.816V132.952C480.816 130.92 479.609 130.224 478.473 130.224C476.995 130.224 476.015 131.389 476.015 133.065C476.015 134.741 476.981 135.864 478.558 135.864ZM476.857 132.582C476.914 131.734 477.514 130.977 478.473 130.977C479.382 130.977 479.964 131.659 479.964 132.582H476.857ZM485.955 131.517C485.692 130.743 485.103 130.224 484.023 130.224C482.872 130.224 482.02 130.878 482.02 131.801C482.02 132.554 482.468 133.058 483.469 133.293L484.378 133.506C484.929 133.634 485.188 133.896 485.188 134.273C485.188 134.741 484.691 135.125 483.909 135.125C483.224 135.125 482.794 134.83 482.645 134.244L481.85 134.443C482.045 135.37 482.809 135.864 483.924 135.864C485.191 135.864 486.054 135.171 486.054 134.23C486.054 133.47 485.578 132.991 484.605 132.753L483.796 132.554C483.149 132.394 482.858 132.178 482.858 131.759C482.858 131.29 483.355 130.949 484.023 130.949C484.755 130.949 485.056 131.354 485.202 131.73L485.955 131.517ZM487.927 135.807C488.278 135.807 488.566 135.519 488.566 135.168C488.566 134.816 488.278 134.528 487.927 134.528C487.575 134.528 487.287 134.816 487.287 135.168C487.287 135.519 487.575 135.807 487.927 135.807ZM487.927 131.759C488.278 131.759 488.566 131.471 488.566 131.119C488.566 130.768 488.278 130.48 487.927 130.48C487.575 130.48 487.287 130.768 487.287 131.119C487.287 131.471 487.575 131.759 487.927 131.759ZM495.425 128.477H494.544L492.726 129.685V130.58L494.502 129.401H494.544V135.75H495.425V128.477ZM499.931 135.849C501.401 135.867 502.36 134.759 502.36 133.406C502.36 132 501.32 130.991 500.073 130.991C499.324 130.991 498.681 131.357 498.283 131.957H498.227C498.23 130.185 498.919 129.159 500.045 129.159C500.812 129.159 501.274 129.642 501.437 130.295H502.303C502.126 129.166 501.266 128.378 500.045 128.378C498.408 128.378 497.403 129.827 497.403 132.398C497.403 135.086 498.738 135.835 499.931 135.849ZM499.931 135.068C499.019 135.068 498.351 134.29 498.355 133.42C498.358 132.55 499.058 131.773 499.96 131.773C500.851 131.773 501.508 132.504 501.508 133.406C501.508 134.33 500.823 135.068 499.931 135.068Z" fill="#999"/><g clip-path="url(#clip2_210_32882)"><rect x="480" y="81.75" width="11" height="11" transform="rotate(45 480 81.75)" fill="#fff"/></g></g><rect width="318.667" height="205" transform="translate(641.333)" fill="#F1F1F6"/><path d="M805.257 87.795L800.667 92.375L796.077 87.795L794.667 89.205L800.667 95.205L806.667 89.205L805.257 87.795Z" fill="#7D808D"/><path d="M757.729 132.5V121.078H759.057V132.5H757.729ZM765.582 132.656C764.811 132.656 764.132 132.497 763.543 132.18C762.955 131.862 762.496 131.378 762.168 130.727C761.84 130.076 761.676 129.255 761.676 128.266C761.676 127.229 761.848 126.383 762.192 125.727C762.541 125.065 763.02 124.576 763.629 124.258C764.239 123.94 764.931 123.781 765.707 123.781C766.134 123.781 766.546 123.826 766.942 123.914C767.343 123.997 767.671 124.104 767.926 124.234L767.535 125.32C767.275 125.216 766.973 125.122 766.629 125.039C766.291 124.956 765.973 124.914 765.676 124.914C765.082 124.914 764.587 125.042 764.192 125.297C763.801 125.552 763.507 125.927 763.309 126.422C763.116 126.917 763.02 127.526 763.02 128.25C763.02 128.943 763.114 129.534 763.301 130.023C763.494 130.513 763.778 130.888 764.153 131.148C764.533 131.404 765.007 131.531 765.574 131.531C766.028 131.531 766.436 131.484 766.801 131.391C767.166 131.292 767.496 131.177 767.793 131.047V132.203C767.507 132.349 767.186 132.461 766.832 132.539C766.483 132.617 766.067 132.656 765.582 132.656ZM777.357 128.203C777.357 128.906 777.266 129.534 777.084 130.086C776.902 130.638 776.639 131.104 776.295 131.484C775.951 131.865 775.534 132.156 775.045 132.359C774.56 132.557 774.011 132.656 773.396 132.656C772.823 132.656 772.297 132.557 771.818 132.359C771.344 132.156 770.933 131.865 770.584 131.484C770.24 131.104 769.972 130.638 769.779 130.086C769.592 129.534 769.498 128.906 769.498 128.203C769.498 127.266 769.657 126.469 769.974 125.812C770.292 125.151 770.745 124.648 771.334 124.305C771.928 123.956 772.633 123.781 773.451 123.781C774.232 123.781 774.915 123.956 775.498 124.305C776.086 124.654 776.542 125.159 776.865 125.82C777.193 126.477 777.357 127.271 777.357 128.203ZM770.842 128.203C770.842 128.891 770.933 129.487 771.115 129.992C771.297 130.497 771.579 130.888 771.959 131.164C772.339 131.44 772.829 131.578 773.428 131.578C774.021 131.578 774.508 131.44 774.889 131.164C775.274 130.888 775.558 130.497 775.74 129.992C775.922 129.487 776.014 128.891 776.014 128.203C776.014 127.521 775.922 126.932 775.74 126.438C775.558 125.938 775.277 125.552 774.896 125.281C774.516 125.01 774.024 124.875 773.42 124.875C772.529 124.875 771.875 125.169 771.459 125.758C771.047 126.346 770.842 127.161 770.842 128.203ZM783.804 123.781C784.82 123.781 785.588 124.031 786.109 124.531C786.63 125.026 786.89 125.823 786.89 126.922V132.5H785.609V127.008C785.609 126.294 785.445 125.76 785.117 125.406C784.794 125.052 784.296 124.875 783.624 124.875C782.677 124.875 782.01 125.143 781.624 125.68C781.239 126.216 781.046 126.995 781.046 128.016V132.5H779.749V123.938H780.796L780.992 125.172H781.062C781.244 124.87 781.476 124.617 781.757 124.414C782.039 124.206 782.354 124.049 782.703 123.945C783.052 123.836 783.419 123.781 783.804 123.781ZM794.214 121.078H797.448C798.875 121.078 799.948 121.292 800.667 121.719C801.385 122.146 801.745 122.872 801.745 123.898C801.745 124.341 801.659 124.74 801.487 125.094C801.32 125.443 801.075 125.732 800.753 125.961C800.43 126.19 800.031 126.349 799.557 126.438V126.516C800.057 126.594 800.5 126.737 800.885 126.945C801.271 127.154 801.573 127.445 801.792 127.82C802.01 128.195 802.12 128.672 802.12 129.25C802.12 129.953 801.956 130.547 801.628 131.031C801.305 131.516 800.846 131.883 800.253 132.133C799.659 132.378 798.956 132.5 798.143 132.5H794.214V121.078ZM795.542 125.977H797.729C798.724 125.977 799.411 125.812 799.792 125.484C800.177 125.156 800.37 124.677 800.37 124.047C800.37 123.396 800.141 122.927 799.682 122.641C799.229 122.354 798.505 122.211 797.51 122.211H795.542V125.977ZM795.542 127.094V131.367H797.917C798.932 131.367 799.651 131.169 800.073 130.773C800.495 130.372 800.706 129.833 800.706 129.156C800.706 128.724 800.609 128.354 800.417 128.047C800.229 127.74 799.922 127.505 799.495 127.344C799.073 127.177 798.508 127.094 797.799 127.094H795.542ZM811.582 123.938V132.5H810.52L810.332 131.297H810.262C810.085 131.594 809.856 131.844 809.574 132.047C809.293 132.25 808.975 132.401 808.621 132.5C808.272 132.604 807.9 132.656 807.504 132.656C806.827 132.656 806.259 132.547 805.801 132.328C805.343 132.109 804.996 131.771 804.762 131.312C804.533 130.854 804.418 130.266 804.418 129.547V123.938H805.731V129.453C805.731 130.167 805.892 130.701 806.215 131.055C806.538 131.404 807.03 131.578 807.692 131.578C808.327 131.578 808.832 131.458 809.207 131.219C809.587 130.979 809.861 130.628 810.028 130.164C810.194 129.695 810.278 129.122 810.278 128.445V123.938H811.582ZM817.24 131.594C817.454 131.594 817.672 131.576 817.896 131.539C818.12 131.503 818.303 131.458 818.443 131.406V132.414C818.292 132.482 818.081 132.539 817.81 132.586C817.545 132.633 817.284 132.656 817.029 132.656C816.576 132.656 816.165 132.578 815.795 132.422C815.425 132.26 815.128 131.99 814.904 131.609C814.685 131.229 814.576 130.703 814.576 130.031V124.953H813.357V124.32L814.584 123.812L815.099 121.953H815.881V123.938H818.389V124.953H815.881V129.992C815.881 130.529 816.003 130.93 816.248 131.195C816.498 131.461 816.829 131.594 817.24 131.594ZM823.093 131.594C823.307 131.594 823.525 131.576 823.749 131.539C823.973 131.503 824.156 131.458 824.296 131.406V132.414C824.145 132.482 823.934 132.539 823.664 132.586C823.398 132.633 823.137 132.656 822.882 132.656C822.429 132.656 822.018 132.578 821.648 132.422C821.278 132.26 820.981 131.99 820.757 131.609C820.539 131.229 820.429 130.703 820.429 130.031V124.953H819.21V124.32L820.437 123.812L820.953 121.953H821.734V123.938H824.242V124.953H821.734V129.992C821.734 130.529 821.856 130.93 822.101 131.195C822.351 131.461 822.682 131.594 823.093 131.594ZM833.563 128.203C833.563 128.906 833.472 129.534 833.29 130.086C833.108 130.638 832.845 131.104 832.501 131.484C832.157 131.865 831.741 132.156 831.251 132.359C830.767 132.557 830.217 132.656 829.603 132.656C829.03 132.656 828.504 132.557 828.024 132.359C827.55 132.156 827.139 131.865 826.79 131.484C826.446 131.104 826.178 130.638 825.985 130.086C825.798 129.534 825.704 128.906 825.704 128.203C825.704 127.266 825.863 126.469 826.181 125.812C826.498 125.151 826.952 124.648 827.54 124.305C828.134 123.956 828.84 123.781 829.657 123.781C830.438 123.781 831.121 123.956 831.704 124.305C832.293 124.654 832.748 125.159 833.071 125.82C833.399 126.477 833.563 127.271 833.563 128.203ZM827.048 128.203C827.048 128.891 827.139 129.487 827.321 129.992C827.504 130.497 827.785 130.888 828.165 131.164C828.545 131.44 829.035 131.578 829.634 131.578C830.228 131.578 830.715 131.44 831.095 131.164C831.48 130.888 831.764 130.497 831.946 129.992C832.129 129.487 832.22 128.891 832.22 128.203C832.22 127.521 832.129 126.932 831.946 126.438C831.764 125.938 831.483 125.552 831.103 125.281C830.722 125.01 830.23 124.875 829.626 124.875C828.735 124.875 828.082 125.169 827.665 125.758C827.254 126.346 827.048 127.161 827.048 128.203ZM840.01 123.781C841.026 123.781 841.794 124.031 842.315 124.531C842.836 125.026 843.096 125.823 843.096 126.922V132.5H841.815V127.008C841.815 126.294 841.651 125.76 841.323 125.406C841 125.052 840.503 124.875 839.831 124.875C838.883 124.875 838.216 125.143 837.831 125.68C837.445 126.216 837.253 126.995 837.253 128.016V132.5H835.956V123.938H837.003L837.198 125.172H837.268C837.45 124.87 837.682 124.617 837.964 124.414C838.245 124.206 838.56 124.049 838.909 123.945C839.258 123.836 839.625 123.781 840.01 123.781Z" fill="#252A2E"/><path d="M756.167 133.477H844.401V133.867H756.167V133.477Z" fill="#252A2E"/><a href="https://www.figma.com/file/Bfpyk5rbSsmwfIacqzg9HS?node-id=412%3A3530"><rect fill="#000" fill-opacity="0" y=".105" width="88.234" height="21.789"/></a><path d="M829.5 67V115" stroke="#E8178A"/><rect x="834" y="83.5" width="38" height="18" rx="3" fill="#E8178A"/><path d="M840.479 95.2216H843.97V96.5H845.44V95.2216H846.342V93.9893H845.44V89.2273H843.516L840.479 94.0107V95.2216ZM843.999 93.9893H842.028V93.9325L843.942 90.9034H843.999V93.9893ZM850.08 96.5994C851.721 96.5994 852.9 95.7223 852.903 94.5433C852.9 93.6342 852.2 92.892 851.326 92.7464V92.6967C852.086 92.5405 852.63 91.8835 852.633 91.0845C852.63 89.9588 851.55 89.1278 850.08 89.1278C848.606 89.1278 847.527 89.9588 847.53 91.0845C847.527 91.88 848.063 92.5405 848.837 92.6967V92.7464C847.949 92.892 847.257 93.6342 847.26 94.5433C847.257 95.7223 848.439 96.5994 850.08 96.5994ZM850.08 95.4702C849.348 95.4702 848.858 95.0369 848.858 94.4226C848.858 93.794 849.373 93.3395 850.08 93.3395C850.783 93.3395 851.301 93.794 851.301 94.4226C851.301 95.0405 850.808 95.4702 850.08 95.4702ZM850.08 92.2209C849.466 92.2209 849.029 91.8196 849.029 91.2443C849.029 90.6761 849.458 90.2855 850.08 90.2855C850.698 90.2855 851.131 90.6797 851.131 91.2443C851.131 91.8196 850.691 92.2209 850.08 92.2209ZM853.992 98.5455H855.505V95.6264H855.551C855.761 96.081 856.219 96.5888 857.1 96.5888C858.343 96.5888 859.312 95.6051 859.312 93.7798C859.312 91.9048 858.3 90.9744 857.103 90.9744C856.191 90.9744 855.754 91.5178 855.551 91.9616H855.484V91.0455H853.992V98.5455ZM855.473 93.7727C855.473 92.7997 855.885 92.1783 856.62 92.1783C857.369 92.1783 857.767 92.8281 857.767 93.7727C857.767 94.7244 857.362 95.3849 856.62 95.3849C855.892 95.3849 855.473 94.7457 855.473 93.7727ZM861.38 91.0455H859.817L861.38 93.7727L859.76 96.5H861.323L862.381 94.6143L863.457 96.5H865.002L863.379 93.7727L864.959 91.0455H863.407L862.381 92.9524L861.38 91.0455Z" fill="#fff"/><line x1="826" y1="67.5" x2="833" y2="67.5" stroke="#E8178A"/><line x1="826" y1="114.5" x2="833" y2="114.5" stroke="#E8178A"/><path d="M777 62.5H825" stroke="#E8178A"/><rect x="782" y="40" width="38" height="18" rx="3" fill="#E8178A"/><path d="M788.479 51.7216H791.97V53H793.44V51.7216H794.342V50.4893H793.44V45.7273H791.516L788.479 50.5107V51.7216ZM791.999 50.4893H790.028V50.4325L791.942 47.4034H791.999V50.4893ZM798.08 53.0994C799.721 53.0994 800.9 52.2223 800.903 51.0433C800.9 50.1342 800.2 49.392 799.326 49.2464V49.1967C800.086 49.0405 800.63 48.3835 800.633 47.5845C800.63 46.4588 799.55 45.6278 798.08 45.6278C796.606 45.6278 795.527 46.4588 795.53 47.5845C795.527 48.38 796.063 49.0405 796.837 49.1967V49.2464C795.949 49.392 795.257 50.1342 795.26 51.0433C795.257 52.2223 796.439 53.0994 798.08 53.0994ZM798.08 51.9702C797.348 51.9702 796.858 51.5369 796.858 50.9226C796.858 50.294 797.373 49.8395 798.08 49.8395C798.783 49.8395 799.301 50.294 799.301 50.9226C799.301 51.5405 798.808 51.9702 798.08 51.9702ZM798.08 48.7209C797.466 48.7209 797.029 48.3196 797.029 47.7443C797.029 47.1761 797.458 46.7855 798.08 46.7855C798.698 46.7855 799.131 47.1797 799.131 47.7443C799.131 48.3196 798.691 48.7209 798.08 48.7209ZM801.992 55.0455H803.505V52.1264H803.551C803.761 52.581 804.219 53.0888 805.1 53.0888C806.343 53.0888 807.312 52.1051 807.312 50.2798C807.312 48.4048 806.3 47.4744 805.103 47.4744C804.191 47.4744 803.754 48.0178 803.551 48.4616H803.484V47.5455H801.992V55.0455ZM803.473 50.2727C803.473 49.2997 803.885 48.6783 804.62 48.6783C805.369 48.6783 805.767 49.3281 805.767 50.2727C805.767 51.2244 805.362 51.8849 804.62 51.8849C803.892 51.8849 803.473 51.2457 803.473 50.2727ZM809.38 47.5455H807.817L809.38 50.2727L807.76 53H809.323L810.381 51.1143L811.457 53H813.002L811.379 50.2727L812.959 47.5455H811.407L810.381 49.4524L809.38 47.5455Z" fill="#fff"/><line x1="777.5" y1="66" x2="777.5" y2="59" stroke="#E8178A"/><line x1="824.5" y1="66" x2="824.5" y2="59" stroke="#E8178A"/></g><g clip-path="url(#clip3_210_32882)"><rect width="960" height="176" transform="translate(0 221)" fill="#F1F1F6"/><g filter="url(#filter2_d_210_32882)"><rect x="272" y="281" width="416" height="56" rx="4" fill="#fff"/><path d="M301.07 315H299.734V304.75H296.141V303.578H304.648V304.75H301.07V315ZM307.627 306.438V315H306.33V306.438H307.627ZM306.994 303.234C307.207 303.234 307.39 303.305 307.541 303.445C307.697 303.581 307.775 303.794 307.775 304.086C307.775 304.372 307.697 304.586 307.541 304.727C307.39 304.867 307.207 304.938 306.994 304.938C306.77 304.938 306.582 304.867 306.431 304.727C306.285 304.586 306.212 304.372 306.212 304.086C306.212 303.794 306.285 303.581 306.431 303.445C306.582 303.305 306.77 303.234 306.994 303.234ZM313.292 314.094C313.506 314.094 313.724 314.076 313.948 314.039C314.172 314.003 314.355 313.958 314.495 313.906V314.914C314.344 314.982 314.133 315.039 313.863 315.086C313.597 315.133 313.336 315.156 313.081 315.156C312.628 315.156 312.217 315.078 311.847 314.922C311.477 314.76 311.18 314.49 310.956 314.109C310.738 313.729 310.628 313.203 310.628 312.531V307.453H309.409V306.82L310.636 306.312L311.152 304.453H311.933V306.438H314.441V307.453H311.933V312.492C311.933 313.029 312.055 313.43 312.3 313.695C312.55 313.961 312.881 314.094 313.292 314.094ZM317.684 315H316.38V302.844H317.684V315ZM323.873 306.281C324.603 306.281 325.228 306.443 325.748 306.766C326.269 307.089 326.668 307.542 326.944 308.125C327.22 308.703 327.358 309.38 327.358 310.156V310.961H321.444C321.459 311.966 321.709 312.732 322.194 313.258C322.678 313.784 323.36 314.047 324.241 314.047C324.782 314.047 325.261 313.997 325.678 313.898C326.095 313.799 326.527 313.654 326.975 313.461V314.602C326.543 314.794 326.113 314.935 325.686 315.023C325.264 315.112 324.764 315.156 324.186 315.156C323.363 315.156 322.644 314.99 322.03 314.656C321.42 314.318 320.946 313.823 320.608 313.172C320.269 312.521 320.1 311.724 320.1 310.781C320.1 309.859 320.254 309.062 320.561 308.391C320.873 307.714 321.311 307.193 321.873 306.828C322.441 306.464 323.108 306.281 323.873 306.281ZM323.858 307.344C323.165 307.344 322.613 307.57 322.202 308.023C321.79 308.477 321.545 309.109 321.467 309.922H325.998C325.993 309.411 325.913 308.964 325.756 308.578C325.605 308.188 325.373 307.885 325.061 307.672C324.748 307.453 324.347 307.344 323.858 307.344Z" fill="#252A2E"/><path d="M660.59 305.295L656 309.875L651.41 305.295L650 306.705L656 312.705L662 306.705L660.59 305.295Z" fill="#7D808D"/></g><rect x="288.5" y="285.5" width="343" height="47" stroke="#E8178A"/><path d="M288 309H272" stroke="#E8178A"/><rect x="262" y="313" width="36" height="18" rx="3" fill="#E8178A"/><path d="M271.754 318.727V326H270.216V320.187H270.173L268.508 321.231V319.867L270.308 318.727H271.754ZM276.273 326.099C275.899 326.097 275.538 326.034 275.19 325.911C274.845 325.788 274.534 325.588 274.26 325.311C273.985 325.034 273.767 324.667 273.606 324.21C273.448 323.753 273.368 323.192 273.368 322.527C273.371 321.916 273.441 321.371 273.578 320.89C273.718 320.407 273.916 319.997 274.175 319.661C274.435 319.325 274.746 319.069 275.108 318.894C275.471 318.717 275.877 318.628 276.327 318.628C276.812 318.628 277.24 318.723 277.612 318.912C277.984 319.099 278.282 319.353 278.507 319.675C278.734 319.997 278.872 320.358 278.919 320.759H277.403C277.343 320.505 277.219 320.306 277.03 320.162C276.84 320.018 276.606 319.945 276.327 319.945C275.853 319.945 275.493 320.151 275.247 320.563C275.003 320.975 274.879 321.535 274.874 322.243H274.924C275.033 322.027 275.18 321.844 275.364 321.692C275.551 321.539 275.763 321.421 276 321.341C276.239 321.258 276.491 321.217 276.756 321.217C277.187 321.217 277.571 321.318 277.907 321.522C278.243 321.723 278.508 322 278.702 322.353C278.896 322.706 278.993 323.109 278.993 323.564C278.993 324.056 278.879 324.494 278.649 324.878C278.422 325.261 278.103 325.562 277.694 325.78C277.287 325.995 276.813 326.102 276.273 326.099ZM276.266 324.892C276.503 324.892 276.715 324.835 276.902 324.722C277.089 324.608 277.236 324.454 277.342 324.26C277.449 324.066 277.502 323.848 277.502 323.607C277.502 323.365 277.449 323.148 277.342 322.957C277.238 322.765 277.094 322.612 276.909 322.499C276.724 322.385 276.514 322.328 276.277 322.328C276.099 322.328 275.935 322.361 275.783 322.428C275.634 322.494 275.503 322.586 275.389 322.705C275.278 322.823 275.19 322.96 275.126 323.116C275.062 323.27 275.03 323.435 275.03 323.61C275.03 323.844 275.084 324.059 275.19 324.253C275.299 324.447 275.446 324.602 275.631 324.718C275.818 324.834 276.029 324.892 276.266 324.892ZM280.098 328.045V320.545H281.589V321.462H281.657C281.723 321.315 281.819 321.166 281.944 321.014C282.072 320.86 282.238 320.732 282.442 320.631C282.648 320.527 282.903 320.474 283.209 320.474C283.606 320.474 283.973 320.579 284.309 320.787C284.646 320.993 284.914 321.304 285.116 321.721C285.317 322.135 285.417 322.655 285.417 323.28C285.417 323.888 285.319 324.402 285.123 324.821C284.929 325.238 284.663 325.554 284.327 325.769C283.993 325.982 283.619 326.089 283.205 326.089C282.912 326.089 282.662 326.04 282.456 325.943C282.252 325.846 282.085 325.724 281.955 325.577C281.825 325.428 281.725 325.278 281.657 325.126H281.611V328.045H280.098ZM281.579 323.273C281.579 323.597 281.624 323.88 281.714 324.121C281.804 324.363 281.934 324.551 282.104 324.686C282.275 324.819 282.482 324.885 282.726 324.885C282.972 324.885 283.18 324.817 283.351 324.683C283.521 324.545 283.65 324.356 283.738 324.114C283.828 323.871 283.873 323.59 283.873 323.273C283.873 322.958 283.829 322.681 283.741 322.442C283.654 322.203 283.525 322.016 283.354 321.881C283.184 321.746 282.974 321.678 282.726 321.678C282.479 321.678 282.271 321.743 282.101 321.874C281.933 322.004 281.804 322.188 281.714 322.428C281.624 322.667 281.579 322.948 281.579 323.273ZM287.495 320.545L288.496 322.452L289.523 320.545H291.074L289.494 323.273L291.117 326H289.572L288.496 324.114L287.438 326H285.876L287.495 323.273L285.932 320.545H287.495Z" fill="#fff"/><path d="M288 309H272" stroke="#E8178A"/><rect x="262" y="313" width="36" height="18" rx="3" fill="#E8178A"/><path d="M271.754 318.727V326H270.216V320.187H270.173L268.508 321.231V319.867L270.308 318.727H271.754ZM276.273 326.099C275.899 326.097 275.538 326.034 275.19 325.911C274.845 325.788 274.534 325.588 274.26 325.311C273.985 325.034 273.767 324.667 273.606 324.21C273.448 323.753 273.368 323.192 273.368 322.527C273.371 321.916 273.441 321.371 273.578 320.89C273.718 320.407 273.916 319.997 274.175 319.661C274.435 319.325 274.746 319.069 275.108 318.894C275.471 318.717 275.877 318.628 276.327 318.628C276.812 318.628 277.24 318.723 277.612 318.912C277.984 319.099 278.282 319.353 278.507 319.675C278.734 319.997 278.872 320.358 278.919 320.759H277.403C277.343 320.505 277.219 320.306 277.03 320.162C276.84 320.018 276.606 319.945 276.327 319.945C275.853 319.945 275.493 320.151 275.247 320.563C275.003 320.975 274.879 321.535 274.874 322.243H274.924C275.033 322.027 275.18 321.844 275.364 321.692C275.551 321.539 275.763 321.421 276 321.341C276.239 321.258 276.491 321.217 276.756 321.217C277.187 321.217 277.571 321.318 277.907 321.522C278.243 321.723 278.508 322 278.702 322.353C278.896 322.706 278.993 323.109 278.993 323.564C278.993 324.056 278.879 324.494 278.649 324.878C278.422 325.261 278.103 325.562 277.694 325.78C277.287 325.995 276.813 326.102 276.273 326.099ZM276.266 324.892C276.503 324.892 276.715 324.835 276.902 324.722C277.089 324.608 277.236 324.454 277.342 324.26C277.449 324.066 277.502 323.848 277.502 323.607C277.502 323.365 277.449 323.148 277.342 322.957C277.238 322.765 277.094 322.612 276.909 322.499C276.724 322.385 276.514 322.328 276.277 322.328C276.099 322.328 275.935 322.361 275.783 322.428C275.634 322.494 275.503 322.586 275.389 322.705C275.278 322.823 275.19 322.96 275.126 323.116C275.062 323.27 275.03 323.435 275.03 323.61C275.03 323.844 275.084 324.059 275.19 324.253C275.299 324.447 275.446 324.602 275.631 324.718C275.818 324.834 276.029 324.892 276.266 324.892ZM280.098 328.045V320.545H281.589V321.462H281.657C281.723 321.315 281.819 321.166 281.944 321.014C282.072 320.86 282.238 320.732 282.442 320.631C282.648 320.527 282.903 320.474 283.209 320.474C283.606 320.474 283.973 320.579 284.309 320.787C284.646 320.993 284.914 321.304 285.116 321.721C285.317 322.135 285.417 322.655 285.417 323.28C285.417 323.888 285.319 324.402 285.123 324.821C284.929 325.238 284.663 325.554 284.327 325.769C283.993 325.982 283.619 326.089 283.205 326.089C282.912 326.089 282.662 326.04 282.456 325.943C282.252 325.846 282.085 325.724 281.955 325.577C281.825 325.428 281.725 325.278 281.657 325.126H281.611V328.045H280.098ZM281.579 323.273C281.579 323.597 281.624 323.88 281.714 324.121C281.804 324.363 281.934 324.551 282.104 324.686C282.275 324.819 282.482 324.885 282.726 324.885C282.972 324.885 283.18 324.817 283.351 324.683C283.521 324.545 283.65 324.356 283.738 324.114C283.828 323.871 283.873 323.59 283.873 323.273C283.873 322.958 283.829 322.681 283.741 322.442C283.654 322.203 283.525 322.016 283.354 321.881C283.184 321.746 282.974 321.678 282.726 321.678C282.479 321.678 282.271 321.743 282.101 321.874C281.933 322.004 281.804 322.188 281.714 322.428C281.624 322.667 281.579 322.948 281.579 323.273ZM287.495 320.545L288.496 322.452L289.523 320.545H291.074L289.494 323.273L291.117 326H289.572L288.496 324.114L287.438 326H285.876L287.495 323.273L285.932 320.545H287.495Z" fill="#fff"/><path d="M288 309H272" stroke="#E8178A"/><rect x="262" y="313" width="36" height="18" rx="3" fill="#E8178A"/><path d="M271.754 318.727V326H270.216V320.187H270.173L268.508 321.231V319.867L270.308 318.727H271.754ZM276.273 326.099C275.899 326.097 275.538 326.034 275.19 325.911C274.845 325.788 274.534 325.588 274.26 325.311C273.985 325.034 273.767 324.667 273.606 324.21C273.448 323.753 273.368 323.192 273.368 322.527C273.371 321.916 273.441 321.371 273.578 320.89C273.718 320.407 273.916 319.997 274.175 319.661C274.435 319.325 274.746 319.069 275.108 318.894C275.471 318.717 275.877 318.628 276.327 318.628C276.812 318.628 277.24 318.723 277.612 318.912C277.984 319.099 278.282 319.353 278.507 319.675C278.734 319.997 278.872 320.358 278.919 320.759H277.403C277.343 320.505 277.219 320.306 277.03 320.162C276.84 320.018 276.606 319.945 276.327 319.945C275.853 319.945 275.493 320.151 275.247 320.563C275.003 320.975 274.879 321.535 274.874 322.243H274.924C275.033 322.027 275.18 321.844 275.364 321.692C275.551 321.539 275.763 321.421 276 321.341C276.239 321.258 276.491 321.217 276.756 321.217C277.187 321.217 277.571 321.318 277.907 321.522C278.243 321.723 278.508 322 278.702 322.353C278.896 322.706 278.993 323.109 278.993 323.564C278.993 324.056 278.879 324.494 278.649 324.878C278.422 325.261 278.103 325.562 277.694 325.78C277.287 325.995 276.813 326.102 276.273 326.099ZM276.266 324.892C276.503 324.892 276.715 324.835 276.902 324.722C277.089 324.608 277.236 324.454 277.342 324.26C277.449 324.066 277.502 323.848 277.502 323.607C277.502 323.365 277.449 323.148 277.342 322.957C277.238 322.765 277.094 322.612 276.909 322.499C276.724 322.385 276.514 322.328 276.277 322.328C276.099 322.328 275.935 322.361 275.783 322.428C275.634 322.494 275.503 322.586 275.389 322.705C275.278 322.823 275.19 322.96 275.126 323.116C275.062 323.27 275.03 323.435 275.03 323.61C275.03 323.844 275.084 324.059 275.19 324.253C275.299 324.447 275.446 324.602 275.631 324.718C275.818 324.834 276.029 324.892 276.266 324.892ZM280.098 328.045V320.545H281.589V321.462H281.657C281.723 321.315 281.819 321.166 281.944 321.014C282.072 320.86 282.238 320.732 282.442 320.631C282.648 320.527 282.903 320.474 283.209 320.474C283.606 320.474 283.973 320.579 284.309 320.787C284.646 320.993 284.914 321.304 285.116 321.721C285.317 322.135 285.417 322.655 285.417 323.28C285.417 323.888 285.319 324.402 285.123 324.821C284.929 325.238 284.663 325.554 284.327 325.769C283.993 325.982 283.619 326.089 283.205 326.089C282.912 326.089 282.662 326.04 282.456 325.943C282.252 325.846 282.085 325.724 281.955 325.577C281.825 325.428 281.725 325.278 281.657 325.126H281.611V328.045H280.098ZM281.579 323.273C281.579 323.597 281.624 323.88 281.714 324.121C281.804 324.363 281.934 324.551 282.104 324.686C282.275 324.819 282.482 324.885 282.726 324.885C282.972 324.885 283.18 324.817 283.351 324.683C283.521 324.545 283.65 324.356 283.738 324.114C283.828 323.871 283.873 323.59 283.873 323.273C283.873 322.958 283.829 322.681 283.741 322.442C283.654 322.203 283.525 322.016 283.354 321.881C283.184 321.746 282.974 321.678 282.726 321.678C282.479 321.678 282.271 321.743 282.101 321.874C281.933 322.004 281.804 322.188 281.714 322.428C281.624 322.667 281.579 322.948 281.579 323.273ZM287.495 320.545L288.496 322.452L289.523 320.545H291.074L289.494 323.273L291.117 326H289.572L288.496 324.114L287.438 326H285.876L287.495 323.273L285.932 320.545H287.495Z" fill="#fff"/><path d="M288 309H272" stroke="#E8178A"/><rect x="262" y="313" width="36" height="18" rx="3" fill="#E8178A"/><path d="M271.754 318.727H270.308L268.508 319.867V321.231L270.173 320.187H270.216V326H271.754V318.727ZM276.273 326.099C277.893 326.107 278.997 325.045 278.993 323.564C278.997 322.2 278.045 321.217 276.756 321.217C275.957 321.217 275.251 321.6 274.924 322.243H274.874C274.881 320.826 275.378 319.945 276.327 319.945C276.884 319.945 277.285 320.251 277.403 320.759H278.919C278.773 319.562 277.779 318.628 276.327 318.628C274.53 318.628 273.376 320.084 273.368 322.527C273.365 325.19 274.778 326.092 276.273 326.099ZM276.266 324.892C275.556 324.892 275.03 324.32 275.03 323.61C275.034 322.903 275.57 322.328 276.277 322.328C276.987 322.328 277.506 322.886 277.502 323.607C277.506 324.335 276.976 324.892 276.266 324.892ZM280.098 328.045H281.611V325.126H281.657C281.866 325.581 282.324 326.089 283.205 326.089C284.448 326.089 285.417 325.105 285.417 323.28C285.417 321.405 284.405 320.474 283.209 320.474C282.296 320.474 281.859 321.018 281.657 321.462H281.589V320.545H280.098V328.045ZM281.579 323.273C281.579 322.3 281.991 321.678 282.726 321.678C283.475 321.678 283.873 322.328 283.873 323.273C283.873 324.224 283.468 324.885 282.726 324.885C281.998 324.885 281.579 324.246 281.579 323.273ZM287.485 320.545H285.923L287.485 323.273L285.866 326H287.428L288.487 324.114L289.562 326H291.107L289.484 323.273L291.065 320.545H289.513L288.487 322.452L287.485 320.545Z" fill="#fff"/><path d="M288 309H272" stroke="#E8178A"/><rect x="262" y="313" width="36" height="18" rx="3" fill="#E8178A"/><path d="M271.754 318.727H270.308L268.508 319.867V321.231L270.173 320.187H270.216V326H271.754V318.727ZM276.273 326.099C277.893 326.107 278.997 325.045 278.993 323.564C278.997 322.2 278.045 321.217 276.756 321.217C275.957 321.217 275.251 321.6 274.924 322.243H274.874C274.881 320.826 275.378 319.945 276.327 319.945C276.884 319.945 277.285 320.251 277.403 320.759H278.919C278.773 319.562 277.779 318.628 276.327 318.628C274.53 318.628 273.376 320.084 273.368 322.527C273.365 325.19 274.778 326.092 276.273 326.099ZM276.266 324.892C275.556 324.892 275.03 324.32 275.03 323.61C275.034 322.903 275.57 322.328 276.277 322.328C276.987 322.328 277.506 322.886 277.502 323.607C277.506 324.335 276.976 324.892 276.266 324.892ZM280.098 328.045H281.611V325.126H281.657C281.866 325.581 282.324 326.089 283.205 326.089C284.448 326.089 285.417 325.105 285.417 323.28C285.417 321.405 284.405 320.474 283.209 320.474C282.296 320.474 281.859 321.018 281.657 321.462H281.589V320.545H280.098V328.045ZM281.579 323.273C281.579 322.3 281.991 321.678 282.726 321.678C283.475 321.678 283.873 322.328 283.873 323.273C283.873 324.224 283.468 324.885 282.726 324.885C281.998 324.885 281.579 324.246 281.579 323.273ZM287.485 320.545H285.923L287.485 323.273L285.866 326H287.428L288.487 324.114L289.562 326H291.107L289.484 323.273L291.065 320.545H289.513L288.487 322.452L287.485 320.545Z" fill="#fff"/><path d="M288 309H272" stroke="#E8178A"/><rect x="262" y="313" width="36" height="18" rx="3" fill="#E8178A"/><path d="M271.754 318.727H270.308L268.508 319.867V321.231L270.173 320.187H270.216V326H271.754V318.727ZM276.273 326.099C277.893 326.107 278.997 325.045 278.993 323.564C278.997 322.2 278.045 321.217 276.756 321.217C275.957 321.217 275.251 321.6 274.924 322.243H274.874C274.881 320.826 275.378 319.945 276.327 319.945C276.884 319.945 277.285 320.251 277.403 320.759H278.919C278.773 319.562 277.779 318.628 276.327 318.628C274.53 318.628 273.376 320.084 273.368 322.527C273.365 325.19 274.778 326.092 276.273 326.099ZM276.266 324.892C275.556 324.892 275.03 324.32 275.03 323.61C275.034 322.903 275.57 322.328 276.277 322.328C276.987 322.328 277.506 322.886 277.502 323.607C277.506 324.335 276.976 324.892 276.266 324.892ZM280.098 328.045H281.611V325.126H281.657C281.866 325.581 282.324 326.089 283.205 326.089C284.448 326.089 285.417 325.105 285.417 323.28C285.417 321.405 284.405 320.474 283.209 320.474C282.296 320.474 281.859 321.018 281.657 321.462H281.589V320.545H280.098V328.045ZM281.579 323.273C281.579 322.3 281.991 321.678 282.726 321.678C283.475 321.678 283.873 322.328 283.873 323.273C283.873 324.224 283.468 324.885 282.726 324.885C281.998 324.885 281.579 324.246 281.579 323.273ZM287.485 320.545H285.923L287.485 323.273L285.866 326H287.428L288.487 324.114L289.562 326H291.107L289.484 323.273L291.065 320.545H289.513L288.487 322.452L287.485 320.545Z" fill="#fff"/><path d="M288 309H272" stroke="#E8178A"/><rect x="262" y="313" width="36" height="18" rx="3" fill="#E8178A"/><path d="M271.754 318.727H270.308L268.508 319.867V321.231L270.173 320.187H270.216V326H271.754V318.727ZM276.273 326.099C277.893 326.107 278.997 325.045 278.993 323.564C278.997 322.2 278.045 321.217 276.756 321.217C275.957 321.217 275.251 321.6 274.924 322.243H274.874C274.881 320.826 275.378 319.945 276.327 319.945C276.884 319.945 277.285 320.251 277.403 320.759H278.919C278.773 319.562 277.779 318.628 276.327 318.628C274.53 318.628 273.376 320.084 273.368 322.527C273.365 325.19 274.778 326.092 276.273 326.099ZM276.266 324.892C275.556 324.892 275.03 324.32 275.03 323.61C275.034 322.903 275.57 322.328 276.277 322.328C276.987 322.328 277.506 322.886 277.502 323.607C277.506 324.335 276.976 324.892 276.266 324.892ZM280.098 328.045H281.611V325.126H281.657C281.866 325.581 282.324 326.089 283.205 326.089C284.448 326.089 285.417 325.105 285.417 323.28C285.417 321.405 284.405 320.474 283.209 320.474C282.296 320.474 281.859 321.018 281.657 321.462H281.589V320.545H280.098V328.045ZM281.579 323.273C281.579 322.3 281.991 321.678 282.726 321.678C283.475 321.678 283.873 322.328 283.873 323.273C283.873 324.224 283.468 324.885 282.726 324.885C281.998 324.885 281.579 324.246 281.579 323.273ZM287.485 320.545H285.923L287.485 323.273L285.866 326H287.428L288.487 324.114L289.562 326H291.107L289.484 323.273L291.065 320.545H289.513L288.487 322.452L287.485 320.545Z" fill="#fff"/><path d="M288 309H272" stroke="#E8178A"/><rect x="262" y="313" width="36" height="18" rx="3" fill="#E8178A"/><path d="M271.754 318.727H270.308L268.508 319.867V321.231L270.173 320.187H270.216V326H271.754V318.727ZM276.273 326.099C277.893 326.107 278.997 325.045 278.993 323.564C278.997 322.2 278.045 321.217 276.756 321.217C275.957 321.217 275.251 321.6 274.924 322.243H274.874C274.881 320.826 275.378 319.945 276.327 319.945C276.884 319.945 277.285 320.251 277.403 320.759H278.919C278.773 319.562 277.779 318.628 276.327 318.628C274.53 318.628 273.376 320.084 273.368 322.527C273.365 325.19 274.778 326.092 276.273 326.099ZM276.266 324.892C275.556 324.892 275.03 324.32 275.03 323.61C275.034 322.903 275.57 322.328 276.277 322.328C276.987 322.328 277.506 322.886 277.502 323.607C277.506 324.335 276.976 324.892 276.266 324.892ZM280.098 328.045H281.611V325.126H281.657C281.866 325.581 282.324 326.089 283.205 326.089C284.448 326.089 285.417 325.105 285.417 323.28C285.417 321.405 284.405 320.474 283.209 320.474C282.296 320.474 281.859 321.018 281.657 321.462H281.589V320.545H280.098V328.045ZM281.579 323.273C281.579 322.3 281.991 321.678 282.726 321.678C283.475 321.678 283.873 322.328 283.873 323.273C283.873 324.224 283.468 324.885 282.726 324.885C281.998 324.885 281.579 324.246 281.579 323.273ZM287.485 320.545H285.923L287.485 323.273L285.866 326H287.428L288.487 324.114L289.562 326H291.107L289.484 323.273L291.065 320.545H289.513L288.487 322.452L287.485 320.545Z" fill="#fff"/><path d="M288 309H272" stroke="#E8178A"/><rect x="262" y="313" width="36" height="18" rx="3" fill="#E8178A"/><path d="M271.754 318.727H270.308L268.508 319.867V321.231L270.173 320.187H270.216V326H271.754V318.727ZM276.273 326.099C277.893 326.107 278.997 325.045 278.993 323.564C278.997 322.2 278.045 321.217 276.756 321.217C275.957 321.217 275.251 321.6 274.924 322.243H274.874C274.881 320.826 275.378 319.945 276.327 319.945C276.884 319.945 277.285 320.251 277.403 320.759H278.919C278.773 319.562 277.779 318.628 276.327 318.628C274.53 318.628 273.376 320.084 273.368 322.527C273.365 325.19 274.778 326.092 276.273 326.099ZM276.266 324.892C275.556 324.892 275.03 324.32 275.03 323.61C275.034 322.903 275.57 322.328 276.277 322.328C276.987 322.328 277.506 322.886 277.502 323.607C277.506 324.335 276.976 324.892 276.266 324.892ZM280.098 328.045H281.611V325.126H281.657C281.866 325.581 282.324 326.089 283.205 326.089C284.448 326.089 285.417 325.105 285.417 323.28C285.417 321.405 284.405 320.474 283.209 320.474C282.296 320.474 281.859 321.018 281.657 321.462H281.589V320.545H280.098V328.045ZM281.579 323.273C281.579 322.3 281.991 321.678 282.726 321.678C283.475 321.678 283.873 322.328 283.873 323.273C283.873 324.224 283.468 324.885 282.726 324.885C281.998 324.885 281.579 324.246 281.579 323.273ZM287.485 320.545H285.923L287.485 323.273L285.866 326H287.428L288.487 324.114L289.562 326H291.107L289.484 323.273L291.065 320.545H289.513L288.487 322.452L287.485 320.545Z" fill="#fff"/><path d="M296 309H272" stroke="#E8178A"/><rect x="262" y="313" width="37" height="18" rx="3" fill="#E8178A"/><path d="M268.589 326V324.892L271.178 322.495C271.398 322.282 271.583 322.09 271.732 321.92C271.884 321.749 271.999 321.582 272.077 321.419C272.155 321.253 272.194 321.075 272.194 320.883C272.194 320.67 272.145 320.486 272.048 320.332C271.951 320.176 271.819 320.057 271.651 319.974C271.482 319.888 271.292 319.846 271.079 319.846C270.856 319.846 270.662 319.891 270.496 319.981C270.331 320.071 270.203 320.2 270.113 320.368C270.023 320.536 269.978 320.736 269.978 320.968H268.518C268.518 320.492 268.626 320.079 268.842 319.729C269.057 319.378 269.359 319.107 269.747 318.915C270.135 318.724 270.583 318.628 271.089 318.628C271.61 318.628 272.064 318.72 272.45 318.905C272.838 319.087 273.14 319.34 273.355 319.665C273.571 319.989 273.678 320.361 273.678 320.78C273.678 321.054 273.624 321.326 273.515 321.593C273.408 321.861 273.218 322.158 272.943 322.484C272.669 322.809 272.281 323.198 271.782 323.653L270.72 324.693V324.743H273.774V326H268.589ZM274.622 324.722V323.511L277.658 318.727H278.702V320.403H278.084L276.17 323.433V323.489H280.485V324.722H274.622ZM278.113 326V324.352L278.141 323.816V318.727H279.583V326H278.113ZM281.524 328.045V320.545H283.015V321.462H283.083C283.149 321.315 283.245 321.166 283.37 321.014C283.498 320.86 283.664 320.732 283.867 320.631C284.073 320.527 284.329 320.474 284.634 320.474C285.032 320.474 285.399 320.579 285.735 320.787C286.071 320.993 286.34 321.304 286.541 321.721C286.743 322.135 286.843 322.655 286.843 323.28C286.843 323.888 286.745 324.402 286.548 324.821C286.354 325.238 286.089 325.554 285.753 325.769C285.419 325.982 285.045 326.089 284.631 326.089C284.337 326.089 284.088 326.04 283.882 325.943C283.678 325.846 283.511 325.724 283.381 325.577C283.251 325.428 283.151 325.278 283.083 325.126H283.036V328.045H281.524ZM283.004 323.273C283.004 323.597 283.049 323.88 283.139 324.121C283.229 324.363 283.36 324.551 283.53 324.686C283.7 324.819 283.908 324.885 284.151 324.885C284.398 324.885 284.606 324.817 284.776 324.683C284.947 324.545 285.076 324.356 285.164 324.114C285.253 323.871 285.298 323.59 285.298 323.273C285.298 322.958 285.255 322.681 285.167 322.442C285.079 322.203 284.95 322.016 284.78 321.881C284.61 321.746 284.4 321.678 284.151 321.678C283.905 321.678 283.697 321.743 283.526 321.874C283.358 322.004 283.229 322.188 283.139 322.428C283.049 322.667 283.004 322.948 283.004 323.273ZM288.921 320.545L289.922 322.452L290.948 320.545H292.5L290.92 323.273L292.543 326H290.998L289.922 324.114L288.864 326H287.301L288.921 323.273L287.358 320.545H288.921Z" fill="#fff"/><rect x="632.5" y="285.5" width="47" height="47" stroke="#E8178A"/><path d="M460 285V281" stroke="#E8178A"/><rect x="464" y="274" width="31" height="18" rx="3" fill="#E8178A"/><path d="M470.479 285.722V284.511L473.516 279.727H474.56V281.403H473.942L472.028 284.433V284.489H476.342V285.722H470.479ZM473.97 287V285.352L473.999 284.816V279.727H475.44V287H473.97ZM477.381 289.045V281.545H478.873V282.462H478.94C479.006 282.315 479.102 282.166 479.228 282.014C479.355 281.86 479.521 281.732 479.725 281.631C479.931 281.527 480.186 281.474 480.492 281.474C480.89 281.474 481.257 281.579 481.593 281.787C481.929 281.993 482.198 282.304 482.399 282.721C482.6 283.135 482.701 283.655 482.701 284.28C482.701 284.888 482.602 285.402 482.406 285.821C482.212 286.238 481.947 286.554 481.61 286.769C481.277 286.982 480.903 287.089 480.488 287.089C480.195 287.089 479.945 287.04 479.739 286.943C479.535 286.846 479.368 286.724 479.238 286.577C479.108 286.428 479.009 286.278 478.94 286.126H478.894V289.045H477.381ZM478.862 284.273C478.862 284.597 478.907 284.88 478.997 285.121C479.087 285.363 479.217 285.551 479.387 285.686C479.558 285.819 479.765 285.885 480.009 285.885C480.255 285.885 480.463 285.817 480.634 285.683C480.804 285.545 480.933 285.356 481.021 285.114C481.111 284.871 481.156 284.59 481.156 284.273C481.156 283.958 481.112 283.681 481.025 283.442C480.937 283.203 480.808 283.016 480.637 282.881C480.467 282.746 480.257 282.678 480.009 282.678C479.763 282.678 479.554 282.743 479.384 282.874C479.216 283.004 479.087 283.188 478.997 283.428C478.907 283.667 478.862 283.948 478.862 284.273ZM484.778 281.545L485.779 283.452L486.806 281.545H488.358L486.777 284.273L488.4 287H486.855L485.779 285.114L484.721 287H483.159L484.778 284.273L483.216 281.545H484.778Z" fill="#fff"/><path d="M460 285V281" stroke="#E8178A"/><rect x="464" y="274" width="31" height="18" rx="3" fill="#E8178A"/><path d="M470.479 285.722H473.97V287H475.44V285.722H476.342V284.489H475.44V279.727H473.516L470.479 284.511V285.722ZM473.999 284.489H472.028V284.433L473.942 281.403H473.999V284.489ZM477.381 289.045H478.894V286.126H478.94C479.15 286.581 479.608 287.089 480.488 287.089C481.731 287.089 482.701 286.105 482.701 284.28C482.701 282.405 481.689 281.474 480.492 281.474C479.579 281.474 479.142 282.018 478.94 282.462H478.873V281.545H477.381V289.045ZM478.862 284.273C478.862 283.3 479.274 282.678 480.009 282.678C480.758 282.678 481.156 283.328 481.156 284.273C481.156 285.224 480.751 285.885 480.009 285.885C479.281 285.885 478.862 285.246 478.862 284.273ZM484.768 281.545H483.206L484.768 284.273L483.149 287H484.711L485.77 285.114L486.846 287H488.39L486.768 284.273L488.348 281.545H486.796L485.77 283.452L484.768 281.545Z" fill="#fff"/><path d="M460 285V281" stroke="#E8178A"/><rect x="464" y="274" width="31" height="18" rx="3" fill="#E8178A"/><path d="M470.479 285.722V284.511L473.516 279.727H474.56V281.403H473.942L472.028 284.433V284.489H476.342V285.722H470.479ZM473.97 287V285.352L473.999 284.816V279.727H475.44V287H473.97ZM477.381 289.045V281.545H478.873V282.462H478.94C479.006 282.315 479.102 282.166 479.228 282.014C479.355 281.86 479.521 281.732 479.725 281.631C479.931 281.527 480.186 281.474 480.492 281.474C480.89 281.474 481.257 281.579 481.593 281.787C481.929 281.993 482.198 282.304 482.399 282.721C482.6 283.135 482.701 283.655 482.701 284.28C482.701 284.888 482.602 285.402 482.406 285.821C482.212 286.238 481.947 286.554 481.61 286.769C481.277 286.982 480.903 287.089 480.488 287.089C480.195 287.089 479.945 287.04 479.739 286.943C479.535 286.846 479.368 286.724 479.238 286.577C479.108 286.428 479.009 286.278 478.94 286.126H478.894V289.045H477.381ZM478.862 284.273C478.862 284.597 478.907 284.88 478.997 285.121C479.087 285.363 479.217 285.551 479.387 285.686C479.558 285.819 479.765 285.885 480.009 285.885C480.255 285.885 480.463 285.817 480.634 285.683C480.804 285.545 480.933 285.356 481.021 285.114C481.111 284.871 481.156 284.59 481.156 284.273C481.156 283.958 481.112 283.681 481.025 283.442C480.937 283.203 480.808 283.016 480.637 282.881C480.467 282.746 480.257 282.678 480.009 282.678C479.763 282.678 479.554 282.743 479.384 282.874C479.216 283.004 479.087 283.188 478.997 283.428C478.907 283.667 478.862 283.948 478.862 284.273ZM484.778 281.545L485.779 283.452L486.806 281.545H488.358L486.777 284.273L488.4 287H486.855L485.779 285.114L484.721 287H483.159L484.778 284.273L483.216 281.545H484.778Z" fill="#fff"/><path d="M460 285V281" stroke="#E8178A"/><rect x="464" y="274" width="31" height="18" rx="3" fill="#E8178A"/><path d="M470.479 285.722H473.97V287H475.44V285.722H476.342V284.489H475.44V279.727H473.516L470.479 284.511V285.722ZM473.999 284.489H472.028V284.433L473.942 281.403H473.999V284.489ZM477.381 289.045H478.894V286.126H478.94C479.15 286.581 479.608 287.089 480.488 287.089C481.731 287.089 482.701 286.105 482.701 284.28C482.701 282.405 481.689 281.474 480.492 281.474C479.579 281.474 479.142 282.018 478.94 282.462H478.873V281.545H477.381V289.045ZM478.862 284.273C478.862 283.3 479.274 282.678 480.009 282.678C480.758 282.678 481.156 283.328 481.156 284.273C481.156 285.224 480.751 285.885 480.009 285.885C479.281 285.885 478.862 285.246 478.862 284.273ZM484.768 281.545H483.206L484.768 284.273L483.149 287H484.711L485.77 285.114L486.846 287H488.39L486.768 284.273L488.348 281.545H486.796L485.77 283.452L484.768 281.545Z" fill="#fff"/><path d="M460 285V281" stroke="#E8178A"/><rect x="464" y="274" width="31" height="18" rx="3" fill="#E8178A"/><path d="M470.479 285.722V284.511L473.516 279.727H474.56V281.403H473.942L472.028 284.433V284.489H476.342V285.722H470.479ZM473.97 287V285.352L473.999 284.816V279.727H475.44V287H473.97ZM477.381 289.045V281.545H478.873V282.462H478.94C479.006 282.315 479.102 282.166 479.228 282.014C479.355 281.86 479.521 281.732 479.725 281.631C479.931 281.527 480.186 281.474 480.492 281.474C480.89 281.474 481.257 281.579 481.593 281.787C481.929 281.993 482.198 282.304 482.399 282.721C482.6 283.135 482.701 283.655 482.701 284.28C482.701 284.888 482.602 285.402 482.406 285.821C482.212 286.238 481.947 286.554 481.61 286.769C481.277 286.982 480.903 287.089 480.488 287.089C480.195 287.089 479.945 287.04 479.739 286.943C479.535 286.846 479.368 286.724 479.238 286.577C479.108 286.428 479.009 286.278 478.94 286.126H478.894V289.045H477.381ZM478.862 284.273C478.862 284.597 478.907 284.88 478.997 285.121C479.087 285.363 479.217 285.551 479.387 285.686C479.558 285.819 479.765 285.885 480.009 285.885C480.255 285.885 480.463 285.817 480.634 285.683C480.804 285.545 480.933 285.356 481.021 285.114C481.111 284.871 481.156 284.59 481.156 284.273C481.156 283.958 481.112 283.681 481.025 283.442C480.937 283.203 480.808 283.016 480.637 282.881C480.467 282.746 480.257 282.678 480.009 282.678C479.763 282.678 479.554 282.743 479.384 282.874C479.216 283.004 479.087 283.188 478.997 283.428C478.907 283.667 478.862 283.948 478.862 284.273ZM484.778 281.545L485.779 283.452L486.806 281.545H488.358L486.777 284.273L488.4 287H486.855L485.779 285.114L484.721 287H483.159L484.778 284.273L483.216 281.545H484.778Z" fill="#fff"/><path d="M460 285V281" stroke="#E8178A"/><rect x="464" y="274" width="31" height="18" rx="3" fill="#E8178A"/><path d="M470.479 285.722H473.97V287H475.44V285.722H476.342V284.489H475.44V279.727H473.516L470.479 284.511V285.722ZM473.999 284.489H472.028V284.433L473.942 281.403H473.999V284.489ZM477.381 289.045H478.894V286.126H478.94C479.15 286.581 479.608 287.089 480.488 287.089C481.731 287.089 482.701 286.105 482.701 284.28C482.701 282.405 481.689 281.474 480.492 281.474C479.579 281.474 479.142 282.018 478.94 282.462H478.873V281.545H477.381V289.045ZM478.862 284.273C478.862 283.3 479.274 282.678 480.009 282.678C480.758 282.678 481.156 283.328 481.156 284.273C481.156 285.224 480.751 285.885 480.009 285.885C479.281 285.885 478.862 285.246 478.862 284.273ZM484.768 281.545H483.206L484.768 284.273L483.149 287H484.711L485.77 285.114L486.846 287H488.39L486.768 284.273L488.348 281.545H486.796L485.77 283.452L484.768 281.545Z" fill="#fff"/><path d="M460 285V281" stroke="#E8178A"/><rect x="464" y="274" width="31" height="18" rx="3" fill="#E8178A"/><path d="M470.479 285.722V284.511L473.516 279.727H474.56V281.403H473.942L472.028 284.433V284.489H476.342V285.722H470.479ZM473.97 287V285.352L473.999 284.816V279.727H475.44V287H473.97ZM477.381 289.045V281.545H478.873V282.462H478.94C479.006 282.315 479.102 282.166 479.228 282.014C479.355 281.86 479.521 281.732 479.725 281.631C479.931 281.527 480.186 281.474 480.492 281.474C480.89 281.474 481.257 281.579 481.593 281.787C481.929 281.993 482.198 282.304 482.399 282.721C482.6 283.135 482.701 283.655 482.701 284.28C482.701 284.888 482.602 285.402 482.406 285.821C482.212 286.238 481.947 286.554 481.61 286.769C481.277 286.982 480.903 287.089 480.488 287.089C480.195 287.089 479.945 287.04 479.739 286.943C479.535 286.846 479.368 286.724 479.238 286.577C479.108 286.428 479.009 286.278 478.94 286.126H478.894V289.045H477.381ZM478.862 284.273C478.862 284.597 478.907 284.88 478.997 285.121C479.087 285.363 479.217 285.551 479.387 285.686C479.558 285.819 479.765 285.885 480.009 285.885C480.255 285.885 480.463 285.817 480.634 285.683C480.804 285.545 480.933 285.356 481.021 285.114C481.111 284.871 481.156 284.59 481.156 284.273C481.156 283.958 481.112 283.681 481.025 283.442C480.937 283.203 480.808 283.016 480.637 282.881C480.467 282.746 480.257 282.678 480.009 282.678C479.763 282.678 479.554 282.743 479.384 282.874C479.216 283.004 479.087 283.188 478.997 283.428C478.907 283.667 478.862 283.948 478.862 284.273ZM484.778 281.545L485.779 283.452L486.806 281.545H488.358L486.777 284.273L488.4 287H486.855L485.779 285.114L484.721 287H483.159L484.778 284.273L483.216 281.545H484.778Z" fill="#fff"/><path d="M460 285V281" stroke="#E8178A"/><rect x="464" y="274" width="31" height="18" rx="3" fill="#E8178A"/><path d="M470.479 285.722H473.97V287H475.44V285.722H476.342V284.489H475.44V279.727H473.516L470.479 284.511V285.722ZM473.999 284.489H472.028V284.433L473.942 281.403H473.999V284.489ZM477.381 289.045H478.894V286.126H478.94C479.15 286.581 479.608 287.089 480.488 287.089C481.731 287.089 482.701 286.105 482.701 284.28C482.701 282.405 481.689 281.474 480.492 281.474C479.579 281.474 479.142 282.018 478.94 282.462H478.873V281.545H477.381V289.045ZM478.862 284.273C478.862 283.3 479.274 282.678 480.009 282.678C480.758 282.678 481.156 283.328 481.156 284.273C481.156 285.224 480.751 285.885 480.009 285.885C479.281 285.885 478.862 285.246 478.862 284.273ZM484.768 281.545H483.206L484.768 284.273L483.149 287H484.711L485.77 285.114L486.846 287H488.39L486.768 284.273L488.348 281.545H486.796L485.77 283.452L484.768 281.545Z" fill="#fff"/><path d="M460 285V281" stroke="#E8178A"/><rect x="464" y="274" width="31" height="18" rx="3" fill="#E8178A"/><path d="M470.479 285.722V284.511L473.516 279.727H474.56V281.403H473.942L472.028 284.433V284.489H476.342V285.722H470.479ZM473.97 287V285.352L473.999 284.816V279.727H475.44V287H473.97ZM477.381 289.045V281.545H478.873V282.462H478.94C479.006 282.315 479.102 282.166 479.228 282.014C479.355 281.86 479.521 281.732 479.725 281.631C479.931 281.527 480.186 281.474 480.492 281.474C480.89 281.474 481.257 281.579 481.593 281.787C481.929 281.993 482.198 282.304 482.399 282.721C482.6 283.135 482.701 283.655 482.701 284.28C482.701 284.888 482.602 285.402 482.406 285.821C482.212 286.238 481.947 286.554 481.61 286.769C481.277 286.982 480.903 287.089 480.488 287.089C480.195 287.089 479.945 287.04 479.739 286.943C479.535 286.846 479.368 286.724 479.238 286.577C479.108 286.428 479.009 286.278 478.94 286.126H478.894V289.045H477.381ZM478.862 284.273C478.862 284.597 478.907 284.88 478.997 285.121C479.087 285.363 479.217 285.551 479.387 285.686C479.558 285.819 479.765 285.885 480.009 285.885C480.255 285.885 480.463 285.817 480.634 285.683C480.804 285.545 480.933 285.356 481.021 285.114C481.111 284.871 481.156 284.59 481.156 284.273C481.156 283.958 481.112 283.681 481.025 283.442C480.937 283.203 480.808 283.016 480.637 282.881C480.467 282.746 480.257 282.678 480.009 282.678C479.763 282.678 479.554 282.743 479.384 282.874C479.216 283.004 479.087 283.188 478.997 283.428C478.907 283.667 478.862 283.948 478.862 284.273ZM484.778 281.545L485.779 283.452L486.806 281.545H488.358L486.777 284.273L488.4 287H486.855L485.779 285.114L484.721 287H483.159L484.778 284.273L483.216 281.545H484.778Z" fill="#fff"/><path d="M460 285V281" stroke="#E8178A"/><rect x="464" y="274" width="31" height="18" rx="3" fill="#E8178A"/><path d="M470.479 285.722H473.97V287H475.44V285.722H476.342V284.489H475.44V279.727H473.516L470.479 284.511V285.722ZM473.999 284.489H472.028V284.433L473.942 281.403H473.999V284.489ZM477.381 289.045H478.894V286.126H478.94C479.15 286.581 479.608 287.089 480.488 287.089C481.731 287.089 482.701 286.105 482.701 284.28C482.701 282.405 481.689 281.474 480.492 281.474C479.579 281.474 479.142 282.018 478.94 282.462H478.873V281.545H477.381V289.045ZM478.862 284.273C478.862 283.3 479.274 282.678 480.009 282.678C480.758 282.678 481.156 283.328 481.156 284.273C481.156 285.224 480.751 285.885 480.009 285.885C479.281 285.885 478.862 285.246 478.862 284.273ZM484.768 281.545H483.206L484.768 284.273L483.149 287H484.711L485.77 285.114L486.846 287H488.39L486.768 284.273L488.348 281.545H486.796L485.77 283.452L484.768 281.545Z" fill="#fff"/><path d="M460 333V337" stroke="#E8178A"/><rect x="464" y="326" width="31" height="18" rx="3" fill="#E8178A"/><path d="M470.479 337.722V336.511L473.516 331.727H474.56V333.403H473.942L472.028 336.433V336.489H476.342V337.722H470.479ZM473.97 339V337.352L473.999 336.816V331.727H475.44V339H473.97ZM477.381 341.045V333.545H478.873V334.462H478.94C479.006 334.315 479.102 334.166 479.228 334.014C479.355 333.86 479.521 333.732 479.725 333.631C479.931 333.527 480.186 333.474 480.492 333.474C480.89 333.474 481.257 333.579 481.593 333.787C481.929 333.993 482.198 334.304 482.399 334.721C482.6 335.135 482.701 335.655 482.701 336.28C482.701 336.888 482.602 337.402 482.406 337.821C482.212 338.238 481.947 338.554 481.61 338.769C481.277 338.982 480.903 339.089 480.488 339.089C480.195 339.089 479.945 339.04 479.739 338.943C479.535 338.846 479.368 338.724 479.238 338.577C479.108 338.428 479.009 338.278 478.94 338.126H478.894V341.045H477.381ZM478.862 336.273C478.862 336.597 478.907 336.88 478.997 337.121C479.087 337.363 479.217 337.551 479.387 337.686C479.558 337.819 479.765 337.885 480.009 337.885C480.255 337.885 480.463 337.817 480.634 337.683C480.804 337.545 480.933 337.356 481.021 337.114C481.111 336.871 481.156 336.59 481.156 336.273C481.156 335.958 481.112 335.681 481.025 335.442C480.937 335.203 480.808 335.016 480.637 334.881C480.467 334.746 480.257 334.678 480.009 334.678C479.763 334.678 479.554 334.743 479.384 334.874C479.216 335.004 479.087 335.188 478.997 335.428C478.907 335.667 478.862 335.948 478.862 336.273ZM484.778 333.545L485.779 335.452L486.806 333.545H488.358L486.777 336.273L488.4 339H486.855L485.779 337.114L484.721 339H483.159L484.778 336.273L483.216 333.545H484.778Z" fill="#fff"/><path d="M460 333V337" stroke="#E8178A"/><rect x="464" y="326" width="31" height="18" rx="3" fill="#E8178A"/><path d="M470.479 337.722H473.97V339H475.44V337.722H476.342V336.489H475.44V331.727H473.516L470.479 336.511V337.722ZM473.999 336.489H472.028V336.433L473.942 333.403H473.999V336.489ZM477.381 341.045H478.894V338.126H478.94C479.15 338.581 479.608 339.089 480.488 339.089C481.731 339.089 482.701 338.105 482.701 336.28C482.701 334.405 481.689 333.474 480.492 333.474C479.579 333.474 479.142 334.018 478.94 334.462H478.873V333.545H477.381V341.045ZM478.862 336.273C478.862 335.3 479.274 334.678 480.009 334.678C480.758 334.678 481.156 335.328 481.156 336.273C481.156 337.224 480.751 337.885 480.009 337.885C479.281 337.885 478.862 337.246 478.862 336.273ZM484.768 333.545H483.206L484.768 336.273L483.149 339H484.711L485.77 337.114L486.846 339H488.39L486.768 336.273L488.348 333.545H486.796L485.77 335.452L484.768 333.545Z" fill="#fff"/><path d="M460 333V337" stroke="#E8178A"/><rect x="464" y="326" width="31" height="18" rx="3" fill="#E8178A"/><path d="M470.479 337.722V336.511L473.516 331.727H474.56V333.403H473.942L472.028 336.433V336.489H476.342V337.722H470.479ZM473.97 339V337.352L473.999 336.816V331.727H475.44V339H473.97ZM477.381 341.045V333.545H478.873V334.462H478.94C479.006 334.315 479.102 334.166 479.228 334.014C479.355 333.86 479.521 333.732 479.725 333.631C479.931 333.527 480.186 333.474 480.492 333.474C480.89 333.474 481.257 333.579 481.593 333.787C481.929 333.993 482.198 334.304 482.399 334.721C482.6 335.135 482.701 335.655 482.701 336.28C482.701 336.888 482.602 337.402 482.406 337.821C482.212 338.238 481.947 338.554 481.61 338.769C481.277 338.982 480.903 339.089 480.488 339.089C480.195 339.089 479.945 339.04 479.739 338.943C479.535 338.846 479.368 338.724 479.238 338.577C479.108 338.428 479.009 338.278 478.94 338.126H478.894V341.045H477.381ZM478.862 336.273C478.862 336.597 478.907 336.88 478.997 337.121C479.087 337.363 479.217 337.551 479.387 337.686C479.558 337.819 479.765 337.885 480.009 337.885C480.255 337.885 480.463 337.817 480.634 337.683C480.804 337.545 480.933 337.356 481.021 337.114C481.111 336.871 481.156 336.59 481.156 336.273C481.156 335.958 481.112 335.681 481.025 335.442C480.937 335.203 480.808 335.016 480.637 334.881C480.467 334.746 480.257 334.678 480.009 334.678C479.763 334.678 479.554 334.743 479.384 334.874C479.216 335.004 479.087 335.188 478.997 335.428C478.907 335.667 478.862 335.948 478.862 336.273ZM484.778 333.545L485.779 335.452L486.806 333.545H488.358L486.777 336.273L488.4 339H486.855L485.779 337.114L484.721 339H483.159L484.778 336.273L483.216 333.545H484.778Z" fill="#fff"/><path d="M460 333V337" stroke="#E8178A"/><rect x="464" y="326" width="31" height="18" rx="3" fill="#E8178A"/><path d="M470.479 337.722V336.511L473.516 331.727H474.56V333.403H473.942L472.028 336.433V336.489H476.342V337.722H470.479ZM473.97 339V337.352L473.999 336.816V331.727H475.44V339H473.97ZM477.381 341.045V333.545H478.873V334.462H478.94C479.006 334.315 479.102 334.166 479.228 334.014C479.355 333.86 479.521 333.732 479.725 333.631C479.931 333.527 480.186 333.474 480.492 333.474C480.89 333.474 481.257 333.579 481.593 333.787C481.929 333.993 482.198 334.304 482.399 334.721C482.6 335.135 482.701 335.655 482.701 336.28C482.701 336.888 482.602 337.402 482.406 337.821C482.212 338.238 481.947 338.554 481.61 338.769C481.277 338.982 480.903 339.089 480.488 339.089C480.195 339.089 479.945 339.04 479.739 338.943C479.535 338.846 479.368 338.724 479.238 338.577C479.108 338.428 479.009 338.278 478.94 338.126H478.894V341.045H477.381ZM478.862 336.273C478.862 336.597 478.907 336.88 478.997 337.121C479.087 337.363 479.217 337.551 479.387 337.686C479.558 337.819 479.765 337.885 480.009 337.885C480.255 337.885 480.463 337.817 480.634 337.683C480.804 337.545 480.933 337.356 481.021 337.114C481.111 336.871 481.156 336.59 481.156 336.273C481.156 335.958 481.112 335.681 481.025 335.442C480.937 335.203 480.808 335.016 480.637 334.881C480.467 334.746 480.257 334.678 480.009 334.678C479.763 334.678 479.554 334.743 479.384 334.874C479.216 335.004 479.087 335.188 478.997 335.428C478.907 335.667 478.862 335.948 478.862 336.273ZM484.778 333.545L485.779 335.452L486.806 333.545H488.358L486.777 336.273L488.4 339H486.855L485.779 337.114L484.721 339H483.159L484.778 336.273L483.216 333.545H484.778Z" fill="#fff"/><path d="M460 333V337" stroke="#E8178A"/><rect x="464" y="326" width="31" height="18" rx="3" fill="#E8178A"/><path d="M470.479 337.722V336.511L473.516 331.727H474.56V333.403H473.942L472.028 336.433V336.489H476.342V337.722H470.479ZM473.97 339V337.352L473.999 336.816V331.727H475.44V339H473.97ZM477.381 341.045V333.545H478.873V334.462H478.94C479.006 334.315 479.102 334.166 479.228 334.014C479.355 333.86 479.521 333.732 479.725 333.631C479.931 333.527 480.186 333.474 480.492 333.474C480.89 333.474 481.257 333.579 481.593 333.787C481.929 333.993 482.198 334.304 482.399 334.721C482.6 335.135 482.701 335.655 482.701 336.28C482.701 336.888 482.602 337.402 482.406 337.821C482.212 338.238 481.947 338.554 481.61 338.769C481.277 338.982 480.903 339.089 480.488 339.089C480.195 339.089 479.945 339.04 479.739 338.943C479.535 338.846 479.368 338.724 479.238 338.577C479.108 338.428 479.009 338.278 478.94 338.126H478.894V341.045H477.381ZM478.862 336.273C478.862 336.597 478.907 336.88 478.997 337.121C479.087 337.363 479.217 337.551 479.387 337.686C479.558 337.819 479.765 337.885 480.009 337.885C480.255 337.885 480.463 337.817 480.634 337.683C480.804 337.545 480.933 337.356 481.021 337.114C481.111 336.871 481.156 336.59 481.156 336.273C481.156 335.958 481.112 335.681 481.025 335.442C480.937 335.203 480.808 335.016 480.637 334.881C480.467 334.746 480.257 334.678 480.009 334.678C479.763 334.678 479.554 334.743 479.384 334.874C479.216 335.004 479.087 335.188 478.997 335.428C478.907 335.667 478.862 335.948 478.862 336.273ZM484.778 333.545L485.779 335.452L486.806 333.545H488.358L486.777 336.273L488.4 339H486.855L485.779 337.114L484.721 339H483.159L484.778 336.273L483.216 333.545H484.778Z" fill="#fff"/><path d="M460 333V337" stroke="#E8178A"/><rect x="464" y="326" width="31" height="18" rx="3" fill="#E8178A"/><path d="M470.479 337.722H473.97V339H475.44V337.722H476.342V336.489H475.44V331.727H473.516L470.479 336.511V337.722ZM473.999 336.489H472.028V336.433L473.942 333.403H473.999V336.489ZM477.381 341.045H478.894V338.126H478.94C479.15 338.581 479.608 339.089 480.488 339.089C481.731 339.089 482.701 338.105 482.701 336.28C482.701 334.405 481.689 333.474 480.492 333.474C479.579 333.474 479.142 334.018 478.94 334.462H478.873V333.545H477.381V341.045ZM478.862 336.273C478.862 335.3 479.274 334.678 480.009 334.678C480.758 334.678 481.156 335.328 481.156 336.273C481.156 337.224 480.751 337.885 480.009 337.885C479.281 337.885 478.862 337.246 478.862 336.273ZM484.768 333.545H483.206L484.768 336.273L483.149 339H484.711L485.77 337.114L486.846 339H488.39L486.768 336.273L488.348 333.545H486.796L485.77 335.452L484.768 333.545Z" fill="#fff"/><path d="M460 333V337" stroke="#E8178A"/><rect x="464" y="326" width="31" height="18" rx="3" fill="#E8178A"/><path d="M470.479 337.722V336.511L473.516 331.727H474.56V333.403H473.942L472.028 336.433V336.489H476.342V337.722H470.479ZM473.97 339V337.352L473.999 336.816V331.727H475.44V339H473.97ZM477.381 341.045V333.545H478.873V334.462H478.94C479.006 334.315 479.102 334.166 479.228 334.014C479.355 333.86 479.521 333.732 479.725 333.631C479.931 333.527 480.186 333.474 480.492 333.474C480.89 333.474 481.257 333.579 481.593 333.787C481.929 333.993 482.198 334.304 482.399 334.721C482.6 335.135 482.701 335.655 482.701 336.28C482.701 336.888 482.602 337.402 482.406 337.821C482.212 338.238 481.947 338.554 481.61 338.769C481.277 338.982 480.903 339.089 480.488 339.089C480.195 339.089 479.945 339.04 479.739 338.943C479.535 338.846 479.368 338.724 479.238 338.577C479.108 338.428 479.009 338.278 478.94 338.126H478.894V341.045H477.381ZM478.862 336.273C478.862 336.597 478.907 336.88 478.997 337.121C479.087 337.363 479.217 337.551 479.387 337.686C479.558 337.819 479.765 337.885 480.009 337.885C480.255 337.885 480.463 337.817 480.634 337.683C480.804 337.545 480.933 337.356 481.021 337.114C481.111 336.871 481.156 336.59 481.156 336.273C481.156 335.958 481.112 335.681 481.025 335.442C480.937 335.203 480.808 335.016 480.637 334.881C480.467 334.746 480.257 334.678 480.009 334.678C479.763 334.678 479.554 334.743 479.384 334.874C479.216 335.004 479.087 335.188 478.997 335.428C478.907 335.667 478.862 335.948 478.862 336.273ZM484.778 333.545L485.779 335.452L486.806 333.545H488.358L486.777 336.273L488.4 339H486.855L485.779 337.114L484.721 339H483.159L484.778 336.273L483.216 333.545H484.778Z" fill="#fff"/><path d="M460 333V337" stroke="#E8178A"/><rect x="464" y="326" width="31" height="18" rx="3" fill="#E8178A"/><path d="M470.479 337.722H473.97V339H475.44V337.722H476.342V336.489H475.44V331.727H473.516L470.479 336.511V337.722ZM473.999 336.489H472.028V336.433L473.942 333.403H473.999V336.489ZM477.381 341.045H478.894V338.126H478.94C479.15 338.581 479.608 339.089 480.488 339.089C481.731 339.089 482.701 338.105 482.701 336.28C482.701 334.405 481.689 333.474 480.492 333.474C479.579 333.474 479.142 334.018 478.94 334.462H478.873V333.545H477.381V341.045ZM478.862 336.273C478.862 335.3 479.274 334.678 480.009 334.678C480.758 334.678 481.156 335.328 481.156 336.273C481.156 337.224 480.751 337.885 480.009 337.885C479.281 337.885 478.862 337.246 478.862 336.273ZM484.768 333.545H483.206L484.768 336.273L483.149 339H484.711L485.77 337.114L486.846 339H488.39L486.768 336.273L488.348 333.545H486.796L485.77 335.452L484.768 333.545Z" fill="#fff"/><path d="M460 333V337" stroke="#E8178A"/><rect x="464" y="326" width="31" height="18" rx="3" fill="#E8178A"/><path d="M470.479 337.722V336.511L473.516 331.727H474.56V333.403H473.942L472.028 336.433V336.489H476.342V337.722H470.479ZM473.97 339V337.352L473.999 336.816V331.727H475.44V339H473.97ZM477.381 341.045V333.545H478.873V334.462H478.94C479.006 334.315 479.102 334.166 479.228 334.014C479.355 333.86 479.521 333.732 479.725 333.631C479.931 333.527 480.186 333.474 480.492 333.474C480.89 333.474 481.257 333.579 481.593 333.787C481.929 333.993 482.198 334.304 482.399 334.721C482.6 335.135 482.701 335.655 482.701 336.28C482.701 336.888 482.602 337.402 482.406 337.821C482.212 338.238 481.947 338.554 481.61 338.769C481.277 338.982 480.903 339.089 480.488 339.089C480.195 339.089 479.945 339.04 479.739 338.943C479.535 338.846 479.368 338.724 479.238 338.577C479.108 338.428 479.009 338.278 478.94 338.126H478.894V341.045H477.381ZM478.862 336.273C478.862 336.597 478.907 336.88 478.997 337.121C479.087 337.363 479.217 337.551 479.387 337.686C479.558 337.819 479.765 337.885 480.009 337.885C480.255 337.885 480.463 337.817 480.634 337.683C480.804 337.545 480.933 337.356 481.021 337.114C481.111 336.871 481.156 336.59 481.156 336.273C481.156 335.958 481.112 335.681 481.025 335.442C480.937 335.203 480.808 335.016 480.637 334.881C480.467 334.746 480.257 334.678 480.009 334.678C479.763 334.678 479.554 334.743 479.384 334.874C479.216 335.004 479.087 335.188 478.997 335.428C478.907 335.667 478.862 335.948 478.862 336.273ZM484.778 333.545L485.779 335.452L486.806 333.545H488.358L486.777 336.273L488.4 339H486.855L485.779 337.114L484.721 339H483.159L484.778 336.273L483.216 333.545H484.778Z" fill="#fff"/><path d="M460 333V337" stroke="#E8178A"/><rect x="464" y="326" width="31" height="18" rx="3" fill="#E8178A"/><path d="M470.479 337.722V336.511L473.516 331.727H474.56V333.403H473.942L472.028 336.433V336.489H476.342V337.722H470.479ZM473.97 339V337.352L473.999 336.816V331.727H475.44V339H473.97ZM477.381 341.045V333.545H478.873V334.462H478.94C479.006 334.315 479.102 334.166 479.228 334.014C479.355 333.86 479.521 333.732 479.725 333.631C479.931 333.527 480.186 333.474 480.492 333.474C480.89 333.474 481.257 333.579 481.593 333.787C481.929 333.993 482.198 334.304 482.399 334.721C482.6 335.135 482.701 335.655 482.701 336.28C482.701 336.888 482.602 337.402 482.406 337.821C482.212 338.238 481.947 338.554 481.61 338.769C481.277 338.982 480.903 339.089 480.488 339.089C480.195 339.089 479.945 339.04 479.739 338.943C479.535 338.846 479.368 338.724 479.238 338.577C479.108 338.428 479.009 338.278 478.94 338.126H478.894V341.045H477.381ZM478.862 336.273C478.862 336.597 478.907 336.88 478.997 337.121C479.087 337.363 479.217 337.551 479.387 337.686C479.558 337.819 479.765 337.885 480.009 337.885C480.255 337.885 480.463 337.817 480.634 337.683C480.804 337.545 480.933 337.356 481.021 337.114C481.111 336.871 481.156 336.59 481.156 336.273C481.156 335.958 481.112 335.681 481.025 335.442C480.937 335.203 480.808 335.016 480.637 334.881C480.467 334.746 480.257 334.678 480.009 334.678C479.763 334.678 479.554 334.743 479.384 334.874C479.216 335.004 479.087 335.188 478.997 335.428C478.907 335.667 478.862 335.948 478.862 336.273ZM484.778 333.545L485.779 335.452L486.806 333.545H488.358L486.777 336.273L488.4 339H486.855L485.779 337.114L484.721 339H483.159L484.778 336.273L483.216 333.545H484.778Z" fill="#fff"/><path d="M680 309H688" stroke="#E8178A"/><rect x="668.5" y="313" width="31" height="18" rx="3" fill="#E8178A"/><path d="M677.803 326.099C677.256 326.099 676.769 326.011 676.343 325.833C675.919 325.653 675.587 325.408 675.345 325.098C675.104 324.788 674.983 324.436 674.983 324.043C674.983 323.74 675.052 323.462 675.189 323.209C675.329 322.953 675.518 322.741 675.757 322.573C675.996 322.403 676.264 322.294 676.56 322.246V322.197C676.171 322.119 675.857 321.93 675.615 321.632C675.374 321.331 675.253 320.982 675.253 320.585C675.253 320.208 675.363 319.873 675.583 319.58C675.803 319.284 676.105 319.052 676.489 318.884C676.875 318.713 677.312 318.628 677.803 318.628C678.293 318.628 678.729 318.713 679.113 318.884C679.499 319.054 679.802 319.287 680.022 319.583C680.242 319.877 680.353 320.21 680.356 320.585C680.353 320.985 680.23 321.334 679.987 321.632C679.743 321.93 679.43 322.119 679.049 322.197V322.246C679.34 322.294 679.604 322.403 679.841 322.573C680.08 322.741 680.269 322.953 680.409 323.209C680.551 323.462 680.623 323.74 680.626 324.043C680.623 324.436 680.501 324.788 680.26 325.098C680.018 325.408 679.685 325.653 679.259 325.833C678.835 326.011 678.349 326.099 677.803 326.099ZM677.803 324.97C678.046 324.97 678.259 324.926 678.442 324.839C678.624 324.749 678.766 324.626 678.868 324.469C678.972 324.311 679.024 324.129 679.024 323.923C679.024 323.712 678.971 323.526 678.864 323.365C678.758 323.202 678.613 323.074 678.431 322.982C678.249 322.887 678.039 322.839 677.803 322.839C677.568 322.839 677.359 322.887 677.174 322.982C676.989 323.074 676.844 323.202 676.737 323.365C676.633 323.526 676.581 323.712 676.581 323.923C676.581 324.129 676.632 324.311 676.734 324.469C676.835 324.626 676.979 324.749 677.163 324.839C677.348 324.926 677.561 324.97 677.803 324.97ZM677.803 321.721C678.006 321.721 678.187 321.679 678.346 321.597C678.504 321.514 678.629 321.399 678.719 321.252C678.809 321.105 678.854 320.936 678.854 320.744C678.854 320.555 678.809 320.389 678.719 320.247C678.629 320.103 678.506 319.99 678.349 319.91C678.193 319.827 678.011 319.786 677.803 319.786C677.597 319.786 677.414 319.827 677.256 319.91C677.097 319.99 676.973 320.103 676.883 320.247C676.795 320.389 676.751 320.555 676.751 320.744C676.751 320.936 676.796 321.105 676.886 321.252C676.976 321.399 677.101 321.514 677.259 321.597C677.418 321.679 677.599 321.721 677.803 321.721ZM681.715 328.045V320.545H683.206V321.462H683.274C683.34 321.315 683.436 321.166 683.562 321.014C683.689 320.86 683.855 320.732 684.059 320.631C684.265 320.527 684.52 320.474 684.826 320.474C685.224 320.474 685.59 320.579 685.927 320.787C686.263 320.993 686.532 321.304 686.733 321.721C686.934 322.135 687.035 322.655 687.035 323.28C687.035 323.888 686.936 324.402 686.74 324.821C686.546 325.238 686.281 325.554 685.944 325.769C685.611 325.982 685.237 326.089 684.822 326.089C684.529 326.089 684.279 326.04 684.073 325.943C683.869 325.846 683.702 325.724 683.572 325.577C683.442 325.428 683.343 325.278 683.274 325.126H683.228V328.045H681.715ZM683.196 323.273C683.196 323.597 683.241 323.88 683.331 324.121C683.421 324.363 683.551 324.551 683.721 324.686C683.892 324.819 684.099 324.885 684.343 324.885C684.589 324.885 684.797 324.817 684.968 324.683C685.138 324.545 685.267 324.356 685.355 324.114C685.445 323.871 685.49 323.59 685.49 323.273C685.49 322.958 685.446 322.681 685.358 322.442C685.271 322.203 685.142 322.016 684.971 321.881C684.801 321.746 684.591 321.678 684.343 321.678C684.097 321.678 683.888 321.743 683.718 321.874C683.55 322.004 683.421 322.188 683.331 322.428C683.241 322.667 683.196 322.948 683.196 323.273ZM689.112 320.545L690.113 322.452L691.14 320.545H692.692L691.111 323.273L692.734 326H691.189L690.113 324.114L689.055 326H687.493L689.112 323.273L687.55 320.545H689.112Z" fill="#fff"/></g><defs><filter id="filter0_d_210_32882" x="109.833" y="98.5" width="99" height="72.5" filterUnits="userSpaceOnUse" color-interpolation-filters="sRGB"><feFlood flood-opacity="0" result="BackgroundImageFix"/><feColorMatrix in="SourceAlpha" type="matrix" values="0 0 0 0 0 0 0 0 0 0 0 0 0 0 0 0 0 0 127 0" result="hardAlpha"/><feOffset dy="2"/><feGaussianBlur stdDeviation="2"/><feColorMatrix type="matrix" values="0 0 0 0 0 0 0 0 0 0 0 0 0 0 0 0 0 0 0.1 0"/><feBlend mode="normal" in2="BackgroundImageFix" result="effect1_dropShadow_210_32882"/><feBlend mode="normal" in="SourceGraphic" in2="effect1_dropShadow_210_32882" result="shape"/></filter><filter id="filter1_d_210_32882" x="427.5" y="79.75" width="105" height="76" filterUnits="userSpaceOnUse" color-interpolation-filters="sRGB"><feFlood flood-opacity="0" result="BackgroundImageFix"/><feColorMatrix in="SourceAlpha" type="matrix" values="0 0 0 0 0 0 0 0 0 0 0 0 0 0 0 0 0 0 127 0" result="hardAlpha"/><feOffset dy="2"/><feGaussianBlur stdDeviation="2"/><feColorMatrix type="matrix" values="0 0 0 0 0 0 0 0 0 0 0 0 0 0 0 0 0 0 0.1 0"/><feBlend mode="normal" in2="BackgroundImageFix" result="effect1_dropShadow_210_32882"/><feBlend mode="normal" in="SourceGraphic" in2="effect1_dropShadow_210_32882" result="shape"/></filter><filter id="filter2_d_210_32882" x="262" y="271" width="436" height="76" filterUnits="userSpaceOnUse" color-interpolation-filters="sRGB"><feFlood flood-opacity="0" result="BackgroundImageFix"/><feColorMatrix in="SourceAlpha" type="matrix" values="0 0 0 0 0 0 0 0 0 0 0 0 0 0 0 0 0 0 127 0" result="hardAlpha"/><feOffset/><feGaussianBlur stdDeviation="5"/><feColorMatrix type="matrix" values="0 0 0 0 0.145098 0 0 0 0 0.164706 0 0 0 0 0.180392 0 0 0 0.2 0"/><feBlend mode="normal" in2="BackgroundImageFix" result="effect1_dropShadow_210_32882"/><feBlend mode="normal" in="SourceGraphic" in2="effect1_dropShadow_210_32882" result="shape"/></filter><clipPath id="clip0_210_32882"><rect width="960" height="205" fill="#fff"/></clipPath><clipPath id="clip1_210_32882"><rect width="5.5" height="11" fill="#fff" transform="translate(164.833 100.5) rotate(90)"/></clipPath><clipPath id="clip2_210_32882"><rect width="5.5" height="11" fill="#fff" transform="translate(485.5 81.75) rotate(90)"/></clipPath><clipPath id="clip3_210_32882"><rect width="960" height="176" fill="#fff" transform="translate(0 221)"/></clipPath></defs></svg>