<svg width="960" height="178" viewBox="0 0 960 178" fill="none" xmlns="http://www.w3.org/2000/svg">
<g clip-path="url(#clip0_259_59842)">
<g clip-path="url(#clip1_259_59842)">
<rect width="318.667" height="178.5" fill="#252A2E"/>
<path d="M170.5 70.875L147.5 70.875" stroke="#E8178A"/>
<line x1="170.334" y1="67.5" x2="170.334" y2="74.5" stroke="#E8178A"/>
<line x1="147" y1="67.5" x2="147" y2="74.5" stroke="#E8178A"/>
<path d="M174.375 77L174.375 100" stroke="#E8178A"/>
<line x1="171" y1="77.1665" x2="178" y2="77.1665" stroke="#E8178A"/>
<line x1="171" y1="100.5" x2="178" y2="100.5" stroke="#E8178A"/>
<rect x="141" y="43" width="37" height="18" rx="3" fill="#E8178A"/>
<path d="M147.589 56V54.892L150.178 52.495C150.398 52.282 150.583 52.0902 150.732 51.9197C150.884 51.7493 150.999 51.5824 151.077 51.419C151.155 51.2533 151.194 51.0746 151.194 50.8828C151.194 50.6697 151.145 50.4863 151.048 50.3324C150.951 50.1761 150.819 50.0566 150.651 49.9737C150.482 49.8885 150.292 49.8459 150.079 49.8459C149.856 49.8459 149.662 49.8909 149.496 49.9808C149.331 50.0708 149.203 50.1998 149.113 50.3679C149.023 50.536 148.978 50.736 148.978 50.968H147.518C147.518 50.4922 147.626 50.0791 147.842 49.7287C148.057 49.3783 148.359 49.1072 148.747 48.9155C149.135 48.7237 149.583 48.6278 150.089 48.6278C150.61 48.6278 151.064 48.7202 151.45 48.9048C151.838 49.0871 152.14 49.3404 152.355 49.6648C152.571 49.9891 152.678 50.3608 152.678 50.7798C152.678 51.0545 152.624 51.3255 152.515 51.593C152.408 51.8606 152.218 52.1577 151.943 52.4844C151.669 52.8087 151.281 53.1982 150.782 53.6527L149.72 54.6932V54.7429H152.774V56H147.589ZM153.622 54.7216V53.5107L156.658 48.7273H157.702V50.4034H157.084L155.17 53.4325V53.4893H159.485V54.7216H153.622ZM157.113 56V54.3523L157.141 53.8161V48.7273H158.583V56H157.113ZM160.524 58.0455V50.5455H162.015V51.4616H162.083C162.149 51.3149 162.245 51.1657 162.37 51.0142C162.498 50.8603 162.664 50.7325 162.867 50.6307C163.073 50.5265 163.329 50.4744 163.634 50.4744C164.032 50.4744 164.399 50.5786 164.735 50.7869C165.071 50.9929 165.34 51.3042 165.541 51.7209C165.743 52.1352 165.843 52.6548 165.843 53.2798C165.843 53.8883 165.745 54.402 165.548 54.821C165.354 55.2377 165.089 55.5537 164.753 55.7692C164.419 55.9822 164.045 56.0888 163.631 56.0888C163.337 56.0888 163.088 56.0402 162.882 55.9432C162.678 55.8461 162.511 55.7242 162.381 55.5774C162.251 55.4283 162.151 55.2779 162.083 55.1264H162.036V58.0455H160.524ZM162.004 53.2727C162.004 53.5971 162.049 53.88 162.139 54.1214C162.229 54.3629 162.36 54.5511 162.53 54.6861C162.7 54.8187 162.908 54.8849 163.151 54.8849C163.398 54.8849 163.606 54.8175 163.776 54.6825C163.947 54.5452 164.076 54.3558 164.164 54.1143C164.253 53.8705 164.298 53.59 164.298 53.2727C164.298 52.9579 164.255 52.6809 164.167 52.4418C164.079 52.2027 163.95 52.0156 163.78 51.8807C163.61 51.7457 163.4 51.6783 163.151 51.6783C162.905 51.6783 162.697 51.7434 162.526 51.8736C162.358 52.0038 162.229 52.1884 162.139 52.4276C162.049 52.6667 162.004 52.9484 162.004 53.2727ZM167.921 50.5455L168.922 52.4524L169.948 50.5455H171.5L169.92 53.2727L171.543 56H169.998L168.922 54.1143L167.864 56H166.301L167.921 53.2727L166.358 50.5455H167.921Z" fill="white"/>
<rect x="185" y="80" width="37" height="18" rx="3" fill="#E8178A"/>
<path d="M191.589 93V91.892L194.178 89.495C194.398 89.282 194.583 89.0902 194.732 88.9197C194.884 88.7493 194.999 88.5824 195.077 88.419C195.155 88.2533 195.194 88.0746 195.194 87.8828C195.194 87.6697 195.145 87.4863 195.048 87.3324C194.951 87.1761 194.819 87.0566 194.651 86.9737C194.482 86.8885 194.292 86.8459 194.079 86.8459C193.856 86.8459 193.662 86.8909 193.496 86.9808C193.331 87.0708 193.203 87.1998 193.113 87.3679C193.023 87.536 192.978 87.736 192.978 87.968H191.518C191.518 87.4922 191.626 87.0791 191.842 86.7287C192.057 86.3783 192.359 86.1072 192.747 85.9155C193.135 85.7237 193.583 85.6278 194.089 85.6278C194.61 85.6278 195.064 85.7202 195.45 85.9048C195.838 86.0871 196.14 86.3404 196.355 86.6648C196.571 86.9891 196.678 87.3608 196.678 87.7798C196.678 88.0545 196.624 88.3255 196.515 88.593C196.408 88.8606 196.218 89.1577 195.943 89.4844C195.669 89.8087 195.281 90.1982 194.782 90.6527L193.72 91.6932V91.7429H196.774V93H191.589ZM197.622 91.7216V90.5107L200.658 85.7273H201.702V87.4034H201.084L199.17 90.4325V90.4893H203.485V91.7216H197.622ZM201.113 93V91.3523L201.141 90.8161V85.7273H202.583V93H201.113ZM204.524 95.0455V87.5455H206.015V88.4616H206.083C206.149 88.3149 206.245 88.1657 206.37 88.0142C206.498 87.8603 206.664 87.7325 206.867 87.6307C207.073 87.5265 207.329 87.4744 207.634 87.4744C208.032 87.4744 208.399 87.5786 208.735 87.7869C209.071 87.9929 209.34 88.3042 209.541 88.7209C209.743 89.1352 209.843 89.6548 209.843 90.2798C209.843 90.8883 209.745 91.402 209.548 91.821C209.354 92.2377 209.089 92.5537 208.753 92.7692C208.419 92.9822 208.045 93.0888 207.631 93.0888C207.337 93.0888 207.088 93.0402 206.882 92.9432C206.678 92.8461 206.511 92.7242 206.381 92.5774C206.251 92.4283 206.151 92.2779 206.083 92.1264H206.036V95.0455H204.524ZM206.004 90.2727C206.004 90.5971 206.049 90.88 206.139 91.1214C206.229 91.3629 206.36 91.5511 206.53 91.6861C206.7 91.8187 206.908 91.8849 207.151 91.8849C207.398 91.8849 207.606 91.8175 207.776 91.6825C207.947 91.5452 208.076 91.3558 208.164 91.1143C208.253 90.8705 208.298 90.59 208.298 90.2727C208.298 89.9579 208.255 89.6809 208.167 89.4418C208.079 89.2027 207.95 89.0156 207.78 88.8807C207.61 88.7457 207.4 88.6783 207.151 88.6783C206.905 88.6783 206.697 88.7434 206.526 88.8736C206.358 89.0038 206.229 89.1884 206.139 89.4276C206.049 89.6667 206.004 89.9484 206.004 90.2727ZM211.921 87.5455L212.922 89.4524L213.948 87.5455H215.5L213.92 90.2727L215.543 93H213.998L212.922 91.1143L211.864 93H210.301L211.921 90.2727L210.358 87.5455H211.921Z" fill="white"/>
<path d="M152 79.75C151.558 79.75 151.138 79.8378 150.756 79.9963C150.374 80.155 149.935 79.9734 149.776 79.5908C149.617 79.2082 149.799 78.7694 150.182 78.6107C150.743 78.378 151.357 78.25 152 78.25H153.5C153.914 78.25 154.25 78.5858 154.25 79C154.25 79.4142 153.914 79.75 153.5 79.75H152Z" fill="#019AEB"/>
<path d="M155.75 79C155.75 78.5858 156.086 78.25 156.5 78.25H159.5C159.914 78.25 160.25 78.5858 160.25 79C160.25 79.4142 159.914 79.75 159.5 79.75H156.5C156.086 79.75 155.75 79.4142 155.75 79Z" fill="#019AEB"/>
<path d="M161.75 79C161.75 78.5858 162.086 78.25 162.5 78.25H164C164.643 78.25 165.257 78.378 165.818 78.6107C166.201 78.7694 166.383 79.2082 166.224 79.5908C166.065 79.9734 165.626 80.155 165.244 79.9963C164.862 79.8378 164.442 79.75 164 79.75H162.5C162.086 79.75 161.75 79.4142 161.75 79Z" fill="#019AEB"/>
<path d="M148.591 80.7761C148.973 80.9347 149.155 81.3735 148.996 81.7561C148.838 82.1383 148.75 82.5579 148.75 83V84.5C148.75 84.9142 148.414 85.25 148 85.25C147.586 85.25 147.25 84.9142 147.25 84.5V83C147.25 82.3573 147.378 81.7427 147.611 81.1816C147.769 80.7989 148.208 80.6174 148.591 80.7761Z" fill="#019AEB"/>
<path d="M167.409 80.7761C167.792 80.6174 168.231 80.7989 168.389 81.1816C168.622 81.7427 168.75 82.3573 168.75 83V84.5C168.75 84.9142 168.414 85.25 168 85.25C167.586 85.25 167.25 84.9142 167.25 84.5V83C167.25 82.5579 167.162 82.1383 167.004 81.7561C166.845 81.3735 167.027 80.9347 167.409 80.7761Z" fill="#019AEB"/>
<path d="M148 86.75C148.414 86.75 148.75 87.0858 148.75 87.5V90.5C148.75 90.9142 148.414 91.25 148 91.25C147.586 91.25 147.25 90.9142 147.25 90.5V87.5C147.25 87.0858 147.586 86.75 148 86.75Z" fill="#019AEB"/>
<path d="M168 86.75C168.414 86.75 168.75 87.0858 168.75 87.5V90.5C168.75 90.9142 168.414 91.25 168 91.25C167.586 91.25 167.25 90.9142 167.25 90.5V87.5C167.25 87.0858 167.586 86.75 168 86.75Z" fill="#019AEB"/>
<path d="M148 92.75C148.414 92.75 148.75 93.0858 148.75 93.5V95C148.75 95.4421 148.838 95.8617 148.996 96.2439C149.155 96.6265 148.973 97.0653 148.591 97.2239C148.208 97.3826 147.769 97.2011 147.611 96.8184C147.378 96.2573 147.25 95.6427 147.25 95V93.5C147.25 93.0858 147.586 92.75 148 92.75Z" fill="#019AEB"/>
<path d="M168 92.75C168.414 92.75 168.75 93.0858 168.75 93.5V95C168.75 95.6427 168.622 96.2573 168.389 96.8184C168.231 97.2011 167.792 97.3826 167.409 97.2239C167.027 97.0653 166.845 96.6265 167.004 96.2439C167.162 95.8617 167.25 95.4421 167.25 95V93.5C167.25 93.0858 167.586 92.75 168 92.75Z" fill="#019AEB"/>
<path d="M149.776 98.4092C149.935 98.0266 150.374 97.845 150.756 98.0037C151.138 98.1622 151.558 98.25 152 98.25H153.5C153.914 98.25 154.25 98.5858 154.25 99C154.25 99.4142 153.914 99.75 153.5 99.75H152C151.357 99.75 150.743 99.622 150.182 99.3893C149.799 99.2306 149.617 98.7918 149.776 98.4092Z" fill="#019AEB"/>
<path d="M166.224 98.4092C166.383 98.7918 166.201 99.2306 165.818 99.3893C165.257 99.622 164.643 99.75 164 99.75H162.5C162.086 99.75 161.75 99.4142 161.75 99C161.75 98.5858 162.086 98.25 162.5 98.25H164C164.442 98.25 164.862 98.1622 165.244 98.0037C165.626 97.845 166.065 98.0266 166.224 98.4092Z" fill="#019AEB"/>
<path d="M155.75 99C155.75 98.5858 156.086 98.25 156.5 98.25H159.5C159.914 98.25 160.25 98.5858 160.25 99C160.25 99.4142 159.914 99.75 159.5 99.75H156.5C156.086 99.75 155.75 99.4142 155.75 99Z" fill="#019AEB"/>
<path d="M166.53 81.591C166.823 81.2981 166.823 80.8232 166.53 80.5303C166.237 80.2374 165.763 80.2374 165.47 80.5303L164.473 81.5265C164.181 81.8194 164.181 82.2943 164.473 82.5872C164.766 82.8801 165.241 82.8801 165.534 82.5872L166.53 81.591Z" fill="#019AEB"/>
<path d="M163.542 84.5796C163.835 84.2867 163.835 83.8118 163.542 83.519C163.249 83.2261 162.774 83.2261 162.481 83.519L160.489 85.5114C160.196 85.8043 160.196 86.2791 160.489 86.572C160.782 86.8649 161.256 86.8649 161.549 86.572L163.542 84.5796Z" fill="#019AEB"/>
<path d="M159.557 88.5645C159.85 88.2716 159.85 87.7967 159.557 87.5038C159.264 87.2109 158.789 87.2109 158.496 87.5038L158 88L157.504 87.5038C157.211 87.2109 156.736 87.2109 156.443 87.5038C156.15 87.7967 156.15 88.2716 156.443 88.5645L156.939 89.0607L156.504 89.4962C156.211 89.7891 156.211 90.264 156.504 90.5569C156.797 90.8498 157.272 90.8498 157.564 90.5569L158 90.1213L158.436 90.5569C158.728 90.8498 159.203 90.8498 159.496 90.5569C159.789 90.264 159.789 89.7891 159.496 89.4962L159.061 89.0607L159.557 88.5645Z" fill="#019AEB"/>
<path d="M155.572 92.5493C155.865 92.2564 155.865 91.7815 155.572 91.4886C155.279 91.1957 154.804 91.1957 154.511 91.4886L152.519 93.481C152.226 93.7739 152.226 94.2488 152.519 94.5417C152.812 94.8346 153.287 94.8346 153.58 94.5417L155.572 92.5493Z" fill="#019AEB"/>
<path d="M151.587 96.5341C151.88 96.2412 151.88 95.7664 151.587 95.4735C151.294 95.1806 150.819 95.1806 150.527 95.4735L149.53 96.4697C149.237 96.7626 149.237 97.2374 149.53 97.5303C149.823 97.8232 150.298 97.8232 150.591 97.5303L151.587 96.5341Z" fill="#019AEB"/>
<path d="M165.409 97.5303C165.702 97.8232 166.177 97.8232 166.47 97.5303C166.763 97.2374 166.763 96.7626 166.47 96.4697L165.473 95.4735C165.181 95.1806 164.706 95.1806 164.413 95.4735C164.12 95.7664 164.12 96.2412 164.413 96.5341L165.409 97.5303Z" fill="#019AEB"/>
<path d="M162.42 94.5417C162.713 94.8346 163.188 94.8346 163.481 94.5417C163.774 94.2488 163.774 93.7739 163.481 93.481L161.489 91.4886C161.196 91.1957 160.721 91.1957 160.428 91.4886C160.135 91.7815 160.135 92.2564 160.428 92.5493L162.42 94.5417Z" fill="#019AEB"/>
<path d="M154.451 86.572C154.744 86.8649 155.218 86.8649 155.511 86.572C155.804 86.2791 155.804 85.8043 155.511 85.5114L153.519 83.519C153.226 83.2261 152.751 83.2261 152.458 83.519C152.165 83.8118 152.165 84.2867 152.458 84.5796L154.451 86.572Z" fill="#019AEB"/>
<path d="M150.466 82.5872C150.759 82.8801 151.234 82.8801 151.527 82.5872C151.819 82.2943 151.819 81.8194 151.527 81.5265L150.53 80.5303C150.237 80.2374 149.763 80.2374 149.47 80.5303C149.177 80.8232 149.177 81.2981 149.47 81.591L150.466 82.5872Z" fill="#019AEB"/>
<path d="M155.056 83.889C155.354 83.7988 155.671 83.75 156 83.75H156.75C157.164 83.75 157.5 83.4142 157.5 83C157.5 82.5858 157.164 82.25 156.75 82.25H156C155.522 82.25 155.058 82.321 154.621 82.4535C154.225 82.5736 154.001 82.9923 154.121 83.3887C154.241 83.7851 154.66 84.0091 155.056 83.889Z" fill="#019AEB"/>
<path d="M159.25 82.25C158.836 82.25 158.5 82.5858 158.5 83C158.5 83.4142 158.836 83.75 159.25 83.75H160C160.329 83.75 160.646 83.7988 160.944 83.889C161.34 84.0091 161.759 83.7851 161.879 83.3887C161.999 82.9923 161.775 82.5736 161.379 82.4535C160.942 82.321 160.478 82.25 160 82.25H159.25Z" fill="#019AEB"/>
<path d="M152.889 86.0559C153.009 85.6595 152.785 85.2408 152.389 85.1207C151.992 85.0006 151.574 85.2246 151.453 85.621C151.321 86.0583 151.25 86.5216 151.25 87V87.75C151.25 88.1642 151.586 88.5 152 88.5C152.414 88.5 152.75 88.1642 152.75 87.75V87C152.75 86.6705 152.799 86.3538 152.889 86.0559Z" fill="#019AEB"/>
<path d="M164.547 85.621C164.426 85.2246 164.008 85.0006 163.611 85.1207C163.215 85.2408 162.991 85.6595 163.111 86.0559C163.201 86.3538 163.25 86.6705 163.25 87V87.75C163.25 88.1642 163.586 88.5 164 88.5C164.414 88.5 164.75 88.1642 164.75 87.75V87C164.75 86.5216 164.679 86.0583 164.547 85.621Z" fill="#019AEB"/>
<path d="M152.75 90.25C152.75 89.8358 152.414 89.5 152 89.5C151.586 89.5 151.25 89.8358 151.25 90.25V91C151.25 91.4784 151.321 91.9417 151.453 92.379C151.574 92.7754 151.992 92.9994 152.389 92.8793C152.785 92.7592 153.009 92.3405 152.889 91.9441C152.799 91.6462 152.75 91.3295 152.75 91V90.25Z" fill="#019AEB"/>
<path d="M164.75 90.25C164.75 89.8358 164.414 89.5 164 89.5C163.586 89.5 163.25 89.8358 163.25 90.25V91C163.25 91.3295 163.201 91.6462 163.111 91.9441C162.991 92.3405 163.215 92.7592 163.611 92.8793C164.008 92.9994 164.426 92.7754 164.547 92.379C164.679 91.9417 164.75 91.4784 164.75 91V90.25Z" fill="#019AEB"/>
<path d="M155.056 94.111C154.66 93.9909 154.241 94.2149 154.121 94.6113C154.001 95.0077 154.225 95.4264 154.621 95.5465C155.058 95.679 155.522 95.75 156 95.75H156.75C157.164 95.75 157.5 95.4142 157.5 95C157.5 94.5858 157.164 94.25 156.75 94.25H156C155.671 94.25 155.354 94.2012 155.056 94.111Z" fill="#019AEB"/>
<path d="M161.379 95.5465C161.775 95.4264 161.999 95.0077 161.879 94.6113C161.759 94.2149 161.34 93.9909 160.944 94.111C160.646 94.2012 160.329 94.25 160 94.25H159.25C158.836 94.25 158.5 94.5858 158.5 95C158.5 95.4142 158.836 95.75 159.25 95.75H160C160.478 95.75 160.942 95.679 161.379 95.5465Z" fill="#019AEB"/>
<rect width="318.667" height="178.5" transform="translate(320.667)" fill="#252A2E"/>
<path d="M465.955 52.6348C465.955 53.5996 465.775 54.4062 465.416 55.0547C465.057 55.6992 464.535 56.1855 463.852 56.5137C463.168 56.8379 462.344 57 461.379 57H459V48.4336H461.637C462.523 48.4336 463.289 48.5938 463.934 48.9141C464.578 49.2305 465.076 49.7012 465.428 50.3262C465.779 50.9473 465.955 51.7168 465.955 52.6348ZM464.49 52.6758C464.49 51.9727 464.379 51.3945 464.156 50.9414C463.938 50.4883 463.613 50.1523 463.184 49.9336C462.758 49.7109 462.232 49.5996 461.607 49.5996H460.406V55.8223H461.402C462.438 55.8223 463.211 55.5586 463.723 55.0312C464.234 54.5039 464.49 53.7188 464.49 52.6758ZM470.494 50.3906C471.072 50.3906 471.568 50.5098 471.982 50.748C472.396 50.9863 472.715 51.3242 472.938 51.7617C473.16 52.1992 473.271 52.7227 473.271 53.332V54.0703H468.941C468.957 54.6992 469.125 55.1836 469.445 55.5234C469.77 55.8633 470.223 56.0332 470.805 56.0332C471.219 56.0332 471.59 55.9941 471.918 55.916C472.25 55.834 472.592 55.7148 472.943 55.5586V56.6777C472.619 56.8301 472.289 56.9414 471.953 57.0117C471.617 57.082 471.215 57.1172 470.746 57.1172C470.109 57.1172 469.549 56.9941 469.064 56.748C468.584 56.498 468.207 56.127 467.934 55.6348C467.664 55.1426 467.529 54.5312 467.529 53.8008C467.529 53.0742 467.652 52.457 467.898 51.9492C468.145 51.4414 468.49 51.0547 468.936 50.7891C469.381 50.5234 469.9 50.3906 470.494 50.3906ZM470.494 51.4277C470.061 51.4277 469.709 51.5684 469.439 51.8496C469.174 52.1309 469.018 52.543 468.971 53.0859H471.924C471.92 52.7617 471.865 52.4746 471.76 52.2246C471.658 51.9746 471.502 51.7793 471.291 51.6387C471.084 51.498 470.818 51.4277 470.494 51.4277ZM478.314 51.5625H476.738V57H475.361V51.5625H474.301V50.9004L475.361 50.4961V50.0449C475.361 49.4941 475.447 49.0566 475.619 48.7324C475.795 48.4082 476.045 48.1758 476.369 48.0352C476.697 47.8906 477.088 47.8184 477.541 47.8184C477.838 47.8184 478.109 47.8438 478.355 47.8945C478.602 47.9414 478.809 47.9961 478.977 48.0586L478.619 49.1016C478.486 49.0586 478.338 49.0195 478.174 48.9844C478.01 48.9453 477.834 48.9258 477.646 48.9258C477.334 48.9258 477.104 49.0234 476.955 49.2188C476.811 49.4141 476.738 49.6992 476.738 50.0742V50.5137H478.314V51.5625ZM482.215 50.3906C483.035 50.3906 483.654 50.5723 484.072 50.9355C484.494 51.2988 484.705 51.8652 484.705 52.6348V57H483.727L483.463 56.0801H483.416C483.232 56.3145 483.043 56.5078 482.848 56.6602C482.652 56.8125 482.426 56.9258 482.168 57C481.914 57.0781 481.604 57.1172 481.236 57.1172C480.85 57.1172 480.504 57.0469 480.199 56.9062C479.895 56.7617 479.654 56.543 479.479 56.25C479.303 55.957 479.215 55.5859 479.215 55.1367C479.215 54.4688 479.463 53.9668 479.959 53.6309C480.459 53.2949 481.213 53.1094 482.221 53.0742L483.346 53.0332V52.6934C483.346 52.2441 483.24 51.9238 483.029 51.7324C482.822 51.541 482.529 51.4453 482.15 51.4453C481.826 51.4453 481.512 51.4922 481.207 51.5859C480.902 51.6797 480.605 51.7949 480.316 51.9316L479.871 50.959C480.188 50.791 480.547 50.6543 480.949 50.5488C481.355 50.4434 481.777 50.3906 482.215 50.3906ZM483.34 53.9004L482.502 53.9297C481.814 53.9531 481.332 54.0703 481.055 54.2812C480.777 54.4922 480.639 54.7812 480.639 55.1484C480.639 55.4688 480.734 55.7031 480.926 55.8516C481.117 55.9961 481.369 56.0684 481.682 56.0684C482.158 56.0684 482.553 55.9336 482.865 55.6641C483.182 55.3906 483.34 54.9902 483.34 54.4629V53.9004ZM492.537 50.5137V57H491.453L491.266 56.127H491.189C491.053 56.3496 490.879 56.5352 490.668 56.6836C490.457 56.8281 490.223 56.9355 489.965 57.0059C489.707 57.0801 489.436 57.1172 489.15 57.1172C488.662 57.1172 488.244 57.0352 487.896 56.8711C487.553 56.7031 487.289 56.4453 487.105 56.0977C486.922 55.75 486.83 55.3008 486.83 54.75V50.5137H488.213V54.4922C488.213 54.9961 488.314 55.373 488.518 55.623C488.725 55.873 489.045 55.998 489.479 55.998C489.896 55.998 490.229 55.9121 490.475 55.7402C490.721 55.5684 490.895 55.3145 490.996 54.9785C491.102 54.6426 491.154 54.2305 491.154 53.7422V50.5137H492.537ZM496.145 57H494.762V47.8828H496.145V57ZM500.777 56.0039C500.957 56.0039 501.135 55.9883 501.311 55.957C501.486 55.9219 501.646 55.8809 501.791 55.834V56.877C501.639 56.9434 501.441 57 501.199 57.0469C500.957 57.0938 500.705 57.1172 500.443 57.1172C500.076 57.1172 499.746 57.0566 499.453 56.9355C499.16 56.8105 498.928 56.5977 498.756 56.2969C498.584 55.9961 498.498 55.5801 498.498 55.0488V51.5625H497.613V50.9473L498.562 50.4609L499.014 49.0723H499.881V50.5137H501.738V51.5625H499.881V55.0312C499.881 55.3594 499.963 55.6035 500.127 55.7637C500.291 55.9238 500.508 56.0039 500.777 56.0039Z" fill="#019AEB"/>
<rect x="424" y="74" width="112" height="64.5" rx="7" fill="#171C1E"/>
<path d="M447.18 96.6992H446.062V96.625C446.07 95.1758 446.5 94.7344 447.227 94.2891C447.691 94 448.055 93.5898 448.055 93.0078C448.055 92.3164 447.516 91.875 446.852 91.875C446.254 91.875 445.664 92.2383 445.617 93.0664H444.43C444.48 91.6602 445.535 90.8906 446.852 90.8906C448.285 90.8906 449.246 91.75 449.246 93.0195C449.246 93.8984 448.816 94.4922 448.117 94.9141C447.453 95.3242 447.195 95.7266 447.18 96.625V96.6992Z" fill="#8C8C8C"/>
<path d="M447.434 98.293C447.434 98.7266 447.078 99.0742 446.652 99.0742C446.223 99.0742 445.871 98.7266 445.871 98.293C445.871 97.8672 446.223 97.5156 446.652 97.5156C447.078 97.5156 447.434 97.8672 447.434 98.293Z" fill="#8C8C8C"/>
<path fill-rule="evenodd" clip-rule="evenodd" d="M436 99L439.111 91H440.196L443.307 99H442.234L441.457 97H437.851L437.073 99H436ZM439.654 92.3639L441.068 96H438.24L439.654 92.3639Z" fill="#8C8C8C"/>
<path d="M462.896 94.063C462.896 95.3198 462.577 96.3081 461.939 97.0278C461.306 97.7476 460.423 98.1074 459.292 98.1074C458.135 98.1074 457.242 97.7547 456.611 97.0493C455.985 96.3403 455.671 95.3413 455.671 94.0522C455.671 92.7739 455.986 91.7839 456.617 91.082C457.247 90.3766 458.142 90.0239 459.302 90.0239C460.43 90.0239 461.311 90.382 461.945 91.0981C462.579 91.8143 462.896 92.8026 462.896 94.063ZM456.638 94.063C456.638 95.1265 456.864 95.9339 457.315 96.4854C457.77 97.0332 458.429 97.3071 459.292 97.3071C460.162 97.3071 460.819 97.0332 461.263 96.4854C461.707 95.9375 461.929 95.13 461.929 94.063C461.929 93.0067 461.707 92.2064 461.263 91.6621C460.822 91.1143 460.169 90.8403 459.302 90.8403C458.432 90.8403 457.77 91.116 457.315 91.6675C456.864 92.2153 456.638 93.0138 456.638 94.063ZM467.257 98.1074C466.874 98.1074 466.523 98.0376 466.204 97.8979C465.889 97.7547 465.624 97.5363 465.409 97.2427H465.345C465.388 97.5864 465.409 97.9123 465.409 98.2202V100.643H464.518V92.1133H465.243L465.366 92.9189H465.409C465.638 92.5967 465.905 92.3639 466.209 92.2207C466.514 92.0775 466.863 92.0059 467.257 92.0059C468.037 92.0059 468.639 92.2726 469.062 92.8062C469.488 93.3397 469.701 94.0881 469.701 95.0513C469.701 96.0181 469.484 96.77 469.051 97.3071C468.621 97.8407 468.023 98.1074 467.257 98.1074ZM467.128 92.7632C466.526 92.7632 466.091 92.9297 465.823 93.2627C465.554 93.5957 465.416 94.1257 465.409 94.8525V95.0513C465.409 95.8784 465.547 96.471 465.823 96.8291C466.098 97.1836 466.541 97.3608 467.149 97.3608C467.658 97.3608 468.055 97.1549 468.342 96.7432C468.632 96.3314 468.777 95.7638 468.777 95.0405C468.777 94.3065 468.632 93.7443 468.342 93.354C468.055 92.9601 467.651 92.7632 467.128 92.7632ZM473.75 98.1074C472.88 98.1074 472.193 97.8424 471.688 97.3125C471.187 96.7826 470.936 96.0467 470.936 95.105C470.936 94.1561 471.169 93.4023 471.634 92.8438C472.103 92.2852 472.732 92.0059 473.52 92.0059C474.257 92.0059 474.841 92.2493 475.271 92.7363C475.7 93.2197 475.915 93.8589 475.915 94.6538V95.2178H471.86C471.878 95.9089 472.051 96.4334 472.381 96.7915C472.714 97.1496 473.181 97.3286 473.783 97.3286C474.417 97.3286 475.043 97.1961 475.663 96.9312V97.7261C475.347 97.8621 475.049 97.9588 474.766 98.0161C474.486 98.077 474.148 98.1074 473.75 98.1074ZM473.509 92.7524C473.036 92.7524 472.658 92.9064 472.375 93.2144C472.096 93.5223 471.931 93.9484 471.881 94.4927H474.959C474.959 93.9305 474.834 93.5008 474.583 93.2036C474.332 92.9028 473.974 92.7524 473.509 92.7524ZM481.469 98V94.1919C481.469 93.7121 481.36 93.354 481.141 93.1177C480.923 92.8813 480.581 92.7632 480.115 92.7632C479.499 92.7632 479.048 92.9297 478.762 93.2627C478.475 93.5957 478.332 94.1453 478.332 94.9116V98H477.44V92.1133H478.166L478.311 92.9189H478.354C478.536 92.6289 478.792 92.4051 479.122 92.2476C479.451 92.0864 479.818 92.0059 480.223 92.0059C480.932 92.0059 481.465 92.1777 481.823 92.5215C482.181 92.8617 482.36 93.4077 482.36 94.1597V98H481.469ZM491.62 95.9106C491.62 96.6017 491.369 97.1406 490.868 97.5273C490.367 97.9141 489.687 98.1074 488.827 98.1074C487.896 98.1074 487.18 97.9875 486.679 97.7476V96.8667C487.001 97.0028 487.352 97.1102 487.731 97.189C488.111 97.2677 488.487 97.3071 488.859 97.3071C489.468 97.3071 489.926 97.1925 490.234 96.9634C490.542 96.7306 490.696 96.4084 490.696 95.9966C490.696 95.7244 490.641 95.5024 490.53 95.3306C490.422 95.1551 490.24 94.994 489.982 94.8472C489.728 94.7004 489.339 94.5339 488.816 94.3477C488.086 94.0863 487.563 93.7765 487.248 93.4185C486.937 93.0604 486.781 92.5931 486.781 92.0166C486.781 91.4115 487.008 90.9299 487.463 90.5718C487.918 90.2137 488.519 90.0347 489.268 90.0347C490.048 90.0347 490.766 90.1779 491.421 90.4644L491.137 91.2593C490.489 90.9871 489.858 90.8511 489.246 90.8511C488.763 90.8511 488.385 90.9549 488.113 91.1626C487.841 91.3703 487.705 91.6585 487.705 92.0273C487.705 92.2995 487.755 92.5233 487.855 92.6987C487.955 92.8706 488.124 93.0299 488.36 93.1768C488.6 93.32 488.965 93.4793 489.456 93.6548C490.279 93.9484 490.845 94.2635 491.153 94.6001C491.464 94.9367 491.62 95.3735 491.62 95.9106ZM496.712 98L496.535 97.1621H496.492C496.198 97.5309 495.904 97.7816 495.611 97.9141C495.321 98.043 494.957 98.1074 494.521 98.1074C493.937 98.1074 493.479 97.957 493.146 97.6562C492.816 97.3555 492.651 96.9276 492.651 96.3726C492.651 95.1838 493.602 94.5607 495.503 94.5034L496.502 94.4712V94.106C496.502 93.644 496.402 93.3039 496.202 93.0854C496.005 92.8634 495.688 92.7524 495.251 92.7524C494.76 92.7524 494.205 92.9028 493.586 93.2036L493.312 92.5215C493.602 92.3639 493.919 92.2404 494.263 92.1509C494.61 92.0614 494.957 92.0166 495.305 92.0166C496.007 92.0166 496.526 92.1724 496.862 92.4839C497.202 92.7954 497.373 93.2949 497.373 93.9824V98H496.712ZM494.698 97.3716C495.253 97.3716 495.688 97.2194 496.003 96.915C496.322 96.6107 496.481 96.1846 496.481 95.6367V95.105L495.589 95.1426C494.88 95.1676 494.368 95.2786 494.053 95.4756C493.742 95.6689 493.586 95.9715 493.586 96.3833C493.586 96.7056 493.683 96.9508 493.876 97.1191C494.073 97.2874 494.347 97.3716 494.698 97.3716ZM503.243 98V94.1919C503.243 93.7121 503.134 93.354 502.916 93.1177C502.697 92.8813 502.355 92.7632 501.89 92.7632C501.274 92.7632 500.823 92.9297 500.536 93.2627C500.25 93.5957 500.106 94.1453 500.106 94.9116V98H499.215V92.1133H499.94L500.085 92.9189H500.128C500.311 92.6289 500.567 92.4051 500.896 92.2476C501.225 92.0864 501.592 92.0059 501.997 92.0059C502.706 92.0059 503.24 92.1777 503.598 92.5215C503.956 92.8617 504.135 93.4077 504.135 94.1597V98H503.243ZM509.769 96.394C509.769 96.9419 509.565 97.3644 509.157 97.6616C508.749 97.9588 508.176 98.1074 507.438 98.1074C506.657 98.1074 506.049 97.9839 505.612 97.7368V96.9097C505.895 97.0529 506.197 97.1657 506.52 97.248C506.845 97.3304 507.159 97.3716 507.459 97.3716C507.925 97.3716 508.283 97.2982 508.534 97.1514C508.784 97.001 508.91 96.7736 508.91 96.4692C508.91 96.2401 508.809 96.0449 508.609 95.8838C508.412 95.7191 508.025 95.5257 507.449 95.3037C506.901 95.0996 506.511 94.9224 506.278 94.772C506.049 94.618 505.877 94.4443 505.762 94.251C505.651 94.0576 505.596 93.8267 505.596 93.5581C505.596 93.0783 505.791 92.7005 506.181 92.4248C506.571 92.1455 507.107 92.0059 507.787 92.0059C508.421 92.0059 509.04 92.1348 509.646 92.3926L509.329 93.1177C508.738 92.8742 508.202 92.7524 507.723 92.7524C507.3 92.7524 506.981 92.8187 506.767 92.9512C506.552 93.0837 506.444 93.2663 506.444 93.499C506.444 93.6566 506.484 93.7909 506.562 93.9019C506.645 94.0129 506.776 94.1185 506.955 94.2188C507.134 94.319 507.477 94.464 507.986 94.6538C508.684 94.908 509.155 95.1641 509.398 95.4219C509.646 95.6797 509.769 96.0037 509.769 96.394ZM460.511 110.911C460.511 111.602 460.26 112.141 459.759 112.527C459.257 112.914 458.577 113.107 457.718 113.107C456.787 113.107 456.071 112.987 455.569 112.748V111.867C455.892 112.003 456.243 112.11 456.622 112.189C457.002 112.268 457.378 112.307 457.75 112.307C458.359 112.307 458.817 112.193 459.125 111.963C459.433 111.731 459.587 111.408 459.587 110.997C459.587 110.724 459.531 110.502 459.42 110.331C459.313 110.155 459.13 109.994 458.873 109.847C458.618 109.7 458.23 109.534 457.707 109.348C456.977 109.086 456.454 108.777 456.139 108.418C455.827 108.06 455.671 107.593 455.671 107.017C455.671 106.411 455.899 105.93 456.354 105.572C456.808 105.214 457.41 105.035 458.158 105.035C458.939 105.035 459.657 105.178 460.312 105.464L460.027 106.259C459.379 105.987 458.749 105.851 458.137 105.851C457.653 105.851 457.276 105.955 457.003 106.163C456.731 106.37 456.595 106.659 456.595 107.027C456.595 107.299 456.645 107.523 456.746 107.699C456.846 107.871 457.014 108.03 457.25 108.177C457.49 108.32 457.856 108.479 458.346 108.655C459.17 108.948 459.736 109.264 460.043 109.6C460.355 109.937 460.511 110.374 460.511 110.911ZM464.469 113.107C463.599 113.107 462.912 112.842 462.407 112.312C461.905 111.783 461.655 111.047 461.655 110.105C461.655 109.156 461.888 108.402 462.353 107.844C462.822 107.285 463.451 107.006 464.238 107.006C464.976 107.006 465.56 107.249 465.989 107.736C466.419 108.22 466.634 108.859 466.634 109.654V110.218H462.579C462.597 110.909 462.77 111.433 463.1 111.792C463.433 112.15 463.9 112.329 464.501 112.329C465.135 112.329 465.762 112.196 466.381 111.931V112.726C466.066 112.862 465.767 112.959 465.484 113.016C465.205 113.077 464.867 113.107 464.469 113.107ZM464.228 107.752C463.755 107.752 463.377 107.906 463.094 108.214C462.815 108.522 462.65 108.948 462.6 109.493H465.678C465.678 108.931 465.552 108.501 465.302 108.204C465.051 107.903 464.693 107.752 464.228 107.752ZM475.663 113V109.17C475.663 108.701 475.562 108.35 475.362 108.118C475.161 107.881 474.85 107.763 474.427 107.763C473.872 107.763 473.462 107.923 473.197 108.241C472.932 108.56 472.8 109.05 472.8 109.713V113H471.908V109.17C471.908 108.701 471.808 108.35 471.607 108.118C471.407 107.881 471.094 107.763 470.667 107.763C470.109 107.763 469.699 107.931 469.438 108.268C469.18 108.601 469.051 109.149 469.051 109.912V113H468.159V107.113H468.884L469.029 107.919H469.072C469.241 107.632 469.477 107.409 469.781 107.248C470.089 107.086 470.433 107.006 470.812 107.006C471.733 107.006 472.334 107.339 472.617 108.005H472.66C472.836 107.697 473.09 107.453 473.423 107.274C473.756 107.095 474.135 107.006 474.562 107.006C475.228 107.006 475.725 107.178 476.055 107.521C476.388 107.862 476.554 108.408 476.554 109.16V113H475.663ZM479.288 113H478.396V107.113H479.288V113ZM478.321 105.518C478.321 105.314 478.371 105.165 478.472 105.072C478.572 104.976 478.697 104.927 478.848 104.927C478.991 104.927 479.114 104.976 479.218 105.072C479.322 105.169 479.374 105.318 479.374 105.518C479.374 105.719 479.322 105.869 479.218 105.969C479.114 106.066 478.991 106.114 478.848 106.114C478.697 106.114 478.572 106.066 478.472 105.969C478.371 105.869 478.321 105.719 478.321 105.518ZM483.918 107.017C484.691 107.017 485.291 107.282 485.717 107.812C486.147 108.338 486.362 109.084 486.362 110.051C486.362 111.018 486.145 111.77 485.712 112.307C485.282 112.841 484.684 113.107 483.918 113.107C483.535 113.107 483.184 113.038 482.865 112.898C482.55 112.755 482.285 112.536 482.07 112.243H482.006L481.818 113H481.179V104.643H482.07V106.673C482.07 107.128 482.056 107.536 482.027 107.897H482.07C482.486 107.31 483.102 107.017 483.918 107.017ZM483.789 107.763C483.18 107.763 482.742 107.939 482.473 108.29C482.205 108.637 482.07 109.224 482.07 110.051C482.07 110.878 482.208 111.471 482.484 111.829C482.76 112.184 483.202 112.361 483.811 112.361C484.358 112.361 484.767 112.162 485.035 111.765C485.304 111.364 485.438 110.789 485.438 110.041C485.438 109.274 485.304 108.703 485.035 108.327C484.767 107.951 484.351 107.763 483.789 107.763ZM493.006 110.051C493.006 111.011 492.764 111.761 492.281 112.302C491.797 112.839 491.13 113.107 490.277 113.107C489.751 113.107 489.284 112.984 488.875 112.737C488.467 112.49 488.152 112.135 487.93 111.673C487.708 111.211 487.597 110.671 487.597 110.051C487.597 109.092 487.837 108.345 488.317 107.812C488.797 107.274 489.463 107.006 490.315 107.006C491.139 107.006 491.792 107.28 492.275 107.828C492.762 108.375 493.006 109.117 493.006 110.051ZM488.521 110.051C488.521 110.803 488.671 111.376 488.972 111.77C489.273 112.164 489.715 112.361 490.299 112.361C490.882 112.361 491.325 112.166 491.625 111.775C491.93 111.382 492.082 110.807 492.082 110.051C492.082 109.303 491.93 108.735 491.625 108.349C491.325 107.958 490.879 107.763 490.288 107.763C489.704 107.763 489.264 107.955 488.967 108.338C488.67 108.721 488.521 109.292 488.521 110.051ZM495.466 113H494.574V104.643H495.466V113ZM501.363 112.21H501.315C500.903 112.808 500.287 113.107 499.467 113.107C498.697 113.107 498.098 112.844 497.668 112.318C497.242 111.792 497.029 111.043 497.029 110.073C497.029 109.102 497.244 108.349 497.673 107.812C498.103 107.274 498.701 107.006 499.467 107.006C500.266 107.006 500.878 107.296 501.304 107.876H501.374L501.336 107.452L501.315 107.038V104.643H502.207V113H501.481L501.363 112.21ZM499.58 112.361C500.189 112.361 500.629 112.196 500.901 111.867C501.177 111.534 501.315 110.998 501.315 110.261V110.073C501.315 109.238 501.175 108.644 500.896 108.29C500.62 107.931 500.178 107.752 499.569 107.752C499.047 107.752 498.646 107.957 498.366 108.365C498.09 108.769 497.953 109.342 497.953 110.083C497.953 110.835 498.09 111.403 498.366 111.786C498.642 112.169 499.047 112.361 499.58 112.361ZM460.511 125.911C460.511 126.602 460.26 127.141 459.759 127.527C459.257 127.914 458.577 128.107 457.718 128.107C456.787 128.107 456.071 127.987 455.569 127.748V126.867C455.892 127.003 456.243 127.11 456.622 127.189C457.002 127.268 457.378 127.307 457.75 127.307C458.359 127.307 458.817 127.193 459.125 126.963C459.433 126.731 459.587 126.408 459.587 125.997C459.587 125.724 459.531 125.502 459.42 125.331C459.313 125.155 459.13 124.994 458.873 124.847C458.618 124.7 458.23 124.534 457.707 124.348C456.977 124.086 456.454 123.777 456.139 123.418C455.827 123.06 455.671 122.593 455.671 122.017C455.671 121.411 455.899 120.93 456.354 120.572C456.808 120.214 457.41 120.035 458.158 120.035C458.939 120.035 459.657 120.178 460.312 120.464L460.027 121.259C459.379 120.987 458.749 120.851 458.137 120.851C457.653 120.851 457.276 120.955 457.003 121.163C456.731 121.37 456.595 121.659 456.595 122.027C456.595 122.299 456.645 122.523 456.746 122.699C456.846 122.871 457.014 123.03 457.25 123.177C457.49 123.32 457.856 123.479 458.346 123.655C459.17 123.948 459.736 124.264 460.043 124.6C460.355 124.937 460.511 125.374 460.511 125.911ZM462.874 128H461.982V122.113H462.874V128ZM461.907 120.518C461.907 120.314 461.957 120.165 462.058 120.072C462.158 119.976 462.283 119.927 462.434 119.927C462.577 119.927 462.7 119.976 462.804 120.072C462.908 120.169 462.96 120.318 462.96 120.518C462.96 120.719 462.908 120.869 462.804 120.969C462.7 121.066 462.577 121.114 462.434 121.114C462.283 121.114 462.158 121.066 462.058 120.969C461.957 120.869 461.907 120.719 461.907 120.518ZM468.53 128H464.26V127.393L467.472 122.806H464.458V122.113H468.449V122.806L465.28 127.307H468.53V128ZM472.397 128.107C471.527 128.107 470.839 127.842 470.334 127.312C469.833 126.783 469.583 126.047 469.583 125.105C469.583 124.156 469.815 123.402 470.281 122.844C470.75 122.285 471.378 122.006 472.166 122.006C472.904 122.006 473.487 122.249 473.917 122.736C474.347 123.22 474.562 123.859 474.562 124.654V125.218H470.506C470.524 125.909 470.698 126.433 471.027 126.792C471.36 127.15 471.828 127.329 472.429 127.329C473.063 127.329 473.69 127.196 474.309 126.931V127.726C473.994 127.862 473.695 127.959 473.412 128.016C473.133 128.077 472.794 128.107 472.397 128.107ZM472.155 122.752C471.683 122.752 471.305 122.906 471.022 123.214C470.743 123.522 470.578 123.948 470.528 124.493H473.605C473.605 123.931 473.48 123.501 473.229 123.204C472.979 122.903 472.621 122.752 472.155 122.752ZM475.958 127.431C475.958 127.191 476.012 127.01 476.119 126.888C476.23 126.763 476.388 126.7 476.592 126.7C476.799 126.7 476.961 126.763 477.075 126.888C477.193 127.01 477.252 127.191 477.252 127.431C477.252 127.663 477.193 127.842 477.075 127.968C476.957 128.093 476.796 128.156 476.592 128.156C476.409 128.156 476.257 128.1 476.135 127.989C476.017 127.875 475.958 127.688 475.958 127.431ZM475.958 122.688C475.958 122.205 476.169 121.963 476.592 121.963C477.032 121.963 477.252 122.205 477.252 122.688C477.252 122.921 477.193 123.1 477.075 123.225C476.957 123.35 476.796 123.413 476.592 123.413C476.409 123.413 476.257 123.358 476.135 123.247C476.017 123.132 475.958 122.946 475.958 122.688ZM484.772 128H483.902V122.403C483.902 121.938 483.916 121.497 483.945 121.082C483.87 121.157 483.785 121.236 483.692 121.318C483.599 121.401 483.173 121.75 482.414 122.366L481.941 121.753L484.02 120.147H484.772V128ZM492.925 128H487.764V127.232L489.832 125.153C490.462 124.516 490.877 124.061 491.078 123.789C491.278 123.517 491.429 123.252 491.529 122.994C491.629 122.736 491.679 122.459 491.679 122.162C491.679 121.743 491.552 121.411 491.298 121.168C491.044 120.921 490.691 120.797 490.24 120.797C489.914 120.797 489.604 120.851 489.311 120.958C489.021 121.066 488.696 121.261 488.338 121.544L487.866 120.937C488.589 120.335 489.377 120.035 490.229 120.035C490.967 120.035 491.545 120.224 491.964 120.604C492.383 120.98 492.592 121.487 492.592 122.124C492.592 122.622 492.453 123.114 492.173 123.601C491.894 124.088 491.371 124.704 490.605 125.449L488.886 127.13V127.173H492.925V128Z" fill="white"/>
<rect width="318.667" height="178.5" transform="translate(641.333)" fill="#252A2E"/>
<path d="M842 64V110" stroke="#E8178A"/>
<rect x="847" y="77.5" width="38" height="18" rx="3" fill="#E8178A"/>
<path d="M853.479 89.2216V88.0107L856.516 83.2273H857.56V84.9034H856.942L855.028 87.9325V87.9893H859.342V89.2216H853.479ZM856.97 90.5V88.8523L856.999 88.3161V83.2273H858.44V90.5H856.97ZM863.08 90.5994C862.533 90.5994 862.047 90.5107 861.62 90.3331C861.197 90.1532 860.864 89.9081 860.623 89.598C860.381 89.2879 860.26 88.9363 860.26 88.5433C860.26 88.2403 860.329 87.9621 860.466 87.7088C860.606 87.4531 860.795 87.2412 861.034 87.0732C861.274 86.9027 861.541 86.7938 861.837 86.7464V86.6967C861.449 86.6186 861.134 86.4304 860.892 86.1321C860.651 85.8314 860.53 85.4822 860.53 85.0845C860.53 84.7081 860.64 84.3731 860.86 84.0795C861.081 83.7836 861.382 83.5516 861.766 83.3835C862.152 83.2131 862.59 83.1278 863.08 83.1278C863.57 83.1278 864.007 83.2131 864.39 83.3835C864.776 83.554 865.079 83.7872 865.299 84.0831C865.52 84.3767 865.631 84.7105 865.633 85.0845C865.631 85.4846 865.508 85.8338 865.264 86.1321C865.02 86.4304 864.708 86.6186 864.326 86.6967V86.7464C864.618 86.7938 864.882 86.9027 865.118 87.0732C865.357 87.2412 865.547 87.4531 865.686 87.7088C865.828 87.9621 865.901 88.2403 865.903 88.5433C865.901 88.9363 865.779 89.2879 865.537 89.598C865.296 89.9081 864.962 90.1532 864.536 90.3331C864.112 90.5107 863.627 90.5994 863.08 90.5994ZM863.08 89.4702C863.324 89.4702 863.537 89.4264 863.719 89.3388C863.901 89.2488 864.043 89.1257 864.145 88.9695C864.249 88.8108 864.301 88.6286 864.301 88.4226C864.301 88.2119 864.248 88.026 864.142 87.8651C864.035 87.7017 863.891 87.5739 863.708 87.4815C863.526 87.3868 863.317 87.3395 863.08 87.3395C862.846 87.3395 862.636 87.3868 862.451 87.4815C862.267 87.5739 862.121 87.7017 862.015 87.8651C861.91 88.026 861.858 88.2119 861.858 88.4226C861.858 88.6286 861.909 88.8108 862.011 88.9695C862.113 89.1257 862.256 89.2488 862.441 89.3388C862.625 89.4264 862.838 89.4702 863.08 89.4702ZM863.08 86.2209C863.283 86.2209 863.465 86.1795 863.623 86.0966C863.782 86.0137 863.906 85.8989 863.996 85.7521C864.086 85.6054 864.131 85.4361 864.131 85.2443C864.131 85.0549 864.086 84.8892 863.996 84.7472C863.906 84.6027 863.783 84.4903 863.627 84.4098C863.471 84.3269 863.288 84.2855 863.08 84.2855C862.874 84.2855 862.692 84.3269 862.533 84.4098C862.374 84.4903 862.25 84.6027 862.16 84.7472C862.073 84.8892 862.029 85.0549 862.029 85.2443C862.029 85.4361 862.074 85.6054 862.164 85.7521C862.254 85.8989 862.378 86.0137 862.537 86.0966C862.695 86.1795 862.876 86.2209 863.08 86.2209ZM866.992 92.5455V85.0455H868.484V85.9616H868.551C868.618 85.8149 868.713 85.6657 868.839 85.5142C868.967 85.3603 869.133 85.2325 869.336 85.1307C869.542 85.0265 869.798 84.9744 870.103 84.9744C870.501 84.9744 870.868 85.0786 871.204 85.2869C871.54 85.4929 871.809 85.8042 872.01 86.2209C872.211 86.6352 872.312 87.1548 872.312 87.7798C872.312 88.3883 872.214 88.902 872.017 89.321C871.823 89.7377 871.558 90.0537 871.222 90.2692C870.888 90.4822 870.514 90.5888 870.1 90.5888C869.806 90.5888 869.556 90.5402 869.35 90.4432C869.147 90.3461 868.98 90.2242 868.85 90.0774C868.719 89.9283 868.62 89.7779 868.551 89.6264H868.505V92.5455H866.992ZM868.473 87.7727C868.473 88.0971 868.518 88.38 868.608 88.6214C868.698 88.8629 868.828 89.0511 868.999 89.1861C869.169 89.3187 869.376 89.3849 869.62 89.3849C869.866 89.3849 870.075 89.3175 870.245 89.1825C870.416 89.0452 870.545 88.8558 870.632 88.6143C870.722 88.3705 870.767 88.09 870.767 87.7727C870.767 87.4579 870.723 87.1809 870.636 86.9418C870.548 86.7027 870.419 86.5156 870.249 86.3807C870.078 86.2457 869.869 86.1783 869.62 86.1783C869.374 86.1783 869.166 86.2434 868.995 86.3736C868.827 86.5038 868.698 86.6884 868.608 86.9276C868.518 87.1667 868.473 87.4484 868.473 87.7727ZM874.389 85.0455L875.391 86.9524L876.417 85.0455H877.969L876.389 87.7727L878.012 90.5H876.467L875.391 88.6143L874.333 90.5H872.77L874.389 87.7727L872.827 85.0455H874.389Z" fill="white"/>
<line x1="839" y1="63.5" x2="846" y2="63.5" stroke="#E8178A"/>
<line x1="839" y1="110.5" x2="846" y2="110.5" stroke="#E8178A"/>
<path d="M780 55L823 55" stroke="#E8178A"/>
<rect x="783" y="31" width="38" height="18" rx="3" fill="#E8178A"/>
<path d="M789.479 42.7216V41.5107L792.516 36.7273H793.56V38.4034H792.942L791.028 41.4325V41.4893H795.342V42.7216H789.479ZM792.97 44V42.3523L792.999 41.8161V36.7273H794.44V44H792.97ZM799.023 44.0994C798.521 44.0994 798.074 44.0071 797.681 43.8224C797.29 43.6378 796.98 43.3833 796.75 43.0589C796.521 42.7346 796.401 42.3629 796.392 41.9439H797.883C797.9 42.2256 798.018 42.4541 798.238 42.6293C798.458 42.8045 798.72 42.892 799.023 42.892C799.265 42.892 799.478 42.8388 799.662 42.7322C799.849 42.6233 799.995 42.473 800.099 42.2812C800.206 42.0871 800.259 41.8646 800.259 41.6136C800.259 41.358 800.204 41.133 800.096 40.9389C799.989 40.7448 799.841 40.5933 799.652 40.4844C799.462 40.3755 799.246 40.3198 799.002 40.3175C798.789 40.3175 798.582 40.3613 798.38 40.4489C798.181 40.5365 798.026 40.656 797.915 40.8075L796.548 40.5625L796.892 36.7273H801.338V37.9844H798.16L797.972 39.8061H798.015C798.142 39.6262 798.335 39.477 798.593 39.3587C798.851 39.2403 799.14 39.1811 799.46 39.1811C799.898 39.1811 800.288 39.2841 800.632 39.4901C800.975 39.696 801.246 39.9789 801.445 40.3388C801.644 40.6963 801.742 41.1082 801.74 41.5746C801.742 42.0646 801.628 42.5002 801.399 42.8814C801.172 43.2602 800.853 43.5585 800.444 43.7763C800.036 43.9917 799.563 44.0994 799.023 44.0994ZM802.826 46.0455V38.5455H804.318V39.4616H804.385C804.452 39.3149 804.547 39.1657 804.673 39.0142C804.801 38.8603 804.967 38.7325 805.17 38.6307C805.376 38.5265 805.632 38.4744 805.937 38.4744C806.335 38.4744 806.702 38.5786 807.038 38.7869C807.374 38.9929 807.643 39.3042 807.844 39.7209C808.045 40.1352 808.146 40.6548 808.146 41.2798C808.146 41.8883 808.048 42.402 807.851 42.821C807.657 43.2377 807.392 43.5537 807.056 43.7692C806.722 43.9822 806.348 44.0888 805.934 44.0888C805.64 44.0888 805.39 44.0402 805.184 43.9432C804.981 43.8461 804.814 43.7242 804.684 43.5774C804.553 43.4283 804.454 43.2779 804.385 43.1264H804.339V46.0455H802.826ZM804.307 41.2727C804.307 41.5971 804.352 41.88 804.442 42.1214C804.532 42.3629 804.662 42.5511 804.833 42.6861C805.003 42.8187 805.21 42.8849 805.454 42.8849C805.7 42.8849 805.909 42.8175 806.079 42.6825C806.25 42.5452 806.379 42.3558 806.466 42.1143C806.556 41.8705 806.601 41.59 806.601 41.2727C806.601 40.9579 806.557 40.6809 806.47 40.4418C806.382 40.2027 806.253 40.0156 806.083 39.8807C805.912 39.7457 805.703 39.6783 805.454 39.6783C805.208 39.6783 805 39.7434 804.829 39.8736C804.661 40.0038 804.532 40.1884 804.442 40.4276C804.352 40.6667 804.307 40.9484 804.307 41.2727ZM810.223 38.5455L811.225 40.4524L812.251 38.5455H813.803L812.223 41.2727L813.846 44H812.301L811.225 42.1143L810.167 44H808.604L810.223 41.2727L808.661 38.5455H810.223Z" fill="white"/>
<line x1="779.5" y1="58" x2="779.5" y2="51" stroke="#E8178A"/>
<line x1="823.5" y1="58" x2="823.5" y2="51" stroke="#E8178A"/>
<path d="M794 69.75C793.558 69.75 793.138 69.8378 792.756 69.9963C792.374 70.155 791.935 69.9734 791.776 69.5908C791.617 69.2082 791.799 68.7694 792.182 68.6107C792.743 68.378 793.357 68.25 794 68.25H795.5C795.914 68.25 796.25 68.5858 796.25 69C796.25 69.4142 795.914 69.75 795.5 69.75H794Z" fill="#019AEB"/>
<path d="M797.75 69C797.75 68.5858 798.086 68.25 798.5 68.25H801.5C801.914 68.25 802.25 68.5858 802.25 69C802.25 69.4142 801.914 69.75 801.5 69.75H798.5C798.086 69.75 797.75 69.4142 797.75 69Z" fill="#019AEB"/>
<path d="M803.75 69C803.75 68.5858 804.086 68.25 804.5 68.25H806C806.643 68.25 807.257 68.378 807.818 68.6107C808.201 68.7694 808.383 69.2082 808.224 69.5908C808.065 69.9734 807.626 70.155 807.244 69.9963C806.862 69.8378 806.442 69.75 806 69.75H804.5C804.086 69.75 803.75 69.4142 803.75 69Z" fill="#019AEB"/>
<path d="M790.591 70.7761C790.973 70.9347 791.155 71.3735 790.996 71.7561C790.838 72.1383 790.75 72.5579 790.75 73V74.5C790.75 74.9142 790.414 75.25 790 75.25C789.586 75.25 789.25 74.9142 789.25 74.5V73C789.25 72.3573 789.378 71.7427 789.611 71.1816C789.769 70.7989 790.208 70.6174 790.591 70.7761Z" fill="#019AEB"/>
<path d="M809.409 70.7761C809.792 70.6174 810.231 70.7989 810.389 71.1816C810.622 71.7427 810.75 72.3573 810.75 73V74.5C810.75 74.9142 810.414 75.25 810 75.25C809.586 75.25 809.25 74.9142 809.25 74.5V73C809.25 72.5579 809.162 72.1383 809.004 71.7561C808.845 71.3735 809.027 70.9347 809.409 70.7761Z" fill="#019AEB"/>
<path d="M790 76.75C790.414 76.75 790.75 77.0858 790.75 77.5V80.5C790.75 80.9142 790.414 81.25 790 81.25C789.586 81.25 789.25 80.9142 789.25 80.5V77.5C789.25 77.0858 789.586 76.75 790 76.75Z" fill="#019AEB"/>
<path d="M810 76.75C810.414 76.75 810.75 77.0858 810.75 77.5V80.5C810.75 80.9142 810.414 81.25 810 81.25C809.586 81.25 809.25 80.9142 809.25 80.5V77.5C809.25 77.0858 809.586 76.75 810 76.75Z" fill="#019AEB"/>
<path d="M790 82.75C790.414 82.75 790.75 83.0858 790.75 83.5V85C790.75 85.4421 790.838 85.8617 790.996 86.2439C791.155 86.6265 790.973 87.0653 790.591 87.2239C790.208 87.3826 789.769 87.2011 789.611 86.8184C789.378 86.2573 789.25 85.6427 789.25 85V83.5C789.25 83.0858 789.586 82.75 790 82.75Z" fill="#019AEB"/>
<path d="M810 82.75C810.414 82.75 810.75 83.0858 810.75 83.5V85C810.75 85.6427 810.622 86.2573 810.389 86.8184C810.231 87.2011 809.792 87.3826 809.409 87.2239C809.027 87.0653 808.845 86.6265 809.004 86.2439C809.162 85.8617 809.25 85.4421 809.25 85V83.5C809.25 83.0858 809.586 82.75 810 82.75Z" fill="#019AEB"/>
<path d="M791.776 88.4092C791.935 88.0266 792.374 87.845 792.756 88.0037C793.138 88.1622 793.558 88.25 794 88.25H795.5C795.914 88.25 796.25 88.5858 796.25 89C796.25 89.4142 795.914 89.75 795.5 89.75H794C793.357 89.75 792.743 89.622 792.182 89.3893C791.799 89.2306 791.617 88.7918 791.776 88.4092Z" fill="#019AEB"/>
<path d="M808.224 88.4092C808.383 88.7918 808.201 89.2306 807.818 89.3893C807.257 89.622 806.643 89.75 806 89.75H804.5C804.086 89.75 803.75 89.4142 803.75 89C803.75 88.5858 804.086 88.25 804.5 88.25H806C806.442 88.25 806.862 88.1622 807.244 88.0037C807.626 87.845 808.065 88.0266 808.224 88.4092Z" fill="#019AEB"/>
<path d="M797.75 89C797.75 88.5858 798.086 88.25 798.5 88.25H801.5C801.914 88.25 802.25 88.5858 802.25 89C802.25 89.4142 801.914 89.75 801.5 89.75H798.5C798.086 89.75 797.75 89.4142 797.75 89Z" fill="#019AEB"/>
<path d="M808.53 71.591C808.823 71.2981 808.823 70.8232 808.53 70.5303C808.237 70.2374 807.763 70.2374 807.47 70.5303L806.473 71.5265C806.181 71.8194 806.181 72.2943 806.473 72.5872C806.766 72.8801 807.241 72.8801 807.534 72.5872L808.53 71.591Z" fill="#019AEB"/>
<path d="M805.542 74.5796C805.835 74.2867 805.835 73.8118 805.542 73.519C805.249 73.2261 804.774 73.2261 804.481 73.519L802.489 75.5114C802.196 75.8043 802.196 76.2791 802.489 76.572C802.782 76.8649 803.256 76.8649 803.549 76.572L805.542 74.5796Z" fill="#019AEB"/>
<path d="M801.557 78.5645C801.85 78.2716 801.85 77.7967 801.557 77.5038C801.264 77.2109 800.789 77.2109 800.496 77.5038L800 78L799.504 77.5038C799.211 77.2109 798.736 77.2109 798.443 77.5038C798.15 77.7967 798.15 78.2716 798.443 78.5645L798.939 79.0607L798.504 79.4962C798.211 79.7891 798.211 80.264 798.504 80.5569C798.797 80.8498 799.272 80.8498 799.564 80.5569L800 80.1213L800.436 80.5569C800.728 80.8498 801.203 80.8498 801.496 80.5569C801.789 80.264 801.789 79.7891 801.496 79.4962L801.061 79.0607L801.557 78.5645Z" fill="#019AEB"/>
<path d="M797.572 82.5493C797.865 82.2564 797.865 81.7815 797.572 81.4886C797.279 81.1957 796.804 81.1957 796.511 81.4886L794.519 83.481C794.226 83.7739 794.226 84.2488 794.519 84.5417C794.812 84.8346 795.287 84.8346 795.58 84.5417L797.572 82.5493Z" fill="#019AEB"/>
<path d="M793.587 86.5341C793.88 86.2412 793.88 85.7664 793.587 85.4735C793.294 85.1806 792.819 85.1806 792.527 85.4735L791.53 86.4697C791.237 86.7626 791.237 87.2374 791.53 87.5303C791.823 87.8232 792.298 87.8232 792.591 87.5303L793.587 86.5341Z" fill="#019AEB"/>
<path d="M807.409 87.5303C807.702 87.8232 808.177 87.8232 808.47 87.5303C808.763 87.2374 808.763 86.7626 808.47 86.4697L807.473 85.4735C807.181 85.1806 806.706 85.1806 806.413 85.4735C806.12 85.7664 806.12 86.2412 806.413 86.5341L807.409 87.5303Z" fill="#019AEB"/>
<path d="M804.42 84.5417C804.713 84.8346 805.188 84.8346 805.481 84.5417C805.774 84.2488 805.774 83.7739 805.481 83.481L803.489 81.4886C803.196 81.1957 802.721 81.1957 802.428 81.4886C802.135 81.7815 802.135 82.2564 802.428 82.5493L804.42 84.5417Z" fill="#019AEB"/>
<path d="M796.451 76.572C796.744 76.8649 797.218 76.8649 797.511 76.572C797.804 76.2791 797.804 75.8043 797.511 75.5114L795.519 73.519C795.226 73.2261 794.751 73.2261 794.458 73.519C794.165 73.8118 794.165 74.2867 794.458 74.5796L796.451 76.572Z" fill="#019AEB"/>
<path d="M792.466 72.5872C792.759 72.8801 793.234 72.8801 793.527 72.5872C793.819 72.2943 793.819 71.8194 793.527 71.5265L792.53 70.5303C792.237 70.2374 791.763 70.2374 791.47 70.5303C791.177 70.8232 791.177 71.2981 791.47 71.591L792.466 72.5872Z" fill="#019AEB"/>
<path d="M797.056 73.889C797.354 73.7988 797.671 73.75 798 73.75H798.75C799.164 73.75 799.5 73.4142 799.5 73C799.5 72.5858 799.164 72.25 798.75 72.25H798C797.522 72.25 797.058 72.321 796.621 72.4535C796.225 72.5736 796.001 72.9923 796.121 73.3887C796.241 73.7851 796.66 74.0091 797.056 73.889Z" fill="#019AEB"/>
<path d="M801.25 72.25C800.836 72.25 800.5 72.5858 800.5 73C800.5 73.4142 800.836 73.75 801.25 73.75H802C802.329 73.75 802.646 73.7988 802.944 73.889C803.34 74.0091 803.759 73.7851 803.879 73.3887C803.999 72.9923 803.775 72.5736 803.379 72.4535C802.942 72.321 802.478 72.25 802 72.25H801.25Z" fill="#019AEB"/>
<path d="M794.889 76.0559C795.009 75.6595 794.785 75.2408 794.389 75.1207C793.992 75.0006 793.574 75.2246 793.453 75.621C793.321 76.0583 793.25 76.5216 793.25 77V77.75C793.25 78.1642 793.586 78.5 794 78.5C794.414 78.5 794.75 78.1642 794.75 77.75V77C794.75 76.6705 794.799 76.3538 794.889 76.0559Z" fill="#019AEB"/>
<path d="M806.547 75.621C806.426 75.2246 806.008 75.0006 805.611 75.1207C805.215 75.2408 804.991 75.6595 805.111 76.0559C805.201 76.3538 805.25 76.6705 805.25 77V77.75C805.25 78.1642 805.586 78.5 806 78.5C806.414 78.5 806.75 78.1642 806.75 77.75V77C806.75 76.5216 806.679 76.0583 806.547 75.621Z" fill="#019AEB"/>
<path d="M794.75 80.25C794.75 79.8358 794.414 79.5 794 79.5C793.586 79.5 793.25 79.8358 793.25 80.25V81C793.25 81.4784 793.321 81.9417 793.453 82.379C793.574 82.7754 793.992 82.9994 794.389 82.8793C794.785 82.7592 795.009 82.3405 794.889 81.9441C794.799 81.6462 794.75 81.3295 794.75 81V80.25Z" fill="#019AEB"/>
<path d="M806.75 80.25C806.75 79.8358 806.414 79.5 806 79.5C805.586 79.5 805.25 79.8358 805.25 80.25V81C805.25 81.3295 805.201 81.6462 805.111 81.9441C804.991 82.3405 805.215 82.7592 805.611 82.8793C806.008 82.9994 806.426 82.7754 806.547 82.379C806.679 81.9417 806.75 81.4784 806.75 81V80.25Z" fill="#019AEB"/>
<path d="M797.056 84.111C796.66 83.9909 796.241 84.2149 796.121 84.6113C796.001 85.0077 796.225 85.4264 796.621 85.5465C797.058 85.679 797.522 85.75 798 85.75H798.75C799.164 85.75 799.5 85.4142 799.5 85C799.5 84.5858 799.164 84.25 798.75 84.25H798C797.671 84.25 797.354 84.2012 797.056 84.111Z" fill="#019AEB"/>
<path d="M803.379 85.5465C803.775 85.4264 803.999 85.0077 803.879 84.6113C803.759 84.2149 803.34 83.9909 802.944 84.111C802.646 84.2012 802.329 84.25 802 84.25H801.25C800.836 84.25 800.5 84.5858 800.5 85C800.5 85.4142 800.836 85.75 801.25 85.75H802C802.478 85.75 802.942 85.679 803.379 85.5465Z" fill="#019AEB"/>
<path d="M786.255 101.635C786.255 102.6 786.075 103.406 785.716 104.055C785.357 104.699 784.835 105.186 784.152 105.514C783.468 105.838 782.644 106 781.679 106H779.3V97.4336H781.937C782.823 97.4336 783.589 97.5938 784.234 97.9141C784.878 98.2305 785.376 98.7012 785.728 99.3262C786.079 99.9473 786.255 100.717 786.255 101.635ZM784.79 101.676C784.79 100.973 784.679 100.395 784.456 99.9414C784.237 99.4883 783.913 99.1523 783.484 98.9336C783.058 98.7109 782.532 98.5996 781.907 98.5996H780.706V104.822H781.702C782.737 104.822 783.511 104.559 784.023 104.031C784.534 103.504 784.79 102.719 784.79 101.676ZM790.694 99.3906C791.272 99.3906 791.768 99.5098 792.182 99.748C792.596 99.9863 792.915 100.324 793.137 100.762C793.36 101.199 793.471 101.723 793.471 102.332V103.07H789.141C789.157 103.699 789.325 104.184 789.645 104.523C789.97 104.863 790.423 105.033 791.005 105.033C791.419 105.033 791.79 104.994 792.118 104.916C792.45 104.834 792.792 104.715 793.143 104.559V105.678C792.819 105.83 792.489 105.941 792.153 106.012C791.817 106.082 791.415 106.117 790.946 106.117C790.309 106.117 789.749 105.994 789.264 105.748C788.784 105.498 788.407 105.127 788.134 104.635C787.864 104.143 787.729 103.531 787.729 102.801C787.729 102.074 787.852 101.457 788.098 100.949C788.345 100.441 788.69 100.055 789.136 99.7891C789.581 99.5234 790.1 99.3906 790.694 99.3906ZM790.694 100.428C790.261 100.428 789.909 100.568 789.639 100.85C789.374 101.131 789.218 101.543 789.171 102.086H792.124C792.12 101.762 792.065 101.475 791.96 101.225C791.858 100.975 791.702 100.779 791.491 100.639C791.284 100.498 791.018 100.428 790.694 100.428ZM798.414 100.562H796.838V106H795.461V100.562H794.401V99.9004L795.461 99.4961V99.0449C795.461 98.4941 795.547 98.0566 795.719 97.7324C795.895 97.4082 796.145 97.1758 796.469 97.0352C796.797 96.8906 797.188 96.8184 797.641 96.8184C797.938 96.8184 798.209 96.8438 798.455 96.8945C798.702 96.9414 798.909 96.9961 799.077 97.0586L798.719 98.1016C798.586 98.0586 798.438 98.0195 798.274 97.9844C798.11 97.9453 797.934 97.9258 797.746 97.9258C797.434 97.9258 797.204 98.0234 797.055 98.2188C796.911 98.4141 796.838 98.6992 796.838 99.0742V99.5137H798.414V100.562ZM802.215 99.3906C803.035 99.3906 803.654 99.5723 804.072 99.9355C804.494 100.299 804.705 100.865 804.705 101.635V106H803.727L803.463 105.08H803.416C803.232 105.314 803.043 105.508 802.848 105.66C802.652 105.812 802.426 105.926 802.168 106C801.914 106.078 801.604 106.117 801.236 106.117C800.85 106.117 800.504 106.047 800.199 105.906C799.895 105.762 799.654 105.543 799.479 105.25C799.303 104.957 799.215 104.586 799.215 104.137C799.215 103.469 799.463 102.967 799.959 102.631C800.459 102.295 801.213 102.109 802.221 102.074L803.346 102.033V101.693C803.346 101.244 803.24 100.924 803.029 100.732C802.822 100.541 802.529 100.445 802.15 100.445C801.826 100.445 801.512 100.492 801.207 100.586C800.902 100.68 800.605 100.795 800.316 100.932L799.871 99.959C800.188 99.791 800.547 99.6543 800.949 99.5488C801.355 99.4434 801.777 99.3906 802.215 99.3906ZM803.34 102.9L802.502 102.93C801.814 102.953 801.332 103.07 801.055 103.281C800.777 103.492 800.639 103.781 800.639 104.148C800.639 104.469 800.734 104.703 800.926 104.852C801.117 104.996 801.369 105.068 801.682 105.068C802.158 105.068 802.553 104.934 802.865 104.664C803.182 104.391 803.34 103.99 803.34 103.463V102.9ZM812.437 99.5137V106H811.353L811.166 105.127H811.089C810.953 105.35 810.779 105.535 810.568 105.684C810.357 105.828 810.123 105.936 809.865 106.006C809.607 106.08 809.336 106.117 809.05 106.117C808.562 106.117 808.144 106.035 807.796 105.871C807.453 105.703 807.189 105.445 807.005 105.098C806.822 104.75 806.73 104.301 806.73 103.75V99.5137H808.113V103.492C808.113 103.996 808.214 104.373 808.418 104.623C808.625 104.873 808.945 104.998 809.379 104.998C809.796 104.998 810.129 104.912 810.375 104.74C810.621 104.568 810.795 104.314 810.896 103.979C811.002 103.643 811.054 103.23 811.054 102.742V99.5137H812.437ZM815.945 106H814.562V96.8828H815.945V106ZM820.477 105.004C820.657 105.004 820.835 104.988 821.011 104.957C821.186 104.922 821.346 104.881 821.491 104.834V105.877C821.339 105.943 821.141 106 820.899 106.047C820.657 106.094 820.405 106.117 820.143 106.117C819.776 106.117 819.446 106.057 819.153 105.936C818.86 105.811 818.628 105.598 818.456 105.297C818.284 104.996 818.198 104.58 818.198 104.049V100.562H817.313V99.9473L818.263 99.4609L818.714 98.0723H819.581V99.5137H821.438V100.562H819.581V104.031C819.581 104.359 819.663 104.604 819.827 104.764C819.991 104.924 820.208 105.004 820.477 105.004Z" fill="#019AEB"/>
</g>
</g>
<defs>
<clipPath id="clip0_259_59842">
<rect width="960" height="178" fill="white"/>
</clipPath>
<clipPath id="clip1_259_59842">
<rect width="960" height="178.5" fill="white"/>
</clipPath>
</defs>
</svg>
