<svg width="960" height="134" viewBox="0 0 960 134" fill="none" xmlns="http://www.w3.org/2000/svg">
<g clip-path="url(#clip0_650_122358)">
<rect width="479" height="134" fill="#252A2E"/>
<rect width="426" height="54" transform="translate(26.5 40)" fill="#171C1E"/>
<rect x="30.5" y="47" width="90" height="40" rx="20" fill="#353A40"/>
<g clip-path="url(#clip1_650_122358)">
<path d="M51.0003 58.6665C46.4003 58.6665 42.667 62.3998 42.667 66.9998C42.667 71.5998 46.4003 75.3332 51.0003 75.3332C55.6003 75.3332 59.3337 71.5998 59.3337 66.9998C59.3337 62.3998 55.6003 58.6665 51.0003 58.6665ZM51.0003 61.9998C52.7253 61.9998 54.1253 63.3998 54.1253 65.1248C54.1253 66.8498 52.7253 68.2498 51.0003 68.2498C49.2753 68.2498 47.8753 66.8498 47.8753 65.1248C47.8753 63.3998 49.2753 61.9998 51.0003 61.9998ZM51.0003 73.6665C48.6337 73.6665 46.5503 72.4165 45.367 70.5498C45.4753 70.4915 45.592 70.4332 45.7253 70.3748C46.742 69.9082 48.617 69.2332 51.0003 69.2332C53.392 69.2332 55.267 69.9082 56.2753 70.3748C56.4087 70.4332 56.5253 70.4998 56.6337 70.5582C55.4503 72.4248 53.3753 73.6665 51.0003 73.6665Z" fill="#019AEB"/>
</g>
<path d="M67.8945 67.4648H68.4922C69.0508 67.4648 69.4688 67.3555 69.7461 67.1367C70.0234 66.9141 70.1621 66.5918 70.1621 66.1699C70.1621 65.7441 70.0449 65.4297 69.8105 65.2266C69.5801 65.0234 69.2168 64.9219 68.7207 64.9219H67.8945V67.4648ZM71.9961 66.1055C71.9961 67.0273 71.707 67.7324 71.1289 68.2207C70.5547 68.709 69.7363 68.9531 68.6738 68.9531H67.8945V72H66.0781V63.4336H68.8145C69.8535 63.4336 70.6426 63.6582 71.1816 64.1074C71.7246 64.5527 71.9961 65.2188 71.9961 66.1055ZM77.2789 65.3262C77.5211 65.3262 77.7223 65.3438 77.8824 65.3789L77.7477 67.0547C77.6031 67.0156 77.4273 66.9961 77.2203 66.9961C76.65 66.9961 76.2047 67.1426 75.8844 67.4355C75.568 67.7285 75.4098 68.1387 75.4098 68.666V72H73.6227V65.4492H74.9762L75.2398 66.5508H75.3277C75.5309 66.1836 75.8043 65.8887 76.148 65.666C76.4957 65.4395 76.8727 65.3262 77.2789 65.3262ZM80.6457 68.7129C80.6457 69.3613 80.7512 69.8516 80.9621 70.1836C81.177 70.5156 81.5246 70.6816 82.0051 70.6816C82.4816 70.6816 82.8234 70.5176 83.0305 70.1895C83.2414 69.8574 83.3469 69.3652 83.3469 68.7129C83.3469 68.0645 83.2414 67.5781 83.0305 67.2539C82.8195 66.9297 82.4738 66.7676 81.9934 66.7676C81.5168 66.7676 81.173 66.9297 80.9621 67.2539C80.7512 67.5742 80.6457 68.0605 80.6457 68.7129ZM85.175 68.7129C85.175 69.7793 84.8938 70.6133 84.3313 71.2148C83.7688 71.8164 82.9855 72.1172 81.9816 72.1172C81.3527 72.1172 80.798 71.9805 80.3176 71.707C79.8371 71.4297 79.468 71.0332 79.2102 70.5176C78.9523 70.002 78.8234 69.4004 78.8234 68.7129C78.8234 67.6426 79.1027 66.8105 79.6613 66.2168C80.2199 65.623 81.0051 65.3262 82.0168 65.3262C82.6457 65.3262 83.2004 65.4629 83.6809 65.7363C84.1613 66.0098 84.5305 66.4023 84.7883 66.9141C85.0461 67.4258 85.175 68.0254 85.175 68.7129ZM90.4227 66.791H88.8758V72H87.0887V66.791H86.1043V65.9297L87.0887 65.4492V64.9688C87.0887 64.2227 87.2723 63.6777 87.6395 63.334C88.0066 62.9902 88.5945 62.8184 89.4031 62.8184C90.0203 62.8184 90.5691 62.9102 91.0496 63.0938L90.5926 64.4062C90.2332 64.293 89.9012 64.2363 89.5965 64.2363C89.3426 64.2363 89.159 64.3125 89.0457 64.4648C88.9324 64.6133 88.8758 64.8047 88.8758 65.0391V65.4492H90.4227V66.791ZM91.3719 63.7559C91.3719 63.1738 91.6961 62.8828 92.3445 62.8828C92.993 62.8828 93.3172 63.1738 93.3172 63.7559C93.3172 64.0332 93.2352 64.25 93.0711 64.4062C92.9109 64.5586 92.6688 64.6348 92.3445 64.6348C91.6961 64.6348 91.3719 64.3418 91.3719 63.7559ZM93.2352 72H91.448V65.4492H93.2352V72ZM97.0473 72H95.2602V62.8828H97.0473V72ZM101.791 66.5977C101.412 66.5977 101.115 66.7188 100.9 66.9609C100.686 67.1992 100.562 67.5391 100.531 67.9805H103.039C103.031 67.5391 102.916 67.1992 102.693 66.9609C102.471 66.7188 102.17 66.5977 101.791 66.5977ZM102.043 72.1172C100.988 72.1172 100.164 71.8262 99.5703 71.2441C98.9766 70.6621 98.6797 69.8379 98.6797 68.7715C98.6797 67.6738 98.9531 66.8262 99.5 66.2285C100.051 65.627 100.811 65.3262 101.779 65.3262C102.705 65.3262 103.426 65.5898 103.941 66.1172C104.457 66.6445 104.715 67.373 104.715 68.3027V69.1699H100.49C100.51 69.6777 100.66 70.0742 100.941 70.3594C101.223 70.6445 101.617 70.7871 102.125 70.7871C102.52 70.7871 102.893 70.7461 103.244 70.6641C103.596 70.582 103.963 70.4512 104.346 70.2715V71.6543C104.033 71.8105 103.699 71.9258 103.344 72C102.988 72.0781 102.555 72.1172 102.043 72.1172Z" fill="#019AEB"/>
<path d="M150.833 62.0002L152.5 63.6668H160.833C161.291 63.6668 161.666 63.2918 161.666 62.8335C161.666 62.3752 161.291 62.0002 160.833 62.0002H153.333L151.908 60.5752C151.75 60.4168 151.541 60.3335 151.316 60.3335H146.658C145.741 60.3335 144.991 61.0835 144.991 62.0002V72.0002C144.991 72.9168 145.741 73.6668 146.658 73.6668H158.716C159.525 73.6668 160.216 73.0835 160.358 72.2918L160.408 72.0002L161.316 66.8752C161.5 65.8585 160.708 64.9168 159.675 64.9168H149.316C148.508 64.9168 147.816 65.5002 147.675 66.2918L146.666 72.0002V62.0002H150.833Z" fill="#019AEB"/>
<path d="M175.758 67.6348C175.758 69.0449 175.356 70.125 174.551 70.875C173.751 71.625 172.592 72 171.077 72H168.651V63.4336H171.34C172.739 63.4336 173.825 63.8027 174.598 64.541C175.372 65.2793 175.758 66.3105 175.758 67.6348ZM173.872 67.6816C173.872 65.8418 173.059 64.9219 171.434 64.9219H170.467V70.5H171.247C172.997 70.5 173.872 69.5605 173.872 67.6816ZM178.967 68.7129C178.967 69.3613 179.072 69.8516 179.283 70.1836C179.498 70.5156 179.846 70.6816 180.326 70.6816C180.803 70.6816 181.145 70.5176 181.352 70.1895C181.563 69.8574 181.668 69.3652 181.668 68.7129C181.668 68.0645 181.563 67.5781 181.352 67.2539C181.141 66.9297 180.795 66.7676 180.315 66.7676C179.838 66.7676 179.494 66.9297 179.283 67.2539C179.072 67.5742 178.967 68.0605 178.967 68.7129ZM183.496 68.7129C183.496 69.7793 183.215 70.6133 182.653 71.2148C182.09 71.8164 181.307 72.1172 180.303 72.1172C179.674 72.1172 179.119 71.9805 178.639 71.707C178.158 71.4297 177.789 71.0332 177.531 70.5176C177.274 70.002 177.145 69.4004 177.145 68.7129C177.145 67.6426 177.424 66.8105 177.983 66.2168C178.541 65.623 179.326 65.3262 180.338 65.3262C180.967 65.3262 181.522 65.4629 182.002 65.7363C182.483 66.0098 182.852 66.4023 183.11 66.9141C183.367 67.4258 183.496 68.0254 183.496 68.7129ZM187.783 72.1172C185.744 72.1172 184.724 70.998 184.724 68.7598C184.724 67.6465 185.002 66.7969 185.556 66.2109C186.111 65.6211 186.906 65.3262 187.941 65.3262C188.699 65.3262 189.379 65.4746 189.98 65.7715L189.453 67.1543C189.172 67.041 188.91 66.9492 188.668 66.8789C188.426 66.8047 188.183 66.7676 187.941 66.7676C187.012 66.7676 186.547 67.4277 186.547 68.748C186.547 70.0293 187.012 70.6699 187.941 70.6699C188.285 70.6699 188.603 70.625 188.896 70.5352C189.189 70.4414 189.482 70.2969 189.775 70.1016V71.6309C189.486 71.8145 189.193 71.9414 188.896 72.0117C188.603 72.082 188.232 72.1172 187.783 72.1172ZM196.089 72L195.849 71.1621H195.755C195.564 71.4668 195.292 71.7031 194.941 71.8711C194.589 72.0352 194.189 72.1172 193.74 72.1172C192.97 72.1172 192.39 71.9121 191.999 71.502C191.609 71.0879 191.413 70.4941 191.413 69.7207V65.4492H193.201V69.2754C193.201 69.748 193.285 70.1035 193.453 70.3418C193.621 70.5762 193.888 70.6934 194.255 70.6934C194.755 70.6934 195.117 70.5273 195.339 70.1953C195.562 69.8594 195.673 69.3047 195.673 68.5312V65.4492H197.46V72H196.089ZM205.351 72H203.563V68.1738C203.563 67.7012 203.483 67.3477 203.323 67.1133C203.167 66.875 202.919 66.7559 202.579 66.7559C202.122 66.7559 201.79 66.9238 201.583 67.2598C201.376 67.5957 201.272 68.1484 201.272 68.918V72H199.485V65.4492H200.851L201.091 66.2871H201.19C201.366 65.9863 201.62 65.752 201.952 65.584C202.284 65.4121 202.665 65.3262 203.095 65.3262C204.075 65.3262 204.739 65.6465 205.087 66.2871H205.245C205.421 65.9824 205.679 65.7461 206.019 65.5781C206.362 65.4102 206.749 65.3262 207.179 65.3262C207.921 65.3262 208.481 65.5176 208.86 65.9004C209.243 66.2793 209.435 66.8887 209.435 67.7285V72H207.642V68.1738C207.642 67.7012 207.562 67.3477 207.401 67.1133C207.245 66.875 206.997 66.7559 206.657 66.7559C206.22 66.7559 205.892 66.9121 205.673 67.2246C205.458 67.5371 205.351 68.0332 205.351 68.7129V72ZM214.137 66.5977C213.758 66.5977 213.462 66.7188 213.247 66.9609C213.032 67.1992 212.909 67.5391 212.878 67.9805H215.385C215.378 67.5391 215.262 67.1992 215.04 66.9609C214.817 66.7188 214.516 66.5977 214.137 66.5977ZM214.389 72.1172C213.335 72.1172 212.51 71.8262 211.917 71.2441C211.323 70.6621 211.026 69.8379 211.026 68.7715C211.026 67.6738 211.299 66.8262 211.846 66.2285C212.397 65.627 213.157 65.3262 214.126 65.3262C215.051 65.3262 215.772 65.5898 216.288 66.1172C216.803 66.6445 217.061 67.373 217.061 68.3027V69.1699H212.837C212.856 69.6777 213.006 70.0742 213.288 70.3594C213.569 70.6445 213.963 70.7871 214.471 70.7871C214.866 70.7871 215.239 70.7461 215.59 70.6641C215.942 70.582 216.309 70.4512 216.692 70.2715V71.6543C216.379 71.8105 216.046 71.9258 215.69 72C215.335 72.0781 214.901 72.1172 214.389 72.1172ZM224.711 72H222.924V68.1738C222.924 67.7012 222.84 67.3477 222.672 67.1133C222.504 66.875 222.237 66.7559 221.869 66.7559C221.369 66.7559 221.008 66.9238 220.785 67.2598C220.563 67.5918 220.451 68.1445 220.451 68.918V72H218.664V65.4492H220.029L220.27 66.2871H220.369C220.569 65.9707 220.842 65.7324 221.19 65.5723C221.541 65.4082 221.94 65.3262 222.385 65.3262C223.147 65.3262 223.725 65.5332 224.119 65.9473C224.514 66.3574 224.711 66.9512 224.711 67.7285V72ZM229.461 70.6934C229.773 70.6934 230.148 70.625 230.586 70.4883V71.8184C230.14 72.0176 229.594 72.1172 228.945 72.1172C228.23 72.1172 227.709 71.9375 227.381 71.5781C227.056 71.2148 226.894 70.6719 226.894 69.9492V66.791H226.039V66.0352L227.023 65.4375L227.539 64.0547H228.681V65.4492H230.515V66.791H228.681V69.9492C228.681 70.2031 228.752 70.3906 228.892 70.5117C229.037 70.6328 229.226 70.6934 229.461 70.6934ZM236.636 70.0547C236.636 70.7266 236.402 71.2383 235.933 71.5898C235.468 71.9414 234.771 72.1172 233.841 72.1172C233.365 72.1172 232.958 72.084 232.622 72.0176C232.287 71.9551 231.972 71.8613 231.679 71.7363V70.2598C232.011 70.416 232.384 70.5469 232.798 70.6523C233.216 70.7578 233.583 70.8105 233.9 70.8105C234.548 70.8105 234.872 70.623 234.872 70.248C234.872 70.1074 234.829 69.9941 234.744 69.9082C234.658 69.8184 234.509 69.7188 234.298 69.6094C234.087 69.4961 233.806 69.3652 233.454 69.2168C232.951 69.0059 232.579 68.8105 232.341 68.6309C232.107 68.4512 231.935 68.2461 231.826 68.0156C231.72 67.7812 231.667 67.4941 231.667 67.1543C231.667 66.5723 231.892 66.123 232.341 65.8066C232.794 65.4863 233.435 65.3262 234.263 65.3262C235.052 65.3262 235.82 65.498 236.566 65.8418L236.027 67.1309C235.699 66.9902 235.392 66.875 235.107 66.7852C234.822 66.6953 234.531 66.6504 234.234 66.6504C233.706 66.6504 233.443 66.793 233.443 67.0781C233.443 67.2383 233.527 67.377 233.695 67.4941C233.867 67.6113 234.24 67.7852 234.814 68.0156C235.326 68.2227 235.701 68.416 235.939 68.5957C236.177 68.7754 236.353 68.9824 236.466 69.2168C236.579 69.4512 236.636 69.7305 236.636 70.0547Z" fill="#019AEB"/>
<path d="M279.167 58.6665C275.908 58.6998 273.3 61.3665 273.333 64.6165C273.333 64.6332 273.333 64.6498 273.333 64.6665C273.317 67.2748 274.983 69.5998 277.467 70.4165L278.775 74.1915C278.908 74.5665 279.433 74.5665 279.567 74.1915L280.875 70.4165C284.033 69.3665 285.75 65.9582 284.7 62.7915C283.908 60.3915 281.7 58.7498 279.175 58.6665H279.167ZM279.167 66.9998C277.783 66.9998 276.667 65.8832 276.667 64.4998C276.667 63.1165 277.783 61.9998 279.167 61.9998C280.55 61.9998 281.667 63.1165 281.667 64.4998C281.667 65.8832 280.55 66.9998 279.167 66.9998Z" fill="#019AEB"/>
<path d="M298.081 72L296.018 65.2793H295.965C296.04 66.6465 296.077 67.5586 296.077 68.0156V72H294.454V63.4336H296.926L298.954 69.9844H298.989L301.139 63.4336H303.612V72H301.919V67.9453C301.919 67.7539 301.921 67.5332 301.924 67.2832C301.932 67.0332 301.96 66.3691 302.006 65.291H301.954L299.745 72H298.081ZM309.944 72L309.598 71.1094H309.551C309.25 71.4883 308.94 71.752 308.619 71.9004C308.303 72.0449 307.889 72.1172 307.377 72.1172C306.748 72.1172 306.252 71.9375 305.889 71.5781C305.529 71.2188 305.35 70.707 305.35 70.043C305.35 69.3477 305.592 68.8359 306.076 68.5078C306.565 68.1758 307.299 67.9922 308.279 67.957L309.416 67.9219V67.6348C309.416 66.9707 309.076 66.6387 308.397 66.6387C307.873 66.6387 307.258 66.7969 306.551 67.1133L305.959 65.9062C306.713 65.5117 307.549 65.3145 308.467 65.3145C309.346 65.3145 310.02 65.5059 310.488 65.8887C310.957 66.2715 311.192 66.8535 311.192 67.6348V72H309.944ZM309.416 68.9648L308.725 68.9883C308.205 69.0039 307.819 69.0977 307.565 69.2695C307.311 69.4414 307.184 69.7031 307.184 70.0547C307.184 70.5586 307.473 70.8105 308.051 70.8105C308.465 70.8105 308.795 70.6914 309.041 70.4531C309.291 70.2148 309.416 69.8984 309.416 69.5039V68.9648ZM316.785 72.1172C316.015 72.1172 315.412 71.8379 314.974 71.2793H314.881C314.943 71.8262 314.974 72.1426 314.974 72.2285V74.8828H313.187V65.4492H314.64L314.892 66.2988H314.974C315.392 65.6504 316.012 65.3262 316.832 65.3262C317.605 65.3262 318.211 65.625 318.648 66.2227C319.086 66.8203 319.304 67.6504 319.304 68.7129C319.304 69.4121 319.201 70.0195 318.994 70.5352C318.791 71.0508 318.5 71.4434 318.121 71.7129C317.742 71.9824 317.297 72.1172 316.785 72.1172ZM316.258 66.7559C315.816 66.7559 315.494 66.8926 315.291 67.166C315.088 67.4355 314.982 67.8828 314.974 68.5078V68.7012C314.974 69.4043 315.078 69.9082 315.285 70.2129C315.496 70.5176 315.828 70.6699 316.281 70.6699C317.082 70.6699 317.482 70.0098 317.482 68.6895C317.482 68.0449 317.383 67.5625 317.183 67.2422C316.988 66.918 316.679 66.7559 316.258 66.7559ZM325.501 70.0547C325.501 70.7266 325.267 71.2383 324.798 71.5898C324.333 71.9414 323.636 72.1172 322.706 72.1172C322.23 72.1172 321.824 72.084 321.488 72.0176C321.152 71.9551 320.837 71.8613 320.544 71.7363V70.2598C320.876 70.416 321.249 70.5469 321.663 70.6523C322.081 70.7578 322.449 70.8105 322.765 70.8105C323.413 70.8105 323.738 70.623 323.738 70.248C323.738 70.1074 323.695 69.9941 323.609 69.9082C323.523 69.8184 323.374 69.7188 323.163 69.6094C322.953 69.4961 322.671 69.3652 322.32 69.2168C321.816 69.0059 321.445 68.8105 321.206 68.6309C320.972 68.4512 320.8 68.2461 320.691 68.0156C320.585 67.7812 320.533 67.4941 320.533 67.1543C320.533 66.5723 320.757 66.123 321.206 65.8066C321.66 65.4863 322.3 65.3262 323.128 65.3262C323.917 65.3262 324.685 65.498 325.431 65.8418L324.892 67.1309C324.564 66.9902 324.257 66.875 323.972 66.7852C323.687 66.6953 323.396 66.6504 323.099 66.6504C322.572 66.6504 322.308 66.793 322.308 67.0781C322.308 67.2383 322.392 67.377 322.56 67.4941C322.732 67.6113 323.105 67.7852 323.679 68.0156C324.191 68.2227 324.566 68.416 324.804 68.5957C325.042 68.7754 325.218 68.9824 325.331 69.2168C325.445 69.4512 325.501 69.7305 325.501 70.0547Z" fill="#019AEB"/>
<path d="M376.592 66.9832C376.592 66.7165 376.567 66.4582 376.533 66.1998L377.925 65.0832C378.25 64.8248 378.333 64.3665 378.125 64.0165L377.5 62.9498L376.883 61.8748C376.675 61.5165 376.242 61.3665 375.858 61.5165L374.217 62.1582C373.8 61.8332 373.333 61.5582 372.842 61.3498L372.575 59.6248C372.517 59.2165 372.158 58.9165 371.75 58.9165H370.508H369.267C368.85 58.9165 368.5 59.2165 368.442 59.6248L368.183 61.3332C367.675 61.5415 367.2 61.8165 366.775 62.1498L365.167 61.5165C364.783 61.3665 364.342 61.5165 364.142 61.8748L363.525 62.9498L362.9 64.0165C362.692 64.3748 362.775 64.8248 363.1 65.0832L364.45 66.1665C364.417 66.4332 364.392 66.7082 364.392 66.9832C364.392 67.2582 364.417 67.5498 364.458 67.8248L363.108 68.9082C362.783 69.1665 362.7 69.6248 362.908 69.9748L363.533 71.0415L364.15 72.1165C364.358 72.4748 364.792 72.6248 365.175 72.4748L366.808 71.8332C367.233 72.1498 367.692 72.4248 368.192 72.6248L368.458 74.3665C368.517 74.7748 368.875 75.0748 369.283 75.0748H370.525H371.767C372.183 75.0748 372.533 74.7748 372.592 74.3665L372.858 72.6082C373.342 72.4082 373.792 72.1332 374.208 71.8248L375.875 72.4748C376.258 72.6248 376.7 72.4748 376.9 72.1165L377.517 71.0415L378.142 69.9748C378.35 69.6165 378.267 69.1665 377.942 68.9082L376.55 67.7915C376.583 67.5248 376.608 67.2582 376.608 66.9832H376.592ZM371.075 69.8665C369.017 70.2582 367.25 68.4915 367.642 66.4332C367.858 65.2915 368.792 64.3582 369.933 64.1415C371.992 63.7498 373.758 65.5165 373.367 67.5748C373.15 68.7165 372.217 69.6498 371.075 69.8665Z" fill="#019AEB"/>
<path d="M390.893 69.6211C390.893 70.3945 390.614 71.0039 390.055 71.4492C389.5 71.8945 388.727 72.1172 387.735 72.1172C386.821 72.1172 386.012 71.9453 385.309 71.6016V69.9141C385.887 70.1719 386.375 70.3535 386.774 70.459C387.176 70.5645 387.543 70.6172 387.875 70.6172C388.274 70.6172 388.579 70.541 388.789 70.3887C389.004 70.2363 389.112 70.0098 389.112 69.709C389.112 69.541 389.065 69.3926 388.971 69.2637C388.877 69.1309 388.739 69.0039 388.555 68.8828C388.375 68.7617 388.006 68.5684 387.448 68.3027C386.924 68.0566 386.532 67.8203 386.27 67.5938C386.008 67.3672 385.799 67.1035 385.643 66.8027C385.487 66.502 385.409 66.1504 385.409 65.748C385.409 64.9902 385.664 64.3945 386.176 63.9609C386.692 63.5273 387.403 63.3105 388.309 63.3105C388.754 63.3105 389.178 63.3633 389.58 63.4688C389.987 63.5742 390.411 63.7227 390.852 63.9141L390.266 65.3262C389.809 65.1387 389.43 65.0078 389.129 64.9336C388.832 64.8594 388.539 64.8223 388.25 64.8223C387.907 64.8223 387.643 64.9023 387.459 65.0625C387.276 65.2227 387.184 65.4316 387.184 65.6895C387.184 65.8496 387.221 65.9902 387.295 66.1113C387.37 66.2285 387.487 66.3438 387.647 66.457C387.811 66.5664 388.196 66.7656 388.801 67.0547C389.602 67.4375 390.151 67.8223 390.448 68.209C390.745 68.5918 390.893 69.0625 390.893 69.6211ZM395.168 66.5977C394.789 66.5977 394.492 66.7188 394.277 66.9609C394.063 67.1992 393.939 67.5391 393.908 67.9805H396.416C396.408 67.5391 396.293 67.1992 396.07 66.9609C395.848 66.7188 395.547 66.5977 395.168 66.5977ZM395.42 72.1172C394.365 72.1172 393.541 71.8262 392.947 71.2441C392.354 70.6621 392.057 69.8379 392.057 68.7715C392.057 67.6738 392.33 66.8262 392.877 66.2285C393.428 65.627 394.188 65.3262 395.156 65.3262C396.082 65.3262 396.803 65.5898 397.318 66.1172C397.834 66.6445 398.092 67.373 398.092 68.3027V69.1699H393.867C393.887 69.6777 394.037 70.0742 394.318 70.3594C394.6 70.6445 394.994 70.7871 395.502 70.7871C395.896 70.7871 396.27 70.7461 396.621 70.6641C396.973 70.582 397.34 70.4512 397.723 70.2715V71.6543C397.41 71.8105 397.076 71.9258 396.721 72C396.365 72.0781 395.932 72.1172 395.42 72.1172ZM402.455 70.6934C402.767 70.6934 403.142 70.625 403.58 70.4883V71.8184C403.134 72.0176 402.588 72.1172 401.939 72.1172C401.224 72.1172 400.703 71.9375 400.375 71.5781C400.05 71.2148 399.888 70.6719 399.888 69.9492V66.791H399.033V66.0352L400.017 65.4375L400.533 64.0547H401.675V65.4492H403.509V66.791H401.675V69.9492C401.675 70.2031 401.746 70.3906 401.886 70.5117C402.031 70.6328 402.22 70.6934 402.455 70.6934ZM407.82 70.6934C408.132 70.6934 408.507 70.625 408.945 70.4883V71.8184C408.499 72.0176 407.952 72.1172 407.304 72.1172C406.589 72.1172 406.068 71.9375 405.739 71.5781C405.415 71.2148 405.253 70.6719 405.253 69.9492V66.791H404.398V66.0352L405.382 65.4375L405.898 64.0547H407.04V65.4492H408.874V66.791H407.04V69.9492C407.04 70.2031 407.111 70.3906 407.251 70.5117C407.396 70.6328 407.585 70.6934 407.82 70.6934ZM410.348 63.7559C410.348 63.1738 410.673 62.8828 411.321 62.8828C411.97 62.8828 412.294 63.1738 412.294 63.7559C412.294 64.0332 412.212 64.25 412.048 64.4062C411.888 64.5586 411.645 64.6348 411.321 64.6348C410.673 64.6348 410.348 64.3418 410.348 63.7559ZM412.212 72H410.425V65.4492H412.212V72ZM420.289 72H418.502V68.1738C418.502 67.7012 418.418 67.3477 418.25 67.1133C418.082 66.875 417.815 66.7559 417.448 66.7559C416.948 66.7559 416.586 66.9238 416.364 67.2598C416.141 67.5918 416.03 68.1445 416.03 68.918V72H414.243V65.4492H415.608L415.848 66.2871H415.948C416.147 65.9707 416.42 65.7324 416.768 65.5723C417.12 65.4082 417.518 65.3262 417.963 65.3262C418.725 65.3262 419.303 65.5332 419.698 65.9473C420.092 66.3574 420.289 66.9512 420.289 67.7285V72ZM427.98 65.4492V66.3574L426.955 66.6211C427.143 66.9141 427.236 67.2422 427.236 67.6055C427.236 68.3086 426.99 68.8574 426.498 69.252C426.01 69.6426 425.33 69.8379 424.459 69.8379L424.137 69.8203L423.873 69.791C423.689 69.9316 423.598 70.0879 423.598 70.2598C423.598 70.5176 423.926 70.6465 424.582 70.6465H425.695C426.414 70.6465 426.961 70.8008 427.336 71.1094C427.715 71.418 427.904 71.8711 427.904 72.4688C427.904 73.2344 427.584 73.8281 426.943 74.25C426.307 74.6719 425.391 74.8828 424.195 74.8828C423.281 74.8828 422.582 74.7227 422.098 74.4023C421.617 74.0859 421.377 73.6406 421.377 73.0664C421.377 72.6719 421.5 72.3418 421.746 72.0762C421.992 71.8105 422.354 71.6211 422.83 71.5078C422.646 71.4297 422.486 71.3027 422.35 71.127C422.213 70.9473 422.145 70.7578 422.145 70.5586C422.145 70.3086 422.217 70.1016 422.361 69.9375C422.506 69.7695 422.715 69.6055 422.988 69.4453C422.645 69.2969 422.371 69.0586 422.168 68.7305C421.969 68.4023 421.869 68.0156 421.869 67.5703C421.869 66.8555 422.102 66.3027 422.566 65.9121C423.031 65.5215 423.695 65.3262 424.559 65.3262C424.742 65.3262 424.959 65.3438 425.209 65.3789C425.463 65.4102 425.625 65.4336 425.695 65.4492H427.98ZM422.924 72.9258C422.924 73.1719 423.041 73.3652 423.275 73.5059C423.514 73.6465 423.846 73.7168 424.271 73.7168C424.912 73.7168 425.414 73.6289 425.777 73.4531C426.141 73.2773 426.322 73.0371 426.322 72.7324C426.322 72.4863 426.215 72.3164 426 72.2227C425.785 72.1289 425.453 72.082 425.004 72.082H424.078C423.75 72.082 423.475 72.1582 423.252 72.3105C423.033 72.4668 422.924 72.6719 422.924 72.9258ZM423.574 67.5938C423.574 67.9492 423.654 68.2305 423.814 68.4375C423.979 68.6445 424.227 68.748 424.559 68.748C424.895 68.748 425.141 68.6445 425.297 68.4375C425.453 68.2305 425.531 67.9492 425.531 67.5938C425.531 66.8047 425.207 66.4102 424.559 66.4102C423.902 66.4102 423.574 66.8047 423.574 67.5938ZM433.785 70.0547C433.785 70.7266 433.55 71.2383 433.082 71.5898C432.617 71.9414 431.92 72.1172 430.99 72.1172C430.513 72.1172 430.107 72.084 429.771 72.0176C429.435 71.9551 429.121 71.8613 428.828 71.7363V70.2598C429.16 70.416 429.533 70.5469 429.947 70.6523C430.365 70.7578 430.732 70.8105 431.048 70.8105C431.697 70.8105 432.021 70.623 432.021 70.248C432.021 70.1074 431.978 69.9941 431.892 69.9082C431.806 69.8184 431.658 69.7188 431.447 69.6094C431.236 69.4961 430.955 69.3652 430.603 69.2168C430.099 69.0059 429.728 68.8105 429.49 68.6309C429.255 68.4512 429.084 68.2461 428.974 68.0156C428.869 67.7812 428.816 67.4941 428.816 67.1543C428.816 66.5723 429.041 66.123 429.49 65.8066C429.943 65.4863 430.584 65.3262 431.412 65.3262C432.201 65.3262 432.968 65.498 433.714 65.8418L433.175 67.1309C432.847 66.9902 432.541 66.875 432.255 66.7852C431.97 66.6953 431.679 66.6504 431.382 66.6504C430.855 66.6504 430.591 66.793 430.591 67.0781C430.591 67.2383 430.675 67.377 430.843 67.4941C431.015 67.6113 431.388 67.7852 431.963 68.0156C432.474 68.2227 432.849 68.416 433.088 68.5957C433.326 68.7754 433.502 68.9824 433.615 69.2168C433.728 69.4512 433.785 69.7305 433.785 70.0547Z" fill="#019AEB"/>
<rect width="479" height="134" transform="translate(481)" fill="#252A2E"/>
<rect width="378" height="54" transform="translate(531.5 40)" fill="#171C1E"/>
<rect x="543" y="47" width="66" height="40" fill="#353A40"/>
<g clip-path="url(#clip2_650_122358)">
<path d="M576 48.6665C571.4 48.6665 567.667 52.3998 567.667 56.9998C567.667 61.5998 571.4 65.3332 576 65.3332C580.6 65.3332 584.334 61.5998 584.334 56.9998C584.334 52.3998 580.6 48.6665 576 48.6665ZM576 51.9998C577.725 51.9998 579.125 53.3998 579.125 55.1248C579.125 56.8498 577.725 58.2498 576 58.2498C574.275 58.2498 572.875 56.8498 572.875 55.1248C572.875 53.3998 574.275 51.9998 576 51.9998ZM576 63.6665C573.634 63.6665 571.55 62.4165 570.367 60.5498C570.475 60.4915 570.592 60.4332 570.725 60.3748C571.742 59.9082 573.617 59.2332 576 59.2332C578.392 59.2332 580.267 59.9082 581.275 60.3748C581.409 60.4332 581.525 60.4998 581.634 60.5582C580.45 62.4248 578.375 63.6665 576 63.6665Z" fill="#019AEB"/>
</g>
<path d="M558.779 77.4648H559.377C559.936 77.4648 560.354 77.3555 560.631 77.1367C560.908 76.9141 561.047 76.5918 561.047 76.1699C561.047 75.7441 560.93 75.4297 560.695 75.2266C560.465 75.0234 560.102 74.9219 559.605 74.9219H558.779V77.4648ZM562.881 76.1055C562.881 77.0273 562.592 77.7324 562.014 78.2207C561.439 78.709 560.621 78.9531 559.559 78.9531H558.779V82H556.963V73.4336H559.699C560.738 73.4336 561.527 73.6582 562.066 74.1074C562.609 74.5527 562.881 75.2188 562.881 76.1055ZM568.164 75.3262C568.406 75.3262 568.607 75.3438 568.767 75.3789L568.632 77.0547C568.488 77.0156 568.312 76.9961 568.105 76.9961C567.535 76.9961 567.089 77.1426 566.769 77.4355C566.453 77.7285 566.295 78.1387 566.295 78.666V82H564.507V75.4492H565.861L566.125 76.5508H566.212C566.416 76.1836 566.689 75.8887 567.033 75.666C567.38 75.4395 567.757 75.3262 568.164 75.3262ZM571.53 78.7129C571.53 79.3613 571.636 79.8516 571.847 80.1836C572.062 80.5156 572.409 80.6816 572.89 80.6816C573.366 80.6816 573.708 80.5176 573.915 80.1895C574.126 79.8574 574.232 79.3652 574.232 78.7129C574.232 78.0645 574.126 77.5781 573.915 77.2539C573.704 76.9297 573.359 76.7676 572.878 76.7676C572.402 76.7676 572.058 76.9297 571.847 77.2539C571.636 77.5742 571.53 78.0605 571.53 78.7129ZM576.06 78.7129C576.06 79.7793 575.779 80.6133 575.216 81.2148C574.654 81.8164 573.87 82.1172 572.866 82.1172C572.237 82.1172 571.683 81.9805 571.202 81.707C570.722 81.4297 570.353 81.0332 570.095 80.5176C569.837 80.002 569.708 79.4004 569.708 78.7129C569.708 77.6426 569.987 76.8105 570.546 76.2168C571.105 75.623 571.89 75.3262 572.902 75.3262C573.53 75.3262 574.085 75.4629 574.566 75.7363C575.046 76.0098 575.415 76.4023 575.673 76.9141C575.931 77.4258 576.06 78.0254 576.06 78.7129ZM581.307 76.791H579.761V82H577.973V76.791H576.989V75.9297L577.973 75.4492V74.9688C577.973 74.2227 578.157 73.6777 578.524 73.334C578.891 72.9902 579.479 72.8184 580.288 72.8184C580.905 72.8184 581.454 72.9102 581.934 73.0938L581.477 74.4062C581.118 74.293 580.786 74.2363 580.481 74.2363C580.227 74.2363 580.044 74.3125 579.93 74.4648C579.817 74.6133 579.761 74.8047 579.761 75.0391V75.4492H581.307V76.791ZM582.257 73.7559C582.257 73.1738 582.581 72.8828 583.229 72.8828C583.878 72.8828 584.202 73.1738 584.202 73.7559C584.202 74.0332 584.12 74.25 583.956 74.4062C583.796 74.5586 583.554 74.6348 583.229 74.6348C582.581 74.6348 582.257 74.3418 582.257 73.7559ZM584.12 82H582.333V75.4492H584.12V82ZM587.932 82H586.145V72.8828H587.932V82ZM592.676 76.5977C592.297 76.5977 592 76.7188 591.785 76.9609C591.57 77.1992 591.447 77.5391 591.416 77.9805H593.924C593.916 77.5391 593.801 77.1992 593.578 76.9609C593.355 76.7188 593.055 76.5977 592.676 76.5977ZM592.928 82.1172C591.873 82.1172 591.049 81.8262 590.455 81.2441C589.861 80.6621 589.564 79.8379 589.564 78.7715C589.564 77.6738 589.838 76.8262 590.385 76.2285C590.936 75.627 591.695 75.3262 592.664 75.3262C593.59 75.3262 594.311 75.5898 594.826 76.1172C595.342 76.6445 595.6 77.373 595.6 78.3027V79.1699H591.375C591.395 79.6777 591.545 80.0742 591.826 80.3594C592.107 80.6445 592.502 80.7871 593.01 80.7871C593.404 80.7871 593.777 80.7461 594.129 80.6641C594.48 80.582 594.848 80.4512 595.23 80.2715V81.6543C594.918 81.8105 594.584 81.9258 594.229 82C593.873 82.0781 593.439 82.1172 592.928 82.1172Z" fill="#019AEB"/>
<path d="M667.833 52.0002L669.5 53.6668H677.833C678.291 53.6668 678.666 53.2918 678.666 52.8335C678.666 52.3752 678.291 52.0002 677.833 52.0002H670.333L668.908 50.5752C668.75 50.4168 668.541 50.3335 668.316 50.3335H663.658C662.741 50.3335 661.991 51.0835 661.991 52.0002V62.0002C661.991 62.9168 662.741 63.6668 663.658 63.6668H675.716C676.525 63.6668 677.216 63.0835 677.358 62.2918L677.408 62.0002L678.316 56.8752C678.5 55.8585 677.708 54.9168 676.675 54.9168H666.316C665.508 54.9168 664.816 55.5002 664.675 56.2918L663.666 62.0002V52.0002H667.833Z" fill="#019AEB"/>
<path d="M643.758 77.6348C643.758 79.0449 643.356 80.125 642.551 80.875C641.751 81.625 640.592 82 639.077 82H636.651V73.4336H639.34C640.739 73.4336 641.825 73.8027 642.598 74.541C643.372 75.2793 643.758 76.3105 643.758 77.6348ZM641.872 77.6816C641.872 75.8418 641.059 74.9219 639.434 74.9219H638.467V80.5H639.247C640.997 80.5 641.872 79.5605 641.872 77.6816ZM646.967 78.7129C646.967 79.3613 647.072 79.8516 647.283 80.1836C647.498 80.5156 647.846 80.6816 648.326 80.6816C648.803 80.6816 649.145 80.5176 649.352 80.1895C649.563 79.8574 649.668 79.3652 649.668 78.7129C649.668 78.0645 649.563 77.5781 649.352 77.2539C649.141 76.9297 648.795 76.7676 648.315 76.7676C647.838 76.7676 647.494 76.9297 647.283 77.2539C647.072 77.5742 646.967 78.0605 646.967 78.7129ZM651.496 78.7129C651.496 79.7793 651.215 80.6133 650.653 81.2148C650.09 81.8164 649.307 82.1172 648.303 82.1172C647.674 82.1172 647.119 81.9805 646.639 81.707C646.158 81.4297 645.789 81.0332 645.531 80.5176C645.274 80.002 645.145 79.4004 645.145 78.7129C645.145 77.6426 645.424 76.8105 645.983 76.2168C646.541 75.623 647.326 75.3262 648.338 75.3262C648.967 75.3262 649.522 75.4629 650.002 75.7363C650.483 76.0098 650.852 76.4023 651.11 76.9141C651.367 77.4258 651.496 78.0254 651.496 78.7129ZM655.783 82.1172C653.744 82.1172 652.724 80.998 652.724 78.7598C652.724 77.6465 653.002 76.7969 653.556 76.2109C654.111 75.6211 654.906 75.3262 655.941 75.3262C656.699 75.3262 657.379 75.4746 657.98 75.7715L657.453 77.1543C657.172 77.041 656.91 76.9492 656.668 76.8789C656.426 76.8047 656.183 76.7676 655.941 76.7676C655.012 76.7676 654.547 77.4277 654.547 78.748C654.547 80.0293 655.012 80.6699 655.941 80.6699C656.285 80.6699 656.603 80.625 656.896 80.5352C657.189 80.4414 657.482 80.2969 657.775 80.1016V81.6309C657.486 81.8145 657.193 81.9414 656.896 82.0117C656.603 82.082 656.232 82.1172 655.783 82.1172ZM664.089 82L663.849 81.1621H663.755C663.564 81.4668 663.292 81.7031 662.941 81.8711C662.589 82.0352 662.189 82.1172 661.74 82.1172C660.97 82.1172 660.39 81.9121 659.999 81.502C659.609 81.0879 659.413 80.4941 659.413 79.7207V75.4492H661.201V79.2754C661.201 79.748 661.285 80.1035 661.453 80.3418C661.621 80.5762 661.888 80.6934 662.255 80.6934C662.755 80.6934 663.117 80.5273 663.339 80.1953C663.562 79.8594 663.673 79.3047 663.673 78.5312V75.4492H665.46V82H664.089ZM673.351 82H671.563V78.1738C671.563 77.7012 671.483 77.3477 671.323 77.1133C671.167 76.875 670.919 76.7559 670.579 76.7559C670.122 76.7559 669.79 76.9238 669.583 77.2598C669.376 77.5957 669.272 78.1484 669.272 78.918V82H667.485V75.4492H668.851L669.091 76.2871H669.19C669.366 75.9863 669.62 75.752 669.952 75.584C670.284 75.4121 670.665 75.3262 671.095 75.3262C672.075 75.3262 672.739 75.6465 673.087 76.2871H673.245C673.421 75.9824 673.679 75.7461 674.019 75.5781C674.362 75.4102 674.749 75.3262 675.179 75.3262C675.921 75.3262 676.481 75.5176 676.86 75.9004C677.243 76.2793 677.435 76.8887 677.435 77.7285V82H675.642V78.1738C675.642 77.7012 675.562 77.3477 675.401 77.1133C675.245 76.875 674.997 76.7559 674.657 76.7559C674.22 76.7559 673.892 76.9121 673.673 77.2246C673.458 77.5371 673.351 78.0332 673.351 78.7129V82ZM682.137 76.5977C681.758 76.5977 681.462 76.7188 681.247 76.9609C681.032 77.1992 680.909 77.5391 680.878 77.9805H683.385C683.378 77.5391 683.262 77.1992 683.04 76.9609C682.817 76.7188 682.516 76.5977 682.137 76.5977ZM682.389 82.1172C681.335 82.1172 680.51 81.8262 679.917 81.2441C679.323 80.6621 679.026 79.8379 679.026 78.7715C679.026 77.6738 679.299 76.8262 679.846 76.2285C680.397 75.627 681.157 75.3262 682.126 75.3262C683.051 75.3262 683.772 75.5898 684.288 76.1172C684.803 76.6445 685.061 77.373 685.061 78.3027V79.1699H680.837C680.856 79.6777 681.006 80.0742 681.288 80.3594C681.569 80.6445 681.963 80.7871 682.471 80.7871C682.866 80.7871 683.239 80.7461 683.59 80.6641C683.942 80.582 684.309 80.4512 684.692 80.2715V81.6543C684.379 81.8105 684.046 81.9258 683.69 82C683.335 82.0781 682.901 82.1172 682.389 82.1172ZM692.711 82H690.924V78.1738C690.924 77.7012 690.84 77.3477 690.672 77.1133C690.504 76.875 690.237 76.7559 689.869 76.7559C689.369 76.7559 689.008 76.9238 688.785 77.2598C688.563 77.5918 688.451 78.1445 688.451 78.918V82H686.664V75.4492H688.029L688.27 76.2871H688.369C688.569 75.9707 688.842 75.7324 689.19 75.5723C689.541 75.4082 689.94 75.3262 690.385 75.3262C691.147 75.3262 691.725 75.5332 692.119 75.9473C692.514 76.3574 692.711 76.9512 692.711 77.7285V82ZM697.461 80.6934C697.773 80.6934 698.148 80.625 698.586 80.4883V81.8184C698.14 82.0176 697.594 82.1172 696.945 82.1172C696.23 82.1172 695.709 81.9375 695.381 81.5781C695.056 81.2148 694.894 80.6719 694.894 79.9492V76.791H694.039V76.0352L695.023 75.4375L695.539 74.0547H696.681V75.4492H698.515V76.791H696.681V79.9492C696.681 80.2031 696.752 80.3906 696.892 80.5117C697.037 80.6328 697.226 80.6934 697.461 80.6934ZM704.636 80.0547C704.636 80.7266 704.402 81.2383 703.933 81.5898C703.468 81.9414 702.771 82.1172 701.841 82.1172C701.365 82.1172 700.958 82.084 700.622 82.0176C700.287 81.9551 699.972 81.8613 699.679 81.7363V80.2598C700.011 80.416 700.384 80.5469 700.798 80.6523C701.216 80.7578 701.583 80.8105 701.9 80.8105C702.548 80.8105 702.872 80.623 702.872 80.248C702.872 80.1074 702.829 79.9941 702.744 79.9082C702.658 79.8184 702.509 79.7188 702.298 79.6094C702.087 79.4961 701.806 79.3652 701.454 79.2168C700.951 79.0059 700.579 78.8105 700.341 78.6309C700.107 78.4512 699.935 78.2461 699.826 78.0156C699.72 77.7812 699.667 77.4941 699.667 77.1543C699.667 76.5723 699.892 76.123 700.341 75.8066C700.794 75.4863 701.435 75.3262 702.263 75.3262C703.052 75.3262 703.82 75.498 704.566 75.8418L704.027 77.1309C703.699 76.9902 703.392 76.875 703.107 76.7852C702.822 76.6953 702.531 76.6504 702.234 76.6504C701.706 76.6504 701.443 76.793 701.443 77.0781C701.443 77.2383 701.527 77.377 701.695 77.4941C701.867 77.6113 702.24 77.7852 702.814 78.0156C703.326 78.2227 703.701 78.416 703.939 78.5957C704.177 78.7754 704.353 78.9824 704.466 79.2168C704.579 79.4512 704.636 79.7305 704.636 80.0547Z" fill="#019AEB"/>
<path d="M766.667 48.6665C763.408 48.6998 760.8 51.3665 760.833 54.6165C760.833 54.6332 760.833 54.6498 760.833 54.6665C760.817 57.2748 762.483 59.5998 764.967 60.4165L766.275 64.1915C766.408 64.5665 766.933 64.5665 767.067 64.1915L768.375 60.4165C771.533 59.3665 773.25 55.9582 772.2 52.7915C771.408 50.3915 769.2 48.7498 766.675 48.6665H766.667ZM766.667 56.9998C765.283 56.9998 764.167 55.8832 764.167 54.4998C764.167 53.1165 765.283 51.9998 766.667 51.9998C768.05 51.9998 769.167 53.1165 769.167 54.4998C769.167 55.8832 768.05 56.9998 766.667 56.9998Z" fill="#019AEB"/>
<path d="M755.081 82L753.018 75.2793H752.965C753.04 76.6465 753.077 77.5586 753.077 78.0156V82H751.454V73.4336H753.926L755.954 79.9844H755.989L758.139 73.4336H760.612V82H758.919V77.9453C758.919 77.7539 758.921 77.5332 758.924 77.2832C758.932 77.0332 758.96 76.3691 759.006 75.291H758.954L756.745 82H755.081ZM766.944 82L766.598 81.1094H766.551C766.25 81.4883 765.94 81.752 765.619 81.9004C765.303 82.0449 764.889 82.1172 764.377 82.1172C763.748 82.1172 763.252 81.9375 762.889 81.5781C762.529 81.2188 762.35 80.707 762.35 80.043C762.35 79.3477 762.592 78.8359 763.076 78.5078C763.565 78.1758 764.299 77.9922 765.279 77.957L766.416 77.9219V77.6348C766.416 76.9707 766.076 76.6387 765.397 76.6387C764.873 76.6387 764.258 76.7969 763.551 77.1133L762.959 75.9062C763.713 75.5117 764.549 75.3145 765.467 75.3145C766.346 75.3145 767.02 75.5059 767.488 75.8887C767.957 76.2715 768.192 76.8535 768.192 77.6348V82H766.944ZM766.416 78.9648L765.725 78.9883C765.205 79.0039 764.819 79.0977 764.565 79.2695C764.311 79.4414 764.184 79.7031 764.184 80.0547C764.184 80.5586 764.473 80.8105 765.051 80.8105C765.465 80.8105 765.795 80.6914 766.041 80.4531C766.291 80.2148 766.416 79.8984 766.416 79.5039V78.9648ZM773.785 82.1172C773.015 82.1172 772.412 81.8379 771.974 81.2793H771.881C771.943 81.8262 771.974 82.1426 771.974 82.2285V84.8828H770.187V75.4492H771.64L771.892 76.2988H771.974C772.392 75.6504 773.012 75.3262 773.832 75.3262C774.605 75.3262 775.211 75.625 775.648 76.2227C776.086 76.8203 776.304 77.6504 776.304 78.7129C776.304 79.4121 776.201 80.0195 775.994 80.5352C775.791 81.0508 775.5 81.4434 775.121 81.7129C774.742 81.9824 774.297 82.1172 773.785 82.1172ZM773.258 76.7559C772.816 76.7559 772.494 76.8926 772.291 77.166C772.088 77.4355 771.982 77.8828 771.974 78.5078V78.7012C771.974 79.4043 772.078 79.9082 772.285 80.2129C772.496 80.5176 772.828 80.6699 773.281 80.6699C774.082 80.6699 774.482 80.0098 774.482 78.6895C774.482 78.0449 774.383 77.5625 774.183 77.2422C773.988 76.918 773.679 76.7559 773.258 76.7559ZM782.501 80.0547C782.501 80.7266 782.267 81.2383 781.798 81.5898C781.333 81.9414 780.636 82.1172 779.706 82.1172C779.23 82.1172 778.824 82.084 778.488 82.0176C778.152 81.9551 777.837 81.8613 777.544 81.7363V80.2598C777.876 80.416 778.249 80.5469 778.663 80.6523C779.081 80.7578 779.449 80.8105 779.765 80.8105C780.413 80.8105 780.738 80.623 780.738 80.248C780.738 80.1074 780.695 79.9941 780.609 79.9082C780.523 79.8184 780.374 79.7188 780.163 79.6094C779.953 79.4961 779.671 79.3652 779.32 79.2168C778.816 79.0059 778.445 78.8105 778.206 78.6309C777.972 78.4512 777.8 78.2461 777.691 78.0156C777.585 77.7812 777.533 77.4941 777.533 77.1543C777.533 76.5723 777.757 76.123 778.206 75.8066C778.66 75.4863 779.3 75.3262 780.128 75.3262C780.917 75.3262 781.685 75.498 782.431 75.8418L781.892 77.1309C781.564 76.9902 781.257 76.875 780.972 76.7852C780.687 76.6953 780.396 76.6504 780.099 76.6504C779.572 76.6504 779.308 76.793 779.308 77.0781C779.308 77.2383 779.392 77.377 779.56 77.4941C779.732 77.6113 780.105 77.7852 780.679 78.0156C781.191 78.2227 781.566 78.416 781.804 78.5957C782.042 78.7754 782.218 78.9824 782.331 79.2168C782.445 79.4512 782.501 79.7305 782.501 80.0547Z" fill="#019AEB"/>
<path d="M869.092 56.9832C869.092 56.7165 869.067 56.4582 869.033 56.1998L870.425 55.0832C870.75 54.8248 870.833 54.3665 870.625 54.0165L870 52.9498L869.383 51.8748C869.175 51.5165 868.742 51.3665 868.358 51.5165L866.717 52.1582C866.3 51.8332 865.833 51.5582 865.342 51.3498L865.075 49.6248C865.017 49.2165 864.658 48.9165 864.25 48.9165H863.008H861.767C861.35 48.9165 861 49.2165 860.942 49.6248L860.683 51.3332C860.175 51.5415 859.7 51.8165 859.275 52.1498L857.667 51.5165C857.283 51.3665 856.842 51.5165 856.642 51.8748L856.025 52.9498L855.4 54.0165C855.192 54.3748 855.275 54.8248 855.6 55.0832L856.95 56.1665C856.917 56.4332 856.892 56.7082 856.892 56.9832C856.892 57.2582 856.917 57.5498 856.958 57.8248L855.608 58.9082C855.283 59.1665 855.2 59.6248 855.408 59.9748L856.033 61.0415L856.65 62.1165C856.858 62.4748 857.292 62.6248 857.675 62.4748L859.308 61.8332C859.733 62.1498 860.192 62.4248 860.692 62.6248L860.958 64.3665C861.017 64.7748 861.375 65.0748 861.783 65.0748H863.025H864.267C864.683 65.0748 865.033 64.7748 865.092 64.3665L865.358 62.6082C865.842 62.4082 866.292 62.1332 866.708 61.8248L868.375 62.4748C868.758 62.6248 869.2 62.4748 869.4 62.1165L870.017 61.0415L870.642 59.9748C870.85 59.6165 870.767 59.1665 870.442 58.9082L869.05 57.7915C869.083 57.5248 869.108 57.2582 869.108 56.9832H869.092ZM863.575 59.8665C861.517 60.2582 859.75 58.4915 860.142 56.4332C860.358 55.2915 861.292 54.3582 862.433 54.1415C864.492 53.7498 866.258 55.5165 865.867 57.5748C865.65 58.7165 864.717 59.6498 863.575 59.8665Z" fill="#019AEB"/>
<path d="M844.393 79.6211C844.393 80.3945 844.114 81.0039 843.555 81.4492C843 81.8945 842.227 82.1172 841.235 82.1172C840.321 82.1172 839.512 81.9453 838.809 81.6016V79.9141C839.387 80.1719 839.875 80.3535 840.274 80.459C840.676 80.5645 841.043 80.6172 841.375 80.6172C841.774 80.6172 842.079 80.541 842.289 80.3887C842.504 80.2363 842.612 80.0098 842.612 79.709C842.612 79.541 842.565 79.3926 842.471 79.2637C842.377 79.1309 842.239 79.0039 842.055 78.8828C841.875 78.7617 841.506 78.5684 840.948 78.3027C840.424 78.0566 840.032 77.8203 839.77 77.5938C839.508 77.3672 839.299 77.1035 839.143 76.8027C838.987 76.502 838.909 76.1504 838.909 75.748C838.909 74.9902 839.164 74.3945 839.676 73.9609C840.192 73.5273 840.903 73.3105 841.809 73.3105C842.254 73.3105 842.678 73.3633 843.08 73.4688C843.487 73.5742 843.911 73.7227 844.352 73.9141L843.766 75.3262C843.309 75.1387 842.93 75.0078 842.629 74.9336C842.332 74.8594 842.039 74.8223 841.75 74.8223C841.407 74.8223 841.143 74.9023 840.959 75.0625C840.776 75.2227 840.684 75.4316 840.684 75.6895C840.684 75.8496 840.721 75.9902 840.795 76.1113C840.87 76.2285 840.987 76.3438 841.147 76.457C841.311 76.5664 841.696 76.7656 842.301 77.0547C843.102 77.4375 843.651 77.8223 843.948 78.209C844.245 78.5918 844.393 79.0625 844.393 79.6211ZM848.668 76.5977C848.289 76.5977 847.992 76.7188 847.777 76.9609C847.563 77.1992 847.439 77.5391 847.408 77.9805H849.916C849.908 77.5391 849.793 77.1992 849.57 76.9609C849.348 76.7188 849.047 76.5977 848.668 76.5977ZM848.92 82.1172C847.865 82.1172 847.041 81.8262 846.447 81.2441C845.854 80.6621 845.557 79.8379 845.557 78.7715C845.557 77.6738 845.83 76.8262 846.377 76.2285C846.928 75.627 847.688 75.3262 848.656 75.3262C849.582 75.3262 850.303 75.5898 850.818 76.1172C851.334 76.6445 851.592 77.373 851.592 78.3027V79.1699H847.367C847.387 79.6777 847.537 80.0742 847.818 80.3594C848.1 80.6445 848.494 80.7871 849.002 80.7871C849.396 80.7871 849.77 80.7461 850.121 80.6641C850.473 80.582 850.84 80.4512 851.223 80.2715V81.6543C850.91 81.8105 850.576 81.9258 850.221 82C849.865 82.0781 849.432 82.1172 848.92 82.1172ZM855.955 80.6934C856.267 80.6934 856.642 80.625 857.08 80.4883V81.8184C856.634 82.0176 856.088 82.1172 855.439 82.1172C854.724 82.1172 854.203 81.9375 853.875 81.5781C853.55 81.2148 853.388 80.6719 853.388 79.9492V76.791H852.533V76.0352L853.517 75.4375L854.033 74.0547H855.175V75.4492H857.009V76.791H855.175V79.9492C855.175 80.2031 855.246 80.3906 855.386 80.5117C855.531 80.6328 855.72 80.6934 855.955 80.6934ZM861.32 80.6934C861.632 80.6934 862.007 80.625 862.445 80.4883V81.8184C861.999 82.0176 861.452 82.1172 860.804 82.1172C860.089 82.1172 859.568 81.9375 859.239 81.5781C858.915 81.2148 858.753 80.6719 858.753 79.9492V76.791H857.898V76.0352L858.882 75.4375L859.398 74.0547H860.54V75.4492H862.374V76.791H860.54V79.9492C860.54 80.2031 860.611 80.3906 860.751 80.5117C860.896 80.6328 861.085 80.6934 861.32 80.6934ZM863.848 73.7559C863.848 73.1738 864.173 72.8828 864.821 72.8828C865.47 72.8828 865.794 73.1738 865.794 73.7559C865.794 74.0332 865.712 74.25 865.548 74.4062C865.388 74.5586 865.145 74.6348 864.821 74.6348C864.173 74.6348 863.848 74.3418 863.848 73.7559ZM865.712 82H863.925V75.4492H865.712V82ZM873.789 82H872.002V78.1738C872.002 77.7012 871.918 77.3477 871.75 77.1133C871.582 76.875 871.315 76.7559 870.948 76.7559C870.448 76.7559 870.086 76.9238 869.864 77.2598C869.641 77.5918 869.53 78.1445 869.53 78.918V82H867.743V75.4492H869.108L869.348 76.2871H869.448C869.647 75.9707 869.92 75.7324 870.268 75.5723C870.62 75.4082 871.018 75.3262 871.463 75.3262C872.225 75.3262 872.803 75.5332 873.198 75.9473C873.592 76.3574 873.789 76.9512 873.789 77.7285V82ZM881.48 75.4492V76.3574L880.455 76.6211C880.643 76.9141 880.736 77.2422 880.736 77.6055C880.736 78.3086 880.49 78.8574 879.998 79.252C879.51 79.6426 878.83 79.8379 877.959 79.8379L877.637 79.8203L877.373 79.791C877.189 79.9316 877.098 80.0879 877.098 80.2598C877.098 80.5176 877.426 80.6465 878.082 80.6465H879.195C879.914 80.6465 880.461 80.8008 880.836 81.1094C881.215 81.418 881.404 81.8711 881.404 82.4688C881.404 83.2344 881.084 83.8281 880.443 84.25C879.807 84.6719 878.891 84.8828 877.695 84.8828C876.781 84.8828 876.082 84.7227 875.598 84.4023C875.117 84.0859 874.877 83.6406 874.877 83.0664C874.877 82.6719 875 82.3418 875.246 82.0762C875.492 81.8105 875.854 81.6211 876.33 81.5078C876.146 81.4297 875.986 81.3027 875.85 81.127C875.713 80.9473 875.645 80.7578 875.645 80.5586C875.645 80.3086 875.717 80.1016 875.861 79.9375C876.006 79.7695 876.215 79.6055 876.488 79.4453C876.145 79.2969 875.871 79.0586 875.668 78.7305C875.469 78.4023 875.369 78.0156 875.369 77.5703C875.369 76.8555 875.602 76.3027 876.066 75.9121C876.531 75.5215 877.195 75.3262 878.059 75.3262C878.242 75.3262 878.459 75.3438 878.709 75.3789C878.963 75.4102 879.125 75.4336 879.195 75.4492H881.48ZM876.424 82.9258C876.424 83.1719 876.541 83.3652 876.775 83.5059C877.014 83.6465 877.346 83.7168 877.771 83.7168C878.412 83.7168 878.914 83.6289 879.277 83.4531C879.641 83.2773 879.822 83.0371 879.822 82.7324C879.822 82.4863 879.715 82.3164 879.5 82.2227C879.285 82.1289 878.953 82.082 878.504 82.082H877.578C877.25 82.082 876.975 82.1582 876.752 82.3105C876.533 82.4668 876.424 82.6719 876.424 82.9258ZM877.074 77.5938C877.074 77.9492 877.154 78.2305 877.314 78.4375C877.479 78.6445 877.727 78.748 878.059 78.748C878.395 78.748 878.641 78.6445 878.797 78.4375C878.953 78.2305 879.031 77.9492 879.031 77.5938C879.031 76.8047 878.707 76.4102 878.059 76.4102C877.402 76.4102 877.074 76.8047 877.074 77.5938ZM887.285 80.0547C887.285 80.7266 887.05 81.2383 886.582 81.5898C886.117 81.9414 885.42 82.1172 884.49 82.1172C884.013 82.1172 883.607 82.084 883.271 82.0176C882.935 81.9551 882.621 81.8613 882.328 81.7363V80.2598C882.66 80.416 883.033 80.5469 883.447 80.6523C883.865 80.7578 884.232 80.8105 884.548 80.8105C885.197 80.8105 885.521 80.623 885.521 80.248C885.521 80.1074 885.478 79.9941 885.392 79.9082C885.306 79.8184 885.158 79.7188 884.947 79.6094C884.736 79.4961 884.455 79.3652 884.103 79.2168C883.599 79.0059 883.228 78.8105 882.99 78.6309C882.755 78.4512 882.584 78.2461 882.474 78.0156C882.369 77.7812 882.316 77.4941 882.316 77.1543C882.316 76.5723 882.541 76.123 882.99 75.8066C883.443 75.4863 884.084 75.3262 884.912 75.3262C885.701 75.3262 886.468 75.498 887.214 75.8418L886.675 77.1309C886.347 76.9902 886.041 76.875 885.755 76.7852C885.47 76.6953 885.179 76.6504 884.882 76.6504C884.355 76.6504 884.091 76.793 884.091 77.0781C884.091 77.2383 884.175 77.377 884.343 77.4941C884.515 77.6113 884.888 77.7852 885.463 78.0156C885.974 78.2227 886.349 78.416 886.588 78.5957C886.826 78.7754 887.002 78.9824 887.115 79.2168C887.228 79.4512 887.285 79.7305 887.285 80.0547Z" fill="#019AEB"/>
</g>
<defs>
<clipPath id="clip0_650_122358">
<rect width="960" height="134" fill="white"/>
</clipPath>
<clipPath id="clip1_650_122358">
<rect width="20" height="20" fill="white" transform="translate(41 57)"/>
</clipPath>
<clipPath id="clip2_650_122358">
<rect width="20" height="20" fill="white" transform="translate(566 47)"/>
</clipPath>
</defs>
</svg>
