<svg width="960" height="144" viewBox="0 0 960 144" fill="none" xmlns="http://www.w3.org/2000/svg">
<g clip-path="url(#clip0_637_122493)">
<rect width="479" height="144" fill="#F1F1F6"/>
<rect width="388" height="64" transform="translate(45.5 40)" fill="white"/>
<rect x="53.5" y="48" width="93" height="48" rx="24" fill="#DCEDF9"/>
<g clip-path="url(#clip1_637_122493)">
<path d="M100 53.6665C95.4003 53.6665 91.667 57.3998 91.667 61.9998C91.667 66.5998 95.4003 70.3332 100 70.3332C104.6 70.3332 108.334 66.5998 108.334 61.9998C108.334 57.3998 104.6 53.6665 100 53.6665ZM100 56.9998C101.725 56.9998 103.125 58.3998 103.125 60.1248C103.125 61.8498 101.725 63.2498 100 63.2498C98.2753 63.2498 96.8753 61.8498 96.8753 60.1248C96.8753 58.3998 98.2753 56.9998 100 56.9998ZM100 68.6665C97.6337 68.6665 95.5503 67.4165 94.367 65.5498C94.4753 65.4915 94.592 65.4332 94.7253 65.3748C95.742 64.9082 97.617 64.2332 100 64.2332C102.392 64.2332 104.267 64.9082 105.275 65.3748C105.409 65.4332 105.525 65.4998 105.634 65.5582C104.45 67.4248 102.375 68.6665 100 68.6665Z" fill="#0063A3"/>
</g>
<path d="M82.7793 82.4648H83.377C83.9355 82.4648 84.3535 82.3555 84.6309 82.1367C84.9082 81.9141 85.0469 81.5918 85.0469 81.1699C85.0469 80.7441 84.9297 80.4297 84.6953 80.2266C84.4648 80.0234 84.1016 79.9219 83.6055 79.9219H82.7793V82.4648ZM86.8809 81.1055C86.8809 82.0273 86.5918 82.7324 86.0137 83.2207C85.4395 83.709 84.6211 83.9531 83.5586 83.9531H82.7793V87H80.9629V78.4336H83.6992C84.7383 78.4336 85.5273 78.6582 86.0664 79.1074C86.6094 79.5527 86.8809 80.2188 86.8809 81.1055ZM92.1637 80.3262C92.4059 80.3262 92.607 80.3438 92.7672 80.3789L92.6324 82.0547C92.4879 82.0156 92.3121 81.9961 92.1051 81.9961C91.5348 81.9961 91.0895 82.1426 90.7691 82.4355C90.4527 82.7285 90.2945 83.1387 90.2945 83.666V87H88.5074V80.4492H89.8609L90.1246 81.5508H90.2125C90.4156 81.1836 90.6891 80.8887 91.0328 80.666C91.3805 80.4395 91.7574 80.3262 92.1637 80.3262ZM95.5305 83.7129C95.5305 84.3613 95.6359 84.8516 95.8469 85.1836C96.0617 85.5156 96.4094 85.6816 96.8898 85.6816C97.3664 85.6816 97.7082 85.5176 97.9152 85.1895C98.1262 84.8574 98.2316 84.3652 98.2316 83.7129C98.2316 83.0645 98.1262 82.5781 97.9152 82.2539C97.7043 81.9297 97.3586 81.7676 96.8781 81.7676C96.4016 81.7676 96.0578 81.9297 95.8469 82.2539C95.6359 82.5742 95.5305 83.0605 95.5305 83.7129ZM100.06 83.7129C100.06 84.7793 99.7785 85.6133 99.216 86.2148C98.6535 86.8164 97.8703 87.1172 96.8664 87.1172C96.2375 87.1172 95.6828 86.9805 95.2023 86.707C94.7219 86.4297 94.3527 86.0332 94.0949 85.5176C93.8371 85.002 93.7082 84.4004 93.7082 83.7129C93.7082 82.6426 93.9875 81.8105 94.5461 81.2168C95.1047 80.623 95.8898 80.3262 96.9016 80.3262C97.5305 80.3262 98.0852 80.4629 98.5656 80.7363C99.0461 81.0098 99.4152 81.4023 99.673 81.9141C99.9309 82.4258 100.06 83.0254 100.06 83.7129ZM105.307 81.791H103.761V87H101.973V81.791H100.989V80.9297L101.973 80.4492V79.9688C101.973 79.2227 102.157 78.6777 102.524 78.334C102.891 77.9902 103.479 77.8184 104.288 77.8184C104.905 77.8184 105.454 77.9102 105.934 78.0938L105.477 79.4062C105.118 79.293 104.786 79.2363 104.481 79.2363C104.227 79.2363 104.044 79.3125 103.93 79.4648C103.817 79.6133 103.761 79.8047 103.761 80.0391V80.4492H105.307V81.791ZM106.257 78.7559C106.257 78.1738 106.581 77.8828 107.229 77.8828C107.878 77.8828 108.202 78.1738 108.202 78.7559C108.202 79.0332 108.12 79.25 107.956 79.4062C107.796 79.5586 107.554 79.6348 107.229 79.6348C106.581 79.6348 106.257 79.3418 106.257 78.7559ZM108.12 87H106.333V80.4492H108.12V87ZM111.932 87H110.145V77.8828H111.932V87ZM116.676 81.5977C116.297 81.5977 116 81.7188 115.785 81.9609C115.57 82.1992 115.447 82.5391 115.416 82.9805H117.924C117.916 82.5391 117.801 82.1992 117.578 81.9609C117.355 81.7188 117.055 81.5977 116.676 81.5977ZM116.928 87.1172C115.873 87.1172 115.049 86.8262 114.455 86.2441C113.861 85.6621 113.564 84.8379 113.564 83.7715C113.564 82.6738 113.838 81.8262 114.385 81.2285C114.936 80.627 115.695 80.3262 116.664 80.3262C117.59 80.3262 118.311 80.5898 118.826 81.1172C119.342 81.6445 119.6 82.373 119.6 83.3027V84.1699H115.375C115.395 84.6777 115.545 85.0742 115.826 85.3594C116.107 85.6445 116.502 85.7871 117.01 85.7871C117.404 85.7871 117.777 85.7461 118.129 85.6641C118.48 85.582 118.848 85.4512 119.23 85.2715V86.6543C118.918 86.8105 118.584 86.9258 118.229 87C117.873 87.0781 117.439 87.1172 116.928 87.1172Z" fill="#0063A3"/>
<path d="M190.5 57.0002L192.167 58.6668H200.5C200.958 58.6668 201.333 58.2918 201.333 57.8335C201.333 57.3752 200.958 57.0002 200.5 57.0002H193L191.575 55.5752C191.417 55.4168 191.208 55.3335 190.983 55.3335H186.325C185.408 55.3335 184.658 56.0835 184.658 57.0002V67.0002C184.658 67.9168 185.408 68.6668 186.325 68.6668H198.383C199.192 68.6668 199.883 68.0835 200.025 67.2918L200.075 67.0002L200.983 61.8752C201.167 60.8585 200.375 59.9168 199.342 59.9168H188.983C188.175 59.9168 187.483 60.5002 187.342 61.2918L186.333 67.0002V57.0002H190.5Z" fill="#0063A3"/>
<path d="M166.425 82.6348C166.425 84.0449 166.023 85.125 165.218 85.875C164.418 86.625 163.259 87 161.744 87H159.318V78.4336H162.007C163.406 78.4336 164.492 78.8027 165.265 79.541C166.039 80.2793 166.425 81.3105 166.425 82.6348ZM164.539 82.6816C164.539 80.8418 163.726 79.9219 162.101 79.9219H161.134V85.5H161.914C163.664 85.5 164.539 84.5605 164.539 82.6816ZM169.634 83.7129C169.634 84.3613 169.739 84.8516 169.95 85.1836C170.165 85.5156 170.513 85.6816 170.993 85.6816C171.47 85.6816 171.812 85.5176 172.019 85.1895C172.23 84.8574 172.335 84.3652 172.335 83.7129C172.335 83.0645 172.23 82.5781 172.019 82.2539C171.808 81.9297 171.462 81.7676 170.982 81.7676C170.505 81.7676 170.161 81.9297 169.95 82.2539C169.739 82.5742 169.634 83.0605 169.634 83.7129ZM174.163 83.7129C174.163 84.7793 173.882 85.6133 173.32 86.2148C172.757 86.8164 171.974 87.1172 170.97 87.1172C170.341 87.1172 169.786 86.9805 169.306 86.707C168.825 86.4297 168.456 86.0332 168.198 85.5176C167.941 85.002 167.812 84.4004 167.812 83.7129C167.812 82.6426 168.091 81.8105 168.65 81.2168C169.208 80.623 169.993 80.3262 171.005 80.3262C171.634 80.3262 172.189 80.4629 172.669 80.7363C173.15 81.0098 173.519 81.4023 173.777 81.9141C174.034 82.4258 174.163 83.0254 174.163 83.7129ZM178.45 87.1172C176.411 87.1172 175.391 85.998 175.391 83.7598C175.391 82.6465 175.669 81.7969 176.223 81.2109C176.778 80.6211 177.573 80.3262 178.608 80.3262C179.366 80.3262 180.046 80.4746 180.647 80.7715L180.12 82.1543C179.839 82.041 179.577 81.9492 179.335 81.8789C179.093 81.8047 178.85 81.7676 178.608 81.7676C177.679 81.7676 177.214 82.4277 177.214 83.748C177.214 85.0293 177.679 85.6699 178.608 85.6699C178.952 85.6699 179.27 85.625 179.563 85.5352C179.856 85.4414 180.149 85.2969 180.442 85.1016V86.6309C180.153 86.8145 179.86 86.9414 179.563 87.0117C179.27 87.082 178.899 87.1172 178.45 87.1172ZM186.756 87L186.516 86.1621H186.422C186.231 86.4668 185.959 86.7031 185.608 86.8711C185.256 87.0352 184.856 87.1172 184.407 87.1172C183.637 87.1172 183.057 86.9121 182.666 86.502C182.276 86.0879 182.08 85.4941 182.08 84.7207V80.4492H183.868V84.2754C183.868 84.748 183.952 85.1035 184.12 85.3418C184.288 85.5762 184.555 85.6934 184.922 85.6934C185.422 85.6934 185.784 85.5273 186.006 85.1953C186.229 84.8594 186.34 84.3047 186.34 83.5312V80.4492H188.127V87H186.756ZM196.018 87H194.23V83.1738C194.23 82.7012 194.15 82.3477 193.99 82.1133C193.834 81.875 193.586 81.7559 193.246 81.7559C192.789 81.7559 192.457 81.9238 192.25 82.2598C192.043 82.5957 191.939 83.1484 191.939 83.918V87H190.152V80.4492H191.518L191.758 81.2871H191.857C192.033 80.9863 192.287 80.752 192.619 80.584C192.951 80.4121 193.332 80.3262 193.762 80.3262C194.742 80.3262 195.406 80.6465 195.754 81.2871H195.912C196.088 80.9824 196.346 80.7461 196.686 80.5781C197.029 80.4102 197.416 80.3262 197.846 80.3262C198.588 80.3262 199.148 80.5176 199.527 80.9004C199.91 81.2793 200.102 81.8887 200.102 82.7285V87H198.309V83.1738C198.309 82.7012 198.229 82.3477 198.068 82.1133C197.912 81.875 197.664 81.7559 197.324 81.7559C196.887 81.7559 196.559 81.9121 196.34 82.2246C196.125 82.5371 196.018 83.0332 196.018 83.7129V87ZM204.804 81.5977C204.425 81.5977 204.129 81.7188 203.914 81.9609C203.699 82.1992 203.576 82.5391 203.545 82.9805H206.052C206.045 82.5391 205.929 82.1992 205.707 81.9609C205.484 81.7188 205.183 81.5977 204.804 81.5977ZM205.056 87.1172C204.002 87.1172 203.177 86.8262 202.584 86.2441C201.99 85.6621 201.693 84.8379 201.693 83.7715C201.693 82.6738 201.966 81.8262 202.513 81.2285C203.064 80.627 203.824 80.3262 204.793 80.3262C205.718 80.3262 206.439 80.5898 206.955 81.1172C207.47 81.6445 207.728 82.373 207.728 83.3027V84.1699H203.504C203.523 84.6777 203.673 85.0742 203.955 85.3594C204.236 85.6445 204.63 85.7871 205.138 85.7871C205.533 85.7871 205.906 85.7461 206.257 85.6641C206.609 85.582 206.976 85.4512 207.359 85.2715V86.6543C207.046 86.8105 206.713 86.9258 206.357 87C206.002 87.0781 205.568 87.1172 205.056 87.1172ZM215.378 87H213.591V83.1738C213.591 82.7012 213.507 82.3477 213.339 82.1133C213.171 81.875 212.904 81.7559 212.536 81.7559C212.036 81.7559 211.675 81.9238 211.452 82.2598C211.23 82.5918 211.118 83.1445 211.118 83.918V87H209.331V80.4492H210.696L210.937 81.2871H211.036C211.236 80.9707 211.509 80.7324 211.857 80.5723C212.208 80.4082 212.607 80.3262 213.052 80.3262C213.814 80.3262 214.392 80.5332 214.786 80.9473C215.181 81.3574 215.378 81.9512 215.378 82.7285V87ZM220.128 85.6934C220.44 85.6934 220.815 85.625 221.253 85.4883V86.8184C220.807 87.0176 220.261 87.1172 219.612 87.1172C218.897 87.1172 218.376 86.9375 218.048 86.5781C217.723 86.2148 217.561 85.6719 217.561 84.9492V81.791H216.706V81.0352L217.69 80.4375L218.206 79.0547H219.348V80.4492H221.182V81.791H219.348V84.9492C219.348 85.2031 219.419 85.3906 219.559 85.5117C219.704 85.6328 219.893 85.6934 220.128 85.6934ZM227.303 85.0547C227.303 85.7266 227.069 86.2383 226.6 86.5898C226.135 86.9414 225.438 87.1172 224.508 87.1172C224.032 87.1172 223.625 87.084 223.289 87.0176C222.954 86.9551 222.639 86.8613 222.346 86.7363V85.2598C222.678 85.416 223.051 85.5469 223.465 85.6523C223.883 85.7578 224.25 85.8105 224.567 85.8105C225.215 85.8105 225.539 85.623 225.539 85.248C225.539 85.1074 225.496 84.9941 225.411 84.9082C225.325 84.8184 225.176 84.7188 224.965 84.6094C224.754 84.4961 224.473 84.3652 224.121 84.2168C223.618 84.0059 223.246 83.8105 223.008 83.6309C222.774 83.4512 222.602 83.2461 222.493 83.0156C222.387 82.7812 222.334 82.4941 222.334 82.1543C222.334 81.5723 222.559 81.123 223.008 80.8066C223.461 80.4863 224.102 80.3262 224.93 80.3262C225.719 80.3262 226.487 80.498 227.233 80.8418L226.694 82.1309C226.366 81.9902 226.059 81.875 225.774 81.7852C225.489 81.6953 225.198 81.6504 224.901 81.6504C224.373 81.6504 224.11 81.793 224.11 82.0781C224.11 82.2383 224.194 82.377 224.362 82.4941C224.534 82.6113 224.907 82.7852 225.481 83.0156C225.993 83.2227 226.368 83.416 226.606 83.5957C226.844 83.7754 227.02 83.9824 227.133 84.2168C227.246 84.4512 227.303 84.7305 227.303 85.0547Z" fill="#0063A3"/>
<path fill-rule="evenodd" clip-rule="evenodd" d="M281 58.3823C281 55.7983 283.132 53.6665 285.716 53.6665C288.3 53.6665 290.367 55.7337 290.432 58.3823C290.432 60.4495 289.01 62.2582 287.137 62.8396L286.491 66.0696L285.716 70.3332L284.941 66.0696L284.295 62.8396C282.357 62.2582 281 60.4495 281 58.3823ZM287.848 58.3176C287.848 59.4949 286.893 60.4494 285.716 60.4494C284.538 60.4494 283.584 59.4949 283.584 58.3176C283.584 57.1402 284.538 56.1858 285.716 56.1858C286.893 56.1858 287.848 57.1402 287.848 58.3176Z" fill="#0063A3"/>
<path d="M274.414 87L272.351 80.2793H272.298C272.373 81.6465 272.41 82.5586 272.41 83.0156V87H270.787V78.4336H273.259L275.287 84.9844H275.322L277.472 78.4336H279.945V87H278.252V82.9453C278.252 82.7539 278.254 82.5332 278.257 82.2832C278.265 82.0332 278.293 81.3691 278.339 80.291H278.287L276.078 87H274.414ZM286.277 87L285.931 86.1094H285.884C285.583 86.4883 285.273 86.752 284.952 86.9004C284.636 87.0449 284.222 87.1172 283.71 87.1172C283.081 87.1172 282.585 86.9375 282.222 86.5781C281.862 86.2188 281.683 85.707 281.683 85.043C281.683 84.3477 281.925 83.8359 282.409 83.5078C282.898 83.1758 283.632 82.9922 284.612 82.957L285.749 82.9219V82.6348C285.749 81.9707 285.409 81.6387 284.73 81.6387C284.206 81.6387 283.591 81.7969 282.884 82.1133L282.292 80.9062C283.046 80.5117 283.882 80.3145 284.8 80.3145C285.679 80.3145 286.353 80.5059 286.821 80.8887C287.29 81.2715 287.525 81.8535 287.525 82.6348V87H286.277ZM285.749 83.9648L285.058 83.9883C284.538 84.0039 284.152 84.0977 283.898 84.2695C283.644 84.4414 283.517 84.7031 283.517 85.0547C283.517 85.5586 283.806 85.8105 284.384 85.8105C284.798 85.8105 285.128 85.6914 285.374 85.4531C285.624 85.2148 285.749 84.8984 285.749 84.5039V83.9648ZM293.118 87.1172C292.348 87.1172 291.745 86.8379 291.307 86.2793H291.214C291.276 86.8262 291.307 87.1426 291.307 87.2285V89.8828H289.52V80.4492H290.973L291.225 81.2988H291.307C291.725 80.6504 292.345 80.3262 293.165 80.3262C293.938 80.3262 294.544 80.625 294.981 81.2227C295.419 81.8203 295.637 82.6504 295.637 83.7129C295.637 84.4121 295.534 85.0195 295.327 85.5352C295.124 86.0508 294.833 86.4434 294.454 86.7129C294.075 86.9824 293.63 87.1172 293.118 87.1172ZM292.591 81.7559C292.149 81.7559 291.827 81.8926 291.624 82.166C291.421 82.4355 291.315 82.8828 291.307 83.5078V83.7012C291.307 84.4043 291.411 84.9082 291.618 85.2129C291.829 85.5176 292.161 85.6699 292.614 85.6699C293.415 85.6699 293.815 85.0098 293.815 83.6895C293.815 83.0449 293.716 82.5625 293.516 82.2422C293.321 81.918 293.012 81.7559 292.591 81.7559ZM301.834 85.0547C301.834 85.7266 301.6 86.2383 301.131 86.5898C300.666 86.9414 299.969 87.1172 299.039 87.1172C298.563 87.1172 298.157 87.084 297.821 87.0176C297.485 86.9551 297.17 86.8613 296.877 86.7363V85.2598C297.209 85.416 297.582 85.5469 297.996 85.6523C298.414 85.7578 298.782 85.8105 299.098 85.8105C299.746 85.8105 300.071 85.623 300.071 85.248C300.071 85.1074 300.028 84.9941 299.942 84.9082C299.856 84.8184 299.707 84.7188 299.496 84.6094C299.286 84.4961 299.004 84.3652 298.653 84.2168C298.149 84.0059 297.778 83.8105 297.539 83.6309C297.305 83.4512 297.133 83.2461 297.024 83.0156C296.918 82.7812 296.866 82.4941 296.866 82.1543C296.866 81.5723 297.09 81.123 297.539 80.8066C297.993 80.4863 298.633 80.3262 299.461 80.3262C300.25 80.3262 301.018 80.498 301.764 80.8418L301.225 82.1309C300.897 81.9902 300.59 81.875 300.305 81.7852C300.02 81.6953 299.729 81.6504 299.432 81.6504C298.905 81.6504 298.641 81.793 298.641 82.0781C298.641 82.2383 298.725 82.377 298.893 82.4941C299.065 82.6113 299.438 82.7852 300.012 83.0156C300.524 83.2227 300.899 83.416 301.137 83.5957C301.375 83.7754 301.551 83.9824 301.664 84.2168C301.778 84.4512 301.834 84.7305 301.834 85.0547Z" fill="#0063A3"/>
<path d="M385.092 61.9832C385.092 61.7165 385.067 61.4582 385.033 61.1998L386.425 60.0832C386.75 59.8248 386.833 59.3665 386.625 59.0165L386 57.9498L385.383 56.8748C385.175 56.5165 384.742 56.3665 384.358 56.5165L382.717 57.1582C382.3 56.8332 381.833 56.5582 381.342 56.3498L381.075 54.6248C381.017 54.2165 380.658 53.9165 380.25 53.9165H379.008H377.767C377.35 53.9165 377 54.2165 376.942 54.6248L376.683 56.3332C376.175 56.5415 375.7 56.8165 375.275 57.1498L373.667 56.5165C373.283 56.3665 372.842 56.5165 372.642 56.8748L372.025 57.9498L371.4 59.0165C371.192 59.3748 371.275 59.8248 371.6 60.0832L372.95 61.1665C372.917 61.4332 372.892 61.7082 372.892 61.9832C372.892 62.2582 372.917 62.5498 372.958 62.8248L371.608 63.9082C371.283 64.1665 371.2 64.6248 371.408 64.9748L372.033 66.0415L372.65 67.1165C372.858 67.4748 373.292 67.6248 373.675 67.4748L375.308 66.8332C375.733 67.1498 376.192 67.4248 376.692 67.6248L376.958 69.3665C377.017 69.7748 377.375 70.0748 377.783 70.0748H379.025H380.267C380.683 70.0748 381.033 69.7748 381.092 69.3665L381.358 67.6082C381.842 67.4082 382.292 67.1332 382.708 66.8248L384.375 67.4748C384.758 67.6248 385.2 67.4748 385.4 67.1165L386.017 66.0415L386.642 64.9748C386.85 64.6165 386.767 64.1665 386.442 63.9082L385.05 62.7915C385.083 62.5248 385.108 62.2582 385.108 61.9832H385.092ZM379.575 64.8665C377.517 65.2582 375.75 63.4915 376.142 61.4332C376.358 60.2915 377.292 59.3582 378.433 59.1415C380.492 58.7498 382.258 60.5165 381.867 62.5748C381.65 63.7165 380.717 64.6498 379.575 64.8665Z" fill="#0063A3"/>
<path d="M360.393 84.6211C360.393 85.3945 360.114 86.0039 359.555 86.4492C359 86.8945 358.227 87.1172 357.235 87.1172C356.321 87.1172 355.512 86.9453 354.809 86.6016V84.9141C355.387 85.1719 355.875 85.3535 356.274 85.459C356.676 85.5645 357.043 85.6172 357.375 85.6172C357.774 85.6172 358.079 85.541 358.289 85.3887C358.504 85.2363 358.612 85.0098 358.612 84.709C358.612 84.541 358.565 84.3926 358.471 84.2637C358.377 84.1309 358.239 84.0039 358.055 83.8828C357.875 83.7617 357.506 83.5684 356.948 83.3027C356.424 83.0566 356.032 82.8203 355.77 82.5938C355.508 82.3672 355.299 82.1035 355.143 81.8027C354.987 81.502 354.909 81.1504 354.909 80.748C354.909 79.9902 355.164 79.3945 355.676 78.9609C356.192 78.5273 356.903 78.3105 357.809 78.3105C358.254 78.3105 358.678 78.3633 359.08 78.4688C359.487 78.5742 359.911 78.7227 360.352 78.9141L359.766 80.3262C359.309 80.1387 358.93 80.0078 358.629 79.9336C358.332 79.8594 358.039 79.8223 357.75 79.8223C357.407 79.8223 357.143 79.9023 356.959 80.0625C356.776 80.2227 356.684 80.4316 356.684 80.6895C356.684 80.8496 356.721 80.9902 356.795 81.1113C356.87 81.2285 356.987 81.3438 357.147 81.457C357.311 81.5664 357.696 81.7656 358.301 82.0547C359.102 82.4375 359.651 82.8223 359.948 83.209C360.245 83.5918 360.393 84.0625 360.393 84.6211ZM364.668 81.5977C364.289 81.5977 363.992 81.7188 363.777 81.9609C363.563 82.1992 363.439 82.5391 363.408 82.9805H365.916C365.908 82.5391 365.793 82.1992 365.57 81.9609C365.348 81.7188 365.047 81.5977 364.668 81.5977ZM364.92 87.1172C363.865 87.1172 363.041 86.8262 362.447 86.2441C361.854 85.6621 361.557 84.8379 361.557 83.7715C361.557 82.6738 361.83 81.8262 362.377 81.2285C362.928 80.627 363.688 80.3262 364.656 80.3262C365.582 80.3262 366.303 80.5898 366.818 81.1172C367.334 81.6445 367.592 82.373 367.592 83.3027V84.1699H363.367C363.387 84.6777 363.537 85.0742 363.818 85.3594C364.1 85.6445 364.494 85.7871 365.002 85.7871C365.396 85.7871 365.77 85.7461 366.121 85.6641C366.473 85.582 366.84 85.4512 367.223 85.2715V86.6543C366.91 86.8105 366.576 86.9258 366.221 87C365.865 87.0781 365.432 87.1172 364.92 87.1172ZM371.955 85.6934C372.267 85.6934 372.642 85.625 373.08 85.4883V86.8184C372.634 87.0176 372.088 87.1172 371.439 87.1172C370.724 87.1172 370.203 86.9375 369.875 86.5781C369.55 86.2148 369.388 85.6719 369.388 84.9492V81.791H368.533V81.0352L369.517 80.4375L370.033 79.0547H371.175V80.4492H373.009V81.791H371.175V84.9492C371.175 85.2031 371.246 85.3906 371.386 85.5117C371.531 85.6328 371.72 85.6934 371.955 85.6934ZM377.32 85.6934C377.632 85.6934 378.007 85.625 378.445 85.4883V86.8184C377.999 87.0176 377.452 87.1172 376.804 87.1172C376.089 87.1172 375.568 86.9375 375.239 86.5781C374.915 86.2148 374.753 85.6719 374.753 84.9492V81.791H373.898V81.0352L374.882 80.4375L375.398 79.0547H376.54V80.4492H378.374V81.791H376.54V84.9492C376.54 85.2031 376.611 85.3906 376.751 85.5117C376.896 85.6328 377.085 85.6934 377.32 85.6934ZM379.848 78.7559C379.848 78.1738 380.173 77.8828 380.821 77.8828C381.47 77.8828 381.794 78.1738 381.794 78.7559C381.794 79.0332 381.712 79.25 381.548 79.4062C381.388 79.5586 381.145 79.6348 380.821 79.6348C380.173 79.6348 379.848 79.3418 379.848 78.7559ZM381.712 87H379.925V80.4492H381.712V87ZM389.789 87H388.002V83.1738C388.002 82.7012 387.918 82.3477 387.75 82.1133C387.582 81.875 387.315 81.7559 386.948 81.7559C386.448 81.7559 386.086 81.9238 385.864 82.2598C385.641 82.5918 385.53 83.1445 385.53 83.918V87H383.743V80.4492H385.108L385.348 81.2871H385.448C385.647 80.9707 385.92 80.7324 386.268 80.5723C386.62 80.4082 387.018 80.3262 387.463 80.3262C388.225 80.3262 388.803 80.5332 389.198 80.9473C389.592 81.3574 389.789 81.9512 389.789 82.7285V87ZM397.48 80.4492V81.3574L396.455 81.6211C396.643 81.9141 396.736 82.2422 396.736 82.6055C396.736 83.3086 396.49 83.8574 395.998 84.252C395.51 84.6426 394.83 84.8379 393.959 84.8379L393.637 84.8203L393.373 84.791C393.189 84.9316 393.098 85.0879 393.098 85.2598C393.098 85.5176 393.426 85.6465 394.082 85.6465H395.195C395.914 85.6465 396.461 85.8008 396.836 86.1094C397.215 86.418 397.404 86.8711 397.404 87.4688C397.404 88.2344 397.084 88.8281 396.443 89.25C395.807 89.6719 394.891 89.8828 393.695 89.8828C392.781 89.8828 392.082 89.7227 391.598 89.4023C391.117 89.0859 390.877 88.6406 390.877 88.0664C390.877 87.6719 391 87.3418 391.246 87.0762C391.492 86.8105 391.854 86.6211 392.33 86.5078C392.146 86.4297 391.986 86.3027 391.85 86.127C391.713 85.9473 391.645 85.7578 391.645 85.5586C391.645 85.3086 391.717 85.1016 391.861 84.9375C392.006 84.7695 392.215 84.6055 392.488 84.4453C392.145 84.2969 391.871 84.0586 391.668 83.7305C391.469 83.4023 391.369 83.0156 391.369 82.5703C391.369 81.8555 391.602 81.3027 392.066 80.9121C392.531 80.5215 393.195 80.3262 394.059 80.3262C394.242 80.3262 394.459 80.3438 394.709 80.3789C394.963 80.4102 395.125 80.4336 395.195 80.4492H397.48ZM392.424 87.9258C392.424 88.1719 392.541 88.3652 392.775 88.5059C393.014 88.6465 393.346 88.7168 393.771 88.7168C394.412 88.7168 394.914 88.6289 395.277 88.4531C395.641 88.2773 395.822 88.0371 395.822 87.7324C395.822 87.4863 395.715 87.3164 395.5 87.2227C395.285 87.1289 394.953 87.082 394.504 87.082H393.578C393.25 87.082 392.975 87.1582 392.752 87.3105C392.533 87.4668 392.424 87.6719 392.424 87.9258ZM393.074 82.5938C393.074 82.9492 393.154 83.2305 393.314 83.4375C393.479 83.6445 393.727 83.748 394.059 83.748C394.395 83.748 394.641 83.6445 394.797 83.4375C394.953 83.2305 395.031 82.9492 395.031 82.5938C395.031 81.8047 394.707 81.4102 394.059 81.4102C393.402 81.4102 393.074 81.8047 393.074 82.5938ZM403.285 85.0547C403.285 85.7266 403.05 86.2383 402.582 86.5898C402.117 86.9414 401.42 87.1172 400.49 87.1172C400.013 87.1172 399.607 87.084 399.271 87.0176C398.935 86.9551 398.621 86.8613 398.328 86.7363V85.2598C398.66 85.416 399.033 85.5469 399.447 85.6523C399.865 85.7578 400.232 85.8105 400.548 85.8105C401.197 85.8105 401.521 85.623 401.521 85.248C401.521 85.1074 401.478 84.9941 401.392 84.9082C401.306 84.8184 401.158 84.7188 400.947 84.6094C400.736 84.4961 400.455 84.3652 400.103 84.2168C399.599 84.0059 399.228 83.8105 398.99 83.6309C398.755 83.4512 398.584 83.2461 398.474 83.0156C398.369 82.7812 398.316 82.4941 398.316 82.1543C398.316 81.5723 398.541 81.123 398.99 80.8066C399.443 80.4863 400.084 80.3262 400.912 80.3262C401.701 80.3262 402.468 80.498 403.214 80.8418L402.675 82.1309C402.347 81.9902 402.041 81.875 401.755 81.7852C401.47 81.6953 401.179 81.6504 400.882 81.6504C400.355 81.6504 400.091 81.793 400.091 82.0781C400.091 82.2383 400.175 82.377 400.343 82.4941C400.515 82.6113 400.888 82.7852 401.463 83.0156C401.974 83.2227 402.349 83.416 402.588 83.5957C402.826 83.7754 403.002 83.9824 403.115 84.2168C403.228 84.4512 403.285 84.7305 403.285 85.0547Z" fill="#0063A3"/>
<rect width="479" height="144" transform="translate(481)" fill="#F1F1F6"/>
<rect width="388" height="64" transform="translate(526.5 40)" fill="#004F83"/>
<rect x="534.5" y="48" width="93" height="48" rx="4" fill="#DCEDF9"/>
<g clip-path="url(#clip2_637_122493)">
<path d="M581 53.6665C576.4 53.6665 572.667 57.3998 572.667 61.9998C572.667 66.5998 576.4 70.3332 581 70.3332C585.6 70.3332 589.334 66.5998 589.334 61.9998C589.334 57.3998 585.6 53.6665 581 53.6665ZM581 56.9998C582.725 56.9998 584.125 58.3998 584.125 60.1248C584.125 61.8498 582.725 63.2498 581 63.2498C579.275 63.2498 577.875 61.8498 577.875 60.1248C577.875 58.3998 579.275 56.9998 581 56.9998ZM581 68.6665C578.634 68.6665 576.55 67.4165 575.367 65.5498C575.475 65.4915 575.592 65.4332 575.725 65.3748C576.742 64.9082 578.617 64.2332 581 64.2332C583.392 64.2332 585.267 64.9082 586.275 65.3748C586.409 65.4332 586.525 65.4998 586.634 65.5582C585.45 67.4248 583.375 68.6665 581 68.6665Z" fill="#0063A3"/>
</g>
<path d="M563.779 82.4648H564.377C564.936 82.4648 565.354 82.3555 565.631 82.1367C565.908 81.9141 566.047 81.5918 566.047 81.1699C566.047 80.7441 565.93 80.4297 565.695 80.2266C565.465 80.0234 565.102 79.9219 564.605 79.9219H563.779V82.4648ZM567.881 81.1055C567.881 82.0273 567.592 82.7324 567.014 83.2207C566.439 83.709 565.621 83.9531 564.559 83.9531H563.779V87H561.963V78.4336H564.699C565.738 78.4336 566.527 78.6582 567.066 79.1074C567.609 79.5527 567.881 80.2188 567.881 81.1055ZM573.164 80.3262C573.406 80.3262 573.607 80.3438 573.767 80.3789L573.632 82.0547C573.488 82.0156 573.312 81.9961 573.105 81.9961C572.535 81.9961 572.089 82.1426 571.769 82.4355C571.453 82.7285 571.295 83.1387 571.295 83.666V87H569.507V80.4492H570.861L571.125 81.5508H571.212C571.416 81.1836 571.689 80.8887 572.033 80.666C572.38 80.4395 572.757 80.3262 573.164 80.3262ZM576.53 83.7129C576.53 84.3613 576.636 84.8516 576.847 85.1836C577.062 85.5156 577.409 85.6816 577.89 85.6816C578.366 85.6816 578.708 85.5176 578.915 85.1895C579.126 84.8574 579.232 84.3652 579.232 83.7129C579.232 83.0645 579.126 82.5781 578.915 82.2539C578.704 81.9297 578.359 81.7676 577.878 81.7676C577.402 81.7676 577.058 81.9297 576.847 82.2539C576.636 82.5742 576.53 83.0605 576.53 83.7129ZM581.06 83.7129C581.06 84.7793 580.779 85.6133 580.216 86.2148C579.654 86.8164 578.87 87.1172 577.866 87.1172C577.238 87.1172 576.683 86.9805 576.202 86.707C575.722 86.4297 575.353 86.0332 575.095 85.5176C574.837 85.002 574.708 84.4004 574.708 83.7129C574.708 82.6426 574.988 81.8105 575.546 81.2168C576.105 80.623 576.89 80.3262 577.902 80.3262C578.53 80.3262 579.085 80.4629 579.566 80.7363C580.046 81.0098 580.415 81.4023 580.673 81.9141C580.931 82.4258 581.06 83.0254 581.06 83.7129ZM586.307 81.791H584.761V87H582.973V81.791H581.989V80.9297L582.973 80.4492V79.9688C582.973 79.2227 583.157 78.6777 583.524 78.334C583.891 77.9902 584.479 77.8184 585.288 77.8184C585.905 77.8184 586.454 77.9102 586.934 78.0938L586.477 79.4062C586.118 79.293 585.786 79.2363 585.481 79.2363C585.227 79.2363 585.044 79.3125 584.93 79.4648C584.817 79.6133 584.761 79.8047 584.761 80.0391V80.4492H586.307V81.791ZM587.257 78.7559C587.257 78.1738 587.581 77.8828 588.229 77.8828C588.878 77.8828 589.202 78.1738 589.202 78.7559C589.202 79.0332 589.12 79.25 588.956 79.4062C588.796 79.5586 588.554 79.6348 588.229 79.6348C587.581 79.6348 587.257 79.3418 587.257 78.7559ZM589.12 87H587.333V80.4492H589.12V87ZM592.932 87H591.145V77.8828H592.932V87ZM597.676 81.5977C597.297 81.5977 597 81.7188 596.785 81.9609C596.57 82.1992 596.447 82.5391 596.416 82.9805H598.924C598.916 82.5391 598.801 82.1992 598.578 81.9609C598.355 81.7188 598.055 81.5977 597.676 81.5977ZM597.928 87.1172C596.873 87.1172 596.049 86.8262 595.455 86.2441C594.861 85.6621 594.564 84.8379 594.564 83.7715C594.564 82.6738 594.838 81.8262 595.385 81.2285C595.936 80.627 596.695 80.3262 597.664 80.3262C598.59 80.3262 599.311 80.5898 599.826 81.1172C600.342 81.6445 600.6 82.373 600.6 83.3027V84.1699H596.375C596.395 84.6777 596.545 85.0742 596.826 85.3594C597.107 85.6445 597.502 85.7871 598.01 85.7871C598.404 85.7871 598.777 85.7461 599.129 85.6641C599.48 85.582 599.848 85.4512 600.23 85.2715V86.6543C599.918 86.8105 599.584 86.9258 599.229 87C598.873 87.0781 598.439 87.1172 597.928 87.1172Z" fill="#0063A3"/>
<path d="M671.5 57.0002L673.167 58.6668H681.5C681.958 58.6668 682.333 58.2918 682.333 57.8335C682.333 57.3752 681.958 57.0002 681.5 57.0002H674L672.575 55.5752C672.417 55.4168 672.208 55.3335 671.983 55.3335H667.325C666.408 55.3335 665.658 56.0835 665.658 57.0002V67.0002C665.658 67.9168 666.408 68.6668 667.325 68.6668H679.383C680.192 68.6668 680.883 68.0835 681.025 67.2918L681.075 67.0002L681.983 61.8752C682.167 60.8585 681.375 59.9168 680.342 59.9168H669.983C669.175 59.9168 668.483 60.5002 668.342 61.2918L667.333 67.0002V57.0002H671.5Z" fill="white"/>
<path d="M647.425 82.6348C647.425 84.0449 647.023 85.125 646.218 85.875C645.418 86.625 644.259 87 642.744 87H640.318V78.4336H643.007C644.406 78.4336 645.492 78.8027 646.265 79.541C647.039 80.2793 647.425 81.3105 647.425 82.6348ZM645.539 82.6816C645.539 80.8418 644.726 79.9219 643.101 79.9219H642.134V85.5H642.914C644.664 85.5 645.539 84.5605 645.539 82.6816ZM650.634 83.7129C650.634 84.3613 650.739 84.8516 650.95 85.1836C651.165 85.5156 651.513 85.6816 651.993 85.6816C652.47 85.6816 652.812 85.5176 653.019 85.1895C653.23 84.8574 653.335 84.3652 653.335 83.7129C653.335 83.0645 653.23 82.5781 653.019 82.2539C652.808 81.9297 652.462 81.7676 651.982 81.7676C651.505 81.7676 651.161 81.9297 650.95 82.2539C650.739 82.5742 650.634 83.0605 650.634 83.7129ZM655.163 83.7129C655.163 84.7793 654.882 85.6133 654.32 86.2148C653.757 86.8164 652.974 87.1172 651.97 87.1172C651.341 87.1172 650.786 86.9805 650.306 86.707C649.825 86.4297 649.456 86.0332 649.198 85.5176C648.941 85.002 648.812 84.4004 648.812 83.7129C648.812 82.6426 649.091 81.8105 649.65 81.2168C650.208 80.623 650.993 80.3262 652.005 80.3262C652.634 80.3262 653.189 80.4629 653.669 80.7363C654.15 81.0098 654.519 81.4023 654.777 81.9141C655.034 82.4258 655.163 83.0254 655.163 83.7129ZM659.45 87.1172C657.411 87.1172 656.391 85.998 656.391 83.7598C656.391 82.6465 656.669 81.7969 657.223 81.2109C657.778 80.6211 658.573 80.3262 659.608 80.3262C660.366 80.3262 661.046 80.4746 661.647 80.7715L661.12 82.1543C660.839 82.041 660.577 81.9492 660.335 81.8789C660.093 81.8047 659.85 81.7676 659.608 81.7676C658.679 81.7676 658.214 82.4277 658.214 83.748C658.214 85.0293 658.679 85.6699 659.608 85.6699C659.952 85.6699 660.27 85.625 660.563 85.5352C660.856 85.4414 661.149 85.2969 661.442 85.1016V86.6309C661.153 86.8145 660.86 86.9414 660.563 87.0117C660.27 87.082 659.899 87.1172 659.45 87.1172ZM667.756 87L667.516 86.1621H667.422C667.231 86.4668 666.959 86.7031 666.608 86.8711C666.256 87.0352 665.856 87.1172 665.407 87.1172C664.637 87.1172 664.057 86.9121 663.666 86.502C663.276 86.0879 663.08 85.4941 663.08 84.7207V80.4492H664.868V84.2754C664.868 84.748 664.952 85.1035 665.12 85.3418C665.288 85.5762 665.555 85.6934 665.922 85.6934C666.422 85.6934 666.784 85.5273 667.006 85.1953C667.229 84.8594 667.34 84.3047 667.34 83.5312V80.4492H669.127V87H667.756ZM677.018 87H675.23V83.1738C675.23 82.7012 675.15 82.3477 674.99 82.1133C674.834 81.875 674.586 81.7559 674.246 81.7559C673.789 81.7559 673.457 81.9238 673.25 82.2598C673.043 82.5957 672.939 83.1484 672.939 83.918V87H671.152V80.4492H672.518L672.758 81.2871H672.857C673.033 80.9863 673.287 80.752 673.619 80.584C673.951 80.4121 674.332 80.3262 674.762 80.3262C675.742 80.3262 676.406 80.6465 676.754 81.2871H676.912C677.088 80.9824 677.346 80.7461 677.686 80.5781C678.029 80.4102 678.416 80.3262 678.846 80.3262C679.588 80.3262 680.148 80.5176 680.527 80.9004C680.91 81.2793 681.102 81.8887 681.102 82.7285V87H679.309V83.1738C679.309 82.7012 679.229 82.3477 679.068 82.1133C678.912 81.875 678.664 81.7559 678.324 81.7559C677.887 81.7559 677.559 81.9121 677.34 82.2246C677.125 82.5371 677.018 83.0332 677.018 83.7129V87ZM685.804 81.5977C685.425 81.5977 685.129 81.7188 684.914 81.9609C684.699 82.1992 684.576 82.5391 684.545 82.9805H687.052C687.045 82.5391 686.929 82.1992 686.707 81.9609C686.484 81.7188 686.183 81.5977 685.804 81.5977ZM686.056 87.1172C685.002 87.1172 684.177 86.8262 683.584 86.2441C682.99 85.6621 682.693 84.8379 682.693 83.7715C682.693 82.6738 682.966 81.8262 683.513 81.2285C684.064 80.627 684.824 80.3262 685.793 80.3262C686.718 80.3262 687.439 80.5898 687.955 81.1172C688.47 81.6445 688.728 82.373 688.728 83.3027V84.1699H684.504C684.523 84.6777 684.673 85.0742 684.955 85.3594C685.236 85.6445 685.63 85.7871 686.138 85.7871C686.533 85.7871 686.906 85.7461 687.257 85.6641C687.609 85.582 687.976 85.4512 688.359 85.2715V86.6543C688.046 86.8105 687.713 86.9258 687.357 87C687.002 87.0781 686.568 87.1172 686.056 87.1172ZM696.378 87H694.591V83.1738C694.591 82.7012 694.507 82.3477 694.339 82.1133C694.171 81.875 693.904 81.7559 693.536 81.7559C693.036 81.7559 692.675 81.9238 692.452 82.2598C692.23 82.5918 692.118 83.1445 692.118 83.918V87H690.331V80.4492H691.696L691.937 81.2871H692.036C692.236 80.9707 692.509 80.7324 692.857 80.5723C693.208 80.4082 693.607 80.3262 694.052 80.3262C694.814 80.3262 695.392 80.5332 695.786 80.9473C696.181 81.3574 696.378 81.9512 696.378 82.7285V87ZM701.128 85.6934C701.44 85.6934 701.815 85.625 702.253 85.4883V86.8184C701.807 87.0176 701.261 87.1172 700.612 87.1172C699.897 87.1172 699.376 86.9375 699.048 86.5781C698.723 86.2148 698.561 85.6719 698.561 84.9492V81.791H697.706V81.0352L698.69 80.4375L699.206 79.0547H700.348V80.4492H702.182V81.791H700.348V84.9492C700.348 85.2031 700.419 85.3906 700.559 85.5117C700.704 85.6328 700.893 85.6934 701.128 85.6934ZM708.303 85.0547C708.303 85.7266 708.069 86.2383 707.6 86.5898C707.135 86.9414 706.438 87.1172 705.508 87.1172C705.032 87.1172 704.625 87.084 704.289 87.0176C703.954 86.9551 703.639 86.8613 703.346 86.7363V85.2598C703.678 85.416 704.051 85.5469 704.465 85.6523C704.883 85.7578 705.25 85.8105 705.567 85.8105C706.215 85.8105 706.539 85.623 706.539 85.248C706.539 85.1074 706.496 84.9941 706.411 84.9082C706.325 84.8184 706.176 84.7188 705.965 84.6094C705.754 84.4961 705.473 84.3652 705.121 84.2168C704.618 84.0059 704.246 83.8105 704.008 83.6309C703.774 83.4512 703.602 83.2461 703.493 83.0156C703.387 82.7812 703.334 82.4941 703.334 82.1543C703.334 81.5723 703.559 81.123 704.008 80.8066C704.461 80.4863 705.102 80.3262 705.93 80.3262C706.719 80.3262 707.487 80.498 708.233 80.8418L707.694 82.1309C707.366 81.9902 707.059 81.875 706.774 81.7852C706.489 81.6953 706.198 81.6504 705.901 81.6504C705.373 81.6504 705.11 81.793 705.11 82.0781C705.11 82.2383 705.194 82.377 705.362 82.4941C705.534 82.6113 705.907 82.7852 706.481 83.0156C706.993 83.2227 707.368 83.416 707.606 83.5957C707.844 83.7754 708.02 83.9824 708.133 84.2168C708.246 84.4512 708.303 84.7305 708.303 85.0547Z" fill="white"/>
<path fill-rule="evenodd" clip-rule="evenodd" d="M762 58.3823C762 55.7983 764.132 53.6665 766.716 53.6665C769.3 53.6665 771.367 55.7337 771.432 58.3823C771.432 60.4495 770.01 62.2582 768.137 62.8396L767.491 66.0696L766.716 70.3332L765.941 66.0696L765.295 62.8396C763.357 62.2582 762 60.4495 762 58.3823ZM768.848 58.3176C768.848 59.4949 767.893 60.4494 766.716 60.4494C765.538 60.4494 764.584 59.4949 764.584 58.3176C764.584 57.1402 765.538 56.1858 766.716 56.1858C767.893 56.1858 768.848 57.1402 768.848 58.3176Z" fill="white"/>
<path d="M755.414 87L753.351 80.2793H753.298C753.373 81.6465 753.41 82.5586 753.41 83.0156V87H751.787V78.4336H754.259L756.287 84.9844H756.322L758.472 78.4336H760.945V87H759.252V82.9453C759.252 82.7539 759.254 82.5332 759.257 82.2832C759.265 82.0332 759.293 81.3691 759.339 80.291H759.287L757.078 87H755.414ZM767.277 87L766.931 86.1094H766.884C766.583 86.4883 766.273 86.752 765.952 86.9004C765.636 87.0449 765.222 87.1172 764.71 87.1172C764.081 87.1172 763.585 86.9375 763.222 86.5781C762.862 86.2188 762.683 85.707 762.683 85.043C762.683 84.3477 762.925 83.8359 763.409 83.5078C763.898 83.1758 764.632 82.9922 765.612 82.957L766.749 82.9219V82.6348C766.749 81.9707 766.409 81.6387 765.73 81.6387C765.206 81.6387 764.591 81.7969 763.884 82.1133L763.292 80.9062C764.046 80.5117 764.882 80.3145 765.8 80.3145C766.679 80.3145 767.353 80.5059 767.821 80.8887C768.29 81.2715 768.525 81.8535 768.525 82.6348V87H767.277ZM766.749 83.9648L766.058 83.9883C765.538 84.0039 765.152 84.0977 764.898 84.2695C764.644 84.4414 764.517 84.7031 764.517 85.0547C764.517 85.5586 764.806 85.8105 765.384 85.8105C765.798 85.8105 766.128 85.6914 766.374 85.4531C766.624 85.2148 766.749 84.8984 766.749 84.5039V83.9648ZM774.118 87.1172C773.348 87.1172 772.745 86.8379 772.307 86.2793H772.214C772.276 86.8262 772.307 87.1426 772.307 87.2285V89.8828H770.52V80.4492H771.973L772.225 81.2988H772.307C772.725 80.6504 773.345 80.3262 774.165 80.3262C774.938 80.3262 775.544 80.625 775.981 81.2227C776.419 81.8203 776.637 82.6504 776.637 83.7129C776.637 84.4121 776.534 85.0195 776.327 85.5352C776.124 86.0508 775.833 86.4434 775.454 86.7129C775.075 86.9824 774.63 87.1172 774.118 87.1172ZM773.591 81.7559C773.149 81.7559 772.827 81.8926 772.624 82.166C772.421 82.4355 772.315 82.8828 772.307 83.5078V83.7012C772.307 84.4043 772.411 84.9082 772.618 85.2129C772.829 85.5176 773.161 85.6699 773.614 85.6699C774.415 85.6699 774.815 85.0098 774.815 83.6895C774.815 83.0449 774.716 82.5625 774.516 82.2422C774.321 81.918 774.012 81.7559 773.591 81.7559ZM782.834 85.0547C782.834 85.7266 782.6 86.2383 782.131 86.5898C781.666 86.9414 780.969 87.1172 780.039 87.1172C779.563 87.1172 779.157 87.084 778.821 87.0176C778.485 86.9551 778.17 86.8613 777.877 86.7363V85.2598C778.209 85.416 778.582 85.5469 778.996 85.6523C779.414 85.7578 779.782 85.8105 780.098 85.8105C780.746 85.8105 781.071 85.623 781.071 85.248C781.071 85.1074 781.028 84.9941 780.942 84.9082C780.856 84.8184 780.707 84.7188 780.496 84.6094C780.286 84.4961 780.004 84.3652 779.653 84.2168C779.149 84.0059 778.778 83.8105 778.539 83.6309C778.305 83.4512 778.133 83.2461 778.024 83.0156C777.918 82.7812 777.866 82.4941 777.866 82.1543C777.866 81.5723 778.09 81.123 778.539 80.8066C778.993 80.4863 779.633 80.3262 780.461 80.3262C781.25 80.3262 782.018 80.498 782.764 80.8418L782.225 82.1309C781.897 81.9902 781.59 81.875 781.305 81.7852C781.02 81.6953 780.729 81.6504 780.432 81.6504C779.905 81.6504 779.641 81.793 779.641 82.0781C779.641 82.2383 779.725 82.377 779.893 82.4941C780.065 82.6113 780.438 82.7852 781.012 83.0156C781.524 83.2227 781.899 83.416 782.137 83.5957C782.375 83.7754 782.551 83.9824 782.664 84.2168C782.778 84.4512 782.834 84.7305 782.834 85.0547Z" fill="white"/>
<path d="M866.092 61.9832C866.092 61.7165 866.067 61.4582 866.033 61.1998L867.425 60.0832C867.75 59.8248 867.833 59.3665 867.625 59.0165L867 57.9498L866.383 56.8748C866.175 56.5165 865.742 56.3665 865.358 56.5165L863.717 57.1582C863.3 56.8332 862.833 56.5582 862.342 56.3498L862.075 54.6248C862.017 54.2165 861.658 53.9165 861.25 53.9165H860.008H858.767C858.35 53.9165 858 54.2165 857.942 54.6248L857.683 56.3332C857.175 56.5415 856.7 56.8165 856.275 57.1498L854.667 56.5165C854.283 56.3665 853.842 56.5165 853.642 56.8748L853.025 57.9498L852.4 59.0165C852.192 59.3748 852.275 59.8248 852.6 60.0832L853.95 61.1665C853.917 61.4332 853.892 61.7082 853.892 61.9832C853.892 62.2582 853.917 62.5498 853.958 62.8248L852.608 63.9082C852.283 64.1665 852.2 64.6248 852.408 64.9748L853.033 66.0415L853.65 67.1165C853.858 67.4748 854.292 67.6248 854.675 67.4748L856.308 66.8332C856.733 67.1498 857.192 67.4248 857.692 67.6248L857.958 69.3665C858.017 69.7748 858.375 70.0748 858.783 70.0748H860.025H861.267C861.683 70.0748 862.033 69.7748 862.092 69.3665L862.358 67.6082C862.842 67.4082 863.292 67.1332 863.708 66.8248L865.375 67.4748C865.758 67.6248 866.2 67.4748 866.4 67.1165L867.017 66.0415L867.642 64.9748C867.85 64.6165 867.767 64.1665 867.442 63.9082L866.05 62.7915C866.083 62.5248 866.108 62.2582 866.108 61.9832H866.092ZM860.575 64.8665C858.517 65.2582 856.75 63.4915 857.142 61.4332C857.358 60.2915 858.292 59.3582 859.433 59.1415C861.492 58.7498 863.258 60.5165 862.867 62.5748C862.65 63.7165 861.717 64.6498 860.575 64.8665Z" fill="white"/>
<path d="M841.393 84.6211C841.393 85.3945 841.114 86.0039 840.555 86.4492C840 86.8945 839.227 87.1172 838.235 87.1172C837.321 87.1172 836.512 86.9453 835.809 86.6016V84.9141C836.387 85.1719 836.875 85.3535 837.274 85.459C837.676 85.5645 838.043 85.6172 838.375 85.6172C838.774 85.6172 839.079 85.541 839.289 85.3887C839.504 85.2363 839.612 85.0098 839.612 84.709C839.612 84.541 839.565 84.3926 839.471 84.2637C839.377 84.1309 839.239 84.0039 839.055 83.8828C838.875 83.7617 838.506 83.5684 837.948 83.3027C837.424 83.0566 837.032 82.8203 836.77 82.5938C836.508 82.3672 836.299 82.1035 836.143 81.8027C835.987 81.502 835.909 81.1504 835.909 80.748C835.909 79.9902 836.164 79.3945 836.676 78.9609C837.192 78.5273 837.903 78.3105 838.809 78.3105C839.254 78.3105 839.678 78.3633 840.08 78.4688C840.487 78.5742 840.911 78.7227 841.352 78.9141L840.766 80.3262C840.309 80.1387 839.93 80.0078 839.629 79.9336C839.332 79.8594 839.039 79.8223 838.75 79.8223C838.407 79.8223 838.143 79.9023 837.959 80.0625C837.776 80.2227 837.684 80.4316 837.684 80.6895C837.684 80.8496 837.721 80.9902 837.795 81.1113C837.87 81.2285 837.987 81.3438 838.147 81.457C838.311 81.5664 838.696 81.7656 839.301 82.0547C840.102 82.4375 840.651 82.8223 840.948 83.209C841.245 83.5918 841.393 84.0625 841.393 84.6211ZM845.668 81.5977C845.289 81.5977 844.992 81.7188 844.777 81.9609C844.563 82.1992 844.439 82.5391 844.408 82.9805H846.916C846.908 82.5391 846.793 82.1992 846.57 81.9609C846.348 81.7188 846.047 81.5977 845.668 81.5977ZM845.92 87.1172C844.865 87.1172 844.041 86.8262 843.447 86.2441C842.854 85.6621 842.557 84.8379 842.557 83.7715C842.557 82.6738 842.83 81.8262 843.377 81.2285C843.928 80.627 844.688 80.3262 845.656 80.3262C846.582 80.3262 847.303 80.5898 847.818 81.1172C848.334 81.6445 848.592 82.373 848.592 83.3027V84.1699H844.367C844.387 84.6777 844.537 85.0742 844.818 85.3594C845.1 85.6445 845.494 85.7871 846.002 85.7871C846.396 85.7871 846.77 85.7461 847.121 85.6641C847.473 85.582 847.84 85.4512 848.223 85.2715V86.6543C847.91 86.8105 847.576 86.9258 847.221 87C846.865 87.0781 846.432 87.1172 845.92 87.1172ZM852.955 85.6934C853.267 85.6934 853.642 85.625 854.08 85.4883V86.8184C853.634 87.0176 853.088 87.1172 852.439 87.1172C851.724 87.1172 851.203 86.9375 850.875 86.5781C850.55 86.2148 850.388 85.6719 850.388 84.9492V81.791H849.533V81.0352L850.517 80.4375L851.033 79.0547H852.175V80.4492H854.009V81.791H852.175V84.9492C852.175 85.2031 852.246 85.3906 852.386 85.5117C852.531 85.6328 852.72 85.6934 852.955 85.6934ZM858.32 85.6934C858.632 85.6934 859.007 85.625 859.445 85.4883V86.8184C858.999 87.0176 858.452 87.1172 857.804 87.1172C857.089 87.1172 856.568 86.9375 856.239 86.5781C855.915 86.2148 855.753 85.6719 855.753 84.9492V81.791H854.898V81.0352L855.882 80.4375L856.398 79.0547H857.54V80.4492H859.374V81.791H857.54V84.9492C857.54 85.2031 857.611 85.3906 857.751 85.5117C857.896 85.6328 858.085 85.6934 858.32 85.6934ZM860.848 78.7559C860.848 78.1738 861.173 77.8828 861.821 77.8828C862.47 77.8828 862.794 78.1738 862.794 78.7559C862.794 79.0332 862.712 79.25 862.548 79.4062C862.388 79.5586 862.145 79.6348 861.821 79.6348C861.173 79.6348 860.848 79.3418 860.848 78.7559ZM862.712 87H860.925V80.4492H862.712V87ZM870.789 87H869.002V83.1738C869.002 82.7012 868.918 82.3477 868.75 82.1133C868.582 81.875 868.315 81.7559 867.948 81.7559C867.448 81.7559 867.086 81.9238 866.864 82.2598C866.641 82.5918 866.53 83.1445 866.53 83.918V87H864.743V80.4492H866.108L866.348 81.2871H866.448C866.647 80.9707 866.92 80.7324 867.268 80.5723C867.62 80.4082 868.018 80.3262 868.463 80.3262C869.225 80.3262 869.803 80.5332 870.198 80.9473C870.592 81.3574 870.789 81.9512 870.789 82.7285V87ZM878.48 80.4492V81.3574L877.455 81.6211C877.643 81.9141 877.736 82.2422 877.736 82.6055C877.736 83.3086 877.49 83.8574 876.998 84.252C876.51 84.6426 875.83 84.8379 874.959 84.8379L874.637 84.8203L874.373 84.791C874.189 84.9316 874.098 85.0879 874.098 85.2598C874.098 85.5176 874.426 85.6465 875.082 85.6465H876.195C876.914 85.6465 877.461 85.8008 877.836 86.1094C878.215 86.418 878.404 86.8711 878.404 87.4688C878.404 88.2344 878.084 88.8281 877.443 89.25C876.807 89.6719 875.891 89.8828 874.695 89.8828C873.781 89.8828 873.082 89.7227 872.598 89.4023C872.117 89.0859 871.877 88.6406 871.877 88.0664C871.877 87.6719 872 87.3418 872.246 87.0762C872.492 86.8105 872.854 86.6211 873.33 86.5078C873.146 86.4297 872.986 86.3027 872.85 86.127C872.713 85.9473 872.645 85.7578 872.645 85.5586C872.645 85.3086 872.717 85.1016 872.861 84.9375C873.006 84.7695 873.215 84.6055 873.488 84.4453C873.145 84.2969 872.871 84.0586 872.668 83.7305C872.469 83.4023 872.369 83.0156 872.369 82.5703C872.369 81.8555 872.602 81.3027 873.066 80.9121C873.531 80.5215 874.195 80.3262 875.059 80.3262C875.242 80.3262 875.459 80.3438 875.709 80.3789C875.963 80.4102 876.125 80.4336 876.195 80.4492H878.48ZM873.424 87.9258C873.424 88.1719 873.541 88.3652 873.775 88.5059C874.014 88.6465 874.346 88.7168 874.771 88.7168C875.412 88.7168 875.914 88.6289 876.277 88.4531C876.641 88.2773 876.822 88.0371 876.822 87.7324C876.822 87.4863 876.715 87.3164 876.5 87.2227C876.285 87.1289 875.953 87.082 875.504 87.082H874.578C874.25 87.082 873.975 87.1582 873.752 87.3105C873.533 87.4668 873.424 87.6719 873.424 87.9258ZM874.074 82.5938C874.074 82.9492 874.154 83.2305 874.314 83.4375C874.479 83.6445 874.727 83.748 875.059 83.748C875.395 83.748 875.641 83.6445 875.797 83.4375C875.953 83.2305 876.031 82.9492 876.031 82.5938C876.031 81.8047 875.707 81.4102 875.059 81.4102C874.402 81.4102 874.074 81.8047 874.074 82.5938ZM884.285 85.0547C884.285 85.7266 884.05 86.2383 883.582 86.5898C883.117 86.9414 882.42 87.1172 881.49 87.1172C881.013 87.1172 880.607 87.084 880.271 87.0176C879.935 86.9551 879.621 86.8613 879.328 86.7363V85.2598C879.66 85.416 880.033 85.5469 880.447 85.6523C880.865 85.7578 881.232 85.8105 881.548 85.8105C882.197 85.8105 882.521 85.623 882.521 85.248C882.521 85.1074 882.478 84.9941 882.392 84.9082C882.306 84.8184 882.158 84.7188 881.947 84.6094C881.736 84.4961 881.455 84.3652 881.103 84.2168C880.599 84.0059 880.228 83.8105 879.99 83.6309C879.755 83.4512 879.584 83.2461 879.474 83.0156C879.369 82.7812 879.316 82.4941 879.316 82.1543C879.316 81.5723 879.541 81.123 879.99 80.8066C880.443 80.4863 881.084 80.3262 881.912 80.3262C882.701 80.3262 883.468 80.498 884.214 80.8418L883.675 82.1309C883.347 81.9902 883.041 81.875 882.755 81.7852C882.47 81.6953 882.179 81.6504 881.882 81.6504C881.355 81.6504 881.091 81.793 881.091 82.0781C881.091 82.2383 881.175 82.377 881.343 82.4941C881.515 82.6113 881.888 82.7852 882.463 83.0156C882.974 83.2227 883.349 83.416 883.588 83.5957C883.826 83.7754 884.002 83.9824 884.115 84.2168C884.228 84.4512 884.285 84.7305 884.285 85.0547Z" fill="white"/>
</g>
<defs>
<clipPath id="clip0_637_122493">
<rect width="960" height="144" fill="white"/>
</clipPath>
<clipPath id="clip1_637_122493">
<rect width="20" height="20" fill="white" transform="translate(90 52)"/>
</clipPath>
<clipPath id="clip2_637_122493">
<rect width="20" height="20" fill="white" transform="translate(571 52)"/>
</clipPath>
</defs>
</svg>
