<svg fill="none" height="178" viewBox="0 0 960 178" width="960" xmlns="http://www.w3.org/2000/svg" xmlns:xlink="http://www.w3.org/1999/xlink"><clipPath id="a"><path d="m0 0h960v178h-960z"/></clipPath><clipPath id="b"><path d="m0 0h960v178.5h-960z"/></clipPath><g clip-path="url(#a)"><g clip-path="url(#b)"><path d="m0 0h318.667v178.5h-318.667z" fill="#252a2e"/><path d="m170.5 70.875h-23" stroke="#e8178a"/><path d="m170.334 67.5v7" stroke="#e8178a"/><path d="m147 67.5v7" stroke="#e8178a"/><path d="m174.375 77v23" stroke="#e8178a"/><path d="m171 77.1665h7" stroke="#e8178a"/><path d="m171 100.5h7" stroke="#e8178a"/><rect fill="#e8178a" height="18" rx="3" width="37" x="141" y="43"/><path d="m147.589 56v-1.108l2.589-2.397c.22-.213.405-.4048.554-.5753.152-.1704.267-.3373.345-.5007.078-.1657.117-.3444.117-.5362 0-.2131-.049-.3965-.146-.5504-.097-.1563-.229-.2758-.397-.3587-.169-.0852-.359-.1278-.572-.1278-.223 0-.417.045-.583.1349-.165.09-.293.219-.383.3871s-.135.3681-.135.6001h-1.46c0-.4758.108-.8889.324-1.2393.215-.3504.517-.6215.905-.8132.388-.1918.836-.2877 1.342-.2877.521 0 .975.0924 1.361.277.388.1823.69.4356.905.76.216.3243.323.696.323 1.115 0 .2747-.054.5457-.163.8132-.107.2676-.297.5647-.572.8914-.274.3243-.662.7138-1.161 1.1683l-1.062 1.0405v.0497h3.054v1.2571zm6.033-1.2784v-1.2109l3.036-4.7834h1.044v1.6761h-.618l-1.914 3.0291v.0568h4.315v1.2323zm3.491 1.2784v-1.6477l.028-.5362v-5.0888h1.442v7.2727zm3.411 2.0455v-7.5h1.491v.9161h.068c.066-.1467.162-.2959.287-.4474.128-.1539.294-.2817.497-.3835.206-.1042.462-.1563.767-.1563.398 0 .765.1042 1.101.3125.336.206.605.5173.806.934.202.4143.302.9339.302 1.5589 0 .6085-.098 1.1222-.295 1.5412-.194.4167-.459.7327-.795.9482-.334.213-.708.3196-1.122.3196-.294 0-.543-.0486-.749-.1456-.204-.0971-.371-.219-.501-.3658-.13-.1491-.23-.2995-.298-.451h-.047v2.9191zm1.48-4.7728c0 .3244.045.6073.135.8487.09.2415.221.4297.391.5647.17.1326.378.1988.621.1988.247 0 .455-.0674.625-.2024.171-.1373.3-.3267.388-.5682.089-.2438.134-.5243.134-.8416 0-.3148-.043-.5918-.131-.8309s-.217-.4262-.387-.5611c-.17-.135-.38-.2024-.629-.2024-.246 0-.454.0651-.625.1953-.168.1302-.297.3148-.387.554-.09.2391-.135.5208-.135.8451zm5.917-2.7272 1.001 1.9069 1.026-1.9069h1.552l-1.58 2.7272 1.623 2.7273h-1.545l-1.076-1.8857-1.058 1.8857h-1.563l1.62-2.7273-1.563-2.7272z" fill="#fff"/><rect fill="#e8178a" height="18" rx="3" width="37" x="185" y="80"/><path d="m191.589 93v-1.108l2.589-2.397c.22-.213.405-.4048.554-.5753.152-.1704.267-.3373.345-.5007.078-.1657.117-.3444.117-.5362 0-.2131-.049-.3965-.146-.5504-.097-.1563-.229-.2758-.397-.3587-.169-.0852-.359-.1278-.572-.1278-.223 0-.417.045-.583.1349-.165.09-.293.219-.383.3871s-.135.3681-.135.6001h-1.46c0-.4758.108-.8889.324-1.2393.215-.3504.517-.6215.905-.8132.388-.1918.836-.2877 1.342-.2877.521 0 .975.0924 1.361.277.388.1823.69.4356.905.76.216.3243.323.696.323 1.115 0 .2747-.054.5457-.163.8132-.107.2676-.297.5647-.572.8914-.274.3243-.662.7138-1.161 1.1683l-1.062 1.0405v.0497h3.054v1.2571zm6.033-1.2784v-1.2109l3.036-4.7834h1.044v1.6761h-.618l-1.914 3.0291v.0568h4.315v1.2323zm3.491 1.2784v-1.6477l.028-.5362v-5.0888h1.442v7.2727zm3.411 2.0455v-7.5h1.491v.9161h.068c.066-.1467.162-.2959.287-.4474.128-.1539.294-.2817.497-.3835.206-.1042.462-.1563.767-.1563.398 0 .765.1042 1.101.3125.336.206.605.5173.806.934.202.4143.302.9339.302 1.5589 0 .6085-.098 1.1222-.295 1.5412-.194.4167-.459.7327-.795.9482-.334.213-.708.3196-1.122.3196-.294 0-.543-.0486-.749-.1456-.204-.0971-.371-.219-.501-.3658-.13-.1491-.23-.2995-.298-.451h-.047v2.9191zm1.48-4.7728c0 .3244.045.6073.135.8487.09.2415.221.4297.391.5647.17.1326.378.1988.621.1988.247 0 .455-.0674.625-.2024.171-.1373.3-.3267.388-.5682.089-.2438.134-.5243.134-.8416 0-.3148-.043-.5918-.131-.8309s-.217-.4262-.387-.5611c-.17-.135-.38-.2024-.629-.2024-.246 0-.454.0651-.625.1953-.168.1302-.297.3148-.387.554-.09.2391-.135.5208-.135.8451zm5.917-2.7272 1.001 1.9069 1.026-1.9069h1.552l-1.58 2.7272 1.623 2.7273h-1.545l-1.076-1.8857-1.058 1.8857h-1.563l1.62-2.7273-1.563-2.7272z" fill="#fff"/><path d="m152 79.75c-.442 0-.862.0878-1.244.2463-.382.1587-.821-.0229-.98-.4055s.023-.8214.406-.9801c.561-.2327 1.175-.3607 1.818-.3607h1.5c.414 0 .75.3358.75.75s-.336.75-.75.75z" fill="#019aeb"/><path d="m155.75 79c0-.4142.336-.75.75-.75h3c.414 0 .75.3358.75.75s-.336.75-.75.75h-3c-.414 0-.75-.3358-.75-.75z" fill="#019aeb"/><path d="m161.75 79c0-.4142.336-.75.75-.75h1.5c.643 0 1.257.128 1.818.3607.383.1587.565.5975.406.9801s-.598.5642-.98.4055c-.382-.1585-.802-.2463-1.244-.2463h-1.5c-.414 0-.75-.3358-.75-.75z" fill="#019aeb"/><path d="m148.591 80.7761c.382.1586.564.5974.405.98-.158.3822-.246.8018-.246 1.2439v1.5c0 .4142-.336.75-.75.75s-.75-.3358-.75-.75v-1.5c0-.6427.128-1.2573.361-1.8184.158-.3827.597-.5642.98-.4055z" fill="#019aeb"/><path d="m167.409 80.7761c.383-.1587.822.0228.98.4055.233.5611.361 1.1757.361 1.8184v1.5c0 .4142-.336.75-.75.75s-.75-.3358-.75-.75v-1.5c0-.4421-.088-.8617-.246-1.2439-.159-.3826.023-.8214.405-.98z" fill="#019aeb"/><path d="m148 86.75c.414 0 .75.3358.75.75v3c0 .4142-.336.75-.75.75s-.75-.3358-.75-.75v-3c0-.4142.336-.75.75-.75z" fill="#019aeb"/><path d="m168 86.75c.414 0 .75.3358.75.75v3c0 .4142-.336.75-.75.75s-.75-.3358-.75-.75v-3c0-.4142.336-.75.75-.75z" fill="#019aeb"/><path d="m148 92.75c.414 0 .75.3358.75.75v1.5c0 .4421.088.8617.246 1.2439.159.3826-.023.8214-.405.98-.383.1587-.822-.0228-.98-.4055-.233-.5611-.361-1.1757-.361-1.8184v-1.5c0-.4142.336-.75.75-.75z" fill="#019aeb"/><path d="m168 92.75c.414 0 .75.3358.75.75v1.5c0 .6427-.128 1.2573-.361 1.8184-.158.3827-.597.5642-.98.4055-.382-.1586-.564-.5974-.405-.98.158-.3822.246-.8018.246-1.2439v-1.5c0-.4142.336-.75.75-.75z" fill="#019aeb"/><path d="m149.776 98.4092c.159-.3826.598-.5642.98-.4055.382.1585.802.2463 1.244.2463h1.5c.414 0 .75.3358.75.75s-.336.75-.75.75h-1.5c-.643 0-1.257-.128-1.818-.3607-.383-.1587-.565-.5975-.406-.9801z" fill="#019aeb"/><path d="m166.224 98.4092c.159.3826-.023.8214-.406.9801-.561.2327-1.175.3607-1.818.3607h-1.5c-.414 0-.75-.3358-.75-.75s.336-.75.75-.75h1.5c.442 0 .862-.0878 1.244-.2463.382-.1587.821.0229.98.4055z" fill="#019aeb"/><path d="m155.75 99c0-.4142.336-.75.75-.75h3c.414 0 .75.3358.75.75s-.336.75-.75.75h-3c-.414 0-.75-.3358-.75-.75z" fill="#019aeb"/><path d="m166.53 81.591c.293-.2929.293-.7678 0-1.0607s-.767-.2929-1.06 0l-.997.9962c-.292.2929-.292.7678 0 1.0607.293.2929.768.2929 1.061 0z" fill="#019aeb"/><path d="m163.542 84.5796c.293-.2929.293-.7678 0-1.0606-.293-.2929-.768-.2929-1.061 0l-1.992 1.9924c-.293.2929-.293.7677 0 1.0606s.767.2929 1.06 0z" fill="#019aeb"/><path d="m159.557 88.5645c.293-.2929.293-.7678 0-1.0607s-.768-.2929-1.061 0l-.496.4962-.496-.4962c-.293-.2929-.768-.2929-1.061 0s-.293.7678 0 1.0607l.496.4962-.435.4355c-.293.2929-.293.7678 0 1.0607s.768.2929 1.06 0l.436-.4356.436.4356c.292.2929.767.2929 1.06 0s.293-.7678 0-1.0607l-.435-.4355z" fill="#019aeb"/><path d="m155.572 92.5493c.293-.2929.293-.7678 0-1.0607s-.768-.2929-1.061 0l-1.992 1.9924c-.293.2929-.293.7678 0 1.0607s.768.2929 1.061 0z" fill="#019aeb"/><path d="m151.587 96.5341c.293-.2929.293-.7677 0-1.0606s-.768-.2929-1.06 0l-.997.9962c-.293.2929-.293.7677 0 1.0606s.768.2929 1.061 0z" fill="#019aeb"/><path d="m165.409 97.5303c.293.2929.768.2929 1.061 0s.293-.7677 0-1.0606l-.997-.9962c-.292-.2929-.767-.2929-1.06 0s-.293.7677 0 1.0606z" fill="#019aeb"/><path d="m162.42 94.5417c.293.2929.768.2929 1.061 0s.293-.7678 0-1.0607l-1.992-1.9924c-.293-.2929-.768-.2929-1.061 0s-.293.7678 0 1.0607z" fill="#019aeb"/><path d="m154.451 86.572c.293.2929.767.2929 1.06 0s.293-.7677 0-1.0606l-1.992-1.9924c-.293-.2929-.768-.2929-1.061 0-.293.2928-.293.7677 0 1.0606z" fill="#019aeb"/><path d="m150.466 82.5872c.293.2929.768.2929 1.061 0 .292-.2929.292-.7678 0-1.0607l-.997-.9962c-.293-.2929-.767-.2929-1.06 0s-.293.7678 0 1.0607z" fill="#019aeb"/><path d="m155.056 83.889c.298-.0902.615-.139.944-.139h.75c.414 0 .75-.3358.75-.75s-.336-.75-.75-.75h-.75c-.478 0-.942.071-1.379.2035-.396.1201-.62.5388-.5.9352s.539.6204.935.5003z" fill="#019aeb"/><path d="m159.25 82.25c-.414 0-.75.3358-.75.75s.336.75.75.75h.75c.329 0 .646.0488.944.139.396.1201.815-.1039.935-.5003s-.104-.8151-.5-.9352c-.437-.1325-.901-.2035-1.379-.2035z" fill="#019aeb"/><path d="m152.889 86.0559c.12-.3964-.104-.8151-.5-.9352-.397-.1201-.815.1039-.936.5003-.132.4373-.203.9006-.203 1.379v.75c0 .4142.336.75.75.75s.75-.3358.75-.75v-.75c0-.3295.049-.6462.139-.9441z" fill="#019aeb"/><path d="m164.547 85.621c-.121-.3964-.539-.6204-.936-.5003-.396.1201-.62.5388-.5.9352.09.2979.139.6146.139.9441v.75c0 .4142.336.75.75.75s.75-.3358.75-.75v-.75c0-.4784-.071-.9417-.203-1.379z" fill="#019aeb"/><path d="m152.75 90.25c0-.4142-.336-.75-.75-.75s-.75.3358-.75.75v.75c0 .4784.071.9417.203 1.379.121.3964.539.6204.936.5003.396-.1201.62-.5388.5-.9352-.09-.2979-.139-.6146-.139-.9441z" fill="#019aeb"/><path d="m164.75 90.25c0-.4142-.336-.75-.75-.75s-.75.3358-.75.75v.75c0 .3295-.049.6462-.139.9441-.12.3964.104.8151.5.9352.397.1201.815-.1039.936-.5003.132-.4373.203-.9006.203-1.379z" fill="#019aeb"/><path d="m155.056 94.111c-.396-.1201-.815.1039-.935.5003s.104.8151.5.9352c.437.1325.901.2035 1.379.2035h.75c.414 0 .75-.3358.75-.75s-.336-.75-.75-.75h-.75c-.329 0-.646-.0488-.944-.139z" fill="#019aeb"/><path d="m161.379 95.5465c.396-.1201.62-.5388.5-.9352s-.539-.6204-.935-.5003c-.298.0902-.615.139-.944.139h-.75c-.414 0-.75.3358-.75.75s.336.75.75.75h.75c.478 0 .942-.071 1.379-.2035z" fill="#019aeb"/><path d="m0 0h318.667v178.5h-318.667z" fill="#252a2e" transform="translate(320.667)"/><path d="m465.955 52.6348c0 .9648-.18 1.7714-.539 2.4199-.359.6445-.881 1.1308-1.564 1.459-.684.3242-1.508.4863-2.473.4863h-2.379v-8.5664h2.637c.886 0 1.652.1602 2.297.4805.644.3164 1.142.7871 1.494 1.4121.351.6211.527 1.3906.527 2.3086zm-1.465.041c0-.7031-.111-1.2813-.334-1.7344-.218-.4531-.543-.7891-.972-1.0078-.426-.2227-.952-.334-1.577-.334h-1.201v6.2227h.996c1.036 0 1.809-.2637 2.321-.7911.511-.5273.767-1.3124.767-2.3554zm6.004-2.2852c.578 0 1.074.1192 1.488.3574.414.2383.733.5762.956 1.0137.222.4375.333.961.333 1.5703v.7383h-4.33c.016.6289.184 1.1133.504 1.4531.325.3399.778.5098 1.36.5098.414 0 .785-.0391 1.113-.1172.332-.082.674-.2012 1.025-.3574v1.1191c-.324.1524-.654.2637-.99.334s-.738.1055-1.207.1055c-.637 0-1.197-.1231-1.682-.3692-.48-.25-.857-.621-1.13-1.1132-.27-.4922-.405-1.1036-.405-1.834 0-.7266.123-1.3438.369-1.8516.247-.5078.592-.8945 1.038-1.1601.445-.2657.964-.3985 1.558-.3985zm0 1.0371c-.433 0-.785.1407-1.055.4219-.265.2813-.421.6934-.468 1.2363h2.953c-.004-.3242-.059-.6113-.164-.8613-.102-.25-.258-.4453-.469-.5859-.207-.1407-.473-.211-.797-.211zm7.82.1348h-1.576v5.4375h-1.377v-5.4375h-1.06v-.6621l1.06-.4043v-.4512c0-.5508.086-.9883.258-1.3125.176-.3242.426-.5566.75-.6972.328-.1446.719-.2168 1.172-.2168.297 0 .568.0254.814.0761.247.0469.454.1016.622.1641l-.358 1.043c-.133-.043-.281-.0821-.445-.1172-.164-.0391-.34-.0586-.528-.0586-.312 0-.542.0976-.691.293-.144.1953-.217.4804-.217.8554v.4395h1.576zm3.901-1.1719c.82 0 1.439.1817 1.857.5449.422.3633.633.9297.633 1.6993v4.3652h-.978l-.264-.9199h-.047c-.184.2344-.373.4277-.568.5801-.196.1523-.422.2656-.68.3398-.254.0781-.564.1172-.932.1172-.386 0-.732-.0703-1.037-.211-.304-.1445-.545-.3632-.72-.6562-.176-.293-.264-.6641-.264-1.1133 0-.6679.248-1.1699.744-1.5058.5-.336 1.254-.5215 2.262-.5567l1.125-.041v-.3398c0-.4493-.106-.7696-.317-.961-.207-.1914-.5-.2871-.879-.2871-.324 0-.638.0469-.943.1406-.305.0938-.602.209-.891.3457l-.445-.9726c.317-.168.676-.3047 1.078-.4102.406-.1054.828-.1582 1.266-.1582zm1.125 3.5098-.838.0293c-.688.0234-1.17.1406-1.447.3515-.278.211-.416.5-.416.8672 0 .3204.095.5547.287.7032.191.1445.443.2168.756.2168.476 0 .871-.1348 1.183-.4043.317-.2735.475-.6739.475-1.2012zm9.197-3.3867v6.4863h-1.084l-.187-.873h-.077c-.136.2226-.31.4082-.521.5566-.211.1445-.445.2519-.703.3223-.258.0742-.529.1113-.815.1113-.488 0-.906-.082-1.254-.2461-.343-.168-.607-.4258-.791-.7734-.183-.3477-.275-.7969-.275-1.3477v-4.2363h1.383v3.9785c0 .5039.101.8808.305 1.1308.207.25.527.375.961.375.417 0 .75-.0859.996-.2578.246-.1718.42-.4257.521-.7617.106-.3359.158-.748.158-1.2363v-3.2285zm3.608 6.4863h-1.383v-9.1172h1.383zm4.632-.9961c.18 0 .358-.0156.534-.0469.175-.0351.335-.0761.48-.123v1.043c-.152.0664-.35.123-.592.1699s-.494.0703-.756.0703c-.367 0-.697-.0606-.99-.1817-.293-.125-.525-.3378-.697-.6386s-.258-.7168-.258-1.2481v-3.4863h-.885v-.6152l.949-.4864.452-1.3886h.867v1.4414h1.857v1.0488h-1.857v3.4687c0 .3282.082.5723.246.7325.164.1601.381.2402.65.2402z" fill="#019aeb"/><rect fill="#171c1e" height="64.5" rx="7" width="112" x="424" y="74"/><path d="m447.18 96.6992h-1.118v-.0742c.008-1.4492.438-1.8906 1.165-2.3359.464-.2891.828-.6993.828-1.2813 0-.6914-.539-1.1328-1.203-1.1328-.598 0-1.188.3633-1.235 1.1914h-1.187c.05-1.4062 1.105-2.1758 2.422-2.1758 1.433 0 2.394.8594 2.394 2.1289 0 .8789-.43 1.4727-1.129 1.8946-.664.4101-.922.8125-.937 1.7109z" fill="#8c8c8c"/><path d="m447.434 98.293c0 .4336-.356.7812-.782.7812-.429 0-.781-.3476-.781-.7812 0-.4258.352-.7774.781-.7774.426 0 .782.3516.782.7774z" fill="#8c8c8c"/><path clip-rule="evenodd" d="m436 99 3.111-8h1.085l3.111 8h-1.073l-.777-2h-3.606l-.778 2zm3.654-6.6361 1.414 3.6361h-2.828z" fill="#8c8c8c" fill-rule="evenodd"/><path d="m462.896 94.063c0 1.2568-.319 2.2451-.957 2.9648-.633.7198-1.516 1.0796-2.647 1.0796-1.157 0-2.05-.3527-2.681-1.0581-.626-.709-.94-1.708-.94-2.9971 0-1.2783.315-2.2683.946-2.9702.63-.7054 1.525-1.0581 2.685-1.0581 1.128 0 2.009.3581 2.643 1.0742.634.7162.951 1.7045.951 2.9649zm-6.258 0c0 1.0635.226 1.8709.677 2.4224.455.5478 1.114.8217 1.977.8217.87 0 1.527-.2739 1.971-.8217.444-.5479.666-1.3554.666-2.4224 0-1.0563-.222-1.8566-.666-2.4009-.441-.5478-1.094-.8218-1.961-.8218-.87 0-1.532.2757-1.987.8272-.451.5478-.677 1.3463-.677 2.3955zm10.619 4.0444c-.383 0-.734-.0698-1.053-.2095-.315-.1432-.58-.3616-.795-.6552h-.064c.043.3437.064.6696.064.9775v2.4228h-.891v-8.5297h.725l.123.8056h.043c.229-.3222.496-.555.8-.6982.305-.1432.654-.2148 1.048-.2148.78 0 1.382.2667 1.805.8003.426.5335.639 1.2819.639 2.2451 0 .9668-.217 1.7187-.65 2.2558-.43.5336-1.028.8003-1.794.8003zm-.129-5.3442c-.602 0-1.037.1665-1.305.4995-.269.333-.407.863-.414 1.5898v.1988c0 .8271.138 1.4197.414 1.7778.275.3545.718.5317 1.326.5317.509 0 .906-.2059 1.193-.6176.29-.4118.435-.9794.435-1.7027 0-.734-.145-1.2962-.435-1.6865-.287-.3939-.691-.5908-1.214-.5908zm6.622 5.3442c-.87 0-1.557-.265-2.062-.7949-.501-.5299-.752-1.2658-.752-2.2075 0-.9489.233-1.7027.698-2.2612.469-.5586 1.098-.8379 1.886-.8379.737 0 1.321.2434 1.751.7304.429.4834.644 1.1226.644 1.9175v.564h-4.055c.018.6911.191 1.2156.521 1.5737.333.3581.8.5371 1.402.5371.634 0 1.26-.1325 1.88-.3974v.7949c-.316.136-.614.2327-.897.29-.28.0609-.618.0913-1.016.0913zm-.241-5.355c-.473 0-.851.154-1.134.462-.279.3079-.444.734-.494 1.2783h3.078c0-.5622-.125-.9919-.376-1.2891-.251-.3008-.609-.4512-1.074-.4512zm7.96 5.2476v-3.8081c0-.4798-.109-.8379-.328-1.0742-.218-.2364-.56-.3545-1.026-.3545-.616 0-1.067.1665-1.353.4995-.287.333-.43.8826-.43 1.6489v3.0884h-.892v-5.8867h.726l.145.8056h.043c.182-.29.438-.5138.768-.6713.329-.1612.696-.2417 1.101-.2417.709 0 1.242.1718 1.6.5156.358.3402.537.8862.537 1.6382v3.8403zm10.151-2.0894c0 .6911-.251 1.23-.752 1.6167-.501.3868-1.181.5801-2.041.5801-.931 0-1.647-.1199-2.148-.3598v-.8809c.322.1361.673.2435 1.052.3223.38.0787.756.1181 1.128.1181.609 0 1.067-.1146 1.375-.3437.308-.2328.462-.555.462-.9668 0-.2722-.055-.4942-.166-.666-.108-.1755-.29-.3366-.548-.4834-.254-.1468-.643-.3133-1.166-.4995-.73-.2614-1.253-.5712-1.568-.9292-.311-.3581-.467-.8254-.467-1.4019 0-.6051.227-1.0867.682-1.4448s1.056-.5371 1.805-.5371c.78 0 1.498.1432 2.153.4297l-.284.7949c-.648-.2722-1.279-.4082-1.891-.4082-.483 0-.861.1038-1.133.3115s-.408.4959-.408.8647c0 .2722.05.496.15.6714.1.1719.269.3312.505.4781.24.1432.605.3025 1.096.478.823.2936 1.389.6087 1.697.9453.311.3366.467.7734.467 1.3105zm5.092 2.0894-.177-.8379h-.043c-.294.3688-.588.6195-.881.752-.29.1289-.654.1933-1.09.1933-.584 0-1.042-.1504-1.375-.4512-.33-.3007-.495-.7286-.495-1.2836 0-1.1888.951-1.8119 2.852-1.8692l.999-.0322v-.3652c0-.462-.1-.8021-.3-1.0206-.197-.222-.514-.333-.951-.333-.491 0-1.046.1504-1.665.4512l-.274-.6821c.29-.1576.607-.2811.951-.3706.347-.0895.694-.1343 1.042-.1343.702 0 1.221.1558 1.557.4673.34.3115.511.811.511 1.4985v4.0176zm-2.014-.6284c.555 0 .99-.1522 1.305-.4566.319-.3043.478-.7304.478-1.2783v-.5317l-.892.0376c-.709.025-1.221.136-1.536.333-.311.1933-.467.4959-.467.9077 0 .3223.097.5675.29.7358.197.1683.471.2525.822.2525zm8.545.6284v-3.8081c0-.4798-.109-.8379-.327-1.0742-.219-.2364-.561-.3545-1.026-.3545-.616 0-1.067.1665-1.354.4995-.286.333-.43.8826-.43 1.6489v3.0884h-.891v-5.8867h.725l.145.8056h.043c.183-.29.439-.5138.768-.6713.329-.1612.696-.2417 1.101-.2417.709 0 1.243.1718 1.601.5156.358.3402.537.8862.537 1.6382v3.8403zm6.526-1.606c0 .5479-.204.9704-.612 1.2676s-.981.4458-1.719.4458c-.781 0-1.389-.1235-1.826-.3706v-.8271c.283.1432.585.256.908.3383.325.0824.639.1236.939.1236.466 0 .824-.0734 1.075-.2202.25-.1504.376-.3778.376-.6822 0-.2291-.101-.4243-.301-.5854-.197-.1647-.584-.3581-1.16-.5801-.548-.2041-.938-.3813-1.171-.5317-.229-.154-.401-.3277-.516-.521-.111-.1934-.166-.4243-.166-.6929 0-.4798.195-.8576.585-1.1333.39-.2793.926-.4189 1.606-.4189.634 0 1.253.1289 1.859.3867l-.317.7251c-.591-.2435-1.127-.3653-1.606-.3653-.423 0-.742.0663-.956.1988-.215.1325-.323.3151-.323.5478 0 .1576.04.2919.118.4029.083.111.214.2166.393.3169.179.1002.522.2452 1.031.435.698.2542 1.169.5103 1.412.7681.248.2578.371.5818.371.9721zm-49.258 14.517c0 .691-.251 1.23-.752 1.616-.502.387-1.182.58-2.041.58-.931 0-1.647-.12-2.149-.359v-.881c.323.136.674.243 1.053.322.38.079.756.118 1.128.118.609 0 1.067-.114 1.375-.344.308-.232.462-.555.462-.966 0-.273-.056-.495-.167-.666-.107-.176-.29-.337-.547-.484-.255-.147-.643-.313-1.166-.499-.73-.262-1.253-.571-1.568-.93-.312-.358-.468-.825-.468-1.401 0-.606.228-1.087.683-1.445.454-.358 1.056-.537 1.804-.537.781 0 1.499.143 2.154.429l-.285.795c-.648-.272-1.278-.408-1.89-.408-.484 0-.861.104-1.134.312-.272.207-.408.496-.408.864 0 .272.05.496.151.672.1.172.268.331.504.478.24.143.606.302 1.096.478.824.293 1.39.609 1.697.945.312.337.468.774.468 1.311zm3.958 2.196c-.87 0-1.557-.265-2.062-.795-.502-.529-.752-1.265-.752-2.207 0-.949.233-1.703.698-2.261.469-.559 1.098-.838 1.885-.838.738 0 1.322.243 1.751.73.43.484.645 1.123.645 1.918v.564h-4.055c.018.691.191 1.215.521 1.574.333.358.8.537 1.401.537.634 0 1.261-.133 1.88-.398v.795c-.315.136-.614.233-.897.29-.279.061-.617.091-1.015.091zm-.241-5.355c-.473 0-.851.154-1.134.462-.279.308-.444.734-.494 1.279h3.078c0-.562-.126-.992-.376-1.289-.251-.301-.609-.452-1.074-.452zm11.435 5.248v-3.83c0-.469-.101-.82-.301-1.052-.201-.237-.512-.355-.935-.355-.555 0-.965.16-1.23.478-.265.319-.397.809-.397 1.472v3.287h-.892v-3.83c0-.469-.1-.82-.301-1.052-.2-.237-.513-.355-.94-.355-.558 0-.968.168-1.229.505-.258.333-.387.881-.387 1.644v3.088h-.892v-5.887h.725l.145.806h.043c.169-.287.405-.51.709-.671.308-.162.652-.242 1.031-.242.921 0 1.522.333 1.805.999h.043c.176-.308.43-.552.763-.731s.712-.268 1.139-.268c.666 0 1.163.172 1.493.515.333.341.499.887.499 1.639v3.84zm3.625 0h-.892v-5.887h.892zm-.967-7.482c0-.204.05-.353.151-.446.1-.096.225-.145.376-.145.143 0 .266.049.37.145.104.097.156.246.156.446 0 .201-.052.351-.156.451-.104.097-.227.145-.37.145-.151 0-.276-.048-.376-.145-.101-.1-.151-.25-.151-.451zm5.597 1.499c.773 0 1.373.265 1.799.795.43.526.645 1.272.645 2.239s-.217 1.719-.65 2.256c-.43.534-1.028.8-1.794.8-.383 0-.734-.069-1.053-.209-.315-.143-.58-.362-.795-.655h-.064l-.188.757h-.639v-8.357h.891v2.03c0 .455-.014.863-.043 1.224h.043c.416-.587 1.032-.88 1.848-.88zm-.129.746c-.609 0-1.047.176-1.316.527-.268.347-.403.934-.403 1.761s.138 1.42.414 1.778c.276.355.718.532 1.327.532.547 0 .956-.199 1.224-.596.269-.401.403-.976.403-1.724 0-.767-.134-1.338-.403-1.714-.268-.376-.684-.564-1.246-.564zm9.217 2.288c0 .96-.242 1.71-.725 2.251-.484.537-1.151.805-2.004.805-.526 0-.993-.123-1.402-.37-.408-.247-.723-.602-.945-1.064s-.333-1.002-.333-1.622c0-.959.24-1.706.72-2.239.48-.538 1.146-.806 1.998-.806.824 0 1.477.274 1.96.822.487.547.731 1.289.731 2.223zm-4.485 0c0 .752.15 1.325.451 1.719s.743.591 1.327.591c.583 0 1.026-.195 1.326-.586.305-.393.457-.968.457-1.724 0-.748-.152-1.316-.457-1.702-.3-.391-.746-.586-1.337-.586-.584 0-1.024.192-1.321.575s-.446.954-.446 1.713zm6.945 2.949h-.892v-8.357h.892zm5.897-.79h-.048c-.412.598-1.028.897-1.848.897-.77 0-1.369-.263-1.799-.789-.426-.526-.639-1.275-.639-2.245 0-.971.215-1.724.644-2.261.43-.538 1.028-.806 1.794-.806.799 0 1.411.29 1.837.87h.07l-.038-.424-.021-.414v-2.395h.892v8.357h-.726zm-1.783.151c.609 0 1.049-.165 1.321-.494.276-.333.414-.869.414-1.606v-.188c0-.835-.14-1.429-.419-1.783-.276-.359-.718-.538-1.327-.538-.522 0-.923.205-1.203.613-.276.404-.413.977-.413 1.718 0 .752.137 1.32.413 1.703s.681.575 1.214.575zm-39.069 13.55c0 .691-.251 1.23-.752 1.616-.502.387-1.182.58-2.041.58-.931 0-1.647-.12-2.149-.359v-.881c.323.136.674.243 1.053.322.38.079.756.118 1.128.118.609 0 1.067-.114 1.375-.344.308-.232.462-.555.462-.966 0-.273-.056-.495-.167-.666-.107-.176-.29-.337-.547-.484-.255-.147-.643-.313-1.166-.499-.73-.262-1.253-.571-1.568-.93-.312-.358-.468-.825-.468-1.401 0-.606.228-1.087.683-1.445.454-.358 1.056-.537 1.804-.537.781 0 1.499.143 2.154.429l-.285.795c-.648-.272-1.278-.408-1.89-.408-.484 0-.861.104-1.134.312-.272.207-.408.496-.408.864 0 .272.05.496.151.672.1.172.268.331.504.478.24.143.606.302 1.096.478.824.293 1.39.609 1.697.945.312.337.468.774.468 1.311zm2.363 2.089h-.892v-5.887h.892zm-.967-7.482c0-.204.05-.353.151-.446.1-.096.225-.145.376-.145.143 0 .266.049.37.145.104.097.156.246.156.446 0 .201-.052.351-.156.451-.104.097-.227.145-.37.145-.151 0-.276-.048-.376-.145-.101-.1-.151-.25-.151-.451zm6.623 7.482h-4.27v-.607l3.212-4.587h-3.014v-.693h3.991v.693l-3.169 4.501h3.25zm3.867.107c-.87 0-1.558-.265-2.063-.795-.501-.529-.751-1.265-.751-2.207 0-.949.232-1.703.698-2.261.469-.559 1.097-.838 1.885-.838.738 0 1.321.243 1.751.73.43.484.645 1.123.645 1.918v.564h-4.056c.018.691.192 1.215.521 1.574.333.358.801.537 1.402.537.634 0 1.261-.133 1.88-.398v.795c-.315.136-.614.233-.897.29-.279.061-.618.091-1.015.091zm-.242-5.355c-.472 0-.85.154-1.133.462-.279.308-.444.734-.494 1.279h3.077c0-.562-.125-.992-.376-1.289-.25-.301-.608-.452-1.074-.452zm3.803 4.679c0-.24.054-.421.161-.543.111-.125.269-.188.473-.188.207 0 .369.063.483.188.118.122.177.303.177.543 0 .232-.059.411-.177.537-.118.125-.279.188-.483.188-.183 0-.335-.056-.457-.167-.118-.114-.177-.301-.177-.558zm0-4.743c0-.483.211-.725.634-.725.44 0 .66.242.66.725 0 .233-.059.412-.177.537s-.279.188-.483.188c-.183 0-.335-.055-.457-.166-.118-.115-.177-.301-.177-.559zm8.814 5.312h-.87v-5.597c0-.465.014-.906.043-1.321-.075.075-.16.154-.253.236-.093.083-.519.432-1.278 1.048l-.473-.613 2.079-1.606h.752zm8.153 0h-5.161v-.768l2.068-2.079c.63-.637 1.045-1.092 1.246-1.364.2-.272.351-.537.451-.795s.15-.535.15-.832c0-.419-.127-.751-.381-.994-.254-.247-.607-.371-1.058-.371-.326 0-.636.054-.929.161-.29.108-.615.303-.973.586l-.472-.607c.723-.602 1.511-.902 2.363-.902.738 0 1.316.189 1.735.569.419.376.628.883.628 1.52 0 .498-.139.99-.419 1.477-.279.487-.802 1.103-1.568 1.848l-1.719 1.681v.043h4.039z" fill="#fff"/><path d="m0 0h318.667v178.5h-318.667z" fill="#252a2e" transform="translate(641.333)"/><path d="m842 64v46" stroke="#e8178a"/><rect fill="#e8178a" height="18" rx="3" width="38" x="847" y="77.5"/><path d="m853.479 89.2216v-1.2109l3.037-4.7834h1.044v1.6761h-.618l-1.914 3.0291v.0568h4.314v1.2323zm3.491 1.2784v-1.6477l.029-.5362v-5.0888h1.441v7.2727zm6.11.0994c-.547 0-1.033-.0887-1.46-.2663-.423-.1799-.756-.425-.997-.7351-.242-.3101-.363-.6617-.363-1.0547 0-.303.069-.5812.206-.8345.14-.2557.329-.4676.568-.6356.24-.1705.507-.2794.803-.3268v-.0497c-.388-.0781-.703-.2663-.945-.5646-.241-.3007-.362-.6499-.362-1.0476 0-.3764.11-.7114.33-1.005.221-.2959.522-.5279.906-.696.386-.1704.824-.2557 1.314-.2557s.927.0853 1.31.2557c.386.1705.689.4037.909.6996.221.2936.332.6274.334 1.0014-.002.4001-.125.7493-.369 1.0476s-.556.4865-.938.5646v.0497c.292.0474.556.1563.792.3268.239.168.429.3799.568.6356.142.2533.215.5315.217.8345-.002.393-.124.7446-.366 1.0547-.241.3101-.575.5552-1.001.7351-.424.1776-.909.2663-1.456.2663zm0-1.1292c.244 0 .457-.0438.639-.1314.182-.09.324-.2131.426-.3693.104-.1587.156-.3409.156-.5469 0-.2107-.053-.3966-.159-.5575-.107-.1634-.251-.2912-.434-.3836-.182-.0947-.391-.142-.628-.142-.234 0-.444.0473-.629.142-.184.0924-.33.2202-.436.3836-.105.1609-.157.3468-.157.5575 0 .206.051.3882.153.5469.102.1562.245.2793.43.3693.184.0876.397.1314.639.1314zm0-3.2493c.203 0 .385-.0414.543-.1243.159-.0829.283-.1977.373-.3445.09-.1467.135-.316.135-.5078 0-.1894-.045-.3551-.135-.4971-.09-.1445-.213-.2569-.369-.3374-.156-.0829-.339-.1243-.547-.1243-.206 0-.388.0414-.547.1243-.159.0805-.283.1929-.373.3374-.087.142-.131.3077-.131.4971 0 .1918.045.3611.135.5078.09.1468.214.2616.373.3445.158.0829.339.1243.543.1243zm3.912 6.3246v-7.5h1.492v.9161h.067c.067-.1467.162-.2959.288-.4474.128-.1539.294-.2817.497-.3835.206-.1042.462-.1563.767-.1563.398 0 .765.1042 1.101.3125.336.206.605.5173.806.934.201.4143.302.9339.302 1.5589 0 .6085-.098 1.1222-.295 1.5412-.194.4167-.459.7327-.795.9482-.334.213-.708.3196-1.122.3196-.294 0-.544-.0486-.75-.1456-.203-.0971-.37-.219-.5-.3658-.131-.1491-.23-.2995-.299-.451h-.046v2.9191zm1.481-4.7728c0 .3244.045.6073.135.8487.09.2415.22.4297.391.5647.17.1326.377.1988.621.1988.246 0 .455-.0674.625-.2024.171-.1373.3-.3267.387-.5682.09-.2438.135-.5243.135-.8416 0-.3148-.044-.5918-.131-.8309-.088-.2391-.217-.4262-.387-.5611-.171-.135-.38-.2024-.629-.2024-.246 0-.454.0651-.625.1953-.168.1302-.297.3148-.387.554-.09.2391-.135.5208-.135.8451zm5.916-2.7272 1.002 1.9069 1.026-1.9069h1.552l-1.58 2.7272 1.623 2.7273h-1.545l-1.076-1.8857-1.058 1.8857h-1.563l1.619-2.7273-1.562-2.7272z" fill="#fff"/><path d="m839 63.5h7" stroke="#e8178a"/><path d="m839 110.5h7" stroke="#e8178a"/><path d="m780 55h43" stroke="#e8178a"/><rect fill="#e8178a" height="18" rx="3" width="38" x="783" y="31"/><path d="m789.479 42.7216v-1.2109l3.037-4.7834h1.044v1.6761h-.618l-1.914 3.0291v.0568h4.314v1.2323zm3.491 1.2784v-1.6477l.029-.5362v-5.0888h1.441v7.2727zm6.053.0994c-.502 0-.949-.0923-1.342-.277-.391-.1846-.701-.4391-.931-.7635-.229-.3243-.349-.696-.358-1.115h1.491c.017.2817.135.5102.355.6854s.482.2627.785.2627c.242 0 .455-.0532.639-.1598.187-.1089.333-.2592.437-.451.107-.1941.16-.4166.16-.6676 0-.2556-.055-.4806-.163-.6747-.107-.1941-.255-.3456-.444-.4545-.19-.1089-.406-.1646-.65-.1669-.213 0-.42.0438-.622.1314-.199.0876-.354.2071-.465.3586l-1.367-.245.344-3.8352h4.446v1.2571h-3.178l-.188 1.8217h.043c.127-.1799.32-.3291.578-.4474.258-.1184.547-.1776.867-.1776.438 0 .828.103 1.172.309.343.2059.614.4888.813.8487.199.3575.297.7694.295 1.2358.002.49-.112.9256-.341 1.3068-.227.3788-.546.6771-.955.8949-.408.2154-.881.3231-1.421.3231zm3.803 1.9461v-7.5h1.492v.9161h.067c.067-.1467.162-.2959.288-.4474.128-.1539.294-.2817.497-.3835.206-.1042.462-.1563.767-.1563.398 0 .765.1042 1.101.3125.336.206.605.5173.806.934.201.4143.302.9339.302 1.5589 0 .6085-.098 1.1222-.295 1.5412-.194.4167-.459.7327-.795.9482-.334.213-.708.3196-1.122.3196-.294 0-.544-.0486-.75-.1456-.203-.0971-.37-.219-.5-.3658-.131-.1491-.23-.2995-.299-.451h-.046v2.9191zm1.481-4.7728c0 .3244.045.6073.135.8487.09.2415.22.4297.391.5647.17.1326.377.1988.621.1988.246 0 .455-.0674.625-.2024.171-.1373.3-.3267.387-.5682.09-.2438.135-.5243.135-.8416 0-.3148-.044-.5918-.131-.8309-.088-.2391-.217-.4262-.387-.5611-.171-.135-.38-.2024-.629-.2024-.246 0-.454.0651-.625.1953-.168.1302-.297.3148-.387.554-.09.2391-.135.5208-.135.8451zm5.916-2.7272 1.002 1.9069 1.026-1.9069h1.552l-1.58 2.7272 1.623 2.7273h-1.545l-1.076-1.8857-1.058 1.8857h-1.563l1.619-2.7273-1.562-2.7272z" fill="#fff"/><path d="m779.5 58v-7" stroke="#e8178a"/><path d="m823.5 58v-7" stroke="#e8178a"/><g fill="#019aeb"><path d="m794 69.75c-.442 0-.862.0878-1.244.2463-.382.1587-.821-.0229-.98-.4055s.023-.8214.406-.9801c.561-.2327 1.175-.3607 1.818-.3607h1.5c.414 0 .75.3358.75.75s-.336.75-.75.75z"/><path d="m797.75 69c0-.4142.336-.75.75-.75h3c.414 0 .75.3358.75.75s-.336.75-.75.75h-3c-.414 0-.75-.3358-.75-.75z"/><path d="m803.75 69c0-.4142.336-.75.75-.75h1.5c.643 0 1.257.128 1.818.3607.383.1587.565.5975.406.9801s-.598.5642-.98.4055c-.382-.1585-.802-.2463-1.244-.2463h-1.5c-.414 0-.75-.3358-.75-.75z"/><path d="m790.591 70.7761c.382.1586.564.5974.405.98-.158.3822-.246.8018-.246 1.2439v1.5c0 .4142-.336.75-.75.75s-.75-.3358-.75-.75v-1.5c0-.6427.128-1.2573.361-1.8184.158-.3827.597-.5642.98-.4055z"/><path d="m809.409 70.7761c.383-.1587.822.0228.98.4055.233.5611.361 1.1757.361 1.8184v1.5c0 .4142-.336.75-.75.75s-.75-.3358-.75-.75v-1.5c0-.4421-.088-.8617-.246-1.2439-.159-.3826.023-.8214.405-.98z"/><path d="m790 76.75c.414 0 .75.3358.75.75v3c0 .4142-.336.75-.75.75s-.75-.3358-.75-.75v-3c0-.4142.336-.75.75-.75z"/><path d="m810 76.75c.414 0 .75.3358.75.75v3c0 .4142-.336.75-.75.75s-.75-.3358-.75-.75v-3c0-.4142.336-.75.75-.75z"/><path d="m790 82.75c.414 0 .75.3358.75.75v1.5c0 .4421.088.8617.246 1.2439.159.3826-.023.8214-.405.98-.383.1587-.822-.0228-.98-.4055-.233-.5611-.361-1.1757-.361-1.8184v-1.5c0-.4142.336-.75.75-.75z"/><path d="m810 82.75c.414 0 .75.3358.75.75v1.5c0 .6427-.128 1.2573-.361 1.8184-.158.3827-.597.5642-.98.4055-.382-.1586-.564-.5974-.405-.98.158-.3822.246-.8018.246-1.2439v-1.5c0-.4142.336-.75.75-.75z"/><path d="m791.776 88.4092c.159-.3826.598-.5642.98-.4055.382.1585.802.2463 1.244.2463h1.5c.414 0 .75.3358.75.75s-.336.75-.75.75h-1.5c-.643 0-1.257-.128-1.818-.3607-.383-.1587-.565-.5975-.406-.9801z"/><path d="m808.224 88.4092c.159.3826-.023.8214-.406.9801-.561.2327-1.175.3607-1.818.3607h-1.5c-.414 0-.75-.3358-.75-.75s.336-.75.75-.75h1.5c.442 0 .862-.0878 1.244-.2463.382-.1587.821.0229.98.4055z"/><path d="m797.75 89c0-.4142.336-.75.75-.75h3c.414 0 .75.3358.75.75s-.336.75-.75.75h-3c-.414 0-.75-.3358-.75-.75z"/><path d="m808.53 71.591c.293-.2929.293-.7678 0-1.0607s-.767-.2929-1.06 0l-.997.9962c-.292.2929-.292.7678 0 1.0607.293.2929.768.2929 1.061 0z"/><path d="m805.542 74.5796c.293-.2929.293-.7678 0-1.0606-.293-.2929-.768-.2929-1.061 0l-1.992 1.9924c-.293.2929-.293.7677 0 1.0606s.767.2929 1.06 0z"/><path d="m801.557 78.5645c.293-.2929.293-.7678 0-1.0607s-.768-.2929-1.061 0l-.496.4962-.496-.4962c-.293-.2929-.768-.2929-1.061 0s-.293.7678 0 1.0607l.496.4962-.435.4355c-.293.2929-.293.7678 0 1.0607s.768.2929 1.06 0l.436-.4356.436.4356c.292.2929.767.2929 1.06 0s.293-.7678 0-1.0607l-.435-.4355z"/><path d="m797.572 82.5493c.293-.2929.293-.7678 0-1.0607s-.768-.2929-1.061 0l-1.992 1.9924c-.293.2929-.293.7678 0 1.0607s.768.2929 1.061 0z"/><path d="m793.587 86.5341c.293-.2929.293-.7677 0-1.0606s-.768-.2929-1.06 0l-.997.9962c-.293.2929-.293.7677 0 1.0606s.768.2929 1.061 0z"/><path d="m807.409 87.5303c.293.2929.768.2929 1.061 0s.293-.7677 0-1.0606l-.997-.9962c-.292-.2929-.767-.2929-1.06 0s-.293.7677 0 1.0606z"/><path d="m804.42 84.5417c.293.2929.768.2929 1.061 0s.293-.7678 0-1.0607l-1.992-1.9924c-.293-.2929-.768-.2929-1.061 0s-.293.7678 0 1.0607z"/><path d="m796.451 76.572c.293.2929.767.2929 1.06 0s.293-.7677 0-1.0606l-1.992-1.9924c-.293-.2929-.768-.2929-1.061 0-.293.2928-.293.7677 0 1.0606z"/><path d="m792.466 72.5872c.293.2929.768.2929 1.061 0 .292-.2929.292-.7678 0-1.0607l-.997-.9962c-.293-.2929-.767-.2929-1.06 0s-.293.7678 0 1.0607z"/><path d="m797.056 73.889c.298-.0902.615-.139.944-.139h.75c.414 0 .75-.3358.75-.75s-.336-.75-.75-.75h-.75c-.478 0-.942.071-1.379.2035-.396.1201-.62.5388-.5.9352s.539.6204.935.5003z"/><path d="m801.25 72.25c-.414 0-.75.3358-.75.75s.336.75.75.75h.75c.329 0 .646.0488.944.139.396.1201.815-.1039.935-.5003s-.104-.8151-.5-.9352c-.437-.1325-.901-.2035-1.379-.2035z"/><path d="m794.889 76.0559c.12-.3964-.104-.8151-.5-.9352-.397-.1201-.815.1039-.936.5003-.132.4373-.203.9006-.203 1.379v.75c0 .4142.336.75.75.75s.75-.3358.75-.75v-.75c0-.3295.049-.6462.139-.9441z"/><path d="m806.547 75.621c-.121-.3964-.539-.6204-.936-.5003-.396.1201-.62.5388-.5.9352.09.2979.139.6146.139.9441v.75c0 .4142.336.75.75.75s.75-.3358.75-.75v-.75c0-.4784-.071-.9417-.203-1.379z"/><path d="m794.75 80.25c0-.4142-.336-.75-.75-.75s-.75.3358-.75.75v.75c0 .4784.071.9417.203 1.379.121.3964.539.6204.936.5003.396-.1201.62-.5388.5-.9352-.09-.2979-.139-.6146-.139-.9441z"/><path d="m806.75 80.25c0-.4142-.336-.75-.75-.75s-.75.3358-.75.75v.75c0 .3295-.049.6462-.139.9441-.12.3964.104.8151.5.9352.397.1201.815-.1039.936-.5003.132-.4373.203-.9006.203-1.379z"/><path d="m797.056 84.111c-.396-.1201-.815.1039-.935.5003s.104.8151.5.9352c.437.1325.901.2035 1.379.2035h.75c.414 0 .75-.3358.75-.75s-.336-.75-.75-.75h-.75c-.329 0-.646-.0488-.944-.139z"/><path d="m803.379 85.5465c.396-.1201.62-.5388.5-.9352s-.539-.6204-.935-.5003c-.298.0902-.615.139-.944.139h-.75c-.414 0-.75.3358-.75.75s.336.75.75.75h.75c.478 0 .942-.071 1.379-.2035z"/><path d="m786.255 101.635c0 .965-.18 1.771-.539 2.42-.359.644-.881 1.131-1.564 1.459-.684.324-1.508.486-2.473.486h-2.379v-8.5664h2.637c.886 0 1.652.1602 2.297.4805.644.3164 1.142.7871 1.494 1.4121.351.6211.527 1.3908.527 2.3088zm-1.465.041c0-.703-.111-1.281-.334-1.7346-.219-.4531-.543-.7891-.972-1.0078-.426-.2227-.952-.334-1.577-.334h-1.201v6.2224h.996c1.035 0 1.809-.263 2.321-.791.511-.527.767-1.312.767-2.355zm5.904-2.2854c.578 0 1.074.1192 1.488.3574.414.2383.733.576.955 1.014.223.437.334.961.334 1.57v.738h-4.33c.016.629.184 1.114.504 1.453.325.34.778.51 1.36.51.414 0 .785-.039 1.113-.117.332-.082.674-.201 1.025-.357v1.119c-.324.152-.654.263-.99.334-.336.07-.738.105-1.207.105-.637 0-1.197-.123-1.682-.369-.48-.25-.857-.621-1.13-1.113-.27-.492-.405-1.104-.405-1.834 0-.727.123-1.344.369-1.852.247-.508.592-.894 1.038-1.1599.445-.2657.964-.3985 1.558-.3985zm0 1.0374c-.433 0-.785.14-1.055.422-.265.281-.421.693-.468 1.236h2.953c-.004-.324-.059-.611-.164-.861-.102-.25-.258-.446-.469-.586-.207-.141-.473-.211-.797-.211zm7.72.134h-1.576v5.438h-1.377v-5.438h-1.06v-.6616l1.06-.4043v-.4512c0-.5508.086-.9883.258-1.3125.176-.3242.426-.5566.75-.6972.328-.1446.719-.2168 1.172-.2168.297 0 .568.0254.814.0761.247.0469.454.1016.622.1641l-.358 1.043c-.133-.043-.281-.0821-.445-.1172-.164-.0391-.34-.0586-.528-.0586-.312 0-.542.0976-.691.293-.144.1953-.217.4804-.217.8554v.4395h1.576zm3.801-1.1714c.82 0 1.439.1817 1.857.5449.422.3635.633.9295.633 1.6995v4.365h-.978l-.264-.92h-.047c-.184.234-.373.428-.568.58-.196.152-.422.266-.68.34-.254.078-.564.117-.932.117-.386 0-.732-.07-1.037-.211-.304-.144-.545-.363-.72-.656-.176-.293-.264-.664-.264-1.113 0-.668.248-1.17.744-1.506.5-.336 1.254-.522 2.262-.557l1.125-.041v-.34c0-.449-.106-.769-.317-.961-.207-.191-.5-.287-.879-.287-.324 0-.638.047-.943.141s-.602.209-.891.346l-.445-.973c.317-.168.676-.3047 1.078-.4102.406-.1054.828-.1582 1.266-.1582zm1.125 3.5094-.838.03c-.688.023-1.17.14-1.447.351-.278.211-.416.5-.416.867 0 .321.095.555.287.704.191.144.443.216.756.216.476 0 .871-.134 1.183-.404.317-.273.475-.674.475-1.201zm9.097-3.3863v6.4863h-1.084l-.187-.873h-.077c-.136.223-.31.408-.521.557-.211.144-.445.252-.703.322-.258.074-.529.111-.815.111-.488 0-.906-.082-1.254-.246-.343-.168-.607-.426-.791-.773-.183-.348-.275-.797-.275-1.348v-4.2363h1.383v3.9783c0 .504.101.881.305 1.131.207.25.527.375.961.375.417 0 .75-.086.996-.258s.42-.426.521-.761c.106-.336.158-.749.158-1.237v-3.2283zm3.508 6.4863h-1.383v-9.1172h1.383zm4.532-.996c.18 0 .358-.016.534-.047.175-.035.335-.076.48-.123v1.043c-.152.066-.35.123-.592.17s-.494.07-.756.07c-.367 0-.697-.06-.99-.181-.293-.125-.525-.338-.697-.639s-.258-.717-.258-1.248v-3.487h-.885v-.6147l.95-.4864.451-1.3886h.867v1.4414h1.857v1.0483h-1.857v3.469c0 .328.082.573.246.733s.381.24.65.24z"/></g></g></g></svg>