<svg fill="none" height="134" viewBox="0 0 960 134" width="960" xmlns="http://www.w3.org/2000/svg" xmlns:xlink="http://www.w3.org/1999/xlink"><clipPath id="a"><path d="m0 0h960v134h-960z"/></clipPath><clipPath id="b"><path d="m41 57h20v20h-20z"/></clipPath><clipPath id="c"><path d="m566 47h20v20h-20z"/></clipPath><g clip-path="url(#a)"><path d="m0 0h479v134h-479z" fill="#252a2e"/><path d="m0 0h426v54h-426z" fill="#171c1e" transform="translate(26.5 40)"/><rect fill="#353a40" height="40" rx="20" width="90" x="30.5" y="47"/><g clip-path="url(#b)"><path d="m51.0003 58.6665c-4.6 0-8.3333 3.7333-8.3333 8.3333s3.7333 8.3334 8.3333 8.3334 8.3334-3.7334 8.3334-8.3334-3.7334-8.3333-8.3334-8.3333zm0 3.3333c1.725 0 3.125 1.4 3.125 3.125s-1.4 3.125-3.125 3.125-3.125-1.4-3.125-3.125 1.4-3.125 3.125-3.125zm0 11.6667c-2.3666 0-4.45-1.25-5.6333-3.1167.1083-.0583.225-.1166.3583-.175 1.0167-.4666 2.8917-1.1416 5.275-1.1416 2.3917 0 4.2667.675 5.275 1.1416.1334.0584.25.125.3584.1834-1.1834 1.8666-3.2584 3.1083-5.6334 3.1083z" fill="#019aeb"/></g><g fill="#019aeb"><path d="m67.8945 67.4648h.5977c.5586 0 .9766-.1093 1.2539-.3281.2773-.2226.416-.5449.416-.9668 0-.4258-.1172-.7402-.3516-.9433-.2304-.2032-.5937-.3047-1.0898-.3047h-.8262zm4.1016-1.3593c0 .9218-.2891 1.6269-.8672 2.1152-.5742.4883-1.3926.7324-2.4551.7324h-.7793v3.0469h-1.8164v-8.5664h2.7364c1.039 0 1.8281.2246 2.3671.6738.543.4453.8145 1.1114.8145 1.9981zm5.2828-.7793c.2422 0 .4434.0176.6035.0527l-.1347 1.6758c-.1446-.0391-.3204-.0586-.5274-.0586-.5703 0-1.0156.1465-1.3359.4394-.3164.293-.4746.7032-.4746 1.2305v3.334h-1.7871v-6.5508h1.3535l.2636 1.1016h.0879c.2032-.3672.4766-.6621.8203-.8848.3477-.2265.7247-.3398 1.1309-.3398zm3.3668 3.3867c0 .6484.1055 1.1387.3164 1.4707.2149.332.5625.498 1.043.498.4765 0 .8183-.164 1.0254-.4921.2109-.3321.3164-.8243.3164-1.4766 0-.6484-.1055-1.1348-.3164-1.459-.211-.3242-.5567-.4863-1.0371-.4863-.4766 0-.8204.1621-1.0313.4863-.2109.3203-.3164.8066-.3164 1.459zm4.5293 0c0 1.0664-.2812 1.9004-.8437 2.5019-.5625.6016-1.3458.9024-2.3497.9024-.6289 0-1.1836-.1367-1.664-.4102-.4805-.2773-.8496-.6738-1.1074-1.1894-.2579-.5156-.3868-1.1172-.3868-1.8047 0-1.0703.2793-1.9024.8379-2.4961.5586-.5938 1.3438-.8906 2.3555-.8906.6289 0 1.1836.1367 1.6641.4101.4804.2735.8496.666 1.1074 1.1778.2578.5117.3867 1.1113.3867 1.7988zm5.2477-1.9219h-1.5469v5.209h-1.7871v-5.209h-.9844v-.8613l.9844-.4805v-.4804c0-.7461.1836-1.2911.5508-1.6348.3671-.3438.955-.5156 1.7636-.5156.6172 0 1.166.0918 1.6465.2754l-.457 1.3124c-.3594-.1132-.6914-.1699-.9961-.1699-.2539 0-.4375.0762-.5508.2285-.1133.1485-.1699.3399-.1699.5743v.4101h1.5469zm.9492-3.0351c0-.5821.3242-.8731.9726-.8731.6485 0 .9727.291.9727.8731 0 .2773-.082.4941-.2461.6503-.1602.1524-.4023.2286-.7266.2286-.6484 0-.9726-.293-.9726-.8789zm1.8633 8.2441h-1.7872v-6.5508h1.7872zm3.8121 0h-1.7871v-9.1172h1.7871zm4.7437-5.4023c-.379 0-.676.1211-.891.3632-.214.2383-.338.5782-.369 1.0196h2.508c-.008-.4414-.123-.7813-.346-1.0196-.222-.2421-.523-.3632-.902-.3632zm.252 5.5195c-1.055 0-1.879-.291-2.4727-.8731-.5937-.582-.8906-1.4062-.8906-2.4726 0-1.0977.2734-1.9453.8203-2.543.551-.6015 1.311-.9023 2.279-.9023.926 0 1.647.2636 2.162.791.516.5273.774 1.2558.774 2.1855v.8672h-4.225c.02.5078.17.9043.451 1.1895.282.2851.676.4277 1.184.4277.395 0 .768-.041 1.119-.123.352-.0821.719-.2129 1.102-.3926v1.3828c-.313.1562-.647.2715-1.002.3457-.356.0781-.789.1172-1.301.1172z"/><path d="m150.833 62.0002 1.667 1.6666h8.333c.458 0 .833-.375.833-.8333s-.375-.8333-.833-.8333h-7.5l-1.425-1.425c-.158-.1584-.367-.2417-.592-.2417h-4.658c-.917 0-1.667.75-1.667 1.6667v10c0 .9166.75 1.6666 1.667 1.6666h12.058c.809 0 1.5-.5833 1.642-1.375l.05-.2916.908-5.125c.184-1.0167-.608-1.9584-1.641-1.9584h-10.359c-.808 0-1.5.5834-1.641 1.375l-1.009 5.7084v-10z"/><path d="m175.758 67.6348c0 1.4101-.402 2.4902-1.207 3.2402-.8.75-1.959 1.125-3.474 1.125h-2.426v-8.5664h2.689c1.399 0 2.485.3691 3.258 1.1074.774.7383 1.16 1.7695 1.16 3.0938zm-1.886.0468c0-1.8398-.813-2.7597-2.438-2.7597h-.967v5.5781h.78c1.75 0 2.625-.9395 2.625-2.8184zm5.095 1.0313c0 .6484.105 1.1387.316 1.4707.215.332.563.498 1.043.498.477 0 .819-.164 1.026-.4921.211-.3321.316-.8243.316-1.4766 0-.6484-.105-1.1348-.316-1.459s-.557-.4863-1.037-.4863c-.477 0-.821.1621-1.032.4863-.211.3203-.316.8066-.316 1.459zm4.529 0c0 1.0664-.281 1.9004-.843 2.5019-.563.6016-1.346.9024-2.35.9024-.629 0-1.184-.1367-1.664-.4102-.481-.2773-.85-.6738-1.108-1.1894-.257-.5156-.386-1.1172-.386-1.8047 0-1.0703.279-1.9024.838-2.4961.558-.5938 1.343-.8906 2.355-.8906.629 0 1.184.1367 1.664.4101.481.2735.85.666 1.108 1.1778.257.5117.386 1.1113.386 1.7988zm4.287 3.4043c-2.039 0-3.059-1.1192-3.059-3.3574 0-1.1133.278-1.9629.832-2.5489.555-.5898 1.35-.8847 2.385-.8847.758 0 1.438.1484 2.039.4453l-.527 1.3828c-.281-.1133-.543-.2051-.785-.2754-.242-.0742-.485-.1113-.727-.1113-.929 0-1.394.6601-1.394 1.9804 0 1.2813.465 1.9219 1.394 1.9219.344 0 .662-.0449.955-.1347.293-.0938.586-.2383.879-.4336v1.5293c-.289.1836-.582.3105-.879.3808-.293.0703-.664.1055-1.113.1055zm8.306-.1172-.24-.8379h-.094c-.191.3047-.463.541-.814.709-.352.1641-.752.2461-1.201.2461-.77 0-1.35-.2051-1.741-.6152-.39-.4141-.586-1.0079-.586-1.7813v-4.2715h1.788v3.8262c0 .4726.084.8281.252 1.0664.168.2344.435.3516.802.3516.5 0 .862-.1661 1.084-.4981.223-.3359.334-.8906.334-1.6641v-3.082h1.787v6.5508zm9.262 0h-1.788v-3.8262c0-.4726-.08-.8261-.24-1.0605-.156-.2383-.404-.3574-.744-.3574-.457 0-.789.1679-.996.5039-.207.3359-.311.8886-.311 1.6582v3.082h-1.787v-6.5508h1.366l.24.8379h.099c.176-.3008.43-.5351.762-.7031.332-.1719.713-.2578 1.143-.2578.98 0 1.644.3203 1.992.9609h.158c.176-.3047.434-.541.774-.709.343-.1679.73-.2519 1.16-.2519.742 0 1.302.1914 1.681.5742.383.3789.575.9883.575 1.8281v4.2715h-1.793v-3.8262c0-.4726-.08-.8261-.241-1.0605-.156-.2383-.404-.3574-.744-.3574-.437 0-.765.1562-.984.4687-.215.3125-.322.8086-.322 1.4883zm8.786-5.4023c-.379 0-.675.1211-.89.3632-.215.2383-.338.5782-.369 1.0196h2.507c-.007-.4414-.123-.7813-.345-1.0196-.223-.2421-.524-.3632-.903-.3632zm.252 5.5195c-1.054 0-1.879-.291-2.472-.8731-.594-.582-.891-1.4062-.891-2.4726 0-1.0977.273-1.9453.82-2.543.551-.6015 1.311-.9023 2.28-.9023.925 0 1.646.2636 2.162.791.515.5273.773 1.2558.773 2.1855v.8672h-4.224c.019.5078.169.9043.451 1.1895.281.2851.675.4277 1.183.4277.395 0 .768-.041 1.119-.123.352-.0821.719-.2129 1.102-.3926v1.3828c-.313.1562-.646.2715-1.002.3457-.355.0781-.789.1172-1.301.1172zm10.322-.1172h-1.787v-3.8262c0-.4726-.084-.8261-.252-1.0605-.168-.2383-.435-.3574-.803-.3574-.5 0-.861.1679-1.084.5039-.222.332-.334.8847-.334 1.6582v3.082h-1.787v-6.5508h1.365l.241.8379h.099c.2-.3164.473-.5547.821-.7148.351-.1641.75-.2461 1.195-.2461.762 0 1.34.207 1.734.6211.395.4101.592 1.0039.592 1.7812zm4.75-1.3066c.312 0 .687-.0684 1.125-.2051v1.3301c-.446.1992-.992.2988-1.641.2988-.715 0-1.236-.1797-1.564-.5391-.325-.3633-.487-.9062-.487-1.6289v-3.1582h-.855v-.7558l.984-.5977.516-1.3828h1.142v1.3945h1.834v1.3418h-1.834v3.1582c0 .2539.071.4414.211.5625.145.1211.334.1817.569.1817zm7.175-.6387c0 .6719-.234 1.1836-.703 1.5351-.465.3516-1.162.5274-2.092.5274-.476 0-.883-.0332-1.219-.0996-.335-.0625-.65-.1563-.943-.2813v-1.4765c.332.1562.705.2871 1.119.3925.418.1055.785.1582 1.102.1582.648 0 .972-.1875.972-.5625 0-.1406-.043-.2539-.128-.3398-.086-.0898-.235-.1894-.446-.2988-.211-.1133-.492-.2442-.844-.3926-.503-.2109-.875-.4063-1.113-.5859-.234-.1797-.406-.3848-.515-.6153-.106-.2344-.159-.5215-.159-.8613 0-.582.225-1.0313.674-1.3477.453-.3203 1.094-.4804 1.922-.4804.789 0 1.557.1718 2.303.5156l-.539 1.2891c-.328-.1407-.635-.2559-.92-.3457-.285-.0899-.576-.1348-.873-.1348-.528 0-.791.1426-.791.4277 0 .1602.084.2989.252.416.172.1172.545.2911 1.119.5215.512.2071.887.4004 1.125.5801s.414.3867.527.6211.17.5137.17.8379z"/><path d="m279.167 58.6665c-3.259.0333-5.867 2.7-5.834 5.95v.05c-.016 2.6083 1.65 4.9333 4.134 5.75l1.308 3.775c.133.375.658.375.792 0l1.308-3.775c3.158-1.05 4.875-4.4583 3.825-7.625-.792-2.4-3-4.0417-5.525-4.125zm0 8.3333c-1.384 0-2.5-1.1166-2.5-2.5 0-1.3833 1.116-2.5 2.5-2.5 1.383 0 2.5 1.1167 2.5 2.5 0 1.3834-1.117 2.5-2.5 2.5z"/><path d="m298.081 72-2.063-6.7207h-.053c.075 1.3672.112 2.2793.112 2.7363v3.9844h-1.623v-8.5664h2.472l2.028 6.5508h.035l2.15-6.5508h2.473v8.5664h-1.693v-4.0547c0-.1914.002-.4121.005-.6621.008-.25.036-.9141.082-1.9922h-.052l-2.209 6.709zm11.863 0-.346-.8906h-.047c-.301.3789-.611.6426-.932.791-.316.1445-.73.2168-1.242.2168-.629 0-1.125-.1797-1.488-.5391-.36-.3593-.539-.8711-.539-1.5351 0-.6953.242-1.2071.726-1.5352.489-.332 1.223-.5156 2.203-.5508l1.137-.0351v-.2871c0-.6641-.34-.9961-1.019-.9961-.524 0-1.139.1582-1.846.4746l-.592-1.2071c.754-.3945 1.59-.5917 2.508-.5917.879 0 1.553.1914 2.021.5742.469.3828.704.9648.704 1.7461v4.3652zm-.528-3.0352-.691.0235c-.52.0156-.906.1094-1.16.2812-.254.1719-.381.4336-.381.7852 0 .5039.289.7558.867.7558.414 0 .744-.1191.99-.3574.25-.2383.375-.5547.375-.9492zm7.369 3.1524c-.77 0-1.373-.2793-1.811-.8379h-.093c.062.5469.093.8633.093.9492v2.6543h-1.787v-9.4336h1.453l.252.8496h.082c.418-.6484 1.038-.9726 1.858-.9726.773 0 1.379.2988 1.816.8965.438.5976.656 1.4277.656 2.4902 0 .6992-.103 1.3066-.31 1.8223-.203.5156-.494.9082-.873 1.1777s-.824.4043-1.336.4043zm-.527-5.3613c-.442 0-.764.1367-.967.4101-.203.2695-.309.7168-.317 1.3418v.1934c0 .7031.104 1.207.311 1.5117.211.3047.543.457.996.457.801 0 1.201-.6601 1.201-1.9804 0-.6446-.099-1.127-.299-1.4473-.195-.3242-.504-.4863-.925-.4863zm9.243 3.2988c0 .6719-.234 1.1836-.703 1.5351-.465.3516-1.162.5274-2.092.5274-.476 0-.882-.0332-1.218-.0996-.336-.0625-.651-.1563-.944-.2813v-1.4765c.332.1562.705.2871 1.119.3925.418.1055.786.1582 1.102.1582.648 0 .973-.1875.973-.5625 0-.1406-.043-.2539-.129-.3398-.086-.0898-.235-.1894-.446-.2988-.21-.1133-.492-.2442-.843-.3926-.504-.2109-.875-.4063-1.114-.5859-.234-.1797-.406-.3848-.515-.6153-.106-.2344-.158-.5215-.158-.8613 0-.582.224-1.0313.673-1.3477.454-.3203 1.094-.4804 1.922-.4804.789 0 1.557.1718 2.303.5156l-.539 1.2891c-.328-.1407-.635-.2559-.92-.3457-.285-.0899-.576-.1348-.873-.1348-.527 0-.791.1426-.791.4277 0 .1602.084.2989.252.416.172.1172.545.2911 1.119.5215.512.2071.887.4004 1.125.5801s.414.3867.527.6211c.114.2344.17.5137.17.8379z"/><path d="m376.592 66.9832c0-.2667-.025-.525-.059-.7834l1.392-1.1166c.325-.2584.408-.7167.2-1.0667l-.625-1.0667-.617-1.075c-.208-.3583-.641-.5083-1.025-.3583l-1.641.6417c-.417-.325-.884-.6-1.375-.8084l-.267-1.725c-.058-.4083-.417-.7083-.825-.7083h-1.242-1.241c-.417 0-.767.3-.825.7083l-.259 1.7084c-.508.2083-.983.4833-1.408.8166l-1.608-.6333c-.384-.15-.825 0-1.025.3583l-.617 1.075-.625 1.0667c-.208.3583-.125.8083.2 1.0667l1.35 1.0833c-.033.2667-.058.5417-.058.8167s.025.5666.066.8416l-1.35 1.0834c-.325.2583-.408.7166-.2 1.0666l.625 1.0667.617 1.075c.208.3583.642.5083 1.025.3583l1.633-.6416c.425.3166.884.5916 1.384.7916l.266 1.7417c.059.4083.417.7083.825.7083h1.242 1.242c.416 0 .766-.3.825-.7083l.266-1.7583c.484-.2.934-.475 1.35-.7834l1.667.65c.383.15.825 0 1.025-.3583l.617-1.075.625-1.0667c.208-.3583.125-.8083-.2-1.0666l-1.392-1.1167c.033-.2667.058-.5333.058-.8083zm-5.517 2.8833c-2.058.3917-3.825-1.375-3.433-3.4333.216-1.1417 1.15-2.075 2.291-2.2917 2.059-.3917 3.825 1.375 3.434 3.4333-.217 1.1417-1.15 2.075-2.292 2.2917z"/><path d="m390.893 69.6211c0 .7734-.279 1.3828-.838 1.8281-.555.4453-1.328.668-2.32.668-.914 0-1.723-.1719-2.426-.5156v-1.6875c.578.2578 1.066.4394 1.465.5449.402.1055.769.1582 1.101.1582.399 0 .704-.0762.914-.2285.215-.1524.323-.3789.323-.6797 0-.168-.047-.3164-.141-.4453-.094-.1328-.232-.2598-.416-.3809-.18-.1211-.549-.3144-1.107-.5801-.524-.2461-.916-.4824-1.178-.7089-.262-.2266-.471-.4903-.627-.7911-.156-.3007-.234-.6523-.234-1.0547 0-.7578.255-1.3535.767-1.7871.516-.4336 1.227-.6504 2.133-.6504.445 0 .869.0528 1.271.1583.407.1054.831.2539 1.272.4453l-.586 1.4121c-.457-.1875-.836-.3184-1.137-.3926-.297-.0742-.59-.1113-.879-.1113-.343 0-.607.08-.791.2402-.183.1602-.275.3691-.275.627 0 .1601.037.3007.111.4218.075.1172.192.2325.352.3457.164.1094.549.3086 1.154.5977.801.3828 1.35.7676 1.647 1.1543.297.3828.445.8535.445 1.4121zm4.275-3.0234c-.379 0-.676.1211-.891.3632-.214.2383-.338.5782-.369 1.0196h2.508c-.008-.4414-.123-.7813-.346-1.0196-.222-.2421-.523-.3632-.902-.3632zm.252 5.5195c-1.055 0-1.879-.291-2.473-.8731-.593-.582-.89-1.4062-.89-2.4726 0-1.0977.273-1.9453.82-2.543.551-.6015 1.311-.9023 2.279-.9023.926 0 1.647.2636 2.162.791.516.5273.774 1.2558.774 2.1855v.8672h-4.225c.02.5078.17.9043.451 1.1895.282.2851.676.4277 1.184.4277.394 0 .768-.041 1.119-.123.352-.0821.719-.2129 1.102-.3926v1.3828c-.313.1562-.647.2715-1.002.3457-.356.0781-.789.1172-1.301.1172zm7.035-1.4238c.312 0 .687-.0684 1.125-.2051v1.3301c-.446.1992-.992.2988-1.641.2988-.715 0-1.236-.1797-1.564-.5391-.325-.3633-.487-.9062-.487-1.6289v-3.1582h-.855v-.7558l.984-.5977.516-1.3828h1.142v1.3945h1.834v1.3418h-1.834v3.1582c0 .2539.071.4414.211.5625.145.1211.334.1817.569.1817zm5.365 0c.312 0 .687-.0684 1.125-.2051v1.3301c-.446.1992-.993.2988-1.641.2988-.715 0-1.236-.1797-1.565-.5391-.324-.3633-.486-.9062-.486-1.6289v-3.1582h-.855v-.7558l.984-.5977.516-1.3828h1.142v1.3945h1.834v1.3418h-1.834v3.1582c0 .2539.071.4414.211.5625.145.1211.334.1817.569.1817zm2.528-6.9375c0-.5821.325-.8731.973-.8731.649 0 .973.291.973.8731 0 .2773-.082.4941-.246.6503-.16.1524-.403.2286-.727.2286-.648 0-.973-.293-.973-.8789zm1.864 8.2441h-1.787v-6.5508h1.787zm8.077 0h-1.787v-3.8262c0-.4726-.084-.8261-.252-1.0605-.168-.2383-.435-.3574-.802-.3574-.5 0-.862.1679-1.084.5039-.223.332-.334.8847-.334 1.6582v3.082h-1.787v-6.5508h1.365l.24.8379h.1c.199-.3164.472-.5547.82-.7148.352-.1641.75-.2461 1.195-.2461.762 0 1.34.207 1.735.6211.394.4101.591 1.0039.591 1.7812zm7.691-6.5508v.9082l-1.025.2637c.188.293.281.6211.281.9844 0 .7031-.246 1.2519-.738 1.6465-.488.3906-1.168.5859-2.039.5859l-.322-.0176-.264-.0293c-.184.1406-.275.2969-.275.4688 0 .2578.328.3867.984.3867h1.113c.719 0 1.266.1543 1.641.4629.379.3086.568.7617.568 1.3594 0 .7656-.32 1.3593-.961 1.7812-.636.4219-1.552.6328-2.748.6328-.914 0-1.613-.1601-2.097-.4805-.481-.3164-.721-.7617-.721-1.3359 0-.3945.123-.7246.369-.9902.246-.2657.608-.4551 1.084-.5684-.184-.0781-.344-.2051-.48-.3808-.137-.1797-.205-.3692-.205-.5684 0-.25.072-.457.216-.6211.145-.168.354-.332.627-.4922-.343-.1484-.617-.3867-.82-.7148-.199-.3282-.299-.7149-.299-1.1602 0-.7148.233-1.2676.697-1.6582.465-.3906 1.129-.5859 1.993-.5859.183 0 .4.0176.65.0527.254.0313.416.0547.486.0703zm-5.056 7.4766c0 .2461.117.4394.351.5801.239.1406.571.2109.996.2109.641 0 1.143-.0879 1.506-.2637.364-.1758.545-.416.545-.7207 0-.2461-.107-.416-.322-.5097-.215-.0938-.547-.1407-.996-.1407h-.926c-.328 0-.603.0762-.826.2285-.219.1563-.328.3614-.328.6153zm.65-5.332c0 .3554.08.6367.24.8437.165.207.413.3105.745.3105.336 0 .582-.1035.738-.3105s.234-.4883.234-.8437c0-.7891-.324-1.1836-.972-1.1836-.657 0-.985.3945-.985 1.1836zm10.211 2.4609c0 .6719-.235 1.1836-.703 1.5351-.465.3516-1.162.5274-2.092.5274-.477 0-.883-.0332-1.219-.0996-.336-.0625-.65-.1563-.943-.2813v-1.4765c.332.1562.705.2871 1.119.3925.418.1055.785.1582 1.101.1582.649 0 .973-.1875.973-.5625 0-.1406-.043-.2539-.129-.3398-.086-.0898-.234-.1894-.445-.2988-.211-.1133-.492-.2442-.844-.3926-.504-.2109-.875-.4063-1.113-.5859-.235-.1797-.406-.3848-.516-.6153-.105-.2344-.158-.5215-.158-.8613 0-.582.225-1.0313.674-1.3477.453-.3203 1.094-.4804 1.922-.4804.789 0 1.556.1718 2.302.5156l-.539 1.2891c-.328-.1407-.634-.2559-.92-.3457-.285-.0899-.576-.1348-.873-.1348-.527 0-.791.1426-.791.4277 0 .1602.084.2989.252.416.172.1172.545.2911 1.12.5215.511.2071.886.4004 1.125.5801.238.1797.414.3867.527.6211s.17.5137.17.8379z"/></g><path d="m0 0h479v134h-479z" fill="#252a2e" transform="translate(481)"/><path d="m0 0h378v54h-378z" fill="#171c1e" transform="translate(531.5 40)"/><path d="m543 47h66v40h-66z" fill="#353a40"/><g clip-path="url(#c)"><path d="m576 48.6665c-4.6 0-8.333 3.7333-8.333 8.3333s3.733 8.3334 8.333 8.3334 8.334-3.7334 8.334-8.3334-3.734-8.3333-8.334-8.3333zm0 3.3333c1.725 0 3.125 1.4 3.125 3.125s-1.4 3.125-3.125 3.125-3.125-1.4-3.125-3.125 1.4-3.125 3.125-3.125zm0 11.6667c-2.366 0-4.45-1.25-5.633-3.1167.108-.0583.225-.1166.358-.175 1.017-.4666 2.892-1.1416 5.275-1.1416 2.392 0 4.267.675 5.275 1.1416.134.0584.25.125.359.1834-1.184 1.8666-3.259 3.1083-5.634 3.1083z" fill="#019aeb"/></g><path d="m558.779 77.4648h.598c.559 0 .977-.1093 1.254-.3281.277-.2226.416-.5449.416-.9668 0-.4258-.117-.7402-.352-.9433-.23-.2032-.593-.3047-1.09-.3047h-.826zm4.102-1.3593c0 .9218-.289 1.6269-.867 2.1152-.575.4883-1.393.7324-2.455.7324h-.78v3.0469h-1.816v-8.5664h2.736c1.039 0 1.828.2246 2.367.6738.543.4453.815 1.1114.815 1.9981zm5.283-.7793c.242 0 .443.0176.603.0527l-.135 1.6758c-.144-.0391-.32-.0586-.527-.0586-.57 0-1.016.1465-1.336.4394-.316.293-.474.7032-.474 1.2305v3.334h-1.788v-6.5508h1.354l.264 1.1016h.087c.204-.3672.477-.6621.821-.8848.347-.2265.724-.3398 1.131-.3398zm3.366 3.3867c0 .6484.106 1.1387.317 1.4707.215.332.562.498 1.043.498.476 0 .818-.164 1.025-.4921.211-.3321.317-.8243.317-1.4766 0-.6484-.106-1.1348-.317-1.459s-.556-.4863-1.037-.4863c-.476 0-.82.1621-1.031.4863-.211.3203-.317.8066-.317 1.459zm4.53 0c0 1.0664-.281 1.9004-.844 2.5019-.562.6016-1.346.9024-2.35.9024-.629 0-1.183-.1367-1.664-.4102-.48-.2773-.849-.6738-1.107-1.1894s-.387-1.1172-.387-1.8047c0-1.0703.279-1.9024.838-2.4961.559-.5938 1.344-.8906 2.356-.8906.628 0 1.183.1367 1.664.4101.48.2735.849.666 1.107 1.1778.258.5117.387 1.1113.387 1.7988zm5.247-1.9219h-1.546v5.209h-1.788v-5.209h-.984v-.8613l.984-.4805v-.4804c0-.7461.184-1.2911.551-1.6348.367-.3438.955-.5156 1.764-.5156.617 0 1.166.0918 1.646.2754l-.457 1.3124c-.359-.1132-.691-.1699-.996-.1699-.254 0-.437.0762-.551.2285-.113.1485-.169.3399-.169.5743v.4101h1.546zm.95-3.0351c0-.5821.324-.8731.972-.8731.649 0 .973.291.973.8731 0 .2773-.082.4941-.246.6503-.16.1524-.402.2286-.727.2286-.648 0-.972-.293-.972-.8789zm1.863 8.2441h-1.787v-6.5508h1.787zm3.812 0h-1.787v-9.1172h1.787zm4.744-5.4023c-.379 0-.676.1211-.891.3632-.215.2383-.338.5782-.369 1.0196h2.508c-.008-.4414-.123-.7813-.346-1.0196-.223-.2421-.523-.3632-.902-.3632zm.252 5.5195c-1.055 0-1.879-.291-2.473-.8731-.594-.582-.891-1.4062-.891-2.4726 0-1.0977.274-1.9453.821-2.543.551-.6015 1.31-.9023 2.279-.9023.926 0 1.647.2636 2.162.791.516.5273.774 1.2558.774 2.1855v.8672h-4.225c.02.5078.17.9043.451 1.1895.281.2851.676.4277 1.184.4277.394 0 .767-.041 1.119-.123.351-.0821.719-.2129 1.101-.3926v1.3828c-.312.1562-.646.2715-1.001.3457-.356.0781-.79.1172-1.301.1172z" fill="#019aeb"/><path d="m667.833 52.0002 1.667 1.6666h8.333c.458 0 .833-.375.833-.8333s-.375-.8333-.833-.8333h-7.5l-1.425-1.425c-.158-.1584-.367-.2417-.592-.2417h-4.658c-.917 0-1.667.75-1.667 1.6667v10c0 .9166.75 1.6666 1.667 1.6666h12.058c.809 0 1.5-.5833 1.642-1.375l.05-.2916.908-5.125c.184-1.0167-.608-1.9584-1.641-1.9584h-10.359c-.808 0-1.5.5834-1.641 1.375l-1.009 5.7084v-10z" fill="#019aeb"/><path d="m643.758 77.6348c0 1.4101-.402 2.4902-1.207 3.2402-.8.75-1.959 1.125-3.474 1.125h-2.426v-8.5664h2.689c1.399 0 2.485.3691 3.258 1.1074.774.7383 1.16 1.7695 1.16 3.0938zm-1.886.0468c0-1.8398-.813-2.7597-2.438-2.7597h-.967v5.5781h.78c1.75 0 2.625-.9395 2.625-2.8184zm5.095 1.0313c0 .6484.105 1.1387.316 1.4707.215.332.563.498 1.043.498.477 0 .819-.164 1.026-.4921.211-.3321.316-.8243.316-1.4766 0-.6484-.105-1.1348-.316-1.459s-.557-.4863-1.037-.4863c-.477 0-.821.1621-1.032.4863-.211.3203-.316.8066-.316 1.459zm4.529 0c0 1.0664-.281 1.9004-.843 2.5019-.563.6016-1.346.9024-2.35.9024-.629 0-1.184-.1367-1.664-.4102-.481-.2773-.85-.6738-1.108-1.1894-.257-.5156-.386-1.1172-.386-1.8047 0-1.0703.279-1.9024.838-2.4961.558-.5938 1.343-.8906 2.355-.8906.629 0 1.184.1367 1.664.4101.481.2735.85.666 1.108 1.1778.257.5117.386 1.1113.386 1.7988zm4.287 3.4043c-2.039 0-3.059-1.1192-3.059-3.3574 0-1.1133.278-1.9629.832-2.5489.555-.5898 1.35-.8847 2.385-.8847.758 0 1.438.1484 2.039.4453l-.527 1.3828c-.281-.1133-.543-.2051-.785-.2754-.242-.0742-.485-.1113-.727-.1113-.929 0-1.394.6601-1.394 1.9804 0 1.2813.465 1.9219 1.394 1.9219.344 0 .662-.0449.955-.1347.293-.0938.586-.2383.879-.4336v1.5293c-.289.1836-.582.3105-.879.3808-.293.0703-.664.1055-1.113.1055zm8.306-.1172-.24-.8379h-.094c-.191.3047-.463.541-.814.709-.352.1641-.752.2461-1.201.2461-.77 0-1.35-.2051-1.741-.6152-.39-.4141-.586-1.0079-.586-1.7813v-4.2715h1.788v3.8262c0 .4726.084.8281.252 1.0664.168.2344.435.3516.802.3516.5 0 .862-.1661 1.084-.4981.223-.3359.334-.8906.334-1.6641v-3.082h1.787v6.5508zm9.262 0h-1.788v-3.8262c0-.4726-.08-.8261-.24-1.0605-.156-.2383-.404-.3574-.744-.3574-.457 0-.789.1679-.996.5039-.207.3359-.311.8886-.311 1.6582v3.082h-1.787v-6.5508h1.366l.24.8379h.099c.176-.3008.43-.5351.762-.7031.332-.1719.713-.2578 1.143-.2578.98 0 1.644.3203 1.992.9609h.158c.176-.3047.434-.541.774-.709.343-.1679.73-.2519 1.16-.2519.742 0 1.302.1914 1.681.5742.383.3789.575.9883.575 1.8281v4.2715h-1.793v-3.8262c0-.4726-.08-.8261-.241-1.0605-.156-.2383-.404-.3574-.744-.3574-.437 0-.765.1562-.984.4687-.215.3125-.322.8086-.322 1.4883zm8.786-5.4023c-.379 0-.675.1211-.89.3632-.215.2383-.338.5782-.369 1.0196h2.507c-.007-.4414-.123-.7813-.345-1.0196-.223-.2421-.524-.3632-.903-.3632zm.252 5.5195c-1.054 0-1.879-.291-2.472-.8731-.594-.582-.891-1.4062-.891-2.4726 0-1.0977.273-1.9453.82-2.543.551-.6015 1.311-.9023 2.28-.9023.925 0 1.646.2636 2.162.791.515.5273.773 1.2558.773 2.1855v.8672h-4.224c.019.5078.169.9043.451 1.1895.281.2851.675.4277 1.183.4277.395 0 .768-.041 1.119-.123.352-.0821.719-.2129 1.102-.3926v1.3828c-.313.1562-.646.2715-1.002.3457-.355.0781-.789.1172-1.301.1172zm10.322-.1172h-1.787v-3.8262c0-.4726-.084-.8261-.252-1.0605-.168-.2383-.435-.3574-.803-.3574-.5 0-.861.1679-1.084.5039-.222.332-.334.8847-.334 1.6582v3.082h-1.787v-6.5508h1.365l.241.8379h.099c.2-.3164.473-.5547.821-.7148.351-.1641.75-.2461 1.195-.2461.762 0 1.34.207 1.734.6211.395.4101.592 1.0039.592 1.7812zm4.75-1.3066c.312 0 .687-.0684 1.125-.2051v1.3301c-.446.1992-.992.2988-1.641.2988-.715 0-1.236-.1797-1.564-.5391-.325-.3633-.487-.9062-.487-1.6289v-3.1582h-.855v-.7558l.984-.5977.516-1.3828h1.142v1.3945h1.834v1.3418h-1.834v3.1582c0 .2539.071.4414.211.5625.145.1211.334.1817.569.1817zm7.175-.6387c0 .6719-.234 1.1836-.703 1.5351-.465.3516-1.162.5274-2.092.5274-.476 0-.883-.0332-1.219-.0996-.335-.0625-.65-.1563-.943-.2813v-1.4765c.332.1562.705.2871 1.119.3925.418.1055.785.1582 1.102.1582.648 0 .972-.1875.972-.5625 0-.1406-.043-.2539-.128-.3398-.086-.0898-.235-.1894-.446-.2988-.211-.1133-.492-.2442-.844-.3926-.503-.2109-.875-.4063-1.113-.5859-.234-.1797-.406-.3848-.515-.6153-.106-.2344-.159-.5215-.159-.8613 0-.582.225-1.0313.674-1.3477.453-.3203 1.094-.4804 1.922-.4804.789 0 1.557.1718 2.303.5156l-.539 1.2891c-.328-.1407-.635-.2559-.92-.3457-.285-.0899-.576-.1348-.873-.1348-.528 0-.791.1426-.791.4277 0 .1602.084.2989.252.416.172.1172.545.2911 1.119.5215.512.2071.887.4004 1.125.5801s.414.3867.527.6211.17.5137.17.8379z" fill="#019aeb"/><path d="m766.667 48.6665c-3.259.0333-5.867 2.7-5.834 5.95v.05c-.016 2.6083 1.65 4.9333 4.134 5.75l1.308 3.775c.133.375.658.375.792 0l1.308-3.775c3.158-1.05 4.875-4.4583 3.825-7.625-.792-2.4-3-4.0417-5.525-4.125zm0 8.3333c-1.384 0-2.5-1.1166-2.5-2.5 0-1.3833 1.116-2.5 2.5-2.5 1.383 0 2.5 1.1167 2.5 2.5 0 1.3834-1.117 2.5-2.5 2.5z" fill="#019aeb"/><path d="m755.081 82-2.063-6.7207h-.053c.075 1.3672.112 2.2793.112 2.7363v3.9844h-1.623v-8.5664h2.472l2.028 6.5508h.035l2.15-6.5508h2.473v8.5664h-1.693v-4.0547c0-.1914.002-.4121.005-.6621.008-.25.036-.9141.082-1.9922h-.052l-2.209 6.709zm11.863 0-.346-.8906h-.047c-.301.3789-.611.6426-.932.791-.316.1445-.73.2168-1.242.2168-.629 0-1.125-.1797-1.488-.5391-.36-.3593-.539-.8711-.539-1.5351 0-.6953.242-1.2071.726-1.5352.489-.332 1.223-.5156 2.203-.5508l1.137-.0351v-.2871c0-.6641-.34-.9961-1.019-.9961-.524 0-1.139.1582-1.846.4746l-.592-1.2071c.754-.3945 1.59-.5917 2.508-.5917.879 0 1.553.1914 2.021.5742.469.3828.704.9648.704 1.7461v4.3652zm-.528-3.0352-.691.0235c-.52.0156-.906.1094-1.16.2812-.254.1719-.381.4336-.381.7852 0 .5039.289.7558.867.7558.414 0 .744-.1191.99-.3574.25-.2383.375-.5547.375-.9492zm7.369 3.1524c-.77 0-1.373-.2793-1.811-.8379h-.093c.062.5469.093.8633.093.9492v2.6543h-1.787v-9.4336h1.453l.252.8496h.082c.418-.6484 1.038-.9726 1.858-.9726.773 0 1.379.2988 1.816.8965.438.5976.656 1.4277.656 2.4902 0 .6992-.103 1.3066-.31 1.8223-.203.5156-.494.9082-.873 1.1777s-.824.4043-1.336.4043zm-.527-5.3613c-.442 0-.764.1367-.967.4101-.203.2695-.309.7168-.317 1.3418v.1934c0 .7031.104 1.207.311 1.5117.211.3047.543.457.996.457.801 0 1.201-.6601 1.201-1.9804 0-.6446-.099-1.127-.299-1.4473-.195-.3242-.504-.4863-.925-.4863zm9.243 3.2988c0 .6719-.234 1.1836-.703 1.5351-.465.3516-1.162.5274-2.092.5274-.476 0-.882-.0332-1.218-.0996-.336-.0625-.651-.1563-.944-.2813v-1.4765c.332.1562.705.2871 1.119.3925.418.1055.786.1582 1.102.1582.648 0 .973-.1875.973-.5625 0-.1406-.043-.2539-.129-.3398-.086-.0898-.235-.1894-.446-.2988-.21-.1133-.492-.2442-.843-.3926-.504-.2109-.875-.4063-1.114-.5859-.234-.1797-.406-.3848-.515-.6153-.106-.2344-.158-.5215-.158-.8613 0-.582.224-1.0313.673-1.3477.454-.3203 1.094-.4804 1.922-.4804.789 0 1.557.1718 2.303.5156l-.539 1.2891c-.328-.1407-.635-.2559-.92-.3457-.285-.0899-.576-.1348-.873-.1348-.527 0-.791.1426-.791.4277 0 .1602.084.2989.252.416.172.1172.545.2911 1.119.5215.512.2071.887.4004 1.125.5801s.414.3867.527.6211c.114.2344.17.5137.17.8379z" fill="#019aeb"/><path d="m869.092 56.9832c0-.2667-.025-.525-.059-.7834l1.392-1.1166c.325-.2584.408-.7167.2-1.0667l-.625-1.0667-.617-1.075c-.208-.3583-.641-.5083-1.025-.3583l-1.641.6417c-.417-.325-.884-.6-1.375-.8084l-.267-1.725c-.058-.4083-.417-.7083-.825-.7083h-1.242-1.241c-.417 0-.767.3-.825.7083l-.259 1.7084c-.508.2083-.983.4833-1.408.8166l-1.608-.6333c-.384-.15-.825 0-1.025.3583l-.617 1.075-.625 1.0667c-.208.3583-.125.8083.2 1.0667l1.35 1.0833c-.033.2667-.058.5417-.058.8167s.025.5666.066.8416l-1.35 1.0834c-.325.2583-.408.7166-.2 1.0666l.625 1.0667.617 1.075c.208.3583.642.5083 1.025.3583l1.633-.6416c.425.3166.884.5916 1.384.7916l.266 1.7417c.059.4083.417.7083.825.7083h1.242 1.242c.416 0 .766-.3.825-.7083l.266-1.7583c.484-.2.934-.475 1.35-.7834l1.667.65c.383.15.825 0 1.025-.3583l.617-1.075.625-1.0667c.208-.3583.125-.8083-.2-1.0666l-1.392-1.1167c.033-.2667.058-.5333.058-.8083zm-5.517 2.8833c-2.058.3917-3.825-1.375-3.433-3.4333.216-1.1417 1.15-2.075 2.291-2.2917 2.059-.3917 3.825 1.375 3.434 3.4333-.217 1.1417-1.15 2.075-2.292 2.2917z" fill="#019aeb"/><path d="m844.393 79.6211c0 .7734-.279 1.3828-.838 1.8281-.555.4453-1.328.668-2.32.668-.914 0-1.723-.1719-2.426-.5156v-1.6875c.578.2578 1.066.4394 1.465.5449.402.1055.769.1582 1.101.1582.399 0 .704-.0762.914-.2285.215-.1524.323-.3789.323-.6797 0-.168-.047-.3164-.141-.4453-.094-.1328-.232-.2598-.416-.3809-.18-.1211-.549-.3144-1.107-.5801-.524-.2461-.916-.4824-1.178-.7089-.262-.2266-.471-.4903-.627-.7911-.156-.3007-.234-.6523-.234-1.0547 0-.7578.255-1.3535.767-1.7871.516-.4336 1.227-.6504 2.133-.6504.445 0 .869.0528 1.271.1583.407.1054.831.2539 1.272.4453l-.586 1.4121c-.457-.1875-.836-.3184-1.137-.3926-.297-.0742-.59-.1113-.879-.1113-.343 0-.607.08-.791.2402-.183.1602-.275.3691-.275.627 0 .1601.037.3007.111.4218.075.1172.192.2325.352.3457.164.1094.549.3086 1.154.5977.801.3828 1.35.7676 1.647 1.1543.297.3828.445.8535.445 1.4121zm4.275-3.0234c-.379 0-.676.1211-.891.3632-.214.2383-.338.5782-.369 1.0196h2.508c-.008-.4414-.123-.7813-.346-1.0196-.222-.2421-.523-.3632-.902-.3632zm.252 5.5195c-1.055 0-1.879-.291-2.473-.8731-.593-.582-.89-1.4062-.89-2.4726 0-1.0977.273-1.9453.82-2.543.551-.6015 1.311-.9023 2.279-.9023.926 0 1.647.2636 2.162.791.516.5273.774 1.2558.774 2.1855v.8672h-4.225c.02.5078.17.9043.451 1.1895.282.2851.676.4277 1.184.4277.394 0 .768-.041 1.119-.123.352-.0821.719-.2129 1.102-.3926v1.3828c-.313.1562-.647.2715-1.002.3457-.356.0781-.789.1172-1.301.1172zm7.035-1.4238c.312 0 .687-.0684 1.125-.2051v1.3301c-.446.1992-.992.2988-1.641.2988-.715 0-1.236-.1797-1.564-.5391-.325-.3633-.487-.9062-.487-1.6289v-3.1582h-.855v-.7558l.984-.5977.516-1.3828h1.142v1.3945h1.834v1.3418h-1.834v3.1582c0 .2539.071.4414.211.5625.145.1211.334.1817.569.1817zm5.365 0c.312 0 .687-.0684 1.125-.2051v1.3301c-.446.1992-.993.2988-1.641.2988-.715 0-1.236-.1797-1.565-.5391-.324-.3633-.486-.9062-.486-1.6289v-3.1582h-.855v-.7558l.984-.5977.516-1.3828h1.142v1.3945h1.834v1.3418h-1.834v3.1582c0 .2539.071.4414.211.5625.145.1211.334.1817.569.1817zm2.528-6.9375c0-.5821.325-.8731.973-.8731.649 0 .973.291.973.8731 0 .2773-.082.4941-.246.6503-.16.1524-.403.2286-.727.2286-.648 0-.973-.293-.973-.8789zm1.864 8.2441h-1.787v-6.5508h1.787zm8.077 0h-1.787v-3.8262c0-.4726-.084-.8261-.252-1.0605-.168-.2383-.435-.3574-.802-.3574-.5 0-.862.1679-1.084.5039-.223.332-.334.8847-.334 1.6582v3.082h-1.787v-6.5508h1.365l.24.8379h.1c.199-.3164.472-.5547.82-.7148.352-.1641.75-.2461 1.195-.2461.762 0 1.34.207 1.735.6211.394.4101.591 1.0039.591 1.7812zm7.691-6.5508v.9082l-1.025.2637c.188.293.281.6211.281.9844 0 .7031-.246 1.2519-.738 1.6465-.488.3906-1.168.5859-2.039.5859l-.322-.0176-.264-.0293c-.184.1406-.275.2969-.275.4688 0 .2578.328.3867.984.3867h1.113c.719 0 1.266.1543 1.641.4629.379.3086.568.7617.568 1.3594 0 .7656-.32 1.3593-.961 1.7812-.636.4219-1.552.6328-2.748.6328-.914 0-1.613-.1601-2.097-.4805-.481-.3164-.721-.7617-.721-1.3359 0-.3945.123-.7246.369-.9902.246-.2657.608-.4551 1.084-.5684-.184-.0781-.344-.2051-.48-.3808-.137-.1797-.205-.3692-.205-.5684 0-.25.072-.457.216-.6211.145-.168.354-.332.627-.4922-.343-.1484-.617-.3867-.82-.7148-.199-.3282-.299-.7149-.299-1.1602 0-.7148.233-1.2676.697-1.6582.465-.3906 1.129-.5859 1.993-.5859.183 0 .4.0176.65.0527.254.0313.416.0547.486.0703zm-5.056 7.4766c0 .2461.117.4394.351.5801.239.1406.571.2109.996.2109.641 0 1.143-.0879 1.506-.2637.364-.1758.545-.416.545-.7207 0-.2461-.107-.416-.322-.5097-.215-.0938-.547-.1407-.996-.1407h-.926c-.328 0-.603.0762-.826.2285-.219.1563-.328.3614-.328.6153zm.65-5.332c0 .3554.08.6367.24.8437.165.207.413.3105.745.3105.336 0 .582-.1035.738-.3105s.234-.4883.234-.8437c0-.7891-.324-1.1836-.972-1.1836-.657 0-.985.3945-.985 1.1836zm10.211 2.4609c0 .6719-.235 1.1836-.703 1.5351-.465.3516-1.162.5274-2.092.5274-.477 0-.883-.0332-1.219-.0996-.336-.0625-.65-.1563-.943-.2813v-1.4765c.332.1562.705.2871 1.119.3925.418.1055.785.1582 1.101.1582.649 0 .973-.1875.973-.5625 0-.1406-.043-.2539-.129-.3398-.086-.0898-.234-.1894-.445-.2988-.211-.1133-.492-.2442-.844-.3926-.504-.2109-.875-.4063-1.113-.5859-.235-.1797-.406-.3848-.516-.6153-.105-.2344-.158-.5215-.158-.8613 0-.582.225-1.0313.674-1.3477.453-.3203 1.094-.4804 1.922-.4804.789 0 1.556.1718 2.302.5156l-.539 1.2891c-.328-.1407-.634-.2559-.92-.3457-.285-.0899-.576-.1348-.873-.1348-.527 0-.791.1426-.791.4277 0 .1602.084.2989.252.416.172.1172.545.2911 1.12.5215.511.2071.886.4004 1.125.5801.238.1797.414.3867.527.6211s.17.5137.17.8379z" fill="#019aeb"/></g></svg>