<svg width="960" height="312" viewBox="0 0 960 312" fill="none" xmlns="http://www.w3.org/2000/svg">
<g clip-path="url(#clip0_259_59990)">
<g clip-path="url(#clip1_259_59990)">
<rect width="479" height="136" fill="#F1F1F6"/>
<path d="M234.5 46.2916C234.132 46.2916 233.782 46.3648 233.464 46.4969C233.145 46.6291 232.779 46.4778 232.647 46.159C232.515 45.8401 232.666 45.4745 232.985 45.3422C233.453 45.1483 233.965 45.0416 234.5 45.0416H235.75C236.096 45.0416 236.375 45.3214 236.375 45.6666C236.375 46.0118 236.096 46.2916 235.75 46.2916H234.5Z" fill="#0063A3"/>
<path d="M237.625 45.6666C237.625 45.3214 237.905 45.0416 238.25 45.0416H240.75C241.096 45.0416 241.375 45.3214 241.375 45.6666C241.375 46.0118 241.096 46.2916 240.75 46.2916H238.25C237.905 46.2916 237.625 46.0118 237.625 45.6666Z" fill="#0063A3"/>
<path d="M242.625 45.6666C242.625 45.3214 242.905 45.0416 243.25 45.0416H244.5C245.036 45.0416 245.548 45.1483 246.016 45.3422C246.335 45.4745 246.486 45.8401 246.354 46.159C246.221 46.4778 245.856 46.6291 245.537 46.4969C245.218 46.3648 244.869 46.2916 244.5 46.2916H243.25C242.905 46.2916 242.625 46.0118 242.625 45.6666Z" fill="#0063A3"/>
<path d="M231.659 47.1467C231.978 47.2789 232.129 47.6446 231.997 47.9634C231.865 48.2819 231.792 48.6316 231.792 49V50.25C231.792 50.5951 231.512 50.875 231.167 50.875C230.822 50.875 230.542 50.5951 230.542 50.25V49C230.542 48.4644 230.649 47.9522 230.843 47.4846C230.975 47.1657 231.34 47.0144 231.659 47.1467Z" fill="#0063A3"/>
<path d="M247.341 47.1467C247.66 47.0144 248.026 47.1657 248.158 47.4846C248.352 47.9522 248.459 48.4644 248.459 49V50.25C248.459 50.5951 248.179 50.875 247.834 50.875C247.488 50.875 247.209 50.5951 247.209 50.25V49C247.209 48.6316 247.135 48.2819 247.003 47.9634C246.871 47.6446 247.022 47.2789 247.341 47.1467Z" fill="#0063A3"/>
<path d="M231.167 52.125C231.512 52.125 231.792 52.4048 231.792 52.75V55.25C231.792 55.5951 231.512 55.875 231.167 55.875C230.822 55.875 230.542 55.5951 230.542 55.25V52.75C230.542 52.4048 230.822 52.125 231.167 52.125Z" fill="#0063A3"/>
<path d="M247.834 52.125C248.179 52.125 248.459 52.4048 248.459 52.75V55.25C248.459 55.5951 248.179 55.875 247.834 55.875C247.488 55.875 247.209 55.5951 247.209 55.25V52.75C247.209 52.4048 247.488 52.125 247.834 52.125Z" fill="#0063A3"/>
<path d="M231.167 57.125C231.512 57.125 231.792 57.4048 231.792 57.75V59C231.792 59.3683 231.865 59.718 231.997 60.0365C232.129 60.3554 231.978 60.721 231.659 60.8532C231.34 60.9855 230.975 60.8342 230.843 60.5153C230.649 60.0477 230.542 59.5355 230.542 59V57.75C230.542 57.4048 230.822 57.125 231.167 57.125Z" fill="#0063A3"/>
<path d="M247.834 57.125C248.179 57.125 248.459 57.4048 248.459 57.75V59C248.459 59.5355 248.352 60.0477 248.158 60.5153C248.026 60.8342 247.66 60.9855 247.341 60.8532C247.022 60.721 246.871 60.3554 247.003 60.0365C247.135 59.718 247.209 59.3683 247.209 59V57.75C247.209 57.4048 247.488 57.125 247.834 57.125Z" fill="#0063A3"/>
<path d="M232.647 61.841C232.779 61.5221 233.145 61.3708 233.464 61.503C233.782 61.6351 234.132 61.7083 234.5 61.7083H235.75C236.096 61.7083 236.375 61.9881 236.375 62.3333C236.375 62.6785 236.096 62.9583 235.75 62.9583H234.5C233.965 62.9583 233.453 62.8516 232.985 62.6577C232.666 62.5255 232.515 62.1598 232.647 61.841Z" fill="#0063A3"/>
<path d="M246.354 61.841C246.486 62.1598 246.335 62.5255 246.016 62.6577C245.548 62.8516 245.036 62.9583 244.5 62.9583H243.25C242.905 62.9583 242.625 62.6785 242.625 62.3333C242.625 61.9881 242.905 61.7083 243.25 61.7083H244.5C244.869 61.7083 245.218 61.6351 245.537 61.503C245.856 61.3708 246.221 61.5221 246.354 61.841Z" fill="#0063A3"/>
<path d="M237.625 62.3333C237.625 61.9881 237.905 61.7083 238.25 61.7083H240.75C241.096 61.7083 241.375 61.9881 241.375 62.3333C241.375 62.6785 241.096 62.9583 240.75 62.9583H238.25C237.905 62.9583 237.625 62.6785 237.625 62.3333Z" fill="#0063A3"/>
<path d="M246.609 47.8258C246.853 47.5817 246.853 47.186 246.609 46.9419C246.365 46.6978 245.969 46.6978 245.725 46.9419L244.895 47.7721C244.651 48.0162 244.651 48.4119 244.895 48.656C245.139 48.9 245.535 48.9 245.779 48.656L246.609 47.8258Z" fill="#0063A3"/>
<path d="M244.118 50.3163C244.362 50.0722 244.362 49.6765 244.118 49.4324C243.874 49.1883 243.479 49.1883 243.235 49.4324L241.574 51.0928C241.33 51.3368 241.33 51.7326 241.574 51.9767C241.818 52.2207 242.214 52.2207 242.458 51.9767L244.118 50.3163Z" fill="#0063A3"/>
<path d="M240.798 53.637C241.042 53.3929 241.042 52.9972 240.798 52.7531C240.554 52.509 240.158 52.509 239.914 52.7531L239.5 53.1666L239.087 52.7531C238.843 52.509 238.447 52.509 238.203 52.7531C237.959 52.9972 237.959 53.3929 238.203 53.637L238.616 54.0505L238.253 54.4135C238.009 54.6575 238.009 55.0533 238.253 55.2973C238.498 55.5414 238.893 55.5414 239.137 55.2973L239.5 54.9344L239.863 55.2974C240.107 55.5414 240.503 55.5414 240.747 55.2974C240.991 55.0533 240.991 54.6575 240.747 54.4135L240.384 54.0505L240.798 53.637Z" fill="#0063A3"/>
<path d="M237.477 56.9577C237.721 56.7136 237.721 56.3179 237.477 56.0738C237.233 55.8297 236.837 55.8297 236.593 56.0738L234.933 57.7342C234.689 57.9782 234.689 58.374 234.933 58.618C235.177 58.8621 235.573 58.8621 235.817 58.618L237.477 56.9577Z" fill="#0063A3"/>
<path d="M234.156 60.2784C234.4 60.0343 234.4 59.6386 234.156 59.3945C233.912 59.1504 233.517 59.1504 233.272 59.3945L232.442 60.2247C232.198 60.4688 232.198 60.8645 232.442 61.1086C232.686 61.3526 233.082 61.3526 233.326 61.1086L234.156 60.2784Z" fill="#0063A3"/>
<path d="M245.675 61.1086C245.919 61.3526 246.314 61.3526 246.558 61.1086C246.802 60.8645 246.802 60.4688 246.558 60.2247L245.728 59.3945C245.484 59.1504 245.088 59.1504 244.844 59.3945C244.6 59.6386 244.6 60.0343 244.844 60.2784L245.675 61.1086Z" fill="#0063A3"/>
<path d="M243.184 58.618C243.428 58.8621 243.824 58.8621 244.068 58.618C244.312 58.374 244.312 57.9782 244.068 57.7342L242.408 56.0738C242.163 55.8297 241.768 55.8297 241.524 56.0738C241.28 56.3179 241.28 56.7136 241.524 56.9577L243.184 58.618Z" fill="#0063A3"/>
<path d="M236.543 51.9767C236.787 52.2207 237.182 52.2207 237.426 51.9767C237.671 51.7326 237.671 51.3368 237.426 51.0928L235.766 49.4324C235.522 49.1883 235.126 49.1883 234.882 49.4324C234.638 49.6765 234.638 50.0722 234.882 50.3163L236.543 51.9767Z" fill="#0063A3"/>
<path d="M233.222 48.656C233.466 48.9 233.862 48.9 234.106 48.656C234.35 48.4119 234.35 48.0162 234.106 47.7721L233.276 46.9419C233.032 46.6978 232.636 46.6978 232.392 46.9419C232.148 47.186 232.148 47.5817 232.392 47.8258L233.222 48.656Z" fill="#0063A3"/>
<path d="M237.047 49.7408C237.295 49.6656 237.559 49.625 237.834 49.625H238.459C238.804 49.625 239.084 49.3451 239.084 49C239.084 48.6548 238.804 48.375 238.459 48.375H237.834C237.435 48.375 237.049 48.4341 236.684 48.5445C236.354 48.6446 236.167 48.9935 236.268 49.3239C236.368 49.6542 236.717 49.8409 237.047 49.7408Z" fill="#0063A3"/>
<path d="M240.542 48.375C240.197 48.375 239.917 48.6548 239.917 49C239.917 49.3451 240.197 49.625 240.542 49.625H241.167C241.442 49.625 241.706 49.6656 241.954 49.7408C242.284 49.8409 242.633 49.6542 242.733 49.3239C242.833 48.9935 242.647 48.6446 242.316 48.5445C241.952 48.4341 241.566 48.375 241.167 48.375H240.542Z" fill="#0063A3"/>
<path d="M235.241 51.5466C235.341 51.2162 235.155 50.8673 234.824 50.7672C234.494 50.6671 234.145 50.8538 234.045 51.1841C233.934 51.5486 233.875 51.9346 233.875 52.3333V52.9583C233.875 53.3035 234.155 53.5833 234.5 53.5833C234.846 53.5833 235.125 53.3035 235.125 52.9583V52.3333C235.125 52.0587 235.166 51.7948 235.241 51.5466Z" fill="#0063A3"/>
<path d="M244.956 51.1841C244.856 50.8538 244.507 50.6671 244.176 50.7672C243.846 50.8673 243.659 51.2162 243.759 51.5466C243.835 51.7948 243.875 52.0587 243.875 52.3333V52.9583C243.875 53.3035 244.155 53.5833 244.5 53.5833C244.846 53.5833 245.125 53.3035 245.125 52.9583V52.3333C245.125 51.9346 245.066 51.5486 244.956 51.1841Z" fill="#0063A3"/>
<path d="M235.125 55.0416C235.125 54.6964 234.846 54.4166 234.5 54.4166C234.155 54.4166 233.875 54.6964 233.875 55.0416V55.6666C233.875 56.0653 233.934 56.4513 234.045 56.8158C234.145 57.1461 234.494 57.3328 234.824 57.2327C235.155 57.1326 235.341 56.7837 235.241 56.4533C235.166 56.2051 235.125 55.9412 235.125 55.6666V55.0416Z" fill="#0063A3"/>
<path d="M245.125 55.0416C245.125 54.6964 244.846 54.4166 244.5 54.4166C244.155 54.4166 243.875 54.6964 243.875 55.0416V55.6666C243.875 55.9412 243.835 56.2051 243.759 56.4533C243.659 56.7837 243.846 57.1326 244.176 57.2327C244.507 57.3328 244.856 57.1461 244.956 56.8158C245.066 56.4513 245.125 56.0653 245.125 55.6666V55.0416Z" fill="#0063A3"/>
<path d="M237.047 58.2591C236.717 58.159 236.368 58.3457 236.268 58.676C236.167 59.0064 236.354 59.3553 236.684 59.4554C237.049 59.5658 237.435 59.625 237.834 59.625H238.459C238.804 59.625 239.084 59.3451 239.084 59C239.084 58.6548 238.804 58.375 238.459 58.375H237.834C237.559 58.375 237.295 58.3343 237.047 58.2591Z" fill="#0063A3"/>
<path d="M242.316 59.4554C242.647 59.3553 242.833 59.0064 242.733 58.676C242.633 58.3457 242.284 58.159 241.954 58.2591C241.705 58.3343 241.442 58.375 241.167 58.375H240.542C240.197 58.375 239.917 58.6548 239.917 59C239.917 59.3451 240.197 59.625 240.542 59.625H241.167C241.566 59.625 241.952 59.5658 242.316 59.4554Z" fill="#0063A3"/>
<path d="M224.67 85H223.07L220.914 81.4902L218.746 85H217.24L220.088 80.5586L217.434 76.4336H218.986L220.979 79.6797L222.959 76.4336H224.465L221.799 80.5996L224.67 85ZM225.371 82.3633V81.1973H228.395V82.3633H225.371ZM235.137 82.668C235.137 83.1758 235.012 83.6133 234.762 83.9805C234.516 84.3477 234.16 84.6289 233.695 84.8242C233.234 85.0195 232.684 85.1172 232.043 85.1172C231.73 85.1172 231.432 85.0996 231.146 85.0645C230.861 85.0293 230.592 84.9785 230.338 84.9121C230.088 84.8418 229.859 84.7578 229.652 84.6602V83.3359C230 83.4883 230.389 83.627 230.818 83.752C231.248 83.873 231.686 83.9336 232.131 83.9336C232.494 83.9336 232.795 83.8867 233.033 83.793C233.275 83.6953 233.455 83.5586 233.572 83.3828C233.689 83.2031 233.748 82.9941 233.748 82.7559C233.748 82.502 233.68 82.2871 233.543 82.1113C233.406 81.9355 233.199 81.7754 232.922 81.6309C232.648 81.4824 232.305 81.3242 231.891 81.1562C231.609 81.043 231.34 80.9141 231.082 80.7695C230.828 80.625 230.602 80.4551 230.402 80.2598C230.203 80.0645 230.045 79.834 229.928 79.5684C229.814 79.2988 229.758 78.9824 229.758 78.6191C229.758 78.1348 229.873 77.7207 230.104 77.377C230.338 77.0332 230.666 76.7695 231.088 76.5859C231.514 76.4023 232.01 76.3105 232.576 76.3105C233.025 76.3105 233.447 76.3574 233.842 76.4512C234.24 76.5449 234.631 76.6777 235.014 76.8496L234.568 77.9805C234.217 77.8359 233.875 77.7207 233.543 77.6348C233.215 77.5488 232.879 77.5059 232.535 77.5059C232.238 77.5059 231.986 77.5508 231.779 77.6406C231.572 77.7305 231.414 77.8574 231.305 78.0215C231.199 78.1816 231.146 78.373 231.146 78.5957C231.146 78.8457 231.207 79.0566 231.328 79.2285C231.453 79.3965 231.645 79.5508 231.902 79.6914C232.164 79.832 232.5 79.9883 232.91 80.1602C233.383 80.3555 233.783 80.5605 234.111 80.7754C234.443 80.9902 234.697 81.248 234.873 81.5488C235.049 81.8457 235.137 82.2188 235.137 82.668ZM244.229 78.3906C244.955 78.3906 245.502 78.5781 245.869 78.9531C246.24 79.3281 246.426 79.9297 246.426 80.7578V85H245.049V81.0039C245.049 80.5117 244.953 80.1406 244.762 79.8906C244.57 79.6406 244.279 79.5156 243.889 79.5156C243.342 79.5156 242.947 79.6914 242.705 80.043C242.467 80.3906 242.348 80.8965 242.348 81.5605V85H240.971V81.0039C240.971 80.6758 240.928 80.4023 240.842 80.1836C240.76 79.9609 240.633 79.7949 240.461 79.6855C240.289 79.5723 240.072 79.5156 239.811 79.5156C239.432 79.5156 239.129 79.6016 238.902 79.7734C238.68 79.9453 238.52 80.1992 238.422 80.5352C238.324 80.8672 238.275 81.2754 238.275 81.7598V85H236.898V78.5137H237.971L238.164 79.3867H238.24C238.373 79.1602 238.537 78.9746 238.732 78.8301C238.932 78.6816 239.152 78.5723 239.395 78.502C239.637 78.4277 239.889 78.3906 240.15 78.3906C240.635 78.3906 241.043 78.4766 241.375 78.6484C241.707 78.8164 241.955 79.0742 242.119 79.4219H242.225C242.428 79.0703 242.711 78.8105 243.074 78.6426C243.438 78.4746 243.822 78.3906 244.229 78.3906ZM251.141 78.3906C251.961 78.3906 252.58 78.5723 252.998 78.9355C253.42 79.2988 253.631 79.8652 253.631 80.6348V85H252.652L252.389 84.0801H252.342C252.158 84.3145 251.969 84.5078 251.773 84.6602C251.578 84.8125 251.352 84.9258 251.094 85C250.84 85.0781 250.529 85.1172 250.162 85.1172C249.775 85.1172 249.43 85.0469 249.125 84.9062C248.82 84.7617 248.58 84.543 248.404 84.25C248.229 83.957 248.141 83.5859 248.141 83.1367C248.141 82.4688 248.389 81.9668 248.885 81.6309C249.385 81.2949 250.139 81.1094 251.146 81.0742L252.271 81.0332V80.6934C252.271 80.2441 252.166 79.9238 251.955 79.7324C251.748 79.541 251.455 79.4453 251.076 79.4453C250.752 79.4453 250.438 79.4922 250.133 79.5859C249.828 79.6797 249.531 79.7949 249.242 79.9316L248.797 78.959C249.113 78.791 249.473 78.6543 249.875 78.5488C250.281 78.4434 250.703 78.3906 251.141 78.3906ZM252.266 81.9004L251.428 81.9297C250.74 81.9531 250.258 82.0703 249.98 82.2812C249.703 82.4922 249.564 82.7812 249.564 83.1484C249.564 83.4688 249.66 83.7031 249.852 83.8516C250.043 83.9961 250.295 84.0684 250.607 84.0684C251.084 84.0684 251.479 83.9336 251.791 83.6641C252.107 83.3906 252.266 82.9902 252.266 82.4629V81.9004ZM257.191 85H255.809V75.8828H257.191V85ZM260.793 85H259.41V75.8828H260.793V85Z" fill="#0063A3"/>
<rect width="479" height="136" transform="translate(481)" fill="#F1F1F6"/>
<path d="M714.5 46.25C714.058 46.25 713.638 46.3378 713.256 46.4963C712.874 46.655 712.435 46.4734 712.276 46.0908C712.117 45.7082 712.299 45.2694 712.682 45.1107C713.243 44.878 713.857 44.75 714.5 44.75H716C716.414 44.75 716.75 45.0858 716.75 45.5C716.75 45.9142 716.414 46.25 716 46.25H714.5Z" fill="#0063A3"/>
<path d="M718.25 45.5C718.25 45.0858 718.586 44.75 719 44.75H722C722.414 44.75 722.75 45.0858 722.75 45.5C722.75 45.9142 722.414 46.25 722 46.25H719C718.586 46.25 718.25 45.9142 718.25 45.5Z" fill="#0063A3"/>
<path d="M724.25 45.5C724.25 45.0858 724.586 44.75 725 44.75H726.5C727.143 44.75 727.757 44.878 728.318 45.1107C728.701 45.2694 728.883 45.7082 728.724 46.0908C728.565 46.4734 728.126 46.655 727.744 46.4963C727.362 46.3378 726.942 46.25 726.5 46.25H725C724.586 46.25 724.25 45.9142 724.25 45.5Z" fill="#0063A3"/>
<path d="M711.091 47.2761C711.473 47.4347 711.655 47.8735 711.496 48.2561C711.338 48.6383 711.25 49.0579 711.25 49.5V51C711.25 51.4142 710.914 51.75 710.5 51.75C710.086 51.75 709.75 51.4142 709.75 51V49.5C709.75 48.8573 709.878 48.2427 710.111 47.6816C710.269 47.2989 710.708 47.1174 711.091 47.2761Z" fill="#0063A3"/>
<path d="M729.909 47.2761C730.292 47.1174 730.731 47.2989 730.889 47.6816C731.122 48.2427 731.25 48.8573 731.25 49.5V51C731.25 51.4142 730.914 51.75 730.5 51.75C730.086 51.75 729.75 51.4142 729.75 51V49.5C729.75 49.0579 729.662 48.6383 729.504 48.2561C729.345 47.8735 729.527 47.4347 729.909 47.2761Z" fill="#0063A3"/>
<path d="M710.5 53.25C710.914 53.25 711.25 53.5858 711.25 54V57C711.25 57.4142 710.914 57.75 710.5 57.75C710.086 57.75 709.75 57.4142 709.75 57V54C709.75 53.5858 710.086 53.25 710.5 53.25Z" fill="#0063A3"/>
<path d="M730.5 53.25C730.914 53.25 731.25 53.5858 731.25 54V57C731.25 57.4142 730.914 57.75 730.5 57.75C730.086 57.75 729.75 57.4142 729.75 57V54C729.75 53.5858 730.086 53.25 730.5 53.25Z" fill="#0063A3"/>
<path d="M710.5 59.25C710.914 59.25 711.25 59.5858 711.25 60V61.5C711.25 61.9421 711.338 62.3617 711.496 62.7439C711.655 63.1265 711.473 63.5653 711.091 63.7239C710.708 63.8826 710.269 63.7011 710.111 63.3184C709.878 62.7573 709.75 62.1427 709.75 61.5V60C709.75 59.5858 710.086 59.25 710.5 59.25Z" fill="#0063A3"/>
<path d="M730.5 59.25C730.914 59.25 731.25 59.5858 731.25 60V61.5C731.25 62.1427 731.122 62.7573 730.889 63.3184C730.731 63.7011 730.292 63.8826 729.909 63.7239C729.527 63.5653 729.345 63.1265 729.504 62.7439C729.662 62.3617 729.75 61.9421 729.75 61.5V60C729.75 59.5858 730.086 59.25 730.5 59.25Z" fill="#0063A3"/>
<path d="M712.276 64.9092C712.435 64.5266 712.874 64.345 713.256 64.5037C713.638 64.6622 714.058 64.75 714.5 64.75H716C716.414 64.75 716.75 65.0858 716.75 65.5C716.75 65.9142 716.414 66.25 716 66.25H714.5C713.857 66.25 713.243 66.122 712.682 65.8893C712.299 65.7306 712.117 65.2918 712.276 64.9092Z" fill="#0063A3"/>
<path d="M728.724 64.9092C728.883 65.2918 728.701 65.7306 728.318 65.8893C727.757 66.122 727.143 66.25 726.5 66.25H725C724.586 66.25 724.25 65.9142 724.25 65.5C724.25 65.0858 724.586 64.75 725 64.75H726.5C726.942 64.75 727.362 64.6622 727.744 64.5037C728.126 64.345 728.565 64.5266 728.724 64.9092Z" fill="#0063A3"/>
<path d="M718.25 65.5C718.25 65.0858 718.586 64.75 719 64.75H722C722.414 64.75 722.75 65.0858 722.75 65.5C722.75 65.9142 722.414 66.25 722 66.25H719C718.586 66.25 718.25 65.9142 718.25 65.5Z" fill="#0063A3"/>
<path d="M729.03 48.091C729.323 47.7981 729.323 47.3232 729.03 47.0303C728.737 46.7374 728.263 46.7374 727.97 47.0303L726.973 48.0265C726.681 48.3194 726.681 48.7943 726.973 49.0872C727.266 49.3801 727.741 49.3801 728.034 49.0872L729.03 48.091Z" fill="#0063A3"/>
<path d="M726.042 51.0796C726.335 50.7867 726.335 50.3119 726.042 50.019C725.749 49.7261 725.274 49.7261 724.981 50.019L722.989 52.0114C722.696 52.3043 722.696 52.7791 722.989 53.072C723.282 53.3649 723.756 53.3649 724.049 53.072L726.042 51.0796Z" fill="#0063A3"/>
<path d="M722.057 55.0645C722.35 54.7716 722.35 54.2967 722.057 54.0038C721.764 53.7109 721.289 53.7109 720.996 54.0038L720.5 54.5L720.004 54.0038C719.711 53.7109 719.236 53.7109 718.943 54.0038C718.65 54.2967 718.65 54.7716 718.943 55.0645L719.439 55.5607L719.004 55.9962C718.711 56.2891 718.711 56.764 719.004 57.0569C719.297 57.3498 719.772 57.3498 720.064 57.0569L720.5 56.6213L720.936 57.0569C721.228 57.3498 721.703 57.3498 721.996 57.0569C722.289 56.764 722.289 56.2891 721.996 55.9962L721.561 55.5607L722.057 55.0645Z" fill="#0063A3"/>
<path d="M718.072 59.0493C718.365 58.7564 718.365 58.2815 718.072 57.9886C717.779 57.6957 717.304 57.6957 717.011 57.9886L715.019 59.981C714.726 60.2739 714.726 60.7488 715.019 61.0417C715.312 61.3346 715.787 61.3346 716.08 61.0417L718.072 59.0493Z" fill="#0063A3"/>
<path d="M714.087 63.0341C714.38 62.7412 714.38 62.2664 714.087 61.9735C713.794 61.6806 713.319 61.6806 713.027 61.9735L712.03 62.9697C711.737 63.2626 711.737 63.7374 712.03 64.0303C712.323 64.3232 712.798 64.3232 713.091 64.0303L714.087 63.0341Z" fill="#0063A3"/>
<path d="M727.909 64.0303C728.202 64.3232 728.677 64.3232 728.97 64.0303C729.263 63.7374 729.263 63.2626 728.97 62.9697L727.973 61.9735C727.681 61.6806 727.206 61.6806 726.913 61.9735C726.62 62.2664 726.62 62.7412 726.913 63.0341L727.909 64.0303Z" fill="#0063A3"/>
<path d="M724.92 61.0417C725.213 61.3346 725.688 61.3346 725.981 61.0417C726.274 60.7488 726.274 60.2739 725.981 59.981L723.989 57.9886C723.696 57.6957 723.221 57.6957 722.928 57.9886C722.635 58.2815 722.635 58.7564 722.928 59.0493L724.92 61.0417Z" fill="#0063A3"/>
<path d="M716.951 53.072C717.244 53.3649 717.718 53.3649 718.011 53.072C718.304 52.7791 718.304 52.3043 718.011 52.0114L716.019 50.019C715.726 49.7261 715.251 49.7261 714.958 50.019C714.665 50.3119 714.665 50.7867 714.958 51.0796L716.951 53.072Z" fill="#0063A3"/>
<path d="M712.966 49.0872C713.259 49.3801 713.734 49.3801 714.027 49.0872C714.319 48.7943 714.319 48.3194 714.027 48.0265L713.03 47.0303C712.737 46.7374 712.263 46.7374 711.97 47.0303C711.677 47.3232 711.677 47.7981 711.97 48.091L712.966 49.0872Z" fill="#0063A3"/>
<path d="M717.556 50.389C717.854 50.2988 718.171 50.25 718.5 50.25H719.25C719.664 50.25 720 49.9142 720 49.5C720 49.0858 719.664 48.75 719.25 48.75H718.5C718.022 48.75 717.558 48.821 717.121 48.9535C716.725 49.0736 716.501 49.4923 716.621 49.8887C716.741 50.2851 717.16 50.5091 717.556 50.389Z" fill="#0063A3"/>
<path d="M721.75 48.75C721.336 48.75 721 49.0858 721 49.5C721 49.9142 721.336 50.25 721.75 50.25H722.5C722.829 50.25 723.146 50.2988 723.444 50.389C723.84 50.5091 724.259 50.2851 724.379 49.8887C724.499 49.4923 724.275 49.0736 723.879 48.9535C723.442 48.821 722.978 48.75 722.5 48.75H721.75Z" fill="#0063A3"/>
<path d="M715.389 52.5559C715.509 52.1595 715.285 51.7408 714.889 51.6207C714.492 51.5006 714.074 51.7246 713.953 52.121C713.821 52.5583 713.75 53.0216 713.75 53.5V54.25C713.75 54.6642 714.086 55 714.5 55C714.914 55 715.25 54.6642 715.25 54.25V53.5C715.25 53.1705 715.299 52.8538 715.389 52.5559Z" fill="#0063A3"/>
<path d="M727.047 52.121C726.926 51.7246 726.508 51.5006 726.111 51.6207C725.715 51.7408 725.491 52.1595 725.611 52.5559C725.701 52.8538 725.75 53.1705 725.75 53.5V54.25C725.75 54.6642 726.086 55 726.5 55C726.914 55 727.25 54.6642 727.25 54.25V53.5C727.25 53.0216 727.179 52.5583 727.047 52.121Z" fill="#0063A3"/>
<path d="M715.25 56.75C715.25 56.3358 714.914 56 714.5 56C714.086 56 713.75 56.3358 713.75 56.75V57.5C713.75 57.9784 713.821 58.4417 713.953 58.879C714.074 59.2754 714.492 59.4994 714.889 59.3793C715.285 59.2592 715.509 58.8405 715.389 58.4441C715.299 58.1462 715.25 57.8295 715.25 57.5V56.75Z" fill="#0063A3"/>
<path d="M727.25 56.75C727.25 56.3358 726.914 56 726.5 56C726.086 56 725.75 56.3358 725.75 56.75V57.5C725.75 57.8295 725.701 58.1462 725.611 58.4441C725.491 58.8405 725.715 59.2592 726.111 59.3793C726.508 59.4994 726.926 59.2754 727.047 58.879C727.179 58.4417 727.25 57.9784 727.25 57.5V56.75Z" fill="#0063A3"/>
<path d="M717.556 60.611C717.16 60.4909 716.741 60.7149 716.621 61.1113C716.501 61.5077 716.725 61.9264 717.121 62.0465C717.558 62.179 718.022 62.25 718.5 62.25H719.25C719.664 62.25 720 61.9142 720 61.5C720 61.0858 719.664 60.75 719.25 60.75H718.5C718.171 60.75 717.854 60.7012 717.556 60.611Z" fill="#0063A3"/>
<path d="M723.879 62.0465C724.275 61.9264 724.499 61.5077 724.379 61.1113C724.259 60.7149 723.84 60.4909 723.444 60.611C723.146 60.7012 722.829 60.75 722.5 60.75H721.75C721.336 60.75 721 61.0858 721 61.5C721 61.9142 721.336 62.25 721.75 62.25H722.5C722.978 62.25 723.442 62.179 723.879 62.0465Z" fill="#0063A3"/>
<path d="M708.084 82.2793C708.084 82.8717 707.938 83.3822 707.646 83.8105C707.359 84.2389 706.945 84.5671 706.402 84.7949C705.865 85.0228 705.222 85.1367 704.475 85.1367C704.11 85.1367 703.761 85.1162 703.429 85.0752C703.096 85.0342 702.782 84.9749 702.485 84.8975C702.194 84.8154 701.927 84.7174 701.686 84.6035V83.0586C702.091 83.2363 702.545 83.3981 703.046 83.5439C703.547 83.6852 704.058 83.7559 704.577 83.7559C705.001 83.7559 705.352 83.7012 705.63 83.5918C705.912 83.4779 706.122 83.3184 706.259 83.1133C706.396 82.9036 706.464 82.6598 706.464 82.3818C706.464 82.0856 706.384 81.835 706.225 81.6299C706.065 81.4248 705.824 81.238 705.5 81.0693C705.181 80.8962 704.78 80.7116 704.297 80.5156C703.969 80.3835 703.654 80.2331 703.354 80.0645C703.057 79.8958 702.793 79.6976 702.561 79.4697C702.328 79.2419 702.144 78.973 702.007 78.6631C701.875 78.3486 701.809 77.9795 701.809 77.5557C701.809 76.9906 701.943 76.5075 702.212 76.1064C702.485 75.7054 702.868 75.3978 703.36 75.1836C703.857 74.9694 704.436 74.8623 705.097 74.8623C705.621 74.8623 706.113 74.917 706.573 75.0264C707.038 75.1357 707.494 75.2907 707.94 75.4912L707.421 76.8105C707.011 76.6419 706.612 76.5075 706.225 76.4072C705.842 76.307 705.45 76.2568 705.049 76.2568C704.702 76.2568 704.409 76.3092 704.167 76.4141C703.925 76.5189 703.741 76.667 703.613 76.8584C703.49 77.0452 703.429 77.2686 703.429 77.5283C703.429 77.82 703.499 78.0661 703.641 78.2666C703.786 78.4626 704.01 78.6426 704.311 78.8066C704.616 78.9707 705.008 79.153 705.486 79.3535C706.038 79.5814 706.505 79.8206 706.888 80.0713C707.275 80.3219 707.571 80.6227 707.776 80.9736C707.981 81.32 708.084 81.7552 708.084 82.2793ZM718.649 77.2891C719.497 77.2891 720.135 77.5078 720.563 77.9453C720.996 78.3828 721.213 79.0846 721.213 80.0508V85H719.606V80.3379C719.606 79.7637 719.495 79.3307 719.271 79.0391C719.048 78.7474 718.709 78.6016 718.253 78.6016C717.615 78.6016 717.155 78.8066 716.872 79.2168C716.594 79.6224 716.455 80.2126 716.455 80.9873V85H714.849V80.3379C714.849 79.9551 714.799 79.6361 714.698 79.3809C714.603 79.1211 714.454 78.9274 714.254 78.7998C714.053 78.6676 713.8 78.6016 713.495 78.6016C713.053 78.6016 712.7 78.7018 712.436 78.9023C712.176 79.1029 711.989 79.3991 711.875 79.791C711.761 80.1784 711.704 80.6546 711.704 81.2197V85H710.098V77.4326H711.349L711.574 78.4512H711.663C711.818 78.1868 712.009 77.9704 712.237 77.8018C712.47 77.6286 712.727 77.501 713.01 77.4189C713.292 77.3324 713.586 77.2891 713.892 77.2891C714.457 77.2891 714.933 77.3893 715.32 77.5898C715.708 77.7858 715.997 78.0866 716.188 78.4922H716.312C716.549 78.082 716.879 77.779 717.303 77.583C717.727 77.387 718.175 77.2891 718.649 77.2891ZM726.672 77.2891C727.629 77.2891 728.351 77.501 728.839 77.9248C729.331 78.3486 729.577 79.0094 729.577 79.9072V85H728.436L728.128 83.9268H728.073C727.859 84.2002 727.638 84.4258 727.41 84.6035C727.182 84.7812 726.918 84.9134 726.617 85C726.321 85.0911 725.959 85.1367 725.53 85.1367C725.079 85.1367 724.676 85.0547 724.32 84.8906C723.965 84.722 723.685 84.4668 723.479 84.125C723.274 83.7832 723.172 83.3503 723.172 82.8262C723.172 82.0469 723.461 81.4613 724.04 81.0693C724.623 80.6774 725.503 80.4609 726.679 80.4199L727.991 80.3721V79.9756C727.991 79.4515 727.868 79.0778 727.622 78.8545C727.381 78.6312 727.039 78.5195 726.597 78.5195C726.218 78.5195 725.852 78.5742 725.496 78.6836C725.141 78.793 724.794 78.9274 724.457 79.0869L723.938 77.9521C724.307 77.7562 724.726 77.5967 725.195 77.4736C725.669 77.3506 726.161 77.2891 726.672 77.2891ZM727.984 81.3838L727.007 81.418C726.205 81.4453 725.642 81.582 725.318 81.8281C724.995 82.0742 724.833 82.4115 724.833 82.8398C724.833 83.2135 724.945 83.487 725.168 83.6602C725.391 83.8288 725.685 83.9131 726.05 83.9131C726.606 83.9131 727.066 83.7559 727.431 83.4414C727.8 83.1224 727.984 82.6553 727.984 82.04V81.3838ZM733.689 85H732.076V74.3633H733.689V85ZM737.85 85H736.236V74.3633H737.85V85Z" fill="#0063A3"/>
</g>
<g clip-path="url(#clip2_259_59990)">
<rect width="960" height="160" transform="translate(0 152)" fill="#F1F1F6"/>
<path d="M472 203.667C471.411 203.667 470.851 203.784 470.342 203.995C469.832 204.207 469.247 203.965 469.035 203.454C468.824 202.944 469.066 202.359 469.576 202.148C470.324 201.837 471.143 201.667 472 201.667H474C474.553 201.667 475 202.114 475 202.667C475 203.219 474.553 203.667 474 203.667H472Z" fill="#0063A3"/>
<path d="M477 202.667C477 202.114 477.448 201.667 478 201.667H482C482.553 201.667 483 202.114 483 202.667C483 203.219 482.553 203.667 482 203.667H478C477.448 203.667 477 203.219 477 202.667Z" fill="#0063A3"/>
<path d="M485 202.667C485 202.114 485.448 201.667 486 201.667H488C488.857 201.667 489.677 201.837 490.425 202.148C490.935 202.359 491.177 202.944 490.966 203.454C490.754 203.965 490.169 204.207 489.659 203.995C489.149 203.784 488.59 203.667 488 203.667H486C485.448 203.667 485 203.219 485 202.667Z" fill="#0063A3"/>
<path d="M467.455 205.035C467.965 205.246 468.207 205.831 467.995 206.341C467.784 206.851 467.667 207.411 467.667 208V210C467.667 210.552 467.219 211 466.667 211C466.115 211 465.667 210.552 465.667 210V208C465.667 207.143 465.838 206.324 466.148 205.575C466.36 205.065 466.945 204.823 467.455 205.035Z" fill="#0063A3"/>
<path d="M492.546 205.035C493.056 204.823 493.641 205.065 493.853 205.575C494.163 206.324 494.334 207.143 494.334 208V210C494.334 210.552 493.886 211 493.334 211C492.781 211 492.334 210.552 492.334 210V208C492.334 207.411 492.217 206.851 492.005 206.341C491.794 205.831 492.036 205.246 492.546 205.035Z" fill="#0063A3"/>
<path d="M466.667 213C467.219 213 467.667 213.448 467.667 214V218C467.667 218.552 467.219 219 466.667 219C466.115 219 465.667 218.552 465.667 218V214C465.667 213.448 466.115 213 466.667 213Z" fill="#0063A3"/>
<path d="M493.334 213C493.886 213 494.334 213.448 494.334 214V218C494.334 218.552 493.886 219 493.334 219C492.781 219 492.334 218.552 492.334 218V214C492.334 213.448 492.781 213 493.334 213Z" fill="#0063A3"/>
<path d="M466.667 221C467.219 221 467.667 221.448 467.667 222V224C467.667 224.589 467.784 225.149 467.995 225.658C468.207 226.169 467.965 226.754 467.455 226.965C466.945 227.177 466.36 226.935 466.148 226.425C465.838 225.676 465.667 224.857 465.667 224V222C465.667 221.448 466.115 221 466.667 221Z" fill="#0063A3"/>
<path d="M493.334 221C493.886 221 494.334 221.448 494.334 222V224C494.334 224.857 494.163 225.676 493.853 226.425C493.641 226.935 493.056 227.177 492.546 226.965C492.036 226.754 491.794 226.169 492.005 225.658C492.217 225.149 492.334 224.589 492.334 224V222C492.334 221.448 492.781 221 493.334 221Z" fill="#0063A3"/>
<path d="M469.035 228.546C469.247 228.035 469.832 227.793 470.342 228.005C470.851 228.216 471.411 228.333 472 228.333H474C474.553 228.333 475 228.781 475 229.333C475 229.886 474.553 230.333 474 230.333H472C471.143 230.333 470.324 230.163 469.576 229.852C469.066 229.641 468.824 229.056 469.035 228.546Z" fill="#0063A3"/>
<path d="M490.966 228.546C491.177 229.056 490.935 229.641 490.425 229.852C489.677 230.163 488.857 230.333 488 230.333H486C485.448 230.333 485 229.886 485 229.333C485 228.781 485.448 228.333 486 228.333H488C488.59 228.333 489.149 228.216 489.659 228.005C490.169 227.793 490.754 228.035 490.966 228.546Z" fill="#0063A3"/>
<path d="M477 229.333C477 228.781 477.448 228.333 478 228.333H482C482.553 228.333 483 228.781 483 229.333C483 229.886 482.553 230.333 482 230.333H478C477.448 230.333 477 229.886 477 229.333Z" fill="#0063A3"/>
<path d="M491.374 206.121C491.765 205.731 491.765 205.098 491.374 204.707C490.984 204.317 490.35 204.317 489.96 204.707L488.632 206.035C488.241 206.426 488.241 207.059 488.632 207.45C489.022 207.84 489.655 207.84 490.046 207.45L491.374 206.121Z" fill="#0063A3"/>
<path d="M487.389 210.106C487.78 209.716 487.78 209.082 487.389 208.692C486.999 208.301 486.366 208.301 485.975 208.692L483.318 211.348C482.928 211.739 482.928 212.372 483.318 212.763C483.709 213.153 484.342 213.153 484.733 212.763L487.389 210.106Z" fill="#0063A3"/>
<path d="M482.076 215.419C482.467 215.029 482.467 214.396 482.076 214.005C481.686 213.614 481.052 213.614 480.662 214.005L480 214.667L479.339 214.005C478.948 213.614 478.315 213.614 477.924 214.005C477.534 214.396 477.534 215.029 477.924 215.419L478.586 216.081L478.005 216.662C477.615 217.052 477.615 217.685 478.005 218.076C478.396 218.466 479.029 218.466 479.42 218.076L480 217.495L480.581 218.076C480.972 218.466 481.605 218.466 481.995 218.076C482.386 217.685 482.386 217.052 481.995 216.662L481.415 216.081L482.076 215.419Z" fill="#0063A3"/>
<path d="M476.763 220.732C477.154 220.342 477.154 219.709 476.763 219.318C476.373 218.928 475.739 218.928 475.349 219.318L472.692 221.975C472.302 222.365 472.302 222.998 472.692 223.389C473.083 223.779 473.716 223.779 474.106 223.389L476.763 220.732Z" fill="#0063A3"/>
<path d="M471.45 226.045C471.84 225.655 471.84 225.022 471.45 224.631C471.059 224.241 470.426 224.241 470.036 224.631L468.707 225.96C468.317 226.35 468.317 226.983 468.707 227.374C469.098 227.764 469.731 227.764 470.122 227.374L471.45 226.045Z" fill="#0063A3"/>
<path d="M489.879 227.374C490.27 227.764 490.903 227.764 491.293 227.374C491.684 226.983 491.684 226.35 491.293 225.96L489.965 224.631C489.574 224.241 488.941 224.241 488.551 224.631C488.16 225.022 488.16 225.655 488.551 226.045L489.879 227.374Z" fill="#0063A3"/>
<path d="M485.894 223.389C486.285 223.779 486.918 223.779 487.308 223.389C487.699 222.998 487.699 222.365 487.308 221.975L484.652 219.318C484.261 218.928 483.628 218.928 483.238 219.318C482.847 219.709 482.847 220.342 483.238 220.732L485.894 223.389Z" fill="#0063A3"/>
<path d="M475.268 212.763C475.658 213.153 476.292 213.153 476.682 212.763C477.073 212.372 477.073 211.739 476.682 211.348L474.026 208.692C473.635 208.301 473.002 208.301 472.611 208.692C472.221 209.082 472.221 209.716 472.611 210.106L475.268 212.763Z" fill="#0063A3"/>
<path d="M469.955 207.45C470.345 207.84 470.979 207.84 471.369 207.45C471.76 207.059 471.76 206.426 471.369 206.035L470.041 204.707C469.65 204.317 469.017 204.317 468.627 204.707C468.236 205.098 468.236 205.731 468.627 206.121L469.955 207.45Z" fill="#0063A3"/>
<path d="M476.075 209.185C476.472 209.065 476.894 209 477.334 209H478.334C478.886 209 479.334 208.552 479.334 208C479.334 207.448 478.886 207 478.334 207H477.334C476.696 207 476.078 207.095 475.495 207.271C474.966 207.431 474.668 207.99 474.828 208.518C474.988 209.047 475.546 209.345 476.075 209.185Z" fill="#0063A3"/>
<path d="M481.667 207C481.115 207 480.667 207.448 480.667 208C480.667 208.552 481.115 209 481.667 209H482.667C483.106 209 483.529 209.065 483.926 209.185C484.454 209.345 485.013 209.047 485.173 208.518C485.333 207.99 485.034 207.431 484.506 207.271C483.923 207.095 483.305 207 482.667 207H481.667Z" fill="#0063A3"/>
<path d="M473.186 212.075C473.346 211.546 473.047 210.988 472.519 210.828C471.99 210.667 471.432 210.966 471.272 211.495C471.095 212.078 471 212.695 471 213.333V214.333C471 214.886 471.448 215.333 472 215.333C472.553 215.333 473 214.886 473 214.333V213.333C473 212.894 473.065 212.472 473.186 212.075Z" fill="#0063A3"/>
<path d="M488.729 211.495C488.569 210.966 488.011 210.667 487.482 210.828C486.953 210.988 486.655 211.546 486.815 212.075C486.935 212.472 487 212.894 487 213.333V214.333C487 214.886 487.448 215.333 488 215.333C488.553 215.333 489 214.886 489 214.333V213.333C489 212.695 488.906 212.078 488.729 211.495Z" fill="#0063A3"/>
<path d="M473 217.667C473 217.114 472.553 216.667 472 216.667C471.448 216.667 471 217.114 471 217.667V218.667C471 219.305 471.095 219.922 471.272 220.505C471.432 221.034 471.99 221.333 472.519 221.172C473.047 221.012 473.346 220.454 473.186 219.925C473.065 219.528 473 219.106 473 218.667V217.667Z" fill="#0063A3"/>
<path d="M489 217.667C489 217.114 488.553 216.667 488 216.667C487.448 216.667 487 217.114 487 217.667V218.667C487 219.106 486.935 219.528 486.815 219.925C486.655 220.454 486.953 221.012 487.482 221.172C488.011 221.333 488.569 221.034 488.729 220.505C488.906 219.922 489 219.305 489 218.667V217.667Z" fill="#0063A3"/>
<path d="M476.075 222.815C475.546 222.654 474.988 222.953 474.828 223.482C474.668 224.01 474.966 224.569 475.495 224.729C476.078 224.905 476.696 225 477.334 225H478.334C478.886 225 479.334 224.552 479.334 224C479.334 223.448 478.886 223 478.334 223H477.334C476.894 223 476.472 222.935 476.075 222.815Z" fill="#0063A3"/>
<path d="M484.506 224.729C485.034 224.569 485.333 224.01 485.173 223.482C485.013 222.953 484.454 222.654 483.926 222.815C483.529 222.935 483.106 223 482.667 223H481.667C481.115 223 480.667 223.448 480.667 224C480.667 224.552 481.115 225 481.667 225H482.667C483.305 225 483.923 224.905 484.506 224.729Z" fill="#0063A3"/>
<path d="M453.329 250.997C453.329 253.582 452.591 255.562 451.116 256.938C449.648 258.312 447.525 259 444.746 259H440.299V243.295H445.229C447.793 243.295 449.784 243.972 451.202 245.325C452.62 246.679 453.329 248.569 453.329 250.997ZM449.87 251.083C449.87 247.71 448.381 246.023 445.401 246.023H443.629V256.25H445.058C448.266 256.25 449.87 254.528 449.87 251.083ZM461.55 249.096C460.855 249.096 460.311 249.318 459.917 249.762C459.523 250.199 459.298 250.822 459.24 251.631H463.838C463.824 250.822 463.612 250.199 463.204 249.762C462.796 249.318 462.244 249.096 461.55 249.096ZM462.012 259.215C460.078 259.215 458.567 258.681 457.479 257.614C456.39 256.547 455.846 255.036 455.846 253.081C455.846 251.069 456.347 249.515 457.35 248.419C458.359 247.316 459.752 246.765 461.528 246.765C463.226 246.765 464.547 247.248 465.492 248.215C466.438 249.182 466.91 250.517 466.91 252.222V253.812H459.165C459.201 254.743 459.477 255.469 459.992 255.992C460.508 256.515 461.231 256.776 462.162 256.776C462.885 256.776 463.569 256.701 464.214 256.551C464.858 256.4 465.532 256.16 466.233 255.831V258.366C465.66 258.653 465.048 258.864 464.396 259C463.745 259.143 462.95 259.215 462.012 259.215ZM476.463 249.45H473.627V259H470.351V249.45H468.546V247.871L470.351 246.99V246.109C470.351 244.742 470.687 243.743 471.36 243.112C472.034 242.482 473.111 242.167 474.594 242.167C475.725 242.167 476.731 242.335 477.612 242.672L476.774 245.078C476.116 244.87 475.507 244.767 474.948 244.767C474.483 244.767 474.146 244.906 473.938 245.186C473.731 245.458 473.627 245.809 473.627 246.238V246.99H476.463V249.45ZM486.23 259L485.597 257.367H485.511C484.959 258.062 484.39 258.545 483.803 258.817C483.223 259.082 482.464 259.215 481.525 259.215C480.372 259.215 479.463 258.885 478.797 258.227C478.138 257.568 477.809 256.63 477.809 255.412C477.809 254.137 478.253 253.199 479.141 252.598C480.036 251.989 481.382 251.652 483.18 251.588L485.264 251.523V250.997C485.264 249.78 484.641 249.171 483.395 249.171C482.435 249.171 481.307 249.461 480.011 250.041L478.926 247.828C480.308 247.105 481.84 246.743 483.523 246.743C485.135 246.743 486.37 247.094 487.229 247.796C488.089 248.498 488.519 249.565 488.519 250.997V259H486.23ZM485.264 253.436L483.996 253.479C483.044 253.507 482.335 253.679 481.869 253.994C481.404 254.309 481.171 254.789 481.171 255.434C481.171 256.357 481.701 256.819 482.761 256.819C483.52 256.819 484.125 256.601 484.576 256.164C485.035 255.727 485.264 255.147 485.264 254.424V253.436ZM500.66 259L500.22 257.464H500.048C499.697 258.022 499.199 258.456 498.555 258.764C497.91 259.064 497.176 259.215 496.353 259.215C494.942 259.215 493.878 258.839 493.162 258.087C492.446 257.328 492.088 256.239 492.088 254.821V246.99H495.364V254.005C495.364 254.871 495.518 255.523 495.826 255.96C496.134 256.39 496.625 256.604 497.298 256.604C498.215 256.604 498.877 256.3 499.285 255.691C499.693 255.076 499.897 254.059 499.897 252.641V246.99H503.174V259H500.66ZM510.138 259H506.861V242.285H510.138V259ZM518.896 256.604C519.468 256.604 520.156 256.479 520.958 256.229V258.667C520.142 259.032 519.139 259.215 517.95 259.215C516.64 259.215 515.684 258.885 515.082 258.227C514.488 257.561 514.19 256.565 514.19 255.24V249.45H512.622V248.064L514.427 246.969L515.372 244.434H517.467V246.99H520.829V249.45H517.467V255.24C517.467 255.706 517.596 256.049 517.854 256.271C518.118 256.493 518.466 256.604 518.896 256.604Z" fill="#0063A3"/>
</g>
</g>
<defs>
<clipPath id="clip0_259_59990">
<rect width="960" height="312" fill="white"/>
</clipPath>
<clipPath id="clip1_259_59990">
<rect width="960" height="136" fill="white"/>
</clipPath>
<clipPath id="clip2_259_59990">
<rect width="960" height="160" fill="white" transform="translate(0 152)"/>
</clipPath>
</defs>
</svg>
