<svg fill="none" height="124" viewBox="0 0 960 124" width="960" xmlns="http://www.w3.org/2000/svg" xmlns:xlink="http://www.w3.org/1999/xlink"><clipPath id="a"><path d="m0 0h960v124h-960z"/></clipPath><clipPath id="b"><path d="m330.5 52h20v20h-20z"/></clipPath><g clip-path="url(#a)"><path d="m0 0h960v124h-960z" fill="#f1f1f6"/><path d="m0 0h388v44h-388z" fill="#fff" transform="translate(286 40)"/><rect fill="#dcedf9" height="28" rx="14" width="93" x="294" y="48"/><g clip-path="url(#b)"><path d="m340.5 53.6665c-4.6 0-8.333 3.7333-8.333 8.3333s3.733 8.3334 8.333 8.3334 8.334-3.7334 8.334-8.3334-3.734-8.3333-8.334-8.3333zm0 3.3333c1.725 0 3.125 1.4 3.125 3.125s-1.4 3.125-3.125 3.125-3.125-1.4-3.125-3.125 1.4-3.125 3.125-3.125zm0 11.6667c-2.366 0-4.45-1.25-5.633-3.1167.108-.0583.225-.1166.358-.175 1.017-.4666 2.892-1.1416 5.275-1.1416 2.392 0 4.267.675 5.275 1.1416.134.0584.25.125.359.1834-1.184 1.8666-3.259 3.1083-5.634 3.1083z" fill="#0063a3"/></g><g fill="#0063a3"><path d="m431 57.0002 1.667 1.6666h8.333c.458 0 .833-.375.833-.8333s-.375-.8333-.833-.8333h-7.5l-1.425-1.425c-.158-.1584-.367-.2417-.592-.2417h-4.658c-.917 0-1.667.75-1.667 1.6667v10c0 .9166.75 1.6666 1.667 1.6666h12.058c.809 0 1.5-.5833 1.642-1.375l.05-.2916.908-5.125c.184-1.0167-.608-1.9584-1.641-1.9584h-10.359c-.808 0-1.5.5834-1.641 1.375l-1.009 5.7084v-10z"/><path clip-rule="evenodd" d="m521.5 58.3823c0-2.584 2.132-4.7158 4.716-4.7158s4.651 2.0672 4.716 4.7158c0 2.0672-1.422 3.8759-3.295 4.4573l-.646 3.23-.775 4.2636-.775-4.2636-.646-3.23c-1.938-.5814-3.295-2.3901-3.295-4.4573zm6.848-.0647c0 1.1773-.955 2.1318-2.132 2.1318-1.178 0-2.132-.9545-2.132-2.1318 0-1.1774.954-2.1318 2.132-2.1318 1.177 0 2.132.9544 2.132 2.1318z" fill-rule="evenodd"/><path d="m625.592 61.9832c0-.2667-.025-.525-.059-.7834l1.392-1.1166c.325-.2584.408-.7167.2-1.0667l-.625-1.0667-.617-1.075c-.208-.3583-.641-.5083-1.025-.3583l-1.641.6417c-.417-.325-.884-.6-1.375-.8084l-.267-1.725c-.058-.4083-.417-.7083-.825-.7083h-1.242-1.241c-.417 0-.767.3-.825.7083l-.259 1.7084c-.508.2083-.983.4833-1.408.8166l-1.608-.6333c-.384-.15-.825 0-1.025.3583l-.617 1.075-.625 1.0667c-.208.3583-.125.8083.2 1.0667l1.35 1.0833c-.033.2667-.058.5417-.058.8167s.025.5666.066.8416l-1.35 1.0834c-.325.2583-.408.7166-.2 1.0666l.625 1.0667.617 1.075c.208.3583.642.5083 1.025.3583l1.633-.6416c.425.3166.884.5916 1.384.7916l.266 1.7417c.059.4083.417.7083.825.7083h1.242 1.242c.416 0 .766-.3.825-.7083l.266-1.7583c.484-.2.934-.475 1.35-.7834l1.667.65c.383.15.825 0 1.025-.3583l.617-1.075.625-1.0667c.208-.3583.125-.8083-.2-1.0666l-1.392-1.1167c.033-.2667.058-.5333.058-.8083zm-5.517 2.8833c-2.058.3917-3.825-1.375-3.433-3.4333.216-1.1417 1.15-2.075 2.291-2.2917 2.059-.3917 3.825 1.375 3.434 3.4333-.217 1.1417-1.15 2.075-2.292 2.2917z"/></g></g></svg>