<svg fill="none" height="120" viewBox="0 0 958 120" width="958" xmlns="http://www.w3.org/2000/svg"><g fill="#252a2e"><path d="m958 0h-238v120h238z"/><path d="m718 0h-238v120h238z"/><path d="m478 0h-238v120h238z"/><path d="m238 0h-238v120h238z"/></g><path d="m162 48h-96c-2.2091 0-4 1.7909-4 4v24c0 2.2091 1.7909 4 4 4h96c2.209 0 4-1.7909 4-4v-24c0-2.2091-1.791-4-4-4z" fill="#019aeb"/><path d="m81.5674 69h-1.5996l-2.1563-3.5098-2.1679 3.5098h-1.5059l2.8477-4.4414-2.6543-4.125h1.5527l1.9922 3.2461 1.9804-3.2461h1.5059l-2.666 4.166zm6.0996-2.332c0 .5078-.125.9453-.375 1.3125-.2461.3672-.6016.6484-1.0664.8437-.461.1953-1.0117.293-1.6524.293-.3125 0-.6113-.0176-.8964-.0527-.2852-.0352-.5547-.086-.8086-.1524-.25-.0703-.4786-.1543-.6856-.2519v-1.3243c.3477.1524.7363.2911 1.166.4161.4297.121.8672.1816 1.3125.1816.3633 0 .6641-.0469.9024-.1406.2422-.0977.4219-.2344.539-.4102.1172-.1797.1758-.3887.1758-.6269 0-.2539-.0683-.4688-.2051-.6446-.1367-.1758-.3437-.3359-.6211-.4804-.2734-.1485-.6171-.3067-1.0312-.4747-.2813-.1132-.5508-.2421-.8086-.3867-.2539-.1445-.4805-.3144-.6797-.5097s-.3574-.4258-.4746-.6914c-.1133-.2696-.1699-.586-.1699-.9493 0-.4843.1152-.8984.3457-1.2421.2344-.3438.5625-.6075.9844-.7911.4257-.1836.9218-.2754 1.4882-.2754.4493 0 .8711.0469 1.2657.1407.3984.0937.789.2265 1.1718.3984l-.4453 1.1309c-.3515-.1446-.6933-.2598-1.0254-.3457-.3281-.086-.664-.1289-1.0078-.1289-.2968 0-.5488.0449-.7558.1347-.2071.0899-.3653.2168-.4746.3809-.1055.1601-.1582.3515-.1582.5742 0 .25.0605.4609.1816.6328.125.168.3164.3223.5742.4629.2617.1406.5977.2969 1.0078.4688.4727.1953.8731.4003 1.2012.6152.332.2148.5859.4726.7617.7734.1758.2969.2637.67.2637 1.1192zm8.8418-4.2774c.7266 0 1.2734.1875 1.6406.5625.3711.375.5567.9766.5567 1.8047v4.2422h-1.377v-3.9961c0-.4922-.0957-.8633-.2871-1.1133s-.4824-.375-.8731-.375c-.5468 0-.9414.1758-1.1835.5274-.2383.3476-.3575.8535-.3575 1.5175v3.4395h-1.3769v-3.9961c0-.3281-.043-.6016-.1289-.8203-.0821-.2227-.209-.3887-.3809-.4981-.1719-.1132-.3887-.1699-.6504-.1699-.3789 0-.6816.086-.9082.2578-.2226.1719-.3828.4258-.4805.7618-.0976.332-.1464.7402-.1464 1.2246v3.2402h-1.377v-6.4863h1.0723l.1933.873h.0762c.1328-.2265.2969-.4121.4922-.5566.1992-.1485.4199-.2578.6621-.3281.2422-.0743.4941-.1114.7559-.1114.4843 0 .8925.086 1.2246.2578.332.168.5801.4258.7441.7735h.1055c.2031-.3516.4863-.6114.8496-.7793.3633-.168.748-.252 1.1543-.252zm6.6622 0c.82 0 1.439.1817 1.857.5449.422.3633.633.9297.633 1.6993v4.3652h-.978l-.264-.9199h-.047c-.184.2344-.373.4277-.568.5801-.196.1523-.422.2656-.68.3398-.254.0781-.564.1172-.932.1172-.386 0-.732-.0703-1.037-.211-.304-.1445-.545-.3632-.72-.6562-.176-.293-.264-.6641-.264-1.1133 0-.6679.248-1.1699.744-1.5058.5-.336 1.254-.5215 2.262-.5567l1.125-.041v-.3398c0-.4493-.106-.7696-.317-.961-.207-.1914-.5-.2871-.879-.2871-.324 0-.638.0469-.943.1406-.305.0938-.601.209-.891.3457l-.445-.9726c.317-.168.676-.3047 1.078-.4102.407-.1054.828-.1582 1.266-.1582zm1.125 3.5098-.838.0293c-.687.0234-1.17.1406-1.447.3515-.278.211-.416.5-.416.8672 0 .3204.095.5547.287.7032.191.1445.443.2168.756.2168.476 0 .871-.1348 1.183-.4043.317-.2735.475-.6739.475-1.2012zm4.676 3.0996h-1.383v-9.1172h1.383zm3.351 0h-1.383v-9.1172h1.383zm4.582-3.2871c0-.6563.063-1.2969.188-1.9219.129-.625.324-1.2207.586-1.7871.261-.5664.592-1.0898.99-1.5703h1.201c-.558.7461-.98 1.5723-1.266 2.4785-.281.9063-.421 1.8359-.421 2.7891 0 .6211.062 1.2363.187 1.8457.125.6093.313 1.1953.563 1.7578.25.5664.558 1.0976.925 1.5937h-1.189c-.398-.4687-.729-.9804-.99-1.5351-.262-.5547-.457-1.1406-.586-1.7578-.125-.6172-.188-1.2481-.188-1.8926zm9.34-3.3223c0 .3867-.078.7227-.234 1.0078-.157.2852-.371.5196-.645.7032-.269.1796-.582.3086-.937.3867v.041c.683.0859 1.199.3008 1.547.6445.351.3438.527.7989.527 1.3653 0 .4961-.119.9394-.357 1.33-.239.3868-.604.6914-1.096.9141s-1.125.334-1.899.334c-.464 0-.896-.0371-1.295-.1113-.394-.0743-.769-.1934-1.125-.3575v-1.2246c.364.1797.75.3184 1.161.416.41.0977.798.1465 1.166.1465.714 0 1.224-.1328 1.529-.3984.305-.2695.457-.6406.457-1.1133 0-.3047-.08-.5547-.24-.75-.157-.1953-.401-.3418-.733-.4394-.328-.0977-.752-.1465-1.271-.1465h-.756v-1.1075h.762c.496 0 .894-.0585 1.195-.1757.301-.1211.518-.2871.65-.4981.137-.2109.205-.457.205-.7383 0-.3671-.119-.6523-.357-.8554-.238-.2071-.592-.3106-1.061-.3106-.289 0-.552.0332-.791.0996-.234.0664-.451.1504-.65.252-.199.1015-.389.2109-.568.3281l-.662-.9551c.324-.2422.711-.4472 1.16-.6152s.972-.252 1.57-.252c.879 0 1.557.1895 2.033.5684.477.375.715.8789.715 1.5117zm7.195 6.6094h-5.8v-1.0371l2.22-2.25c.43-.4375.784-.8145 1.061-1.1309.277-.3203.482-.623.615-.9082.137-.2851.205-.5957.205-.9316 0-.4141-.119-.7266-.357-.9375-.238-.2149-.553-.3223-.944-.3223-.371 0-.714.0742-1.031.2227-.312.1445-.637.3515-.972.6211l-.756-.9082c.238-.2032.492-.3887.761-.5567.274-.1679.579-.3008.914-.3984.336-.1016.719-.1524 1.149-.1524.543 0 1.012.0977 1.406.293.395.1914.697.459.908.8027.215.3438.323.7442.323 1.2012 0 .461-.092.8867-.276 1.2774-.183.3906-.445.7773-.785 1.1601-.34.3789-.744.791-1.213 1.2363l-1.482 1.4473v.0645h4.054zm4.84-6.6094c.77 0 1.387.2813 1.852.8438.469.5625.703 1.3984.703 2.5078 0 .7344-.109 1.3535-.328 1.8574-.215.5-.518.8789-.908 1.1367-.387.2539-.838.3809-1.354.3809-.328 0-.613-.043-.855-.1289-.243-.086-.45-.1973-.621-.334-.172-.1406-.317-.293-.434-.457h-.082c.019.1562.037.33.053.5215.019.1874.029.3593.029.5156v2.6426h-1.383v-9.3633h1.125l.194.8965h.064c.121-.1836.268-.3536.439-.5098.176-.1563.387-.2793.633-.3692.25-.0937.541-.1406.873-.1406zm-.369 1.125c-.379 0-.683.0762-.914.2285-.226.1485-.393.3731-.498.6739-.102.3008-.156.6777-.164 1.1308v.1934c0 .4805.049.8887.146 1.2246.102.332.268.5859.498.7617.235.1719.551.2578.95.2578.336 0 .613-.0918.832-.2754.222-.1836.388-.4453.498-.7851.109-.3399.164-.7403.164-1.2012 0-.6992-.125-1.2422-.375-1.6289-.246-.3867-.625-.5801-1.137-.5801zm5.953 2.168-2.168-3.1699h1.571l1.482 2.2793 1.488-2.2793h1.565l-2.18 3.1699 2.291 3.3164h-1.576l-1.588-2.4316-1.594 2.4316h-1.564zm7.512.0234c0 .6485-.063 1.2813-.188 1.8985s-.318 1.2031-.58 1.7578c-.257.5547-.589 1.0664-.996 1.5351h-1.183c.367-.4961.675-1.0273.925-1.5937s.438-1.1543.563-1.7637.187-1.2246.187-1.8457c0-.6328-.064-1.2578-.193-1.875-.125-.6172-.312-1.2109-.562-1.7812-.25-.5743-.561-1.1094-.932-1.6055h1.195c.407.4805.739 1.0039.996 1.5703.262.5664.455 1.1621.58 1.7871.125.6211.188 1.2598.188 1.916z" fill="#fff"/><path d="m408 43h-100c-2.209 0-4 1.7909-4 4v32c0 2.2091 1.791 4 4 4h100c2.209 0 4-1.7909 4-4v-32c0-2.2091-1.791-4-4-4z" fill="#019aeb"/><path d="m327.683 66.2793c0 .5924-.146 1.1029-.437 1.5312-.288.4284-.702.7566-1.245.9844-.537.2279-1.18.3418-1.927.3418-.365 0-.713-.0205-1.046-.0615s-.647-.1003-.944-.1777c-.291-.0821-.558-.1801-.799-.294v-1.5449c.405.1777.859.3395 1.36.4853.501.1413 1.012.212 1.531.212.424 0 .775-.0547 1.053-.1641.283-.1139.492-.2734.629-.4785.137-.2097.205-.4535.205-.7315 0-.2962-.08-.5468-.239-.7519-.16-.2051-.401-.3919-.725-.5606-.319-.1731-.72-.3577-1.203-.5537-.328-.1321-.643-.2825-.943-.4511-.297-.1687-.561-.3669-.793-.5948-.233-.2278-.417-.4967-.554-.8066-.132-.3145-.198-.6836-.198-1.1074 0-.5651.134-1.0482.403-1.4493.273-.401.656-.7086 1.148-.9228.497-.2142 1.076-.3213 1.737-.3213.524 0 1.016.0547 1.476.1641.465.1093.921.2643 1.368.4648l-.52 1.3193c-.41-.1686-.809-.303-1.196-.4033-.383-.1002-.775-.1504-1.176-.1504-.346 0-.64.0524-.882.1573-.241.1048-.426.2529-.554.4443-.123.1868-.184.4102-.184.6699 0 .2917.07.5378.212.7383.146.196.369.376.67.54.305.1641.697.3464 1.175.5469.552.2279 1.019.4671 1.402.7178.387.2506.683.5514.888.9023.206.3464.308.7816.308 1.3057zm10.316-4.9902c.847 0 1.485.2187 1.914.6562.433.4375.649 1.1393.649 2.1055v4.9492h-1.606v-4.6621c0-.5742-.112-1.0072-.335-1.2988-.224-.2917-.563-.4375-1.019-.4375-.638 0-1.098.205-1.381.6152-.278.4056-.417.9958-.417 1.7705v4.0127h-1.606v-4.6621c0-.3828-.05-.7018-.151-.957-.095-.2598-.243-.4535-.444-.5811-.2-.1322-.453-.1982-.759-.1982-.442 0-.795.1002-1.059.3007-.26.2006-.447.4968-.561.8887-.114.3874-.171.8636-.171 1.4287v3.7803h-1.606v-7.5674h1.251l.225 1.0186h.089c.155-.2644.347-.4808.574-.6494.233-.1732.49-.3008.773-.3829.282-.0865.576-.1298.882-.1298.565 0 1.041.1002 1.428.3007.388.196.677.4968.869.9024h.123c.237-.4102.567-.7132.991-.9092s.873-.2939 1.347-.2939zm7.772 0c.957 0 1.679.2119 2.167.6357.492.4238.738 1.0846.738 1.9824v5.0928h-1.141l-.308-1.0732h-.055c-.214.2734-.435.499-.663.6767s-.492.3099-.793.3965c-.296.0911-.658.1367-1.087.1367-.451 0-.854-.082-1.21-.2461-.355-.1686-.635-.4238-.84-.7656s-.308-.7747-.308-1.2988c0-.7793.289-1.3649.868-1.7569.583-.3919 1.463-.6084 2.639-.6494l1.312-.0478v-.3965c0-.5241-.123-.8978-.369-1.1211-.241-.2233-.583-.335-1.025-.335-.378 0-.745.0547-1.101.1641-.355.1094-.702.2438-1.039.4033l-.519-1.1348c.369-.1959.788-.3554 1.257-.4785.474-.123.967-.1845 1.477-.1845zm1.312 4.0947-.977.0342c-.802.0273-1.365.164-1.689.4101-.323.2461-.485.5834-.485 1.0117 0 .3737.112.6472.335.8204.223.1686.517.2529.882.2529.556 0 1.016-.1572 1.381-.4717.369-.319.553-.7861.553-1.4014zm5.456 3.6162h-1.614v-10.6367h1.614zm3.91 0h-1.614v-10.6367h1.614zm12.544-2.1943h-1.354v2.1943h-1.586v-2.1943h-4.546v-1.2168l4.567-6.6104h1.565v6.4942h1.354zm-2.94-1.333v-2.4815c0-.2051.003-.4124.007-.6221.009-.2142.018-.4192.027-.6152.01-.196.019-.376.028-.54.009-.1687.016-.3077.02-.417h-.054c-.087.1823-.183.3691-.288.5605-.104.1869-.216.3692-.335.5469l-2.46 3.5684zm10.589-1.4766c0 .8066-.064 1.529-.191 2.167-.123.6334-.319 1.1712-.588 1.6133-.269.442-.62.7793-1.053 1.0117s-.957.3486-1.572.3486c-.77 0-1.406-.2028-1.907-.6084-.502-.4101-.873-.998-1.115-1.7637-.241-.7701-.362-1.693-.362-2.7685s.109-1.9961.328-2.7617c.223-.7702.583-1.3604 1.08-1.7705.497-.4102 1.155-.6153 1.976-.6153.775 0 1.413.2051 1.914.6153.506.4056.879.9935 1.121 1.7636.246.7657.369 1.6885.369 2.7686zm-5.168 0c0 .8431.055 1.5472.164 2.1123.114.5651.301.9889.561 1.2715.259.278.606.417 1.039.417s.779-.139 1.039-.417.446-.6996.56-1.2647c.119-.5651.178-1.2714.178-2.1191 0-.8385-.057-1.5404-.171-2.1055s-.301-.9889-.56-1.2715c-.26-.2871-.609-.4306-1.046-.4306-.438 0-.786.1435-1.046.4306-.255.2826-.44.7064-.554 1.2715-.109.5651-.164 1.267-.164 2.1055zm10.815-2.707c.897 0 1.617.3281 2.16.9843.547.6563.82 1.6315.82 2.9258 0 .8568-.128 1.5791-.383 2.167-.25.5833-.604 1.0254-1.059 1.3262-.452.2962-.978.4443-1.579.4443-.383 0-.716-.0501-.998-.1504-.283-.1002-.525-.2301-.725-.3896-.201-.1641-.369-.3418-.506-.5332h-.096c.023.1823.044.3851.062.6084.023.2187.034.4192.034.6015v3.083h-1.613v-10.9238h1.312l.226 1.0459h.075c.141-.2142.312-.4124.513-.5947.205-.1823.451-.3259.738-.4307.292-.1093.631-.164 1.019-.164zm-.431 1.3125c-.442 0-.798.0888-1.066.2666-.265.1731-.459.4352-.582.7861-.118.3509-.182.7907-.191 1.3193v.2256c0 .5606.057 1.0368.171 1.4287.118.3874.312.6836.581.8887.273.2005.643.3008 1.107.3008.392 0 .716-.1071.971-.3213.26-.2142.454-.5195.581-.916.128-.3965.192-.8636.192-1.4014 0-.8157-.146-1.4492-.438-1.9004-.287-.4512-.729-.6767-1.326-.6767zm6.945 2.5293-2.529-3.6983h1.832l1.729 2.6592 1.737-2.6592h1.825l-2.543 3.6983 2.673 3.8691h-1.839l-1.853-2.8369-1.859 2.8369h-1.825z" fill="#fff"/><path d="m670 39h-152c-2.209 0-4 1.7909-4 4v40c0 2.2091 1.791 4 4 4h152c2.209 0 4-1.7909 4-4v-40c0-2.2091-1.791-4-4-4z" fill="#019aeb"/><path d="m549.121 64.1797c0 1.2864-.239 2.362-.718 3.2265-.48.8594-1.175 1.5079-2.086 1.9454-.912.4323-2.011.6484-3.297.6484h-3.172v-11.4219h3.516c1.182 0 2.203.2136 3.062.6407.859.4218 1.523 1.0494 1.992 1.8828.469.8281.703 1.8541.703 3.0781zm-1.953.0547c0-.9375-.148-1.7084-.445-2.3125-.292-.6042-.724-1.0521-1.297-1.3438-.568-.2969-1.268-.4453-2.102-.4453h-1.601v8.2969h1.328c1.38 0 2.411-.3516 3.094-1.0547.682-.7031 1.023-1.75 1.023-3.1406zm7.672-3.0469c.771 0 1.432.1589 1.984.4766.553.3177.977.7682 1.274 1.3515.297.5834.445 1.2813.445 2.0938v.9844h-5.773c.021.8385.245 1.4843.672 1.9374.432.4532 1.036.6797 1.812.6797.552 0 1.047-.052 1.485-.1562.442-.1094.898-.2682 1.367-.4766v1.4922c-.433.2031-.873.3516-1.321.4453-.448.0938-.984.1406-1.609.1406-.849 0-1.596-.164-2.242-.4921-.641-.3334-1.143-.8282-1.508-1.4844-.359-.6563-.539-1.4714-.539-2.4453 0-.9688.164-1.7917.492-2.4688s.789-1.1927 1.383-1.5468c.594-.3542 1.286-.5313 2.078-.5313zm0 1.3828c-.578 0-1.047.1875-1.406.5625-.354.375-.563.9245-.625 1.6484h3.937c-.005-.4322-.078-.8151-.218-1.1484-.136-.3333-.344-.5937-.625-.7812-.276-.1875-.631-.2813-1.063-.2813zm10.094.1797h-2.102v7.25h-1.836v-7.25h-1.414v-.8828l1.414-.5391v-.6015c0-.7344.115-1.3177.344-1.75.234-.4323.568-.7422 1-.9297.438-.1927.958-.2891 1.563-.2891.395 0 .757.0339 1.086.1016.328.0625.604.1354.828.2187l-.477 1.3907c-.177-.0573-.375-.1094-.594-.1563-.218-.0521-.453-.0781-.703-.0781-.416 0-.724.1302-.922.3906-.192.2604-.289.6406-.289 1.1406v.586h2.102zm4.867-1.5625c1.094 0 1.919.2422 2.477.7266.562.4843.843 1.2395.843 2.2656v5.8203h-1.304l-.352-1.2266h-.062c-.245.3125-.498.5704-.758.7735-.261.2031-.563.3541-.906.4531-.339.1042-.753.1562-1.243.1562-.515 0-.976-.0937-1.382-.2812-.407-.1927-.727-.4844-.961-.875-.235-.3906-.352-.8854-.352-1.4844 0-.8906.331-1.5599.992-2.0078.667-.4479 1.672-.6953 3.016-.7422l1.5-.0547v-.4531c0-.5989-.141-1.026-.422-1.2812-.276-.2552-.667-.3828-1.172-.3828-.432 0-.851.0624-1.258.1874-.406.125-.802.2787-1.187.461l-.594-1.2969c.422-.2239.901-.4062 1.438-.5469.541-.1406 1.104-.2109 1.687-.2109zm1.5 4.6797-1.117.039c-.917.0313-1.56.1876-1.93.4688s-.555.6667-.555 1.1562c0 .4271.128.7396.383.9376.255.1927.591.289 1.008.289.636 0 1.162-.1797 1.578-.539.422-.3646.633-.8985.633-1.6016zm11.93-4.5156v8.6484h-1.446l-.25-1.1641h-.101c-.182.2969-.414.5443-.695.7422-.282.1927-.594.336-.938.4297-.344.099-.706.1484-1.086.1484-.651 0-1.208-.1093-1.672-.3281-.458-.2239-.81-.5677-1.054-1.0312-.245-.4636-.368-1.0625-.368-1.7969v-5.6484h1.844v5.3046c0 .6719.136 1.1745.406 1.5079.276.3333.703.5 1.282.5.557 0 1-.1146 1.328-.3438s.56-.5677.695-1.0156c.141-.4479.211-.9974.211-1.6485v-4.3046zm4.476 8.6484h-1.843v-12.1562h1.843zm5.844-1.3281c.24 0 .477-.0209.711-.0625.234-.0469.448-.1016.641-.1641v1.3906c-.204.0886-.467.1641-.789.2266-.323.0625-.659.0937-1.008.0937-.49 0-.93-.0807-1.321-.2421-.39-.1667-.7-.4506-.929-.8516s-.344-.9557-.344-1.6641v-4.6484h-1.18v-.8203l1.266-.6485.601-1.8515h1.157v1.9219h2.476v1.3984h-2.476v4.625c0 .4375.109.763.328.9766.219.2135.508.3203.867.3203zm6.594-3.0547c0-.875.083-1.7292.25-2.5625.172-.8333.432-1.6276.781-2.3828s.789-1.4531 1.32-2.0938h1.602c-.745.9948-1.307 2.0964-1.688 3.3047-.375 1.2083-.562 2.4479-.562 3.7188 0 .8281.083 1.6484.25 2.4609s.417 1.5937.75 2.3437c.333.7553.745 1.4636 1.234 2.125h-1.586c-.531-.625-.971-1.3072-1.32-2.0468s-.609-1.5209-.781-2.3438c-.167-.8229-.25-1.664-.25-2.5234zm13.304 1.875h-1.546v2.5078h-1.813v-2.5078h-5.195v-1.3906l5.219-7.5547h1.789v7.4219h1.546zm-3.359-1.5234v-2.836c0-.2344.003-.4713.008-.7109.01-.2448.021-.4792.031-.7031.011-.224.021-.4297.031-.6172.011-.1927.019-.3516.024-.4766h-.063c-.099.2083-.208.4219-.328.6406-.12.2136-.247.4219-.383.625l-2.812 4.0782zm8.219-7.5469c.661 0 1.258.1041 1.789.3125.531.2031.953.5078 1.266.914.312.4063.468.9089.468 1.5078 0 .4636-.096.8672-.289 1.211-.187.3437-.442.6458-.765.9062-.323.2552-.685.4818-1.086.6797.448.2188.859.4714 1.234.7578.38.2813.685.612.914.9922.234.3802.352.8255.352 1.336 0 .6406-.164 1.1953-.493 1.664-.322.4636-.773.8229-1.351 1.0781-.578.25-1.253.375-2.024.375-.828 0-1.533-.1223-2.117-.3671-.583-.2448-1.026-.5938-1.328-1.0469-.302-.4583-.453-1.0052-.453-1.6406 0-.5261.104-.9818.313-1.3672.208-.3854.487-.7188.835-1 .355-.2813.743-.5183 1.165-.711-.36-.2135-.688-.4531-.985-.7187-.297-.2708-.534-.5807-.711-.9297-.172-.3542-.258-.763-.258-1.2266 0-.5937.159-1.0911.477-1.4922.318-.4062.742-.7135 1.273-.9218.537-.2084 1.128-.3125 1.774-.3125zm-2.133 8.6093c0 .5.177.9115.531 1.2344s.883.4844 1.586.4844c.698 0 1.229-.1589 1.594-.4766s.547-.7369.547-1.2578c0-.3333-.094-.6276-.281-.8828-.183-.2552-.43-.4818-.743-.6797-.307-.2031-.648-.3906-1.023-.5625l-.25-.1015c-.406.1718-.755.3671-1.047.5859-.292.2135-.518.4557-.68.7266-.156.2708-.234.5807-.234.9296zm2.117-7.1953c-.505 0-.922.125-1.25.375-.323.2448-.484.599-.484 1.0625 0 .3282.078.6094.234.8438.162.2344.378.4375.649.6094.27.1666.57.3229.898.4687.318-.1406.604-.2943.859-.4609.261-.1719.467-.375.618-.6094.156-.2396.234-.526.234-.8594 0-.4583-.164-.8099-.492-1.0547-.323-.25-.745-.375-1.266-.375zm10.352 1.3516c1.026 0 1.849.375 2.469 1.125.625.75.937 1.8646.937 3.3437 0 .9792-.146 1.8047-.437 2.4766-.287.6667-.691 1.1719-1.211 1.5156-.516.3386-1.118.5078-1.805.5078-.438 0-.818-.0572-1.141-.1718s-.599-.263-.828-.4453c-.229-.1875-.422-.3907-.578-.6094h-.109c.026.2083.049.4401.07.6953.026.25.039.4792.039.6875v3.5234h-1.844v-12.4843h1.5l.258 1.1953h.086c.161-.2448.357-.4714.586-.6797.234-.2083.516-.3724.844-.4922.333-.125.721-.1875 1.164-.1875zm-.492 1.5c-.506 0-.912.1016-1.219.3047-.302.1979-.524.4974-.664.8984-.136.4011-.209.9037-.219 1.5078v.2578c0 .6407.065 1.1849.195 1.6329.136.4427.357.7812.664 1.0156.313.2292.735.3437 1.266.3437.448 0 .818-.1224 1.109-.3672.297-.2447.519-.5937.664-1.0468.146-.4532.219-.987.219-1.6016 0-.9323-.166-1.6562-.5-2.1719-.328-.5156-.833-.7734-1.515-.7734zm7.937 2.8906-2.891-4.2265h2.094l1.977 3.039 1.984-3.039h2.086l-2.906 4.2265 3.055 4.4219h-2.102l-2.117-3.2422-2.125 3.2422h-2.086zm10.016.0313c0 .8646-.084 1.7083-.25 2.5312-.167.8229-.425 1.6042-.774 2.3438-.343.7396-.786 1.4218-1.328 2.0468h-1.578c.49-.6614.901-1.3697 1.234-2.125.334-.7552.584-1.539.75-2.3515.167-.8125.25-1.6328.25-2.4609 0-.8438-.086-1.6771-.257-2.5-.167-.823-.417-1.6146-.75-2.375-.334-.7657-.748-1.4792-1.243-2.1407h1.594c.542.6407.985 1.3386 1.328 2.0938.349.7552.607 1.5495.774 2.3828.166.8281.25 1.6797.25 2.5547z" fill="#fff"/><path d="m904 35h-138c-2.209 0-4 1.7909-4 4v48c0 2.2091 1.791 4 4 4h138c2.209 0 4-1.7909 4-4v-48c0-2.2091-1.791-4-4-4z" fill="#019aeb"/><path d="m788.174 70v-11.4219h1.875v9.8281h4.852v1.5938zm11.906-8.8125c1.094 0 1.92.2422 2.477.7266.562.4843.844 1.2395.844 2.2656v5.8203h-1.305l-.352-1.2266h-.062c-.245.3125-.498.5704-.758.7735s-.562.3541-.906.4531c-.339.1042-.753.1562-1.242.1562-.516 0-.977-.0937-1.383-.2812-.406-.1927-.727-.4844-.961-.875s-.352-.8854-.352-1.4844c0-.8906.331-1.5599.993-2.0078.666-.4479 1.671-.6953 3.015-.7422l1.5-.0547v-.4531c0-.5989-.14-1.026-.422-1.2812-.276-.2552-.666-.3828-1.172-.3828-.432 0-.851.0624-1.257.1874-.407.125-.803.2787-1.188.461l-.594-1.2969c.422-.2239.901-.4062 1.438-.5469.541-.1406 1.104-.2109 1.687-.2109zm1.5 4.6797-1.117.039c-.917.0313-1.56.1876-1.93.4688-.369.2812-.554.6667-.554 1.1562 0 .4271.127.7396.383.9376.255.1927.591.289 1.007.289.636 0 1.162-.1797 1.579-.539.421-.3646.632-.8985.632-1.6016zm8.774-4.6797c.146 0 .304.0078.476.0234.172.0157.321.0365.446.0625l-.172 1.7188c-.11-.0313-.245-.0547-.406-.0703-.157-.0157-.297-.0235-.422-.0235-.328 0-.641.0547-.938.1641-.297.1042-.56.2656-.789.4844-.229.2135-.409.4817-.539.8047-.13.3229-.195.6979-.195 1.125v4.5234h-1.844v-8.6484h1.437l.25 1.5234h.086c.172-.3073.386-.5885.641-.8438.255-.2552.547-.4583.875-.6093.333-.1563.698-.2344 1.094-.2344zm4.992 12.6563c-1.172 0-2.07-.211-2.695-.6329-.625-.4218-.938-1.013-.938-1.7734 0-.5313.167-.9818.5-1.3516.333-.3645.81-.6171 1.43-.7578-.235-.1041-.438-.2656-.61-.4843-.166-.224-.25-.4714-.25-.7422 0-.323.092-.599.274-.8282.182-.2291.456-.4505.82-.664-.453-.1927-.818-.5052-1.094-.9375-.27-.4375-.406-.9505-.406-1.5391 0-.625.133-1.1562.399-1.5937.265-.4427.653-.7787 1.164-1.0079.51-.2343 1.127-.3515 1.851-.3515.157 0 .326.0104.508.0312.188.0157.359.0365.516.0625.161.0209.284.0443.367.0704h2.992v1.0234l-1.469.2734c.141.1979.253.4245.336.6797.084.25.125.5235.125.8203 0 .8959-.31 1.6016-.929 2.1172-.615.5104-1.464.7656-2.547.7656-.261-.0104-.513-.0312-.758-.0625-.188.1146-.331.2422-.43.3829-.099.1354-.148.289-.148.4609 0 .1406.049.2552.148.3437.099.0834.245.1459.438.1875.198.0417.437.0625.718.0625h1.493c.948 0 1.672.2006 2.172.6016s.75.9896.75 1.7656c0 .9844-.407 1.7422-1.219 2.2735-.813.5364-1.982.8047-3.508.8047zm.07-1.2891c.641 0 1.18-.0625 1.617-.1875.438-.125.769-.3047.993-.5391.224-.2291.336-.5026.336-.8203 0-.2812-.071-.4974-.211-.6484-.141-.1511-.352-.2552-.633-.3125s-.63-.086-1.047-.086h-1.359c-.339 0-.638.0521-.899.1563-.26.1094-.463.2656-.609.4687-.141.2032-.211.448-.211.7344 0 .3958.174.7005.523.9141.354.2135.854.3203 1.5.3203zm.36-6.7344c.536 0 .935-.1458 1.195-.4375.26-.2969.391-.7135.391-1.25 0-.5833-.136-1.0208-.407-1.3125-.265-.2917-.661-.4375-1.187-.4375-.516 0-.909.1484-1.18.4453-.265.2969-.398.737-.398 1.3203 0 .5261.133.9375.398 1.2344.271.2917.667.4375 1.188.4375zm9.422-4.6328c.77 0 1.432.1589 1.984.4766s.976.7682 1.273 1.3515c.297.5834.446 1.2813.446 2.0938v.9844h-5.774c.021.8385.245 1.4843.672 1.9374.432.4532 1.037.6797 1.813.6797.552 0 1.046-.052 1.484-.1562.443-.1094.898-.2682 1.367-.4766v1.4922c-.432.2031-.872.3516-1.32.4453-.448.0938-.985.1406-1.61.1406-.849 0-1.596-.164-2.242-.4921-.64-.3334-1.143-.8282-1.508-1.4844-.359-.6563-.539-1.4714-.539-2.4453 0-.9688.164-1.7917.493-2.4688.328-.6771.789-1.1927 1.382-1.5468.594-.3542 1.287-.5313 2.079-.5313zm0 1.3828c-.579 0-1.047.1875-1.407.5625-.354.375-.562.9245-.625 1.6484h3.938c-.005-.4322-.078-.8151-.219-1.1484-.135-.3333-.344-.5937-.625-.7812-.276-.1875-.63-.2813-1.062-.2813zm9.257 3.0469c0-.875.084-1.7292.25-2.5625.172-.8333.433-1.6276.782-2.3828s.789-1.4531 1.32-2.0938h1.601c-.744.9948-1.307 2.0964-1.687 3.3047-.375 1.2083-.563 2.4479-.563 3.7188 0 .8281.084 1.6484.25 2.4609.167.8125.417 1.5937.75 2.3437.334.7553.745 1.4636 1.235 2.125h-1.586c-.531-.625-.971-1.3072-1.32-2.0468s-.61-1.5209-.782-2.3438c-.166-.8229-.25-1.664-.25-2.5234zm9.039-2.7578c.735 0 1.381.1328 1.938.3984.562.2604 1 .6458 1.312 1.1563.313.5052.469 1.125.469 1.8593 0 .8021-.169 1.4948-.508 2.0782-.338.5781-.836 1.0234-1.492 1.3359s-1.456.4687-2.398.4687c-.599 0-1.159-.052-1.68-.1562-.516-.1042-.961-.2604-1.336-.4688v-1.6562c.391.2188.859.3984 1.406.5391.547.1354 1.071.2031 1.571.2031.531 0 .987-.0781 1.367-.2344.38-.1562.672-.3958.875-.7187.208-.323.312-.7318.312-1.2266 0-.6563-.211-1.1615-.632-1.5156-.417-.3594-1.071-.5391-1.961-.5391-.313 0-.646.0287-1 .086-.349.052-.641.1093-.875.1718l-.805-.4765.43-5.586h5.937v1.6172h-4.32l-.25 2.8438c.187-.0417.411-.0808.672-.1172.26-.0417.583-.0625.968-.0625zm5.289 2.2734c0-.6719.047-1.3333.141-1.9844.099-.651.266-1.2604.5-1.8281s.557-1.0677.969-1.5c.416-.4323.94-.7708 1.57-1.0156.63-.25 1.388-.375 2.274-.375.229 0 .487.0104.773.0312.286.0209.523.0547.711.1016v1.5234c-.203-.0573-.427-.1015-.672-.1328-.24-.0312-.479-.0469-.719-.0469-.958 0-1.705.1823-2.242.5469-.536.3594-.919.8542-1.148 1.4844-.229.625-.362 1.3411-.399 2.1484h.094c.156-.2604.352-.4921.586-.6953.234-.2031.521-.3646.859-.4844.339-.125.732-.1874 1.18-.1874.667 0 1.247.1406 1.742.4218.495.2761.875.6771 1.141 1.2032.271.526.406 1.164.406 1.914 0 .8073-.154 1.5026-.461 2.086-.302.5833-.734 1.0312-1.297 1.3437-.557.3125-1.221.4687-1.992.4687-.568 0-1.096-.1041-1.586-.3124-.484-.2084-.909-.5209-1.273-.9376-.365-.4166-.649-.9374-.852-1.5624-.203-.6303-.305-1.3672-.305-2.211zm3.985 3.5078c.594 0 1.07-.1927 1.43-.5781.364-.3906.546-.987.546-1.7891 0-.651-.161-1.1666-.484-1.5468-.318-.3802-.797-.5704-1.437-.5704-.438 0-.821.0938-1.149.2813s-.583.4245-.766.7109c-.177.2865-.265.5782-.265.875 0 .3021.044.6068.133.9141.088.3073.221.5911.398.8516.177.2552.399.4609.664.6171.266.1563.576.2344.93.2344zm10.187-7.4531c1.026 0 1.849.375 2.469 1.125.625.75.938 1.8646.938 3.3437 0 .9792-.146 1.8047-.438 2.4766-.286.6667-.69 1.1719-1.211 1.5156-.515.3386-1.117.5078-1.805.5078-.437 0-.817-.0572-1.14-.1718s-.599-.263-.828-.4453c-.229-.1875-.422-.3907-.578-.6094h-.11c.026.2083.05.4401.071.6953.026.25.039.4792.039.6875v3.5234h-1.844v-12.4843h1.5l.258 1.1953h.086c.161-.2448.356-.4714.586-.6797.234-.2083.515-.3724.843-.4922.334-.125.722-.1875 1.164-.1875zm-.492 1.5c-.505 0-.911.1016-1.219.3047-.302.1979-.523.4974-.664.8984-.135.4011-.208.9037-.218 1.5078v.2578c0 .6407.065 1.1849.195 1.6329.135.4427.357.7812.664 1.0156.312.2292.734.3437 1.266.3437.447 0 .817-.1224 1.109-.3672.297-.2447.518-.5937.664-1.0468.146-.4532.219-.987.219-1.6016 0-.9323-.167-1.6562-.5-2.1719-.328-.5156-.834-.7734-1.516-.7734zm7.938 2.8906-2.891-4.2265h2.094l1.976 3.039 1.985-3.039h2.086l-2.907 4.2265 3.055 4.4219h-2.101l-2.118-3.2422-2.125 3.2422h-2.086zm10.015.0313c0 .8646-.083 1.7083-.25 2.5312-.166.8229-.424 1.6042-.773 2.3438-.344.7396-.787 1.4218-1.328 2.0468h-1.578c.489-.6614.901-1.3697 1.234-2.125.333-.7552.583-1.539.75-2.3515s.25-1.6328.25-2.4609c0-.8438-.086-1.6771-.258-2.5-.167-.823-.417-1.6146-.75-2.375-.333-.7657-.747-1.4792-1.242-2.1407h1.594c.541.6407.984 1.3386 1.328 2.0938.349.7552.607 1.5495.773 2.3828.167.8281.25 1.6797.25 2.5547z" fill="#fff"/></svg>