<svg fill="none" height="48" viewBox="0 0 87 48" width="87" xmlns="http://www.w3.org/2000/svg" xmlns:xlink="http://www.w3.org/1999/xlink"><clipPath id="a"><path d="m16 12h55v24h-55z"/></clipPath><rect fill="#6a6e79" height="48" rx="4" width="87"/><g clip-path="url(#a)"><path d="m17.8125 30v-11.4219h1.875v11.4219zm14.7266-8.8125c.9687 0 1.6979.25 2.1875.75.4948.5.7422 1.3021.7422 2.4063v5.6562h-1.836v-5.3281c0-.6563-.1276-1.1511-.3828-1.4844s-.6432-.5-1.1641-.5c-.7291 0-1.2552.2344-1.5781.7031-.3177.4636-.4766 1.138-.4766 2.0235v4.5859h-1.8359v-5.3281c0-.4375-.0573-.8021-.1719-1.0938-.1093-.2969-.2786-.5182-.5078-.664-.2291-.1511-.5182-.2266-.8672-.2266-.5052 0-.9088.1146-1.2109.3437-.2969.2292-.5104.5678-.6406 1.0157-.1302.4427-.1953.987-.1953 1.6328v4.3203h-1.836v-8.6484h1.4297l.2578 1.164h.1016c.1771-.3021.3958-.5495.6562-.7422.2657-.1979.5599-.3437.8829-.4375.3229-.0989.6588-.1484 1.0078-.1484.6458 0 1.1901.1146 1.6328.3437.4427.224.7734.5678.9922 1.0313h.1406c.2708-.4687.6484-.8151 1.1328-1.0391.4844-.2239.9974-.3359 1.5391-.3359zm10.1797 0c1.026 0 1.8489.375 2.4687 1.125.625.75.9375 1.8646.9375 3.3437 0 .9792-.1458 1.8047-.4375 2.4766-.2865.6667-.6901 1.1719-1.2109 1.5156-.5157.3386-1.1172.5078-1.8047.5078-.4375 0-.8177-.0572-1.1407-.1718-.3229-.1146-.5989-.263-.8281-.4453-.2291-.1875-.4219-.3907-.5781-.6094h-.1094c.0261.2083.0495.4401.0703.6953.0261.25.0391.4792.0391.6875v3.5234h-1.8438v-12.4843h1.5l.2579 1.1953h.0859c.1615-.2448.3568-.4714.5859-.6797.2344-.2083.5157-.3724.8438-.4922.3333-.125.7213-.1875 1.1641-.1875zm-.4922 1.5c-.5052 0-.9115.1016-1.2188.3047-.3021.1979-.5234.4974-.664.8984-.1355.4011-.2084.9037-.2188 1.5078v.2578c0 .6407.0651 1.1849.1953 1.6329.1354.4427.3568.7812.6641 1.0156.3125.2292.7344.3437 1.2656.3437.4479 0 .8177-.1224 1.1094-.3672.2968-.2447.5182-.5937.664-1.0468.1459-.4532.2188-.987.2188-1.6016 0-.9323-.1667-1.6562-.5-2.1719-.3281-.5156-.8333-.7734-1.5156-.7734zm13.9296 2.9687c0 .7188-.0937 1.3568-.2812 1.9141s-.4609 1.0287-.8203 1.4141c-.3594.3802-.7917.6718-1.2969.875-.5052.1979-1.0755.2968-1.7109.2968-.5938 0-1.138-.0989-1.6328-.2968-.4948-.2032-.9245-.4948-1.2891-.875-.3594-.3854-.638-.8568-.8359-1.4141-.198-.5573-.2969-1.1953-.2969-1.9141 0-.9531.164-1.7604.4922-2.4218.3333-.6667.8073-1.1745 1.4218-1.5235.6146-.3489 1.3464-.5234 2.1954-.5234.7968 0 1.5.1745 2.1093.5234.6094.349 1.086.8568 1.4297 1.5235.3438.6666.5156 1.4739.5156 2.4218zm-6.2734 0c0 .6303.0755 1.1693.2266 1.6172.1562.448.3958.7917.7187 1.0313.3229.2344.7396.3515 1.25.3515s.9271-.1171 1.25-.3515c.3229-.2396.5599-.5833.711-1.0313.151-.4479.2265-.9869.2265-1.6172 0-.6302-.0755-1.164-.2265-1.6015-.1511-.4427-.3881-.7787-.711-1.0078-.3229-.2344-.7422-.3516-1.2578-.3516-.7604 0-1.3151.2552-1.6641.7656-.3489.5105-.5234 1.2422-.5234 2.1953zm13.0156-4.4687c.1459 0 .3047.0078.4766.0234.1719.0157.3203.0365.4453.0625l-.1719 1.7188c-.1093-.0313-.2448-.0547-.4062-.0703-.1563-.0157-.2969-.0235-.4219-.0235-.3281 0-.6406.0547-.9375.1641-.2969.1042-.5599.2656-.789.4844-.2292.2135-.4089.4817-.5391.8047-.1302.3229-.1953.6979-.1953 1.125v4.5234h-1.8438v-8.6484h1.4375l.25 1.5234h.086c.1718-.3073.3854-.5885.6406-.8438.2552-.2552.5469-.4583.875-.6093.3333-.1563.6979-.2344 1.0937-.2344zm5.9922 7.4844c.2396 0 .4766-.0209.711-.0625.2343-.0469.4479-.1016.6406-.1641v1.3906c-.2031.0886-.4662.1641-.7891.2266s-.6588.0937-1.0078.0937c-.4896 0-.9297-.0807-1.3203-.2421-.3906-.1667-.7005-.4506-.9297-.8516s-.3437-.9557-.3437-1.6641v-4.6484h-1.1797v-.8203l1.2656-.6485.6016-1.8515h1.1562v1.9219h2.4766v1.3984h-2.4766v4.625c0 .4375.1094.763.3281.9766.2188.2135.5078.3203.8672.3203z" fill="#fff"/></g></svg>