<svg fill="none" height="48" viewBox="0 0 117 48" width="117" xmlns="http://www.w3.org/2000/svg" xmlns:xlink="http://www.w3.org/1999/xlink"><clipPath id="a"><path d="m16 12h85v24h-85z"/></clipPath><rect fill="#353a40" height="48" rx="4" width="117"/><g clip-path="url(#a)" fill="#fff"><path d="m34.3 17.7102c-.0925-.0927-.2024-.1662-.3234-.2164s-.2507-.076-.3816-.076c-.131 0-.2607.0258-.3816.076-.121.0502-.2309.1237-.3234.2164l-4.89 4.88-4.89-4.89c-.0926-.0926-.2025-.166-.3235-.2161-.1209-.0501-.2506-.0759-.3815-.0759-.131 0-.2606.0258-.3816.0759-.1209.0501-.2308.1235-.3234.2161s-.166.2025-.2161.3235c-.0502.1209-.0759.2506-.0759.3815 0 .131.0257.2606.0759.3816.0501.1209.1235.2308.2161.3234l4.89 4.89-4.89 4.89c-.0926.0926-.166.2025-.2161.3235-.0502.1209-.0759.2506-.0759.3815 0 .131.0257.2606.0759.3816.0501.1209.1235.2308.2161.3234s.2025.166.3234.2161c.121.0502.2506.0759.3816.0759.1309 0 .2606-.0257.3815-.0759.121-.0501.2309-.1235.3235-.2161l4.89-4.89 4.89 4.89c.0926.0926.2025.166.3234.2161.121.0502.2506.0759.3816.0759.1309 0 .2606-.0257.3815-.0759.121-.0501.2309-.1235.3235-.2161s.166-.2025.2161-.3234c.0501-.121.0759-.2506.0759-.3816 0-.1309-.0258-.2606-.0759-.3815-.0501-.121-.1235-.2309-.2161-.3235l-4.89-4.89 4.89-4.89c.38-.38.38-1.02 0-1.4z"/><path d="m54.625 20.0078c-.5469 0-1.0365.099-1.4688.2969-.427.1979-.789.4844-1.0859.8594-.2969.3698-.5234.8203-.6797 1.3515-.1562.5261-.2344 1.1198-.2344 1.7813 0 .8854.125 1.6484.375 2.289.25.6355.6303 1.125 1.1407 1.4688.5104.3385 1.1562.5078 1.9375.5078.4844 0 .9557-.0469 1.414-.1406.4584-.0938.9323-.2214 1.4219-.3828v1.5937c-.4635.1823-.9323.3151-1.4062.3984-.474.0834-1.0209.125-1.6407.125-1.1666 0-2.1354-.2421-2.9062-.7265-.7656-.4844-1.3386-1.1667-1.7188-2.0469-.375-.8802-.5625-1.9114-.5625-3.0937 0-.8646.1198-1.6563.3594-2.375.2396-.7188.5886-1.3386 1.0469-1.8594.4583-.5261 1.0234-.9297 1.6953-1.2109.6771-.2865 1.4505-.4297 2.3203-.4297.5729 0 1.1354.0651 1.6875.1953.5573.125 1.0729.3047 1.5469.539l-.6563 1.5469c-.3958-.1875-.8099-.3489-1.2421-.4844-.4323-.1354-.8803-.2031-1.3438-.2031zm8.7266 1.1797c1.0937 0 1.9192.2422 2.4765.7266.5625.4843.8438 1.2395.8438 2.2656v5.8203h-1.3047l-.3516-1.2266h-.0625c-.2448.3125-.4974.5704-.7578.7735s-.5625.3541-.9062.4531c-.3386.1042-.7526.1562-1.2422.1562-.5157 0-.9766-.0937-1.3828-.2812-.4063-.1927-.7266-.4844-.961-.875-.2343-.3906-.3515-.8854-.3515-1.4844 0-.8906.3307-1.5599.9922-2.0078.6666-.4479 1.6718-.6953 3.0156-.7422l1.5-.0547v-.4531c0-.5989-.1406-1.026-.4219-1.2812-.276-.2552-.6667-.3828-1.1719-.3828-.4323 0-.8515.0624-1.2578.1874-.4062.125-.8021.2787-1.1875.461l-.5937-1.2969c.4218-.2239.901-.4062 1.4375-.5469.5416-.1406 1.1041-.2109 1.6875-.2109zm1.5 4.6797-1.1172.039c-.9167.0313-1.5599.1876-1.9297.4688s-.5547.6667-.5547 1.1562c0 .4271.1276.7396.3828.9376.2552.1927.5912.289 1.0078.289.6354 0 1.1615-.1797 1.5782-.539.4218-.3646.6328-.8985.6328-1.6016zm9.1484-4.6797c.974 0 1.7318.2526 2.2734.7578.5469.5.8204 1.3047.8204 2.4141v5.6406h-1.836v-5.2969c0-.6719-.138-1.1745-.414-1.5078-.2761-.3385-.7032-.5078-1.2813-.5078-.8385 0-1.4219.2578-1.75.7734-.3229.5157-.4844 1.2631-.4844 2.2422v4.2969h-1.8359v-8.6484h1.4297l.2578 1.1718h.1015c.1876-.302.4193-.5494.6954-.7422.2812-.1979.5937-.3463.9375-.4453.3489-.0989.7109-.1484 1.0859-.1484zm9.3984 8.9687c-.8177 0-1.526-.1588-2.125-.4765-.5989-.3177-1.0599-.8047-1.3828-1.4609-.3229-.6563-.4844-1.4896-.4844-2.5 0-1.0521.1771-1.9115.5313-2.5782.3542-.6666.8437-1.1588 1.4687-1.4765.6303-.3177 1.3516-.4766 2.1641-.4766.5156 0 .9818.0521 1.3985.1563.4218.0989.7786.2213 1.0703.3671l-.5469 1.4688c-.3177-.1302-.6432-.2396-.9766-.3281-.3333-.0886-.6536-.1328-.9609-.1328-.5052 0-.9271.1119-1.2656.3359-.3334.2239-.5834.5573-.75 1-.1615.4427-.2422.9922-.2422 1.6484 0 .6354.0833 1.1719.25 1.6094.1666.4323.414.7604.7422.9844.3281.2187.7317.3281 1.2109.3281.474 0 .8984-.0573 1.2734-.1719s.7292-.263 1.0625-.4453v1.5938c-.3281.1875-.6797.3255-1.0547.414-.375.0938-.8359.1406-1.3828.1406zm8.1641-8.9687c.7708 0 1.4323.1589 1.9844.4766s.9765.7682 1.2734 1.3515c.2969.5834.4453 1.2813.4453 2.0938v.9844h-5.7734c.0208.8385.2448 1.4843.6719 1.9374.4323.4532 1.0364.6797 1.8125.6797.552 0 1.0468-.052 1.4843-.1562.4427-.1094.8985-.2682 1.3672-.4766v1.4922c-.4323.2031-.8724.3516-1.3203.4453-.4479.0938-.9844.1406-1.6094.1406-.8489 0-1.5963-.164-2.2422-.4921-.6406-.3334-1.1432-.8282-1.5078-1.4844-.3593-.6563-.539-1.4714-.539-2.4453 0-.9688.164-1.7917.4922-2.4688.3281-.6771.789-1.1927 1.3828-1.5468.5937-.3542 1.2864-.5313 2.0781-.5313zm0 1.3828c-.5781 0-1.0469.1875-1.4063.5625-.3541.375-.5624.9245-.625 1.6484h3.9376c-.0053-.4322-.0782-.8151-.2188-1.1484-.1354-.3333-.3438-.5937-.625-.7812-.276-.1875-.6302-.2813-1.0625-.2813zm7.8672 7.4297h-1.8438v-12.1562h1.8438z"/></g></svg>