<svg fill="none" height="80" viewBox="0 0 124 80" width="124" xmlns="http://www.w3.org/2000/svg"><rect fill="#dcedf9" height="78" rx="3" width="122" x="1" y="1"/><path d="m73.2668 16.3733-.5867-.5867.4667-.4667c.44-.44.44-1.1733 0-1.6133l-1.0534-1.0533c-.44-.44-1.1733-.44-1.6133 0l-.4667.4666-.5866-.5866c-.32-.32-.84-.32-1.16 0l-1.64 1.64-1.9067-1.92c-.52-.52-1.36-.52-1.88 0l-6.1467 6.1466c-.3866.3867-.3866 1.0267 0 1.4134.3867.3866 1.0267.3866 1.4134 0l5.68-5.68 1.44 1.44-11.9734 11.96 5 5 15.0134-15.0134c.32-.32.32-.84 0-1.16zm-23.3067 14.7333v4.0533c0 .3734.2933.6667.6667.6667h4.0533c.1733 0 .3467-.0667.4667-.2l1.68-1.68-5-5-1.68 1.68c-.12.12-.2.2933-.2.4667z" fill="#0063a3"/><path d="m21.7363 58.2666h1.0742c1.0528 0 1.8298-.1755 2.3311-.5264s.752-.9023.752-1.6543c0-.7448-.2579-1.2747-.7735-1.5898-.5084-.3151-1.2998-.4727-2.374-.4727h-1.0098zm0 2.707v6.0264h-3.3301v-15.7051h4.5762c2.1341 0 3.7132.3903 4.7373 1.1709 1.0241.7735 1.5362 1.9515 1.5362 3.5342 0 .9238-.2543 1.7474-.7627 2.4707-.5085.7161-1.2282 1.2783-2.1592 1.6865 2.3633 3.5306 3.903 5.8116 4.6191 6.8428h-3.6953l-3.749-6.0264zm16.1592-3.8779c-.6947 0-1.2389.222-1.6328.666-.3939.4369-.6195 1.0599-.6768 1.8692h4.5977c-.0143-.8093-.2256-1.4323-.6338-1.8692-.4082-.444-.9596-.666-1.6543-.666zm.4619 10.1191c-1.9336 0-3.4446-.5335-4.5332-1.6005-1.0885-1.0671-1.6328-2.5782-1.6328-4.5332 0-2.0124.5013-3.5665 1.5039-4.6622 1.0098-1.1028 2.4027-1.6543 4.1787-1.6543 1.6973 0 3.0186.4834 3.9639 1.4502s1.418 2.3025 1.418 4.0069v1.5898h-7.7452c.0358.931.3116 1.6579.8272 2.1807s1.2389.7842 2.1699.7842c.7233 0 1.4072-.0752 2.0518-.2256.6445-.1504 1.3177-.3903 2.0195-.7197v2.5351c-.5729.2865-1.1852.4977-1.8369.6338-.6517.1432-1.4466.2148-2.3848.2148zm18.8985-.2148h-3.2764v-7.0146c0-.8666-.154-1.5147-.4619-1.9444-.308-.4368-.7985-.6553-1.4717-.6553-.9167 0-1.5791.308-1.9873.9239-.4082.6087-.6123 1.622-.6123 3.04v5.6504h-3.2764v-12.0098h2.503l.4404 1.5362h.1826c.3652-.5801.8665-1.017 1.5039-1.3106.6445-.3008 1.375-.4512 2.1914-.4512 1.3965 0 2.4564.3796 3.1797 1.1387.7233.752 1.085 1.8405 1.085 3.2656zm11.25 0-.6338-1.6328h-.086c-.5514.6946-1.1207 1.178-1.708 1.4502-.5801.265-1.3392.3974-2.2773.3974-1.153 0-2.0625-.3294-2.7285-.9882-.6589-.6589-.9883-1.597-.9883-2.8145 0-1.2747.444-2.2129 1.332-2.8144.8952-.6088 2.2416-.9454 4.0391-1.0098l2.084-.0645v-.5263c0-1.2175-.6231-1.8262-1.8692-1.8262-.9596 0-2.0875.29-3.3838.8701l-1.0849-2.2129c1.3821-.7233 2.9147-1.0849 4.5976-1.0849 1.6114 0 2.8467.3509 3.7061 1.0527s1.289 1.7689 1.289 3.2012v8.0029zm-.9668-5.5645-1.2676.043c-.9525.0287-1.6615.2005-2.127.5156s-.6982.795-.6982 1.4395c0 .9238.5299 1.3857 1.5898 1.3857.7591 0 1.3643-.2184 1.8155-.6552.4583-.4369.6875-1.017.6875-1.7403zm17.6416 5.5645h-3.2764v-7.0146c0-.8666-.1468-1.5147-.4404-1.9444-.2865-.4368-.7412-.6553-1.3643-.6553-.8379 0-1.4466.308-1.8262.9239-.3795.6159-.5693 1.6292-.5693 3.04v5.6504h-3.2764v-12.0098h2.503l.4404 1.5362h.1826c.3223-.5515.7878-.9812 1.3965-1.2891.6087-.3151 1.307-.4727 2.0947-.4727 1.7975 0 3.015.5873 3.6524 1.7618h.29c.3223-.5586.7949-.9919 1.418-1.2998.6302-.308 1.3392-.462 2.1269-.462 1.3607 0 2.3884.351 3.083 1.0528.7019.6946 1.0528 1.8118 1.0528 3.3515v7.8311h-3.2871v-7.0146c0-.8666-.1469-1.5147-.4405-1.9444-.2864-.4368-.7412-.6553-1.3642-.6553-.8021 0-1.4037.2865-1.8047.8594-.3939.5729-.5908 1.4824-.5908 2.7285zm16.0843-9.9043c-.695 0-1.239.222-1.6332.666-.3938.4369-.6194 1.0599-.6767 1.8692h4.5979c-.015-.8093-.226-1.4323-.634-1.8692-.408-.444-.96-.666-1.654-.666zm.462 10.1191c-1.934 0-3.4451-.5335-4.5336-1.6005-1.0886-1.0671-1.6329-2.5782-1.6329-4.5332 0-2.0124.5013-3.5665 1.504-4.6622 1.0097-1.1028 2.4026-1.6543 4.1785-1.6543 1.697 0 3.019.4834 3.964 1.4502s1.418 2.3025 1.418 4.0069v1.5898h-7.7451c.0358.931.3115 1.6579.8271 2.1807.516.5228 1.239.7842 2.17.7842.723 0 1.407-.0752 2.052-.2256.644-.1504 1.317-.3903 2.019-.7197v2.5351c-.573.2865-1.185.4977-1.837.6338-.651.1432-1.446.2148-2.384.2148z" fill="#0063a3"/><g stroke="#0063a3" stroke-width="2"><rect height="78" rx="3" width="122" x="1" y="1"/><rect height="78" rx="3" width="122" x="1" y="1"/></g></svg>