<svg width="961" height="260" viewBox="0 0 961 260" fill="none" xmlns="http://www.w3.org/2000/svg">
<rect width="961" height="260" fill="#252A2E"/>
<path d="M448.833 55H430.167C428.7 55 427.5 56.2 427.5 57.6667V76.3333C427.5 77.8 428.7 79 430.167 79H448.833C450.3 79 451.5 77.8 451.5 76.3333V57.6667C451.5 56.2 450.3 55 448.833 55Z" fill="#019AEB"/>
<path d="M437.5 73C437.24 73 436.99 72.9 436.79 72.71L432.79 68.71C432.603 68.523 432.498 68.2694 432.498 68.005C432.498 67.7405 432.603 67.4869 432.79 67.3C432.977 67.113 433.231 67.0079 433.495 67.0079C433.759 67.0079 434.013 67.113 434.2 67.3L437.49 70.59L446.78 61.3C446.967 61.113 447.221 61.0079 447.485 61.0079C447.749 61.0079 448.003 61.113 448.19 61.3C448.377 61.4869 448.482 61.7405 448.482 62.005C448.482 62.2694 448.377 62.523 448.19 62.71L438.19 72.71C437.99 72.91 437.74 73 437.48 73H437.5Z" fill="white"/>
<path d="M462.945 63.5859C462.315 63.5859 461.747 63.6953 461.242 63.9141C460.742 64.1276 460.315 64.4401 459.961 64.8516C459.612 65.2578 459.344 65.75 459.156 66.3281C458.969 66.9062 458.875 67.5573 458.875 68.2812C458.875 69.2396 459.023 70.0729 459.32 70.7812C459.622 71.4844 460.07 72.0286 460.664 72.4141C461.263 72.7995 462.01 72.9922 462.906 72.9922C463.417 72.9922 463.896 72.9505 464.344 72.8672C464.797 72.7786 465.237 72.6693 465.664 72.5391V73.6953C465.247 73.8516 464.81 73.9661 464.352 74.0391C463.893 74.1172 463.349 74.1562 462.719 74.1562C461.557 74.1562 460.586 73.9167 459.805 73.4375C459.029 72.9531 458.445 72.2708 458.055 71.3906C457.669 70.5104 457.477 69.4714 457.477 68.2734C457.477 67.4089 457.596 66.6198 457.836 65.9062C458.081 65.1875 458.435 64.5677 458.898 64.0469C459.367 63.526 459.94 63.125 460.617 62.8438C461.299 62.5573 462.081 62.4141 462.961 62.4141C463.539 62.4141 464.096 62.4714 464.633 62.5859C465.169 62.7005 465.654 62.8646 466.086 63.0781L465.555 64.2031C465.19 64.0365 464.789 63.8932 464.352 63.7734C463.919 63.6484 463.451 63.5859 462.945 63.5859ZM469.266 61.8438V65.4766C469.266 65.6849 469.261 65.8958 469.251 66.1094C469.24 66.3177 469.222 66.5104 469.196 66.6875H469.282C469.459 66.3854 469.683 66.1328 469.954 65.9297C470.23 65.7214 470.542 65.5651 470.891 65.4609C471.24 65.3516 471.61 65.2969 472.001 65.2969C472.688 65.2969 473.261 65.4062 473.719 65.625C474.183 65.8438 474.529 66.1823 474.758 66.6406C474.993 67.099 475.11 67.6927 475.11 68.4219V74H473.829V68.5078C473.829 67.7943 473.665 67.2604 473.337 66.9062C473.014 66.5521 472.516 66.375 471.844 66.375C471.209 66.375 470.701 66.4974 470.321 66.7422C469.946 66.9818 469.675 67.3359 469.508 67.8047C469.347 68.2734 469.266 68.8464 469.266 69.5234V74H467.969V61.8438H469.266ZM481.103 65.2812C481.832 65.2812 482.457 65.4427 482.978 65.7656C483.499 66.0885 483.897 66.5417 484.173 67.125C484.449 67.7031 484.587 68.3802 484.587 69.1562V69.9609H478.673C478.689 70.9661 478.939 71.7318 479.423 72.2578C479.907 72.7839 480.59 73.0469 481.47 73.0469C482.012 73.0469 482.491 72.9974 482.907 72.8984C483.324 72.7995 483.756 72.6536 484.204 72.4609V73.6016C483.772 73.7943 483.342 73.9349 482.915 74.0234C482.493 74.112 481.993 74.1562 481.415 74.1562C480.592 74.1562 479.874 73.9896 479.259 73.6562C478.65 73.3177 478.176 72.8229 477.837 72.1719C477.499 71.5208 477.329 70.724 477.329 69.7812C477.329 68.8594 477.483 68.0625 477.79 67.3906C478.103 66.7135 478.54 66.1927 479.103 65.8281C479.67 65.4635 480.337 65.2812 481.103 65.2812ZM481.087 66.3438C480.394 66.3438 479.842 66.5703 479.431 67.0234C479.019 67.4766 478.775 68.1094 478.696 68.9219H483.228C483.222 68.4115 483.142 67.9635 482.986 67.5781C482.834 67.1875 482.603 66.8854 482.29 66.6719C481.978 66.4531 481.577 66.3438 481.087 66.3438ZM490.244 74.1562C489.473 74.1562 488.793 73.9974 488.205 73.6797C487.616 73.362 487.158 72.8776 486.83 72.2266C486.502 71.5755 486.338 70.7552 486.338 69.7656C486.338 68.7292 486.51 67.8828 486.853 67.2266C487.202 66.5651 487.681 66.0755 488.291 65.7578C488.9 65.4401 489.593 65.2812 490.369 65.2812C490.796 65.2812 491.207 65.3255 491.603 65.4141C492.004 65.4974 492.332 65.6042 492.588 65.7344L492.197 66.8203C491.937 66.7161 491.635 66.6224 491.291 66.5391C490.952 66.4557 490.635 66.4141 490.338 66.4141C489.744 66.4141 489.249 66.5417 488.853 66.7969C488.463 67.0521 488.168 67.4271 487.97 67.9219C487.778 68.4167 487.681 69.026 487.681 69.75C487.681 70.4427 487.775 71.0339 487.963 71.5234C488.155 72.013 488.439 72.388 488.814 72.6484C489.194 72.9036 489.668 73.0312 490.236 73.0312C490.689 73.0312 491.098 72.9844 491.463 72.8906C491.827 72.7917 492.158 72.6771 492.455 72.5469V73.7031C492.168 73.849 491.848 73.9609 491.494 74.0391C491.145 74.1172 490.728 74.1562 490.244 74.1562ZM495.799 61.8438V68.1562C495.799 68.3646 495.791 68.6198 495.776 68.9219C495.76 69.2188 495.747 69.4818 495.737 69.7109H495.791C495.901 69.5755 496.06 69.375 496.268 69.1094C496.481 68.8438 496.661 68.6302 496.807 68.4688L499.651 65.4375H501.174L497.729 69.0938L501.424 74H499.862L496.838 69.9453L495.799 70.8984V74H494.51V61.8438H495.799ZM504.237 61.8438V64.8828C504.237 65.2318 504.227 65.5703 504.206 65.8984C504.19 66.2266 504.177 66.4818 504.167 66.6641H504.237C504.472 66.2786 504.81 65.9531 505.253 65.6875C505.696 65.4219 506.261 65.2891 506.948 65.2891C508.021 65.2891 508.875 65.6615 509.511 66.4062C510.151 67.1458 510.472 68.2474 510.472 69.7109C510.472 70.6745 510.326 71.487 510.034 72.1484C509.742 72.8099 509.331 73.3099 508.8 73.6484C508.268 73.987 507.641 74.1562 506.917 74.1562C506.24 74.1562 505.682 74.0312 505.245 73.7812C504.813 73.526 504.479 73.2161 504.245 72.8516H504.143L503.878 74H502.94V61.8438H504.237ZM506.737 66.375C506.117 66.375 505.625 66.4974 505.261 66.7422C504.896 66.9818 504.633 67.3464 504.472 67.8359C504.315 68.3203 504.237 68.9349 504.237 69.6797V69.75C504.237 70.8281 504.417 71.6536 504.776 72.2266C505.136 72.7943 505.789 73.0781 506.737 73.0781C507.534 73.0781 508.13 72.7865 508.526 72.2031C508.927 71.6198 509.128 70.7865 509.128 69.7031C509.128 68.599 508.93 67.7682 508.534 67.2109C508.143 66.6536 507.544 66.375 506.737 66.375ZM520.144 69.7031C520.144 70.4062 520.053 71.0339 519.871 71.5859C519.688 72.138 519.425 72.6042 519.082 72.9844C518.738 73.3646 518.321 73.6562 517.832 73.8594C517.347 74.0573 516.798 74.1562 516.183 74.1562C515.61 74.1562 515.084 74.0573 514.605 73.8594C514.131 73.6562 513.72 73.3646 513.371 72.9844C513.027 72.6042 512.759 72.138 512.566 71.5859C512.378 71.0339 512.285 70.4062 512.285 69.7031C512.285 68.7656 512.443 67.9688 512.761 67.3125C513.079 66.651 513.532 66.1484 514.121 65.8047C514.714 65.4557 515.42 65.2812 516.238 65.2812C517.019 65.2812 517.701 65.4557 518.285 65.8047C518.873 66.1536 519.329 66.6589 519.652 67.3203C519.98 67.9766 520.144 68.7708 520.144 69.7031ZM513.628 69.7031C513.628 70.3906 513.72 70.987 513.902 71.4922C514.084 71.9974 514.365 72.388 514.746 72.6641C515.126 72.9401 515.615 73.0781 516.214 73.0781C516.808 73.0781 517.295 72.9401 517.675 72.6641C518.061 72.388 518.345 71.9974 518.527 71.4922C518.709 70.987 518.8 70.3906 518.8 69.7031C518.8 69.0208 518.709 68.4323 518.527 67.9375C518.345 67.4375 518.063 67.0521 517.683 66.7812C517.303 66.5104 516.811 66.375 516.207 66.375C515.316 66.375 514.662 66.6693 514.246 67.2578C513.834 67.8464 513.628 68.6615 513.628 69.7031ZM524.449 69.6172L521.488 65.4375H522.973L525.23 68.7344L527.48 65.4375H528.949L525.988 69.6172L529.113 74H527.629L525.23 70.5078L522.816 74H521.348L524.449 69.6172Z" fill="white"/>
<path fill-rule="evenodd" clip-rule="evenodd" d="M430.667 93H449.333C450.8 93 452 94.2 452 95.6667V114.333C452 115.8 450.8 117 449.333 117H430.667C429.2 117 428 115.8 428 114.333V95.6667C428 94.2 429.2 93 430.667 93ZM449.333 114.333V95.6667H430.667V114.333H449.333Z" fill="#90939F"/>
<path d="M462.461 101.602C461.206 101.602 460.214 102.021 459.484 102.859C458.76 103.693 458.398 104.836 458.398 106.289C458.398 107.784 458.747 108.94 459.445 109.758C460.148 110.57 461.148 110.977 462.445 110.977C463.242 110.977 464.151 110.833 465.172 110.547V111.711C464.38 112.008 463.404 112.156 462.242 112.156C460.56 112.156 459.26 111.646 458.344 110.625C457.432 109.604 456.977 108.154 456.977 106.273C456.977 105.096 457.195 104.065 457.633 103.18C458.076 102.294 458.711 101.612 459.539 101.133C460.372 100.654 461.352 100.414 462.477 100.414C463.674 100.414 464.721 100.633 465.617 101.07L465.055 102.211C464.19 101.805 463.326 101.602 462.461 101.602ZM473.352 112V106.461C473.352 105.763 473.193 105.242 472.876 104.898C472.558 104.555 472.06 104.383 471.383 104.383C470.482 104.383 469.823 104.628 469.407 105.117C468.995 105.607 468.79 106.409 468.79 107.523V112H467.493V99.8438H468.79V103.523C468.79 103.966 468.769 104.333 468.727 104.625H468.805C469.06 104.214 469.422 103.891 469.891 103.656C470.365 103.417 470.904 103.297 471.508 103.297C472.555 103.297 473.339 103.547 473.86 104.047C474.386 104.542 474.649 105.331 474.649 106.414V112H473.352ZM480.962 112.156C479.696 112.156 478.696 111.771 477.962 111C477.233 110.229 476.868 109.159 476.868 107.789C476.868 106.409 477.207 105.312 477.884 104.5C478.566 103.688 479.48 103.281 480.626 103.281C481.699 103.281 482.548 103.635 483.173 104.344C483.798 105.047 484.111 105.977 484.111 107.133V107.953H478.212C478.238 108.958 478.491 109.721 478.97 110.242C479.454 110.763 480.134 111.023 481.009 111.023C481.931 111.023 482.842 110.831 483.743 110.445V111.602C483.285 111.799 482.85 111.94 482.439 112.023C482.032 112.112 481.54 112.156 480.962 112.156ZM480.611 104.367C479.923 104.367 479.374 104.591 478.962 105.039C478.556 105.487 478.316 106.107 478.243 106.898H482.72C482.72 106.081 482.538 105.456 482.173 105.023C481.808 104.586 481.288 104.367 480.611 104.367ZM489.775 112.156C488.536 112.156 487.575 111.776 486.892 111.016C486.215 110.25 485.877 109.169 485.877 107.773C485.877 106.341 486.22 105.234 486.908 104.453C487.601 103.672 488.585 103.281 489.861 103.281C490.273 103.281 490.684 103.326 491.095 103.414C491.507 103.503 491.83 103.607 492.064 103.727L491.666 104.828C491.379 104.714 491.067 104.62 490.728 104.547C490.39 104.469 490.09 104.43 489.83 104.43C488.09 104.43 487.22 105.539 487.22 107.758C487.22 108.81 487.431 109.617 487.853 110.18C488.28 110.742 488.911 111.023 489.744 111.023C490.457 111.023 491.189 110.87 491.939 110.562V111.711C491.366 112.008 490.645 112.156 489.775 112.156ZM495.284 107.617C495.507 107.299 495.849 106.883 496.307 106.367L499.073 103.438H500.612L497.143 107.086L500.854 112H499.284L496.26 107.953L495.284 108.797V112H494.002V99.8438H495.284V106.289C495.284 106.576 495.263 107.018 495.221 107.617H495.284ZM506.417 103.297C507.542 103.297 508.414 103.682 509.034 104.453C509.659 105.219 509.972 106.305 509.972 107.711C509.972 109.117 509.656 110.211 509.026 110.992C508.401 111.768 507.531 112.156 506.417 112.156C505.86 112.156 505.349 112.055 504.886 111.852C504.427 111.643 504.042 111.326 503.729 110.898H503.636L503.362 112H502.432V99.8438H503.729V102.797C503.729 103.458 503.709 104.052 503.667 104.578H503.729C504.334 103.724 505.229 103.297 506.417 103.297ZM506.229 104.383C505.344 104.383 504.706 104.638 504.315 105.148C503.925 105.654 503.729 106.508 503.729 107.711C503.729 108.914 503.93 109.776 504.331 110.297C504.732 110.812 505.375 111.07 506.261 111.07C507.057 111.07 507.651 110.781 508.042 110.203C508.432 109.62 508.628 108.784 508.628 107.695C508.628 106.581 508.432 105.75 508.042 105.203C507.651 104.656 507.047 104.383 506.229 104.383ZM519.66 107.711C519.66 109.107 519.308 110.198 518.605 110.984C517.902 111.766 516.93 112.156 515.691 112.156C514.925 112.156 514.246 111.977 513.652 111.617C513.058 111.258 512.6 110.742 512.277 110.07C511.954 109.398 511.792 108.612 511.792 107.711C511.792 106.315 512.141 105.229 512.839 104.453C513.537 103.672 514.506 103.281 515.746 103.281C516.943 103.281 517.894 103.68 518.597 104.477C519.305 105.273 519.66 106.352 519.66 107.711ZM513.136 107.711C513.136 108.805 513.355 109.638 513.792 110.211C514.23 110.784 514.873 111.07 515.722 111.07C516.571 111.07 517.214 110.786 517.652 110.219C518.095 109.646 518.316 108.81 518.316 107.711C518.316 106.622 518.095 105.797 517.652 105.234C517.214 104.667 516.566 104.383 515.707 104.383C514.858 104.383 514.217 104.661 513.785 105.219C513.352 105.776 513.136 106.607 513.136 107.711ZM524.027 107.617L521.051 103.438H522.527L524.785 106.719L527.035 103.438H528.496L525.52 107.617L528.652 112H527.184L524.785 108.531L522.363 112H520.895L524.027 107.617Z" fill="white"/>
<path fill-rule="evenodd" clip-rule="evenodd" d="M432.222 137H447.778C449 137 450 138 450 139.222V154.778C450 156 449 157 447.778 157H432.222C431 157 430 156 430 154.778V139.222C430 138 431 137 432.222 137ZM447.778 154.778V139.222H432.222V154.778H447.778Z" fill="#90939F"/>
<rect x="426.5" y="133.5" width="27" height="27" rx="3.5" stroke="#019AEB"/>
<path d="M464.461 143.602C463.206 143.602 462.214 144.021 461.484 144.859C460.76 145.693 460.398 146.836 460.398 148.289C460.398 149.784 460.747 150.94 461.445 151.758C462.148 152.57 463.148 152.977 464.445 152.977C465.242 152.977 466.151 152.833 467.172 152.547V153.711C466.38 154.008 465.404 154.156 464.242 154.156C462.56 154.156 461.26 153.646 460.344 152.625C459.432 151.604 458.977 150.154 458.977 148.273C458.977 147.096 459.195 146.065 459.633 145.18C460.076 144.294 460.711 143.612 461.539 143.133C462.372 142.654 463.352 142.414 464.477 142.414C465.674 142.414 466.721 142.633 467.617 143.07L467.055 144.211C466.19 143.805 465.326 143.602 464.461 143.602ZM475.352 154V148.461C475.352 147.763 475.193 147.242 474.876 146.898C474.558 146.555 474.06 146.383 473.383 146.383C472.482 146.383 471.823 146.628 471.407 147.117C470.995 147.607 470.79 148.409 470.79 149.523V154H469.493V141.844H470.79V145.523C470.79 145.966 470.769 146.333 470.727 146.625H470.805C471.06 146.214 471.422 145.891 471.891 145.656C472.365 145.417 472.904 145.297 473.508 145.297C474.555 145.297 475.339 145.547 475.86 146.047C476.386 146.542 476.649 147.331 476.649 148.414V154H475.352ZM482.962 154.156C481.696 154.156 480.696 153.771 479.962 153C479.233 152.229 478.868 151.159 478.868 149.789C478.868 148.409 479.207 147.312 479.884 146.5C480.566 145.688 481.48 145.281 482.626 145.281C483.699 145.281 484.548 145.635 485.173 146.344C485.798 147.047 486.111 147.977 486.111 149.133V149.953H480.212C480.238 150.958 480.491 151.721 480.97 152.242C481.454 152.763 482.134 153.023 483.009 153.023C483.931 153.023 484.842 152.831 485.743 152.445V153.602C485.285 153.799 484.85 153.94 484.439 154.023C484.032 154.112 483.54 154.156 482.962 154.156ZM482.611 146.367C481.923 146.367 481.374 146.591 480.962 147.039C480.556 147.487 480.316 148.107 480.243 148.898H484.72C484.72 148.081 484.538 147.456 484.173 147.023C483.808 146.586 483.288 146.367 482.611 146.367ZM491.775 154.156C490.536 154.156 489.575 153.776 488.892 153.016C488.215 152.25 487.877 151.169 487.877 149.773C487.877 148.341 488.22 147.234 488.908 146.453C489.601 145.672 490.585 145.281 491.861 145.281C492.273 145.281 492.684 145.326 493.095 145.414C493.507 145.503 493.83 145.607 494.064 145.727L493.666 146.828C493.379 146.714 493.067 146.62 492.728 146.547C492.39 146.469 492.09 146.43 491.83 146.43C490.09 146.43 489.22 147.539 489.22 149.758C489.22 150.81 489.431 151.617 489.853 152.18C490.28 152.742 490.911 153.023 491.744 153.023C492.457 153.023 493.189 152.87 493.939 152.562V153.711C493.366 154.008 492.645 154.156 491.775 154.156ZM497.284 149.617C497.507 149.299 497.849 148.883 498.307 148.367L501.073 145.438H502.612L499.143 149.086L502.854 154H501.284L498.26 149.953L497.284 150.797V154H496.002V141.844H497.284V148.289C497.284 148.576 497.263 149.018 497.221 149.617H497.284ZM508.417 145.297C509.542 145.297 510.414 145.682 511.034 146.453C511.659 147.219 511.972 148.305 511.972 149.711C511.972 151.117 511.656 152.211 511.026 152.992C510.401 153.768 509.531 154.156 508.417 154.156C507.86 154.156 507.349 154.055 506.886 153.852C506.427 153.643 506.042 153.326 505.729 152.898H505.636L505.362 154H504.432V141.844H505.729V144.797C505.729 145.458 505.709 146.052 505.667 146.578H505.729C506.334 145.724 507.229 145.297 508.417 145.297ZM508.229 146.383C507.344 146.383 506.706 146.638 506.315 147.148C505.925 147.654 505.729 148.508 505.729 149.711C505.729 150.914 505.93 151.776 506.331 152.297C506.732 152.812 507.375 153.07 508.261 153.07C509.057 153.07 509.651 152.781 510.042 152.203C510.432 151.62 510.628 150.784 510.628 149.695C510.628 148.581 510.432 147.75 510.042 147.203C509.651 146.656 509.047 146.383 508.229 146.383ZM521.66 149.711C521.66 151.107 521.308 152.198 520.605 152.984C519.902 153.766 518.93 154.156 517.691 154.156C516.925 154.156 516.246 153.977 515.652 153.617C515.058 153.258 514.6 152.742 514.277 152.07C513.954 151.398 513.792 150.612 513.792 149.711C513.792 148.315 514.141 147.229 514.839 146.453C515.537 145.672 516.506 145.281 517.746 145.281C518.943 145.281 519.894 145.68 520.597 146.477C521.305 147.273 521.66 148.352 521.66 149.711ZM515.136 149.711C515.136 150.805 515.355 151.638 515.792 152.211C516.23 152.784 516.873 153.07 517.722 153.07C518.571 153.07 519.214 152.786 519.652 152.219C520.095 151.646 520.316 150.81 520.316 149.711C520.316 148.622 520.095 147.797 519.652 147.234C519.214 146.667 518.566 146.383 517.707 146.383C516.858 146.383 516.217 146.661 515.785 147.219C515.352 147.776 515.136 148.607 515.136 149.711ZM526.027 149.617L523.051 145.438H524.527L526.785 148.719L529.035 145.438H530.496L527.52 149.617L530.652 154H529.184L526.785 150.531L524.363 154H522.895L526.027 149.617Z" fill="white"/>
<rect x="426.5" y="175.5" width="27" height="27" rx="3.5" stroke="#0063A3" stroke-opacity="0.4"/>
<path fill-rule="evenodd" clip-rule="evenodd" d="M432.222 179H447.778C449 179 450 180 450 181.222V196.778C450 198 449 199 447.778 199H432.222C431 199 430 198 430 196.778V181.222C430 180 431 179 432.222 179ZM447.778 196.778V181.222H432.222V196.778H447.778Z" fill="#90939F"/>
<path d="M464.461 185.602C463.206 185.602 462.214 186.021 461.484 186.859C460.76 187.693 460.398 188.836 460.398 190.289C460.398 191.784 460.747 192.94 461.445 193.758C462.148 194.57 463.148 194.977 464.445 194.977C465.242 194.977 466.151 194.833 467.172 194.547V195.711C466.38 196.008 465.404 196.156 464.242 196.156C462.56 196.156 461.26 195.646 460.344 194.625C459.432 193.604 458.977 192.154 458.977 190.273C458.977 189.096 459.195 188.065 459.633 187.18C460.076 186.294 460.711 185.612 461.539 185.133C462.372 184.654 463.352 184.414 464.477 184.414C465.674 184.414 466.721 184.633 467.617 185.07L467.055 186.211C466.19 185.805 465.326 185.602 464.461 185.602ZM475.352 196V190.461C475.352 189.763 475.193 189.242 474.876 188.898C474.558 188.555 474.06 188.383 473.383 188.383C472.482 188.383 471.823 188.628 471.407 189.117C470.995 189.607 470.79 190.409 470.79 191.523V196H469.493V183.844H470.79V187.523C470.79 187.966 470.769 188.333 470.727 188.625H470.805C471.06 188.214 471.422 187.891 471.891 187.656C472.365 187.417 472.904 187.297 473.508 187.297C474.555 187.297 475.339 187.547 475.86 188.047C476.386 188.542 476.649 189.331 476.649 190.414V196H475.352ZM482.962 196.156C481.696 196.156 480.696 195.771 479.962 195C479.233 194.229 478.868 193.159 478.868 191.789C478.868 190.409 479.207 189.312 479.884 188.5C480.566 187.688 481.48 187.281 482.626 187.281C483.699 187.281 484.548 187.635 485.173 188.344C485.798 189.047 486.111 189.977 486.111 191.133V191.953H480.212C480.238 192.958 480.491 193.721 480.97 194.242C481.454 194.763 482.134 195.023 483.009 195.023C483.931 195.023 484.842 194.831 485.743 194.445V195.602C485.285 195.799 484.85 195.94 484.439 196.023C484.032 196.112 483.54 196.156 482.962 196.156ZM482.611 188.367C481.923 188.367 481.374 188.591 480.962 189.039C480.556 189.487 480.316 190.107 480.243 190.898H484.72C484.72 190.081 484.538 189.456 484.173 189.023C483.808 188.586 483.288 188.367 482.611 188.367ZM491.775 196.156C490.536 196.156 489.575 195.776 488.892 195.016C488.215 194.25 487.877 193.169 487.877 191.773C487.877 190.341 488.22 189.234 488.908 188.453C489.601 187.672 490.585 187.281 491.861 187.281C492.273 187.281 492.684 187.326 493.095 187.414C493.507 187.503 493.83 187.607 494.064 187.727L493.666 188.828C493.379 188.714 493.067 188.62 492.728 188.547C492.39 188.469 492.09 188.43 491.83 188.43C490.09 188.43 489.22 189.539 489.22 191.758C489.22 192.81 489.431 193.617 489.853 194.18C490.28 194.742 490.911 195.023 491.744 195.023C492.457 195.023 493.189 194.87 493.939 194.562V195.711C493.366 196.008 492.645 196.156 491.775 196.156ZM497.284 191.617C497.507 191.299 497.849 190.883 498.307 190.367L501.073 187.438H502.612L499.143 191.086L502.854 196H501.284L498.26 191.953L497.284 192.797V196H496.002V183.844H497.284V190.289C497.284 190.576 497.263 191.018 497.221 191.617H497.284ZM508.417 187.297C509.542 187.297 510.414 187.682 511.034 188.453C511.659 189.219 511.972 190.305 511.972 191.711C511.972 193.117 511.656 194.211 511.026 194.992C510.401 195.768 509.531 196.156 508.417 196.156C507.86 196.156 507.349 196.055 506.886 195.852C506.427 195.643 506.042 195.326 505.729 194.898H505.636L505.362 196H504.432V183.844H505.729V186.797C505.729 187.458 505.709 188.052 505.667 188.578H505.729C506.334 187.724 507.229 187.297 508.417 187.297ZM508.229 188.383C507.344 188.383 506.706 188.638 506.315 189.148C505.925 189.654 505.729 190.508 505.729 191.711C505.729 192.914 505.93 193.776 506.331 194.297C506.732 194.812 507.375 195.07 508.261 195.07C509.057 195.07 509.651 194.781 510.042 194.203C510.432 193.62 510.628 192.784 510.628 191.695C510.628 190.581 510.432 189.75 510.042 189.203C509.651 188.656 509.047 188.383 508.229 188.383ZM521.66 191.711C521.66 193.107 521.308 194.198 520.605 194.984C519.902 195.766 518.93 196.156 517.691 196.156C516.925 196.156 516.246 195.977 515.652 195.617C515.058 195.258 514.6 194.742 514.277 194.07C513.954 193.398 513.792 192.612 513.792 191.711C513.792 190.315 514.141 189.229 514.839 188.453C515.537 187.672 516.506 187.281 517.746 187.281C518.943 187.281 519.894 187.68 520.597 188.477C521.305 189.273 521.66 190.352 521.66 191.711ZM515.136 191.711C515.136 192.805 515.355 193.638 515.792 194.211C516.23 194.784 516.873 195.07 517.722 195.07C518.571 195.07 519.214 194.786 519.652 194.219C520.095 193.646 520.316 192.81 520.316 191.711C520.316 190.622 520.095 189.797 519.652 189.234C519.214 188.667 518.566 188.383 517.707 188.383C516.858 188.383 516.217 188.661 515.785 189.219C515.352 189.776 515.136 190.607 515.136 191.711ZM526.027 191.617L523.051 187.438H524.527L526.785 190.719L529.035 187.438H530.496L527.52 191.617L530.652 196H529.184L526.785 192.531L524.363 196H522.895L526.027 191.617Z" fill="white"/>
</svg>
