<svg fill="none" height="112" viewBox="0 0 960 112" width="960" xmlns="http://www.w3.org/2000/svg" xmlns:xlink="http://www.w3.org/1999/xlink"><clipPath id="a"><path d="m0 0h960v112h-960z"/></clipPath><clipPath id="b"><path d="m0 0h960v112h-960z"/></clipPath><clipPath id="c"><path d="m79.25 44h80v24h-80z"/></clipPath><clipPath id="d"><path d="m316.25 44h87v24h-87z"/></clipPath><clipPath id="e"><path d="m555.75 44h89v24h-89z"/></clipPath><clipPath id="f"><path d="m808.75 44h64v24h-64z"/></clipPath><g clip-path="url(#a)"><g clip-path="url(#b)"><path d="m0 0h238.5v112h-238.5z" fill="#f1f1f6"/><rect fill="#cbcdd6" height="32" rx="16" width="104" x="67.25" y="40"/><g clip-path="url(#c)" fill="#252a2e"><path d="m88.9893 55.9072c0 1.1257-.2097 2.0668-.6289 2.8233-.4193.7519-1.0277 1.3193-1.8252 1.7021-.7976.3783-1.7592.5674-2.8848.5674h-2.7754v-9.9941h3.0762c1.0345 0 1.9277.1868 2.6797.5605.7519.3691 1.333.9183 1.7431 1.6475.4102.7246.6153 1.6224.6153 2.6933zm-1.709.0479c0-.8203-.1299-1.4948-.3897-2.0235-.2552-.5286-.6334-.9205-1.1347-1.1757-.4968-.2598-1.1097-.3897-1.8389-.3897h-1.4014v7.2598h1.1621c1.2077 0 2.1101-.3076 2.7071-.9229.597-.6152.8955-1.5312.8955-2.748zm6.9629-2.666c.6744 0 1.2532.139 1.7363.417.4831.2779.8545.6722 1.1143 1.1826.2597.5104.3896 1.1211.3896 1.832v.8613h-5.0518c.0183.7338.2142 1.2989.5879 1.6953.3783.3965.9069.5948 1.586.5948.483 0 .916-.0456 1.2988-.1367.3874-.0958.7861-.2347 1.1963-.417v1.3056c-.3783.1778-.7634.3076-1.1553.3897-.3919.082-.8613.123-1.4082.123-.7428 0-1.3968-.1435-1.9619-.4306-.5606-.2917-1.0003-.7247-1.3193-1.2989-.3145-.5742-.4717-1.2874-.4717-2.1396 0-.8477.1435-1.5677.4306-2.1602.2872-.5924.6905-1.0436 1.21-1.3535s1.1257-.4648 1.8184-.4648zm0 1.2099c-.5059 0-.9161.1641-1.2305.4922-.3099.3281-.4922.8089-.5469 1.4424h3.4453c-.0045-.3783-.0683-.7132-.1914-1.0049-.1185-.2917-.3008-.5195-.5468-.6836-.2416-.164-.5515-.2461-.9297-.2461zm9.0818.1572h-1.839v6.3438h-1.6061v-6.3438h-1.2373v-.7724l1.2373-.4717v-.5264c0-.6425.1002-1.153.3011-1.5312.205-.3783.496-.6494.875-.8135.382-.1686.838-.2529 1.367-.2529.346 0 .663.0296.95.0889.287.0546.529.1184.725.1914l-.417 1.2168c-.155-.0502-.328-.0957-.52-.1368-.191-.0455-.396-.0683-.615-.0683-.365 0-.634.1139-.807.3418-.168.2278-.253.5605-.253.998v.5127h1.839zm4.509-1.3671c.957 0 1.679.2119 2.167.6357.492.4238.738 1.0846.738 1.9824v5.0928h-1.141l-.308-1.0732h-.055c-.214.2734-.435.499-.663.6767s-.492.3099-.793.3965c-.296.0911-.658.1367-1.087.1367-.451 0-.854-.082-1.21-.2461-.355-.1686-.635-.4238-.84-.7656s-.308-.7747-.308-1.2988c0-.7793.289-1.3649.868-1.7569.583-.3919 1.463-.6084 2.639-.6494l1.312-.0478v-.3965c0-.5241-.123-.8978-.369-1.1211-.241-.2233-.583-.335-1.025-.335-.378 0-.745.0547-1.101.1641-.355.1094-.702.2438-1.039.4033l-.519-1.1348c.369-.1959.788-.3554 1.257-.4785.474-.123.967-.1845 1.477-.1845zm1.312 4.0947-.977.0342c-.802.0273-1.365.164-1.689.4101-.323.2461-.485.5834-.485 1.0117 0 .3737.112.6472.335.8204.223.1686.517.2529.882.2529.556 0 1.016-.1572 1.381-.4717.369-.319.553-.7861.553-1.4014zm10.689-3.9512v7.5674h-1.265l-.218-1.0186h-.089c-.16.2598-.363.4763-.609.6495-.246.1686-.519.2939-.82.3759-.301.0866-.618.1299-.95.1299-.57 0-1.058-.0957-1.463-.2871-.401-.196-.709-.4967-.923-.9023s-.321-.9297-.321-1.5723v-4.9424h1.613v4.6416c0 .5879.119 1.0277.356 1.3194.241.2916.615.4375 1.121.4375.487 0 .875-.1003 1.162-.3008s.49-.4968.608-.8887c.123-.3919.185-.8727.185-1.4424v-3.7666zm4.167 7.5674h-1.613v-10.6367h1.613zm5.363-1.1621c.21 0 .417-.0182.622-.0547.205-.041.392-.0889.561-.1436v1.2168c-.178.0775-.408.1436-.691.1983-.282.0547-.576.082-.881.082-.429 0-.814-.0706-1.156-.2119-.341-.1458-.613-.3942-.813-.7451-.201-.3509-.301-.8363-.301-1.4561v-4.0674h-1.032v-.7177l1.107-.5674.527-1.6201h1.011v1.6816h2.167v1.2236h-2.167v4.0469c0 .3828.096.6677.287.8545.192.1869.445.2803.759.2803z"/><path d="m147.25 46c-5.53 0-10 4.47-10 10s4.47 10 10 10 10-4.47 10-10-4.47-10-10-10zm4.3 14.3c-.39.39-1.02.39-1.41 0l-2.89-2.89-2.89 2.89c-.39.39-1.02.39-1.41 0s-.39-1.02 0-1.41l2.89-2.89-2.89-2.89c-.39-.39-.39-1.02 0-1.41s1.02-.39 1.41 0l2.89 2.89 2.89-2.89c.39-.39 1.02-.39 1.41 0s.39 1.02 0 1.41l-2.89 2.89 2.89 2.89c.38.38.38 1.02 0 1.41z"/></g><path d="m0 0h238.5v112h-238.5z" fill="#f1f1f6" transform="translate(240.5)"/><rect fill="#0063a3" fill-opacity=".3" height="32" rx="16" width="111" x="304.25" y="40"/><g clip-path="url(#d)" fill="#252a2e"><path d="m323.444 58.2793c0 .5924-.145 1.1029-.437 1.5312-.287.4284-.702.7566-1.244.9844-.538.2279-1.181.3418-1.928.3418-.365 0-.713-.0205-1.046-.0615s-.647-.1003-.943-.1777c-.292-.0821-.559-.1801-.8-.294v-1.5449c.405.1777.859.3395 1.36.4853.502.1413 1.012.212 1.532.212.423 0 .774-.0547 1.052-.1641.283-.1139.492-.2734.629-.4785.137-.2097.205-.4535.205-.7315 0-.2962-.08-.5468-.239-.7519-.16-.2051-.401-.3919-.725-.5606-.319-.1731-.72-.3577-1.203-.5537-.328-.1321-.642-.2825-.943-.4511-.296-.1687-.561-.3669-.793-.5948-.233-.2278-.417-.4967-.554-.8066-.132-.3145-.198-.6836-.198-1.1074 0-.5651.134-1.0482.403-1.4493.274-.401.657-.7086 1.149-.9228.496-.2142 1.075-.3213 1.736-.3213.524 0 1.016.0547 1.477.1641.464.1093.92.2643 1.367.4648l-.52 1.3193c-.41-.1686-.809-.303-1.196-.4033-.383-.1002-.775-.1504-1.176-.1504-.346 0-.64.0524-.882.1573-.241.1048-.426.2529-.553.4443-.123.1868-.185.4102-.185.6699 0 .2917.071.5378.212.7383.146.196.369.376.67.54.305.1641.697.3464 1.176.5469.551.2279 1.018.4671 1.401.7178.387.2506.684.5514.889.9023.205.3464.307.7816.307 1.3057zm5.029-4.9902c.674 0 1.253.139 1.736.417.483.2779.854.6722 1.114 1.1826s.39 1.1211.39 1.832v.8613h-5.052c.018.7338.214 1.2989.588 1.6953.378.3965.907.5948 1.586.5948.483 0 .916-.0456 1.299-.1367.387-.0958.786-.2347 1.196-.417v1.3056c-.378.1778-.763.3076-1.155.3897-.392.082-.862.123-1.408.123-.743 0-1.397-.1435-1.962-.4306-.561-.2917-1.001-.7247-1.32-1.2989-.314-.5742-.471-1.2874-.471-2.1396 0-.8477.143-1.5677.43-2.1602.287-.5924.691-1.0436 1.21-1.3535.52-.3099 1.126-.4648 1.819-.4648zm0 1.2099c-.506 0-.916.1641-1.231.4922-.31.3281-.492.8089-.547 1.4424h3.446c-.005-.3783-.069-.7132-.192-1.0049-.118-.2917-.301-.5195-.547-.6836-.241-.164-.551-.2461-.929-.2461zm6.915 6.501h-1.614v-10.6367h1.614zm5.561-7.7109c.675 0 1.253.139 1.737.417.483.2779.854.6722 1.114 1.1826s.389 1.1211.389 1.832v.8613h-5.051c.018.7338.214 1.2989.588 1.6953.378.3965.906.5948 1.586.5948.483 0 .916-.0456 1.298-.1367.388-.0958.786-.2347 1.197-.417v1.3056c-.379.1778-.764.3076-1.156.3897-.392.082-.861.123-1.408.123-.743 0-1.397-.1435-1.962-.4306-.56-.2917-1-.7247-1.319-1.2989-.315-.5742-.472-1.2874-.472-2.1396 0-.8477.144-1.5677.431-2.1602.287-.5924.69-1.0436 1.21-1.3535.519-.3099 1.126-.4648 1.818-.4648zm0 1.2099c-.506 0-.916.1641-1.23.4922-.31.3281-.492.8089-.547 1.4424h3.445c-.004-.3783-.068-.7132-.191-1.0049-.119-.2917-.301-.5195-.547-.6836-.242-.164-.552-.2461-.93-.2461zm8.351 6.6377c-.716 0-1.335-.139-1.86-.417-.524-.278-.927-.7041-1.21-1.2783-.282-.5742-.423-1.3034-.423-2.1875 0-.9206.155-1.6725.464-2.2559.31-.5833.739-1.014 1.286-1.2919.551-.278 1.182-.417 1.893-.417.451 0 .859.0455 1.224.1367.369.0866.681.1937.936.3213l-.478 1.2851c-.278-.1139-.563-.2096-.855-.2871-.291-.0775-.572-.1162-.84-.1162-.443 0-.812.098-1.108.294-.292.1959-.51.4876-.656.875-.141.3873-.212.8681-.212 1.4423 0 .556.073 1.0254.219 1.4082.146.3783.362.6654.649.8614.287.1914.64.2871 1.06.2871.414 0 .786-.0502 1.114-.1504.328-.1003.638-.2302.93-.3897v1.3946c-.287.164-.595.2848-.923.3623-.328.082-.732.123-1.21.123zm6.976-1.2988c.21 0 .417-.0182.622-.0547.206-.041.392-.0889.561-.1436v1.2168c-.178.0775-.408.1436-.69.1983-.283.0547-.577.082-.882.082-.429 0-.814-.0706-1.156-.2119-.341-.1458-.613-.3942-.813-.7451-.201-.3509-.301-.8363-.301-1.4561v-4.0674h-1.032v-.7177l1.107-.5674.527-1.6201h1.011v1.6816h2.167v1.2236h-2.167v4.0469c0 .3828.096.6677.288.8545.191.1869.444.2803.758.2803zm5.986-6.5488c.674 0 1.253.139 1.736.417.483.2779.855.6722 1.114 1.1826.26.5104.39 1.1211.39 1.832v.8613h-5.052c.018.7338.214 1.2989.588 1.6953.378.3965.907.5948 1.586.5948.483 0 .916-.0456 1.299-.1367.387-.0958.786-.2347 1.196-.417v1.3056c-.378.1778-.763.3076-1.155.3897-.392.082-.861.123-1.408.123-.743 0-1.397-.1435-1.962-.4306-.561-.2917-1.001-.7247-1.32-1.2989-.314-.5742-.471-1.2874-.471-2.1396 0-.8477.143-1.5677.43-2.1602.288-.5924.691-1.0436 1.21-1.3535.52-.3099 1.126-.4648 1.819-.4648zm0 1.2099c-.506 0-.916.1641-1.231.4922-.31.3281-.492.8089-.547 1.4424h3.446c-.005-.3783-.069-.7132-.192-1.0049-.118-.2917-.3-.5195-.547-.6836-.241-.164-.551-.2461-.929-.2461zm7.844 6.6377c-.902 0-1.627-.3281-2.173-.9844-.543-.6608-.814-1.6337-.814-2.9189 0-1.2988.276-2.2809.827-2.9463.556-.6654 1.288-.998 2.195-.998.382 0 .717.0524 1.005.1572.287.1002.533.237.738.4101.209.1732.387.3669.533.5811h.075c-.023-.1413-.05-.3441-.082-.6084-.027-.2689-.041-.5173-.041-.7451v-2.7207h1.613v10.6367h-1.257l-.287-1.0322h-.069c-.137.2187-.31.417-.519.5947-.205.1732-.452.3122-.739.417-.282.1048-.617.1572-1.005.1572zm.452-1.3056c.688 0 1.173-.1983 1.456-.5948.282-.3965.428-.9912.437-1.7842v-.2119c0-.8476-.137-1.497-.41-1.9482-.273-.4557-.772-.6836-1.497-.6836-.579 0-1.021.2347-1.326.7041-.301.4648-.451 1.1143-.451 1.9482 0 .834.15 1.472.451 1.9141.305.4375.752.6563 1.34.6563z"/><path d="m391.25 46c-5.53 0-10 4.47-10 10s4.47 10 10 10 10-4.47 10-10-4.47-10-10-10zm4.3 14.3c-.39.39-1.02.39-1.41 0l-2.89-2.89-2.89 2.89c-.39.39-1.02.39-1.41 0s-.39-1.02 0-1.41l2.89-2.89-2.89-2.89c-.39-.39-.39-1.02 0-1.41s1.02-.39 1.41 0l2.89 2.89 2.89-2.89c.39-.39 1.02-.39 1.41 0s.39 1.02 0 1.41l-2.89 2.89 2.89 2.89c.38.38.38 1.02 0 1.41z"/></g><path d="m0 0h238.5v112h-238.5z" fill="#f1f1f6" transform="translate(481)"/><g opacity=".3"><rect fill="#cbcdd6" height="32" rx="16" width="113" x="543.75" y="40"/><g clip-path="url(#e)" fill="#252a2e"><path d="m565.53 55.9072c0 1.1257-.209 2.0668-.629 2.8233-.419.7519-1.027 1.3193-1.825 1.7021-.797.3783-1.759.5674-2.885.5674h-2.775v-9.9941h3.076c1.035 0 1.928.1868 2.68.5605.752.3691 1.333.9183 1.743 1.6475.41.7246.615 1.6224.615 2.6933zm-1.709.0479c0-.8203-.13-1.4948-.389-2.0235-.256-.5286-.634-.9205-1.135-1.1757-.497-.2598-1.11-.3897-1.839-.3897h-1.401v7.2598h1.162c1.207 0 2.11-.3076 2.707-.9229.597-.6152.895-1.5312.895-2.748zm5.555-2.5225v7.5674h-1.606v-7.5674zm-.793-2.8984c.246 0 .458.0661.636.1982.182.1322.273.36.273.6836 0 .319-.091.5469-.273.6836-.178.1322-.39.1983-.636.1983-.255 0-.472-.0661-.649-.1983-.174-.1367-.26-.3646-.26-.6836 0-.3236.086-.5514.26-.6836.177-.1321.394-.1982.649-.1982zm8.433 8.3056c0 .4968-.121.9161-.363 1.2579-.241.3418-.594.6015-1.059.7793-.461.1731-1.026.2597-1.696.2597-.528 0-.984-.0387-1.367-.1162-.378-.0729-.736-.1868-1.073-.3418v-1.3877c.36.1686.763.3145 1.21.4375.451.1231.877.1846 1.278.1846.529 0 .909-.082 1.142-.2461.232-.1686.349-.3919.349-.6699 0-.1641-.048-.3099-.144-.4375-.091-.1322-.264-.2666-.52-.4034-.25-.1412-.619-.3098-1.107-.5058-.478-.1914-.882-.3828-1.21-.5742s-.576-.4216-.745-.6905c-.169-.2734-.253-.622-.253-1.0459 0-.6699.264-1.178.793-1.5244.533-.3509 1.237-.5263 2.112-.5263.465 0 .903.0478 1.313.1435.414.0912.82.2256 1.217.4033l-.506 1.21c-.342-.1504-.686-.2734-1.033-.3691-.341-.1003-.69-.1504-1.045-.1504-.415 0-.732.0638-.951.1914-.214.1276-.321.3099-.321.5468 0 .1778.053.3282.157.4512.105.1231.285.2461.54.3692.26.123.62.2757 1.08.458.452.1731.841.3554 1.169.5468.333.1869.588.417.766.6905.178.2734.267.6266.267 1.0595zm4.953-5.5507c.957 0 1.679.2119 2.167.6357.492.4238.738 1.0846.738 1.9824v5.0928h-1.142l-.307-1.0732h-.055c-.214.2734-.435.499-.663.6767s-.492.3099-.793.3965c-.296.0911-.658.1367-1.087.1367-.451 0-.854-.082-1.21-.2461-.355-.1686-.636-.4238-.841-.7656s-.307-.7747-.307-1.2988c0-.7793.289-1.3649.868-1.7569.583-.3919 1.463-.6084 2.639-.6494l1.312-.0478v-.3965c0-.5241-.123-.8978-.369-1.1211-.242-.2233-.583-.335-1.025-.335-.379 0-.746.0547-1.101.1641s-.702.2438-1.039.4033l-.52-1.1348c.37-.1959.789-.3554 1.258-.4785.474-.123.966-.1845 1.477-.1845zm1.312 4.0947-.977.0342c-.802.0273-1.365.164-1.689.4101-.323.2461-.485.5834-.485 1.0117 0 .3737.112.6472.335.8204.223.1686.517.2529.882.2529.556 0 1.016-.1572 1.381-.4717.369-.319.553-.7861.553-1.4014zm5.698-7.0205v2.5635c0 .2962-.009.5878-.027.875-.014.2825-.027.5035-.041.663h.068c.206-.3281.49-.6038.855-.8271.369-.2279.841-.3418 1.415-.3418.898 0 1.62.3304 2.167.9912.547.6563.82 1.6292.82 2.919 0 .8567-.125 1.5768-.376 2.1601-.25.5833-.603 1.0254-1.059 1.3262-.451.2962-.982.4443-1.593.4443-.574 0-1.039-.1048-1.395-.3144-.35-.2142-.626-.4626-.827-.7452h-.116l-.294.9229h-1.203v-10.6367zm1.846 4.2383c-.456 0-.818.0911-1.087.2734-.264.1823-.455.4557-.574.8203-.118.36-.18.818-.185 1.374v.1436c0 .8431.133 1.4879.397 1.9346.269.4466.756.6699 1.463.6699.56 0 .991-.2256 1.292-.6768.301-.4557.451-1.1074.451-1.9551 0-.8567-.15-1.5016-.451-1.9345-.296-.433-.732-.6494-1.306-.6494zm7.134 6.3984h-1.613v-10.6367h1.613zm5.562-7.7109c.674 0 1.253.139 1.736.417.483.2779.854.6722 1.114 1.1826s.39 1.1211.39 1.832v.8613h-5.052c.018.7338.214 1.2989.588 1.6953.378.3965.907.5948 1.586.5948.483 0 .916-.0456 1.299-.1367.387-.0958.786-.2347 1.196-.417v1.3056c-.378.1778-.763.3076-1.155.3897-.392.082-.862.123-1.409.123-.742 0-1.396-.1435-1.961-.4306-.561-.2917-1.001-.7247-1.32-1.2989-.314-.5742-.471-1.2874-.471-2.1396 0-.8477.143-1.5677.43-2.1602.287-.5924.691-1.0436 1.21-1.3535.52-.3099 1.126-.4648 1.819-.4648zm0 1.2099c-.506 0-.917.1641-1.231.4922-.31.3281-.492.8089-.547 1.4424h3.445c-.004-.3783-.068-.7132-.191-1.0049-.118-.2917-.301-.5195-.547-.6836-.241-.164-.551-.2461-.929-.2461zm7.844 6.6377c-.902 0-1.627-.3281-2.174-.9844-.542-.6608-.813-1.6337-.813-2.9189 0-1.2988.276-2.2809.827-2.9463.556-.6654 1.288-.998 2.194-.998.383 0 .718.0524 1.005.1572.287.1002.534.237.739.4101.209.1732.387.3669.533.5811h.075c-.023-.1413-.05-.3441-.082-.6084-.027-.2689-.041-.5173-.041-.7451v-2.7207h1.613v10.6367h-1.258l-.287-1.0322h-.068c-.137.2187-.31.417-.52.5947-.205.1732-.451.3122-.738.417-.282.1048-.617.1572-1.005.1572zm.451-1.3056c.689 0 1.174-.1983 1.456-.5948.283-.3965.429-.9912.438-1.7842v-.2119c0-.8476-.137-1.497-.41-1.9482-.274-.4557-.773-.6836-1.497-.6836-.579 0-1.021.2347-1.326.7041-.301.4648-.452 1.1143-.452 1.9482 0 .834.151 1.472.452 1.9141.305.4375.752.6563 1.339.6563z"/><path d="m632.75 46c-5.53 0-10 4.47-10 10s4.47 10 10 10 10-4.47 10-10-4.47-10-10-10zm4.3 14.3c-.39.39-1.02.39-1.41 0l-2.89-2.89-2.89 2.89c-.39.39-1.02.39-1.41 0s-.39-1.02 0-1.41l2.89-2.89-2.89-2.89c-.39-.39-.39-1.02 0-1.41s1.02-.39 1.41 0l2.89 2.89 2.89-2.89c.39-.39 1.02-.39 1.41 0s.39 1.02 0 1.41l-2.89 2.89 2.89 2.89c.38.38.38 1.02 0 1.41z"/></g></g><path d="m0 0h238.5v112h-238.5z" fill="#f1f1f6" transform="translate(721.5)"/><rect fill="#fbd4d7" height="32" rx="16" width="88" x="796.75" y="40"/><g clip-path="url(#f)" fill="#ab1f26"><path d="m815.976 61h-5.661v-9.9941h5.661v1.3808h-4.02v2.7139h3.767v1.374h-3.767v3.1377h4.02zm6.081-7.7109c.127 0 .266.0068.417.0205.15.0136.28.0319.389.0547l-.15 1.5039c-.096-.0274-.214-.0479-.356-.0616-.136-.0136-.259-.0205-.369-.0205-.287 0-.56.0479-.82.1436-.26.0911-.49.2324-.69.4238-.201.1869-.358.4216-.472.7041-.114.2826-.171.6107-.171.9844v3.958h-1.613v-7.5674h1.257l.219 1.333h.075c.151-.2689.338-.5149.561-.7383.223-.2233.478-.401.766-.5332.291-.1367.61-.205.957-.205zm6.293 0c.127 0 .266.0068.417.0205.15.0136.28.0319.389.0547l-.15 1.5039c-.096-.0274-.214-.0479-.356-.0616-.136-.0136-.259-.0205-.369-.0205-.287 0-.56.0479-.82.1436-.26.0911-.49.2324-.69.4238-.201.1869-.358.4216-.472.7041-.114.2826-.171.6107-.171.9844v3.958h-1.613v-7.5674h1.257l.219 1.333h.075c.151-.2689.338-.5149.561-.7383.223-.2233.478-.401.766-.5332.291-.1367.61-.205.957-.205zm9.157 3.9101c0 .6289-.082 1.1872-.246 1.6748-.164.4877-.404.9001-.718 1.2373-.314.3327-.693.5879-1.135.7657-.442.1731-.941.2597-1.497.2597-.519 0-.996-.0866-1.429-.2597-.433-.1778-.808-.433-1.128-.7657-.314-.3372-.558-.7496-.731-1.2373-.173-.4876-.26-1.0459-.26-1.6748 0-.834.144-1.5403.431-2.1191.292-.5834.706-1.0277 1.244-1.333.538-.3054 1.178-.458 1.921-.458.697 0 1.312.1526 1.846.458.533.3053.95.7496 1.251 1.333.3.5833.451 1.2897.451 2.1191zm-5.489 0c0 .5515.066 1.0231.198 1.4151.137.3919.346.6927.629.9023.282.2051.647.3076 1.093.3076.447 0 .812-.1025 1.094-.3076.283-.2096.49-.5104.622-.9023.132-.392.199-.8636.199-1.4151 0-.5514-.067-1.0185-.199-1.4013-.132-.3874-.339-.6814-.622-.8819-.282-.2051-.649-.3076-1.1-.3076-.666 0-1.151.2233-1.456.6699-.306.4466-.458 1.0869-.458 1.9209zm11.42-3.9101c.127 0 .266.0068.416.0205.151.0136.281.0319.39.0547l-.15 1.5039c-.096-.0274-.214-.0479-.356-.0616-.136-.0136-.259-.0205-.369-.0205-.287 0-.56.0479-.82.1436-.26.0911-.49.2324-.691.4238-.2.1869-.357.4216-.471.7041-.114.2826-.171.6107-.171.9844v3.958h-1.613v-7.5674h1.257l.219 1.333h.075c.151-.2689.338-.5149.561-.7383.223-.2233.478-.401.765-.5332.292-.1367.611-.205.958-.205z"/><path d="m860.75 46c-5.53 0-10 4.47-10 10s4.47 10 10 10 10-4.47 10-10-4.47-10-10-10zm4.3 14.3c-.39.39-1.02.39-1.41 0l-2.89-2.89-2.89 2.89c-.39.39-1.02.39-1.41 0s-.39-1.02 0-1.41l2.89-2.89-2.89-2.89c-.39-.39-.39-1.02 0-1.41s1.02-.39 1.41 0l2.89 2.89 2.89-2.89c.39-.39 1.02-.39 1.41 0s.39 1.02 0 1.41l-2.89 2.89 2.89 2.89c.38.38.38 1.02 0 1.41z"/></g></g></g></svg>