<svg width="960" height="128" viewBox="0 0 960 128" fill="none" xmlns="http://www.w3.org/2000/svg">
<g clip-path="url(#clip0_248_54034)">
<g clip-path="url(#clip1_248_54034)">
<rect width="479" height="128" fill="#F1F1F6"/>
<rect x="171" y="48" width="137" height="32" rx="16" fill="#CBCDD6"/>
<g clip-path="url(#clip2_248_54034)">
<path d="M190.219 66.2793C190.219 66.8717 190.073 67.3822 189.781 67.8105C189.494 68.2389 189.079 68.5671 188.537 68.7949C187.999 69.0228 187.357 69.1367 186.609 69.1367C186.245 69.1367 185.896 69.1162 185.563 69.0752C185.231 69.0342 184.916 68.9749 184.62 68.8975C184.328 68.8154 184.062 68.7174 183.82 68.6035V67.0586C184.226 67.2363 184.679 67.3981 185.181 67.5439C185.682 67.6852 186.192 67.7559 186.712 67.7559C187.136 67.7559 187.487 67.7012 187.765 67.5918C188.047 67.4779 188.257 67.3184 188.394 67.1133C188.53 66.9036 188.599 66.6598 188.599 66.3818C188.599 66.0856 188.519 65.835 188.359 65.6299C188.2 65.4248 187.958 65.238 187.635 65.0693C187.316 64.8962 186.915 64.7116 186.432 64.5156C186.104 64.3835 185.789 64.2331 185.488 64.0645C185.192 63.8958 184.928 63.6976 184.695 63.4697C184.463 63.2419 184.278 62.973 184.142 62.6631C184.009 62.3486 183.943 61.9795 183.943 61.5557C183.943 60.9906 184.078 60.5075 184.347 60.1064C184.62 59.7054 185.003 59.3978 185.495 59.1836C185.992 58.9694 186.571 58.8623 187.231 58.8623C187.756 58.8623 188.248 58.917 188.708 59.0264C189.173 59.1357 189.629 59.2907 190.075 59.4912L189.556 60.8105C189.146 60.6419 188.747 60.5075 188.359 60.4072C187.977 60.307 187.585 60.2568 187.184 60.2568C186.837 60.2568 186.543 60.3092 186.302 60.4141C186.06 60.5189 185.876 60.667 185.748 60.8584C185.625 61.0452 185.563 61.2686 185.563 61.5283C185.563 61.82 185.634 62.0661 185.775 62.2666C185.921 62.4626 186.145 62.6426 186.445 62.8066C186.751 62.9707 187.143 63.153 187.621 63.3535C188.173 63.5814 188.64 63.8206 189.022 64.0713C189.41 64.3219 189.706 64.6227 189.911 64.9736C190.116 65.32 190.219 65.7552 190.219 66.2793ZM200.784 61.2891C201.632 61.2891 202.27 61.5078 202.698 61.9453C203.131 62.3828 203.348 63.0846 203.348 64.0508V69H201.741V64.3379C201.741 63.7637 201.63 63.3307 201.406 63.0391C201.183 62.7474 200.843 62.6016 200.388 62.6016C199.75 62.6016 199.289 62.8066 199.007 63.2168C198.729 63.6224 198.59 64.2126 198.59 64.9873V69H196.983V64.3379C196.983 63.9551 196.933 63.6361 196.833 63.3809C196.737 63.1211 196.589 62.9274 196.389 62.7998C196.188 62.6676 195.935 62.6016 195.63 62.6016C195.188 62.6016 194.835 62.7018 194.57 62.9023C194.311 63.1029 194.124 63.3991 194.01 63.791C193.896 64.1784 193.839 64.6546 193.839 65.2197V69H192.232V61.4326H193.483L193.709 62.4512H193.798C193.953 62.1868 194.144 61.9704 194.372 61.8018C194.604 61.6286 194.862 61.501 195.145 61.4189C195.427 61.3324 195.721 61.2891 196.026 61.2891C196.591 61.2891 197.068 61.3893 197.455 61.5898C197.842 61.7858 198.132 62.0866 198.323 62.4922H198.446C198.683 62.082 199.014 61.779 199.438 61.583C199.861 61.387 200.31 61.2891 200.784 61.2891ZM208.807 61.2891C209.764 61.2891 210.486 61.501 210.974 61.9248C211.466 62.3486 211.712 63.0094 211.712 63.9072V69H210.57L210.263 67.9268H210.208C209.994 68.2002 209.773 68.4258 209.545 68.6035C209.317 68.7812 209.053 68.9134 208.752 69C208.456 69.0911 208.093 69.1367 207.665 69.1367C207.214 69.1367 206.811 69.0547 206.455 68.8906C206.1 68.722 205.819 68.4668 205.614 68.125C205.409 67.7832 205.307 67.3503 205.307 66.8262C205.307 66.0469 205.596 65.4613 206.175 65.0693C206.758 64.6774 207.638 64.4609 208.813 64.4199L210.126 64.3721V63.9756C210.126 63.4515 210.003 63.0778 209.757 62.8545C209.515 62.6312 209.174 62.5195 208.731 62.5195C208.353 62.5195 207.986 62.5742 207.631 62.6836C207.275 62.793 206.929 62.9274 206.592 63.0869L206.072 61.9521C206.441 61.7562 206.861 61.5967 207.33 61.4736C207.804 61.3506 208.296 61.2891 208.807 61.2891ZM210.119 65.3838L209.142 65.418C208.34 65.4453 207.777 65.582 207.453 65.8281C207.13 66.0742 206.968 66.4115 206.968 66.8398C206.968 67.2135 207.079 67.487 207.303 67.6602C207.526 67.8288 207.82 67.9131 208.185 67.9131C208.741 67.9131 209.201 67.7559 209.565 67.4414C209.935 67.1224 210.119 66.6553 210.119 66.04V65.3838ZM215.824 69H214.211V58.3633H215.824V69ZM219.984 69H218.371V58.3633H219.984V69ZM225.83 65.165C225.83 64.3994 225.903 63.652 226.049 62.9229C226.199 62.1937 226.427 61.4987 226.732 60.8379C227.038 60.1771 227.423 59.5664 227.888 59.0059H229.289C228.637 59.8763 228.145 60.8402 227.812 61.8975C227.484 62.9548 227.32 64.0394 227.32 65.1514C227.32 65.876 227.393 66.5938 227.539 67.3047C227.685 68.0156 227.904 68.6992 228.195 69.3555C228.487 70.0163 228.847 70.6361 229.275 71.2148H227.888C227.423 70.668 227.038 70.071 226.732 69.4238C226.427 68.7767 226.199 68.0931 226.049 67.373C225.903 66.653 225.83 65.917 225.83 65.165ZM236.977 61.2891C236.977 61.7402 236.885 62.1322 236.703 62.4648C236.521 62.7975 236.27 63.071 235.951 63.2852C235.637 63.4948 235.272 63.6452 234.857 63.7363V63.7842C235.655 63.8844 236.257 64.1351 236.662 64.5361C237.072 64.9372 237.277 65.4681 237.277 66.1289C237.277 66.7077 237.138 67.2249 236.86 67.6807C236.582 68.1318 236.156 68.4873 235.582 68.7471C235.008 69.0068 234.27 69.1367 233.367 69.1367C232.825 69.1367 232.321 69.0934 231.856 69.0068C231.396 68.9202 230.959 68.7812 230.544 68.5898V67.1611C230.968 67.3708 231.419 67.5326 231.897 67.6465C232.376 67.7604 232.829 67.8174 233.258 67.8174C234.092 67.8174 234.687 67.6624 235.042 67.3525C235.397 67.0381 235.575 66.6051 235.575 66.0537C235.575 65.6982 235.482 65.4066 235.295 65.1787C235.113 64.9508 234.828 64.7799 234.44 64.666C234.058 64.5521 233.563 64.4951 232.957 64.4951H232.075V63.2031H232.964C233.543 63.2031 234.007 63.1348 234.358 62.998C234.709 62.8568 234.962 62.6631 235.117 62.417C235.277 62.1709 235.356 61.8838 235.356 61.5557C235.356 61.1273 235.217 60.7946 234.939 60.5576C234.661 60.3161 234.249 60.1953 233.702 60.1953C233.365 60.1953 233.057 60.234 232.779 60.3115C232.506 60.389 232.253 60.487 232.021 60.6055C231.788 60.724 231.567 60.8516 231.357 60.9883L230.585 59.874C230.963 59.5915 231.414 59.3522 231.938 59.1562C232.463 58.9603 233.073 58.8623 233.771 58.8623C234.796 58.8623 235.587 59.0833 236.143 59.5254C236.699 59.9629 236.977 60.5508 236.977 61.2891ZM245.621 69H238.854V67.79L241.444 65.165C241.946 64.6546 242.358 64.2148 242.682 63.8457C243.005 63.472 243.244 63.1188 243.399 62.7861C243.559 62.4535 243.639 62.0911 243.639 61.6992C243.639 61.2161 243.5 60.8516 243.222 60.6055C242.944 60.3548 242.577 60.2295 242.121 60.2295C241.688 60.2295 241.287 60.3161 240.918 60.4893C240.553 60.6579 240.175 60.8994 239.783 61.2139L238.901 60.1543C239.179 59.9173 239.476 59.7008 239.79 59.5049C240.109 59.3089 240.465 59.154 240.856 59.04C241.248 58.9215 241.695 58.8623 242.196 58.8623C242.83 58.8623 243.377 58.9762 243.837 59.2041C244.297 59.4274 244.65 59.7396 244.896 60.1406C245.147 60.5417 245.272 61.0088 245.272 61.542C245.272 62.0798 245.165 62.5765 244.951 63.0322C244.737 63.488 244.432 63.9391 244.035 64.3857C243.639 64.8278 243.167 65.3086 242.62 65.8281L240.891 67.5166V67.5918H245.621V69ZM251.518 61.2891C252.415 61.2891 253.135 61.6172 253.678 62.2734C254.225 62.9297 254.498 63.9049 254.498 65.1992C254.498 66.056 254.37 66.7783 254.115 67.3662C253.865 67.9495 253.511 68.3916 253.056 68.6924C252.604 68.9886 252.078 69.1367 251.477 69.1367C251.094 69.1367 250.761 69.0866 250.479 68.9863C250.196 68.8861 249.954 68.7562 249.754 68.5967C249.553 68.4326 249.385 68.2549 249.248 68.0635H249.152C249.175 68.2458 249.196 68.4486 249.214 68.6719C249.237 68.8906 249.248 69.0911 249.248 69.2734V72.3564H247.635V61.4326H248.947L249.173 62.4785H249.248C249.389 62.2643 249.56 62.0661 249.761 61.8838C249.966 61.7015 250.212 61.5579 250.499 61.4531C250.791 61.3438 251.13 61.2891 251.518 61.2891ZM251.087 62.6016C250.645 62.6016 250.289 62.6904 250.021 62.8682C249.756 63.0413 249.562 63.3034 249.439 63.6543C249.321 64.0052 249.257 64.445 249.248 64.9736V65.1992C249.248 65.7598 249.305 66.236 249.419 66.6279C249.537 67.0153 249.731 67.3115 250 67.5166C250.273 67.7171 250.643 67.8174 251.107 67.8174C251.499 67.8174 251.823 67.7103 252.078 67.4961C252.338 67.2819 252.532 66.9766 252.659 66.5801C252.787 66.1836 252.851 65.7165 252.851 65.1787C252.851 64.363 252.705 63.7295 252.413 63.2783C252.126 62.8271 251.684 62.6016 251.087 62.6016ZM258.282 65.1309L255.753 61.4326H257.585L259.314 64.0918L261.051 61.4326H262.876L260.333 65.1309L263.006 69H261.167L259.314 66.1631L257.455 69H255.63L258.282 65.1309ZM267.296 65.1582C267.296 65.9147 267.223 66.653 267.077 67.373C266.931 68.0931 266.706 68.7767 266.4 69.4238C266.1 70.071 265.712 70.668 265.238 71.2148H263.857C264.286 70.6361 264.646 70.0163 264.938 69.3555C265.229 68.6947 265.448 68.0088 265.594 67.2979C265.74 66.5869 265.812 65.8691 265.812 65.1445C265.812 64.4062 265.737 63.6771 265.587 62.957C265.441 62.237 265.222 61.5443 264.931 60.8789C264.639 60.209 264.277 59.5846 263.844 59.0059H265.238C265.712 59.5664 266.1 60.1771 266.4 60.8379C266.706 61.4987 266.931 62.1937 267.077 62.9229C267.223 63.6475 267.296 64.3926 267.296 65.1582Z" fill="#252A2E"/>
<path d="M284 54C278.47 54 274 58.47 274 64C274 69.53 278.47 74 284 74C289.53 74 294 69.53 294 64C294 58.47 289.53 54 284 54ZM288.3 68.3C287.91 68.69 287.28 68.69 286.89 68.3L284 65.41L281.11 68.3C280.72 68.69 280.09 68.69 279.7 68.3C279.31 67.91 279.31 67.28 279.7 66.89L282.59 64L279.7 61.11C279.31 60.72 279.31 60.09 279.7 59.7C280.09 59.31 280.72 59.31 281.11 59.7L284 62.59L286.89 59.7C287.28 59.31 287.91 59.31 288.3 59.7C288.69 60.09 288.69 60.72 288.3 61.11L285.41 64L288.3 66.89C288.68 67.27 288.68 67.91 288.3 68.3Z" fill="#252A2E"/>
</g>
<rect width="479" height="128" transform="translate(481)" fill="#F1F1F6"/>
<rect x="638.5" y="40" width="164" height="48" rx="24" fill="#CBCDD6"/>
<g clip-path="url(#clip3_248_54034)">
<path d="M661.445 64.1797C661.445 65.4661 661.206 66.5417 660.727 67.4062C660.247 68.2656 659.552 68.9141 658.641 69.3516C657.729 69.7839 656.63 70 655.344 70H652.172V58.5781H655.688C656.87 58.5781 657.891 58.7917 658.75 59.2188C659.609 59.6406 660.273 60.2682 660.742 61.1016C661.211 61.9297 661.445 62.9557 661.445 64.1797ZM659.492 64.2344C659.492 63.2969 659.344 62.526 659.047 61.9219C658.755 61.3177 658.323 60.8698 657.75 60.5781C657.182 60.2812 656.482 60.1328 655.648 60.1328H654.047V68.4297H655.375C656.755 68.4297 657.786 68.0781 658.469 67.375C659.151 66.6719 659.492 65.625 659.492 64.2344ZM667.414 61.1875C668.185 61.1875 668.846 61.3464 669.398 61.6641C669.951 61.9818 670.375 62.4323 670.672 63.0156C670.969 63.599 671.117 64.2969 671.117 65.1094V66.0938H665.344C665.365 66.9323 665.589 67.5781 666.016 68.0312C666.448 68.4844 667.052 68.7109 667.828 68.7109C668.38 68.7109 668.875 68.6589 669.312 68.5547C669.755 68.4453 670.211 68.2865 670.68 68.0781V69.5703C670.247 69.7734 669.807 69.9219 669.359 70.0156C668.911 70.1094 668.375 70.1562 667.75 70.1562C666.901 70.1562 666.154 69.9922 665.508 69.6641C664.867 69.3307 664.365 68.8359 664 68.1797C663.641 67.5234 663.461 66.7083 663.461 65.7344C663.461 64.7656 663.625 63.9427 663.953 63.2656C664.281 62.5885 664.742 62.0729 665.336 61.7188C665.93 61.3646 666.622 61.1875 667.414 61.1875ZM667.414 62.5703C666.836 62.5703 666.367 62.7578 666.008 63.1328C665.654 63.5078 665.445 64.0573 665.383 64.7812H669.32C669.315 64.349 669.242 63.9661 669.102 63.6328C668.966 63.2995 668.758 63.0391 668.477 62.8516C668.201 62.6641 667.846 62.5703 667.414 62.5703ZM677.758 62.75H675.656V70H673.82V62.75H672.406V61.8672L673.82 61.3281V60.7266C673.82 59.9922 673.935 59.4089 674.164 58.9766C674.398 58.5443 674.732 58.2344 675.164 58.0469C675.602 57.8542 676.122 57.7578 676.727 57.7578C677.122 57.7578 677.484 57.7917 677.812 57.8594C678.141 57.9219 678.417 57.9948 678.641 58.0781L678.164 59.4688C677.987 59.4115 677.789 59.3594 677.57 59.3125C677.352 59.2604 677.117 59.2344 676.867 59.2344C676.451 59.2344 676.143 59.3646 675.945 59.625C675.753 59.8854 675.656 60.2656 675.656 60.7656V61.3516H677.758V62.75ZM682.875 61.1875C683.969 61.1875 684.794 61.4297 685.352 61.9141C685.914 62.3984 686.195 63.1536 686.195 64.1797V70H684.891L684.539 68.7734H684.477C684.232 69.0859 683.979 69.3438 683.719 69.5469C683.458 69.75 683.156 69.901 682.812 70C682.474 70.1042 682.06 70.1562 681.57 70.1562C681.055 70.1562 680.594 70.0625 680.188 69.875C679.781 69.6823 679.461 69.3906 679.227 69C678.992 68.6094 678.875 68.1146 678.875 67.5156C678.875 66.625 679.206 65.9557 679.867 65.5078C680.534 65.0599 681.539 64.8125 682.883 64.7656L684.383 64.7109V64.2578C684.383 63.6589 684.242 63.2318 683.961 62.9766C683.685 62.7214 683.294 62.5938 682.789 62.5938C682.357 62.5938 681.938 62.6562 681.531 62.7812C681.125 62.9062 680.729 63.0599 680.344 63.2422L679.75 61.9453C680.172 61.7214 680.651 61.5391 681.188 61.3984C681.729 61.2578 682.292 61.1875 682.875 61.1875ZM684.375 65.8672L683.258 65.9062C682.341 65.9375 681.698 66.0938 681.328 66.375C680.958 66.6562 680.773 67.0417 680.773 67.5312C680.773 67.9583 680.901 68.2708 681.156 68.4688C681.411 68.6615 681.747 68.7578 682.164 68.7578C682.799 68.7578 683.326 68.5781 683.742 68.2188C684.164 67.8542 684.375 67.3203 684.375 66.6172V65.8672ZM696.555 61.3516V70H695.109L694.859 68.8359H694.758C694.576 69.1328 694.344 69.3802 694.062 69.5781C693.781 69.7708 693.469 69.9141 693.125 70.0078C692.781 70.1068 692.419 70.1562 692.039 70.1562C691.388 70.1562 690.831 70.0469 690.367 69.8281C689.909 69.6042 689.557 69.2604 689.312 68.7969C689.068 68.3333 688.945 67.7344 688.945 67V61.3516H690.789V66.6562C690.789 67.3281 690.924 67.8307 691.195 68.1641C691.471 68.4974 691.898 68.6641 692.477 68.6641C693.034 68.6641 693.477 68.5495 693.805 68.3203C694.133 68.0911 694.365 67.7526 694.5 67.3047C694.641 66.8568 694.711 66.3073 694.711 65.6562V61.3516H696.555ZM701.281 70H699.438V57.8438H701.281V70ZM707.375 68.6719C707.615 68.6719 707.852 68.651 708.086 68.6094C708.32 68.5625 708.534 68.5078 708.727 68.4453V69.8359C708.523 69.9245 708.26 70 707.938 70.0625C707.615 70.125 707.279 70.1562 706.93 70.1562C706.44 70.1562 706 70.0755 705.609 69.9141C705.219 69.7474 704.909 69.4635 704.68 69.0625C704.451 68.6615 704.336 68.1068 704.336 67.3984V62.75H703.156V61.9297L704.422 61.2812L705.023 59.4297H706.18V61.3516H708.656V62.75H706.18V67.375C706.18 67.8125 706.289 68.138 706.508 68.3516C706.727 68.5651 707.016 68.6719 707.375 68.6719ZM714.469 65.6172C714.469 64.7422 714.552 63.888 714.719 63.0547C714.891 62.2214 715.151 61.4271 715.5 60.6719C715.849 59.9167 716.289 59.2188 716.82 58.5781H718.422C717.677 59.5729 717.115 60.6745 716.734 61.8828C716.359 63.0911 716.172 64.3307 716.172 65.6016C716.172 66.4297 716.255 67.25 716.422 68.0625C716.589 68.875 716.839 69.6562 717.172 70.4062C717.505 71.1615 717.917 71.8698 718.406 72.5312H716.82C716.289 71.9062 715.849 71.224 715.5 70.4844C715.151 69.7448 714.891 68.9635 714.719 68.1406C714.552 67.3177 714.469 66.4766 714.469 65.6172ZM728.023 67.4922H726.477V70H724.664V67.4922H719.469V66.1016L724.688 58.5469H726.477V65.9688H728.023V67.4922ZM724.664 65.9688V63.1328C724.664 62.8984 724.667 62.6615 724.672 62.4219C724.682 62.1771 724.693 61.9427 724.703 61.7188C724.714 61.4948 724.724 61.2891 724.734 61.1016C724.745 60.9089 724.753 60.75 724.758 60.625H724.695C724.596 60.8333 724.487 61.0469 724.367 61.2656C724.247 61.4792 724.12 61.6875 723.984 61.8906L721.172 65.9688H724.664ZM733.133 58.4219C733.794 58.4219 734.391 58.526 734.922 58.7344C735.453 58.9375 735.875 59.2422 736.188 59.6484C736.5 60.0547 736.656 60.5573 736.656 61.1562C736.656 61.6198 736.56 62.0234 736.367 62.3672C736.18 62.7109 735.924 63.013 735.602 63.2734C735.279 63.5286 734.917 63.7552 734.516 63.9531C734.964 64.1719 735.375 64.4245 735.75 64.7109C736.13 64.9922 736.435 65.3229 736.664 65.7031C736.898 66.0833 737.016 66.5286 737.016 67.0391C737.016 67.6797 736.852 68.2344 736.523 68.7031C736.201 69.1667 735.75 69.526 735.172 69.7812C734.594 70.0312 733.919 70.1562 733.148 70.1562C732.32 70.1562 731.615 70.0339 731.031 69.7891C730.448 69.5443 730.005 69.1953 729.703 68.7422C729.401 68.2839 729.25 67.737 729.25 67.1016C729.25 66.5755 729.354 66.1198 729.562 65.7344C729.771 65.349 730.049 65.0156 730.398 64.7344C730.753 64.4531 731.141 64.2161 731.562 64.0234C731.203 63.8099 730.875 63.5703 730.578 63.3047C730.281 63.0339 730.044 62.724 729.867 62.375C729.695 62.0208 729.609 61.612 729.609 61.1484C729.609 60.5547 729.768 60.0573 730.086 59.6562C730.404 59.25 730.828 58.9427 731.359 58.7344C731.896 58.526 732.487 58.4219 733.133 58.4219ZM731 67.0312C731 67.5312 731.177 67.9427 731.531 68.2656C731.885 68.5885 732.414 68.75 733.117 68.75C733.815 68.75 734.346 68.5911 734.711 68.2734C735.076 67.9557 735.258 67.5365 735.258 67.0156C735.258 66.6823 735.164 66.388 734.977 66.1328C734.794 65.8776 734.547 65.651 734.234 65.4531C733.927 65.25 733.586 65.0625 733.211 64.8906L732.961 64.7891C732.555 64.9609 732.206 65.1562 731.914 65.375C731.622 65.5885 731.396 65.8307 731.234 66.1016C731.078 66.3724 731 66.6823 731 67.0312ZM733.117 59.8359C732.612 59.8359 732.195 59.9609 731.867 60.2109C731.544 60.4557 731.383 60.8099 731.383 61.2734C731.383 61.6016 731.461 61.8828 731.617 62.1172C731.779 62.3516 731.995 62.5547 732.266 62.7266C732.536 62.8932 732.836 63.0495 733.164 63.1953C733.482 63.0547 733.768 62.901 734.023 62.7344C734.284 62.5625 734.49 62.3594 734.641 62.125C734.797 61.8854 734.875 61.599 734.875 61.2656C734.875 60.8073 734.711 60.4557 734.383 60.2109C734.06 59.9609 733.638 59.8359 733.117 59.8359ZM743.719 61.1875C744.745 61.1875 745.568 61.5625 746.188 62.3125C746.812 63.0625 747.125 64.1771 747.125 65.6562C747.125 66.6354 746.979 67.4609 746.688 68.1328C746.401 68.7995 745.997 69.3047 745.477 69.6484C744.961 69.987 744.359 70.1562 743.672 70.1562C743.234 70.1562 742.854 70.099 742.531 69.9844C742.208 69.8698 741.932 69.7214 741.703 69.5391C741.474 69.3516 741.281 69.1484 741.125 68.9297H741.016C741.042 69.138 741.065 69.3698 741.086 69.625C741.112 69.875 741.125 70.1042 741.125 70.3125V73.8359H739.281V61.3516H740.781L741.039 62.5469H741.125C741.286 62.3021 741.482 62.0755 741.711 61.8672C741.945 61.6589 742.227 61.4948 742.555 61.375C742.888 61.25 743.276 61.1875 743.719 61.1875ZM743.227 62.6875C742.721 62.6875 742.315 62.7891 742.008 62.9922C741.706 63.1901 741.484 63.4896 741.344 63.8906C741.208 64.2917 741.135 64.7943 741.125 65.3984V65.6562C741.125 66.2969 741.19 66.8411 741.32 67.2891C741.456 67.7318 741.677 68.0703 741.984 68.3047C742.297 68.5339 742.719 68.6484 743.25 68.6484C743.698 68.6484 744.068 68.526 744.359 68.2812C744.656 68.0365 744.878 67.6875 745.023 67.2344C745.169 66.7812 745.242 66.2474 745.242 65.6328C745.242 64.7005 745.076 63.9766 744.742 63.4609C744.414 62.9453 743.909 62.6875 743.227 62.6875ZM751.414 65.5781L748.523 61.3516H750.617L752.594 64.3906L754.578 61.3516H756.664L753.758 65.5781L756.812 70H754.711L752.594 66.7578L750.469 70H748.383L751.414 65.5781ZM761.68 65.6094C761.68 66.474 761.596 67.3177 761.43 68.1406C761.263 68.9635 761.005 69.7448 760.656 70.4844C760.312 71.224 759.87 71.9062 759.328 72.5312H757.75C758.24 71.8698 758.651 71.1615 758.984 70.4062C759.318 69.651 759.568 68.8672 759.734 68.0547C759.901 67.2422 759.984 66.4219 759.984 65.5938C759.984 64.75 759.898 63.9167 759.727 63.0938C759.56 62.2708 759.31 61.4792 758.977 60.7188C758.643 59.9531 758.229 59.2396 757.734 58.5781H759.328C759.87 59.2188 760.312 59.9167 760.656 60.6719C761.005 61.4271 761.263 62.2214 761.43 63.0547C761.596 63.8828 761.68 64.7344 761.68 65.6094Z" fill="#252A2E"/>
<path d="M778.5 54C772.97 54 768.5 58.47 768.5 64C768.5 69.53 772.97 74 778.5 74C784.03 74 788.5 69.53 788.5 64C788.5 58.47 784.03 54 778.5 54ZM782.8 68.3C782.41 68.69 781.78 68.69 781.39 68.3L778.5 65.41L775.61 68.3C775.22 68.69 774.59 68.69 774.2 68.3C773.81 67.91 773.81 67.28 774.2 66.89L777.09 64L774.2 61.11C773.81 60.72 773.81 60.09 774.2 59.7C774.59 59.31 775.22 59.31 775.61 59.7L778.5 62.59L781.39 59.7C781.78 59.31 782.41 59.31 782.8 59.7C783.19 60.09 783.19 60.72 782.8 61.11L779.91 64L782.8 66.89C783.18 67.27 783.18 67.91 782.8 68.3Z" fill="#252A2E"/>
</g>
</g>
</g>
<defs>
<clipPath id="clip0_248_54034">
<rect width="960" height="128" fill="white"/>
</clipPath>
<clipPath id="clip1_248_54034">
<rect width="960" height="128" fill="white"/>
</clipPath>
<clipPath id="clip2_248_54034">
<rect width="113" height="24" fill="white" transform="translate(183 52)"/>
</clipPath>
<clipPath id="clip3_248_54034">
<rect width="140" height="24" fill="white" transform="translate(650.5 52)"/>
</clipPath>
</defs>
</svg>
