<svg width="96" height="64" viewBox="0 0 96 64" fill="none" xmlns="http://www.w3.org/2000/svg">
<rect width="96" height="64" rx="4" fill="#0063A3"/>
<path d="M21.9999 16.5835C21.2632 16.5835 20.5638 16.7299 19.9268 16.994C19.2891 17.2585 18.5578 16.9559 18.2933 16.3182C18.0289 15.6805 18.3315 14.9492 18.9692 14.6847C19.9044 14.2969 20.9288 14.0835 21.9999 14.0835H24.4999C25.1903 14.0835 25.7499 14.6431 25.7499 15.3335C25.7499 16.0239 25.1903 16.5835 24.4999 16.5835H21.9999Z" fill="white"/>
<path d="M28.2499 15.3335C28.2499 14.6431 28.8096 14.0835 29.4999 14.0835H34.4999C35.1903 14.0835 35.7499 14.6431 35.7499 15.3335C35.7499 16.0239 35.1903 16.5835 34.4999 16.5835H29.4999C28.8096 16.5835 28.2499 16.0239 28.2499 15.3335Z" fill="white"/>
<path d="M38.2499 15.3335C38.2499 14.6431 38.8096 14.0835 39.4999 14.0835H41.9999C43.071 14.0835 44.0955 14.2969 45.0307 14.6847C45.6684 14.9492 45.9709 15.6805 45.7065 16.3182C45.4421 16.9559 44.7107 17.2585 44.073 16.994C43.4361 16.7299 42.7367 16.5835 41.9999 16.5835H39.4999C38.8096 16.5835 38.2499 16.0239 38.2499 15.3335Z" fill="white"/>
<path d="M16.3179 18.2936C16.9556 18.558 17.2582 19.2894 16.9938 19.9271C16.7297 20.564 16.5833 21.2634 16.5833 22.0002V24.5002C16.5833 25.1905 16.0236 25.7502 15.3333 25.7502C14.6429 25.7502 14.0833 25.1905 14.0833 24.5002V22.0002C14.0833 20.929 14.2967 19.9046 14.6845 18.9694C14.9489 18.3317 15.6802 18.0291 16.3179 18.2936Z" fill="white"/>
<path d="M47.6819 18.2936C48.3196 18.0291 49.0509 18.3317 49.3154 18.9694C49.7032 19.9046 49.9166 20.929 49.9166 22.0002V24.5002C49.9166 25.1905 49.3569 25.7502 48.6666 25.7502C47.9762 25.7502 47.4166 25.1905 47.4166 24.5002V22.0002C47.4166 21.2634 47.2702 20.564 47.0061 19.9271C46.7416 19.2894 47.0442 18.558 47.6819 18.2936Z" fill="white"/>
<path d="M15.3333 28.2502C16.0236 28.2502 16.5833 28.8098 16.5833 29.5002V34.5002C16.5833 35.1905 16.0236 35.7502 15.3333 35.7502C14.6429 35.7502 14.0833 35.1905 14.0833 34.5002V29.5002C14.0833 28.8098 14.6429 28.2502 15.3333 28.2502Z" fill="white"/>
<path d="M48.6666 28.2502C49.3569 28.2502 49.9166 28.8098 49.9166 29.5002V34.5002C49.9166 35.1905 49.3569 35.7502 48.6666 35.7502C47.9762 35.7502 47.4166 35.1905 47.4166 34.5002V29.5002C47.4166 28.8098 47.9762 28.2502 48.6666 28.2502Z" fill="white"/>
<path d="M15.3333 38.2502C16.0236 38.2502 16.5833 38.8098 16.5833 39.5002V42.0002C16.5833 42.7369 16.7297 43.4363 16.9938 44.0733C17.2582 44.711 16.9556 45.4423 16.3179 45.7067C15.6802 45.9712 14.9489 45.6686 14.6845 45.0309C14.2967 44.0957 14.0833 43.0713 14.0833 42.0002V39.5002C14.0833 38.8098 14.6429 38.2502 15.3333 38.2502Z" fill="white"/>
<path d="M48.6666 38.2502C49.3569 38.2502 49.9166 38.8098 49.9166 39.5002V42.0002C49.9166 43.0713 49.7032 44.0957 49.3154 45.0309C49.0509 45.6686 48.3196 45.9712 47.6819 45.7067C47.0442 45.4423 46.7416 44.711 47.0061 44.0733C47.2702 43.4363 47.4166 42.7369 47.4166 42.0002V39.5002C47.4166 38.8098 47.9762 38.2502 48.6666 38.2502Z" fill="white"/>
<path d="M18.2933 47.6821C18.5578 47.0444 19.2891 46.7419 19.9268 47.0063C20.5637 47.2704 21.2632 47.4168 21.9999 47.4168H24.4999C25.1903 47.4168 25.7499 47.9765 25.7499 48.6668C25.7499 49.3572 25.1903 49.9168 24.4999 49.9168H21.9999C20.9288 49.9168 19.9044 49.7034 18.9692 49.3156C18.3315 49.0512 18.0289 48.3198 18.2933 47.6821Z" fill="white"/>
<path d="M45.7065 47.6821C45.9709 48.3198 45.6684 49.0512 45.0307 49.3156C44.0955 49.7034 43.071 49.9168 41.9999 49.9168H39.4999C38.8096 49.9168 38.2499 49.3572 38.2499 48.6668C38.2499 47.9765 38.8096 47.4168 39.4999 47.4168H41.9999C42.7367 47.4168 43.4361 47.2704 44.073 47.0063C44.7107 46.7419 45.4421 47.0444 45.7065 47.6821Z" fill="white"/>
<path d="M28.2499 48.6668C28.2499 47.9765 28.8096 47.4168 29.4999 47.4168H34.4999C35.1903 47.4168 35.7499 47.9765 35.7499 48.6668C35.7499 49.3572 35.1903 49.9168 34.4999 49.9168H29.4999C28.8096 49.9168 28.2499 49.3572 28.2499 48.6668Z" fill="white"/>
<path d="M46.2171 19.6518C46.7053 19.1637 46.7053 18.3722 46.2171 17.884C45.729 17.3959 44.9375 17.3959 44.4494 17.884L42.789 19.5444C42.3009 20.0325 42.3009 20.824 42.789 21.3122C43.2772 21.8003 44.0686 21.8003 44.5568 21.3122L46.2171 19.6518Z" fill="white"/>
<path d="M41.2361 24.6329C41.7242 24.1447 41.7242 23.3532 41.2361 22.8651C40.7479 22.3769 39.9565 22.3769 39.4683 22.8651L36.1476 26.1858C35.6595 26.6739 35.6595 27.4654 36.1476 27.9536C36.6358 28.4417 37.4272 28.4417 37.9154 27.9536L41.2361 24.6329Z" fill="white"/>
<path d="M34.5947 31.2743C35.0829 30.7861 35.0829 29.9946 34.5947 29.5065C34.1065 29.0183 33.3151 29.0183 32.8269 29.5065L31.9999 30.3335L31.1729 29.5065C30.6847 29.0183 29.8933 29.0183 29.4051 29.5065C28.917 29.9946 28.917 30.7861 29.4051 31.2743L30.2322 32.1013L29.5062 32.8272C29.0181 33.3153 29.0181 34.1068 29.5062 34.5949C29.9944 35.0831 30.7858 35.0831 31.274 34.5949L31.9999 33.869L32.7258 34.5949C33.214 35.0831 34.0054 35.0831 34.4936 34.5949C34.9818 34.1068 34.9818 33.3153 34.4936 32.8272L33.7677 32.1013L34.5947 31.2743Z" fill="white"/>
<path d="M27.9533 37.9156C28.4415 37.4275 28.4415 36.636 27.9533 36.1479C27.4652 35.6597 26.6737 35.6597 26.1855 36.1479L22.8648 39.4686C22.3767 39.9567 22.3767 40.7482 22.8648 41.2363C23.353 41.7245 24.1445 41.7245 24.6326 41.2363L27.9533 37.9156Z" fill="white"/>
<path d="M21.3119 44.557C21.8001 44.0689 21.8001 43.2774 21.3119 42.7893C20.8238 42.3011 20.0323 42.3011 19.5441 42.7893L17.8838 44.4496C17.3956 44.9378 17.3956 45.7292 17.8838 46.2174C18.372 46.7055 19.1634 46.7055 19.6516 46.2174L21.3119 44.557Z" fill="white"/>
<path d="M44.3483 46.2174C44.8364 46.7055 45.6279 46.7055 46.116 46.2174C46.6042 45.7292 46.6042 44.9378 46.116 44.4496L44.4557 42.7893C43.9675 42.3011 43.1761 42.3011 42.6879 42.7893C42.1998 43.2774 42.1998 44.0689 42.6879 44.557L44.3483 46.2174Z" fill="white"/>
<path d="M39.3672 41.2363C39.8554 41.7245 40.6468 41.7245 41.135 41.2363C41.6231 40.7482 41.6231 39.9567 41.135 39.4686L37.8143 36.1479C37.3261 35.6597 36.5347 35.6597 36.0465 36.1479C35.5584 36.636 35.5584 37.4275 36.0465 37.9156L39.3672 41.2363Z" fill="white"/>
<path d="M26.0844 27.9536C26.5726 28.4417 27.364 28.4417 27.8522 27.9536C28.3404 27.4654 28.3404 26.6739 27.8522 26.1858L24.5315 22.8651C24.0434 22.3769 23.2519 22.3769 22.7637 22.8651C22.2756 23.3532 22.2756 24.1447 22.7637 24.6329L26.0844 27.9536Z" fill="white"/>
<path d="M19.443 21.3122C19.9312 21.8003 20.7227 21.8003 21.2108 21.3122C21.699 20.824 21.699 20.0326 21.2108 19.5444L19.5505 17.884C19.0623 17.3959 18.2709 17.3959 17.7827 17.884C17.2945 18.3722 17.2945 19.1637 17.7827 19.6518L19.443 21.3122Z" fill="white"/>
<path d="M27.0931 23.4819C27.5896 23.3315 28.1175 23.2502 28.6666 23.2502H29.9166C30.6069 23.2502 31.1666 22.6905 31.1666 22.0002C31.1666 21.3098 30.6069 20.7502 29.9166 20.7502H28.6666C27.8692 20.7502 27.0971 20.8685 26.3683 21.0893C25.7076 21.2895 25.3342 21.9873 25.5344 22.648C25.7346 23.3087 26.4324 23.6821 27.0931 23.4819Z" fill="white"/>
<path d="M34.0833 20.7502C33.3929 20.7502 32.8333 21.3098 32.8333 22.0002C32.8333 22.6905 33.3929 23.2502 34.0833 23.2502H35.3333C35.8824 23.2502 36.4103 23.3315 36.9067 23.4819C37.5674 23.6821 38.2653 23.3087 38.4654 22.648C38.6656 21.9873 38.2923 21.2895 37.6316 21.0893C36.9027 20.8685 36.1307 20.7502 35.3333 20.7502H34.0833Z" fill="white"/>
<path d="M23.4816 27.0934C23.6818 26.4327 23.3085 25.7348 22.6478 25.5346C21.9871 25.3345 21.2892 25.7078 21.089 26.3685C20.8682 27.0974 20.7499 27.8694 20.7499 28.6668V29.9168C20.7499 30.6072 21.3096 31.1668 21.9999 31.1668C22.6903 31.1668 23.2499 30.6072 23.2499 29.9168V28.6668C23.2499 28.1177 23.3312 27.5898 23.4816 27.0934Z" fill="white"/>
<path d="M42.9108 26.3685C42.7106 25.7078 42.0128 25.3345 41.3521 25.5346C40.6914 25.7348 40.318 26.4327 40.5182 27.0934C40.6686 27.5898 40.7499 28.1177 40.7499 28.6668V29.9168C40.7499 30.6072 41.3096 31.1668 41.9999 31.1668C42.6903 31.1668 43.2499 30.6072 43.2499 29.9168V28.6668C43.2499 27.8694 43.1316 27.0974 42.9108 26.3685Z" fill="white"/>
<path d="M23.2499 34.0835C23.2499 33.3931 22.6903 32.8335 21.9999 32.8335C21.3096 32.8335 20.7499 33.3931 20.7499 34.0835V35.3335C20.7499 36.1309 20.8682 36.9029 21.089 37.6318C21.2892 38.2925 21.9871 38.6659 22.6478 38.4657C23.3085 38.2655 23.6818 37.5676 23.4816 36.9069C23.3312 36.4105 23.2499 35.8826 23.2499 35.3335V34.0835Z" fill="white"/>
<path d="M43.2499 34.0835C43.2499 33.3931 42.6903 32.8335 41.9999 32.8335C41.3096 32.8335 40.7499 33.3931 40.7499 34.0835V35.3335C40.7499 35.8826 40.6686 36.4105 40.5182 36.9069C40.318 37.5676 40.6914 38.2655 41.3521 38.4657C42.0128 38.6659 42.7106 38.2925 42.9108 37.6318C43.1316 36.9029 43.2499 36.1309 43.2499 35.3335V34.0835Z" fill="white"/>
<path d="M27.0931 40.5184C26.4324 40.3183 25.7346 40.6916 25.5344 41.3523C25.3342 42.013 25.7076 42.7109 26.3683 42.911C27.0971 43.1319 27.8692 43.2502 28.6666 43.2502H29.9166C30.6069 43.2502 31.1666 42.6905 31.1666 42.0002C31.1666 41.3098 30.6069 40.7502 29.9166 40.7502H28.6666C28.1175 40.7502 27.5896 40.6688 27.0931 40.5184Z" fill="white"/>
<path d="M37.6316 42.911C38.2923 42.7109 38.6656 42.013 38.4654 41.3523C38.2653 40.6916 37.5674 40.3183 36.9067 40.5184C36.4103 40.6688 35.8824 40.7502 35.3333 40.7502H34.0833C33.3929 40.7502 32.8333 41.3098 32.8333 42.0002C32.8333 42.6905 33.3929 43.2502 34.0833 43.2502H35.3333C36.1307 43.2502 36.9027 43.1319 37.6316 42.911Z" fill="white"/>
<g clip-path="url(#clip0_480_103388)">
<path d="M68.7101 31.71L71.3001 34.3C71.6901 34.69 72.3201 34.69 72.7101 34.3L75.3001 31.71C75.9301 31.08 75.4801 30 74.5901 30H69.4101C68.5201 30 68.0801 31.08 68.7101 31.71Z" fill="white"/>
</g>
<defs>
<clipPath id="clip0_480_103388">
<rect width="24" height="24" fill="white" transform="translate(60 20)"/>
</clipPath>
</defs>
</svg>
