<svg fill="none" height="243" viewBox="0 0 1087 243" width="1087" xmlns="http://www.w3.org/2000/svg" xmlns:xlink="http://www.w3.org/1999/xlink"><clipPath id="a"><path d="m326.833 67.667h374v48h-374z"/></clipPath><clipPath id="b"><rect height="48" rx="4" width="374" x="326.833" y="67.667"/></clipPath><clipPath id="c"><path d="m331 168h374v48h-374z"/></clipPath><clipPath id="d"><rect height="48" rx="4" width="374" x="331" y="168"/></clipPath><path d="m0 0h1087v242.667h-1087z" fill="#cbcdd6"/><path d="m1 0h100v242.667h-100z" fill="#c4c4c4"/><path d="m1 1h100v40h-100z" fill="#171c1e"/><path d="m18.1572 23.2246c0 .9024-.3258 1.6133-.9775 2.1328-.6471.5196-1.5495.7793-2.707.7793-1.0665 0-2.0098-.2005-2.8301-.6015v-1.9688c.6745.3008 1.2441.5127 1.709.6357.4694.1231.8977.1846 1.2851.1846.4649 0 .8203-.0888 1.0664-.2666.2507-.1777.376-.442.376-.793 0-.1959-.0547-.3691-.1641-.5195-.1093-.1549-.2711-.303-.4853-.4443-.2096-.1413-.6403-.3669-1.292-.6768-.6107-.2871-1.0687-.5628-1.374-.8271-.3054-.2643-.5492-.572-.7315-.9229s-.2734-.761-.2734-1.2304c0-.8842.2985-1.5791.8955-2.085.6016-.5059 1.431-.7588 2.4883-.7588.5195 0 1.014.0615 1.4834.1846.4739.123.9684.2962 1.4834.5195l-.6836 1.6475c-.5332-.2188-.9753-.3715-1.3262-.458-.3463-.0866-.6881-.1299-1.0254-.1299-.401 0-.7086.0934-.9228.2802-.2142.1869-.3213.4307-.3213.7315 0 .1868.0433.3509.1299.4922.0865.1367.2233.2711.4101.4033.1914.1276.6403.36 1.3467.6973.9342.4466 1.5745.8955 1.9209 1.3466.3463.4467.5195.9958.5195 1.6475zm4.7832 1.251c.3646 0 .8021-.0798 1.3125-.2393v1.5518c-.5195.2324-1.1575.3486-1.914.3486-.834 0-1.4424-.2096-1.8252-.6289-.3783-.4238-.5674-1.0573-.5674-1.9004v-3.6845h-.9981v-.8819l1.1485-.6972.6015-1.6133h1.333v1.6269h2.1397v1.5655h-2.1397v3.6845c0 .2962.0821.515.2461.6563.1686.1412.3897.2119.6631.2119zm7.6338 1.5244-.4033-1.0391h-.0547c-.3509.4421-.7132.7497-1.0869.9229-.3692.1686-.8522.2529-1.4493.2529-.7337 0-1.3125-.2096-1.7363-.6289-.4193-.4193-.6289-1.0163-.6289-1.791 0-.8112.2826-1.4082.8477-1.791.5696-.3874 1.4264-.6016 2.5703-.6426l1.3262-.041v-.335c0-.7747-.3965-1.1621-1.1895-1.1621-.6107 0-1.3285.1846-2.1533.5537l-.6905-1.4082c.8796-.4603 1.8549-.6904 2.9258-.6904 1.0254 0 1.8116.2233 2.3584.6699.5469.4466.8203 1.1257.8203 2.0371v5.0928zm-.6152-3.541-.8067.0273c-.6061.0183-1.0573.1276-1.3535.3282-.2962.2005-.4443.5058-.4443.916 0 .5879.3372.8818 1.0117.8818.4831 0 .8681-.139 1.1553-.417.2916-.278.4375-.6471.4375-1.1074zm7.3603 2.0166c.3646 0 .8021-.0798 1.3125-.2393v1.5518c-.5195.2324-1.1576.3486-1.9141.3486-.834 0-1.4424-.2096-1.8252-.6289-.3782-.4238-.5674-1.0573-.5674-1.9004v-3.6845h-.998v-.8819l1.1484-.6972.6016-1.6133h1.333v1.6269h2.1397v1.5655h-2.1397v3.6845c0 .2962.082.515.2461.6563.1686.1412.3897.2119.6631.2119zm5.9453-4.7783c-.4421 0-.7884.1412-1.0391.4238-.2506.278-.3942.6745-.4306 1.1894h2.9257c-.0091-.5149-.1435-.9114-.4033-1.1894-.2597-.2826-.6107-.4238-1.0527-.4238zm.2939 6.4394c-1.2304 0-2.192-.3395-2.8847-1.0185-.6927-.6791-1.0391-1.6407-1.0391-2.8848 0-1.2806.319-2.2695.957-2.9668.6426-.7018 1.529-1.0527 2.6592-1.0527 1.0801 0 1.9209.3076 2.5225.9228.6015.6153.9023 1.4652.9023 2.5498v1.0117h-4.9287c.0228.5925.1982 1.0551.5264 1.3877.3281.3327.7884.4991 1.3808.4991.4603 0 .8955-.0479 1.3057-.1436s.8385-.2484 1.2852-.458v1.6133c-.3646.1823-.7543.3167-1.169.4033-.4147.0911-.9206.1367-1.5176.1367z" fill="#fff"/><path d="m1 42h100v99.333h-100z" fill="#252a2e"/><path d="m20.5498 91.574c0 1.6452-.4694 2.9052-1.4082 3.7802-.9342.875-2.2855 1.3125-4.0537 1.3125h-2.8301v-9.9941h3.1377c1.6315 0 2.8984.4307 3.8008 1.292.9023.8613 1.3535 2.0645 1.3535 3.6094zm-2.2012.0547c0-2.1465-.9479-3.2198-2.8437-3.2198h-1.1279v6.5078h.9091c2.0417 0 3.0625-1.096 3.0625-3.288zm7.1895-1.2647c-.4421 0-.7884.1413-1.0391.4238-.2506.278-.3942.6745-.4307 1.1895h2.9258c-.0091-.515-.1435-.9115-.4033-1.1895-.2598-.2825-.6107-.4238-1.0527-.4238zm.2939 6.4395c-1.2305 0-2.192-.3396-2.8847-1.0186-.6928-.679-1.0391-1.6406-1.0391-2.8848 0-1.2806.319-2.2695.957-2.9668.6426-.7018 1.529-1.0527 2.6592-1.0527 1.0801 0 1.9209.3076 2.5225.9229.6015.6152.9023 1.4651.9023 2.5498v1.0117h-4.9287c.0228.5924.1982 1.055.5264 1.3877.3281.3327.7884.499 1.3808.499.4603 0 .8955-.0478 1.3057-.1435.4101-.0957.8385-.2484 1.2851-.4581v1.6133c-.3645.1823-.7542.3168-1.1689.4033-.4147.0912-.9206.1368-1.5176.1368zm8.9531-6.2139h-1.8047v6.0771h-2.0849v-6.0771h-1.1485v-1.0049l1.1485-.5605v-.5606c0-.8704.2142-1.5062.6426-1.9072.4283-.401 1.1142-.6016 2.0576-.6016.72 0 1.3603.1071 1.9209.3213l-.5332 1.5313c-.4193-.1322-.8067-.1983-1.1621-.1983-.2963 0-.5105.0889-.6426.2666-.1322.1732-.1983.3965-.1983.67v.4785h1.8047zm5.9727 6.0771-.4034-1.039h-.0546c-.351.442-.7133.7497-1.087.9228-.3691.1687-.8522.253-1.4492.253-.7337 0-1.3125-.2097-1.7363-.6289-.4193-.4193-.6289-1.0163-.6289-1.7911 0-.8112.2825-1.4082.8476-1.791.5697-.3873 1.4265-.6015 2.5704-.6425l1.3261-.0411v-.3349c0-.7748-.3965-1.1621-1.1894-1.1621-.6107 0-1.3285.1845-2.1533.5537l-.6905-1.4082c.8796-.4603 1.8548-.6905 2.9258-.6905 1.0254 0 1.8115.2234 2.3584.67s.8203 1.1256.8203 2.0371v5.0927zm-.6153-3.541-.8066.0274c-.6061.0182-1.0573.1276-1.3535.3281s-.4444.5059-.4444.916c0 .5879.3373.8819 1.0118.8819.483 0 .8681-.139 1.1552-.417.2917-.278.4375-.6472.4375-1.1075zm9.5547 3.541-.2803-.9775h-.1093c-.2234.3555-.5401.6312-.9502.8272-.4102.1914-.8773.2871-1.4014.2871-.8978 0-1.5746-.2393-2.0303-.7178-.4557-.4831-.6836-1.1758-.6836-2.0781v-4.9834h2.085v4.4638c0 .5515.098.9662.2939 1.2442.196.2734.5082.4101.9366.4101.5833 0 1.0048-.1937 1.2646-.581.2598-.3919.3897-1.0391.3897-1.9414v-3.5957h2.0849v7.6425zm5.7881 0h-2.085v-10.6367h2.085zm5.33-1.5244c.3646 0 .8021-.0797 1.3125-.2392v1.5517c-.5195.2325-1.1575.3487-1.914.3487-.834 0-1.4424-.2097-1.8252-.6289-.3783-.4239-.5674-1.0573-.5674-1.9004v-3.6846h-.9981v-.8818l1.1485-.6973.6015-1.6133h1.3331v1.627h2.1396v1.5654h-2.1396v3.6846c0 .2962.082.5149.246.6562.1687.1413.3897.2119.6631.2119z" fill="#fff"/><path d="m1 142.333h100v99.333h-100z" fill="#252a2e"/><path d="m14.3428 197h-2.085v-9.994h5.7285v1.736h-3.6435v2.577h3.3906v1.73h-3.3906zm7.0117-3.835c0 .757.123 1.328.3691 1.716.2507.387.6563.581 1.2168.581.556 0 .9548-.191 1.1963-.574.2461-.388.3691-.962.3691-1.723 0-.756-.123-1.324-.3691-1.702s-.6494-.567-1.21-.567c-.5559 0-.957.189-1.2031.567-.2461.374-.3691.941-.3691 1.702zm5.2842 0c0 1.244-.3282 2.217-.9844 2.919-.6563.702-1.57 1.053-2.7412 1.053-.7338 0-1.3809-.16-1.9414-.479-.5606-.323-.9912-.786-1.292-1.387-.3008-.602-.4512-1.304-.4512-2.106 0-1.249.3258-2.219.9775-2.912s1.5677-1.039 2.7481-1.039c.7337 0 1.3808.159 1.9414.478.5605.319.9912.777 1.292 1.374s.4512 1.297.4512 2.099zm4.7421 3.972c-2.3789 0-3.5683-1.306-3.5683-3.917 0-1.299.3235-2.29.9707-2.974.6471-.688 1.5745-1.032 2.7822-1.032.8841 0 1.6771.173 2.3789.519l-.6152 1.614c-.3282-.132-.6335-.24-.916-.322-.2826-.086-.5651-.129-.8477-.129-1.0846 0-1.627.77-1.627 2.31 0 1.495.5424 2.242 1.627 2.242.401 0 .7725-.052 1.1143-.157.3418-.109.6836-.278 1.0253-.506v1.784c-.3372.215-.679.363-1.0253.445-.3418.082-.7748.123-1.2989.123zm9.4317-.137-.2803-.978h-.1094c-.2233.356-.54.632-.9502.828-.4101.191-.8773.287-1.4014.287-.8977 0-1.5745-.24-2.0302-.718-.4558-.483-.6836-1.176-.6836-2.078v-4.984h2.0849v4.464c0 .552.098.966.294 1.244.1959.274.5081.411.9365.411.5833 0 1.0049-.194 1.2647-.581.2597-.392.3896-1.04.3896-1.942v-3.596h2.085v7.643zm9.0351-2.27c0 .784-.2734 1.381-.8203 1.791-.5423.411-1.3558.616-2.4404.616-.556 0-1.03-.039-1.4219-.116-.3919-.073-.7588-.183-1.1006-.329v-1.722c.3874.182.8226.335 1.3057.458.4876.123.916.184 1.2851.184.7565 0 1.1348-.218 1.1348-.656 0-.164-.0502-.296-.1504-.396-.1003-.105-.2735-.221-.5195-.349-.2461-.132-.5743-.285-.9844-.458-.5879-.246-1.0209-.474-1.2988-.684-.2735-.209-.474-.449-.6016-.717-.1231-.274-.1846-.609-.1846-1.005 0-.679.2621-1.203.7862-1.573.5286-.373 1.276-.56 2.2421-.56.9206 0 1.8161.2 2.6866.601l-.6289 1.504c-.3829-.164-.7406-.298-1.0733-.403s-.6722-.157-1.0185-.157c-.6153 0-.9229.166-.9229.499 0 .187.098.348.294.485.2005.137.6357.34 1.3056.609.597.241 1.0345.467 1.3125.676.278.21.4831.451.6153.725.1321.273.1982.599.1982.977z" fill="#fff"/><path d="m102 1h707.244v40h-707.244z" fill="#171c1e"/><path d="m119.014 26h-5.756v-9.9941h5.756v1.7363h-3.637v2.1943h3.384v1.7364h-3.384v2.5771h3.637zm3.409-3.9033-2.461-3.7393h2.365l1.484 2.4336 1.497-2.4336h2.365l-2.488 3.7393 2.604 3.9033h-2.372l-1.606-2.6182-1.614 2.6182h-2.365zm11.298 3.9033-.404-1.0391h-.054c-.351.4421-.714.7497-1.087.9229-.369.1686-.852.2529-1.449.2529-.734 0-1.313-.2096-1.737-.6289-.419-.4193-.629-1.0163-.629-1.791 0-.8112.283-1.4082.848-1.791.57-.3874 1.426-.6016 2.57-.6426l1.326-.041v-.335c0-.7747-.396-1.1621-1.189-1.1621-.611 0-1.328.1846-2.153.5537l-.691-1.4082c.88-.4603 1.855-.6904 2.926-.6904 1.025 0 1.812.2233 2.358.6699.547.4466.821 1.1257.821 2.0371v5.0928zm-.616-3.541-.806.0273c-.606.0183-1.057.1276-1.354.3282-.296.2005-.444.5058-.444.916 0 .5879.337.8818 1.012.8818.483 0 .868-.139 1.155-.417.292-.278.437-.6471.437-1.1074zm10.984 3.541h-2.085v-4.4639c0-.5514-.094-.9638-.28-1.2373-.183-.278-.472-.417-.869-.417-.533 0-.92.196-1.162.5879-.241.392-.362 1.0368-.362 1.9346v3.5957h-2.085v-7.6426h1.593l.28.9776h.116c.205-.351.502-.6244.889-.8204.387-.2005.832-.3007 1.333-.3007 1.144 0 1.919.3737 2.324 1.1211h.185c.205-.3555.506-.6312.902-.8272.401-.196.852-.2939 1.354-.2939.866 0 1.519.2233 1.962.6699.446.442.669 1.153.669 2.1328v4.9834h-2.091v-4.4639c0-.5514-.094-.9638-.281-1.2373-.182-.278-.471-.417-.868-.417-.51 0-.893.1823-1.148.5469-.251.3646-.376.9434-.376 1.7363zm11.024.1367c-.898 0-1.602-.3258-2.112-.9775h-.109c.072.638.109 1.0071.109 1.1074v3.0967h-2.085v-11.0059h1.695l.294.9912h.096c.488-.7565 1.21-1.1347 2.167-1.1347.902 0 1.609.3486 2.119 1.0459.51.6972.766 1.6657.766 2.9052 0 .8158-.121 1.5245-.363 2.126-.237.6016-.576 1.0596-1.018 1.374-.442.3145-.962.4717-1.559.4717zm-.615-6.2549c-.515 0-.891.1595-1.128.4786-.237.3144-.36.8362-.369 1.5654v.2256c0 .8203.121 1.4082.362 1.7636.246.3555.634.5332 1.162.5332.935 0 1.402-.7701 1.402-2.3105 0-.752-.117-1.3148-.349-1.6885-.228-.3782-.588-.5674-1.08-.5674zm7.278 6.1182h-2.085v-10.6367h2.085zm5.276-6.3027c-.442 0-.789.1412-1.039.4238-.251.278-.395.6745-.431 1.1894h2.926c-.009-.5149-.144-.9114-.404-1.1894-.259-.2826-.61-.4238-1.052-.4238zm.294 6.4394c-1.231 0-2.192-.3395-2.885-1.0185-.693-.6791-1.039-1.6407-1.039-2.8848 0-1.2806.319-2.2695.957-2.9668.642-.7018 1.529-1.0527 2.659-1.0527 1.08 0 1.921.3076 2.522.9228.602.6153.903 1.4652.903 2.5498v1.0117h-4.929c.023.5925.198 1.0551.526 1.3877.329.3327.789.4991 1.381.4991.461 0 .896-.0479 1.306-.1436s.839-.2484 1.285-.458v1.6133c-.364.1823-.754.3167-1.169.4033-.415.0911-.92.1367-1.517.1367z" fill="#fff"/><path d="m102 42h707.244v99.333h-707.244z" fill="#252a2e"/><path d="m118 117.667v-52.0003h138.777v10.0971l7.223 7.5729-7.223 7.0679v27.2624z" fill="#171c1e"/><path d="m131.698 88.3328h-1.787v-8.5664h4.91v1.4882h-3.123v2.209h2.906v1.4824h-2.906zm6.01-3.2871c0 .6484.106 1.1386.317 1.4707.215.332.562.498 1.043.498.476 0 .818-.1641 1.025-.4922.211-.332.316-.8242.316-1.4765 0-.6485-.105-1.1348-.316-1.459s-.557-.4864-1.037-.4864c-.477 0-.82.1622-1.031.4864-.211.3203-.317.8066-.317 1.459zm4.53 0c0 1.0664-.282 1.9003-.844 2.5019-.563.6016-1.346.9024-2.35.9024-.629 0-1.183-.1368-1.664-.4102-.48-.2773-.849-.6738-1.107-1.1895-.258-.5156-.387-1.1171-.387-1.8046 0-1.0704.279-1.9024.838-2.4961.558-.5938 1.344-.8907 2.355-.8907.629 0 1.184.1368 1.664.4102.481.2734.85.666 1.108 1.1777s.387 1.1114.387 1.7989zm7.451 3.2871h-1.787v-3.8262c0-.4727-.084-.8262-.252-1.0606-.168-.2382-.436-.3574-.803-.3574-.5 0-.861.168-1.084.5039-.222.3321-.334.8848-.334 1.6582v3.0821h-1.787v-6.5508h1.365l.241.8379h.099c.199-.3164.473-.5547.821-.7149.351-.164.75-.2461 1.195-.2461.762 0 1.34.2071 1.734.6211.395.4102.592 1.0039.592 1.7813zm4.528-1.3067c.312 0 .687-.0683 1.125-.2051v1.3301c-.446.1992-.993.2989-1.641.2989-.715 0-1.236-.1797-1.564-.5391-.325-.3633-.487-.9063-.487-1.6289v-3.1582h-.855v-.7559l.984-.5976.516-1.3828h1.142v1.3945h1.834v1.3418h-1.834v3.1582c0 .2539.071.4414.211.5625.145.1211.334.1816.569.1816zm1.803-1.1777v-1.4649h3.146v1.4649zm8.945.5391c0 .6718-.234 1.1835-.703 1.5351-.465.3516-1.162.5274-2.092.5274-.476 0-.883-.0333-1.218-.0997-.336-.0625-.651-.1562-.944-.2812v-1.4766c.332.1563.705.2871 1.119.3926.418.1055.785.1582 1.102.1582.648 0 .973-.1875.973-.5625 0-.1406-.043-.2539-.129-.3398-.086-.0899-.235-.1895-.446-.2989-.211-.1132-.492-.2441-.843-.3925-.504-.211-.875-.4063-1.114-.586-.234-.1797-.406-.3847-.515-.6152-.106-.2344-.159-.5215-.159-.8613 0-.5821.225-1.0313.674-1.3477.453-.3203 1.094-.4805 1.922-.4805.789 0 1.557.1719 2.303.5157l-.539 1.289c-.328-.1406-.635-.2558-.92-.3457-.285-.0898-.576-.1347-.873-.1347-.527 0-.791.1425-.791.4277 0 .1601.084.2988.252.416.172.1172.545.291 1.119.5215.512.207.887.4004 1.125.5801s.414.3867.527.6211c.114.2343.17.5136.17.8379zm1.247-6.2989c0-.582.324-.873.972-.873.649 0 .973.291.973.873 0 .2774-.082.4942-.246.6504-.16.1524-.403.2285-.727.2285-.648 0-.972-.2929-.972-.8789zm1.863 8.2442h-1.787v-6.5508h1.787zm6.367 0h-5.174v-1.0547l3.036-4.1309h-2.854v-1.3652h4.887v1.1601l-2.953 4.0254h3.058zm3.942-5.4024c-.379 0-.676.1211-.891.3633-.215.2383-.338.5781-.369 1.0195h2.508c-.008-.4414-.123-.7812-.346-1.0195-.222-.2422-.523-.3633-.902-.3633zm.252 5.5196c-1.055 0-1.879-.2911-2.473-.8731-.593-.582-.89-1.4062-.89-2.4727 0-1.0976.273-1.9453.82-2.5429.551-.6016 1.31-.9024 2.279-.9024.926 0 1.647.2637 2.162.7911.516.5273.774 1.2558.774 2.1855v.8672h-4.225c.02.5078.17.9043.451 1.1894.282.2852.676.4278 1.184.4278.394 0 .768-.041 1.119-.1231.352-.082.719-.2129 1.102-.3926v1.3829c-.313.1562-.647.2714-1.002.3457-.356.0781-.789.1172-1.301.1172zm3.801-.9551c0-.3282.088-.5762.264-.7442.175-.1679.431-.2519.767-.2519.324 0 .574.0859.75.2578.18.1719.27.418.27.7383 0 .3086-.09.5527-.27.7324-.179.1758-.429.2637-.75.2637-.328 0-.582-.086-.762-.2578-.179-.1758-.269-.4219-.269-.7383zm0-4.8399c0-.3281.088-.5761.264-.7441.175-.168.431-.252.767-.252.324 0 .574.086.75.2578.18.1719.27.418.27.7383 0 .3164-.092.5625-.276.7383-.179.1719-.427.2578-.744.2578-.328 0-.582-.0859-.762-.2578-.179-.1719-.269-.418-.269-.7383zm9.899 5.6778h-.949v-6.1055c0-.5078.015-.9883.047-1.4414-.082.082-.174.168-.276.2578-.101.0898-.566.4707-1.394 1.1426l-.516-.668 2.268-1.7519h.82zm9.227-1.9688h-1.272v1.9688h-.931v-1.9688h-4.166v-.8496l4.066-5.7949h1.031v5.7597h1.272zm-2.203-.8848v-2.8476c0-.5586.019-1.1895.058-1.8926h-.047c-.187.375-.363.6856-.527.9317l-2.678 3.8085zm7.551 1.1016c0 .5977-.223 1.0586-.668 1.3828-.446.3242-1.071.4864-1.875.4864-.852 0-1.516-.1348-1.992-.4043v-.9024c.308.1563.638.2793.99.3692.355.0898.697.1347 1.025.1347.508 0 .899-.0801 1.172-.2402.273-.1641.41-.4121.41-.7442 0-.25-.109-.4628-.328-.6386-.215-.1797-.637-.3907-1.266-.6328-.597-.2227-1.023-.4161-1.277-.5801-.25-.168-.437-.3574-.562-.5684-.122-.2109-.182-.4629-.182-.7558 0-.5235.213-.9356.639-1.2364.425-.3047 1.009-.457 1.752-.457.691 0 1.367.1406 2.027.4219l-.346.791c-.644-.2656-1.228-.3984-1.752-.3984-.461 0-.808.0722-1.043.2168-.234.1445-.351.3437-.351.5976 0 .1719.043.3184.129.4395.089.1211.232.2363.427.3457.196.1093.571.2675 1.125.4746.762.2773 1.276.5566 1.541.8379.27.2812.405.6347.405 1.0605zm4.504 1.8692c-.418 0-.801-.0762-1.149-.2286-.343-.1562-.632-.3945-.867-.7148h-.07c.047.375.07.7305.07 1.0664v2.6426h-.972v-9.3047h.791l.134.8789h.047c.25-.3516.541-.6055.873-.7617.332-.1563.713-.2344 1.143-.2344.851 0 1.508.291 1.969.873.464.5821.697 1.3985.697 2.4493 0 1.0547-.236 1.875-.709 2.4609-.469.582-1.121.8731-1.957.8731zm-.141-5.8301c-.656 0-1.131.1816-1.424.5449s-.443.9414-.451 1.7344v.2168c0 .9023.151 1.5488.451 1.9394.301.3867.784.5801 1.448.5801.554 0 .988-.2246 1.3-.6738.317-.4492.475-1.0684.475-1.8575 0-.8007-.158-1.414-.475-1.8398-.312-.4297-.753-.6445-1.324-.6445zm-81.363 17.1465h2.666c1.215 0 2.096.1738 2.643.5216.551.344.826.892.826 1.646 0 .512-.121.932-.363 1.26-.239.328-.557.525-.955.592v.058c.543.122.933.348 1.171.68.243.332.364.774.364 1.324 0 .782-.284 1.391-.85 1.829-.562.437-1.328.656-2.297.656h-3.205zm1.817 3.3926h1.054c.492 0 .848-.076 1.067-.229.222-.152.334-.404.334-.755 0-.329-.121-.563-.364-.704-.238-.144-.617-.216-1.136-.216h-.955zm0 1.441v2.233h1.183c.5 0 .869-.096 1.108-.287.238-.192.357-.485.357-.879 0-.711-.508-1.067-1.523-1.067zm7.457.446c0 .648.105 1.138.316 1.47.215.332.563.498 1.043.498.477 0 .819-.164 1.026-.492.211-.332.316-.824.316-1.476 0-.649-.105-1.135-.316-1.459-.211-.325-.557-.487-1.038-.487-.476 0-.82.162-1.031.487-.211.32-.316.806-.316 1.459zm4.529 0c0 1.066-.281 1.9-.844 2.502-.562.601-1.345.902-2.349.902-.629 0-1.184-.137-1.664-.41-.481-.278-.85-.674-1.108-1.19-.258-.515-.386-1.117-.386-1.804 0-1.071.279-1.903.837-2.496.559-.594 1.344-.891 2.356-.891.629 0 1.184.137 1.664.41.48.274.85.666 1.107 1.178.258.512.387 1.111.387 1.799zm5.061-3.387c.242 0 .443.018.603.053l-.134 1.675c-.145-.039-.321-.058-.528-.058-.57 0-1.015.146-1.336.439-.316.293-.474.703-.474 1.231v3.334h-1.787v-6.551h1.353l.264 1.102h.088c.203-.368.476-.663.82-.885.348-.227.725-.34 1.131-.34zm3.795 6.791c-.769 0-1.375-.299-1.816-.897-.438-.597-.657-1.425-.657-2.484 0-1.074.223-1.91.668-2.508.45-.601 1.067-.902 1.852-.902.824 0 1.453.32 1.887.961h.058c-.09-.488-.134-.924-.134-1.307v-2.0974h1.793v9.1174h-1.372l-.345-.85h-.076c-.407.645-1.026.967-1.858.967zm.627-1.424c.457 0 .791-.133 1.002-.398.215-.266.332-.717.352-1.354v-.193c0-.703-.11-1.207-.329-1.512-.214-.305-.566-.457-1.054-.457-.399 0-.709.17-.932.51-.219.336-.328.826-.328 1.471 0 .644.111 1.128.334 1.453.223.32.541.48.955.48zm7.534-4.096c-.379 0-.676.122-.891.364-.215.238-.338.578-.369 1.019h2.508c-.008-.441-.123-.781-.346-1.019-.223-.242-.524-.364-.902-.364zm.252 5.52c-1.055 0-1.879-.291-2.473-.873s-.891-1.406-.891-2.473c0-1.097.274-1.945.821-2.543.55-.601 1.31-.902 2.279-.902.926 0 1.646.264 2.162.791s.773 1.256.773 2.185v.868h-4.224c.019.507.17.904.451 1.189s.676.428 1.184.428c.394 0 .767-.041 1.119-.123.351-.082.718-.213 1.101-.393v1.383c-.312.156-.646.272-1.002.346-.355.078-.789.117-1.3.117zm7.709-6.791c.242 0 .443.018.603.053l-.134 1.675c-.145-.039-.321-.058-.528-.058-.57 0-1.015.146-1.336.439-.316.293-.474.703-.474 1.231v3.334h-1.787v-6.551h1.353l.264 1.102h.088c.203-.368.476-.663.82-.885.348-.227.725-.34 1.131-.34zm1.141 4.189v-1.464h3.146v1.464zm8.031-4.189c.242 0 .444.018.604.053l-.135 1.675c-.145-.039-.32-.058-.527-.058-.571 0-1.016.146-1.336.439-.317.293-.475.703-.475 1.231v3.334h-1.787v-6.551h1.353l.264 1.102h.088c.203-.368.477-.663.82-.885.348-.227.725-.34 1.131-.34zm5.881 6.674-.345-.891h-.047c-.301.379-.612.643-.932.791-.316.145-.73.217-1.242.217-.629 0-1.125-.18-1.488-.539-.36-.359-.539-.871-.539-1.535 0-.696.242-1.207.726-1.535.488-.332 1.223-.516 2.203-.551l1.137-.035v-.287c0-.665-.34-.997-1.02-.997-.523 0-1.138.159-1.845.475l-.592-1.207c.754-.395 1.59-.592 2.508-.592.879 0 1.552.192 2.021.574.469.383.703.965.703 1.747v4.365zm-.527-3.035-.691.023c-.52.016-.907.109-1.161.281s-.38.434-.38.785c0 .504.289.756.867.756.414 0 .744-.119.99-.357.25-.238.375-.555.375-.949zm5.623 3.152c-.769 0-1.375-.299-1.816-.897-.438-.597-.656-1.425-.656-2.484 0-1.074.222-1.91.668-2.508.449-.601 1.066-.902 1.851-.902.824 0 1.453.32 1.887.961h.058c-.089-.488-.134-.924-.134-1.307v-2.0974h1.793v9.1174h-1.371l-.346-.85h-.076c-.407.645-1.026.967-1.858.967zm.627-1.424c.457 0 .791-.133 1.002-.398.215-.266.332-.717.352-1.354v-.193c0-.703-.11-1.207-.328-1.512-.215-.305-.567-.457-1.055-.457-.399 0-.709.17-.932.51-.218.336-.328.826-.328 1.471 0 .644.111 1.128.334 1.453.223.32.541.48.955.48zm4.745-6.937c0-.5824.324-.8734.972-.8734.649 0 .973.291.973.8734 0 .277-.082.494-.246.65-.16.152-.403.229-.727.229-.648 0-.972-.293-.972-.879zm1.863 8.244h-1.787v-6.551h1.787zm6.449 0-.24-.838h-.094c-.191.305-.462.541-.814.709-.352.164-.752.246-1.201.246-.77 0-1.35-.205-1.74-.615-.391-.414-.586-1.008-.586-1.782v-4.271h1.787v3.826c0 .473.084.828.252 1.067.168.234.435.351.802.351.5 0 .862-.166 1.084-.498.223-.336.334-.891.334-1.664v-3.082h1.787v6.551zm7.745-1.946c0 .672-.235 1.184-.703 1.536-.465.351-1.162.527-2.092.527-.477 0-.883-.033-1.219-.1-.336-.062-.65-.156-.943-.281v-1.476c.332.156.705.287 1.119.392.418.106.785.158 1.101.158.649 0 .973-.187.973-.562 0-.141-.043-.254-.129-.34-.086-.09-.234-.189-.445-.299-.211-.113-.492-.244-.844-.392-.504-.211-.875-.407-1.113-.586-.235-.18-.406-.385-.516-.616-.105-.234-.158-.521-.158-.861 0-.582.225-1.031.674-1.348.453-.32 1.094-.48 1.922-.48.789 0 1.556.172 2.302.516l-.539 1.289c-.328-.141-.634-.256-.92-.346-.285-.09-.576-.135-.873-.135-.527 0-.791.143-.791.428 0 .16.084.299.252.416.172.117.545.291 1.12.521.511.207.886.401 1.125.58.238.18.414.387.527.622.113.234.17.513.17.837zm1.07 1.108c0-.328.088-.576.264-.744s.432-.252.768-.252c.324 0 .574.086.75.258.179.171.269.418.269.738 0 .308-.09.553-.269.732-.18.176-.43.264-.75.264-.329 0-.582-.086-.762-.258-.18-.176-.27-.422-.27-.738zm0-4.84c0-.328.088-.576.264-.744s.432-.252.768-.252c.324 0 .574.086.75.258.179.172.269.418.269.738 0 .316-.092.563-.275.738-.18.172-.428.258-.744.258-.329 0-.582-.086-.762-.258s-.27-.418-.27-.738zm12.331 3.709h-1.272v1.969h-.931v-1.969h-4.166v-.85l4.066-5.7945h1.031v5.7595h1.272zm-2.203-.885v-2.847c0-.559.019-1.19.058-1.893h-.046c-.188.375-.364.686-.528.932l-2.678 3.808zm7.779 1.992h-.052c-.45.653-1.121.979-2.016.979-.84 0-1.494-.287-1.963-.861-.465-.575-.697-1.391-.697-2.45 0-1.058.234-1.88.703-2.466s1.121-.879 1.957-.879c.871 0 1.539.316 2.004.949h.076l-.041-.463-.023-.451v-2.6134h.972v9.1174h-.791zm-1.945.164c.664 0 1.145-.179 1.442-.539.3-.363.451-.947.451-1.752v-.205c0-.91-.153-1.558-.457-1.945-.301-.391-.784-.586-1.448-.586-.57 0-1.007.223-1.312.668-.301.442-.451 1.067-.451 1.875 0 .82.15 1.44.451 1.858s.742.626 1.324.626zm7.85.815c-.418 0-.801-.076-1.148-.229-.344-.156-.633-.394-.868-.714h-.07c.047.375.07.73.07 1.066v2.643h-.972v-9.305h.791l.134.879h.047c.25-.352.541-.606.873-.762s.713-.234 1.143-.234c.852 0 1.508.291 1.969.873.465.582.697 1.398.697 2.449 0 1.055-.236 1.875-.709 2.461-.469.582-1.121.873-1.957.873zm-.141-5.83c-.656 0-1.131.182-1.423.545-.293.363-.444.941-.452 1.734v.217c0 .902.151 1.549.452 1.939.3.387.783.58 1.447.58.554 0 .988-.224 1.301-.673.316-.45.474-1.069.474-1.858 0-.801-.158-1.414-.474-1.84-.313-.429-.754-.644-1.325-.644z" fill="#fff"/><path d="m288.777 96.6667h-1.107v-7.123c0-.5924.018-1.153.055-1.6816-.096.0957-.203.1959-.322.3007-.118.1049-.66.5492-1.627 1.333l-.601-.7792 2.645-2.044h.957zm3.84-4.2724c0-1.9642.381-3.4317 1.142-4.4024.765-.9752 1.896-1.4628 3.39-1.4628.515 0 .921.0432 1.217.1298v.9776c-.351-.114-.752-.1709-1.203-.1709-1.071 0-1.889.3349-2.454 1.0049-.565.6653-.875 1.7135-.93 3.1445h.082c.502-.7839 1.295-1.1758 2.379-1.1758.898 0 1.604.2712 2.119.8135.52.5423.78 1.2783.78 2.208 0 1.0391-.285 1.8571-.855 2.4541-.565.5924-1.331.8887-2.297.8887-1.034 0-1.854-.3874-2.461-1.1621-.606-.7793-.909-1.8617-.909-3.2471zm3.357 3.4453c.647 0 1.148-.2028 1.504-.6084.36-.4102.54-1.0003.54-1.7705 0-.6608-.167-1.1803-.499-1.5586-.333-.3783-.83-.5674-1.491-.5674-.41 0-.786.0843-1.128.2529-.341.1687-.615.4011-.82.6973-.2.2962-.301.6039-.301.9229 0 .4694.091.9069.274 1.3125.182.4056.44.7269.772.9638.337.237.72.3555 1.149.3555zm10.074-.1777h-.062c-.524.761-1.308 1.1416-2.351 1.1416-.98 0-1.743-.335-2.29-1.0049-.543-.6699-.814-1.6224-.814-2.8574 0-1.2351.274-2.1944.821-2.878.546-.6836 1.308-1.0254 2.283-1.0254 1.016 0 1.795.3692 2.338 1.1075h.089l-.048-.5401-.028-.5263v-3.0489h1.135v10.6367h-.923zm-2.27.1914c.775 0 1.336-.2097 1.682-.6289.351-.4239.526-1.1052.526-2.044v-.2392c0-1.0619-.177-1.8184-.533-2.2696-.351-.4557-.914-.6836-1.688-.6836-.666 0-1.176.2598-1.532.7793-.35.515-.526 1.2442-.526 2.1875 0 .9571.176 1.6794.526 2.167.351.4877.866.7315 1.545.7315zm9.159.9502c-.488 0-.935-.0889-1.34-.2666-.401-.1823-.739-.4603-1.012-.834h-.082c.055.4375.082.8522.082 1.2441v3.083h-1.135v-10.8554h.923l.157 1.0254h.055c.292-.4102.631-.7064 1.019-.8887.387-.1823.831-.2735 1.333-.2735.993 0 1.759.3396 2.296 1.0186.543.679.814 1.6315.814 2.8574 0 1.2305-.276 2.1875-.827 2.8711-.547.679-1.308 1.0186-2.283 1.0186zm-.165-6.8018c-.765 0-1.319.2119-1.661.6358-.341.4238-.517 1.0983-.526 2.0234v.2529c0 1.0528.175 1.807.526 2.2627.351.4512.914.6768 1.689.6768.647 0 1.153-.2621 1.517-.7862.37-.524.554-1.2464.554-2.167 0-.9342-.184-1.6497-.554-2.1464-.364-.5013-.879-.752-1.545-.752z" fill="#e8178a"/><g clip-path="url(#a)"><g clip-path="url(#b)"><rect fill="#171c1e" height="48" rx="4" width="374" x="326.833" y="67.667"/><path d="m347.283 96.6667h-1.162v-8.9619h-3.165v-1.0322h7.492v1.0322h-3.165zm7.92.1368c-1.107 0-1.982-.3373-2.625-1.0118-.638-.6744-.957-1.611-.957-2.8095 0-1.2077.296-2.167.889-2.878.597-.7109 1.397-1.0664 2.399-1.0664.939 0 1.682.3099 2.229.9297.547.6153.82 1.4287.82 2.4405v.7177h-5.161c.023.8796.244 1.5472.663 2.003.424.4557 1.019.6836 1.784.6836.807 0 1.604-.1687 2.393-.5059v1.0117c-.401.1732-.782.2962-1.142.3692-.355.0774-.786.1162-1.292.1162zm-.307-6.8155c-.602 0-1.083.196-1.443.5879-.355.392-.565.9343-.629 1.627h3.917c0-.7155-.159-1.2624-.478-1.6406-.319-.3829-.775-.5743-1.367-.5743zm7.058 2.8438-2.604-3.6572h1.292l1.975 2.8711 1.969-2.8711h1.278l-2.604 3.6572 2.741 3.8349h-1.285l-2.099-3.0351-2.119 3.0351h-1.285zm8.207 3.0351c.201 0 .394-.0136.581-.041.187-.0319.335-.0638.445-.0957v.8682c-.124.0592-.306.1071-.547.1435-.237.0411-.452.0616-.643.0616-1.449 0-2.174-.7634-2.174-2.2901v-4.457h-1.073v-.5469l1.073-.4717.479-1.5996h.656v1.7364h2.174v.8818h-2.174v4.4092c0 .4511.107.7975.321 1.039.214.2416.508.3623.882.3623zm6.837.7998v-9.9941h1.162v9.9941zm9.116 0v-4.8466c0-.6107-.139-1.0664-.417-1.3672s-.713-.4512-1.305-.4512c-.784 0-1.358.2119-1.723.6358-.365.4238-.547 1.1233-.547 2.0986v3.9306h-1.135v-7.4921h.923l.185 1.0254h.054c.233-.3692.559-.654.978-.8545.419-.2051.886-.3077 1.401-.3077.903 0 1.582.2188 2.037.6563.456.4329.684 1.1279.684 2.085v4.8876zm7.209.1368c-.487 0-.934-.0889-1.34-.2666-.401-.1823-.738-.4603-1.011-.834h-.082c.054.4375.082.8522.082 1.2441v3.083h-1.135v-10.8554h.923l.157 1.0254h.055c.291-.4102.631-.7064 1.018-.8887.388-.1823.832-.2735 1.333-.2735.994 0 1.759.3396 2.297 1.0186.542.679.814 1.6315.814 2.8574 0 1.2305-.276 2.1875-.828 2.8711-.546.679-1.307 1.0186-2.283 1.0186zm-.164-6.8018c-.765 0-1.319.2119-1.661.6358-.342.4238-.517 1.0983-.526 2.0234v.2529c0 1.0528.175 1.807.526 2.2627.351.4512.914.6768 1.689.6768.647 0 1.153-.2621 1.517-.7862.369-.524.554-1.2464.554-2.167 0-.9342-.185-1.6497-.554-2.1464-.364-.5013-.879-.752-1.545-.752zm6.58-.8271v4.8603c0 .6107.139 1.0664.417 1.3672s.713.4512 1.306.4512c.784 0 1.356-.2142 1.716-.6426.364-.4284.547-1.1279.547-2.0986v-3.9375h1.134v7.4921h-.936l-.164-1.0048h-.062c-.232.3691-.556.6517-.97.8476-.411.196-.88.294-1.409.294-.911 0-1.595-.2165-2.05-.6494-.452-.433-.677-1.1257-.677-2.0782v-4.9013zm10.203 6.6923c.201 0 .395-.0136.581-.041.187-.0319.335-.0638.445-.0957v.8682c-.123.0592-.306.1071-.547.1435-.237.0411-.451.0616-.643.0616-1.449 0-2.174-.7634-2.174-2.2901v-4.457h-1.073v-.5469l1.073-.4717.479-1.5996h.656v1.7364h2.174v.8818h-2.174v4.4092c0 .4511.107.7975.322 1.039.214.2416.508.3623.881.3623z" fill="#90939f"/></g><rect height="47" rx="3.5" stroke="#464b52" width="373" x="327.333" y="68.167"/></g><path d="m326.333 67.167h375v49h-375z" stroke="#f0f" stroke-dasharray="2 2"/><path d="m327 67.667h16v48h-16z" fill="#eb3499" fill-opacity=".4"/><path d="m685 67.667h16v48h-16z" fill="#eb3499" fill-opacity=".4"/><path d="m715.777 97h-1.107v-7.123c0-.5925.018-1.153.055-1.6817-.096.0957-.203.196-.322.3008-.118.1048-.66.5491-1.627 1.333l-.601-.7793 2.645-2.0439h.957zm3.84-4.2725c0-1.9642.381-3.4316 1.142-4.4023.765-.9753 1.896-1.4629 3.39-1.4629.515 0 .921.0433 1.217.1299v.9775c-.351-.1139-.752-.1709-1.203-.1709-1.071 0-1.889.335-2.454 1.0049-.565.6654-.875 1.7136-.93 3.1445h.082c.502-.7838 1.295-1.1757 2.379-1.1757.898 0 1.604.2711 2.119.8134.52.5424.78 1.2784.78 2.208 0 1.0391-.285 1.8571-.855 2.4541-.565.5925-1.331.8887-2.297.8887-1.034 0-1.854-.3874-2.461-1.1621-.606-.7793-.909-1.8616-.909-3.2471zm3.357 3.4454c.647 0 1.148-.2028 1.504-.6084.36-.4102.54-1.0004.54-1.7706 0-.6608-.167-1.1803-.499-1.5585-.333-.3783-.83-.5674-1.491-.5674-.41 0-.786.0843-1.128.2529-.341.1686-.615.401-.82.6973-.2.2962-.301.6038-.301.9228 0 .4694.091.9069.274 1.3125.182.4056.44.7269.772.9639.337.237.72.3555 1.149.3555zm10.074-.1778h-.062c-.524.7611-1.308 1.1416-2.351 1.1416-.98 0-1.743-.3349-2.29-1.0049-.543-.6699-.814-1.6224-.814-2.8574s.274-2.1943.821-2.8779c.546-.6836 1.308-1.0254 2.283-1.0254 1.016 0 1.795.3691 2.338 1.1074h.089l-.048-.54-.028-.5264v-3.0488h1.135v10.6367h-.923zm-2.27.1914c.775 0 1.336-.2096 1.682-.6289.351-.4238.526-1.1051.526-2.0439v-.2393c0-1.0618-.177-1.8183-.533-2.2695-.351-.4557-.914-.6836-1.688-.6836-.666 0-1.176.2598-1.532.7793-.35.515-.526 1.2441-.526 2.1875 0 .957.176 1.6793.526 2.167.351.4876.866.7314 1.545.7314zm9.159.9502c-.488 0-.935-.0888-1.34-.2666-.401-.1823-.739-.4603-1.012-.834h-.082c.055.4375.082.8522.082 1.2442v3.0827h-1.135v-10.8552h.923l.157 1.0254h.055c.292-.4102.631-.7064 1.019-.8887.387-.1823.831-.2734 1.333-.2734.993 0 1.759.3395 2.296 1.0185.543.6791.814 1.6316.814 2.8575 0 1.2304-.276 2.1875-.827 2.8711-.547.679-1.308 1.0185-2.283 1.0185zm-.165-6.8017c-.765 0-1.319.2119-1.661.6357-.341.4238-.517 1.0983-.526 2.0234v.253c0 1.0527.175 1.8069.526 2.2627.351.4511.914.6767 1.689.6767.647 0 1.153-.262 1.517-.7861.37-.5241.554-1.2464.554-2.167 0-.9342-.184-1.6497-.554-2.1465-.364-.5013-.879-.7519-1.545-.7519z" fill="#e8178a"/><path d="m744 67.6667h9v48.0003h-9" stroke="#019aeb"/><path d="m767.017 94.9287h-1.204v2.0713h-2.064v-2.0713h-4.266v-1.4697l4.382-6.4531h1.948v6.2822h1.204zm-3.268-1.6406v-1.6953c0-.2826.011-.6927.034-1.2305s.041-.8499.055-.9365h-.055c-.168.3737-.371.7383-.608 1.0937l-1.832 2.7686zm7.415-6.4121c.957 0 1.727.2187 2.311.6562.587.433.881 1.0186.881 1.7569 0 .5104-.141.9661-.423 1.3671-.283.3965-.739.752-1.368 1.0665.748.401 1.283.8203 1.607 1.2578.328.4329.492.9091.492 1.4287 0 .8203-.321 1.4811-.964 1.9824-.642.4967-1.488.7451-2.536.7451-1.094 0-1.953-.2324-2.577-.6972-.624-.4649-.937-1.1234-.937-1.9756 0-.5697.151-1.0756.452-1.5176.305-.4421.793-.8317 1.462-1.169-.569-.36-.979-.7451-1.23-1.1552-.251-.4102-.376-.8591-.376-1.3467 0-.7155.296-1.2943.889-1.7363.592-.4421 1.365-.6631 2.317-.6631zm-1.559 7.4648c0 .3919.137.6973.411.916.273.2188.647.3282 1.121.3282.524 0 .916-.1117 1.175-.335.26-.2279.39-.5264.39-.8955 0-.3053-.13-.5902-.39-.8545-.255-.2689-.672-.5537-1.25-.8545-.971.4466-1.457 1.0117-1.457 1.6953zm1.545-5.9199c-.36 0-.651.0934-.875.2803-.218.1823-.328.4284-.328.7383 0 .2734.087.5195.26.7382.178.2142.497.4353.957.6631.447-.2096.759-.4238.937-.6426.177-.2187.266-.4716.266-.7587 0-.3145-.114-.5629-.342-.7452-.227-.1823-.519-.2734-.875-.2734zm7.436 8.7158c-.898 0-1.604-.3486-2.119-1.0459-.511-.6972-.766-1.6634-.766-2.8984 0-1.2533.26-2.2285.779-2.9258.525-.7018 1.245-1.0527 2.161-1.0527.961 0 1.695.3737 2.201 1.1211h.068c-.105-.5697-.157-1.0778-.157-1.5245v-2.4472h2.092v10.6367h-1.6l-.403-.9912h-.089c-.474.7519-1.196 1.1279-2.167 1.1279zm.731-1.6611c.534 0 .923-.155 1.169-.4649.251-.3099.388-.8362.41-1.5791v-.2255c0-.8204-.127-1.4082-.382-1.7637-.251-.3555-.661-.5332-1.231-.5332-.465 0-.827.1982-1.087.5947-.255.3919-.383.9639-.383 1.7158 0 .752.13 1.3171.39 1.6953.26.3737.631.5606 1.114.5606zm9.822 1.6611c-.898 0-1.602-.3258-2.113-.9775h-.109c.073.638.109 1.0071.109 1.1074v3.0964h-2.085v-11.0056h1.696l.294.9912h.095c.488-.7565 1.21-1.1347 2.167-1.1347.903 0 1.609.3486 2.119 1.0459.511.6972.766 1.6657.766 2.9052 0 .8158-.121 1.5245-.362 2.126-.237.6016-.577 1.0596-1.019 1.374-.442.3145-.961.4717-1.558.4717zm-.616-6.2549c-.515 0-.891.1595-1.128.4786-.237.3144-.36.8362-.369 1.5654v.2256c0 .8203.121 1.4082.363 1.7636.246.3555.633.5332 1.162.5332.934 0 1.401-.7701 1.401-2.3105 0-.752-.116-1.3148-.349-1.6885-.227-.3782-.587-.5674-1.08-.5674z" fill="#019aeb"/><path d="m102 142.333h707.244v99.333h-707.244z" fill="#252a2e"/><path d="m118 218v-52h138.777v10.097l7.223 7.573-7.223 7.068v27.262z" fill="#171c1e"/><path d="m131.865 186h-1.787v-8.566h4.91v1.488h-3.123v2.209h2.906v1.482h-2.906zm6.01-3.287c0 .648.106 1.139.317 1.471.215.332.562.498 1.043.498.476 0 .818-.164 1.025-.493.211-.332.316-.824.316-1.476 0-.649-.105-1.135-.316-1.459s-.557-.486-1.037-.486c-.477 0-.82.162-1.031.486-.211.32-.317.807-.317 1.459zm4.53 0c0 1.066-.282 1.9-.844 2.502-.563.601-1.346.902-2.35.902-.629 0-1.183-.137-1.664-.41-.48-.277-.849-.674-1.107-1.189-.258-.516-.387-1.118-.387-1.805 0-1.07.279-1.902.838-2.496.558-.594 1.344-.891 2.355-.891.629 0 1.184.137 1.664.41.481.274.85.666 1.108 1.178s.387 1.111.387 1.799zm4.064 3.404c-2.039 0-3.058-1.119-3.058-3.357 0-1.114.277-1.963.832-2.549.554-.59 1.349-.885 2.384-.885.758 0 1.438.149 2.04.445l-.528 1.383c-.281-.113-.543-.205-.785-.275-.242-.074-.484-.111-.727-.111-.929 0-1.394.66-1.394 1.98 0 1.281.465 1.922 1.394 1.922.344 0 .663-.045.956-.135.293-.094.585-.238.878-.433v1.529c-.289.183-.582.31-.878.381-.293.07-.665.105-1.114.105zm8.085-.117-.241-.838h-.093c-.192.305-.463.541-.815.709-.351.164-.752.246-1.201.246-.77 0-1.35-.205-1.74-.615-.391-.414-.586-1.008-.586-1.781v-4.272h1.787v3.826c0 .473.084.829.252 1.067.168.234.435.351.803.351.5 0 .861-.166 1.084-.498.222-.336.334-.89.334-1.664v-3.082h1.787v6.551zm7.744-1.945c0 .672-.234 1.183-.703 1.535-.465.351-1.162.527-2.092.527-.477 0-.883-.033-1.219-.099-.336-.063-.65-.157-.943-.282v-1.476c.332.156.705.287 1.119.392.418.106.785.159 1.102.159.648 0 .972-.188.972-.563 0-.141-.043-.254-.129-.34-.086-.09-.234-.189-.445-.299-.211-.113-.492-.244-.844-.392-.504-.211-.875-.406-1.113-.586-.234-.18-.406-.385-.516-.615-.105-.235-.158-.522-.158-.862 0-.582.225-1.031.674-1.347.453-.321 1.094-.481 1.922-.481.789 0 1.557.172 2.303.516l-.539 1.289c-.329-.141-.635-.256-.92-.346-.286-.09-.577-.135-.873-.135-.528 0-.791.143-.791.428 0 .16.084.299.252.416.171.117.544.291 1.119.522.511.207.886.4 1.125.58.238.179.414.386.527.621.113.234.17.513.17.838zm4.508 1.945v-8.566h1.817v7.066h3.474v1.5zm6.497-8.244c0-.582.324-.873.972-.873.649 0 .973.291.973.873 0 .277-.082.494-.246.65-.16.153-.402.229-.727.229-.648 0-.972-.293-.972-.879zm1.863 8.244h-1.787v-6.551h1.787zm7.856 0h-1.787v-3.826c0-.473-.084-.826-.252-1.061-.168-.238-.436-.357-.803-.357-.5 0-.861.168-1.084.504-.223.332-.334.885-.334 1.658v3.082h-1.787v-6.551h1.365l.24.838h.1c.199-.316.473-.555.82-.715.352-.164.75-.246 1.195-.246.762 0 1.34.207 1.735.621.394.41.592 1.004.592 1.782zm4.48-5.402c-.379 0-.675.121-.89.363-.215.238-.338.578-.369 1.019h2.507c-.007-.441-.123-.781-.345-1.019-.223-.242-.524-.363-.903-.363zm.252 5.519c-1.054 0-1.879-.291-2.472-.873-.594-.582-.891-1.406-.891-2.473 0-1.097.274-1.945.82-2.542.551-.602 1.311-.903 2.28-.903.925 0 1.646.264 2.162.791.515.528.773 1.256.773 2.186v.867h-4.224c.019.508.17.904.451 1.189.281.286.676.428 1.183.428.395 0 .768-.041 1.12-.123.351-.082.718-.213 1.101-.393v1.383c-.312.157-.646.272-1.002.346-.355.078-.789.117-1.301.117zm12.056-6.668c0 .547-.155.994-.463 1.342-.305.348-.739.58-1.301.697v.047c.687.086 1.197.305 1.529.656.332.352.498.813.498 1.383 0 .817-.283 1.446-.849 1.887-.567.437-1.371.656-2.414.656-.454 0-.87-.035-1.248-.105-.375-.067-.741-.186-1.096-.358v-.925c.371.183.765.324 1.183.421.422.094.821.141 1.196.141 1.48 0 2.22-.58 2.22-1.74 0-1.039-.816-1.559-2.449-1.559h-.844v-.838h.856c.668 0 1.197-.146 1.588-.439.39-.297.586-.707.586-1.231 0-.418-.145-.746-.434-.984-.285-.238-.674-.357-1.166-.357-.375 0-.728.05-1.06.152-.332.101-.711.289-1.137.562l-.492-.656c.351-.277.756-.494 1.213-.65.461-.16.945-.24 1.453-.24.832 0 1.478.191 1.939.574.461.379.692.9.692 1.564zm6.303 5.69h-.053c-.449.652-1.121.978-2.016.978-.84 0-1.494-.287-1.963-.861-.465-.574-.697-1.391-.697-2.449 0-1.059.234-1.881.703-2.467s1.121-.879 1.957-.879c.871 0 1.539.316 2.004.949h.076l-.041-.463-.023-.451v-2.613h.972v9.117h-.791zm-1.946.164c.664 0 1.145-.18 1.442-.539.3-.364.451-.948.451-1.752v-.205c0-.911-.153-1.559-.457-1.946-.301-.39-.783-.586-1.447-.586-.571 0-1.008.223-1.313.668-.301.442-.451 1.067-.451 1.875 0 .821.15 1.44.451 1.858s.742.627 1.324.627zm7.85.814c-.418 0-.801-.076-1.148-.228-.344-.157-.633-.395-.867-.715h-.071c.047.375.071.73.071 1.066v2.643h-.973v-9.305h.791l.135.879h.047c.25-.352.541-.605.873-.762.332-.156.712-.234 1.142-.234.852 0 1.508.291 1.969.873.465.582.697 1.398.697 2.449 0 1.055-.236 1.875-.709 2.461-.469.582-1.121.873-1.957.873zm-.14-5.83c-.657 0-1.131.182-1.424.545s-.444.941-.451 1.734v.217c0 .903.15 1.549.451 1.94.3.386.783.58 1.447.58.555 0 .988-.225 1.301-.674.316-.449.474-1.068.474-1.858 0-.8-.158-1.414-.474-1.839-.313-.43-.754-.645-1.324-.645zm-81.799 17.147h2.666c1.215 0 2.096.173 2.643.521.551.344.826.893.826 1.647 0 .511-.121.931-.363 1.259-.239.328-.557.526-.955.592v.059c.543.121.933.347 1.171.679.243.332.364.774.364 1.325 0 .781-.284 1.39-.85 1.828-.562.437-1.328.656-2.297.656h-3.205zm1.817 3.392h1.054c.492 0 .848-.076 1.067-.228.222-.153.334-.405.334-.756 0-.328-.121-.563-.364-.703-.238-.145-.617-.217-1.136-.217h-.955zm0 1.442v2.232h1.183c.5 0 .869-.096 1.108-.287.238-.192.357-.484.357-.879 0-.711-.508-1.066-1.523-1.066zm7.457.445c0 .648.105 1.139.316 1.471.215.332.563.498 1.043.498.477 0 .819-.164 1.026-.493.211-.332.316-.824.316-1.476 0-.649-.105-1.135-.316-1.459s-.557-.486-1.038-.486c-.476 0-.82.162-1.031.486-.211.32-.316.807-.316 1.459zm4.529 0c0 1.066-.281 1.9-.844 2.502-.562.601-1.345.902-2.349.902-.629 0-1.184-.137-1.664-.41-.481-.277-.85-.674-1.108-1.189-.258-.516-.386-1.118-.386-1.805 0-1.07.279-1.902.837-2.496.559-.594 1.344-.891 2.356-.891.629 0 1.184.137 1.664.41.48.274.85.666 1.107 1.178.258.512.387 1.111.387 1.799zm5.061-3.387c.242 0 .443.018.603.053l-.134 1.676c-.145-.039-.321-.059-.528-.059-.57 0-1.015.147-1.336.44-.316.293-.474.703-.474 1.23v3.334h-1.787v-6.551h1.353l.264 1.102h.088c.203-.367.476-.662.82-.885.348-.227.725-.34 1.131-.34zm3.795 6.791c-.769 0-1.375-.299-1.816-.896-.438-.598-.657-1.426-.657-2.485 0-1.074.223-1.91.668-2.507.45-.602 1.067-.903 1.852-.903.824 0 1.453.32 1.887.961h.058c-.09-.488-.134-.924-.134-1.307v-2.097h1.793v9.117h-1.372l-.345-.85h-.076c-.407.645-1.026.967-1.858.967zm.627-1.424c.457 0 .791-.132 1.002-.398.215-.266.332-.717.352-1.354v-.193c0-.703-.11-1.207-.329-1.512-.214-.304-.566-.457-1.054-.457-.399 0-.709.17-.932.51-.219.336-.328.826-.328 1.471 0 .644.111 1.129.334 1.453.223.32.541.48.955.48zm7.534-4.095c-.379 0-.676.121-.891.363-.215.238-.338.578-.369 1.019h2.508c-.008-.441-.123-.781-.346-1.019-.223-.242-.524-.363-.902-.363zm.251 5.519c-1.054 0-1.878-.291-2.472-.873s-.891-1.406-.891-2.473c0-1.097.274-1.945.821-2.542.55-.602 1.31-.903 2.279-.903.926 0 1.646.264 2.162.791.516.528.773 1.256.773 2.186v.867h-4.224c.019.508.17.904.451 1.189.281.286.676.428 1.184.428.394 0 .767-.041 1.119-.123.351-.082.718-.213 1.101-.393v1.383c-.312.157-.646.272-1.002.346-.355.078-.789.117-1.301.117zm7.71-6.791c.242 0 .443.018.603.053l-.135 1.676c-.144-.039-.32-.059-.527-.059-.57 0-1.015.147-1.336.44-.316.293-.474.703-.474 1.23v3.334h-1.788v-6.551h1.354l.264 1.102h.088c.203-.367.476-.662.82-.885.348-.227.724-.34 1.131-.34zm1.141 4.19v-1.465h3.146v1.465zm8.031-4.19c.242 0 .444.018.604.053l-.135 1.676c-.145-.039-.32-.059-.527-.059-.571 0-1.016.147-1.336.44-.317.293-.475.703-.475 1.23v3.334h-1.787v-6.551h1.353l.264 1.102h.088c.203-.367.477-.662.82-.885.348-.227.725-.34 1.131-.34zm5.881 6.674-.345-.891h-.047c-.301.379-.612.643-.932.791-.316.145-.73.217-1.242.217-.629 0-1.125-.179-1.488-.539-.36-.359-.539-.871-.539-1.535 0-.695.242-1.207.726-1.535.488-.332 1.223-.516 2.203-.551l1.137-.035v-.287c0-.664-.34-.996-1.02-.996-.523 0-1.138.158-1.845.474l-.592-1.207c.754-.394 1.59-.592 2.508-.592.879 0 1.552.192 2.021.575.469.382.703.965.703 1.746v4.365zm-.527-3.035-.691.023c-.52.016-.907.11-1.161.282-.254.171-.38.433-.38.785 0 .504.289.756.867.756.414 0 .744-.12.99-.358.25-.238.375-.555.375-.949zm5.623 3.152c-.769 0-1.375-.299-1.816-.896-.438-.598-.656-1.426-.656-2.485 0-1.074.222-1.91.668-2.507.449-.602 1.066-.903 1.851-.903.824 0 1.453.32 1.887.961h.058c-.089-.488-.134-.924-.134-1.307v-2.097h1.793v9.117h-1.371l-.346-.85h-.076c-.407.645-1.026.967-1.858.967zm.627-1.424c.457 0 .791-.132 1.002-.398.215-.266.332-.717.352-1.354v-.193c0-.703-.11-1.207-.328-1.512-.215-.304-.567-.457-1.055-.457-.399 0-.709.17-.932.51-.218.336-.328.826-.328 1.471 0 .644.111 1.129.334 1.453.223.32.541.48.955.48zm4.745-6.937c0-.582.324-.873.972-.873.649 0 .973.291.973.873 0 .277-.082.494-.246.65-.16.153-.403.229-.727.229-.648 0-.972-.293-.972-.879zm1.863 8.244h-1.787v-6.551h1.787zm6.449 0-.24-.838h-.094c-.191.305-.462.541-.814.709-.352.164-.752.246-1.201.246-.77 0-1.35-.205-1.74-.615-.391-.414-.586-1.008-.586-1.781v-4.272h1.787v3.826c0 .473.084.829.252 1.067.168.234.435.351.802.351.5 0 .862-.166 1.084-.498.223-.336.334-.89.334-1.664v-3.082h1.787v6.551zm7.745-1.945c0 .672-.235 1.183-.703 1.535-.465.351-1.162.527-2.092.527-.477 0-.883-.033-1.219-.099-.336-.063-.65-.157-.943-.282v-1.476c.332.156.705.287 1.119.392.418.106.785.159 1.101.159.649 0 .973-.188.973-.563 0-.141-.043-.254-.129-.34-.086-.09-.234-.189-.445-.299-.211-.113-.492-.244-.844-.392-.504-.211-.875-.406-1.113-.586-.235-.18-.406-.385-.516-.615-.105-.235-.158-.522-.158-.862 0-.582.225-1.031.674-1.347.453-.321 1.094-.481 1.922-.481.789 0 1.556.172 2.302.516l-.539 1.289c-.328-.141-.634-.256-.92-.346-.285-.09-.576-.135-.873-.135-.527 0-.791.143-.791.428 0 .16.084.299.252.416.172.117.545.291 1.12.522.511.207.886.4 1.125.58.238.179.414.386.527.621.113.234.17.513.17.838zm1.07 1.107c0-.328.088-.576.264-.744s.432-.252.768-.252c.324 0 .574.086.75.258.179.172.269.418.269.738 0 .309-.09.553-.269.733-.18.175-.43.263-.75.263-.329 0-.582-.086-.762-.258-.18-.175-.27-.421-.27-.738zm0-4.84c0-.328.088-.576.264-.744s.432-.252.768-.252c.324 0 .574.086.75.258.179.172.269.418.269.738 0 .317-.092.563-.275.739-.18.171-.428.257-.744.257-.329 0-.582-.086-.762-.257-.18-.172-.27-.418-.27-.739zm12.331 3.709h-1.272v1.969h-.931v-1.969h-4.166v-.849l4.066-5.795h1.031v5.759h1.272zm-2.203-.885v-2.847c0-.559.019-1.19.058-1.893h-.046c-.188.375-.364.686-.528.932l-2.678 3.808zm7.779 1.993h-.052c-.45.652-1.121.978-2.016.978-.84 0-1.494-.287-1.963-.861-.465-.574-.697-1.391-.697-2.449 0-1.059.234-1.881.703-2.467s1.121-.879 1.957-.879c.871 0 1.539.316 2.004.949h.076l-.041-.463-.023-.451v-2.613h.972v9.117h-.791zm-1.945.164c.664 0 1.145-.18 1.441-.539.301-.364.452-.948.452-1.752v-.205c0-.911-.153-1.559-.457-1.946-.301-.39-.784-.586-1.448-.586-.57 0-1.007.223-1.312.668-.301.442-.451 1.067-.451 1.875 0 .821.15 1.44.451 1.858s.742.627 1.324.627zm7.85.814c-.418 0-.801-.076-1.148-.228-.344-.157-.633-.395-.868-.715h-.07c.047.375.07.73.07 1.066v2.643h-.972v-9.305h.791l.134.879h.047c.25-.352.541-.605.873-.762.332-.156.713-.234 1.143-.234.852 0 1.508.291 1.969.873.465.582.697 1.398.697 2.449 0 1.055-.236 1.875-.709 2.461-.469.582-1.121.873-1.957.873zm-.141-5.83c-.656 0-1.131.182-1.423.545-.293.363-.444.941-.452 1.734v.217c0 .903.151 1.549.452 1.94.3.386.783.58 1.447.58.554 0 .988-.225 1.301-.674.316-.449.474-1.068.474-1.858 0-.8-.158-1.414-.474-1.839-.313-.43-.754-.645-1.325-.645z" fill="#fff"/><path d="m290.944 197h-1.107v-7.123c0-.592.018-1.153.055-1.682-.096.096-.203.196-.322.301-.118.105-.66.549-1.627 1.333l-.601-.779 2.645-2.044h.957zm3.84-4.272c0-1.965.381-3.432 1.142-4.403.765-.975 1.896-1.463 3.39-1.463.515 0 .921.044 1.217.13v.978c-.351-.114-.752-.171-1.203-.171-1.071 0-1.889.335-2.454 1.005-.565.665-.875 1.713-.93 3.144h.082c.502-.784 1.295-1.176 2.379-1.176.898 0 1.604.272 2.119.814.52.542.78 1.278.78 2.208 0 1.039-.285 1.857-.855 2.454-.565.592-1.331.889-2.297.889-1.034 0-1.854-.388-2.461-1.162-.606-.78-.909-1.862-.909-3.247zm3.357 3.445c.647 0 1.148-.203 1.504-.609.36-.41.54-1 .54-1.77 0-.661-.167-1.18-.499-1.559-.333-.378-.83-.567-1.491-.567-.41 0-.786.084-1.128.253-.341.169-.615.401-.82.697-.2.296-.301.604-.301.923 0 .469.091.907.274 1.313.182.405.44.726.772.963.337.237.72.356 1.149.356zm10.074-.178h-.062c-.524.761-1.308 1.142-2.351 1.142-.98 0-1.743-.335-2.29-1.005-.543-.67-.814-1.623-.814-2.858s.274-2.194.821-2.878c.546-.683 1.308-1.025 2.283-1.025 1.016 0 1.795.369 2.338 1.108h.089l-.048-.541-.028-.526v-3.049h1.135v10.637h-.923zm-2.27.192c.775 0 1.336-.21 1.682-.629.351-.424.526-1.106.526-2.044v-.24c0-1.061-.177-1.818-.533-2.269-.351-.456-.914-.684-1.688-.684-.666 0-1.176.26-1.532.78-.351.515-.526 1.244-.526 2.187 0 .957.175 1.679.526 2.167s.866.732 1.545.732zm9.159.95c-.488 0-.935-.089-1.34-.267-.401-.182-.739-.46-1.012-.834h-.082c.055.438.082.852.082 1.244v3.083h-1.135v-10.855h.923l.157 1.025h.055c.292-.41.631-.706 1.019-.888.387-.183.831-.274 1.333-.274.993 0 1.759.34 2.296 1.019.543.679.814 1.631.814 2.857 0 1.231-.276 2.188-.827 2.871-.547.679-1.308 1.019-2.283 1.019zm-.165-6.802c-.765 0-1.319.212-1.661.636-.341.424-.517 1.098-.526 2.023v.253c0 1.053.175 1.807.526 2.263.351.451.914.677 1.689.677.647 0 1.153-.263 1.517-.787.37-.524.554-1.246.554-2.167 0-.934-.184-1.649-.554-2.146-.364-.501-.879-.752-1.545-.752z" fill="#252a2e"/><g clip-path="url(#c)"><g clip-path="url(#d)"><rect fill="#171c1e" height="48" rx="4" width="374" x="331" y="168"/><path d="m351.45 197h-1.162v-8.962h-3.165v-1.032h7.492v1.032h-3.165zm7.92.137c-1.107 0-1.982-.338-2.625-1.012-.638-.674-.957-1.611-.957-2.81 0-1.207.296-2.167.889-2.877.597-.711 1.397-1.067 2.399-1.067.939 0 1.682.31 2.229.93.547.615.82 1.428.82 2.44v.718h-5.161c.023.88.244 1.547.663 2.003.424.456 1.019.684 1.784.684.807 0 1.604-.169 2.393-.506v1.011c-.401.174-.782.297-1.142.37-.355.077-.786.116-1.292.116zm-.308-6.816c-.601 0-1.082.196-1.442.588-.355.392-.565.934-.629 1.627h3.917c0-.715-.159-1.262-.478-1.64-.319-.383-.775-.575-1.368-.575zm7.059 2.844-2.604-3.657h1.292l1.975 2.871 1.969-2.871h1.278l-2.604 3.657 2.741 3.835h-1.285l-2.099-3.035-2.119 3.035h-1.285zm8.207 3.035c.201 0 .394-.013.581-.041.187-.032.335-.064.445-.096v.869c-.124.059-.306.107-.547.143-.237.041-.452.062-.643.062-1.449 0-2.174-.764-2.174-2.29v-4.457h-1.073v-.547l1.073-.472.479-1.6h.656v1.737h2.174v.882h-2.174v4.409c0 .451.107.797.321 1.039.214.241.508.362.882.362zm6.837.8v-9.994h1.162v9.994zm9.116 0v-4.847c0-.61-.139-1.066-.417-1.367s-.713-.451-1.305-.451c-.784 0-1.358.212-1.723.636s-.547 1.123-.547 2.098v3.931h-1.135v-7.492h.923l.185 1.025h.054c.233-.369.559-.654.978-.854.419-.205.886-.308 1.401-.308.903 0 1.582.219 2.037.656.456.433.684 1.128.684 2.085v4.888zm7.209.137c-.487 0-.934-.089-1.34-.267-.401-.182-.738-.46-1.011-.834h-.082c.054.438.082.852.082 1.244v3.083h-1.135v-10.855h.923l.157 1.025h.055c.291-.41.631-.706 1.018-.888.388-.183.832-.274 1.333-.274.994 0 1.759.34 2.297 1.019.542.679.814 1.631.814 2.857 0 1.231-.276 2.188-.828 2.871-.546.679-1.308 1.019-2.283 1.019zm-.164-6.802c-.765 0-1.319.212-1.661.636s-.517 1.098-.526 2.023v.253c0 1.053.175 1.807.526 2.263.351.451.914.677 1.689.677.647 0 1.153-.263 1.517-.787.369-.524.554-1.246.554-2.167 0-.934-.185-1.649-.554-2.146-.364-.501-.879-.752-1.545-.752zm6.58-.827v4.86c0 .611.139 1.067.417 1.367.278.301.713.452 1.306.452.784 0 1.356-.215 1.716-.643.364-.428.547-1.128.547-2.099v-3.937h1.134v7.492h-.936l-.164-1.005h-.062c-.232.369-.556.652-.97.848-.411.196-.88.294-1.409.294-.911 0-1.595-.217-2.05-.65-.452-.433-.677-1.125-.677-2.078v-4.901zm10.203 6.692c.201 0 .395-.013.581-.041.187-.032.335-.064.445-.096v.869c-.123.059-.306.107-.547.143-.237.041-.451.062-.643.062-1.449 0-2.174-.764-2.174-2.29v-4.457h-1.073v-.547l1.073-.472.479-1.6h.656v1.737h2.174v.882h-2.174v4.409c0 .451.107.797.322 1.039.214.241.508.362.881.362z" fill="#90939f"/></g><rect height="47" rx="3.5" stroke="#464b52" width="373" x="331.5" y="168.5"/></g><rect height="55" rx="5.5" stroke="#019aeb" stroke-linejoin="round" stroke-width="3" width="381" x="327.5" y="164.5"/><path d="m717 164h9v56h-9" stroke="#019aeb"/><path d="m736.275 189.615c.967 0 1.734.271 2.304.814.574.542.861 1.285.861 2.228 0 1.117-.344 1.976-1.032 2.577-.688.602-1.672.903-2.953.903-1.112 0-2.01-.18-2.693-.54v-1.826c.36.192.779.349 1.258.472.478.119.931.178 1.36.178 1.29 0 1.934-.529 1.934-1.586 0-1.007-.667-1.511-2.002-1.511-.242 0-.509.025-.8.075-.292.046-.529.096-.711.151l-.841-.451.376-5.093h5.421v1.791h-3.569l-.184 1.962.239-.048c.278-.064.622-.096 1.032-.096zm4.209 2.14c0-1.978.417-3.45 1.251-4.416.839-.966 2.092-1.449 3.76-1.449.57 0 1.016.034 1.34.102v1.689c-.406-.091-.807-.137-1.203-.137-.725 0-1.317.109-1.778.328-.455.219-.797.542-1.025.971-.228.428-.362 1.037-.403 1.825h.089c.451-.775 1.173-1.162 2.167-1.162.893 0 1.592.28 2.098.841.506.56.759 1.335.759 2.324 0 1.066-.301 1.912-.902 2.536-.602.62-1.436.93-2.502.93-.739 0-1.383-.171-1.935-.513-.547-.342-.971-.841-1.271-1.497-.297-.656-.445-1.447-.445-2.372zm3.61 2.693c.451 0 .797-.15 1.039-.451.241-.305.362-.738.362-1.299 0-.487-.114-.87-.342-1.148-.223-.283-.563-.424-1.018-.424-.429 0-.795.139-1.101.417-.301.278-.451.602-.451.971 0 .542.141 1 .424 1.374.287.373.649.56 1.087.56zm7.326 1.689c-.898 0-1.604-.349-2.119-1.046-.511-.697-.766-1.664-.766-2.899 0-1.253.26-2.228.779-2.925.525-.702 1.245-1.053 2.161-1.053.961 0 1.695.374 2.201 1.121h.068c-.105-.57-.157-1.078-.157-1.524v-2.448h2.092v10.637h-1.6l-.403-.991h-.089c-.474.752-1.196 1.128-2.167 1.128zm.731-1.661c.534 0 .923-.155 1.169-.465.251-.31.388-.837.41-1.579v-.226c0-.82-.127-1.408-.382-1.764-.251-.355-.661-.533-1.231-.533-.465 0-.827.198-1.087.595-.255.392-.383.964-.383 1.716s.13 1.317.39 1.695c.26.374.631.561 1.114.561zm9.822 1.661c-.898 0-1.602-.326-2.113-.978h-.109c.073.638.109 1.007.109 1.108v3.096h-2.085v-11.006h1.696l.294.992h.095c.488-.757 1.21-1.135 2.167-1.135.903 0 1.609.348 2.119 1.046.511.697.766 1.665.766 2.905 0 .816-.121 1.524-.362 2.126-.237.602-.577 1.06-1.019 1.374s-.961.472-1.558.472zm-.616-6.255c-.515 0-.891.159-1.128.478-.237.315-.36.837-.369 1.566v.225c0 .821.121 1.409.363 1.764.246.356.633.533 1.162.533.934 0 1.401-.77 1.401-2.31 0-.752-.116-1.315-.349-1.689-.227-.378-.587-.567-1.08-.567z" fill="#019aeb"/><path d="m810.244 0h78v242.667h-78z" fill="#c4c4c4"/><path d="m810.244 1h78v40h-78z" fill="#171c1e"/><path d="m829.691 26h-2.112v-4.3135h-3.958v4.3135h-2.119v-9.9941h2.119v3.917h3.958v-3.917h2.112zm5.447-6.3027c-.442 0-.789.1412-1.039.4238-.251.278-.395.6745-.431 1.1894h2.926c-.009-.5149-.144-.9114-.404-1.1894-.259-.2826-.61-.4238-1.052-.4238zm.294 6.4394c-1.231 0-2.192-.3395-2.885-1.0185-.693-.6791-1.039-1.6407-1.039-2.8848 0-1.2806.319-2.2695.957-2.9668.642-.7018 1.529-1.0527 2.659-1.0527 1.08 0 1.921.3076 2.522.9228.602.6153.903 1.4652.903 2.5498v1.0117h-4.929c.023.5925.198 1.0551.526 1.3877.329.3327.789.4991 1.381.4991.461 0 .896-.0479 1.306-.1436s.839-.2484 1.285-.458v1.6133c-.364.1823-.754.3167-1.169.4033-.415.0911-.92.1367-1.517.1367zm4.639-9.7549c0-.679.379-1.0185 1.135-1.0185.757 0 1.135.3395 1.135 1.0185 0 .3236-.096.5765-.287.7588-.187.1778-.47.2666-.848.2666-.756 0-1.135-.3418-1.135-1.0254zm2.174 9.6182h-2.085v-7.6426h2.085zm8.762-7.6426v1.0596l-1.197.3076c.219.3418.329.7246.329 1.1484 0 .8204-.287 1.4607-.862 1.9209-.569.4558-1.362.6836-2.379.6836l-.376-.0205-.307-.0341c-.214.164-.321.3463-.321.5468 0 .3008.382.4512 1.148.4512h1.299c.838 0 1.476.18 1.914.54.442.3601.663.8887.663 1.586 0 .8932-.374 1.5859-1.121 2.0781-.743.4922-1.812.7383-3.206.7383-1.067 0-1.882-.1869-2.447-.5606-.561-.3691-.841-.8886-.841-1.5586 0-.4602.143-.8453.43-1.1552s.709-.531 1.265-.6631c-.214-.0912-.401-.2393-.561-.4444-.159-.2096-.239-.4306-.239-.663 0-.2917.085-.5332.253-.7246.169-.196.413-.3874.732-.5743-.401-.1731-.72-.4511-.957-.834-.233-.3828-.349-.8339-.349-1.3535 0-.834.271-1.4788.813-1.9345.543-.4558 1.317-.6836 2.325-.6836.214 0 .467.0205.758.0615.297.0364.486.0638.568.082zm-5.9 8.7227c0 .2871.137.5127.411.6767.278.1641.665.2461 1.162.2461.747 0 1.333-.1025 1.756-.3076.424-.2051.636-.4853.636-.8408 0-.2871-.125-.4854-.376-.5947-.25-.1094-.638-.1641-1.162-.1641h-1.08c-.383 0-.704.0889-.964.2666-.255.1823-.383.4216-.383.7178zm.759-6.2207c0 .4147.094.7428.28.9844.192.2415.481.3623.869.3623.392 0 .679-.1208.861-.3623.182-.2416.273-.5697.273-.9844 0-.9206-.378-1.3809-1.134-1.3809-.766 0-1.149.4603-1.149 1.3809zm13.376 5.1406h-2.085v-4.4639c0-1.1028-.41-1.6543-1.23-1.6543-.584 0-1.005.1983-1.265.5948-.26.3964-.39 1.039-.39 1.9277v3.5957h-2.085v-10.6367h2.085v2.167c0 .1686-.016.5651-.047 1.1894l-.048.6153h.109c.465-.7474 1.203-1.1211 2.215-1.1211.898 0 1.579.2415 2.044.7246.465.483.697 1.1758.697 2.0781zm5.282-1.5244c.365 0 .802-.0798 1.313-.2393v1.5518c-.52.2324-1.158.3486-1.914.3486-.834 0-1.443-.2096-1.825-.6289-.379-.4238-.568-1.0573-.568-1.9004v-3.6845h-.998v-.8819l1.149-.6972.601-1.6133h1.333v1.6269h2.14v1.5655h-2.14v3.6845c0 .2962.082.515.246.6563.169.1412.39.2119.663.2119z" fill="#fff"/><path d="m810.244 42h78v99.333h-78z" fill="#252a2e"/><path d="m827.969 94.3699h-1.484v2.2968h-1.087v-2.2968h-4.86v-.9912l4.744-6.7608h1.203v6.7197h1.484zm-2.571-1.0323v-3.3222c0-.6517.023-1.3877.069-2.208h-.055c-.219.4375-.424.7998-.615 1.0869l-3.124 4.4433zm6.766-6.8085c.912 0 1.634.2119 2.167.6357s.8 1.0094.8 1.7568c0 .4922-.153.9411-.458 1.3467-.306.4056-.793.7748-1.463 1.1074.811.3874 1.388.7953 1.729 1.2237.342.4238.513.916.513 1.4765 0 .8295-.289 1.4925-.868 1.9893-.579.4922-1.372.7383-2.379.7383-1.066 0-1.887-.2325-2.461-.6973-.574-.4694-.861-1.1325-.861-1.9893 0-1.1438.697-2.0348 2.092-2.6728-.629-.3555-1.08-.7383-1.354-1.1484-.273-.4148-.41-.8773-.41-1.3877 0-.7247.267-1.3011.8-1.7295.537-.433 1.255-.6494 2.153-.6494zm-2.16 7.6152c0 .5469.189.973.567 1.2783.383.3053.919.458 1.607.458.679 0 1.207-.1595 1.586-.4785.378-.319.567-.7565.567-1.3125 0-.4421-.178-.834-.533-1.1758-.356-.3463-.975-.6813-1.86-1.0049-.679.2917-1.171.6153-1.476.9707-.305.351-.458.7725-.458 1.2647zm2.146-6.6924c-.569 0-1.016.1367-1.339.4102-.324.2734-.486.638-.486 1.0937 0 .4193.135.7793.403 1.0801.269.3008.766.6016 1.491.9023.651-.2734 1.112-.5674 1.381-.8818.273-.3145.41-.6813.41-1.1006 0-.4603-.167-.8249-.499-1.0937-.328-.2735-.782-.4102-1.361-.4102zm10.252 8.21h-.061c-.524.761-1.308 1.1416-2.352 1.1416-.98 0-1.743-.335-2.29-1.0049-.542-.6699-.813-1.6224-.813-2.8574 0-1.2351.273-2.1944.82-2.878s1.308-1.0254 2.283-1.0254c1.017 0 1.796.3692 2.338 1.1075h.089l-.048-.5401-.027-.5263v-3.0489h1.135v10.6367h-.923zm-2.269.1914c.775 0 1.335-.2097 1.681-.6289.351-.4239.527-1.1052.527-2.044v-.2392c0-1.0619-.178-1.8184-.533-2.2696-.351-.4557-.914-.6836-1.689-.6836-.665 0-1.176.2598-1.531.7793-.351.515-.527 1.2442-.527 2.1875 0 .9571.176 1.6794.527 2.167.351.4877.866.7315 1.545.7315zm9.158.9502c-.488 0-.934-.0889-1.34-.2666-.401-.1823-.738-.4603-1.012-.834h-.082c.055.4375.082.8522.082 1.2441v3.083h-1.134v-10.8554h.922l.158 1.0254h.054c.292-.4102.632-.7064 1.019-.8887s.832-.2735 1.333-.2735c.993 0 1.759.3396 2.297 1.0186.542.679.813 1.6315.813 2.8574 0 1.2305-.275 2.1875-.827 2.8711-.547.679-1.308 1.0186-2.283 1.0186zm-.164-6.8018c-.766 0-1.319.2119-1.661.6358-.342.4238-.517 1.0983-.527 2.0234v.2529c0 1.0528.176 1.807.527 2.2627.351.4512.914.6768 1.688.6768.647 0 1.153-.2621 1.518-.7862.369-.524.554-1.2464.554-2.167 0-.9342-.185-1.6497-.554-2.1464-.365-.5013-.88-.752-1.545-.752z" fill="#fff"/><path d="m810.244 142.333h78v99.333h-78z" fill="#252a2e"/><path d="m824.052 190.896c1.052 0 1.88.262 2.481.786.606.519.909 1.232.909 2.139 0 1.035-.33 1.846-.991 2.434-.656.588-1.563.882-2.721.882-1.125 0-1.984-.18-2.577-.54v-1.094c.319.205.716.367 1.19.485.474.114.941.171 1.401.171.802 0 1.424-.189 1.866-.567.447-.378.67-.925.67-1.641 0-1.394-.854-2.092-2.563-2.092-.433 0-1.012.066-1.737.199l-.587-.376.376-4.676h4.969v1.046h-3.999l-.253 3.001c.524-.105 1.046-.157 1.566-.157zm4.92 1.832c0-1.965.38-3.432 1.141-4.403.766-.975 1.896-1.463 3.391-1.463.515 0 .92.044 1.217.13v.978c-.351-.114-.752-.171-1.203-.171-1.071 0-1.889.335-2.455 1.005-.565.665-.875 1.713-.929 3.144h.082c.501-.784 1.294-1.176 2.379-1.176.897 0 1.604.272 2.119.814.519.542.779 1.278.779 2.208 0 1.039-.285 1.857-.854 2.454-.565.592-1.331.889-2.297.889-1.035 0-1.855-.388-2.461-1.162-.606-.78-.909-1.862-.909-3.247zm3.356 3.445c.647 0 1.149-.203 1.504-.609.36-.41.54-1 .54-1.77 0-.661-.166-1.18-.499-1.559-.333-.378-.829-.567-1.49-.567-.41 0-.786.084-1.128.253s-.615.401-.82.697c-.201.296-.301.604-.301.923 0 .469.091.907.273 1.313.183.405.44.726.773.963.337.237.72.356 1.148.356zm10.074-.178h-.061c-.524.761-1.308 1.142-2.352 1.142-.98 0-1.743-.335-2.29-1.005-.542-.67-.813-1.623-.813-2.858s.273-2.194.82-2.878c.547-.683 1.308-1.025 2.283-1.025 1.017 0 1.796.369 2.338 1.108h.089l-.048-.541-.027-.526v-3.049h1.135v10.637h-.923zm-2.269.192c.775 0 1.335-.21 1.681-.629.351-.424.527-1.106.527-2.044v-.24c0-1.061-.178-1.818-.533-2.269-.351-.456-.914-.684-1.689-.684-.665 0-1.176.26-1.531.78-.351.515-.527 1.244-.527 2.187 0 .957.176 1.679.527 2.167s.866.732 1.545.732zm9.158.95c-.488 0-.934-.089-1.34-.267-.401-.182-.738-.46-1.012-.834h-.082c.055.438.082.852.082 1.244v3.083h-1.134v-10.855h.922l.158 1.025h.054c.292-.41.632-.706 1.019-.888.387-.183.832-.274 1.333-.274.993 0 1.759.34 2.297 1.019.542.679.813 1.631.813 2.857 0 1.231-.275 2.188-.827 2.871-.547.679-1.308 1.019-2.283 1.019zm-.164-6.802c-.766 0-1.319.212-1.661.636s-.517 1.098-.527 2.023v.253c0 1.053.176 1.807.527 2.263.351.451.914.677 1.688.677.647 0 1.153-.263 1.518-.787.369-.524.554-1.246.554-2.167 0-.934-.185-1.649-.554-2.146-.365-.501-.88-.752-1.545-.752z" fill="#fff"/><path d="m889.244 0h196.756v242.667h-196.756z" fill="#c4c4c4"/><path d="m889.244 1h196.756v40h-196.756z" fill="#171c1e"/><path d="m902.587 26h-2.085v-9.9941h5.728v1.7363h-3.643v2.5771h3.391v1.7295h-3.391zm7.012-3.835c0 .7565.123 1.3285.369 1.7159.25.3873.656.581 1.217.581.556 0 .954-.1914 1.196-.5742.246-.3874.369-.9616.369-1.7227 0-.7565-.123-1.3239-.369-1.7021-.246-.3783-.65-.5674-1.21-.5674-.556 0-.957.1891-1.203.5674-.246.3737-.369.9411-.369 1.7021zm5.284 0c0 1.2442-.328 2.2172-.985 2.919-.656.7018-1.57 1.0527-2.741 1.0527-.734 0-1.381-.1595-1.941-.4785-.561-.3236-.991-.7861-1.292-1.3877s-.451-1.3034-.451-2.1055c0-1.2487.325-2.2194.977-2.9121s1.568-1.039 2.748-1.039c.734 0 1.381.1595 1.942.4785.56.319.991.777 1.292 1.374.3.597.451 1.2966.451 2.0986zm8.693 3.835h-2.085v-4.4639c0-.5514-.098-.9638-.294-1.2373-.196-.278-.508-.417-.936-.417-.584 0-1.005.196-1.265.5879-.26.3874-.39 1.0323-.39 1.9346v3.5957h-2.085v-7.6426h1.593l.281.9776h.116c.232-.3692.551-.6472.957-.834.41-.1914.875-.2871 1.394-.2871.889 0 1.563.2415 2.024.7246.46.4785.69 1.1712.69 2.0781zm5.282-1.5244c.365 0 .802-.0798 1.313-.2393v1.5518c-.52.2324-1.158.3486-1.914.3486-.834 0-1.443-.2096-1.825-.6289-.379-.4238-.568-1.0573-.568-1.9004v-3.6845h-.998v-.8819l1.149-.6972.601-1.6133h1.333v1.6269h2.14v1.5655h-2.14v3.6845c0 .2962.082.515.246.6563.169.1412.39.2119.663.2119zm11.665-.7451c0 .7838-.273 1.3808-.82 1.791-.542.4101-1.356.6152-2.44.6152-.556 0-1.03-.0387-1.422-.1162-.392-.0729-.759-.1823-1.101-.3281v-1.7227c.388.1823.823.335 1.306.458.487.1231.916.1846 1.285.1846.756 0 1.135-.2187 1.135-.6562 0-.1641-.05-.2963-.151-.3965-.1-.1048-.273-.2211-.519-.3487-.246-.1321-.574-.2848-.985-.458-.587-.2461-1.02-.4739-1.298-.6836-.274-.2096-.474-.4489-.602-.7177-.123-.2735-.185-.6084-.185-1.0049 0-.6791.263-1.2031.787-1.5723.528-.3737 1.276-.5605 2.242-.5605.92 0 1.816.2005 2.686.6015l-.629 1.5039c-.382-.164-.74-.2985-1.073-.4033s-.672-.1572-1.018-.1572c-.616 0-.923.1663-.923.499 0 .1869.098.3486.294.4854.2.1367.635.3395 1.305.6084.597.2415 1.035.4671 1.313.6767.278.2097.483.4512.615.7246.132.2735.198.5993.198.9776zm1.454-7.3487c0-.679.379-1.0185 1.135-1.0185.757 0 1.135.3395 1.135 1.0185 0 .3236-.096.5765-.287.7588-.187.1778-.47.2666-.848.2666-.756 0-1.135-.3418-1.135-1.0254zm2.174 9.6182h-2.085v-7.6426h2.085zm7.429 0h-6.036v-1.2305l3.541-4.8193h-3.329v-1.5928h5.701v1.3535l-3.445 4.6963h3.568zm4.599-6.3027c-.442 0-.789.1412-1.039.4238-.251.278-.395.6745-.431 1.1894h2.926c-.009-.5149-.144-.9114-.404-1.1894-.259-.2826-.61-.4238-1.052-.4238zm.294 6.4394c-1.231 0-2.193-.3395-2.885-1.0185-.693-.6791-1.039-1.6407-1.039-2.8848 0-1.2806.319-2.2695.957-2.9668.642-.7018 1.529-1.0527 2.659-1.0527 1.08 0 1.921.3076 2.522.9228.602.6153.903 1.4652.903 2.5498v1.0117h-4.929c.023.5925.198 1.0551.526 1.3877.328.3327.789.4991 1.381.4991.461 0 .896-.0479 1.306-.1436s.838-.2484 1.285-.458v1.6133c-.365.1823-.754.3167-1.169.4033-.415.0911-.92.1367-1.517.1367z" fill="#fff"/><path d="m889.244 42h196.756v99.333h-196.756z" fill="#252a2e"/><path d="m904.132 96.6667h-1.108v-7.123c0-.5924.019-1.153.055-1.6816-.096.0957-.203.1959-.321.3007-.119.1049-.661.5492-1.627 1.333l-.602-.7792 2.646-2.044h.957zm10.764-2.2968h-1.483v2.2968h-1.087v-2.2968h-4.86v-.9912l4.744-6.7608h1.203v6.7197h1.483zm-2.57-1.0323v-3.3222c0-.6517.023-1.3877.069-2.208h-.055c-.219.4375-.424.7998-.615 1.0869l-3.124 4.4433zm12.362 1.2852c0 .6973-.259 1.235-.779 1.6133-.519.3782-1.249.5674-2.187.5674-.994 0-1.769-.1573-2.325-.4717v-1.0527c.36.1822.746.3258 1.156.4306.414.1048.813.1572 1.196.1572.592 0 1.048-.0934 1.367-.2802.319-.1914.479-.4808.479-.8682 0-.2917-.128-.54-.383-.7451-.251-.2096-.743-.4557-1.477-.7383-.697-.2598-1.194-.4853-1.49-.6768-.292-.1959-.51-.4169-.656-.663-.141-.2461-.212-.5401-.212-.8819 0-.6106.248-1.0914.745-1.4424.497-.3554 1.178-.5332 2.044-.5332.807 0 1.595.1641 2.365.4922l-.403.9229c-.752-.3099-1.433-.4649-2.044-.4649-.538 0-.943.0843-1.217.253-.273.1686-.41.401-.41.6972 0 .2006.05.3715.15.5127.105.1413.272.2757.499.4033.228.1277.666.3122 1.313.5538.889.3235 1.488.6494 1.798.9775.314.3281.471.7406.471 1.2373zm5.255 2.1807c-.487 0-.934-.0889-1.34-.2666-.401-.1823-.738-.4603-1.011-.834h-.082c.054.4375.082.8522.082 1.2441v3.083h-1.135v-10.8554h.923l.157 1.0254h.055c.291-.4102.631-.7064 1.018-.8887.388-.1823.832-.2735 1.333-.2735.994 0 1.759.3396 2.297 1.0186.542.679.814 1.6315.814 2.8574 0 1.2305-.276 2.1875-.828 2.8711-.546.679-1.307 1.0186-2.283 1.0186zm-.164-6.8018c-.765 0-1.319.2119-1.661.6358-.342.4238-.517 1.0983-.526 2.0234v.2529c0 1.0528.175 1.807.526 2.2627.351.4512.914.6768 1.689.6768.647 0 1.153-.2621 1.517-.7862.369-.524.554-1.2464.554-2.167 0-.9342-.185-1.6497-.554-2.1464-.364-.5013-.879-.752-1.545-.752z" fill="#fff"/><path d="m889.244 142.333h196.756v99.333h-196.756z" fill="#252a2e"/><path d="m904.132 197h-1.108v-7.123c0-.592.019-1.153.055-1.682-.096.096-.203.196-.321.301-.119.105-.661.549-1.627 1.333l-.602-.779 2.646-2.044h.957zm10.764-2.297h-1.483v2.297h-1.087v-2.297h-4.86v-.991l4.744-6.761h1.203v6.72h1.483zm-2.57-1.032v-3.322c0-.652.023-1.388.069-2.208h-.055c-.219.437-.424.799-.615 1.087l-3.124 4.443zm12.629 2.324h-.061c-.525.761-1.308 1.142-2.352 1.142-.98 0-1.743-.335-2.29-1.005-.542-.67-.814-1.623-.814-2.858s.274-2.194.821-2.878c.547-.683 1.308-1.025 2.283-1.025 1.016 0 1.796.369 2.338 1.108h.089l-.048-.541-.027-.526v-3.049h1.134v10.637h-.923zm-2.27.192c.775 0 1.336-.21 1.682-.629.351-.424.527-1.106.527-2.044v-.24c0-1.061-.178-1.818-.534-2.269-.351-.456-.913-.684-1.688-.684-.666 0-1.176.26-1.531.78-.351.515-.527 1.244-.527 2.187 0 .957.176 1.679.527 2.167.35.488.865.732 1.544.732zm9.159.95c-.488 0-.935-.089-1.34-.267-.401-.182-.738-.46-1.012-.834h-.082c.055.438.082.852.082 1.244v3.083h-1.135v-10.855h.923l.157 1.025h.055c.292-.41.631-.706 1.019-.888.387-.183.831-.274 1.333-.274.993 0 1.759.34 2.297 1.019.542.679.813 1.631.813 2.857 0 1.231-.276 2.188-.827 2.871-.547.679-1.308 1.019-2.283 1.019zm-.164-6.802c-.766 0-1.32.212-1.662.636-.341.424-.517 1.098-.526 2.023v.253c0 1.053.176 1.807.526 2.263.351.451.914.677 1.689.677.647 0 1.153-.263 1.518-.787.369-.524.553-1.246.553-2.167 0-.934-.184-1.649-.553-2.146-.365-.501-.88-.752-1.545-.752z" fill="#fff"/></svg>