<svg width="1087" height="243" viewBox="0 0 1087 243" fill="none" xmlns="http://www.w3.org/2000/svg"><rect width="1087" height="242.667" fill="#CBCDD6"/><rect width="100" height="242.667" transform="translate(1)" fill="#C4C4C4"/><rect width="100" height="40" transform="translate(1 1)" fill="#171C1E"/><path d="M18.1572 23.2246C18.1572 24.127 17.8314 24.8379 17.1797 25.3574C16.5326 25.877 15.6302 26.1367 14.4727 26.1367C13.4062 26.1367 12.4629 25.9362 11.6426 25.5352V23.5664C12.3171 23.8672 12.8867 24.0791 13.3516 24.2021C13.821 24.3252 14.2493 24.3867 14.6367 24.3867C15.1016 24.3867 15.457 24.2979 15.7031 24.1201C15.9538 23.9424 16.0791 23.6781 16.0791 23.3271C16.0791 23.1312 16.0244 22.958 15.915 22.8076C15.8057 22.6527 15.6439 22.5046 15.4297 22.3633C15.2201 22.222 14.7894 21.9964 14.1377 21.6865C13.527 21.3994 13.069 21.1237 12.7637 20.8594C12.4583 20.5951 12.2145 20.2874 12.0322 19.9365C11.8499 19.5856 11.7588 19.1755 11.7588 18.7061C11.7588 17.8219 12.0573 17.127 12.6543 16.6211C13.2559 16.1152 14.0853 15.8623 15.1426 15.8623C15.6621 15.8623 16.1566 15.9238 16.626 16.0469C17.0999 16.1699 17.5944 16.3431 18.1094 16.5664L17.4258 18.2139C16.8926 17.9951 16.4505 17.8424 16.0996 17.7559C15.7533 17.6693 15.4115 17.626 15.0742 17.626C14.6732 17.626 14.3656 17.7194 14.1514 17.9062C13.9372 18.0931 13.8301 18.3369 13.8301 18.6377C13.8301 18.8245 13.8734 18.9886 13.96 19.1299C14.0465 19.2666 14.1833 19.401 14.3701 19.5332C14.5615 19.6608 15.0104 19.8932 15.7168 20.2305C16.651 20.6771 17.2913 21.126 17.6377 21.5771C17.984 22.0238 18.1572 22.5729 18.1572 23.2246ZM22.9404 24.4756C23.305 24.4756 23.7425 24.3958 24.2529 24.2363V25.7881C23.7334 26.0205 23.0954 26.1367 22.3389 26.1367C21.5049 26.1367 20.8965 25.9271 20.5137 25.5078C20.1354 25.084 19.9463 24.4505 19.9463 23.6074V19.9229H18.9482V19.041L20.0967 18.3438L20.6982 16.7305H22.0312V18.3574H24.1709V19.9229H22.0312V23.6074C22.0312 23.9036 22.1133 24.1224 22.2773 24.2637C22.4459 24.4049 22.667 24.4756 22.9404 24.4756ZM30.5742 26L30.1709 24.9609H30.1162C29.7653 25.403 29.403 25.7106 29.0293 25.8838C28.6601 26.0524 28.1771 26.1367 27.58 26.1367C26.8463 26.1367 26.2675 25.9271 25.8437 25.5078C25.4244 25.0885 25.2148 24.4915 25.2148 23.7168C25.2148 22.9056 25.4974 22.3086 26.0625 21.9258C26.6321 21.5384 27.4889 21.3242 28.6328 21.2832L29.959 21.2422V20.9072C29.959 20.1325 29.5625 19.7451 28.7695 19.7451C28.1588 19.7451 27.441 19.9297 26.6162 20.2988L25.9257 18.8906C26.8053 18.4303 27.7806 18.2002 28.8515 18.2002C29.8769 18.2002 30.6631 18.4235 31.2099 18.8701C31.7568 19.3167 32.0302 19.9958 32.0302 20.9072V26H30.5742ZM29.959 22.459L29.1523 22.4863C28.5462 22.5046 28.095 22.6139 27.7988 22.8145C27.5026 23.015 27.3545 23.3203 27.3545 23.7305C27.3545 24.3184 27.6917 24.6123 28.3662 24.6123C28.8493 24.6123 29.2343 24.4733 29.5215 24.1953C29.8131 23.9173 29.959 23.5482 29.959 23.0879V22.459ZM37.3193 24.4756C37.6839 24.4756 38.1214 24.3958 38.6318 24.2363V25.7881C38.1123 26.0205 37.4742 26.1367 36.7177 26.1367C35.8837 26.1367 35.2753 25.9271 34.8925 25.5078C34.5143 25.084 34.3251 24.4505 34.3251 23.6074V19.9229H33.3271V19.041L34.4755 18.3438L35.0771 16.7305H36.4101V18.3574H38.5498V19.9229H36.4101V23.6074C36.4101 23.9036 36.4921 24.1224 36.6562 24.2637C36.8248 24.4049 37.0459 24.4756 37.3193 24.4756ZM43.2646 19.6973C42.8225 19.6973 42.4762 19.8385 42.2255 20.1211C41.9749 20.3991 41.8313 20.7956 41.7949 21.3105H44.7206C44.7115 20.7956 44.5771 20.3991 44.3173 20.1211C44.0576 19.8385 43.7066 19.6973 43.2646 19.6973ZM43.5585 26.1367C42.3281 26.1367 41.3665 25.7972 40.6738 25.1182C39.9811 24.4391 39.6347 23.4775 39.6347 22.2334C39.6347 20.9528 39.9537 19.9639 40.5917 19.2666C41.2343 18.5648 42.1207 18.2139 43.2509 18.2139C44.331 18.2139 45.1718 18.5215 45.7734 19.1367C46.3749 19.752 46.6757 20.6019 46.6757 21.6865V22.6982H41.747C41.7698 23.2907 41.9452 23.7533 42.2734 24.0859C42.6015 24.4186 43.0618 24.585 43.6542 24.585C44.1145 24.585 44.5497 24.5371 44.9599 24.4414C45.3701 24.3457 45.7984 24.193 46.2451 23.9834V25.5967C45.8805 25.779 45.4908 25.9134 45.0761 26C44.6614 26.0911 44.1555 26.1367 43.5585 26.1367Z" fill="#fff"/><rect width="100" height="99.333" transform="translate(1 42)" fill="#252A2E"/><path d="M20.5498 91.574C20.5498 93.2192 20.0804 94.4792 19.1416 95.3542C18.2074 96.2292 16.8561 96.6667 15.0879 96.6667H12.2578V86.6726H15.3955C17.027 86.6726 18.2939 87.1033 19.1963 87.9646C20.0986 88.8259 20.5498 90.0291 20.5498 91.574ZM18.3486 91.6287C18.3486 89.4822 17.4007 88.4089 15.5049 88.4089H14.377V94.9167H15.2861C17.3278 94.9167 18.3486 93.8207 18.3486 91.6287ZM25.5381 90.364C25.096 90.364 24.7497 90.5053 24.499 90.7878C24.2484 91.0658 24.1048 91.4623 24.0683 91.9773H26.9941C26.985 91.4623 26.8506 91.0658 26.5908 90.7878C26.331 90.5053 25.9801 90.364 25.5381 90.364ZM25.832 96.8035C24.6015 96.8035 23.64 96.4639 22.9473 95.7849C22.2545 95.1059 21.9082 94.1443 21.9082 92.9001C21.9082 91.6195 22.2272 90.6306 22.8652 89.9333C23.5078 89.2315 24.3942 88.8806 25.5244 88.8806C26.6045 88.8806 27.4453 89.1882 28.0469 89.8035C28.6484 90.4187 28.9492 91.2686 28.9492 92.3533V93.365H24.0205C24.0433 93.9574 24.2187 94.42 24.5469 94.7527C24.875 95.0854 25.3353 95.2517 25.9277 95.2517C26.388 95.2517 26.8232 95.2039 27.2334 95.1082C27.6435 95.0125 28.0719 94.8598 28.5185 94.6501V96.2634C28.154 96.4457 27.7643 96.5802 27.3496 96.6667C26.9349 96.7579 26.429 96.8035 25.832 96.8035ZM34.7851 90.5896H32.9804V96.6667H30.8955V90.5896H29.747V89.5847L30.8955 89.0242V88.4636C30.8955 87.5932 31.1097 86.9574 31.5381 86.5564C31.9664 86.1554 32.6523 85.9548 33.5957 85.9548C34.3157 85.9548 34.956 86.0619 35.5166 86.2761L34.9834 87.8074C34.5641 87.6752 34.1767 87.6091 33.8213 87.6091C33.525 87.6091 33.3108 87.698 33.1787 87.8757C33.0465 88.0489 32.9804 88.2722 32.9804 88.5457V89.0242H34.7851V90.5896ZM40.7578 96.6667L40.3544 95.6277H40.2998C39.9488 96.0697 39.5865 96.3774 39.2128 96.5505C38.8437 96.7192 38.3606 96.8035 37.7636 96.8035C37.0299 96.8035 36.4511 96.5938 36.0273 96.1746C35.608 95.7553 35.3984 95.1583 35.3984 94.3835C35.3984 93.5723 35.6809 92.9753 36.246 92.5925C36.8157 92.2052 37.6725 91.991 38.8164 91.95L40.1425 91.9089V91.574C40.1425 90.7992 39.746 90.4119 38.9531 90.4119C38.3424 90.4119 37.6246 90.5964 36.7998 90.9656L36.1093 89.5574C36.9889 89.0971 37.9641 88.8669 39.0351 88.8669C40.0605 88.8669 40.8466 89.0903 41.3935 89.5369C41.9404 89.9835 42.2138 90.6625 42.2138 91.574V96.6667H40.7578ZM40.1425 93.1257L39.3359 93.1531C38.7298 93.1713 38.2786 93.2807 37.9824 93.4812C37.6862 93.6817 37.538 93.9871 37.538 94.3972C37.538 94.9851 37.8753 95.2791 38.5498 95.2791C39.0328 95.2791 39.4179 95.1401 39.705 94.8621C39.9967 94.5841 40.1425 94.2149 40.1425 93.7546V93.1257ZM49.6972 96.6667L49.4169 95.6892H49.3076C49.0842 96.0447 48.7675 96.3204 48.3574 96.5164C47.9472 96.7078 47.4801 96.8035 46.956 96.8035C46.0582 96.8035 45.3814 96.5642 44.9257 96.0857C44.47 95.6026 44.2421 94.9099 44.2421 94.0076V89.0242H46.3271V93.488C46.3271 94.0395 46.4251 94.4542 46.621 94.7322C46.817 95.0056 47.1292 95.1423 47.5576 95.1423C48.1409 95.1423 48.5624 94.9486 48.8222 94.5613C49.082 94.1694 49.2119 93.5222 49.2119 92.6199V89.0242H51.2968V96.6667H49.6972ZM55.4853 96.6667H53.4003V86.03H55.4853V96.6667ZM60.8153 95.1423C61.1799 95.1423 61.6174 95.0626 62.1278 94.9031V96.4548C61.6083 96.6873 60.9703 96.8035 60.2138 96.8035C59.3798 96.8035 58.7714 96.5938 58.3886 96.1746C58.0103 95.7507 57.8212 95.1173 57.8212 94.2742V90.5896H56.8231V89.7078L57.9716 89.0105L58.5731 87.3972H59.9062V89.0242H62.0458V90.5896H59.9062V94.2742C59.9062 94.5704 59.9882 94.7891 60.1522 94.9304C60.3209 95.0717 60.5419 95.1423 60.8153 95.1423Z" fill="#fff"/><rect width="100" height="99.333" transform="translate(1 142.333)" fill="#252A2E"/><path d="M14.3428 197H12.2578V187.006H17.9863V188.742H14.3428V191.319H17.7334V193.049H14.3428V197ZM21.3545 193.165C21.3545 193.922 21.4775 194.493 21.7236 194.881C21.9743 195.268 22.3799 195.462 22.9404 195.462C23.4964 195.462 23.8952 195.271 24.1367 194.888C24.3828 194.5 24.5058 193.926 24.5058 193.165C24.5058 192.409 24.3828 191.841 24.1367 191.463C23.8906 191.085 23.4873 190.896 22.9267 190.896C22.3708 190.896 21.9697 191.085 21.7236 191.463C21.4775 191.837 21.3545 192.404 21.3545 193.165ZM26.6387 193.165C26.6387 194.409 26.3105 195.382 25.6543 196.084C24.998 196.786 24.0843 197.137 22.9131 197.137C22.1793 197.137 21.5322 196.977 20.9717 196.658C20.4111 196.335 19.9805 195.872 19.6797 195.271C19.3789 194.669 19.2285 193.967 19.2285 193.165C19.2285 191.916 19.5543 190.946 20.206 190.253C20.8577 189.56 21.7737 189.214 22.9541 189.214C23.6878 189.214 24.3349 189.373 24.8955 189.692C25.456 190.011 25.8867 190.469 26.1875 191.066C26.4883 191.663 26.6387 192.363 26.6387 193.165ZM31.3808 197.137C29.0019 197.137 27.8125 195.831 27.8125 193.22C27.8125 191.921 28.136 190.93 28.7832 190.246C29.4303 189.558 30.3577 189.214 31.5654 189.214C32.4495 189.214 33.2425 189.387 33.9443 189.733L33.3291 191.347C33.0009 191.215 32.6956 191.107 32.4131 191.025C32.1305 190.939 31.848 190.896 31.5654 190.896C30.4808 190.896 29.9384 191.666 29.9384 193.206C29.9384 194.701 30.4808 195.448 31.5654 195.448C31.9664 195.448 32.3379 195.396 32.6797 195.291C33.0215 195.182 33.3633 195.013 33.705 194.785V196.569C33.3678 196.784 33.026 196.932 32.6797 197.014C32.3379 197.096 31.9049 197.137 31.3808 197.137ZM40.8125 197L40.5322 196.022H40.4228C40.1995 196.378 39.8828 196.654 39.4726 196.85C39.0625 197.041 38.5953 197.137 38.0712 197.137C37.1735 197.137 36.4967 196.897 36.041 196.419C35.5852 195.936 35.3574 195.243 35.3574 194.341V189.357H37.4423V193.821C37.4423 194.373 37.5403 194.787 37.7363 195.065C37.9322 195.339 38.2444 195.476 38.6728 195.476C39.2561 195.476 39.6777 195.282 39.9375 194.895C40.1972 194.503 40.3271 193.855 40.3271 192.953V189.357H42.4121V197H40.8125ZM49.8476 194.73C49.8476 195.514 49.5742 196.111 49.0273 196.521C48.485 196.932 47.6715 197.137 46.5869 197.137C46.0309 197.137 45.5569 197.098 45.165 197.021C44.7731 196.948 44.4062 196.838 44.0644 196.692V194.97C44.4518 195.152 44.887 195.305 45.3701 195.428C45.8577 195.551 46.2861 195.612 46.6552 195.612C47.4117 195.612 47.79 195.394 47.79 194.956C47.79 194.792 47.7398 194.66 47.6396 194.56C47.5393 194.455 47.3661 194.339 47.1201 194.211C46.874 194.079 46.5458 193.926 46.1357 193.753C45.5478 193.507 45.1148 193.279 44.8369 193.069C44.5634 192.86 44.3629 192.62 44.2353 192.352C44.1122 192.078 44.0507 191.743 44.0507 191.347C44.0507 190.668 44.3128 190.144 44.8369 189.774C45.3655 189.401 46.1129 189.214 47.079 189.214C47.9996 189.214 48.8951 189.414 49.7656 189.815L49.1367 191.319C48.7538 191.155 48.3961 191.021 48.0634 190.916C47.7307 190.811 47.3912 190.759 47.0449 190.759C46.4296 190.759 46.122 190.925 46.122 191.258C46.122 191.445 46.22 191.606 46.416 191.743C46.6165 191.88 47.0517 192.083 47.7216 192.352C48.3186 192.593 48.7561 192.819 49.0341 193.028C49.3121 193.238 49.5172 193.479 49.6494 193.753C49.7815 194.026 49.8476 194.352 49.8476 194.73Z" fill="#fff"/><rect width="707.244" height="40" transform="translate(102 1)" fill="#171C1E"/><path d="M119.014 26H113.258V16.0059H119.014V17.7422H115.377V19.9365H118.761V21.6729H115.377V24.25H119.014V26ZM122.423 22.0967L119.962 18.3574H122.327L123.811 20.791L125.308 18.3574H127.673L125.185 22.0967L127.789 26H125.417L123.811 23.3818L122.197 26H119.832L122.423 22.0967ZM133.721 26L133.317 24.9609H133.263C132.912 25.403 132.549 25.7106 132.176 25.8838C131.807 26.0524 131.324 26.1367 130.727 26.1367C129.993 26.1367 129.414 25.9271 128.99 25.5078C128.571 25.0885 128.361 24.4915 128.361 23.7168C128.361 22.9056 128.644 22.3086 129.209 21.9258C129.779 21.5384 130.635 21.3242 131.779 21.2832L133.105 21.2422V20.9072C133.105 20.1325 132.709 19.7451 131.916 19.7451C131.305 19.7451 130.588 19.9297 129.763 20.2988L129.072 18.8906C129.952 18.4303 130.927 18.2002 131.998 18.2002C133.023 18.2002 133.81 18.4235 134.356 18.8701C134.903 19.3167 135.177 19.9958 135.177 20.9072V26H133.721ZM133.105 22.459L132.299 22.4863C131.693 22.5046 131.242 22.6139 130.945 22.8145C130.649 23.015 130.501 23.3203 130.501 23.7305C130.501 24.3184 130.838 24.6123 131.513 24.6123C131.996 24.6123 132.381 24.4733 132.668 24.1953C132.96 23.9173 133.105 23.5482 133.105 23.0879V22.459ZM144.089 26H142.004V21.5361C142.004 20.9847 141.91 20.5723 141.724 20.2988C141.541 20.0208 141.252 19.8818 140.855 19.8818C140.322 19.8818 139.935 20.0778 139.693 20.4697C139.452 20.8617 139.331 21.5065 139.331 22.4043V26H137.246V18.3574H138.839L139.119 19.335H139.235C139.44 18.984 139.737 18.7106 140.124 18.5146C140.511 18.3141 140.956 18.2139 141.457 18.2139C142.601 18.2139 143.376 18.5876 143.781 19.335H143.966C144.171 18.9795 144.472 18.7038 144.868 18.5078C145.269 18.3118 145.72 18.2139 146.222 18.2139C147.088 18.2139 147.741 18.4372 148.184 18.8838C148.63 19.3258 148.853 20.0368 148.853 21.0166V26H146.762V21.5361C146.762 20.9847 146.668 20.5723 146.481 20.2988C146.299 20.0208 146.01 19.8818 145.613 19.8818C145.103 19.8818 144.72 20.0641 144.465 20.4287C144.214 20.7933 144.089 21.3721 144.089 22.165V26ZM155.113 26.1367C154.215 26.1367 153.511 25.8109 153.001 25.1592H152.892C152.964 25.7972 153.001 26.1663 153.001 26.2666V29.3633H150.916V18.3574H152.611L152.905 19.3486H153.001C153.489 18.5921 154.211 18.2139 155.168 18.2139C156.07 18.2139 156.777 18.5625 157.287 19.2598C157.797 19.957 158.053 20.9255 158.053 22.165C158.053 22.9808 157.932 23.6895 157.69 24.291C157.453 24.8926 157.114 25.3506 156.672 25.665C156.23 25.9795 155.71 26.1367 155.113 26.1367ZM154.498 19.8818C153.983 19.8818 153.607 20.0413 153.37 20.3604C153.133 20.6748 153.01 21.1966 153.001 21.9258V22.1514C153.001 22.9717 153.122 23.5596 153.363 23.915C153.609 24.2705 153.997 24.4482 154.525 24.4482C155.46 24.4482 155.927 23.6781 155.927 22.1377C155.927 21.3857 155.81 20.8229 155.578 20.4492C155.35 20.071 154.99 19.8818 154.498 19.8818ZM161.776 26H159.691V15.3633H161.776V26ZM167.052 19.6973C166.61 19.6973 166.263 19.8385 166.013 20.1211C165.762 20.3991 165.618 20.7956 165.582 21.3105H168.508C168.499 20.7956 168.364 20.3991 168.104 20.1211C167.845 19.8385 167.494 19.6973 167.052 19.6973ZM167.346 26.1367C166.115 26.1367 165.154 25.7972 164.461 25.1182C163.768 24.4391 163.422 23.4775 163.422 22.2334C163.422 20.9528 163.741 19.9639 164.379 19.2666C165.021 18.5648 165.908 18.2139 167.038 18.2139C168.118 18.2139 168.959 18.5215 169.56 19.1367C170.162 19.752 170.463 20.6019 170.463 21.6865V22.6982H165.534C165.557 23.2907 165.732 23.7533 166.06 24.0859C166.389 24.4186 166.849 24.585 167.441 24.585C167.902 24.585 168.337 24.5371 168.747 24.4414C169.157 24.3457 169.586 24.193 170.032 23.9834V25.5967C169.668 25.779 169.278 25.9134 168.863 26C168.448 26.0911 167.943 26.1367 167.346 26.1367Z" fill="#fff"/><rect width="707.244" height="99.333" transform="translate(102 42)" fill="#252A2E"/><path d="M118 117.667V65.6667H256.777V75.7638L264 83.3367L256.777 90.4046V117.667H118Z" fill="#171C1E"/><path d="M131.698 88.3328H129.911V79.7664H134.821V81.2546H131.698V83.4636H134.604V84.946H131.698V88.3328ZM137.708 85.0457C137.708 85.6941 137.814 86.1843 138.025 86.5164C138.24 86.8484 138.587 87.0144 139.068 87.0144C139.544 87.0144 139.886 86.8503 140.093 86.5222C140.304 86.1902 140.409 85.698 140.409 85.0457C140.409 84.3972 140.304 83.9109 140.093 83.5867C139.882 83.2625 139.536 83.1003 139.056 83.1003C138.579 83.1003 138.236 83.2625 138.025 83.5867C137.814 83.907 137.708 84.3933 137.708 85.0457ZM142.238 85.0457C142.238 86.1121 141.956 86.946 141.394 87.5476C140.831 88.1492 140.048 88.45 139.044 88.45C138.415 88.45 137.861 88.3132 137.38 88.0398C136.9 87.7625 136.531 87.366 136.273 86.8503C136.015 86.3347 135.886 85.7332 135.886 85.0457C135.886 83.9753 136.165 83.1433 136.724 82.5496C137.282 81.9558 138.068 81.6589 139.079 81.6589C139.708 81.6589 140.263 81.7957 140.743 82.0691C141.224 82.3425 141.593 82.7351 141.851 83.2468C142.109 83.7585 142.238 84.3582 142.238 85.0457ZM149.689 88.3328H147.902V84.5066C147.902 84.0339 147.818 83.6804 147.65 83.446C147.482 83.2078 147.214 83.0886 146.847 83.0886C146.347 83.0886 145.986 83.2566 145.763 83.5925C145.541 83.9246 145.429 84.4773 145.429 85.2507V88.3328H143.642V81.782H145.007L145.248 82.6199H145.347C145.546 82.3035 145.82 82.0652 146.168 81.905C146.519 81.741 146.918 81.6589 147.363 81.6589C148.125 81.6589 148.703 81.866 149.097 82.28C149.492 82.6902 149.689 83.2839 149.689 84.0613V88.3328ZM154.217 87.0261C154.529 87.0261 154.904 86.9578 155.342 86.821V88.1511C154.896 88.3503 154.349 88.45 153.701 88.45C152.986 88.45 152.465 88.2703 152.137 87.9109C151.812 87.5476 151.65 87.0046 151.65 86.282V83.1238H150.795V82.3679L151.779 81.7703L152.295 80.3875H153.437V81.782H155.271V83.1238H153.437V86.282C153.437 86.5359 153.508 86.7234 153.648 86.8445C153.793 86.9656 153.982 87.0261 154.217 87.0261ZM156.02 85.8484V84.3835H159.166V85.8484H156.02ZM164.965 86.3875C164.965 87.0593 164.731 87.571 164.262 87.9226C163.797 88.2742 163.1 88.45 162.17 88.45C161.694 88.45 161.287 88.4167 160.952 88.3503C160.616 88.2878 160.301 88.1941 160.008 88.0691V86.5925C160.34 86.7488 160.713 86.8796 161.127 86.9851C161.545 87.0906 161.912 87.1433 162.229 87.1433C162.877 87.1433 163.202 86.9558 163.202 86.5808C163.202 86.4402 163.159 86.3269 163.073 86.241C162.987 86.1511 162.838 86.0515 162.627 85.9421C162.416 85.8289 162.135 85.698 161.784 85.5496C161.28 85.3386 160.909 85.1433 160.67 84.9636C160.436 84.7839 160.264 84.5789 160.155 84.3484C160.049 84.114 159.996 83.8269 159.996 83.4871C159.996 82.905 160.221 82.4558 160.67 82.1394C161.123 81.8191 161.764 81.6589 162.592 81.6589C163.381 81.6589 164.149 81.8308 164.895 82.1746L164.356 83.4636C164.028 83.323 163.721 83.2078 163.436 83.1179C163.151 83.0281 162.86 82.9832 162.563 82.9832C162.036 82.9832 161.772 83.1257 161.772 83.4109C161.772 83.571 161.856 83.7097 162.024 83.8269C162.196 83.9441 162.569 84.1179 163.143 84.3484C163.655 84.5554 164.03 84.7488 164.268 84.9285C164.506 85.1082 164.682 85.3152 164.795 85.5496C164.909 85.7839 164.965 86.0632 164.965 86.3875ZM166.212 80.0886C166.212 79.5066 166.536 79.2156 167.184 79.2156C167.833 79.2156 168.157 79.5066 168.157 80.0886C168.157 80.366 168.075 80.5828 167.911 80.739C167.751 80.8914 167.508 80.9675 167.184 80.9675C166.536 80.9675 166.212 80.6746 166.212 80.0886ZM168.075 88.3328H166.288V81.782H168.075V88.3328ZM174.442 88.3328H169.268V87.2781L172.304 83.1472H169.45V81.782H174.337V82.9421L171.384 86.9675H174.442V88.3328ZM178.384 82.9304C178.005 82.9304 177.708 83.0515 177.493 83.2937C177.278 83.532 177.155 83.8718 177.124 84.3132H179.632C179.624 83.8718 179.509 83.532 179.286 83.2937C179.064 83.0515 178.763 82.9304 178.384 82.9304ZM178.636 88.45C177.581 88.45 176.757 88.1589 176.163 87.5769C175.57 86.9949 175.273 86.1707 175.273 85.1042C175.273 84.0066 175.546 83.1589 176.093 82.5613C176.644 81.9597 177.403 81.6589 178.372 81.6589C179.298 81.6589 180.019 81.9226 180.534 82.45C181.05 82.9773 181.308 83.7058 181.308 84.6355V85.5027H177.083C177.103 86.0105 177.253 86.407 177.534 86.6921C177.816 86.9773 178.21 87.1199 178.718 87.1199C179.112 87.1199 179.486 87.0789 179.837 86.9968C180.189 86.9148 180.556 86.7839 180.939 86.6042V87.9871C180.626 88.1433 180.292 88.2585 179.937 88.3328C179.581 88.4109 179.148 88.45 178.636 88.45ZM182.437 87.4949C182.437 87.1667 182.525 86.9187 182.701 86.7507C182.876 86.5828 183.132 86.4988 183.468 86.4988C183.792 86.4988 184.042 86.5847 184.218 86.7566C184.398 86.9285 184.488 87.1746 184.488 87.4949C184.488 87.8035 184.398 88.0476 184.218 88.2273C184.039 88.4031 183.789 88.491 183.468 88.491C183.14 88.491 182.886 88.405 182.706 88.2332C182.527 88.0574 182.437 87.8113 182.437 87.4949ZM182.437 82.655C182.437 82.3269 182.525 82.0789 182.701 81.9109C182.876 81.7429 183.132 81.6589 183.468 81.6589C183.792 81.6589 184.042 81.7449 184.218 81.9167C184.398 82.0886 184.488 82.3347 184.488 82.655C184.488 82.9714 184.396 83.2175 184.212 83.3933C184.033 83.5652 183.785 83.6511 183.468 83.6511C183.14 83.6511 182.886 83.5652 182.706 83.3933C182.527 83.2214 182.437 82.9753 182.437 82.655ZM192.336 88.3328H191.387V82.2273C191.387 81.7195 191.402 81.239 191.434 80.7859C191.352 80.8679 191.26 80.9539 191.158 81.0437C191.057 81.1335 190.592 81.5144 189.764 82.1863L189.248 81.5183L191.516 79.7664H192.336V88.3328ZM201.563 86.364H200.291V88.3328H199.36V86.364H195.194V85.5144L199.26 79.7195H200.291V85.4792H201.563V86.364ZM199.36 85.4792V82.6316C199.36 82.073 199.379 81.4421 199.418 80.739H199.371C199.184 81.114 199.008 81.4246 198.844 81.6707L196.166 85.4792H199.36ZM206.911 86.5808C206.911 87.1785 206.688 87.6394 206.243 87.9636C205.797 88.2878 205.172 88.45 204.368 88.45C203.516 88.45 202.852 88.3152 202.376 88.0457V87.1433C202.684 87.2996 203.014 87.4226 203.366 87.5125C203.721 87.6023 204.063 87.6472 204.391 87.6472C204.899 87.6472 205.29 87.5671 205.563 87.407C205.836 87.2429 205.973 86.9949 205.973 86.6628C205.973 86.4128 205.864 86.2 205.645 86.0242C205.43 85.8445 205.008 85.6335 204.379 85.3914C203.782 85.1687 203.356 84.9753 203.102 84.8113C202.852 84.6433 202.665 84.4539 202.54 84.2429C202.418 84.032 202.358 83.78 202.358 83.4871C202.358 82.9636 202.571 82.5515 202.997 82.2507C203.422 81.946 204.006 81.7937 204.749 81.7937C205.44 81.7937 206.116 81.9343 206.776 82.2156L206.43 83.0066C205.786 82.741 205.202 82.6082 204.678 82.6082C204.217 82.6082 203.87 82.6804 203.635 82.825C203.401 82.9695 203.284 83.1687 203.284 83.4226C203.284 83.5945 203.327 83.741 203.413 83.8621C203.502 83.9832 203.645 84.0984 203.84 84.2078C204.036 84.3171 204.411 84.4753 204.965 84.6824C205.727 84.9597 206.241 85.239 206.506 85.5203C206.776 85.8015 206.911 86.155 206.911 86.5808ZM211.415 88.45C210.997 88.45 210.614 88.3738 210.266 88.2214C209.923 88.0652 209.634 87.8269 209.399 87.5066H209.329C209.376 87.8816 209.399 88.2371 209.399 88.573V91.2156H208.427V81.9109H209.218L209.352 82.7898H209.399C209.649 82.4382 209.94 82.1843 210.272 82.0281C210.604 81.8718 210.985 81.7937 211.415 81.7937C212.266 81.7937 212.923 82.0847 213.384 82.6667C213.848 83.2488 214.081 84.0652 214.081 85.116C214.081 86.1707 213.845 86.991 213.372 87.5769C212.903 88.1589 212.251 88.45 211.415 88.45ZM211.274 82.6199C210.618 82.6199 210.143 82.8015 209.85 83.1648C209.557 83.5281 209.407 84.1062 209.399 84.8992V85.116C209.399 86.0183 209.55 86.6648 209.85 87.0554C210.151 87.4421 210.634 87.6355 211.298 87.6355C211.852 87.6355 212.286 87.4109 212.598 86.9617C212.915 86.5125 213.073 85.8933 213.073 85.1042C213.073 84.3035 212.915 83.6902 212.598 83.2644C212.286 82.8347 211.845 82.6199 211.274 82.6199ZM129.911 99.7664H132.577C133.792 99.7664 134.673 99.9402 135.22 100.288C135.771 100.632 136.046 101.18 136.046 101.934C136.046 102.446 135.925 102.866 135.683 103.194C135.444 103.522 135.126 103.719 134.728 103.786V103.844C135.271 103.966 135.661 104.192 135.899 104.524C136.142 104.856 136.263 105.298 136.263 105.848C136.263 106.63 135.979 107.239 135.413 107.677C134.851 108.114 134.085 108.333 133.116 108.333H129.911V99.7664ZM131.728 103.159H132.782C133.274 103.159 133.63 103.083 133.849 102.93C134.071 102.778 134.183 102.526 134.183 102.175C134.183 101.846 134.062 101.612 133.819 101.471C133.581 101.327 133.202 101.255 132.683 101.255H131.728V103.159ZM131.728 104.6V106.833H132.911C133.411 106.833 133.78 106.737 134.019 106.546C134.257 106.354 134.376 106.061 134.376 105.667C134.376 104.956 133.868 104.6 132.853 104.6H131.728ZM139.185 105.046C139.185 105.694 139.29 106.184 139.501 106.516C139.716 106.848 140.064 107.014 140.544 107.014C141.021 107.014 141.363 106.85 141.57 106.522C141.781 106.19 141.886 105.698 141.886 105.046C141.886 104.397 141.781 103.911 141.57 103.587C141.359 103.262 141.013 103.1 140.532 103.1C140.056 103.1 139.712 103.262 139.501 103.587C139.29 103.907 139.185 104.393 139.185 105.046ZM143.714 105.046C143.714 106.112 143.433 106.946 142.87 107.548C142.308 108.149 141.525 108.45 140.521 108.45C139.892 108.45 139.337 108.313 138.857 108.04C138.376 107.762 138.007 107.366 137.749 106.85C137.491 106.335 137.363 105.733 137.363 105.046C137.363 103.975 137.642 103.143 138.2 102.55C138.759 101.956 139.544 101.659 140.556 101.659C141.185 101.659 141.74 101.796 142.22 102.069C142.7 102.343 143.07 102.735 143.327 103.247C143.585 103.759 143.714 104.358 143.714 105.046ZM148.775 101.659C149.017 101.659 149.218 101.677 149.378 101.712L149.244 103.387C149.099 103.348 148.923 103.329 148.716 103.329C148.146 103.329 147.701 103.475 147.38 103.768C147.064 104.061 146.906 104.471 146.906 104.999V108.333H145.119V101.782H146.472L146.736 102.884H146.824C147.027 102.516 147.3 102.221 147.644 101.999C147.992 101.772 148.369 101.659 148.775 101.659ZM152.57 108.45C151.801 108.45 151.195 108.151 150.754 107.553C150.316 106.956 150.097 106.128 150.097 105.069C150.097 103.995 150.32 103.159 150.765 102.561C151.215 101.96 151.832 101.659 152.617 101.659C153.441 101.659 154.07 101.979 154.504 102.62H154.562C154.472 102.132 154.428 101.696 154.428 101.313V99.2156H156.221V108.333H154.849L154.504 107.483H154.428C154.021 108.128 153.402 108.45 152.57 108.45ZM153.197 107.026C153.654 107.026 153.988 106.893 154.199 106.628C154.414 106.362 154.531 105.911 154.551 105.274V105.081C154.551 104.378 154.441 103.874 154.222 103.569C154.008 103.264 153.656 103.112 153.168 103.112C152.769 103.112 152.459 103.282 152.236 103.622C152.017 103.958 151.908 104.448 151.908 105.093C151.908 105.737 152.019 106.221 152.242 106.546C152.465 106.866 152.783 107.026 153.197 107.026ZM160.731 102.93C160.352 102.93 160.055 103.052 159.84 103.294C159.625 103.532 159.502 103.872 159.471 104.313H161.979C161.971 103.872 161.856 103.532 161.633 103.294C161.41 103.052 161.109 102.93 160.731 102.93ZM160.983 108.45C159.928 108.45 159.104 108.159 158.51 107.577C157.916 106.995 157.619 106.171 157.619 105.104C157.619 104.007 157.893 103.159 158.44 102.561C158.99 101.96 159.75 101.659 160.719 101.659C161.645 101.659 162.365 101.923 162.881 102.45C163.397 102.977 163.654 103.706 163.654 104.635V105.503H159.43C159.449 106.01 159.6 106.407 159.881 106.692C160.162 106.977 160.557 107.12 161.065 107.12C161.459 107.12 161.832 107.079 162.184 106.997C162.535 106.915 162.902 106.784 163.285 106.604V107.987C162.973 108.143 162.639 108.259 162.283 108.333C161.928 108.411 161.494 108.45 160.983 108.45ZM168.692 101.659C168.934 101.659 169.135 101.677 169.295 101.712L169.161 103.387C169.016 103.348 168.84 103.329 168.633 103.329C168.063 103.329 167.618 103.475 167.297 103.768C166.981 104.061 166.823 104.471 166.823 104.999V108.333H165.036V101.782H166.389L166.653 102.884H166.741C166.944 102.516 167.217 102.221 167.561 101.999C167.909 101.772 168.286 101.659 168.692 101.659ZM169.833 105.848V104.384H172.979V105.848H169.833ZM177.864 101.659C178.106 101.659 178.308 101.677 178.468 101.712L178.333 103.387C178.188 103.348 178.013 103.329 177.806 103.329C177.235 103.329 176.79 103.475 176.47 103.768C176.153 104.061 175.995 104.471 175.995 104.999V108.333H174.208V101.782H175.561L175.825 102.884H175.913C176.116 102.516 176.39 102.221 176.733 101.999C177.081 101.772 177.458 101.659 177.864 101.659ZM183.745 108.333L183.4 107.442H183.353C183.052 107.821 182.741 108.085 182.421 108.233C182.105 108.378 181.691 108.45 181.179 108.45C180.55 108.45 180.054 108.27 179.691 107.911C179.331 107.552 179.152 107.04 179.152 106.376C179.152 105.68 179.394 105.169 179.878 104.841C180.366 104.509 181.101 104.325 182.081 104.29L183.218 104.255V103.968C183.218 103.303 182.878 102.971 182.198 102.971C181.675 102.971 181.06 103.13 180.353 103.446L179.761 102.239C180.515 101.844 181.351 101.647 182.269 101.647C183.148 101.647 183.821 101.839 184.29 102.221C184.759 102.604 184.993 103.186 184.993 103.968V108.333H183.745ZM183.218 105.298L182.527 105.321C182.007 105.337 181.62 105.43 181.366 105.602C181.112 105.774 180.986 106.036 180.986 106.387C180.986 106.891 181.275 107.143 181.853 107.143C182.267 107.143 182.597 107.024 182.843 106.786C183.093 106.548 183.218 106.231 183.218 105.837V105.298ZM188.841 108.45C188.072 108.45 187.466 108.151 187.025 107.553C186.587 106.956 186.369 106.128 186.369 105.069C186.369 103.995 186.591 103.159 187.037 102.561C187.486 101.96 188.103 101.659 188.888 101.659C189.712 101.659 190.341 101.979 190.775 102.62H190.833C190.744 102.132 190.699 101.696 190.699 101.313V99.2156H192.492V108.333H191.121L190.775 107.483H190.699C190.292 108.128 189.673 108.45 188.841 108.45ZM189.468 107.026C189.925 107.026 190.259 106.893 190.47 106.628C190.685 106.362 190.802 105.911 190.822 105.274V105.081C190.822 104.378 190.712 103.874 190.494 103.569C190.279 103.264 189.927 103.112 189.439 103.112C189.04 103.112 188.73 103.282 188.507 103.622C188.289 103.958 188.179 104.448 188.179 105.093C188.179 105.737 188.29 106.221 188.513 106.546C188.736 106.866 189.054 107.026 189.468 107.026ZM194.213 100.089C194.213 99.5066 194.537 99.2156 195.185 99.2156C195.834 99.2156 196.158 99.5066 196.158 100.089C196.158 100.366 196.076 100.583 195.912 100.739C195.752 100.891 195.509 100.968 195.185 100.968C194.537 100.968 194.213 100.675 194.213 100.089ZM196.076 108.333H194.289V101.782H196.076V108.333ZM202.525 108.333L202.285 107.495H202.191C202 107.8 201.729 108.036 201.377 108.204C201.025 108.368 200.625 108.45 200.176 108.45C199.406 108.45 198.826 108.245 198.436 107.835C198.045 107.421 197.85 106.827 197.85 106.053V101.782H199.637V105.608C199.637 106.081 199.721 106.436 199.889 106.675C200.057 106.909 200.324 107.026 200.691 107.026C201.191 107.026 201.553 106.86 201.775 106.528C201.998 106.192 202.109 105.637 202.109 104.864V101.782H203.896V108.333H202.525ZM210.27 106.387C210.27 107.059 210.035 107.571 209.567 107.923C209.102 108.274 208.405 108.45 207.475 108.45C206.998 108.45 206.592 108.417 206.256 108.35C205.92 108.288 205.606 108.194 205.313 108.069V106.593C205.645 106.749 206.018 106.88 206.432 106.985C206.85 107.091 207.217 107.143 207.533 107.143C208.182 107.143 208.506 106.956 208.506 106.581C208.506 106.44 208.463 106.327 208.377 106.241C208.291 106.151 208.143 106.052 207.932 105.942C207.721 105.829 207.44 105.698 207.088 105.55C206.584 105.339 206.213 105.143 205.975 104.964C205.74 104.784 205.569 104.579 205.459 104.348C205.354 104.114 205.301 103.827 205.301 103.487C205.301 102.905 205.526 102.456 205.975 102.139C206.428 101.819 207.069 101.659 207.897 101.659C208.686 101.659 209.453 101.831 210.199 102.175L209.66 103.464C209.332 103.323 209.026 103.208 208.74 103.118C208.455 103.028 208.164 102.983 207.867 102.983C207.34 102.983 207.076 103.126 207.076 103.411C207.076 103.571 207.16 103.71 207.328 103.827C207.5 103.944 207.873 104.118 208.448 104.348C208.959 104.555 209.334 104.749 209.573 104.928C209.811 105.108 209.987 105.315 210.1 105.55C210.213 105.784 210.27 106.063 210.27 106.387ZM211.34 107.495C211.34 107.167 211.428 106.919 211.604 106.751C211.78 106.583 212.036 106.499 212.372 106.499C212.696 106.499 212.946 106.585 213.122 106.757C213.301 106.928 213.391 107.175 213.391 107.495C213.391 107.803 213.301 108.048 213.122 108.227C212.942 108.403 212.692 108.491 212.372 108.491C212.043 108.491 211.79 108.405 211.61 108.233C211.43 108.057 211.34 107.811 211.34 107.495ZM211.34 102.655C211.34 102.327 211.428 102.079 211.604 101.911C211.78 101.743 212.036 101.659 212.372 101.659C212.696 101.659 212.946 101.745 213.122 101.917C213.301 102.089 213.391 102.335 213.391 102.655C213.391 102.971 213.299 103.218 213.116 103.393C212.936 103.565 212.688 103.651 212.372 103.651C212.043 103.651 211.79 103.565 211.61 103.393C211.43 103.221 211.34 102.975 211.34 102.655ZM223.671 106.364H222.399V108.333H221.468V106.364H217.302V105.514L221.368 99.7195H222.399V105.479H223.671V106.364ZM221.468 105.479V102.632C221.468 102.073 221.487 101.442 221.526 100.739H221.48C221.292 101.114 221.116 101.425 220.952 101.671L218.274 105.479H221.468ZM229.247 107.471H229.195C228.745 108.124 228.074 108.45 227.179 108.45C226.339 108.45 225.685 108.163 225.216 107.589C224.751 107.014 224.519 106.198 224.519 105.139C224.519 104.081 224.753 103.259 225.222 102.673C225.691 102.087 226.343 101.794 227.179 101.794C228.05 101.794 228.718 102.11 229.183 102.743H229.259L229.218 102.28L229.195 101.829V99.2156H230.167V108.333H229.376L229.247 107.471ZM227.302 107.635C227.966 107.635 228.447 107.456 228.744 107.096C229.044 106.733 229.195 106.149 229.195 105.344V105.139C229.195 104.229 229.042 103.581 228.738 103.194C228.437 102.803 227.954 102.608 227.29 102.608C226.72 102.608 226.283 102.831 225.978 103.276C225.677 103.718 225.527 104.343 225.527 105.151C225.527 105.971 225.677 106.591 225.978 107.009C226.279 107.427 226.72 107.635 227.302 107.635ZM235.152 108.45C234.734 108.45 234.351 108.374 234.004 108.221C233.66 108.065 233.371 107.827 233.136 107.507H233.066C233.113 107.882 233.136 108.237 233.136 108.573V111.216H232.164V101.911H232.955L233.089 102.79H233.136C233.386 102.438 233.677 102.184 234.009 102.028C234.341 101.872 234.722 101.794 235.152 101.794C236.004 101.794 236.66 102.085 237.121 102.667C237.586 103.249 237.818 104.065 237.818 105.116C237.818 106.171 237.582 106.991 237.109 107.577C236.64 108.159 235.988 108.45 235.152 108.45ZM235.011 102.62C234.355 102.62 233.88 102.802 233.588 103.165C233.295 103.528 233.144 104.106 233.136 104.899V105.116C233.136 106.018 233.287 106.665 233.588 107.055C233.888 107.442 234.371 107.635 235.035 107.635C235.589 107.635 236.023 107.411 236.336 106.962C236.652 106.512 236.81 105.893 236.81 105.104C236.81 104.303 236.652 103.69 236.336 103.264C236.023 102.835 235.582 102.62 235.011 102.62Z" fill="#fff"/><path d="M288.777 96.6667H287.67V89.5437C287.67 88.9513 287.688 88.3907 287.725 87.8621C287.629 87.9578 287.522 88.058 287.403 88.1628C287.285 88.2677 286.743 88.712 285.776 89.4958L285.175 88.7166L287.82 86.6726H288.777V96.6667ZM292.617 92.3943C292.617 90.4301 292.998 88.9626 293.759 87.9919C294.524 87.0167 295.655 86.5291 297.149 86.5291C297.664 86.5291 298.07 86.5723 298.366 86.6589V87.6365C298.015 87.5225 297.614 87.4656 297.163 87.4656C296.092 87.4656 295.274 87.8005 294.709 88.4705C294.144 89.1358 293.834 90.184 293.779 91.615H293.861C294.363 90.8311 295.156 90.4392 296.24 90.4392C297.138 90.4392 297.844 90.7104 298.359 91.2527C298.879 91.795 299.139 92.531 299.139 93.4607C299.139 94.4998 298.854 95.3178 298.284 95.9148C297.719 96.5072 296.953 96.8035 295.987 96.8035C294.953 96.8035 294.133 96.4161 293.526 95.6414C292.92 94.8621 292.617 93.7797 292.617 92.3943ZM295.974 95.8396C296.621 95.8396 297.122 95.6368 297.478 95.2312C297.838 94.821 298.018 94.2309 298.018 93.4607C298.018 92.7999 297.851 92.2804 297.519 91.9021C297.186 91.5238 296.689 91.3347 296.028 91.3347C295.618 91.3347 295.242 91.419 294.9 91.5876C294.559 91.7563 294.285 91.9887 294.08 92.2849C293.88 92.5811 293.779 92.8888 293.779 93.2078C293.779 93.6772 293.87 94.1147 294.053 94.5203C294.235 94.9259 294.493 95.2472 294.825 95.4841C295.162 95.7211 295.545 95.8396 295.974 95.8396ZM306.048 95.6619H305.986C305.462 96.4229 304.678 96.8035 303.635 96.8035C302.655 96.8035 301.892 96.4685 301.345 95.7986C300.802 95.1287 300.531 94.1762 300.531 92.9412C300.531 91.7061 300.805 90.7468 301.352 90.0632C301.898 89.3796 302.66 89.0378 303.635 89.0378C304.651 89.0378 305.43 89.407 305.973 90.1453H306.062L306.014 89.6052L305.986 89.0789V86.03H307.121V96.6667H306.198L306.048 95.6619ZM303.778 95.8533C304.553 95.8533 305.114 95.6436 305.46 95.2244C305.811 94.8005 305.986 94.1192 305.986 93.1804V92.9412C305.986 91.8793 305.809 91.1228 305.453 90.6716C305.102 90.2159 304.539 89.988 303.765 89.988C303.099 89.988 302.589 90.2478 302.233 90.7673C301.883 91.2823 301.707 92.0115 301.707 92.9548C301.707 93.9119 301.883 94.6342 302.233 95.1218C302.584 95.6095 303.099 95.8533 303.778 95.8533ZM312.937 96.8035C312.449 96.8035 312.002 96.7146 311.597 96.5369C311.196 96.3546 310.858 96.0766 310.585 95.7029H310.503C310.558 96.1404 310.585 96.5551 310.585 96.947V100.03H309.45V89.1746H310.373L310.53 90.2H310.585C310.877 89.7898 311.216 89.4936 311.604 89.3113C311.991 89.129 312.435 89.0378 312.937 89.0378C313.93 89.0378 314.696 89.3774 315.233 90.0564C315.776 90.7354 316.047 91.6879 316.047 92.9138C316.047 94.1443 315.771 95.1013 315.22 95.7849C314.673 96.4639 313.912 96.8035 312.937 96.8035ZM312.772 90.0017C312.007 90.0017 311.453 90.2136 311.111 90.6375C310.77 91.0613 310.594 91.7358 310.585 92.6609V92.9138C310.585 93.9666 310.76 94.7208 311.111 95.1765C311.462 95.6277 312.025 95.8533 312.8 95.8533C313.447 95.8533 313.953 95.5912 314.317 95.0671C314.687 94.5431 314.871 93.8207 314.871 92.9001C314.871 91.9659 314.687 91.2504 314.317 90.7537C313.953 90.2524 313.438 90.0017 312.772 90.0017Z" fill="#E8178A"/><g clip-path="url(#clip0_261_60846)"><g clip-path="url(#clip1_261_60846)"><rect x="326.833" y="67.667" width="374" height="48" rx="4" fill="#171C1E"/><path d="M347.283 96.6667H346.121V87.7048H342.956V86.6726H350.448V87.7048H347.283V96.6667ZM355.203 96.8035C354.096 96.8035 353.221 96.4662 352.578 95.7917C351.94 95.1173 351.621 94.1807 351.621 92.9822C351.621 91.7745 351.917 90.8152 352.51 90.1042C353.107 89.3933 353.907 89.0378 354.909 89.0378C355.848 89.0378 356.591 89.3477 357.138 89.9675C357.685 90.5828 357.958 91.3962 357.958 92.408V93.1257H352.797C352.82 94.0053 353.041 94.6729 353.46 95.1287C353.884 95.5844 354.479 95.8123 355.244 95.8123C356.051 95.8123 356.848 95.6436 357.637 95.3064V96.3181C357.236 96.4913 356.855 96.6143 356.495 96.6873C356.14 96.7647 355.709 96.8035 355.203 96.8035ZM354.896 89.988C354.294 89.988 353.813 90.184 353.453 90.5759C353.098 90.9679 352.888 91.5102 352.824 92.2029H356.741C356.741 91.4874 356.582 90.9405 356.263 90.5623C355.944 90.1794 355.488 89.988 354.896 89.988ZM361.954 92.8318L359.35 89.1746H360.642L362.617 92.0457L364.586 89.1746H365.864L363.26 92.8318L366.001 96.6667H364.716L362.617 93.6316L360.498 96.6667H359.213L361.954 92.8318ZM370.161 95.8669C370.362 95.8669 370.555 95.8533 370.742 95.8259C370.929 95.794 371.077 95.7621 371.187 95.7302V96.5984C371.063 96.6576 370.881 96.7055 370.64 96.7419C370.403 96.783 370.188 96.8035 369.997 96.8035C368.548 96.8035 367.823 96.0401 367.823 94.5134V90.0564H366.75V89.5095L367.823 89.0378L368.302 87.4382H368.958V89.1746H371.132V90.0564H368.958V94.4656C368.958 94.9167 369.065 95.2631 369.279 95.5046C369.493 95.7462 369.787 95.8669 370.161 95.8669ZM376.998 96.6667V86.6726H378.16V96.6667H376.998ZM386.114 96.6667V91.8201C386.114 91.2094 385.975 90.7537 385.697 90.4529C385.419 90.1521 384.984 90.0017 384.392 90.0017C383.608 90.0017 383.034 90.2136 382.669 90.6375C382.304 91.0613 382.122 91.7608 382.122 92.7361V96.6667H380.987V89.1746H381.91L382.095 90.2H382.149C382.382 89.8308 382.708 89.546 383.127 89.3455C383.546 89.1404 384.013 89.0378 384.528 89.0378C385.431 89.0378 386.11 89.2566 386.565 89.6941C387.021 90.127 387.249 90.822 387.249 91.7791V96.6667H386.114ZM393.323 96.8035C392.836 96.8035 392.389 96.7146 391.983 96.5369C391.582 96.3546 391.245 96.0766 390.972 95.7029H390.89C390.944 96.1404 390.972 96.5551 390.972 96.947V100.03H389.837V89.1746H390.76L390.917 90.2H390.972C391.263 89.7898 391.603 89.4936 391.99 89.3113C392.378 89.129 392.822 89.0378 393.323 89.0378C394.317 89.0378 395.082 89.3774 395.62 90.0564C396.162 90.7354 396.434 91.6879 396.434 92.9138C396.434 94.1443 396.158 95.1013 395.606 95.7849C395.06 96.4639 394.299 96.8035 393.323 96.8035ZM393.159 90.0017C392.394 90.0017 391.84 90.2136 391.498 90.6375C391.156 91.0613 390.981 91.7358 390.972 92.6609V92.9138C390.972 93.9666 391.147 94.7208 391.498 95.1765C391.849 95.6277 392.412 95.8533 393.187 95.8533C393.834 95.8533 394.34 95.5912 394.704 95.0671C395.073 94.5431 395.258 93.8207 395.258 92.9001C395.258 91.9659 395.073 91.2504 394.704 90.7537C394.34 90.2524 393.825 90.0017 393.159 90.0017ZM399.739 89.1746V94.0349C399.739 94.6456 399.878 95.1013 400.156 95.4021C400.434 95.7029 400.869 95.8533 401.462 95.8533C402.246 95.8533 402.818 95.6391 403.178 95.2107C403.542 94.7823 403.725 94.0828 403.725 93.1121V89.1746H404.859V96.6667H403.923L403.759 95.6619H403.697C403.465 96.031 403.141 96.3136 402.727 96.5095C402.316 96.7055 401.847 96.8035 401.318 96.8035C400.407 96.8035 399.723 96.587 399.268 96.1541C398.816 95.7211 398.591 95.0284 398.591 94.0759V89.1746H399.739ZM409.942 95.8669C410.143 95.8669 410.337 95.8533 410.523 95.8259C410.71 95.794 410.858 95.7621 410.968 95.7302V96.5984C410.845 96.6576 410.662 96.7055 410.421 96.7419C410.184 96.783 409.97 96.8035 409.778 96.8035C408.329 96.8035 407.604 96.0401 407.604 94.5134V90.0564H406.531V89.5095L407.604 89.0378L408.083 87.4382H408.739V89.1746H410.913V90.0564H408.739V94.4656C408.739 94.9167 408.846 95.2631 409.061 95.5046C409.275 95.7462 409.569 95.8669 409.942 95.8669Z" fill="#90939F"/></g><rect x="327.333" y="68.167" width="373" height="47" rx="3.5" stroke="#464B52"/></g><rect x="326.333" y="67.167" width="375" height="49" stroke="#F0F" stroke-dasharray="2 2"/><rect x="327" y="67.667" width="16" height="48" fill="#EB3499" fill-opacity=".4"/><rect x="685" y="67.667" width="16" height="48" fill="#EB3499" fill-opacity=".4"/><path d="M715.777 97H714.67V89.877C714.67 89.2845 714.688 88.724 714.725 88.1953C714.629 88.291 714.522 88.3913 714.403 88.4961C714.285 88.6009 713.743 89.0452 712.776 89.8291L712.175 89.0498L714.82 87.0059H715.777V97ZM719.617 92.7275C719.617 90.7633 719.998 89.2959 720.759 88.3252C721.524 87.3499 722.655 86.8623 724.149 86.8623C724.664 86.8623 725.07 86.9056 725.366 86.9922V87.9697C725.015 87.8558 724.614 87.7988 724.163 87.7988C723.092 87.7988 722.274 88.1338 721.709 88.8037C721.144 89.4691 720.834 90.5173 720.779 91.9482H720.861C721.363 91.1644 722.156 90.7725 723.24 90.7725C724.138 90.7725 724.844 91.0436 725.359 91.5859C725.879 92.1283 726.139 92.8643 726.139 93.7939C726.139 94.833 725.854 95.651 725.284 96.248C724.719 96.8405 723.953 97.1367 722.987 97.1367C721.953 97.1367 721.133 96.7493 720.526 95.9746C719.92 95.1953 719.617 94.113 719.617 92.7275ZM722.974 96.1729C723.621 96.1729 724.122 95.9701 724.478 95.5645C724.838 95.1543 725.018 94.5641 725.018 93.7939C725.018 93.1331 724.851 92.6136 724.519 92.2354C724.186 91.8571 723.689 91.668 723.028 91.668C722.618 91.668 722.242 91.7523 721.9 91.9209C721.559 92.0895 721.285 92.3219 721.08 92.6182C720.88 92.9144 720.779 93.222 720.779 93.541C720.779 94.0104 720.87 94.4479 721.053 94.8535C721.235 95.2591 721.493 95.5804 721.825 95.8174C722.162 96.0544 722.545 96.1729 722.974 96.1729ZM733.048 95.9951H732.986C732.462 96.7562 731.678 97.1367 730.635 97.1367C729.655 97.1367 728.892 96.8018 728.345 96.1318C727.802 95.4619 727.531 94.5094 727.531 93.2744C727.531 92.0394 727.805 91.0801 728.352 90.3965C728.898 89.7129 729.66 89.3711 730.635 89.3711C731.651 89.3711 732.43 89.7402 732.973 90.4785H733.062L733.014 89.9385L732.986 89.4121V86.3633H734.121V97H733.198L733.048 95.9951ZM730.778 96.1865C731.553 96.1865 732.114 95.9769 732.46 95.5576C732.811 95.1338 732.986 94.4525 732.986 93.5137V93.2744C732.986 92.2126 732.809 91.4561 732.453 91.0049C732.102 90.5492 731.539 90.3213 730.765 90.3213C730.099 90.3213 729.589 90.5811 729.233 91.1006C728.883 91.6156 728.707 92.3447 728.707 93.2881C728.707 94.2451 728.883 94.9674 729.233 95.4551C729.584 95.9427 730.099 96.1865 730.778 96.1865ZM739.937 97.1367C739.449 97.1367 739.002 97.0479 738.597 96.8701C738.196 96.6878 737.858 96.4098 737.585 96.0361H737.503C737.558 96.4736 737.585 96.8883 737.585 97.2803V100.363H736.45V89.5078H737.373L737.53 90.5332H737.585C737.877 90.123 738.216 89.8268 738.604 89.6445C738.991 89.4622 739.435 89.3711 739.937 89.3711C740.93 89.3711 741.696 89.7106 742.233 90.3896C742.776 91.0687 743.047 92.0212 743.047 93.2471C743.047 94.4775 742.771 95.4346 742.22 96.1182C741.673 96.7972 740.912 97.1367 739.937 97.1367ZM739.772 90.335C739.007 90.335 738.453 90.5469 738.111 90.9707C737.77 91.3945 737.594 92.069 737.585 92.9941V93.2471C737.585 94.2998 737.76 95.054 738.111 95.5098C738.462 95.9609 739.025 96.1865 739.8 96.1865C740.447 96.1865 740.953 95.9245 741.317 95.4004C741.687 94.8763 741.871 94.154 741.871 93.2334C741.871 92.2992 741.687 91.5837 741.317 91.0869C740.953 90.5856 740.438 90.335 739.772 90.335Z" fill="#E8178A"/><path d="M744 67.6667H753V115.667H744" stroke="#019AEB"/><path d="M767.017 94.9287H765.813V97H763.749V94.9287H759.483V93.459L763.865 87.0059H765.813V93.2881H767.017V94.9287ZM763.749 93.2881V91.5928C763.749 91.3102 763.76 90.9001 763.783 90.3623C763.806 89.8245 763.824 89.5124 763.838 89.4258H763.783C763.615 89.7995 763.412 90.1641 763.175 90.5195L761.343 93.2881H763.749ZM771.164 86.876C772.121 86.876 772.891 87.0947 773.475 87.5322C774.062 87.9652 774.356 88.5508 774.356 89.2891C774.356 89.7995 774.215 90.2552 773.933 90.6562C773.65 91.0527 773.194 91.4082 772.565 91.7227C773.313 92.1237 773.848 92.543 774.172 92.9805C774.5 93.4134 774.664 93.8896 774.664 94.4092C774.664 95.2295 774.343 95.8903 773.7 96.3916C773.058 96.8883 772.212 97.1367 771.164 97.1367C770.07 97.1367 769.211 96.9043 768.587 96.4395C767.963 95.9746 767.65 95.3161 767.65 94.4639C767.65 93.8942 767.801 93.3883 768.102 92.9463C768.407 92.5042 768.895 92.1146 769.564 91.7773C768.995 91.4173 768.585 91.0322 768.334 90.6221C768.083 90.2119 767.958 89.763 767.958 89.2754C767.958 88.5599 768.254 87.9811 768.847 87.5391C769.439 87.097 770.212 86.876 771.164 86.876ZM769.605 94.3408C769.605 94.7327 769.742 95.0381 770.016 95.2568C770.289 95.4756 770.663 95.585 771.137 95.585C771.661 95.585 772.053 95.4733 772.312 95.25C772.572 95.0221 772.702 94.7236 772.702 94.3545C772.702 94.0492 772.572 93.7643 772.312 93.5C772.057 93.2311 771.64 92.9463 771.062 92.6455C770.091 93.0921 769.605 93.6572 769.605 94.3408ZM771.15 88.4209C770.79 88.4209 770.499 88.5143 770.275 88.7012C770.057 88.8835 769.947 89.1296 769.947 89.4395C769.947 89.7129 770.034 89.959 770.207 90.1777C770.385 90.3919 770.704 90.613 771.164 90.8408C771.611 90.6312 771.923 90.417 772.101 90.1982C772.278 89.9795 772.367 89.7266 772.367 89.4395C772.367 89.125 772.253 88.8766 772.025 88.6943C771.798 88.512 771.506 88.4209 771.15 88.4209ZM778.586 97.1367C777.688 97.1367 776.982 96.7881 776.467 96.0908C775.956 95.3936 775.701 94.4274 775.701 93.1924C775.701 91.9391 775.961 90.9639 776.48 90.2666C777.005 89.5648 777.725 89.2139 778.641 89.2139C779.602 89.2139 780.336 89.5876 780.842 90.335H780.91C780.805 89.7653 780.753 89.2572 780.753 88.8105V86.3633H782.845V97H781.245L780.842 96.0088H780.753C780.279 96.7607 779.557 97.1367 778.586 97.1367ZM779.317 95.4756C779.851 95.4756 780.24 95.3206 780.486 95.0107C780.737 94.7008 780.874 94.1745 780.896 93.4316V93.2061C780.896 92.3857 780.769 91.7979 780.514 91.4424C780.263 91.0869 779.853 90.9092 779.283 90.9092C778.818 90.9092 778.456 91.1074 778.196 91.5039C777.941 91.8958 777.813 92.4678 777.813 93.2197C777.813 93.9717 777.943 94.5368 778.203 94.915C778.463 95.2887 778.834 95.4756 779.317 95.4756ZM789.139 97.1367C788.241 97.1367 787.537 96.8109 787.026 96.1592H786.917C786.99 96.7972 787.026 97.1663 787.026 97.2666V100.363H784.941V89.3574H786.637L786.931 90.3486H787.026C787.514 89.5921 788.236 89.2139 789.193 89.2139C790.096 89.2139 790.802 89.5625 791.312 90.2598C791.823 90.957 792.078 91.9255 792.078 93.165C792.078 93.9808 791.957 94.6895 791.716 95.291C791.479 95.8926 791.139 96.3506 790.697 96.665C790.255 96.9795 789.736 97.1367 789.139 97.1367ZM788.523 90.8818C788.008 90.8818 787.632 91.0413 787.395 91.3604C787.158 91.6748 787.035 92.1966 787.026 92.9258V93.1514C787.026 93.9717 787.147 94.5596 787.389 94.915C787.635 95.2705 788.022 95.4482 788.551 95.4482C789.485 95.4482 789.952 94.6781 789.952 93.1377C789.952 92.3857 789.836 91.8229 789.603 91.4492C789.376 91.071 789.016 90.8818 788.523 90.8818Z" fill="#019AEB"/><rect width="707.244" height="99.333" transform="translate(102 142.333)" fill="#252A2E"/><path d="M118 218V166H256.777V176.097L264 183.67L256.777 190.738V218H118Z" fill="#171C1E"/><path d="M131.865 186H130.078V177.434H134.988V178.922H131.865V181.131H134.771V182.613H131.865V186ZM137.875 182.713C137.875 183.361 137.981 183.852 138.192 184.184C138.407 184.516 138.754 184.682 139.235 184.682C139.711 184.682 140.053 184.518 140.26 184.189C140.471 183.857 140.576 183.365 140.576 182.713C140.576 182.064 140.471 181.578 140.26 181.254C140.049 180.93 139.703 180.768 139.223 180.768C138.746 180.768 138.403 180.93 138.192 181.254C137.981 181.574 137.875 182.061 137.875 182.713ZM142.405 182.713C142.405 183.779 142.123 184.613 141.561 185.215C140.998 185.816 140.215 186.117 139.211 186.117C138.582 186.117 138.028 185.98 137.547 185.707C137.067 185.43 136.698 185.033 136.44 184.518C136.182 184.002 136.053 183.4 136.053 182.713C136.053 181.643 136.332 180.811 136.891 180.217C137.449 179.623 138.235 179.326 139.246 179.326C139.875 179.326 140.43 179.463 140.91 179.736C141.391 180.01 141.76 180.402 142.018 180.914C142.276 181.426 142.405 182.025 142.405 182.713ZM146.469 186.117C144.43 186.117 143.411 184.998 143.411 182.76C143.411 181.646 143.688 180.797 144.243 180.211C144.797 179.621 145.592 179.326 146.627 179.326C147.385 179.326 148.065 179.475 148.667 179.771L148.139 181.154C147.858 181.041 147.596 180.949 147.354 180.879C147.112 180.805 146.87 180.768 146.627 180.768C145.698 180.768 145.233 181.428 145.233 182.748C145.233 184.029 145.698 184.67 146.627 184.67C146.971 184.67 147.29 184.625 147.583 184.535C147.876 184.441 148.168 184.297 148.461 184.102V185.631C148.172 185.814 147.879 185.941 147.583 186.012C147.29 186.082 146.918 186.117 146.469 186.117ZM154.554 186L154.313 185.162H154.22C154.028 185.467 153.757 185.703 153.405 185.871C153.054 186.035 152.653 186.117 152.204 186.117C151.434 186.117 150.854 185.912 150.464 185.502C150.073 185.088 149.878 184.494 149.878 183.721V179.449H151.665V183.275C151.665 183.748 151.749 184.104 151.917 184.342C152.085 184.576 152.352 184.693 152.72 184.693C153.22 184.693 153.581 184.527 153.804 184.195C154.026 183.859 154.138 183.305 154.138 182.531V179.449H155.925V186H154.554ZM162.298 184.055C162.298 184.727 162.064 185.238 161.595 185.59C161.13 185.941 160.433 186.117 159.503 186.117C159.026 186.117 158.62 186.084 158.284 186.018C157.948 185.955 157.634 185.861 157.341 185.736V184.26C157.673 184.416 158.046 184.547 158.46 184.652C158.878 184.758 159.245 184.811 159.562 184.811C160.21 184.811 160.534 184.623 160.534 184.248C160.534 184.107 160.491 183.994 160.405 183.908C160.319 183.818 160.171 183.719 159.96 183.609C159.749 183.496 159.468 183.365 159.116 183.217C158.612 183.006 158.241 182.811 158.003 182.631C157.769 182.451 157.597 182.246 157.487 182.016C157.382 181.781 157.329 181.494 157.329 181.154C157.329 180.572 157.554 180.123 158.003 179.807C158.456 179.486 159.097 179.326 159.925 179.326C160.714 179.326 161.482 179.498 162.228 179.842L161.689 181.131C161.36 180.99 161.054 180.875 160.769 180.785C160.483 180.695 160.192 180.65 159.896 180.65C159.368 180.65 159.105 180.793 159.105 181.078C159.105 181.238 159.189 181.377 159.357 181.494C159.528 181.611 159.901 181.785 160.476 182.016C160.987 182.223 161.362 182.416 161.601 182.596C161.839 182.775 162.015 182.982 162.128 183.217C162.241 183.451 162.298 183.73 162.298 184.055ZM166.806 186V177.434H168.623V184.5H172.097V186H166.806ZM173.303 177.756C173.303 177.174 173.627 176.883 174.275 176.883C174.924 176.883 175.248 177.174 175.248 177.756C175.248 178.033 175.166 178.25 175.002 178.406C174.842 178.559 174.6 178.635 174.275 178.635C173.627 178.635 173.303 178.342 173.303 177.756ZM175.166 186H173.379V179.449H175.166V186ZM183.022 186H181.235V182.174C181.235 181.701 181.151 181.348 180.983 181.113C180.815 180.875 180.547 180.756 180.18 180.756C179.68 180.756 179.319 180.924 179.096 181.26C178.873 181.592 178.762 182.145 178.762 182.918V186H176.975V179.449H178.34L178.58 180.287H178.68C178.879 179.971 179.153 179.732 179.5 179.572C179.852 179.408 180.25 179.326 180.695 179.326C181.457 179.326 182.035 179.533 182.43 179.947C182.824 180.357 183.022 180.951 183.022 181.729V186ZM187.502 180.598C187.123 180.598 186.827 180.719 186.612 180.961C186.397 181.199 186.274 181.539 186.243 181.98H188.75C188.743 181.539 188.627 181.199 188.405 180.961C188.182 180.719 187.881 180.598 187.502 180.598ZM187.754 186.117C186.7 186.117 185.875 185.826 185.282 185.244C184.688 184.662 184.391 183.838 184.391 182.771C184.391 181.674 184.665 180.826 185.211 180.229C185.762 179.627 186.522 179.326 187.491 179.326C188.416 179.326 189.137 179.59 189.653 180.117C190.168 180.645 190.426 181.373 190.426 182.303V183.17H186.202C186.221 183.678 186.372 184.074 186.653 184.359C186.934 184.645 187.329 184.787 187.836 184.787C188.231 184.787 188.604 184.746 188.956 184.664C189.307 184.582 189.674 184.451 190.057 184.271V185.654C189.745 185.811 189.411 185.926 189.055 186C188.7 186.078 188.266 186.117 187.754 186.117ZM199.81 179.449C199.81 179.996 199.655 180.443 199.347 180.791C199.042 181.139 198.608 181.371 198.046 181.488V181.535C198.733 181.621 199.243 181.84 199.575 182.191C199.907 182.543 200.073 183.004 200.073 183.574C200.073 184.391 199.79 185.02 199.224 185.461C198.657 185.898 197.853 186.117 196.81 186.117C196.356 186.117 195.94 186.082 195.562 186.012C195.187 185.945 194.821 185.826 194.466 185.654V184.729C194.837 184.912 195.231 185.053 195.649 185.15C196.071 185.244 196.47 185.291 196.845 185.291C198.325 185.291 199.065 184.711 199.065 183.551C199.065 182.512 198.249 181.992 196.616 181.992H195.772V181.154H196.628C197.296 181.154 197.825 181.008 198.216 180.715C198.606 180.418 198.802 180.008 198.802 179.484C198.802 179.066 198.657 178.738 198.368 178.5C198.083 178.262 197.694 178.143 197.202 178.143C196.827 178.143 196.474 178.193 196.142 178.295C195.81 178.396 195.431 178.584 195.005 178.857L194.513 178.201C194.864 177.924 195.269 177.707 195.726 177.551C196.187 177.391 196.671 177.311 197.179 177.311C198.011 177.311 198.657 177.502 199.118 177.885C199.579 178.264 199.81 178.785 199.81 179.449ZM206.113 185.139H206.06C205.611 185.791 204.939 186.117 204.044 186.117C203.204 186.117 202.55 185.83 202.081 185.256C201.616 184.682 201.384 183.865 201.384 182.807C201.384 181.748 201.618 180.926 202.087 180.34C202.556 179.754 203.208 179.461 204.044 179.461C204.915 179.461 205.583 179.777 206.048 180.41H206.124L206.083 179.947L206.06 179.496V176.883H207.032V186H206.241L206.113 185.139ZM204.167 185.303C204.831 185.303 205.312 185.123 205.609 184.764C205.909 184.4 206.06 183.816 206.06 183.012V182.807C206.06 181.896 205.907 181.248 205.603 180.861C205.302 180.471 204.82 180.275 204.156 180.275C203.585 180.275 203.148 180.498 202.843 180.943C202.542 181.385 202.392 182.01 202.392 182.818C202.392 183.639 202.542 184.258 202.843 184.676C203.144 185.094 203.585 185.303 204.167 185.303ZM212.017 186.117C211.599 186.117 211.216 186.041 210.869 185.889C210.525 185.732 210.236 185.494 210.002 185.174H209.931C209.978 185.549 210.002 185.904 210.002 186.24V188.883H209.029V179.578H209.82L209.955 180.457H210.002C210.252 180.105 210.543 179.852 210.875 179.695C211.207 179.539 211.587 179.461 212.017 179.461C212.869 179.461 213.525 179.752 213.986 180.334C214.451 180.916 214.683 181.732 214.683 182.783C214.683 183.838 214.447 184.658 213.974 185.244C213.505 185.826 212.853 186.117 212.017 186.117ZM211.877 180.287C211.22 180.287 210.746 180.469 210.453 180.832C210.16 181.195 210.009 181.773 210.002 182.566V182.783C210.002 183.686 210.152 184.332 210.453 184.723C210.753 185.109 211.236 185.303 211.9 185.303C212.455 185.303 212.888 185.078 213.201 184.629C213.517 184.18 213.675 183.561 213.675 182.771C213.675 181.971 213.517 181.357 213.201 180.932C212.888 180.502 212.447 180.287 211.877 180.287ZM130.078 197.434H132.744C133.959 197.434 134.84 197.607 135.387 197.955C135.938 198.299 136.213 198.848 136.213 199.602C136.213 200.113 136.092 200.533 135.85 200.861C135.611 201.189 135.293 201.387 134.895 201.453V201.512C135.438 201.633 135.828 201.859 136.066 202.191C136.309 202.523 136.43 202.965 136.43 203.516C136.43 204.297 136.146 204.906 135.58 205.344C135.018 205.781 134.252 206 133.283 206H130.078V197.434ZM131.895 200.826H132.949C133.441 200.826 133.797 200.75 134.016 200.598C134.238 200.445 134.35 200.193 134.35 199.842C134.35 199.514 134.229 199.279 133.986 199.139C133.748 198.994 133.369 198.922 132.85 198.922H131.895V200.826ZM131.895 202.268V204.5H133.078C133.578 204.5 133.947 204.404 134.186 204.213C134.424 204.021 134.543 203.729 134.543 203.334C134.543 202.623 134.035 202.268 133.02 202.268H131.895ZM139.352 202.713C139.352 203.361 139.457 203.852 139.668 204.184C139.883 204.516 140.231 204.682 140.711 204.682C141.188 204.682 141.53 204.518 141.737 204.189C141.948 203.857 142.053 203.365 142.053 202.713C142.053 202.064 141.948 201.578 141.737 201.254C141.526 200.93 141.18 200.768 140.699 200.768C140.223 200.768 139.879 200.93 139.668 201.254C139.457 201.574 139.352 202.061 139.352 202.713ZM143.881 202.713C143.881 203.779 143.6 204.613 143.037 205.215C142.475 205.816 141.692 206.117 140.688 206.117C140.059 206.117 139.504 205.98 139.024 205.707C138.543 205.43 138.174 205.033 137.916 204.518C137.658 204.002 137.53 203.4 137.53 202.713C137.53 201.643 137.809 200.811 138.367 200.217C138.926 199.623 139.711 199.326 140.723 199.326C141.352 199.326 141.907 199.463 142.387 199.736C142.867 200.01 143.237 200.402 143.494 200.914C143.752 201.426 143.881 202.025 143.881 202.713ZM148.942 199.326C149.184 199.326 149.385 199.344 149.545 199.379L149.411 201.055C149.266 201.016 149.09 200.996 148.883 200.996C148.313 200.996 147.868 201.143 147.547 201.436C147.231 201.729 147.073 202.139 147.073 202.666V206H145.286V199.449H146.639L146.903 200.551H146.991C147.194 200.184 147.467 199.889 147.811 199.666C148.159 199.439 148.536 199.326 148.942 199.326ZM152.737 206.117C151.968 206.117 151.362 205.818 150.921 205.221C150.483 204.623 150.264 203.795 150.264 202.736C150.264 201.662 150.487 200.826 150.932 200.229C151.382 199.627 151.999 199.326 152.784 199.326C153.608 199.326 154.237 199.646 154.671 200.287H154.729C154.639 199.799 154.595 199.363 154.595 198.98V196.883H156.388V206H155.016L154.671 205.15H154.595C154.188 205.795 153.569 206.117 152.737 206.117ZM153.364 204.693C153.821 204.693 154.155 204.561 154.366 204.295C154.581 204.029 154.698 203.578 154.718 202.941V202.748C154.718 202.045 154.608 201.541 154.389 201.236C154.175 200.932 153.823 200.779 153.335 200.779C152.936 200.779 152.626 200.949 152.403 201.289C152.184 201.625 152.075 202.115 152.075 202.76C152.075 203.404 152.186 203.889 152.409 204.213C152.632 204.533 152.95 204.693 153.364 204.693ZM160.898 200.598C160.519 200.598 160.222 200.719 160.007 200.961C159.792 201.199 159.669 201.539 159.638 201.98H162.146C162.138 201.539 162.023 201.199 161.8 200.961C161.577 200.719 161.276 200.598 160.898 200.598ZM161.149 206.117C160.095 206.117 159.271 205.826 158.677 205.244C158.083 204.662 157.786 203.838 157.786 202.771C157.786 201.674 158.06 200.826 158.607 200.229C159.157 199.627 159.917 199.326 160.886 199.326C161.812 199.326 162.532 199.59 163.048 200.117C163.564 200.645 163.821 201.373 163.821 202.303V203.17H159.597C159.616 203.678 159.767 204.074 160.048 204.359C160.329 204.645 160.724 204.787 161.232 204.787C161.626 204.787 161.999 204.746 162.351 204.664C162.702 204.582 163.069 204.451 163.452 204.271V205.654C163.14 205.811 162.806 205.926 162.45 206C162.095 206.078 161.661 206.117 161.149 206.117ZM168.859 199.326C169.101 199.326 169.302 199.344 169.462 199.379L169.327 201.055C169.183 201.016 169.007 200.996 168.8 200.996C168.23 200.996 167.785 201.143 167.464 201.436C167.148 201.729 166.99 202.139 166.99 202.666V206H165.202V199.449H166.556L166.82 200.551H166.908C167.111 200.184 167.384 199.889 167.728 199.666C168.076 199.439 168.452 199.326 168.859 199.326ZM170 203.516V202.051H173.146V203.516H170ZM178.031 199.326C178.273 199.326 178.475 199.344 178.635 199.379L178.5 201.055C178.355 201.016 178.18 200.996 177.973 200.996C177.402 200.996 176.957 201.143 176.637 201.436C176.32 201.729 176.162 202.139 176.162 202.666V206H174.375V199.449H175.728L175.992 200.551H176.08C176.283 200.184 176.557 199.889 176.9 199.666C177.248 199.439 177.625 199.326 178.031 199.326ZM183.912 206L183.567 205.109H183.52C183.219 205.488 182.908 205.752 182.588 205.9C182.272 206.045 181.858 206.117 181.346 206.117C180.717 206.117 180.221 205.938 179.858 205.578C179.498 205.219 179.319 204.707 179.319 204.043C179.319 203.348 179.561 202.836 180.045 202.508C180.533 202.176 181.268 201.992 182.248 201.957L183.385 201.922V201.635C183.385 200.971 183.045 200.639 182.365 200.639C181.842 200.639 181.227 200.797 180.52 201.113L179.928 199.906C180.682 199.512 181.518 199.314 182.436 199.314C183.315 199.314 183.988 199.506 184.457 199.889C184.926 200.271 185.16 200.854 185.16 201.635V206H183.912ZM183.385 202.965L182.694 202.988C182.174 203.004 181.787 203.098 181.533 203.27C181.279 203.441 181.153 203.703 181.153 204.055C181.153 204.559 181.442 204.811 182.02 204.811C182.434 204.811 182.764 204.691 183.01 204.453C183.26 204.215 183.385 203.898 183.385 203.504V202.965ZM189.008 206.117C188.239 206.117 187.633 205.818 187.192 205.221C186.754 204.623 186.536 203.795 186.536 202.736C186.536 201.662 186.758 200.826 187.204 200.229C187.653 199.627 188.27 199.326 189.055 199.326C189.879 199.326 190.508 199.646 190.942 200.287H191C190.911 199.799 190.866 199.363 190.866 198.98V196.883H192.659V206H191.288L190.942 205.15H190.866C190.459 205.795 189.84 206.117 189.008 206.117ZM189.635 204.693C190.092 204.693 190.426 204.561 190.637 204.295C190.852 204.029 190.969 203.578 190.989 202.941V202.748C190.989 202.045 190.879 201.541 190.661 201.236C190.446 200.932 190.094 200.779 189.606 200.779C189.207 200.779 188.897 200.949 188.674 201.289C188.456 201.625 188.346 202.115 188.346 202.76C188.346 203.404 188.457 203.889 188.68 204.213C188.903 204.533 189.221 204.693 189.635 204.693ZM194.38 197.756C194.38 197.174 194.704 196.883 195.352 196.883C196.001 196.883 196.325 197.174 196.325 197.756C196.325 198.033 196.243 198.25 196.079 198.406C195.919 198.559 195.676 198.635 195.352 198.635C194.704 198.635 194.38 198.342 194.38 197.756ZM196.243 206H194.456V199.449H196.243V206ZM202.692 206L202.452 205.162H202.358C202.167 205.467 201.896 205.703 201.544 205.871C201.192 206.035 200.792 206.117 200.343 206.117C199.573 206.117 198.993 205.912 198.603 205.502C198.212 205.088 198.017 204.494 198.017 203.721V199.449H199.804V203.275C199.804 203.748 199.888 204.104 200.056 204.342C200.224 204.576 200.491 204.693 200.858 204.693C201.358 204.693 201.72 204.527 201.942 204.195C202.165 203.859 202.276 203.305 202.276 202.531V199.449H204.063V206H202.692ZM210.437 204.055C210.437 204.727 210.202 205.238 209.734 205.59C209.269 205.941 208.572 206.117 207.642 206.117C207.165 206.117 206.759 206.084 206.423 206.018C206.087 205.955 205.773 205.861 205.48 205.736V204.26C205.812 204.416 206.185 204.547 206.599 204.652C207.017 204.758 207.384 204.811 207.7 204.811C208.349 204.811 208.673 204.623 208.673 204.248C208.673 204.107 208.63 203.994 208.544 203.908C208.458 203.818 208.31 203.719 208.099 203.609C207.888 203.496 207.607 203.365 207.255 203.217C206.751 203.006 206.38 202.811 206.142 202.631C205.907 202.451 205.736 202.246 205.626 202.016C205.521 201.781 205.468 201.494 205.468 201.154C205.468 200.572 205.693 200.123 206.142 199.807C206.595 199.486 207.236 199.326 208.064 199.326C208.853 199.326 209.62 199.498 210.366 199.842L209.827 201.131C209.499 200.99 209.193 200.875 208.907 200.785C208.622 200.695 208.331 200.65 208.034 200.65C207.507 200.65 207.243 200.793 207.243 201.078C207.243 201.238 207.327 201.377 207.495 201.494C207.667 201.611 208.04 201.785 208.615 202.016C209.126 202.223 209.501 202.416 209.74 202.596C209.978 202.775 210.154 202.982 210.267 203.217C210.38 203.451 210.437 203.73 210.437 204.055ZM211.507 205.162C211.507 204.834 211.595 204.586 211.771 204.418C211.947 204.25 212.203 204.166 212.539 204.166C212.863 204.166 213.113 204.252 213.289 204.424C213.468 204.596 213.558 204.842 213.558 205.162C213.558 205.471 213.468 205.715 213.289 205.895C213.109 206.07 212.859 206.158 212.539 206.158C212.21 206.158 211.957 206.072 211.777 205.9C211.597 205.725 211.507 205.479 211.507 205.162ZM211.507 200.322C211.507 199.994 211.595 199.746 211.771 199.578C211.947 199.41 212.203 199.326 212.539 199.326C212.863 199.326 213.113 199.412 213.289 199.584C213.468 199.756 213.558 200.002 213.558 200.322C213.558 200.639 213.466 200.885 213.283 201.061C213.103 201.232 212.855 201.318 212.539 201.318C212.21 201.318 211.957 201.232 211.777 201.061C211.597 200.889 211.507 200.643 211.507 200.322ZM223.838 204.031H222.566V206H221.635V204.031H217.469V203.182L221.535 197.387H222.566V203.146H223.838V204.031ZM221.635 203.146V200.299C221.635 199.74 221.654 199.109 221.693 198.406H221.647C221.459 198.781 221.283 199.092 221.119 199.338L218.441 203.146H221.635ZM229.414 205.139H229.362C228.912 205.791 228.241 206.117 227.346 206.117C226.506 206.117 225.852 205.83 225.383 205.256C224.918 204.682 224.686 203.865 224.686 202.807C224.686 201.748 224.92 200.926 225.389 200.34C225.858 199.754 226.51 199.461 227.346 199.461C228.217 199.461 228.885 199.777 229.35 200.41H229.426L229.385 199.947L229.362 199.496V196.883H230.334V206H229.543L229.414 205.139ZM227.469 205.303C228.133 205.303 228.614 205.123 228.91 204.764C229.211 204.4 229.362 203.816 229.362 203.012V202.807C229.362 201.896 229.209 201.248 228.905 200.861C228.604 200.471 228.121 200.275 227.457 200.275C226.887 200.275 226.45 200.498 226.145 200.943C225.844 201.385 225.694 202.01 225.694 202.818C225.694 203.639 225.844 204.258 226.145 204.676C226.446 205.094 226.887 205.303 227.469 205.303ZM235.319 206.117C234.901 206.117 234.518 206.041 234.171 205.889C233.827 205.732 233.538 205.494 233.303 205.174H233.233C233.28 205.549 233.303 205.904 233.303 206.24V208.883H232.331V199.578H233.122L233.256 200.457H233.303C233.553 200.105 233.844 199.852 234.176 199.695C234.508 199.539 234.889 199.461 235.319 199.461C236.171 199.461 236.827 199.752 237.288 200.334C237.753 200.916 237.985 201.732 237.985 202.783C237.985 203.838 237.749 204.658 237.276 205.244C236.807 205.826 236.155 206.117 235.319 206.117ZM235.178 200.287C234.522 200.287 234.047 200.469 233.755 200.832C233.462 201.195 233.311 201.773 233.303 202.566V202.783C233.303 203.686 233.454 204.332 233.755 204.723C234.055 205.109 234.538 205.303 235.202 205.303C235.756 205.303 236.19 205.078 236.503 204.629C236.819 204.18 236.977 203.561 236.977 202.771C236.977 201.971 236.819 201.357 236.503 200.932C236.19 200.502 235.749 200.287 235.178 200.287Z" fill="#fff"/><path d="M290.944 197H289.837V189.877C289.837 189.285 289.855 188.724 289.892 188.195C289.796 188.291 289.689 188.391 289.57 188.496C289.452 188.601 288.91 189.045 287.943 189.829L287.342 189.05L289.987 187.006H290.944V197ZM294.784 192.728C294.784 190.763 295.165 189.296 295.926 188.325C296.691 187.35 297.822 186.862 299.316 186.862C299.831 186.862 300.237 186.906 300.533 186.992V187.97C300.182 187.856 299.781 187.799 299.33 187.799C298.259 187.799 297.441 188.134 296.876 188.804C296.311 189.469 296.001 190.517 295.946 191.948H296.028C296.53 191.164 297.323 190.772 298.407 190.772C299.305 190.772 300.011 191.044 300.526 191.586C301.046 192.128 301.306 192.864 301.306 193.794C301.306 194.833 301.021 195.651 300.451 196.248C299.886 196.84 299.12 197.137 298.154 197.137C297.12 197.137 296.3 196.749 295.693 195.975C295.087 195.195 294.784 194.113 294.784 192.728ZM298.141 196.173C298.788 196.173 299.289 195.97 299.645 195.564C300.005 195.154 300.185 194.564 300.185 193.794C300.185 193.133 300.018 192.614 299.686 192.235C299.353 191.857 298.856 191.668 298.195 191.668C297.785 191.668 297.409 191.752 297.067 191.921C296.726 192.09 296.452 192.322 296.247 192.618C296.047 192.914 295.946 193.222 295.946 193.541C295.946 194.01 296.037 194.448 296.22 194.854C296.402 195.259 296.66 195.58 296.992 195.817C297.329 196.054 297.712 196.173 298.141 196.173ZM308.215 195.995H308.153C307.629 196.756 306.845 197.137 305.802 197.137C304.822 197.137 304.059 196.802 303.512 196.132C302.969 195.462 302.698 194.509 302.698 193.274C302.698 192.039 302.972 191.08 303.519 190.396C304.065 189.713 304.827 189.371 305.802 189.371C306.818 189.371 307.597 189.74 308.14 190.479H308.229L308.181 189.938L308.153 189.412V186.363H309.288V197H308.365L308.215 195.995ZM305.945 196.187C306.72 196.187 307.281 195.977 307.627 195.558C307.978 195.134 308.153 194.452 308.153 193.514V193.274C308.153 192.213 307.976 191.456 307.62 191.005C307.269 190.549 306.706 190.321 305.932 190.321C305.266 190.321 304.756 190.581 304.4 191.101C304.049 191.616 303.874 192.345 303.874 193.288C303.874 194.245 304.049 194.967 304.4 195.455C304.751 195.943 305.266 196.187 305.945 196.187ZM315.104 197.137C314.616 197.137 314.169 197.048 313.764 196.87C313.363 196.688 313.025 196.41 312.752 196.036H312.67C312.725 196.474 312.752 196.888 312.752 197.28V200.363H311.617V189.508H312.54L312.697 190.533H312.752C313.044 190.123 313.383 189.827 313.771 189.645C314.158 189.462 314.602 189.371 315.104 189.371C316.097 189.371 316.863 189.711 317.4 190.39C317.943 191.069 318.214 192.021 318.214 193.247C318.214 194.478 317.938 195.435 317.387 196.118C316.84 196.797 316.079 197.137 315.104 197.137ZM314.939 190.335C314.174 190.335 313.62 190.547 313.278 190.971C312.937 191.395 312.761 192.069 312.752 192.994V193.247C312.752 194.3 312.927 195.054 313.278 195.51C313.629 195.961 314.192 196.187 314.967 196.187C315.614 196.187 316.12 195.924 316.484 195.4C316.854 194.876 317.038 194.154 317.038 193.233C317.038 192.299 316.854 191.584 316.484 191.087C316.12 190.586 315.605 190.335 314.939 190.335Z" fill="#252A2E"/><g clip-path="url(#clip2_261_60846)"><g clip-path="url(#clip3_261_60846)"><rect x="331" y="168" width="374" height="48" rx="4" fill="#171C1E"/><path d="M351.45 197H350.288V188.038H347.123V187.006H354.615V188.038H351.45V197ZM359.37 197.137C358.263 197.137 357.388 196.799 356.745 196.125C356.107 195.451 355.788 194.514 355.788 193.315C355.788 192.108 356.084 191.148 356.677 190.438C357.274 189.727 358.074 189.371 359.076 189.371C360.015 189.371 360.758 189.681 361.305 190.301C361.852 190.916 362.125 191.729 362.125 192.741V193.459H356.964C356.987 194.339 357.208 195.006 357.627 195.462C358.051 195.918 358.646 196.146 359.411 196.146C360.218 196.146 361.015 195.977 361.804 195.64V196.651C361.403 196.825 361.022 196.948 360.662 197.021C360.307 197.098 359.876 197.137 359.37 197.137ZM359.062 190.321C358.461 190.321 357.98 190.517 357.62 190.909C357.265 191.301 357.055 191.843 356.991 192.536H360.908C360.908 191.821 360.749 191.274 360.43 190.896C360.111 190.513 359.655 190.321 359.062 190.321ZM366.121 193.165L363.517 189.508H364.809L366.784 192.379L368.753 189.508H370.031L367.427 193.165L370.168 197H368.883L366.784 193.965L364.665 197H363.38L366.121 193.165ZM374.328 196.2C374.529 196.2 374.722 196.187 374.909 196.159C375.096 196.127 375.244 196.095 375.354 196.063V196.932C375.23 196.991 375.048 197.039 374.807 197.075C374.57 197.116 374.355 197.137 374.164 197.137C372.715 197.137 371.99 196.373 371.99 194.847V190.39H370.917V189.843L371.99 189.371L372.469 187.771H373.125V189.508H375.299V190.39H373.125V194.799C373.125 195.25 373.232 195.596 373.446 195.838C373.66 196.079 373.954 196.2 374.328 196.2ZM381.165 197V187.006H382.327V197H381.165ZM390.281 197V192.153C390.281 191.543 390.142 191.087 389.864 190.786C389.586 190.485 389.151 190.335 388.559 190.335C387.775 190.335 387.201 190.547 386.836 190.971C386.471 191.395 386.289 192.094 386.289 193.069V197H385.154V189.508H386.077L386.262 190.533H386.316C386.549 190.164 386.875 189.879 387.294 189.679C387.713 189.474 388.18 189.371 388.695 189.371C389.598 189.371 390.277 189.59 390.732 190.027C391.188 190.46 391.416 191.155 391.416 192.112V197H390.281ZM397.49 197.137C397.003 197.137 396.556 197.048 396.15 196.87C395.749 196.688 395.412 196.41 395.139 196.036H395.057C395.111 196.474 395.139 196.888 395.139 197.28V200.363H394.004V189.508H394.927L395.084 190.533H395.139C395.43 190.123 395.77 189.827 396.157 189.645C396.545 189.462 396.989 189.371 397.49 189.371C398.484 189.371 399.249 189.711 399.787 190.39C400.329 191.069 400.601 192.021 400.601 193.247C400.601 194.478 400.325 195.435 399.773 196.118C399.227 196.797 398.465 197.137 397.49 197.137ZM397.326 190.335C396.561 190.335 396.007 190.547 395.665 190.971C395.323 191.395 395.148 192.069 395.139 192.994V193.247C395.139 194.3 395.314 195.054 395.665 195.51C396.016 195.961 396.579 196.187 397.354 196.187C398.001 196.187 398.507 195.924 398.871 195.4C399.24 194.876 399.425 194.154 399.425 193.233C399.425 192.299 399.24 191.584 398.871 191.087C398.507 190.586 397.992 190.335 397.326 190.335ZM403.906 189.508V194.368C403.906 194.979 404.045 195.435 404.323 195.735C404.601 196.036 405.036 196.187 405.629 196.187C406.413 196.187 406.985 195.972 407.345 195.544C407.709 195.116 407.892 194.416 407.892 193.445V189.508H409.026V197H408.09L407.926 195.995H407.864C407.632 196.364 407.308 196.647 406.894 196.843C406.483 197.039 406.014 197.137 405.485 197.137C404.574 197.137 403.89 196.92 403.435 196.487C402.983 196.054 402.758 195.362 402.758 194.409V189.508H403.906ZM414.109 196.2C414.31 196.2 414.504 196.187 414.69 196.159C414.877 196.127 415.025 196.095 415.135 196.063V196.932C415.012 196.991 414.829 197.039 414.588 197.075C414.351 197.116 414.137 197.137 413.945 197.137C412.496 197.137 411.771 196.373 411.771 194.847V190.39H410.698V189.843L411.771 189.371L412.25 187.771H412.906V189.508H415.08V190.39H412.906V194.799C412.906 195.25 413.013 195.596 413.228 195.838C413.442 196.079 413.736 196.2 414.109 196.2Z" fill="#90939F"/></g><rect x="331.5" y="168.5" width="373" height="47" rx="3.5" stroke="#464B52"/></g><rect x="327.5" y="164.5" width="381" height="55" rx="5.5" stroke="#019AEB" stroke-width="3" stroke-linejoin="round"/><path d="M717 164H726V220H717" stroke="#019AEB"/><path d="M736.275 189.615C737.242 189.615 738.009 189.886 738.579 190.429C739.153 190.971 739.44 191.714 739.44 192.657C739.44 193.774 739.096 194.633 738.408 195.234C737.72 195.836 736.736 196.137 735.455 196.137C734.343 196.137 733.445 195.957 732.762 195.597V193.771C733.122 193.963 733.541 194.12 734.02 194.243C734.498 194.362 734.951 194.421 735.38 194.421C736.67 194.421 737.314 193.892 737.314 192.835C737.314 191.828 736.647 191.324 735.312 191.324C735.07 191.324 734.803 191.349 734.512 191.399C734.22 191.445 733.983 191.495 733.801 191.55L732.96 191.099L733.336 186.006H738.757V187.797H735.188L735.004 189.759L735.243 189.711C735.521 189.647 735.865 189.615 736.275 189.615ZM740.484 191.755C740.484 189.777 740.901 188.305 741.735 187.339C742.574 186.373 743.827 185.89 745.495 185.89C746.065 185.89 746.511 185.924 746.835 185.992V187.681C746.429 187.59 746.028 187.544 745.632 187.544C744.907 187.544 744.315 187.653 743.854 187.872C743.399 188.091 743.057 188.414 742.829 188.843C742.601 189.271 742.467 189.88 742.426 190.668H742.515C742.966 189.893 743.688 189.506 744.682 189.506C745.575 189.506 746.274 189.786 746.78 190.347C747.286 190.907 747.539 191.682 747.539 192.671C747.539 193.737 747.238 194.583 746.637 195.207C746.035 195.827 745.201 196.137 744.135 196.137C743.396 196.137 742.752 195.966 742.2 195.624C741.653 195.282 741.229 194.783 740.929 194.127C740.632 193.471 740.484 192.68 740.484 191.755ZM744.094 194.448C744.545 194.448 744.891 194.298 745.133 193.997C745.374 193.692 745.495 193.259 745.495 192.698C745.495 192.211 745.381 191.828 745.153 191.55C744.93 191.267 744.59 191.126 744.135 191.126C743.706 191.126 743.34 191.265 743.034 191.543C742.733 191.821 742.583 192.145 742.583 192.514C742.583 193.056 742.724 193.514 743.007 193.888C743.294 194.261 743.656 194.448 744.094 194.448ZM751.42 196.137C750.522 196.137 749.816 195.788 749.301 195.091C748.79 194.394 748.535 193.427 748.535 192.192C748.535 190.939 748.795 189.964 749.314 189.267C749.839 188.565 750.559 188.214 751.475 188.214C752.436 188.214 753.17 188.588 753.676 189.335H753.744C753.639 188.765 753.587 188.257 753.587 187.811V185.363H755.679V196H754.079L753.676 195.009H753.587C753.113 195.761 752.391 196.137 751.42 196.137ZM752.151 194.476C752.685 194.476 753.074 194.321 753.32 194.011C753.571 193.701 753.708 193.174 753.73 192.432V192.206C753.73 191.386 753.603 190.798 753.348 190.442C753.097 190.087 752.687 189.909 752.117 189.909C751.652 189.909 751.29 190.107 751.03 190.504C750.775 190.896 750.647 191.468 750.647 192.22C750.647 192.972 750.777 193.537 751.037 193.915C751.297 194.289 751.668 194.476 752.151 194.476ZM761.973 196.137C761.075 196.137 760.371 195.811 759.86 195.159H759.751C759.824 195.797 759.86 196.166 759.86 196.267V199.363H757.775V188.357H759.471L759.765 189.349H759.86C760.348 188.592 761.07 188.214 762.027 188.214C762.93 188.214 763.636 188.562 764.146 189.26C764.657 189.957 764.912 190.925 764.912 192.165C764.912 192.981 764.791 193.689 764.55 194.291C764.313 194.893 763.973 195.351 763.531 195.665C763.089 195.979 762.57 196.137 761.973 196.137ZM761.357 189.882C760.842 189.882 760.466 190.041 760.229 190.36C759.992 190.675 759.869 191.197 759.86 191.926V192.151C759.86 192.972 759.981 193.56 760.223 193.915C760.469 194.271 760.856 194.448 761.385 194.448C762.319 194.448 762.786 193.678 762.786 192.138C762.786 191.386 762.67 190.823 762.437 190.449C762.21 190.071 761.85 189.882 761.357 189.882Z" fill="#019AEB"/><rect width="78" height="242.667" transform="translate(810.244)" fill="#C4C4C4"/><rect width="78" height="40" transform="translate(810.244 1)" fill="#171C1E"/><path d="M829.691 26H827.579V21.6865H823.621V26H821.502V16.0059H823.621V19.9229H827.579V16.0059H829.691V26ZM835.138 19.6973C834.696 19.6973 834.349 19.8385 834.099 20.1211C833.848 20.3991 833.704 20.7956 833.668 21.3105H836.594C836.585 20.7956 836.45 20.3991 836.19 20.1211C835.931 19.8385 835.58 19.6973 835.138 19.6973ZM835.432 26.1367C834.201 26.1367 833.24 25.7972 832.547 25.1182C831.854 24.4391 831.508 23.4775 831.508 22.2334C831.508 20.9528 831.827 19.9639 832.465 19.2666C833.107 18.5648 833.994 18.2139 835.124 18.2139C836.204 18.2139 837.045 18.5215 837.646 19.1367C838.248 19.752 838.549 20.6019 838.549 21.6865V22.6982H833.62C833.643 23.2907 833.818 23.7533 834.146 24.0859C834.475 24.4186 834.935 24.585 835.527 24.585C835.988 24.585 836.423 24.5371 836.833 24.4414C837.243 24.3457 837.672 24.193 838.118 23.9834V25.5967C837.754 25.779 837.364 25.9134 836.949 26C836.534 26.0911 836.029 26.1367 835.432 26.1367ZM840.071 16.3818C840.071 15.7028 840.45 15.3633 841.206 15.3633C841.963 15.3633 842.341 15.7028 842.341 16.3818C842.341 16.7054 842.245 16.9583 842.054 17.1406C841.867 17.3184 841.584 17.4072 841.206 17.4072C840.45 17.4072 840.071 17.0654 840.071 16.3818ZM842.245 26H840.16V18.3574H842.245V26ZM851.007 18.3574V19.417L849.81 19.7246C850.029 20.0664 850.139 20.4492 850.139 20.873C850.139 21.6934 849.852 22.3337 849.277 22.7939C848.708 23.2497 847.915 23.4775 846.898 23.4775L846.522 23.457L846.215 23.4229C846.001 23.5869 845.894 23.7692 845.894 23.9697C845.894 24.2705 846.276 24.4209 847.042 24.4209H848.341C849.179 24.4209 849.817 24.6009 850.255 24.9609C850.697 25.321 850.918 25.8496 850.918 26.5469C850.918 27.4401 850.544 28.1328 849.797 28.625C849.054 29.1172 847.985 29.3633 846.591 29.3633C845.524 29.3633 844.709 29.1764 844.144 28.8027C843.583 28.4336 843.303 27.9141 843.303 27.2441C843.303 26.7839 843.446 26.3988 843.733 26.0889C844.02 25.779 844.442 25.5579 844.998 25.4258C844.784 25.3346 844.597 25.1865 844.437 24.9814C844.278 24.7718 844.198 24.5508 844.198 24.3184C844.198 24.0267 844.283 23.7852 844.451 23.5938C844.62 23.3978 844.864 23.2064 845.183 23.0195C844.782 22.8464 844.463 22.5684 844.226 22.1855C843.993 21.8027 843.877 21.3516 843.877 20.832C843.877 19.998 844.148 19.3532 844.69 18.8975C845.233 18.4417 846.007 18.2139 847.015 18.2139C847.229 18.2139 847.482 18.2344 847.773 18.2754C848.07 18.3118 848.259 18.3392 848.341 18.3574H851.007ZM845.107 27.0801C845.107 27.3672 845.244 27.5928 845.518 27.7568C845.796 27.9209 846.183 28.0029 846.68 28.0029C847.427 28.0029 848.013 27.9004 848.436 27.6953C848.86 27.4902 849.072 27.21 849.072 26.8545C849.072 26.5674 848.947 26.3691 848.696 26.2598C848.446 26.1504 848.058 26.0957 847.534 26.0957H846.454C846.071 26.0957 845.75 26.1846 845.49 26.3623C845.235 26.5446 845.107 26.7839 845.107 27.0801ZM845.866 20.8594C845.866 21.2741 845.96 21.6022 846.146 21.8438C846.338 22.0853 846.627 22.2061 847.015 22.2061C847.407 22.2061 847.694 22.0853 847.876 21.8438C848.058 21.6022 848.149 21.2741 848.149 20.8594C848.149 19.9388 847.771 19.4785 847.015 19.4785C846.249 19.4785 845.866 19.9388 845.866 20.8594ZM859.242 26H857.157V21.5361C857.157 20.4333 856.747 19.8818 855.927 19.8818C855.343 19.8818 854.922 20.0801 854.662 20.4766C854.402 20.873 854.272 21.5156 854.272 22.4043V26H852.187V15.3633H854.272V17.5303C854.272 17.6989 854.256 18.0954 854.225 18.7197L854.177 19.335H854.286C854.751 18.5876 855.489 18.2139 856.501 18.2139C857.399 18.2139 858.08 18.4554 858.545 18.9385C859.01 19.4215 859.242 20.1143 859.242 21.0166V26ZM864.524 24.4756C864.889 24.4756 865.326 24.3958 865.837 24.2363V25.7881C865.317 26.0205 864.679 26.1367 863.923 26.1367C863.089 26.1367 862.48 25.9271 862.098 25.5078C861.719 25.084 861.53 24.4505 861.53 23.6074V19.9229H860.532V19.041L861.681 18.3438L862.282 16.7305H863.615V18.3574H865.755V19.9229H863.615V23.6074C863.615 23.9036 863.697 24.1224 863.861 24.2637C864.03 24.4049 864.251 24.4756 864.524 24.4756Z" fill="#fff"/><rect width="78" height="99.333" transform="translate(810.244 42)" fill="#252A2E"/><path d="M827.969 94.3699H826.485V96.6667H825.398V94.3699H820.538V93.3787L825.282 86.6179H826.485V93.3376H827.969V94.3699ZM825.398 93.3376V90.0154C825.398 89.3637 825.421 88.6277 825.467 87.8074H825.412C825.193 88.2449 824.988 88.6072 824.797 88.8943L821.673 93.3376H825.398ZM832.164 86.5291C833.076 86.5291 833.798 86.741 834.331 87.1648C834.864 87.5886 835.131 88.1742 835.131 88.9216C835.131 89.4138 834.978 89.8627 834.673 90.2683C834.367 90.6739 833.88 91.0431 833.21 91.3757C834.021 91.7631 834.598 92.171 834.939 92.5994C835.281 93.0232 835.452 93.5154 835.452 94.0759C835.452 94.9054 835.163 95.5684 834.584 96.0652C834.005 96.5574 833.212 96.8035 832.205 96.8035C831.139 96.8035 830.318 96.571 829.744 96.1062C829.17 95.6368 828.883 94.9737 828.883 94.1169C828.883 92.9731 829.58 92.0821 830.975 91.4441C830.346 91.0886 829.895 90.7058 829.621 90.2957C829.348 89.8809 829.211 89.4184 829.211 88.908C829.211 88.1833 829.478 87.6069 830.011 87.1785C830.548 86.7455 831.266 86.5291 832.164 86.5291ZM830.004 94.1443C830.004 94.6912 830.193 95.1173 830.571 95.4226C830.954 95.7279 831.49 95.8806 832.178 95.8806C832.857 95.8806 833.385 95.7211 833.764 95.4021C834.142 95.0831 834.331 94.6456 834.331 94.0896C834.331 93.6475 834.153 93.2556 833.798 92.9138C833.442 92.5675 832.823 92.2325 831.938 91.9089C831.259 92.2006 830.767 92.5242 830.462 92.8796C830.157 93.2306 830.004 93.6521 830.004 94.1443ZM832.15 87.4519C831.581 87.4519 831.134 87.5886 830.811 87.8621C830.487 88.1355 830.325 88.5001 830.325 88.9558C830.325 89.3751 830.46 89.7351 830.728 90.0359C830.997 90.3367 831.494 90.6375 832.219 90.9382C832.87 90.6648 833.331 90.3708 833.6 90.0564C833.873 89.7419 834.01 89.3751 834.01 88.9558C834.01 88.4955 833.843 88.1309 833.511 87.8621C833.183 87.5886 832.729 87.4519 832.15 87.4519ZM842.402 95.6619H842.341C841.817 96.4229 841.033 96.8035 839.989 96.8035C839.009 96.8035 838.246 96.4685 837.699 95.7986C837.157 95.1287 836.886 94.1762 836.886 92.9412C836.886 91.7061 837.159 90.7468 837.706 90.0632C838.253 89.3796 839.014 89.0378 839.989 89.0378C841.006 89.0378 841.785 89.407 842.327 90.1453H842.416L842.368 89.6052L842.341 89.0789V86.03H843.476V96.6667H842.553L842.402 95.6619ZM840.133 95.8533C840.908 95.8533 841.468 95.6436 841.814 95.2244C842.165 94.8005 842.341 94.1192 842.341 93.1804V92.9412C842.341 91.8793 842.163 91.1228 841.808 90.6716C841.457 90.2159 840.894 89.988 840.119 89.988C839.454 89.988 838.943 90.2478 838.588 90.7673C838.237 91.2823 838.061 92.0115 838.061 92.9548C838.061 93.9119 838.237 94.6342 838.588 95.1218C838.939 95.6095 839.454 95.8533 840.133 95.8533ZM849.291 96.8035C848.803 96.8035 848.357 96.7146 847.951 96.5369C847.55 96.3546 847.213 96.0766 846.939 95.7029H846.857C846.912 96.1404 846.939 96.5551 846.939 96.947V100.03H845.805V89.1746H846.727L846.885 90.2H846.939C847.231 89.7898 847.571 89.4936 847.958 89.3113C848.345 89.129 848.79 89.0378 849.291 89.0378C850.284 89.0378 851.05 89.3774 851.588 90.0564C852.13 90.7354 852.401 91.6879 852.401 92.9138C852.401 94.1443 852.126 95.1013 851.574 95.7849C851.027 96.4639 850.266 96.8035 849.291 96.8035ZM849.127 90.0017C848.361 90.0017 847.808 90.2136 847.466 90.6375C847.124 91.0613 846.949 91.7358 846.939 92.6609V92.9138C846.939 93.9666 847.115 94.7208 847.466 95.1765C847.817 95.6277 848.38 95.8533 849.154 95.8533C849.801 95.8533 850.307 95.5912 850.672 95.0671C851.041 94.5431 851.226 93.8207 851.226 92.9001C851.226 91.9659 851.041 91.2504 850.672 90.7537C850.307 90.2524 849.792 90.0017 849.127 90.0017Z" fill="#fff"/><rect width="78" height="99.333" transform="translate(810.244 142.333)" fill="#252A2E"/><path d="M824.052 190.896C825.104 190.896 825.932 191.158 826.533 191.682C827.139 192.201 827.442 192.914 827.442 193.821C827.442 194.856 827.112 195.667 826.451 196.255C825.795 196.843 824.888 197.137 823.73 197.137C822.605 197.137 821.746 196.957 821.153 196.597V195.503C821.472 195.708 821.869 195.87 822.343 195.988C822.817 196.102 823.284 196.159 823.744 196.159C824.546 196.159 825.168 195.97 825.61 195.592C826.057 195.214 826.28 194.667 826.28 193.951C826.28 192.557 825.426 191.859 823.717 191.859C823.284 191.859 822.705 191.925 821.98 192.058L821.393 191.682L821.769 187.006H826.738V188.052H822.739L822.486 191.053C823.01 190.948 823.532 190.896 824.052 190.896ZM828.972 192.728C828.972 190.763 829.352 189.296 830.113 188.325C830.879 187.35 832.009 186.862 833.504 186.862C834.019 186.862 834.424 186.906 834.721 186.992V187.97C834.37 187.856 833.969 187.799 833.518 187.799C832.447 187.799 831.629 188.134 831.063 188.804C830.498 189.469 830.188 190.517 830.134 191.948H830.216C830.717 191.164 831.51 190.772 832.595 190.772C833.492 190.772 834.199 191.044 834.714 191.586C835.233 192.128 835.493 192.864 835.493 193.794C835.493 194.833 835.208 195.651 834.639 196.248C834.074 196.84 833.308 197.137 832.342 197.137C831.307 197.137 830.487 196.749 829.881 195.975C829.275 195.195 828.972 194.113 828.972 192.728ZM832.328 196.173C832.975 196.173 833.477 195.97 833.832 195.564C834.192 195.154 834.372 194.564 834.372 193.794C834.372 193.133 834.206 192.614 833.873 192.235C833.54 191.857 833.044 191.668 832.383 191.668C831.973 191.668 831.597 191.752 831.255 191.921C830.913 192.09 830.64 192.322 830.435 192.618C830.234 192.914 830.134 193.222 830.134 193.541C830.134 194.01 830.225 194.448 830.407 194.854C830.59 195.259 830.847 195.58 831.18 195.817C831.517 196.054 831.9 196.173 832.328 196.173ZM842.402 195.995H842.341C841.817 196.756 841.033 197.137 839.989 197.137C839.009 197.137 838.246 196.802 837.699 196.132C837.157 195.462 836.886 194.509 836.886 193.274C836.886 192.039 837.159 191.08 837.706 190.396C838.253 189.713 839.014 189.371 839.989 189.371C841.006 189.371 841.785 189.74 842.327 190.479H842.416L842.368 189.938L842.341 189.412V186.363H843.476V197H842.553L842.402 195.995ZM840.133 196.187C840.908 196.187 841.468 195.977 841.814 195.558C842.165 195.134 842.341 194.452 842.341 193.514V193.274C842.341 192.213 842.163 191.456 841.808 191.005C841.457 190.549 840.894 190.321 840.119 190.321C839.454 190.321 838.943 190.581 838.588 191.101C838.237 191.616 838.061 192.345 838.061 193.288C838.061 194.245 838.237 194.967 838.588 195.455C838.939 195.943 839.454 196.187 840.133 196.187ZM849.291 197.137C848.803 197.137 848.357 197.048 847.951 196.87C847.55 196.688 847.213 196.41 846.939 196.036H846.857C846.912 196.474 846.939 196.888 846.939 197.28V200.363H845.805V189.508H846.727L846.885 190.533H846.939C847.231 190.123 847.571 189.827 847.958 189.645C848.345 189.462 848.79 189.371 849.291 189.371C850.284 189.371 851.05 189.711 851.588 190.39C852.13 191.069 852.401 192.021 852.401 193.247C852.401 194.478 852.126 195.435 851.574 196.118C851.027 196.797 850.266 197.137 849.291 197.137ZM849.127 190.335C848.361 190.335 847.808 190.547 847.466 190.971C847.124 191.395 846.949 192.069 846.939 192.994V193.247C846.939 194.3 847.115 195.054 847.466 195.51C847.817 195.961 848.38 196.187 849.154 196.187C849.801 196.187 850.307 195.924 850.672 195.4C851.041 194.876 851.226 194.154 851.226 193.233C851.226 192.299 851.041 191.584 850.672 191.087C850.307 190.586 849.792 190.335 849.127 190.335Z" fill="#fff"/><rect width="196.756" height="242.667" transform="translate(889.244)" fill="#C4C4C4"/><rect width="196.756" height="40" transform="translate(889.244 1)" fill="#171C1E"/><path d="M902.587 26H900.502V16.0059H906.23V17.7422H902.587V20.3193H905.978V22.0488H902.587V26ZM909.599 22.165C909.599 22.9215 909.722 23.4935 909.968 23.8809C910.218 24.2682 910.624 24.4619 911.185 24.4619C911.741 24.4619 912.139 24.2705 912.381 23.8877C912.627 23.5003 912.75 22.9261 912.75 22.165C912.75 21.4085 912.627 20.8411 912.381 20.4629C912.135 20.0846 911.731 19.8955 911.171 19.8955C910.615 19.8955 910.214 20.0846 909.968 20.4629C909.722 20.8366 909.599 21.404 909.599 22.165ZM914.883 22.165C914.883 23.4092 914.555 24.3822 913.898 25.084C913.242 25.7858 912.328 26.1367 911.157 26.1367C910.423 26.1367 909.776 25.9772 909.216 25.6582C908.655 25.3346 908.225 24.8721 907.924 24.2705C907.623 23.6689 907.473 22.9671 907.473 22.165C907.473 20.9163 907.798 19.9456 908.45 19.2529C909.102 18.5602 910.018 18.2139 911.198 18.2139C911.932 18.2139 912.579 18.3734 913.14 18.6924C913.7 19.0114 914.131 19.4694 914.432 20.0664C914.732 20.6634 914.883 21.363 914.883 22.165ZM923.576 26H921.491V21.5361C921.491 20.9847 921.393 20.5723 921.197 20.2988C921.001 20.0208 920.689 19.8818 920.261 19.8818C919.677 19.8818 919.256 20.0778 918.996 20.4697C918.736 20.8571 918.606 21.502 918.606 22.4043V26H916.521V18.3574H918.114L918.395 19.335H918.511C918.743 18.9658 919.062 18.6878 919.468 18.501C919.878 18.3096 920.343 18.2139 920.862 18.2139C921.751 18.2139 922.425 18.4554 922.886 18.9385C923.346 19.417 923.576 20.1097 923.576 21.0166V26ZM928.858 24.4756C929.223 24.4756 929.66 24.3958 930.171 24.2363V25.7881C929.651 26.0205 929.013 26.1367 928.257 26.1367C927.423 26.1367 926.814 25.9271 926.432 25.5078C926.053 25.084 925.864 24.4505 925.864 23.6074V19.9229H924.866V19.041L926.015 18.3438L926.616 16.7305H927.949V18.3574H930.089V19.9229H927.949V23.6074C927.949 23.9036 928.031 24.1224 928.195 24.2637C928.364 24.4049 928.585 24.4756 928.858 24.4756ZM940.523 23.7305C940.523 24.5143 940.25 25.1113 939.703 25.5215C939.161 25.9316 938.347 26.1367 937.263 26.1367C936.707 26.1367 936.233 26.098 935.841 26.0205C935.449 25.9476 935.082 25.8382 934.74 25.6924V23.9697C935.128 24.152 935.563 24.3047 936.046 24.4277C936.533 24.5508 936.962 24.6123 937.331 24.6123C938.087 24.6123 938.466 24.3936 938.466 23.9561C938.466 23.792 938.416 23.6598 938.315 23.5596C938.215 23.4548 938.042 23.3385 937.796 23.2109C937.55 23.0788 937.222 22.9261 936.811 22.7529C936.224 22.5068 935.791 22.279 935.513 22.0693C935.239 21.8597 935.039 21.6204 934.911 21.3516C934.788 21.0781 934.726 20.7432 934.726 20.3467C934.726 19.6676 934.989 19.1436 935.513 18.7744C936.041 18.4007 936.789 18.2139 937.755 18.2139C938.675 18.2139 939.571 18.4144 940.441 18.8154L939.812 20.3193C939.43 20.1553 939.072 20.0208 938.739 19.916C938.406 19.8112 938.067 19.7588 937.721 19.7588C937.105 19.7588 936.798 19.9251 936.798 20.2578C936.798 20.4447 936.896 20.6064 937.092 20.7432C937.292 20.8799 937.727 21.0827 938.397 21.3516C938.994 21.5931 939.432 21.8187 939.71 22.0283C939.988 22.238 940.193 22.4795 940.325 22.7529C940.457 23.0264 940.523 23.3522 940.523 23.7305ZM941.977 16.3818C941.977 15.7028 942.356 15.3633 943.112 15.3633C943.869 15.3633 944.247 15.7028 944.247 16.3818C944.247 16.7054 944.151 16.9583 943.96 17.1406C943.773 17.3184 943.49 17.4072 943.112 17.4072C942.356 17.4072 941.977 17.0654 941.977 16.3818ZM944.151 26H942.066V18.3574H944.151V26ZM951.58 26H945.544V24.7695L949.085 19.9502H945.756V18.3574H951.457V19.7109L948.012 24.4072H951.58V26ZM956.179 19.6973C955.737 19.6973 955.39 19.8385 955.14 20.1211C954.889 20.3991 954.745 20.7956 954.709 21.3105H957.635C957.626 20.7956 957.491 20.3991 957.231 20.1211C956.972 19.8385 956.621 19.6973 956.179 19.6973ZM956.473 26.1367C955.242 26.1367 954.28 25.7972 953.588 25.1182C952.895 24.4391 952.549 23.4775 952.549 22.2334C952.549 20.9528 952.868 19.9639 953.506 19.2666C954.148 18.5648 955.035 18.2139 956.165 18.2139C957.245 18.2139 958.086 18.5215 958.687 19.1367C959.289 19.752 959.59 20.6019 959.59 21.6865V22.6982H954.661C954.684 23.2907 954.859 23.7533 955.187 24.0859C955.515 24.4186 955.976 24.585 956.568 24.585C957.029 24.585 957.464 24.5371 957.874 24.4414C958.284 24.3457 958.712 24.193 959.159 23.9834V25.5967C958.794 25.779 958.405 25.9134 957.99 26C957.575 26.0911 957.07 26.1367 956.473 26.1367Z" fill="#fff"/><rect width="196.756" height="99.333" transform="translate(889.244 42)" fill="#252A2E"/><path d="M904.132 96.6667H903.024V89.5437C903.024 88.9513 903.043 88.3907 903.079 87.8621C902.983 87.9578 902.876 88.058 902.758 88.1628C902.639 88.2677 902.097 88.712 901.131 89.4958L900.529 88.7166L903.175 86.6726H904.132V96.6667ZM914.896 94.3699H913.413V96.6667H912.326V94.3699H907.466V93.3787L912.21 86.6179H913.413V93.3376H914.896V94.3699ZM912.326 93.3376V90.0154C912.326 89.3637 912.349 88.6277 912.395 87.8074H912.34C912.121 88.2449 911.916 88.6072 911.725 88.8943L908.601 93.3376H912.326ZM924.688 94.6228C924.688 95.3201 924.429 95.8578 923.909 96.2361C923.39 96.6143 922.66 96.8035 921.722 96.8035C920.728 96.8035 919.953 96.6462 919.397 96.3318V95.2791C919.757 95.4613 920.143 95.6049 920.553 95.7097C920.967 95.8145 921.366 95.8669 921.749 95.8669C922.341 95.8669 922.797 95.7735 923.116 95.5867C923.435 95.3953 923.595 95.1059 923.595 94.7185C923.595 94.4268 923.467 94.1785 923.212 93.9734C922.961 93.7638 922.469 93.5177 921.735 93.2351C921.038 92.9753 920.541 92.7498 920.245 92.5583C919.953 92.3624 919.735 92.1414 919.589 91.8953C919.448 91.6492 919.377 91.3552 919.377 91.0134C919.377 90.4028 919.625 89.922 920.122 89.571C920.619 89.2156 921.3 89.0378 922.166 89.0378C922.973 89.0378 923.761 89.2019 924.531 89.53L924.128 90.4529C923.376 90.143 922.695 89.988 922.084 89.988C921.546 89.988 921.141 90.0723 920.867 90.241C920.594 90.4096 920.457 90.642 920.457 90.9382C920.457 91.1388 920.507 91.3097 920.607 91.4509C920.712 91.5922 920.879 91.7266 921.106 91.8542C921.334 91.9819 921.772 92.1664 922.419 92.408C923.308 92.7315 923.907 93.0574 924.217 93.3855C924.531 93.7136 924.688 94.1261 924.688 94.6228ZM929.943 96.8035C929.456 96.8035 929.009 96.7146 928.603 96.5369C928.202 96.3546 927.865 96.0766 927.592 95.7029H927.51C927.564 96.1404 927.592 96.5551 927.592 96.947V100.03H926.457V89.1746H927.38L927.537 90.2H927.592C927.883 89.7898 928.223 89.4936 928.61 89.3113C928.998 89.129 929.442 89.0378 929.943 89.0378C930.937 89.0378 931.702 89.3774 932.24 90.0564C932.782 90.7354 933.054 91.6879 933.054 92.9138C933.054 94.1443 932.778 95.1013 932.226 95.7849C931.68 96.4639 930.919 96.8035 929.943 96.8035ZM929.779 90.0017C929.014 90.0017 928.46 90.2136 928.118 90.6375C927.776 91.0613 927.601 91.7358 927.592 92.6609V92.9138C927.592 93.9666 927.767 94.7208 928.118 95.1765C928.469 95.6277 929.032 95.8533 929.807 95.8533C930.454 95.8533 930.96 95.5912 931.324 95.0671C931.693 94.5431 931.878 93.8207 931.878 92.9001C931.878 91.9659 931.693 91.2504 931.324 90.7537C930.96 90.2524 930.445 90.0017 929.779 90.0017Z" fill="#fff"/><rect width="196.756" height="99.333" transform="translate(889.244 142.333)" fill="#252A2E"/><path d="M904.132 197H903.024V189.877C903.024 189.285 903.043 188.724 903.079 188.195C902.983 188.291 902.876 188.391 902.758 188.496C902.639 188.601 902.097 189.045 901.131 189.829L900.529 189.05L903.175 187.006H904.132V197ZM914.896 194.703H913.413V197H912.326V194.703H907.466V193.712L912.21 186.951H913.413V193.671H914.896V194.703ZM912.326 193.671V190.349C912.326 189.697 912.349 188.961 912.395 188.141H912.34C912.121 188.578 911.916 188.94 911.725 189.228L908.601 193.671H912.326ZM924.955 195.995H924.894C924.369 196.756 923.586 197.137 922.542 197.137C921.562 197.137 920.799 196.802 920.252 196.132C919.71 195.462 919.438 194.509 919.438 193.274C919.438 192.039 919.712 191.08 920.259 190.396C920.806 189.713 921.567 189.371 922.542 189.371C923.558 189.371 924.338 189.74 924.88 190.479H924.969L924.921 189.938L924.894 189.412V186.363H926.028V197H925.105L924.955 195.995ZM922.685 196.187C923.46 196.187 924.021 195.977 924.367 195.558C924.718 195.134 924.894 194.452 924.894 193.514V193.274C924.894 192.213 924.716 191.456 924.36 191.005C924.009 190.549 923.447 190.321 922.672 190.321C922.006 190.321 921.496 190.581 921.141 191.101C920.79 191.616 920.614 192.345 920.614 193.288C920.614 194.245 920.79 194.967 921.141 195.455C921.491 195.943 922.006 196.187 922.685 196.187ZM931.844 197.137C931.356 197.137 930.909 197.048 930.504 196.87C930.103 196.688 929.766 196.41 929.492 196.036H929.41C929.465 196.474 929.492 196.888 929.492 197.28V200.363H928.357V189.508H929.28L929.437 190.533H929.492C929.784 190.123 930.123 189.827 930.511 189.645C930.898 189.462 931.342 189.371 931.844 189.371C932.837 189.371 933.603 189.711 934.141 190.39C934.683 191.069 934.954 192.021 934.954 193.247C934.954 194.478 934.678 195.435 934.127 196.118C933.58 196.797 932.819 197.137 931.844 197.137ZM931.68 190.335C930.914 190.335 930.36 190.547 930.018 190.971C929.677 191.395 929.501 192.069 929.492 192.994V193.247C929.492 194.3 929.668 195.054 930.018 195.51C930.369 195.961 930.932 196.187 931.707 196.187C932.354 196.187 932.86 195.924 933.225 195.4C933.594 194.876 933.778 194.154 933.778 193.233C933.778 192.299 933.594 191.584 933.225 191.087C932.86 190.586 932.345 190.335 931.68 190.335Z" fill="#fff"/><defs><clipPath id="clip0_261_60846"><rect x="326.833" y="67.667" width="374" height="48" fill="#fff"/></clipPath><clipPath id="clip1_261_60846"><rect x="326.833" y="67.667" width="374" height="48" rx="4" fill="#fff"/></clipPath><clipPath id="clip2_261_60846"><rect width="374" height="48" fill="#fff" transform="translate(331 168)"/></clipPath><clipPath id="clip3_261_60846"><rect x="331" y="168" width="374" height="48" rx="4" fill="#fff"/></clipPath></defs></svg>