<svg width="1087" height="254" viewBox="0 0 1087 254" fill="none" xmlns="http://www.w3.org/2000/svg">
<rect width="100" height="40" transform="translate(1 1)" fill="#F1F1F6"/>
<path d="M18.1572 23.2246C18.1572 24.127 17.8314 24.8379 17.1797 25.3574C16.5326 25.877 15.6302 26.1367 14.4727 26.1367C13.4062 26.1367 12.4629 25.9362 11.6426 25.5352V23.5664C12.3171 23.8672 12.8867 24.0791 13.3516 24.2021C13.821 24.3252 14.2493 24.3867 14.6367 24.3867C15.1016 24.3867 15.457 24.2979 15.7031 24.1201C15.9538 23.9424 16.0791 23.6781 16.0791 23.3271C16.0791 23.1312 16.0244 22.958 15.915 22.8076C15.8057 22.6527 15.6439 22.5046 15.4297 22.3633C15.2201 22.222 14.7894 21.9964 14.1377 21.6865C13.527 21.3994 13.069 21.1237 12.7637 20.8594C12.4583 20.5951 12.2145 20.2874 12.0322 19.9365C11.8499 19.5856 11.7588 19.1755 11.7588 18.7061C11.7588 17.8219 12.0573 17.127 12.6543 16.6211C13.2559 16.1152 14.0853 15.8623 15.1426 15.8623C15.6621 15.8623 16.1566 15.9238 16.626 16.0469C17.0999 16.1699 17.5944 16.3431 18.1094 16.5664L17.4258 18.2139C16.8926 17.9951 16.4505 17.8424 16.0996 17.7559C15.7533 17.6693 15.4115 17.626 15.0742 17.626C14.6732 17.626 14.3656 17.7194 14.1514 17.9062C13.9372 18.0931 13.8301 18.3369 13.8301 18.6377C13.8301 18.8245 13.8734 18.9886 13.96 19.1299C14.0465 19.2666 14.1833 19.401 14.3701 19.5332C14.5615 19.6608 15.0104 19.8932 15.7168 20.2305C16.651 20.6771 17.2913 21.126 17.6377 21.5771C17.984 22.0238 18.1572 22.5729 18.1572 23.2246ZM22.9404 24.4756C23.305 24.4756 23.7425 24.3958 24.2529 24.2363V25.7881C23.7334 26.0205 23.0954 26.1367 22.3389 26.1367C21.5049 26.1367 20.8965 25.9271 20.5137 25.5078C20.1354 25.084 19.9463 24.4505 19.9463 23.6074V19.9229H18.9482V19.041L20.0967 18.3438L20.6982 16.7305H22.0312V18.3574H24.1709V19.9229H22.0312V23.6074C22.0312 23.9036 22.1133 24.1224 22.2773 24.2637C22.4459 24.4049 22.667 24.4756 22.9404 24.4756ZM30.5742 26L30.1709 24.9609H30.1162C29.7653 25.403 29.403 25.7106 29.0293 25.8838C28.6601 26.0524 28.1771 26.1367 27.58 26.1367C26.8463 26.1367 26.2675 25.9271 25.8437 25.5078C25.4244 25.0885 25.2148 24.4915 25.2148 23.7168C25.2148 22.9056 25.4974 22.3086 26.0625 21.9258C26.6321 21.5384 27.4889 21.3242 28.6328 21.2832L29.959 21.2422V20.9072C29.959 20.1325 29.5625 19.7451 28.7695 19.7451C28.1588 19.7451 27.441 19.9297 26.6162 20.2988L25.9257 18.8906C26.8053 18.4303 27.7806 18.2002 28.8515 18.2002C29.8769 18.2002 30.6631 18.4235 31.2099 18.8701C31.7568 19.3167 32.0302 19.9958 32.0302 20.9072V26H30.5742ZM29.959 22.459L29.1523 22.4863C28.5462 22.5046 28.095 22.6139 27.7988 22.8145C27.5026 23.015 27.3545 23.3203 27.3545 23.7305C27.3545 24.3184 27.6917 24.6123 28.3662 24.6123C28.8493 24.6123 29.2343 24.4733 29.5215 24.1953C29.8131 23.9173 29.959 23.5482 29.959 23.0879V22.459ZM37.3193 24.4756C37.6839 24.4756 38.1214 24.3958 38.6318 24.2363V25.7881C38.1123 26.0205 37.4742 26.1367 36.7177 26.1367C35.8837 26.1367 35.2753 25.9271 34.8925 25.5078C34.5143 25.084 34.3251 24.4505 34.3251 23.6074V19.9229H33.3271V19.041L34.4755 18.3438L35.0771 16.7305H36.4101V18.3574H38.5498V19.9229H36.4101V23.6074C36.4101 23.9036 36.4921 24.1224 36.6562 24.2637C36.8248 24.4049 37.0459 24.4756 37.3193 24.4756ZM43.2646 19.6973C42.8225 19.6973 42.4762 19.8385 42.2255 20.1211C41.9749 20.3991 41.8313 20.7956 41.7949 21.3105H44.7206C44.7115 20.7956 44.5771 20.3991 44.3173 20.1211C44.0576 19.8385 43.7066 19.6973 43.2646 19.6973ZM43.5585 26.1367C42.3281 26.1367 41.3665 25.7972 40.6738 25.1182C39.9811 24.4391 39.6347 23.4775 39.6347 22.2334C39.6347 20.9528 39.9537 19.9639 40.5917 19.2666C41.2343 18.5648 42.1207 18.2139 43.2509 18.2139C44.331 18.2139 45.1718 18.5215 45.7734 19.1367C46.3749 19.752 46.6757 20.6019 46.6757 21.6865V22.6982H41.747C41.7698 23.2907 41.9452 23.7533 42.2734 24.0859C42.6015 24.4186 43.0618 24.585 43.6542 24.585C44.1145 24.585 44.5497 24.5371 44.9599 24.4414C45.3701 24.3457 45.7984 24.193 46.2451 23.9834V25.5967C45.8805 25.779 45.4908 25.9134 45.0761 26C44.6614 26.0911 44.1555 26.1367 43.5585 26.1367Z" fill="#252A2E"/>
<rect width="100" height="99.3333" transform="translate(1 42)" fill="white"/>
<path d="M20.5498 91.574C20.5498 93.2192 20.0804 94.4792 19.1416 95.3542C18.2074 96.2292 16.8561 96.6667 15.0879 96.6667H12.2578V86.6726H15.3955C17.027 86.6726 18.2939 87.1033 19.1963 87.9646C20.0986 88.8259 20.5498 90.0291 20.5498 91.574ZM18.3486 91.6287C18.3486 89.4822 17.4007 88.4089 15.5049 88.4089H14.377V94.9167H15.2861C17.3278 94.9167 18.3486 93.8207 18.3486 91.6287ZM25.5381 90.364C25.096 90.364 24.7497 90.5053 24.499 90.7878C24.2484 91.0658 24.1048 91.4623 24.0683 91.9773H26.9941C26.985 91.4623 26.8506 91.0658 26.5908 90.7878C26.331 90.5053 25.9801 90.364 25.5381 90.364ZM25.832 96.8035C24.6015 96.8035 23.64 96.4639 22.9473 95.7849C22.2545 95.1059 21.9082 94.1443 21.9082 92.9001C21.9082 91.6195 22.2272 90.6306 22.8652 89.9333C23.5078 89.2315 24.3942 88.8806 25.5244 88.8806C26.6045 88.8806 27.4453 89.1882 28.0469 89.8035C28.6484 90.4187 28.9492 91.2686 28.9492 92.3533V93.365H24.0205C24.0433 93.9574 24.2187 94.42 24.5469 94.7527C24.875 95.0854 25.3353 95.2517 25.9277 95.2517C26.388 95.2517 26.8232 95.2039 27.2334 95.1082C27.6435 95.0125 28.0719 94.8598 28.5185 94.6501V96.2634C28.154 96.4457 27.7643 96.5802 27.3496 96.6667C26.9349 96.7579 26.429 96.8035 25.832 96.8035ZM34.7851 90.5896H32.9804V96.6667H30.8955V90.5896H29.747V89.5847L30.8955 89.0242V88.4636C30.8955 87.5932 31.1097 86.9574 31.5381 86.5564C31.9664 86.1554 32.6523 85.9548 33.5957 85.9548C34.3157 85.9548 34.956 86.0619 35.5166 86.2761L34.9834 87.8074C34.5641 87.6752 34.1767 87.6091 33.8213 87.6091C33.525 87.6091 33.3108 87.698 33.1787 87.8757C33.0465 88.0489 32.9804 88.2722 32.9804 88.5457V89.0242H34.7851V90.5896ZM40.7578 96.6667L40.3544 95.6277H40.2998C39.9488 96.0697 39.5865 96.3774 39.2128 96.5505C38.8437 96.7192 38.3606 96.8035 37.7636 96.8035C37.0299 96.8035 36.4511 96.5938 36.0273 96.1746C35.608 95.7553 35.3984 95.1583 35.3984 94.3835C35.3984 93.5723 35.6809 92.9753 36.246 92.5925C36.8157 92.2052 37.6725 91.991 38.8164 91.95L40.1425 91.9089V91.574C40.1425 90.7992 39.746 90.4119 38.9531 90.4119C38.3424 90.4119 37.6246 90.5964 36.7998 90.9656L36.1093 89.5574C36.9889 89.0971 37.9641 88.8669 39.0351 88.8669C40.0605 88.8669 40.8466 89.0903 41.3935 89.5369C41.9404 89.9835 42.2138 90.6625 42.2138 91.574V96.6667H40.7578ZM40.1425 93.1257L39.3359 93.1531C38.7298 93.1713 38.2786 93.2807 37.9824 93.4812C37.6862 93.6817 37.538 93.9871 37.538 94.3972C37.538 94.9851 37.8753 95.2791 38.5498 95.2791C39.0328 95.2791 39.4179 95.1401 39.705 94.8621C39.9967 94.5841 40.1425 94.2149 40.1425 93.7546V93.1257ZM49.6972 96.6667L49.4169 95.6892H49.3076C49.0842 96.0447 48.7675 96.3204 48.3574 96.5164C47.9472 96.7078 47.4801 96.8035 46.956 96.8035C46.0582 96.8035 45.3814 96.5642 44.9257 96.0857C44.47 95.6026 44.2421 94.9099 44.2421 94.0076V89.0242H46.3271V93.488C46.3271 94.0395 46.4251 94.4542 46.621 94.7322C46.817 95.0056 47.1292 95.1423 47.5576 95.1423C48.1409 95.1423 48.5624 94.9486 48.8222 94.5613C49.082 94.1694 49.2119 93.5222 49.2119 92.6199V89.0242H51.2968V96.6667H49.6972ZM55.4853 96.6667H53.4003V86.03H55.4853V96.6667ZM60.8153 95.1423C61.1799 95.1423 61.6174 95.0626 62.1278 94.9031V96.4548C61.6083 96.6873 60.9703 96.8035 60.2138 96.8035C59.3798 96.8035 58.7714 96.5938 58.3886 96.1746C58.0103 95.7507 57.8212 95.1173 57.8212 94.2742V90.5896H56.8231V89.7078L57.9716 89.0105L58.5731 87.3972H59.9062V89.0242H62.0458V90.5896H59.9062V94.2742C59.9062 94.5704 59.9882 94.7891 60.1522 94.9304C60.3209 95.0717 60.5419 95.1423 60.8153 95.1423Z" fill="#252A2E"/>
<rect width="100" height="110.667" transform="translate(1 142.333)" fill="white"/>
<path d="M14.3428 202.667H12.2578V192.672H17.9863V194.409H14.3428V196.986H17.7334V198.715H14.3428V202.667ZM21.3545 198.832C21.3545 199.588 21.4775 200.16 21.7236 200.547C21.9743 200.935 22.3799 201.128 22.9404 201.128C23.4964 201.128 23.8952 200.937 24.1367 200.554C24.3828 200.167 24.5058 199.593 24.5058 198.832C24.5058 198.075 24.3828 197.508 24.1367 197.129C23.8906 196.751 23.4873 196.562 22.9267 196.562C22.3708 196.562 21.9697 196.751 21.7236 197.129C21.4775 197.503 21.3545 198.07 21.3545 198.832ZM26.6387 198.832C26.6387 200.076 26.3105 201.049 25.6543 201.75C24.998 202.452 24.0843 202.803 22.9131 202.803C22.1793 202.803 21.5322 202.644 20.9717 202.325C20.4111 202.001 19.9805 201.539 19.6797 200.937C19.3789 200.335 19.2285 199.634 19.2285 198.832C19.2285 197.583 19.5543 196.612 20.206 195.919C20.8577 195.227 21.7737 194.88 22.9541 194.88C23.6878 194.88 24.3349 195.04 24.8955 195.359C25.456 195.678 25.8867 196.136 26.1875 196.733C26.4883 197.33 26.6387 198.029 26.6387 198.832ZM31.3808 202.803C29.0019 202.803 27.8125 201.498 27.8125 198.886C27.8125 197.587 28.136 196.596 28.7832 195.913C29.4303 195.224 30.3577 194.88 31.5654 194.88C32.4495 194.88 33.2425 195.054 33.9443 195.4L33.3291 197.013C33.0009 196.881 32.6956 196.774 32.4131 196.692C32.1305 196.605 31.848 196.562 31.5654 196.562C30.4808 196.562 29.9384 197.332 29.9384 198.873C29.9384 200.367 30.4808 201.115 31.5654 201.115C31.9664 201.115 32.3379 201.062 32.6797 200.958C33.0215 200.848 33.3633 200.68 33.705 200.452V202.236C33.3678 202.45 33.026 202.598 32.6797 202.68C32.3379 202.762 31.9049 202.803 31.3808 202.803ZM40.8125 202.667L40.5322 201.689H40.4228C40.1995 202.044 39.8828 202.32 39.4726 202.516C39.0625 202.708 38.5953 202.803 38.0712 202.803C37.1735 202.803 36.4967 202.564 36.041 202.085C35.5852 201.602 35.3574 200.91 35.3574 200.007V195.024H37.4423V199.488C37.4423 200.039 37.5403 200.454 37.7363 200.732C37.9322 201.005 38.2444 201.142 38.6728 201.142C39.2561 201.142 39.6777 200.948 39.9375 200.561C40.1972 200.169 40.3271 199.522 40.3271 198.62V195.024H42.4121V202.667H40.8125ZM49.8476 200.397C49.8476 201.181 49.5742 201.778 49.0273 202.188C48.485 202.598 47.6715 202.803 46.5869 202.803C46.0309 202.803 45.5569 202.764 45.165 202.687C44.7731 202.614 44.4062 202.505 44.0644 202.359V200.636C44.4518 200.819 44.887 200.971 45.3701 201.094C45.8577 201.217 46.2861 201.279 46.6552 201.279C47.4117 201.279 47.79 201.06 47.79 200.623C47.79 200.458 47.7398 200.326 47.6396 200.226C47.5393 200.121 47.3661 200.005 47.1201 199.877C46.874 199.745 46.5458 199.593 46.1357 199.419C45.5478 199.173 45.1148 198.945 44.8369 198.736C44.5634 198.526 44.3629 198.287 44.2353 198.018C44.1122 197.745 44.0507 197.41 44.0507 197.013C44.0507 196.334 44.3128 195.81 44.8369 195.441C45.3655 195.067 46.1129 194.88 47.079 194.88C47.9996 194.88 48.8951 195.081 49.7656 195.482L49.1367 196.986C48.7538 196.822 48.3961 196.687 48.0634 196.583C47.7307 196.478 47.3912 196.425 47.0449 196.425C46.4296 196.425 46.122 196.592 46.122 196.924C46.122 197.111 46.22 197.273 46.416 197.41C46.6165 197.546 47.0517 197.749 47.7216 198.018C48.3186 198.26 48.7561 198.485 49.0341 198.695C49.3121 198.904 49.5172 199.146 49.6494 199.419C49.7815 199.693 49.8476 200.019 49.8476 200.397Z" fill="#252A2E"/>
<rect width="707.244" height="40" transform="translate(102 1)" fill="#F1F1F6"/>
<path d="M119.014 26H113.258V16.0059H119.014V17.7422H115.377V19.9365H118.761V21.6729H115.377V24.25H119.014V26ZM122.423 22.0967L119.962 18.3574H122.327L123.811 20.791L125.308 18.3574H127.673L125.185 22.0967L127.789 26H125.417L123.811 23.3818L122.197 26H119.832L122.423 22.0967ZM133.721 26L133.317 24.9609H133.263C132.912 25.403 132.549 25.7106 132.176 25.8838C131.807 26.0524 131.324 26.1367 130.727 26.1367C129.993 26.1367 129.414 25.9271 128.99 25.5078C128.571 25.0885 128.361 24.4915 128.361 23.7168C128.361 22.9056 128.644 22.3086 129.209 21.9258C129.779 21.5384 130.635 21.3242 131.779 21.2832L133.105 21.2422V20.9072C133.105 20.1325 132.709 19.7451 131.916 19.7451C131.305 19.7451 130.588 19.9297 129.763 20.2988L129.072 18.8906C129.952 18.4303 130.927 18.2002 131.998 18.2002C133.023 18.2002 133.81 18.4235 134.356 18.8701C134.903 19.3167 135.177 19.9958 135.177 20.9072V26H133.721ZM133.105 22.459L132.299 22.4863C131.693 22.5046 131.242 22.6139 130.945 22.8145C130.649 23.015 130.501 23.3203 130.501 23.7305C130.501 24.3184 130.838 24.6123 131.513 24.6123C131.996 24.6123 132.381 24.4733 132.668 24.1953C132.96 23.9173 133.105 23.5482 133.105 23.0879V22.459ZM144.089 26H142.004V21.5361C142.004 20.9847 141.91 20.5723 141.724 20.2988C141.541 20.0208 141.252 19.8818 140.855 19.8818C140.322 19.8818 139.935 20.0778 139.693 20.4697C139.452 20.8617 139.331 21.5065 139.331 22.4043V26H137.246V18.3574H138.839L139.119 19.335H139.235C139.44 18.984 139.737 18.7106 140.124 18.5146C140.511 18.3141 140.956 18.2139 141.457 18.2139C142.601 18.2139 143.376 18.5876 143.781 19.335H143.966C144.171 18.9795 144.472 18.7038 144.868 18.5078C145.269 18.3118 145.72 18.2139 146.222 18.2139C147.088 18.2139 147.741 18.4372 148.184 18.8838C148.63 19.3258 148.853 20.0368 148.853 21.0166V26H146.762V21.5361C146.762 20.9847 146.668 20.5723 146.481 20.2988C146.299 20.0208 146.01 19.8818 145.613 19.8818C145.103 19.8818 144.72 20.0641 144.465 20.4287C144.214 20.7933 144.089 21.3721 144.089 22.165V26ZM155.113 26.1367C154.215 26.1367 153.511 25.8109 153.001 25.1592H152.892C152.964 25.7972 153.001 26.1663 153.001 26.2666V29.3633H150.916V18.3574H152.611L152.905 19.3486H153.001C153.489 18.5921 154.211 18.2139 155.168 18.2139C156.07 18.2139 156.777 18.5625 157.287 19.2598C157.797 19.957 158.053 20.9255 158.053 22.165C158.053 22.9808 157.932 23.6895 157.69 24.291C157.453 24.8926 157.114 25.3506 156.672 25.665C156.23 25.9795 155.71 26.1367 155.113 26.1367ZM154.498 19.8818C153.983 19.8818 153.607 20.0413 153.37 20.3604C153.133 20.6748 153.01 21.1966 153.001 21.9258V22.1514C153.001 22.9717 153.122 23.5596 153.363 23.915C153.609 24.2705 153.997 24.4482 154.525 24.4482C155.46 24.4482 155.927 23.6781 155.927 22.1377C155.927 21.3857 155.81 20.8229 155.578 20.4492C155.35 20.071 154.99 19.8818 154.498 19.8818ZM161.776 26H159.691V15.3633H161.776V26ZM167.052 19.6973C166.61 19.6973 166.263 19.8385 166.013 20.1211C165.762 20.3991 165.618 20.7956 165.582 21.3105H168.508C168.499 20.7956 168.364 20.3991 168.104 20.1211C167.845 19.8385 167.494 19.6973 167.052 19.6973ZM167.346 26.1367C166.115 26.1367 165.154 25.7972 164.461 25.1182C163.768 24.4391 163.422 23.4775 163.422 22.2334C163.422 20.9528 163.741 19.9639 164.379 19.2666C165.021 18.5648 165.908 18.2139 167.038 18.2139C168.118 18.2139 168.959 18.5215 169.56 19.1367C170.162 19.752 170.463 20.6019 170.463 21.6865V22.6982H165.534C165.557 23.2907 165.732 23.7533 166.06 24.0859C166.389 24.4186 166.849 24.585 167.441 24.585C167.902 24.585 168.337 24.5371 168.747 24.4414C169.157 24.3457 169.586 24.193 170.032 23.9834V25.5967C169.668 25.779 169.278 25.9134 168.863 26C168.448 26.0911 167.943 26.1367 167.346 26.1367Z" fill="#252A2E"/>
<rect width="707.244" height="99.3333" transform="translate(102 42)" fill="white"/>
<path d="M131.698 88.3328H129.911V79.7664H134.821V81.2546H131.698V83.4636H134.604V84.946H131.698V88.3328ZM137.708 85.0457C137.708 85.6941 137.814 86.1843 138.025 86.5164C138.24 86.8484 138.587 87.0144 139.068 87.0144C139.544 87.0144 139.886 86.8503 140.093 86.5222C140.304 86.1902 140.409 85.698 140.409 85.0457C140.409 84.3972 140.304 83.9109 140.093 83.5867C139.882 83.2625 139.536 83.1003 139.056 83.1003C138.579 83.1003 138.236 83.2625 138.025 83.5867C137.814 83.907 137.708 84.3933 137.708 85.0457ZM142.238 85.0457C142.238 86.1121 141.956 86.946 141.394 87.5476C140.831 88.1492 140.048 88.45 139.044 88.45C138.415 88.45 137.861 88.3132 137.38 88.0398C136.9 87.7625 136.531 87.366 136.273 86.8503C136.015 86.3347 135.886 85.7332 135.886 85.0457C135.886 83.9753 136.165 83.1433 136.724 82.5496C137.282 81.9558 138.068 81.6589 139.079 81.6589C139.708 81.6589 140.263 81.7957 140.743 82.0691C141.224 82.3425 141.593 82.7351 141.851 83.2468C142.109 83.7585 142.238 84.3582 142.238 85.0457ZM149.689 88.3328H147.902V84.5066C147.902 84.0339 147.818 83.6804 147.65 83.446C147.482 83.2078 147.214 83.0886 146.847 83.0886C146.347 83.0886 145.986 83.2566 145.763 83.5925C145.541 83.9246 145.429 84.4773 145.429 85.2507V88.3328H143.642V81.782H145.007L145.248 82.6199H145.347C145.546 82.3035 145.82 82.0652 146.168 81.905C146.519 81.741 146.918 81.6589 147.363 81.6589C148.125 81.6589 148.703 81.866 149.097 82.28C149.492 82.6902 149.689 83.2839 149.689 84.0613V88.3328ZM154.217 87.0261C154.529 87.0261 154.904 86.9578 155.342 86.821V88.1511C154.896 88.3503 154.349 88.45 153.701 88.45C152.986 88.45 152.465 88.2703 152.137 87.9109C151.812 87.5476 151.65 87.0046 151.65 86.282V83.1238H150.795V82.3679L151.779 81.7703L152.295 80.3875H153.437V81.782H155.271V83.1238H153.437V86.282C153.437 86.5359 153.508 86.7234 153.648 86.8445C153.793 86.9656 153.982 87.0261 154.217 87.0261ZM156.02 85.8484V84.3835H159.166V85.8484H156.02ZM164.965 86.3875C164.965 87.0593 164.731 87.571 164.262 87.9226C163.797 88.2742 163.1 88.45 162.17 88.45C161.694 88.45 161.287 88.4167 160.952 88.3503C160.616 88.2878 160.301 88.1941 160.008 88.0691V86.5925C160.34 86.7488 160.713 86.8796 161.127 86.9851C161.545 87.0906 161.912 87.1433 162.229 87.1433C162.877 87.1433 163.202 86.9558 163.202 86.5808C163.202 86.4402 163.159 86.3269 163.073 86.241C162.987 86.1511 162.838 86.0515 162.627 85.9421C162.416 85.8289 162.135 85.698 161.784 85.5496C161.28 85.3386 160.909 85.1433 160.67 84.9636C160.436 84.7839 160.264 84.5789 160.155 84.3484C160.049 84.114 159.996 83.8269 159.996 83.4871C159.996 82.905 160.221 82.4558 160.67 82.1394C161.123 81.8191 161.764 81.6589 162.592 81.6589C163.381 81.6589 164.149 81.8308 164.895 82.1746L164.356 83.4636C164.028 83.323 163.721 83.2078 163.436 83.1179C163.151 83.0281 162.86 82.9832 162.563 82.9832C162.036 82.9832 161.772 83.1257 161.772 83.4109C161.772 83.571 161.856 83.7097 162.024 83.8269C162.196 83.9441 162.569 84.1179 163.143 84.3484C163.655 84.5554 164.03 84.7488 164.268 84.9285C164.506 85.1082 164.682 85.3152 164.795 85.5496C164.909 85.7839 164.965 86.0632 164.965 86.3875ZM166.212 80.0886C166.212 79.5066 166.536 79.2156 167.184 79.2156C167.833 79.2156 168.157 79.5066 168.157 80.0886C168.157 80.366 168.075 80.5828 167.911 80.739C167.751 80.8914 167.508 80.9675 167.184 80.9675C166.536 80.9675 166.212 80.6746 166.212 80.0886ZM168.075 88.3328H166.288V81.782H168.075V88.3328ZM174.442 88.3328H169.268V87.2781L172.304 83.1472H169.45V81.782H174.337V82.9421L171.384 86.9675H174.442V88.3328ZM178.384 82.9304C178.005 82.9304 177.708 83.0515 177.493 83.2937C177.278 83.532 177.155 83.8718 177.124 84.3132H179.632C179.624 83.8718 179.509 83.532 179.286 83.2937C179.064 83.0515 178.763 82.9304 178.384 82.9304ZM178.636 88.45C177.581 88.45 176.757 88.1589 176.163 87.5769C175.57 86.9949 175.273 86.1707 175.273 85.1042C175.273 84.0066 175.546 83.1589 176.093 82.5613C176.644 81.9597 177.403 81.6589 178.372 81.6589C179.298 81.6589 180.019 81.9226 180.534 82.45C181.05 82.9773 181.308 83.7058 181.308 84.6355V85.5027H177.083C177.103 86.0105 177.253 86.407 177.534 86.6921C177.816 86.9773 178.21 87.1199 178.718 87.1199C179.112 87.1199 179.486 87.0789 179.837 86.9968C180.189 86.9148 180.556 86.7839 180.939 86.6042V87.9871C180.626 88.1433 180.292 88.2585 179.937 88.3328C179.581 88.4109 179.148 88.45 178.636 88.45ZM182.437 87.4949C182.437 87.1667 182.525 86.9187 182.701 86.7507C182.876 86.5828 183.132 86.4988 183.468 86.4988C183.792 86.4988 184.042 86.5847 184.218 86.7566C184.398 86.9285 184.488 87.1746 184.488 87.4949C184.488 87.8035 184.398 88.0476 184.218 88.2273C184.039 88.4031 183.789 88.491 183.468 88.491C183.14 88.491 182.886 88.405 182.706 88.2332C182.527 88.0574 182.437 87.8113 182.437 87.4949ZM182.437 82.655C182.437 82.3269 182.525 82.0789 182.701 81.9109C182.876 81.7429 183.132 81.6589 183.468 81.6589C183.792 81.6589 184.042 81.7449 184.218 81.9167C184.398 82.0886 184.488 82.3347 184.488 82.655C184.488 82.9714 184.396 83.2175 184.212 83.3933C184.033 83.5652 183.785 83.6511 183.468 83.6511C183.14 83.6511 182.886 83.5652 182.706 83.3933C182.527 83.2214 182.437 82.9753 182.437 82.655ZM192.336 88.3328H191.387V82.2273C191.387 81.7195 191.402 81.239 191.434 80.7859C191.352 80.8679 191.26 80.9539 191.158 81.0437C191.057 81.1335 190.592 81.5144 189.764 82.1863L189.248 81.5183L191.516 79.7664H192.336V88.3328ZM201.563 86.364H200.291V88.3328H199.36V86.364H195.194V85.5144L199.26 79.7195H200.291V85.4792H201.563V86.364ZM199.36 85.4792V82.6316C199.36 82.073 199.379 81.4421 199.418 80.739H199.371C199.184 81.114 199.008 81.4246 198.844 81.6707L196.166 85.4792H199.36ZM206.911 86.5808C206.911 87.1785 206.688 87.6394 206.243 87.9636C205.797 88.2878 205.172 88.45 204.368 88.45C203.516 88.45 202.852 88.3152 202.376 88.0457V87.1433C202.684 87.2996 203.014 87.4226 203.366 87.5125C203.721 87.6023 204.063 87.6472 204.391 87.6472C204.899 87.6472 205.29 87.5671 205.563 87.407C205.836 87.2429 205.973 86.9949 205.973 86.6628C205.973 86.4128 205.864 86.2 205.645 86.0242C205.43 85.8445 205.008 85.6335 204.379 85.3914C203.782 85.1687 203.356 84.9753 203.102 84.8113C202.852 84.6433 202.665 84.4539 202.54 84.2429C202.418 84.032 202.358 83.78 202.358 83.4871C202.358 82.9636 202.571 82.5515 202.997 82.2507C203.422 81.946 204.006 81.7937 204.749 81.7937C205.44 81.7937 206.116 81.9343 206.776 82.2156L206.43 83.0066C205.786 82.741 205.202 82.6082 204.678 82.6082C204.217 82.6082 203.87 82.6804 203.635 82.825C203.401 82.9695 203.284 83.1687 203.284 83.4226C203.284 83.5945 203.327 83.741 203.413 83.8621C203.502 83.9832 203.645 84.0984 203.84 84.2078C204.036 84.3171 204.411 84.4753 204.965 84.6824C205.727 84.9597 206.241 85.239 206.506 85.5203C206.776 85.8015 206.911 86.155 206.911 86.5808ZM211.415 88.45C210.997 88.45 210.614 88.3738 210.266 88.2214C209.923 88.0652 209.634 87.8269 209.399 87.5066H209.329C209.376 87.8816 209.399 88.2371 209.399 88.573V91.2156H208.427V81.9109H209.218L209.352 82.7898H209.399C209.649 82.4382 209.94 82.1843 210.272 82.0281C210.604 81.8718 210.985 81.7937 211.415 81.7937C212.266 81.7937 212.923 82.0847 213.384 82.6667C213.848 83.2488 214.081 84.0652 214.081 85.116C214.081 86.1707 213.845 86.991 213.372 87.5769C212.903 88.1589 212.251 88.45 211.415 88.45ZM211.274 82.6199C210.618 82.6199 210.143 82.8015 209.85 83.1648C209.557 83.5281 209.407 84.1062 209.399 84.8992V85.116C209.399 86.0183 209.55 86.6648 209.85 87.0554C210.151 87.4421 210.634 87.6355 211.298 87.6355C211.852 87.6355 212.286 87.4109 212.598 86.9617C212.915 86.5125 213.073 85.8933 213.073 85.1042C213.073 84.3035 212.915 83.6902 212.598 83.2644C212.286 82.8347 211.845 82.6199 211.274 82.6199ZM129.911 99.7664H132.577C133.792 99.7664 134.673 99.9402 135.22 100.288C135.771 100.632 136.046 101.18 136.046 101.934C136.046 102.446 135.925 102.866 135.683 103.194C135.444 103.522 135.126 103.719 134.728 103.786V103.844C135.271 103.966 135.661 104.192 135.899 104.524C136.142 104.856 136.263 105.298 136.263 105.848C136.263 106.63 135.979 107.239 135.413 107.677C134.851 108.114 134.085 108.333 133.116 108.333H129.911V99.7664ZM131.728 103.159H132.782C133.274 103.159 133.63 103.083 133.849 102.93C134.071 102.778 134.183 102.526 134.183 102.175C134.183 101.846 134.062 101.612 133.819 101.471C133.581 101.327 133.202 101.255 132.683 101.255H131.728V103.159ZM131.728 104.6V106.833H132.911C133.411 106.833 133.78 106.737 134.019 106.546C134.257 106.354 134.376 106.061 134.376 105.667C134.376 104.956 133.868 104.6 132.853 104.6H131.728ZM139.185 105.046C139.185 105.694 139.29 106.184 139.501 106.516C139.716 106.848 140.064 107.014 140.544 107.014C141.021 107.014 141.363 106.85 141.57 106.522C141.781 106.19 141.886 105.698 141.886 105.046C141.886 104.397 141.781 103.911 141.57 103.587C141.359 103.262 141.013 103.1 140.532 103.1C140.056 103.1 139.712 103.262 139.501 103.587C139.29 103.907 139.185 104.393 139.185 105.046ZM143.714 105.046C143.714 106.112 143.433 106.946 142.87 107.548C142.308 108.149 141.525 108.45 140.521 108.45C139.892 108.45 139.337 108.313 138.857 108.04C138.376 107.762 138.007 107.366 137.749 106.85C137.491 106.335 137.363 105.733 137.363 105.046C137.363 103.975 137.642 103.143 138.2 102.55C138.759 101.956 139.544 101.659 140.556 101.659C141.185 101.659 141.74 101.796 142.22 102.069C142.7 102.343 143.07 102.735 143.327 103.247C143.585 103.759 143.714 104.358 143.714 105.046ZM148.775 101.659C149.017 101.659 149.218 101.677 149.378 101.712L149.244 103.387C149.099 103.348 148.923 103.329 148.716 103.329C148.146 103.329 147.701 103.475 147.38 103.768C147.064 104.061 146.906 104.471 146.906 104.999V108.333H145.119V101.782H146.472L146.736 102.884H146.824C147.027 102.516 147.3 102.221 147.644 101.999C147.992 101.772 148.369 101.659 148.775 101.659ZM152.57 108.45C151.801 108.45 151.195 108.151 150.754 107.553C150.316 106.956 150.097 106.128 150.097 105.069C150.097 103.995 150.32 103.159 150.765 102.561C151.215 101.96 151.832 101.659 152.617 101.659C153.441 101.659 154.07 101.979 154.504 102.62H154.562C154.472 102.132 154.428 101.696 154.428 101.313V99.2156H156.221V108.333H154.849L154.504 107.483H154.428C154.021 108.128 153.402 108.45 152.57 108.45ZM153.197 107.026C153.654 107.026 153.988 106.893 154.199 106.628C154.414 106.362 154.531 105.911 154.551 105.274V105.081C154.551 104.378 154.441 103.874 154.222 103.569C154.008 103.264 153.656 103.112 153.168 103.112C152.769 103.112 152.459 103.282 152.236 103.622C152.017 103.958 151.908 104.448 151.908 105.093C151.908 105.737 152.019 106.221 152.242 106.546C152.465 106.866 152.783 107.026 153.197 107.026ZM160.731 102.93C160.352 102.93 160.055 103.052 159.84 103.294C159.625 103.532 159.502 103.872 159.471 104.313H161.979C161.971 103.872 161.856 103.532 161.633 103.294C161.41 103.052 161.109 102.93 160.731 102.93ZM160.983 108.45C159.928 108.45 159.104 108.159 158.51 107.577C157.916 106.995 157.619 106.171 157.619 105.104C157.619 104.007 157.893 103.159 158.44 102.561C158.99 101.96 159.75 101.659 160.719 101.659C161.645 101.659 162.365 101.923 162.881 102.45C163.397 102.977 163.654 103.706 163.654 104.635V105.503H159.43C159.449 106.01 159.6 106.407 159.881 106.692C160.162 106.977 160.557 107.12 161.065 107.12C161.459 107.12 161.832 107.079 162.184 106.997C162.535 106.915 162.902 106.784 163.285 106.604V107.987C162.973 108.143 162.639 108.259 162.283 108.333C161.928 108.411 161.494 108.45 160.983 108.45ZM168.692 101.659C168.934 101.659 169.135 101.677 169.295 101.712L169.161 103.387C169.016 103.348 168.84 103.329 168.633 103.329C168.063 103.329 167.618 103.475 167.297 103.768C166.981 104.061 166.823 104.471 166.823 104.999V108.333H165.036V101.782H166.389L166.653 102.884H166.741C166.944 102.516 167.217 102.221 167.561 101.999C167.909 101.772 168.286 101.659 168.692 101.659ZM169.833 105.848V104.384H172.979V105.848H169.833ZM177.864 101.659C178.106 101.659 178.308 101.677 178.468 101.712L178.333 103.387C178.188 103.348 178.013 103.329 177.806 103.329C177.235 103.329 176.79 103.475 176.47 103.768C176.153 104.061 175.995 104.471 175.995 104.999V108.333H174.208V101.782H175.561L175.825 102.884H175.913C176.116 102.516 176.39 102.221 176.733 101.999C177.081 101.772 177.458 101.659 177.864 101.659ZM183.745 108.333L183.4 107.442H183.353C183.052 107.821 182.741 108.085 182.421 108.233C182.105 108.378 181.691 108.45 181.179 108.45C180.55 108.45 180.054 108.27 179.691 107.911C179.331 107.552 179.152 107.04 179.152 106.376C179.152 105.68 179.394 105.169 179.878 104.841C180.366 104.509 181.101 104.325 182.081 104.29L183.218 104.255V103.968C183.218 103.303 182.878 102.971 182.198 102.971C181.675 102.971 181.06 103.13 180.353 103.446L179.761 102.239C180.515 101.844 181.351 101.647 182.269 101.647C183.148 101.647 183.821 101.839 184.29 102.221C184.759 102.604 184.993 103.186 184.993 103.968V108.333H183.745ZM183.218 105.298L182.527 105.321C182.007 105.337 181.62 105.43 181.366 105.602C181.112 105.774 180.986 106.036 180.986 106.387C180.986 106.891 181.275 107.143 181.853 107.143C182.267 107.143 182.597 107.024 182.843 106.786C183.093 106.548 183.218 106.231 183.218 105.837V105.298ZM188.841 108.45C188.072 108.45 187.466 108.151 187.025 107.553C186.587 106.956 186.369 106.128 186.369 105.069C186.369 103.995 186.591 103.159 187.037 102.561C187.486 101.96 188.103 101.659 188.888 101.659C189.712 101.659 190.341 101.979 190.775 102.62H190.833C190.744 102.132 190.699 101.696 190.699 101.313V99.2156H192.492V108.333H191.121L190.775 107.483H190.699C190.292 108.128 189.673 108.45 188.841 108.45ZM189.468 107.026C189.925 107.026 190.259 106.893 190.47 106.628C190.685 106.362 190.802 105.911 190.822 105.274V105.081C190.822 104.378 190.712 103.874 190.494 103.569C190.279 103.264 189.927 103.112 189.439 103.112C189.04 103.112 188.73 103.282 188.507 103.622C188.289 103.958 188.179 104.448 188.179 105.093C188.179 105.737 188.29 106.221 188.513 106.546C188.736 106.866 189.054 107.026 189.468 107.026ZM194.213 100.089C194.213 99.5066 194.537 99.2156 195.185 99.2156C195.834 99.2156 196.158 99.5066 196.158 100.089C196.158 100.366 196.076 100.583 195.912 100.739C195.752 100.891 195.509 100.968 195.185 100.968C194.537 100.968 194.213 100.675 194.213 100.089ZM196.076 108.333H194.289V101.782H196.076V108.333ZM202.525 108.333L202.285 107.495H202.191C202 107.8 201.729 108.036 201.377 108.204C201.025 108.368 200.625 108.45 200.176 108.45C199.406 108.45 198.826 108.245 198.436 107.835C198.045 107.421 197.85 106.827 197.85 106.053V101.782H199.637V105.608C199.637 106.081 199.721 106.436 199.889 106.675C200.057 106.909 200.324 107.026 200.691 107.026C201.191 107.026 201.553 106.86 201.775 106.528C201.998 106.192 202.109 105.637 202.109 104.864V101.782H203.896V108.333H202.525ZM210.27 106.387C210.27 107.059 210.035 107.571 209.567 107.923C209.102 108.274 208.405 108.45 207.475 108.45C206.998 108.45 206.592 108.417 206.256 108.35C205.92 108.288 205.606 108.194 205.313 108.069V106.593C205.645 106.749 206.018 106.88 206.432 106.985C206.85 107.091 207.217 107.143 207.533 107.143C208.182 107.143 208.506 106.956 208.506 106.581C208.506 106.44 208.463 106.327 208.377 106.241C208.291 106.151 208.143 106.052 207.932 105.942C207.721 105.829 207.44 105.698 207.088 105.55C206.584 105.339 206.213 105.143 205.975 104.964C205.74 104.784 205.569 104.579 205.459 104.348C205.354 104.114 205.301 103.827 205.301 103.487C205.301 102.905 205.526 102.456 205.975 102.139C206.428 101.819 207.069 101.659 207.897 101.659C208.686 101.659 209.453 101.831 210.199 102.175L209.66 103.464C209.332 103.323 209.026 103.208 208.74 103.118C208.455 103.028 208.164 102.983 207.867 102.983C207.34 102.983 207.076 103.126 207.076 103.411C207.076 103.571 207.16 103.71 207.328 103.827C207.5 103.944 207.873 104.118 208.448 104.348C208.959 104.555 209.334 104.749 209.573 104.928C209.811 105.108 209.987 105.315 210.1 105.55C210.213 105.784 210.27 106.063 210.27 106.387ZM211.34 107.495C211.34 107.167 211.428 106.919 211.604 106.751C211.78 106.583 212.036 106.499 212.372 106.499C212.696 106.499 212.946 106.585 213.122 106.757C213.301 106.928 213.391 107.175 213.391 107.495C213.391 107.803 213.301 108.048 213.122 108.227C212.942 108.403 212.692 108.491 212.372 108.491C212.043 108.491 211.79 108.405 211.61 108.233C211.43 108.057 211.34 107.811 211.34 107.495ZM211.34 102.655C211.34 102.327 211.428 102.079 211.604 101.911C211.78 101.743 212.036 101.659 212.372 101.659C212.696 101.659 212.946 101.745 213.122 101.917C213.301 102.089 213.391 102.335 213.391 102.655C213.391 102.971 213.299 103.218 213.116 103.393C212.936 103.565 212.688 103.651 212.372 103.651C212.043 103.651 211.79 103.565 211.61 103.393C211.43 103.221 211.34 102.975 211.34 102.655ZM223.671 106.364H222.399V108.333H221.468V106.364H217.302V105.514L221.368 99.7195H222.399V105.479H223.671V106.364ZM221.468 105.479V102.632C221.468 102.073 221.487 101.442 221.526 100.739H221.48C221.292 101.114 221.116 101.425 220.952 101.671L218.274 105.479H221.468ZM229.247 107.471H229.195C228.745 108.124 228.074 108.45 227.179 108.45C226.339 108.45 225.685 108.163 225.216 107.589C224.751 107.014 224.519 106.198 224.519 105.139C224.519 104.081 224.753 103.259 225.222 102.673C225.691 102.087 226.343 101.794 227.179 101.794C228.05 101.794 228.718 102.11 229.183 102.743H229.259L229.218 102.28L229.195 101.829V99.2156H230.167V108.333H229.376L229.247 107.471ZM227.302 107.635C227.966 107.635 228.447 107.456 228.744 107.096C229.044 106.733 229.195 106.149 229.195 105.344V105.139C229.195 104.229 229.042 103.581 228.738 103.194C228.437 102.803 227.954 102.608 227.29 102.608C226.72 102.608 226.283 102.831 225.978 103.276C225.677 103.718 225.527 104.343 225.527 105.151C225.527 105.971 225.677 106.591 225.978 107.009C226.279 107.427 226.72 107.635 227.302 107.635ZM235.152 108.45C234.734 108.45 234.351 108.374 234.004 108.221C233.66 108.065 233.371 107.827 233.136 107.507H233.066C233.113 107.882 233.136 108.237 233.136 108.573V111.216H232.164V101.911H232.955L233.089 102.79H233.136C233.386 102.438 233.677 102.184 234.009 102.028C234.341 101.872 234.722 101.794 235.152 101.794C236.004 101.794 236.66 102.085 237.121 102.667C237.586 103.249 237.818 104.065 237.818 105.116C237.818 106.171 237.582 106.991 237.109 107.577C236.64 108.159 235.988 108.45 235.152 108.45ZM235.011 102.62C234.355 102.62 233.88 102.802 233.588 103.165C233.295 103.528 233.144 104.106 233.136 104.899V105.116C233.136 106.018 233.287 106.665 233.588 107.055C233.888 107.442 234.371 107.635 235.035 107.635C235.589 107.635 236.023 107.411 236.336 106.962C236.652 106.512 236.81 105.893 236.81 105.104C236.81 104.303 236.652 103.69 236.336 103.264C236.023 102.835 235.582 102.62 235.011 102.62Z" fill="#252A2E"/>
<path d="M118 117.667V65.6667H256.777V75.7638L264 83.3367L256.777 90.4046V117.667H118Z" stroke="#CCCCCC"/>
<path d="M288.777 96.6667H287.67V89.5437C287.67 88.9513 287.688 88.3907 287.725 87.8621C287.629 87.9578 287.522 88.058 287.403 88.1628C287.285 88.2677 286.743 88.712 285.776 89.4958L285.175 88.7166L287.82 86.6726H288.777V96.6667ZM292.617 92.3943C292.617 90.4301 292.998 88.9626 293.759 87.9919C294.524 87.0167 295.655 86.5291 297.149 86.5291C297.664 86.5291 298.07 86.5723 298.366 86.6589V87.6365C298.015 87.5225 297.614 87.4656 297.163 87.4656C296.092 87.4656 295.274 87.8005 294.709 88.4705C294.144 89.1358 293.834 90.184 293.779 91.615H293.861C294.363 90.8311 295.156 90.4392 296.24 90.4392C297.138 90.4392 297.844 90.7104 298.359 91.2527C298.879 91.795 299.139 92.531 299.139 93.4607C299.139 94.4998 298.854 95.3178 298.284 95.9148C297.719 96.5072 296.953 96.8035 295.987 96.8035C294.953 96.8035 294.133 96.4161 293.526 95.6414C292.92 94.8621 292.617 93.7797 292.617 92.3943ZM295.974 95.8396C296.621 95.8396 297.122 95.6368 297.478 95.2312C297.838 94.821 298.018 94.2309 298.018 93.4607C298.018 92.7999 297.851 92.2804 297.519 91.9021C297.186 91.5238 296.689 91.3347 296.028 91.3347C295.618 91.3347 295.242 91.419 294.9 91.5876C294.559 91.7563 294.285 91.9887 294.08 92.2849C293.88 92.5811 293.779 92.8888 293.779 93.2078C293.779 93.6772 293.87 94.1147 294.053 94.5203C294.235 94.9259 294.493 95.2472 294.825 95.4841C295.162 95.7211 295.545 95.8396 295.974 95.8396ZM306.048 95.6619H305.986C305.462 96.4229 304.678 96.8035 303.635 96.8035C302.655 96.8035 301.892 96.4685 301.345 95.7986C300.802 95.1287 300.531 94.1762 300.531 92.9412C300.531 91.7061 300.805 90.7468 301.352 90.0632C301.898 89.3796 302.66 89.0378 303.635 89.0378C304.651 89.0378 305.43 89.407 305.973 90.1453H306.062L306.014 89.6052L305.986 89.0789V86.03H307.121V96.6667H306.198L306.048 95.6619ZM303.778 95.8533C304.553 95.8533 305.114 95.6436 305.46 95.2244C305.811 94.8005 305.986 94.1192 305.986 93.1804V92.9412C305.986 91.8793 305.809 91.1228 305.453 90.6716C305.102 90.2159 304.539 89.988 303.765 89.988C303.099 89.988 302.589 90.2478 302.233 90.7673C301.883 91.2823 301.707 92.0115 301.707 92.9548C301.707 93.9119 301.883 94.6342 302.233 95.1218C302.584 95.6095 303.099 95.8533 303.778 95.8533ZM312.937 96.8035C312.449 96.8035 312.002 96.7146 311.597 96.5369C311.196 96.3546 310.858 96.0766 310.585 95.7029H310.503C310.558 96.1404 310.585 96.5551 310.585 96.947V100.03H309.45V89.1746H310.373L310.53 90.2H310.585C310.877 89.7898 311.216 89.4936 311.604 89.3113C311.991 89.129 312.435 89.0378 312.937 89.0378C313.93 89.0378 314.696 89.3774 315.233 90.0564C315.776 90.7354 316.047 91.6879 316.047 92.9138C316.047 94.1443 315.771 95.1013 315.22 95.7849C314.673 96.4639 313.912 96.8035 312.937 96.8035ZM312.772 90.0017C312.007 90.0017 311.453 90.2136 311.111 90.6375C310.77 91.0613 310.594 91.7358 310.585 92.6609V92.9138C310.585 93.9666 310.76 94.7208 311.111 95.1765C311.462 95.6277 312.025 95.8533 312.8 95.8533C313.447 95.8533 313.953 95.5912 314.317 95.0671C314.687 94.5431 314.871 93.8207 314.871 92.9001C314.871 91.9659 314.687 91.2504 314.317 90.7537C313.953 90.2524 313.438 90.0017 312.772 90.0017Z" fill="#E8178A"/>
<g clip-path="url(#clip0_261_60784)">
<g clip-path="url(#clip1_261_60784)">
<rect x="326.833" y="67.6667" width="374" height="48" rx="4" fill="white"/>
<path d="M347.283 96.6667H346.121V87.7048H342.956V86.6726H350.448V87.7048H347.283V96.6667ZM355.203 96.8035C354.096 96.8035 353.221 96.4662 352.578 95.7917C351.94 95.1173 351.621 94.1807 351.621 92.9822C351.621 91.7745 351.917 90.8152 352.51 90.1042C353.107 89.3933 353.907 89.0378 354.909 89.0378C355.848 89.0378 356.591 89.3477 357.138 89.9675C357.685 90.5828 357.958 91.3962 357.958 92.408V93.1257H352.797C352.82 94.0053 353.041 94.6729 353.46 95.1287C353.884 95.5844 354.479 95.8123 355.244 95.8123C356.051 95.8123 356.848 95.6436 357.637 95.3064V96.3181C357.236 96.4913 356.855 96.6143 356.495 96.6873C356.14 96.7647 355.709 96.8035 355.203 96.8035ZM354.896 89.988C354.294 89.988 353.813 90.184 353.453 90.5759C353.098 90.9679 352.888 91.5102 352.824 92.2029H356.741C356.741 91.4874 356.582 90.9405 356.263 90.5623C355.944 90.1794 355.488 89.988 354.896 89.988ZM361.954 92.8318L359.35 89.1746H360.642L362.617 92.0457L364.586 89.1746H365.864L363.26 92.8318L366.001 96.6667H364.716L362.617 93.6316L360.498 96.6667H359.213L361.954 92.8318ZM370.161 95.8669C370.362 95.8669 370.555 95.8533 370.742 95.8259C370.929 95.794 371.077 95.7621 371.187 95.7302V96.5984C371.063 96.6576 370.881 96.7055 370.64 96.7419C370.403 96.783 370.188 96.8035 369.997 96.8035C368.548 96.8035 367.823 96.0401 367.823 94.5134V90.0564H366.75V89.5095L367.823 89.0378L368.302 87.4382H368.958V89.1746H371.132V90.0564H368.958V94.4656C368.958 94.9167 369.065 95.2631 369.279 95.5046C369.493 95.7462 369.787 95.8669 370.161 95.8669ZM376.998 96.6667V86.6726H378.16V96.6667H376.998ZM386.114 96.6667V91.8201C386.114 91.2094 385.975 90.7537 385.697 90.4529C385.419 90.1521 384.984 90.0017 384.392 90.0017C383.608 90.0017 383.034 90.2136 382.669 90.6375C382.304 91.0613 382.122 91.7608 382.122 92.7361V96.6667H380.987V89.1746H381.91L382.095 90.2H382.149C382.382 89.8308 382.708 89.546 383.127 89.3455C383.546 89.1404 384.013 89.0378 384.528 89.0378C385.431 89.0378 386.11 89.2566 386.565 89.6941C387.021 90.127 387.249 90.822 387.249 91.7791V96.6667H386.114ZM393.323 96.8035C392.836 96.8035 392.389 96.7146 391.983 96.5369C391.582 96.3546 391.245 96.0766 390.972 95.7029H390.89C390.944 96.1404 390.972 96.5551 390.972 96.947V100.03H389.837V89.1746H390.76L390.917 90.2H390.972C391.263 89.7898 391.603 89.4936 391.99 89.3113C392.378 89.129 392.822 89.0378 393.323 89.0378C394.317 89.0378 395.082 89.3774 395.62 90.0564C396.162 90.7354 396.434 91.6879 396.434 92.9138C396.434 94.1443 396.158 95.1013 395.606 95.7849C395.06 96.4639 394.299 96.8035 393.323 96.8035ZM393.159 90.0017C392.394 90.0017 391.84 90.2136 391.498 90.6375C391.156 91.0613 390.981 91.7358 390.972 92.6609V92.9138C390.972 93.9666 391.147 94.7208 391.498 95.1765C391.849 95.6277 392.412 95.8533 393.187 95.8533C393.834 95.8533 394.34 95.5912 394.704 95.0671C395.073 94.5431 395.258 93.8207 395.258 92.9001C395.258 91.9659 395.073 91.2504 394.704 90.7537C394.34 90.2524 393.825 90.0017 393.159 90.0017ZM399.739 89.1746V94.0349C399.739 94.6456 399.878 95.1013 400.156 95.4021C400.434 95.7029 400.869 95.8533 401.462 95.8533C402.246 95.8533 402.818 95.6391 403.178 95.2107C403.542 94.7823 403.725 94.0828 403.725 93.1121V89.1746H404.859V96.6667H403.923L403.759 95.6619H403.697C403.465 96.031 403.141 96.3136 402.727 96.5095C402.316 96.7055 401.847 96.8035 401.318 96.8035C400.407 96.8035 399.723 96.587 399.268 96.1541C398.816 95.7211 398.591 95.0284 398.591 94.0759V89.1746H399.739ZM409.942 95.8669C410.143 95.8669 410.337 95.8533 410.523 95.8259C410.71 95.794 410.858 95.7621 410.968 95.7302V96.5984C410.845 96.6576 410.662 96.7055 410.421 96.7419C410.184 96.783 409.97 96.8035 409.778 96.8035C408.329 96.8035 407.604 96.0401 407.604 94.5134V90.0564H406.531V89.5095L407.604 89.0378L408.083 87.4382H408.739V89.1746H410.913V90.0564H408.739V94.4656C408.739 94.9167 408.846 95.2631 409.061 95.5046C409.275 95.7462 409.569 95.8669 409.942 95.8669Z" fill="#90939F"/>
</g>
<rect x="327.333" y="68.1667" width="373" height="47" rx="3.5" stroke="#464B52"/>
</g>
<rect x="326.333" y="67.1667" width="375" height="49" stroke="#FF00FF" stroke-dasharray="2 2"/>
<rect x="327" y="67.6667" width="16" height="48" fill="#EB3499" fill-opacity="0.4"/>
<rect x="685" y="67.6667" width="16" height="48" fill="#EB3499" fill-opacity="0.4"/>
<path d="M715.777 97H714.67V89.877C714.67 89.2845 714.688 88.724 714.725 88.1953C714.629 88.291 714.522 88.3913 714.403 88.4961C714.285 88.6009 713.743 89.0452 712.776 89.8291L712.175 89.0498L714.82 87.0059H715.777V97ZM719.617 92.7275C719.617 90.7633 719.998 89.2959 720.759 88.3252C721.524 87.3499 722.655 86.8623 724.149 86.8623C724.664 86.8623 725.07 86.9056 725.366 86.9922V87.9697C725.015 87.8558 724.614 87.7988 724.163 87.7988C723.092 87.7988 722.274 88.1338 721.709 88.8037C721.144 89.4691 720.834 90.5173 720.779 91.9482H720.861C721.363 91.1644 722.156 90.7725 723.24 90.7725C724.138 90.7725 724.844 91.0436 725.359 91.5859C725.879 92.1283 726.139 92.8643 726.139 93.7939C726.139 94.833 725.854 95.651 725.284 96.248C724.719 96.8405 723.953 97.1367 722.987 97.1367C721.953 97.1367 721.133 96.7493 720.526 95.9746C719.92 95.1953 719.617 94.113 719.617 92.7275ZM722.974 96.1729C723.621 96.1729 724.122 95.9701 724.478 95.5645C724.838 95.1543 725.018 94.5641 725.018 93.7939C725.018 93.1331 724.851 92.6136 724.519 92.2354C724.186 91.8571 723.689 91.668 723.028 91.668C722.618 91.668 722.242 91.7523 721.9 91.9209C721.559 92.0895 721.285 92.3219 721.08 92.6182C720.88 92.9144 720.779 93.222 720.779 93.541C720.779 94.0104 720.87 94.4479 721.053 94.8535C721.235 95.2591 721.493 95.5804 721.825 95.8174C722.162 96.0544 722.545 96.1729 722.974 96.1729ZM733.048 95.9951H732.986C732.462 96.7562 731.678 97.1367 730.635 97.1367C729.655 97.1367 728.892 96.8018 728.345 96.1318C727.802 95.4619 727.531 94.5094 727.531 93.2744C727.531 92.0394 727.805 91.0801 728.352 90.3965C728.898 89.7129 729.66 89.3711 730.635 89.3711C731.651 89.3711 732.43 89.7402 732.973 90.4785H733.062L733.014 89.9385L732.986 89.4121V86.3633H734.121V97H733.198L733.048 95.9951ZM730.778 96.1865C731.553 96.1865 732.114 95.9769 732.46 95.5576C732.811 95.1338 732.986 94.4525 732.986 93.5137V93.2744C732.986 92.2126 732.809 91.4561 732.453 91.0049C732.102 90.5492 731.539 90.3213 730.765 90.3213C730.099 90.3213 729.589 90.5811 729.233 91.1006C728.883 91.6156 728.707 92.3447 728.707 93.2881C728.707 94.2451 728.883 94.9674 729.233 95.4551C729.584 95.9427 730.099 96.1865 730.778 96.1865ZM739.937 97.1367C739.449 97.1367 739.002 97.0479 738.597 96.8701C738.196 96.6878 737.858 96.4098 737.585 96.0361H737.503C737.558 96.4736 737.585 96.8883 737.585 97.2803V100.363H736.45V89.5078H737.373L737.53 90.5332H737.585C737.877 90.123 738.216 89.8268 738.604 89.6445C738.991 89.4622 739.435 89.3711 739.937 89.3711C740.93 89.3711 741.696 89.7106 742.233 90.3896C742.776 91.0687 743.047 92.0212 743.047 93.2471C743.047 94.4775 742.771 95.4346 742.22 96.1182C741.673 96.7972 740.912 97.1367 739.937 97.1367ZM739.772 90.335C739.007 90.335 738.453 90.5469 738.111 90.9707C737.77 91.3945 737.594 92.069 737.585 92.9941V93.2471C737.585 94.2998 737.76 95.054 738.111 95.5098C738.462 95.9609 739.025 96.1865 739.8 96.1865C740.447 96.1865 740.953 95.9245 741.317 95.4004C741.687 94.8763 741.871 94.154 741.871 93.2334C741.871 92.2992 741.687 91.5837 741.317 91.0869C740.953 90.5856 740.438 90.335 739.772 90.335Z" fill="#E8178A"/>
<path d="M744 67.6667H753V115.667H744" stroke="#4091D2"/>
<path d="M767.017 94.9287H765.813V97H763.749V94.9287H759.483V93.459L763.865 87.0059H765.813V93.2881H767.017V94.9287ZM763.749 93.2881V91.5928C763.749 91.3102 763.76 90.9001 763.783 90.3623C763.806 89.8245 763.824 89.5124 763.838 89.4258H763.783C763.615 89.7995 763.412 90.1641 763.175 90.5195L761.343 93.2881H763.749ZM771.164 86.876C772.121 86.876 772.891 87.0947 773.475 87.5322C774.062 87.9652 774.356 88.5508 774.356 89.2891C774.356 89.7995 774.215 90.2552 773.933 90.6562C773.65 91.0527 773.194 91.4082 772.565 91.7227C773.313 92.1237 773.848 92.543 774.172 92.9805C774.5 93.4134 774.664 93.8896 774.664 94.4092C774.664 95.2295 774.343 95.8903 773.7 96.3916C773.058 96.8883 772.212 97.1367 771.164 97.1367C770.07 97.1367 769.211 96.9043 768.587 96.4395C767.963 95.9746 767.65 95.3161 767.65 94.4639C767.65 93.8942 767.801 93.3883 768.102 92.9463C768.407 92.5042 768.895 92.1146 769.564 91.7773C768.995 91.4173 768.585 91.0322 768.334 90.6221C768.083 90.2119 767.958 89.763 767.958 89.2754C767.958 88.5599 768.254 87.9811 768.847 87.5391C769.439 87.097 770.212 86.876 771.164 86.876ZM769.605 94.3408C769.605 94.7327 769.742 95.0381 770.016 95.2568C770.289 95.4756 770.663 95.585 771.137 95.585C771.661 95.585 772.053 95.4733 772.312 95.25C772.572 95.0221 772.702 94.7236 772.702 94.3545C772.702 94.0492 772.572 93.7643 772.312 93.5C772.057 93.2311 771.64 92.9463 771.062 92.6455C770.091 93.0921 769.605 93.6572 769.605 94.3408ZM771.15 88.4209C770.79 88.4209 770.499 88.5143 770.275 88.7012C770.057 88.8835 769.947 89.1296 769.947 89.4395C769.947 89.7129 770.034 89.959 770.207 90.1777C770.385 90.3919 770.704 90.613 771.164 90.8408C771.611 90.6312 771.923 90.417 772.101 90.1982C772.278 89.9795 772.367 89.7266 772.367 89.4395C772.367 89.125 772.253 88.8766 772.025 88.6943C771.798 88.512 771.506 88.4209 771.15 88.4209ZM778.586 97.1367C777.688 97.1367 776.982 96.7881 776.467 96.0908C775.956 95.3936 775.701 94.4274 775.701 93.1924C775.701 91.9391 775.961 90.9639 776.48 90.2666C777.005 89.5648 777.725 89.2139 778.641 89.2139C779.602 89.2139 780.336 89.5876 780.842 90.335H780.91C780.805 89.7653 780.753 89.2572 780.753 88.8105V86.3633H782.845V97H781.245L780.842 96.0088H780.753C780.279 96.7607 779.557 97.1367 778.586 97.1367ZM779.317 95.4756C779.851 95.4756 780.24 95.3206 780.486 95.0107C780.737 94.7008 780.874 94.1745 780.896 93.4316V93.2061C780.896 92.3857 780.769 91.7979 780.514 91.4424C780.263 91.0869 779.853 90.9092 779.283 90.9092C778.818 90.9092 778.456 91.1074 778.196 91.5039C777.941 91.8958 777.813 92.4678 777.813 93.2197C777.813 93.9717 777.943 94.5368 778.203 94.915C778.463 95.2887 778.834 95.4756 779.317 95.4756ZM789.139 97.1367C788.241 97.1367 787.537 96.8109 787.026 96.1592H786.917C786.99 96.7972 787.026 97.1663 787.026 97.2666V100.363H784.941V89.3574H786.637L786.931 90.3486H787.026C787.514 89.5921 788.236 89.2139 789.193 89.2139C790.096 89.2139 790.802 89.5625 791.312 90.2598C791.823 90.957 792.078 91.9255 792.078 93.165C792.078 93.9808 791.957 94.6895 791.716 95.291C791.479 95.8926 791.139 96.3506 790.697 96.665C790.255 96.9795 789.736 97.1367 789.139 97.1367ZM788.523 90.8818C788.008 90.8818 787.632 91.0413 787.395 91.3604C787.158 91.6748 787.035 92.1966 787.026 92.9258V93.1514C787.026 93.9717 787.147 94.5596 787.389 94.915C787.635 95.2705 788.022 95.4482 788.551 95.4482C789.485 95.4482 789.952 94.6781 789.952 93.1377C789.952 92.3857 789.836 91.8229 789.603 91.4492C789.376 91.071 789.016 90.8818 788.523 90.8818Z" fill="#4091D2"/>
<rect width="707.244" height="110.667" transform="translate(102 142.333)" fill="white"/>
<path d="M131.698 194.333H129.911V185.766H134.821V187.254H131.698V189.463H134.604V190.946H131.698V194.333ZM137.708 191.045C137.708 191.694 137.814 192.184 138.025 192.516C138.24 192.848 138.587 193.014 139.068 193.014C139.544 193.014 139.886 192.85 140.093 192.522C140.304 192.19 140.409 191.698 140.409 191.045C140.409 190.397 140.304 189.911 140.093 189.586C139.882 189.262 139.536 189.1 139.056 189.1C138.579 189.1 138.236 189.262 138.025 189.586C137.814 189.907 137.708 190.393 137.708 191.045ZM142.238 191.045C142.238 192.112 141.956 192.946 141.394 193.547C140.831 194.149 140.048 194.45 139.044 194.45C138.415 194.45 137.861 194.313 137.38 194.04C136.9 193.762 136.531 193.366 136.273 192.85C136.015 192.334 135.886 191.733 135.886 191.045C135.886 189.975 136.165 189.143 136.724 188.549C137.282 187.956 138.068 187.659 139.079 187.659C139.708 187.659 140.263 187.795 140.743 188.069C141.224 188.342 141.593 188.735 141.851 189.247C142.109 189.758 142.238 190.358 142.238 191.045ZM146.302 194.45C144.263 194.45 143.244 193.331 143.244 191.092C143.244 189.979 143.521 189.129 144.076 188.543C144.63 187.954 145.425 187.659 146.46 187.659C147.218 187.659 147.898 187.807 148.5 188.104L147.972 189.487C147.691 189.374 147.429 189.282 147.187 189.211C146.945 189.137 146.703 189.1 146.46 189.1C145.531 189.1 145.066 189.76 145.066 191.081C145.066 192.362 145.531 193.002 146.46 193.002C146.804 193.002 147.123 192.958 147.416 192.868C147.709 192.774 148.002 192.629 148.294 192.434V193.963C148.005 194.147 147.712 194.274 147.416 194.344C147.123 194.415 146.752 194.45 146.302 194.45ZM154.387 194.333L154.146 193.495H154.053C153.861 193.799 153.59 194.036 153.238 194.204C152.887 194.368 152.486 194.45 152.037 194.45C151.267 194.45 150.687 194.245 150.297 193.834C149.906 193.42 149.711 192.827 149.711 192.053V187.782H151.498V191.608C151.498 192.081 151.582 192.436 151.75 192.674C151.918 192.909 152.185 193.026 152.553 193.026C153.053 193.026 153.414 192.86 153.637 192.528C153.859 192.192 153.971 191.637 153.971 190.864V187.782H155.758V194.333H154.387ZM162.131 192.387C162.131 193.059 161.897 193.571 161.428 193.922C160.963 194.274 160.266 194.45 159.336 194.45C158.859 194.45 158.453 194.417 158.117 194.35C157.781 194.288 157.467 194.194 157.174 194.069V192.592C157.506 192.749 157.879 192.879 158.293 192.985C158.711 193.09 159.078 193.143 159.395 193.143C160.043 193.143 160.367 192.956 160.367 192.581C160.367 192.44 160.324 192.327 160.238 192.241C160.152 192.151 160.004 192.051 159.793 191.942C159.582 191.829 159.301 191.698 158.949 191.549C158.445 191.338 158.074 191.143 157.836 190.963C157.602 190.784 157.43 190.579 157.32 190.348C157.215 190.114 157.162 189.827 157.162 189.487C157.162 188.905 157.387 188.456 157.836 188.139C158.289 187.819 158.93 187.659 159.758 187.659C160.547 187.659 161.315 187.831 162.061 188.174L161.522 189.463C161.193 189.323 160.887 189.208 160.602 189.118C160.316 189.028 160.025 188.983 159.729 188.983C159.201 188.983 158.938 189.125 158.938 189.411C158.938 189.571 159.022 189.709 159.19 189.827C159.361 189.944 159.734 190.118 160.309 190.348C160.82 190.555 161.195 190.749 161.434 190.928C161.672 191.108 161.848 191.315 161.961 191.549C162.074 191.784 162.131 192.063 162.131 192.387ZM166.639 194.333V185.766H168.456V192.833H171.93V194.333H166.639ZM173.136 186.088C173.136 185.506 173.46 185.215 174.108 185.215C174.757 185.215 175.081 185.506 175.081 186.088C175.081 186.366 174.999 186.583 174.835 186.739C174.675 186.891 174.433 186.967 174.108 186.967C173.46 186.967 173.136 186.674 173.136 186.088ZM174.999 194.333H173.212V187.782H174.999V194.333ZM182.855 194.333H181.068V190.506C181.068 190.034 180.984 189.68 180.816 189.446C180.648 189.208 180.38 189.088 180.013 189.088C179.513 189.088 179.152 189.256 178.929 189.592C178.706 189.924 178.595 190.477 178.595 191.25V194.333H176.808V187.782H178.173L178.413 188.62H178.513C178.712 188.303 178.986 188.065 179.333 187.905C179.685 187.741 180.083 187.659 180.528 187.659C181.29 187.659 181.868 187.866 182.263 188.28C182.657 188.69 182.855 189.284 182.855 190.061V194.333ZM187.335 188.93C186.956 188.93 186.66 189.051 186.445 189.293C186.23 189.532 186.107 189.872 186.076 190.313H188.583C188.576 189.872 188.46 189.532 188.238 189.293C188.015 189.051 187.714 188.93 187.335 188.93ZM187.587 194.45C186.533 194.45 185.708 194.159 185.115 193.577C184.521 192.995 184.224 192.17 184.224 191.104C184.224 190.006 184.498 189.159 185.044 188.561C185.595 187.959 186.355 187.659 187.324 187.659C188.249 187.659 188.97 187.922 189.486 188.45C190.001 188.977 190.259 189.706 190.259 190.635V191.502H186.035C186.054 192.01 186.205 192.407 186.486 192.692C186.767 192.977 187.162 193.12 187.669 193.12C188.064 193.12 188.437 193.079 188.789 192.997C189.14 192.915 189.507 192.784 189.89 192.604V193.987C189.578 194.143 189.244 194.258 188.888 194.333C188.533 194.411 188.099 194.45 187.587 194.45ZM199.643 187.782C199.643 188.329 199.488 188.776 199.18 189.124C198.875 189.471 198.441 189.704 197.879 189.821V189.868C198.566 189.954 199.076 190.172 199.408 190.524C199.74 190.875 199.906 191.336 199.906 191.907C199.906 192.723 199.623 193.352 199.057 193.793C198.49 194.231 197.686 194.45 196.643 194.45C196.189 194.45 195.773 194.415 195.395 194.344C195.02 194.278 194.654 194.159 194.299 193.987V193.061C194.67 193.245 195.064 193.385 195.482 193.483C195.904 193.577 196.303 193.624 196.678 193.624C198.158 193.624 198.898 193.043 198.898 191.883C198.898 190.844 198.082 190.325 196.449 190.325H195.605V189.487H196.461C197.129 189.487 197.658 189.34 198.049 189.047C198.439 188.75 198.635 188.34 198.635 187.817C198.635 187.399 198.49 187.071 198.201 186.833C197.916 186.594 197.527 186.475 197.035 186.475C196.66 186.475 196.307 186.526 195.975 186.627C195.643 186.729 195.264 186.917 194.838 187.19L194.346 186.534C194.697 186.256 195.102 186.04 195.559 185.883C196.02 185.723 196.504 185.643 197.012 185.643C197.844 185.643 198.49 185.834 198.951 186.217C199.412 186.596 199.643 187.118 199.643 187.782ZM205.946 193.471H205.893C205.444 194.124 204.772 194.45 203.877 194.45C203.037 194.45 202.383 194.163 201.914 193.588C201.449 193.014 201.217 192.198 201.217 191.139C201.217 190.081 201.451 189.258 201.92 188.672C202.389 188.086 203.041 187.793 203.877 187.793C204.748 187.793 205.416 188.11 205.881 188.743H205.957L205.916 188.28L205.893 187.829V185.215H206.865V194.333H206.074L205.946 193.471ZM204 193.635C204.664 193.635 205.145 193.456 205.442 193.096C205.742 192.733 205.893 192.149 205.893 191.344V191.139C205.893 190.229 205.74 189.581 205.436 189.194C205.135 188.803 204.653 188.608 203.989 188.608C203.418 188.608 202.981 188.831 202.676 189.276C202.375 189.717 202.225 190.342 202.225 191.151C202.225 191.971 202.375 192.59 202.676 193.008C202.977 193.426 203.418 193.635 204 193.635ZM211.85 194.45C211.432 194.45 211.049 194.374 210.702 194.221C210.358 194.065 210.069 193.827 209.835 193.506H209.764C209.811 193.881 209.835 194.237 209.835 194.573V197.215H208.862V187.911H209.653L209.788 188.79H209.835C210.085 188.438 210.376 188.184 210.708 188.028C211.04 187.872 211.42 187.793 211.85 187.793C212.702 187.793 213.358 188.084 213.819 188.667C214.284 189.249 214.516 190.065 214.516 191.116C214.516 192.17 214.28 192.991 213.807 193.577C213.338 194.159 212.686 194.45 211.85 194.45ZM211.71 188.62C211.053 188.62 210.579 188.801 210.286 189.165C209.993 189.528 209.842 190.106 209.835 190.899V191.116C209.835 192.018 209.985 192.665 210.286 193.055C210.586 193.442 211.069 193.635 211.733 193.635C212.288 193.635 212.721 193.411 213.034 192.961C213.35 192.512 213.508 191.893 213.508 191.104C213.508 190.303 213.35 189.69 213.034 189.264C212.721 188.834 212.28 188.62 211.71 188.62ZM129.911 205.766H132.577C133.792 205.766 134.673 205.94 135.22 206.288C135.771 206.631 136.046 207.18 136.046 207.934C136.046 208.446 135.925 208.866 135.683 209.194C135.444 209.522 135.126 209.719 134.728 209.786V209.844C135.271 209.965 135.661 210.192 135.899 210.524C136.142 210.856 136.263 211.297 136.263 211.848C136.263 212.629 135.979 213.239 135.413 213.676C134.851 214.114 134.085 214.333 133.116 214.333H129.911V205.766ZM131.728 209.159H132.782C133.274 209.159 133.63 209.083 133.849 208.93C134.071 208.778 134.183 208.526 134.183 208.174C134.183 207.846 134.062 207.612 133.819 207.471C133.581 207.327 133.202 207.254 132.683 207.254H131.728V209.159ZM131.728 210.6V212.833H132.911C133.411 212.833 133.78 212.737 134.019 212.545C134.257 212.354 134.376 212.061 134.376 211.667C134.376 210.956 133.868 210.6 132.853 210.6H131.728ZM139.185 211.045C139.185 211.694 139.29 212.184 139.501 212.516C139.716 212.848 140.064 213.014 140.544 213.014C141.021 213.014 141.363 212.85 141.57 212.522C141.781 212.19 141.886 211.698 141.886 211.045C141.886 210.397 141.781 209.911 141.57 209.586C141.359 209.262 141.013 209.1 140.532 209.1C140.056 209.1 139.712 209.262 139.501 209.586C139.29 209.907 139.185 210.393 139.185 211.045ZM143.714 211.045C143.714 212.112 143.433 212.946 142.87 213.547C142.308 214.149 141.525 214.45 140.521 214.45C139.892 214.45 139.337 214.313 138.857 214.04C138.376 213.762 138.007 213.366 137.749 212.85C137.491 212.334 137.363 211.733 137.363 211.045C137.363 209.975 137.642 209.143 138.2 208.549C138.759 207.956 139.544 207.659 140.556 207.659C141.185 207.659 141.74 207.795 142.22 208.069C142.7 208.342 143.07 208.735 143.327 209.247C143.585 209.758 143.714 210.358 143.714 211.045ZM148.775 207.659C149.017 207.659 149.218 207.676 149.378 207.711L149.244 209.387C149.099 209.348 148.923 209.329 148.716 209.329C148.146 209.329 147.701 209.475 147.38 209.768C147.064 210.061 146.906 210.471 146.906 210.999V214.333H145.119V207.782H146.472L146.736 208.883H146.824C147.027 208.516 147.3 208.221 147.644 207.999C147.992 207.772 148.369 207.659 148.775 207.659ZM152.57 214.45C151.801 214.45 151.195 214.151 150.754 213.553C150.316 212.956 150.097 212.127 150.097 211.069C150.097 209.995 150.32 209.159 150.765 208.561C151.215 207.959 151.832 207.659 152.617 207.659C153.441 207.659 154.07 207.979 154.504 208.62H154.562C154.472 208.131 154.428 207.696 154.428 207.313V205.215H156.221V214.333H154.849L154.504 213.483H154.428C154.021 214.127 153.402 214.45 152.57 214.45ZM153.197 213.026C153.654 213.026 153.988 212.893 154.199 212.627C154.414 212.362 154.531 211.911 154.551 211.274V211.081C154.551 210.377 154.441 209.874 154.222 209.569C154.008 209.264 153.656 209.112 153.168 209.112C152.769 209.112 152.459 209.282 152.236 209.622C152.017 209.958 151.908 210.448 151.908 211.092C151.908 211.737 152.019 212.221 152.242 212.545C152.465 212.866 152.783 213.026 153.197 213.026ZM160.731 208.93C160.352 208.93 160.055 209.051 159.84 209.293C159.625 209.532 159.502 209.872 159.471 210.313H161.979C161.971 209.872 161.856 209.532 161.633 209.293C161.41 209.051 161.109 208.93 160.731 208.93ZM160.983 214.45C159.928 214.45 159.104 214.159 158.51 213.577C157.916 212.995 157.619 212.17 157.619 211.104C157.619 210.006 157.893 209.159 158.44 208.561C158.99 207.959 159.75 207.659 160.719 207.659C161.645 207.659 162.365 207.922 162.881 208.45C163.397 208.977 163.654 209.706 163.654 210.635V211.502H159.43C159.449 212.01 159.6 212.407 159.881 212.692C160.162 212.977 160.557 213.12 161.065 213.12C161.459 213.12 161.832 213.079 162.184 212.997C162.535 212.915 162.902 212.784 163.285 212.604V213.987C162.973 214.143 162.639 214.258 162.283 214.333C161.928 214.411 161.494 214.45 160.983 214.45ZM168.692 207.659C168.934 207.659 169.135 207.676 169.295 207.711L169.161 209.387C169.016 209.348 168.84 209.329 168.633 209.329C168.063 209.329 167.618 209.475 167.297 209.768C166.981 210.061 166.823 210.471 166.823 210.999V214.333H165.036V207.782H166.389L166.653 208.883H166.741C166.944 208.516 167.217 208.221 167.561 207.999C167.909 207.772 168.286 207.659 168.692 207.659ZM169.833 211.848V210.383H172.979V211.848H169.833ZM177.864 207.659C178.106 207.659 178.308 207.676 178.468 207.711L178.333 209.387C178.188 209.348 178.013 209.329 177.806 209.329C177.235 209.329 176.79 209.475 176.47 209.768C176.153 210.061 175.995 210.471 175.995 210.999V214.333H174.208V207.782H175.561L175.825 208.883H175.913C176.116 208.516 176.39 208.221 176.733 207.999C177.081 207.772 177.458 207.659 177.864 207.659ZM183.745 214.333L183.4 213.442H183.353C183.052 213.821 182.741 214.084 182.421 214.233C182.105 214.377 181.691 214.45 181.179 214.45C180.55 214.45 180.054 214.27 179.691 213.911C179.331 213.551 179.152 213.04 179.152 212.375C179.152 211.68 179.394 211.168 179.878 210.84C180.366 210.508 181.101 210.325 182.081 210.29L183.218 210.254V209.967C183.218 209.303 182.878 208.971 182.198 208.971C181.675 208.971 181.06 209.129 180.353 209.446L179.761 208.239C180.515 207.844 181.351 207.647 182.269 207.647C183.148 207.647 183.821 207.838 184.29 208.221C184.759 208.604 184.993 209.186 184.993 209.967V214.333H183.745ZM183.218 211.297L182.527 211.321C182.007 211.336 181.62 211.43 181.366 211.602C181.112 211.774 180.986 212.036 180.986 212.387C180.986 212.891 181.275 213.143 181.853 213.143C182.267 213.143 182.597 213.024 182.843 212.786C183.093 212.547 183.218 212.231 183.218 211.836V211.297ZM188.841 214.45C188.072 214.45 187.466 214.151 187.025 213.553C186.587 212.956 186.369 212.127 186.369 211.069C186.369 209.995 186.591 209.159 187.037 208.561C187.486 207.959 188.103 207.659 188.888 207.659C189.712 207.659 190.341 207.979 190.775 208.62H190.833C190.744 208.131 190.699 207.696 190.699 207.313V205.215H192.492V214.333H191.121L190.775 213.483H190.699C190.292 214.127 189.673 214.45 188.841 214.45ZM189.468 213.026C189.925 213.026 190.259 212.893 190.47 212.627C190.685 212.362 190.802 211.911 190.822 211.274V211.081C190.822 210.377 190.712 209.874 190.494 209.569C190.279 209.264 189.927 209.112 189.439 209.112C189.04 209.112 188.73 209.282 188.507 209.622C188.289 209.958 188.179 210.448 188.179 211.092C188.179 211.737 188.29 212.221 188.513 212.545C188.736 212.866 189.054 213.026 189.468 213.026ZM194.213 206.088C194.213 205.506 194.537 205.215 195.185 205.215C195.834 205.215 196.158 205.506 196.158 206.088C196.158 206.366 196.076 206.583 195.912 206.739C195.752 206.891 195.509 206.967 195.185 206.967C194.537 206.967 194.213 206.674 194.213 206.088ZM196.076 214.333H194.289V207.782H196.076V214.333ZM202.525 214.333L202.285 213.495H202.191C202 213.799 201.729 214.036 201.377 214.204C201.025 214.368 200.625 214.45 200.176 214.45C199.406 214.45 198.826 214.245 198.436 213.834C198.045 213.42 197.85 212.827 197.85 212.053V207.782H199.637V211.608C199.637 212.081 199.721 212.436 199.889 212.674C200.057 212.909 200.324 213.026 200.691 213.026C201.191 213.026 201.553 212.86 201.775 212.528C201.998 212.192 202.109 211.637 202.109 210.864V207.782H203.896V214.333H202.525ZM210.27 212.387C210.27 213.059 210.035 213.571 209.567 213.922C209.102 214.274 208.405 214.45 207.475 214.45C206.998 214.45 206.592 214.417 206.256 214.35C205.92 214.288 205.606 214.194 205.313 214.069V212.592C205.645 212.749 206.018 212.879 206.432 212.985C206.85 213.09 207.217 213.143 207.533 213.143C208.182 213.143 208.506 212.956 208.506 212.581C208.506 212.44 208.463 212.327 208.377 212.241C208.291 212.151 208.143 212.051 207.932 211.942C207.721 211.829 207.44 211.698 207.088 211.549C206.584 211.338 206.213 211.143 205.975 210.963C205.74 210.784 205.569 210.579 205.459 210.348C205.354 210.114 205.301 209.827 205.301 209.487C205.301 208.905 205.526 208.456 205.975 208.139C206.428 207.819 207.069 207.659 207.897 207.659C208.686 207.659 209.453 207.831 210.199 208.174L209.66 209.463C209.332 209.323 209.026 209.208 208.74 209.118C208.455 209.028 208.164 208.983 207.867 208.983C207.34 208.983 207.076 209.125 207.076 209.411C207.076 209.571 207.16 209.709 207.328 209.827C207.5 209.944 207.873 210.118 208.448 210.348C208.959 210.555 209.334 210.749 209.573 210.928C209.811 211.108 209.987 211.315 210.1 211.549C210.213 211.784 210.27 212.063 210.27 212.387ZM211.34 213.495C211.34 213.167 211.428 212.918 211.604 212.75C211.78 212.583 212.036 212.499 212.372 212.499C212.696 212.499 212.946 212.584 213.122 212.756C213.301 212.928 213.391 213.174 213.391 213.495C213.391 213.803 213.301 214.047 213.122 214.227C212.942 214.403 212.692 214.491 212.372 214.491C212.043 214.491 211.79 214.405 211.61 214.233C211.43 214.057 211.34 213.811 211.34 213.495ZM211.34 208.655C211.34 208.327 211.428 208.079 211.604 207.911C211.78 207.743 212.036 207.659 212.372 207.659C212.696 207.659 212.946 207.745 213.122 207.917C213.301 208.088 213.391 208.334 213.391 208.655C213.391 208.971 213.299 209.217 213.116 209.393C212.936 209.565 212.688 209.651 212.372 209.651C212.043 209.651 211.79 209.565 211.61 209.393C211.43 209.221 211.34 208.975 211.34 208.655ZM223.671 212.364H222.399V214.333H221.468V212.364H217.302V211.514L221.368 205.719H222.399V211.479H223.671V212.364ZM221.468 211.479V208.631C221.468 208.073 221.487 207.442 221.526 206.739H221.48C221.292 207.114 221.116 207.424 220.952 207.67L218.274 211.479H221.468ZM229.247 213.471H229.195C228.745 214.124 228.074 214.45 227.179 214.45C226.339 214.45 225.685 214.163 225.216 213.588C224.751 213.014 224.519 212.198 224.519 211.139C224.519 210.081 224.753 209.258 225.222 208.672C225.691 208.086 226.343 207.793 227.179 207.793C228.05 207.793 228.718 208.11 229.183 208.743H229.259L229.218 208.28L229.195 207.829V205.215H230.167V214.333H229.376L229.247 213.471ZM227.302 213.635C227.966 213.635 228.447 213.456 228.744 213.096C229.044 212.733 229.195 212.149 229.195 211.344V211.139C229.195 210.229 229.042 209.581 228.738 209.194C228.437 208.803 227.954 208.608 227.29 208.608C226.72 208.608 226.283 208.831 225.978 209.276C225.677 209.717 225.527 210.342 225.527 211.151C225.527 211.971 225.677 212.59 225.978 213.008C226.279 213.426 226.72 213.635 227.302 213.635ZM235.152 214.45C234.734 214.45 234.351 214.374 234.004 214.221C233.66 214.065 233.371 213.827 233.136 213.506H233.066C233.113 213.881 233.136 214.237 233.136 214.573V217.215H232.164V207.911H232.955L233.089 208.79H233.136C233.386 208.438 233.677 208.184 234.009 208.028C234.341 207.872 234.722 207.793 235.152 207.793C236.004 207.793 236.66 208.084 237.121 208.667C237.586 209.249 237.818 210.065 237.818 211.116C237.818 212.17 237.582 212.991 237.109 213.577C236.64 214.159 235.988 214.45 235.152 214.45ZM235.011 208.62C234.355 208.62 233.88 208.801 233.588 209.165C233.295 209.528 233.144 210.106 233.136 210.899V211.116C233.136 212.018 233.287 212.665 233.588 213.055C233.888 213.442 234.371 213.635 235.035 213.635C235.589 213.635 236.023 213.411 236.336 212.961C236.652 212.512 236.81 211.893 236.81 211.104C236.81 210.303 236.652 209.69 236.336 209.264C236.023 208.834 235.582 208.62 235.011 208.62Z" fill="#252A2E"/>
<path d="M118 223.667V171.667H256.777V181.764L264 189.336L256.777 196.404V223.667H118Z" stroke="#CCCCCC"/>
<path d="M290.777 202.667H289.67V195.543C289.67 194.951 289.688 194.39 289.725 193.862C289.629 193.958 289.522 194.058 289.403 194.163C289.285 194.267 288.743 194.712 287.776 195.496L287.175 194.716L289.82 192.672H290.777V202.667ZM294.617 198.394C294.617 196.43 294.998 194.962 295.759 193.992C296.524 193.016 297.655 192.529 299.149 192.529C299.664 192.529 300.07 192.572 300.366 192.659V193.636C300.015 193.522 299.614 193.465 299.163 193.465C298.092 193.465 297.274 193.8 296.709 194.47C296.144 195.136 295.834 196.184 295.779 197.615H295.861C296.363 196.831 297.156 196.439 298.24 196.439C299.138 196.439 299.844 196.71 300.359 197.252C300.879 197.795 301.139 198.531 301.139 199.46C301.139 200.5 300.854 201.318 300.284 201.915C299.719 202.507 298.953 202.803 297.987 202.803C296.953 202.803 296.133 202.416 295.526 201.641C294.92 200.862 294.617 199.779 294.617 198.394ZM297.974 201.839C298.621 201.839 299.122 201.637 299.478 201.231C299.838 200.821 300.018 200.231 300.018 199.46C300.018 198.8 299.851 198.28 299.519 197.902C299.186 197.524 298.689 197.334 298.028 197.334C297.618 197.334 297.242 197.419 296.9 197.587C296.559 197.756 296.285 197.988 296.08 198.285C295.88 198.581 295.779 198.889 295.779 199.208C295.779 199.677 295.87 200.114 296.053 200.52C296.235 200.926 296.493 201.247 296.825 201.484C297.162 201.721 297.545 201.839 297.974 201.839ZM308.048 201.662H307.986C307.462 202.423 306.678 202.803 305.635 202.803C304.655 202.803 303.892 202.468 303.345 201.798C302.802 201.128 302.531 200.176 302.531 198.941C302.531 197.706 302.805 196.747 303.352 196.063C303.898 195.379 304.66 195.038 305.635 195.038C306.651 195.038 307.43 195.407 307.973 196.145H308.062L308.014 195.605L307.986 195.079V192.03H309.121V202.667H308.198L308.048 201.662ZM305.778 201.853C306.553 201.853 307.114 201.643 307.46 201.224C307.811 200.8 307.986 200.119 307.986 199.18V198.941C307.986 197.879 307.809 197.123 307.453 196.671C307.102 196.216 306.539 195.988 305.765 195.988C305.099 195.988 304.589 196.248 304.233 196.767C303.883 197.282 303.707 198.011 303.707 198.955C303.707 199.912 303.883 200.634 304.233 201.122C304.584 201.609 305.099 201.853 305.778 201.853ZM314.937 202.803C314.449 202.803 314.002 202.714 313.597 202.537C313.196 202.354 312.858 202.076 312.585 201.703H312.503C312.558 202.14 312.585 202.555 312.585 202.947V206.03H311.45V195.174H312.373L312.53 196.2H312.585C312.877 195.79 313.216 195.493 313.604 195.311C313.991 195.129 314.435 195.038 314.937 195.038C315.93 195.038 316.696 195.377 317.233 196.056C317.776 196.735 318.047 197.688 318.047 198.914C318.047 200.144 317.771 201.101 317.22 201.785C316.673 202.464 315.912 202.803 314.937 202.803ZM314.772 196.001C314.007 196.001 313.453 196.213 313.111 196.637C312.77 197.061 312.594 197.736 312.585 198.661V198.914C312.585 199.966 312.76 200.721 313.111 201.176C313.462 201.627 314.025 201.853 314.8 201.853C315.447 201.853 315.953 201.591 316.317 201.067C316.687 200.543 316.871 199.82 316.871 198.9C316.871 197.966 316.687 197.25 316.317 196.753C315.953 196.252 315.438 196.001 314.772 196.001Z" fill="white"/>
<g clip-path="url(#clip2_261_60784)">
<g clip-path="url(#clip3_261_60784)">
<rect x="330.833" y="173.667" width="374" height="48" rx="4" fill="white"/>
<path d="M351.283 202.667H350.121V193.705H346.956V192.672H354.448V193.705H351.283V202.667ZM359.203 202.803C358.096 202.803 357.221 202.466 356.578 201.792C355.94 201.117 355.621 200.181 355.621 198.982C355.621 197.774 355.917 196.815 356.51 196.104C357.107 195.393 357.907 195.038 358.909 195.038C359.848 195.038 360.591 195.347 361.138 195.967C361.685 196.583 361.958 197.396 361.958 198.408V199.125H356.797C356.82 200.005 357.041 200.673 357.46 201.128C357.884 201.584 358.479 201.812 359.244 201.812C360.051 201.812 360.848 201.643 361.637 201.306V202.318C361.236 202.491 360.855 202.614 360.495 202.687C360.14 202.764 359.709 202.803 359.203 202.803ZM358.896 195.988C358.294 195.988 357.813 196.184 357.453 196.576C357.098 196.968 356.888 197.51 356.824 198.203H360.741C360.741 197.487 360.582 196.94 360.263 196.562C359.944 196.179 359.488 195.988 358.896 195.988ZM365.954 198.832L363.35 195.174H364.642L366.617 198.045L368.586 195.174H369.864L367.26 198.832L370.001 202.667H368.716L366.617 199.631L364.498 202.667H363.213L365.954 198.832ZM374.161 201.867C374.362 201.867 374.555 201.853 374.742 201.826C374.929 201.794 375.077 201.762 375.187 201.73V202.598C375.063 202.657 374.881 202.705 374.64 202.742C374.403 202.783 374.188 202.803 373.997 202.803C372.548 202.803 371.823 202.04 371.823 200.513V196.056H370.75V195.509L371.823 195.038L372.302 193.438H372.958V195.174H375.132V196.056H372.958V200.465C372.958 200.917 373.065 201.263 373.279 201.504C373.493 201.746 373.787 201.867 374.161 201.867ZM380.998 202.667V192.672H382.16V202.667H380.998ZM390.114 202.667V197.82C390.114 197.209 389.975 196.753 389.697 196.453C389.419 196.152 388.984 196.001 388.392 196.001C387.608 196.001 387.034 196.213 386.669 196.637C386.304 197.061 386.122 197.761 386.122 198.736V202.667H384.987V195.174H385.91L386.095 196.2H386.149C386.382 195.831 386.708 195.546 387.127 195.345C387.546 195.14 388.013 195.038 388.528 195.038C389.431 195.038 390.11 195.256 390.565 195.694C391.021 196.127 391.249 196.822 391.249 197.779V202.667H390.114ZM397.323 202.803C396.836 202.803 396.389 202.714 395.983 202.537C395.582 202.354 395.245 202.076 394.972 201.703H394.89C394.944 202.14 394.972 202.555 394.972 202.947V206.03H393.837V195.174H394.76L394.917 196.2H394.972C395.263 195.79 395.603 195.493 395.99 195.311C396.378 195.129 396.822 195.038 397.323 195.038C398.317 195.038 399.082 195.377 399.62 196.056C400.162 196.735 400.434 197.688 400.434 198.914C400.434 200.144 400.158 201.101 399.606 201.785C399.06 202.464 398.299 202.803 397.323 202.803ZM397.159 196.001C396.394 196.001 395.84 196.213 395.498 196.637C395.156 197.061 394.981 197.736 394.972 198.661V198.914C394.972 199.966 395.147 200.721 395.498 201.176C395.849 201.627 396.412 201.853 397.187 201.853C397.834 201.853 398.34 201.591 398.704 201.067C399.073 200.543 399.258 199.82 399.258 198.9C399.258 197.966 399.073 197.25 398.704 196.753C398.34 196.252 397.825 196.001 397.159 196.001ZM403.739 195.174V200.035C403.739 200.645 403.878 201.101 404.156 201.402C404.434 201.703 404.869 201.853 405.462 201.853C406.246 201.853 406.818 201.639 407.178 201.21C407.542 200.782 407.725 200.083 407.725 199.112V195.174H408.859V202.667H407.923L407.759 201.662H407.697C407.465 202.031 407.141 202.313 406.727 202.509C406.316 202.705 405.847 202.803 405.318 202.803C404.407 202.803 403.723 202.587 403.268 202.154C402.816 201.721 402.591 201.028 402.591 200.076V195.174H403.739ZM413.942 201.867C414.143 201.867 414.337 201.853 414.523 201.826C414.71 201.794 414.858 201.762 414.968 201.73V202.598C414.845 202.657 414.662 202.705 414.421 202.742C414.184 202.783 413.97 202.803 413.778 202.803C412.329 202.803 411.604 202.04 411.604 200.513V196.056H410.531V195.509L411.604 195.038L412.083 193.438H412.739V195.174H414.913V196.056H412.739V200.465C412.739 200.917 412.846 201.263 413.061 201.504C413.275 201.746 413.569 201.867 413.942 201.867Z" fill="#90939F"/>
</g>
<rect x="331.333" y="174.167" width="373" height="47" rx="3.5" stroke="#464B52"/>
</g>
<rect x="327.333" y="170.167" width="381" height="55" rx="5.5" stroke="#0084FF" stroke-width="3" stroke-linejoin="round"/>
<path d="M716.833 169.667H725.833V225.667H716.833" stroke="#4091D2"/>
<path d="M736.107 195.282C737.074 195.282 737.841 195.553 738.411 196.095C738.985 196.638 739.272 197.38 739.272 198.324C739.272 199.44 738.928 200.299 738.24 200.901C737.552 201.502 736.568 201.803 735.287 201.803C734.175 201.803 733.277 201.623 732.594 201.263V199.438C732.954 199.629 733.373 199.787 733.852 199.91C734.33 200.028 734.784 200.087 735.212 200.087C736.502 200.087 737.146 199.559 737.146 198.501C737.146 197.494 736.479 196.991 735.144 196.991C734.902 196.991 734.635 197.016 734.344 197.066C734.052 197.111 733.815 197.162 733.633 197.216L732.792 196.765L733.168 191.672H738.589V193.463H735.021L734.836 195.425L735.075 195.377C735.353 195.314 735.697 195.282 736.107 195.282ZM740.316 197.421C740.316 195.444 740.733 193.972 741.567 193.005C742.406 192.039 743.659 191.556 745.327 191.556C745.897 191.556 746.343 191.59 746.667 191.659V193.347C746.261 193.256 745.86 193.21 745.464 193.21C744.739 193.21 744.147 193.32 743.687 193.539C743.231 193.757 742.889 194.081 742.661 194.509C742.433 194.938 742.299 195.546 742.258 196.334H742.347C742.798 195.56 743.52 195.172 744.514 195.172C745.407 195.172 746.106 195.453 746.612 196.013C747.118 196.574 747.371 197.348 747.371 198.337C747.371 199.404 747.07 200.249 746.469 200.874C745.867 201.493 745.033 201.803 743.967 201.803C743.228 201.803 742.584 201.632 742.032 201.291C741.485 200.949 741.062 200.45 740.761 199.793C740.465 199.137 740.316 198.347 740.316 197.421ZM743.926 200.115C744.377 200.115 744.723 199.964 744.965 199.664C745.206 199.358 745.327 198.925 745.327 198.365C745.327 197.877 745.213 197.494 744.985 197.216C744.762 196.934 744.423 196.792 743.967 196.792C743.538 196.792 743.172 196.931 742.866 197.209C742.565 197.487 742.415 197.811 742.415 198.18C742.415 198.722 742.556 199.181 742.839 199.554C743.126 199.928 743.488 200.115 743.926 200.115ZM751.252 201.803C750.354 201.803 749.648 201.455 749.133 200.757C748.622 200.06 748.367 199.094 748.367 197.859C748.367 196.606 748.627 195.63 749.146 194.933C749.671 194.231 750.391 193.88 751.307 193.88C752.268 193.88 753.002 194.254 753.508 195.001H753.576C753.471 194.432 753.419 193.924 753.419 193.477V191.03H755.511V201.667H753.911L753.508 200.675H753.419C752.945 201.427 752.223 201.803 751.252 201.803ZM751.983 200.142C752.517 200.142 752.906 199.987 753.152 199.677C753.403 199.367 753.54 198.841 753.562 198.098V197.873C753.562 197.052 753.435 196.464 753.18 196.109C752.929 195.753 752.519 195.576 751.949 195.576C751.484 195.576 751.122 195.774 750.862 196.17C750.607 196.562 750.479 197.134 750.479 197.886C750.479 198.638 750.609 199.203 750.869 199.582C751.129 199.955 751.5 200.142 751.983 200.142ZM761.805 201.803C760.907 201.803 760.203 201.477 759.692 200.826H759.583C759.656 201.464 759.692 201.833 759.692 201.933V205.03H757.607V194.024H759.303L759.597 195.015H759.692C760.18 194.259 760.902 193.88 761.859 193.88C762.762 193.88 763.468 194.229 763.978 194.926C764.489 195.624 764.744 196.592 764.744 197.832C764.744 198.647 764.623 199.356 764.382 199.958C764.145 200.559 763.805 201.017 763.363 201.332C762.921 201.646 762.402 201.803 761.805 201.803ZM761.189 195.548C760.674 195.548 760.298 195.708 760.061 196.027C759.824 196.341 759.701 196.863 759.692 197.592V197.818C759.692 198.638 759.813 199.226 760.055 199.582C760.301 199.937 760.688 200.115 761.217 200.115C762.151 200.115 762.618 199.345 762.618 197.804C762.618 197.052 762.502 196.489 762.269 196.116C762.042 195.737 761.682 195.548 761.189 195.548Z" fill="#4091D2"/>
<rect width="78" height="40" transform="translate(810.244 1)" fill="#F1F1F6"/>
<path d="M829.691 26H827.579V21.6865H823.621V26H821.502V16.0059H823.621V19.9229H827.579V16.0059H829.691V26ZM835.138 19.6973C834.696 19.6973 834.349 19.8385 834.099 20.1211C833.848 20.3991 833.704 20.7956 833.668 21.3105H836.594C836.585 20.7956 836.45 20.3991 836.19 20.1211C835.931 19.8385 835.58 19.6973 835.138 19.6973ZM835.432 26.1367C834.201 26.1367 833.24 25.7972 832.547 25.1182C831.854 24.4391 831.508 23.4775 831.508 22.2334C831.508 20.9528 831.827 19.9639 832.465 19.2666C833.107 18.5648 833.994 18.2139 835.124 18.2139C836.204 18.2139 837.045 18.5215 837.646 19.1367C838.248 19.752 838.549 20.6019 838.549 21.6865V22.6982H833.62C833.643 23.2907 833.818 23.7533 834.146 24.0859C834.475 24.4186 834.935 24.585 835.527 24.585C835.988 24.585 836.423 24.5371 836.833 24.4414C837.243 24.3457 837.672 24.193 838.118 23.9834V25.5967C837.754 25.779 837.364 25.9134 836.949 26C836.534 26.0911 836.029 26.1367 835.432 26.1367ZM840.071 16.3818C840.071 15.7028 840.45 15.3633 841.206 15.3633C841.963 15.3633 842.341 15.7028 842.341 16.3818C842.341 16.7054 842.245 16.9583 842.054 17.1406C841.867 17.3184 841.584 17.4072 841.206 17.4072C840.45 17.4072 840.071 17.0654 840.071 16.3818ZM842.245 26H840.16V18.3574H842.245V26ZM851.007 18.3574V19.417L849.81 19.7246C850.029 20.0664 850.139 20.4492 850.139 20.873C850.139 21.6934 849.852 22.3337 849.277 22.7939C848.708 23.2497 847.915 23.4775 846.898 23.4775L846.522 23.457L846.215 23.4229C846.001 23.5869 845.894 23.7692 845.894 23.9697C845.894 24.2705 846.276 24.4209 847.042 24.4209H848.341C849.179 24.4209 849.817 24.6009 850.255 24.9609C850.697 25.321 850.918 25.8496 850.918 26.5469C850.918 27.4401 850.544 28.1328 849.797 28.625C849.054 29.1172 847.985 29.3633 846.591 29.3633C845.524 29.3633 844.709 29.1764 844.144 28.8027C843.583 28.4336 843.303 27.9141 843.303 27.2441C843.303 26.7839 843.446 26.3988 843.733 26.0889C844.02 25.779 844.442 25.5579 844.998 25.4258C844.784 25.3346 844.597 25.1865 844.437 24.9814C844.278 24.7718 844.198 24.5508 844.198 24.3184C844.198 24.0267 844.283 23.7852 844.451 23.5938C844.62 23.3978 844.864 23.2064 845.183 23.0195C844.782 22.8464 844.463 22.5684 844.226 22.1855C843.993 21.8027 843.877 21.3516 843.877 20.832C843.877 19.998 844.148 19.3532 844.69 18.8975C845.233 18.4417 846.007 18.2139 847.015 18.2139C847.229 18.2139 847.482 18.2344 847.773 18.2754C848.07 18.3118 848.259 18.3392 848.341 18.3574H851.007ZM845.107 27.0801C845.107 27.3672 845.244 27.5928 845.518 27.7568C845.796 27.9209 846.183 28.0029 846.68 28.0029C847.427 28.0029 848.013 27.9004 848.436 27.6953C848.86 27.4902 849.072 27.21 849.072 26.8545C849.072 26.5674 848.947 26.3691 848.696 26.2598C848.446 26.1504 848.058 26.0957 847.534 26.0957H846.454C846.071 26.0957 845.75 26.1846 845.49 26.3623C845.235 26.5446 845.107 26.7839 845.107 27.0801ZM845.866 20.8594C845.866 21.2741 845.96 21.6022 846.146 21.8438C846.338 22.0853 846.627 22.2061 847.015 22.2061C847.407 22.2061 847.694 22.0853 847.876 21.8438C848.058 21.6022 848.149 21.2741 848.149 20.8594C848.149 19.9388 847.771 19.4785 847.015 19.4785C846.249 19.4785 845.866 19.9388 845.866 20.8594ZM859.242 26H857.157V21.5361C857.157 20.4333 856.747 19.8818 855.927 19.8818C855.343 19.8818 854.922 20.0801 854.662 20.4766C854.402 20.873 854.272 21.5156 854.272 22.4043V26H852.187V15.3633H854.272V17.5303C854.272 17.6989 854.256 18.0954 854.225 18.7197L854.177 19.335H854.286C854.751 18.5876 855.489 18.2139 856.501 18.2139C857.399 18.2139 858.08 18.4554 858.545 18.9385C859.01 19.4215 859.242 20.1143 859.242 21.0166V26ZM864.524 24.4756C864.889 24.4756 865.326 24.3958 865.837 24.2363V25.7881C865.317 26.0205 864.679 26.1367 863.923 26.1367C863.089 26.1367 862.48 25.9271 862.098 25.5078C861.719 25.084 861.53 24.4505 861.53 23.6074V19.9229H860.532V19.041L861.681 18.3438L862.282 16.7305H863.615V18.3574H865.755V19.9229H863.615V23.6074C863.615 23.9036 863.697 24.1224 863.861 24.2637C864.03 24.4049 864.251 24.4756 864.524 24.4756Z" fill="#252A2E"/>
<rect width="78" height="99.3333" transform="translate(810.244 42)" fill="white"/>
<path d="M827.969 94.3699H826.485V96.6667H825.398V94.3699H820.538V93.3787L825.282 86.6179H826.485V93.3376H827.969V94.3699ZM825.398 93.3376V90.0154C825.398 89.3637 825.421 88.6277 825.467 87.8074H825.412C825.193 88.2449 824.988 88.6072 824.797 88.8943L821.673 93.3376H825.398ZM832.164 86.5291C833.076 86.5291 833.798 86.741 834.331 87.1648C834.864 87.5886 835.131 88.1742 835.131 88.9216C835.131 89.4138 834.978 89.8627 834.673 90.2683C834.367 90.6739 833.88 91.0431 833.21 91.3757C834.021 91.7631 834.598 92.171 834.939 92.5994C835.281 93.0232 835.452 93.5154 835.452 94.0759C835.452 94.9054 835.163 95.5684 834.584 96.0652C834.005 96.5574 833.212 96.8035 832.205 96.8035C831.139 96.8035 830.318 96.571 829.744 96.1062C829.17 95.6368 828.883 94.9737 828.883 94.1169C828.883 92.9731 829.58 92.0821 830.975 91.4441C830.346 91.0886 829.895 90.7058 829.621 90.2957C829.348 89.8809 829.211 89.4184 829.211 88.908C829.211 88.1833 829.478 87.6069 830.011 87.1785C830.548 86.7455 831.266 86.5291 832.164 86.5291ZM830.004 94.1443C830.004 94.6912 830.193 95.1173 830.571 95.4226C830.954 95.7279 831.49 95.8806 832.178 95.8806C832.857 95.8806 833.385 95.7211 833.764 95.4021C834.142 95.0831 834.331 94.6456 834.331 94.0896C834.331 93.6475 834.153 93.2556 833.798 92.9138C833.442 92.5675 832.823 92.2325 831.938 91.9089C831.259 92.2006 830.767 92.5242 830.462 92.8796C830.157 93.2306 830.004 93.6521 830.004 94.1443ZM832.15 87.4519C831.581 87.4519 831.134 87.5886 830.811 87.8621C830.487 88.1355 830.325 88.5001 830.325 88.9558C830.325 89.3751 830.46 89.7351 830.728 90.0359C830.997 90.3367 831.494 90.6375 832.219 90.9382C832.87 90.6648 833.331 90.3708 833.6 90.0564C833.873 89.7419 834.01 89.3751 834.01 88.9558C834.01 88.4955 833.843 88.1309 833.511 87.8621C833.183 87.5886 832.729 87.4519 832.15 87.4519ZM842.402 95.6619H842.341C841.817 96.4229 841.033 96.8035 839.989 96.8035C839.009 96.8035 838.246 96.4685 837.699 95.7986C837.157 95.1287 836.886 94.1762 836.886 92.9412C836.886 91.7061 837.159 90.7468 837.706 90.0632C838.253 89.3796 839.014 89.0378 839.989 89.0378C841.006 89.0378 841.785 89.407 842.327 90.1453H842.416L842.368 89.6052L842.341 89.0789V86.03H843.476V96.6667H842.553L842.402 95.6619ZM840.133 95.8533C840.908 95.8533 841.468 95.6436 841.814 95.2244C842.165 94.8005 842.341 94.1192 842.341 93.1804V92.9412C842.341 91.8793 842.163 91.1228 841.808 90.6716C841.457 90.2159 840.894 89.988 840.119 89.988C839.454 89.988 838.943 90.2478 838.588 90.7673C838.237 91.2823 838.061 92.0115 838.061 92.9548C838.061 93.9119 838.237 94.6342 838.588 95.1218C838.939 95.6095 839.454 95.8533 840.133 95.8533ZM849.291 96.8035C848.803 96.8035 848.357 96.7146 847.951 96.5369C847.55 96.3546 847.213 96.0766 846.939 95.7029H846.857C846.912 96.1404 846.939 96.5551 846.939 96.947V100.03H845.805V89.1746H846.727L846.885 90.2H846.939C847.231 89.7898 847.571 89.4936 847.958 89.3113C848.345 89.129 848.79 89.0378 849.291 89.0378C850.284 89.0378 851.05 89.3774 851.588 90.0564C852.13 90.7354 852.401 91.6879 852.401 92.9138C852.401 94.1443 852.126 95.1013 851.574 95.7849C851.027 96.4639 850.266 96.8035 849.291 96.8035ZM849.127 90.0017C848.361 90.0017 847.808 90.2136 847.466 90.6375C847.124 91.0613 846.949 91.7358 846.939 92.6609V92.9138C846.939 93.9666 847.115 94.7208 847.466 95.1765C847.817 95.6277 848.38 95.8533 849.154 95.8533C849.801 95.8533 850.307 95.5912 850.672 95.0671C851.041 94.5431 851.226 93.8207 851.226 92.9001C851.226 91.9659 851.041 91.2504 850.672 90.7537C850.307 90.2524 849.792 90.0017 849.127 90.0017Z" fill="#252A2E"/>
<rect width="78" height="110.667" transform="translate(810.244 142.333)" fill="white"/>
<path d="M824.052 196.562C825.104 196.562 825.932 196.824 826.533 197.348C827.139 197.868 827.442 198.581 827.442 199.488C827.442 200.522 827.112 201.333 826.451 201.921C825.795 202.509 824.888 202.803 823.73 202.803C822.605 202.803 821.746 202.623 821.153 202.263V201.169C821.472 201.375 821.869 201.536 822.343 201.655C822.817 201.769 823.284 201.826 823.744 201.826C824.546 201.826 825.168 201.637 825.61 201.258C826.057 200.88 826.28 200.333 826.28 199.618C826.28 198.223 825.426 197.526 823.717 197.526C823.284 197.526 822.705 197.592 821.98 197.724L821.393 197.348L821.769 192.672H826.738V193.718H822.739L822.486 196.719C823.01 196.614 823.532 196.562 824.052 196.562ZM828.972 198.394C828.972 196.43 829.352 194.962 830.113 193.992C830.879 193.016 832.009 192.529 833.504 192.529C834.019 192.529 834.424 192.572 834.721 192.659V193.636C834.37 193.522 833.969 193.465 833.518 193.465C832.447 193.465 831.629 193.8 831.063 194.47C830.498 195.136 830.188 196.184 830.134 197.615H830.216C830.717 196.831 831.51 196.439 832.595 196.439C833.492 196.439 834.199 196.71 834.714 197.252C835.233 197.795 835.493 198.531 835.493 199.46C835.493 200.5 835.208 201.318 834.639 201.915C834.074 202.507 833.308 202.803 832.342 202.803C831.307 202.803 830.487 202.416 829.881 201.641C829.275 200.862 828.972 199.779 828.972 198.394ZM832.328 201.839C832.975 201.839 833.477 201.637 833.832 201.231C834.192 200.821 834.372 200.231 834.372 199.46C834.372 198.8 834.206 198.28 833.873 197.902C833.54 197.524 833.044 197.334 832.383 197.334C831.973 197.334 831.597 197.419 831.255 197.587C830.913 197.756 830.64 197.988 830.435 198.285C830.234 198.581 830.134 198.889 830.134 199.208C830.134 199.677 830.225 200.114 830.407 200.52C830.59 200.926 830.847 201.247 831.18 201.484C831.517 201.721 831.9 201.839 832.328 201.839ZM842.402 201.662H842.341C841.817 202.423 841.033 202.803 839.989 202.803C839.009 202.803 838.246 202.468 837.699 201.798C837.157 201.128 836.886 200.176 836.886 198.941C836.886 197.706 837.159 196.747 837.706 196.063C838.253 195.379 839.014 195.038 839.989 195.038C841.006 195.038 841.785 195.407 842.327 196.145H842.416L842.368 195.605L842.341 195.079V192.03H843.476V202.667H842.553L842.402 201.662ZM840.133 201.853C840.908 201.853 841.468 201.643 841.814 201.224C842.165 200.8 842.341 200.119 842.341 199.18V198.941C842.341 197.879 842.163 197.123 841.808 196.671C841.457 196.216 840.894 195.988 840.119 195.988C839.454 195.988 838.943 196.248 838.588 196.767C838.237 197.282 838.061 198.011 838.061 198.955C838.061 199.912 838.237 200.634 838.588 201.122C838.939 201.609 839.454 201.853 840.133 201.853ZM849.291 202.803C848.803 202.803 848.357 202.714 847.951 202.537C847.55 202.354 847.213 202.076 846.939 201.703H846.857C846.912 202.14 846.939 202.555 846.939 202.947V206.03H845.805V195.174H846.727L846.885 196.2H846.939C847.231 195.79 847.571 195.493 847.958 195.311C848.345 195.129 848.79 195.038 849.291 195.038C850.284 195.038 851.05 195.377 851.588 196.056C852.13 196.735 852.401 197.688 852.401 198.914C852.401 200.144 852.126 201.101 851.574 201.785C851.027 202.464 850.266 202.803 849.291 202.803ZM849.127 196.001C848.361 196.001 847.808 196.213 847.466 196.637C847.124 197.061 846.949 197.736 846.939 198.661V198.914C846.939 199.966 847.115 200.721 847.466 201.176C847.817 201.627 848.38 201.853 849.154 201.853C849.801 201.853 850.307 201.591 850.672 201.067C851.041 200.543 851.226 199.82 851.226 198.9C851.226 197.966 851.041 197.25 850.672 196.753C850.307 196.252 849.792 196.001 849.127 196.001Z" fill="#252A2E"/>
<rect width="196.756" height="40" transform="translate(889.244 1)" fill="#F1F1F6"/>
<path d="M902.587 26H900.502V16.0059H906.23V17.7422H902.587V20.3193H905.978V22.0488H902.587V26ZM909.599 22.165C909.599 22.9215 909.722 23.4935 909.968 23.8809C910.218 24.2682 910.624 24.4619 911.185 24.4619C911.741 24.4619 912.139 24.2705 912.381 23.8877C912.627 23.5003 912.75 22.9261 912.75 22.165C912.75 21.4085 912.627 20.8411 912.381 20.4629C912.135 20.0846 911.731 19.8955 911.171 19.8955C910.615 19.8955 910.214 20.0846 909.968 20.4629C909.722 20.8366 909.599 21.404 909.599 22.165ZM914.883 22.165C914.883 23.4092 914.555 24.3822 913.898 25.084C913.242 25.7858 912.328 26.1367 911.157 26.1367C910.423 26.1367 909.776 25.9772 909.216 25.6582C908.655 25.3346 908.225 24.8721 907.924 24.2705C907.623 23.6689 907.473 22.9671 907.473 22.165C907.473 20.9163 907.798 19.9456 908.45 19.2529C909.102 18.5602 910.018 18.2139 911.198 18.2139C911.932 18.2139 912.579 18.3734 913.14 18.6924C913.7 19.0114 914.131 19.4694 914.432 20.0664C914.732 20.6634 914.883 21.363 914.883 22.165ZM923.576 26H921.491V21.5361C921.491 20.9847 921.393 20.5723 921.197 20.2988C921.001 20.0208 920.689 19.8818 920.261 19.8818C919.677 19.8818 919.256 20.0778 918.996 20.4697C918.736 20.8571 918.606 21.502 918.606 22.4043V26H916.521V18.3574H918.114L918.395 19.335H918.511C918.743 18.9658 919.062 18.6878 919.468 18.501C919.878 18.3096 920.343 18.2139 920.862 18.2139C921.751 18.2139 922.425 18.4554 922.886 18.9385C923.346 19.417 923.576 20.1097 923.576 21.0166V26ZM928.858 24.4756C929.223 24.4756 929.66 24.3958 930.171 24.2363V25.7881C929.651 26.0205 929.013 26.1367 928.257 26.1367C927.423 26.1367 926.814 25.9271 926.432 25.5078C926.053 25.084 925.864 24.4505 925.864 23.6074V19.9229H924.866V19.041L926.015 18.3438L926.616 16.7305H927.949V18.3574H930.089V19.9229H927.949V23.6074C927.949 23.9036 928.031 24.1224 928.195 24.2637C928.364 24.4049 928.585 24.4756 928.858 24.4756ZM940.523 23.7305C940.523 24.5143 940.25 25.1113 939.703 25.5215C939.161 25.9316 938.347 26.1367 937.263 26.1367C936.707 26.1367 936.233 26.098 935.841 26.0205C935.449 25.9476 935.082 25.8382 934.74 25.6924V23.9697C935.128 24.152 935.563 24.3047 936.046 24.4277C936.533 24.5508 936.962 24.6123 937.331 24.6123C938.087 24.6123 938.466 24.3936 938.466 23.9561C938.466 23.792 938.416 23.6598 938.315 23.5596C938.215 23.4548 938.042 23.3385 937.796 23.2109C937.55 23.0788 937.222 22.9261 936.811 22.7529C936.224 22.5068 935.791 22.279 935.513 22.0693C935.239 21.8597 935.039 21.6204 934.911 21.3516C934.788 21.0781 934.726 20.7432 934.726 20.3467C934.726 19.6676 934.989 19.1436 935.513 18.7744C936.041 18.4007 936.789 18.2139 937.755 18.2139C938.675 18.2139 939.571 18.4144 940.441 18.8154L939.812 20.3193C939.43 20.1553 939.072 20.0208 938.739 19.916C938.406 19.8112 938.067 19.7588 937.721 19.7588C937.105 19.7588 936.798 19.9251 936.798 20.2578C936.798 20.4447 936.896 20.6064 937.092 20.7432C937.292 20.8799 937.727 21.0827 938.397 21.3516C938.994 21.5931 939.432 21.8187 939.71 22.0283C939.988 22.238 940.193 22.4795 940.325 22.7529C940.457 23.0264 940.523 23.3522 940.523 23.7305ZM941.977 16.3818C941.977 15.7028 942.356 15.3633 943.112 15.3633C943.869 15.3633 944.247 15.7028 944.247 16.3818C944.247 16.7054 944.151 16.9583 943.96 17.1406C943.773 17.3184 943.49 17.4072 943.112 17.4072C942.356 17.4072 941.977 17.0654 941.977 16.3818ZM944.151 26H942.066V18.3574H944.151V26ZM951.58 26H945.544V24.7695L949.085 19.9502H945.756V18.3574H951.457V19.7109L948.012 24.4072H951.58V26ZM956.179 19.6973C955.737 19.6973 955.39 19.8385 955.14 20.1211C954.889 20.3991 954.745 20.7956 954.709 21.3105H957.635C957.626 20.7956 957.491 20.3991 957.231 20.1211C956.972 19.8385 956.621 19.6973 956.179 19.6973ZM956.473 26.1367C955.242 26.1367 954.28 25.7972 953.588 25.1182C952.895 24.4391 952.549 23.4775 952.549 22.2334C952.549 20.9528 952.868 19.9639 953.506 19.2666C954.148 18.5648 955.035 18.2139 956.165 18.2139C957.245 18.2139 958.086 18.5215 958.687 19.1367C959.289 19.752 959.59 20.6019 959.59 21.6865V22.6982H954.661C954.684 23.2907 954.859 23.7533 955.187 24.0859C955.515 24.4186 955.976 24.585 956.568 24.585C957.029 24.585 957.464 24.5371 957.874 24.4414C958.284 24.3457 958.712 24.193 959.159 23.9834V25.5967C958.794 25.779 958.405 25.9134 957.99 26C957.575 26.0911 957.07 26.1367 956.473 26.1367Z" fill="#252A2E"/>
<rect width="196.756" height="99.3333" transform="translate(889.244 42)" fill="white"/>
<path d="M904.132 96.6667H903.024V89.5437C903.024 88.9513 903.043 88.3907 903.079 87.8621C902.983 87.9578 902.876 88.058 902.758 88.1628C902.639 88.2677 902.097 88.712 901.131 89.4958L900.529 88.7166L903.175 86.6726H904.132V96.6667ZM914.896 94.3699H913.413V96.6667H912.326V94.3699H907.466V93.3787L912.21 86.6179H913.413V93.3376H914.896V94.3699ZM912.326 93.3376V90.0154C912.326 89.3637 912.349 88.6277 912.395 87.8074H912.34C912.121 88.2449 911.916 88.6072 911.725 88.8943L908.601 93.3376H912.326ZM924.688 94.6228C924.688 95.3201 924.429 95.8578 923.909 96.2361C923.39 96.6143 922.66 96.8035 921.722 96.8035C920.728 96.8035 919.953 96.6462 919.397 96.3318V95.2791C919.757 95.4613 920.143 95.6049 920.553 95.7097C920.967 95.8145 921.366 95.8669 921.749 95.8669C922.341 95.8669 922.797 95.7735 923.116 95.5867C923.435 95.3953 923.595 95.1059 923.595 94.7185C923.595 94.4268 923.467 94.1785 923.212 93.9734C922.961 93.7638 922.469 93.5177 921.735 93.2351C921.038 92.9753 920.541 92.7498 920.245 92.5583C919.953 92.3624 919.735 92.1414 919.589 91.8953C919.448 91.6492 919.377 91.3552 919.377 91.0134C919.377 90.4028 919.625 89.922 920.122 89.571C920.619 89.2156 921.3 89.0378 922.166 89.0378C922.973 89.0378 923.761 89.2019 924.531 89.53L924.128 90.4529C923.376 90.143 922.695 89.988 922.084 89.988C921.546 89.988 921.141 90.0723 920.867 90.241C920.594 90.4096 920.457 90.642 920.457 90.9382C920.457 91.1388 920.507 91.3097 920.607 91.4509C920.712 91.5922 920.879 91.7266 921.106 91.8542C921.334 91.9819 921.772 92.1664 922.419 92.408C923.308 92.7315 923.907 93.0574 924.217 93.3855C924.531 93.7136 924.688 94.1261 924.688 94.6228ZM929.943 96.8035C929.456 96.8035 929.009 96.7146 928.603 96.5369C928.202 96.3546 927.865 96.0766 927.592 95.7029H927.51C927.564 96.1404 927.592 96.5551 927.592 96.947V100.03H926.457V89.1746H927.38L927.537 90.2H927.592C927.883 89.7898 928.223 89.4936 928.61 89.3113C928.998 89.129 929.442 89.0378 929.943 89.0378C930.937 89.0378 931.702 89.3774 932.24 90.0564C932.782 90.7354 933.054 91.6879 933.054 92.9138C933.054 94.1443 932.778 95.1013 932.226 95.7849C931.68 96.4639 930.919 96.8035 929.943 96.8035ZM929.779 90.0017C929.014 90.0017 928.46 90.2136 928.118 90.6375C927.776 91.0613 927.601 91.7358 927.592 92.6609V92.9138C927.592 93.9666 927.767 94.7208 928.118 95.1765C928.469 95.6277 929.032 95.8533 929.807 95.8533C930.454 95.8533 930.96 95.5912 931.324 95.0671C931.693 94.5431 931.878 93.8207 931.878 92.9001C931.878 91.9659 931.693 91.2504 931.324 90.7537C930.96 90.2524 930.445 90.0017 929.779 90.0017Z" fill="#252A2E"/>
<rect width="196.756" height="110.667" transform="translate(889.244 142.333)" fill="white"/>
<path d="M904.132 202.667H903.024V195.543C903.024 194.951 903.043 194.39 903.079 193.862C902.983 193.958 902.876 194.058 902.758 194.163C902.639 194.267 902.097 194.712 901.131 195.496L900.529 194.716L903.175 192.672H904.132V202.667ZM914.896 200.37H913.413V202.667H912.326V200.37H907.466V199.378L912.21 192.618H913.413V199.337H914.896V200.37ZM912.326 199.337V196.015C912.326 195.363 912.349 194.627 912.395 193.807H912.34C912.121 194.245 911.916 194.607 911.725 194.894L908.601 199.337H912.326ZM924.955 201.662H924.894C924.369 202.423 923.586 202.803 922.542 202.803C921.562 202.803 920.799 202.468 920.252 201.798C919.71 201.128 919.438 200.176 919.438 198.941C919.438 197.706 919.712 196.747 920.259 196.063C920.806 195.379 921.567 195.038 922.542 195.038C923.558 195.038 924.338 195.407 924.88 196.145H924.969L924.921 195.605L924.894 195.079V192.03H926.028V202.667H925.105L924.955 201.662ZM922.685 201.853C923.46 201.853 924.021 201.643 924.367 201.224C924.718 200.8 924.894 200.119 924.894 199.18V198.941C924.894 197.879 924.716 197.123 924.36 196.671C924.009 196.216 923.447 195.988 922.672 195.988C922.006 195.988 921.496 196.248 921.141 196.767C920.79 197.282 920.614 198.011 920.614 198.955C920.614 199.912 920.79 200.634 921.141 201.122C921.491 201.609 922.006 201.853 922.685 201.853ZM931.844 202.803C931.356 202.803 930.909 202.714 930.504 202.537C930.103 202.354 929.766 202.076 929.492 201.703H929.41C929.465 202.14 929.492 202.555 929.492 202.947V206.03H928.357V195.174H929.28L929.437 196.2H929.492C929.784 195.79 930.123 195.493 930.511 195.311C930.898 195.129 931.342 195.038 931.844 195.038C932.837 195.038 933.603 195.377 934.141 196.056C934.683 196.735 934.954 197.688 934.954 198.914C934.954 200.144 934.678 201.101 934.127 201.785C933.58 202.464 932.819 202.803 931.844 202.803ZM931.68 196.001C930.914 196.001 930.36 196.213 930.018 196.637C929.677 197.061 929.501 197.736 929.492 198.661V198.914C929.492 199.966 929.668 200.721 930.018 201.176C930.369 201.627 930.932 201.853 931.707 201.853C932.354 201.853 932.86 201.591 933.225 201.067C933.594 200.543 933.778 199.82 933.778 198.9C933.778 197.966 933.594 197.25 933.225 196.753C932.86 196.252 932.345 196.001 931.68 196.001Z" fill="#252A2E"/>
<defs>
<clipPath id="clip0_261_60784">
<rect x="326.833" y="67.6667" width="374" height="48" fill="white"/>
</clipPath>
<clipPath id="clip1_261_60784">
<rect x="326.833" y="67.6667" width="374" height="48" rx="4" fill="white"/>
</clipPath>
<clipPath id="clip2_261_60784">
<rect width="374" height="48" fill="white" transform="translate(330.833 173.667)"/>
</clipPath>
<clipPath id="clip3_261_60784">
<rect x="330.833" y="173.667" width="374" height="48" rx="4" fill="white"/>
</clipPath>
</defs>
</svg>
