<svg width="961" height="260" viewBox="0 0 961 260" fill="none" xmlns="http://www.w3.org/2000/svg">
<rect width="961" height="260" fill="#252A2E"/>
<g clip-path="url(#clip0_431_73268)">
<rect x="290.5" y="20" width="380" height="48" rx="4" fill="#171C1E"/>
<path d="M318.88 46.9199L318.22 46.9699L317.81 46.5599C320.25 43.7499 320.09 39.4599 317.31 36.8599C314.53 34.2599 310.3 34.3999 307.67 36.9399C304.85 39.6699 304.82 44.1599 307.59 46.9199C310.2 49.5299 314.36 49.6399 317.11 47.2599L317.52 47.6699L317.47 48.3199L321.36 52.2099C321.75 52.5999 322.38 52.5999 322.77 52.2099C323.16 51.8199 323.16 51.1899 322.77 50.7999L318.89 46.9199H318.88ZM316.07 45.5099C314.12 47.4599 310.94 47.4599 308.99 45.5099C307.04 43.5599 307.04 40.3799 308.99 38.4299C310.94 36.4799 314.12 36.4799 316.07 38.4299C318.02 40.3799 318.02 43.5599 316.07 45.5099Z" fill="#90939F"/>
<rect x="338.5" y="28" width="88" height="32" rx="16" fill="#6A6E79"/>
<g clip-path="url(#clip1_431_73268)">
<path d="M356.5 34.75C356.058 34.75 355.638 34.8378 355.256 34.9963C354.874 35.155 354.435 34.9734 354.276 34.5908C354.117 34.2082 354.299 33.7694 354.682 33.6107C355.243 33.378 355.857 33.25 356.5 33.25H358C358.414 33.25 358.75 33.5858 358.75 34C358.75 34.4142 358.414 34.75 358 34.75H356.5Z" fill="white"/>
<path d="M360.25 34C360.25 33.5858 360.586 33.25 361 33.25H364C364.414 33.25 364.75 33.5858 364.75 34C364.75 34.4142 364.414 34.75 364 34.75H361C360.586 34.75 360.25 34.4142 360.25 34Z" fill="white"/>
<path d="M366.25 34C366.25 33.5858 366.586 33.25 367 33.25H368.5C369.143 33.25 369.757 33.378 370.318 33.6107C370.701 33.7694 370.883 34.2082 370.724 34.5908C370.565 34.9734 370.126 35.155 369.744 34.9963C369.362 34.8378 368.942 34.75 368.5 34.75H367C366.586 34.75 366.25 34.4142 366.25 34Z" fill="white"/>
<path d="M353.091 35.7761C353.473 35.9347 353.655 36.3735 353.496 36.7561C353.338 37.1383 353.25 37.5579 353.25 38V39.5C353.25 39.9142 352.914 40.25 352.5 40.25C352.086 40.25 351.75 39.9142 351.75 39.5V38C351.75 37.3573 351.878 36.7427 352.111 36.1816C352.269 35.7989 352.708 35.6174 353.091 35.7761Z" fill="white"/>
<path d="M371.909 35.7761C372.292 35.6174 372.731 35.7989 372.889 36.1816C373.122 36.7427 373.25 37.3573 373.25 38V39.5C373.25 39.9142 372.914 40.25 372.5 40.25C372.086 40.25 371.75 39.9142 371.75 39.5V38C371.75 37.5579 371.662 37.1383 371.504 36.7561C371.345 36.3735 371.527 35.9347 371.909 35.7761Z" fill="white"/>
<path d="M352.5 41.75C352.914 41.75 353.25 42.0858 353.25 42.5V45.5C353.25 45.9142 352.914 46.25 352.5 46.25C352.086 46.25 351.75 45.9142 351.75 45.5V42.5C351.75 42.0858 352.086 41.75 352.5 41.75Z" fill="white"/>
<path d="M372.5 41.75C372.914 41.75 373.25 42.0858 373.25 42.5V45.5C373.25 45.9142 372.914 46.25 372.5 46.25C372.086 46.25 371.75 45.9142 371.75 45.5V42.5C371.75 42.0858 372.086 41.75 372.5 41.75Z" fill="white"/>
<path d="M352.5 47.75C352.914 47.75 353.25 48.0858 353.25 48.5V50C353.25 50.4421 353.338 50.8617 353.496 51.2439C353.655 51.6265 353.473 52.0653 353.091 52.2239C352.708 52.3826 352.269 52.2011 352.111 51.8184C351.878 51.2573 351.75 50.6427 351.75 50V48.5C351.75 48.0858 352.086 47.75 352.5 47.75Z" fill="white"/>
<path d="M372.5 47.75C372.914 47.75 373.25 48.0858 373.25 48.5V50C373.25 50.6427 373.122 51.2573 372.889 51.8184C372.731 52.2011 372.292 52.3826 371.909 52.2239C371.527 52.0653 371.345 51.6265 371.504 51.2439C371.662 50.8617 371.75 50.4421 371.75 50V48.5C371.75 48.0858 372.086 47.75 372.5 47.75Z" fill="white"/>
<path d="M354.276 53.4092C354.435 53.0266 354.874 52.845 355.256 53.0037C355.638 53.1622 356.058 53.25 356.5 53.25H358C358.414 53.25 358.75 53.5858 358.75 54C358.75 54.4142 358.414 54.75 358 54.75H356.5C355.857 54.75 355.243 54.622 354.682 54.3893C354.299 54.2306 354.117 53.7918 354.276 53.4092Z" fill="white"/>
<path d="M370.724 53.4092C370.883 53.7918 370.701 54.2306 370.318 54.3893C369.757 54.622 369.143 54.75 368.5 54.75H367C366.586 54.75 366.25 54.4142 366.25 54C366.25 53.5858 366.586 53.25 367 53.25H368.5C368.942 53.25 369.362 53.1622 369.744 53.0037C370.126 52.845 370.565 53.0266 370.724 53.4092Z" fill="white"/>
<path d="M360.25 54C360.25 53.5858 360.586 53.25 361 53.25H364C364.414 53.25 364.75 53.5858 364.75 54C364.75 54.4142 364.414 54.75 364 54.75H361C360.586 54.75 360.25 54.4142 360.25 54Z" fill="white"/>
<path d="M371.03 36.591C371.323 36.2981 371.323 35.8232 371.03 35.5303C370.737 35.2374 370.263 35.2374 369.97 35.5303L368.973 36.5265C368.681 36.8194 368.681 37.2943 368.973 37.5872C369.266 37.8801 369.741 37.8801 370.034 37.5872L371.03 36.591Z" fill="white"/>
<path d="M368.042 39.5796C368.335 39.2867 368.335 38.8118 368.042 38.519C367.749 38.2261 367.274 38.2261 366.981 38.519L364.989 40.5114C364.696 40.8043 364.696 41.2791 364.989 41.572C365.282 41.8649 365.756 41.8649 366.049 41.572L368.042 39.5796Z" fill="white"/>
<path d="M364.057 43.5645C364.35 43.2716 364.35 42.7967 364.057 42.5038C363.764 42.2109 363.289 42.2109 362.996 42.5038L362.5 43L362.004 42.5038C361.711 42.2109 361.236 42.2109 360.943 42.5038C360.65 42.7967 360.65 43.2716 360.943 43.5645L361.439 44.0607L361.004 44.4962C360.711 44.7891 360.711 45.264 361.004 45.5569C361.297 45.8498 361.772 45.8498 362.064 45.5569L362.5 45.1213L362.936 45.5569C363.228 45.8498 363.703 45.8498 363.996 45.5569C364.289 45.264 364.289 44.7891 363.996 44.4962L363.561 44.0607L364.057 43.5645Z" fill="white"/>
<path d="M360.072 47.5493C360.365 47.2564 360.365 46.7815 360.072 46.4886C359.779 46.1957 359.304 46.1957 359.011 46.4886L357.019 48.481C356.726 48.7739 356.726 49.2488 357.019 49.5417C357.312 49.8346 357.787 49.8346 358.08 49.5417L360.072 47.5493Z" fill="white"/>
<path d="M356.087 51.5341C356.38 51.2412 356.38 50.7664 356.087 50.4735C355.794 50.1806 355.319 50.1806 355.027 50.4735L354.03 51.4697C353.737 51.7626 353.737 52.2374 354.03 52.5303C354.323 52.8232 354.798 52.8232 355.091 52.5303L356.087 51.5341Z" fill="white"/>
<path d="M369.909 52.5303C370.202 52.8232 370.677 52.8232 370.97 52.5303C371.263 52.2374 371.263 51.7626 370.97 51.4697L369.973 50.4735C369.681 50.1806 369.206 50.1806 368.913 50.4735C368.62 50.7664 368.62 51.2412 368.913 51.5341L369.909 52.5303Z" fill="white"/>
<path d="M366.92 49.5417C367.213 49.8346 367.688 49.8346 367.981 49.5417C368.274 49.2488 368.274 48.7739 367.981 48.481L365.989 46.4886C365.696 46.1957 365.221 46.1957 364.928 46.4886C364.635 46.7815 364.635 47.2564 364.928 47.5493L366.92 49.5417Z" fill="white"/>
<path d="M358.951 41.572C359.244 41.8649 359.718 41.8649 360.011 41.572C360.304 41.2791 360.304 40.8043 360.011 40.5114L358.019 38.519C357.726 38.2261 357.251 38.2261 356.958 38.519C356.665 38.8118 356.665 39.2867 356.958 39.5796L358.951 41.572Z" fill="white"/>
<path d="M354.966 37.5872C355.259 37.8801 355.734 37.8801 356.027 37.5872C356.319 37.2943 356.319 36.8194 356.027 36.5265L355.03 35.5303C354.737 35.2374 354.263 35.2374 353.97 35.5303C353.677 35.8232 353.677 36.2981 353.97 36.591L354.966 37.5872Z" fill="white"/>
<path d="M359.556 38.889C359.854 38.7988 360.171 38.75 360.5 38.75H361.25C361.664 38.75 362 38.4142 362 38C362 37.5858 361.664 37.25 361.25 37.25H360.5C360.022 37.25 359.558 37.321 359.121 37.4535C358.725 37.5736 358.501 37.9923 358.621 38.3887C358.741 38.7851 359.16 39.0091 359.556 38.889Z" fill="white"/>
<path d="M363.75 37.25C363.336 37.25 363 37.5858 363 38C363 38.4142 363.336 38.75 363.75 38.75H364.5C364.829 38.75 365.146 38.7988 365.444 38.889C365.84 39.0091 366.259 38.7851 366.379 38.3887C366.499 37.9923 366.275 37.5736 365.879 37.4535C365.442 37.321 364.978 37.25 364.5 37.25H363.75Z" fill="white"/>
<path d="M357.389 41.0559C357.509 40.6595 357.285 40.2408 356.889 40.1207C356.492 40.0006 356.074 40.2246 355.953 40.621C355.821 41.0583 355.75 41.5216 355.75 42V42.75C355.75 43.1642 356.086 43.5 356.5 43.5C356.914 43.5 357.25 43.1642 357.25 42.75V42C357.25 41.6705 357.299 41.3538 357.389 41.0559Z" fill="white"/>
<path d="M369.047 40.621C368.926 40.2246 368.508 40.0006 368.111 40.1207C367.715 40.2408 367.491 40.6595 367.611 41.0559C367.701 41.3538 367.75 41.6705 367.75 42V42.75C367.75 43.1642 368.086 43.5 368.5 43.5C368.914 43.5 369.25 43.1642 369.25 42.75V42C369.25 41.5216 369.179 41.0583 369.047 40.621Z" fill="white"/>
<path d="M357.25 45.25C357.25 44.8358 356.914 44.5 356.5 44.5C356.086 44.5 355.75 44.8358 355.75 45.25V46C355.75 46.4784 355.821 46.9417 355.953 47.379C356.074 47.7754 356.492 47.9994 356.889 47.8793C357.285 47.7592 357.509 47.3405 357.389 46.9441C357.299 46.6462 357.25 46.3295 357.25 46V45.25Z" fill="white"/>
<path d="M369.25 45.25C369.25 44.8358 368.914 44.5 368.5 44.5C368.086 44.5 367.75 44.8358 367.75 45.25V46C367.75 46.3295 367.701 46.6462 367.611 46.9441C367.491 47.3405 367.715 47.7592 368.111 47.8793C368.508 47.9994 368.926 47.7754 369.047 47.379C369.179 46.9417 369.25 46.4784 369.25 46V45.25Z" fill="white"/>
<path d="M359.556 49.111C359.16 48.9909 358.741 49.2149 358.621 49.6113C358.501 50.0077 358.725 50.4264 359.121 50.5465C359.558 50.679 360.022 50.75 360.5 50.75H361.25C361.664 50.75 362 50.4142 362 50C362 49.5858 361.664 49.25 361.25 49.25H360.5C360.171 49.25 359.854 49.2012 359.556 49.111Z" fill="white"/>
<path d="M365.879 50.5465C366.275 50.4264 366.499 50.0077 366.379 49.6113C366.259 49.2149 365.84 48.9909 365.444 49.111C365.146 49.2012 364.829 49.25 364.5 49.25H363.75C363.336 49.25 363 49.5858 363 50C363 50.4142 363.336 50.75 363.75 50.75H364.5C364.978 50.75 365.442 50.679 365.879 50.5465Z" fill="white"/>
<path d="M385.938 49H380.182V39.0059H385.938V40.7422H382.301V42.9365H385.685V44.6729H382.301V47.25H385.938V49ZM392.381 41.2139C392.663 41.2139 392.898 41.2344 393.085 41.2754L392.928 43.2305C392.759 43.1849 392.554 43.1621 392.312 43.1621C391.647 43.1621 391.128 43.333 390.754 43.6748C390.385 44.0166 390.2 44.4951 390.2 45.1104V49H388.115V41.3574H389.694L390.002 42.6426H390.104C390.341 42.2142 390.66 41.8701 391.062 41.6104C391.467 41.346 391.907 41.2139 392.381 41.2139ZM394.634 39.3818C394.634 38.7028 395.012 38.3633 395.769 38.3633C396.525 38.3633 396.903 38.7028 396.903 39.3818C396.903 39.7054 396.808 39.9583 396.616 40.1406C396.429 40.3184 396.147 40.4072 395.769 40.4072C395.012 40.4072 394.634 40.0654 394.634 39.3818ZM396.808 49H394.723V41.3574H396.808V49ZM402.355 49.1367C399.977 49.1367 398.787 47.8311 398.787 45.2197C398.787 43.9209 399.111 42.9297 399.758 42.2461C400.405 41.5579 401.332 41.2139 402.54 41.2139C403.424 41.2139 404.217 41.387 404.919 41.7334L404.304 43.3467C403.976 43.2145 403.67 43.1074 403.388 43.0254C403.105 42.9388 402.823 42.8955 402.54 42.8955C401.455 42.8955 400.913 43.6657 400.913 45.2061C400.913 46.7008 401.455 47.4482 402.54 47.4482C402.941 47.4482 403.312 47.3958 403.654 47.291C403.996 47.1816 404.338 47.013 404.68 46.7852V48.5693C404.342 48.7835 404.001 48.9316 403.654 49.0137C403.312 49.0957 402.88 49.1367 402.355 49.1367ZM411.561 49L411.157 47.9609H411.103C410.752 48.403 410.389 48.7106 410.016 48.8838C409.646 49.0524 409.163 49.1367 408.566 49.1367C407.833 49.1367 407.254 48.9271 406.83 48.5078C406.411 48.0885 406.201 47.4915 406.201 46.7168C406.201 45.9056 406.484 45.3086 407.049 44.9258C407.618 44.5384 408.475 44.3242 409.619 44.2832L410.945 44.2422V43.9072C410.945 43.1325 410.549 42.7451 409.756 42.7451C409.145 42.7451 408.427 42.9297 407.603 43.2988L406.912 41.8906C407.792 41.4303 408.767 41.2002 409.838 41.2002C410.863 41.2002 411.649 41.4235 412.196 41.8701C412.743 42.3167 413.017 42.9958 413.017 43.9072V49H411.561ZM410.945 45.459L410.139 45.4863C409.533 45.5046 409.081 45.6139 408.785 45.8145C408.489 46.015 408.341 46.3203 408.341 46.7305C408.341 47.3184 408.678 47.6123 409.353 47.6123C409.836 47.6123 410.221 47.4733 410.508 47.1953C410.799 46.9173 410.945 46.5482 410.945 46.0879V45.459Z" fill="white"/>
</g>
<path d="M438.95 49H437.788V40.0381H434.623V39.0059H442.115V40.0381H438.95V49ZM446.87 49.1367C445.763 49.1367 444.888 48.7995 444.245 48.125C443.607 47.4505 443.288 46.514 443.288 45.3154C443.288 44.1077 443.584 43.1484 444.177 42.4375C444.774 41.7266 445.574 41.3711 446.576 41.3711C447.515 41.3711 448.258 41.681 448.805 42.3008C449.352 42.916 449.625 43.7295 449.625 44.7412V45.459H444.464C444.487 46.3385 444.708 47.0062 445.127 47.4619C445.551 47.9176 446.146 48.1455 446.911 48.1455C447.718 48.1455 448.515 47.9769 449.304 47.6396V48.6514C448.903 48.8245 448.522 48.9476 448.162 49.0205C447.807 49.098 447.376 49.1367 446.87 49.1367ZM446.562 42.3213C445.961 42.3213 445.48 42.5173 445.12 42.9092C444.765 43.3011 444.555 43.8434 444.491 44.5361H448.408C448.408 43.8206 448.249 43.2738 447.93 42.8955C447.611 42.5127 447.155 42.3213 446.562 42.3213ZM453.621 45.165L451.017 41.5078H452.309L454.284 44.3789L456.253 41.5078H457.531L454.927 45.165L457.668 49H456.383L454.284 45.9648L452.165 49H450.88L453.621 45.165ZM461.828 48.2002C462.029 48.2002 462.222 48.1865 462.409 48.1592C462.596 48.1273 462.744 48.0954 462.854 48.0635V48.9316C462.73 48.9909 462.548 49.0387 462.307 49.0752C462.07 49.1162 461.855 49.1367 461.664 49.1367C460.215 49.1367 459.49 48.3734 459.49 46.8467V42.3896H458.417V41.8428L459.49 41.3711L459.969 39.7715H460.625V41.5078H462.799V42.3896H460.625V46.7988C460.625 47.25 460.732 47.5964 460.946 47.8379C461.16 48.0794 461.454 48.2002 461.828 48.2002ZM468.665 49V39.0059H469.827V49H468.665ZM477.781 49V44.1533C477.781 43.5426 477.642 43.0869 477.364 42.7861C477.086 42.4854 476.651 42.335 476.059 42.335C475.275 42.335 474.701 42.5469 474.336 42.9707C473.971 43.3945 473.789 44.0941 473.789 45.0693V49H472.654V41.5078H473.577L473.762 42.5332H473.816C474.049 42.1641 474.375 41.8792 474.794 41.6787C475.213 41.4736 475.68 41.3711 476.195 41.3711C477.098 41.3711 477.777 41.5898 478.232 42.0273C478.688 42.4603 478.916 43.1553 478.916 44.1123V49H477.781ZM484.99 49.1367C484.503 49.1367 484.056 49.0479 483.65 48.8701C483.249 48.6878 482.912 48.4098 482.639 48.0361H482.557C482.611 48.4736 482.639 48.8883 482.639 49.2803V52.3633H481.504V41.5078H482.427L482.584 42.5332H482.639C482.93 42.123 483.27 41.8268 483.657 41.6445C484.045 41.4622 484.489 41.3711 484.99 41.3711C485.984 41.3711 486.749 41.7106 487.287 42.3896C487.829 43.0687 488.101 44.0212 488.101 45.2471C488.101 46.4775 487.825 47.4346 487.273 48.1182C486.727 48.7972 485.965 49.1367 484.99 49.1367ZM484.826 42.335C484.061 42.335 483.507 42.5469 483.165 42.9707C482.823 43.3945 482.648 44.069 482.639 44.9941V45.2471C482.639 46.2998 482.814 47.054 483.165 47.5098C483.516 47.9609 484.079 48.1865 484.854 48.1865C485.501 48.1865 486.007 47.9245 486.371 47.4004C486.74 46.8763 486.925 46.154 486.925 45.2334C486.925 44.2992 486.74 43.5837 486.371 43.0869C486.007 42.5856 485.492 42.335 484.826 42.335ZM491.406 41.5078V46.3682C491.406 46.9788 491.545 47.4346 491.823 47.7354C492.101 48.0361 492.536 48.1865 493.129 48.1865C493.913 48.1865 494.485 47.9723 494.845 47.5439C495.209 47.1156 495.392 46.416 495.392 45.4453V41.5078H496.526V49H495.59L495.426 47.9951H495.364C495.132 48.3643 494.808 48.6468 494.394 48.8428C493.983 49.0387 493.514 49.1367 492.985 49.1367C492.074 49.1367 491.39 48.9202 490.935 48.4873C490.483 48.0544 490.258 47.3617 490.258 46.4092V41.5078H491.406ZM501.609 48.2002C501.81 48.2002 502.004 48.1865 502.19 48.1592C502.377 48.1273 502.525 48.0954 502.635 48.0635V48.9316C502.512 48.9909 502.329 49.0387 502.088 49.0752C501.851 49.1162 501.637 49.1367 501.445 49.1367C499.996 49.1367 499.271 48.3734 499.271 46.8467V42.3896H498.198V41.8428L499.271 41.3711L499.75 39.7715H500.406V41.5078H502.58V42.3896H500.406V46.7988C500.406 47.25 500.513 47.5964 500.728 47.8379C500.942 48.0794 501.236 48.2002 501.609 48.2002Z" fill="#7D808D"/>
<path d="M646.5 34C640.97 34 636.5 38.47 636.5 44C636.5 49.53 640.97 54 646.5 54C652.03 54 656.5 49.53 656.5 44C656.5 38.47 652.03 34 646.5 34ZM650.8 48.3C650.41 48.69 649.78 48.69 649.39 48.3L646.5 45.41L643.61 48.3C643.22 48.69 642.59 48.69 642.2 48.3C641.81 47.91 641.81 47.28 642.2 46.89L645.09 44L642.2 41.11C641.81 40.72 641.81 40.09 642.2 39.7C642.59 39.31 643.22 39.31 643.61 39.7L646.5 42.59L649.39 39.7C649.78 39.31 650.41 39.31 650.8 39.7C651.19 40.09 651.19 40.72 650.8 41.11L647.91 44L650.8 46.89C651.18 47.27 651.18 47.91 650.8 48.3Z" fill="#90939F"/>
</g>
<rect x="291.5" y="21" width="378" height="46" rx="3" stroke="#019AEB" stroke-width="2"/>
<path d="M302.5 89.03C303.05 89.03 303.5 88.58 303.5 88.03C303.5 87.48 303.05 87.03 302.5 87.03C301.95 87.03 301.5 87.48 301.5 88.03C301.5 88.58 301.95 89.03 302.5 89.03ZM302.5 102C308.02 102 312.5 97.52 312.5 92C312.5 86.48 308.02 82 302.5 82C296.98 82 292.5 86.48 292.5 92C292.5 97.52 296.98 102 302.5 102ZM302.5 84C306.91 84 310.5 87.59 310.5 92C310.5 96.41 306.91 100 302.5 100C298.09 100 294.5 96.41 294.5 92C294.5 87.59 298.09 84 302.5 84ZM302.5 97C303.05 97 303.5 96.55 303.5 96V92C303.5 91.45 303.05 91 302.5 91C301.95 91 301.5 91.45 301.5 92V96C301.5 96.55 301.95 97 302.5 97Z" fill="#019AEB"/>
<path d="M331.462 97H330.3V92.2969H325.036V97H323.874V87.0059H325.036V91.2578H330.3V87.0059H331.462V97ZM337.454 97.1367C336.347 97.1367 335.472 96.7995 334.829 96.125C334.191 95.4505 333.872 94.514 333.872 93.3154C333.872 92.1077 334.168 91.1484 334.761 90.4375C335.358 89.7266 336.158 89.3711 337.16 89.3711C338.099 89.3711 338.842 89.681 339.389 90.3008C339.936 90.916 340.209 91.7295 340.209 92.7412V93.459H335.048C335.071 94.3385 335.292 95.0062 335.711 95.4619C336.135 95.9176 336.729 96.1455 337.495 96.1455C338.302 96.1455 339.099 95.9769 339.888 95.6396V96.6514C339.487 96.8245 339.106 96.9476 338.746 97.0205C338.391 97.098 337.96 97.1367 337.454 97.1367ZM337.146 90.3213C336.545 90.3213 336.064 90.5173 335.704 90.9092C335.349 91.3011 335.139 91.8434 335.075 92.5361H338.992C338.992 91.8206 338.833 91.2738 338.514 90.8955C338.195 90.5127 337.739 90.3213 337.146 90.3213ZM343.535 97H342.4V86.3633H343.535V97ZM349.678 97.1367C349.19 97.1367 348.743 97.0479 348.338 96.8701C347.937 96.6878 347.6 96.4098 347.326 96.0361H347.244C347.299 96.4736 347.326 96.8883 347.326 97.2803V100.363H346.191V89.5078H347.114L347.271 90.5332H347.326C347.618 90.123 347.957 89.8268 348.345 89.6445C348.732 89.4622 349.176 89.3711 349.678 89.3711C350.671 89.3711 351.437 89.7106 351.975 90.3896C352.517 91.0687 352.788 92.0212 352.788 93.2471C352.788 94.4775 352.512 95.4346 351.961 96.1182C351.414 96.7972 350.653 97.1367 349.678 97.1367ZM349.514 90.335C348.748 90.335 348.194 90.5469 347.853 90.9707C347.511 91.3945 347.335 92.069 347.326 92.9941V93.2471C347.326 94.2998 347.502 95.054 347.853 95.5098C348.203 95.9609 348.766 96.1865 349.541 96.1865C350.188 96.1865 350.694 95.9245 351.059 95.4004C351.428 94.8763 351.612 94.154 351.612 93.2334C351.612 92.2992 351.428 91.5837 351.059 91.0869C350.694 90.5856 350.179 90.335 349.514 90.335ZM358.192 97.1367C357.085 97.1367 356.21 96.7995 355.567 96.125C354.929 95.4505 354.61 94.514 354.61 93.3154C354.61 92.1077 354.907 91.1484 355.499 90.4375C356.096 89.7266 356.896 89.3711 357.898 89.3711C358.837 89.3711 359.58 89.681 360.127 90.3008C360.674 90.916 360.947 91.7295 360.947 92.7412V93.459H355.786C355.809 94.3385 356.03 95.0062 356.449 95.4619C356.873 95.9176 357.468 96.1455 358.233 96.1455C359.04 96.1455 359.838 95.9769 360.626 95.6396V96.6514C360.225 96.8245 359.844 96.9476 359.484 97.0205C359.129 97.098 358.698 97.1367 358.192 97.1367ZM357.885 90.3213C357.283 90.3213 356.802 90.5173 356.442 90.9092C356.087 91.3011 355.877 91.8434 355.813 92.5361H359.73C359.73 91.8206 359.571 91.2738 359.252 90.8955C358.933 90.5127 358.477 90.3213 357.885 90.3213ZM366.557 89.3711C366.889 89.3711 367.188 89.3984 367.452 89.4531L367.295 90.5059C366.985 90.4375 366.712 90.4033 366.475 90.4033C365.868 90.4033 365.349 90.6494 364.916 91.1416C364.488 91.6338 364.273 92.2467 364.273 92.9805V97H363.139V89.5078H364.075L364.205 90.8955H364.26C364.538 90.4079 364.873 90.0319 365.265 89.7676C365.657 89.5033 366.087 89.3711 366.557 89.3711ZM376.237 97H375.075V88.0381H371.91V87.0059H379.402V88.0381H376.237V97ZM384.157 97.1367C383.05 97.1367 382.175 96.7995 381.532 96.125C380.894 95.4505 380.575 94.514 380.575 93.3154C380.575 92.1077 380.871 91.1484 381.464 90.4375C382.061 89.7266 382.861 89.3711 383.863 89.3711C384.802 89.3711 385.545 89.681 386.092 90.3008C386.639 90.916 386.912 91.7295 386.912 92.7412V93.459H381.751C381.774 94.3385 381.995 95.0062 382.414 95.4619C382.838 95.9176 383.433 96.1455 384.198 96.1455C385.005 96.1455 385.802 95.9769 386.591 95.6396V96.6514C386.19 96.8245 385.809 96.9476 385.449 97.0205C385.094 97.098 384.663 97.1367 384.157 97.1367ZM383.85 90.3213C383.248 90.3213 382.767 90.5173 382.407 90.9092C382.052 91.3011 381.842 91.8434 381.778 92.5361H385.695C385.695 91.8206 385.536 91.2738 385.217 90.8955C384.898 90.5127 384.442 90.3213 383.85 90.3213ZM390.908 93.165L388.304 89.5078H389.596L391.571 92.3789L393.54 89.5078H394.818L392.214 93.165L394.955 97H393.67L391.571 93.9648L389.452 97H388.167L390.908 93.165ZM399.115 96.2002C399.316 96.2002 399.509 96.1865 399.696 96.1592C399.883 96.1273 400.031 96.0954 400.141 96.0635V96.9316C400.018 96.9909 399.835 97.0387 399.594 97.0752C399.357 97.1162 399.143 97.1367 398.951 97.1367C397.502 97.1367 396.777 96.3734 396.777 94.8467V90.3896H395.704V89.8428L396.777 89.3711L397.256 87.7715H397.912V89.5078H400.086V90.3896H397.912V94.7988C397.912 95.25 398.019 95.5964 398.233 95.8379C398.448 96.0794 398.742 96.2002 399.115 96.2002Z" fill="white"/>
<g clip-path="url(#clip2_431_73268)">
<path d="M296.5 134.75C296.058 134.75 295.638 134.838 295.256 134.996C294.874 135.155 294.435 134.973 294.276 134.591C294.117 134.208 294.299 133.769 294.682 133.611C295.243 133.378 295.857 133.25 296.5 133.25H298C298.414 133.25 298.75 133.586 298.75 134C298.75 134.414 298.414 134.75 298 134.75H296.5Z" fill="white"/>
<path d="M300.25 134C300.25 133.586 300.586 133.25 301 133.25H304C304.414 133.25 304.75 133.586 304.75 134C304.75 134.414 304.414 134.75 304 134.75H301C300.586 134.75 300.25 134.414 300.25 134Z" fill="white"/>
<path d="M306.25 134C306.25 133.586 306.586 133.25 307 133.25H308.5C309.143 133.25 309.757 133.378 310.318 133.611C310.701 133.769 310.883 134.208 310.724 134.591C310.565 134.973 310.126 135.155 309.744 134.996C309.362 134.838 308.942 134.75 308.5 134.75H307C306.586 134.75 306.25 134.414 306.25 134Z" fill="white"/>
<path d="M293.091 135.776C293.473 135.935 293.655 136.374 293.496 136.756C293.338 137.138 293.25 137.558 293.25 138V139.5C293.25 139.914 292.914 140.25 292.5 140.25C292.086 140.25 291.75 139.914 291.75 139.5V138C291.75 137.357 291.878 136.743 292.111 136.182C292.269 135.799 292.708 135.617 293.091 135.776Z" fill="white"/>
<path d="M311.909 135.776C312.292 135.617 312.731 135.799 312.889 136.182C313.122 136.743 313.25 137.357 313.25 138V139.5C313.25 139.914 312.914 140.25 312.5 140.25C312.086 140.25 311.75 139.914 311.75 139.5V138C311.75 137.558 311.662 137.138 311.504 136.756C311.345 136.374 311.527 135.935 311.909 135.776Z" fill="white"/>
<path d="M292.5 141.75C292.914 141.75 293.25 142.086 293.25 142.5V145.5C293.25 145.914 292.914 146.25 292.5 146.25C292.086 146.25 291.75 145.914 291.75 145.5V142.5C291.75 142.086 292.086 141.75 292.5 141.75Z" fill="white"/>
<path d="M312.5 141.75C312.914 141.75 313.25 142.086 313.25 142.5V145.5C313.25 145.914 312.914 146.25 312.5 146.25C312.086 146.25 311.75 145.914 311.75 145.5V142.5C311.75 142.086 312.086 141.75 312.5 141.75Z" fill="white"/>
<path d="M292.5 147.75C292.914 147.75 293.25 148.086 293.25 148.5V150C293.25 150.442 293.338 150.862 293.496 151.244C293.655 151.626 293.473 152.065 293.091 152.224C292.708 152.383 292.269 152.201 292.111 151.818C291.878 151.257 291.75 150.643 291.75 150V148.5C291.75 148.086 292.086 147.75 292.5 147.75Z" fill="white"/>
<path d="M312.5 147.75C312.914 147.75 313.25 148.086 313.25 148.5V150C313.25 150.643 313.122 151.257 312.889 151.818C312.731 152.201 312.292 152.383 311.909 152.224C311.527 152.065 311.345 151.626 311.504 151.244C311.662 150.862 311.75 150.442 311.75 150V148.5C311.75 148.086 312.086 147.75 312.5 147.75Z" fill="white"/>
<path d="M294.276 153.409C294.435 153.027 294.874 152.845 295.256 153.004C295.638 153.162 296.058 153.25 296.5 153.25H298C298.414 153.25 298.75 153.586 298.75 154C298.75 154.414 298.414 154.75 298 154.75H296.5C295.857 154.75 295.243 154.622 294.682 154.389C294.299 154.231 294.117 153.792 294.276 153.409Z" fill="white"/>
<path d="M310.724 153.409C310.883 153.792 310.701 154.231 310.318 154.389C309.757 154.622 309.143 154.75 308.5 154.75H307C306.586 154.75 306.25 154.414 306.25 154C306.25 153.586 306.586 153.25 307 153.25H308.5C308.942 153.25 309.362 153.162 309.744 153.004C310.126 152.845 310.565 153.027 310.724 153.409Z" fill="white"/>
<path d="M300.25 154C300.25 153.586 300.586 153.25 301 153.25H304C304.414 153.25 304.75 153.586 304.75 154C304.75 154.414 304.414 154.75 304 154.75H301C300.586 154.75 300.25 154.414 300.25 154Z" fill="white"/>
<path d="M311.03 136.591C311.323 136.298 311.323 135.823 311.03 135.53C310.737 135.237 310.263 135.237 309.97 135.53L308.973 136.527C308.681 136.819 308.681 137.294 308.973 137.587C309.266 137.88 309.741 137.88 310.034 137.587L311.03 136.591Z" fill="white"/>
<path d="M308.042 139.58C308.335 139.287 308.335 138.812 308.042 138.519C307.749 138.226 307.274 138.226 306.981 138.519L304.989 140.511C304.696 140.804 304.696 141.279 304.989 141.572C305.282 141.865 305.756 141.865 306.049 141.572L308.042 139.58Z" fill="white"/>
<path d="M304.057 143.564C304.35 143.272 304.35 142.797 304.057 142.504C303.764 142.211 303.289 142.211 302.996 142.504L302.5 143L302.004 142.504C301.711 142.211 301.236 142.211 300.943 142.504C300.65 142.797 300.65 143.272 300.943 143.564L301.439 144.061L301.004 144.496C300.711 144.789 300.711 145.264 301.004 145.557C301.297 145.85 301.772 145.85 302.064 145.557L302.5 145.121L302.936 145.557C303.228 145.85 303.703 145.85 303.996 145.557C304.289 145.264 304.289 144.789 303.996 144.496L303.561 144.061L304.057 143.564Z" fill="white"/>
<path d="M300.072 147.549C300.365 147.256 300.365 146.782 300.072 146.489C299.779 146.196 299.304 146.196 299.011 146.489L297.019 148.481C296.726 148.774 296.726 149.249 297.019 149.542C297.312 149.835 297.787 149.835 298.08 149.542L300.072 147.549Z" fill="white"/>
<path d="M296.087 151.534C296.38 151.241 296.38 150.766 296.087 150.473C295.794 150.181 295.319 150.181 295.027 150.473L294.03 151.47C293.737 151.763 293.737 152.237 294.03 152.53C294.323 152.823 294.798 152.823 295.091 152.53L296.087 151.534Z" fill="white"/>
<path d="M309.909 152.53C310.202 152.823 310.677 152.823 310.97 152.53C311.263 152.237 311.263 151.763 310.97 151.47L309.973 150.473C309.681 150.181 309.206 150.181 308.913 150.473C308.62 150.766 308.62 151.241 308.913 151.534L309.909 152.53Z" fill="white"/>
<path d="M306.92 149.542C307.213 149.835 307.688 149.835 307.981 149.542C308.274 149.249 308.274 148.774 307.981 148.481L305.989 146.489C305.696 146.196 305.221 146.196 304.928 146.489C304.635 146.782 304.635 147.256 304.928 147.549L306.92 149.542Z" fill="white"/>
<path d="M298.951 141.572C299.244 141.865 299.718 141.865 300.011 141.572C300.304 141.279 300.304 140.804 300.011 140.511L298.019 138.519C297.726 138.226 297.251 138.226 296.958 138.519C296.665 138.812 296.665 139.287 296.958 139.58L298.951 141.572Z" fill="white"/>
<path d="M294.966 137.587C295.259 137.88 295.734 137.88 296.027 137.587C296.319 137.294 296.319 136.819 296.027 136.527L295.03 135.53C294.737 135.237 294.263 135.237 293.97 135.53C293.677 135.823 293.677 136.298 293.97 136.591L294.966 137.587Z" fill="white"/>
<path d="M299.556 138.889C299.854 138.799 300.171 138.75 300.5 138.75H301.25C301.664 138.75 302 138.414 302 138C302 137.586 301.664 137.25 301.25 137.25H300.5C300.022 137.25 299.558 137.321 299.121 137.453C298.725 137.574 298.501 137.992 298.621 138.389C298.741 138.785 299.16 139.009 299.556 138.889Z" fill="white"/>
<path d="M303.75 137.25C303.336 137.25 303 137.586 303 138C303 138.414 303.336 138.75 303.75 138.75H304.5C304.829 138.75 305.146 138.799 305.444 138.889C305.84 139.009 306.259 138.785 306.379 138.389C306.499 137.992 306.275 137.574 305.879 137.453C305.442 137.321 304.978 137.25 304.5 137.25H303.75Z" fill="white"/>
<path d="M297.389 141.056C297.509 140.66 297.285 140.241 296.889 140.121C296.492 140.001 296.074 140.225 295.953 140.621C295.821 141.058 295.75 141.522 295.75 142V142.75C295.75 143.164 296.086 143.5 296.5 143.5C296.914 143.5 297.25 143.164 297.25 142.75V142C297.25 141.671 297.299 141.354 297.389 141.056Z" fill="white"/>
<path d="M309.047 140.621C308.926 140.225 308.508 140.001 308.111 140.121C307.715 140.241 307.491 140.66 307.611 141.056C307.701 141.354 307.75 141.671 307.75 142V142.75C307.75 143.164 308.086 143.5 308.5 143.5C308.914 143.5 309.25 143.164 309.25 142.75V142C309.25 141.522 309.179 141.058 309.047 140.621Z" fill="white"/>
<path d="M297.25 145.25C297.25 144.836 296.914 144.5 296.5 144.5C296.086 144.5 295.75 144.836 295.75 145.25V146C295.75 146.478 295.821 146.942 295.953 147.379C296.074 147.775 296.492 147.999 296.889 147.879C297.285 147.759 297.509 147.34 297.389 146.944C297.299 146.646 297.25 146.329 297.25 146V145.25Z" fill="white"/>
<path d="M309.25 145.25C309.25 144.836 308.914 144.5 308.5 144.5C308.086 144.5 307.75 144.836 307.75 145.25V146C307.75 146.329 307.701 146.646 307.611 146.944C307.491 147.34 307.715 147.759 308.111 147.879C308.508 147.999 308.926 147.775 309.047 147.379C309.179 146.942 309.25 146.478 309.25 146V145.25Z" fill="white"/>
<path d="M299.556 149.111C299.16 148.991 298.741 149.215 298.621 149.611C298.501 150.008 298.725 150.426 299.121 150.547C299.558 150.679 300.022 150.75 300.5 150.75H301.25C301.664 150.75 302 150.414 302 150C302 149.586 301.664 149.25 301.25 149.25H300.5C300.171 149.25 299.854 149.201 299.556 149.111Z" fill="white"/>
<path d="M305.879 150.547C306.275 150.426 306.499 150.008 306.379 149.611C306.259 149.215 305.84 148.991 305.444 149.111C305.146 149.201 304.829 149.25 304.5 149.25H303.75C303.336 149.25 303 149.586 303 150C303 150.414 303.336 150.75 303.75 150.75H304.5C304.978 150.75 305.442 150.679 305.879 150.547Z" fill="white"/>
<path d="M323.812 149V139.006H325.453V147.605H329.698V149H323.812ZM334.38 141.289C335.338 141.289 336.06 141.501 336.547 141.925C337.04 142.349 337.286 143.009 337.286 143.907V149H336.144L335.837 147.927H335.782C335.568 148.2 335.347 148.426 335.119 148.604C334.891 148.781 334.627 148.913 334.326 149C334.03 149.091 333.667 149.137 333.239 149.137C332.788 149.137 332.384 149.055 332.029 148.891C331.673 148.722 331.393 148.467 331.188 148.125C330.983 147.783 330.88 147.35 330.88 146.826C330.88 146.047 331.17 145.461 331.749 145.069C332.332 144.677 333.212 144.461 334.387 144.42L335.7 144.372V143.976C335.7 143.451 335.577 143.078 335.331 142.854C335.089 142.631 334.747 142.52 334.305 142.52C333.927 142.52 333.56 142.574 333.205 142.684C332.849 142.793 332.503 142.927 332.166 143.087L331.646 141.952C332.015 141.756 332.435 141.597 332.904 141.474C333.378 141.351 333.87 141.289 334.38 141.289ZM335.693 145.384L334.715 145.418C333.913 145.445 333.351 145.582 333.027 145.828C332.703 146.074 332.542 146.411 332.542 146.84C332.542 147.214 332.653 147.487 332.877 147.66C333.1 147.829 333.394 147.913 333.758 147.913C334.314 147.913 334.775 147.756 335.139 147.441C335.508 147.122 335.693 146.655 335.693 146.04V145.384ZM341.291 138.363V140.927C341.291 141.223 341.282 141.515 341.264 141.802C341.25 142.084 341.237 142.305 341.223 142.465H341.291C341.496 142.137 341.781 141.861 342.146 141.638C342.515 141.41 342.987 141.296 343.561 141.296C344.459 141.296 345.181 141.626 345.728 142.287C346.275 142.943 346.548 143.916 346.548 145.206C346.548 146.063 346.423 146.783 346.172 147.366C345.921 147.95 345.568 148.392 345.112 148.692C344.661 148.989 344.13 149.137 343.52 149.137C342.946 149.137 342.481 149.032 342.125 148.822C341.774 148.608 341.499 148.36 341.298 148.077H341.182L340.888 149H339.685V138.363H341.291ZM343.137 142.602C342.681 142.602 342.319 142.693 342.05 142.875C341.786 143.057 341.594 143.331 341.476 143.695C341.357 144.055 341.296 144.513 341.291 145.069V145.213C341.291 146.056 341.423 146.701 341.688 147.147C341.957 147.594 342.444 147.817 343.151 147.817C343.711 147.817 344.142 147.592 344.443 147.141C344.743 146.685 344.894 146.033 344.894 145.186C344.894 144.329 344.743 143.684 344.443 143.251C344.146 142.818 343.711 142.602 343.137 142.602ZM351.572 141.289C352.247 141.289 352.825 141.428 353.308 141.706C353.791 141.984 354.163 142.378 354.423 142.889C354.682 143.399 354.812 144.01 354.812 144.721V145.582H349.761C349.779 146.316 349.975 146.881 350.348 147.277C350.727 147.674 351.255 147.872 351.934 147.872C352.417 147.872 352.85 147.826 353.233 147.735C353.621 147.64 354.019 147.501 354.429 147.318V148.624C354.051 148.802 353.666 148.932 353.274 149.014C352.882 149.096 352.413 149.137 351.866 149.137C351.123 149.137 350.469 148.993 349.904 148.706C349.344 148.414 348.904 147.981 348.585 147.407C348.27 146.833 348.113 146.12 348.113 145.268C348.113 144.42 348.257 143.7 348.544 143.107C348.831 142.515 349.234 142.064 349.754 141.754C350.273 141.444 350.879 141.289 351.572 141.289ZM351.572 142.499C351.066 142.499 350.656 142.663 350.342 142.991C350.032 143.319 349.849 143.8 349.795 144.434H353.24C353.235 144.055 353.172 143.72 353.049 143.429C352.93 143.137 352.748 142.909 352.502 142.745C352.26 142.581 351.95 142.499 351.572 142.499ZM358.387 149H356.774V138.363H358.387V149Z" fill="white"/>
<path d="M369.08 138.363L368.807 140.975L371.432 140.229L371.637 141.686L369.183 141.904L370.775 144.03L369.449 144.748L368.294 142.458L367.262 144.741L365.881 144.03L367.46 141.904L365.02 141.679L365.252 140.229L367.829 140.975L367.556 138.363H369.08Z" fill="#DA212C"/>
<path d="M594.5 134.75C594.058 134.75 593.638 134.838 593.256 134.996C592.874 135.155 592.435 134.973 592.276 134.591C592.117 134.208 592.299 133.769 592.682 133.611C593.243 133.378 593.857 133.25 594.5 133.25H596C596.414 133.25 596.75 133.586 596.75 134C596.75 134.414 596.414 134.75 596 134.75H594.5Z" fill="white"/>
<path d="M598.25 134C598.25 133.586 598.586 133.25 599 133.25H602C602.414 133.25 602.75 133.586 602.75 134C602.75 134.414 602.414 134.75 602 134.75H599C598.586 134.75 598.25 134.414 598.25 134Z" fill="white"/>
<path d="M604.25 134C604.25 133.586 604.586 133.25 605 133.25H606.5C607.143 133.25 607.757 133.378 608.318 133.611C608.701 133.769 608.883 134.208 608.724 134.591C608.565 134.973 608.126 135.155 607.744 134.996C607.362 134.838 606.942 134.75 606.5 134.75H605C604.586 134.75 604.25 134.414 604.25 134Z" fill="white"/>
<path d="M591.091 135.776C591.473 135.935 591.655 136.374 591.496 136.756C591.338 137.138 591.25 137.558 591.25 138V139.5C591.25 139.914 590.914 140.25 590.5 140.25C590.086 140.25 589.75 139.914 589.75 139.5V138C589.75 137.357 589.878 136.743 590.111 136.182C590.269 135.799 590.708 135.617 591.091 135.776Z" fill="white"/>
<path d="M609.909 135.776C610.292 135.617 610.731 135.799 610.889 136.182C611.122 136.743 611.25 137.357 611.25 138V139.5C611.25 139.914 610.914 140.25 610.5 140.25C610.086 140.25 609.75 139.914 609.75 139.5V138C609.75 137.558 609.662 137.138 609.504 136.756C609.345 136.374 609.527 135.935 609.909 135.776Z" fill="white"/>
<path d="M590.5 141.75C590.914 141.75 591.25 142.086 591.25 142.5V145.5C591.25 145.914 590.914 146.25 590.5 146.25C590.086 146.25 589.75 145.914 589.75 145.5V142.5C589.75 142.086 590.086 141.75 590.5 141.75Z" fill="white"/>
<path d="M610.5 141.75C610.914 141.75 611.25 142.086 611.25 142.5V145.5C611.25 145.914 610.914 146.25 610.5 146.25C610.086 146.25 609.75 145.914 609.75 145.5V142.5C609.75 142.086 610.086 141.75 610.5 141.75Z" fill="white"/>
<path d="M590.5 147.75C590.914 147.75 591.25 148.086 591.25 148.5V150C591.25 150.442 591.338 150.862 591.496 151.244C591.655 151.626 591.473 152.065 591.091 152.224C590.708 152.383 590.269 152.201 590.111 151.818C589.878 151.257 589.75 150.643 589.75 150V148.5C589.75 148.086 590.086 147.75 590.5 147.75Z" fill="white"/>
<path d="M610.5 147.75C610.914 147.75 611.25 148.086 611.25 148.5V150C611.25 150.643 611.122 151.257 610.889 151.818C610.731 152.201 610.292 152.383 609.909 152.224C609.527 152.065 609.345 151.626 609.504 151.244C609.662 150.862 609.75 150.442 609.75 150V148.5C609.75 148.086 610.086 147.75 610.5 147.75Z" fill="white"/>
<path d="M592.276 153.409C592.435 153.027 592.874 152.845 593.256 153.004C593.638 153.162 594.058 153.25 594.5 153.25H596C596.414 153.25 596.75 153.586 596.75 154C596.75 154.414 596.414 154.75 596 154.75H594.5C593.857 154.75 593.243 154.622 592.682 154.389C592.299 154.231 592.117 153.792 592.276 153.409Z" fill="white"/>
<path d="M608.724 153.409C608.883 153.792 608.701 154.231 608.318 154.389C607.757 154.622 607.143 154.75 606.5 154.75H605C604.586 154.75 604.25 154.414 604.25 154C604.25 153.586 604.586 153.25 605 153.25H606.5C606.942 153.25 607.362 153.162 607.744 153.004C608.126 152.845 608.565 153.027 608.724 153.409Z" fill="white"/>
<path d="M598.25 154C598.25 153.586 598.586 153.25 599 153.25H602C602.414 153.25 602.75 153.586 602.75 154C602.75 154.414 602.414 154.75 602 154.75H599C598.586 154.75 598.25 154.414 598.25 154Z" fill="white"/>
<path d="M609.03 136.591C609.323 136.298 609.323 135.823 609.03 135.53C608.737 135.237 608.263 135.237 607.97 135.53L606.973 136.527C606.681 136.819 606.681 137.294 606.973 137.587C607.266 137.88 607.741 137.88 608.034 137.587L609.03 136.591Z" fill="white"/>
<path d="M606.042 139.58C606.335 139.287 606.335 138.812 606.042 138.519C605.749 138.226 605.274 138.226 604.981 138.519L602.989 140.511C602.696 140.804 602.696 141.279 602.989 141.572C603.282 141.865 603.756 141.865 604.049 141.572L606.042 139.58Z" fill="white"/>
<path d="M602.057 143.564C602.35 143.272 602.35 142.797 602.057 142.504C601.764 142.211 601.289 142.211 600.996 142.504L600.5 143L600.004 142.504C599.711 142.211 599.236 142.211 598.943 142.504C598.65 142.797 598.65 143.272 598.943 143.564L599.439 144.061L599.004 144.496C598.711 144.789 598.711 145.264 599.004 145.557C599.297 145.85 599.772 145.85 600.064 145.557L600.5 145.121L600.936 145.557C601.228 145.85 601.703 145.85 601.996 145.557C602.289 145.264 602.289 144.789 601.996 144.496L601.561 144.061L602.057 143.564Z" fill="white"/>
<path d="M598.072 147.549C598.365 147.256 598.365 146.782 598.072 146.489C597.779 146.196 597.304 146.196 597.011 146.489L595.019 148.481C594.726 148.774 594.726 149.249 595.019 149.542C595.312 149.835 595.787 149.835 596.08 149.542L598.072 147.549Z" fill="white"/>
<path d="M594.087 151.534C594.38 151.241 594.38 150.766 594.087 150.473C593.794 150.181 593.319 150.181 593.027 150.473L592.03 151.47C591.737 151.763 591.737 152.237 592.03 152.53C592.323 152.823 592.798 152.823 593.091 152.53L594.087 151.534Z" fill="white"/>
<path d="M607.909 152.53C608.202 152.823 608.677 152.823 608.97 152.53C609.263 152.237 609.263 151.763 608.97 151.47L607.973 150.473C607.681 150.181 607.206 150.181 606.913 150.473C606.62 150.766 606.62 151.241 606.913 151.534L607.909 152.53Z" fill="white"/>
<path d="M604.92 149.542C605.213 149.835 605.688 149.835 605.981 149.542C606.274 149.249 606.274 148.774 605.981 148.481L603.989 146.489C603.696 146.196 603.221 146.196 602.928 146.489C602.635 146.782 602.635 147.256 602.928 147.549L604.92 149.542Z" fill="white"/>
<path d="M596.951 141.572C597.244 141.865 597.718 141.865 598.011 141.572C598.304 141.279 598.304 140.804 598.011 140.511L596.019 138.519C595.726 138.226 595.251 138.226 594.958 138.519C594.665 138.812 594.665 139.287 594.958 139.58L596.951 141.572Z" fill="white"/>
<path d="M592.966 137.587C593.259 137.88 593.734 137.88 594.027 137.587C594.319 137.294 594.319 136.819 594.027 136.527L593.03 135.53C592.737 135.237 592.263 135.237 591.97 135.53C591.677 135.823 591.677 136.298 591.97 136.591L592.966 137.587Z" fill="white"/>
<path d="M597.556 138.889C597.854 138.799 598.171 138.75 598.5 138.75H599.25C599.664 138.75 600 138.414 600 138C600 137.586 599.664 137.25 599.25 137.25H598.5C598.022 137.25 597.558 137.321 597.121 137.453C596.725 137.574 596.501 137.992 596.621 138.389C596.741 138.785 597.16 139.009 597.556 138.889Z" fill="white"/>
<path d="M601.75 137.25C601.336 137.25 601 137.586 601 138C601 138.414 601.336 138.75 601.75 138.75H602.5C602.829 138.75 603.146 138.799 603.444 138.889C603.84 139.009 604.259 138.785 604.379 138.389C604.499 137.992 604.275 137.574 603.879 137.453C603.442 137.321 602.978 137.25 602.5 137.25H601.75Z" fill="white"/>
<path d="M595.389 141.056C595.509 140.66 595.285 140.241 594.889 140.121C594.492 140.001 594.074 140.225 593.953 140.621C593.821 141.058 593.75 141.522 593.75 142V142.75C593.75 143.164 594.086 143.5 594.5 143.5C594.914 143.5 595.25 143.164 595.25 142.75V142C595.25 141.671 595.299 141.354 595.389 141.056Z" fill="white"/>
<path d="M607.047 140.621C606.926 140.225 606.508 140.001 606.111 140.121C605.715 140.241 605.491 140.66 605.611 141.056C605.701 141.354 605.75 141.671 605.75 142V142.75C605.75 143.164 606.086 143.5 606.5 143.5C606.914 143.5 607.25 143.164 607.25 142.75V142C607.25 141.522 607.179 141.058 607.047 140.621Z" fill="white"/>
<path d="M595.25 145.25C595.25 144.836 594.914 144.5 594.5 144.5C594.086 144.5 593.75 144.836 593.75 145.25V146C593.75 146.478 593.821 146.942 593.953 147.379C594.074 147.775 594.492 147.999 594.889 147.879C595.285 147.759 595.509 147.34 595.389 146.944C595.299 146.646 595.25 146.329 595.25 146V145.25Z" fill="white"/>
<path d="M607.25 145.25C607.25 144.836 606.914 144.5 606.5 144.5C606.086 144.5 605.75 144.836 605.75 145.25V146C605.75 146.329 605.701 146.646 605.611 146.944C605.491 147.34 605.715 147.759 606.111 147.879C606.508 147.999 606.926 147.775 607.047 147.379C607.179 146.942 607.25 146.478 607.25 146V145.25Z" fill="white"/>
<path d="M597.556 149.111C597.16 148.991 596.741 149.215 596.621 149.611C596.501 150.008 596.725 150.426 597.121 150.547C597.558 150.679 598.022 150.75 598.5 150.75H599.25C599.664 150.75 600 150.414 600 150C600 149.586 599.664 149.25 599.25 149.25H598.5C598.171 149.25 597.854 149.201 597.556 149.111Z" fill="white"/>
<path d="M603.879 150.547C604.275 150.426 604.499 150.008 604.379 149.611C604.259 149.215 603.84 148.991 603.444 149.111C603.146 149.201 602.829 149.25 602.5 149.25H601.75C601.336 149.25 601 149.586 601 150C601 150.414 601.336 150.75 601.75 150.75H602.5C602.978 150.75 603.442 150.679 603.879 150.547Z" fill="white"/>
<path d="M631.847 143.989C631.847 145.716 631.573 147.006 631.026 147.858C630.484 148.711 629.652 149.137 628.531 149.137C627.456 149.137 626.638 148.701 626.077 147.831C625.517 146.956 625.236 145.675 625.236 143.989C625.236 142.248 625.507 140.956 626.05 140.113C626.592 139.27 627.419 138.849 628.531 138.849C629.616 138.849 630.438 139.288 630.999 140.168C631.564 141.048 631.847 142.321 631.847 143.989ZM626.385 143.989C626.385 145.443 626.556 146.503 626.897 147.168C627.239 147.829 627.784 148.159 628.531 148.159C629.288 148.159 629.835 147.824 630.172 147.154C630.514 146.48 630.685 145.425 630.685 143.989C630.685 142.554 630.514 141.503 630.172 140.838C629.835 140.168 629.288 139.833 628.531 139.833C627.784 139.833 627.239 140.163 626.897 140.824C626.556 141.48 626.385 142.535 626.385 143.989ZM641.685 139.006L637.959 149H636.824L640.55 139.006H641.685ZM650.853 149H649.745V141.877C649.745 141.285 649.763 140.724 649.8 140.195C649.704 140.291 649.597 140.391 649.479 140.496C649.36 140.601 648.818 141.045 647.852 141.829L647.25 141.05L649.896 139.006H650.853V149ZM661.534 143.989C661.534 145.716 661.261 147.006 660.714 147.858C660.172 148.711 659.34 149.137 658.219 149.137C657.143 149.137 656.325 148.701 655.765 147.831C655.204 146.956 654.924 145.675 654.924 143.989C654.924 142.248 655.195 140.956 655.737 140.113C656.28 139.27 657.107 138.849 658.219 138.849C659.303 138.849 660.126 139.288 660.687 140.168C661.252 141.048 661.534 142.321 661.534 143.989ZM656.072 143.989C656.072 145.443 656.243 146.503 656.585 147.168C656.927 147.829 657.471 148.159 658.219 148.159C658.975 148.159 659.522 147.824 659.859 147.154C660.201 146.48 660.372 145.425 660.372 143.989C660.372 142.554 660.201 141.503 659.859 140.838C659.522 140.168 658.975 139.833 658.219 139.833C657.471 139.833 656.927 140.163 656.585 140.824C656.243 141.48 656.072 142.535 656.072 143.989ZM669.796 143.989C669.796 145.716 669.522 147.006 668.976 147.858C668.433 148.711 667.602 149.137 666.48 149.137C665.405 149.137 664.587 148.701 664.026 147.831C663.466 146.956 663.186 145.675 663.186 143.989C663.186 142.248 663.457 140.956 663.999 140.113C664.541 139.27 665.368 138.849 666.48 138.849C667.565 138.849 668.388 139.288 668.948 140.168C669.513 141.048 669.796 142.321 669.796 143.989ZM664.334 143.989C664.334 145.443 664.505 146.503 664.847 147.168C665.188 147.829 665.733 148.159 666.48 148.159C667.237 148.159 667.784 147.824 668.121 147.154C668.463 146.48 668.634 145.425 668.634 143.989C668.634 142.554 668.463 141.503 668.121 140.838C667.784 140.168 667.237 139.833 666.48 139.833C665.733 139.833 665.188 140.163 664.847 140.824C664.505 141.48 664.334 142.535 664.334 143.989Z" fill="white"/>
</g>
<g clip-path="url(#clip3_431_73268)">
<g clip-path="url(#clip4_431_73268)">
<path d="M290.5 164C290.5 161.791 292.291 160 294.5 160H666.5C668.709 160 670.5 161.791 670.5 164V204C670.5 206.209 668.709 208 666.5 208H290.5V164Z" fill="#171C1E"/>
<path d="M310.95 189H309.788V180.038H306.623V179.006H314.115V180.038H310.95V189ZM318.87 189.137C317.763 189.137 316.888 188.799 316.245 188.125C315.607 187.451 315.288 186.514 315.288 185.315C315.288 184.108 315.584 183.148 316.177 182.438C316.774 181.727 317.574 181.371 318.576 181.371C319.515 181.371 320.258 181.681 320.805 182.301C321.352 182.916 321.625 183.729 321.625 184.741V185.459H316.464C316.487 186.339 316.708 187.006 317.127 187.462C317.551 187.918 318.146 188.146 318.911 188.146C319.718 188.146 320.515 187.977 321.304 187.64V188.651C320.903 188.825 320.522 188.948 320.162 189.021C319.807 189.098 319.376 189.137 318.87 189.137ZM318.562 182.321C317.961 182.321 317.48 182.517 317.12 182.909C316.765 183.301 316.555 183.843 316.491 184.536H320.408C320.408 183.821 320.249 183.274 319.93 182.896C319.611 182.513 319.155 182.321 318.562 182.321ZM325.621 185.165L323.017 181.508H324.309L326.284 184.379L328.253 181.508H329.531L326.927 185.165L329.668 189H328.383L326.284 185.965L324.165 189H322.88L325.621 185.165ZM333.828 188.2C334.029 188.2 334.222 188.187 334.409 188.159C334.596 188.127 334.744 188.095 334.854 188.063V188.932C334.73 188.991 334.548 189.039 334.307 189.075C334.07 189.116 333.855 189.137 333.664 189.137C332.215 189.137 331.49 188.373 331.49 186.847V182.39H330.417V181.843L331.49 181.371L331.969 179.771H332.625V181.508H334.799V182.39H332.625V186.799C332.625 187.25 332.732 187.596 332.946 187.838C333.16 188.079 333.454 188.2 333.828 188.2ZM340.665 189V179.006H341.827V189H340.665ZM349.781 189V184.153C349.781 183.543 349.642 183.087 349.364 182.786C349.086 182.485 348.651 182.335 348.059 182.335C347.275 182.335 346.701 182.547 346.336 182.971C345.971 183.395 345.789 184.094 345.789 185.069V189H344.654V181.508H345.577L345.762 182.533H345.816C346.049 182.164 346.375 181.879 346.794 181.679C347.213 181.474 347.68 181.371 348.195 181.371C349.098 181.371 349.777 181.59 350.232 182.027C350.688 182.46 350.916 183.155 350.916 184.112V189H349.781ZM356.99 189.137C356.503 189.137 356.056 189.048 355.65 188.87C355.249 188.688 354.912 188.41 354.639 188.036H354.557C354.611 188.474 354.639 188.888 354.639 189.28V192.363H353.504V181.508H354.427L354.584 182.533H354.639C354.93 182.123 355.27 181.827 355.657 181.645C356.045 181.462 356.489 181.371 356.99 181.371C357.984 181.371 358.749 181.711 359.287 182.39C359.829 183.069 360.101 184.021 360.101 185.247C360.101 186.478 359.825 187.435 359.273 188.118C358.727 188.797 357.965 189.137 356.99 189.137ZM356.826 182.335C356.061 182.335 355.507 182.547 355.165 182.971C354.823 183.395 354.648 184.069 354.639 184.994V185.247C354.639 186.3 354.814 187.054 355.165 187.51C355.516 187.961 356.079 188.187 356.854 188.187C357.501 188.187 358.007 187.924 358.371 187.4C358.74 186.876 358.925 186.154 358.925 185.233C358.925 184.299 358.74 183.584 358.371 183.087C358.007 182.586 357.492 182.335 356.826 182.335ZM363.406 181.508V186.368C363.406 186.979 363.545 187.435 363.823 187.735C364.101 188.036 364.536 188.187 365.129 188.187C365.913 188.187 366.485 187.972 366.845 187.544C367.209 187.116 367.392 186.416 367.392 185.445V181.508H368.526V189H367.59L367.426 187.995H367.364C367.132 188.364 366.808 188.647 366.394 188.843C365.983 189.039 365.514 189.137 364.985 189.137C364.074 189.137 363.39 188.92 362.935 188.487C362.483 188.054 362.258 187.362 362.258 186.409V181.508H363.406ZM373.609 188.2C373.81 188.2 374.004 188.187 374.19 188.159C374.377 188.127 374.525 188.095 374.635 188.063V188.932C374.512 188.991 374.329 189.039 374.088 189.075C373.851 189.116 373.637 189.137 373.445 189.137C371.996 189.137 371.271 188.373 371.271 186.847V182.39H370.198V181.843L371.271 181.371L371.75 179.771H372.406V181.508H374.58V182.39H372.406V186.799C372.406 187.25 372.513 187.596 372.728 187.838C372.942 188.079 373.236 188.2 373.609 188.2Z" fill="white"/>
<rect width="48" height="48" transform="translate(622.5 160)" fill="#6A6E79"/>
<path d="M656.4 178.34L652.16 174.1C651.38 173.32 650.11 173.32 649.33 174.1L636.6 186.83C635.82 187.61 635.82 188.88 636.6 189.66L640.84 193.9C641.62 194.68 642.89 194.68 643.67 193.9L656.4 181.17C657.18 180.39 657.18 179.12 656.4 178.34ZM642.26 188.95L639.08 185.77L639.79 185.06L642.97 188.24C643.17 188.44 643.17 188.75 642.97 188.95C642.77 189.15 642.46 189.15 642.26 188.95ZM645.09 186.12L641.91 182.94L642.62 182.23L645.8 185.41C646 185.61 646 185.92 645.8 186.12C645.6 186.32 645.29 186.32 645.09 186.12ZM647.92 183.29L644.74 180.11L645.45 179.4L648.63 182.58C648.83 182.78 648.83 183.09 648.63 183.29C648.43 183.49 648.12 183.49 647.92 183.29ZM650.75 180.46L647.57 177.28L648.28 176.57L651.46 179.75C651.66 179.95 651.66 180.26 651.46 180.46C651.26 180.66 650.95 180.66 650.75 180.46Z" fill="white"/>
</g>
<path d="M294.5 161H666.5C668.157 161 669.5 162.343 669.5 164V204C669.5 205.657 668.157 207 666.5 207H291.5V164C291.5 162.343 292.843 161 294.5 161Z" stroke="#DA212C" stroke-width="2"/>
</g>
<path d="M290.5 208H446.5V238C446.5 239.105 445.605 240 444.5 240H292.5C291.395 240 290.5 239.105 290.5 238V208Z" fill="#DA212C"/>
<g clip-path="url(#clip5_431_73268)">
<path d="M306.5 214C300.98 214 296.5 218.48 296.5 224C296.5 229.52 300.98 234 306.5 234C312.02 234 316.5 229.52 316.5 224C316.5 218.48 312.02 214 306.5 214ZM306.5 232C302.09 232 298.5 228.41 298.5 224C298.5 219.59 302.09 216 306.5 216C310.91 216 314.5 219.59 314.5 224C314.5 228.41 310.91 232 306.5 232ZM310.8 219.71C310.41 219.32 309.78 219.32 309.39 219.71L306.51 222.59L303.63 219.71C303.24 219.32 302.61 219.32 302.22 219.71C301.83 220.1 301.83 220.73 302.22 221.12L305.1 224L302.22 226.88C301.83 227.27 301.83 227.9 302.22 228.29C302.42 228.49 302.67 228.58 302.93 228.58C303.19 228.58 303.44 228.48 303.64 228.29L306.52 225.41L309.4 228.29C309.6 228.49 309.85 228.58 310.11 228.58C310.37 228.58 310.62 228.48 310.82 228.29C311.21 227.9 311.21 227.27 310.82 226.88L307.94 224L310.82 221.12C311.21 220.73 311.21 220.1 310.82 219.71H310.8Z" fill="white"/>
<path d="M323.812 229V219.006H325.453V229H323.812ZM332.022 221.289C332.874 221.289 333.537 221.51 334.011 221.952C334.49 222.39 334.729 223.094 334.729 224.064V229H333.123V224.365C333.123 223.777 333.002 223.338 332.76 223.046C332.519 222.75 332.145 222.602 331.639 222.602C330.906 222.602 330.395 222.827 330.108 223.278C329.825 223.729 329.684 224.383 329.684 225.24V229H328.078V221.433H329.329L329.554 222.458H329.643C329.807 222.194 330.01 221.977 330.252 221.809C330.498 221.635 330.771 221.506 331.072 221.419C331.377 221.332 331.694 221.289 332.022 221.289ZM338.858 229L335.98 221.433H337.682L339.24 225.876C339.341 226.159 339.432 226.464 339.514 226.792C339.596 227.12 339.653 227.396 339.685 227.619H339.739C339.771 227.387 339.833 227.109 339.924 226.785C340.015 226.457 340.109 226.154 340.204 225.876L341.763 221.433H343.458L340.58 229H338.858ZM347.723 221.289C348.68 221.289 349.403 221.501 349.89 221.925C350.383 222.349 350.629 223.009 350.629 223.907V229H349.487L349.179 227.927H349.125C348.911 228.2 348.69 228.426 348.462 228.604C348.234 228.781 347.97 228.913 347.669 229C347.373 229.091 347.01 229.137 346.582 229.137C346.131 229.137 345.727 229.055 345.372 228.891C345.016 228.722 344.736 228.467 344.531 228.125C344.326 227.783 344.223 227.35 344.223 226.826C344.223 226.047 344.513 225.461 345.092 225.069C345.675 224.677 346.554 224.461 347.73 224.42L349.043 224.372V223.976C349.043 223.451 348.92 223.078 348.674 222.854C348.432 222.631 348.09 222.52 347.648 222.52C347.27 222.52 346.903 222.574 346.548 222.684C346.192 222.793 345.846 222.927 345.509 223.087L344.989 221.952C345.358 221.756 345.777 221.597 346.247 221.474C346.721 221.351 347.213 221.289 347.723 221.289ZM349.036 225.384L348.058 225.418C347.256 225.445 346.693 225.582 346.37 225.828C346.046 226.074 345.885 226.411 345.885 226.84C345.885 227.214 345.996 227.487 346.22 227.66C346.443 227.829 346.737 227.913 347.101 227.913C347.657 227.913 348.118 227.756 348.482 227.441C348.851 227.122 349.036 226.655 349.036 226.04V225.384ZM354.641 229H353.028V218.363H354.641V229ZM358.694 221.433V229H357.088V221.433H358.694ZM357.901 218.534C358.147 218.534 358.359 218.6 358.537 218.732C358.719 218.865 358.811 219.092 358.811 219.416C358.811 219.735 358.719 219.963 358.537 220.1C358.359 220.232 358.147 220.298 357.901 220.298C357.646 220.298 357.43 220.232 357.252 220.1C357.079 219.963 356.992 219.735 356.992 219.416C356.992 219.092 357.079 218.865 357.252 218.732C357.43 218.6 357.646 218.534 357.901 218.534ZM363.691 229.137C362.789 229.137 362.064 228.809 361.517 228.152C360.975 227.492 360.704 226.519 360.704 225.233C360.704 223.935 360.979 222.952 361.531 222.287C362.087 221.622 362.818 221.289 363.725 221.289C364.108 221.289 364.443 221.341 364.73 221.446C365.017 221.547 365.263 221.683 365.468 221.856C365.678 222.03 365.856 222.223 366.002 222.438H366.077C366.054 222.296 366.027 222.093 365.995 221.829C365.967 221.56 365.954 221.312 365.954 221.084V218.363H367.567V229H366.309L366.022 227.968H365.954C365.817 228.187 365.644 228.385 365.434 228.562C365.229 228.736 364.983 228.875 364.696 228.979C364.413 229.084 364.078 229.137 363.691 229.137ZM364.142 227.831C364.83 227.831 365.316 227.633 365.598 227.236C365.881 226.84 366.027 226.245 366.036 225.452V225.24C366.036 224.393 365.899 223.743 365.626 223.292C365.352 222.836 364.853 222.608 364.129 222.608C363.55 222.608 363.108 222.843 362.802 223.312C362.502 223.777 362.351 224.427 362.351 225.261C362.351 226.095 362.502 226.733 362.802 227.175C363.108 227.612 363.554 227.831 364.142 227.831ZM375.598 229H373.971V219.006H379.618V220.387H375.598V223.504H379.358V224.878H375.598V229ZM384.437 221.289C385.111 221.289 385.69 221.428 386.173 221.706C386.656 221.984 387.028 222.378 387.287 222.889C387.547 223.399 387.677 224.01 387.677 224.721V225.582H382.625C382.644 226.316 382.84 226.881 383.213 227.277C383.592 227.674 384.12 227.872 384.799 227.872C385.282 227.872 385.715 227.826 386.098 227.735C386.485 227.64 386.884 227.501 387.294 227.318V228.624C386.916 228.802 386.531 228.932 386.139 229.014C385.747 229.096 385.278 229.137 384.731 229.137C383.988 229.137 383.334 228.993 382.769 228.706C382.208 228.414 381.769 227.981 381.45 227.407C381.135 226.833 380.978 226.12 380.978 225.268C380.978 224.42 381.121 223.7 381.409 223.107C381.696 222.515 382.099 222.064 382.619 221.754C383.138 221.444 383.744 221.289 384.437 221.289ZM384.437 222.499C383.931 222.499 383.521 222.663 383.206 222.991C382.897 223.319 382.714 223.8 382.66 224.434H386.105C386.1 224.055 386.037 223.72 385.913 223.429C385.795 223.137 385.613 222.909 385.367 222.745C385.125 222.581 384.815 222.499 384.437 222.499ZM392.653 221.289C393.328 221.289 393.907 221.428 394.39 221.706C394.873 221.984 395.244 222.378 395.504 222.889C395.764 223.399 395.894 224.01 395.894 224.721V225.582H390.842C390.86 226.316 391.056 226.881 391.43 227.277C391.808 227.674 392.337 227.872 393.016 227.872C393.499 227.872 393.932 227.826 394.314 227.735C394.702 227.64 395.101 227.501 395.511 227.318V228.624C395.132 228.802 394.747 228.932 394.355 229.014C393.964 229.096 393.494 229.137 392.947 229.137C392.204 229.137 391.55 228.993 390.985 228.706C390.425 228.414 389.985 227.981 389.666 227.407C389.352 226.833 389.194 226.12 389.194 225.268C389.194 224.42 389.338 223.7 389.625 223.107C389.912 222.515 390.315 222.064 390.835 221.754C391.354 221.444 391.961 221.289 392.653 221.289ZM392.653 222.499C392.147 222.499 391.737 222.663 391.423 222.991C391.113 223.319 390.931 223.8 390.876 224.434H394.321C394.317 224.055 394.253 223.72 394.13 223.429C394.011 223.137 393.829 222.909 393.583 222.745C393.341 222.581 393.032 222.499 392.653 222.499ZM400.398 229.137C399.496 229.137 398.771 228.809 398.224 228.152C397.682 227.492 397.411 226.519 397.411 225.233C397.411 223.935 397.686 222.952 398.238 222.287C398.794 221.622 399.525 221.289 400.432 221.289C400.815 221.289 401.15 221.341 401.437 221.446C401.724 221.547 401.97 221.683 402.175 221.856C402.385 222.03 402.563 222.223 402.709 222.438H402.784C402.761 222.296 402.734 222.093 402.702 221.829C402.674 221.56 402.661 221.312 402.661 221.084V218.363H404.274V229H403.016L402.729 227.968H402.661C402.524 228.187 402.351 228.385 402.141 228.562C401.936 228.736 401.69 228.875 401.403 228.979C401.12 229.084 400.785 229.137 400.398 229.137ZM400.849 227.831C401.537 227.831 402.023 227.633 402.305 227.236C402.588 226.84 402.734 226.245 402.743 225.452V225.24C402.743 224.393 402.606 223.743 402.333 223.292C402.059 222.836 401.56 222.608 400.836 222.608C400.257 222.608 399.815 222.843 399.509 223.312C399.209 223.777 399.058 224.427 399.058 225.261C399.058 226.095 399.209 226.733 399.509 227.175C399.815 227.612 400.261 227.831 400.849 227.831ZM408.334 218.363V220.927C408.334 221.223 408.325 221.515 408.307 221.802C408.293 222.084 408.279 222.305 408.266 222.465H408.334C408.539 222.137 408.824 221.861 409.189 221.638C409.558 221.41 410.029 221.296 410.604 221.296C411.502 221.296 412.224 221.626 412.771 222.287C413.318 222.943 413.591 223.916 413.591 225.206C413.591 226.063 413.466 226.783 413.215 227.366C412.964 227.95 412.611 228.392 412.155 228.692C411.704 228.989 411.173 229.137 410.563 229.137C409.988 229.137 409.524 229.032 409.168 228.822C408.817 228.608 408.542 228.36 408.341 228.077H408.225L407.931 229H406.728V218.363H408.334ZM410.18 222.602C409.724 222.602 409.362 222.693 409.093 222.875C408.829 223.057 408.637 223.331 408.519 223.695C408.4 224.055 408.339 224.513 408.334 225.069V225.213C408.334 226.056 408.466 226.701 408.731 227.147C409 227.594 409.487 227.817 410.194 227.817C410.754 227.817 411.185 227.592 411.486 227.141C411.786 226.685 411.937 226.033 411.937 225.186C411.937 224.329 411.786 223.684 411.486 223.251C411.189 222.818 410.754 222.602 410.18 222.602ZM418.567 221.289C419.524 221.289 420.247 221.501 420.734 221.925C421.226 222.349 421.472 223.009 421.472 223.907V229H420.331L420.023 227.927H419.969C419.754 228.2 419.533 228.426 419.305 228.604C419.078 228.781 418.813 228.913 418.512 229C418.216 229.091 417.854 229.137 417.426 229.137C416.974 229.137 416.571 229.055 416.216 228.891C415.86 228.722 415.58 228.467 415.375 228.125C415.17 227.783 415.067 227.35 415.067 226.826C415.067 226.047 415.357 225.461 415.935 225.069C416.519 224.677 417.398 224.461 418.574 224.42L419.887 224.372V223.976C419.887 223.451 419.763 223.078 419.517 222.854C419.276 222.631 418.934 222.52 418.492 222.52C418.114 222.52 417.747 222.574 417.391 222.684C417.036 222.793 416.69 222.927 416.352 223.087L415.833 221.952C416.202 221.756 416.621 221.597 417.091 221.474C417.565 221.351 418.057 221.289 418.567 221.289ZM419.88 225.384L418.902 225.418C418.1 225.445 417.537 225.582 417.214 225.828C416.89 226.074 416.728 226.411 416.728 226.84C416.728 227.214 416.84 227.487 417.063 227.66C417.287 227.829 417.581 227.913 417.945 227.913C418.501 227.913 418.961 227.756 419.326 227.441C419.695 227.122 419.88 226.655 419.88 226.04V225.384ZM426.92 229.137C426.205 229.137 425.585 228.998 425.061 228.72C424.537 228.442 424.134 228.016 423.851 227.441C423.568 226.867 423.427 226.138 423.427 225.254C423.427 224.333 423.582 223.581 423.892 222.998C424.202 222.415 424.63 221.984 425.177 221.706C425.729 221.428 426.36 221.289 427.071 221.289C427.522 221.289 427.93 221.335 428.294 221.426C428.663 221.512 428.976 221.619 429.231 221.747L428.752 223.032C428.474 222.918 428.19 222.823 427.898 222.745C427.606 222.668 427.326 222.629 427.057 222.629C426.615 222.629 426.246 222.727 425.95 222.923C425.658 223.119 425.439 223.41 425.293 223.798C425.152 224.185 425.081 224.666 425.081 225.24C425.081 225.796 425.154 226.266 425.3 226.648C425.446 227.027 425.662 227.314 425.95 227.51C426.237 227.701 426.59 227.797 427.009 227.797C427.424 227.797 427.795 227.747 428.123 227.646C428.452 227.546 428.761 227.416 429.053 227.257V228.651C428.766 228.815 428.458 228.936 428.13 229.014C427.802 229.096 427.399 229.137 426.92 229.137ZM432.587 218.363V223.504C432.587 223.736 432.578 223.992 432.56 224.27C432.541 224.543 432.523 224.8 432.505 225.042H432.539C432.658 224.882 432.799 224.696 432.963 224.481C433.132 224.267 433.291 224.08 433.441 223.921L435.752 221.433H437.598L434.569 224.687L437.796 229H435.909L433.489 225.678L432.587 226.45V229H430.98V218.363H432.587Z" fill="white"/>
</g>
<defs>
<clipPath id="clip0_431_73268">
<rect x="290.5" y="20" width="380" height="48" rx="4" fill="white"/>
</clipPath>
<clipPath id="clip1_431_73268">
<rect width="64" height="24" fill="white" transform="translate(350.5 32)"/>
</clipPath>
<clipPath id="clip2_431_73268">
<rect width="380" height="32" fill="white" transform="translate(290.5 128)"/>
</clipPath>
<clipPath id="clip3_431_73268">
<path d="M290.5 164C290.5 161.791 292.291 160 294.5 160H666.5C668.709 160 670.5 161.791 670.5 164V204C670.5 206.209 668.709 208 666.5 208H290.5V164Z" fill="white"/>
</clipPath>
<clipPath id="clip4_431_73268">
<path d="M290.5 164C290.5 161.791 292.291 160 294.5 160H666.5C668.709 160 670.5 161.791 670.5 164V204C670.5 206.209 668.709 208 666.5 208H290.5V164Z" fill="white"/>
</clipPath>
<clipPath id="clip5_431_73268">
<rect width="144" height="24" fill="white" transform="translate(294.5 212)"/>
</clipPath>
</defs>
</svg>
