<svg width="1087" height="243" viewBox="0 0 1087 243" fill="none" xmlns="http://www.w3.org/2000/svg"><rect width="1087" height="242.667" fill="#CBCDD6"/><rect width="100" height="242.667" transform="translate(1)" fill="#C4C4C4"/><rect width="100" height="40" transform="translate(1 1)" fill="#F1F1F6"/><path d="M18.1572 23.2246C18.1572 24.127 17.8314 24.8379 17.1797 25.3574C16.5326 25.877 15.6302 26.1367 14.4727 26.1367C13.4062 26.1367 12.4629 25.9362 11.6426 25.5352V23.5664C12.3171 23.8672 12.8867 24.0791 13.3516 24.2021C13.821 24.3252 14.2493 24.3867 14.6367 24.3867C15.1016 24.3867 15.457 24.2979 15.7031 24.1201C15.9538 23.9424 16.0791 23.6781 16.0791 23.3271C16.0791 23.1312 16.0244 22.958 15.915 22.8076C15.8057 22.6527 15.6439 22.5046 15.4297 22.3633C15.2201 22.222 14.7894 21.9964 14.1377 21.6865C13.527 21.3994 13.069 21.1237 12.7637 20.8594C12.4583 20.5951 12.2145 20.2874 12.0322 19.9365C11.8499 19.5856 11.7588 19.1755 11.7588 18.7061C11.7588 17.8219 12.0573 17.127 12.6543 16.6211C13.2559 16.1152 14.0853 15.8623 15.1426 15.8623C15.6621 15.8623 16.1566 15.9238 16.626 16.0469C17.0999 16.1699 17.5944 16.3431 18.1094 16.5664L17.4258 18.2139C16.8926 17.9951 16.4505 17.8424 16.0996 17.7559C15.7533 17.6693 15.4115 17.626 15.0742 17.626C14.6732 17.626 14.3656 17.7194 14.1514 17.9062C13.9372 18.0931 13.8301 18.3369 13.8301 18.6377C13.8301 18.8245 13.8734 18.9886 13.96 19.1299C14.0465 19.2666 14.1833 19.401 14.3701 19.5332C14.5615 19.6608 15.0104 19.8932 15.7168 20.2305C16.651 20.6771 17.2913 21.126 17.6377 21.5771C17.984 22.0238 18.1572 22.5729 18.1572 23.2246ZM22.9404 24.4756C23.305 24.4756 23.7425 24.3958 24.2529 24.2363V25.7881C23.7334 26.0205 23.0954 26.1367 22.3389 26.1367C21.5049 26.1367 20.8965 25.9271 20.5137 25.5078C20.1354 25.084 19.9463 24.4505 19.9463 23.6074V19.9229H18.9482V19.041L20.0967 18.3438L20.6982 16.7305H22.0312V18.3574H24.1709V19.9229H22.0312V23.6074C22.0312 23.9036 22.1133 24.1224 22.2773 24.2637C22.4459 24.4049 22.667 24.4756 22.9404 24.4756ZM30.5742 26L30.1709 24.9609H30.1162C29.7653 25.403 29.403 25.7106 29.0293 25.8838C28.6601 26.0524 28.1771 26.1367 27.58 26.1367C26.8463 26.1367 26.2675 25.9271 25.8437 25.5078C25.4244 25.0885 25.2148 24.4915 25.2148 23.7168C25.2148 22.9056 25.4974 22.3086 26.0625 21.9258C26.6321 21.5384 27.4889 21.3242 28.6328 21.2832L29.959 21.2422V20.9072C29.959 20.1325 29.5625 19.7451 28.7695 19.7451C28.1588 19.7451 27.441 19.9297 26.6162 20.2988L25.9257 18.8906C26.8053 18.4303 27.7806 18.2002 28.8515 18.2002C29.8769 18.2002 30.6631 18.4235 31.2099 18.8701C31.7568 19.3167 32.0302 19.9958 32.0302 20.9072V26H30.5742ZM29.959 22.459L29.1523 22.4863C28.5462 22.5046 28.095 22.6139 27.7988 22.8145C27.5026 23.015 27.3545 23.3203 27.3545 23.7305C27.3545 24.3184 27.6917 24.6123 28.3662 24.6123C28.8493 24.6123 29.2343 24.4733 29.5215 24.1953C29.8131 23.9173 29.959 23.5482 29.959 23.0879V22.459ZM37.3193 24.4756C37.6839 24.4756 38.1214 24.3958 38.6318 24.2363V25.7881C38.1123 26.0205 37.4742 26.1367 36.7177 26.1367C35.8837 26.1367 35.2753 25.9271 34.8925 25.5078C34.5143 25.084 34.3251 24.4505 34.3251 23.6074V19.9229H33.3271V19.041L34.4755 18.3438L35.0771 16.7305H36.4101V18.3574H38.5498V19.9229H36.4101V23.6074C36.4101 23.9036 36.4921 24.1224 36.6562 24.2637C36.8248 24.4049 37.0459 24.4756 37.3193 24.4756ZM43.2646 19.6973C42.8225 19.6973 42.4762 19.8385 42.2255 20.1211C41.9749 20.3991 41.8313 20.7956 41.7949 21.3105H44.7206C44.7115 20.7956 44.5771 20.3991 44.3173 20.1211C44.0576 19.8385 43.7066 19.6973 43.2646 19.6973ZM43.5585 26.1367C42.3281 26.1367 41.3665 25.7972 40.6738 25.1182C39.9811 24.4391 39.6347 23.4775 39.6347 22.2334C39.6347 20.9528 39.9537 19.9639 40.5917 19.2666C41.2343 18.5648 42.1207 18.2139 43.2509 18.2139C44.331 18.2139 45.1718 18.5215 45.7734 19.1367C46.3749 19.752 46.6757 20.6019 46.6757 21.6865V22.6982H41.747C41.7698 23.2907 41.9452 23.7533 42.2734 24.0859C42.6015 24.4186 43.0618 24.585 43.6542 24.585C44.1145 24.585 44.5497 24.5371 44.9599 24.4414C45.3701 24.3457 45.7984 24.193 46.2451 23.9834V25.5967C45.8805 25.779 45.4908 25.9134 45.0761 26C44.6614 26.0911 44.1555 26.1367 43.5585 26.1367Z" fill="#252A2E"/><rect width="100" height="99.333" transform="translate(1 42)" fill="#fff"/><path d="M20.5498 91.574C20.5498 93.2192 20.0804 94.4792 19.1416 95.3542C18.2074 96.2292 16.8561 96.6667 15.0879 96.6667H12.2578V86.6726H15.3955C17.027 86.6726 18.2939 87.1033 19.1963 87.9646C20.0986 88.8259 20.5498 90.0291 20.5498 91.574ZM18.3486 91.6287C18.3486 89.4822 17.4007 88.4089 15.5049 88.4089H14.377V94.9167H15.2861C17.3278 94.9167 18.3486 93.8207 18.3486 91.6287ZM25.5381 90.364C25.096 90.364 24.7497 90.5053 24.499 90.7878C24.2484 91.0658 24.1048 91.4623 24.0683 91.9773H26.9941C26.985 91.4623 26.8506 91.0658 26.5908 90.7878C26.331 90.5053 25.9801 90.364 25.5381 90.364ZM25.832 96.8035C24.6015 96.8035 23.64 96.4639 22.9473 95.7849C22.2545 95.1059 21.9082 94.1443 21.9082 92.9001C21.9082 91.6195 22.2272 90.6306 22.8652 89.9333C23.5078 89.2315 24.3942 88.8806 25.5244 88.8806C26.6045 88.8806 27.4453 89.1882 28.0469 89.8035C28.6484 90.4187 28.9492 91.2686 28.9492 92.3533V93.365H24.0205C24.0433 93.9574 24.2187 94.42 24.5469 94.7527C24.875 95.0854 25.3353 95.2517 25.9277 95.2517C26.388 95.2517 26.8232 95.2039 27.2334 95.1082C27.6435 95.0125 28.0719 94.8598 28.5185 94.6501V96.2634C28.154 96.4457 27.7643 96.5802 27.3496 96.6667C26.9349 96.7579 26.429 96.8035 25.832 96.8035ZM34.7851 90.5896H32.9804V96.6667H30.8955V90.5896H29.747V89.5847L30.8955 89.0242V88.4636C30.8955 87.5932 31.1097 86.9574 31.5381 86.5564C31.9664 86.1554 32.6523 85.9548 33.5957 85.9548C34.3157 85.9548 34.956 86.0619 35.5166 86.2761L34.9834 87.8074C34.5641 87.6752 34.1767 87.6091 33.8213 87.6091C33.525 87.6091 33.3108 87.698 33.1787 87.8757C33.0465 88.0489 32.9804 88.2722 32.9804 88.5457V89.0242H34.7851V90.5896ZM40.7578 96.6667L40.3544 95.6277H40.2998C39.9488 96.0697 39.5865 96.3774 39.2128 96.5505C38.8437 96.7192 38.3606 96.8035 37.7636 96.8035C37.0299 96.8035 36.4511 96.5938 36.0273 96.1746C35.608 95.7553 35.3984 95.1583 35.3984 94.3835C35.3984 93.5723 35.6809 92.9753 36.246 92.5925C36.8157 92.2052 37.6725 91.991 38.8164 91.95L40.1425 91.9089V91.574C40.1425 90.7992 39.746 90.4119 38.9531 90.4119C38.3424 90.4119 37.6246 90.5964 36.7998 90.9656L36.1093 89.5574C36.9889 89.0971 37.9641 88.8669 39.0351 88.8669C40.0605 88.8669 40.8466 89.0903 41.3935 89.5369C41.9404 89.9835 42.2138 90.6625 42.2138 91.574V96.6667H40.7578ZM40.1425 93.1257L39.3359 93.1531C38.7298 93.1713 38.2786 93.2807 37.9824 93.4812C37.6862 93.6817 37.538 93.9871 37.538 94.3972C37.538 94.9851 37.8753 95.2791 38.5498 95.2791C39.0328 95.2791 39.4179 95.1401 39.705 94.8621C39.9967 94.5841 40.1425 94.2149 40.1425 93.7546V93.1257ZM49.6972 96.6667L49.4169 95.6892H49.3076C49.0842 96.0447 48.7675 96.3204 48.3574 96.5164C47.9472 96.7078 47.4801 96.8035 46.956 96.8035C46.0582 96.8035 45.3814 96.5642 44.9257 96.0857C44.47 95.6026 44.2421 94.9099 44.2421 94.0076V89.0242H46.3271V93.488C46.3271 94.0395 46.4251 94.4542 46.621 94.7322C46.817 95.0056 47.1292 95.1423 47.5576 95.1423C48.1409 95.1423 48.5624 94.9486 48.8222 94.5613C49.082 94.1694 49.2119 93.5222 49.2119 92.6199V89.0242H51.2968V96.6667H49.6972ZM55.4853 96.6667H53.4003V86.03H55.4853V96.6667ZM60.8153 95.1423C61.1799 95.1423 61.6174 95.0626 62.1278 94.9031V96.4548C61.6083 96.6873 60.9703 96.8035 60.2138 96.8035C59.3798 96.8035 58.7714 96.5938 58.3886 96.1746C58.0103 95.7507 57.8212 95.1173 57.8212 94.2742V90.5896H56.8231V89.7078L57.9716 89.0105L58.5731 87.3972H59.9062V89.0242H62.0458V90.5896H59.9062V94.2742C59.9062 94.5704 59.9882 94.7891 60.1522 94.9304C60.3209 95.0717 60.5419 95.1423 60.8153 95.1423Z" fill="#252A2E"/><rect width="100" height="99.333" transform="translate(1 142.333)" fill="#fff"/><path d="M14.3428 197H12.2578V187.006H17.9863V188.742H14.3428V191.319H17.7334V193.049H14.3428V197ZM21.3545 193.165C21.3545 193.922 21.4775 194.493 21.7236 194.881C21.9743 195.268 22.3799 195.462 22.9404 195.462C23.4964 195.462 23.8952 195.271 24.1367 194.888C24.3828 194.5 24.5058 193.926 24.5058 193.165C24.5058 192.409 24.3828 191.841 24.1367 191.463C23.8906 191.085 23.4873 190.896 22.9267 190.896C22.3708 190.896 21.9697 191.085 21.7236 191.463C21.4775 191.837 21.3545 192.404 21.3545 193.165ZM26.6387 193.165C26.6387 194.409 26.3105 195.382 25.6543 196.084C24.998 196.786 24.0843 197.137 22.9131 197.137C22.1793 197.137 21.5322 196.977 20.9717 196.658C20.4111 196.335 19.9805 195.872 19.6797 195.271C19.3789 194.669 19.2285 193.967 19.2285 193.165C19.2285 191.916 19.5543 190.946 20.206 190.253C20.8577 189.56 21.7737 189.214 22.9541 189.214C23.6878 189.214 24.3349 189.373 24.8955 189.692C25.456 190.011 25.8867 190.469 26.1875 191.066C26.4883 191.663 26.6387 192.363 26.6387 193.165ZM31.3808 197.137C29.0019 197.137 27.8125 195.831 27.8125 193.22C27.8125 191.921 28.136 190.93 28.7832 190.246C29.4303 189.558 30.3577 189.214 31.5654 189.214C32.4495 189.214 33.2425 189.387 33.9443 189.733L33.3291 191.347C33.0009 191.215 32.6956 191.107 32.4131 191.025C32.1305 190.939 31.848 190.896 31.5654 190.896C30.4808 190.896 29.9384 191.666 29.9384 193.206C29.9384 194.701 30.4808 195.448 31.5654 195.448C31.9664 195.448 32.3379 195.396 32.6797 195.291C33.0215 195.182 33.3633 195.013 33.705 194.785V196.569C33.3678 196.784 33.026 196.932 32.6797 197.014C32.3379 197.096 31.9049 197.137 31.3808 197.137ZM40.8125 197L40.5322 196.022H40.4228C40.1995 196.378 39.8828 196.654 39.4726 196.85C39.0625 197.041 38.5953 197.137 38.0712 197.137C37.1735 197.137 36.4967 196.897 36.041 196.419C35.5852 195.936 35.3574 195.243 35.3574 194.341V189.357H37.4423V193.821C37.4423 194.373 37.5403 194.787 37.7363 195.065C37.9322 195.339 38.2444 195.476 38.6728 195.476C39.2561 195.476 39.6777 195.282 39.9375 194.895C40.1972 194.503 40.3271 193.855 40.3271 192.953V189.357H42.4121V197H40.8125ZM49.8476 194.73C49.8476 195.514 49.5742 196.111 49.0273 196.521C48.485 196.932 47.6715 197.137 46.5869 197.137C46.0309 197.137 45.5569 197.098 45.165 197.021C44.7731 196.948 44.4062 196.838 44.0644 196.692V194.97C44.4518 195.152 44.887 195.305 45.3701 195.428C45.8577 195.551 46.2861 195.612 46.6552 195.612C47.4117 195.612 47.79 195.394 47.79 194.956C47.79 194.792 47.7398 194.66 47.6396 194.56C47.5393 194.455 47.3661 194.339 47.1201 194.211C46.874 194.079 46.5458 193.926 46.1357 193.753C45.5478 193.507 45.1148 193.279 44.8369 193.069C44.5634 192.86 44.3629 192.62 44.2353 192.352C44.1122 192.078 44.0507 191.743 44.0507 191.347C44.0507 190.668 44.3128 190.144 44.8369 189.774C45.3655 189.401 46.1129 189.214 47.079 189.214C47.9996 189.214 48.8951 189.414 49.7656 189.815L49.1367 191.319C48.7538 191.155 48.3961 191.021 48.0634 190.916C47.7307 190.811 47.3912 190.759 47.0449 190.759C46.4296 190.759 46.122 190.925 46.122 191.258C46.122 191.445 46.22 191.606 46.416 191.743C46.6165 191.88 47.0517 192.083 47.7216 192.352C48.3186 192.593 48.7561 192.819 49.0341 193.028C49.3121 193.238 49.5172 193.479 49.6494 193.753C49.7815 194.026 49.8476 194.352 49.8476 194.73Z" fill="#252A2E"/><rect width="707.244" height="40" transform="translate(102 1)" fill="#F1F1F6"/><path d="M119.014 26H113.258V16.0059H119.014V17.7422H115.377V19.9365H118.761V21.6729H115.377V24.25H119.014V26ZM122.423 22.0967L119.962 18.3574H122.327L123.811 20.791L125.308 18.3574H127.673L125.185 22.0967L127.789 26H125.417L123.811 23.3818L122.197 26H119.832L122.423 22.0967ZM133.721 26L133.317 24.9609H133.263C132.912 25.403 132.549 25.7106 132.176 25.8838C131.807 26.0524 131.324 26.1367 130.727 26.1367C129.993 26.1367 129.414 25.9271 128.99 25.5078C128.571 25.0885 128.361 24.4915 128.361 23.7168C128.361 22.9056 128.644 22.3086 129.209 21.9258C129.779 21.5384 130.635 21.3242 131.779 21.2832L133.105 21.2422V20.9072C133.105 20.1325 132.709 19.7451 131.916 19.7451C131.305 19.7451 130.588 19.9297 129.763 20.2988L129.072 18.8906C129.952 18.4303 130.927 18.2002 131.998 18.2002C133.023 18.2002 133.81 18.4235 134.356 18.8701C134.903 19.3167 135.177 19.9958 135.177 20.9072V26H133.721ZM133.105 22.459L132.299 22.4863C131.693 22.5046 131.242 22.6139 130.945 22.8145C130.649 23.015 130.501 23.3203 130.501 23.7305C130.501 24.3184 130.838 24.6123 131.513 24.6123C131.996 24.6123 132.381 24.4733 132.668 24.1953C132.96 23.9173 133.105 23.5482 133.105 23.0879V22.459ZM144.089 26H142.004V21.5361C142.004 20.9847 141.91 20.5723 141.724 20.2988C141.541 20.0208 141.252 19.8818 140.855 19.8818C140.322 19.8818 139.935 20.0778 139.693 20.4697C139.452 20.8617 139.331 21.5065 139.331 22.4043V26H137.246V18.3574H138.839L139.119 19.335H139.235C139.44 18.984 139.737 18.7106 140.124 18.5146C140.511 18.3141 140.956 18.2139 141.457 18.2139C142.601 18.2139 143.376 18.5876 143.781 19.335H143.966C144.171 18.9795 144.472 18.7038 144.868 18.5078C145.269 18.3118 145.72 18.2139 146.222 18.2139C147.088 18.2139 147.741 18.4372 148.184 18.8838C148.63 19.3258 148.853 20.0368 148.853 21.0166V26H146.762V21.5361C146.762 20.9847 146.668 20.5723 146.481 20.2988C146.299 20.0208 146.01 19.8818 145.613 19.8818C145.103 19.8818 144.72 20.0641 144.465 20.4287C144.214 20.7933 144.089 21.3721 144.089 22.165V26ZM155.113 26.1367C154.215 26.1367 153.511 25.8109 153.001 25.1592H152.892C152.964 25.7972 153.001 26.1663 153.001 26.2666V29.3633H150.916V18.3574H152.611L152.905 19.3486H153.001C153.489 18.5921 154.211 18.2139 155.168 18.2139C156.07 18.2139 156.777 18.5625 157.287 19.2598C157.797 19.957 158.053 20.9255 158.053 22.165C158.053 22.9808 157.932 23.6895 157.69 24.291C157.453 24.8926 157.114 25.3506 156.672 25.665C156.23 25.9795 155.71 26.1367 155.113 26.1367ZM154.498 19.8818C153.983 19.8818 153.607 20.0413 153.37 20.3604C153.133 20.6748 153.01 21.1966 153.001 21.9258V22.1514C153.001 22.9717 153.122 23.5596 153.363 23.915C153.609 24.2705 153.997 24.4482 154.525 24.4482C155.46 24.4482 155.927 23.6781 155.927 22.1377C155.927 21.3857 155.81 20.8229 155.578 20.4492C155.35 20.071 154.99 19.8818 154.498 19.8818ZM161.776 26H159.691V15.3633H161.776V26ZM167.052 19.6973C166.61 19.6973 166.263 19.8385 166.013 20.1211C165.762 20.3991 165.618 20.7956 165.582 21.3105H168.508C168.499 20.7956 168.364 20.3991 168.104 20.1211C167.845 19.8385 167.494 19.6973 167.052 19.6973ZM167.346 26.1367C166.115 26.1367 165.154 25.7972 164.461 25.1182C163.768 24.4391 163.422 23.4775 163.422 22.2334C163.422 20.9528 163.741 19.9639 164.379 19.2666C165.021 18.5648 165.908 18.2139 167.038 18.2139C168.118 18.2139 168.959 18.5215 169.56 19.1367C170.162 19.752 170.463 20.6019 170.463 21.6865V22.6982H165.534C165.557 23.2907 165.732 23.7533 166.06 24.0859C166.389 24.4186 166.849 24.585 167.441 24.585C167.902 24.585 168.337 24.5371 168.747 24.4414C169.157 24.3457 169.586 24.193 170.032 23.9834V25.5967C169.668 25.779 169.278 25.9134 168.863 26C168.448 26.0911 167.943 26.1367 167.346 26.1367Z" fill="#252A2E"/><rect width="707.244" height="99.333" transform="translate(102 42)" fill="#fff"/><path d="M131.698 88.3328H129.911V79.7664H134.821V81.2546H131.698V83.4636H134.604V84.946H131.698V88.3328ZM137.708 85.0457C137.708 85.6941 137.814 86.1843 138.025 86.5164C138.24 86.8484 138.587 87.0144 139.068 87.0144C139.544 87.0144 139.886 86.8503 140.093 86.5222C140.304 86.1902 140.409 85.698 140.409 85.0457C140.409 84.3972 140.304 83.9109 140.093 83.5867C139.882 83.2625 139.536 83.1003 139.056 83.1003C138.579 83.1003 138.236 83.2625 138.025 83.5867C137.814 83.907 137.708 84.3933 137.708 85.0457ZM142.238 85.0457C142.238 86.1121 141.956 86.946 141.394 87.5476C140.831 88.1492 140.048 88.45 139.044 88.45C138.415 88.45 137.861 88.3132 137.38 88.0398C136.9 87.7625 136.531 87.366 136.273 86.8503C136.015 86.3347 135.886 85.7332 135.886 85.0457C135.886 83.9753 136.165 83.1433 136.724 82.5496C137.282 81.9558 138.068 81.6589 139.079 81.6589C139.708 81.6589 140.263 81.7957 140.743 82.0691C141.224 82.3425 141.593 82.7351 141.851 83.2468C142.109 83.7585 142.238 84.3582 142.238 85.0457ZM149.689 88.3328H147.902V84.5066C147.902 84.0339 147.818 83.6804 147.65 83.446C147.482 83.2078 147.214 83.0886 146.847 83.0886C146.347 83.0886 145.986 83.2566 145.763 83.5925C145.541 83.9246 145.429 84.4773 145.429 85.2507V88.3328H143.642V81.782H145.007L145.248 82.6199H145.347C145.546 82.3035 145.82 82.0652 146.168 81.905C146.519 81.741 146.918 81.6589 147.363 81.6589C148.125 81.6589 148.703 81.866 149.097 82.28C149.492 82.6902 149.689 83.2839 149.689 84.0613V88.3328ZM154.217 87.0261C154.529 87.0261 154.904 86.9578 155.342 86.821V88.1511C154.896 88.3503 154.349 88.45 153.701 88.45C152.986 88.45 152.465 88.2703 152.137 87.9109C151.812 87.5476 151.65 87.0046 151.65 86.282V83.1238H150.795V82.3679L151.779 81.7703L152.295 80.3875H153.437V81.782H155.271V83.1238H153.437V86.282C153.437 86.5359 153.508 86.7234 153.648 86.8445C153.793 86.9656 153.982 87.0261 154.217 87.0261ZM156.02 85.8484V84.3835H159.166V85.8484H156.02ZM164.965 86.3875C164.965 87.0593 164.731 87.571 164.262 87.9226C163.797 88.2742 163.1 88.45 162.17 88.45C161.694 88.45 161.287 88.4167 160.952 88.3503C160.616 88.2878 160.301 88.1941 160.008 88.0691V86.5925C160.34 86.7488 160.713 86.8796 161.127 86.9851C161.545 87.0906 161.912 87.1433 162.229 87.1433C162.877 87.1433 163.202 86.9558 163.202 86.5808C163.202 86.4402 163.159 86.3269 163.073 86.241C162.987 86.1511 162.838 86.0515 162.627 85.9421C162.416 85.8289 162.135 85.698 161.784 85.5496C161.28 85.3386 160.909 85.1433 160.67 84.9636C160.436 84.7839 160.264 84.5789 160.155 84.3484C160.049 84.114 159.996 83.8269 159.996 83.4871C159.996 82.905 160.221 82.4558 160.67 82.1394C161.123 81.8191 161.764 81.6589 162.592 81.6589C163.381 81.6589 164.149 81.8308 164.895 82.1746L164.356 83.4636C164.028 83.323 163.721 83.2078 163.436 83.1179C163.151 83.0281 162.86 82.9832 162.563 82.9832C162.036 82.9832 161.772 83.1257 161.772 83.4109C161.772 83.571 161.856 83.7097 162.024 83.8269C162.196 83.9441 162.569 84.1179 163.143 84.3484C163.655 84.5554 164.03 84.7488 164.268 84.9285C164.506 85.1082 164.682 85.3152 164.795 85.5496C164.909 85.7839 164.965 86.0632 164.965 86.3875ZM166.212 80.0886C166.212 79.5066 166.536 79.2156 167.184 79.2156C167.833 79.2156 168.157 79.5066 168.157 80.0886C168.157 80.366 168.075 80.5828 167.911 80.739C167.751 80.8914 167.508 80.9675 167.184 80.9675C166.536 80.9675 166.212 80.6746 166.212 80.0886ZM168.075 88.3328H166.288V81.782H168.075V88.3328ZM174.442 88.3328H169.268V87.2781L172.304 83.1472H169.45V81.782H174.337V82.9421L171.384 86.9675H174.442V88.3328ZM178.384 82.9304C178.005 82.9304 177.708 83.0515 177.493 83.2937C177.278 83.532 177.155 83.8718 177.124 84.3132H179.632C179.624 83.8718 179.509 83.532 179.286 83.2937C179.064 83.0515 178.763 82.9304 178.384 82.9304ZM178.636 88.45C177.581 88.45 176.757 88.1589 176.163 87.5769C175.57 86.9949 175.273 86.1707 175.273 85.1042C175.273 84.0066 175.546 83.1589 176.093 82.5613C176.644 81.9597 177.403 81.6589 178.372 81.6589C179.298 81.6589 180.019 81.9226 180.534 82.45C181.05 82.9773 181.308 83.7058 181.308 84.6355V85.5027H177.083C177.103 86.0105 177.253 86.407 177.534 86.6921C177.816 86.9773 178.21 87.1199 178.718 87.1199C179.112 87.1199 179.486 87.0789 179.837 86.9968C180.189 86.9148 180.556 86.7839 180.939 86.6042V87.9871C180.626 88.1433 180.292 88.2585 179.937 88.3328C179.581 88.4109 179.148 88.45 178.636 88.45ZM182.437 87.4949C182.437 87.1667 182.525 86.9187 182.701 86.7507C182.876 86.5828 183.132 86.4988 183.468 86.4988C183.792 86.4988 184.042 86.5847 184.218 86.7566C184.398 86.9285 184.488 87.1746 184.488 87.4949C184.488 87.8035 184.398 88.0476 184.218 88.2273C184.039 88.4031 183.789 88.491 183.468 88.491C183.14 88.491 182.886 88.405 182.706 88.2332C182.527 88.0574 182.437 87.8113 182.437 87.4949ZM182.437 82.655C182.437 82.3269 182.525 82.0789 182.701 81.9109C182.876 81.7429 183.132 81.6589 183.468 81.6589C183.792 81.6589 184.042 81.7449 184.218 81.9167C184.398 82.0886 184.488 82.3347 184.488 82.655C184.488 82.9714 184.396 83.2175 184.212 83.3933C184.033 83.5652 183.785 83.6511 183.468 83.6511C183.14 83.6511 182.886 83.5652 182.706 83.3933C182.527 83.2214 182.437 82.9753 182.437 82.655ZM192.336 88.3328H191.387V82.2273C191.387 81.7195 191.402 81.239 191.434 80.7859C191.352 80.8679 191.26 80.9539 191.158 81.0437C191.057 81.1335 190.592 81.5144 189.764 82.1863L189.248 81.5183L191.516 79.7664H192.336V88.3328ZM201.563 86.364H200.291V88.3328H199.36V86.364H195.194V85.5144L199.26 79.7195H200.291V85.4792H201.563V86.364ZM199.36 85.4792V82.6316C199.36 82.073 199.379 81.4421 199.418 80.739H199.371C199.184 81.114 199.008 81.4246 198.844 81.6707L196.166 85.4792H199.36ZM206.911 86.5808C206.911 87.1785 206.688 87.6394 206.243 87.9636C205.797 88.2878 205.172 88.45 204.368 88.45C203.516 88.45 202.852 88.3152 202.376 88.0457V87.1433C202.684 87.2996 203.014 87.4226 203.366 87.5125C203.721 87.6023 204.063 87.6472 204.391 87.6472C204.899 87.6472 205.29 87.5671 205.563 87.407C205.836 87.2429 205.973 86.9949 205.973 86.6628C205.973 86.4128 205.864 86.2 205.645 86.0242C205.43 85.8445 205.008 85.6335 204.379 85.3914C203.782 85.1687 203.356 84.9753 203.102 84.8113C202.852 84.6433 202.665 84.4539 202.54 84.2429C202.418 84.032 202.358 83.78 202.358 83.4871C202.358 82.9636 202.571 82.5515 202.997 82.2507C203.422 81.946 204.006 81.7937 204.749 81.7937C205.44 81.7937 206.116 81.9343 206.776 82.2156L206.43 83.0066C205.786 82.741 205.202 82.6082 204.678 82.6082C204.217 82.6082 203.87 82.6804 203.635 82.825C203.401 82.9695 203.284 83.1687 203.284 83.4226C203.284 83.5945 203.327 83.741 203.413 83.8621C203.502 83.9832 203.645 84.0984 203.84 84.2078C204.036 84.3171 204.411 84.4753 204.965 84.6824C205.727 84.9597 206.241 85.239 206.506 85.5203C206.776 85.8015 206.911 86.155 206.911 86.5808ZM211.415 88.45C210.997 88.45 210.614 88.3738 210.266 88.2214C209.923 88.0652 209.634 87.8269 209.399 87.5066H209.329C209.376 87.8816 209.399 88.2371 209.399 88.573V91.2156H208.427V81.9109H209.218L209.352 82.7898H209.399C209.649 82.4382 209.94 82.1843 210.272 82.0281C210.604 81.8718 210.985 81.7937 211.415 81.7937C212.266 81.7937 212.923 82.0847 213.384 82.6667C213.848 83.2488 214.081 84.0652 214.081 85.116C214.081 86.1707 213.845 86.991 213.372 87.5769C212.903 88.1589 212.251 88.45 211.415 88.45ZM211.274 82.6199C210.618 82.6199 210.143 82.8015 209.85 83.1648C209.557 83.5281 209.407 84.1062 209.399 84.8992V85.116C209.399 86.0183 209.55 86.6648 209.85 87.0554C210.151 87.4421 210.634 87.6355 211.298 87.6355C211.852 87.6355 212.286 87.4109 212.598 86.9617C212.915 86.5125 213.073 85.8933 213.073 85.1042C213.073 84.3035 212.915 83.6902 212.598 83.2644C212.286 82.8347 211.845 82.6199 211.274 82.6199ZM129.911 99.7664H132.577C133.792 99.7664 134.673 99.9402 135.22 100.288C135.771 100.632 136.046 101.18 136.046 101.934C136.046 102.446 135.925 102.866 135.683 103.194C135.444 103.522 135.126 103.719 134.728 103.786V103.844C135.271 103.966 135.661 104.192 135.899 104.524C136.142 104.856 136.263 105.298 136.263 105.848C136.263 106.63 135.979 107.239 135.413 107.677C134.851 108.114 134.085 108.333 133.116 108.333H129.911V99.7664ZM131.728 103.159H132.782C133.274 103.159 133.63 103.083 133.849 102.93C134.071 102.778 134.183 102.526 134.183 102.175C134.183 101.846 134.062 101.612 133.819 101.471C133.581 101.327 133.202 101.255 132.683 101.255H131.728V103.159ZM131.728 104.6V106.833H132.911C133.411 106.833 133.78 106.737 134.019 106.546C134.257 106.354 134.376 106.061 134.376 105.667C134.376 104.956 133.868 104.6 132.853 104.6H131.728ZM139.185 105.046C139.185 105.694 139.29 106.184 139.501 106.516C139.716 106.848 140.064 107.014 140.544 107.014C141.021 107.014 141.363 106.85 141.57 106.522C141.781 106.19 141.886 105.698 141.886 105.046C141.886 104.397 141.781 103.911 141.57 103.587C141.359 103.262 141.013 103.1 140.532 103.1C140.056 103.1 139.712 103.262 139.501 103.587C139.29 103.907 139.185 104.393 139.185 105.046ZM143.714 105.046C143.714 106.112 143.433 106.946 142.87 107.548C142.308 108.149 141.525 108.45 140.521 108.45C139.892 108.45 139.337 108.313 138.857 108.04C138.376 107.762 138.007 107.366 137.749 106.85C137.491 106.335 137.363 105.733 137.363 105.046C137.363 103.975 137.642 103.143 138.2 102.55C138.759 101.956 139.544 101.659 140.556 101.659C141.185 101.659 141.74 101.796 142.22 102.069C142.7 102.343 143.07 102.735 143.327 103.247C143.585 103.759 143.714 104.358 143.714 105.046ZM148.775 101.659C149.017 101.659 149.218 101.677 149.378 101.712L149.244 103.387C149.099 103.348 148.923 103.329 148.716 103.329C148.146 103.329 147.701 103.475 147.38 103.768C147.064 104.061 146.906 104.471 146.906 104.999V108.333H145.119V101.782H146.472L146.736 102.884H146.824C147.027 102.516 147.3 102.221 147.644 101.999C147.992 101.772 148.369 101.659 148.775 101.659ZM152.57 108.45C151.801 108.45 151.195 108.151 150.754 107.553C150.316 106.956 150.097 106.128 150.097 105.069C150.097 103.995 150.32 103.159 150.765 102.561C151.215 101.96 151.832 101.659 152.617 101.659C153.441 101.659 154.07 101.979 154.504 102.62H154.562C154.472 102.132 154.428 101.696 154.428 101.313V99.2156H156.221V108.333H154.849L154.504 107.483H154.428C154.021 108.128 153.402 108.45 152.57 108.45ZM153.197 107.026C153.654 107.026 153.988 106.893 154.199 106.628C154.414 106.362 154.531 105.911 154.551 105.274V105.081C154.551 104.378 154.441 103.874 154.222 103.569C154.008 103.264 153.656 103.112 153.168 103.112C152.769 103.112 152.459 103.282 152.236 103.622C152.017 103.958 151.908 104.448 151.908 105.093C151.908 105.737 152.019 106.221 152.242 106.546C152.465 106.866 152.783 107.026 153.197 107.026ZM160.731 102.93C160.352 102.93 160.055 103.052 159.84 103.294C159.625 103.532 159.502 103.872 159.471 104.313H161.979C161.971 103.872 161.856 103.532 161.633 103.294C161.41 103.052 161.109 102.93 160.731 102.93ZM160.983 108.45C159.928 108.45 159.104 108.159 158.51 107.577C157.916 106.995 157.619 106.171 157.619 105.104C157.619 104.007 157.893 103.159 158.44 102.561C158.99 101.96 159.75 101.659 160.719 101.659C161.645 101.659 162.365 101.923 162.881 102.45C163.397 102.977 163.654 103.706 163.654 104.635V105.503H159.43C159.449 106.01 159.6 106.407 159.881 106.692C160.162 106.977 160.557 107.12 161.065 107.12C161.459 107.12 161.832 107.079 162.184 106.997C162.535 106.915 162.902 106.784 163.285 106.604V107.987C162.973 108.143 162.639 108.259 162.283 108.333C161.928 108.411 161.494 108.45 160.983 108.45ZM168.692 101.659C168.934 101.659 169.135 101.677 169.295 101.712L169.161 103.387C169.016 103.348 168.84 103.329 168.633 103.329C168.063 103.329 167.618 103.475 167.297 103.768C166.981 104.061 166.823 104.471 166.823 104.999V108.333H165.036V101.782H166.389L166.653 102.884H166.741C166.944 102.516 167.217 102.221 167.561 101.999C167.909 101.772 168.286 101.659 168.692 101.659ZM169.833 105.848V104.384H172.979V105.848H169.833ZM177.864 101.659C178.106 101.659 178.308 101.677 178.468 101.712L178.333 103.387C178.188 103.348 178.013 103.329 177.806 103.329C177.235 103.329 176.79 103.475 176.47 103.768C176.153 104.061 175.995 104.471 175.995 104.999V108.333H174.208V101.782H175.561L175.825 102.884H175.913C176.116 102.516 176.39 102.221 176.733 101.999C177.081 101.772 177.458 101.659 177.864 101.659ZM183.745 108.333L183.4 107.442H183.353C183.052 107.821 182.741 108.085 182.421 108.233C182.105 108.378 181.691 108.45 181.179 108.45C180.55 108.45 180.054 108.27 179.691 107.911C179.331 107.552 179.152 107.04 179.152 106.376C179.152 105.68 179.394 105.169 179.878 104.841C180.366 104.509 181.101 104.325 182.081 104.29L183.218 104.255V103.968C183.218 103.303 182.878 102.971 182.198 102.971C181.675 102.971 181.06 103.13 180.353 103.446L179.761 102.239C180.515 101.844 181.351 101.647 182.269 101.647C183.148 101.647 183.821 101.839 184.29 102.221C184.759 102.604 184.993 103.186 184.993 103.968V108.333H183.745ZM183.218 105.298L182.527 105.321C182.007 105.337 181.62 105.43 181.366 105.602C181.112 105.774 180.986 106.036 180.986 106.387C180.986 106.891 181.275 107.143 181.853 107.143C182.267 107.143 182.597 107.024 182.843 106.786C183.093 106.548 183.218 106.231 183.218 105.837V105.298ZM188.841 108.45C188.072 108.45 187.466 108.151 187.025 107.553C186.587 106.956 186.369 106.128 186.369 105.069C186.369 103.995 186.591 103.159 187.037 102.561C187.486 101.96 188.103 101.659 188.888 101.659C189.712 101.659 190.341 101.979 190.775 102.62H190.833C190.744 102.132 190.699 101.696 190.699 101.313V99.2156H192.492V108.333H191.121L190.775 107.483H190.699C190.292 108.128 189.673 108.45 188.841 108.45ZM189.468 107.026C189.925 107.026 190.259 106.893 190.47 106.628C190.685 106.362 190.802 105.911 190.822 105.274V105.081C190.822 104.378 190.712 103.874 190.494 103.569C190.279 103.264 189.927 103.112 189.439 103.112C189.04 103.112 188.73 103.282 188.507 103.622C188.289 103.958 188.179 104.448 188.179 105.093C188.179 105.737 188.29 106.221 188.513 106.546C188.736 106.866 189.054 107.026 189.468 107.026ZM194.213 100.089C194.213 99.5066 194.537 99.2156 195.185 99.2156C195.834 99.2156 196.158 99.5066 196.158 100.089C196.158 100.366 196.076 100.583 195.912 100.739C195.752 100.891 195.509 100.968 195.185 100.968C194.537 100.968 194.213 100.675 194.213 100.089ZM196.076 108.333H194.289V101.782H196.076V108.333ZM202.525 108.333L202.285 107.495H202.191C202 107.8 201.729 108.036 201.377 108.204C201.025 108.368 200.625 108.45 200.176 108.45C199.406 108.45 198.826 108.245 198.436 107.835C198.045 107.421 197.85 106.827 197.85 106.053V101.782H199.637V105.608C199.637 106.081 199.721 106.436 199.889 106.675C200.057 106.909 200.324 107.026 200.691 107.026C201.191 107.026 201.553 106.86 201.775 106.528C201.998 106.192 202.109 105.637 202.109 104.864V101.782H203.896V108.333H202.525ZM210.27 106.387C210.27 107.059 210.035 107.571 209.567 107.923C209.102 108.274 208.405 108.45 207.475 108.45C206.998 108.45 206.592 108.417 206.256 108.35C205.92 108.288 205.606 108.194 205.313 108.069V106.593C205.645 106.749 206.018 106.88 206.432 106.985C206.85 107.091 207.217 107.143 207.533 107.143C208.182 107.143 208.506 106.956 208.506 106.581C208.506 106.44 208.463 106.327 208.377 106.241C208.291 106.151 208.143 106.052 207.932 105.942C207.721 105.829 207.44 105.698 207.088 105.55C206.584 105.339 206.213 105.143 205.975 104.964C205.74 104.784 205.569 104.579 205.459 104.348C205.354 104.114 205.301 103.827 205.301 103.487C205.301 102.905 205.526 102.456 205.975 102.139C206.428 101.819 207.069 101.659 207.897 101.659C208.686 101.659 209.453 101.831 210.199 102.175L209.66 103.464C209.332 103.323 209.026 103.208 208.74 103.118C208.455 103.028 208.164 102.983 207.867 102.983C207.34 102.983 207.076 103.126 207.076 103.411C207.076 103.571 207.16 103.71 207.328 103.827C207.5 103.944 207.873 104.118 208.448 104.348C208.959 104.555 209.334 104.749 209.573 104.928C209.811 105.108 209.987 105.315 210.1 105.55C210.213 105.784 210.27 106.063 210.27 106.387ZM211.34 107.495C211.34 107.167 211.428 106.919 211.604 106.751C211.78 106.583 212.036 106.499 212.372 106.499C212.696 106.499 212.946 106.585 213.122 106.757C213.301 106.928 213.391 107.175 213.391 107.495C213.391 107.803 213.301 108.048 213.122 108.227C212.942 108.403 212.692 108.491 212.372 108.491C212.043 108.491 211.79 108.405 211.61 108.233C211.43 108.057 211.34 107.811 211.34 107.495ZM211.34 102.655C211.34 102.327 211.428 102.079 211.604 101.911C211.78 101.743 212.036 101.659 212.372 101.659C212.696 101.659 212.946 101.745 213.122 101.917C213.301 102.089 213.391 102.335 213.391 102.655C213.391 102.971 213.299 103.218 213.116 103.393C212.936 103.565 212.688 103.651 212.372 103.651C212.043 103.651 211.79 103.565 211.61 103.393C211.43 103.221 211.34 102.975 211.34 102.655ZM223.671 106.364H222.399V108.333H221.468V106.364H217.302V105.514L221.368 99.7195H222.399V105.479H223.671V106.364ZM221.468 105.479V102.632C221.468 102.073 221.487 101.442 221.526 100.739H221.48C221.292 101.114 221.116 101.425 220.952 101.671L218.274 105.479H221.468ZM229.247 107.471H229.195C228.745 108.124 228.074 108.45 227.179 108.45C226.339 108.45 225.685 108.163 225.216 107.589C224.751 107.014 224.519 106.198 224.519 105.139C224.519 104.081 224.753 103.259 225.222 102.673C225.691 102.087 226.343 101.794 227.179 101.794C228.05 101.794 228.718 102.11 229.183 102.743H229.259L229.218 102.28L229.195 101.829V99.2156H230.167V108.333H229.376L229.247 107.471ZM227.302 107.635C227.966 107.635 228.447 107.456 228.744 107.096C229.044 106.733 229.195 106.149 229.195 105.344V105.139C229.195 104.229 229.042 103.581 228.738 103.194C228.437 102.803 227.954 102.608 227.29 102.608C226.72 102.608 226.283 102.831 225.978 103.276C225.677 103.718 225.527 104.343 225.527 105.151C225.527 105.971 225.677 106.591 225.978 107.009C226.279 107.427 226.72 107.635 227.302 107.635ZM235.152 108.45C234.734 108.45 234.351 108.374 234.004 108.221C233.66 108.065 233.371 107.827 233.136 107.507H233.066C233.113 107.882 233.136 108.237 233.136 108.573V111.216H232.164V101.911H232.955L233.089 102.79H233.136C233.386 102.438 233.677 102.184 234.009 102.028C234.341 101.872 234.722 101.794 235.152 101.794C236.004 101.794 236.66 102.085 237.121 102.667C237.586 103.249 237.818 104.065 237.818 105.116C237.818 106.171 237.582 106.991 237.109 107.577C236.64 108.159 235.988 108.45 235.152 108.45ZM235.011 102.62C234.355 102.62 233.88 102.802 233.588 103.165C233.295 103.528 233.144 104.106 233.136 104.899V105.116C233.136 106.018 233.287 106.665 233.588 107.055C233.888 107.442 234.371 107.635 235.035 107.635C235.589 107.635 236.023 107.411 236.336 106.962C236.652 106.512 236.81 105.893 236.81 105.104C236.81 104.303 236.652 103.69 236.336 103.264C236.023 102.835 235.582 102.62 235.011 102.62Z" fill="#252A2E"/><path d="M118 117.667V65.6667H256.777V75.7638L264 83.3367L256.777 90.4046V117.667H118Z" stroke="#CCC"/><path d="M288.777 96.6667H287.67V89.5437C287.67 88.9513 287.688 88.3907 287.725 87.8621C287.629 87.9578 287.522 88.058 287.403 88.1628C287.285 88.2677 286.743 88.712 285.776 89.4958L285.175 88.7166L287.82 86.6726H288.777V96.6667ZM292.617 92.3943C292.617 90.4301 292.998 88.9626 293.759 87.9919C294.524 87.0167 295.655 86.5291 297.149 86.5291C297.664 86.5291 298.07 86.5723 298.366 86.6589V87.6365C298.015 87.5225 297.614 87.4656 297.163 87.4656C296.092 87.4656 295.274 87.8005 294.709 88.4705C294.144 89.1358 293.834 90.184 293.779 91.615H293.861C294.363 90.8311 295.156 90.4392 296.24 90.4392C297.138 90.4392 297.844 90.7104 298.359 91.2527C298.879 91.795 299.139 92.531 299.139 93.4607C299.139 94.4998 298.854 95.3178 298.284 95.9148C297.719 96.5072 296.953 96.8035 295.987 96.8035C294.953 96.8035 294.133 96.4161 293.526 95.6414C292.92 94.8621 292.617 93.7797 292.617 92.3943ZM295.974 95.8396C296.621 95.8396 297.122 95.6368 297.478 95.2312C297.838 94.821 298.018 94.2309 298.018 93.4607C298.018 92.7999 297.851 92.2804 297.519 91.9021C297.186 91.5238 296.689 91.3347 296.028 91.3347C295.618 91.3347 295.242 91.419 294.9 91.5876C294.559 91.7563 294.285 91.9887 294.08 92.2849C293.88 92.5811 293.779 92.8888 293.779 93.2078C293.779 93.6772 293.87 94.1147 294.053 94.5203C294.235 94.9259 294.493 95.2472 294.825 95.4841C295.162 95.7211 295.545 95.8396 295.974 95.8396ZM306.048 95.6619H305.986C305.462 96.4229 304.678 96.8035 303.635 96.8035C302.655 96.8035 301.892 96.4685 301.345 95.7986C300.802 95.1287 300.531 94.1762 300.531 92.9412C300.531 91.7061 300.805 90.7468 301.352 90.0632C301.898 89.3796 302.66 89.0378 303.635 89.0378C304.651 89.0378 305.43 89.407 305.973 90.1453H306.062L306.014 89.6052L305.986 89.0789V86.03H307.121V96.6667H306.198L306.048 95.6619ZM303.778 95.8533C304.553 95.8533 305.114 95.6436 305.46 95.2244C305.811 94.8005 305.986 94.1192 305.986 93.1804V92.9412C305.986 91.8793 305.809 91.1228 305.453 90.6716C305.102 90.2159 304.539 89.988 303.765 89.988C303.099 89.988 302.589 90.2478 302.233 90.7673C301.883 91.2823 301.707 92.0115 301.707 92.9548C301.707 93.9119 301.883 94.6342 302.233 95.1218C302.584 95.6095 303.099 95.8533 303.778 95.8533ZM312.937 96.8035C312.449 96.8035 312.002 96.7146 311.597 96.5369C311.196 96.3546 310.858 96.0766 310.585 95.7029H310.503C310.558 96.1404 310.585 96.5551 310.585 96.947V100.03H309.45V89.1746H310.373L310.53 90.2H310.585C310.877 89.7898 311.216 89.4936 311.604 89.3113C311.991 89.129 312.435 89.0378 312.937 89.0378C313.93 89.0378 314.696 89.3774 315.233 90.0564C315.776 90.7354 316.047 91.6879 316.047 92.9138C316.047 94.1443 315.771 95.1013 315.22 95.7849C314.673 96.4639 313.912 96.8035 312.937 96.8035ZM312.772 90.0017C312.007 90.0017 311.453 90.2136 311.111 90.6375C310.77 91.0613 310.594 91.7358 310.585 92.6609V92.9138C310.585 93.9666 310.76 94.7208 311.111 95.1765C311.462 95.6277 312.025 95.8533 312.8 95.8533C313.447 95.8533 313.953 95.5912 314.317 95.0671C314.687 94.5431 314.871 93.8207 314.871 92.9001C314.871 91.9659 314.687 91.2504 314.317 90.7537C313.953 90.2524 313.438 90.0017 312.772 90.0017Z" fill="#E8178A"/><g clip-path="url(#clip0_261_60784)"><g clip-path="url(#clip1_261_60784)"><rect x="326.833" y="67.667" width="374" height="48" rx="4" fill="#fff"/><path d="M347.283 96.6667H346.121V87.7048H342.956V86.6726H350.448V87.7048H347.283V96.6667ZM355.203 96.8035C354.096 96.8035 353.221 96.4662 352.578 95.7917C351.94 95.1173 351.621 94.1807 351.621 92.9822C351.621 91.7745 351.917 90.8152 352.51 90.1042C353.107 89.3933 353.907 89.0378 354.909 89.0378C355.848 89.0378 356.591 89.3477 357.138 89.9675C357.685 90.5828 357.958 91.3962 357.958 92.408V93.1257H352.797C352.82 94.0053 353.041 94.6729 353.46 95.1287C353.884 95.5844 354.479 95.8123 355.244 95.8123C356.051 95.8123 356.848 95.6436 357.637 95.3064V96.3181C357.236 96.4913 356.855 96.6143 356.495 96.6873C356.14 96.7647 355.709 96.8035 355.203 96.8035ZM354.896 89.988C354.294 89.988 353.813 90.184 353.453 90.5759C353.098 90.9679 352.888 91.5102 352.824 92.2029H356.741C356.741 91.4874 356.582 90.9405 356.263 90.5623C355.944 90.1794 355.488 89.988 354.896 89.988ZM361.954 92.8318L359.35 89.1746H360.642L362.617 92.0457L364.586 89.1746H365.864L363.26 92.8318L366.001 96.6667H364.716L362.617 93.6316L360.498 96.6667H359.213L361.954 92.8318ZM370.161 95.8669C370.362 95.8669 370.555 95.8533 370.742 95.8259C370.929 95.794 371.077 95.7621 371.187 95.7302V96.5984C371.063 96.6576 370.881 96.7055 370.64 96.7419C370.403 96.783 370.188 96.8035 369.997 96.8035C368.548 96.8035 367.823 96.0401 367.823 94.5134V90.0564H366.75V89.5095L367.823 89.0378L368.302 87.4382H368.958V89.1746H371.132V90.0564H368.958V94.4656C368.958 94.9167 369.065 95.2631 369.279 95.5046C369.493 95.7462 369.787 95.8669 370.161 95.8669ZM376.998 96.6667V86.6726H378.16V96.6667H376.998ZM386.114 96.6667V91.8201C386.114 91.2094 385.975 90.7537 385.697 90.4529C385.419 90.1521 384.984 90.0017 384.392 90.0017C383.608 90.0017 383.034 90.2136 382.669 90.6375C382.304 91.0613 382.122 91.7608 382.122 92.7361V96.6667H380.987V89.1746H381.91L382.095 90.2H382.149C382.382 89.8308 382.708 89.546 383.127 89.3455C383.546 89.1404 384.013 89.0378 384.528 89.0378C385.431 89.0378 386.11 89.2566 386.565 89.6941C387.021 90.127 387.249 90.822 387.249 91.7791V96.6667H386.114ZM393.323 96.8035C392.836 96.8035 392.389 96.7146 391.983 96.5369C391.582 96.3546 391.245 96.0766 390.972 95.7029H390.89C390.944 96.1404 390.972 96.5551 390.972 96.947V100.03H389.837V89.1746H390.76L390.917 90.2H390.972C391.263 89.7898 391.603 89.4936 391.99 89.3113C392.378 89.129 392.822 89.0378 393.323 89.0378C394.317 89.0378 395.082 89.3774 395.62 90.0564C396.162 90.7354 396.434 91.6879 396.434 92.9138C396.434 94.1443 396.158 95.1013 395.606 95.7849C395.06 96.4639 394.299 96.8035 393.323 96.8035ZM393.159 90.0017C392.394 90.0017 391.84 90.2136 391.498 90.6375C391.156 91.0613 390.981 91.7358 390.972 92.6609V92.9138C390.972 93.9666 391.147 94.7208 391.498 95.1765C391.849 95.6277 392.412 95.8533 393.187 95.8533C393.834 95.8533 394.34 95.5912 394.704 95.0671C395.073 94.5431 395.258 93.8207 395.258 92.9001C395.258 91.9659 395.073 91.2504 394.704 90.7537C394.34 90.2524 393.825 90.0017 393.159 90.0017ZM399.739 89.1746V94.0349C399.739 94.6456 399.878 95.1013 400.156 95.4021C400.434 95.7029 400.869 95.8533 401.462 95.8533C402.246 95.8533 402.818 95.6391 403.178 95.2107C403.542 94.7823 403.725 94.0828 403.725 93.1121V89.1746H404.859V96.6667H403.923L403.759 95.6619H403.697C403.465 96.031 403.141 96.3136 402.727 96.5095C402.316 96.7055 401.847 96.8035 401.318 96.8035C400.407 96.8035 399.723 96.587 399.268 96.1541C398.816 95.7211 398.591 95.0284 398.591 94.0759V89.1746H399.739ZM409.942 95.8669C410.143 95.8669 410.337 95.8533 410.523 95.8259C410.71 95.794 410.858 95.7621 410.968 95.7302V96.5984C410.845 96.6576 410.662 96.7055 410.421 96.7419C410.184 96.783 409.97 96.8035 409.778 96.8035C408.329 96.8035 407.604 96.0401 407.604 94.5134V90.0564H406.531V89.5095L407.604 89.0378L408.083 87.4382H408.739V89.1746H410.913V90.0564H408.739V94.4656C408.739 94.9167 408.846 95.2631 409.061 95.5046C409.275 95.7462 409.569 95.8669 409.942 95.8669Z" fill="#90939F"/></g><rect x="327.333" y="68.167" width="373" height="47" rx="3.5" stroke="#464B52"/></g><rect x="326.333" y="67.167" width="375" height="49" stroke="#F0F" stroke-dasharray="2 2"/><rect x="327" y="67.667" width="16" height="48" fill="#EB3499" fill-opacity=".4"/><rect x="685" y="67.667" width="16" height="48" fill="#EB3499" fill-opacity=".4"/><path d="M715.777 97H714.67V89.877C714.67 89.2845 714.688 88.724 714.725 88.1953C714.629 88.291 714.522 88.3913 714.403 88.4961C714.285 88.6009 713.743 89.0452 712.776 89.8291L712.175 89.0498L714.82 87.0059H715.777V97ZM719.617 92.7275C719.617 90.7633 719.998 89.2959 720.759 88.3252C721.524 87.3499 722.655 86.8623 724.149 86.8623C724.664 86.8623 725.07 86.9056 725.366 86.9922V87.9697C725.015 87.8558 724.614 87.7988 724.163 87.7988C723.092 87.7988 722.274 88.1338 721.709 88.8037C721.144 89.4691 720.834 90.5173 720.779 91.9482H720.861C721.363 91.1644 722.156 90.7725 723.24 90.7725C724.138 90.7725 724.844 91.0436 725.359 91.5859C725.879 92.1283 726.139 92.8643 726.139 93.7939C726.139 94.833 725.854 95.651 725.284 96.248C724.719 96.8405 723.953 97.1367 722.987 97.1367C721.953 97.1367 721.133 96.7493 720.526 95.9746C719.92 95.1953 719.617 94.113 719.617 92.7275ZM722.974 96.1729C723.621 96.1729 724.122 95.9701 724.478 95.5645C724.838 95.1543 725.018 94.5641 725.018 93.7939C725.018 93.1331 724.851 92.6136 724.519 92.2354C724.186 91.8571 723.689 91.668 723.028 91.668C722.618 91.668 722.242 91.7523 721.9 91.9209C721.559 92.0895 721.285 92.3219 721.08 92.6182C720.88 92.9144 720.779 93.222 720.779 93.541C720.779 94.0104 720.87 94.4479 721.053 94.8535C721.235 95.2591 721.493 95.5804 721.825 95.8174C722.162 96.0544 722.545 96.1729 722.974 96.1729ZM733.048 95.9951H732.986C732.462 96.7562 731.678 97.1367 730.635 97.1367C729.655 97.1367 728.892 96.8018 728.345 96.1318C727.802 95.4619 727.531 94.5094 727.531 93.2744C727.531 92.0394 727.805 91.0801 728.352 90.3965C728.898 89.7129 729.66 89.3711 730.635 89.3711C731.651 89.3711 732.43 89.7402 732.973 90.4785H733.062L733.014 89.9385L732.986 89.4121V86.3633H734.121V97H733.198L733.048 95.9951ZM730.778 96.1865C731.553 96.1865 732.114 95.9769 732.46 95.5576C732.811 95.1338 732.986 94.4525 732.986 93.5137V93.2744C732.986 92.2126 732.809 91.4561 732.453 91.0049C732.102 90.5492 731.539 90.3213 730.765 90.3213C730.099 90.3213 729.589 90.5811 729.233 91.1006C728.883 91.6156 728.707 92.3447 728.707 93.2881C728.707 94.2451 728.883 94.9674 729.233 95.4551C729.584 95.9427 730.099 96.1865 730.778 96.1865ZM739.937 97.1367C739.449 97.1367 739.002 97.0479 738.597 96.8701C738.196 96.6878 737.858 96.4098 737.585 96.0361H737.503C737.558 96.4736 737.585 96.8883 737.585 97.2803V100.363H736.45V89.5078H737.373L737.53 90.5332H737.585C737.877 90.123 738.216 89.8268 738.604 89.6445C738.991 89.4622 739.435 89.3711 739.937 89.3711C740.93 89.3711 741.696 89.7106 742.233 90.3896C742.776 91.0687 743.047 92.0212 743.047 93.2471C743.047 94.4775 742.771 95.4346 742.22 96.1182C741.673 96.7972 740.912 97.1367 739.937 97.1367ZM739.772 90.335C739.007 90.335 738.453 90.5469 738.111 90.9707C737.77 91.3945 737.594 92.069 737.585 92.9941V93.2471C737.585 94.2998 737.76 95.054 738.111 95.5098C738.462 95.9609 739.025 96.1865 739.8 96.1865C740.447 96.1865 740.953 95.9245 741.317 95.4004C741.687 94.8763 741.871 94.154 741.871 93.2334C741.871 92.2992 741.687 91.5837 741.317 91.0869C740.953 90.5856 740.438 90.335 739.772 90.335Z" fill="#E8178A"/><path d="M744 67.6667H753V115.667H744" stroke="#4091D2"/><path d="M767.017 94.9287H765.813V97H763.749V94.9287H759.483V93.459L763.865 87.0059H765.813V93.2881H767.017V94.9287ZM763.749 93.2881V91.5928C763.749 91.3102 763.76 90.9001 763.783 90.3623C763.806 89.8245 763.824 89.5124 763.838 89.4258H763.783C763.615 89.7995 763.412 90.1641 763.175 90.5195L761.343 93.2881H763.749ZM771.164 86.876C772.121 86.876 772.891 87.0947 773.475 87.5322C774.062 87.9652 774.356 88.5508 774.356 89.2891C774.356 89.7995 774.215 90.2552 773.933 90.6562C773.65 91.0527 773.194 91.4082 772.565 91.7227C773.313 92.1237 773.848 92.543 774.172 92.9805C774.5 93.4134 774.664 93.8896 774.664 94.4092C774.664 95.2295 774.343 95.8903 773.7 96.3916C773.058 96.8883 772.212 97.1367 771.164 97.1367C770.07 97.1367 769.211 96.9043 768.587 96.4395C767.963 95.9746 767.65 95.3161 767.65 94.4639C767.65 93.8942 767.801 93.3883 768.102 92.9463C768.407 92.5042 768.895 92.1146 769.564 91.7773C768.995 91.4173 768.585 91.0322 768.334 90.6221C768.083 90.2119 767.958 89.763 767.958 89.2754C767.958 88.5599 768.254 87.9811 768.847 87.5391C769.439 87.097 770.212 86.876 771.164 86.876ZM769.605 94.3408C769.605 94.7327 769.742 95.0381 770.016 95.2568C770.289 95.4756 770.663 95.585 771.137 95.585C771.661 95.585 772.053 95.4733 772.312 95.25C772.572 95.0221 772.702 94.7236 772.702 94.3545C772.702 94.0492 772.572 93.7643 772.312 93.5C772.057 93.2311 771.64 92.9463 771.062 92.6455C770.091 93.0921 769.605 93.6572 769.605 94.3408ZM771.15 88.4209C770.79 88.4209 770.499 88.5143 770.275 88.7012C770.057 88.8835 769.947 89.1296 769.947 89.4395C769.947 89.7129 770.034 89.959 770.207 90.1777C770.385 90.3919 770.704 90.613 771.164 90.8408C771.611 90.6312 771.923 90.417 772.101 90.1982C772.278 89.9795 772.367 89.7266 772.367 89.4395C772.367 89.125 772.253 88.8766 772.025 88.6943C771.798 88.512 771.506 88.4209 771.15 88.4209ZM778.586 97.1367C777.688 97.1367 776.982 96.7881 776.467 96.0908C775.956 95.3936 775.701 94.4274 775.701 93.1924C775.701 91.9391 775.961 90.9639 776.48 90.2666C777.005 89.5648 777.725 89.2139 778.641 89.2139C779.602 89.2139 780.336 89.5876 780.842 90.335H780.91C780.805 89.7653 780.753 89.2572 780.753 88.8105V86.3633H782.845V97H781.245L780.842 96.0088H780.753C780.279 96.7607 779.557 97.1367 778.586 97.1367ZM779.317 95.4756C779.851 95.4756 780.24 95.3206 780.486 95.0107C780.737 94.7008 780.874 94.1745 780.896 93.4316V93.2061C780.896 92.3857 780.769 91.7979 780.514 91.4424C780.263 91.0869 779.853 90.9092 779.283 90.9092C778.818 90.9092 778.456 91.1074 778.196 91.5039C777.941 91.8958 777.813 92.4678 777.813 93.2197C777.813 93.9717 777.943 94.5368 778.203 94.915C778.463 95.2887 778.834 95.4756 779.317 95.4756ZM789.139 97.1367C788.241 97.1367 787.537 96.8109 787.026 96.1592H786.917C786.99 96.7972 787.026 97.1663 787.026 97.2666V100.363H784.941V89.3574H786.637L786.931 90.3486H787.026C787.514 89.5921 788.236 89.2139 789.193 89.2139C790.096 89.2139 790.802 89.5625 791.312 90.2598C791.823 90.957 792.078 91.9255 792.078 93.165C792.078 93.9808 791.957 94.6895 791.716 95.291C791.479 95.8926 791.139 96.3506 790.697 96.665C790.255 96.9795 789.736 97.1367 789.139 97.1367ZM788.523 90.8818C788.008 90.8818 787.632 91.0413 787.395 91.3604C787.158 91.6748 787.035 92.1966 787.026 92.9258V93.1514C787.026 93.9717 787.147 94.5596 787.389 94.915C787.635 95.2705 788.022 95.4482 788.551 95.4482C789.485 95.4482 789.952 94.6781 789.952 93.1377C789.952 92.3857 789.836 91.8229 789.603 91.4492C789.376 91.071 789.016 90.8818 788.523 90.8818Z" fill="#4091D2"/><rect width="707.244" height="99.333" transform="translate(102 142.333)" fill="#fff"/><path d="M131.698 188.666H129.911V180.1H134.821V181.588H131.698V183.797H134.604V185.279H131.698V188.666ZM137.708 185.379C137.708 186.027 137.814 186.518 138.025 186.85C138.24 187.182 138.587 187.348 139.068 187.348C139.544 187.348 139.886 187.184 140.093 186.855C140.304 186.523 140.409 186.031 140.409 185.379C140.409 184.73 140.304 184.244 140.093 183.92C139.882 183.596 139.536 183.434 139.056 183.434C138.579 183.434 138.236 183.596 138.025 183.92C137.814 184.24 137.708 184.727 137.708 185.379ZM142.238 185.379C142.238 186.445 141.956 187.279 141.394 187.881C140.831 188.482 140.048 188.783 139.044 188.783C138.415 188.783 137.861 188.646 137.38 188.373C136.9 188.096 136.531 187.699 136.273 187.184C136.015 186.668 135.886 186.066 135.886 185.379C135.886 184.309 136.165 183.477 136.724 182.883C137.282 182.289 138.068 181.992 139.079 181.992C139.708 181.992 140.263 182.129 140.743 182.402C141.224 182.676 141.593 183.068 141.851 183.58C142.109 184.092 142.238 184.691 142.238 185.379ZM146.302 188.783C144.263 188.783 143.244 187.664 143.244 185.426C143.244 184.312 143.521 183.463 144.076 182.877C144.63 182.287 145.425 181.992 146.46 181.992C147.218 181.992 147.898 182.141 148.5 182.438L147.972 183.82C147.691 183.707 147.429 183.615 147.187 183.545C146.945 183.471 146.703 183.434 146.46 183.434C145.531 183.434 145.066 184.094 145.066 185.414C145.066 186.695 145.531 187.336 146.46 187.336C146.804 187.336 147.123 187.291 147.416 187.201C147.709 187.107 148.002 186.963 148.294 186.768V188.297C148.005 188.48 147.712 188.607 147.416 188.678C147.123 188.748 146.752 188.783 146.302 188.783ZM154.387 188.666L154.146 187.828H154.053C153.861 188.133 153.59 188.369 153.238 188.537C152.887 188.701 152.486 188.783 152.037 188.783C151.267 188.783 150.687 188.578 150.297 188.168C149.906 187.754 149.711 187.16 149.711 186.387V182.115H151.498V185.941C151.498 186.414 151.582 186.77 151.75 187.008C151.918 187.242 152.185 187.359 152.553 187.359C153.053 187.359 153.414 187.193 153.637 186.861C153.859 186.525 153.971 185.971 153.971 185.197V182.115H155.758V188.666H154.387ZM162.131 186.721C162.131 187.393 161.897 187.904 161.428 188.256C160.963 188.607 160.266 188.783 159.336 188.783C158.859 188.783 158.453 188.75 158.117 188.684C157.781 188.621 157.467 188.527 157.174 188.402V186.926C157.506 187.082 157.879 187.213 158.293 187.318C158.711 187.424 159.078 187.477 159.395 187.477C160.043 187.477 160.367 187.289 160.367 186.914C160.367 186.773 160.324 186.66 160.238 186.574C160.152 186.484 160.004 186.385 159.793 186.275C159.582 186.162 159.301 186.031 158.949 185.883C158.445 185.672 158.074 185.477 157.836 185.297C157.602 185.117 157.43 184.912 157.32 184.682C157.215 184.447 157.162 184.16 157.162 183.82C157.162 183.238 157.387 182.789 157.836 182.473C158.289 182.152 158.93 181.992 159.758 181.992C160.547 181.992 161.315 182.164 162.061 182.508L161.522 183.797C161.193 183.656 160.887 183.541 160.602 183.451C160.316 183.361 160.025 183.316 159.729 183.316C159.201 183.316 158.938 183.459 158.938 183.744C158.938 183.904 159.022 184.043 159.19 184.16C159.361 184.277 159.734 184.451 160.309 184.682C160.82 184.889 161.195 185.082 161.434 185.262C161.672 185.441 161.848 185.648 161.961 185.883C162.074 186.117 162.131 186.396 162.131 186.721ZM166.639 188.666V180.1H168.456V187.166H171.93V188.666H166.639ZM173.136 180.422C173.136 179.84 173.46 179.549 174.108 179.549C174.757 179.549 175.081 179.84 175.081 180.422C175.081 180.699 174.999 180.916 174.835 181.072C174.675 181.225 174.433 181.301 174.108 181.301C173.46 181.301 173.136 181.008 173.136 180.422ZM174.999 188.666H173.212V182.115H174.999V188.666ZM182.855 188.666H181.068V184.84C181.068 184.367 180.984 184.014 180.816 183.779C180.648 183.541 180.38 183.422 180.013 183.422C179.513 183.422 179.152 183.59 178.929 183.926C178.706 184.258 178.595 184.811 178.595 185.584V188.666H176.808V182.115H178.173L178.413 182.953H178.513C178.712 182.637 178.986 182.398 179.333 182.238C179.685 182.074 180.083 181.992 180.528 181.992C181.29 181.992 181.868 182.199 182.263 182.613C182.657 183.023 182.855 183.617 182.855 184.395V188.666ZM187.335 183.264C186.956 183.264 186.66 183.385 186.445 183.627C186.23 183.865 186.107 184.205 186.076 184.646H188.583C188.576 184.205 188.46 183.865 188.238 183.627C188.015 183.385 187.714 183.264 187.335 183.264ZM187.587 188.783C186.533 188.783 185.708 188.492 185.115 187.91C184.521 187.328 184.224 186.504 184.224 185.438C184.224 184.34 184.498 183.492 185.044 182.895C185.595 182.293 186.355 181.992 187.324 181.992C188.249 181.992 188.97 182.256 189.486 182.783C190.001 183.311 190.259 184.039 190.259 184.969V185.836H186.035C186.054 186.344 186.205 186.74 186.486 187.025C186.767 187.311 187.162 187.453 187.669 187.453C188.064 187.453 188.437 187.412 188.789 187.33C189.14 187.248 189.507 187.117 189.89 186.938V188.32C189.578 188.477 189.244 188.592 188.888 188.666C188.533 188.744 188.099 188.783 187.587 188.783ZM199.643 182.115C199.643 182.662 199.488 183.109 199.18 183.457C198.875 183.805 198.441 184.037 197.879 184.154V184.201C198.566 184.287 199.076 184.506 199.408 184.857C199.74 185.209 199.906 185.67 199.906 186.24C199.906 187.057 199.623 187.686 199.057 188.127C198.49 188.564 197.686 188.783 196.643 188.783C196.189 188.783 195.773 188.748 195.395 188.678C195.02 188.611 194.654 188.492 194.299 188.32V187.395C194.67 187.578 195.064 187.719 195.482 187.816C195.904 187.91 196.303 187.957 196.678 187.957C198.158 187.957 198.898 187.377 198.898 186.217C198.898 185.178 198.082 184.658 196.449 184.658H195.605V183.82H196.461C197.129 183.82 197.658 183.674 198.049 183.381C198.439 183.084 198.635 182.674 198.635 182.15C198.635 181.732 198.49 181.404 198.201 181.166C197.916 180.928 197.527 180.809 197.035 180.809C196.66 180.809 196.307 180.859 195.975 180.961C195.643 181.062 195.264 181.25 194.838 181.523L194.346 180.867C194.697 180.59 195.102 180.373 195.559 180.217C196.02 180.057 196.504 179.977 197.012 179.977C197.844 179.977 198.49 180.168 198.951 180.551C199.412 180.93 199.643 181.451 199.643 182.115ZM205.946 187.805H205.893C205.444 188.457 204.772 188.783 203.877 188.783C203.037 188.783 202.383 188.496 201.914 187.922C201.449 187.348 201.217 186.531 201.217 185.473C201.217 184.414 201.451 183.592 201.92 183.006C202.389 182.42 203.041 182.127 203.877 182.127C204.748 182.127 205.416 182.443 205.881 183.076H205.957L205.916 182.613L205.893 182.162V179.549H206.865V188.666H206.074L205.946 187.805ZM204 187.969C204.664 187.969 205.145 187.789 205.442 187.43C205.742 187.066 205.893 186.482 205.893 185.678V185.473C205.893 184.562 205.74 183.914 205.436 183.527C205.135 183.137 204.653 182.941 203.989 182.941C203.418 182.941 202.981 183.164 202.676 183.609C202.375 184.051 202.225 184.676 202.225 185.484C202.225 186.305 202.375 186.924 202.676 187.342C202.977 187.76 203.418 187.969 204 187.969ZM211.85 188.783C211.432 188.783 211.049 188.707 210.702 188.555C210.358 188.398 210.069 188.16 209.835 187.84H209.764C209.811 188.215 209.835 188.57 209.835 188.906V191.549H208.862V182.244H209.653L209.788 183.123H209.835C210.085 182.771 210.376 182.518 210.708 182.361C211.04 182.205 211.42 182.127 211.85 182.127C212.702 182.127 213.358 182.418 213.819 183C214.284 183.582 214.516 184.398 214.516 185.449C214.516 186.504 214.28 187.324 213.807 187.91C213.338 188.492 212.686 188.783 211.85 188.783ZM211.71 182.953C211.053 182.953 210.579 183.135 210.286 183.498C209.993 183.861 209.842 184.439 209.835 185.232V185.449C209.835 186.352 209.985 186.998 210.286 187.389C210.586 187.775 211.069 187.969 211.733 187.969C212.288 187.969 212.721 187.744 213.034 187.295C213.35 186.846 213.508 186.227 213.508 185.438C213.508 184.637 213.35 184.023 213.034 183.598C212.721 183.168 212.28 182.953 211.71 182.953ZM129.911 200.1H132.577C133.792 200.1 134.673 200.273 135.22 200.621C135.771 200.965 136.046 201.514 136.046 202.268C136.046 202.779 135.925 203.199 135.683 203.527C135.444 203.855 135.126 204.053 134.728 204.119V204.178C135.271 204.299 135.661 204.525 135.899 204.857C136.142 205.189 136.263 205.631 136.263 206.182C136.263 206.963 135.979 207.572 135.413 208.01C134.851 208.447 134.085 208.666 133.116 208.666H129.911V200.1ZM131.728 203.492H132.782C133.274 203.492 133.63 203.416 133.849 203.264C134.071 203.111 134.183 202.859 134.183 202.508C134.183 202.18 134.062 201.945 133.819 201.805C133.581 201.66 133.202 201.588 132.683 201.588H131.728V203.492ZM131.728 204.934V207.166H132.911C133.411 207.166 133.78 207.07 134.019 206.879C134.257 206.688 134.376 206.395 134.376 206C134.376 205.289 133.868 204.934 132.853 204.934H131.728ZM139.185 205.379C139.185 206.027 139.29 206.518 139.501 206.85C139.716 207.182 140.064 207.348 140.544 207.348C141.021 207.348 141.363 207.184 141.57 206.855C141.781 206.523 141.886 206.031 141.886 205.379C141.886 204.73 141.781 204.244 141.57 203.92C141.359 203.596 141.013 203.434 140.532 203.434C140.056 203.434 139.712 203.596 139.501 203.92C139.29 204.24 139.185 204.727 139.185 205.379ZM143.714 205.379C143.714 206.445 143.433 207.279 142.87 207.881C142.308 208.482 141.525 208.783 140.521 208.783C139.892 208.783 139.337 208.646 138.857 208.373C138.376 208.096 138.007 207.699 137.749 207.184C137.491 206.668 137.363 206.066 137.363 205.379C137.363 204.309 137.642 203.477 138.2 202.883C138.759 202.289 139.544 201.992 140.556 201.992C141.185 201.992 141.74 202.129 142.22 202.402C142.7 202.676 143.07 203.068 143.327 203.58C143.585 204.092 143.714 204.691 143.714 205.379ZM148.775 201.992C149.017 201.992 149.218 202.01 149.378 202.045L149.244 203.721C149.099 203.682 148.923 203.662 148.716 203.662C148.146 203.662 147.701 203.809 147.38 204.102C147.064 204.395 146.906 204.805 146.906 205.332V208.666H145.119V202.115H146.472L146.736 203.217H146.824C147.027 202.85 147.3 202.555 147.644 202.332C147.992 202.105 148.369 201.992 148.775 201.992ZM152.57 208.783C151.801 208.783 151.195 208.484 150.754 207.887C150.316 207.289 150.097 206.461 150.097 205.402C150.097 204.328 150.32 203.492 150.765 202.895C151.215 202.293 151.832 201.992 152.617 201.992C153.441 201.992 154.07 202.312 154.504 202.953H154.562C154.472 202.465 154.428 202.029 154.428 201.646V199.549H156.221V208.666H154.849L154.504 207.816H154.428C154.021 208.461 153.402 208.783 152.57 208.783ZM153.197 207.359C153.654 207.359 153.988 207.227 154.199 206.961C154.414 206.695 154.531 206.244 154.551 205.607V205.414C154.551 204.711 154.441 204.207 154.222 203.902C154.008 203.598 153.656 203.445 153.168 203.445C152.769 203.445 152.459 203.615 152.236 203.955C152.017 204.291 151.908 204.781 151.908 205.426C151.908 206.07 152.019 206.555 152.242 206.879C152.465 207.199 152.783 207.359 153.197 207.359ZM160.731 203.264C160.352 203.264 160.055 203.385 159.84 203.627C159.625 203.865 159.502 204.205 159.471 204.646H161.979C161.971 204.205 161.856 203.865 161.633 203.627C161.41 203.385 161.109 203.264 160.731 203.264ZM160.983 208.783C159.928 208.783 159.104 208.492 158.51 207.91C157.916 207.328 157.619 206.504 157.619 205.438C157.619 204.34 157.893 203.492 158.44 202.895C158.99 202.293 159.75 201.992 160.719 201.992C161.645 201.992 162.365 202.256 162.881 202.783C163.397 203.311 163.654 204.039 163.654 204.969V205.836H159.43C159.449 206.344 159.6 206.74 159.881 207.025C160.162 207.311 160.557 207.453 161.065 207.453C161.459 207.453 161.832 207.412 162.184 207.33C162.535 207.248 162.902 207.117 163.285 206.938V208.32C162.973 208.477 162.639 208.592 162.283 208.666C161.928 208.744 161.494 208.783 160.983 208.783ZM168.692 201.992C168.934 201.992 169.135 202.01 169.295 202.045L169.161 203.721C169.016 203.682 168.84 203.662 168.633 203.662C168.063 203.662 167.618 203.809 167.297 204.102C166.981 204.395 166.823 204.805 166.823 205.332V208.666H165.036V202.115H166.389L166.653 203.217H166.741C166.944 202.85 167.217 202.555 167.561 202.332C167.909 202.105 168.286 201.992 168.692 201.992ZM169.833 206.182V204.717H172.979V206.182H169.833ZM177.864 201.992C178.106 201.992 178.308 202.01 178.468 202.045L178.333 203.721C178.188 203.682 178.013 203.662 177.806 203.662C177.235 203.662 176.79 203.809 176.47 204.102C176.153 204.395 175.995 204.805 175.995 205.332V208.666H174.208V202.115H175.561L175.825 203.217H175.913C176.116 202.85 176.39 202.555 176.733 202.332C177.081 202.105 177.458 201.992 177.864 201.992ZM183.745 208.666L183.4 207.775H183.353C183.052 208.154 182.741 208.418 182.421 208.566C182.105 208.711 181.691 208.783 181.179 208.783C180.55 208.783 180.054 208.604 179.691 208.244C179.331 207.885 179.152 207.373 179.152 206.709C179.152 206.014 179.394 205.502 179.878 205.174C180.366 204.842 181.101 204.658 182.081 204.623L183.218 204.588V204.301C183.218 203.637 182.878 203.305 182.198 203.305C181.675 203.305 181.06 203.463 180.353 203.779L179.761 202.572C180.515 202.178 181.351 201.98 182.269 201.98C183.148 201.98 183.821 202.172 184.29 202.555C184.759 202.938 184.993 203.52 184.993 204.301V208.666H183.745ZM183.218 205.631L182.527 205.654C182.007 205.67 181.62 205.764 181.366 205.936C181.112 206.107 180.986 206.369 180.986 206.721C180.986 207.225 181.275 207.477 181.853 207.477C182.267 207.477 182.597 207.357 182.843 207.119C183.093 206.881 183.218 206.564 183.218 206.17V205.631ZM188.841 208.783C188.072 208.783 187.466 208.484 187.025 207.887C186.587 207.289 186.369 206.461 186.369 205.402C186.369 204.328 186.591 203.492 187.037 202.895C187.486 202.293 188.103 201.992 188.888 201.992C189.712 201.992 190.341 202.312 190.775 202.953H190.833C190.744 202.465 190.699 202.029 190.699 201.646V199.549H192.492V208.666H191.121L190.775 207.816H190.699C190.292 208.461 189.673 208.783 188.841 208.783ZM189.468 207.359C189.925 207.359 190.259 207.227 190.47 206.961C190.685 206.695 190.802 206.244 190.822 205.607V205.414C190.822 204.711 190.712 204.207 190.494 203.902C190.279 203.598 189.927 203.445 189.439 203.445C189.04 203.445 188.73 203.615 188.507 203.955C188.289 204.291 188.179 204.781 188.179 205.426C188.179 206.07 188.29 206.555 188.513 206.879C188.736 207.199 189.054 207.359 189.468 207.359ZM194.213 200.422C194.213 199.84 194.537 199.549 195.185 199.549C195.834 199.549 196.158 199.84 196.158 200.422C196.158 200.699 196.076 200.916 195.912 201.072C195.752 201.225 195.509 201.301 195.185 201.301C194.537 201.301 194.213 201.008 194.213 200.422ZM196.076 208.666H194.289V202.115H196.076V208.666ZM202.525 208.666L202.285 207.828H202.191C202 208.133 201.729 208.369 201.377 208.537C201.025 208.701 200.625 208.783 200.176 208.783C199.406 208.783 198.826 208.578 198.436 208.168C198.045 207.754 197.85 207.16 197.85 206.387V202.115H199.637V205.941C199.637 206.414 199.721 206.77 199.889 207.008C200.057 207.242 200.324 207.359 200.691 207.359C201.191 207.359 201.553 207.193 201.775 206.861C201.998 206.525 202.109 205.971 202.109 205.197V202.115H203.896V208.666H202.525ZM210.27 206.721C210.27 207.393 210.035 207.904 209.567 208.256C209.102 208.607 208.405 208.783 207.475 208.783C206.998 208.783 206.592 208.75 206.256 208.684C205.92 208.621 205.606 208.527 205.313 208.402V206.926C205.645 207.082 206.018 207.213 206.432 207.318C206.85 207.424 207.217 207.477 207.533 207.477C208.182 207.477 208.506 207.289 208.506 206.914C208.506 206.773 208.463 206.66 208.377 206.574C208.291 206.484 208.143 206.385 207.932 206.275C207.721 206.162 207.44 206.031 207.088 205.883C206.584 205.672 206.213 205.477 205.975 205.297C205.74 205.117 205.569 204.912 205.459 204.682C205.354 204.447 205.301 204.16 205.301 203.82C205.301 203.238 205.526 202.789 205.975 202.473C206.428 202.152 207.069 201.992 207.897 201.992C208.686 201.992 209.453 202.164 210.199 202.508L209.66 203.797C209.332 203.656 209.026 203.541 208.74 203.451C208.455 203.361 208.164 203.316 207.867 203.316C207.34 203.316 207.076 203.459 207.076 203.744C207.076 203.904 207.16 204.043 207.328 204.16C207.5 204.277 207.873 204.451 208.448 204.682C208.959 204.889 209.334 205.082 209.573 205.262C209.811 205.441 209.987 205.648 210.1 205.883C210.213 206.117 210.27 206.396 210.27 206.721ZM211.34 207.828C211.34 207.5 211.428 207.252 211.604 207.084C211.78 206.916 212.036 206.832 212.372 206.832C212.696 206.832 212.946 206.918 213.122 207.09C213.301 207.262 213.391 207.508 213.391 207.828C213.391 208.137 213.301 208.381 213.122 208.561C212.942 208.736 212.692 208.824 212.372 208.824C212.043 208.824 211.79 208.738 211.61 208.566C211.43 208.391 211.34 208.145 211.34 207.828ZM211.34 202.988C211.34 202.66 211.428 202.412 211.604 202.244C211.78 202.076 212.036 201.992 212.372 201.992C212.696 201.992 212.946 202.078 213.122 202.25C213.301 202.422 213.391 202.668 213.391 202.988C213.391 203.305 213.299 203.551 213.116 203.727C212.936 203.898 212.688 203.984 212.372 203.984C212.043 203.984 211.79 203.898 211.61 203.727C211.43 203.555 211.34 203.309 211.34 202.988ZM223.671 206.697H222.399V208.666H221.468V206.697H217.302V205.848L221.368 200.053H222.399V205.812H223.671V206.697ZM221.468 205.812V202.965C221.468 202.406 221.487 201.775 221.526 201.072H221.48C221.292 201.447 221.116 201.758 220.952 202.004L218.274 205.812H221.468ZM229.247 207.805H229.195C228.745 208.457 228.074 208.783 227.179 208.783C226.339 208.783 225.685 208.496 225.216 207.922C224.751 207.348 224.519 206.531 224.519 205.473C224.519 204.414 224.753 203.592 225.222 203.006C225.691 202.42 226.343 202.127 227.179 202.127C228.05 202.127 228.718 202.443 229.183 203.076H229.259L229.218 202.613L229.195 202.162V199.549H230.167V208.666H229.376L229.247 207.805ZM227.302 207.969C227.966 207.969 228.447 207.789 228.744 207.43C229.044 207.066 229.195 206.482 229.195 205.678V205.473C229.195 204.562 229.042 203.914 228.738 203.527C228.437 203.137 227.954 202.941 227.29 202.941C226.72 202.941 226.283 203.164 225.978 203.609C225.677 204.051 225.527 204.676 225.527 205.484C225.527 206.305 225.677 206.924 225.978 207.342C226.279 207.76 226.72 207.969 227.302 207.969ZM235.152 208.783C234.734 208.783 234.351 208.707 234.004 208.555C233.66 208.398 233.371 208.16 233.136 207.84H233.066C233.113 208.215 233.136 208.57 233.136 208.906V211.549H232.164V202.244H232.955L233.089 203.123H233.136C233.386 202.771 233.677 202.518 234.009 202.361C234.341 202.205 234.722 202.127 235.152 202.127C236.004 202.127 236.66 202.418 237.121 203C237.586 203.582 237.818 204.398 237.818 205.449C237.818 206.504 237.582 207.324 237.109 207.91C236.64 208.492 235.988 208.783 235.152 208.783ZM235.011 202.953C234.355 202.953 233.88 203.135 233.588 203.498C233.295 203.861 233.144 204.439 233.136 205.232V205.449C233.136 206.352 233.287 206.998 233.588 207.389C233.888 207.775 234.371 207.969 235.035 207.969C235.589 207.969 236.023 207.744 236.336 207.295C236.652 206.846 236.81 206.227 236.81 205.438C236.81 204.637 236.652 204.023 236.336 203.598C236.023 203.168 235.582 202.953 235.011 202.953Z" fill="#252A2E"/><path d="M118 218V166H256.777V176.097L264 183.67L256.777 190.738V218H118Z" stroke="#CCC"/><path d="M290.777 197H289.67V189.877C289.67 189.285 289.688 188.724 289.725 188.195C289.629 188.291 289.522 188.391 289.403 188.496C289.285 188.601 288.743 189.045 287.776 189.829L287.175 189.05L289.82 187.006H290.777V197ZM294.617 192.728C294.617 190.763 294.998 189.296 295.759 188.325C296.524 187.35 297.655 186.862 299.149 186.862C299.664 186.862 300.07 186.906 300.366 186.992V187.97C300.015 187.856 299.614 187.799 299.163 187.799C298.092 187.799 297.274 188.134 296.709 188.804C296.144 189.469 295.834 190.517 295.779 191.948H295.861C296.363 191.164 297.156 190.772 298.24 190.772C299.138 190.772 299.844 191.044 300.359 191.586C300.879 192.128 301.139 192.864 301.139 193.794C301.139 194.833 300.854 195.651 300.284 196.248C299.719 196.84 298.953 197.137 297.987 197.137C296.953 197.137 296.133 196.749 295.526 195.975C294.92 195.195 294.617 194.113 294.617 192.728ZM297.974 196.173C298.621 196.173 299.122 195.97 299.478 195.564C299.838 195.154 300.018 194.564 300.018 193.794C300.018 193.133 299.851 192.614 299.519 192.235C299.186 191.857 298.689 191.668 298.028 191.668C297.618 191.668 297.242 191.752 296.9 191.921C296.559 192.09 296.285 192.322 296.08 192.618C295.88 192.914 295.779 193.222 295.779 193.541C295.779 194.01 295.87 194.448 296.053 194.854C296.235 195.259 296.493 195.58 296.825 195.817C297.162 196.054 297.545 196.173 297.974 196.173ZM308.048 195.995H307.986C307.462 196.756 306.678 197.137 305.635 197.137C304.655 197.137 303.892 196.802 303.345 196.132C302.802 195.462 302.531 194.509 302.531 193.274C302.531 192.039 302.805 191.08 303.352 190.396C303.898 189.713 304.66 189.371 305.635 189.371C306.651 189.371 307.43 189.74 307.973 190.479H308.062L308.014 189.938L307.986 189.412V186.363H309.121V197H308.198L308.048 195.995ZM305.778 196.187C306.553 196.187 307.114 195.977 307.46 195.558C307.811 195.134 307.986 194.452 307.986 193.514V193.274C307.986 192.213 307.809 191.456 307.453 191.005C307.102 190.549 306.539 190.321 305.765 190.321C305.099 190.321 304.589 190.581 304.233 191.101C303.883 191.616 303.707 192.345 303.707 193.288C303.707 194.245 303.883 194.967 304.233 195.455C304.584 195.943 305.099 196.187 305.778 196.187ZM314.937 197.137C314.449 197.137 314.002 197.048 313.597 196.87C313.196 196.688 312.858 196.41 312.585 196.036H312.503C312.558 196.474 312.585 196.888 312.585 197.28V200.363H311.45V189.508H312.373L312.53 190.533H312.585C312.877 190.123 313.216 189.827 313.604 189.645C313.991 189.462 314.435 189.371 314.937 189.371C315.93 189.371 316.696 189.711 317.233 190.39C317.776 191.069 318.047 192.021 318.047 193.247C318.047 194.478 317.771 195.435 317.22 196.118C316.673 196.797 315.912 197.137 314.937 197.137ZM314.772 190.335C314.007 190.335 313.453 190.547 313.111 190.971C312.77 191.395 312.594 192.069 312.585 192.994V193.247C312.585 194.3 312.76 195.054 313.111 195.51C313.462 195.961 314.025 196.187 314.8 196.187C315.447 196.187 315.953 195.924 316.317 195.4C316.687 194.876 316.871 194.154 316.871 193.233C316.871 192.299 316.687 191.584 316.317 191.087C315.953 190.586 315.438 190.335 314.772 190.335Z" fill="#fff"/><g clip-path="url(#clip2_261_60784)"><g clip-path="url(#clip3_261_60784)"><rect x="330.833" y="168" width="374" height="48" rx="4" fill="#fff"/><path d="M351.283 197H350.121V188.038H346.956V187.006H354.448V188.038H351.283V197ZM359.203 197.137C358.096 197.137 357.221 196.799 356.578 196.125C355.94 195.451 355.621 194.514 355.621 193.315C355.621 192.108 355.917 191.148 356.51 190.438C357.107 189.727 357.907 189.371 358.909 189.371C359.848 189.371 360.591 189.681 361.138 190.301C361.685 190.916 361.958 191.729 361.958 192.741V193.459H356.797C356.82 194.339 357.041 195.006 357.46 195.462C357.884 195.918 358.479 196.146 359.244 196.146C360.051 196.146 360.848 195.977 361.637 195.64V196.651C361.236 196.825 360.855 196.948 360.495 197.021C360.14 197.098 359.709 197.137 359.203 197.137ZM358.896 190.321C358.294 190.321 357.813 190.517 357.453 190.909C357.098 191.301 356.888 191.843 356.824 192.536H360.741C360.741 191.821 360.582 191.274 360.263 190.896C359.944 190.513 359.488 190.321 358.896 190.321ZM365.954 193.165L363.35 189.508H364.642L366.617 192.379L368.586 189.508H369.864L367.26 193.165L370.001 197H368.716L366.617 193.965L364.498 197H363.213L365.954 193.165ZM374.161 196.2C374.362 196.2 374.555 196.187 374.742 196.159C374.929 196.127 375.077 196.095 375.187 196.063V196.932C375.063 196.991 374.881 197.039 374.64 197.075C374.403 197.116 374.188 197.137 373.997 197.137C372.548 197.137 371.823 196.373 371.823 194.847V190.39H370.75V189.843L371.823 189.371L372.302 187.771H372.958V189.508H375.132V190.39H372.958V194.799C372.958 195.25 373.065 195.596 373.279 195.838C373.493 196.079 373.787 196.2 374.161 196.2ZM380.998 197V187.006H382.16V197H380.998ZM390.114 197V192.153C390.114 191.543 389.975 191.087 389.697 190.786C389.419 190.485 388.984 190.335 388.392 190.335C387.608 190.335 387.034 190.547 386.669 190.971C386.304 191.395 386.122 192.094 386.122 193.069V197H384.987V189.508H385.91L386.095 190.533H386.149C386.382 190.164 386.708 189.879 387.127 189.679C387.546 189.474 388.013 189.371 388.528 189.371C389.431 189.371 390.11 189.59 390.565 190.027C391.021 190.46 391.249 191.155 391.249 192.112V197H390.114ZM397.323 197.137C396.836 197.137 396.389 197.048 395.983 196.87C395.582 196.688 395.245 196.41 394.972 196.036H394.89C394.944 196.474 394.972 196.888 394.972 197.28V200.363H393.837V189.508H394.76L394.917 190.533H394.972C395.263 190.123 395.603 189.827 395.99 189.645C396.378 189.462 396.822 189.371 397.323 189.371C398.317 189.371 399.082 189.711 399.62 190.39C400.162 191.069 400.434 192.021 400.434 193.247C400.434 194.478 400.158 195.435 399.606 196.118C399.06 196.797 398.299 197.137 397.323 197.137ZM397.159 190.335C396.394 190.335 395.84 190.547 395.498 190.971C395.156 191.395 394.981 192.069 394.972 192.994V193.247C394.972 194.3 395.147 195.054 395.498 195.51C395.849 195.961 396.412 196.187 397.187 196.187C397.834 196.187 398.34 195.924 398.704 195.4C399.073 194.876 399.258 194.154 399.258 193.233C399.258 192.299 399.073 191.584 398.704 191.087C398.34 190.586 397.825 190.335 397.159 190.335ZM403.739 189.508V194.368C403.739 194.979 403.878 195.435 404.156 195.735C404.434 196.036 404.869 196.187 405.462 196.187C406.246 196.187 406.818 195.972 407.178 195.544C407.542 195.116 407.725 194.416 407.725 193.445V189.508H408.859V197H407.923L407.759 195.995H407.697C407.465 196.364 407.141 196.647 406.727 196.843C406.316 197.039 405.847 197.137 405.318 197.137C404.407 197.137 403.723 196.92 403.268 196.487C402.816 196.054 402.591 195.362 402.591 194.409V189.508H403.739ZM413.942 196.2C414.143 196.2 414.337 196.187 414.523 196.159C414.71 196.127 414.858 196.095 414.968 196.063V196.932C414.845 196.991 414.662 197.039 414.421 197.075C414.184 197.116 413.97 197.137 413.778 197.137C412.329 197.137 411.604 196.373 411.604 194.847V190.39H410.531V189.843L411.604 189.371L412.083 187.771H412.739V189.508H414.913V190.39H412.739V194.799C412.739 195.25 412.846 195.596 413.061 195.838C413.275 196.079 413.569 196.2 413.942 196.2Z" fill="#90939F"/></g><rect x="331.333" y="168.5" width="373" height="47" rx="3.5" stroke="#464B52"/></g><rect x="327.333" y="164.5" width="381" height="55" rx="5.5" stroke="#0084FF" stroke-width="3" stroke-linejoin="round"/><path d="M716.833 164H725.833V220H716.833" stroke="#4091D2"/><path d="M736.107 189.615C737.074 189.615 737.841 189.886 738.411 190.429C738.985 190.971 739.272 191.714 739.272 192.657C739.272 193.774 738.928 194.633 738.24 195.234C737.552 195.836 736.568 196.137 735.287 196.137C734.175 196.137 733.277 195.957 732.594 195.597V193.771C732.954 193.963 733.373 194.12 733.852 194.243C734.33 194.362 734.784 194.421 735.212 194.421C736.502 194.421 737.146 193.892 737.146 192.835C737.146 191.828 736.479 191.324 735.144 191.324C734.902 191.324 734.635 191.349 734.344 191.399C734.052 191.445 733.815 191.495 733.633 191.55L732.792 191.099L733.168 186.006H738.589V187.797H735.021L734.836 189.759L735.075 189.711C735.353 189.647 735.697 189.615 736.107 189.615ZM740.316 191.755C740.316 189.777 740.733 188.305 741.567 187.339C742.406 186.373 743.659 185.89 745.327 185.89C745.897 185.89 746.343 185.924 746.667 185.992V187.681C746.261 187.59 745.86 187.544 745.464 187.544C744.739 187.544 744.147 187.653 743.687 187.872C743.231 188.091 742.889 188.414 742.661 188.843C742.433 189.271 742.299 189.88 742.258 190.668H742.347C742.798 189.893 743.52 189.506 744.514 189.506C745.407 189.506 746.106 189.786 746.612 190.347C747.118 190.907 747.371 191.682 747.371 192.671C747.371 193.737 747.07 194.583 746.469 195.207C745.867 195.827 745.033 196.137 743.967 196.137C743.228 196.137 742.584 195.966 742.032 195.624C741.485 195.282 741.062 194.783 740.761 194.127C740.465 193.471 740.316 192.68 740.316 191.755ZM743.926 194.448C744.377 194.448 744.723 194.298 744.965 193.997C745.206 193.692 745.327 193.259 745.327 192.698C745.327 192.211 745.213 191.828 744.985 191.55C744.762 191.267 744.423 191.126 743.967 191.126C743.538 191.126 743.172 191.265 742.866 191.543C742.565 191.821 742.415 192.145 742.415 192.514C742.415 193.056 742.556 193.514 742.839 193.888C743.126 194.261 743.488 194.448 743.926 194.448ZM751.252 196.137C750.354 196.137 749.648 195.788 749.133 195.091C748.622 194.394 748.367 193.427 748.367 192.192C748.367 190.939 748.627 189.964 749.146 189.267C749.671 188.565 750.391 188.214 751.307 188.214C752.268 188.214 753.002 188.588 753.508 189.335H753.576C753.471 188.765 753.419 188.257 753.419 187.811V185.363H755.511V196H753.911L753.508 195.009H753.419C752.945 195.761 752.223 196.137 751.252 196.137ZM751.983 194.476C752.517 194.476 752.906 194.321 753.152 194.011C753.403 193.701 753.54 193.174 753.562 192.432V192.206C753.562 191.386 753.435 190.798 753.18 190.442C752.929 190.087 752.519 189.909 751.949 189.909C751.484 189.909 751.122 190.107 750.862 190.504C750.607 190.896 750.479 191.468 750.479 192.22C750.479 192.972 750.609 193.537 750.869 193.915C751.129 194.289 751.5 194.476 751.983 194.476ZM761.805 196.137C760.907 196.137 760.203 195.811 759.692 195.159H759.583C759.656 195.797 759.692 196.166 759.692 196.267V199.363H757.607V188.357H759.303L759.597 189.349H759.692C760.18 188.592 760.902 188.214 761.859 188.214C762.762 188.214 763.468 188.562 763.978 189.26C764.489 189.957 764.744 190.925 764.744 192.165C764.744 192.981 764.623 193.689 764.382 194.291C764.145 194.893 763.805 195.351 763.363 195.665C762.921 195.979 762.402 196.137 761.805 196.137ZM761.189 189.882C760.674 189.882 760.298 190.041 760.061 190.36C759.824 190.675 759.701 191.197 759.692 191.926V192.151C759.692 192.972 759.813 193.56 760.055 193.915C760.301 194.271 760.688 194.448 761.217 194.448C762.151 194.448 762.618 193.678 762.618 192.138C762.618 191.386 762.502 190.823 762.269 190.449C762.042 190.071 761.682 189.882 761.189 189.882Z" fill="#4091D2"/><rect width="78" height="242.667" transform="translate(810.244)" fill="#C4C4C4"/><rect width="78" height="40" transform="translate(810.244 1)" fill="#F1F1F6"/><path d="M829.691 26H827.579V21.6865H823.621V26H821.502V16.0059H823.621V19.9229H827.579V16.0059H829.691V26ZM835.138 19.6973C834.696 19.6973 834.349 19.8385 834.099 20.1211C833.848 20.3991 833.704 20.7956 833.668 21.3105H836.594C836.585 20.7956 836.45 20.3991 836.19 20.1211C835.931 19.8385 835.58 19.6973 835.138 19.6973ZM835.432 26.1367C834.201 26.1367 833.24 25.7972 832.547 25.1182C831.854 24.4391 831.508 23.4775 831.508 22.2334C831.508 20.9528 831.827 19.9639 832.465 19.2666C833.107 18.5648 833.994 18.2139 835.124 18.2139C836.204 18.2139 837.045 18.5215 837.646 19.1367C838.248 19.752 838.549 20.6019 838.549 21.6865V22.6982H833.62C833.643 23.2907 833.818 23.7533 834.146 24.0859C834.475 24.4186 834.935 24.585 835.527 24.585C835.988 24.585 836.423 24.5371 836.833 24.4414C837.243 24.3457 837.672 24.193 838.118 23.9834V25.5967C837.754 25.779 837.364 25.9134 836.949 26C836.534 26.0911 836.029 26.1367 835.432 26.1367ZM840.071 16.3818C840.071 15.7028 840.45 15.3633 841.206 15.3633C841.963 15.3633 842.341 15.7028 842.341 16.3818C842.341 16.7054 842.245 16.9583 842.054 17.1406C841.867 17.3184 841.584 17.4072 841.206 17.4072C840.45 17.4072 840.071 17.0654 840.071 16.3818ZM842.245 26H840.16V18.3574H842.245V26ZM851.007 18.3574V19.417L849.81 19.7246C850.029 20.0664 850.139 20.4492 850.139 20.873C850.139 21.6934 849.852 22.3337 849.277 22.7939C848.708 23.2497 847.915 23.4775 846.898 23.4775L846.522 23.457L846.215 23.4229C846.001 23.5869 845.894 23.7692 845.894 23.9697C845.894 24.2705 846.276 24.4209 847.042 24.4209H848.341C849.179 24.4209 849.817 24.6009 850.255 24.9609C850.697 25.321 850.918 25.8496 850.918 26.5469C850.918 27.4401 850.544 28.1328 849.797 28.625C849.054 29.1172 847.985 29.3633 846.591 29.3633C845.524 29.3633 844.709 29.1764 844.144 28.8027C843.583 28.4336 843.303 27.9141 843.303 27.2441C843.303 26.7839 843.446 26.3988 843.733 26.0889C844.02 25.779 844.442 25.5579 844.998 25.4258C844.784 25.3346 844.597 25.1865 844.437 24.9814C844.278 24.7718 844.198 24.5508 844.198 24.3184C844.198 24.0267 844.283 23.7852 844.451 23.5938C844.62 23.3978 844.864 23.2064 845.183 23.0195C844.782 22.8464 844.463 22.5684 844.226 22.1855C843.993 21.8027 843.877 21.3516 843.877 20.832C843.877 19.998 844.148 19.3532 844.69 18.8975C845.233 18.4417 846.007 18.2139 847.015 18.2139C847.229 18.2139 847.482 18.2344 847.773 18.2754C848.07 18.3118 848.259 18.3392 848.341 18.3574H851.007ZM845.107 27.0801C845.107 27.3672 845.244 27.5928 845.518 27.7568C845.796 27.9209 846.183 28.0029 846.68 28.0029C847.427 28.0029 848.013 27.9004 848.436 27.6953C848.86 27.4902 849.072 27.21 849.072 26.8545C849.072 26.5674 848.947 26.3691 848.696 26.2598C848.446 26.1504 848.058 26.0957 847.534 26.0957H846.454C846.071 26.0957 845.75 26.1846 845.49 26.3623C845.235 26.5446 845.107 26.7839 845.107 27.0801ZM845.866 20.8594C845.866 21.2741 845.96 21.6022 846.146 21.8438C846.338 22.0853 846.627 22.2061 847.015 22.2061C847.407 22.2061 847.694 22.0853 847.876 21.8438C848.058 21.6022 848.149 21.2741 848.149 20.8594C848.149 19.9388 847.771 19.4785 847.015 19.4785C846.249 19.4785 845.866 19.9388 845.866 20.8594ZM859.242 26H857.157V21.5361C857.157 20.4333 856.747 19.8818 855.927 19.8818C855.343 19.8818 854.922 20.0801 854.662 20.4766C854.402 20.873 854.272 21.5156 854.272 22.4043V26H852.187V15.3633H854.272V17.5303C854.272 17.6989 854.256 18.0954 854.225 18.7197L854.177 19.335H854.286C854.751 18.5876 855.489 18.2139 856.501 18.2139C857.399 18.2139 858.08 18.4554 858.545 18.9385C859.01 19.4215 859.242 20.1143 859.242 21.0166V26ZM864.524 24.4756C864.889 24.4756 865.326 24.3958 865.837 24.2363V25.7881C865.317 26.0205 864.679 26.1367 863.923 26.1367C863.089 26.1367 862.48 25.9271 862.098 25.5078C861.719 25.084 861.53 24.4505 861.53 23.6074V19.9229H860.532V19.041L861.681 18.3438L862.282 16.7305H863.615V18.3574H865.755V19.9229H863.615V23.6074C863.615 23.9036 863.697 24.1224 863.861 24.2637C864.03 24.4049 864.251 24.4756 864.524 24.4756Z" fill="#252A2E"/><rect width="78" height="99.333" transform="translate(810.244 42)" fill="#fff"/><path d="M827.969 94.3699H826.485V96.6667H825.398V94.3699H820.538V93.3787L825.282 86.6179H826.485V93.3376H827.969V94.3699ZM825.398 93.3376V90.0154C825.398 89.3637 825.421 88.6277 825.467 87.8074H825.412C825.193 88.2449 824.988 88.6072 824.797 88.8943L821.673 93.3376H825.398ZM832.164 86.5291C833.076 86.5291 833.798 86.741 834.331 87.1648C834.864 87.5886 835.131 88.1742 835.131 88.9216C835.131 89.4138 834.978 89.8627 834.673 90.2683C834.367 90.6739 833.88 91.0431 833.21 91.3757C834.021 91.7631 834.598 92.171 834.939 92.5994C835.281 93.0232 835.452 93.5154 835.452 94.0759C835.452 94.9054 835.163 95.5684 834.584 96.0652C834.005 96.5574 833.212 96.8035 832.205 96.8035C831.139 96.8035 830.318 96.571 829.744 96.1062C829.17 95.6368 828.883 94.9737 828.883 94.1169C828.883 92.9731 829.58 92.0821 830.975 91.4441C830.346 91.0886 829.895 90.7058 829.621 90.2957C829.348 89.8809 829.211 89.4184 829.211 88.908C829.211 88.1833 829.478 87.6069 830.011 87.1785C830.548 86.7455 831.266 86.5291 832.164 86.5291ZM830.004 94.1443C830.004 94.6912 830.193 95.1173 830.571 95.4226C830.954 95.7279 831.49 95.8806 832.178 95.8806C832.857 95.8806 833.385 95.7211 833.764 95.4021C834.142 95.0831 834.331 94.6456 834.331 94.0896C834.331 93.6475 834.153 93.2556 833.798 92.9138C833.442 92.5675 832.823 92.2325 831.938 91.9089C831.259 92.2006 830.767 92.5242 830.462 92.8796C830.157 93.2306 830.004 93.6521 830.004 94.1443ZM832.15 87.4519C831.581 87.4519 831.134 87.5886 830.811 87.8621C830.487 88.1355 830.325 88.5001 830.325 88.9558C830.325 89.3751 830.46 89.7351 830.728 90.0359C830.997 90.3367 831.494 90.6375 832.219 90.9382C832.87 90.6648 833.331 90.3708 833.6 90.0564C833.873 89.7419 834.01 89.3751 834.01 88.9558C834.01 88.4955 833.843 88.1309 833.511 87.8621C833.183 87.5886 832.729 87.4519 832.15 87.4519ZM842.402 95.6619H842.341C841.817 96.4229 841.033 96.8035 839.989 96.8035C839.009 96.8035 838.246 96.4685 837.699 95.7986C837.157 95.1287 836.886 94.1762 836.886 92.9412C836.886 91.7061 837.159 90.7468 837.706 90.0632C838.253 89.3796 839.014 89.0378 839.989 89.0378C841.006 89.0378 841.785 89.407 842.327 90.1453H842.416L842.368 89.6052L842.341 89.0789V86.03H843.476V96.6667H842.553L842.402 95.6619ZM840.133 95.8533C840.908 95.8533 841.468 95.6436 841.814 95.2244C842.165 94.8005 842.341 94.1192 842.341 93.1804V92.9412C842.341 91.8793 842.163 91.1228 841.808 90.6716C841.457 90.2159 840.894 89.988 840.119 89.988C839.454 89.988 838.943 90.2478 838.588 90.7673C838.237 91.2823 838.061 92.0115 838.061 92.9548C838.061 93.9119 838.237 94.6342 838.588 95.1218C838.939 95.6095 839.454 95.8533 840.133 95.8533ZM849.291 96.8035C848.803 96.8035 848.357 96.7146 847.951 96.5369C847.55 96.3546 847.213 96.0766 846.939 95.7029H846.857C846.912 96.1404 846.939 96.5551 846.939 96.947V100.03H845.805V89.1746H846.727L846.885 90.2H846.939C847.231 89.7898 847.571 89.4936 847.958 89.3113C848.345 89.129 848.79 89.0378 849.291 89.0378C850.284 89.0378 851.05 89.3774 851.588 90.0564C852.13 90.7354 852.401 91.6879 852.401 92.9138C852.401 94.1443 852.126 95.1013 851.574 95.7849C851.027 96.4639 850.266 96.8035 849.291 96.8035ZM849.127 90.0017C848.361 90.0017 847.808 90.2136 847.466 90.6375C847.124 91.0613 846.949 91.7358 846.939 92.6609V92.9138C846.939 93.9666 847.115 94.7208 847.466 95.1765C847.817 95.6277 848.38 95.8533 849.154 95.8533C849.801 95.8533 850.307 95.5912 850.672 95.0671C851.041 94.5431 851.226 93.8207 851.226 92.9001C851.226 91.9659 851.041 91.2504 850.672 90.7537C850.307 90.2524 849.792 90.0017 849.127 90.0017Z" fill="#252A2E"/><rect width="78" height="99.333" transform="translate(810.244 142.333)" fill="#fff"/><path d="M824.052 190.896C825.104 190.896 825.932 191.158 826.533 191.682C827.139 192.201 827.442 192.914 827.442 193.821C827.442 194.856 827.112 195.667 826.451 196.255C825.795 196.843 824.888 197.137 823.73 197.137C822.605 197.137 821.746 196.957 821.153 196.597V195.503C821.472 195.708 821.869 195.87 822.343 195.988C822.817 196.102 823.284 196.159 823.744 196.159C824.546 196.159 825.168 195.97 825.61 195.592C826.057 195.214 826.28 194.667 826.28 193.951C826.28 192.557 825.426 191.859 823.717 191.859C823.284 191.859 822.705 191.925 821.98 192.058L821.393 191.682L821.769 187.006H826.738V188.052H822.739L822.486 191.053C823.01 190.948 823.532 190.896 824.052 190.896ZM828.972 192.728C828.972 190.763 829.352 189.296 830.113 188.325C830.879 187.35 832.009 186.862 833.504 186.862C834.019 186.862 834.424 186.906 834.721 186.992V187.97C834.37 187.856 833.969 187.799 833.518 187.799C832.447 187.799 831.629 188.134 831.063 188.804C830.498 189.469 830.188 190.517 830.134 191.948H830.216C830.717 191.164 831.51 190.772 832.595 190.772C833.492 190.772 834.199 191.044 834.714 191.586C835.233 192.128 835.493 192.864 835.493 193.794C835.493 194.833 835.208 195.651 834.639 196.248C834.074 196.84 833.308 197.137 832.342 197.137C831.307 197.137 830.487 196.749 829.881 195.975C829.275 195.195 828.972 194.113 828.972 192.728ZM832.328 196.173C832.975 196.173 833.477 195.97 833.832 195.564C834.192 195.154 834.372 194.564 834.372 193.794C834.372 193.133 834.206 192.614 833.873 192.235C833.54 191.857 833.044 191.668 832.383 191.668C831.973 191.668 831.597 191.752 831.255 191.921C830.913 192.09 830.64 192.322 830.435 192.618C830.234 192.914 830.134 193.222 830.134 193.541C830.134 194.01 830.225 194.448 830.407 194.854C830.59 195.259 830.847 195.58 831.18 195.817C831.517 196.054 831.9 196.173 832.328 196.173ZM842.402 195.995H842.341C841.817 196.756 841.033 197.137 839.989 197.137C839.009 197.137 838.246 196.802 837.699 196.132C837.157 195.462 836.886 194.509 836.886 193.274C836.886 192.039 837.159 191.08 837.706 190.396C838.253 189.713 839.014 189.371 839.989 189.371C841.006 189.371 841.785 189.74 842.327 190.479H842.416L842.368 189.938L842.341 189.412V186.363H843.476V197H842.553L842.402 195.995ZM840.133 196.187C840.908 196.187 841.468 195.977 841.814 195.558C842.165 195.134 842.341 194.452 842.341 193.514V193.274C842.341 192.213 842.163 191.456 841.808 191.005C841.457 190.549 840.894 190.321 840.119 190.321C839.454 190.321 838.943 190.581 838.588 191.101C838.237 191.616 838.061 192.345 838.061 193.288C838.061 194.245 838.237 194.967 838.588 195.455C838.939 195.943 839.454 196.187 840.133 196.187ZM849.291 197.137C848.803 197.137 848.357 197.048 847.951 196.87C847.55 196.688 847.213 196.41 846.939 196.036H846.857C846.912 196.474 846.939 196.888 846.939 197.28V200.363H845.805V189.508H846.727L846.885 190.533H846.939C847.231 190.123 847.571 189.827 847.958 189.645C848.345 189.462 848.79 189.371 849.291 189.371C850.284 189.371 851.05 189.711 851.588 190.39C852.13 191.069 852.401 192.021 852.401 193.247C852.401 194.478 852.126 195.435 851.574 196.118C851.027 196.797 850.266 197.137 849.291 197.137ZM849.127 190.335C848.361 190.335 847.808 190.547 847.466 190.971C847.124 191.395 846.949 192.069 846.939 192.994V193.247C846.939 194.3 847.115 195.054 847.466 195.51C847.817 195.961 848.38 196.187 849.154 196.187C849.801 196.187 850.307 195.924 850.672 195.4C851.041 194.876 851.226 194.154 851.226 193.233C851.226 192.299 851.041 191.584 850.672 191.087C850.307 190.586 849.792 190.335 849.127 190.335Z" fill="#252A2E"/><rect width="196.756" height="242.667" transform="translate(889.244)" fill="#C4C4C4"/><rect width="196.756" height="40" transform="translate(889.244 1)" fill="#F1F1F6"/><path d="M902.587 26H900.502V16.0059H906.23V17.7422H902.587V20.3193H905.978V22.0488H902.587V26ZM909.599 22.165C909.599 22.9215 909.722 23.4935 909.968 23.8809C910.218 24.2682 910.624 24.4619 911.185 24.4619C911.741 24.4619 912.139 24.2705 912.381 23.8877C912.627 23.5003 912.75 22.9261 912.75 22.165C912.75 21.4085 912.627 20.8411 912.381 20.4629C912.135 20.0846 911.731 19.8955 911.171 19.8955C910.615 19.8955 910.214 20.0846 909.968 20.4629C909.722 20.8366 909.599 21.404 909.599 22.165ZM914.883 22.165C914.883 23.4092 914.555 24.3822 913.898 25.084C913.242 25.7858 912.328 26.1367 911.157 26.1367C910.423 26.1367 909.776 25.9772 909.216 25.6582C908.655 25.3346 908.225 24.8721 907.924 24.2705C907.623 23.6689 907.473 22.9671 907.473 22.165C907.473 20.9163 907.798 19.9456 908.45 19.2529C909.102 18.5602 910.018 18.2139 911.198 18.2139C911.932 18.2139 912.579 18.3734 913.14 18.6924C913.7 19.0114 914.131 19.4694 914.432 20.0664C914.732 20.6634 914.883 21.363 914.883 22.165ZM923.576 26H921.491V21.5361C921.491 20.9847 921.393 20.5723 921.197 20.2988C921.001 20.0208 920.689 19.8818 920.261 19.8818C919.677 19.8818 919.256 20.0778 918.996 20.4697C918.736 20.8571 918.606 21.502 918.606 22.4043V26H916.521V18.3574H918.114L918.395 19.335H918.511C918.743 18.9658 919.062 18.6878 919.468 18.501C919.878 18.3096 920.343 18.2139 920.862 18.2139C921.751 18.2139 922.425 18.4554 922.886 18.9385C923.346 19.417 923.576 20.1097 923.576 21.0166V26ZM928.858 24.4756C929.223 24.4756 929.66 24.3958 930.171 24.2363V25.7881C929.651 26.0205 929.013 26.1367 928.257 26.1367C927.423 26.1367 926.814 25.9271 926.432 25.5078C926.053 25.084 925.864 24.4505 925.864 23.6074V19.9229H924.866V19.041L926.015 18.3438L926.616 16.7305H927.949V18.3574H930.089V19.9229H927.949V23.6074C927.949 23.9036 928.031 24.1224 928.195 24.2637C928.364 24.4049 928.585 24.4756 928.858 24.4756ZM940.523 23.7305C940.523 24.5143 940.25 25.1113 939.703 25.5215C939.161 25.9316 938.347 26.1367 937.263 26.1367C936.707 26.1367 936.233 26.098 935.841 26.0205C935.449 25.9476 935.082 25.8382 934.74 25.6924V23.9697C935.128 24.152 935.563 24.3047 936.046 24.4277C936.533 24.5508 936.962 24.6123 937.331 24.6123C938.087 24.6123 938.466 24.3936 938.466 23.9561C938.466 23.792 938.416 23.6598 938.315 23.5596C938.215 23.4548 938.042 23.3385 937.796 23.2109C937.55 23.0788 937.222 22.9261 936.811 22.7529C936.224 22.5068 935.791 22.279 935.513 22.0693C935.239 21.8597 935.039 21.6204 934.911 21.3516C934.788 21.0781 934.726 20.7432 934.726 20.3467C934.726 19.6676 934.989 19.1436 935.513 18.7744C936.041 18.4007 936.789 18.2139 937.755 18.2139C938.675 18.2139 939.571 18.4144 940.441 18.8154L939.812 20.3193C939.43 20.1553 939.072 20.0208 938.739 19.916C938.406 19.8112 938.067 19.7588 937.721 19.7588C937.105 19.7588 936.798 19.9251 936.798 20.2578C936.798 20.4447 936.896 20.6064 937.092 20.7432C937.292 20.8799 937.727 21.0827 938.397 21.3516C938.994 21.5931 939.432 21.8187 939.71 22.0283C939.988 22.238 940.193 22.4795 940.325 22.7529C940.457 23.0264 940.523 23.3522 940.523 23.7305ZM941.977 16.3818C941.977 15.7028 942.356 15.3633 943.112 15.3633C943.869 15.3633 944.247 15.7028 944.247 16.3818C944.247 16.7054 944.151 16.9583 943.96 17.1406C943.773 17.3184 943.49 17.4072 943.112 17.4072C942.356 17.4072 941.977 17.0654 941.977 16.3818ZM944.151 26H942.066V18.3574H944.151V26ZM951.58 26H945.544V24.7695L949.085 19.9502H945.756V18.3574H951.457V19.7109L948.012 24.4072H951.58V26ZM956.179 19.6973C955.737 19.6973 955.39 19.8385 955.14 20.1211C954.889 20.3991 954.745 20.7956 954.709 21.3105H957.635C957.626 20.7956 957.491 20.3991 957.231 20.1211C956.972 19.8385 956.621 19.6973 956.179 19.6973ZM956.473 26.1367C955.242 26.1367 954.28 25.7972 953.588 25.1182C952.895 24.4391 952.549 23.4775 952.549 22.2334C952.549 20.9528 952.868 19.9639 953.506 19.2666C954.148 18.5648 955.035 18.2139 956.165 18.2139C957.245 18.2139 958.086 18.5215 958.687 19.1367C959.289 19.752 959.59 20.6019 959.59 21.6865V22.6982H954.661C954.684 23.2907 954.859 23.7533 955.187 24.0859C955.515 24.4186 955.976 24.585 956.568 24.585C957.029 24.585 957.464 24.5371 957.874 24.4414C958.284 24.3457 958.712 24.193 959.159 23.9834V25.5967C958.794 25.779 958.405 25.9134 957.99 26C957.575 26.0911 957.07 26.1367 956.473 26.1367Z" fill="#252A2E"/><rect width="196.756" height="99.333" transform="translate(889.244 42)" fill="#fff"/><path d="M904.132 96.6667H903.024V89.5437C903.024 88.9513 903.043 88.3907 903.079 87.8621C902.983 87.9578 902.876 88.058 902.758 88.1628C902.639 88.2677 902.097 88.712 901.131 89.4958L900.529 88.7166L903.175 86.6726H904.132V96.6667ZM914.896 94.3699H913.413V96.6667H912.326V94.3699H907.466V93.3787L912.21 86.6179H913.413V93.3376H914.896V94.3699ZM912.326 93.3376V90.0154C912.326 89.3637 912.349 88.6277 912.395 87.8074H912.34C912.121 88.2449 911.916 88.6072 911.725 88.8943L908.601 93.3376H912.326ZM924.688 94.6228C924.688 95.3201 924.429 95.8578 923.909 96.2361C923.39 96.6143 922.66 96.8035 921.722 96.8035C920.728 96.8035 919.953 96.6462 919.397 96.3318V95.2791C919.757 95.4613 920.143 95.6049 920.553 95.7097C920.967 95.8145 921.366 95.8669 921.749 95.8669C922.341 95.8669 922.797 95.7735 923.116 95.5867C923.435 95.3953 923.595 95.1059 923.595 94.7185C923.595 94.4268 923.467 94.1785 923.212 93.9734C922.961 93.7638 922.469 93.5177 921.735 93.2351C921.038 92.9753 920.541 92.7498 920.245 92.5583C919.953 92.3624 919.735 92.1414 919.589 91.8953C919.448 91.6492 919.377 91.3552 919.377 91.0134C919.377 90.4028 919.625 89.922 920.122 89.571C920.619 89.2156 921.3 89.0378 922.166 89.0378C922.973 89.0378 923.761 89.2019 924.531 89.53L924.128 90.4529C923.376 90.143 922.695 89.988 922.084 89.988C921.546 89.988 921.141 90.0723 920.867 90.241C920.594 90.4096 920.457 90.642 920.457 90.9382C920.457 91.1388 920.507 91.3097 920.607 91.4509C920.712 91.5922 920.879 91.7266 921.106 91.8542C921.334 91.9819 921.772 92.1664 922.419 92.408C923.308 92.7315 923.907 93.0574 924.217 93.3855C924.531 93.7136 924.688 94.1261 924.688 94.6228ZM929.943 96.8035C929.456 96.8035 929.009 96.7146 928.603 96.5369C928.202 96.3546 927.865 96.0766 927.592 95.7029H927.51C927.564 96.1404 927.592 96.5551 927.592 96.947V100.03H926.457V89.1746H927.38L927.537 90.2H927.592C927.883 89.7898 928.223 89.4936 928.61 89.3113C928.998 89.129 929.442 89.0378 929.943 89.0378C930.937 89.0378 931.702 89.3774 932.24 90.0564C932.782 90.7354 933.054 91.6879 933.054 92.9138C933.054 94.1443 932.778 95.1013 932.226 95.7849C931.68 96.4639 930.919 96.8035 929.943 96.8035ZM929.779 90.0017C929.014 90.0017 928.46 90.2136 928.118 90.6375C927.776 91.0613 927.601 91.7358 927.592 92.6609V92.9138C927.592 93.9666 927.767 94.7208 928.118 95.1765C928.469 95.6277 929.032 95.8533 929.807 95.8533C930.454 95.8533 930.96 95.5912 931.324 95.0671C931.693 94.5431 931.878 93.8207 931.878 92.9001C931.878 91.9659 931.693 91.2504 931.324 90.7537C930.96 90.2524 930.445 90.0017 929.779 90.0017Z" fill="#252A2E"/><rect width="196.756" height="99.333" transform="translate(889.244 142.333)" fill="#fff"/><path d="M904.132 197H903.024V189.877C903.024 189.285 903.043 188.724 903.079 188.195C902.983 188.291 902.876 188.391 902.758 188.496C902.639 188.601 902.097 189.045 901.131 189.829L900.529 189.05L903.175 187.006H904.132V197ZM914.896 194.703H913.413V197H912.326V194.703H907.466V193.712L912.21 186.951H913.413V193.671H914.896V194.703ZM912.326 193.671V190.349C912.326 189.697 912.349 188.961 912.395 188.141H912.34C912.121 188.578 911.916 188.94 911.725 189.228L908.601 193.671H912.326ZM924.955 195.995H924.894C924.369 196.756 923.586 197.137 922.542 197.137C921.562 197.137 920.799 196.802 920.252 196.132C919.71 195.462 919.438 194.509 919.438 193.274C919.438 192.039 919.712 191.08 920.259 190.396C920.806 189.713 921.567 189.371 922.542 189.371C923.558 189.371 924.338 189.74 924.88 190.479H924.969L924.921 189.938L924.894 189.412V186.363H926.028V197H925.105L924.955 195.995ZM922.685 196.187C923.46 196.187 924.021 195.977 924.367 195.558C924.718 195.134 924.894 194.452 924.894 193.514V193.274C924.894 192.213 924.716 191.456 924.36 191.005C924.009 190.549 923.447 190.321 922.672 190.321C922.006 190.321 921.496 190.581 921.141 191.101C920.79 191.616 920.614 192.345 920.614 193.288C920.614 194.245 920.79 194.967 921.141 195.455C921.491 195.943 922.006 196.187 922.685 196.187ZM931.844 197.137C931.356 197.137 930.909 197.048 930.504 196.87C930.103 196.688 929.766 196.41 929.492 196.036H929.41C929.465 196.474 929.492 196.888 929.492 197.28V200.363H928.357V189.508H929.28L929.437 190.533H929.492C929.784 190.123 930.123 189.827 930.511 189.645C930.898 189.462 931.342 189.371 931.844 189.371C932.837 189.371 933.603 189.711 934.141 190.39C934.683 191.069 934.954 192.021 934.954 193.247C934.954 194.478 934.678 195.435 934.127 196.118C933.58 196.797 932.819 197.137 931.844 197.137ZM931.68 190.335C930.914 190.335 930.36 190.547 930.018 190.971C929.677 191.395 929.501 192.069 929.492 192.994V193.247C929.492 194.3 929.668 195.054 930.018 195.51C930.369 195.961 930.932 196.187 931.707 196.187C932.354 196.187 932.86 195.924 933.225 195.4C933.594 194.876 933.778 194.154 933.778 193.233C933.778 192.299 933.594 191.584 933.225 191.087C932.86 190.586 932.345 190.335 931.68 190.335Z" fill="#252A2E"/><defs><clipPath id="clip0_261_60784"><rect x="326.833" y="67.667" width="374" height="48" fill="#fff"/></clipPath><clipPath id="clip1_261_60784"><rect x="326.833" y="67.667" width="374" height="48" rx="4" fill="#fff"/></clipPath><clipPath id="clip2_261_60784"><rect width="374" height="48" fill="#fff" transform="translate(330.833 168)"/></clipPath><clipPath id="clip3_261_60784"><rect x="330.833" y="168" width="374" height="48" rx="4" fill="#fff"/></clipPath></defs></svg>