<svg fill="none" height="415" viewBox="0 0 960 415" width="960" xmlns="http://www.w3.org/2000/svg" xmlns:xlink="http://www.w3.org/1999/xlink"><filter id="a" color-interpolation-filters="sRGB" filterUnits="userSpaceOnUse" height="100" width="151" x="784" y="126"><feFlood flood-opacity="0" result="BackgroundImageFix"/><feColorMatrix in="SourceAlpha" result="hardAlpha" type="matrix" values="0 0 0 0 0 0 0 0 0 0 0 0 0 0 0 0 0 0 127 0"/><feOffset dy="2"/><feGaussianBlur stdDeviation="2"/><feColorMatrix type="matrix" values="0 0 0 0 0 0 0 0 0 0 0 0 0 0 0 0 0 0 0.1 0"/><feBlend in2="BackgroundImageFix" mode="normal" result="effect1_dropShadow_274_59729"/><feBlend in="SourceGraphic" in2="effect1_dropShadow_274_59729" mode="normal" result="shape"/></filter><filter id="b" color-interpolation-filters="sRGB" filterUnits="userSpaceOnUse" height="77.5" width="143.5" x="31" y="272"><feFlood flood-opacity="0" result="BackgroundImageFix"/><feColorMatrix in="SourceAlpha" result="hardAlpha" type="matrix" values="0 0 0 0 0 0 0 0 0 0 0 0 0 0 0 0 0 0 127 0"/><feOffset dy="2"/><feGaussianBlur stdDeviation="2"/><feColorMatrix type="matrix" values="0 0 0 0 0 0 0 0 0 0 0 0 0 0 0 0 0 0 0.1 0"/><feBlend in2="BackgroundImageFix" mode="normal" result="effect1_dropShadow_274_59729"/><feBlend in="SourceGraphic" in2="effect1_dropShadow_274_59729" mode="normal" result="shape"/></filter><clipPath id="c"><path d="m0 0h960v415h-960z"/></clipPath><clipPath id="d"><rect height="351" rx="4" width="600" x="180" y="32"/></clipPath><clipPath id="e"><path d="m0 0h5.5v11h-5.5z" transform="matrix(1 0 0 -1 788 180)"/></clipPath><clipPath id="f"><path d="m0 0h5.5v11h-5.5z" transform="matrix(-1 0 0 -1 170.5 314.25)"/></clipPath><clipPath id="g"><path d="m0 0h5.5v11h-5.5z" transform="matrix(-1 0 0 -1 167.5 67)"/></clipPath><g clip-path="url(#c)"><path d="m0 0h960v415h-960z" fill="#252a2e"/><g clip-path="url(#d)"><path d="m180 32h584v56h-584z" fill="#171c1e"/><path d="m208 50.75c-.442 0-.862.0878-1.244.2463-.382.1587-.821-.0229-.98-.4055s.023-.8214.406-.9801c.561-.2327 1.175-.3607 1.818-.3607h1.5c.414 0 .75.3358.75.75s-.336.75-.75.75z" fill="#fff"/><path d="m211.75 50c0-.4142.336-.75.75-.75h3c.414 0 .75.3358.75.75s-.336.75-.75.75h-3c-.414 0-.75-.3358-.75-.75z" fill="#fff"/><path d="m217.75 50c0-.4142.336-.75.75-.75h1.5c.643 0 1.257.128 1.818.3607.383.1587.565.5975.406.9801s-.598.5642-.98.4055c-.382-.1585-.802-.2463-1.244-.2463h-1.5c-.414 0-.75-.3358-.75-.75z" fill="#fff"/><path d="m204.591 51.7761c.382.1586.564.5974.405.98-.158.3822-.246.8018-.246 1.2439v1.5c0 .4142-.336.75-.75.75s-.75-.3358-.75-.75v-1.5c0-.6427.128-1.2573.361-1.8184.158-.3827.597-.5642.98-.4055z" fill="#fff"/><path d="m223.409 51.7761c.383-.1587.822.0228.98.4055.233.5611.361 1.1757.361 1.8184v1.5c0 .4142-.336.75-.75.75s-.75-.3358-.75-.75v-1.5c0-.4421-.088-.8617-.246-1.2439-.159-.3826.023-.8214.405-.98z" fill="#fff"/><path d="m204 57.75c.414 0 .75.3358.75.75v3c0 .4142-.336.75-.75.75s-.75-.3358-.75-.75v-3c0-.4142.336-.75.75-.75z" fill="#fff"/><path d="m224 57.75c.414 0 .75.3358.75.75v3c0 .4142-.336.75-.75.75s-.75-.3358-.75-.75v-3c0-.4142.336-.75.75-.75z" fill="#fff"/><path d="m204 63.75c.414 0 .75.3358.75.75v1.5c0 .4421.088.8617.246 1.2439.159.3826-.023.8214-.405.98-.383.1587-.822-.0228-.98-.4055-.233-.5611-.361-1.1757-.361-1.8184v-1.5c0-.4142.336-.75.75-.75z" fill="#fff"/><path d="m224 63.75c.414 0 .75.3358.75.75v1.5c0 .6427-.128 1.2573-.361 1.8184-.158.3827-.597.5642-.98.4055-.382-.1586-.564-.5974-.405-.98.158-.3822.246-.8018.246-1.2439v-1.5c0-.4142.336-.75.75-.75z" fill="#fff"/><path d="m205.776 69.4092c.159-.3826.598-.5642.98-.4055.382.1585.802.2463 1.244.2463h1.5c.414 0 .75.3358.75.75s-.336.75-.75.75h-1.5c-.643 0-1.257-.128-1.818-.3607-.383-.1587-.565-.5975-.406-.9801z" fill="#fff"/><path d="m222.224 69.4092c.159.3826-.023.8214-.406.9801-.561.2327-1.175.3607-1.818.3607h-1.5c-.414 0-.75-.3358-.75-.75s.336-.75.75-.75h1.5c.442 0 .862-.0878 1.244-.2463.382-.1587.821.0229.98.4055z" fill="#fff"/><path d="m211.75 70c0-.4142.336-.75.75-.75h3c.414 0 .75.3358.75.75s-.336.75-.75.75h-3c-.414 0-.75-.3358-.75-.75z" fill="#fff"/><path d="m222.53 52.591c.293-.2929.293-.7678 0-1.0607s-.767-.2929-1.06 0l-.997.9962c-.292.2929-.292.7678 0 1.0607.293.2929.768.2929 1.061 0z" fill="#fff"/><path d="m219.542 55.5796c.293-.2929.293-.7678 0-1.0606-.293-.2929-.768-.2929-1.061 0l-1.992 1.9924c-.293.2929-.293.7677 0 1.0606s.767.2929 1.06 0z" fill="#fff"/><path d="m215.557 59.5645c.293-.2929.293-.7678 0-1.0607s-.768-.2929-1.061 0l-.496.4962-.496-.4962c-.293-.2929-.768-.2929-1.061 0s-.293.7678 0 1.0607l.496.4962-.435.4355c-.293.2929-.293.7678 0 1.0607s.768.2929 1.06 0l.436-.4356.436.4356c.292.2929.767.2929 1.06 0s.293-.7678 0-1.0607l-.435-.4355z" fill="#fff"/><path d="m211.572 63.5493c.293-.2929.293-.7678 0-1.0607s-.768-.2929-1.061 0l-1.992 1.9924c-.293.2929-.293.7678 0 1.0607s.768.2929 1.061 0z" fill="#fff"/><path d="m207.587 67.5341c.293-.2929.293-.7677 0-1.0606s-.768-.2929-1.06 0l-.997.9962c-.293.2929-.293.7677 0 1.0606s.768.2929 1.061 0z" fill="#fff"/><path d="m221.409 68.5303c.293.2929.768.2929 1.061 0s.293-.7677 0-1.0606l-.997-.9962c-.292-.2929-.767-.2929-1.06 0s-.293.7677 0 1.0606z" fill="#fff"/><path d="m218.42 65.5417c.293.2929.768.2929 1.061 0s.293-.7678 0-1.0607l-1.992-1.9924c-.293-.2929-.768-.2929-1.061 0s-.293.7678 0 1.0607z" fill="#fff"/><path d="m210.451 57.572c.293.2929.767.2929 1.06 0s.293-.7677 0-1.0606l-1.992-1.9924c-.293-.2929-.768-.2929-1.061 0-.293.2928-.293.7677 0 1.0606z" fill="#fff"/><path d="m206.466 53.5872c.293.2929.768.2929 1.061 0 .292-.2929.292-.7678 0-1.0607l-.997-.9962c-.293-.2929-.767-.2929-1.06 0s-.293.7678 0 1.0607z" fill="#fff"/><path d="m211.056 54.889c.298-.0902.615-.139.944-.139h.75c.414 0 .75-.3358.75-.75s-.336-.75-.75-.75h-.75c-.478 0-.942.071-1.379.2035-.396.1201-.62.5388-.5.9352s.539.6204.935.5003z" fill="#fff"/><path d="m215.25 53.25c-.414 0-.75.3358-.75.75s.336.75.75.75h.75c.329 0 .646.0488.944.139.396.1201.815-.1039.935-.5003s-.104-.8151-.5-.9352c-.437-.1325-.901-.2035-1.379-.2035z" fill="#fff"/><path d="m208.889 57.0559c.12-.3964-.104-.8151-.5-.9352-.397-.1201-.815.1039-.936.5003-.132.4373-.203.9006-.203 1.379v.75c0 .4142.336.75.75.75s.75-.3358.75-.75v-.75c0-.3295.049-.6462.139-.9441z" fill="#fff"/><path d="m220.547 56.621c-.121-.3964-.539-.6204-.936-.5003-.396.1201-.62.5388-.5.9352.09.2979.139.6146.139.9441v.75c0 .4142.336.75.75.75s.75-.3358.75-.75v-.75c0-.4784-.071-.9417-.203-1.379z" fill="#fff"/><path d="m208.75 61.25c0-.4142-.336-.75-.75-.75s-.75.3358-.75.75v.75c0 .4784.071.9417.203 1.379.121.3964.539.6204.936.5003.396-.1201.62-.5388.5-.9352-.09-.2979-.139-.6146-.139-.9441z" fill="#fff"/><path d="m220.75 61.25c0-.4142-.336-.75-.75-.75s-.75.3358-.75.75v.75c0 .3295-.049.6462-.139.9441-.12.3964.104.8151.5.9352.397.1201.815-.1039.936-.5003.132-.4373.203-.9006.203-1.379z" fill="#fff"/><path d="m211.056 65.111c-.396-.1201-.815.1039-.935.5003s.104.8151.5.9352c.437.1325.901.2035 1.379.2035h.75c.414 0 .75-.3358.75-.75s-.336-.75-.75-.75h-.75c-.329 0-.646-.0488-.944-.139z" fill="#fff"/><path d="m217.379 66.5465c.396-.1201.62-.5388.5-.9352s-.539-.6204-.935-.5003c-.298.0902-.615.139-.944.139h-.75c-.414 0-.75.3358-.75.75s.336.75.75.75h.75c.478 0 .942-.071 1.379-.2035z" fill="#fff"/><path d="m264.242 66h-1.328v-5.375h-6.016v5.375h-1.328v-11.4219h1.328v4.8594h6.016v-4.8594h1.328zm6.713.1562c-1.266 0-2.266-.3854-3-1.1562-.729-.7708-1.094-1.8411-1.094-3.2109 0-1.3802.338-2.4766 1.016-3.2891.682-.8125 1.596-1.2188 2.742-1.2188 1.073 0 1.922.3542 2.547 1.0626.625.7031.937 1.6328.937 2.789v.8203h-5.898c.026 1.0052.278 1.7683.757 2.2891.485.5208 1.165.7812 2.04.7812.921 0 1.833-.1927 2.734-.5781v1.1563c-.458.1979-.893.3385-1.305.4218-.406.0886-.898.1328-1.476.1328zm-.352-7.789c-.687 0-1.237.2239-1.648.6719-.407.4479-.646 1.0677-.719 1.8593h4.476c0-.8177-.182-1.4427-.546-1.875-.365-.4375-.886-.6562-1.563-.6562zm11.134 7.6328-.257-1.2188h-.063c-.427.5365-.854.9011-1.281 1.0938-.422.1875-.951.2812-1.586.2812-.849 0-1.516-.2187-2-.6562-.479-.4375-.719-1.0599-.719-1.8672 0-1.7292 1.383-2.6354 4.149-2.7187l1.453-.0469v-.5313c0-.6718-.146-1.1666-.438-1.4843-.286-.323-.747-.4844-1.383-.4844-.713 0-1.52.2187-2.421.6562l-.399-.9922c.422-.2291.883-.4088 1.383-.539.505-.1302 1.01-.1953 1.516-.1953 1.02 0 1.776.2265 2.265.6797.495.4531.742 1.1796.742 2.1796v5.8438zm-2.929-.9141c.807 0 1.44-.2213 1.898-.664.464-.4427.696-1.0625.696-1.8594v-.7734l-1.297.0547c-1.032.0364-1.776.1979-2.235.4843-.453.2813-.679.7214-.679 1.3203 0 .4688.14.8256.421 1.0704.287.2447.685.3671 1.196.3671zm12.548-.2343h-.07c-.599.8698-1.495 1.3046-2.688 1.3046-1.119 0-1.992-.3828-2.617-1.1484-.62-.7656-.929-1.8542-.929-3.2656 0-1.4115.312-2.5078.937-3.2891.625-.7812 1.495-1.1719 2.609-1.1719 1.162 0 2.053.4219 2.672 1.2657h.102l-.055-.6172-.031-.6016v-3.4843h1.297v12.1562h-1.055zm-2.593.2187c.885 0 1.526-.2396 1.921-.7187.401-.4844.602-1.2631.602-2.336v-.2734c0-1.2136-.203-2.0781-.609-2.5938-.401-.5208-1.045-.7812-1.93-.7812-.761 0-1.344.2969-1.75.8906-.401.5886-.602 1.4219-.602 2.5 0 1.0938.201 1.9193.602 2.4766s.989.8359 1.766.8359zm10.345 1.0859c-1.266 0-2.266-.3854-3-1.1562-.729-.7708-1.094-1.8411-1.094-3.2109 0-1.3802.339-2.4766 1.016-3.2891.682-.8125 1.596-1.2188 2.742-1.2188 1.073 0 1.922.3542 2.547 1.0626.625.7031.937 1.6328.937 2.789v.8203h-5.898c.026 1.0052.278 1.7683.758 2.2891.484.5208 1.164.7812 2.039.7812.922 0 1.833-.1927 2.734-.5781v1.1563c-.458.1979-.893.3385-1.305.4218-.406.0886-.898.1328-1.476.1328zm-.352-7.789c-.687 0-1.237.2239-1.648.6719-.406.4479-.646 1.0677-.719 1.8593h4.477c0-.8177-.183-1.4427-.547-1.875-.365-.4375-.886-.6562-1.563-.6562zm9.775-1.086c.38 0 .722.0313 1.024.0938l-.18 1.2031c-.354-.0781-.667-.1172-.937-.1172-.693 0-1.287.2813-1.782.8438-.489.5625-.734 1.263-.734 2.1015v4.5938h-1.297v-8.5625h1.07l.149 1.5859h.062c.318-.5573.701-.9869 1.149-1.289s.94-.4532 1.476-.4532z" fill="#fff"/><path d="m180 89h584v56h-584z" fill="#171c1e"/><path clip-rule="evenodd" d="m207.778 109h12.444c.978 0 1.778.8 1.778 1.778v12.444c0 .978-.8 1.778-1.778 1.778h-12.444c-.978 0-1.778-.8-1.778-1.778v-12.444c0-.978.8-1.778 1.778-1.778zm12.444 14.222v-12.444h-12.444v12.444z" fill="#fff" fill-rule="evenodd"/><path d="m264.688 117.18c0 1.885-.514 3.328-1.54 4.328-1.02.995-2.492 1.492-4.414 1.492h-3.164v-11.422h3.5c1.776 0 3.157.492 4.141 1.477.984.984 1.477 2.359 1.477 4.125zm-1.407.047c0-1.49-.375-2.612-1.125-3.368-.745-.755-1.854-1.132-3.328-1.132h-1.93v9.125h1.618c1.583 0 2.773-.388 3.57-1.164.797-.782 1.195-1.935 1.195-3.461zm7.533 5.929c-1.266 0-2.266-.385-3-1.156-.729-.771-1.094-1.841-1.094-3.211 0-1.38.339-2.477 1.016-3.289.682-.812 1.596-1.219 2.742-1.219 1.073 0 1.922.354 2.547 1.063.625.703.937 1.633.937 2.789v.82h-5.898c.026 1.005.279 1.768.758 2.289.484.521 1.164.781 2.039.781.922 0 1.833-.192 2.734-.578v1.157c-.458.197-.893.338-1.304.421-.407.089-.899.133-1.477.133zm-.352-7.789c-.687 0-1.236.224-1.648.672-.406.448-.646 1.068-.719 1.859h4.477c0-.817-.182-1.442-.547-1.875-.365-.437-.885-.656-1.563-.656zm9.729.078h-2.18v7.555h-1.297v-7.555h-1.531v-.586l1.531-.468v-.477c0-2.104.919-3.156 2.758-3.156.453 0 .984.091 1.594.273l-.336 1.039c-.5-.161-.927-.242-1.282-.242-.489 0-.851.164-1.086.492-.234.323-.351.844-.351 1.563v.555h2.18zm6.978 7.555-.258-1.219h-.063c-.427.537-.854.901-1.281 1.094-.422.187-.95.281-1.586.281-.849 0-1.515-.218-2-.656-.479-.438-.718-1.06-.718-1.867 0-1.729 1.382-2.636 4.148-2.719l1.453-.047v-.531c0-.672-.146-1.167-.437-1.484-.287-.323-.748-.485-1.383-.485-.714 0-1.521.219-2.422.656l-.399-.992c.422-.229.883-.409 1.383-.539.505-.13 1.011-.195 1.516-.195 1.021 0 1.776.226 2.266.68.494.453.742 1.179.742 2.179v5.844zm-2.93-.914c.807 0 1.44-.221 1.899-.664.463-.443.695-1.063.695-1.86v-.773l-1.297.055c-1.031.036-1.776.198-2.234.484-.454.281-.68.721-.68 1.32 0 .469.141.826.422 1.071.286.245.685.367 1.195.367zm7.939-7.648v5.554c0 .698.159 1.219.477 1.563.317.343.815.515 1.492.515.896 0 1.549-.244 1.961-.734.416-.49.625-1.289.625-2.398v-4.5h1.297v8.562h-1.071l-.187-1.148h-.07c-.266.421-.636.744-1.11.968-.469.224-1.005.336-1.609.336-1.042 0-1.823-.247-2.344-.742-.516-.495-.773-1.286-.773-2.375v-5.601zm10.056 8.562h-1.296v-12.156h1.296zm5.666-.914c.229 0 .451-.016.664-.047.214-.036.383-.073.508-.109v.992c-.141.068-.349.122-.625.164-.271.047-.516.07-.734.07-1.657 0-2.485-.872-2.485-2.617v-5.094h-1.226v-.625l1.226-.539.547-1.828h.75v1.985h2.484v1.007h-2.484v5.039c0 .516.122.912.367 1.188s.581.414 1.008.414z" fill="#fff"/><path d="m732 107.75c-.442 0-.862.088-1.244.246-.382.159-.821-.023-.98-.405-.159-.383.023-.822.406-.98.561-.233 1.175-.361 1.818-.361h1.5c.414 0 .75.336.75.75s-.336.75-.75.75z" fill="#252a2e"/><path d="m735.75 107c0-.414.336-.75.75-.75h3c.414 0 .75.336.75.75s-.336.75-.75.75h-3c-.414 0-.75-.336-.75-.75z" fill="#252a2e"/><path d="m741.75 107c0-.414.336-.75.75-.75h1.5c.643 0 1.257.128 1.818.361.383.158.565.597.406.98-.159.382-.598.564-.98.405-.382-.158-.802-.246-1.244-.246h-1.5c-.414 0-.75-.336-.75-.75z" fill="#252a2e"/><path d="m728.591 108.776c.382.159.564.598.405.98-.158.382-.246.802-.246 1.244v1.5c0 .414-.336.75-.75.75s-.75-.336-.75-.75v-1.5c0-.643.128-1.257.361-1.818.158-.383.597-.565.98-.406z" fill="#252a2e"/><path d="m747.409 108.776c.383-.159.822.023.98.406.233.561.361 1.175.361 1.818v1.5c0 .414-.336.75-.75.75s-.75-.336-.75-.75v-1.5c0-.442-.088-.862-.246-1.244-.159-.382.023-.821.405-.98z" fill="#252a2e"/><path d="m728 114.75c.414 0 .75.336.75.75v3c0 .414-.336.75-.75.75s-.75-.336-.75-.75v-3c0-.414.336-.75.75-.75z" fill="#252a2e"/><path d="m748 114.75c.414 0 .75.336.75.75v3c0 .414-.336.75-.75.75s-.75-.336-.75-.75v-3c0-.414.336-.75.75-.75z" fill="#252a2e"/><path d="m728 120.75c.414 0 .75.336.75.75v1.5c0 .442.088.862.246 1.244.159.382-.023.821-.405.98-.383.159-.822-.023-.98-.406-.233-.561-.361-1.175-.361-1.818v-1.5c0-.414.336-.75.75-.75z" fill="#252a2e"/><path d="m748 120.75c.414 0 .75.336.75.75v1.5c0 .643-.128 1.257-.361 1.818-.158.383-.597.565-.98.406-.382-.159-.564-.598-.405-.98.158-.382.246-.802.246-1.244v-1.5c0-.414.336-.75.75-.75z" fill="#252a2e"/><path d="m729.776 126.409c.159-.382.598-.564.98-.405.382.158.802.246 1.244.246h1.5c.414 0 .75.336.75.75s-.336.75-.75.75h-1.5c-.643 0-1.257-.128-1.818-.361-.383-.158-.565-.597-.406-.98z" fill="#252a2e"/><path d="m746.224 126.409c.159.383-.023.822-.406.98-.561.233-1.175.361-1.818.361h-1.5c-.414 0-.75-.336-.75-.75s.336-.75.75-.75h1.5c.442 0 .862-.088 1.244-.246.382-.159.821.023.98.405z" fill="#252a2e"/><path d="m735.75 127c0-.414.336-.75.75-.75h3c.414 0 .75.336.75.75s-.336.75-.75.75h-3c-.414 0-.75-.336-.75-.75z" fill="#252a2e"/><path d="m746.53 109.591c.293-.293.293-.768 0-1.061s-.767-.293-1.06 0l-.997.997c-.292.292-.292.767 0 1.06.293.293.768.293 1.061 0z" fill="#252a2e"/><path d="m743.542 112.58c.293-.293.293-.768 0-1.061s-.768-.293-1.061 0l-1.992 1.992c-.293.293-.293.768 0 1.061s.767.293 1.06 0z" fill="#252a2e"/><path d="m739.557 116.564c.293-.292.293-.767 0-1.06s-.768-.293-1.061 0l-.496.496-.496-.496c-.293-.293-.768-.293-1.061 0s-.293.768 0 1.06l.496.497-.435.435c-.293.293-.293.768 0 1.061s.768.293 1.06 0l.436-.436.436.436c.292.293.767.293 1.06 0s.293-.768 0-1.061l-.435-.435z" fill="#252a2e"/><path d="m735.572 120.549c.293-.293.293-.767 0-1.06s-.768-.293-1.061 0l-1.992 1.992c-.293.293-.293.768 0 1.061s.768.293 1.061 0z" fill="#252a2e"/><path d="m731.587 124.534c.293-.293.293-.768 0-1.061-.293-.292-.768-.292-1.06 0l-.997.997c-.293.293-.293.767 0 1.06s.768.293 1.061 0z" fill="#252a2e"/><path d="m745.409 125.53c.293.293.768.293 1.061 0s.293-.767 0-1.06l-.997-.997c-.292-.292-.767-.292-1.06 0-.293.293-.293.768 0 1.061z" fill="#252a2e"/><path d="m742.42 122.542c.293.293.768.293 1.061 0s.293-.768 0-1.061l-1.992-1.992c-.293-.293-.768-.293-1.061 0s-.293.767 0 1.06z" fill="#252a2e"/><path d="m734.451 114.572c.293.293.767.293 1.06 0s.293-.768 0-1.061l-1.992-1.992c-.293-.293-.768-.293-1.061 0s-.293.768 0 1.061z" fill="#252a2e"/><path d="m730.466 110.587c.293.293.768.293 1.061 0 .292-.293.292-.768 0-1.06l-.997-.997c-.293-.293-.767-.293-1.06 0s-.293.768 0 1.061z" fill="#252a2e"/><path d="m735.056 111.889c.298-.09.615-.139.944-.139h.75c.414 0 .75-.336.75-.75s-.336-.75-.75-.75h-.75c-.478 0-.942.071-1.379.203-.396.121-.62.539-.5.936.12.396.539.62.935.5z" fill="#252a2e"/><path d="m739.25 110.25c-.414 0-.75.336-.75.75s.336.75.75.75h.75c.329 0 .646.049.944.139.396.12.815-.104.935-.5.12-.397-.104-.815-.5-.936-.437-.132-.901-.203-1.379-.203z" fill="#252a2e"/><path d="m732.889 114.056c.12-.396-.104-.815-.5-.935-.397-.12-.815.104-.936.5-.132.437-.203.901-.203 1.379v.75c0 .414.336.75.75.75s.75-.336.75-.75v-.75c0-.329.049-.646.139-.944z" fill="#252a2e"/><path d="m744.547 113.621c-.121-.396-.539-.62-.936-.5-.396.12-.62.539-.5.935.09.298.139.615.139.944v.75c0 .414.336.75.75.75s.75-.336.75-.75v-.75c0-.478-.071-.942-.203-1.379z" fill="#252a2e"/><path d="m732.75 118.25c0-.414-.336-.75-.75-.75s-.75.336-.75.75v.75c0 .478.071.942.203 1.379.121.396.539.62.936.5.396-.12.62-.539.5-.935-.09-.298-.139-.615-.139-.944z" fill="#252a2e"/><path d="m744.75 118.25c0-.414-.336-.75-.75-.75s-.75.336-.75.75v.75c0 .329-.049.646-.139.944-.12.396.104.815.5.935.397.12.815-.104.936-.5.132-.437.203-.901.203-1.379z" fill="#252a2e"/><path d="m735.056 122.111c-.396-.12-.815.104-.935.5-.12.397.104.815.5.936.437.132.901.203 1.379.203h.75c.414 0 .75-.336.75-.75s-.336-.75-.75-.75h-.75c-.329 0-.646-.049-.944-.139z" fill="#252a2e"/><path d="m741.379 123.547c.396-.121.62-.539.5-.936-.12-.396-.539-.62-.935-.5-.298.09-.615.139-.944.139h-.75c-.414 0-.75.336-.75.75s.336.75.75.75h.75c.478 0 .942-.071 1.379-.203z" fill="#252a2e"/><path d="m180.5 146.5h583v55h-583z" fill="#019aeb" fill-opacity=".4"/><path d="m220.222 166h-12.444c-.978 0-1.778.8-1.778 1.778v12.444c0 .978.8 1.778 1.778 1.778h12.444c.978 0 1.778-.8 1.778-1.778v-12.444c0-.978-.8-1.778-1.778-1.778z" fill="#019aeb"/><g fill="#fff"><path d="m211.814 176.218-2.845-2.845-.969.962 3.814 3.813 8.186-8.186-.962-.962z"/><path d="m262.016 176.961c0 1.005-.365 1.789-1.094 2.351-.729.563-1.719.844-2.969.844-1.354 0-2.396-.174-3.125-.523v-1.281c.469.197.979.354 1.531.468.552.115 1.099.172 1.641.172.885 0 1.552-.166 2-.5.448-.338.672-.807.672-1.406 0-.396-.081-.719-.242-.969-.157-.255-.422-.489-.797-.703-.37-.213-.935-.456-1.695-.726-1.063-.381-1.823-.831-2.282-1.352-.453-.521-.679-1.201-.679-2.039 0-.88.33-1.581.992-2.102.661-.521 1.536-.781 2.625-.781 1.135 0 2.179.208 3.133.625l-.415 1.156c-.942-.396-1.859-.593-2.75-.593-.703 0-1.252.151-1.648.453s-.594.721-.594 1.257c0 .396.073.722.219.977.146.25.391.482.734.695.349.209.881.44 1.594.696 1.198.427 2.021.885 2.469 1.375.453.489.68 1.125.68 1.906zm5.907 3.195c-1.265 0-2.265-.385-3-1.156-.729-.771-1.093-1.841-1.093-3.211 0-1.38.338-2.477 1.015-3.289.683-.812 1.597-1.219 2.742-1.219 1.073 0 1.922.354 2.547 1.063.625.703.938 1.633.938 2.789v.82h-5.899c.026 1.005.279 1.768.758 2.289.485.521 1.164.781 2.039.781.922 0 1.834-.192 2.735-.578v1.157c-.459.197-.894.338-1.305.421-.406.089-.898.133-1.477.133zm-.351-7.789c-.688 0-1.237.224-1.649.672-.406.448-.645 1.068-.718 1.859h4.476c0-.817-.182-1.442-.547-1.875-.364-.437-.885-.656-1.562-.656zm7.165 7.633h-1.296v-12.156h1.296zm6.518.156c-1.266 0-2.266-.385-3-1.156-.729-.771-1.094-1.841-1.094-3.211 0-1.38.338-2.477 1.016-3.289.682-.812 1.596-1.219 2.742-1.219 1.073 0 1.922.354 2.547 1.063.625.703.937 1.633.937 2.789v.82h-5.898c.026 1.005.278 1.768.758 2.289.484.521 1.164.781 2.039.781.921 0 1.833-.192 2.734-.578v1.157c-.458.197-.893.338-1.305.421-.406.089-.898.133-1.476.133zm-.352-7.789c-.687 0-1.237.224-1.648.672-.407.448-.646 1.068-.719 1.859h4.477c0-.817-.183-1.442-.547-1.875-.365-.437-.886-.656-1.563-.656zm9.291 7.789c-1.24 0-2.201-.38-2.883-1.14-.677-.766-1.016-1.847-1.016-3.243 0-1.432.344-2.539 1.032-3.32.692-.781 1.677-1.172 2.953-1.172.411 0 .823.045 1.234.133.412.089.734.193.969.313l-.399 1.101c-.286-.114-.599-.208-.937-.281-.339-.078-.638-.117-.899-.117-1.739 0-2.609 1.109-2.609 3.328 0 1.052.211 1.859.633 2.422.427.562 1.057.843 1.891.843.713 0 1.445-.153 2.195-.461v1.149c-.573.297-1.294.445-2.164.445zm7.118-1.07c.23 0 .451-.016.665-.047.213-.036.382-.073.507-.109v.992c-.14.068-.349.122-.625.164-.27.047-.515.07-.734.07-1.656 0-2.484-.872-2.484-2.617v-5.094h-1.227v-.625l1.227-.539.547-1.828h.75v1.985h2.484v1.007h-2.484v5.039c0 .516.122.912.367 1.188.244.276.58.414 1.007.414zm6.658 1.07c-1.265 0-2.265-.385-3-1.156-.729-.771-1.093-1.841-1.093-3.211 0-1.38.338-2.477 1.015-3.289.682-.812 1.597-1.219 2.742-1.219 1.073 0 1.922.354 2.547 1.063.625.703.938 1.633.938 2.789v.82h-5.899c.026 1.005.279 1.768.758 2.289.485.521 1.164.781 2.039.781.922 0 1.834-.192 2.735-.578v1.157c-.459.197-.894.338-1.305.421-.406.089-.899.133-1.477.133zm-.351-7.789c-.688 0-1.237.224-1.649.672-.406.448-.646 1.068-.718 1.859h4.476c0-.817-.182-1.442-.547-1.875-.364-.437-.885-.656-1.562-.656zm11.697 6.485h-.071c-.599.869-1.494 1.304-2.687 1.304-1.12 0-1.992-.383-2.617-1.148-.62-.766-.93-1.854-.93-3.266 0-1.411.312-2.508.937-3.289s1.495-1.172 2.61-1.172c1.161 0 2.052.422 2.672 1.266h.101l-.054-.617-.032-.602v-3.484h1.297v12.156h-1.055zm-2.594.218c.885 0 1.526-.239 1.922-.718.401-.485.601-1.263.601-2.336v-.274c0-1.213-.203-2.078-.609-2.594-.401-.52-1.044-.781-1.93-.781-.76 0-1.344.297-1.75.891-.401.588-.601 1.422-.601 2.5 0 1.094.2 1.919.601 2.476.401.558.99.836 1.766.836z"/><path d="m732 164.75c-.442 0-.862.088-1.244.246-.382.159-.821-.023-.98-.405-.159-.383.023-.822.406-.98.561-.233 1.175-.361 1.818-.361h1.5c.414 0 .75.336.75.75s-.336.75-.75.75z"/><path d="m735.75 164c0-.414.336-.75.75-.75h3c.414 0 .75.336.75.75s-.336.75-.75.75h-3c-.414 0-.75-.336-.75-.75z"/><path d="m741.75 164c0-.414.336-.75.75-.75h1.5c.643 0 1.257.128 1.818.361.383.158.565.597.406.98-.159.382-.598.564-.98.405-.382-.158-.802-.246-1.244-.246h-1.5c-.414 0-.75-.336-.75-.75z"/><path d="m728.591 165.776c.382.159.564.598.405.98-.158.382-.246.802-.246 1.244v1.5c0 .414-.336.75-.75.75s-.75-.336-.75-.75v-1.5c0-.643.128-1.257.361-1.818.158-.383.597-.565.98-.406z"/><path d="m747.409 165.776c.383-.159.822.023.98.406.233.561.361 1.175.361 1.818v1.5c0 .414-.336.75-.75.75s-.75-.336-.75-.75v-1.5c0-.442-.088-.862-.246-1.244-.159-.382.023-.821.405-.98z"/><path d="m728 171.75c.414 0 .75.336.75.75v3c0 .414-.336.75-.75.75s-.75-.336-.75-.75v-3c0-.414.336-.75.75-.75z"/><path d="m748 171.75c.414 0 .75.336.75.75v3c0 .414-.336.75-.75.75s-.75-.336-.75-.75v-3c0-.414.336-.75.75-.75z"/><path d="m728 177.75c.414 0 .75.336.75.75v1.5c0 .442.088.862.246 1.244.159.382-.023.821-.405.98-.383.159-.822-.023-.98-.406-.233-.561-.361-1.175-.361-1.818v-1.5c0-.414.336-.75.75-.75z"/><path d="m748 177.75c.414 0 .75.336.75.75v1.5c0 .643-.128 1.257-.361 1.818-.158.383-.597.565-.98.406-.382-.159-.564-.598-.405-.98.158-.382.246-.802.246-1.244v-1.5c0-.414.336-.75.75-.75z"/><path d="m729.776 183.409c.159-.382.598-.564.98-.405.382.158.802.246 1.244.246h1.5c.414 0 .75.336.75.75s-.336.75-.75.75h-1.5c-.643 0-1.257-.128-1.818-.361-.383-.158-.565-.597-.406-.98z"/><path d="m746.224 183.409c.159.383-.023.822-.406.98-.561.233-1.175.361-1.818.361h-1.5c-.414 0-.75-.336-.75-.75s.336-.75.75-.75h1.5c.442 0 .862-.088 1.244-.246.382-.159.821.023.98.405z"/><path d="m735.75 184c0-.414.336-.75.75-.75h3c.414 0 .75.336.75.75s-.336.75-.75.75h-3c-.414 0-.75-.336-.75-.75z"/><path d="m746.53 166.591c.293-.293.293-.768 0-1.061s-.767-.293-1.06 0l-.997.997c-.292.292-.292.767 0 1.06.293.293.768.293 1.061 0z"/><path d="m743.542 169.58c.293-.293.293-.768 0-1.061s-.768-.293-1.061 0l-1.992 1.992c-.293.293-.293.768 0 1.061s.767.293 1.06 0z"/><path d="m739.557 173.564c.293-.292.293-.767 0-1.06s-.768-.293-1.061 0l-.496.496-.496-.496c-.293-.293-.768-.293-1.061 0s-.293.768 0 1.06l.496.497-.435.435c-.293.293-.293.768 0 1.061s.768.293 1.06 0l.436-.436.436.436c.292.293.767.293 1.06 0s.293-.768 0-1.061l-.435-.435z"/><path d="m735.572 177.549c.293-.293.293-.767 0-1.06s-.768-.293-1.061 0l-1.992 1.992c-.293.293-.293.768 0 1.061s.768.293 1.061 0z"/><path d="m731.587 181.534c.293-.293.293-.768 0-1.061-.293-.292-.768-.292-1.06 0l-.997.997c-.293.293-.293.767 0 1.06s.768.293 1.061 0z"/><path d="m745.409 182.53c.293.293.768.293 1.061 0s.293-.767 0-1.06l-.997-.997c-.292-.292-.767-.292-1.06 0-.293.293-.293.768 0 1.061z"/><path d="m742.42 179.542c.293.293.768.293 1.061 0s.293-.768 0-1.061l-1.992-1.992c-.293-.293-.768-.293-1.061 0s-.293.767 0 1.06z"/><path d="m734.451 171.572c.293.293.767.293 1.06 0s.293-.768 0-1.061l-1.992-1.992c-.293-.293-.768-.293-1.061 0s-.293.768 0 1.061z"/><path d="m730.466 167.587c.293.293.768.293 1.061 0 .292-.293.292-.768 0-1.06l-.997-.997c-.293-.293-.767-.293-1.06 0s-.293.768 0 1.061z"/><path d="m735.056 168.889c.298-.09.615-.139.944-.139h.75c.414 0 .75-.336.75-.75s-.336-.75-.75-.75h-.75c-.478 0-.942.071-1.379.203-.396.121-.62.539-.5.936.12.396.539.62.935.5z"/><path d="m739.25 167.25c-.414 0-.75.336-.75.75s.336.75.75.75h.75c.329 0 .646.049.944.139.396.12.815-.104.935-.5.12-.397-.104-.815-.5-.936-.437-.132-.901-.203-1.379-.203z"/><path d="m732.889 171.056c.12-.396-.104-.815-.5-.935-.397-.12-.815.104-.936.5-.132.437-.203.901-.203 1.379v.75c0 .414.336.75.75.75s.75-.336.75-.75v-.75c0-.329.049-.646.139-.944z"/><path d="m744.547 170.621c-.121-.396-.539-.62-.936-.5-.396.12-.62.539-.5.935.09.298.139.615.139.944v.75c0 .414.336.75.75.75s.75-.336.75-.75v-.75c0-.478-.071-.942-.203-1.379z"/><path d="m732.75 175.25c0-.414-.336-.75-.75-.75s-.75.336-.75.75v.75c0 .478.071.942.203 1.379.121.396.539.62.936.5.396-.12.62-.539.5-.935-.09-.298-.139-.615-.139-.944z"/><path d="m744.75 175.25c0-.414-.336-.75-.75-.75s-.75.336-.75.75v.75c0 .329-.049.646-.139.944-.12.396.104.815.5.935.397.12.815-.104.936-.5.132-.437.203-.901.203-1.379z"/><path d="m735.056 179.111c-.396-.12-.815.104-.935.5-.12.397.104.815.5.936.437.132.901.203 1.379.203h.75c.414 0 .75-.336.75-.75s-.336-.75-.75-.75h-.75c-.329 0-.646-.049-.944-.139z"/><path d="m741.379 180.547c.396-.121.62-.539.5-.936-.12-.396-.539-.62-.935-.5-.298.09-.615.139-.944.139h-.75c-.414 0-.75.336-.75.75s.336.75.75.75h.75c.478 0 .942-.071 1.379-.203z"/></g><path d="m180.5 146.5h583v55h-583z" stroke="#217cbb"/><path d="m180 203h584v56h-584z" fill="#171c1e"/><path clip-rule="evenodd" d="m207.778 223h12.444c.978 0 1.778.8 1.778 1.778v12.444c0 .978-.8 1.778-1.778 1.778h-12.444c-.978 0-1.778-.8-1.778-1.778v-12.444c0-.978.8-1.778 1.778-1.778zm12.444 14.222v-12.444h-12.444v12.444z" fill="#90939f" fill-rule="evenodd"/><path d="m264.688 231.18c0 1.885-.514 3.328-1.54 4.328-1.02.995-2.492 1.492-4.414 1.492h-3.164v-11.422h3.5c1.776 0 3.157.492 4.141 1.477.984.984 1.477 2.359 1.477 4.125zm-1.407.047c0-1.49-.375-2.612-1.125-3.368-.745-.755-1.854-1.132-3.328-1.132h-1.93v9.125h1.618c1.583 0 2.773-.388 3.57-1.164.797-.782 1.195-1.935 1.195-3.461zm7.533 5.929c-1.266 0-2.266-.385-3-1.156-.729-.771-1.094-1.841-1.094-3.211 0-1.38.339-2.477 1.016-3.289.682-.812 1.596-1.219 2.742-1.219 1.073 0 1.922.354 2.547 1.063.625.703.937 1.633.937 2.789v.82h-5.898c.026 1.005.279 1.768.758 2.289.484.521 1.164.781 2.039.781.922 0 1.833-.192 2.734-.578v1.157c-.458.197-.893.338-1.304.421-.407.089-.899.133-1.477.133zm-.352-7.789c-.687 0-1.236.224-1.648.672-.406.448-.646 1.068-.719 1.859h4.477c0-.817-.182-1.442-.547-1.875-.365-.437-.885-.656-1.563-.656zm9.729.078h-2.18v7.555h-1.297v-7.555h-1.531v-.586l1.531-.468v-.477c0-2.104.919-3.156 2.758-3.156.453 0 .984.091 1.594.273l-.336 1.039c-.5-.161-.927-.242-1.282-.242-.489 0-.851.164-1.086.492-.234.323-.351.844-.351 1.563v.555h2.18zm6.978 7.555-.258-1.219h-.063c-.427.537-.854.901-1.281 1.094-.422.187-.95.281-1.586.281-.849 0-1.515-.218-2-.656-.479-.438-.718-1.06-.718-1.867 0-1.729 1.382-2.636 4.148-2.719l1.453-.047v-.531c0-.672-.146-1.167-.437-1.484-.287-.323-.748-.485-1.383-.485-.714 0-1.521.219-2.422.656l-.399-.992c.422-.229.883-.409 1.383-.539.505-.13 1.011-.195 1.516-.195 1.021 0 1.776.226 2.266.68.494.453.742 1.179.742 2.179v5.844zm-2.93-.914c.807 0 1.44-.221 1.899-.664.463-.443.695-1.063.695-1.86v-.773l-1.297.055c-1.031.036-1.776.198-2.234.484-.454.281-.68.721-.68 1.32 0 .469.141.826.422 1.071.286.245.685.367 1.195.367zm7.939-7.648v5.554c0 .698.159 1.219.477 1.563.317.343.815.515 1.492.515.896 0 1.549-.244 1.961-.734.416-.49.625-1.289.625-2.398v-4.5h1.297v8.562h-1.071l-.187-1.148h-.07c-.266.421-.636.744-1.11.968-.469.224-1.005.336-1.609.336-1.042 0-1.823-.247-2.344-.742-.516-.495-.773-1.286-.773-2.375v-5.601zm10.056 8.562h-1.296v-12.156h1.296zm5.666-.914c.229 0 .451-.016.664-.047.214-.036.383-.073.508-.109v.992c-.141.068-.349.122-.625.164-.271.047-.516.07-.734.07-1.657 0-2.485-.872-2.485-2.617v-5.094h-1.226v-.625l1.226-.539.547-1.828h.75v1.985h2.484v1.007h-2.484v5.039c0 .516.122.912.367 1.188s.581.414 1.008.414z" fill="#fff"/><rect fill="#019aeb" height="40" rx="4" width="68" x="682" y="211"/><path d="m699.739 230.907c0 1.126-.209 2.067-.629 2.823-.419.752-1.027 1.32-1.825 1.703-.797.378-1.759.567-2.885.567h-2.775v-9.994h3.076c1.035 0 1.928.187 2.68.56.752.37 1.333.919 1.743 1.648.41.724.615 1.622.615 2.693zm-1.709.048c0-.82-.13-1.495-.389-2.023-.256-.529-.634-.921-1.135-1.176-.497-.26-1.11-.39-1.839-.39h-1.401v7.26h1.162c1.207 0 2.11-.308 2.707-.923s.895-1.531.895-2.748zm6.963-2.666c.675 0 1.253.139 1.736.417.484.278.855.672 1.115 1.183.26.51.389 1.121.389 1.832v.861h-5.051c.018.734.214 1.299.588 1.695.378.397.906.595 1.585.595.484 0 .916-.046 1.299-.137.388-.095.786-.234 1.197-.417v1.306c-.379.178-.764.308-1.156.39s-.861.123-1.408.123c-.743 0-1.397-.144-1.962-.431-.56-.292-1-.725-1.319-1.299-.315-.574-.472-1.287-.472-2.139 0-.848.144-1.568.431-2.161.287-.592.69-1.043 1.21-1.353.519-.31 1.125-.465 1.818-.465zm0 1.21c-.506 0-.916.164-1.23.492-.31.328-.492.809-.547 1.443h3.445c-.004-.379-.068-.714-.191-1.005-.119-.292-.301-.52-.547-.684-.242-.164-.552-.246-.93-.246zm9.082.157h-1.839v6.344h-1.606v-6.344h-1.237v-.772l1.237-.472v-.526c0-.643.1-1.153.301-1.532.205-.378.496-.649.875-.813.382-.169.838-.253 1.367-.253.346 0 .663.03.95.089.287.055.529.118.725.191l-.417 1.217c-.155-.05-.328-.096-.52-.137-.191-.045-.396-.068-.615-.068-.365 0-.634.114-.807.342-.168.228-.253.56-.253.998v.513h1.839zm4.509-1.367c.957 0 1.679.212 2.167.636.492.424.738 1.084.738 1.982v5.093h-1.141l-.308-1.073h-.055c-.214.273-.435.499-.663.677-.228.177-.492.309-.793.396-.296.091-.658.137-1.087.137-.451 0-.854-.082-1.21-.246-.355-.169-.635-.424-.84-.766s-.308-.775-.308-1.299c0-.779.289-1.365.868-1.757.583-.392 1.463-.608 2.639-.649l1.312-.048v-.396c0-.525-.123-.898-.369-1.122-.241-.223-.583-.334-1.025-.334-.378 0-.745.054-1.101.164-.355.109-.702.243-1.039.403l-.519-1.135c.369-.196.788-.355 1.257-.478.474-.123.967-.185 1.477-.185zm1.312 4.095-.977.034c-.802.027-1.365.164-1.689.41-.323.246-.485.583-.485 1.012 0 .374.112.647.335.82.223.169.517.253.882.253.556 0 1.016-.157 1.381-.472.369-.319.553-.786.553-1.401zm10.689-3.951v7.567h-1.265l-.218-1.019h-.089c-.16.26-.363.477-.609.65-.246.168-.519.294-.82.376-.301.086-.618.13-.95.13-.57 0-1.058-.096-1.463-.287-.401-.196-.709-.497-.923-.903-.214-.405-.321-.929-.321-1.572v-4.942h1.613v4.641c0 .588.119 1.028.356 1.32.241.291.615.437 1.121.437.487 0 .875-.1 1.162-.301.287-.2.49-.496.608-.888.123-.392.185-.873.185-1.443v-3.766zm4.167 7.567h-1.613v-10.637h1.613zm5.363-1.162c.21 0 .417-.018.622-.055.205-.041.392-.089.561-.143v1.216c-.178.078-.408.144-.691.199-.282.054-.576.082-.881.082-.429 0-.814-.071-1.156-.212-.341-.146-.613-.394-.813-.745-.201-.351-.301-.837-.301-1.456v-4.068h-1.032v-.718l1.107-.567.527-1.62h1.011v1.682h2.167v1.223h-2.167v4.047c0 .383.096.668.287.855.192.186.445.28.759.28z" fill="#fff"/><path d="m0 0h584v66h-584z" fill="#464b52" transform="translate(180 260)"/><path clip-rule="evenodd" d="m207.778 285h12.444c.978 0 1.778.8 1.778 1.778v12.444c0 .978-.8 1.778-1.778 1.778h-12.444c-.978 0-1.778-.8-1.778-1.778v-12.444c0-.978.8-1.778 1.778-1.778zm12.444 14.222v-12.444h-12.444v12.444z" fill="#fff" fill-rule="evenodd" opacity=".4"/><path d="m256.898 282.25v4.75h-1.328v-11.422h3.133c1.401 0 2.435.268 3.102.805.672.536 1.007 1.344 1.007 2.422 0 1.51-.765 2.531-2.296 3.062l3.101 5.133h-1.57l-2.766-4.75zm0-1.141h1.821c.937 0 1.625-.185 2.062-.554.438-.375.657-.935.657-1.68 0-.755-.224-1.299-.672-1.633-.443-.333-1.157-.5-2.141-.5h-1.727zm12.135 6.047c-1.266 0-2.266-.385-3-1.156-.729-.771-1.094-1.841-1.094-3.211 0-1.38.339-2.477 1.016-3.289.682-.812 1.596-1.219 2.742-1.219 1.073 0 1.922.354 2.547 1.063.625.703.937 1.633.937 2.789v.82h-5.898c.026 1.005.278 1.768.758 2.289.484.521 1.164.781 2.039.781.922 0 1.833-.192 2.734-.578v1.157c-.458.197-.893.338-1.305.421-.406.089-.898.133-1.476.133zm-.352-7.789c-.687 0-1.237.224-1.648.672-.406.448-.646 1.068-.719 1.859h4.477c0-.817-.183-1.442-.547-1.875-.365-.437-.886-.656-1.563-.656zm11.135 7.633-.258-1.219h-.063c-.427.537-.854.901-1.281 1.094-.422.187-.95.281-1.586.281-.849 0-1.516-.218-2-.656-.479-.438-.719-1.06-.719-1.867 0-1.729 1.383-2.636 4.149-2.719l1.453-.047v-.531c0-.672-.146-1.167-.438-1.484-.286-.323-.747-.485-1.382-.485-.714 0-1.521.219-2.422.656l-.399-.992c.422-.229.883-.409 1.383-.539.505-.13 1.011-.195 1.516-.195 1.021 0 1.776.226 2.265.68.495.453.743 1.179.743 2.179v5.844zm-2.93-.914c.807 0 1.44-.221 1.898-.664.464-.443.696-1.063.696-1.86v-.773l-1.297.055c-1.031.036-1.776.198-2.235.484-.453.281-.679.721-.679 1.32 0 .469.14.826.422 1.071.286.245.685.367 1.195.367zm12.548-.234h-.07c-.599.869-1.495 1.304-2.687 1.304-1.12 0-1.993-.383-2.618-1.148-.619-.766-.929-1.854-.929-3.266 0-1.411.312-2.508.937-3.289s1.495-1.172 2.61-1.172c1.161 0 2.052.422 2.671 1.266h.102l-.055-.617-.031-.602v-3.484h1.297v12.156h-1.055zm-2.593.218c.885 0 1.526-.239 1.922-.718.401-.485.601-1.263.601-2.336v-.274c0-1.213-.203-2.078-.609-2.594-.401-.52-1.045-.781-1.93-.781-.76 0-1.344.297-1.75.891-.401.588-.602 1.422-.602 2.5 0 1.094.201 1.919.602 2.476.401.558.99.836 1.766.836zm6.009-2.765v-1.188h3.836v1.188zm16.134-2.032c0 1.829-.463 3.266-1.39 4.313-.922 1.047-2.206 1.57-3.852 1.57-1.682 0-2.982-.513-3.898-1.539-.912-1.031-1.367-2.484-1.367-4.359 0-1.86.458-3.3 1.375-4.32.916-1.027 2.218-1.54 3.906-1.54 1.64 0 2.922.521 3.844 1.563.921 1.042 1.382 2.479 1.382 4.312zm-9.101 0c0 1.547.328 2.722.984 3.524.662.797 1.62 1.195 2.875 1.195 1.266 0 2.222-.398 2.867-1.195.646-.797.969-1.971.969-3.524 0-1.536-.323-2.7-.969-3.492-.64-.797-1.591-1.195-2.851-1.195-1.266 0-2.229.401-2.891 1.203-.656.797-.984 1.958-.984 3.484zm17.47 5.727v-5.539c0-.698-.159-1.219-.476-1.563-.318-.343-.816-.515-1.493-.515-.895 0-1.552.242-1.968.726-.417.485-.625 1.284-.625 2.399v4.492h-1.297v-8.562h1.054l.211 1.171h.063c.266-.421.638-.747 1.117-.976.479-.235 1.013-.352 1.602-.352 1.031 0 1.807.25 2.328.75.521.495.781 1.289.781 2.383v5.586zm5.416 0h-1.297v-12.156h1.297zm1.54-8.562h1.391l1.875 4.882c.411 1.115.667 1.92.766 2.414h.062c.068-.265.208-.718.422-1.359.219-.646.927-2.625 2.125-5.937h1.391l-3.68 9.75c-.365.963-.792 1.645-1.281 2.046-.485.407-1.081.61-1.789.61-.396 0-.787-.045-1.172-.133v-1.039c.286.062.607.094.961.094.89 0 1.526-.5 1.906-1.5l.476-1.219z" fill="#fff"/><path d="m263.352 305.907c0 1.65-.449 2.912-1.347 3.787-.893.871-2.181 1.306-3.862 1.306h-2.769v-9.994h3.063c1.554 0 2.761.431 3.623 1.292.861.861 1.292 2.064 1.292 3.609zm-1.231.041c0-1.303-.328-2.285-.984-2.946-.652-.661-1.623-.991-2.912-.991h-1.689v7.984h1.415c1.386 0 2.427-.339 3.124-1.018.697-.684 1.046-1.693 1.046-3.029zm6.71 5.189c-1.107 0-1.982-.338-2.625-1.012-.638-.674-.957-1.611-.957-2.81 0-1.207.296-2.167.889-2.877.597-.711 1.397-1.067 2.399-1.067.939 0 1.682.31 2.229.93.546.615.82 1.428.82 2.44v.718h-5.161c.023.88.244 1.547.663 2.003.424.456 1.018.684 1.784.684.807 0 1.604-.169 2.393-.506v1.011c-.401.174-.782.297-1.142.37-.355.077-.786.116-1.292.116zm-.308-6.816c-.601 0-1.082.196-1.442.588-.355.392-.565.934-.629 1.627h3.917c0-.715-.159-1.262-.478-1.64-.319-.383-.775-.575-1.368-.575zm10.087 4.635c0 .697-.259 1.235-.779 1.613-.519.379-1.249.568-2.187.568-.994 0-1.769-.158-2.325-.472v-1.053c.36.183.745.326 1.156.431.414.105.813.157 1.196.157.592 0 1.048-.093 1.367-.28.319-.191.479-.481.479-.868 0-.292-.128-.54-.383-.745-.251-.21-.743-.456-1.477-.739-.697-.259-1.194-.485-1.49-.676-.292-.196-.51-.417-.656-.663-.142-.247-.212-.541-.212-.882 0-.611.248-1.092.745-1.443.497-.355 1.178-.533 2.044-.533.807 0 1.595.164 2.365.492l-.403.923c-.752-.31-1.433-.465-2.044-.465-.538 0-.944.085-1.217.253-.273.169-.41.401-.41.697 0 .201.05.372.15.513.105.141.271.276.499.404.228.127.666.312 1.313.553.888.324 1.488.65 1.798.978.314.328.471.74.471 1.237zm5.097 2.181c-1.085 0-1.925-.333-2.522-.998-.593-.67-.889-1.616-.889-2.837 0-1.253.301-2.222.902-2.906.606-.683 1.468-1.025 2.584-1.025.36 0 .72.039 1.08.116.36.078.643.169.848.274l-.349.964c-.25-.101-.524-.183-.82-.246-.296-.069-.558-.103-.786-.103-1.522 0-2.283.971-2.283 2.912 0 .921.184 1.627.553 2.119.374.492.926.739 1.655.739.624 0 1.264-.135 1.921-.404v1.005c-.502.26-1.133.39-1.894.39zm7.346-7.766c.332 0 .631.027.895.082l-.157 1.053c-.31-.068-.583-.103-.82-.103-.606 0-1.126.246-1.559.739-.428.492-.642 1.105-.642 1.838v4.02h-1.135v-7.492h.936l.13 1.388h.055c.278-.488.613-.864 1.005-1.128.392-.265.822-.397 1.292-.397zm3.681 7.629h-1.134v-7.492h1.134zm-1.23-9.522c0-.26.064-.449.191-.568.128-.123.287-.184.479-.184.182 0 .339.061.472.184.132.123.198.312.198.568 0 .255-.066.446-.198.574-.133.123-.29.184-.472.184-.192 0-.351-.061-.479-.184-.127-.128-.191-.319-.191-.574zm7.373 9.659c-.488 0-.934-.089-1.34-.267-.401-.182-.738-.46-1.012-.834h-.082c.055.438.082.852.082 1.244v3.083h-1.134v-10.855h.922l.158 1.025h.054c.292-.41.632-.706 1.019-.888.387-.183.832-.274 1.333-.274.993 0 1.759.34 2.297 1.019.542.679.813 1.631.813 2.857 0 1.231-.275 2.188-.827 2.871-.547.679-1.308 1.019-2.283 1.019zm-.164-6.802c-.766 0-1.319.212-1.661.636s-.517 1.098-.527 2.023v.253c0 1.053.176 1.807.527 2.263.351.451.913.677 1.688.677.647 0 1.153-.263 1.518-.787.369-.524.554-1.246.554-2.167 0-.934-.185-1.649-.554-2.146-.365-.501-.88-.752-1.545-.752zm7.933 5.865c.201 0 .395-.013.582-.041.186-.032.334-.064.444-.096v.869c-.123.059-.305.107-.547.143-.237.041-.451.062-.643.062-1.449 0-2.173-.764-2.173-2.29v-4.457h-1.074v-.547l1.074-.472.478-1.6h.656v1.737h2.174v.882h-2.174v4.409c0 .451.107.797.322 1.039.214.241.508.362.881.362zm3.915.8h-1.135v-7.492h1.135zm-1.231-9.522c0-.26.064-.449.191-.568.128-.123.288-.184.479-.184.182 0 .34.061.472.184s.198.312.198.568c0 .255-.066.446-.198.574-.132.123-.29.184-.472.184-.191 0-.351-.061-.479-.184-.127-.128-.191-.319-.191-.574zm10.354 5.769c0 1.221-.308 2.176-.923 2.864-.615.684-1.465 1.026-2.55 1.026-.67 0-1.265-.158-1.784-.472-.52-.314-.921-.766-1.203-1.353-.283-.588-.424-1.277-.424-2.065 0-1.221.305-2.171.916-2.851.61-.683 1.458-1.025 2.543-1.025 1.048 0 1.88.349 2.495 1.046.62.697.93 1.641.93 2.83zm-5.708 0c0 .957.191 1.686.574 2.188.383.501.945.752 1.688.752s1.306-.249 1.689-.746c.387-.501.581-1.232.581-2.194 0-.952-.194-1.675-.581-2.167-.383-.497-.95-.745-1.702-.745-.743 0-1.304.244-1.682.731-.378.488-.567 1.215-.567 2.181zm13.081 3.753v-4.847c0-.61-.139-1.066-.417-1.367s-.714-.451-1.306-.451c-.784 0-1.358.212-1.723.636-.364.424-.547 1.123-.547 2.098v3.931h-1.134v-7.492h.923l.184 1.025h.055c.232-.369.558-.654.977-.854.42-.205.887-.308 1.402-.308.902 0 1.581.219 2.037.656.456.433.683 1.128.683 2.085v4.888zm7.78 0v-9.994h1.162v8.941h4.409v1.053zm8.487 0h-1.135v-7.492h1.135zm-1.23-9.522c0-.26.064-.449.191-.568.128-.123.287-.184.479-.184.182 0 .339.061.471.184.133.123.199.312.199.568 0 .255-.066.446-.199.574-.132.123-.289.184-.471.184-.192 0-.351-.061-.479-.184-.127-.128-.191-.319-.191-.574zm9.013 9.522v-4.847c0-.61-.139-1.066-.417-1.367s-.713-.451-1.305-.451c-.784 0-1.358.212-1.723.636-.364.424-.547 1.123-.547 2.098v3.931h-1.135v-7.492h.923l.185 1.025h.055c.232-.369.558-.654.977-.854.419-.205.887-.308 1.401-.308.903 0 1.582.219 2.038.656.455.433.683 1.128.683 2.085v4.888zm6.888.137c-1.107 0-1.982-.338-2.625-1.012-.638-.674-.957-1.611-.957-2.81 0-1.207.296-2.167.889-2.877.597-.711 1.397-1.067 2.399-1.067.939 0 1.682.31 2.229.93.547.615.82 1.428.82 2.44v.718h-5.161c.023.88.244 1.547.663 2.003.424.456 1.019.684 1.784.684.807 0 1.604-.169 2.393-.506v1.011c-.401.174-.782.297-1.142.37-.355.077-.786.116-1.292.116zm-.307-6.816c-.602 0-1.083.196-1.443.588-.355.392-.565.934-.629 1.627h3.917c0-.715-.159-1.262-.478-1.64-.319-.383-.775-.575-1.367-.575z" fill="#fff"/><g opacity=".4"><path d="m681.387 292.989c0 1.6-.406 2.858-1.217 3.774-.807.916-1.93 1.374-3.37 1.374-1.472 0-2.609-.449-3.411-1.347-.798-.902-1.197-2.174-1.197-3.814 0-1.627.401-2.887 1.204-3.781.802-.897 1.941-1.346 3.417-1.346 1.436 0 2.557.455 3.364 1.367.806.911 1.21 2.169 1.21 3.773zm-7.964 0c0 1.354.287 2.381.861 3.083.579.698 1.417 1.046 2.516 1.046 1.107 0 1.943-.348 2.509-1.046.565-.697.847-1.725.847-3.083 0-1.344-.282-2.363-.847-3.055-.561-.698-1.393-1.046-2.496-1.046-1.107 0-1.95.351-2.529 1.052-.574.698-.861 1.714-.861 3.049zm18.399-1.599h-1.907v6.61h-1.135v-6.61h-1.34v-.513l1.34-.41v-.417c0-1.841.805-2.762 2.413-2.762.397 0 .862.08 1.395.239l-.294.91c-.438-.142-.811-.212-1.121-.212-.429 0-.745.143-.95.43-.205.283-.308.739-.308 1.367v.486h1.907zm-4.744 0h-1.907v6.61h-1.135v-6.61h-1.34v-.513l1.34-.41v-.417c0-1.841.804-2.762 2.413-2.762.397 0 .862.08 1.395.239l-.294.91c-.438-.142-.811-.212-1.121-.212-.429 0-.745.143-.95.43-.206.283-.308.739-.308 1.367v.486h1.907z" fill="#fff"/><rect fill="#353a40" height="24" rx="12" transform="matrix(1 0 0 -1 702 305)" width="48"/><path d="m721 293c0 3.866-3.134 7-7 7s-7-3.134-7-7 3.134-7 7-7 7 3.134 7 7z" fill="#fff"/></g><path d="m180 327h584v56h-584z" fill="#171c1e"/><path d="m220.222 347h-12.444c-.978 0-1.778.8-1.778 1.778v12.444c0 .978.8 1.778 1.778 1.778h12.444c.978 0 1.778-.8 1.778-1.778v-12.444c0-.978-.8-1.778-1.778-1.778z" fill="#0063a3"/><path d="m211.814 357.218-2.845-2.845-.969.962 3.814 3.813 8.186-8.186-.962-.962z" fill="#fff"/><path d="m255.57 361v-11.422h1.328v10.219h5.04v1.203zm15.658-4.289c0 1.396-.351 2.487-1.055 3.273-.703.782-1.674 1.172-2.914 1.172-.765 0-1.445-.179-2.039-.539-.593-.359-1.052-.875-1.375-1.547s-.484-1.458-.484-2.359c0-1.396.349-2.482 1.047-3.258.698-.781 1.666-1.172 2.906-1.172 1.198 0 2.148.399 2.852 1.196.708.796 1.062 1.875 1.062 3.234zm-6.523 0c0 1.094.218 1.927.656 2.5.437.573 1.081.859 1.93.859s1.492-.284 1.929-.851c.443-.573.664-1.409.664-2.508 0-1.089-.221-1.914-.664-2.477-.437-.567-1.086-.851-1.945-.851-.849 0-1.49.278-1.922.836-.432.557-.648 1.388-.648 2.492zm12.861-4.43c.38 0 .721.031 1.023.094l-.18 1.203c-.354-.078-.666-.117-.937-.117-.693 0-1.287.281-1.781.844-.49.562-.735 1.263-.735 2.101v4.594h-1.297v-8.562h1.071l.148 1.585h.063c.317-.557.7-.987 1.148-1.289s.94-.453 1.477-.453zm6.392 8.875c-1.266 0-2.266-.385-3-1.156-.729-.771-1.094-1.841-1.094-3.211 0-1.38.339-2.477 1.016-3.289.682-.812 1.596-1.219 2.742-1.219 1.073 0 1.922.354 2.547 1.063.625.703.937 1.633.937 2.789v.82h-5.898c.026 1.005.278 1.768.758 2.289.484.521 1.164.781 2.039.781.922 0 1.833-.192 2.734-.578v1.157c-.458.197-.893.338-1.305.421-.406.089-.898.133-1.476.133zm-.352-7.789c-.687 0-1.237.224-1.648.672-.406.448-.646 1.068-.719 1.859h4.477c0-.817-.183-1.442-.547-1.875-.365-.437-.886-.656-1.563-.656zm16.783 7.633v-5.57c0-.683-.146-1.193-.437-1.532-.292-.343-.745-.515-1.36-.515-.807 0-1.403.232-1.789.695-.385.464-.578 1.177-.578 2.141v4.781h-1.297v-5.57c0-.683-.146-1.193-.437-1.532-.292-.343-.748-.515-1.368-.515-.812 0-1.408.245-1.789.734-.375.485-.562 1.281-.562 2.391v4.492h-1.297v-8.562h1.055l.211 1.171h.062c.245-.416.589-.742 1.031-.976.448-.235.948-.352 1.5-.352 1.339 0 2.214.485 2.625 1.453h.063c.255-.448.625-.802 1.109-1.062.485-.261 1.037-.391 1.656-.391.969 0 1.693.25 2.172.75.485.495.727 1.289.727 2.383v5.586zm8.628 0v-11.422h1.328v11.422zm8.408.156c-.557 0-1.068-.101-1.531-.304-.459-.209-.844-.526-1.157-.954h-.093c.062.5.093.974.093 1.422v3.524h-1.296v-12.406h1.054l.18 1.171h.062c.334-.468.722-.807 1.165-1.015.442-.209.95-.313 1.523-.313 1.135 0 2.01.388 2.625 1.164.62.776.93 1.865.93 3.266 0 1.406-.315 2.5-.946 3.281-.625.776-1.494 1.164-2.609 1.164zm-.188-7.773c-.875 0-1.507.242-1.898.726-.391.485-.591 1.256-.602 2.313v.289c0 1.203.201 2.065.602 2.586.401.515 1.044.773 1.93.773.739 0 1.317-.299 1.734-.898.422-.599.633-1.425.633-2.477 0-1.067-.211-1.885-.633-2.453-.417-.573-1.005-.859-1.766-.859zm11.69 5.281c0 .797-.297 1.412-.891 1.844s-1.427.648-2.5.648c-1.135 0-2.021-.179-2.656-.539v-1.203c.411.208.851.372 1.32.492.474.12.93.18 1.367.18.677 0 1.198-.107 1.563-.32.364-.219.547-.55.547-.993 0-.333-.146-.617-.438-.851-.286-.24-.849-.521-1.687-.844-.797-.297-1.365-.555-1.704-.773-.333-.224-.583-.477-.75-.758-.161-.281-.242-.617-.242-1.008 0-.698.284-1.247.852-1.648.568-.407 1.346-.61 2.336-.61.922 0 1.823.188 2.703.563l-.461 1.054c-.859-.354-1.638-.531-2.336-.531-.615 0-1.078.097-1.391.289-.312.193-.468.459-.468.797 0 .229.057.425.171.586.12.162.31.315.571.461.26.146.76.357 1.5.633 1.015.37 1.7.742 2.054 1.117.36.375.54.846.54 1.414zm3.485-6.226v5.554c0 .698.159 1.219.477 1.563.318.343.815.515 1.492.515.896 0 1.55-.244 1.961-.734.417-.49.625-1.289.625-2.398v-4.5h1.297v8.562h-1.07l-.188-1.148h-.07c-.266.421-.635.744-1.109.968-.469.224-1.006.336-1.61.336-1.041 0-1.823-.247-2.344-.742-.515-.495-.773-1.286-.773-2.375v-5.601zm19.674 8.562v-5.57c0-.683-.146-1.193-.438-1.532-.291-.343-.744-.515-1.359-.515-.807 0-1.404.232-1.789.695-.385.464-.578 1.177-.578 2.141v4.781h-1.297v-5.57c0-.683-.146-1.193-.437-1.532-.292-.343-.748-.515-1.368-.515-.812 0-1.409.245-1.789.734-.375.485-.562 1.281-.562 2.391v4.492h-1.297v-8.562h1.055l.211 1.171h.062c.245-.416.589-.742 1.031-.976.448-.235.948-.352 1.5-.352 1.339 0 2.214.485 2.625 1.453h.063c.255-.448.625-.802 1.109-1.062.484-.261 1.037-.391 1.656-.391.969 0 1.693.25 2.172.75.485.495.727 1.289.727 2.383v5.586z" fill="#fff"/><rect fill="#90939f" height="24" rx="12" transform="matrix(1 0 0 -1 702 367)" width="48"/><path d="m721 355c0 3.866-3.134 7-7 7s-7-3.134-7-7 3.134-7 7-7 7 3.134 7 7z" fill="#fff"/><rect fill="#464b52" height="144" rx="4" width="8" x="768" y="36"/></g><g filter="url(#a)"><rect fill="#171c1e" height="92" rx="7" width="140" x="791" y="128"/><path clip-rule="evenodd" d="m809.002 143.002c.242.25.473.489.693.718 2.203 2.292 3.305 3.574 3.305 5.132.003 1.062-.388 2.125-1.172 2.936-1.562 1.616-4.094 1.616-5.656 0-.784-.811-1.174-1.874-1.172-2.936 0-1.558 1.102-2.84 3.305-5.132.22-.229.451-.468.694-.718l.001-.002zm-2.197 3.909c.502-.68 1.219-1.454 2.195-2.471.977 1.017 1.693 1.791 2.195 2.471.6.813.805 1.38.805 1.941v.002c0 .049-.001.097-.003.146h-5.994c-.002-.049-.003-.097-.003-.146v-.002c0-.561.205-1.128.805-1.941z" fill="#8c8c8c" fill-rule="evenodd"/><path d="m844.828 151 1.313-8h.781l-1.313 8zm-3.64-2.219.125-.781h5.968l-.125.781zm.828 2.219 1.312-8h.781l-1.312 8zm-.36-5 .125-.781h5.969l-.125.781zm9.721 5.109c-.589 0-1.09-.16-1.504-.48-.414-.323-.73-.79-.949-1.402-.219-.615-.328-1.357-.328-2.227 0-.865.109-1.603.328-2.215.221-.614.539-1.083.953-1.406.417-.326.917-.488 1.5-.488s1.082.162 1.496.488c.417.323.734.792.953 1.406.222.612.332 1.35.332 2.215 0 .87-.109 1.612-.328 2.227-.219.612-.535 1.079-.949 1.402-.414.32-.916.48-1.504.48zm0-.859c.583 0 1.036-.281 1.359-.844.323-.562.485-1.364.485-2.406 0-.693-.075-1.283-.223-1.77-.146-.487-.357-.858-.633-1.113-.273-.255-.603-.383-.988-.383-.578 0-1.03.286-1.356.856-.325.568-.488 1.371-.488 2.41 0 .693.073 1.281.219 1.766.146.484.355.852.629 1.105.276.253.608.379.996.379zm7.078-7.25v8h-.969v-6.984h-.047l-1.953 1.296v-.984l2-1.328zm4.848-.109c.328.002.656.065.984.187.328.123.628.326.899.609.27.282.488.666.652 1.153s.246 1.097.246 1.832c0 .711-.068 1.342-.203 1.894-.133.55-.326 1.013-.578 1.391-.25.378-.555.664-.914.859-.357.196-.761.293-1.211.293-.448 0-.848-.088-1.199-.265-.349-.18-.636-.429-.86-.746-.221-.321-.363-.692-.426-1.114h.953c.086.368.257.671.512.911.258.237.598.355 1.02.355.617 0 1.104-.27 1.461-.809.359-.539.539-1.3.539-2.285h-.063c-.146.219-.319.408-.519.567-.201.159-.423.281-.668.367s-.505.129-.782.129c-.458 0-.878-.114-1.261-.34-.38-.229-.685-.543-.914-.942-.227-.401-.34-.859-.34-1.375 0-.489.109-.937.328-1.343.221-.409.531-.735.93-.977.401-.242.872-.359 1.414-.351zm0 .859c-.328 0-.624.082-.887.246-.26.162-.467.38-.621.656-.151.274-.227.577-.227.91 0 .334.073.637.219.911.149.27.35.487.606.648.257.159.55.238.878.238.248 0 .478-.048.692-.144.213-.099.4-.233.558-.403.162-.171.288-.365.379-.582.092-.218.137-.446.137-.683 0-.313-.075-.606-.226-.879-.149-.273-.355-.495-.618-.664-.26-.169-.557-.254-.89-.254zm4.786 7.25h-1.016l2.938-8h1l2.937 8h-1.015l-2.391-6.734h-.063zm.375-3.125h4.094v.859h-4.094zm6.73 3.125v-8h4.828v.859h-3.859v2.703h3.609v.86h-3.609v2.719h3.922v.859zm6.575 0v-8h2.796c.558 0 1.017.096 1.379.289.362.19.632.447.809.77.177.32.266.675.266 1.066 0 .344-.062.628-.184.852-.12.224-.279.401-.477.531-.195.13-.407.226-.636.289v.078c.244.016.491.102.738.258s.454.38.621.672c.167.291.25.648.25 1.07 0 .401-.091.762-.273 1.082-.183.32-.47.574-.864.762-.393.187-.905.281-1.535.281zm.968-.859h1.922c.633 0 1.082-.123 1.348-.368.268-.247.402-.546.402-.898 0-.271-.069-.521-.207-.75-.138-.232-.334-.417-.59-.555-.255-.14-.557-.211-.906-.211h-1.969zm0-3.625h1.797c.292 0 .555-.058.789-.172.237-.115.425-.276.563-.485.14-.208.211-.453.211-.734 0-.352-.123-.65-.368-.895-.244-.247-.632-.371-1.164-.371h-1.828z" fill="#fff"/><path d="m841.881 163v-7.273h.88v3.239h3.878v-3.239h.881v7.273h-.881v-3.253h-3.878v3.253zm7.288 0v-5.455h.838v5.455zm.427-6.364c-.164 0-.305-.055-.423-.167-.116-.111-.174-.245-.174-.401s.058-.29.174-.401c.118-.111.259-.167.423-.167.163 0 .303.056.419.167.118.111.177.245.177.401s-.059.29-.177.401c-.116.112-.256.167-.419.167zm4.148 8.523c-.405 0-.753-.052-1.044-.156-.291-.102-.534-.237-.728-.405-.192-.166-.344-.343-.458-.533l.668-.468c.075.099.171.213.287.341.116.13.275.242.476.337.204.097.47.145.799.145.44 0 .804-.106 1.09-.319.287-.213.43-.547.43-1.002v-1.108h-.071c-.062.1-.149.223-.263.37-.111.144-.272.273-.483.387-.208.111-.49.167-.845.167-.44 0-.836-.104-1.186-.313-.348-.208-.624-.511-.827-.909-.202-.398-.302-.881-.302-1.449 0-.558.098-1.045.294-1.459.197-.417.47-.739.821-.966.35-.23.755-.345 1.214-.345.355 0 .637.06.845.178.211.116.372.249.483.398.114.146.202.267.263.362h.085v-.867h.81v5.611c0 .469-.106.85-.32 1.144-.21.296-.494.512-.852.65-.355.139-.75.209-1.186.209zm-.028-2.997c.336 0 .62-.077.852-.231s.408-.375.529-.664.181-.634.181-1.037c0-.393-.059-.74-.177-1.04-.119-.301-.294-.537-.526-.707-.232-.171-.518-.256-.859-.256-.355 0-.651.09-.888.27-.234.18-.411.422-.529.725-.116.303-.174.639-.174 1.008 0 .379.059.714.177 1.005.121.289.299.516.533.682.237.163.53.245.881.245zm4.758-2.443v3.281h-.838v-7.273h.838v2.671h.071c.128-.282.32-.506.576-.671.258-.169.601-.253 1.029-.253.372 0 .698.075.977.224.279.147.496.373.65.678.156.303.234.689.234 1.158v3.466h-.838v-3.409c0-.433-.112-.768-.337-1.005-.223-.239-.532-.359-.927-.359-.275 0-.521.058-.739.174-.215.116-.386.286-.511.508-.123.223-.185.493-.185.81zm5.908-3.992v7.273h-.838v-7.273zm1.535 7.273v-5.455h.839v5.455zm.427-6.364c-.164 0-.305-.055-.423-.167-.116-.111-.174-.245-.174-.401s.058-.29.174-.401c.118-.111.259-.167.423-.167.163 0 .303.056.419.167.118.111.177.245.177.401s-.059.29-.177.401c-.116.112-.256.167-.419.167zm4.148 8.523c-.405 0-.753-.052-1.044-.156-.291-.102-.534-.237-.728-.405-.192-.166-.344-.343-.458-.533l.668-.468c.075.099.171.213.287.341.116.13.275.242.476.337.204.097.47.145.799.145.441 0 .804-.106 1.09-.319.287-.213.43-.547.43-1.002v-1.108h-.071c-.062.1-.149.223-.263.37-.111.144-.272.273-.483.387-.208.111-.49.167-.845.167-.44 0-.836-.104-1.186-.313-.348-.208-.624-.511-.827-.909-.202-.398-.302-.881-.302-1.449 0-.558.098-1.045.295-1.459.196-.417.469-.739.82-.966.35-.23.755-.345 1.214-.345.355 0 .637.06.846.178.21.116.371.249.482.398.114.146.202.267.263.362h.085v-.867h.81v5.611c0 .469-.106.85-.319 1.144-.211.296-.495.512-.853.65-.355.139-.75.209-1.186.209zm-.028-2.997c.336 0 .62-.077.852-.231s.408-.375.529-.664.181-.634.181-1.037c0-.393-.059-.74-.177-1.04-.119-.301-.294-.537-.526-.707-.232-.171-.518-.256-.859-.256-.355 0-.651.09-.888.27-.234.18-.411.422-.529.725-.116.303-.174.639-.174 1.008 0 .379.059.714.177 1.005.121.289.299.516.533.682.237.163.53.245.881.245zm4.758-2.443v3.281h-.838v-7.273h.838v2.671h.071c.128-.282.32-.506.576-.671.258-.169.601-.253 1.029-.253.372 0 .698.075.977.224.279.147.496.373.65.678.156.303.234.689.234 1.158v3.466h-.838v-3.409c0-.433-.112-.768-.337-1.005-.223-.239-.532-.359-.927-.359-.275 0-.521.058-.739.174-.215.116-.386.286-.511.508-.123.223-.185.493-.185.81zm7.443-2.174v.711h-2.827v-.711zm-2.003-1.306h.838v5.199c0 .236.034.414.103.532.071.116.161.194.27.235.111.037.228.056.351.056.093 0 .168-.004.228-.014.059-.012.106-.021.142-.028l.17.753c-.057.021-.136.042-.238.064-.102.023-.231.035-.387.035-.237 0-.469-.051-.696-.153-.225-.101-.412-.257-.561-.465-.147-.208-.22-.471-.22-.788zm6.189 6.761v-7.273h2.543c.507 0 .924.088 1.254.263.329.173.574.406.735.7.161.291.241.614.241.969 0 .313-.056.571-.167.774-.109.204-.253.365-.433.483-.178.119-.371.206-.579.263v.071c.223.014.446.092.671.234s.413.346.565.611c.151.265.227.59.227.973 0 .365-.083.693-.248.984-.166.291-.428.522-.785.692-.358.171-.823.256-1.396.256zm.881-.781h1.747c.576 0 .984-.112 1.225-.334.244-.225.366-.497.366-.817 0-.246-.063-.473-.188-.682-.126-.21-.304-.378-.536-.504-.232-.128-.507-.192-.824-.192h-1.79zm0-3.296h1.634c.265 0 .504-.052.717-.156.215-.104.386-.251.511-.44.128-.19.192-.412.192-.668 0-.32-.111-.591-.334-.813-.222-.225-.575-.337-1.058-.337h-1.662zm6.348-3.196v7.273h-.838v-7.273zm4.972 5.043v-3.225h.838v5.455h-.838v-.923h-.057c-.127.277-.326.512-.596.706-.27.192-.611.288-1.023.288-.341 0-.644-.075-.909-.224-.265-.151-.474-.378-.625-.682-.152-.305-.227-.69-.227-1.154v-3.466h.838v3.41c0 .397.111.715.334.951.224.237.511.355.859.355.208 0 .42-.053.636-.159.217-.107.4-.27.546-.49.15-.221.224-.501.224-.842zm4.66 2.344c-.525 0-.979-.116-1.36-.348-.379-.235-.671-.561-.877-.98-.204-.422-.305-.912-.305-1.471 0-.558.101-1.051.305-1.477.206-.428.492-.762.859-1.001.37-.242.801-.363 1.293-.363.284 0 .565.048.842.142.277.095.529.249.756.462.227.211.408.49.543.838s.203.777.203 1.286v.355h-4.205v-.725h3.352c0-.307-.061-.582-.184-.823-.121-.242-.294-.433-.519-.572-.222-.14-.485-.21-.788-.21-.334 0-.623.083-.867.249-.241.163-.427.376-.557.639s-.195.545-.195.845v.483c0 .412.071.761.213 1.048.144.284.344.5.6.65.256.146.553.22.891.22.22 0 .419-.031.597-.093.18-.063.335-.158.465-.284.13-.127.231-.286.302-.475l.809.227c-.085.274-.228.516-.429.724-.201.206-.45.367-.746.483-.296.114-.629.171-.998.171z" fill="#999"/><rect fill="#019aeb" fill-opacity=".4" height="16" rx="3" width="16" x="821" y="140"/><path clip-rule="evenodd" d="m810 172h-2v1h2zm2.5 9h.5v-.5h1v.5 1h-1-.5zm-7.5-5v2h-1v-2zm8-2.5v-.5h-.5v-1h.5 1v1 .5zm0 2.5v2h1v-2zm-8-2.5v-.5h.5v-1h-.5-1v1 .5zm-1 7.5v-.5h1v.5h.5v1h-.5-1zm6 0h-2v1h2z" fill="#8c8c8c" fill-rule="evenodd"/><path d="m821.641 179.859v-.797l3.515-5.562h.578v1.234h-.39l-2.656 4.203v.063h4.734v.859zm3.765 1.641v-1.883-.371-5.746h.922v8zm6.089.109c-.588 0-1.09-.16-1.504-.48-.414-.323-.73-.79-.949-1.402-.219-.615-.328-1.357-.328-2.227 0-.865.109-1.603.328-2.215.221-.614.539-1.083.953-1.406.417-.326.917-.488 1.5-.488s1.082.162 1.496.488c.417.323.735.792.953 1.406.222.612.332 1.35.332 2.215 0 .87-.109 1.612-.328 2.227-.219.612-.535 1.079-.949 1.402-.414.32-.915.48-1.504.48zm0-.859c.583 0 1.037-.281 1.359-.844.323-.562.485-1.364.485-2.406 0-.693-.074-1.283-.223-1.77-.146-.487-.357-.858-.633-1.113-.273-.255-.602-.383-.988-.383-.578 0-1.03.286-1.355.856-.326.568-.489 1.371-.489 2.41 0 .693.073 1.281.219 1.766.146.484.356.852.629 1.105.276.253.608.379.996.379zm8.344-.75v-.422c0-.292.06-.558.18-.801.122-.244.299-.44.531-.586.234-.148.518-.222.851-.222.339 0 .623.074.852.222.229.146.402.342.519.586.118.243.176.509.176.801v.422c0 .292-.06.56-.179.805-.118.242-.292.437-.524.586-.229.145-.51.218-.844.218-.338 0-.623-.073-.855-.218-.232-.149-.408-.344-.527-.586-.12-.245-.18-.513-.18-.805zm.797-.422v.422c0 .242.057.46.172.652.114.19.312.285.593.285.274 0 .467-.095.578-.285.115-.192.172-.41.172-.652v-.422c0-.242-.054-.458-.164-.648-.109-.193-.304-.289-.586-.289-.273 0-.47.096-.589.289-.118.19-.176.406-.176.648zm-4.782-4.156v-.422c0-.292.06-.559.18-.801.123-.245.3-.44.531-.586.235-.148.519-.222.852-.222.339 0 .622.074.852.222.229.146.402.341.519.586.117.242.176.509.176.801v.422c0 .292-.06.56-.18.805-.117.242-.291.437-.523.585-.229.146-.511.219-.844.219-.339 0-.624-.073-.855-.219-.232-.148-.408-.343-.528-.585-.12-.245-.18-.513-.18-.805zm.797-.422v.422c0 .242.058.46.172.652.115.19.313.285.594.285.273 0 .466-.095.578-.285.115-.192.172-.41.172-.652v-.422c0-.242-.055-.458-.164-.648-.109-.193-.305-.29-.586-.29-.273 0-.47.097-.59.29-.117.19-.176.406-.176.648zm-.5 6.5 5.5-8h.891l-5.5 8z" fill="#fff"/><path clip-rule="evenodd" d="m809.002 192.002c.242.25.473.489.693.718 2.203 2.292 3.305 3.574 3.305 5.132.003 1.062-.388 2.125-1.172 2.936-1.562 1.616-4.094 1.616-5.656 0-.784-.811-1.174-1.874-1.172-2.936 0-1.558 1.102-2.84 3.305-5.132.22-.229.451-.468.694-.718l.001-.002zm-2.197 3.909c.502-.68 1.219-1.454 2.195-2.471.977 1.017 1.693 1.791 2.195 2.471.6.813.805 1.38.805 1.941v.002c0 .049-.001.097-.003.146h-5.994c-.002-.049-.003-.097-.003-.146v-.002c0-.561.205-1.128.805-1.941z" fill="#8c8c8c" fill-rule="evenodd"/><path d="m821.5 189.5h13v13h-13z" stroke="#217cbb"/><path d="m842.828 200 1.313-8h.781l-1.313 8zm-3.64-2.219.125-.781h5.968l-.125.781zm.828 2.219 1.312-8h.781l-1.312 8zm-.36-5 .125-.781h5.969l-.125.781zm7.112 5v-.703l2.64-2.891c.31-.338.565-.633.766-.883.2-.252.349-.489.445-.711.099-.223.149-.458.149-.703 0-.281-.068-.524-.204-.73-.132-.206-.315-.365-.546-.477-.232-.112-.493-.168-.782-.168-.307 0-.575.064-.804.192-.227.125-.403.301-.528.527-.122.227-.183.492-.183.797h-.922c0-.469.108-.88.324-1.234.216-.355.51-.631.883-.829.375-.197.795-.296 1.262-.296.468 0 .884.099 1.246.296.362.198.646.465.851.801.206.336.309.71.309 1.121 0 .295-.054.582-.16.864-.104.278-.287.589-.547.933-.258.341-.616.758-1.074 1.25l-1.797 1.922v.063h3.718v.859zm9.472-8v8h-.969v-6.984h-.046l-1.954 1.296v-.984l2-1.328zm2.551 8 3.578-7.078v-.063h-4.125v-.859h5.125v.906l-3.562 7.094zm12.612-5.5h-.968c-.058-.279-.158-.523-.301-.734-.141-.211-.313-.388-.516-.532-.2-.145-.423-.255-.668-.328s-.5-.109-.765-.109c-.485 0-.924.122-1.317.367-.39.245-.702.606-.933 1.082-.23.477-.344 1.061-.344 1.754s.114 1.277.344 1.754c.231.476.543.837.933 1.082.393.245.832.367 1.317.367.265 0 .52-.036.765-.109s.468-.181.668-.324c.203-.146.375-.325.516-.536.143-.213.243-.458.301-.734h.968c-.073.409-.205.775-.398 1.098s-.432.597-.719.824c-.286.224-.608.394-.965.512-.354.117-.733.175-1.136.175-.683 0-1.289-.166-1.821-.5-.531-.333-.949-.807-1.254-1.422-.304-.614-.457-1.343-.457-2.187s.153-1.573.457-2.188c.305-.614.723-1.088 1.254-1.421.532-.334 1.138-.5 1.821-.5.403 0 .782.058 1.136.175.357.118.679.289.965.516.287.224.526.497.719.82.193.321.325.687.398 1.098zm1.566 5.5v-8h2.797c.557 0 1.017.096 1.379.289.362.19.631.447.808.77.177.32.266.675.266 1.066 0 .344-.061.628-.184.852-.12.224-.278.401-.476.531-.196.13-.408.226-.637.289v.078c.245.016.491.102.738.258.248.156.455.38.621.672.167.291.25.648.25 1.07 0 .401-.091.762-.273 1.082s-.47.574-.863.762c-.394.187-.905.281-1.536.281zm.969-.859h1.921c.633 0 1.082-.123 1.348-.368.268-.247.402-.546.402-.898 0-.271-.069-.521-.207-.75-.138-.232-.334-.417-.59-.555-.255-.14-.557-.211-.906-.211h-1.968zm0-3.625h1.796c.292 0 .555-.058.789-.172.237-.115.425-.276.563-.485.141-.208.211-.453.211-.734 0-.352-.123-.65-.367-.895-.245-.247-.633-.371-1.164-.371h-1.828zm6.185 4.484v-8h2.797c.557 0 1.017.096 1.379.289.362.19.631.447.808.77.178.32.266.675.266 1.066 0 .344-.061.628-.184.852-.119.224-.278.401-.476.531-.195.13-.408.226-.637.289v.078c.245.016.491.102.738.258.248.156.455.38.622.672.166.291.25.648.25 1.07 0 .401-.092.762-.274 1.082s-.47.574-.863.762c-.393.187-.905.281-1.535.281zm.969-.859h1.922c.632 0 1.082-.123 1.347-.368.269-.247.403-.546.403-.898 0-.271-.069-.521-.207-.75-.138-.232-.335-.417-.59-.555-.255-.14-.557-.211-.906-.211h-1.969zm0-3.625h1.797c.291 0 .554-.058.789-.172.237-.115.424-.276.562-.485.141-.208.211-.453.211-.734 0-.352-.122-.65-.367-.895-.245-.247-.633-.371-1.164-.371h-1.828z" fill="#fff"/><path d="m839.881 212v-7.273h2.542c.507 0 .925.088 1.254.263.329.173.574.406.735.7.161.291.241.614.241.969 0 .313-.055.571-.166.774-.109.204-.254.365-.434.483-.177.119-.37.206-.579.263v.071c.223.014.447.092.672.234s.413.346.564.611c.152.265.228.59.228.973 0 .365-.083.693-.249.984s-.427.522-.785.692c-.357.171-.823.256-1.395.256zm.88-.781h1.748c.575 0 .983-.112 1.225-.334.244-.225.365-.497.365-.817 0-.246-.062-.473-.188-.682-.125-.21-.304-.378-.536-.504-.232-.128-.507-.192-.824-.192h-1.79zm0-3.296h1.634c.265 0 .504-.052.717-.156.216-.104.386-.251.512-.44.127-.19.191-.412.191-.668 0-.32-.111-.591-.333-.813-.223-.225-.576-.337-1.059-.337h-1.662zm6.348-3.196v7.273h-.838v-7.273zm4.972 5.043v-3.225h.839v5.455h-.839v-.923h-.056c-.128.277-.327.512-.597.706-.27.192-.611.288-1.023.288-.341 0-.644-.075-.909-.224-.265-.151-.473-.378-.625-.682-.151-.305-.227-.69-.227-1.154v-3.466h.838v3.41c0 .397.111.715.334.951.225.237.511.355.859.355.209 0 .42-.053.636-.159.218-.107.4-.27.547-.49.149-.221.223-.501.223-.842zm4.66 2.344c-.525 0-.978-.116-1.36-.348-.378-.235-.671-.561-.877-.98-.203-.422-.305-.912-.305-1.471 0-.558.102-1.051.305-1.477.206-.428.493-.762.86-1.001.369-.242.8-.363 1.292-.363.284 0 .565.048.842.142.277.095.529.249.756.462.228.211.409.49.544.838s.202.777.202 1.286v.355h-4.205v-.725h3.353c0-.307-.062-.582-.185-.823-.121-.242-.293-.433-.518-.572-.223-.14-.486-.21-.789-.21-.334 0-.622.083-.866.249-.242.163-.428.376-.558.639s-.195.545-.195.845v.483c0 .412.071.761.213 1.048.144.284.344.5.6.65.256.146.553.22.891.22.221 0 .42-.031.597-.093.18-.063.335-.158.465-.284.13-.127.231-.286.302-.475l.81.227c-.085.274-.229.516-.43.724-.201.206-.45.367-.746.483-.296.114-.628.171-.998.171zm6.46-.114v-7.273h.881v6.492h3.38v.781zm5.511 0v-5.455h.838v5.455zm.426-6.364c-.163 0-.304-.055-.422-.167-.116-.111-.174-.245-.174-.401s.058-.29.174-.401c.118-.111.259-.167.422-.167.164 0 .304.056.42.167.118.111.177.245.177.401s-.059.29-.177.401c-.116.112-.256.167-.42.167zm4.149 8.523c-.405 0-.753-.052-1.044-.156-.291-.102-.534-.237-.728-.405-.192-.166-.344-.343-.458-.533l.668-.468c.075.099.171.213.287.341.116.13.275.242.476.337.204.097.47.145.799.145.44 0 .804-.106 1.09-.319.287-.213.43-.547.43-1.002v-1.108h-.071c-.062.1-.149.223-.263.37-.111.144-.272.273-.483.387-.208.111-.49.167-.845.167-.44 0-.836-.104-1.186-.313-.348-.208-.624-.511-.827-.909-.202-.398-.302-.881-.302-1.449 0-.558.098-1.045.294-1.459.197-.417.47-.739.821-.966.35-.23.755-.345 1.214-.345.355 0 .637.06.845.178.211.116.372.249.483.398.114.146.202.267.263.362h.085v-.867h.81v5.611c0 .469-.106.85-.32 1.144-.21.296-.494.512-.852.65-.355.139-.75.209-1.186.209zm-.028-2.997c.336 0 .62-.077.852-.231s.408-.375.529-.664.181-.634.181-1.037c0-.393-.059-.74-.177-1.04-.119-.301-.294-.537-.526-.707-.232-.171-.518-.256-.859-.256-.355 0-.651.09-.888.27-.234.18-.411.422-.529.725-.116.303-.174.639-.174 1.008 0 .379.059.714.177 1.005.121.289.299.516.533.682.237.163.53.245.881.245zm4.758-2.443v3.281h-.838v-7.273h.838v2.671h.071c.128-.282.32-.506.576-.671.258-.169.601-.253 1.029-.253.372 0 .698.075.977.224.279.147.496.373.65.678.156.303.234.689.234 1.158v3.466h-.838v-3.409c0-.433-.112-.768-.337-1.005-.223-.239-.532-.359-.927-.359-.275 0-.521.058-.739.174-.215.116-.386.286-.511.508-.123.223-.185.493-.185.81zm7.443-2.174v.711h-2.827v-.711zm-2.003-1.306h.838v5.199c0 .236.034.414.103.532.071.116.161.194.27.235.111.037.228.056.351.056.093 0 .168-.004.227-.014.06-.012.107-.021.142-.028l.171.753c-.057.021-.136.042-.238.064-.102.023-.231.035-.387.035-.237 0-.469-.051-.696-.153-.225-.101-.412-.257-.561-.465-.147-.208-.22-.471-.22-.788zm6.189 6.761v-7.273h2.543c.507 0 .924.088 1.253.263.33.173.575.406.736.7.161.291.241.614.241.969 0 .313-.056.571-.167.774-.109.204-.253.365-.433.483-.178.119-.371.206-.579.263v.071c.223.014.446.092.671.234s.413.346.565.611c.151.265.227.59.227.973 0 .365-.083.693-.248.984-.166.291-.428.522-.785.692-.358.171-.823.256-1.396.256zm.881-.781h1.747c.575 0 .984-.112 1.225-.334.244-.225.366-.497.366-.817 0-.246-.063-.473-.188-.682-.126-.21-.304-.378-.536-.504-.232-.128-.507-.192-.824-.192h-1.79zm0-3.296h1.634c.265 0 .504-.052.717-.156.215-.104.386-.251.511-.44.128-.19.192-.412.192-.668 0-.32-.111-.591-.334-.813-.222-.225-.575-.337-1.058-.337h-1.662zm7.725 4.191c-.492 0-.924-.118-1.296-.352-.369-.234-.658-.562-.866-.984-.206-.421-.309-.913-.309-1.477 0-.568.103-1.064.309-1.488.208-.424.497-.753.866-.987.372-.234.804-.352 1.296-.352.493 0 .924.118 1.293.352.372.234.661.563.867.987.208.424.312.92.312 1.488 0 .564-.104 1.056-.312 1.477-.206.422-.495.75-.867.984-.369.234-.8.352-1.293.352zm0-.753c.375 0 .682-.096.924-.288.241-.192.42-.444.536-.756.116-.313.174-.651.174-1.016 0-.364-.058-.704-.174-1.019s-.295-.569-.536-.764c-.242-.194-.549-.291-.924-.291-.374 0-.681.097-.923.291-.241.195-.42.449-.536.764s-.174.655-.174 1.019c0 .365.058.703.174 1.016.116.312.295.564.536.756.242.192.549.288.923.288zm3.751.639v-5.455h.81v.824h.057c.099-.27.279-.489.54-.657.26-.168.554-.252.88-.252.062 0 .139.001.231.004.092.002.162.006.21.01v.853c-.029-.007-.094-.018-.196-.032-.099-.017-.204-.025-.316-.025-.265 0-.502.056-.71.167-.206.109-.369.26-.49.454-.118.192-.178.411-.178.657v3.452zm5.615.114c-.455 0-.856-.115-1.204-.345-.348-.232-.62-.559-.817-.98-.196-.424-.295-.924-.295-1.502 0-.573.099-1.07.295-1.492.197-.421.47-.746.82-.976.351-.23.756-.345 1.215-.345.355 0 .636.06.842.178.208.116.366.249.475.398.112.146.198.267.26.362h.071v-2.685h.838v7.273h-.81v-.838h-.099c-.062.099-.15.225-.263.376-.114.149-.276.283-.487.402-.21.116-.491.174-.841.174zm.113-.753c.337 0 .621-.088.853-.263.232-.178.408-.423.529-.735.12-.315.181-.678.181-1.09 0-.407-.059-.764-.178-1.069-.118-.308-.293-.547-.525-.717-.232-.173-.519-.26-.86-.26-.355 0-.651.091-.887.274-.235.18-.411.425-.53.735-.116.308-.174.653-.174 1.037 0 .388.06.741.178 1.058.121.315.298.566.533.753.236.184.53.277.88.277zm6.325.753c-.526 0-.979-.116-1.36-.348-.379-.235-.671-.561-.877-.98-.204-.422-.306-.912-.306-1.471 0-.558.102-1.051.306-1.477.206-.428.492-.762.859-1.001.369-.242.8-.363 1.293-.363.284 0 .564.048.841.142.277.095.529.249.757.462.227.211.408.49.543.838s.202.777.202 1.286v.355h-4.204v-.725h3.352c0-.307-.061-.582-.184-.823-.121-.242-.294-.433-.519-.572-.222-.14-.485-.21-.788-.21-.334 0-.623.083-.867.249-.241.163-.427.376-.557.639-.131.263-.196.545-.196.845v.483c0 .412.071.761.213 1.048.145.284.345.5.601.65.255.146.552.22.891.22.22 0 .419-.031.597-.093.179-.063.335-.158.465-.284.13-.127.231-.286.302-.475l.809.227c-.085.274-.228.516-.429.724-.202.206-.45.367-.746.483-.296.114-.629.171-.998.171zm3.533-.114v-5.455h.81v.824h.057c.099-.27.279-.489.54-.657.26-.168.554-.252.88-.252.062 0 .139.001.231.004.092.002.162.006.21.01v.853c-.029-.007-.094-.018-.196-.032-.099-.017-.205-.025-.316-.025-.265 0-.502.056-.71.167-.206.109-.369.26-.49.454-.118.192-.178.411-.178.657v3.452z" fill="#999"/><g clip-path="url(#e)"><path d="m0 0h11v11h-11z" fill="#171c1e" transform="matrix(.707107 .707107 .707107 -.707107 788 174.5)"/></g></g><g filter="url(#b)"><path d="m0 0h130v69.5h-130z" fill="#171c1e" transform="translate(35 274)"/><rect fill="#171c1e" height="69.5" rx="7" width="130" x="35" y="274"/><path clip-rule="evenodd" d="m53.0016 289.002c.2421.25.4732.489.6933.718 2.2034 2.292 3.3051 3.574 3.3051 5.132.0025 1.062-.388 2.125-1.1716 2.936-1.562 1.616-4.0947 1.616-5.6567 0-.7836-.811-1.1742-1.874-1.1717-2.936 0-1.558 1.1018-2.84 3.3053-5.132.2201-.229.4512-.468.6933-.718l.001-.002h.0005zm-2.1968 3.909c.5019-.68 1.2188-1.454 2.1953-2.471.9764 1.017 1.6933 1.791 2.1951 2.471.5998.813.8048 1.38.8048 1.941v.002c.0001.049-.0008.097-.0029.146h-5.9942c-.002-.049-.003-.097-.0029-.146v-.002c0-.561.205-1.128.8048-1.941z" fill="#8c8c8c" fill-rule="evenodd"/><path d="m88.8281 298.5 1.3125-8h.7813l-1.3125 8zm-3.6406-2.219.125-.781h5.9688l-.125.781zm.8281 2.219 1.3125-8h.7813l-1.3125 8zm-.3593-5 .1249-.781h5.9688l-.125.781zm6.9238 3.359v-.797l3.5156-5.562h.5781v1.234h-.3906l-2.6562 4.203v.063h4.7343v.859zm3.7656 1.641v-1.883-.371-5.746h.9219v8zm6.1353.109c-.328-.005-.656-.067-.984-.187s-.628-.322-.898-.606c-.271-.286-.489-.673-.6527-1.16-.1641-.489-.2461-1.104-.2461-1.844 0-.708.0664-1.335.1992-1.882.1326-.55.3256-1.012.5786-1.387.252-.378.557-.664.914-.859.359-.196.764-.293 1.214-.293.448 0 .847.089 1.196.269.351.177.638.425.859.742.221.318.365.684.43 1.098h-.953c-.089-.359-.261-.658-.516-.895s-.594-.355-1.016-.355c-.619 0-1.108.27-1.464.809-.355.539-.533 1.295-.536 2.269h.063c.146-.221.319-.41.519-.566.204-.159.428-.282.672-.367.245-.086.504-.129.778-.129.458 0 .877.114 1.258.343.38.227.684.541.914.942.229.398.343.855.343 1.371 0 .495-.11.948-.332 1.359-.221.409-.532.735-.933.977-.399.239-.867.357-1.407.351zm0-.859c.329 0 .623-.082.883-.246.263-.164.47-.384.621-.66.154-.276.231-.584.231-.922 0-.331-.074-.632-.223-.902-.146-.274-.347-.491-.605-.653-.256-.161-.547-.242-.875-.242-.248 0-.478.049-.692.148-.213.097-.401.23-.562.399-.159.169-.284.363-.375.582-.091.216-.137.444-.137.683 0 .318.074.615.223.891.151.276.356.499.617.668.263.169.561.254.894.254zm4.021-.891v-.797l3.516-5.562h.578v1.234h-.391l-2.656 4.203v.063h4.734v.859zm3.766 1.641v-1.883-.371-5.746h.921v8zm3.62 0v-8h2.797c.557 0 1.016.096 1.378.289.362.19.632.447.809.77.177.32.266.675.266 1.066 0 .344-.062.628-.184.852-.12.224-.279.401-.476.531-.196.13-.408.226-.637.289v.078c.245.016.491.102.738.258s.455.38.621.672c.167.291.25.648.25 1.07 0 .401-.091.762-.273 1.082-.183.32-.47.574-.864.762-.393.187-.904.281-1.535.281zm.968-.859h1.922c.633 0 1.082-.123 1.348-.368.268-.247.402-.546.402-.898 0-.271-.069-.521-.207-.75-.138-.232-.334-.417-.59-.555-.255-.14-.557-.211-.906-.211h-1.969zm0-3.625h1.797c.292 0 .555-.058.789-.172.237-.115.425-.276.563-.485.141-.208.211-.453.211-.734 0-.352-.123-.65-.367-.895-.245-.247-.633-.371-1.164-.371h-1.829zm8.545 4.593c-.458 0-.871-.091-1.238-.273s-.661-.432-.883-.75c-.221-.318-.342-.68-.363-1.086h.937c.037.362.201.661.493.898.294.235.646.352 1.054.352.328 0 .62-.077.875-.23.258-.154.46-.365.606-.633.148-.271.222-.577.222-.918 0-.349-.076-.66-.23-.934-.151-.276-.359-.493-.625-.652s-.569-.24-.91-.242c-.245-.003-.496.035-.754.113-.258.075-.47.173-.637.293l-.906-.11.484-3.937h4.157v.859h-3.344l-.281 2.36h.046c.165-.13.37-.239.618-.324.247-.086.505-.129.773-.129.49 0 .926.117 1.309.351.385.232.687.55.906.953.221.404.332.865.332 1.383 0 .511-.115.966-.344 1.367-.226.399-.539.714-.937.946-.399.229-.852.343-1.36.343zm4.193-.109v-.703l2.64-2.891c.31-.338.565-.633.766-.883.201-.252.349-.489.445-.711.099-.223.149-.458.149-.703 0-.281-.068-.524-.203-.73-.133-.206-.315-.365-.547-.477s-.492-.168-.782-.168c-.307 0-.575.064-.804.192-.227.125-.403.301-.528.527-.122.227-.183.492-.183.797h-.922c0-.469.108-.88.324-1.234.216-.355.511-.631.883-.829.375-.197.796-.296 1.262-.296.469 0 .884.099 1.246.296.362.198.646.465.851.801.206.336.309.71.309 1.121 0 .295-.053.582-.16.864-.104.278-.287.589-.547.933-.258.341-.616.758-1.074 1.25l-1.797 1.922v.063h3.719v.859z" fill="#fff"/><path d="m91.6477 303.227v7.273h-.8522l-3.9631-5.71h-.071v5.71h-.8807v-7.273h.8523l3.9772 5.725h.071v-5.725zm3.9356 7.387c-.5256 0-.979-.116-1.3601-.348-.3788-.235-.6712-.561-.8771-.98-.2036-.422-.3054-.912-.3054-1.471 0-.558.1018-1.051.3054-1.477.2059-.428.4924-.762.8593-1.001.3694-.242.8002-.363 1.2926-.363.2841 0 .5647.048.8417.142.277.095.5291.249.7564.462.2272.211.4083.49.5433.838.1349.348.2024.777.2024 1.286v.355h-4.2045v-.725h3.3522c0-.307-.0615-.582-.1846-.823-.1208-.242-.2936-.433-.5185-.572-.2225-.14-.4853-.21-.7884-.21-.3338 0-.6226.083-.8664.249-.2415.163-.4274.376-.5576.639s-.1953.545-.1953.845v.483c0 .412.0711.761.2131 1.048.1444.284.3445.5.6001.65.2557.146.5528.22.8914.22.2201 0 .419-.031.5966-.093.1799-.063.335-.158.4652-.284.1302-.127.2308-.286.3018-.475l.8097.227c-.0853.274-.2285.516-.4297.724-.2012.206-.4498.367-.7458.483-.2959.114-.6285.171-.9978.171zm6.9707-2.344v-3.225h.838v5.455h-.838v-.923h-.057c-.128.277-.326.512-.596.706-.27.192-.611.288-1.023.288-.341 0-.644-.075-.9091-.224-.2651-.151-.4735-.378-.625-.682-.1515-.305-.2272-.69-.2272-1.154v-3.466h.838v3.41c0 .397.1113.715.3343.951.224.237.511.355.859.355.208 0 .42-.053.636-.159.217-.107.4-.27.546-.49.15-.221.224-.501.224-.842zm4.745-3.225v.711h-2.826v-.711zm-2.002-1.306h.838v5.199c0 .236.034.414.103.532.071.116.161.194.269.235.112.037.229.056.352.056.092 0 .168-.004.227-.014.059-.012.107-.021.142-.028l.171.753c-.057.021-.136.042-.238.064-.102.023-.231.035-.387.035-.237 0-.469-.051-.696-.153-.225-.101-.412-.257-.561-.465-.147-.208-.22-.471-.22-.788zm3.263 6.761v-5.455h.81v.824h.056c.1-.27.28-.489.54-.657.261-.168.554-.252.881-.252.061 0 .138.001.231.004.092.002.162.006.209.01v.853c-.028-.007-.093-.018-.195-.032-.099-.017-.205-.025-.316-.025-.265 0-.502.056-.71.167-.206.109-.37.26-.49.454-.119.192-.178.411-.178.657v3.452zm5.326.128c-.346 0-.659-.065-.941-.195-.282-.133-.506-.324-.671-.572-.166-.251-.249-.554-.249-.909 0-.313.062-.566.185-.76.123-.197.287-.351.493-.462s.434-.194.682-.248c.251-.057.503-.102.757-.135.331-.043.6-.075.806-.096.208-.024.359-.063.454-.117.097-.055.146-.15.146-.285v-.028c0-.35-.096-.623-.288-.817-.189-.194-.477-.291-.863-.291-.4 0-.714.088-.941.263s-.387.362-.479.561l-.796-.284c.142-.332.332-.59.568-.774.24-.187.5-.318.782-.391.284-.076.563-.114.838-.114.175 0 .376.022.603.064.23.041.451.125.665.252.215.128.394.321.536.579s.213.604.213 1.037v3.594h-.838v-.739h-.043c-.057.119-.151.245-.284.38s-.309.25-.529.345c-.22.094-.489.142-.806.142zm.128-.753c.331 0 .61-.065.838-.195.229-.131.402-.299.518-.505.119-.206.178-.422.178-.649v-.767c-.036.042-.114.081-.235.117-.118.033-.255.062-.412.088-.153.024-.304.045-.451.064-.144.017-.261.031-.351.043-.218.028-.422.075-.611.139-.187.061-.338.155-.454.28-.114.123-.171.291-.171.504 0 .292.108.512.323.661.218.147.494.22.828.22zm4.74-6.648v7.273h-.839v-7.273zm4.106-.341-2.344 8.708h-.767l2.344-8.708zm6.078 2.614c-.078-.239-.181-.453-.309-.643-.125-.192-.276-.355-.451-.49-.173-.135-.369-.238-.589-.309s-.462-.106-.725-.106c-.431 0-.822.111-1.175.334-.353.222-.633.55-.842.983-.208.433-.312.965-.312 1.595 0 .629.105 1.161.316 1.594s.496.761.856.984c.36.222.764.334 1.214.334.417 0 .784-.089 1.101-.267.32-.18.568-.433.746-.76.18-.329.27-.716.27-1.161l.27.057h-2.188v-.781h2.77v.781c0 .599-.128 1.12-.384 1.562-.253.443-.603.786-1.051 1.03-.445.242-.956.362-1.534.362-.644 0-1.21-.151-1.697-.454-.486-.303-.864-.734-1.137-1.293-.27-.558-.404-1.221-.404-1.988 0-.576.076-1.093.23-1.552.157-.462.377-.855.661-1.179.284-.325.62-.573 1.008-.746.389-.173.816-.259 1.282-.259.384 0 .741.058 1.073.174.334.113.631.276.891.486.263.209.482.458.657.75.175.288.296.609.362.962zm2.347 5v-5.455h.809v.824h.057c.1-.27.279-.489.54-.657.26-.168.554-.252.881-.252.061 0 .138.001.23.004.093.002.163.006.21.01v.853c-.029-.007-.094-.018-.195-.032-.1-.017-.205-.025-.316-.025-.266 0-.502.056-.711.167-.206.109-.369.26-.49.454-.118.192-.177.411-.177.657v3.452zm5.325.128c-.345 0-.659-.065-.941-.195-.281-.133-.505-.324-.671-.572-.165-.251-.248-.554-.248-.909 0-.313.061-.566.184-.76.123-.197.288-.351.494-.462s.433-.194.682-.248c.251-.057.503-.102.756-.135.332-.043.6-.075.806-.096.209-.024.36-.063.455-.117.097-.055.145-.15.145-.285v-.028c0-.35-.096-.623-.287-.817-.19-.194-.477-.291-.863-.291-.4 0-.714.088-.941.263-.228.175-.387.362-.48.561l-.795-.284c.142-.332.331-.59.568-.774.239-.187.5-.318.781-.391.284-.076.564-.114.838-.114.176 0 .377.022.604.064.23.041.451.125.664.252.216.128.394.321.536.579s.213.604.213 1.037v3.594h-.838v-.739h-.042c-.057.119-.152.245-.284.38-.133.135-.309.25-.529.345-.221.094-.489.142-.807.142zm.128-.753c.332 0 .611-.065.838-.195.23-.131.403-.299.519-.505.118-.206.177-.422.177-.649v-.767c-.035.042-.113.081-.234.117-.118.033-.256.062-.412.088-.154.024-.304.045-.451.064-.144.017-.262.031-.351.043-.218.028-.422.075-.611.139-.187.061-.339.155-.455.28-.113.123-.17.291-.17.504 0 .292.107.512.323.661.218.147.493.22.827.22zm4.247 2.67c-.142 0-.269-.011-.38-.035-.112-.021-.189-.043-.231-.064l.213-.739c.203.052.383.071.54.057.156-.014.294-.084.415-.209.123-.123.236-.323.337-.6l.157-.427-2.017-5.483h.909l1.505 4.347h.057l1.506-4.347h.909l-2.315 6.25c-.105.282-.234.515-.387.7-.154.187-.333.326-.537.416-.201.089-.428.134-.681.134zm10.154-1.946c-.488 0-.919-.086-1.293-.259-.371-.175-.661-.415-.87-.721-.208-.307-.311-.658-.309-1.051-.002-.308.058-.592.182-.852.123-.263.291-.482.504-.657.215-.178.456-.29.721-.337v-.043c-.348-.09-.625-.285-.831-.586-.206-.303-.308-.647-.306-1.033-.002-.37.091-.7.281-.991.189-.291.45-.521.781-.689.334-.168.714-.252 1.14-.252.421 0 .798.084 1.129.252.332.168.592.398.782.689.191.291.288.621.291.991-.003.386-.108.73-.316 1.033-.206.301-.48.496-.821.586v.043c.263.047.5.159.711.337.21.175.378.394.504.657.125.26.189.544.192.852-.003.393-.109.744-.32 1.051-.208.306-.498.546-.87.721-.369.173-.797.259-1.282.259zm0-.781c.329 0 .613-.053.852-.16.239-.106.424-.256.554-.451.13-.194.197-.421.199-.681-.002-.275-.073-.518-.213-.728-.14-.211-.33-.377-.572-.498-.239-.12-.512-.181-.82-.181-.31 0-.587.061-.831.181-.241.121-.432.287-.572.498-.137.21-.204.453-.202.728-.002.26.06.487.188.681.13.195.316.345.558.451.241.107.528.16.859.16zm0-3.452c.26 0 .491-.052.692-.156.204-.104.364-.25.48-.437s.175-.406.177-.657c-.002-.246-.06-.46-.174-.642-.113-.185-.271-.327-.472-.426-.201-.102-.435-.153-.703-.153-.272 0-.51.051-.714.153-.203.099-.361.241-.472.426-.111.182-.166.396-.163.642-.003.251.053.47.166.657.117.187.276.333.48.437s.438.156.703.156z" fill="#999"/><rect fill="#464b52" height="16" rx="3" width="16" x="65" y="286"/><path clip-rule="evenodd" d="m54 318.5h-2v1h2zm2.5 9h.5v-.5h1v.5 1h-1-.5zm-7.5-5v2h-1v-2zm8-2.5v-.5h-.5v-1h.5 1v1 .5zm0 2.5v2h1v-2zm-8-2.5v-.5h.5v-1h-.5-1v1 .5zm-1 7.5v-.5h1v.5h.5v1h-.5-1zm6 0h-2v1h2z" fill="#8c8c8c" fill-rule="evenodd"/><path d="m68.6406 320v8h-.9687v-6.984h-.0469l-1.9531 1.296v-.984l2-1.328zm4.9102 8.109c-.5886 0-1.0899-.16-1.5039-.48-.4141-.323-.7305-.79-.9492-1.402-.2188-.615-.3282-1.357-.3282-2.227 0-.865.1094-1.603.3282-2.215.2213-.614.539-1.083.9531-1.406.4166-.326.9166-.488 1.5-.488.5833 0 1.082.162 1.4961.488.4166.323.7344.792.9531 1.406.2214.612.332 1.35.332 2.215 0 .87-.1093 1.612-.3281 2.227-.2187.612-.5352 1.079-.9492 1.402-.4141.32-.9154.48-1.5039.48zm0-.859c.5833 0 1.0364-.281 1.3594-.844.3229-.562.4843-1.364.4843-2.406 0-.693-.0742-1.283-.2226-1.77-.1459-.487-.3568-.858-.6328-1.113-.2735-.255-.6029-.383-.9883-.383-.5781 0-1.03.286-1.3555.856-.3255.568-.4883 1.371-.4883 2.41 0 .693.0729 1.281.2188 1.766.1458.484.3555.852.6289 1.105.276.253.6081.379.9961.379zm6.875.859c-.5886 0-1.0899-.16-1.5039-.48-.4141-.323-.7305-.79-.9492-1.402-.2188-.615-.3282-1.357-.3282-2.227 0-.865.1094-1.603.3282-2.215.2213-.614.539-1.083.9531-1.406.4166-.326.9166-.488 1.5-.488.5833 0 1.082.162 1.4961.488.4166.323.7344.792.9531 1.406.2214.612.332 1.35.332 2.215 0 .87-.1093 1.612-.3281 2.227-.2187.612-.5352 1.079-.9492 1.402-.4141.32-.9154.48-1.5039.48zm0-.859c.5833 0 1.0364-.281 1.3594-.844.3229-.562.4843-1.364.4843-2.406 0-.693-.0742-1.283-.2226-1.77-.1459-.487-.3568-.858-.6328-1.113-.2735-.255-.6029-.383-.9883-.383-.5781 0-1.03.286-1.3555.856-.3255.568-.4883 1.371-.4883 2.41 0 .693.0729 1.281.2188 1.766.1458.484.3555.852.6289 1.105.276.253.6081.379.9961.379zm8.3437-.75v-.422c0-.292.0599-.558.1797-.801.1224-.244.2995-.44.5313-.586.2343-.148.5182-.222.8515-.222.3386 0 .6224.074.8516.222.2292.146.4023.342.5195.586.1172.243.1758.509.1758.801v.422c0 .292-.0599.56-.1797.805-.1172.242-.2916.437-.5234.586-.2292.145-.5104.218-.8438.218-.3385 0-.6237-.073-.8554-.218-.2318-.149-.4076-.344-.5274-.586-.1198-.245-.1797-.513-.1797-.805zm.7969-.422v.422c0 .242.0573.46.1719.652.1146.19.3125.285.5937.285.2735 0 .4662-.095.5782-.285.1145-.192.1718-.41.1718-.652v-.422c0-.242-.0547-.458-.164-.648-.1094-.193-.3047-.289-.586-.289-.2734 0-.47.096-.5898.289-.1172.19-.1758.406-.1758.648zm-4.7812-4.156v-.422c0-.292.0599-.559.1796-.801.1224-.245.2995-.44.5313-.586.2344-.148.5182-.222.8516-.222.3385 0 .6224.074.8515.222.2292.146.4024.341.5195.586.1172.242.1758.509.1758.801v.422c0 .292-.0599.56-.1797.805-.1171.242-.2916.437-.5234.585-.2292.146-.5104.219-.8437.219-.3386 0-.6237-.073-.8555-.219-.2318-.148-.4076-.343-.5274-.585-.1197-.245-.1796-.513-.1796-.805zm.7968-.422v.422c0 .242.0573.46.1719.652.1146.19.3125.285.5938.285.2734 0 .4661-.095.5781-.285.1146-.192.1719-.41.1719-.652v-.422c0-.242-.0547-.458-.1641-.648-.1094-.193-.3047-.29-.5859-.29-.2735 0-.4701.097-.5899.29-.1172.19-.1758.406-.1758.648zm-.5 6.5 5.5-8h.8907l-5.5 8z" fill="#fff"/><g clip-path="url(#f)"><path d="m170.5 308.75h11v11h-11z" fill="#171c1e" transform="matrix(-.70710678 .70710678 -.70710678 -.70710678 509.380925 406.507512)"/></g></g><g clip-path="url(#g)"><path d="m167.5 61.5h11v11h-11z" fill="#171c1e" transform="matrix(-.70710678 .70710678 -.70710678 -.70710678 329.427453 -13.453319)"/></g><rect fill="#171c1e" height="69.5" rx="7" width="134" x="28" y="27"/><path clip-rule="evenodd" d="m46.0016 42.0016c.2421.2504.4732.4895.6933.7185 2.2034 2.2923 3.3051 3.5738 3.3051 5.1318.0025 1.0624-.388 2.1256-1.1716 2.9361-1.562 1.616-4.0947 1.616-5.6567 0-.7836-.8105-1.1742-1.8738-1.1717-2.9361 0-1.558 1.1018-2.8395 3.3053-5.1318.2201-.229.4512-.4681.6933-.7186l.001-.001.0005-.0005zm-2.1968 3.9097c.5019-.6804 1.2188-1.4543 2.1953-2.4709.9764 1.0166 1.6933 1.7905 2.1951 2.4709.5998.8132.8048 1.3799.8048 1.9406v.0024c.0001.0486-.0008.0972-.0029.1457h-5.9942c-.002-.0485-.003-.0971-.0029-.1458v-.0023c0-.5607.205-1.1274.8048-1.9406z" fill="#8c8c8c" fill-rule="evenodd"/><path d="m81.8281 51.5 1.3125-8h.7813l-1.3125 8zm-3.6406-2.2188.125-.7812h5.9688l-.125.7812zm.8281 2.2188 1.3125-8h.7813l-1.3125 8zm-.3593-5 .1249-.7813h5.9688l-.125.7813zm9.9238-3v8h-.9688v-6.9844h-.0468l-1.9532 1.2969v-.9844l2-1.3281zm2.5508 8 3.5781-7.0781v-.0625h-4.125v-.8594h5.125v.9062l-3.5625 7.0938zm8.8466-8v8h-.9687v-6.9844h-.0469l-1.9531 1.2969v-.9844l2-1.3281zm8.8785 2.5h-.968c-.058-.2786-.158-.5234-.301-.7344-.141-.2109-.313-.388-.516-.5312-.2-.1459-.423-.2552-.668-.3282-.244-.0729-.5-.1093-.765-.1093-.485 0-.923.1224-1.317.3672-.39.2448-.702.6054-.933 1.082-.229.4766-.344 1.0612-.344 1.7539s.115 1.2773.344 1.7539c.231.4766.543.8372.933 1.082.394.2448.832.3672 1.317.3672.265 0 .521-.0364.765-.1094.245-.0729.468-.1809.668-.3242.203-.1458.375-.3242.516-.5351.143-.2136.243-.4584.301-.7344h.968c-.072.4089-.205.7747-.398 1.0977-.193.3229-.432.5976-.719.8242-.286.2239-.608.3945-.965.5117-.354.1172-.733.1758-1.136.1758-.683 0-1.289-.1667-1.821-.5-.531-.3334-.949-.8073-1.254-1.4219-.304-.6146-.457-1.3438-.457-2.1875 0-.8438.153-1.5729.457-2.1875.305-.6146.723-1.0885 1.254-1.4219.532-.3333 1.138-.5 1.821-.5.403 0 .782.0586 1.136.1758.357.1172.679.2891.965.5156.287.224.526.4974.719.8203.193.3204.326.6862.398 1.0977zm4.238-2.5v8h-.969v-6.9844h-.047l-1.953 1.2969v-.9844l2-1.3281zm2.441 8v-8h4.828v.8594h-3.859v2.7031h3.609v.8594h-3.609v2.7187h3.922v.8594z" fill="#fff"/><path d="m84.6477 56.2273v7.2727h-.8522l-3.9631-5.7102h-.071v5.7102h-.8807v-7.2727h.8523l3.9772 5.7244h.071v-5.7244zm3.9356 7.3863c-.5256 0-.979-.116-1.3601-.348-.3788-.2344-.6712-.5611-.8771-.9801-.2036-.4214-.3054-.9114-.3054-1.4702 0-.5587.1018-1.0511.3054-1.4772.2059-.4285.4924-.7623.8593-1.0015.3694-.2414.8002-.3622 1.2926-.3622.2841 0 .5647.0474.8417.1421s.5291.2486.7564.4616c.2272.2107.4083.4901.5433.8381.1349.348.2024.7765.2024 1.2855v.3551h-4.2045v-.7244h3.3522c0-.3078-.0615-.5824-.1846-.8239-.1208-.2415-.2936-.432-.5185-.5717-.2225-.1397-.4853-.2095-.7884-.2095-.3338 0-.6226.0828-.8664.2486-.2415.1633-.4274.3764-.5576.6392-.1302.2627-.1953.5445-.1953.8451v.483c0 .4119.0711.7611.2131 1.0476.1444.2841.3445.5007.6001.6498.2557.1468.5528.2202.8914.2202.2201 0 .419-.0308.5966-.0923.1799-.064.335-.1587.4652-.2841.1302-.1279.2308-.2865.3018-.4759l.8097.2273c-.0853.2746-.2285.5161-.4297.7244-.2012.206-.4498.367-.7458.483-.2959.1136-.6285.1704-.9978.1704zm6.9709-2.3437v-3.2244h.838v5.4545h-.838v-.9233h-.0569c-.1278.277-.3267.5126-.5966.7067-.2698.1917-.6107.2876-1.0227.2876-.3409 0-.6439-.0746-.9091-.2237-.2651-.1515-.4735-.3788-.625-.6818-.1515-.3054-.2272-.6901-.2272-1.1541v-3.4659h.838v3.409c0 .3978.1113.715.3338.9517.2249.2368.5114.3552.8594.3552.2083 0 .4202-.0533.6357-.1598.2178-.1066.4001-.2699.5468-.4901.1492-.2202.2238-.5007.2238-.8416zm4.7448-3.2244v.7102h-2.8263v-.7102zm-2.0025-1.3069h.8381v5.1989c0 .2367.0343.4143.103.5327.071.116.161.1941.2699.2343.1112.0379.2284.0569.3515.0569.0923 0 .168-.0048.227-.0142.059-.0119.107-.0213.142-.0284l.171.7528c-.057.0213-.136.0426-.238.0639-.102.0237-.231.0355-.3872.0355-.2367 0-.4688-.0509-.696-.1527-.2249-.1018-.412-.2568-.5611-.4652-.1468-.2083-.2202-.4711-.2202-.7883zm3.2635 6.7614v-5.4545h.81v.8238h.056c.1-.2699.28-.4889.54-.6569.261-.1681.554-.2522.881-.2522.061 0 .138.0012.231.0036.092.0023.162.0059.209.0106v.8523c-.028-.0071-.093-.0178-.195-.032-.099-.0165-.205-.0248-.316-.0248-.265 0-.502.0556-.71.1669-.206.1089-.37.2604-.49.4545-.119.1918-.178.4108-.178.657v3.4517zm5.326.1278c-.346 0-.659-.0651-.941-.1953-.282-.1325-.506-.3231-.671-.5717-.166-.251-.249-.554-.249-.9091 0-.3125.062-.5658.185-.7599.123-.1965.287-.3504.493-.4617s.434-.1941.682-.2486c.251-.0568.503-.1018.757-.1349.331-.0426.6-.0746.806-.0959.208-.0237.359-.0627.454-.1172.097-.0544.146-.1491.146-.2841v-.0284c0-.3504-.096-.6226-.288-.8167-.189-.1942-.477-.2912-.863-.2912-.4 0-.714.0876-.941.2628-.227.1751-.387.3622-.479.561l-.796-.2841c.142-.3314.332-.5894.568-.7741.24-.187.5-.3172.782-.3906.284-.0758.563-.1137.838-.1137.175 0 .376.0213.603.064.23.0402.451.1242.665.2521.215.1278.394.3208.536.5788.142.2581.213.6037.213 1.0369v3.5938h-.838v-.7386h-.043c-.057.1183-.151.245-.284.3799-.133.135-.309.2498-.529.3445s-.489.142-.806.142zm.128-.7528c.331 0 .61-.0651.838-.1953.229-.1302.402-.2983.518-.5043.119-.2059.178-.4226.178-.6498v-.7671c-.036.0426-.114.0817-.235.1172-.118.0332-.255.0627-.412.0888-.153.0237-.304.045-.451.0639-.144.0166-.261.0308-.351.0426-.218.0284-.422.0746-.611.1385-.187.0616-.338.1551-.454.2806-.114.1231-.171.2911-.171.5042 0 .2912.108.5114.323.6605.218.1468.494.2202.828.2202zm4.74-6.6477v7.2727h-.839v-7.2727zm4.106-.3409-2.344 8.7074h-.767l2.344-8.7074zm6.078 2.6136c-.078-.2391-.181-.4534-.309-.6428-.125-.1917-.276-.3551-.451-.49-.173-.135-.369-.2379-.589-.309-.22-.071-.462-.1065-.725-.1065-.431 0-.822.1113-1.175.3338s-.633.5504-.842.9837c-.208.4332-.312.9647-.312 1.5944 0 .6298.105 1.1613.316 1.5945s.496.7611.856.9837c.36.2225.764.3338 1.214.3338.417 0 .784-.0888 1.101-.2664.32-.1799.568-.4332.746-.7599.18-.3291.27-.7162.27-1.1612l.27.0568h-2.188v-.7813h2.77v.7813c0 .5989-.128 1.1198-.384 1.5625-.253.4427-.603.786-1.051 1.0298-.445.2415-.956.3622-1.534.3622-.644 0-1.21-.1515-1.697-.4545-.486-.303-.864-.7339-1.137-1.2926-.27-.5587-.404-1.2216-.404-1.9887 0-.5752.076-1.0925.23-1.5518.157-.4617.377-.8547.661-1.179s.62-.5729 1.008-.7457c.389-.1728.816-.2593 1.282-.2593.384 0 .741.058 1.073.174.334.1137.631.2759.891.4866.263.2083.482.458.657.7492.175.2889.296.6097.362.9624zm2.347 5v-5.4545h.809v.8238h.057c.1-.2699.279-.4889.54-.6569.26-.1681.554-.2522.881-.2522.061 0 .138.0012.23.0036.093.0023.163.0059.21.0106v.8523c-.029-.0071-.094-.0178-.195-.032-.1-.0165-.205-.0248-.316-.0248-.266 0-.502.0556-.711.1669-.206.1089-.369.2604-.49.4545-.118.1918-.177.4108-.177.657v3.4517zm5.325.1278c-.345 0-.659-.0651-.941-.1953-.281-.1325-.505-.3231-.671-.5717-.165-.251-.248-.554-.248-.9091 0-.3125.061-.5658.184-.7599.123-.1965.288-.3504.494-.4617s.433-.1941.682-.2486c.251-.0568.503-.1018.756-.1349.332-.0426.6-.0746.806-.0959.209-.0237.36-.0627.455-.1172.097-.0544.145-.1491.145-.2841v-.0284c0-.3504-.096-.6226-.287-.8167-.19-.1942-.477-.2912-.863-.2912-.4 0-.714.0876-.941.2628-.228.1751-.387.3622-.48.561l-.795-.2841c.142-.3314.331-.5894.568-.7741.239-.187.5-.3172.781-.3906.284-.0758.564-.1137.838-.1137.176 0 .377.0213.604.064.23.0402.451.1242.664.2521.216.1278.394.3208.536.5788.142.2581.213.6037.213 1.0369v3.5938h-.838v-.7386h-.042c-.057.1183-.152.245-.284.3799-.133.135-.309.2498-.529.3445-.221.0947-.489.142-.807.142zm.128-.7528c.332 0 .611-.0651.838-.1953.23-.1302.403-.2983.519-.5043.118-.2059.177-.4226.177-.6498v-.7671c-.035.0426-.113.0817-.234.1172-.118.0332-.256.0627-.412.0888-.154.0237-.304.045-.451.0639-.144.0166-.262.0308-.351.0426-.218.0284-.422.0746-.611.1385-.187.0616-.339.1551-.455.2806-.113.1231-.17.2911-.17.5042 0 .2912.107.5114.323.6605.218.1468.493.2202.827.2202zm4.247 2.6705c-.142 0-.269-.0119-.38-.0356-.112-.0213-.189-.0426-.231-.0639l.213-.7386c.203.0521.383.071.54.0568.156-.0142.294-.084.415-.2095.123-.1231.236-.3232.337-.6002l.157-.4261-2.017-5.4829h.909l1.505 4.3465h.057l1.506-4.3465h.909l-2.315 6.25c-.105.2817-.234.5149-.387.6995-.154.1871-.333.3255-.537.4155-.201.09-.428.135-.681.135zm10.381-9.3182v7.2727h-.88v-6.3494h-.043l-1.776 1.1789v-.8948l1.819-1.2074zm4.464 7.3721c-.535 0-.991-.1456-1.367-.4368-.377-.2935-.664-.7185-.863-1.2748-.199-.5587-.298-1.2334-.298-2.0242 0-.7859.099-1.4571.298-2.0135.201-.5587.49-.9848.866-1.2784.379-.2959.834-.4439 1.364-.4439s.984.148 1.36.4439c.379.2936.668.7197.867 1.2784.201.5564.301 1.2276.301 2.0135 0 .7908-.099 1.4655-.298 2.0242-.199.5563-.486.9813-.863 1.2748-.376.2912-.832.4368-1.367.4368zm0-.7812c.53 0 .942-.2557 1.236-.7671.293-.5113.44-1.2405.44-2.1875 0-.6297-.067-1.1659-.202-1.6086-.133-.4427-.325-.7801-.575-1.0121-.249-.232-.549-.348-.899-.348-.525 0-.936.2592-1.232.7777-.296.5161-.444 1.2464-.444 2.191 0 .6298.066 1.1648.199 1.6052.132.4403.323.7753.572 1.0049.25.2297.552.3445.905.3445z" fill="#999"/><rect fill="#171c1e" height="15" rx="2.5" stroke="#fff" stroke-dasharray="3 3" width="15" x="58.5" y="39.5"/><path clip-rule="evenodd" d="m47 71.5h-2v1h2zm2.5 9h.5v-.5h1v.5 1h-1-.5zm-7.5-5v2h-1v-2zm8-2.5v-.5h-.5v-1h.5 1v1 .5zm0 2.5v2h1v-2zm-8-2.5v-.5h.5v-1h-.5-1v1 .5zm-1 7.5v-.5h1v.5h.5v1h-.5-1zm6 0h-2v1h2z" fill="#8c8c8c" fill-rule="evenodd"/><path d="m61.6406 73v8h-.9687v-6.9844h-.0469l-1.9531 1.2969v-.9844l2-1.3281zm4.9102 8.1094c-.5886 0-1.0899-.1602-1.5039-.4805-.4141-.3229-.7305-.7904-.9492-1.4023-.2188-.6146-.3282-1.3568-.3282-2.2266 0-.8646.1094-1.6029.3282-2.2148.2213-.6146.539-1.0834.9531-1.4063.4166-.3255.9166-.4883 1.5-.4883.5833 0 1.082.1628 1.4961.4883.4166.3229.7344.7917.9531 1.4063.2214.6119.332 1.3502.332 2.2148 0 .8698-.1093 1.612-.3281 2.2266-.2187.6119-.5352 1.0794-.9492 1.4023-.4141.3203-.9154.4805-1.5039.4805zm0-.8594c.5833 0 1.0364-.2813 1.3594-.8438.3229-.5625.4843-1.3645.4843-2.4062 0-.6927-.0742-1.2826-.2226-1.7695-.1459-.487-.3568-.8581-.6328-1.1133-.2735-.2552-.6029-.3828-.9883-.3828-.5781 0-1.03.2851-1.3555.8554-.3255.5678-.4883 1.3711-.4883 2.4102 0 .6927.0729 1.2812.2188 1.7656.1458.4844.3555.8529.6289 1.1055.276.2526.6081.3789.9961.3789zm6.875.8594c-.5886 0-1.0899-.1602-1.5039-.4805-.4141-.3229-.7305-.7904-.9492-1.4023-.2188-.6146-.3282-1.3568-.3282-2.2266 0-.8646.1094-1.6029.3282-2.2148.2213-.6146.539-1.0834.9531-1.4063.4166-.3255.9166-.4883 1.5-.4883.5833 0 1.082.1628 1.4961.4883.4166.3229.7344.7917.9531 1.4063.2214.6119.332 1.3502.332 2.2148 0 .8698-.1093 1.612-.3281 2.2266-.2187.6119-.5352 1.0794-.9492 1.4023-.4141.3203-.9154.4805-1.5039.4805zm0-.8594c.5833 0 1.0364-.2813 1.3594-.8438.3229-.5625.4843-1.3645.4843-2.4062 0-.6927-.0742-1.2826-.2226-1.7695-.1459-.487-.3568-.8581-.6328-1.1133-.2735-.2552-.6029-.3828-.9883-.3828-.5781 0-1.03.2851-1.3555.8554-.3255.5678-.4883 1.3711-.4883 2.4102 0 .6927.0729 1.2812.2188 1.7656.1458.4844.3555.8529.6289 1.1055.276.2526.6081.3789.9961.3789zm8.3437-.75v-.4219c0-.2916.0599-.5586.1797-.8008.1224-.2447.2995-.4401.5313-.5859.2343-.1484.5182-.2227.8515-.2227.3386 0 .6224.0743.8516.2227.2292.1458.4023.3412.5195.5859.1172.2422.1758.5092.1758.8008v.4219c0 .2917-.0599.5599-.1797.8047-.1172.2422-.2916.4375-.5234.5859-.2292.1459-.5104.2188-.8438.2188-.3385 0-.6237-.0729-.8554-.2188-.2318-.1484-.4076-.3437-.5274-.5859-.1198-.2448-.1797-.513-.1797-.8047zm.7969-.4219v.4219c0 .2422.0573.4596.1719.6523.1146.1901.3125.2852.5937.2852.2735 0 .4662-.0951.5782-.2852.1145-.1927.1718-.4101.1718-.6523v-.4219c0-.2422-.0547-.4583-.164-.6484-.1094-.1927-.3047-.2891-.586-.2891-.2734 0-.47.0964-.5898.2891-.1172.1901-.1758.4062-.1758.6484zm-4.7812-4.1562v-.4219c0-.2917.0599-.5586.1796-.8008.1224-.2448.2995-.4401.5313-.5859.2344-.1485.5182-.2227.8516-.2227.3385 0 .6224.0742.8515.2227.2292.1458.4024.3411.5195.5859.1172.2422.1758.5091.1758.8008v.4219c0 .2916-.0599.5599-.1797.8047-.1171.2421-.2916.4375-.5234.5859-.2292.1458-.5104.2187-.8437.2187-.3386 0-.6237-.0729-.8555-.2187-.2318-.1484-.4076-.3438-.5274-.5859-.1197-.2448-.1796-.5131-.1796-.8047zm.7968-.4219v.4219c0 .2422.0573.4596.1719.6523.1146.1901.3125.2852.5938.2852.2734 0 .4661-.0951.5781-.2852.1146-.1927.1719-.4101.1719-.6523v-.4219c0-.2422-.0547-.4583-.1641-.6484-.1094-.1927-.3047-.2891-.5859-.2891-.2735 0-.4701.0964-.5899.2891-.1172.1901-.1758.4062-.1758.6484zm-.5 6.5 5.5-8h.8907l-5.5 8z" fill="#fff"/></g></svg>