<svg width="960" height="137" viewBox="0 0 960 137" fill="none" xmlns="http://www.w3.org/2000/svg"><g clip-path="url(#clip0_292_59429)"><rect width="479" height="104" fill="#F1F1F6"/><rect x="119.5" y="24" width="240" height="56" fill="#fff"/><path d="M137.062 58V46.5781H138.391V56.8125H143.461V58H137.062ZM152.759 53.7031C152.759 54.4062 152.668 55.0339 152.486 55.5859C152.304 56.138 152.041 56.6042 151.697 56.9844C151.353 57.3646 150.936 57.6562 150.447 57.8594C149.962 58.0573 149.413 58.1562 148.798 58.1562C148.226 58.1562 147.699 58.0573 147.22 57.8594C146.746 57.6562 146.335 57.3646 145.986 56.9844C145.642 56.6042 145.374 56.138 145.181 55.5859C144.994 55.0339 144.9 54.4062 144.9 53.7031C144.9 52.7656 145.059 51.9688 145.377 51.3125C145.694 50.651 146.147 50.1484 146.736 49.8047C147.33 49.4557 148.035 49.2812 148.853 49.2812C149.634 49.2812 150.317 49.4557 150.9 49.8047C151.489 50.1536 151.944 50.6589 152.267 51.3203C152.595 51.9766 152.759 52.7708 152.759 53.7031ZM146.244 53.7031C146.244 54.3906 146.335 54.987 146.517 55.4922C146.699 55.9974 146.981 56.388 147.361 56.6641C147.741 56.9401 148.231 57.0781 148.83 57.0781C149.423 57.0781 149.91 56.9401 150.291 56.6641C150.676 56.388 150.96 55.9974 151.142 55.4922C151.324 54.987 151.416 54.3906 151.416 53.7031C151.416 53.0208 151.324 52.4323 151.142 51.9375C150.96 51.4375 150.679 51.0521 150.298 50.7812C149.918 50.5104 149.426 50.375 148.822 50.375C147.931 50.375 147.278 50.6693 146.861 51.2578C146.449 51.8464 146.244 52.6615 146.244 53.7031ZM159.042 49.2812C159.214 49.2812 159.394 49.2917 159.581 49.3125C159.769 49.3281 159.935 49.3516 160.081 49.3828L159.917 50.5859C159.777 50.5495 159.62 50.5208 159.448 50.5C159.277 50.4792 159.115 50.4688 158.964 50.4688C158.62 50.4688 158.295 50.5391 157.987 50.6797C157.685 50.8151 157.42 51.013 157.191 51.2734C156.961 51.5286 156.782 51.8385 156.652 52.2031C156.521 52.5625 156.456 52.9635 156.456 53.4062V58H155.152V49.4375H156.23L156.37 51.0156H156.425C156.602 50.6979 156.816 50.4089 157.066 50.1484C157.316 49.8828 157.605 49.6719 157.933 49.5156C158.266 49.3594 158.636 49.2812 159.042 49.2812ZM165.145 49.2812C165.874 49.2812 166.499 49.4427 167.02 49.7656C167.541 50.0885 167.94 50.5417 168.216 51.125C168.492 51.7031 168.63 52.3802 168.63 53.1562V53.9609H162.716C162.731 54.9661 162.981 55.7318 163.466 56.2578C163.95 56.7839 164.632 57.0469 165.513 57.0469C166.054 57.0469 166.533 56.9974 166.95 56.8984C167.367 56.7995 167.799 56.6536 168.247 56.4609V57.6016C167.815 57.7943 167.385 57.9349 166.958 58.0234C166.536 58.112 166.036 58.1562 165.458 58.1562C164.635 58.1562 163.916 57.9896 163.302 57.6562C162.692 57.3177 162.218 56.8229 161.88 56.1719C161.541 55.5208 161.372 54.724 161.372 53.7812C161.372 52.8594 161.526 52.0625 161.833 51.3906C162.145 50.7135 162.583 50.1927 163.145 49.8281C163.713 49.4635 164.38 49.2812 165.145 49.2812ZM165.13 50.3438C164.437 50.3438 163.885 50.5703 163.473 51.0234C163.062 51.4766 162.817 52.1094 162.739 52.9219H167.27C167.265 52.4115 167.184 51.9635 167.028 51.5781C166.877 51.1875 166.645 50.8854 166.333 50.6719C166.02 50.4531 165.619 50.3438 165.13 50.3438ZM180.28 49.2812C181.222 49.2812 181.933 49.5286 182.412 50.0234C182.892 50.513 183.131 51.3021 183.131 52.3906V58H181.85V52.4531C181.85 51.7604 181.699 51.2422 181.397 50.8984C181.1 50.5495 180.657 50.375 180.069 50.375C179.241 50.375 178.639 50.6146 178.264 51.0938C177.889 51.5729 177.702 52.2786 177.702 53.2109V58H176.412V52.4531C176.412 51.9896 176.345 51.6042 176.209 51.2969C176.079 50.9896 175.881 50.7604 175.616 50.6094C175.355 50.4531 175.024 50.375 174.623 50.375C174.056 50.375 173.6 50.4922 173.256 50.7266C172.912 50.9609 172.662 51.3099 172.506 51.7734C172.355 52.2318 172.28 52.7969 172.28 53.4688V58H170.983V49.4375H172.03L172.225 50.6484H172.295C172.467 50.3516 172.683 50.1016 172.944 49.8984C173.204 49.6953 173.496 49.5417 173.819 49.4375C174.142 49.3333 174.485 49.2812 174.85 49.2812C175.501 49.2812 176.045 49.4036 176.483 49.6484C176.926 49.888 177.246 50.2552 177.444 50.75H177.514C177.795 50.2552 178.181 49.888 178.67 49.6484C179.16 49.4036 179.696 49.2812 180.28 49.2812ZM190.447 58V46.5781H191.775V58H190.447ZM198.894 49.2812C199.961 49.2812 200.813 49.6484 201.448 50.3828C202.084 51.1172 202.402 52.2214 202.402 53.6953C202.402 54.6693 202.256 55.487 201.964 56.1484C201.672 56.8099 201.261 57.3099 200.73 57.6484C200.204 57.987 199.581 58.1562 198.862 58.1562C198.409 58.1562 198.011 58.0964 197.667 57.9766C197.323 57.8568 197.029 57.6953 196.784 57.4922C196.54 57.2891 196.336 57.0677 196.175 56.8281H196.081C196.097 57.0312 196.115 57.276 196.136 57.5625C196.162 57.849 196.175 58.099 196.175 58.3125V61.8281H194.87V49.4375H195.941L196.112 50.7031H196.175C196.342 50.4427 196.545 50.2057 196.784 49.9922C197.024 49.7734 197.316 49.6016 197.659 49.4766C198.008 49.3464 198.42 49.2812 198.894 49.2812ZM198.667 50.375C198.073 50.375 197.594 50.4896 197.23 50.7188C196.87 50.9479 196.607 51.2917 196.441 51.75C196.274 52.2031 196.185 52.7734 196.175 53.4609V53.7109C196.175 54.4349 196.253 55.0469 196.409 55.5469C196.571 56.0469 196.834 56.4271 197.198 56.6875C197.568 56.9479 198.063 57.0781 198.683 57.0781C199.214 57.0781 199.657 56.9349 200.011 56.6484C200.365 56.362 200.628 55.9635 200.8 55.4531C200.977 54.9375 201.066 54.3464 201.066 53.6797C201.066 52.6693 200.868 51.8672 200.472 51.2734C200.081 50.6745 199.48 50.375 198.667 50.375ZM210.356 55.6562C210.356 56.2031 210.218 56.6641 209.942 57.0391C209.671 57.4089 209.281 57.6875 208.77 57.875C208.265 58.0625 207.661 58.1562 206.958 58.1562C206.359 58.1562 205.841 58.1094 205.403 58.0156C204.966 57.9219 204.583 57.7891 204.255 57.6172V56.4219C204.604 56.5938 205.02 56.75 205.505 56.8906C205.989 57.0312 206.484 57.1016 206.989 57.1016C207.729 57.1016 208.265 56.9818 208.598 56.7422C208.932 56.5026 209.098 56.1771 209.098 55.7656C209.098 55.5312 209.031 55.3255 208.895 55.1484C208.765 54.9661 208.544 54.7917 208.231 54.625C207.919 54.4531 207.486 54.2656 206.934 54.0625C206.387 53.8542 205.914 53.6484 205.512 53.4453C205.117 53.237 204.809 52.9844 204.591 52.6875C204.377 52.3906 204.27 52.0052 204.27 51.5312C204.27 50.8073 204.562 50.2526 205.145 49.8672C205.734 49.4766 206.505 49.2812 207.458 49.2812C207.973 49.2812 208.455 49.3333 208.903 49.4375C209.356 49.5365 209.778 49.6719 210.169 49.8438L209.731 50.8828C209.377 50.7318 208.999 50.6042 208.598 50.5C208.197 50.3958 207.789 50.3438 207.372 50.3438C206.773 50.3438 206.312 50.4427 205.989 50.6406C205.671 50.8385 205.512 51.1094 205.512 51.4531C205.512 51.7188 205.585 51.9375 205.731 52.1094C205.882 52.2812 206.122 52.4427 206.45 52.5938C206.778 52.7448 207.21 52.9219 207.747 53.125C208.283 53.3229 208.747 53.5286 209.137 53.7422C209.528 53.9505 209.828 54.2057 210.036 54.5078C210.249 54.8047 210.356 55.1875 210.356 55.6562ZM219.662 49.4375V58H218.6L218.412 56.7969H218.342C218.165 57.0938 217.936 57.3438 217.655 57.5469C217.373 57.75 217.056 57.901 216.702 58C216.353 58.1042 215.98 58.1562 215.584 58.1562C214.907 58.1562 214.34 58.0469 213.881 57.8281C213.423 57.6094 213.077 57.2708 212.842 56.8125C212.613 56.3542 212.498 55.7656 212.498 55.0469V49.4375H213.811V54.9531C213.811 55.6667 213.972 56.2005 214.295 56.5547C214.618 56.9036 215.11 57.0781 215.772 57.0781C216.407 57.0781 216.912 56.9583 217.287 56.7188C217.668 56.4792 217.941 56.1276 218.108 55.6641C218.274 55.1953 218.358 54.6224 218.358 53.9453V49.4375H219.662ZM231.852 49.2812C232.794 49.2812 233.505 49.5286 233.984 50.0234C234.464 50.513 234.703 51.3021 234.703 52.3906V58H233.422V52.4531C233.422 51.7604 233.271 51.2422 232.969 50.8984C232.672 50.5495 232.229 50.375 231.641 50.375C230.812 50.375 230.211 50.6146 229.836 51.0938C229.461 51.5729 229.273 52.2786 229.273 53.2109V58H227.984V52.4531C227.984 51.9896 227.917 51.6042 227.781 51.2969C227.651 50.9896 227.453 50.7604 227.188 50.6094C226.927 50.4531 226.596 50.375 226.195 50.375C225.628 50.375 225.172 50.4922 224.828 50.7266C224.484 50.9609 224.234 51.3099 224.078 51.7734C223.927 52.2318 223.852 52.7969 223.852 53.4688V58H222.555V49.4375H223.602L223.797 50.6484H223.867C224.039 50.3516 224.255 50.1016 224.516 49.8984C224.776 49.6953 225.068 49.5417 225.391 49.4375C225.714 49.3333 226.057 49.2812 226.422 49.2812C227.073 49.2812 227.617 49.4036 228.055 49.6484C228.497 49.888 228.818 50.2552 229.016 50.75H229.086C229.367 50.2552 229.753 49.888 230.242 49.6484C230.732 49.4036 231.268 49.2812 231.852 49.2812Z" fill="#252A2E"/><path d="M265.5 42.75C265.058 42.75 264.638 42.8378 264.256 42.9963C263.874 43.155 263.435 42.9734 263.276 42.5908C263.117 42.2082 263.299 41.7694 263.682 41.6107C264.243 41.378 264.857 41.25 265.5 41.25H267C267.414 41.25 267.75 41.5858 267.75 42C267.75 42.4142 267.414 42.75 267 42.75H265.5Z" fill="#252A2E"/><path d="M269.25 42C269.25 41.5858 269.586 41.25 270 41.25H273C273.414 41.25 273.75 41.5858 273.75 42C273.75 42.4142 273.414 42.75 273 42.75H270C269.586 42.75 269.25 42.4142 269.25 42Z" fill="#252A2E"/><path d="M275.25 42C275.25 41.5858 275.586 41.25 276 41.25H277.5C278.143 41.25 278.757 41.378 279.318 41.6107C279.701 41.7694 279.883 42.2082 279.724 42.5908C279.565 42.9734 279.126 43.155 278.744 42.9963C278.362 42.8378 277.942 42.75 277.5 42.75H276C275.586 42.75 275.25 42.4142 275.25 42Z" fill="#252A2E"/><path d="M262.091 43.7761C262.473 43.9347 262.655 44.3735 262.496 44.7561C262.338 45.1383 262.25 45.5579 262.25 46V47.5C262.25 47.9142 261.914 48.25 261.5 48.25C261.086 48.25 260.75 47.9142 260.75 47.5V46C260.75 45.3573 260.878 44.7427 261.111 44.1816C261.269 43.7989 261.708 43.6174 262.091 43.7761Z" fill="#252A2E"/><path d="M280.909 43.7761C281.292 43.6174 281.731 43.7989 281.889 44.1816C282.122 44.7427 282.25 45.3573 282.25 46V47.5C282.25 47.9142 281.914 48.25 281.5 48.25C281.086 48.25 280.75 47.9142 280.75 47.5V46C280.75 45.5579 280.662 45.1383 280.504 44.7561C280.345 44.3735 280.527 43.9347 280.909 43.7761Z" fill="#252A2E"/><path d="M261.5 49.75C261.914 49.75 262.25 50.0858 262.25 50.5V53.5C262.25 53.9142 261.914 54.25 261.5 54.25C261.086 54.25 260.75 53.9142 260.75 53.5V50.5C260.75 50.0858 261.086 49.75 261.5 49.75Z" fill="#252A2E"/><path d="M281.5 49.75C281.914 49.75 282.25 50.0858 282.25 50.5V53.5C282.25 53.9142 281.914 54.25 281.5 54.25C281.086 54.25 280.75 53.9142 280.75 53.5V50.5C280.75 50.0858 281.086 49.75 281.5 49.75Z" fill="#252A2E"/><path d="M261.5 55.75C261.914 55.75 262.25 56.0858 262.25 56.5V58C262.25 58.4421 262.338 58.8617 262.496 59.2439C262.655 59.6265 262.473 60.0653 262.091 60.2239C261.708 60.3826 261.269 60.2011 261.111 59.8184C260.878 59.2573 260.75 58.6427 260.75 58V56.5C260.75 56.0858 261.086 55.75 261.5 55.75Z" fill="#252A2E"/><path d="M281.5 55.75C281.914 55.75 282.25 56.0858 282.25 56.5V58C282.25 58.6427 282.122 59.2573 281.889 59.8184C281.731 60.2011 281.292 60.3826 280.909 60.2239C280.527 60.0653 280.345 59.6265 280.504 59.2439C280.662 58.8617 280.75 58.4421 280.75 58V56.5C280.75 56.0858 281.086 55.75 281.5 55.75Z" fill="#252A2E"/><path d="M263.276 61.4092C263.435 61.0266 263.874 60.845 264.256 61.0037C264.638 61.1622 265.058 61.25 265.5 61.25H267C267.414 61.25 267.75 61.5858 267.75 62C267.75 62.4142 267.414 62.75 267 62.75H265.5C264.857 62.75 264.243 62.622 263.682 62.3893C263.299 62.2306 263.117 61.7918 263.276 61.4092Z" fill="#252A2E"/><path d="M279.724 61.4092C279.883 61.7918 279.701 62.2306 279.318 62.3893C278.757 62.622 278.143 62.75 277.5 62.75H276C275.586 62.75 275.25 62.4142 275.25 62C275.25 61.5858 275.586 61.25 276 61.25H277.5C277.942 61.25 278.362 61.1622 278.744 61.0037C279.126 60.845 279.565 61.0266 279.724 61.4092Z" fill="#252A2E"/><path d="M269.25 62C269.25 61.5858 269.586 61.25 270 61.25H273C273.414 61.25 273.75 61.5858 273.75 62C273.75 62.4142 273.414 62.75 273 62.75H270C269.586 62.75 269.25 62.4142 269.25 62Z" fill="#252A2E"/><path d="M280.03 44.591C280.323 44.2981 280.323 43.8232 280.03 43.5303C279.737 43.2374 279.263 43.2374 278.97 43.5303L277.973 44.5265C277.681 44.8194 277.681 45.2943 277.973 45.5872C278.266 45.8801 278.741 45.8801 279.034 45.5872L280.03 44.591Z" fill="#252A2E"/><path d="M277.042 47.5796C277.335 47.2867 277.335 46.8118 277.042 46.519C276.749 46.2261 276.274 46.2261 275.981 46.519L273.989 48.5114C273.696 48.8043 273.696 49.2791 273.989 49.572C274.282 49.8649 274.756 49.8649 275.049 49.572L277.042 47.5796Z" fill="#252A2E"/><path d="M273.057 51.5645C273.35 51.2716 273.35 50.7967 273.057 50.5038C272.764 50.2109 272.289 50.2109 271.996 50.5038L271.5 51L271.004 50.5038C270.711 50.2109 270.236 50.2109 269.943 50.5038C269.65 50.7967 269.65 51.2716 269.943 51.5645L270.439 52.0607L270.004 52.4962C269.711 52.7891 269.711 53.264 270.004 53.5569C270.297 53.8498 270.772 53.8498 271.064 53.5569L271.5 53.1213L271.936 53.5569C272.228 53.8498 272.703 53.8498 272.996 53.5569C273.289 53.264 273.289 52.7891 272.996 52.4962L272.561 52.0607L273.057 51.5645Z" fill="#252A2E"/><path d="M269.072 55.5493C269.365 55.2564 269.365 54.7815 269.072 54.4886C268.779 54.1957 268.304 54.1957 268.011 54.4886L266.019 56.481C265.726 56.7739 265.726 57.2488 266.019 57.5417C266.312 57.8346 266.787 57.8346 267.08 57.5417L269.072 55.5493Z" fill="#252A2E"/><path d="M265.087 59.5341C265.38 59.2412 265.38 58.7664 265.087 58.4735C264.794 58.1806 264.319 58.1806 264.027 58.4735L263.03 59.4697C262.737 59.7626 262.737 60.2374 263.03 60.5303C263.323 60.8232 263.798 60.8232 264.091 60.5303L265.087 59.5341Z" fill="#252A2E"/><path d="M278.909 60.5303C279.202 60.8232 279.677 60.8232 279.97 60.5303C280.263 60.2374 280.263 59.7626 279.97 59.4697L278.973 58.4735C278.681 58.1806 278.206 58.1806 277.913 58.4735C277.62 58.7664 277.62 59.2412 277.913 59.5341L278.909 60.5303Z" fill="#252A2E"/><path d="M275.92 57.5417C276.213 57.8346 276.688 57.8346 276.981 57.5417C277.274 57.2488 277.274 56.7739 276.981 56.481L274.989 54.4886C274.696 54.1957 274.221 54.1957 273.928 54.4886C273.635 54.7815 273.635 55.2564 273.928 55.5493L275.92 57.5417Z" fill="#252A2E"/><path d="M267.951 49.572C268.244 49.8649 268.718 49.8649 269.011 49.572C269.304 49.2791 269.304 48.8043 269.011 48.5114L267.019 46.519C266.726 46.2261 266.251 46.2261 265.958 46.519C265.665 46.8118 265.665 47.2867 265.958 47.5796L267.951 49.572Z" fill="#252A2E"/><path d="M263.966 45.5872C264.259 45.8801 264.734 45.8801 265.027 45.5872C265.319 45.2943 265.319 44.8194 265.027 44.5265L264.03 43.5303C263.737 43.2374 263.263 43.2374 262.97 43.5303C262.677 43.8232 262.677 44.2981 262.97 44.591L263.966 45.5872Z" fill="#252A2E"/><path d="M268.556 46.889C268.854 46.7988 269.171 46.75 269.5 46.75H270.25C270.664 46.75 271 46.4142 271 46C271 45.5858 270.664 45.25 270.25 45.25H269.5C269.022 45.25 268.558 45.321 268.121 45.4535C267.725 45.5736 267.501 45.9923 267.621 46.3887C267.741 46.7851 268.16 47.0091 268.556 46.889Z" fill="#252A2E"/><path d="M272.75 45.25C272.336 45.25 272 45.5858 272 46C272 46.4142 272.336 46.75 272.75 46.75H273.5C273.829 46.75 274.146 46.7988 274.444 46.889C274.84 47.0091 275.259 46.7851 275.379 46.3887C275.499 45.9923 275.275 45.5736 274.879 45.4535C274.442 45.321 273.978 45.25 273.5 45.25H272.75Z" fill="#252A2E"/><path d="M266.389 49.0559C266.509 48.6595 266.285 48.2408 265.889 48.1207C265.492 48.0006 265.074 48.2246 264.953 48.621C264.821 49.0583 264.75 49.5216 264.75 50V50.75C264.75 51.1642 265.086 51.5 265.5 51.5C265.914 51.5 266.25 51.1642 266.25 50.75V50C266.25 49.6705 266.299 49.3538 266.389 49.0559Z" fill="#252A2E"/><path d="M278.047 48.621C277.926 48.2246 277.508 48.0006 277.111 48.1207C276.715 48.2408 276.491 48.6595 276.611 49.0559C276.701 49.3538 276.75 49.6705 276.75 50V50.75C276.75 51.1642 277.086 51.5 277.5 51.5C277.914 51.5 278.25 51.1642 278.25 50.75V50C278.25 49.5216 278.179 49.0583 278.047 48.621Z" fill="#252A2E"/><path d="M266.25 53.25C266.25 52.8358 265.914 52.5 265.5 52.5C265.086 52.5 264.75 52.8358 264.75 53.25V54C264.75 54.4784 264.821 54.9417 264.953 55.379C265.074 55.7754 265.492 55.9994 265.889 55.8793C266.285 55.7592 266.509 55.3405 266.389 54.9441C266.299 54.6462 266.25 54.3295 266.25 54V53.25Z" fill="#252A2E"/><path d="M278.25 53.25C278.25 52.8358 277.914 52.5 277.5 52.5C277.086 52.5 276.75 52.8358 276.75 53.25V54C276.75 54.3295 276.701 54.6462 276.611 54.9441C276.491 55.3405 276.715 55.7592 277.111 55.8793C277.508 55.9994 277.926 55.7754 278.047 55.379C278.179 54.9417 278.25 54.4784 278.25 54V53.25Z" fill="#252A2E"/><path d="M268.556 57.111C268.16 56.9909 267.741 57.2149 267.621 57.6113C267.501 58.0077 267.725 58.4264 268.121 58.5465C268.558 58.679 269.022 58.75 269.5 58.75H270.25C270.664 58.75 271 58.4142 271 58C271 57.5858 270.664 57.25 270.25 57.25H269.5C269.171 57.25 268.854 57.2012 268.556 57.111Z" fill="#252A2E"/><path d="M274.879 58.5465C275.275 58.4264 275.499 58.0077 275.379 57.6113C275.259 57.2149 274.84 56.9909 274.444 57.111C274.146 57.2012 273.829 57.25 273.5 57.25H272.75C272.336 57.25 272 57.5858 272 58C272 58.4142 272.336 58.75 272.75 58.75H273.5C273.978 58.75 274.442 58.679 274.879 58.5465Z" fill="#252A2E"/><path d="M317.5 42.75C317.058 42.75 316.638 42.8378 316.256 42.9963C315.874 43.155 315.435 42.9734 315.276 42.5908C315.117 42.2082 315.299 41.7694 315.682 41.6107C316.243 41.378 316.857 41.25 317.5 41.25H319C319.414 41.25 319.75 41.5858 319.75 42C319.75 42.4142 319.414 42.75 319 42.75H317.5Z" fill="#252A2E"/><path d="M321.25 42C321.25 41.5858 321.586 41.25 322 41.25H325C325.414 41.25 325.75 41.5858 325.75 42C325.75 42.4142 325.414 42.75 325 42.75H322C321.586 42.75 321.25 42.4142 321.25 42Z" fill="#252A2E"/><path d="M327.25 42C327.25 41.5858 327.586 41.25 328 41.25H329.5C330.143 41.25 330.757 41.378 331.318 41.6107C331.701 41.7694 331.883 42.2082 331.724 42.5908C331.565 42.9734 331.126 43.155 330.744 42.9963C330.362 42.8378 329.942 42.75 329.5 42.75H328C327.586 42.75 327.25 42.4142 327.25 42Z" fill="#252A2E"/><path d="M314.091 43.7761C314.473 43.9347 314.655 44.3735 314.496 44.7561C314.338 45.1383 314.25 45.5579 314.25 46V47.5C314.25 47.9142 313.914 48.25 313.5 48.25C313.086 48.25 312.75 47.9142 312.75 47.5V46C312.75 45.3573 312.878 44.7427 313.111 44.1816C313.269 43.7989 313.708 43.6174 314.091 43.7761Z" fill="#252A2E"/><path d="M332.909 43.7761C333.292 43.6174 333.731 43.7989 333.889 44.1816C334.122 44.7427 334.25 45.3573 334.25 46V47.5C334.25 47.9142 333.914 48.25 333.5 48.25C333.086 48.25 332.75 47.9142 332.75 47.5V46C332.75 45.5579 332.662 45.1383 332.504 44.7561C332.345 44.3735 332.527 43.9347 332.909 43.7761Z" fill="#252A2E"/><path d="M313.5 49.75C313.914 49.75 314.25 50.0858 314.25 50.5V53.5C314.25 53.9142 313.914 54.25 313.5 54.25C313.086 54.25 312.75 53.9142 312.75 53.5V50.5C312.75 50.0858 313.086 49.75 313.5 49.75Z" fill="#252A2E"/><path d="M333.5 49.75C333.914 49.75 334.25 50.0858 334.25 50.5V53.5C334.25 53.9142 333.914 54.25 333.5 54.25C333.086 54.25 332.75 53.9142 332.75 53.5V50.5C332.75 50.0858 333.086 49.75 333.5 49.75Z" fill="#252A2E"/><path d="M313.5 55.75C313.914 55.75 314.25 56.0858 314.25 56.5V58C314.25 58.4421 314.338 58.8617 314.496 59.2439C314.655 59.6265 314.473 60.0653 314.091 60.2239C313.708 60.3826 313.269 60.2011 313.111 59.8184C312.878 59.2573 312.75 58.6427 312.75 58V56.5C312.75 56.0858 313.086 55.75 313.5 55.75Z" fill="#252A2E"/><path d="M333.5 55.75C333.914 55.75 334.25 56.0858 334.25 56.5V58C334.25 58.6427 334.122 59.2573 333.889 59.8184C333.731 60.2011 333.292 60.3826 332.909 60.2239C332.527 60.0653 332.345 59.6265 332.504 59.2439C332.662 58.8617 332.75 58.4421 332.75 58V56.5C332.75 56.0858 333.086 55.75 333.5 55.75Z" fill="#252A2E"/><path d="M315.276 61.4092C315.435 61.0266 315.874 60.845 316.256 61.0037C316.638 61.1622 317.058 61.25 317.5 61.25H319C319.414 61.25 319.75 61.5858 319.75 62C319.75 62.4142 319.414 62.75 319 62.75H317.5C316.857 62.75 316.243 62.622 315.682 62.3893C315.299 62.2306 315.117 61.7918 315.276 61.4092Z" fill="#252A2E"/><path d="M331.724 61.4092C331.883 61.7918 331.701 62.2306 331.318 62.3893C330.757 62.622 330.143 62.75 329.5 62.75H328C327.586 62.75 327.25 62.4142 327.25 62C327.25 61.5858 327.586 61.25 328 61.25H329.5C329.942 61.25 330.362 61.1622 330.744 61.0037C331.126 60.845 331.565 61.0266 331.724 61.4092Z" fill="#252A2E"/><path d="M321.25 62C321.25 61.5858 321.586 61.25 322 61.25H325C325.414 61.25 325.75 61.5858 325.75 62C325.75 62.4142 325.414 62.75 325 62.75H322C321.586 62.75 321.25 62.4142 321.25 62Z" fill="#252A2E"/><path d="M332.03 44.591C332.323 44.2981 332.323 43.8232 332.03 43.5303C331.737 43.2374 331.263 43.2374 330.97 43.5303L329.973 44.5265C329.681 44.8194 329.681 45.2943 329.973 45.5872C330.266 45.8801 330.741 45.8801 331.034 45.5872L332.03 44.591Z" fill="#252A2E"/><path d="M329.042 47.5796C329.335 47.2867 329.335 46.8118 329.042 46.519C328.749 46.2261 328.274 46.2261 327.981 46.519L325.989 48.5114C325.696 48.8043 325.696 49.2791 325.989 49.572C326.282 49.8649 326.756 49.8649 327.049 49.572L329.042 47.5796Z" fill="#252A2E"/><path d="M325.057 51.5645C325.35 51.2716 325.35 50.7967 325.057 50.5038C324.764 50.2109 324.289 50.2109 323.996 50.5038L323.5 51L323.004 50.5038C322.711 50.2109 322.236 50.2109 321.943 50.5038C321.65 50.7967 321.65 51.2716 321.943 51.5645L322.439 52.0607L322.004 52.4962C321.711 52.7891 321.711 53.264 322.004 53.5569C322.297 53.8498 322.772 53.8498 323.064 53.5569L323.5 53.1213L323.936 53.5569C324.228 53.8498 324.703 53.8498 324.996 53.5569C325.289 53.264 325.289 52.7891 324.996 52.4962L324.561 52.0607L325.057 51.5645Z" fill="#252A2E"/><path d="M321.072 55.5493C321.365 55.2564 321.365 54.7815 321.072 54.4886C320.779 54.1957 320.304 54.1957 320.011 54.4886L318.019 56.481C317.726 56.7739 317.726 57.2488 318.019 57.5417C318.312 57.8346 318.787 57.8346 319.08 57.5417L321.072 55.5493Z" fill="#252A2E"/><path d="M317.087 59.5341C317.38 59.2412 317.38 58.7664 317.087 58.4735C316.794 58.1806 316.319 58.1806 316.027 58.4735L315.03 59.4697C314.737 59.7626 314.737 60.2374 315.03 60.5303C315.323 60.8232 315.798 60.8232 316.091 60.5303L317.087 59.5341Z" fill="#252A2E"/><path d="M330.909 60.5303C331.202 60.8232 331.677 60.8232 331.97 60.5303C332.263 60.2374 332.263 59.7626 331.97 59.4697L330.973 58.4735C330.681 58.1806 330.206 58.1806 329.913 58.4735C329.62 58.7664 329.62 59.2412 329.913 59.5341L330.909 60.5303Z" fill="#252A2E"/><path d="M327.92 57.5417C328.213 57.8346 328.688 57.8346 328.981 57.5417C329.274 57.2488 329.274 56.7739 328.981 56.481L326.989 54.4886C326.696 54.1957 326.221 54.1957 325.928 54.4886C325.635 54.7815 325.635 55.2564 325.928 55.5493L327.92 57.5417Z" fill="#252A2E"/><path d="M319.951 49.572C320.244 49.8649 320.718 49.8649 321.011 49.572C321.304 49.2791 321.304 48.8043 321.011 48.5114L319.019 46.519C318.726 46.2261 318.251 46.2261 317.958 46.519C317.665 46.8118 317.665 47.2867 317.958 47.5796L319.951 49.572Z" fill="#252A2E"/><path d="M315.966 45.5872C316.259 45.8801 316.734 45.8801 317.027 45.5872C317.319 45.2943 317.319 44.8194 317.027 44.5265L316.03 43.5303C315.737 43.2374 315.263 43.2374 314.97 43.5303C314.677 43.8232 314.677 44.2981 314.97 44.591L315.966 45.5872Z" fill="#252A2E"/><path d="M320.556 46.889C320.854 46.7988 321.171 46.75 321.5 46.75H322.25C322.664 46.75 323 46.4142 323 46C323 45.5858 322.664 45.25 322.25 45.25H321.5C321.022 45.25 320.558 45.321 320.121 45.4535C319.725 45.5736 319.501 45.9923 319.621 46.3887C319.741 46.7851 320.16 47.0091 320.556 46.889Z" fill="#252A2E"/><path d="M324.75 45.25C324.336 45.25 324 45.5858 324 46C324 46.4142 324.336 46.75 324.75 46.75H325.5C325.829 46.75 326.146 46.7988 326.444 46.889C326.84 47.0091 327.259 46.7851 327.379 46.3887C327.499 45.9923 327.275 45.5736 326.879 45.4535C326.442 45.321 325.978 45.25 325.5 45.25H324.75Z" fill="#252A2E"/><path d="M318.389 49.0559C318.509 48.6595 318.285 48.2408 317.889 48.1207C317.492 48.0006 317.074 48.2246 316.953 48.621C316.821 49.0583 316.75 49.5216 316.75 50V50.75C316.75 51.1642 317.086 51.5 317.5 51.5C317.914 51.5 318.25 51.1642 318.25 50.75V50C318.25 49.6705 318.299 49.3538 318.389 49.0559Z" fill="#252A2E"/><path d="M330.047 48.621C329.926 48.2246 329.508 48.0006 329.111 48.1207C328.715 48.2408 328.491 48.6595 328.611 49.0559C328.701 49.3538 328.75 49.6705 328.75 50V50.75C328.75 51.1642 329.086 51.5 329.5 51.5C329.914 51.5 330.25 51.1642 330.25 50.75V50C330.25 49.5216 330.179 49.0583 330.047 48.621Z" fill="#252A2E"/><path d="M318.25 53.25C318.25 52.8358 317.914 52.5 317.5 52.5C317.086 52.5 316.75 52.8358 316.75 53.25V54C316.75 54.4784 316.821 54.9417 316.953 55.379C317.074 55.7754 317.492 55.9994 317.889 55.8793C318.285 55.7592 318.509 55.3405 318.389 54.9441C318.299 54.6462 318.25 54.3295 318.25 54V53.25Z" fill="#252A2E"/><path d="M330.25 53.25C330.25 52.8358 329.914 52.5 329.5 52.5C329.086 52.5 328.75 52.8358 328.75 53.25V54C328.75 54.3295 328.701 54.6462 328.611 54.9441C328.491 55.3405 328.715 55.7592 329.111 55.8793C329.508 55.9994 329.926 55.7754 330.047 55.379C330.179 54.9417 330.25 54.4784 330.25 54V53.25Z" fill="#252A2E"/><path d="M320.556 57.111C320.16 56.9909 319.741 57.2149 319.621 57.6113C319.501 58.0077 319.725 58.4264 320.121 58.5465C320.558 58.679 321.022 58.75 321.5 58.75H322.25C322.664 58.75 323 58.4142 323 58C323 57.5858 322.664 57.25 322.25 57.25H321.5C321.171 57.25 320.854 57.2012 320.556 57.111Z" fill="#252A2E"/><path d="M326.879 58.5465C327.275 58.4264 327.499 58.0077 327.379 57.6113C327.259 57.2149 326.84 56.9909 326.444 57.111C326.146 57.2012 325.829 57.25 325.5 57.25H324.75C324.336 57.25 324 57.5858 324 58C324 58.4142 324.336 58.75 324.75 58.75H325.5C325.978 58.75 326.442 58.679 326.879 58.5465Z" fill="#252A2E"/><path d="M135.07 127H133.734V116.75H130.141V115.578H138.648V116.75H135.07V127ZM147.298 126.984L145.775 122C145.707 121.786 145.642 121.578 145.58 121.375C145.522 121.167 145.468 120.969 145.416 120.781C145.369 120.589 145.324 120.411 145.283 120.25C145.246 120.083 145.215 119.94 145.189 119.82H145.134C145.114 119.94 145.085 120.083 145.048 120.25C145.012 120.411 144.968 120.589 144.916 120.781C144.869 120.974 144.817 121.177 144.759 121.391C144.702 121.599 144.637 121.81 144.564 122.023L142.97 126.984H141.509L139.15 118.422H140.494L141.728 123.148C141.811 123.461 141.89 123.771 141.962 124.078C142.041 124.38 142.106 124.667 142.158 124.938C142.215 125.203 142.257 125.435 142.283 125.633H142.345C142.377 125.503 142.41 125.346 142.447 125.164C142.489 124.982 142.533 124.789 142.58 124.586C142.632 124.378 142.686 124.172 142.744 123.969C142.801 123.76 142.858 123.565 142.916 123.383L144.494 118.422H145.892L147.416 123.375C147.494 123.625 147.569 123.885 147.642 124.156C147.72 124.427 147.791 124.69 147.853 124.945C147.916 125.195 147.96 125.419 147.986 125.617H148.048C148.069 125.44 148.108 125.221 148.166 124.961C148.223 124.701 148.288 124.414 148.361 124.102C148.439 123.789 148.52 123.471 148.603 123.148L149.853 118.422H151.173L148.806 126.984H147.298ZM160.269 122.703C160.269 123.406 160.178 124.034 159.995 124.586C159.813 125.138 159.55 125.604 159.206 125.984C158.862 126.365 158.446 126.656 157.956 126.859C157.472 127.057 156.922 127.156 156.308 127.156C155.735 127.156 155.209 127.057 154.73 126.859C154.256 126.656 153.844 126.365 153.495 125.984C153.152 125.604 152.883 125.138 152.691 124.586C152.503 124.034 152.409 123.406 152.409 122.703C152.409 121.766 152.568 120.969 152.886 120.312C153.204 119.651 153.657 119.148 154.245 118.805C154.839 118.456 155.545 118.281 156.362 118.281C157.144 118.281 157.826 118.456 158.409 118.805C158.998 119.154 159.454 119.659 159.777 120.32C160.105 120.977 160.269 121.771 160.269 122.703ZM153.753 122.703C153.753 123.391 153.844 123.987 154.027 124.492C154.209 124.997 154.49 125.388 154.87 125.664C155.251 125.94 155.74 126.078 156.339 126.078C156.933 126.078 157.42 125.94 157.8 125.664C158.185 125.388 158.469 124.997 158.652 124.492C158.834 123.987 158.925 123.391 158.925 122.703C158.925 122.021 158.834 121.432 158.652 120.938C158.469 120.438 158.188 120.052 157.808 119.781C157.428 119.51 156.935 119.375 156.331 119.375C155.441 119.375 154.787 119.669 154.37 120.258C153.959 120.846 153.753 121.661 153.753 122.703ZM170.397 127.156C169.626 127.156 168.946 126.997 168.358 126.68C167.769 126.362 167.311 125.878 166.983 125.227C166.655 124.576 166.491 123.755 166.491 122.766C166.491 121.729 166.662 120.883 167.006 120.227C167.355 119.565 167.834 119.076 168.444 118.758C169.053 118.44 169.746 118.281 170.522 118.281C170.949 118.281 171.36 118.326 171.756 118.414C172.157 118.497 172.485 118.604 172.741 118.734L172.35 119.82C172.09 119.716 171.787 119.622 171.444 119.539C171.105 119.456 170.787 119.414 170.491 119.414C169.897 119.414 169.402 119.542 169.006 119.797C168.616 120.052 168.321 120.427 168.123 120.922C167.931 121.417 167.834 122.026 167.834 122.75C167.834 123.443 167.928 124.034 168.116 124.523C168.308 125.013 168.592 125.388 168.967 125.648C169.347 125.904 169.821 126.031 170.389 126.031C170.842 126.031 171.251 125.984 171.616 125.891C171.98 125.792 172.311 125.677 172.608 125.547V126.703C172.321 126.849 172.001 126.961 171.647 127.039C171.298 127.117 170.881 127.156 170.397 127.156ZM182.172 122.703C182.172 123.406 182.081 124.034 181.898 124.586C181.716 125.138 181.453 125.604 181.109 125.984C180.766 126.365 180.349 126.656 179.859 126.859C179.375 127.057 178.826 127.156 178.211 127.156C177.638 127.156 177.112 127.057 176.633 126.859C176.159 126.656 175.747 126.365 175.398 125.984C175.055 125.604 174.786 125.138 174.594 124.586C174.406 124.034 174.312 123.406 174.312 122.703C174.312 121.766 174.471 120.969 174.789 120.312C175.107 119.651 175.56 119.148 176.148 118.805C176.742 118.456 177.448 118.281 178.266 118.281C179.047 118.281 179.729 118.456 180.312 118.805C180.901 119.154 181.357 119.659 181.68 120.32C182.008 120.977 182.172 121.771 182.172 122.703ZM175.656 122.703C175.656 123.391 175.747 123.987 175.93 124.492C176.112 124.997 176.393 125.388 176.773 125.664C177.154 125.94 177.643 126.078 178.242 126.078C178.836 126.078 179.323 125.94 179.703 125.664C180.089 125.388 180.372 124.997 180.555 124.492C180.737 123.987 180.828 123.391 180.828 122.703C180.828 122.021 180.737 121.432 180.555 120.938C180.372 120.438 180.091 120.052 179.711 119.781C179.331 119.51 178.839 119.375 178.234 119.375C177.344 119.375 176.69 119.669 176.273 120.258C175.862 120.846 175.656 121.661 175.656 122.703ZM188.619 118.281C189.634 118.281 190.403 118.531 190.923 119.031C191.444 119.526 191.705 120.323 191.705 121.422V127H190.423V121.508C190.423 120.794 190.259 120.26 189.931 119.906C189.608 119.552 189.111 119.375 188.439 119.375C187.491 119.375 186.824 119.643 186.439 120.18C186.054 120.716 185.861 121.495 185.861 122.516V127H184.564V118.438H185.611L185.806 119.672H185.877C186.059 119.37 186.291 119.117 186.572 118.914C186.853 118.706 187.168 118.549 187.517 118.445C187.866 118.336 188.233 118.281 188.619 118.281ZM197.292 126.094C197.506 126.094 197.724 126.076 197.948 126.039C198.172 126.003 198.355 125.958 198.495 125.906V126.914C198.344 126.982 198.133 127.039 197.862 127.086C197.597 127.133 197.336 127.156 197.081 127.156C196.628 127.156 196.217 127.078 195.847 126.922C195.477 126.76 195.18 126.49 194.956 126.109C194.737 125.729 194.628 125.203 194.628 124.531V119.453H193.409V118.82L194.636 118.312L195.152 116.453H195.933V118.438H198.441V119.453H195.933V124.492C195.933 125.029 196.055 125.43 196.3 125.695C196.55 125.961 196.881 126.094 197.292 126.094ZM204.27 118.281C204.442 118.281 204.622 118.292 204.809 118.312C204.997 118.328 205.164 118.352 205.309 118.383L205.145 119.586C205.005 119.549 204.848 119.521 204.677 119.5C204.505 119.479 204.343 119.469 204.192 119.469C203.848 119.469 203.523 119.539 203.216 119.68C202.914 119.815 202.648 120.013 202.419 120.273C202.19 120.529 202.01 120.839 201.88 121.203C201.749 121.562 201.684 121.964 201.684 122.406V127H200.38V118.438H201.458L201.598 120.016H201.653C201.83 119.698 202.044 119.409 202.294 119.148C202.544 118.883 202.833 118.672 203.161 118.516C203.494 118.359 203.864 118.281 204.27 118.281ZM214.459 122.703C214.459 123.406 214.368 124.034 214.186 124.586C214.004 125.138 213.741 125.604 213.397 125.984C213.053 126.365 212.636 126.656 212.147 126.859C211.662 127.057 211.113 127.156 210.498 127.156C209.926 127.156 209.399 127.057 208.92 126.859C208.446 126.656 208.035 126.365 207.686 125.984C207.342 125.604 207.074 125.138 206.881 124.586C206.694 124.034 206.6 123.406 206.6 122.703C206.6 121.766 206.759 120.969 207.077 120.312C207.394 119.651 207.847 119.148 208.436 118.805C209.03 118.456 209.735 118.281 210.553 118.281C211.334 118.281 212.017 118.456 212.6 118.805C213.189 119.154 213.644 119.659 213.967 120.32C214.295 120.977 214.459 121.771 214.459 122.703ZM207.944 122.703C207.944 123.391 208.035 123.987 208.217 124.492C208.399 124.997 208.681 125.388 209.061 125.664C209.441 125.94 209.931 126.078 210.53 126.078C211.123 126.078 211.61 125.94 211.991 125.664C212.376 125.388 212.66 124.997 212.842 124.492C213.024 123.987 213.116 123.391 213.116 122.703C213.116 122.021 213.024 121.432 212.842 120.938C212.66 120.438 212.379 120.052 211.998 119.781C211.618 119.51 211.126 119.375 210.522 119.375C209.631 119.375 208.978 119.669 208.561 120.258C208.149 120.846 207.944 121.661 207.944 122.703ZM218.156 127H216.852V114.844H218.156V127ZM226.588 124.656C226.588 125.203 226.449 125.664 226.173 126.039C225.903 126.409 225.512 126.688 225.002 126.875C224.496 127.062 223.892 127.156 223.189 127.156C222.59 127.156 222.072 127.109 221.634 127.016C221.197 126.922 220.814 126.789 220.486 126.617V125.422C220.835 125.594 221.252 125.75 221.736 125.891C222.22 126.031 222.715 126.102 223.22 126.102C223.96 126.102 224.496 125.982 224.83 125.742C225.163 125.503 225.33 125.177 225.33 124.766C225.33 124.531 225.262 124.326 225.127 124.148C224.996 123.966 224.775 123.792 224.463 123.625C224.15 123.453 223.718 123.266 223.166 123.062C222.619 122.854 222.145 122.648 221.744 122.445C221.348 122.237 221.041 121.984 220.822 121.688C220.608 121.391 220.502 121.005 220.502 120.531C220.502 119.807 220.793 119.253 221.377 118.867C221.965 118.477 222.736 118.281 223.689 118.281C224.205 118.281 224.686 118.333 225.134 118.438C225.588 118.536 226.009 118.672 226.4 118.844L225.963 119.883C225.608 119.732 225.231 119.604 224.83 119.5C224.429 119.396 224.02 119.344 223.603 119.344C223.004 119.344 222.543 119.443 222.22 119.641C221.903 119.839 221.744 120.109 221.744 120.453C221.744 120.719 221.817 120.938 221.963 121.109C222.114 121.281 222.353 121.443 222.681 121.594C223.009 121.745 223.442 121.922 223.978 122.125C224.515 122.323 224.978 122.529 225.369 122.742C225.759 122.951 226.059 123.206 226.267 123.508C226.481 123.805 226.588 124.188 226.588 124.656ZM237.458 115.578L233.208 127H231.927L236.184 115.578H237.458ZM243.656 127V115.578H244.984V127H243.656ZM251.509 127.156C250.739 127.156 250.059 126.997 249.47 126.68C248.882 126.362 248.423 125.878 248.095 125.227C247.767 124.576 247.603 123.755 247.603 122.766C247.603 121.729 247.775 120.883 248.119 120.227C248.468 119.565 248.947 119.076 249.556 118.758C250.166 118.44 250.858 118.281 251.634 118.281C252.061 118.281 252.473 118.326 252.869 118.414C253.27 118.497 253.598 118.604 253.853 118.734L253.463 119.82C253.202 119.716 252.9 119.622 252.556 119.539C252.218 119.456 251.9 119.414 251.603 119.414C251.009 119.414 250.515 119.542 250.119 119.797C249.728 120.052 249.434 120.427 249.236 120.922C249.043 121.417 248.947 122.026 248.947 122.75C248.947 123.443 249.041 124.034 249.228 124.523C249.421 125.013 249.705 125.388 250.08 125.648C250.46 125.904 250.934 126.031 251.502 126.031C251.955 126.031 252.364 125.984 252.728 125.891C253.093 125.792 253.423 125.677 253.72 125.547V126.703C253.434 126.849 253.114 126.961 252.759 127.039C252.41 127.117 251.994 127.156 251.509 127.156ZM263.284 122.703C263.284 123.406 263.193 124.034 263.011 124.586C262.829 125.138 262.566 125.604 262.222 125.984C261.878 126.365 261.461 126.656 260.972 126.859C260.488 127.057 259.938 127.156 259.323 127.156C258.751 127.156 258.224 127.057 257.745 126.859C257.271 126.656 256.86 126.365 256.511 125.984C256.167 125.604 255.899 125.138 255.706 124.586C255.519 124.034 255.425 123.406 255.425 122.703C255.425 121.766 255.584 120.969 255.902 120.312C256.219 119.651 256.672 119.148 257.261 118.805C257.855 118.456 258.56 118.281 259.378 118.281C260.159 118.281 260.842 118.456 261.425 118.805C262.014 119.154 262.469 119.659 262.792 120.32C263.12 120.977 263.284 121.771 263.284 122.703ZM256.769 122.703C256.769 123.391 256.86 123.987 257.042 124.492C257.224 124.997 257.506 125.388 257.886 125.664C258.266 125.94 258.756 126.078 259.355 126.078C259.948 126.078 260.435 125.94 260.816 125.664C261.201 125.388 261.485 124.997 261.667 124.492C261.849 123.987 261.941 123.391 261.941 122.703C261.941 122.021 261.849 121.432 261.667 120.938C261.485 120.438 261.204 120.052 260.823 119.781C260.443 119.51 259.951 119.375 259.347 119.375C258.456 119.375 257.803 119.669 257.386 120.258C256.974 120.846 256.769 121.661 256.769 122.703ZM269.731 118.281C270.747 118.281 271.515 118.531 272.036 119.031C272.557 119.526 272.817 120.323 272.817 121.422V127H271.536V121.508C271.536 120.794 271.372 120.26 271.044 119.906C270.721 119.552 270.223 119.375 269.552 119.375C268.604 119.375 267.937 119.643 267.552 120.18C267.166 120.716 266.973 121.495 266.973 122.516V127H265.677V118.438H266.723L266.919 119.672H266.989C267.171 119.37 267.403 119.117 267.684 118.914C267.966 118.706 268.281 118.549 268.63 118.445C268.979 118.336 269.346 118.281 269.731 118.281ZM283.672 120.828H286.891V121.891H283.672V125.203H282.602V121.891H279.383V120.828H282.602V117.5H283.672V120.828ZM298.636 116.586C298.006 116.586 297.438 116.695 296.933 116.914C296.433 117.128 296.006 117.44 295.652 117.852C295.303 118.258 295.034 118.75 294.847 119.328C294.659 119.906 294.566 120.557 294.566 121.281C294.566 122.24 294.714 123.073 295.011 123.781C295.313 124.484 295.761 125.029 296.355 125.414C296.954 125.799 297.701 125.992 298.597 125.992C299.107 125.992 299.586 125.951 300.034 125.867C300.488 125.779 300.928 125.669 301.355 125.539V126.695C300.938 126.852 300.501 126.966 300.042 127.039C299.584 127.117 299.04 127.156 298.409 127.156C297.248 127.156 296.277 126.917 295.495 126.438C294.719 125.953 294.136 125.271 293.745 124.391C293.36 123.51 293.167 122.471 293.167 121.273C293.167 120.409 293.287 119.62 293.527 118.906C293.771 118.188 294.126 117.568 294.589 117.047C295.058 116.526 295.631 116.125 296.308 115.844C296.99 115.557 297.771 115.414 298.652 115.414C299.23 115.414 299.787 115.471 300.323 115.586C300.86 115.701 301.344 115.865 301.777 116.078L301.245 117.203C300.881 117.036 300.48 116.893 300.042 116.773C299.61 116.648 299.141 116.586 298.636 116.586ZM311.169 122.703C311.169 123.406 311.078 124.034 310.895 124.586C310.713 125.138 310.45 125.604 310.106 125.984C309.762 126.365 309.346 126.656 308.856 126.859C308.372 127.057 307.822 127.156 307.208 127.156C306.635 127.156 306.109 127.057 305.63 126.859C305.156 126.656 304.744 126.365 304.395 125.984C304.052 125.604 303.783 125.138 303.591 124.586C303.403 124.034 303.309 123.406 303.309 122.703C303.309 121.766 303.468 120.969 303.786 120.312C304.104 119.651 304.557 119.148 305.145 118.805C305.739 118.456 306.445 118.281 307.262 118.281C308.044 118.281 308.726 118.456 309.309 118.805C309.898 119.154 310.354 119.659 310.677 120.32C311.005 120.977 311.169 121.771 311.169 122.703ZM304.653 122.703C304.653 123.391 304.744 123.987 304.927 124.492C305.109 124.997 305.39 125.388 305.77 125.664C306.151 125.94 306.64 126.078 307.239 126.078C307.833 126.078 308.32 125.94 308.7 125.664C309.085 125.388 309.369 124.997 309.552 124.492C309.734 123.987 309.825 123.391 309.825 122.703C309.825 122.021 309.734 121.432 309.552 120.938C309.369 120.438 309.088 120.052 308.708 119.781C308.328 119.51 307.835 119.375 307.231 119.375C306.341 119.375 305.687 119.669 305.27 120.258C304.859 120.846 304.653 121.661 304.653 122.703ZM317.616 118.281C318.631 118.281 319.399 118.531 319.92 119.031C320.441 119.526 320.702 120.323 320.702 121.422V127H319.42V121.508C319.42 120.794 319.256 120.26 318.928 119.906C318.605 119.552 318.108 119.375 317.436 119.375C316.488 119.375 315.821 119.643 315.436 120.18C315.051 120.716 314.858 121.495 314.858 122.516V127H313.561V118.438H314.608L314.803 119.672H314.873C315.056 119.37 315.288 119.117 315.569 118.914C315.85 118.706 316.165 118.549 316.514 118.445C316.863 118.336 317.23 118.281 317.616 118.281ZM326.289 126.094C326.503 126.094 326.721 126.076 326.945 126.039C327.169 126.003 327.352 125.958 327.492 125.906V126.914C327.341 126.982 327.13 127.039 326.859 127.086C326.594 127.133 326.333 127.156 326.078 127.156C325.625 127.156 325.214 127.078 324.844 126.922C324.474 126.76 324.177 126.49 323.953 126.109C323.734 125.729 323.625 125.203 323.625 124.531V119.453H322.406V118.82L323.633 118.312L324.148 116.453H324.93V118.438H327.438V119.453H324.93V124.492C324.93 125.029 325.052 125.43 325.297 125.695C325.547 125.961 325.878 126.094 326.289 126.094ZM333.267 118.281C333.439 118.281 333.619 118.292 333.806 118.312C333.994 118.328 334.16 118.352 334.306 118.383L334.142 119.586C334.002 119.549 333.845 119.521 333.673 119.5C333.502 119.479 333.34 119.469 333.189 119.469C332.845 119.469 332.52 119.539 332.212 119.68C331.91 119.815 331.645 120.013 331.416 120.273C331.186 120.529 331.007 120.839 330.877 121.203C330.746 121.562 330.681 121.964 330.681 122.406V127H329.377V118.438H330.455L330.595 120.016H330.65C330.827 119.698 331.041 119.409 331.291 119.148C331.541 118.883 331.83 118.672 332.158 118.516C332.491 118.359 332.861 118.281 333.267 118.281ZM343.456 122.703C343.456 123.406 343.365 124.034 343.183 124.586C343.001 125.138 342.738 125.604 342.394 125.984C342.05 126.365 341.633 126.656 341.144 126.859C340.659 127.057 340.11 127.156 339.495 127.156C338.922 127.156 338.396 127.057 337.917 126.859C337.443 126.656 337.032 126.365 336.683 125.984C336.339 125.604 336.071 125.138 335.878 124.586C335.691 124.034 335.597 123.406 335.597 122.703C335.597 121.766 335.756 120.969 336.073 120.312C336.391 119.651 336.844 119.148 337.433 118.805C338.027 118.456 338.732 118.281 339.55 118.281C340.331 118.281 341.014 118.456 341.597 118.805C342.185 119.154 342.641 119.659 342.964 120.32C343.292 120.977 343.456 121.771 343.456 122.703ZM336.941 122.703C336.941 123.391 337.032 123.987 337.214 124.492C337.396 124.997 337.678 125.388 338.058 125.664C338.438 125.94 338.928 126.078 339.527 126.078C340.12 126.078 340.607 125.94 340.988 125.664C341.373 125.388 341.657 124.997 341.839 124.492C342.021 123.987 342.113 123.391 342.113 122.703C342.113 122.021 342.021 121.432 341.839 120.938C341.657 120.438 341.376 120.052 340.995 119.781C340.615 119.51 340.123 119.375 339.519 119.375C338.628 119.375 337.974 119.669 337.558 120.258C337.146 120.846 336.941 121.661 336.941 122.703ZM347.153 127H345.848V114.844H347.153V127Z" fill="#000"/><rect width="479" height="104" transform="translate(481)" fill="#F1F1F6"/><path d="M616.5 16H824.5V88H616.5V16Z" fill="#fff"/><rect x="632.5" y="24" width="176" height="56" rx="4" fill="#0063A3"/><path d="M704.239 51.9072C704.239 53.0329 704.03 53.974 703.61 54.7305C703.191 55.4824 702.583 56.0498 701.785 56.4326C700.988 56.8109 700.026 57 698.9 57H696.125V47.0059H699.201C700.236 47.0059 701.129 47.1927 701.881 47.5664C702.633 47.9355 703.214 48.4847 703.624 49.2139C704.034 49.9385 704.239 50.8363 704.239 51.9072ZM702.53 51.9551C702.53 51.1348 702.4 50.4603 702.141 49.9316C701.885 49.403 701.507 49.0111 701.006 48.7559C700.509 48.4961 699.896 48.3662 699.167 48.3662H697.766V55.626H698.928C700.135 55.626 701.038 55.3184 701.635 54.7031C702.232 54.0879 702.53 53.1719 702.53 51.9551ZM709.493 49.2891C710.168 49.2891 710.746 49.4281 711.229 49.7061C711.713 49.984 712.084 50.3783 712.344 50.8887C712.604 51.3991 712.733 52.0098 712.733 52.7207V53.582H707.682C707.7 54.3158 707.896 54.8809 708.27 55.2773C708.648 55.6738 709.176 55.8721 709.855 55.8721C710.339 55.8721 710.771 55.8265 711.154 55.7354C711.542 55.6396 711.94 55.5007 712.351 55.3184V56.624C711.972 56.8018 711.587 56.9316 711.195 57.0137C710.803 57.0957 710.334 57.1367 709.787 57.1367C709.044 57.1367 708.39 56.9932 707.825 56.7061C707.265 56.4144 706.825 55.9814 706.506 55.4072C706.191 54.833 706.034 54.1198 706.034 53.2676C706.034 52.4199 706.178 51.6999 706.465 51.1074C706.752 50.515 707.155 50.0638 707.675 49.7539C708.194 49.444 708.8 49.2891 709.493 49.2891ZM709.493 50.499C708.987 50.499 708.577 50.6631 708.263 50.9912C707.953 51.3193 707.771 51.8001 707.716 52.4336H711.161C711.157 52.0553 711.093 51.7204 710.97 51.4287C710.851 51.137 710.669 50.9092 710.423 50.7451C710.181 50.5811 709.871 50.499 709.493 50.499ZM718.575 50.6562H716.736V57H715.13V50.6562H713.893V49.8838L715.13 49.4121V48.8857C715.13 48.2432 715.23 47.7327 715.431 47.3545C715.636 46.9762 715.927 46.7051 716.306 46.541C716.688 46.3724 717.144 46.2881 717.673 46.2881C718.019 46.2881 718.336 46.3177 718.623 46.377C718.91 46.4316 719.152 46.4954 719.348 46.5684L718.931 47.7852C718.776 47.735 718.603 47.6895 718.411 47.6484C718.22 47.6029 718.015 47.5801 717.796 47.5801C717.431 47.5801 717.162 47.694 716.989 47.9219C716.821 48.1497 716.736 48.4824 716.736 48.9199V49.4326H718.575V50.6562ZM723.084 49.2891C724.041 49.2891 724.763 49.501 725.251 49.9248C725.743 50.3486 725.989 51.0094 725.989 51.9072V57H724.848L724.54 55.9268H724.485C724.271 56.2002 724.05 56.4258 723.822 56.6035C723.594 56.7812 723.33 56.9134 723.029 57C722.733 57.0911 722.371 57.1367 721.942 57.1367C721.491 57.1367 721.088 57.0547 720.732 56.8906C720.377 56.722 720.097 56.4668 719.892 56.125C719.687 55.7832 719.584 55.3503 719.584 54.8262C719.584 54.0469 719.873 53.4613 720.452 53.0693C721.035 52.6774 721.915 52.4609 723.091 52.4199L724.403 52.3721V51.9756C724.403 51.4515 724.28 51.0778 724.034 50.8545C723.793 50.6312 723.451 50.5195 723.009 50.5195C722.631 50.5195 722.264 50.5742 721.908 50.6836C721.553 50.793 721.206 50.9274 720.869 51.0869L720.35 49.9521C720.719 49.7562 721.138 49.5967 721.607 49.4736C722.081 49.3506 722.574 49.2891 723.084 49.2891ZM724.396 53.3838L723.419 53.418C722.617 53.4453 722.054 53.582 721.73 53.8281C721.407 54.0742 721.245 54.4115 721.245 54.8398C721.245 55.2135 721.357 55.487 721.58 55.6602C721.803 55.8288 722.097 55.9131 722.462 55.9131C723.018 55.9131 723.478 55.7559 723.843 55.4414C724.212 55.1224 724.396 54.6553 724.396 54.04V53.3838ZM735.085 49.4326V57H733.82L733.602 55.9814H733.513C733.353 56.2412 733.15 56.4577 732.904 56.6309C732.658 56.7995 732.385 56.9248 732.084 57.0068C731.783 57.0934 731.466 57.1367 731.134 57.1367C730.564 57.1367 730.076 57.041 729.671 56.8496C729.27 56.6536 728.962 56.3529 728.748 55.9473C728.534 55.5417 728.427 55.0176 728.427 54.375V49.4326H730.04V54.0742C730.04 54.6621 730.159 55.1019 730.396 55.3936C730.637 55.6852 731.011 55.8311 731.517 55.8311C732.004 55.8311 732.392 55.7308 732.679 55.5303C732.966 55.3298 733.169 55.0335 733.287 54.6416C733.41 54.2497 733.472 53.7689 733.472 53.1992V49.4326H735.085ZM739.252 57H737.639V46.3633H739.252V57ZM744.615 55.8379C744.825 55.8379 745.032 55.8197 745.237 55.7832C745.442 55.7422 745.629 55.6943 745.798 55.6396V56.8564C745.62 56.9339 745.39 57 745.107 57.0547C744.825 57.1094 744.531 57.1367 744.226 57.1367C743.797 57.1367 743.412 57.0661 743.07 56.9248C742.729 56.779 742.457 56.5306 742.257 56.1797C742.056 55.8288 741.956 55.3434 741.956 54.7236V50.6562H740.924V49.9385L742.031 49.3711L742.558 47.751H743.569V49.4326H745.736V50.6562H743.569V54.7031C743.569 55.0859 743.665 55.3708 743.856 55.5576C744.048 55.7445 744.301 55.8379 744.615 55.8379Z" fill="#fff"/><path d="M673.062 127V115.578H674.391V125.812H679.461V127H673.062ZM684.58 118.297C685.601 118.297 686.358 118.526 686.853 118.984C687.348 119.443 687.595 120.174 687.595 121.18V127H686.65L686.4 125.734H686.337C686.098 126.047 685.848 126.31 685.587 126.523C685.327 126.732 685.025 126.891 684.681 127C684.343 127.104 683.926 127.156 683.431 127.156C682.91 127.156 682.447 127.065 682.041 126.883C681.64 126.701 681.322 126.424 681.087 126.055C680.858 125.685 680.744 125.216 680.744 124.648C680.744 123.794 681.082 123.138 681.759 122.68C682.436 122.221 683.468 121.971 684.853 121.93L686.33 121.867V121.344C686.33 120.604 686.171 120.086 685.853 119.789C685.535 119.492 685.087 119.344 684.509 119.344C684.061 119.344 683.634 119.409 683.228 119.539C682.822 119.669 682.436 119.823 682.072 120L681.673 119.016C682.059 118.818 682.502 118.648 683.002 118.508C683.502 118.367 684.028 118.297 684.58 118.297ZM686.314 122.781L685.009 122.836C683.942 122.878 683.189 123.052 682.752 123.359C682.314 123.667 682.095 124.102 682.095 124.664C682.095 125.154 682.244 125.516 682.541 125.75C682.837 125.984 683.231 126.102 683.72 126.102C684.481 126.102 685.103 125.891 685.587 125.469C686.072 125.047 686.314 124.414 686.314 123.57V122.781ZM694.308 118.281C694.48 118.281 694.659 118.292 694.847 118.312C695.034 118.328 695.201 118.352 695.347 118.383L695.183 119.586C695.042 119.549 694.886 119.521 694.714 119.5C694.542 119.479 694.381 119.469 694.23 119.469C693.886 119.469 693.56 119.539 693.253 119.68C692.951 119.815 692.685 120.013 692.456 120.273C692.227 120.529 692.047 120.839 691.917 121.203C691.787 121.562 691.722 121.964 691.722 122.406V127H690.417V118.438H691.495L691.636 120.016H691.691C691.868 119.698 692.081 119.409 692.331 119.148C692.581 118.883 692.87 118.672 693.198 118.516C693.532 118.359 693.902 118.281 694.308 118.281ZM699.505 130.844C698.38 130.844 697.513 130.633 696.903 130.211C696.294 129.794 695.989 129.208 695.989 128.453C695.989 127.917 696.158 127.458 696.497 127.078C696.841 126.698 697.315 126.445 697.919 126.32C697.695 126.216 697.502 126.06 697.341 125.852C697.184 125.643 697.106 125.404 697.106 125.133C697.106 124.82 697.192 124.547 697.364 124.312C697.541 124.073 697.809 123.844 698.169 123.625C697.721 123.443 697.356 123.135 697.075 122.703C696.799 122.266 696.661 121.758 696.661 121.18C696.661 120.565 696.789 120.042 697.044 119.609C697.299 119.172 697.669 118.839 698.153 118.609C698.638 118.38 699.223 118.266 699.911 118.266C700.062 118.266 700.213 118.273 700.364 118.289C700.52 118.299 700.669 118.318 700.809 118.344C700.95 118.365 701.072 118.391 701.177 118.422H704.114V119.258L702.536 119.453C702.692 119.656 702.822 119.901 702.927 120.188C703.031 120.474 703.083 120.792 703.083 121.141C703.083 121.995 702.794 122.674 702.216 123.18C701.638 123.68 700.843 123.93 699.833 123.93C699.593 123.93 699.348 123.909 699.098 123.867C698.843 124.008 698.648 124.164 698.513 124.336C698.382 124.508 698.317 124.706 698.317 124.93C698.317 125.096 698.367 125.229 698.466 125.328C698.57 125.427 698.718 125.5 698.911 125.547C699.104 125.589 699.335 125.609 699.606 125.609H701.114C702.046 125.609 702.76 125.805 703.255 126.195C703.755 126.586 704.005 127.156 704.005 127.906C704.005 128.854 703.619 129.581 702.848 130.086C702.078 130.591 700.963 130.844 699.505 130.844ZM699.544 129.828C700.252 129.828 700.838 129.755 701.302 129.609C701.77 129.469 702.119 129.263 702.348 128.992C702.583 128.727 702.7 128.409 702.7 128.039C702.7 127.695 702.622 127.435 702.466 127.258C702.309 127.086 702.08 126.971 701.778 126.914C701.476 126.852 701.106 126.82 700.669 126.82H699.184C698.799 126.82 698.463 126.88 698.177 127C697.89 127.12 697.669 127.297 697.513 127.531C697.361 127.766 697.286 128.057 697.286 128.406C697.286 128.87 697.481 129.221 697.872 129.461C698.263 129.706 698.82 129.828 699.544 129.828ZM699.88 122.984C700.499 122.984 700.966 122.828 701.278 122.516C701.591 122.203 701.747 121.747 701.747 121.148C701.747 120.508 701.588 120.029 701.27 119.711C700.953 119.388 700.484 119.227 699.864 119.227C699.27 119.227 698.812 119.393 698.489 119.727C698.171 120.055 698.013 120.536 698.013 121.172C698.013 121.755 698.174 122.203 698.497 122.516C698.82 122.828 699.281 122.984 699.88 122.984ZM709.248 118.281C709.978 118.281 710.603 118.443 711.123 118.766C711.644 119.089 712.043 119.542 712.319 120.125C712.595 120.703 712.733 121.38 712.733 122.156V122.961H706.819C706.834 123.966 707.084 124.732 707.569 125.258C708.053 125.784 708.735 126.047 709.616 126.047C710.157 126.047 710.636 125.997 711.053 125.898C711.47 125.799 711.902 125.654 712.35 125.461V126.602C711.918 126.794 711.488 126.935 711.061 127.023C710.639 127.112 710.139 127.156 709.561 127.156C708.738 127.156 708.019 126.99 707.405 126.656C706.795 126.318 706.321 125.823 705.983 125.172C705.644 124.521 705.475 123.724 705.475 122.781C705.475 121.859 705.629 121.062 705.936 120.391C706.248 119.714 706.686 119.193 707.248 118.828C707.816 118.464 708.483 118.281 709.248 118.281ZM709.233 119.344C708.54 119.344 707.988 119.57 707.577 120.023C707.165 120.477 706.92 121.109 706.842 121.922H711.373C711.368 121.411 711.287 120.964 711.131 120.578C710.98 120.188 710.748 119.885 710.436 119.672C710.123 119.453 709.722 119.344 709.233 119.344ZM720.689 114.844V117.883C720.689 118.232 720.679 118.57 720.658 118.898C720.642 119.227 720.629 119.482 720.619 119.664H720.689C720.923 119.279 721.262 118.953 721.705 118.688C722.147 118.422 722.713 118.289 723.4 118.289C724.473 118.289 725.327 118.661 725.963 119.406C726.603 120.146 726.923 121.247 726.923 122.711C726.923 123.674 726.778 124.487 726.486 125.148C726.194 125.81 725.783 126.31 725.252 126.648C724.72 126.987 724.093 127.156 723.369 127.156C722.692 127.156 722.134 127.031 721.697 126.781C721.265 126.526 720.931 126.216 720.697 125.852H720.595L720.33 127H719.392V114.844H720.689ZM723.189 119.375C722.569 119.375 722.077 119.497 721.713 119.742C721.348 119.982 721.085 120.346 720.923 120.836C720.767 121.32 720.689 121.935 720.689 122.68V122.75C720.689 123.828 720.869 124.654 721.228 125.227C721.588 125.794 722.241 126.078 723.189 126.078C723.986 126.078 724.582 125.786 724.978 125.203C725.379 124.62 725.58 123.786 725.58 122.703C725.58 121.599 725.382 120.768 724.986 120.211C724.595 119.654 723.996 119.375 723.189 119.375ZM736.409 118.438V127H735.347L735.159 125.797H735.089C734.912 126.094 734.683 126.344 734.402 126.547C734.12 126.75 733.803 126.901 733.448 127C733.099 127.104 732.727 127.156 732.331 127.156C731.654 127.156 731.086 127.047 730.628 126.828C730.17 126.609 729.823 126.271 729.589 125.812C729.36 125.354 729.245 124.766 729.245 124.047V118.438H730.558V123.953C730.558 124.667 730.719 125.201 731.042 125.555C731.365 125.904 731.857 126.078 732.519 126.078C733.154 126.078 733.659 125.958 734.034 125.719C734.415 125.479 734.688 125.128 734.855 124.664C735.021 124.195 735.105 123.622 735.105 122.945V118.438H736.409ZM742.067 126.094C742.281 126.094 742.499 126.076 742.723 126.039C742.947 126.003 743.13 125.958 743.27 125.906V126.914C743.119 126.982 742.908 127.039 742.637 127.086C742.372 127.133 742.111 127.156 741.856 127.156C741.403 127.156 740.992 127.078 740.622 126.922C740.252 126.76 739.955 126.49 739.731 126.109C739.512 125.729 739.403 125.203 739.403 124.531V119.453H738.184V118.82L739.411 118.312L739.927 116.453H740.708V118.438H743.216V119.453H740.708V124.492C740.708 125.029 740.83 125.43 741.075 125.695C741.325 125.961 741.656 126.094 742.067 126.094ZM747.92 126.094C748.134 126.094 748.353 126.076 748.577 126.039C748.801 126.003 748.983 125.958 749.123 125.906V126.914C748.972 126.982 748.761 127.039 748.491 127.086C748.225 127.133 747.965 127.156 747.709 127.156C747.256 127.156 746.845 127.078 746.475 126.922C746.105 126.76 745.808 126.49 745.584 126.109C745.366 125.729 745.256 125.203 745.256 124.531V119.453H744.037V118.82L745.264 118.312L745.78 116.453H746.561V118.438H749.069V119.453H746.561V124.492C746.561 125.029 746.683 125.43 746.928 125.695C747.178 125.961 747.509 126.094 747.92 126.094ZM758.391 122.703C758.391 123.406 758.299 124.034 758.117 124.586C757.935 125.138 757.672 125.604 757.328 125.984C756.984 126.365 756.568 126.656 756.078 126.859C755.594 127.057 755.044 127.156 754.43 127.156C753.857 127.156 753.331 127.057 752.852 126.859C752.378 126.656 751.966 126.365 751.617 125.984C751.273 125.604 751.005 125.138 750.812 124.586C750.625 124.034 750.531 123.406 750.531 122.703C750.531 121.766 750.69 120.969 751.008 120.312C751.326 119.651 751.779 119.148 752.367 118.805C752.961 118.456 753.667 118.281 754.484 118.281C755.266 118.281 755.948 118.456 756.531 118.805C757.12 119.154 757.576 119.659 757.898 120.32C758.227 120.977 758.391 121.771 758.391 122.703ZM751.875 122.703C751.875 123.391 751.966 123.987 752.148 124.492C752.331 124.997 752.612 125.388 752.992 125.664C753.372 125.94 753.862 126.078 754.461 126.078C755.055 126.078 755.542 125.94 755.922 125.664C756.307 125.388 756.591 124.997 756.773 124.492C756.956 123.987 757.047 123.391 757.047 122.703C757.047 122.021 756.956 121.432 756.773 120.938C756.591 120.438 756.31 120.052 755.93 119.781C755.549 119.51 755.057 119.375 754.453 119.375C753.562 119.375 752.909 119.669 752.492 120.258C752.081 120.846 751.875 121.661 751.875 122.703ZM764.838 118.281C765.853 118.281 766.621 118.531 767.142 119.031C767.663 119.526 767.923 120.323 767.923 121.422V127H766.642V121.508C766.642 120.794 766.478 120.26 766.15 119.906C765.827 119.552 765.33 119.375 764.658 119.375C763.71 119.375 763.043 119.643 762.658 120.18C762.272 120.716 762.08 121.495 762.08 122.516V127H760.783V118.438H761.83L762.025 119.672H762.095C762.278 119.37 762.509 119.117 762.791 118.914C763.072 118.706 763.387 118.549 763.736 118.445C764.085 118.336 764.452 118.281 764.838 118.281Z" fill="#000"/></g><defs><clipPath id="clip0_292_59429"><rect width="960" height="137" fill="#fff"/></clipPath></defs></svg>