<svg version="1.1" id="prefix__Layer_1" xmlns="http://www.w3.org/2000/svg" x="0" y="0" viewBox="0 0 961 259.7" xml:space="preserve" enable-background="new 0 0 961 259.7"><style>.prefix__st2{fill:#ffbe00;fill-opacity:.29}.prefix__st3{fill:#72a544;fill-opacity:.5}.prefix__st6{fill:#6a6976}.prefix__st6,.prefix__st8{fill-rule:evenodd;clip-rule:evenodd}.prefix__st10{fill:#fff}.prefix__st11{fill:#0063a3}</style><path fill="#252a2e" d="M0-.3h961v260H0z"/><path fill="#363545" d="M300.2-319.4h360v640h-360z"/><path class="prefix__st2" d="M442.9 285.6l2.3 14.5c1.4 8.8-6.9 15.9-15.3 13.4l-28.9-8.8c-1.5-.4-3-.6-4.6-.5l-29.8 2.7c-4.2.4-8.4-1.5-10.8-5l-16.2-22.7c-2.9-4-3-9.4-.3-13.5l8.6-13.2c.6-.9 1.1-1.9 1.4-3l4.7-15.1c2.7-8.6-4.7-16.9-13.6-15.4l-25.5 4.5c-7.4 1.3-14.1-4.3-14.1-11.8V104.8c0-5.2 3.4-9.9 8.4-11.4l75.9-24c7.2-2.3 14.6 2.5 15.5 10l2.2 17.5c.6 5.1-2.4 9.9-7.2 11.6-1.2.4-2.4.6-3.6.6h-24c-4.5 0-8.1 3.6-8.1 8.1 0 .6.1 1.1.2 1.7l3.3 15.7 1.8 8.5c1 4.8 4.9 8.5 9.8 9.3l10.5 1.7c4.9.8 8.5 5 8.5 10 0 2.8 1.2 5.5 3.2 7.4l9 8.4c.8.8 1.5 1.6 2.1 2.6l6.5 10.7c.7 1.2 1.3 2.6 1.5 3.9l2.6 13.4 12.5 40.5 11.2 32.5c0 .7.2 1.4.3 2.1zM332.7-182.4l46 58.5 22-6v12h14l-2.5-14.5 7-4.5-4.5-3.5-2.5-8 2.5-3-5-21-24 3-3.5-17.5 15-5.5-3-12 48.5-69 10.5-4.5 22 95.5-32.5 13 5.5 18 16.5-5.5 4.7 17 2.8 10h10.5v-2.5l7-4.5-3.5-11.5 9-3v-12.5l25-5.5 3.5 32.5-3.5 4.5 6.5 22-31.5 9v-5l-12.5 5-3.5-16-3 1 3 13-23.5 6-11.5-35 25.2-7.5-4.7-17-16.5 5.5-5.5-18 15-7-1-2-25 4 11 34.5-9 29.5 6.5 35-3 2-3.5-6-11.5 4-3-14.5-7 4 2.5 10.5-20.5 6 6.5 26.5 3 11-43.5 8-5.5-10.5 3-2.5-5.5-8.5-51 13.5v-16l45.5-7v-14.5l-3-4-2.5-4 26-8.5 4 10.5 4.5-2 3 4h7l-7-20.5-24 4-35.5-47 10.5-11.5-14.5-15.5v-12.5l-8-6-6-10v-12h10.5v17.5h10.5l-3-10 13.5 14.5z"/><path class="prefix__st3" d="M534.2 181.1l-30-3 1.5-30.5 31 2-2.5 31.5zM481.2 149.6l-1 22.5h16v-22.5h-15zM496.2 206.1l1.5-14.5h28.5v16l-30-1.5zM512.2 119.6v16.5l27.5 1.5v-16l-27.5-2zM545.2 151.6v28l34.5 2v-30h-34.5z"/><defs><filter id="prefix__Adobe_OpacityMaskFilter" filterUnits="userSpaceOnUse" x="295.3" y="-339.4" width="370.5" height="662.9"><feColorMatrix values="1 0 0 0 0 0 1 0 0 0 0 0 1 0 0 0 0 0 1 0"/></filter></defs><mask maskUnits="userSpaceOnUse" x="295.3" y="-339.4" width="370.5" height="662.9" id="prefix__mask0_431_73371_00000008135715740688157480000001597905905165817763_"><path fill="#c4c4c4" filter="url(#prefix__Adobe_OpacityMaskFilter)" d="M300.2-319.4h360v640h-360z"/></mask><g mask="url(#prefix__mask0_431_73371_00000008135715740688157480000001597905905165817763_)"><path class="prefix__st6" d="M473.3-142.2l-48-181.2-4.8 1.3 46.8 176.5-26.8 7.4 1.4 4.8 31.4-8.8zm120.4 6.8c-1.3.4-2 1.9-1.6 3.2l8 23.9c1.4 4.2 5.7 6.6 10 5.6l52.7-11.8-1.1-4.9-52.7 11.8c-1.8.4-3.5-.6-4.1-2.3l-8-23.9c-.4-1.4-1.9-2.1-3.2-1.6zM355.2 162.1l.5-26.1h36v19l5-.5v-19c0-2.5-2-4.5-4.5-4.5h-37c-2.5 0-4.5 2-4.5 4.5l-.5 26.6h5z"/><path class="prefix__st6" d="M460.3-40.5l-52.7-189-27.9-95.6-4.8 1.4 3.3 15-25.1 16.6c-3.2 2.1-4.6 6.1-3.4 9.7l17.2 52.8-70.2-48.2v6.5l72.9 49.8 8.2 25.3 3.8 14.5-21.4 16.1c-1.4 1-3.2.9-4.5-.2l-59-54.9v9.6l55.6 49c3 2.8 7.6 3 10.9.5l19.8-14.9 11 41.7 1.3 5.5L362-120c-1.3.4-2.1 1.7-1.7 3.1.4 1.3 1.7 2.1 3.1 1.7l2.1-.6 3 6.6c.6 1.3 2.1 1.8 3.3 1.2 1.3-.6 1.8-2.1 1.2-3.3l-2.7-5.9 36.3-10c1.8-.5 3.6.5 4.2 2.2l8.2 22.5c.5 1.3 1.9 2 3.2 1.5 1.3-.5 2-1.9 1.5-3.2l-8.2-22.5c-1.5-4.2-6-6.4-10.2-5.3l-5 1.4-1.4-5.4-10.9-44.1 6.6-5c.4-.3.9-.5 1.4-.6l15.4-3c9.5 36.3 20.4 77.7 30.5 116l-56.7 11.8c-1.4.3-2.2 1.6-1.9 3 .3 1.4 1.6 2.2 3 1.9l56.9-11.9c2.8 10.7 5.6 21.1 8.2 31l-105.5 19h-.5l-45.9-48.6-1 7.7L339-17.2l-39.5 3.8.5 5 43.5-4.2.4.4 3.6 30.4-48.8 10 1 4.9 50-10.3 5.2 21.5-59.1 20.5 1.7 4.7 125.6-44L463.6 9c2.2 8.4 4.3 15.9 6 22.3L387 64.2l-88.4 27.5 1.5 4.8L388.7 69l6.2-2.5v30.4l36.3-3.7.8 15.8 4.5 3.2c1.1.8 2.7.5 3.5-.6.8-1.1.5-2.7-.6-3.5l-2.5-1.8-.9-13.7.5-.1 34.1-4.2c.1 9 .1 16.8.1 21.7v.5l.2.5c1.7 4 1.7 11-.2 17.9-.9 3.4-2.2 6.5-3.8 9.1-1.5 2.5-3.3 4.2-5.1 5.2l-35.5 8.4-7.1-24.8c-.4-1.3-1.8-2.1-3.1-1.7s-2.1 1.8-1.7 3.1l6.9 24.3-39.9 4.5c-1.7.2-3.2 1.1-4.2 2.5l-.9 1.3-41.3 2.9.4 5 41.4-2.9c0 .5.5.9 1 .9l43.9-2.8V180c0 1.3-.7 2.4-1.8 3.1L400.4 194l-16.1-18-84.7 3.5.2 5 82.3-3.5 14.9 16.7-22.3 123.6h6.5L402 198.9l5.7-3.2c-.1 1-.2 2.1-.2 3.1 0 1.5.3 3.1 1.1 4.5.8 1.5 2.2 2.7 4.1 3.2 2.7.7 6.2.3 9.3-.2 3.2-.6 6.5-1.5 8.9-2.3 1.5-.5 3.2-1.5 4-3.5.9-2 1.4-5.1.1-8.2-.5-1.3-2.1-1.5-3.3-.8-1.1.8-1.3 2.4-1.1 3.7.2 1.3 0 2.4-.4 3.3-.1.2-.3.5-1 .7-2.3.7-5.3 1.6-8.3 2.1-3.1.5-5.7.7-7.2.3-.5-.1-.7-.3-.9-.7-.3-.5-.4-1.2-.5-2.2-.1-2.1.5-4.6 1.2-6.3l8.8-4.9c2.7-1.5 4.3-4.3 4.3-7.4v-16.6l27.5-1.7c1.6-.1 3.1-.6 4.3-1.5 1.5-1 3.3-2 4.7-2.7.5-.2.9-.4 1.2-.5.5.7 1 1.6 1.4 2.9.6 1.7 1.1 3.7 1.6 5.9.8 4.3 1.2 8.9 1.3 11.8v22c0 3 .4 5.6 1.1 7.8-1.8-1-3.7-2.2-5.8-3.4-5.4-3.3-11.4-7.1-15.8-10.1-1.1-.8-2.7-.5-3.5.7-.8 1.1-.5 2.7.7 3.5 4.5 3 10.5 6.9 16 10.2 3.2 1.9 6.2 3.7 8.7 5 1.2.6 2.3 1.2 3.3 1.6.3.1.7.3 1.1.4 1.9 1.8 4.1 3 5.9 3.5.7.2 1.2.4 1.6.6l7.5 4.1c.2.1.4.3.6.4l57.8 50.6c1.6 1.4 3.5 2.1 5.6 2.1h27.9l-6.2 45.7 5 .7 6.2-46.3h75.3v-5H587l7.6-56.4-3.5-98.6v-.1l25.2 9.4 44.3 12.1 1.3-4.8-43.9-12.2-26.5-9.9 4.2-70.5 64.9 1.3.1-5-64.7-1.3 1.7-28 21.4.8h46v-5h-46l-21.2-.8L600-33l3.9-13.5L660.7-34l1.1-4.9-56.2-12.4 8.2-28.2 48.6-12.1-1.3-4.8-58 14.5-34.1 9.4-3.8-10.6 5.6-4.4c1.1-.9 1.3-2.4.4-3.5s-2.4-1.3-3.5-.4l-8.4 6.6 4.9 13.6-41.6 11.4-11.8-43.9 26.8-7c1.8-.5 3.6.5 4.2 2.2l1.2 3.3 4.7-1.7-1.2-3.3c-1.5-4.2-5.9-6.5-10.2-5.4l-7.3 1.9c.3-1.2.3-2.5 0-3.8l-2.5-11.6 83.9-21.4c.4-.1.8-.1 1.1-.1l2.4.2c.7.7 1.8.9 2.8.5.2-.1.3-.2.4-.2l44.1 3.1.4-5-39.4-2.7 10.9-156 24.2 59.5c.5 1.3 2 1.9 3.3 1.4 1.3-.5 1.9-2 1.4-3.3l-28-69-37.8 19.6-8.3-23 25.1-8.7c1.3-.5 2-1.9 1.5-3.2-.5-1.3-1.9-2-3.2-1.5l-29.9 10.3 10.2 28.4-69.2 35.8-11.3-55.2c-.3-1.4-1.6-2.2-3-1.9-1.4.3-2.2 1.6-1.9 3l11.6 56.6-8.6 4.4-13-45-53.6 24.7c-1.3.6-1.8 2.1-1.2 3.3.6 1.3 2.1 1.8 3.3 1.2l48.4-22.3 11.7 40.4-30.6 15.8-6.9-25.4c-.4-1.3-1.7-2.1-3.1-1.8-1.3.4-2.1 1.7-1.8 3.1l49.8 184.7-15.4 4.2c-3 .8-6-1-6.8-3.9l-9.4-36.7c-.3-1.3-1.7-2.1-3-1.8-1.3.3-2.1 1.7-1.8 3l9.4 36.7c1.4 5.7 7.3 9.1 12.9 7.5l15.4-4.2 4.2 15.4h-.2l-44.9 11.8c-.6.1-1.1.4-1.6.6l-2.8 1.4-60.1-202.1-20.9-79.8-4.8 1.4 20.9 79.8 60.4 203-3.4 2zm-80.5-263.2l15 51.4c4.2 16 9.5 36.3 15.3 58.7l-15 2.9c-1.3.2-2.5.8-3.5 1.6l-5 3.8-4-12.2-5.9-22.5c-.5-1.7-1.4-3.3-2.8-4.4l-19.3-59.4c-.5-1.5.1-3.1 1.4-4l23.8-15.9zM446.7-31l5.9-1.1c3.5 13.1 6.7 25.3 9.6 36.2l-39 15.8-6.9-24.6 26.1-9 3.8 17.3c.3 1.3 1.6 2.2 3 1.9 1.3-.3 2.2-1.6 1.9-3l-4.4-19.8V-31zm27.5 60.5c-1.7-6.4-3.8-13.9-6-22.4l.2-.1 6.2 22.2v.1l-.4.2zM467 2.2h-.1c-.8-3-1.6-6.1-2.5-9.3l2.6 9.3zm12.3 25.5L473 5.2l4.2-1.7 6.7 22.6-4.6 1.6zm-3.4-29L471.7.4l-10-36 3.5-1.7 10.7 36zm12.8 26.4l-6.8-23.4L493.5-3l30.7-8.9 3.1 22.5-38.6 14.5zm43-16l-2.6-22.6 52-15.3c2.1-.6 3.8-2 4.9-3.9l9.2-15.8 4 .9-4 13.7L593 2.6l-29-1.1-32.3 7.6zM589-47.6l-7.2 12.4c-.4.8-1.2 1.3-2 1.6l-51.3 15.1-1.8-12.9L589-47.6zm11.7-4.8L598-53l5.8-10-3.1 10.6zm5.8-25.2l-13.9 23.9c-.3 0-.6.1-.8.2l-65.7 17-2.5-18.3L604.4-77l2.1-.6zm-87.8 23.7l2.4 18.7-31.9 8.3-2.2-7.2-4.8 1.4L489.9-7l-9.6 3.9-10.8-36.4 3.6-1.8c.2-.1.4-.2.7-.3l44.9-12.3zm4.9 36.8l-28.8 8.5-4.1-13.5 31.1-8.1 1.8 13.1zm49.5 24l19.7.7-1.7 28.1-20.2-.4 2.2-28.4zm-37.2 32.7l54.9 1.1-4.1 68.8L537.3 91l-5-6.5 8.8-.5-5.2-44.4zm-59.1 48.2l49.4-3 2.7 3.5-17.5 11.1-15.9 9.5c-.9.5-1.9 1.1-2.8 1.6v-.9c-.6 0-2.5-.2-5.1-.4-2.6-.3-5.7-.6-8.5-.9-1.8-.2-3.2-1.8-3.1-3.6l.8-16.9zm52.1.5l5.3 6.8 52.2 19.5-.1 1.9 3.5 98.4-7.6 56.6h-28.6c-.8 0-1.7-.3-2.3-.9L493.5 220c-.5-.4-.9-.7-1.5-1l-7.5-4.1c-.9-.5-1.9-.8-2.6-1-2.8-.8-8.1-4.2-8.1-14.4v-22c-.1-3.1-.5-8-1.4-12.6-.4-2.3-1-4.7-1.8-6.7-.7-1.8-1.6-3.7-2.8-5l.8.3c5-13.9 12.7-31.1 29.3-40.1l16.1-9.5 17.5-11.1-2.6-4.5zm-65 63.4l.4.2h-.4c-.9.2-1.9.6-2.7 1-1.8.8-3.8 2.1-5.4 3.1-.6.4-1.2.6-1.9.7l-27.1 1.7v-1.7l36.9-8.7.3-.1c.7-.3 1.3-.7 1.9-1.2-.8 1.7-1.4 3.4-2 5zm-42.2 5.7v1.3l-26.4 1.7 26.4-3zm65.9-43.2c-4.4 3.5-8 7.6-11.1 12 .8-4.6.9-9.4.1-13.4.6.2 1.2.4 1.9.4 2.9.3 6 .7 8.6.9.2 0 .4 0 .5.1zM476 82.8l1.7-49.2 7.7-2.7.5 1.8L522.5 80 476 82.8zm14.2-51.2l-.4-1.2 37.9-14.3 7.7 63.2-6.9.4-38.3-48.1zm45.1 3l-2.4-20.5 31.6-7.5 3.6.1-2.2 28.5-30.6-.6zM399.7 64.5l30-11.9v14h-.1v.3l-9.8 1.1c-1.7.2-3.3.9-4.6 2l-1.1 1c-.2.2-.5.3-.8.4l-13.5 1.3v-8.2zm30.2 7.3l.8 16.3-31 3.2V77.5l14-1.4c1.3-.1 2.6-.7 3.6-1.5l1.1-1c.5-.5 1.2-.7 1.9-.8l9.6-1zm6.1 15.8h-.2l-.9-17 15.6-3.1 1.2 18.2-15.7 1.9zm14.1-25.2l-15.3 3.1V52.2l14.2-6 1.1 16.2zM411.6-3l6.9 24.7-58.8 20.8-5.2-21.8c-.2-.7.2-1.4.8-1.7l24.9-11.1L411.6-3zm30.1-15.7L381.5 2.1l-2.9-10.7c-.4-1.3-1.7-2.1-3.1-1.8s-2.1 1.7-1.8 3.1l3 11.2-23.6 10.5c-.4.2-.8.4-1.1.6l-3.4-28.4 93-16.7v11.4zm67.7-89.8l-4.1-15.1 16.3-4.2 2.5 11.4c.4 1.8-.7 3.6-2.4 4.1l-12.3 3.8zm86.6-43.3l-91.9 23.4-2.5-9.1h.2l10.9-2.6-11.4-57.2-14.9 2.4h-.2l-10.6-39.4L500-247l16.8 52.8c.4 1.3 1.8 2 3.1 1.6 1.3-.4 2-1.8 1.6-3.1L507-241.1l56.7-20.2 47.6 105.9c-.8 0-1.6.1-2.3.3l-8.3 2.1-39.7-96.9c-.5-1.3-2-1.9-3.3-1.4-1.3.5-1.9 2-1.4 3.3l39.7 96.2zm-95.3 9.4c-.1 0-.2.1-.3.1l-13-47.7 9.8-1.6 9.6 47.8-6.1 1.4zm4.9-103.5l-1.1-3.4 16.8-8.7c.4-.1.7-.3 1-.5l106.1-54.9-11.1 158.5h-.2l-50.6-112.6-60.9 21.6zM456.6 85l14-2.2 2.1-47.7-19 7.9 2.9 42z"/><defs><filter id="prefix__Adobe_OpacityMaskFilter_00000045598111305975520340000017732333958862404736_" filterUnits="userSpaceOnUse" x="295.3" y="-339.4" width="370.5" height="662.9"><feColorMatrix values="1 0 0 0 0 0 1 0 0 0 0 0 1 0 0 0 0 0 1 0"/></filter></defs><mask maskUnits="userSpaceOnUse" x="295.3" y="-339.4" width="370.5" height="662.9" id="prefix__path-10-outside-1_431_73371_00000151503333340127622870000006378751485187263367_"><path fill="#fff" filter="url(#prefix__Adobe_OpacityMaskFilter_00000045598111305975520340000017732333958862404736_)" d="M294.9-339.9h371v664h-371z"/><path class="prefix__st8" d="M473.3-142.2l-48-181.2-4.8 1.3 46.8 176.5-26.8 7.4 1.4 4.8 31.4-8.8zm120.4 6.8c-1.3.4-2 1.9-1.6 3.2l8 23.9c1.4 4.2 5.7 6.6 10 5.6l52.7-11.8-1.1-4.9-52.7 11.8c-1.8.4-3.5-.6-4.1-2.3l-8-23.9c-.4-1.4-1.9-2.1-3.2-1.6zM355.2 162.1l.5-26.1h36v19l5-.5v-19c0-2.5-2-4.5-4.5-4.5h-37c-2.5 0-4.5 2-4.5 4.5l-.5 26.6h5z"/><path class="prefix__st8" d="M460.3-40.5l-52.7-189-27.9-95.6-4.8 1.4 3.3 15-25.1 16.6c-3.2 2.1-4.6 6.1-3.4 9.7l17.2 52.8-70.2-48.2v6.5l72.9 49.8 8.2 25.3 3.8 14.5-21.4 16.1c-1.4 1-3.2.9-4.5-.2l-59-54.9v9.6l55.6 49c3 2.8 7.6 3 10.9.5l19.8-14.9 11 41.7 1.3 5.5L362-120c-1.3.4-2.1 1.7-1.7 3.1.4 1.3 1.7 2.1 3.1 1.7l2.1-.6 3 6.6c.6 1.3 2.1 1.8 3.3 1.2 1.3-.6 1.8-2.1 1.2-3.3l-2.7-5.9 36.3-10c1.8-.5 3.6.5 4.2 2.2l8.2 22.5c.5 1.3 1.9 2 3.2 1.5 1.3-.5 2-1.9 1.5-3.2l-8.2-22.5c-1.5-4.2-6-6.4-10.2-5.3l-5 1.4-1.4-5.4-10.9-44.1 6.6-5c.4-.3.9-.5 1.4-.6l15.4-3c9.5 36.3 20.4 77.7 30.5 116l-56.7 11.8c-1.4.3-2.2 1.6-1.9 3 .3 1.4 1.6 2.2 3 1.9l56.9-11.9c2.8 10.7 5.6 21.1 8.2 31l-105.5 19h-.5l-45.9-48.6-1 7.7L339-17.2l-39.5 3.8.5 5 43.5-4.2.4.4 3.6 30.4-48.8 10 1 4.9 50-10.3 5.2 21.5-59.1 20.5 1.7 4.7 125.6-44L463.6 9c2.2 8.4 4.3 15.9 6 22.3L387 64.2l-88.4 27.5 1.5 4.8L388.7 69l6.2-2.5v30.4l36.3-3.7.8 15.8 4.5 3.2c1.1.8 2.7.5 3.5-.6.8-1.1.5-2.7-.6-3.5l-2.5-1.8-.9-13.7.5-.1 34.1-4.2c.1 9 .1 16.8.1 21.7v.5l.2.5c1.7 4 1.7 11-.2 17.9-.9 3.4-2.2 6.5-3.8 9.1-1.5 2.5-3.3 4.2-5.1 5.2l-35.5 8.4-7.1-24.8c-.4-1.3-1.8-2.1-3.1-1.7s-2.1 1.8-1.7 3.1l6.9 24.3-39.9 4.5c-1.7.2-3.2 1.1-4.2 2.5l-.9 1.3-41.3 2.9.4 5 41.4-2.9c0 .5.5.9 1 .9l43.9-2.8V180c0 1.3-.7 2.4-1.8 3.1L400.4 194l-16.1-18-84.7 3.5.2 5 82.3-3.5 14.9 16.7-22.3 123.6h6.5L402 198.9l5.7-3.2c-.1 1-.2 2.1-.2 3.1 0 1.5.3 3.1 1.1 4.5.8 1.5 2.2 2.7 4.1 3.2 2.7.7 6.2.3 9.3-.2 3.2-.6 6.5-1.5 8.9-2.3 1.5-.5 3.2-1.5 4-3.5.9-2 1.4-5.1.1-8.2-.5-1.3-2.1-1.5-3.3-.8-1.1.8-1.3 2.4-1.1 3.7.2 1.3 0 2.4-.4 3.3-.1.2-.3.5-1 .7-2.3.7-5.3 1.6-8.3 2.1-3.1.5-5.7.7-7.2.3-.5-.1-.7-.3-.9-.7-.3-.5-.4-1.2-.5-2.2-.1-2.1.5-4.6 1.2-6.3l8.8-4.9c2.7-1.5 4.3-4.3 4.3-7.4v-16.6l27.5-1.7c1.6-.1 3.1-.6 4.3-1.5 1.5-1 3.3-2 4.7-2.7.5-.2.9-.4 1.2-.5.5.7 1 1.6 1.4 2.9.6 1.7 1.1 3.7 1.6 5.9.8 4.3 1.2 8.9 1.3 11.8v22c0 3 .4 5.6 1.1 7.8-1.8-1-3.7-2.2-5.8-3.4-5.4-3.3-11.4-7.1-15.8-10.1-1.1-.8-2.7-.5-3.5.7-.8 1.1-.5 2.7.7 3.5 4.5 3 10.5 6.9 16 10.2 3.2 1.9 6.2 3.7 8.7 5 1.2.6 2.3 1.2 3.3 1.6.3.1.7.3 1.1.4 1.9 1.8 4.1 3 5.9 3.5.7.2 1.2.4 1.6.6l7.5 4.1c.2.1.4.3.6.4l57.8 50.6c1.6 1.4 3.5 2.1 5.6 2.1h27.9l-6.2 45.7 5 .7 6.2-46.3h75.3v-5H587l7.6-56.4-3.5-98.6v-.1l25.2 9.4 44.3 12.1 1.3-4.8-43.9-12.2-26.5-9.9 4.2-70.5 64.9 1.3.1-5-64.7-1.3 1.7-28 21.4.8h46v-5h-46l-21.2-.8L600-33l3.9-13.5L660.7-34l1.1-4.9-56.2-12.4 8.2-28.2 48.6-12.1-1.3-4.8-58 14.5-34.1 9.4-3.8-10.6 5.6-4.4c1.1-.9 1.3-2.4.4-3.5s-2.4-1.3-3.5-.4l-8.4 6.6 4.9 13.6-41.6 11.4-11.8-43.9 26.8-7c1.8-.5 3.6.5 4.2 2.2l1.2 3.3 4.7-1.7-1.2-3.3c-1.5-4.2-5.9-6.5-10.2-5.4l-7.3 1.9c.3-1.2.3-2.5 0-3.8l-2.5-11.6 83.9-21.4c.4-.1.8-.1 1.1-.1l2.4.2c.7.7 1.8.9 2.8.5.2-.1.3-.2.4-.2l44.1 3.1.4-5-39.4-2.7 10.9-156 24.2 59.5c.5 1.3 2 1.9 3.3 1.4 1.3-.5 1.9-2 1.4-3.3l-28-69-37.8 19.6-8.3-23 25.1-8.7c1.3-.5 2-1.9 1.5-3.2-.5-1.3-1.9-2-3.2-1.5l-29.9 10.3 10.2 28.4-69.2 35.8-11.3-55.2c-.3-1.4-1.6-2.2-3-1.9-1.4.3-2.2 1.6-1.9 3l11.6 56.6-8.6 4.4-13-45-53.6 24.7c-1.3.6-1.8 2.1-1.2 3.3.6 1.3 2.1 1.8 3.3 1.2l48.4-22.3 11.7 40.4-30.6 15.8-6.9-25.4c-.4-1.3-1.7-2.1-3.1-1.8-1.3.4-2.1 1.7-1.8 3.1l49.8 184.7-15.4 4.2c-3 .8-6-1-6.8-3.9l-9.4-36.7c-.3-1.3-1.7-2.1-3-1.8-1.3.3-2.1 1.7-1.8 3l9.4 36.7c1.4 5.7 7.3 9.1 12.9 7.5l15.4-4.2 4.2 15.4h-.2l-44.9 11.8c-.6.1-1.1.4-1.6.6l-2.8 1.4-60.1-202.1-20.9-79.8-4.8 1.4 20.9 79.8 60.4 203-3.4 2zm-80.5-263.2l15 51.4c4.2 16 9.5 36.3 15.3 58.7l-15 2.9c-1.3.2-2.5.8-3.5 1.6l-5 3.8-4-12.2-5.9-22.5c-.5-1.7-1.4-3.3-2.8-4.4l-19.3-59.4c-.5-1.5.1-3.1 1.4-4l23.8-15.9zM446.7-31l5.9-1.1c3.5 13.1 6.7 25.3 9.6 36.2l-39 15.8-6.9-24.6 26.1-9 3.8 17.3c.3 1.3 1.6 2.2 3 1.9 1.3-.3 2.2-1.6 1.9-3l-4.4-19.8V-31zm27.5 60.5c-1.7-6.4-3.8-13.9-6-22.4l.2-.1 6.2 22.2v.1l-.4.2zM467 2.2h-.1c-.8-3-1.6-6.1-2.5-9.3l2.6 9.3zm12.3 25.5L473 5.2l4.2-1.7 6.7 22.6-4.6 1.6zm-3.4-29L471.7.4l-10-36 3.5-1.7 10.7 36zm12.8 26.4l-6.8-23.4L493.5-3l30.7-8.9 3.1 22.5-38.6 14.5zm43-16l-2.6-22.6 52-15.3c2.1-.6 3.8-2 4.9-3.9l9.2-15.8 4 .9-4 13.7L593 2.6l-29-1.1-32.3 7.6zM589-47.6l-7.2 12.4c-.4.8-1.2 1.3-2 1.6l-51.3 15.1-1.8-12.9L589-47.6zm11.7-4.8L598-53l5.8-10-3.1 10.6zm5.8-25.2l-13.9 23.9c-.3 0-.6.1-.8.2l-65.7 17-2.5-18.3L604.4-77l2.1-.6zm-87.8 23.7l2.4 18.7-31.9 8.3-2.2-7.2-4.8 1.4L489.9-7l-9.6 3.9-10.8-36.4 3.6-1.8c.2-.1.4-.2.7-.3l44.9-12.3zm4.9 36.8l-28.8 8.5-4.1-13.5 31.1-8.1 1.8 13.1zm49.5 24l19.7.7-1.7 28.1-20.2-.4 2.2-28.4zm-37.2 32.7l54.9 1.1-4.1 68.8L537.3 91l-5-6.5 8.8-.5-5.2-44.4zm-59.1 48.2l49.4-3 2.7 3.5-17.5 11.1-15.9 9.5c-.9.5-1.9 1.1-2.8 1.6v-.9c-.6 0-2.5-.2-5.1-.4-2.6-.3-5.7-.6-8.5-.9-1.8-.2-3.2-1.8-3.1-3.6l.8-16.9zm52.1.5l5.3 6.8 52.2 19.5-.1 1.9 3.5 98.4-7.6 56.6h-28.6c-.8 0-1.7-.3-2.3-.9L493.5 220c-.5-.4-.9-.7-1.5-1l-7.5-4.1c-.9-.5-1.9-.8-2.6-1-2.8-.8-8.1-4.2-8.1-14.4v-22c-.1-3.1-.5-8-1.4-12.6-.4-2.3-1-4.7-1.8-6.7-.7-1.8-1.6-3.7-2.8-5l.8.3c5-13.9 12.7-31.1 29.3-40.1l16.1-9.5 17.5-11.1-2.6-4.5zm-65 63.4l.4.2h-.4c-.9.2-1.9.6-2.7 1-1.8.8-3.8 2.1-5.4 3.1-.6.4-1.2.6-1.9.7l-27.1 1.7v-1.7l36.9-8.7.3-.1c.7-.3 1.3-.7 1.9-1.2-.8 1.7-1.4 3.4-2 5zm-42.2 5.7v1.3l-26.4 1.7 26.4-3zm65.9-43.2c-4.4 3.5-8 7.6-11.1 12 .8-4.6.9-9.4.1-13.4.6.2 1.2.4 1.9.4 2.9.3 6 .7 8.6.9.2 0 .4 0 .5.1zM476 82.8l1.7-49.2 7.7-2.7.5 1.8L522.5 80 476 82.8zm14.2-51.2l-.4-1.2 37.9-14.3 7.7 63.2-6.9.4-38.3-48.1zm45.1 3l-2.4-20.5 31.6-7.5 3.6.1-2.2 28.5-30.6-.6zM399.7 64.5l30-11.9v14h-.1v.3l-9.8 1.1c-1.7.2-3.3.9-4.6 2l-1.1 1c-.2.2-.5.3-.8.4l-13.5 1.3v-8.2zm30.2 7.3l.8 16.3-31 3.2V77.5l14-1.4c1.3-.1 2.6-.7 3.6-1.5l1.1-1c.5-.5 1.2-.7 1.9-.8l9.6-1zm6.1 15.8h-.2l-.9-17 15.6-3.1 1.2 18.2-15.7 1.9zm14.1-25.2l-15.3 3.1V52.2l14.2-6 1.1 16.2zM411.6-3l6.9 24.7-58.8 20.8-5.2-21.8c-.2-.7.2-1.4.8-1.7l24.9-11.1L411.6-3zm30.1-15.7L381.5 2.1l-2.9-10.7c-.4-1.3-1.7-2.1-3.1-1.8s-2.1 1.7-1.8 3.1l3 11.2-23.6 10.5c-.4.2-.8.4-1.1.6l-3.4-28.4 93-16.7v11.4zm67.7-89.8l-4.1-15.1 16.3-4.2 2.5 11.4c.4 1.8-.7 3.6-2.4 4.1l-12.3 3.8zm86.6-43.3l-91.9 23.4-2.5-9.1h.2l10.9-2.6-11.4-57.2-14.9 2.4h-.2l-10.6-39.4L500-247l16.8 52.8c.4 1.3 1.8 2 3.1 1.6 1.3-.4 2-1.8 1.6-3.1L507-241.1l56.7-20.2 47.6 105.9c-.8 0-1.6.1-2.3.3l-8.3 2.1-39.7-96.9c-.5-1.3-2-1.9-3.3-1.4-1.3.5-1.9 2-1.4 3.3l39.7 96.2zm-95.3 9.4c-.1 0-.2.1-.3.1l-13-47.7 9.8-1.6 9.6 47.8-6.1 1.4zm4.9-103.5l-1.1-3.4 16.8-8.7c.4-.1.7-.3 1-.5l106.1-54.9-11.1 158.5h-.2l-50.6-112.6-60.9 21.6zM456.6 85l14-2.2 2.1-47.7-19 7.9 2.9 42z"/></mask><path d="M404.4-242.2c0-.1-.2-.2-.3-.2-.1 0-.2.2-.2.3l.5-.1zm55.7 201.7c0 .1.2.2.3.2.1 0 .2-.2.2-.3l-.5.1zm-33.5 192c0-.1-.2-.2-.3-.2-.1 0-.2.2-.2.3l.5-.1zm-.4.2c0 .1.2.2.3.2.1 0 .2-.2.2-.3l-.5.1zM534 95.3c.1.1.2.1.4 0 .1-.1.1-.2 0-.4l-.4.4zm-7.6-10.7c-.1-.1-.2-.1-.3 0-.1.1-.1.2 0 .4l.3-.4zM460.5-40.6l-56.2-201.6-.5.1L460-40.5l.5-.1zm-33.8 192.1l-.5.1.5-.1zM526 84.9l8 10.4.4-.3-8-10.4-.4.3zm-146.2-410l.5-.1-.1-.5-.5.1.1.5zm27.9 95.6l.5-.1-.5.1zm52.6 189l-.5.1.2.6.5-.3-.2-.4zm3.4-1.7l.2.4.4-.2-.1-.4-.5.2zm-60.4-203l-.5.1.5-.1zm-20.9-79.9l-.1-.5-.5.1.1.5.5-.1zm4.8-1.3l.5-.1-.1-.5-.5.1.1.5zm20.9 79.8l-.5.1.5-.1zm60.1 202.1l-.5.1.2.6.5-.3-.2-.4zm2.9-1.4l.2.4-.2-.4zm1.6-.6l.1.5-.1-.5zm44.9-11.9l.1.5-.1-.5zm0 0l.1.5-.1-.5zm.2 0l.1.5.5-.1-.1-.5-.5.1zm-4.2-15.4l.5-.1-.1-.5-.5.1.1.5zm-15.4 4.1l.1.5-.1-.5zm-12.9-7.5l-.5.1.5-.1zm4.8-1.2l.5-.1-.5.1zm6.8 3.9l.1.5-.1-.5zm15.4-4.1l.1.5.5-.1-.1-.5-.5.1zm-38.1-160.6l-.5.1.2.6.6-.3-.3-.4zm30.6-15.9l.2.4.4-.2-.1-.4-.5.2zm-11.7-40.4l.5-.1-.2-.6-.5.2.2.5zm-48.3 22.3l.2.5-.2-.5zm-2.1-4.5l.2.5-.2-.5zm53.6-24.7l.5-.1-.2-.6-.5.2.2.5zm13 45l-.5.1.2.6.5-.3-.2-.4zm8.6-4.5l.2.4.3-.2-.1-.4-.4.2zm-11.6-56.5l.5-.1-.5.1zm1.9-3l-.1-.5.1.5zm3 2l.5-.1-.5.1zm11.3 55.2l-.5.1.1.6.6-.3-.2-.4zm69.2-35.8l.2.4.4-.2-.1-.4-.5.2zm-10.2-28.5l-.2-.5-.5.2.2.5.5-.2zm29.9-10.3l-.2-.5.2.5zm3.2 1.5l.5-.2-.5.2zm-1.5 3.2l.2.5-.2-.5zm-25.2 8.7l-.2-.5-.5.2.2.5.5-.2zm8.3 23l-.5.2.2.5.5-.3-.2-.4zm37.8-19.5l.5-.2-.2-.5-.5.3.2.4zm28.1 69l.5-.2-.5.2zm-1.4 3.3l-.2-.5.2.5zm-3.3-1.4l.5-.2-.5.2zm-24.1-59.5l.5-.2-1 .2h.5zm-11 156h-.5v.5h.5v-.5zm39.4 2.7h.5v-.5h-.5v.5zm-.4 5v.5h.5v-.5h-.5zm-44.1-3.1v-.5h-.2l-.1.1.3.4zm-.4.2l-.2-.5.2.5zm-2.8-.5l.4-.4-.1-.1h-.2l-.1.5zm-2.5-.2v.5-.5zm-1.1.1l.1.5-.1-.5zm-83.9 21.4l-.1-.5-.5.1.1.5.5-.1zm2.5 11.5l.5-.1-.5.1zm0 3.8l-.5-.1-.2.8.8-.2-.1-.5zm7.3-1.9l.1.5-.1-.5zm10.1 5.4l.5-.2-.5.2zm1.2 3.3l.2.5.5-.2-.2-.5-.5.2zm-4.7 1.7l-.5.2.2.5.5-.2-.2-.5zm-1.2-3.3l-.5.2.5-.2zm-4.2-2.2l-.1-.5.1.5zm-26.8 7l-.1-.5-.5.1.1.5.5-.1zm11.9 43.9l-.5.1.1.5.5-.1-.1-.5zm41.5-11.5l.1.5.5-.1-.2-.5-.4.1zm-4.8-13.6l-.3-.4-.3.2.1.3.5-.1zm8.4-6.6l-.3-.4.3.4zm3.1 3.9l.3.4-.3-.4zm-5.6 4.4l-.3-.4-.3.2.1.3.5-.1zm3.8 10.6l-.5.2.2.4.4-.1-.1-.5zm34.1-9.4l-.1-.5.1.5zm58-14.5l.5-.1-.1-.5-.5.1.1.5zm1.3 4.9l.1.5.5-.1-.1-.5-.5.1zm-48.6 12l-.1-.5-.3.1-.1.3.5.1zm-8.3 28.2l-.5-.1-.1.5.5.1.1-.5zm56.3 12.4l.5.1.1-.5-.5-.1-.1.5zm-1.1 4.9l-.1.5.5.1.1-.5-.5-.1zm-56.6-12.5l.1-.5-.5-.1-.1.4.5.2zM600.2-33l-.5-.1v.2l.5-.1zm-2.1 35.8h-.5v.5h.5v-.5zm21.2.8v.5-.5zm45.9 0h.5v-.5h-.5v.5zm0 5v.5h.5v-.5h-.5zm-46 0v.5-.5zm-21.4-.8v-.5h-.5v.5h.5zm-1.7 28h-.5v.5h.5v-.5zm64.7 1.3h.5v-.5h-.5v.5zm-.1 5v.5h.5v-.5h-.5zm-64.9-1.3v-.5h-.5v.5h.5zm-4.2 70.5h-.5v.4l.3.1.2-.5zm26.4 9.9l-.2.5.2-.5zm44.1 12l.5.1.1-.5-.5-.1-.1.5zm-1.4 4.9l-.1.5.5.1.1-.5-.5-.1zm-44.2-12.2l-.2.5.2-.5zm-25.3-9.4l.2-.5-.6-.2v.7h.4zm0 .1h-.5.5zm3.5 98.6l.5.1-.5-.1zm-7.6 56.4l-.5-.1-.1.6h.6v-.5zm74.6 0h.5v-.5h-.5v.5zm0 5v.5h.5v-.5h-.5zm-75.2 0v-.5h-.5l-.1.4.6.1zm-6.3 46.3l-.1.5.5.1.1-.5-.5-.1zm-4.9-.7l-.5-.1-.1.5.5.1.1-.5zm6.1-45.6l.5.1.1-.6h-.6v.5zm-33.5-2.2l-.3.4.3-.4zm-57.8-50.5l.3-.4-.3.4zm-.6-.5l.2-.4-.2.4zm-7.5-4.1l.2-.4-.2.4zm-1.5-.6l.1-.5-.1.5zm-6-3.5l.3-.4-.1-.1h-.1l-.1.5zm-1.1-.4l.2-.5-.2.5zm-3.3-1.6l.2-.4-.2.4zm-8.7-4.9l-.3.4.3-.4zm2.6-4.3l.3-.4-.3.4zm5.8 3.4l-.2.4 1.1.6-.4-1.2-.5.2zm-1.1-29.8h.5-.5zm-1.2-11.8l-.5.1.5-.1zm-1.6-5.9l.5-.2-.5.2zm-1.4-2.9l.4-.3-.2-.3-.4.1.2.5zm-1.2.5l.2.5-.2-.5zm-4.8 2.7l.3.4-.3-.4zm-4.3 1.5v-.5.5zm-27.5 1.7v-.5h-.5v.5h.5zm-4.3 24.1l.2.4-.2-.4zm-8.8 4.9l-.2-.4-1 .5 1 .4.2-.5zm0 0l.5.2.2-.5-.5-.2-.2.5zm-1.2 6.3h-.5.5zm.5 2.2l-.4.2.4-.2zm.9.7l-.1.5.1-.5zm7.3-.3l.1.5-.1-.5zm8.2-2.1l.2.5-.2-.5zm1-.6l.5.2-.5-.2zm4.6 1.9l-.5-.2.5.2zm-4 3.5l-.2-.5.2.5zm-9 2.3l-.1-.5.1.5zm-9.3.2l.1-.5-.1.5zm-4.1-3.2l.4-.2-.4.2zm-1.1-4.5h.5-.5zm.2-3.1l.5.1.1-1-.9.5.3.4zm-5.6 3.2l-.2-.4-.2.1v.2l.4.1zm-20.8 122.6v.5h.4l.1-.4-.5-.1zm-6.5 0l-.5-.1-.1.6h.6v-.5zm22.4-123.7l.5.1v-.2l-.2-.2-.3.3zm-14.9-16.7l.4-.3-.2-.2h-.2v.5zm-82.4 3.5h-.5v.5h.5v-.5zm-.2-5v-.5h-.5v.5h.5zm84.7-3.6l.4-.3-.2-.2h-.2v.5zm16.1 18l-.4.3.3.3.4-.2-.3-.4zm19.5-10.9l-.2-.4.2.4zm1.8-19.4h.5v-.5h-.5v.5zm-44.9 1.9h.5v-.5h-.5v.5zm-41.4 2.9h-.5v.5h.5v-.5zm-.3-4.9v-.5h-.5v.5h.5zm41.3-3v.5h.2l.1-.2-.3-.3zm45.1-8.2l.1.5.6-.1-.2-.6-.5.2zm4.9-.8l.5-.1-.5.1zm0 0l-.5.1.1.5.5-.1-.1-.5zm35.5-8.4l.1.5h.2l-.3-.5zm5.1-5.2l.4.3-.4-.3zm3.8-9.1l.5.1-.5-.1zm.1-17.9l.5-.2-.5.2zm-.2-.4h-.5v.2l.5-.2zm-.1-22.3h.5v-.6l-.6.1.1.5zm-34.1 4.2l.1.5-.1-.5zm-.5.1l-.1-.5h-.5v.5h.6zm.7 13.6h-.5v.2l.2.1.3-.3zm2.5 1.8l-.3.4.3-.4zm-2.9 4.1l-.3.4.3-.4zm-4.5-3.2h-.5v.2l.2.1.3-.3zm-.8-15.8h.5v-.5l-.5.1v.4zm-36.3 3.7h-.5v.6l.6-.1-.1-.5zm0-30.3h.5v-.7l-.7.3.2.4zm-6.1 2.4l.1.5-.1-.5zM300 96.4l-.5.1.1.5.5-.1-.1-.5zm-1.5-4.7l-.1-.5-.5.1.2.5.4-.1zm88.4-27.5l.1.5-.1-.5zm82.6-32.9l.2.5.4-.2-.1-.4-.5.1zM463.6 9l.5-.1-.1-.5-.5.2.1.4zm-40.5 16.4l.2.5-.2-.5zm-125.5 44l-.5.2.2.5.5-.2-.2-.5zm-1.7-4.7l-.2-.5-.5.2.2.5.5-.2zM355 44.2l.2.5.4-.1-.1-.4h-.5zm-5.2-21.5l.5-.1-.1-.5-.5.1.1.5zm-50 10.3l-.5.1.1.5.5-.1-.1-.5zm-1.1-4.9l-.1-.5-.5.1.1.5.5-.1zm48.8-10l.1.5.5-.1-.1-.5-.5.1zm-3.6-30.4l.5-.1v-.2l-.1-.1-.4.4zm-.4-.4l.4-.3-.2-.2h-.2v.5zM300-8.5h-.5v.5h.5v-.5zm-.5-4.9v-.5h-.5v.5h.5zm39.5-3.8v.5l1-.1-.7-.7-.3.3zm-40.6-41.5l-.5-.1v.2l.2.2.3-.3zm1.1-7.7l.4-.3-.7-.8-.1 1 .4.1zm45.9 48.5l-.4.3.2.2h.2v-.5zm.5 0v.5-.5zm105.5-19l.1.5.5-.1-.1-.5-.5.1zm-8.2-31l.5-.1-.1-.5-.5.1.1.5zm-57 11.9l-.1-.5.1.5zm-1-4.9l-.1-.5.1.5zm56.7-11.8l.1.5.5-.1-.1-.5-.5.1zm-30.5-116l.5-.1-.1-.5-.5.1.1.5zm-15.3 2.9l.1.5-.1-.5zm-1.5.7l-.3-.4.3.4zm-6.6 5l-.3-.4-.3.2.1.3.5-.1zm10.9 44.2l-.5.1.5-.1zm1.4 5.4l-.5.1.1.5.5-.1-.1-.5zm5-1.4l-.1-.5.1.5zm10.2 5.3l-.5.2.5-.2zm-4.7 1.7l-.5.2.5-.2zm-4.2-2.2l-.1-.5.1.5zm-36.3 10l-.1-.5-.6.2.2.5.5-.2zm-4.9 1.3l.5-.2-.2-.4-.4.1.1.5zm30-13.4l.1.5.5-.1-.1-.5-.5.1zm-1.4-5.5l.5-.1-.5.1zm-11-41.7l.5-.1-.2-.7-.6.4.3.4zm-19.8 14.9l.3.4-.3-.4zm-10.8-.5l.3-.4-.3.4zm-55.7-48.9h-.5v.2l.2.1.3-.3zm0-9.6l.3-.4-.8-.8v1.1h.5zm59.1 54.8l-.3.4.3-.4zm4.4.2l.3.4-.3-.4zm21.4-16.1l.3.4.3-.2-.1-.3-.5.1zm-3.8-14.5l.5-.1-.5.1zm-8.2-25.3l.5-.2-.1-.2-.1-.1-.3.5zm-72.9-49.8h-.5v.3l.2.1.3-.4zm0-6.5l.3-.4-.8-.5v.9h.5zm70.3 48.2l-.3.4 1.2.8-.5-1.4-.4.2zm-17.2-52.8l-.5.2.5-.2zm3.4-9.8l-.3-.4.3.4zm25.1-16.6l.3.4.3-.2-.1-.3-.5.1zm-3.3-15l-.1-.5-.4.1.1.5.4-.1zm4.8 20l.5-.1-.2-.6-.6.4.3.3zm15 51.4l.5-.1-.5.1zm15.4 58.7l.1.5.5-.1-.1-.5-.5.1zm-15.1 2.9l.1.5-.1-.5zm-3.5 1.6l.3.4-.3-.4zm-5 3.8l-.5.2.2.7.6-.4-.3-.5zm-4-12.2l-.5.1.5-.1zm-5.9-22.5l.5-.1-.5.1zm-2.8-4.4l-.5.2v.1l.1.1.4-.4zm-19.4-59.5l.5-.2-.5.2zm1.4-4l.3.4-.3-.4zM446.7-31l-.1-.5-.4.1v.4h.5zm5.9-1l.5-.1-.1-.4-.5.1.1.4zm-5.9 14.8h-.5v.2l.5-.2zm-4.3 3.5l.5-.1-.1-.5-.5.2.1.4zm-26.1 9.1l-.2-.5-.4.1.1.5.5-.1zm6.9 24.5l-.5.1.2.5.5-.2-.2-.4zm39.1-15.7l.2.5.4-.2-.2-.5-.4.2zm11.9 25.3l-.5.1.1.5.5-.2-.1-.4zm-6-22.3l-.2-.5-.4.2.1.4.5-.1zm6.4 22.2l.2.5.4-.2-.1-.4-.5.1zm0-.1l-.5.1.5-.1zm-6.2-22.2l.5-.1-.1-.5-.5.2.1.4zM467 2.2l.2.5.4-.2-.1-.4-.5.1zm-.1.1l-.5.1.1.5.5-.2-.1-.4zM464.5-7l.5-.1-1 .3.5-.2zm14.8 34.7l-.5.1.1.5.5-.2-.1-.4zM473 5.2l-.2-.5-.4.2.1.4.5-.1zm11 20.9l.2.5.4-.2-.1-.5-.5.2zm-6.7-22.6l.5-.1-.2-.5-.5.1.2.5zm-1.4-4.8l.2.5.4-.2-.1-.4-.5.1zM471.7.4l-.5.1.2.5.5-.2-.2-.4zm-10-36l-.2-.4-.4.2.1.4.5-.2zm3.4-1.8l.5-.1-.2-.6-.5.3.2.4zm23.6 62.5l-.5.1.2.5.5-.2-.2-.4zm-6.8-23.5l-.2-.5-.4.2.1.4.5-.1zm45.5 9l.2.5.4-.1-.1-.4h-.5zm-3.2-22.5l.5-.1-.1-.6-.6.2.2.5zm-30.6 8.8l-.1-.5.1.5zm38.1 12.2l-.5.1.1.6.5-.1-.1-.6zm-2.6-22.7l-.1-.4-.4.1v.4l.5-.1zM564 1.5V1h-.2l.2.5zm29.1 1.1v.5h.5v-.5h-.5zm2.2-36.5l-.5-.1v.2l.5-.1zm4-13.7l.5.1.1-.5-.5-.1-.1.5zm-4-.9l.1-.5-.4-.1-.2.3.5.3zm-9.2 15.8l-.4-.3.4.3zm-4.9 3.8l.1.5-.1-.5zm7.8-18.7l.4.3.6-1-1.2.3.2.4zm-7.2 12.3l-.4-.3.4.3zm-2.1 1.6l-.1-.5.1.5zm-51.2 15.1l-.5.1.1.6.6-.2-.2-.5zm-1.8-12.9l-.1-.5-.4.1.1.4h.4zm74-20.9l-.1.5.5.1.1-.5-.5-.1zm-2.8-.6l-.4-.3-.3.6.7.2v-.5zm5.9-10l.5.1-.9-.4.4.3zm2.7-14.6l.4.3.6-1-1.2.3.2.4zm-14 23.9l.1.5h.2l.1-.2-.4-.3zm-.8.2l-.1-.5.1.5zm-65.7 17l-.5.1.1.6.5-.1-.1-.6zm-2.5-18.3l-.1-.5-.4.1.1.4h.4zM604.4-77l-.1-.5.1.5zm0 0l-.1-.5.1.5zm-85.7 23.1l.5-.1-.1-.6-.6.2.2.5zm2.5 18.7l.1.5.4-.1-.1-.4h-.4zm-31.9 8.3l-.5.1.1.5.5-.1-.1-.5zm-2.2-7.3l.5-.1-.1-.5-.5.1.1.5zm-4.8 1.5l-.1-.5-.5.1.1.5.5-.1zm7.8 25.6l.2.5.4-.2-.1-.4-.5.1zm-9.6 3.9l-.5.1.2.5.5-.2-.2-.4zm-10.8-36.4l-.2-.4-.4.2.1.4.5-.2zm3.6-1.8l-.2-.4.2.4zm.7-.3l.1.5-.1-.5zm49.6 24.6l.1.5.4-.1-.1-.4h-.4zm-28.8 8.4l-.5.1.1.5.5-.1-.1-.5zm27-21.5l.5-.1-.1-.6-.5.1.1.6zm-31 8.1l-.1-.5-.5.1.2.5.4-.1zm82.3 29v-.5h-.5v.5h.5zm19.7.7h.5v-.5h-.5v.5zm-21.9 27.7h-.5v.5h.5v-.5zm20.2.4v.5h.5v-.5h-.5zm-55.2 3.9v-.5h-.6l.1.6.5-.1zm54.9 1.1h.5v-.5h-.5v.5zM541 83.9v.5h.5l-.1-.5h-.4zm-8.8.5v-.5l-.9.1.6.7.3-.3zm5.1 6.6l-.4.3.1.1h.1l.2-.4zm49.4 18.4l-.2.5.6.2v-.7h-.4zm-.4 5.3h.5v-.4l-.3-.1-.2.5zm-52.1-19.6l-.4.3.1.1h.1l.2-.4zm-8-10.3l.4-.3-.2-.2h-.3l.1.5zm-49.4 3v-.5h-.4v.4l.4.1zm-.8 16.8h-.5.5zm3.1 3.6l.1-.5-.1.5zm8.5.9v-.5.5zm5.1.5h.5v-.5h-.5v.5zm0 .9h-.5v.9l.8-.5-.3-.4zm2.8-1.6l.2.4-.2-.4zm15.9-9.5l.3.4-.3-.4zm20.2-6.8l.3.4.4-.3-.3-.4-.4.3zM514 103.7l.3.4-.3-.4zm-16 9.5l.2.4-.2-.4zm-.1 0l.2.4-.2-.4zm-29.3 40.2l-.2.5.5.2.2-.5-.5-.2zm-.8-.3l.2-.5-.5.8.3-.3zm2.8 5l.5-.2-.5.2zm1.8 6.7l-.5.1.5-.1zm1.3 12.7h.5-.5zm0 0h.5-.5zm8.1 36.4l.1-.5-.1.5zm2.6 1l-.2.4.2-.4zm7.5 4.2l.2-.4-.2.4zm1.5 1l-.3.4.3-.4zm57.8 50.6l.3-.4-.3.4zm30.9.9v.5h.4l.1-.4-.5-.1zm7.6-56.7l.5.1-.5-.1zm-3.5-98.4h-.5.5zm-122.3 35.2l-.5-.2-.2.5.5.2.2-.5zm.4.2l.1.5.1-1-.2.5zm1.5-5.3l.5.2.6-1.6-1.4 1 .3.4zm-2 1.2l-.2-.4.2.4zm-.2.1l.1.5h.2l-.3-.5zm-36.9 8.7l-.1-.5-.4.1v.4h.5zm0 1.8h-.5v.5h.5v-.5zm27.2-1.7v.5-.5zm1.9-.7l-.3-.4.3.4zm5.3-3.1l.2.5-.2-.5zm2.8-1l.1.5-.1-.5zm-42.2 5.5h.5v-.6l-.6.1.1.5zm0 1.3v.5h.5v-.5h-.5zm-26.3 1.7l-.1-.5.1 1v-.5zm92.2-46.2l.3.4.9-.8-1.2-.1v.5zm-11.1 11.9l-.5-.1.9.4-.4-.3zm10.6-12v-.5.5zm-8.6-.9l-.1.5.1-.5zm-1.9-.5l.2-.5-.8-.2.2.9.4-.2zm-.6-29.9h-.5v.5h.5v-.5zm1.7-49.2l-.2-.5-.3.1v.3l.5.1zM522.5 80v.5l.9-.1-.6-.7-.3.3zM486 32.7l-.5.1v.1l.1.1.4-.3zm-.6-1.8l.5-.1-.1-.5-.5.2.1.4zm4.8.7l-.5.1v.1l.1.1.4-.3zm-.3-1.3l-.2-.5-.4.2.1.4.5-.1zm38.6 49.3l-.4.3.2.2h.3l-.1-.5zm6.9-.4v.5h.5l-.1-.5h-.4zm-7.7-63.1l.5-.1-.1-.6-.6.2.2.5zm7.6 18.5l-.5.1.1.4h.4v-.5zm-2.4-20.5l-.1-.5-.4.1.1.4h.4zm33 21.1v.5h.5v-.5h-.5zm2.2-28.5h.5v-.5h-.5v.5zm-3.6-.1v-.5h-.2l.2.5zm-91.8 28.5h.5v-.8l-.7.3.2.5zm-2.1 47.7l.1.5.4-.1v-.4h-.5zm-14 2.2h-.5v.5l.5-.1V85zm-2.8-42l-.2-.5-.3.1v.4h.5zm-54.1 21.5l-.2-.5-.3.1v.3h.5zm30-12h.5v-.7l-.7.3.2.4zm-30 20h-.5v.5l.5-.1v-.4zm13.5-1.3v.5-.5zm.9-.4l-.3-.4.3.4zm1.1-.9l.3.4-.3-.4zm4.6-2l-.1-.5.1.5zm9.8-1.1l.1.5.5-.1v-.5l-.6.1zm0-.3l-.1-.5-.4.1v.4h.5zm.1 0l.1.5.4-.1v-.4h-.5zm.2 5.3h.5v-.5l-.5.1v.4zm.8 16.3l.1.5h.5v-.5h-.6zm-31 3.2h-.5v.6l.6-.1-.1-.5zm0-13.8V77h-.5v.5h.5zm14-1.3v-.5.5zm3.6-1.6l.3.4-.3-.4zm1.1-.9l-.3-.4.3.4zm2-.9l.1.5-.1-.5zM436 87.6l.1.5-.1-.5zm-.3 0h-.5v.5l.5-.1v-.4zm15.9-2l.1.5.5-.1v-.5l-.6.1zm-1.2-18.1h.5v-.6l-.6.1.1.5zm-15.6 3.1l-.1-.5-.4.1v.4h.5zm15.3-8.2l.1.5.4-.1v-.4h-.5zm-15.4 3.1h-.5v.6l.6-.1-.1-.5zm0-13.3l-.2-.5-.3.1v.3h.5zm14.3-6h.5v-.7l-.6.3.1.4zM411.6-3l.5-.1-.1-.5-.5.2.1.4zm6.9 24.7l.2.5.4-.2-.1-.5-.5.2zM380.2 7.9l-.2-.5.2.5zM355.3 19l-.2-.5.2.5zm-.9 1.7l.5-.1-.5.1zm5.3 21.8l-.5.1.1.5.5-.2-.1-.4zm82-61.2l.2.5.3-.1v-.4h-.5zM381.5 2.1l-.5.1.1.5.5-.2-.1-.4zm60.2-32.2h.5v-.6l-.6.1.1.5zm-92.9 16.7l-.1-.5-.5.1.1.5.5-.1zm3.4 28.4l-.5.1.1.8.7-.5-.3-.4zm1.1-.6l-.3-.4.3.4zm23.5-10.5l.2.5.4-.2-.1-.4-.5.1zm-3-11.2l.5-.1-.5.1zm4.8-1.3l-.5.1.5-.1zm130.8-99.9l-.5.1.1.5.5-.2-.1-.4zm-4-15l-.1-.5-.5.1.1.5.5-.1zm16.3-4.2l.5-.1-.1-.5-.5.1.1.5zm2.4 11.4l-.5.1.5-.1zm-2.4 4.1l-.1-.5.1.5zm74.3-39.6l.1.5.6-.1-.2-.5-.5.1zm-91.9 23.4l-.5.1.1.5.5-.1-.1-.5zM556.4-248l.5-.2-.5.2zm4.6-1.9l-.5.2.5-.2zm39.9 96.9l-.5.2.2.4.4-.1-.1-.5zm8.2-2.1l-.1-.5.1.5zm2.4-.3v.5h.8l-.3-.7-.5.2zm-47.6-105.9l.5-.2-.2-.4-.4.2.1.4zm-56.7 20.1l-.2-.5-.5.2.1.5.6-.2zm14.4 45.5l-.5.2.5-.2zm-1.6 3.1l-.2-.5.2.5zm-3.1-1.6l.5-.2-.5.2zM500-247l.5-.2-.2-.6-.5.3.2.5zm-24.5 12.7l-.2-.4-.4.2.1.4.5-.2zm10.6 39.4l-.5.1.1.5.5-.1-.1-.5zm.2 0l-.1-.5.1.5zm14.9-2.4l.5-.1-.1-.5-.5.1.1.5zm11.5 57.2l.1.5.5-.1-.1-.5-.5.1zm-10.9 2.6l-.1-.5.1.5zm-.2 0l-.1-.5-.6.1.1.5.6-.1zm-.9-4.9l-.1-.5.1.5zm-.4.1l-.5.1.1.5.5-.2-.1-.4zm6.5-1.5l.1.5.5-.1-.1-.5-.5.1zm-9.5-47.8l.5-.1-.1-.5-.5.1.1.5zm-9.9 1.6l-.1-.5-.5.1.1.5.5-.1zm18.2-55.9l-.5.2.2.5.5-.2-.2-.5zm-1-3.4l-.2-.4-.4.2.1.4.5-.2zm62-18.3l.5-.2-.2-.4-.4.2.1.4zm50.5 112.7l-.5.2.1.3h.3l.1-.5zm.2 0v.5h.5v-.5h-.5zm11.1-158.5h.5l.1-.9-.8.4.2.5zm-106.1 54.9l-.2-.4.2.4zm-.9.5l-.1-.5h-.2l.3.5zm-96.2-65.4l.5-.1-.1-.5-.5.1.1.5zm48.1 181.2l.1.5.5-.1-.1-.5-.5.1zm-31.5 8.8l-.5.1.1.5.5-.1-.1-.5zm-1.4-4.9l-.1-.5-.5.1.1.5.5-.1zm26.8-7.4l.1.5.5-.1-.1-.5-.5.1zm-46.8-176.5l-.1-.5-.5.1.1.5.5-.1zm179.7 213.9l.5-.2-.5.2zm4.8-1.6l.5-.2-.5.2zm4.1 2.3l-.1-.5.1.5zm52.7-11.8l.5-.1-.2-.5-.5.1.2.5zm1.1 4.9l.1.5.5-.1-.1-.5-.5.1zm-52.7 11.8l-.1-.5.1.5zM355.2 162.1v.5h.5v-.5h-.5zm.5-26v-.5h-.5v.5h.5zm-5.5 26h-.5v.5h.5v-.5zm.5-26.5h.5-.5zm46 19v.5h.5v-.5h-.5zm-5 .5h-.5v.6l.5-.1v-.5zm0-19h.5v-.5h-.5v.5zm82.9-106.7l.5-.1-.5.1zm-10.5 122.5l-.1-.5.1.5zM449.2 5.6l.1.5-.1-.5zm-2.9-1.9l-.5.1.5-.1zm4.8-1.1l-.5.1.5-.1zm-34.9 122.5l-.1-.5.1.5zm3.1 1.7l-.5.1.5-.1zm-4.8 1.3l.5-.1-.5.1zm-37.2 31.3l-.4-.3.4.3zm4.2-2.5l-.1-.5.1.5zm-3.7 9.6v-.5.5zm123.9-304l-.1-.5.1.5zm90.5 5.2l.5-.2-.5.2zM362-120l-.1-.5.1.5zm1.3 4.8l.1.5-.1-.5zm117.5.1l-.5.1.5-.1zM419-102.4l-.5.2.5-.2zm177.9-31.5l.5-.2-.5.2zm-121 20l.5-.1-.5.1zm-52.2 9.7l.5-.2-.5.2zM445.4 198l.3-.4-.3.4zm-14.7-2.7l.5-.1-.5.1zm4.3-3l-.5.2.5-.2zm13.2 1.6l.3-.4-.3.4zm14.3-457.3l-.5.1.5-.1zM373-111.3l.5-.2-.5.2zm-4.6 2.1l-.4.2.4-.2zm98.9-155.5l.5-.1-.5.1zm-3.8 222l-3.4 1.7.4.9 3.4-1.7-.4-.9zm-76.4-284.2l-4.8 1.4.3 1 4.8-1.4-.3-1zm81.6 282.3l-60.1-202.1-1 .3 60.1 202.1 1-.3zm2.1-1.8L468-45l.4.9 2.8-1.4-.4-.9zm1.8-.6c-.6.2-1.2.4-1.7.7l.4.9 1.5-.6-.2-1zm44.8-11.8L472.6-47l.3 1 44.9-11.8-.4-1zm.1 0l.2 1-.2-1zm.1-.1h-.2l.3 1h.2l-.3-1zm-4.5-14.8l4.2 15.4 1-.3-4.2-15.4-1 .3zm-14.7 4.5l15.4-4.2-.3-1-15.4 4.2.3 1zm-13.6-7.9c1.5 5.9 7.6 9.5 13.5 7.9l-.3-1c-5.4 1.5-10.9-1.8-12.3-7.2l-.9.3zm-9.4-36.7l9.4 36.7 1-.2-9.4-36.7-1 .2zm15.2 35.2l-9.4-36.7-1 .2 9.4 36.7 1-.2zm6.2 3.6c-2.7.7-5.5-.9-6.2-3.6l-1 .2c.8 3.2 4.2 5.2 7.4 4.3l-.2-.9zm15.4-4.1L496.8-75l.3 1 15.4-4.2-.3-.9zM462-263.3l49.8 184.7 1-.3L463-263.5l-1 .2zm12.6 23.9l-6.9-25.4-1 .3 6.9 25.4 1-.3zm30-16.1L474-239.7l.5.9 30.6-15.8-.5-.9zm-11.9-39.8l11.7 40.4 1-.3-11.7-40.4-1 .3zM445-272.7l48.4-22.3-.4-.9-48.4 22.3.4.9zm-4-1.5c.7 1.5 2.5 2.2 4 1.5l-.4-.9c-1 .5-2.2 0-2.7-1l-.9.4zm1.5-4c-1.5.7-2.2 2.5-1.5 4l.9-.4c-.5-1 0-2.2 1-2.7l-.4-.9zm75.2 15.9l-8.6 4.4.5.9 8.6-4.4-.5-.9zm-11.9-56l11.6 56.6 1-.2-11.6-56.6-1 .2zm2.3-3.6c-1.6.3-2.7 1.9-2.3 3.5l1-.2c-.2-1.1.5-2.1 1.6-2.4l-.3-.9zm3.6 2.3c-.3-1.6-1.9-2.7-3.5-2.3l.2 1c1.1-.2 2.1.5 2.4 1.6l.9-.3zm11.3 55.3l-11.3-55.2-1 .2 11.3 55.2 1-.2zm68.5-36.2l-69.2 35.8.5.9 69.2-35.8-.5-.9zm23.6-36.9c-.5-1.6-2.2-2.4-3.8-1.9l.3.9c1-.4 2.2.2 2.5 1.2l1-.2zm-1.9 3.8c1.6-.5 2.4-2.2 1.9-3.8l-.9.3c.4 1-.2 2.2-1.2 2.5l.2 1zm-25.1 8.7l25.1-8.7-.3-.9-25.1 8.7.3.9zm8.6 22.4l-8.3-23-.9.3 8.3 23 .9-.3zm64.2 53.3c1.5-.6 2.3-2.4 1.7-3.9l-.9.4c.4 1-.1 2.2-1.1 2.6l.3.9zm-3.9-1.6c.6 1.5 2.4 2.3 3.9 1.7l-.4-.9c-1 .4-2.2-.1-2.6-1.1l-.9.3zm-24.2-59.5l24.2 59.5.9-.4-24.2-59.5-.9.4zm-10 155.8l10.9-156-1-.1-10.9 156 1 .1zm38.9 2.2l-39.4-2.7-.1 1 39.4 2.7.1-1zm.1 5.6l.4-5-1-.1-.4 5 1 .1zm-44.6-2.7l44.1 3.1.1-1-44.1-3.1-.1 1zm-.2.2c.2-.1.4-.2.5-.3l-.6-.8c-.1.1-.2.1-.3.2l.4.9zm-3.4-.6c.9.8 2.2 1.1 3.3.6l-.4-.9c-.8.3-1.7.2-2.2-.4l-.7.7zm-2.1-.1l2.4.2.1-1-2.4-.2-.1 1zm-1 .1c.3-.1.7-.1 1-.1l.1-1c-.4 0-.9 0-1.3.1l.2 1zm-83.9 21.4l83.9-21.4-.2-1-83.9 21.4.2 1zm2.9 10.9L527-129l-1 .2 2.5 11.6 1-.3zm0 4.1c.3-1.3.3-2.7.1-4l-1 .2c.3 1.2.2 2.4 0 3.6l.9.2zm6.6-2.6l-7.3 1.9.3 1 7.3-1.9-.3-1zm10.8 5.8c-1.6-4.4-6.2-6.9-10.8-5.7l.3 1c4-1.1 8.2 1.2 9.6 5.1l.9-.4zm1.2 3.3l-1.2-3.3-.9.3 1.2 3.3.9-.3zm-5.1 2.3l4.7-1.7-.3-.9-4.7 1.7.3.9zm-1.8-3.6l1.2 3.3.9-.3-1.2-3.3-.9.3zm-3.5-1.9c1.5-.4 3.1.4 3.6 1.9l.9-.3c-.7-2-2.8-3.1-4.8-2.5l.3.9zm-26.8 7l26.8-7-.3-1-26.8 7 .3 1zm12.2 43.2l-11.8-43.9-1 .3 11.8 43.9 1-.3zM564-71.6l-41.6 11.4.3 1 41.6-11.4-.3-1zm7.6-19.7c-1-1.3-2.9-1.5-4.2-.5l.6.8c.9-.7 2.1-.5 2.8.3l.8-.6zm-.5 4.2c1.3-1 1.5-2.9.5-4.2l-.8.6c.7.9.5 2.1-.3 2.8l.6.8zm-5.6 4.4l5.6-4.4-.6-.8-5.6 4.4.6.8zm4 10l-3.8-10.6-.9.3 3.8 10.6.9-.3zm93.3-19l-1.3-4.8-1 .3 1.3 4.8 1-.3zM613.9-79l48.6-12-.2-1-48.6 12.1.2.9zM606-51.2l8.2-28.2-1-.3-8.2 28.2 1 .3zm55.9 11.8l-56.2-12.4-.2 1 56.2 12.4.2-1zm-.7 5.5l1.1-4.9-1-.2-1.1 4.9 1 .2zM604-46l56.5 12.5.2-1L604.3-47l-.3 1zm-3.3 13.1l3.9-13.5-1-.3-3.9 13.5 1 .3zm-2.1 35.7l2.1-35.8-1-.1-2.1 35.8 1 .1zm20.7.3l-21.2-.8v1l21.2.8v-1zm45.9 0h-46v1h46v-1zm.5 5.5v-5h-1v5h1zm-69.1 27.2l1.7-28-1-.1-1.7 28 1 .1zm64.2.8l-64.7-1.3v1l64.7 1.3v-1zm.4 5.5l.1-5h-1l-.1 5h1zm-65.4-.8l64.9 1.3v-1l-64.9-1.3v1zm-3.7 70l4.2-70.5-1-.1-4.2 70.5 1 .1zm26.1 9.4l-26.5-9.9-.4.9 26.5 9.9.4-.9zm44 12.1l-44.1-12.1-.3 1 44.1 12.1.3-1zm-1 5.4l1.3-4.8-1-.3-1.3 4.8 1 .3zm-69.5-21.6l-1-.1v.1h1zm70 154.5h-74.6v1h74.6v-1zm.5 5.5v-5h-1v5h1zm-75.7.5h75.3v-1h-75.3v1zm-5.8 45.9l6.2-46.3-1-.1-6.2 46.3 1 .1zm-5.5-.3l5 .7.1-1-5-.7-.1 1zm5.7-46.2l-6.2 45.7 1 .1 6.2-45.7-1-.1zm-27.4.6h27.9v-1h-27.9v1zm-5.9-2.3c1.6 1.4 3.7 2.2 5.9 2.2v-1c-1.9 0-3.8-.7-5.3-2l-.6.8zm-57.9-50.6l57.8 50.6.7-.8-57.8-50.6-.7.8zm-.5-.3c.2.1.4.2.5.4l.7-.8c-.2-.2-.4-.3-.7-.5l-.5.9zm-7.4-4.2l7.5 4.1.5-.9-7.5-4.1-.5.9zm-1.5-.5c.7.2 1.1.3 1.4.5l.5-.9c-.4-.2-.9-.4-1.7-.6l-.2 1zm-6.1-3.6c2 1.9 4.2 3.1 6.2 3.6l.3-1c-1.8-.5-3.9-1.6-5.7-3.4l-.8.8zm-1-.3c.3.1.7.3 1.2.4l.3-1c-.4-.1-.7-.3-1.1-.4l-.4 1zm-3.3-1.6c1.2.6 2.4 1.2 3.3 1.6l.4-.9c-.9-.4-2-.9-3.3-1.6l-.4.9zm-8.7-5c3.2 1.9 6.2 3.7 8.7 5l.5-.9c-2.4-1.3-5.5-3-8.6-5l-.6.9zm-16.1-10.3c4.5 3 10.5 6.9 16 10.2l.5-.9c-5.5-3.3-11.5-7.2-16-10.2l-.5.9zm19.2 5.2c-5.4-3.3-11.3-7.1-15.8-10.1l-.6.8c4.5 3 10.4 6.8 15.8 10.1l.6-.8zm5.8 3.4c-1.8-1-3.7-2.2-5.8-3.4l-.5.9c2.1 1.3 4 2.4 5.8 3.4l.5-.9zm-1.9-7.4c0 3.1.4 5.7 1.1 8l1-.3c-.7-2.2-1.1-4.7-1.1-7.7h-1zm0-22v22h1v-22h-1zm-1.2-11.7c.8 4.3 1.2 8.9 1.3 11.7h1c-.1-2.9-.5-7.5-1.3-11.9l-1 .2zm-1.6-5.9c.6 1.7 1.1 3.7 1.5 5.8l1-.2c-.4-2.2-.9-4.3-1.6-6l-.9.4zm-1.3-2.8c.4.6.9 1.5 1.4 2.8l.9-.3c-.5-1.3-1-2.3-1.5-3l-.8.5zm-.6.7c.5-.2.9-.4 1.2-.5l-.3-1c-.3.1-.8.3-1.3.5l.4 1zm-4.7 2.7c1.5-1 3.2-2 4.7-2.7l-.5-.9c-1.5.7-3.3 1.8-4.8 2.8l.6.8zm-4.6 1.6c1.7-.1 3.2-.7 4.6-1.5l-.5-.8c-1.2.8-2.6 1.3-4.1 1.4v.9zm-27.4 1.7l27.5-1.7-.1-1-27.5 1.7.1 1zm.4 16.1v-16.6h-1V180h1zm-4.6 7.9c2.8-1.6 4.6-4.6 4.6-7.9h-1c0 2.9-1.6 5.6-4.1 7l.5.9zm-8.8 4.9l8.8-4.9-.5-.9-8.8 4.9.5.9zm0-.9l-.4.9.4-.9zm-.9 6.7c-.1-2 .5-4.4 1.1-6.1l-.9-.3c-.6 1.7-1.2 4.3-1.2 6.4h1zm.4 2.1c-.2-.4-.4-1-.4-2h-1c0 1.1.2 1.9.5 2.5l.9-.5zm.7.4c-.2 0-.3-.1-.4-.2-.1-.1-.2-.2-.2-.3l-.9.5c.1.2.3.4.5.6.2.2.5.3.8.4l.2-1zm7-.3c-3 .5-5.6.7-7 .3l-.2 1c1.7.4 4.4.3 7.4-.3l-.2-1zm8.2-2c-2.2.7-5.3 1.6-8.2 2.1l.2 1c3-.5 6-1.4 8.3-2.1l-.3-1zm.6-.4s-.1.2-.7.4l.3 1c.8-.2 1.1-.6 1.3-1l-.9-.4zm.4-3c.2 1.2 0 2.2-.3 3l.9.4c.4-.9.7-2.2.4-3.6l-1 .2zm5.2 5.3c.9-2.1 1.5-5.3.1-8.6l-.9.4c1.2 3 .7 5.9-.1 7.8l.9.4zm-4.4 3.8c1.6-.5 3.4-1.6 4.3-3.7l-.9-.4c-.8 1.8-2.3 2.7-3.7 3.2l.3.9zm-9 2.3c3.3-.6 6.6-1.5 9-2.3l-.3-1c-2.4.8-5.6 1.7-8.9 2.3l.2 1zm-9.5.2c2.8.7 6.4.4 9.5-.2l-.2-1c-3.1.6-6.5.9-9.1.2l-.2 1zm-4.4-3.4c.9 1.6 2.4 2.9 4.4 3.4l.2-1c-1.8-.4-3-1.5-3.8-2.9l-.8.5zm-1.2-4.8c0 1.5.3 3.2 1.1 4.7l.9-.5c-.7-1.3-1-2.9-1-4.3l-1 .1zm.2-3.2c-.1 1-.2 2.1-.2 3.2h1c0-1 0-2 .2-3l-1-.2zm-4.9 3.7l5.7-3.2-.5-.9-5.7 3.2.5.9zm-20.5 122.3L402.5 199l-1-.2-20.8 122.6 1 .2zm-7 .4h6.5v-1h-6.5v1zm21.9-124.3l-22.3 123.7 1 .2L397.6 198l-1-.3zm-14.8-16.3l14.9 16.7.7-.7-14.9-16.7-.7.7zm-81.9 3.6l82.3-3.5v-1l-82.3 3.5v1zm-.8-5.4l.2 5h1l-.2-5h-1zm120.6 3.1l-19.6 10.9.5.9 19.5-10.9-.4-.9zm1.5-2.7c0 1.1-.6 2.1-1.5 2.6l.5.9c1.3-.7 2-2 2-3.5h-1zm0-16.3V180h1v-16.3h-1zm-43.3 3.3l43.9-2.8-.1-1-43.9 2.8.1 1zm-42.5 2l41.4-2.9-.1-1-41.4 2.9.1 1zm-.8-5.4l.4 5 1-.1-.4-5-1 .1zm41.8-3.5l-41.3 2.9.1 1 41.3-2.9-.1-1zm37.6-31.8l6.9 24.3 1-.3L415 128l-1 .3zm12.9 23.1l-7.1-24.8-1 .3 7.1 24.8 1-.3zm34.9-8.7l-35.4 8.4.2 1 35.5-8.4-.3-1zm4.7-5c-1.5 2.4-3.2 4.1-4.9 5l.5.9c1.9-1 3.7-2.9 5.3-5.4l-.9-.5zm3.8-8.9c-.9 3.3-2.2 6.4-3.7 8.9l.8.5c1.6-2.6 2.9-5.8 3.9-9.2l-1-.2zm.2-17.6c.8 1.9 1.2 4.6 1.2 7.7 0 3.1-.5 6.5-1.4 9.9l1 .3c.9-3.5 1.4-7 1.4-10.1 0-3.2-.4-6-1.3-8.1l-.9.3zm-.2-.4l.2.5.9-.4-.2-.5-.9.4zm-.1-.7v.5h1v-.5h-1zm-.1-21.8c.1 9 .1 16.8.1 21.7h1c0-4.9-.1-12.7-.1-21.7h-1zm-32.9 17.9l-.7-13.6-1 .1.7 13.6 1-.1zm2.3 1.4l-2.5-1.8-.6.8 2.5 1.8.6-.8zm.7 4.2c1-1.3.7-3.2-.7-4.2l-.6.8c.9.6 1.1 1.9.5 2.8l.8.6zm-4.2.7c1.3 1 3.2.7 4.2-.7l-.8-.6c-.6.9-1.9 1.1-2.8.5l-.6.8zM298 91.8l1.5 4.8 1-.3-1.5-4.8-1 .3zm88.8-28.1l-88.4 27.5.3 1L387 64.7l-.2-1zm82.6-32.8l-82.6 32.9.4.9 82.6-32.9-.4-.9zm-6.3-21.7c2.2 8.4 4.3 15.9 6 22.3l1-.3c-1.7-6.4-3.7-13.9-6-22.3l-1 .3zM295.4 64.9l1.7 4.7.9-.3-1.7-4.7-.9.3zm59.4-21.2l-59.1 20.5.3.9 59.1-20.5-.3-.9zm-5.5-20.9l5.2 21.5 1-.2-5.2-21.5-1 .2zm-49.4 10.7l50-10.3-.2-1-50 10.3.2 1zm-1.7-5.3l1 4.9 1-.2-1-4.9-1 .2zm49.2-10.6l-48.8 10 .2 1 48.8-10-.2-1zm-4-29.8l3.6 30.4 1-.1-3.6-30.4-1 .1zm-.3-.1l.4.4.7-.7-.4-.4-.7.7zM300-8l43.5-4.2-.1-1L299.9-9l.1 1zm-1-5.4l.5 5 1-.1-.5-5-1 .1zm40-4.3l-39.5 3.8.1 1 39.5-3.8-.1-1zm-40.9-40.6l40.6 41.5.7-.7L298.8-59l-.7.7zm.9-8.2l-1 7.7 1 .1 1-7.7-1-.1zm46.8 48.3l-45.9-48.6-.7.7L345-17.5l.8-.7zm0-.2h-.5l.1 1h.5l-.1-1zm105.5-19l-105.5 19 .2 1 105.5-19-.2-1zm-8.6-30.4c2.8 10.7 5.6 21.1 8.2 31l1-.3c-2.6-9.9-5.4-20.3-8.2-31l-1 .3zm-56.4 12.3l56.9-11.9-.2-1-56.9 11.9.2 1zm-3.5-2.3c.3 1.6 1.9 2.7 3.6 2.3l-.2-1c-1.1.2-2.1-.5-2.4-1.5l-1 .2zm2.3-3.6c-1.6.3-2.7 1.9-2.3 3.5l1-.2c-.2-1.1.5-2.1 1.5-2.4l-.2-.9zm56.7-11.8l-56.7 11.8.2 1L442-72.2l-.2-1zM411-188.6c9.5 36.3 20.4 77.7 30.5 116l1-.3c-10.1-38.3-21-79.7-30.5-116l-1 .3zm-14.8 3.3l15.4-3-.2-1-15.4 3 .2 1zm-1.3.6c.4-.3.8-.5 1.2-.5l-.2-1c-.6.1-1.2.4-1.6.7l.6.8zm-6.6 5l6.6-5-.6-.8-6.6 5 .6.8zm11 43.7l-10.9-44.2-1 .2 10.9 44.2 1-.2zm1.5 5.3l-1.4-5.4-1 .3 1.4 5.4 1-.3zm4.3-1.7l-5 1.4.3 1 5-1.4-.3-1zm10.9 5.6c-1.6-4.4-6.3-6.8-10.8-5.6l.3 1c4-1.1 8.2 1.1 9.6 5l.9-.4zm8.2 22.5l-8.2-22.5-.9.3 8.2 22.5.9-.3zm-13.9-20.4l8.2 22.5.9-.3-8.2-22.5-.9.3zm-3.6-1.9c1.5-.4 3.1.4 3.6 1.9l.9-.3c-.7-2-2.8-3-4.8-2.5l.3.9zm-36.3 10l36.3-10-.3-1-36.3 10 .3 1zm3 5.1l-2.7-5.9-.9.4 2.7 5.9.9-.4zm-8.4-4.1l3 6.6.9-.4-3-6.6-.9.4zm-1.6.9l2.1-.6-.3-1-2.1.6.3 1zm31.8-15l-33.4 9.2.3 1 33.4-9.2-.3-1zm-1.7-4.8l1.3 5.5 1-.2-1.3-5.5-1 .2zm-11-41.7l11 41.7 1-.3-11-41.7-1 .3zm-19 15.1l19.8-14.9-.6-.8-19.8 14.9.6.8zm-11.5-.5c3.2 2.9 8 3.2 11.5.6l-.6-.8c-3.1 2.3-7.4 2.1-10.2-.5l-.7.7zm-55.6-49l55.6 49 .7-.8-55.6-48.9-.7.7zm-.2-9.9v9.6h1v-9.6h-1zm59.9 54.5l-59-54.9-.7.7 59 54.9.7-.7zm3.8.1c-1.2.9-2.8.8-3.8-.2l-.7.7c1.4 1.3 3.6 1.4 5.1.3l-.6-.8zm21.4-16.1l-21.4 16.1.6.8 21.4-16.1-.6-.8zm-4-14l3.8 14.5 1-.3-3.8-14.5-1 .3zm-8.2-25.2l8.2 25.3 1-.3-8.2-25.3-1 .3zm-72.6-49.6l72.9 49.8.6-.8-73-49.8-.5.8zm-.3-6.9v6.5h1v-6.5h-1zm71 47.8L297-278.1l-.6.8 70.2 48.2.6-.8zm-17.9-52.3l17.2 52.8 1-.3-17.2-52.8-1 .3zm3.6-10.3c-3.4 2.2-4.8 6.4-3.6 10.3l1-.3c-1.1-3.4.2-7.2 3.2-9.1l-.6-.9zm25.1-16.6l-25.1 16.6.6.8 25.1-16.6-.6-.8zm-3.5-14.5l3.3 15 1-.2-3.3-15-1 .2zm5.1-2l-4.8 1.4.3 1 4.8-1.4-.3-1zm-.3 22.1l15 51.4 1-.3-15-51.4-1 .3zm15 51.3c4.2 16 9.5 36.3 15.3 58.7l1-.3c-5.9-22.4-11.2-42.7-15.3-58.7l-1 .3zm15.8 58.1l-15 2.9.2 1 15-2.9-.2-1zm-15.1 2.9c-1.3.3-2.6.8-3.7 1.6l.6.8c1-.7 2.1-1.2 3.3-1.5l-.2-.9zm-3.7 1.7l-5 3.8.6.8 5-3.8-.6-.8zm-4.2 4l-4-12.2-1 .3 4 12.2 1-.3zm-4-12.1l-5.9-22.5-1 .3 5.9 22.5 1-.3zm-5.9-22.6c-.5-1.8-1.5-3.5-3-4.7l-.6.8c1.3 1.1 2.2 2.5 2.7 4.1l.9-.2zm-2.9-4.4L355-284l-1 .3 19.3 59.4 1-.3zM355-284c-.4-1.3.1-2.7 1.2-3.4l-.6-.8c-1.5 1-2.2 2.9-1.6 4.6l1-.4zm1.2-3.5l23.9-15.8-.6-.8-23.9 15.8.6.8zm90.6 257l5.9-1.1-.2-1-5.9 1.1.2 1zm.4 13.3V-31h-1v13.7h1zm4.4 19.7l-4.4-19.8-1 .2 4.4 19.8 1-.2zm-9.7-16.1l3.8 17.3 1-.2-3.8-17.3-1 .2zm-25.4 9.4l26.1-9-.3-.9-26.1 9 .3.9zm7.2 24l-6.9-24.6-1 .3 6.9 24.6 1-.3zm38.4-16.1l-39 15.8.4.9 39-15.8-.4-.9zm-9.9-35.6c3.5 13.1 6.7 25.3 9.6 36.2l1-.3c-2.9-10.9-6.1-23.1-9.6-36.2l-1 .3zm22.5 61.3C473 23 471 15.5 468.7 7l-1 .3c2.3 8.4 4.3 16 6 22.4l1-.3zm-.3-.5l-.4.1.3.9.4-.1-.3-.9zm-6.5-21.7l6.2 22.2 1-.3L468.9 7l-1 .2zm.5.4l.2-.1-.4-.9-.2.1.4.9zm-1.6-5.8h-.1l.4.9h.1l-.4-.9zm.6.4c-.8-3-1.6-6.1-2.5-9.3l-1 .3c.8 3.2 1.7 6.3 2.5 9.3l1-.3zM464-6.9l2.6 9.2 1-.3-2.6-9.2-1 .3zm15.8 34.5l-6.3-22.5-1 .3 6.3 22.5 1-.3zm4-2l-4.7 1.7.3.9 4.7-1.7-.3-.9zm-7-22l6.7 22.6 1-.3-6.7-22.6-1 .3zm-3.6 2.1l4.2-1.7-.3-1-4.2 1.7.3 1zm2.5-7.5l-4.2 1.7.4.9 4.2-1.7-.4-.9zm-3.5 2l-10-36-1 .3 10 36 1-.3zm-10.3-35.4l3.5-1.7-.4-.9-3.5 1.7.4.9zm2.8-2l10.7 36 1-.3-10.7-36-1 .3zm24.5 62.1l-6.8-23.4-1 .3 6.8 23.4 1-.3zm38-14.8l-38.6 14.5.3.9L527.5 11l-.3-.9zm-3.5-22l3.1 22.5 1-.1-3.1-22.5-1 .1zm-30 9.3l30.7-8.9-.3-1-30.7 8.9.3 1zm-11.6 4.7l11.6-4.7-.4-.9-11.6 4.7.4.9zM532.2 9l-2.6-22.6-1 .1 2.6 22.6 1-.1zm63-57l4 .9.2-1-4-.9-.2 1zm-8.7 15.5l9.2-15.8-.9-.5-9.1 15.8.8.5zm-5.2 4.1c2.2-.6 4.1-2.1 5.2-4.1l-.9-.5c-1 1.8-2.7 3.1-4.7 3.6l.4 1zm-52 15.3l52-15.3-.3-1L529-14l.3.9zm59.3-34.8l-7.2 12.4.9.5 7.2-12.4-.9-.5zm-7.3 12.4c-.4.7-1 1.1-1.7 1.4l.3 1c1-.3 1.8-.9 2.3-1.8l-.9-.6zm-1.7 1.3l-51.3 15.1.3 1 51.3-15.1-.3-1zM529-18.6l-1.8-12.9-1 .1 1.8 12.9 1-.1zM526.8-31l62.3-16.2-.3-1L526.6-32l.2 1zm74-21.9l-2.7-.6-.2 1 2.7.6.2-1zm2.5-10.3l-3.1 10.6 1 .3 3.1-10.6-1-.3zm-4.9 10.4l5.8-10-.9-.5-5.8 10 .9.5zm7.6-25l-13.9 23.9.9.5 13.9-23.9-.9-.5zm-13.6 23.6c-.3 0-.6.1-.9.2l.3 1c.3-.1.5-.1.8-.2l-.2-1zm-.8.2l-65.7 17 .3 1 65.7-17-.3-1zm-65.1 17.5L524-54.9l-1 .1 2.5 18.3h1zm-2.8-17.8l80.8-22.2-.3-1-80.8 22.2.3 1zm80.8-22.2l-.2-1 .2 1zm0-.1l2.1-.5-.3-1-2.1.5.3 1zm-86.3 22.7l2.4 18.7 1-.1-2.4-18.7-1 .1zm2.8 18.2l-31.9 8.3.3 1 31.9-8.3-.3-1zm-31.2 8.6l-2.2-7.2-1 .3 2.2 7.2 1-.3zm-2.8-7.5l-4.8 1.4.3 1 4.8-1.4-.3-1zm-5.1 2l7.7 25.7 1-.3-7.7-25.7-1 .3zm8 25.1l-9.6 3.9.4.9 9.6-3.9-.4-.9zM481-3.3l-10.8-36.4-1 .3L480-3.1l1-.2zm-11.1-35.9l3.6-1.8-.4-.9-3.6 1.8.4.9zm3.6-1.8c.2-.1.4-.2.6-.2l-.3-1c-.3.1-.5.2-.8.3l.5.9zm.6-.2l44.8-12.3-.3-1-44.8 12.3.3 1zm49.4 23.6l-28.8 8.5.3 1 28.8-8.5-.3-1zm-2.2-12.5l1.8 13.1 1-.1-1.8-13.1-1 .1zm-30.4 8.4l31.1-8.1-.3-1-31.1 8.1.3 1zm4.4 12.9l-4.1-13.5-1 .3 4.1 13.5 1-.3zM573 7.4l19.7.7v-1L573 6.4v1zm-1.6 27.9l2.2-28.4-1-.1-2.2 28.4 1 .1zm19.7-.1l-20.2-.4v1l20.2.4v-1zm1.2-27.6l-1.7 28.1 1 .1 1.7-28.1-1-.1zm-56.4 32.5l54.9 1.1v-1l-54.9-1.1v1zm1.8 50.6l-5-6.5-.8.6 5 6.5.8-.6zm49.1 18.3l-49.4-18.5-.4.9 49.4 18.5.4-.9zm3.5-68.4l-4.1 68.8 1 .1 4.1-68.8-1-.1zM476.9 88.3l49.4-3-.1-1-49.4 3 .1 1zm-.4 16.3l.8-16.8h-1l-.8 16.8h1zm2.6 3.1c-1.6-.2-2.7-1.5-2.6-3.1h-1c-.1 2.1 1.4 3.9 3.5 4.2l.1-1.1zm8.6.9c-2.6-.3-5.7-.6-8.5-.9l-.1 1c2.9.3 6 .7 8.5.9l.1-1zm5 .5c-.5 0-2.4-.2-5.1-.4l-.1 1c2.6.3 4.6.4 5.2.4v-1zm.5 1.4v-.9h-1v.9h1zm2.1-2.1c-1 .5-1.9 1.1-2.8 1.6l.5.8c.9-.6 1.8-1.1 2.7-1.6l-.4-.8zm15.9-9.4l-15.9 9.5.5.9 15.9-9.5-.5-.9zm17.5-11.1L511.2 99l.5.8 17.5-11.1-.5-.8zm3.3 4.4l-2.7-4.2-.8.5 2.6 4.2.9-.5zm-33.8 21.4l-.4-.9.4.9zm-29.1 39.9c5-13.9 12.7-30.9 29.1-39.9l-.5-.9c-16.8 9.1-24.6 26.5-29.6 40.4l1 .4zm-1.4 0l.8.3.3-.9-.8-.3-.3.9zm3.4 4.4c-.7-1.9-1.6-3.7-2.9-5.2l-.7.7c1.2 1.3 2 3 2.7 4.8l.9-.3zm1.8 6.7c-.4-2.3-1-4.7-1.8-6.8l-.9.3c.7 2 1.3 4.3 1.8 6.6l.9-.1zm1.3 12.8c-.1-3.1-.5-8-1.4-12.7l-1 .2c.9 4.6 1.3 9.5 1.3 12.6l1.1-.1zm0 0h-1 1zm7.8 35.9c-1.3-.4-3.2-1.4-4.8-3.5-1.6-2.1-2.9-5.4-2.9-10.4h-1c0 5.2 1.4 8.7 3.1 11 1.7 2.3 3.9 3.4 5.3 3.9l.3-1zm2.7 1.1c-1-.5-2-.8-2.7-1l-.3 1c.7.2 1.6.5 2.5 1l.5-1zm7.4 4.1l-7.5-4.1-.5.9 7.5 4.1.5-.9zm1.6 1.1c-.5-.4-1-.8-1.6-1.1l-.5.9c.5.3 1 .6 1.4 1l.7-.8zm57.8 50.6l-57.8-50.6-.7.8 57.8 50.6.7-.8zm2 .8c-.7 0-1.4-.3-2-.7l-.7.8c.7.6 1.7 1 2.6 1v-1.1zm28.6 0h-28.6v1h28.6v-1zm7.1-56.2l-7.6 56.6 1 .1 7.6-56.6-1-.1zm-125.5-62.7l.4.2.3-.9-.4-.2-.3.9zm1.6-5.7c-.7 1.7-1.3 3.5-1.9 5.1l.9.3c.6-1.6 1.2-3.3 1.9-5.1l-.9-.3zm-1.2 1.7c.7-.3 1.4-.7 2-1.2l-.6-.8c-.6.4-1.2.8-1.9 1.1l.5.9zm-.3.2l.3-.1-.4-.9-.3.1.4.9zm-36.6 10v-1.7h-1v1.7h1zm26.7-2.2l-27.1 1.7.1 1 27.1-1.7-.1-1zm1.6-.6c-.5.3-1.1.5-1.6.6l.1 1c.7 0 1.5-.3 2.1-.7l-.6-.9zm5.4-3.1c-1.8.9-3.9 2.1-5.4 3.1l.5.8c1.6-1 3.5-2.2 5.3-3.1l-.4-.8zm2.9-1c-1 .2-2 .6-2.9 1l.4.9c.9-.4 1.8-.8 2.6-.9l-.1-1zm-42.6 5.9v1.3h1v-1.3h-1zm-25.8 3.5l26.4-3-.1-1-26.4 3 .1 1zm26.3-2.7l-26.4 1.7.1 1 26.4-1.7-.1-1zm65.6-44.4c-4.4 3.6-8.1 7.7-11.2 12.1l.8.6c3.1-4.3 6.7-8.4 11-11.9l-.6-.8zm-.2.8h.5l.1-1h-.5l-.1 1zm-8.6-.9c2.9.3 6 .7 8.6.9l.1-1c-2.6-.3-5.7-.6-8.6-.9l-.1 1zm-2-.5c.6.2 1.3.4 2 .5l.1-1c-.6-.1-1.2-.2-1.8-.4l-.3.9zm.5 13c.8-4.7.9-9.5.1-13.6l-1 .2c.8 3.9.7 8.6-.1 13.2l1 .2zm-.5-43.4l1.7-49.2h-1l-1.7 49.2h1zm46-3.3L476 82.3l.1 1 46.5-2.8-.1-1zM477.9 34l7.7-2.7-.3-.9-7.7 2.7.3.9zm12.8-2.6l-.4-1.2-1 .3.4 1.2 1-.3zm38.2 47.9l-38.3-48.1-.8.6L528.1 80l.8-.7zm6.5-.6l-6.9.4.1 1 6.9-.4-.1-1zm-8.2-62.6l7.7 63.2 1-.1-7.7-63.2-1 .1zm-37.1 14.7L528 16.5l-.4-.9-37.9 14.3.4.9zm45.7 3.7L533.4 14l-1 .1 2.4 20.5 1-.1zm30.1.2l-30.6-.6v1l30.6.6v-1zm1.7-28l-2.2 28.5 1 .1 2.2-28.5-1-.1zm-3.1.4l3.6.1v-1l-3.6-.1v1zM533 14.6L564.6 7l-.2-1-31.6 7.5.2 1.1zm-62.5 67.7l-14 2.2.2 1 14-2.2-.2-1zM457.1 85l-2.8-42-1 .1 2.8 42 1-.1zM454 43.4l19-7.9-.4-.9-19 7.9.4.9zm-54.1 21.5l30-11.9-.4-.9-30 11.9.4.9zm.3 7.6v-8h-1v8h1zm13-1.8L399.7 72l.1 1 13.5-1.3-.1-1zm.5-.2c-.2.1-.3.2-.6.2l.1 1c.4 0 .8-.2 1.1-.5l-.6-.7zm1.2-1l-1.1 1 .7.8 1.1-1-.7-.8zm4.9-2.1c-1.8.2-3.5.9-4.9 2.1l.7.8c1.2-1.1 2.7-1.7 4.4-1.9l-.2-1zm9.8-1.1l-9.8 1.1.1 1 9.8-1.1-.1-1zm-.5.3v.3l1-.1v-.3l-1 .1zm.5-.6h-.1l.2 1h.1l-.2-1zm-.4-13.5v14h1v-14h-1zm.2 19.3l.8 16.3 1-.1-.8-16.3-1 .1zm1.3 15.8l-31 3.2.1 1 31-3.2-.1-1zm-30.5 3.7V77.5h-1v13.8h1zm-.4-13.3l14-1.4-.1-1-14 1.4.1 1zm14-1.3c1.4-.1 2.8-.7 3.9-1.7l-.7-.8c-.9.8-2.1 1.3-3.3 1.4l.1 1.1zm3.8-1.7l1.1-1-.7-.8-1.1 1 .7.8zm1.2-1c.5-.4 1-.6 1.6-.7l-.1-1c-.8.1-1.6.4-2.2.9l.7.8zm1.6-.7l9.5-1-.1-1-9.5 1 .1 1zm15.5 13.8h-.2l.1 1h.2l-.1-1zm15.7-2L435.9 87l.1 1 15.7-1.9-.1-1zm-1.7-17.6l1.2 18.2 1-.1-1.2-18.2-1 .1zm-15 3.6l15.6-3.1-.2-1-15.6 3.1.2 1zm1.3 16.5l-.9-17-1 .1.9 17 1-.1zM450 61.9L434.6 65l.2 1 15.3-3.1-.1-1zm-14.8 3.6V52.2h-1v13.3h1zm-.3-12.8l14.2-6-.4-.9-14.2 6 .4.9zm13.6-6.5l1.1 16.2 1-.1-1.1-16.2-1 .1zM411.1-2.9l6.9 24.7 1-.3-6.9-24.7-1 .3zM380.3 8.4l31.4-10.9-.3-.9L380 7.4l.3 1zm-24.8 11l24.9-11.1-.4-.9-24.9 11.1.4.9zm-.6 1.2c-.1-.5.1-1 .6-1.1l-.4-.9c-.9.4-1.4 1.4-1.1 2.3l.9-.3zm5.3 21.8L355 20.6l-1 .2 5.2 21.8 1-.2zm58.2-21.2L359.5 42l.3.9 58.8-20.8-.2-.9zm23.2-40.4L381.4 1.6l.3.9 60.2-20.8-.3-.9zm-.4-10.9v11.3h1v-11.3h-1zm-92.3 17.2l93-16.7-.2-1-93 16.7.2 1zm3.8 27.9l-3.4-28.4-1 .1 3.4 28.4 1-.1zm.3-1c-.4.2-.8.4-1.2.7l.6.8c.3-.2.7-.4 1-.6l-.4-.9zm23.6-10.6L353 14l.4.9L377 4.3l-.4-.9zm-3.3-10.6l3 11.2 1-.3-3-11.2-1 .3zm2.2-3.6c-1.6.4-2.5 2.1-2.1 3.7l1-.3c-.3-1.1.3-2.2 1.4-2.5l-.3-.9zm3.6 2.1c-.4-1.6-2.1-2.5-3.7-2.1l.3 1c1.1-.3 2.2.3 2.5 1.4l.9-.3zM382 2l-2.9-10.7-1 .3L381 2.3l1-.3zm127.9-110.6l-4.1-15.1-1 .3 4.1 15.1 1-.3zm-4.4-14.5l16.3-4.2-.2-1-16.3 4.1.2 1.1zm15.7-4.5l2.5 11.4 1-.2-2.5-11.4-1 .2zm2.4 11.4c.3 1.5-.6 3-2.1 3.5l.3 1c2-.6 3.2-2.6 2.7-4.7l-.9.2zm-2 3.5l-12.3 3.8.3 1 12.3-3.8-.3-1zm74.3-39.6L504-128.9l.2 1 91.9-23.4-.2-1zM556-247.8l39.6 96.2.9-.4-39.6-96.2-.9.4zm1.6-3.9c-1.5.6-2.3 2.4-1.6 3.9l.9-.4c-.4-1 .1-2.2 1.1-2.6l-.4-.9zm3.9 1.6c-.6-1.5-2.4-2.3-3.9-1.6l.4.9c1-.4 2.2.1 2.6 1.1l.9-.4zm39.8 96.9l-39.8-96.9-.9.4 39.8 96.9.9-.4zm7.7-2.4l-8.3 2.1.2 1 8.3-2.1-.2-1zm2.5-.3c-.8 0-1.6.1-2.4.3l.2 1c.7-.2 1.4-.3 2.2-.2v-1.1zm-48.1-105.2L611-155.2l.9-.4-47.6-105.9-.9.4zm-56.1 20.4l56.7-20.2-.3-.9-56.7 20.2.3.9zm14.8 44.8l-14.5-45.4-1 .3 14.5 45.5 1-.4zm-2 3.8c1.6-.5 2.5-2.2 1.9-3.8l-1 .3c.3 1.1-.2 2.2-1.3 2.5l.4 1zm-3.7-1.9c.5 1.6 2.2 2.5 3.8 1.9l-.3-1c-1.1.3-2.2-.2-2.5-1.3l-1 .4zm-16.8-52.9l16.8 52.8 1-.3-16.8-52.8-1 .3zm-23.9 13l24.6-12.7-.5-.9-24.6 12.7.5.9zm10.9 38.9L476-234.4l-1 .3 10.6 39.4 1-.3zm-.3-.4c-.1 0-.2 0-.3.1l.2 1h.2l-.1-1.1zm18.2 66.9l-2.5-9.1-1 .3 2.5 9.1 1-.3zm-4-14.4c-.1 0-.3.1-.4.1l.4.9c.1 0 .2-.1.3-.1l-.3-.9zm6.2-1.4l-6.1 1.4.2 1 6.1-1.4-.2-1zm-9.9-47.2l9.6 47.8 1-.2-9.6-47.8-1 .2zm-9.3 2l9.8-1.6-.2-1-9.8 1.6.2 1zm13.3 47.1l-12.9-47.8-1 .3 12.9 47.8 1-.3zm5.3-103.7l-1.1-3.4-1 .3 1.1 3.4 1-.3zm111.3 90.7h-.2l-.1 1h.2l.1-1zm10.5-158L616.8-155l1 .1 11.1-158.5h-1zm-105.3 55.3L628.7-313l-.5-.9L522.1-259l.5.9zm-1.1.6c.4-.1.8-.3 1.2-.6l-.6-.8c-.2.2-.5.3-.8.4l.2 1zm-16.7 8.6l16.8-8.7-.5-.9-16.8 8.7.5.9zm-64.9 110.8l1.4 4.8 1-.3-1.4-4.8-1 .3zm27.2-8.1l-26.8 7.4.3 1 26.8-7.4-.3-1zm-47.2-175.9l46.8 176.5 1-.3-46.8-176.5-1 .3zm5.2-1.8l-4.8 1.3.3 1 4.8-1.3-.3-1zm166.6 191.8l8 23.9.9-.3-8-23.9-.9.3zm13.7 22l-8-23.9-.9.3 8 23.9.9-.3zm3.5 2c-1.5.3-3-.5-3.5-2l-.9.3c.7 2 2.7 3.1 4.7 2.6l-.3-.9zm52.7-11.8l-52.7 11.8.2 1 52.7-11.8-.2-1zm1.7 5.3l-1.1-4.9-1 .2 1.1 4.9 1-.2zm-53.1 12.3l52.7-11.8-.2-1-52.7 11.9.2.9zm-10.5-5.9c1.5 4.4 6.1 7 10.6 5.9l-.2-1c-4 .9-8.1-1.3-9.4-5.3l-1 .4zm-244 270.3l.5-26.1h-1l-.5 26.1h1zm-5.5.5h5v-1h-5v1zm0-27.1l-.5 26.6h1l.5-26.6h-1zm5-4.9c-2.8 0-5 2.2-5 5h1c0-2.2 1.8-4 4-4v-1zm37 0h-37v1h37v-1zm5 5c0-2.8-2.2-5-5-5v1c2.2 0 4 1.8 4 4h1zm0 19v-19h-1v19h1zm-5.4.9l5-.5-.1-1-5 .5.1 1zm-.6-19.4v19h1v-19h-1zm-35.5.5h36v-1h-36v1zm52.4-366.3l-27.9-95.6-1 .3 27.9 95.6 1-.3zm-5.2-15.4l60.4 203 1-.3-60.4-203-1 .3zm-21-79.8l20.9 79.8 1-.3-20.9-79.8-1 .3zm26.7 78.1l-20.9-79.8-1 .3 20.9 79.8 1-.3zm87.5-56.1l-53.6 24.7.4.9 53.6-24.7-.4-.9zm13.7 45.3l-13-45-1 .3 13 45 1-.3zm71.3-70.7l10.2 28.4.9-.3-10.2-28.5-.9.4zm30.2-11L581.4-329l.3.9 29.9-10.3-.3-.9zm22.5 16.9L596-302.8l.5.9 37.8-19.6-.5-.9zm28.7 69.3l-28-69-.9.4 28 69 .9-.4zM558.8-84.6l4.9 13.6.9-.3-4.9-13.7-.9.4zm8.6-7.2l-8.4 6.6.6.8L568-91l-.6-.8zm35.6 9.5L568.9-73l.3 1 34.1-9.4-.3-.9zm58-14.6l-58 14.5.2 1 58-14.5-.2-1zm-41.8 106h46v-1h-46v1zm-21.5-.8l21.4.8v-1l-21.4-.8v1zm18.6 118.1l44.3 12.1.3-1-44.3-12.1-.3 1zm-25.2-9.4l25.2 9.4.4-.9-25.2-9.4-.4.9zm4.1 98.2l-3.5-98.6h-1l3.5 98.6h1zm-7.6 56.4l7.6-56.4-1-.1-7.6 56.4 1 .1zm-203.3-96.1l-84.7 3.6v1l84.7-3.5v-1.1zm16.5 18.2l-16.1-18-.7.7 16.1 18 .7-.7zm-23.9-34.6l-.9 1.3.8.6.9-1.3-.8-.6zm44.5-7.2l-39.9 4.5.1 1 39.9-4.5-.1-1zM436.6 93l34.1-4.2-.1-1-34.1 4.2.1 1zm-.6.1l.5-.1-.1-1-.5.1.1 1zm-4.5 16.2l4.5 3.2.6-.8-4.5-3.2-.6.8zm-1-16.2l.8 15.8 1-.1-.8-15.8-1 .1zm-35.7 4.2l36.3-3.7-.1-1-36.3 3.7.1 1zm-.6-30.8v30.4h1V66.5h-1zm-5.4 2.9l6.2-2.5-.4-.9-6.2 2.5.4.9zm-88.7 27.5l88.6-27.5-.3-1L299.8 96l.3.9zm123.2-71l40.4-16.3-.4-.9L422.9 25l.4.9zm-125.6 44l125.6-44-.3-.9-125.6 44 .3.9zM563.9 1.1l-32.2 7.5.2 1L564.1 2l-.2-.9zm29.2 1L564 1v1l29.1 1.1v-1zm1.7-36l-2.2 36.5 1 .1 2.2-36.5-1-.1zm4-13.9l-4 13.7 1 .3 4-13.7-1-.3zM541.5 83.8l-5.1-44.3-1 .1 5.1 44.3 1-.1zm-9.2 1.1l8.8-.5-.1-1-8.8.5.1 1zm1.7 10.7l52.2 19.5.3-.9-52.2-19.5-.3.9zm-19.7 8.5L531.8 93l-.5-.8-17.5 11.1.5.8zm-16.1 9.6l16.1-9.5-.5-.9-16.1 9.5.5.9zm-24 85.9v-22h-1v22h1zm111.5-83.1l3.5 98.4h1l-3.5-98.4h-1zm.1-1.9l-.1 1.9 1 .1.1-1.9-1-.1zm-158.9 42.5l36.9-8.7-.2-1-36.8 8.7.1 1zM485.6 33l36.5 47.3.8-.6-36.5-47.3-.8.6zm-.7-2l.5 1.8 1-.3-.6-1.9-.9.4zm16.2-228.8l-14.9 2.4.2 1 14.9-2.4-.2-1zm12.1 57.6l-11.4-57.2-1 .2 11.4 57.2 1-.2zm-11.3 3.2l10.9-2.6-.2-1-10.9 2.6.2 1zm64.5-131l-60.9 21.7.3.9 60.9-21.7-.3-.9zm51.2 112.9L567-267.8l-.9.4 50.6 112.6.9-.3zm-143.8 12.8l-48-181.2-1 .3 48 181.2 1-.3zm-31.9 9.3l31.5-8.8-.3-1-31.5 8.8.3 1zm-34.7-96.4l52.7 189 1-.3-52.7-189-1 .3zm18.7 381.1l1-.2-1 .2zm48.2-122.3s0 .1 0 0l1-.2v-.1l-1 .3zm0 .1l1-.2v-.1l-1 .3zM464 152.4h.2l-.2-1h-.2l.2 1zm.2 0h.2l-.1-1h-.2l.1 1zM449.1 5.1c-1.1.2-2.1-.4-2.4-1.5l-1 .2c.4 1.6 2 2.6 3.6 2.3l-.2-1zm1.5-2.4c.2 1.1-.4 2.1-1.5 2.4l.2 1c1.6-.4 2.6-2 2.3-3.6l-1 .2zm-34.2 122.8c1.1-.3 2.2.3 2.5 1.4l1-.3c-.5-1.6-2.1-2.5-3.7-2.1l.2 1zM415 128c-.3-1.1.3-2.2 1.4-2.5l-.3-1c-1.6.5-2.5 2.1-2.1 3.7l1-.2zm-37.3 31.7c.9-1.3 2.3-2.1 3.9-2.3l-.1-1c-1.8.2-3.5 1.2-4.6 2.7l.8.6zm.1 6.3c-.2 0-.4-.2-.5-.4l-1 .1c0 .8.7 1.4 1.5 1.3v-1zm94.4-131l-2.1 47.7h1l2.1-47.7h-1zm53.6 50.1l2.7 3.5.8-.6-2.7-3.5-.8.6zm2.7 3.5l5.3 6.8.8-.6-5.3-6.8-.8.6zM501.7-137l-.1-1 .1 1zm.1 0h.2l-.2-1h-.1l.1 1zm90.8 4.6c-.3-1 .2-2.2 1.3-2.5l-.3-.9c-1.6.5-2.4 2.2-1.9 3.8l.9-.4zm-231.9 15.3c-.3-1.1.3-2.2 1.4-2.5l-.3-1c-1.6.4-2.5 2.1-2.1 3.7l1-.2zm2.5 1.4c-1.1.3-2.2-.3-2.5-1.4l-1 .3c.4 1.6 2.1 2.5 3.7 2.1l-.2-1zm114.7-.8c1.1-.3 2.2.4 2.4 1.4l1-.2c-.4-1.6-2-2.6-3.6-2.2l.2 1zm-55.8 15.1c-1 .4-2.2-.2-2.6-1.2l-.9.3c.6 1.6 2.3 2.4 3.8 1.8l-.3-.9zM593.9-135c1-.3 2.2.2 2.5 1.3l.9-.3c-.5-1.6-2.2-2.4-3.8-1.9l.4.9zm-117.5 21c-.3-1.1.4-2.2 1.4-2.4l-.2-1c-1.6.4-2.6 2-2.2 3.6l1-.2zm-53.1 10c.4 1-.2 2.2-1.2 2.6l.3.9c1.6-.6 2.4-2.3 1.8-3.8l-.9.3zm22.4 301.6c-.9-.6-1.2-1.9-.5-2.8l-.8-.6c-.9 1.4-.6 3.2.8 4.2l.5-.8zm-14.5-2.4c-.3-1.3 0-2.6.8-3.2l-.6-.8c-1.4 1-1.5 2.8-1.3 4.2l1.1-.2zm.8-3.2c.9-.7 2.1-.4 2.5.5l.9-.4c-.7-1.6-2.7-1.9-4-1l.6.9zm13.2 2.8c.6-.9 1.9-1.2 2.8-.5l.6-.8c-1.4-.9-3.2-.6-4.2.8l.8.5zM463-263.5c-.3-1.1.3-2.2 1.4-2.5l-.3-1c-1.6.4-2.5 2.1-2.1 3.7l1-.2zm-90.5 152.4c.5 1 0 2.2-1 2.6l.4.9c1.5-.7 2.2-2.5 1.5-4l-.9.5zm-1 2.7c-1 .5-2.2 0-2.6-1l-.9.4c.7 1.5 2.5 2.2 4 1.5l-.5-.9zM464.4-266c1.1-.3 2.2.3 2.5 1.4l1-.3c-.4-1.6-2.1-2.5-3.7-2.1l.2 1z" mask="url(#prefix__path-10-outside-1_431_73371_00000151503333340127622870000006378751485187263367_)" fill="#252a2e"/></g><path class="prefix__st10" d="M380.8-106.4l-1.1.3-1-3.1-3.1 1 1 3.1-1.1.3-2.1-6.8 1.1-.3.9 2.8 3.1-1-.9-2.8 1.1-.3 2.1 6.8zm2.1-6.4c.5-.1.9-.2 1.3-.1s.7.3 1 .6c.3.3.5.7.7 1.2l.2.6-3.4 1.1c.2.5.4.8.8 1 .3.2.7.2 1.2.1.3-.1.6-.2.9-.4.2-.1.5-.3.7-.5l.3.9c-.2.2-.5.4-.7.5-.2.1-.6.3-.9.4-.5.2-1 .2-1.4.1-.4-.1-.8-.3-1.2-.6-.3-.3-.6-.8-.8-1.4-.2-.6-.2-1.1-.2-1.6.1-.5.2-.9.5-1.2.2-.4.6-.6 1-.7zm.3.8c-.3.1-.6.3-.7.6-.1.3-.2.7-.1 1.1l2.3-.7c-.1-.3-.2-.5-.3-.6-.1-.2-.3-.3-.5-.3-.2-.2-.4-.2-.7-.1zm5.9-2.8c.6-.2 1.1-.2 1.5 0 .4.2.7.6.9 1.3l1 3.4-1.1.3-1-3.2c-.1-.4-.3-.7-.5-.8-.2-.1-.5-.2-.9-.1-.5.2-.8.4-.9.8-.1.4-.1.8.1 1.4l.8 2.6-1.1.3-1.6-5.2.9-.3.4.7h.1c.1-.2.1-.4.3-.6.1-.2.3-.3.5-.4.2 0 .4-.1.6-.2zm6.1-1.8c.1 0 .2-.1.3-.1h.3l.2 1.1h-.3c-.1 0-.2 0-.3.1-.2.1-.4.2-.5.3-.2.1-.3.3-.4.4-.1.2-.2.4-.2.6 0 .2 0 .5.1.7l.8 2.7-1.1.3-1.6-5.2.9-.3.4.9h.1c0-.2.1-.4.2-.6.1-.2.2-.4.4-.5.2-.3.4-.4.7-.4zm.8-.2l1.2-.4 2 2.6c.1.1.2.2.2.4.1.1.2.2.2.3.1.1.1.2.2.3v-.6-.7l.1-3.3 1.2-.4-.4 6.6c0 .4-.1.7-.2 1-.1.3-.3.5-.5.7-.2.2-.5.4-.8.5-.2 0-.3.1-.4.1h-.3l-.3-.9h.3c.1 0 .2 0 .3-.1.2-.1.4-.2.5-.3.1-.1.2-.3.3-.4.1-.2.1-.4.1-.6v-.5l-3.7-4.3zm10-4.9c.9-.3 1.6-.3 2.1-.1.5.2.9.7 1.1 1.3.1.3.1.6.1.9 0 .3-.1.6-.2.8-.1.3-.4.5-.7.7-.3.2-.7.4-1.2.6l-.7.2.8 2.6-1.1.3-2.1-6.8 1.9-.5zm.2.9l-.8.2.8 2.4.6-.2c.4-.1.6-.2.9-.4.2-.2.4-.4.4-.6.1-.2.1-.5 0-.8-.1-.4-.3-.7-.6-.8-.4 0-.8.1-1.3.2zm5.9 4.6L410-123l1.1-.3 2.1 6.8-1.1.3zM385.5 18l-1.4.5-5.3-4.1c.1.2.2.4.2.6l.3.6.3.6 1.3 3.5-1 .4-2.5-6.7 1.3-.5L384 17c-.1-.2-.1-.3-.2-.5l-.3-.6c-.1-.2-.2-.4-.2-.6l-1.3-3.5 1-.4 2.5 6.6zm4.3-1.6l-2.5-6.7 1.1-.4 2.1 5.8 2.8-1.1.3.9-3.8 1.5zm8.6-6.1c.2.4.2.8.3 1.2 0 .4 0 .7-.2 1-.1.3-.3.6-.6.8-.3.2-.6.4-.9.5-.3.1-.7.2-1 .2-.3 0-.6-.1-.9-.2-.3-.1-.6-.4-.8-.6-.2-.3-.4-.6-.6-1.1-.2-.6-.3-1.1-.2-1.5.1-.5.2-.9.5-1.2.3-.3.7-.6 1.2-.8.5-.2.9-.2 1.3-.2.4.1.8.3 1.2.6.2.3.5.8.7 1.3zm-3.7 1.4c.1.4.3.7.5.9.2.2.4.4.6.4.2.1.5 0 .8-.1.3-.1.5-.3.7-.5.1-.2.2-.5.2-.8 0-.3-.1-.6-.2-1s-.3-.7-.5-.9c-.2-.2-.4-.4-.6-.4-.2-.1-.5 0-.8.1-.4.2-.7.4-.8.8-.1.5-.1.9.1 1.5zm7.5-.8c.1-.1.3-.1.4-.2.1-.1.2-.2.3-.2l.3.8c-.1.1-.2.2-.4.3l-.6.3c-.3.1-.6.2-.8.1-.3 0-.5-.1-.7-.3-.2-.2-.4-.5-.6-.9l-1-2.7-.7.3-.2-.5.6-.7V6l.7-.3.4 1.1 1.5-.5.3.8-1.5.5 1 2.7c.1.3.2.4.4.5.2.2.4.2.6.1zm3.8-1.4c.1-.1.3-.1.4-.2.1-.1.2-.2.3-.2l.3.8c-.1.1-.2.2-.4.3l-.6.3c-.3.1-.6.2-.8.1-.3 0-.5-.1-.7-.3-.2-.2-.4-.5-.6-.9l-1-2.7-.7.3-.2-.5.6-.7-.1-1.2.7-.3.4 1.1 1.5-.5.3.8-1.4.6 1 2.7c.1.3.2.4.4.5.2.1.4.1.6 0zm5-2.6c.1.3.1.6.1.9s-.2.6-.5.8c-.3.2-.6.4-1.1.6-.4.1-.7.2-.9.3-.3 0-.5.1-.8 0l-.3-.9h.9c.3 0 .6-.1.9-.2.4-.1.6-.3.7-.4.1-.2.1-.3.1-.5 0-.1-.1-.2-.2-.3-.1-.1-.2-.1-.4-.1s-.5-.1-.9-.1-.7 0-1-.1c-.3 0-.5-.1-.7-.3-.2-.1-.3-.4-.4-.6-.2-.4-.1-.9.2-1.2.3-.4.7-.7 1.3-.9.3-.1.6-.2.9-.2.3 0 .6-.1.9 0v.9h-.8c-.3 0-.5.1-.7.2-.3.1-.5.2-.6.4-.1.1-.1.3-.1.4 0 .1.1.2.2.3.1.1.3.1.5.1h.8c.3 0 .7 0 .9.1.3 0 .5.1.7.3 0 0 .2.2.3.5zM438.1 101.8l-1.2.1-.5-7.1 4-.3.1 1-2.9.2.2 2.2 2.7-.2.1 1-2.7.2.2 2.9zm5.2-.3l-1.1.1-.5-7.6 1.1-.1.5 7.6zm3.5-5.8c.5 0 .9 0 1.3.2s.6.4.9.8c.2.4.3.8.4 1.3v.6l-3.6.2c0 .5.2.9.5 1.2.3.3.7.4 1.2.3.3 0 .7-.1.9-.2.3-.1.5-.2.8-.4l.1.9c-.3.1-.5.3-.8.3-.3.1-.6.1-1 .2-.5 0-1 0-1.4-.2-.4-.2-.7-.5-1-.9-.3-.4-.4-.9-.4-1.5s0-1.1.2-1.6c.2-.4.4-.8.8-1 .2 0 .6-.2 1.1-.2zm0 .9c-.4 0-.6.2-.9.4-.2.2-.3.6-.3 1.1l2.5-.2c0-.3-.1-.5-.2-.7-.1-.2-.2-.4-.4-.5-.2-.1-.4-.1-.7-.1zm5.8-1.3c.5 0 .9 0 1.3.2s.6.4.9.8c.2.4.3.8.4 1.3v.6l-3.6.2c0 .5.2.9.5 1.2.3.3.7.4 1.2.3.3 0 .6-.1.9-.2.3-.1.5-.2.8-.4l.1.9c-.3.1-.5.3-.8.3-.3.1-.6.1-1 .2-.5 0-1 0-1.4-.2-.4-.2-.7-.5-1-.9-.3-.4-.4-.9-.4-1.5s0-1.1.2-1.6c.2-.4.4-.8.8-1 .2 0 .6-.2 1.1-.2zm0 .9c-.4 0-.6.2-.9.4-.2.2-.3.6-.3 1.1l2.5-.2c0-.3-.1-.5-.2-.7-.1-.2-.2-.4-.4-.5-.2-.1-.4-.1-.7-.1zm6 3.4c.1 0 .3 0 .4-.1.1 0 .3-.1.4-.1l.1.9c-.1.1-.3.1-.5.2s-.4.1-.6.1c-.3 0-.6 0-.8-.1-.2-.1-.5-.3-.6-.5-.2-.2-.3-.6-.3-1l-.2-2.9h-.7v-.5l.8-.5.3-1.2h.7l.1 1.2 1.3-.1.1.9-1.5.1.2 2.9c0 .3.1.5.2.6.1.1.3.1.6.1zm8.7-1.7c0 .4-.1.8-.2 1.1-.2.3-.5.6-.8.8-.4.2-.8.3-1.4.3h-.7c-.2 0-.5 0-.7-.1-.2 0-.4-.1-.6-.2l-.1-1.1c.3.1.6.2 1 .3.4.1.7.1 1.1.1.3 0 .5-.1.7-.2.2-.1.3-.2.4-.4.1-.2.1-.3.1-.5s-.1-.4-.2-.5c-.1-.1-.3-.3-.5-.4-.2-.1-.5-.2-.9-.3-.2-.1-.5-.2-.7-.3-.2-.1-.4-.2-.6-.4-.2-.2-.3-.3-.4-.5-.1-.2-.2-.5-.2-.8 0-.4 0-.8.2-1.1.2-.3.4-.5.8-.7.3-.2.8-.3 1.2-.3h1.1c.3.1.7.1 1 .3l-.3 1c-.3-.1-.6-.2-.9-.2-.3-.1-.6-.1-.8-.1-.2 0-.5.1-.6.2-.2.1-.3.2-.4.3-.1.1-.1.3-.1.5s.1.4.2.5c.1.1.3.2.5.4.2.1.5.2.9.3.4.1.7.3 1 .4.3.2.5.4.7.6.1.3.2.6.2 1zm3.4.9c.1 0 .3 0 .4-.1.1 0 .3-.1.4-.1l.1.9c-.1.1-.3.1-.5.2s-.4.1-.6.1c-.3 0-.6 0-.8-.1-.2-.1-.5-.3-.6-.5-.2-.2-.3-.6-.3-1l-.2-2.9h-.7v-.5l.8-.5.3-1.2h.7l.1 1.2 1.5-.1.1.9-1.5.1.2 2.9c0 .3.1.5.2.6 0 0 .2.1.4.1zM323.5 190.4c.1.8 0 1.5-.3 2-.3.6-.7 1-1.2 1.3-.5.3-1.2.5-2 .5l-2 .1-.5-7.1 2.2-.1c.7 0 1.4 0 1.9.3.6.2 1 .6 1.3 1.1.3.5.5 1.2.6 1.9zm-1.3.1c0-.6-.2-1.1-.4-1.4-.2-.4-.5-.6-.9-.8-.4-.2-.8-.2-1.3-.2l-1 .1.4 5.2.8-.1c.9-.1 1.5-.3 1.9-.8.4-.4.6-1.1.5-2zm4.7-2.2c.7 0 1.2.1 1.6.3.4.3.6.7.6 1.4l.2 3.6-.8.1-.3-.8c-.1.2-.3.4-.4.5-.2.1-.3.2-.5.3-.2.1-.5.1-.8.2-.3 0-.6 0-.9-.1-.3-.1-.5-.3-.6-.5-.2-.2-.3-.5-.3-.9 0-.6.1-1 .5-1.3.4-.3 1-.5 1.8-.6l.9-.1v-.3c0-.4-.1-.6-.3-.8-.2-.1-.4-.2-.7-.2-.3 0-.5.1-.8.2-.2.1-.5.2-.7.3l-.4-.8c.3-.2.5-.3.9-.4.3 0 .6-.1 1-.1zm1.1 2.9l-.7.1c-.6.1-1 .2-1.2.4-.2.2-.3.4-.3.7 0 .3.1.5.3.6.2.1.4.2.6.1.4 0 .7-.2 1-.4.2-.2.4-.6.3-1v-.5zm8.7-3.6c.6 0 1.1.1 1.4.4.3.3.5.8.6 1.5l.2 3.5-1.1.1-.2-3.3c0-.4-.1-.7-.3-.9-.2-.2-.4-.3-.7-.3-.5 0-.8.2-1 .5-.2.3-.2.7-.2 1.3l.2 2.9-1.1.1-.2-3.3c0-.3-.1-.5-.2-.7-.1-.2-.2-.3-.3-.4-.1-.1-.3-.1-.5-.1-.3 0-.6.1-.7.3-.2.2-.3.4-.4.7-.1.3-.1.6-.1 1l.2 2.7-1.1.1-.4-5.4.9-.1.2.7h.1c.1-.2.2-.4.4-.5.2-.1.3-.2.5-.3.2-.1.4-.1.6-.1.4 0 .7 0 1 .1.3.1.5.3.7.6h.1c.1-.3.4-.5.7-.7.1-.2.4-.3.7-.4zm5.6-.3c.5 0 .9 0 1.3.2s.6.4.9.8c.2.4.3.8.4 1.3v.6l-3.6.2c0 .5.2.9.5 1.2.3.3.7.4 1.2.3.3 0 .7-.1.9-.2.3-.1.5-.2.8-.4l.1.9c-.3.1-.5.3-.8.3-.3.1-.6.1-1 .2-.5 0-1 0-1.4-.2-.4-.2-.7-.5-1-.9-.3-.4-.4-.9-.4-1.5s0-1.1.2-1.6c.2-.4.4-.8.8-1 .2-.1.7-.2 1.1-.2zm.1.8c-.4 0-.6.2-.9.4-.2.2-.3.6-.3 1.1l2.5-.2c0-.3-.1-.5-.2-.7-.1-.2-.2-.4-.4-.5-.2-.1-.4-.1-.7-.1zm6.7 4.2l-.5-7.1 1.2-.1.4 6.1 3-.2.1 1-4.2.3zm7.8-6c.6 0 1.1.1 1.4.4.4.3.6.8.6 1.5l.2 3.5-1.1.1-.2-3.3c0-.4-.1-.7-.3-.9-.2-.2-.5-.3-.8-.3-.5 0-.9.2-1.1.6-.2.3-.2.8-.2 1.4l.2 2.7-1.1.1-.4-5.4.9-.1.2.7h.1c.1-.2.2-.4.4-.5l.6-.3c.2-.2.4-.2.6-.2zM520.9 32.2l-.1-1.2 3.2-.3-.3-3.3-3.2.3-.1-1.2 7.1-.7.1 1.2-2.9.3.3 3.3 2.9-.3.1 1.2-7.1.7zm5.8 3.4c.1.7 0 1.2-.3 1.6-.3.4-.7.6-1.4.7l-3.6.4-.1-.8.7-.3c-.2-.1-.4-.3-.5-.4-.1-.1-.3-.3-.3-.5-.1-.2-.1-.5-.2-.8 0-.3 0-.6.1-.9.1-.3.3-.5.5-.7.2-.2.5-.3.9-.3.6-.1 1 .1 1.3.5.3.4.5 1 .6 1.8l.1.9h.3c.4 0 .6-.2.8-.3.1-.2.2-.4.2-.8 0-.3-.1-.5-.2-.8s-.2-.5-.4-.7l.8-.5c.2.2.3.5.4.9.2.2.3.6.3 1zm-2.8 1.2l-.1-.7c-.1-.6-.2-1-.4-1.2-.2-.2-.4-.3-.8-.3-.3 0-.5.1-.6.3-.1.2-.1.4-.1.6 0 .4.2.7.4.9.3.2.6.3 1 .3l.6.1zm-1.8 7.4l2.4-.9c.1 0 .3-.1.4-.2.2-.1.3-.1.5-.2s.4-.1.5-.2c.2-.1.3-.1.4-.1h-.4c-.2 0-.3 0-.5-.1-.2 0-.4-.1-.6-.1-.2 0-.3 0-.5-.1l-2.6-.5-.1-1.3 5.2-2 .1 1.2-2.6 1c-.2.1-.4.1-.6.2-.2.1-.4.1-.6.2-.2.1-.3.1-.5.1h1.1c.1 0 .2 0 .3.1l2.9.5.1 1.2-2.8 1.1c-.1 0-.3.1-.5.2s-.4.1-.5.2c-.2.1-.3.1-.5.1h.5c.2 0 .4 0 .6.1.2 0 .4.1.6.1l2.7.4.1 1.1-5.5-1 .4-1.1zm8 4.2l-3.7.4h-1.1c.1.1.3.2.4.3.2.1.3.2.4.3l1.9 1.5.1 1.3-2.5-1.9-2.8 2.6-.1-1.3 2.2-2-.6-.6-1.8.2-.1-1.1 7.6-.8.1 1.1zm-1.6 5.9l-5.4.5-.1-1.1 5.4-.5.1 1.1zm2-.7c0 .2 0 .3-.1.5-.1.1-.2.2-.5.2-.2 0-.4 0-.5-.1-.1-.1-.2-.3-.2-.4 0-.2 0-.3.1-.5.1-.1.2-.2.5-.2.2 0 .4 0 .5.1.1 0 .2.2.2.4zm-1.4 5.2c.1.6 0 1.1-.3 1.5-.3.4-.8.6-1.5.7l-3.5.3-.1-1.1 3.3-.3c.4 0 .7-.2.9-.4.2-.2.3-.5.2-.8-.1-.5-.2-.9-.6-1-.3-.2-.8-.2-1.4-.2l-2.7.3-.1-1.1 5.4-.5.1.9-.7.2v.1c.2.1.4.2.5.4.1.2.3.3.3.6.1 0 .1.2.2.4zm-3.3 7.6c-.4 0-.7 0-.9-.2-.3-.1-.5-.4-.6-.7-.2-.3-.3-.7-.3-1.2v-1c0-.3.1-.5.2-.8l1-.1c-.1.3-.2.6-.2.9-.1.3-.1.6 0 .9 0 .4.1.6.3.8.1.2.3.2.5.2.1 0 .2-.1.3-.1.1-.1.2-.2.2-.4.1-.2.2-.5.3-.8.1-.4.2-.7.3-.9.1-.2.3-.4.4-.6.2-.1.4-.2.7-.3.5 0 .9.1 1.1.5.3.4.5.8.5 1.5v.9c0 .3-.1.6-.2.9l-.9-.3c.1-.3.1-.5.2-.8 0-.2.1-.5 0-.8 0-.3-.1-.5-.2-.7-.1-.1-.2-.2-.4-.2-.1 0-.2.1-.3.1-.1.1-.2.2-.2.4-.1.2-.2.5-.2.8l-.3.9c-.1.2-.3.4-.4.6-.3.4-.6.5-.9.5zm1.2 8.1c-.4 0-.8 0-1.1-.2-.3-.2-.6-.4-.8-.8-.2-.4-.3-.8-.4-1.3v-.7c0-.2 0-.5.1-.7 0-.2.1-.4.2-.6l1-.2c-.1.3-.2.6-.2 1-.1.4-.1.7 0 1.1 0 .3.1.5.2.7.1.2.2.3.4.4.2.1.3.1.5.1s.4-.1.5-.2c.1-.1.2-.3.3-.6.1-.2.2-.5.3-.9.1-.2.2-.5.3-.7.1-.2.2-.4.4-.6.1-.2.3-.3.5-.5.2-.1.5-.2.8-.2.4 0 .8 0 1.1.2.3.2.6.4.7.8.2.3.3.7.4 1.2v1.1c0 .3-.1.7-.2 1l-1-.3c.1-.3.2-.6.2-.9 0-.3.1-.6 0-.8 0-.2-.1-.5-.2-.6-.1-.2-.2-.3-.4-.4-.1-.1-.3-.1-.5-.1s-.4.1-.5.2c-.1.1-.2.3-.3.5-.1.2-.2.5-.3.9-.1.4-.3.8-.4 1-.2.3-.3.5-.6.7-.3.3-.6.4-1 .4zm-.7 3.4c0 .1 0 .3.1.4 0 .1.1.3.1.4l-.9.1c-.1-.1-.1-.3-.2-.5s-.1-.4-.1-.6c0-.3 0-.6.1-.8.1-.3.2-.5.5-.6.2-.2.6-.3 1-.3l2.9-.3-.1-.7.5-.1.5.7 1.2.3.1.7-1.2.1.2 1.5-.9.1-.2-1.5-2.9.3c-.3 0-.5.1-.6.3-.1.1-.2.3-.1.5zM578.5-78.8c.1.4.1.8 0 1.1-.1.3-.3.7-.7.9-.3.3-.7.5-1.3.6-.3.1-.5.1-.7.2-.2 0-.5.1-.7.1-.2 0-.4 0-.6-.1l-.3-1.1c.3 0 .7.1 1 .1.4 0 .7 0 1.1-.1.3-.1.5-.2.7-.3.2-.1.3-.3.3-.4.1-.2.1-.4 0-.5-.1-.2-.2-.4-.3-.5-.1-.1-.4-.2-.6-.2-.3-.1-.6-.1-.9-.2-.3 0-.5-.1-.7-.1-.2-.1-.5-.1-.7-.3-.2-.1-.4-.3-.5-.5-.1-.2-.3-.4-.3-.7-.1-.4-.1-.7 0-1.1.1-.3.3-.6.6-.9.3-.2.7-.4 1.1-.5.4-.1.7-.2 1-.2.3 0 .7 0 1 .1l-.1 1c-.3 0-.6-.1-.9-.1-.3 0-.6 0-.8.1l-.6.3c-.1.1-.2.3-.3.4 0 .2-.1.3 0 .5s.1.4.3.5c.1.1.3.2.6.2.2.1.5.1.9.2s.8.1 1.1.2c.3.1.6.3.8.5.2.1.4.4.5.8zm2.4-4.4c.7-.2 1.2-.2 1.6 0 .4.2.7.6.9 1.2l1 3.5-.8.2-.4-.7-.3.6c-.1.2-.3.3-.5.4-.2.1-.4.2-.7.3-.3.1-.6.1-.9.1-.3 0-.5-.2-.7-.4-.2-.2-.4-.5-.5-.8-.1-.5-.1-1 .3-1.4.3-.4.9-.7 1.7-.9l.9-.3-.1-.3c-.1-.4-.3-.6-.5-.7-.2-.1-.5-.1-.8 0-.3.1-.5.2-.7.3s-.4.3-.6.5l-.6-.7c.2-.2.5-.4.8-.6.2 0 .5-.2.9-.3zm1.6 2.6l-.7.2c-.5.2-.9.4-1.1.6-.2.2-.2.5-.1.8.1.3.2.4.4.5.2.1.4.1.7 0 .4-.1.7-.3.9-.6.2-.3.2-.6.1-1.1l-.2-.4zm5.5 1.3c-.5.1-.9.2-1.4.1-.4-.1-.8-.3-1.1-.7-.3-.3-.5-.8-.7-1.4-.2-.6-.2-1.2-.1-1.6.1-.5.3-.8.6-1.1.3-.3.7-.5 1.2-.6.3-.1.6-.1.9-.1h.7l-.1 1h-.6c-.2 0-.4 0-.6.1-.3.1-.5.2-.7.4-.2.2-.3.4-.3.7 0 .3 0 .6.1 1s.2.7.4.9c.2.2.4.4.6.5.2.1.5.1.8 0 .3-.1.5-.2.7-.3.2-.1.4-.3.6-.4l.3 1c-.2.2-.4.3-.6.4-.1-.1-.3 0-.7.1zm1.9-8.5l1 3.5c0 .2.1.3.1.5s.1.4.1.5c.1-.1.1-.3.2-.5s.2-.3.2-.5l1.1-2.1 1.3-.3-1.5 2.8 3 2.4-1.3.4-2.3-1.8-.5.7.5 1.8-1.1.3-2-7.3 1.2-.4zm7.6 5.8l-3.4-4.7 1.2-.3 1.9 2.8c.1.2.2.4.4.6.1.2.2.4.3.5v-.6-.7l.2-3.4 1.2-.3-.6 5.8-1.2.3zm3.7-6.6l1.4 5.2-1.1.3-1.4-5.2 1.1-.3zm-1.1-1.9h.5c.2.1.3.2.3.4.1.2 0 .4-.1.5-.1.1-.2.2-.4.3h-.5c-.1-.1-.2-.2-.3-.4-.1-.2 0-.4.1-.5.1-.1.3-.2.4-.3zm5.3 6.3l-1.1.3-2-7.3 1.1-.3 2 7.3zm2.7-.7l-1.1.3-2-7.3 1.1-.3 2 7.3zm2.3-6.3c.5-.1.9-.1 1.3 0s.7.3 1 .6c.3.3.5.7.6 1.2l.2.6-3.5.9c.2.5.4.9.7 1.1.3.2.7.2 1.2.1l.9-.3c.2-.1.5-.3.7-.5l.2.9c-.2.2-.5.4-.7.5l-.9.3c-.5.1-1 .2-1.4.1-.4-.1-.8-.3-1.2-.6-.3-.3-.6-.8-.7-1.4-.2-.6-.2-1.1-.1-1.6s.3-.8.6-1.2c.2-.4.6-.6 1.1-.7zm.2.8c-.3.1-.6.3-.8.6-.2.3-.2.6-.1 1.1l2.4-.6c-.1-.3-.2-.5-.3-.7-.1-.2-.3-.3-.5-.4-.2-.1-.4-.1-.7 0zm7.6-4.6c.9-.2 1.6-.2 2.1 0 .5.3.9.7 1 1.4.1.3.1.6.1.9 0 .3-.1.6-.3.8-.2.3-.4.5-.7.7-.3.2-.7.4-1.2.5l-.7.2.7 2.6-1.1.3-1.9-6.9 2-.5zm.1.9l-.8.2.7 2.4.6-.2c.4-.1.6-.2.9-.4.2-.2.4-.3.5-.6.1-.2.1-.5 0-.8-.1-.4-.3-.7-.6-.8-.3.1-.7.1-1.3.2zm5.7 4.9l-1.9-6.9 1.1-.3 1.9 6.9-1.1.3zM485.5-105.6l-1.1-3.9 6.9-2 1.1 3.9-.9.3-.8-2.8-1.9.5.8 2.6-.9.3-.8-2.6-2.2.6.8 2.8-1 .3zm6.3 1.9c.2.7.2 1.2 0 1.6-.2.4-.6.7-1.2.9l-3.5 1-.2-.8.7-.4-.6-.3c-.2-.1-.3-.3-.4-.5-.1-.2-.2-.4-.3-.7-.1-.3-.1-.6-.1-.9 0-.3.2-.5.4-.7.2-.2.5-.4.8-.5.5-.2 1-.1 1.4.2.4.3.7.9 1 1.7l.3.9.3-.1c.4-.1.6-.3.7-.5.1-.2.1-.5 0-.8-.1-.3-.2-.5-.3-.7-.1-.2-.3-.4-.5-.6l.7-.6c.2.2.4.5.6.8-.1.4.1.7.2 1zm-2.6 1.8l-.2-.7c-.2-.5-.4-.9-.6-1.1-.2-.2-.5-.2-.8-.1-.3.1-.4.2-.5.4-.1.2-.1.4 0 .7.1.4.3.7.6.9.3.2.6.2 1.1.1l.4-.2zm4.4 4.4c0 .1 0 .2.1.3v.3l-1.1.2v-.3c0-.1 0-.2-.1-.3-.1-.2-.1-.4-.3-.5-.1-.2-.3-.3-.4-.4-.2-.1-.4-.2-.6-.2-.2 0-.5 0-.7.1l-2.7.8-.3-1.1 5.2-1.5.3.9-.9.4v.1c.2 0 .4.1.6.2s.4.2.5.4c.2.2.3.4.4.6zm-4.5 4.3l-.3-1.1 7.3-2.1.3 1.1-7.3 2.1zm8.7 4.2c.3.9.3 1.6 0 2.1-.2.5-.7.9-1.3 1.1-.3.1-.6.1-.9.1-.3 0-.6-.1-.8-.2-.3-.1-.5-.4-.7-.7-.2-.3-.4-.7-.5-1.2l-.2-.7-2.6.8-.3-1.1 6.9-2 .4 1.8zm-1 .2l-.2-.8-2.4.7.2.6c.1.4.2.6.4.9.2.2.3.4.6.4.2.1.5.1.8 0 .4-.1.7-.3.8-.6 0-.3 0-.7-.2-1.2zm-4.7 5.8l6.9-2 .3 1.1-6.9 2-.3-1.1zM470.2 43.3c-.4 0-.9.1-1.2.2-.4.2-.8 0-1-.4-.2-.4 0-.8.4-1 .6-.2 1.2-.4 1.8-.4h1.5c.4 0 .8.3.8.8s-.3.8-.8.8h-1.5zM474 42.6c0-.4.3-.8.8-.8h3c.4 0 .8.3.8.8s-.3.8-.8.8h-3c-.5-.1-.8-.4-.8-.8zM480 42.6c0-.4.3-.8.8-.8h1.5c.6 0 1.3.1 1.8.4.4.2.6.6.4 1-.2.4-.6.6-1 .4-.4-.2-.8-.2-1.2-.2h-1.5c-.5-.1-.8-.4-.8-.8zM466.8 44.3c.4.2.6.6.4 1-.2.4-.2.8-.2 1.2V48c0 .4-.3.8-.8.8s-.8-.3-.8-.8v-1.5c0-.6.1-1.3.4-1.8.2-.3.6-.5 1-.4zM485.6 44.3c.4-.2.8 0 1 .4.2.6.4 1.2.4 1.8V48c0 .4-.3.8-.8.8s-.8-.3-.8-.8v-1.5c0-.4-.1-.9-.2-1.2-.1-.4.1-.8.4-1zM466.2 50.3c.4 0 .8.3.8.8v3c0 .4-.3.8-.8.8s-.8-.3-.8-.8v-3c.1-.5.4-.8.8-.8zM486.2 50.3c.4 0 .8.3.8.8v3c0 .4-.3.8-.8.8s-.8-.3-.8-.8v-3c.1-.5.4-.8.8-.8zM466.2 56.3c.4 0 .8.3.8.8v1.5c0 .4.1.9.2 1.2.2.4 0 .8-.4 1-.4.2-.8 0-1-.4-.2-.6-.4-1.2-.4-1.8v-1.5c.1-.5.4-.8.8-.8zM486.2 56.3c.4 0 .8.3.8.8v1.5c0 .6-.1 1.3-.4 1.8-.2.4-.6.6-1 .4-.4-.2-.6-.6-.4-1 .2-.4.2-.8.2-1.2v-1.5c.1-.5.4-.8.8-.8zM468 62c.2-.4.6-.6 1-.4.4.2.8.2 1.2.2h1.5c.4 0 .8.3.8.8s-.3.8-.8.8h-1.5c-.6 0-1.3-.1-1.8-.4-.4-.2-.5-.7-.4-1zM484.5 62c.2.4 0 .8-.4 1-.6.2-1.2.4-1.8.4h-1.5c-.4 0-.8-.3-.8-.8s.3-.8.8-.8h1.5c.4 0 .9-.1 1.2-.2.4-.2.8 0 1 .4zM474 62.6c0-.4.3-.8.8-.8h3c.4 0 .8.3.8.8s-.3.8-.8.8h-3c-.5-.1-.8-.4-.8-.8zM484.8 45.1c.3-.3.3-.8 0-1.1-.3-.3-.8-.3-1.1 0l-1 1c-.3.3-.3.8 0 1.1.3.3.8.3 1.1 0l1-1zM481.8 48.1c.3-.3.3-.8 0-1.1-.3-.3-.8-.3-1.1 0l-2 2c-.3.3-.3.8 0 1.1.3.3.8.3 1.1 0l2-2zM477.8 52.1c.3-.3.3-.8 0-1.1-.3-.3-.8-.3-1.1 0l-.5.5-.5-.5c-.3-.3-.8-.3-1.1 0-.3.3-.3.8 0 1.1l.5.5-.4.4c-.3.3-.3.8 0 1.1.3.3.8.3 1.1 0l.4-.4.4.4c.3.3.8.3 1.1 0 .3-.3.3-.8 0-1.1l-.4-.4.5-.5zM473.8 56.1c.3-.3.3-.8 0-1.1-.3-.3-.8-.3-1.1 0l-2 2c-.3.3-.3.8 0 1.1.3.3.8.3 1.1 0l2-2zM469.8 60.1c.3-.3.3-.8 0-1.1-.3-.3-.8-.3-1.1 0l-1 1c-.3.3-.3.8 0 1.1.3.3.8.3 1.1 0l1-1zM483.6 61.1c.3.3.8.3 1.1 0 .3-.3.3-.8 0-1.1l-1-1c-.3-.3-.8-.3-1.1 0-.3.3-.3.8 0 1.1l1 1zM480.7 58.1c.3.3.8.3 1.1 0 .3-.3.3-.8 0-1.1l-2-2c-.3-.3-.8-.3-1.1 0-.3.3-.3.8 0 1.1l2 2zM472.7 50.1c.3.3.8.3 1.1 0 .3-.3.3-.8 0-1.1l-2-2c-.3-.3-.8-.3-1.1 0-.3.3-.3.8 0 1.1l2 2zM468.7 46.1c.3.3.8.3 1.1 0 .3-.3.3-.8 0-1.1l-1-1c-.3-.3-.8-.3-1.1 0-.3.3-.3.8 0 1.1l1 1zM473.3 47.4c.3-.1.6-.1.9-.1h.8c.4 0 .8-.3.8-.8s-.3-.8-.8-.8h-.8c-.5 0-.9.1-1.4.2-.4.1-.6.5-.5.9.2.5.6.8 1 .6zM477.5 45.8c-.4 0-.8.3-.8.8s.3.8.8.8h.8c.3 0 .6 0 .9.1.4.1.8-.1.9-.5.1-.4-.1-.8-.5-.9-.4-.1-.9-.2-1.4-.2h-.7zM471.1 49.6c.1-.4-.1-.8-.5-.9-.4-.1-.8.1-.9.5-.1.4-.2.9-.2 1.4v.8c0 .4.3.8.8.8s.8-.3.8-.8v-.8c-.1-.4-.1-.7 0-1zM482.8 49.2c-.1-.4-.5-.6-.9-.5-.4.1-.6.5-.5.9.1.3.1.6.1.9v.8c0 .4.3.8.8.8s.8-.3.8-.8v-.8c-.1-.4-.2-.9-.3-1.3zM471 53.8c0-.4-.3-.8-.8-.8s-.8.3-.8.8v.8c0 .5.1.9.2 1.4.1.4.5.6.9.5.4-.1.6-.5.5-.9-.1-.3-.1-.6-.1-.9v-.9zM483 53.8c0-.4-.3-.8-.8-.8s-.8.3-.8.8v.8c0 .3 0 .6-.1.9-.1.4.1.8.5.9.4.1.8-.1.9-.5.1-.4.2-.9.2-1.4v-.7zM473.3 57.7c-.4-.1-.8.1-.9.5-.1.4.1.8.5.9.4.1.9.2 1.4.2h.8c.4 0 .8-.3.8-.8s-.3-.8-.8-.8h-.8c-.4.1-.7.1-1 0zM479.6 59.1c.4-.1.6-.5.5-.9-.1-.4-.5-.6-.9-.5-.3.1-.6.1-.9.1h-.8c-.4 0-.8.3-.8.8s.3.8.8.8h.8c.4-.1.9-.2 1.3-.3z"/><path class="prefix__st11" d="M616.2 153.6c15.5 0 28 12.5 28 28s-12.5 28-28 28-28-12.5-28-28 12.6-28 28-28z"/><path class="prefix__st10" d="M608.2 169.2c-.6 0-1.1.1-1.7.3-.5.2-1.1 0-1.3-.5-.2-.5 0-1.1.5-1.3.7-.3 1.6-.5 2.4-.5h2c.6 0 1 .4 1 1s-.4 1-1 1h-1.9zM613.2 168.2c0-.6.4-1 1-1h4c.6 0 1 .4 1 1s-.4 1-1 1h-4c-.5 0-1-.4-1-1zM621.2 168.2c0-.6.4-1 1-1h2c.9 0 1.7.2 2.4.5.5.2.8.8.5 1.3-.2.5-.8.8-1.3.5-.5-.2-1.1-.3-1.7-.3h-2c-.4 0-.9-.4-.9-1zM603.7 170.6c.5.2.8.8.5 1.3-.2.5-.3 1.1-.3 1.7v2c0 .6-.4 1-1 1s-1-.4-1-1v-2c0-.9.2-1.7.5-2.4.2-.6.8-.8 1.3-.6zM628.8 170.6c.5-.2 1.1 0 1.3.5.3.7.5 1.6.5 2.4v2c0 .6-.4 1-1 1s-1-.4-1-1v-2c0-.6-.1-1.1-.3-1.7-.3-.4 0-1 .5-1.2zM602.9 178.6c.6 0 1 .4 1 1v4c0 .6-.4 1-1 1s-1-.4-1-1v-4c0-.6.5-1 1-1zM629.6 178.6c.6 0 1 .4 1 1v4c0 .6-.4 1-1 1s-1-.4-1-1v-4c0-.6.4-1 1-1zM602.9 186.6c.6 0 1 .4 1 1v2c0 .6.1 1.1.3 1.7.2.5 0 1.1-.5 1.3-.5.2-1.1 0-1.3-.5-.3-.7-.5-1.6-.5-2.4v-2c0-.7.5-1.1 1-1.1zM629.6 186.6c.6 0 1 .4 1 1v2c0 .9-.2 1.7-.5 2.4-.2.5-.8.8-1.3.5-.5-.2-.8-.8-.5-1.3.2-.5.3-1.1.3-1.7v-2c0-.5.4-.9 1-.9zM605.3 194.1c.2-.5.8-.8 1.3-.5.5.2 1.1.3 1.7.3h2c.6 0 1 .4 1 1s-.4 1-1 1h-2c-.9 0-1.7-.2-2.4-.5-.6-.2-.8-.8-.6-1.3zM627.2 194.1c.2.5 0 1.1-.5 1.3-.7.3-1.6.5-2.4.5h-2c-.6 0-1-.4-1-1s.4-1 1-1h2c.6 0 1.1-.1 1.7-.3.4-.3 1 0 1.2.5zM613.2 194.9c0-.6.4-1 1-1h4c.6 0 1 .4 1 1s-.4 1-1 1h-4c-.5 0-1-.5-1-1zM627.6 171.7c.4-.4.4-1 0-1.4-.4-.4-1-.4-1.4 0l-1.3 1.3c-.4.4-.4 1 0 1.4.4.4 1 .4 1.4 0l1.3-1.3zM623.6 175.7c.4-.4.4-1 0-1.4-.4-.4-1-.4-1.4 0l-2.7 2.7c-.4.4-.4 1 0 1.4.4.4 1 .4 1.4 0l2.7-2.7zM618.3 181c.4-.4.4-1 0-1.4-.4-.4-1-.4-1.4 0l-.7.7-.7-.7c-.4-.4-1-.4-1.4 0-.4.4-.4 1 0 1.4l.7.7-.6.6c-.4.4-.4 1 0 1.4.4.4 1 .4 1.4 0l.6-.6.6.6c.4.4 1 .4 1.4 0 .4-.4.4-1 0-1.4l-.6-.6.7-.7zM613 186.3c.4-.4.4-1 0-1.4-.4-.4-1-.4-1.4 0l-2.7 2.7c-.4.4-.4 1 0 1.4.4.4 1 .4 1.4 0l2.7-2.7zM607.7 191.6c.4-.4.4-1 0-1.4-.4-.4-1-.4-1.4 0l-1.3 1.3c-.4.4-.4 1 0 1.4.4.4 1 .4 1.4 0l1.3-1.3zM626.1 192.9c.4.4 1 .4 1.4 0 .4-.4.4-1 0-1.4l-1.3-1.3c-.4-.4-1-.4-1.4 0-.4.4-.4 1 0 1.4l1.3 1.3zM622.1 188.9c.4.4 1 .4 1.4 0 .4-.4.4-1 0-1.4l-2.7-2.7c-.4-.4-1-.4-1.4 0-.4.4-.4 1 0 1.4l2.7 2.7zM611.5 178.3c.4.4 1 .4 1.4 0 .4-.4.4-1 0-1.4l-2.7-2.7c-.4-.4-1-.4-1.4 0-.4.4-.4 1 0 1.4l2.7 2.7zM606.2 173c.4.4 1 .4 1.4 0 .4-.4.4-1 0-1.4l-1.3-1.3c-.4-.4-1-.4-1.4 0-.4.4-.4 1 0 1.4l1.3 1.3zM612.3 174.7c.4-.1.8-.2 1.3-.2h1c.6 0 1-.4 1-1s-.4-1-1-1h-1c-.6 0-1.3.1-1.8.3-.5.2-.8.7-.7 1.2.1.6.7.9 1.2.7zM617.9 172.6c-.6 0-1 .4-1 1s.4 1 1 1h1c.4 0 .9.1 1.3.2.5.2 1.1-.1 1.2-.7.2-.5-.1-1.1-.7-1.2-.6-.2-1.2-.3-1.8-.3h-1zM609.4 177.6c.2-.5-.1-1.1-.7-1.2-.5-.2-1.1.1-1.2.7-.2.6-.3 1.2-.3 1.8v1c0 .6.4 1 1 1s1-.4 1-1v-1c0-.5.1-.9.2-1.3zM625 177c-.2-.5-.7-.8-1.2-.7-.5.2-.8.7-.7 1.2.1.4.2.8.2 1.3v1c0 .6.4 1 1 1s1-.4 1-1v-1l-.3-1.8zM609.2 183.2c0-.6-.4-1-1-1s-1 .4-1 1v1c0 .6.1 1.3.3 1.8.2.5.7.8 1.2.7.5-.2.8-.7.7-1.2-.1-.4-.2-.8-.2-1.3v-1zM625.2 183.2c0-.6-.4-1-1-1s-1 .4-1 1v1c0 .4-.1.9-.2 1.3-.2.5.1 1.1.7 1.2.5.2 1.1-.1 1.2-.7.2-.6.3-1.2.3-1.8v-1zM612.3 188.4c-.5-.2-1.1.1-1.2.7-.2.5.1 1.1.7 1.2.6.2 1.2.3 1.8.3h1c.6 0 1-.4 1-1s-.4-1-1-1h-1c-.5 0-.9-.1-1.3-.2zM620.7 190.3c.5-.2.8-.7.7-1.2-.2-.5-.7-.8-1.2-.7-.4.1-.8.2-1.3.2h-1c-.6 0-1 .4-1 1s.4 1 1 1h1c.6 0 1.3-.1 1.8-.3z"/><path class="prefix__st11" d="M592.2 224.6h48c2.2 0 4 1.8 4 4v48c0 2.2-1.8 4-4 4h-48c-2.2 0-4-1.8-4-4v-48c0-2.3 1.8-4 4-4z"/><path class="prefix__st10" d="M608.2 240.2c-.6 0-1.1.1-1.7.3-.5.2-1.1 0-1.3-.5-.2-.5 0-1.1.5-1.3.7-.3 1.6-.5 2.4-.5h2c.6 0 1 .4 1 1s-.4 1-1 1h-1.9zM613.2 239.2c0-.6.4-1 1-1h4c.6 0 1 .4 1 1s-.4 1-1 1h-4c-.5 0-1-.4-1-1zM621.2 239.2c0-.6.4-1 1-1h2c.9 0 1.7.2 2.4.5.5.2.8.8.5 1.3-.2.5-.8.8-1.3.5-.5-.2-1.1-.3-1.7-.3h-2c-.4 0-.9-.4-.9-1zM603.7 241.6c.5.2.8.8.5 1.3-.2.5-.3 1.1-.3 1.7v2c0 .6-.4 1-1 1s-1-.4-1-1v-2c0-.9.2-1.7.5-2.4.2-.6.8-.8 1.3-.6zM628.8 241.6c.5-.2 1.1 0 1.3.5.3.7.5 1.6.5 2.4v2c0 .6-.4 1-1 1s-1-.4-1-1v-2c0-.6-.1-1.1-.3-1.7-.3-.4 0-1 .5-1.2zM602.9 249.6c.6 0 1 .4 1 1v4c0 .6-.4 1-1 1s-1-.4-1-1v-4c0-.6.5-1 1-1zM629.6 249.6c.6 0 1 .4 1 1v4c0 .6-.4 1-1 1s-1-.4-1-1v-4c0-.6.4-1 1-1zM602.9 257.6c.6 0 1 .4 1 1v2c0 .6.1 1.1.3 1.7.2.5 0 1.1-.5 1.3-.5.2-1.1 0-1.3-.5-.3-.7-.5-1.6-.5-2.4v-2c0-.7.5-1.1 1-1.1zM629.6 257.6c.6 0 1 .4 1 1v2c0 .9-.2 1.7-.5 2.4-.2.5-.8.8-1.3.5-.5-.2-.8-.8-.5-1.3.2-.5.3-1.1.3-1.7v-2c0-.5.4-.9 1-.9zM605.3 265.1c.2-.5.8-.8 1.3-.5.5.2 1.1.3 1.7.3h2c.6 0 1 .4 1 1s-.4 1-1 1h-2c-.9 0-1.7-.2-2.4-.5-.6-.2-.8-.8-.6-1.3zM627.2 265.1c.2.5 0 1.1-.5 1.3-.7.3-1.6.5-2.4.5h-2c-.6 0-1-.4-1-1s.4-1 1-1h2c.6 0 1.1-.1 1.7-.3.4-.3 1 0 1.2.5zM613.2 265.9c0-.6.4-1 1-1h4c.6 0 1 .4 1 1s-.4 1-1 1h-4c-.5 0-1-.5-1-1zM627.6 242.7c.4-.4.4-1 0-1.4-.4-.4-1-.4-1.4 0l-1.3 1.3c-.4.4-.4 1 0 1.4.4.4 1 .4 1.4 0l1.3-1.3zM623.6 246.7c.4-.4.4-1 0-1.4-.4-.4-1-.4-1.4 0l-2.7 2.7c-.4.4-.4 1 0 1.4.4.4 1 .4 1.4 0l2.7-2.7zM618.3 252c.4-.4.4-1 0-1.4-.4-.4-1-.4-1.4 0l-.7.7-.7-.7c-.4-.4-1-.4-1.4 0-.4.4-.4 1 0 1.4l.7.7-.6.6c-.4.4-.4 1 0 1.4.4.4 1 .4 1.4 0l.6-.6.6.6c.4.4 1 .4 1.4 0 .4-.4.4-1 0-1.4l-.6-.6.7-.7zM613 257.3c.4-.4.4-1 0-1.4-.4-.4-1-.4-1.4 0l-2.7 2.7c-.4.4-.4 1 0 1.4.4.4 1 .4 1.4 0l2.7-2.7zM607.7 262.6c.4-.4.4-1 0-1.4-.4-.4-1-.4-1.4 0l-1.3 1.3c-.4.4-.4 1 0 1.4.4.4 1 .4 1.4 0l1.3-1.3zM626.1 263.9c.4.4 1 .4 1.4 0 .4-.4.4-1 0-1.4l-1.3-1.3c-.4-.4-1-.4-1.4 0-.4.4-.4 1 0 1.4l1.3 1.3zM622.1 259.9c.4.4 1 .4 1.4 0 .4-.4.4-1 0-1.4l-2.7-2.7c-.4-.4-1-.4-1.4 0-.4.4-.4 1 0 1.4l2.7 2.7zM611.5 249.3c.4.4 1 .4 1.4 0 .4-.4.4-1 0-1.4l-2.7-2.7c-.4-.4-1-.4-1.4 0-.4.4-.4 1 0 1.4l2.7 2.7zM606.2 244c.4.4 1 .4 1.4 0 .4-.4.4-1 0-1.4l-1.3-1.3c-.4-.4-1-.4-1.4 0-.4.4-.4 1 0 1.4l1.3 1.3zM612.3 245.7c.4-.1.8-.2 1.3-.2h1c.6 0 1-.4 1-1s-.4-1-1-1h-1c-.6 0-1.3.1-1.8.3-.5.2-.8.7-.7 1.2.1.6.7.9 1.2.7zM617.9 243.6c-.6 0-1 .4-1 1s.4 1 1 1h1c.4 0 .9.1 1.3.2.5.2 1.1-.1 1.2-.7.2-.5-.1-1.1-.7-1.2-.6-.2-1.2-.3-1.8-.3h-1zM609.4 248.6c.2-.5-.1-1.1-.7-1.2-.5-.2-1.1.1-1.2.7-.2.6-.3 1.2-.3 1.8v1c0 .6.4 1 1 1s1-.4 1-1v-1c0-.5.1-.9.2-1.3zM625 248c-.2-.5-.7-.8-1.2-.7-.5.2-.8.7-.7 1.2.1.4.2.8.2 1.3v1c0 .6.4 1 1 1s1-.4 1-1v-1l-.3-1.8zM609.2 254.2c0-.6-.4-1-1-1s-1 .4-1 1v1c0 .6.1 1.3.3 1.8.2.5.7.8 1.2.7.5-.2.8-.7.7-1.2-.1-.4-.2-.8-.2-1.3v-1zM625.2 254.2c0-.6-.4-1-1-1s-1 .4-1 1v1c0 .4-.1.9-.2 1.3-.2.5.1 1.1.7 1.2.5.2 1.1-.1 1.2-.7.2-.6.3-1.2.3-1.8v-1zM612.3 259.4c-.5-.2-1.1.1-1.2.7-.2.5.1 1.1.7 1.2.6.2 1.2.3 1.8.3h1c.6 0 1-.4 1-1s-.4-1-1-1h-1c-.5 0-.9-.1-1.3-.2zM620.7 261.3c.5-.2.8-.7.7-1.2-.2-.5-.7-.8-1.2-.7-.4.1-.8.2-1.3.2h-1c-.6 0-1 .4-1 1s.4 1 1 1h1c.6 0 1.3-.1 1.8-.3z"/></svg>