<svg width="960" height="184" viewBox="0 0 960 184" fill="none" xmlns="http://www.w3.org/2000/svg">
<g clip-path="url(#clip0_296_60499)">
<g clip-path="url(#clip1_296_60499)">
<rect width="479" height="184" fill="#252A2E"/>
<rect x="118.5" y="68.5" width="242" height="47" rx="3.5" fill="#019AEB" fill-opacity="0.4"/>
<path d="M146 89.03C146.55 89.03 147 88.58 147 88.03C147 87.48 146.55 87.03 146 87.03C145.45 87.03 145 87.48 145 88.03C145 88.58 145.45 89.03 146 89.03ZM146 102C151.52 102 156 97.52 156 92C156 86.48 151.52 82 146 82C140.48 82 136 86.48 136 92C136 97.52 140.48 102 146 102ZM146 84C150.41 84 154 87.59 154 92C154 96.41 150.41 100 146 100C141.59 100 138 96.41 138 92C138 87.59 141.59 84 146 84ZM146 97C146.55 97 147 96.55 147 96V92C147 91.45 146.55 91 146 91C145.45 91 145 91.45 145 92V96C145 96.55 145.45 97 146 97Z" fill="white"/>
<path d="M170.45 97H169.288V88.0381H166.123V87.0059H173.615V88.0381H170.45V97ZM180.332 97V92.1533C180.332 91.5426 180.193 91.0869 179.915 90.7861C179.637 90.4854 179.202 90.335 178.609 90.335C177.821 90.335 177.244 90.5492 176.88 90.9775C176.52 91.4059 176.34 92.1077 176.34 93.083V97H175.205V86.3633H176.34V89.583C176.34 89.9704 176.322 90.2917 176.285 90.5469H176.354C176.577 90.1868 176.894 89.9043 177.304 89.6992C177.718 89.4896 178.19 89.3848 178.719 89.3848C179.635 89.3848 180.321 89.6035 180.776 90.041C181.237 90.474 181.467 91.1644 181.467 92.1123V97H180.332ZM185.189 97H184.055V89.5078H185.189V97ZM183.959 87.4775C183.959 87.2178 184.023 87.0286 184.15 86.9102C184.278 86.7871 184.438 86.7256 184.629 86.7256C184.811 86.7256 184.968 86.7871 185.101 86.9102C185.233 87.0332 185.299 87.2223 185.299 87.4775C185.299 87.7327 185.233 87.9242 185.101 88.0518C184.968 88.1748 184.811 88.2363 184.629 88.2363C184.438 88.2363 184.278 88.1748 184.15 88.0518C184.023 87.9242 183.959 87.7327 183.959 87.4775ZM192.679 94.9561C192.679 95.6533 192.419 96.1911 191.899 96.5693C191.38 96.9476 190.651 97.1367 189.712 97.1367C188.718 97.1367 187.944 96.9795 187.388 96.665V95.6123C187.748 95.7946 188.133 95.9382 188.543 96.043C188.958 96.1478 189.356 96.2002 189.739 96.2002C190.332 96.2002 190.787 96.1068 191.106 95.9199C191.425 95.7285 191.585 95.4391 191.585 95.0518C191.585 94.7601 191.457 94.5117 191.202 94.3066C190.951 94.097 190.459 93.8509 189.726 93.5684C189.028 93.3086 188.532 93.083 188.235 92.8916C187.944 92.6956 187.725 92.4746 187.579 92.2285C187.438 91.9824 187.367 91.6885 187.367 91.3467C187.367 90.736 187.616 90.2552 188.112 89.9043C188.609 89.5488 189.29 89.3711 190.156 89.3711C190.963 89.3711 191.751 89.5352 192.521 89.8633L192.118 90.7861C191.366 90.4762 190.685 90.3213 190.074 90.3213C189.536 90.3213 189.131 90.4056 188.857 90.5742C188.584 90.7428 188.447 90.9753 188.447 91.2715C188.447 91.472 188.497 91.6429 188.598 91.7842C188.702 91.9255 188.869 92.0599 189.097 92.1875C189.325 92.3151 189.762 92.4997 190.409 92.7412C191.298 93.0648 191.897 93.3906 192.207 93.7188C192.521 94.0469 192.679 94.4593 192.679 94.9561ZM199.803 97H198.668V89.5078H199.803V97ZM198.572 87.4775C198.572 87.2178 198.636 87.0286 198.764 86.9102C198.891 86.7871 199.051 86.7256 199.242 86.7256C199.424 86.7256 199.582 86.7871 199.714 86.9102C199.846 87.0332 199.912 87.2223 199.912 87.4775C199.912 87.7327 199.846 87.9242 199.714 88.0518C199.582 88.1748 199.424 88.2363 199.242 88.2363C199.051 88.2363 198.891 88.1748 198.764 88.0518C198.636 87.9242 198.572 87.7327 198.572 87.4775ZM207.292 94.9561C207.292 95.6533 207.032 96.1911 206.513 96.5693C205.993 96.9476 205.264 97.1367 204.325 97.1367C203.332 97.1367 202.557 96.9795 202.001 96.665V95.6123C202.361 95.7946 202.746 95.9382 203.156 96.043C203.571 96.1478 203.97 96.2002 204.353 96.2002C204.945 96.2002 205.401 96.1068 205.72 95.9199C206.039 95.7285 206.198 95.4391 206.198 95.0518C206.198 94.7601 206.071 94.5117 205.815 94.3066C205.565 94.097 205.073 93.8509 204.339 93.5684C203.642 93.3086 203.145 93.083 202.849 92.8916C202.557 92.6956 202.338 92.4746 202.192 92.2285C202.051 91.9824 201.98 91.6885 201.98 91.3467C201.98 90.736 202.229 90.2552 202.726 89.9043C203.222 89.5488 203.904 89.3711 204.77 89.3711C205.576 89.3711 206.365 89.5352 207.135 89.8633L206.731 90.7861C205.979 90.4762 205.298 90.3213 204.688 90.3213C204.15 90.3213 203.744 90.4056 203.471 90.5742C203.197 90.7428 203.061 90.9753 203.061 91.2715C203.061 91.472 203.111 91.6429 203.211 91.7842C203.316 91.9255 203.482 92.0599 203.71 92.1875C203.938 92.3151 204.375 92.4997 205.022 92.7412C205.911 93.0648 206.51 93.3906 206.82 93.7188C207.135 94.0469 207.292 94.4593 207.292 94.9561ZM217.889 97L217.663 95.9336H217.608C217.235 96.403 216.861 96.722 216.487 96.8906C216.118 97.0547 215.656 97.1367 215.1 97.1367C214.357 97.1367 213.773 96.9453 213.35 96.5625C212.93 96.1797 212.721 95.6351 212.721 94.9287C212.721 93.4157 213.931 92.6227 216.351 92.5498L217.622 92.5088V92.0439C217.622 91.4561 217.494 91.0231 217.239 90.7451C216.989 90.4626 216.585 90.3213 216.029 90.3213C215.405 90.3213 214.699 90.5127 213.91 90.8955L213.562 90.0273C213.931 89.8268 214.334 89.6696 214.771 89.5557C215.214 89.4417 215.656 89.3848 216.098 89.3848C216.991 89.3848 217.652 89.583 218.08 89.9795C218.513 90.376 218.729 91.0117 218.729 91.8867V97H217.889ZM215.325 96.2002C216.032 96.2002 216.585 96.0065 216.986 95.6191C217.392 95.2318 217.595 94.6895 217.595 93.9922V93.3154L216.46 93.3633C215.558 93.3952 214.906 93.5365 214.505 93.7871C214.108 94.0332 213.91 94.4183 213.91 94.9424C213.91 95.3525 214.033 95.6647 214.279 95.8789C214.53 96.0931 214.879 96.2002 215.325 96.2002ZM228.697 97.1367C228.21 97.1367 227.763 97.0479 227.357 96.8701C226.956 96.6878 226.619 96.4098 226.346 96.0361H226.264C226.318 96.4736 226.346 96.8883 226.346 97.2803V100.363H225.211V89.5078H226.134L226.291 90.5332H226.346C226.637 90.123 226.977 89.8268 227.364 89.6445C227.752 89.4622 228.196 89.3711 228.697 89.3711C229.691 89.3711 230.456 89.7106 230.994 90.3896C231.536 91.0687 231.808 92.0212 231.808 93.2471C231.808 94.4775 231.532 95.4346 230.98 96.1182C230.434 96.7972 229.673 97.1367 228.697 97.1367ZM228.533 90.335C227.768 90.335 227.214 90.5469 226.872 90.9707C226.53 91.3945 226.355 92.069 226.346 92.9941V93.2471C226.346 94.2998 226.521 95.054 226.872 95.5098C227.223 95.9609 227.786 96.1865 228.561 96.1865C229.208 96.1865 229.714 95.9245 230.078 95.4004C230.447 94.8763 230.632 94.154 230.632 93.2334C230.632 92.2992 230.447 91.5837 230.078 91.0869C229.714 90.5856 229.199 90.335 228.533 90.335ZM237.465 89.3711C237.798 89.3711 238.096 89.3984 238.36 89.4531L238.203 90.5059C237.893 90.4375 237.62 90.4033 237.383 90.4033C236.777 90.4033 236.257 90.6494 235.824 91.1416C235.396 91.6338 235.182 92.2467 235.182 92.9805V97H234.047V89.5078H234.983L235.113 90.8955H235.168C235.446 90.4079 235.781 90.0319 236.173 89.7676C236.565 89.5033 236.995 89.3711 237.465 89.3711ZM241.146 97H240.012V89.5078H241.146V97ZM239.916 87.4775C239.916 87.2178 239.98 87.0286 240.107 86.9102C240.235 86.7871 240.395 86.7256 240.586 86.7256C240.768 86.7256 240.925 86.7871 241.058 86.9102C241.19 87.0332 241.256 87.2223 241.256 87.4775C241.256 87.7327 241.19 87.9242 241.058 88.0518C240.925 88.1748 240.768 88.2363 240.586 88.2363C240.395 88.2363 240.235 88.1748 240.107 88.0518C239.98 87.9242 239.916 87.7327 239.916 87.4775ZM253.353 97V92.126C253.353 91.529 253.225 91.0824 252.97 90.7861C252.715 90.4854 252.318 90.335 251.78 90.335C251.074 90.335 250.552 90.5378 250.215 90.9434C249.878 91.349 249.709 91.9733 249.709 92.8164V97H248.574V92.126C248.574 91.529 248.447 91.0824 248.191 90.7861C247.936 90.4854 247.537 90.335 246.995 90.335C246.284 90.335 245.762 90.5492 245.43 90.9775C245.102 91.4014 244.938 92.0986 244.938 93.0693V97H243.803V89.5078H244.726L244.91 90.5332H244.965C245.179 90.1686 245.48 89.8838 245.867 89.6787C246.259 89.4736 246.697 89.3711 247.18 89.3711C248.351 89.3711 249.117 89.7949 249.477 90.6426H249.531C249.755 90.2507 250.078 89.9408 250.502 89.7129C250.926 89.485 251.409 89.3711 251.951 89.3711C252.799 89.3711 253.432 89.5898 253.852 90.0273C254.275 90.4603 254.487 91.1553 254.487 92.1123V97H253.353ZM261.689 97L261.464 95.9336H261.409C261.035 96.403 260.662 96.722 260.288 96.8906C259.919 97.0547 259.456 97.1367 258.9 97.1367C258.158 97.1367 257.574 96.9453 257.15 96.5625C256.731 96.1797 256.521 95.6351 256.521 94.9287C256.521 93.4157 257.731 92.6227 260.151 92.5498L261.423 92.5088V92.0439C261.423 91.4561 261.295 91.0231 261.04 90.7451C260.789 90.4626 260.386 90.3213 259.83 90.3213C259.206 90.3213 258.499 90.5127 257.711 90.8955L257.362 90.0273C257.731 89.8268 258.135 89.6696 258.572 89.5557C259.014 89.4417 259.456 89.3848 259.898 89.3848C260.792 89.3848 261.452 89.583 261.881 89.9795C262.314 90.376 262.53 91.0117 262.53 91.8867V97H261.689ZM259.126 96.2002C259.832 96.2002 260.386 96.0065 260.787 95.6191C261.193 95.2318 261.396 94.6895 261.396 93.9922V93.3154L260.261 93.3633C259.358 93.3952 258.707 93.5365 258.306 93.7871C257.909 94.0332 257.711 94.4183 257.711 94.9424C257.711 95.3525 257.834 95.6647 258.08 95.8789C258.331 96.0931 258.679 96.2002 259.126 96.2002ZM268.543 89.3711C268.876 89.3711 269.174 89.3984 269.438 89.4531L269.281 90.5059C268.971 90.4375 268.698 90.4033 268.461 90.4033C267.855 90.4033 267.335 90.6494 266.902 91.1416C266.474 91.6338 266.26 92.2467 266.26 92.9805V97H265.125V89.5078H266.062L266.191 90.8955H266.246C266.524 90.4079 266.859 90.0319 267.251 89.7676C267.643 89.5033 268.074 89.3711 268.543 89.3711ZM269.9 89.5078H271.117L272.758 93.7803C273.118 94.7555 273.341 95.4596 273.428 95.8926H273.482C273.542 95.6602 273.665 95.2637 273.852 94.7031C274.043 94.138 274.663 92.4062 275.711 89.5078H276.928L273.708 98.0391C273.389 98.8822 273.015 99.4792 272.587 99.8301C272.163 100.186 271.641 100.363 271.021 100.363C270.675 100.363 270.333 100.325 269.996 100.247V99.3379C270.247 99.3926 270.527 99.4199 270.837 99.4199C271.616 99.4199 272.172 98.9824 272.505 98.1074L272.922 97.041L269.9 89.5078ZM291.831 97V92.126C291.831 91.529 291.703 91.0824 291.448 90.7861C291.193 90.4854 290.797 90.335 290.259 90.335C289.552 90.335 289.031 90.5378 288.693 90.9434C288.356 91.349 288.188 91.9733 288.188 92.8164V97H287.053V92.126C287.053 91.529 286.925 91.0824 286.67 90.7861C286.415 90.4854 286.016 90.335 285.474 90.335C284.763 90.335 284.241 90.5492 283.908 90.9775C283.58 91.4014 283.416 92.0986 283.416 93.0693V97H282.281V89.5078H283.204L283.389 90.5332H283.443C283.658 90.1686 283.958 89.8838 284.346 89.6787C284.738 89.4736 285.175 89.3711 285.658 89.3711C286.829 89.3711 287.595 89.7949 287.955 90.6426H288.01C288.233 90.2507 288.557 89.9408 288.98 89.7129C289.404 89.485 289.887 89.3711 290.43 89.3711C291.277 89.3711 291.911 89.5898 292.33 90.0273C292.754 90.4603 292.966 91.1553 292.966 92.1123V97H291.831ZM298.726 97.1367C297.618 97.1367 296.743 96.7995 296.101 96.125C295.463 95.4505 295.144 94.514 295.144 93.3154C295.144 92.1077 295.44 91.1484 296.032 90.4375C296.629 89.7266 297.429 89.3711 298.432 89.3711C299.37 89.3711 300.113 89.681 300.66 90.3008C301.207 90.916 301.48 91.7295 301.48 92.7412V93.459H296.319C296.342 94.3385 296.563 95.0062 296.982 95.4619C297.406 95.9176 298.001 96.1455 298.767 96.1455C299.573 96.1455 300.371 95.9769 301.159 95.6396V96.6514C300.758 96.8245 300.378 96.9476 300.018 97.0205C299.662 97.098 299.231 97.1367 298.726 97.1367ZM298.418 90.3213C297.816 90.3213 297.336 90.5173 296.976 90.9092C296.62 91.3011 296.41 91.8434 296.347 92.5361H300.264C300.264 91.8206 300.104 91.2738 299.785 90.8955C299.466 90.5127 299.01 90.3213 298.418 90.3213ZM308.505 94.9561C308.505 95.6533 308.245 96.1911 307.726 96.5693C307.206 96.9476 306.477 97.1367 305.538 97.1367C304.545 97.1367 303.77 96.9795 303.214 96.665V95.6123C303.574 95.7946 303.959 95.9382 304.369 96.043C304.784 96.1478 305.183 96.2002 305.565 96.2002C306.158 96.2002 306.614 96.1068 306.933 95.9199C307.252 95.7285 307.411 95.4391 307.411 95.0518C307.411 94.7601 307.284 94.5117 307.028 94.3066C306.778 94.097 306.285 93.8509 305.552 93.5684C304.854 93.3086 304.358 93.083 304.062 92.8916C303.77 92.6956 303.551 92.4746 303.405 92.2285C303.264 91.9824 303.193 91.6885 303.193 91.3467C303.193 90.736 303.442 90.2552 303.938 89.9043C304.435 89.5488 305.117 89.3711 305.982 89.3711C306.789 89.3711 307.577 89.5352 308.348 89.8633L307.944 90.7861C307.192 90.4762 306.511 90.3213 305.9 90.3213C305.363 90.3213 304.957 90.4056 304.684 90.5742C304.41 90.7428 304.273 90.9753 304.273 91.2715C304.273 91.472 304.324 91.6429 304.424 91.7842C304.529 91.9255 304.695 92.0599 304.923 92.1875C305.151 92.3151 305.588 92.4997 306.235 92.7412C307.124 93.0648 307.723 93.3906 308.033 93.7188C308.348 94.0469 308.505 94.4593 308.505 94.9561ZM315.44 94.9561C315.44 95.6533 315.181 96.1911 314.661 96.5693C314.142 96.9476 313.412 97.1367 312.474 97.1367C311.48 97.1367 310.705 96.9795 310.149 96.665V95.6123C310.509 95.7946 310.895 95.9382 311.305 96.043C311.719 96.1478 312.118 96.2002 312.501 96.2002C313.093 96.2002 313.549 96.1068 313.868 95.9199C314.187 95.7285 314.347 95.4391 314.347 95.0518C314.347 94.7601 314.219 94.5117 313.964 94.3066C313.713 94.097 313.221 93.8509 312.487 93.5684C311.79 93.3086 311.293 93.083 310.997 92.8916C310.705 92.6956 310.487 92.4746 310.341 92.2285C310.2 91.9824 310.129 91.6885 310.129 91.3467C310.129 90.736 310.377 90.2552 310.874 89.9043C311.371 89.5488 312.052 89.3711 312.918 89.3711C313.725 89.3711 314.513 89.5352 315.283 89.8633L314.88 90.7861C314.128 90.4762 313.447 90.3213 312.836 90.3213C312.298 90.3213 311.893 90.4056 311.619 90.5742C311.346 90.7428 311.209 90.9753 311.209 91.2715C311.209 91.472 311.259 91.6429 311.359 91.7842C311.464 91.9255 311.631 92.0599 311.858 92.1875C312.086 92.3151 312.524 92.4997 313.171 92.7412C314.06 93.0648 314.659 93.3906 314.969 93.7188C315.283 94.0469 315.44 94.4593 315.44 94.9561ZM322.15 97L321.925 95.9336H321.87C321.496 96.403 321.123 96.722 320.749 96.8906C320.38 97.0547 319.917 97.1367 319.361 97.1367C318.618 97.1367 318.035 96.9453 317.611 96.5625C317.192 96.1797 316.982 95.6351 316.982 94.9287C316.982 93.4157 318.192 92.6227 320.612 92.5498L321.884 92.5088V92.0439C321.884 91.4561 321.756 91.0231 321.501 90.7451C321.25 90.4626 320.847 90.3213 320.291 90.3213C319.667 90.3213 318.96 90.5127 318.172 90.8955L317.823 90.0273C318.192 89.8268 318.596 89.6696 319.033 89.5557C319.475 89.4417 319.917 89.3848 320.359 89.3848C321.253 89.3848 321.913 89.583 322.342 89.9795C322.775 90.376 322.991 91.0117 322.991 91.8867V97H322.15ZM319.587 96.2002C320.293 96.2002 320.847 96.0065 321.248 95.6191C321.654 95.2318 321.856 94.6895 321.856 93.9922V93.3154L320.722 93.3633C319.819 93.3952 319.168 93.5365 318.767 93.7871C318.37 94.0332 318.172 94.4183 318.172 94.9424C318.172 95.3525 318.295 95.6647 318.541 95.8789C318.792 96.0931 319.14 96.2002 319.587 96.2002ZM331.718 89.5078V90.2256L330.33 90.3896C330.458 90.5492 330.572 90.7588 330.672 91.0186C330.772 91.2738 330.822 91.5632 330.822 91.8867C330.822 92.6204 330.572 93.2061 330.07 93.6436C329.569 94.0811 328.881 94.2998 328.006 94.2998C327.783 94.2998 327.573 94.2816 327.377 94.2451C326.894 94.5003 326.652 94.8216 326.652 95.209C326.652 95.4141 326.737 95.5667 326.905 95.667C327.074 95.7627 327.363 95.8105 327.773 95.8105H329.1C329.911 95.8105 330.533 95.9814 330.966 96.3232C331.403 96.665 331.622 97.1618 331.622 97.8135C331.622 98.6429 331.289 99.2741 330.624 99.707C329.959 100.145 328.988 100.363 327.712 100.363C326.732 100.363 325.976 100.181 325.442 99.8164C324.914 99.4518 324.649 98.9368 324.649 98.2715C324.649 97.8158 324.795 97.4215 325.087 97.0889C325.379 96.7562 325.789 96.5306 326.317 96.4121C326.126 96.3255 325.964 96.1911 325.832 96.0088C325.704 95.8265 325.641 95.6146 325.641 95.373C325.641 95.0996 325.714 94.8604 325.859 94.6553C326.005 94.4502 326.235 94.252 326.55 94.0605C326.162 93.901 325.846 93.6299 325.6 93.2471C325.358 92.8643 325.237 92.4268 325.237 91.9346C325.237 91.1143 325.483 90.4831 325.976 90.041C326.468 89.5944 327.165 89.3711 328.067 89.3711C328.459 89.3711 328.812 89.4167 329.127 89.5078H331.718ZM325.743 98.2578C325.743 98.6634 325.914 98.971 326.256 99.1807C326.598 99.3903 327.088 99.4951 327.726 99.4951C328.678 99.4951 329.382 99.3516 329.838 99.0645C330.298 98.7819 330.528 98.3968 330.528 97.9092C330.528 97.5036 330.403 97.221 330.152 97.0615C329.902 96.9066 329.43 96.8291 328.737 96.8291H327.377C326.862 96.8291 326.461 96.9521 326.174 97.1982C325.887 97.4443 325.743 97.7975 325.743 98.2578ZM326.358 91.9072C326.358 92.4313 326.507 92.8278 326.803 93.0967C327.099 93.3656 327.511 93.5 328.04 93.5C329.147 93.5 329.701 92.9622 329.701 91.8867C329.701 90.7611 329.141 90.1982 328.02 90.1982C327.486 90.1982 327.076 90.3418 326.789 90.6289C326.502 90.916 326.358 91.3421 326.358 91.9072ZM336.671 97.1367C335.563 97.1367 334.688 96.7995 334.046 96.125C333.408 95.4505 333.089 94.514 333.089 93.3154C333.089 92.1077 333.385 91.1484 333.978 90.4375C334.575 89.7266 335.374 89.3711 336.377 89.3711C337.316 89.3711 338.059 89.681 338.605 90.3008C339.152 90.916 339.426 91.7295 339.426 92.7412V93.459H334.265C334.287 94.3385 334.508 95.0062 334.928 95.4619C335.352 95.9176 335.946 96.1455 336.712 96.1455C337.519 96.1455 338.316 95.9769 339.104 95.6396V96.6514C338.703 96.8245 338.323 96.9476 337.963 97.0205C337.607 97.098 337.177 97.1367 336.671 97.1367ZM336.363 90.3213C335.762 90.3213 335.281 90.5173 334.921 90.9092C334.565 91.3011 334.356 91.8434 334.292 92.5361H338.209C338.209 91.8206 338.049 91.2738 337.73 90.8955C337.411 90.5127 336.956 90.3213 336.363 90.3213ZM341.453 96.2754C341.453 95.9701 341.521 95.7399 341.658 95.585C341.799 95.4255 342 95.3457 342.26 95.3457C342.524 95.3457 342.729 95.4255 342.875 95.585C343.025 95.7399 343.101 95.9701 343.101 96.2754C343.101 96.5716 343.025 96.7995 342.875 96.959C342.725 97.1185 342.52 97.1982 342.26 97.1982C342.027 97.1982 341.834 97.1276 341.679 96.9863C341.528 96.8405 341.453 96.6035 341.453 96.2754Z" fill="white"/>
<rect x="118.5" y="68.5" width="242" height="47" rx="3.5" stroke="#019AEB"/>
<rect width="479" height="184" transform="translate(481)" fill="#252A2E"/>
<rect x="597.5" y="68.5" width="246" height="47" rx="3.5" fill="#6A6E79" fill-opacity="0.4"/>
<path d="M624.39 85.05C622.84 85.29 621.59 86.41 621.16 87.88C621 88.44 621.4 89 621.98 89H622.28C622.67 89 622.98 88.72 623.1 88.35C623.43 87.4 624.46 86.77 625.57 87.08C626.27 87.28 626.83 87.89 626.96 88.61C627.09 89.31 626.87 89.97 626.41 90.41L625.17 91.67C624.75 92.09 624.42 92.61 624.22 93.19C624.08 93.6 624 94.04 624 94.5V95H626C626 94.54 626.05 94.18 626.13 93.86C626.31 93.14 626.67 92.68 627.17 92.17L628.07 91.25C629.09 90.23 629.44 88.48 628.26 86.85C627.36 85.6 625.91 84.81 624.39 85.05ZM625 97C624.45 97 624 97.45 624 98C624 98.55 624.45 99 625 99C625.55 99 626 98.55 626 98C626 97.45 625.55 97 625 97ZM625 82C619.48 82 615 86.48 615 92C615 97.52 619.48 102 625 102C630.52 102 635 97.52 635 92C635 86.48 630.52 82 625 82ZM625 100C620.59 100 617 96.41 617 92C617 87.59 620.59 84 625 84C629.41 84 633 87.59 633 92C633 96.41 629.41 100 625 100Z" fill="white"/>
<path d="M649.45 97H648.288V88.0381H645.123V87.0059H652.615V88.0381H649.45V97ZM659.332 97V92.1533C659.332 91.5426 659.193 91.0869 658.915 90.7861C658.637 90.4854 658.202 90.335 657.609 90.335C656.821 90.335 656.244 90.5492 655.88 90.9775C655.52 91.4059 655.34 92.1077 655.34 93.083V97H654.205V86.3633H655.34V89.583C655.34 89.9704 655.322 90.2917 655.285 90.5469H655.354C655.577 90.1868 655.894 89.9043 656.304 89.6992C656.718 89.4896 657.19 89.3848 657.719 89.3848C658.635 89.3848 659.321 89.6035 659.776 90.041C660.237 90.474 660.467 91.1644 660.467 92.1123V97H659.332ZM664.189 97H663.055V89.5078H664.189V97ZM662.959 87.4775C662.959 87.2178 663.023 87.0286 663.15 86.9102C663.278 86.7871 663.438 86.7256 663.629 86.7256C663.811 86.7256 663.968 86.7871 664.101 86.9102C664.233 87.0332 664.299 87.2223 664.299 87.4775C664.299 87.7327 664.233 87.9242 664.101 88.0518C663.968 88.1748 663.811 88.2363 663.629 88.2363C663.438 88.2363 663.278 88.1748 663.15 88.0518C663.023 87.9242 662.959 87.7327 662.959 87.4775ZM671.679 94.9561C671.679 95.6533 671.419 96.1911 670.899 96.5693C670.38 96.9476 669.651 97.1367 668.712 97.1367C667.718 97.1367 666.944 96.9795 666.388 96.665V95.6123C666.748 95.7946 667.133 95.9382 667.543 96.043C667.958 96.1478 668.356 96.2002 668.739 96.2002C669.332 96.2002 669.787 96.1068 670.106 95.9199C670.425 95.7285 670.585 95.4391 670.585 95.0518C670.585 94.7601 670.457 94.5117 670.202 94.3066C669.951 94.097 669.459 93.8509 668.726 93.5684C668.028 93.3086 667.532 93.083 667.235 92.8916C666.944 92.6956 666.725 92.4746 666.579 92.2285C666.438 91.9824 666.367 91.6885 666.367 91.3467C666.367 90.736 666.616 90.2552 667.112 89.9043C667.609 89.5488 668.29 89.3711 669.156 89.3711C669.963 89.3711 670.751 89.5352 671.521 89.8633L671.118 90.7861C670.366 90.4762 669.685 90.3213 669.074 90.3213C668.536 90.3213 668.131 90.4056 667.857 90.5742C667.584 90.7428 667.447 90.9753 667.447 91.2715C667.447 91.472 667.497 91.6429 667.598 91.7842C667.702 91.9255 667.869 92.0599 668.097 92.1875C668.325 92.3151 668.762 92.4997 669.409 92.7412C670.298 93.0648 670.897 93.3906 671.207 93.7188C671.521 94.0469 671.679 94.4593 671.679 94.9561ZM678.803 97H677.668V89.5078H678.803V97ZM677.572 87.4775C677.572 87.2178 677.636 87.0286 677.764 86.9102C677.891 86.7871 678.051 86.7256 678.242 86.7256C678.424 86.7256 678.582 86.7871 678.714 86.9102C678.846 87.0332 678.912 87.2223 678.912 87.4775C678.912 87.7327 678.846 87.9242 678.714 88.0518C678.582 88.1748 678.424 88.2363 678.242 88.2363C678.051 88.2363 677.891 88.1748 677.764 88.0518C677.636 87.9242 677.572 87.7327 677.572 87.4775ZM686.292 94.9561C686.292 95.6533 686.032 96.1911 685.513 96.5693C684.993 96.9476 684.264 97.1367 683.325 97.1367C682.332 97.1367 681.557 96.9795 681.001 96.665V95.6123C681.361 95.7946 681.746 95.9382 682.156 96.043C682.571 96.1478 682.97 96.2002 683.353 96.2002C683.945 96.2002 684.401 96.1068 684.72 95.9199C685.039 95.7285 685.198 95.4391 685.198 95.0518C685.198 94.7601 685.071 94.5117 684.815 94.3066C684.565 94.097 684.073 93.8509 683.339 93.5684C682.642 93.3086 682.145 93.083 681.849 92.8916C681.557 92.6956 681.338 92.4746 681.192 92.2285C681.051 91.9824 680.98 91.6885 680.98 91.3467C680.98 90.736 681.229 90.2552 681.726 89.9043C682.222 89.5488 682.904 89.3711 683.77 89.3711C684.576 89.3711 685.365 89.5352 686.135 89.8633L685.731 90.7861C684.979 90.4762 684.298 90.3213 683.688 90.3213C683.15 90.3213 682.744 90.4056 682.471 90.5742C682.197 90.7428 682.061 90.9753 682.061 91.2715C682.061 91.472 682.111 91.6429 682.211 91.7842C682.316 91.9255 682.482 92.0599 682.71 92.1875C682.938 92.3151 683.375 92.4997 684.022 92.7412C684.911 93.0648 685.51 93.3906 685.82 93.7188C686.135 94.0469 686.292 94.4593 686.292 94.9561ZM697.114 94.9561C697.114 95.6533 696.854 96.1911 696.335 96.5693C695.815 96.9476 695.086 97.1367 694.147 97.1367C693.154 97.1367 692.379 96.9795 691.823 96.665V95.6123C692.183 95.7946 692.568 95.9382 692.979 96.043C693.393 96.1478 693.792 96.2002 694.175 96.2002C694.767 96.2002 695.223 96.1068 695.542 95.9199C695.861 95.7285 696.021 95.4391 696.021 95.0518C696.021 94.7601 695.893 94.5117 695.638 94.3066C695.387 94.097 694.895 93.8509 694.161 93.5684C693.464 93.3086 692.967 93.083 692.671 92.8916C692.379 92.6956 692.16 92.4746 692.015 92.2285C691.873 91.9824 691.803 91.6885 691.803 91.3467C691.803 90.736 692.051 90.2552 692.548 89.9043C693.045 89.5488 693.726 89.3711 694.592 89.3711C695.398 89.3711 696.187 89.5352 696.957 89.8633L696.554 90.7861C695.802 90.4762 695.12 90.3213 694.51 90.3213C693.972 90.3213 693.566 90.4056 693.293 90.5742C693.02 90.7428 692.883 90.9753 692.883 91.2715C692.883 91.472 692.933 91.6429 693.033 91.7842C693.138 91.9255 693.304 92.0599 693.532 92.1875C693.76 92.3151 694.198 92.4997 694.845 92.7412C695.733 93.0648 696.333 93.3906 696.643 93.7188C696.957 94.0469 697.114 94.4593 697.114 94.9561ZM702.382 97.1367C701.274 97.1367 700.399 96.7995 699.757 96.125C699.119 95.4505 698.8 94.514 698.8 93.3154C698.8 92.1077 699.096 91.1484 699.688 90.4375C700.285 89.7266 701.085 89.3711 702.088 89.3711C703.027 89.3711 703.77 89.681 704.316 90.3008C704.863 90.916 705.137 91.7295 705.137 92.7412V93.459H699.976C699.998 94.3385 700.219 95.0062 700.639 95.4619C701.062 95.9176 701.657 96.1455 702.423 96.1455C703.229 96.1455 704.027 95.9769 704.815 95.6396V96.6514C704.414 96.8245 704.034 96.9476 703.674 97.0205C703.318 97.098 702.888 97.1367 702.382 97.1367ZM702.074 90.3213C701.473 90.3213 700.992 90.5173 700.632 90.9092C700.276 91.3011 700.067 91.8434 700.003 92.5361H703.92C703.92 91.8206 703.76 91.2738 703.441 90.8955C703.122 90.5127 702.667 90.3213 702.074 90.3213ZM710.322 97.1367C709.238 97.1367 708.397 96.804 707.8 96.1387C707.207 95.4688 706.911 94.5231 706.911 93.3018C706.911 92.0485 707.212 91.0801 707.813 90.3965C708.42 89.7129 709.281 89.3711 710.397 89.3711C710.757 89.3711 711.118 89.4098 711.478 89.4873C711.838 89.5648 712.12 89.6559 712.325 89.7607L711.977 90.7246C711.726 90.6243 711.452 90.5423 711.156 90.4785C710.86 90.4102 710.598 90.376 710.37 90.376C708.848 90.376 708.087 91.3467 708.087 93.2881C708.087 94.2087 708.271 94.915 708.641 95.4072C709.014 95.8994 709.566 96.1455 710.295 96.1455C710.919 96.1455 711.56 96.0111 712.216 95.7422V96.7471C711.715 97.0068 711.083 97.1367 710.322 97.1367ZM720.717 93.2471C720.717 94.4684 720.409 95.4232 719.794 96.1113C719.179 96.7949 718.329 97.1367 717.244 97.1367C716.574 97.1367 715.979 96.9795 715.46 96.665C714.94 96.3506 714.539 95.8994 714.257 95.3115C713.974 94.7236 713.833 94.0355 713.833 93.2471C713.833 92.0257 714.138 91.0755 714.749 90.3965C715.36 89.7129 716.207 89.3711 717.292 89.3711C718.34 89.3711 719.172 89.7197 719.787 90.417C720.407 91.1143 720.717 92.0576 720.717 93.2471ZM715.009 93.2471C715.009 94.2041 715.2 94.9333 715.583 95.4346C715.966 95.9359 716.529 96.1865 717.271 96.1865C718.014 96.1865 718.577 95.9382 718.96 95.4414C719.347 94.9401 719.541 94.2087 719.541 93.2471C719.541 92.2946 719.347 91.5723 718.96 91.0801C718.577 90.5833 718.01 90.335 717.258 90.335C716.515 90.335 715.954 90.5788 715.576 91.0664C715.198 91.554 715.009 92.2809 715.009 93.2471ZM728.09 97V92.1533C728.09 91.5426 727.951 91.0869 727.673 90.7861C727.395 90.4854 726.96 90.335 726.367 90.335C725.583 90.335 725.009 90.5469 724.645 90.9707C724.28 91.3945 724.098 92.0941 724.098 93.0693V97H722.963V89.5078H723.886L724.07 90.5332H724.125C724.357 90.1641 724.683 89.8792 725.103 89.6787C725.522 89.4736 725.989 89.3711 726.504 89.3711C727.406 89.3711 728.085 89.5898 728.541 90.0273C728.997 90.4603 729.225 91.1553 729.225 92.1123V97H728.09ZM736.912 95.9951H736.851C736.326 96.7562 735.543 97.1367 734.499 97.1367C733.519 97.1367 732.756 96.8018 732.209 96.1318C731.667 95.4619 731.396 94.5094 731.396 93.2744C731.396 92.0394 731.669 91.0801 732.216 90.3965C732.763 89.7129 733.524 89.3711 734.499 89.3711C735.515 89.3711 736.295 89.7402 736.837 90.4785H736.926L736.878 89.9385L736.851 89.4121V86.3633H737.985V97H737.062L736.912 95.9951ZM734.643 96.1865C735.417 96.1865 735.978 95.9769 736.324 95.5576C736.675 95.1338 736.851 94.4525 736.851 93.5137V93.2744C736.851 92.2126 736.673 91.4561 736.317 91.0049C735.966 90.5492 735.404 90.3213 734.629 90.3213C733.964 90.3213 733.453 90.5811 733.098 91.1006C732.747 91.6156 732.571 92.3447 732.571 93.2881C732.571 94.2451 732.747 94.9674 733.098 95.4551C733.449 95.9427 733.964 96.1865 734.643 96.1865ZM745.256 97L745.03 95.9336H744.976C744.602 96.403 744.228 96.722 743.854 96.8906C743.485 97.0547 743.023 97.1367 742.467 97.1367C741.724 97.1367 741.141 96.9453 740.717 96.5625C740.298 96.1797 740.088 95.6351 740.088 94.9287C740.088 93.4157 741.298 92.6227 743.718 92.5498L744.989 92.5088V92.0439C744.989 91.4561 744.862 91.0231 744.606 90.7451C744.356 90.4626 743.952 90.3213 743.396 90.3213C742.772 90.3213 742.066 90.5127 741.277 90.8955L740.929 90.0273C741.298 89.8268 741.701 89.6696 742.139 89.5557C742.581 89.4417 743.023 89.3848 743.465 89.3848C744.358 89.3848 745.019 89.583 745.447 89.9795C745.88 90.376 746.097 91.0117 746.097 91.8867V97H745.256ZM742.692 96.2002C743.399 96.2002 743.952 96.0065 744.354 95.6191C744.759 95.2318 744.962 94.6895 744.962 93.9922V93.3154L743.827 93.3633C742.925 93.3952 742.273 93.5365 741.872 93.7871C741.476 94.0332 741.277 94.4183 741.277 94.9424C741.277 95.3525 741.4 95.6647 741.646 95.8789C741.897 96.0931 742.246 96.2002 742.692 96.2002ZM752.109 89.3711C752.442 89.3711 752.741 89.3984 753.005 89.4531L752.848 90.5059C752.538 90.4375 752.264 90.4033 752.027 90.4033C751.421 90.4033 750.902 90.6494 750.469 91.1416C750.04 91.6338 749.826 92.2467 749.826 92.9805V97H748.691V89.5078H749.628L749.758 90.8955H749.812C750.09 90.4079 750.425 90.0319 750.817 89.7676C751.209 89.5033 751.64 89.3711 752.109 89.3711ZM753.467 89.5078H754.684L756.324 93.7803C756.684 94.7555 756.908 95.4596 756.994 95.8926H757.049C757.108 95.6602 757.231 95.2637 757.418 94.7031C757.609 94.138 758.229 92.4062 759.277 89.5078H760.494L757.274 98.0391C756.955 98.8822 756.582 99.4792 756.153 99.8301C755.729 100.186 755.208 100.363 754.588 100.363C754.242 100.363 753.9 100.325 753.562 100.247V99.3379C753.813 99.3926 754.093 99.4199 754.403 99.4199C755.183 99.4199 755.739 98.9824 756.071 98.1074L756.488 97.041L753.467 89.5078ZM775.397 97V92.126C775.397 91.529 775.27 91.0824 775.015 90.7861C774.759 90.4854 774.363 90.335 773.825 90.335C773.119 90.335 772.597 90.5378 772.26 90.9434C771.923 91.349 771.754 91.9733 771.754 92.8164V97H770.619V92.126C770.619 91.529 770.492 91.0824 770.236 90.7861C769.981 90.4854 769.582 90.335 769.04 90.335C768.329 90.335 767.807 90.5492 767.475 90.9775C767.146 91.4014 766.982 92.0986 766.982 93.0693V97H765.848V89.5078H766.771L766.955 90.5332H767.01C767.224 90.1686 767.525 89.8838 767.912 89.6787C768.304 89.4736 768.742 89.3711 769.225 89.3711C770.396 89.3711 771.161 89.7949 771.521 90.6426H771.576C771.799 90.2507 772.123 89.9408 772.547 89.7129C772.971 89.485 773.454 89.3711 773.996 89.3711C774.844 89.3711 775.477 89.5898 775.896 90.0273C776.32 90.4603 776.532 91.1553 776.532 92.1123V97H775.397ZM782.292 97.1367C781.185 97.1367 780.31 96.7995 779.667 96.125C779.029 95.4505 778.71 94.514 778.71 93.3154C778.71 92.1077 779.006 91.1484 779.599 90.4375C780.196 89.7266 780.995 89.3711 781.998 89.3711C782.937 89.3711 783.68 89.681 784.227 90.3008C784.773 90.916 785.047 91.7295 785.047 92.7412V93.459H779.886C779.909 94.3385 780.13 95.0062 780.549 95.4619C780.973 95.9176 781.567 96.1455 782.333 96.1455C783.14 96.1455 783.937 95.9769 784.726 95.6396V96.6514C784.325 96.8245 783.944 96.9476 783.584 97.0205C783.229 97.098 782.798 97.1367 782.292 97.1367ZM781.984 90.3213C781.383 90.3213 780.902 90.5173 780.542 90.9092C780.187 91.3011 779.977 91.8434 779.913 92.5361H783.83C783.83 91.8206 783.671 91.2738 783.352 90.8955C783.033 90.5127 782.577 90.3213 781.984 90.3213ZM792.071 94.9561C792.071 95.6533 791.812 96.1911 791.292 96.5693C790.772 96.9476 790.043 97.1367 789.104 97.1367C788.111 97.1367 787.336 96.9795 786.78 96.665V95.6123C787.14 95.7946 787.525 95.9382 787.936 96.043C788.35 96.1478 788.749 96.2002 789.132 96.2002C789.724 96.2002 790.18 96.1068 790.499 95.9199C790.818 95.7285 790.978 95.4391 790.978 95.0518C790.978 94.7601 790.85 94.5117 790.595 94.3066C790.344 94.097 789.852 93.8509 789.118 93.5684C788.421 93.3086 787.924 93.083 787.628 92.8916C787.336 92.6956 787.118 92.4746 786.972 92.2285C786.83 91.9824 786.76 91.6885 786.76 91.3467C786.76 90.736 787.008 90.2552 787.505 89.9043C788.002 89.5488 788.683 89.3711 789.549 89.3711C790.355 89.3711 791.144 89.5352 791.914 89.8633L791.511 90.7861C790.759 90.4762 790.077 90.3213 789.467 90.3213C788.929 90.3213 788.523 90.4056 788.25 90.5742C787.977 90.7428 787.84 90.9753 787.84 91.2715C787.84 91.472 787.89 91.6429 787.99 91.7842C788.095 91.9255 788.261 92.0599 788.489 92.1875C788.717 92.3151 789.155 92.4997 789.802 92.7412C790.69 93.0648 791.29 93.3906 791.6 93.7188C791.914 94.0469 792.071 94.4593 792.071 94.9561ZM799.007 94.9561C799.007 95.6533 798.747 96.1911 798.228 96.5693C797.708 96.9476 796.979 97.1367 796.04 97.1367C795.047 97.1367 794.272 96.9795 793.716 96.665V95.6123C794.076 95.7946 794.461 95.9382 794.871 96.043C795.286 96.1478 795.685 96.2002 796.067 96.2002C796.66 96.2002 797.116 96.1068 797.435 95.9199C797.754 95.7285 797.913 95.4391 797.913 95.0518C797.913 94.7601 797.785 94.5117 797.53 94.3066C797.28 94.097 796.787 93.8509 796.054 93.5684C795.356 93.3086 794.86 93.083 794.563 92.8916C794.272 92.6956 794.053 92.4746 793.907 92.2285C793.766 91.9824 793.695 91.6885 793.695 91.3467C793.695 90.736 793.944 90.2552 794.44 89.9043C794.937 89.5488 795.618 89.3711 796.484 89.3711C797.291 89.3711 798.079 89.5352 798.85 89.8633L798.446 90.7861C797.694 90.4762 797.013 90.3213 796.402 90.3213C795.865 90.3213 795.459 90.4056 795.186 90.5742C794.912 90.7428 794.775 90.9753 794.775 91.2715C794.775 91.472 794.826 91.6429 794.926 91.7842C795.031 91.9255 795.197 92.0599 795.425 92.1875C795.653 92.3151 796.09 92.4997 796.737 92.7412C797.626 93.0648 798.225 93.3906 798.535 93.7188C798.85 94.0469 799.007 94.4593 799.007 94.9561ZM805.717 97L805.491 95.9336H805.437C805.063 96.403 804.689 96.722 804.315 96.8906C803.946 97.0547 803.484 97.1367 802.928 97.1367C802.185 97.1367 801.602 96.9453 801.178 96.5625C800.758 96.1797 800.549 95.6351 800.549 94.9287C800.549 93.4157 801.759 92.6227 804.179 92.5498L805.45 92.5088V92.0439C805.45 91.4561 805.323 91.0231 805.067 90.7451C804.817 90.4626 804.413 90.3213 803.857 90.3213C803.233 90.3213 802.527 90.5127 801.738 90.8955L801.39 90.0273C801.759 89.8268 802.162 89.6696 802.6 89.5557C803.042 89.4417 803.484 89.3848 803.926 89.3848C804.819 89.3848 805.48 89.583 805.908 89.9795C806.341 90.376 806.558 91.0117 806.558 91.8867V97H805.717ZM803.153 96.2002C803.86 96.2002 804.413 96.0065 804.814 95.6191C805.22 95.2318 805.423 94.6895 805.423 93.9922V93.3154L804.288 93.3633C803.386 93.3952 802.734 93.5365 802.333 93.7871C801.937 94.0332 801.738 94.4183 801.738 94.9424C801.738 95.3525 801.861 95.6647 802.107 95.8789C802.358 96.0931 802.707 96.2002 803.153 96.2002ZM815.284 89.5078V90.2256L813.896 90.3896C814.024 90.5492 814.138 90.7588 814.238 91.0186C814.339 91.2738 814.389 91.5632 814.389 91.8867C814.389 92.6204 814.138 93.2061 813.637 93.6436C813.135 94.0811 812.447 94.2998 811.572 94.2998C811.349 94.2998 811.139 94.2816 810.943 94.2451C810.46 94.5003 810.219 94.8216 810.219 95.209C810.219 95.4141 810.303 95.5667 810.472 95.667C810.64 95.7627 810.93 95.8105 811.34 95.8105H812.666C813.477 95.8105 814.099 95.9814 814.532 96.3232C814.97 96.665 815.188 97.1618 815.188 97.8135C815.188 98.6429 814.856 99.2741 814.19 99.707C813.525 100.145 812.554 100.363 811.278 100.363C810.299 100.363 809.542 100.181 809.009 99.8164C808.48 99.4518 808.216 98.9368 808.216 98.2715C808.216 97.8158 808.362 97.4215 808.653 97.0889C808.945 96.7562 809.355 96.5306 809.884 96.4121C809.692 96.3255 809.531 96.1911 809.398 96.0088C809.271 95.8265 809.207 95.6146 809.207 95.373C809.207 95.0996 809.28 94.8604 809.426 94.6553C809.572 94.4502 809.802 94.252 810.116 94.0605C809.729 93.901 809.412 93.6299 809.166 93.2471C808.924 92.8643 808.804 92.4268 808.804 91.9346C808.804 91.1143 809.05 90.4831 809.542 90.041C810.034 89.5944 810.731 89.3711 811.634 89.3711C812.026 89.3711 812.379 89.4167 812.693 89.5078H815.284ZM809.31 98.2578C809.31 98.6634 809.48 98.971 809.822 99.1807C810.164 99.3903 810.654 99.4951 811.292 99.4951C812.244 99.4951 812.949 99.3516 813.404 99.0645C813.865 98.7819 814.095 98.3968 814.095 97.9092C814.095 97.5036 813.969 97.221 813.719 97.0615C813.468 96.9066 812.996 96.8291 812.304 96.8291H810.943C810.428 96.8291 810.027 96.9521 809.74 97.1982C809.453 97.4443 809.31 97.7975 809.31 98.2578ZM809.925 91.9072C809.925 92.4313 810.073 92.8278 810.369 93.0967C810.665 93.3656 811.078 93.5 811.606 93.5C812.714 93.5 813.268 92.9622 813.268 91.8867C813.268 90.7611 812.707 90.1982 811.586 90.1982C811.053 90.1982 810.643 90.3418 810.355 90.6289C810.068 90.916 809.925 91.3421 809.925 91.9072ZM820.237 97.1367C819.13 97.1367 818.255 96.7995 817.612 96.125C816.974 95.4505 816.655 94.514 816.655 93.3154C816.655 92.1077 816.951 91.1484 817.544 90.4375C818.141 89.7266 818.941 89.3711 819.943 89.3711C820.882 89.3711 821.625 89.681 822.172 90.3008C822.719 90.916 822.992 91.7295 822.992 92.7412V93.459H817.831C817.854 94.3385 818.075 95.0062 818.494 95.4619C818.918 95.9176 819.513 96.1455 820.278 96.1455C821.085 96.1455 821.882 95.9769 822.671 95.6396V96.6514C822.27 96.8245 821.889 96.9476 821.529 97.0205C821.174 97.098 820.743 97.1367 820.237 97.1367ZM819.93 90.3213C819.328 90.3213 818.847 90.5173 818.487 90.9092C818.132 91.3011 817.922 91.8434 817.858 92.5361H821.775C821.775 91.8206 821.616 91.2738 821.297 90.8955C820.978 90.5127 820.522 90.3213 819.93 90.3213ZM825.02 96.2754C825.02 95.9701 825.088 95.7399 825.225 95.585C825.366 95.4255 825.566 95.3457 825.826 95.3457C826.09 95.3457 826.296 95.4255 826.441 95.585C826.592 95.7399 826.667 95.9701 826.667 96.2754C826.667 96.5716 826.592 96.7995 826.441 96.959C826.291 97.1185 826.086 97.1982 825.826 97.1982C825.594 97.1982 825.4 97.1276 825.245 96.9863C825.095 96.8405 825.02 96.6035 825.02 96.2754Z" fill="white"/>
<rect x="597.5" y="68.5" width="246" height="47" rx="3.5" stroke="#6A6E79"/>
</g>
</g>
<defs>
<clipPath id="clip0_296_60499">
<rect width="960" height="184" fill="white"/>
</clipPath>
<clipPath id="clip1_296_60499">
<rect width="960" height="184" fill="white"/>
</clipPath>
</defs>
</svg>
