<svg width="960" height="171" viewBox="0 0 960 171" fill="none" xmlns="http://www.w3.org/2000/svg"><g clip-path="url(#clip0_295_60020)"><rect width="479" height="171" fill="#F1F1F6"/><g clip-path="url(#clip1_295_60020)"><path d="M246.5 80.8093L245.191 79.5L240 84.6907L234.809 79.5L233.5 80.8093L238.691 86L233.5 91.1907L234.809 92.5L240 87.3093L245.191 92.5L246.5 91.1907L241.309 86L246.5 80.8093Z" fill="#252A2E"/></g><rect x="227.5" y="73.5" width="23" height="23" stroke="#E8178A"/><path d="M262.5 71.545V99.545" stroke="#E8178A"/><rect x="267" y="78.045" width="37" height="18" rx="3" fill="#E8178A"/><path d="M273.589 91.045V89.937L276.178 87.54C276.398 87.3269 276.583 87.1352 276.732 86.9647C276.884 86.7942 276.999 86.6273 277.077 86.464C277.155 86.2983 277.194 86.1195 277.194 85.9278C277.194 85.7147 277.145 85.5312 277.048 85.3773C276.951 85.2211 276.819 85.1015 276.651 85.0187C276.482 84.9334 276.292 84.8908 276.079 84.8908C275.856 84.8908 275.662 84.9358 275.496 85.0258C275.331 85.1157 275.203 85.2448 275.113 85.4128C275.023 85.5809 274.978 85.781 274.978 86.013H273.518C273.518 85.5371 273.626 85.124 273.842 84.7736C274.057 84.4233 274.359 84.1522 274.747 83.9604C275.135 83.7687 275.583 83.6728 276.089 83.6728C276.61 83.6728 277.064 83.7651 277.45 83.9498C277.838 84.1321 278.14 84.3854 278.355 84.7097C278.571 85.0341 278.678 85.4057 278.678 85.8248C278.678 86.0994 278.624 86.3705 278.515 86.638C278.408 86.9055 278.218 87.2026 277.943 87.5293C277.669 87.8537 277.281 88.2431 276.782 88.6977L275.72 89.7381V89.7879H278.774V91.045H273.589ZM279.622 89.7665V88.5556L282.658 83.7722H283.702V85.4484H283.084L281.17 88.4775V88.5343H285.485V89.7665H279.622ZM283.113 91.045V89.3972L283.141 88.861V83.7722H284.583V91.045H283.113ZM286.524 93.0904V85.5904H288.015V86.5066H288.083C288.149 86.3598 288.245 86.2107 288.37 86.0592C288.498 85.9053 288.664 85.7774 288.867 85.6756C289.073 85.5715 289.329 85.5194 289.634 85.5194C290.032 85.5194 290.399 85.6236 290.735 85.8319C291.071 86.0379 291.34 86.3492 291.541 86.7658C291.743 87.1801 291.843 87.6998 291.843 88.3248C291.843 88.9332 291.745 89.4469 291.548 89.866C291.354 90.2826 291.089 90.5987 290.753 90.8141C290.419 91.0272 290.045 91.1337 289.631 91.1337C289.337 91.1337 289.088 91.0852 288.882 90.9881C288.678 90.8911 288.511 90.7691 288.381 90.6224C288.251 90.4732 288.151 90.3229 288.083 90.1714H288.036V93.0904H286.524ZM288.004 88.3177C288.004 88.642 288.049 88.9249 288.139 89.1664C288.229 89.4079 288.36 89.5961 288.53 89.731C288.7 89.8636 288.908 89.9299 289.151 89.9299C289.398 89.9299 289.606 89.8624 289.776 89.7275C289.947 89.5902 290.076 89.4008 290.164 89.1593C290.253 88.9155 290.298 88.6349 290.298 88.3177C290.298 88.0028 290.255 87.7258 290.167 87.4867C290.079 87.2476 289.95 87.0606 289.78 86.9256C289.61 86.7907 289.4 86.7232 289.151 86.7232C288.905 86.7232 288.697 86.7883 288.526 86.9185C288.358 87.0487 288.229 87.2334 288.139 87.4725C288.049 87.7116 288.004 87.9933 288.004 88.3177ZM293.921 85.5904L294.922 87.4974L295.948 85.5904H297.5L295.92 88.3177L297.543 91.045H295.998L294.922 89.1593L293.864 91.045H292.301L293.921 88.3177L292.358 85.5904H293.921Z" fill="#fff"/><line x1="259" y1="72.045" x2="266" y2="72.045" stroke="#E8178A"/><line x1="259" y1="99.045" x2="266" y2="99.045" stroke="#E8178A"/><path d="M228 111.118H252" stroke="#E8178A"/><rect x="221.5" y="115.618" width="37" height="18" rx="3" fill="#E8178A"/><path d="M228.089 128.618V127.51L230.678 125.113C230.898 124.9 231.083 124.708 231.232 124.538C231.384 124.367 231.499 124.2 231.577 124.037C231.655 123.871 231.694 123.693 231.694 123.501C231.694 123.288 231.645 123.104 231.548 122.95C231.451 122.794 231.319 122.675 231.151 122.592C230.982 122.506 230.792 122.464 230.579 122.464C230.356 122.464 230.162 122.509 229.996 122.599C229.831 122.689 229.703 122.818 229.613 122.986C229.523 123.154 229.478 123.354 229.478 123.586H228.018C228.018 123.11 228.126 122.697 228.342 122.347C228.557 121.996 228.859 121.725 229.247 121.533C229.635 121.342 230.083 121.246 230.589 121.246C231.11 121.246 231.564 121.338 231.95 121.523C232.338 121.705 232.64 121.958 232.855 122.283C233.071 122.607 233.178 122.979 233.178 123.398C233.178 123.672 233.124 123.944 233.015 124.211C232.908 124.479 232.718 124.776 232.443 125.102C232.169 125.427 231.781 125.816 231.282 126.271L230.22 127.311V127.361H233.274V128.618H228.089ZM234.122 127.34V126.129L237.158 121.345H238.202V123.021H237.584L235.67 126.051V126.107H239.985V127.34H234.122ZM237.613 128.618V126.97L237.641 126.434V121.345H239.083V128.618H237.613ZM241.024 130.663V123.163H242.515V124.08H242.583C242.649 123.933 242.745 123.784 242.87 123.632C242.998 123.478 243.164 123.35 243.367 123.249C243.573 123.144 243.829 123.092 244.134 123.092C244.532 123.092 244.899 123.197 245.235 123.405C245.571 123.611 245.84 123.922 246.041 124.339C246.243 124.753 246.343 125.273 246.343 125.898C246.343 126.506 246.245 127.02 246.048 127.439C245.854 127.856 245.589 128.172 245.253 128.387C244.919 128.6 244.545 128.707 244.131 128.707C243.837 128.707 243.588 128.658 243.382 128.561C243.178 128.464 243.011 128.342 242.881 128.195C242.751 128.046 242.651 127.896 242.583 127.744H242.536V130.663H241.024ZM242.504 125.891C242.504 126.215 242.549 126.498 242.639 126.739C242.729 126.981 242.86 127.169 243.03 127.304C243.2 127.437 243.408 127.503 243.651 127.503C243.898 127.503 244.106 127.435 244.276 127.301C244.447 127.163 244.576 126.974 244.664 126.732C244.753 126.488 244.798 126.208 244.798 125.891C244.798 125.576 244.755 125.299 244.667 125.06C244.579 124.821 244.45 124.634 244.28 124.499C244.11 124.364 243.9 124.296 243.651 124.296C243.405 124.296 243.197 124.361 243.026 124.492C242.858 124.622 242.729 124.806 242.639 125.046C242.549 125.285 242.504 125.566 242.504 125.891ZM248.421 123.163L249.422 125.07L250.448 123.163H252L250.42 125.891L252.043 128.618H250.498L249.422 126.732L248.364 128.618H246.801L248.421 125.891L246.858 123.163H248.421Z" fill="#fff"/><line x1="228.5" y1="114.618" x2="228.5" y2="107.618" stroke="#E8178A"/><line x1="251.5" y1="114.618" x2="251.5" y2="107.618" stroke="#E8178A"/><rect width="479" height="171" transform="translate(481)" fill="#F1F1F6"/><path d="M635.937 74.5H634.768V65.5312H631.623V64.5059H639.067V65.5312H635.937V74.5ZM641.792 63.8633V67.042C641.792 67.2243 641.787 67.4089 641.778 67.5957C641.769 67.778 641.753 67.9466 641.73 68.1016H641.806C641.961 67.8372 642.157 67.6162 642.394 67.4385C642.635 67.2562 642.909 67.1195 643.214 67.0283C643.519 66.9326 643.843 66.8848 644.185 66.8848C644.786 66.8848 645.287 66.9805 645.688 67.1719C646.094 67.3633 646.397 67.6595 646.598 68.0605C646.803 68.4616 646.905 68.9811 646.905 69.6191V74.5H645.784V69.6943C645.784 69.07 645.641 68.6029 645.354 68.293C645.071 67.9831 644.636 67.8281 644.048 67.8281C643.492 67.8281 643.048 67.9352 642.715 68.1494C642.387 68.359 642.15 68.6689 642.004 69.0791C641.863 69.4893 641.792 69.9906 641.792 70.583V74.5H640.657V63.8633H641.792ZM650.628 67.0078V74.5H649.493V67.0078H650.628ZM650.074 64.2051C650.261 64.2051 650.421 64.2666 650.553 64.3896C650.689 64.5081 650.758 64.695 650.758 64.9502C650.758 65.2008 650.689 65.3877 650.553 65.5107C650.421 65.6338 650.261 65.6953 650.074 65.6953C649.878 65.6953 649.714 65.6338 649.582 65.5107C649.454 65.3877 649.391 65.2008 649.391 64.9502C649.391 64.695 649.454 64.5081 649.582 64.3896C649.714 64.2666 649.878 64.2051 650.074 64.2051ZM658.131 72.4492C658.131 72.9277 658.01 73.3311 657.769 73.6592C657.532 73.9827 657.19 74.2266 656.743 74.3906C656.301 74.5547 655.772 74.6367 655.157 74.6367C654.633 74.6367 654.18 74.5957 653.797 74.5137C653.414 74.4316 653.079 74.3154 652.792 74.165V73.1191C653.097 73.2695 653.462 73.4062 653.886 73.5293C654.31 73.6523 654.743 73.7139 655.185 73.7139C655.832 73.7139 656.301 73.609 656.593 73.3994C656.884 73.1898 657.03 72.9049 657.03 72.5449C657.03 72.3398 656.971 72.1598 656.853 72.0049C656.739 71.8454 656.545 71.6927 656.271 71.5469C655.998 71.3965 655.62 71.2324 655.137 71.0547C654.658 70.8724 654.243 70.6924 653.893 70.5146C653.546 70.3324 653.277 70.1113 653.086 69.8516C652.899 69.5918 652.806 69.2546 652.806 68.8398C652.806 68.2064 653.061 67.721 653.571 67.3838C654.086 67.042 654.761 66.8711 655.595 66.8711C656.046 66.8711 656.467 66.9167 656.859 67.0078C657.256 67.0944 657.625 67.2129 657.967 67.3633L657.584 68.2725C657.274 68.1403 656.944 68.0286 656.593 67.9375C656.242 67.8464 655.884 67.8008 655.52 67.8008C654.995 67.8008 654.592 67.8874 654.31 68.0605C654.032 68.2337 653.893 68.4707 653.893 68.7715C653.893 69.0039 653.956 69.1953 654.084 69.3457C654.216 69.4961 654.426 69.6374 654.713 69.7695C655 69.9017 655.378 70.0566 655.848 70.2344C656.317 70.4076 656.723 70.5876 657.064 70.7744C657.406 70.9567 657.668 71.18 657.851 71.4443C658.037 71.7041 658.131 72.0391 658.131 72.4492ZM665.228 67.0078V74.5H664.093V67.0078H665.228ZM664.674 64.2051C664.861 64.2051 665.02 64.2666 665.152 64.3896C665.289 64.5081 665.357 64.695 665.357 64.9502C665.357 65.2008 665.289 65.3877 665.152 65.5107C665.02 65.6338 664.861 65.6953 664.674 65.6953C664.478 65.6953 664.314 65.6338 664.182 65.5107C664.054 65.3877 663.99 65.2008 663.99 64.9502C663.99 64.695 664.054 64.5081 664.182 64.3896C664.314 64.2666 664.478 64.2051 664.674 64.2051ZM672.73 72.4492C672.73 72.9277 672.61 73.3311 672.368 73.6592C672.131 73.9827 671.789 74.2266 671.343 74.3906C670.901 74.5547 670.372 74.6367 669.757 74.6367C669.233 74.6367 668.779 74.5957 668.396 74.5137C668.014 74.4316 667.679 74.3154 667.392 74.165V73.1191C667.697 73.2695 668.062 73.4062 668.485 73.5293C668.909 73.6523 669.342 73.7139 669.784 73.7139C670.431 73.7139 670.901 73.609 671.192 73.3994C671.484 73.1898 671.63 72.9049 671.63 72.5449C671.63 72.3398 671.571 72.1598 671.452 72.0049C671.338 71.8454 671.145 71.6927 670.871 71.5469C670.598 71.3965 670.219 71.2324 669.736 71.0547C669.258 70.8724 668.843 70.6924 668.492 70.5146C668.146 70.3324 667.877 70.1113 667.686 69.8516C667.499 69.5918 667.405 69.2546 667.405 68.8398C667.405 68.2064 667.66 67.721 668.171 67.3838C668.686 67.042 669.36 66.8711 670.194 66.8711C670.646 66.8711 671.067 66.9167 671.459 67.0078C671.855 67.0944 672.225 67.2129 672.566 67.3633L672.184 68.2725C671.874 68.1403 671.543 68.0286 671.192 67.9375C670.841 67.8464 670.484 67.8008 670.119 67.8008C669.595 67.8008 669.192 67.8874 668.909 68.0605C668.631 68.2337 668.492 68.4707 668.492 68.7715C668.492 69.0039 668.556 69.1953 668.684 69.3457C668.816 69.4961 669.025 69.6374 669.312 69.7695C669.6 69.9017 669.978 70.0566 670.447 70.2344C670.917 70.4076 671.322 70.5876 671.664 70.7744C672.006 70.9567 672.268 71.18 672.45 71.4443C672.637 71.7041 672.73 72.0391 672.73 72.4492ZM681.495 66.8848C682.388 66.8848 683.051 67.0853 683.484 67.4863C683.917 67.8874 684.134 68.5277 684.134 69.4072V74.5H683.307L683.088 73.3926H683.033C682.824 73.666 682.605 73.8962 682.377 74.083C682.149 74.2653 681.885 74.4043 681.584 74.5C681.288 74.5911 680.923 74.6367 680.49 74.6367C680.035 74.6367 679.629 74.557 679.273 74.3975C678.923 74.238 678.645 73.9964 678.439 73.6729C678.239 73.3493 678.139 72.9391 678.139 72.4424C678.139 71.695 678.435 71.1208 679.027 70.7197C679.62 70.3187 680.522 70.0999 681.734 70.0635L683.026 70.0088V69.5508C683.026 68.9036 682.887 68.4502 682.609 68.1904C682.331 67.9307 681.939 67.8008 681.434 67.8008C681.042 67.8008 680.668 67.8577 680.312 67.9717C679.957 68.0856 679.62 68.2201 679.301 68.375L678.952 67.5137C679.289 67.3405 679.677 67.1924 680.114 67.0693C680.552 66.9463 681.012 66.8848 681.495 66.8848ZM683.013 70.8086L681.871 70.8564C680.937 70.8929 680.278 71.0456 679.896 71.3145C679.513 71.5833 679.321 71.9639 679.321 72.4561C679.321 72.8844 679.451 73.2012 679.711 73.4062C679.971 73.6113 680.315 73.7139 680.743 73.7139C681.409 73.7139 681.953 73.5293 682.377 73.1602C682.801 72.791 683.013 72.2373 683.013 71.499V70.8086ZM694.129 66.8711C695.063 66.8711 695.808 67.1924 696.364 67.835C696.92 68.4775 697.198 69.4437 697.198 70.7334C697.198 71.5856 697.071 72.3011 696.815 72.8799C696.56 73.4587 696.2 73.8962 695.735 74.1924C695.275 74.4886 694.73 74.6367 694.102 74.6367C693.705 74.6367 693.356 74.5843 693.056 74.4795C692.755 74.3747 692.497 74.2334 692.283 74.0557C692.069 73.8779 691.891 73.6842 691.75 73.4746H691.668C691.682 73.6523 691.698 73.8665 691.716 74.1172C691.739 74.3678 691.75 74.5866 691.75 74.7734V77.8496H690.608V67.0078H691.545L691.695 68.1152H691.75C691.896 67.8874 692.074 67.68 692.283 67.4932C692.493 67.3018 692.748 67.1514 693.049 67.042C693.354 66.9281 693.714 66.8711 694.129 66.8711ZM693.931 67.8281C693.411 67.8281 692.992 67.9284 692.673 68.1289C692.358 68.3294 692.128 68.6302 691.982 69.0312C691.837 69.4277 691.759 69.9268 691.75 70.5283V70.7471C691.75 71.3805 691.818 71.916 691.955 72.3535C692.096 72.791 692.326 73.1237 692.646 73.3516C692.969 73.5794 693.402 73.6934 693.944 73.6934C694.409 73.6934 694.797 73.568 695.106 73.3174C695.416 73.0667 695.646 72.7181 695.797 72.2715C695.952 71.8203 696.029 71.3031 696.029 70.7197C696.029 69.8356 695.856 69.1338 695.51 68.6143C695.168 68.0902 694.642 67.8281 693.931 67.8281ZM702.835 66.8711C702.985 66.8711 703.143 66.8802 703.307 66.8984C703.471 66.9121 703.617 66.9326 703.744 66.96L703.601 68.0127C703.478 67.9808 703.341 67.9557 703.19 67.9375C703.04 67.9193 702.899 67.9102 702.767 67.9102C702.466 67.9102 702.181 67.9717 701.912 68.0947C701.648 68.2132 701.415 68.3864 701.215 68.6143C701.014 68.8376 700.857 69.1087 700.743 69.4277C700.629 69.7422 700.572 70.0931 700.572 70.4805V74.5H699.431V67.0078H700.374L700.497 68.3887H700.545C700.7 68.1107 700.887 67.8577 701.105 67.6299C701.324 67.3975 701.577 67.2129 701.864 67.0762C702.156 66.9395 702.479 66.8711 702.835 66.8711ZM706.544 67.0078V74.5H705.409V67.0078H706.544ZM705.99 64.2051C706.177 64.2051 706.337 64.2666 706.469 64.3896C706.605 64.5081 706.674 64.695 706.674 64.9502C706.674 65.2008 706.605 65.3877 706.469 65.5107C706.337 65.6338 706.177 65.6953 705.99 65.6953C705.794 65.6953 705.63 65.6338 705.498 65.5107C705.37 65.3877 705.307 65.2008 705.307 64.9502C705.307 64.695 705.37 64.5081 705.498 64.3896C705.63 64.2666 705.794 64.2051 705.99 64.2051ZM717.335 66.8711C718.16 66.8711 718.782 67.0876 719.201 67.5205C719.62 67.9489 719.83 68.6393 719.83 69.5918V74.5H718.709V69.6465C718.709 69.0404 718.577 68.5869 718.312 68.2861C718.053 67.9808 717.665 67.8281 717.15 67.8281C716.426 67.8281 715.899 68.0378 715.571 68.457C715.243 68.8763 715.079 69.4938 715.079 70.3096V74.5H713.951V69.6465C713.951 69.2409 713.892 68.9036 713.773 68.6348C713.66 68.3659 713.486 68.1654 713.254 68.0332C713.026 67.8965 712.737 67.8281 712.386 67.8281C711.889 67.8281 711.49 67.9307 711.189 68.1357C710.889 68.3408 710.67 68.6462 710.533 69.0518C710.401 69.4528 710.335 69.9473 710.335 70.5352V74.5H709.2V67.0078H710.116L710.287 68.0674H710.349C710.499 67.8076 710.688 67.5889 710.916 67.4111C711.144 67.2334 711.399 67.099 711.682 67.0078C711.964 66.9167 712.265 66.8711 712.584 66.8711C713.154 66.8711 713.63 66.9782 714.013 67.1924C714.4 67.402 714.68 67.7233 714.854 68.1562H714.915C715.161 67.7233 715.498 67.402 715.927 67.1924C716.355 66.9782 716.825 66.8711 717.335 66.8711ZM725.214 66.8848C726.107 66.8848 726.77 67.0853 727.203 67.4863C727.636 67.8874 727.853 68.5277 727.853 69.4072V74.5H727.025L726.807 73.3926H726.752C726.542 73.666 726.324 73.8962 726.096 74.083C725.868 74.2653 725.604 74.4043 725.303 74.5C725.007 74.5911 724.642 74.6367 724.209 74.6367C723.753 74.6367 723.348 74.557 722.992 74.3975C722.641 74.238 722.363 73.9964 722.158 73.6729C721.958 73.3493 721.857 72.9391 721.857 72.4424C721.857 71.695 722.154 71.1208 722.746 70.7197C723.339 70.3187 724.241 70.0999 725.453 70.0635L726.745 70.0088V69.5508C726.745 68.9036 726.606 68.4502 726.328 68.1904C726.05 67.9307 725.658 67.8008 725.152 67.8008C724.76 67.8008 724.387 67.8577 724.031 67.9717C723.676 68.0856 723.339 68.2201 723.02 68.375L722.671 67.5137C723.008 67.3405 723.396 67.1924 723.833 67.0693C724.271 66.9463 724.731 66.8848 725.214 66.8848ZM726.731 70.8086L725.59 70.8564C724.656 70.8929 723.997 71.0456 723.614 71.3145C723.231 71.5833 723.04 71.9639 723.04 72.4561C723.04 72.8844 723.17 73.2012 723.43 73.4062C723.689 73.6113 724.034 73.7139 724.462 73.7139C725.127 73.7139 725.672 73.5293 726.096 73.1602C726.52 72.791 726.731 72.2373 726.731 71.499V70.8086ZM733.845 66.8711C733.995 66.8711 734.152 66.8802 734.316 66.8984C734.48 66.9121 734.626 66.9326 734.754 66.96L734.61 68.0127C734.487 67.9808 734.351 67.9557 734.2 67.9375C734.05 67.9193 733.909 67.9102 733.776 67.9102C733.476 67.9102 733.191 67.9717 732.922 68.0947C732.658 68.2132 732.425 68.3864 732.225 68.6143C732.024 68.8376 731.867 69.1087 731.753 69.4277C731.639 69.7422 731.582 70.0931 731.582 70.4805V74.5H730.44V67.0078H731.384L731.507 68.3887H731.555C731.71 68.1107 731.896 67.8577 732.115 67.6299C732.334 67.3975 732.587 67.2129 732.874 67.0762C733.166 66.9395 733.489 66.8711 733.845 66.8711ZM735.236 67.0078H736.453L738.107 71.3555C738.203 71.6107 738.292 71.8568 738.374 72.0938C738.456 72.3262 738.529 72.5495 738.593 72.7637C738.657 72.9779 738.707 73.1852 738.743 73.3857H738.791C738.855 73.1579 738.946 72.8594 739.064 72.4902C739.183 72.1165 739.311 71.736 739.447 71.3486L741.013 67.0078H742.236L738.976 75.6006C738.802 76.0609 738.6 76.4619 738.367 76.8037C738.139 77.1455 737.861 77.4076 737.533 77.5898C737.205 77.7767 736.809 77.8701 736.344 77.8701C736.13 77.8701 735.94 77.8564 735.776 77.8291C735.612 77.8063 735.471 77.779 735.353 77.7471V76.8379C735.453 76.8607 735.574 76.8812 735.715 76.8994C735.861 76.9176 736.011 76.9268 736.166 76.9268C736.449 76.9268 736.692 76.8721 736.897 76.7627C737.107 76.6579 737.287 76.5029 737.438 76.2979C737.588 76.0928 737.718 75.849 737.827 75.5664L738.237 74.5137L735.236 67.0078ZM755.704 66.8711C756.529 66.8711 757.151 67.0876 757.57 67.5205C757.99 67.9489 758.199 68.6393 758.199 69.5918V74.5H757.078V69.6465C757.078 69.0404 756.946 68.5869 756.682 68.2861C756.422 67.9808 756.035 67.8281 755.52 67.8281C754.795 67.8281 754.269 68.0378 753.94 68.457C753.612 68.8763 753.448 69.4938 753.448 70.3096V74.5H752.32V69.6465C752.32 69.2409 752.261 68.9036 752.143 68.6348C752.029 68.3659 751.855 68.1654 751.623 68.0332C751.395 67.8965 751.106 67.8281 750.755 67.8281C750.258 67.8281 749.859 67.9307 749.559 68.1357C749.258 68.3408 749.039 68.6462 748.902 69.0518C748.77 69.4528 748.704 69.9473 748.704 70.5352V74.5H747.569V67.0078H748.485L748.656 68.0674H748.718C748.868 67.8076 749.057 67.5889 749.285 67.4111C749.513 67.2334 749.768 67.099 750.051 67.0078C750.333 66.9167 750.634 66.8711 750.953 66.8711C751.523 66.8711 751.999 66.9782 752.382 67.1924C752.769 67.402 753.049 67.7233 753.223 68.1562H753.284C753.53 67.7233 753.868 67.402 754.296 67.1924C754.724 66.9782 755.194 66.8711 755.704 66.8711ZM763.665 66.8711C764.303 66.8711 764.85 67.0124 765.306 67.2949C765.761 67.5775 766.11 67.974 766.352 68.4844C766.593 68.9902 766.714 69.5827 766.714 70.2617V70.9658H761.539C761.553 71.8454 761.771 72.5153 762.195 72.9756C762.619 73.4359 763.216 73.666 763.986 73.666C764.46 73.666 764.88 73.6227 765.244 73.5361C765.609 73.4495 765.987 73.3219 766.379 73.1533V74.1514C766.001 74.32 765.625 74.443 765.251 74.5205C764.882 74.598 764.444 74.6367 763.938 74.6367C763.218 74.6367 762.59 74.4909 762.052 74.1992C761.519 73.903 761.104 73.4701 760.808 72.9004C760.511 72.3307 760.363 71.6335 760.363 70.8086C760.363 70.002 760.498 69.3047 760.767 68.7168C761.04 68.1243 761.423 67.6686 761.915 67.3496C762.412 67.0306 762.995 66.8711 763.665 66.8711ZM763.651 67.8008C763.045 67.8008 762.562 67.999 762.202 68.3955C761.842 68.792 761.628 69.3457 761.56 70.0566H765.524C765.52 69.61 765.449 69.2181 765.312 68.8809C765.18 68.5391 764.978 68.2747 764.704 68.0879C764.431 67.8965 764.08 67.8008 763.651 67.8008ZM773.738 72.4492C773.738 72.9277 773.618 73.3311 773.376 73.6592C773.139 73.9827 772.797 74.2266 772.351 74.3906C771.909 74.5547 771.38 74.6367 770.765 74.6367C770.241 74.6367 769.787 74.5957 769.404 74.5137C769.021 74.4316 768.687 74.3154 768.399 74.165V73.1191C768.705 73.2695 769.069 73.4062 769.493 73.5293C769.917 73.6523 770.35 73.7139 770.792 73.7139C771.439 73.7139 771.909 73.609 772.2 73.3994C772.492 73.1898 772.638 72.9049 772.638 72.5449C772.638 72.3398 772.578 72.1598 772.46 72.0049C772.346 71.8454 772.152 71.6927 771.879 71.5469C771.605 71.3965 771.227 71.2324 770.744 71.0547C770.266 70.8724 769.851 70.6924 769.5 70.5146C769.154 70.3324 768.885 70.1113 768.693 69.8516C768.507 69.5918 768.413 69.2546 768.413 68.8398C768.413 68.2064 768.668 67.721 769.179 67.3838C769.694 67.042 770.368 66.8711 771.202 66.8711C771.653 66.8711 772.075 66.9167 772.467 67.0078C772.863 67.0944 773.232 67.2129 773.574 67.3633L773.191 68.2725C772.882 68.1403 772.551 68.0286 772.2 67.9375C771.849 67.8464 771.492 67.8008 771.127 67.8008C770.603 67.8008 770.2 67.8874 769.917 68.0605C769.639 68.2337 769.5 68.4707 769.5 68.7715C769.5 69.0039 769.564 69.1953 769.691 69.3457C769.824 69.4961 770.033 69.6374 770.32 69.7695C770.607 69.9017 770.986 70.0566 771.455 70.2344C771.924 70.4076 772.33 70.5876 772.672 70.7744C773.014 70.9567 773.276 71.18 773.458 71.4443C773.645 71.7041 773.738 72.0391 773.738 72.4492ZM780.66 72.4492C780.66 72.9277 780.539 73.3311 780.298 73.6592C780.061 73.9827 779.719 74.2266 779.272 74.3906C778.83 74.5547 778.302 74.6367 777.687 74.6367C777.162 74.6367 776.709 74.5957 776.326 74.5137C775.943 74.4316 775.608 74.3154 775.321 74.165V73.1191C775.627 73.2695 775.991 73.4062 776.415 73.5293C776.839 73.6523 777.272 73.7139 777.714 73.7139C778.361 73.7139 778.83 73.609 779.122 73.3994C779.414 73.1898 779.56 72.9049 779.56 72.5449C779.56 72.3398 779.5 72.1598 779.382 72.0049C779.268 71.8454 779.074 71.6927 778.801 71.5469C778.527 71.3965 778.149 71.2324 777.666 71.0547C777.188 70.8724 776.773 70.6924 776.422 70.5146C776.076 70.3324 775.807 70.1113 775.615 69.8516C775.428 69.5918 775.335 69.2546 775.335 68.8398C775.335 68.2064 775.59 67.721 776.101 67.3838C776.616 67.042 777.29 66.8711 778.124 66.8711C778.575 66.8711 778.997 66.9167 779.389 67.0078C779.785 67.0944 780.154 67.2129 780.496 67.3633L780.113 68.2725C779.803 68.1403 779.473 68.0286 779.122 67.9375C778.771 67.8464 778.413 67.8008 778.049 67.8008C777.525 67.8008 777.121 67.8874 776.839 68.0605C776.561 68.2337 776.422 68.4707 776.422 68.7715C776.422 69.0039 776.486 69.1953 776.613 69.3457C776.745 69.4961 776.955 69.6374 777.242 69.7695C777.529 69.9017 777.908 70.0566 778.377 70.2344C778.846 70.4076 779.252 70.5876 779.594 70.7744C779.936 70.9567 780.198 71.18 780.38 71.4443C780.567 71.7041 780.66 72.0391 780.66 72.4492ZM785.538 66.8848C786.431 66.8848 787.094 67.0853 787.527 67.4863C787.96 67.8874 788.177 68.5277 788.177 69.4072V74.5H787.35L787.131 73.3926H787.076C786.867 73.666 786.648 73.8962 786.42 74.083C786.192 74.2653 785.928 74.4043 785.627 74.5C785.331 74.5911 784.966 74.6367 784.533 74.6367C784.077 74.6367 783.672 74.557 783.316 74.3975C782.965 74.238 782.688 73.9964 782.482 73.6729C782.282 73.3493 782.182 72.9391 782.182 72.4424C782.182 71.695 782.478 71.1208 783.07 70.7197C783.663 70.3187 784.565 70.0999 785.777 70.0635L787.069 70.0088V69.5508C787.069 68.9036 786.93 68.4502 786.652 68.1904C786.374 67.9307 785.982 67.8008 785.477 67.8008C785.085 67.8008 784.711 67.8577 784.355 67.9717C784 68.0856 783.663 68.2201 783.344 68.375L782.995 67.5137C783.332 67.3405 783.72 67.1924 784.157 67.0693C784.595 66.9463 785.055 66.8848 785.538 66.8848ZM787.056 70.8086L785.914 70.8564C784.98 70.8929 784.321 71.0456 783.938 71.3145C783.556 71.5833 783.364 71.9639 783.364 72.4561C783.364 72.8844 783.494 73.2012 783.754 73.4062C784.014 73.6113 784.358 73.7139 784.786 73.7139C785.451 73.7139 785.996 73.5293 786.42 73.1602C786.844 72.791 787.056 72.2373 787.056 71.499V70.8086ZM792.856 77.8633C791.872 77.8633 791.113 77.6787 790.58 77.3096C790.047 76.945 789.78 76.4323 789.78 75.7715C789.78 75.3021 789.928 74.901 790.225 74.5684C790.525 74.2357 790.94 74.0146 791.469 73.9053C791.273 73.8141 791.104 73.6774 790.963 73.4951C790.826 73.3128 790.758 73.1032 790.758 72.8662C790.758 72.5928 790.833 72.3535 790.983 72.1484C791.138 71.9388 791.373 71.7383 791.688 71.5469C791.296 71.3874 790.977 71.1185 790.73 70.7402C790.489 70.3574 790.368 69.9131 790.368 69.4072C790.368 68.8695 790.48 68.4115 790.703 68.0332C790.926 67.6504 791.25 67.3587 791.674 67.1582C792.098 66.9577 792.61 66.8574 793.212 66.8574C793.344 66.8574 793.476 66.8643 793.608 66.8779C793.745 66.887 793.875 66.903 793.998 66.9258C794.121 66.944 794.228 66.9668 794.319 66.9941H796.89V67.7256L795.509 67.8965C795.646 68.0742 795.759 68.2884 795.851 68.5391C795.942 68.7897 795.987 69.0677 795.987 69.373C795.987 70.1204 795.734 70.7152 795.229 71.1572C794.723 71.5947 794.028 71.8135 793.144 71.8135C792.934 71.8135 792.72 71.7952 792.501 71.7588C792.278 71.8818 792.107 72.0186 791.988 72.1689C791.874 72.3193 791.817 72.4925 791.817 72.6885C791.817 72.8343 791.861 72.9505 791.947 73.0371C792.038 73.1237 792.168 73.1875 792.337 73.2285C792.506 73.265 792.708 73.2832 792.945 73.2832H794.265C795.08 73.2832 795.705 73.4541 796.138 73.7959C796.575 74.1377 796.794 74.6367 796.794 75.293C796.794 76.1224 796.457 76.7581 795.782 77.2002C795.108 77.6423 794.132 77.8633 792.856 77.8633ZM792.891 76.9746C793.51 76.9746 794.023 76.9108 794.429 76.7832C794.839 76.6602 795.144 76.4801 795.345 76.2432C795.55 76.0107 795.652 75.7327 795.652 75.4092C795.652 75.1084 795.584 74.8805 795.447 74.7256C795.311 74.5752 795.11 74.4749 794.846 74.4248C794.581 74.3701 794.258 74.3428 793.875 74.3428H792.576C792.239 74.3428 791.945 74.3952 791.694 74.5C791.444 74.6048 791.25 74.7598 791.113 74.9648C790.981 75.1699 790.915 75.4251 790.915 75.7305C790.915 76.1361 791.086 76.4437 791.428 76.6533C791.77 76.8675 792.257 76.9746 792.891 76.9746ZM793.185 70.9863C793.727 70.9863 794.135 70.8496 794.408 70.5762C794.682 70.3027 794.818 69.904 794.818 69.3799C794.818 68.8193 794.679 68.4001 794.401 68.1221C794.123 67.8395 793.713 67.6982 793.171 67.6982C792.651 67.6982 792.25 67.8441 791.968 68.1357C791.69 68.4229 791.551 68.8444 791.551 69.4004C791.551 69.9108 791.692 70.3027 791.975 70.5762C792.257 70.8496 792.66 70.9863 793.185 70.9863ZM801.501 66.8711C802.139 66.8711 802.686 67.0124 803.142 67.2949C803.597 67.5775 803.946 67.974 804.188 68.4844C804.429 68.9902 804.55 69.5827 804.55 70.2617V70.9658H799.375C799.389 71.8454 799.607 72.5153 800.031 72.9756C800.455 73.4359 801.052 73.666 801.822 73.666C802.296 73.666 802.715 73.6227 803.08 73.5361C803.445 73.4495 803.823 73.3219 804.215 73.1533V74.1514C803.837 74.32 803.461 74.443 803.087 74.5205C802.718 74.598 802.28 74.6367 801.774 74.6367C801.054 74.6367 800.425 74.4909 799.888 74.1992C799.354 73.903 798.94 73.4701 798.644 72.9004C798.347 72.3307 798.199 71.6335 798.199 70.8086C798.199 70.002 798.334 69.3047 798.603 68.7168C798.876 68.1243 799.259 67.6686 799.751 67.3496C800.248 67.0306 800.831 66.8711 801.501 66.8711ZM801.487 67.8008C800.881 67.8008 800.398 67.999 800.038 68.3955C799.678 68.792 799.464 69.3457 799.396 70.0566H803.36C803.356 69.61 803.285 69.2181 803.148 68.8809C803.016 68.5391 802.813 68.2747 802.54 68.0879C802.267 67.8965 801.916 67.8008 801.487 67.8008ZM806.557 73.7891C806.557 73.4701 806.634 73.2445 806.789 73.1123C806.944 72.9756 807.133 72.9072 807.356 72.9072C807.589 72.9072 807.785 72.9756 807.944 73.1123C808.104 73.2445 808.184 73.4701 808.184 73.7891C808.184 74.1035 808.104 74.3337 807.944 74.4795C807.785 74.6208 807.589 74.6914 807.356 74.6914C807.133 74.6914 806.944 74.6208 806.789 74.4795C806.634 74.3337 806.557 74.1035 806.557 73.7891Z" fill="#0063A3"/><g filter="url(#filter0_d_295_60020)"><rect x="672" y="93" width="97" height="62.5" rx="7" fill="#fff"/><path d="M695.18 114.699H694.062V114.625C694.07 113.176 694.5 112.734 695.227 112.289C695.691 112 696.055 111.59 696.055 111.008C696.055 110.316 695.516 109.875 694.852 109.875C694.254 109.875 693.664 110.238 693.617 111.066H692.43C692.48 109.66 693.535 108.891 694.852 108.891C696.285 108.891 697.246 109.75 697.246 111.02C697.246 111.898 696.816 112.492 696.117 112.914C695.453 113.324 695.195 113.727 695.18 114.625V114.699Z" fill="#8C8C8C"/><path d="M695.434 116.293C695.434 116.727 695.078 117.074 694.652 117.074C694.223 117.074 693.871 116.727 693.871 116.293C693.871 115.867 694.223 115.516 694.652 115.516C695.078 115.516 695.434 115.867 695.434 116.293Z" fill="#8C8C8C"/><path fill-rule="evenodd" clip-rule="evenodd" d="M684 117L687.111 109H688.196L691.307 117H690.234L689.457 115H685.851L685.073 117H684ZM687.654 110.364L689.068 114H686.24L687.654 110.364Z" fill="#8C8C8C"/><path d="M709.719 113.5C709.719 114.344 709.566 115.073 709.262 115.687C708.957 116.302 708.539 116.776 708.008 117.109C707.477 117.443 706.87 117.609 706.188 117.609C705.505 117.609 704.898 117.443 704.367 117.109C703.836 116.776 703.418 116.302 703.113 115.687C702.809 115.073 702.656 114.344 702.656 113.5C702.656 112.656 702.809 111.927 703.113 111.312C703.418 110.698 703.836 110.224 704.367 109.891C704.898 109.557 705.505 109.391 706.188 109.391C706.87 109.391 707.477 109.557 708.008 109.891C708.539 110.224 708.957 110.698 709.262 111.312C709.566 111.927 709.719 112.656 709.719 113.5ZM708.781 113.5C708.781 112.807 708.665 112.223 708.434 111.746C708.204 111.27 707.893 110.909 707.5 110.664C707.109 110.419 706.672 110.297 706.188 110.297C705.703 110.297 705.264 110.419 704.871 110.664C704.48 110.909 704.169 111.27 703.938 111.746C703.708 112.223 703.594 112.807 703.594 113.5C703.594 114.193 703.708 114.777 703.938 115.254C704.169 115.73 704.48 116.091 704.871 116.336C705.264 116.581 705.703 116.703 706.188 116.703C706.672 116.703 707.109 116.581 707.5 116.336C707.893 116.091 708.204 115.73 708.434 115.254C708.665 114.777 708.781 114.193 708.781 113.5ZM711.223 119.75V111.5H712.113V112.453H712.223C712.29 112.349 712.384 112.216 712.504 112.055C712.626 111.891 712.801 111.745 713.027 111.617C713.257 111.487 713.566 111.422 713.957 111.422C714.462 111.422 714.908 111.548 715.293 111.801C715.678 112.053 715.979 112.411 716.195 112.875C716.411 113.339 716.52 113.885 716.52 114.516C716.52 115.151 716.411 115.702 716.195 116.168C715.979 116.632 715.68 116.991 715.297 117.246C714.914 117.499 714.473 117.625 713.973 117.625C713.587 117.625 713.279 117.561 713.047 117.434C712.815 117.303 712.637 117.156 712.512 116.992C712.387 116.826 712.29 116.687 712.223 116.578H712.145V119.75H711.223ZM712.129 114.5C712.129 114.953 712.195 115.353 712.328 115.699C712.461 116.043 712.655 116.312 712.91 116.508C713.165 116.701 713.478 116.797 713.848 116.797C714.233 116.797 714.555 116.695 714.813 116.492C715.073 116.286 715.268 116.01 715.398 115.664C715.531 115.315 715.598 114.927 715.598 114.5C715.598 114.078 715.533 113.698 715.402 113.359C715.275 113.018 715.081 112.749 714.82 112.551C714.563 112.35 714.238 112.25 713.848 112.25C713.473 112.25 713.158 112.345 712.902 112.535C712.647 112.723 712.454 112.986 712.324 113.324C712.194 113.66 712.129 114.052 712.129 114.5ZM720.441 117.625C719.863 117.625 719.365 117.497 718.945 117.242C718.529 116.984 718.207 116.625 717.98 116.164C717.757 115.701 717.645 115.161 717.645 114.547C717.645 113.932 717.757 113.391 717.98 112.922C718.207 112.451 718.522 112.083 718.926 111.82C719.332 111.555 719.806 111.422 720.348 111.422C720.66 111.422 720.969 111.474 721.273 111.578C721.578 111.682 721.855 111.852 722.105 112.086C722.355 112.318 722.555 112.625 722.703 113.008C722.852 113.391 722.926 113.862 722.926 114.422V114.812H718.301V114.016H721.988C721.988 113.677 721.921 113.375 721.785 113.109C721.652 112.844 721.462 112.634 721.215 112.48C720.97 112.327 720.681 112.25 720.348 112.25C719.98 112.25 719.663 112.341 719.395 112.523C719.129 112.703 718.924 112.937 718.781 113.227C718.638 113.516 718.566 113.826 718.566 114.156V114.688C718.566 115.141 718.645 115.525 718.801 115.84C718.96 116.152 719.18 116.391 719.461 116.555C719.742 116.716 720.069 116.797 720.441 116.797C720.684 116.797 720.902 116.763 721.098 116.695C721.296 116.625 721.466 116.521 721.609 116.383C721.753 116.242 721.863 116.068 721.941 115.859L722.832 116.109C722.738 116.411 722.581 116.677 722.359 116.906C722.138 117.133 721.865 117.31 721.539 117.437C721.214 117.563 720.848 117.625 720.441 117.625ZM725.25 113.891V117.5H724.328V111.5H725.219V112.437H725.297C725.438 112.133 725.651 111.888 725.938 111.703C726.224 111.516 726.594 111.422 727.047 111.422C727.453 111.422 727.809 111.505 728.113 111.672C728.418 111.836 728.655 112.086 728.824 112.422C728.993 112.755 729.078 113.177 729.078 113.688V117.5H728.156V113.75C728.156 113.279 728.034 112.911 727.789 112.648C727.544 112.383 727.208 112.25 726.781 112.25C726.487 112.25 726.224 112.314 725.992 112.441C725.763 112.569 725.582 112.755 725.449 113C725.316 113.245 725.25 113.542 725.25 113.891ZM738.356 111.5C738.31 111.104 738.119 110.797 737.786 110.578C737.453 110.359 737.044 110.25 736.56 110.25C736.205 110.25 735.896 110.307 735.63 110.422C735.367 110.536 735.161 110.694 735.013 110.895C734.867 111.095 734.794 111.323 734.794 111.578C734.794 111.792 734.845 111.975 734.946 112.129C735.05 112.28 735.183 112.406 735.345 112.508C735.506 112.607 735.675 112.689 735.853 112.754C736.03 112.816 736.192 112.867 736.341 112.906L737.153 113.125C737.362 113.18 737.593 113.255 737.849 113.352C738.106 113.448 738.353 113.579 738.587 113.746C738.824 113.91 739.019 114.121 739.173 114.379C739.326 114.637 739.403 114.953 739.403 115.328C739.403 115.76 739.29 116.151 739.063 116.5C738.84 116.849 738.511 117.126 738.079 117.332C737.649 117.538 737.127 117.641 736.513 117.641C735.94 117.641 735.444 117.548 735.024 117.363C734.608 117.178 734.28 116.921 734.04 116.59C733.803 116.259 733.669 115.875 733.638 115.438H734.638C734.664 115.74 734.765 115.99 734.942 116.187C735.122 116.383 735.349 116.529 735.622 116.625C735.898 116.719 736.195 116.766 736.513 116.766C736.882 116.766 737.215 116.706 737.509 116.586C737.803 116.464 738.036 116.294 738.208 116.078C738.38 115.859 738.466 115.604 738.466 115.312C738.466 115.047 738.392 114.831 738.243 114.664C738.095 114.497 737.899 114.362 737.657 114.258C737.415 114.154 737.153 114.062 736.872 113.984L735.888 113.703C735.263 113.523 734.768 113.267 734.403 112.934C734.039 112.6 733.856 112.164 733.856 111.625C733.856 111.177 733.978 110.786 734.22 110.453C734.465 110.117 734.793 109.857 735.204 109.672C735.618 109.484 736.08 109.391 736.591 109.391C737.106 109.391 737.565 109.483 737.966 109.668C738.367 109.85 738.685 110.1 738.919 110.418C739.156 110.736 739.281 111.096 739.294 111.5H738.356ZM742.637 117.641C742.257 117.641 741.911 117.569 741.602 117.426C741.292 117.28 741.046 117.07 740.863 116.797C740.681 116.521 740.59 116.187 740.59 115.797C740.59 115.453 740.658 115.174 740.793 114.961C740.928 114.745 741.109 114.576 741.336 114.453C741.562 114.331 741.813 114.24 742.086 114.18C742.362 114.117 742.639 114.068 742.918 114.031C743.283 113.984 743.578 113.949 743.805 113.926C744.034 113.9 744.201 113.857 744.305 113.797C744.411 113.737 744.465 113.633 744.465 113.484V113.453C744.465 113.068 744.359 112.768 744.148 112.555C743.94 112.341 743.624 112.234 743.199 112.234C742.759 112.234 742.414 112.331 742.164 112.523C741.914 112.716 741.738 112.922 741.637 113.141L740.762 112.828C740.918 112.464 741.126 112.18 741.387 111.977C741.65 111.771 741.936 111.628 742.246 111.547C742.559 111.464 742.866 111.422 743.168 111.422C743.361 111.422 743.582 111.445 743.832 111.492C744.085 111.536 744.328 111.629 744.563 111.77C744.799 111.91 744.996 112.122 745.152 112.406C745.309 112.69 745.387 113.07 745.387 113.547V117.5H744.465V116.687H744.418C744.355 116.818 744.251 116.957 744.105 117.105C743.96 117.254 743.766 117.38 743.523 117.484C743.281 117.589 742.986 117.641 742.637 117.641ZM742.777 116.812C743.142 116.812 743.449 116.741 743.699 116.598C743.952 116.454 744.142 116.27 744.27 116.043C744.4 115.816 744.465 115.578 744.465 115.328V114.484C744.426 114.531 744.34 114.574 744.207 114.613C744.077 114.65 743.926 114.682 743.754 114.711C743.585 114.737 743.419 114.76 743.258 114.781C743.099 114.799 742.97 114.815 742.871 114.828C742.632 114.859 742.408 114.91 742.199 114.98C741.993 115.048 741.827 115.151 741.699 115.289C741.574 115.424 741.512 115.609 741.512 115.844C741.512 116.164 741.63 116.406 741.867 116.57C742.107 116.732 742.41 116.812 742.777 116.812ZM747.991 113.891V117.5H747.069V111.5H747.96V112.437H748.038C748.179 112.133 748.392 111.888 748.679 111.703C748.965 111.516 749.335 111.422 749.788 111.422C750.194 111.422 750.55 111.505 750.854 111.672C751.159 111.836 751.396 112.086 751.565 112.422C751.735 112.755 751.819 113.177 751.819 113.688V117.5H750.897V113.75C750.897 113.279 750.775 112.911 750.53 112.648C750.285 112.383 749.95 112.25 749.522 112.25C749.228 112.25 748.965 112.314 748.733 112.441C748.504 112.569 748.323 112.755 748.19 113C748.058 113.245 747.991 113.542 747.991 113.891ZM757.754 112.844L756.926 113.078C756.874 112.94 756.797 112.806 756.695 112.676C756.596 112.543 756.461 112.434 756.289 112.348C756.117 112.262 755.897 112.219 755.629 112.219C755.262 112.219 754.956 112.303 754.711 112.473C754.469 112.639 754.348 112.852 754.348 113.109C754.348 113.339 754.431 113.52 754.598 113.652C754.764 113.785 755.025 113.896 755.379 113.984L756.27 114.203C756.806 114.333 757.206 114.533 757.469 114.801C757.732 115.066 757.863 115.409 757.863 115.828C757.863 116.172 757.764 116.479 757.566 116.75C757.371 117.021 757.098 117.234 756.746 117.391C756.395 117.547 755.986 117.625 755.52 117.625C754.908 117.625 754.401 117.492 754 117.227C753.599 116.961 753.345 116.573 753.238 116.062L754.113 115.844C754.197 116.167 754.354 116.409 754.586 116.57C754.82 116.732 755.126 116.812 755.504 116.812C755.934 116.812 756.275 116.721 756.527 116.539C756.783 116.354 756.91 116.133 756.91 115.875C756.91 115.667 756.837 115.492 756.691 115.352C756.546 115.208 756.322 115.102 756.02 115.031L755.02 114.797C754.47 114.667 754.066 114.465 753.809 114.191C753.553 113.915 753.426 113.57 753.426 113.156C753.426 112.818 753.521 112.518 753.711 112.258C753.904 111.997 754.165 111.793 754.496 111.645C754.829 111.496 755.207 111.422 755.629 111.422C756.223 111.422 756.689 111.552 757.027 111.812C757.368 112.073 757.611 112.417 757.754 112.844Z" fill="#000"/><path d="M702.881 129.5V122.227H705.338C705.906 122.227 706.373 122.324 706.737 122.518C707.102 122.71 707.372 122.974 707.547 123.31C707.722 123.647 707.81 124.029 707.81 124.457C707.81 124.886 707.722 125.266 707.547 125.597C707.372 125.929 707.103 126.189 706.741 126.379C706.379 126.566 705.916 126.659 705.352 126.659H703.364V125.864H705.324C705.712 125.864 706.025 125.807 706.261 125.693C706.5 125.58 706.673 125.419 706.78 125.21C706.889 125 706.943 124.749 706.943 124.457C706.943 124.166 706.889 123.912 706.78 123.694C706.671 123.476 706.497 123.308 706.258 123.19C706.019 123.069 705.703 123.009 705.31 123.009H703.761V129.5H702.881ZM706.304 126.233L708.094 129.5H707.071L705.31 126.233H706.304ZM711.392 129.614C710.866 129.614 710.413 129.498 710.032 129.266C709.653 129.031 709.361 128.705 709.155 128.286C708.951 127.864 708.849 127.374 708.849 126.815C708.849 126.257 708.951 125.764 709.155 125.338C709.361 124.91 709.647 124.576 710.014 124.337C710.383 124.095 710.814 123.974 711.307 123.974C711.591 123.974 711.871 124.022 712.148 124.116C712.425 124.211 712.677 124.365 712.905 124.578C713.132 124.789 713.313 125.068 713.448 125.416C713.583 125.764 713.65 126.193 713.65 126.702V127.057H709.446V126.332H712.798C712.798 126.025 712.737 125.75 712.613 125.509C712.493 125.267 712.32 125.076 712.095 124.937C711.872 124.797 711.61 124.727 711.307 124.727C710.973 124.727 710.684 124.81 710.44 124.976C710.199 125.139 710.013 125.352 709.883 125.615C709.752 125.878 709.687 126.16 709.687 126.46V126.943C709.687 127.355 709.758 127.704 709.9 127.991C710.045 128.275 710.245 128.491 710.501 128.641C710.756 128.787 711.053 128.861 711.392 128.861C711.612 128.861 711.811 128.83 711.988 128.768C712.168 128.705 712.323 128.61 712.454 128.484C712.584 128.357 712.684 128.198 712.756 128.009L713.565 128.236C713.48 128.51 713.337 128.752 713.135 128.96C712.934 129.166 712.686 129.327 712.39 129.443C712.094 129.557 711.761 129.614 711.392 129.614ZM717.127 131.659C716.722 131.659 716.374 131.607 716.083 131.503C715.792 131.401 715.549 131.266 715.355 131.098C715.163 130.932 715.01 130.755 714.897 130.565L715.564 130.097C715.64 130.196 715.736 130.31 715.852 130.438C715.968 130.568 716.127 130.68 716.328 130.775C716.532 130.872 716.798 130.92 717.127 130.92C717.567 130.92 717.931 130.814 718.217 130.601C718.504 130.388 718.647 130.054 718.647 129.599V128.491H718.576C718.514 128.591 718.427 128.714 718.313 128.861C718.202 129.005 718.041 129.134 717.83 129.248C717.622 129.359 717.34 129.415 716.985 129.415C716.545 129.415 716.149 129.311 715.799 129.102C715.451 128.894 715.175 128.591 714.971 128.193C714.77 127.795 714.67 127.312 714.67 126.744C714.67 126.186 714.768 125.699 714.964 125.285C715.161 124.868 715.434 124.546 715.785 124.319C716.135 124.089 716.54 123.974 716.999 123.974C717.354 123.974 717.636 124.034 717.844 124.152C718.055 124.268 718.216 124.401 718.327 124.55C718.441 124.696 718.528 124.817 718.59 124.912H718.675V124.045H719.485V129.656C719.485 130.125 719.378 130.506 719.165 130.8C718.955 131.096 718.671 131.312 718.313 131.45C717.958 131.589 717.563 131.659 717.127 131.659ZM717.099 128.662C717.435 128.662 717.719 128.585 717.951 128.431C718.183 128.277 718.359 128.056 718.48 127.767C718.601 127.478 718.661 127.133 718.661 126.73C718.661 126.337 718.602 125.99 718.483 125.69C718.365 125.389 718.19 125.153 717.958 124.983C717.726 124.812 717.439 124.727 717.099 124.727C716.743 124.727 716.448 124.817 716.211 124.997C715.976 125.177 715.8 125.419 715.682 125.722C715.566 126.025 715.508 126.361 715.508 126.73C715.508 127.109 715.567 127.444 715.685 127.735C715.806 128.024 715.983 128.251 716.218 128.417C716.455 128.58 716.748 128.662 717.099 128.662ZM724.456 127.27V124.045H725.295V129.5H724.456V128.577H724.4C724.272 128.854 724.073 129.089 723.803 129.283C723.533 129.475 723.192 129.571 722.78 129.571C722.439 129.571 722.136 129.496 721.871 129.347C721.606 129.196 721.398 128.969 721.246 128.665C721.095 128.36 721.019 127.975 721.019 127.511V124.045H721.857V127.455C721.857 127.852 721.968 128.17 722.191 128.406C722.416 128.643 722.702 128.761 723.05 128.761C723.259 128.761 723.47 128.708 723.686 128.602C723.904 128.495 724.086 128.332 724.233 128.112C724.382 127.891 724.456 127.611 724.456 127.27ZM727.668 122.227V129.5H726.83V122.227H727.668ZM730.808 129.628C730.462 129.628 730.148 129.563 729.867 129.433C729.585 129.3 729.361 129.109 729.195 128.861C729.03 128.61 728.947 128.307 728.947 127.952C728.947 127.639 729.008 127.386 729.132 127.192C729.255 126.995 729.419 126.841 729.625 126.73C729.831 126.619 730.058 126.536 730.307 126.482C730.558 126.425 730.81 126.38 731.063 126.347C731.395 126.304 731.664 126.272 731.869 126.251C732.078 126.227 732.229 126.188 732.324 126.134C732.421 126.079 732.47 125.984 732.47 125.849V125.821C732.47 125.471 732.374 125.198 732.182 125.004C731.993 124.81 731.705 124.713 731.319 124.713C730.919 124.713 730.605 124.801 730.378 124.976C730.151 125.151 729.991 125.338 729.899 125.537L729.103 125.253C729.245 124.921 729.435 124.663 729.671 124.479C729.91 124.292 730.171 124.161 730.453 124.088C730.737 124.012 731.016 123.974 731.291 123.974C731.466 123.974 731.667 123.996 731.894 124.038C732.124 124.079 732.345 124.163 732.558 124.29C732.774 124.418 732.953 124.611 733.095 124.869C733.237 125.127 733.308 125.473 733.308 125.906V129.5H732.47V128.761H732.427C732.37 128.88 732.276 129.006 732.143 129.141C732.01 129.276 731.834 129.391 731.614 129.486C731.394 129.58 731.125 129.628 730.808 129.628ZM730.936 128.875C731.267 128.875 731.546 128.81 731.774 128.68C732.003 128.549 732.176 128.381 732.292 128.175C732.41 127.969 732.47 127.753 732.47 127.526V126.759C732.434 126.801 732.356 126.84 732.235 126.876C732.117 126.909 731.98 126.938 731.823 126.964C731.669 126.988 731.519 127.009 731.372 127.028C731.228 127.045 731.111 127.059 731.021 127.071C730.803 127.099 730.599 127.146 730.41 127.21C730.223 127.271 730.071 127.365 729.955 127.49C729.842 127.613 729.785 127.781 729.785 127.994C729.785 128.286 729.893 128.506 730.108 128.655C730.326 128.802 730.602 128.875 730.936 128.875ZM734.837 129.5V124.045H735.647V124.869H735.704C735.803 124.599 735.983 124.38 736.244 124.212C736.504 124.044 736.798 123.96 737.124 123.96C737.186 123.96 737.263 123.961 737.355 123.964C737.447 123.966 737.517 123.97 737.565 123.974V124.827C737.536 124.82 737.471 124.809 737.369 124.795C737.27 124.778 737.165 124.77 737.053 124.77C736.788 124.77 736.551 124.826 736.343 124.937C736.137 125.046 735.974 125.197 735.853 125.391C735.735 125.583 735.675 125.802 735.675 126.048V129.5H734.837ZM706.858 136.045C706.815 135.686 706.643 135.406 706.339 135.207C706.036 135.009 705.665 134.909 705.224 134.909C704.902 134.909 704.621 134.961 704.379 135.065C704.14 135.17 703.953 135.313 703.818 135.495C703.686 135.677 703.619 135.884 703.619 136.116C703.619 136.311 703.665 136.478 703.758 136.617C703.853 136.754 703.973 136.869 704.12 136.962C704.267 137.052 704.421 137.126 704.582 137.185C704.743 137.242 704.891 137.288 705.026 137.324L705.764 137.523C705.954 137.572 706.164 137.641 706.396 137.729C706.631 137.816 706.854 137.936 707.067 138.087C707.283 138.237 707.46 138.428 707.6 138.663C707.74 138.897 707.81 139.185 707.81 139.526C707.81 139.919 707.707 140.274 707.501 140.591C707.297 140.908 706.999 141.16 706.606 141.347C706.215 141.534 705.741 141.628 705.182 141.628C704.661 141.628 704.21 141.544 703.829 141.376C703.45 141.208 703.152 140.973 702.934 140.673C702.719 140.372 702.597 140.023 702.568 139.625H703.477C703.501 139.9 703.593 140.127 703.754 140.307C703.918 140.484 704.124 140.617 704.372 140.705C704.623 140.79 704.893 140.832 705.182 140.832C705.518 140.832 705.82 140.778 706.087 140.669C706.355 140.558 706.567 140.404 706.723 140.207C706.879 140.009 706.957 139.777 706.957 139.511C706.957 139.27 706.89 139.073 706.755 138.922C706.62 138.77 706.442 138.647 706.222 138.553C706.002 138.458 705.764 138.375 705.509 138.304L704.614 138.048C704.045 137.885 703.596 137.652 703.264 137.349C702.933 137.046 702.767 136.649 702.767 136.159C702.767 135.752 702.877 135.397 703.097 135.094C703.32 134.788 703.618 134.552 703.992 134.384C704.369 134.213 704.789 134.128 705.253 134.128C705.722 134.128 706.138 134.212 706.503 134.38C706.867 134.546 707.156 134.773 707.369 135.062C707.585 135.351 707.698 135.679 707.71 136.045H706.858ZM709.144 141.5V136.045H709.982V141.5H709.144ZM709.57 135.136C709.407 135.136 709.266 135.081 709.148 134.969C709.032 134.858 708.974 134.724 708.974 134.568C708.974 134.412 709.032 134.278 709.148 134.167C709.266 134.056 709.407 134 709.57 134C709.733 134 709.873 134.056 709.989 134.167C710.108 134.278 710.167 134.412 710.167 134.568C710.167 134.724 710.108 134.858 709.989 134.969C709.873 135.081 709.733 135.136 709.57 135.136ZM711.361 141.5V140.861L714.457 136.884V136.827H711.46V136.045H715.537V136.713L712.526 140.662V140.719H715.636V141.5H711.361ZM719.058 141.614C718.532 141.614 718.079 141.498 717.698 141.266C717.319 141.031 717.027 140.705 716.821 140.286C716.617 139.864 716.515 139.374 716.515 138.815C716.515 138.257 716.617 137.764 716.821 137.338C717.027 136.91 717.313 136.576 717.68 136.337C718.049 136.095 718.48 135.974 718.973 135.974C719.257 135.974 719.537 136.022 719.814 136.116C720.091 136.211 720.343 136.365 720.571 136.578C720.798 136.789 720.979 137.068 721.114 137.416C721.249 137.764 721.316 138.193 721.316 138.702V139.057H717.112V138.332H720.464C720.464 138.025 720.403 137.75 720.279 137.509C720.159 137.267 719.986 137.076 719.761 136.937C719.538 136.797 719.276 136.727 718.973 136.727C718.639 136.727 718.35 136.81 718.106 136.976C717.865 137.139 717.679 137.352 717.549 137.615C717.418 137.878 717.353 138.16 717.353 138.46V138.943C717.353 139.355 717.424 139.704 717.566 139.991C717.711 140.275 717.911 140.491 718.167 140.641C718.422 140.787 718.719 140.861 719.058 140.861C719.278 140.861 719.477 140.83 719.654 140.768C719.834 140.705 719.989 140.61 720.12 140.484C720.25 140.357 720.35 140.198 720.422 140.009L721.231 140.236C721.146 140.51 721.003 140.752 720.801 140.96C720.6 141.166 720.352 141.327 720.056 141.443C719.76 141.557 719.427 141.614 719.058 141.614ZM726.455 137.267L725.702 137.48C725.655 137.355 725.585 137.233 725.493 137.114C725.403 136.994 725.279 136.894 725.123 136.816C724.967 136.738 724.767 136.699 724.523 136.699C724.189 136.699 723.911 136.776 723.689 136.93C723.468 137.081 723.358 137.274 723.358 137.509C723.358 137.717 723.434 137.881 723.586 138.002C723.737 138.123 723.974 138.223 724.296 138.304L725.105 138.503C725.593 138.621 725.957 138.802 726.196 139.046C726.435 139.288 726.554 139.599 726.554 139.98C726.554 140.293 726.464 140.572 726.284 140.818C726.107 141.064 725.858 141.259 725.539 141.401C725.219 141.543 724.847 141.614 724.424 141.614C723.867 141.614 723.407 141.493 723.042 141.251C722.678 141.01 722.447 140.657 722.35 140.193L723.145 139.994C723.221 140.288 723.364 140.508 723.575 140.655C723.788 140.802 724.066 140.875 724.409 140.875C724.8 140.875 725.11 140.792 725.34 140.626C725.572 140.458 725.688 140.257 725.688 140.023C725.688 139.833 725.622 139.675 725.489 139.547C725.356 139.417 725.153 139.32 724.878 139.256L723.969 139.043C723.47 138.924 723.103 138.741 722.868 138.492C722.636 138.241 722.52 137.928 722.52 137.551C722.52 137.243 722.607 136.971 722.779 136.734C722.955 136.498 723.193 136.312 723.493 136.177C723.796 136.042 724.14 135.974 724.523 135.974C725.063 135.974 725.487 136.093 725.794 136.33C726.105 136.566 726.325 136.879 726.455 137.267ZM728.427 141.557C728.251 141.557 728.101 141.494 727.976 141.369C727.85 141.243 727.787 141.093 727.787 140.918C727.787 140.742 727.85 140.592 727.976 140.467C728.101 140.341 728.251 140.278 728.427 140.278C728.602 140.278 728.752 140.341 728.878 140.467C729.003 140.592 729.066 140.742 729.066 140.918C729.066 141.034 729.036 141.14 728.977 141.237C728.92 141.334 728.843 141.412 728.746 141.472C728.652 141.528 728.545 141.557 728.427 141.557ZM728.427 137.509C728.251 137.509 728.101 137.446 727.976 137.32C727.85 137.195 727.787 137.045 727.787 136.869C727.787 136.694 727.85 136.544 727.976 136.418C728.101 136.293 728.251 136.23 728.427 136.23C728.602 136.23 728.752 136.293 728.878 136.418C729.003 136.544 729.066 136.694 729.066 136.869C729.066 136.985 729.036 137.092 728.977 137.189C728.92 137.286 728.843 137.364 728.746 137.423C728.652 137.48 728.545 137.509 728.427 137.509ZM735.925 134.227V141.5H735.044V135.151H735.002L733.226 136.33V135.435L735.044 134.227H735.925ZM737.846 140.009V139.284L741.042 134.227H741.568V135.349H741.213L738.798 139.17V139.227H743.102V140.009H737.846ZM741.269 141.5V139.788V139.451V134.227H742.107V141.5H741.269Z" fill="#999"/><g clip-path="url(#clip2_295_60020)"><rect x="720.5" y="87.5" width="11" height="11" transform="rotate(45 720.5 87.5)" fill="#fff"/></g></g></g><defs><filter id="filter0_d_295_60020" x="668" y="85.5" width="105" height="76" filterUnits="userSpaceOnUse" color-interpolation-filters="sRGB"><feFlood flood-opacity="0" result="BackgroundImageFix"/><feColorMatrix in="SourceAlpha" type="matrix" values="0 0 0 0 0 0 0 0 0 0 0 0 0 0 0 0 0 0 127 0" result="hardAlpha"/><feOffset dy="2"/><feGaussianBlur stdDeviation="2"/><feColorMatrix type="matrix" values="0 0 0 0 0 0 0 0 0 0 0 0 0 0 0 0 0 0 0.1 0"/><feBlend mode="normal" in2="BackgroundImageFix" result="effect1_dropShadow_295_60020"/><feBlend mode="normal" in="SourceGraphic" in2="effect1_dropShadow_295_60020" result="shape"/></filter><clipPath id="clip0_295_60020"><rect width="960" height="171" fill="#fff"/></clipPath><clipPath id="clip1_295_60020"><rect width="24" height="24" fill="#fff" transform="translate(227.5 73.5)"/></clipPath><clipPath id="clip2_295_60020"><rect width="5.5" height="11" fill="#fff" transform="matrix(0 1 -1 0 726 87.5)"/></clipPath></defs></svg>