<svg width="961" height="260" viewBox="0 0 961 260" fill="none" xmlns="http://www.w3.org/2000/svg">
<rect width="961" height="260" fill="#F1F1F6"/>
<rect x="324" y="94.5" width="313" height="39" rx="3.5" fill="#DCEDF9"/>
<path d="M345.919 105.395C345.507 105.395 345.117 105.477 344.762 105.624C344.406 105.772 343.997 105.603 343.85 105.247C343.702 104.891 343.871 104.483 344.227 104.336C344.749 104.119 345.321 104 345.919 104H347.314C347.699 104 348.012 104.312 348.012 104.698C348.012 105.083 347.699 105.395 347.314 105.395H345.919Z" fill="#0063A3"/>
<path d="M349.407 104.698C349.407 104.312 349.719 104 350.105 104H352.895C353.281 104 353.593 104.312 353.593 104.698C353.593 105.083 353.281 105.395 352.895 105.395H350.105C349.719 105.395 349.407 105.083 349.407 104.698Z" fill="#0063A3"/>
<path d="M354.988 104.698C354.988 104.312 355.301 104 355.686 104H357.081C357.679 104 358.251 104.119 358.773 104.336C359.129 104.483 359.298 104.891 359.15 105.247C359.003 105.603 358.594 105.772 358.238 105.624C357.883 105.477 357.493 105.395 357.081 105.395H355.686C355.301 105.395 354.988 105.083 354.988 104.698Z" fill="#0063A3"/>
<path d="M342.747 106.35C343.103 106.497 343.272 106.906 343.124 107.262C342.977 107.617 342.895 108.007 342.895 108.419V109.814C342.895 110.199 342.583 110.512 342.198 110.512C341.812 110.512 341.5 110.199 341.5 109.814V108.419C341.5 107.821 341.619 107.249 341.836 106.727C341.983 106.371 342.391 106.202 342.747 106.35Z" fill="#0063A3"/>
<path d="M360.253 106.35C360.609 106.202 361.017 106.371 361.164 106.727C361.381 107.249 361.5 107.821 361.5 108.419V109.814C361.5 110.199 361.188 110.512 360.802 110.512C360.417 110.512 360.105 110.199 360.105 109.814V108.419C360.105 108.007 360.023 107.617 359.876 107.262C359.728 106.906 359.897 106.497 360.253 106.35Z" fill="#0063A3"/>
<path d="M342.198 111.907C342.583 111.907 342.895 112.219 342.895 112.605V115.395C342.895 115.781 342.583 116.093 342.198 116.093C341.812 116.093 341.5 115.781 341.5 115.395V112.605C341.5 112.219 341.812 111.907 342.198 111.907Z" fill="#0063A3"/>
<path d="M360.802 111.907C361.188 111.907 361.5 112.219 361.5 112.605V115.395C361.5 115.781 361.188 116.093 360.802 116.093C360.417 116.093 360.105 115.781 360.105 115.395V112.605C360.105 112.219 360.417 111.907 360.802 111.907Z" fill="#0063A3"/>
<path d="M342.198 117.488C342.583 117.488 342.895 117.801 342.895 118.186V119.581C342.895 119.993 342.977 120.383 343.124 120.738C343.272 121.094 343.103 121.503 342.747 121.65C342.391 121.798 341.983 121.629 341.836 121.273C341.619 120.751 341.5 120.179 341.5 119.581V118.186C341.5 117.801 341.812 117.488 342.198 117.488Z" fill="#0063A3"/>
<path d="M360.802 117.488C361.188 117.488 361.5 117.801 361.5 118.186V119.581C361.5 120.179 361.381 120.751 361.164 121.273C361.017 121.629 360.609 121.798 360.253 121.65C359.897 121.503 359.728 121.094 359.876 120.738C360.023 120.383 360.105 119.993 360.105 119.581V118.186C360.105 117.801 360.417 117.488 360.802 117.488Z" fill="#0063A3"/>
<path d="M343.85 122.753C343.997 122.397 344.406 122.228 344.762 122.376C345.117 122.523 345.507 122.605 345.919 122.605H347.314C347.699 122.605 348.012 122.917 348.012 123.302C348.012 123.688 347.699 124 347.314 124H345.919C345.321 124 344.749 123.881 344.227 123.664C343.871 123.517 343.702 123.109 343.85 122.753Z" fill="#0063A3"/>
<path d="M359.15 122.753C359.298 123.109 359.129 123.517 358.773 123.664C358.251 123.881 357.679 124 357.081 124H355.686C355.301 124 354.988 123.688 354.988 123.302C354.988 122.917 355.301 122.605 355.686 122.605H357.081C357.493 122.605 357.883 122.523 358.238 122.376C358.594 122.228 359.003 122.397 359.15 122.753Z" fill="#0063A3"/>
<path d="M349.407 123.302C349.407 122.917 349.719 122.605 350.105 122.605H352.895C353.281 122.605 353.593 122.917 353.593 123.302C353.593 123.688 353.281 124 352.895 124H350.105C349.719 124 349.407 123.688 349.407 123.302Z" fill="#0063A3"/>
<path d="M359.435 107.108C359.708 106.835 359.708 106.394 359.435 106.121C359.163 105.849 358.721 105.849 358.449 106.121L357.522 107.048C357.249 107.32 357.249 107.762 357.522 108.035C357.794 108.307 358.236 108.307 358.508 108.035L359.435 107.108Z" fill="#0063A3"/>
<path d="M356.655 109.888C356.928 109.616 356.928 109.174 356.655 108.901C356.383 108.629 355.941 108.629 355.668 108.901L353.815 110.755C353.543 111.027 353.543 111.469 353.815 111.741C354.087 112.014 354.529 112.014 354.802 111.741L356.655 109.888Z" fill="#0063A3"/>
<path d="M352.948 113.595C353.221 113.322 353.221 112.881 352.948 112.608C352.676 112.336 352.234 112.336 351.962 112.608L351.5 113.07L351.038 112.608C350.766 112.336 350.324 112.336 350.052 112.608C349.779 112.881 349.779 113.322 350.052 113.595L350.513 114.056L350.108 114.462C349.836 114.734 349.836 115.176 350.108 115.448C350.381 115.721 350.822 115.721 351.095 115.448L351.5 115.043L351.905 115.448C352.178 115.721 352.619 115.721 352.892 115.448C353.164 115.176 353.164 114.734 352.892 114.462L352.487 114.056L352.948 113.595Z" fill="#0063A3"/>
<path d="M349.241 117.302C349.514 117.029 349.514 116.587 349.241 116.315C348.969 116.043 348.527 116.043 348.255 116.315L346.401 118.168C346.129 118.441 346.129 118.883 346.401 119.155C346.674 119.428 347.116 119.428 347.388 119.155L349.241 117.302Z" fill="#0063A3"/>
<path d="M345.535 121.008C345.807 120.736 345.807 120.294 345.535 120.022C345.262 119.749 344.82 119.749 344.548 120.022L343.621 120.949C343.349 121.221 343.349 121.663 343.621 121.935C343.894 122.208 344.335 122.208 344.608 121.935L345.535 121.008Z" fill="#0063A3"/>
<path d="M358.392 121.935C358.665 122.208 359.106 122.208 359.379 121.935C359.651 121.663 359.651 121.221 359.379 120.949L358.452 120.022C358.18 119.749 357.738 119.749 357.465 120.022C357.193 120.294 357.193 120.736 357.465 121.008L358.392 121.935Z" fill="#0063A3"/>
<path d="M355.612 119.155C355.884 119.428 356.326 119.428 356.599 119.155C356.871 118.883 356.871 118.441 356.599 118.168L354.745 116.315C354.473 116.043 354.031 116.043 353.759 116.315C353.486 116.587 353.486 117.029 353.759 117.302L355.612 119.155Z" fill="#0063A3"/>
<path d="M348.198 111.741C348.471 112.014 348.913 112.014 349.185 111.741C349.457 111.469 349.457 111.027 349.185 110.755L347.332 108.901C347.059 108.629 346.617 108.629 346.345 108.901C346.072 109.174 346.072 109.616 346.345 109.888L348.198 111.741Z" fill="#0063A3"/>
<path d="M344.492 108.035C344.764 108.307 345.206 108.307 345.478 108.035C345.751 107.762 345.751 107.32 345.478 107.048L344.551 106.121C344.279 105.849 343.837 105.849 343.565 106.121C343.292 106.394 343.292 106.835 343.565 107.108L344.492 108.035Z" fill="#0063A3"/>
<path d="M348.761 109.246C349.038 109.162 349.333 109.116 349.64 109.116H350.337C350.723 109.116 351.035 108.804 351.035 108.419C351.035 108.033 350.723 107.721 350.337 107.721H349.64C349.194 107.721 348.764 107.787 348.357 107.91C347.988 108.022 347.78 108.411 347.891 108.78C348.003 109.149 348.393 109.357 348.761 109.246Z" fill="#0063A3"/>
<path d="M352.663 107.721C352.277 107.721 351.965 108.033 351.965 108.419C351.965 108.804 352.277 109.116 352.663 109.116H353.36C353.667 109.116 353.962 109.162 354.239 109.246C354.607 109.357 354.997 109.149 355.109 108.78C355.22 108.411 355.012 108.022 354.643 107.91C354.236 107.787 353.806 107.721 353.36 107.721H352.663Z" fill="#0063A3"/>
<path d="M346.746 111.261C346.857 110.893 346.649 110.503 346.28 110.391C345.911 110.28 345.522 110.488 345.41 110.857C345.287 111.264 345.221 111.694 345.221 112.14V112.837C345.221 113.223 345.533 113.535 345.919 113.535C346.304 113.535 346.616 113.223 346.616 112.837V112.14C346.616 111.833 346.662 111.538 346.746 111.261Z" fill="#0063A3"/>
<path d="M357.59 110.857C357.478 110.488 357.089 110.28 356.72 110.391C356.351 110.503 356.143 110.893 356.254 111.261C356.338 111.538 356.384 111.833 356.384 112.14V112.837C356.384 113.223 356.696 113.535 357.081 113.535C357.467 113.535 357.779 113.223 357.779 112.837V112.14C357.779 111.694 357.713 111.264 357.59 110.857Z" fill="#0063A3"/>
<path d="M346.616 115.163C346.616 114.777 346.304 114.465 345.919 114.465C345.533 114.465 345.221 114.777 345.221 115.163V115.86C345.221 116.306 345.287 116.736 345.41 117.143C345.522 117.512 345.911 117.72 346.28 117.609C346.649 117.497 346.857 117.107 346.746 116.739C346.662 116.462 346.616 116.167 346.616 115.86V115.163Z" fill="#0063A3"/>
<path d="M357.779 115.163C357.779 114.777 357.467 114.465 357.081 114.465C356.696 114.465 356.384 114.777 356.384 115.163V115.86C356.384 116.167 356.338 116.462 356.254 116.739C356.143 117.107 356.351 117.497 356.72 117.609C357.089 117.72 357.478 117.512 357.59 117.143C357.713 116.736 357.779 116.306 357.779 115.86V115.163Z" fill="#0063A3"/>
<path d="M348.761 118.754C348.393 118.643 348.003 118.851 347.891 119.22C347.78 119.589 347.988 119.978 348.357 120.09C348.764 120.213 349.194 120.279 349.64 120.279H350.337C350.723 120.279 351.035 119.967 351.035 119.581C351.035 119.196 350.723 118.884 350.337 118.884H349.64C349.333 118.884 349.038 118.838 348.761 118.754Z" fill="#0063A3"/>
<path d="M354.643 120.09C355.012 119.978 355.22 119.589 355.109 119.22C354.997 118.851 354.607 118.643 354.239 118.754C353.962 118.838 353.667 118.884 353.36 118.884H352.663C352.277 118.884 351.965 119.196 351.965 119.581C351.965 119.967 352.277 120.279 352.663 120.279H353.36C353.806 120.279 354.236 120.213 354.643 120.09Z" fill="#0063A3"/>
<path d="M375.95 119H374.788V110.038H371.623V109.006H379.115V110.038H375.95V119ZM385.832 119V114.153C385.832 113.543 385.693 113.087 385.415 112.786C385.137 112.485 384.702 112.335 384.109 112.335C383.321 112.335 382.744 112.549 382.38 112.978C382.02 113.406 381.84 114.108 381.84 115.083V119H380.705V108.363H381.84V111.583C381.84 111.97 381.822 112.292 381.785 112.547H381.854C382.077 112.187 382.394 111.904 382.804 111.699C383.218 111.49 383.69 111.385 384.219 111.385C385.135 111.385 385.821 111.604 386.276 112.041C386.737 112.474 386.967 113.164 386.967 114.112V119H385.832ZM390.689 119H389.555V111.508H390.689V119ZM389.459 109.478C389.459 109.218 389.523 109.029 389.65 108.91C389.778 108.787 389.938 108.726 390.129 108.726C390.311 108.726 390.468 108.787 390.601 108.91C390.733 109.033 390.799 109.222 390.799 109.478C390.799 109.733 390.733 109.924 390.601 110.052C390.468 110.175 390.311 110.236 390.129 110.236C389.938 110.236 389.778 110.175 389.65 110.052C389.523 109.924 389.459 109.733 389.459 109.478ZM398.179 116.956C398.179 117.653 397.919 118.191 397.399 118.569C396.88 118.948 396.151 119.137 395.212 119.137C394.218 119.137 393.444 118.979 392.888 118.665V117.612C393.248 117.795 393.633 117.938 394.043 118.043C394.458 118.148 394.856 118.2 395.239 118.2C395.832 118.2 396.287 118.107 396.606 117.92C396.925 117.729 397.085 117.439 397.085 117.052C397.085 116.76 396.957 116.512 396.702 116.307C396.451 116.097 395.959 115.851 395.226 115.568C394.528 115.309 394.032 115.083 393.735 114.892C393.444 114.696 393.225 114.475 393.079 114.229C392.938 113.982 392.867 113.688 392.867 113.347C392.867 112.736 393.116 112.255 393.612 111.904C394.109 111.549 394.79 111.371 395.656 111.371C396.463 111.371 397.251 111.535 398.021 111.863L397.618 112.786C396.866 112.476 396.185 112.321 395.574 112.321C395.036 112.321 394.631 112.406 394.357 112.574C394.084 112.743 393.947 112.975 393.947 113.271C393.947 113.472 393.997 113.643 394.098 113.784C394.202 113.925 394.369 114.06 394.597 114.188C394.825 114.315 395.262 114.5 395.909 114.741C396.798 115.065 397.397 115.391 397.707 115.719C398.021 116.047 398.179 116.459 398.179 116.956ZM405.303 119H404.168V111.508H405.303V119ZM404.072 109.478C404.072 109.218 404.136 109.029 404.264 108.91C404.391 108.787 404.551 108.726 404.742 108.726C404.924 108.726 405.082 108.787 405.214 108.91C405.346 109.033 405.412 109.222 405.412 109.478C405.412 109.733 405.346 109.924 405.214 110.052C405.082 110.175 404.924 110.236 404.742 110.236C404.551 110.236 404.391 110.175 404.264 110.052C404.136 109.924 404.072 109.733 404.072 109.478ZM412.792 116.956C412.792 117.653 412.532 118.191 412.013 118.569C411.493 118.948 410.764 119.137 409.825 119.137C408.832 119.137 408.057 118.979 407.501 118.665V117.612C407.861 117.795 408.246 117.938 408.656 118.043C409.071 118.148 409.47 118.2 409.853 118.2C410.445 118.2 410.901 118.107 411.22 117.92C411.539 117.729 411.698 117.439 411.698 117.052C411.698 116.76 411.571 116.512 411.315 116.307C411.065 116.097 410.573 115.851 409.839 115.568C409.142 115.309 408.645 115.083 408.349 114.892C408.057 114.696 407.838 114.475 407.692 114.229C407.551 113.982 407.48 113.688 407.48 113.347C407.48 112.736 407.729 112.255 408.226 111.904C408.722 111.549 409.404 111.371 410.27 111.371C411.076 111.371 411.865 111.535 412.635 111.863L412.231 112.786C411.479 112.476 410.798 112.321 410.188 112.321C409.65 112.321 409.244 112.406 408.971 112.574C408.697 112.743 408.561 112.975 408.561 113.271C408.561 113.472 408.611 113.643 408.711 113.784C408.816 113.925 408.982 114.06 409.21 114.188C409.438 114.315 409.875 114.5 410.522 114.741C411.411 115.065 412.01 115.391 412.32 115.719C412.635 116.047 412.792 116.459 412.792 116.956ZM422.268 119.137C421.78 119.137 421.333 119.048 420.928 118.87C420.527 118.688 420.189 118.41 419.916 118.036H419.834C419.889 118.474 419.916 118.888 419.916 119.28V122.363H418.781V111.508H419.704L419.861 112.533H419.916C420.208 112.123 420.547 111.827 420.935 111.645C421.322 111.462 421.766 111.371 422.268 111.371C423.261 111.371 424.027 111.711 424.564 112.39C425.107 113.069 425.378 114.021 425.378 115.247C425.378 116.478 425.102 117.435 424.551 118.118C424.004 118.797 423.243 119.137 422.268 119.137ZM422.104 112.335C421.338 112.335 420.784 112.547 420.442 112.971C420.101 113.395 419.925 114.069 419.916 114.994V115.247C419.916 116.3 420.091 117.054 420.442 117.51C420.793 117.961 421.356 118.187 422.131 118.187C422.778 118.187 423.284 117.924 423.648 117.4C424.018 116.876 424.202 116.154 424.202 115.233C424.202 114.299 424.018 113.584 423.648 113.087C423.284 112.586 422.769 112.335 422.104 112.335ZM431.035 111.371C431.368 111.371 431.666 111.398 431.931 111.453L431.773 112.506C431.464 112.438 431.19 112.403 430.953 112.403C430.347 112.403 429.827 112.649 429.395 113.142C428.966 113.634 428.752 114.247 428.752 114.98V119H427.617V111.508H428.554L428.684 112.896H428.738C429.016 112.408 429.351 112.032 429.743 111.768C430.135 111.503 430.566 111.371 431.035 111.371ZM434.717 119H433.582V111.508H434.717V119ZM433.486 109.478C433.486 109.218 433.55 109.029 433.678 108.91C433.805 108.787 433.965 108.726 434.156 108.726C434.339 108.726 434.496 108.787 434.628 108.91C434.76 109.033 434.826 109.222 434.826 109.478C434.826 109.733 434.76 109.924 434.628 110.052C434.496 110.175 434.339 110.236 434.156 110.236C433.965 110.236 433.805 110.175 433.678 110.052C433.55 109.924 433.486 109.733 433.486 109.478ZM446.923 119V114.126C446.923 113.529 446.795 113.082 446.54 112.786C446.285 112.485 445.888 112.335 445.351 112.335C444.644 112.335 444.122 112.538 443.785 112.943C443.448 113.349 443.279 113.973 443.279 114.816V119H442.145V114.126C442.145 113.529 442.017 113.082 441.762 112.786C441.507 112.485 441.108 112.335 440.565 112.335C439.854 112.335 439.333 112.549 439 112.978C438.672 113.401 438.508 114.099 438.508 115.069V119H437.373V111.508H438.296L438.48 112.533H438.535C438.749 112.169 439.05 111.884 439.438 111.679C439.829 111.474 440.267 111.371 440.75 111.371C441.921 111.371 442.687 111.795 443.047 112.643H443.102C443.325 112.251 443.648 111.941 444.072 111.713C444.496 111.485 444.979 111.371 445.521 111.371C446.369 111.371 447.003 111.59 447.422 112.027C447.846 112.46 448.058 113.155 448.058 114.112V119H446.923ZM455.26 119L455.034 117.934H454.979C454.606 118.403 454.232 118.722 453.858 118.891C453.489 119.055 453.027 119.137 452.471 119.137C451.728 119.137 451.145 118.945 450.721 118.562C450.301 118.18 450.092 117.635 450.092 116.929C450.092 115.416 451.302 114.623 453.722 114.55L454.993 114.509V114.044C454.993 113.456 454.866 113.023 454.61 112.745C454.36 112.463 453.956 112.321 453.4 112.321C452.776 112.321 452.07 112.513 451.281 112.896L450.933 112.027C451.302 111.827 451.705 111.67 452.143 111.556C452.585 111.442 453.027 111.385 453.469 111.385C454.362 111.385 455.023 111.583 455.451 111.979C455.884 112.376 456.101 113.012 456.101 113.887V119H455.26ZM452.696 118.2C453.403 118.2 453.956 118.007 454.357 117.619C454.763 117.232 454.966 116.689 454.966 115.992V115.315L453.831 115.363C452.929 115.395 452.277 115.536 451.876 115.787C451.479 116.033 451.281 116.418 451.281 116.942C451.281 117.353 451.404 117.665 451.65 117.879C451.901 118.093 452.25 118.2 452.696 118.2ZM462.113 111.371C462.446 111.371 462.744 111.398 463.009 111.453L462.852 112.506C462.542 112.438 462.268 112.403 462.031 112.403C461.425 112.403 460.906 112.649 460.473 113.142C460.044 113.634 459.83 114.247 459.83 114.98V119H458.695V111.508H459.632L459.762 112.896H459.816C460.094 112.408 460.429 112.032 460.821 111.768C461.213 111.503 461.644 111.371 462.113 111.371ZM463.471 111.508H464.688L466.328 115.78C466.688 116.756 466.911 117.46 466.998 117.893H467.053C467.112 117.66 467.235 117.264 467.422 116.703C467.613 116.138 468.233 114.406 469.281 111.508H470.498L467.278 120.039C466.959 120.882 466.586 121.479 466.157 121.83C465.733 122.186 465.212 122.363 464.592 122.363C464.245 122.363 463.904 122.325 463.566 122.247V121.338C463.817 121.393 464.097 121.42 464.407 121.42C465.187 121.42 465.743 120.982 466.075 120.107L466.492 119.041L463.471 111.508ZM485.401 119V114.126C485.401 113.529 485.274 113.082 485.019 112.786C484.763 112.485 484.367 112.335 483.829 112.335C483.123 112.335 482.601 112.538 482.264 112.943C481.926 113.349 481.758 113.973 481.758 114.816V119H480.623V114.126C480.623 113.529 480.495 113.082 480.24 112.786C479.985 112.485 479.586 112.335 479.044 112.335C478.333 112.335 477.811 112.549 477.479 112.978C477.15 113.401 476.986 114.099 476.986 115.069V119H475.852V111.508H476.774L476.959 112.533H477.014C477.228 112.169 477.529 111.884 477.916 111.679C478.308 111.474 478.745 111.371 479.229 111.371C480.4 111.371 481.165 111.795 481.525 112.643H481.58C481.803 112.251 482.127 111.941 482.551 111.713C482.975 111.485 483.458 111.371 484 111.371C484.848 111.371 485.481 111.59 485.9 112.027C486.324 112.46 486.536 113.155 486.536 114.112V119H485.401ZM492.296 119.137C491.188 119.137 490.313 118.799 489.671 118.125C489.033 117.451 488.714 116.514 488.714 115.315C488.714 114.108 489.01 113.148 489.603 112.438C490.2 111.727 490.999 111.371 492.002 111.371C492.941 111.371 493.684 111.681 494.23 112.301C494.777 112.916 495.051 113.729 495.051 114.741V115.459H489.89C489.912 116.339 490.133 117.006 490.553 117.462C490.977 117.918 491.571 118.146 492.337 118.146C493.144 118.146 493.941 117.977 494.729 117.64V118.651C494.328 118.825 493.948 118.948 493.588 119.021C493.232 119.098 492.802 119.137 492.296 119.137ZM491.988 112.321C491.387 112.321 490.906 112.517 490.546 112.909C490.19 113.301 489.981 113.843 489.917 114.536H493.834C493.834 113.821 493.674 113.274 493.355 112.896C493.036 112.513 492.581 112.321 491.988 112.321ZM502.075 116.956C502.075 117.653 501.815 118.191 501.296 118.569C500.776 118.948 500.047 119.137 499.108 119.137C498.115 119.137 497.34 118.979 496.784 118.665V117.612C497.144 117.795 497.529 117.938 497.939 118.043C498.354 118.148 498.753 118.2 499.136 118.2C499.728 118.2 500.184 118.107 500.503 117.92C500.822 117.729 500.981 117.439 500.981 117.052C500.981 116.76 500.854 116.512 500.599 116.307C500.348 116.097 499.856 115.851 499.122 115.568C498.425 115.309 497.928 115.083 497.632 114.892C497.34 114.696 497.121 114.475 496.976 114.229C496.834 113.982 496.764 113.688 496.764 113.347C496.764 112.736 497.012 112.255 497.509 111.904C498.006 111.549 498.687 111.371 499.553 111.371C500.359 111.371 501.148 111.535 501.918 111.863L501.515 112.786C500.763 112.476 500.081 112.321 499.471 112.321C498.933 112.321 498.527 112.406 498.254 112.574C497.98 112.743 497.844 112.975 497.844 113.271C497.844 113.472 497.894 113.643 497.994 113.784C498.099 113.925 498.265 114.06 498.493 114.188C498.721 114.315 499.159 114.5 499.806 114.741C500.694 115.065 501.294 115.391 501.604 115.719C501.918 116.047 502.075 116.459 502.075 116.956ZM509.011 116.956C509.011 117.653 508.751 118.191 508.231 118.569C507.712 118.948 506.983 119.137 506.044 119.137C505.05 119.137 504.276 118.979 503.72 118.665V117.612C504.08 117.795 504.465 117.938 504.875 118.043C505.29 118.148 505.688 118.2 506.071 118.2C506.664 118.2 507.119 118.107 507.438 117.92C507.757 117.729 507.917 117.439 507.917 117.052C507.917 116.76 507.789 116.512 507.534 116.307C507.284 116.097 506.791 115.851 506.058 115.568C505.36 115.309 504.864 115.083 504.567 114.892C504.276 114.696 504.057 114.475 503.911 114.229C503.77 113.982 503.699 113.688 503.699 113.347C503.699 112.736 503.948 112.255 504.444 111.904C504.941 111.549 505.622 111.371 506.488 111.371C507.295 111.371 508.083 111.535 508.854 111.863L508.45 112.786C507.698 112.476 507.017 112.321 506.406 112.321C505.868 112.321 505.463 112.406 505.189 112.574C504.916 112.743 504.779 112.975 504.779 113.271C504.779 113.472 504.829 113.643 504.93 113.784C505.035 113.925 505.201 114.06 505.429 114.188C505.657 114.315 506.094 114.5 506.741 114.741C507.63 115.065 508.229 115.391 508.539 115.719C508.854 116.047 509.011 116.459 509.011 116.956ZM515.721 119L515.495 117.934H515.44C515.067 118.403 514.693 118.722 514.319 118.891C513.95 119.055 513.488 119.137 512.932 119.137C512.189 119.137 511.605 118.945 511.182 118.562C510.762 118.18 510.553 117.635 510.553 116.929C510.553 115.416 511.763 114.623 514.183 114.55L515.454 114.509V114.044C515.454 113.456 515.326 113.023 515.071 112.745C514.821 112.463 514.417 112.321 513.861 112.321C513.237 112.321 512.531 112.513 511.742 112.896L511.394 112.027C511.763 111.827 512.166 111.67 512.604 111.556C513.046 111.442 513.488 111.385 513.93 111.385C514.823 111.385 515.484 111.583 515.912 111.979C516.345 112.376 516.562 113.012 516.562 113.887V119H515.721ZM513.157 118.2C513.864 118.2 514.417 118.007 514.818 117.619C515.224 117.232 515.427 116.689 515.427 115.992V115.315L514.292 115.363C513.39 115.395 512.738 115.536 512.337 115.787C511.94 116.033 511.742 116.418 511.742 116.942C511.742 117.353 511.865 117.665 512.111 117.879C512.362 118.093 512.711 118.2 513.157 118.2ZM525.288 111.508V112.226L523.9 112.39C524.028 112.549 524.142 112.759 524.242 113.019C524.342 113.274 524.393 113.563 524.393 113.887C524.393 114.62 524.142 115.206 523.641 115.644C523.139 116.081 522.451 116.3 521.576 116.3C521.353 116.3 521.143 116.282 520.947 116.245C520.464 116.5 520.223 116.822 520.223 117.209C520.223 117.414 520.307 117.567 520.476 117.667C520.644 117.763 520.934 117.811 521.344 117.811H522.67C523.481 117.811 524.103 117.981 524.536 118.323C524.974 118.665 525.192 119.162 525.192 119.813C525.192 120.643 524.86 121.274 524.194 121.707C523.529 122.145 522.558 122.363 521.282 122.363C520.302 122.363 519.546 122.181 519.013 121.816C518.484 121.452 518.22 120.937 518.22 120.271C518.22 119.816 518.366 119.422 518.657 119.089C518.949 118.756 519.359 118.531 519.888 118.412C519.696 118.326 519.535 118.191 519.402 118.009C519.275 117.826 519.211 117.615 519.211 117.373C519.211 117.1 519.284 116.86 519.43 116.655C519.576 116.45 519.806 116.252 520.12 116.061C519.733 115.901 519.416 115.63 519.17 115.247C518.928 114.864 518.808 114.427 518.808 113.935C518.808 113.114 519.054 112.483 519.546 112.041C520.038 111.594 520.735 111.371 521.638 111.371C522.03 111.371 522.383 111.417 522.697 111.508H525.288ZM519.313 120.258C519.313 120.663 519.484 120.971 519.826 121.181C520.168 121.39 520.658 121.495 521.296 121.495C522.248 121.495 522.952 121.352 523.408 121.064C523.868 120.782 524.099 120.397 524.099 119.909C524.099 119.504 523.973 119.221 523.723 119.062C523.472 118.907 523 118.829 522.308 118.829H520.947C520.432 118.829 520.031 118.952 519.744 119.198C519.457 119.444 519.313 119.798 519.313 120.258ZM519.929 113.907C519.929 114.431 520.077 114.828 520.373 115.097C520.669 115.366 521.082 115.5 521.61 115.5C522.718 115.5 523.271 114.962 523.271 113.887C523.271 112.761 522.711 112.198 521.59 112.198C521.057 112.198 520.646 112.342 520.359 112.629C520.072 112.916 519.929 113.342 519.929 113.907ZM530.241 119.137C529.134 119.137 528.259 118.799 527.616 118.125C526.978 117.451 526.659 116.514 526.659 115.315C526.659 114.108 526.955 113.148 527.548 112.438C528.145 111.727 528.945 111.371 529.947 111.371C530.886 111.371 531.629 111.681 532.176 112.301C532.723 112.916 532.996 113.729 532.996 114.741V115.459H527.835C527.858 116.339 528.079 117.006 528.498 117.462C528.922 117.918 529.517 118.146 530.282 118.146C531.089 118.146 531.886 117.977 532.675 117.64V118.651C532.274 118.825 531.893 118.948 531.533 119.021C531.178 119.098 530.747 119.137 530.241 119.137ZM529.934 112.321C529.332 112.321 528.851 112.517 528.491 112.909C528.136 113.301 527.926 113.843 527.862 114.536H531.779C531.779 113.821 531.62 113.274 531.301 112.896C530.982 112.513 530.526 112.321 529.934 112.321ZM535.023 118.275C535.023 117.97 535.092 117.74 535.229 117.585C535.37 117.425 535.57 117.346 535.83 117.346C536.094 117.346 536.299 117.425 536.445 117.585C536.596 117.74 536.671 117.97 536.671 118.275C536.671 118.572 536.596 118.799 536.445 118.959C536.295 119.118 536.09 119.198 535.83 119.198C535.598 119.198 535.404 119.128 535.249 118.986C535.099 118.84 535.023 118.604 535.023 118.275Z" fill="#0063A3"/>
<rect x="546.5" y="98" width="75" height="32" rx="4" fill="#0063A3"/>
<path d="M563.855 110.434H566.521C567.736 110.434 568.617 110.607 569.164 110.955C569.715 111.299 569.99 111.848 569.99 112.602C569.99 113.113 569.869 113.533 569.627 113.861C569.389 114.189 569.07 114.387 568.672 114.453V114.512C569.215 114.633 569.605 114.859 569.844 115.191C570.086 115.523 570.207 115.965 570.207 116.516C570.207 117.297 569.924 117.906 569.357 118.344C568.795 118.781 568.029 119 567.061 119H563.855V110.434ZM565.672 113.826H566.727C567.219 113.826 567.574 113.75 567.793 113.598C568.016 113.445 568.127 113.193 568.127 112.842C568.127 112.514 568.006 112.279 567.764 112.139C567.525 111.994 567.146 111.922 566.627 111.922H565.672V113.826ZM565.672 115.268V117.5H566.855C567.355 117.5 567.725 117.404 567.963 117.213C568.201 117.021 568.32 116.729 568.32 116.334C568.32 115.623 567.812 115.268 566.797 115.268H565.672ZM576.568 119L576.328 118.162H576.234C576.043 118.467 575.771 118.703 575.42 118.871C575.068 119.035 574.668 119.117 574.218 119.117C573.449 119.117 572.869 118.912 572.478 118.502C572.087 118.088 571.892 117.494 571.892 116.721V112.449H573.679V116.275C573.679 116.748 573.763 117.104 573.931 117.342C574.099 117.576 574.367 117.693 574.734 117.693C575.234 117.693 575.595 117.527 575.818 117.195C576.041 116.859 576.152 116.305 576.152 115.531V112.449H577.939V119H576.568ZM582.724 117.693C583.036 117.693 583.411 117.625 583.849 117.488V118.818C583.404 119.018 582.857 119.117 582.208 119.117C581.493 119.117 580.972 118.938 580.644 118.578C580.32 118.215 580.157 117.672 580.157 116.949V113.791H579.302V113.035L580.286 112.438L580.802 111.055H581.945V112.449H583.779V113.791H581.945V116.949C581.945 117.203 582.015 117.391 582.155 117.512C582.3 117.633 582.489 117.693 582.724 117.693ZM588.089 117.693C588.401 117.693 588.776 117.625 589.214 117.488V118.818C588.768 119.018 588.221 119.117 587.573 119.117C586.858 119.117 586.337 118.938 586.009 118.578C585.684 118.215 585.522 117.672 585.522 116.949V113.791H584.667V113.035L585.651 112.438L586.167 111.055H587.309V112.449H589.143V113.791H587.309V116.949C587.309 117.203 587.38 117.391 587.52 117.512C587.665 117.633 587.854 117.693 588.089 117.693ZM592.118 115.713C592.118 116.361 592.223 116.852 592.434 117.184C592.649 117.516 592.996 117.682 593.477 117.682C593.954 117.682 594.295 117.518 594.502 117.189C594.713 116.857 594.819 116.365 594.819 115.713C594.819 115.064 594.713 114.578 594.502 114.254C594.291 113.93 593.946 113.768 593.465 113.768C592.989 113.768 592.645 113.93 592.434 114.254C592.223 114.574 592.118 115.061 592.118 115.713ZM596.647 115.713C596.647 116.779 596.366 117.613 595.803 118.215C595.241 118.816 594.457 119.117 593.454 119.117C592.825 119.117 592.27 118.98 591.789 118.707C591.309 118.43 590.94 118.033 590.682 117.518C590.424 117.002 590.295 116.4 590.295 115.713C590.295 114.643 590.575 113.811 591.133 113.217C591.692 112.623 592.477 112.326 593.489 112.326C594.118 112.326 594.672 112.463 595.153 112.736C595.633 113.01 596.002 113.402 596.26 113.914C596.518 114.426 596.647 115.025 596.647 115.713ZM604.32 119H602.533V115.174C602.533 114.701 602.449 114.348 602.281 114.113C602.113 113.875 601.846 113.756 601.479 113.756C600.979 113.756 600.617 113.924 600.395 114.26C600.172 114.592 600.061 115.145 600.061 115.918V119H598.273V112.449H599.639L599.879 113.287H599.979C600.178 112.971 600.451 112.732 600.799 112.572C601.15 112.408 601.549 112.326 601.994 112.326C602.756 112.326 603.334 112.533 603.729 112.947C604.123 113.357 604.32 113.951 604.32 114.729V119Z" fill="white"/>
<rect x="324" y="94.5" width="313" height="39" rx="3.5" stroke="#217CBB"/>
<rect x="310" y="150.5" width="341" height="39" rx="3.5" fill="#F1F1F6"/>
<path d="M331.919 161.395C331.507 161.395 331.117 161.477 330.762 161.624C330.406 161.772 329.997 161.603 329.85 161.247C329.702 160.891 329.871 160.483 330.227 160.336C330.749 160.119 331.321 160 331.919 160H333.314C333.699 160 334.012 160.312 334.012 160.698C334.012 161.083 333.699 161.395 333.314 161.395H331.919Z" fill="#252A2E"/>
<path d="M335.407 160.698C335.407 160.312 335.719 160 336.105 160H338.895C339.281 160 339.593 160.312 339.593 160.698C339.593 161.083 339.281 161.395 338.895 161.395H336.105C335.719 161.395 335.407 161.083 335.407 160.698Z" fill="#252A2E"/>
<path d="M340.988 160.698C340.988 160.312 341.301 160 341.686 160H343.081C343.679 160 344.251 160.119 344.773 160.336C345.129 160.483 345.298 160.891 345.15 161.247C345.003 161.603 344.594 161.772 344.238 161.624C343.883 161.477 343.493 161.395 343.081 161.395H341.686C341.301 161.395 340.988 161.083 340.988 160.698Z" fill="#252A2E"/>
<path d="M328.747 162.35C329.103 162.497 329.272 162.906 329.124 163.262C328.977 163.617 328.895 164.007 328.895 164.419V165.814C328.895 166.199 328.583 166.512 328.198 166.512C327.812 166.512 327.5 166.199 327.5 165.814V164.419C327.5 163.821 327.619 163.249 327.836 162.727C327.983 162.371 328.391 162.202 328.747 162.35Z" fill="#252A2E"/>
<path d="M346.253 162.35C346.609 162.202 347.017 162.371 347.164 162.727C347.381 163.249 347.5 163.821 347.5 164.419V165.814C347.5 166.199 347.188 166.512 346.802 166.512C346.417 166.512 346.105 166.199 346.105 165.814V164.419C346.105 164.007 346.023 163.617 345.876 163.262C345.728 162.906 345.897 162.497 346.253 162.35Z" fill="#252A2E"/>
<path d="M328.198 167.907C328.583 167.907 328.895 168.219 328.895 168.605V171.395C328.895 171.781 328.583 172.093 328.198 172.093C327.812 172.093 327.5 171.781 327.5 171.395V168.605C327.5 168.219 327.812 167.907 328.198 167.907Z" fill="#252A2E"/>
<path d="M346.802 167.907C347.188 167.907 347.5 168.219 347.5 168.605V171.395C347.5 171.781 347.188 172.093 346.802 172.093C346.417 172.093 346.105 171.781 346.105 171.395V168.605C346.105 168.219 346.417 167.907 346.802 167.907Z" fill="#252A2E"/>
<path d="M328.198 173.488C328.583 173.488 328.895 173.801 328.895 174.186V175.581C328.895 175.993 328.977 176.383 329.124 176.738C329.272 177.094 329.103 177.503 328.747 177.65C328.391 177.798 327.983 177.629 327.836 177.273C327.619 176.751 327.5 176.179 327.5 175.581V174.186C327.5 173.801 327.812 173.488 328.198 173.488Z" fill="#252A2E"/>
<path d="M346.802 173.488C347.188 173.488 347.5 173.801 347.5 174.186V175.581C347.5 176.179 347.381 176.751 347.164 177.273C347.017 177.629 346.609 177.798 346.253 177.65C345.897 177.503 345.728 177.094 345.876 176.738C346.023 176.383 346.105 175.993 346.105 175.581V174.186C346.105 173.801 346.417 173.488 346.802 173.488Z" fill="#252A2E"/>
<path d="M329.85 178.753C329.997 178.397 330.406 178.228 330.762 178.376C331.117 178.523 331.507 178.605 331.919 178.605H333.314C333.699 178.605 334.012 178.917 334.012 179.302C334.012 179.688 333.699 180 333.314 180H331.919C331.321 180 330.749 179.881 330.227 179.664C329.871 179.517 329.702 179.109 329.85 178.753Z" fill="#252A2E"/>
<path d="M345.15 178.753C345.298 179.109 345.129 179.517 344.773 179.664C344.251 179.881 343.679 180 343.081 180H341.686C341.301 180 340.988 179.688 340.988 179.302C340.988 178.917 341.301 178.605 341.686 178.605H343.081C343.493 178.605 343.883 178.523 344.238 178.376C344.594 178.228 345.003 178.397 345.15 178.753Z" fill="#252A2E"/>
<path d="M335.407 179.302C335.407 178.917 335.719 178.605 336.105 178.605H338.895C339.281 178.605 339.593 178.917 339.593 179.302C339.593 179.688 339.281 180 338.895 180H336.105C335.719 180 335.407 179.688 335.407 179.302Z" fill="#252A2E"/>
<path d="M345.435 163.108C345.708 162.835 345.708 162.394 345.435 162.121C345.163 161.849 344.721 161.849 344.449 162.121L343.522 163.048C343.249 163.32 343.249 163.762 343.522 164.035C343.794 164.307 344.236 164.307 344.508 164.035L345.435 163.108Z" fill="#252A2E"/>
<path d="M342.655 165.888C342.928 165.616 342.928 165.174 342.655 164.901C342.383 164.629 341.941 164.629 341.668 164.901L339.815 166.755C339.543 167.027 339.543 167.469 339.815 167.741C340.087 168.014 340.529 168.014 340.802 167.741L342.655 165.888Z" fill="#252A2E"/>
<path d="M338.948 169.595C339.221 169.322 339.221 168.881 338.948 168.608C338.676 168.336 338.234 168.336 337.962 168.608L337.5 169.07L337.038 168.608C336.766 168.336 336.324 168.336 336.052 168.608C335.779 168.881 335.779 169.322 336.052 169.595L336.513 170.056L336.108 170.462C335.836 170.734 335.836 171.176 336.108 171.448C336.381 171.721 336.822 171.721 337.095 171.448L337.5 171.043L337.905 171.448C338.178 171.721 338.619 171.721 338.892 171.448C339.164 171.176 339.164 170.734 338.892 170.462L338.487 170.056L338.948 169.595Z" fill="#252A2E"/>
<path d="M335.241 173.302C335.514 173.029 335.514 172.587 335.241 172.315C334.969 172.043 334.527 172.043 334.255 172.315L332.401 174.168C332.129 174.441 332.129 174.883 332.401 175.155C332.674 175.428 333.116 175.428 333.388 175.155L335.241 173.302Z" fill="#252A2E"/>
<path d="M331.535 177.008C331.807 176.736 331.807 176.294 331.535 176.022C331.262 175.749 330.82 175.749 330.548 176.022L329.621 176.949C329.349 177.221 329.349 177.663 329.621 177.935C329.894 178.208 330.335 178.208 330.608 177.935L331.535 177.008Z" fill="#252A2E"/>
<path d="M344.392 177.935C344.665 178.208 345.106 178.208 345.379 177.935C345.651 177.663 345.651 177.221 345.379 176.949L344.452 176.022C344.18 175.749 343.738 175.749 343.465 176.022C343.193 176.294 343.193 176.736 343.465 177.008L344.392 177.935Z" fill="#252A2E"/>
<path d="M341.612 175.155C341.884 175.428 342.326 175.428 342.599 175.155C342.871 174.883 342.871 174.441 342.599 174.168L340.745 172.315C340.473 172.043 340.031 172.043 339.759 172.315C339.486 172.587 339.486 173.029 339.759 173.302L341.612 175.155Z" fill="#252A2E"/>
<path d="M334.198 167.741C334.471 168.014 334.913 168.014 335.185 167.741C335.457 167.469 335.457 167.027 335.185 166.755L333.332 164.901C333.059 164.629 332.617 164.629 332.345 164.901C332.072 165.174 332.072 165.616 332.345 165.888L334.198 167.741Z" fill="#252A2E"/>
<path d="M330.492 164.035C330.764 164.307 331.206 164.307 331.478 164.035C331.751 163.762 331.751 163.32 331.478 163.048L330.551 162.121C330.279 161.849 329.837 161.849 329.565 162.121C329.292 162.394 329.292 162.835 329.565 163.108L330.492 164.035Z" fill="#252A2E"/>
<path d="M334.761 165.246C335.038 165.162 335.333 165.116 335.64 165.116H336.337C336.723 165.116 337.035 164.804 337.035 164.419C337.035 164.033 336.723 163.721 336.337 163.721H335.64C335.194 163.721 334.764 163.787 334.357 163.91C333.988 164.022 333.78 164.411 333.891 164.78C334.003 165.149 334.393 165.357 334.761 165.246Z" fill="#252A2E"/>
<path d="M338.663 163.721C338.277 163.721 337.965 164.033 337.965 164.419C337.965 164.804 338.277 165.116 338.663 165.116H339.36C339.667 165.116 339.962 165.162 340.239 165.246C340.607 165.357 340.997 165.149 341.109 164.78C341.22 164.411 341.012 164.022 340.643 163.91C340.236 163.787 339.806 163.721 339.36 163.721H338.663Z" fill="#252A2E"/>
<path d="M332.746 167.261C332.857 166.893 332.649 166.503 332.28 166.391C331.911 166.28 331.522 166.488 331.41 166.857C331.287 167.264 331.221 167.694 331.221 168.14V168.837C331.221 169.223 331.533 169.535 331.919 169.535C332.304 169.535 332.616 169.223 332.616 168.837V168.14C332.616 167.833 332.662 167.538 332.746 167.261Z" fill="#252A2E"/>
<path d="M343.59 166.857C343.478 166.488 343.089 166.28 342.72 166.391C342.351 166.503 342.143 166.893 342.254 167.261C342.338 167.538 342.384 167.833 342.384 168.14V168.837C342.384 169.223 342.696 169.535 343.081 169.535C343.467 169.535 343.779 169.223 343.779 168.837V168.14C343.779 167.694 343.713 167.264 343.59 166.857Z" fill="#252A2E"/>
<path d="M332.616 171.163C332.616 170.777 332.304 170.465 331.919 170.465C331.533 170.465 331.221 170.777 331.221 171.163V171.86C331.221 172.306 331.287 172.736 331.41 173.143C331.522 173.512 331.911 173.72 332.28 173.609C332.649 173.497 332.857 173.107 332.746 172.739C332.662 172.462 332.616 172.167 332.616 171.86V171.163Z" fill="#252A2E"/>
<path d="M343.779 171.163C343.779 170.777 343.467 170.465 343.081 170.465C342.696 170.465 342.384 170.777 342.384 171.163V171.86C342.384 172.167 342.338 172.462 342.254 172.739C342.143 173.107 342.351 173.497 342.72 173.609C343.089 173.72 343.478 173.512 343.59 173.143C343.713 172.736 343.779 172.306 343.779 171.86V171.163Z" fill="#252A2E"/>
<path d="M334.761 174.754C334.393 174.643 334.003 174.851 333.891 175.22C333.78 175.589 333.988 175.978 334.357 176.09C334.764 176.213 335.194 176.279 335.64 176.279H336.337C336.723 176.279 337.035 175.967 337.035 175.581C337.035 175.196 336.723 174.884 336.337 174.884H335.64C335.333 174.884 335.038 174.838 334.761 174.754Z" fill="#252A2E"/>
<path d="M340.643 176.09C341.012 175.978 341.22 175.589 341.109 175.22C340.997 174.851 340.607 174.643 340.239 174.754C339.962 174.838 339.667 174.884 339.36 174.884H338.663C338.277 174.884 337.965 175.196 337.965 175.581C337.965 175.967 338.277 176.279 338.663 176.279H339.36C339.806 176.279 340.236 176.213 340.643 176.09Z" fill="#252A2E"/>
<path d="M361.95 175H360.788V166.038H357.623V165.006H365.115V166.038H361.95V175ZM371.832 175V170.153C371.832 169.543 371.693 169.087 371.415 168.786C371.137 168.485 370.702 168.335 370.109 168.335C369.321 168.335 368.744 168.549 368.38 168.978C368.02 169.406 367.84 170.108 367.84 171.083V175H366.705V164.363H367.84V167.583C367.84 167.97 367.822 168.292 367.785 168.547H367.854C368.077 168.187 368.394 167.904 368.804 167.699C369.218 167.49 369.69 167.385 370.219 167.385C371.135 167.385 371.821 167.604 372.276 168.041C372.737 168.474 372.967 169.164 372.967 170.112V175H371.832ZM376.689 175H375.555V167.508H376.689V175ZM375.459 165.478C375.459 165.218 375.523 165.029 375.65 164.91C375.778 164.787 375.938 164.726 376.129 164.726C376.311 164.726 376.468 164.787 376.601 164.91C376.733 165.033 376.799 165.222 376.799 165.478C376.799 165.733 376.733 165.924 376.601 166.052C376.468 166.175 376.311 166.236 376.129 166.236C375.938 166.236 375.778 166.175 375.65 166.052C375.523 165.924 375.459 165.733 375.459 165.478ZM384.179 172.956C384.179 173.653 383.919 174.191 383.399 174.569C382.88 174.948 382.151 175.137 381.212 175.137C380.218 175.137 379.444 174.979 378.888 174.665V173.612C379.248 173.795 379.633 173.938 380.043 174.043C380.458 174.148 380.856 174.2 381.239 174.2C381.832 174.2 382.287 174.107 382.606 173.92C382.925 173.729 383.085 173.439 383.085 173.052C383.085 172.76 382.957 172.512 382.702 172.307C382.451 172.097 381.959 171.851 381.226 171.568C380.528 171.309 380.032 171.083 379.735 170.892C379.444 170.696 379.225 170.475 379.079 170.229C378.938 169.982 378.867 169.688 378.867 169.347C378.867 168.736 379.116 168.255 379.612 167.904C380.109 167.549 380.79 167.371 381.656 167.371C382.463 167.371 383.251 167.535 384.021 167.863L383.618 168.786C382.866 168.476 382.185 168.321 381.574 168.321C381.036 168.321 380.631 168.406 380.357 168.574C380.084 168.743 379.947 168.975 379.947 169.271C379.947 169.472 379.997 169.643 380.098 169.784C380.202 169.925 380.369 170.06 380.597 170.188C380.825 170.315 381.262 170.5 381.909 170.741C382.798 171.065 383.397 171.391 383.707 171.719C384.021 172.047 384.179 172.459 384.179 172.956ZM391.303 175H390.168V167.508H391.303V175ZM390.072 165.478C390.072 165.218 390.136 165.029 390.264 164.91C390.391 164.787 390.551 164.726 390.742 164.726C390.924 164.726 391.082 164.787 391.214 164.91C391.346 165.033 391.412 165.222 391.412 165.478C391.412 165.733 391.346 165.924 391.214 166.052C391.082 166.175 390.924 166.236 390.742 166.236C390.551 166.236 390.391 166.175 390.264 166.052C390.136 165.924 390.072 165.733 390.072 165.478ZM398.792 172.956C398.792 173.653 398.532 174.191 398.013 174.569C397.493 174.948 396.764 175.137 395.825 175.137C394.832 175.137 394.057 174.979 393.501 174.665V173.612C393.861 173.795 394.246 173.938 394.656 174.043C395.071 174.148 395.47 174.2 395.853 174.2C396.445 174.2 396.901 174.107 397.22 173.92C397.539 173.729 397.698 173.439 397.698 173.052C397.698 172.76 397.571 172.512 397.315 172.307C397.065 172.097 396.573 171.851 395.839 171.568C395.142 171.309 394.645 171.083 394.349 170.892C394.057 170.696 393.838 170.475 393.692 170.229C393.551 169.982 393.48 169.688 393.48 169.347C393.48 168.736 393.729 168.255 394.226 167.904C394.722 167.549 395.404 167.371 396.27 167.371C397.076 167.371 397.865 167.535 398.635 167.863L398.231 168.786C397.479 168.476 396.798 168.321 396.188 168.321C395.65 168.321 395.244 168.406 394.971 168.574C394.697 168.743 394.561 168.975 394.561 169.271C394.561 169.472 394.611 169.643 394.711 169.784C394.816 169.925 394.982 170.06 395.21 170.188C395.438 170.315 395.875 170.5 396.522 170.741C397.411 171.065 398.01 171.391 398.32 171.719C398.635 172.047 398.792 172.459 398.792 172.956ZM409.389 175L409.163 173.934H409.108C408.735 174.403 408.361 174.722 407.987 174.891C407.618 175.055 407.156 175.137 406.6 175.137C405.857 175.137 405.273 174.945 404.85 174.562C404.43 174.18 404.221 173.635 404.221 172.929C404.221 171.416 405.431 170.623 407.851 170.55L409.122 170.509V170.044C409.122 169.456 408.994 169.023 408.739 168.745C408.489 168.463 408.085 168.321 407.529 168.321C406.905 168.321 406.199 168.513 405.41 168.896L405.062 168.027C405.431 167.827 405.834 167.67 406.271 167.556C406.714 167.442 407.156 167.385 407.598 167.385C408.491 167.385 409.152 167.583 409.58 167.979C410.013 168.376 410.229 169.012 410.229 169.887V175H409.389ZM406.825 174.2C407.532 174.2 408.085 174.007 408.486 173.619C408.892 173.232 409.095 172.689 409.095 171.992V171.315L407.96 171.363C407.058 171.395 406.406 171.536 406.005 171.787C405.608 172.033 405.41 172.418 405.41 172.942C405.41 173.353 405.533 173.665 405.779 173.879C406.03 174.093 406.379 174.2 406.825 174.2ZM421.544 172.956C421.544 173.653 421.284 174.191 420.765 174.569C420.245 174.948 419.516 175.137 418.577 175.137C417.584 175.137 416.809 174.979 416.253 174.665V173.612C416.613 173.795 416.998 173.938 417.408 174.043C417.823 174.148 418.222 174.2 418.604 174.2C419.197 174.2 419.653 174.107 419.972 173.92C420.291 173.729 420.45 173.439 420.45 173.052C420.45 172.76 420.323 172.512 420.067 172.307C419.817 172.097 419.325 171.851 418.591 171.568C417.894 171.309 417.397 171.083 417.101 170.892C416.809 170.696 416.59 170.475 416.444 170.229C416.303 169.982 416.232 169.688 416.232 169.347C416.232 168.736 416.481 168.255 416.978 167.904C417.474 167.549 418.156 167.371 419.021 167.371C419.828 167.371 420.617 167.535 421.387 167.863L420.983 168.786C420.231 168.476 419.55 168.321 418.939 168.321C418.402 168.321 417.996 168.406 417.723 168.574C417.449 168.743 417.312 168.975 417.312 169.271C417.312 169.472 417.363 169.643 417.463 169.784C417.568 169.925 417.734 170.06 417.962 170.188C418.19 170.315 418.627 170.5 419.274 170.741C420.163 171.065 420.762 171.391 421.072 171.719C421.387 172.047 421.544 172.459 421.544 172.956ZM426.812 175.137C425.704 175.137 424.829 174.799 424.187 174.125C423.549 173.451 423.229 172.514 423.229 171.315C423.229 170.108 423.526 169.148 424.118 168.438C424.715 167.727 425.515 167.371 426.518 167.371C427.456 167.371 428.199 167.681 428.746 168.301C429.293 168.916 429.566 169.729 429.566 170.741V171.459H424.405C424.428 172.339 424.649 173.006 425.068 173.462C425.492 173.918 426.087 174.146 426.853 174.146C427.659 174.146 428.457 173.977 429.245 173.64V174.651C428.844 174.825 428.464 174.948 428.104 175.021C427.748 175.098 427.317 175.137 426.812 175.137ZM426.504 168.321C425.902 168.321 425.422 168.517 425.062 168.909C424.706 169.301 424.496 169.843 424.433 170.536H428.35C428.35 169.821 428.19 169.274 427.871 168.896C427.552 168.513 427.096 168.321 426.504 168.321ZM434.752 175.137C433.667 175.137 432.826 174.804 432.229 174.139C431.637 173.469 431.341 172.523 431.341 171.302C431.341 170.049 431.642 169.08 432.243 168.396C432.849 167.713 433.711 167.371 434.827 167.371C435.187 167.371 435.547 167.41 435.907 167.487C436.267 167.565 436.55 167.656 436.755 167.761L436.406 168.725C436.156 168.624 435.882 168.542 435.586 168.479C435.29 168.41 435.028 168.376 434.8 168.376C433.278 168.376 432.517 169.347 432.517 171.288C432.517 172.209 432.701 172.915 433.07 173.407C433.444 173.899 433.995 174.146 434.725 174.146C435.349 174.146 435.989 174.011 436.646 173.742V174.747C436.144 175.007 435.513 175.137 434.752 175.137ZM445.146 171.247C445.146 172.468 444.839 173.423 444.224 174.111C443.608 174.795 442.758 175.137 441.674 175.137C441.004 175.137 440.409 174.979 439.89 174.665C439.37 174.351 438.969 173.899 438.687 173.312C438.404 172.724 438.263 172.035 438.263 171.247C438.263 170.026 438.568 169.076 439.179 168.396C439.789 167.713 440.637 167.371 441.722 167.371C442.77 167.371 443.602 167.72 444.217 168.417C444.837 169.114 445.146 170.058 445.146 171.247ZM439.438 171.247C439.438 172.204 439.63 172.933 440.013 173.435C440.396 173.936 440.958 174.187 441.701 174.187C442.444 174.187 443.007 173.938 443.39 173.441C443.777 172.94 443.971 172.209 443.971 171.247C443.971 170.295 443.777 169.572 443.39 169.08C443.007 168.583 442.439 168.335 441.688 168.335C440.945 168.335 440.384 168.579 440.006 169.066C439.628 169.554 439.438 170.281 439.438 171.247ZM452.52 175V170.153C452.52 169.543 452.381 169.087 452.103 168.786C451.825 168.485 451.389 168.335 450.797 168.335C450.013 168.335 449.439 168.547 449.074 168.971C448.71 169.395 448.527 170.094 448.527 171.069V175H447.393V167.508H448.315L448.5 168.533H448.555C448.787 168.164 449.113 167.879 449.532 167.679C449.951 167.474 450.419 167.371 450.934 167.371C451.836 167.371 452.515 167.59 452.971 168.027C453.426 168.46 453.654 169.155 453.654 170.112V175H452.52ZM461.342 173.995H461.28C460.756 174.756 459.972 175.137 458.929 175.137C457.949 175.137 457.186 174.802 456.639 174.132C456.096 173.462 455.825 172.509 455.825 171.274C455.825 170.039 456.099 169.08 456.646 168.396C457.192 167.713 457.953 167.371 458.929 167.371C459.945 167.371 460.724 167.74 461.267 168.479H461.355L461.308 167.938L461.28 167.412V164.363H462.415V175H461.492L461.342 173.995ZM459.072 174.187C459.847 174.187 460.408 173.977 460.754 173.558C461.105 173.134 461.28 172.452 461.28 171.514V171.274C461.28 170.213 461.103 169.456 460.747 169.005C460.396 168.549 459.833 168.321 459.059 168.321C458.393 168.321 457.883 168.581 457.527 169.101C457.176 169.616 457.001 170.345 457.001 171.288C457.001 172.245 457.176 172.967 457.527 173.455C457.878 173.943 458.393 174.187 459.072 174.187ZM469.686 175L469.46 173.934H469.405C469.032 174.403 468.658 174.722 468.284 174.891C467.915 175.055 467.452 175.137 466.896 175.137C466.154 175.137 465.57 174.945 465.146 174.562C464.727 174.18 464.518 173.635 464.518 172.929C464.518 171.416 465.728 170.623 468.147 170.55L469.419 170.509V170.044C469.419 169.456 469.291 169.023 469.036 168.745C468.785 168.463 468.382 168.321 467.826 168.321C467.202 168.321 466.495 168.513 465.707 168.896L465.358 168.027C465.728 167.827 466.131 167.67 466.568 167.556C467.01 167.442 467.452 167.385 467.895 167.385C468.788 167.385 469.449 167.583 469.877 167.979C470.31 168.376 470.526 169.012 470.526 169.887V175H469.686ZM467.122 174.2C467.828 174.2 468.382 174.007 468.783 173.619C469.189 173.232 469.392 172.689 469.392 171.992V171.315L468.257 171.363C467.354 171.395 466.703 171.536 466.302 171.787C465.905 172.033 465.707 172.418 465.707 172.942C465.707 173.353 465.83 173.665 466.076 173.879C466.327 174.093 466.675 174.2 467.122 174.2ZM476.539 167.371C476.872 167.371 477.17 167.398 477.435 167.453L477.277 168.506C476.967 168.438 476.694 168.403 476.457 168.403C475.851 168.403 475.331 168.649 474.898 169.142C474.47 169.634 474.256 170.247 474.256 170.98V175H473.121V167.508H474.058L474.188 168.896H474.242C474.52 168.408 474.855 168.032 475.247 167.768C475.639 167.503 476.07 167.371 476.539 167.371ZM477.896 167.508H479.113L480.754 171.78C481.114 172.756 481.337 173.46 481.424 173.893H481.479C481.538 173.66 481.661 173.264 481.848 172.703C482.039 172.138 482.659 170.406 483.707 167.508H484.924L481.704 176.039C481.385 176.882 481.011 177.479 480.583 177.83C480.159 178.186 479.637 178.363 479.018 178.363C478.671 178.363 478.329 178.325 477.992 178.247V177.338C478.243 177.393 478.523 177.42 478.833 177.42C479.612 177.42 480.168 176.982 480.501 176.107L480.918 175.041L477.896 167.508ZM499.827 175V170.126C499.827 169.529 499.7 169.082 499.444 168.786C499.189 168.485 498.793 168.335 498.255 168.335C497.549 168.335 497.027 168.538 496.689 168.943C496.352 169.349 496.184 169.973 496.184 170.816V175H495.049V170.126C495.049 169.529 494.921 169.082 494.666 168.786C494.411 168.485 494.012 168.335 493.47 168.335C492.759 168.335 492.237 168.549 491.904 168.978C491.576 169.401 491.412 170.099 491.412 171.069V175H490.277V167.508H491.2L491.385 168.533H491.439C491.654 168.169 491.954 167.884 492.342 167.679C492.734 167.474 493.171 167.371 493.654 167.371C494.826 167.371 495.591 167.795 495.951 168.643H496.006C496.229 168.251 496.553 167.941 496.977 167.713C497.4 167.485 497.883 167.371 498.426 167.371C499.273 167.371 499.907 167.59 500.326 168.027C500.75 168.46 500.962 169.155 500.962 170.112V175H499.827ZM506.722 175.137C505.614 175.137 504.739 174.799 504.097 174.125C503.459 173.451 503.14 172.514 503.14 171.315C503.14 170.108 503.436 169.148 504.028 168.438C504.625 167.727 505.425 167.371 506.428 167.371C507.367 167.371 508.109 167.681 508.656 168.301C509.203 168.916 509.477 169.729 509.477 170.741V171.459H504.315C504.338 172.339 504.559 173.006 504.979 173.462C505.402 173.918 505.997 174.146 506.763 174.146C507.569 174.146 508.367 173.977 509.155 173.64V174.651C508.754 174.825 508.374 174.948 508.014 175.021C507.658 175.098 507.228 175.137 506.722 175.137ZM506.414 168.321C505.812 168.321 505.332 168.517 504.972 168.909C504.616 169.301 504.407 169.843 504.343 170.536H508.26C508.26 169.821 508.1 169.274 507.781 168.896C507.462 168.513 507.007 168.321 506.414 168.321ZM516.501 172.956C516.501 173.653 516.241 174.191 515.722 174.569C515.202 174.948 514.473 175.137 513.534 175.137C512.541 175.137 511.766 174.979 511.21 174.665V173.612C511.57 173.795 511.955 173.938 512.365 174.043C512.78 174.148 513.179 174.2 513.562 174.2C514.154 174.2 514.61 174.107 514.929 173.92C515.248 173.729 515.407 173.439 515.407 173.052C515.407 172.76 515.28 172.512 515.024 172.307C514.774 172.097 514.282 171.851 513.548 171.568C512.851 171.309 512.354 171.083 512.058 170.892C511.766 170.696 511.547 170.475 511.401 170.229C511.26 169.982 511.189 169.688 511.189 169.347C511.189 168.736 511.438 168.255 511.935 167.904C512.431 167.549 513.113 167.371 513.979 167.371C514.785 167.371 515.574 167.535 516.344 167.863L515.94 168.786C515.188 168.476 514.507 168.321 513.896 168.321C513.359 168.321 512.953 168.406 512.68 168.574C512.406 168.743 512.27 168.975 512.27 169.271C512.27 169.472 512.32 169.643 512.42 169.784C512.525 169.925 512.691 170.06 512.919 170.188C513.147 170.315 513.584 170.5 514.231 170.741C515.12 171.065 515.719 171.391 516.029 171.719C516.344 172.047 516.501 172.459 516.501 172.956ZM523.437 172.956C523.437 173.653 523.177 174.191 522.657 174.569C522.138 174.948 521.409 175.137 520.47 175.137C519.476 175.137 518.701 174.979 518.146 174.665V173.612C518.506 173.795 518.891 173.938 519.301 174.043C519.715 174.148 520.114 174.2 520.497 174.2C521.09 174.2 521.545 174.107 521.864 173.92C522.183 173.729 522.343 173.439 522.343 173.052C522.343 172.76 522.215 172.512 521.96 172.307C521.709 172.097 521.217 171.851 520.483 171.568C519.786 171.309 519.289 171.083 518.993 170.892C518.701 170.696 518.483 170.475 518.337 170.229C518.196 169.982 518.125 169.688 518.125 169.347C518.125 168.736 518.373 168.255 518.87 167.904C519.367 167.549 520.048 167.371 520.914 167.371C521.721 167.371 522.509 167.535 523.279 167.863L522.876 168.786C522.124 168.476 521.443 168.321 520.832 168.321C520.294 168.321 519.889 168.406 519.615 168.574C519.342 168.743 519.205 168.975 519.205 169.271C519.205 169.472 519.255 169.643 519.355 169.784C519.46 169.925 519.627 170.06 519.854 170.188C520.082 170.315 520.52 170.5 521.167 170.741C522.056 171.065 522.655 171.391 522.965 171.719C523.279 172.047 523.437 172.459 523.437 172.956ZM530.146 175L529.921 173.934H529.866C529.493 174.403 529.119 174.722 528.745 174.891C528.376 175.055 527.913 175.137 527.357 175.137C526.615 175.137 526.031 174.945 525.607 174.562C525.188 174.18 524.979 173.635 524.979 172.929C524.979 171.416 526.188 170.623 528.608 170.55L529.88 170.509V170.044C529.88 169.456 529.752 169.023 529.497 168.745C529.246 168.463 528.843 168.321 528.287 168.321C527.663 168.321 526.956 168.513 526.168 168.896L525.819 168.027C526.188 167.827 526.592 167.67 527.029 167.556C527.471 167.442 527.913 167.385 528.355 167.385C529.249 167.385 529.91 167.583 530.338 167.979C530.771 168.376 530.987 169.012 530.987 169.887V175H530.146ZM527.583 174.2C528.289 174.2 528.843 174.007 529.244 173.619C529.65 173.232 529.853 172.689 529.853 171.992V171.315L528.718 171.363C527.815 171.395 527.164 171.536 526.763 171.787C526.366 172.033 526.168 172.418 526.168 172.942C526.168 173.353 526.291 173.665 526.537 173.879C526.788 174.093 527.136 174.2 527.583 174.2ZM539.714 167.508V168.226L538.326 168.39C538.454 168.549 538.568 168.759 538.668 169.019C538.768 169.274 538.818 169.563 538.818 169.887C538.818 170.62 538.568 171.206 538.066 171.644C537.565 172.081 536.877 172.3 536.002 172.3C535.779 172.3 535.569 172.282 535.373 172.245C534.89 172.5 534.648 172.822 534.648 173.209C534.648 173.414 534.733 173.567 534.901 173.667C535.07 173.763 535.359 173.811 535.77 173.811H537.096C537.907 173.811 538.529 173.981 538.962 174.323C539.399 174.665 539.618 175.162 539.618 175.813C539.618 176.643 539.285 177.274 538.62 177.707C537.955 178.145 536.984 178.363 535.708 178.363C534.728 178.363 533.972 178.181 533.438 177.816C532.91 177.452 532.646 176.937 532.646 176.271C532.646 175.816 532.791 175.422 533.083 175.089C533.375 174.756 533.785 174.531 534.313 174.412C534.122 174.326 533.96 174.191 533.828 174.009C533.701 173.826 533.637 173.615 533.637 173.373C533.637 173.1 533.71 172.86 533.855 172.655C534.001 172.45 534.231 172.252 534.546 172.061C534.159 171.901 533.842 171.63 533.596 171.247C533.354 170.864 533.233 170.427 533.233 169.935C533.233 169.114 533.479 168.483 533.972 168.041C534.464 167.594 535.161 167.371 536.063 167.371C536.455 167.371 536.809 167.417 537.123 167.508H539.714ZM533.739 176.258C533.739 176.663 533.91 176.971 534.252 177.181C534.594 177.39 535.084 177.495 535.722 177.495C536.674 177.495 537.378 177.352 537.834 177.064C538.294 176.782 538.524 176.397 538.524 175.909C538.524 175.504 538.399 175.221 538.148 175.062C537.898 174.907 537.426 174.829 536.733 174.829H535.373C534.858 174.829 534.457 174.952 534.17 175.198C533.883 175.444 533.739 175.798 533.739 176.258ZM534.354 169.907C534.354 170.431 534.503 170.828 534.799 171.097C535.095 171.366 535.507 171.5 536.036 171.5C537.144 171.5 537.697 170.962 537.697 169.887C537.697 168.761 537.137 168.198 536.016 168.198C535.482 168.198 535.072 168.342 534.785 168.629C534.498 168.916 534.354 169.342 534.354 169.907ZM544.667 175.137C543.56 175.137 542.685 174.799 542.042 174.125C541.404 173.451 541.085 172.514 541.085 171.315C541.085 170.108 541.381 169.148 541.974 168.438C542.571 167.727 543.37 167.371 544.373 167.371C545.312 167.371 546.055 167.681 546.602 168.301C547.148 168.916 547.422 169.729 547.422 170.741V171.459H542.261C542.284 172.339 542.505 173.006 542.924 173.462C543.348 173.918 543.942 174.146 544.708 174.146C545.515 174.146 546.312 173.977 547.101 173.64V174.651C546.7 174.825 546.319 174.948 545.959 175.021C545.604 175.098 545.173 175.137 544.667 175.137ZM544.359 168.321C543.758 168.321 543.277 168.517 542.917 168.909C542.562 169.301 542.352 169.843 542.288 170.536H546.205C546.205 169.821 546.046 169.274 545.727 168.896C545.408 168.513 544.952 168.321 544.359 168.321ZM549.449 174.275C549.449 173.97 549.518 173.74 549.654 173.585C549.796 173.425 549.996 173.346 550.256 173.346C550.52 173.346 550.725 173.425 550.871 173.585C551.021 173.74 551.097 173.97 551.097 174.275C551.097 174.572 551.021 174.799 550.871 174.959C550.721 175.118 550.516 175.198 550.256 175.198C550.023 175.198 549.83 175.128 549.675 174.986C549.524 174.84 549.449 174.604 549.449 174.275Z" fill="#252A2E"/>
<rect x="560.5" y="154" width="75" height="32" rx="4" fill="#353A40"/>
<path d="M577.855 166.434H580.521C581.736 166.434 582.617 166.607 583.164 166.955C583.715 167.299 583.99 167.848 583.99 168.602C583.99 169.113 583.869 169.533 583.627 169.861C583.389 170.189 583.07 170.387 582.672 170.453V170.512C583.215 170.633 583.605 170.859 583.844 171.191C584.086 171.523 584.207 171.965 584.207 172.516C584.207 173.297 583.924 173.906 583.357 174.344C582.795 174.781 582.029 175 581.061 175H577.855V166.434ZM579.672 169.826H580.727C581.219 169.826 581.574 169.75 581.793 169.598C582.016 169.445 582.127 169.193 582.127 168.842C582.127 168.514 582.006 168.279 581.764 168.139C581.525 167.994 581.146 167.922 580.627 167.922H579.672V169.826ZM579.672 171.268V173.5H580.855C581.355 173.5 581.725 173.404 581.963 173.213C582.201 173.021 582.32 172.729 582.32 172.334C582.32 171.623 581.812 171.268 580.797 171.268H579.672ZM590.568 175L590.328 174.162H590.234C590.043 174.467 589.771 174.703 589.42 174.871C589.068 175.035 588.668 175.117 588.218 175.117C587.449 175.117 586.869 174.912 586.478 174.502C586.087 174.088 585.892 173.494 585.892 172.721V168.449H587.679V172.275C587.679 172.748 587.763 173.104 587.931 173.342C588.099 173.576 588.367 173.693 588.734 173.693C589.234 173.693 589.595 173.527 589.818 173.195C590.041 172.859 590.152 172.305 590.152 171.531V168.449H591.939V175H590.568ZM596.724 173.693C597.036 173.693 597.411 173.625 597.849 173.488V174.818C597.404 175.018 596.857 175.117 596.208 175.117C595.493 175.117 594.972 174.938 594.644 174.578C594.32 174.215 594.157 173.672 594.157 172.949V169.791H593.302V169.035L594.286 168.438L594.802 167.055H595.945V168.449H597.779V169.791H595.945V172.949C595.945 173.203 596.015 173.391 596.155 173.512C596.3 173.633 596.489 173.693 596.724 173.693ZM602.089 173.693C602.401 173.693 602.776 173.625 603.214 173.488V174.818C602.768 175.018 602.221 175.117 601.573 175.117C600.858 175.117 600.337 174.938 600.009 174.578C599.684 174.215 599.522 173.672 599.522 172.949V169.791H598.667V169.035L599.651 168.438L600.167 167.055H601.309V168.449H603.143V169.791H601.309V172.949C601.309 173.203 601.38 173.391 601.52 173.512C601.665 173.633 601.854 173.693 602.089 173.693ZM606.118 171.713C606.118 172.361 606.223 172.852 606.434 173.184C606.649 173.516 606.996 173.682 607.477 173.682C607.954 173.682 608.295 173.518 608.502 173.189C608.713 172.857 608.819 172.365 608.819 171.713C608.819 171.064 608.713 170.578 608.502 170.254C608.291 169.93 607.946 169.768 607.465 169.768C606.989 169.768 606.645 169.93 606.434 170.254C606.223 170.574 606.118 171.061 606.118 171.713ZM610.647 171.713C610.647 172.779 610.366 173.613 609.803 174.215C609.241 174.816 608.457 175.117 607.454 175.117C606.825 175.117 606.27 174.98 605.789 174.707C605.309 174.43 604.94 174.033 604.682 173.518C604.424 173.002 604.295 172.4 604.295 171.713C604.295 170.643 604.575 169.811 605.133 169.217C605.692 168.623 606.477 168.326 607.489 168.326C608.118 168.326 608.672 168.463 609.153 168.736C609.633 169.01 610.002 169.402 610.26 169.914C610.518 170.426 610.647 171.025 610.647 171.713ZM618.32 175H616.533V171.174C616.533 170.701 616.449 170.348 616.281 170.113C616.113 169.875 615.846 169.756 615.479 169.756C614.979 169.756 614.617 169.924 614.395 170.26C614.172 170.592 614.061 171.145 614.061 171.918V175H612.273V168.449H613.639L613.879 169.287H613.979C614.178 168.971 614.451 168.732 614.799 168.572C615.15 168.408 615.549 168.326 615.994 168.326C616.756 168.326 617.334 168.533 617.729 168.947C618.123 169.357 618.32 169.951 618.32 170.729V175Z" fill="white"/>
<rect x="310" y="150.5" width="341" height="39" rx="3.5" stroke="#353A40"/>
</svg>
