<svg width="961" height="260" viewBox="0 0 961 260" fill="none" xmlns="http://www.w3.org/2000/svg">
<rect width="961" height="260" fill="#F1F1F6"/>
<rect x="328.5" y="24.5" width="304" height="39" rx="3.5" fill="#DCEDF9"/>
<g clip-path="url(#clip0_431_73406)">
<path d="M345.9 43.9999C345.9 45.3919 346.162 46.7703 346.669 48.0563C347.177 49.3424 347.921 50.5109 348.859 51.4952C349.796 52.4795 350.91 53.2603 352.135 53.793C353.361 54.3257 354.674 54.5999 356 54.5999C357.327 54.5999 358.64 54.3257 359.865 53.793C361.091 53.2603 362.204 52.4795 363.142 51.4952C364.08 50.5109 364.824 49.3424 365.332 48.0563C365.839 46.7703 366.1 45.3919 366.1 43.9999C366.1 42.6079 365.839 41.2295 365.332 39.9435C364.824 38.6574 364.08 37.4889 363.142 36.5046C362.204 35.5203 361.091 34.7395 359.865 34.2068C358.64 33.6741 357.327 33.3999 356 33.3999C354.674 33.3999 353.361 33.6741 352.135 34.2068C350.91 34.7395 349.796 35.5203 348.859 36.5046C347.921 37.4889 347.177 38.6574 346.669 39.9435C346.162 41.2295 345.9 42.6079 345.9 43.9999V43.9999Z" fill="#019AEB"/>
<path d="M356 34.3001C361.35 34.3001 365.7 38.6501 365.7 44.0001C365.7 49.3501 361.35 53.7001 356 53.7001C350.65 53.7001 346.3 49.3501 346.3 44.0001C346.3 38.6501 350.65 34.3001 356 34.3001ZM356 32.6001C349.7 32.6001 344.6 37.7001 344.6 44.0001C344.6 50.3001 349.7 55.4001 356 55.4001C362.3 55.4001 367.4 50.3001 367.4 44.0001C367.4 37.7001 362.3 32.6001 356 32.6001Z" fill="#0E416C"/>
<path d="M357.1 47.35H357.9V48.85H354.1V47.35H355.25V43.85H354.1V42.3H357.1V47.35V47.35ZM355.15 41.35H357.1V39.15H355.15V41.35Z" fill="white"/>
</g>
<path d="M379.814 49H378.818V41.3184H376.105V40.4336H382.527V41.3184H379.814V49ZM388.57 49V44.8457C388.57 44.3223 388.451 43.9316 388.213 43.6738C387.975 43.416 387.602 43.2871 387.094 43.2871C386.418 43.2871 385.924 43.4707 385.611 43.8379C385.303 44.2051 385.148 44.8066 385.148 45.6426V49H384.176V39.8828H385.148V42.6426C385.148 42.9746 385.133 43.25 385.102 43.4688H385.16C385.352 43.1602 385.623 42.918 385.975 42.7422C386.33 42.5625 386.734 42.4727 387.188 42.4727C387.973 42.4727 388.561 42.6602 388.951 43.0352C389.346 43.4062 389.543 43.998 389.543 44.8105V49H388.57ZM393.02 49H392.047V42.5781H393.02V49ZM391.965 40.8379C391.965 40.6152 392.02 40.4531 392.129 40.3516C392.238 40.2461 392.375 40.1934 392.539 40.1934C392.695 40.1934 392.83 40.2461 392.943 40.3516C393.057 40.457 393.113 40.6191 393.113 40.8379C393.113 41.0566 393.057 41.2207 392.943 41.3301C392.83 41.4355 392.695 41.4883 392.539 41.4883C392.375 41.4883 392.238 41.4355 392.129 41.3301C392.02 41.2207 391.965 41.0566 391.965 40.8379ZM399.725 47.248C399.725 47.8457 399.502 48.3066 399.057 48.6309C398.611 48.9551 397.986 49.1172 397.182 49.1172C396.33 49.1172 395.666 48.9824 395.189 48.7129V47.8105C395.498 47.9668 395.828 48.0898 396.18 48.1797C396.535 48.2695 396.877 48.3145 397.205 48.3145C397.713 48.3145 398.104 48.2344 398.377 48.0742C398.65 47.9102 398.787 47.6621 398.787 47.3301C398.787 47.0801 398.678 46.8672 398.459 46.6914C398.244 46.5117 397.822 46.3008 397.193 46.0586C396.596 45.8359 396.17 45.6426 395.916 45.4785C395.666 45.3105 395.479 45.1211 395.354 44.9102C395.232 44.6992 395.172 44.4473 395.172 44.1543C395.172 43.6309 395.385 43.2188 395.811 42.918C396.236 42.6133 396.82 42.4609 397.562 42.4609C398.254 42.4609 398.93 42.6016 399.59 42.8828L399.244 43.6738C398.6 43.4082 398.016 43.2754 397.492 43.2754C397.031 43.2754 396.684 43.3477 396.449 43.4922C396.215 43.6367 396.098 43.8359 396.098 44.0898C396.098 44.2617 396.141 44.4082 396.227 44.5293C396.316 44.6504 396.459 44.7656 396.654 44.875C396.85 44.9844 397.225 45.1426 397.779 45.3496C398.541 45.627 399.055 45.9062 399.32 46.1875C399.59 46.4688 399.725 46.8223 399.725 47.248ZM406.402 49H405.43V42.5781H406.402V49ZM405.348 40.8379C405.348 40.6152 405.402 40.4531 405.512 40.3516C405.621 40.2461 405.758 40.1934 405.922 40.1934C406.078 40.1934 406.213 40.2461 406.326 40.3516C406.439 40.457 406.496 40.6191 406.496 40.8379C406.496 41.0566 406.439 41.2207 406.326 41.3301C406.213 41.4355 406.078 41.4883 405.922 41.4883C405.758 41.4883 405.621 41.4355 405.512 41.3301C405.402 41.2207 405.348 41.0566 405.348 40.8379ZM413.107 47.248C413.107 47.8457 412.885 48.3066 412.439 48.6309C411.994 48.9551 411.369 49.1172 410.564 49.1172C409.713 49.1172 409.049 48.9824 408.572 48.7129V47.8105C408.881 47.9668 409.211 48.0898 409.562 48.1797C409.918 48.2695 410.26 48.3145 410.588 48.3145C411.096 48.3145 411.486 48.2344 411.76 48.0742C412.033 47.9102 412.17 47.6621 412.17 47.3301C412.17 47.0801 412.061 46.8672 411.842 46.6914C411.627 46.5117 411.205 46.3008 410.576 46.0586C409.979 45.8359 409.553 45.6426 409.299 45.4785C409.049 45.3105 408.861 45.1211 408.736 44.9102C408.615 44.6992 408.555 44.4473 408.555 44.1543C408.555 43.6309 408.768 43.2188 409.193 42.918C409.619 42.6133 410.203 42.4609 410.945 42.4609C411.637 42.4609 412.312 42.6016 412.973 42.8828L412.627 43.6738C411.982 43.4082 411.398 43.2754 410.875 43.2754C410.414 43.2754 410.066 43.3477 409.832 43.4922C409.598 43.6367 409.48 43.8359 409.48 44.0898C409.48 44.2617 409.523 44.4082 409.609 44.5293C409.699 44.6504 409.842 44.7656 410.037 44.875C410.232 44.9844 410.607 45.1426 411.162 45.3496C411.924 45.627 412.438 45.9062 412.703 46.1875C412.973 46.4688 413.107 46.8223 413.107 47.248ZM422.762 49L422.568 48.0859H422.521C422.201 48.4883 421.881 48.7617 421.561 48.9062C421.244 49.0469 420.848 49.1172 420.371 49.1172C419.734 49.1172 419.234 48.9531 418.871 48.625C418.512 48.2969 418.332 47.8301 418.332 47.2246C418.332 45.9277 419.369 45.248 421.443 45.1855L422.533 45.1504V44.752C422.533 44.248 422.424 43.877 422.205 43.6387C421.99 43.3965 421.645 43.2754 421.168 43.2754C420.633 43.2754 420.027 43.4395 419.352 43.7676L419.053 43.0234C419.369 42.8516 419.715 42.7168 420.09 42.6191C420.469 42.5215 420.848 42.4727 421.227 42.4727C421.992 42.4727 422.559 42.6426 422.926 42.9824C423.297 43.3223 423.482 43.8672 423.482 44.6172V49H422.762ZM420.564 48.3145C421.17 48.3145 421.645 48.1484 421.988 47.8164C422.336 47.4844 422.51 47.0195 422.51 46.4219V45.8418L421.537 45.8828C420.764 45.9102 420.205 46.0312 419.861 46.2461C419.521 46.457 419.352 46.7871 419.352 47.2363C419.352 47.5879 419.457 47.8555 419.668 48.0391C419.883 48.2227 420.182 48.3145 420.564 48.3145ZM432.598 49.1172C432.18 49.1172 431.797 49.041 431.449 48.8887C431.105 48.7324 430.816 48.4941 430.582 48.1738H430.512C430.559 48.5488 430.582 48.9043 430.582 49.2402V51.8828H429.609V42.5781H430.4L430.535 43.457H430.582C430.832 43.1055 431.123 42.8516 431.455 42.6953C431.787 42.5391 432.168 42.4609 432.598 42.4609C433.449 42.4609 434.105 42.752 434.566 43.334C435.031 43.916 435.264 44.7324 435.264 45.7832C435.264 46.8379 435.027 47.6582 434.555 48.2441C434.086 48.8262 433.434 49.1172 432.598 49.1172ZM432.457 43.2871C431.801 43.2871 431.326 43.4688 431.033 43.832C430.74 44.1953 430.59 44.7734 430.582 45.5664V45.7832C430.582 46.6855 430.732 47.332 431.033 47.7227C431.334 48.1094 431.816 48.3027 432.48 48.3027C433.035 48.3027 433.469 48.0781 433.781 47.6289C434.098 47.1797 434.256 46.5605 434.256 45.7715C434.256 44.9707 434.098 44.3574 433.781 43.9316C433.469 43.502 433.027 43.2871 432.457 43.2871ZM440.398 42.4609C440.684 42.4609 440.939 42.4844 441.166 42.5312L441.031 43.4336C440.766 43.375 440.531 43.3457 440.328 43.3457C439.809 43.3457 439.363 43.5566 438.992 43.9785C438.625 44.4004 438.441 44.9258 438.441 45.5547V49H437.469V42.5781H438.271L438.383 43.7676H438.43C438.668 43.3496 438.955 43.0273 439.291 42.8008C439.627 42.5742 439.996 42.4609 440.398 42.4609ZM443.84 49H442.867V42.5781H443.84V49ZM442.785 40.8379C442.785 40.6152 442.84 40.4531 442.949 40.3516C443.059 40.2461 443.195 40.1934 443.359 40.1934C443.516 40.1934 443.65 40.2461 443.764 40.3516C443.877 40.457 443.934 40.6191 443.934 40.8379C443.934 41.0566 443.877 41.2207 443.764 41.3301C443.65 41.4355 443.516 41.4883 443.359 41.4883C443.195 41.4883 443.059 41.4355 442.949 41.3301C442.84 41.2207 442.785 41.0566 442.785 40.8379ZM454.588 49V44.8223C454.588 44.3105 454.479 43.9277 454.26 43.6738C454.041 43.416 453.701 43.2871 453.24 43.2871C452.635 43.2871 452.188 43.4609 451.898 43.8086C451.609 44.1562 451.465 44.6914 451.465 45.4141V49H450.492V44.8223C450.492 44.3105 450.383 43.9277 450.164 43.6738C449.945 43.416 449.604 43.2871 449.139 43.2871C448.529 43.2871 448.082 43.4707 447.797 43.8379C447.516 44.2012 447.375 44.7988 447.375 45.6309V49H446.402V42.5781H447.193L447.352 43.457H447.398C447.582 43.1445 447.84 42.9004 448.172 42.7246C448.508 42.5488 448.883 42.4609 449.297 42.4609C450.301 42.4609 450.957 42.8242 451.266 43.5508H451.312C451.504 43.2148 451.781 42.9492 452.145 42.7539C452.508 42.5586 452.922 42.4609 453.387 42.4609C454.113 42.4609 454.656 42.6484 455.016 43.0234C455.379 43.3945 455.561 43.9902 455.561 44.8105V49H454.588ZM462.02 49L461.826 48.0859H461.779C461.459 48.4883 461.139 48.7617 460.818 48.9062C460.502 49.0469 460.105 49.1172 459.629 49.1172C458.992 49.1172 458.492 48.9531 458.129 48.625C457.77 48.2969 457.59 47.8301 457.59 47.2246C457.59 45.9277 458.627 45.248 460.701 45.1855L461.791 45.1504V44.752C461.791 44.248 461.682 43.877 461.463 43.6387C461.248 43.3965 460.902 43.2754 460.426 43.2754C459.891 43.2754 459.285 43.4395 458.609 43.7676L458.311 43.0234C458.627 42.8516 458.973 42.7168 459.348 42.6191C459.727 42.5215 460.105 42.4727 460.484 42.4727C461.25 42.4727 461.816 42.6426 462.184 42.9824C462.555 43.3223 462.74 43.8672 462.74 44.6172V49H462.02ZM459.822 48.3145C460.428 48.3145 460.902 48.1484 461.246 47.8164C461.594 47.4844 461.768 47.0195 461.768 46.4219V45.8418L460.795 45.8828C460.021 45.9102 459.463 46.0312 459.119 46.2461C458.779 46.457 458.609 46.7871 458.609 47.2363C458.609 47.5879 458.715 47.8555 458.926 48.0391C459.141 48.2227 459.439 48.3145 459.822 48.3145ZM468.18 42.4609C468.465 42.4609 468.721 42.4844 468.947 42.5312L468.812 43.4336C468.547 43.375 468.312 43.3457 468.109 43.3457C467.59 43.3457 467.145 43.5566 466.773 43.9785C466.406 44.4004 466.223 44.9258 466.223 45.5547V49H465.25V42.5781H466.053L466.164 43.7676H466.211C466.449 43.3496 466.736 43.0273 467.072 42.8008C467.408 42.5742 467.777 42.4609 468.18 42.4609ZM469.629 42.5781H470.672L472.078 46.2402C472.387 47.0762 472.578 47.6797 472.652 48.0508H472.699C472.75 47.8516 472.855 47.5117 473.016 47.0312C473.18 46.5469 473.711 45.0625 474.609 42.5781H475.652L472.893 49.8906C472.619 50.6133 472.299 51.125 471.932 51.4258C471.568 51.7305 471.121 51.8828 470.59 51.8828C470.293 51.8828 470 51.8496 469.711 51.7832V51.0039C469.926 51.0508 470.166 51.0742 470.432 51.0742C471.1 51.0742 471.576 50.6992 471.861 49.9492L472.219 49.0352L469.629 42.5781ZM488.998 49V44.8223C488.998 44.3105 488.889 43.9277 488.67 43.6738C488.451 43.416 488.111 43.2871 487.65 43.2871C487.045 43.2871 486.598 43.4609 486.309 43.8086C486.02 44.1562 485.875 44.6914 485.875 45.4141V49H484.902V44.8223C484.902 44.3105 484.793 43.9277 484.574 43.6738C484.355 43.416 484.014 43.2871 483.549 43.2871C482.939 43.2871 482.492 43.4707 482.207 43.8379C481.926 44.2012 481.785 44.7988 481.785 45.6309V49H480.812V42.5781H481.604L481.762 43.457H481.809C481.992 43.1445 482.25 42.9004 482.582 42.7246C482.918 42.5488 483.293 42.4609 483.707 42.4609C484.711 42.4609 485.367 42.8242 485.676 43.5508H485.723C485.914 43.2148 486.191 42.9492 486.555 42.7539C486.918 42.5586 487.332 42.4609 487.797 42.4609C488.523 42.4609 489.066 42.6484 489.426 43.0234C489.789 43.3945 489.971 43.9902 489.971 44.8105V49H488.998ZM495.193 49.1172C494.244 49.1172 493.494 48.8281 492.943 48.25C492.396 47.6719 492.123 46.8691 492.123 45.8418C492.123 44.8066 492.377 43.9844 492.885 43.375C493.396 42.7656 494.082 42.4609 494.941 42.4609C495.746 42.4609 496.383 42.7266 496.852 43.2578C497.32 43.7852 497.555 44.4824 497.555 45.3496V45.9648H493.131C493.15 46.7188 493.34 47.291 493.699 47.6816C494.062 48.0723 494.572 48.2676 495.229 48.2676C495.92 48.2676 496.604 48.123 497.279 47.834V48.7012C496.936 48.8496 496.609 48.9551 496.301 49.0176C495.996 49.084 495.627 49.1172 495.193 49.1172ZM494.93 43.2754C494.414 43.2754 494.002 43.4434 493.693 43.7793C493.389 44.1152 493.209 44.5801 493.154 45.1738H496.512C496.512 44.5605 496.375 44.0918 496.102 43.7676C495.828 43.4395 495.438 43.2754 494.93 43.2754ZM503.861 47.248C503.861 47.8457 503.639 48.3066 503.193 48.6309C502.748 48.9551 502.123 49.1172 501.318 49.1172C500.467 49.1172 499.803 48.9824 499.326 48.7129V47.8105C499.635 47.9668 499.965 48.0898 500.316 48.1797C500.672 48.2695 501.014 48.3145 501.342 48.3145C501.85 48.3145 502.24 48.2344 502.514 48.0742C502.787 47.9102 502.924 47.6621 502.924 47.3301C502.924 47.0801 502.814 46.8672 502.596 46.6914C502.381 46.5117 501.959 46.3008 501.33 46.0586C500.732 45.8359 500.307 45.6426 500.053 45.4785C499.803 45.3105 499.615 45.1211 499.49 44.9102C499.369 44.6992 499.309 44.4473 499.309 44.1543C499.309 43.6309 499.521 43.2188 499.947 42.918C500.373 42.6133 500.957 42.4609 501.699 42.4609C502.391 42.4609 503.066 42.6016 503.727 42.8828L503.381 43.6738C502.736 43.4082 502.152 43.2754 501.629 43.2754C501.168 43.2754 500.82 43.3477 500.586 43.4922C500.352 43.6367 500.234 43.8359 500.234 44.0898C500.234 44.2617 500.277 44.4082 500.363 44.5293C500.453 44.6504 500.596 44.7656 500.791 44.875C500.986 44.9844 501.361 45.1426 501.916 45.3496C502.678 45.627 503.191 45.9062 503.457 46.1875C503.727 46.4688 503.861 46.8223 503.861 47.248ZM510.092 47.248C510.092 47.8457 509.869 48.3066 509.424 48.6309C508.979 48.9551 508.354 49.1172 507.549 49.1172C506.697 49.1172 506.033 48.9824 505.557 48.7129V47.8105C505.865 47.9668 506.195 48.0898 506.547 48.1797C506.902 48.2695 507.244 48.3145 507.572 48.3145C508.08 48.3145 508.471 48.2344 508.744 48.0742C509.018 47.9102 509.154 47.6621 509.154 47.3301C509.154 47.0801 509.045 46.8672 508.826 46.6914C508.611 46.5117 508.189 46.3008 507.561 46.0586C506.963 45.8359 506.537 45.6426 506.283 45.4785C506.033 45.3105 505.846 45.1211 505.721 44.9102C505.6 44.6992 505.539 44.4473 505.539 44.1543C505.539 43.6309 505.752 43.2188 506.178 42.918C506.604 42.6133 507.188 42.4609 507.93 42.4609C508.621 42.4609 509.297 42.6016 509.957 42.8828L509.611 43.6738C508.967 43.4082 508.383 43.2754 507.859 43.2754C507.398 43.2754 507.051 43.3477 506.816 43.4922C506.582 43.6367 506.465 43.8359 506.465 44.0898C506.465 44.2617 506.508 44.4082 506.594 44.5293C506.684 44.6504 506.826 44.7656 507.021 44.875C507.217 44.9844 507.592 45.1426 508.146 45.3496C508.908 45.627 509.422 45.9062 509.688 46.1875C509.957 46.4688 510.092 46.8223 510.092 47.248ZM516.129 49L515.936 48.0859H515.889C515.568 48.4883 515.248 48.7617 514.928 48.9062C514.611 49.0469 514.215 49.1172 513.738 49.1172C513.102 49.1172 512.602 48.9531 512.238 48.625C511.879 48.2969 511.699 47.8301 511.699 47.2246C511.699 45.9277 512.736 45.248 514.811 45.1855L515.9 45.1504V44.752C515.9 44.248 515.791 43.877 515.572 43.6387C515.357 43.3965 515.012 43.2754 514.535 43.2754C514 43.2754 513.395 43.4395 512.719 43.7676L512.42 43.0234C512.736 42.8516 513.082 42.7168 513.457 42.6191C513.836 42.5215 514.215 42.4727 514.594 42.4727C515.359 42.4727 515.926 42.6426 516.293 42.9824C516.664 43.3223 516.85 43.8672 516.85 44.6172V49H516.129ZM513.932 48.3145C514.537 48.3145 515.012 48.1484 515.355 47.8164C515.703 47.4844 515.877 47.0195 515.877 46.4219V45.8418L514.904 45.8828C514.131 45.9102 513.572 46.0312 513.229 46.2461C512.889 46.457 512.719 46.7871 512.719 47.2363C512.719 47.5879 512.824 47.8555 513.035 48.0391C513.25 48.2227 513.549 48.3145 513.932 48.3145ZM524.615 42.5781V43.1934L523.426 43.334C523.535 43.4707 523.633 43.6504 523.719 43.873C523.805 44.0918 523.848 44.3398 523.848 44.6172C523.848 45.2461 523.633 45.748 523.203 46.123C522.773 46.498 522.184 46.6855 521.434 46.6855C521.242 46.6855 521.062 46.6699 520.895 46.6387C520.48 46.8574 520.273 47.1328 520.273 47.4648C520.273 47.6406 520.346 47.7715 520.49 47.8574C520.635 47.9395 520.883 47.9805 521.234 47.9805H522.371C523.066 47.9805 523.6 48.127 523.971 48.4199C524.346 48.7129 524.533 49.1387 524.533 49.6973C524.533 50.4082 524.248 50.9492 523.678 51.3203C523.107 51.6953 522.275 51.8828 521.182 51.8828C520.342 51.8828 519.693 51.7266 519.236 51.4141C518.783 51.1016 518.557 50.6602 518.557 50.0898C518.557 49.6992 518.682 49.3613 518.932 49.0762C519.182 48.791 519.533 48.5977 519.986 48.4961C519.822 48.4219 519.684 48.3066 519.57 48.1504C519.461 47.9941 519.406 47.8125 519.406 47.6055C519.406 47.3711 519.469 47.166 519.594 46.9902C519.719 46.8145 519.916 46.6445 520.186 46.4805C519.854 46.3438 519.582 46.1113 519.371 45.7832C519.164 45.4551 519.061 45.0801 519.061 44.6582C519.061 43.9551 519.271 43.4141 519.693 43.0352C520.115 42.6523 520.713 42.4609 521.486 42.4609C521.822 42.4609 522.125 42.5 522.395 42.5781H524.615ZM519.494 50.0781C519.494 50.4258 519.641 50.6895 519.934 50.8691C520.227 51.0488 520.646 51.1387 521.193 51.1387C522.01 51.1387 522.613 51.0156 523.004 50.7695C523.398 50.5273 523.596 50.1973 523.596 49.7793C523.596 49.4316 523.488 49.1895 523.273 49.0527C523.059 48.9199 522.654 48.8535 522.061 48.8535H520.895C520.453 48.8535 520.109 48.959 519.863 49.1699C519.617 49.3809 519.494 49.6836 519.494 50.0781ZM520.021 44.6348C520.021 45.084 520.148 45.4238 520.402 45.6543C520.656 45.8848 521.01 46 521.463 46C522.412 46 522.887 45.5391 522.887 44.6172C522.887 43.6523 522.406 43.1699 521.445 43.1699C520.988 43.1699 520.637 43.293 520.391 43.5391C520.145 43.7852 520.021 44.1504 520.021 44.6348ZM529.146 49.1172C528.197 49.1172 527.447 48.8281 526.896 48.25C526.35 47.6719 526.076 46.8691 526.076 45.8418C526.076 44.8066 526.33 43.9844 526.838 43.375C527.35 42.7656 528.035 42.4609 528.895 42.4609C529.699 42.4609 530.336 42.7266 530.805 43.2578C531.273 43.7852 531.508 44.4824 531.508 45.3496V45.9648H527.084C527.104 46.7188 527.293 47.291 527.652 47.6816C528.016 48.0723 528.525 48.2676 529.182 48.2676C529.873 48.2676 530.557 48.123 531.232 47.834V48.7012C530.889 48.8496 530.562 48.9551 530.254 49.0176C529.949 49.084 529.58 49.1172 529.146 49.1172ZM528.883 43.2754C528.367 43.2754 527.955 43.4434 527.646 43.7793C527.342 44.1152 527.162 44.5801 527.107 45.1738H530.465C530.465 44.5605 530.328 44.0918 530.055 43.7676C529.781 43.4395 529.391 43.2754 528.883 43.2754ZM533.531 48.3789C533.531 48.1172 533.59 47.9199 533.707 47.7871C533.828 47.6504 534 47.582 534.223 47.582C534.449 47.582 534.625 47.6504 534.75 47.7871C534.879 47.9199 534.943 48.1172 534.943 48.3789C534.943 48.6328 534.879 48.8281 534.75 48.9648C534.621 49.1016 534.445 49.1699 534.223 49.1699C534.023 49.1699 533.857 49.1094 533.725 48.9883C533.596 48.8633 533.531 48.6602 533.531 48.3789Z" fill="#0063A3"/>
<path d="M561.258 40.4336H563.807C564.912 40.4336 565.746 40.5938 566.309 40.9141C566.871 41.2344 567.152 41.7871 567.152 42.5723C567.152 42.9004 567.094 43.1973 566.977 43.4629C566.863 43.7246 566.697 43.9414 566.479 44.1133C566.26 44.2812 565.99 44.3945 565.67 44.4531V44.5117C566.002 44.5703 566.297 44.6738 566.555 44.8223C566.816 44.9707 567.021 45.1836 567.17 45.4609C567.322 45.7383 567.398 46.0977 567.398 46.5391C567.398 47.0625 567.273 47.5078 567.023 47.875C566.777 48.2422 566.424 48.5215 565.963 48.7129C565.506 48.9043 564.963 49 564.334 49H561.258V40.4336ZM562.664 43.9668H564.012C564.648 43.9668 565.09 43.8633 565.336 43.6562C565.582 43.4492 565.705 43.1465 565.705 42.748C565.705 42.3418 565.559 42.0488 565.266 41.8691C564.977 41.6895 564.516 41.5996 563.883 41.5996H562.664V43.9668ZM562.664 45.1035V47.8223H564.146C564.803 47.8223 565.264 47.6953 565.529 47.4414C565.795 47.1875 565.928 46.8438 565.928 46.4102C565.928 46.1445 565.867 45.9141 565.746 45.7188C565.629 45.5234 565.436 45.373 565.166 45.2676C564.896 45.1582 564.533 45.1035 564.076 45.1035H562.664ZM574.832 42.5137V49H573.748L573.56 48.127H573.484C573.347 48.3496 573.173 48.5352 572.962 48.6836C572.752 48.8281 572.517 48.9355 572.259 49.0059C572.002 49.0801 571.73 49.1172 571.445 49.1172C570.957 49.1172 570.539 49.0352 570.191 48.8711C569.847 48.7031 569.584 48.4453 569.4 48.0977C569.216 47.75 569.125 47.3008 569.125 46.75V42.5137H570.507V46.4922C570.507 46.9961 570.609 47.373 570.812 47.623C571.019 47.873 571.339 47.998 571.773 47.998C572.191 47.998 572.523 47.9121 572.769 47.7402C573.015 47.5684 573.189 47.3145 573.291 46.9785C573.396 46.6426 573.449 46.2305 573.449 45.7422V42.5137H574.832ZM579.37 48.0039C579.55 48.0039 579.728 47.9883 579.904 47.957C580.079 47.9219 580.239 47.8809 580.384 47.834V48.877C580.232 48.9434 580.034 49 579.792 49.0469C579.55 49.0938 579.298 49.1172 579.036 49.1172C578.669 49.1172 578.339 49.0566 578.046 48.9355C577.753 48.8105 577.521 48.5977 577.349 48.2969C577.177 47.9961 577.091 47.5801 577.091 47.0488V43.5625H576.206V42.9473L577.155 42.4609L577.607 41.0723H578.474V42.5137H580.331V43.5625H578.474V47.0312C578.474 47.3594 578.556 47.6035 578.72 47.7637C578.884 47.9238 579.101 48.0039 579.37 48.0039ZM584.266 48.0039C584.446 48.0039 584.624 47.9883 584.8 47.957C584.975 47.9219 585.136 47.8809 585.28 47.834V48.877C585.128 48.9434 584.93 49 584.688 49.0469C584.446 49.0938 584.194 49.1172 583.932 49.1172C583.565 49.1172 583.235 49.0566 582.942 48.9355C582.649 48.8105 582.417 48.5977 582.245 48.2969C582.073 47.9961 581.987 47.5801 581.987 47.0488V43.5625H581.102V42.9473L582.052 42.4609L582.503 41.0723H583.37V42.5137H585.227V43.5625H583.37V47.0312C583.37 47.3594 583.452 47.6035 583.616 47.7637C583.78 47.9238 583.997 48.0039 584.266 48.0039ZM592.491 45.7422C592.491 46.2812 592.42 46.7598 592.28 47.1777C592.139 47.5957 591.934 47.9492 591.664 48.2383C591.395 48.5234 591.071 48.7422 590.692 48.8945C590.313 49.043 589.885 49.1172 589.409 49.1172C588.963 49.1172 588.555 49.043 588.184 48.8945C587.813 48.7422 587.491 48.5234 587.217 48.2383C586.948 47.9492 586.739 47.5957 586.59 47.1777C586.442 46.7598 586.368 46.2812 586.368 45.7422C586.368 45.0273 586.491 44.4219 586.737 43.9258C586.987 43.4258 587.342 43.0449 587.803 42.7832C588.264 42.5215 588.813 42.3906 589.45 42.3906C590.047 42.3906 590.575 42.5215 591.032 42.7832C591.489 43.0449 591.846 43.4258 592.104 43.9258C592.362 44.4258 592.491 45.0312 592.491 45.7422ZM587.786 45.7422C587.786 46.2148 587.842 46.6191 587.955 46.9551C588.073 47.291 588.252 47.5488 588.495 47.7285C588.737 47.9043 589.049 47.9922 589.432 47.9922C589.815 47.9922 590.127 47.9043 590.37 47.7285C590.612 47.5488 590.789 47.291 590.903 46.9551C591.016 46.6191 591.073 46.2148 591.073 45.7422C591.073 45.2695 591.016 44.8691 590.903 44.541C590.789 44.209 590.612 43.957 590.37 43.7852C590.127 43.6094 589.813 43.5215 589.426 43.5215C588.856 43.5215 588.44 43.7129 588.178 44.0957C587.916 44.4785 587.786 45.0273 587.786 45.7422ZM597.604 42.3906C598.334 42.3906 598.902 42.5801 599.309 42.959C599.719 43.334 599.924 43.9375 599.924 44.7695V49H598.547V45.0273C598.547 44.5234 598.443 44.1465 598.236 43.8965C598.029 43.6426 597.709 43.5156 597.275 43.5156C596.646 43.5156 596.209 43.709 595.963 44.0957C595.721 44.4824 595.6 45.043 595.6 45.7773V49H594.223V42.5137H595.295L595.488 43.3926H595.564C595.705 43.166 595.879 42.9805 596.086 42.8359C596.297 42.6875 596.531 42.5762 596.789 42.502C597.051 42.4277 597.322 42.3906 597.604 42.3906Z" fill="#0063A3"/>
<rect x="328.5" y="24.5" width="304" height="39" rx="3.5" stroke="#217CBB"/>
<rect x="328.5" y="80.5" width="304" height="39" rx="3.5" fill="#F1F1F6"/>
<path d="M350.419 91.3953C350.007 91.3953 349.617 91.4771 349.262 91.6245C348.906 91.7721 348.497 91.6032 348.35 91.2473C348.202 90.8913 348.371 90.4832 348.727 90.3356C349.249 90.1191 349.821 90 350.419 90H351.814C352.199 90 352.512 90.3124 352.512 90.6977C352.512 91.083 352.199 91.3953 351.814 91.3953H350.419Z" fill="#252A2E"/>
<path d="M353.907 90.6977C353.907 90.3124 354.219 90 354.605 90H357.395C357.781 90 358.093 90.3124 358.093 90.6977C358.093 91.083 357.781 91.3953 357.395 91.3953H354.605C354.219 91.3953 353.907 91.083 353.907 90.6977Z" fill="#252A2E"/>
<path d="M359.488 90.6977C359.488 90.3124 359.801 90 360.186 90H361.581C362.179 90 362.751 90.1191 363.273 90.3356C363.629 90.4832 363.798 90.8913 363.65 91.2473C363.503 91.6032 363.094 91.7721 362.738 91.6245C362.383 91.4771 361.993 91.3953 361.581 91.3953H360.186C359.801 91.3953 359.488 91.083 359.488 90.6977Z" fill="#252A2E"/>
<path d="M347.247 92.3498C347.603 92.4974 347.772 92.9056 347.624 93.2615C347.477 93.617 347.395 94.0074 347.395 94.4186V95.814C347.395 96.1993 347.083 96.5116 346.698 96.5116C346.312 96.5116 346 96.1993 346 95.814V94.4186C346 93.8208 346.119 93.249 346.336 92.727C346.483 92.3711 346.891 92.2022 347.247 92.3498Z" fill="#252A2E"/>
<path d="M364.753 92.3498C365.109 92.2022 365.517 92.3711 365.664 92.727C365.881 93.249 366 93.8208 366 94.4186V95.814C366 96.1993 365.688 96.5116 365.302 96.5116C364.917 96.5116 364.605 96.1993 364.605 95.814V94.4186C364.605 94.0074 364.523 93.617 364.376 93.2615C364.228 92.9056 364.397 92.4974 364.753 92.3498Z" fill="#252A2E"/>
<path d="M346.698 97.907C347.083 97.907 347.395 98.2193 347.395 98.6047V101.395C347.395 101.781 347.083 102.093 346.698 102.093C346.312 102.093 346 101.781 346 101.395V98.6047C346 98.2193 346.312 97.907 346.698 97.907Z" fill="#252A2E"/>
<path d="M365.302 97.907C365.688 97.907 366 98.2193 366 98.6047V101.395C366 101.781 365.688 102.093 365.302 102.093C364.917 102.093 364.605 101.781 364.605 101.395V98.6047C364.605 98.2193 364.917 97.907 365.302 97.907Z" fill="#252A2E"/>
<path d="M346.698 103.488C347.083 103.488 347.395 103.801 347.395 104.186V105.581C347.395 105.993 347.477 106.383 347.624 106.738C347.772 107.094 347.603 107.503 347.247 107.65C346.891 107.798 346.483 107.629 346.336 107.273C346.119 106.751 346 106.179 346 105.581V104.186C346 103.801 346.312 103.488 346.698 103.488Z" fill="#252A2E"/>
<path d="M365.302 103.488C365.688 103.488 366 103.801 366 104.186V105.581C366 106.179 365.881 106.751 365.664 107.273C365.517 107.629 365.109 107.798 364.753 107.65C364.397 107.503 364.228 107.094 364.376 106.738C364.523 106.383 364.605 105.993 364.605 105.581V104.186C364.605 103.801 364.917 103.488 365.302 103.488Z" fill="#252A2E"/>
<path d="M348.35 108.753C348.497 108.397 348.906 108.228 349.262 108.376C349.617 108.523 350.007 108.605 350.419 108.605H351.814C352.199 108.605 352.512 108.917 352.512 109.302C352.512 109.688 352.199 110 351.814 110H350.419C349.821 110 349.249 109.881 348.727 109.664C348.371 109.517 348.202 109.109 348.35 108.753Z" fill="#252A2E"/>
<path d="M363.65 108.753C363.798 109.109 363.629 109.517 363.273 109.664C362.751 109.881 362.179 110 361.581 110H360.186C359.801 110 359.488 109.688 359.488 109.302C359.488 108.917 359.801 108.605 360.186 108.605H361.581C361.993 108.605 362.383 108.523 362.738 108.376C363.094 108.228 363.503 108.397 363.65 108.753Z" fill="#252A2E"/>
<path d="M353.907 109.302C353.907 108.917 354.219 108.605 354.605 108.605H357.395C357.781 108.605 358.093 108.917 358.093 109.302C358.093 109.688 357.781 110 357.395 110H354.605C354.219 110 353.907 109.688 353.907 109.302Z" fill="#252A2E"/>
<path d="M363.935 93.1079C364.208 92.8354 364.208 92.3937 363.935 92.1212C363.663 91.8488 363.221 91.8488 362.949 92.1212L362.022 93.0479C361.749 93.3204 361.749 93.7621 362.022 94.0346C362.294 94.3071 362.736 94.3071 363.008 94.0346L363.935 93.1079Z" fill="#252A2E"/>
<path d="M361.155 95.888C361.428 95.6156 361.428 95.1738 361.155 94.9014C360.883 94.6289 360.441 94.6289 360.168 94.9014L358.315 96.7548C358.043 97.0272 358.043 97.469 358.315 97.7414C358.587 98.0139 359.029 98.0139 359.302 97.7414L361.155 95.888Z" fill="#252A2E"/>
<path d="M357.448 99.5948C357.721 99.3224 357.721 98.8806 357.448 98.6082C357.176 98.3357 356.734 98.3357 356.462 98.6082L356 99.0698L355.538 98.6082C355.266 98.3357 354.824 98.3357 354.552 98.6082C354.279 98.8806 354.279 99.3224 354.552 99.5948L355.013 100.056L354.608 100.462C354.336 100.734 354.336 101.176 354.608 101.448C354.881 101.721 355.322 101.721 355.595 101.448L356 101.043L356.405 101.448C356.678 101.721 357.119 101.721 357.392 101.448C357.664 101.176 357.664 100.734 357.392 100.462L356.987 100.056L357.448 99.5948Z" fill="#252A2E"/>
<path d="M353.741 103.302C354.014 103.029 354.014 102.587 353.741 102.315C353.469 102.043 353.027 102.043 352.755 102.315L350.901 104.168C350.629 104.441 350.629 104.883 350.901 105.155C351.174 105.428 351.616 105.428 351.888 105.155L353.741 103.302Z" fill="#252A2E"/>
<path d="M350.035 107.008C350.307 106.736 350.307 106.294 350.035 106.022C349.762 105.749 349.32 105.749 349.048 106.022L348.121 106.949C347.849 107.221 347.849 107.663 348.121 107.935C348.394 108.208 348.835 108.208 349.108 107.935L350.035 107.008Z" fill="#252A2E"/>
<path d="M362.892 107.935C363.165 108.208 363.606 108.208 363.879 107.935C364.151 107.663 364.151 107.221 363.879 106.949L362.952 106.022C362.68 105.749 362.238 105.749 361.965 106.022C361.693 106.294 361.693 106.736 361.965 107.008L362.892 107.935Z" fill="#252A2E"/>
<path d="M360.112 105.155C360.384 105.428 360.826 105.428 361.099 105.155C361.371 104.883 361.371 104.441 361.099 104.168L359.245 102.315C358.973 102.043 358.531 102.043 358.259 102.315C357.986 102.587 357.986 103.029 358.259 103.302L360.112 105.155Z" fill="#252A2E"/>
<path d="M352.698 97.7414C352.971 98.0139 353.413 98.0139 353.685 97.7414C353.957 97.469 353.957 97.0272 353.685 96.7548L351.832 94.9014C351.559 94.6289 351.117 94.6289 350.845 94.9014C350.572 95.1738 350.572 95.6156 350.845 95.888L352.698 97.7414Z" fill="#252A2E"/>
<path d="M348.992 94.0346C349.264 94.3071 349.706 94.3071 349.978 94.0346C350.251 93.7621 350.251 93.3204 349.978 93.0479L349.051 92.1212C348.779 91.8488 348.337 91.8488 348.065 92.1212C347.792 92.3937 347.792 92.8354 348.065 93.1079L348.992 94.0346Z" fill="#252A2E"/>
<path d="M353.261 95.2456C353.538 95.1617 353.833 95.1163 354.14 95.1163H354.837C355.223 95.1163 355.535 94.8039 355.535 94.4186C355.535 94.0333 355.223 93.7209 354.837 93.7209H354.14C353.694 93.7209 353.264 93.787 352.857 93.9102C352.488 94.0219 352.28 94.4114 352.391 94.7802C352.503 95.149 352.893 95.3573 353.261 95.2456Z" fill="#252A2E"/>
<path d="M357.163 93.7209C356.777 93.7209 356.465 94.0333 356.465 94.4186C356.465 94.8039 356.777 95.1163 357.163 95.1163H357.86C358.167 95.1163 358.462 95.1617 358.739 95.2456C359.107 95.3573 359.497 95.149 359.609 94.7802C359.72 94.4114 359.512 94.0219 359.143 93.9102C358.736 93.787 358.306 93.7209 357.86 93.7209H357.163Z" fill="#252A2E"/>
<path d="M351.246 97.2613C351.357 96.8926 351.149 96.5031 350.78 96.3913C350.411 96.2796 350.022 96.488 349.91 96.8567C349.787 97.2636 349.721 97.6945 349.721 98.1395V98.8372C349.721 99.2225 350.033 99.5349 350.419 99.5349C350.804 99.5349 351.116 99.2225 351.116 98.8372V98.1395C351.116 97.833 351.162 97.5384 351.246 97.2613Z" fill="#252A2E"/>
<path d="M362.09 96.8567C361.978 96.488 361.589 96.2796 361.22 96.3913C360.851 96.5031 360.643 96.8926 360.754 97.2613C360.838 97.5384 360.884 97.833 360.884 98.1395V98.8372C360.884 99.2225 361.196 99.5349 361.581 99.5349C361.967 99.5349 362.279 99.2225 362.279 98.8372V98.1395C362.279 97.6945 362.213 97.2636 362.09 96.8567Z" fill="#252A2E"/>
<path d="M351.116 101.163C351.116 100.777 350.804 100.465 350.419 100.465C350.033 100.465 349.721 100.777 349.721 101.163V101.86C349.721 102.306 349.787 102.736 349.91 103.143C350.022 103.512 350.411 103.72 350.78 103.609C351.149 103.497 351.357 103.107 351.246 102.739C351.162 102.462 351.116 102.167 351.116 101.86V101.163Z" fill="#252A2E"/>
<path d="M362.279 101.163C362.279 100.777 361.967 100.465 361.581 100.465C361.196 100.465 360.884 100.777 360.884 101.163V101.86C360.884 102.167 360.838 102.462 360.754 102.739C360.643 103.107 360.851 103.497 361.22 103.609C361.589 103.72 361.978 103.512 362.09 103.143C362.213 102.736 362.279 102.306 362.279 101.86V101.163Z" fill="#252A2E"/>
<path d="M353.261 104.754C352.893 104.643 352.503 104.851 352.391 105.22C352.28 105.589 352.488 105.978 352.857 106.09C353.264 106.213 353.694 106.279 354.14 106.279H354.837C355.223 106.279 355.535 105.967 355.535 105.581C355.535 105.196 355.223 104.884 354.837 104.884H354.14C353.833 104.884 353.538 104.838 353.261 104.754Z" fill="#252A2E"/>
<path d="M359.143 106.09C359.512 105.978 359.72 105.589 359.609 105.22C359.497 104.851 359.107 104.643 358.739 104.754C358.462 104.838 358.167 104.884 357.86 104.884H357.163C356.777 104.884 356.465 105.196 356.465 105.581C356.465 105.967 356.777 106.279 357.163 106.279H357.86C358.306 106.279 358.736 106.213 359.143 106.09Z" fill="#252A2E"/>
<path d="M379.814 105H378.818V97.3184H376.105V96.4336H382.527V97.3184H379.814V105ZM388.57 105V100.846C388.57 100.322 388.451 99.9316 388.213 99.6738C387.975 99.416 387.602 99.2871 387.094 99.2871C386.418 99.2871 385.924 99.4707 385.611 99.8379C385.303 100.205 385.148 100.807 385.148 101.643V105H384.176V95.8828H385.148V98.6426C385.148 98.9746 385.133 99.25 385.102 99.4688H385.16C385.352 99.1602 385.623 98.918 385.975 98.7422C386.33 98.5625 386.734 98.4727 387.188 98.4727C387.973 98.4727 388.561 98.6602 388.951 99.0352C389.346 99.4062 389.543 99.998 389.543 100.811V105H388.57ZM393.02 105H392.047V98.5781H393.02V105ZM391.965 96.8379C391.965 96.6152 392.02 96.4531 392.129 96.3516C392.238 96.2461 392.375 96.1934 392.539 96.1934C392.695 96.1934 392.83 96.2461 392.943 96.3516C393.057 96.457 393.113 96.6191 393.113 96.8379C393.113 97.0566 393.057 97.2207 392.943 97.3301C392.83 97.4355 392.695 97.4883 392.539 97.4883C392.375 97.4883 392.238 97.4355 392.129 97.3301C392.02 97.2207 391.965 97.0566 391.965 96.8379ZM399.725 103.248C399.725 103.846 399.502 104.307 399.057 104.631C398.611 104.955 397.986 105.117 397.182 105.117C396.33 105.117 395.666 104.982 395.189 104.713V103.811C395.498 103.967 395.828 104.09 396.18 104.18C396.535 104.27 396.877 104.314 397.205 104.314C397.713 104.314 398.104 104.234 398.377 104.074C398.65 103.91 398.787 103.662 398.787 103.33C398.787 103.08 398.678 102.867 398.459 102.691C398.244 102.512 397.822 102.301 397.193 102.059C396.596 101.836 396.17 101.643 395.916 101.479C395.666 101.311 395.479 101.121 395.354 100.91C395.232 100.699 395.172 100.447 395.172 100.154C395.172 99.6309 395.385 99.2188 395.811 98.918C396.236 98.6133 396.82 98.4609 397.562 98.4609C398.254 98.4609 398.93 98.6016 399.59 98.8828L399.244 99.6738C398.6 99.4082 398.016 99.2754 397.492 99.2754C397.031 99.2754 396.684 99.3477 396.449 99.4922C396.215 99.6367 396.098 99.8359 396.098 100.09C396.098 100.262 396.141 100.408 396.227 100.529C396.316 100.65 396.459 100.766 396.654 100.875C396.85 100.984 397.225 101.143 397.779 101.35C398.541 101.627 399.055 101.906 399.32 102.188C399.59 102.469 399.725 102.822 399.725 103.248ZM406.402 105H405.43V98.5781H406.402V105ZM405.348 96.8379C405.348 96.6152 405.402 96.4531 405.512 96.3516C405.621 96.2461 405.758 96.1934 405.922 96.1934C406.078 96.1934 406.213 96.2461 406.326 96.3516C406.439 96.457 406.496 96.6191 406.496 96.8379C406.496 97.0566 406.439 97.2207 406.326 97.3301C406.213 97.4355 406.078 97.4883 405.922 97.4883C405.758 97.4883 405.621 97.4355 405.512 97.3301C405.402 97.2207 405.348 97.0566 405.348 96.8379ZM413.107 103.248C413.107 103.846 412.885 104.307 412.439 104.631C411.994 104.955 411.369 105.117 410.564 105.117C409.713 105.117 409.049 104.982 408.572 104.713V103.811C408.881 103.967 409.211 104.09 409.562 104.18C409.918 104.27 410.26 104.314 410.588 104.314C411.096 104.314 411.486 104.234 411.76 104.074C412.033 103.91 412.17 103.662 412.17 103.33C412.17 103.08 412.061 102.867 411.842 102.691C411.627 102.512 411.205 102.301 410.576 102.059C409.979 101.836 409.553 101.643 409.299 101.479C409.049 101.311 408.861 101.121 408.736 100.91C408.615 100.699 408.555 100.447 408.555 100.154C408.555 99.6309 408.768 99.2188 409.193 98.918C409.619 98.6133 410.203 98.4609 410.945 98.4609C411.637 98.4609 412.312 98.6016 412.973 98.8828L412.627 99.6738C411.982 99.4082 411.398 99.2754 410.875 99.2754C410.414 99.2754 410.066 99.3477 409.832 99.4922C409.598 99.6367 409.48 99.8359 409.48 100.09C409.48 100.262 409.523 100.408 409.609 100.529C409.699 100.65 409.842 100.766 410.037 100.875C410.232 100.984 410.607 101.143 411.162 101.35C411.924 101.627 412.438 101.906 412.703 102.188C412.973 102.469 413.107 102.822 413.107 103.248ZM422.762 105L422.568 104.086H422.521C422.201 104.488 421.881 104.762 421.561 104.906C421.244 105.047 420.848 105.117 420.371 105.117C419.734 105.117 419.234 104.953 418.871 104.625C418.512 104.297 418.332 103.83 418.332 103.225C418.332 101.928 419.369 101.248 421.443 101.186L422.533 101.15V100.752C422.533 100.248 422.424 99.877 422.205 99.6387C421.99 99.3965 421.645 99.2754 421.168 99.2754C420.633 99.2754 420.027 99.4395 419.352 99.7676L419.053 99.0234C419.369 98.8516 419.715 98.7168 420.09 98.6191C420.469 98.5215 420.848 98.4727 421.227 98.4727C421.992 98.4727 422.559 98.6426 422.926 98.9824C423.297 99.3223 423.482 99.8672 423.482 100.617V105H422.762ZM420.564 104.314C421.17 104.314 421.645 104.148 421.988 103.816C422.336 103.484 422.51 103.02 422.51 102.422V101.842L421.537 101.883C420.764 101.91 420.205 102.031 419.861 102.246C419.521 102.457 419.352 102.787 419.352 103.236C419.352 103.588 419.457 103.855 419.668 104.039C419.883 104.223 420.182 104.314 420.564 104.314ZM432.598 105.117C432.18 105.117 431.797 105.041 431.449 104.889C431.105 104.732 430.816 104.494 430.582 104.174H430.512C430.559 104.549 430.582 104.904 430.582 105.24V107.883H429.609V98.5781H430.4L430.535 99.457H430.582C430.832 99.1055 431.123 98.8516 431.455 98.6953C431.787 98.5391 432.168 98.4609 432.598 98.4609C433.449 98.4609 434.105 98.752 434.566 99.334C435.031 99.916 435.264 100.732 435.264 101.783C435.264 102.838 435.027 103.658 434.555 104.244C434.086 104.826 433.434 105.117 432.598 105.117ZM432.457 99.2871C431.801 99.2871 431.326 99.4688 431.033 99.832C430.74 100.195 430.59 100.773 430.582 101.566V101.783C430.582 102.686 430.732 103.332 431.033 103.723C431.334 104.109 431.816 104.303 432.48 104.303C433.035 104.303 433.469 104.078 433.781 103.629C434.098 103.18 434.256 102.561 434.256 101.771C434.256 100.971 434.098 100.357 433.781 99.9316C433.469 99.502 433.027 99.2871 432.457 99.2871ZM440.398 98.4609C440.684 98.4609 440.939 98.4844 441.166 98.5312L441.031 99.4336C440.766 99.375 440.531 99.3457 440.328 99.3457C439.809 99.3457 439.363 99.5566 438.992 99.9785C438.625 100.4 438.441 100.926 438.441 101.555V105H437.469V98.5781H438.271L438.383 99.7676H438.43C438.668 99.3496 438.955 99.0273 439.291 98.8008C439.627 98.5742 439.996 98.4609 440.398 98.4609ZM443.84 105H442.867V98.5781H443.84V105ZM442.785 96.8379C442.785 96.6152 442.84 96.4531 442.949 96.3516C443.059 96.2461 443.195 96.1934 443.359 96.1934C443.516 96.1934 443.65 96.2461 443.764 96.3516C443.877 96.457 443.934 96.6191 443.934 96.8379C443.934 97.0566 443.877 97.2207 443.764 97.3301C443.65 97.4355 443.516 97.4883 443.359 97.4883C443.195 97.4883 443.059 97.4355 442.949 97.3301C442.84 97.2207 442.785 97.0566 442.785 96.8379ZM454.588 105V100.822C454.588 100.311 454.479 99.9277 454.26 99.6738C454.041 99.416 453.701 99.2871 453.24 99.2871C452.635 99.2871 452.188 99.4609 451.898 99.8086C451.609 100.156 451.465 100.691 451.465 101.414V105H450.492V100.822C450.492 100.311 450.383 99.9277 450.164 99.6738C449.945 99.416 449.604 99.2871 449.139 99.2871C448.529 99.2871 448.082 99.4707 447.797 99.8379C447.516 100.201 447.375 100.799 447.375 101.631V105H446.402V98.5781H447.193L447.352 99.457H447.398C447.582 99.1445 447.84 98.9004 448.172 98.7246C448.508 98.5488 448.883 98.4609 449.297 98.4609C450.301 98.4609 450.957 98.8242 451.266 99.5508H451.312C451.504 99.2148 451.781 98.9492 452.145 98.7539C452.508 98.5586 452.922 98.4609 453.387 98.4609C454.113 98.4609 454.656 98.6484 455.016 99.0234C455.379 99.3945 455.561 99.9902 455.561 100.811V105H454.588ZM462.02 105L461.826 104.086H461.779C461.459 104.488 461.139 104.762 460.818 104.906C460.502 105.047 460.105 105.117 459.629 105.117C458.992 105.117 458.492 104.953 458.129 104.625C457.77 104.297 457.59 103.83 457.59 103.225C457.59 101.928 458.627 101.248 460.701 101.186L461.791 101.15V100.752C461.791 100.248 461.682 99.877 461.463 99.6387C461.248 99.3965 460.902 99.2754 460.426 99.2754C459.891 99.2754 459.285 99.4395 458.609 99.7676L458.311 99.0234C458.627 98.8516 458.973 98.7168 459.348 98.6191C459.727 98.5215 460.105 98.4727 460.484 98.4727C461.25 98.4727 461.816 98.6426 462.184 98.9824C462.555 99.3223 462.74 99.8672 462.74 100.617V105H462.02ZM459.822 104.314C460.428 104.314 460.902 104.148 461.246 103.816C461.594 103.484 461.768 103.02 461.768 102.422V101.842L460.795 101.883C460.021 101.91 459.463 102.031 459.119 102.246C458.779 102.457 458.609 102.787 458.609 103.236C458.609 103.588 458.715 103.855 458.926 104.039C459.141 104.223 459.439 104.314 459.822 104.314ZM468.18 98.4609C468.465 98.4609 468.721 98.4844 468.947 98.5312L468.812 99.4336C468.547 99.375 468.312 99.3457 468.109 99.3457C467.59 99.3457 467.145 99.5566 466.773 99.9785C466.406 100.4 466.223 100.926 466.223 101.555V105H465.25V98.5781H466.053L466.164 99.7676H466.211C466.449 99.3496 466.736 99.0273 467.072 98.8008C467.408 98.5742 467.777 98.4609 468.18 98.4609ZM469.629 98.5781H470.672L472.078 102.24C472.387 103.076 472.578 103.68 472.652 104.051H472.699C472.75 103.852 472.855 103.512 473.016 103.031C473.18 102.547 473.711 101.062 474.609 98.5781H475.652L472.893 105.891C472.619 106.613 472.299 107.125 471.932 107.426C471.568 107.73 471.121 107.883 470.59 107.883C470.293 107.883 470 107.85 469.711 107.783V107.004C469.926 107.051 470.166 107.074 470.432 107.074C471.1 107.074 471.576 106.699 471.861 105.949L472.219 105.035L469.629 98.5781ZM488.998 105V100.822C488.998 100.311 488.889 99.9277 488.67 99.6738C488.451 99.416 488.111 99.2871 487.65 99.2871C487.045 99.2871 486.598 99.4609 486.309 99.8086C486.02 100.156 485.875 100.691 485.875 101.414V105H484.902V100.822C484.902 100.311 484.793 99.9277 484.574 99.6738C484.355 99.416 484.014 99.2871 483.549 99.2871C482.939 99.2871 482.492 99.4707 482.207 99.8379C481.926 100.201 481.785 100.799 481.785 101.631V105H480.812V98.5781H481.604L481.762 99.457H481.809C481.992 99.1445 482.25 98.9004 482.582 98.7246C482.918 98.5488 483.293 98.4609 483.707 98.4609C484.711 98.4609 485.367 98.8242 485.676 99.5508H485.723C485.914 99.2148 486.191 98.9492 486.555 98.7539C486.918 98.5586 487.332 98.4609 487.797 98.4609C488.523 98.4609 489.066 98.6484 489.426 99.0234C489.789 99.3945 489.971 99.9902 489.971 100.811V105H488.998ZM495.193 105.117C494.244 105.117 493.494 104.828 492.943 104.25C492.396 103.672 492.123 102.869 492.123 101.842C492.123 100.807 492.377 99.9844 492.885 99.375C493.396 98.7656 494.082 98.4609 494.941 98.4609C495.746 98.4609 496.383 98.7266 496.852 99.2578C497.32 99.7852 497.555 100.482 497.555 101.35V101.965H493.131C493.15 102.719 493.34 103.291 493.699 103.682C494.062 104.072 494.572 104.268 495.229 104.268C495.92 104.268 496.604 104.123 497.279 103.834V104.701C496.936 104.85 496.609 104.955 496.301 105.018C495.996 105.084 495.627 105.117 495.193 105.117ZM494.93 99.2754C494.414 99.2754 494.002 99.4434 493.693 99.7793C493.389 100.115 493.209 100.58 493.154 101.174H496.512C496.512 100.561 496.375 100.092 496.102 99.7676C495.828 99.4395 495.438 99.2754 494.93 99.2754ZM503.861 103.248C503.861 103.846 503.639 104.307 503.193 104.631C502.748 104.955 502.123 105.117 501.318 105.117C500.467 105.117 499.803 104.982 499.326 104.713V103.811C499.635 103.967 499.965 104.09 500.316 104.18C500.672 104.27 501.014 104.314 501.342 104.314C501.85 104.314 502.24 104.234 502.514 104.074C502.787 103.91 502.924 103.662 502.924 103.33C502.924 103.08 502.814 102.867 502.596 102.691C502.381 102.512 501.959 102.301 501.33 102.059C500.732 101.836 500.307 101.643 500.053 101.479C499.803 101.311 499.615 101.121 499.49 100.91C499.369 100.699 499.309 100.447 499.309 100.154C499.309 99.6309 499.521 99.2188 499.947 98.918C500.373 98.6133 500.957 98.4609 501.699 98.4609C502.391 98.4609 503.066 98.6016 503.727 98.8828L503.381 99.6738C502.736 99.4082 502.152 99.2754 501.629 99.2754C501.168 99.2754 500.82 99.3477 500.586 99.4922C500.352 99.6367 500.234 99.8359 500.234 100.09C500.234 100.262 500.277 100.408 500.363 100.529C500.453 100.65 500.596 100.766 500.791 100.875C500.986 100.984 501.361 101.143 501.916 101.35C502.678 101.627 503.191 101.906 503.457 102.188C503.727 102.469 503.861 102.822 503.861 103.248ZM510.092 103.248C510.092 103.846 509.869 104.307 509.424 104.631C508.979 104.955 508.354 105.117 507.549 105.117C506.697 105.117 506.033 104.982 505.557 104.713V103.811C505.865 103.967 506.195 104.09 506.547 104.18C506.902 104.27 507.244 104.314 507.572 104.314C508.08 104.314 508.471 104.234 508.744 104.074C509.018 103.91 509.154 103.662 509.154 103.33C509.154 103.08 509.045 102.867 508.826 102.691C508.611 102.512 508.189 102.301 507.561 102.059C506.963 101.836 506.537 101.643 506.283 101.479C506.033 101.311 505.846 101.121 505.721 100.91C505.6 100.699 505.539 100.447 505.539 100.154C505.539 99.6309 505.752 99.2188 506.178 98.918C506.604 98.6133 507.188 98.4609 507.93 98.4609C508.621 98.4609 509.297 98.6016 509.957 98.8828L509.611 99.6738C508.967 99.4082 508.383 99.2754 507.859 99.2754C507.398 99.2754 507.051 99.3477 506.816 99.4922C506.582 99.6367 506.465 99.8359 506.465 100.09C506.465 100.262 506.508 100.408 506.594 100.529C506.684 100.65 506.826 100.766 507.021 100.875C507.217 100.984 507.592 101.143 508.146 101.35C508.908 101.627 509.422 101.906 509.688 102.188C509.957 102.469 510.092 102.822 510.092 103.248ZM516.129 105L515.936 104.086H515.889C515.568 104.488 515.248 104.762 514.928 104.906C514.611 105.047 514.215 105.117 513.738 105.117C513.102 105.117 512.602 104.953 512.238 104.625C511.879 104.297 511.699 103.83 511.699 103.225C511.699 101.928 512.736 101.248 514.811 101.186L515.9 101.15V100.752C515.9 100.248 515.791 99.877 515.572 99.6387C515.357 99.3965 515.012 99.2754 514.535 99.2754C514 99.2754 513.395 99.4395 512.719 99.7676L512.42 99.0234C512.736 98.8516 513.082 98.7168 513.457 98.6191C513.836 98.5215 514.215 98.4727 514.594 98.4727C515.359 98.4727 515.926 98.6426 516.293 98.9824C516.664 99.3223 516.85 99.8672 516.85 100.617V105H516.129ZM513.932 104.314C514.537 104.314 515.012 104.148 515.355 103.816C515.703 103.484 515.877 103.02 515.877 102.422V101.842L514.904 101.883C514.131 101.91 513.572 102.031 513.229 102.246C512.889 102.457 512.719 102.787 512.719 103.236C512.719 103.588 512.824 103.855 513.035 104.039C513.25 104.223 513.549 104.314 513.932 104.314ZM524.615 98.5781V99.1934L523.426 99.334C523.535 99.4707 523.633 99.6504 523.719 99.873C523.805 100.092 523.848 100.34 523.848 100.617C523.848 101.246 523.633 101.748 523.203 102.123C522.773 102.498 522.184 102.686 521.434 102.686C521.242 102.686 521.062 102.67 520.895 102.639C520.48 102.857 520.273 103.133 520.273 103.465C520.273 103.641 520.346 103.771 520.49 103.857C520.635 103.939 520.883 103.98 521.234 103.98H522.371C523.066 103.98 523.6 104.127 523.971 104.42C524.346 104.713 524.533 105.139 524.533 105.697C524.533 106.408 524.248 106.949 523.678 107.32C523.107 107.695 522.275 107.883 521.182 107.883C520.342 107.883 519.693 107.727 519.236 107.414C518.783 107.102 518.557 106.66 518.557 106.09C518.557 105.699 518.682 105.361 518.932 105.076C519.182 104.791 519.533 104.598 519.986 104.496C519.822 104.422 519.684 104.307 519.57 104.15C519.461 103.994 519.406 103.812 519.406 103.605C519.406 103.371 519.469 103.166 519.594 102.99C519.719 102.814 519.916 102.645 520.186 102.48C519.854 102.344 519.582 102.111 519.371 101.783C519.164 101.455 519.061 101.08 519.061 100.658C519.061 99.9551 519.271 99.4141 519.693 99.0352C520.115 98.6523 520.713 98.4609 521.486 98.4609C521.822 98.4609 522.125 98.5 522.395 98.5781H524.615ZM519.494 106.078C519.494 106.426 519.641 106.689 519.934 106.869C520.227 107.049 520.646 107.139 521.193 107.139C522.01 107.139 522.613 107.016 523.004 106.77C523.398 106.527 523.596 106.197 523.596 105.779C523.596 105.432 523.488 105.189 523.273 105.053C523.059 104.92 522.654 104.854 522.061 104.854H520.895C520.453 104.854 520.109 104.959 519.863 105.17C519.617 105.381 519.494 105.684 519.494 106.078ZM520.021 100.635C520.021 101.084 520.148 101.424 520.402 101.654C520.656 101.885 521.01 102 521.463 102C522.412 102 522.887 101.539 522.887 100.617C522.887 99.6523 522.406 99.1699 521.445 99.1699C520.988 99.1699 520.637 99.293 520.391 99.5391C520.145 99.7852 520.021 100.15 520.021 100.635ZM529.146 105.117C528.197 105.117 527.447 104.828 526.896 104.25C526.35 103.672 526.076 102.869 526.076 101.842C526.076 100.807 526.33 99.9844 526.838 99.375C527.35 98.7656 528.035 98.4609 528.895 98.4609C529.699 98.4609 530.336 98.7266 530.805 99.2578C531.273 99.7852 531.508 100.482 531.508 101.35V101.965H527.084C527.104 102.719 527.293 103.291 527.652 103.682C528.016 104.072 528.525 104.268 529.182 104.268C529.873 104.268 530.557 104.123 531.232 103.834V104.701C530.889 104.85 530.562 104.955 530.254 105.018C529.949 105.084 529.58 105.117 529.146 105.117ZM528.883 99.2754C528.367 99.2754 527.955 99.4434 527.646 99.7793C527.342 100.115 527.162 100.58 527.107 101.174H530.465C530.465 100.561 530.328 100.092 530.055 99.7676C529.781 99.4395 529.391 99.2754 528.883 99.2754ZM533.531 104.379C533.531 104.117 533.59 103.92 533.707 103.787C533.828 103.65 534 103.582 534.223 103.582C534.449 103.582 534.625 103.65 534.75 103.787C534.879 103.92 534.943 104.117 534.943 104.379C534.943 104.633 534.879 104.828 534.75 104.965C534.621 105.102 534.445 105.17 534.223 105.17C534.023 105.17 533.857 105.109 533.725 104.988C533.596 104.863 533.531 104.66 533.531 104.379Z" fill="#252A2E"/>
<path d="M561.258 96.4336H563.807C564.912 96.4336 565.746 96.5938 566.309 96.9141C566.871 97.2344 567.152 97.7871 567.152 98.5723C567.152 98.9004 567.094 99.1973 566.977 99.4629C566.863 99.7246 566.697 99.9414 566.479 100.113C566.26 100.281 565.99 100.395 565.67 100.453V100.512C566.002 100.57 566.297 100.674 566.555 100.822C566.816 100.971 567.021 101.184 567.17 101.461C567.322 101.738 567.398 102.098 567.398 102.539C567.398 103.062 567.273 103.508 567.023 103.875C566.777 104.242 566.424 104.521 565.963 104.713C565.506 104.904 564.963 105 564.334 105H561.258V96.4336ZM562.664 99.9668H564.012C564.648 99.9668 565.09 99.8633 565.336 99.6562C565.582 99.4492 565.705 99.1465 565.705 98.748C565.705 98.3418 565.559 98.0488 565.266 97.8691C564.977 97.6895 564.516 97.5996 563.883 97.5996H562.664V99.9668ZM562.664 101.104V103.822H564.146C564.803 103.822 565.264 103.695 565.529 103.441C565.795 103.188 565.928 102.844 565.928 102.41C565.928 102.145 565.867 101.914 565.746 101.719C565.629 101.523 565.436 101.373 565.166 101.268C564.896 101.158 564.533 101.104 564.076 101.104H562.664ZM574.832 98.5137V105H573.748L573.56 104.127H573.484C573.347 104.35 573.173 104.535 572.962 104.684C572.752 104.828 572.517 104.936 572.259 105.006C572.002 105.08 571.73 105.117 571.445 105.117C570.957 105.117 570.539 105.035 570.191 104.871C569.847 104.703 569.584 104.445 569.4 104.098C569.216 103.75 569.125 103.301 569.125 102.75V98.5137H570.507V102.492C570.507 102.996 570.609 103.373 570.812 103.623C571.019 103.873 571.339 103.998 571.773 103.998C572.191 103.998 572.523 103.912 572.769 103.74C573.015 103.568 573.189 103.314 573.291 102.979C573.396 102.643 573.449 102.23 573.449 101.742V98.5137H574.832ZM579.37 104.004C579.55 104.004 579.728 103.988 579.904 103.957C580.079 103.922 580.239 103.881 580.384 103.834V104.877C580.232 104.943 580.034 105 579.792 105.047C579.55 105.094 579.298 105.117 579.036 105.117C578.669 105.117 578.339 105.057 578.046 104.936C577.753 104.811 577.521 104.598 577.349 104.297C577.177 103.996 577.091 103.58 577.091 103.049V99.5625H576.206V98.9473L577.155 98.4609L577.607 97.0723H578.474V98.5137H580.331V99.5625H578.474V103.031C578.474 103.359 578.556 103.604 578.72 103.764C578.884 103.924 579.101 104.004 579.37 104.004ZM584.266 104.004C584.446 104.004 584.624 103.988 584.8 103.957C584.975 103.922 585.136 103.881 585.28 103.834V104.877C585.128 104.943 584.93 105 584.688 105.047C584.446 105.094 584.194 105.117 583.932 105.117C583.565 105.117 583.235 105.057 582.942 104.936C582.649 104.811 582.417 104.598 582.245 104.297C582.073 103.996 581.987 103.58 581.987 103.049V99.5625H581.102V98.9473L582.052 98.4609L582.503 97.0723H583.37V98.5137H585.227V99.5625H583.37V103.031C583.37 103.359 583.452 103.604 583.616 103.764C583.78 103.924 583.997 104.004 584.266 104.004ZM592.491 101.742C592.491 102.281 592.42 102.76 592.28 103.178C592.139 103.596 591.934 103.949 591.664 104.238C591.395 104.523 591.071 104.742 590.692 104.895C590.313 105.043 589.885 105.117 589.409 105.117C588.963 105.117 588.555 105.043 588.184 104.895C587.813 104.742 587.491 104.523 587.217 104.238C586.948 103.949 586.739 103.596 586.59 103.178C586.442 102.76 586.368 102.281 586.368 101.742C586.368 101.027 586.491 100.422 586.737 99.9258C586.987 99.4258 587.342 99.0449 587.803 98.7832C588.264 98.5215 588.813 98.3906 589.45 98.3906C590.047 98.3906 590.575 98.5215 591.032 98.7832C591.489 99.0449 591.846 99.4258 592.104 99.9258C592.362 100.426 592.491 101.031 592.491 101.742ZM587.786 101.742C587.786 102.215 587.842 102.619 587.955 102.955C588.073 103.291 588.252 103.549 588.495 103.729C588.737 103.904 589.049 103.992 589.432 103.992C589.815 103.992 590.127 103.904 590.37 103.729C590.612 103.549 590.789 103.291 590.903 102.955C591.016 102.619 591.073 102.215 591.073 101.742C591.073 101.27 591.016 100.869 590.903 100.541C590.789 100.209 590.612 99.957 590.37 99.7852C590.127 99.6094 589.813 99.5215 589.426 99.5215C588.856 99.5215 588.44 99.7129 588.178 100.096C587.916 100.479 587.786 101.027 587.786 101.742ZM597.604 98.3906C598.334 98.3906 598.902 98.5801 599.309 98.959C599.719 99.334 599.924 99.9375 599.924 100.77V105H598.547V101.027C598.547 100.523 598.443 100.146 598.236 99.8965C598.029 99.6426 597.709 99.5156 597.275 99.5156C596.646 99.5156 596.209 99.709 595.963 100.096C595.721 100.482 595.6 101.043 595.6 101.777V105H594.223V98.5137H595.295L595.488 99.3926H595.564C595.705 99.166 595.879 98.9805 596.086 98.8359C596.297 98.6875 596.531 98.5762 596.789 98.502C597.051 98.4277 597.322 98.3906 597.604 98.3906Z" fill="#353A40"/>
<rect x="545" y="85" width="71" height="30" rx="3" stroke="#353A40" stroke-width="2"/>
<rect x="328.5" y="80.5" width="304" height="39" rx="3.5" stroke="#353A40"/>
<rect x="328.5" y="136.5" width="304" height="39" rx="3.5" fill="#FFF5E4"/>
<path d="M363.65 166.7H348.35C346.1 166.7 344.25 164.85 344.25 162.6C344.25 161.9 344.45 161.2 344.8 160.55L352.45 147.35C353.6 145.4 356.1 144.7 358.05 145.85C358.65 146.2 359.2 146.7 359.55 147.35L367.2 160.6C368.35 162.55 367.65 165.05 365.7 166.2C365.05 166.55 364.35 166.7 363.65 166.7Z" fill="#FF8B00"/>
<path d="M363.65 166.7H348.35C346.1 166.7 344.25 164.85 344.25 162.6C344.25 161.9 344.45 161.2 344.8 160.55L352.45 147.35C353.6 145.4 356.1 144.7 358.05 145.85C358.65 146.2 359.2 146.7 359.55 147.35L367.2 160.6C368.35 162.55 367.65 165.05 365.7 166.2C365.05 166.55 364.35 166.7 363.65 166.7ZM356 146.8C355.05 146.8 354.2 147.3 353.75 148.1L346.1 161.35C345.4 162.6 345.8 164.2 347.05 164.9C347.45 165.15 347.9 165.25 348.35 165.25H363.65C365.1 165.25 366.25 164.1 366.25 162.65C366.25 162.2 366.15 161.75 365.9 161.35L358.25 148.05C357.8 147.25 356.95 146.8 356 146.8Z" fill="#B24225"/>
<path d="M354.65 151.5H357.05V158.95H354.65V151.5Z" fill="white"/>
<path d="M354.65 160.3H357.05V162.6H354.65V160.3Z" fill="white"/>
<path d="M379.814 161H378.818V153.318H376.105V152.434H382.527V153.318H379.814V161ZM388.57 161V156.846C388.57 156.322 388.451 155.932 388.213 155.674C387.975 155.416 387.602 155.287 387.094 155.287C386.418 155.287 385.924 155.471 385.611 155.838C385.303 156.205 385.148 156.807 385.148 157.643V161H384.176V151.883H385.148V154.643C385.148 154.975 385.133 155.25 385.102 155.469H385.16C385.352 155.16 385.623 154.918 385.975 154.742C386.33 154.562 386.734 154.473 387.188 154.473C387.973 154.473 388.561 154.66 388.951 155.035C389.346 155.406 389.543 155.998 389.543 156.811V161H388.57ZM393.02 161H392.047V154.578H393.02V161ZM391.965 152.838C391.965 152.615 392.02 152.453 392.129 152.352C392.238 152.246 392.375 152.193 392.539 152.193C392.695 152.193 392.83 152.246 392.943 152.352C393.057 152.457 393.113 152.619 393.113 152.838C393.113 153.057 393.057 153.221 392.943 153.33C392.83 153.436 392.695 153.488 392.539 153.488C392.375 153.488 392.238 153.436 392.129 153.33C392.02 153.221 391.965 153.057 391.965 152.838ZM399.725 159.248C399.725 159.846 399.502 160.307 399.057 160.631C398.611 160.955 397.986 161.117 397.182 161.117C396.33 161.117 395.666 160.982 395.189 160.713V159.811C395.498 159.967 395.828 160.09 396.18 160.18C396.535 160.27 396.877 160.314 397.205 160.314C397.713 160.314 398.104 160.234 398.377 160.074C398.65 159.91 398.787 159.662 398.787 159.33C398.787 159.08 398.678 158.867 398.459 158.691C398.244 158.512 397.822 158.301 397.193 158.059C396.596 157.836 396.17 157.643 395.916 157.479C395.666 157.311 395.479 157.121 395.354 156.91C395.232 156.699 395.172 156.447 395.172 156.154C395.172 155.631 395.385 155.219 395.811 154.918C396.236 154.613 396.82 154.461 397.562 154.461C398.254 154.461 398.93 154.602 399.59 154.883L399.244 155.674C398.6 155.408 398.016 155.275 397.492 155.275C397.031 155.275 396.684 155.348 396.449 155.492C396.215 155.637 396.098 155.836 396.098 156.09C396.098 156.262 396.141 156.408 396.227 156.529C396.316 156.65 396.459 156.766 396.654 156.875C396.85 156.984 397.225 157.143 397.779 157.35C398.541 157.627 399.055 157.906 399.32 158.188C399.59 158.469 399.725 158.822 399.725 159.248ZM406.402 161H405.43V154.578H406.402V161ZM405.348 152.838C405.348 152.615 405.402 152.453 405.512 152.352C405.621 152.246 405.758 152.193 405.922 152.193C406.078 152.193 406.213 152.246 406.326 152.352C406.439 152.457 406.496 152.619 406.496 152.838C406.496 153.057 406.439 153.221 406.326 153.33C406.213 153.436 406.078 153.488 405.922 153.488C405.758 153.488 405.621 153.436 405.512 153.33C405.402 153.221 405.348 153.057 405.348 152.838ZM413.107 159.248C413.107 159.846 412.885 160.307 412.439 160.631C411.994 160.955 411.369 161.117 410.564 161.117C409.713 161.117 409.049 160.982 408.572 160.713V159.811C408.881 159.967 409.211 160.09 409.562 160.18C409.918 160.27 410.26 160.314 410.588 160.314C411.096 160.314 411.486 160.234 411.76 160.074C412.033 159.91 412.17 159.662 412.17 159.33C412.17 159.08 412.061 158.867 411.842 158.691C411.627 158.512 411.205 158.301 410.576 158.059C409.979 157.836 409.553 157.643 409.299 157.479C409.049 157.311 408.861 157.121 408.736 156.91C408.615 156.699 408.555 156.447 408.555 156.154C408.555 155.631 408.768 155.219 409.193 154.918C409.619 154.613 410.203 154.461 410.945 154.461C411.637 154.461 412.312 154.602 412.973 154.883L412.627 155.674C411.982 155.408 411.398 155.275 410.875 155.275C410.414 155.275 410.066 155.348 409.832 155.492C409.598 155.637 409.48 155.836 409.48 156.09C409.48 156.262 409.523 156.408 409.609 156.529C409.699 156.65 409.842 156.766 410.037 156.875C410.232 156.984 410.607 157.143 411.162 157.35C411.924 157.627 412.438 157.906 412.703 158.188C412.973 158.469 413.107 158.822 413.107 159.248ZM422.762 161L422.568 160.086H422.521C422.201 160.488 421.881 160.762 421.561 160.906C421.244 161.047 420.848 161.117 420.371 161.117C419.734 161.117 419.234 160.953 418.871 160.625C418.512 160.297 418.332 159.83 418.332 159.225C418.332 157.928 419.369 157.248 421.443 157.186L422.533 157.15V156.752C422.533 156.248 422.424 155.877 422.205 155.639C421.99 155.396 421.645 155.275 421.168 155.275C420.633 155.275 420.027 155.439 419.352 155.768L419.053 155.023C419.369 154.852 419.715 154.717 420.09 154.619C420.469 154.521 420.848 154.473 421.227 154.473C421.992 154.473 422.559 154.643 422.926 154.982C423.297 155.322 423.482 155.867 423.482 156.617V161H422.762ZM420.564 160.314C421.17 160.314 421.645 160.148 421.988 159.816C422.336 159.484 422.51 159.02 422.51 158.422V157.842L421.537 157.883C420.764 157.91 420.205 158.031 419.861 158.246C419.521 158.457 419.352 158.787 419.352 159.236C419.352 159.588 419.457 159.855 419.668 160.039C419.883 160.223 420.182 160.314 420.564 160.314ZM432.598 161.117C432.18 161.117 431.797 161.041 431.449 160.889C431.105 160.732 430.816 160.494 430.582 160.174H430.512C430.559 160.549 430.582 160.904 430.582 161.24V163.883H429.609V154.578H430.4L430.535 155.457H430.582C430.832 155.105 431.123 154.852 431.455 154.695C431.787 154.539 432.168 154.461 432.598 154.461C433.449 154.461 434.105 154.752 434.566 155.334C435.031 155.916 435.264 156.732 435.264 157.783C435.264 158.838 435.027 159.658 434.555 160.244C434.086 160.826 433.434 161.117 432.598 161.117ZM432.457 155.287C431.801 155.287 431.326 155.469 431.033 155.832C430.74 156.195 430.59 156.773 430.582 157.566V157.783C430.582 158.686 430.732 159.332 431.033 159.723C431.334 160.109 431.816 160.303 432.48 160.303C433.035 160.303 433.469 160.078 433.781 159.629C434.098 159.18 434.256 158.561 434.256 157.771C434.256 156.971 434.098 156.357 433.781 155.932C433.469 155.502 433.027 155.287 432.457 155.287ZM440.398 154.461C440.684 154.461 440.939 154.484 441.166 154.531L441.031 155.434C440.766 155.375 440.531 155.346 440.328 155.346C439.809 155.346 439.363 155.557 438.992 155.979C438.625 156.4 438.441 156.926 438.441 157.555V161H437.469V154.578H438.271L438.383 155.768H438.43C438.668 155.35 438.955 155.027 439.291 154.801C439.627 154.574 439.996 154.461 440.398 154.461ZM443.84 161H442.867V154.578H443.84V161ZM442.785 152.838C442.785 152.615 442.84 152.453 442.949 152.352C443.059 152.246 443.195 152.193 443.359 152.193C443.516 152.193 443.65 152.246 443.764 152.352C443.877 152.457 443.934 152.619 443.934 152.838C443.934 153.057 443.877 153.221 443.764 153.33C443.65 153.436 443.516 153.488 443.359 153.488C443.195 153.488 443.059 153.436 442.949 153.33C442.84 153.221 442.785 153.057 442.785 152.838ZM454.588 161V156.822C454.588 156.311 454.479 155.928 454.26 155.674C454.041 155.416 453.701 155.287 453.24 155.287C452.635 155.287 452.188 155.461 451.898 155.809C451.609 156.156 451.465 156.691 451.465 157.414V161H450.492V156.822C450.492 156.311 450.383 155.928 450.164 155.674C449.945 155.416 449.604 155.287 449.139 155.287C448.529 155.287 448.082 155.471 447.797 155.838C447.516 156.201 447.375 156.799 447.375 157.631V161H446.402V154.578H447.193L447.352 155.457H447.398C447.582 155.145 447.84 154.9 448.172 154.725C448.508 154.549 448.883 154.461 449.297 154.461C450.301 154.461 450.957 154.824 451.266 155.551H451.312C451.504 155.215 451.781 154.949 452.145 154.754C452.508 154.559 452.922 154.461 453.387 154.461C454.113 154.461 454.656 154.648 455.016 155.023C455.379 155.395 455.561 155.99 455.561 156.811V161H454.588ZM462.02 161L461.826 160.086H461.779C461.459 160.488 461.139 160.762 460.818 160.906C460.502 161.047 460.105 161.117 459.629 161.117C458.992 161.117 458.492 160.953 458.129 160.625C457.77 160.297 457.59 159.83 457.59 159.225C457.59 157.928 458.627 157.248 460.701 157.186L461.791 157.15V156.752C461.791 156.248 461.682 155.877 461.463 155.639C461.248 155.396 460.902 155.275 460.426 155.275C459.891 155.275 459.285 155.439 458.609 155.768L458.311 155.023C458.627 154.852 458.973 154.717 459.348 154.619C459.727 154.521 460.105 154.473 460.484 154.473C461.25 154.473 461.816 154.643 462.184 154.982C462.555 155.322 462.74 155.867 462.74 156.617V161H462.02ZM459.822 160.314C460.428 160.314 460.902 160.148 461.246 159.816C461.594 159.484 461.768 159.02 461.768 158.422V157.842L460.795 157.883C460.021 157.91 459.463 158.031 459.119 158.246C458.779 158.457 458.609 158.787 458.609 159.236C458.609 159.588 458.715 159.855 458.926 160.039C459.141 160.223 459.439 160.314 459.822 160.314ZM468.18 154.461C468.465 154.461 468.721 154.484 468.947 154.531L468.812 155.434C468.547 155.375 468.312 155.346 468.109 155.346C467.59 155.346 467.145 155.557 466.773 155.979C466.406 156.4 466.223 156.926 466.223 157.555V161H465.25V154.578H466.053L466.164 155.768H466.211C466.449 155.35 466.736 155.027 467.072 154.801C467.408 154.574 467.777 154.461 468.18 154.461ZM469.629 154.578H470.672L472.078 158.24C472.387 159.076 472.578 159.68 472.652 160.051H472.699C472.75 159.852 472.855 159.512 473.016 159.031C473.18 158.547 473.711 157.062 474.609 154.578H475.652L472.893 161.891C472.619 162.613 472.299 163.125 471.932 163.426C471.568 163.73 471.121 163.883 470.59 163.883C470.293 163.883 470 163.85 469.711 163.783V163.004C469.926 163.051 470.166 163.074 470.432 163.074C471.1 163.074 471.576 162.699 471.861 161.949L472.219 161.035L469.629 154.578ZM488.998 161V156.822C488.998 156.311 488.889 155.928 488.67 155.674C488.451 155.416 488.111 155.287 487.65 155.287C487.045 155.287 486.598 155.461 486.309 155.809C486.02 156.156 485.875 156.691 485.875 157.414V161H484.902V156.822C484.902 156.311 484.793 155.928 484.574 155.674C484.355 155.416 484.014 155.287 483.549 155.287C482.939 155.287 482.492 155.471 482.207 155.838C481.926 156.201 481.785 156.799 481.785 157.631V161H480.812V154.578H481.604L481.762 155.457H481.809C481.992 155.145 482.25 154.9 482.582 154.725C482.918 154.549 483.293 154.461 483.707 154.461C484.711 154.461 485.367 154.824 485.676 155.551H485.723C485.914 155.215 486.191 154.949 486.555 154.754C486.918 154.559 487.332 154.461 487.797 154.461C488.523 154.461 489.066 154.648 489.426 155.023C489.789 155.395 489.971 155.99 489.971 156.811V161H488.998ZM495.193 161.117C494.244 161.117 493.494 160.828 492.943 160.25C492.396 159.672 492.123 158.869 492.123 157.842C492.123 156.807 492.377 155.984 492.885 155.375C493.396 154.766 494.082 154.461 494.941 154.461C495.746 154.461 496.383 154.727 496.852 155.258C497.32 155.785 497.555 156.482 497.555 157.35V157.965H493.131C493.15 158.719 493.34 159.291 493.699 159.682C494.062 160.072 494.572 160.268 495.229 160.268C495.92 160.268 496.604 160.123 497.279 159.834V160.701C496.936 160.85 496.609 160.955 496.301 161.018C495.996 161.084 495.627 161.117 495.193 161.117ZM494.93 155.275C494.414 155.275 494.002 155.443 493.693 155.779C493.389 156.115 493.209 156.58 493.154 157.174H496.512C496.512 156.561 496.375 156.092 496.102 155.768C495.828 155.439 495.438 155.275 494.93 155.275ZM503.861 159.248C503.861 159.846 503.639 160.307 503.193 160.631C502.748 160.955 502.123 161.117 501.318 161.117C500.467 161.117 499.803 160.982 499.326 160.713V159.811C499.635 159.967 499.965 160.09 500.316 160.18C500.672 160.27 501.014 160.314 501.342 160.314C501.85 160.314 502.24 160.234 502.514 160.074C502.787 159.91 502.924 159.662 502.924 159.33C502.924 159.08 502.814 158.867 502.596 158.691C502.381 158.512 501.959 158.301 501.33 158.059C500.732 157.836 500.307 157.643 500.053 157.479C499.803 157.311 499.615 157.121 499.49 156.91C499.369 156.699 499.309 156.447 499.309 156.154C499.309 155.631 499.521 155.219 499.947 154.918C500.373 154.613 500.957 154.461 501.699 154.461C502.391 154.461 503.066 154.602 503.727 154.883L503.381 155.674C502.736 155.408 502.152 155.275 501.629 155.275C501.168 155.275 500.82 155.348 500.586 155.492C500.352 155.637 500.234 155.836 500.234 156.09C500.234 156.262 500.277 156.408 500.363 156.529C500.453 156.65 500.596 156.766 500.791 156.875C500.986 156.984 501.361 157.143 501.916 157.35C502.678 157.627 503.191 157.906 503.457 158.188C503.727 158.469 503.861 158.822 503.861 159.248ZM510.092 159.248C510.092 159.846 509.869 160.307 509.424 160.631C508.979 160.955 508.354 161.117 507.549 161.117C506.697 161.117 506.033 160.982 505.557 160.713V159.811C505.865 159.967 506.195 160.09 506.547 160.18C506.902 160.27 507.244 160.314 507.572 160.314C508.08 160.314 508.471 160.234 508.744 160.074C509.018 159.91 509.154 159.662 509.154 159.33C509.154 159.08 509.045 158.867 508.826 158.691C508.611 158.512 508.189 158.301 507.561 158.059C506.963 157.836 506.537 157.643 506.283 157.479C506.033 157.311 505.846 157.121 505.721 156.91C505.6 156.699 505.539 156.447 505.539 156.154C505.539 155.631 505.752 155.219 506.178 154.918C506.604 154.613 507.188 154.461 507.93 154.461C508.621 154.461 509.297 154.602 509.957 154.883L509.611 155.674C508.967 155.408 508.383 155.275 507.859 155.275C507.398 155.275 507.051 155.348 506.816 155.492C506.582 155.637 506.465 155.836 506.465 156.09C506.465 156.262 506.508 156.408 506.594 156.529C506.684 156.65 506.826 156.766 507.021 156.875C507.217 156.984 507.592 157.143 508.146 157.35C508.908 157.627 509.422 157.906 509.688 158.188C509.957 158.469 510.092 158.822 510.092 159.248ZM516.129 161L515.936 160.086H515.889C515.568 160.488 515.248 160.762 514.928 160.906C514.611 161.047 514.215 161.117 513.738 161.117C513.102 161.117 512.602 160.953 512.238 160.625C511.879 160.297 511.699 159.83 511.699 159.225C511.699 157.928 512.736 157.248 514.811 157.186L515.9 157.15V156.752C515.9 156.248 515.791 155.877 515.572 155.639C515.357 155.396 515.012 155.275 514.535 155.275C514 155.275 513.395 155.439 512.719 155.768L512.42 155.023C512.736 154.852 513.082 154.717 513.457 154.619C513.836 154.521 514.215 154.473 514.594 154.473C515.359 154.473 515.926 154.643 516.293 154.982C516.664 155.322 516.85 155.867 516.85 156.617V161H516.129ZM513.932 160.314C514.537 160.314 515.012 160.148 515.355 159.816C515.703 159.484 515.877 159.02 515.877 158.422V157.842L514.904 157.883C514.131 157.91 513.572 158.031 513.229 158.246C512.889 158.457 512.719 158.787 512.719 159.236C512.719 159.588 512.824 159.855 513.035 160.039C513.25 160.223 513.549 160.314 513.932 160.314ZM524.615 154.578V155.193L523.426 155.334C523.535 155.471 523.633 155.65 523.719 155.873C523.805 156.092 523.848 156.34 523.848 156.617C523.848 157.246 523.633 157.748 523.203 158.123C522.773 158.498 522.184 158.686 521.434 158.686C521.242 158.686 521.062 158.67 520.895 158.639C520.48 158.857 520.273 159.133 520.273 159.465C520.273 159.641 520.346 159.771 520.49 159.857C520.635 159.939 520.883 159.98 521.234 159.98H522.371C523.066 159.98 523.6 160.127 523.971 160.42C524.346 160.713 524.533 161.139 524.533 161.697C524.533 162.408 524.248 162.949 523.678 163.32C523.107 163.695 522.275 163.883 521.182 163.883C520.342 163.883 519.693 163.727 519.236 163.414C518.783 163.102 518.557 162.66 518.557 162.09C518.557 161.699 518.682 161.361 518.932 161.076C519.182 160.791 519.533 160.598 519.986 160.496C519.822 160.422 519.684 160.307 519.57 160.15C519.461 159.994 519.406 159.812 519.406 159.605C519.406 159.371 519.469 159.166 519.594 158.99C519.719 158.814 519.916 158.645 520.186 158.48C519.854 158.344 519.582 158.111 519.371 157.783C519.164 157.455 519.061 157.08 519.061 156.658C519.061 155.955 519.271 155.414 519.693 155.035C520.115 154.652 520.713 154.461 521.486 154.461C521.822 154.461 522.125 154.5 522.395 154.578H524.615ZM519.494 162.078C519.494 162.426 519.641 162.689 519.934 162.869C520.227 163.049 520.646 163.139 521.193 163.139C522.01 163.139 522.613 163.016 523.004 162.77C523.398 162.527 523.596 162.197 523.596 161.779C523.596 161.432 523.488 161.189 523.273 161.053C523.059 160.92 522.654 160.854 522.061 160.854H520.895C520.453 160.854 520.109 160.959 519.863 161.17C519.617 161.381 519.494 161.684 519.494 162.078ZM520.021 156.635C520.021 157.084 520.148 157.424 520.402 157.654C520.656 157.885 521.01 158 521.463 158C522.412 158 522.887 157.539 522.887 156.617C522.887 155.652 522.406 155.17 521.445 155.17C520.988 155.17 520.637 155.293 520.391 155.539C520.145 155.785 520.021 156.15 520.021 156.635ZM529.146 161.117C528.197 161.117 527.447 160.828 526.896 160.25C526.35 159.672 526.076 158.869 526.076 157.842C526.076 156.807 526.33 155.984 526.838 155.375C527.35 154.766 528.035 154.461 528.895 154.461C529.699 154.461 530.336 154.727 530.805 155.258C531.273 155.785 531.508 156.482 531.508 157.35V157.965H527.084C527.104 158.719 527.293 159.291 527.652 159.682C528.016 160.072 528.525 160.268 529.182 160.268C529.873 160.268 530.557 160.123 531.232 159.834V160.701C530.889 160.85 530.562 160.955 530.254 161.018C529.949 161.084 529.58 161.117 529.146 161.117ZM528.883 155.275C528.367 155.275 527.955 155.443 527.646 155.779C527.342 156.115 527.162 156.58 527.107 157.174H530.465C530.465 156.561 530.328 156.092 530.055 155.768C529.781 155.439 529.391 155.275 528.883 155.275ZM533.531 160.379C533.531 160.117 533.59 159.92 533.707 159.787C533.828 159.65 534 159.582 534.223 159.582C534.449 159.582 534.625 159.65 534.75 159.787C534.879 159.92 534.943 160.117 534.943 160.379C534.943 160.633 534.879 160.828 534.75 160.965C534.621 161.102 534.445 161.17 534.223 161.17C534.023 161.17 533.857 161.109 533.725 160.988C533.596 160.863 533.531 160.66 533.531 160.379Z" fill="#252A2E"/>
<path d="M561.258 152.434H563.807C564.912 152.434 565.746 152.594 566.309 152.914C566.871 153.234 567.152 153.787 567.152 154.572C567.152 154.9 567.094 155.197 566.977 155.463C566.863 155.725 566.697 155.941 566.479 156.113C566.26 156.281 565.99 156.395 565.67 156.453V156.512C566.002 156.57 566.297 156.674 566.555 156.822C566.816 156.971 567.021 157.184 567.17 157.461C567.322 157.738 567.398 158.098 567.398 158.539C567.398 159.062 567.273 159.508 567.023 159.875C566.777 160.242 566.424 160.521 565.963 160.713C565.506 160.904 564.963 161 564.334 161H561.258V152.434ZM562.664 155.967H564.012C564.648 155.967 565.09 155.863 565.336 155.656C565.582 155.449 565.705 155.146 565.705 154.748C565.705 154.342 565.559 154.049 565.266 153.869C564.977 153.689 564.516 153.6 563.883 153.6H562.664V155.967ZM562.664 157.104V159.822H564.146C564.803 159.822 565.264 159.695 565.529 159.441C565.795 159.188 565.928 158.844 565.928 158.41C565.928 158.145 565.867 157.914 565.746 157.719C565.629 157.523 565.436 157.373 565.166 157.268C564.896 157.158 564.533 157.104 564.076 157.104H562.664ZM574.832 154.514V161H573.748L573.56 160.127H573.484C573.347 160.35 573.173 160.535 572.962 160.684C572.752 160.828 572.517 160.936 572.259 161.006C572.002 161.08 571.73 161.117 571.445 161.117C570.957 161.117 570.539 161.035 570.191 160.871C569.847 160.703 569.584 160.445 569.4 160.098C569.216 159.75 569.125 159.301 569.125 158.75V154.514H570.507V158.492C570.507 158.996 570.609 159.373 570.812 159.623C571.019 159.873 571.339 159.998 571.773 159.998C572.191 159.998 572.523 159.912 572.769 159.74C573.015 159.568 573.189 159.314 573.291 158.979C573.396 158.643 573.449 158.23 573.449 157.742V154.514H574.832ZM579.37 160.004C579.55 160.004 579.728 159.988 579.904 159.957C580.079 159.922 580.239 159.881 580.384 159.834V160.877C580.232 160.943 580.034 161 579.792 161.047C579.55 161.094 579.298 161.117 579.036 161.117C578.669 161.117 578.339 161.057 578.046 160.936C577.753 160.811 577.521 160.598 577.349 160.297C577.177 159.996 577.091 159.58 577.091 159.049V155.562H576.206V154.947L577.155 154.461L577.607 153.072H578.474V154.514H580.331V155.562H578.474V159.031C578.474 159.359 578.556 159.604 578.72 159.764C578.884 159.924 579.101 160.004 579.37 160.004ZM584.266 160.004C584.446 160.004 584.624 159.988 584.8 159.957C584.975 159.922 585.136 159.881 585.28 159.834V160.877C585.128 160.943 584.93 161 584.688 161.047C584.446 161.094 584.194 161.117 583.932 161.117C583.565 161.117 583.235 161.057 582.942 160.936C582.649 160.811 582.417 160.598 582.245 160.297C582.073 159.996 581.987 159.58 581.987 159.049V155.562H581.102V154.947L582.052 154.461L582.503 153.072H583.37V154.514H585.227V155.562H583.37V159.031C583.37 159.359 583.452 159.604 583.616 159.764C583.78 159.924 583.997 160.004 584.266 160.004ZM592.491 157.742C592.491 158.281 592.42 158.76 592.28 159.178C592.139 159.596 591.934 159.949 591.664 160.238C591.395 160.523 591.071 160.742 590.692 160.895C590.313 161.043 589.885 161.117 589.409 161.117C588.963 161.117 588.555 161.043 588.184 160.895C587.813 160.742 587.491 160.523 587.217 160.238C586.948 159.949 586.739 159.596 586.59 159.178C586.442 158.76 586.368 158.281 586.368 157.742C586.368 157.027 586.491 156.422 586.737 155.926C586.987 155.426 587.342 155.045 587.803 154.783C588.264 154.521 588.813 154.391 589.45 154.391C590.047 154.391 590.575 154.521 591.032 154.783C591.489 155.045 591.846 155.426 592.104 155.926C592.362 156.426 592.491 157.031 592.491 157.742ZM587.786 157.742C587.786 158.215 587.842 158.619 587.955 158.955C588.073 159.291 588.252 159.549 588.495 159.729C588.737 159.904 589.049 159.992 589.432 159.992C589.815 159.992 590.127 159.904 590.37 159.729C590.612 159.549 590.789 159.291 590.903 158.955C591.016 158.619 591.073 158.215 591.073 157.742C591.073 157.27 591.016 156.869 590.903 156.541C590.789 156.209 590.612 155.957 590.37 155.785C590.127 155.609 589.813 155.521 589.426 155.521C588.856 155.521 588.44 155.713 588.178 156.096C587.916 156.479 587.786 157.027 587.786 157.742ZM597.604 154.391C598.334 154.391 598.902 154.58 599.309 154.959C599.719 155.334 599.924 155.938 599.924 156.77V161H598.547V157.027C598.547 156.523 598.443 156.146 598.236 155.896C598.029 155.643 597.709 155.516 597.275 155.516C596.646 155.516 596.209 155.709 595.963 156.096C595.721 156.482 595.6 157.043 595.6 157.777V161H594.223V154.514H595.295L595.488 155.393H595.564C595.705 155.166 595.879 154.98 596.086 154.836C596.297 154.688 596.531 154.576 596.789 154.502C597.051 154.428 597.322 154.391 597.604 154.391Z" fill="#353A40"/>
<rect x="545" y="141" width="71" height="30" rx="3" stroke="#353A40" stroke-width="2"/>
<rect x="328.5" y="136.5" width="304" height="39" rx="3.5" stroke="#E49325"/>
<rect x="328.5" y="192.5" width="304" height="39" rx="3.5" fill="#FBD4D7"/>
<g clip-path="url(#clip1_431_73406)">
<path d="M363.9 200.05H348C345.8 200.05 344 201.85 344 204.05V220C344 222.2 345.8 224 348 224H363.9C366.1 224 367.9 222.2 367.9 220V204.05C367.9 201.85 366.15 200.05 363.9 200.05Z" fill="#DA212C"/>
<path d="M363.9 201.8C365.15 201.8 366.15 202.8 366.15 204.05V220C366.15 221.25 365.15 222.25 363.9 222.25H348C346.75 222.25 345.75 221.25 345.75 220V204.05C345.75 202.8 346.75 201.8 348 201.8H363.9ZM363.9 200.05H348C345.8 200.05 344 201.85 344 204.05V220C344 222.2 345.8 224 348 224H363.9C366.1 224 367.9 222.2 367.9 220V204.05C367.9 201.85 366.15 200.05 363.9 200.05Z" fill="#7C070C"/>
<path d="M360.4 215L357.3 211.95L360.45 208.85L359.1 207.5L356 210.65L352.9 207.5L351.55 208.85L354.7 211.95L351.65 215L352.95 216.35L356 213.3L359.05 216.35L360.4 215Z" fill="white"/>
</g>
<path d="M379.814 217H378.818V209.318H376.105V208.434H382.527V209.318H379.814V217ZM388.57 217V212.846C388.57 212.322 388.451 211.932 388.213 211.674C387.975 211.416 387.602 211.287 387.094 211.287C386.418 211.287 385.924 211.471 385.611 211.838C385.303 212.205 385.148 212.807 385.148 213.643V217H384.176V207.883H385.148V210.643C385.148 210.975 385.133 211.25 385.102 211.469H385.16C385.352 211.16 385.623 210.918 385.975 210.742C386.33 210.562 386.734 210.473 387.188 210.473C387.973 210.473 388.561 210.66 388.951 211.035C389.346 211.406 389.543 211.998 389.543 212.811V217H388.57ZM393.02 217H392.047V210.578H393.02V217ZM391.965 208.838C391.965 208.615 392.02 208.453 392.129 208.352C392.238 208.246 392.375 208.193 392.539 208.193C392.695 208.193 392.83 208.246 392.943 208.352C393.057 208.457 393.113 208.619 393.113 208.838C393.113 209.057 393.057 209.221 392.943 209.33C392.83 209.436 392.695 209.488 392.539 209.488C392.375 209.488 392.238 209.436 392.129 209.33C392.02 209.221 391.965 209.057 391.965 208.838ZM399.725 215.248C399.725 215.846 399.502 216.307 399.057 216.631C398.611 216.955 397.986 217.117 397.182 217.117C396.33 217.117 395.666 216.982 395.189 216.713V215.811C395.498 215.967 395.828 216.09 396.18 216.18C396.535 216.27 396.877 216.314 397.205 216.314C397.713 216.314 398.104 216.234 398.377 216.074C398.65 215.91 398.787 215.662 398.787 215.33C398.787 215.08 398.678 214.867 398.459 214.691C398.244 214.512 397.822 214.301 397.193 214.059C396.596 213.836 396.17 213.643 395.916 213.479C395.666 213.311 395.479 213.121 395.354 212.91C395.232 212.699 395.172 212.447 395.172 212.154C395.172 211.631 395.385 211.219 395.811 210.918C396.236 210.613 396.82 210.461 397.562 210.461C398.254 210.461 398.93 210.602 399.59 210.883L399.244 211.674C398.6 211.408 398.016 211.275 397.492 211.275C397.031 211.275 396.684 211.348 396.449 211.492C396.215 211.637 396.098 211.836 396.098 212.09C396.098 212.262 396.141 212.408 396.227 212.529C396.316 212.65 396.459 212.766 396.654 212.875C396.85 212.984 397.225 213.143 397.779 213.35C398.541 213.627 399.055 213.906 399.32 214.188C399.59 214.469 399.725 214.822 399.725 215.248ZM406.402 217H405.43V210.578H406.402V217ZM405.348 208.838C405.348 208.615 405.402 208.453 405.512 208.352C405.621 208.246 405.758 208.193 405.922 208.193C406.078 208.193 406.213 208.246 406.326 208.352C406.439 208.457 406.496 208.619 406.496 208.838C406.496 209.057 406.439 209.221 406.326 209.33C406.213 209.436 406.078 209.488 405.922 209.488C405.758 209.488 405.621 209.436 405.512 209.33C405.402 209.221 405.348 209.057 405.348 208.838ZM413.107 215.248C413.107 215.846 412.885 216.307 412.439 216.631C411.994 216.955 411.369 217.117 410.564 217.117C409.713 217.117 409.049 216.982 408.572 216.713V215.811C408.881 215.967 409.211 216.09 409.562 216.18C409.918 216.27 410.26 216.314 410.588 216.314C411.096 216.314 411.486 216.234 411.76 216.074C412.033 215.91 412.17 215.662 412.17 215.33C412.17 215.08 412.061 214.867 411.842 214.691C411.627 214.512 411.205 214.301 410.576 214.059C409.979 213.836 409.553 213.643 409.299 213.479C409.049 213.311 408.861 213.121 408.736 212.91C408.615 212.699 408.555 212.447 408.555 212.154C408.555 211.631 408.768 211.219 409.193 210.918C409.619 210.613 410.203 210.461 410.945 210.461C411.637 210.461 412.312 210.602 412.973 210.883L412.627 211.674C411.982 211.408 411.398 211.275 410.875 211.275C410.414 211.275 410.066 211.348 409.832 211.492C409.598 211.637 409.48 211.836 409.48 212.09C409.48 212.262 409.523 212.408 409.609 212.529C409.699 212.65 409.842 212.766 410.037 212.875C410.232 212.984 410.607 213.143 411.162 213.35C411.924 213.627 412.438 213.906 412.703 214.188C412.973 214.469 413.107 214.822 413.107 215.248ZM422.762 217L422.568 216.086H422.521C422.201 216.488 421.881 216.762 421.561 216.906C421.244 217.047 420.848 217.117 420.371 217.117C419.734 217.117 419.234 216.953 418.871 216.625C418.512 216.297 418.332 215.83 418.332 215.225C418.332 213.928 419.369 213.248 421.443 213.186L422.533 213.15V212.752C422.533 212.248 422.424 211.877 422.205 211.639C421.99 211.396 421.645 211.275 421.168 211.275C420.633 211.275 420.027 211.439 419.352 211.768L419.053 211.023C419.369 210.852 419.715 210.717 420.09 210.619C420.469 210.521 420.848 210.473 421.227 210.473C421.992 210.473 422.559 210.643 422.926 210.982C423.297 211.322 423.482 211.867 423.482 212.617V217H422.762ZM420.564 216.314C421.17 216.314 421.645 216.148 421.988 215.816C422.336 215.484 422.51 215.02 422.51 214.422V213.842L421.537 213.883C420.764 213.91 420.205 214.031 419.861 214.246C419.521 214.457 419.352 214.787 419.352 215.236C419.352 215.588 419.457 215.855 419.668 216.039C419.883 216.223 420.182 216.314 420.564 216.314ZM432.598 217.117C432.18 217.117 431.797 217.041 431.449 216.889C431.105 216.732 430.816 216.494 430.582 216.174H430.512C430.559 216.549 430.582 216.904 430.582 217.24V219.883H429.609V210.578H430.4L430.535 211.457H430.582C430.832 211.105 431.123 210.852 431.455 210.695C431.787 210.539 432.168 210.461 432.598 210.461C433.449 210.461 434.105 210.752 434.566 211.334C435.031 211.916 435.264 212.732 435.264 213.783C435.264 214.838 435.027 215.658 434.555 216.244C434.086 216.826 433.434 217.117 432.598 217.117ZM432.457 211.287C431.801 211.287 431.326 211.469 431.033 211.832C430.74 212.195 430.59 212.773 430.582 213.566V213.783C430.582 214.686 430.732 215.332 431.033 215.723C431.334 216.109 431.816 216.303 432.48 216.303C433.035 216.303 433.469 216.078 433.781 215.629C434.098 215.18 434.256 214.561 434.256 213.771C434.256 212.971 434.098 212.357 433.781 211.932C433.469 211.502 433.027 211.287 432.457 211.287ZM440.398 210.461C440.684 210.461 440.939 210.484 441.166 210.531L441.031 211.434C440.766 211.375 440.531 211.346 440.328 211.346C439.809 211.346 439.363 211.557 438.992 211.979C438.625 212.4 438.441 212.926 438.441 213.555V217H437.469V210.578H438.271L438.383 211.768H438.43C438.668 211.35 438.955 211.027 439.291 210.801C439.627 210.574 439.996 210.461 440.398 210.461ZM443.84 217H442.867V210.578H443.84V217ZM442.785 208.838C442.785 208.615 442.84 208.453 442.949 208.352C443.059 208.246 443.195 208.193 443.359 208.193C443.516 208.193 443.65 208.246 443.764 208.352C443.877 208.457 443.934 208.619 443.934 208.838C443.934 209.057 443.877 209.221 443.764 209.33C443.65 209.436 443.516 209.488 443.359 209.488C443.195 209.488 443.059 209.436 442.949 209.33C442.84 209.221 442.785 209.057 442.785 208.838ZM454.588 217V212.822C454.588 212.311 454.479 211.928 454.26 211.674C454.041 211.416 453.701 211.287 453.24 211.287C452.635 211.287 452.188 211.461 451.898 211.809C451.609 212.156 451.465 212.691 451.465 213.414V217H450.492V212.822C450.492 212.311 450.383 211.928 450.164 211.674C449.945 211.416 449.604 211.287 449.139 211.287C448.529 211.287 448.082 211.471 447.797 211.838C447.516 212.201 447.375 212.799 447.375 213.631V217H446.402V210.578H447.193L447.352 211.457H447.398C447.582 211.145 447.84 210.9 448.172 210.725C448.508 210.549 448.883 210.461 449.297 210.461C450.301 210.461 450.957 210.824 451.266 211.551H451.312C451.504 211.215 451.781 210.949 452.145 210.754C452.508 210.559 452.922 210.461 453.387 210.461C454.113 210.461 454.656 210.648 455.016 211.023C455.379 211.395 455.561 211.99 455.561 212.811V217H454.588ZM462.02 217L461.826 216.086H461.779C461.459 216.488 461.139 216.762 460.818 216.906C460.502 217.047 460.105 217.117 459.629 217.117C458.992 217.117 458.492 216.953 458.129 216.625C457.77 216.297 457.59 215.83 457.59 215.225C457.59 213.928 458.627 213.248 460.701 213.186L461.791 213.15V212.752C461.791 212.248 461.682 211.877 461.463 211.639C461.248 211.396 460.902 211.275 460.426 211.275C459.891 211.275 459.285 211.439 458.609 211.768L458.311 211.023C458.627 210.852 458.973 210.717 459.348 210.619C459.727 210.521 460.105 210.473 460.484 210.473C461.25 210.473 461.816 210.643 462.184 210.982C462.555 211.322 462.74 211.867 462.74 212.617V217H462.02ZM459.822 216.314C460.428 216.314 460.902 216.148 461.246 215.816C461.594 215.484 461.768 215.02 461.768 214.422V213.842L460.795 213.883C460.021 213.91 459.463 214.031 459.119 214.246C458.779 214.457 458.609 214.787 458.609 215.236C458.609 215.588 458.715 215.855 458.926 216.039C459.141 216.223 459.439 216.314 459.822 216.314ZM468.18 210.461C468.465 210.461 468.721 210.484 468.947 210.531L468.812 211.434C468.547 211.375 468.312 211.346 468.109 211.346C467.59 211.346 467.145 211.557 466.773 211.979C466.406 212.4 466.223 212.926 466.223 213.555V217H465.25V210.578H466.053L466.164 211.768H466.211C466.449 211.35 466.736 211.027 467.072 210.801C467.408 210.574 467.777 210.461 468.18 210.461ZM469.629 210.578H470.672L472.078 214.24C472.387 215.076 472.578 215.68 472.652 216.051H472.699C472.75 215.852 472.855 215.512 473.016 215.031C473.18 214.547 473.711 213.062 474.609 210.578H475.652L472.893 217.891C472.619 218.613 472.299 219.125 471.932 219.426C471.568 219.73 471.121 219.883 470.59 219.883C470.293 219.883 470 219.85 469.711 219.783V219.004C469.926 219.051 470.166 219.074 470.432 219.074C471.1 219.074 471.576 218.699 471.861 217.949L472.219 217.035L469.629 210.578ZM488.998 217V212.822C488.998 212.311 488.889 211.928 488.67 211.674C488.451 211.416 488.111 211.287 487.65 211.287C487.045 211.287 486.598 211.461 486.309 211.809C486.02 212.156 485.875 212.691 485.875 213.414V217H484.902V212.822C484.902 212.311 484.793 211.928 484.574 211.674C484.355 211.416 484.014 211.287 483.549 211.287C482.939 211.287 482.492 211.471 482.207 211.838C481.926 212.201 481.785 212.799 481.785 213.631V217H480.812V210.578H481.604L481.762 211.457H481.809C481.992 211.145 482.25 210.9 482.582 210.725C482.918 210.549 483.293 210.461 483.707 210.461C484.711 210.461 485.367 210.824 485.676 211.551H485.723C485.914 211.215 486.191 210.949 486.555 210.754C486.918 210.559 487.332 210.461 487.797 210.461C488.523 210.461 489.066 210.648 489.426 211.023C489.789 211.395 489.971 211.99 489.971 212.811V217H488.998ZM495.193 217.117C494.244 217.117 493.494 216.828 492.943 216.25C492.396 215.672 492.123 214.869 492.123 213.842C492.123 212.807 492.377 211.984 492.885 211.375C493.396 210.766 494.082 210.461 494.941 210.461C495.746 210.461 496.383 210.727 496.852 211.258C497.32 211.785 497.555 212.482 497.555 213.35V213.965H493.131C493.15 214.719 493.34 215.291 493.699 215.682C494.062 216.072 494.572 216.268 495.229 216.268C495.92 216.268 496.604 216.123 497.279 215.834V216.701C496.936 216.85 496.609 216.955 496.301 217.018C495.996 217.084 495.627 217.117 495.193 217.117ZM494.93 211.275C494.414 211.275 494.002 211.443 493.693 211.779C493.389 212.115 493.209 212.58 493.154 213.174H496.512C496.512 212.561 496.375 212.092 496.102 211.768C495.828 211.439 495.438 211.275 494.93 211.275ZM503.861 215.248C503.861 215.846 503.639 216.307 503.193 216.631C502.748 216.955 502.123 217.117 501.318 217.117C500.467 217.117 499.803 216.982 499.326 216.713V215.811C499.635 215.967 499.965 216.09 500.316 216.18C500.672 216.27 501.014 216.314 501.342 216.314C501.85 216.314 502.24 216.234 502.514 216.074C502.787 215.91 502.924 215.662 502.924 215.33C502.924 215.08 502.814 214.867 502.596 214.691C502.381 214.512 501.959 214.301 501.33 214.059C500.732 213.836 500.307 213.643 500.053 213.479C499.803 213.311 499.615 213.121 499.49 212.91C499.369 212.699 499.309 212.447 499.309 212.154C499.309 211.631 499.521 211.219 499.947 210.918C500.373 210.613 500.957 210.461 501.699 210.461C502.391 210.461 503.066 210.602 503.727 210.883L503.381 211.674C502.736 211.408 502.152 211.275 501.629 211.275C501.168 211.275 500.82 211.348 500.586 211.492C500.352 211.637 500.234 211.836 500.234 212.09C500.234 212.262 500.277 212.408 500.363 212.529C500.453 212.65 500.596 212.766 500.791 212.875C500.986 212.984 501.361 213.143 501.916 213.35C502.678 213.627 503.191 213.906 503.457 214.188C503.727 214.469 503.861 214.822 503.861 215.248ZM510.092 215.248C510.092 215.846 509.869 216.307 509.424 216.631C508.979 216.955 508.354 217.117 507.549 217.117C506.697 217.117 506.033 216.982 505.557 216.713V215.811C505.865 215.967 506.195 216.09 506.547 216.18C506.902 216.27 507.244 216.314 507.572 216.314C508.08 216.314 508.471 216.234 508.744 216.074C509.018 215.91 509.154 215.662 509.154 215.33C509.154 215.08 509.045 214.867 508.826 214.691C508.611 214.512 508.189 214.301 507.561 214.059C506.963 213.836 506.537 213.643 506.283 213.479C506.033 213.311 505.846 213.121 505.721 212.91C505.6 212.699 505.539 212.447 505.539 212.154C505.539 211.631 505.752 211.219 506.178 210.918C506.604 210.613 507.188 210.461 507.93 210.461C508.621 210.461 509.297 210.602 509.957 210.883L509.611 211.674C508.967 211.408 508.383 211.275 507.859 211.275C507.398 211.275 507.051 211.348 506.816 211.492C506.582 211.637 506.465 211.836 506.465 212.09C506.465 212.262 506.508 212.408 506.594 212.529C506.684 212.65 506.826 212.766 507.021 212.875C507.217 212.984 507.592 213.143 508.146 213.35C508.908 213.627 509.422 213.906 509.688 214.188C509.957 214.469 510.092 214.822 510.092 215.248ZM516.129 217L515.936 216.086H515.889C515.568 216.488 515.248 216.762 514.928 216.906C514.611 217.047 514.215 217.117 513.738 217.117C513.102 217.117 512.602 216.953 512.238 216.625C511.879 216.297 511.699 215.83 511.699 215.225C511.699 213.928 512.736 213.248 514.811 213.186L515.9 213.15V212.752C515.9 212.248 515.791 211.877 515.572 211.639C515.357 211.396 515.012 211.275 514.535 211.275C514 211.275 513.395 211.439 512.719 211.768L512.42 211.023C512.736 210.852 513.082 210.717 513.457 210.619C513.836 210.521 514.215 210.473 514.594 210.473C515.359 210.473 515.926 210.643 516.293 210.982C516.664 211.322 516.85 211.867 516.85 212.617V217H516.129ZM513.932 216.314C514.537 216.314 515.012 216.148 515.355 215.816C515.703 215.484 515.877 215.02 515.877 214.422V213.842L514.904 213.883C514.131 213.91 513.572 214.031 513.229 214.246C512.889 214.457 512.719 214.787 512.719 215.236C512.719 215.588 512.824 215.855 513.035 216.039C513.25 216.223 513.549 216.314 513.932 216.314ZM524.615 210.578V211.193L523.426 211.334C523.535 211.471 523.633 211.65 523.719 211.873C523.805 212.092 523.848 212.34 523.848 212.617C523.848 213.246 523.633 213.748 523.203 214.123C522.773 214.498 522.184 214.686 521.434 214.686C521.242 214.686 521.062 214.67 520.895 214.639C520.48 214.857 520.273 215.133 520.273 215.465C520.273 215.641 520.346 215.771 520.49 215.857C520.635 215.939 520.883 215.98 521.234 215.98H522.371C523.066 215.98 523.6 216.127 523.971 216.42C524.346 216.713 524.533 217.139 524.533 217.697C524.533 218.408 524.248 218.949 523.678 219.32C523.107 219.695 522.275 219.883 521.182 219.883C520.342 219.883 519.693 219.727 519.236 219.414C518.783 219.102 518.557 218.66 518.557 218.09C518.557 217.699 518.682 217.361 518.932 217.076C519.182 216.791 519.533 216.598 519.986 216.496C519.822 216.422 519.684 216.307 519.57 216.15C519.461 215.994 519.406 215.812 519.406 215.605C519.406 215.371 519.469 215.166 519.594 214.99C519.719 214.814 519.916 214.645 520.186 214.48C519.854 214.344 519.582 214.111 519.371 213.783C519.164 213.455 519.061 213.08 519.061 212.658C519.061 211.955 519.271 211.414 519.693 211.035C520.115 210.652 520.713 210.461 521.486 210.461C521.822 210.461 522.125 210.5 522.395 210.578H524.615ZM519.494 218.078C519.494 218.426 519.641 218.689 519.934 218.869C520.227 219.049 520.646 219.139 521.193 219.139C522.01 219.139 522.613 219.016 523.004 218.77C523.398 218.527 523.596 218.197 523.596 217.779C523.596 217.432 523.488 217.189 523.273 217.053C523.059 216.92 522.654 216.854 522.061 216.854H520.895C520.453 216.854 520.109 216.959 519.863 217.17C519.617 217.381 519.494 217.684 519.494 218.078ZM520.021 212.635C520.021 213.084 520.148 213.424 520.402 213.654C520.656 213.885 521.01 214 521.463 214C522.412 214 522.887 213.539 522.887 212.617C522.887 211.652 522.406 211.17 521.445 211.17C520.988 211.17 520.637 211.293 520.391 211.539C520.145 211.785 520.021 212.15 520.021 212.635ZM529.146 217.117C528.197 217.117 527.447 216.828 526.896 216.25C526.35 215.672 526.076 214.869 526.076 213.842C526.076 212.807 526.33 211.984 526.838 211.375C527.35 210.766 528.035 210.461 528.895 210.461C529.699 210.461 530.336 210.727 530.805 211.258C531.273 211.785 531.508 212.482 531.508 213.35V213.965H527.084C527.104 214.719 527.293 215.291 527.652 215.682C528.016 216.072 528.525 216.268 529.182 216.268C529.873 216.268 530.557 216.123 531.232 215.834V216.701C530.889 216.85 530.562 216.955 530.254 217.018C529.949 217.084 529.58 217.117 529.146 217.117ZM528.883 211.275C528.367 211.275 527.955 211.443 527.646 211.779C527.342 212.115 527.162 212.58 527.107 213.174H530.465C530.465 212.561 530.328 212.092 530.055 211.768C529.781 211.439 529.391 211.275 528.883 211.275ZM533.531 216.379C533.531 216.117 533.59 215.92 533.707 215.787C533.828 215.65 534 215.582 534.223 215.582C534.449 215.582 534.625 215.65 534.75 215.787C534.879 215.92 534.943 216.117 534.943 216.379C534.943 216.633 534.879 216.828 534.75 216.965C534.621 217.102 534.445 217.17 534.223 217.17C534.023 217.17 533.857 217.109 533.725 216.988C533.596 216.863 533.531 216.66 533.531 216.379Z" fill="#252A2E"/>
<path d="M561.258 208.434H563.807C564.912 208.434 565.746 208.594 566.309 208.914C566.871 209.234 567.152 209.787 567.152 210.572C567.152 210.9 567.094 211.197 566.977 211.463C566.863 211.725 566.697 211.941 566.479 212.113C566.26 212.281 565.99 212.395 565.67 212.453V212.512C566.002 212.57 566.297 212.674 566.555 212.822C566.816 212.971 567.021 213.184 567.17 213.461C567.322 213.738 567.398 214.098 567.398 214.539C567.398 215.062 567.273 215.508 567.023 215.875C566.777 216.242 566.424 216.521 565.963 216.713C565.506 216.904 564.963 217 564.334 217H561.258V208.434ZM562.664 211.967H564.012C564.648 211.967 565.09 211.863 565.336 211.656C565.582 211.449 565.705 211.146 565.705 210.748C565.705 210.342 565.559 210.049 565.266 209.869C564.977 209.689 564.516 209.6 563.883 209.6H562.664V211.967ZM562.664 213.104V215.822H564.146C564.803 215.822 565.264 215.695 565.529 215.441C565.795 215.188 565.928 214.844 565.928 214.41C565.928 214.145 565.867 213.914 565.746 213.719C565.629 213.523 565.436 213.373 565.166 213.268C564.896 213.158 564.533 213.104 564.076 213.104H562.664ZM574.832 210.514V217H573.748L573.56 216.127H573.484C573.347 216.35 573.173 216.535 572.962 216.684C572.752 216.828 572.517 216.936 572.259 217.006C572.002 217.08 571.73 217.117 571.445 217.117C570.957 217.117 570.539 217.035 570.191 216.871C569.847 216.703 569.584 216.445 569.4 216.098C569.216 215.75 569.125 215.301 569.125 214.75V210.514H570.507V214.492C570.507 214.996 570.609 215.373 570.812 215.623C571.019 215.873 571.339 215.998 571.773 215.998C572.191 215.998 572.523 215.912 572.769 215.74C573.015 215.568 573.189 215.314 573.291 214.979C573.396 214.643 573.449 214.23 573.449 213.742V210.514H574.832ZM579.37 216.004C579.55 216.004 579.728 215.988 579.904 215.957C580.079 215.922 580.239 215.881 580.384 215.834V216.877C580.232 216.943 580.034 217 579.792 217.047C579.55 217.094 579.298 217.117 579.036 217.117C578.669 217.117 578.339 217.057 578.046 216.936C577.753 216.811 577.521 216.598 577.349 216.297C577.177 215.996 577.091 215.58 577.091 215.049V211.562H576.206V210.947L577.155 210.461L577.607 209.072H578.474V210.514H580.331V211.562H578.474V215.031C578.474 215.359 578.556 215.604 578.72 215.764C578.884 215.924 579.101 216.004 579.37 216.004ZM584.266 216.004C584.446 216.004 584.624 215.988 584.8 215.957C584.975 215.922 585.136 215.881 585.28 215.834V216.877C585.128 216.943 584.93 217 584.688 217.047C584.446 217.094 584.194 217.117 583.932 217.117C583.565 217.117 583.235 217.057 582.942 216.936C582.649 216.811 582.417 216.598 582.245 216.297C582.073 215.996 581.987 215.58 581.987 215.049V211.562H581.102V210.947L582.052 210.461L582.503 209.072H583.37V210.514H585.227V211.562H583.37V215.031C583.37 215.359 583.452 215.604 583.616 215.764C583.78 215.924 583.997 216.004 584.266 216.004ZM592.491 213.742C592.491 214.281 592.42 214.76 592.28 215.178C592.139 215.596 591.934 215.949 591.664 216.238C591.395 216.523 591.071 216.742 590.692 216.895C590.313 217.043 589.885 217.117 589.409 217.117C588.963 217.117 588.555 217.043 588.184 216.895C587.813 216.742 587.491 216.523 587.217 216.238C586.948 215.949 586.739 215.596 586.59 215.178C586.442 214.76 586.368 214.281 586.368 213.742C586.368 213.027 586.491 212.422 586.737 211.926C586.987 211.426 587.342 211.045 587.803 210.783C588.264 210.521 588.813 210.391 589.45 210.391C590.047 210.391 590.575 210.521 591.032 210.783C591.489 211.045 591.846 211.426 592.104 211.926C592.362 212.426 592.491 213.031 592.491 213.742ZM587.786 213.742C587.786 214.215 587.842 214.619 587.955 214.955C588.073 215.291 588.252 215.549 588.495 215.729C588.737 215.904 589.049 215.992 589.432 215.992C589.815 215.992 590.127 215.904 590.37 215.729C590.612 215.549 590.789 215.291 590.903 214.955C591.016 214.619 591.073 214.215 591.073 213.742C591.073 213.27 591.016 212.869 590.903 212.541C590.789 212.209 590.612 211.957 590.37 211.785C590.127 211.609 589.813 211.521 589.426 211.521C588.856 211.521 588.44 211.713 588.178 212.096C587.916 212.479 587.786 213.027 587.786 213.742ZM597.604 210.391C598.334 210.391 598.902 210.58 599.309 210.959C599.719 211.334 599.924 211.938 599.924 212.77V217H598.547V213.027C598.547 212.523 598.443 212.146 598.236 211.896C598.029 211.643 597.709 211.516 597.275 211.516C596.646 211.516 596.209 211.709 595.963 212.096C595.721 212.482 595.6 213.043 595.6 213.777V217H594.223V210.514H595.295L595.488 211.393H595.564C595.705 211.166 595.879 210.98 596.086 210.836C596.297 210.688 596.531 210.576 596.789 210.502C597.051 210.428 597.322 210.391 597.604 210.391Z" fill="#353A40"/>
<rect x="545" y="197" width="71" height="30" rx="3" stroke="#353A40" stroke-width="2"/>
<rect x="328.5" y="192.5" width="304" height="39" rx="3.5" stroke="#DA212C"/>
<defs>
<clipPath id="clip0_431_73406">
<rect width="24" height="24" fill="white" transform="translate(344 32)"/>
</clipPath>
<clipPath id="clip1_431_73406">
<rect width="24" height="24" fill="white" transform="translate(344 200)"/>
</clipPath>
</defs>
</svg>
