<svg width="1010" height="276" viewBox="0 0 1010 276" fill="none" xmlns="http://www.w3.org/2000/svg">
<g filter="url(#filter0_d_431_73449)">
<rect width="994" height="260" transform="translate(8 8)" fill="#252A2E"/>
<rect x="336.5" y="83.5" width="337" height="47" rx="3.5" fill="#019AEB" fill-opacity="0.4"/>
<circle cx="364" cy="107" r="10" fill="white"/>
<path d="M364 97C358.48 97 354 101.48 354 107C354 112.52 358.48 117 364 117C369.52 117 374 112.52 374 107C374 101.48 369.52 97 364 97ZM365.06 111.15C365.06 111.7 364.61 112.15 364.06 112.15C363.51 112.15 363.06 111.7 363.06 111.15V107.01C363.06 106.46 363.51 106.01 364.06 106.01C364.61 106.01 365.06 106.46 365.06 107.01V111.15ZM364.06 104.04C363.51 104.04 363.06 103.59 363.06 103.04C363.06 102.49 363.51 102.04 364.06 102.04C364.61 102.04 365.06 102.49 365.06 103.04C365.06 103.59 364.61 104.04 364.06 104.04Z" fill="#019AEB"/>
<path d="M388.45 112H387.288V103.038H384.123V102.006H391.615V103.038H388.45V112ZM398.332 112V107.153C398.332 106.543 398.193 106.087 397.915 105.786C397.637 105.485 397.202 105.335 396.609 105.335C395.821 105.335 395.244 105.549 394.88 105.978C394.52 106.406 394.34 107.108 394.34 108.083V112H393.205V101.363H394.34V104.583C394.34 104.97 394.322 105.292 394.285 105.547H394.354C394.577 105.187 394.894 104.904 395.304 104.699C395.718 104.49 396.19 104.385 396.719 104.385C397.635 104.385 398.321 104.604 398.776 105.041C399.237 105.474 399.467 106.164 399.467 107.112V112H398.332ZM403.189 112H402.055V104.508H403.189V112ZM401.959 102.478C401.959 102.218 402.023 102.029 402.15 101.91C402.278 101.787 402.438 101.726 402.629 101.726C402.811 101.726 402.968 101.787 403.101 101.91C403.233 102.033 403.299 102.222 403.299 102.478C403.299 102.733 403.233 102.924 403.101 103.052C402.968 103.175 402.811 103.236 402.629 103.236C402.438 103.236 402.278 103.175 402.15 103.052C402.023 102.924 401.959 102.733 401.959 102.478ZM410.679 109.956C410.679 110.653 410.419 111.191 409.899 111.569C409.38 111.948 408.651 112.137 407.712 112.137C406.718 112.137 405.944 111.979 405.388 111.665V110.612C405.748 110.795 406.133 110.938 406.543 111.043C406.958 111.148 407.356 111.2 407.739 111.2C408.332 111.2 408.787 111.107 409.106 110.92C409.425 110.729 409.585 110.439 409.585 110.052C409.585 109.76 409.457 109.512 409.202 109.307C408.951 109.097 408.459 108.851 407.726 108.568C407.028 108.309 406.532 108.083 406.235 107.892C405.944 107.696 405.725 107.475 405.579 107.229C405.438 106.982 405.367 106.688 405.367 106.347C405.367 105.736 405.616 105.255 406.112 104.904C406.609 104.549 407.29 104.371 408.156 104.371C408.963 104.371 409.751 104.535 410.521 104.863L410.118 105.786C409.366 105.476 408.685 105.321 408.074 105.321C407.536 105.321 407.131 105.406 406.857 105.574C406.584 105.743 406.447 105.975 406.447 106.271C406.447 106.472 406.497 106.643 406.598 106.784C406.702 106.925 406.869 107.06 407.097 107.188C407.325 107.315 407.762 107.5 408.409 107.741C409.298 108.065 409.897 108.391 410.207 108.719C410.521 109.047 410.679 109.459 410.679 109.956ZM417.803 112H416.668V104.508H417.803V112ZM416.572 102.478C416.572 102.218 416.636 102.029 416.764 101.91C416.891 101.787 417.051 101.726 417.242 101.726C417.424 101.726 417.582 101.787 417.714 101.91C417.846 102.033 417.912 102.222 417.912 102.478C417.912 102.733 417.846 102.924 417.714 103.052C417.582 103.175 417.424 103.236 417.242 103.236C417.051 103.236 416.891 103.175 416.764 103.052C416.636 102.924 416.572 102.733 416.572 102.478ZM425.292 109.956C425.292 110.653 425.032 111.191 424.513 111.569C423.993 111.948 423.264 112.137 422.325 112.137C421.332 112.137 420.557 111.979 420.001 111.665V110.612C420.361 110.795 420.746 110.938 421.156 111.043C421.571 111.148 421.97 111.2 422.353 111.2C422.945 111.2 423.401 111.107 423.72 110.92C424.039 110.729 424.198 110.439 424.198 110.052C424.198 109.76 424.071 109.512 423.815 109.307C423.565 109.097 423.073 108.851 422.339 108.568C421.642 108.309 421.145 108.083 420.849 107.892C420.557 107.696 420.338 107.475 420.192 107.229C420.051 106.982 419.98 106.688 419.98 106.347C419.98 105.736 420.229 105.255 420.726 104.904C421.222 104.549 421.904 104.371 422.77 104.371C423.576 104.371 424.365 104.535 425.135 104.863L424.731 105.786C423.979 105.476 423.298 105.321 422.688 105.321C422.15 105.321 421.744 105.406 421.471 105.574C421.197 105.743 421.061 105.975 421.061 106.271C421.061 106.472 421.111 106.643 421.211 106.784C421.316 106.925 421.482 107.06 421.71 107.188C421.938 107.315 422.375 107.5 423.022 107.741C423.911 108.065 424.51 108.391 424.82 108.719C425.135 109.047 425.292 109.459 425.292 109.956ZM435.889 112L435.663 110.934H435.608C435.235 111.403 434.861 111.722 434.487 111.891C434.118 112.055 433.656 112.137 433.1 112.137C432.357 112.137 431.773 111.945 431.35 111.562C430.93 111.18 430.721 110.635 430.721 109.929C430.721 108.416 431.931 107.623 434.351 107.55L435.622 107.509V107.044C435.622 106.456 435.494 106.023 435.239 105.745C434.989 105.463 434.585 105.321 434.029 105.321C433.405 105.321 432.699 105.513 431.91 105.896L431.562 105.027C431.931 104.827 432.334 104.67 432.771 104.556C433.214 104.442 433.656 104.385 434.098 104.385C434.991 104.385 435.652 104.583 436.08 104.979C436.513 105.376 436.729 106.012 436.729 106.887V112H435.889ZM433.325 111.2C434.032 111.2 434.585 111.007 434.986 110.619C435.392 110.232 435.595 109.689 435.595 108.992V108.315L434.46 108.363C433.558 108.395 432.906 108.536 432.505 108.787C432.108 109.033 431.91 109.418 431.91 109.942C431.91 110.353 432.033 110.665 432.279 110.879C432.53 111.093 432.879 111.2 433.325 111.2ZM446.697 112.137C446.21 112.137 445.763 112.048 445.357 111.87C444.956 111.688 444.619 111.41 444.346 111.036H444.264C444.318 111.474 444.346 111.888 444.346 112.28V115.363H443.211V104.508H444.134L444.291 105.533H444.346C444.637 105.123 444.977 104.827 445.364 104.645C445.752 104.462 446.196 104.371 446.697 104.371C447.691 104.371 448.456 104.711 448.994 105.39C449.536 106.069 449.808 107.021 449.808 108.247C449.808 109.478 449.532 110.435 448.98 111.118C448.434 111.797 447.673 112.137 446.697 112.137ZM446.533 105.335C445.768 105.335 445.214 105.547 444.872 105.971C444.53 106.395 444.355 107.069 444.346 107.994V108.247C444.346 109.3 444.521 110.054 444.872 110.51C445.223 110.961 445.786 111.187 446.561 111.187C447.208 111.187 447.714 110.924 448.078 110.4C448.447 109.876 448.632 109.154 448.632 108.233C448.632 107.299 448.447 106.584 448.078 106.087C447.714 105.586 447.199 105.335 446.533 105.335ZM455.465 104.371C455.798 104.371 456.096 104.398 456.36 104.453L456.203 105.506C455.893 105.438 455.62 105.403 455.383 105.403C454.777 105.403 454.257 105.649 453.824 106.142C453.396 106.634 453.182 107.247 453.182 107.98V112H452.047V104.508H452.983L453.113 105.896H453.168C453.446 105.408 453.781 105.032 454.173 104.768C454.565 104.503 454.995 104.371 455.465 104.371ZM459.146 112H458.012V104.508H459.146V112ZM457.916 102.478C457.916 102.218 457.98 102.029 458.107 101.91C458.235 101.787 458.395 101.726 458.586 101.726C458.768 101.726 458.925 101.787 459.058 101.91C459.19 102.033 459.256 102.222 459.256 102.478C459.256 102.733 459.19 102.924 459.058 103.052C458.925 103.175 458.768 103.236 458.586 103.236C458.395 103.236 458.235 103.175 458.107 103.052C457.98 102.924 457.916 102.733 457.916 102.478ZM471.353 112V107.126C471.353 106.529 471.225 106.082 470.97 105.786C470.715 105.485 470.318 105.335 469.78 105.335C469.074 105.335 468.552 105.538 468.215 105.943C467.878 106.349 467.709 106.973 467.709 107.816V112H466.574V107.126C466.574 106.529 466.447 106.082 466.191 105.786C465.936 105.485 465.537 105.335 464.995 105.335C464.284 105.335 463.762 105.549 463.43 105.978C463.102 106.401 462.938 107.099 462.938 108.069V112H461.803V104.508H462.726L462.91 105.533H462.965C463.179 105.169 463.48 104.884 463.867 104.679C464.259 104.474 464.697 104.371 465.18 104.371C466.351 104.371 467.117 104.795 467.477 105.643H467.531C467.755 105.251 468.078 104.941 468.502 104.713C468.926 104.485 469.409 104.371 469.951 104.371C470.799 104.371 471.432 104.59 471.852 105.027C472.275 105.46 472.487 106.155 472.487 107.112V112H471.353ZM479.689 112L479.464 110.934H479.409C479.035 111.403 478.662 111.722 478.288 111.891C477.919 112.055 477.456 112.137 476.9 112.137C476.158 112.137 475.574 111.945 475.15 111.562C474.731 111.18 474.521 110.635 474.521 109.929C474.521 108.416 475.731 107.623 478.151 107.55L479.423 107.509V107.044C479.423 106.456 479.295 106.023 479.04 105.745C478.789 105.463 478.386 105.321 477.83 105.321C477.206 105.321 476.499 105.513 475.711 105.896L475.362 105.027C475.731 104.827 476.135 104.67 476.572 104.556C477.014 104.442 477.456 104.385 477.898 104.385C478.792 104.385 479.452 104.583 479.881 104.979C480.314 105.376 480.53 106.012 480.53 106.887V112H479.689ZM477.126 111.2C477.832 111.2 478.386 111.007 478.787 110.619C479.193 110.232 479.396 109.689 479.396 108.992V108.315L478.261 108.363C477.358 108.395 476.707 108.536 476.306 108.787C475.909 109.033 475.711 109.418 475.711 109.942C475.711 110.353 475.834 110.665 476.08 110.879C476.331 111.093 476.679 111.2 477.126 111.2ZM486.543 104.371C486.876 104.371 487.174 104.398 487.438 104.453L487.281 105.506C486.971 105.438 486.698 105.403 486.461 105.403C485.855 105.403 485.335 105.649 484.902 106.142C484.474 106.634 484.26 107.247 484.26 107.98V112H483.125V104.508H484.062L484.191 105.896H484.246C484.524 105.408 484.859 105.032 485.251 104.768C485.643 104.503 486.074 104.371 486.543 104.371ZM487.9 104.508H489.117L490.758 108.78C491.118 109.756 491.341 110.46 491.428 110.893H491.482C491.542 110.66 491.665 110.264 491.852 109.703C492.043 109.138 492.663 107.406 493.711 104.508H494.928L491.708 113.039C491.389 113.882 491.015 114.479 490.587 114.83C490.163 115.186 489.641 115.363 489.021 115.363C488.675 115.363 488.333 115.325 487.996 115.247V114.338C488.247 114.393 488.527 114.42 488.837 114.42C489.616 114.42 490.172 113.982 490.505 113.107L490.922 112.041L487.9 104.508ZM509.831 112V107.126C509.831 106.529 509.703 106.082 509.448 105.786C509.193 105.485 508.797 105.335 508.259 105.335C507.552 105.335 507.031 105.538 506.693 105.943C506.356 106.349 506.188 106.973 506.188 107.816V112H505.053V107.126C505.053 106.529 504.925 106.082 504.67 105.786C504.415 105.485 504.016 105.335 503.474 105.335C502.763 105.335 502.241 105.549 501.908 105.978C501.58 106.401 501.416 107.099 501.416 108.069V112H500.281V104.508H501.204L501.389 105.533H501.443C501.658 105.169 501.958 104.884 502.346 104.679C502.738 104.474 503.175 104.371 503.658 104.371C504.829 104.371 505.595 104.795 505.955 105.643H506.01C506.233 105.251 506.557 104.941 506.98 104.713C507.404 104.485 507.887 104.371 508.43 104.371C509.277 104.371 509.911 104.59 510.33 105.027C510.754 105.46 510.966 106.155 510.966 107.112V112H509.831ZM516.726 112.137C515.618 112.137 514.743 111.799 514.101 111.125C513.463 110.451 513.144 109.514 513.144 108.315C513.144 107.108 513.44 106.148 514.032 105.438C514.629 104.727 515.429 104.371 516.432 104.371C517.37 104.371 518.113 104.681 518.66 105.301C519.207 105.916 519.48 106.729 519.48 107.741V108.459H514.319C514.342 109.339 514.563 110.006 514.982 110.462C515.406 110.918 516.001 111.146 516.767 111.146C517.573 111.146 518.371 110.977 519.159 110.64V111.651C518.758 111.825 518.378 111.948 518.018 112.021C517.662 112.098 517.231 112.137 516.726 112.137ZM516.418 105.321C515.816 105.321 515.336 105.517 514.976 105.909C514.62 106.301 514.41 106.843 514.347 107.536H518.264C518.264 106.821 518.104 106.274 517.785 105.896C517.466 105.513 517.01 105.321 516.418 105.321ZM526.505 109.956C526.505 110.653 526.245 111.191 525.726 111.569C525.206 111.948 524.477 112.137 523.538 112.137C522.545 112.137 521.77 111.979 521.214 111.665V110.612C521.574 110.795 521.959 110.938 522.369 111.043C522.784 111.148 523.183 111.2 523.565 111.2C524.158 111.2 524.614 111.107 524.933 110.92C525.252 110.729 525.411 110.439 525.411 110.052C525.411 109.76 525.284 109.512 525.028 109.307C524.778 109.097 524.285 108.851 523.552 108.568C522.854 108.309 522.358 108.083 522.062 107.892C521.77 107.696 521.551 107.475 521.405 107.229C521.264 106.982 521.193 106.688 521.193 106.347C521.193 105.736 521.442 105.255 521.938 104.904C522.435 104.549 523.117 104.371 523.982 104.371C524.789 104.371 525.577 104.535 526.348 104.863L525.944 105.786C525.192 105.476 524.511 105.321 523.9 105.321C523.363 105.321 522.957 105.406 522.684 105.574C522.41 105.743 522.273 105.975 522.273 106.271C522.273 106.472 522.324 106.643 522.424 106.784C522.529 106.925 522.695 107.06 522.923 107.188C523.151 107.315 523.588 107.5 524.235 107.741C525.124 108.065 525.723 108.391 526.033 108.719C526.348 109.047 526.505 109.459 526.505 109.956ZM533.44 109.956C533.44 110.653 533.181 111.191 532.661 111.569C532.142 111.948 531.412 112.137 530.474 112.137C529.48 112.137 528.705 111.979 528.149 111.665V110.612C528.509 110.795 528.895 110.938 529.305 111.043C529.719 111.148 530.118 111.2 530.501 111.2C531.093 111.2 531.549 111.107 531.868 110.92C532.187 110.729 532.347 110.439 532.347 110.052C532.347 109.76 532.219 109.512 531.964 109.307C531.713 109.097 531.221 108.851 530.487 108.568C529.79 108.309 529.293 108.083 528.997 107.892C528.705 107.696 528.487 107.475 528.341 107.229C528.2 106.982 528.129 106.688 528.129 106.347C528.129 105.736 528.377 105.255 528.874 104.904C529.371 104.549 530.052 104.371 530.918 104.371C531.725 104.371 532.513 104.535 533.283 104.863L532.88 105.786C532.128 105.476 531.447 105.321 530.836 105.321C530.298 105.321 529.893 105.406 529.619 105.574C529.346 105.743 529.209 105.975 529.209 106.271C529.209 106.472 529.259 106.643 529.359 106.784C529.464 106.925 529.631 107.06 529.858 107.188C530.086 107.315 530.524 107.5 531.171 107.741C532.06 108.065 532.659 108.391 532.969 108.719C533.283 109.047 533.44 109.459 533.44 109.956ZM540.15 112L539.925 110.934H539.87C539.496 111.403 539.123 111.722 538.749 111.891C538.38 112.055 537.917 112.137 537.361 112.137C536.618 112.137 536.035 111.945 535.611 111.562C535.192 111.18 534.982 110.635 534.982 109.929C534.982 108.416 536.192 107.623 538.612 107.55L539.884 107.509V107.044C539.884 106.456 539.756 106.023 539.501 105.745C539.25 105.463 538.847 105.321 538.291 105.321C537.667 105.321 536.96 105.513 536.172 105.896L535.823 105.027C536.192 104.827 536.596 104.67 537.033 104.556C537.475 104.442 537.917 104.385 538.359 104.385C539.253 104.385 539.913 104.583 540.342 104.979C540.775 105.376 540.991 106.012 540.991 106.887V112H540.15ZM537.587 111.2C538.293 111.2 538.847 111.007 539.248 110.619C539.654 110.232 539.856 109.689 539.856 108.992V108.315L538.722 108.363C537.819 108.395 537.168 108.536 536.767 108.787C536.37 109.033 536.172 109.418 536.172 109.942C536.172 110.353 536.295 110.665 536.541 110.879C536.792 111.093 537.14 111.2 537.587 111.2ZM549.718 104.508V105.226L548.33 105.39C548.458 105.549 548.572 105.759 548.672 106.019C548.772 106.274 548.822 106.563 548.822 106.887C548.822 107.62 548.572 108.206 548.07 108.644C547.569 109.081 546.881 109.3 546.006 109.3C545.783 109.3 545.573 109.282 545.377 109.245C544.894 109.5 544.652 109.822 544.652 110.209C544.652 110.414 544.737 110.567 544.905 110.667C545.074 110.763 545.363 110.811 545.773 110.811H547.1C547.911 110.811 548.533 110.981 548.966 111.323C549.403 111.665 549.622 112.162 549.622 112.813C549.622 113.643 549.289 114.274 548.624 114.707C547.959 115.145 546.988 115.363 545.712 115.363C544.732 115.363 543.976 115.181 543.442 114.816C542.914 114.452 542.649 113.937 542.649 113.271C542.649 112.816 542.795 112.422 543.087 112.089C543.379 111.756 543.789 111.531 544.317 111.412C544.126 111.326 543.964 111.191 543.832 111.009C543.704 110.826 543.641 110.615 543.641 110.373C543.641 110.1 543.714 109.86 543.859 109.655C544.005 109.45 544.235 109.252 544.55 109.061C544.162 108.901 543.846 108.63 543.6 108.247C543.358 107.864 543.237 107.427 543.237 106.935C543.237 106.114 543.483 105.483 543.976 105.041C544.468 104.594 545.165 104.371 546.067 104.371C546.459 104.371 546.812 104.417 547.127 104.508H549.718ZM543.743 113.258C543.743 113.663 543.914 113.971 544.256 114.181C544.598 114.39 545.088 114.495 545.726 114.495C546.678 114.495 547.382 114.352 547.838 114.064C548.298 113.782 548.528 113.397 548.528 112.909C548.528 112.504 548.403 112.221 548.152 112.062C547.902 111.907 547.43 111.829 546.737 111.829H545.377C544.862 111.829 544.461 111.952 544.174 112.198C543.887 112.444 543.743 112.798 543.743 113.258ZM544.358 106.907C544.358 107.431 544.507 107.828 544.803 108.097C545.099 108.366 545.511 108.5 546.04 108.5C547.147 108.5 547.701 107.962 547.701 106.887C547.701 105.761 547.141 105.198 546.02 105.198C545.486 105.198 545.076 105.342 544.789 105.629C544.502 105.916 544.358 106.342 544.358 106.907ZM554.671 112.137C553.563 112.137 552.688 111.799 552.046 111.125C551.408 110.451 551.089 109.514 551.089 108.315C551.089 107.108 551.385 106.148 551.978 105.438C552.575 104.727 553.374 104.371 554.377 104.371C555.316 104.371 556.059 104.681 556.605 105.301C557.152 105.916 557.426 106.729 557.426 107.741V108.459H552.265C552.287 109.339 552.508 110.006 552.928 110.462C553.352 110.918 553.946 111.146 554.712 111.146C555.519 111.146 556.316 110.977 557.104 110.64V111.651C556.703 111.825 556.323 111.948 555.963 112.021C555.607 112.098 555.177 112.137 554.671 112.137ZM554.363 105.321C553.762 105.321 553.281 105.517 552.921 105.909C552.565 106.301 552.356 106.843 552.292 107.536H556.209C556.209 106.821 556.049 106.274 555.73 105.896C555.411 105.513 554.956 105.321 554.363 105.321ZM559.453 111.275C559.453 110.97 559.521 110.74 559.658 110.585C559.799 110.425 560 110.346 560.26 110.346C560.524 110.346 560.729 110.425 560.875 110.585C561.025 110.74 561.101 110.97 561.101 111.275C561.101 111.572 561.025 111.799 560.875 111.959C560.725 112.118 560.52 112.198 560.26 112.198C560.027 112.198 559.834 112.128 559.679 111.986C559.528 111.84 559.453 111.604 559.453 111.275Z" fill="white"/>
<g clip-path="url(#clip0_431_73449)">
<path d="M588.719 101.578H592.117C593.591 101.578 594.703 101.792 595.453 102.219C596.203 102.646 596.578 103.383 596.578 104.43C596.578 104.867 596.5 105.263 596.344 105.617C596.193 105.966 595.971 106.255 595.68 106.484C595.388 106.708 595.029 106.859 594.602 106.938V107.016C595.044 107.094 595.438 107.232 595.781 107.43C596.13 107.628 596.404 107.911 596.602 108.281C596.805 108.651 596.906 109.13 596.906 109.719C596.906 110.417 596.74 111.01 596.406 111.5C596.078 111.99 595.607 112.362 594.992 112.617C594.383 112.872 593.659 113 592.82 113H588.719V101.578ZM590.594 106.289H592.391C593.24 106.289 593.828 106.151 594.156 105.875C594.484 105.599 594.648 105.195 594.648 104.664C594.648 104.122 594.453 103.732 594.062 103.492C593.677 103.253 593.062 103.133 592.219 103.133H590.594V106.289ZM590.594 107.805V111.43H592.57C593.445 111.43 594.06 111.26 594.414 110.922C594.768 110.583 594.945 110.125 594.945 109.547C594.945 109.193 594.865 108.885 594.703 108.625C594.547 108.365 594.289 108.164 593.93 108.023C593.57 107.878 593.086 107.805 592.477 107.805H590.594ZM606.867 104.352V113H605.422L605.172 111.836H605.07C604.888 112.133 604.656 112.38 604.375 112.578C604.094 112.771 603.781 112.914 603.438 113.008C603.094 113.107 602.732 113.156 602.352 113.156C601.701 113.156 601.143 113.047 600.68 112.828C600.221 112.604 599.87 112.26 599.625 111.797C599.38 111.333 599.258 110.734 599.258 110V104.352H601.102V109.656C601.102 110.328 601.237 110.831 601.508 111.164C601.784 111.497 602.211 111.664 602.789 111.664C603.346 111.664 603.789 111.549 604.117 111.32C604.445 111.091 604.677 110.753 604.812 110.305C604.953 109.857 605.023 109.307 605.023 108.656V104.352H606.867ZM612.969 111.672C613.208 111.672 613.445 111.651 613.68 111.609C613.914 111.562 614.128 111.508 614.32 111.445V112.836C614.117 112.924 613.854 113 613.531 113.062C613.208 113.125 612.872 113.156 612.523 113.156C612.034 113.156 611.594 113.076 611.203 112.914C610.812 112.747 610.503 112.464 610.273 112.062C610.044 111.661 609.93 111.107 609.93 110.398V105.75H608.75V104.93L610.016 104.281L610.617 102.43H611.773V104.352H614.25V105.75H611.773V110.375C611.773 110.812 611.883 111.138 612.102 111.352C612.32 111.565 612.609 111.672 612.969 111.672ZM619.547 111.672C619.786 111.672 620.023 111.651 620.258 111.609C620.492 111.562 620.706 111.508 620.898 111.445V112.836C620.695 112.924 620.432 113 620.109 113.062C619.786 113.125 619.451 113.156 619.102 113.156C618.612 113.156 618.172 113.076 617.781 112.914C617.391 112.747 617.081 112.464 616.852 112.062C616.622 111.661 616.508 111.107 616.508 110.398V105.75H615.328V104.93L616.594 104.281L617.195 102.43H618.352V104.352H620.828V105.75H618.352V110.375C618.352 110.812 618.461 111.138 618.68 111.352C618.898 111.565 619.188 111.672 619.547 111.672ZM630.562 108.656C630.562 109.375 630.469 110.013 630.281 110.57C630.094 111.128 629.82 111.599 629.461 111.984C629.102 112.365 628.669 112.656 628.164 112.859C627.659 113.057 627.089 113.156 626.453 113.156C625.859 113.156 625.315 113.057 624.82 112.859C624.326 112.656 623.896 112.365 623.531 111.984C623.172 111.599 622.893 111.128 622.695 110.57C622.497 110.013 622.398 109.375 622.398 108.656C622.398 107.703 622.562 106.896 622.891 106.234C623.224 105.568 623.698 105.06 624.312 104.711C624.927 104.362 625.659 104.188 626.508 104.188C627.305 104.188 628.008 104.362 628.617 104.711C629.227 105.06 629.703 105.568 630.047 106.234C630.391 106.901 630.562 107.708 630.562 108.656ZM624.289 108.656C624.289 109.286 624.365 109.826 624.516 110.273C624.672 110.721 624.911 111.065 625.234 111.305C625.557 111.539 625.974 111.656 626.484 111.656C626.995 111.656 627.411 111.539 627.734 111.305C628.057 111.065 628.294 110.721 628.445 110.273C628.596 109.826 628.672 109.286 628.672 108.656C628.672 108.026 628.596 107.492 628.445 107.055C628.294 106.612 628.057 106.276 627.734 106.047C627.411 105.812 626.992 105.695 626.477 105.695C625.716 105.695 625.161 105.951 624.812 106.461C624.464 106.971 624.289 107.703 624.289 108.656ZM637.43 104.188C638.404 104.188 639.161 104.44 639.703 104.945C640.25 105.445 640.523 106.25 640.523 107.359V113H638.688V107.703C638.688 107.031 638.549 106.529 638.273 106.195C637.997 105.857 637.57 105.688 636.992 105.688C636.154 105.688 635.57 105.945 635.242 106.461C634.919 106.977 634.758 107.724 634.758 108.703V113H632.922V104.352H634.352L634.609 105.523H634.711C634.898 105.221 635.13 104.974 635.406 104.781C635.688 104.583 636 104.435 636.344 104.336C636.693 104.237 637.055 104.188 637.43 104.188Z" fill="white"/>
</g>
<rect x="572" y="88" width="85" height="38" rx="3" stroke="#019AEB" stroke-width="2"/>
<rect x="336.5" y="83.5" width="337" height="47" rx="3.5" stroke="#019AEB"/>
<rect x="336.5" y="145.5" width="337" height="47" rx="3.5" fill="#6A6E79" fill-opacity="0.4"/>
<path d="M358.419 160.395C358.007 160.395 357.617 160.477 357.262 160.624C356.906 160.772 356.497 160.603 356.35 160.247C356.202 159.891 356.371 159.483 356.727 159.336C357.249 159.119 357.821 159 358.419 159H359.814C360.199 159 360.512 159.312 360.512 159.698C360.512 160.083 360.199 160.395 359.814 160.395H358.419Z" fill="white"/>
<path d="M361.907 159.698C361.907 159.312 362.219 159 362.605 159H365.395C365.781 159 366.093 159.312 366.093 159.698C366.093 160.083 365.781 160.395 365.395 160.395H362.605C362.219 160.395 361.907 160.083 361.907 159.698Z" fill="white"/>
<path d="M367.488 159.698C367.488 159.312 367.801 159 368.186 159H369.581C370.179 159 370.751 159.119 371.273 159.336C371.629 159.483 371.798 159.891 371.65 160.247C371.503 160.603 371.094 160.772 370.738 160.624C370.383 160.477 369.993 160.395 369.581 160.395H368.186C367.801 160.395 367.488 160.083 367.488 159.698Z" fill="white"/>
<path d="M355.247 161.35C355.603 161.497 355.772 161.906 355.624 162.262C355.477 162.617 355.395 163.007 355.395 163.419V164.814C355.395 165.199 355.083 165.512 354.698 165.512C354.312 165.512 354 165.199 354 164.814V163.419C354 162.821 354.119 162.249 354.336 161.727C354.483 161.371 354.891 161.202 355.247 161.35Z" fill="white"/>
<path d="M372.753 161.35C373.109 161.202 373.517 161.371 373.664 161.727C373.881 162.249 374 162.821 374 163.419V164.814C374 165.199 373.688 165.512 373.302 165.512C372.917 165.512 372.605 165.199 372.605 164.814V163.419C372.605 163.007 372.523 162.617 372.376 162.262C372.228 161.906 372.397 161.497 372.753 161.35Z" fill="white"/>
<path d="M354.698 166.907C355.083 166.907 355.395 167.219 355.395 167.605V170.395C355.395 170.781 355.083 171.093 354.698 171.093C354.312 171.093 354 170.781 354 170.395V167.605C354 167.219 354.312 166.907 354.698 166.907Z" fill="white"/>
<path d="M373.302 166.907C373.688 166.907 374 167.219 374 167.605V170.395C374 170.781 373.688 171.093 373.302 171.093C372.917 171.093 372.605 170.781 372.605 170.395V167.605C372.605 167.219 372.917 166.907 373.302 166.907Z" fill="white"/>
<path d="M354.698 172.488C355.083 172.488 355.395 172.801 355.395 173.186V174.581C355.395 174.993 355.477 175.383 355.624 175.738C355.772 176.094 355.603 176.503 355.247 176.65C354.891 176.798 354.483 176.629 354.336 176.273C354.119 175.751 354 175.179 354 174.581V173.186C354 172.801 354.312 172.488 354.698 172.488Z" fill="white"/>
<path d="M373.302 172.488C373.688 172.488 374 172.801 374 173.186V174.581C374 175.179 373.881 175.751 373.664 176.273C373.517 176.629 373.109 176.798 372.753 176.65C372.397 176.503 372.228 176.094 372.376 175.738C372.523 175.383 372.605 174.993 372.605 174.581V173.186C372.605 172.801 372.917 172.488 373.302 172.488Z" fill="white"/>
<path d="M356.35 177.753C356.497 177.397 356.906 177.228 357.262 177.376C357.617 177.523 358.007 177.605 358.419 177.605H359.814C360.199 177.605 360.512 177.917 360.512 178.302C360.512 178.688 360.199 179 359.814 179H358.419C357.821 179 357.249 178.881 356.727 178.664C356.371 178.517 356.202 178.109 356.35 177.753Z" fill="white"/>
<path d="M371.65 177.753C371.798 178.109 371.629 178.517 371.273 178.664C370.751 178.881 370.179 179 369.581 179H368.186C367.801 179 367.488 178.688 367.488 178.302C367.488 177.917 367.801 177.605 368.186 177.605H369.581C369.993 177.605 370.383 177.523 370.738 177.376C371.094 177.228 371.503 177.397 371.65 177.753Z" fill="white"/>
<path d="M361.907 178.302C361.907 177.917 362.219 177.605 362.605 177.605H365.395C365.781 177.605 366.093 177.917 366.093 178.302C366.093 178.688 365.781 179 365.395 179H362.605C362.219 179 361.907 178.688 361.907 178.302Z" fill="white"/>
<path d="M371.935 162.108C372.208 161.835 372.208 161.394 371.935 161.121C371.663 160.849 371.221 160.849 370.949 161.121L370.022 162.048C369.749 162.32 369.749 162.762 370.022 163.035C370.294 163.307 370.736 163.307 371.008 163.035L371.935 162.108Z" fill="white"/>
<path d="M369.155 164.888C369.428 164.616 369.428 164.174 369.155 163.901C368.883 163.629 368.441 163.629 368.168 163.901L366.315 165.755C366.043 166.027 366.043 166.469 366.315 166.741C366.587 167.014 367.029 167.014 367.302 166.741L369.155 164.888Z" fill="white"/>
<path d="M365.448 168.595C365.721 168.322 365.721 167.881 365.448 167.608C365.176 167.336 364.734 167.336 364.462 167.608L364 168.07L363.538 167.608C363.266 167.336 362.824 167.336 362.552 167.608C362.279 167.881 362.279 168.322 362.552 168.595L363.013 169.056L362.608 169.462C362.336 169.734 362.336 170.176 362.608 170.448C362.881 170.721 363.322 170.721 363.595 170.448L364 170.043L364.405 170.448C364.678 170.721 365.119 170.721 365.392 170.448C365.664 170.176 365.664 169.734 365.392 169.462L364.987 169.056L365.448 168.595Z" fill="white"/>
<path d="M361.741 172.302C362.014 172.029 362.014 171.587 361.741 171.315C361.469 171.043 361.027 171.043 360.755 171.315L358.901 173.168C358.629 173.441 358.629 173.883 358.901 174.155C359.174 174.428 359.616 174.428 359.888 174.155L361.741 172.302Z" fill="white"/>
<path d="M358.035 176.008C358.307 175.736 358.307 175.294 358.035 175.022C357.762 174.749 357.32 174.749 357.048 175.022L356.121 175.949C355.849 176.221 355.849 176.663 356.121 176.935C356.394 177.208 356.835 177.208 357.108 176.935L358.035 176.008Z" fill="white"/>
<path d="M370.892 176.935C371.165 177.208 371.606 177.208 371.879 176.935C372.151 176.663 372.151 176.221 371.879 175.949L370.952 175.022C370.68 174.749 370.238 174.749 369.965 175.022C369.693 175.294 369.693 175.736 369.965 176.008L370.892 176.935Z" fill="white"/>
<path d="M368.112 174.155C368.384 174.428 368.826 174.428 369.099 174.155C369.371 173.883 369.371 173.441 369.099 173.168L367.245 171.315C366.973 171.043 366.531 171.043 366.259 171.315C365.986 171.587 365.986 172.029 366.259 172.302L368.112 174.155Z" fill="white"/>
<path d="M360.698 166.741C360.971 167.014 361.413 167.014 361.685 166.741C361.957 166.469 361.957 166.027 361.685 165.755L359.832 163.901C359.559 163.629 359.117 163.629 358.845 163.901C358.572 164.174 358.572 164.616 358.845 164.888L360.698 166.741Z" fill="white"/>
<path d="M356.992 163.035C357.264 163.307 357.706 163.307 357.978 163.035C358.251 162.762 358.251 162.32 357.978 162.048L357.051 161.121C356.779 160.849 356.337 160.849 356.065 161.121C355.792 161.394 355.792 161.835 356.065 162.108L356.992 163.035Z" fill="white"/>
<path d="M361.261 164.246C361.538 164.162 361.833 164.116 362.14 164.116H362.837C363.223 164.116 363.535 163.804 363.535 163.419C363.535 163.033 363.223 162.721 362.837 162.721H362.14C361.694 162.721 361.264 162.787 360.857 162.91C360.488 163.022 360.28 163.411 360.391 163.78C360.503 164.149 360.893 164.357 361.261 164.246Z" fill="white"/>
<path d="M365.163 162.721C364.777 162.721 364.465 163.033 364.465 163.419C364.465 163.804 364.777 164.116 365.163 164.116H365.86C366.167 164.116 366.462 164.162 366.739 164.246C367.107 164.357 367.497 164.149 367.609 163.78C367.72 163.411 367.512 163.022 367.143 162.91C366.736 162.787 366.306 162.721 365.86 162.721H365.163Z" fill="white"/>
<path d="M359.246 166.261C359.357 165.893 359.149 165.503 358.78 165.391C358.411 165.28 358.022 165.488 357.91 165.857C357.787 166.264 357.721 166.694 357.721 167.14V167.837C357.721 168.223 358.033 168.535 358.419 168.535C358.804 168.535 359.116 168.223 359.116 167.837V167.14C359.116 166.833 359.162 166.538 359.246 166.261Z" fill="white"/>
<path d="M370.09 165.857C369.978 165.488 369.589 165.28 369.22 165.391C368.851 165.503 368.643 165.893 368.754 166.261C368.838 166.538 368.884 166.833 368.884 167.14V167.837C368.884 168.223 369.196 168.535 369.581 168.535C369.967 168.535 370.279 168.223 370.279 167.837V167.14C370.279 166.694 370.213 166.264 370.09 165.857Z" fill="white"/>
<path d="M359.116 170.163C359.116 169.777 358.804 169.465 358.419 169.465C358.033 169.465 357.721 169.777 357.721 170.163V170.86C357.721 171.306 357.787 171.736 357.91 172.143C358.022 172.512 358.411 172.72 358.78 172.609C359.149 172.497 359.357 172.107 359.246 171.739C359.162 171.462 359.116 171.167 359.116 170.86V170.163Z" fill="white"/>
<path d="M370.279 170.163C370.279 169.777 369.967 169.465 369.581 169.465C369.196 169.465 368.884 169.777 368.884 170.163V170.86C368.884 171.167 368.838 171.462 368.754 171.739C368.643 172.107 368.851 172.497 369.22 172.609C369.589 172.72 369.978 172.512 370.09 172.143C370.213 171.736 370.279 171.306 370.279 170.86V170.163Z" fill="white"/>
<path d="M361.261 173.754C360.893 173.643 360.503 173.851 360.391 174.22C360.28 174.589 360.488 174.978 360.857 175.09C361.264 175.213 361.694 175.279 362.14 175.279H362.837C363.223 175.279 363.535 174.967 363.535 174.581C363.535 174.196 363.223 173.884 362.837 173.884H362.14C361.833 173.884 361.538 173.838 361.261 173.754Z" fill="white"/>
<path d="M367.143 175.09C367.512 174.978 367.72 174.589 367.609 174.22C367.497 173.851 367.107 173.643 366.739 173.754C366.462 173.838 366.167 173.884 365.86 173.884H365.163C364.777 173.884 364.465 174.196 364.465 174.581C364.465 174.967 364.777 175.279 365.163 175.279H365.86C366.306 175.279 366.736 175.213 367.143 175.09Z" fill="white"/>
<path d="M388.45 174H387.288V165.038H384.123V164.006H391.615V165.038H388.45V174ZM398.332 174V169.153C398.332 168.543 398.193 168.087 397.915 167.786C397.637 167.485 397.202 167.335 396.609 167.335C395.821 167.335 395.244 167.549 394.88 167.978C394.52 168.406 394.34 169.108 394.34 170.083V174H393.205V163.363H394.34V166.583C394.34 166.97 394.322 167.292 394.285 167.547H394.354C394.577 167.187 394.894 166.904 395.304 166.699C395.718 166.49 396.19 166.385 396.719 166.385C397.635 166.385 398.321 166.604 398.776 167.041C399.237 167.474 399.467 168.164 399.467 169.112V174H398.332ZM403.189 174H402.055V166.508H403.189V174ZM401.959 164.478C401.959 164.218 402.023 164.029 402.15 163.91C402.278 163.787 402.438 163.726 402.629 163.726C402.811 163.726 402.968 163.787 403.101 163.91C403.233 164.033 403.299 164.222 403.299 164.478C403.299 164.733 403.233 164.924 403.101 165.052C402.968 165.175 402.811 165.236 402.629 165.236C402.438 165.236 402.278 165.175 402.15 165.052C402.023 164.924 401.959 164.733 401.959 164.478ZM410.679 171.956C410.679 172.653 410.419 173.191 409.899 173.569C409.38 173.948 408.651 174.137 407.712 174.137C406.718 174.137 405.944 173.979 405.388 173.665V172.612C405.748 172.795 406.133 172.938 406.543 173.043C406.958 173.148 407.356 173.2 407.739 173.2C408.332 173.2 408.787 173.107 409.106 172.92C409.425 172.729 409.585 172.439 409.585 172.052C409.585 171.76 409.457 171.512 409.202 171.307C408.951 171.097 408.459 170.851 407.726 170.568C407.028 170.309 406.532 170.083 406.235 169.892C405.944 169.696 405.725 169.475 405.579 169.229C405.438 168.982 405.367 168.688 405.367 168.347C405.367 167.736 405.616 167.255 406.112 166.904C406.609 166.549 407.29 166.371 408.156 166.371C408.963 166.371 409.751 166.535 410.521 166.863L410.118 167.786C409.366 167.476 408.685 167.321 408.074 167.321C407.536 167.321 407.131 167.406 406.857 167.574C406.584 167.743 406.447 167.975 406.447 168.271C406.447 168.472 406.497 168.643 406.598 168.784C406.702 168.925 406.869 169.06 407.097 169.188C407.325 169.315 407.762 169.5 408.409 169.741C409.298 170.065 409.897 170.391 410.207 170.719C410.521 171.047 410.679 171.459 410.679 171.956ZM417.803 174H416.668V166.508H417.803V174ZM416.572 164.478C416.572 164.218 416.636 164.029 416.764 163.91C416.891 163.787 417.051 163.726 417.242 163.726C417.424 163.726 417.582 163.787 417.714 163.91C417.846 164.033 417.912 164.222 417.912 164.478C417.912 164.733 417.846 164.924 417.714 165.052C417.582 165.175 417.424 165.236 417.242 165.236C417.051 165.236 416.891 165.175 416.764 165.052C416.636 164.924 416.572 164.733 416.572 164.478ZM425.292 171.956C425.292 172.653 425.032 173.191 424.513 173.569C423.993 173.948 423.264 174.137 422.325 174.137C421.332 174.137 420.557 173.979 420.001 173.665V172.612C420.361 172.795 420.746 172.938 421.156 173.043C421.571 173.148 421.97 173.2 422.353 173.2C422.945 173.2 423.401 173.107 423.72 172.92C424.039 172.729 424.198 172.439 424.198 172.052C424.198 171.76 424.071 171.512 423.815 171.307C423.565 171.097 423.073 170.851 422.339 170.568C421.642 170.309 421.145 170.083 420.849 169.892C420.557 169.696 420.338 169.475 420.192 169.229C420.051 168.982 419.98 168.688 419.98 168.347C419.98 167.736 420.229 167.255 420.726 166.904C421.222 166.549 421.904 166.371 422.77 166.371C423.576 166.371 424.365 166.535 425.135 166.863L424.731 167.786C423.979 167.476 423.298 167.321 422.688 167.321C422.15 167.321 421.744 167.406 421.471 167.574C421.197 167.743 421.061 167.975 421.061 168.271C421.061 168.472 421.111 168.643 421.211 168.784C421.316 168.925 421.482 169.06 421.71 169.188C421.938 169.315 422.375 169.5 423.022 169.741C423.911 170.065 424.51 170.391 424.82 170.719C425.135 171.047 425.292 171.459 425.292 171.956ZM435.889 174L435.663 172.934H435.608C435.235 173.403 434.861 173.722 434.487 173.891C434.118 174.055 433.656 174.137 433.1 174.137C432.357 174.137 431.773 173.945 431.35 173.562C430.93 173.18 430.721 172.635 430.721 171.929C430.721 170.416 431.931 169.623 434.351 169.55L435.622 169.509V169.044C435.622 168.456 435.494 168.023 435.239 167.745C434.989 167.463 434.585 167.321 434.029 167.321C433.405 167.321 432.699 167.513 431.91 167.896L431.562 167.027C431.931 166.827 432.334 166.67 432.771 166.556C433.214 166.442 433.656 166.385 434.098 166.385C434.991 166.385 435.652 166.583 436.08 166.979C436.513 167.376 436.729 168.012 436.729 168.887V174H435.889ZM433.325 173.2C434.032 173.2 434.585 173.007 434.986 172.619C435.392 172.232 435.595 171.689 435.595 170.992V170.315L434.46 170.363C433.558 170.395 432.906 170.536 432.505 170.787C432.108 171.033 431.91 171.418 431.91 171.942C431.91 172.353 432.033 172.665 432.279 172.879C432.53 173.093 432.879 173.2 433.325 173.2ZM446.697 174.137C446.21 174.137 445.763 174.048 445.357 173.87C444.956 173.688 444.619 173.41 444.346 173.036H444.264C444.318 173.474 444.346 173.888 444.346 174.28V177.363H443.211V166.508H444.134L444.291 167.533H444.346C444.637 167.123 444.977 166.827 445.364 166.645C445.752 166.462 446.196 166.371 446.697 166.371C447.691 166.371 448.456 166.711 448.994 167.39C449.536 168.069 449.808 169.021 449.808 170.247C449.808 171.478 449.532 172.435 448.98 173.118C448.434 173.797 447.673 174.137 446.697 174.137ZM446.533 167.335C445.768 167.335 445.214 167.547 444.872 167.971C444.53 168.395 444.355 169.069 444.346 169.994V170.247C444.346 171.3 444.521 172.054 444.872 172.51C445.223 172.961 445.786 173.187 446.561 173.187C447.208 173.187 447.714 172.924 448.078 172.4C448.447 171.876 448.632 171.154 448.632 170.233C448.632 169.299 448.447 168.584 448.078 168.087C447.714 167.586 447.199 167.335 446.533 167.335ZM455.465 166.371C455.798 166.371 456.096 166.398 456.36 166.453L456.203 167.506C455.893 167.438 455.62 167.403 455.383 167.403C454.777 167.403 454.257 167.649 453.824 168.142C453.396 168.634 453.182 169.247 453.182 169.98V174H452.047V166.508H452.983L453.113 167.896H453.168C453.446 167.408 453.781 167.032 454.173 166.768C454.565 166.503 454.995 166.371 455.465 166.371ZM459.146 174H458.012V166.508H459.146V174ZM457.916 164.478C457.916 164.218 457.98 164.029 458.107 163.91C458.235 163.787 458.395 163.726 458.586 163.726C458.768 163.726 458.925 163.787 459.058 163.91C459.19 164.033 459.256 164.222 459.256 164.478C459.256 164.733 459.19 164.924 459.058 165.052C458.925 165.175 458.768 165.236 458.586 165.236C458.395 165.236 458.235 165.175 458.107 165.052C457.98 164.924 457.916 164.733 457.916 164.478ZM471.353 174V169.126C471.353 168.529 471.225 168.082 470.97 167.786C470.715 167.485 470.318 167.335 469.78 167.335C469.074 167.335 468.552 167.538 468.215 167.943C467.878 168.349 467.709 168.973 467.709 169.816V174H466.574V169.126C466.574 168.529 466.447 168.082 466.191 167.786C465.936 167.485 465.537 167.335 464.995 167.335C464.284 167.335 463.762 167.549 463.43 167.978C463.102 168.401 462.938 169.099 462.938 170.069V174H461.803V166.508H462.726L462.91 167.533H462.965C463.179 167.169 463.48 166.884 463.867 166.679C464.259 166.474 464.697 166.371 465.18 166.371C466.351 166.371 467.117 166.795 467.477 167.643H467.531C467.755 167.251 468.078 166.941 468.502 166.713C468.926 166.485 469.409 166.371 469.951 166.371C470.799 166.371 471.432 166.59 471.852 167.027C472.275 167.46 472.487 168.155 472.487 169.112V174H471.353ZM479.689 174L479.464 172.934H479.409C479.035 173.403 478.662 173.722 478.288 173.891C477.919 174.055 477.456 174.137 476.9 174.137C476.158 174.137 475.574 173.945 475.15 173.562C474.731 173.18 474.521 172.635 474.521 171.929C474.521 170.416 475.731 169.623 478.151 169.55L479.423 169.509V169.044C479.423 168.456 479.295 168.023 479.04 167.745C478.789 167.463 478.386 167.321 477.83 167.321C477.206 167.321 476.499 167.513 475.711 167.896L475.362 167.027C475.731 166.827 476.135 166.67 476.572 166.556C477.014 166.442 477.456 166.385 477.898 166.385C478.792 166.385 479.452 166.583 479.881 166.979C480.314 167.376 480.53 168.012 480.53 168.887V174H479.689ZM477.126 173.2C477.832 173.2 478.386 173.007 478.787 172.619C479.193 172.232 479.396 171.689 479.396 170.992V170.315L478.261 170.363C477.358 170.395 476.707 170.536 476.306 170.787C475.909 171.033 475.711 171.418 475.711 171.942C475.711 172.353 475.834 172.665 476.08 172.879C476.331 173.093 476.679 173.2 477.126 173.2ZM486.543 166.371C486.876 166.371 487.174 166.398 487.438 166.453L487.281 167.506C486.971 167.438 486.698 167.403 486.461 167.403C485.855 167.403 485.335 167.649 484.902 168.142C484.474 168.634 484.26 169.247 484.26 169.98V174H483.125V166.508H484.062L484.191 167.896H484.246C484.524 167.408 484.859 167.032 485.251 166.768C485.643 166.503 486.074 166.371 486.543 166.371ZM487.9 166.508H489.117L490.758 170.78C491.118 171.756 491.341 172.46 491.428 172.893H491.482C491.542 172.66 491.665 172.264 491.852 171.703C492.043 171.138 492.663 169.406 493.711 166.508H494.928L491.708 175.039C491.389 175.882 491.015 176.479 490.587 176.83C490.163 177.186 489.641 177.363 489.021 177.363C488.675 177.363 488.333 177.325 487.996 177.247V176.338C488.247 176.393 488.527 176.42 488.837 176.42C489.616 176.42 490.172 175.982 490.505 175.107L490.922 174.041L487.9 166.508ZM509.831 174V169.126C509.831 168.529 509.703 168.082 509.448 167.786C509.193 167.485 508.797 167.335 508.259 167.335C507.552 167.335 507.031 167.538 506.693 167.943C506.356 168.349 506.188 168.973 506.188 169.816V174H505.053V169.126C505.053 168.529 504.925 168.082 504.67 167.786C504.415 167.485 504.016 167.335 503.474 167.335C502.763 167.335 502.241 167.549 501.908 167.978C501.58 168.401 501.416 169.099 501.416 170.069V174H500.281V166.508H501.204L501.389 167.533H501.443C501.658 167.169 501.958 166.884 502.346 166.679C502.738 166.474 503.175 166.371 503.658 166.371C504.829 166.371 505.595 166.795 505.955 167.643H506.01C506.233 167.251 506.557 166.941 506.98 166.713C507.404 166.485 507.887 166.371 508.43 166.371C509.277 166.371 509.911 166.59 510.33 167.027C510.754 167.46 510.966 168.155 510.966 169.112V174H509.831ZM516.726 174.137C515.618 174.137 514.743 173.799 514.101 173.125C513.463 172.451 513.144 171.514 513.144 170.315C513.144 169.108 513.44 168.148 514.032 167.438C514.629 166.727 515.429 166.371 516.432 166.371C517.37 166.371 518.113 166.681 518.66 167.301C519.207 167.916 519.48 168.729 519.48 169.741V170.459H514.319C514.342 171.339 514.563 172.006 514.982 172.462C515.406 172.918 516.001 173.146 516.767 173.146C517.573 173.146 518.371 172.977 519.159 172.64V173.651C518.758 173.825 518.378 173.948 518.018 174.021C517.662 174.098 517.231 174.137 516.726 174.137ZM516.418 167.321C515.816 167.321 515.336 167.517 514.976 167.909C514.62 168.301 514.41 168.843 514.347 169.536H518.264C518.264 168.821 518.104 168.274 517.785 167.896C517.466 167.513 517.01 167.321 516.418 167.321ZM526.505 171.956C526.505 172.653 526.245 173.191 525.726 173.569C525.206 173.948 524.477 174.137 523.538 174.137C522.545 174.137 521.77 173.979 521.214 173.665V172.612C521.574 172.795 521.959 172.938 522.369 173.043C522.784 173.148 523.183 173.2 523.565 173.2C524.158 173.2 524.614 173.107 524.933 172.92C525.252 172.729 525.411 172.439 525.411 172.052C525.411 171.76 525.284 171.512 525.028 171.307C524.778 171.097 524.285 170.851 523.552 170.568C522.854 170.309 522.358 170.083 522.062 169.892C521.77 169.696 521.551 169.475 521.405 169.229C521.264 168.982 521.193 168.688 521.193 168.347C521.193 167.736 521.442 167.255 521.938 166.904C522.435 166.549 523.117 166.371 523.982 166.371C524.789 166.371 525.577 166.535 526.348 166.863L525.944 167.786C525.192 167.476 524.511 167.321 523.9 167.321C523.363 167.321 522.957 167.406 522.684 167.574C522.41 167.743 522.273 167.975 522.273 168.271C522.273 168.472 522.324 168.643 522.424 168.784C522.529 168.925 522.695 169.06 522.923 169.188C523.151 169.315 523.588 169.5 524.235 169.741C525.124 170.065 525.723 170.391 526.033 170.719C526.348 171.047 526.505 171.459 526.505 171.956ZM533.44 171.956C533.44 172.653 533.181 173.191 532.661 173.569C532.142 173.948 531.412 174.137 530.474 174.137C529.48 174.137 528.705 173.979 528.149 173.665V172.612C528.509 172.795 528.895 172.938 529.305 173.043C529.719 173.148 530.118 173.2 530.501 173.2C531.093 173.2 531.549 173.107 531.868 172.92C532.187 172.729 532.347 172.439 532.347 172.052C532.347 171.76 532.219 171.512 531.964 171.307C531.713 171.097 531.221 170.851 530.487 170.568C529.79 170.309 529.293 170.083 528.997 169.892C528.705 169.696 528.487 169.475 528.341 169.229C528.2 168.982 528.129 168.688 528.129 168.347C528.129 167.736 528.377 167.255 528.874 166.904C529.371 166.549 530.052 166.371 530.918 166.371C531.725 166.371 532.513 166.535 533.283 166.863L532.88 167.786C532.128 167.476 531.447 167.321 530.836 167.321C530.298 167.321 529.893 167.406 529.619 167.574C529.346 167.743 529.209 167.975 529.209 168.271C529.209 168.472 529.259 168.643 529.359 168.784C529.464 168.925 529.631 169.06 529.858 169.188C530.086 169.315 530.524 169.5 531.171 169.741C532.06 170.065 532.659 170.391 532.969 170.719C533.283 171.047 533.44 171.459 533.44 171.956ZM540.15 174L539.925 172.934H539.87C539.496 173.403 539.123 173.722 538.749 173.891C538.38 174.055 537.917 174.137 537.361 174.137C536.618 174.137 536.035 173.945 535.611 173.562C535.192 173.18 534.982 172.635 534.982 171.929C534.982 170.416 536.192 169.623 538.612 169.55L539.884 169.509V169.044C539.884 168.456 539.756 168.023 539.501 167.745C539.25 167.463 538.847 167.321 538.291 167.321C537.667 167.321 536.96 167.513 536.172 167.896L535.823 167.027C536.192 166.827 536.596 166.67 537.033 166.556C537.475 166.442 537.917 166.385 538.359 166.385C539.253 166.385 539.913 166.583 540.342 166.979C540.775 167.376 540.991 168.012 540.991 168.887V174H540.15ZM537.587 173.2C538.293 173.2 538.847 173.007 539.248 172.619C539.654 172.232 539.856 171.689 539.856 170.992V170.315L538.722 170.363C537.819 170.395 537.168 170.536 536.767 170.787C536.37 171.033 536.172 171.418 536.172 171.942C536.172 172.353 536.295 172.665 536.541 172.879C536.792 173.093 537.14 173.2 537.587 173.2ZM549.718 166.508V167.226L548.33 167.39C548.458 167.549 548.572 167.759 548.672 168.019C548.772 168.274 548.822 168.563 548.822 168.887C548.822 169.62 548.572 170.206 548.07 170.644C547.569 171.081 546.881 171.3 546.006 171.3C545.783 171.3 545.573 171.282 545.377 171.245C544.894 171.5 544.652 171.822 544.652 172.209C544.652 172.414 544.737 172.567 544.905 172.667C545.074 172.763 545.363 172.811 545.773 172.811H547.1C547.911 172.811 548.533 172.981 548.966 173.323C549.403 173.665 549.622 174.162 549.622 174.813C549.622 175.643 549.289 176.274 548.624 176.707C547.959 177.145 546.988 177.363 545.712 177.363C544.732 177.363 543.976 177.181 543.442 176.816C542.914 176.452 542.649 175.937 542.649 175.271C542.649 174.816 542.795 174.422 543.087 174.089C543.379 173.756 543.789 173.531 544.317 173.412C544.126 173.326 543.964 173.191 543.832 173.009C543.704 172.826 543.641 172.615 543.641 172.373C543.641 172.1 543.714 171.86 543.859 171.655C544.005 171.45 544.235 171.252 544.55 171.061C544.162 170.901 543.846 170.63 543.6 170.247C543.358 169.864 543.237 169.427 543.237 168.935C543.237 168.114 543.483 167.483 543.976 167.041C544.468 166.594 545.165 166.371 546.067 166.371C546.459 166.371 546.812 166.417 547.127 166.508H549.718ZM543.743 175.258C543.743 175.663 543.914 175.971 544.256 176.181C544.598 176.39 545.088 176.495 545.726 176.495C546.678 176.495 547.382 176.352 547.838 176.064C548.298 175.782 548.528 175.397 548.528 174.909C548.528 174.504 548.403 174.221 548.152 174.062C547.902 173.907 547.43 173.829 546.737 173.829H545.377C544.862 173.829 544.461 173.952 544.174 174.198C543.887 174.444 543.743 174.798 543.743 175.258ZM544.358 168.907C544.358 169.431 544.507 169.828 544.803 170.097C545.099 170.366 545.511 170.5 546.04 170.5C547.147 170.5 547.701 169.962 547.701 168.887C547.701 167.761 547.141 167.198 546.02 167.198C545.486 167.198 545.076 167.342 544.789 167.629C544.502 167.916 544.358 168.342 544.358 168.907ZM554.671 174.137C553.563 174.137 552.688 173.799 552.046 173.125C551.408 172.451 551.089 171.514 551.089 170.315C551.089 169.108 551.385 168.148 551.978 167.438C552.575 166.727 553.374 166.371 554.377 166.371C555.316 166.371 556.059 166.681 556.605 167.301C557.152 167.916 557.426 168.729 557.426 169.741V170.459H552.265C552.287 171.339 552.508 172.006 552.928 172.462C553.352 172.918 553.946 173.146 554.712 173.146C555.519 173.146 556.316 172.977 557.104 172.64V173.651C556.703 173.825 556.323 173.948 555.963 174.021C555.607 174.098 555.177 174.137 554.671 174.137ZM554.363 167.321C553.762 167.321 553.281 167.517 552.921 167.909C552.565 168.301 552.356 168.843 552.292 169.536H556.209C556.209 168.821 556.049 168.274 555.73 167.896C555.411 167.513 554.956 167.321 554.363 167.321ZM559.453 173.275C559.453 172.97 559.521 172.74 559.658 172.585C559.799 172.425 560 172.346 560.26 172.346C560.524 172.346 560.729 172.425 560.875 172.585C561.025 172.74 561.101 172.97 561.101 173.275C561.101 173.572 561.025 173.799 560.875 173.959C560.725 174.118 560.52 174.198 560.26 174.198C560.027 174.198 559.834 174.128 559.679 173.986C559.528 173.84 559.453 173.604 559.453 173.275Z" fill="white"/>
<g clip-path="url(#clip1_431_73449)">
<path d="M588.719 163.578H592.117C593.591 163.578 594.703 163.792 595.453 164.219C596.203 164.646 596.578 165.383 596.578 166.43C596.578 166.867 596.5 167.263 596.344 167.617C596.193 167.966 595.971 168.255 595.68 168.484C595.388 168.708 595.029 168.859 594.602 168.938V169.016C595.044 169.094 595.438 169.232 595.781 169.43C596.13 169.628 596.404 169.911 596.602 170.281C596.805 170.651 596.906 171.13 596.906 171.719C596.906 172.417 596.74 173.01 596.406 173.5C596.078 173.99 595.607 174.362 594.992 174.617C594.383 174.872 593.659 175 592.82 175H588.719V163.578ZM590.594 168.289H592.391C593.24 168.289 593.828 168.151 594.156 167.875C594.484 167.599 594.648 167.195 594.648 166.664C594.648 166.122 594.453 165.732 594.062 165.492C593.677 165.253 593.062 165.133 592.219 165.133H590.594V168.289ZM590.594 169.805V173.43H592.57C593.445 173.43 594.06 173.26 594.414 172.922C594.768 172.583 594.945 172.125 594.945 171.547C594.945 171.193 594.865 170.885 594.703 170.625C594.547 170.365 594.289 170.164 593.93 170.023C593.57 169.878 593.086 169.805 592.477 169.805H590.594ZM606.867 166.352V175H605.422L605.172 173.836H605.07C604.888 174.133 604.656 174.38 604.375 174.578C604.094 174.771 603.781 174.914 603.438 175.008C603.094 175.107 602.732 175.156 602.352 175.156C601.701 175.156 601.143 175.047 600.68 174.828C600.221 174.604 599.87 174.26 599.625 173.797C599.38 173.333 599.258 172.734 599.258 172V166.352H601.102V171.656C601.102 172.328 601.237 172.831 601.508 173.164C601.784 173.497 602.211 173.664 602.789 173.664C603.346 173.664 603.789 173.549 604.117 173.32C604.445 173.091 604.677 172.753 604.812 172.305C604.953 171.857 605.023 171.307 605.023 170.656V166.352H606.867ZM612.969 173.672C613.208 173.672 613.445 173.651 613.68 173.609C613.914 173.562 614.128 173.508 614.32 173.445V174.836C614.117 174.924 613.854 175 613.531 175.062C613.208 175.125 612.872 175.156 612.523 175.156C612.034 175.156 611.594 175.076 611.203 174.914C610.812 174.747 610.503 174.464 610.273 174.062C610.044 173.661 609.93 173.107 609.93 172.398V167.75H608.75V166.93L610.016 166.281L610.617 164.43H611.773V166.352H614.25V167.75H611.773V172.375C611.773 172.812 611.883 173.138 612.102 173.352C612.32 173.565 612.609 173.672 612.969 173.672ZM619.547 173.672C619.786 173.672 620.023 173.651 620.258 173.609C620.492 173.562 620.706 173.508 620.898 173.445V174.836C620.695 174.924 620.432 175 620.109 175.062C619.786 175.125 619.451 175.156 619.102 175.156C618.612 175.156 618.172 175.076 617.781 174.914C617.391 174.747 617.081 174.464 616.852 174.062C616.622 173.661 616.508 173.107 616.508 172.398V167.75H615.328V166.93L616.594 166.281L617.195 164.43H618.352V166.352H620.828V167.75H618.352V172.375C618.352 172.812 618.461 173.138 618.68 173.352C618.898 173.565 619.188 173.672 619.547 173.672ZM630.562 170.656C630.562 171.375 630.469 172.013 630.281 172.57C630.094 173.128 629.82 173.599 629.461 173.984C629.102 174.365 628.669 174.656 628.164 174.859C627.659 175.057 627.089 175.156 626.453 175.156C625.859 175.156 625.315 175.057 624.82 174.859C624.326 174.656 623.896 174.365 623.531 173.984C623.172 173.599 622.893 173.128 622.695 172.57C622.497 172.013 622.398 171.375 622.398 170.656C622.398 169.703 622.562 168.896 622.891 168.234C623.224 167.568 623.698 167.06 624.312 166.711C624.927 166.362 625.659 166.188 626.508 166.188C627.305 166.188 628.008 166.362 628.617 166.711C629.227 167.06 629.703 167.568 630.047 168.234C630.391 168.901 630.562 169.708 630.562 170.656ZM624.289 170.656C624.289 171.286 624.365 171.826 624.516 172.273C624.672 172.721 624.911 173.065 625.234 173.305C625.557 173.539 625.974 173.656 626.484 173.656C626.995 173.656 627.411 173.539 627.734 173.305C628.057 173.065 628.294 172.721 628.445 172.273C628.596 171.826 628.672 171.286 628.672 170.656C628.672 170.026 628.596 169.492 628.445 169.055C628.294 168.612 628.057 168.276 627.734 168.047C627.411 167.812 626.992 167.695 626.477 167.695C625.716 167.695 625.161 167.951 624.812 168.461C624.464 168.971 624.289 169.703 624.289 170.656ZM637.43 166.188C638.404 166.188 639.161 166.44 639.703 166.945C640.25 167.445 640.523 168.25 640.523 169.359V175H638.688V169.703C638.688 169.031 638.549 168.529 638.273 168.195C637.997 167.857 637.57 167.688 636.992 167.688C636.154 167.688 635.57 167.945 635.242 168.461C634.919 168.977 634.758 169.724 634.758 170.703V175H632.922V166.352H634.352L634.609 167.523H634.711C634.898 167.221 635.13 166.974 635.406 166.781C635.688 166.583 636 166.435 636.344 166.336C636.693 166.237 637.055 166.188 637.43 166.188Z" fill="white"/>
</g>
<rect x="572" y="150" width="85" height="38" rx="3" stroke="#7D808D" stroke-width="2"/>
<rect x="336.5" y="145.5" width="337" height="47" rx="3.5" stroke="#6A6E79"/>
</g>
<defs>
<filter id="filter0_d_431_73449" x="0" y="0" width="1010" height="276" filterUnits="userSpaceOnUse" color-interpolation-filters="sRGB">
<feFlood flood-opacity="0" result="BackgroundImageFix"/>
<feColorMatrix in="SourceAlpha" type="matrix" values="0 0 0 0 0 0 0 0 0 0 0 0 0 0 0 0 0 0 127 0" result="hardAlpha"/>
<feOffset/>
<feGaussianBlur stdDeviation="4"/>
<feColorMatrix type="matrix" values="0 0 0 0 0.211765 0 0 0 0 0.207843 0 0 0 0 0.270588 0 0 0 0.3 0"/>
<feBlend mode="multiply" in2="BackgroundImageFix" result="effect1_dropShadow_431_73449"/>
<feBlend mode="normal" in="SourceGraphic" in2="effect1_dropShadow_431_73449" result="shape"/>
</filter>
<clipPath id="clip0_431_73449">
<rect width="55" height="24" fill="white" transform="translate(587 95)"/>
</clipPath>
<clipPath id="clip1_431_73449">
<rect width="55" height="24" fill="white" transform="translate(587 157)"/>
</clipPath>
</defs>
</svg>
