<svg width="961" height="260" viewBox="0 0 961 260" fill="none" xmlns="http://www.w3.org/2000/svg">
<rect width="961" height="260" fill="#F1F1F6"/>
<rect x="312" y="86.5" width="337" height="47" rx="3.5" fill="#DCEDF9"/>
<circle cx="339.5" cy="110" r="10" fill="white"/>
<path d="M339.5 100C333.98 100 329.5 104.48 329.5 110C329.5 115.52 333.98 120 339.5 120C345.02 120 349.5 115.52 349.5 110C349.5 104.48 345.02 100 339.5 100ZM340.56 114.15C340.56 114.7 340.11 115.15 339.56 115.15C339.01 115.15 338.56 114.7 338.56 114.15V110.01C338.56 109.46 339.01 109.01 339.56 109.01C340.11 109.01 340.56 109.46 340.56 110.01V114.15ZM339.56 107.04C339.01 107.04 338.56 106.59 338.56 106.04C338.56 105.49 339.01 105.04 339.56 105.04C340.11 105.04 340.56 105.49 340.56 106.04C340.56 106.59 340.11 107.04 339.56 107.04Z" fill="#0063A3"/>
<path d="M363.95 115H362.788V106.038H359.623V105.006H367.115V106.038H363.95V115ZM373.832 115V110.153C373.832 109.543 373.693 109.087 373.415 108.786C373.137 108.485 372.702 108.335 372.109 108.335C371.321 108.335 370.744 108.549 370.38 108.978C370.02 109.406 369.84 110.108 369.84 111.083V115H368.705V104.363H369.84V107.583C369.84 107.97 369.822 108.292 369.785 108.547H369.854C370.077 108.187 370.394 107.904 370.804 107.699C371.218 107.49 371.69 107.385 372.219 107.385C373.135 107.385 373.821 107.604 374.276 108.041C374.737 108.474 374.967 109.164 374.967 110.112V115H373.832ZM378.689 115H377.555V107.508H378.689V115ZM377.459 105.478C377.459 105.218 377.523 105.029 377.65 104.91C377.778 104.787 377.938 104.726 378.129 104.726C378.311 104.726 378.468 104.787 378.601 104.91C378.733 105.033 378.799 105.222 378.799 105.478C378.799 105.733 378.733 105.924 378.601 106.052C378.468 106.175 378.311 106.236 378.129 106.236C377.938 106.236 377.778 106.175 377.65 106.052C377.523 105.924 377.459 105.733 377.459 105.478ZM386.179 112.956C386.179 113.653 385.919 114.191 385.399 114.569C384.88 114.948 384.151 115.137 383.212 115.137C382.218 115.137 381.444 114.979 380.888 114.665V113.612C381.248 113.795 381.633 113.938 382.043 114.043C382.458 114.148 382.856 114.2 383.239 114.2C383.832 114.2 384.287 114.107 384.606 113.92C384.925 113.729 385.085 113.439 385.085 113.052C385.085 112.76 384.957 112.512 384.702 112.307C384.451 112.097 383.959 111.851 383.226 111.568C382.528 111.309 382.032 111.083 381.735 110.892C381.444 110.696 381.225 110.475 381.079 110.229C380.938 109.982 380.867 109.688 380.867 109.347C380.867 108.736 381.116 108.255 381.612 107.904C382.109 107.549 382.79 107.371 383.656 107.371C384.463 107.371 385.251 107.535 386.021 107.863L385.618 108.786C384.866 108.476 384.185 108.321 383.574 108.321C383.036 108.321 382.631 108.406 382.357 108.574C382.084 108.743 381.947 108.975 381.947 109.271C381.947 109.472 381.997 109.643 382.098 109.784C382.202 109.925 382.369 110.06 382.597 110.188C382.825 110.315 383.262 110.5 383.909 110.741C384.798 111.065 385.397 111.391 385.707 111.719C386.021 112.047 386.179 112.459 386.179 112.956ZM393.303 115H392.168V107.508H393.303V115ZM392.072 105.478C392.072 105.218 392.136 105.029 392.264 104.91C392.391 104.787 392.551 104.726 392.742 104.726C392.924 104.726 393.082 104.787 393.214 104.91C393.346 105.033 393.412 105.222 393.412 105.478C393.412 105.733 393.346 105.924 393.214 106.052C393.082 106.175 392.924 106.236 392.742 106.236C392.551 106.236 392.391 106.175 392.264 106.052C392.136 105.924 392.072 105.733 392.072 105.478ZM400.792 112.956C400.792 113.653 400.532 114.191 400.013 114.569C399.493 114.948 398.764 115.137 397.825 115.137C396.832 115.137 396.057 114.979 395.501 114.665V113.612C395.861 113.795 396.246 113.938 396.656 114.043C397.071 114.148 397.47 114.2 397.853 114.2C398.445 114.2 398.901 114.107 399.22 113.92C399.539 113.729 399.698 113.439 399.698 113.052C399.698 112.76 399.571 112.512 399.315 112.307C399.065 112.097 398.573 111.851 397.839 111.568C397.142 111.309 396.645 111.083 396.349 110.892C396.057 110.696 395.838 110.475 395.692 110.229C395.551 109.982 395.48 109.688 395.48 109.347C395.48 108.736 395.729 108.255 396.226 107.904C396.722 107.549 397.404 107.371 398.27 107.371C399.076 107.371 399.865 107.535 400.635 107.863L400.231 108.786C399.479 108.476 398.798 108.321 398.188 108.321C397.65 108.321 397.244 108.406 396.971 108.574C396.697 108.743 396.561 108.975 396.561 109.271C396.561 109.472 396.611 109.643 396.711 109.784C396.816 109.925 396.982 110.06 397.21 110.188C397.438 110.315 397.875 110.5 398.522 110.741C399.411 111.065 400.01 111.391 400.32 111.719C400.635 112.047 400.792 112.459 400.792 112.956ZM411.389 115L411.163 113.934H411.108C410.735 114.403 410.361 114.722 409.987 114.891C409.618 115.055 409.156 115.137 408.6 115.137C407.857 115.137 407.273 114.945 406.85 114.562C406.43 114.18 406.221 113.635 406.221 112.929C406.221 111.416 407.431 110.623 409.851 110.55L411.122 110.509V110.044C411.122 109.456 410.994 109.023 410.739 108.745C410.489 108.463 410.085 108.321 409.529 108.321C408.905 108.321 408.199 108.513 407.41 108.896L407.062 108.027C407.431 107.827 407.834 107.67 408.271 107.556C408.714 107.442 409.156 107.385 409.598 107.385C410.491 107.385 411.152 107.583 411.58 107.979C412.013 108.376 412.229 109.012 412.229 109.887V115H411.389ZM408.825 114.2C409.532 114.2 410.085 114.007 410.486 113.619C410.892 113.232 411.095 112.689 411.095 111.992V111.315L409.96 111.363C409.058 111.395 408.406 111.536 408.005 111.787C407.608 112.033 407.41 112.418 407.41 112.942C407.41 113.353 407.533 113.665 407.779 113.879C408.03 114.093 408.379 114.2 408.825 114.2ZM422.197 115.137C421.71 115.137 421.263 115.048 420.857 114.87C420.456 114.688 420.119 114.41 419.846 114.036H419.764C419.818 114.474 419.846 114.888 419.846 115.28V118.363H418.711V107.508H419.634L419.791 108.533H419.846C420.137 108.123 420.477 107.827 420.864 107.645C421.252 107.462 421.696 107.371 422.197 107.371C423.191 107.371 423.956 107.711 424.494 108.39C425.036 109.069 425.308 110.021 425.308 111.247C425.308 112.478 425.032 113.435 424.48 114.118C423.934 114.797 423.173 115.137 422.197 115.137ZM422.033 108.335C421.268 108.335 420.714 108.547 420.372 108.971C420.03 109.395 419.855 110.069 419.846 110.994V111.247C419.846 112.3 420.021 113.054 420.372 113.51C420.723 113.961 421.286 114.187 422.061 114.187C422.708 114.187 423.214 113.924 423.578 113.4C423.947 112.876 424.132 112.154 424.132 111.233C424.132 110.299 423.947 109.584 423.578 109.087C423.214 108.586 422.699 108.335 422.033 108.335ZM430.965 107.371C431.298 107.371 431.596 107.398 431.86 107.453L431.703 108.506C431.393 108.438 431.12 108.403 430.883 108.403C430.277 108.403 429.757 108.649 429.324 109.142C428.896 109.634 428.682 110.247 428.682 110.98V115H427.547V107.508H428.483L428.613 108.896H428.668C428.946 108.408 429.281 108.032 429.673 107.768C430.065 107.503 430.495 107.371 430.965 107.371ZM434.646 115H433.512V107.508H434.646V115ZM433.416 105.478C433.416 105.218 433.48 105.029 433.607 104.91C433.735 104.787 433.895 104.726 434.086 104.726C434.268 104.726 434.425 104.787 434.558 104.91C434.69 105.033 434.756 105.222 434.756 105.478C434.756 105.733 434.69 105.924 434.558 106.052C434.425 106.175 434.268 106.236 434.086 106.236C433.895 106.236 433.735 106.175 433.607 106.052C433.48 105.924 433.416 105.733 433.416 105.478ZM446.853 115V110.126C446.853 109.529 446.725 109.082 446.47 108.786C446.215 108.485 445.818 108.335 445.28 108.335C444.574 108.335 444.052 108.538 443.715 108.943C443.378 109.349 443.209 109.973 443.209 110.816V115H442.074V110.126C442.074 109.529 441.947 109.082 441.691 108.786C441.436 108.485 441.037 108.335 440.495 108.335C439.784 108.335 439.262 108.549 438.93 108.978C438.602 109.401 438.438 110.099 438.438 111.069V115H437.303V107.508H438.226L438.41 108.533H438.465C438.679 108.169 438.98 107.884 439.367 107.679C439.759 107.474 440.197 107.371 440.68 107.371C441.851 107.371 442.617 107.795 442.977 108.643H443.031C443.255 108.251 443.578 107.941 444.002 107.713C444.426 107.485 444.909 107.371 445.451 107.371C446.299 107.371 446.932 107.59 447.352 108.027C447.775 108.46 447.987 109.155 447.987 110.112V115H446.853ZM455.189 115L454.964 113.934H454.909C454.535 114.403 454.162 114.722 453.788 114.891C453.419 115.055 452.956 115.137 452.4 115.137C451.658 115.137 451.074 114.945 450.65 114.562C450.231 114.18 450.021 113.635 450.021 112.929C450.021 111.416 451.231 110.623 453.651 110.55L454.923 110.509V110.044C454.923 109.456 454.795 109.023 454.54 108.745C454.289 108.463 453.886 108.321 453.33 108.321C452.706 108.321 451.999 108.513 451.211 108.896L450.862 108.027C451.231 107.827 451.635 107.67 452.072 107.556C452.514 107.442 452.956 107.385 453.398 107.385C454.292 107.385 454.952 107.583 455.381 107.979C455.814 108.376 456.03 109.012 456.03 109.887V115H455.189ZM452.626 114.2C453.332 114.2 453.886 114.007 454.287 113.619C454.693 113.232 454.896 112.689 454.896 111.992V111.315L453.761 111.363C452.858 111.395 452.207 111.536 451.806 111.787C451.409 112.033 451.211 112.418 451.211 112.942C451.211 113.353 451.334 113.665 451.58 113.879C451.831 114.093 452.179 114.2 452.626 114.2ZM462.043 107.371C462.376 107.371 462.674 107.398 462.938 107.453L462.781 108.506C462.471 108.438 462.198 108.403 461.961 108.403C461.355 108.403 460.835 108.649 460.402 109.142C459.974 109.634 459.76 110.247 459.76 110.98V115H458.625V107.508H459.562L459.691 108.896H459.746C460.024 108.408 460.359 108.032 460.751 107.768C461.143 107.503 461.574 107.371 462.043 107.371ZM463.4 107.508H464.617L466.258 111.78C466.618 112.756 466.841 113.46 466.928 113.893H466.982C467.042 113.66 467.165 113.264 467.352 112.703C467.543 112.138 468.163 110.406 469.211 107.508H470.428L467.208 116.039C466.889 116.882 466.515 117.479 466.087 117.83C465.663 118.186 465.141 118.363 464.521 118.363C464.175 118.363 463.833 118.325 463.496 118.247V117.338C463.747 117.393 464.027 117.42 464.337 117.42C465.116 117.42 465.672 116.982 466.005 116.107L466.422 115.041L463.4 107.508ZM485.331 115V110.126C485.331 109.529 485.203 109.082 484.948 108.786C484.693 108.485 484.297 108.335 483.759 108.335C483.052 108.335 482.531 108.538 482.193 108.943C481.856 109.349 481.688 109.973 481.688 110.816V115H480.553V110.126C480.553 109.529 480.425 109.082 480.17 108.786C479.915 108.485 479.516 108.335 478.974 108.335C478.263 108.335 477.741 108.549 477.408 108.978C477.08 109.401 476.916 110.099 476.916 111.069V115H475.781V107.508H476.704L476.889 108.533H476.943C477.158 108.169 477.458 107.884 477.846 107.679C478.238 107.474 478.675 107.371 479.158 107.371C480.329 107.371 481.095 107.795 481.455 108.643H481.51C481.733 108.251 482.057 107.941 482.48 107.713C482.904 107.485 483.387 107.371 483.93 107.371C484.777 107.371 485.411 107.59 485.83 108.027C486.254 108.46 486.466 109.155 486.466 110.112V115H485.331ZM492.226 115.137C491.118 115.137 490.243 114.799 489.601 114.125C488.963 113.451 488.644 112.514 488.644 111.315C488.644 110.108 488.94 109.148 489.532 108.438C490.129 107.727 490.929 107.371 491.932 107.371C492.87 107.371 493.613 107.681 494.16 108.301C494.707 108.916 494.98 109.729 494.98 110.741V111.459H489.819C489.842 112.339 490.063 113.006 490.482 113.462C490.906 113.918 491.501 114.146 492.267 114.146C493.073 114.146 493.871 113.977 494.659 113.64V114.651C494.258 114.825 493.878 114.948 493.518 115.021C493.162 115.098 492.731 115.137 492.226 115.137ZM491.918 108.321C491.316 108.321 490.836 108.517 490.476 108.909C490.12 109.301 489.91 109.843 489.847 110.536H493.764C493.764 109.821 493.604 109.274 493.285 108.896C492.966 108.513 492.51 108.321 491.918 108.321ZM502.005 112.956C502.005 113.653 501.745 114.191 501.226 114.569C500.706 114.948 499.977 115.137 499.038 115.137C498.045 115.137 497.27 114.979 496.714 114.665V113.612C497.074 113.795 497.459 113.938 497.869 114.043C498.284 114.148 498.683 114.2 499.065 114.2C499.658 114.2 500.114 114.107 500.433 113.92C500.752 113.729 500.911 113.439 500.911 113.052C500.911 112.76 500.784 112.512 500.528 112.307C500.278 112.097 499.785 111.851 499.052 111.568C498.354 111.309 497.858 111.083 497.562 110.892C497.27 110.696 497.051 110.475 496.905 110.229C496.764 109.982 496.693 109.688 496.693 109.347C496.693 108.736 496.942 108.255 497.438 107.904C497.935 107.549 498.617 107.371 499.482 107.371C500.289 107.371 501.077 107.535 501.848 107.863L501.444 108.786C500.692 108.476 500.011 108.321 499.4 108.321C498.863 108.321 498.457 108.406 498.184 108.574C497.91 108.743 497.773 108.975 497.773 109.271C497.773 109.472 497.824 109.643 497.924 109.784C498.029 109.925 498.195 110.06 498.423 110.188C498.651 110.315 499.088 110.5 499.735 110.741C500.624 111.065 501.223 111.391 501.533 111.719C501.848 112.047 502.005 112.459 502.005 112.956ZM508.94 112.956C508.94 113.653 508.681 114.191 508.161 114.569C507.642 114.948 506.912 115.137 505.974 115.137C504.98 115.137 504.205 114.979 503.649 114.665V113.612C504.009 113.795 504.395 113.938 504.805 114.043C505.219 114.148 505.618 114.2 506.001 114.2C506.593 114.2 507.049 114.107 507.368 113.92C507.687 113.729 507.847 113.439 507.847 113.052C507.847 112.76 507.719 112.512 507.464 112.307C507.213 112.097 506.721 111.851 505.987 111.568C505.29 111.309 504.793 111.083 504.497 110.892C504.205 110.696 503.987 110.475 503.841 110.229C503.7 109.982 503.629 109.688 503.629 109.347C503.629 108.736 503.877 108.255 504.374 107.904C504.871 107.549 505.552 107.371 506.418 107.371C507.225 107.371 508.013 107.535 508.783 107.863L508.38 108.786C507.628 108.476 506.947 108.321 506.336 108.321C505.798 108.321 505.393 108.406 505.119 108.574C504.846 108.743 504.709 108.975 504.709 109.271C504.709 109.472 504.759 109.643 504.859 109.784C504.964 109.925 505.131 110.06 505.358 110.188C505.586 110.315 506.024 110.5 506.671 110.741C507.56 111.065 508.159 111.391 508.469 111.719C508.783 112.047 508.94 112.459 508.94 112.956ZM515.65 115L515.425 113.934H515.37C514.996 114.403 514.623 114.722 514.249 114.891C513.88 115.055 513.417 115.137 512.861 115.137C512.118 115.137 511.535 114.945 511.111 114.562C510.692 114.18 510.482 113.635 510.482 112.929C510.482 111.416 511.692 110.623 514.112 110.55L515.384 110.509V110.044C515.384 109.456 515.256 109.023 515.001 108.745C514.75 108.463 514.347 108.321 513.791 108.321C513.167 108.321 512.46 108.513 511.672 108.896L511.323 108.027C511.692 107.827 512.096 107.67 512.533 107.556C512.975 107.442 513.417 107.385 513.859 107.385C514.753 107.385 515.413 107.583 515.842 107.979C516.275 108.376 516.491 109.012 516.491 109.887V115H515.65ZM513.087 114.2C513.793 114.2 514.347 114.007 514.748 113.619C515.154 113.232 515.356 112.689 515.356 111.992V111.315L514.222 111.363C513.319 111.395 512.668 111.536 512.267 111.787C511.87 112.033 511.672 112.418 511.672 112.942C511.672 113.353 511.795 113.665 512.041 113.879C512.292 114.093 512.64 114.2 513.087 114.2ZM525.218 107.508V108.226L523.83 108.39C523.958 108.549 524.072 108.759 524.172 109.019C524.272 109.274 524.322 109.563 524.322 109.887C524.322 110.62 524.072 111.206 523.57 111.644C523.069 112.081 522.381 112.3 521.506 112.3C521.283 112.3 521.073 112.282 520.877 112.245C520.394 112.5 520.152 112.822 520.152 113.209C520.152 113.414 520.237 113.567 520.405 113.667C520.574 113.763 520.863 113.811 521.273 113.811H522.6C523.411 113.811 524.033 113.981 524.466 114.323C524.903 114.665 525.122 115.162 525.122 115.813C525.122 116.643 524.789 117.274 524.124 117.707C523.459 118.145 522.488 118.363 521.212 118.363C520.232 118.363 519.476 118.181 518.942 117.816C518.414 117.452 518.149 116.937 518.149 116.271C518.149 115.816 518.295 115.422 518.587 115.089C518.879 114.756 519.289 114.531 519.817 114.412C519.626 114.326 519.464 114.191 519.332 114.009C519.204 113.826 519.141 113.615 519.141 113.373C519.141 113.1 519.214 112.86 519.359 112.655C519.505 112.45 519.735 112.252 520.05 112.061C519.662 111.901 519.346 111.63 519.1 111.247C518.858 110.864 518.737 110.427 518.737 109.935C518.737 109.114 518.983 108.483 519.476 108.041C519.968 107.594 520.665 107.371 521.567 107.371C521.959 107.371 522.312 107.417 522.627 107.508H525.218ZM519.243 116.258C519.243 116.663 519.414 116.971 519.756 117.181C520.098 117.39 520.588 117.495 521.226 117.495C522.178 117.495 522.882 117.352 523.338 117.064C523.798 116.782 524.028 116.397 524.028 115.909C524.028 115.504 523.903 115.221 523.652 115.062C523.402 114.907 522.93 114.829 522.237 114.829H520.877C520.362 114.829 519.961 114.952 519.674 115.198C519.387 115.444 519.243 115.798 519.243 116.258ZM519.858 109.907C519.858 110.431 520.007 110.828 520.303 111.097C520.599 111.366 521.011 111.5 521.54 111.5C522.647 111.5 523.201 110.962 523.201 109.887C523.201 108.761 522.641 108.198 521.52 108.198C520.986 108.198 520.576 108.342 520.289 108.629C520.002 108.916 519.858 109.342 519.858 109.907ZM530.171 115.137C529.063 115.137 528.188 114.799 527.546 114.125C526.908 113.451 526.589 112.514 526.589 111.315C526.589 110.108 526.885 109.148 527.478 108.438C528.075 107.727 528.874 107.371 529.877 107.371C530.816 107.371 531.559 107.681 532.105 108.301C532.652 108.916 532.926 109.729 532.926 110.741V111.459H527.765C527.787 112.339 528.008 113.006 528.428 113.462C528.852 113.918 529.446 114.146 530.212 114.146C531.019 114.146 531.816 113.977 532.604 113.64V114.651C532.203 114.825 531.823 114.948 531.463 115.021C531.107 115.098 530.677 115.137 530.171 115.137ZM529.863 108.321C529.262 108.321 528.781 108.517 528.421 108.909C528.065 109.301 527.856 109.843 527.792 110.536H531.709C531.709 109.821 531.549 109.274 531.23 108.896C530.911 108.513 530.456 108.321 529.863 108.321ZM534.953 114.275C534.953 113.97 535.021 113.74 535.158 113.585C535.299 113.425 535.5 113.346 535.76 113.346C536.024 113.346 536.229 113.425 536.375 113.585C536.525 113.74 536.601 113.97 536.601 114.275C536.601 114.572 536.525 114.799 536.375 114.959C536.225 115.118 536.02 115.198 535.76 115.198C535.527 115.198 535.334 115.128 535.179 114.986C535.028 114.84 534.953 114.604 534.953 114.275Z" fill="#0063A3"/>
<g clip-path="url(#clip0_431_73406)">
<path d="M564.219 104.578H567.617C569.091 104.578 570.203 104.792 570.953 105.219C571.703 105.646 572.078 106.383 572.078 107.43C572.078 107.867 572 108.263 571.844 108.617C571.693 108.966 571.471 109.255 571.18 109.484C570.888 109.708 570.529 109.859 570.102 109.938V110.016C570.544 110.094 570.938 110.232 571.281 110.43C571.63 110.628 571.904 110.911 572.102 111.281C572.305 111.651 572.406 112.13 572.406 112.719C572.406 113.417 572.24 114.01 571.906 114.5C571.578 114.99 571.107 115.362 570.492 115.617C569.883 115.872 569.159 116 568.32 116H564.219V104.578ZM566.094 109.289H567.891C568.74 109.289 569.328 109.151 569.656 108.875C569.984 108.599 570.148 108.195 570.148 107.664C570.148 107.122 569.953 106.732 569.562 106.492C569.177 106.253 568.562 106.133 567.719 106.133H566.094V109.289ZM566.094 110.805V114.43H568.07C568.945 114.43 569.56 114.26 569.914 113.922C570.268 113.583 570.445 113.125 570.445 112.547C570.445 112.193 570.365 111.885 570.203 111.625C570.047 111.365 569.789 111.164 569.43 111.023C569.07 110.878 568.586 110.805 567.977 110.805H566.094ZM582.367 107.352V116H580.922L580.672 114.836H580.57C580.388 115.133 580.156 115.38 579.875 115.578C579.594 115.771 579.281 115.914 578.938 116.008C578.594 116.107 578.232 116.156 577.852 116.156C577.201 116.156 576.643 116.047 576.18 115.828C575.721 115.604 575.37 115.26 575.125 114.797C574.88 114.333 574.758 113.734 574.758 113V107.352H576.602V112.656C576.602 113.328 576.737 113.831 577.008 114.164C577.284 114.497 577.711 114.664 578.289 114.664C578.846 114.664 579.289 114.549 579.617 114.32C579.945 114.091 580.177 113.753 580.312 113.305C580.453 112.857 580.523 112.307 580.523 111.656V107.352H582.367ZM588.469 114.672C588.708 114.672 588.945 114.651 589.18 114.609C589.414 114.562 589.628 114.508 589.82 114.445V115.836C589.617 115.924 589.354 116 589.031 116.062C588.708 116.125 588.372 116.156 588.023 116.156C587.534 116.156 587.094 116.076 586.703 115.914C586.312 115.747 586.003 115.464 585.773 115.062C585.544 114.661 585.43 114.107 585.43 113.398V108.75H584.25V107.93L585.516 107.281L586.117 105.43H587.273V107.352H589.75V108.75H587.273V113.375C587.273 113.812 587.383 114.138 587.602 114.352C587.82 114.565 588.109 114.672 588.469 114.672ZM595.047 114.672C595.286 114.672 595.523 114.651 595.758 114.609C595.992 114.562 596.206 114.508 596.398 114.445V115.836C596.195 115.924 595.932 116 595.609 116.062C595.286 116.125 594.951 116.156 594.602 116.156C594.112 116.156 593.672 116.076 593.281 115.914C592.891 115.747 592.581 115.464 592.352 115.062C592.122 114.661 592.008 114.107 592.008 113.398V108.75H590.828V107.93L592.094 107.281L592.695 105.43H593.852V107.352H596.328V108.75H593.852V113.375C593.852 113.812 593.961 114.138 594.18 114.352C594.398 114.565 594.688 114.672 595.047 114.672ZM606.062 111.656C606.062 112.375 605.969 113.013 605.781 113.57C605.594 114.128 605.32 114.599 604.961 114.984C604.602 115.365 604.169 115.656 603.664 115.859C603.159 116.057 602.589 116.156 601.953 116.156C601.359 116.156 600.815 116.057 600.32 115.859C599.826 115.656 599.396 115.365 599.031 114.984C598.672 114.599 598.393 114.128 598.195 113.57C597.997 113.013 597.898 112.375 597.898 111.656C597.898 110.703 598.062 109.896 598.391 109.234C598.724 108.568 599.198 108.06 599.812 107.711C600.427 107.362 601.159 107.188 602.008 107.188C602.805 107.188 603.508 107.362 604.117 107.711C604.727 108.06 605.203 108.568 605.547 109.234C605.891 109.901 606.062 110.708 606.062 111.656ZM599.789 111.656C599.789 112.286 599.865 112.826 600.016 113.273C600.172 113.721 600.411 114.065 600.734 114.305C601.057 114.539 601.474 114.656 601.984 114.656C602.495 114.656 602.911 114.539 603.234 114.305C603.557 114.065 603.794 113.721 603.945 113.273C604.096 112.826 604.172 112.286 604.172 111.656C604.172 111.026 604.096 110.492 603.945 110.055C603.794 109.612 603.557 109.276 603.234 109.047C602.911 108.812 602.492 108.695 601.977 108.695C601.216 108.695 600.661 108.951 600.312 109.461C599.964 109.971 599.789 110.703 599.789 111.656ZM612.93 107.188C613.904 107.188 614.661 107.44 615.203 107.945C615.75 108.445 616.023 109.25 616.023 110.359V116H614.188V110.703C614.188 110.031 614.049 109.529 613.773 109.195C613.497 108.857 613.07 108.688 612.492 108.688C611.654 108.688 611.07 108.945 610.742 109.461C610.419 109.977 610.258 110.724 610.258 111.703V116H608.422V107.352H609.852L610.109 108.523H610.211C610.398 108.221 610.63 107.974 610.906 107.781C611.188 107.583 611.5 107.435 611.844 107.336C612.193 107.237 612.555 107.188 612.93 107.188Z" fill="#0063A3"/>
</g>
<rect x="547.5" y="91" width="85" height="38" rx="3" stroke="#0063A3" stroke-width="2"/>
<rect x="312" y="86.5" width="337" height="47" rx="3.5" stroke="#217CBB"/>
<rect x="312" y="150.5" width="337" height="47" rx="3.5" fill="#F1F1F6"/>
<path d="M333.919 165.395C333.507 165.395 333.117 165.477 332.762 165.624C332.406 165.772 331.997 165.603 331.85 165.247C331.702 164.891 331.871 164.483 332.227 164.336C332.749 164.119 333.321 164 333.919 164H335.314C335.699 164 336.012 164.312 336.012 164.698C336.012 165.083 335.699 165.395 335.314 165.395H333.919Z" fill="#252A2E"/>
<path d="M337.407 164.698C337.407 164.312 337.719 164 338.105 164H340.895C341.281 164 341.593 164.312 341.593 164.698C341.593 165.083 341.281 165.395 340.895 165.395H338.105C337.719 165.395 337.407 165.083 337.407 164.698Z" fill="#252A2E"/>
<path d="M342.988 164.698C342.988 164.312 343.301 164 343.686 164H345.081C345.679 164 346.251 164.119 346.773 164.336C347.129 164.483 347.298 164.891 347.15 165.247C347.003 165.603 346.594 165.772 346.238 165.624C345.883 165.477 345.493 165.395 345.081 165.395H343.686C343.301 165.395 342.988 165.083 342.988 164.698Z" fill="#252A2E"/>
<path d="M330.747 166.35C331.103 166.497 331.272 166.906 331.124 167.262C330.977 167.617 330.895 168.007 330.895 168.419V169.814C330.895 170.199 330.583 170.512 330.198 170.512C329.812 170.512 329.5 170.199 329.5 169.814V168.419C329.5 167.821 329.619 167.249 329.836 166.727C329.983 166.371 330.391 166.202 330.747 166.35Z" fill="#252A2E"/>
<path d="M348.253 166.35C348.609 166.202 349.017 166.371 349.164 166.727C349.381 167.249 349.5 167.821 349.5 168.419V169.814C349.5 170.199 349.188 170.512 348.802 170.512C348.417 170.512 348.105 170.199 348.105 169.814V168.419C348.105 168.007 348.023 167.617 347.876 167.262C347.728 166.906 347.897 166.497 348.253 166.35Z" fill="#252A2E"/>
<path d="M330.198 171.907C330.583 171.907 330.895 172.219 330.895 172.605V175.395C330.895 175.781 330.583 176.093 330.198 176.093C329.812 176.093 329.5 175.781 329.5 175.395V172.605C329.5 172.219 329.812 171.907 330.198 171.907Z" fill="#252A2E"/>
<path d="M348.802 171.907C349.188 171.907 349.5 172.219 349.5 172.605V175.395C349.5 175.781 349.188 176.093 348.802 176.093C348.417 176.093 348.105 175.781 348.105 175.395V172.605C348.105 172.219 348.417 171.907 348.802 171.907Z" fill="#252A2E"/>
<path d="M330.198 177.488C330.583 177.488 330.895 177.801 330.895 178.186V179.581C330.895 179.993 330.977 180.383 331.124 180.738C331.272 181.094 331.103 181.503 330.747 181.65C330.391 181.798 329.983 181.629 329.836 181.273C329.619 180.751 329.5 180.179 329.5 179.581V178.186C329.5 177.801 329.812 177.488 330.198 177.488Z" fill="#252A2E"/>
<path d="M348.802 177.488C349.188 177.488 349.5 177.801 349.5 178.186V179.581C349.5 180.179 349.381 180.751 349.164 181.273C349.017 181.629 348.609 181.798 348.253 181.65C347.897 181.503 347.728 181.094 347.876 180.738C348.023 180.383 348.105 179.993 348.105 179.581V178.186C348.105 177.801 348.417 177.488 348.802 177.488Z" fill="#252A2E"/>
<path d="M331.85 182.753C331.997 182.397 332.406 182.228 332.762 182.376C333.117 182.523 333.507 182.605 333.919 182.605H335.314C335.699 182.605 336.012 182.917 336.012 183.302C336.012 183.688 335.699 184 335.314 184H333.919C333.321 184 332.749 183.881 332.227 183.664C331.871 183.517 331.702 183.109 331.85 182.753Z" fill="#252A2E"/>
<path d="M347.15 182.753C347.298 183.109 347.129 183.517 346.773 183.664C346.251 183.881 345.679 184 345.081 184H343.686C343.301 184 342.988 183.688 342.988 183.302C342.988 182.917 343.301 182.605 343.686 182.605H345.081C345.493 182.605 345.883 182.523 346.238 182.376C346.594 182.228 347.003 182.397 347.15 182.753Z" fill="#252A2E"/>
<path d="M337.407 183.302C337.407 182.917 337.719 182.605 338.105 182.605H340.895C341.281 182.605 341.593 182.917 341.593 183.302C341.593 183.688 341.281 184 340.895 184H338.105C337.719 184 337.407 183.688 337.407 183.302Z" fill="#252A2E"/>
<path d="M347.435 167.108C347.708 166.835 347.708 166.394 347.435 166.121C347.163 165.849 346.721 165.849 346.449 166.121L345.522 167.048C345.249 167.32 345.249 167.762 345.522 168.035C345.794 168.307 346.236 168.307 346.508 168.035L347.435 167.108Z" fill="#252A2E"/>
<path d="M344.655 169.888C344.928 169.616 344.928 169.174 344.655 168.901C344.383 168.629 343.941 168.629 343.668 168.901L341.815 170.755C341.543 171.027 341.543 171.469 341.815 171.741C342.087 172.014 342.529 172.014 342.802 171.741L344.655 169.888Z" fill="#252A2E"/>
<path d="M340.948 173.595C341.221 173.322 341.221 172.881 340.948 172.608C340.676 172.336 340.234 172.336 339.962 172.608L339.5 173.07L339.038 172.608C338.766 172.336 338.324 172.336 338.052 172.608C337.779 172.881 337.779 173.322 338.052 173.595L338.513 174.056L338.108 174.462C337.836 174.734 337.836 175.176 338.108 175.448C338.381 175.721 338.822 175.721 339.095 175.448L339.5 175.043L339.905 175.448C340.178 175.721 340.619 175.721 340.892 175.448C341.164 175.176 341.164 174.734 340.892 174.462L340.487 174.056L340.948 173.595Z" fill="#252A2E"/>
<path d="M337.241 177.302C337.514 177.029 337.514 176.587 337.241 176.315C336.969 176.043 336.527 176.043 336.255 176.315L334.401 178.168C334.129 178.441 334.129 178.883 334.401 179.155C334.674 179.428 335.116 179.428 335.388 179.155L337.241 177.302Z" fill="#252A2E"/>
<path d="M333.535 181.008C333.807 180.736 333.807 180.294 333.535 180.022C333.262 179.749 332.82 179.749 332.548 180.022L331.621 180.949C331.349 181.221 331.349 181.663 331.621 181.935C331.894 182.208 332.335 182.208 332.608 181.935L333.535 181.008Z" fill="#252A2E"/>
<path d="M346.392 181.935C346.665 182.208 347.106 182.208 347.379 181.935C347.651 181.663 347.651 181.221 347.379 180.949L346.452 180.022C346.18 179.749 345.738 179.749 345.465 180.022C345.193 180.294 345.193 180.736 345.465 181.008L346.392 181.935Z" fill="#252A2E"/>
<path d="M343.612 179.155C343.884 179.428 344.326 179.428 344.599 179.155C344.871 178.883 344.871 178.441 344.599 178.168L342.745 176.315C342.473 176.043 342.031 176.043 341.759 176.315C341.486 176.587 341.486 177.029 341.759 177.302L343.612 179.155Z" fill="#252A2E"/>
<path d="M336.198 171.741C336.471 172.014 336.913 172.014 337.185 171.741C337.457 171.469 337.457 171.027 337.185 170.755L335.332 168.901C335.059 168.629 334.617 168.629 334.345 168.901C334.072 169.174 334.072 169.616 334.345 169.888L336.198 171.741Z" fill="#252A2E"/>
<path d="M332.492 168.035C332.764 168.307 333.206 168.307 333.478 168.035C333.751 167.762 333.751 167.32 333.478 167.048L332.551 166.121C332.279 165.849 331.837 165.849 331.565 166.121C331.292 166.394 331.292 166.835 331.565 167.108L332.492 168.035Z" fill="#252A2E"/>
<path d="M336.761 169.246C337.038 169.162 337.333 169.116 337.64 169.116H338.337C338.723 169.116 339.035 168.804 339.035 168.419C339.035 168.033 338.723 167.721 338.337 167.721H337.64C337.194 167.721 336.764 167.787 336.357 167.91C335.988 168.022 335.78 168.411 335.891 168.78C336.003 169.149 336.393 169.357 336.761 169.246Z" fill="#252A2E"/>
<path d="M340.663 167.721C340.277 167.721 339.965 168.033 339.965 168.419C339.965 168.804 340.277 169.116 340.663 169.116H341.36C341.667 169.116 341.962 169.162 342.239 169.246C342.607 169.357 342.997 169.149 343.109 168.78C343.22 168.411 343.012 168.022 342.643 167.91C342.236 167.787 341.806 167.721 341.36 167.721H340.663Z" fill="#252A2E"/>
<path d="M334.746 171.261C334.857 170.893 334.649 170.503 334.28 170.391C333.911 170.28 333.522 170.488 333.41 170.857C333.287 171.264 333.221 171.694 333.221 172.14V172.837C333.221 173.223 333.533 173.535 333.919 173.535C334.304 173.535 334.616 173.223 334.616 172.837V172.14C334.616 171.833 334.662 171.538 334.746 171.261Z" fill="#252A2E"/>
<path d="M345.59 170.857C345.478 170.488 345.089 170.28 344.72 170.391C344.351 170.503 344.143 170.893 344.254 171.261C344.338 171.538 344.384 171.833 344.384 172.14V172.837C344.384 173.223 344.696 173.535 345.081 173.535C345.467 173.535 345.779 173.223 345.779 172.837V172.14C345.779 171.694 345.713 171.264 345.59 170.857Z" fill="#252A2E"/>
<path d="M334.616 175.163C334.616 174.777 334.304 174.465 333.919 174.465C333.533 174.465 333.221 174.777 333.221 175.163V175.86C333.221 176.306 333.287 176.736 333.41 177.143C333.522 177.512 333.911 177.72 334.28 177.609C334.649 177.497 334.857 177.107 334.746 176.739C334.662 176.462 334.616 176.167 334.616 175.86V175.163Z" fill="#252A2E"/>
<path d="M345.779 175.163C345.779 174.777 345.467 174.465 345.081 174.465C344.696 174.465 344.384 174.777 344.384 175.163V175.86C344.384 176.167 344.338 176.462 344.254 176.739C344.143 177.107 344.351 177.497 344.72 177.609C345.089 177.72 345.478 177.512 345.59 177.143C345.713 176.736 345.779 176.306 345.779 175.86V175.163Z" fill="#252A2E"/>
<path d="M336.761 178.754C336.393 178.643 336.003 178.851 335.891 179.22C335.78 179.589 335.988 179.978 336.357 180.09C336.764 180.213 337.194 180.279 337.64 180.279H338.337C338.723 180.279 339.035 179.967 339.035 179.581C339.035 179.196 338.723 178.884 338.337 178.884H337.64C337.333 178.884 337.038 178.838 336.761 178.754Z" fill="#252A2E"/>
<path d="M342.643 180.09C343.012 179.978 343.22 179.589 343.109 179.22C342.997 178.851 342.607 178.643 342.239 178.754C341.962 178.838 341.667 178.884 341.36 178.884H340.663C340.277 178.884 339.965 179.196 339.965 179.581C339.965 179.967 340.277 180.279 340.663 180.279H341.36C341.806 180.279 342.236 180.213 342.643 180.09Z" fill="#252A2E"/>
<path d="M363.95 179H362.788V170.038H359.623V169.006H367.115V170.038H363.95V179ZM373.832 179V174.153C373.832 173.543 373.693 173.087 373.415 172.786C373.137 172.485 372.702 172.335 372.109 172.335C371.321 172.335 370.744 172.549 370.38 172.978C370.02 173.406 369.84 174.108 369.84 175.083V179H368.705V168.363H369.84V171.583C369.84 171.97 369.822 172.292 369.785 172.547H369.854C370.077 172.187 370.394 171.904 370.804 171.699C371.218 171.49 371.69 171.385 372.219 171.385C373.135 171.385 373.821 171.604 374.276 172.041C374.737 172.474 374.967 173.164 374.967 174.112V179H373.832ZM378.689 179H377.555V171.508H378.689V179ZM377.459 169.478C377.459 169.218 377.523 169.029 377.65 168.91C377.778 168.787 377.938 168.726 378.129 168.726C378.311 168.726 378.468 168.787 378.601 168.91C378.733 169.033 378.799 169.222 378.799 169.478C378.799 169.733 378.733 169.924 378.601 170.052C378.468 170.175 378.311 170.236 378.129 170.236C377.938 170.236 377.778 170.175 377.65 170.052C377.523 169.924 377.459 169.733 377.459 169.478ZM386.179 176.956C386.179 177.653 385.919 178.191 385.399 178.569C384.88 178.948 384.151 179.137 383.212 179.137C382.218 179.137 381.444 178.979 380.888 178.665V177.612C381.248 177.795 381.633 177.938 382.043 178.043C382.458 178.148 382.856 178.2 383.239 178.2C383.832 178.2 384.287 178.107 384.606 177.92C384.925 177.729 385.085 177.439 385.085 177.052C385.085 176.76 384.957 176.512 384.702 176.307C384.451 176.097 383.959 175.851 383.226 175.568C382.528 175.309 382.032 175.083 381.735 174.892C381.444 174.696 381.225 174.475 381.079 174.229C380.938 173.982 380.867 173.688 380.867 173.347C380.867 172.736 381.116 172.255 381.612 171.904C382.109 171.549 382.79 171.371 383.656 171.371C384.463 171.371 385.251 171.535 386.021 171.863L385.618 172.786C384.866 172.476 384.185 172.321 383.574 172.321C383.036 172.321 382.631 172.406 382.357 172.574C382.084 172.743 381.947 172.975 381.947 173.271C381.947 173.472 381.997 173.643 382.098 173.784C382.202 173.925 382.369 174.06 382.597 174.188C382.825 174.315 383.262 174.5 383.909 174.741C384.798 175.065 385.397 175.391 385.707 175.719C386.021 176.047 386.179 176.459 386.179 176.956ZM393.303 179H392.168V171.508H393.303V179ZM392.072 169.478C392.072 169.218 392.136 169.029 392.264 168.91C392.391 168.787 392.551 168.726 392.742 168.726C392.924 168.726 393.082 168.787 393.214 168.91C393.346 169.033 393.412 169.222 393.412 169.478C393.412 169.733 393.346 169.924 393.214 170.052C393.082 170.175 392.924 170.236 392.742 170.236C392.551 170.236 392.391 170.175 392.264 170.052C392.136 169.924 392.072 169.733 392.072 169.478ZM400.792 176.956C400.792 177.653 400.532 178.191 400.013 178.569C399.493 178.948 398.764 179.137 397.825 179.137C396.832 179.137 396.057 178.979 395.501 178.665V177.612C395.861 177.795 396.246 177.938 396.656 178.043C397.071 178.148 397.47 178.2 397.853 178.2C398.445 178.2 398.901 178.107 399.22 177.92C399.539 177.729 399.698 177.439 399.698 177.052C399.698 176.76 399.571 176.512 399.315 176.307C399.065 176.097 398.573 175.851 397.839 175.568C397.142 175.309 396.645 175.083 396.349 174.892C396.057 174.696 395.838 174.475 395.692 174.229C395.551 173.982 395.48 173.688 395.48 173.347C395.48 172.736 395.729 172.255 396.226 171.904C396.722 171.549 397.404 171.371 398.27 171.371C399.076 171.371 399.865 171.535 400.635 171.863L400.231 172.786C399.479 172.476 398.798 172.321 398.188 172.321C397.65 172.321 397.244 172.406 396.971 172.574C396.697 172.743 396.561 172.975 396.561 173.271C396.561 173.472 396.611 173.643 396.711 173.784C396.816 173.925 396.982 174.06 397.21 174.188C397.438 174.315 397.875 174.5 398.522 174.741C399.411 175.065 400.01 175.391 400.32 175.719C400.635 176.047 400.792 176.459 400.792 176.956ZM411.389 179L411.163 177.934H411.108C410.735 178.403 410.361 178.722 409.987 178.891C409.618 179.055 409.156 179.137 408.6 179.137C407.857 179.137 407.273 178.945 406.85 178.562C406.43 178.18 406.221 177.635 406.221 176.929C406.221 175.416 407.431 174.623 409.851 174.55L411.122 174.509V174.044C411.122 173.456 410.994 173.023 410.739 172.745C410.489 172.463 410.085 172.321 409.529 172.321C408.905 172.321 408.199 172.513 407.41 172.896L407.062 172.027C407.431 171.827 407.834 171.67 408.271 171.556C408.714 171.442 409.156 171.385 409.598 171.385C410.491 171.385 411.152 171.583 411.58 171.979C412.013 172.376 412.229 173.012 412.229 173.887V179H411.389ZM408.825 178.2C409.532 178.2 410.085 178.007 410.486 177.619C410.892 177.232 411.095 176.689 411.095 175.992V175.315L409.96 175.363C409.058 175.395 408.406 175.536 408.005 175.787C407.608 176.033 407.41 176.418 407.41 176.942C407.41 177.353 407.533 177.665 407.779 177.879C408.03 178.093 408.379 178.2 408.825 178.2ZM422.197 179.137C421.71 179.137 421.263 179.048 420.857 178.87C420.456 178.688 420.119 178.41 419.846 178.036H419.764C419.818 178.474 419.846 178.888 419.846 179.28V182.363H418.711V171.508H419.634L419.791 172.533H419.846C420.137 172.123 420.477 171.827 420.864 171.645C421.252 171.462 421.696 171.371 422.197 171.371C423.191 171.371 423.956 171.711 424.494 172.39C425.036 173.069 425.308 174.021 425.308 175.247C425.308 176.478 425.032 177.435 424.48 178.118C423.934 178.797 423.173 179.137 422.197 179.137ZM422.033 172.335C421.268 172.335 420.714 172.547 420.372 172.971C420.03 173.395 419.855 174.069 419.846 174.994V175.247C419.846 176.3 420.021 177.054 420.372 177.51C420.723 177.961 421.286 178.187 422.061 178.187C422.708 178.187 423.214 177.924 423.578 177.4C423.947 176.876 424.132 176.154 424.132 175.233C424.132 174.299 423.947 173.584 423.578 173.087C423.214 172.586 422.699 172.335 422.033 172.335ZM430.965 171.371C431.298 171.371 431.596 171.398 431.86 171.453L431.703 172.506C431.393 172.438 431.12 172.403 430.883 172.403C430.277 172.403 429.757 172.649 429.324 173.142C428.896 173.634 428.682 174.247 428.682 174.98V179H427.547V171.508H428.483L428.613 172.896H428.668C428.946 172.408 429.281 172.032 429.673 171.768C430.065 171.503 430.495 171.371 430.965 171.371ZM434.646 179H433.512V171.508H434.646V179ZM433.416 169.478C433.416 169.218 433.48 169.029 433.607 168.91C433.735 168.787 433.895 168.726 434.086 168.726C434.268 168.726 434.425 168.787 434.558 168.91C434.69 169.033 434.756 169.222 434.756 169.478C434.756 169.733 434.69 169.924 434.558 170.052C434.425 170.175 434.268 170.236 434.086 170.236C433.895 170.236 433.735 170.175 433.607 170.052C433.48 169.924 433.416 169.733 433.416 169.478ZM446.853 179V174.126C446.853 173.529 446.725 173.082 446.47 172.786C446.215 172.485 445.818 172.335 445.28 172.335C444.574 172.335 444.052 172.538 443.715 172.943C443.378 173.349 443.209 173.973 443.209 174.816V179H442.074V174.126C442.074 173.529 441.947 173.082 441.691 172.786C441.436 172.485 441.037 172.335 440.495 172.335C439.784 172.335 439.262 172.549 438.93 172.978C438.602 173.401 438.438 174.099 438.438 175.069V179H437.303V171.508H438.226L438.41 172.533H438.465C438.679 172.169 438.98 171.884 439.367 171.679C439.759 171.474 440.197 171.371 440.68 171.371C441.851 171.371 442.617 171.795 442.977 172.643H443.031C443.255 172.251 443.578 171.941 444.002 171.713C444.426 171.485 444.909 171.371 445.451 171.371C446.299 171.371 446.932 171.59 447.352 172.027C447.775 172.46 447.987 173.155 447.987 174.112V179H446.853ZM455.189 179L454.964 177.934H454.909C454.535 178.403 454.162 178.722 453.788 178.891C453.419 179.055 452.956 179.137 452.4 179.137C451.658 179.137 451.074 178.945 450.65 178.562C450.231 178.18 450.021 177.635 450.021 176.929C450.021 175.416 451.231 174.623 453.651 174.55L454.923 174.509V174.044C454.923 173.456 454.795 173.023 454.54 172.745C454.289 172.463 453.886 172.321 453.33 172.321C452.706 172.321 451.999 172.513 451.211 172.896L450.862 172.027C451.231 171.827 451.635 171.67 452.072 171.556C452.514 171.442 452.956 171.385 453.398 171.385C454.292 171.385 454.952 171.583 455.381 171.979C455.814 172.376 456.03 173.012 456.03 173.887V179H455.189ZM452.626 178.2C453.332 178.2 453.886 178.007 454.287 177.619C454.693 177.232 454.896 176.689 454.896 175.992V175.315L453.761 175.363C452.858 175.395 452.207 175.536 451.806 175.787C451.409 176.033 451.211 176.418 451.211 176.942C451.211 177.353 451.334 177.665 451.58 177.879C451.831 178.093 452.179 178.2 452.626 178.2ZM462.043 171.371C462.376 171.371 462.674 171.398 462.938 171.453L462.781 172.506C462.471 172.438 462.198 172.403 461.961 172.403C461.355 172.403 460.835 172.649 460.402 173.142C459.974 173.634 459.76 174.247 459.76 174.98V179H458.625V171.508H459.562L459.691 172.896H459.746C460.024 172.408 460.359 172.032 460.751 171.768C461.143 171.503 461.574 171.371 462.043 171.371ZM463.4 171.508H464.617L466.258 175.78C466.618 176.756 466.841 177.46 466.928 177.893H466.982C467.042 177.66 467.165 177.264 467.352 176.703C467.543 176.138 468.163 174.406 469.211 171.508H470.428L467.208 180.039C466.889 180.882 466.515 181.479 466.087 181.83C465.663 182.186 465.141 182.363 464.521 182.363C464.175 182.363 463.833 182.325 463.496 182.247V181.338C463.747 181.393 464.027 181.42 464.337 181.42C465.116 181.42 465.672 180.982 466.005 180.107L466.422 179.041L463.4 171.508ZM485.331 179V174.126C485.331 173.529 485.203 173.082 484.948 172.786C484.693 172.485 484.297 172.335 483.759 172.335C483.052 172.335 482.531 172.538 482.193 172.943C481.856 173.349 481.688 173.973 481.688 174.816V179H480.553V174.126C480.553 173.529 480.425 173.082 480.17 172.786C479.915 172.485 479.516 172.335 478.974 172.335C478.263 172.335 477.741 172.549 477.408 172.978C477.08 173.401 476.916 174.099 476.916 175.069V179H475.781V171.508H476.704L476.889 172.533H476.943C477.158 172.169 477.458 171.884 477.846 171.679C478.238 171.474 478.675 171.371 479.158 171.371C480.329 171.371 481.095 171.795 481.455 172.643H481.51C481.733 172.251 482.057 171.941 482.48 171.713C482.904 171.485 483.387 171.371 483.93 171.371C484.777 171.371 485.411 171.59 485.83 172.027C486.254 172.46 486.466 173.155 486.466 174.112V179H485.331ZM492.226 179.137C491.118 179.137 490.243 178.799 489.601 178.125C488.963 177.451 488.644 176.514 488.644 175.315C488.644 174.108 488.94 173.148 489.532 172.438C490.129 171.727 490.929 171.371 491.932 171.371C492.87 171.371 493.613 171.681 494.16 172.301C494.707 172.916 494.98 173.729 494.98 174.741V175.459H489.819C489.842 176.339 490.063 177.006 490.482 177.462C490.906 177.918 491.501 178.146 492.267 178.146C493.073 178.146 493.871 177.977 494.659 177.64V178.651C494.258 178.825 493.878 178.948 493.518 179.021C493.162 179.098 492.731 179.137 492.226 179.137ZM491.918 172.321C491.316 172.321 490.836 172.517 490.476 172.909C490.12 173.301 489.91 173.843 489.847 174.536H493.764C493.764 173.821 493.604 173.274 493.285 172.896C492.966 172.513 492.51 172.321 491.918 172.321ZM502.005 176.956C502.005 177.653 501.745 178.191 501.226 178.569C500.706 178.948 499.977 179.137 499.038 179.137C498.045 179.137 497.27 178.979 496.714 178.665V177.612C497.074 177.795 497.459 177.938 497.869 178.043C498.284 178.148 498.683 178.2 499.065 178.2C499.658 178.2 500.114 178.107 500.433 177.92C500.752 177.729 500.911 177.439 500.911 177.052C500.911 176.76 500.784 176.512 500.528 176.307C500.278 176.097 499.785 175.851 499.052 175.568C498.354 175.309 497.858 175.083 497.562 174.892C497.27 174.696 497.051 174.475 496.905 174.229C496.764 173.982 496.693 173.688 496.693 173.347C496.693 172.736 496.942 172.255 497.438 171.904C497.935 171.549 498.617 171.371 499.482 171.371C500.289 171.371 501.077 171.535 501.848 171.863L501.444 172.786C500.692 172.476 500.011 172.321 499.4 172.321C498.863 172.321 498.457 172.406 498.184 172.574C497.91 172.743 497.773 172.975 497.773 173.271C497.773 173.472 497.824 173.643 497.924 173.784C498.029 173.925 498.195 174.06 498.423 174.188C498.651 174.315 499.088 174.5 499.735 174.741C500.624 175.065 501.223 175.391 501.533 175.719C501.848 176.047 502.005 176.459 502.005 176.956ZM508.94 176.956C508.94 177.653 508.681 178.191 508.161 178.569C507.642 178.948 506.912 179.137 505.974 179.137C504.98 179.137 504.205 178.979 503.649 178.665V177.612C504.009 177.795 504.395 177.938 504.805 178.043C505.219 178.148 505.618 178.2 506.001 178.2C506.593 178.2 507.049 178.107 507.368 177.92C507.687 177.729 507.847 177.439 507.847 177.052C507.847 176.76 507.719 176.512 507.464 176.307C507.213 176.097 506.721 175.851 505.987 175.568C505.29 175.309 504.793 175.083 504.497 174.892C504.205 174.696 503.987 174.475 503.841 174.229C503.7 173.982 503.629 173.688 503.629 173.347C503.629 172.736 503.877 172.255 504.374 171.904C504.871 171.549 505.552 171.371 506.418 171.371C507.225 171.371 508.013 171.535 508.783 171.863L508.38 172.786C507.628 172.476 506.947 172.321 506.336 172.321C505.798 172.321 505.393 172.406 505.119 172.574C504.846 172.743 504.709 172.975 504.709 173.271C504.709 173.472 504.759 173.643 504.859 173.784C504.964 173.925 505.131 174.06 505.358 174.188C505.586 174.315 506.024 174.5 506.671 174.741C507.56 175.065 508.159 175.391 508.469 175.719C508.783 176.047 508.94 176.459 508.94 176.956ZM515.65 179L515.425 177.934H515.37C514.996 178.403 514.623 178.722 514.249 178.891C513.88 179.055 513.417 179.137 512.861 179.137C512.118 179.137 511.535 178.945 511.111 178.562C510.692 178.18 510.482 177.635 510.482 176.929C510.482 175.416 511.692 174.623 514.112 174.55L515.384 174.509V174.044C515.384 173.456 515.256 173.023 515.001 172.745C514.75 172.463 514.347 172.321 513.791 172.321C513.167 172.321 512.46 172.513 511.672 172.896L511.323 172.027C511.692 171.827 512.096 171.67 512.533 171.556C512.975 171.442 513.417 171.385 513.859 171.385C514.753 171.385 515.413 171.583 515.842 171.979C516.275 172.376 516.491 173.012 516.491 173.887V179H515.65ZM513.087 178.2C513.793 178.2 514.347 178.007 514.748 177.619C515.154 177.232 515.356 176.689 515.356 175.992V175.315L514.222 175.363C513.319 175.395 512.668 175.536 512.267 175.787C511.87 176.033 511.672 176.418 511.672 176.942C511.672 177.353 511.795 177.665 512.041 177.879C512.292 178.093 512.64 178.2 513.087 178.2ZM525.218 171.508V172.226L523.83 172.39C523.958 172.549 524.072 172.759 524.172 173.019C524.272 173.274 524.322 173.563 524.322 173.887C524.322 174.62 524.072 175.206 523.57 175.644C523.069 176.081 522.381 176.3 521.506 176.3C521.283 176.3 521.073 176.282 520.877 176.245C520.394 176.5 520.152 176.822 520.152 177.209C520.152 177.414 520.237 177.567 520.405 177.667C520.574 177.763 520.863 177.811 521.273 177.811H522.6C523.411 177.811 524.033 177.981 524.466 178.323C524.903 178.665 525.122 179.162 525.122 179.813C525.122 180.643 524.789 181.274 524.124 181.707C523.459 182.145 522.488 182.363 521.212 182.363C520.232 182.363 519.476 182.181 518.942 181.816C518.414 181.452 518.149 180.937 518.149 180.271C518.149 179.816 518.295 179.422 518.587 179.089C518.879 178.756 519.289 178.531 519.817 178.412C519.626 178.326 519.464 178.191 519.332 178.009C519.204 177.826 519.141 177.615 519.141 177.373C519.141 177.1 519.214 176.86 519.359 176.655C519.505 176.45 519.735 176.252 520.05 176.061C519.662 175.901 519.346 175.63 519.1 175.247C518.858 174.864 518.737 174.427 518.737 173.935C518.737 173.114 518.983 172.483 519.476 172.041C519.968 171.594 520.665 171.371 521.567 171.371C521.959 171.371 522.312 171.417 522.627 171.508H525.218ZM519.243 180.258C519.243 180.663 519.414 180.971 519.756 181.181C520.098 181.39 520.588 181.495 521.226 181.495C522.178 181.495 522.882 181.352 523.338 181.064C523.798 180.782 524.028 180.397 524.028 179.909C524.028 179.504 523.903 179.221 523.652 179.062C523.402 178.907 522.93 178.829 522.237 178.829H520.877C520.362 178.829 519.961 178.952 519.674 179.198C519.387 179.444 519.243 179.798 519.243 180.258ZM519.858 173.907C519.858 174.431 520.007 174.828 520.303 175.097C520.599 175.366 521.011 175.5 521.54 175.5C522.647 175.5 523.201 174.962 523.201 173.887C523.201 172.761 522.641 172.198 521.52 172.198C520.986 172.198 520.576 172.342 520.289 172.629C520.002 172.916 519.858 173.342 519.858 173.907ZM530.171 179.137C529.063 179.137 528.188 178.799 527.546 178.125C526.908 177.451 526.589 176.514 526.589 175.315C526.589 174.108 526.885 173.148 527.478 172.438C528.075 171.727 528.874 171.371 529.877 171.371C530.816 171.371 531.559 171.681 532.105 172.301C532.652 172.916 532.926 173.729 532.926 174.741V175.459H527.765C527.787 176.339 528.008 177.006 528.428 177.462C528.852 177.918 529.446 178.146 530.212 178.146C531.019 178.146 531.816 177.977 532.604 177.64V178.651C532.203 178.825 531.823 178.948 531.463 179.021C531.107 179.098 530.677 179.137 530.171 179.137ZM529.863 172.321C529.262 172.321 528.781 172.517 528.421 172.909C528.065 173.301 527.856 173.843 527.792 174.536H531.709C531.709 173.821 531.549 173.274 531.23 172.896C530.911 172.513 530.456 172.321 529.863 172.321ZM534.953 178.275C534.953 177.97 535.021 177.74 535.158 177.585C535.299 177.425 535.5 177.346 535.76 177.346C536.024 177.346 536.229 177.425 536.375 177.585C536.525 177.74 536.601 177.97 536.601 178.275C536.601 178.572 536.525 178.799 536.375 178.959C536.225 179.118 536.02 179.198 535.76 179.198C535.527 179.198 535.334 179.128 535.179 178.986C535.028 178.84 534.953 178.604 534.953 178.275Z" fill="#252A2E"/>
<g clip-path="url(#clip1_431_73406)">
<path d="M564.219 168.578H567.617C569.091 168.578 570.203 168.792 570.953 169.219C571.703 169.646 572.078 170.383 572.078 171.43C572.078 171.867 572 172.263 571.844 172.617C571.693 172.966 571.471 173.255 571.18 173.484C570.888 173.708 570.529 173.859 570.102 173.938V174.016C570.544 174.094 570.938 174.232 571.281 174.43C571.63 174.628 571.904 174.911 572.102 175.281C572.305 175.651 572.406 176.13 572.406 176.719C572.406 177.417 572.24 178.01 571.906 178.5C571.578 178.99 571.107 179.362 570.492 179.617C569.883 179.872 569.159 180 568.32 180H564.219V168.578ZM566.094 173.289H567.891C568.74 173.289 569.328 173.151 569.656 172.875C569.984 172.599 570.148 172.195 570.148 171.664C570.148 171.122 569.953 170.732 569.562 170.492C569.177 170.253 568.562 170.133 567.719 170.133H566.094V173.289ZM566.094 174.805V178.43H568.07C568.945 178.43 569.56 178.26 569.914 177.922C570.268 177.583 570.445 177.125 570.445 176.547C570.445 176.193 570.365 175.885 570.203 175.625C570.047 175.365 569.789 175.164 569.43 175.023C569.07 174.878 568.586 174.805 567.977 174.805H566.094ZM582.367 171.352V180H580.922L580.672 178.836H580.57C580.388 179.133 580.156 179.38 579.875 179.578C579.594 179.771 579.281 179.914 578.938 180.008C578.594 180.107 578.232 180.156 577.852 180.156C577.201 180.156 576.643 180.047 576.18 179.828C575.721 179.604 575.37 179.26 575.125 178.797C574.88 178.333 574.758 177.734 574.758 177V171.352H576.602V176.656C576.602 177.328 576.737 177.831 577.008 178.164C577.284 178.497 577.711 178.664 578.289 178.664C578.846 178.664 579.289 178.549 579.617 178.32C579.945 178.091 580.177 177.753 580.312 177.305C580.453 176.857 580.523 176.307 580.523 175.656V171.352H582.367ZM588.469 178.672C588.708 178.672 588.945 178.651 589.18 178.609C589.414 178.562 589.628 178.508 589.82 178.445V179.836C589.617 179.924 589.354 180 589.031 180.062C588.708 180.125 588.372 180.156 588.023 180.156C587.534 180.156 587.094 180.076 586.703 179.914C586.312 179.747 586.003 179.464 585.773 179.062C585.544 178.661 585.43 178.107 585.43 177.398V172.75H584.25V171.93L585.516 171.281L586.117 169.43H587.273V171.352H589.75V172.75H587.273V177.375C587.273 177.812 587.383 178.138 587.602 178.352C587.82 178.565 588.109 178.672 588.469 178.672ZM595.047 178.672C595.286 178.672 595.523 178.651 595.758 178.609C595.992 178.562 596.206 178.508 596.398 178.445V179.836C596.195 179.924 595.932 180 595.609 180.062C595.286 180.125 594.951 180.156 594.602 180.156C594.112 180.156 593.672 180.076 593.281 179.914C592.891 179.747 592.581 179.464 592.352 179.062C592.122 178.661 592.008 178.107 592.008 177.398V172.75H590.828V171.93L592.094 171.281L592.695 169.43H593.852V171.352H596.328V172.75H593.852V177.375C593.852 177.812 593.961 178.138 594.18 178.352C594.398 178.565 594.688 178.672 595.047 178.672ZM606.062 175.656C606.062 176.375 605.969 177.013 605.781 177.57C605.594 178.128 605.32 178.599 604.961 178.984C604.602 179.365 604.169 179.656 603.664 179.859C603.159 180.057 602.589 180.156 601.953 180.156C601.359 180.156 600.815 180.057 600.32 179.859C599.826 179.656 599.396 179.365 599.031 178.984C598.672 178.599 598.393 178.128 598.195 177.57C597.997 177.013 597.898 176.375 597.898 175.656C597.898 174.703 598.062 173.896 598.391 173.234C598.724 172.568 599.198 172.06 599.812 171.711C600.427 171.362 601.159 171.188 602.008 171.188C602.805 171.188 603.508 171.362 604.117 171.711C604.727 172.06 605.203 172.568 605.547 173.234C605.891 173.901 606.062 174.708 606.062 175.656ZM599.789 175.656C599.789 176.286 599.865 176.826 600.016 177.273C600.172 177.721 600.411 178.065 600.734 178.305C601.057 178.539 601.474 178.656 601.984 178.656C602.495 178.656 602.911 178.539 603.234 178.305C603.557 178.065 603.794 177.721 603.945 177.273C604.096 176.826 604.172 176.286 604.172 175.656C604.172 175.026 604.096 174.492 603.945 174.055C603.794 173.612 603.557 173.276 603.234 173.047C602.911 172.812 602.492 172.695 601.977 172.695C601.216 172.695 600.661 172.951 600.312 173.461C599.964 173.971 599.789 174.703 599.789 175.656ZM612.93 171.188C613.904 171.188 614.661 171.44 615.203 171.945C615.75 172.445 616.023 173.25 616.023 174.359V180H614.188V174.703C614.188 174.031 614.049 173.529 613.773 173.195C613.497 172.857 613.07 172.688 612.492 172.688C611.654 172.688 611.07 172.945 610.742 173.461C610.419 173.977 610.258 174.724 610.258 175.703V180H608.422V171.352H609.852L610.109 172.523H610.211C610.398 172.221 610.63 171.974 610.906 171.781C611.188 171.583 611.5 171.435 611.844 171.336C612.193 171.237 612.555 171.188 612.93 171.188Z" fill="#353A40"/>
</g>
<rect x="547.5" y="155" width="85" height="38" rx="3" stroke="#353A40" stroke-width="2"/>
<rect x="312" y="150.5" width="337" height="47" rx="3.5" stroke="#353A40"/>
<defs>
<clipPath id="clip0_431_73406">
<rect width="55" height="24" fill="white" transform="translate(562.5 98)"/>
</clipPath>
<clipPath id="clip1_431_73406">
<rect width="55" height="24" fill="white" transform="translate(562.5 162)"/>
</clipPath>
</defs>
</svg>
