<svg width="960" height="128" viewBox="0 0 960 128" fill="none" xmlns="http://www.w3.org/2000/svg"><g clip-path="url(#clip0_296_60084)"><rect width="960" height="128" fill="#F1F1F6"/><rect x="311.5" y="40.5" width="337" height="47" rx="3.5" fill="#DCEDF9"/><g clip-path="url(#clip1_296_60084)"><path d="M328.9 64C328.9 65.392 329.162 66.7704 329.669 68.0564C330.177 69.3425 330.921 70.511 331.859 71.4953C332.796 72.4796 333.91 73.2604 335.135 73.7931C336.361 74.3258 337.674 74.6 339 74.6C340.327 74.6 341.64 74.3258 342.865 73.7931C344.091 73.2604 345.204 72.4796 346.142 71.4953C347.08 70.511 347.824 69.3425 348.332 68.0564C348.839 66.7704 349.1 65.392 349.1 64C349.1 62.608 348.839 61.2296 348.332 59.9435C347.824 58.6575 347.08 57.489 346.142 56.5047C345.204 55.5204 344.091 54.7396 342.865 54.2069C341.64 53.6742 340.327 53.4 339 53.4C337.674 53.4 336.361 53.6742 335.135 54.2069C333.91 54.7396 332.796 55.5204 331.859 56.5047C330.921 57.489 330.177 58.6575 329.669 59.9435C329.162 61.2296 328.9 62.608 328.9 64Z" fill="#019AEB"/><path d="M339 54.3C344.35 54.3 348.7 58.65 348.7 64C348.7 69.35 344.35 73.7 339 73.7C333.65 73.7 329.3 69.35 329.3 64C329.3 58.65 333.65 54.3 339 54.3ZM339 52.6C332.7 52.6 327.6 57.7 327.6 64C327.6 70.3 332.7 75.4 339 75.4C345.3 75.4 350.4 70.3 350.4 64C350.4 57.7 345.3 52.6 339 52.6Z" fill="#0E416C"/><path d="M340.1 67.35H340.9V68.85H337.1V67.35H338.25V63.85H337.1V62.3H340.1V67.35ZM338.15 61.35H340.1V59.15H338.15V61.35Z" fill="#fff"/></g><path d="M363.45 69H362.288V60.0381H359.123V59.0059H366.615V60.0381H363.45V69ZM373.332 69V64.1533C373.332 63.5426 373.193 63.0869 372.915 62.7861C372.637 62.4854 372.202 62.335 371.609 62.335C370.821 62.335 370.244 62.5492 369.88 62.9775C369.52 63.4059 369.34 64.1077 369.34 65.083V69H368.205V58.3633H369.34V61.583C369.34 61.9704 369.322 62.2917 369.285 62.5469H369.354C369.577 62.1868 369.894 61.9043 370.304 61.6992C370.718 61.4896 371.19 61.3848 371.719 61.3848C372.635 61.3848 373.321 61.6035 373.776 62.041C374.237 62.474 374.467 63.1644 374.467 64.1123V69H373.332ZM378.189 69H377.055V61.5078H378.189V69ZM376.959 59.4775C376.959 59.2178 377.023 59.0286 377.15 58.9102C377.278 58.7871 377.438 58.7256 377.629 58.7256C377.811 58.7256 377.968 58.7871 378.101 58.9102C378.233 59.0332 378.299 59.2223 378.299 59.4775C378.299 59.7327 378.233 59.9242 378.101 60.0518C377.968 60.1748 377.811 60.2363 377.629 60.2363C377.438 60.2363 377.278 60.1748 377.15 60.0518C377.023 59.9242 376.959 59.7327 376.959 59.4775ZM385.679 66.9561C385.679 67.6533 385.419 68.1911 384.899 68.5693C384.38 68.9476 383.651 69.1367 382.712 69.1367C381.718 69.1367 380.944 68.9795 380.388 68.665V67.6123C380.748 67.7946 381.133 67.9382 381.543 68.043C381.958 68.1478 382.356 68.2002 382.739 68.2002C383.332 68.2002 383.787 68.1068 384.106 67.9199C384.425 67.7285 384.585 67.4391 384.585 67.0518C384.585 66.7601 384.457 66.5117 384.202 66.3066C383.951 66.097 383.459 65.8509 382.726 65.5684C382.028 65.3086 381.532 65.083 381.235 64.8916C380.944 64.6956 380.725 64.4746 380.579 64.2285C380.438 63.9824 380.367 63.6885 380.367 63.3467C380.367 62.736 380.616 62.2552 381.112 61.9043C381.609 61.5488 382.29 61.3711 383.156 61.3711C383.963 61.3711 384.751 61.5352 385.521 61.8633L385.118 62.7861C384.366 62.4762 383.685 62.3213 383.074 62.3213C382.536 62.3213 382.131 62.4056 381.857 62.5742C381.584 62.7428 381.447 62.9753 381.447 63.2715C381.447 63.472 381.497 63.6429 381.598 63.7842C381.702 63.9255 381.869 64.0599 382.097 64.1875C382.325 64.3151 382.762 64.4997 383.409 64.7412C384.298 65.0648 384.897 65.3906 385.207 65.7188C385.521 66.0469 385.679 66.4593 385.679 66.9561ZM392.803 69H391.668V61.5078H392.803V69ZM391.572 59.4775C391.572 59.2178 391.636 59.0286 391.764 58.9102C391.891 58.7871 392.051 58.7256 392.242 58.7256C392.424 58.7256 392.582 58.7871 392.714 58.9102C392.846 59.0332 392.912 59.2223 392.912 59.4775C392.912 59.7327 392.846 59.9242 392.714 60.0518C392.582 60.1748 392.424 60.2363 392.242 60.2363C392.051 60.2363 391.891 60.1748 391.764 60.0518C391.636 59.9242 391.572 59.7327 391.572 59.4775ZM400.292 66.9561C400.292 67.6533 400.032 68.1911 399.513 68.5693C398.993 68.9476 398.264 69.1367 397.325 69.1367C396.332 69.1367 395.557 68.9795 395.001 68.665V67.6123C395.361 67.7946 395.746 67.9382 396.156 68.043C396.571 68.1478 396.97 68.2002 397.353 68.2002C397.945 68.2002 398.401 68.1068 398.72 67.9199C399.039 67.7285 399.198 67.4391 399.198 67.0518C399.198 66.7601 399.071 66.5117 398.815 66.3066C398.565 66.097 398.073 65.8509 397.339 65.5684C396.642 65.3086 396.145 65.083 395.849 64.8916C395.557 64.6956 395.338 64.4746 395.192 64.2285C395.051 63.9824 394.98 63.6885 394.98 63.3467C394.98 62.736 395.229 62.2552 395.726 61.9043C396.222 61.5488 396.904 61.3711 397.77 61.3711C398.576 61.3711 399.365 61.5352 400.135 61.8633L399.731 62.7861C398.979 62.4762 398.298 62.3213 397.688 62.3213C397.15 62.3213 396.744 62.4056 396.471 62.5742C396.197 62.7428 396.061 62.9753 396.061 63.2715C396.061 63.472 396.111 63.6429 396.211 63.7842C396.316 63.9255 396.482 64.0599 396.71 64.1875C396.938 64.3151 397.375 64.4997 398.022 64.7412C398.911 65.0648 399.51 65.3906 399.82 65.7188C400.135 66.0469 400.292 66.4593 400.292 66.9561ZM410.889 69L410.663 67.9336H410.608C410.235 68.403 409.861 68.722 409.487 68.8906C409.118 69.0547 408.656 69.1367 408.1 69.1367C407.357 69.1367 406.773 68.9453 406.35 68.5625C405.93 68.1797 405.721 67.6351 405.721 66.9287C405.721 65.4157 406.931 64.6227 409.351 64.5498L410.622 64.5088V64.0439C410.622 63.4561 410.494 63.0231 410.239 62.7451C409.989 62.4626 409.585 62.3213 409.029 62.3213C408.405 62.3213 407.699 62.5127 406.91 62.8955L406.562 62.0273C406.931 61.8268 407.334 61.6696 407.771 61.5557C408.214 61.4417 408.656 61.3848 409.098 61.3848C409.991 61.3848 410.652 61.583 411.08 61.9795C411.513 62.376 411.729 63.0117 411.729 63.8867V69H410.889ZM408.325 68.2002C409.032 68.2002 409.585 68.0065 409.986 67.6191C410.392 67.2318 410.595 66.6895 410.595 65.9922V65.3154L409.46 65.3633C408.558 65.3952 407.906 65.5365 407.505 65.7871C407.108 66.0332 406.91 66.4183 406.91 66.9424C406.91 67.3525 407.033 67.6647 407.279 67.8789C407.53 68.0931 407.879 68.2002 408.325 68.2002ZM421.697 69.1367C421.21 69.1367 420.763 69.0479 420.357 68.8701C419.956 68.6878 419.619 68.4098 419.346 68.0361H419.264C419.318 68.4736 419.346 68.8883 419.346 69.2803V72.3633H418.211V61.5078H419.134L419.291 62.5332H419.346C419.637 62.123 419.977 61.8268 420.364 61.6445C420.752 61.4622 421.196 61.3711 421.697 61.3711C422.691 61.3711 423.456 61.7106 423.994 62.3896C424.536 63.0687 424.808 64.0212 424.808 65.2471C424.808 66.4775 424.532 67.4346 423.98 68.1182C423.434 68.7972 422.673 69.1367 421.697 69.1367ZM421.533 62.335C420.768 62.335 420.214 62.5469 419.872 62.9707C419.53 63.3945 419.355 64.069 419.346 64.9941V65.2471C419.346 66.2998 419.521 67.054 419.872 67.5098C420.223 67.9609 420.786 68.1865 421.561 68.1865C422.208 68.1865 422.714 67.9245 423.078 67.4004C423.447 66.8763 423.632 66.154 423.632 65.2334C423.632 64.2992 423.447 63.5837 423.078 63.0869C422.714 62.5856 422.199 62.335 421.533 62.335ZM430.465 61.3711C430.798 61.3711 431.096 61.3984 431.36 61.4531L431.203 62.5059C430.893 62.4375 430.62 62.4033 430.383 62.4033C429.777 62.4033 429.257 62.6494 428.824 63.1416C428.396 63.6338 428.182 64.2467 428.182 64.9805V69H427.047V61.5078H427.983L428.113 62.8955H428.168C428.446 62.4079 428.781 62.0319 429.173 61.7676C429.565 61.5033 429.995 61.3711 430.465 61.3711ZM434.146 69H433.012V61.5078H434.146V69ZM432.916 59.4775C432.916 59.2178 432.98 59.0286 433.107 58.9102C433.235 58.7871 433.395 58.7256 433.586 58.7256C433.768 58.7256 433.925 58.7871 434.058 58.9102C434.19 59.0332 434.256 59.2223 434.256 59.4775C434.256 59.7327 434.19 59.9242 434.058 60.0518C433.925 60.1748 433.768 60.2363 433.586 60.2363C433.395 60.2363 433.235 60.1748 433.107 60.0518C432.98 59.9242 432.916 59.7327 432.916 59.4775ZM446.353 69V64.126C446.353 63.529 446.225 63.0824 445.97 62.7861C445.715 62.4854 445.318 62.335 444.78 62.335C444.074 62.335 443.552 62.5378 443.215 62.9434C442.878 63.349 442.709 63.9733 442.709 64.8164V69H441.574V64.126C441.574 63.529 441.447 63.0824 441.191 62.7861C440.936 62.4854 440.537 62.335 439.995 62.335C439.284 62.335 438.762 62.5492 438.43 62.9775C438.102 63.4014 437.938 64.0986 437.938 65.0693V69H436.803V61.5078H437.726L437.91 62.5332H437.965C438.179 62.1686 438.48 61.8838 438.867 61.6787C439.259 61.4736 439.697 61.3711 440.18 61.3711C441.351 61.3711 442.117 61.7949 442.477 62.6426H442.531C442.755 62.2507 443.078 61.9408 443.502 61.7129C443.926 61.485 444.409 61.3711 444.951 61.3711C445.799 61.3711 446.432 61.5898 446.852 62.0273C447.275 62.4603 447.487 63.1553 447.487 64.1123V69H446.353ZM454.689 69L454.464 67.9336H454.409C454.035 68.403 453.662 68.722 453.288 68.8906C452.919 69.0547 452.456 69.1367 451.9 69.1367C451.158 69.1367 450.574 68.9453 450.15 68.5625C449.731 68.1797 449.521 67.6351 449.521 66.9287C449.521 65.4157 450.731 64.6227 453.151 64.5498L454.423 64.5088V64.0439C454.423 63.4561 454.295 63.0231 454.04 62.7451C453.789 62.4626 453.386 62.3213 452.83 62.3213C452.206 62.3213 451.499 62.5127 450.711 62.8955L450.362 62.0273C450.731 61.8268 451.135 61.6696 451.572 61.5557C452.014 61.4417 452.456 61.3848 452.898 61.3848C453.792 61.3848 454.452 61.583 454.881 61.9795C455.314 62.376 455.53 63.0117 455.53 63.8867V69H454.689ZM452.126 68.2002C452.832 68.2002 453.386 68.0065 453.787 67.6191C454.193 67.2318 454.396 66.6895 454.396 65.9922V65.3154L453.261 65.3633C452.358 65.3952 451.707 65.5365 451.306 65.7871C450.909 66.0332 450.711 66.4183 450.711 66.9424C450.711 67.3525 450.834 67.6647 451.08 67.8789C451.331 68.0931 451.679 68.2002 452.126 68.2002ZM461.543 61.3711C461.876 61.3711 462.174 61.3984 462.438 61.4531L462.281 62.5059C461.971 62.4375 461.698 62.4033 461.461 62.4033C460.855 62.4033 460.335 62.6494 459.902 63.1416C459.474 63.6338 459.26 64.2467 459.26 64.9805V69H458.125V61.5078H459.062L459.191 62.8955H459.246C459.524 62.4079 459.859 62.0319 460.251 61.7676C460.643 61.5033 461.074 61.3711 461.543 61.3711ZM462.9 61.5078H464.117L465.758 65.7803C466.118 66.7555 466.341 67.4596 466.428 67.8926H466.482C466.542 67.6602 466.665 67.2637 466.852 66.7031C467.043 66.138 467.663 64.4062 468.711 61.5078H469.928L466.708 70.0391C466.389 70.8822 466.015 71.4792 465.587 71.8301C465.163 72.1855 464.641 72.3633 464.021 72.3633C463.675 72.3633 463.333 72.3245 462.996 72.2471V71.3379C463.247 71.3926 463.527 71.4199 463.837 71.4199C464.616 71.4199 465.172 70.9824 465.505 70.1074L465.922 69.041L462.9 61.5078ZM484.831 69V64.126C484.831 63.529 484.703 63.0824 484.448 62.7861C484.193 62.4854 483.797 62.335 483.259 62.335C482.552 62.335 482.031 62.5378 481.693 62.9434C481.356 63.349 481.188 63.9733 481.188 64.8164V69H480.053V64.126C480.053 63.529 479.925 63.0824 479.67 62.7861C479.415 62.4854 479.016 62.335 478.474 62.335C477.763 62.335 477.241 62.5492 476.908 62.9775C476.58 63.4014 476.416 64.0986 476.416 65.0693V69H475.281V61.5078H476.204L476.389 62.5332H476.443C476.658 62.1686 476.958 61.8838 477.346 61.6787C477.738 61.4736 478.175 61.3711 478.658 61.3711C479.829 61.3711 480.595 61.7949 480.955 62.6426H481.01C481.233 62.2507 481.557 61.9408 481.98 61.7129C482.404 61.485 482.887 61.3711 483.43 61.3711C484.277 61.3711 484.911 61.5898 485.33 62.0273C485.754 62.4603 485.966 63.1553 485.966 64.1123V69H484.831ZM491.726 69.1367C490.618 69.1367 489.743 68.7995 489.101 68.125C488.463 67.4505 488.144 66.514 488.144 65.3154C488.144 64.1077 488.44 63.1484 489.032 62.4375C489.629 61.7266 490.429 61.3711 491.432 61.3711C492.37 61.3711 493.113 61.681 493.66 62.3008C494.207 62.916 494.48 63.7295 494.48 64.7412V65.459H489.319C489.342 66.3385 489.563 67.0062 489.982 67.4619C490.406 67.9176 491.001 68.1455 491.767 68.1455C492.573 68.1455 493.371 67.9769 494.159 67.6396V68.6514C493.758 68.8245 493.378 68.9476 493.018 69.0205C492.662 69.098 492.231 69.1367 491.726 69.1367ZM491.418 62.3213C490.816 62.3213 490.336 62.5173 489.976 62.9092C489.62 63.3011 489.41 63.8434 489.347 64.5361H493.264C493.264 63.8206 493.104 63.2738 492.785 62.8955C492.466 62.5127 492.01 62.3213 491.418 62.3213ZM501.505 66.9561C501.505 67.6533 501.245 68.1911 500.726 68.5693C500.206 68.9476 499.477 69.1367 498.538 69.1367C497.545 69.1367 496.77 68.9795 496.214 68.665V67.6123C496.574 67.7946 496.959 67.9382 497.369 68.043C497.784 68.1478 498.183 68.2002 498.565 68.2002C499.158 68.2002 499.614 68.1068 499.933 67.9199C500.252 67.7285 500.411 67.4391 500.411 67.0518C500.411 66.7601 500.284 66.5117 500.028 66.3066C499.778 66.097 499.285 65.8509 498.552 65.5684C497.854 65.3086 497.358 65.083 497.062 64.8916C496.77 64.6956 496.551 64.4746 496.405 64.2285C496.264 63.9824 496.193 63.6885 496.193 63.3467C496.193 62.736 496.442 62.2552 496.938 61.9043C497.435 61.5488 498.117 61.3711 498.982 61.3711C499.789 61.3711 500.577 61.5352 501.348 61.8633L500.944 62.7861C500.192 62.4762 499.511 62.3213 498.9 62.3213C498.363 62.3213 497.957 62.4056 497.684 62.5742C497.41 62.7428 497.273 62.9753 497.273 63.2715C497.273 63.472 497.324 63.6429 497.424 63.7842C497.529 63.9255 497.695 64.0599 497.923 64.1875C498.151 64.3151 498.588 64.4997 499.235 64.7412C500.124 65.0648 500.723 65.3906 501.033 65.7188C501.348 66.0469 501.505 66.4593 501.505 66.9561ZM508.44 66.9561C508.44 67.6533 508.181 68.1911 507.661 68.5693C507.142 68.9476 506.412 69.1367 505.474 69.1367C504.48 69.1367 503.705 68.9795 503.149 68.665V67.6123C503.509 67.7946 503.895 67.9382 504.305 68.043C504.719 68.1478 505.118 68.2002 505.501 68.2002C506.093 68.2002 506.549 68.1068 506.868 67.9199C507.187 67.7285 507.347 67.4391 507.347 67.0518C507.347 66.7601 507.219 66.5117 506.964 66.3066C506.713 66.097 506.221 65.8509 505.487 65.5684C504.79 65.3086 504.293 65.083 503.997 64.8916C503.705 64.6956 503.487 64.4746 503.341 64.2285C503.2 63.9824 503.129 63.6885 503.129 63.3467C503.129 62.736 503.377 62.2552 503.874 61.9043C504.371 61.5488 505.052 61.3711 505.918 61.3711C506.725 61.3711 507.513 61.5352 508.283 61.8633L507.88 62.7861C507.128 62.4762 506.447 62.3213 505.836 62.3213C505.298 62.3213 504.893 62.4056 504.619 62.5742C504.346 62.7428 504.209 62.9753 504.209 63.2715C504.209 63.472 504.259 63.6429 504.359 63.7842C504.464 63.9255 504.631 64.0599 504.858 64.1875C505.086 64.3151 505.524 64.4997 506.171 64.7412C507.06 65.0648 507.659 65.3906 507.969 65.7188C508.283 66.0469 508.44 66.4593 508.44 66.9561ZM515.15 69L514.925 67.9336H514.87C514.496 68.403 514.123 68.722 513.749 68.8906C513.38 69.0547 512.917 69.1367 512.361 69.1367C511.618 69.1367 511.035 68.9453 510.611 68.5625C510.192 68.1797 509.982 67.6351 509.982 66.9287C509.982 65.4157 511.192 64.6227 513.612 64.5498L514.884 64.5088V64.0439C514.884 63.4561 514.756 63.0231 514.501 62.7451C514.25 62.4626 513.847 62.3213 513.291 62.3213C512.667 62.3213 511.96 62.5127 511.172 62.8955L510.823 62.0273C511.192 61.8268 511.596 61.6696 512.033 61.5557C512.475 61.4417 512.917 61.3848 513.359 61.3848C514.253 61.3848 514.913 61.583 515.342 61.9795C515.775 62.376 515.991 63.0117 515.991 63.8867V69H515.15ZM512.587 68.2002C513.293 68.2002 513.847 68.0065 514.248 67.6191C514.654 67.2318 514.856 66.6895 514.856 65.9922V65.3154L513.722 65.3633C512.819 65.3952 512.168 65.5365 511.767 65.7871C511.37 66.0332 511.172 66.4183 511.172 66.9424C511.172 67.3525 511.295 67.6647 511.541 67.8789C511.792 68.0931 512.14 68.2002 512.587 68.2002ZM524.718 61.5078V62.2256L523.33 62.3896C523.458 62.5492 523.572 62.7588 523.672 63.0186C523.772 63.2738 523.822 63.5632 523.822 63.8867C523.822 64.6204 523.572 65.2061 523.07 65.6436C522.569 66.0811 521.881 66.2998 521.006 66.2998C520.783 66.2998 520.573 66.2816 520.377 66.2451C519.894 66.5003 519.652 66.8216 519.652 67.209C519.652 67.4141 519.737 67.5667 519.905 67.667C520.074 67.7627 520.363 67.8105 520.773 67.8105H522.1C522.911 67.8105 523.533 67.9814 523.966 68.3232C524.403 68.665 524.622 69.1618 524.622 69.8135C524.622 70.6429 524.289 71.2741 523.624 71.707C522.959 72.1445 521.988 72.3633 520.712 72.3633C519.732 72.3633 518.976 72.181 518.442 71.8164C517.914 71.4518 517.649 70.9368 517.649 70.2715C517.649 69.8158 517.795 69.4215 518.087 69.0889C518.379 68.7562 518.789 68.5306 519.317 68.4121C519.126 68.3255 518.964 68.1911 518.832 68.0088C518.704 67.8265 518.641 67.6146 518.641 67.373C518.641 67.0996 518.714 66.8604 518.859 66.6553C519.005 66.4502 519.235 66.252 519.55 66.0605C519.162 65.901 518.846 65.6299 518.6 65.2471C518.358 64.8643 518.237 64.4268 518.237 63.9346C518.237 63.1143 518.483 62.4831 518.976 62.041C519.468 61.5944 520.165 61.3711 521.067 61.3711C521.459 61.3711 521.812 61.4167 522.127 61.5078H524.718ZM518.743 70.2578C518.743 70.6634 518.914 70.971 519.256 71.1807C519.598 71.3903 520.088 71.4951 520.726 71.4951C521.678 71.4951 522.382 71.3516 522.838 71.0645C523.298 70.7819 523.528 70.3968 523.528 69.9092C523.528 69.5036 523.403 69.221 523.152 69.0615C522.902 68.9066 522.43 68.8291 521.737 68.8291H520.377C519.862 68.8291 519.461 68.9521 519.174 69.1982C518.887 69.4443 518.743 69.7975 518.743 70.2578ZM519.358 63.9072C519.358 64.4313 519.507 64.8278 519.803 65.0967C520.099 65.3656 520.511 65.5 521.04 65.5C522.147 65.5 522.701 64.9622 522.701 63.8867C522.701 62.7611 522.141 62.1982 521.02 62.1982C520.486 62.1982 520.076 62.3418 519.789 62.6289C519.502 62.916 519.358 63.3421 519.358 63.9072ZM529.671 69.1367C528.563 69.1367 527.688 68.7995 527.046 68.125C526.408 67.4505 526.089 66.514 526.089 65.3154C526.089 64.1077 526.385 63.1484 526.978 62.4375C527.575 61.7266 528.374 61.3711 529.377 61.3711C530.316 61.3711 531.059 61.681 531.605 62.3008C532.152 62.916 532.426 63.7295 532.426 64.7412V65.459H527.265C527.287 66.3385 527.508 67.0062 527.928 67.4619C528.352 67.9176 528.946 68.1455 529.712 68.1455C530.519 68.1455 531.316 67.9769 532.104 67.6396V68.6514C531.703 68.8245 531.323 68.9476 530.963 69.0205C530.607 69.098 530.177 69.1367 529.671 69.1367ZM529.363 62.3213C528.762 62.3213 528.281 62.5173 527.921 62.9092C527.565 63.3011 527.356 63.8434 527.292 64.5361H531.209C531.209 63.8206 531.049 63.2738 530.73 62.8955C530.411 62.5127 529.956 62.3213 529.363 62.3213ZM534.453 68.2754C534.453 67.9701 534.521 67.7399 534.658 67.585C534.799 67.4255 535 67.3457 535.26 67.3457C535.524 67.3457 535.729 67.4255 535.875 67.585C536.025 67.7399 536.101 67.9701 536.101 68.2754C536.101 68.5716 536.025 68.7995 535.875 68.959C535.725 69.1185 535.52 69.1982 535.26 69.1982C535.027 69.1982 534.834 69.1276 534.679 68.9863C534.528 68.8405 534.453 68.6035 534.453 68.2754Z" fill="#0063A3"/><g clip-path="url(#clip2_296_60084)"><path d="M563.719 58.5781H567.117C568.591 58.5781 569.703 58.7917 570.453 59.2188C571.203 59.6458 571.578 60.3828 571.578 61.4297C571.578 61.8672 571.5 62.263 571.344 62.6172C571.193 62.9661 570.971 63.2552 570.68 63.4844C570.388 63.7083 570.029 63.8594 569.602 63.9375V64.0156C570.044 64.0938 570.438 64.2318 570.781 64.4297C571.13 64.6276 571.404 64.9115 571.602 65.2812C571.805 65.651 571.906 66.1302 571.906 66.7188C571.906 67.4167 571.74 68.0104 571.406 68.5C571.078 68.9896 570.607 69.362 569.992 69.6172C569.383 69.8724 568.659 70 567.82 70H563.719V58.5781ZM565.594 63.2891H567.391C568.24 63.2891 568.828 63.151 569.156 62.875C569.484 62.599 569.648 62.1953 569.648 61.6641C569.648 61.1224 569.453 60.7318 569.062 60.4922C568.677 60.2526 568.062 60.1328 567.219 60.1328H565.594V63.2891ZM565.594 64.8047V68.4297H567.57C568.445 68.4297 569.06 68.2604 569.414 67.9219C569.768 67.5833 569.945 67.125 569.945 66.5469C569.945 66.1927 569.865 65.8854 569.703 65.625C569.547 65.3646 569.289 65.1641 568.93 65.0234C568.57 64.8776 568.086 64.8047 567.477 64.8047H565.594ZM581.867 61.3516V70H580.422L580.172 68.8359H580.07C579.888 69.1328 579.656 69.3802 579.375 69.5781C579.094 69.7708 578.781 69.9141 578.438 70.0078C578.094 70.1068 577.732 70.1562 577.352 70.1562C576.701 70.1562 576.143 70.0469 575.68 69.8281C575.221 69.6042 574.87 69.2604 574.625 68.7969C574.38 68.3333 574.258 67.7344 574.258 67V61.3516H576.102V66.6562C576.102 67.3281 576.237 67.8307 576.508 68.1641C576.784 68.4974 577.211 68.6641 577.789 68.6641C578.346 68.6641 578.789 68.5495 579.117 68.3203C579.445 68.0911 579.677 67.7526 579.812 67.3047C579.953 66.8568 580.023 66.3073 580.023 65.6562V61.3516H581.867ZM587.969 68.6719C588.208 68.6719 588.445 68.651 588.68 68.6094C588.914 68.5625 589.128 68.5078 589.32 68.4453V69.8359C589.117 69.9245 588.854 70 588.531 70.0625C588.208 70.125 587.872 70.1562 587.523 70.1562C587.034 70.1562 586.594 70.0755 586.203 69.9141C585.812 69.7474 585.503 69.4635 585.273 69.0625C585.044 68.6615 584.93 68.1068 584.93 67.3984V62.75H583.75V61.9297L585.016 61.2812L585.617 59.4297H586.773V61.3516H589.25V62.75H586.773V67.375C586.773 67.8125 586.883 68.138 587.102 68.3516C587.32 68.5651 587.609 68.6719 587.969 68.6719ZM594.547 68.6719C594.786 68.6719 595.023 68.651 595.258 68.6094C595.492 68.5625 595.706 68.5078 595.898 68.4453V69.8359C595.695 69.9245 595.432 70 595.109 70.0625C594.786 70.125 594.451 70.1562 594.102 70.1562C593.612 70.1562 593.172 70.0755 592.781 69.9141C592.391 69.7474 592.081 69.4635 591.852 69.0625C591.622 68.6615 591.508 68.1068 591.508 67.3984V62.75H590.328V61.9297L591.594 61.2812L592.195 59.4297H593.352V61.3516H595.828V62.75H593.352V67.375C593.352 67.8125 593.461 68.138 593.68 68.3516C593.898 68.5651 594.188 68.6719 594.547 68.6719ZM605.562 65.6562C605.562 66.375 605.469 67.013 605.281 67.5703C605.094 68.1276 604.82 68.599 604.461 68.9844C604.102 69.3646 603.669 69.6562 603.164 69.8594C602.659 70.0573 602.089 70.1562 601.453 70.1562C600.859 70.1562 600.315 70.0573 599.82 69.8594C599.326 69.6562 598.896 69.3646 598.531 68.9844C598.172 68.599 597.893 68.1276 597.695 67.5703C597.497 67.013 597.398 66.375 597.398 65.6562C597.398 64.7031 597.562 63.8958 597.891 63.2344C598.224 62.5677 598.698 62.0599 599.312 61.7109C599.927 61.362 600.659 61.1875 601.508 61.1875C602.305 61.1875 603.008 61.362 603.617 61.7109C604.227 62.0599 604.703 62.5677 605.047 63.2344C605.391 63.901 605.562 64.7083 605.562 65.6562ZM599.289 65.6562C599.289 66.2865 599.365 66.8255 599.516 67.2734C599.672 67.7214 599.911 68.0651 600.234 68.3047C600.557 68.5391 600.974 68.6562 601.484 68.6562C601.995 68.6562 602.411 68.5391 602.734 68.3047C603.057 68.0651 603.294 67.7214 603.445 67.2734C603.596 66.8255 603.672 66.2865 603.672 65.6562C603.672 65.026 603.596 64.4922 603.445 64.0547C603.294 63.612 603.057 63.276 602.734 63.0469C602.411 62.8125 601.992 62.6953 601.477 62.6953C600.716 62.6953 600.161 62.9505 599.812 63.4609C599.464 63.9714 599.289 64.7031 599.289 65.6562ZM612.43 61.1875C613.404 61.1875 614.161 61.4401 614.703 61.9453C615.25 62.4453 615.523 63.25 615.523 64.3594V70H613.688V64.7031C613.688 64.0312 613.549 63.5286 613.273 63.1953C612.997 62.8568 612.57 62.6875 611.992 62.6875C611.154 62.6875 610.57 62.9453 610.242 63.4609C609.919 63.9766 609.758 64.724 609.758 65.7031V70H607.922V61.3516H609.352L609.609 62.5234H609.711C609.898 62.2214 610.13 61.974 610.406 61.7812C610.688 61.5833 611 61.4349 611.344 61.3359C611.693 61.237 612.055 61.1875 612.43 61.1875Z" fill="#0063A3"/></g><rect x="547" y="45" width="85" height="38" rx="3" stroke="#0063A3" stroke-width="2"/><rect x="311.5" y="40.5" width="337" height="47" rx="3.5" stroke="#217CBB"/><path d="M697.5 40V88" stroke="#E8178A"/><rect x="679" y="55" width="38" height="18" rx="3" fill="#E8178A"/><path d="M685.479 66.7216V65.5107L688.516 60.7273H689.56V62.4034H688.942L687.028 65.4325V65.4893H691.342V66.7216H685.479ZM688.97 68V66.3523L688.999 65.8161V60.7273H690.44V68H688.97ZM695.08 68.0994C694.533 68.0994 694.047 68.0107 693.62 67.8331C693.197 67.6532 692.864 67.4081 692.623 67.098C692.381 66.7879 692.26 66.4363 692.26 66.0433C692.26 65.7403 692.329 65.4621 692.466 65.2088C692.606 64.9531 692.795 64.7412 693.034 64.5732C693.274 64.4027 693.541 64.2938 693.837 64.2464V64.1967C693.449 64.1186 693.134 63.9304 692.892 63.6321C692.651 63.3314 692.53 62.9822 692.53 62.5845C692.53 62.2081 692.64 61.8731 692.86 61.5795C693.081 61.2836 693.382 61.0516 693.766 60.8835C694.152 60.7131 694.59 60.6278 695.08 60.6278C695.57 60.6278 696.007 60.7131 696.39 60.8835C696.776 61.054 697.079 61.2872 697.299 61.5831C697.52 61.8767 697.631 62.2105 697.633 62.5845C697.631 62.9846 697.508 63.3338 697.264 63.6321C697.02 63.9304 696.708 64.1186 696.326 64.1967V64.2464C696.618 64.2938 696.882 64.4027 697.118 64.5732C697.357 64.7412 697.547 64.9531 697.686 65.2088C697.828 65.4621 697.901 65.7403 697.903 66.0433C697.901 66.4363 697.779 66.7879 697.537 67.098C697.296 67.4081 696.962 67.6532 696.536 67.8331C696.112 68.0107 695.627 68.0994 695.08 68.0994ZM695.08 66.9702C695.324 66.9702 695.537 66.9264 695.719 66.8388C695.901 66.7488 696.043 66.6257 696.145 66.4695C696.249 66.3108 696.301 66.1286 696.301 65.9226C696.301 65.7119 696.248 65.526 696.142 65.3651C696.035 65.2017 695.891 65.0739 695.708 64.9815C695.526 64.8868 695.317 64.8395 695.08 64.8395C694.846 64.8395 694.636 64.8868 694.451 64.9815C694.267 65.0739 694.121 65.2017 694.015 65.3651C693.91 65.526 693.858 65.7119 693.858 65.9226C693.858 66.1286 693.909 66.3108 694.011 66.4695C694.113 66.6257 694.256 66.7488 694.441 66.8388C694.625 66.9264 694.838 66.9702 695.08 66.9702ZM695.08 63.7209C695.283 63.7209 695.465 63.6795 695.623 63.5966C695.782 63.5137 695.906 63.3989 695.996 63.2521C696.086 63.1054 696.131 62.9361 696.131 62.7443C696.131 62.5549 696.086 62.3892 695.996 62.2472C695.906 62.1027 695.783 61.9903 695.627 61.9098C695.471 61.8269 695.288 61.7855 695.08 61.7855C694.874 61.7855 694.692 61.8269 694.533 61.9098C694.374 61.9903 694.25 62.1027 694.16 62.2472C694.073 62.3892 694.029 62.5549 694.029 62.7443C694.029 62.9361 694.074 63.1054 694.164 63.2521C694.254 63.3989 694.378 63.5137 694.537 63.5966C694.695 63.6795 694.876 63.7209 695.08 63.7209ZM698.992 70.0455V62.5455H700.484V63.4616H700.551C700.618 63.3149 700.713 63.1657 700.839 63.0142C700.967 62.8603 701.133 62.7325 701.336 62.6307C701.542 62.5265 701.798 62.4744 702.103 62.4744C702.501 62.4744 702.868 62.5786 703.204 62.7869C703.54 62.9929 703.809 63.3042 704.01 63.7209C704.211 64.1352 704.312 64.6548 704.312 65.2798C704.312 65.8883 704.214 66.402 704.017 66.821C703.823 67.2377 703.558 67.5537 703.222 67.7692C702.888 67.9822 702.514 68.0888 702.1 68.0888C701.806 68.0888 701.556 68.0402 701.35 67.9432C701.147 67.8461 700.98 67.7242 700.85 67.5774C700.719 67.4283 700.62 67.2779 700.551 67.1264H700.505V70.0455H698.992ZM700.473 65.2727C700.473 65.5971 700.518 65.88 700.608 66.1214C700.698 66.3629 700.828 66.5511 700.999 66.6861C701.169 66.8187 701.376 66.8849 701.62 66.8849C701.866 66.8849 702.075 66.8175 702.245 66.6825C702.416 66.5452 702.545 66.3558 702.632 66.1143C702.722 65.8705 702.767 65.59 702.767 65.2727C702.767 64.9579 702.723 64.6809 702.636 64.4418C702.548 64.2027 702.419 64.0156 702.249 63.8807C702.078 63.7457 701.869 63.6783 701.62 63.6783C701.374 63.6783 701.166 63.7434 700.995 63.8736C700.827 64.0038 700.698 64.1884 700.608 64.4276C700.518 64.6667 700.473 64.9484 700.473 65.2727ZM706.389 62.5455L707.391 64.4524L708.417 62.5455H709.969L708.389 65.2727L710.012 68H708.467L707.391 66.1143L706.333 68H704.77L706.389 65.2727L704.827 62.5455H706.389Z" fill="#fff"/><line x1="694" y1="40.5" x2="701" y2="40.5" stroke="#E8178A"/><line x1="694" y1="87.5" x2="701" y2="87.5" stroke="#E8178A"/></g><defs><clipPath id="clip0_296_60084"><rect width="960" height="128" fill="#fff"/></clipPath><clipPath id="clip1_296_60084"><rect width="24" height="24" fill="#fff" transform="translate(327 52)"/></clipPath><clipPath id="clip2_296_60084"><rect width="55" height="24" fill="#fff" transform="translate(562 52)"/></clipPath></defs></svg>