<svg width="960" height="303" viewBox="0 0 960 303" fill="none" xmlns="http://www.w3.org/2000/svg">
<g clip-path="url(#clip0_296_60268)">
<g clip-path="url(#clip1_296_60268)">
<rect width="479" height="120" fill="#252A2E"/>
<path d="M429.5 36V84" stroke="#E8178A"/>
<rect x="411" y="51" width="38" height="18" rx="3" fill="#E8178A"/>
<path d="M417.479 62.7216V61.5107L420.516 56.7273H421.56V58.4034H420.942L419.028 61.4325V61.4893H423.342V62.7216H417.479ZM420.97 64V62.3523L420.999 61.8161V56.7273H422.44V64H420.97ZM427.08 64.0994C426.533 64.0994 426.047 64.0107 425.62 63.8331C425.197 63.6532 424.864 63.4081 424.623 63.098C424.381 62.7879 424.26 62.4363 424.26 62.0433C424.26 61.7403 424.329 61.4621 424.466 61.2088C424.606 60.9531 424.795 60.7412 425.034 60.5732C425.274 60.4027 425.541 60.2938 425.837 60.2464V60.1967C425.449 60.1186 425.134 59.9304 424.892 59.6321C424.651 59.3314 424.53 58.9822 424.53 58.5845C424.53 58.2081 424.64 57.8731 424.86 57.5795C425.081 57.2836 425.382 57.0516 425.766 56.8835C426.152 56.7131 426.59 56.6278 427.08 56.6278C427.57 56.6278 428.007 56.7131 428.39 56.8835C428.776 57.054 429.079 57.2872 429.299 57.5831C429.52 57.8767 429.631 58.2105 429.633 58.5845C429.631 58.9846 429.508 59.3338 429.264 59.6321C429.02 59.9304 428.708 60.1186 428.326 60.1967V60.2464C428.618 60.2938 428.882 60.4027 429.118 60.5732C429.357 60.7412 429.547 60.9531 429.686 61.2088C429.828 61.4621 429.901 61.7403 429.903 62.0433C429.901 62.4363 429.779 62.7879 429.537 63.098C429.296 63.4081 428.962 63.6532 428.536 63.8331C428.112 64.0107 427.627 64.0994 427.08 64.0994ZM427.08 62.9702C427.324 62.9702 427.537 62.9264 427.719 62.8388C427.901 62.7488 428.043 62.6257 428.145 62.4695C428.249 62.3108 428.301 62.1286 428.301 61.9226C428.301 61.7119 428.248 61.526 428.142 61.3651C428.035 61.2017 427.891 61.0739 427.708 60.9815C427.526 60.8868 427.317 60.8395 427.08 60.8395C426.846 60.8395 426.636 60.8868 426.451 60.9815C426.267 61.0739 426.121 61.2017 426.015 61.3651C425.91 61.526 425.858 61.7119 425.858 61.9226C425.858 62.1286 425.909 62.3108 426.011 62.4695C426.113 62.6257 426.256 62.7488 426.441 62.8388C426.625 62.9264 426.838 62.9702 427.08 62.9702ZM427.08 59.7209C427.283 59.7209 427.465 59.6795 427.623 59.5966C427.782 59.5137 427.906 59.3989 427.996 59.2521C428.086 59.1054 428.131 58.9361 428.131 58.7443C428.131 58.5549 428.086 58.3892 427.996 58.2472C427.906 58.1027 427.783 57.9903 427.627 57.9098C427.471 57.8269 427.288 57.7855 427.08 57.7855C426.874 57.7855 426.692 57.8269 426.533 57.9098C426.374 57.9903 426.25 58.1027 426.16 58.2472C426.073 58.3892 426.029 58.5549 426.029 58.7443C426.029 58.9361 426.074 59.1054 426.164 59.2521C426.254 59.3989 426.378 59.5137 426.537 59.5966C426.695 59.6795 426.876 59.7209 427.08 59.7209ZM430.992 66.0455V58.5455H432.484V59.4616H432.551C432.618 59.3149 432.713 59.1657 432.839 59.0142C432.967 58.8603 433.133 58.7325 433.336 58.6307C433.542 58.5265 433.798 58.4744 434.103 58.4744C434.501 58.4744 434.868 58.5786 435.204 58.7869C435.54 58.9929 435.809 59.3042 436.01 59.7209C436.211 60.1352 436.312 60.6548 436.312 61.2798C436.312 61.8883 436.214 62.402 436.017 62.821C435.823 63.2377 435.558 63.5537 435.222 63.7692C434.888 63.9822 434.514 64.0888 434.1 64.0888C433.806 64.0888 433.556 64.0402 433.35 63.9432C433.147 63.8461 432.98 63.7242 432.85 63.5774C432.719 63.4283 432.62 63.2779 432.551 63.1264H432.505V66.0455H430.992ZM432.473 61.2727C432.473 61.5971 432.518 61.88 432.608 62.1214C432.698 62.3629 432.828 62.5511 432.999 62.6861C433.169 62.8187 433.376 62.8849 433.62 62.8849C433.866 62.8849 434.075 62.8175 434.245 62.6825C434.416 62.5452 434.545 62.3558 434.632 62.1143C434.722 61.8705 434.767 61.59 434.767 61.2727C434.767 60.9579 434.723 60.6809 434.636 60.4418C434.548 60.2027 434.419 60.0156 434.249 59.8807C434.078 59.7457 433.869 59.6783 433.62 59.6783C433.374 59.6783 433.166 59.7434 432.995 59.8736C432.827 60.0038 432.698 60.1884 432.608 60.4276C432.518 60.6667 432.473 60.9484 432.473 61.2727ZM438.389 58.5455L439.391 60.4524L440.417 58.5455H441.969L440.389 61.2727L442.012 64H440.467L439.391 62.1143L438.333 64H436.77L438.389 61.2727L436.827 58.5455H438.389Z" fill="white"/>
<line x1="426" y1="36.5" x2="433" y2="36.5" stroke="#E8178A"/>
<line x1="426" y1="83.5" x2="433" y2="83.5" stroke="#E8178A"/>
<rect x="108" y="40.5" width="263" height="39" rx="3.5" fill="#019AEB" fill-opacity="0.4"/>
<path d="M135.5 57.03C136.05 57.03 136.5 56.58 136.5 56.03C136.5 55.48 136.05 55.03 135.5 55.03C134.95 55.03 134.5 55.48 134.5 56.03C134.5 56.58 134.95 57.03 135.5 57.03ZM135.5 70C141.02 70 145.5 65.52 145.5 60C145.5 54.48 141.02 50 135.5 50C129.98 50 125.5 54.48 125.5 60C125.5 65.52 129.98 70 135.5 70ZM135.5 52C139.91 52 143.5 55.59 143.5 60C143.5 64.41 139.91 68 135.5 68C131.09 68 127.5 64.41 127.5 60C127.5 55.59 131.09 52 135.5 52ZM135.5 65C136.05 65 136.5 64.55 136.5 64V60C136.5 59.45 136.05 59 135.5 59C134.95 59 134.5 59.45 134.5 60V64C134.5 64.55 134.95 65 135.5 65Z" fill="white"/>
<path d="M164.804 59.9072C164.804 61.0329 164.599 61.974 164.188 62.7305C163.778 63.4824 163.184 64.0498 162.404 64.4326C161.63 64.8109 160.688 65 159.581 65H156.867V55.0059H159.882C160.898 55.0059 161.773 55.1927 162.507 55.5664C163.241 55.9355 163.806 56.4847 164.202 57.2139C164.603 57.9385 164.804 58.8363 164.804 59.9072ZM163.58 59.9482C163.58 59.0505 163.43 58.3099 163.129 57.7266C162.833 57.1432 162.395 56.7103 161.816 56.4277C161.242 56.1406 160.538 55.9971 159.704 55.9971H158.029V64.002H159.444C160.821 64.002 161.853 63.6624 162.541 62.9834C163.234 62.3044 163.58 61.2926 163.58 59.9482ZM169.989 57.3711C170.627 57.3711 171.174 57.5124 171.63 57.7949C172.086 58.0775 172.434 58.474 172.676 58.9844C172.917 59.4902 173.038 60.0827 173.038 60.7617V61.4658H167.863C167.877 62.3454 168.096 63.0153 168.52 63.4756C168.943 63.9359 169.54 64.166 170.311 64.166C170.785 64.166 171.204 64.1227 171.568 64.0361C171.933 63.9495 172.311 63.8219 172.703 63.6533V64.6514C172.325 64.82 171.949 64.943 171.575 65.0205C171.206 65.098 170.769 65.1367 170.263 65.1367C169.543 65.1367 168.914 64.9909 168.376 64.6992C167.843 64.403 167.428 63.9701 167.132 63.4004C166.836 62.8307 166.688 62.1335 166.688 61.3086C166.688 60.502 166.822 59.8047 167.091 59.2168C167.364 58.6243 167.747 58.1686 168.239 57.8496C168.736 57.5306 169.319 57.3711 169.989 57.3711ZM169.976 58.3008C169.369 58.3008 168.886 58.499 168.526 58.8955C168.166 59.292 167.952 59.8457 167.884 60.5566H171.849C171.844 60.11 171.773 59.7181 171.637 59.3809C171.505 59.0391 171.302 58.7747 171.028 58.5879C170.755 58.3965 170.404 58.3008 169.976 58.3008ZM178.552 58.3965H176.686V65H175.551V58.3965H174.225V57.8496L175.551 57.4736V56.9746C175.551 56.3457 175.644 55.8353 175.831 55.4434C176.018 55.0469 176.289 54.7552 176.645 54.5684C177 54.3815 177.433 54.2881 177.943 54.2881C178.23 54.2881 178.493 54.3132 178.729 54.3633C178.971 54.4134 179.183 54.4704 179.365 54.5342L179.071 55.4297C178.916 55.3796 178.741 55.334 178.545 55.293C178.354 55.2474 178.158 55.2246 177.957 55.2246C177.524 55.2246 177.203 55.3659 176.993 55.6484C176.788 55.9264 176.686 56.3639 176.686 56.9609V57.5078H178.552V58.3965ZM182.985 57.3848C183.879 57.3848 184.542 57.5853 184.975 57.9863C185.408 58.3874 185.624 59.0277 185.624 59.9072V65H184.797L184.578 63.8926H184.523C184.314 64.166 184.095 64.3962 183.867 64.583C183.639 64.7653 183.375 64.9043 183.074 65C182.778 65.0911 182.413 65.1367 181.98 65.1367C181.525 65.1367 181.119 65.057 180.764 64.8975C180.413 64.738 180.135 64.4964 179.93 64.1729C179.729 63.8493 179.629 63.4391 179.629 62.9424C179.629 62.195 179.925 61.6208 180.518 61.2197C181.11 60.8187 182.012 60.5999 183.225 60.5635L184.517 60.5088V60.0508C184.517 59.4036 184.378 58.9502 184.1 58.6904C183.822 58.4307 183.43 58.3008 182.924 58.3008C182.532 58.3008 182.158 58.3577 181.803 58.4717C181.447 58.5856 181.11 58.7201 180.791 58.875L180.442 58.0137C180.78 57.8405 181.167 57.6924 181.604 57.5693C182.042 57.4463 182.502 57.3848 182.985 57.3848ZM184.503 61.3086L183.361 61.3564C182.427 61.3929 181.769 61.5456 181.386 61.8145C181.003 62.0833 180.812 62.4639 180.812 62.9561C180.812 63.3844 180.941 63.7012 181.201 63.9062C181.461 64.1113 181.805 64.2139 182.233 64.2139C182.899 64.2139 183.443 64.0293 183.867 63.6602C184.291 63.291 184.503 62.7373 184.503 61.999V61.3086ZM194.398 57.5078V65H193.469L193.305 63.9473H193.243C193.088 64.207 192.888 64.4258 192.642 64.6035C192.396 64.7812 192.118 64.9134 191.808 65C191.502 65.0911 191.176 65.1367 190.83 65.1367C190.238 65.1367 189.741 65.041 189.34 64.8496C188.939 64.6582 188.636 64.362 188.431 63.9609C188.23 63.5599 188.13 63.0449 188.13 62.416V57.5078H189.278V62.334C189.278 62.9583 189.42 63.4255 189.702 63.7354C189.985 64.0407 190.415 64.1934 190.994 64.1934C191.55 64.1934 191.992 64.0885 192.32 63.8789C192.653 63.6693 192.892 63.3617 193.038 62.9561C193.184 62.5459 193.257 62.0446 193.257 61.4521V57.5078H194.398ZM198.189 65H197.048V54.3633H198.189V65ZM203.259 64.207C203.446 64.207 203.637 64.1911 203.833 64.1592C204.029 64.1273 204.188 64.0885 204.312 64.043V64.9248C204.179 64.984 203.995 65.0342 203.758 65.0752C203.525 65.1162 203.298 65.1367 203.074 65.1367C202.678 65.1367 202.318 65.0684 201.994 64.9316C201.671 64.7904 201.411 64.5534 201.215 64.2207C201.023 63.888 200.928 63.4277 200.928 62.8398V58.3965H199.861V57.8428L200.935 57.3984L201.386 55.7715H202.069V57.5078H204.264V58.3965H202.069V62.8057C202.069 63.2751 202.176 63.626 202.391 63.8584C202.609 64.0908 202.899 64.207 203.259 64.207ZM218.101 57.3711C218.925 57.3711 219.548 57.5876 219.967 58.0205C220.386 58.4489 220.596 59.1393 220.596 60.0918V65H219.475V60.1465C219.475 59.5404 219.342 59.0869 219.078 58.7861C218.818 58.4808 218.431 58.3281 217.916 58.3281C217.191 58.3281 216.665 58.5378 216.337 58.957C216.009 59.3763 215.845 59.9938 215.845 60.8096V65H214.717V60.1465C214.717 59.7409 214.658 59.4036 214.539 59.1348C214.425 58.8659 214.252 58.6654 214.02 58.5332C213.792 58.3965 213.502 58.3281 213.151 58.3281C212.655 58.3281 212.256 58.4307 211.955 58.6357C211.654 58.8408 211.436 59.1462 211.299 59.5518C211.167 59.9528 211.101 60.4473 211.101 61.0352V65H209.966V57.5078H210.882L211.053 58.5674H211.114C211.265 58.3076 211.454 58.0889 211.682 57.9111C211.91 57.7334 212.165 57.599 212.447 57.5078C212.73 57.4167 213.031 57.3711 213.35 57.3711C213.919 57.3711 214.396 57.4782 214.778 57.6924C215.166 57.902 215.446 58.2233 215.619 58.6562H215.681C215.927 58.2233 216.264 57.902 216.692 57.6924C217.121 57.4782 217.59 57.3711 218.101 57.3711ZM226.062 57.3711C226.7 57.3711 227.246 57.5124 227.702 57.7949C228.158 58.0775 228.507 58.474 228.748 58.9844C228.99 59.4902 229.11 60.0827 229.11 60.7617V61.4658H223.936C223.949 62.3454 224.168 63.0153 224.592 63.4756C225.016 63.9359 225.613 64.166 226.383 64.166C226.857 64.166 227.276 64.1227 227.641 64.0361C228.005 63.9495 228.383 63.8219 228.775 63.6533V64.6514C228.397 64.82 228.021 64.943 227.647 65.0205C227.278 65.098 226.841 65.1367 226.335 65.1367C225.615 65.1367 224.986 64.9909 224.448 64.6992C223.915 64.403 223.5 63.9701 223.204 63.4004C222.908 62.8307 222.76 62.1335 222.76 61.3086C222.76 60.502 222.894 59.8047 223.163 59.2168C223.437 58.6243 223.819 58.1686 224.312 57.8496C224.808 57.5306 225.392 57.3711 226.062 57.3711ZM226.048 58.3008C225.442 58.3008 224.959 58.499 224.599 58.8955C224.239 59.292 224.024 59.8457 223.956 60.5566H227.921C227.916 60.11 227.846 59.7181 227.709 59.3809C227.577 59.0391 227.374 58.7747 227.101 58.5879C226.827 58.3965 226.476 58.3008 226.048 58.3008ZM236.135 62.9492C236.135 63.4277 236.014 63.8311 235.772 64.1592C235.535 64.4827 235.194 64.7266 234.747 64.8906C234.305 65.0547 233.776 65.1367 233.161 65.1367C232.637 65.1367 232.184 65.0957 231.801 65.0137C231.418 64.9316 231.083 64.8154 230.796 64.665V63.6191C231.101 63.7695 231.466 63.9062 231.89 64.0293C232.313 64.1523 232.746 64.2139 233.188 64.2139C233.836 64.2139 234.305 64.109 234.597 63.8994C234.888 63.6898 235.034 63.4049 235.034 63.0449C235.034 62.8398 234.975 62.6598 234.856 62.5049C234.743 62.3454 234.549 62.1927 234.275 62.0469C234.002 61.8965 233.624 61.7324 233.141 61.5547C232.662 61.3724 232.247 61.1924 231.896 61.0146C231.55 60.8324 231.281 60.6113 231.09 60.3516C230.903 60.0918 230.81 59.7546 230.81 59.3398C230.81 58.7064 231.065 58.221 231.575 57.8838C232.09 57.542 232.765 57.3711 233.599 57.3711C234.05 57.3711 234.471 57.4167 234.863 57.5078C235.26 57.5944 235.629 57.7129 235.971 57.8633L235.588 58.7725C235.278 58.6403 234.948 58.5286 234.597 58.4375C234.246 58.3464 233.888 58.3008 233.523 58.3008C232.999 58.3008 232.596 58.3874 232.313 58.5605C232.035 58.7337 231.896 58.9707 231.896 59.2715C231.896 59.5039 231.96 59.6953 232.088 59.8457C232.22 59.9961 232.43 60.1374 232.717 60.2695C233.004 60.4017 233.382 60.5566 233.852 60.7344C234.321 60.9076 234.727 61.0876 235.068 61.2744C235.41 61.4567 235.672 61.68 235.854 61.9443C236.041 62.2041 236.135 62.5391 236.135 62.9492ZM243.057 62.9492C243.057 63.4277 242.936 63.8311 242.694 64.1592C242.457 64.4827 242.116 64.7266 241.669 64.8906C241.227 65.0547 240.698 65.1367 240.083 65.1367C239.559 65.1367 239.105 65.0957 238.723 65.0137C238.34 64.9316 238.005 64.8154 237.718 64.665V63.6191C238.023 63.7695 238.388 63.9062 238.812 64.0293C239.235 64.1523 239.668 64.2139 240.11 64.2139C240.757 64.2139 241.227 64.109 241.519 63.8994C241.81 63.6898 241.956 63.4049 241.956 63.0449C241.956 62.8398 241.897 62.6598 241.778 62.5049C241.664 62.3454 241.471 62.1927 241.197 62.0469C240.924 61.8965 240.546 61.7324 240.062 61.5547C239.584 61.3724 239.169 61.1924 238.818 61.0146C238.472 60.8324 238.203 60.6113 238.012 60.3516C237.825 60.0918 237.731 59.7546 237.731 59.3398C237.731 58.7064 237.987 58.221 238.497 57.8838C239.012 57.542 239.687 57.3711 240.521 57.3711C240.972 57.3711 241.393 57.4167 241.785 57.5078C242.182 57.5944 242.551 57.7129 242.893 57.8633L242.51 58.7725C242.2 58.6403 241.869 58.5286 241.519 58.4375C241.168 58.3464 240.81 58.3008 240.445 58.3008C239.921 58.3008 239.518 58.3874 239.235 58.5605C238.957 58.7337 238.818 58.9707 238.818 59.2715C238.818 59.5039 238.882 59.6953 239.01 59.8457C239.142 59.9961 239.352 60.1374 239.639 60.2695C239.926 60.4017 240.304 60.5566 240.773 60.7344C241.243 60.9076 241.648 61.0876 241.99 61.2744C242.332 61.4567 242.594 61.68 242.776 61.9443C242.963 62.2041 243.057 62.5391 243.057 62.9492ZM247.935 57.3848C248.828 57.3848 249.491 57.5853 249.924 57.9863C250.357 58.3874 250.573 59.0277 250.573 59.9072V65H249.746L249.527 63.8926H249.473C249.263 64.166 249.044 64.3962 248.816 64.583C248.589 64.7653 248.324 64.9043 248.023 65C247.727 65.0911 247.363 65.1367 246.93 65.1367C246.474 65.1367 246.068 65.057 245.713 64.8975C245.362 64.738 245.084 64.4964 244.879 64.1729C244.678 63.8493 244.578 63.4391 244.578 62.9424C244.578 62.195 244.874 61.6208 245.467 61.2197C246.059 60.8187 246.962 60.5999 248.174 60.5635L249.466 60.5088V60.0508C249.466 59.4036 249.327 58.9502 249.049 58.6904C248.771 58.4307 248.379 58.3008 247.873 58.3008C247.481 58.3008 247.107 58.3577 246.752 58.4717C246.396 58.5856 246.059 58.7201 245.74 58.875L245.392 58.0137C245.729 57.8405 246.116 57.6924 246.554 57.5693C246.991 57.4463 247.451 57.3848 247.935 57.3848ZM249.452 61.3086L248.311 61.3564C247.376 61.3929 246.718 61.5456 246.335 61.8145C245.952 62.0833 245.761 62.4639 245.761 62.9561C245.761 63.3844 245.891 63.7012 246.15 63.9062C246.41 64.1113 246.754 64.2139 247.183 64.2139C247.848 64.2139 248.393 64.0293 248.816 63.6602C249.24 63.291 249.452 62.7373 249.452 61.999V61.3086ZM255.253 68.3633C254.269 68.3633 253.51 68.1787 252.977 67.8096C252.443 67.445 252.177 66.9323 252.177 66.2715C252.177 65.8021 252.325 65.401 252.621 65.0684C252.922 64.7357 253.337 64.5146 253.865 64.4053C253.669 64.3141 253.501 64.1774 253.359 63.9951C253.223 63.8128 253.154 63.6032 253.154 63.3662C253.154 63.0928 253.229 62.8535 253.38 62.6484C253.535 62.4388 253.77 62.2383 254.084 62.0469C253.692 61.8874 253.373 61.6185 253.127 61.2402C252.885 60.8574 252.765 60.4131 252.765 59.9072C252.765 59.3695 252.876 58.9115 253.1 58.5332C253.323 58.1504 253.646 57.8587 254.07 57.6582C254.494 57.4577 255.007 57.3574 255.608 57.3574C255.741 57.3574 255.873 57.3643 256.005 57.3779C256.142 57.387 256.271 57.403 256.395 57.4258C256.518 57.444 256.625 57.4668 256.716 57.4941H259.286V58.2256L257.905 58.3965C258.042 58.5742 258.156 58.7884 258.247 59.0391C258.338 59.2897 258.384 59.5677 258.384 59.873C258.384 60.6204 258.131 61.2152 257.625 61.6572C257.119 62.0947 256.424 62.3135 255.54 62.3135C255.33 62.3135 255.116 62.2952 254.897 62.2588C254.674 62.3818 254.503 62.5186 254.385 62.6689C254.271 62.8193 254.214 62.9925 254.214 63.1885C254.214 63.3343 254.257 63.4505 254.344 63.5371C254.435 63.6237 254.565 63.6875 254.733 63.7285C254.902 63.765 255.105 63.7832 255.342 63.7832H256.661C257.477 63.7832 258.101 63.9541 258.534 64.2959C258.972 64.6377 259.19 65.1367 259.19 65.793C259.19 66.6224 258.853 67.2581 258.179 67.7002C257.504 68.1423 256.529 68.3633 255.253 68.3633ZM255.287 67.4746C255.907 67.4746 256.42 67.4108 256.825 67.2832C257.235 67.1602 257.541 66.9801 257.741 66.7432C257.946 66.5107 258.049 66.2327 258.049 65.9092C258.049 65.6084 257.98 65.3805 257.844 65.2256C257.707 65.0752 257.507 64.9749 257.242 64.9248C256.978 64.8701 256.654 64.8428 256.271 64.8428H254.973C254.635 64.8428 254.341 64.8952 254.091 65C253.84 65.1048 253.646 65.2598 253.51 65.4648C253.378 65.6699 253.312 65.9251 253.312 66.2305C253.312 66.6361 253.482 66.9437 253.824 67.1533C254.166 67.3675 254.654 67.4746 255.287 67.4746ZM255.581 61.4863C256.123 61.4863 256.531 61.3496 256.805 61.0762C257.078 60.8027 257.215 60.404 257.215 59.8799C257.215 59.3193 257.076 58.9001 256.798 58.6221C256.52 58.3395 256.11 58.1982 255.567 58.1982C255.048 58.1982 254.647 58.3441 254.364 58.6357C254.086 58.9229 253.947 59.3444 253.947 59.9004C253.947 60.4108 254.089 60.8027 254.371 61.0762C254.654 61.3496 255.057 61.4863 255.581 61.4863ZM263.897 57.3711C264.535 57.3711 265.082 57.5124 265.538 57.7949C265.994 58.0775 266.342 58.474 266.584 58.9844C266.826 59.4902 266.946 60.0827 266.946 60.7617V61.4658H261.771C261.785 62.3454 262.004 63.0153 262.428 63.4756C262.852 63.9359 263.449 64.166 264.219 64.166C264.693 64.166 265.112 64.1227 265.477 64.0361C265.841 63.9495 266.219 63.8219 266.611 63.6533V64.6514C266.233 64.82 265.857 64.943 265.483 65.0205C265.114 65.098 264.677 65.1367 264.171 65.1367C263.451 65.1367 262.822 64.9909 262.284 64.6992C261.751 64.403 261.336 63.9701 261.04 63.4004C260.744 62.8307 260.596 62.1335 260.596 61.3086C260.596 60.502 260.73 59.8047 260.999 59.2168C261.272 58.6243 261.655 58.1686 262.147 57.8496C262.644 57.5306 263.228 57.3711 263.897 57.3711ZM263.884 58.3008C263.278 58.3008 262.795 58.499 262.435 58.8955C262.075 59.292 261.86 59.8457 261.792 60.5566H265.757C265.752 60.11 265.682 59.7181 265.545 59.3809C265.413 59.0391 265.21 58.7747 264.937 58.5879C264.663 58.3965 264.312 58.3008 263.884 58.3008ZM268.953 64.2891C268.953 63.9701 269.031 63.7445 269.186 63.6123C269.34 63.4756 269.53 63.4072 269.753 63.4072C269.985 63.4072 270.181 63.4756 270.341 63.6123C270.5 63.7445 270.58 63.9701 270.58 64.2891C270.58 64.6035 270.5 64.8337 270.341 64.9795C270.181 65.1208 269.985 65.1914 269.753 65.1914C269.53 65.1914 269.34 65.1208 269.186 64.9795C269.031 64.8337 268.953 64.6035 268.953 64.2891Z" fill="white"/>
<rect x="280.5" y="44" width="75" height="32" rx="4" fill="#019AEB"/>
<path d="M297.855 56.4336H300.521C301.662 56.4336 302.525 56.5938 303.111 56.9141C303.697 57.2344 303.99 57.7969 303.99 58.6016C303.99 58.9258 303.938 59.2188 303.832 59.4805C303.73 59.7422 303.582 59.957 303.387 60.125C303.191 60.293 302.953 60.4023 302.672 60.4531V60.5117C302.957 60.5703 303.215 60.6719 303.445 60.8164C303.676 60.957 303.859 61.1641 303.996 61.4375C304.137 61.707 304.207 62.0664 304.207 62.5156C304.207 63.0352 304.08 63.4805 303.826 63.8516C303.572 64.2227 303.209 64.5078 302.736 64.707C302.268 64.9023 301.709 65 301.061 65H297.855V56.4336ZM299.672 59.8262H300.727C301.254 59.8262 301.619 59.7441 301.822 59.5801C302.025 59.4121 302.127 59.166 302.127 58.8418C302.127 58.5137 302.006 58.2793 301.764 58.1387C301.525 57.9941 301.146 57.9219 300.627 57.9219H299.672V59.8262ZM299.672 61.2676V63.5H300.855C301.402 63.5 301.783 63.3945 301.998 63.1836C302.213 62.9727 302.32 62.6895 302.32 62.334C302.32 62.123 302.273 61.9375 302.18 61.7773C302.086 61.6172 301.928 61.4922 301.705 61.4023C301.486 61.3125 301.184 61.2676 300.797 61.2676H299.672ZM311.939 58.4492V65H310.568L310.328 64.1621H310.234C310.093 64.3848 309.918 64.5664 309.707 64.707C309.496 64.8477 309.263 64.9512 309.009 65.0176C308.755 65.084 308.492 65.1172 308.218 65.1172C307.75 65.1172 307.341 65.0352 306.994 64.8711C306.646 64.7031 306.375 64.4434 306.179 64.0918C305.988 63.7402 305.892 63.2832 305.892 62.7207V58.4492H307.679V62.2754C307.679 62.7441 307.763 63.0977 307.931 63.3359C308.099 63.5742 308.367 63.6934 308.734 63.6934C309.097 63.6934 309.382 63.6113 309.589 63.4473C309.796 63.2793 309.941 63.0352 310.023 62.7148C310.109 62.3906 310.152 61.9961 310.152 61.5312V58.4492H311.939ZM316.724 63.6934C316.919 63.6934 317.109 63.6738 317.292 63.6348C317.48 63.5957 317.665 63.5469 317.849 63.4883V64.8184C317.657 64.9043 317.419 64.9746 317.134 65.0293C316.853 65.0879 316.544 65.1172 316.208 65.1172C315.818 65.1172 315.466 65.0547 315.154 64.9297C314.845 64.8008 314.601 64.5801 314.421 64.2676C314.245 63.9512 314.157 63.5117 314.157 62.9492V59.791H313.302V59.0352L314.286 58.4375L314.802 57.0547H315.945V58.4492H317.779V59.791H315.945V62.9492C315.945 63.1992 316.015 63.3867 316.155 63.5117C316.3 63.6328 316.489 63.6934 316.724 63.6934ZM322.089 63.6934C322.284 63.6934 322.473 63.6738 322.657 63.6348C322.845 63.5957 323.03 63.5469 323.214 63.4883V64.8184C323.022 64.9043 322.784 64.9746 322.499 65.0293C322.218 65.0879 321.909 65.1172 321.573 65.1172C321.182 65.1172 320.831 65.0547 320.518 64.9297C320.21 64.8008 319.966 64.5801 319.786 64.2676C319.61 63.9512 319.522 63.5117 319.522 62.9492V59.791H318.667V59.0352L319.651 58.4375L320.167 57.0547H321.309V58.4492H323.143V59.791H321.309V62.9492C321.309 63.1992 321.38 63.3867 321.52 63.5117C321.665 63.6328 321.854 63.6934 322.089 63.6934ZM330.647 61.7129C330.647 62.2598 330.573 62.7441 330.424 63.166C330.28 63.5879 330.067 63.9453 329.786 64.2383C329.508 64.5273 329.172 64.7461 328.778 64.8945C328.387 65.043 327.946 65.1172 327.454 65.1172C326.993 65.1172 326.569 65.043 326.182 64.8945C325.799 64.7461 325.465 64.5273 325.18 64.2383C324.899 63.9453 324.68 63.5879 324.524 63.166C324.371 62.7441 324.295 62.2598 324.295 61.7129C324.295 60.9863 324.424 60.3711 324.682 59.8672C324.94 59.3633 325.307 58.9805 325.784 58.7188C326.26 58.457 326.829 58.3262 327.489 58.3262C328.102 58.3262 328.645 58.457 329.118 58.7188C329.594 58.9805 329.967 59.3633 330.237 59.8672C330.51 60.3711 330.647 60.9863 330.647 61.7129ZM326.118 61.7129C326.118 62.1426 326.164 62.5039 326.258 62.7969C326.352 63.0898 326.498 63.3105 326.698 63.459C326.897 63.6074 327.157 63.6816 327.477 63.6816C327.793 63.6816 328.049 63.6074 328.245 63.459C328.444 63.3105 328.588 63.0898 328.678 62.7969C328.772 62.5039 328.819 62.1426 328.819 61.7129C328.819 61.2793 328.772 60.9199 328.678 60.6348C328.588 60.3457 328.444 60.1289 328.245 59.9844C328.045 59.8398 327.786 59.7676 327.465 59.7676C326.993 59.7676 326.649 59.9297 326.434 60.2539C326.223 60.5781 326.118 61.0645 326.118 61.7129ZM335.994 58.3262C336.693 58.3262 337.256 58.5176 337.682 58.9004C338.107 59.2793 338.32 59.8887 338.32 60.7285V65H336.533V61.1738C336.533 60.7051 336.447 60.3516 336.275 60.1133C336.107 59.875 335.842 59.7559 335.479 59.7559C334.932 59.7559 334.559 59.9414 334.359 60.3125C334.16 60.6836 334.061 61.2188 334.061 61.918V65H332.273V58.4492H333.639L333.879 59.2871H333.979C334.119 59.0605 334.293 58.877 334.5 58.7363C334.711 58.5957 334.943 58.4922 335.197 58.4258C335.455 58.3594 335.721 58.3262 335.994 58.3262Z" fill="white"/>
<rect x="108" y="40.5" width="263" height="39" rx="3.5" stroke="#019AEB"/>
<rect width="479" height="120" transform="translate(481)" fill="#252A2E"/>
<rect x="601" y="40.5" width="239" height="39" rx="3.5" fill="#019AEB" fill-opacity="0.4"/>
<path d="M628.5 57.03C629.05 57.03 629.5 56.58 629.5 56.03C629.5 55.48 629.05 55.03 628.5 55.03C627.95 55.03 627.5 55.48 627.5 56.03C627.5 56.58 627.95 57.03 628.5 57.03ZM628.5 70C634.02 70 638.5 65.52 638.5 60C638.5 54.48 634.02 50 628.5 50C622.98 50 618.5 54.48 618.5 60C618.5 65.52 622.98 70 628.5 70ZM628.5 52C632.91 52 636.5 55.59 636.5 60C636.5 64.41 632.91 68 628.5 68C624.09 68 620.5 64.41 620.5 60C620.5 55.59 624.09 52 628.5 52ZM628.5 65C629.05 65 629.5 64.55 629.5 64V60C629.5 59.45 629.05 59 628.5 59C627.95 59 627.5 59.45 627.5 60V64C627.5 64.55 627.95 65 628.5 65Z" fill="white"/>
<path d="M654.506 62.7207C654.506 63.2285 654.379 63.6621 654.125 64.0215C653.875 64.377 653.523 64.6484 653.07 64.8359C652.617 65.0234 652.084 65.1172 651.471 65.1172C651.146 65.1172 650.84 65.1016 650.551 65.0703C650.262 65.0391 649.996 64.9941 649.754 64.9355C649.512 64.877 649.299 64.8047 649.115 64.7188V63.7637C649.408 63.8848 649.766 63.998 650.188 64.1035C650.609 64.2051 651.051 64.2559 651.512 64.2559C651.941 64.2559 652.305 64.1992 652.602 64.0859C652.898 63.9688 653.123 63.8027 653.275 63.5879C653.432 63.3691 653.51 63.1074 653.51 62.8027C653.51 62.5098 653.445 62.2656 653.316 62.0703C653.188 61.8711 652.973 61.6914 652.672 61.5312C652.375 61.3672 651.969 61.1934 651.453 61.0098C651.09 60.8809 650.77 60.7402 650.492 60.5879C650.215 60.4316 649.982 60.2559 649.795 60.0605C649.607 59.8652 649.465 59.6387 649.367 59.3809C649.273 59.123 649.227 58.8281 649.227 58.4961C649.227 58.0391 649.342 57.6484 649.572 57.3242C649.807 56.9961 650.129 56.7461 650.539 56.5742C650.953 56.3984 651.428 56.3105 651.963 56.3105C652.42 56.3105 652.842 56.3535 653.229 56.4395C653.619 56.5254 653.977 56.6406 654.301 56.7852L653.99 57.6406C653.682 57.5117 653.354 57.4043 653.006 57.3184C652.662 57.2324 652.307 57.1895 651.939 57.1895C651.572 57.1895 651.262 57.2441 651.008 57.3535C650.758 57.459 650.566 57.6094 650.434 57.8047C650.301 58 650.234 58.2324 650.234 58.502C650.234 58.8027 650.297 59.0527 650.422 59.252C650.551 59.4512 650.754 59.6289 651.031 59.7852C651.312 59.9375 651.684 60.0977 652.145 60.2656C652.648 60.4492 653.076 60.6445 653.428 60.8516C653.779 61.0547 654.047 61.3047 654.23 61.6016C654.414 61.8945 654.506 62.2676 654.506 62.7207ZM663.584 58.4609C664.291 58.4609 664.824 58.6465 665.184 59.0176C665.543 59.3848 665.723 59.9766 665.723 60.793V65H664.762V60.8398C664.762 60.3203 664.648 59.9316 664.422 59.6738C664.199 59.4121 663.867 59.2812 663.426 59.2812C662.805 59.2812 662.354 59.4609 662.072 59.8203C661.791 60.1797 661.65 60.709 661.65 61.4082V65H660.684V60.8398C660.684 60.4922 660.633 60.2031 660.531 59.9727C660.434 59.7422 660.285 59.5703 660.086 59.457C659.891 59.3398 659.643 59.2812 659.342 59.2812C658.916 59.2812 658.574 59.3691 658.316 59.5449C658.059 59.7207 657.871 59.9824 657.754 60.3301C657.641 60.6738 657.584 61.0977 657.584 61.6016V65H656.611V58.5781H657.396L657.543 59.4863H657.596C657.725 59.2637 657.887 59.0762 658.082 58.9238C658.277 58.7715 658.496 58.6562 658.738 58.5781C658.98 58.5 659.238 58.4609 659.512 58.4609C660 58.4609 660.408 58.5527 660.736 58.7363C661.068 58.916 661.309 59.1914 661.457 59.5625H661.51C661.721 59.1914 662.01 58.916 662.377 58.7363C662.744 58.5527 663.146 58.4609 663.584 58.4609ZM670.623 58.4727C671.389 58.4727 671.957 58.6445 672.328 58.9883C672.699 59.332 672.885 59.8809 672.885 60.6348V65H672.176L671.988 64.0508H671.941C671.762 64.2852 671.574 64.4824 671.379 64.6426C671.184 64.7988 670.957 64.918 670.699 65C670.445 65.0781 670.133 65.1172 669.762 65.1172C669.371 65.1172 669.023 65.0488 668.719 64.9121C668.418 64.7754 668.18 64.5684 668.004 64.291C667.832 64.0137 667.746 63.6621 667.746 63.2363C667.746 62.5957 668 62.1035 668.508 61.7598C669.016 61.416 669.789 61.2285 670.828 61.1973L671.936 61.1504V60.7578C671.936 60.2031 671.816 59.8145 671.578 59.5918C671.34 59.3691 671.004 59.2578 670.57 59.2578C670.234 59.2578 669.914 59.3066 669.609 59.4043C669.305 59.502 669.016 59.6172 668.742 59.75L668.443 59.0117C668.732 58.8633 669.064 58.7363 669.439 58.6309C669.814 58.5254 670.209 58.4727 670.623 58.4727ZM671.924 61.8359L670.945 61.877C670.145 61.9082 669.58 62.0391 669.252 62.2695C668.924 62.5 668.76 62.8262 668.76 63.248C668.76 63.6152 668.871 63.8867 669.094 64.0625C669.316 64.2383 669.611 64.3262 669.979 64.3262C670.549 64.3262 671.016 64.168 671.379 63.8516C671.742 63.5352 671.924 63.0605 671.924 62.4277V61.8359ZM676.367 65H675.389V55.8828H676.367V65ZM679.902 65H678.924V55.8828H679.902V65ZM693.049 58.4609C693.756 58.4609 694.289 58.6465 694.648 59.0176C695.008 59.3848 695.188 59.9766 695.188 60.793V65H694.227V60.8398C694.227 60.3203 694.113 59.9316 693.887 59.6738C693.664 59.4121 693.332 59.2812 692.891 59.2812C692.27 59.2812 691.818 59.4609 691.537 59.8203C691.256 60.1797 691.115 60.709 691.115 61.4082V65H690.148V60.8398C690.148 60.4922 690.098 60.2031 689.996 59.9727C689.898 59.7422 689.75 59.5703 689.551 59.457C689.355 59.3398 689.107 59.2812 688.807 59.2812C688.381 59.2812 688.039 59.3691 687.781 59.5449C687.523 59.7207 687.336 59.9824 687.219 60.3301C687.105 60.6738 687.049 61.0977 687.049 61.6016V65H686.076V58.5781H686.861L687.008 59.4863H687.061C687.189 59.2637 687.352 59.0762 687.547 58.9238C687.742 58.7715 687.961 58.6562 688.203 58.5781C688.445 58.5 688.703 58.4609 688.977 58.4609C689.465 58.4609 689.873 58.5527 690.201 58.7363C690.533 58.916 690.773 59.1914 690.922 59.5625H690.975C691.186 59.1914 691.475 58.916 691.842 58.7363C692.209 58.5527 692.611 58.4609 693.049 58.4609ZM700.158 58.4609C700.705 58.4609 701.174 58.582 701.564 58.8242C701.955 59.0664 702.254 59.4062 702.461 59.8438C702.668 60.2773 702.771 60.7852 702.771 61.3672V61.9707H698.336C698.348 62.7246 698.535 63.2988 698.898 63.6934C699.262 64.0879 699.773 64.2852 700.434 64.2852C700.84 64.2852 701.199 64.248 701.512 64.1738C701.824 64.0996 702.148 63.9902 702.484 63.8457V64.7012C702.16 64.8457 701.838 64.9512 701.518 65.0176C701.201 65.084 700.826 65.1172 700.393 65.1172C699.775 65.1172 699.236 64.9922 698.775 64.7422C698.318 64.4883 697.963 64.1172 697.709 63.6289C697.455 63.1406 697.328 62.543 697.328 61.8359C697.328 61.1445 697.443 60.5469 697.674 60.043C697.908 59.5352 698.236 59.1445 698.658 58.8711C699.084 58.5977 699.584 58.4609 700.158 58.4609ZM700.146 59.2578C699.627 59.2578 699.213 59.4277 698.904 59.7676C698.596 60.1074 698.412 60.582 698.354 61.1914H701.752C701.748 60.8086 701.688 60.4727 701.57 60.1836C701.457 59.8906 701.283 59.6641 701.049 59.5039C700.814 59.3398 700.514 59.2578 700.146 59.2578ZM709.078 63.2422C709.078 63.6523 708.975 63.998 708.768 64.2793C708.564 64.5566 708.271 64.7656 707.889 64.9062C707.51 65.0469 707.057 65.1172 706.529 65.1172C706.08 65.1172 705.691 65.082 705.363 65.0117C705.035 64.9414 704.748 64.8418 704.502 64.7129V63.8164C704.764 63.9453 705.076 64.0625 705.439 64.168C705.803 64.2734 706.174 64.3262 706.553 64.3262C707.107 64.3262 707.51 64.2363 707.76 64.0566C708.01 63.877 708.135 63.6328 708.135 63.3242C708.135 63.1484 708.084 62.9941 707.982 62.8613C707.885 62.7246 707.719 62.5938 707.484 62.4688C707.25 62.3398 706.926 62.1992 706.512 62.0469C706.102 61.8906 705.746 61.7363 705.445 61.584C705.148 61.4277 704.918 61.2383 704.754 61.0156C704.594 60.793 704.514 60.5039 704.514 60.1484C704.514 59.6055 704.732 59.1895 705.17 58.9004C705.611 58.6074 706.189 58.4609 706.904 58.4609C707.291 58.4609 707.652 58.5 707.988 58.5781C708.328 58.6523 708.645 58.7539 708.938 58.8828L708.609 59.6621C708.344 59.5488 708.061 59.4531 707.76 59.375C707.459 59.2969 707.152 59.2578 706.84 59.2578C706.391 59.2578 706.045 59.332 705.803 59.4805C705.564 59.6289 705.445 59.832 705.445 60.0898C705.445 60.2891 705.5 60.4531 705.609 60.582C705.723 60.7109 705.902 60.832 706.148 60.9453C706.395 61.0586 706.719 61.1914 707.121 61.3438C707.523 61.4922 707.871 61.6465 708.164 61.8066C708.457 61.9629 708.682 62.1543 708.838 62.3809C708.998 62.6035 709.078 62.8906 709.078 63.2422ZM715.297 63.2422C715.297 63.6523 715.193 63.998 714.986 64.2793C714.783 64.5566 714.49 64.7656 714.107 64.9062C713.729 65.0469 713.275 65.1172 712.748 65.1172C712.299 65.1172 711.91 65.082 711.582 65.0117C711.254 64.9414 710.967 64.8418 710.721 64.7129V63.8164C710.982 63.9453 711.295 64.0625 711.658 64.168C712.021 64.2734 712.393 64.3262 712.771 64.3262C713.326 64.3262 713.729 64.2363 713.979 64.0566C714.229 63.877 714.354 63.6328 714.354 63.3242C714.354 63.1484 714.303 62.9941 714.201 62.8613C714.104 62.7246 713.938 62.5938 713.703 62.4688C713.469 62.3398 713.145 62.1992 712.73 62.0469C712.32 61.8906 711.965 61.7363 711.664 61.584C711.367 61.4277 711.137 61.2383 710.973 61.0156C710.812 60.793 710.732 60.5039 710.732 60.1484C710.732 59.6055 710.951 59.1895 711.389 58.9004C711.83 58.6074 712.408 58.4609 713.123 58.4609C713.51 58.4609 713.871 58.5 714.207 58.5781C714.547 58.6523 714.863 58.7539 715.156 58.8828L714.828 59.6621C714.562 59.5488 714.279 59.4531 713.979 59.375C713.678 59.2969 713.371 59.2578 713.059 59.2578C712.609 59.2578 712.264 59.332 712.021 59.4805C711.783 59.6289 711.664 59.832 711.664 60.0898C711.664 60.2891 711.719 60.4531 711.828 60.582C711.941 60.7109 712.121 60.832 712.367 60.9453C712.613 61.0586 712.938 61.1914 713.34 61.3438C713.742 61.4922 714.09 61.6465 714.383 61.8066C714.676 61.9629 714.9 62.1543 715.057 62.3809C715.217 62.6035 715.297 62.8906 715.297 63.2422ZM719.764 58.4727C720.529 58.4727 721.098 58.6445 721.469 58.9883C721.84 59.332 722.025 59.8809 722.025 60.6348V65H721.316L721.129 64.0508H721.082C720.902 64.2852 720.715 64.4824 720.52 64.6426C720.324 64.7988 720.098 64.918 719.84 65C719.586 65.0781 719.273 65.1172 718.902 65.1172C718.512 65.1172 718.164 65.0488 717.859 64.9121C717.559 64.7754 717.32 64.5684 717.145 64.291C716.973 64.0137 716.887 63.6621 716.887 63.2363C716.887 62.5957 717.141 62.1035 717.648 61.7598C718.156 61.416 718.93 61.2285 719.969 61.1973L721.076 61.1504V60.7578C721.076 60.2031 720.957 59.8145 720.719 59.5918C720.48 59.3691 720.145 59.2578 719.711 59.2578C719.375 59.2578 719.055 59.3066 718.75 59.4043C718.445 59.502 718.156 59.6172 717.883 59.75L717.584 59.0117C717.873 58.8633 718.205 58.7363 718.58 58.6309C718.955 58.5254 719.35 58.4727 719.764 58.4727ZM721.064 61.8359L720.086 61.877C719.285 61.9082 718.721 62.0391 718.393 62.2695C718.064 62.5 717.9 62.8262 717.9 63.248C717.9 63.6152 718.012 63.8867 718.234 64.0625C718.457 64.2383 718.752 64.3262 719.119 64.3262C719.689 64.3262 720.156 64.168 720.52 63.8516C720.883 63.5352 721.064 63.0605 721.064 62.4277V61.8359ZM726.322 67.8828C725.479 67.8828 724.828 67.7246 724.371 67.4082C723.914 67.0957 723.686 66.6562 723.686 66.0898C723.686 65.6875 723.812 65.3438 724.066 65.0586C724.324 64.7734 724.68 64.584 725.133 64.4902C724.965 64.4121 724.82 64.2949 724.699 64.1387C724.582 63.9824 724.523 63.8027 724.523 63.5996C724.523 63.3652 724.588 63.1602 724.717 62.9844C724.85 62.8047 725.051 62.6328 725.32 62.4688C724.984 62.332 724.711 62.1016 724.5 61.7773C724.293 61.4492 724.189 61.0684 724.189 60.6348C724.189 60.1738 724.285 59.7812 724.477 59.457C724.668 59.1289 724.945 58.8789 725.309 58.707C725.672 58.5352 726.111 58.4492 726.627 58.4492C726.74 58.4492 726.854 58.4551 726.967 58.4668C727.084 58.4746 727.195 58.4883 727.301 58.5078C727.406 58.5234 727.498 58.543 727.576 58.5664H729.779V59.1934L728.596 59.3398C728.713 59.4922 728.811 59.6758 728.889 59.8906C728.967 60.1055 729.006 60.3438 729.006 60.6055C729.006 61.2461 728.789 61.7559 728.355 62.1348C727.922 62.5098 727.326 62.6973 726.568 62.6973C726.389 62.6973 726.205 62.6816 726.018 62.6504C725.826 62.7559 725.68 62.873 725.578 63.002C725.48 63.1309 725.432 63.2793 725.432 63.4473C725.432 63.5723 725.469 63.6719 725.543 63.7461C725.621 63.8203 725.732 63.875 725.877 63.9102C726.021 63.9414 726.195 63.957 726.398 63.957H727.529C728.229 63.957 728.764 64.1035 729.135 64.3965C729.51 64.6895 729.697 65.1172 729.697 65.6797C729.697 66.3906 729.408 66.9355 728.83 67.3145C728.252 67.6934 727.416 67.8828 726.322 67.8828ZM726.352 67.1211C726.883 67.1211 727.322 67.0664 727.67 66.957C728.021 66.8516 728.283 66.6973 728.455 66.4941C728.631 66.2949 728.719 66.0566 728.719 65.7793C728.719 65.5215 728.66 65.3262 728.543 65.1934C728.426 65.0645 728.254 64.9785 728.027 64.9355C727.801 64.8887 727.523 64.8652 727.195 64.8652H726.082C725.793 64.8652 725.541 64.9102 725.326 65C725.111 65.0898 724.945 65.2227 724.828 65.3984C724.715 65.5742 724.658 65.793 724.658 66.0547C724.658 66.4023 724.805 66.666 725.098 66.8457C725.391 67.0293 725.809 67.1211 726.352 67.1211ZM726.604 61.9883C727.068 61.9883 727.418 61.8711 727.652 61.6367C727.887 61.4023 728.004 61.0605 728.004 60.6113C728.004 60.1309 727.885 59.7715 727.646 59.5332C727.408 59.291 727.057 59.1699 726.592 59.1699C726.146 59.1699 725.803 59.2949 725.561 59.5449C725.322 59.791 725.203 60.1523 725.203 60.6289C725.203 61.0664 725.324 61.4023 725.566 61.6367C725.809 61.8711 726.154 61.9883 726.604 61.9883ZM734.018 58.4609C734.564 58.4609 735.033 58.582 735.424 58.8242C735.814 59.0664 736.113 59.4062 736.32 59.8438C736.527 60.2773 736.631 60.7852 736.631 61.3672V61.9707H732.195C732.207 62.7246 732.395 63.2988 732.758 63.6934C733.121 64.0879 733.633 64.2852 734.293 64.2852C734.699 64.2852 735.059 64.248 735.371 64.1738C735.684 64.0996 736.008 63.9902 736.344 63.8457V64.7012C736.02 64.8457 735.697 64.9512 735.377 65.0176C735.061 65.084 734.686 65.1172 734.252 65.1172C733.635 65.1172 733.096 64.9922 732.635 64.7422C732.178 64.4883 731.822 64.1172 731.568 63.6289C731.314 63.1406 731.188 62.543 731.188 61.8359C731.188 61.1445 731.303 60.5469 731.533 60.043C731.768 59.5352 732.096 59.1445 732.518 58.8711C732.943 58.5977 733.443 58.4609 734.018 58.4609ZM734.006 59.2578C733.486 59.2578 733.072 59.4277 732.764 59.7676C732.455 60.1074 732.271 60.582 732.213 61.1914H735.611C735.607 60.8086 735.547 60.4727 735.43 60.1836C735.316 59.8906 735.143 59.6641 734.908 59.5039C734.674 59.3398 734.373 59.2578 734.006 59.2578ZM738.637 64.3906C738.637 64.1172 738.703 63.9238 738.836 63.8105C738.969 63.6934 739.131 63.6348 739.322 63.6348C739.521 63.6348 739.689 63.6934 739.826 63.8105C739.963 63.9238 740.031 64.1172 740.031 64.3906C740.031 64.6602 739.963 64.8574 739.826 64.9824C739.689 65.1035 739.521 65.1641 739.322 65.1641C739.131 65.1641 738.969 65.1035 738.836 64.9824C738.703 64.8574 738.637 64.6602 738.637 64.3906Z" fill="white"/>
<rect x="749.5" y="44" width="75" height="32" rx="4" fill="#019AEB"/>
<path d="M766.855 56.4336H769.521C770.662 56.4336 771.525 56.5938 772.111 56.9141C772.697 57.2344 772.99 57.7969 772.99 58.6016C772.99 58.9258 772.938 59.2188 772.832 59.4805C772.73 59.7422 772.582 59.957 772.387 60.125C772.191 60.293 771.953 60.4023 771.672 60.4531V60.5117C771.957 60.5703 772.215 60.6719 772.445 60.8164C772.676 60.957 772.859 61.1641 772.996 61.4375C773.137 61.707 773.207 62.0664 773.207 62.5156C773.207 63.0352 773.08 63.4805 772.826 63.8516C772.572 64.2227 772.209 64.5078 771.736 64.707C771.268 64.9023 770.709 65 770.061 65H766.855V56.4336ZM768.672 59.8262H769.727C770.254 59.8262 770.619 59.7441 770.822 59.5801C771.025 59.4121 771.127 59.166 771.127 58.8418C771.127 58.5137 771.006 58.2793 770.764 58.1387C770.525 57.9941 770.146 57.9219 769.627 57.9219H768.672V59.8262ZM768.672 61.2676V63.5H769.855C770.402 63.5 770.783 63.3945 770.998 63.1836C771.213 62.9727 771.32 62.6895 771.32 62.334C771.32 62.123 771.273 61.9375 771.18 61.7773C771.086 61.6172 770.928 61.4922 770.705 61.4023C770.486 61.3125 770.184 61.2676 769.797 61.2676H768.672ZM780.939 58.4492V65H779.568L779.328 64.1621H779.234C779.093 64.3848 778.918 64.5664 778.707 64.707C778.496 64.8477 778.263 64.9512 778.009 65.0176C777.755 65.084 777.492 65.1172 777.218 65.1172C776.75 65.1172 776.341 65.0352 775.994 64.8711C775.646 64.7031 775.375 64.4434 775.179 64.0918C774.988 63.7402 774.892 63.2832 774.892 62.7207V58.4492H776.679V62.2754C776.679 62.7441 776.763 63.0977 776.931 63.3359C777.099 63.5742 777.367 63.6934 777.734 63.6934C778.097 63.6934 778.382 63.6113 778.589 63.4473C778.796 63.2793 778.941 63.0352 779.023 62.7148C779.109 62.3906 779.152 61.9961 779.152 61.5312V58.4492H780.939ZM785.724 63.6934C785.919 63.6934 786.109 63.6738 786.292 63.6348C786.48 63.5957 786.665 63.5469 786.849 63.4883V64.8184C786.657 64.9043 786.419 64.9746 786.134 65.0293C785.853 65.0879 785.544 65.1172 785.208 65.1172C784.818 65.1172 784.466 65.0547 784.154 64.9297C783.845 64.8008 783.601 64.5801 783.421 64.2676C783.245 63.9512 783.157 63.5117 783.157 62.9492V59.791H782.302V59.0352L783.286 58.4375L783.802 57.0547H784.945V58.4492H786.779V59.791H784.945V62.9492C784.945 63.1992 785.015 63.3867 785.155 63.5117C785.3 63.6328 785.489 63.6934 785.724 63.6934ZM791.089 63.6934C791.284 63.6934 791.473 63.6738 791.657 63.6348C791.845 63.5957 792.03 63.5469 792.214 63.4883V64.8184C792.022 64.9043 791.784 64.9746 791.499 65.0293C791.218 65.0879 790.909 65.1172 790.573 65.1172C790.182 65.1172 789.831 65.0547 789.518 64.9297C789.21 64.8008 788.966 64.5801 788.786 64.2676C788.61 63.9512 788.522 63.5117 788.522 62.9492V59.791H787.667V59.0352L788.651 58.4375L789.167 57.0547H790.309V58.4492H792.143V59.791H790.309V62.9492C790.309 63.1992 790.38 63.3867 790.52 63.5117C790.665 63.6328 790.854 63.6934 791.089 63.6934ZM799.647 61.7129C799.647 62.2598 799.573 62.7441 799.424 63.166C799.28 63.5879 799.067 63.9453 798.786 64.2383C798.508 64.5273 798.172 64.7461 797.778 64.8945C797.387 65.043 796.946 65.1172 796.454 65.1172C795.993 65.1172 795.569 65.043 795.182 64.8945C794.799 64.7461 794.465 64.5273 794.18 64.2383C793.899 63.9453 793.68 63.5879 793.524 63.166C793.371 62.7441 793.295 62.2598 793.295 61.7129C793.295 60.9863 793.424 60.3711 793.682 59.8672C793.94 59.3633 794.307 58.9805 794.784 58.7188C795.26 58.457 795.829 58.3262 796.489 58.3262C797.102 58.3262 797.645 58.457 798.118 58.7188C798.594 58.9805 798.967 59.3633 799.237 59.8672C799.51 60.3711 799.647 60.9863 799.647 61.7129ZM795.118 61.7129C795.118 62.1426 795.164 62.5039 795.258 62.7969C795.352 63.0898 795.498 63.3105 795.698 63.459C795.897 63.6074 796.157 63.6816 796.477 63.6816C796.793 63.6816 797.049 63.6074 797.245 63.459C797.444 63.3105 797.588 63.0898 797.678 62.7969C797.772 62.5039 797.819 62.1426 797.819 61.7129C797.819 61.2793 797.772 60.9199 797.678 60.6348C797.588 60.3457 797.444 60.1289 797.245 59.9844C797.045 59.8398 796.786 59.7676 796.465 59.7676C795.993 59.7676 795.649 59.9297 795.434 60.2539C795.223 60.5781 795.118 61.0645 795.118 61.7129ZM804.994 58.3262C805.693 58.3262 806.256 58.5176 806.682 58.9004C807.107 59.2793 807.32 59.8887 807.32 60.7285V65H805.533V61.1738C805.533 60.7051 805.447 60.3516 805.275 60.1133C805.107 59.875 804.842 59.7559 804.479 59.7559C803.932 59.7559 803.559 59.9414 803.359 60.3125C803.16 60.6836 803.061 61.2188 803.061 61.918V65H801.273V58.4492H802.639L802.879 59.2871H802.979C803.119 59.0605 803.293 58.877 803.5 58.7363C803.711 58.5957 803.943 58.4922 804.197 58.4258C804.455 58.3594 804.721 58.3262 804.994 58.3262Z" fill="white"/>
<rect x="601" y="40.5" width="239" height="39" rx="3.5" stroke="#019AEB"/>
<path d="M883 40V80" stroke="#E8178A"/>
<rect x="864.5" y="52" width="38" height="18" rx="3" fill="#E8178A"/>
<path d="M870.979 63.7216V62.5107L874.016 57.7273H875.06V59.4034H874.442L872.528 62.4325V62.4893H876.842V63.7216H870.979ZM874.47 65V63.3523L874.499 62.8161V57.7273H875.94V65H874.47ZM880.718 65.1598C880.108 65.1574 879.582 65.0071 879.142 64.7088C878.704 64.4105 878.366 63.9785 878.13 63.4126C877.895 62.8468 877.779 62.1662 877.782 61.3707C877.782 60.5777 877.899 59.9018 878.133 59.343C878.37 58.7843 878.707 58.3594 879.145 58.0682C879.586 57.7746 880.11 57.6278 880.718 57.6278C881.327 57.6278 881.85 57.7746 882.288 58.0682C882.728 58.3617 883.067 58.7879 883.304 59.3466C883.54 59.9029 883.658 60.5777 883.655 61.3707C883.655 62.1686 883.537 62.8504 883.3 63.4162C883.066 63.982 882.73 64.4141 882.292 64.7124C881.854 65.0107 881.329 65.1598 880.718 65.1598ZM880.718 63.8849C881.135 63.8849 881.468 63.6754 881.716 63.2564C881.965 62.8374 882.088 62.2088 882.086 61.3707C882.086 60.8191 882.029 60.3598 881.915 59.9929C881.804 59.6259 881.645 59.3501 881.439 59.1655C881.236 58.9808 880.995 58.8885 880.718 58.8885C880.304 58.8885 879.973 59.0956 879.724 59.5099C879.475 59.9242 879.35 60.5445 879.348 61.3707C879.348 61.9295 879.403 62.3958 879.515 62.7699C879.628 63.1416 879.788 63.4209 879.994 63.608C880.2 63.7926 880.441 63.8849 880.718 63.8849ZM884.766 67.0455V59.5455H886.257V60.4616H886.325C886.391 60.3149 886.487 60.1657 886.612 60.0142C886.74 59.8603 886.906 59.7325 887.11 59.6307C887.316 59.5265 887.571 59.4744 887.877 59.4744C888.274 59.4744 888.641 59.5786 888.977 59.7869C889.314 59.9929 889.582 60.3042 889.784 60.7209C889.985 61.1352 890.085 61.6548 890.085 62.2798C890.085 62.8883 889.987 63.402 889.791 63.821C889.597 64.2377 889.331 64.5537 888.995 64.7692C888.661 64.9822 888.287 65.0888 887.873 65.0888C887.579 65.0888 887.33 65.0402 887.124 64.9432C886.92 64.8461 886.753 64.7242 886.623 64.5774C886.493 64.4283 886.393 64.2779 886.325 64.1264H886.279V67.0455H884.766ZM886.247 62.2727C886.247 62.5971 886.292 62.88 886.382 63.1214C886.472 63.3629 886.602 63.5511 886.772 63.6861C886.943 63.8187 887.15 63.8849 887.394 63.8849C887.64 63.8849 887.848 63.8175 888.019 63.6825C888.189 63.5452 888.318 63.3558 888.406 63.1143C888.496 62.8705 888.541 62.59 888.541 62.2727C888.541 61.9579 888.497 61.6809 888.409 61.4418C888.322 61.2027 888.193 61.0156 888.022 60.8807C887.852 60.7457 887.642 60.6783 887.394 60.6783C887.147 60.6783 886.939 60.7434 886.769 60.8736C886.601 61.0038 886.472 61.1884 886.382 61.4276C886.292 61.6667 886.247 61.9484 886.247 62.2727ZM892.163 59.5455L893.164 61.4524L894.191 59.5455H895.742L894.162 62.2727L895.785 65H894.24L893.164 63.1143L892.106 65H890.544L892.163 62.2727L890.6 59.5455H892.163Z" fill="white"/>
<line x1="879.5" y1="40.5" x2="886.5" y2="40.5" stroke="#E8178A"/>
<line x1="879.5" y1="79.5" x2="886.5" y2="79.5" stroke="#E8178A"/>
</g>
<g clip-path="url(#clip2_296_60268)">
<rect width="480" height="167" transform="translate(0 136)" fill="#252A2E"/>
<path d="M403.5 192V246" stroke="#E8178A"/>
<rect x="385.5" y="210" width="37" height="18" rx="3" fill="#E8178A"/>
<path d="M394.746 223.099C394.244 223.099 393.796 223.007 393.403 222.822C393.013 222.638 392.703 222.383 392.473 222.059C392.243 221.735 392.124 221.363 392.114 220.944H393.606C393.622 221.226 393.741 221.454 393.961 221.629C394.181 221.804 394.443 221.892 394.746 221.892C394.987 221.892 395.2 221.839 395.385 221.732C395.572 221.623 395.718 221.473 395.822 221.281C395.928 221.087 395.982 220.865 395.982 220.614C395.982 220.358 395.927 220.133 395.818 219.939C395.712 219.745 395.564 219.593 395.374 219.484C395.185 219.375 394.968 219.32 394.724 219.317C394.511 219.317 394.304 219.361 394.103 219.449C393.904 219.536 393.749 219.656 393.638 219.808L392.271 219.562L392.615 215.727H397.061V216.984H393.883L393.695 218.806H393.737C393.865 218.626 394.058 218.477 394.316 218.359C394.574 218.24 394.863 218.181 395.183 218.181C395.621 218.181 396.011 218.284 396.354 218.49C396.698 218.696 396.969 218.979 397.168 219.339C397.366 219.696 397.465 220.108 397.462 220.575C397.465 221.065 397.351 221.5 397.121 221.881C396.894 222.26 396.576 222.558 396.166 222.776C395.759 222.992 395.286 223.099 394.746 223.099ZM401.326 223.099C400.952 223.097 400.591 223.034 400.243 222.911C399.897 222.788 399.587 222.588 399.312 222.311C399.038 222.034 398.82 221.667 398.659 221.21C398.5 220.753 398.421 220.192 398.421 219.527C398.424 218.916 398.493 218.371 398.631 217.89C398.77 217.407 398.969 216.997 399.227 216.661C399.488 216.325 399.799 216.069 400.161 215.894C400.523 215.717 400.929 215.628 401.379 215.628C401.865 215.628 402.293 215.723 402.665 215.912C403.036 216.099 403.335 216.353 403.56 216.675C403.787 216.997 403.924 217.358 403.972 217.759H402.455C402.396 217.505 402.272 217.306 402.082 217.162C401.893 217.018 401.659 216.945 401.379 216.945C400.906 216.945 400.546 217.151 400.3 217.563C400.056 217.975 399.932 218.535 399.927 219.243H399.977C400.085 219.027 400.232 218.844 400.417 218.692C400.604 218.539 400.816 218.421 401.053 218.341C401.292 218.258 401.544 218.217 401.809 218.217C402.24 218.217 402.623 218.318 402.96 218.522C403.296 218.723 403.561 219 403.755 219.353C403.949 219.706 404.046 220.109 404.046 220.564C404.046 221.056 403.931 221.494 403.702 221.878C403.474 222.261 403.156 222.562 402.746 222.78C402.339 222.995 401.866 223.102 401.326 223.099ZM401.319 221.892C401.556 221.892 401.768 221.835 401.955 221.722C402.142 221.608 402.288 221.454 402.395 221.26C402.501 221.066 402.555 220.848 402.555 220.607C402.555 220.365 402.501 220.148 402.395 219.957C402.291 219.765 402.146 219.612 401.962 219.499C401.777 219.385 401.566 219.328 401.33 219.328C401.152 219.328 400.987 219.361 400.836 219.428C400.687 219.494 400.555 219.586 400.442 219.705C400.33 219.823 400.243 219.96 400.179 220.116C400.115 220.27 400.083 220.435 400.083 220.61C400.083 220.844 400.136 221.059 400.243 221.253C400.352 221.447 400.499 221.602 400.683 221.718C400.87 221.834 401.082 221.892 401.319 221.892ZM405.151 225.045V217.545H406.642V218.462H406.71C406.776 218.315 406.872 218.166 406.997 218.014C407.125 217.86 407.291 217.732 407.494 217.631C407.7 217.527 407.956 217.474 408.261 217.474C408.659 217.474 409.026 217.579 409.362 217.787C409.698 217.993 409.967 218.304 410.168 218.721C410.37 219.135 410.47 219.655 410.47 220.28C410.47 220.888 410.372 221.402 410.175 221.821C409.981 222.238 409.716 222.554 409.38 222.769C409.046 222.982 408.672 223.089 408.258 223.089C407.964 223.089 407.714 223.04 407.509 222.943C407.305 222.846 407.138 222.724 407.008 222.577C406.878 222.428 406.778 222.278 406.71 222.126H406.663V225.045H405.151ZM406.631 220.273C406.631 220.597 406.676 220.88 406.766 221.121C406.856 221.363 406.987 221.551 407.157 221.686C407.327 221.819 407.535 221.885 407.778 221.885C408.025 221.885 408.233 221.817 408.403 221.683C408.574 221.545 408.703 221.356 408.79 221.114C408.88 220.871 408.925 220.59 408.925 220.273C408.925 219.958 408.882 219.681 408.794 219.442C408.706 219.203 408.577 219.016 408.407 218.881C408.237 218.746 408.027 218.678 407.778 218.678C407.532 218.678 407.324 218.743 407.153 218.874C406.985 219.004 406.856 219.188 406.766 219.428C406.676 219.667 406.631 219.948 406.631 220.273ZM412.548 217.545L413.549 219.452L414.575 217.545H416.127L414.547 220.273L416.17 223H414.625L413.549 221.114L412.491 223H410.928L412.548 220.273L410.985 217.545H412.548Z" fill="white"/>
<line x1="400" y1="192.5" x2="407" y2="192.5" stroke="#E8178A"/>
<line x1="400" y1="245.5" x2="407" y2="245.5" stroke="#E8178A"/>
<rect x="108" y="192" width="264" height="55" rx="3.5" fill="#019AEB" fill-opacity="0.4"/>
<path d="M135.5 216.53C136.05 216.53 136.5 216.08 136.5 215.53C136.5 214.98 136.05 214.53 135.5 214.53C134.95 214.53 134.5 214.98 134.5 215.53C134.5 216.08 134.95 216.53 135.5 216.53ZM135.5 229.5C141.02 229.5 145.5 225.02 145.5 219.5C145.5 213.98 141.02 209.5 135.5 209.5C129.98 209.5 125.5 213.98 125.5 219.5C125.5 225.02 129.98 229.5 135.5 229.5ZM135.5 211.5C139.91 211.5 143.5 215.09 143.5 219.5C143.5 223.91 139.91 227.5 135.5 227.5C131.09 227.5 127.5 223.91 127.5 219.5C127.5 215.09 131.09 211.5 135.5 211.5ZM135.5 224.5C136.05 224.5 136.5 224.05 136.5 223.5V219.5C136.5 218.95 136.05 218.5 135.5 218.5C134.95 218.5 134.5 218.95 134.5 219.5V223.5C134.5 224.05 134.95 224.5 135.5 224.5Z" fill="white"/>
<path d="M157.062 225.5V214.078H158.391V224.312H163.461V225.5H157.062ZM168.58 216.797C169.601 216.797 170.358 217.026 170.853 217.484C171.348 217.943 171.595 218.674 171.595 219.68V225.5H170.65L170.4 224.234H170.337C170.098 224.547 169.848 224.81 169.587 225.023C169.327 225.232 169.025 225.391 168.681 225.5C168.343 225.604 167.926 225.656 167.431 225.656C166.91 225.656 166.447 225.565 166.041 225.383C165.64 225.201 165.322 224.924 165.087 224.555C164.858 224.185 164.744 223.716 164.744 223.148C164.744 222.294 165.082 221.638 165.759 221.18C166.436 220.721 167.468 220.471 168.853 220.43L170.33 220.367V219.844C170.33 219.104 170.171 218.586 169.853 218.289C169.535 217.992 169.087 217.844 168.509 217.844C168.061 217.844 167.634 217.909 167.228 218.039C166.822 218.169 166.436 218.323 166.072 218.5L165.673 217.516C166.059 217.318 166.502 217.148 167.002 217.008C167.502 216.867 168.028 216.797 168.58 216.797ZM170.314 221.281L169.009 221.336C167.942 221.378 167.189 221.552 166.752 221.859C166.314 222.167 166.095 222.602 166.095 223.164C166.095 223.654 166.244 224.016 166.541 224.25C166.837 224.484 167.231 224.602 167.72 224.602C168.481 224.602 169.103 224.391 169.587 223.969C170.072 223.547 170.314 222.914 170.314 222.07V221.281ZM178.308 216.781C178.48 216.781 178.659 216.792 178.847 216.812C179.034 216.828 179.201 216.852 179.347 216.883L179.183 218.086C179.042 218.049 178.886 218.021 178.714 218C178.542 217.979 178.381 217.969 178.23 217.969C177.886 217.969 177.56 218.039 177.253 218.18C176.951 218.315 176.685 218.513 176.456 218.773C176.227 219.029 176.047 219.339 175.917 219.703C175.787 220.062 175.722 220.464 175.722 220.906V225.5H174.417V216.938H175.495L175.636 218.516H175.691C175.868 218.198 176.081 217.909 176.331 217.648C176.581 217.383 176.87 217.172 177.198 217.016C177.532 216.859 177.902 216.781 178.308 216.781ZM183.505 229.344C182.38 229.344 181.513 229.133 180.903 228.711C180.294 228.294 179.989 227.708 179.989 226.953C179.989 226.417 180.158 225.958 180.497 225.578C180.841 225.198 181.315 224.945 181.919 224.82C181.695 224.716 181.502 224.56 181.341 224.352C181.184 224.143 181.106 223.904 181.106 223.633C181.106 223.32 181.192 223.047 181.364 222.812C181.541 222.573 181.809 222.344 182.169 222.125C181.721 221.943 181.356 221.635 181.075 221.203C180.799 220.766 180.661 220.258 180.661 219.68C180.661 219.065 180.789 218.542 181.044 218.109C181.299 217.672 181.669 217.339 182.153 217.109C182.638 216.88 183.223 216.766 183.911 216.766C184.062 216.766 184.213 216.773 184.364 216.789C184.52 216.799 184.669 216.818 184.809 216.844C184.95 216.865 185.072 216.891 185.177 216.922H188.114V217.758L186.536 217.953C186.692 218.156 186.822 218.401 186.927 218.688C187.031 218.974 187.083 219.292 187.083 219.641C187.083 220.495 186.794 221.174 186.216 221.68C185.638 222.18 184.843 222.43 183.833 222.43C183.593 222.43 183.348 222.409 183.098 222.367C182.843 222.508 182.648 222.664 182.513 222.836C182.382 223.008 182.317 223.206 182.317 223.43C182.317 223.596 182.367 223.729 182.466 223.828C182.57 223.927 182.718 224 182.911 224.047C183.104 224.089 183.335 224.109 183.606 224.109H185.114C186.046 224.109 186.76 224.305 187.255 224.695C187.755 225.086 188.005 225.656 188.005 226.406C188.005 227.354 187.619 228.081 186.848 228.586C186.078 229.091 184.963 229.344 183.505 229.344ZM183.544 228.328C184.252 228.328 184.838 228.255 185.302 228.109C185.77 227.969 186.119 227.763 186.348 227.492C186.583 227.227 186.7 226.909 186.7 226.539C186.7 226.195 186.622 225.935 186.466 225.758C186.309 225.586 186.08 225.471 185.778 225.414C185.476 225.352 185.106 225.32 184.669 225.32H183.184C182.799 225.32 182.463 225.38 182.177 225.5C181.89 225.62 181.669 225.797 181.513 226.031C181.361 226.266 181.286 226.557 181.286 226.906C181.286 227.37 181.481 227.721 181.872 227.961C182.263 228.206 182.82 228.328 183.544 228.328ZM183.88 221.484C184.499 221.484 184.966 221.328 185.278 221.016C185.591 220.703 185.747 220.247 185.747 219.648C185.747 219.008 185.588 218.529 185.27 218.211C184.953 217.888 184.484 217.727 183.864 217.727C183.27 217.727 182.812 217.893 182.489 218.227C182.171 218.555 182.013 219.036 182.013 219.672C182.013 220.255 182.174 220.703 182.497 221.016C182.82 221.328 183.281 221.484 183.88 221.484ZM193.248 216.781C193.978 216.781 194.603 216.943 195.123 217.266C195.644 217.589 196.043 218.042 196.319 218.625C196.595 219.203 196.733 219.88 196.733 220.656V221.461H190.819C190.834 222.466 191.084 223.232 191.569 223.758C192.053 224.284 192.735 224.547 193.616 224.547C194.157 224.547 194.636 224.497 195.053 224.398C195.47 224.299 195.902 224.154 196.35 223.961V225.102C195.918 225.294 195.488 225.435 195.061 225.523C194.639 225.612 194.139 225.656 193.561 225.656C192.738 225.656 192.019 225.49 191.405 225.156C190.795 224.818 190.321 224.323 189.983 223.672C189.644 223.021 189.475 222.224 189.475 221.281C189.475 220.359 189.629 219.562 189.936 218.891C190.248 218.214 190.686 217.693 191.248 217.328C191.816 216.964 192.483 216.781 193.248 216.781ZM193.233 217.844C192.54 217.844 191.988 218.07 191.577 218.523C191.165 218.977 190.92 219.609 190.842 220.422H195.373C195.368 219.911 195.287 219.464 195.131 219.078C194.98 218.688 194.748 218.385 194.436 218.172C194.123 217.953 193.722 217.844 193.233 217.844ZM212.689 216.781C213.632 216.781 214.343 217.029 214.822 217.523C215.301 218.013 215.541 218.802 215.541 219.891V225.5H214.259V219.953C214.259 219.26 214.108 218.742 213.806 218.398C213.509 218.049 213.067 217.875 212.478 217.875C211.65 217.875 211.048 218.115 210.673 218.594C210.298 219.073 210.111 219.779 210.111 220.711V225.5H208.822V219.953C208.822 219.49 208.754 219.104 208.619 218.797C208.489 218.49 208.291 218.26 208.025 218.109C207.765 217.953 207.434 217.875 207.033 217.875C206.465 217.875 206.009 217.992 205.666 218.227C205.322 218.461 205.072 218.81 204.916 219.273C204.765 219.732 204.689 220.297 204.689 220.969V225.5H203.392V216.938H204.439L204.634 218.148H204.705C204.877 217.852 205.093 217.602 205.353 217.398C205.614 217.195 205.905 217.042 206.228 216.938C206.551 216.833 206.895 216.781 207.259 216.781C207.91 216.781 208.455 216.904 208.892 217.148C209.335 217.388 209.655 217.755 209.853 218.25H209.923C210.205 217.755 210.59 217.388 211.08 217.148C211.569 216.904 212.106 216.781 212.689 216.781ZM221.652 216.781C222.381 216.781 223.006 216.943 223.527 217.266C224.047 217.589 224.446 218.042 224.722 218.625C224.998 219.203 225.136 219.88 225.136 220.656V221.461H219.222C219.237 222.466 219.487 223.232 219.972 223.758C220.456 224.284 221.139 224.547 222.019 224.547C222.56 224.547 223.04 224.497 223.456 224.398C223.873 224.299 224.305 224.154 224.753 223.961V225.102C224.321 225.294 223.891 225.435 223.464 225.523C223.042 225.612 222.542 225.656 221.964 225.656C221.141 225.656 220.422 225.49 219.808 225.156C219.198 224.818 218.724 224.323 218.386 223.672C218.047 223.021 217.878 222.224 217.878 221.281C217.878 220.359 218.032 219.562 218.339 218.891C218.652 218.214 219.089 217.693 219.652 217.328C220.219 216.964 220.886 216.781 221.652 216.781ZM221.636 217.844C220.943 217.844 220.391 218.07 219.98 218.523C219.568 218.977 219.323 219.609 219.245 220.422H223.777C223.771 219.911 223.691 219.464 223.534 219.078C223.383 218.688 223.152 218.385 222.839 218.172C222.527 217.953 222.126 217.844 221.636 217.844ZM233.028 223.156C233.028 223.703 232.89 224.164 232.614 224.539C232.343 224.909 231.953 225.188 231.442 225.375C230.937 225.562 230.333 225.656 229.63 225.656C229.031 225.656 228.512 225.609 228.075 225.516C227.637 225.422 227.255 225.289 226.927 225.117V223.922C227.276 224.094 227.692 224.25 228.177 224.391C228.661 224.531 229.156 224.602 229.661 224.602C230.401 224.602 230.937 224.482 231.27 224.242C231.604 224.003 231.77 223.677 231.77 223.266C231.77 223.031 231.703 222.826 231.567 222.648C231.437 222.466 231.216 222.292 230.903 222.125C230.591 221.953 230.158 221.766 229.606 221.562C229.059 221.354 228.585 221.148 228.184 220.945C227.789 220.737 227.481 220.484 227.262 220.188C227.049 219.891 226.942 219.505 226.942 219.031C226.942 218.307 227.234 217.753 227.817 217.367C228.406 216.977 229.177 216.781 230.13 216.781C230.645 216.781 231.127 216.833 231.575 216.938C232.028 217.036 232.45 217.172 232.841 217.344L232.403 218.383C232.049 218.232 231.671 218.104 231.27 218C230.869 217.896 230.46 217.844 230.044 217.844C229.445 217.844 228.984 217.943 228.661 218.141C228.343 218.339 228.184 218.609 228.184 218.953C228.184 219.219 228.257 219.438 228.403 219.609C228.554 219.781 228.794 219.943 229.122 220.094C229.45 220.245 229.882 220.422 230.419 220.625C230.955 220.823 231.419 221.029 231.809 221.242C232.2 221.451 232.499 221.706 232.708 222.008C232.921 222.305 233.028 222.688 233.028 223.156ZM240.803 223.156C240.803 223.703 240.665 224.164 240.389 224.539C240.118 224.909 239.728 225.188 239.217 225.375C238.712 225.562 238.108 225.656 237.405 225.656C236.806 225.656 236.287 225.609 235.85 225.516C235.412 225.422 235.03 225.289 234.702 225.117V223.922C235.051 224.094 235.467 224.25 235.952 224.391C236.436 224.531 236.931 224.602 237.436 224.602C238.176 224.602 238.712 224.482 239.045 224.242C239.379 224.003 239.545 223.677 239.545 223.266C239.545 223.031 239.478 222.826 239.342 222.648C239.212 222.466 238.991 222.292 238.678 222.125C238.366 221.953 237.933 221.766 237.381 221.562C236.834 221.354 236.36 221.148 235.959 220.945C235.564 220.737 235.256 220.484 235.037 220.188C234.824 219.891 234.717 219.505 234.717 219.031C234.717 218.307 235.009 217.753 235.592 217.367C236.181 216.977 236.952 216.781 237.905 216.781C238.42 216.781 238.902 216.833 239.35 216.938C239.803 217.036 240.225 217.172 240.616 217.344L240.178 218.383C239.824 218.232 239.446 218.104 239.045 218C238.644 217.896 238.235 217.844 237.819 217.844C237.22 217.844 236.759 217.943 236.436 218.141C236.118 218.339 235.959 218.609 235.959 218.953C235.959 219.219 236.032 219.438 236.178 219.609C236.329 219.781 236.569 219.943 236.897 220.094C237.225 220.245 237.657 220.422 238.194 220.625C238.73 220.823 239.194 221.029 239.584 221.242C239.975 221.451 240.274 221.706 240.483 222.008C240.696 222.305 240.803 222.688 240.803 223.156ZM246.242 216.797C247.263 216.797 248.021 217.026 248.516 217.484C249.01 217.943 249.258 218.674 249.258 219.68V225.5H248.312L248.062 224.234H248C247.76 224.547 247.51 224.81 247.25 225.023C246.99 225.232 246.688 225.391 246.344 225.5C246.005 225.604 245.589 225.656 245.094 225.656C244.573 225.656 244.109 225.565 243.703 225.383C243.302 225.201 242.984 224.924 242.75 224.555C242.521 224.185 242.406 223.716 242.406 223.148C242.406 222.294 242.745 221.638 243.422 221.18C244.099 220.721 245.13 220.471 246.516 220.43L247.992 220.367V219.844C247.992 219.104 247.833 218.586 247.516 218.289C247.198 217.992 246.75 217.844 246.172 217.844C245.724 217.844 245.297 217.909 244.891 218.039C244.484 218.169 244.099 218.323 243.734 218.5L243.336 217.516C243.721 217.318 244.164 217.148 244.664 217.008C245.164 216.867 245.69 216.797 246.242 216.797ZM247.977 221.281L246.672 221.336C245.604 221.378 244.852 221.552 244.414 221.859C243.977 222.167 243.758 222.602 243.758 223.164C243.758 223.654 243.906 224.016 244.203 224.25C244.5 224.484 244.893 224.602 245.383 224.602C246.143 224.602 246.766 224.391 247.25 223.969C247.734 223.547 247.977 222.914 247.977 222.07V221.281ZM254.47 229.344C253.345 229.344 252.478 229.133 251.869 228.711C251.259 228.294 250.955 227.708 250.955 226.953C250.955 226.417 251.124 225.958 251.463 225.578C251.806 225.198 252.28 224.945 252.884 224.82C252.66 224.716 252.468 224.56 252.306 224.352C252.15 224.143 252.072 223.904 252.072 223.633C252.072 223.32 252.158 223.047 252.33 222.812C252.507 222.573 252.775 222.344 253.134 222.125C252.686 221.943 252.322 221.635 252.041 221.203C251.765 220.766 251.627 220.258 251.627 219.68C251.627 219.065 251.754 218.542 252.009 218.109C252.265 217.672 252.634 217.339 253.119 217.109C253.603 216.88 254.189 216.766 254.877 216.766C255.028 216.766 255.179 216.773 255.33 216.789C255.486 216.799 255.634 216.818 255.775 216.844C255.916 216.865 256.038 216.891 256.142 216.922H259.08V217.758L257.502 217.953C257.658 218.156 257.788 218.401 257.892 218.688C257.996 218.974 258.048 219.292 258.048 219.641C258.048 220.495 257.759 221.174 257.181 221.68C256.603 222.18 255.809 222.43 254.798 222.43C254.559 222.43 254.314 222.409 254.064 222.367C253.809 222.508 253.614 222.664 253.478 222.836C253.348 223.008 253.283 223.206 253.283 223.43C253.283 223.596 253.332 223.729 253.431 223.828C253.535 223.927 253.684 224 253.877 224.047C254.069 224.089 254.301 224.109 254.572 224.109H256.08C257.012 224.109 257.726 224.305 258.22 224.695C258.72 225.086 258.97 225.656 258.97 226.406C258.97 227.354 258.585 228.081 257.814 228.586C257.043 229.091 255.929 229.344 254.47 229.344ZM254.509 228.328C255.218 228.328 255.804 228.255 256.267 228.109C256.736 227.969 257.085 227.763 257.314 227.492C257.548 227.227 257.666 226.909 257.666 226.539C257.666 226.195 257.588 225.935 257.431 225.758C257.275 225.586 257.046 225.471 256.744 225.414C256.442 225.352 256.072 225.32 255.634 225.32H254.15C253.765 225.32 253.429 225.38 253.142 225.5C252.856 225.62 252.634 225.797 252.478 226.031C252.327 226.266 252.252 226.557 252.252 226.906C252.252 227.37 252.447 227.721 252.838 227.961C253.228 228.206 253.785 228.328 254.509 228.328ZM254.845 221.484C255.465 221.484 255.931 221.328 256.244 221.016C256.556 220.703 256.713 220.247 256.713 219.648C256.713 219.008 256.554 218.529 256.236 218.211C255.918 217.888 255.449 217.727 254.83 217.727C254.236 217.727 253.778 217.893 253.455 218.227C253.137 218.555 252.978 219.036 252.978 219.672C252.978 220.255 253.14 220.703 253.463 221.016C253.785 221.328 254.246 221.484 254.845 221.484ZM264.214 216.781C264.943 216.781 265.568 216.943 266.089 217.266C266.61 217.589 267.008 218.042 267.284 218.625C267.56 219.203 267.698 219.88 267.698 220.656V221.461H261.784C261.8 222.466 262.05 223.232 262.534 223.758C263.019 224.284 263.701 224.547 264.581 224.547C265.123 224.547 265.602 224.497 266.019 224.398C266.435 224.299 266.868 224.154 267.316 223.961V225.102C266.883 225.294 266.454 225.435 266.027 225.523C265.605 225.612 265.105 225.656 264.527 225.656C263.704 225.656 262.985 225.49 262.37 225.156C261.761 224.818 261.287 224.323 260.948 223.672C260.61 223.021 260.441 222.224 260.441 221.281C260.441 220.359 260.594 219.562 260.902 218.891C261.214 218.214 261.652 217.693 262.214 217.328C262.782 216.964 263.448 216.781 264.214 216.781ZM264.198 217.844C263.506 217.844 262.954 218.07 262.542 218.523C262.131 218.977 261.886 219.609 261.808 220.422H266.339C266.334 219.911 266.253 219.464 266.097 219.078C265.946 218.688 265.714 218.385 265.402 218.172C265.089 217.953 264.688 217.844 264.198 217.844ZM269.856 224.688C269.856 224.323 269.945 224.065 270.122 223.914C270.299 223.758 270.515 223.68 270.77 223.68C271.036 223.68 271.26 223.758 271.442 223.914C271.624 224.065 271.716 224.323 271.716 224.688C271.716 225.047 271.624 225.31 271.442 225.477C271.26 225.638 271.036 225.719 270.77 225.719C270.515 225.719 270.299 225.638 270.122 225.477C269.945 225.31 269.856 225.047 269.856 224.688Z" fill="white"/>
<rect x="281.5" y="203.5" width="75" height="32" rx="4" fill="#019AEB"/>
<path d="M298.855 215.934H301.521C302.662 215.934 303.525 216.094 304.111 216.414C304.697 216.734 304.99 217.297 304.99 218.102C304.99 218.426 304.938 218.719 304.832 218.98C304.73 219.242 304.582 219.457 304.387 219.625C304.191 219.793 303.953 219.902 303.672 219.953V220.012C303.957 220.07 304.215 220.172 304.445 220.316C304.676 220.457 304.859 220.664 304.996 220.938C305.137 221.207 305.207 221.566 305.207 222.016C305.207 222.535 305.08 222.98 304.826 223.352C304.572 223.723 304.209 224.008 303.736 224.207C303.268 224.402 302.709 224.5 302.061 224.5H298.855V215.934ZM300.672 219.326H301.727C302.254 219.326 302.619 219.244 302.822 219.08C303.025 218.912 303.127 218.666 303.127 218.342C303.127 218.014 303.006 217.779 302.764 217.639C302.525 217.494 302.146 217.422 301.627 217.422H300.672V219.326ZM300.672 220.768V223H301.855C302.402 223 302.783 222.895 302.998 222.684C303.213 222.473 303.32 222.189 303.32 221.834C303.32 221.623 303.273 221.438 303.18 221.277C303.086 221.117 302.928 220.992 302.705 220.902C302.486 220.812 302.184 220.768 301.797 220.768H300.672ZM312.939 217.949V224.5H311.568L311.328 223.662H311.234C311.093 223.885 310.918 224.066 310.707 224.207C310.496 224.348 310.263 224.451 310.009 224.518C309.755 224.584 309.492 224.617 309.218 224.617C308.75 224.617 308.341 224.535 307.994 224.371C307.646 224.203 307.375 223.943 307.179 223.592C306.988 223.24 306.892 222.783 306.892 222.221V217.949H308.679V221.775C308.679 222.244 308.763 222.598 308.931 222.836C309.099 223.074 309.367 223.193 309.734 223.193C310.097 223.193 310.382 223.111 310.589 222.947C310.796 222.779 310.941 222.535 311.023 222.215C311.109 221.891 311.152 221.496 311.152 221.031V217.949H312.939ZM317.724 223.193C317.919 223.193 318.109 223.174 318.292 223.135C318.48 223.096 318.665 223.047 318.849 222.988V224.318C318.657 224.404 318.419 224.475 318.134 224.529C317.853 224.588 317.544 224.617 317.208 224.617C316.818 224.617 316.466 224.555 316.154 224.43C315.845 224.301 315.601 224.08 315.421 223.768C315.245 223.451 315.157 223.012 315.157 222.449V219.291H314.302V218.535L315.286 217.938L315.802 216.555H316.945V217.949H318.779V219.291H316.945V222.449C316.945 222.699 317.015 222.887 317.155 223.012C317.3 223.133 317.489 223.193 317.724 223.193ZM323.089 223.193C323.284 223.193 323.473 223.174 323.657 223.135C323.845 223.096 324.03 223.047 324.214 222.988V224.318C324.022 224.404 323.784 224.475 323.499 224.529C323.218 224.588 322.909 224.617 322.573 224.617C322.182 224.617 321.831 224.555 321.518 224.43C321.21 224.301 320.966 224.08 320.786 223.768C320.61 223.451 320.522 223.012 320.522 222.449V219.291H319.667V218.535L320.651 217.938L321.167 216.555H322.309V217.949H324.143V219.291H322.309V222.449C322.309 222.699 322.38 222.887 322.52 223.012C322.665 223.133 322.854 223.193 323.089 223.193ZM331.647 221.213C331.647 221.76 331.573 222.244 331.424 222.666C331.28 223.088 331.067 223.445 330.786 223.738C330.508 224.027 330.172 224.246 329.778 224.395C329.387 224.543 328.946 224.617 328.454 224.617C327.993 224.617 327.569 224.543 327.182 224.395C326.799 224.246 326.465 224.027 326.18 223.738C325.899 223.445 325.68 223.088 325.524 222.666C325.371 222.244 325.295 221.76 325.295 221.213C325.295 220.486 325.424 219.871 325.682 219.367C325.94 218.863 326.307 218.48 326.784 218.219C327.26 217.957 327.829 217.826 328.489 217.826C329.102 217.826 329.645 217.957 330.118 218.219C330.594 218.48 330.967 218.863 331.237 219.367C331.51 219.871 331.647 220.486 331.647 221.213ZM327.118 221.213C327.118 221.643 327.164 222.004 327.258 222.297C327.352 222.59 327.498 222.811 327.698 222.959C327.897 223.107 328.157 223.182 328.477 223.182C328.793 223.182 329.049 223.107 329.245 222.959C329.444 222.811 329.588 222.59 329.678 222.297C329.772 222.004 329.819 221.643 329.819 221.213C329.819 220.779 329.772 220.42 329.678 220.135C329.588 219.846 329.444 219.629 329.245 219.484C329.045 219.34 328.786 219.268 328.465 219.268C327.993 219.268 327.649 219.43 327.434 219.754C327.223 220.078 327.118 220.564 327.118 221.213ZM336.994 217.826C337.693 217.826 338.256 218.018 338.682 218.4C339.107 218.779 339.32 219.389 339.32 220.229V224.5H337.533V220.674C337.533 220.205 337.447 219.852 337.275 219.613C337.107 219.375 336.842 219.256 336.479 219.256C335.932 219.256 335.559 219.441 335.359 219.812C335.16 220.184 335.061 220.719 335.061 221.418V224.5H333.273V217.949H334.639L334.879 218.787H334.979C335.119 218.561 335.293 218.377 335.5 218.236C335.711 218.096 335.943 217.992 336.197 217.926C336.455 217.859 336.721 217.826 336.994 217.826Z" fill="white"/>
<rect x="108" y="192" width="264" height="55" rx="3.5" stroke="#019AEB"/>
<rect width="478" height="167" transform="translate(482 136)" fill="#252A2E"/>
<rect x="570.5" y="188" width="301" height="63" rx="3.5" fill="#019AEB" fill-opacity="0.4"/>
<path d="M602 215.54C602.734 215.54 603.334 214.94 603.334 214.207C603.334 213.473 602.734 212.873 602 212.873C601.267 212.873 600.667 213.473 600.667 214.207C600.667 214.94 601.267 215.54 602 215.54ZM602 232.833C609.36 232.833 615.334 226.86 615.334 219.5C615.334 212.14 609.36 206.167 602 206.167C594.64 206.167 588.667 212.14 588.667 219.5C588.667 226.86 594.64 232.833 602 232.833ZM602 208.833C607.88 208.833 612.667 213.62 612.667 219.5C612.667 225.38 607.88 230.167 602 230.167C596.12 230.167 591.334 225.38 591.334 219.5C591.334 213.62 596.12 208.833 602 208.833ZM602 226.167C602.734 226.167 603.334 225.567 603.334 224.833V219.5C603.334 218.767 602.734 218.167 602 218.167C601.267 218.167 600.667 218.767 600.667 219.5V224.833C600.667 225.567 601.267 226.167 602 226.167Z" fill="white"/>
<path d="M636.336 226.5H634.64L631.168 220.84L627.644 226.5H626.053L630.333 219.803L626.352 213.65H628.013L631.221 218.774L634.446 213.65H636.028L632.056 219.776L636.336 226.5ZM637.127 222.316V221.016H641.486V222.316H637.127ZM643.965 226.5V213.65H645.459V225.164H651.163V226.5H643.965ZM656.753 216.709C657.901 216.709 658.754 216.967 659.311 217.482C659.867 217.998 660.146 218.821 660.146 219.952V226.5H659.082L658.801 225.076H658.73C658.461 225.428 658.18 225.724 657.887 225.964C657.594 226.198 657.254 226.377 656.867 226.5C656.486 226.617 656.018 226.676 655.461 226.676C654.875 226.676 654.354 226.573 653.896 226.368C653.445 226.163 653.088 225.853 652.824 225.437C652.566 225.021 652.438 224.493 652.438 223.854C652.438 222.894 652.818 222.155 653.58 221.64C654.342 221.124 655.502 220.843 657.061 220.796L658.722 220.726V220.137C658.722 219.305 658.543 218.722 658.186 218.388C657.828 218.054 657.324 217.887 656.674 217.887C656.17 217.887 655.689 217.96 655.232 218.106C654.775 218.253 654.342 218.426 653.932 218.625L653.483 217.518C653.917 217.295 654.415 217.104 654.978 216.946C655.54 216.788 656.132 216.709 656.753 216.709ZM658.704 221.754L657.236 221.815C656.035 221.862 655.188 222.059 654.696 222.404C654.204 222.75 653.958 223.239 653.958 223.872C653.958 224.423 654.125 224.83 654.459 225.094C654.793 225.357 655.235 225.489 655.786 225.489C656.642 225.489 657.342 225.252 657.887 224.777C658.432 224.303 658.704 223.591 658.704 222.642V221.754ZM667.528 216.691C667.722 216.691 667.924 216.703 668.135 216.727C668.346 216.744 668.533 216.771 668.697 216.806L668.513 218.159C668.354 218.118 668.179 218.086 667.985 218.062C667.792 218.039 667.61 218.027 667.44 218.027C667.054 218.027 666.688 218.106 666.342 218.265C666.002 218.417 665.703 218.64 665.445 218.933C665.188 219.22 664.985 219.568 664.839 219.979C664.692 220.383 664.619 220.834 664.619 221.332V226.5H663.151V216.867H664.364L664.522 218.643H664.584C664.783 218.285 665.023 217.96 665.305 217.667C665.586 217.368 665.911 217.131 666.28 216.955C666.655 216.779 667.071 216.691 667.528 216.691ZM673.206 230.824C671.94 230.824 670.965 230.587 670.279 230.112C669.594 229.644 669.251 228.984 669.251 228.135C669.251 227.531 669.441 227.016 669.822 226.588C670.209 226.16 670.742 225.876 671.422 225.735C671.17 225.618 670.953 225.442 670.771 225.208C670.596 224.974 670.508 224.704 670.508 224.399C670.508 224.048 670.604 223.74 670.798 223.477C670.997 223.207 671.299 222.949 671.703 222.703C671.199 222.498 670.789 222.152 670.473 221.666C670.162 221.174 670.007 220.603 670.007 219.952C670.007 219.261 670.15 218.672 670.438 218.186C670.725 217.693 671.141 217.318 671.686 217.061C672.23 216.803 672.89 216.674 673.663 216.674C673.833 216.674 674.003 216.683 674.173 216.7C674.349 216.712 674.516 216.732 674.674 216.762C674.832 216.785 674.97 216.814 675.087 216.85H678.392V217.79L676.616 218.01C676.792 218.238 676.938 218.514 677.056 218.836C677.173 219.158 677.231 219.516 677.231 219.908C677.231 220.869 676.906 221.634 676.256 222.202C675.605 222.765 674.712 223.046 673.575 223.046C673.306 223.046 673.03 223.022 672.749 222.976C672.462 223.134 672.242 223.31 672.09 223.503C671.943 223.696 671.87 223.919 671.87 224.171C671.87 224.358 671.926 224.508 672.037 224.619C672.154 224.73 672.321 224.812 672.538 224.865C672.755 224.912 673.016 224.936 673.32 224.936H675.017C676.065 224.936 676.868 225.155 677.425 225.595C677.987 226.034 678.269 226.676 678.269 227.52C678.269 228.586 677.835 229.403 676.968 229.972C676.101 230.54 674.847 230.824 673.206 230.824ZM673.25 229.682C674.047 229.682 674.706 229.6 675.228 229.436C675.755 229.277 676.147 229.046 676.405 228.741C676.669 228.442 676.801 228.085 676.801 227.669C676.801 227.282 676.713 226.989 676.537 226.79C676.361 226.597 676.104 226.468 675.764 226.403C675.424 226.333 675.008 226.298 674.516 226.298H672.846C672.412 226.298 672.034 226.365 671.712 226.5C671.39 226.635 671.141 226.834 670.965 227.098C670.795 227.361 670.71 227.689 670.71 228.082C670.71 228.604 670.93 228.999 671.369 229.269C671.809 229.544 672.436 229.682 673.25 229.682ZM673.628 221.982C674.325 221.982 674.85 221.807 675.201 221.455C675.553 221.104 675.729 220.591 675.729 219.917C675.729 219.196 675.55 218.657 675.192 218.3C674.835 217.937 674.308 217.755 673.61 217.755C672.942 217.755 672.427 217.942 672.063 218.317C671.706 218.687 671.527 219.229 671.527 219.943C671.527 220.6 671.709 221.104 672.072 221.455C672.436 221.807 672.954 221.982 673.628 221.982ZM683.999 216.691C684.819 216.691 685.522 216.873 686.108 217.236C686.694 217.6 687.143 218.109 687.453 218.766C687.764 219.416 687.919 220.178 687.919 221.051V221.956H681.266C681.283 223.087 681.564 223.948 682.109 224.54C682.654 225.132 683.422 225.428 684.412 225.428C685.021 225.428 685.561 225.372 686.029 225.261C686.498 225.149 686.984 224.985 687.488 224.769V226.052C687.002 226.269 686.519 226.427 686.038 226.526C685.563 226.626 685.001 226.676 684.351 226.676C683.425 226.676 682.616 226.488 681.925 226.113C681.239 225.732 680.706 225.176 680.325 224.443C679.944 223.711 679.754 222.814 679.754 221.754C679.754 220.717 679.927 219.82 680.272 219.064C680.624 218.303 681.116 217.717 681.749 217.307C682.388 216.896 683.138 216.691 683.999 216.691ZM683.981 217.887C683.202 217.887 682.581 218.142 682.118 218.651C681.655 219.161 681.38 219.873 681.292 220.787H686.39C686.384 220.213 686.293 219.709 686.117 219.275C685.947 218.836 685.687 218.496 685.335 218.256C684.983 218.01 684.532 217.887 683.981 217.887ZM705.532 216.691C706.593 216.691 707.393 216.97 707.932 217.526C708.471 218.077 708.74 218.965 708.74 220.189V226.5H707.299V220.26C707.299 219.48 707.129 218.897 706.789 218.511C706.455 218.118 705.957 217.922 705.295 217.922C704.363 217.922 703.687 218.191 703.265 218.73C702.843 219.27 702.632 220.063 702.632 221.112V226.5H701.182V220.26C701.182 219.738 701.105 219.305 700.953 218.959C700.807 218.613 700.584 218.355 700.285 218.186C699.992 218.01 699.62 217.922 699.169 217.922C698.53 217.922 698.018 218.054 697.631 218.317C697.244 218.581 696.963 218.974 696.787 219.495C696.617 220.011 696.532 220.646 696.532 221.402V226.5H695.073V216.867H696.251L696.471 218.229H696.55C696.743 217.896 696.986 217.614 697.279 217.386C697.572 217.157 697.9 216.984 698.264 216.867C698.627 216.75 699.014 216.691 699.424 216.691C700.156 216.691 700.769 216.829 701.261 217.104C701.759 217.374 702.119 217.787 702.342 218.344H702.421C702.737 217.787 703.171 217.374 703.722 217.104C704.272 216.829 704.876 216.691 705.532 216.691ZM715.446 216.691C716.267 216.691 716.97 216.873 717.556 217.236C718.142 217.6 718.59 218.109 718.9 218.766C719.211 219.416 719.366 220.178 719.366 221.051V221.956H712.713C712.73 223.087 713.012 223.948 713.557 224.54C714.102 225.132 714.869 225.428 715.859 225.428C716.469 225.428 717.008 225.372 717.477 225.261C717.945 225.149 718.432 224.985 718.936 224.769V226.052C718.449 226.269 717.966 226.427 717.485 226.526C717.011 226.626 716.448 226.676 715.798 226.676C714.872 226.676 714.063 226.488 713.372 226.113C712.687 225.732 712.153 225.176 711.772 224.443C711.392 223.711 711.201 222.814 711.201 221.754C711.201 220.717 711.374 219.82 711.72 219.064C712.071 218.303 712.563 217.717 713.196 217.307C713.835 216.896 714.585 216.691 715.446 216.691ZM715.429 217.887C714.649 217.887 714.028 218.142 713.565 218.651C713.103 219.161 712.827 219.873 712.739 220.787H717.837C717.831 220.213 717.74 219.709 717.564 219.275C717.395 218.836 717.134 218.496 716.782 218.256C716.431 218.01 715.979 217.887 715.429 217.887ZM728.076 223.863C728.076 224.479 727.921 224.997 727.61 225.419C727.306 225.835 726.866 226.148 726.292 226.359C725.724 226.57 725.044 226.676 724.253 226.676C723.579 226.676 722.996 226.623 722.504 226.518C722.012 226.412 721.581 226.263 721.212 226.069V224.725C721.604 224.918 722.073 225.094 722.618 225.252C723.163 225.41 723.72 225.489 724.288 225.489C725.12 225.489 725.724 225.354 726.099 225.085C726.474 224.815 726.661 224.449 726.661 223.986C726.661 223.723 726.585 223.491 726.433 223.292C726.286 223.087 726.037 222.891 725.686 222.703C725.334 222.51 724.848 222.299 724.227 222.07C723.611 221.836 723.078 221.604 722.627 221.376C722.182 221.142 721.836 220.857 721.59 220.523C721.35 220.189 721.229 219.756 721.229 219.223C721.229 218.408 721.558 217.784 722.214 217.351C722.876 216.911 723.743 216.691 724.815 216.691C725.396 216.691 725.938 216.75 726.441 216.867C726.951 216.979 727.426 217.131 727.865 217.324L727.373 218.493C726.975 218.323 726.55 218.18 726.099 218.062C725.647 217.945 725.188 217.887 724.719 217.887C724.045 217.887 723.526 217.998 723.163 218.221C722.806 218.443 722.627 218.748 722.627 219.135C722.627 219.434 722.709 219.68 722.873 219.873C723.043 220.066 723.312 220.248 723.682 220.418C724.051 220.588 724.537 220.787 725.141 221.016C725.744 221.238 726.266 221.47 726.705 221.71C727.145 221.944 727.481 222.231 727.716 222.571C727.956 222.905 728.076 223.336 728.076 223.863ZM736.654 223.863C736.654 224.479 736.499 224.997 736.188 225.419C735.884 225.835 735.444 226.148 734.87 226.359C734.302 226.57 733.622 226.676 732.831 226.676C732.157 226.676 731.574 226.623 731.082 226.518C730.59 226.412 730.159 226.263 729.79 226.069V224.725C730.183 224.918 730.651 225.094 731.196 225.252C731.741 225.41 732.298 225.489 732.866 225.489C733.698 225.489 734.302 225.354 734.677 225.085C735.052 224.815 735.239 224.449 735.239 223.986C735.239 223.723 735.163 223.491 735.011 223.292C734.864 223.087 734.615 222.891 734.264 222.703C733.912 222.51 733.426 222.299 732.805 222.07C732.189 221.836 731.656 221.604 731.205 221.376C730.76 221.142 730.414 220.857 730.168 220.523C729.928 220.189 729.808 219.756 729.808 219.223C729.808 218.408 730.136 217.784 730.792 217.351C731.454 216.911 732.321 216.691 733.394 216.691C733.974 216.691 734.516 216.75 735.02 216.867C735.529 216.979 736.004 217.131 736.443 217.324L735.951 218.493C735.553 218.323 735.128 218.18 734.677 218.062C734.226 217.945 733.766 217.887 733.297 217.887C732.623 217.887 732.104 217.998 731.741 218.221C731.384 218.443 731.205 218.748 731.205 219.135C731.205 219.434 731.287 219.68 731.451 219.873C731.621 220.066 731.891 220.248 732.26 220.418C732.629 220.588 733.115 220.787 733.719 221.016C734.322 221.238 734.844 221.47 735.283 221.71C735.723 221.944 736.06 222.231 736.294 222.571C736.534 222.905 736.654 223.336 736.654 223.863ZM742.604 216.709C743.753 216.709 744.605 216.967 745.162 217.482C745.719 217.998 745.997 218.821 745.997 219.952V226.5H744.934L744.652 225.076H744.582C744.312 225.428 744.031 225.724 743.738 225.964C743.445 226.198 743.105 226.377 742.719 226.5C742.338 226.617 741.869 226.676 741.312 226.676C740.727 226.676 740.205 226.573 739.748 226.368C739.297 226.163 738.939 225.853 738.676 225.437C738.418 225.021 738.289 224.493 738.289 223.854C738.289 222.894 738.67 222.155 739.432 221.64C740.193 221.124 741.354 220.843 742.912 220.796L744.573 220.726V220.137C744.573 219.305 744.395 218.722 744.037 218.388C743.68 218.054 743.176 217.887 742.525 217.887C742.021 217.887 741.541 217.96 741.084 218.106C740.627 218.253 740.193 218.426 739.783 218.625L739.335 217.518C739.769 217.295 740.267 217.104 740.829 216.946C741.392 216.788 741.983 216.709 742.604 216.709ZM744.556 221.754L743.088 221.815C741.887 221.862 741.04 222.059 740.548 222.404C740.056 222.75 739.81 223.239 739.81 223.872C739.81 224.423 739.977 224.83 740.311 225.094C740.645 225.357 741.087 225.489 741.638 225.489C742.493 225.489 743.193 225.252 743.738 224.777C744.283 224.303 744.556 223.591 744.556 222.642V221.754ZM751.692 230.824C750.427 230.824 749.451 230.587 748.766 230.112C748.08 229.644 747.737 228.984 747.737 228.135C747.737 227.531 747.928 227.016 748.309 226.588C748.695 226.16 749.229 225.876 749.908 225.735C749.656 225.618 749.439 225.442 749.258 225.208C749.082 224.974 748.994 224.704 748.994 224.399C748.994 224.048 749.091 223.74 749.284 223.477C749.483 223.207 749.785 222.949 750.189 222.703C749.686 222.498 749.275 222.152 748.959 221.666C748.648 221.174 748.493 220.603 748.493 219.952C748.493 219.261 748.637 218.672 748.924 218.186C749.211 217.693 749.627 217.318 750.172 217.061C750.717 216.803 751.376 216.674 752.149 216.674C752.319 216.674 752.489 216.683 752.659 216.7C752.835 216.712 753.002 216.732 753.16 216.762C753.318 216.785 753.456 216.814 753.573 216.85H756.878V217.79L755.103 218.01C755.278 218.238 755.425 218.514 755.542 218.836C755.659 219.158 755.718 219.516 755.718 219.908C755.718 220.869 755.393 221.634 754.742 222.202C754.092 222.765 753.198 223.046 752.062 223.046C751.792 223.046 751.517 223.022 751.235 222.976C750.948 223.134 750.729 223.31 750.576 223.503C750.43 223.696 750.356 223.919 750.356 224.171C750.356 224.358 750.412 224.508 750.523 224.619C750.641 224.73 750.808 224.812 751.024 224.865C751.241 224.912 751.502 224.936 751.807 224.936H753.503C754.552 224.936 755.354 225.155 755.911 225.595C756.474 226.034 756.755 226.676 756.755 227.52C756.755 228.586 756.321 229.403 755.454 229.972C754.587 230.54 753.333 230.824 751.692 230.824ZM751.736 229.682C752.533 229.682 753.192 229.6 753.714 229.436C754.241 229.277 754.634 229.046 754.892 228.741C755.155 228.442 755.287 228.085 755.287 227.669C755.287 227.282 755.199 226.989 755.023 226.79C754.848 226.597 754.59 226.468 754.25 226.403C753.91 226.333 753.494 226.298 753.002 226.298H751.332C750.898 226.298 750.521 226.365 750.198 226.5C749.876 226.635 749.627 226.834 749.451 227.098C749.281 227.361 749.196 227.689 749.196 228.082C749.196 228.604 749.416 228.999 749.855 229.269C750.295 229.544 750.922 229.682 751.736 229.682ZM752.114 221.982C752.812 221.982 753.336 221.807 753.688 221.455C754.039 221.104 754.215 220.591 754.215 219.917C754.215 219.196 754.036 218.657 753.679 218.3C753.321 217.937 752.794 217.755 752.097 217.755C751.429 217.755 750.913 217.942 750.55 218.317C750.192 218.687 750.014 219.229 750.014 219.943C750.014 220.6 750.195 221.104 750.559 221.455C750.922 221.807 751.44 221.982 752.114 221.982ZM762.485 216.691C763.306 216.691 764.009 216.873 764.595 217.236C765.181 217.6 765.629 218.109 765.939 218.766C766.25 219.416 766.405 220.178 766.405 221.051V221.956H759.752C759.77 223.087 760.051 223.948 760.596 224.54C761.141 225.132 761.908 225.428 762.898 225.428C763.508 225.428 764.047 225.372 764.516 225.261C764.984 225.149 765.471 224.985 765.975 224.769V226.052C765.488 226.269 765.005 226.427 764.524 226.526C764.05 226.626 763.487 226.676 762.837 226.676C761.911 226.676 761.103 226.488 760.411 226.113C759.726 225.732 759.192 225.176 758.812 224.443C758.431 223.711 758.24 222.814 758.24 221.754C758.24 220.717 758.413 219.82 758.759 219.064C759.11 218.303 759.603 217.717 760.235 217.307C760.874 216.896 761.624 216.691 762.485 216.691ZM762.468 217.887C761.688 217.887 761.067 218.142 760.604 218.651C760.142 219.161 759.866 219.873 759.778 220.787H764.876C764.87 220.213 764.779 219.709 764.604 219.275C764.434 218.836 764.173 218.496 763.821 218.256C763.47 218.01 763.019 217.887 762.468 217.887ZM768.664 225.586C768.664 225.176 768.764 224.886 768.963 224.716C769.162 224.54 769.405 224.452 769.692 224.452C769.991 224.452 770.243 224.54 770.448 224.716C770.653 224.886 770.756 225.176 770.756 225.586C770.756 225.99 770.653 226.286 770.448 226.474C770.243 226.655 769.991 226.746 769.692 226.746C769.405 226.746 769.162 226.655 768.963 226.474C768.764 226.286 768.664 225.99 768.664 225.586Z" fill="white"/>
<rect x="781" y="203.5" width="75" height="32" rx="4" fill="#019AEB"/>
<path d="M798.355 215.934H801.021C802.162 215.934 803.025 216.094 803.611 216.414C804.197 216.734 804.49 217.297 804.49 218.102C804.49 218.426 804.438 218.719 804.332 218.98C804.23 219.242 804.082 219.457 803.887 219.625C803.691 219.793 803.453 219.902 803.172 219.953V220.012C803.457 220.07 803.715 220.172 803.945 220.316C804.176 220.457 804.359 220.664 804.496 220.938C804.637 221.207 804.707 221.566 804.707 222.016C804.707 222.535 804.58 222.98 804.326 223.352C804.072 223.723 803.709 224.008 803.236 224.207C802.768 224.402 802.209 224.5 801.561 224.5H798.355V215.934ZM800.172 219.326H801.227C801.754 219.326 802.119 219.244 802.322 219.08C802.525 218.912 802.627 218.666 802.627 218.342C802.627 218.014 802.506 217.779 802.264 217.639C802.025 217.494 801.646 217.422 801.127 217.422H800.172V219.326ZM800.172 220.768V223H801.355C801.902 223 802.283 222.895 802.498 222.684C802.713 222.473 802.82 222.189 802.82 221.834C802.82 221.623 802.773 221.438 802.68 221.277C802.586 221.117 802.428 220.992 802.205 220.902C801.986 220.812 801.684 220.768 801.297 220.768H800.172ZM812.439 217.949V224.5H811.068L810.828 223.662H810.734C810.593 223.885 810.418 224.066 810.207 224.207C809.996 224.348 809.763 224.451 809.509 224.518C809.255 224.584 808.992 224.617 808.718 224.617C808.25 224.617 807.841 224.535 807.494 224.371C807.146 224.203 806.875 223.943 806.679 223.592C806.488 223.24 806.392 222.783 806.392 222.221V217.949H808.179V221.775C808.179 222.244 808.263 222.598 808.431 222.836C808.599 223.074 808.867 223.193 809.234 223.193C809.597 223.193 809.882 223.111 810.089 222.947C810.296 222.779 810.441 222.535 810.523 222.215C810.609 221.891 810.652 221.496 810.652 221.031V217.949H812.439ZM817.224 223.193C817.419 223.193 817.609 223.174 817.792 223.135C817.98 223.096 818.165 223.047 818.349 222.988V224.318C818.157 224.404 817.919 224.475 817.634 224.529C817.353 224.588 817.044 224.617 816.708 224.617C816.318 224.617 815.966 224.555 815.654 224.43C815.345 224.301 815.101 224.08 814.921 223.768C814.745 223.451 814.657 223.012 814.657 222.449V219.291H813.802V218.535L814.786 217.938L815.302 216.555H816.445V217.949H818.279V219.291H816.445V222.449C816.445 222.699 816.515 222.887 816.655 223.012C816.8 223.133 816.989 223.193 817.224 223.193ZM822.589 223.193C822.784 223.193 822.973 223.174 823.157 223.135C823.345 223.096 823.53 223.047 823.714 222.988V224.318C823.522 224.404 823.284 224.475 822.999 224.529C822.718 224.588 822.409 224.617 822.073 224.617C821.682 224.617 821.331 224.555 821.018 224.43C820.71 224.301 820.466 224.08 820.286 223.768C820.11 223.451 820.022 223.012 820.022 222.449V219.291H819.167V218.535L820.151 217.938L820.667 216.555H821.809V217.949H823.643V219.291H821.809V222.449C821.809 222.699 821.88 222.887 822.02 223.012C822.165 223.133 822.354 223.193 822.589 223.193ZM831.147 221.213C831.147 221.76 831.073 222.244 830.924 222.666C830.78 223.088 830.567 223.445 830.286 223.738C830.008 224.027 829.672 224.246 829.278 224.395C828.887 224.543 828.446 224.617 827.954 224.617C827.493 224.617 827.069 224.543 826.682 224.395C826.299 224.246 825.965 224.027 825.68 223.738C825.399 223.445 825.18 223.088 825.024 222.666C824.871 222.244 824.795 221.76 824.795 221.213C824.795 220.486 824.924 219.871 825.182 219.367C825.44 218.863 825.807 218.48 826.284 218.219C826.76 217.957 827.329 217.826 827.989 217.826C828.602 217.826 829.145 217.957 829.618 218.219C830.094 218.48 830.467 218.863 830.737 219.367C831.01 219.871 831.147 220.486 831.147 221.213ZM826.618 221.213C826.618 221.643 826.664 222.004 826.758 222.297C826.852 222.59 826.998 222.811 827.198 222.959C827.397 223.107 827.657 223.182 827.977 223.182C828.293 223.182 828.549 223.107 828.745 222.959C828.944 222.811 829.088 222.59 829.178 222.297C829.272 222.004 829.319 221.643 829.319 221.213C829.319 220.779 829.272 220.42 829.178 220.135C829.088 219.846 828.944 219.629 828.745 219.484C828.545 219.34 828.286 219.268 827.965 219.268C827.493 219.268 827.149 219.43 826.934 219.754C826.723 220.078 826.618 220.564 826.618 221.213ZM836.494 217.826C837.193 217.826 837.756 218.018 838.182 218.4C838.607 218.779 838.82 219.389 838.82 220.229V224.5H837.033V220.674C837.033 220.205 836.947 219.852 836.775 219.613C836.607 219.375 836.342 219.256 835.979 219.256C835.432 219.256 835.059 219.441 834.859 219.812C834.66 220.184 834.561 220.719 834.561 221.418V224.5H832.773V217.949H834.139L834.379 218.787H834.479C834.619 218.561 834.793 218.377 835 218.236C835.211 218.096 835.443 217.992 835.697 217.926C835.955 217.859 836.221 217.826 836.494 217.826Z" fill="white"/>
<rect x="570.5" y="188" width="301" height="63" rx="3.5" stroke="#019AEB"/>
<path d="M905 192V248" stroke="#E8178A"/>
<rect x="886.5" y="212" width="38" height="18" rx="3" fill="#E8178A"/>
<path d="M895.881 225.099C895.507 225.097 895.146 225.034 894.798 224.911C894.452 224.788 894.142 224.588 893.867 224.311C893.593 224.034 893.375 223.667 893.214 223.21C893.055 222.753 892.976 222.192 892.976 221.527C892.978 220.916 893.048 220.371 893.185 219.89C893.325 219.407 893.524 218.997 893.782 218.661C894.042 218.325 894.354 218.069 894.716 217.894C895.078 217.717 895.484 217.628 895.934 217.628C896.419 217.628 896.848 217.723 897.219 217.912C897.591 218.099 897.889 218.353 898.114 218.675C898.342 218.997 898.479 219.358 898.526 219.759H897.01C896.951 219.505 896.826 219.306 896.637 219.162C896.448 219.018 896.213 218.945 895.934 218.945C895.46 218.945 895.101 219.151 894.854 219.563C894.611 219.975 894.486 220.535 894.482 221.243H894.531C894.64 221.027 894.787 220.844 894.972 220.692C895.159 220.539 895.371 220.421 895.607 220.341C895.846 220.258 896.098 220.217 896.364 220.217C896.795 220.217 897.178 220.318 897.514 220.522C897.85 220.723 898.116 221 898.31 221.353C898.504 221.706 898.601 222.109 898.601 222.564C898.601 223.056 898.486 223.494 898.256 223.878C898.029 224.261 897.711 224.562 897.301 224.78C896.894 224.995 896.42 225.102 895.881 225.099ZM895.874 223.892C896.11 223.892 896.322 223.835 896.509 223.722C896.696 223.608 896.843 223.454 896.95 223.26C897.056 223.066 897.109 222.848 897.109 222.607C897.109 222.365 897.056 222.148 896.95 221.957C896.845 221.765 896.701 221.612 896.516 221.499C896.332 221.385 896.121 221.328 895.884 221.328C895.707 221.328 895.542 221.361 895.391 221.428C895.241 221.494 895.11 221.586 894.996 221.705C894.885 221.823 894.798 221.96 894.734 222.116C894.67 222.27 894.638 222.435 894.638 222.61C894.638 222.844 894.691 223.059 894.798 223.253C894.906 223.447 895.053 223.602 895.238 223.718C895.425 223.834 895.637 223.892 895.874 223.892ZM899.581 223.722V222.511L902.617 217.727H903.661V219.403H903.043L901.129 222.433V222.489H905.444V223.722H899.581ZM903.072 225V223.352L903.1 222.816V217.727H904.542V225H903.072ZM906.483 227.045V219.545H907.974V220.462H908.042C908.108 220.315 908.204 220.166 908.329 220.014C908.457 219.86 908.623 219.732 908.826 219.631C909.032 219.527 909.288 219.474 909.593 219.474C909.991 219.474 910.358 219.579 910.694 219.787C911.03 219.993 911.299 220.304 911.5 220.721C911.702 221.135 911.802 221.655 911.802 222.28C911.802 222.888 911.704 223.402 911.507 223.821C911.313 224.238 911.048 224.554 910.712 224.769C910.378 224.982 910.004 225.089 909.59 225.089C909.296 225.089 909.047 225.04 908.841 224.943C908.637 224.846 908.47 224.724 908.34 224.577C908.21 224.428 908.11 224.278 908.042 224.126H907.995V227.045H906.483ZM907.963 222.273C907.963 222.597 908.008 222.88 908.098 223.121C908.188 223.363 908.319 223.551 908.489 223.686C908.659 223.819 908.867 223.885 909.11 223.885C909.357 223.885 909.565 223.817 909.735 223.683C909.906 223.545 910.035 223.356 910.123 223.114C910.212 222.871 910.257 222.59 910.257 222.273C910.257 221.958 910.214 221.681 910.126 221.442C910.038 221.203 909.909 221.016 909.739 220.881C909.569 220.746 909.359 220.678 909.11 220.678C908.864 220.678 908.656 220.743 908.485 220.874C908.317 221.004 908.188 221.188 908.098 221.428C908.008 221.667 907.963 221.948 907.963 222.273ZM913.88 219.545L914.881 221.452L915.907 219.545H917.459L915.879 222.273L917.502 225H915.957L914.881 223.114L913.823 225H912.26L913.88 222.273L912.317 219.545H913.88Z" fill="white"/>
<line x1="901.5" y1="192.5" x2="908.5" y2="192.5" stroke="#E8178A"/>
<line x1="901.5" y1="247.5" x2="908.5" y2="247.5" stroke="#E8178A"/>
</g>
</g>
<defs>
<clipPath id="clip0_296_60268">
<rect width="960" height="303" fill="white"/>
</clipPath>
<clipPath id="clip1_296_60268">
<rect width="960" height="120" fill="white"/>
</clipPath>
<clipPath id="clip2_296_60268">
<rect width="960" height="167" fill="white" transform="translate(0 136)"/>
</clipPath>
</defs>
</svg>
