<svg width="960" height="482" viewBox="0 0 960 482" fill="none" xmlns="http://www.w3.org/2000/svg"><rect width="479" height="224" transform="translate(0 16)" fill="#F1F1F6"/><g filter="url(#filter0_ddd_296_60609)"><rect width="412" height="64" transform="translate(33.5 96)" fill="#fff"/><g clip-path="url(#clip0_296_60609)"><path d="M52.5 134H70.5V132H52.5V134ZM52.5 129H70.5V127H52.5V129ZM52.5 122V124H70.5V122H52.5Z" fill="#252A2E"/></g><path d="M224.826 136H222.473V123.715H218.293V121.723H228.996V123.715H224.826V136ZM233.394 125.189V136H231.099V125.189H233.394ZM232.261 121.049C232.613 121.049 232.916 121.143 233.17 121.332C233.43 121.521 233.56 121.846 233.56 122.309C233.56 122.764 233.43 123.09 233.17 123.285C232.916 123.474 232.613 123.568 232.261 123.568C231.897 123.568 231.587 123.474 231.334 123.285C231.086 123.09 230.962 122.764 230.962 122.309C230.962 121.846 231.086 121.521 231.334 121.332C231.587 121.143 231.897 121.049 232.261 121.049ZM240.859 134.34C241.158 134.34 241.454 134.314 241.747 134.262C242.04 134.203 242.307 134.135 242.548 134.057V135.795C242.294 135.906 241.965 136 241.562 136.078C241.158 136.156 240.738 136.195 240.302 136.195C239.69 136.195 239.14 136.094 238.652 135.893C238.163 135.684 237.776 135.329 237.489 134.828C237.203 134.327 237.06 133.633 237.06 132.748V126.938H235.585V125.912L237.167 125.102L237.919 122.787H239.364V125.189H242.46V126.938H239.364V132.719C239.364 133.266 239.501 133.673 239.775 133.939C240.048 134.206 240.409 134.34 240.859 134.34ZM247.2 136H244.895V120.805H247.2V136ZM254.938 124.984C255.901 124.984 256.728 125.183 257.418 125.58C258.108 125.977 258.639 126.54 259.01 127.27C259.381 127.999 259.567 128.871 259.567 129.887V131.117H252.35C252.376 132.165 252.656 132.973 253.19 133.539C253.73 134.105 254.485 134.389 255.455 134.389C256.146 134.389 256.764 134.324 257.311 134.193C257.864 134.057 258.434 133.858 259.02 133.598V135.463C258.48 135.717 257.929 135.902 257.37 136.02C256.81 136.137 256.139 136.195 255.358 136.195C254.297 136.195 253.362 135.99 252.555 135.58C251.754 135.163 251.126 134.545 250.67 133.725C250.221 132.904 249.996 131.885 249.996 130.668C249.996 129.457 250.202 128.428 250.612 127.582C251.022 126.736 251.598 126.091 252.34 125.648C253.082 125.206 253.948 124.984 254.938 124.984ZM254.938 126.713C254.215 126.713 253.629 126.947 253.18 127.416C252.737 127.885 252.477 128.572 252.399 129.477H257.321C257.314 128.936 257.223 128.458 257.047 128.041C256.878 127.624 256.618 127.299 256.266 127.064C255.921 126.83 255.478 126.713 254.938 126.713Z" fill="#252A2E"/><path fill-rule="evenodd" clip-rule="evenodd" d="M406.94 128C406.94 122.175 411.685 117.44 417.505 117.44C423.325 117.44 428.065 122.175 428.065 128H428.06C428.06 133.82 423.325 138.56 417.5 138.56C411.675 138.56 406.94 133.825 406.94 128ZM410.878 133.127C411.35 132.118 412.537 131.754 413.493 131.461C413.744 131.384 413.979 131.312 414.18 131.235C414.455 131.13 414.715 131.03 414.935 130.92L415.035 130.87C414.46 129.905 414.04 128.685 413.795 127.835L414.665 127.83C414.665 127.83 414.685 127.915 414.72 127.995C415.11 129.2 416.015 131.57 416.975 131.51H418.025C418.81 131.57 419.825 129.3 420.275 128.02C420.32 127.9 420.35 127.835 420.35 127.835H421.205C420.96 128.68 420.5 129.885 419.915 130.845L420.065 130.92C420.285 131.03 420.545 131.13 420.82 131.235C421.019 131.311 421.251 131.382 421.498 131.457C422.454 131.749 423.648 132.114 424.123 133.128C425.221 131.711 425.875 129.932 425.875 128C425.875 123.375 422.125 119.625 417.5 119.625C412.875 119.625 409.125 123.375 409.13 128H409.125C409.125 129.932 409.779 131.71 410.878 133.127ZM418.815 121.37C418.558 121.261 418.129 121.162 417.515 121.16L417.5 121.155C416.875 121.155 416.435 121.25 416.18 121.365C416.17 121.77 416.17 123.155 416.505 124.175L416.285 124.26C416.265 124.22 415.855 123.25 415.66 121.84C415.61 121.94 415.59 122.01 415.59 122.01C413.935 123.015 413.815 124.905 413.815 124.905C413.815 124.905 413.565 125.185 413.525 125.29C413.485 125.395 413.46 126.245 413.46 126.245C413.44 126.67 413.715 126.735 413.715 126.735H414.595C414.695 126.96 414.915 127.085 415.015 127.085H419.985C420.085 127.085 420.31 126.96 420.41 126.735H421.285C421.285 126.735 421.56 126.67 421.535 126.25C421.535 126.25 421.51 125.4 421.47 125.295C421.43 125.19 421.18 124.91 421.18 124.91C421.18 124.91 421.055 123.015 419.405 122.015C419.405 122.015 419.385 121.94 419.335 121.845C419.145 123.255 418.73 124.225 418.71 124.265L418.49 124.18C418.825 123.16 418.825 121.775 418.815 121.37Z" fill="#252A2E"/></g><path d="M36.834 37.1895C36.3613 37.1895 35.9355 37.2715 35.5566 37.4355C35.1816 37.5957 34.8613 37.8301 34.5957 38.1387C34.334 38.4434 34.1328 38.8125 33.9922 39.2461C33.8516 39.6797 33.7812 40.168 33.7812 40.7109C33.7812 41.4297 33.8926 42.0547 34.1152 42.5859C34.3418 43.1133 34.6777 43.5215 35.123 43.8105C35.5723 44.0996 36.1328 44.2441 36.8047 44.2441C37.1875 44.2441 37.5469 44.2129 37.8828 44.1504C38.2227 44.084 38.5527 44.002 38.873 43.9043V44.7715C38.5605 44.8887 38.2324 44.9746 37.8887 45.0293C37.5449 45.0879 37.1367 45.1172 36.6641 45.1172C35.793 45.1172 35.0645 44.9375 34.4785 44.5781C33.8965 44.2148 33.459 43.7031 33.166 43.043C32.877 42.3828 32.7324 41.6035 32.7324 40.7051C32.7324 40.0566 32.8223 39.4648 33.002 38.9297C33.1855 38.3906 33.4512 37.9258 33.7988 37.5352C34.1504 37.1445 34.5801 36.8438 35.0879 36.6328C35.5996 36.418 36.1855 36.3105 36.8457 36.3105C37.2793 36.3105 37.6973 36.3535 38.0996 36.4395C38.502 36.5254 38.8652 36.6484 39.1895 36.8086L38.791 37.6523C38.5176 37.5273 38.2168 37.4199 37.8887 37.3301C37.5645 37.2363 37.2129 37.1895 36.834 37.1895ZM43.5566 38.4609C44.1035 38.4609 44.5723 38.582 44.9629 38.8242C45.3535 39.0664 45.6523 39.4062 45.8594 39.8438C46.0664 40.2773 46.1699 40.7852 46.1699 41.3672V41.9707H41.7344C41.7461 42.7246 41.9336 43.2988 42.2969 43.6934C42.6602 44.0879 43.1719 44.2852 43.832 44.2852C44.2383 44.2852 44.5977 44.248 44.9102 44.1738C45.2227 44.0996 45.5469 43.9902 45.8828 43.8457V44.7012C45.5586 44.8457 45.2363 44.9512 44.916 45.0176C44.5996 45.084 44.2246 45.1172 43.791 45.1172C43.1738 45.1172 42.6348 44.9922 42.1738 44.7422C41.7168 44.4883 41.3613 44.1172 41.1074 43.6289C40.8535 43.1406 40.7266 42.543 40.7266 41.8359C40.7266 41.1445 40.8418 40.5469 41.0723 40.043C41.3066 39.5352 41.6348 39.1445 42.0566 38.8711C42.4824 38.5977 42.9824 38.4609 43.5566 38.4609ZM43.5449 39.2578C43.0254 39.2578 42.6113 39.4277 42.3027 39.7676C41.9941 40.1074 41.8105 40.582 41.752 41.1914H45.1504C45.1465 40.8086 45.0859 40.4727 44.9688 40.1836C44.8555 39.8906 44.6816 39.6641 44.4473 39.5039C44.2129 39.3398 43.9121 39.2578 43.5449 39.2578ZM51.3633 38.4609C52.125 38.4609 52.7012 38.6484 53.0918 39.0234C53.4824 39.3945 53.6777 39.9922 53.6777 40.8164V45H52.7168V40.8809C52.7168 40.3457 52.5938 39.9453 52.3477 39.6797C52.1055 39.4141 51.7324 39.2812 51.2285 39.2812C50.5176 39.2812 50.0176 39.4824 49.7285 39.8848C49.4395 40.2871 49.2949 40.8711 49.2949 41.6367V45H48.3223V38.5781H49.1074L49.2539 39.5039H49.3066C49.4434 39.2773 49.6172 39.0879 49.8281 38.9355C50.0391 38.7793 50.2754 38.6621 50.5371 38.584C50.7988 38.502 51.0742 38.4609 51.3633 38.4609ZM58.2559 44.3203C58.416 44.3203 58.5801 44.3066 58.748 44.2793C58.916 44.252 59.0527 44.2188 59.1582 44.1797V44.9355C59.0449 44.9863 58.8867 45.0293 58.6836 45.0645C58.4844 45.0996 58.2891 45.1172 58.0977 45.1172C57.7578 45.1172 57.4492 45.0586 57.1719 44.9414C56.8945 44.8203 56.6719 44.6172 56.5039 44.332C56.3398 44.0469 56.2578 43.6523 56.2578 43.1484V39.3398H55.3438V38.8652L56.2637 38.4844L56.6504 37.0898H57.2363V38.5781H59.1172V39.3398H57.2363V43.1191C57.2363 43.5215 57.3281 43.8223 57.5117 44.0215C57.6992 44.2207 57.9473 44.3203 58.2559 44.3203ZM63.4316 38.4609C63.9785 38.4609 64.4473 38.582 64.8379 38.8242C65.2285 39.0664 65.5273 39.4062 65.7344 39.8438C65.9414 40.2773 66.0449 40.7852 66.0449 41.3672V41.9707H61.6094C61.6211 42.7246 61.8086 43.2988 62.1719 43.6934C62.5352 44.0879 63.0469 44.2852 63.707 44.2852C64.1133 44.2852 64.4727 44.248 64.7852 44.1738C65.0977 44.0996 65.4219 43.9902 65.7578 43.8457V44.7012C65.4336 44.8457 65.1113 44.9512 64.791 45.0176C64.4746 45.084 64.0996 45.1172 63.666 45.1172C63.0488 45.1172 62.5098 44.9922 62.0488 44.7422C61.5918 44.4883 61.2363 44.1172 60.9824 43.6289C60.7285 43.1406 60.6016 42.543 60.6016 41.8359C60.6016 41.1445 60.7168 40.5469 60.9473 40.043C61.1816 39.5352 61.5098 39.1445 61.9316 38.8711C62.3574 38.5977 62.8574 38.4609 63.4316 38.4609ZM63.4199 39.2578C62.9004 39.2578 62.4863 39.4277 62.1777 39.7676C61.8691 40.1074 61.6855 40.582 61.627 41.1914H65.0254C65.0215 40.8086 64.9609 40.4727 64.8438 40.1836C64.7305 39.8906 64.5566 39.6641 64.3223 39.5039C64.0879 39.3398 63.7871 39.2578 63.4199 39.2578ZM71.1152 38.4609C71.2441 38.4609 71.3789 38.4688 71.5195 38.4844C71.6602 38.4961 71.7852 38.5137 71.8945 38.5371L71.7715 39.4395C71.666 39.4121 71.5488 39.3906 71.4199 39.375C71.291 39.3594 71.1699 39.3516 71.0566 39.3516C70.7988 39.3516 70.5547 39.4043 70.3242 39.5098C70.0977 39.6113 69.8984 39.7598 69.7266 39.9551C69.5547 40.1465 69.4199 40.3789 69.3223 40.6523C69.2246 40.9219 69.1758 41.2227 69.1758 41.5547V45H68.1973V38.5781H69.0059L69.1113 39.7617H69.1523C69.2852 39.5234 69.4453 39.3066 69.6328 39.1113C69.8203 38.9121 70.0371 38.7539 70.2832 38.6367C70.5332 38.5195 70.8105 38.4609 71.1152 38.4609ZM82.7441 45L81.6895 42.2812H78.2559L77.207 45H76.1992L79.5508 36.3984H80.4473L83.7754 45H82.7441ZM81.3906 41.3965L80.3887 38.6953C80.3652 38.625 80.3262 38.5098 80.2715 38.3496C80.2207 38.1895 80.168 38.0234 80.1133 37.8516C80.0586 37.6797 80.0137 37.541 79.9785 37.4355C79.9395 37.5957 79.8965 37.7559 79.8496 37.916C79.8066 38.0723 79.7637 38.2188 79.7207 38.3555C79.6777 38.4883 79.6406 38.6016 79.6094 38.6953L78.5898 41.3965H81.3906ZM86.2969 45H85.3184V35.8828H86.2969V45ZM89.8262 38.5781V45H88.8535V38.5781H89.8262ZM89.3516 36.1758C89.5117 36.1758 89.6484 36.2285 89.7617 36.334C89.8789 36.4355 89.9375 36.5957 89.9375 36.8145C89.9375 37.0293 89.8789 37.1895 89.7617 37.2949C89.6484 37.4004 89.5117 37.4531 89.3516 37.4531C89.1836 37.4531 89.043 37.4004 88.9297 37.2949C88.8203 37.1895 88.7656 37.0293 88.7656 36.8145C88.7656 36.5957 88.8203 36.4355 88.9297 36.334C89.043 36.2285 89.1836 36.1758 89.3516 36.1758ZM94.1816 47.8828C93.3379 47.8828 92.6875 47.7246 92.2305 47.4082C91.7734 47.0957 91.5449 46.6562 91.5449 46.0898C91.5449 45.6875 91.6719 45.3438 91.9258 45.0586C92.1836 44.7734 92.5391 44.584 92.9922 44.4902C92.8242 44.4121 92.6797 44.2949 92.5586 44.1387C92.4414 43.9824 92.3828 43.8027 92.3828 43.5996C92.3828 43.3652 92.4473 43.1602 92.5762 42.9844C92.709 42.8047 92.9102 42.6328 93.1797 42.4688C92.8438 42.332 92.5703 42.1016 92.3594 41.7773C92.1523 41.4492 92.0488 41.0684 92.0488 40.6348C92.0488 40.1738 92.1445 39.7812 92.3359 39.457C92.5273 39.1289 92.8047 38.8789 93.168 38.707C93.5312 38.5352 93.9707 38.4492 94.4863 38.4492C94.5996 38.4492 94.7129 38.4551 94.8262 38.4668C94.9434 38.4746 95.0547 38.4883 95.1602 38.5078C95.2656 38.5234 95.3574 38.543 95.4355 38.5664H97.6387V39.1934L96.4551 39.3398C96.5723 39.4922 96.6699 39.6758 96.748 39.8906C96.8262 40.1055 96.8652 40.3438 96.8652 40.6055C96.8652 41.2461 96.6484 41.7559 96.2148 42.1348C95.7812 42.5098 95.1855 42.6973 94.4277 42.6973C94.248 42.6973 94.0645 42.6816 93.877 42.6504C93.6855 42.7559 93.5391 42.873 93.4375 43.002C93.3398 43.1309 93.291 43.2793 93.291 43.4473C93.291 43.5723 93.3281 43.6719 93.4023 43.7461C93.4805 43.8203 93.5918 43.875 93.7363 43.9102C93.8809 43.9414 94.0547 43.957 94.2578 43.957H95.3887C96.0879 43.957 96.623 44.1035 96.9941 44.3965C97.3691 44.6895 97.5566 45.1172 97.5566 45.6797C97.5566 46.3906 97.2676 46.9355 96.6895 47.3145C96.1113 47.6934 95.2754 47.8828 94.1816 47.8828ZM94.2109 47.1211C94.7422 47.1211 95.1816 47.0664 95.5293 46.957C95.8809 46.8516 96.1426 46.6973 96.3145 46.4941C96.4902 46.2949 96.5781 46.0566 96.5781 45.7793C96.5781 45.5215 96.5195 45.3262 96.4023 45.1934C96.2852 45.0645 96.1133 44.9785 95.8867 44.9355C95.6602 44.8887 95.3828 44.8652 95.0547 44.8652H93.9414C93.6523 44.8652 93.4004 44.9102 93.1855 45C92.9707 45.0898 92.8047 45.2227 92.6875 45.3984C92.5742 45.5742 92.5176 45.793 92.5176 46.0547C92.5176 46.4023 92.6641 46.666 92.957 46.8457C93.25 47.0293 93.668 47.1211 94.2109 47.1211ZM94.4629 41.9883C94.9277 41.9883 95.2773 41.8711 95.5117 41.6367C95.7461 41.4023 95.8633 41.0605 95.8633 40.6113C95.8633 40.1309 95.7441 39.7715 95.5059 39.5332C95.2676 39.291 94.916 39.1699 94.4512 39.1699C94.0059 39.1699 93.6621 39.2949 93.4199 39.5449C93.1816 39.791 93.0625 40.1523 93.0625 40.6289C93.0625 41.0664 93.1836 41.4023 93.4258 41.6367C93.668 41.8711 94.0137 41.9883 94.4629 41.9883ZM102.445 38.4609C103.207 38.4609 103.783 38.6484 104.174 39.0234C104.564 39.3945 104.76 39.9922 104.76 40.8164V45H103.799V40.8809C103.799 40.3457 103.676 39.9453 103.43 39.6797C103.188 39.4141 102.814 39.2812 102.311 39.2812C101.6 39.2812 101.1 39.4824 100.811 39.8848C100.521 40.2871 100.377 40.8711 100.377 41.6367V45H99.4043V38.5781H100.189L100.336 39.5039H100.389C100.525 39.2773 100.699 39.0879 100.91 38.9355C101.121 38.7793 101.357 38.6621 101.619 38.584C101.881 38.502 102.156 38.4609 102.445 38.4609ZM109.736 38.4609C110.283 38.4609 110.752 38.582 111.143 38.8242C111.533 39.0664 111.832 39.4062 112.039 39.8438C112.246 40.2773 112.35 40.7852 112.35 41.3672V41.9707H107.914C107.926 42.7246 108.113 43.2988 108.477 43.6934C108.84 44.0879 109.352 44.2852 110.012 44.2852C110.418 44.2852 110.777 44.248 111.09 44.1738C111.402 44.0996 111.727 43.9902 112.062 43.8457V44.7012C111.738 44.8457 111.416 44.9512 111.096 45.0176C110.779 45.084 110.404 45.1172 109.971 45.1172C109.354 45.1172 108.814 44.9922 108.354 44.7422C107.896 44.4883 107.541 44.1172 107.287 43.6289C107.033 43.1406 106.906 42.543 106.906 41.8359C106.906 41.1445 107.021 40.5469 107.252 40.043C107.486 39.5352 107.814 39.1445 108.236 38.8711C108.662 38.5977 109.162 38.4609 109.736 38.4609ZM109.725 39.2578C109.205 39.2578 108.791 39.4277 108.482 39.7676C108.174 40.1074 107.99 40.582 107.932 41.1914H111.33C111.326 40.8086 111.266 40.4727 111.148 40.1836C111.035 39.8906 110.861 39.6641 110.627 39.5039C110.393 39.3398 110.092 39.2578 109.725 39.2578ZM116.787 45.1172C115.975 45.1172 115.33 44.8398 114.854 44.2852C114.381 43.7305 114.145 42.9062 114.145 41.8125C114.145 40.707 114.387 39.873 114.871 39.3105C115.355 38.7441 116 38.4609 116.805 38.4609C117.145 38.4609 117.441 38.5059 117.695 38.5957C117.949 38.6855 118.168 38.8066 118.352 38.959C118.535 39.1074 118.689 39.2773 118.814 39.4688H118.885C118.869 39.3477 118.854 39.1816 118.838 38.9707C118.822 38.7598 118.814 38.5879 118.814 38.4551V35.8828H119.787V45H119.002L118.855 44.0859H118.814C118.693 44.2773 118.539 44.4512 118.352 44.6074C118.168 44.7637 117.947 44.8887 117.689 44.9824C117.436 45.0723 117.135 45.1172 116.787 45.1172ZM116.939 44.3086C117.627 44.3086 118.113 44.1133 118.398 43.7227C118.684 43.332 118.826 42.752 118.826 41.9824V41.8066C118.826 40.9902 118.689 40.3633 118.416 39.9258C118.146 39.4883 117.654 39.2695 116.939 39.2695C116.342 39.2695 115.895 39.5 115.598 39.9609C115.301 40.418 115.152 41.043 115.152 41.8359C115.152 42.625 115.299 43.2344 115.592 43.6641C115.889 44.0938 116.338 44.3086 116.939 44.3086ZM132.811 45H131.662L126.992 37.8047H126.945C126.957 37.9961 126.971 38.2148 126.986 38.4609C127.002 38.7031 127.014 38.9629 127.021 39.2402C127.033 39.5137 127.039 39.793 127.039 40.0781V45H126.113V36.4336H127.256L131.908 43.6055H131.949C131.941 43.4688 131.932 43.2754 131.92 43.0254C131.908 42.7715 131.896 42.5 131.885 42.2109C131.877 41.918 131.873 41.6465 131.873 41.3965V36.4336H132.811V45ZM137.904 38.4727C138.67 38.4727 139.238 38.6445 139.609 38.9883C139.98 39.332 140.166 39.8809 140.166 40.6348V45H139.457L139.27 44.0508H139.223C139.043 44.2852 138.855 44.4824 138.66 44.6426C138.465 44.7988 138.238 44.918 137.98 45C137.727 45.0781 137.414 45.1172 137.043 45.1172C136.652 45.1172 136.305 45.0488 136 44.9121C135.699 44.7754 135.461 44.5684 135.285 44.291C135.113 44.0137 135.027 43.6621 135.027 43.2363C135.027 42.5957 135.281 42.1035 135.789 41.7598C136.297 41.416 137.07 41.2285 138.109 41.1973L139.217 41.1504V40.7578C139.217 40.2031 139.098 39.8145 138.859 39.5918C138.621 39.3691 138.285 39.2578 137.852 39.2578C137.516 39.2578 137.195 39.3066 136.891 39.4043C136.586 39.502 136.297 39.6172 136.023 39.75L135.725 39.0117C136.014 38.8633 136.346 38.7363 136.721 38.6309C137.096 38.5254 137.49 38.4727 137.904 38.4727ZM139.205 41.8359L138.227 41.877C137.426 41.9082 136.861 42.0391 136.533 42.2695C136.205 42.5 136.041 42.8262 136.041 43.248C136.041 43.6152 136.152 43.8867 136.375 44.0625C136.598 44.2383 136.893 44.3262 137.26 44.3262C137.83 44.3262 138.297 44.168 138.66 43.8516C139.023 43.5352 139.205 43.0605 139.205 42.4277V41.8359ZM144.082 45L141.645 38.5781H142.688L144.1 42.4629C144.197 42.7285 144.297 43.0215 144.398 43.3418C144.5 43.6621 144.57 43.9199 144.609 44.1152H144.65C144.697 43.9199 144.775 43.6621 144.885 43.3418C144.994 43.0176 145.094 42.7246 145.184 42.4629L146.596 38.5781H147.639L145.195 45H144.082ZM152.934 36.4336H155.359C156.43 36.4336 157.234 36.5938 157.773 36.9141C158.312 37.2344 158.582 37.7793 158.582 38.5488C158.582 38.8809 158.518 39.1797 158.389 39.4453C158.264 39.707 158.08 39.9238 157.838 40.0957C157.596 40.2676 157.297 40.3867 156.941 40.4531V40.5117C157.316 40.5703 157.648 40.6777 157.938 40.834C158.227 40.9902 158.453 41.209 158.617 41.4902C158.781 41.7715 158.863 42.1289 158.863 42.5625C158.863 43.0898 158.74 43.5352 158.494 43.8984C158.252 44.2617 157.908 44.5371 157.463 44.7246C157.018 44.9082 156.49 45 155.881 45H152.934V36.4336ZM153.93 40.1074H155.57C156.316 40.1074 156.832 39.9844 157.117 39.7383C157.406 39.4922 157.551 39.1328 157.551 38.6602C157.551 38.1719 157.379 37.8203 157.035 37.6055C156.695 37.3906 156.152 37.2832 155.406 37.2832H153.93V40.1074ZM153.93 40.9453V44.1504H155.711C156.473 44.1504 157.012 44.002 157.328 43.7051C157.645 43.4043 157.803 43 157.803 42.4922C157.803 42.168 157.73 41.8906 157.586 41.6602C157.445 41.4297 157.215 41.2539 156.895 41.1328C156.578 41.0078 156.154 40.9453 155.623 40.9453H153.93ZM163.447 38.4727C164.213 38.4727 164.781 38.6445 165.152 38.9883C165.523 39.332 165.709 39.8809 165.709 40.6348V45H165L164.812 44.0508H164.766C164.586 44.2852 164.398 44.4824 164.203 44.6426C164.008 44.7988 163.781 44.918 163.523 45C163.27 45.0781 162.957 45.1172 162.586 45.1172C162.195 45.1172 161.848 45.0488 161.543 44.9121C161.242 44.7754 161.004 44.5684 160.828 44.291C160.656 44.0137 160.57 43.6621 160.57 43.2363C160.57 42.5957 160.824 42.1035 161.332 41.7598C161.84 41.416 162.613 41.2285 163.652 41.1973L164.76 41.1504V40.7578C164.76 40.2031 164.641 39.8145 164.402 39.5918C164.164 39.3691 163.828 39.2578 163.395 39.2578C163.059 39.2578 162.738 39.3066 162.434 39.4043C162.129 39.502 161.84 39.6172 161.566 39.75L161.268 39.0117C161.557 38.8633 161.889 38.7363 162.264 38.6309C162.639 38.5254 163.033 38.4727 163.447 38.4727ZM164.748 41.8359L163.77 41.877C162.969 41.9082 162.404 42.0391 162.076 42.2695C161.748 42.5 161.584 42.8262 161.584 43.248C161.584 43.6152 161.695 43.8867 161.918 44.0625C162.141 44.2383 162.436 44.3262 162.803 44.3262C163.373 44.3262 163.84 44.168 164.203 43.8516C164.566 43.5352 164.748 43.0605 164.748 42.4277V41.8359ZM171.131 38.4609C171.26 38.4609 171.395 38.4688 171.535 38.4844C171.676 38.4961 171.801 38.5137 171.91 38.5371L171.787 39.4395C171.682 39.4121 171.564 39.3906 171.436 39.375C171.307 39.3594 171.186 39.3516 171.072 39.3516C170.814 39.3516 170.57 39.4043 170.34 39.5098C170.113 39.6113 169.914 39.7598 169.742 39.9551C169.57 40.1465 169.436 40.3789 169.338 40.6523C169.24 40.9219 169.191 41.2227 169.191 41.5547V45H168.213V38.5781H169.021L169.127 39.7617H169.168C169.301 39.5234 169.461 39.3066 169.648 39.1113C169.836 38.9121 170.053 38.7539 170.299 38.6367C170.549 38.5195 170.826 38.4609 171.131 38.4609Z" fill="#585C65"/><rect width="479" height="224" transform="translate(481 16)" fill="#F1F1F6"/><g filter="url(#filter1_ddd_296_60609)"><rect width="412" height="64" transform="translate(514.5 96)" fill="#fff"/><g clip-path="url(#clip1_296_60609)"><path d="M550.5 127H538.33L543.92 121.41L542.5 120L534.5 128L542.5 136L543.91 134.59L538.33 129H550.5V127Z" fill="#252A2E"/></g><path d="M581.326 136H578.973V123.715H574.793V121.723H585.496V123.715H581.326V136ZM589.894 125.189V136H587.599V125.189H589.894ZM588.761 121.049C589.113 121.049 589.416 121.143 589.67 121.332C589.93 121.521 590.06 121.846 590.06 122.309C590.06 122.764 589.93 123.09 589.67 123.285C589.416 123.474 589.113 123.568 588.761 123.568C588.397 123.568 588.087 123.474 587.834 123.285C587.586 123.09 587.462 122.764 587.462 122.309C587.462 121.846 587.586 121.521 587.834 121.332C588.087 121.143 588.397 121.049 588.761 121.049ZM597.359 134.34C597.658 134.34 597.954 134.314 598.247 134.262C598.54 134.203 598.807 134.135 599.048 134.057V135.795C598.794 135.906 598.465 136 598.062 136.078C597.658 136.156 597.238 136.195 596.802 136.195C596.19 136.195 595.64 136.094 595.152 135.893C594.663 135.684 594.276 135.329 593.989 134.828C593.703 134.327 593.56 133.633 593.56 132.748V126.938H592.085V125.912L593.667 125.102L594.419 122.787H595.864V125.189H598.96V126.938H595.864V132.719C595.864 133.266 596.001 133.673 596.275 133.939C596.548 134.206 596.909 134.34 597.359 134.34ZM603.7 136H601.395V120.805H603.7V136ZM611.438 124.984C612.401 124.984 613.228 125.183 613.918 125.58C614.608 125.977 615.139 126.54 615.51 127.27C615.881 127.999 616.067 128.871 616.067 129.887V131.117H608.85C608.876 132.165 609.156 132.973 609.69 133.539C610.23 134.105 610.985 134.389 611.955 134.389C612.646 134.389 613.264 134.324 613.811 134.193C614.364 134.057 614.934 133.858 615.52 133.598V135.463C614.98 135.717 614.429 135.902 613.87 136.02C613.31 136.137 612.639 136.195 611.858 136.195C610.797 136.195 609.862 135.99 609.055 135.58C608.254 135.163 607.626 134.545 607.17 133.725C606.721 132.904 606.496 131.885 606.496 130.668C606.496 129.457 606.702 128.428 607.112 127.582C607.522 126.736 608.098 126.091 608.84 125.648C609.582 125.206 610.448 124.984 611.438 124.984ZM611.438 126.713C610.715 126.713 610.129 126.947 609.68 127.416C609.237 127.885 608.977 128.572 608.899 129.477H613.821C613.814 128.936 613.723 128.458 613.547 128.041C613.378 127.624 613.118 127.299 612.766 127.064C612.421 126.83 611.978 126.713 611.438 126.713Z" fill="#252A2E"/><path d="M802.5 138C803.6 138 804.5 137.1 804.5 136H800.5C800.5 137.1 801.39 138 802.5 138ZM808.5 132V127C808.5 123.93 806.86 121.36 804 120.68V120C804 119.17 803.33 118.5 802.5 118.5C801.67 118.5 801 119.17 801 120V120.68C798.13 121.36 796.5 123.92 796.5 127V132L794.5 134V135H810.5V134L808.5 132Z" fill="#363545"/><g clip-path="url(#clip2_296_60609)"><path d="M857.5 120H856.5V119C856.5 118.45 856.05 118 855.5 118C854.95 118 854.5 118.45 854.5 119V120H846.5V119C846.5 118.45 846.05 118 845.5 118C844.95 118 844.5 118.45 844.5 119V120H843.5C842.39 120 841.51 120.9 841.51 122L841.5 136C841.5 137.1 842.39 138 843.5 138H857.5C858.6 138 859.5 137.1 859.5 136V122C859.5 120.9 858.6 120 857.5 120ZM857.5 135C857.5 135.55 857.05 136 856.5 136H844.5C843.95 136 843.5 135.55 843.5 135V125H857.5V135ZM845.5 127H847.5V129H845.5V127ZM849.5 127H851.5V129H849.5V127ZM853.5 127H855.5V129H853.5V127Z" fill="#252A2E"/></g><g clip-path="url(#clip3_296_60609)"><path d="M898.5 124C899.6 124 900.5 123.1 900.5 122C900.5 120.9 899.6 120 898.5 120C897.4 120 896.5 120.9 896.5 122C896.5 123.1 897.4 124 898.5 124ZM898.5 126C897.4 126 896.5 126.9 896.5 128C896.5 129.1 897.4 130 898.5 130C899.6 130 900.5 129.1 900.5 128C900.5 126.9 899.6 126 898.5 126ZM898.5 132C897.4 132 896.5 132.9 896.5 134C896.5 135.1 897.4 136 898.5 136C899.6 136 900.5 135.1 900.5 134C900.5 132.9 899.6 132 898.5 132Z" fill="#252A2E"/></g></g><path d="M520.869 45H519.732L515.051 37.8105H515.004C515.066 38.6543 515.098 39.4277 515.098 40.1309V45H514.178V36.4336H515.303L519.973 43.5938H520.02C520.012 43.4883 519.994 43.1504 519.967 42.5801C519.939 42.0059 519.93 41.5957 519.938 41.3496V36.4336H520.869V45ZM527.527 45L527.334 44.0859H527.287C526.967 44.4883 526.646 44.7617 526.326 44.9062C526.01 45.0469 525.613 45.1172 525.137 45.1172C524.5 45.1172 524 44.9531 523.637 44.625C523.277 44.2969 523.098 43.8301 523.098 43.2246C523.098 41.9277 524.135 41.248 526.209 41.1855L527.299 41.1504V40.752C527.299 40.248 527.189 39.877 526.971 39.6387C526.756 39.3965 526.41 39.2754 525.934 39.2754C525.398 39.2754 524.793 39.4395 524.117 39.7676L523.818 39.0234C524.135 38.8516 524.48 38.7168 524.855 38.6191C525.234 38.5215 525.613 38.4727 525.992 38.4727C526.758 38.4727 527.324 38.6426 527.691 38.9824C528.062 39.3223 528.248 39.8672 528.248 40.6172V45H527.527ZM525.33 44.3145C525.936 44.3145 526.41 44.1484 526.754 43.8164C527.102 43.4844 527.275 43.0195 527.275 42.4219V41.8418L526.303 41.8828C525.529 41.9102 524.971 42.0312 524.627 42.2461C524.287 42.457 524.117 42.7871 524.117 43.2363C524.117 43.5879 524.223 43.8555 524.434 44.0391C524.648 44.2227 524.947 44.3145 525.33 44.3145ZM532.164 45L529.727 38.5781H530.77L532.152 42.3867C532.465 43.2773 532.648 43.8555 532.703 44.1211H532.75C532.793 43.9141 532.928 43.4863 533.154 42.8379C533.385 42.1855 533.898 40.7656 534.695 38.5781H535.738L533.301 45H532.164ZM541.033 36.4336H543.453C544.59 36.4336 545.412 36.6035 545.92 36.9434C546.428 37.2832 546.682 37.8203 546.682 38.5547C546.682 39.0625 546.539 39.4824 546.254 39.8145C545.973 40.1426 545.561 40.3555 545.018 40.4531V40.5117C546.318 40.7344 546.969 41.418 546.969 42.5625C546.969 43.3281 546.709 43.9258 546.189 44.3555C545.674 44.7852 544.951 45 544.021 45H541.033V36.4336ZM542.029 40.1016H543.67C544.373 40.1016 544.879 39.9922 545.188 39.7734C545.496 39.5508 545.65 39.1777 545.65 38.6543C545.65 38.1738 545.479 37.8281 545.135 37.6172C544.791 37.4023 544.244 37.2949 543.494 37.2949H542.029V40.1016ZM542.029 40.9453V44.1504H543.816C544.508 44.1504 545.027 44.0176 545.375 43.752C545.727 43.4824 545.902 43.0625 545.902 42.4922C545.902 41.9609 545.723 41.5703 545.363 41.3203C545.008 41.0703 544.465 40.9453 543.734 40.9453H542.029ZM553.117 45L552.924 44.0859H552.877C552.557 44.4883 552.236 44.7617 551.916 44.9062C551.6 45.0469 551.203 45.1172 550.727 45.1172C550.09 45.1172 549.59 44.9531 549.227 44.625C548.867 44.2969 548.688 43.8301 548.688 43.2246C548.688 41.9277 549.725 41.248 551.799 41.1855L552.889 41.1504V40.752C552.889 40.248 552.779 39.877 552.561 39.6387C552.346 39.3965 552 39.2754 551.523 39.2754C550.988 39.2754 550.383 39.4395 549.707 39.7676L549.408 39.0234C549.725 38.8516 550.07 38.7168 550.445 38.6191C550.824 38.5215 551.203 38.4727 551.582 38.4727C552.348 38.4727 552.914 38.6426 553.281 38.9824C553.652 39.3223 553.838 39.8672 553.838 40.6172V45H553.117ZM550.92 44.3145C551.525 44.3145 552 44.1484 552.344 43.8164C552.691 43.4844 552.865 43.0195 552.865 42.4219V41.8418L551.893 41.8828C551.119 41.9102 550.561 42.0312 550.217 42.2461C549.877 42.457 549.707 42.7871 549.707 43.2363C549.707 43.5879 549.812 43.8555 550.023 44.0391C550.238 44.2227 550.537 44.3145 550.92 44.3145ZM559.277 38.4609C559.562 38.4609 559.818 38.4844 560.045 38.5312L559.91 39.4336C559.645 39.375 559.41 39.3457 559.207 39.3457C558.688 39.3457 558.242 39.5566 557.871 39.9785C557.504 40.4004 557.32 40.9258 557.32 41.5547V45H556.348V38.5781H557.15L557.262 39.7676H557.309C557.547 39.3496 557.834 39.0273 558.17 38.8008C558.506 38.5742 558.875 38.4609 559.277 38.4609ZM570.607 45L569.43 41.2324C569.355 41.002 569.217 40.4785 569.014 39.6621H568.967C568.811 40.3457 568.674 40.873 568.557 41.2441L567.344 45H566.219L564.467 38.5781H565.486C565.9 40.1914 566.215 41.4199 566.43 42.2637C566.648 43.1074 566.773 43.6758 566.805 43.9688H566.852C566.895 43.7461 566.963 43.459 567.057 43.1074C567.154 42.752 567.238 42.4707 567.309 42.2637L568.486 38.5781H569.541L570.689 42.2637C570.908 42.9355 571.057 43.5 571.135 43.957H571.182C571.197 43.8164 571.238 43.5996 571.305 43.3066C571.375 43.0137 571.783 41.4375 572.529 38.5781H573.537L571.762 45H570.607ZM576.176 45H575.203V38.5781H576.176V45ZM575.121 36.8379C575.121 36.6152 575.176 36.4531 575.285 36.3516C575.395 36.2461 575.531 36.1934 575.695 36.1934C575.852 36.1934 575.986 36.2461 576.1 36.3516C576.213 36.457 576.27 36.6191 576.27 36.8379C576.27 37.0566 576.213 37.2207 576.1 37.3301C575.986 37.4355 575.852 37.4883 575.695 37.4883C575.531 37.4883 575.395 37.4355 575.285 37.3301C575.176 37.2207 575.121 37.0566 575.121 36.8379ZM580.812 44.3145C580.984 44.3145 581.15 44.3027 581.311 44.2793C581.471 44.252 581.598 44.2246 581.691 44.1973V44.9414C581.586 44.9922 581.43 45.0332 581.223 45.0645C581.02 45.0996 580.836 45.1172 580.672 45.1172C579.43 45.1172 578.809 44.4629 578.809 43.1543V39.334H577.889V38.8652L578.809 38.4609L579.219 37.0898H579.781V38.5781H581.645V39.334H579.781V43.1133C579.781 43.5 579.873 43.7969 580.057 44.0039C580.24 44.2109 580.492 44.3145 580.812 44.3145ZM587.875 45V40.8457C587.875 40.3223 587.756 39.9316 587.518 39.6738C587.279 39.416 586.906 39.2871 586.398 39.2871C585.723 39.2871 585.229 39.4707 584.916 39.8379C584.607 40.2051 584.453 40.8066 584.453 41.6426V45H583.48V35.8828H584.453V38.6426C584.453 38.9746 584.438 39.25 584.406 39.4688H584.465C584.656 39.1602 584.928 38.918 585.279 38.7422C585.635 38.5625 586.039 38.4727 586.492 38.4727C587.277 38.4727 587.865 38.6602 588.256 39.0352C588.65 39.4062 588.848 39.998 588.848 40.8105V45H587.875ZM595.115 45V36.4336H596.111V44.0977H599.891V45H595.115ZM604.416 45.1172C603.467 45.1172 602.717 44.8281 602.166 44.25C601.619 43.6719 601.346 42.8691 601.346 41.8418C601.346 40.8066 601.6 39.9844 602.107 39.375C602.619 38.7656 603.305 38.4609 604.164 38.4609C604.969 38.4609 605.605 38.7266 606.074 39.2578C606.543 39.7852 606.777 40.4824 606.777 41.3496V41.9648H602.354C602.373 42.7188 602.562 43.291 602.922 43.6816C603.285 44.0723 603.795 44.2676 604.451 44.2676C605.143 44.2676 605.826 44.123 606.502 43.834V44.7012C606.158 44.8496 605.832 44.9551 605.523 45.0176C605.219 45.084 604.85 45.1172 604.416 45.1172ZM604.152 39.2754C603.637 39.2754 603.225 39.4434 602.916 39.7793C602.611 40.1152 602.432 40.5801 602.377 41.1738H605.734C605.734 40.5605 605.598 40.0918 605.324 39.7676C605.051 39.4395 604.66 39.2754 604.152 39.2754ZM612.891 45L612.697 44.0859H612.65C612.33 44.4883 612.01 44.7617 611.689 44.9062C611.373 45.0469 610.977 45.1172 610.5 45.1172C609.863 45.1172 609.363 44.9531 609 44.625C608.641 44.2969 608.461 43.8301 608.461 43.2246C608.461 41.9277 609.498 41.248 611.572 41.1855L612.662 41.1504V40.752C612.662 40.248 612.553 39.877 612.334 39.6387C612.119 39.3965 611.773 39.2754 611.297 39.2754C610.762 39.2754 610.156 39.4395 609.48 39.7676L609.182 39.0234C609.498 38.8516 609.844 38.7168 610.219 38.6191C610.598 38.5215 610.977 38.4727 611.355 38.4727C612.121 38.4727 612.688 38.6426 613.055 38.9824C613.426 39.3223 613.611 39.8672 613.611 40.6172V45H612.891ZM610.693 44.3145C611.299 44.3145 611.773 44.1484 612.117 43.8164C612.465 43.4844 612.639 43.0195 612.639 42.4219V41.8418L611.666 41.8828C610.893 41.9102 610.334 42.0312 609.99 42.2461C609.65 42.457 609.48 42.7871 609.48 43.2363C609.48 43.5879 609.586 43.8555 609.797 44.0391C610.012 44.2227 610.311 44.3145 610.693 44.3145ZM620.492 44.1387H620.439C619.99 44.791 619.318 45.1172 618.424 45.1172C617.584 45.1172 616.93 44.8301 616.461 44.2559C615.996 43.6816 615.764 42.8652 615.764 41.8066C615.764 40.748 615.998 39.9258 616.467 39.3398C616.936 38.7539 617.588 38.4609 618.424 38.4609C619.295 38.4609 619.963 38.7773 620.428 39.4102H620.504L620.463 38.9473L620.439 38.4961V35.8828H621.412V45H620.621L620.492 44.1387ZM618.547 44.3027C619.211 44.3027 619.691 44.123 619.988 43.7637C620.289 43.4004 620.439 42.8164 620.439 42.0117V41.8066C620.439 40.8965 620.287 40.248 619.982 39.8613C619.682 39.4707 619.199 39.2754 618.535 39.2754C617.965 39.2754 617.527 39.498 617.223 39.9434C616.922 40.3848 616.771 41.0098 616.771 41.8184C616.771 42.6387 616.922 43.2578 617.223 43.6758C617.523 44.0938 617.965 44.3027 618.547 44.3027ZM624.953 45H623.98V38.5781H624.953V45ZM623.898 36.8379C623.898 36.6152 623.953 36.4531 624.062 36.3516C624.172 36.2461 624.309 36.1934 624.473 36.1934C624.629 36.1934 624.764 36.2461 624.877 36.3516C624.99 36.457 625.047 36.6191 625.047 36.8379C625.047 37.0566 624.99 37.2207 624.877 37.3301C624.764 37.4355 624.629 37.4883 624.473 37.4883C624.309 37.4883 624.172 37.4355 624.062 37.3301C623.953 37.2207 623.898 37.0566 623.898 36.8379ZM631.91 45V40.8457C631.91 40.3223 631.791 39.9316 631.553 39.6738C631.314 39.416 630.941 39.2871 630.434 39.2871C629.762 39.2871 629.27 39.4688 628.957 39.832C628.645 40.1953 628.488 40.7949 628.488 41.6309V45H627.516V38.5781H628.307L628.465 39.457H628.512C628.711 39.1406 628.99 38.8965 629.35 38.7246C629.709 38.5488 630.109 38.4609 630.551 38.4609C631.324 38.4609 631.906 38.6484 632.297 39.0234C632.688 39.3945 632.883 39.9902 632.883 40.8105V45H631.91ZM640.643 38.5781V39.1934L639.453 39.334C639.562 39.4707 639.66 39.6504 639.746 39.873C639.832 40.0918 639.875 40.3398 639.875 40.6172C639.875 41.2461 639.66 41.748 639.23 42.123C638.801 42.498 638.211 42.6855 637.461 42.6855C637.27 42.6855 637.09 42.6699 636.922 42.6387C636.508 42.8574 636.301 43.1328 636.301 43.4648C636.301 43.6406 636.373 43.7715 636.518 43.8574C636.662 43.9395 636.91 43.9805 637.262 43.9805H638.398C639.094 43.9805 639.627 44.127 639.998 44.4199C640.373 44.7129 640.561 45.1387 640.561 45.6973C640.561 46.4082 640.275 46.9492 639.705 47.3203C639.135 47.6953 638.303 47.8828 637.209 47.8828C636.369 47.8828 635.721 47.7266 635.264 47.4141C634.811 47.1016 634.584 46.6602 634.584 46.0898C634.584 45.6992 634.709 45.3613 634.959 45.0762C635.209 44.791 635.561 44.5977 636.014 44.4961C635.85 44.4219 635.711 44.3066 635.598 44.1504C635.488 43.9941 635.434 43.8125 635.434 43.6055C635.434 43.3711 635.496 43.166 635.621 42.9902C635.746 42.8145 635.943 42.6445 636.213 42.4805C635.881 42.3438 635.609 42.1113 635.398 41.7832C635.191 41.4551 635.088 41.0801 635.088 40.6582C635.088 39.9551 635.299 39.4141 635.721 39.0352C636.143 38.6523 636.74 38.4609 637.514 38.4609C637.85 38.4609 638.152 38.5 638.422 38.5781H640.643ZM635.521 46.0781C635.521 46.4258 635.668 46.6895 635.961 46.8691C636.254 47.0488 636.674 47.1387 637.221 47.1387C638.037 47.1387 638.641 47.0156 639.031 46.7695C639.426 46.5273 639.623 46.1973 639.623 45.7793C639.623 45.4316 639.516 45.1895 639.301 45.0527C639.086 44.9199 638.682 44.8535 638.088 44.8535H636.922C636.48 44.8535 636.137 44.959 635.891 45.1699C635.645 45.3809 635.521 45.6836 635.521 46.0781ZM636.049 40.6348C636.049 41.084 636.176 41.4238 636.43 41.6543C636.684 41.8848 637.037 42 637.49 42C638.439 42 638.914 41.5391 638.914 40.6172C638.914 39.6523 638.434 39.1699 637.473 39.1699C637.016 39.1699 636.664 39.293 636.418 39.5391C636.172 39.7852 636.049 40.1504 636.049 40.6348ZM650.027 45L649.834 44.0859H649.787C649.467 44.4883 649.146 44.7617 648.826 44.9062C648.51 45.0469 648.113 45.1172 647.637 45.1172C647 45.1172 646.5 44.9531 646.137 44.625C645.777 44.2969 645.598 43.8301 645.598 43.2246C645.598 41.9277 646.635 41.248 648.709 41.1855L649.799 41.1504V40.752C649.799 40.248 649.689 39.877 649.471 39.6387C649.256 39.3965 648.91 39.2754 648.434 39.2754C647.898 39.2754 647.293 39.4395 646.617 39.7676L646.318 39.0234C646.635 38.8516 646.98 38.7168 647.355 38.6191C647.734 38.5215 648.113 38.4727 648.492 38.4727C649.258 38.4727 649.824 38.6426 650.191 38.9824C650.562 39.3223 650.748 39.8672 650.748 40.6172V45H650.027ZM647.83 44.3145C648.436 44.3145 648.91 44.1484 649.254 43.8164C649.602 43.4844 649.775 43.0195 649.775 42.4219V41.8418L648.803 41.8828C648.029 41.9102 647.471 42.0312 647.127 42.2461C646.787 42.457 646.617 42.7871 646.617 43.2363C646.617 43.5879 646.723 43.8555 646.934 44.0391C647.148 44.2227 647.447 44.3145 647.83 44.3145ZM657.652 45V40.8457C657.652 40.3223 657.533 39.9316 657.295 39.6738C657.057 39.416 656.684 39.2871 656.176 39.2871C655.504 39.2871 655.012 39.4688 654.699 39.832C654.387 40.1953 654.23 40.7949 654.23 41.6309V45H653.258V38.5781H654.049L654.207 39.457H654.254C654.453 39.1406 654.732 38.8965 655.092 38.7246C655.451 38.5488 655.852 38.4609 656.293 38.4609C657.066 38.4609 657.648 38.6484 658.039 39.0234C658.43 39.3945 658.625 39.9902 658.625 40.8105V45H657.652ZM665.5 44.1387H665.447C664.998 44.791 664.326 45.1172 663.432 45.1172C662.592 45.1172 661.938 44.8301 661.469 44.2559C661.004 43.6816 660.771 42.8652 660.771 41.8066C660.771 40.748 661.006 39.9258 661.475 39.3398C661.943 38.7539 662.596 38.4609 663.432 38.4609C664.303 38.4609 664.971 38.7773 665.436 39.4102H665.512L665.471 38.9473L665.447 38.4961V35.8828H666.42V45H665.629L665.5 44.1387ZM663.555 44.3027C664.219 44.3027 664.699 44.123 664.996 43.7637C665.297 43.4004 665.447 42.8164 665.447 42.0117V41.8066C665.447 40.8965 665.295 40.248 664.99 39.8613C664.689 39.4707 664.207 39.2754 663.543 39.2754C662.973 39.2754 662.535 39.498 662.23 39.9434C661.93 40.3848 661.779 41.0098 661.779 41.8184C661.779 42.6387 661.93 43.2578 662.23 43.6758C662.531 44.0938 662.973 44.3027 663.555 44.3027ZM675.389 45H674.393V37.3184H671.68V36.4336H678.102V37.3184H675.389V45ZM682.68 38.4609C682.965 38.4609 683.221 38.4844 683.447 38.5312L683.312 39.4336C683.047 39.375 682.812 39.3457 682.609 39.3457C682.09 39.3457 681.645 39.5566 681.273 39.9785C680.906 40.4004 680.723 40.9258 680.723 41.5547V45H679.75V38.5781H680.553L680.664 39.7676H680.711C680.949 39.3496 681.236 39.0273 681.572 38.8008C681.908 38.5742 682.277 38.4609 682.68 38.4609ZM689.098 45L688.904 44.0859H688.857C688.537 44.4883 688.217 44.7617 687.896 44.9062C687.58 45.0469 687.184 45.1172 686.707 45.1172C686.07 45.1172 685.57 44.9531 685.207 44.625C684.848 44.2969 684.668 43.8301 684.668 43.2246C684.668 41.9277 685.705 41.248 687.779 41.1855L688.869 41.1504V40.752C688.869 40.248 688.76 39.877 688.541 39.6387C688.326 39.3965 687.98 39.2754 687.504 39.2754C686.969 39.2754 686.363 39.4395 685.688 39.7676L685.389 39.0234C685.705 38.8516 686.051 38.7168 686.426 38.6191C686.805 38.5215 687.184 38.4727 687.562 38.4727C688.328 38.4727 688.895 38.6426 689.262 38.9824C689.633 39.3223 689.818 39.8672 689.818 40.6172V45H689.098ZM686.9 44.3145C687.506 44.3145 687.98 44.1484 688.324 43.8164C688.672 43.4844 688.846 43.0195 688.846 42.4219V41.8418L687.873 41.8828C687.1 41.9102 686.541 42.0312 686.197 42.2461C685.857 42.457 685.688 42.7871 685.688 43.2363C685.688 43.5879 685.793 43.8555 686.004 44.0391C686.219 44.2227 686.518 44.3145 686.9 44.3145ZM693.301 45H692.328V38.5781H693.301V45ZM692.246 36.8379C692.246 36.6152 692.301 36.4531 692.41 36.3516C692.52 36.2461 692.656 36.1934 692.82 36.1934C692.977 36.1934 693.111 36.2461 693.225 36.3516C693.338 36.457 693.395 36.6191 693.395 36.8379C693.395 37.0566 693.338 37.2207 693.225 37.3301C693.111 37.4355 692.977 37.4883 692.82 37.4883C692.656 37.4883 692.52 37.4355 692.41 37.3301C692.301 37.2207 692.246 37.0566 692.246 36.8379ZM696.836 45H695.863V35.8828H696.836V45ZM700.371 45H699.398V38.5781H700.371V45ZM699.316 36.8379C699.316 36.6152 699.371 36.4531 699.48 36.3516C699.59 36.2461 699.727 36.1934 699.891 36.1934C700.047 36.1934 700.182 36.2461 700.295 36.3516C700.408 36.457 700.465 36.6191 700.465 36.8379C700.465 37.0566 700.408 37.2207 700.295 37.3301C700.182 37.4355 700.047 37.4883 699.891 37.4883C699.727 37.4883 699.59 37.4355 699.48 37.3301C699.371 37.2207 699.316 37.0566 699.316 36.8379ZM707.328 45V40.8457C707.328 40.3223 707.209 39.9316 706.971 39.6738C706.732 39.416 706.359 39.2871 705.852 39.2871C705.18 39.2871 704.688 39.4688 704.375 39.832C704.062 40.1953 703.906 40.7949 703.906 41.6309V45H702.934V38.5781H703.725L703.883 39.457H703.93C704.129 39.1406 704.408 38.8965 704.768 38.7246C705.127 38.5488 705.527 38.4609 705.969 38.4609C706.742 38.4609 707.324 38.6484 707.715 39.0234C708.105 39.3945 708.301 39.9902 708.301 40.8105V45H707.328ZM716.061 38.5781V39.1934L714.871 39.334C714.98 39.4707 715.078 39.6504 715.164 39.873C715.25 40.0918 715.293 40.3398 715.293 40.6172C715.293 41.2461 715.078 41.748 714.648 42.123C714.219 42.498 713.629 42.6855 712.879 42.6855C712.688 42.6855 712.508 42.6699 712.34 42.6387C711.926 42.8574 711.719 43.1328 711.719 43.4648C711.719 43.6406 711.791 43.7715 711.936 43.8574C712.08 43.9395 712.328 43.9805 712.68 43.9805H713.816C714.512 43.9805 715.045 44.127 715.416 44.4199C715.791 44.7129 715.979 45.1387 715.979 45.6973C715.979 46.4082 715.693 46.9492 715.123 47.3203C714.553 47.6953 713.721 47.8828 712.627 47.8828C711.787 47.8828 711.139 47.7266 710.682 47.4141C710.229 47.1016 710.002 46.6602 710.002 46.0898C710.002 45.6992 710.127 45.3613 710.377 45.0762C710.627 44.791 710.979 44.5977 711.432 44.4961C711.268 44.4219 711.129 44.3066 711.016 44.1504C710.906 43.9941 710.852 43.8125 710.852 43.6055C710.852 43.3711 710.914 43.166 711.039 42.9902C711.164 42.8145 711.361 42.6445 711.631 42.4805C711.299 42.3438 711.027 42.1113 710.816 41.7832C710.609 41.4551 710.506 41.0801 710.506 40.6582C710.506 39.9551 710.717 39.4141 711.139 39.0352C711.561 38.6523 712.158 38.4609 712.932 38.4609C713.268 38.4609 713.57 38.5 713.84 38.5781H716.061ZM710.939 46.0781C710.939 46.4258 711.086 46.6895 711.379 46.8691C711.672 47.0488 712.092 47.1387 712.639 47.1387C713.455 47.1387 714.059 47.0156 714.449 46.7695C714.844 46.5273 715.041 46.1973 715.041 45.7793C715.041 45.4316 714.934 45.1895 714.719 45.0527C714.504 44.9199 714.1 44.8535 713.506 44.8535H712.34C711.898 44.8535 711.555 44.959 711.309 45.1699C711.062 45.3809 710.939 45.6836 710.939 46.0781ZM711.467 40.6348C711.467 41.084 711.594 41.4238 711.848 41.6543C712.102 41.8848 712.455 42 712.908 42C713.857 42 714.332 41.5391 714.332 40.6172C714.332 39.6523 713.852 39.1699 712.891 39.1699C712.434 39.1699 712.082 39.293 711.836 39.5391C711.59 39.7852 711.467 40.1504 711.467 40.6348ZM721.643 45V36.4336H722.639V45H721.643ZM727.914 45.1172C726.984 45.1172 726.264 44.832 725.752 44.2617C725.244 43.6875 724.99 42.877 724.99 41.8301C724.99 40.7559 725.248 39.9258 725.764 39.3398C726.283 38.7539 727.021 38.4609 727.979 38.4609C728.287 38.4609 728.596 38.4941 728.904 38.5605C729.213 38.627 729.455 38.7051 729.631 38.7949L729.332 39.6211C729.117 39.5352 728.883 39.4648 728.629 39.4102C728.375 39.3516 728.15 39.3223 727.955 39.3223C726.65 39.3223 725.998 40.1543 725.998 41.8184C725.998 42.6074 726.156 43.2129 726.473 43.6348C726.793 44.0566 727.266 44.2676 727.891 44.2676C728.426 44.2676 728.975 44.1523 729.537 43.9219V44.7832C729.107 45.0059 728.566 45.1172 727.914 45.1172ZM737.109 41.7832C737.109 42.8301 736.846 43.6484 736.318 44.2383C735.791 44.8242 735.062 45.1172 734.133 45.1172C733.559 45.1172 733.049 44.9824 732.604 44.7129C732.158 44.4434 731.814 44.0566 731.572 43.5527C731.33 43.0488 731.209 42.459 731.209 41.7832C731.209 40.7363 731.471 39.9219 731.994 39.3398C732.518 38.7539 733.244 38.4609 734.174 38.4609C735.072 38.4609 735.785 38.7598 736.312 39.3574C736.844 39.9551 737.109 40.7637 737.109 41.7832ZM732.217 41.7832C732.217 42.6035 732.381 43.2285 732.709 43.6582C733.037 44.0879 733.52 44.3027 734.156 44.3027C734.793 44.3027 735.275 44.0898 735.604 43.6641C735.936 43.2344 736.102 42.6074 736.102 41.7832C736.102 40.9668 735.936 40.3477 735.604 39.9258C735.275 39.5 734.789 39.2871 734.145 39.2871C733.508 39.2871 733.027 39.4961 732.703 39.9141C732.379 40.332 732.217 40.9551 732.217 41.7832ZM743.715 45V40.8457C743.715 40.3223 743.596 39.9316 743.357 39.6738C743.119 39.416 742.746 39.2871 742.238 39.2871C741.566 39.2871 741.074 39.4688 740.762 39.832C740.449 40.1953 740.293 40.7949 740.293 41.6309V45H739.32V38.5781H740.111L740.27 39.457H740.316C740.516 39.1406 740.795 38.8965 741.154 38.7246C741.514 38.5488 741.914 38.4609 742.355 38.4609C743.129 38.4609 743.711 38.6484 744.102 39.0234C744.492 39.3945 744.688 39.9902 744.688 40.8105V45H743.715ZM751.334 43.248C751.334 43.8457 751.111 44.3066 750.666 44.6309C750.221 44.9551 749.596 45.1172 748.791 45.1172C747.939 45.1172 747.275 44.9824 746.799 44.7129V43.8105C747.107 43.9668 747.438 44.0898 747.789 44.1797C748.145 44.2695 748.486 44.3145 748.814 44.3145C749.322 44.3145 749.713 44.2344 749.986 44.0742C750.26 43.9102 750.396 43.6621 750.396 43.3301C750.396 43.0801 750.287 42.8672 750.068 42.6914C749.854 42.5117 749.432 42.3008 748.803 42.0586C748.205 41.8359 747.779 41.6426 747.525 41.4785C747.275 41.3105 747.088 41.1211 746.963 40.9102C746.842 40.6992 746.781 40.4473 746.781 40.1543C746.781 39.6309 746.994 39.2188 747.42 38.918C747.846 38.6133 748.43 38.4609 749.172 38.4609C749.863 38.4609 750.539 38.6016 751.199 38.8828L750.854 39.6738C750.209 39.4082 749.625 39.2754 749.102 39.2754C748.641 39.2754 748.293 39.3477 748.059 39.4922C747.824 39.6367 747.707 39.8359 747.707 40.0898C747.707 40.2617 747.75 40.4082 747.836 40.5293C747.926 40.6504 748.068 40.7656 748.264 40.875C748.459 40.9844 748.834 41.1426 749.389 41.3496C750.15 41.627 750.664 41.9062 750.93 42.1875C751.199 42.4688 751.334 42.8223 751.334 43.248Z" fill="#585C65"/><rect width="479" height="224" transform="translate(0 242)" fill="#F1F1F6"/><g filter="url(#filter2_ddd_296_60609)"><rect width="412" height="64" transform="translate(33.5 322)" fill="#fff"/><path d="M52.3262 362H49.9727V349.715H45.793V347.723H56.4961V349.715H52.3262V362ZM60.8941 351.189V362H58.5992V351.189H60.8941ZM59.7613 347.049C60.1129 347.049 60.4156 347.143 60.6695 347.332C60.9299 347.521 61.0602 347.846 61.0602 348.309C61.0602 348.764 60.9299 349.09 60.6695 349.285C60.4156 349.474 60.1129 349.568 59.7613 349.568C59.3967 349.568 59.0875 349.474 58.8336 349.285C58.5862 349.09 58.4625 348.764 58.4625 348.309C58.4625 347.846 58.5862 347.521 58.8336 347.332C59.0875 347.143 59.3967 347.049 59.7613 347.049ZM68.3586 360.34C68.6581 360.34 68.9543 360.314 69.2473 360.262C69.5402 360.203 69.8072 360.135 70.048 360.057V361.795C69.7941 361.906 69.4654 362 69.0617 362.078C68.6581 362.156 68.2382 362.195 67.802 362.195C67.19 362.195 66.6398 362.094 66.1516 361.893C65.6633 361.684 65.2759 361.329 64.9895 360.828C64.703 360.327 64.5598 359.633 64.5598 358.748V352.938H63.0852V351.912L64.6672 351.102L65.4191 348.787H66.8645V351.189H69.9602V352.938H66.8645V358.719C66.8645 359.266 67.0012 359.673 67.2746 359.939C67.548 360.206 67.9094 360.34 68.3586 360.34ZM74.7 362H72.3953V346.805H74.7V362ZM82.4379 350.984C83.4014 350.984 84.2283 351.183 84.9184 351.58C85.6085 351.977 86.1391 352.54 86.5102 353.27C86.8813 353.999 87.0668 354.871 87.0668 355.887V357.117H79.85C79.876 358.165 80.156 358.973 80.6898 359.539C81.2302 360.105 81.9854 360.389 82.9555 360.389C83.6456 360.389 84.2641 360.324 84.8109 360.193C85.3643 360.057 85.934 359.858 86.5199 359.598V361.463C85.9796 361.717 85.4294 361.902 84.8695 362.02C84.3096 362.137 83.6391 362.195 82.8578 362.195C81.7966 362.195 80.8624 361.99 80.0551 361.58C79.2543 361.163 78.626 360.545 78.1703 359.725C77.7211 358.904 77.4965 357.885 77.4965 356.668C77.4965 355.457 77.7016 354.428 78.1117 353.582C78.5219 352.736 79.098 352.091 79.8402 351.648C80.5824 351.206 81.4483 350.984 82.4379 350.984ZM82.4379 352.713C81.7152 352.713 81.1293 352.947 80.6801 353.416C80.2374 353.885 79.977 354.572 79.8988 355.477H84.8207C84.8142 354.936 84.723 354.458 84.5473 354.041C84.378 353.624 84.1176 353.299 83.766 353.064C83.421 352.83 82.9783 352.713 82.4379 352.713Z" fill="#252A2E"/><path fill-rule="evenodd" clip-rule="evenodd" d="M324.465 356.255H325.255L330.245 361.255L328.755 362.745L323.755 357.755V356.965L323.485 356.685C322.345 357.665 320.865 358.255 319.255 358.255C315.665 358.255 312.755 355.345 312.755 351.755C312.755 348.165 315.665 345.255 319.255 345.255C322.845 345.255 325.755 348.165 325.755 351.755C325.755 353.365 325.165 354.845 324.185 355.985L324.465 356.255ZM314.755 351.755C314.755 354.245 316.765 356.255 319.255 356.255C321.745 356.255 323.755 354.245 323.755 351.755C323.755 349.265 321.745 347.255 319.255 347.255C316.765 347.255 314.755 349.265 314.755 351.755Z" fill="#252A2E"/><g clip-path="url(#clip4_296_60609)"><path d="M376.5 346H375.5V345C375.5 344.45 375.05 344 374.5 344C373.95 344 373.5 344.45 373.5 345V346H365.5V345C365.5 344.45 365.05 344 364.5 344C363.95 344 363.5 344.45 363.5 345V346H362.5C361.39 346 360.51 346.9 360.51 348L360.5 362C360.5 363.1 361.39 364 362.5 364H376.5C377.6 364 378.5 363.1 378.5 362V348C378.5 346.9 377.6 346 376.5 346ZM376.5 361C376.5 361.55 376.05 362 375.5 362H363.5C362.95 362 362.5 361.55 362.5 361V351H376.5V361ZM364.5 353H366.5V355H364.5V353ZM368.5 353H370.5V355H368.5V353ZM372.5 353H374.5V355H372.5V353Z" fill="#252A2E"/></g><g clip-path="url(#clip5_296_60609)"><path d="M417.5 350C418.6 350 419.5 349.1 419.5 348C419.5 346.9 418.6 346 417.5 346C416.4 346 415.5 346.9 415.5 348C415.5 349.1 416.4 350 417.5 350ZM417.5 352C416.4 352 415.5 352.9 415.5 354C415.5 355.1 416.4 356 417.5 356C418.6 356 419.5 355.1 419.5 354C419.5 352.9 418.6 352 417.5 352ZM417.5 358C416.4 358 415.5 358.9 415.5 360C415.5 361.1 416.4 362 417.5 362C418.6 362 419.5 361.1 419.5 360C419.5 358.9 418.6 358 417.5 358Z" fill="#252A2E"/></g></g><path d="M39.8691 271H38.7324L34.0508 263.811H34.0039C34.0664 264.654 34.0977 265.428 34.0977 266.131V271H33.1777V262.434H34.3027L38.9727 269.594H39.0195C39.0117 269.488 38.9941 269.15 38.9668 268.58C38.9395 268.006 38.9297 267.596 38.9375 267.35V262.434H39.8691V271ZM46.5273 271L46.334 270.086H46.2871C45.9668 270.488 45.6465 270.762 45.3262 270.906C45.0098 271.047 44.6133 271.117 44.1367 271.117C43.5 271.117 43 270.953 42.6367 270.625C42.2773 270.297 42.0977 269.83 42.0977 269.225C42.0977 267.928 43.1348 267.248 45.209 267.186L46.2988 267.15V266.752C46.2988 266.248 46.1895 265.877 45.9707 265.639C45.7559 265.396 45.4102 265.275 44.9336 265.275C44.3984 265.275 43.793 265.439 43.1172 265.768L42.8184 265.023C43.1348 264.852 43.4805 264.717 43.8555 264.619C44.2344 264.521 44.6133 264.473 44.9922 264.473C45.7578 264.473 46.3242 264.643 46.6914 264.982C47.0625 265.322 47.248 265.867 47.248 266.617V271H46.5273ZM44.3301 270.314C44.9355 270.314 45.4102 270.148 45.7539 269.816C46.1016 269.484 46.2754 269.02 46.2754 268.422V267.842L45.3027 267.883C44.5293 267.91 43.9707 268.031 43.627 268.246C43.2871 268.457 43.1172 268.787 43.1172 269.236C43.1172 269.588 43.2227 269.855 43.4336 270.039C43.6484 270.223 43.9473 270.314 44.3301 270.314ZM51.1641 271L48.7266 264.578H49.7695L51.1523 268.387C51.4648 269.277 51.6484 269.855 51.7031 270.121H51.75C51.793 269.914 51.9277 269.486 52.1543 268.838C52.3848 268.186 52.8984 266.766 53.6953 264.578H54.7383L52.3008 271H51.1641ZM60.0332 262.434H62.4531C63.5898 262.434 64.4121 262.604 64.9199 262.943C65.4277 263.283 65.6816 263.82 65.6816 264.555C65.6816 265.062 65.5391 265.482 65.2539 265.814C64.9727 266.143 64.5605 266.355 64.0176 266.453V266.512C65.3184 266.734 65.9688 267.418 65.9688 268.562C65.9688 269.328 65.709 269.926 65.1895 270.355C64.6738 270.785 63.9512 271 63.0215 271H60.0332V262.434ZM61.0293 266.102H62.6699C63.373 266.102 63.8789 265.992 64.1875 265.773C64.4961 265.551 64.6504 265.178 64.6504 264.654C64.6504 264.174 64.4785 263.828 64.1348 263.617C63.791 263.402 63.2441 263.295 62.4941 263.295H61.0293V266.102ZM61.0293 266.945V270.15H62.8164C63.5078 270.15 64.0273 270.018 64.375 269.752C64.7266 269.482 64.9023 269.062 64.9023 268.492C64.9023 267.961 64.7227 267.57 64.3633 267.32C64.0078 267.07 63.4648 266.945 62.7344 266.945H61.0293ZM72.1172 271L71.9238 270.086H71.877C71.5566 270.488 71.2363 270.762 70.916 270.906C70.5996 271.047 70.2031 271.117 69.7266 271.117C69.0898 271.117 68.5898 270.953 68.2266 270.625C67.8672 270.297 67.6875 269.83 67.6875 269.225C67.6875 267.928 68.7246 267.248 70.7988 267.186L71.8887 267.15V266.752C71.8887 266.248 71.7793 265.877 71.5605 265.639C71.3457 265.396 71 265.275 70.5234 265.275C69.9883 265.275 69.3828 265.439 68.707 265.768L68.4082 265.023C68.7246 264.852 69.0703 264.717 69.4453 264.619C69.8242 264.521 70.2031 264.473 70.582 264.473C71.3477 264.473 71.9141 264.643 72.2812 264.982C72.6523 265.322 72.8379 265.867 72.8379 266.617V271H72.1172ZM69.9199 270.314C70.5254 270.314 71 270.148 71.3438 269.816C71.6914 269.484 71.8652 269.02 71.8652 268.422V267.842L70.8926 267.883C70.1191 267.91 69.5605 268.031 69.2168 268.246C68.877 268.457 68.707 268.787 68.707 269.236C68.707 269.588 68.8125 269.855 69.0234 270.039C69.2383 270.223 69.5371 270.314 69.9199 270.314ZM78.2773 264.461C78.5625 264.461 78.8184 264.484 79.0449 264.531L78.9102 265.434C78.6445 265.375 78.4102 265.346 78.207 265.346C77.6875 265.346 77.2422 265.557 76.8711 265.979C76.5039 266.4 76.3203 266.926 76.3203 267.555V271H75.3477V264.578H76.1504L76.2617 265.768H76.3086C76.5469 265.35 76.834 265.027 77.1699 264.801C77.5059 264.574 77.875 264.461 78.2773 264.461ZM89.6074 271L88.4297 267.232C88.3555 267.002 88.2168 266.479 88.0137 265.662H87.9668C87.8105 266.346 87.6738 266.873 87.5566 267.244L86.3438 271H85.2188L83.4668 264.578H84.4863C84.9004 266.191 85.2148 267.42 85.4297 268.264C85.6484 269.107 85.7734 269.676 85.8047 269.969H85.8516C85.8945 269.746 85.9629 269.459 86.0566 269.107C86.1543 268.752 86.2383 268.471 86.3086 268.264L87.4863 264.578H88.541L89.6895 268.264C89.9082 268.936 90.0566 269.5 90.1348 269.957H90.1816C90.1973 269.816 90.2383 269.6 90.3047 269.307C90.375 269.014 90.7832 267.438 91.5293 264.578H92.5371L90.7617 271H89.6074ZM95.1758 271H94.2031V264.578H95.1758V271ZM94.1211 262.838C94.1211 262.615 94.1758 262.453 94.2852 262.352C94.3945 262.246 94.5312 262.193 94.6953 262.193C94.8516 262.193 94.9863 262.246 95.0996 262.352C95.2129 262.457 95.2695 262.619 95.2695 262.838C95.2695 263.057 95.2129 263.221 95.0996 263.33C94.9863 263.436 94.8516 263.488 94.6953 263.488C94.5312 263.488 94.3945 263.436 94.2852 263.33C94.1758 263.221 94.1211 263.057 94.1211 262.838ZM99.8125 270.314C99.9844 270.314 100.15 270.303 100.311 270.279C100.471 270.252 100.598 270.225 100.691 270.197V270.941C100.586 270.992 100.43 271.033 100.223 271.064C100.02 271.1 99.8359 271.117 99.6719 271.117C98.4297 271.117 97.8086 270.463 97.8086 269.154V265.334H96.8887V264.865L97.8086 264.461L98.2188 263.09H98.7812V264.578H100.645V265.334H98.7812V269.113C98.7812 269.5 98.873 269.797 99.0566 270.004C99.2402 270.211 99.4922 270.314 99.8125 270.314ZM106.875 271V266.846C106.875 266.322 106.756 265.932 106.518 265.674C106.279 265.416 105.906 265.287 105.398 265.287C104.723 265.287 104.229 265.471 103.916 265.838C103.607 266.205 103.453 266.807 103.453 267.643V271H102.48V261.883H103.453V264.643C103.453 264.975 103.438 265.25 103.406 265.469H103.465C103.656 265.16 103.928 264.918 104.279 264.742C104.635 264.562 105.039 264.473 105.492 264.473C106.277 264.473 106.865 264.66 107.256 265.035C107.65 265.406 107.848 265.998 107.848 266.811V271H106.875ZM116.752 271H115.756V263.318H113.043V262.434H119.465V263.318H116.752V271ZM124.043 264.461C124.328 264.461 124.584 264.484 124.811 264.531L124.676 265.434C124.41 265.375 124.176 265.346 123.973 265.346C123.453 265.346 123.008 265.557 122.637 265.979C122.27 266.4 122.086 266.926 122.086 267.555V271H121.113V264.578H121.916L122.027 265.768H122.074C122.312 265.35 122.6 265.027 122.936 264.801C123.271 264.574 123.641 264.461 124.043 264.461ZM130.461 271L130.268 270.086H130.221C129.9 270.488 129.58 270.762 129.26 270.906C128.943 271.047 128.547 271.117 128.07 271.117C127.434 271.117 126.934 270.953 126.57 270.625C126.211 270.297 126.031 269.83 126.031 269.225C126.031 267.928 127.068 267.248 129.143 267.186L130.232 267.15V266.752C130.232 266.248 130.123 265.877 129.904 265.639C129.689 265.396 129.344 265.275 128.867 265.275C128.332 265.275 127.727 265.439 127.051 265.768L126.752 265.023C127.068 264.852 127.414 264.717 127.789 264.619C128.168 264.521 128.547 264.473 128.926 264.473C129.691 264.473 130.258 264.643 130.625 264.982C130.996 265.322 131.182 265.867 131.182 266.617V271H130.461ZM128.264 270.314C128.869 270.314 129.344 270.148 129.688 269.816C130.035 269.484 130.209 269.02 130.209 268.422V267.842L129.236 267.883C128.463 267.91 127.904 268.031 127.561 268.246C127.221 268.457 127.051 268.787 127.051 269.236C127.051 269.588 127.156 269.855 127.367 270.039C127.582 270.223 127.881 270.314 128.264 270.314ZM134.664 271H133.691V264.578H134.664V271ZM133.609 262.838C133.609 262.615 133.664 262.453 133.773 262.352C133.883 262.246 134.02 262.193 134.184 262.193C134.34 262.193 134.475 262.246 134.588 262.352C134.701 262.457 134.758 262.619 134.758 262.838C134.758 263.057 134.701 263.221 134.588 263.33C134.475 263.436 134.34 263.488 134.184 263.488C134.02 263.488 133.883 263.436 133.773 263.33C133.664 263.221 133.609 263.057 133.609 262.838ZM138.199 271H137.227V261.883H138.199V271ZM141.734 271H140.762V264.578H141.734V271ZM140.68 262.838C140.68 262.615 140.734 262.453 140.844 262.352C140.953 262.246 141.09 262.193 141.254 262.193C141.41 262.193 141.545 262.246 141.658 262.352C141.771 262.457 141.828 262.619 141.828 262.838C141.828 263.057 141.771 263.221 141.658 263.33C141.545 263.436 141.41 263.488 141.254 263.488C141.09 263.488 140.953 263.436 140.844 263.33C140.734 263.221 140.68 263.057 140.68 262.838ZM148.691 271V266.846C148.691 266.322 148.572 265.932 148.334 265.674C148.096 265.416 147.723 265.287 147.215 265.287C146.543 265.287 146.051 265.469 145.738 265.832C145.426 266.195 145.27 266.795 145.27 267.631V271H144.297V264.578H145.088L145.246 265.457H145.293C145.492 265.141 145.771 264.896 146.131 264.725C146.49 264.549 146.891 264.461 147.332 264.461C148.105 264.461 148.688 264.648 149.078 265.023C149.469 265.395 149.664 265.99 149.664 266.811V271H148.691ZM157.424 264.578V265.193L156.234 265.334C156.344 265.471 156.441 265.65 156.527 265.873C156.613 266.092 156.656 266.34 156.656 266.617C156.656 267.246 156.441 267.748 156.012 268.123C155.582 268.498 154.992 268.686 154.242 268.686C154.051 268.686 153.871 268.67 153.703 268.639C153.289 268.857 153.082 269.133 153.082 269.465C153.082 269.641 153.154 269.771 153.299 269.857C153.443 269.939 153.691 269.98 154.043 269.98H155.18C155.875 269.98 156.408 270.127 156.779 270.42C157.154 270.713 157.342 271.139 157.342 271.697C157.342 272.408 157.057 272.949 156.486 273.32C155.916 273.695 155.084 273.883 153.99 273.883C153.15 273.883 152.502 273.727 152.045 273.414C151.592 273.102 151.365 272.66 151.365 272.09C151.365 271.699 151.49 271.361 151.74 271.076C151.99 270.791 152.342 270.598 152.795 270.496C152.631 270.422 152.492 270.307 152.379 270.15C152.27 269.994 152.215 269.812 152.215 269.605C152.215 269.371 152.277 269.166 152.402 268.99C152.527 268.814 152.725 268.645 152.994 268.48C152.662 268.344 152.391 268.111 152.18 267.783C151.973 267.455 151.869 267.08 151.869 266.658C151.869 265.955 152.08 265.414 152.502 265.035C152.924 264.652 153.521 264.461 154.295 264.461C154.631 264.461 154.934 264.5 155.203 264.578H157.424ZM152.303 272.078C152.303 272.426 152.449 272.689 152.742 272.869C153.035 273.049 153.455 273.139 154.002 273.139C154.818 273.139 155.422 273.016 155.812 272.77C156.207 272.527 156.404 272.197 156.404 271.779C156.404 271.432 156.297 271.189 156.082 271.053C155.867 270.92 155.463 270.854 154.869 270.854H153.703C153.262 270.854 152.918 270.959 152.672 271.17C152.426 271.381 152.303 271.684 152.303 272.078ZM152.83 266.635C152.83 267.084 152.957 267.424 153.211 267.654C153.465 267.885 153.818 268 154.271 268C155.221 268 155.695 267.539 155.695 266.617C155.695 265.652 155.215 265.17 154.254 265.17C153.797 265.17 153.445 265.293 153.199 265.539C152.953 265.785 152.83 266.15 152.83 266.635ZM163.006 271V262.434H164.002V271H163.006ZM169.277 271.117C168.348 271.117 167.627 270.832 167.115 270.262C166.607 269.688 166.354 268.877 166.354 267.83C166.354 266.756 166.611 265.926 167.127 265.34C167.646 264.754 168.385 264.461 169.342 264.461C169.65 264.461 169.959 264.494 170.268 264.561C170.576 264.627 170.818 264.705 170.994 264.795L170.695 265.621C170.48 265.535 170.246 265.465 169.992 265.41C169.738 265.352 169.514 265.322 169.318 265.322C168.014 265.322 167.361 266.154 167.361 267.818C167.361 268.607 167.52 269.213 167.836 269.635C168.156 270.057 168.629 270.268 169.254 270.268C169.789 270.268 170.338 270.152 170.9 269.922V270.783C170.471 271.006 169.93 271.117 169.277 271.117ZM178.473 267.783C178.473 268.83 178.209 269.648 177.682 270.238C177.154 270.824 176.426 271.117 175.496 271.117C174.922 271.117 174.412 270.982 173.967 270.713C173.521 270.443 173.178 270.057 172.936 269.553C172.693 269.049 172.572 268.459 172.572 267.783C172.572 266.736 172.834 265.922 173.357 265.34C173.881 264.754 174.607 264.461 175.537 264.461C176.436 264.461 177.148 264.76 177.676 265.357C178.207 265.955 178.473 266.764 178.473 267.783ZM173.58 267.783C173.58 268.604 173.744 269.229 174.072 269.658C174.4 270.088 174.883 270.303 175.52 270.303C176.156 270.303 176.639 270.09 176.967 269.664C177.299 269.234 177.465 268.607 177.465 267.783C177.465 266.967 177.299 266.348 176.967 265.926C176.639 265.5 176.152 265.287 175.508 265.287C174.871 265.287 174.391 265.496 174.066 265.914C173.742 266.332 173.58 266.955 173.58 267.783ZM185.078 271V266.846C185.078 266.322 184.959 265.932 184.721 265.674C184.482 265.416 184.109 265.287 183.602 265.287C182.93 265.287 182.438 265.469 182.125 265.832C181.812 266.195 181.656 266.795 181.656 267.631V271H180.684V264.578H181.475L181.633 265.457H181.68C181.879 265.141 182.158 264.896 182.518 264.725C182.877 264.549 183.277 264.461 183.719 264.461C184.492 264.461 185.074 264.648 185.465 265.023C185.855 265.395 186.051 265.99 186.051 266.811V271H185.078ZM192.697 269.248C192.697 269.846 192.475 270.307 192.029 270.631C191.584 270.955 190.959 271.117 190.154 271.117C189.303 271.117 188.639 270.982 188.162 270.713V269.811C188.471 269.967 188.801 270.09 189.152 270.18C189.508 270.27 189.85 270.314 190.178 270.314C190.686 270.314 191.076 270.234 191.35 270.074C191.623 269.91 191.76 269.662 191.76 269.33C191.76 269.08 191.65 268.867 191.432 268.691C191.217 268.512 190.795 268.301 190.166 268.059C189.568 267.836 189.143 267.643 188.889 267.479C188.639 267.311 188.451 267.121 188.326 266.91C188.205 266.699 188.145 266.447 188.145 266.154C188.145 265.631 188.357 265.219 188.783 264.918C189.209 264.613 189.793 264.461 190.535 264.461C191.227 264.461 191.902 264.602 192.562 264.883L192.217 265.674C191.572 265.408 190.988 265.275 190.465 265.275C190.004 265.275 189.656 265.348 189.422 265.492C189.188 265.637 189.07 265.836 189.07 266.09C189.07 266.262 189.113 266.408 189.199 266.529C189.289 266.65 189.432 266.766 189.627 266.875C189.822 266.984 190.197 267.143 190.752 267.35C191.514 267.627 192.027 267.906 192.293 268.188C192.562 268.469 192.697 268.822 192.697 269.248ZM205.984 266.705C205.984 268.076 205.637 269.154 204.941 269.939C204.25 270.725 203.287 271.117 202.053 271.117C200.791 271.117 199.816 270.732 199.129 269.963C198.445 269.189 198.104 268.1 198.104 266.693C198.104 265.299 198.447 264.219 199.135 263.453C199.822 262.684 200.799 262.299 202.064 262.299C203.295 262.299 204.256 262.689 204.947 263.471C205.639 264.252 205.984 265.33 205.984 266.705ZM199.158 266.705C199.158 267.865 199.404 268.746 199.896 269.348C200.393 269.945 201.111 270.244 202.053 270.244C203.002 270.244 203.719 269.945 204.203 269.348C204.688 268.75 204.93 267.869 204.93 266.705C204.93 265.553 204.688 264.68 204.203 264.086C203.723 263.488 203.01 263.189 202.064 263.189C201.115 263.189 200.393 263.49 199.896 264.092C199.404 264.689 199.158 265.561 199.158 266.705ZM212.648 271V266.846C212.648 266.322 212.529 265.932 212.291 265.674C212.053 265.416 211.68 265.287 211.172 265.287C210.5 265.287 210.008 265.469 209.695 265.832C209.383 266.195 209.227 266.795 209.227 267.631V271H208.254V264.578H209.045L209.203 265.457H209.25C209.449 265.141 209.729 264.896 210.088 264.725C210.447 264.549 210.848 264.461 211.289 264.461C212.062 264.461 212.645 264.648 213.035 265.023C213.426 265.395 213.621 265.99 213.621 266.811V271H212.648ZM217.098 271H216.125V261.883H217.098V271ZM218.641 264.578H219.684L221.09 268.24C221.398 269.076 221.59 269.68 221.664 270.051H221.711C221.762 269.852 221.867 269.512 222.027 269.031C222.191 268.547 222.723 267.062 223.621 264.578H224.664L221.904 271.891C221.631 272.613 221.311 273.125 220.943 273.426C220.58 273.73 220.133 273.883 219.602 273.883C219.305 273.883 219.012 273.85 218.723 273.783V273.004C218.938 273.051 219.178 273.074 219.443 273.074C220.111 273.074 220.588 272.699 220.873 271.949L221.23 271.035L218.641 264.578Z" fill="#585C65"/><rect width="479" height="224" transform="translate(481 242)" fill="#F1F1F6"/><g filter="url(#filter3_ddd_296_60609)"><rect width="412" height="126" transform="translate(514.5 291)" fill="#fff"/><g clip-path="url(#clip6_296_60609)"><path d="M550.5 322H538.33L543.92 316.41L542.5 315L534.5 323L542.5 331L543.91 329.59L538.33 324H550.5V322Z" fill="#252A2E"/></g><path fill-rule="evenodd" clip-rule="evenodd" d="M805.465 325.255H806.255L811.245 330.255L809.755 331.745L804.755 326.755V325.965L804.485 325.685C803.345 326.665 801.865 327.255 800.255 327.255C796.665 327.255 793.755 324.345 793.755 320.755C793.755 317.165 796.665 314.255 800.255 314.255C803.845 314.255 806.755 317.165 806.755 320.755C806.755 322.365 806.165 323.845 805.185 324.985L805.465 325.255ZM795.755 320.755C795.755 323.245 797.765 325.255 800.255 325.255C802.745 325.255 804.755 323.245 804.755 320.755C804.755 318.265 802.745 316.255 800.255 316.255C797.765 316.255 795.755 318.265 795.755 320.755Z" fill="#252A2E"/><g clip-path="url(#clip7_296_60609)"><path d="M857.5 315H856.5V314C856.5 313.45 856.05 313 855.5 313C854.95 313 854.5 313.45 854.5 314V315H846.5V314C846.5 313.45 846.05 313 845.5 313C844.95 313 844.5 313.45 844.5 314V315H843.5C842.39 315 841.51 315.9 841.51 317L841.5 331C841.5 332.1 842.39 333 843.5 333H857.5C858.6 333 859.5 332.1 859.5 331V317C859.5 315.9 858.6 315 857.5 315ZM857.5 330C857.5 330.55 857.05 331 856.5 331H844.5C843.95 331 843.5 330.55 843.5 330V320H857.5V330ZM845.5 322H847.5V324H845.5V322ZM849.5 322H851.5V324H849.5V322ZM853.5 322H855.5V324H853.5V322Z" fill="#252A2E"/></g><g clip-path="url(#clip8_296_60609)"><path d="M898.5 319C899.6 319 900.5 318.1 900.5 317C900.5 315.9 899.6 315 898.5 315C897.4 315 896.5 315.9 896.5 317C896.5 318.1 897.4 319 898.5 319ZM898.5 321C897.4 321 896.5 321.9 896.5 323C896.5 324.1 897.4 325 898.5 325C899.6 325 900.5 324.1 900.5 323C900.5 321.9 899.6 321 898.5 321ZM898.5 327C897.4 327 896.5 327.9 896.5 329C896.5 330.1 897.4 331 898.5 331C899.6 331 900.5 330.1 900.5 329C900.5 327.9 899.6 327 898.5 327Z" fill="#252A2E"/></g><path d="M537.326 402H534.973V389.715H530.793V387.723H541.496V389.715H537.326V402ZM545.894 391.189V402H543.599V391.189H545.894ZM544.761 387.049C545.113 387.049 545.416 387.143 545.67 387.332C545.93 387.521 546.06 387.846 546.06 388.309C546.06 388.764 545.93 389.09 545.67 389.285C545.416 389.474 545.113 389.568 544.761 389.568C544.397 389.568 544.087 389.474 543.834 389.285C543.586 389.09 543.462 388.764 543.462 388.309C543.462 387.846 543.586 387.521 543.834 387.332C544.087 387.143 544.397 387.049 544.761 387.049ZM553.359 400.34C553.658 400.34 553.954 400.314 554.247 400.262C554.54 400.203 554.807 400.135 555.048 400.057V401.795C554.794 401.906 554.465 402 554.062 402.078C553.658 402.156 553.238 402.195 552.802 402.195C552.19 402.195 551.64 402.094 551.152 401.893C550.663 401.684 550.276 401.329 549.989 400.828C549.703 400.327 549.56 399.633 549.56 398.748V392.938H548.085V391.912L549.667 391.102L550.419 388.787H551.864V391.189H554.96V392.938H551.864V398.719C551.864 399.266 552.001 399.673 552.275 399.939C552.548 400.206 552.909 400.34 553.359 400.34ZM559.7 402H557.395V386.805H559.7V402ZM567.438 390.984C568.401 390.984 569.228 391.183 569.918 391.58C570.608 391.977 571.139 392.54 571.51 393.27C571.881 393.999 572.067 394.871 572.067 395.887V397.117H564.85C564.876 398.165 565.156 398.973 565.69 399.539C566.23 400.105 566.985 400.389 567.955 400.389C568.646 400.389 569.264 400.324 569.811 400.193C570.364 400.057 570.934 399.858 571.52 399.598V401.463C570.98 401.717 570.429 401.902 569.87 402.02C569.31 402.137 568.639 402.195 567.858 402.195C566.797 402.195 565.862 401.99 565.055 401.58C564.254 401.163 563.626 400.545 563.17 399.725C562.721 398.904 562.496 397.885 562.496 396.668C562.496 395.457 562.702 394.428 563.112 393.582C563.522 392.736 564.098 392.091 564.84 391.648C565.582 391.206 566.448 390.984 567.438 390.984ZM567.438 392.713C566.715 392.713 566.129 392.947 565.68 393.416C565.237 393.885 564.977 394.572 564.899 395.477H569.821C569.814 394.936 569.723 394.458 569.547 394.041C569.378 393.624 569.118 393.299 568.766 393.064C568.421 392.83 567.978 392.713 567.438 392.713ZM586.468 389.51C585.785 389.51 585.173 389.633 584.632 389.881C584.099 390.128 583.646 390.486 583.275 390.955C582.904 391.417 582.621 391.98 582.425 392.645C582.23 393.302 582.132 394.044 582.132 394.871C582.132 395.978 582.289 396.932 582.601 397.732C582.914 398.527 583.389 399.139 584.027 399.568C584.665 399.992 585.472 400.203 586.449 400.203C587.054 400.203 587.643 400.145 588.216 400.027C588.789 399.91 589.382 399.751 589.994 399.549V401.541C589.414 401.769 588.828 401.935 588.236 402.039C587.643 402.143 586.96 402.195 586.185 402.195C584.727 402.195 583.516 401.893 582.552 401.287C581.595 400.682 580.879 399.829 580.404 398.729C579.935 397.628 579.701 396.339 579.701 394.861C579.701 393.781 579.851 392.791 580.15 391.893C580.449 390.994 580.886 390.219 581.459 389.568C582.032 388.911 582.738 388.406 583.578 388.055C584.424 387.697 585.391 387.518 586.478 387.518C587.194 387.518 587.897 387.599 588.588 387.762C589.284 387.918 589.929 388.143 590.521 388.436L589.701 390.369C589.206 390.135 588.688 389.933 588.148 389.764C587.608 389.594 587.048 389.51 586.468 389.51ZM597.282 390.984C598.246 390.984 599.073 391.183 599.763 391.58C600.453 391.977 600.984 392.54 601.355 393.27C601.726 393.999 601.911 394.871 601.911 395.887V397.117H594.695C594.721 398.165 595.001 398.973 595.534 399.539C596.075 400.105 596.83 400.389 597.8 400.389C598.49 400.389 599.109 400.324 599.655 400.193C600.209 400.057 600.779 399.858 601.364 399.598V401.463C600.824 401.717 600.274 401.902 599.714 402.02C599.154 402.137 598.484 402.195 597.702 402.195C596.641 402.195 595.707 401.99 594.9 401.58C594.099 401.163 593.471 400.545 593.015 399.725C592.566 398.904 592.341 397.885 592.341 396.668C592.341 395.457 592.546 394.428 592.956 393.582C593.366 392.736 593.943 392.091 594.685 391.648C595.427 391.206 596.293 390.984 597.282 390.984ZM597.282 392.713C596.56 392.713 595.974 392.947 595.525 393.416C595.082 393.885 594.821 394.572 594.743 395.477H599.665C599.659 394.936 599.568 394.458 599.392 394.041C599.223 393.624 598.962 393.299 598.611 393.064C598.265 392.83 597.823 392.713 597.282 392.713ZM610.284 390.984C611.501 390.984 612.449 391.3 613.126 391.932C613.809 392.557 614.151 393.562 614.151 394.949V402H611.856V395.379C611.856 394.539 611.684 393.911 611.339 393.494C610.994 393.071 610.46 392.859 609.737 392.859C608.689 392.859 607.96 393.182 607.55 393.826C607.146 394.471 606.944 395.405 606.944 396.629V402H604.649V391.189H606.436L606.759 392.654H606.886C607.12 392.277 607.41 391.967 607.755 391.727C608.106 391.479 608.497 391.294 608.927 391.17C609.363 391.046 609.815 390.984 610.284 390.984ZM621.537 400.34C621.837 400.34 622.133 400.314 622.426 400.262C622.719 400.203 622.986 400.135 623.227 400.057V401.795C622.973 401.906 622.644 402 622.241 402.078C621.837 402.156 621.417 402.195 620.981 402.195C620.369 402.195 619.819 402.094 619.33 401.893C618.842 401.684 618.455 401.329 618.168 400.828C617.882 400.327 617.739 399.633 617.739 398.748V392.938H616.264V391.912L617.846 391.102L618.598 388.787H620.043V391.189H623.139V392.938H620.043V398.719C620.043 399.266 620.18 399.673 620.454 399.939C620.727 400.206 621.088 400.34 621.537 400.34ZM629.881 390.984C630.844 390.984 631.671 391.183 632.361 391.58C633.051 391.977 633.582 392.54 633.953 393.27C634.324 393.999 634.51 394.871 634.51 395.887V397.117H627.293C627.319 398.165 627.599 398.973 628.133 399.539C628.673 400.105 629.428 400.389 630.398 400.389C631.089 400.389 631.707 400.324 632.254 400.193C632.807 400.057 633.377 399.858 633.963 399.598V401.463C633.423 401.717 632.872 401.902 632.312 402.02C631.753 402.137 631.082 402.195 630.301 402.195C629.24 402.195 628.305 401.99 627.498 401.58C626.697 401.163 626.069 400.545 625.613 399.725C625.164 398.904 624.939 397.885 624.939 396.668C624.939 395.457 625.145 394.428 625.555 393.582C625.965 392.736 626.541 392.091 627.283 391.648C628.025 391.206 628.891 390.984 629.881 390.984ZM629.881 392.713C629.158 392.713 628.572 392.947 628.123 393.416C627.68 393.885 627.42 394.572 627.342 395.477H632.264C632.257 394.936 632.166 394.458 631.99 394.041C631.821 393.624 631.561 393.299 631.209 393.064C630.864 392.83 630.421 392.713 629.881 392.713ZM642.726 390.984C642.908 390.984 643.107 390.994 643.322 391.014C643.537 391.033 643.722 391.059 643.879 391.092L643.664 393.24C643.527 393.201 643.358 393.172 643.156 393.152C642.961 393.133 642.785 393.123 642.629 393.123C642.218 393.123 641.828 393.191 641.457 393.328C641.086 393.458 640.757 393.66 640.47 393.934C640.184 394.201 639.959 394.536 639.796 394.939C639.634 395.343 639.552 395.812 639.552 396.346V402H637.248V391.189H639.045L639.357 393.094H639.464C639.679 392.71 639.946 392.358 640.265 392.039C640.584 391.72 640.949 391.466 641.359 391.277C641.776 391.082 642.231 390.984 642.726 390.984Z" fill="#252A2E"/></g><path d="M519.953 271H515.178V262.434H519.953V263.318H516.174V266.078H519.725V266.957H516.174V270.109H519.953V271ZM523.758 267.713L521.525 264.578H522.633L524.326 267.039L526.014 264.578H527.109L524.877 267.713L527.227 271H526.125L524.326 268.398L522.51 271H521.408L523.758 267.713ZM531.078 270.314C531.25 270.314 531.416 270.303 531.576 270.279C531.736 270.252 531.863 270.225 531.957 270.197V270.941C531.852 270.992 531.695 271.033 531.488 271.064C531.285 271.1 531.102 271.117 530.938 271.117C529.695 271.117 529.074 270.463 529.074 269.154V265.334H528.154V264.865L529.074 264.461L529.484 263.09H530.047V264.578H531.91V265.334H530.047V269.113C530.047 269.5 530.139 269.797 530.322 270.004C530.506 270.211 530.758 270.314 531.078 270.314ZM536.459 271.117C535.51 271.117 534.76 270.828 534.209 270.25C533.662 269.672 533.389 268.869 533.389 267.842C533.389 266.807 533.643 265.984 534.15 265.375C534.662 264.766 535.348 264.461 536.207 264.461C537.012 264.461 537.648 264.727 538.117 265.258C538.586 265.785 538.82 266.482 538.82 267.35V267.965H534.396C534.416 268.719 534.605 269.291 534.965 269.682C535.328 270.072 535.838 270.268 536.494 270.268C537.186 270.268 537.869 270.123 538.545 269.834V270.701C538.201 270.85 537.875 270.955 537.566 271.018C537.262 271.084 536.893 271.117 536.459 271.117ZM536.195 265.275C535.68 265.275 535.268 265.443 534.959 265.779C534.654 266.115 534.475 266.58 534.42 267.174H537.777C537.777 266.561 537.641 266.092 537.367 265.768C537.094 265.439 536.703 265.275 536.195 265.275ZM545.379 271V266.846C545.379 266.322 545.26 265.932 545.021 265.674C544.783 265.416 544.41 265.287 543.902 265.287C543.23 265.287 542.738 265.469 542.426 265.832C542.113 266.195 541.957 266.795 541.957 267.631V271H540.984V264.578H541.775L541.934 265.457H541.98C542.18 265.141 542.459 264.896 542.818 264.725C543.178 264.549 543.578 264.461 544.02 264.461C544.793 264.461 545.375 264.648 545.766 265.023C546.156 265.395 546.352 265.99 546.352 266.811V271H545.379ZM553.227 270.139H553.174C552.725 270.791 552.053 271.117 551.158 271.117C550.318 271.117 549.664 270.83 549.195 270.256C548.73 269.682 548.498 268.865 548.498 267.807C548.498 266.748 548.732 265.926 549.201 265.34C549.67 264.754 550.322 264.461 551.158 264.461C552.029 264.461 552.697 264.777 553.162 265.41H553.238L553.197 264.947L553.174 264.496V261.883H554.146V271H553.355L553.227 270.139ZM551.281 270.303C551.945 270.303 552.426 270.123 552.723 269.764C553.023 269.4 553.174 268.816 553.174 268.012V267.807C553.174 266.896 553.021 266.248 552.717 265.861C552.416 265.471 551.934 265.275 551.27 265.275C550.699 265.275 550.262 265.498 549.957 265.943C549.656 266.385 549.506 267.01 549.506 267.818C549.506 268.639 549.656 269.258 549.957 269.676C550.258 270.094 550.699 270.303 551.281 270.303ZM559.428 271.117C558.479 271.117 557.729 270.828 557.178 270.25C556.631 269.672 556.357 268.869 556.357 267.842C556.357 266.807 556.611 265.984 557.119 265.375C557.631 264.766 558.316 264.461 559.176 264.461C559.98 264.461 560.617 264.727 561.086 265.258C561.555 265.785 561.789 266.482 561.789 267.35V267.965H557.365C557.385 268.719 557.574 269.291 557.934 269.682C558.297 270.072 558.807 270.268 559.463 270.268C560.154 270.268 560.838 270.123 561.514 269.834V270.701C561.17 270.85 560.844 270.955 560.535 271.018C560.23 271.084 559.861 271.117 559.428 271.117ZM559.164 265.275C558.648 265.275 558.236 265.443 557.928 265.779C557.623 266.115 557.443 266.58 557.389 267.174H560.746C560.746 266.561 560.609 266.092 560.336 265.768C560.062 265.439 559.672 265.275 559.164 265.275ZM568.324 270.139H568.271C567.822 270.791 567.15 271.117 566.256 271.117C565.416 271.117 564.762 270.83 564.293 270.256C563.828 269.682 563.596 268.865 563.596 267.807C563.596 266.748 563.83 265.926 564.299 265.34C564.768 264.754 565.42 264.461 566.256 264.461C567.127 264.461 567.795 264.777 568.26 265.41H568.336L568.295 264.947L568.271 264.496V261.883H569.244V271H568.453L568.324 270.139ZM566.379 270.303C567.043 270.303 567.523 270.123 567.82 269.764C568.121 269.4 568.271 268.816 568.271 268.012V267.807C568.271 266.896 568.119 266.248 567.814 265.861C567.514 265.471 567.031 265.275 566.367 265.275C565.797 265.275 565.359 265.498 565.055 265.943C564.754 266.385 564.604 267.01 564.604 267.818C564.604 268.639 564.754 269.258 565.055 269.676C565.355 270.094 565.797 270.303 566.379 270.303ZM582.268 271H581.131L576.449 263.811H576.402C576.465 264.654 576.496 265.428 576.496 266.131V271H575.576V262.434H576.701L581.371 269.594H581.418C581.41 269.488 581.393 269.15 581.365 268.58C581.338 268.006 581.328 267.596 581.336 267.35V262.434H582.268V271ZM588.926 271L588.732 270.086H588.686C588.365 270.488 588.045 270.762 587.725 270.906C587.408 271.047 587.012 271.117 586.535 271.117C585.898 271.117 585.398 270.953 585.035 270.625C584.676 270.297 584.496 269.83 584.496 269.225C584.496 267.928 585.533 267.248 587.607 267.186L588.697 267.15V266.752C588.697 266.248 588.588 265.877 588.369 265.639C588.154 265.396 587.809 265.275 587.332 265.275C586.797 265.275 586.191 265.439 585.516 265.768L585.217 265.023C585.533 264.852 585.879 264.717 586.254 264.619C586.633 264.521 587.012 264.473 587.391 264.473C588.156 264.473 588.723 264.643 589.09 264.982C589.461 265.322 589.646 265.867 589.646 266.617V271H588.926ZM586.729 270.314C587.334 270.314 587.809 270.148 588.152 269.816C588.5 269.484 588.674 269.02 588.674 268.422V267.842L587.701 267.883C586.928 267.91 586.369 268.031 586.025 268.246C585.686 268.457 585.516 268.787 585.516 269.236C585.516 269.588 585.621 269.855 585.832 270.039C586.047 270.223 586.346 270.314 586.729 270.314ZM593.562 271L591.125 264.578H592.168L593.551 268.387C593.863 269.277 594.047 269.855 594.102 270.121H594.148C594.191 269.914 594.326 269.486 594.553 268.838C594.783 268.186 595.297 266.766 596.094 264.578H597.137L594.699 271H593.562ZM602.432 262.434H604.852C605.988 262.434 606.811 262.604 607.318 262.943C607.826 263.283 608.08 263.82 608.08 264.555C608.08 265.062 607.938 265.482 607.652 265.814C607.371 266.143 606.959 266.355 606.416 266.453V266.512C607.717 266.734 608.367 267.418 608.367 268.562C608.367 269.328 608.107 269.926 607.588 270.355C607.072 270.785 606.35 271 605.42 271H602.432V262.434ZM603.428 266.102H605.068C605.771 266.102 606.277 265.992 606.586 265.773C606.895 265.551 607.049 265.178 607.049 264.654C607.049 264.174 606.877 263.828 606.533 263.617C606.189 263.402 605.643 263.295 604.893 263.295H603.428V266.102ZM603.428 266.945V270.15H605.215C605.906 270.15 606.426 270.018 606.773 269.752C607.125 269.482 607.301 269.062 607.301 268.492C607.301 267.961 607.121 267.57 606.762 267.32C606.406 267.07 605.863 266.945 605.133 266.945H603.428ZM614.516 271L614.322 270.086H614.275C613.955 270.488 613.635 270.762 613.314 270.906C612.998 271.047 612.602 271.117 612.125 271.117C611.488 271.117 610.988 270.953 610.625 270.625C610.266 270.297 610.086 269.83 610.086 269.225C610.086 267.928 611.123 267.248 613.197 267.186L614.287 267.15V266.752C614.287 266.248 614.178 265.877 613.959 265.639C613.744 265.396 613.398 265.275 612.922 265.275C612.387 265.275 611.781 265.439 611.105 265.768L610.807 265.023C611.123 264.852 611.469 264.717 611.844 264.619C612.223 264.521 612.602 264.473 612.98 264.473C613.746 264.473 614.312 264.643 614.68 264.982C615.051 265.322 615.236 265.867 615.236 266.617V271H614.516ZM612.318 270.314C612.924 270.314 613.398 270.148 613.742 269.816C614.09 269.484 614.264 269.02 614.264 268.422V267.842L613.291 267.883C612.518 267.91 611.959 268.031 611.615 268.246C611.275 268.457 611.105 268.787 611.105 269.236C611.105 269.588 611.211 269.855 611.422 270.039C611.637 270.223 611.936 270.314 612.318 270.314ZM620.676 264.461C620.961 264.461 621.217 264.484 621.443 264.531L621.309 265.434C621.043 265.375 620.809 265.346 620.605 265.346C620.086 265.346 619.641 265.557 619.27 265.979C618.902 266.4 618.719 266.926 618.719 267.555V271H617.746V264.578H618.549L618.66 265.768H618.707C618.945 265.35 619.232 265.027 619.568 264.801C619.904 264.574 620.273 264.461 620.676 264.461Z" fill="#585C65"/><defs><filter id="filter0_ddd_296_60609" x="30.5" y="94" width="418" height="70" filterUnits="userSpaceOnUse" color-interpolation-filters="sRGB"><feFlood flood-opacity="0" result="BackgroundImageFix"/><feColorMatrix in="SourceAlpha" type="matrix" values="0 0 0 0 0 0 0 0 0 0 0 0 0 0 0 0 0 0 127 0" result="hardAlpha"/><feOffset dy="1"/><feGaussianBlur stdDeviation="1.5"/><feColorMatrix type="matrix" values="0 0 0 0 0 0 0 0 0 0 0 0 0 0 0 0 0 0 0.2 0"/><feBlend mode="normal" in2="BackgroundImageFix" result="effect1_dropShadow_296_60609"/><feColorMatrix in="SourceAlpha" type="matrix" values="0 0 0 0 0 0 0 0 0 0 0 0 0 0 0 0 0 0 127 0" result="hardAlpha"/><feOffset dy="2"/><feGaussianBlur stdDeviation=".5"/><feColorMatrix type="matrix" values="0 0 0 0 0 0 0 0 0 0 0 0 0 0 0 0 0 0 0.12 0"/><feBlend mode="normal" in2="effect1_dropShadow_296_60609" result="effect2_dropShadow_296_60609"/><feColorMatrix in="SourceAlpha" type="matrix" values="0 0 0 0 0 0 0 0 0 0 0 0 0 0 0 0 0 0 127 0" result="hardAlpha"/><feOffset dy="1"/><feGaussianBlur stdDeviation=".5"/><feColorMatrix type="matrix" values="0 0 0 0 0 0 0 0 0 0 0 0 0 0 0 0 0 0 0.14 0"/><feBlend mode="normal" in2="effect2_dropShadow_296_60609" result="effect3_dropShadow_296_60609"/><feBlend mode="normal" in="SourceGraphic" in2="effect3_dropShadow_296_60609" result="shape"/></filter><filter id="filter1_ddd_296_60609" x="511.5" y="94" width="418" height="70" filterUnits="userSpaceOnUse" color-interpolation-filters="sRGB"><feFlood flood-opacity="0" result="BackgroundImageFix"/><feColorMatrix in="SourceAlpha" type="matrix" values="0 0 0 0 0 0 0 0 0 0 0 0 0 0 0 0 0 0 127 0" result="hardAlpha"/><feOffset dy="1"/><feGaussianBlur stdDeviation="1.5"/><feColorMatrix type="matrix" values="0 0 0 0 0 0 0 0 0 0 0 0 0 0 0 0 0 0 0.2 0"/><feBlend mode="normal" in2="BackgroundImageFix" result="effect1_dropShadow_296_60609"/><feColorMatrix in="SourceAlpha" type="matrix" values="0 0 0 0 0 0 0 0 0 0 0 0 0 0 0 0 0 0 127 0" result="hardAlpha"/><feOffset dy="2"/><feGaussianBlur stdDeviation=".5"/><feColorMatrix type="matrix" values="0 0 0 0 0 0 0 0 0 0 0 0 0 0 0 0 0 0 0.12 0"/><feBlend mode="normal" in2="effect1_dropShadow_296_60609" result="effect2_dropShadow_296_60609"/><feColorMatrix in="SourceAlpha" type="matrix" values="0 0 0 0 0 0 0 0 0 0 0 0 0 0 0 0 0 0 127 0" result="hardAlpha"/><feOffset dy="1"/><feGaussianBlur stdDeviation=".5"/><feColorMatrix type="matrix" values="0 0 0 0 0 0 0 0 0 0 0 0 0 0 0 0 0 0 0.14 0"/><feBlend mode="normal" in2="effect2_dropShadow_296_60609" result="effect3_dropShadow_296_60609"/><feBlend mode="normal" in="SourceGraphic" in2="effect3_dropShadow_296_60609" result="shape"/></filter><filter id="filter2_ddd_296_60609" x="30.5" y="320" width="418" height="70" filterUnits="userSpaceOnUse" color-interpolation-filters="sRGB"><feFlood flood-opacity="0" result="BackgroundImageFix"/><feColorMatrix in="SourceAlpha" type="matrix" values="0 0 0 0 0 0 0 0 0 0 0 0 0 0 0 0 0 0 127 0" result="hardAlpha"/><feOffset dy="1"/><feGaussianBlur stdDeviation="1.5"/><feColorMatrix type="matrix" values="0 0 0 0 0 0 0 0 0 0 0 0 0 0 0 0 0 0 0.2 0"/><feBlend mode="normal" in2="BackgroundImageFix" result="effect1_dropShadow_296_60609"/><feColorMatrix in="SourceAlpha" type="matrix" values="0 0 0 0 0 0 0 0 0 0 0 0 0 0 0 0 0 0 127 0" result="hardAlpha"/><feOffset dy="2"/><feGaussianBlur stdDeviation=".5"/><feColorMatrix type="matrix" values="0 0 0 0 0 0 0 0 0 0 0 0 0 0 0 0 0 0 0.12 0"/><feBlend mode="normal" in2="effect1_dropShadow_296_60609" result="effect2_dropShadow_296_60609"/><feColorMatrix in="SourceAlpha" type="matrix" values="0 0 0 0 0 0 0 0 0 0 0 0 0 0 0 0 0 0 127 0" result="hardAlpha"/><feOffset dy="1"/><feGaussianBlur stdDeviation=".5"/><feColorMatrix type="matrix" values="0 0 0 0 0 0 0 0 0 0 0 0 0 0 0 0 0 0 0.14 0"/><feBlend mode="normal" in2="effect2_dropShadow_296_60609" result="effect3_dropShadow_296_60609"/><feBlend mode="normal" in="SourceGraphic" in2="effect3_dropShadow_296_60609" result="shape"/></filter><filter id="filter3_ddd_296_60609" x="511.5" y="289" width="418" height="132" filterUnits="userSpaceOnUse" color-interpolation-filters="sRGB"><feFlood flood-opacity="0" result="BackgroundImageFix"/><feColorMatrix in="SourceAlpha" type="matrix" values="0 0 0 0 0 0 0 0 0 0 0 0 0 0 0 0 0 0 127 0" result="hardAlpha"/><feOffset dy="1"/><feGaussianBlur stdDeviation="1.5"/><feColorMatrix type="matrix" values="0 0 0 0 0 0 0 0 0 0 0 0 0 0 0 0 0 0 0.2 0"/><feBlend mode="normal" in2="BackgroundImageFix" result="effect1_dropShadow_296_60609"/><feColorMatrix in="SourceAlpha" type="matrix" values="0 0 0 0 0 0 0 0 0 0 0 0 0 0 0 0 0 0 127 0" result="hardAlpha"/><feOffset dy="2"/><feGaussianBlur stdDeviation=".5"/><feColorMatrix type="matrix" values="0 0 0 0 0 0 0 0 0 0 0 0 0 0 0 0 0 0 0.12 0"/><feBlend mode="normal" in2="effect1_dropShadow_296_60609" result="effect2_dropShadow_296_60609"/><feColorMatrix in="SourceAlpha" type="matrix" values="0 0 0 0 0 0 0 0 0 0 0 0 0 0 0 0 0 0 127 0" result="hardAlpha"/><feOffset dy="1"/><feGaussianBlur stdDeviation=".5"/><feColorMatrix type="matrix" values="0 0 0 0 0 0 0 0 0 0 0 0 0 0 0 0 0 0 0.14 0"/><feBlend mode="normal" in2="effect2_dropShadow_296_60609" result="effect3_dropShadow_296_60609"/><feBlend mode="normal" in="SourceGraphic" in2="effect3_dropShadow_296_60609" result="shape"/></filter><clipPath id="clip0_296_60609"><rect width="24" height="24" fill="#fff" transform="translate(49.5 116)"/></clipPath><clipPath id="clip1_296_60609"><rect width="24" height="24" fill="#fff" transform="translate(530.5 116)"/></clipPath><clipPath id="clip2_296_60609"><rect width="24" height="24" fill="#fff" transform="translate(838.5 116)"/></clipPath><clipPath id="clip3_296_60609"><rect width="24" height="24" fill="#fff" transform="translate(886.5 116)"/></clipPath><clipPath id="clip4_296_60609"><rect width="24" height="24" fill="#fff" transform="translate(357.5 342)"/></clipPath><clipPath id="clip5_296_60609"><rect width="24" height="24" fill="#fff" transform="translate(405.5 342)"/></clipPath><clipPath id="clip6_296_60609"><rect width="24" height="24" fill="#fff" transform="translate(530.5 311)"/></clipPath><clipPath id="clip7_296_60609"><rect width="24" height="24" fill="#fff" transform="translate(838.5 311)"/></clipPath><clipPath id="clip8_296_60609"><rect width="24" height="24" fill="#fff" transform="translate(886.5 311)"/></clipPath></defs></svg>