<svg fill="none" height="260" viewBox="0 0 824 260" width="824" xmlns="http://www.w3.org/2000/svg" xmlns:xlink="http://www.w3.org/1999/xlink"><clipPath id="a"><rect height="16" rx="2" width="200" x="180" y="78"/></clipPath><clipPath id="b"><rect height="16" rx="2" width="200" x="180" y="140"/></clipPath><path d="m0 0h824v260h-824z" fill="#252a2e"/><g clip-path="url(#a)"><rect height="15" rx="1.5" stroke="#6a6e79" width="199" x="180.5" y="78.5"/></g><path d="m184.717 109.822c-.684 0-1.213.258-1.588.774-.375.511-.563 1.226-.563 2.144 0 1.91.717 2.865 2.151 2.865.601 0 1.33-.15 2.185-.451v1.524c-.703.293-1.488.439-2.355.439-1.246 0-2.199-.377-2.859-1.131-.661-.757-.991-1.843-.991-3.257 0-.891.162-1.67.487-2.338.324-.672.789-1.186 1.394-1.541.61-.36 1.322-.539 2.139-.539.832 0 1.668.201 2.508.603l-.586 1.477c-.321-.153-.643-.286-.967-.399s-.643-.17-.955-.17zm5.797 3.891c0 .648.105 1.139.316 1.471.215.332.563.498 1.043.498.477 0 .818-.164 1.025-.493.211-.332.317-.824.317-1.476 0-.649-.106-1.135-.317-1.459-.21-.324-.556-.486-1.037-.486-.476 0-.82.162-1.031.486-.211.32-.316.807-.316 1.459zm4.529 0c0 1.066-.281 1.9-.844 2.502-.562.601-1.345.902-2.349.902-.629 0-1.184-.137-1.664-.41-.481-.277-.85-.674-1.108-1.189-.258-.516-.387-1.118-.387-1.805 0-1.07.28-1.902.838-2.496.559-.594 1.344-.891 2.356-.891.629 0 1.183.137 1.664.41.48.274.849.666 1.107 1.178s.387 1.111.387 1.799zm7.842 3.287h-1.787v-3.826c0-.473-.08-.826-.241-1.061-.156-.238-.404-.357-.744-.357-.457 0-.789.168-.996.504s-.31.888-.31 1.658v3.082h-1.787v-6.551h1.365l.24.838h.1c.175-.301.429-.535.761-.703.332-.172.713-.258 1.143-.258.98 0 1.644.32 1.992.961h.158c.176-.305.434-.541.774-.709.343-.168.73-.252 1.16-.252.742 0 1.303.192 1.682.574.382.379.574.989.574 1.829v4.271h-1.793v-3.826c0-.473-.08-.826-.24-1.061-.157-.238-.405-.357-.745-.357-.437 0-.765.156-.984.469-.215.312-.322.808-.322 1.488zm10.021.117c-.769 0-1.373-.279-1.81-.838h-.094c.062.547.094.864.094.95v2.654h-1.787v-9.434h1.453l.252.85h.082c.418-.649 1.037-.973 1.857-.973.774 0 1.379.299 1.817.897.437.597.656 1.427.656 2.49 0 .699-.104 1.307-.311 1.822-.203.516-.494.908-.873 1.178-.379.269-.824.404-1.336.404zm-.527-5.361c-.441 0-.764.137-.967.41-.203.27-.308.717-.316 1.342v.193c0 .703.103 1.207.31 1.512.211.305.543.457.996.457.801 0 1.202-.66 1.202-1.981 0-.644-.1-1.127-.299-1.447-.196-.324-.504-.486-.926-.486zm6.81 5.244h-1.787v-9.117h1.787zm5.094-5.402c-.379 0-.676.121-.89.363-.215.238-.338.578-.37 1.019h2.508c-.008-.441-.123-.781-.345-1.019-.223-.242-.524-.363-.903-.363zm.252 5.519c-1.055 0-1.879-.291-2.473-.873-.593-.582-.89-1.406-.89-2.473 0-1.097.273-1.945.82-2.542.551-.602 1.311-.903 2.279-.903.926 0 1.647.264 2.163.791.515.528.773 1.256.773 2.186v.867h-4.225c.02.508.17.904.452 1.189.281.286.675.428 1.183.428.395 0 .768-.041 1.119-.123.352-.082.719-.213 1.102-.393v1.383c-.313.157-.647.272-1.002.346-.356.078-.789.117-1.301.117zm7.385-1.424c.312 0 .687-.068 1.125-.205v1.33c-.445.2-.992.299-1.641.299-.715 0-1.236-.179-1.564-.539-.324-.363-.486-.906-.486-1.629v-3.158h-.856v-.756l.984-.597.516-1.383h1.143v1.394h1.834v1.342h-1.834v3.158c0 .254.07.442.211.563.144.121.334.181.568.181zm5.668-4.095c-.379 0-.676.121-.891.363-.215.238-.338.578-.369 1.019h2.508c-.008-.441-.123-.781-.346-1.019-.222-.242-.523-.363-.902-.363zm.252 5.519c-1.055 0-1.879-.291-2.473-.873s-.89-1.406-.89-2.473c0-1.097.273-1.945.82-2.542.551-.602 1.31-.903 2.279-.903.926 0 1.647.264 2.162.791.516.528.774 1.256.774 2.186v.867h-4.225c.02.508.17.904.451 1.189.282.286.676.428 1.184.428.394 0 .767-.041 1.119-.123s.719-.213 1.102-.393v1.383c-.313.157-.647.272-1.002.346-.356.078-.789.117-1.301.117zm6.699 0c-.769 0-1.375-.299-1.816-.896-.438-.598-.657-1.426-.657-2.485 0-1.074.223-1.91.668-2.507.45-.602 1.067-.903 1.852-.903.824 0 1.453.32 1.887.961h.058c-.09-.488-.135-.924-.135-1.307v-2.097h1.793v9.117h-1.371l-.345-.85h-.077c-.406.645-1.025.967-1.857.967zm.627-1.424c.457 0 .791-.132 1.002-.398.215-.266.332-.717.352-1.354v-.193c0-.703-.11-1.207-.329-1.512-.214-.304-.566-.457-1.054-.457-.399 0-.709.17-.932.51-.219.336-.328.826-.328 1.471 0 .644.111 1.129.334 1.453.223.32.541.48.955.48zm14.494-2.976c0 1.496-.246 2.603-.738 3.322-.488.719-1.242 1.078-2.262 1.078-.988 0-1.734-.371-2.238-1.113-.5-.742-.75-1.838-.75-3.287 0-1.512.244-2.625.732-3.34.489-.719 1.241-1.078 2.256-1.078.988 0 1.735.375 2.238 1.125.508.75.762 1.847.762 3.293zm-4.189 0c0 1.051.09 1.804.269 2.262.184.453.49.679.92.679.422 0 .727-.23.914-.691.188-.461.281-1.211.281-2.25 0-1.051-.095-1.805-.287-2.262-.187-.461-.49-.691-.908-.691-.426 0-.73.23-.914.691-.184.457-.275 1.211-.275 2.262zm11.101.996c0 .648.106 1.139.317 1.471.215.332.562.498 1.043.498.476 0 .818-.164 1.025-.493.211-.332.316-.824.316-1.476 0-.649-.105-1.135-.316-1.459s-.557-.486-1.037-.486c-.477 0-.82.162-1.031.486-.211.32-.317.807-.317 1.459zm4.53 0c0 1.066-.282 1.9-.844 2.502-.563.601-1.346.902-2.35.902-.629 0-1.183-.137-1.664-.41-.48-.277-.849-.674-1.107-1.189-.258-.516-.387-1.118-.387-1.805 0-1.07.279-1.902.838-2.496.558-.594 1.344-.891 2.355-.891.629 0 1.184.137 1.664.41.481.274.85.666 1.108 1.178s.387 1.111.387 1.799zm5.597-1.922h-1.547v5.209h-1.787v-5.209h-.984v-.861l.984-.481v-.48c0-.746.184-1.291.551-1.635s.955-.516 1.764-.516c.617 0 1.166.092 1.646.276l-.457 1.312c-.359-.113-.691-.17-.996-.17-.254 0-.437.076-.551.229-.113.148-.17.34-.17.574v.41h1.547zm12.215 5.209h-2.074l-1.992-3.24-1.993 3.24h-1.945l2.842-4.418-2.66-4.148h2.004l1.845 3.082 1.811-3.082h1.957l-2.689 4.248z" fill="#fff"/><g clip-path="url(#b)"><rect fill="#019aeb" height="14" rx="2" width="200" x="180" y="141"/><rect height="15" rx="1.5" stroke="#6a6e79" width="199" x="180.5" y="140.5"/></g><path d="m184.717 171.822c-.684 0-1.213.258-1.588.774-.375.511-.563 1.226-.563 2.144 0 1.91.717 2.865 2.151 2.865.601 0 1.33-.15 2.185-.451v1.524c-.703.293-1.488.439-2.355.439-1.246 0-2.199-.377-2.859-1.131-.661-.757-.991-1.843-.991-3.257 0-.891.162-1.67.487-2.338.324-.672.789-1.186 1.394-1.541.61-.36 1.322-.539 2.139-.539.832 0 1.668.201 2.508.603l-.586 1.477c-.321-.153-.643-.286-.967-.399s-.643-.17-.955-.17zm5.797 3.891c0 .648.105 1.139.316 1.471.215.332.563.498 1.043.498.477 0 .818-.164 1.025-.493.211-.332.317-.824.317-1.476 0-.649-.106-1.135-.317-1.459-.21-.324-.556-.486-1.037-.486-.476 0-.82.162-1.031.486-.211.32-.316.807-.316 1.459zm4.529 0c0 1.066-.281 1.9-.844 2.502-.562.601-1.345.902-2.349.902-.629 0-1.184-.137-1.664-.41-.481-.277-.85-.674-1.108-1.189-.258-.516-.387-1.118-.387-1.805 0-1.07.28-1.902.838-2.496.559-.594 1.344-.891 2.356-.891.629 0 1.183.137 1.664.41.48.274.849.666 1.107 1.178s.387 1.111.387 1.799zm7.842 3.287h-1.787v-3.826c0-.473-.08-.826-.241-1.061-.156-.238-.404-.357-.744-.357-.457 0-.789.168-.996.504s-.31.888-.31 1.658v3.082h-1.787v-6.551h1.365l.24.838h.1c.175-.301.429-.535.761-.703.332-.172.713-.258 1.143-.258.98 0 1.644.32 1.992.961h.158c.176-.305.434-.541.774-.709.343-.168.73-.252 1.16-.252.742 0 1.303.192 1.682.574.382.379.574.989.574 1.829v4.271h-1.793v-3.826c0-.473-.08-.826-.24-1.061-.157-.238-.405-.357-.745-.357-.437 0-.765.156-.984.469-.215.312-.322.808-.322 1.488zm10.021.117c-.769 0-1.373-.279-1.81-.838h-.094c.062.547.094.864.094.95v2.654h-1.787v-9.434h1.453l.252.85h.082c.418-.649 1.037-.973 1.857-.973.774 0 1.379.299 1.817.897.437.597.656 1.427.656 2.49 0 .699-.104 1.307-.311 1.822-.203.516-.494.908-.873 1.178-.379.269-.824.404-1.336.404zm-.527-5.361c-.441 0-.764.137-.967.41-.203.27-.308.717-.316 1.342v.193c0 .703.103 1.207.31 1.512.211.305.543.457.996.457.801 0 1.202-.66 1.202-1.981 0-.644-.1-1.127-.299-1.447-.196-.324-.504-.486-.926-.486zm6.81 5.244h-1.787v-9.117h1.787zm5.094-5.402c-.379 0-.676.121-.89.363-.215.238-.338.578-.37 1.019h2.508c-.008-.441-.123-.781-.345-1.019-.223-.242-.524-.363-.903-.363zm.252 5.519c-1.055 0-1.879-.291-2.473-.873-.593-.582-.89-1.406-.89-2.473 0-1.097.273-1.945.82-2.542.551-.602 1.311-.903 2.279-.903.926 0 1.647.264 2.163.791.515.528.773 1.256.773 2.186v.867h-4.225c.02.508.17.904.452 1.189.281.286.675.428 1.183.428.395 0 .768-.041 1.119-.123.352-.082.719-.213 1.102-.393v1.383c-.313.157-.647.272-1.002.346-.356.078-.789.117-1.301.117zm7.385-1.424c.312 0 .687-.068 1.125-.205v1.33c-.445.2-.992.299-1.641.299-.715 0-1.236-.179-1.564-.539-.324-.363-.486-.906-.486-1.629v-3.158h-.856v-.756l.984-.597.516-1.383h1.143v1.394h1.834v1.342h-1.834v3.158c0 .254.07.442.211.563.144.121.334.181.568.181zm5.668-4.095c-.379 0-.676.121-.891.363-.215.238-.338.578-.369 1.019h2.508c-.008-.441-.123-.781-.346-1.019-.222-.242-.523-.363-.902-.363zm.252 5.519c-1.055 0-1.879-.291-2.473-.873s-.89-1.406-.89-2.473c0-1.097.273-1.945.82-2.542.551-.602 1.31-.903 2.279-.903.926 0 1.647.264 2.162.791.516.528.774 1.256.774 2.186v.867h-4.225c.02.508.17.904.451 1.189.282.286.676.428 1.184.428.394 0 .767-.041 1.119-.123s.719-.213 1.102-.393v1.383c-.313.157-.647.272-1.002.346-.356.078-.789.117-1.301.117zm6.699 0c-.769 0-1.375-.299-1.816-.896-.438-.598-.657-1.426-.657-2.485 0-1.074.223-1.91.668-2.507.45-.602 1.067-.903 1.852-.903.824 0 1.453.32 1.887.961h.058c-.09-.488-.135-.924-.135-1.307v-2.097h1.793v9.117h-1.371l-.345-.85h-.077c-.406.645-1.025.967-1.857.967zm.627-1.424c.457 0 .791-.132 1.002-.398.215-.266.332-.717.352-1.354v-.193c0-.703-.11-1.207-.329-1.512-.214-.304-.566-.457-1.054-.457-.399 0-.709.17-.932.51-.219.336-.328.826-.328 1.471 0 .644.111 1.129.334 1.453.223.32.541.48.955.48zm16.076 1.307h-2.074l-1.992-3.24-1.992 3.24h-1.946l2.842-4.418-2.66-4.148h2.004l1.846 3.082 1.81-3.082h1.957l-2.689 4.248zm6.479-3.287c0 .648.105 1.139.316 1.471.215.332.563.498 1.043.498.477 0 .818-.164 1.025-.493.211-.332.317-.824.317-1.476 0-.649-.106-1.135-.317-1.459-.21-.324-.556-.486-1.037-.486-.476 0-.82.162-1.031.486-.211.32-.316.807-.316 1.459zm4.529 0c0 1.066-.281 1.9-.844 2.502-.562.601-1.345.902-2.349.902-.629 0-1.184-.137-1.664-.41-.481-.277-.85-.674-1.108-1.189-.258-.516-.387-1.118-.387-1.805 0-1.07.28-1.902.838-2.496.559-.594 1.344-.891 2.356-.891.629 0 1.183.137 1.664.41.48.274.849.666 1.107 1.178s.387 1.111.387 1.799zm5.598-1.922h-1.547v5.209h-1.787v-5.209h-.985v-.861l.985-.481v-.48c0-.746.183-1.291.55-1.635.368-.344.956-.516 1.764-.516.617 0 1.166.092 1.647.276l-.457 1.312c-.36-.113-.692-.17-.997-.17-.253 0-.437.076-.55.229-.114.148-.17.34-.17.574v.41h1.547zm12.214 5.209h-2.074l-1.992-3.24-1.992 3.24h-1.945l2.841-4.418-2.66-4.148h2.004l1.846 3.082 1.81-3.082h1.957l-2.689 4.248z" fill="#fff"/><g clip-rule="evenodd" fill="#019aeb" fill-rule="evenodd"><path d="m495 140c11.598 0 21-9.402 21-21s-9.402-21-21-21v3.818c9.489 0 17.182 7.693 17.182 17.182s-7.693 17.182-17.182 17.182-17.182-7.693-17.182-17.182h-3.818c0 11.598 9.402 21 21 21z"/><path d="m536 119c0 11.598 9.402 21 21 21s21-9.402 21-21h-3.818c0 9.489-7.693 17.182-17.182 17.182s-17.182-7.693-17.182-17.182 7.693-17.182 17.182-17.182v-3.818c-11.598 0-21 9.402-21 21z"/><path d="m619 98c-11.598 0-21 9.402-21 21s9.402 21 21 21v-3.818c-9.489 0-17.182-7.693-17.182-17.182s7.693-17.182 17.182-17.182 17.182 7.693 17.182 17.182h3.818c0-11.598-9.402-21-21-21z"/><path d="m702 119c0-11.598-9.402-21-21-21s-21 9.402-21 21h3.818c0-9.489 7.693-17.182 17.182-17.182s17.182 7.693 17.182 17.182-7.693 17.182-17.182 17.182v3.818c11.598 0 21-9.402 21-21z"/></g></svg>