<svg width="824" height="260" viewBox="0 0 824 260" fill="none" xmlns="http://www.w3.org/2000/svg"><rect width="824" height="260" fill="#F1F1F6"/><g clip-path="url(#clip0_202_20790)"><rect x="172.5" y="78.5" width="199" height="15" rx="1.5" stroke="#A3A6B1"/></g><path d="M176.717 109.822C176.033 109.822 175.504 110.08 175.129 110.596C174.754 111.107 174.566 111.822 174.566 112.74C174.566 114.65 175.283 115.605 176.717 115.605C177.318 115.605 178.047 115.455 178.902 115.154V116.678C178.199 116.971 177.414 117.117 176.547 117.117C175.301 117.117 174.348 116.74 173.688 115.986C173.027 115.229 172.697 114.143 172.697 112.729C172.697 111.838 172.859 111.059 173.184 110.391C173.508 109.719 173.973 109.205 174.578 108.85C175.188 108.49 175.9 108.311 176.717 108.311C177.549 108.311 178.385 108.512 179.225 108.914L178.639 110.391C178.318 110.238 177.996 110.105 177.672 109.992C177.348 109.879 177.029 109.822 176.717 109.822ZM182.514 113.713C182.514 114.361 182.619 114.852 182.83 115.184C183.045 115.516 183.393 115.682 183.873 115.682C184.35 115.682 184.691 115.518 184.898 115.189C185.109 114.857 185.215 114.365 185.215 113.713C185.215 113.064 185.109 112.578 184.898 112.254C184.688 111.93 184.342 111.768 183.861 111.768C183.385 111.768 183.041 111.93 182.83 112.254C182.619 112.574 182.514 113.061 182.514 113.713ZM187.043 113.713C187.043 114.779 186.762 115.613 186.199 116.215C185.637 116.816 184.854 117.117 183.85 117.117C183.221 117.117 182.666 116.98 182.186 116.707C181.705 116.43 181.336 116.033 181.078 115.518C180.82 115.002 180.691 114.4 180.691 113.713C180.691 112.643 180.971 111.811 181.529 111.217C182.088 110.623 182.873 110.326 183.885 110.326C184.514 110.326 185.068 110.463 185.549 110.736C186.029 111.01 186.398 111.402 186.656 111.914C186.914 112.426 187.043 113.025 187.043 113.713ZM194.885 117H193.098V113.174C193.098 112.701 193.018 112.348 192.857 112.113C192.701 111.875 192.453 111.756 192.113 111.756C191.656 111.756 191.324 111.924 191.117 112.26C190.91 112.596 190.807 113.148 190.807 113.918V117H189.02V110.449H190.385L190.625 111.287H190.725C190.9 110.986 191.154 110.752 191.486 110.584C191.818 110.412 192.199 110.326 192.629 110.326C193.609 110.326 194.273 110.646 194.621 111.287H194.779C194.955 110.982 195.213 110.746 195.553 110.578C195.896 110.41 196.283 110.326 196.713 110.326C197.455 110.326 198.016 110.518 198.395 110.9C198.777 111.279 198.969 111.889 198.969 112.729V117H197.176V113.174C197.176 112.701 197.096 112.348 196.936 112.113C196.779 111.875 196.531 111.756 196.191 111.756C195.754 111.756 195.426 111.912 195.207 112.225C194.992 112.537 194.885 113.033 194.885 113.713V117ZM204.906 117.117C204.137 117.117 203.533 116.838 203.096 116.279H203.002C203.064 116.826 203.096 117.143 203.096 117.229V119.883H201.309V110.449H202.762L203.014 111.299H203.096C203.514 110.65 204.133 110.326 204.953 110.326C205.727 110.326 206.332 110.625 206.77 111.223C207.207 111.82 207.426 112.65 207.426 113.713C207.426 114.412 207.322 115.02 207.115 115.535C206.912 116.051 206.621 116.443 206.242 116.713C205.863 116.982 205.418 117.117 204.906 117.117ZM204.379 111.756C203.938 111.756 203.615 111.893 203.412 112.166C203.209 112.436 203.104 112.883 203.096 113.508V113.701C203.096 114.404 203.199 114.908 203.406 115.213C203.617 115.518 203.949 115.67 204.402 115.67C205.203 115.67 205.604 115.01 205.604 113.689C205.604 113.045 205.504 112.562 205.305 112.242C205.109 111.918 204.801 111.756 204.379 111.756ZM211.189 117H209.402V107.883H211.189V117ZM216.283 111.598C215.904 111.598 215.607 111.719 215.393 111.961C215.178 112.199 215.055 112.539 215.023 112.98H217.531C217.523 112.539 217.408 112.199 217.186 111.961C216.963 111.719 216.662 111.598 216.283 111.598ZM216.535 117.117C215.48 117.117 214.656 116.826 214.062 116.244C213.469 115.662 213.172 114.838 213.172 113.771C213.172 112.674 213.445 111.826 213.992 111.229C214.543 110.627 215.303 110.326 216.271 110.326C217.197 110.326 217.918 110.59 218.434 111.117C218.949 111.645 219.207 112.373 219.207 113.303V114.17H214.982C215.002 114.678 215.152 115.074 215.434 115.359C215.715 115.645 216.109 115.787 216.617 115.787C217.012 115.787 217.385 115.746 217.736 115.664C218.088 115.582 218.455 115.451 218.838 115.271V116.654C218.525 116.811 218.191 116.926 217.836 117C217.48 117.078 217.047 117.117 216.535 117.117ZM223.92 115.693C224.232 115.693 224.607 115.625 225.045 115.488V116.818C224.6 117.018 224.053 117.117 223.404 117.117C222.689 117.117 222.168 116.938 221.84 116.578C221.516 116.215 221.354 115.672 221.354 114.949V111.791H220.498V111.035L221.482 110.438L221.998 109.055H223.141V110.449H224.975V111.791H223.141V114.949C223.141 115.203 223.211 115.391 223.352 115.512C223.496 115.633 223.686 115.693 223.92 115.693ZM229.588 111.598C229.209 111.598 228.912 111.719 228.697 111.961C228.482 112.199 228.359 112.539 228.328 112.98H230.836C230.828 112.539 230.713 112.199 230.49 111.961C230.268 111.719 229.967 111.598 229.588 111.598ZM229.84 117.117C228.785 117.117 227.961 116.826 227.367 116.244C226.773 115.662 226.477 114.838 226.477 113.771C226.477 112.674 226.75 111.826 227.297 111.229C227.848 110.627 228.607 110.326 229.576 110.326C230.502 110.326 231.223 110.59 231.738 111.117C232.254 111.645 232.512 112.373 232.512 113.303V114.17H228.287C228.307 114.678 228.457 115.074 228.738 115.359C229.02 115.645 229.414 115.787 229.922 115.787C230.316 115.787 230.689 115.746 231.041 115.664C231.393 115.582 231.76 115.451 232.143 115.271V116.654C231.83 116.811 231.496 116.926 231.141 117C230.785 117.078 230.352 117.117 229.84 117.117ZM236.539 117.117C235.77 117.117 235.164 116.818 234.723 116.221C234.285 115.623 234.066 114.795 234.066 113.736C234.066 112.662 234.289 111.826 234.734 111.229C235.184 110.627 235.801 110.326 236.586 110.326C237.41 110.326 238.039 110.646 238.473 111.287H238.531C238.441 110.799 238.396 110.363 238.396 109.98V107.883H240.189V117H238.818L238.473 116.15H238.396C237.99 116.795 237.371 117.117 236.539 117.117ZM237.166 115.693C237.623 115.693 237.957 115.561 238.168 115.295C238.383 115.029 238.5 114.578 238.52 113.941V113.748C238.52 113.045 238.41 112.541 238.191 112.236C237.977 111.932 237.625 111.779 237.137 111.779C236.738 111.779 236.428 111.949 236.205 112.289C235.986 112.625 235.877 113.115 235.877 113.76C235.877 114.404 235.988 114.889 236.211 115.213C236.434 115.533 236.752 115.693 237.166 115.693ZM251.66 112.717C251.66 114.213 251.414 115.32 250.922 116.039C250.434 116.758 249.68 117.117 248.66 117.117C247.672 117.117 246.926 116.746 246.422 116.004C245.922 115.262 245.672 114.166 245.672 112.717C245.672 111.205 245.916 110.092 246.404 109.377C246.893 108.658 247.645 108.299 248.66 108.299C249.648 108.299 250.395 108.674 250.898 109.424C251.406 110.174 251.66 111.271 251.66 112.717ZM247.471 112.717C247.471 113.768 247.561 114.521 247.74 114.979C247.924 115.432 248.23 115.658 248.66 115.658C249.082 115.658 249.387 115.428 249.574 114.967C249.762 114.506 249.855 113.756 249.855 112.717C249.855 111.666 249.76 110.912 249.568 110.455C249.381 109.994 249.078 109.764 248.66 109.764C248.234 109.764 247.93 109.994 247.746 110.455C247.562 110.912 247.471 111.666 247.471 112.717ZM258.572 113.713C258.572 114.361 258.678 114.852 258.889 115.184C259.104 115.516 259.451 115.682 259.932 115.682C260.408 115.682 260.75 115.518 260.957 115.189C261.168 114.857 261.273 114.365 261.273 113.713C261.273 113.064 261.168 112.578 260.957 112.254C260.746 111.93 260.4 111.768 259.92 111.768C259.443 111.768 259.1 111.93 258.889 112.254C258.678 112.574 258.572 113.061 258.572 113.713ZM263.102 113.713C263.102 114.779 262.82 115.613 262.258 116.215C261.695 116.816 260.912 117.117 259.908 117.117C259.279 117.117 258.725 116.98 258.244 116.707C257.764 116.43 257.395 116.033 257.137 115.518C256.879 115.002 256.75 114.4 256.75 113.713C256.75 112.643 257.029 111.811 257.588 111.217C258.146 110.623 258.932 110.326 259.943 110.326C260.572 110.326 261.127 110.463 261.607 110.736C262.088 111.01 262.457 111.402 262.715 111.914C262.973 112.426 263.102 113.025 263.102 113.713ZM268.699 111.791H267.152V117H265.365V111.791H264.381V110.93L265.365 110.449V109.969C265.365 109.223 265.549 108.678 265.916 108.334C266.283 107.99 266.871 107.818 267.68 107.818C268.297 107.818 268.846 107.91 269.326 108.094L268.869 109.406C268.51 109.293 268.178 109.236 267.873 109.236C267.619 109.236 267.436 109.312 267.322 109.465C267.209 109.613 267.152 109.805 267.152 110.039V110.449H268.699V111.791ZM280.914 117H278.84L276.848 113.76L274.855 117H272.91L275.752 112.582L273.092 108.434H275.096L276.941 111.516L278.752 108.434H280.709L278.02 112.682L280.914 117Z" fill="#252A2E"/><g clip-path="url(#clip1_202_20790)"><rect x="172" y="141" width="200" height="14" rx="2" fill="#0063A3"/><rect x="172.5" y="140.5" width="199" height="15" rx="1.5" stroke="#A3A6B1"/></g><path d="M176.717 171.822C176.033 171.822 175.504 172.08 175.129 172.596C174.754 173.107 174.566 173.822 174.566 174.74C174.566 176.65 175.283 177.605 176.717 177.605C177.318 177.605 178.047 177.455 178.902 177.154V178.678C178.199 178.971 177.414 179.117 176.547 179.117C175.301 179.117 174.348 178.74 173.688 177.986C173.027 177.229 172.697 176.143 172.697 174.729C172.697 173.838 172.859 173.059 173.184 172.391C173.508 171.719 173.973 171.205 174.578 170.85C175.188 170.49 175.9 170.311 176.717 170.311C177.549 170.311 178.385 170.512 179.225 170.914L178.639 172.391C178.318 172.238 177.996 172.105 177.672 171.992C177.348 171.879 177.029 171.822 176.717 171.822ZM182.514 175.713C182.514 176.361 182.619 176.852 182.83 177.184C183.045 177.516 183.393 177.682 183.873 177.682C184.35 177.682 184.691 177.518 184.898 177.189C185.109 176.857 185.215 176.365 185.215 175.713C185.215 175.064 185.109 174.578 184.898 174.254C184.688 173.93 184.342 173.768 183.861 173.768C183.385 173.768 183.041 173.93 182.83 174.254C182.619 174.574 182.514 175.061 182.514 175.713ZM187.043 175.713C187.043 176.779 186.762 177.613 186.199 178.215C185.637 178.816 184.854 179.117 183.85 179.117C183.221 179.117 182.666 178.98 182.186 178.707C181.705 178.43 181.336 178.033 181.078 177.518C180.82 177.002 180.691 176.4 180.691 175.713C180.691 174.643 180.971 173.811 181.529 173.217C182.088 172.623 182.873 172.326 183.885 172.326C184.514 172.326 185.068 172.463 185.549 172.736C186.029 173.01 186.398 173.402 186.656 173.914C186.914 174.426 187.043 175.025 187.043 175.713ZM194.885 179H193.098V175.174C193.098 174.701 193.018 174.348 192.857 174.113C192.701 173.875 192.453 173.756 192.113 173.756C191.656 173.756 191.324 173.924 191.117 174.26C190.91 174.596 190.807 175.148 190.807 175.918V179H189.02V172.449H190.385L190.625 173.287H190.725C190.9 172.986 191.154 172.752 191.486 172.584C191.818 172.412 192.199 172.326 192.629 172.326C193.609 172.326 194.273 172.646 194.621 173.287H194.779C194.955 172.982 195.213 172.746 195.553 172.578C195.896 172.41 196.283 172.326 196.713 172.326C197.455 172.326 198.016 172.518 198.395 172.9C198.777 173.279 198.969 173.889 198.969 174.729V179H197.176V175.174C197.176 174.701 197.096 174.348 196.936 174.113C196.779 173.875 196.531 173.756 196.191 173.756C195.754 173.756 195.426 173.912 195.207 174.225C194.992 174.537 194.885 175.033 194.885 175.713V179ZM204.906 179.117C204.137 179.117 203.533 178.838 203.096 178.279H203.002C203.064 178.826 203.096 179.143 203.096 179.229V181.883H201.309V172.449H202.762L203.014 173.299H203.096C203.514 172.65 204.133 172.326 204.953 172.326C205.727 172.326 206.332 172.625 206.77 173.223C207.207 173.82 207.426 174.65 207.426 175.713C207.426 176.412 207.322 177.02 207.115 177.535C206.912 178.051 206.621 178.443 206.242 178.713C205.863 178.982 205.418 179.117 204.906 179.117ZM204.379 173.756C203.938 173.756 203.615 173.893 203.412 174.166C203.209 174.436 203.104 174.883 203.096 175.508V175.701C203.096 176.404 203.199 176.908 203.406 177.213C203.617 177.518 203.949 177.67 204.402 177.67C205.203 177.67 205.604 177.01 205.604 175.689C205.604 175.045 205.504 174.562 205.305 174.242C205.109 173.918 204.801 173.756 204.379 173.756ZM211.189 179H209.402V169.883H211.189V179ZM216.283 173.598C215.904 173.598 215.607 173.719 215.393 173.961C215.178 174.199 215.055 174.539 215.023 174.98H217.531C217.523 174.539 217.408 174.199 217.186 173.961C216.963 173.719 216.662 173.598 216.283 173.598ZM216.535 179.117C215.48 179.117 214.656 178.826 214.062 178.244C213.469 177.662 213.172 176.838 213.172 175.771C213.172 174.674 213.445 173.826 213.992 173.229C214.543 172.627 215.303 172.326 216.271 172.326C217.197 172.326 217.918 172.59 218.434 173.117C218.949 173.645 219.207 174.373 219.207 175.303V176.17H214.982C215.002 176.678 215.152 177.074 215.434 177.359C215.715 177.645 216.109 177.787 216.617 177.787C217.012 177.787 217.385 177.746 217.736 177.664C218.088 177.582 218.455 177.451 218.838 177.271V178.654C218.525 178.811 218.191 178.926 217.836 179C217.48 179.078 217.047 179.117 216.535 179.117ZM223.92 177.693C224.232 177.693 224.607 177.625 225.045 177.488V178.818C224.6 179.018 224.053 179.117 223.404 179.117C222.689 179.117 222.168 178.938 221.84 178.578C221.516 178.215 221.354 177.672 221.354 176.949V173.791H220.498V173.035L221.482 172.438L221.998 171.055H223.141V172.449H224.975V173.791H223.141V176.949C223.141 177.203 223.211 177.391 223.352 177.512C223.496 177.633 223.686 177.693 223.92 177.693ZM229.588 173.598C229.209 173.598 228.912 173.719 228.697 173.961C228.482 174.199 228.359 174.539 228.328 174.98H230.836C230.828 174.539 230.713 174.199 230.49 173.961C230.268 173.719 229.967 173.598 229.588 173.598ZM229.84 179.117C228.785 179.117 227.961 178.826 227.367 178.244C226.773 177.662 226.477 176.838 226.477 175.771C226.477 174.674 226.75 173.826 227.297 173.229C227.848 172.627 228.607 172.326 229.576 172.326C230.502 172.326 231.223 172.59 231.738 173.117C232.254 173.645 232.512 174.373 232.512 175.303V176.17H228.287C228.307 176.678 228.457 177.074 228.738 177.359C229.02 177.645 229.414 177.787 229.922 177.787C230.316 177.787 230.689 177.746 231.041 177.664C231.393 177.582 231.76 177.451 232.143 177.271V178.654C231.83 178.811 231.496 178.926 231.141 179C230.785 179.078 230.352 179.117 229.84 179.117ZM236.539 179.117C235.77 179.117 235.164 178.818 234.723 178.221C234.285 177.623 234.066 176.795 234.066 175.736C234.066 174.662 234.289 173.826 234.734 173.229C235.184 172.627 235.801 172.326 236.586 172.326C237.41 172.326 238.039 172.646 238.473 173.287H238.531C238.441 172.799 238.396 172.363 238.396 171.98V169.883H240.189V179H238.818L238.473 178.15H238.396C237.99 178.795 237.371 179.117 236.539 179.117ZM237.166 177.693C237.623 177.693 237.957 177.561 238.168 177.295C238.383 177.029 238.5 176.578 238.52 175.941V175.748C238.52 175.045 238.41 174.541 238.191 174.236C237.977 173.932 237.625 173.779 237.137 173.779C236.738 173.779 236.428 173.949 236.205 174.289C235.986 174.625 235.877 175.115 235.877 175.76C235.877 176.404 235.988 176.889 236.211 177.213C236.434 177.533 236.752 177.693 237.166 177.693ZM253.242 179H251.168L249.176 175.76L247.184 179H245.238L248.08 174.582L245.42 170.434H247.424L249.27 173.516L251.08 170.434H253.037L250.348 174.682L253.242 179ZM259.721 175.713C259.721 176.361 259.826 176.852 260.037 177.184C260.252 177.516 260.6 177.682 261.08 177.682C261.557 177.682 261.898 177.518 262.105 177.189C262.316 176.857 262.422 176.365 262.422 175.713C262.422 175.064 262.316 174.578 262.105 174.254C261.895 173.93 261.549 173.768 261.068 173.768C260.592 173.768 260.248 173.93 260.037 174.254C259.826 174.574 259.721 175.061 259.721 175.713ZM264.25 175.713C264.25 176.779 263.969 177.613 263.406 178.215C262.844 178.816 262.061 179.117 261.057 179.117C260.428 179.117 259.873 178.98 259.393 178.707C258.912 178.43 258.543 178.033 258.285 177.518C258.027 177.002 257.898 176.4 257.898 175.713C257.898 174.643 258.178 173.811 258.736 173.217C259.295 172.623 260.08 172.326 261.092 172.326C261.721 172.326 262.275 172.463 262.756 172.736C263.236 173.01 263.605 173.402 263.863 173.914C264.121 174.426 264.25 175.025 264.25 175.713ZM269.848 173.791H268.301V179H266.514V173.791H265.529V172.93L266.514 172.449V171.969C266.514 171.223 266.697 170.678 267.064 170.334C267.432 169.99 268.02 169.818 268.828 169.818C269.445 169.818 269.994 169.91 270.475 170.094L270.018 171.406C269.658 171.293 269.326 171.236 269.021 171.236C268.768 171.236 268.584 171.312 268.471 171.465C268.357 171.613 268.301 171.805 268.301 172.039V172.449H269.848V173.791ZM282.062 179H279.988L277.996 175.76L276.004 179H274.059L276.9 174.582L274.24 170.434H276.244L278.09 173.516L279.9 170.434H281.857L279.168 174.682L282.062 179Z" fill="#252A2E"/><path fill-rule="evenodd" clip-rule="evenodd" d="M495 141C506.598 141 516 131.598 516 120C516 108.402 506.598 99 495 99V102.818C504.489 102.818 512.182 110.511 512.182 120C512.182 129.489 504.489 137.182 495 137.182C485.511 137.182 477.818 129.489 477.818 120H474C474 131.598 483.402 141 495 141Z" fill="#0063A3"/><path fill-rule="evenodd" clip-rule="evenodd" d="M536 120C536 131.598 545.402 141 557 141C568.598 141 578 131.598 578 120L574.182 120C574.182 129.489 566.489 137.182 557 137.182C547.511 137.182 539.818 129.489 539.818 120C539.818 110.511 547.511 102.818 557 102.818L557 99C545.402 99 536 108.402 536 120Z" fill="#0063A3"/><path fill-rule="evenodd" clip-rule="evenodd" d="M619 99C607.402 99 598 108.402 598 120C598 131.598 607.402 141 619 141V137.182C609.511 137.182 601.818 129.489 601.818 120C601.818 110.511 609.511 102.818 619 102.818C628.489 102.818 636.182 110.511 636.182 120H640C640 108.402 630.598 99 619 99Z" fill="#0063A3"/><path fill-rule="evenodd" clip-rule="evenodd" d="M702 120C702 108.402 692.598 99 681 99C669.402 99 660 108.402 660 120L663.818 120C663.818 110.511 671.511 102.818 681 102.818C690.489 102.818 698.182 110.511 698.182 120C698.182 129.489 690.489 137.182 681 137.182L681 141C692.598 141 702 131.598 702 120Z" fill="#0063A3"/><defs><clipPath id="clip0_202_20790"><rect x="172" y="78" width="200" height="16" rx="2" fill="#fff"/></clipPath><clipPath id="clip1_202_20790"><rect x="172" y="140" width="200" height="16" rx="2" fill="#fff"/></clipPath></defs></svg>