<svg width="824" height="260" viewBox="0 0 824 260" fill="none" xmlns="http://www.w3.org/2000/svg"><rect width="824" height="260" fill="#252A2E"/><g clip-path="url(#clip0_202_20793)"><rect x="180.5" y="78.5" width="199" height="15" rx="1.5" stroke="#6A6E79"/></g><path d="M184.717 109.822C184.033 109.822 183.504 110.08 183.129 110.596C182.754 111.107 182.566 111.822 182.566 112.74C182.566 114.65 183.283 115.605 184.717 115.605C185.318 115.605 186.047 115.455 186.902 115.154V116.678C186.199 116.971 185.414 117.117 184.547 117.117C183.301 117.117 182.348 116.74 181.688 115.986C181.027 115.229 180.697 114.143 180.697 112.729C180.697 111.838 180.859 111.059 181.184 110.391C181.508 109.719 181.973 109.205 182.578 108.85C183.188 108.49 183.9 108.311 184.717 108.311C185.549 108.311 186.385 108.512 187.225 108.914L186.639 110.391C186.318 110.238 185.996 110.105 185.672 109.992C185.348 109.879 185.029 109.822 184.717 109.822ZM190.514 113.713C190.514 114.361 190.619 114.852 190.83 115.184C191.045 115.516 191.393 115.682 191.873 115.682C192.35 115.682 192.691 115.518 192.898 115.189C193.109 114.857 193.215 114.365 193.215 113.713C193.215 113.064 193.109 112.578 192.898 112.254C192.688 111.93 192.342 111.768 191.861 111.768C191.385 111.768 191.041 111.93 190.83 112.254C190.619 112.574 190.514 113.061 190.514 113.713ZM195.043 113.713C195.043 114.779 194.762 115.613 194.199 116.215C193.637 116.816 192.854 117.117 191.85 117.117C191.221 117.117 190.666 116.98 190.186 116.707C189.705 116.43 189.336 116.033 189.078 115.518C188.82 115.002 188.691 114.4 188.691 113.713C188.691 112.643 188.971 111.811 189.529 111.217C190.088 110.623 190.873 110.326 191.885 110.326C192.514 110.326 193.068 110.463 193.549 110.736C194.029 111.01 194.398 111.402 194.656 111.914C194.914 112.426 195.043 113.025 195.043 113.713ZM202.885 117H201.098V113.174C201.098 112.701 201.018 112.348 200.857 112.113C200.701 111.875 200.453 111.756 200.113 111.756C199.656 111.756 199.324 111.924 199.117 112.26C198.91 112.596 198.807 113.148 198.807 113.918V117H197.02V110.449H198.385L198.625 111.287H198.725C198.9 110.986 199.154 110.752 199.486 110.584C199.818 110.412 200.199 110.326 200.629 110.326C201.609 110.326 202.273 110.646 202.621 111.287H202.779C202.955 110.982 203.213 110.746 203.553 110.578C203.896 110.41 204.283 110.326 204.713 110.326C205.455 110.326 206.016 110.518 206.395 110.9C206.777 111.279 206.969 111.889 206.969 112.729V117H205.176V113.174C205.176 112.701 205.096 112.348 204.936 112.113C204.779 111.875 204.531 111.756 204.191 111.756C203.754 111.756 203.426 111.912 203.207 112.225C202.992 112.537 202.885 113.033 202.885 113.713V117ZM212.906 117.117C212.137 117.117 211.533 116.838 211.096 116.279H211.002C211.064 116.826 211.096 117.143 211.096 117.229V119.883H209.309V110.449H210.762L211.014 111.299H211.096C211.514 110.65 212.133 110.326 212.953 110.326C213.727 110.326 214.332 110.625 214.77 111.223C215.207 111.82 215.426 112.65 215.426 113.713C215.426 114.412 215.322 115.02 215.115 115.535C214.912 116.051 214.621 116.443 214.242 116.713C213.863 116.982 213.418 117.117 212.906 117.117ZM212.379 111.756C211.938 111.756 211.615 111.893 211.412 112.166C211.209 112.436 211.104 112.883 211.096 113.508V113.701C211.096 114.404 211.199 114.908 211.406 115.213C211.617 115.518 211.949 115.67 212.402 115.67C213.203 115.67 213.604 115.01 213.604 113.689C213.604 113.045 213.504 112.562 213.305 112.242C213.109 111.918 212.801 111.756 212.379 111.756ZM219.189 117H217.402V107.883H219.189V117ZM224.283 111.598C223.904 111.598 223.607 111.719 223.393 111.961C223.178 112.199 223.055 112.539 223.023 112.98H225.531C225.523 112.539 225.408 112.199 225.186 111.961C224.963 111.719 224.662 111.598 224.283 111.598ZM224.535 117.117C223.48 117.117 222.656 116.826 222.062 116.244C221.469 115.662 221.172 114.838 221.172 113.771C221.172 112.674 221.445 111.826 221.992 111.229C222.543 110.627 223.303 110.326 224.271 110.326C225.197 110.326 225.918 110.59 226.434 111.117C226.949 111.645 227.207 112.373 227.207 113.303V114.17H222.982C223.002 114.678 223.152 115.074 223.434 115.359C223.715 115.645 224.109 115.787 224.617 115.787C225.012 115.787 225.385 115.746 225.736 115.664C226.088 115.582 226.455 115.451 226.838 115.271V116.654C226.525 116.811 226.191 116.926 225.836 117C225.48 117.078 225.047 117.117 224.535 117.117ZM231.92 115.693C232.232 115.693 232.607 115.625 233.045 115.488V116.818C232.6 117.018 232.053 117.117 231.404 117.117C230.689 117.117 230.168 116.938 229.84 116.578C229.516 116.215 229.354 115.672 229.354 114.949V111.791H228.498V111.035L229.482 110.438L229.998 109.055H231.141V110.449H232.975V111.791H231.141V114.949C231.141 115.203 231.211 115.391 231.352 115.512C231.496 115.633 231.686 115.693 231.92 115.693ZM237.588 111.598C237.209 111.598 236.912 111.719 236.697 111.961C236.482 112.199 236.359 112.539 236.328 112.98H238.836C238.828 112.539 238.713 112.199 238.49 111.961C238.268 111.719 237.967 111.598 237.588 111.598ZM237.84 117.117C236.785 117.117 235.961 116.826 235.367 116.244C234.773 115.662 234.477 114.838 234.477 113.771C234.477 112.674 234.75 111.826 235.297 111.229C235.848 110.627 236.607 110.326 237.576 110.326C238.502 110.326 239.223 110.59 239.738 111.117C240.254 111.645 240.512 112.373 240.512 113.303V114.17H236.287C236.307 114.678 236.457 115.074 236.738 115.359C237.02 115.645 237.414 115.787 237.922 115.787C238.316 115.787 238.689 115.746 239.041 115.664C239.393 115.582 239.76 115.451 240.143 115.271V116.654C239.83 116.811 239.496 116.926 239.141 117C238.785 117.078 238.352 117.117 237.84 117.117ZM244.539 117.117C243.77 117.117 243.164 116.818 242.723 116.221C242.285 115.623 242.066 114.795 242.066 113.736C242.066 112.662 242.289 111.826 242.734 111.229C243.184 110.627 243.801 110.326 244.586 110.326C245.41 110.326 246.039 110.646 246.473 111.287H246.531C246.441 110.799 246.396 110.363 246.396 109.98V107.883H248.189V117H246.818L246.473 116.15H246.396C245.99 116.795 245.371 117.117 244.539 117.117ZM245.166 115.693C245.623 115.693 245.957 115.561 246.168 115.295C246.383 115.029 246.5 114.578 246.52 113.941V113.748C246.52 113.045 246.41 112.541 246.191 112.236C245.977 111.932 245.625 111.779 245.137 111.779C244.738 111.779 244.428 111.949 244.205 112.289C243.986 112.625 243.877 113.115 243.877 113.76C243.877 114.404 243.988 114.889 244.211 115.213C244.434 115.533 244.752 115.693 245.166 115.693ZM259.66 112.717C259.66 114.213 259.414 115.32 258.922 116.039C258.434 116.758 257.68 117.117 256.66 117.117C255.672 117.117 254.926 116.746 254.422 116.004C253.922 115.262 253.672 114.166 253.672 112.717C253.672 111.205 253.916 110.092 254.404 109.377C254.893 108.658 255.645 108.299 256.66 108.299C257.648 108.299 258.395 108.674 258.898 109.424C259.406 110.174 259.66 111.271 259.66 112.717ZM255.471 112.717C255.471 113.768 255.561 114.521 255.74 114.979C255.924 115.432 256.23 115.658 256.66 115.658C257.082 115.658 257.387 115.428 257.574 114.967C257.762 114.506 257.855 113.756 257.855 112.717C257.855 111.666 257.76 110.912 257.568 110.455C257.381 109.994 257.078 109.764 256.66 109.764C256.234 109.764 255.93 109.994 255.746 110.455C255.562 110.912 255.471 111.666 255.471 112.717ZM266.572 113.713C266.572 114.361 266.678 114.852 266.889 115.184C267.104 115.516 267.451 115.682 267.932 115.682C268.408 115.682 268.75 115.518 268.957 115.189C269.168 114.857 269.273 114.365 269.273 113.713C269.273 113.064 269.168 112.578 268.957 112.254C268.746 111.93 268.4 111.768 267.92 111.768C267.443 111.768 267.1 111.93 266.889 112.254C266.678 112.574 266.572 113.061 266.572 113.713ZM271.102 113.713C271.102 114.779 270.82 115.613 270.258 116.215C269.695 116.816 268.912 117.117 267.908 117.117C267.279 117.117 266.725 116.98 266.244 116.707C265.764 116.43 265.395 116.033 265.137 115.518C264.879 115.002 264.75 114.4 264.75 113.713C264.75 112.643 265.029 111.811 265.588 111.217C266.146 110.623 266.932 110.326 267.943 110.326C268.572 110.326 269.127 110.463 269.607 110.736C270.088 111.01 270.457 111.402 270.715 111.914C270.973 112.426 271.102 113.025 271.102 113.713ZM276.699 111.791H275.152V117H273.365V111.791H272.381V110.93L273.365 110.449V109.969C273.365 109.223 273.549 108.678 273.916 108.334C274.283 107.99 274.871 107.818 275.68 107.818C276.297 107.818 276.846 107.91 277.326 108.094L276.869 109.406C276.51 109.293 276.178 109.236 275.873 109.236C275.619 109.236 275.436 109.312 275.322 109.465C275.209 109.613 275.152 109.805 275.152 110.039V110.449H276.699V111.791ZM288.914 117H286.84L284.848 113.76L282.855 117H280.91L283.752 112.582L281.092 108.434H283.096L284.941 111.516L286.752 108.434H288.709L286.02 112.682L288.914 117Z" fill="#fff"/><g clip-path="url(#clip1_202_20793)"><rect x="180" y="141" width="200" height="14" rx="2" fill="#019AEB"/><rect x="180.5" y="140.5" width="199" height="15" rx="1.5" stroke="#6A6E79"/></g><path d="M184.717 171.822C184.033 171.822 183.504 172.08 183.129 172.596C182.754 173.107 182.566 173.822 182.566 174.74C182.566 176.65 183.283 177.605 184.717 177.605C185.318 177.605 186.047 177.455 186.902 177.154V178.678C186.199 178.971 185.414 179.117 184.547 179.117C183.301 179.117 182.348 178.74 181.688 177.986C181.027 177.229 180.697 176.143 180.697 174.729C180.697 173.838 180.859 173.059 181.184 172.391C181.508 171.719 181.973 171.205 182.578 170.85C183.188 170.49 183.9 170.311 184.717 170.311C185.549 170.311 186.385 170.512 187.225 170.914L186.639 172.391C186.318 172.238 185.996 172.105 185.672 171.992C185.348 171.879 185.029 171.822 184.717 171.822ZM190.514 175.713C190.514 176.361 190.619 176.852 190.83 177.184C191.045 177.516 191.393 177.682 191.873 177.682C192.35 177.682 192.691 177.518 192.898 177.189C193.109 176.857 193.215 176.365 193.215 175.713C193.215 175.064 193.109 174.578 192.898 174.254C192.688 173.93 192.342 173.768 191.861 173.768C191.385 173.768 191.041 173.93 190.83 174.254C190.619 174.574 190.514 175.061 190.514 175.713ZM195.043 175.713C195.043 176.779 194.762 177.613 194.199 178.215C193.637 178.816 192.854 179.117 191.85 179.117C191.221 179.117 190.666 178.98 190.186 178.707C189.705 178.43 189.336 178.033 189.078 177.518C188.82 177.002 188.691 176.4 188.691 175.713C188.691 174.643 188.971 173.811 189.529 173.217C190.088 172.623 190.873 172.326 191.885 172.326C192.514 172.326 193.068 172.463 193.549 172.736C194.029 173.01 194.398 173.402 194.656 173.914C194.914 174.426 195.043 175.025 195.043 175.713ZM202.885 179H201.098V175.174C201.098 174.701 201.018 174.348 200.857 174.113C200.701 173.875 200.453 173.756 200.113 173.756C199.656 173.756 199.324 173.924 199.117 174.26C198.91 174.596 198.807 175.148 198.807 175.918V179H197.02V172.449H198.385L198.625 173.287H198.725C198.9 172.986 199.154 172.752 199.486 172.584C199.818 172.412 200.199 172.326 200.629 172.326C201.609 172.326 202.273 172.646 202.621 173.287H202.779C202.955 172.982 203.213 172.746 203.553 172.578C203.896 172.41 204.283 172.326 204.713 172.326C205.455 172.326 206.016 172.518 206.395 172.9C206.777 173.279 206.969 173.889 206.969 174.729V179H205.176V175.174C205.176 174.701 205.096 174.348 204.936 174.113C204.779 173.875 204.531 173.756 204.191 173.756C203.754 173.756 203.426 173.912 203.207 174.225C202.992 174.537 202.885 175.033 202.885 175.713V179ZM212.906 179.117C212.137 179.117 211.533 178.838 211.096 178.279H211.002C211.064 178.826 211.096 179.143 211.096 179.229V181.883H209.309V172.449H210.762L211.014 173.299H211.096C211.514 172.65 212.133 172.326 212.953 172.326C213.727 172.326 214.332 172.625 214.77 173.223C215.207 173.82 215.426 174.65 215.426 175.713C215.426 176.412 215.322 177.02 215.115 177.535C214.912 178.051 214.621 178.443 214.242 178.713C213.863 178.982 213.418 179.117 212.906 179.117ZM212.379 173.756C211.938 173.756 211.615 173.893 211.412 174.166C211.209 174.436 211.104 174.883 211.096 175.508V175.701C211.096 176.404 211.199 176.908 211.406 177.213C211.617 177.518 211.949 177.67 212.402 177.67C213.203 177.67 213.604 177.01 213.604 175.689C213.604 175.045 213.504 174.562 213.305 174.242C213.109 173.918 212.801 173.756 212.379 173.756ZM219.189 179H217.402V169.883H219.189V179ZM224.283 173.598C223.904 173.598 223.607 173.719 223.393 173.961C223.178 174.199 223.055 174.539 223.023 174.98H225.531C225.523 174.539 225.408 174.199 225.186 173.961C224.963 173.719 224.662 173.598 224.283 173.598ZM224.535 179.117C223.48 179.117 222.656 178.826 222.062 178.244C221.469 177.662 221.172 176.838 221.172 175.771C221.172 174.674 221.445 173.826 221.992 173.229C222.543 172.627 223.303 172.326 224.271 172.326C225.197 172.326 225.918 172.59 226.434 173.117C226.949 173.645 227.207 174.373 227.207 175.303V176.17H222.982C223.002 176.678 223.152 177.074 223.434 177.359C223.715 177.645 224.109 177.787 224.617 177.787C225.012 177.787 225.385 177.746 225.736 177.664C226.088 177.582 226.455 177.451 226.838 177.271V178.654C226.525 178.811 226.191 178.926 225.836 179C225.48 179.078 225.047 179.117 224.535 179.117ZM231.92 177.693C232.232 177.693 232.607 177.625 233.045 177.488V178.818C232.6 179.018 232.053 179.117 231.404 179.117C230.689 179.117 230.168 178.938 229.84 178.578C229.516 178.215 229.354 177.672 229.354 176.949V173.791H228.498V173.035L229.482 172.438L229.998 171.055H231.141V172.449H232.975V173.791H231.141V176.949C231.141 177.203 231.211 177.391 231.352 177.512C231.496 177.633 231.686 177.693 231.92 177.693ZM237.588 173.598C237.209 173.598 236.912 173.719 236.697 173.961C236.482 174.199 236.359 174.539 236.328 174.98H238.836C238.828 174.539 238.713 174.199 238.49 173.961C238.268 173.719 237.967 173.598 237.588 173.598ZM237.84 179.117C236.785 179.117 235.961 178.826 235.367 178.244C234.773 177.662 234.477 176.838 234.477 175.771C234.477 174.674 234.75 173.826 235.297 173.229C235.848 172.627 236.607 172.326 237.576 172.326C238.502 172.326 239.223 172.59 239.738 173.117C240.254 173.645 240.512 174.373 240.512 175.303V176.17H236.287C236.307 176.678 236.457 177.074 236.738 177.359C237.02 177.645 237.414 177.787 237.922 177.787C238.316 177.787 238.689 177.746 239.041 177.664C239.393 177.582 239.76 177.451 240.143 177.271V178.654C239.83 178.811 239.496 178.926 239.141 179C238.785 179.078 238.352 179.117 237.84 179.117ZM244.539 179.117C243.77 179.117 243.164 178.818 242.723 178.221C242.285 177.623 242.066 176.795 242.066 175.736C242.066 174.662 242.289 173.826 242.734 173.229C243.184 172.627 243.801 172.326 244.586 172.326C245.41 172.326 246.039 172.646 246.473 173.287H246.531C246.441 172.799 246.396 172.363 246.396 171.98V169.883H248.189V179H246.818L246.473 178.15H246.396C245.99 178.795 245.371 179.117 244.539 179.117ZM245.166 177.693C245.623 177.693 245.957 177.561 246.168 177.295C246.383 177.029 246.5 176.578 246.52 175.941V175.748C246.52 175.045 246.41 174.541 246.191 174.236C245.977 173.932 245.625 173.779 245.137 173.779C244.738 173.779 244.428 173.949 244.205 174.289C243.986 174.625 243.877 175.115 243.877 175.76C243.877 176.404 243.988 176.889 244.211 177.213C244.434 177.533 244.752 177.693 245.166 177.693ZM261.242 179H259.168L257.176 175.76L255.184 179H253.238L256.08 174.582L253.42 170.434H255.424L257.27 173.516L259.08 170.434H261.037L258.348 174.682L261.242 179ZM267.721 175.713C267.721 176.361 267.826 176.852 268.037 177.184C268.252 177.516 268.6 177.682 269.08 177.682C269.557 177.682 269.898 177.518 270.105 177.189C270.316 176.857 270.422 176.365 270.422 175.713C270.422 175.064 270.316 174.578 270.105 174.254C269.895 173.93 269.549 173.768 269.068 173.768C268.592 173.768 268.248 173.93 268.037 174.254C267.826 174.574 267.721 175.061 267.721 175.713ZM272.25 175.713C272.25 176.779 271.969 177.613 271.406 178.215C270.844 178.816 270.061 179.117 269.057 179.117C268.428 179.117 267.873 178.98 267.393 178.707C266.912 178.43 266.543 178.033 266.285 177.518C266.027 177.002 265.898 176.4 265.898 175.713C265.898 174.643 266.178 173.811 266.736 173.217C267.295 172.623 268.08 172.326 269.092 172.326C269.721 172.326 270.275 172.463 270.756 172.736C271.236 173.01 271.605 173.402 271.863 173.914C272.121 174.426 272.25 175.025 272.25 175.713ZM277.848 173.791H276.301V179H274.514V173.791H273.529V172.93L274.514 172.449V171.969C274.514 171.223 274.697 170.678 275.064 170.334C275.432 169.99 276.02 169.818 276.828 169.818C277.445 169.818 277.994 169.91 278.475 170.094L278.018 171.406C277.658 171.293 277.326 171.236 277.021 171.236C276.768 171.236 276.584 171.312 276.471 171.465C276.357 171.613 276.301 171.805 276.301 172.039V172.449H277.848V173.791ZM290.062 179H287.988L285.996 175.76L284.004 179H282.059L284.9 174.582L282.24 170.434H284.244L286.09 173.516L287.9 170.434H289.857L287.168 174.682L290.062 179Z" fill="#fff"/><path fill-rule="evenodd" clip-rule="evenodd" d="M495 140C506.598 140 516 130.598 516 119C516 107.402 506.598 98 495 98V101.818C504.489 101.818 512.182 109.511 512.182 119C512.182 128.489 504.489 136.182 495 136.182C485.511 136.182 477.818 128.489 477.818 119H474C474 130.598 483.402 140 495 140Z" fill="#019AEB"/><path fill-rule="evenodd" clip-rule="evenodd" d="M536 119C536 130.598 545.402 140 557 140C568.598 140 578 130.598 578 119L574.182 119C574.182 128.489 566.489 136.182 557 136.182C547.511 136.182 539.818 128.489 539.818 119C539.818 109.511 547.511 101.818 557 101.818L557 98C545.402 98 536 107.402 536 119Z" fill="#019AEB"/><path fill-rule="evenodd" clip-rule="evenodd" d="M619 98C607.402 98 598 107.402 598 119C598 130.598 607.402 140 619 140V136.182C609.511 136.182 601.818 128.489 601.818 119C601.818 109.511 609.511 101.818 619 101.818C628.489 101.818 636.182 109.511 636.182 119H640C640 107.402 630.598 98 619 98Z" fill="#019AEB"/><path fill-rule="evenodd" clip-rule="evenodd" d="M702 119C702 107.402 692.598 98 681 98C669.402 98 660 107.402 660 119L663.818 119C663.818 109.511 671.511 101.818 681 101.818C690.489 101.818 698.182 109.511 698.182 119C698.182 128.489 690.489 136.182 681 136.182L681 140C692.598 140 702 130.598 702 119Z" fill="#019AEB"/><defs><clipPath id="clip0_202_20793"><rect x="180" y="78" width="200" height="16" rx="2" fill="#fff"/></clipPath><clipPath id="clip1_202_20793"><rect x="180" y="140" width="200" height="16" rx="2" fill="#fff"/></clipPath></defs></svg>