<svg width="961" height="260" viewBox="0 0 961 260" fill="none" xmlns="http://www.w3.org/2000/svg">
<rect width="961" height="260" fill="#252A2E"/>
<g clip-path="url(#clip0_431_73300)">
<rect x="258.5" y="78.5" width="199" height="15" rx="1.5" stroke="#6A6E79"/>
</g>
<path d="M262.717 109.822C262.033 109.822 261.504 110.08 261.129 110.596C260.754 111.107 260.566 111.822 260.566 112.74C260.566 114.65 261.283 115.605 262.717 115.605C263.318 115.605 264.047 115.455 264.902 115.154V116.678C264.199 116.971 263.414 117.117 262.547 117.117C261.301 117.117 260.348 116.74 259.688 115.986C259.027 115.229 258.697 114.143 258.697 112.729C258.697 111.838 258.859 111.059 259.184 110.391C259.508 109.719 259.973 109.205 260.578 108.85C261.188 108.49 261.9 108.311 262.717 108.311C263.549 108.311 264.385 108.512 265.225 108.914L264.639 110.391C264.318 110.238 263.996 110.105 263.672 109.992C263.348 109.879 263.029 109.822 262.717 109.822ZM268.514 113.713C268.514 114.361 268.619 114.852 268.83 115.184C269.045 115.516 269.393 115.682 269.873 115.682C270.35 115.682 270.691 115.518 270.898 115.189C271.109 114.857 271.215 114.365 271.215 113.713C271.215 113.064 271.109 112.578 270.898 112.254C270.688 111.93 270.342 111.768 269.861 111.768C269.385 111.768 269.041 111.93 268.83 112.254C268.619 112.574 268.514 113.061 268.514 113.713ZM273.043 113.713C273.043 114.779 272.762 115.613 272.199 116.215C271.637 116.816 270.854 117.117 269.85 117.117C269.221 117.117 268.666 116.98 268.186 116.707C267.705 116.43 267.336 116.033 267.078 115.518C266.82 115.002 266.691 114.4 266.691 113.713C266.691 112.643 266.971 111.811 267.529 111.217C268.088 110.623 268.873 110.326 269.885 110.326C270.514 110.326 271.068 110.463 271.549 110.736C272.029 111.01 272.398 111.402 272.656 111.914C272.914 112.426 273.043 113.025 273.043 113.713ZM280.885 117H279.098V113.174C279.098 112.701 279.018 112.348 278.857 112.113C278.701 111.875 278.453 111.756 278.113 111.756C277.656 111.756 277.324 111.924 277.117 112.26C276.91 112.596 276.807 113.148 276.807 113.918V117H275.02V110.449H276.385L276.625 111.287H276.725C276.9 110.986 277.154 110.752 277.486 110.584C277.818 110.412 278.199 110.326 278.629 110.326C279.609 110.326 280.273 110.646 280.621 111.287H280.779C280.955 110.982 281.213 110.746 281.553 110.578C281.896 110.41 282.283 110.326 282.713 110.326C283.455 110.326 284.016 110.518 284.395 110.9C284.777 111.279 284.969 111.889 284.969 112.729V117H283.176V113.174C283.176 112.701 283.096 112.348 282.936 112.113C282.779 111.875 282.531 111.756 282.191 111.756C281.754 111.756 281.426 111.912 281.207 112.225C280.992 112.537 280.885 113.033 280.885 113.713V117ZM290.906 117.117C290.137 117.117 289.533 116.838 289.096 116.279H289.002C289.064 116.826 289.096 117.143 289.096 117.229V119.883H287.309V110.449H288.762L289.014 111.299H289.096C289.514 110.65 290.133 110.326 290.953 110.326C291.727 110.326 292.332 110.625 292.77 111.223C293.207 111.82 293.426 112.65 293.426 113.713C293.426 114.412 293.322 115.02 293.115 115.535C292.912 116.051 292.621 116.443 292.242 116.713C291.863 116.982 291.418 117.117 290.906 117.117ZM290.379 111.756C289.938 111.756 289.615 111.893 289.412 112.166C289.209 112.436 289.104 112.883 289.096 113.508V113.701C289.096 114.404 289.199 114.908 289.406 115.213C289.617 115.518 289.949 115.67 290.402 115.67C291.203 115.67 291.604 115.01 291.604 113.689C291.604 113.045 291.504 112.562 291.305 112.242C291.109 111.918 290.801 111.756 290.379 111.756ZM297.189 117H295.402V107.883H297.189V117ZM302.283 111.598C301.904 111.598 301.607 111.719 301.393 111.961C301.178 112.199 301.055 112.539 301.023 112.98H303.531C303.523 112.539 303.408 112.199 303.186 111.961C302.963 111.719 302.662 111.598 302.283 111.598ZM302.535 117.117C301.48 117.117 300.656 116.826 300.062 116.244C299.469 115.662 299.172 114.838 299.172 113.771C299.172 112.674 299.445 111.826 299.992 111.229C300.543 110.627 301.303 110.326 302.271 110.326C303.197 110.326 303.918 110.59 304.434 111.117C304.949 111.645 305.207 112.373 305.207 113.303V114.17H300.982C301.002 114.678 301.152 115.074 301.434 115.359C301.715 115.645 302.109 115.787 302.617 115.787C303.012 115.787 303.385 115.746 303.736 115.664C304.088 115.582 304.455 115.451 304.838 115.271V116.654C304.525 116.811 304.191 116.926 303.836 117C303.48 117.078 303.047 117.117 302.535 117.117ZM309.92 115.693C310.232 115.693 310.607 115.625 311.045 115.488V116.818C310.6 117.018 310.053 117.117 309.404 117.117C308.689 117.117 308.168 116.938 307.84 116.578C307.516 116.215 307.354 115.672 307.354 114.949V111.791H306.498V111.035L307.482 110.438L307.998 109.055H309.141V110.449H310.975V111.791H309.141V114.949C309.141 115.203 309.211 115.391 309.352 115.512C309.496 115.633 309.686 115.693 309.92 115.693ZM315.588 111.598C315.209 111.598 314.912 111.719 314.697 111.961C314.482 112.199 314.359 112.539 314.328 112.98H316.836C316.828 112.539 316.713 112.199 316.49 111.961C316.268 111.719 315.967 111.598 315.588 111.598ZM315.84 117.117C314.785 117.117 313.961 116.826 313.367 116.244C312.773 115.662 312.477 114.838 312.477 113.771C312.477 112.674 312.75 111.826 313.297 111.229C313.848 110.627 314.607 110.326 315.576 110.326C316.502 110.326 317.223 110.59 317.738 111.117C318.254 111.645 318.512 112.373 318.512 113.303V114.17H314.287C314.307 114.678 314.457 115.074 314.738 115.359C315.02 115.645 315.414 115.787 315.922 115.787C316.316 115.787 316.689 115.746 317.041 115.664C317.393 115.582 317.76 115.451 318.143 115.271V116.654C317.83 116.811 317.496 116.926 317.141 117C316.785 117.078 316.352 117.117 315.84 117.117ZM322.539 117.117C321.77 117.117 321.164 116.818 320.723 116.221C320.285 115.623 320.066 114.795 320.066 113.736C320.066 112.662 320.289 111.826 320.734 111.229C321.184 110.627 321.801 110.326 322.586 110.326C323.41 110.326 324.039 110.646 324.473 111.287H324.531C324.441 110.799 324.396 110.363 324.396 109.98V107.883H326.189V117H324.818L324.473 116.15H324.396C323.99 116.795 323.371 117.117 322.539 117.117ZM323.166 115.693C323.623 115.693 323.957 115.561 324.168 115.295C324.383 115.029 324.5 114.578 324.52 113.941V113.748C324.52 113.045 324.41 112.541 324.191 112.236C323.977 111.932 323.625 111.779 323.137 111.779C322.738 111.779 322.428 111.949 322.205 112.289C321.986 112.625 321.877 113.115 321.877 113.76C321.877 114.404 321.988 114.889 322.211 115.213C322.434 115.533 322.752 115.693 323.166 115.693ZM337.66 112.717C337.66 114.213 337.414 115.32 336.922 116.039C336.434 116.758 335.68 117.117 334.66 117.117C333.672 117.117 332.926 116.746 332.422 116.004C331.922 115.262 331.672 114.166 331.672 112.717C331.672 111.205 331.916 110.092 332.404 109.377C332.893 108.658 333.645 108.299 334.66 108.299C335.648 108.299 336.395 108.674 336.898 109.424C337.406 110.174 337.66 111.271 337.66 112.717ZM333.471 112.717C333.471 113.768 333.561 114.521 333.74 114.979C333.924 115.432 334.23 115.658 334.66 115.658C335.082 115.658 335.387 115.428 335.574 114.967C335.762 114.506 335.855 113.756 335.855 112.717C335.855 111.666 335.76 110.912 335.568 110.455C335.381 109.994 335.078 109.764 334.66 109.764C334.234 109.764 333.93 109.994 333.746 110.455C333.562 110.912 333.471 111.666 333.471 112.717ZM344.572 113.713C344.572 114.361 344.678 114.852 344.889 115.184C345.104 115.516 345.451 115.682 345.932 115.682C346.408 115.682 346.75 115.518 346.957 115.189C347.168 114.857 347.273 114.365 347.273 113.713C347.273 113.064 347.168 112.578 346.957 112.254C346.746 111.93 346.4 111.768 345.92 111.768C345.443 111.768 345.1 111.93 344.889 112.254C344.678 112.574 344.572 113.061 344.572 113.713ZM349.102 113.713C349.102 114.779 348.82 115.613 348.258 116.215C347.695 116.816 346.912 117.117 345.908 117.117C345.279 117.117 344.725 116.98 344.244 116.707C343.764 116.43 343.395 116.033 343.137 115.518C342.879 115.002 342.75 114.4 342.75 113.713C342.75 112.643 343.029 111.811 343.588 111.217C344.146 110.623 344.932 110.326 345.943 110.326C346.572 110.326 347.127 110.463 347.607 110.736C348.088 111.01 348.457 111.402 348.715 111.914C348.973 112.426 349.102 113.025 349.102 113.713ZM354.699 111.791H353.152V117H351.365V111.791H350.381V110.93L351.365 110.449V109.969C351.365 109.223 351.549 108.678 351.916 108.334C352.283 107.99 352.871 107.818 353.68 107.818C354.297 107.818 354.846 107.91 355.326 108.094L354.869 109.406C354.51 109.293 354.178 109.236 353.873 109.236C353.619 109.236 353.436 109.312 353.322 109.465C353.209 109.613 353.152 109.805 353.152 110.039V110.449H354.699V111.791ZM366.914 117H364.84L362.848 113.76L360.855 117H358.91L361.752 112.582L359.092 108.434H361.096L362.941 111.516L364.752 108.434H366.709L364.02 112.682L366.914 117Z" fill="white"/>
<g clip-path="url(#clip1_431_73300)">
<rect x="258" y="141" width="200" height="14" rx="2" fill="#019AEB"/>
<rect x="258.5" y="140.5" width="199" height="15" rx="1.5" stroke="#6A6E79"/>
</g>
<path d="M262.717 171.822C262.033 171.822 261.504 172.08 261.129 172.596C260.754 173.107 260.566 173.822 260.566 174.74C260.566 176.65 261.283 177.605 262.717 177.605C263.318 177.605 264.047 177.455 264.902 177.154V178.678C264.199 178.971 263.414 179.117 262.547 179.117C261.301 179.117 260.348 178.74 259.688 177.986C259.027 177.229 258.697 176.143 258.697 174.729C258.697 173.838 258.859 173.059 259.184 172.391C259.508 171.719 259.973 171.205 260.578 170.85C261.188 170.49 261.9 170.311 262.717 170.311C263.549 170.311 264.385 170.512 265.225 170.914L264.639 172.391C264.318 172.238 263.996 172.105 263.672 171.992C263.348 171.879 263.029 171.822 262.717 171.822ZM268.514 175.713C268.514 176.361 268.619 176.852 268.83 177.184C269.045 177.516 269.393 177.682 269.873 177.682C270.35 177.682 270.691 177.518 270.898 177.189C271.109 176.857 271.215 176.365 271.215 175.713C271.215 175.064 271.109 174.578 270.898 174.254C270.688 173.93 270.342 173.768 269.861 173.768C269.385 173.768 269.041 173.93 268.83 174.254C268.619 174.574 268.514 175.061 268.514 175.713ZM273.043 175.713C273.043 176.779 272.762 177.613 272.199 178.215C271.637 178.816 270.854 179.117 269.85 179.117C269.221 179.117 268.666 178.98 268.186 178.707C267.705 178.43 267.336 178.033 267.078 177.518C266.82 177.002 266.691 176.4 266.691 175.713C266.691 174.643 266.971 173.811 267.529 173.217C268.088 172.623 268.873 172.326 269.885 172.326C270.514 172.326 271.068 172.463 271.549 172.736C272.029 173.01 272.398 173.402 272.656 173.914C272.914 174.426 273.043 175.025 273.043 175.713ZM280.885 179H279.098V175.174C279.098 174.701 279.018 174.348 278.857 174.113C278.701 173.875 278.453 173.756 278.113 173.756C277.656 173.756 277.324 173.924 277.117 174.26C276.91 174.596 276.807 175.148 276.807 175.918V179H275.02V172.449H276.385L276.625 173.287H276.725C276.9 172.986 277.154 172.752 277.486 172.584C277.818 172.412 278.199 172.326 278.629 172.326C279.609 172.326 280.273 172.646 280.621 173.287H280.779C280.955 172.982 281.213 172.746 281.553 172.578C281.896 172.41 282.283 172.326 282.713 172.326C283.455 172.326 284.016 172.518 284.395 172.9C284.777 173.279 284.969 173.889 284.969 174.729V179H283.176V175.174C283.176 174.701 283.096 174.348 282.936 174.113C282.779 173.875 282.531 173.756 282.191 173.756C281.754 173.756 281.426 173.912 281.207 174.225C280.992 174.537 280.885 175.033 280.885 175.713V179ZM290.906 179.117C290.137 179.117 289.533 178.838 289.096 178.279H289.002C289.064 178.826 289.096 179.143 289.096 179.229V181.883H287.309V172.449H288.762L289.014 173.299H289.096C289.514 172.65 290.133 172.326 290.953 172.326C291.727 172.326 292.332 172.625 292.77 173.223C293.207 173.82 293.426 174.65 293.426 175.713C293.426 176.412 293.322 177.02 293.115 177.535C292.912 178.051 292.621 178.443 292.242 178.713C291.863 178.982 291.418 179.117 290.906 179.117ZM290.379 173.756C289.938 173.756 289.615 173.893 289.412 174.166C289.209 174.436 289.104 174.883 289.096 175.508V175.701C289.096 176.404 289.199 176.908 289.406 177.213C289.617 177.518 289.949 177.67 290.402 177.67C291.203 177.67 291.604 177.01 291.604 175.689C291.604 175.045 291.504 174.562 291.305 174.242C291.109 173.918 290.801 173.756 290.379 173.756ZM297.189 179H295.402V169.883H297.189V179ZM302.283 173.598C301.904 173.598 301.607 173.719 301.393 173.961C301.178 174.199 301.055 174.539 301.023 174.98H303.531C303.523 174.539 303.408 174.199 303.186 173.961C302.963 173.719 302.662 173.598 302.283 173.598ZM302.535 179.117C301.48 179.117 300.656 178.826 300.062 178.244C299.469 177.662 299.172 176.838 299.172 175.771C299.172 174.674 299.445 173.826 299.992 173.229C300.543 172.627 301.303 172.326 302.271 172.326C303.197 172.326 303.918 172.59 304.434 173.117C304.949 173.645 305.207 174.373 305.207 175.303V176.17H300.982C301.002 176.678 301.152 177.074 301.434 177.359C301.715 177.645 302.109 177.787 302.617 177.787C303.012 177.787 303.385 177.746 303.736 177.664C304.088 177.582 304.455 177.451 304.838 177.271V178.654C304.525 178.811 304.191 178.926 303.836 179C303.48 179.078 303.047 179.117 302.535 179.117ZM309.92 177.693C310.232 177.693 310.607 177.625 311.045 177.488V178.818C310.6 179.018 310.053 179.117 309.404 179.117C308.689 179.117 308.168 178.938 307.84 178.578C307.516 178.215 307.354 177.672 307.354 176.949V173.791H306.498V173.035L307.482 172.438L307.998 171.055H309.141V172.449H310.975V173.791H309.141V176.949C309.141 177.203 309.211 177.391 309.352 177.512C309.496 177.633 309.686 177.693 309.92 177.693ZM315.588 173.598C315.209 173.598 314.912 173.719 314.697 173.961C314.482 174.199 314.359 174.539 314.328 174.98H316.836C316.828 174.539 316.713 174.199 316.49 173.961C316.268 173.719 315.967 173.598 315.588 173.598ZM315.84 179.117C314.785 179.117 313.961 178.826 313.367 178.244C312.773 177.662 312.477 176.838 312.477 175.771C312.477 174.674 312.75 173.826 313.297 173.229C313.848 172.627 314.607 172.326 315.576 172.326C316.502 172.326 317.223 172.59 317.738 173.117C318.254 173.645 318.512 174.373 318.512 175.303V176.17H314.287C314.307 176.678 314.457 177.074 314.738 177.359C315.02 177.645 315.414 177.787 315.922 177.787C316.316 177.787 316.689 177.746 317.041 177.664C317.393 177.582 317.76 177.451 318.143 177.271V178.654C317.83 178.811 317.496 178.926 317.141 179C316.785 179.078 316.352 179.117 315.84 179.117ZM322.539 179.117C321.77 179.117 321.164 178.818 320.723 178.221C320.285 177.623 320.066 176.795 320.066 175.736C320.066 174.662 320.289 173.826 320.734 173.229C321.184 172.627 321.801 172.326 322.586 172.326C323.41 172.326 324.039 172.646 324.473 173.287H324.531C324.441 172.799 324.396 172.363 324.396 171.98V169.883H326.189V179H324.818L324.473 178.15H324.396C323.99 178.795 323.371 179.117 322.539 179.117ZM323.166 177.693C323.623 177.693 323.957 177.561 324.168 177.295C324.383 177.029 324.5 176.578 324.52 175.941V175.748C324.52 175.045 324.41 174.541 324.191 174.236C323.977 173.932 323.625 173.779 323.137 173.779C322.738 173.779 322.428 173.949 322.205 174.289C321.986 174.625 321.877 175.115 321.877 175.76C321.877 176.404 321.988 176.889 322.211 177.213C322.434 177.533 322.752 177.693 323.166 177.693ZM339.242 179H337.168L335.176 175.76L333.184 179H331.238L334.08 174.582L331.42 170.434H333.424L335.27 173.516L337.08 170.434H339.037L336.348 174.682L339.242 179ZM345.721 175.713C345.721 176.361 345.826 176.852 346.037 177.184C346.252 177.516 346.6 177.682 347.08 177.682C347.557 177.682 347.898 177.518 348.105 177.189C348.316 176.857 348.422 176.365 348.422 175.713C348.422 175.064 348.316 174.578 348.105 174.254C347.895 173.93 347.549 173.768 347.068 173.768C346.592 173.768 346.248 173.93 346.037 174.254C345.826 174.574 345.721 175.061 345.721 175.713ZM350.25 175.713C350.25 176.779 349.969 177.613 349.406 178.215C348.844 178.816 348.061 179.117 347.057 179.117C346.428 179.117 345.873 178.98 345.393 178.707C344.912 178.43 344.543 178.033 344.285 177.518C344.027 177.002 343.898 176.4 343.898 175.713C343.898 174.643 344.178 173.811 344.736 173.217C345.295 172.623 346.08 172.326 347.092 172.326C347.721 172.326 348.275 172.463 348.756 172.736C349.236 173.01 349.605 173.402 349.863 173.914C350.121 174.426 350.25 175.025 350.25 175.713ZM355.848 173.791H354.301V179H352.514V173.791H351.529V172.93L352.514 172.449V171.969C352.514 171.223 352.697 170.678 353.064 170.334C353.432 169.99 354.02 169.818 354.828 169.818C355.445 169.818 355.994 169.91 356.475 170.094L356.018 171.406C355.658 171.293 355.326 171.236 355.021 171.236C354.768 171.236 354.584 171.312 354.471 171.465C354.357 171.613 354.301 171.805 354.301 172.039V172.449H355.848V173.791ZM368.062 179H365.988L363.996 175.76L362.004 179H360.059L362.9 174.582L360.24 170.434H362.244L364.09 173.516L365.9 170.434H367.857L365.168 174.682L368.062 179Z" fill="white"/>
<path fill-rule="evenodd" clip-rule="evenodd" d="M573 135C584.598 135 594 125.598 594 114C594 102.402 584.598 93 573 93V96.8182C582.489 96.8182 590.182 104.511 590.182 114C590.182 123.489 582.489 131.182 573 131.182C563.511 131.182 555.818 123.489 555.818 114H552C552 125.598 561.402 135 573 135Z" fill="#019AEB"/>
<path fill-rule="evenodd" clip-rule="evenodd" d="M614 114C614 125.598 623.402 135 635 135C646.598 135 656 125.598 656 114L652.182 114C652.182 123.489 644.489 131.182 635 131.182C625.511 131.182 617.818 123.489 617.818 114C617.818 104.511 625.511 96.8182 635 96.8182L635 93C623.402 93 614 102.402 614 114Z" fill="#019AEB"/>
<path fill-rule="evenodd" clip-rule="evenodd" d="M697 93C685.402 93 676 102.402 676 114C676 125.598 685.402 135 697 135V131.182C687.511 131.182 679.818 123.489 679.818 114C679.818 104.511 687.511 96.8182 697 96.8182C706.489 96.8182 714.182 104.511 714.182 114H718C718 102.402 708.598 93 697 93Z" fill="#019AEB"/>
<path fill-rule="evenodd" clip-rule="evenodd" d="M780 114C780 102.402 770.598 93 759 93C747.402 93 738 102.402 738 114L741.818 114C741.818 104.511 749.511 96.8182 759 96.8182C768.489 96.8182 776.182 104.511 776.182 114C776.182 123.489 768.489 131.182 759 131.182L759 135C770.598 135 780 125.598 780 114Z" fill="#019AEB"/>
<defs>
<clipPath id="clip0_431_73300">
<rect x="258" y="78" width="200" height="16" rx="2" fill="white"/>
</clipPath>
<clipPath id="clip1_431_73300">
<rect x="258" y="140" width="200" height="16" rx="2" fill="white"/>
</clipPath>
</defs>
</svg>
