<svg width="962" height="120" viewBox="0 0 962 120" fill="none" xmlns="http://www.w3.org/2000/svg"><path d="M962 0H482V120H962V0Z" fill="#252A2E"/><path d="M480 0H0V120H480V0Z" fill="#252A2E"/><path d="M21.1855 20.6348C21.1855 22.0449 20.7832 23.125 19.9785 23.875C19.1777 24.625 18.0195 25 16.5039 25H14.0781V16.4336H16.7676C18.166 16.4336 19.252 16.8027 20.0254 17.541C20.7988 18.2793 21.1855 19.3105 21.1855 20.6348ZM19.2988 20.6816C19.2988 18.8418 18.4863 17.9219 16.8613 17.9219H15.8945V23.5H16.6738C18.4238 23.5 19.2988 22.5605 19.2988 20.6816ZM25.5332 19.5977C25.1543 19.5977 24.8574 19.7188 24.6426 19.9609C24.4277 20.1992 24.3047 20.5391 24.2734 20.9805H26.7812C26.7734 20.5391 26.6582 20.1992 26.4355 19.9609C26.2129 19.7188 25.9121 19.5977 25.5332 19.5977ZM25.7852 25.1172C24.7305 25.1172 23.9062 24.8262 23.3125 24.2441C22.7188 23.6621 22.4219 22.8379 22.4219 21.7715C22.4219 20.6738 22.6953 19.8262 23.2422 19.2285C23.793 18.627 24.5527 18.3262 25.5215 18.3262C26.4473 18.3262 27.168 18.5898 27.6836 19.1172C28.1992 19.6445 28.457 20.373 28.457 21.3027V22.1699H24.2324C24.252 22.6777 24.4023 23.0742 24.6836 23.3594C24.9648 23.6445 25.3594 23.7871 25.8672 23.7871C26.2617 23.7871 26.6348 23.7461 26.9863 23.6641C27.3379 23.582 27.7051 23.4512 28.0879 23.2715V24.6543C27.7754 24.8105 27.4414 24.9258 27.0859 25C26.7305 25.0781 26.2969 25.1172 25.7852 25.1172ZM33.5312 19.791H31.9844V25H30.1973V19.791H29.2129V18.9297L30.1973 18.4492V17.9688C30.1973 17.2227 30.3809 16.6777 30.748 16.334C31.1152 15.9902 31.7031 15.8184 32.5117 15.8184C33.1289 15.8184 33.6777 15.9102 34.1582 16.0938L33.7012 17.4062C33.3418 17.293 33.0098 17.2363 32.7051 17.2363C32.4512 17.2363 32.2676 17.3125 32.1543 17.4648C32.041 17.6133 31.9844 17.8047 31.9844 18.0391V18.4492H33.5312V19.791ZM38.7227 25L38.377 24.1094H38.3301C38.0293 24.4883 37.7188 24.752 37.3984 24.9004C37.082 25.0449 36.668 25.1172 36.1562 25.1172C35.5273 25.1172 35.0312 24.9375 34.668 24.5781C34.3086 24.2188 34.1289 23.707 34.1289 23.043C34.1289 22.3477 34.3711 21.8359 34.8555 21.5078C35.3438 21.1758 36.0781 20.9922 37.0586 20.957L38.1953 20.9219V20.6348C38.1953 19.9707 37.8555 19.6387 37.1758 19.6387C36.6523 19.6387 36.0371 19.7969 35.3301 20.1133L34.7383 18.9062C35.4922 18.5117 36.3281 18.3145 37.2461 18.3145C38.125 18.3145 38.7988 18.5059 39.2676 18.8887C39.7363 19.2715 39.9707 19.8535 39.9707 20.6348V25H38.7227ZM38.1953 21.9648L37.5039 21.9883C36.9844 22.0039 36.5977 22.0977 36.3438 22.2695C36.0898 22.4414 35.9629 22.7031 35.9629 23.0547C35.9629 23.5586 36.252 23.8105 36.8301 23.8105C37.2441 23.8105 37.5742 23.6914 37.8203 23.4531C38.0703 23.2148 38.1953 22.8984 38.1953 22.5039V21.9648ZM46.457 25L46.2168 24.1621H46.123C45.9316 24.4668 45.6602 24.7031 45.3086 24.8711C44.957 25.0352 44.5566 25.1172 44.1074 25.1172C43.3379 25.1172 42.7578 24.9121 42.3672 24.502C41.9766 24.0879 41.7812 23.4941 41.7812 22.7207V18.4492H43.5684V22.2754C43.5684 22.748 43.6523 23.1035 43.8203 23.3418C43.9883 23.5762 44.2559 23.6934 44.623 23.6934C45.123 23.6934 45.4844 23.5273 45.707 23.1953C45.9297 22.8594 46.041 22.3047 46.041 21.5312V18.4492H47.8281V25H46.457ZM51.4902 25H49.7031V15.8828H51.4902V25ZM56.1309 23.6934C56.4434 23.6934 56.8184 23.625 57.2559 23.4883V24.8184C56.8105 25.0176 56.2637 25.1172 55.6152 25.1172C54.9004 25.1172 54.3789 24.9375 54.0508 24.5781C53.7266 24.2148 53.5645 23.6719 53.5645 22.9492V19.791H52.709V19.0352L53.6934 18.4375L54.209 17.0547H55.3516V18.4492H57.1855V19.791H55.3516V22.9492C55.3516 23.2031 55.4219 23.3906 55.5625 23.5117C55.707 23.6328 55.8965 23.6934 56.1309 23.6934Z" fill="#B7B9C3"/><path d="M500.078 25V16.4336H501.895V23.5H505.369V25H500.078ZM510.883 25L510.537 24.1094H510.49C510.189 24.4883 509.879 24.752 509.559 24.9004C509.242 25.0449 508.828 25.1172 508.316 25.1172C507.688 25.1172 507.191 24.9375 506.828 24.5781C506.469 24.2188 506.289 23.707 506.289 23.043C506.289 22.3477 506.531 21.8359 507.016 21.5078C507.504 21.1758 508.238 20.9922 509.219 20.957L510.355 20.9219V20.6348C510.355 19.9707 510.016 19.6387 509.336 19.6387C508.812 19.6387 508.197 19.7969 507.49 20.1133L506.898 18.9062C507.652 18.5117 508.488 18.3145 509.406 18.3145C510.285 18.3145 510.959 18.5059 511.428 18.8887C511.896 19.2715 512.131 19.8535 512.131 20.6348V25H510.883ZM510.355 21.9648L509.664 21.9883C509.145 22.0039 508.758 22.0977 508.504 22.2695C508.25 22.4414 508.123 22.7031 508.123 23.0547C508.123 23.5586 508.412 23.8105 508.99 23.8105C509.404 23.8105 509.734 23.6914 509.98 23.4531C510.23 23.2148 510.355 22.8984 510.355 22.5039V21.9648ZM517.633 18.3262C517.875 18.3262 518.076 18.3438 518.236 18.3789L518.102 20.0547C517.957 20.0156 517.781 19.9961 517.574 19.9961C517.004 19.9961 516.559 20.1426 516.238 20.4355C515.922 20.7285 515.764 21.1387 515.764 21.666V25H513.977V18.4492H515.33L515.594 19.5508H515.682C515.885 19.1836 516.158 18.8887 516.502 18.666C516.85 18.4395 517.227 18.3262 517.633 18.3262ZM525.127 18.4492V19.3574L524.102 19.6211C524.289 19.9141 524.383 20.2422 524.383 20.6055C524.383 21.3086 524.137 21.8574 523.645 22.252C523.156 22.6426 522.477 22.8379 521.605 22.8379L521.283 22.8203L521.02 22.791C520.836 22.9316 520.744 23.0879 520.744 23.2598C520.744 23.5176 521.072 23.6465 521.729 23.6465H522.842C523.561 23.6465 524.107 23.8008 524.482 24.1094C524.861 24.418 525.051 24.8711 525.051 25.4688C525.051 26.2344 524.73 26.8281 524.09 27.25C523.453 27.6719 522.537 27.8828 521.342 27.8828C520.428 27.8828 519.729 27.7227 519.244 27.4023C518.764 27.0859 518.523 26.6406 518.523 26.0664C518.523 25.6719 518.646 25.3418 518.893 25.0762C519.139 24.8105 519.5 24.6211 519.977 24.5078C519.793 24.4297 519.633 24.3027 519.496 24.127C519.359 23.9473 519.291 23.7578 519.291 23.5586C519.291 23.3086 519.363 23.1016 519.508 22.9375C519.652 22.7695 519.861 22.6055 520.135 22.4453C519.791 22.2969 519.518 22.0586 519.314 21.7305C519.115 21.4023 519.016 21.0156 519.016 20.5703C519.016 19.8555 519.248 19.3027 519.713 18.9121C520.178 18.5215 520.842 18.3262 521.705 18.3262C521.889 18.3262 522.105 18.3438 522.355 18.3789C522.609 18.4102 522.771 18.4336 522.842 18.4492H525.127ZM520.07 25.9258C520.07 26.1719 520.188 26.3652 520.422 26.5059C520.66 26.6465 520.992 26.7168 521.418 26.7168C522.059 26.7168 522.561 26.6289 522.924 26.4531C523.287 26.2773 523.469 26.0371 523.469 25.7324C523.469 25.4863 523.361 25.3164 523.146 25.2227C522.932 25.1289 522.6 25.082 522.15 25.082H521.225C520.896 25.082 520.621 25.1582 520.398 25.3105C520.18 25.4668 520.07 25.6719 520.07 25.9258ZM520.721 20.5938C520.721 20.9492 520.801 21.2305 520.961 21.4375C521.125 21.6445 521.373 21.748 521.705 21.748C522.041 21.748 522.287 21.6445 522.443 21.4375C522.6 21.2305 522.678 20.9492 522.678 20.5938C522.678 19.8047 522.354 19.4102 521.705 19.4102C521.049 19.4102 520.721 19.8047 520.721 20.5938ZM528.924 19.5977C528.545 19.5977 528.248 19.7188 528.033 19.9609C527.818 20.1992 527.695 20.5391 527.664 20.9805H530.172C530.164 20.5391 530.049 20.1992 529.826 19.9609C529.604 19.7188 529.303 19.5977 528.924 19.5977ZM529.176 25.1172C528.121 25.1172 527.297 24.8262 526.703 24.2441C526.109 23.6621 525.812 22.8379 525.812 21.7715C525.812 20.6738 526.086 19.8262 526.633 19.2285C527.184 18.627 527.943 18.3262 528.912 18.3262C529.838 18.3262 530.559 18.5898 531.074 19.1172C531.59 19.6445 531.848 20.373 531.848 21.3027V22.1699H527.623C527.643 22.6777 527.793 23.0742 528.074 23.3594C528.355 23.6445 528.75 23.7871 529.258 23.7871C529.652 23.7871 530.025 23.7461 530.377 23.6641C530.729 23.582 531.096 23.4512 531.479 23.2715V24.6543C531.166 24.8105 530.832 24.9258 530.477 25C530.121 25.0781 529.688 25.1172 529.176 25.1172Z" fill="#B7B9C3"/><path d="M61.6836 79.5H56.6934V78.4502L58.4854 76.6387C59.016 76.0951 59.3626 75.7191 59.5254 75.5107C59.6882 75.2992 59.8053 75.1038 59.877 74.9248C59.9486 74.7458 59.9844 74.5602 59.9844 74.3682C59.9844 74.0817 59.9046 73.8685 59.7451 73.7285C59.5889 73.5885 59.3789 73.5186 59.1152 73.5186C58.8385 73.5186 58.57 73.582 58.3096 73.709C58.0492 73.8359 57.7773 74.0166 57.4941 74.251L56.6738 73.2793C57.0254 72.9798 57.3167 72.7682 57.5479 72.6445C57.779 72.5208 58.0312 72.4264 58.3047 72.3613C58.5781 72.293 58.8841 72.2588 59.2227 72.2588C59.6686 72.2588 60.0625 72.3402 60.4043 72.5029C60.7461 72.6657 61.0114 72.8936 61.2002 73.1865C61.389 73.4795 61.4834 73.8148 61.4834 74.1924C61.4834 74.5212 61.4248 74.8304 61.3076 75.1201C61.1937 75.4066 61.0146 75.7012 60.7705 76.0039C60.5296 76.3066 60.1032 76.738 59.4912 77.2979L58.5732 78.1621V78.2305H61.6836V79.5ZM67.5576 78.0205H66.6982V79.5H65.2236V78.0205H62.1768V76.9707L65.3066 72.3613H66.6982V76.8486H67.5576V78.0205ZM65.2236 76.8486V75.6377C65.2236 75.4359 65.2318 75.1429 65.248 74.7588C65.2643 74.3747 65.2773 74.1517 65.2871 74.0898H65.248C65.1276 74.3568 64.9827 74.6172 64.8135 74.8711L63.5049 76.8486H65.2236Z" fill="#E8178A"/><path d="M84.45 87H62" stroke="#E8178A" stroke-width=".75"/><path d="M84.45 64H62" stroke="#E8178A" stroke-width=".75"/><path d="M73.2246 87V64.2002" stroke="#E8178A" stroke-width=".75"/><path d="M122.684 39.999H117.693V38.9492L119.485 37.1377C120.016 36.5941 120.363 36.2181 120.525 36.0098C120.688 35.7982 120.805 35.6029 120.877 35.4238C120.949 35.2448 120.984 35.0592 120.984 34.8672C120.984 34.5807 120.905 34.3675 120.745 34.2275C120.589 34.0876 120.379 34.0176 120.115 34.0176C119.839 34.0176 119.57 34.0811 119.31 34.208C119.049 34.335 118.777 34.5156 118.494 34.75L117.674 33.7783C118.025 33.4788 118.317 33.2673 118.548 33.1436C118.779 33.0199 119.031 32.9255 119.305 32.8604C119.578 32.792 119.884 32.7578 120.223 32.7578C120.669 32.7578 121.062 32.8392 121.404 33.002C121.746 33.1647 122.011 33.3926 122.2 33.6855C122.389 33.9785 122.483 34.3138 122.483 34.6914C122.483 35.0202 122.425 35.3294 122.308 35.6191C122.194 35.9056 122.015 36.2002 121.771 36.5029C121.53 36.8057 121.103 37.237 120.491 37.7969L119.573 38.6611V38.7295H122.684V39.999ZM128.558 38.5195H127.698V39.999H126.224V38.5195H123.177V37.4697L126.307 32.8604H127.698V37.3477H128.558V38.5195ZM126.224 37.3477V36.1367C126.224 35.9349 126.232 35.6419 126.248 35.2578C126.264 34.8737 126.277 34.6507 126.287 34.5889H126.248C126.128 34.8558 125.983 35.1162 125.813 35.3701L124.505 37.3477H126.224Z" fill="#E8178A"/><path d="M111.5 68.533V46.083" stroke="#E8178A" stroke-width=".75"/><path d="M134.5 68.533V46.083" stroke="#E8178A" stroke-width=".75"/><path d="M111.5 57.308H134.3" stroke="#E8178A" stroke-width=".75"/><path d="M561.179 65.394C561.179 65.8399 561.044 66.2192 560.773 66.5317C560.503 66.8442 560.124 67.059 559.636 67.1762V67.2055C560.212 67.2771 560.648 67.4529 560.944 67.7328C561.241 68.0095 561.389 68.3839 561.389 68.8559C561.389 69.5427 561.14 70.0782 560.642 70.4623C560.144 70.8432 559.432 71.0336 558.508 71.0336C557.733 71.0336 557.046 70.905 556.447 70.6479V69.3637C556.724 69.5037 557.028 69.6176 557.36 69.7055C557.692 69.7934 558.021 69.8373 558.347 69.8373C558.845 69.8373 559.213 69.7527 559.45 69.5834C559.688 69.4142 559.807 69.1424 559.807 68.768C559.807 68.4327 559.67 68.1951 559.396 68.0551C559.123 67.9151 558.687 67.8452 558.088 67.8452H557.546V66.6879H558.098C558.651 66.6879 559.055 66.6163 559.309 66.4731C559.566 66.3266 559.694 66.0776 559.694 65.726C559.694 65.1856 559.356 64.9155 558.679 64.9155C558.444 64.9155 558.205 64.9545 557.961 65.0327C557.72 65.1108 557.451 65.2459 557.155 65.4379L556.457 64.3979C557.108 63.9291 557.884 63.6948 558.786 63.6948C559.525 63.6948 560.108 63.8445 560.534 64.144C560.964 64.4435 561.179 64.8601 561.179 65.394ZM567.17 70.936H562.18V69.8862L563.972 68.0746C564.502 67.531 564.849 67.155 565.012 66.9467C565.174 66.7351 565.292 66.5398 565.363 66.3608C565.435 66.1817 565.471 65.9962 565.471 65.8041C565.471 65.5177 565.391 65.3045 565.231 65.1645C565.075 65.0245 564.865 64.9545 564.602 64.9545C564.325 64.9545 564.056 65.018 563.796 65.145C563.535 65.2719 563.264 65.4526 562.98 65.687L562.16 64.7153C562.512 64.4158 562.803 64.2042 563.034 64.0805C563.265 63.9568 563.518 63.8624 563.791 63.7973C564.064 63.7289 564.37 63.6948 564.709 63.6948C565.155 63.6948 565.549 63.7761 565.891 63.9389C566.232 64.1017 566.498 64.3295 566.687 64.6225C566.875 64.9155 566.97 65.2508 566.97 65.6284C566.97 65.9571 566.911 66.2664 566.794 66.5561C566.68 66.8425 566.501 67.1371 566.257 67.4399C566.016 67.7426 565.59 68.1739 564.978 68.7338L564.06 69.5981V69.6664H567.17V70.936Z" fill="#E8178A"/><path d="M582.999 82.001H560.549" stroke="#E8178A" stroke-width=".75"/><path d="M582.999 50.001H560.549" stroke="#E8178A" stroke-width=".75"/><path d="M571.773 82.001V50.2012" stroke="#E8178A" stroke-width=".75"/><path d="M635.905 31.458C635.905 31.904 635.77 32.2832 635.5 32.5957C635.23 32.9082 634.851 33.123 634.362 33.2402V33.2695C634.938 33.3411 635.375 33.5169 635.671 33.7969C635.967 34.0736 636.115 34.4479 636.115 34.9199C636.115 35.6068 635.866 36.1423 635.368 36.5264C634.87 36.9072 634.159 37.0977 633.234 37.0977C632.46 37.0977 631.773 36.9691 631.174 36.7119V35.4277C631.451 35.5677 631.755 35.6816 632.087 35.7695C632.419 35.8574 632.748 35.9014 633.073 35.9014C633.571 35.9014 633.939 35.8167 634.177 35.6475C634.414 35.4782 634.533 35.2064 634.533 34.832C634.533 34.4967 634.396 34.2591 634.123 34.1191C633.85 33.9792 633.413 33.9092 632.814 33.9092H632.272V32.752H632.824C633.378 32.752 633.781 32.6803 634.035 32.5371C634.292 32.3906 634.421 32.1416 634.421 31.79C634.421 31.2497 634.082 30.9795 633.405 30.9795C633.171 30.9795 632.932 31.0186 632.688 31.0967C632.447 31.1748 632.178 31.3099 631.882 31.502L631.184 30.4619C631.835 29.9932 632.611 29.7588 633.513 29.7588C634.252 29.7588 634.834 29.9085 635.261 30.208C635.69 30.5075 635.905 30.9242 635.905 31.458ZM641.896 37H636.906V35.9502L638.698 34.1387C639.229 33.5951 639.576 33.2191 639.738 33.0107C639.901 32.7992 640.018 32.6038 640.09 32.4248C640.161 32.2458 640.197 32.0602 640.197 31.8682C640.197 31.5817 640.118 31.3685 639.958 31.2285C639.802 31.0885 639.592 31.0186 639.328 31.0186C639.051 31.0186 638.783 31.082 638.522 31.209C638.262 31.3359 637.99 31.5166 637.707 31.751L636.887 30.7793C637.238 30.4798 637.53 30.2682 637.761 30.1445C637.992 30.0208 638.244 29.9264 638.518 29.8613C638.791 29.793 639.097 29.7588 639.436 29.7588C639.882 29.7588 640.275 29.8402 640.617 30.0029C640.959 30.1657 641.224 30.3936 641.413 30.6865C641.602 30.9795 641.696 31.3148 641.696 31.6924C641.696 32.0212 641.638 32.3304 641.521 32.6201C641.407 32.9066 641.228 33.2012 640.983 33.5039C640.743 33.8066 640.316 34.238 639.704 34.7979L638.786 35.6621V35.7305H641.896V37Z" fill="#E8178A"/><path d="M620 52.29V29.84" stroke="#E8178A" stroke-width=".75"/><path d="M653 52.29V29.84" stroke="#E8178A" stroke-width=".75"/><path d="M620 41.065H652.8" stroke="#E8178A" stroke-width=".75"/><path fill-rule="evenodd" clip-rule="evenodd" d="M582.666 66C582.666 58.64 588.639 52.6667 595.999 52.6667C603.359 52.6667 609.333 58.64 609.333 66C609.333 73.36 603.359 79.3333 595.999 79.3333C588.639 79.3333 582.666 73.36 582.666 66ZM585.333 66C585.333 71.8933 590.106 76.6667 595.999 76.6667C601.893 76.6667 606.666 71.8933 606.666 66C606.666 60.1067 601.893 55.3333 595.999 55.3333C590.106 55.3333 585.333 60.1067 585.333 66Z" fill="#90939F"/><path fill-rule="evenodd" clip-rule="evenodd" d="M636.999 52.6667C629.639 52.6667 623.666 58.64 623.666 66C623.666 73.36 629.639 79.3333 636.999 79.3333C644.359 79.3333 650.333 73.36 650.333 66C650.333 58.64 644.359 52.6667 636.999 52.6667ZM636.999 59.3333C633.319 59.3333 630.333 62.32 630.333 66C630.333 69.68 633.319 72.6667 636.999 72.6667C640.679 72.6667 643.666 69.68 643.666 66C643.666 62.32 640.679 59.3333 636.999 59.3333ZM626.333 66C626.333 71.8933 631.106 76.6667 636.999 76.6667C642.893 76.6667 647.666 71.8933 647.666 66C647.666 60.1067 642.893 55.3333 636.999 55.3333C631.106 55.3333 626.333 60.1067 626.333 66Z" fill="#019AEB"/><path d="M320.698 50.1685H319.839V51.648H318.364V50.1685H315.317V49.1187L318.447 44.5093H319.839V48.9966H320.698V50.1685ZM318.364 48.9966V47.7857C318.364 47.5839 318.372 47.2909 318.389 46.9068C318.405 46.5227 318.418 46.2997 318.428 46.2379H318.389C318.268 46.5048 318.123 46.7652 317.954 47.0191L316.646 48.9966H318.364Z" fill="#E8178A"/><path d="M316 80.182V57.732" stroke="#E8178A" stroke-width=".75"/><path d="M320 80.182V57.732" stroke="#E8178A" stroke-width=".75"/><path d="M316 68.957H319.8" stroke="#E8178A" stroke-width=".75"/><path d="M322.536 71.2588V75.415H321.374V65.4209H324.115C325.341 65.4209 326.246 65.6556 326.829 66.125C327.417 66.5944 327.711 67.3008 327.711 68.2441C327.711 69.5658 327.041 70.459 325.701 70.9238L328.415 75.415H327.041L324.621 71.2588H322.536ZM322.536 70.2607H324.129C324.949 70.2607 325.551 70.099 325.934 69.7754C326.316 69.4473 326.508 68.9574 326.508 68.3057C326.508 67.6449 326.312 67.1686 325.92 66.877C325.533 66.5853 324.908 66.4395 324.047 66.4395H322.536V70.2607ZM334.465 75.415L334.239 74.3486H334.185C333.811 74.818 333.437 75.137 333.063 75.3057C332.694 75.4697 332.232 75.5518 331.676 75.5518C330.933 75.5518 330.35 75.3604 329.926 74.9775C329.507 74.5947 329.297 74.0501 329.297 73.3438C329.297 71.8307 330.507 71.0378 332.927 70.9648L334.198 70.9238V70.459C334.198 69.8711 334.071 69.4382 333.815 69.1602C333.565 68.8776 333.161 68.7363 332.605 68.7363C331.981 68.7363 331.275 68.9277 330.486 69.3105L330.138 68.4424C330.507 68.2419 330.91 68.0846 331.348 67.9707C331.79 67.8568 332.232 67.7998 332.674 67.7998C333.567 67.7998 334.228 67.998 334.656 68.3945C335.089 68.791 335.306 69.4268 335.306 70.3018V75.415H334.465ZM331.901 74.6152C332.608 74.6152 333.161 74.4215 333.562 74.0342C333.968 73.6468 334.171 73.1045 334.171 72.4072V71.7305L333.036 71.7783C332.134 71.8102 331.482 71.9515 331.081 72.2021C330.685 72.4482 330.486 72.8333 330.486 73.3574C330.486 73.7676 330.609 74.0798 330.855 74.2939C331.106 74.5081 331.455 74.6152 331.901 74.6152ZM342.75 74.4102H342.688C342.164 75.1712 341.381 75.5518 340.337 75.5518C339.357 75.5518 338.594 75.2168 338.047 74.5469C337.505 73.877 337.233 72.9245 337.233 71.6895C337.233 70.4544 337.507 69.4951 338.054 68.8115C338.601 68.1279 339.362 67.7861 340.337 67.7861C341.353 67.7861 342.132 68.1553 342.675 68.8936H342.764L342.716 68.3535L342.688 67.8271V64.7783H343.823V75.415H342.9L342.75 74.4102ZM340.48 74.6016C341.255 74.6016 341.816 74.3919 342.162 73.9727C342.513 73.5488 342.688 72.8675 342.688 71.9287V71.6895C342.688 70.6276 342.511 69.8711 342.155 69.4199C341.804 68.9642 341.242 68.7363 340.467 68.7363C339.801 68.7363 339.291 68.9961 338.936 69.5156C338.585 70.0306 338.409 70.7598 338.409 71.7031C338.409 72.6602 338.585 73.3825 338.936 73.8701C339.286 74.3577 339.801 74.6016 340.48 74.6016ZM347.371 75.415H346.236V67.9229H347.371V75.415ZM346.141 65.8926C346.141 65.6328 346.204 65.4437 346.332 65.3252C346.46 65.2021 346.619 65.1406 346.811 65.1406C346.993 65.1406 347.15 65.2021 347.282 65.3252C347.414 65.4482 347.48 65.6374 347.48 65.8926C347.48 66.1478 347.414 66.3392 347.282 66.4668C347.15 66.5898 346.993 66.6514 346.811 66.6514C346.619 66.6514 346.46 66.5898 346.332 66.4668C346.204 66.3392 346.141 66.1478 346.141 65.8926ZM356.244 71.6621C356.244 72.8835 355.937 73.8382 355.321 74.5264C354.706 75.21 353.856 75.5518 352.771 75.5518C352.102 75.5518 351.507 75.3945 350.987 75.0801C350.468 74.7656 350.067 74.3145 349.784 73.7266C349.502 73.1387 349.36 72.4505 349.36 71.6621C349.36 70.4408 349.666 69.4906 350.276 68.8115C350.887 68.1279 351.735 67.7861 352.819 67.7861C353.868 67.7861 354.699 68.1348 355.314 68.832C355.934 69.5293 356.244 70.4727 356.244 71.6621ZM350.536 71.6621C350.536 72.6191 350.728 73.3483 351.11 73.8496C351.493 74.3509 352.056 74.6016 352.799 74.6016C353.542 74.6016 354.104 74.3532 354.487 73.8564C354.875 73.3551 355.068 72.6237 355.068 71.6621C355.068 70.7096 354.875 69.9873 354.487 69.4951C354.104 68.9984 353.537 68.75 352.785 68.75C352.042 68.75 351.482 68.9938 351.104 69.4814C350.725 69.9691 350.536 70.696 350.536 71.6621Z" fill="#fff"/><path fill-rule="evenodd" clip-rule="evenodd" d="M296 69C296 63.48 300.48 59 306 59C311.52 59 316 63.48 316 69C316 74.52 311.52 79 306 79C300.48 79 296 74.52 296 69ZM298 69C298 73.42 301.58 77 306 77C310.42 77 314 73.42 314 69C314 64.58 310.42 61 306 61C301.58 61 298 64.58 298 69Z" fill="#90939F"/><path d="M204 95.415C202.939 95.415 201.922 94.9933 201.172 94.2432C200.422 93.493 200 92.4759 200 91.415V43.415C200 42.3542 200.422 41.3371 201.172 40.5869C201.922 39.8368 202.939 39.415 204 39.415H279.865C280.926 39.415 281.943 39.8368 282.693 40.5869C283.444 41.3371 283.865 42.3542 283.865 43.415V61.6826L294.004 67.915L283.865 74.1475V91.415C283.865 92.4759 283.444 93.493 282.693 94.2432C281.943 94.9933 280.926 95.415 279.865 95.415H204Z" fill="#E8178A"/><path d="M216.854 51.7051C216.854 53.123 216.502 54.2129 215.799 54.9746C215.096 55.7363 214.088 56.1172 212.775 56.1172C211.463 56.1172 210.455 55.7363 209.752 54.9746C209.049 54.2129 208.697 53.1191 208.697 51.6934C208.697 50.2676 209.049 49.1797 209.752 48.4297C210.459 47.6758 211.471 47.2988 212.787 47.2988C214.104 47.2988 215.109 47.6777 215.805 48.4355C216.504 49.1934 216.854 50.2832 216.854 51.7051ZM210.602 51.7051C210.602 52.6621 210.783 53.3828 211.146 53.8672C211.51 54.3516 212.053 54.5938 212.775 54.5938C214.225 54.5938 214.949 53.6309 214.949 51.7051C214.949 49.7754 214.229 48.8105 212.787 48.8105C212.064 48.8105 211.52 49.0547 211.152 49.543C210.785 50.0273 210.602 50.748 210.602 51.7051ZM222.086 56.1172C221.316 56.1172 220.713 55.8379 220.275 55.2793H220.182C220.244 55.8262 220.275 56.1426 220.275 56.2285V58.8828H218.488V49.4492H219.941L220.193 50.2988H220.275C220.693 49.6504 221.312 49.3262 222.133 49.3262C222.906 49.3262 223.512 49.625 223.949 50.2227C224.387 50.8203 224.605 51.6504 224.605 52.7129C224.605 53.4121 224.502 54.0195 224.295 54.5352C224.092 55.0508 223.801 55.4434 223.422 55.7129C223.043 55.9824 222.598 56.1172 222.086 56.1172ZM221.559 50.7559C221.117 50.7559 220.795 50.8926 220.592 51.166C220.389 51.4355 220.283 51.8828 220.275 52.5078V52.7012C220.275 53.4043 220.379 53.9082 220.586 54.2129C220.797 54.5176 221.129 54.6699 221.582 54.6699C222.383 54.6699 222.783 54.0098 222.783 52.6895C222.783 52.0449 222.684 51.5625 222.484 51.2422C222.289 50.918 221.98 50.7559 221.559 50.7559ZM228.795 50.5977C228.416 50.5977 228.119 50.7188 227.904 50.9609C227.689 51.1992 227.566 51.5391 227.535 51.9805H230.043C230.035 51.5391 229.92 51.1992 229.697 50.9609C229.475 50.7188 229.174 50.5977 228.795 50.5977ZM229.047 56.1172C227.992 56.1172 227.168 55.8262 226.574 55.2441C225.98 54.6621 225.684 53.8379 225.684 52.7715C225.684 51.6738 225.957 50.8262 226.504 50.2285C227.055 49.627 227.814 49.3262 228.783 49.3262C229.709 49.3262 230.43 49.5898 230.945 50.1172C231.461 50.6445 231.719 51.373 231.719 52.3027V53.1699H227.494C227.514 53.6777 227.664 54.0742 227.945 54.3594C228.227 54.6445 228.621 54.7871 229.129 54.7871C229.523 54.7871 229.896 54.7461 230.248 54.6641C230.6 54.582 230.967 54.4512 231.35 54.2715V55.6543C231.037 55.8105 230.703 55.9258 230.348 56C229.992 56.0781 229.559 56.1172 229.047 56.1172ZM239.219 56H237.432V52.1738C237.432 51.7012 237.348 51.3477 237.18 51.1133C237.012 50.875 236.744 50.7559 236.377 50.7559C235.877 50.7559 235.516 50.9238 235.293 51.2598C235.07 51.5918 234.959 52.1445 234.959 52.918V56H233.172V49.4492H234.537L234.777 50.2871H234.877C235.076 49.9707 235.35 49.7324 235.697 49.5723C236.049 49.4082 236.447 49.3262 236.893 49.3262C237.654 49.3262 238.232 49.5332 238.627 49.9473C239.021 50.3574 239.219 50.9512 239.219 51.7285V56ZM249.373 53.6211C249.373 54.3945 249.094 55.0039 248.535 55.4492C247.98 55.8945 247.207 56.1172 246.215 56.1172C245.301 56.1172 244.492 55.9453 243.789 55.6016V53.9141C244.367 54.1719 244.855 54.3535 245.254 54.459C245.656 54.5645 246.023 54.6172 246.355 54.6172C246.754 54.6172 247.059 54.541 247.27 54.3887C247.484 54.2363 247.592 54.0098 247.592 53.709C247.592 53.541 247.545 53.3926 247.451 53.2637C247.357 53.1309 247.219 53.0039 247.035 52.8828C246.855 52.7617 246.486 52.5684 245.928 52.3027C245.404 52.0566 245.012 51.8203 244.75 51.5938C244.488 51.3672 244.279 51.1035 244.123 50.8027C243.967 50.502 243.889 50.1504 243.889 49.748C243.889 48.9902 244.145 48.3945 244.656 47.9609C245.172 47.5273 245.883 47.3105 246.789 47.3105C247.234 47.3105 247.658 47.3633 248.061 47.4688C248.467 47.5742 248.891 47.7227 249.332 47.9141L248.746 49.3262C248.289 49.1387 247.91 49.0078 247.609 48.9336C247.312 48.8594 247.02 48.8223 246.73 48.8223C246.387 48.8223 246.123 48.9023 245.939 49.0625C245.756 49.2227 245.664 49.4316 245.664 49.6895C245.664 49.8496 245.701 49.9902 245.775 50.1113C245.85 50.2285 245.967 50.3438 246.127 50.457C246.291 50.5664 246.676 50.7656 247.281 51.0547C248.082 51.4375 248.631 51.8223 248.928 52.209C249.225 52.5918 249.373 53.0625 249.373 53.6211ZM254.945 56L254.6 55.1094H254.553C254.252 55.4883 253.941 55.752 253.621 55.9004C253.305 56.0449 252.891 56.1172 252.379 56.1172C251.75 56.1172 251.254 55.9375 250.891 55.5781C250.531 55.2188 250.352 54.707 250.352 54.043C250.352 53.3477 250.594 52.8359 251.078 52.5078C251.566 52.1758 252.301 51.9922 253.281 51.957L254.418 51.9219V51.6348C254.418 50.9707 254.078 50.6387 253.398 50.6387C252.875 50.6387 252.26 50.7969 251.553 51.1133L250.961 49.9062C251.715 49.5117 252.551 49.3145 253.469 49.3145C254.348 49.3145 255.021 49.5059 255.49 49.8887C255.959 50.2715 256.193 50.8535 256.193 51.6348V56H254.945ZM254.418 52.9648L253.727 52.9883C253.207 53.0039 252.82 53.0977 252.566 53.2695C252.312 53.4414 252.186 53.7031 252.186 54.0547C252.186 54.5586 252.475 54.8105 253.053 54.8105C253.467 54.8105 253.797 54.6914 254.043 54.4531C254.293 54.2148 254.418 53.8984 254.418 53.5039V52.9648ZM264.086 56H262.299V52.1738C262.299 51.7012 262.215 51.3477 262.047 51.1133C261.879 50.875 261.611 50.7559 261.244 50.7559C260.744 50.7559 260.383 50.9238 260.16 51.2598C259.938 51.5918 259.826 52.1445 259.826 52.918V56H258.039V49.4492H259.404L259.645 50.2871H259.744C259.943 49.9707 260.217 49.7324 260.564 49.5723C260.916 49.4082 261.314 49.3262 261.76 49.3262C262.521 49.3262 263.1 49.5332 263.494 49.9473C263.889 50.3574 264.086 50.9512 264.086 51.7285V56ZM270.496 54.0547C270.496 54.7266 270.262 55.2383 269.793 55.5898C269.328 55.9414 268.631 56.1172 267.701 56.1172C267.225 56.1172 266.818 56.084 266.482 56.0176C266.146 55.9551 265.832 55.8613 265.539 55.7363V54.2598C265.871 54.416 266.244 54.5469 266.658 54.6523C267.076 54.7578 267.443 54.8105 267.76 54.8105C268.408 54.8105 268.732 54.623 268.732 54.248C268.732 54.1074 268.689 53.9941 268.604 53.9082C268.518 53.8184 268.369 53.7188 268.158 53.6094C267.947 53.4961 267.666 53.3652 267.314 53.2168C266.811 53.0059 266.439 52.8105 266.201 52.6309C265.967 52.4512 265.795 52.2461 265.686 52.0156C265.58 51.7812 265.527 51.4941 265.527 51.1543C265.527 50.5723 265.752 50.123 266.201 49.8066C266.654 49.4863 267.295 49.3262 268.123 49.3262C268.912 49.3262 269.68 49.498 270.426 49.8418L269.887 51.1309C269.559 50.9902 269.252 50.875 268.967 50.7852C268.682 50.6953 268.391 50.6504 268.094 50.6504C267.566 50.6504 267.303 50.793 267.303 51.0781C267.303 51.2383 267.387 51.377 267.555 51.4941C267.727 51.6113 268.1 51.7852 268.674 52.0156C269.186 52.2227 269.561 52.416 269.799 52.5957C270.037 52.7754 270.213 52.9824 270.326 53.2168C270.439 53.4512 270.496 53.7305 270.496 54.0547ZM210.531 67.418H211.504C212.156 67.418 212.629 67.2969 212.922 67.0547C213.215 66.8125 213.361 66.4531 213.361 65.9766C213.361 65.4922 213.203 65.1445 212.887 64.9336C212.57 64.7227 212.094 64.6172 211.457 64.6172H210.531V67.418ZM210.531 68.5781V72H209.131V63.4336H211.551C212.656 63.4336 213.475 63.6406 214.006 64.0547C214.537 64.4688 214.803 65.0938 214.803 65.9297C214.803 66.9961 214.248 67.7559 213.139 68.209L215.559 72H213.965L211.914 68.5781H210.531ZM219.49 72.1172C218.482 72.1172 217.693 71.8242 217.123 71.2383C216.557 70.6484 216.273 69.8379 216.273 68.8066C216.273 67.748 216.537 66.916 217.064 66.3105C217.592 65.7051 218.316 65.4023 219.238 65.4023C220.094 65.4023 220.77 65.6621 221.266 66.1816C221.762 66.7012 222.01 67.416 222.01 68.3262V69.0703H217.691C217.711 69.6992 217.881 70.1836 218.201 70.5234C218.521 70.8594 218.973 71.0273 219.555 71.0273C219.938 71.0273 220.293 70.9922 220.621 70.9219C220.953 70.8477 221.309 70.7266 221.688 70.5586V71.6777C221.352 71.8379 221.012 71.9512 220.668 72.0176C220.324 72.084 219.932 72.1172 219.49 72.1172ZM219.238 66.4453C218.801 66.4453 218.449 66.584 218.184 66.8613C217.922 67.1387 217.766 67.543 217.715 68.0742H220.656C220.648 67.5391 220.52 67.1348 220.27 66.8613C220.02 66.584 219.676 66.4453 219.238 66.4453ZM229.047 65.5195V66.2754L227.939 66.4805C228.041 66.6172 228.125 66.7852 228.191 66.9844C228.258 67.1836 228.291 67.3945 228.291 67.6172C228.291 68.2852 228.061 68.8105 227.6 69.1934C227.139 69.5762 226.504 69.7676 225.695 69.7676C225.488 69.7676 225.301 69.752 225.133 69.7207C224.836 69.9043 224.688 70.1191 224.688 70.3652C224.688 70.5137 224.756 70.625 224.893 70.6992C225.033 70.7734 225.289 70.8105 225.66 70.8105H226.791C227.506 70.8105 228.049 70.9629 228.42 71.2676C228.791 71.5723 228.977 72.0117 228.977 72.5859C228.977 73.3203 228.674 73.8867 228.068 74.2852C227.463 74.6836 226.588 74.8828 225.443 74.8828C224.561 74.8828 223.887 74.7266 223.422 74.4141C222.957 74.1016 222.725 73.6562 222.725 73.0781C222.725 72.6797 222.85 72.3438 223.1 72.0703C223.354 71.8008 223.707 71.6133 224.16 71.5078C223.977 71.4297 223.824 71.3047 223.703 71.1328C223.586 70.957 223.527 70.7734 223.527 70.582C223.527 70.3398 223.596 70.1348 223.732 69.9668C223.869 69.7988 224.072 69.6328 224.342 69.4688C224.006 69.3242 223.732 69.0898 223.521 68.7656C223.314 68.4375 223.211 68.0547 223.211 67.6172C223.211 66.9141 223.432 66.3691 223.873 65.9824C224.318 65.5957 224.951 65.4023 225.771 65.4023C225.955 65.4023 226.146 65.416 226.346 65.4434C226.549 65.4668 226.701 65.4922 226.803 65.5195H229.047ZM223.955 73.0078C223.955 73.3047 224.088 73.5332 224.354 73.6934C224.623 73.8535 225 73.9336 225.484 73.9336C226.234 73.9336 226.793 73.8262 227.16 73.6113C227.527 73.3965 227.711 73.1113 227.711 72.7559C227.711 72.4746 227.609 72.2734 227.406 72.1523C227.207 72.0352 226.834 71.9766 226.287 71.9766H225.244C224.85 71.9766 224.535 72.0684 224.301 72.252C224.07 72.4395 223.955 72.6914 223.955 73.0078ZM224.547 67.6172C224.547 68.0234 224.65 68.3359 224.857 68.5547C225.068 68.7734 225.369 68.8828 225.76 68.8828C226.557 68.8828 226.955 68.457 226.955 67.6055C226.955 67.1836 226.855 66.8594 226.656 66.6328C226.461 66.4023 226.162 66.2871 225.76 66.2871C225.361 66.2871 225.059 66.4004 224.852 66.627C224.648 66.8535 224.547 67.1836 224.547 67.6172ZM234.824 72L234.631 71.1504H234.561C234.369 71.4512 234.096 71.6875 233.74 71.8594C233.389 72.0312 232.986 72.1172 232.533 72.1172C231.748 72.1172 231.162 71.9219 230.775 71.5312C230.389 71.1406 230.195 70.5488 230.195 69.7559V65.5195H231.584V69.5156C231.584 70.0117 231.686 70.3848 231.889 70.6348C232.092 70.8809 232.41 71.0039 232.844 71.0039C233.422 71.0039 233.846 70.832 234.115 70.4883C234.389 70.1406 234.525 69.5605 234.525 68.748V65.5195H235.908V72H234.824ZM239.248 72H237.871V62.8828H239.248V72ZM245.277 72L245.002 71.0977H244.955C244.643 71.4922 244.328 71.7617 244.012 71.9062C243.695 72.0469 243.289 72.1172 242.793 72.1172C242.156 72.1172 241.658 71.9453 241.299 71.6016C240.943 71.2578 240.766 70.7715 240.766 70.1426C240.766 69.4746 241.014 68.9707 241.51 68.6309C242.006 68.291 242.762 68.1055 243.777 68.0742L244.896 68.0391V67.6934C244.896 67.2793 244.799 66.9707 244.604 66.7676C244.412 66.5605 244.113 66.457 243.707 66.457C243.375 66.457 243.057 66.5059 242.752 66.6035C242.447 66.7012 242.154 66.8164 241.873 66.9492L241.428 65.9648C241.779 65.7812 242.164 65.6426 242.582 65.5488C243 65.4512 243.395 65.4023 243.766 65.4023C244.59 65.4023 245.211 65.582 245.629 65.9414C246.051 66.3008 246.262 66.8652 246.262 67.6348V72H245.277ZM243.227 71.0625C243.727 71.0625 244.127 70.9238 244.428 70.6465C244.732 70.3652 244.885 69.9727 244.885 69.4688V68.9062L244.053 68.9414C243.404 68.9648 242.932 69.0742 242.635 69.2695C242.342 69.4609 242.195 69.7559 242.195 70.1543C242.195 70.4434 242.281 70.668 242.453 70.8281C242.625 70.9844 242.883 71.0625 243.227 71.0625ZM251.471 65.4023C251.748 65.4023 251.977 65.4219 252.156 65.4609L252.021 66.7441C251.826 66.6973 251.623 66.6738 251.412 66.6738C250.861 66.6738 250.414 66.8535 250.07 67.2129C249.73 67.5723 249.561 68.0391 249.561 68.6133V72H248.184V65.5195H249.262L249.443 66.6621H249.514C249.729 66.2754 250.008 65.9688 250.352 65.7422C250.699 65.5156 251.072 65.4023 251.471 65.4023ZM214.07 85.6738C214.07 86.4355 213.795 87.0332 213.244 87.4668C212.693 87.9004 211.934 88.1172 210.965 88.1172C209.996 88.1172 209.203 87.9668 208.586 87.666V86.3418C208.977 86.5254 209.391 86.6699 209.828 86.7754C210.27 86.8809 210.68 86.9336 211.059 86.9336C211.613 86.9336 212.021 86.8281 212.283 86.6172C212.549 86.4062 212.682 86.123 212.682 85.7676C212.682 85.4473 212.561 85.1758 212.318 84.9531C212.076 84.7305 211.576 84.4668 210.818 84.1621C210.037 83.8457 209.486 83.4844 209.166 83.0781C208.846 82.6719 208.686 82.1836 208.686 81.6133C208.686 80.8984 208.939 80.3359 209.447 79.9258C209.955 79.5156 210.637 79.3105 211.492 79.3105C212.312 79.3105 213.129 79.4902 213.941 79.8496L213.496 80.9922C212.734 80.6719 212.055 80.5117 211.457 80.5117C211.004 80.5117 210.66 80.6113 210.426 80.8105C210.191 81.0059 210.074 81.2656 210.074 81.5898C210.074 81.8125 210.121 82.0039 210.215 82.1641C210.309 82.3203 210.463 82.4688 210.678 82.6094C210.893 82.75 211.279 82.9355 211.838 83.166C212.467 83.4277 212.928 83.6719 213.221 83.8984C213.514 84.125 213.729 84.3809 213.865 84.666C214.002 84.9512 214.07 85.2871 214.07 85.6738ZM216.959 88H215.582V81.5195H216.959V88ZM215.5 79.8027C215.5 79.5566 215.566 79.3672 215.699 79.2344C215.836 79.1016 216.029 79.0352 216.279 79.0352C216.521 79.0352 216.709 79.1016 216.842 79.2344C216.979 79.3672 217.047 79.5566 217.047 79.8027C217.047 80.0371 216.979 80.2227 216.842 80.3594C216.709 80.4922 216.521 80.5586 216.279 80.5586C216.029 80.5586 215.836 80.4922 215.699 80.3594C215.566 80.2227 215.5 80.0371 215.5 79.8027ZM223.264 88H218.348V87.1504L221.623 82.5742H218.547V81.5195H223.17V82.4805L219.965 86.9453H223.264V88ZM227.506 88.1172C226.498 88.1172 225.709 87.8242 225.139 87.2383C224.572 86.6484 224.289 85.8379 224.289 84.8066C224.289 83.748 224.553 82.916 225.08 82.3105C225.607 81.7051 226.332 81.4023 227.254 81.4023C228.109 81.4023 228.785 81.6621 229.281 82.1816C229.777 82.7012 230.025 83.416 230.025 84.3262V85.0703H225.707C225.727 85.6992 225.896 86.1836 226.217 86.5234C226.537 86.8594 226.988 87.0273 227.57 87.0273C227.953 87.0273 228.309 86.9922 228.637 86.9219C228.969 86.8477 229.324 86.7266 229.703 86.5586V87.6777C229.367 87.8379 229.027 87.9512 228.684 88.0176C228.34 88.084 227.947 88.1172 227.506 88.1172ZM227.254 82.4453C226.816 82.4453 226.465 82.584 226.199 82.8613C225.938 83.1387 225.781 83.543 225.73 84.0742H228.672C228.664 83.5391 228.535 83.1348 228.285 82.8613C228.035 82.584 227.691 82.4453 227.254 82.4453ZM231.385 87.2676C231.385 86.9824 231.459 86.7637 231.607 86.6113C231.756 86.459 231.971 86.3828 232.252 86.3828C232.537 86.3828 232.754 86.4629 232.902 86.623C233.051 86.7793 233.125 86.9941 233.125 87.2676C233.125 87.5449 233.049 87.7656 232.896 87.9297C232.748 88.0898 232.533 88.1699 232.252 88.1699C231.971 88.1699 231.756 88.0898 231.607 87.9297C231.459 87.7695 231.385 87.5488 231.385 87.2676ZM231.385 82.2637C231.385 81.6738 231.674 81.3789 232.252 81.3789C232.545 81.3789 232.764 81.457 232.908 81.6133C233.053 81.7695 233.125 81.9863 233.125 82.2637C233.125 82.541 233.049 82.7617 232.896 82.9258C232.748 83.0859 232.533 83.166 232.252 83.166C231.971 83.166 231.756 83.0859 231.607 82.9258C231.459 82.7656 231.385 82.5449 231.385 82.2637ZM241.598 88H240.221V82.4688C240.221 81.8086 240.236 81.2852 240.268 80.8984C240.178 80.9922 240.066 81.0957 239.934 81.209C239.805 81.3223 239.367 81.6816 238.621 82.2871L237.93 81.4141L240.449 79.4336H241.598V88ZM250.521 86.1309H249.367V88H248.025V86.1309H244.111V85.0703L248.025 79.4102H249.367V84.9883H250.521V86.1309ZM248.025 84.9883V82.8379C248.025 82.0723 248.045 81.4453 248.084 80.957H248.037C247.928 81.2148 247.756 81.5273 247.521 81.8945L245.395 84.9883H248.025Z" fill="#fff"/><path d="M847.698 43.9294H846.839V45.4089H845.364V43.9294H842.317V42.8796L845.447 38.2703H846.839V42.7576H847.698V43.9294ZM845.364 42.7576V41.5466C845.364 41.3448 845.372 41.0518 845.389 40.6677C845.405 40.2836 845.418 40.0606 845.428 39.9988H845.389C845.268 40.2657 845.123 40.5261 844.954 40.78L843.646 42.7576H845.364Z" fill="#E8178A"/><path d="M843 73.9429V51.4929" stroke="#E8178A" stroke-width=".75"/><path d="M847 73.9429V51.4929" stroke="#E8178A" stroke-width=".75"/><path d="M843 62.7179H846.8" stroke="#E8178A" stroke-width=".75"/><path d="M851.898 65.426V70.176H850.57V58.7541H853.703C855.104 58.7541 856.138 59.0223 856.805 59.5588C857.477 60.0952 857.812 60.9025 857.812 61.9807C857.812 63.4911 857.047 64.5119 855.516 65.0432L858.617 70.176H857.047L854.281 65.426H851.898ZM851.898 64.2853H853.719C854.656 64.2853 855.344 64.1004 855.781 63.7307C856.219 63.3557 856.438 62.7958 856.438 62.051C856.438 61.2958 856.214 60.7515 855.766 60.4182C855.323 60.0848 854.609 59.9182 853.625 59.9182H851.898V64.2853ZM865.531 70.176L865.273 68.9572H865.211C864.784 69.4937 864.357 69.8583 863.93 70.051C863.508 70.2385 862.979 70.3322 862.344 70.3322C861.495 70.3322 860.828 70.1135 860.344 69.676C859.865 69.2385 859.625 68.6161 859.625 67.8088C859.625 66.0796 861.008 65.1734 863.773 65.09L865.227 65.0432V64.5119C865.227 63.84 865.081 63.3452 864.789 63.0275C864.503 62.7046 864.042 62.5432 863.406 62.5432C862.693 62.5432 861.885 62.7619 860.984 63.1994L860.586 62.2072C861.008 61.978 861.469 61.7984 861.969 61.6682C862.474 61.5379 862.979 61.4728 863.484 61.4728C864.505 61.4728 865.26 61.6994 865.75 62.1525C866.245 62.6057 866.492 63.3322 866.492 64.3322V70.176H865.531ZM862.602 69.2619C863.409 69.2619 864.042 69.0405 864.5 68.5978C864.964 68.1551 865.195 67.5353 865.195 66.7385V65.965L863.898 66.0197C862.867 66.0562 862.122 66.2176 861.664 66.5041C861.211 66.7853 860.984 67.2254 860.984 67.8244C860.984 68.2932 861.125 68.6499 861.406 68.8947C861.693 69.1395 862.091 69.2619 862.602 69.2619ZM875 69.0275H874.93C874.331 69.8973 873.435 70.3322 872.242 70.3322C871.122 70.3322 870.25 69.9494 869.625 69.1838C869.005 68.4182 868.695 67.3296 868.695 65.9182C868.695 64.5067 869.008 63.4103 869.633 62.6291C870.258 61.8478 871.128 61.4572 872.242 61.4572C873.404 61.4572 874.294 61.8791 874.914 62.7228H875.016L874.961 62.1057L874.93 61.5041V58.0197H876.227V70.176H875.172L875 69.0275ZM872.406 69.2463C873.292 69.2463 873.932 69.0067 874.328 68.5275C874.729 68.0432 874.93 67.2645 874.93 66.1916V65.9182C874.93 64.7046 874.727 63.84 874.32 63.3244C873.919 62.8036 873.276 62.5432 872.391 62.5432C871.63 62.5432 871.047 62.84 870.641 63.4338C870.24 64.0223 870.039 64.8557 870.039 65.9338C870.039 67.0275 870.24 67.853 870.641 68.4103C871.042 68.9676 871.63 69.2463 872.406 69.2463ZM880.281 70.176H878.984V61.6135H880.281V70.176ZM878.875 59.2932C878.875 58.9963 878.948 58.7801 879.094 58.6447C879.24 58.5041 879.422 58.4338 879.641 58.4338C879.849 58.4338 880.029 58.5041 880.18 58.6447C880.331 58.7853 880.406 59.0015 880.406 59.2932C880.406 59.5848 880.331 59.8036 880.18 59.9494C880.029 60.09 879.849 60.1603 879.641 60.1603C879.422 60.1603 879.24 60.09 879.094 59.9494C878.948 59.8036 878.875 59.5848 878.875 59.2932ZM890.422 65.8869C890.422 67.2827 890.07 68.3739 889.367 69.1603C888.664 69.9416 887.693 70.3322 886.453 70.3322C885.688 70.3322 885.008 70.1525 884.414 69.7932C883.82 69.4338 883.362 68.9182 883.039 68.2463C882.716 67.5744 882.555 66.7879 882.555 65.8869C882.555 64.4911 882.904 63.4051 883.602 62.6291C884.299 61.8478 885.268 61.4572 886.508 61.4572C887.706 61.4572 888.656 61.8557 889.359 62.6525C890.068 63.4494 890.422 64.5275 890.422 65.8869ZM883.898 65.8869C883.898 66.9807 884.117 67.814 884.555 68.3869C884.992 68.9598 885.635 69.2463 886.484 69.2463C887.333 69.2463 887.977 68.9624 888.414 68.3947C888.857 67.8218 889.078 66.9859 889.078 65.8869C889.078 64.7984 888.857 63.9728 888.414 63.4103C887.977 62.8426 887.328 62.5588 886.469 62.5588C885.62 62.5588 884.979 62.8374 884.547 63.3947C884.115 63.952 883.898 64.7827 883.898 65.8869Z" fill="#fff"/><path fill-rule="evenodd" clip-rule="evenodd" d="M815.666 63C815.666 55.64 821.639 49.6667 828.999 49.6667C836.359 49.6667 842.333 55.64 842.333 63C842.333 70.36 836.359 76.3333 828.999 76.3333C821.639 76.3333 815.666 70.36 815.666 63ZM818.333 63C818.333 68.8933 823.106 73.6667 828.999 73.6667C834.893 73.6667 839.666 68.8933 839.666 63C839.666 57.1067 834.893 52.3333 828.999 52.3333C823.106 52.3333 818.333 57.1067 818.333 63Z" fill="#90939F"/><path d="M724 92.591C722.939 92.591 721.922 92.1693 721.172 91.4191C720.422 90.669 720 89.6519 720 88.591V40.591C720 39.5301 720.422 38.513 721.172 37.7629C721.922 37.0127 722.939 36.591 724 36.591H799.865C800.926 36.591 801.943 37.0127 802.693 37.7629C803.444 38.513 803.865 39.5301 803.865 40.591V58.8586L814.004 65.091L803.865 71.3234V88.591C803.865 89.6519 803.444 90.669 802.693 91.4191C801.943 92.1693 800.926 92.591 799.865 92.591H724Z" fill="#E8178A"/><path d="M739.854 47.7051C739.854 49.123 739.502 50.2129 738.799 50.9746C738.096 51.7363 737.088 52.1172 735.775 52.1172C734.463 52.1172 733.455 51.7363 732.752 50.9746C732.049 50.2129 731.697 49.1191 731.697 47.6934C731.697 46.2676 732.049 45.1797 732.752 44.4297C733.459 43.6758 734.471 43.2988 735.787 43.2988C737.104 43.2988 738.109 43.6777 738.805 44.4355C739.504 45.1934 739.854 46.2832 739.854 47.7051ZM733.602 47.7051C733.602 48.6621 733.783 49.3828 734.146 49.8672C734.51 50.3516 735.053 50.5938 735.775 50.5938C737.225 50.5938 737.949 49.6309 737.949 47.7051C737.949 45.7754 737.229 44.8105 735.787 44.8105C735.064 44.8105 734.52 45.0547 734.152 45.543C733.785 46.0273 733.602 46.748 733.602 47.7051ZM745.086 52.1172C744.316 52.1172 743.713 51.8379 743.275 51.2793H743.182C743.244 51.8262 743.275 52.1426 743.275 52.2285V54.8828H741.488V45.4492H742.941L743.193 46.2988H743.275C743.693 45.6504 744.312 45.3262 745.133 45.3262C745.906 45.3262 746.512 45.625 746.949 46.2227C747.387 46.8203 747.605 47.6504 747.605 48.7129C747.605 49.4121 747.502 50.0195 747.295 50.5352C747.092 51.0508 746.801 51.4434 746.422 51.7129C746.043 51.9824 745.598 52.1172 745.086 52.1172ZM744.559 46.7559C744.117 46.7559 743.795 46.8926 743.592 47.166C743.389 47.4355 743.283 47.8828 743.275 48.5078V48.7012C743.275 49.4043 743.379 49.9082 743.586 50.2129C743.797 50.5176 744.129 50.6699 744.582 50.6699C745.383 50.6699 745.783 50.0098 745.783 48.6895C745.783 48.0449 745.684 47.5625 745.484 47.2422C745.289 46.918 744.98 46.7559 744.559 46.7559ZM751.795 46.5977C751.416 46.5977 751.119 46.7188 750.904 46.9609C750.689 47.1992 750.566 47.5391 750.535 47.9805H753.043C753.035 47.5391 752.92 47.1992 752.697 46.9609C752.475 46.7188 752.174 46.5977 751.795 46.5977ZM752.047 52.1172C750.992 52.1172 750.168 51.8262 749.574 51.2441C748.98 50.6621 748.684 49.8379 748.684 48.7715C748.684 47.6738 748.957 46.8262 749.504 46.2285C750.055 45.627 750.814 45.3262 751.783 45.3262C752.709 45.3262 753.43 45.5898 753.945 46.1172C754.461 46.6445 754.719 47.373 754.719 48.3027V49.1699H750.494C750.514 49.6777 750.664 50.0742 750.945 50.3594C751.227 50.6445 751.621 50.7871 752.129 50.7871C752.523 50.7871 752.896 50.7461 753.248 50.6641C753.6 50.582 753.967 50.4512 754.35 50.2715V51.6543C754.037 51.8105 753.703 51.9258 753.348 52C752.992 52.0781 752.559 52.1172 752.047 52.1172ZM762.219 52H760.432V48.1738C760.432 47.7012 760.348 47.3477 760.18 47.1133C760.012 46.875 759.744 46.7559 759.377 46.7559C758.877 46.7559 758.516 46.9238 758.293 47.2598C758.07 47.5918 757.959 48.1445 757.959 48.918V52H756.172V45.4492H757.537L757.777 46.2871H757.877C758.076 45.9707 758.35 45.7324 758.697 45.5723C759.049 45.4082 759.447 45.3262 759.893 45.3262C760.654 45.3262 761.232 45.5332 761.627 45.9473C762.021 46.3574 762.219 46.9512 762.219 47.7285V52ZM772.373 49.6211C772.373 50.3945 772.094 51.0039 771.535 51.4492C770.98 51.8945 770.207 52.1172 769.215 52.1172C768.301 52.1172 767.492 51.9453 766.789 51.6016V49.9141C767.367 50.1719 767.855 50.3535 768.254 50.459C768.656 50.5645 769.023 50.6172 769.355 50.6172C769.754 50.6172 770.059 50.541 770.27 50.3887C770.484 50.2363 770.592 50.0098 770.592 49.709C770.592 49.541 770.545 49.3926 770.451 49.2637C770.357 49.1309 770.219 49.0039 770.035 48.8828C769.855 48.7617 769.486 48.5684 768.928 48.3027C768.404 48.0566 768.012 47.8203 767.75 47.5938C767.488 47.3672 767.279 47.1035 767.123 46.8027C766.967 46.502 766.889 46.1504 766.889 45.748C766.889 44.9902 767.145 44.3945 767.656 43.9609C768.172 43.5273 768.883 43.3105 769.789 43.3105C770.234 43.3105 770.658 43.3633 771.061 43.4688C771.467 43.5742 771.891 43.7227 772.332 43.9141L771.746 45.3262C771.289 45.1387 770.91 45.0078 770.609 44.9336C770.312 44.8594 770.02 44.8223 769.73 44.8223C769.387 44.8223 769.123 44.9023 768.939 45.0625C768.756 45.2227 768.664 45.4316 768.664 45.6895C768.664 45.8496 768.701 45.9902 768.775 46.1113C768.85 46.2285 768.967 46.3438 769.127 46.457C769.291 46.5664 769.676 46.7656 770.281 47.0547C771.082 47.4375 771.631 47.8223 771.928 48.209C772.225 48.5918 772.373 49.0625 772.373 49.6211ZM777.945 52L777.6 51.1094H777.553C777.252 51.4883 776.941 51.752 776.621 51.9004C776.305 52.0449 775.891 52.1172 775.379 52.1172C774.75 52.1172 774.254 51.9375 773.891 51.5781C773.531 51.2188 773.352 50.707 773.352 50.043C773.352 49.3477 773.594 48.8359 774.078 48.5078C774.566 48.1758 775.301 47.9922 776.281 47.957L777.418 47.9219V47.6348C777.418 46.9707 777.078 46.6387 776.398 46.6387C775.875 46.6387 775.26 46.7969 774.553 47.1133L773.961 45.9062C774.715 45.5117 775.551 45.3145 776.469 45.3145C777.348 45.3145 778.021 45.5059 778.49 45.8887C778.959 46.2715 779.193 46.8535 779.193 47.6348V52H777.945ZM777.418 48.9648L776.727 48.9883C776.207 49.0039 775.82 49.0977 775.566 49.2695C775.312 49.4414 775.186 49.7031 775.186 50.0547C775.186 50.5586 775.475 50.8105 776.053 50.8105C776.467 50.8105 776.797 50.6914 777.043 50.4531C777.293 50.2148 777.418 49.8984 777.418 49.5039V48.9648ZM787.086 52H785.299V48.1738C785.299 47.7012 785.215 47.3477 785.047 47.1133C784.879 46.875 784.611 46.7559 784.244 46.7559C783.744 46.7559 783.383 46.9238 783.16 47.2598C782.938 47.5918 782.826 48.1445 782.826 48.918V52H781.039V45.4492H782.404L782.645 46.2871H782.744C782.943 45.9707 783.217 45.7324 783.564 45.5723C783.916 45.4082 784.314 45.3262 784.76 45.3262C785.521 45.3262 786.1 45.5332 786.494 45.9473C786.889 46.3574 787.086 46.9512 787.086 47.7285V52ZM793.496 50.0547C793.496 50.7266 793.262 51.2383 792.793 51.5898C792.328 51.9414 791.631 52.1172 790.701 52.1172C790.225 52.1172 789.818 52.084 789.482 52.0176C789.146 51.9551 788.832 51.8613 788.539 51.7363V50.2598C788.871 50.416 789.244 50.5469 789.658 50.6523C790.076 50.7578 790.443 50.8105 790.76 50.8105C791.408 50.8105 791.732 50.623 791.732 50.248C791.732 50.1074 791.689 49.9941 791.604 49.9082C791.518 49.8184 791.369 49.7188 791.158 49.6094C790.947 49.4961 790.666 49.3652 790.314 49.2168C789.811 49.0059 789.439 48.8105 789.201 48.6309C788.967 48.4512 788.795 48.2461 788.686 48.0156C788.58 47.7812 788.527 47.4941 788.527 47.1543C788.527 46.5723 788.752 46.123 789.201 45.8066C789.654 45.4863 790.295 45.3262 791.123 45.3262C791.912 45.3262 792.68 45.498 793.426 45.8418L792.887 47.1309C792.559 46.9902 792.252 46.875 791.967 46.7852C791.682 46.6953 791.391 46.6504 791.094 46.6504C790.566 46.6504 790.303 46.793 790.303 47.0781C790.303 47.2383 790.387 47.377 790.555 47.4941C790.727 47.6113 791.1 47.7852 791.674 48.0156C792.186 48.2227 792.561 48.416 792.799 48.5957C793.037 48.7754 793.213 48.9824 793.326 49.2168C793.439 49.4512 793.496 49.7305 793.496 50.0547ZM733.531 63.418H734.504C735.156 63.418 735.629 63.2969 735.922 63.0547C736.215 62.8125 736.361 62.4531 736.361 61.9766C736.361 61.4922 736.203 61.1445 735.887 60.9336C735.57 60.7227 735.094 60.6172 734.457 60.6172H733.531V63.418ZM733.531 64.5781V68H732.131V59.4336H734.551C735.656 59.4336 736.475 59.6406 737.006 60.0547C737.537 60.4688 737.803 61.0938 737.803 61.9297C737.803 62.9961 737.248 63.7559 736.139 64.209L738.559 68H736.965L734.914 64.5781H733.531ZM742.49 68.1172C741.482 68.1172 740.693 67.8242 740.123 67.2383C739.557 66.6484 739.273 65.8379 739.273 64.8066C739.273 63.748 739.537 62.916 740.064 62.3105C740.592 61.7051 741.316 61.4023 742.238 61.4023C743.094 61.4023 743.77 61.6621 744.266 62.1816C744.762 62.7012 745.01 63.416 745.01 64.3262V65.0703H740.691C740.711 65.6992 740.881 66.1836 741.201 66.5234C741.521 66.8594 741.973 67.0273 742.555 67.0273C742.938 67.0273 743.293 66.9922 743.621 66.9219C743.953 66.8477 744.309 66.7266 744.688 66.5586V67.6777C744.352 67.8379 744.012 67.9512 743.668 68.0176C743.324 68.084 742.932 68.1172 742.49 68.1172ZM742.238 62.4453C741.801 62.4453 741.449 62.584 741.184 62.8613C740.922 63.1387 740.766 63.543 740.715 64.0742H743.656C743.648 63.5391 743.52 63.1348 743.27 62.8613C743.02 62.584 742.676 62.4453 742.238 62.4453ZM752.047 61.5195V62.2754L750.939 62.4805C751.041 62.6172 751.125 62.7852 751.191 62.9844C751.258 63.1836 751.291 63.3945 751.291 63.6172C751.291 64.2852 751.061 64.8105 750.6 65.1934C750.139 65.5762 749.504 65.7676 748.695 65.7676C748.488 65.7676 748.301 65.752 748.133 65.7207C747.836 65.9043 747.688 66.1191 747.688 66.3652C747.688 66.5137 747.756 66.625 747.893 66.6992C748.033 66.7734 748.289 66.8105 748.66 66.8105H749.791C750.506 66.8105 751.049 66.9629 751.42 67.2676C751.791 67.5723 751.977 68.0117 751.977 68.5859C751.977 69.3203 751.674 69.8867 751.068 70.2852C750.463 70.6836 749.588 70.8828 748.443 70.8828C747.561 70.8828 746.887 70.7266 746.422 70.4141C745.957 70.1016 745.725 69.6562 745.725 69.0781C745.725 68.6797 745.85 68.3438 746.1 68.0703C746.354 67.8008 746.707 67.6133 747.16 67.5078C746.977 67.4297 746.824 67.3047 746.703 67.1328C746.586 66.957 746.527 66.7734 746.527 66.582C746.527 66.3398 746.596 66.1348 746.732 65.9668C746.869 65.7988 747.072 65.6328 747.342 65.4688C747.006 65.3242 746.732 65.0898 746.521 64.7656C746.314 64.4375 746.211 64.0547 746.211 63.6172C746.211 62.9141 746.432 62.3691 746.873 61.9824C747.318 61.5957 747.951 61.4023 748.771 61.4023C748.955 61.4023 749.146 61.416 749.346 61.4434C749.549 61.4668 749.701 61.4922 749.803 61.5195H752.047ZM746.955 69.0078C746.955 69.3047 747.088 69.5332 747.354 69.6934C747.623 69.8535 748 69.9336 748.484 69.9336C749.234 69.9336 749.793 69.8262 750.16 69.6113C750.527 69.3965 750.711 69.1113 750.711 68.7559C750.711 68.4746 750.609 68.2734 750.406 68.1523C750.207 68.0352 749.834 67.9766 749.287 67.9766H748.244C747.85 67.9766 747.535 68.0684 747.301 68.252C747.07 68.4395 746.955 68.6914 746.955 69.0078ZM747.547 63.6172C747.547 64.0234 747.65 64.3359 747.857 64.5547C748.068 64.7734 748.369 64.8828 748.76 64.8828C749.557 64.8828 749.955 64.457 749.955 63.6055C749.955 63.1836 749.855 62.8594 749.656 62.6328C749.461 62.4023 749.162 62.2871 748.76 62.2871C748.361 62.2871 748.059 62.4004 747.852 62.627C747.648 62.8535 747.547 63.1836 747.547 63.6172ZM757.824 68L757.631 67.1504H757.561C757.369 67.4512 757.096 67.6875 756.74 67.8594C756.389 68.0312 755.986 68.1172 755.533 68.1172C754.748 68.1172 754.162 67.9219 753.775 67.5312C753.389 67.1406 753.195 66.5488 753.195 65.7559V61.5195H754.584V65.5156C754.584 66.0117 754.686 66.3848 754.889 66.6348C755.092 66.8809 755.41 67.0039 755.844 67.0039C756.422 67.0039 756.846 66.832 757.115 66.4883C757.389 66.1406 757.525 65.5605 757.525 64.748V61.5195H758.908V68H757.824ZM762.248 68H760.871V58.8828H762.248V68ZM768.277 68L768.002 67.0977H767.955C767.643 67.4922 767.328 67.7617 767.012 67.9062C766.695 68.0469 766.289 68.1172 765.793 68.1172C765.156 68.1172 764.658 67.9453 764.299 67.6016C763.943 67.2578 763.766 66.7715 763.766 66.1426C763.766 65.4746 764.014 64.9707 764.51 64.6309C765.006 64.291 765.762 64.1055 766.777 64.0742L767.896 64.0391V63.6934C767.896 63.2793 767.799 62.9707 767.604 62.7676C767.412 62.5605 767.113 62.457 766.707 62.457C766.375 62.457 766.057 62.5059 765.752 62.6035C765.447 62.7012 765.154 62.8164 764.873 62.9492L764.428 61.9648C764.779 61.7812 765.164 61.6426 765.582 61.5488C766 61.4512 766.395 61.4023 766.766 61.4023C767.59 61.4023 768.211 61.582 768.629 61.9414C769.051 62.3008 769.262 62.8652 769.262 63.6348V68H768.277ZM766.227 67.0625C766.727 67.0625 767.127 66.9238 767.428 66.6465C767.732 66.3652 767.885 65.9727 767.885 65.4688V64.9062L767.053 64.9414C766.404 64.9648 765.932 65.0742 765.635 65.2695C765.342 65.4609 765.195 65.7559 765.195 66.1543C765.195 66.4434 765.281 66.668 765.453 66.8281C765.625 66.9844 765.883 67.0625 766.227 67.0625ZM774.471 61.4023C774.748 61.4023 774.977 61.4219 775.156 61.4609L775.021 62.7441C774.826 62.6973 774.623 62.6738 774.412 62.6738C773.861 62.6738 773.414 62.8535 773.07 63.2129C772.73 63.5723 772.561 64.0391 772.561 64.6133V68H771.184V61.5195H772.262L772.443 62.6621H772.514C772.729 62.2754 773.008 61.9688 773.352 61.7422C773.699 61.5156 774.072 61.4023 774.471 61.4023ZM737.07 81.6738C737.07 82.4355 736.795 83.0332 736.244 83.4668C735.693 83.9004 734.934 84.1172 733.965 84.1172C732.996 84.1172 732.203 83.9668 731.586 83.666V82.3418C731.977 82.5254 732.391 82.6699 732.828 82.7754C733.27 82.8809 733.68 82.9336 734.059 82.9336C734.613 82.9336 735.021 82.8281 735.283 82.6172C735.549 82.4062 735.682 82.123 735.682 81.7676C735.682 81.4473 735.561 81.1758 735.318 80.9531C735.076 80.7305 734.576 80.4668 733.818 80.1621C733.037 79.8457 732.486 79.4844 732.166 79.0781C731.846 78.6719 731.686 78.1836 731.686 77.6133C731.686 76.8984 731.939 76.3359 732.447 75.9258C732.955 75.5156 733.637 75.3105 734.492 75.3105C735.312 75.3105 736.129 75.4902 736.941 75.8496L736.496 76.9922C735.734 76.6719 735.055 76.5117 734.457 76.5117C734.004 76.5117 733.66 76.6113 733.426 76.8105C733.191 77.0059 733.074 77.2656 733.074 77.5898C733.074 77.8125 733.121 78.0039 733.215 78.1641C733.309 78.3203 733.463 78.4688 733.678 78.6094C733.893 78.75 734.279 78.9355 734.838 79.166C735.467 79.4277 735.928 79.6719 736.221 79.8984C736.514 80.125 736.729 80.3809 736.865 80.666C737.002 80.9512 737.07 81.2871 737.07 81.6738ZM739.959 84H738.582V77.5195H739.959V84ZM738.5 75.8027C738.5 75.5566 738.566 75.3672 738.699 75.2344C738.836 75.1016 739.029 75.0352 739.279 75.0352C739.521 75.0352 739.709 75.1016 739.842 75.2344C739.979 75.3672 740.047 75.5566 740.047 75.8027C740.047 76.0371 739.979 76.2227 739.842 76.3594C739.709 76.4922 739.521 76.5586 739.279 76.5586C739.029 76.5586 738.836 76.4922 738.699 76.3594C738.566 76.2227 738.5 76.0371 738.5 75.8027ZM746.264 84H741.348V83.1504L744.623 78.5742H741.547V77.5195H746.17V78.4805L742.965 82.9453H746.264V84ZM750.506 84.1172C749.498 84.1172 748.709 83.8242 748.139 83.2383C747.572 82.6484 747.289 81.8379 747.289 80.8066C747.289 79.748 747.553 78.916 748.08 78.3105C748.607 77.7051 749.332 77.4023 750.254 77.4023C751.109 77.4023 751.785 77.6621 752.281 78.1816C752.777 78.7012 753.025 79.416 753.025 80.3262V81.0703H748.707C748.727 81.6992 748.896 82.1836 749.217 82.5234C749.537 82.8594 749.988 83.0273 750.57 83.0273C750.953 83.0273 751.309 82.9922 751.637 82.9219C751.969 82.8477 752.324 82.7266 752.703 82.5586V83.6777C752.367 83.8379 752.027 83.9512 751.684 84.0176C751.34 84.084 750.947 84.1172 750.506 84.1172ZM750.254 78.4453C749.816 78.4453 749.465 78.584 749.199 78.8613C748.938 79.1387 748.781 79.543 748.73 80.0742H751.672C751.664 79.5391 751.535 79.1348 751.285 78.8613C751.035 78.584 750.691 78.4453 750.254 78.4453ZM754.385 83.2676C754.385 82.9824 754.459 82.7637 754.607 82.6113C754.756 82.459 754.971 82.3828 755.252 82.3828C755.537 82.3828 755.754 82.4629 755.902 82.623C756.051 82.7793 756.125 82.9941 756.125 83.2676C756.125 83.5449 756.049 83.7656 755.896 83.9297C755.748 84.0898 755.533 84.1699 755.252 84.1699C754.971 84.1699 754.756 84.0898 754.607 83.9297C754.459 83.7695 754.385 83.5488 754.385 83.2676ZM754.385 78.2637C754.385 77.6738 754.674 77.3789 755.252 77.3789C755.545 77.3789 755.764 77.457 755.908 77.6133C756.053 77.7695 756.125 77.9863 756.125 78.2637C756.125 78.541 756.049 78.7617 755.896 78.9258C755.748 79.0859 755.533 79.166 755.252 79.166C754.971 79.166 754.756 79.0859 754.607 78.9258C754.459 78.7656 754.385 78.5449 754.385 78.2637ZM764.598 84H763.221V78.4688C763.221 77.8086 763.236 77.2852 763.268 76.8984C763.178 76.9922 763.066 77.0957 762.934 77.209C762.805 77.3223 762.367 77.6816 761.621 78.2871L760.93 77.4141L763.449 75.4336H764.598V84ZM767.434 80.3496C767.434 76.998 768.799 75.3223 771.529 75.3223C771.959 75.3223 772.322 75.3555 772.619 75.4219V76.5703C772.322 76.4844 771.979 76.4414 771.588 76.4414C770.67 76.4414 769.98 76.6875 769.52 77.1797C769.059 77.6719 768.809 78.4609 768.77 79.5469H768.84C769.023 79.2305 769.281 78.9863 769.613 78.8145C769.945 78.6387 770.336 78.5508 770.785 78.5508C771.562 78.5508 772.168 78.7891 772.602 79.2656C773.035 79.7422 773.252 80.3887 773.252 81.2051C773.252 82.1035 773 82.8145 772.496 83.3379C771.996 83.8574 771.312 84.1172 770.445 84.1172C769.832 84.1172 769.299 83.9707 768.846 83.6777C768.393 83.3809 768.043 82.9512 767.797 82.3887C767.555 81.8223 767.434 81.1426 767.434 80.3496ZM770.422 82.9805C770.895 82.9805 771.258 82.8281 771.512 82.5234C771.77 82.2188 771.898 81.7832 771.898 81.2168C771.898 80.7246 771.777 80.3379 771.535 80.0566C771.297 79.7754 770.938 79.6348 770.457 79.6348C770.16 79.6348 769.887 79.6992 769.637 79.8281C769.387 79.9531 769.189 80.127 769.045 80.3496C768.9 80.5684 768.828 80.793 768.828 81.0234C768.828 81.5742 768.977 82.0391 769.273 82.418C769.574 82.793 769.957 82.9805 770.422 82.9805Z" fill="#fff"/><path fill-rule="evenodd" clip-rule="evenodd" d="M123 65C117.48 65 113 69.48 113 75C113 80.52 117.48 85 123 85C128.52 85 133 80.52 133 75C133 69.48 128.52 65 123 65ZM123 70C120.24 70 118 72.24 118 75C118 77.76 120.24 80 123 80C125.76 80 128 77.76 128 75C128 72.24 125.76 70 123 70ZM115 75C115 79.42 118.58 83 123 83C127.42 83 131 79.42 131 75C131 70.58 127.42 67 123 67C118.58 67 115 70.58 115 75Z" fill="#019AEB"/></svg>