<svg width="824" height="260" viewBox="0 0 824 260" fill="none" xmlns="http://www.w3.org/2000/svg"><rect width="824" height="260" fill="#F1F1F6"/><path fill-rule="evenodd" clip-rule="evenodd" d="M112.666 130.5C112.666 123.14 118.639 117.167 125.999 117.167C133.359 117.167 139.333 123.14 139.333 130.5C139.333 137.86 133.359 143.833 125.999 143.833C118.639 143.833 112.666 137.86 112.666 130.5ZM115.333 130.5C115.333 136.393 120.106 141.167 125.999 141.167C131.893 141.167 136.666 136.393 136.666 130.5C136.666 124.607 131.893 119.833 125.999 119.833C120.106 119.833 115.333 124.607 115.333 130.5Z" fill="#6A6E79"/><rect x="110.5" y="115" width="31" height="31" rx="15.5" stroke="#217CBB"/><path d="M148.898 131.75V136.5H147.57V125.078H150.703C152.104 125.078 153.138 125.346 153.805 125.883C154.477 126.419 154.812 127.227 154.812 128.305C154.812 129.815 154.047 130.836 152.516 131.367L155.617 136.5H154.047L151.281 131.75H148.898ZM148.898 130.609H150.719C151.656 130.609 152.344 130.424 152.781 130.055C153.219 129.68 153.438 129.12 153.438 128.375C153.438 127.62 153.214 127.076 152.766 126.742C152.323 126.409 151.609 126.242 150.625 126.242H148.898V130.609ZM162.531 136.5L162.273 135.281H162.211C161.784 135.818 161.357 136.182 160.93 136.375C160.508 136.562 159.979 136.656 159.344 136.656C158.495 136.656 157.828 136.438 157.344 136C156.865 135.562 156.625 134.94 156.625 134.133C156.625 132.404 158.008 131.497 160.773 131.414L162.227 131.367V130.836C162.227 130.164 162.081 129.669 161.789 129.352C161.503 129.029 161.042 128.867 160.406 128.867C159.693 128.867 158.885 129.086 157.984 129.523L157.586 128.531C158.008 128.302 158.469 128.122 158.969 127.992C159.474 127.862 159.979 127.797 160.484 127.797C161.505 127.797 162.26 128.023 162.75 128.477C163.245 128.93 163.492 129.656 163.492 130.656V136.5H162.531ZM159.602 135.586C160.409 135.586 161.042 135.365 161.5 134.922C161.964 134.479 162.195 133.859 162.195 133.062V132.289L160.898 132.344C159.867 132.38 159.122 132.542 158.664 132.828C158.211 133.109 157.984 133.549 157.984 134.148C157.984 134.617 158.125 134.974 158.406 135.219C158.693 135.464 159.091 135.586 159.602 135.586ZM172 135.352H171.93C171.331 136.221 170.435 136.656 169.242 136.656C168.122 136.656 167.25 136.273 166.625 135.508C166.005 134.742 165.695 133.654 165.695 132.242C165.695 130.831 166.008 129.734 166.633 128.953C167.258 128.172 168.128 127.781 169.242 127.781C170.404 127.781 171.294 128.203 171.914 129.047H172.016L171.961 128.43L171.93 127.828V124.344H173.227V136.5H172.172L172 135.352ZM169.406 135.57C170.292 135.57 170.932 135.331 171.328 134.852C171.729 134.367 171.93 133.589 171.93 132.516V132.242C171.93 131.029 171.727 130.164 171.32 129.648C170.919 129.128 170.276 128.867 169.391 128.867C168.63 128.867 168.047 129.164 167.641 129.758C167.24 130.346 167.039 131.18 167.039 132.258C167.039 133.352 167.24 134.177 167.641 134.734C168.042 135.292 168.63 135.57 169.406 135.57ZM177.281 136.5H175.984V127.938H177.281V136.5ZM175.875 125.617C175.875 125.32 175.948 125.104 176.094 124.969C176.24 124.828 176.422 124.758 176.641 124.758C176.849 124.758 177.029 124.828 177.18 124.969C177.331 125.109 177.406 125.326 177.406 125.617C177.406 125.909 177.331 126.128 177.18 126.273C177.029 126.414 176.849 126.484 176.641 126.484C176.422 126.484 176.24 126.414 176.094 126.273C175.948 126.128 175.875 125.909 175.875 125.617ZM187.422 132.211C187.422 133.607 187.07 134.698 186.367 135.484C185.664 136.266 184.693 136.656 183.453 136.656C182.688 136.656 182.008 136.477 181.414 136.117C180.82 135.758 180.362 135.242 180.039 134.57C179.716 133.898 179.555 133.112 179.555 132.211C179.555 130.815 179.904 129.729 180.602 128.953C181.299 128.172 182.268 127.781 183.508 127.781C184.706 127.781 185.656 128.18 186.359 128.977C187.068 129.773 187.422 130.852 187.422 132.211ZM180.898 132.211C180.898 133.305 181.117 134.138 181.555 134.711C181.992 135.284 182.635 135.57 183.484 135.57C184.333 135.57 184.977 135.286 185.414 134.719C185.857 134.146 186.078 133.31 186.078 132.211C186.078 131.122 185.857 130.297 185.414 129.734C184.977 129.167 184.328 128.883 183.469 128.883C182.62 128.883 181.979 129.161 181.547 129.719C181.115 130.276 180.898 131.107 180.898 132.211ZM197.844 127.797C198.969 127.797 199.841 128.182 200.461 128.953C201.086 129.719 201.398 130.805 201.398 132.211C201.398 133.617 201.083 134.711 200.453 135.492C199.828 136.268 198.958 136.656 197.844 136.656C197.286 136.656 196.776 136.555 196.312 136.352C195.854 136.143 195.469 135.826 195.156 135.398H195.062L194.789 136.5H193.859V124.344H195.156V127.297C195.156 127.958 195.135 128.552 195.094 129.078H195.156C195.76 128.224 196.656 127.797 197.844 127.797ZM197.656 128.883C196.771 128.883 196.133 129.138 195.742 129.648C195.352 130.154 195.156 131.008 195.156 132.211C195.156 133.414 195.357 134.276 195.758 134.797C196.159 135.312 196.802 135.57 197.688 135.57C198.484 135.57 199.078 135.281 199.469 134.703C199.859 134.12 200.055 133.284 200.055 132.195C200.055 131.081 199.859 130.25 199.469 129.703C199.078 129.156 198.474 128.883 197.656 128.883ZM204.891 127.938V133.492C204.891 134.19 205.049 134.711 205.367 135.055C205.685 135.398 206.182 135.57 206.859 135.57C207.755 135.57 208.409 135.326 208.82 134.836C209.237 134.346 209.445 133.547 209.445 132.438V127.938H210.742V136.5H209.672L209.484 135.352H209.414C209.148 135.773 208.779 136.096 208.305 136.32C207.836 136.544 207.299 136.656 206.695 136.656C205.654 136.656 204.872 136.409 204.352 135.914C203.836 135.419 203.578 134.628 203.578 133.539V127.938H204.891ZM216.266 135.586C216.495 135.586 216.716 135.57 216.93 135.539C217.143 135.503 217.312 135.466 217.438 135.43V136.422C217.297 136.49 217.089 136.544 216.812 136.586C216.542 136.633 216.297 136.656 216.078 136.656C214.422 136.656 213.594 135.784 213.594 134.039V128.945H212.367V128.32L213.594 127.781L214.141 125.953H214.891V127.938H217.375V128.945H214.891V133.984C214.891 134.5 215.013 134.896 215.258 135.172C215.503 135.448 215.839 135.586 216.266 135.586ZM221.922 135.586C222.151 135.586 222.372 135.57 222.586 135.539C222.799 135.503 222.969 135.466 223.094 135.43V136.422C222.953 136.49 222.745 136.544 222.469 136.586C222.198 136.633 221.953 136.656 221.734 136.656C220.078 136.656 219.25 135.784 219.25 134.039V128.945H218.023V128.32L219.25 127.781L219.797 125.953H220.547V127.938H223.031V128.945H220.547V133.984C220.547 134.5 220.669 134.896 220.914 135.172C221.159 135.448 221.495 135.586 221.922 135.586ZM232.203 132.211C232.203 133.607 231.852 134.698 231.148 135.484C230.445 136.266 229.474 136.656 228.234 136.656C227.469 136.656 226.789 136.477 226.195 136.117C225.602 135.758 225.143 135.242 224.82 134.57C224.497 133.898 224.336 133.112 224.336 132.211C224.336 130.815 224.685 129.729 225.383 128.953C226.081 128.172 227.049 127.781 228.289 127.781C229.487 127.781 230.438 128.18 231.141 128.977C231.849 129.773 232.203 130.852 232.203 132.211ZM225.68 132.211C225.68 133.305 225.898 134.138 226.336 134.711C226.773 135.284 227.417 135.57 228.266 135.57C229.115 135.57 229.758 135.286 230.195 134.719C230.638 134.146 230.859 133.31 230.859 132.211C230.859 131.122 230.638 130.297 230.195 129.734C229.758 129.167 229.109 128.883 228.25 128.883C227.401 128.883 226.76 129.161 226.328 129.719C225.896 130.276 225.68 131.107 225.68 132.211ZM240.344 136.5V130.961C240.344 130.263 240.185 129.742 239.867 129.398C239.549 129.055 239.052 128.883 238.375 128.883C237.479 128.883 236.823 129.125 236.406 129.609C235.99 130.094 235.781 130.893 235.781 132.008V136.5H234.484V127.938H235.539L235.75 129.109H235.812C236.078 128.688 236.451 128.362 236.93 128.133C237.409 127.898 237.943 127.781 238.531 127.781C239.562 127.781 240.339 128.031 240.859 128.531C241.38 129.026 241.641 129.82 241.641 130.914V136.5H240.344Z" fill="#252A2E"/><g opacity=".3"><path fill-rule="evenodd" clip-rule="evenodd" d="M427.691 130.5C427.691 123.706 433.205 118.192 439.999 118.192C446.793 118.192 452.307 123.706 452.307 130.5C452.307 137.294 446.793 142.808 439.999 142.808C433.205 142.808 427.691 137.294 427.691 130.5ZM430.153 130.5C430.153 135.94 434.559 140.346 439.999 140.346C445.439 140.346 449.845 135.94 449.845 130.5C449.845 125.06 445.439 120.654 439.999 120.654C434.559 120.654 430.153 125.06 430.153 130.5Z" fill="#6A6E79"/><rect x="424.5" y="115" width="31" height="31" rx="15.5" stroke="#217CBB"/><path d="M462.898 131.75V136.5H461.57V125.078H464.703C466.104 125.078 467.138 125.346 467.805 125.883C468.477 126.419 468.812 127.227 468.812 128.305C468.812 129.815 468.047 130.836 466.516 131.367L469.617 136.5H468.047L465.281 131.75H462.898ZM462.898 130.609H464.719C465.656 130.609 466.344 130.424 466.781 130.055C467.219 129.68 467.438 129.12 467.438 128.375C467.438 127.62 467.214 127.076 466.766 126.742C466.323 126.409 465.609 126.242 464.625 126.242H462.898V130.609ZM476.531 136.5L476.273 135.281H476.211C475.784 135.818 475.357 136.182 474.93 136.375C474.508 136.562 473.979 136.656 473.344 136.656C472.495 136.656 471.828 136.438 471.344 136C470.865 135.562 470.625 134.94 470.625 134.133C470.625 132.404 472.008 131.497 474.773 131.414L476.227 131.367V130.836C476.227 130.164 476.081 129.669 475.789 129.352C475.503 129.029 475.042 128.867 474.406 128.867C473.693 128.867 472.885 129.086 471.984 129.523L471.586 128.531C472.008 128.302 472.469 128.122 472.969 127.992C473.474 127.862 473.979 127.797 474.484 127.797C475.505 127.797 476.26 128.023 476.75 128.477C477.245 128.93 477.492 129.656 477.492 130.656V136.5H476.531ZM473.602 135.586C474.409 135.586 475.042 135.365 475.5 134.922C475.964 134.479 476.195 133.859 476.195 133.062V132.289L474.898 132.344C473.867 132.38 473.122 132.542 472.664 132.828C472.211 133.109 471.984 133.549 471.984 134.148C471.984 134.617 472.125 134.974 472.406 135.219C472.693 135.464 473.091 135.586 473.602 135.586ZM486 135.352H485.93C485.331 136.221 484.435 136.656 483.242 136.656C482.122 136.656 481.25 136.273 480.625 135.508C480.005 134.742 479.695 133.654 479.695 132.242C479.695 130.831 480.008 129.734 480.633 128.953C481.258 128.172 482.128 127.781 483.242 127.781C484.404 127.781 485.294 128.203 485.914 129.047H486.016L485.961 128.43L485.93 127.828V124.344H487.227V136.5H486.172L486 135.352ZM483.406 135.57C484.292 135.57 484.932 135.331 485.328 134.852C485.729 134.367 485.93 133.589 485.93 132.516V132.242C485.93 131.029 485.727 130.164 485.32 129.648C484.919 129.128 484.276 128.867 483.391 128.867C482.63 128.867 482.047 129.164 481.641 129.758C481.24 130.346 481.039 131.18 481.039 132.258C481.039 133.352 481.24 134.177 481.641 134.734C482.042 135.292 482.63 135.57 483.406 135.57ZM491.281 136.5H489.984V127.938H491.281V136.5ZM489.875 125.617C489.875 125.32 489.948 125.104 490.094 124.969C490.24 124.828 490.422 124.758 490.641 124.758C490.849 124.758 491.029 124.828 491.18 124.969C491.331 125.109 491.406 125.326 491.406 125.617C491.406 125.909 491.331 126.128 491.18 126.273C491.029 126.414 490.849 126.484 490.641 126.484C490.422 126.484 490.24 126.414 490.094 126.273C489.948 126.128 489.875 125.909 489.875 125.617ZM501.422 132.211C501.422 133.607 501.07 134.698 500.367 135.484C499.664 136.266 498.693 136.656 497.453 136.656C496.688 136.656 496.008 136.477 495.414 136.117C494.82 135.758 494.362 135.242 494.039 134.57C493.716 133.898 493.555 133.112 493.555 132.211C493.555 130.815 493.904 129.729 494.602 128.953C495.299 128.172 496.268 127.781 497.508 127.781C498.706 127.781 499.656 128.18 500.359 128.977C501.068 129.773 501.422 130.852 501.422 132.211ZM494.898 132.211C494.898 133.305 495.117 134.138 495.555 134.711C495.992 135.284 496.635 135.57 497.484 135.57C498.333 135.57 498.977 135.286 499.414 134.719C499.857 134.146 500.078 133.31 500.078 132.211C500.078 131.122 499.857 130.297 499.414 129.734C498.977 129.167 498.328 128.883 497.469 128.883C496.62 128.883 495.979 129.161 495.547 129.719C495.115 130.276 494.898 131.107 494.898 132.211ZM511.844 127.797C512.969 127.797 513.841 128.182 514.461 128.953C515.086 129.719 515.398 130.805 515.398 132.211C515.398 133.617 515.083 134.711 514.453 135.492C513.828 136.268 512.958 136.656 511.844 136.656C511.286 136.656 510.776 136.555 510.312 136.352C509.854 136.143 509.469 135.826 509.156 135.398H509.062L508.789 136.5H507.859V124.344H509.156V127.297C509.156 127.958 509.135 128.552 509.094 129.078H509.156C509.76 128.224 510.656 127.797 511.844 127.797ZM511.656 128.883C510.771 128.883 510.133 129.138 509.742 129.648C509.352 130.154 509.156 131.008 509.156 132.211C509.156 133.414 509.357 134.276 509.758 134.797C510.159 135.312 510.802 135.57 511.688 135.57C512.484 135.57 513.078 135.281 513.469 134.703C513.859 134.12 514.055 133.284 514.055 132.195C514.055 131.081 513.859 130.25 513.469 129.703C513.078 129.156 512.474 128.883 511.656 128.883ZM518.891 127.938V133.492C518.891 134.19 519.049 134.711 519.367 135.055C519.685 135.398 520.182 135.57 520.859 135.57C521.755 135.57 522.409 135.326 522.82 134.836C523.237 134.346 523.445 133.547 523.445 132.438V127.938H524.742V136.5H523.672L523.484 135.352H523.414C523.148 135.773 522.779 136.096 522.305 136.32C521.836 136.544 521.299 136.656 520.695 136.656C519.654 136.656 518.872 136.409 518.352 135.914C517.836 135.419 517.578 134.628 517.578 133.539V127.938H518.891ZM530.266 135.586C530.495 135.586 530.716 135.57 530.93 135.539C531.143 135.503 531.312 135.466 531.438 135.43V136.422C531.297 136.49 531.089 136.544 530.812 136.586C530.542 136.633 530.297 136.656 530.078 136.656C528.422 136.656 527.594 135.784 527.594 134.039V128.945H526.367V128.32L527.594 127.781L528.141 125.953H528.891V127.938H531.375V128.945H528.891V133.984C528.891 134.5 529.013 134.896 529.258 135.172C529.503 135.448 529.839 135.586 530.266 135.586ZM535.922 135.586C536.151 135.586 536.372 135.57 536.586 135.539C536.799 135.503 536.969 135.466 537.094 135.43V136.422C536.953 136.49 536.745 136.544 536.469 136.586C536.198 136.633 535.953 136.656 535.734 136.656C534.078 136.656 533.25 135.784 533.25 134.039V128.945H532.023V128.32L533.25 127.781L533.797 125.953H534.547V127.938H537.031V128.945H534.547V133.984C534.547 134.5 534.669 134.896 534.914 135.172C535.159 135.448 535.495 135.586 535.922 135.586ZM546.203 132.211C546.203 133.607 545.852 134.698 545.148 135.484C544.445 136.266 543.474 136.656 542.234 136.656C541.469 136.656 540.789 136.477 540.195 136.117C539.602 135.758 539.143 135.242 538.82 134.57C538.497 133.898 538.336 133.112 538.336 132.211C538.336 130.815 538.685 129.729 539.383 128.953C540.081 128.172 541.049 127.781 542.289 127.781C543.487 127.781 544.438 128.18 545.141 128.977C545.849 129.773 546.203 130.852 546.203 132.211ZM539.68 132.211C539.68 133.305 539.898 134.138 540.336 134.711C540.773 135.284 541.417 135.57 542.266 135.57C543.115 135.57 543.758 135.286 544.195 134.719C544.638 134.146 544.859 133.31 544.859 132.211C544.859 131.122 544.638 130.297 544.195 129.734C543.758 129.167 543.109 128.883 542.25 128.883C541.401 128.883 540.76 129.161 540.328 129.719C539.896 130.276 539.68 131.107 539.68 132.211ZM554.344 136.5V130.961C554.344 130.263 554.185 129.742 553.867 129.398C553.549 129.055 553.052 128.883 552.375 128.883C551.479 128.883 550.823 129.125 550.406 129.609C549.99 130.094 549.781 130.893 549.781 132.008V136.5H548.484V127.938H549.539L549.75 129.109H549.812C550.078 128.688 550.451 128.362 550.93 128.133C551.409 127.898 551.943 127.781 552.531 127.781C553.562 127.781 554.339 128.031 554.859 128.531C555.38 129.026 555.641 129.82 555.641 130.914V136.5H554.344Z" fill="#252A2E"/></g><path fill-rule="evenodd" clip-rule="evenodd" d="M282.999 118.192C276.205 118.192 270.691 123.706 270.691 130.5C270.691 137.294 276.205 142.808 282.999 142.808C289.793 142.808 295.307 137.294 295.307 130.5C295.307 123.706 289.793 118.192 282.999 118.192ZM282.999 124.346C279.602 124.346 276.845 127.103 276.845 130.5C276.845 133.897 279.602 136.654 282.999 136.654C286.396 136.654 289.153 133.897 289.153 130.5C289.153 127.103 286.396 124.346 282.999 124.346ZM273.153 130.5C273.153 135.94 277.559 140.346 282.999 140.346C288.439 140.346 292.845 135.94 292.845 130.5C292.845 125.06 288.439 120.654 282.999 120.654C277.559 120.654 273.153 125.06 273.153 130.5Z" fill="#0063A3"/><rect x="267.5" y="115" width="31" height="31" rx="15.5" stroke="#217CBB"/><path d="M305.898 131.75V136.5H304.57V125.078H307.703C309.104 125.078 310.138 125.346 310.805 125.883C311.477 126.419 311.812 127.227 311.812 128.305C311.812 129.815 311.047 130.836 309.516 131.367L312.617 136.5H311.047L308.281 131.75H305.898ZM305.898 130.609H307.719C308.656 130.609 309.344 130.424 309.781 130.055C310.219 129.68 310.438 129.12 310.438 128.375C310.438 127.62 310.214 127.076 309.766 126.742C309.323 126.409 308.609 126.242 307.625 126.242H305.898V130.609ZM319.531 136.5L319.273 135.281H319.211C318.784 135.818 318.357 136.182 317.93 136.375C317.508 136.562 316.979 136.656 316.344 136.656C315.495 136.656 314.828 136.438 314.344 136C313.865 135.562 313.625 134.94 313.625 134.133C313.625 132.404 315.008 131.497 317.773 131.414L319.227 131.367V130.836C319.227 130.164 319.081 129.669 318.789 129.352C318.503 129.029 318.042 128.867 317.406 128.867C316.693 128.867 315.885 129.086 314.984 129.523L314.586 128.531C315.008 128.302 315.469 128.122 315.969 127.992C316.474 127.862 316.979 127.797 317.484 127.797C318.505 127.797 319.26 128.023 319.75 128.477C320.245 128.93 320.492 129.656 320.492 130.656V136.5H319.531ZM316.602 135.586C317.409 135.586 318.042 135.365 318.5 134.922C318.964 134.479 319.195 133.859 319.195 133.062V132.289L317.898 132.344C316.867 132.38 316.122 132.542 315.664 132.828C315.211 133.109 314.984 133.549 314.984 134.148C314.984 134.617 315.125 134.974 315.406 135.219C315.693 135.464 316.091 135.586 316.602 135.586ZM329 135.352H328.93C328.331 136.221 327.435 136.656 326.242 136.656C325.122 136.656 324.25 136.273 323.625 135.508C323.005 134.742 322.695 133.654 322.695 132.242C322.695 130.831 323.008 129.734 323.633 128.953C324.258 128.172 325.128 127.781 326.242 127.781C327.404 127.781 328.294 128.203 328.914 129.047H329.016L328.961 128.43L328.93 127.828V124.344H330.227V136.5H329.172L329 135.352ZM326.406 135.57C327.292 135.57 327.932 135.331 328.328 134.852C328.729 134.367 328.93 133.589 328.93 132.516V132.242C328.93 131.029 328.727 130.164 328.32 129.648C327.919 129.128 327.276 128.867 326.391 128.867C325.63 128.867 325.047 129.164 324.641 129.758C324.24 130.346 324.039 131.18 324.039 132.258C324.039 133.352 324.24 134.177 324.641 134.734C325.042 135.292 325.63 135.57 326.406 135.57ZM334.281 136.5H332.984V127.938H334.281V136.5ZM332.875 125.617C332.875 125.32 332.948 125.104 333.094 124.969C333.24 124.828 333.422 124.758 333.641 124.758C333.849 124.758 334.029 124.828 334.18 124.969C334.331 125.109 334.406 125.326 334.406 125.617C334.406 125.909 334.331 126.128 334.18 126.273C334.029 126.414 333.849 126.484 333.641 126.484C333.422 126.484 333.24 126.414 333.094 126.273C332.948 126.128 332.875 125.909 332.875 125.617ZM344.422 132.211C344.422 133.607 344.07 134.698 343.367 135.484C342.664 136.266 341.693 136.656 340.453 136.656C339.688 136.656 339.008 136.477 338.414 136.117C337.82 135.758 337.362 135.242 337.039 134.57C336.716 133.898 336.555 133.112 336.555 132.211C336.555 130.815 336.904 129.729 337.602 128.953C338.299 128.172 339.268 127.781 340.508 127.781C341.706 127.781 342.656 128.18 343.359 128.977C344.068 129.773 344.422 130.852 344.422 132.211ZM337.898 132.211C337.898 133.305 338.117 134.138 338.555 134.711C338.992 135.284 339.635 135.57 340.484 135.57C341.333 135.57 341.977 135.286 342.414 134.719C342.857 134.146 343.078 133.31 343.078 132.211C343.078 131.122 342.857 130.297 342.414 129.734C341.977 129.167 341.328 128.883 340.469 128.883C339.62 128.883 338.979 129.161 338.547 129.719C338.115 130.276 337.898 131.107 337.898 132.211ZM354.844 127.797C355.969 127.797 356.841 128.182 357.461 128.953C358.086 129.719 358.398 130.805 358.398 132.211C358.398 133.617 358.083 134.711 357.453 135.492C356.828 136.268 355.958 136.656 354.844 136.656C354.286 136.656 353.776 136.555 353.312 136.352C352.854 136.143 352.469 135.826 352.156 135.398H352.062L351.789 136.5H350.859V124.344H352.156V127.297C352.156 127.958 352.135 128.552 352.094 129.078H352.156C352.76 128.224 353.656 127.797 354.844 127.797ZM354.656 128.883C353.771 128.883 353.133 129.138 352.742 129.648C352.352 130.154 352.156 131.008 352.156 132.211C352.156 133.414 352.357 134.276 352.758 134.797C353.159 135.312 353.802 135.57 354.688 135.57C355.484 135.57 356.078 135.281 356.469 134.703C356.859 134.12 357.055 133.284 357.055 132.195C357.055 131.081 356.859 130.25 356.469 129.703C356.078 129.156 355.474 128.883 354.656 128.883ZM361.891 127.938V133.492C361.891 134.19 362.049 134.711 362.367 135.055C362.685 135.398 363.182 135.57 363.859 135.57C364.755 135.57 365.409 135.326 365.82 134.836C366.237 134.346 366.445 133.547 366.445 132.438V127.938H367.742V136.5H366.672L366.484 135.352H366.414C366.148 135.773 365.779 136.096 365.305 136.32C364.836 136.544 364.299 136.656 363.695 136.656C362.654 136.656 361.872 136.409 361.352 135.914C360.836 135.419 360.578 134.628 360.578 133.539V127.938H361.891ZM373.266 135.586C373.495 135.586 373.716 135.57 373.93 135.539C374.143 135.503 374.312 135.466 374.438 135.43V136.422C374.297 136.49 374.089 136.544 373.812 136.586C373.542 136.633 373.297 136.656 373.078 136.656C371.422 136.656 370.594 135.784 370.594 134.039V128.945H369.367V128.32L370.594 127.781L371.141 125.953H371.891V127.938H374.375V128.945H371.891V133.984C371.891 134.5 372.013 134.896 372.258 135.172C372.503 135.448 372.839 135.586 373.266 135.586ZM378.922 135.586C379.151 135.586 379.372 135.57 379.586 135.539C379.799 135.503 379.969 135.466 380.094 135.43V136.422C379.953 136.49 379.745 136.544 379.469 136.586C379.198 136.633 378.953 136.656 378.734 136.656C377.078 136.656 376.25 135.784 376.25 134.039V128.945H375.023V128.32L376.25 127.781L376.797 125.953H377.547V127.938H380.031V128.945H377.547V133.984C377.547 134.5 377.669 134.896 377.914 135.172C378.159 135.448 378.495 135.586 378.922 135.586ZM389.203 132.211C389.203 133.607 388.852 134.698 388.148 135.484C387.445 136.266 386.474 136.656 385.234 136.656C384.469 136.656 383.789 136.477 383.195 136.117C382.602 135.758 382.143 135.242 381.82 134.57C381.497 133.898 381.336 133.112 381.336 132.211C381.336 130.815 381.685 129.729 382.383 128.953C383.081 128.172 384.049 127.781 385.289 127.781C386.487 127.781 387.438 128.18 388.141 128.977C388.849 129.773 389.203 130.852 389.203 132.211ZM382.68 132.211C382.68 133.305 382.898 134.138 383.336 134.711C383.773 135.284 384.417 135.57 385.266 135.57C386.115 135.57 386.758 135.286 387.195 134.719C387.638 134.146 387.859 133.31 387.859 132.211C387.859 131.122 387.638 130.297 387.195 129.734C386.758 129.167 386.109 128.883 385.25 128.883C384.401 128.883 383.76 129.161 383.328 129.719C382.896 130.276 382.68 131.107 382.68 132.211ZM397.344 136.5V130.961C397.344 130.263 397.185 129.742 396.867 129.398C396.549 129.055 396.052 128.883 395.375 128.883C394.479 128.883 393.823 129.125 393.406 129.609C392.99 130.094 392.781 130.893 392.781 132.008V136.5H391.484V127.938H392.539L392.75 129.109H392.812C393.078 128.688 393.451 128.362 393.93 128.133C394.409 127.898 394.943 127.781 395.531 127.781C396.562 127.781 397.339 128.031 397.859 128.531C398.38 129.026 398.641 129.82 398.641 130.914V136.5H397.344Z" fill="#252A2E"/><g opacity=".3"><path fill-rule="evenodd" clip-rule="evenodd" d="M603.999 118.192C597.205 118.192 591.691 123.706 591.691 130.5C591.691 137.294 597.205 142.808 603.999 142.808C610.793 142.808 616.307 137.294 616.307 130.5C616.307 123.706 610.793 118.192 603.999 118.192ZM603.999 124.346C600.602 124.346 597.845 127.103 597.845 130.5C597.845 133.897 600.602 136.654 603.999 136.654C607.396 136.654 610.153 133.897 610.153 130.5C610.153 127.103 607.396 124.346 603.999 124.346ZM594.153 130.5C594.153 135.94 598.559 140.346 603.999 140.346C609.439 140.346 613.845 135.94 613.845 130.5C613.845 125.06 609.439 120.654 603.999 120.654C598.559 120.654 594.153 125.06 594.153 130.5Z" fill="#0063A3"/><rect x="588.5" y="115" width="31" height="31" rx="15.5" stroke="#217CBB"/><path d="M626.898 131.75V136.5H625.57V125.078H628.703C630.104 125.078 631.138 125.346 631.805 125.883C632.477 126.419 632.812 127.227 632.812 128.305C632.812 129.815 632.047 130.836 630.516 131.367L633.617 136.5H632.047L629.281 131.75H626.898ZM626.898 130.609H628.719C629.656 130.609 630.344 130.424 630.781 130.055C631.219 129.68 631.438 129.12 631.438 128.375C631.438 127.62 631.214 127.076 630.766 126.742C630.323 126.409 629.609 126.242 628.625 126.242H626.898V130.609ZM640.531 136.5L640.273 135.281H640.211C639.784 135.818 639.357 136.182 638.93 136.375C638.508 136.562 637.979 136.656 637.344 136.656C636.495 136.656 635.828 136.438 635.344 136C634.865 135.562 634.625 134.94 634.625 134.133C634.625 132.404 636.008 131.497 638.773 131.414L640.227 131.367V130.836C640.227 130.164 640.081 129.669 639.789 129.352C639.503 129.029 639.042 128.867 638.406 128.867C637.693 128.867 636.885 129.086 635.984 129.523L635.586 128.531C636.008 128.302 636.469 128.122 636.969 127.992C637.474 127.862 637.979 127.797 638.484 127.797C639.505 127.797 640.26 128.023 640.75 128.477C641.245 128.93 641.492 129.656 641.492 130.656V136.5H640.531ZM637.602 135.586C638.409 135.586 639.042 135.365 639.5 134.922C639.964 134.479 640.195 133.859 640.195 133.062V132.289L638.898 132.344C637.867 132.38 637.122 132.542 636.664 132.828C636.211 133.109 635.984 133.549 635.984 134.148C635.984 134.617 636.125 134.974 636.406 135.219C636.693 135.464 637.091 135.586 637.602 135.586ZM650 135.352H649.93C649.331 136.221 648.435 136.656 647.242 136.656C646.122 136.656 645.25 136.273 644.625 135.508C644.005 134.742 643.695 133.654 643.695 132.242C643.695 130.831 644.008 129.734 644.633 128.953C645.258 128.172 646.128 127.781 647.242 127.781C648.404 127.781 649.294 128.203 649.914 129.047H650.016L649.961 128.43L649.93 127.828V124.344H651.227V136.5H650.172L650 135.352ZM647.406 135.57C648.292 135.57 648.932 135.331 649.328 134.852C649.729 134.367 649.93 133.589 649.93 132.516V132.242C649.93 131.029 649.727 130.164 649.32 129.648C648.919 129.128 648.276 128.867 647.391 128.867C646.63 128.867 646.047 129.164 645.641 129.758C645.24 130.346 645.039 131.18 645.039 132.258C645.039 133.352 645.24 134.177 645.641 134.734C646.042 135.292 646.63 135.57 647.406 135.57ZM655.281 136.5H653.984V127.938H655.281V136.5ZM653.875 125.617C653.875 125.32 653.948 125.104 654.094 124.969C654.24 124.828 654.422 124.758 654.641 124.758C654.849 124.758 655.029 124.828 655.18 124.969C655.331 125.109 655.406 125.326 655.406 125.617C655.406 125.909 655.331 126.128 655.18 126.273C655.029 126.414 654.849 126.484 654.641 126.484C654.422 126.484 654.24 126.414 654.094 126.273C653.948 126.128 653.875 125.909 653.875 125.617ZM665.422 132.211C665.422 133.607 665.07 134.698 664.367 135.484C663.664 136.266 662.693 136.656 661.453 136.656C660.688 136.656 660.008 136.477 659.414 136.117C658.82 135.758 658.362 135.242 658.039 134.57C657.716 133.898 657.555 133.112 657.555 132.211C657.555 130.815 657.904 129.729 658.602 128.953C659.299 128.172 660.268 127.781 661.508 127.781C662.706 127.781 663.656 128.18 664.359 128.977C665.068 129.773 665.422 130.852 665.422 132.211ZM658.898 132.211C658.898 133.305 659.117 134.138 659.555 134.711C659.992 135.284 660.635 135.57 661.484 135.57C662.333 135.57 662.977 135.286 663.414 134.719C663.857 134.146 664.078 133.31 664.078 132.211C664.078 131.122 663.857 130.297 663.414 129.734C662.977 129.167 662.328 128.883 661.469 128.883C660.62 128.883 659.979 129.161 659.547 129.719C659.115 130.276 658.898 131.107 658.898 132.211ZM675.844 127.797C676.969 127.797 677.841 128.182 678.461 128.953C679.086 129.719 679.398 130.805 679.398 132.211C679.398 133.617 679.083 134.711 678.453 135.492C677.828 136.268 676.958 136.656 675.844 136.656C675.286 136.656 674.776 136.555 674.312 136.352C673.854 136.143 673.469 135.826 673.156 135.398H673.062L672.789 136.5H671.859V124.344H673.156V127.297C673.156 127.958 673.135 128.552 673.094 129.078H673.156C673.76 128.224 674.656 127.797 675.844 127.797ZM675.656 128.883C674.771 128.883 674.133 129.138 673.742 129.648C673.352 130.154 673.156 131.008 673.156 132.211C673.156 133.414 673.357 134.276 673.758 134.797C674.159 135.312 674.802 135.57 675.688 135.57C676.484 135.57 677.078 135.281 677.469 134.703C677.859 134.12 678.055 133.284 678.055 132.195C678.055 131.081 677.859 130.25 677.469 129.703C677.078 129.156 676.474 128.883 675.656 128.883ZM682.891 127.938V133.492C682.891 134.19 683.049 134.711 683.367 135.055C683.685 135.398 684.182 135.57 684.859 135.57C685.755 135.57 686.409 135.326 686.82 134.836C687.237 134.346 687.445 133.547 687.445 132.438V127.938H688.742V136.5H687.672L687.484 135.352H687.414C687.148 135.773 686.779 136.096 686.305 136.32C685.836 136.544 685.299 136.656 684.695 136.656C683.654 136.656 682.872 136.409 682.352 135.914C681.836 135.419 681.578 134.628 681.578 133.539V127.938H682.891ZM694.266 135.586C694.495 135.586 694.716 135.57 694.93 135.539C695.143 135.503 695.312 135.466 695.438 135.43V136.422C695.297 136.49 695.089 136.544 694.812 136.586C694.542 136.633 694.297 136.656 694.078 136.656C692.422 136.656 691.594 135.784 691.594 134.039V128.945H690.367V128.32L691.594 127.781L692.141 125.953H692.891V127.938H695.375V128.945H692.891V133.984C692.891 134.5 693.013 134.896 693.258 135.172C693.503 135.448 693.839 135.586 694.266 135.586ZM699.922 135.586C700.151 135.586 700.372 135.57 700.586 135.539C700.799 135.503 700.969 135.466 701.094 135.43V136.422C700.953 136.49 700.745 136.544 700.469 136.586C700.198 136.633 699.953 136.656 699.734 136.656C698.078 136.656 697.25 135.784 697.25 134.039V128.945H696.023V128.32L697.25 127.781L697.797 125.953H698.547V127.938H701.031V128.945H698.547V133.984C698.547 134.5 698.669 134.896 698.914 135.172C699.159 135.448 699.495 135.586 699.922 135.586ZM710.203 132.211C710.203 133.607 709.852 134.698 709.148 135.484C708.445 136.266 707.474 136.656 706.234 136.656C705.469 136.656 704.789 136.477 704.195 136.117C703.602 135.758 703.143 135.242 702.82 134.57C702.497 133.898 702.336 133.112 702.336 132.211C702.336 130.815 702.685 129.729 703.383 128.953C704.081 128.172 705.049 127.781 706.289 127.781C707.487 127.781 708.438 128.18 709.141 128.977C709.849 129.773 710.203 130.852 710.203 132.211ZM703.68 132.211C703.68 133.305 703.898 134.138 704.336 134.711C704.773 135.284 705.417 135.57 706.266 135.57C707.115 135.57 707.758 135.286 708.195 134.719C708.638 134.146 708.859 133.31 708.859 132.211C708.859 131.122 708.638 130.297 708.195 129.734C707.758 129.167 707.109 128.883 706.25 128.883C705.401 128.883 704.76 129.161 704.328 129.719C703.896 130.276 703.68 131.107 703.68 132.211ZM718.344 136.5V130.961C718.344 130.263 718.185 129.742 717.867 129.398C717.549 129.055 717.052 128.883 716.375 128.883C715.479 128.883 714.823 129.125 714.406 129.609C713.99 130.094 713.781 130.893 713.781 132.008V136.5H712.484V127.938H713.539L713.75 129.109H713.812C714.078 128.688 714.451 128.362 714.93 128.133C715.409 127.898 715.943 127.781 716.531 127.781C717.562 127.781 718.339 128.031 718.859 128.531C719.38 129.026 719.641 129.82 719.641 130.914V136.5H718.344Z" fill="#252A2E"/></g></svg>