<svg fill="none" height="120" viewBox="0 0 962 120" width="962" xmlns="http://www.w3.org/2000/svg" xmlns:xlink="http://www.w3.org/1999/xlink"><clipPath id="a"><path d="m295 56h66v24h-66z"/></clipPath><path d="m962 0h-480v120h480z" fill="#f1f1f6"/><path d="m480 0h-480v120h480z" fill="#f1f1f6"/><path d="m21.1855 20.6348c0 1.4101-.4023 2.4902-1.207 3.2402-.8008.75-1.959 1.125-3.4746 1.125h-2.4258v-8.5664h2.6895c1.3984 0 2.4844.3691 3.2578 1.1074s1.1601 1.7695 1.1601 3.0938zm-1.8867.0468c0-1.8398-.8125-2.7597-2.4375-2.7597h-.9668v5.5781h.7793c1.75 0 2.625-.9395 2.625-2.8184zm6.2344-1.0839c-.3789 0-.6758.1211-.8906.3632-.2149.2383-.3379.5782-.3692 1.0196h2.5078c-.0078-.4414-.123-.7813-.3457-1.0196-.2226-.2421-.5234-.3632-.9023-.3632zm.252 5.5195c-1.0547 0-1.879-.291-2.4727-.8731-.5937-.582-.8906-1.4062-.8906-2.4726 0-1.0977.2734-1.9453.8203-2.543.5508-.6015 1.3105-.9023 2.2793-.9023.9258 0 1.6465.2636 2.1621.791.5156.5273.7734 1.2558.7734 2.1855v.8672h-4.2246c.0196.5078.1699.9043.4512 1.1895.2812.2851.6758.4277 1.1836.4277.3945 0 .7676-.041 1.1191-.123.3516-.0821.7188-.2129 1.1016-.3926v1.3828c-.3125.1562-.6465.2715-1.002.3457-.3554.0781-.789.1172-1.3007.1172zm7.746-5.3262h-1.5468v5.209h-1.7871v-5.209h-.9844v-.8613l.9844-.4805v-.4804c0-.7461.1836-1.2911.5507-1.6348.3672-.3438.9551-.5156 1.7637-.5156.6172 0 1.166.0918 1.6465.2754l-.457 1.3124c-.3594-.1132-.6914-.1699-.9961-.1699-.2539 0-.4375.0762-.5508.2285-.1133.1485-.1699.3399-.1699.5743v.4101h1.5468zm5.1915 5.209-.3457-.8906h-.0469c-.3008.3789-.6113.6426-.9317.791-.3164.1445-.7304.2168-1.2422.2168-.6289 0-1.125-.1797-1.4882-.5391-.3594-.3593-.5391-.8711-.5391-1.5351 0-.6953.2422-1.2071.7266-1.5352.4883-.332 1.2226-.5156 2.2031-.5508l1.1367-.0351v-.2871c0-.6641-.3398-.9961-1.0195-.9961-.5235 0-1.1387.1582-1.8457.4746l-.5918-1.2071c.7539-.3945 1.5898-.5917 2.5078-.5917.8789 0 1.5527.1914 2.0215.5742.4687.3828.7031.9648.7031 1.7461v4.3652zm-.5274-3.0352-.6914.0235c-.5195.0156-.9062.1094-1.1601.2812-.254.1719-.3809.4336-.3809.7852 0 .5039.2891.7558.8672.7558.414 0 .7441-.1191.9902-.3574.25-.2383.375-.5547.375-.9492zm8.2617 3.0352-.2402-.8379h-.0938c-.1914.3047-.4628.541-.8144.709-.3516.1641-.752.2461-1.2012.2461-.7695 0-1.3496-.2051-1.7402-.6152-.3906-.4141-.586-1.0079-.586-1.7813v-4.2715h1.7872v3.8262c0 .4726.0839.8281.2519 1.0664.168.2344.4356.3516.8027.3516.5 0 .8614-.1661 1.084-.4981.2227-.3359.334-.8906.334-1.6641v-3.082h1.7871v6.5508zm5.0332 0h-1.7871v-9.1172h1.7871zm4.6407-1.3066c.3125 0 .6875-.0684 1.125-.2051v1.3301c-.4454.1992-.9922.2988-1.6407.2988-.7148 0-1.2363-.1797-1.5644-.5391-.3242-.3633-.4863-.9062-.4863-1.6289v-3.1582h-.8555v-.7558l.9844-.5977.5156-1.3828h1.1426v1.3945h1.8339v1.3418h-1.8339v3.1582c0 .2539.0703.4414.2109.5625.1445.1211.334.1817.5684.1817z" fill="#7d808d"/><path d="m500.078 25v-8.5664h1.817v7.0664h3.474v1.5zm10.805 0-.346-.8906h-.047c-.301.3789-.611.6426-.931.791-.317.1445-.731.2168-1.243.2168-.628 0-1.125-.1797-1.488-.5391-.359-.3593-.539-.8711-.539-1.5351 0-.6953.242-1.2071.727-1.5352.488-.332 1.222-.5156 2.203-.5508l1.136-.0351v-.2871c0-.6641-.339-.9961-1.019-.9961-.524 0-1.139.1582-1.846.4746l-.592-1.2071c.754-.3945 1.59-.5917 2.508-.5917.879 0 1.553.1914 2.022.5742.468.3828.703.9648.703 1.7461v4.3652zm-.528-3.0352-.691.0235c-.519.0156-.906.1094-1.16.2812-.254.1719-.381.4336-.381.7852 0 .5039.289.7558.867.7558.414 0 .744-.1191.99-.3574.25-.2383.375-.5547.375-.9492zm7.278-3.6386c.242 0 .443.0176.603.0527l-.134 1.6758c-.145-.0391-.321-.0586-.528-.0586-.57 0-1.015.1465-1.336.4394-.316.293-.474.7032-.474 1.2305v3.334h-1.787v-6.5508h1.353l.264 1.1016h.088c.203-.3672.476-.6621.82-.8848.348-.2265.725-.3398 1.131-.3398zm7.494.123v.9082l-1.025.2637c.187.293.281.6211.281.9844 0 .7031-.246 1.2519-.738 1.6465-.489.3906-1.168.5859-2.04.5859l-.322-.0176-.263-.0293c-.184.1406-.276.2969-.276.4688 0 .2578.328.3867.985.3867h1.113c.719 0 1.265.1543 1.64.4629.379.3086.569.7617.569 1.3594 0 .7656-.321 1.3593-.961 1.7812-.637.4219-1.553.6328-2.748.6328-.914 0-1.613-.1601-2.098-.4805-.48-.3164-.721-.7617-.721-1.3359 0-.3945.123-.7246.37-.9902.246-.2657.607-.4551 1.084-.5684-.184-.0781-.344-.2051-.481-.3808-.137-.1797-.205-.3692-.205-.5684 0-.25.072-.457.217-.6211.144-.168.353-.332.627-.4922-.344-.1484-.617-.3867-.821-.7148-.199-.3282-.298-.7149-.298-1.1602 0-.7148.232-1.2676.697-1.6582s1.129-.5859 1.992-.5859c.184 0 .4.0176.65.0527.254.0313.416.0547.487.0703zm-5.057 7.4766c0 .2461.118.4394.352.5801.238.1406.57.2109.996.2109.641 0 1.143-.0879 1.506-.2637s.545-.416.545-.7207c0-.2461-.108-.416-.323-.5097-.214-.0938-.546-.1407-.996-.1407h-.925c-.329 0-.604.0762-.827.2285-.218.1563-.328.3614-.328.6153zm.651-5.332c0 .3554.08.6367.24.8437.164.207.412.3105.744.3105.336 0 .582-.1035.738-.3105.157-.207.235-.4883.235-.8437 0-.7891-.324-1.1836-.973-1.1836-.656 0-.984.3945-.984 1.1836zm8.203-.9961c-.379 0-.676.1211-.891.3632-.215.2383-.338.5782-.369 1.0196h2.508c-.008-.4414-.123-.7813-.346-1.0196-.222-.2421-.523-.3632-.902-.3632zm.252 5.5195c-1.055 0-1.879-.291-2.473-.8731-.594-.582-.891-1.4062-.891-2.4726 0-1.0977.274-1.9453.821-2.543.551-.6015 1.31-.9023 2.279-.9023.926 0 1.647.2636 2.162.791.516.5273.774 1.2558.774 2.1855v.8672h-4.225c.02.5078.17.9043.451 1.1895.281.2851.676.4277 1.184.4277.394 0 .767-.041 1.119-.123.352-.0821.719-.2129 1.102-.3926v1.3828c-.313.1562-.647.2715-1.002.3457-.356.0781-.789.1172-1.301.1172z" fill="#7d808d"/><path d="m61.6836 79.5h-4.9902v-1.0498l1.792-1.8115c.5306-.5436.8772-.9196 1.04-1.128.1628-.2115.2799-.4069.3516-.5859.0716-.179.1074-.3646.1074-.5566 0-.2865-.0798-.4997-.2393-.6397-.1562-.14-.3662-.2099-.6299-.2099-.2767 0-.5452.0634-.8056.1904-.2604.1269-.5323.3076-.8155.542l-.8203-.9717c.3516-.2995.6429-.5111.8741-.6348.2311-.1237.4833-.2181.7568-.2832.2734-.0683.5794-.1025.918-.1025.4459 0 .8398.0814 1.1816.2441.3418.1628.6071.3907.7959.6836.1888.293.2832.6283.2832 1.0059 0 .3288-.0586.638-.1758.9277-.1139.2865-.293.5811-.5371.8838-.2409.3027-.6673.7341-1.2793 1.294l-.918.8642v.0684h3.1104zm5.874-1.4795h-.8594v1.4795h-1.4746v-1.4795h-3.0468v-1.0498l3.1298-4.6094h1.3916v4.4873h.8594zm-2.334-1.1719v-1.2109c0-.2018.0082-.4948.0244-.8789.0163-.3841.0293-.6071.0391-.669h-.0391c-.1204.267-.2653.5274-.4345.7813l-1.3086 1.9775z" fill="#e8178a"/><g stroke="#e8178a" stroke-width=".75"><path d="m84.45 87h-22.45"/><path d="m84.45 64h-22.45"/><path d="m73.2246 87v-22.7998"/></g><path d="m122.684 39.999h-4.991v-1.0498l1.792-1.8115c.531-.5436.878-.9196 1.04-1.1279.163-.2116.28-.4069.352-.586.072-.179.107-.3646.107-.5566 0-.2865-.079-.4997-.239-.6397-.156-.1399-.366-.2099-.63-.2099-.276 0-.545.0635-.805.1904-.261.127-.533.3076-.816.542l-.82-.9717c.351-.2995.643-.511.874-.6347s.483-.2181.757-.2832c.273-.0684.579-.1026.918-.1026.446 0 .839.0814 1.181.2442.342.1627.607.3906.796.6835.189.293.283.6283.283 1.0059 0 .3288-.058.638-.175.9277-.114.2865-.293.5811-.537.8838-.241.3028-.668.7341-1.28 1.294l-.918.8642v.0684h3.111zm5.874-1.4795h-.86v1.4795h-1.474v-1.4795h-3.047v-1.0498l3.13-4.6093h1.391v4.4873h.86zm-2.334-1.1718v-1.211c0-.2018.008-.4948.024-.8789s.029-.6071.039-.6689h-.039c-.12.2669-.265.5273-.435.7812l-1.308 1.9776z" fill="#e8178a"/><path d="m111.5 68.533v-22.45" stroke="#e8178a" stroke-width=".75"/><path d="m134.5 68.533v-22.45" stroke="#e8178a" stroke-width=".75"/><path d="m111.5 57.308h22.8" stroke="#e8178a" stroke-width=".75"/><path d="m561.179 65.394c0 .4459-.135.8252-.406 1.1377-.27.3125-.649.5273-1.137.6445v.0293c.576.0716 1.012.2474 1.308.5273.297.2767.445.6511.445 1.1231 0 .6868-.249 1.2223-.747 1.6064-.498.3809-1.21.5713-2.134.5713-.775 0-1.462-.1286-2.061-.3857v-1.2842c.277.14.581.2539.913.3418s.661.1318.987.1318c.498 0 .866-.0846 1.103-.2539.238-.1692.357-.441.357-.8154 0-.3353-.137-.5729-.411-.7129-.273-.14-.709-.2099-1.308-.2099h-.542v-1.1573h.552c.553 0 .957-.0716 1.211-.2148.257-.1465.385-.3955.385-.7471 0-.5404-.338-.8105-1.015-.8105-.235 0-.474.039-.718.1172-.241.0781-.51.2132-.806.4052l-.698-1.04c.651-.4688 1.427-.7031 2.329-.7031.739 0 1.322.1497 1.748.4492.43.2995.645.7161.645 1.25zm5.991 5.542h-4.99v-1.0498l1.792-1.8116c.53-.5436.877-.9196 1.04-1.1279.162-.2116.28-.4069.351-.5859.072-.1791.108-.3646.108-.5567 0-.2864-.08-.4996-.24-.6396-.156-.14-.366-.21-.629-.21-.277 0-.546.0635-.806.1905-.261.1269-.532.3076-.816.542l-.82-.9717c.352-.2995.643-.5111.874-.6348s.484-.2181.757-.2832c.273-.0684.579-.1025.918-.1025.446 0 .84.0813 1.182.2441.341.1628.607.3906.796.6836.188.293.283.6283.283 1.0059 0 .3287-.059.638-.176.9277-.114.2864-.293.581-.537.8838-.241.3027-.667.734-1.279 1.2939l-.918.8643v.0683h3.11z" fill="#e8178a"/><path d="m582.999 82.001h-22.45" stroke="#e8178a" stroke-width=".75"/><path d="m582.999 50.001h-22.45" stroke="#e8178a" stroke-width=".75"/><path d="m571.773 82.001v-31.7998" stroke="#e8178a" stroke-width=".75"/><path d="m635.905 31.458c0 .446-.135.8252-.405 1.1377s-.649.5273-1.138.6445v.0293c.576.0716 1.013.2474 1.309.5274.296.2767.444.651.444 1.123 0 .6869-.249 1.2224-.747 1.6065-.498.3808-1.209.5713-2.134.5713-.774 0-1.461-.1286-2.06-.3858v-1.2842c.277.14.581.2539.913.3418s.661.1319.986.1319c.498 0 .866-.0847 1.104-.2539.237-.1693.356-.4411.356-.8155 0-.3353-.137-.5729-.41-.7129-.273-.1399-.71-.2099-1.309-.2099h-.542v-1.1572h.552c.554 0 .957-.0717 1.211-.2149.257-.1465.386-.3955.386-.7471 0-.5403-.339-.8105-1.016-.8105-.234 0-.473.0391-.717.1172-.241.0781-.51.2132-.806.4053l-.698-1.0401c.651-.4687 1.427-.7031 2.329-.7031.739 0 1.321.1497 1.748.4492.429.2995.644.7162.644 1.25zm5.991 5.542h-4.99v-1.0498l1.792-1.8115c.531-.5436.878-.9196 1.04-1.128.163-.2115.28-.4069.352-.5859.071-.179.107-.3646.107-.5566 0-.2865-.079-.4997-.239-.6397-.156-.14-.366-.2099-.63-.2099-.277 0-.545.0634-.806.1904-.26.1269-.532.3076-.815.542l-.82-.9717c.351-.2995.643-.5111.874-.6348s.483-.2181.757-.2832c.273-.0683.579-.1025.918-.1025.446 0 .839.0814 1.181.2441.342.1628.607.3907.796.6836.189.293.283.6283.283 1.0059 0 .3288-.058.638-.175.9277-.114.2865-.293.5811-.538.8838-.24.3027-.667.7341-1.279 1.294l-.918.8642v.0684h3.11z" fill="#e8178a"/><path d="m620 52.29v-22.45" stroke="#e8178a" stroke-width=".75"/><path d="m653 52.29v-22.45" stroke="#e8178a" stroke-width=".75"/><path d="m620 41.065h32.8" stroke="#e8178a" stroke-width=".75"/><path clip-rule="evenodd" d="m582.666 66c0-7.36 5.973-13.3333 13.333-13.3333s13.334 5.9733 13.334 13.3333-5.974 13.3333-13.334 13.3333-13.333-5.9733-13.333-13.3333zm2.667 0c0 5.8933 4.773 10.6667 10.666 10.6667 5.894 0 10.667-4.7734 10.667-10.6667s-4.773-10.6667-10.667-10.6667c-5.893 0-10.666 4.7734-10.666 10.6667z" fill="#6a6e79" fill-rule="evenodd"/><path clip-rule="evenodd" d="m636.999 52.6667c-7.36 0-13.333 5.9733-13.333 13.3333s5.973 13.3333 13.333 13.3333 13.334-5.9733 13.334-13.3333-5.974-13.3333-13.334-13.3333zm0 6.6666c-3.68 0-6.666 2.9867-6.666 6.6667s2.986 6.6667 6.666 6.6667 6.667-2.9867 6.667-6.6667-2.987-6.6667-6.667-6.6667zm-10.666 6.6667c0 5.8933 4.773 10.6667 10.666 10.6667 5.894 0 10.667-4.7734 10.667-10.6667s-4.773-10.6667-10.667-10.6667c-5.893 0-10.666 4.7734-10.666 10.6667z" fill="#0063a3" fill-rule="evenodd"/><path d="m322.552 49.5205h-.86v1.4795h-1.474v-1.4795h-3.047v-1.0498l3.13-4.6094h1.391v4.4873h.86zm-2.334-1.1719v-1.2109c0-.2018.008-.4948.024-.8789s.029-.6071.039-.669h-.039c-.12.267-.265.5274-.434.7813l-1.309 1.9775z" fill="#e8178a"/><path d="m317.854 79.534v-22.45" stroke="#e8178a" stroke-width=".75"/><path d="m321.854 79.534v-22.45" stroke="#e8178a" stroke-width=".75"/><path d="m317.854 68.309h4" stroke="#e8178a" stroke-width=".75"/><g clip-path="url(#a)"><path clip-rule="evenodd" d="m297 68c0-5.52 4.48-10 10-10s10 4.48 10 10-4.48 10-10 10-10-4.48-10-10zm2 0c0 4.42 3.58 8 8 8s8-3.58 8-8-3.58-8-8-8-8 3.58-8 8z" fill="#6a6e79" fill-rule="evenodd"/><path d="m325.536 68.8438v4.1562h-1.162v-9.9941h2.741c1.226 0 2.131.2347 2.714.7041.588.4694.882 1.1757.882 2.1191 0 1.3216-.67 2.2148-2.01 2.6797l2.714 4.4912h-1.374l-2.42-4.1562zm0-.9981h1.593c.82 0 1.422-.1618 1.805-.4853.382-.3282.574-.8181.574-1.4698 0-.6608-.196-1.137-.588-1.4287-.387-.2917-1.012-.4375-1.873-.4375h-1.511zm11.929 5.1543-.226-1.0664h-.054c-.374.4694-.748.7884-1.122.957-.369.1641-.831.2461-1.387.2461-.743 0-1.326-.1914-1.75-.5742-.419-.3828-.629-.9274-.629-1.6338 0-1.513 1.21-2.306 3.63-2.3789l1.271-.041v-.4649c0-.5878-.127-1.0208-.383-1.2988-.25-.2825-.654-.4238-1.21-.4238-.624 0-1.33.1914-2.119.5742l-.348-.8682c.369-.2005.772-.3577 1.21-.4716.442-.114.884-.1709 1.326-.1709.893 0 1.554.1982 1.982.5947.433.3965.65 1.0322.65 1.9072v5.1133zm-2.564-.7998c.707 0 1.26-.1937 1.661-.5811.406-.3873.609-.9296.609-1.6269v-.6768l-1.135.0479c-.902.0319-1.554.1732-1.955.4238-.396.2461-.595.6312-.595 1.1553 0 .4101.123.7223.369.9365.251.2142.6.3213 1.046.3213zm10.849-.2051h-.062c-.524.7611-1.307 1.1416-2.351 1.1416-.98 0-1.743-.3349-2.29-1.0049-.542-.6699-.814-1.6224-.814-2.8574s.274-2.1943.821-2.8779 1.308-1.0254 2.283-1.0254c1.016 0 1.795.3691 2.338 1.1074h.089l-.048-.54-.028-.5264v-3.0488h1.135v10.6367h-.923zm-2.27.1914c.775 0 1.336-.2096 1.682-.6289.351-.4238.526-1.1051.526-2.0439v-.2393c0-1.0618-.177-1.8183-.533-2.2695-.351-.4557-.913-.6836-1.688-.6836-.666 0-1.176.2598-1.531.7793-.351.515-.527 1.2441-.527 2.1875 0 .957.176 1.6793.527 2.167.35.4876.865.7314 1.544.7314zm6.891.8135h-1.135v-7.4922h1.135zm-1.23-9.5225c0-.2597.063-.4489.191-.5673.128-.1231.287-.1846.479-.1846.182 0 .339.0615.471.1846.132.123.198.3121.198.5673s-.066.4467-.198.5743c-.132.123-.289.1845-.471.1845-.192 0-.351-.0615-.479-.1845-.128-.1276-.191-.3191-.191-.5743zm10.103 5.7696c0 1.2213-.307 2.1761-.923 2.8642-.615.6836-1.465 1.0254-2.55 1.0254-.669 0-1.264-.1572-1.784-.4717-.519-.3144-.92-.7656-1.203-1.3535-.282-.5879-.424-1.276-.424-2.0644 0-1.2214.306-2.1716.916-2.8506.611-.6836 1.459-1.0254 2.543-1.0254 1.049 0 1.88.3486 2.495 1.0459.62.6973.93 1.6406.93 2.8301zm-5.708 0c0 .957.192 1.6862.574 2.1875.383.5013.946.7519 1.689.7519s1.305-.2483 1.688-.7451c.388-.5013.581-1.2327.581-2.1943 0-.9525-.193-1.6748-.581-2.167-.383-.4968-.95-.7451-1.702-.7451-.743 0-1.303.2438-1.681.7314-.379.4876-.568 1.2145-.568 2.1807z" fill="#252a2e"/></g><path d="m204 95.415c-1.061 0-2.078-.4217-2.828-1.1718-.75-.7502-1.172-1.7673-1.172-2.8282v-48c0-1.0608.422-2.0779 1.172-2.8281.75-.7501 1.767-1.1719 2.828-1.1719h75.865c1.061 0 2.078.4218 2.828 1.1719.751.7502 1.172 1.7673 1.172 2.8281v18.2676l10.139 6.2324-10.139 6.2325v17.2675c0 1.0609-.421 2.078-1.172 2.8282-.75.7501-1.767 1.1718-2.828 1.1718z" fill="#e8178a"/><path d="m216.854 51.7051c0 1.4179-.352 2.5078-1.055 3.2695s-1.711 1.1426-3.024 1.1426c-1.312 0-2.32-.3809-3.023-1.1426s-1.055-1.8555-1.055-3.2812c0-1.4258.352-2.5137 1.055-3.2637.707-.7539 1.719-1.1309 3.035-1.1309 1.317 0 2.322.3789 3.018 1.1367.699.7579 1.049 1.8477 1.049 3.2696zm-6.252 0c0 .957.181 1.6777.544 2.1621.364.4844.907.7266 1.629.7266 1.45 0 2.174-.9629 2.174-2.8887 0-1.9297-.72-2.8946-2.162-2.8946-.723 0-1.267.2442-1.635.7325-.367.4843-.55 1.205-.55 2.1621zm11.484 4.4121c-.77 0-1.373-.2793-1.811-.8379h-.093c.062.5469.093.8633.093.9492v2.6543h-1.787v-9.4336h1.453l.252.8496h.082c.418-.6484 1.037-.9726 1.858-.9726.773 0 1.379.2988 1.816.8965.438.5976.656 1.4277.656 2.4902 0 .6992-.103 1.3066-.31 1.8223-.203.5156-.494.9082-.873 1.1777s-.824.4043-1.336.4043zm-.527-5.3613c-.442 0-.764.1367-.967.4101-.203.2695-.309.7168-.317 1.3418v.1934c0 .7031.104 1.207.311 1.5117.211.3047.543.457.996.457.801 0 1.201-.6601 1.201-1.9804 0-.6446-.099-1.127-.299-1.4473-.195-.3242-.504-.4863-.925-.4863zm7.236-.1582c-.379 0-.676.1211-.891.3632-.215.2383-.338.5782-.369 1.0196h2.508c-.008-.4414-.123-.7813-.346-1.0196-.222-.2421-.523-.3632-.902-.3632zm.252 5.5195c-1.055 0-1.879-.291-2.473-.8731-.594-.582-.89-1.4062-.89-2.4726 0-1.0977.273-1.9453.82-2.543.551-.6015 1.31-.9023 2.279-.9023.926 0 1.647.2636 2.162.791.516.5273.774 1.2558.774 2.1855v.8672h-4.225c.02.5078.17.9043.451 1.1895.282.2851.676.4277 1.184.4277.394 0 .767-.041 1.119-.123.352-.0821.719-.2129 1.102-.3926v1.3828c-.313.1562-.647.2715-1.002.3457-.356.0781-.789.1172-1.301.1172zm10.172-.1172h-1.787v-3.8262c0-.4726-.084-.8261-.252-1.0605-.168-.2383-.436-.3574-.803-.3574-.5 0-.861.1679-1.084.5039-.223.332-.334.8847-.334 1.6582v3.082h-1.787v-6.5508h1.365l.24.8379h.1c.199-.3164.473-.5547.82-.7148.352-.1641.75-.2461 1.196-.2461.761 0 1.339.207 1.734.6211.394.4101.592 1.0039.592 1.7812zm10.154-2.3789c0 .7734-.279 1.3828-.838 1.8281-.555.4453-1.328.668-2.32.668-.914 0-1.723-.1719-2.426-.5156v-1.6875c.578.2578 1.066.4394 1.465.5449.402.1055.769.1582 1.101.1582.399 0 .704-.0762.915-.2285.214-.1524.322-.3789.322-.6797 0-.168-.047-.3164-.141-.4453-.094-.1328-.232-.2598-.416-.3809-.18-.1211-.549-.3144-1.107-.5801-.524-.2461-.916-.4824-1.178-.7089-.262-.2266-.471-.4903-.627-.7911-.156-.3007-.234-.6523-.234-1.0547 0-.7578.256-1.3535.767-1.7871.516-.4336 1.227-.6504 2.133-.6504.445 0 .869.0528 1.272.1583.406.1054.83.2539 1.271.4453l-.586 1.4121c-.457-.1875-.836-.3184-1.137-.3926-.297-.0742-.589-.1113-.879-.1113-.343 0-.607.08-.791.2402-.183.1602-.275.3691-.275.627 0 .1601.037.3007.111.4218.075.1172.192.2325.352.3457.164.1094.549.3086 1.154.5977.801.3828 1.35.7676 1.647 1.1543.297.3828.445.8535.445 1.4121zm5.572 2.3789-.345-.8906h-.047c-.301.3789-.612.6426-.932.791-.316.1445-.73.2168-1.242.2168-.629 0-1.125-.1797-1.488-.5391-.36-.3593-.539-.8711-.539-1.5351 0-.6953.242-1.2071.726-1.5352.488-.332 1.223-.5156 2.203-.5508l1.137-.0351v-.2871c0-.6641-.34-.9961-1.02-.9961-.523 0-1.138.1582-1.845.4746l-.592-1.2071c.754-.3945 1.59-.5917 2.508-.5917.879 0 1.552.1914 2.021.5742s.703.9648.703 1.7461v4.3652zm-.527-3.0352-.691.0235c-.52.0156-.907.1094-1.161.2812-.254.1719-.38.4336-.38.7852 0 .5039.289.7558.867.7558.414 0 .744-.1191.99-.3574.25-.2383.375-.5547.375-.9492zm9.668 3.0352h-1.787v-3.8262c0-.4726-.084-.8261-.252-1.0605-.168-.2383-.436-.3574-.803-.3574-.5 0-.861.1679-1.084.5039-.222.332-.334.8847-.334 1.6582v3.082h-1.787v-6.5508h1.365l.241.8379h.099c.199-.3164.473-.5547.82-.7148.352-.1641.75-.2461 1.196-.2461.761 0 1.34.207 1.734.6211.395.4101.592 1.0039.592 1.7812zm6.41-1.9453c0 .6719-.234 1.1836-.703 1.5351-.465.3516-1.162.5274-2.092.5274-.476 0-.883-.0332-1.219-.0996-.336-.0625-.65-.1563-.943-.2813v-1.4765c.332.1562.705.2871 1.119.3925.418.1055.785.1582 1.102.1582.648 0 .972-.1875.972-.5625 0-.1406-.043-.2539-.128-.3398-.086-.0898-.235-.1894-.446-.2988-.211-.1133-.492-.2442-.844-.3926-.503-.2109-.875-.4063-1.113-.5859-.234-.1797-.406-.3848-.515-.6153-.106-.2344-.159-.5215-.159-.8613 0-.582.225-1.0313.674-1.3477.453-.3203 1.094-.4804 1.922-.4804.789 0 1.557.1718 2.303.5156l-.539 1.2891c-.328-.1407-.635-.2559-.92-.3457-.285-.0899-.576-.1348-.873-.1348-.528 0-.791.1426-.791.4277 0 .1602.084.2989.252.416.172.1172.545.2911 1.119.5215.512.2071.887.4004 1.125.5801s.414.3867.527.6211.17.5137.17.8379zm-59.965 13.3633h.973c.652 0 1.125-.1211 1.418-.3633s.439-.6016.439-1.0781c0-.4844-.158-.8321-.474-1.043-.317-.2109-.793-.3164-1.43-.3164h-.926zm0 1.1601v3.4219h-1.4v-8.5664h2.42c1.105 0 1.924.207 2.455.6211s.797 1.0391.797 1.875c0 1.0664-.555 1.8262-1.664 2.2793l2.42 3.791h-1.594l-2.051-3.4219zm8.959 3.5391c-1.008 0-1.797-.293-2.367-.8789-.566-.5899-.85-1.4004-.85-2.4317 0-1.0586.264-1.8906.791-2.4961.528-.6054 1.252-.9082 2.174-.9082.856 0 1.532.2598 2.028.7793.496.5196.744 1.2344.744 2.1446v.7441h-4.319c.02.6289.19 1.1133.51 1.4531.32.336.772.5039 1.354.5039.383 0 .738-.0351 1.066-.1054.332-.0742.688-.1953 1.067-.3633v1.1191c-.336.1602-.676.2735-1.02.3399s-.736.0996-1.178.0996zm-.252-5.6719c-.437 0-.789.1387-1.054.416-.262.2774-.418.6817-.469 1.2129h2.941c-.008-.5351-.136-.9394-.386-1.2129-.25-.2773-.594-.416-1.032-.416zm9.809-.9258v.7559l-1.108.2051c.102.1367.186.3047.252.5039.067.1992.1.4101.1.6328 0 .668-.23 1.1933-.691 1.5762-.461.3828-1.096.5742-1.905.5742-.207 0-.394-.0156-.562-.0469-.297.1836-.445.3984-.445.6445 0 .1485.068.2598.205.334.14.0742.396.1113.767.1113h1.131c.715 0 1.258.1524 1.629.4571s.557.7441.557 1.3183c0 .7344-.303 1.3008-.909 1.6993-.605.3984-1.48.5976-2.625.5976-.882 0-1.556-.1562-2.021-.4687s-.697-.7579-.697-1.336c0-.3984.125-.7343.375-1.0078.254-.2695.607-.457 1.06-.5625-.183-.0781-.336-.2031-.457-.375-.117-.1758-.176-.3594-.176-.5508 0-.2422.069-.4472.205-.6152.137-.168.34-.334.61-.498-.336-.1446-.61-.379-.821-.7032-.207-.3281-.31-.7109-.31-1.1484 0-.7031.221-1.2481.662-1.6348.445-.3867 1.078-.5801 1.898-.5801.184 0 .375.0137.575.0411.203.0234.355.0488.457.0761zm-5.092 7.4883c0 .2969.133.5254.399.6856.269.1601.646.2402 1.13.2402.75 0 1.309-.1074 1.676-.3223.367-.2148.551-.5.551-.8554 0-.2813-.102-.4825-.305-.6036-.199-.1171-.572-.1757-1.119-.1757h-1.043c-.394 0-.709.0918-.943.2754-.231.1875-.346.4394-.346.7558zm.592-5.3906c0 .4062.103.7187.31.9375.211.2187.512.3281.903.3281.797 0 1.195-.4258 1.195-1.2773 0-.4219-.1-.7461-.299-.9727-.195-.2305-.494-.3457-.896-.3457-.399 0-.701.1133-.908.3399-.204.2265-.305.5566-.305.9902zm10.277 4.3828-.193-.8496h-.07c-.192.3008-.465.5371-.821.709-.351.1718-.754.2578-1.207.2578-.785 0-1.371-.1953-1.758-.586-.386-.3906-.58-.9824-.58-1.7753v-4.2364h1.389v3.9961c0 .4961.102.8692.305 1.1192.203.2461.521.3691.955.3691.578 0 1.002-.1719 1.271-.5156.274-.3477.41-.9278.41-1.7403v-3.2285h1.383v6.4805zm4.424 0h-1.377v-9.1172h1.377zm6.029 0-.275-.9023h-.047c-.312.3945-.627.664-.943.8085-.317.1407-.723.211-1.219.211-.637 0-1.135-.1719-1.494-.5156-.356-.3438-.533-.8301-.533-1.459 0-.668.248-1.1719.744-1.5117.496-.3399 1.252-.5254 2.267-.5567l1.119-.0351v-.3457c0-.4141-.097-.7227-.292-.9258-.192-.2071-.491-.3106-.897-.3106-.332 0-.65.0489-.955.1465-.305.0977-.598.2129-.879.3457l-.445-.9844c.351-.1836.736-.3222 1.154-.416.418-.0976.813-.1465 1.184-.1465.824 0 1.445.1797 1.863.5391.422.3594.633.9238.633 1.6934v4.3652zm-2.05-.9375c.5 0 .9-.1387 1.201-.416.304-.2813.457-.6738.457-1.1777v-.5626l-.832.0352c-.649.0234-1.121.1328-1.418.3281-.293.1914-.44.4864-.44.8848 0 .2891.086.5137.258.6738.172.1563.43.2344.774.2344zm8.244-5.6602c.277 0 .506.0196.685.0586l-.135 1.2832c-.195-.0468-.398-.0703-.609-.0703-.551 0-.998.1797-1.342.5391-.34.3594-.509.8262-.509 1.4004v3.3867h-1.377v-6.4805h1.078l.181 1.1426h.071c.215-.3867.494-.6933.838-.9199.347-.2266.72-.3399 1.119-.3399zm-37.401 20.2715c0 .7617-.275 1.3594-.826 1.793s-1.31.6504-2.279.6504-1.762-.1504-2.379-.4512v-1.3242c.391.1836.805.3281 1.242.4336.442.1055.852.1582 1.231.1582.554 0 .962-.1055 1.224-.3164.266-.211.399-.4942.399-.8496 0-.3203-.121-.5918-.364-.8145-.242-.2226-.742-.4863-1.5-.791-.781-.3164-1.332-.6777-1.652-1.084-.32-.4062-.48-.8945-.48-1.4648 0-.7149.253-1.2774.761-1.6875.508-.4102 1.19-.6153 2.045-.6153.82 0 1.637.1797 2.449.5391l-.445 1.1426c-.762-.3203-1.441-.4805-2.039-.4805-.453 0-.797.0996-1.031.2988-.235.1954-.352.4551-.352.7793 0 .2227.047.4141.141.5743.094.1562.248.3047.463.4453s.601.3261 1.16.5566c.629.2617 1.09.5059 1.383.7324.293.2266.508.4825.644.7676.137.2852.205.6211.205 1.0078zm2.889 2.3262h-1.377v-6.4805h1.377zm-1.459-8.1973c0-.2461.066-.4355.199-.5683.137-.1328.33-.1992.58-.1992.242 0 .43.0664.563.1992.137.1328.205.3222.205.5683 0 .2344-.068.42-.205.5567-.133.1328-.321.1992-.563.1992-.25 0-.443-.0664-.58-.1992-.133-.1367-.199-.3223-.199-.5567zm7.764 8.1973h-4.916v-.8496l3.275-4.5762h-3.076v-1.0547h4.623v.961l-3.205 4.4648h3.299zm4.242.1172c-1.008 0-1.797-.293-2.367-.8789-.567-.5899-.85-1.4004-.85-2.4317 0-1.0586.264-1.8906.791-2.4961.527-.6054 1.252-.9082 2.174-.9082.855 0 1.531.2598 2.027.7793.496.5196.744 1.2344.744 2.1446v.7441h-4.318c.02.6289.189 1.1133.51 1.4531.32.336.771.5039 1.353.5039.383 0 .739-.0351 1.067-.1054.332-.0742.687-.1953 1.066-.3633v1.1191c-.336.1602-.676.2735-1.019.3399-.344.0664-.737.0996-1.178.0996zm-.252-5.6719c-.438 0-.789.1387-1.055.416-.261.2774-.418.6817-.469 1.2129h2.942c-.008-.5351-.137-.9394-.387-1.2129-.25-.2773-.594-.416-1.031-.416zm4.131 4.8223c0-.2852.074-.5039.222-.6563.149-.1523.364-.2285.645-.2285.285 0 .502.0801.65.2402.149.1563.223.3711.223.6446 0 .2773-.076.498-.229.6621-.148.1601-.363.2402-.644.2402s-.496-.0801-.645-.2402c-.148-.1602-.222-.3809-.222-.6621zm0-5.0039c0-.5899.289-.8848.867-.8848.293 0 .512.0781.656.2344.145.1562.217.373.217.6504 0 .2773-.076.498-.229.6621-.148.1601-.363.2402-.644.2402s-.496-.0801-.645-.2402c-.148-.1602-.222-.3809-.222-.6621zm10.213 5.7363h-1.377v-5.5312c0-.6602.015-1.1836.047-1.5704-.09.0938-.202.1973-.334.3106-.129.1133-.567.4726-1.313 1.0781l-.691-.873 2.519-1.9805h1.149zm8.923-1.8691h-1.154v1.8691h-1.342v-1.8691h-3.914v-1.0606l3.914-5.6601h1.342v5.5781h1.154zm-2.496-1.1426v-2.1504c0-.7656.02-1.3926.059-1.8809h-.047c-.109.2578-.281.5703-.516.9375l-2.126 3.0938z" fill="#fff"/><path d="m847.698 43.9294h-.859v1.4795h-1.475v-1.4795h-3.047v-1.0498l3.13-4.6093h1.392v4.4873h.859zm-2.334-1.1718v-1.211c0-.2018.008-.4948.025-.8789.016-.3841.029-.6071.039-.6689h-.039c-.121.2669-.266.5273-.435.7812l-1.308 1.9776z" fill="#e8178a"/><path d="m843 73.9429v-22.45" stroke="#e8178a" stroke-width=".75"/><path d="m847 73.9429v-22.45" stroke="#e8178a" stroke-width=".75"/><path d="m843 62.7179h3.8" stroke="#e8178a" stroke-width=".75"/><path d="m851.898 65.426v4.75h-1.328v-11.4219h3.133c1.401 0 2.435.2682 3.102.8047.672.5364 1.007 1.3437 1.007 2.4219 0 1.5104-.765 2.5312-2.296 3.0625l3.101 5.1328h-1.57l-2.766-4.75zm0-1.1407h1.821c.937 0 1.625-.1849 2.062-.5546.438-.375.657-.9349.657-1.6797 0-.7552-.224-1.2995-.672-1.6328-.443-.3334-1.157-.5-2.141-.5h-1.727zm13.633 5.8907-.258-1.2188h-.062c-.427.5365-.854.9011-1.281 1.0938-.422.1875-.951.2812-1.586.2812-.849 0-1.516-.2187-2-.6562-.479-.4375-.719-1.0599-.719-1.8672 0-1.7292 1.383-2.6354 4.148-2.7188l1.454-.0468v-.5313c0-.6719-.146-1.1667-.438-1.4844-.286-.3229-.747-.4843-1.383-.4843-.713 0-1.521.2187-2.422.6562l-.398-.9922c.422-.2292.883-.4088 1.383-.539.505-.1303 1.01-.1954 1.515-.1954 1.021 0 1.776.2266 2.266.6797.495.4532.742 1.1797.742 2.1797v5.8438zm-2.929-.9141c.807 0 1.44-.2214 1.898-.6641.464-.4427.695-1.0625.695-1.8593v-.7735l-1.297.0547c-1.031.0365-1.776.1979-2.234.4844-.453.2812-.68.7213-.68 1.3203 0 .4688.141.8255.422 1.0703.287.2448.685.3672 1.196.3672zm12.398-.2344h-.07c-.599.8698-1.495 1.3047-2.688 1.3047-1.12 0-1.992-.3828-2.617-1.1484-.62-.7656-.93-1.8542-.93-3.2656 0-1.4115.313-2.5079.938-3.2891.625-.7813 1.495-1.1719 2.609-1.1719 1.162 0 2.052.4219 2.672 1.2656h.102l-.055-.6171-.031-.6016v-3.4844h1.297v12.1563h-1.055zm-2.594.2188c.886 0 1.526-.2396 1.922-.7188.401-.4843.602-1.263.602-2.3359v-.2734c0-1.2136-.203-2.0782-.61-2.5938-.401-.5208-1.044-.7812-1.929-.7812-.761 0-1.344.2968-1.75.8906-.401.5885-.602 1.4219-.602 2.5 0 1.0937.201 1.9192.602 2.4765s.989.836 1.765.836zm7.875.9297h-1.297v-8.5625h1.297zm-1.406-10.8828c0-.2969.073-.5131.219-.6485.146-.1406.328-.2109.547-.2109.208 0 .388.0703.539.2109s.226.3568.226.6485c0 .2916-.075.5104-.226.6562-.151.1406-.331.2109-.539.2109-.219 0-.401-.0703-.547-.2109-.146-.1458-.219-.3646-.219-.6562zm11.547 6.5937c0 1.3958-.352 2.487-1.055 3.2734-.703.7813-1.674 1.1719-2.914 1.1719-.765 0-1.445-.1797-2.039-.539-.594-.3594-1.052-.875-1.375-1.5469s-.484-1.4584-.484-2.3594c0-1.3958.349-2.4818 1.047-3.2578.697-.7813 1.666-1.1719 2.906-1.1719 1.198 0 2.148.3985 2.851 1.1953.709.7969 1.063 1.875 1.063 3.2344zm-6.524 0c0 1.0938.219 1.9271.657 2.5.437.5729 1.08.8594 1.929.8594s1.493-.2839 1.93-.8516c.443-.5729.664-1.4088.664-2.5078 0-1.0885-.221-1.9141-.664-2.4766-.437-.5677-1.086-.8515-1.945-.8515-.849 0-1.49.2786-1.922.8359s-.649 1.388-.649 2.4922z" fill="#252a2e"/><path clip-rule="evenodd" d="m815.666 63c0-7.36 5.973-13.3333 13.333-13.3333s13.334 5.9733 13.334 13.3333-5.974 13.3333-13.334 13.3333-13.333-5.9733-13.333-13.3333zm2.667 0c0 5.8933 4.773 10.6667 10.666 10.6667 5.894 0 10.667-4.7734 10.667-10.6667s-4.773-10.6667-10.667-10.6667c-5.893 0-10.666 4.7734-10.666 10.6667z" fill="#6a6e79" fill-rule="evenodd"/><path d="m724 92.591c-1.061 0-2.078-.4217-2.828-1.1719-.75-.7501-1.172-1.7672-1.172-2.8281v-48c0-1.0609.422-2.078 1.172-2.8281.75-.7502 1.767-1.1719 2.828-1.1719h75.865c1.061 0 2.078.4217 2.828 1.1719.751.7501 1.172 1.7672 1.172 2.8281v18.2676l10.139 6.2324-10.139 6.2324v17.2676c0 1.0609-.421 2.078-1.172 2.8281-.75.7502-1.767 1.1719-2.828 1.1719z" fill="#e8178a"/><path d="m739.854 47.7051c0 1.4179-.352 2.5078-1.055 3.2695s-1.711 1.1426-3.024 1.1426c-1.312 0-2.32-.3809-3.023-1.1426s-1.055-1.8555-1.055-3.2812c0-1.4258.352-2.5137 1.055-3.2637.707-.7539 1.719-1.1309 3.035-1.1309 1.317 0 2.322.3789 3.018 1.1367.699.7579 1.049 1.8477 1.049 3.2696zm-6.252 0c0 .957.181 1.6777.544 2.1621.364.4844.907.7266 1.629.7266 1.45 0 2.174-.9629 2.174-2.8887 0-1.9297-.72-2.8946-2.162-2.8946-.723 0-1.267.2442-1.635.7325-.367.4843-.55 1.205-.55 2.1621zm11.484 4.4121c-.77 0-1.373-.2793-1.811-.8379h-.093c.062.5469.093.8633.093.9492v2.6543h-1.787v-9.4336h1.453l.252.8496h.082c.418-.6484 1.037-.9726 1.858-.9726.773 0 1.379.2988 1.816.8965.438.5976.656 1.4277.656 2.4902 0 .6992-.103 1.3066-.31 1.8223-.203.5156-.494.9082-.873 1.1777s-.824.4043-1.336.4043zm-.527-5.3613c-.442 0-.764.1367-.967.4101-.203.2695-.309.7168-.317 1.3418v.1934c0 .7031.104 1.207.311 1.5117.211.3047.543.457.996.457.801 0 1.201-.6601 1.201-1.9804 0-.6446-.099-1.127-.299-1.4473-.195-.3242-.504-.4863-.925-.4863zm7.236-.1582c-.379 0-.676.1211-.891.3632-.215.2383-.338.5782-.369 1.0196h2.508c-.008-.4414-.123-.7813-.346-1.0196-.222-.2421-.523-.3632-.902-.3632zm.252 5.5195c-1.055 0-1.879-.291-2.473-.8731-.594-.582-.89-1.4062-.89-2.4726 0-1.0977.273-1.9453.82-2.543.551-.6015 1.31-.9023 2.279-.9023.926 0 1.647.2636 2.162.791.516.5273.774 1.2558.774 2.1855v.8672h-4.225c.02.5078.17.9043.451 1.1895.282.2851.676.4277 1.184.4277.394 0 .767-.041 1.119-.123.352-.0821.719-.2129 1.102-.3926v1.3828c-.313.1562-.647.2715-1.002.3457-.356.0781-.789.1172-1.301.1172zm10.172-.1172h-1.787v-3.8262c0-.4726-.084-.8261-.252-1.0605-.168-.2383-.436-.3574-.803-.3574-.5 0-.861.1679-1.084.5039-.223.332-.334.8847-.334 1.6582v3.082h-1.787v-6.5508h1.365l.24.8379h.1c.199-.3164.473-.5547.82-.7148.352-.1641.75-.2461 1.196-.2461.761 0 1.339.207 1.734.6211.394.4101.592 1.0039.592 1.7812zm10.154-2.3789c0 .7734-.279 1.3828-.838 1.8281-.555.4453-1.328.668-2.32.668-.914 0-1.723-.1719-2.426-.5156v-1.6875c.578.2578 1.066.4394 1.465.5449.402.1055.769.1582 1.101.1582.399 0 .704-.0762.915-.2285.214-.1524.322-.3789.322-.6797 0-.168-.047-.3164-.141-.4453-.094-.1328-.232-.2598-.416-.3809-.18-.1211-.549-.3144-1.107-.5801-.524-.2461-.916-.4824-1.178-.7089-.262-.2266-.471-.4903-.627-.7911-.156-.3007-.234-.6523-.234-1.0547 0-.7578.256-1.3535.767-1.7871.516-.4336 1.227-.6504 2.133-.6504.445 0 .869.0528 1.272.1583.406.1054.83.2539 1.271.4453l-.586 1.4121c-.457-.1875-.836-.3184-1.137-.3926-.297-.0742-.589-.1113-.879-.1113-.343 0-.607.08-.791.2402-.183.1602-.275.3691-.275.627 0 .1601.037.3007.111.4218.075.1172.192.2325.352.3457.164.1094.549.3086 1.154.5977.801.3828 1.35.7676 1.647 1.1543.297.3828.445.8535.445 1.4121zm5.572 2.3789-.345-.8906h-.047c-.301.3789-.612.6426-.932.791-.316.1445-.73.2168-1.242.2168-.629 0-1.125-.1797-1.488-.5391-.36-.3593-.539-.8711-.539-1.5351 0-.6953.242-1.2071.726-1.5352.488-.332 1.223-.5156 2.203-.5508l1.137-.0351v-.2871c0-.6641-.34-.9961-1.02-.9961-.523 0-1.138.1582-1.845.4746l-.592-1.2071c.754-.3945 1.59-.5917 2.508-.5917.879 0 1.552.1914 2.021.5742s.703.9648.703 1.7461v4.3652zm-.527-3.0352-.691.0235c-.52.0156-.907.1094-1.161.2812-.254.1719-.38.4336-.38.7852 0 .5039.289.7558.867.7558.414 0 .744-.1191.99-.3574.25-.2383.375-.5547.375-.9492zm9.668 3.0352h-1.787v-3.8262c0-.4726-.084-.8261-.252-1.0605-.168-.2383-.436-.3574-.803-.3574-.5 0-.861.1679-1.084.5039-.222.332-.334.8847-.334 1.6582v3.082h-1.787v-6.5508h1.365l.241.8379h.099c.199-.3164.473-.5547.82-.7148.352-.1641.75-.2461 1.196-.2461.761 0 1.34.207 1.734.6211.395.4101.592 1.0039.592 1.7812zm6.41-1.9453c0 .6719-.234 1.1836-.703 1.5351-.465.3516-1.162.5274-2.092.5274-.476 0-.883-.0332-1.219-.0996-.336-.0625-.65-.1563-.943-.2813v-1.4765c.332.1562.705.2871 1.119.3925.418.1055.785.1582 1.102.1582.648 0 .972-.1875.972-.5625 0-.1406-.043-.2539-.128-.3398-.086-.0898-.235-.1894-.446-.2988-.211-.1133-.492-.2442-.844-.3926-.503-.2109-.875-.4063-1.113-.5859-.234-.1797-.406-.3848-.515-.6153-.106-.2344-.159-.5215-.159-.8613 0-.582.225-1.0313.674-1.3477.453-.3203 1.094-.4804 1.922-.4804.789 0 1.557.1718 2.303.5156l-.539 1.2891c-.328-.1407-.635-.2559-.92-.3457-.285-.0899-.576-.1348-.873-.1348-.528 0-.791.1426-.791.4277 0 .1602.084.2989.252.416.172.1172.545.2911 1.119.5215.512.2071.887.4004 1.125.5801s.414.3867.527.6211.17.5137.17.8379zm-59.965 13.3633h.973c.652 0 1.125-.1211 1.418-.3633s.439-.6016.439-1.0781c0-.4844-.158-.8321-.474-1.043-.317-.2109-.793-.3164-1.43-.3164h-.926zm0 1.1601v3.4219h-1.4v-8.5664h2.42c1.105 0 1.924.207 2.455.6211s.797 1.0391.797 1.875c0 1.0664-.555 1.8262-1.664 2.2793l2.42 3.791h-1.594l-2.051-3.4219zm8.959 3.5391c-1.008 0-1.797-.293-2.367-.8789-.566-.5899-.85-1.4004-.85-2.4317 0-1.0586.264-1.8906.791-2.4961.528-.6054 1.252-.9082 2.174-.9082.856 0 1.532.2598 2.028.7793.496.5196.744 1.2344.744 2.1446v.7441h-4.319c.02.6289.19 1.1133.51 1.4531.32.336.772.5039 1.354.5039.383 0 .738-.0351 1.066-.1054.332-.0742.688-.1953 1.067-.3633v1.1191c-.336.1602-.676.2735-1.02.3399s-.736.0996-1.178.0996zm-.252-5.6719c-.437 0-.789.1387-1.054.416-.262.2774-.418.6817-.469 1.2129h2.941c-.008-.5351-.136-.9394-.386-1.2129-.25-.2773-.594-.416-1.032-.416zm9.809-.9258v.7559l-1.108.2051c.102.1367.186.3047.252.5039.067.1992.1.4101.1.6328 0 .668-.23 1.1933-.691 1.5762-.461.3828-1.096.5742-1.905.5742-.207 0-.394-.0156-.562-.0469-.297.1836-.445.3984-.445.6445 0 .1485.068.2598.205.334.14.0742.396.1113.767.1113h1.131c.715 0 1.258.1524 1.629.4571s.557.7441.557 1.3183c0 .7344-.303 1.3008-.909 1.6993-.605.3984-1.48.5976-2.625.5976-.882 0-1.556-.1562-2.021-.4687s-.697-.7579-.697-1.336c0-.3984.125-.7343.375-1.0078.254-.2695.607-.457 1.06-.5625-.183-.0781-.336-.2031-.457-.375-.117-.1758-.176-.3594-.176-.5508 0-.2422.069-.4472.205-.6152.137-.168.34-.334.61-.498-.336-.1446-.61-.379-.821-.7032-.207-.3281-.31-.7109-.31-1.1484 0-.7031.221-1.2481.662-1.6348.445-.3867 1.078-.5801 1.898-.5801.184 0 .375.0137.575.0411.203.0234.355.0488.457.0761zm-5.092 7.4883c0 .2969.133.5254.399.6856.269.1601.646.2402 1.13.2402.75 0 1.309-.1074 1.676-.3223.367-.2148.551-.5.551-.8554 0-.2813-.102-.4825-.305-.6036-.199-.1171-.572-.1757-1.119-.1757h-1.043c-.394 0-.709.0918-.943.2754-.231.1875-.346.4394-.346.7558zm.592-5.3906c0 .4062.103.7187.31.9375.211.2187.512.3281.903.3281.797 0 1.195-.4258 1.195-1.2773 0-.4219-.1-.7461-.299-.9727-.195-.2305-.494-.3457-.896-.3457-.399 0-.701.1133-.908.3399-.204.2265-.305.5566-.305.9902zm10.277 4.3828-.193-.8496h-.07c-.192.3008-.465.5371-.821.709-.351.1718-.754.2578-1.207.2578-.785 0-1.371-.1953-1.758-.586-.386-.3906-.58-.9824-.58-1.7753v-4.2364h1.389v3.9961c0 .4961.102.8692.305 1.1192.203.2461.521.3691.955.3691.578 0 1.002-.1719 1.271-.5156.274-.3477.41-.9278.41-1.7403v-3.2285h1.383v6.4805zm4.424 0h-1.377v-9.1172h1.377zm6.029 0-.275-.9023h-.047c-.312.3945-.627.664-.943.8085-.317.1407-.723.211-1.219.211-.637 0-1.135-.1719-1.494-.5156-.356-.3438-.533-.8301-.533-1.459 0-.668.248-1.1719.744-1.5117.496-.3399 1.252-.5254 2.267-.5567l1.119-.0351v-.3457c0-.4141-.097-.7227-.292-.9258-.192-.2071-.491-.3106-.897-.3106-.332 0-.65.0489-.955.1465-.305.0977-.598.2129-.879.3457l-.445-.9844c.351-.1836.736-.3222 1.154-.416.418-.0976.813-.1465 1.184-.1465.824 0 1.445.1797 1.863.5391.422.3594.633.9238.633 1.6934v4.3652zm-2.05-.9375c.5 0 .9-.1387 1.201-.416.304-.2813.457-.6738.457-1.1777v-.5626l-.832.0352c-.649.0234-1.121.1328-1.418.3281-.293.1914-.44.4864-.44.8848 0 .2891.086.5137.258.6738.172.1563.43.2344.774.2344zm8.244-5.6602c.277 0 .506.0196.685.0586l-.135 1.2832c-.195-.0468-.398-.0703-.609-.0703-.551 0-.998.1797-1.342.5391-.34.3594-.509.8262-.509 1.4004v3.3867h-1.377v-6.4805h1.078l.181 1.1426h.071c.215-.3867.494-.6933.838-.9199.347-.2266.72-.3399 1.119-.3399zm-37.401 20.2715c0 .7617-.275 1.3594-.826 1.793s-1.31.6504-2.279.6504-1.762-.1504-2.379-.4512v-1.3242c.391.1836.805.3281 1.242.4336.442.1055.852.1582 1.231.1582.554 0 .962-.1055 1.224-.3164.266-.211.399-.4942.399-.8496 0-.3203-.121-.5918-.364-.8145-.242-.2226-.742-.4863-1.5-.791-.781-.3164-1.332-.6777-1.652-1.084-.32-.4062-.48-.8945-.48-1.4648 0-.7149.253-1.2774.761-1.6875.508-.4102 1.19-.6153 2.045-.6153.82 0 1.637.1797 2.449.5391l-.445 1.1426c-.762-.3203-1.441-.4805-2.039-.4805-.453 0-.797.0996-1.031.2988-.235.1954-.352.4551-.352.7793 0 .2227.047.4141.141.5743.094.1562.248.3047.463.4453s.601.3261 1.16.5566c.629.2617 1.09.5059 1.383.7324.293.2266.508.4825.644.7676.137.2852.205.6211.205 1.0078zm2.889 2.3262h-1.377v-6.4805h1.377zm-1.459-8.1973c0-.2461.066-.4355.199-.5683.137-.1328.33-.1992.58-.1992.242 0 .43.0664.563.1992.137.1328.205.3222.205.5683 0 .2344-.068.42-.205.5567-.133.1328-.321.1992-.563.1992-.25 0-.443-.0664-.58-.1992-.133-.1367-.199-.3223-.199-.5567zm7.764 8.1973h-4.916v-.8496l3.275-4.5762h-3.076v-1.0547h4.623v.961l-3.205 4.4648h3.299zm4.242.1172c-1.008 0-1.797-.293-2.367-.8789-.567-.5899-.85-1.4004-.85-2.4317 0-1.0586.264-1.8906.791-2.4961.527-.6054 1.252-.9082 2.174-.9082.855 0 1.531.2598 2.027.7793.496.5196.744 1.2344.744 2.1446v.7441h-4.318c.02.6289.189 1.1133.51 1.4531.32.336.771.5039 1.353.5039.383 0 .739-.0351 1.067-.1054.332-.0742.687-.1953 1.066-.3633v1.1191c-.336.1602-.676.2735-1.019.3399-.344.0664-.737.0996-1.178.0996zm-.252-5.6719c-.438 0-.789.1387-1.055.416-.261.2774-.418.6817-.469 1.2129h2.942c-.008-.5351-.137-.9394-.387-1.2129-.25-.2773-.594-.416-1.031-.416zm4.131 4.8223c0-.2852.074-.5039.222-.6563.149-.1523.364-.2285.645-.2285.285 0 .502.0801.65.2402.149.1563.223.3711.223.6446 0 .2773-.076.498-.229.6621-.148.1601-.363.2402-.644.2402s-.496-.0801-.645-.2402c-.148-.1602-.222-.3809-.222-.6621zm0-5.0039c0-.5899.289-.8848.867-.8848.293 0 .512.0781.656.2344.145.1562.217.373.217.6504 0 .2773-.076.498-.229.6621-.148.1601-.363.2402-.644.2402s-.496-.0801-.645-.2402c-.148-.1602-.222-.3809-.222-.6621zm10.213 5.7363h-1.377v-5.5312c0-.6602.015-1.1836.047-1.5704-.09.0938-.202.1973-.334.3106-.129.1133-.567.4726-1.313 1.0781l-.691-.873 2.519-1.9805h1.149zm2.836-3.6504c0-3.3516 1.365-5.0273 4.095-5.0273.43 0 .793.0332 1.09.0996v1.1484c-.297-.0859-.64-.1289-1.031-.1289-.918 0-1.608.2461-2.068.7383-.461.4922-.711 1.2812-.75 2.3672h.07c.183-.3164.441-.5606.773-.7324.332-.1758.723-.2637 1.172-.2637.777 0 1.383.2383 1.817.7148.433.4766.65 1.1231.65 1.9395 0 .8984-.252 1.6094-.756 2.1328-.5.5195-1.184.7793-2.051.7793-.613 0-1.146-.1465-1.599-.4395-.453-.2968-.803-.7265-1.049-1.289-.242-.5664-.363-1.2461-.363-2.0391zm2.988 2.6309c.473 0 .836-.1524 1.09-.4571.258-.3046.386-.7402.386-1.3066 0-.4922-.121-.8789-.363-1.1602-.238-.2812-.597-.4218-1.078-.4218-.297 0-.57.0644-.82.1933-.25.125-.448.2989-.592.5215-.145.2188-.217.4434-.217.6738 0 .5508.149 1.0157.445 1.3946.301.375.684.5625 1.149.5625z" fill="#fff"/><path clip-rule="evenodd" d="m86 75c0-5.52 4.48-10 10-10s10 4.48 10 10-4.48 10-10 10-10-4.48-10-10zm2 0c0 4.42 3.58 8 8 8s8-3.58 8-8-3.58-8-8-8-8 3.58-8 8z" fill="#6a6e79" fill-rule="evenodd"/><path clip-rule="evenodd" d="m123 65c-5.52 0-10 4.48-10 10s4.48 10 10 10 10-4.48 10-10-4.48-10-10-10zm0 5c-2.76 0-5 2.24-5 5s2.24 5 5 5 5-2.24 5-5-2.24-5-5-5zm-8 5c0 4.42 3.58 8 8 8s8-3.58 8-8-3.58-8-8-8-8 3.58-8 8z" fill="#0063a3" fill-rule="evenodd"/></svg>