<svg width="960" height="337" viewBox="0 0 960 337" fill="none" xmlns="http://www.w3.org/2000/svg">
<g clip-path="url(#clip0_326_61692)">
<rect width="318.667" height="297" rx="8" fill="#F1F1F6"/>
<g opacity="0.7">
<rect width="4" height="144" transform="translate(157.334 40)" fill="#464B52"/>
<rect x="157.334" y="40" width="4" height="144" rx="2" fill="#464B52"/>
</g>
<path d="M126.891 331L122.75 319.076H122.672C122.783 320.847 122.838 322.507 122.838 324.057V331H120.719V316.723H124.01L127.975 328.08H128.033L132.115 316.723H135.416V331H133.17V323.939C133.17 323.23 133.186 322.305 133.219 321.166C133.258 320.027 133.29 319.337 133.316 319.096H133.238L128.951 331H126.891ZM141.477 331H139.182V320.199H141.477V331ZM139.045 317.338C139.045 316.928 139.156 316.612 139.377 316.391C139.605 316.169 139.927 316.059 140.344 316.059C140.747 316.059 141.06 316.169 141.281 316.391C141.509 316.612 141.623 316.928 141.623 317.338C141.623 317.729 141.509 318.038 141.281 318.266C141.06 318.487 140.747 318.598 140.344 318.598C139.927 318.598 139.605 318.487 139.377 318.266C139.156 318.038 139.045 317.729 139.045 317.338ZM154.52 331H152.215V324.359C152.215 323.526 152.046 322.904 151.707 322.494C151.375 322.084 150.844 321.879 150.115 321.879C149.145 321.879 148.436 322.165 147.986 322.738C147.537 323.311 147.312 324.271 147.312 325.619V331H145.018V320.199H146.814L147.137 321.615H147.254C147.579 321.101 148.042 320.704 148.641 320.424C149.24 320.144 149.904 320.004 150.633 320.004C153.224 320.004 154.52 321.322 154.52 323.959V331ZM160.258 331H157.963V320.199H160.258V331ZM157.826 317.338C157.826 316.928 157.937 316.612 158.158 316.391C158.386 316.169 158.708 316.059 159.125 316.059C159.529 316.059 159.841 316.169 160.062 316.391C160.29 316.612 160.404 316.928 160.404 317.338C160.404 317.729 160.29 318.038 160.062 318.266C159.841 318.487 159.529 318.598 159.125 318.598C158.708 318.598 158.386 318.487 158.158 318.266C157.937 318.038 157.826 317.729 157.826 317.338ZM172.9 331H170.596V324.34C170.596 323.513 170.439 322.898 170.127 322.494C169.814 322.084 169.326 321.879 168.662 321.879C167.777 321.879 167.126 322.169 166.709 322.748C166.299 323.321 166.094 324.278 166.094 325.619V331H163.799V320.199H165.596L165.918 321.615H166.035C166.335 321.101 166.768 320.704 167.334 320.424C167.907 320.144 168.535 320.004 169.219 320.004C170.879 320.004 171.979 320.57 172.52 321.703H172.676C172.995 321.169 173.444 320.753 174.023 320.453C174.603 320.154 175.267 320.004 176.016 320.004C177.305 320.004 178.242 320.329 178.828 320.98C179.421 321.632 179.717 322.624 179.717 323.959V331H177.422V324.34C177.422 323.513 177.262 322.898 176.943 322.494C176.631 322.084 176.143 321.879 175.479 321.879C174.587 321.879 173.932 322.159 173.516 322.719C173.105 323.272 172.9 324.125 172.9 325.277V331ZM189.928 331L189.469 329.496H189.391C188.87 330.154 188.346 330.603 187.818 330.844C187.291 331.078 186.614 331.195 185.787 331.195C184.726 331.195 183.896 330.909 183.297 330.336C182.704 329.763 182.408 328.952 182.408 327.904C182.408 326.791 182.822 325.951 183.648 325.385C184.475 324.818 185.735 324.509 187.428 324.457L189.293 324.398V323.822C189.293 323.132 189.13 322.618 188.805 322.279C188.486 321.934 187.988 321.762 187.311 321.762C186.757 321.762 186.227 321.843 185.719 322.006C185.211 322.169 184.723 322.361 184.254 322.582L183.512 320.941C184.098 320.635 184.739 320.404 185.436 320.248C186.132 320.085 186.79 320.004 187.408 320.004C188.782 320.004 189.817 320.303 190.514 320.902C191.217 321.501 191.568 322.442 191.568 323.725V331H189.928ZM186.51 329.438C187.343 329.438 188.01 329.206 188.512 328.744C189.02 328.275 189.273 327.621 189.273 326.781V325.844L187.887 325.902C186.806 325.941 186.018 326.124 185.523 326.449C185.035 326.768 184.791 327.26 184.791 327.924C184.791 328.406 184.934 328.78 185.221 329.047C185.507 329.307 185.937 329.438 186.51 329.438ZM197.316 331H195.021V315.805H197.316V331Z" fill="black"/>
<rect x="320.666" width="318.667" height="297" rx="8" fill="#F1F1F6"/>
<rect width="16" height="217" transform="translate(472 40)" fill="#E0E1E9"/>
<rect width="8" height="144" transform="translate(476 44)" fill="#464B52"/>
<rect x="476" y="44" width="8" height="144" rx="4" fill="#464B52"/>
<path d="M456.996 323.725C456.996 326.081 456.342 327.885 455.033 329.135C453.725 330.378 451.84 331 449.379 331H445.385V316.723H449.799C452.071 316.723 453.839 317.335 455.102 318.559C456.365 319.783 456.996 321.505 456.996 323.725ZM454.535 323.803C454.535 320.385 452.937 318.676 449.74 318.676H447.719V329.037H449.379C452.816 329.037 454.535 327.292 454.535 323.803ZM464.795 331.195C463.115 331.195 461.8 330.707 460.85 329.73C459.906 328.747 459.434 327.396 459.434 325.678C459.434 323.913 459.873 322.527 460.752 321.518C461.631 320.508 462.839 320.004 464.375 320.004C465.801 320.004 466.927 320.437 467.754 321.303C468.581 322.169 468.994 323.36 468.994 324.877V326.117H461.797C461.829 327.165 462.113 327.973 462.646 328.539C463.18 329.099 463.932 329.379 464.902 329.379C465.54 329.379 466.133 329.32 466.68 329.203C467.233 329.079 467.826 328.878 468.457 328.598V330.463C467.897 330.73 467.331 330.919 466.758 331.029C466.185 331.14 465.531 331.195 464.795 331.195ZM464.375 321.742C463.646 321.742 463.06 321.973 462.617 322.436C462.181 322.898 461.921 323.572 461.836 324.457H466.738C466.725 323.565 466.51 322.891 466.094 322.436C465.677 321.973 465.104 321.742 464.375 321.742ZM477.271 321.938H474.635V331H472.33V321.938H470.553V320.863L472.33 320.16V319.457C472.33 318.181 472.63 317.237 473.229 316.625C473.827 316.007 474.742 315.697 475.973 315.697C476.78 315.697 477.574 315.831 478.355 316.098L477.75 317.836C477.184 317.654 476.643 317.562 476.129 317.562C475.608 317.562 475.227 317.725 474.986 318.051C474.752 318.37 474.635 318.852 474.635 319.496V320.199H477.271V321.938ZM486.125 331L485.666 329.496H485.588C485.067 330.154 484.543 330.603 484.016 330.844C483.488 331.078 482.811 331.195 481.984 331.195C480.923 331.195 480.093 330.909 479.494 330.336C478.902 329.763 478.605 328.952 478.605 327.904C478.605 326.791 479.019 325.951 479.846 325.385C480.673 324.818 481.932 324.509 483.625 324.457L485.49 324.398V323.822C485.49 323.132 485.327 322.618 485.002 322.279C484.683 321.934 484.185 321.762 483.508 321.762C482.954 321.762 482.424 321.843 481.916 322.006C481.408 322.169 480.92 322.361 480.451 322.582L479.709 320.941C480.295 320.635 480.936 320.404 481.633 320.248C482.329 320.085 482.987 320.004 483.605 320.004C484.979 320.004 486.014 320.303 486.711 320.902C487.414 321.501 487.766 322.442 487.766 323.725V331H486.125ZM482.707 329.438C483.54 329.438 484.208 329.206 484.709 328.744C485.217 328.275 485.471 327.621 485.471 326.781V325.844L484.084 325.902C483.003 325.941 482.215 326.124 481.721 326.449C481.232 326.768 480.988 327.26 480.988 327.924C480.988 328.406 481.132 328.78 481.418 329.047C481.704 329.307 482.134 329.438 482.707 329.438ZM498.836 331L498.514 329.584H498.396C498.077 330.085 497.622 330.479 497.029 330.766C496.443 331.052 495.773 331.195 495.018 331.195C493.709 331.195 492.732 330.87 492.088 330.219C491.443 329.568 491.121 328.581 491.121 327.26V320.199H493.436V326.859C493.436 327.686 493.605 328.308 493.943 328.725C494.282 329.135 494.812 329.34 495.535 329.34C496.499 329.34 497.205 329.053 497.654 328.48C498.11 327.901 498.338 326.934 498.338 325.58V320.199H500.643V331H498.836ZM506.459 331H504.164V315.805H506.459V331ZM514.023 329.34C514.583 329.34 515.143 329.252 515.703 329.076V330.805C515.449 330.915 515.12 331.007 514.717 331.078C514.32 331.156 513.906 331.195 513.477 331.195C511.302 331.195 510.215 330.049 510.215 327.758V321.938H508.74V320.922L510.322 320.082L511.104 317.797H512.52V320.199H515.596V321.938H512.52V327.719C512.52 328.272 512.656 328.682 512.93 328.949C513.21 329.21 513.574 329.34 514.023 329.34Z" fill="black"/>
<rect x="641.334" width="318.667" height="297" rx="8" fill="#F1F1F6"/>
<rect x="784.668" y="32" width="32" height="233" rx="4" fill="#E0E1E9"/>
<path d="M784.668 32H816.668V60C816.668 62.2091 814.877 64 812.668 64H788.668C786.459 64 784.668 62.2091 784.668 60V32Z" fill="#353A40"/>
<path d="M807.587 50L801.961 43.8933C801.307 43.1867 800.027 43.1867 799.374 43.8933L793.747 50C793.321 50.4667 793.214 51.1067 793.454 51.6667C793.721 52.2667 794.347 52.6667 795.041 52.6667H806.281C806.974 52.6667 807.601 52.28 807.867 51.6667C808.121 51.1067 808.001 50.4533 807.574 50H807.587Z" fill="white"/>
<rect x="796.668" y="68" width="8" height="111" rx="4" fill="#464B52"/>
<path d="M784.668 237C784.668 234.791 786.459 233 788.668 233H812.668C814.877 233 816.668 234.791 816.668 237V265H784.668V237Z" fill="#353A40"/>
<path d="M807.867 245.333C807.727 245.032 807.502 244.778 807.221 244.6C806.94 244.423 806.613 244.33 806.281 244.333H795.041C794.347 244.333 793.721 244.72 793.454 245.333C793.201 245.907 793.321 246.547 793.747 247L799.374 253.107C799.694 253.453 800.174 253.667 800.667 253.667C801.161 253.667 801.641 253.467 801.961 253.107L807.587 247C808.014 246.533 808.121 245.893 807.881 245.333H807.867Z" fill="white"/>
<path d="M763.553 316.723H767.791C769.757 316.723 771.176 317.009 772.049 317.582C772.928 318.155 773.367 319.06 773.367 320.297C773.367 321.13 773.152 321.824 772.723 322.377C772.293 322.93 771.674 323.279 770.867 323.422V323.52C771.87 323.708 772.605 324.083 773.074 324.643C773.549 325.196 773.787 325.948 773.787 326.898C773.787 328.181 773.338 329.187 772.439 329.916C771.548 330.639 770.304 331 768.709 331H763.553V316.723ZM765.887 322.621H768.133C769.109 322.621 769.822 322.468 770.271 322.162C770.721 321.85 770.945 321.322 770.945 320.58C770.945 319.91 770.701 319.424 770.213 319.125C769.731 318.826 768.963 318.676 767.908 318.676H765.887V322.621ZM765.887 324.516V329.037H768.367C769.344 329.037 770.079 328.852 770.574 328.48C771.076 328.103 771.326 327.51 771.326 326.703C771.326 325.961 771.072 325.411 770.564 325.053C770.057 324.695 769.285 324.516 768.25 324.516H765.887ZM784.379 331L784.057 329.584H783.939C783.62 330.085 783.165 330.479 782.572 330.766C781.986 331.052 781.316 331.195 780.561 331.195C779.252 331.195 778.275 330.87 777.631 330.219C776.986 329.568 776.664 328.581 776.664 327.26V320.199H778.979V326.859C778.979 327.686 779.148 328.308 779.486 328.725C779.825 329.135 780.355 329.34 781.078 329.34C782.042 329.34 782.748 329.053 783.197 328.48C783.653 327.901 783.881 326.934 783.881 325.58V320.199H786.186V331H784.379ZM793.73 329.34C794.29 329.34 794.85 329.252 795.41 329.076V330.805C795.156 330.915 794.827 331.007 794.424 331.078C794.027 331.156 793.613 331.195 793.184 331.195C791.009 331.195 789.922 330.049 789.922 327.758V321.938H788.447V320.922L790.029 320.082L790.811 317.797H792.227V320.199H795.303V321.938H792.227V327.719C792.227 328.272 792.363 328.682 792.637 328.949C792.917 329.21 793.281 329.34 793.73 329.34ZM801.852 329.34C802.411 329.34 802.971 329.252 803.531 329.076V330.805C803.277 330.915 802.949 331.007 802.545 331.078C802.148 331.156 801.734 331.195 801.305 331.195C799.13 331.195 798.043 330.049 798.043 327.758V321.938H796.568V320.922L798.15 320.082L798.932 317.797H800.348V320.199H803.424V321.938H800.348V327.719C800.348 328.272 800.484 328.682 800.758 328.949C801.038 329.21 801.402 329.34 801.852 329.34ZM815.529 325.58C815.529 327.344 815.077 328.721 814.172 329.711C813.267 330.701 812.007 331.195 810.393 331.195C809.383 331.195 808.492 330.967 807.717 330.512C806.942 330.056 806.346 329.402 805.93 328.549C805.513 327.696 805.305 326.706 805.305 325.58C805.305 323.829 805.754 322.462 806.652 321.479C807.551 320.495 808.817 320.004 810.451 320.004C812.014 320.004 813.251 320.508 814.162 321.518C815.074 322.52 815.529 323.874 815.529 325.58ZM807.668 325.58C807.668 328.074 808.589 329.32 810.432 329.32C812.255 329.32 813.166 328.074 813.166 325.58C813.166 323.113 812.248 321.879 810.412 321.879C809.449 321.879 808.749 322.198 808.312 322.836C807.883 323.474 807.668 324.389 807.668 325.58ZM827.928 331H825.623V324.359C825.623 323.526 825.454 322.904 825.115 322.494C824.783 322.084 824.253 321.879 823.523 321.879C822.553 321.879 821.844 322.165 821.395 322.738C820.945 323.311 820.721 324.271 820.721 325.619V331H818.426V320.199H820.223L820.545 321.615H820.662C820.988 321.101 821.45 320.704 822.049 320.424C822.648 320.144 823.312 320.004 824.041 320.004C826.632 320.004 827.928 321.322 827.928 323.959V331ZM838.627 327.924C838.627 328.979 838.243 329.789 837.475 330.355C836.706 330.915 835.606 331.195 834.174 331.195C832.735 331.195 831.579 330.977 830.707 330.541V328.559C831.977 329.145 833.158 329.438 834.252 329.438C835.665 329.438 836.371 329.011 836.371 328.158C836.371 327.885 836.293 327.657 836.137 327.475C835.98 327.292 835.723 327.104 835.365 326.908C835.007 326.713 834.509 326.492 833.871 326.244C832.628 325.762 831.785 325.281 831.342 324.799C830.906 324.317 830.688 323.692 830.688 322.924C830.688 321.999 831.059 321.283 831.801 320.775C832.549 320.261 833.565 320.004 834.848 320.004C836.117 320.004 837.318 320.261 838.451 320.775L837.709 322.504C836.544 322.022 835.564 321.781 834.77 321.781C833.559 321.781 832.953 322.126 832.953 322.816C832.953 323.155 833.109 323.441 833.422 323.676C833.741 323.91 834.431 324.232 835.492 324.643C836.384 324.988 837.032 325.303 837.436 325.59C837.839 325.876 838.139 326.208 838.334 326.586C838.529 326.957 838.627 327.403 838.627 327.924Z" fill="black"/>
</g>
<defs>
<clipPath id="clip0_326_61692">
<rect width="960" height="337" fill="white"/>
</clipPath>
</defs>
</svg>
