<svg fill="none" height="297" viewBox="0 0 928 297" width="928" xmlns="http://www.w3.org/2000/svg" xmlns:xlink="http://www.w3.org/1999/xlink"><clipPath id="a"><rect height="245" rx="4" width="848" x="40" y="26"/></clipPath><clipPath id="b"><path d="m860 30h24v24h-24z"/></clipPath><clipPath id="c"><path d="m860 243h24v24h-24z"/></clipPath><rect fill="#f1f1f6" height="297" rx="8" width="928"/><g clip-path="url(#a)"><rect fill="#e0e1e9" height="245" rx="4" width="848" x="40" y="26"/><path d="m40 26h816v40h-816z" fill="#fff"/><g fill="#363545"><path d="m66 36.75c-.4421 0-.8617.0878-1.2439.2463-.3826.1587-.8214-.0229-.98-.4055-.1587-.3826.0228-.8214.4055-.9801.5611-.2327 1.1757-.3607 1.8184-.3607h1.5c.4142 0 .75.3358.75.75s-.3358.75-.75.75z"/><path d="m69.75 36c0-.4142.3358-.75.75-.75h3c.4142 0 .75.3358.75.75s-.3358.75-.75.75h-3c-.4142 0-.75-.3358-.75-.75z"/><path d="m75.75 36c0-.4142.3358-.75.75-.75h1.5c.6427 0 1.2573.128 1.8184.3607.3827.1587.5642.5975.4055.9801-.1586.3826-.5974.5642-.98.4055-.3822-.1585-.8018-.2463-1.2439-.2463h-1.5c-.4142 0-.75-.3358-.75-.75z"/><path d="m62.5908 37.7761c.3826.1586.5642.5974.4055.98-.1585.3822-.2463.8018-.2463 1.2439v1.5c0 .4142-.3358.75-.75.75s-.75-.3358-.75-.75v-1.5c0-.6427.128-1.2573.3607-1.8184.1587-.3827.5975-.5642.9801-.4055z"/><path d="m81.4092 37.7761c.3826-.1587.8214.0228.9801.4055.2327.5611.3607 1.1757.3607 1.8184v1.5c0 .4142-.3358.75-.75.75s-.75-.3358-.75-.75v-1.5c0-.4421-.0878-.8617-.2463-1.2439-.1587-.3826.0229-.8214.4055-.98z"/><path d="m62 43.75c.4142 0 .75.3358.75.75v3c0 .4142-.3358.75-.75.75s-.75-.3358-.75-.75v-3c0-.4142.3358-.75.75-.75z"/><path d="m82 43.75c.4142 0 .75.3358.75.75v3c0 .4142-.3358.75-.75.75s-.75-.3358-.75-.75v-3c0-.4142.3358-.75.75-.75z"/><path d="m62 49.75c.4142 0 .75.3358.75.75v1.5c0 .4421.0878.8617.2463 1.2439.1587.3826-.0229.8214-.4055.98-.3826.1587-.8214-.0228-.9801-.4055-.2327-.5611-.3607-1.1757-.3607-1.8184v-1.5c0-.4142.3358-.75.75-.75z"/><path d="m82 49.75c.4142 0 .75.3358.75.75v1.5c0 .6427-.128 1.2573-.3607 1.8184-.1587.3827-.5975.5642-.9801.4055-.3826-.1586-.5642-.5974-.4055-.98.1585-.3822.2463-.8018.2463-1.2439v-1.5c0-.4142.3358-.75.75-.75z"/><path d="m63.7761 55.4092c.1586-.3826.5974-.5642.98-.4055.3822.1585.8018.2463 1.2439.2463h1.5c.4142 0 .75.3358.75.75s-.3358.75-.75.75h-1.5c-.6427 0-1.2573-.128-1.8184-.3607-.3827-.1587-.5642-.5975-.4055-.9801z"/><path d="m80.2239 55.4092c.1587.3826-.0228.8214-.4055.9801-.5611.2327-1.1757.3607-1.8184.3607h-1.5c-.4142 0-.75-.3358-.75-.75s.3358-.75.75-.75h1.5c.4421 0 .8617-.0878 1.2439-.2463.3826-.1587.8214.0229.98.4055z"/><path d="m69.75 56c0-.4142.3358-.75.75-.75h3c.4142 0 .75.3358.75.75s-.3358.75-.75.75h-3c-.4142 0-.75-.3358-.75-.75z"/><path d="m80.5303 38.591c.2929-.2929.2929-.7678 0-1.0607s-.7677-.2929-1.0606 0l-.9962.9962c-.2929.2929-.2929.7678 0 1.0607s.7677.2929 1.0606 0z"/><path d="m77.5417 41.5796c.2929-.2929.2929-.7678 0-1.0606-.2929-.2929-.7678-.2929-1.0607 0l-1.9924 1.9924c-.2929.2929-.2929.7677 0 1.0606s.7678.2929 1.0607 0z"/><path d="m73.5569 45.5645c.2929-.2929.2929-.7678 0-1.0607s-.7678-.2929-1.0607 0l-.4962.4962-.4962-.4962c-.2929-.2929-.7678-.2929-1.0607 0s-.2929.7678 0 1.0607l.4962.4962-.4355.4355c-.2929.2929-.2929.7678 0 1.0607s.7678.2929 1.0607 0l.4355-.4356.4355.4356c.2929.2929.7678.2929 1.0607 0s.2929-.7678 0-1.0607l-.4355-.4355z"/><path d="m69.572 49.5493c.2929-.2929.2929-.7678 0-1.0607s-.7677-.2929-1.0606 0l-1.9924 1.9924c-.2929.2929-.2929.7678 0 1.0607.2928.2929.7677.2929 1.0606 0z"/><path d="m65.5872 53.5341c.2929-.2929.2929-.7677 0-1.0606s-.7678-.2929-1.0607 0l-.9962.9962c-.2929.2929-.2929.7677 0 1.0606s.7678.2929 1.0607 0z"/><path d="m79.409 54.5303c.2929.2929.7678.2929 1.0607 0s.2929-.7677 0-1.0606l-.9962-.9962c-.2929-.2929-.7678-.2929-1.0607 0s-.2929.7677 0 1.0606z"/><path d="m76.4204 51.5417c.2929.2929.7678.2929 1.0606 0 .2929-.2929.2929-.7678 0-1.0607l-1.9924-1.9924c-.2929-.2929-.7677-.2929-1.0606 0s-.2929.7678 0 1.0607z"/><path d="m68.4507 43.572c.2929.2929.7678.2929 1.0607 0s.2929-.7677 0-1.0606l-1.9924-1.9924c-.2929-.2929-.7678-.2929-1.0607 0-.2929.2928-.2929.7677 0 1.0606z"/><path d="m64.4659 39.5872c.2929.2929.7677.2929 1.0606 0s.2929-.7678 0-1.0607l-.9962-.9962c-.2929-.2929-.7677-.2929-1.0606 0s-.2929.7678 0 1.0607z"/><path d="m69.0559 40.889c.2979-.0902.6146-.139.9441-.139h.75c.4142 0 .75-.3358.75-.75s-.3358-.75-.75-.75h-.75c-.4784 0-.9417.071-1.379.2035-.3964.1201-.6204.5388-.5003.9352s.5388.6204.9352.5003z"/><path d="m73.25 39.25c-.4142 0-.75.3358-.75.75s.3358.75.75.75h.75c.3295 0 .6462.0488.9441.139.3964.1201.8151-.1039.9352-.5003s-.1039-.8151-.5003-.9352c-.4373-.1325-.9006-.2035-1.379-.2035z"/><path d="m66.889 43.0559c.1201-.3964-.1039-.8151-.5003-.9352s-.8151.1039-.9352.5003c-.1325.4373-.2035.9006-.2035 1.379v.75c0 .4142.3358.75.75.75s.75-.3358.75-.75v-.75c0-.3295.0488-.6462.139-.9441z"/><path d="m78.5465 42.621c-.1201-.3964-.5388-.6204-.9352-.5003s-.6204.5388-.5003.9352c.0902.2979.139.6146.139.9441v.75c0 .4142.3358.75.75.75s.75-.3358.75-.75v-.75c0-.4784-.071-.9417-.2035-1.379z"/><path d="m66.75 47.25c0-.4142-.3358-.75-.75-.75s-.75.3358-.75.75v.75c0 .4784.071.9417.2035 1.379.1201.3964.5388.6204.9352.5003s.6204-.5388.5003-.9352c-.0902-.2979-.139-.6146-.139-.9441z"/><path d="m78.75 47.25c0-.4142-.3358-.75-.75-.75s-.75.3358-.75.75v.75c0 .3295-.0488.6462-.139.9441-.1201.3964.1039.8151.5003.9352s.8151-.1039.9352-.5003c.1325-.4373.2035-.9006.2035-1.379z"/><path d="m69.0559 51.111c-.3964-.1201-.8151.1039-.9352.5003s.1039.8151.5003.9352c.4373.1325.9006.2035 1.379.2035h.75c.4142 0 .75-.3358.75-.75s-.3358-.75-.75-.75h-.75c-.3295 0-.6462-.0488-.9441-.139z"/><path d="m75.379 52.5465c.3964-.1201.6204-.5388.5003-.9352s-.5388-.6204-.9352-.5003c-.2979.0902-.6146.139-.9441.139h-.75c-.4142 0-.75.3358-.75.75s.3358.75.75.75h.75c.4784 0 .9417-.071 1.379-.2035z"/></g><path d="m105.57 52v-11.4219h1.328v10.2188h5.04v1.2031zm15.658-4.2891c0 1.3959-.351 2.487-1.055 3.2735-.703.7812-1.674 1.1718-2.914 1.1718-.765 0-1.445-.1796-2.039-.539-.593-.3594-1.052-.875-1.375-1.5469s-.484-1.4583-.484-2.3594c0-1.3958.349-2.4817 1.047-3.2578.698-.7812 1.666-1.1719 2.906-1.1719 1.198 0 2.148.3985 2.852 1.1954.708.7968 1.062 1.875 1.062 3.2343zm-6.523 0c0 1.0938.218 1.9271.656 2.5.437.573 1.081.8594 1.93.8594s1.492-.2838 1.929-.8515c.443-.573.664-1.4089.664-2.5079 0-1.0885-.221-1.914-.664-2.4765-.437-.5677-1.086-.8516-1.945-.8516-.849 0-1.49.2787-1.922.836-.432.5572-.648 1.388-.648 2.4921zm12.861-4.4297c.38 0 .721.0313 1.023.0938l-.18 1.2031c-.354-.0781-.666-.1172-.937-.1172-.693 0-1.287.2813-1.781.8438-.49.5625-.735 1.263-.735 2.1015v4.5938h-1.297v-8.5625h1.071l.148 1.5859h.063c.317-.5573.7-.9869 1.148-1.289s.94-.4532 1.477-.4532zm6.392 8.875c-1.266 0-2.266-.3854-3-1.1562-.729-.7708-1.094-1.8411-1.094-3.2109 0-1.3802.339-2.4766 1.016-3.2891.682-.8125 1.596-1.2188 2.742-1.2188 1.073 0 1.922.3542 2.547 1.0626.625.7031.937 1.6328.937 2.789v.8203h-5.898c.026 1.0052.278 1.7683.758 2.2891.484.5208 1.164.7812 2.039.7812.922 0 1.833-.1927 2.734-.5781v1.1563c-.458.1979-.893.3385-1.305.4218-.406.0886-.898.1328-1.476.1328zm-.352-7.789c-.687 0-1.237.2239-1.648.6719-.406.4479-.646 1.0677-.719 1.8593h4.477c0-.8177-.183-1.4427-.547-1.875-.365-.4375-.886-.6562-1.563-.6562zm16.783 7.6328v-5.5703c0-.6823-.146-1.1927-.437-1.5313-.292-.3437-.745-.5156-1.36-.5156-.807 0-1.403.2318-1.789.6953-.385.4636-.578 1.1771-.578 2.1407v4.7812h-1.297v-5.5703c0-.6823-.146-1.1927-.437-1.5313-.292-.3437-.748-.5156-1.368-.5156-.812 0-1.408.2448-1.789.7344-.375.4844-.562 1.2812-.562 2.3906v4.4922h-1.297v-8.5625h1.055l.211 1.1719h.062c.245-.4167.589-.7422 1.031-.9766.448-.2344.948-.3516 1.5-.3516 1.339 0 2.214.4844 2.625 1.4532h.063c.255-.4479.625-.8021 1.109-1.0625.485-.2604 1.037-.3907 1.656-.3907.969 0 1.693.25 2.172.75.485.4948.727 1.2891.727 2.3829v5.5859zm8.628 0v-11.4219h1.328v11.4219zm8.408.1562c-.557 0-1.068-.1015-1.531-.3046-.459-.2084-.844-.5261-1.157-.9532h-.093c.062.5.093.974.093 1.4219v3.5235h-1.296v-12.4063h1.054l.18 1.1719h.062c.334-.4688.722-.8073 1.165-1.0156.442-.2084.95-.3126 1.523-.3126 1.135 0 2.01.3881 2.625 1.1641.62.7761.93 1.8646.93 3.2656 0 1.4063-.315 2.5-.946 3.2813-.625.776-1.494 1.164-2.609 1.164zm-.188-7.7734c-.875 0-1.507.2422-1.898.7266s-.591 1.2552-.602 2.3125v.289c0 1.2032.201 2.0651.602 2.586.401.5156 1.044.7734 1.93.7734.739 0 1.317-.2995 1.734-.8984.422-.599.633-1.4245.633-2.4766 0-1.0677-.211-1.8854-.633-2.4531-.417-.5729-1.005-.8594-1.766-.8594zm11.69 5.2813c0 .7968-.297 1.4114-.891 1.8437s-1.427.6484-2.5.6484c-1.135 0-2.021-.1796-2.656-.539v-1.2031c.411.2083.851.3724 1.32.4921.474.1198.93.1797 1.367.1797.677 0 1.198-.1067 1.563-.3203.364-.2187.547-.5495.547-.9922 0-.3333-.146-.6172-.438-.8515-.286-.2396-.849-.5209-1.687-.8438-.797-.2969-1.365-.5547-1.704-.7734-.333-.224-.583-.4766-.75-.7578-.161-.2813-.242-.6172-.242-1.0078 0-.698.284-1.2474.852-1.6485.568-.4062 1.346-.6094 2.336-.6094.922 0 1.823.1876 2.703.5626l-.461 1.0546c-.859-.3541-1.638-.5312-2.336-.5312-.615 0-1.078.0963-1.391.289-.312.1928-.468.4584-.468.7969 0 .2292.057.4245.171.586.12.1614.31.3151.571.4609.26.1458.76.3568 1.5.6328 1.015.3698 1.7.7422 2.054 1.1172.36.375.54.8464.54 1.4141zm3.485-6.2266v5.5547c0 .6979.159 1.2187.477 1.5625.318.3437.815.5156 1.492.5156.896 0 1.55-.2448 1.961-.7344.417-.4895.625-1.289.625-2.3984v-4.5h1.297v8.5625h-1.07l-.188-1.1484h-.07c-.266.4218-.635.7448-1.109.9687-.469.224-1.006.3359-1.61.3359-1.041 0-1.823-.2473-2.344-.7421-.515-.4948-.773-1.2865-.773-2.375v-5.6016zm19.674 8.5625v-5.5703c0-.6823-.146-1.1927-.438-1.5313-.291-.3437-.744-.5156-1.359-.5156-.807 0-1.404.2318-1.789.6953-.385.4636-.578 1.1771-.578 2.1407v4.7812h-1.297v-5.5703c0-.6823-.146-1.1927-.437-1.5313-.292-.3437-.748-.5156-1.368-.5156-.812 0-1.409.2448-1.789.7344-.375.4844-.562 1.2812-.562 2.3906v4.4922h-1.297v-8.5625h1.055l.211 1.1719h.062c.245-.4167.589-.7422 1.031-.9766.448-.2344.948-.3516 1.5-.3516 1.339 0 2.214.4844 2.625 1.4532h.063c.255-.4479.625-.8021 1.109-1.0625s1.037-.3907 1.656-.3907c.969 0 1.693.25 2.172.75.485.4948.727 1.2891.727 2.3829v5.5859z" fill="#252a2e"/><path d="m818 36.75c-.442 0-.862.0878-1.244.2463-.382.1587-.821-.0229-.98-.4055s.023-.8214.406-.9801c.561-.2327 1.175-.3607 1.818-.3607h1.5c.414 0 .75.3358.75.75s-.336.75-.75.75z" fill="#363545"/><path d="m821.75 36c0-.4142.336-.75.75-.75h3c.414 0 .75.3358.75.75s-.336.75-.75.75h-3c-.414 0-.75-.3358-.75-.75z" fill="#363545"/><path d="m827.75 36c0-.4142.336-.75.75-.75h1.5c.643 0 1.257.128 1.818.3607.383.1587.565.5975.406.9801s-.598.5642-.98.4055c-.382-.1585-.802-.2463-1.244-.2463h-1.5c-.414 0-.75-.3358-.75-.75z" fill="#363545"/><path d="m814.591 37.7761c.382.1586.564.5974.405.98-.158.3822-.246.8018-.246 1.2439v1.5c0 .4142-.336.75-.75.75s-.75-.3358-.75-.75v-1.5c0-.6427.128-1.2573.361-1.8184.158-.3827.597-.5642.98-.4055z" fill="#363545"/><path d="m833.409 37.7761c.383-.1587.822.0228.98.4055.233.5611.361 1.1757.361 1.8184v1.5c0 .4142-.336.75-.75.75s-.75-.3358-.75-.75v-1.5c0-.4421-.088-.8617-.246-1.2439-.159-.3826.023-.8214.405-.98z" fill="#363545"/><path d="m814 43.75c.414 0 .75.3358.75.75v3c0 .4142-.336.75-.75.75s-.75-.3358-.75-.75v-3c0-.4142.336-.75.75-.75z" fill="#363545"/><path d="m834 43.75c.414 0 .75.3358.75.75v3c0 .4142-.336.75-.75.75s-.75-.3358-.75-.75v-3c0-.4142.336-.75.75-.75z" fill="#363545"/><path d="m814 49.75c.414 0 .75.3358.75.75v1.5c0 .4421.088.8617.246 1.2439.159.3826-.023.8214-.405.98-.383.1587-.822-.0228-.98-.4055-.233-.5611-.361-1.1757-.361-1.8184v-1.5c0-.4142.336-.75.75-.75z" fill="#363545"/><path d="m834 49.75c.414 0 .75.3358.75.75v1.5c0 .6427-.128 1.2573-.361 1.8184-.158.3827-.597.5642-.98.4055-.382-.1586-.564-.5974-.405-.98.158-.3822.246-.8018.246-1.2439v-1.5c0-.4142.336-.75.75-.75z" fill="#363545"/><path d="m815.776 55.4092c.159-.3826.598-.5642.98-.4055.382.1585.802.2463 1.244.2463h1.5c.414 0 .75.3358.75.75s-.336.75-.75.75h-1.5c-.643 0-1.257-.128-1.818-.3607-.383-.1587-.565-.5975-.406-.9801z" fill="#363545"/><path d="m832.224 55.4092c.159.3826-.023.8214-.406.9801-.561.2327-1.175.3607-1.818.3607h-1.5c-.414 0-.75-.3358-.75-.75s.336-.75.75-.75h1.5c.442 0 .862-.0878 1.244-.2463.382-.1587.821.0229.98.4055z" fill="#363545"/><path d="m821.75 56c0-.4142.336-.75.75-.75h3c.414 0 .75.3358.75.75s-.336.75-.75.75h-3c-.414 0-.75-.3358-.75-.75z" fill="#363545"/><path d="m832.53 38.591c.293-.2929.293-.7678 0-1.0607s-.767-.2929-1.06 0l-.997.9962c-.292.2929-.292.7678 0 1.0607.293.2929.768.2929 1.061 0z" fill="#363545"/><path d="m829.542 41.5796c.293-.2929.293-.7678 0-1.0606-.293-.2929-.768-.2929-1.061 0l-1.992 1.9924c-.293.2929-.293.7677 0 1.0606s.767.2929 1.06 0z" fill="#363545"/><path d="m825.557 45.5645c.293-.2929.293-.7678 0-1.0607s-.768-.2929-1.061 0l-.496.4962-.496-.4962c-.293-.2929-.768-.2929-1.061 0s-.293.7678 0 1.0607l.496.4962-.435.4355c-.293.2929-.293.7678 0 1.0607s.768.2929 1.06 0l.436-.4356.436.4356c.292.2929.767.2929 1.06 0s.293-.7678 0-1.0607l-.435-.4355z" fill="#363545"/><path d="m821.572 49.5493c.293-.2929.293-.7678 0-1.0607s-.768-.2929-1.061 0l-1.992 1.9924c-.293.2929-.293.7678 0 1.0607s.768.2929 1.061 0z" fill="#363545"/><path d="m817.587 53.5341c.293-.2929.293-.7677 0-1.0606s-.768-.2929-1.06 0l-.997.9962c-.293.2929-.293.7677 0 1.0606s.768.2929 1.061 0z" fill="#363545"/><path d="m831.409 54.5303c.293.2929.768.2929 1.061 0s.293-.7677 0-1.0606l-.997-.9962c-.292-.2929-.767-.2929-1.06 0s-.293.7677 0 1.0606z" fill="#363545"/><path d="m828.42 51.5417c.293.2929.768.2929 1.061 0s.293-.7678 0-1.0607l-1.992-1.9924c-.293-.2929-.768-.2929-1.061 0s-.293.7678 0 1.0607z" fill="#363545"/><path d="m820.451 43.572c.293.2929.767.2929 1.06 0s.293-.7677 0-1.0606l-1.992-1.9924c-.293-.2929-.768-.2929-1.061 0-.293.2928-.293.7677 0 1.0606z" fill="#363545"/><path d="m816.466 39.5872c.293.2929.768.2929 1.061 0 .292-.2929.292-.7678 0-1.0607l-.997-.9962c-.293-.2929-.767-.2929-1.06 0s-.293.7678 0 1.0607z" fill="#363545"/><path d="m821.056 40.889c.298-.0902.615-.139.944-.139h.75c.414 0 .75-.3358.75-.75s-.336-.75-.75-.75h-.75c-.478 0-.942.071-1.379.2035-.396.1201-.62.5388-.5.9352s.539.6204.935.5003z" fill="#363545"/><path d="m825.25 39.25c-.414 0-.75.3358-.75.75s.336.75.75.75h.75c.329 0 .646.0488.944.139.396.1201.815-.1039.935-.5003s-.104-.8151-.5-.9352c-.437-.1325-.901-.2035-1.379-.2035z" fill="#363545"/><path d="m818.889 43.0559c.12-.3964-.104-.8151-.5-.9352-.397-.1201-.815.1039-.936.5003-.132.4373-.203.9006-.203 1.379v.75c0 .4142.336.75.75.75s.75-.3358.75-.75v-.75c0-.3295.049-.6462.139-.9441z" fill="#363545"/><path d="m830.547 42.621c-.121-.3964-.539-.6204-.936-.5003-.396.1201-.62.5388-.5.9352.09.2979.139.6146.139.9441v.75c0 .4142.336.75.75.75s.75-.3358.75-.75v-.75c0-.4784-.071-.9417-.203-1.379z" fill="#363545"/><path d="m818.75 47.25c0-.4142-.336-.75-.75-.75s-.75.3358-.75.75v.75c0 .4784.071.9417.203 1.379.121.3964.539.6204.936.5003.396-.1201.62-.5388.5-.9352-.09-.2979-.139-.6146-.139-.9441z" fill="#363545"/><path d="m830.75 47.25c0-.4142-.336-.75-.75-.75s-.75.3358-.75.75v.75c0 .3295-.049.6462-.139.9441-.12.3964.104.8151.5.9352.397.1201.815-.1039.936-.5003.132-.4373.203-.9006.203-1.379z" fill="#363545"/><path d="m821.056 51.111c-.396-.1201-.815.1039-.935.5003s.104.8151.5.9352c.437.1325.901.2035 1.379.2035h.75c.414 0 .75-.3358.75-.75s-.336-.75-.75-.75h-.75c-.329 0-.646-.0488-.944-.139z" fill="#363545"/><path d="m827.379 52.5465c.396-.1201.62-.5388.5-.9352s-.539-.6204-.935-.5003c-.298.0902-.615.139-.944.139h-.75c-.414 0-.75.3358-.75.75s.336.75.75.75h.75c.478 0 .942-.071 1.379-.2035z" fill="#363545"/><path d="m40 67h816v40h-816z" fill="#fff"/><path d="m66 77.75c-.4421 0-.8617.0878-1.2439.2463-.3826.1587-.8214-.0229-.98-.4055-.1587-.3826.0228-.8214.4055-.9801.5611-.2327 1.1757-.3607 1.8184-.3607h1.5c.4142 0 .75.3358.75.75s-.3358.75-.75.75z" fill="#363545"/><path d="m69.75 77c0-.4142.3358-.75.75-.75h3c.4142 0 .75.3358.75.75s-.3358.75-.75.75h-3c-.4142 0-.75-.3358-.75-.75z" fill="#363545"/><path d="m75.75 77c0-.4142.3358-.75.75-.75h1.5c.6427 0 1.2573.128 1.8184.3607.3827.1587.5642.5975.4055.9801-.1586.3826-.5974.5642-.98.4055-.3822-.1585-.8018-.2463-1.2439-.2463h-1.5c-.4142 0-.75-.3358-.75-.75z" fill="#363545"/><path d="m62.5908 78.7761c.3826.1586.5642.5974.4055.98-.1585.3822-.2463.8018-.2463 1.2439v1.5c0 .4142-.3358.75-.75.75s-.75-.3358-.75-.75v-1.5c0-.6427.128-1.2573.3607-1.8184.1587-.3827.5975-.5642.9801-.4055z" fill="#363545"/><path d="m81.4092 78.7761c.3826-.1587.8214.0228.9801.4055.2327.5611.3607 1.1757.3607 1.8184v1.5c0 .4142-.3358.75-.75.75s-.75-.3358-.75-.75v-1.5c0-.4421-.0878-.8617-.2463-1.2439-.1587-.3826.0229-.8214.4055-.98z" fill="#363545"/><path d="m62 84.75c.4142 0 .75.3358.75.75v3c0 .4142-.3358.75-.75.75s-.75-.3358-.75-.75v-3c0-.4142.3358-.75.75-.75z" fill="#363545"/><path d="m82 84.75c.4142 0 .75.3358.75.75v3c0 .4142-.3358.75-.75.75s-.75-.3358-.75-.75v-3c0-.4142.3358-.75.75-.75z" fill="#363545"/><path d="m62 90.75c.4142 0 .75.3358.75.75v1.5c0 .4421.0878.8617.2463 1.2439.1587.3826-.0229.8214-.4055.98-.3826.1587-.8214-.0228-.9801-.4055-.2327-.5611-.3607-1.1757-.3607-1.8184v-1.5c0-.4142.3358-.75.75-.75z" fill="#363545"/><path d="m82 90.75c.4142 0 .75.3358.75.75v1.5c0 .6427-.128 1.2573-.3607 1.8184-.1587.3827-.5975.5642-.9801.4055-.3826-.1586-.5642-.5974-.4055-.98.1585-.3822.2463-.8018.2463-1.2439v-1.5c0-.4142.3358-.75.75-.75z" fill="#363545"/><path d="m63.7761 96.4092c.1586-.3826.5974-.5642.98-.4055.3822.1585.8018.2463 1.2439.2463h1.5c.4142 0 .75.3358.75.75s-.3358.75-.75.75h-1.5c-.6427 0-1.2573-.128-1.8184-.3607-.3827-.1587-.5642-.5975-.4055-.9801z" fill="#363545"/><path d="m80.2239 96.4092c.1587.3826-.0228.8214-.4055.9801-.5611.2327-1.1757.3607-1.8184.3607h-1.5c-.4142 0-.75-.3358-.75-.75s.3358-.75.75-.75h1.5c.4421 0 .8617-.0878 1.2439-.2463.3826-.1587.8214.0229.98.4055z" fill="#363545"/><path d="m69.75 97c0-.4142.3358-.75.75-.75h3c.4142 0 .75.3358.75.75s-.3358.75-.75.75h-3c-.4142 0-.75-.3358-.75-.75z" fill="#363545"/><path d="m80.5303 79.591c.2929-.2929.2929-.7678 0-1.0607s-.7677-.2929-1.0606 0l-.9962.9962c-.2929.2929-.2929.7678 0 1.0607s.7677.2929 1.0606 0z" fill="#363545"/><path d="m77.5417 82.5796c.2929-.2929.2929-.7678 0-1.0606-.2929-.2929-.7678-.2929-1.0607 0l-1.9924 1.9924c-.2929.2929-.2929.7677 0 1.0606s.7678.2929 1.0607 0z" fill="#363545"/><path d="m73.5569 86.5645c.2929-.2929.2929-.7678 0-1.0607s-.7678-.2929-1.0607 0l-.4962.4962-.4962-.4962c-.2929-.2929-.7678-.2929-1.0607 0s-.2929.7678 0 1.0607l.4962.4962-.4355.4355c-.2929.2929-.2929.7678 0 1.0607s.7678.2929 1.0607 0l.4355-.4356.4355.4356c.2929.2929.7678.2929 1.0607 0s.2929-.7678 0-1.0607l-.4355-.4355z" fill="#363545"/><path d="m69.572 90.5493c.2929-.2929.2929-.7678 0-1.0607s-.7677-.2929-1.0606 0l-1.9924 1.9924c-.2929.2929-.2929.7678 0 1.0607.2928.2929.7677.2929 1.0606 0z" fill="#363545"/><path d="m65.5872 94.5341c.2929-.2929.2929-.7677 0-1.0606s-.7678-.2929-1.0607 0l-.9962.9962c-.2929.2929-.2929.7677 0 1.0606s.7678.2929 1.0607 0z" fill="#363545"/><path d="m79.409 95.5303c.2929.2929.7678.2929 1.0607 0s.2929-.7677 0-1.0606l-.9962-.9962c-.2929-.2929-.7678-.2929-1.0607 0s-.2929.7677 0 1.0606z" fill="#363545"/><path d="m76.4204 92.5417c.2929.2929.7678.2929 1.0606 0 .2929-.2929.2929-.7678 0-1.0607l-1.9924-1.9924c-.2929-.2929-.7677-.2929-1.0606 0s-.2929.7678 0 1.0607z" fill="#363545"/><path d="m68.4507 84.572c.2929.2929.7678.2929 1.0607 0s.2929-.7677 0-1.0606l-1.9924-1.9924c-.2929-.2929-.7678-.2929-1.0607 0-.2929.2928-.2929.7677 0 1.0606z" fill="#363545"/><path d="m64.4659 80.5872c.2929.2929.7677.2929 1.0606 0s.2929-.7678 0-1.0607l-.9962-.9962c-.2929-.2929-.7677-.2929-1.0606 0s-.2929.7678 0 1.0607z" fill="#363545"/><path d="m69.0559 81.889c.2979-.0902.6146-.139.9441-.139h.75c.4142 0 .75-.3358.75-.75s-.3358-.75-.75-.75h-.75c-.4784 0-.9417.071-1.379.2035-.3964.1201-.6204.5388-.5003.9352s.5388.6204.9352.5003z" fill="#363545"/><path d="m73.25 80.25c-.4142 0-.75.3358-.75.75s.3358.75.75.75h.75c.3295 0 .6462.0488.9441.139.3964.1201.8151-.1039.9352-.5003s-.1039-.8151-.5003-.9352c-.4373-.1325-.9006-.2035-1.379-.2035z" fill="#363545"/><path d="m66.889 84.0559c.1201-.3964-.1039-.8151-.5003-.9352s-.8151.1039-.9352.5003c-.1325.4373-.2035.9006-.2035 1.379v.75c0 .4142.3358.75.75.75s.75-.3358.75-.75v-.75c0-.3295.0488-.6462.139-.9441z" fill="#363545"/><path d="m78.5465 83.621c-.1201-.3964-.5388-.6204-.9352-.5003s-.6204.5388-.5003.9352c.0902.2979.139.6146.139.9441v.75c0 .4142.3358.75.75.75s.75-.3358.75-.75v-.75c0-.4784-.071-.9417-.2035-1.379z" fill="#363545"/><path d="m66.75 88.25c0-.4142-.3358-.75-.75-.75s-.75.3358-.75.75v.75c0 .4784.071.9417.2035 1.379.1201.3964.5388.6204.9352.5003s.6204-.5388.5003-.9352c-.0902-.2979-.139-.6146-.139-.9441z" fill="#363545"/><path d="m78.75 88.25c0-.4142-.3358-.75-.75-.75s-.75.3358-.75.75v.75c0 .3295-.0488.6462-.139.9441-.1201.3964.1039.8151.5003.9352s.8151-.1039.9352-.5003c.1325-.4373.2035-.9006.2035-1.379z" fill="#363545"/><path d="m69.0559 92.111c-.3964-.1201-.8151.1039-.9352.5003s.1039.8151.5003.9352c.4373.1325.9006.2035 1.379.2035h.75c.4142 0 .75-.3358.75-.75s-.3358-.75-.75-.75h-.75c-.3295 0-.6462-.0488-.9441-.139z" fill="#363545"/><path d="m75.379 93.5465c.3964-.1201.6204-.5388.5003-.9352s-.5388-.6204-.9352-.5003c-.2979.0902-.6146.139-.9441.139h-.75c-.4142 0-.75.3358-.75.75s.3358.75.75.75h.75c.4784 0 .9417-.071 1.379-.2035z" fill="#363545"/><path d="m105.57 93v-11.4219h1.328v10.2188h5.04v1.2031zm15.658-4.2891c0 1.3959-.351 2.487-1.055 3.2735-.703.7812-1.674 1.1718-2.914 1.1718-.765 0-1.445-.1796-2.039-.539-.593-.3594-1.052-.875-1.375-1.5469s-.484-1.4583-.484-2.3594c0-1.3958.349-2.4817 1.047-3.2578.698-.7812 1.666-1.1719 2.906-1.1719 1.198 0 2.148.3985 2.852 1.1954.708.7968 1.062 1.875 1.062 3.2343zm-6.523 0c0 1.0938.218 1.9271.656 2.5.437.573 1.081.8594 1.93.8594s1.492-.2838 1.929-.8515c.443-.573.664-1.4089.664-2.5079 0-1.0885-.221-1.914-.664-2.4765-.437-.5677-1.086-.8516-1.945-.8516-.849 0-1.49.2787-1.922.836-.432.5572-.648 1.388-.648 2.4921zm12.861-4.4297c.38 0 .721.0313 1.023.0938l-.18 1.2031c-.354-.0781-.666-.1172-.937-.1172-.693 0-1.287.2813-1.781.8438-.49.5625-.735 1.263-.735 2.1015v4.5938h-1.297v-8.5625h1.071l.148 1.5859h.063c.317-.5573.7-.9869 1.148-1.289s.94-.4532 1.477-.4532zm6.392 8.875c-1.266 0-2.266-.3854-3-1.1562-.729-.7708-1.094-1.8411-1.094-3.2109 0-1.3802.339-2.4766 1.016-3.2891.682-.8125 1.596-1.2188 2.742-1.2188 1.073 0 1.922.3542 2.547 1.0626.625.7031.937 1.6328.937 2.789v.8203h-5.898c.026 1.0052.278 1.7683.758 2.2891.484.5208 1.164.7812 2.039.7812.922 0 1.833-.1927 2.734-.5781v1.1563c-.458.1979-.893.3385-1.305.4218-.406.0886-.898.1328-1.476.1328zm-.352-7.789c-.687 0-1.237.2239-1.648.6719-.406.4479-.646 1.0677-.719 1.8593h4.477c0-.8177-.183-1.4427-.547-1.875-.365-.4375-.886-.6562-1.563-.6562zm16.783 7.6328v-5.5703c0-.6823-.146-1.1927-.437-1.5313-.292-.3437-.745-.5156-1.36-.5156-.807 0-1.403.2318-1.789.6953-.385.4636-.578 1.1771-.578 2.1407v4.7812h-1.297v-5.5703c0-.6823-.146-1.1927-.437-1.5313-.292-.3437-.748-.5156-1.368-.5156-.812 0-1.408.2448-1.789.7344-.375.4844-.562 1.2812-.562 2.3906v4.4922h-1.297v-8.5625h1.055l.211 1.1719h.062c.245-.4167.589-.7422 1.031-.9766.448-.2344.948-.3516 1.5-.3516 1.339 0 2.214.4844 2.625 1.4532h.063c.255-.4479.625-.8021 1.109-1.0625.485-.2604 1.037-.3907 1.656-.3907.969 0 1.693.25 2.172.75.485.4948.727 1.2891.727 2.3829v5.5859zm8.628 0v-11.4219h1.328v11.4219zm8.408.1562c-.557 0-1.068-.1015-1.531-.3046-.459-.2084-.844-.5261-1.157-.9532h-.093c.062.5.093.974.093 1.4219v3.5235h-1.296v-12.4063h1.054l.18 1.1719h.062c.334-.4688.722-.8073 1.165-1.0156.442-.2084.95-.3126 1.523-.3126 1.135 0 2.01.3881 2.625 1.1641.62.7761.93 1.8646.93 3.2656 0 1.4063-.315 2.5-.946 3.2813-.625.776-1.494 1.164-2.609 1.164zm-.188-7.7734c-.875 0-1.507.2422-1.898.7266s-.591 1.2552-.602 2.3125v.289c0 1.2032.201 2.0651.602 2.586.401.5156 1.044.7734 1.93.7734.739 0 1.317-.2995 1.734-.8984.422-.599.633-1.4245.633-2.4766 0-1.0677-.211-1.8854-.633-2.4531-.417-.5729-1.005-.8594-1.766-.8594zm11.69 5.2813c0 .7968-.297 1.4114-.891 1.8437s-1.427.6484-2.5.6484c-1.135 0-2.021-.1796-2.656-.539v-1.2031c.411.2083.851.3724 1.32.4921.474.1198.93.1797 1.367.1797.677 0 1.198-.1067 1.563-.3203.364-.2187.547-.5495.547-.9922 0-.3333-.146-.6172-.438-.8515-.286-.2396-.849-.5209-1.687-.8438-.797-.2969-1.365-.5547-1.704-.7734-.333-.224-.583-.4766-.75-.7578-.161-.2813-.242-.6172-.242-1.0078 0-.698.284-1.2474.852-1.6485.568-.4062 1.346-.6094 2.336-.6094.922 0 1.823.1876 2.703.5626l-.461 1.0546c-.859-.3541-1.638-.5312-2.336-.5312-.615 0-1.078.0963-1.391.289-.312.1928-.468.4584-.468.7969 0 .2292.057.4245.171.586.12.1614.31.3151.571.4609.26.1458.76.3568 1.5.6328 1.015.3698 1.7.7422 2.054 1.1172.36.375.54.8464.54 1.4141zm3.485-6.2266v5.5547c0 .6979.159 1.2187.477 1.5625.318.3437.815.5156 1.492.5156.896 0 1.55-.2448 1.961-.7344.417-.4895.625-1.289.625-2.3984v-4.5h1.297v8.5625h-1.07l-.188-1.1484h-.07c-.266.4218-.635.7448-1.109.9687-.469.224-1.006.3359-1.61.3359-1.041 0-1.823-.2473-2.344-.7421-.515-.4948-.773-1.2865-.773-2.375v-5.6016zm19.674 8.5625v-5.5703c0-.6823-.146-1.1927-.438-1.5313-.291-.3437-.744-.5156-1.359-.5156-.807 0-1.404.2318-1.789.6953-.385.4636-.578 1.1771-.578 2.1407v4.7812h-1.297v-5.5703c0-.6823-.146-1.1927-.437-1.5313-.292-.3437-.748-.5156-1.368-.5156-.812 0-1.409.2448-1.789.7344-.375.4844-.562 1.2812-.562 2.3906v4.4922h-1.297v-8.5625h1.055l.211 1.1719h.062c.245-.4167.589-.7422 1.031-.9766.448-.2344.948-.3516 1.5-.3516 1.339 0 2.214.4844 2.625 1.4532h.063c.255-.4479.625-.8021 1.109-1.0625s1.037-.3907 1.656-.3907c.969 0 1.693.25 2.172.75.485.4948.727 1.2891.727 2.3829v5.5859z" fill="#252a2e"/><path d="m818 77.75c-.442 0-.862.0878-1.244.2463-.382.1587-.821-.0229-.98-.4055s.023-.8214.406-.9801c.561-.2327 1.175-.3607 1.818-.3607h1.5c.414 0 .75.3358.75.75s-.336.75-.75.75z" fill="#363545"/><path d="m821.75 77c0-.4142.336-.75.75-.75h3c.414 0 .75.3358.75.75s-.336.75-.75.75h-3c-.414 0-.75-.3358-.75-.75z" fill="#363545"/><path d="m827.75 77c0-.4142.336-.75.75-.75h1.5c.643 0 1.257.128 1.818.3607.383.1587.565.5975.406.9801s-.598.5642-.98.4055c-.382-.1585-.802-.2463-1.244-.2463h-1.5c-.414 0-.75-.3358-.75-.75z" fill="#363545"/><path d="m814.591 78.7761c.382.1586.564.5974.405.98-.158.3822-.246.8018-.246 1.2439v1.5c0 .4142-.336.75-.75.75s-.75-.3358-.75-.75v-1.5c0-.6427.128-1.2573.361-1.8184.158-.3827.597-.5642.98-.4055z" fill="#363545"/><path d="m833.409 78.7761c.383-.1587.822.0228.98.4055.233.5611.361 1.1757.361 1.8184v1.5c0 .4142-.336.75-.75.75s-.75-.3358-.75-.75v-1.5c0-.4421-.088-.8617-.246-1.2439-.159-.3826.023-.8214.405-.98z" fill="#363545"/><path d="m814 84.75c.414 0 .75.3358.75.75v3c0 .4142-.336.75-.75.75s-.75-.3358-.75-.75v-3c0-.4142.336-.75.75-.75z" fill="#363545"/><path d="m834 84.75c.414 0 .75.3358.75.75v3c0 .4142-.336.75-.75.75s-.75-.3358-.75-.75v-3c0-.4142.336-.75.75-.75z" fill="#363545"/><path d="m814 90.75c.414 0 .75.3358.75.75v1.5c0 .4421.088.8617.246 1.2439.159.3826-.023.8214-.405.98-.383.1587-.822-.0228-.98-.4055-.233-.5611-.361-1.1757-.361-1.8184v-1.5c0-.4142.336-.75.75-.75z" fill="#363545"/><path d="m834 90.75c.414 0 .75.3358.75.75v1.5c0 .6427-.128 1.2573-.361 1.8184-.158.3827-.597.5642-.98.4055-.382-.1586-.564-.5974-.405-.98.158-.3822.246-.8018.246-1.2439v-1.5c0-.4142.336-.75.75-.75z" fill="#363545"/><path d="m815.776 96.4092c.159-.3826.598-.5642.98-.4055.382.1585.802.2463 1.244.2463h1.5c.414 0 .75.3358.75.75s-.336.75-.75.75h-1.5c-.643 0-1.257-.128-1.818-.3607-.383-.1587-.565-.5975-.406-.9801z" fill="#363545"/><path d="m832.224 96.4092c.159.3826-.023.8214-.406.9801-.561.2327-1.175.3607-1.818.3607h-1.5c-.414 0-.75-.3358-.75-.75s.336-.75.75-.75h1.5c.442 0 .862-.0878 1.244-.2463.382-.1587.821.0229.98.4055z" fill="#363545"/><path d="m821.75 97c0-.4142.336-.75.75-.75h3c.414 0 .75.3358.75.75s-.336.75-.75.75h-3c-.414 0-.75-.3358-.75-.75z" fill="#363545"/><path d="m832.53 79.591c.293-.2929.293-.7678 0-1.0607s-.767-.2929-1.06 0l-.997.9962c-.292.2929-.292.7678 0 1.0607.293.2929.768.2929 1.061 0z" fill="#363545"/><path d="m829.542 82.5796c.293-.2929.293-.7678 0-1.0606-.293-.2929-.768-.2929-1.061 0l-1.992 1.9924c-.293.2929-.293.7677 0 1.0606s.767.2929 1.06 0z" fill="#363545"/><path d="m825.557 86.5645c.293-.2929.293-.7678 0-1.0607s-.768-.2929-1.061 0l-.496.4962-.496-.4962c-.293-.2929-.768-.2929-1.061 0s-.293.7678 0 1.0607l.496.4962-.435.4355c-.293.2929-.293.7678 0 1.0607s.768.2929 1.06 0l.436-.4356.436.4356c.292.2929.767.2929 1.06 0s.293-.7678 0-1.0607l-.435-.4355z" fill="#363545"/><path d="m821.572 90.5493c.293-.2929.293-.7678 0-1.0607s-.768-.2929-1.061 0l-1.992 1.9924c-.293.2929-.293.7678 0 1.0607s.768.2929 1.061 0z" fill="#363545"/><path d="m817.587 94.5341c.293-.2929.293-.7677 0-1.0606s-.768-.2929-1.06 0l-.997.9962c-.293.2929-.293.7677 0 1.0606s.768.2929 1.061 0z" fill="#363545"/><path d="m831.409 95.5303c.293.2929.768.2929 1.061 0s.293-.7677 0-1.0606l-.997-.9962c-.292-.2929-.767-.2929-1.06 0s-.293.7677 0 1.0606z" fill="#363545"/><path d="m828.42 92.5417c.293.2929.768.2929 1.061 0s.293-.7678 0-1.0607l-1.992-1.9924c-.293-.2929-.768-.2929-1.061 0s-.293.7678 0 1.0607z" fill="#363545"/><path d="m820.451 84.572c.293.2929.767.2929 1.06 0s.293-.7677 0-1.0606l-1.992-1.9924c-.293-.2929-.768-.2929-1.061 0-.293.2928-.293.7677 0 1.0606z" fill="#363545"/><path d="m816.466 80.5872c.293.2929.768.2929 1.061 0 .292-.2929.292-.7678 0-1.0607l-.997-.9962c-.293-.2929-.767-.2929-1.06 0s-.293.7678 0 1.0607z" fill="#363545"/><path d="m821.056 81.889c.298-.0902.615-.139.944-.139h.75c.414 0 .75-.3358.75-.75s-.336-.75-.75-.75h-.75c-.478 0-.942.071-1.379.2035-.396.1201-.62.5388-.5.9352s.539.6204.935.5003z" fill="#363545"/><path d="m825.25 80.25c-.414 0-.75.3358-.75.75s.336.75.75.75h.75c.329 0 .646.0488.944.139.396.1201.815-.1039.935-.5003s-.104-.8151-.5-.9352c-.437-.1325-.901-.2035-1.379-.2035z" fill="#363545"/><path d="m818.889 84.0559c.12-.3964-.104-.8151-.5-.9352-.397-.1201-.815.1039-.936.5003-.132.4373-.203.9006-.203 1.379v.75c0 .4142.336.75.75.75s.75-.3358.75-.75v-.75c0-.3295.049-.6462.139-.9441z" fill="#363545"/><path d="m830.547 83.621c-.121-.3964-.539-.6204-.936-.5003-.396.1201-.62.5388-.5.9352.09.2979.139.6146.139.9441v.75c0 .4142.336.75.75.75s.75-.3358.75-.75v-.75c0-.4784-.071-.9417-.203-1.379z" fill="#363545"/><path d="m818.75 88.25c0-.4142-.336-.75-.75-.75s-.75.3358-.75.75v.75c0 .4784.071.9417.203 1.379.121.3964.539.6204.936.5003.396-.1201.62-.5388.5-.9352-.09-.2979-.139-.6146-.139-.9441z" fill="#363545"/><path d="m830.75 88.25c0-.4142-.336-.75-.75-.75s-.75.3358-.75.75v.75c0 .3295-.049.6462-.139.9441-.12.3964.104.8151.5.9352.397.1201.815-.1039.936-.5003.132-.4373.203-.9006.203-1.379z" fill="#363545"/><path d="m821.056 92.111c-.396-.1201-.815.1039-.935.5003s.104.8151.5.9352c.437.1325.901.2035 1.379.2035h.75c.414 0 .75-.3358.75-.75s-.336-.75-.75-.75h-.75c-.329 0-.646-.0488-.944-.139z" fill="#363545"/><path d="m827.379 93.5465c.396-.1201.62-.5388.5-.9352s-.539-.6204-.935-.5003c-.298.0902-.615.139-.944.139h-.75c-.414 0-.75.3358-.75.75s.336.75.75.75h.75c.478 0 .942-.071 1.379-.2035z" fill="#363545"/><path d="m40 108h816v40h-816z" fill="#fff"/><path d="m66 118.75c-.4421 0-.8617.088-1.2439.246-.3826.159-.8214-.023-.98-.405-.1587-.383.0228-.822.4055-.98.5611-.233 1.1757-.361 1.8184-.361h1.5c.4142 0 .75.336.75.75s-.3358.75-.75.75z" fill="#363545"/><path d="m69.75 118c0-.414.3358-.75.75-.75h3c.4142 0 .75.336.75.75s-.3358.75-.75.75h-3c-.4142 0-.75-.336-.75-.75z" fill="#363545"/><path d="m75.75 118c0-.414.3358-.75.75-.75h1.5c.6427 0 1.2573.128 1.8184.361.3827.158.5642.597.4055.98-.1586.382-.5974.564-.98.405-.3822-.158-.8018-.246-1.2439-.246h-1.5c-.4142 0-.75-.336-.75-.75z" fill="#363545"/><path d="m62.5908 119.776c.3826.159.5642.598.4055.98-.1585.382-.2463.802-.2463 1.244v1.5c0 .414-.3358.75-.75.75s-.75-.336-.75-.75v-1.5c0-.643.128-1.257.3607-1.818.1587-.383.5975-.565.9801-.406z" fill="#363545"/><path d="m81.4092 119.776c.3826-.159.8214.023.9801.406.2327.561.3607 1.175.3607 1.818v1.5c0 .414-.3358.75-.75.75s-.75-.336-.75-.75v-1.5c0-.442-.0878-.862-.2463-1.244-.1587-.382.0229-.821.4055-.98z" fill="#363545"/><path d="m62 125.75c.4142 0 .75.336.75.75v3c0 .414-.3358.75-.75.75s-.75-.336-.75-.75v-3c0-.414.3358-.75.75-.75z" fill="#363545"/><path d="m82 125.75c.4142 0 .75.336.75.75v3c0 .414-.3358.75-.75.75s-.75-.336-.75-.75v-3c0-.414.3358-.75.75-.75z" fill="#363545"/><path d="m62 131.75c.4142 0 .75.336.75.75v1.5c0 .442.0878.862.2463 1.244.1587.382-.0229.821-.4055.98s-.8214-.023-.9801-.406c-.2327-.561-.3607-1.175-.3607-1.818v-1.5c0-.414.3358-.75.75-.75z" fill="#363545"/><path d="m82 131.75c.4142 0 .75.336.75.75v1.5c0 .643-.128 1.257-.3607 1.818-.1587.383-.5975.565-.9801.406s-.5642-.598-.4055-.98c.1585-.382.2463-.802.2463-1.244v-1.5c0-.414.3358-.75.75-.75z" fill="#363545"/><path d="m63.7761 137.409c.1586-.382.5974-.564.98-.405.3822.158.8018.246 1.2439.246h1.5c.4142 0 .75.336.75.75s-.3358.75-.75.75h-1.5c-.6427 0-1.2573-.128-1.8184-.361-.3827-.158-.5642-.597-.4055-.98z" fill="#363545"/><path d="m80.2239 137.409c.1587.383-.0228.822-.4055.98-.5611.233-1.1757.361-1.8184.361h-1.5c-.4142 0-.75-.336-.75-.75s.3358-.75.75-.75h1.5c.4421 0 .8617-.088 1.2439-.246.3826-.159.8214.023.98.405z" fill="#363545"/><path d="m69.75 138c0-.414.3358-.75.75-.75h3c.4142 0 .75.336.75.75s-.3358.75-.75.75h-3c-.4142 0-.75-.336-.75-.75z" fill="#363545"/><path d="m80.5303 120.591c.2929-.293.2929-.768 0-1.061s-.7677-.293-1.0606 0l-.9962.997c-.2929.292-.2929.767 0 1.06s.7677.293 1.0606 0z" fill="#363545"/><path d="m77.5417 123.58c.2929-.293.2929-.768 0-1.061s-.7678-.293-1.0607 0l-1.9924 1.992c-.2929.293-.2929.768 0 1.061s.7678.293 1.0607 0z" fill="#363545"/><path d="m73.5569 127.564c.2929-.292.2929-.767 0-1.06s-.7678-.293-1.0607 0l-.4962.496-.4962-.496c-.2929-.293-.7678-.293-1.0607 0s-.2929.768 0 1.06l.4962.497-.4355.435c-.2929.293-.2929.768 0 1.061s.7678.293 1.0607 0l.4355-.436.4355.436c.2929.293.7678.293 1.0607 0s.2929-.768 0-1.061l-.4355-.435z" fill="#363545"/><path d="m69.572 131.549c.2929-.293.2929-.767 0-1.06s-.7677-.293-1.0606 0l-1.9924 1.992c-.2929.293-.2929.768 0 1.061.2928.293.7677.293 1.0606 0z" fill="#363545"/><path d="m65.5872 135.534c.2929-.293.2929-.768 0-1.061-.2929-.292-.7678-.292-1.0607 0l-.9962.997c-.2929.293-.2929.767 0 1.06s.7678.293 1.0607 0z" fill="#363545"/><path d="m79.409 136.53c.2929.293.7678.293 1.0607 0s.2929-.767 0-1.06l-.9962-.997c-.2929-.292-.7678-.292-1.0607 0-.2929.293-.2929.768 0 1.061z" fill="#363545"/><path d="m76.4204 133.542c.2929.293.7678.293 1.0606 0 .2929-.293.2929-.768 0-1.061l-1.9924-1.992c-.2929-.293-.7677-.293-1.0606 0s-.2929.767 0 1.06z" fill="#363545"/><path d="m68.4507 125.572c.2929.293.7678.293 1.0607 0s.2929-.768 0-1.061l-1.9924-1.992c-.2929-.293-.7678-.293-1.0607 0s-.2929.768 0 1.061z" fill="#363545"/><path d="m64.4659 121.587c.2929.293.7677.293 1.0606 0s.2929-.768 0-1.06l-.9962-.997c-.2929-.293-.7677-.293-1.0606 0s-.2929.768 0 1.061z" fill="#363545"/><path d="m69.0559 122.889c.2979-.09.6146-.139.9441-.139h.75c.4142 0 .75-.336.75-.75s-.3358-.75-.75-.75h-.75c-.4784 0-.9417.071-1.379.203-.3964.121-.6204.539-.5003.936.1201.396.5388.62.9352.5z" fill="#363545"/><path d="m73.25 121.25c-.4142 0-.75.336-.75.75s.3358.75.75.75h.75c.3295 0 .6462.049.9441.139.3964.12.8151-.104.9352-.5.1201-.397-.1039-.815-.5003-.936-.4373-.132-.9006-.203-1.379-.203z" fill="#363545"/><path d="m66.889 125.056c.1201-.396-.1039-.815-.5003-.935s-.8151.104-.9352.5c-.1325.437-.2035.901-.2035 1.379v.75c0 .414.3358.75.75.75s.75-.336.75-.75v-.75c0-.329.0488-.646.139-.944z" fill="#363545"/><path d="m78.5465 124.621c-.1201-.396-.5388-.62-.9352-.5s-.6204.539-.5003.935c.0902.298.139.615.139.944v.75c0 .414.3358.75.75.75s.75-.336.75-.75v-.75c0-.478-.071-.942-.2035-1.379z" fill="#363545"/><path d="m66.75 129.25c0-.414-.3358-.75-.75-.75s-.75.336-.75.75v.75c0 .478.071.942.2035 1.379.1201.396.5388.62.9352.5s.6204-.539.5003-.935c-.0902-.298-.139-.615-.139-.944z" fill="#363545"/><path d="m78.75 129.25c0-.414-.3358-.75-.75-.75s-.75.336-.75.75v.75c0 .329-.0488.646-.139.944-.1201.396.1039.815.5003.935s.8151-.104.9352-.5c.1325-.437.2035-.901.2035-1.379z" fill="#363545"/><path d="m69.0559 133.111c-.3964-.12-.8151.104-.9352.5-.1201.397.1039.815.5003.936.4373.132.9006.203 1.379.203h.75c.4142 0 .75-.336.75-.75s-.3358-.75-.75-.75h-.75c-.3295 0-.6462-.049-.9441-.139z" fill="#363545"/><path d="m75.379 134.547c.3964-.121.6204-.539.5003-.936-.1201-.396-.5388-.62-.9352-.5-.2979.09-.6146.139-.9441.139h-.75c-.4142 0-.75.336-.75.75s.3358.75.75.75h.75c.4784 0 .9417-.071 1.379-.203z" fill="#363545"/><path d="m105.57 134v-11.422h1.328v10.219h5.04v1.203zm15.658-4.289c0 1.396-.351 2.487-1.055 3.273-.703.782-1.674 1.172-2.914 1.172-.765 0-1.445-.179-2.039-.539-.593-.359-1.052-.875-1.375-1.547s-.484-1.458-.484-2.359c0-1.396.349-2.482 1.047-3.258.698-.781 1.666-1.172 2.906-1.172 1.198 0 2.148.399 2.852 1.196.708.796 1.062 1.875 1.062 3.234zm-6.523 0c0 1.094.218 1.927.656 2.5.437.573 1.081.859 1.93.859s1.492-.284 1.929-.851c.443-.573.664-1.409.664-2.508 0-1.089-.221-1.914-.664-2.477-.437-.567-1.086-.851-1.945-.851-.849 0-1.49.278-1.922.836-.432.557-.648 1.388-.648 2.492zm12.861-4.43c.38 0 .721.031 1.023.094l-.18 1.203c-.354-.078-.666-.117-.937-.117-.693 0-1.287.281-1.781.844-.49.562-.735 1.263-.735 2.101v4.594h-1.297v-8.562h1.071l.148 1.585h.063c.317-.557.7-.987 1.148-1.289s.94-.453 1.477-.453zm6.392 8.875c-1.266 0-2.266-.385-3-1.156-.729-.771-1.094-1.841-1.094-3.211 0-1.38.339-2.477 1.016-3.289.682-.812 1.596-1.219 2.742-1.219 1.073 0 1.922.354 2.547 1.063.625.703.937 1.633.937 2.789v.82h-5.898c.026 1.005.278 1.768.758 2.289.484.521 1.164.781 2.039.781.922 0 1.833-.192 2.734-.578v1.157c-.458.197-.893.338-1.305.421-.406.089-.898.133-1.476.133zm-.352-7.789c-.687 0-1.237.224-1.648.672-.406.448-.646 1.068-.719 1.859h4.477c0-.817-.183-1.442-.547-1.875-.365-.437-.886-.656-1.563-.656zm16.783 7.633v-5.57c0-.683-.146-1.193-.437-1.532-.292-.343-.745-.515-1.36-.515-.807 0-1.403.232-1.789.695-.385.464-.578 1.177-.578 2.141v4.781h-1.297v-5.57c0-.683-.146-1.193-.437-1.532-.292-.343-.748-.515-1.368-.515-.812 0-1.408.245-1.789.734-.375.485-.562 1.281-.562 2.391v4.492h-1.297v-8.562h1.055l.211 1.171h.062c.245-.416.589-.742 1.031-.976.448-.235.948-.352 1.5-.352 1.339 0 2.214.485 2.625 1.453h.063c.255-.448.625-.802 1.109-1.062.485-.261 1.037-.391 1.656-.391.969 0 1.693.25 2.172.75.485.495.727 1.289.727 2.383v5.586zm8.628 0v-11.422h1.328v11.422zm8.408.156c-.557 0-1.068-.101-1.531-.304-.459-.209-.844-.526-1.157-.954h-.093c.062.5.093.974.093 1.422v3.524h-1.296v-12.406h1.054l.18 1.171h.062c.334-.468.722-.807 1.165-1.015.442-.209.95-.313 1.523-.313 1.135 0 2.01.388 2.625 1.164.62.776.93 1.865.93 3.266 0 1.406-.315 2.5-.946 3.281-.625.776-1.494 1.164-2.609 1.164zm-.188-7.773c-.875 0-1.507.242-1.898.726-.391.485-.591 1.256-.602 2.313v.289c0 1.203.201 2.065.602 2.586.401.515 1.044.773 1.93.773.739 0 1.317-.299 1.734-.898.422-.599.633-1.425.633-2.477 0-1.067-.211-1.885-.633-2.453-.417-.573-1.005-.859-1.766-.859zm11.69 5.281c0 .797-.297 1.412-.891 1.844s-1.427.648-2.5.648c-1.135 0-2.021-.179-2.656-.539v-1.203c.411.208.851.372 1.32.492.474.12.93.18 1.367.18.677 0 1.198-.107 1.563-.32.364-.219.547-.55.547-.993 0-.333-.146-.617-.438-.851-.286-.24-.849-.521-1.687-.844-.797-.297-1.365-.555-1.704-.773-.333-.224-.583-.477-.75-.758-.161-.281-.242-.617-.242-1.008 0-.698.284-1.247.852-1.648.568-.407 1.346-.61 2.336-.61.922 0 1.823.188 2.703.563l-.461 1.054c-.859-.354-1.638-.531-2.336-.531-.615 0-1.078.097-1.391.289-.312.193-.468.459-.468.797 0 .229.057.425.171.586.12.162.31.315.571.461.26.146.76.357 1.5.633 1.015.37 1.7.742 2.054 1.117.36.375.54.846.54 1.414zm3.485-6.226v5.554c0 .698.159 1.219.477 1.563.318.343.815.515 1.492.515.896 0 1.55-.244 1.961-.734.417-.49.625-1.289.625-2.398v-4.5h1.297v8.562h-1.07l-.188-1.148h-.07c-.266.421-.635.744-1.109.968-.469.224-1.006.336-1.61.336-1.041 0-1.823-.247-2.344-.742-.515-.495-.773-1.286-.773-2.375v-5.601zm19.674 8.562v-5.57c0-.683-.146-1.193-.438-1.532-.291-.343-.744-.515-1.359-.515-.807 0-1.404.232-1.789.695-.385.464-.578 1.177-.578 2.141v4.781h-1.297v-5.57c0-.683-.146-1.193-.437-1.532-.292-.343-.748-.515-1.368-.515-.812 0-1.409.245-1.789.734-.375.485-.562 1.281-.562 2.391v4.492h-1.297v-8.562h1.055l.211 1.171h.062c.245-.416.589-.742 1.031-.976.448-.235.948-.352 1.5-.352 1.339 0 2.214.485 2.625 1.453h.063c.255-.448.625-.802 1.109-1.062.484-.261 1.037-.391 1.656-.391.969 0 1.693.25 2.172.75.485.495.727 1.289.727 2.383v5.586z" fill="#252a2e"/><path d="m818 118.75c-.442 0-.862.088-1.244.246-.382.159-.821-.023-.98-.405-.159-.383.023-.822.406-.98.561-.233 1.175-.361 1.818-.361h1.5c.414 0 .75.336.75.75s-.336.75-.75.75z" fill="#363545"/><path d="m821.75 118c0-.414.336-.75.75-.75h3c.414 0 .75.336.75.75s-.336.75-.75.75h-3c-.414 0-.75-.336-.75-.75z" fill="#363545"/><path d="m827.75 118c0-.414.336-.75.75-.75h1.5c.643 0 1.257.128 1.818.361.383.158.565.597.406.98-.159.382-.598.564-.98.405-.382-.158-.802-.246-1.244-.246h-1.5c-.414 0-.75-.336-.75-.75z" fill="#363545"/><path d="m814.591 119.776c.382.159.564.598.405.98-.158.382-.246.802-.246 1.244v1.5c0 .414-.336.75-.75.75s-.75-.336-.75-.75v-1.5c0-.643.128-1.257.361-1.818.158-.383.597-.565.98-.406z" fill="#363545"/><path d="m833.409 119.776c.383-.159.822.023.98.406.233.561.361 1.175.361 1.818v1.5c0 .414-.336.75-.75.75s-.75-.336-.75-.75v-1.5c0-.442-.088-.862-.246-1.244-.159-.382.023-.821.405-.98z" fill="#363545"/><path d="m814 125.75c.414 0 .75.336.75.75v3c0 .414-.336.75-.75.75s-.75-.336-.75-.75v-3c0-.414.336-.75.75-.75z" fill="#363545"/><path d="m834 125.75c.414 0 .75.336.75.75v3c0 .414-.336.75-.75.75s-.75-.336-.75-.75v-3c0-.414.336-.75.75-.75z" fill="#363545"/><path d="m814 131.75c.414 0 .75.336.75.75v1.5c0 .442.088.862.246 1.244.159.382-.023.821-.405.98-.383.159-.822-.023-.98-.406-.233-.561-.361-1.175-.361-1.818v-1.5c0-.414.336-.75.75-.75z" fill="#363545"/><path d="m834 131.75c.414 0 .75.336.75.75v1.5c0 .643-.128 1.257-.361 1.818-.158.383-.597.565-.98.406-.382-.159-.564-.598-.405-.98.158-.382.246-.802.246-1.244v-1.5c0-.414.336-.75.75-.75z" fill="#363545"/><path d="m815.776 137.409c.159-.382.598-.564.98-.405.382.158.802.246 1.244.246h1.5c.414 0 .75.336.75.75s-.336.75-.75.75h-1.5c-.643 0-1.257-.128-1.818-.361-.383-.158-.565-.597-.406-.98z" fill="#363545"/><path d="m832.224 137.409c.159.383-.023.822-.406.98-.561.233-1.175.361-1.818.361h-1.5c-.414 0-.75-.336-.75-.75s.336-.75.75-.75h1.5c.442 0 .862-.088 1.244-.246.382-.159.821.023.98.405z" fill="#363545"/><path d="m821.75 138c0-.414.336-.75.75-.75h3c.414 0 .75.336.75.75s-.336.75-.75.75h-3c-.414 0-.75-.336-.75-.75z" fill="#363545"/><path d="m832.53 120.591c.293-.293.293-.768 0-1.061s-.767-.293-1.06 0l-.997.997c-.292.292-.292.767 0 1.06.293.293.768.293 1.061 0z" fill="#363545"/><path d="m829.542 123.58c.293-.293.293-.768 0-1.061s-.768-.293-1.061 0l-1.992 1.992c-.293.293-.293.768 0 1.061s.767.293 1.06 0z" fill="#363545"/><path d="m825.557 127.564c.293-.292.293-.767 0-1.06s-.768-.293-1.061 0l-.496.496-.496-.496c-.293-.293-.768-.293-1.061 0s-.293.768 0 1.06l.496.497-.435.435c-.293.293-.293.768 0 1.061s.768.293 1.06 0l.436-.436.436.436c.292.293.767.293 1.06 0s.293-.768 0-1.061l-.435-.435z" fill="#363545"/><path d="m821.572 131.549c.293-.293.293-.767 0-1.06s-.768-.293-1.061 0l-1.992 1.992c-.293.293-.293.768 0 1.061s.768.293 1.061 0z" fill="#363545"/><path d="m817.587 135.534c.293-.293.293-.768 0-1.061-.293-.292-.768-.292-1.06 0l-.997.997c-.293.293-.293.767 0 1.06s.768.293 1.061 0z" fill="#363545"/><path d="m831.409 136.53c.293.293.768.293 1.061 0s.293-.767 0-1.06l-.997-.997c-.292-.292-.767-.292-1.06 0-.293.293-.293.768 0 1.061z" fill="#363545"/><path d="m828.42 133.542c.293.293.768.293 1.061 0s.293-.768 0-1.061l-1.992-1.992c-.293-.293-.768-.293-1.061 0s-.293.767 0 1.06z" fill="#363545"/><path d="m820.451 125.572c.293.293.767.293 1.06 0s.293-.768 0-1.061l-1.992-1.992c-.293-.293-.768-.293-1.061 0s-.293.768 0 1.061z" fill="#363545"/><path d="m816.466 121.587c.293.293.768.293 1.061 0 .292-.293.292-.768 0-1.06l-.997-.997c-.293-.293-.767-.293-1.06 0s-.293.768 0 1.061z" fill="#363545"/><path d="m821.056 122.889c.298-.09.615-.139.944-.139h.75c.414 0 .75-.336.75-.75s-.336-.75-.75-.75h-.75c-.478 0-.942.071-1.379.203-.396.121-.62.539-.5.936.12.396.539.62.935.5z" fill="#363545"/><path d="m825.25 121.25c-.414 0-.75.336-.75.75s.336.75.75.75h.75c.329 0 .646.049.944.139.396.12.815-.104.935-.5.12-.397-.104-.815-.5-.936-.437-.132-.901-.203-1.379-.203z" fill="#363545"/><path d="m818.889 125.056c.12-.396-.104-.815-.5-.935-.397-.12-.815.104-.936.5-.132.437-.203.901-.203 1.379v.75c0 .414.336.75.75.75s.75-.336.75-.75v-.75c0-.329.049-.646.139-.944z" fill="#363545"/><path d="m830.547 124.621c-.121-.396-.539-.62-.936-.5-.396.12-.62.539-.5.935.09.298.139.615.139.944v.75c0 .414.336.75.75.75s.75-.336.75-.75v-.75c0-.478-.071-.942-.203-1.379z" fill="#363545"/><path d="m818.75 129.25c0-.414-.336-.75-.75-.75s-.75.336-.75.75v.75c0 .478.071.942.203 1.379.121.396.539.62.936.5.396-.12.62-.539.5-.935-.09-.298-.139-.615-.139-.944z" fill="#363545"/><path d="m830.75 129.25c0-.414-.336-.75-.75-.75s-.75.336-.75.75v.75c0 .329-.049.646-.139.944-.12.396.104.815.5.935.397.12.815-.104.936-.5.132-.437.203-.901.203-1.379z" fill="#363545"/><path d="m821.056 133.111c-.396-.12-.815.104-.935.5-.12.397.104.815.5.936.437.132.901.203 1.379.203h.75c.414 0 .75-.336.75-.75s-.336-.75-.75-.75h-.75c-.329 0-.646-.049-.944-.139z" fill="#363545"/><path d="m827.379 134.547c.396-.121.62-.539.5-.936-.12-.396-.539-.62-.935-.5-.298.09-.615.139-.944.139h-.75c-.414 0-.75.336-.75.75s.336.75.75.75h.75c.478 0 .942-.071 1.379-.203z" fill="#363545"/><path d="m40 149h816v40h-816z" fill="#fff"/><path d="m66 159.75c-.4421 0-.8617.088-1.2439.246-.3826.159-.8214-.023-.98-.405-.1587-.383.0228-.822.4055-.98.5611-.233 1.1757-.361 1.8184-.361h1.5c.4142 0 .75.336.75.75s-.3358.75-.75.75z" fill="#363545"/><path d="m69.75 159c0-.414.3358-.75.75-.75h3c.4142 0 .75.336.75.75s-.3358.75-.75.75h-3c-.4142 0-.75-.336-.75-.75z" fill="#363545"/><path d="m75.75 159c0-.414.3358-.75.75-.75h1.5c.6427 0 1.2573.128 1.8184.361.3827.158.5642.597.4055.98-.1586.382-.5974.564-.98.405-.3822-.158-.8018-.246-1.2439-.246h-1.5c-.4142 0-.75-.336-.75-.75z" fill="#363545"/><path d="m62.5908 160.776c.3826.159.5642.598.4055.98-.1585.382-.2463.802-.2463 1.244v1.5c0 .414-.3358.75-.75.75s-.75-.336-.75-.75v-1.5c0-.643.128-1.257.3607-1.818.1587-.383.5975-.565.9801-.406z" fill="#363545"/><path d="m81.4092 160.776c.3826-.159.8214.023.9801.406.2327.561.3607 1.175.3607 1.818v1.5c0 .414-.3358.75-.75.75s-.75-.336-.75-.75v-1.5c0-.442-.0878-.862-.2463-1.244-.1587-.382.0229-.821.4055-.98z" fill="#363545"/><path d="m62 166.75c.4142 0 .75.336.75.75v3c0 .414-.3358.75-.75.75s-.75-.336-.75-.75v-3c0-.414.3358-.75.75-.75z" fill="#363545"/><path d="m82 166.75c.4142 0 .75.336.75.75v3c0 .414-.3358.75-.75.75s-.75-.336-.75-.75v-3c0-.414.3358-.75.75-.75z" fill="#363545"/><path d="m62 172.75c.4142 0 .75.336.75.75v1.5c0 .442.0878.862.2463 1.244.1587.382-.0229.821-.4055.98s-.8214-.023-.9801-.406c-.2327-.561-.3607-1.175-.3607-1.818v-1.5c0-.414.3358-.75.75-.75z" fill="#363545"/><path d="m82 172.75c.4142 0 .75.336.75.75v1.5c0 .643-.128 1.257-.3607 1.818-.1587.383-.5975.565-.9801.406s-.5642-.598-.4055-.98c.1585-.382.2463-.802.2463-1.244v-1.5c0-.414.3358-.75.75-.75z" fill="#363545"/><path d="m63.7761 178.409c.1586-.382.5974-.564.98-.405.3822.158.8018.246 1.2439.246h1.5c.4142 0 .75.336.75.75s-.3358.75-.75.75h-1.5c-.6427 0-1.2573-.128-1.8184-.361-.3827-.158-.5642-.597-.4055-.98z" fill="#363545"/><path d="m80.2239 178.409c.1587.383-.0228.822-.4055.98-.5611.233-1.1757.361-1.8184.361h-1.5c-.4142 0-.75-.336-.75-.75s.3358-.75.75-.75h1.5c.4421 0 .8617-.088 1.2439-.246.3826-.159.8214.023.98.405z" fill="#363545"/><path d="m69.75 179c0-.414.3358-.75.75-.75h3c.4142 0 .75.336.75.75s-.3358.75-.75.75h-3c-.4142 0-.75-.336-.75-.75z" fill="#363545"/><path d="m80.5303 161.591c.2929-.293.2929-.768 0-1.061s-.7677-.293-1.0606 0l-.9962.997c-.2929.292-.2929.767 0 1.06s.7677.293 1.0606 0z" fill="#363545"/><path d="m77.5417 164.58c.2929-.293.2929-.768 0-1.061s-.7678-.293-1.0607 0l-1.9924 1.992c-.2929.293-.2929.768 0 1.061s.7678.293 1.0607 0z" fill="#363545"/><path d="m73.5569 168.564c.2929-.292.2929-.767 0-1.06s-.7678-.293-1.0607 0l-.4962.496-.4962-.496c-.2929-.293-.7678-.293-1.0607 0s-.2929.768 0 1.06l.4962.497-.4355.435c-.2929.293-.2929.768 0 1.061s.7678.293 1.0607 0l.4355-.436.4355.436c.2929.293.7678.293 1.0607 0s.2929-.768 0-1.061l-.4355-.435z" fill="#363545"/><path d="m69.572 172.549c.2929-.293.2929-.767 0-1.06s-.7677-.293-1.0606 0l-1.9924 1.992c-.2929.293-.2929.768 0 1.061.2928.293.7677.293 1.0606 0z" fill="#363545"/><path d="m65.5872 176.534c.2929-.293.2929-.768 0-1.061-.2929-.292-.7678-.292-1.0607 0l-.9962.997c-.2929.293-.2929.767 0 1.06s.7678.293 1.0607 0z" fill="#363545"/><path d="m79.409 177.53c.2929.293.7678.293 1.0607 0s.2929-.767 0-1.06l-.9962-.997c-.2929-.292-.7678-.292-1.0607 0-.2929.293-.2929.768 0 1.061z" fill="#363545"/><path d="m76.4204 174.542c.2929.293.7678.293 1.0606 0 .2929-.293.2929-.768 0-1.061l-1.9924-1.992c-.2929-.293-.7677-.293-1.0606 0s-.2929.767 0 1.06z" fill="#363545"/><path d="m68.4507 166.572c.2929.293.7678.293 1.0607 0s.2929-.768 0-1.061l-1.9924-1.992c-.2929-.293-.7678-.293-1.0607 0s-.2929.768 0 1.061z" fill="#363545"/><path d="m64.4659 162.587c.2929.293.7677.293 1.0606 0s.2929-.768 0-1.06l-.9962-.997c-.2929-.293-.7677-.293-1.0606 0s-.2929.768 0 1.061z" fill="#363545"/><path d="m69.0559 163.889c.2979-.09.6146-.139.9441-.139h.75c.4142 0 .75-.336.75-.75s-.3358-.75-.75-.75h-.75c-.4784 0-.9417.071-1.379.203-.3964.121-.6204.539-.5003.936.1201.396.5388.62.9352.5z" fill="#363545"/><path d="m73.25 162.25c-.4142 0-.75.336-.75.75s.3358.75.75.75h.75c.3295 0 .6462.049.9441.139.3964.12.8151-.104.9352-.5.1201-.397-.1039-.815-.5003-.936-.4373-.132-.9006-.203-1.379-.203z" fill="#363545"/><path d="m66.889 166.056c.1201-.396-.1039-.815-.5003-.935s-.8151.104-.9352.5c-.1325.437-.2035.901-.2035 1.379v.75c0 .414.3358.75.75.75s.75-.336.75-.75v-.75c0-.329.0488-.646.139-.944z" fill="#363545"/><path d="m78.5465 165.621c-.1201-.396-.5388-.62-.9352-.5s-.6204.539-.5003.935c.0902.298.139.615.139.944v.75c0 .414.3358.75.75.75s.75-.336.75-.75v-.75c0-.478-.071-.942-.2035-1.379z" fill="#363545"/><path d="m66.75 170.25c0-.414-.3358-.75-.75-.75s-.75.336-.75.75v.75c0 .478.071.942.2035 1.379.1201.396.5388.62.9352.5s.6204-.539.5003-.935c-.0902-.298-.139-.615-.139-.944z" fill="#363545"/><path d="m78.75 170.25c0-.414-.3358-.75-.75-.75s-.75.336-.75.75v.75c0 .329-.0488.646-.139.944-.1201.396.1039.815.5003.935s.8151-.104.9352-.5c.1325-.437.2035-.901.2035-1.379z" fill="#363545"/><path d="m69.0559 174.111c-.3964-.12-.8151.104-.9352.5-.1201.397.1039.815.5003.936.4373.132.9006.203 1.379.203h.75c.4142 0 .75-.336.75-.75s-.3358-.75-.75-.75h-.75c-.3295 0-.6462-.049-.9441-.139z" fill="#363545"/><path d="m75.379 175.547c.3964-.121.6204-.539.5003-.936-.1201-.396-.5388-.62-.9352-.5-.2979.09-.6146.139-.9441.139h-.75c-.4142 0-.75.336-.75.75s.3358.75.75.75h.75c.4784 0 .9417-.071 1.379-.203z" fill="#363545"/><path d="m105.57 175v-11.422h1.328v10.219h5.04v1.203zm15.658-4.289c0 1.396-.351 2.487-1.055 3.273-.703.782-1.674 1.172-2.914 1.172-.765 0-1.445-.179-2.039-.539-.593-.359-1.052-.875-1.375-1.547s-.484-1.458-.484-2.359c0-1.396.349-2.482 1.047-3.258.698-.781 1.666-1.172 2.906-1.172 1.198 0 2.148.399 2.852 1.196.708.796 1.062 1.875 1.062 3.234zm-6.523 0c0 1.094.218 1.927.656 2.5.437.573 1.081.859 1.93.859s1.492-.284 1.929-.851c.443-.573.664-1.409.664-2.508 0-1.089-.221-1.914-.664-2.477-.437-.567-1.086-.851-1.945-.851-.849 0-1.49.278-1.922.836-.432.557-.648 1.388-.648 2.492zm12.861-4.43c.38 0 .721.031 1.023.094l-.18 1.203c-.354-.078-.666-.117-.937-.117-.693 0-1.287.281-1.781.844-.49.562-.735 1.263-.735 2.101v4.594h-1.297v-8.562h1.071l.148 1.585h.063c.317-.557.7-.987 1.148-1.289s.94-.453 1.477-.453zm6.392 8.875c-1.266 0-2.266-.385-3-1.156-.729-.771-1.094-1.841-1.094-3.211 0-1.38.339-2.477 1.016-3.289.682-.812 1.596-1.219 2.742-1.219 1.073 0 1.922.354 2.547 1.063.625.703.937 1.633.937 2.789v.82h-5.898c.026 1.005.278 1.768.758 2.289.484.521 1.164.781 2.039.781.922 0 1.833-.192 2.734-.578v1.157c-.458.197-.893.338-1.305.421-.406.089-.898.133-1.476.133zm-.352-7.789c-.687 0-1.237.224-1.648.672-.406.448-.646 1.068-.719 1.859h4.477c0-.817-.183-1.442-.547-1.875-.365-.437-.886-.656-1.563-.656zm16.783 7.633v-5.57c0-.683-.146-1.193-.437-1.532-.292-.343-.745-.515-1.36-.515-.807 0-1.403.232-1.789.695-.385.464-.578 1.177-.578 2.141v4.781h-1.297v-5.57c0-.683-.146-1.193-.437-1.532-.292-.343-.748-.515-1.368-.515-.812 0-1.408.245-1.789.734-.375.485-.562 1.281-.562 2.391v4.492h-1.297v-8.562h1.055l.211 1.171h.062c.245-.416.589-.742 1.031-.976.448-.235.948-.352 1.5-.352 1.339 0 2.214.485 2.625 1.453h.063c.255-.448.625-.802 1.109-1.062.485-.261 1.037-.391 1.656-.391.969 0 1.693.25 2.172.75.485.495.727 1.289.727 2.383v5.586zm8.628 0v-11.422h1.328v11.422zm8.408.156c-.557 0-1.068-.101-1.531-.304-.459-.209-.844-.526-1.157-.954h-.093c.062.5.093.974.093 1.422v3.524h-1.296v-12.406h1.054l.18 1.171h.062c.334-.468.722-.807 1.165-1.015.442-.209.95-.313 1.523-.313 1.135 0 2.01.388 2.625 1.164.62.776.93 1.865.93 3.266 0 1.406-.315 2.5-.946 3.281-.625.776-1.494 1.164-2.609 1.164zm-.188-7.773c-.875 0-1.507.242-1.898.726-.391.485-.591 1.256-.602 2.313v.289c0 1.203.201 2.065.602 2.586.401.515 1.044.773 1.93.773.739 0 1.317-.299 1.734-.898.422-.599.633-1.425.633-2.477 0-1.067-.211-1.885-.633-2.453-.417-.573-1.005-.859-1.766-.859zm11.69 5.281c0 .797-.297 1.412-.891 1.844s-1.427.648-2.5.648c-1.135 0-2.021-.179-2.656-.539v-1.203c.411.208.851.372 1.32.492.474.12.93.18 1.367.18.677 0 1.198-.107 1.563-.32.364-.219.547-.55.547-.993 0-.333-.146-.617-.438-.851-.286-.24-.849-.521-1.687-.844-.797-.297-1.365-.555-1.704-.773-.333-.224-.583-.477-.75-.758-.161-.281-.242-.617-.242-1.008 0-.698.284-1.247.852-1.648.568-.407 1.346-.61 2.336-.61.922 0 1.823.188 2.703.563l-.461 1.054c-.859-.354-1.638-.531-2.336-.531-.615 0-1.078.097-1.391.289-.312.193-.468.459-.468.797 0 .229.057.425.171.586.12.162.31.315.571.461.26.146.76.357 1.5.633 1.015.37 1.7.742 2.054 1.117.36.375.54.846.54 1.414zm3.485-6.226v5.554c0 .698.159 1.219.477 1.563.318.343.815.515 1.492.515.896 0 1.55-.244 1.961-.734.417-.49.625-1.289.625-2.398v-4.5h1.297v8.562h-1.07l-.188-1.148h-.07c-.266.421-.635.744-1.109.968-.469.224-1.006.336-1.61.336-1.041 0-1.823-.247-2.344-.742-.515-.495-.773-1.286-.773-2.375v-5.601zm19.674 8.562v-5.57c0-.683-.146-1.193-.438-1.532-.291-.343-.744-.515-1.359-.515-.807 0-1.404.232-1.789.695-.385.464-.578 1.177-.578 2.141v4.781h-1.297v-5.57c0-.683-.146-1.193-.437-1.532-.292-.343-.748-.515-1.368-.515-.812 0-1.409.245-1.789.734-.375.485-.562 1.281-.562 2.391v4.492h-1.297v-8.562h1.055l.211 1.171h.062c.245-.416.589-.742 1.031-.976.448-.235.948-.352 1.5-.352 1.339 0 2.214.485 2.625 1.453h.063c.255-.448.625-.802 1.109-1.062.484-.261 1.037-.391 1.656-.391.969 0 1.693.25 2.172.75.485.495.727 1.289.727 2.383v5.586z" fill="#252a2e"/><path d="m818 159.75c-.442 0-.862.088-1.244.246-.382.159-.821-.023-.98-.405-.159-.383.023-.822.406-.98.561-.233 1.175-.361 1.818-.361h1.5c.414 0 .75.336.75.75s-.336.75-.75.75z" fill="#363545"/><path d="m821.75 159c0-.414.336-.75.75-.75h3c.414 0 .75.336.75.75s-.336.75-.75.75h-3c-.414 0-.75-.336-.75-.75z" fill="#363545"/><path d="m827.75 159c0-.414.336-.75.75-.75h1.5c.643 0 1.257.128 1.818.361.383.158.565.597.406.98-.159.382-.598.564-.98.405-.382-.158-.802-.246-1.244-.246h-1.5c-.414 0-.75-.336-.75-.75z" fill="#363545"/><path d="m814.591 160.776c.382.159.564.598.405.98-.158.382-.246.802-.246 1.244v1.5c0 .414-.336.75-.75.75s-.75-.336-.75-.75v-1.5c0-.643.128-1.257.361-1.818.158-.383.597-.565.98-.406z" fill="#363545"/><path d="m833.409 160.776c.383-.159.822.023.98.406.233.561.361 1.175.361 1.818v1.5c0 .414-.336.75-.75.75s-.75-.336-.75-.75v-1.5c0-.442-.088-.862-.246-1.244-.159-.382.023-.821.405-.98z" fill="#363545"/><path d="m814 166.75c.414 0 .75.336.75.75v3c0 .414-.336.75-.75.75s-.75-.336-.75-.75v-3c0-.414.336-.75.75-.75z" fill="#363545"/><path d="m834 166.75c.414 0 .75.336.75.75v3c0 .414-.336.75-.75.75s-.75-.336-.75-.75v-3c0-.414.336-.75.75-.75z" fill="#363545"/><path d="m814 172.75c.414 0 .75.336.75.75v1.5c0 .442.088.862.246 1.244.159.382-.023.821-.405.98-.383.159-.822-.023-.98-.406-.233-.561-.361-1.175-.361-1.818v-1.5c0-.414.336-.75.75-.75z" fill="#363545"/><path d="m834 172.75c.414 0 .75.336.75.75v1.5c0 .643-.128 1.257-.361 1.818-.158.383-.597.565-.98.406-.382-.159-.564-.598-.405-.98.158-.382.246-.802.246-1.244v-1.5c0-.414.336-.75.75-.75z" fill="#363545"/><path d="m815.776 178.409c.159-.382.598-.564.98-.405.382.158.802.246 1.244.246h1.5c.414 0 .75.336.75.75s-.336.75-.75.75h-1.5c-.643 0-1.257-.128-1.818-.361-.383-.158-.565-.597-.406-.98z" fill="#363545"/><path d="m832.224 178.409c.159.383-.023.822-.406.98-.561.233-1.175.361-1.818.361h-1.5c-.414 0-.75-.336-.75-.75s.336-.75.75-.75h1.5c.442 0 .862-.088 1.244-.246.382-.159.821.023.98.405z" fill="#363545"/><path d="m821.75 179c0-.414.336-.75.75-.75h3c.414 0 .75.336.75.75s-.336.75-.75.75h-3c-.414 0-.75-.336-.75-.75z" fill="#363545"/><path d="m832.53 161.591c.293-.293.293-.768 0-1.061s-.767-.293-1.06 0l-.997.997c-.292.292-.292.767 0 1.06.293.293.768.293 1.061 0z" fill="#363545"/><path d="m829.542 164.58c.293-.293.293-.768 0-1.061s-.768-.293-1.061 0l-1.992 1.992c-.293.293-.293.768 0 1.061s.767.293 1.06 0z" fill="#363545"/><path d="m825.557 168.564c.293-.292.293-.767 0-1.06s-.768-.293-1.061 0l-.496.496-.496-.496c-.293-.293-.768-.293-1.061 0s-.293.768 0 1.06l.496.497-.435.435c-.293.293-.293.768 0 1.061s.768.293 1.06 0l.436-.436.436.436c.292.293.767.293 1.06 0s.293-.768 0-1.061l-.435-.435z" fill="#363545"/><path d="m821.572 172.549c.293-.293.293-.767 0-1.06s-.768-.293-1.061 0l-1.992 1.992c-.293.293-.293.768 0 1.061s.768.293 1.061 0z" fill="#363545"/><path d="m817.587 176.534c.293-.293.293-.768 0-1.061-.293-.292-.768-.292-1.06 0l-.997.997c-.293.293-.293.767 0 1.06s.768.293 1.061 0z" fill="#363545"/><path d="m831.409 177.53c.293.293.768.293 1.061 0s.293-.767 0-1.06l-.997-.997c-.292-.292-.767-.292-1.06 0-.293.293-.293.768 0 1.061z" fill="#363545"/><path d="m828.42 174.542c.293.293.768.293 1.061 0s.293-.768 0-1.061l-1.992-1.992c-.293-.293-.768-.293-1.061 0s-.293.767 0 1.06z" fill="#363545"/><path d="m820.451 166.572c.293.293.767.293 1.06 0s.293-.768 0-1.061l-1.992-1.992c-.293-.293-.768-.293-1.061 0s-.293.768 0 1.061z" fill="#363545"/><path d="m816.466 162.587c.293.293.768.293 1.061 0 .292-.293.292-.768 0-1.06l-.997-.997c-.293-.293-.767-.293-1.06 0s-.293.768 0 1.061z" fill="#363545"/><path d="m821.056 163.889c.298-.09.615-.139.944-.139h.75c.414 0 .75-.336.75-.75s-.336-.75-.75-.75h-.75c-.478 0-.942.071-1.379.203-.396.121-.62.539-.5.936.12.396.539.62.935.5z" fill="#363545"/><path d="m825.25 162.25c-.414 0-.75.336-.75.75s.336.75.75.75h.75c.329 0 .646.049.944.139.396.12.815-.104.935-.5.12-.397-.104-.815-.5-.936-.437-.132-.901-.203-1.379-.203z" fill="#363545"/><path d="m818.889 166.056c.12-.396-.104-.815-.5-.935-.397-.12-.815.104-.936.5-.132.437-.203.901-.203 1.379v.75c0 .414.336.75.75.75s.75-.336.75-.75v-.75c0-.329.049-.646.139-.944z" fill="#363545"/><path d="m830.547 165.621c-.121-.396-.539-.62-.936-.5-.396.12-.62.539-.5.935.09.298.139.615.139.944v.75c0 .414.336.75.75.75s.75-.336.75-.75v-.75c0-.478-.071-.942-.203-1.379z" fill="#363545"/><path d="m818.75 170.25c0-.414-.336-.75-.75-.75s-.75.336-.75.75v.75c0 .478.071.942.203 1.379.121.396.539.62.936.5.396-.12.62-.539.5-.935-.09-.298-.139-.615-.139-.944z" fill="#363545"/><path d="m830.75 170.25c0-.414-.336-.75-.75-.75s-.75.336-.75.75v.75c0 .329-.049.646-.139.944-.12.396.104.815.5.935.397.12.815-.104.936-.5.132-.437.203-.901.203-1.379z" fill="#363545"/><path d="m821.056 174.111c-.396-.12-.815.104-.935.5-.12.397.104.815.5.936.437.132.901.203 1.379.203h.75c.414 0 .75-.336.75-.75s-.336-.75-.75-.75h-.75c-.329 0-.646-.049-.944-.139z" fill="#363545"/><path d="m827.379 175.547c.396-.121.62-.539.5-.936-.12-.396-.539-.62-.935-.5-.298.09-.615.139-.944.139h-.75c-.414 0-.75.336-.75.75s.336.75.75.75h.75c.478 0 .942-.071 1.379-.203z" fill="#363545"/><path d="m40 190h816v40h-816z" fill="#fff"/><path d="m66 200.75c-.4421 0-.8617.088-1.2439.246-.3826.159-.8214-.023-.98-.405-.1587-.383.0228-.822.4055-.98.5611-.233 1.1757-.361 1.8184-.361h1.5c.4142 0 .75.336.75.75s-.3358.75-.75.75z" fill="#363545"/><path d="m69.75 200c0-.414.3358-.75.75-.75h3c.4142 0 .75.336.75.75s-.3358.75-.75.75h-3c-.4142 0-.75-.336-.75-.75z" fill="#363545"/><path d="m75.75 200c0-.414.3358-.75.75-.75h1.5c.6427 0 1.2573.128 1.8184.361.3827.158.5642.597.4055.98-.1586.382-.5974.564-.98.405-.3822-.158-.8018-.246-1.2439-.246h-1.5c-.4142 0-.75-.336-.75-.75z" fill="#363545"/><path d="m62.5908 201.776c.3826.159.5642.598.4055.98-.1585.382-.2463.802-.2463 1.244v1.5c0 .414-.3358.75-.75.75s-.75-.336-.75-.75v-1.5c0-.643.128-1.257.3607-1.818.1587-.383.5975-.565.9801-.406z" fill="#363545"/><path d="m81.4092 201.776c.3826-.159.8214.023.9801.406.2327.561.3607 1.175.3607 1.818v1.5c0 .414-.3358.75-.75.75s-.75-.336-.75-.75v-1.5c0-.442-.0878-.862-.2463-1.244-.1587-.382.0229-.821.4055-.98z" fill="#363545"/><path d="m62 207.75c.4142 0 .75.336.75.75v3c0 .414-.3358.75-.75.75s-.75-.336-.75-.75v-3c0-.414.3358-.75.75-.75z" fill="#363545"/><path d="m82 207.75c.4142 0 .75.336.75.75v3c0 .414-.3358.75-.75.75s-.75-.336-.75-.75v-3c0-.414.3358-.75.75-.75z" fill="#363545"/><path d="m62 213.75c.4142 0 .75.336.75.75v1.5c0 .442.0878.862.2463 1.244.1587.382-.0229.821-.4055.98s-.8214-.023-.9801-.406c-.2327-.561-.3607-1.175-.3607-1.818v-1.5c0-.414.3358-.75.75-.75z" fill="#363545"/><path d="m82 213.75c.4142 0 .75.336.75.75v1.5c0 .643-.128 1.257-.3607 1.818-.1587.383-.5975.565-.9801.406s-.5642-.598-.4055-.98c.1585-.382.2463-.802.2463-1.244v-1.5c0-.414.3358-.75.75-.75z" fill="#363545"/><path d="m63.7761 219.409c.1586-.382.5974-.564.98-.405.3822.158.8018.246 1.2439.246h1.5c.4142 0 .75.336.75.75s-.3358.75-.75.75h-1.5c-.6427 0-1.2573-.128-1.8184-.361-.3827-.158-.5642-.597-.4055-.98z" fill="#363545"/><path d="m80.2239 219.409c.1587.383-.0228.822-.4055.98-.5611.233-1.1757.361-1.8184.361h-1.5c-.4142 0-.75-.336-.75-.75s.3358-.75.75-.75h1.5c.4421 0 .8617-.088 1.2439-.246.3826-.159.8214.023.98.405z" fill="#363545"/><path d="m69.75 220c0-.414.3358-.75.75-.75h3c.4142 0 .75.336.75.75s-.3358.75-.75.75h-3c-.4142 0-.75-.336-.75-.75z" fill="#363545"/><path d="m80.5303 202.591c.2929-.293.2929-.768 0-1.061s-.7677-.293-1.0606 0l-.9962.997c-.2929.292-.2929.767 0 1.06s.7677.293 1.0606 0z" fill="#363545"/><path d="m77.5417 205.58c.2929-.293.2929-.768 0-1.061s-.7678-.293-1.0607 0l-1.9924 1.992c-.2929.293-.2929.768 0 1.061s.7678.293 1.0607 0z" fill="#363545"/><path d="m73.5569 209.564c.2929-.292.2929-.767 0-1.06s-.7678-.293-1.0607 0l-.4962.496-.4962-.496c-.2929-.293-.7678-.293-1.0607 0s-.2929.768 0 1.06l.4962.497-.4355.435c-.2929.293-.2929.768 0 1.061s.7678.293 1.0607 0l.4355-.436.4355.436c.2929.293.7678.293 1.0607 0s.2929-.768 0-1.061l-.4355-.435z" fill="#363545"/><path d="m69.572 213.549c.2929-.293.2929-.767 0-1.06s-.7677-.293-1.0606 0l-1.9924 1.992c-.2929.293-.2929.768 0 1.061.2928.293.7677.293 1.0606 0z" fill="#363545"/><path d="m65.5872 217.534c.2929-.293.2929-.768 0-1.061-.2929-.292-.7678-.292-1.0607 0l-.9962.997c-.2929.293-.2929.767 0 1.06s.7678.293 1.0607 0z" fill="#363545"/><path d="m79.409 218.53c.2929.293.7678.293 1.0607 0s.2929-.767 0-1.06l-.9962-.997c-.2929-.292-.7678-.292-1.0607 0-.2929.293-.2929.768 0 1.061z" fill="#363545"/><path d="m76.4204 215.542c.2929.293.7678.293 1.0606 0 .2929-.293.2929-.768 0-1.061l-1.9924-1.992c-.2929-.293-.7677-.293-1.0606 0s-.2929.767 0 1.06z" fill="#363545"/><path d="m68.4507 207.572c.2929.293.7678.293 1.0607 0s.2929-.768 0-1.061l-1.9924-1.992c-.2929-.293-.7678-.293-1.0607 0s-.2929.768 0 1.061z" fill="#363545"/><path d="m64.4659 203.587c.2929.293.7677.293 1.0606 0s.2929-.768 0-1.06l-.9962-.997c-.2929-.293-.7677-.293-1.0606 0s-.2929.768 0 1.061z" fill="#363545"/><path d="m69.0559 204.889c.2979-.09.6146-.139.9441-.139h.75c.4142 0 .75-.336.75-.75s-.3358-.75-.75-.75h-.75c-.4784 0-.9417.071-1.379.203-.3964.121-.6204.539-.5003.936.1201.396.5388.62.9352.5z" fill="#363545"/><path d="m73.25 203.25c-.4142 0-.75.336-.75.75s.3358.75.75.75h.75c.3295 0 .6462.049.9441.139.3964.12.8151-.104.9352-.5.1201-.397-.1039-.815-.5003-.936-.4373-.132-.9006-.203-1.379-.203z" fill="#363545"/><path d="m66.889 207.056c.1201-.396-.1039-.815-.5003-.935s-.8151.104-.9352.5c-.1325.437-.2035.901-.2035 1.379v.75c0 .414.3358.75.75.75s.75-.336.75-.75v-.75c0-.329.0488-.646.139-.944z" fill="#363545"/><path d="m78.5465 206.621c-.1201-.396-.5388-.62-.9352-.5s-.6204.539-.5003.935c.0902.298.139.615.139.944v.75c0 .414.3358.75.75.75s.75-.336.75-.75v-.75c0-.478-.071-.942-.2035-1.379z" fill="#363545"/><path d="m66.75 211.25c0-.414-.3358-.75-.75-.75s-.75.336-.75.75v.75c0 .478.071.942.2035 1.379.1201.396.5388.62.9352.5s.6204-.539.5003-.935c-.0902-.298-.139-.615-.139-.944z" fill="#363545"/><path d="m78.75 211.25c0-.414-.3358-.75-.75-.75s-.75.336-.75.75v.75c0 .329-.0488.646-.139.944-.1201.396.1039.815.5003.935s.8151-.104.9352-.5c.1325-.437.2035-.901.2035-1.379z" fill="#363545"/><path d="m69.0559 215.111c-.3964-.12-.8151.104-.9352.5-.1201.397.1039.815.5003.936.4373.132.9006.203 1.379.203h.75c.4142 0 .75-.336.75-.75s-.3358-.75-.75-.75h-.75c-.3295 0-.6462-.049-.9441-.139z" fill="#363545"/><path d="m75.379 216.547c.3964-.121.6204-.539.5003-.936-.1201-.396-.5388-.62-.9352-.5-.2979.09-.6146.139-.9441.139h-.75c-.4142 0-.75.336-.75.75s.3358.75.75.75h.75c.4784 0 .9417-.071 1.379-.203z" fill="#363545"/><path d="m105.57 216v-11.422h1.328v10.219h5.04v1.203zm15.658-4.289c0 1.396-.351 2.487-1.055 3.273-.703.782-1.674 1.172-2.914 1.172-.765 0-1.445-.179-2.039-.539-.593-.359-1.052-.875-1.375-1.547s-.484-1.458-.484-2.359c0-1.396.349-2.482 1.047-3.258.698-.781 1.666-1.172 2.906-1.172 1.198 0 2.148.399 2.852 1.196.708.796 1.062 1.875 1.062 3.234zm-6.523 0c0 1.094.218 1.927.656 2.5.437.573 1.081.859 1.93.859s1.492-.284 1.929-.851c.443-.573.664-1.409.664-2.508 0-1.089-.221-1.914-.664-2.477-.437-.567-1.086-.851-1.945-.851-.849 0-1.49.278-1.922.836-.432.557-.648 1.388-.648 2.492zm12.861-4.43c.38 0 .721.031 1.023.094l-.18 1.203c-.354-.078-.666-.117-.937-.117-.693 0-1.287.281-1.781.844-.49.562-.735 1.263-.735 2.101v4.594h-1.297v-8.562h1.071l.148 1.585h.063c.317-.557.7-.987 1.148-1.289s.94-.453 1.477-.453zm6.392 8.875c-1.266 0-2.266-.385-3-1.156-.729-.771-1.094-1.841-1.094-3.211 0-1.38.339-2.477 1.016-3.289.682-.812 1.596-1.219 2.742-1.219 1.073 0 1.922.354 2.547 1.063.625.703.937 1.633.937 2.789v.82h-5.898c.026 1.005.278 1.768.758 2.289.484.521 1.164.781 2.039.781.922 0 1.833-.192 2.734-.578v1.157c-.458.197-.893.338-1.305.421-.406.089-.898.133-1.476.133zm-.352-7.789c-.687 0-1.237.224-1.648.672-.406.448-.646 1.068-.719 1.859h4.477c0-.817-.183-1.442-.547-1.875-.365-.437-.886-.656-1.563-.656zm16.783 7.633v-5.57c0-.683-.146-1.193-.437-1.532-.292-.343-.745-.515-1.36-.515-.807 0-1.403.232-1.789.695-.385.464-.578 1.177-.578 2.141v4.781h-1.297v-5.57c0-.683-.146-1.193-.437-1.532-.292-.343-.748-.515-1.368-.515-.812 0-1.408.245-1.789.734-.375.485-.562 1.281-.562 2.391v4.492h-1.297v-8.562h1.055l.211 1.171h.062c.245-.416.589-.742 1.031-.976.448-.235.948-.352 1.5-.352 1.339 0 2.214.485 2.625 1.453h.063c.255-.448.625-.802 1.109-1.062.485-.261 1.037-.391 1.656-.391.969 0 1.693.25 2.172.75.485.495.727 1.289.727 2.383v5.586zm8.628 0v-11.422h1.328v11.422zm8.408.156c-.557 0-1.068-.101-1.531-.304-.459-.209-.844-.526-1.157-.954h-.093c.062.5.093.974.093 1.422v3.524h-1.296v-12.406h1.054l.18 1.171h.062c.334-.468.722-.807 1.165-1.015.442-.209.95-.313 1.523-.313 1.135 0 2.01.388 2.625 1.164.62.776.93 1.865.93 3.266 0 1.406-.315 2.5-.946 3.281-.625.776-1.494 1.164-2.609 1.164zm-.188-7.773c-.875 0-1.507.242-1.898.726-.391.485-.591 1.256-.602 2.313v.289c0 1.203.201 2.065.602 2.586.401.515 1.044.773 1.93.773.739 0 1.317-.299 1.734-.898.422-.599.633-1.425.633-2.477 0-1.067-.211-1.885-.633-2.453-.417-.573-1.005-.859-1.766-.859zm11.69 5.281c0 .797-.297 1.412-.891 1.844s-1.427.648-2.5.648c-1.135 0-2.021-.179-2.656-.539v-1.203c.411.208.851.372 1.32.492.474.12.93.18 1.367.18.677 0 1.198-.107 1.563-.32.364-.219.547-.55.547-.993 0-.333-.146-.617-.438-.851-.286-.24-.849-.521-1.687-.844-.797-.297-1.365-.555-1.704-.773-.333-.224-.583-.477-.75-.758-.161-.281-.242-.617-.242-1.008 0-.698.284-1.247.852-1.648.568-.407 1.346-.61 2.336-.61.922 0 1.823.188 2.703.563l-.461 1.054c-.859-.354-1.638-.531-2.336-.531-.615 0-1.078.097-1.391.289-.312.193-.468.459-.468.797 0 .229.057.425.171.586.12.162.31.315.571.461.26.146.76.357 1.5.633 1.015.37 1.7.742 2.054 1.117.36.375.54.846.54 1.414zm3.485-6.226v5.554c0 .698.159 1.219.477 1.563.318.343.815.515 1.492.515.896 0 1.55-.244 1.961-.734.417-.49.625-1.289.625-2.398v-4.5h1.297v8.562h-1.07l-.188-1.148h-.07c-.266.421-.635.744-1.109.968-.469.224-1.006.336-1.61.336-1.041 0-1.823-.247-2.344-.742-.515-.495-.773-1.286-.773-2.375v-5.601zm19.674 8.562v-5.57c0-.683-.146-1.193-.438-1.532-.291-.343-.744-.515-1.359-.515-.807 0-1.404.232-1.789.695-.385.464-.578 1.177-.578 2.141v4.781h-1.297v-5.57c0-.683-.146-1.193-.437-1.532-.292-.343-.748-.515-1.368-.515-.812 0-1.409.245-1.789.734-.375.485-.562 1.281-.562 2.391v4.492h-1.297v-8.562h1.055l.211 1.171h.062c.245-.416.589-.742 1.031-.976.448-.235.948-.352 1.5-.352 1.339 0 2.214.485 2.625 1.453h.063c.255-.448.625-.802 1.109-1.062.484-.261 1.037-.391 1.656-.391.969 0 1.693.25 2.172.75.485.495.727 1.289.727 2.383v5.586z" fill="#252a2e"/><path d="m818 200.75c-.442 0-.862.088-1.244.246-.382.159-.821-.023-.98-.405-.159-.383.023-.822.406-.98.561-.233 1.175-.361 1.818-.361h1.5c.414 0 .75.336.75.75s-.336.75-.75.75z" fill="#363545"/><path d="m821.75 200c0-.414.336-.75.75-.75h3c.414 0 .75.336.75.75s-.336.75-.75.75h-3c-.414 0-.75-.336-.75-.75z" fill="#363545"/><path d="m827.75 200c0-.414.336-.75.75-.75h1.5c.643 0 1.257.128 1.818.361.383.158.565.597.406.98-.159.382-.598.564-.98.405-.382-.158-.802-.246-1.244-.246h-1.5c-.414 0-.75-.336-.75-.75z" fill="#363545"/><path d="m814.591 201.776c.382.159.564.598.405.98-.158.382-.246.802-.246 1.244v1.5c0 .414-.336.75-.75.75s-.75-.336-.75-.75v-1.5c0-.643.128-1.257.361-1.818.158-.383.597-.565.98-.406z" fill="#363545"/><path d="m833.409 201.776c.383-.159.822.023.98.406.233.561.361 1.175.361 1.818v1.5c0 .414-.336.75-.75.75s-.75-.336-.75-.75v-1.5c0-.442-.088-.862-.246-1.244-.159-.382.023-.821.405-.98z" fill="#363545"/><path d="m814 207.75c.414 0 .75.336.75.75v3c0 .414-.336.75-.75.75s-.75-.336-.75-.75v-3c0-.414.336-.75.75-.75z" fill="#363545"/><path d="m834 207.75c.414 0 .75.336.75.75v3c0 .414-.336.75-.75.75s-.75-.336-.75-.75v-3c0-.414.336-.75.75-.75z" fill="#363545"/><path d="m814 213.75c.414 0 .75.336.75.75v1.5c0 .442.088.862.246 1.244.159.382-.023.821-.405.98-.383.159-.822-.023-.98-.406-.233-.561-.361-1.175-.361-1.818v-1.5c0-.414.336-.75.75-.75z" fill="#363545"/><path d="m834 213.75c.414 0 .75.336.75.75v1.5c0 .643-.128 1.257-.361 1.818-.158.383-.597.565-.98.406-.382-.159-.564-.598-.405-.98.158-.382.246-.802.246-1.244v-1.5c0-.414.336-.75.75-.75z" fill="#363545"/><path d="m815.776 219.409c.159-.382.598-.564.98-.405.382.158.802.246 1.244.246h1.5c.414 0 .75.336.75.75s-.336.75-.75.75h-1.5c-.643 0-1.257-.128-1.818-.361-.383-.158-.565-.597-.406-.98z" fill="#363545"/><path d="m832.224 219.409c.159.383-.023.822-.406.98-.561.233-1.175.361-1.818.361h-1.5c-.414 0-.75-.336-.75-.75s.336-.75.75-.75h1.5c.442 0 .862-.088 1.244-.246.382-.159.821.023.98.405z" fill="#363545"/><path d="m821.75 220c0-.414.336-.75.75-.75h3c.414 0 .75.336.75.75s-.336.75-.75.75h-3c-.414 0-.75-.336-.75-.75z" fill="#363545"/><path d="m832.53 202.591c.293-.293.293-.768 0-1.061s-.767-.293-1.06 0l-.997.997c-.292.292-.292.767 0 1.06.293.293.768.293 1.061 0z" fill="#363545"/><path d="m829.542 205.58c.293-.293.293-.768 0-1.061s-.768-.293-1.061 0l-1.992 1.992c-.293.293-.293.768 0 1.061s.767.293 1.06 0z" fill="#363545"/><path d="m825.557 209.564c.293-.292.293-.767 0-1.06s-.768-.293-1.061 0l-.496.496-.496-.496c-.293-.293-.768-.293-1.061 0s-.293.768 0 1.06l.496.497-.435.435c-.293.293-.293.768 0 1.061s.768.293 1.06 0l.436-.436.436.436c.292.293.767.293 1.06 0s.293-.768 0-1.061l-.435-.435z" fill="#363545"/><path d="m821.572 213.549c.293-.293.293-.767 0-1.06s-.768-.293-1.061 0l-1.992 1.992c-.293.293-.293.768 0 1.061s.768.293 1.061 0z" fill="#363545"/><path d="m817.587 217.534c.293-.293.293-.768 0-1.061-.293-.292-.768-.292-1.06 0l-.997.997c-.293.293-.293.767 0 1.06s.768.293 1.061 0z" fill="#363545"/><path d="m831.409 218.53c.293.293.768.293 1.061 0s.293-.767 0-1.06l-.997-.997c-.292-.292-.767-.292-1.06 0-.293.293-.293.768 0 1.061z" fill="#363545"/><path d="m828.42 215.542c.293.293.768.293 1.061 0s.293-.768 0-1.061l-1.992-1.992c-.293-.293-.768-.293-1.061 0s-.293.767 0 1.06z" fill="#363545"/><path d="m820.451 207.572c.293.293.767.293 1.06 0s.293-.768 0-1.061l-1.992-1.992c-.293-.293-.768-.293-1.061 0s-.293.768 0 1.061z" fill="#363545"/><path d="m816.466 203.587c.293.293.768.293 1.061 0 .292-.293.292-.768 0-1.06l-.997-.997c-.293-.293-.767-.293-1.06 0s-.293.768 0 1.061z" fill="#363545"/><path d="m821.056 204.889c.298-.09.615-.139.944-.139h.75c.414 0 .75-.336.75-.75s-.336-.75-.75-.75h-.75c-.478 0-.942.071-1.379.203-.396.121-.62.539-.5.936.12.396.539.62.935.5z" fill="#363545"/><path d="m825.25 203.25c-.414 0-.75.336-.75.75s.336.75.75.75h.75c.329 0 .646.049.944.139.396.12.815-.104.935-.5.12-.397-.104-.815-.5-.936-.437-.132-.901-.203-1.379-.203z" fill="#363545"/><path d="m818.889 207.056c.12-.396-.104-.815-.5-.935-.397-.12-.815.104-.936.5-.132.437-.203.901-.203 1.379v.75c0 .414.336.75.75.75s.75-.336.75-.75v-.75c0-.329.049-.646.139-.944z" fill="#363545"/><path d="m830.547 206.621c-.121-.396-.539-.62-.936-.5-.396.12-.62.539-.5.935.09.298.139.615.139.944v.75c0 .414.336.75.75.75s.75-.336.75-.75v-.75c0-.478-.071-.942-.203-1.379z" fill="#363545"/><path d="m818.75 211.25c0-.414-.336-.75-.75-.75s-.75.336-.75.75v.75c0 .478.071.942.203 1.379.121.396.539.62.936.5.396-.12.62-.539.5-.935-.09-.298-.139-.615-.139-.944z" fill="#363545"/><path d="m830.75 211.25c0-.414-.336-.75-.75-.75s-.75.336-.75.75v.75c0 .329-.049.646-.139.944-.12.396.104.815.5.935.397.12.815-.104.936-.5.132-.437.203-.901.203-1.379z" fill="#363545"/><path d="m821.056 215.111c-.396-.12-.815.104-.935.5-.12.397.104.815.5.936.437.132.901.203 1.379.203h.75c.414 0 .75-.336.75-.75s-.336-.75-.75-.75h-.75c-.329 0-.646-.049-.944-.139z" fill="#363545"/><path d="m827.379 216.547c.396-.121.62-.539.5-.936-.12-.396-.539-.62-.935-.5-.298.09-.615.139-.944.139h-.75c-.414 0-.75.336-.75.75s.336.75.75.75h.75c.478 0 .942-.071 1.379-.203z" fill="#363545"/><path d="m40 231h816v40h-816z" fill="#fff"/><path d="m66 241.75c-.4421 0-.8617.088-1.2439.246-.3826.159-.8214-.023-.98-.405-.1587-.383.0228-.822.4055-.98.5611-.233 1.1757-.361 1.8184-.361h1.5c.4142 0 .75.336.75.75s-.3358.75-.75.75z" fill="#363545"/><path d="m69.75 241c0-.414.3358-.75.75-.75h3c.4142 0 .75.336.75.75s-.3358.75-.75.75h-3c-.4142 0-.75-.336-.75-.75z" fill="#363545"/><path d="m75.75 241c0-.414.3358-.75.75-.75h1.5c.6427 0 1.2573.128 1.8184.361.3827.158.5642.597.4055.98-.1586.382-.5974.564-.98.405-.3822-.158-.8018-.246-1.2439-.246h-1.5c-.4142 0-.75-.336-.75-.75z" fill="#363545"/><path d="m62.5908 242.776c.3826.159.5642.598.4055.98-.1585.382-.2463.802-.2463 1.244v1.5c0 .414-.3358.75-.75.75s-.75-.336-.75-.75v-1.5c0-.643.128-1.257.3607-1.818.1587-.383.5975-.565.9801-.406z" fill="#363545"/><path d="m81.4092 242.776c.3826-.159.8214.023.9801.406.2327.561.3607 1.175.3607 1.818v1.5c0 .414-.3358.75-.75.75s-.75-.336-.75-.75v-1.5c0-.442-.0878-.862-.2463-1.244-.1587-.382.0229-.821.4055-.98z" fill="#363545"/><path d="m62 248.75c.4142 0 .75.336.75.75v3c0 .414-.3358.75-.75.75s-.75-.336-.75-.75v-3c0-.414.3358-.75.75-.75z" fill="#363545"/><path d="m82 248.75c.4142 0 .75.336.75.75v3c0 .414-.3358.75-.75.75s-.75-.336-.75-.75v-3c0-.414.3358-.75.75-.75z" fill="#363545"/><path d="m62 254.75c.4142 0 .75.336.75.75v1.5c0 .442.0878.862.2463 1.244.1587.382-.0229.821-.4055.98s-.8214-.023-.9801-.406c-.2327-.561-.3607-1.175-.3607-1.818v-1.5c0-.414.3358-.75.75-.75z" fill="#363545"/><path d="m82 254.75c.4142 0 .75.336.75.75v1.5c0 .643-.128 1.257-.3607 1.818-.1587.383-.5975.565-.9801.406s-.5642-.598-.4055-.98c.1585-.382.2463-.802.2463-1.244v-1.5c0-.414.3358-.75.75-.75z" fill="#363545"/><path d="m63.7761 260.409c.1586-.382.5974-.564.98-.405.3822.158.8018.246 1.2439.246h1.5c.4142 0 .75.336.75.75s-.3358.75-.75.75h-1.5c-.6427 0-1.2573-.128-1.8184-.361-.3827-.158-.5642-.597-.4055-.98z" fill="#363545"/><path d="m80.2239 260.409c.1587.383-.0228.822-.4055.98-.5611.233-1.1757.361-1.8184.361h-1.5c-.4142 0-.75-.336-.75-.75s.3358-.75.75-.75h1.5c.4421 0 .8617-.088 1.2439-.246.3826-.159.8214.023.98.405z" fill="#363545"/><path d="m69.75 261c0-.414.3358-.75.75-.75h3c.4142 0 .75.336.75.75s-.3358.75-.75.75h-3c-.4142 0-.75-.336-.75-.75z" fill="#363545"/><path d="m80.5303 243.591c.2929-.293.2929-.768 0-1.061s-.7677-.293-1.0606 0l-.9962.997c-.2929.292-.2929.767 0 1.06s.7677.293 1.0606 0z" fill="#363545"/><path d="m77.5417 246.58c.2929-.293.2929-.768 0-1.061s-.7678-.293-1.0607 0l-1.9924 1.992c-.2929.293-.2929.768 0 1.061s.7678.293 1.0607 0z" fill="#363545"/><path d="m73.5569 250.564c.2929-.292.2929-.767 0-1.06s-.7678-.293-1.0607 0l-.4962.496-.4962-.496c-.2929-.293-.7678-.293-1.0607 0s-.2929.768 0 1.06l.4962.497-.4355.435c-.2929.293-.2929.768 0 1.061s.7678.293 1.0607 0l.4355-.436.4355.436c.2929.293.7678.293 1.0607 0s.2929-.768 0-1.061l-.4355-.435z" fill="#363545"/><path d="m69.572 254.549c.2929-.293.2929-.767 0-1.06s-.7677-.293-1.0606 0l-1.9924 1.992c-.2929.293-.2929.768 0 1.061.2928.293.7677.293 1.0606 0z" fill="#363545"/><path d="m65.5872 258.534c.2929-.293.2929-.768 0-1.061-.2929-.292-.7678-.292-1.0607 0l-.9962.997c-.2929.293-.2929.767 0 1.06s.7678.293 1.0607 0z" fill="#363545"/><path d="m79.409 259.53c.2929.293.7678.293 1.0607 0s.2929-.767 0-1.06l-.9962-.997c-.2929-.292-.7678-.292-1.0607 0-.2929.293-.2929.768 0 1.061z" fill="#363545"/><path d="m76.4204 256.542c.2929.293.7678.293 1.0606 0 .2929-.293.2929-.768 0-1.061l-1.9924-1.992c-.2929-.293-.7677-.293-1.0606 0s-.2929.767 0 1.06z" fill="#363545"/><path d="m68.4507 248.572c.2929.293.7678.293 1.0607 0s.2929-.768 0-1.061l-1.9924-1.992c-.2929-.293-.7678-.293-1.0607 0s-.2929.768 0 1.061z" fill="#363545"/><path d="m64.4659 244.587c.2929.293.7677.293 1.0606 0s.2929-.768 0-1.06l-.9962-.997c-.2929-.293-.7677-.293-1.0606 0s-.2929.768 0 1.061z" fill="#363545"/><path d="m69.0559 245.889c.2979-.09.6146-.139.9441-.139h.75c.4142 0 .75-.336.75-.75s-.3358-.75-.75-.75h-.75c-.4784 0-.9417.071-1.379.203-.3964.121-.6204.539-.5003.936.1201.396.5388.62.9352.5z" fill="#363545"/><path d="m73.25 244.25c-.4142 0-.75.336-.75.75s.3358.75.75.75h.75c.3295 0 .6462.049.9441.139.3964.12.8151-.104.9352-.5.1201-.397-.1039-.815-.5003-.936-.4373-.132-.9006-.203-1.379-.203z" fill="#363545"/><path d="m66.889 248.056c.1201-.396-.1039-.815-.5003-.935s-.8151.104-.9352.5c-.1325.437-.2035.901-.2035 1.379v.75c0 .414.3358.75.75.75s.75-.336.75-.75v-.75c0-.329.0488-.646.139-.944z" fill="#363545"/><path d="m78.5465 247.621c-.1201-.396-.5388-.62-.9352-.5s-.6204.539-.5003.935c.0902.298.139.615.139.944v.75c0 .414.3358.75.75.75s.75-.336.75-.75v-.75c0-.478-.071-.942-.2035-1.379z" fill="#363545"/><path d="m66.75 252.25c0-.414-.3358-.75-.75-.75s-.75.336-.75.75v.75c0 .478.071.942.2035 1.379.1201.396.5388.62.9352.5s.6204-.539.5003-.935c-.0902-.298-.139-.615-.139-.944z" fill="#363545"/><path d="m78.75 252.25c0-.414-.3358-.75-.75-.75s-.75.336-.75.75v.75c0 .329-.0488.646-.139.944-.1201.396.1039.815.5003.935s.8151-.104.9352-.5c.1325-.437.2035-.901.2035-1.379z" fill="#363545"/><path d="m69.0559 256.111c-.3964-.12-.8151.104-.9352.5-.1201.397.1039.815.5003.936.4373.132.9006.203 1.379.203h.75c.4142 0 .75-.336.75-.75s-.3358-.75-.75-.75h-.75c-.3295 0-.6462-.049-.9441-.139z" fill="#363545"/><path d="m75.379 257.547c.3964-.121.6204-.539.5003-.936-.1201-.396-.5388-.62-.9352-.5-.2979.09-.6146.139-.9441.139h-.75c-.4142 0-.75.336-.75.75s.3358.75.75.75h.75c.4784 0 .9417-.071 1.379-.203z" fill="#363545"/><path d="m105.57 257v-11.422h1.328v10.219h5.04v1.203zm15.658-4.289c0 1.396-.351 2.487-1.055 3.273-.703.782-1.674 1.172-2.914 1.172-.765 0-1.445-.179-2.039-.539-.593-.359-1.052-.875-1.375-1.547s-.484-1.458-.484-2.359c0-1.396.349-2.482 1.047-3.258.698-.781 1.666-1.172 2.906-1.172 1.198 0 2.148.399 2.852 1.196.708.796 1.062 1.875 1.062 3.234zm-6.523 0c0 1.094.218 1.927.656 2.5.437.573 1.081.859 1.93.859s1.492-.284 1.929-.851c.443-.573.664-1.409.664-2.508 0-1.089-.221-1.914-.664-2.477-.437-.567-1.086-.851-1.945-.851-.849 0-1.49.278-1.922.836-.432.557-.648 1.388-.648 2.492zm12.861-4.43c.38 0 .721.031 1.023.094l-.18 1.203c-.354-.078-.666-.117-.937-.117-.693 0-1.287.281-1.781.844-.49.562-.735 1.263-.735 2.101v4.594h-1.297v-8.562h1.071l.148 1.585h.063c.317-.557.7-.987 1.148-1.289s.94-.453 1.477-.453zm6.392 8.875c-1.266 0-2.266-.385-3-1.156-.729-.771-1.094-1.841-1.094-3.211 0-1.38.339-2.477 1.016-3.289.682-.812 1.596-1.219 2.742-1.219 1.073 0 1.922.354 2.547 1.063.625.703.937 1.633.937 2.789v.82h-5.898c.026 1.005.278 1.768.758 2.289.484.521 1.164.781 2.039.781.922 0 1.833-.192 2.734-.578v1.157c-.458.197-.893.338-1.305.421-.406.089-.898.133-1.476.133zm-.352-7.789c-.687 0-1.237.224-1.648.672-.406.448-.646 1.068-.719 1.859h4.477c0-.817-.183-1.442-.547-1.875-.365-.437-.886-.656-1.563-.656zm16.783 7.633v-5.57c0-.683-.146-1.193-.437-1.532-.292-.343-.745-.515-1.36-.515-.807 0-1.403.232-1.789.695-.385.464-.578 1.177-.578 2.141v4.781h-1.297v-5.57c0-.683-.146-1.193-.437-1.532-.292-.343-.748-.515-1.368-.515-.812 0-1.408.245-1.789.734-.375.485-.562 1.281-.562 2.391v4.492h-1.297v-8.562h1.055l.211 1.171h.062c.245-.416.589-.742 1.031-.976.448-.235.948-.352 1.5-.352 1.339 0 2.214.485 2.625 1.453h.063c.255-.448.625-.802 1.109-1.062.485-.261 1.037-.391 1.656-.391.969 0 1.693.25 2.172.75.485.495.727 1.289.727 2.383v5.586zm8.628 0v-11.422h1.328v11.422zm8.408.156c-.557 0-1.068-.101-1.531-.304-.459-.209-.844-.526-1.157-.954h-.093c.062.5.093.974.093 1.422v3.524h-1.296v-12.406h1.054l.18 1.171h.062c.334-.468.722-.807 1.165-1.015.442-.209.95-.313 1.523-.313 1.135 0 2.01.388 2.625 1.164.62.776.93 1.865.93 3.266 0 1.406-.315 2.5-.946 3.281-.625.776-1.494 1.164-2.609 1.164zm-.188-7.773c-.875 0-1.507.242-1.898.726-.391.485-.591 1.256-.602 2.313v.289c0 1.203.201 2.065.602 2.586.401.515 1.044.773 1.93.773.739 0 1.317-.299 1.734-.898.422-.599.633-1.425.633-2.477 0-1.067-.211-1.885-.633-2.453-.417-.573-1.005-.859-1.766-.859zm11.69 5.281c0 .797-.297 1.412-.891 1.844s-1.427.648-2.5.648c-1.135 0-2.021-.179-2.656-.539v-1.203c.411.208.851.372 1.32.492.474.12.93.18 1.367.18.677 0 1.198-.107 1.563-.32.364-.219.547-.55.547-.993 0-.333-.146-.617-.438-.851-.286-.24-.849-.521-1.687-.844-.797-.297-1.365-.555-1.704-.773-.333-.224-.583-.477-.75-.758-.161-.281-.242-.617-.242-1.008 0-.698.284-1.247.852-1.648.568-.407 1.346-.61 2.336-.61.922 0 1.823.188 2.703.563l-.461 1.054c-.859-.354-1.638-.531-2.336-.531-.615 0-1.078.097-1.391.289-.312.193-.468.459-.468.797 0 .229.057.425.171.586.12.162.31.315.571.461.26.146.76.357 1.5.633 1.015.37 1.7.742 2.054 1.117.36.375.54.846.54 1.414zm3.485-6.226v5.554c0 .698.159 1.219.477 1.563.318.343.815.515 1.492.515.896 0 1.55-.244 1.961-.734.417-.49.625-1.289.625-2.398v-4.5h1.297v8.562h-1.07l-.188-1.148h-.07c-.266.421-.635.744-1.109.968-.469.224-1.006.336-1.61.336-1.041 0-1.823-.247-2.344-.742-.515-.495-.773-1.286-.773-2.375v-5.601zm19.674 8.562v-5.57c0-.683-.146-1.193-.438-1.532-.291-.343-.744-.515-1.359-.515-.807 0-1.404.232-1.789.695-.385.464-.578 1.177-.578 2.141v4.781h-1.297v-5.57c0-.683-.146-1.193-.437-1.532-.292-.343-.748-.515-1.368-.515-.812 0-1.409.245-1.789.734-.375.485-.562 1.281-.562 2.391v4.492h-1.297v-8.562h1.055l.211 1.171h.062c.245-.416.589-.742 1.031-.976.448-.235.948-.352 1.5-.352 1.339 0 2.214.485 2.625 1.453h.063c.255-.448.625-.802 1.109-1.062.484-.261 1.037-.391 1.656-.391.969 0 1.693.25 2.172.75.485.495.727 1.289.727 2.383v5.586z" fill="#252a2e"/><path d="m818 241.75c-.442 0-.862.088-1.244.246-.382.159-.821-.023-.98-.405-.159-.383.023-.822.406-.98.561-.233 1.175-.361 1.818-.361h1.5c.414 0 .75.336.75.75s-.336.75-.75.75z" fill="#363545"/><path d="m821.75 241c0-.414.336-.75.75-.75h3c.414 0 .75.336.75.75s-.336.75-.75.75h-3c-.414 0-.75-.336-.75-.75z" fill="#363545"/><path d="m827.75 241c0-.414.336-.75.75-.75h1.5c.643 0 1.257.128 1.818.361.383.158.565.597.406.98-.159.382-.598.564-.98.405-.382-.158-.802-.246-1.244-.246h-1.5c-.414 0-.75-.336-.75-.75z" fill="#363545"/><path d="m814.591 242.776c.382.159.564.598.405.98-.158.382-.246.802-.246 1.244v1.5c0 .414-.336.75-.75.75s-.75-.336-.75-.75v-1.5c0-.643.128-1.257.361-1.818.158-.383.597-.565.98-.406z" fill="#363545"/><path d="m833.409 242.776c.383-.159.822.023.98.406.233.561.361 1.175.361 1.818v1.5c0 .414-.336.75-.75.75s-.75-.336-.75-.75v-1.5c0-.442-.088-.862-.246-1.244-.159-.382.023-.821.405-.98z" fill="#363545"/><path d="m814 248.75c.414 0 .75.336.75.75v3c0 .414-.336.75-.75.75s-.75-.336-.75-.75v-3c0-.414.336-.75.75-.75z" fill="#363545"/><path d="m834 248.75c.414 0 .75.336.75.75v3c0 .414-.336.75-.75.75s-.75-.336-.75-.75v-3c0-.414.336-.75.75-.75z" fill="#363545"/><path d="m814 254.75c.414 0 .75.336.75.75v1.5c0 .442.088.862.246 1.244.159.382-.023.821-.405.98-.383.159-.822-.023-.98-.406-.233-.561-.361-1.175-.361-1.818v-1.5c0-.414.336-.75.75-.75z" fill="#363545"/><path d="m834 254.75c.414 0 .75.336.75.75v1.5c0 .643-.128 1.257-.361 1.818-.158.383-.597.565-.98.406-.382-.159-.564-.598-.405-.98.158-.382.246-.802.246-1.244v-1.5c0-.414.336-.75.75-.75z" fill="#363545"/><path d="m815.776 260.409c.159-.382.598-.564.98-.405.382.158.802.246 1.244.246h1.5c.414 0 .75.336.75.75s-.336.75-.75.75h-1.5c-.643 0-1.257-.128-1.818-.361-.383-.158-.565-.597-.406-.98z" fill="#363545"/><path d="m832.224 260.409c.159.383-.023.822-.406.98-.561.233-1.175.361-1.818.361h-1.5c-.414 0-.75-.336-.75-.75s.336-.75.75-.75h1.5c.442 0 .862-.088 1.244-.246.382-.159.821.023.98.405z" fill="#363545"/><path d="m821.75 261c0-.414.336-.75.75-.75h3c.414 0 .75.336.75.75s-.336.75-.75.75h-3c-.414 0-.75-.336-.75-.75z" fill="#363545"/><path d="m832.53 243.591c.293-.293.293-.768 0-1.061s-.767-.293-1.06 0l-.997.997c-.292.292-.292.767 0 1.06.293.293.768.293 1.061 0z" fill="#363545"/><path d="m829.542 246.58c.293-.293.293-.768 0-1.061s-.768-.293-1.061 0l-1.992 1.992c-.293.293-.293.768 0 1.061s.767.293 1.06 0z" fill="#363545"/><path d="m825.557 250.564c.293-.292.293-.767 0-1.06s-.768-.293-1.061 0l-.496.496-.496-.496c-.293-.293-.768-.293-1.061 0s-.293.768 0 1.06l.496.497-.435.435c-.293.293-.293.768 0 1.061s.768.293 1.06 0l.436-.436.436.436c.292.293.767.293 1.06 0s.293-.768 0-1.061l-.435-.435z" fill="#363545"/><path d="m821.572 254.549c.293-.293.293-.767 0-1.06s-.768-.293-1.061 0l-1.992 1.992c-.293.293-.293.768 0 1.061s.768.293 1.061 0z" fill="#363545"/><path d="m817.587 258.534c.293-.293.293-.768 0-1.061-.293-.292-.768-.292-1.06 0l-.997.997c-.293.293-.293.767 0 1.06s.768.293 1.061 0z" fill="#363545"/><path d="m831.409 259.53c.293.293.768.293 1.061 0s.293-.767 0-1.06l-.997-.997c-.292-.292-.767-.292-1.06 0-.293.293-.293.768 0 1.061z" fill="#363545"/><path d="m828.42 256.542c.293.293.768.293 1.061 0s.293-.768 0-1.061l-1.992-1.992c-.293-.293-.768-.293-1.061 0s-.293.767 0 1.06z" fill="#363545"/><path d="m820.451 248.572c.293.293.767.293 1.06 0s.293-.768 0-1.061l-1.992-1.992c-.293-.293-.768-.293-1.061 0s-.293.768 0 1.061z" fill="#363545"/><path d="m816.466 244.587c.293.293.768.293 1.061 0 .292-.293.292-.768 0-1.06l-.997-.997c-.293-.293-.767-.293-1.06 0s-.293.768 0 1.061z" fill="#363545"/><path d="m821.056 245.889c.298-.09.615-.139.944-.139h.75c.414 0 .75-.336.75-.75s-.336-.75-.75-.75h-.75c-.478 0-.942.071-1.379.203-.396.121-.62.539-.5.936.12.396.539.62.935.5z" fill="#363545"/><path d="m825.25 244.25c-.414 0-.75.336-.75.75s.336.75.75.75h.75c.329 0 .646.049.944.139.396.12.815-.104.935-.5.12-.397-.104-.815-.5-.936-.437-.132-.901-.203-1.379-.203z" fill="#363545"/><path d="m818.889 248.056c.12-.396-.104-.815-.5-.935-.397-.12-.815.104-.936.5-.132.437-.203.901-.203 1.379v.75c0 .414.336.75.75.75s.75-.336.75-.75v-.75c0-.329.049-.646.139-.944z" fill="#363545"/><path d="m830.547 247.621c-.121-.396-.539-.62-.936-.5-.396.12-.62.539-.5.935.09.298.139.615.139.944v.75c0 .414.336.75.75.75s.75-.336.75-.75v-.75c0-.478-.071-.942-.203-1.379z" fill="#363545"/><path d="m818.75 252.25c0-.414-.336-.75-.75-.75s-.75.336-.75.75v.75c0 .478.071.942.203 1.379.121.396.539.62.936.5.396-.12.62-.539.5-.935-.09-.298-.139-.615-.139-.944z" fill="#363545"/><path d="m830.75 252.25c0-.414-.336-.75-.75-.75s-.75.336-.75.75v.75c0 .329-.049.646-.139.944-.12.396.104.815.5.935.397.12.815-.104.936-.5.132-.437.203-.901.203-1.379z" fill="#363545"/><path d="m821.056 256.111c-.396-.12-.815.104-.935.5-.12.397.104.815.5.936.437.132.901.203 1.379.203h.75c.414 0 .75-.336.75-.75s-.336-.75-.75-.75h-.75c-.329 0-.646-.049-.944-.139z" fill="#363545"/><path d="m827.379 257.547c.396-.121.62-.539.5-.936-.12-.396-.539-.62-.935-.5-.298.09-.615.139-.944.139h-.75c-.414 0-.75.336-.75.75s.336.75.75.75h.75c.478 0 .942-.071 1.379-.203z" fill="#363545"/><path d="m856 30c0-2.2091 1.791-4 4-4h24c2.209 0 4 1.7909 4 4v24c0 2.2091-1.791 4-4 4h-24c-2.209 0-4-1.7909-4-4z" fill="#353a40"/><g clip-path="url(#b)"><path d="m868.711 42.29 2.59-2.59c.39-.39 1.02-.39 1.41 0l2.59 2.59c.63.63.18 1.71-.71 1.71h-5.18c-.89 0-1.33-1.08-.7-1.71z" fill="#fff"/></g><rect fill="#464b52" height="123" rx="4" width="8" x="868" y="62"/><path d="m856 243c0-2.209 1.791-4 4-4h24c2.209 0 4 1.791 4 4v24c0 2.209-1.791 4-4 4h-24c-2.209 0-4-1.791-4-4z" fill="#353a40"/><g clip-path="url(#c)"><path d="m868.711 254.71 2.59 2.59c.39.39 1.02.39 1.41 0l2.59-2.59c.63-.63.18-1.71-.71-1.71h-5.18c-.89 0-1.33 1.08-.7 1.71z" fill="#fff"/></g></g></svg>