<svg width="961" height="260" viewBox="0 0 961 260" fill="none" xmlns="http://www.w3.org/2000/svg">
<rect width="961" height="260" fill="#252A2E"/>
<g clip-path="url(#clip0_431_73342)">
<rect x="330" y="22.5" width="149" height="33" rx="6.5" fill="#353A40"/>
<path d="M398.5 29.75C398.058 29.75 397.638 29.8378 397.256 29.9963C396.874 30.155 396.435 29.9734 396.276 29.5908C396.117 29.2082 396.299 28.7694 396.682 28.6107C397.243 28.378 397.857 28.25 398.5 28.25H400C400.414 28.25 400.75 28.5858 400.75 29C400.75 29.4142 400.414 29.75 400 29.75H398.5Z" fill="white"/>
<path d="M402.25 29C402.25 28.5858 402.586 28.25 403 28.25H406C406.414 28.25 406.75 28.5858 406.75 29C406.75 29.4142 406.414 29.75 406 29.75H403C402.586 29.75 402.25 29.4142 402.25 29Z" fill="white"/>
<path d="M408.25 29C408.25 28.5858 408.586 28.25 409 28.25H410.5C411.143 28.25 411.757 28.378 412.318 28.6107C412.701 28.7694 412.883 29.2082 412.724 29.5908C412.565 29.9734 412.126 30.155 411.744 29.9963C411.362 29.8378 410.942 29.75 410.5 29.75H409C408.586 29.75 408.25 29.4142 408.25 29Z" fill="white"/>
<path d="M395.091 30.7761C395.473 30.9347 395.655 31.3735 395.496 31.7561C395.338 32.1383 395.25 32.5579 395.25 33V34.5C395.25 34.9142 394.914 35.25 394.5 35.25C394.086 35.25 393.75 34.9142 393.75 34.5V33C393.75 32.3573 393.878 31.7427 394.111 31.1816C394.269 30.7989 394.708 30.6174 395.091 30.7761Z" fill="white"/>
<path d="M413.909 30.7761C414.292 30.6174 414.731 30.7989 414.889 31.1816C415.122 31.7427 415.25 32.3573 415.25 33V34.5C415.25 34.9142 414.914 35.25 414.5 35.25C414.086 35.25 413.75 34.9142 413.75 34.5V33C413.75 32.5579 413.662 32.1383 413.504 31.7561C413.345 31.3735 413.527 30.9347 413.909 30.7761Z" fill="white"/>
<path d="M394.5 36.75C394.914 36.75 395.25 37.0858 395.25 37.5V40.5C395.25 40.9142 394.914 41.25 394.5 41.25C394.086 41.25 393.75 40.9142 393.75 40.5V37.5C393.75 37.0858 394.086 36.75 394.5 36.75Z" fill="white"/>
<path d="M414.5 36.75C414.914 36.75 415.25 37.0858 415.25 37.5V40.5C415.25 40.9142 414.914 41.25 414.5 41.25C414.086 41.25 413.75 40.9142 413.75 40.5V37.5C413.75 37.0858 414.086 36.75 414.5 36.75Z" fill="white"/>
<path d="M394.5 42.75C394.914 42.75 395.25 43.0858 395.25 43.5V45C395.25 45.4421 395.338 45.8617 395.496 46.2439C395.655 46.6265 395.473 47.0653 395.091 47.2239C394.708 47.3826 394.269 47.2011 394.111 46.8184C393.878 46.2573 393.75 45.6427 393.75 45V43.5C393.75 43.0858 394.086 42.75 394.5 42.75Z" fill="white"/>
<path d="M414.5 42.75C414.914 42.75 415.25 43.0858 415.25 43.5V45C415.25 45.6427 415.122 46.2573 414.889 46.8184C414.731 47.2011 414.292 47.3826 413.909 47.2239C413.527 47.0653 413.345 46.6265 413.504 46.2439C413.662 45.8617 413.75 45.4421 413.75 45V43.5C413.75 43.0858 414.086 42.75 414.5 42.75Z" fill="white"/>
<path d="M396.276 48.4092C396.435 48.0266 396.874 47.845 397.256 48.0037C397.638 48.1622 398.058 48.25 398.5 48.25H400C400.414 48.25 400.75 48.5858 400.75 49C400.75 49.4142 400.414 49.75 400 49.75H398.5C397.857 49.75 397.243 49.622 396.682 49.3893C396.299 49.2306 396.117 48.7918 396.276 48.4092Z" fill="white"/>
<path d="M412.724 48.4092C412.883 48.7918 412.701 49.2306 412.318 49.3893C411.757 49.622 411.143 49.75 410.5 49.75H409C408.586 49.75 408.25 49.4142 408.25 49C408.25 48.5858 408.586 48.25 409 48.25H410.5C410.942 48.25 411.362 48.1622 411.744 48.0037C412.126 47.845 412.565 48.0266 412.724 48.4092Z" fill="white"/>
<path d="M402.25 49C402.25 48.5858 402.586 48.25 403 48.25H406C406.414 48.25 406.75 48.5858 406.75 49C406.75 49.4142 406.414 49.75 406 49.75H403C402.586 49.75 402.25 49.4142 402.25 49Z" fill="white"/>
<path d="M413.03 31.591C413.323 31.2981 413.323 30.8232 413.03 30.5303C412.737 30.2374 412.263 30.2374 411.97 30.5303L410.973 31.5265C410.681 31.8194 410.681 32.2943 410.973 32.5872C411.266 32.8801 411.741 32.8801 412.034 32.5872L413.03 31.591Z" fill="white"/>
<path d="M410.042 34.5796C410.335 34.2867 410.335 33.8118 410.042 33.519C409.749 33.2261 409.274 33.2261 408.981 33.519L406.989 35.5114C406.696 35.8043 406.696 36.2791 406.989 36.572C407.282 36.8649 407.756 36.8649 408.049 36.572L410.042 34.5796Z" fill="white"/>
<path d="M406.057 38.5645C406.35 38.2716 406.35 37.7967 406.057 37.5038C405.764 37.2109 405.289 37.2109 404.996 37.5038L404.5 38L404.004 37.5038C403.711 37.2109 403.236 37.2109 402.943 37.5038C402.65 37.7967 402.65 38.2716 402.943 38.5645L403.439 39.0607L403.004 39.4962C402.711 39.7891 402.711 40.264 403.004 40.5569C403.297 40.8498 403.772 40.8498 404.064 40.5569L404.5 40.1213L404.936 40.5569C405.228 40.8498 405.703 40.8498 405.996 40.5569C406.289 40.264 406.289 39.7891 405.996 39.4962L405.561 39.0607L406.057 38.5645Z" fill="white"/>
<path d="M402.072 42.5493C402.365 42.2564 402.365 41.7815 402.072 41.4886C401.779 41.1957 401.304 41.1957 401.011 41.4886L399.019 43.481C398.726 43.7739 398.726 44.2488 399.019 44.5417C399.312 44.8346 399.787 44.8346 400.08 44.5417L402.072 42.5493Z" fill="white"/>
<path d="M398.087 46.5341C398.38 46.2412 398.38 45.7664 398.087 45.4735C397.794 45.1806 397.319 45.1806 397.027 45.4735L396.03 46.4697C395.737 46.7626 395.737 47.2374 396.03 47.5303C396.323 47.8232 396.798 47.8232 397.091 47.5303L398.087 46.5341Z" fill="white"/>
<path d="M411.909 47.5303C412.202 47.8232 412.677 47.8232 412.97 47.5303C413.263 47.2374 413.263 46.7626 412.97 46.4697L411.973 45.4735C411.681 45.1806 411.206 45.1806 410.913 45.4735C410.62 45.7664 410.62 46.2412 410.913 46.5341L411.909 47.5303Z" fill="white"/>
<path d="M408.92 44.5417C409.213 44.8346 409.688 44.8346 409.981 44.5417C410.274 44.2488 410.274 43.7739 409.981 43.481L407.989 41.4886C407.696 41.1957 407.221 41.1957 406.928 41.4886C406.635 41.7815 406.635 42.2564 406.928 42.5493L408.92 44.5417Z" fill="white"/>
<path d="M400.951 36.572C401.244 36.8649 401.718 36.8649 402.011 36.572C402.304 36.2791 402.304 35.8043 402.011 35.5114L400.019 33.519C399.726 33.2261 399.251 33.2261 398.958 33.519C398.665 33.8118 398.665 34.2867 398.958 34.5796L400.951 36.572Z" fill="white"/>
<path d="M396.966 32.5872C397.259 32.8801 397.734 32.8801 398.027 32.5872C398.319 32.2943 398.319 31.8194 398.027 31.5265L397.03 30.5303C396.737 30.2374 396.263 30.2374 395.97 30.5303C395.677 30.8232 395.677 31.2981 395.97 31.591L396.966 32.5872Z" fill="white"/>
<path d="M401.556 33.889C401.854 33.7988 402.171 33.75 402.5 33.75H403.25C403.664 33.75 404 33.4142 404 33C404 32.5858 403.664 32.25 403.25 32.25H402.5C402.022 32.25 401.558 32.321 401.121 32.4535C400.725 32.5736 400.501 32.9923 400.621 33.3887C400.741 33.7851 401.16 34.0091 401.556 33.889Z" fill="white"/>
<path d="M405.75 32.25C405.336 32.25 405 32.5858 405 33C405 33.4142 405.336 33.75 405.75 33.75H406.5C406.829 33.75 407.146 33.7988 407.444 33.889C407.84 34.0091 408.259 33.7851 408.379 33.3887C408.499 32.9923 408.275 32.5736 407.879 32.4535C407.442 32.321 406.978 32.25 406.5 32.25H405.75Z" fill="white"/>
<path d="M399.389 36.0559C399.509 35.6595 399.285 35.2408 398.889 35.1207C398.492 35.0006 398.074 35.2246 397.953 35.621C397.821 36.0583 397.75 36.5216 397.75 37V37.75C397.75 38.1642 398.086 38.5 398.5 38.5C398.914 38.5 399.25 38.1642 399.25 37.75V37C399.25 36.6705 399.299 36.3538 399.389 36.0559Z" fill="white"/>
<path d="M411.047 35.621C410.926 35.2246 410.508 35.0006 410.111 35.1207C409.715 35.2408 409.491 35.6595 409.611 36.0559C409.701 36.3538 409.75 36.6705 409.75 37V37.75C409.75 38.1642 410.086 38.5 410.5 38.5C410.914 38.5 411.25 38.1642 411.25 37.75V37C411.25 36.5216 411.179 36.0583 411.047 35.621Z" fill="white"/>
<path d="M399.25 40.25C399.25 39.8358 398.914 39.5 398.5 39.5C398.086 39.5 397.75 39.8358 397.75 40.25V41C397.75 41.4784 397.821 41.9417 397.953 42.379C398.074 42.7754 398.492 42.9994 398.889 42.8793C399.285 42.7592 399.509 42.3405 399.389 41.9441C399.299 41.6462 399.25 41.3295 399.25 41V40.25Z" fill="white"/>
<path d="M411.25 40.25C411.25 39.8358 410.914 39.5 410.5 39.5C410.086 39.5 409.75 39.8358 409.75 40.25V41C409.75 41.3295 409.701 41.6462 409.611 41.9441C409.491 42.3405 409.715 42.7592 410.111 42.8793C410.508 42.9994 410.926 42.7754 411.047 42.379C411.179 41.9417 411.25 41.4784 411.25 41V40.25Z" fill="white"/>
<path d="M401.556 44.111C401.16 43.9909 400.741 44.2149 400.621 44.6113C400.501 45.0077 400.725 45.4264 401.121 45.5465C401.558 45.679 402.022 45.75 402.5 45.75H403.25C403.664 45.75 404 45.4142 404 45C404 44.5858 403.664 44.25 403.25 44.25H402.5C402.171 44.25 401.854 44.2012 401.556 44.111Z" fill="white"/>
<path d="M407.879 45.5465C408.275 45.4264 408.499 45.0077 408.379 44.6113C408.259 44.2149 407.84 43.9909 407.444 44.111C407.146 44.2012 406.829 44.25 406.5 44.25H405.75C405.336 44.25 405 44.5858 405 45C405 45.4142 405.336 45.75 405.75 45.75H406.5C406.978 45.75 407.442 45.679 407.879 45.5465Z" fill="white"/>
<rect x="330" y="22.5" width="149" height="33" rx="6.5" stroke="#353A40"/>
<path d="M550.5 29.75C550.058 29.75 549.638 29.8378 549.256 29.9963C548.874 30.155 548.435 29.9734 548.276 29.5908C548.117 29.2082 548.299 28.7694 548.682 28.6107C549.243 28.378 549.857 28.25 550.5 28.25H552C552.414 28.25 552.75 28.5858 552.75 29C552.75 29.4142 552.414 29.75 552 29.75H550.5Z" fill="white"/>
<path d="M554.25 29C554.25 28.5858 554.586 28.25 555 28.25H558C558.414 28.25 558.75 28.5858 558.75 29C558.75 29.4142 558.414 29.75 558 29.75H555C554.586 29.75 554.25 29.4142 554.25 29Z" fill="white"/>
<path d="M560.25 29C560.25 28.5858 560.586 28.25 561 28.25H562.5C563.143 28.25 563.757 28.378 564.318 28.6107C564.701 28.7694 564.883 29.2082 564.724 29.5908C564.565 29.9734 564.126 30.155 563.744 29.9963C563.362 29.8378 562.942 29.75 562.5 29.75H561C560.586 29.75 560.25 29.4142 560.25 29Z" fill="white"/>
<path d="M547.091 30.7761C547.473 30.9347 547.655 31.3735 547.496 31.7561C547.338 32.1383 547.25 32.5579 547.25 33V34.5C547.25 34.9142 546.914 35.25 546.5 35.25C546.086 35.25 545.75 34.9142 545.75 34.5V33C545.75 32.3573 545.878 31.7427 546.111 31.1816C546.269 30.7989 546.708 30.6174 547.091 30.7761Z" fill="white"/>
<path d="M565.909 30.7761C566.292 30.6174 566.731 30.7989 566.889 31.1816C567.122 31.7427 567.25 32.3573 567.25 33V34.5C567.25 34.9142 566.914 35.25 566.5 35.25C566.086 35.25 565.75 34.9142 565.75 34.5V33C565.75 32.5579 565.662 32.1383 565.504 31.7561C565.345 31.3735 565.527 30.9347 565.909 30.7761Z" fill="white"/>
<path d="M546.5 36.75C546.914 36.75 547.25 37.0858 547.25 37.5V40.5C547.25 40.9142 546.914 41.25 546.5 41.25C546.086 41.25 545.75 40.9142 545.75 40.5V37.5C545.75 37.0858 546.086 36.75 546.5 36.75Z" fill="white"/>
<path d="M566.5 36.75C566.914 36.75 567.25 37.0858 567.25 37.5V40.5C567.25 40.9142 566.914 41.25 566.5 41.25C566.086 41.25 565.75 40.9142 565.75 40.5V37.5C565.75 37.0858 566.086 36.75 566.5 36.75Z" fill="white"/>
<path d="M546.5 42.75C546.914 42.75 547.25 43.0858 547.25 43.5V45C547.25 45.4421 547.338 45.8617 547.496 46.2439C547.655 46.6265 547.473 47.0653 547.091 47.2239C546.708 47.3826 546.269 47.2011 546.111 46.8184C545.878 46.2573 545.75 45.6427 545.75 45V43.5C545.75 43.0858 546.086 42.75 546.5 42.75Z" fill="white"/>
<path d="M566.5 42.75C566.914 42.75 567.25 43.0858 567.25 43.5V45C567.25 45.6427 567.122 46.2573 566.889 46.8184C566.731 47.2011 566.292 47.3826 565.909 47.2239C565.527 47.0653 565.345 46.6265 565.504 46.2439C565.662 45.8617 565.75 45.4421 565.75 45V43.5C565.75 43.0858 566.086 42.75 566.5 42.75Z" fill="white"/>
<path d="M548.276 48.4092C548.435 48.0266 548.874 47.845 549.256 48.0037C549.638 48.1622 550.058 48.25 550.5 48.25H552C552.414 48.25 552.75 48.5858 552.75 49C552.75 49.4142 552.414 49.75 552 49.75H550.5C549.857 49.75 549.243 49.622 548.682 49.3893C548.299 49.2306 548.117 48.7918 548.276 48.4092Z" fill="white"/>
<path d="M564.724 48.4092C564.883 48.7918 564.701 49.2306 564.318 49.3893C563.757 49.622 563.143 49.75 562.5 49.75H561C560.586 49.75 560.25 49.4142 560.25 49C560.25 48.5858 560.586 48.25 561 48.25H562.5C562.942 48.25 563.362 48.1622 563.744 48.0037C564.126 47.845 564.565 48.0266 564.724 48.4092Z" fill="white"/>
<path d="M554.25 49C554.25 48.5858 554.586 48.25 555 48.25H558C558.414 48.25 558.75 48.5858 558.75 49C558.75 49.4142 558.414 49.75 558 49.75H555C554.586 49.75 554.25 49.4142 554.25 49Z" fill="white"/>
<path d="M565.03 31.591C565.323 31.2981 565.323 30.8232 565.03 30.5303C564.737 30.2374 564.263 30.2374 563.97 30.5303L562.973 31.5265C562.681 31.8194 562.681 32.2943 562.973 32.5872C563.266 32.8801 563.741 32.8801 564.034 32.5872L565.03 31.591Z" fill="white"/>
<path d="M562.042 34.5796C562.335 34.2867 562.335 33.8118 562.042 33.519C561.749 33.2261 561.274 33.2261 560.981 33.519L558.989 35.5114C558.696 35.8043 558.696 36.2791 558.989 36.572C559.282 36.8649 559.756 36.8649 560.049 36.572L562.042 34.5796Z" fill="white"/>
<path d="M558.057 38.5645C558.35 38.2716 558.35 37.7967 558.057 37.5038C557.764 37.2109 557.289 37.2109 556.996 37.5038L556.5 38L556.004 37.5038C555.711 37.2109 555.236 37.2109 554.943 37.5038C554.65 37.7967 554.65 38.2716 554.943 38.5645L555.439 39.0607L555.004 39.4962C554.711 39.7891 554.711 40.264 555.004 40.5569C555.297 40.8498 555.772 40.8498 556.064 40.5569L556.5 40.1213L556.936 40.5569C557.228 40.8498 557.703 40.8498 557.996 40.5569C558.289 40.264 558.289 39.7891 557.996 39.4962L557.561 39.0607L558.057 38.5645Z" fill="white"/>
<path d="M554.072 42.5493C554.365 42.2564 554.365 41.7815 554.072 41.4886C553.779 41.1957 553.304 41.1957 553.011 41.4886L551.019 43.481C550.726 43.7739 550.726 44.2488 551.019 44.5417C551.312 44.8346 551.787 44.8346 552.08 44.5417L554.072 42.5493Z" fill="white"/>
<path d="M550.087 46.5341C550.38 46.2412 550.38 45.7664 550.087 45.4735C549.794 45.1806 549.319 45.1806 549.027 45.4735L548.03 46.4697C547.737 46.7626 547.737 47.2374 548.03 47.5303C548.323 47.8232 548.798 47.8232 549.091 47.5303L550.087 46.5341Z" fill="white"/>
<path d="M563.909 47.5303C564.202 47.8232 564.677 47.8232 564.97 47.5303C565.263 47.2374 565.263 46.7626 564.97 46.4697L563.973 45.4735C563.681 45.1806 563.206 45.1806 562.913 45.4735C562.62 45.7664 562.62 46.2412 562.913 46.5341L563.909 47.5303Z" fill="white"/>
<path d="M560.92 44.5417C561.213 44.8346 561.688 44.8346 561.981 44.5417C562.274 44.2488 562.274 43.7739 561.981 43.481L559.989 41.4886C559.696 41.1957 559.221 41.1957 558.928 41.4886C558.635 41.7815 558.635 42.2564 558.928 42.5493L560.92 44.5417Z" fill="white"/>
<path d="M552.951 36.572C553.244 36.8649 553.718 36.8649 554.011 36.572C554.304 36.2791 554.304 35.8043 554.011 35.5114L552.019 33.519C551.726 33.2261 551.251 33.2261 550.958 33.519C550.665 33.8118 550.665 34.2867 550.958 34.5796L552.951 36.572Z" fill="white"/>
<path d="M548.966 32.5872C549.259 32.8801 549.734 32.8801 550.027 32.5872C550.319 32.2943 550.319 31.8194 550.027 31.5265L549.03 30.5303C548.737 30.2374 548.263 30.2374 547.97 30.5303C547.677 30.8232 547.677 31.2981 547.97 31.591L548.966 32.5872Z" fill="white"/>
<path d="M553.556 33.889C553.854 33.7988 554.171 33.75 554.5 33.75H555.25C555.664 33.75 556 33.4142 556 33C556 32.5858 555.664 32.25 555.25 32.25H554.5C554.022 32.25 553.558 32.321 553.121 32.4535C552.725 32.5736 552.501 32.9923 552.621 33.3887C552.741 33.7851 553.16 34.0091 553.556 33.889Z" fill="white"/>
<path d="M557.75 32.25C557.336 32.25 557 32.5858 557 33C557 33.4142 557.336 33.75 557.75 33.75H558.5C558.829 33.75 559.146 33.7988 559.444 33.889C559.84 34.0091 560.259 33.7851 560.379 33.3887C560.499 32.9923 560.275 32.5736 559.879 32.4535C559.442 32.321 558.978 32.25 558.5 32.25H557.75Z" fill="white"/>
<path d="M551.389 36.0559C551.509 35.6595 551.285 35.2408 550.889 35.1207C550.492 35.0006 550.074 35.2246 549.953 35.621C549.821 36.0583 549.75 36.5216 549.75 37V37.75C549.75 38.1642 550.086 38.5 550.5 38.5C550.914 38.5 551.25 38.1642 551.25 37.75V37C551.25 36.6705 551.299 36.3538 551.389 36.0559Z" fill="white"/>
<path d="M563.047 35.621C562.926 35.2246 562.508 35.0006 562.111 35.1207C561.715 35.2408 561.491 35.6595 561.611 36.0559C561.701 36.3538 561.75 36.6705 561.75 37V37.75C561.75 38.1642 562.086 38.5 562.5 38.5C562.914 38.5 563.25 38.1642 563.25 37.75V37C563.25 36.5216 563.179 36.0583 563.047 35.621Z" fill="white"/>
<path d="M551.25 40.25C551.25 39.8358 550.914 39.5 550.5 39.5C550.086 39.5 549.75 39.8358 549.75 40.25V41C549.75 41.4784 549.821 41.9417 549.953 42.379C550.074 42.7754 550.492 42.9994 550.889 42.8793C551.285 42.7592 551.509 42.3405 551.389 41.9441C551.299 41.6462 551.25 41.3295 551.25 41V40.25Z" fill="white"/>
<path d="M563.25 40.25C563.25 39.8358 562.914 39.5 562.5 39.5C562.086 39.5 561.75 39.8358 561.75 40.25V41C561.75 41.3295 561.701 41.6462 561.611 41.9441C561.491 42.3405 561.715 42.7592 562.111 42.8793C562.508 42.9994 562.926 42.7754 563.047 42.379C563.179 41.9417 563.25 41.4784 563.25 41V40.25Z" fill="white"/>
<path d="M553.556 44.111C553.16 43.9909 552.741 44.2149 552.621 44.6113C552.501 45.0077 552.725 45.4264 553.121 45.5465C553.558 45.679 554.022 45.75 554.5 45.75H555.25C555.664 45.75 556 45.4142 556 45C556 44.5858 555.664 44.25 555.25 44.25H554.5C554.171 44.25 553.854 44.2012 553.556 44.111Z" fill="white"/>
<path d="M559.879 45.5465C560.275 45.4264 560.499 45.0077 560.379 44.6113C560.259 44.2149 559.84 43.9909 559.444 44.111C559.146 44.2012 558.829 44.25 558.5 44.25H557.75C557.336 44.25 557 44.5858 557 45C557 45.4142 557.336 45.75 557.75 45.75H558.5C558.978 45.75 559.442 45.679 559.879 45.5465Z" fill="white"/>
</g>
<rect x="330" y="22.5" width="301" height="33" rx="8.5" stroke="#6A6E79"/>
<g clip-path="url(#clip1_431_73342)">
<rect x="329.5" y="64" width="98" height="58" rx="7" fill="#353A40"/>
<path d="M372.911 93.8418C372.911 94.9421 372.771 95.9447 372.491 96.8496C372.217 97.748 371.804 98.5228 371.25 99.1738C370.697 99.8184 370.004 100.316 369.17 100.668C368.337 101.02 367.36 101.195 366.241 101.195C365.101 101.195 364.112 101.02 363.272 100.668C362.439 100.316 361.745 99.8151 361.192 99.1641C360.645 98.513 360.235 97.735 359.961 96.8301C359.688 95.9251 359.551 94.9225 359.551 93.8223C359.551 92.3509 359.792 91.0684 360.274 89.9746C360.762 88.8743 361.501 88.0215 362.491 87.416C363.487 86.804 364.743 86.498 366.26 86.498C367.745 86.498 368.978 86.8008 369.961 87.4062C370.944 88.0117 371.68 88.8646 372.168 89.9648C372.663 91.0586 372.911 92.3509 372.911 93.8418ZM362.012 93.8418C362.012 94.9421 362.162 95.8958 362.461 96.7031C362.761 97.5039 363.22 98.1224 363.838 98.5586C364.463 98.9883 365.264 99.2031 366.241 99.2031C367.224 99.2031 368.024 98.9883 368.643 98.5586C369.261 98.1224 369.717 97.5039 370.01 96.7031C370.303 95.8958 370.45 94.9421 370.45 93.8418C370.45 92.1686 370.114 90.86 369.444 89.916C368.78 88.9655 367.718 88.4902 366.26 88.4902C365.284 88.4902 364.48 88.7051 363.848 89.1348C363.223 89.5645 362.761 90.1797 362.461 90.9805C362.162 91.7747 362.012 92.7285 362.012 93.8418ZM381.527 89.9844C382.745 89.9844 383.692 90.3001 384.369 90.9316C385.053 91.5566 385.395 92.5625 385.395 93.9492V101H383.1V94.3789C383.1 93.5391 382.927 92.9108 382.582 92.4941C382.237 92.071 381.703 91.8594 380.98 91.8594C379.932 91.8594 379.203 92.1816 378.793 92.8262C378.389 93.4707 378.188 94.4049 378.188 95.6289V101H375.893V90.1895H377.68L378.002 91.6543H378.129C378.363 91.2767 378.653 90.9674 378.998 90.7266C379.35 90.4792 379.74 90.2936 380.17 90.1699C380.606 90.0462 381.059 89.9844 381.527 89.9844ZM393.064 89.9844C394.028 89.9844 394.854 90.1829 395.545 90.5801C396.235 90.9772 396.765 91.5404 397.136 92.2695C397.507 92.9987 397.693 93.8711 397.693 94.8867V96.1172H390.476C390.502 97.1654 390.782 97.9727 391.316 98.5391C391.856 99.1055 392.612 99.3887 393.582 99.3887C394.272 99.3887 394.89 99.3236 395.437 99.1934C395.99 99.0566 396.56 98.8581 397.146 98.5977V100.463C396.606 100.717 396.056 100.902 395.496 101.02C394.936 101.137 394.265 101.195 393.484 101.195C392.423 101.195 391.489 100.99 390.681 100.58C389.88 100.163 389.252 99.5449 388.796 98.7246C388.347 97.9043 388.123 96.8854 388.123 95.668C388.123 94.457 388.328 93.4284 388.738 92.582C389.148 91.7357 389.724 91.0911 390.466 90.6484C391.209 90.2057 392.074 89.9844 393.064 89.9844ZM393.064 91.7129C392.341 91.7129 391.755 91.9473 391.306 92.416C390.864 92.8848 390.603 93.5716 390.525 94.4766H395.447C395.44 93.9362 395.349 93.4577 395.173 93.041C395.004 92.6243 394.744 92.2988 394.392 92.0645C394.047 91.8301 393.604 91.7129 393.064 91.7129Z" fill="white"/>
<rect x="329.5" y="64" width="98" height="58" rx="7" stroke="#353A40" stroke-width="2"/>
<path d="M465.264 101H462.911V88.7148H458.731V86.7227H469.434V88.7148H465.264V101ZM480.375 100.99L479.008 95.9609C478.943 95.7135 478.865 95.4141 478.773 95.0625C478.682 94.7109 478.591 94.3496 478.5 93.9785C478.409 93.6009 478.324 93.2526 478.246 92.9336C478.174 92.6146 478.119 92.3672 478.08 92.1914H478.002C477.969 92.3672 477.917 92.6146 477.846 92.9336C477.774 93.2526 477.693 93.6009 477.602 93.9785C477.51 94.3561 477.419 94.724 477.328 95.082C477.243 95.4401 477.165 95.7461 477.094 96L475.658 100.99H473.139L470.111 90.1797H472.436L473.842 95.5508C473.933 95.9154 474.021 96.3092 474.105 96.7324C474.197 97.1556 474.275 97.5592 474.34 97.9434C474.405 98.3275 474.454 98.6432 474.486 98.8906H474.564C474.59 98.7148 474.626 98.4935 474.672 98.2266C474.717 97.9531 474.77 97.6699 474.828 97.377C474.887 97.0775 474.945 96.7975 475.004 96.5371C475.062 96.2702 475.118 96.0553 475.17 95.8926L476.83 90.1797H479.34L480.932 95.8926C481.003 96.14 481.081 96.4525 481.166 96.8301C481.251 97.2012 481.326 97.5755 481.391 97.9531C481.462 98.3242 481.508 98.6335 481.527 98.8809H481.605C481.632 98.6595 481.677 98.36 481.742 97.9824C481.814 97.5983 481.895 97.1914 481.986 96.7617C482.077 96.3255 482.172 95.9219 482.27 95.5508L483.705 90.1797H485.99L482.943 100.99H480.375ZM497.566 95.5703C497.566 96.4688 497.449 97.2663 497.214 97.9629C496.98 98.6595 496.638 99.2487 496.189 99.7305C495.74 100.206 495.199 100.57 494.568 100.824C493.936 101.072 493.224 101.195 492.429 101.195C491.687 101.195 491.007 101.072 490.388 100.824C489.77 100.57 489.233 100.206 488.777 99.7305C488.328 99.2487 487.979 98.6595 487.732 97.9629C487.485 97.2663 487.361 96.4688 487.361 95.5703C487.361 94.3789 487.566 93.3698 487.976 92.543C488.393 91.7096 488.985 91.0749 489.754 90.6387C490.522 90.2025 491.436 89.9844 492.498 89.9844C493.494 89.9844 494.373 90.2025 495.134 90.6387C495.896 91.0749 496.492 91.7096 496.921 92.543C497.351 93.3763 497.566 94.3854 497.566 95.5703ZM489.724 95.5703C489.724 96.3581 489.819 97.0319 490.007 97.5918C490.203 98.1517 490.502 98.5814 490.906 98.8809C491.31 99.1738 491.83 99.3203 492.468 99.3203C493.106 99.3203 493.627 99.1738 494.031 98.8809C494.435 98.5814 494.731 98.1517 494.92 97.5918C495.108 97.0319 495.203 96.3581 495.203 95.5703C495.203 94.7826 495.108 94.1152 494.92 93.5684C494.731 93.015 494.435 92.5951 494.031 92.3086C493.627 92.0156 493.103 91.8691 492.459 91.8691C491.508 91.8691 490.815 92.1882 490.379 92.8262C489.942 93.4642 489.724 94.3789 489.724 95.5703Z" fill="white"/>
<line x1="531" y1="81" x2="531" y2="105" stroke="#6A6E79"/>
<path d="M561.175 101H558.821V88.7148H554.641V86.7227H565.345V88.7148H561.175V101ZM569.743 85.8047V89.623C569.743 90.0202 569.73 90.4076 569.704 90.7852C569.684 91.1628 569.661 91.4557 569.635 91.6641H569.762C569.99 91.2865 570.27 90.9772 570.602 90.7363C570.934 90.4889 571.305 90.3034 571.715 90.1797C572.132 90.056 572.575 89.9941 573.043 89.9941C573.87 89.9941 574.573 90.1341 575.153 90.4141C575.732 90.6875 576.175 91.1139 576.481 91.6934C576.793 92.2728 576.95 93.0247 576.95 93.9492V101H574.655V94.3789C574.655 93.5391 574.482 92.9108 574.137 92.4941C573.792 92.071 573.258 91.8594 572.536 91.8594C571.839 91.8594 571.286 92.0059 570.875 92.2988C570.472 92.5853 570.182 93.0117 570.006 93.5781C569.83 94.138 569.743 94.8216 569.743 95.6289V101H567.448V85.8047H569.743ZM585.791 89.9844C585.973 89.9844 586.172 89.9941 586.387 90.0137C586.602 90.0332 586.787 90.0592 586.943 90.0918L586.729 92.2402C586.592 92.2012 586.423 92.1719 586.221 92.1523C586.025 92.1328 585.85 92.123 585.693 92.123C585.283 92.123 584.893 92.1914 584.521 92.3281C584.15 92.4583 583.822 92.6602 583.535 92.9336C583.249 93.2005 583.024 93.5358 582.861 93.9395C582.699 94.3431 582.617 94.8118 582.617 95.3457V101H580.312V90.1895H582.109L582.422 92.0938H582.529C582.744 91.7096 583.011 91.3581 583.33 91.0391C583.649 90.7201 584.014 90.4661 584.424 90.2773C584.84 90.082 585.296 89.9844 585.791 89.9844ZM593.402 89.9844C594.365 89.9844 595.192 90.1829 595.882 90.5801C596.573 90.9772 597.103 91.5404 597.474 92.2695C597.845 92.9987 598.031 93.8711 598.031 94.8867V96.1172H590.814C590.84 97.1654 591.12 97.9727 591.654 98.5391C592.194 99.1055 592.949 99.3887 593.92 99.3887C594.61 99.3887 595.228 99.3236 595.775 99.1934C596.328 99.0566 596.898 98.8581 597.484 98.5977V100.463C596.944 100.717 596.393 100.902 595.834 101.02C595.274 101.137 594.603 101.195 593.822 101.195C592.761 101.195 591.826 100.99 591.019 100.58C590.218 100.163 589.59 99.5449 589.134 98.7246C588.685 97.9043 588.461 96.8854 588.461 95.668C588.461 94.457 588.666 93.4284 589.076 92.582C589.486 91.7357 590.062 91.0911 590.804 90.6484C591.546 90.2057 592.412 89.9844 593.402 89.9844ZM593.402 91.7129C592.679 91.7129 592.093 91.9473 591.644 92.416C591.201 92.8848 590.941 93.5716 590.863 94.4766H595.785C595.778 93.9362 595.687 93.4577 595.511 93.041C595.342 92.6243 595.082 92.2988 594.73 92.0645C594.385 91.8301 593.942 91.7129 593.402 91.7129ZM605.075 89.9844C606.039 89.9844 606.866 90.1829 607.556 90.5801C608.246 90.9772 608.777 91.5404 609.148 92.2695C609.519 92.9987 609.704 93.8711 609.704 94.8867V96.1172H602.487C602.514 97.1654 602.793 97.9727 603.327 98.5391C603.868 99.1055 604.623 99.3887 605.593 99.3887C606.283 99.3887 606.902 99.3236 607.448 99.1934C608.002 99.0566 608.571 98.8581 609.157 98.5977V100.463C608.617 100.717 608.067 100.902 607.507 101.02C606.947 101.137 606.277 101.195 605.495 101.195C604.434 101.195 603.5 100.99 602.693 100.58C601.892 100.163 601.264 99.5449 600.808 98.7246C600.359 97.9043 600.134 96.8854 600.134 95.668C600.134 94.457 600.339 93.4284 600.749 92.582C601.159 91.7357 601.736 91.0911 602.478 90.6484C603.22 90.2057 604.086 89.9844 605.075 89.9844ZM605.075 91.7129C604.353 91.7129 603.767 91.9473 603.318 92.416C602.875 92.8848 602.614 93.5716 602.536 94.4766H607.458C607.452 93.9362 607.361 93.4577 607.185 93.041C607.015 92.6243 606.755 92.2988 606.404 92.0645C606.058 91.8301 605.616 91.7129 605.075 91.7129Z" fill="white"/>
</g>
<rect x="330" y="64.5" width="301" height="57" rx="8.5" stroke="#6A6E79"/>
<g clip-path="url(#clip2_431_73342)">
<rect x="329.5" y="130" width="72" height="42" rx="21" fill="#019AEB"/>
<path d="M360.898 151.273C360.898 152.154 360.786 152.956 360.562 153.68C360.344 154.398 360.013 155.018 359.57 155.539C359.128 156.055 358.573 156.453 357.906 156.734C357.24 157.016 356.458 157.156 355.562 157.156C354.651 157.156 353.859 157.016 353.188 156.734C352.521 156.453 351.966 156.052 351.523 155.531C351.086 155.01 350.758 154.388 350.539 153.664C350.32 152.94 350.211 152.138 350.211 151.258C350.211 150.081 350.404 149.055 350.789 148.18C351.18 147.299 351.771 146.617 352.562 146.133C353.359 145.643 354.365 145.398 355.578 145.398C356.766 145.398 357.753 145.641 358.539 146.125C359.326 146.609 359.914 147.292 360.305 148.172C360.701 149.047 360.898 150.081 360.898 151.273ZM352.18 151.273C352.18 152.154 352.299 152.917 352.539 153.562C352.779 154.203 353.146 154.698 353.641 155.047C354.141 155.391 354.781 155.562 355.562 155.562C356.349 155.562 356.99 155.391 357.484 155.047C357.979 154.698 358.344 154.203 358.578 153.562C358.812 152.917 358.93 152.154 358.93 151.273C358.93 149.935 358.661 148.888 358.125 148.133C357.594 147.372 356.745 146.992 355.578 146.992C354.797 146.992 354.154 147.164 353.648 147.508C353.148 147.852 352.779 148.344 352.539 148.984C352.299 149.62 352.18 150.383 352.18 151.273ZM367.922 148.188C368.896 148.188 369.654 148.44 370.195 148.945C370.742 149.445 371.016 150.25 371.016 151.359V157H369.18V151.703C369.18 151.031 369.042 150.529 368.766 150.195C368.49 149.857 368.062 149.688 367.484 149.688C366.646 149.688 366.062 149.945 365.734 150.461C365.411 150.977 365.25 151.724 365.25 152.703V157H363.414V148.352H364.844L365.102 149.523H365.203C365.391 149.221 365.622 148.974 365.898 148.781C366.18 148.583 366.492 148.435 366.836 148.336C367.185 148.237 367.547 148.188 367.922 148.188ZM377.281 148.188C378.052 148.188 378.714 148.346 379.266 148.664C379.818 148.982 380.242 149.432 380.539 150.016C380.836 150.599 380.984 151.297 380.984 152.109V153.094H375.211C375.232 153.932 375.456 154.578 375.883 155.031C376.315 155.484 376.919 155.711 377.695 155.711C378.247 155.711 378.742 155.659 379.18 155.555C379.622 155.445 380.078 155.286 380.547 155.078V156.57C380.115 156.773 379.674 156.922 379.227 157.016C378.779 157.109 378.242 157.156 377.617 157.156C376.768 157.156 376.021 156.992 375.375 156.664C374.734 156.331 374.232 155.836 373.867 155.18C373.508 154.523 373.328 153.708 373.328 152.734C373.328 151.766 373.492 150.943 373.82 150.266C374.148 149.589 374.609 149.073 375.203 148.719C375.797 148.365 376.49 148.188 377.281 148.188ZM377.281 149.57C376.703 149.57 376.234 149.758 375.875 150.133C375.521 150.508 375.312 151.057 375.25 151.781H379.188C379.182 151.349 379.109 150.966 378.969 150.633C378.833 150.299 378.625 150.039 378.344 149.852C378.068 149.664 377.714 149.57 377.281 149.57Z" fill="white"/>
<rect x="329.5" y="130" width="72" height="42" rx="21" stroke="#019AEB" stroke-width="2"/>
<path d="M428.781 157H426.898V147.172H423.555V145.578H432.117V147.172H428.781V157ZM441 156.992L439.906 152.969C439.854 152.771 439.792 152.531 439.719 152.25C439.646 151.969 439.573 151.68 439.5 151.383C439.427 151.081 439.359 150.802 439.297 150.547C439.24 150.292 439.195 150.094 439.164 149.953H439.102C439.076 150.094 439.034 150.292 438.977 150.547C438.919 150.802 438.854 151.081 438.781 151.383C438.708 151.685 438.635 151.979 438.562 152.266C438.495 152.552 438.432 152.797 438.375 153L437.227 156.992H435.211L432.789 148.344H434.648L435.773 152.641C435.846 152.932 435.917 153.247 435.984 153.586C436.057 153.924 436.12 154.247 436.172 154.555C436.224 154.862 436.263 155.115 436.289 155.312H436.352C436.372 155.172 436.401 154.995 436.438 154.781C436.474 154.562 436.516 154.336 436.562 154.102C436.609 153.862 436.656 153.638 436.703 153.43C436.75 153.216 436.794 153.044 436.836 152.914L438.164 148.344H440.172L441.445 152.914C441.503 153.112 441.565 153.362 441.633 153.664C441.701 153.961 441.76 154.26 441.812 154.562C441.87 154.859 441.906 155.107 441.922 155.305H441.984C442.005 155.128 442.042 154.888 442.094 154.586C442.151 154.279 442.216 153.953 442.289 153.609C442.362 153.26 442.438 152.938 442.516 152.641L443.664 148.344H445.492L443.055 156.992H441ZM454.883 152.656C454.883 153.375 454.789 154.013 454.602 154.57C454.414 155.128 454.141 155.599 453.781 155.984C453.422 156.365 452.99 156.656 452.484 156.859C451.979 157.057 451.409 157.156 450.773 157.156C450.18 157.156 449.635 157.057 449.141 156.859C448.646 156.656 448.216 156.365 447.852 155.984C447.492 155.599 447.214 155.128 447.016 154.57C446.818 154.013 446.719 153.375 446.719 152.656C446.719 151.703 446.883 150.896 447.211 150.234C447.544 149.568 448.018 149.06 448.633 148.711C449.247 148.362 449.979 148.188 450.828 148.188C451.625 148.188 452.328 148.362 452.938 148.711C453.547 149.06 454.023 149.568 454.367 150.234C454.711 150.901 454.883 151.708 454.883 152.656ZM448.609 152.656C448.609 153.286 448.685 153.826 448.836 154.273C448.992 154.721 449.232 155.065 449.555 155.305C449.878 155.539 450.294 155.656 450.805 155.656C451.315 155.656 451.732 155.539 452.055 155.305C452.378 155.065 452.615 154.721 452.766 154.273C452.917 153.826 452.992 153.286 452.992 152.656C452.992 152.026 452.917 151.492 452.766 151.055C452.615 150.612 452.378 150.276 452.055 150.047C451.732 149.812 451.312 149.695 450.797 149.695C450.036 149.695 449.482 149.951 449.133 150.461C448.784 150.971 448.609 151.703 448.609 152.656Z" fill="white"/>
<line x1="479" y1="139" x2="479" y2="163" stroke="#019AEB"/>
<path d="M500.18 157H498.297V147.172H494.953V145.578H503.516V147.172H500.18V157ZM507.164 144.844V147.898C507.164 148.216 507.154 148.526 507.133 148.828C507.117 149.13 507.099 149.365 507.078 149.531H507.18C507.362 149.229 507.586 148.982 507.852 148.789C508.117 148.591 508.414 148.443 508.742 148.344C509.076 148.245 509.43 148.195 509.805 148.195C510.466 148.195 511.029 148.307 511.492 148.531C511.956 148.75 512.31 149.091 512.555 149.555C512.805 150.018 512.93 150.62 512.93 151.359V157H511.094V151.703C511.094 151.031 510.956 150.529 510.68 150.195C510.404 149.857 509.977 149.688 509.398 149.688C508.841 149.688 508.398 149.805 508.07 150.039C507.747 150.268 507.516 150.609 507.375 151.062C507.234 151.51 507.164 152.057 507.164 152.703V157H505.328V144.844H507.164ZM520.133 148.188C520.279 148.188 520.438 148.195 520.609 148.211C520.781 148.227 520.93 148.247 521.055 148.273L520.883 149.992C520.773 149.961 520.638 149.938 520.477 149.922C520.32 149.906 520.18 149.898 520.055 149.898C519.727 149.898 519.414 149.953 519.117 150.062C518.82 150.167 518.557 150.328 518.328 150.547C518.099 150.76 517.919 151.029 517.789 151.352C517.659 151.674 517.594 152.049 517.594 152.477V157H515.75V148.352H517.188L517.438 149.875H517.523C517.695 149.568 517.909 149.286 518.164 149.031C518.419 148.776 518.711 148.573 519.039 148.422C519.372 148.266 519.737 148.188 520.133 148.188ZM526.352 148.188C527.122 148.188 527.784 148.346 528.336 148.664C528.888 148.982 529.312 149.432 529.609 150.016C529.906 150.599 530.055 151.297 530.055 152.109V153.094H524.281C524.302 153.932 524.526 154.578 524.953 155.031C525.385 155.484 525.99 155.711 526.766 155.711C527.318 155.711 527.812 155.659 528.25 155.555C528.693 155.445 529.148 155.286 529.617 155.078V156.57C529.185 156.773 528.745 156.922 528.297 157.016C527.849 157.109 527.312 157.156 526.688 157.156C525.839 157.156 525.091 156.992 524.445 156.664C523.805 156.331 523.302 155.836 522.938 155.18C522.578 154.523 522.398 153.708 522.398 152.734C522.398 151.766 522.562 150.943 522.891 150.266C523.219 149.589 523.68 149.073 524.273 148.719C524.867 148.365 525.56 148.188 526.352 148.188ZM526.352 149.57C525.773 149.57 525.305 149.758 524.945 150.133C524.591 150.508 524.383 151.057 524.32 151.781H528.258C528.253 151.349 528.18 150.966 528.039 150.633C527.904 150.299 527.695 150.039 527.414 149.852C527.138 149.664 526.784 149.57 526.352 149.57ZM535.82 148.188C536.591 148.188 537.253 148.346 537.805 148.664C538.357 148.982 538.781 149.432 539.078 150.016C539.375 150.599 539.523 151.297 539.523 152.109V153.094H533.75C533.771 153.932 533.995 154.578 534.422 155.031C534.854 155.484 535.458 155.711 536.234 155.711C536.786 155.711 537.281 155.659 537.719 155.555C538.161 155.445 538.617 155.286 539.086 155.078V156.57C538.654 156.773 538.214 156.922 537.766 157.016C537.318 157.109 536.781 157.156 536.156 157.156C535.307 157.156 534.56 156.992 533.914 156.664C533.273 156.331 532.771 155.836 532.406 155.18C532.047 154.523 531.867 153.708 531.867 152.734C531.867 151.766 532.031 150.943 532.359 150.266C532.688 149.589 533.148 149.073 533.742 148.719C534.336 148.365 535.029 148.188 535.82 148.188ZM535.82 149.57C535.242 149.57 534.773 149.758 534.414 150.133C534.06 150.508 533.852 151.057 533.789 151.781H537.727C537.721 151.349 537.648 150.966 537.508 150.633C537.372 150.299 537.164 150.039 536.883 149.852C536.607 149.664 536.253 149.57 535.82 149.57Z" fill="white"/>
<line x1="557" y1="139" x2="557" y2="163" stroke="#019AEB"/>
<path d="M580.797 157H578.938V145.578H585.391V147.156H580.797V150.719H585.094V152.289H580.797V157ZM595.188 152.656C595.188 153.375 595.094 154.013 594.906 154.57C594.719 155.128 594.445 155.599 594.086 155.984C593.727 156.365 593.294 156.656 592.789 156.859C592.284 157.057 591.714 157.156 591.078 157.156C590.484 157.156 589.94 157.057 589.445 156.859C588.951 156.656 588.521 156.365 588.156 155.984C587.797 155.599 587.518 155.128 587.32 154.57C587.122 154.013 587.023 153.375 587.023 152.656C587.023 151.703 587.188 150.896 587.516 150.234C587.849 149.568 588.323 149.06 588.938 148.711C589.552 148.362 590.284 148.188 591.133 148.188C591.93 148.188 592.633 148.362 593.242 148.711C593.852 149.06 594.328 149.568 594.672 150.234C595.016 150.901 595.188 151.708 595.188 152.656ZM588.914 152.656C588.914 153.286 588.99 153.826 589.141 154.273C589.297 154.721 589.536 155.065 589.859 155.305C590.182 155.539 590.599 155.656 591.109 155.656C591.62 155.656 592.036 155.539 592.359 155.305C592.682 155.065 592.919 154.721 593.07 154.273C593.221 153.826 593.297 153.286 593.297 152.656C593.297 152.026 593.221 151.492 593.07 151.055C592.919 150.612 592.682 150.276 592.359 150.047C592.036 149.812 591.617 149.695 591.102 149.695C590.341 149.695 589.786 149.951 589.438 150.461C589.089 150.971 588.914 151.703 588.914 152.656ZM605.086 148.352V157H603.641L603.391 155.836H603.289C603.107 156.133 602.875 156.38 602.594 156.578C602.312 156.771 602 156.914 601.656 157.008C601.312 157.107 600.951 157.156 600.57 157.156C599.919 157.156 599.362 157.047 598.898 156.828C598.44 156.604 598.089 156.26 597.844 155.797C597.599 155.333 597.477 154.734 597.477 154V148.352H599.32V153.656C599.32 154.328 599.456 154.831 599.727 155.164C600.003 155.497 600.43 155.664 601.008 155.664C601.565 155.664 602.008 155.549 602.336 155.32C602.664 155.091 602.896 154.753 603.031 154.305C603.172 153.857 603.242 153.307 603.242 152.656V148.352H605.086ZM612.352 148.188C612.497 148.188 612.656 148.195 612.828 148.211C613 148.227 613.148 148.247 613.273 148.273L613.102 149.992C612.992 149.961 612.857 149.938 612.695 149.922C612.539 149.906 612.398 149.898 612.273 149.898C611.945 149.898 611.633 149.953 611.336 150.062C611.039 150.167 610.776 150.328 610.547 150.547C610.318 150.76 610.138 151.029 610.008 151.352C609.878 151.674 609.812 152.049 609.812 152.477V157H607.969V148.352H609.406L609.656 149.875H609.742C609.914 149.568 610.128 149.286 610.383 149.031C610.638 148.776 610.93 148.573 611.258 148.422C611.591 148.266 611.956 148.188 612.352 148.188Z" fill="white"/>
</g>
<rect x="330" y="130.5" width="301" height="41" rx="20.5" stroke="#019AEB"/>
<g clip-path="url(#clip3_431_73342)">
<rect x="330" y="180.5" width="55.4" height="57" rx="4.5" fill="#019AEB"/>
<path d="M349.699 196.667C349.109 196.667 348.55 196.784 348.04 196.995C347.53 197.207 346.945 196.965 346.733 196.454C346.522 195.944 346.764 195.359 347.274 195.148C348.022 194.837 348.842 194.667 349.699 194.667H351.699C352.251 194.667 352.699 195.114 352.699 195.667C352.699 196.219 352.251 196.667 351.699 196.667H349.699Z" fill="white"/>
<path d="M354.699 195.667C354.699 195.114 355.146 194.667 355.699 194.667H359.699C360.251 194.667 360.699 195.114 360.699 195.667C360.699 196.219 360.251 196.667 359.699 196.667H355.699C355.146 196.667 354.699 196.219 354.699 195.667Z" fill="white"/>
<path d="M362.699 195.667C362.699 195.114 363.146 194.667 363.699 194.667H365.699C366.555 194.667 367.375 194.837 368.123 195.148C368.633 195.359 368.875 195.944 368.664 196.454C368.452 196.965 367.867 197.207 367.357 196.995C366.848 196.784 366.288 196.667 365.699 196.667H363.699C363.146 196.667 362.699 196.219 362.699 195.667Z" fill="white"/>
<path d="M345.153 198.035C345.663 198.246 345.905 198.831 345.694 199.341C345.482 199.851 345.365 200.411 345.365 201V203C345.365 203.552 344.918 204 344.365 204C343.813 204 343.365 203.552 343.365 203V201C343.365 200.143 343.536 199.324 343.846 198.575C344.058 198.065 344.643 197.823 345.153 198.035Z" fill="white"/>
<path d="M370.244 198.035C370.754 197.823 371.339 198.065 371.551 198.575C371.861 199.324 372.032 200.143 372.032 201V203C372.032 203.552 371.584 204 371.032 204C370.48 204 370.032 203.552 370.032 203V201C370.032 200.411 369.915 199.851 369.703 199.341C369.492 198.831 369.734 198.246 370.244 198.035Z" fill="white"/>
<path d="M344.365 206C344.918 206 345.365 206.448 345.365 207V211C345.365 211.552 344.918 212 344.365 212C343.813 212 343.365 211.552 343.365 211V207C343.365 206.448 343.813 206 344.365 206Z" fill="white"/>
<path d="M371.032 206C371.584 206 372.032 206.448 372.032 207V211C372.032 211.552 371.584 212 371.032 212C370.48 212 370.032 211.552 370.032 211V207C370.032 206.448 370.48 206 371.032 206Z" fill="white"/>
<path d="M344.365 214C344.918 214 345.365 214.448 345.365 215V217C345.365 217.589 345.482 218.149 345.694 218.658C345.905 219.169 345.663 219.754 345.153 219.965C344.643 220.177 344.058 219.935 343.846 219.425C343.536 218.676 343.365 217.857 343.365 217V215C343.365 214.448 343.813 214 344.365 214Z" fill="white"/>
<path d="M371.032 214C371.584 214 372.032 214.448 372.032 215V217C372.032 217.857 371.861 218.676 371.551 219.425C371.339 219.935 370.754 220.177 370.244 219.965C369.734 219.754 369.492 219.169 369.703 218.658C369.915 218.149 370.032 217.589 370.032 217V215C370.032 214.448 370.48 214 371.032 214Z" fill="white"/>
<path d="M346.733 221.546C346.945 221.035 347.53 220.793 348.04 221.005C348.55 221.216 349.109 221.333 349.699 221.333H351.699C352.251 221.333 352.699 221.781 352.699 222.333C352.699 222.886 352.251 223.333 351.699 223.333H349.699C348.842 223.333 348.022 223.163 347.274 222.852C346.764 222.641 346.522 222.056 346.733 221.546Z" fill="white"/>
<path d="M368.664 221.546C368.875 222.056 368.633 222.641 368.123 222.852C367.375 223.163 366.555 223.333 365.699 223.333H363.699C363.146 223.333 362.699 222.886 362.699 222.333C362.699 221.781 363.146 221.333 363.699 221.333H365.699C366.288 221.333 366.848 221.216 367.357 221.005C367.867 220.793 368.452 221.035 368.664 221.546Z" fill="white"/>
<path d="M354.699 222.333C354.699 221.781 355.146 221.333 355.699 221.333H359.699C360.251 221.333 360.699 221.781 360.699 222.333C360.699 222.886 360.251 223.333 359.699 223.333H355.699C355.146 223.333 354.699 222.886 354.699 222.333Z" fill="white"/>
<path d="M369.072 199.121C369.463 198.731 369.463 198.098 369.072 197.707C368.682 197.317 368.049 197.317 367.658 197.707L366.33 199.035C365.939 199.426 365.939 200.059 366.33 200.45C366.72 200.84 367.354 200.84 367.744 200.45L369.072 199.121Z" fill="white"/>
<path d="M365.088 203.106C365.478 202.716 365.478 202.082 365.088 201.692C364.697 201.301 364.064 201.301 363.673 201.692L361.017 204.348C360.626 204.739 360.626 205.372 361.017 205.763C361.407 206.153 362.04 206.153 362.431 205.763L365.088 203.106Z" fill="white"/>
<path d="M359.774 208.419C360.165 208.029 360.165 207.396 359.774 207.005C359.384 206.614 358.751 206.614 358.36 207.005L357.699 207.667L357.037 207.005C356.646 206.614 356.013 206.614 355.623 207.005C355.232 207.396 355.232 208.029 355.623 208.419L356.284 209.081L355.704 209.662C355.313 210.052 355.313 210.685 355.704 211.076C356.094 211.466 356.727 211.466 357.118 211.076L357.699 210.495L358.279 211.076C358.67 211.466 359.303 211.466 359.694 211.076C360.084 210.685 360.084 210.052 359.694 209.662L359.113 209.081L359.774 208.419Z" fill="white"/>
<path d="M354.461 213.732C354.852 213.342 354.852 212.709 354.461 212.318C354.071 211.928 353.438 211.928 353.047 212.318L350.391 214.975C350 215.365 350 215.998 350.391 216.389C350.781 216.779 351.414 216.779 351.805 216.389L354.461 213.732Z" fill="white"/>
<path d="M349.148 219.045C349.539 218.655 349.539 218.022 349.148 217.631C348.758 217.241 348.124 217.241 347.734 217.631L346.406 218.96C346.015 219.35 346.015 219.983 346.406 220.374C346.796 220.764 347.429 220.764 347.82 220.374L349.148 219.045Z" fill="white"/>
<path d="M367.577 220.374C367.968 220.764 368.601 220.764 368.991 220.374C369.382 219.983 369.382 219.35 368.991 218.96L367.663 217.631C367.273 217.241 366.639 217.241 366.249 217.631C365.858 218.022 365.858 218.655 366.249 219.045L367.577 220.374Z" fill="white"/>
<path d="M363.592 216.389C363.983 216.779 364.616 216.779 365.007 216.389C365.397 215.998 365.397 215.365 365.007 214.975L362.35 212.318C361.96 211.928 361.326 211.928 360.936 212.318C360.545 212.709 360.545 213.342 360.936 213.732L363.592 216.389Z" fill="white"/>
<path d="M352.966 205.763C353.357 206.153 353.99 206.153 354.38 205.763C354.771 205.372 354.771 204.739 354.38 204.348L351.724 201.692C351.333 201.301 350.7 201.301 350.31 201.692C349.919 202.082 349.919 202.716 350.31 203.106L352.966 205.763Z" fill="white"/>
<path d="M347.653 200.45C348.044 200.84 348.677 200.84 349.067 200.45C349.458 200.059 349.458 199.426 349.067 199.035L347.739 197.707C347.348 197.317 346.715 197.317 346.325 197.707C345.934 198.098 345.934 198.731 346.325 199.121L347.653 200.45Z" fill="white"/>
<path d="M353.773 202.185C354.17 202.065 354.593 202 355.032 202H356.032C356.584 202 357.032 201.552 357.032 201C357.032 200.448 356.584 200 356.032 200H355.032C354.394 200 353.776 200.095 353.193 200.271C352.665 200.431 352.366 200.99 352.526 201.518C352.686 202.047 353.245 202.345 353.773 202.185Z" fill="white"/>
<path d="M359.365 200C358.813 200 358.365 200.448 358.365 201C358.365 201.552 358.813 202 359.365 202H360.365C360.805 202 361.227 202.065 361.624 202.185C362.153 202.345 362.711 202.047 362.871 201.518C363.031 200.99 362.732 200.431 362.204 200.271C361.621 200.095 361.003 200 360.365 200H359.365Z" fill="white"/>
<path d="M350.884 205.075C351.044 204.546 350.745 203.988 350.217 203.828C349.688 203.667 349.13 203.966 348.97 204.495C348.793 205.078 348.699 205.695 348.699 206.333V207.333C348.699 207.886 349.146 208.333 349.699 208.333C350.251 208.333 350.699 207.886 350.699 207.333V206.333C350.699 205.894 350.764 205.472 350.884 205.075Z" fill="white"/>
<path d="M366.427 204.495C366.267 203.966 365.709 203.667 365.18 203.828C364.652 203.988 364.353 204.546 364.513 205.075C364.634 205.472 364.699 205.894 364.699 206.333V207.333C364.699 207.886 365.146 208.333 365.699 208.333C366.251 208.333 366.699 207.886 366.699 207.333V206.333C366.699 205.695 366.604 205.078 366.427 204.495Z" fill="white"/>
<path d="M350.699 210.667C350.699 210.114 350.251 209.667 349.699 209.667C349.146 209.667 348.699 210.114 348.699 210.667V211.667C348.699 212.305 348.793 212.922 348.97 213.505C349.13 214.034 349.688 214.333 350.217 214.172C350.745 214.012 351.044 213.454 350.884 212.925C350.764 212.528 350.699 212.106 350.699 211.667V210.667Z" fill="white"/>
<path d="M366.699 210.667C366.699 210.114 366.251 209.667 365.699 209.667C365.146 209.667 364.699 210.114 364.699 210.667V211.667C364.699 212.106 364.634 212.528 364.513 212.925C364.353 213.454 364.652 214.012 365.18 214.172C365.709 214.333 366.267 214.034 366.427 213.505C366.604 212.922 366.699 212.305 366.699 211.667V210.667Z" fill="white"/>
<path d="M353.773 215.815C353.245 215.654 352.686 215.953 352.526 216.482C352.366 217.01 352.665 217.569 353.193 217.729C353.776 217.905 354.394 218 355.032 218H356.032C356.584 218 357.032 217.552 357.032 217C357.032 216.448 356.584 216 356.032 216H355.032C354.593 216 354.17 215.935 353.773 215.815Z" fill="white"/>
<path d="M362.204 217.729C362.732 217.569 363.031 217.01 362.871 216.482C362.711 215.953 362.153 215.654 361.624 215.815C361.227 215.935 360.805 216 360.365 216H359.365C358.813 216 358.365 216.448 358.365 217C358.365 217.552 358.813 218 359.365 218H360.365C361.003 218 361.621 217.905 362.204 217.729Z" fill="white"/>
<rect x="330" y="180.5" width="55.4" height="57" rx="4.5" stroke="#019AEB"/>
<path d="M408.099 196.667C407.51 196.667 406.95 196.784 406.44 196.995C405.93 197.207 405.345 196.965 405.134 196.454C404.922 195.944 405.164 195.359 405.674 195.148C406.423 194.837 407.242 194.667 408.099 194.667H410.099C410.651 194.667 411.099 195.114 411.099 195.667C411.099 196.219 410.651 196.667 410.099 196.667H408.099Z" fill="white"/>
<path d="M413.099 195.667C413.099 195.114 413.547 194.667 414.099 194.667H418.099C418.651 194.667 419.099 195.114 419.099 195.667C419.099 196.219 418.651 196.667 418.099 196.667H414.099C413.547 196.667 413.099 196.219 413.099 195.667Z" fill="white"/>
<path d="M421.099 195.667C421.099 195.114 421.547 194.667 422.099 194.667H424.099C424.956 194.667 425.775 194.837 426.524 195.148C427.034 195.359 427.276 195.944 427.064 196.454C426.853 196.965 426.268 197.207 425.757 196.995C425.248 196.784 424.688 196.667 424.099 196.667H422.099C421.547 196.667 421.099 196.219 421.099 195.667Z" fill="white"/>
<path d="M403.553 198.035C404.064 198.246 404.306 198.831 404.094 199.341C403.883 199.851 403.766 200.411 403.766 201V203C403.766 203.552 403.318 204 402.766 204C402.213 204 401.766 203.552 401.766 203V201C401.766 200.143 401.936 199.324 402.247 198.575C402.458 198.065 403.043 197.823 403.553 198.035Z" fill="white"/>
<path d="M428.645 198.035C429.155 197.823 429.74 198.065 429.951 198.575C430.262 199.324 430.432 200.143 430.432 201V203C430.432 203.552 429.985 204 429.432 204C428.88 204 428.432 203.552 428.432 203V201C428.432 200.411 428.315 199.851 428.104 199.341C427.892 198.831 428.134 198.246 428.645 198.035Z" fill="white"/>
<path d="M402.766 206C403.318 206 403.766 206.448 403.766 207V211C403.766 211.552 403.318 212 402.766 212C402.213 212 401.766 211.552 401.766 211V207C401.766 206.448 402.213 206 402.766 206Z" fill="white"/>
<path d="M429.432 206C429.985 206 430.432 206.448 430.432 207V211C430.432 211.552 429.985 212 429.432 212C428.88 212 428.432 211.552 428.432 211V207C428.432 206.448 428.88 206 429.432 206Z" fill="white"/>
<path d="M402.766 214C403.318 214 403.766 214.448 403.766 215V217C403.766 217.589 403.883 218.149 404.094 218.658C404.306 219.169 404.064 219.754 403.553 219.965C403.043 220.177 402.458 219.935 402.247 219.425C401.936 218.676 401.766 217.857 401.766 217V215C401.766 214.448 402.213 214 402.766 214Z" fill="white"/>
<path d="M429.432 214C429.985 214 430.432 214.448 430.432 215V217C430.432 217.857 430.262 218.676 429.951 219.425C429.74 219.935 429.155 220.177 428.645 219.965C428.134 219.754 427.892 219.169 428.104 218.658C428.315 218.149 428.432 217.589 428.432 217V215C428.432 214.448 428.88 214 429.432 214Z" fill="white"/>
<path d="M405.134 221.546C405.345 221.035 405.93 220.793 406.44 221.005C406.95 221.216 407.51 221.333 408.099 221.333H410.099C410.651 221.333 411.099 221.781 411.099 222.333C411.099 222.886 410.651 223.333 410.099 223.333H408.099C407.242 223.333 406.423 223.163 405.674 222.852C405.164 222.641 404.922 222.056 405.134 221.546Z" fill="white"/>
<path d="M427.064 221.546C427.276 222.056 427.034 222.641 426.524 222.852C425.775 223.163 424.956 223.333 424.099 223.333H422.099C421.547 223.333 421.099 222.886 421.099 222.333C421.099 221.781 421.547 221.333 422.099 221.333H424.099C424.688 221.333 425.248 221.216 425.757 221.005C426.268 220.793 426.853 221.035 427.064 221.546Z" fill="white"/>
<path d="M413.099 222.333C413.099 221.781 413.547 221.333 414.099 221.333H418.099C418.651 221.333 419.099 221.781 419.099 222.333C419.099 222.886 418.651 223.333 418.099 223.333H414.099C413.547 223.333 413.099 222.886 413.099 222.333Z" fill="white"/>
<path d="M427.473 199.121C427.863 198.731 427.863 198.098 427.473 197.707C427.082 197.317 426.449 197.317 426.059 197.707L424.73 199.035C424.34 199.426 424.34 200.059 424.73 200.45C425.121 200.84 425.754 200.84 426.144 200.45L427.473 199.121Z" fill="white"/>
<path d="M423.488 203.106C423.878 202.716 423.878 202.082 423.488 201.692C423.097 201.301 422.464 201.301 422.074 201.692L419.417 204.348C419.027 204.739 419.027 205.372 419.417 205.763C419.808 206.153 420.441 206.153 420.831 205.763L423.488 203.106Z" fill="white"/>
<path d="M418.175 208.419C418.565 208.029 418.565 207.396 418.175 207.005C417.784 206.614 417.151 206.614 416.761 207.005L416.099 207.667L415.437 207.005C415.047 206.614 414.414 206.614 414.023 207.005C413.633 207.396 413.633 208.029 414.023 208.419L414.685 209.081L414.104 209.662C413.713 210.052 413.713 210.685 414.104 211.076C414.495 211.466 415.128 211.466 415.518 211.076L416.099 210.495L416.68 211.076C417.07 211.466 417.703 211.466 418.094 211.076C418.484 210.685 418.484 210.052 418.094 209.662L417.513 209.081L418.175 208.419Z" fill="white"/>
<path d="M412.862 213.732C413.252 213.342 413.252 212.709 412.862 212.318C412.471 211.928 411.838 211.928 411.447 212.318L408.791 214.975C408.4 215.365 408.4 215.998 408.791 216.389C409.181 216.779 409.815 216.779 410.205 216.389L412.862 213.732Z" fill="white"/>
<path d="M407.549 219.045C407.939 218.655 407.939 218.022 407.549 217.631C407.158 217.241 406.525 217.241 406.134 217.631L404.806 218.96C404.416 219.35 404.416 219.983 404.806 220.374C405.197 220.764 405.83 220.764 406.22 220.374L407.549 219.045Z" fill="white"/>
<path d="M425.978 220.374C426.368 220.764 427.001 220.764 427.392 220.374C427.782 219.983 427.782 219.35 427.392 218.96L426.064 217.631C425.673 217.241 425.04 217.241 424.649 217.631C424.259 218.022 424.259 218.655 424.649 219.045L425.978 220.374Z" fill="white"/>
<path d="M421.993 216.389C422.383 216.779 423.016 216.779 423.407 216.389C423.798 215.998 423.798 215.365 423.407 214.975L420.75 212.318C420.36 211.928 419.727 211.928 419.336 212.318C418.946 212.709 418.946 213.342 419.336 213.732L421.993 216.389Z" fill="white"/>
<path d="M411.367 205.763C411.757 206.153 412.39 206.153 412.781 205.763C413.171 205.372 413.171 204.739 412.781 204.348L410.124 201.692C409.734 201.301 409.101 201.301 408.71 201.692C408.319 202.082 408.319 202.716 408.71 203.106L411.367 205.763Z" fill="white"/>
<path d="M406.053 200.45C406.444 200.84 407.077 200.84 407.468 200.45C407.858 200.059 407.858 199.426 407.468 199.035L406.139 197.707C405.749 197.317 405.116 197.317 404.725 197.707C404.335 198.098 404.335 198.731 404.725 199.121L406.053 200.45Z" fill="white"/>
<path d="M412.174 202.185C412.571 202.065 412.993 202 413.432 202H414.432C414.985 202 415.432 201.552 415.432 201C415.432 200.448 414.985 200 414.432 200H413.432C412.794 200 412.177 200.095 411.594 200.271C411.065 200.431 410.766 200.99 410.927 201.518C411.087 202.047 411.645 202.345 412.174 202.185Z" fill="white"/>
<path d="M417.766 200C417.213 200 416.766 200.448 416.766 201C416.766 201.552 417.213 202 417.766 202H418.766C419.205 202 419.627 202.065 420.024 202.185C420.553 202.345 421.111 202.047 421.271 201.518C421.432 200.99 421.133 200.431 420.604 200.271C420.021 200.095 419.404 200 418.766 200H417.766Z" fill="white"/>
<path d="M409.284 205.075C409.444 204.546 409.146 203.988 408.617 203.828C408.089 203.667 407.53 203.966 407.37 204.495C407.194 205.078 407.099 205.695 407.099 206.333V207.333C407.099 207.886 407.547 208.333 408.099 208.333C408.651 208.333 409.099 207.886 409.099 207.333V206.333C409.099 205.894 409.164 205.472 409.284 205.075Z" fill="white"/>
<path d="M424.828 204.495C424.668 203.966 424.109 203.667 423.581 203.828C423.052 203.988 422.753 204.546 422.914 205.075C423.034 205.472 423.099 205.894 423.099 206.333V207.333C423.099 207.886 423.547 208.333 424.099 208.333C424.651 208.333 425.099 207.886 425.099 207.333V206.333C425.099 205.695 425.004 205.078 424.828 204.495Z" fill="white"/>
<path d="M409.099 210.667C409.099 210.114 408.651 209.667 408.099 209.667C407.547 209.667 407.099 210.114 407.099 210.667V211.667C407.099 212.305 407.194 212.922 407.37 213.505C407.53 214.034 408.089 214.333 408.617 214.172C409.146 214.012 409.444 213.454 409.284 212.925C409.164 212.528 409.099 212.106 409.099 211.667V210.667Z" fill="white"/>
<path d="M425.099 210.667C425.099 210.114 424.651 209.667 424.099 209.667C423.547 209.667 423.099 210.114 423.099 210.667V211.667C423.099 212.106 423.034 212.528 422.914 212.925C422.753 213.454 423.052 214.012 423.581 214.172C424.109 214.333 424.668 214.034 424.828 213.505C425.004 212.922 425.099 212.305 425.099 211.667V210.667Z" fill="white"/>
<path d="M412.174 215.815C411.645 215.654 411.087 215.953 410.927 216.482C410.766 217.01 411.065 217.569 411.594 217.729C412.177 217.905 412.794 218 413.432 218H414.432C414.985 218 415.432 217.552 415.432 217C415.432 216.448 414.985 216 414.432 216H413.432C412.993 216 412.571 215.935 412.174 215.815Z" fill="white"/>
<path d="M420.604 217.729C421.133 217.569 421.432 217.01 421.271 216.482C421.111 215.953 420.553 215.654 420.024 215.815C419.627 215.935 419.205 216 418.766 216H417.766C417.213 216 416.766 216.448 416.766 217C416.766 217.552 417.213 218 417.766 218H418.766C419.404 218 420.021 217.905 420.604 217.729Z" fill="white"/>
<line x1="447.801" y1="197" x2="447.801" y2="221" stroke="#019AEB"/>
<path d="M470.499 196.667C469.91 196.667 469.35 196.784 468.841 196.995C468.331 197.207 467.746 196.965 467.534 196.454C467.323 195.944 467.565 195.359 468.075 195.148C468.823 194.837 469.642 194.667 470.499 194.667H472.499C473.052 194.667 473.499 195.114 473.499 195.667C473.499 196.219 473.052 196.667 472.499 196.667H470.499Z" fill="white"/>
<path d="M475.499 195.667C475.499 195.114 475.947 194.667 476.499 194.667H480.499C481.052 194.667 481.499 195.114 481.499 195.667C481.499 196.219 481.052 196.667 480.499 196.667H476.499C475.947 196.667 475.499 196.219 475.499 195.667Z" fill="white"/>
<path d="M483.499 195.667C483.499 195.114 483.947 194.667 484.499 194.667H486.499C487.356 194.667 488.176 194.837 488.924 195.148C489.434 195.359 489.676 195.944 489.465 196.454C489.253 196.965 488.668 197.207 488.158 196.995C487.648 196.784 487.089 196.667 486.499 196.667H484.499C483.947 196.667 483.499 196.219 483.499 195.667Z" fill="white"/>
<path d="M465.954 198.035C466.464 198.246 466.706 198.831 466.494 199.341C466.283 199.851 466.166 200.411 466.166 201V203C466.166 203.552 465.718 204 465.166 204C464.614 204 464.166 203.552 464.166 203V201C464.166 200.143 464.337 199.324 464.647 198.575C464.859 198.065 465.444 197.823 465.954 198.035Z" fill="white"/>
<path d="M491.045 198.035C491.555 197.823 492.14 198.065 492.352 198.575C492.662 199.324 492.833 200.143 492.833 201V203C492.833 203.552 492.385 204 491.833 204C491.28 204 490.833 203.552 490.833 203V201C490.833 200.411 490.716 199.851 490.504 199.341C490.293 198.831 490.535 198.246 491.045 198.035Z" fill="white"/>
<path d="M465.166 206C465.718 206 466.166 206.448 466.166 207V211C466.166 211.552 465.718 212 465.166 212C464.614 212 464.166 211.552 464.166 211V207C464.166 206.448 464.614 206 465.166 206Z" fill="white"/>
<path d="M491.833 206C492.385 206 492.833 206.448 492.833 207V211C492.833 211.552 492.385 212 491.833 212C491.28 212 490.833 211.552 490.833 211V207C490.833 206.448 491.28 206 491.833 206Z" fill="white"/>
<path d="M465.166 214C465.718 214 466.166 214.448 466.166 215V217C466.166 217.589 466.283 218.149 466.494 218.658C466.706 219.169 466.464 219.754 465.954 219.965C465.444 220.177 464.859 219.935 464.647 219.425C464.337 218.676 464.166 217.857 464.166 217V215C464.166 214.448 464.614 214 465.166 214Z" fill="white"/>
<path d="M491.833 214C492.385 214 492.833 214.448 492.833 215V217C492.833 217.857 492.662 218.676 492.352 219.425C492.14 219.935 491.555 220.177 491.045 219.965C490.535 219.754 490.293 219.169 490.504 218.658C490.716 218.149 490.833 217.589 490.833 217V215C490.833 214.448 491.28 214 491.833 214Z" fill="white"/>
<path d="M467.534 221.546C467.746 221.035 468.331 220.793 468.841 221.005C469.35 221.216 469.91 221.333 470.499 221.333H472.499C473.052 221.333 473.499 221.781 473.499 222.333C473.499 222.886 473.052 223.333 472.499 223.333H470.499C469.642 223.333 468.823 223.163 468.075 222.852C467.565 222.641 467.323 222.056 467.534 221.546Z" fill="white"/>
<path d="M489.465 221.546C489.676 222.056 489.434 222.641 488.924 222.852C488.176 223.163 487.356 223.333 486.499 223.333H484.499C483.947 223.333 483.499 222.886 483.499 222.333C483.499 221.781 483.947 221.333 484.499 221.333H486.499C487.089 221.333 487.648 221.216 488.158 221.005C488.668 220.793 489.253 221.035 489.465 221.546Z" fill="white"/>
<path d="M475.499 222.333C475.499 221.781 475.947 221.333 476.499 221.333H480.499C481.052 221.333 481.499 221.781 481.499 222.333C481.499 222.886 481.052 223.333 480.499 223.333H476.499C475.947 223.333 475.499 222.886 475.499 222.333Z" fill="white"/>
<path d="M489.873 199.121C490.264 198.731 490.264 198.098 489.873 197.707C489.483 197.317 488.849 197.317 488.459 197.707L487.131 199.035C486.74 199.426 486.74 200.059 487.131 200.45C487.521 200.84 488.154 200.84 488.545 200.45L489.873 199.121Z" fill="white"/>
<path d="M485.888 203.106C486.279 202.716 486.279 202.082 485.888 201.692C485.498 201.301 484.865 201.301 484.474 201.692L481.818 204.348C481.427 204.739 481.427 205.372 481.818 205.763C482.208 206.153 482.841 206.153 483.232 205.763L485.888 203.106Z" fill="white"/>
<path d="M480.575 208.419C480.966 208.029 480.966 207.396 480.575 207.005C480.185 206.614 479.551 206.614 479.161 207.005L478.499 207.667L477.838 207.005C477.447 206.614 476.814 206.614 476.424 207.005C476.033 207.396 476.033 208.029 476.424 208.419L477.085 209.081L476.504 209.662C476.114 210.052 476.114 210.685 476.504 211.076C476.895 211.466 477.528 211.466 477.919 211.076L478.499 210.495L479.08 211.076C479.471 211.466 480.104 211.466 480.494 211.076C480.885 210.685 480.885 210.052 480.494 209.662L479.914 209.081L480.575 208.419Z" fill="white"/>
<path d="M475.262 213.732C475.653 213.342 475.653 212.709 475.262 212.318C474.872 211.928 474.238 211.928 473.848 212.318L471.191 214.975C470.801 215.365 470.801 215.998 471.191 216.389C471.582 216.779 472.215 216.779 472.606 216.389L475.262 213.732Z" fill="white"/>
<path d="M469.949 219.045C470.339 218.655 470.339 218.022 469.949 217.631C469.558 217.241 468.925 217.241 468.535 217.631L467.206 218.96C466.816 219.35 466.816 219.983 467.206 220.374C467.597 220.764 468.23 220.764 468.621 220.374L469.949 219.045Z" fill="white"/>
<path d="M488.378 220.374C488.769 220.764 489.402 220.764 489.792 220.374C490.183 219.983 490.183 219.35 489.792 218.96L488.464 217.631C488.073 217.241 487.44 217.241 487.05 217.631C486.659 218.022 486.659 218.655 487.05 219.045L488.378 220.374Z" fill="white"/>
<path d="M484.393 216.389C484.784 216.779 485.417 216.779 485.807 216.389C486.198 215.998 486.198 215.365 485.807 214.975L483.151 212.318C482.76 211.928 482.127 211.928 481.737 212.318C481.346 212.709 481.346 213.342 481.737 213.732L484.393 216.389Z" fill="white"/>
<path d="M473.767 205.763C474.157 206.153 474.791 206.153 475.181 205.763C475.572 205.372 475.572 204.739 475.181 204.348L472.525 201.692C472.134 201.301 471.501 201.301 471.11 201.692C470.72 202.082 470.72 202.716 471.11 203.106L473.767 205.763Z" fill="white"/>
<path d="M468.454 200.45C468.844 200.84 469.478 200.84 469.868 200.45C470.259 200.059 470.259 199.426 469.868 199.035L468.54 197.707C468.149 197.317 467.516 197.317 467.126 197.707C466.735 198.098 466.735 198.731 467.126 199.121L468.454 200.45Z" fill="white"/>
<path d="M474.574 202.185C474.971 202.065 475.393 202 475.833 202H476.833C477.385 202 477.833 201.552 477.833 201C477.833 200.448 477.385 200 476.833 200H475.833C475.195 200 474.577 200.095 473.994 200.271C473.465 200.431 473.167 200.99 473.327 201.518C473.487 202.047 474.045 202.345 474.574 202.185Z" fill="white"/>
<path d="M480.166 200C479.614 200 479.166 200.448 479.166 201C479.166 201.552 479.614 202 480.166 202H481.166C481.605 202 482.028 202.065 482.425 202.185C482.953 202.345 483.512 202.047 483.672 201.518C483.832 200.99 483.533 200.431 483.005 200.271C482.422 200.095 481.804 200 481.166 200H480.166Z" fill="white"/>
<path d="M471.685 205.075C471.845 204.546 471.546 203.988 471.018 203.828C470.489 203.667 469.931 203.966 469.771 204.495C469.594 205.078 469.499 205.695 469.499 206.333V207.333C469.499 207.886 469.947 208.333 470.499 208.333C471.052 208.333 471.499 207.886 471.499 207.333V206.333C471.499 205.894 471.564 205.472 471.685 205.075Z" fill="white"/>
<path d="M487.228 204.495C487.068 203.966 486.51 203.667 485.981 203.828C485.452 203.988 485.154 204.546 485.314 205.075C485.434 205.472 485.499 205.894 485.499 206.333V207.333C485.499 207.886 485.947 208.333 486.499 208.333C487.052 208.333 487.499 207.886 487.499 207.333V206.333C487.499 205.695 487.405 205.078 487.228 204.495Z" fill="white"/>
<path d="M471.499 210.667C471.499 210.114 471.052 209.667 470.499 209.667C469.947 209.667 469.499 210.114 469.499 210.667V211.667C469.499 212.305 469.594 212.922 469.771 213.505C469.931 214.034 470.489 214.333 471.018 214.172C471.546 214.012 471.845 213.454 471.685 212.925C471.564 212.528 471.499 212.106 471.499 211.667V210.667Z" fill="white"/>
<path d="M487.499 210.667C487.499 210.114 487.052 209.667 486.499 209.667C485.947 209.667 485.499 210.114 485.499 210.667V211.667C485.499 212.106 485.434 212.528 485.314 212.925C485.154 213.454 485.452 214.012 485.981 214.172C486.51 214.333 487.068 214.034 487.228 213.505C487.405 212.922 487.499 212.305 487.499 211.667V210.667Z" fill="white"/>
<path d="M474.574 215.815C474.045 215.654 473.487 215.953 473.327 216.482C473.167 217.01 473.465 217.569 473.994 217.729C474.577 217.905 475.195 218 475.833 218H476.833C477.385 218 477.833 217.552 477.833 217C477.833 216.448 477.385 216 476.833 216H475.833C475.393 216 474.971 215.935 474.574 215.815Z" fill="white"/>
<path d="M483.005 217.729C483.533 217.569 483.832 217.01 483.672 216.482C483.512 215.953 482.953 215.654 482.425 215.815C482.028 215.935 481.605 216 481.166 216H480.166C479.614 216 479.166 216.448 479.166 217C479.166 217.552 479.614 218 480.166 218H481.166C481.804 218 482.422 217.905 483.005 217.729Z" fill="white"/>
<line x1="510.199" y1="197" x2="510.199" y2="221" stroke="#019AEB"/>
<path d="M532.898 196.667C532.308 196.667 531.749 196.784 531.239 196.995C530.729 197.207 530.144 196.965 529.933 196.454C529.721 195.944 529.963 195.359 530.473 195.148C531.221 194.837 532.041 194.667 532.898 194.667H534.898C535.45 194.667 535.898 195.114 535.898 195.667C535.898 196.219 535.45 196.667 534.898 196.667H532.898Z" fill="white"/>
<path d="M537.898 195.667C537.898 195.114 538.346 194.667 538.898 194.667H542.898C543.45 194.667 543.898 195.114 543.898 195.667C543.898 196.219 543.45 196.667 542.898 196.667H538.898C538.346 196.667 537.898 196.219 537.898 195.667Z" fill="white"/>
<path d="M545.898 195.667C545.898 195.114 546.346 194.667 546.898 194.667H548.898C549.755 194.667 550.574 194.837 551.322 195.148C551.833 195.359 552.075 195.944 551.863 196.454C551.651 196.965 551.066 197.207 550.556 196.995C550.047 196.784 549.487 196.667 548.898 196.667H546.898C546.346 196.667 545.898 196.219 545.898 195.667Z" fill="white"/>
<path d="M528.352 198.035C528.862 198.246 529.104 198.831 528.893 199.341C528.682 199.851 528.564 200.411 528.564 201V203C528.564 203.552 528.117 204 527.564 204C527.012 204 526.564 203.552 526.564 203V201C526.564 200.143 526.735 199.324 527.045 198.575C527.257 198.065 527.842 197.823 528.352 198.035Z" fill="white"/>
<path d="M553.443 198.035C553.954 197.823 554.539 198.065 554.75 198.575C555.06 199.324 555.231 200.143 555.231 201V203C555.231 203.552 554.783 204 554.231 204C553.679 204 553.231 203.552 553.231 203V201C553.231 200.411 553.114 199.851 552.903 199.341C552.691 198.831 552.933 198.246 553.443 198.035Z" fill="white"/>
<path d="M527.564 206C528.117 206 528.564 206.448 528.564 207V211C528.564 211.552 528.117 212 527.564 212C527.012 212 526.564 211.552 526.564 211V207C526.564 206.448 527.012 206 527.564 206Z" fill="white"/>
<path d="M554.231 206C554.783 206 555.231 206.448 555.231 207V211C555.231 211.552 554.783 212 554.231 212C553.679 212 553.231 211.552 553.231 211V207C553.231 206.448 553.679 206 554.231 206Z" fill="white"/>
<path d="M527.564 214C528.117 214 528.564 214.448 528.564 215V217C528.564 217.589 528.682 218.149 528.893 218.658C529.104 219.169 528.862 219.754 528.352 219.965C527.842 220.177 527.257 219.935 527.045 219.425C526.735 218.676 526.564 217.857 526.564 217V215C526.564 214.448 527.012 214 527.564 214Z" fill="white"/>
<path d="M554.231 214C554.783 214 555.231 214.448 555.231 215V217C555.231 217.857 555.06 218.676 554.75 219.425C554.539 219.935 553.954 220.177 553.443 219.965C552.933 219.754 552.691 219.169 552.903 218.658C553.114 218.149 553.231 217.589 553.231 217V215C553.231 214.448 553.679 214 554.231 214Z" fill="white"/>
<path d="M529.933 221.546C530.144 221.035 530.729 220.793 531.239 221.005C531.749 221.216 532.308 221.333 532.898 221.333H534.898C535.45 221.333 535.898 221.781 535.898 222.333C535.898 222.886 535.45 223.333 534.898 223.333H532.898C532.041 223.333 531.221 223.163 530.473 222.852C529.963 222.641 529.721 222.056 529.933 221.546Z" fill="white"/>
<path d="M551.863 221.546C552.075 222.056 551.833 222.641 551.322 222.852C550.574 223.163 549.755 223.333 548.898 223.333H546.898C546.346 223.333 545.898 222.886 545.898 222.333C545.898 221.781 546.346 221.333 546.898 221.333H548.898C549.487 221.333 550.047 221.216 550.556 221.005C551.066 220.793 551.651 221.035 551.863 221.546Z" fill="white"/>
<path d="M537.898 222.333C537.898 221.781 538.346 221.333 538.898 221.333H542.898C543.45 221.333 543.898 221.781 543.898 222.333C543.898 222.886 543.45 223.333 542.898 223.333H538.898C538.346 223.333 537.898 222.886 537.898 222.333Z" fill="white"/>
<path d="M552.272 199.121C552.662 198.731 552.662 198.098 552.272 197.707C551.881 197.317 551.248 197.317 550.857 197.707L549.529 199.035C549.139 199.426 549.139 200.059 549.529 200.45C549.92 200.84 550.553 200.84 550.943 200.45L552.272 199.121Z" fill="white"/>
<path d="M548.287 203.106C548.677 202.716 548.677 202.082 548.287 201.692C547.896 201.301 547.263 201.301 546.873 201.692L544.216 204.348C543.825 204.739 543.825 205.372 544.216 205.763C544.606 206.153 545.24 206.153 545.63 205.763L548.287 203.106Z" fill="white"/>
<path d="M542.974 208.419C543.364 208.029 543.364 207.396 542.974 207.005C542.583 206.614 541.95 206.614 541.559 207.005L540.898 207.667L540.236 207.005C539.846 206.614 539.212 206.614 538.822 207.005C538.431 207.396 538.431 208.029 538.822 208.419L539.484 209.081L538.903 209.662C538.512 210.052 538.512 210.685 538.903 211.076C539.293 211.466 539.927 211.466 540.317 211.076L540.898 210.495L541.479 211.076C541.869 211.466 542.502 211.466 542.893 211.076C543.283 210.685 543.283 210.052 542.893 209.662L542.312 209.081L542.974 208.419Z" fill="white"/>
<path d="M537.66 213.732C538.051 213.342 538.051 212.709 537.66 212.318C537.27 211.928 536.637 211.928 536.246 212.318L533.59 214.975C533.199 215.365 533.199 215.998 533.59 216.389C533.98 216.779 534.613 216.779 535.004 216.389L537.66 213.732Z" fill="white"/>
<path d="M532.347 219.045C532.738 218.655 532.738 218.022 532.347 217.631C531.957 217.241 531.324 217.241 530.933 217.631L529.605 218.96C529.214 219.35 529.214 219.983 529.605 220.374C529.995 220.764 530.629 220.764 531.019 220.374L532.347 219.045Z" fill="white"/>
<path d="M550.776 220.374C551.167 220.764 551.8 220.764 552.191 220.374C552.581 219.983 552.581 219.35 552.191 218.96L550.862 217.631C550.472 217.241 549.839 217.241 549.448 217.631C549.058 218.022 549.058 218.655 549.448 219.045L550.776 220.374Z" fill="white"/>
<path d="M546.792 216.389C547.182 216.779 547.815 216.779 548.206 216.389C548.596 215.998 548.596 215.365 548.206 214.975L545.549 212.318C545.159 211.928 544.526 211.928 544.135 212.318C543.745 212.709 543.745 213.342 544.135 213.732L546.792 216.389Z" fill="white"/>
<path d="M536.165 205.763C536.556 206.153 537.189 206.153 537.58 205.763C537.97 205.372 537.97 204.739 537.58 204.348L534.923 201.692C534.533 201.301 533.899 201.301 533.509 201.692C533.118 202.082 533.118 202.716 533.509 203.106L536.165 205.763Z" fill="white"/>
<path d="M530.852 200.45C531.243 200.84 531.876 200.84 532.267 200.45C532.657 200.059 532.657 199.426 532.267 199.035L530.938 197.707C530.548 197.317 529.915 197.317 529.524 197.707C529.133 198.098 529.133 198.731 529.524 199.121L530.852 200.45Z" fill="white"/>
<path d="M536.972 202.185C537.37 202.065 537.792 202 538.231 202H539.231C539.783 202 540.231 201.552 540.231 201C540.231 200.448 539.783 200 539.231 200H538.231C537.593 200 536.976 200.095 536.392 200.271C535.864 200.431 535.565 200.99 535.725 201.518C535.886 202.047 536.444 202.345 536.972 202.185Z" fill="white"/>
<path d="M542.564 200C542.012 200 541.564 200.448 541.564 201C541.564 201.552 542.012 202 542.564 202H543.564C544.004 202 544.426 202.065 544.823 202.185C545.352 202.345 545.91 202.047 546.07 201.518C546.23 200.99 545.932 200.431 545.403 200.271C544.82 200.095 544.202 200 543.564 200H542.564Z" fill="white"/>
<path d="M534.083 205.075C534.243 204.546 533.945 203.988 533.416 203.828C532.888 203.667 532.329 203.966 532.169 204.495C531.992 205.078 531.898 205.695 531.898 206.333V207.333C531.898 207.886 532.346 208.333 532.898 208.333C533.45 208.333 533.898 207.886 533.898 207.333V206.333C533.898 205.894 533.963 205.472 534.083 205.075Z" fill="white"/>
<path d="M549.626 204.495C549.466 203.966 548.908 203.667 548.379 203.828C547.851 203.988 547.552 204.546 547.712 205.075C547.833 205.472 547.898 205.894 547.898 206.333V207.333C547.898 207.886 548.346 208.333 548.898 208.333C549.45 208.333 549.898 207.886 549.898 207.333V206.333C549.898 205.695 549.803 205.078 549.626 204.495Z" fill="white"/>
<path d="M533.898 210.667C533.898 210.114 533.45 209.667 532.898 209.667C532.346 209.667 531.898 210.114 531.898 210.667V211.667C531.898 212.305 531.992 212.922 532.169 213.505C532.329 214.034 532.888 214.333 533.416 214.172C533.945 214.012 534.243 213.454 534.083 212.925C533.963 212.528 533.898 212.106 533.898 211.667V210.667Z" fill="white"/>
<path d="M549.898 210.667C549.898 210.114 549.45 209.667 548.898 209.667C548.346 209.667 547.898 210.114 547.898 210.667V211.667C547.898 212.106 547.833 212.528 547.712 212.925C547.552 213.454 547.851 214.012 548.379 214.172C548.908 214.333 549.466 214.034 549.626 213.505C549.803 212.922 549.898 212.305 549.898 211.667V210.667Z" fill="white"/>
<path d="M536.972 215.815C536.444 215.654 535.886 215.953 535.725 216.482C535.565 217.01 535.864 217.569 536.392 217.729C536.976 217.905 537.593 218 538.231 218H539.231C539.783 218 540.231 217.552 540.231 217C540.231 216.448 539.783 216 539.231 216H538.231C537.792 216 537.37 215.935 536.972 215.815Z" fill="white"/>
<path d="M545.403 217.729C545.932 217.569 546.23 217.01 546.07 216.482C545.91 215.953 545.352 215.654 544.823 215.815C544.426 215.935 544.004 216 543.564 216H542.564C542.012 216 541.564 216.448 541.564 217C541.564 217.552 542.012 218 542.564 218H543.564C544.202 218 544.82 217.905 545.403 217.729Z" fill="white"/>
<line x1="572.6" y1="197" x2="572.6" y2="221" stroke="#019AEB"/>
<path d="M595.298 196.667C594.709 196.667 594.149 196.784 593.64 196.995C593.13 197.207 592.544 196.965 592.333 196.454C592.121 195.944 592.363 195.359 592.874 195.148C593.622 194.837 594.441 194.667 595.298 194.667H597.298C597.85 194.667 598.298 195.114 598.298 195.667C598.298 196.219 597.85 196.667 597.298 196.667H595.298Z" fill="white"/>
<path d="M600.298 195.667C600.298 195.114 600.746 194.667 601.298 194.667H605.298C605.85 194.667 606.298 195.114 606.298 195.667C606.298 196.219 605.85 196.667 605.298 196.667H601.298C600.746 196.667 600.298 196.219 600.298 195.667Z" fill="white"/>
<path d="M608.298 195.667C608.298 195.114 608.746 194.667 609.298 194.667H611.298C612.155 194.667 612.975 194.837 613.723 195.148C614.233 195.359 614.475 195.944 614.263 196.454C614.052 196.965 613.467 197.207 612.957 196.995C612.447 196.784 611.888 196.667 611.298 196.667H609.298C608.746 196.667 608.298 196.219 608.298 195.667Z" fill="white"/>
<path d="M590.753 198.035C591.263 198.246 591.505 198.831 591.293 199.341C591.082 199.851 590.965 200.411 590.965 201V203C590.965 203.552 590.517 204 589.965 204C589.413 204 588.965 203.552 588.965 203V201C588.965 200.143 589.136 199.324 589.446 198.575C589.657 198.065 590.242 197.823 590.753 198.035Z" fill="white"/>
<path d="M615.844 198.035C616.354 197.823 616.939 198.065 617.151 198.575C617.461 199.324 617.632 200.143 617.632 201V203C617.632 203.552 617.184 204 616.632 204C616.079 204 615.632 203.552 615.632 203V201C615.632 200.411 615.514 199.851 615.303 199.341C615.092 198.831 615.334 198.246 615.844 198.035Z" fill="white"/>
<path d="M589.965 206C590.517 206 590.965 206.448 590.965 207V211C590.965 211.552 590.517 212 589.965 212C589.413 212 588.965 211.552 588.965 211V207C588.965 206.448 589.413 206 589.965 206Z" fill="white"/>
<path d="M616.632 206C617.184 206 617.632 206.448 617.632 207V211C617.632 211.552 617.184 212 616.632 212C616.079 212 615.632 211.552 615.632 211V207C615.632 206.448 616.079 206 616.632 206Z" fill="white"/>
<path d="M589.965 214C590.517 214 590.965 214.448 590.965 215V217C590.965 217.589 591.082 218.149 591.293 218.658C591.505 219.169 591.263 219.754 590.753 219.965C590.242 220.177 589.657 219.935 589.446 219.425C589.136 218.676 588.965 217.857 588.965 217V215C588.965 214.448 589.413 214 589.965 214Z" fill="white"/>
<path d="M616.632 214C617.184 214 617.632 214.448 617.632 215V217C617.632 217.857 617.461 218.676 617.151 219.425C616.939 219.935 616.354 220.177 615.844 219.965C615.334 219.754 615.092 219.169 615.303 218.658C615.514 218.149 615.632 217.589 615.632 217V215C615.632 214.448 616.079 214 616.632 214Z" fill="white"/>
<path d="M592.333 221.546C592.544 221.035 593.13 220.793 593.64 221.005C594.149 221.216 594.709 221.333 595.298 221.333H597.298C597.85 221.333 598.298 221.781 598.298 222.333C598.298 222.886 597.85 223.333 597.298 223.333H595.298C594.441 223.333 593.622 223.163 592.874 222.852C592.363 222.641 592.121 222.056 592.333 221.546Z" fill="white"/>
<path d="M614.263 221.546C614.475 222.056 614.233 222.641 613.723 222.852C612.975 223.163 612.155 223.333 611.298 223.333H609.298C608.746 223.333 608.298 222.886 608.298 222.333C608.298 221.781 608.746 221.333 609.298 221.333H611.298C611.888 221.333 612.447 221.216 612.957 221.005C613.467 220.793 614.052 221.035 614.263 221.546Z" fill="white"/>
<path d="M600.298 222.333C600.298 221.781 600.746 221.333 601.298 221.333H605.298C605.85 221.333 606.298 221.781 606.298 222.333C606.298 222.886 605.85 223.333 605.298 223.333H601.298C600.746 223.333 600.298 222.886 600.298 222.333Z" fill="white"/>
<path d="M614.672 199.121C615.062 198.731 615.062 198.098 614.672 197.707C614.281 197.317 613.648 197.317 613.258 197.707L611.929 199.035C611.539 199.426 611.539 200.059 611.929 200.45C612.32 200.84 612.953 200.84 613.344 200.45L614.672 199.121Z" fill="white"/>
<path d="M610.687 203.106C611.078 202.716 611.078 202.082 610.687 201.692C610.297 201.301 609.663 201.301 609.273 201.692L606.616 204.348C606.226 204.739 606.226 205.372 606.616 205.763C607.007 206.153 607.64 206.153 608.031 205.763L610.687 203.106Z" fill="white"/>
<path d="M605.374 208.419C605.765 208.029 605.765 207.396 605.374 207.005C604.983 206.614 604.35 206.614 603.96 207.005L603.298 207.667L602.637 207.005C602.246 206.614 601.613 206.614 601.222 207.005C600.832 207.396 600.832 208.029 601.222 208.419L601.884 209.081L601.303 209.662C600.913 210.052 600.913 210.685 601.303 211.076C601.694 211.466 602.327 211.466 602.717 211.076L603.298 210.495L603.879 211.076C604.269 211.466 604.903 211.466 605.293 211.076C605.684 210.685 605.684 210.052 605.293 209.662L604.712 209.081L605.374 208.419Z" fill="white"/>
<path d="M600.061 213.732C600.451 213.342 600.451 212.709 600.061 212.318C599.67 211.928 599.037 211.928 598.647 212.318L595.99 214.975C595.6 215.365 595.6 215.998 595.99 216.389C596.381 216.779 597.014 216.779 597.404 216.389L600.061 213.732Z" fill="white"/>
<path d="M594.748 219.045C595.138 218.655 595.138 218.022 594.748 217.631C594.357 217.241 593.724 217.241 593.334 217.631L592.005 218.96C591.615 219.35 591.615 219.983 592.005 220.374C592.396 220.764 593.029 220.764 593.419 220.374L594.748 219.045Z" fill="white"/>
<path d="M613.177 220.374C613.567 220.764 614.201 220.764 614.591 220.374C614.982 219.983 614.982 219.35 614.591 218.96L613.263 217.631C612.872 217.241 612.239 217.241 611.849 217.631C611.458 218.022 611.458 218.655 611.849 219.045L613.177 220.374Z" fill="white"/>
<path d="M609.192 216.389C609.583 216.779 610.216 216.779 610.606 216.389C610.997 215.998 610.997 215.365 610.606 214.975L607.95 212.318C607.559 211.928 606.926 211.928 606.535 212.318C606.145 212.709 606.145 213.342 606.535 213.732L609.192 216.389Z" fill="white"/>
<path d="M598.566 205.763C598.956 206.153 599.589 206.153 599.98 205.763C600.371 205.372 600.371 204.739 599.98 204.348L597.323 201.692C596.933 201.301 596.3 201.301 595.909 201.692C595.519 202.082 595.519 202.716 595.909 203.106L598.566 205.763Z" fill="white"/>
<path d="M593.253 200.45C593.643 200.84 594.276 200.84 594.667 200.45C595.057 200.059 595.057 199.426 594.667 199.035L593.339 197.707C592.948 197.317 592.315 197.317 591.924 197.707C591.534 198.098 591.534 198.731 591.924 199.121L593.253 200.45Z" fill="white"/>
<path d="M599.373 202.185C599.77 202.065 600.192 202 600.632 202H601.632C602.184 202 602.632 201.552 602.632 201C602.632 200.448 602.184 200 601.632 200H600.632C599.994 200 599.376 200.095 598.793 200.271C598.264 200.431 597.966 200.99 598.126 201.518C598.286 202.047 598.844 202.345 599.373 202.185Z" fill="white"/>
<path d="M604.965 200C604.413 200 603.965 200.448 603.965 201C603.965 201.552 604.413 202 604.965 202H605.965C606.404 202 606.826 202.065 607.224 202.185C607.752 202.345 608.31 202.047 608.471 201.518C608.631 200.99 608.332 200.431 607.804 200.271C607.22 200.095 606.603 200 605.965 200H604.965Z" fill="white"/>
<path d="M596.484 205.075C596.644 204.546 596.345 203.988 595.816 203.828C595.288 203.667 594.73 203.966 594.569 204.495C594.393 205.078 594.298 205.695 594.298 206.333V207.333C594.298 207.886 594.746 208.333 595.298 208.333C595.85 208.333 596.298 207.886 596.298 207.333V206.333C596.298 205.894 596.363 205.472 596.484 205.075Z" fill="white"/>
<path d="M612.027 204.495C611.867 203.966 611.308 203.667 610.78 203.828C610.251 203.988 609.953 204.546 610.113 205.075C610.233 205.472 610.298 205.894 610.298 206.333V207.333C610.298 207.886 610.746 208.333 611.298 208.333C611.85 208.333 612.298 207.886 612.298 207.333V206.333C612.298 205.695 612.204 205.078 612.027 204.495Z" fill="white"/>
<path d="M596.298 210.667C596.298 210.114 595.85 209.667 595.298 209.667C594.746 209.667 594.298 210.114 594.298 210.667V211.667C594.298 212.305 594.393 212.922 594.569 213.505C594.73 214.034 595.288 214.333 595.816 214.172C596.345 214.012 596.644 213.454 596.484 212.925C596.363 212.528 596.298 212.106 596.298 211.667V210.667Z" fill="white"/>
<path d="M612.298 210.667C612.298 210.114 611.85 209.667 611.298 209.667C610.746 209.667 610.298 210.114 610.298 210.667V211.667C610.298 212.106 610.233 212.528 610.113 212.925C609.953 213.454 610.251 214.012 610.78 214.172C611.308 214.333 611.867 214.034 612.027 213.505C612.204 212.922 612.298 212.305 612.298 211.667V210.667Z" fill="white"/>
<path d="M599.373 215.815C598.844 215.654 598.286 215.953 598.126 216.482C597.966 217.01 598.264 217.569 598.793 217.729C599.376 217.905 599.994 218 600.632 218H601.632C602.184 218 602.632 217.552 602.632 217C602.632 216.448 602.184 216 601.632 216H600.632C600.192 216 599.77 215.935 599.373 215.815Z" fill="white"/>
<path d="M607.804 217.729C608.332 217.569 608.631 217.01 608.471 216.482C608.31 215.953 607.752 215.654 607.224 215.815C606.826 215.935 606.404 216 605.965 216H604.965C604.413 216 603.965 216.448 603.965 217C603.965 217.552 604.413 218 604.965 218H605.965C606.603 218 607.22 217.905 607.804 217.729Z" fill="white"/>
</g>
<rect x="330" y="180.5" width="301" height="57" rx="28.5" stroke="#019AEB"/>
<defs>
<clipPath id="clip0_431_73342">
<rect x="330.5" y="23" width="300" height="32" rx="8" fill="white"/>
</clipPath>
<clipPath id="clip1_431_73342">
<rect x="330.5" y="65" width="300" height="56" rx="8" fill="white"/>
</clipPath>
<clipPath id="clip2_431_73342">
<rect x="330.5" y="131" width="300" height="40" rx="20" fill="white"/>
</clipPath>
<clipPath id="clip3_431_73342">
<rect x="330.5" y="181" width="300" height="56" rx="28" fill="white"/>
</clipPath>
</defs>
</svg>
