<svg width="824" height="260" viewBox="0 0 824 260" fill="none" xmlns="http://www.w3.org/2000/svg"><rect width="824" height="260" fill="#252A2E"/><g clip-path="url(#clip0_342_63688)"><rect x="261.5" y="22.5" width="149" height="33" rx="6.5" fill="#353A40"/><path d="M330 29.75C329.558 29.75 329.138 29.8378 328.756 29.9963C328.374 30.155 327.935 29.9734 327.776 29.5908C327.617 29.2082 327.799 28.7694 328.182 28.6107C328.743 28.378 329.357 28.25 330 28.25H331.5C331.914 28.25 332.25 28.5858 332.25 29C332.25 29.4142 331.914 29.75 331.5 29.75H330Z" fill="#fff"/><path d="M333.75 29C333.75 28.5858 334.086 28.25 334.5 28.25H337.5C337.914 28.25 338.25 28.5858 338.25 29C338.25 29.4142 337.914 29.75 337.5 29.75H334.5C334.086 29.75 333.75 29.4142 333.75 29Z" fill="#fff"/><path d="M339.75 29C339.75 28.5858 340.086 28.25 340.5 28.25H342C342.643 28.25 343.257 28.378 343.818 28.6107C344.201 28.7694 344.383 29.2082 344.224 29.5908C344.065 29.9734 343.626 30.155 343.244 29.9963C342.862 29.8378 342.442 29.75 342 29.75H340.5C340.086 29.75 339.75 29.4142 339.75 29Z" fill="#fff"/><path d="M326.591 30.7761C326.973 30.9347 327.155 31.3735 326.996 31.7561C326.838 32.1383 326.75 32.5579 326.75 33V34.5C326.75 34.9142 326.414 35.25 326 35.25C325.586 35.25 325.25 34.9142 325.25 34.5V33C325.25 32.3573 325.378 31.7427 325.611 31.1816C325.769 30.7989 326.208 30.6174 326.591 30.7761Z" fill="#fff"/><path d="M345.409 30.7761C345.792 30.6174 346.231 30.7989 346.389 31.1816C346.622 31.7427 346.75 32.3573 346.75 33V34.5C346.75 34.9142 346.414 35.25 346 35.25C345.586 35.25 345.25 34.9142 345.25 34.5V33C345.25 32.5579 345.162 32.1383 345.004 31.7561C344.845 31.3735 345.027 30.9347 345.409 30.7761Z" fill="#fff"/><path d="M326 36.75C326.414 36.75 326.75 37.0858 326.75 37.5V40.5C326.75 40.9142 326.414 41.25 326 41.25C325.586 41.25 325.25 40.9142 325.25 40.5V37.5C325.25 37.0858 325.586 36.75 326 36.75Z" fill="#fff"/><path d="M346 36.75C346.414 36.75 346.75 37.0858 346.75 37.5V40.5C346.75 40.9142 346.414 41.25 346 41.25C345.586 41.25 345.25 40.9142 345.25 40.5V37.5C345.25 37.0858 345.586 36.75 346 36.75Z" fill="#fff"/><path d="M326 42.75C326.414 42.75 326.75 43.0858 326.75 43.5V45C326.75 45.4421 326.838 45.8617 326.996 46.2439C327.155 46.6265 326.973 47.0653 326.591 47.2239C326.208 47.3826 325.769 47.2011 325.611 46.8184C325.378 46.2573 325.25 45.6427 325.25 45V43.5C325.25 43.0858 325.586 42.75 326 42.75Z" fill="#fff"/><path d="M346 42.75C346.414 42.75 346.75 43.0858 346.75 43.5V45C346.75 45.6427 346.622 46.2573 346.389 46.8184C346.231 47.2011 345.792 47.3826 345.409 47.2239C345.027 47.0653 344.845 46.6265 345.004 46.2439C345.162 45.8617 345.25 45.4421 345.25 45V43.5C345.25 43.0858 345.586 42.75 346 42.75Z" fill="#fff"/><path d="M327.776 48.4092C327.935 48.0266 328.374 47.845 328.756 48.0037C329.138 48.1622 329.558 48.25 330 48.25H331.5C331.914 48.25 332.25 48.5858 332.25 49C332.25 49.4142 331.914 49.75 331.5 49.75H330C329.357 49.75 328.743 49.622 328.182 49.3893C327.799 49.2306 327.617 48.7918 327.776 48.4092Z" fill="#fff"/><path d="M344.224 48.4092C344.383 48.7918 344.201 49.2306 343.818 49.3893C343.257 49.622 342.643 49.75 342 49.75H340.5C340.086 49.75 339.75 49.4142 339.75 49C339.75 48.5858 340.086 48.25 340.5 48.25H342C342.442 48.25 342.862 48.1622 343.244 48.0037C343.626 47.845 344.065 48.0266 344.224 48.4092Z" fill="#fff"/><path d="M333.75 49C333.75 48.5858 334.086 48.25 334.5 48.25H337.5C337.914 48.25 338.25 48.5858 338.25 49C338.25 49.4142 337.914 49.75 337.5 49.75H334.5C334.086 49.75 333.75 49.4142 333.75 49Z" fill="#fff"/><path d="M344.53 31.591C344.823 31.2981 344.823 30.8232 344.53 30.5303C344.237 30.2374 343.763 30.2374 343.47 30.5303L342.473 31.5265C342.181 31.8194 342.181 32.2943 342.473 32.5872C342.766 32.8801 343.241 32.8801 343.534 32.5872L344.53 31.591Z" fill="#fff"/><path d="M341.542 34.5796C341.835 34.2867 341.835 33.8118 341.542 33.519C341.249 33.2261 340.774 33.2261 340.481 33.519L338.489 35.5114C338.196 35.8043 338.196 36.2791 338.489 36.572C338.782 36.8649 339.256 36.8649 339.549 36.572L341.542 34.5796Z" fill="#fff"/><path d="M337.557 38.5645C337.85 38.2716 337.85 37.7967 337.557 37.5038C337.264 37.2109 336.789 37.2109 336.496 37.5038L336 38L335.504 37.5038C335.211 37.2109 334.736 37.2109 334.443 37.5038C334.15 37.7967 334.15 38.2716 334.443 38.5645L334.939 39.0607L334.504 39.4962C334.211 39.7891 334.211 40.264 334.504 40.5569C334.797 40.8498 335.272 40.8498 335.564 40.5569L336 40.1213L336.436 40.5569C336.728 40.8498 337.203 40.8498 337.496 40.5569C337.789 40.264 337.789 39.7891 337.496 39.4962L337.061 39.0607L337.557 38.5645Z" fill="#fff"/><path d="M333.572 42.5493C333.865 42.2564 333.865 41.7815 333.572 41.4886C333.279 41.1957 332.804 41.1957 332.511 41.4886L330.519 43.481C330.226 43.7739 330.226 44.2488 330.519 44.5417C330.812 44.8346 331.287 44.8346 331.58 44.5417L333.572 42.5493Z" fill="#fff"/><path d="M329.587 46.5341C329.88 46.2412 329.88 45.7664 329.587 45.4735C329.294 45.1806 328.819 45.1806 328.527 45.4735L327.53 46.4697C327.237 46.7626 327.237 47.2374 327.53 47.5303C327.823 47.8232 328.298 47.8232 328.591 47.5303L329.587 46.5341Z" fill="#fff"/><path d="M343.409 47.5303C343.702 47.8232 344.177 47.8232 344.47 47.5303C344.763 47.2374 344.763 46.7626 344.47 46.4697L343.473 45.4735C343.181 45.1806 342.706 45.1806 342.413 45.4735C342.12 45.7664 342.12 46.2412 342.413 46.5341L343.409 47.5303Z" fill="#fff"/><path d="M340.42 44.5417C340.713 44.8346 341.188 44.8346 341.481 44.5417C341.774 44.2488 341.774 43.7739 341.481 43.481L339.489 41.4886C339.196 41.1957 338.721 41.1957 338.428 41.4886C338.135 41.7815 338.135 42.2564 338.428 42.5493L340.42 44.5417Z" fill="#fff"/><path d="M332.451 36.572C332.744 36.8649 333.218 36.8649 333.511 36.572C333.804 36.2791 333.804 35.8043 333.511 35.5114L331.519 33.519C331.226 33.2261 330.751 33.2261 330.458 33.519C330.165 33.8118 330.165 34.2867 330.458 34.5796L332.451 36.572Z" fill="#fff"/><path d="M328.466 32.5872C328.759 32.8801 329.234 32.8801 329.527 32.5872C329.819 32.2943 329.819 31.8194 329.527 31.5265L328.53 30.5303C328.237 30.2374 327.763 30.2374 327.47 30.5303C327.177 30.8232 327.177 31.2981 327.47 31.591L328.466 32.5872Z" fill="#fff"/><path d="M333.056 33.889C333.354 33.7988 333.671 33.75 334 33.75H334.75C335.164 33.75 335.5 33.4142 335.5 33C335.5 32.5858 335.164 32.25 334.75 32.25H334C333.522 32.25 333.058 32.321 332.621 32.4535C332.225 32.5736 332.001 32.9923 332.121 33.3887C332.241 33.7851 332.66 34.0091 333.056 33.889Z" fill="#fff"/><path d="M337.25 32.25C336.836 32.25 336.5 32.5858 336.5 33C336.5 33.4142 336.836 33.75 337.25 33.75H338C338.329 33.75 338.646 33.7988 338.944 33.889C339.34 34.0091 339.759 33.7851 339.879 33.3887C339.999 32.9923 339.775 32.5736 339.379 32.4535C338.942 32.321 338.478 32.25 338 32.25H337.25Z" fill="#fff"/><path d="M330.889 36.0559C331.009 35.6595 330.785 35.2408 330.389 35.1207C329.992 35.0006 329.574 35.2246 329.453 35.621C329.321 36.0583 329.25 36.5216 329.25 37V37.75C329.25 38.1642 329.586 38.5 330 38.5C330.414 38.5 330.75 38.1642 330.75 37.75V37C330.75 36.6705 330.799 36.3538 330.889 36.0559Z" fill="#fff"/><path d="M342.547 35.621C342.426 35.2246 342.008 35.0006 341.611 35.1207C341.215 35.2408 340.991 35.6595 341.111 36.0559C341.201 36.3538 341.25 36.6705 341.25 37V37.75C341.25 38.1642 341.586 38.5 342 38.5C342.414 38.5 342.75 38.1642 342.75 37.75V37C342.75 36.5216 342.679 36.0583 342.547 35.621Z" fill="#fff"/><path d="M330.75 40.25C330.75 39.8358 330.414 39.5 330 39.5C329.586 39.5 329.25 39.8358 329.25 40.25V41C329.25 41.4784 329.321 41.9417 329.453 42.379C329.574 42.7754 329.992 42.9994 330.389 42.8793C330.785 42.7592 331.009 42.3405 330.889 41.9441C330.799 41.6462 330.75 41.3295 330.75 41V40.25Z" fill="#fff"/><path d="M342.75 40.25C342.75 39.8358 342.414 39.5 342 39.5C341.586 39.5 341.25 39.8358 341.25 40.25V41C341.25 41.3295 341.201 41.6462 341.111 41.9441C340.991 42.3405 341.215 42.7592 341.611 42.8793C342.008 42.9994 342.426 42.7754 342.547 42.379C342.679 41.9417 342.75 41.4784 342.75 41V40.25Z" fill="#fff"/><path d="M333.056 44.111C332.66 43.9909 332.241 44.2149 332.121 44.6113C332.001 45.0077 332.225 45.4264 332.621 45.5465C333.058 45.679 333.522 45.75 334 45.75H334.75C335.164 45.75 335.5 45.4142 335.5 45C335.5 44.5858 335.164 44.25 334.75 44.25H334C333.671 44.25 333.354 44.2012 333.056 44.111Z" fill="#fff"/><path d="M339.379 45.5465C339.775 45.4264 339.999 45.0077 339.879 44.6113C339.759 44.2149 339.34 43.9909 338.944 44.111C338.646 44.2012 338.329 44.25 338 44.25H337.25C336.836 44.25 336.5 44.5858 336.5 45C336.5 45.4142 336.836 45.75 337.25 45.75H338C338.478 45.75 338.942 45.679 339.379 45.5465Z" fill="#fff"/><rect x="261.5" y="22.5" width="149" height="33" rx="6.5" stroke="#353A40"/><path d="M482 29.75C481.558 29.75 481.138 29.8378 480.756 29.9963C480.374 30.155 479.935 29.9734 479.776 29.5908C479.617 29.2082 479.799 28.7694 480.182 28.6107C480.743 28.378 481.357 28.25 482 28.25H483.5C483.914 28.25 484.25 28.5858 484.25 29C484.25 29.4142 483.914 29.75 483.5 29.75H482Z" fill="#fff"/><path d="M485.75 29C485.75 28.5858 486.086 28.25 486.5 28.25H489.5C489.914 28.25 490.25 28.5858 490.25 29C490.25 29.4142 489.914 29.75 489.5 29.75H486.5C486.086 29.75 485.75 29.4142 485.75 29Z" fill="#fff"/><path d="M491.75 29C491.75 28.5858 492.086 28.25 492.5 28.25H494C494.643 28.25 495.257 28.378 495.818 28.6107C496.201 28.7694 496.383 29.2082 496.224 29.5908C496.065 29.9734 495.626 30.155 495.244 29.9963C494.862 29.8378 494.442 29.75 494 29.75H492.5C492.086 29.75 491.75 29.4142 491.75 29Z" fill="#fff"/><path d="M478.591 30.7761C478.973 30.9347 479.155 31.3735 478.996 31.7561C478.838 32.1383 478.75 32.5579 478.75 33V34.5C478.75 34.9142 478.414 35.25 478 35.25C477.586 35.25 477.25 34.9142 477.25 34.5V33C477.25 32.3573 477.378 31.7427 477.611 31.1816C477.769 30.7989 478.208 30.6174 478.591 30.7761Z" fill="#fff"/><path d="M497.409 30.7761C497.792 30.6174 498.231 30.7989 498.389 31.1816C498.622 31.7427 498.75 32.3573 498.75 33V34.5C498.75 34.9142 498.414 35.25 498 35.25C497.586 35.25 497.25 34.9142 497.25 34.5V33C497.25 32.5579 497.162 32.1383 497.004 31.7561C496.845 31.3735 497.027 30.9347 497.409 30.7761Z" fill="#fff"/><path d="M478 36.75C478.414 36.75 478.75 37.0858 478.75 37.5V40.5C478.75 40.9142 478.414 41.25 478 41.25C477.586 41.25 477.25 40.9142 477.25 40.5V37.5C477.25 37.0858 477.586 36.75 478 36.75Z" fill="#fff"/><path d="M498 36.75C498.414 36.75 498.75 37.0858 498.75 37.5V40.5C498.75 40.9142 498.414 41.25 498 41.25C497.586 41.25 497.25 40.9142 497.25 40.5V37.5C497.25 37.0858 497.586 36.75 498 36.75Z" fill="#fff"/><path d="M478 42.75C478.414 42.75 478.75 43.0858 478.75 43.5V45C478.75 45.4421 478.838 45.8617 478.996 46.2439C479.155 46.6265 478.973 47.0653 478.591 47.2239C478.208 47.3826 477.769 47.2011 477.611 46.8184C477.378 46.2573 477.25 45.6427 477.25 45V43.5C477.25 43.0858 477.586 42.75 478 42.75Z" fill="#fff"/><path d="M498 42.75C498.414 42.75 498.75 43.0858 498.75 43.5V45C498.75 45.6427 498.622 46.2573 498.389 46.8184C498.231 47.2011 497.792 47.3826 497.409 47.2239C497.027 47.0653 496.845 46.6265 497.004 46.2439C497.162 45.8617 497.25 45.4421 497.25 45V43.5C497.25 43.0858 497.586 42.75 498 42.75Z" fill="#fff"/><path d="M479.776 48.4092C479.935 48.0266 480.374 47.845 480.756 48.0037C481.138 48.1622 481.558 48.25 482 48.25H483.5C483.914 48.25 484.25 48.5858 484.25 49C484.25 49.4142 483.914 49.75 483.5 49.75H482C481.357 49.75 480.743 49.622 480.182 49.3893C479.799 49.2306 479.617 48.7918 479.776 48.4092Z" fill="#fff"/><path d="M496.224 48.4092C496.383 48.7918 496.201 49.2306 495.818 49.3893C495.257 49.622 494.643 49.75 494 49.75H492.5C492.086 49.75 491.75 49.4142 491.75 49C491.75 48.5858 492.086 48.25 492.5 48.25H494C494.442 48.25 494.862 48.1622 495.244 48.0037C495.626 47.845 496.065 48.0266 496.224 48.4092Z" fill="#fff"/><path d="M485.75 49C485.75 48.5858 486.086 48.25 486.5 48.25H489.5C489.914 48.25 490.25 48.5858 490.25 49C490.25 49.4142 489.914 49.75 489.5 49.75H486.5C486.086 49.75 485.75 49.4142 485.75 49Z" fill="#fff"/><path d="M496.53 31.591C496.823 31.2981 496.823 30.8232 496.53 30.5303C496.237 30.2374 495.763 30.2374 495.47 30.5303L494.473 31.5265C494.181 31.8194 494.181 32.2943 494.473 32.5872C494.766 32.8801 495.241 32.8801 495.534 32.5872L496.53 31.591Z" fill="#fff"/><path d="M493.542 34.5796C493.835 34.2867 493.835 33.8118 493.542 33.519C493.249 33.2261 492.774 33.2261 492.481 33.519L490.489 35.5114C490.196 35.8043 490.196 36.2791 490.489 36.572C490.782 36.8649 491.256 36.8649 491.549 36.572L493.542 34.5796Z" fill="#fff"/><path d="M489.557 38.5645C489.85 38.2716 489.85 37.7967 489.557 37.5038C489.264 37.2109 488.789 37.2109 488.496 37.5038L488 38L487.504 37.5038C487.211 37.2109 486.736 37.2109 486.443 37.5038C486.15 37.7967 486.15 38.2716 486.443 38.5645L486.939 39.0607L486.504 39.4962C486.211 39.7891 486.211 40.264 486.504 40.5569C486.797 40.8498 487.272 40.8498 487.564 40.5569L488 40.1213L488.436 40.5569C488.728 40.8498 489.203 40.8498 489.496 40.5569C489.789 40.264 489.789 39.7891 489.496 39.4962L489.061 39.0607L489.557 38.5645Z" fill="#fff"/><path d="M485.572 42.5493C485.865 42.2564 485.865 41.7815 485.572 41.4886C485.279 41.1957 484.804 41.1957 484.511 41.4886L482.519 43.481C482.226 43.7739 482.226 44.2488 482.519 44.5417C482.812 44.8346 483.287 44.8346 483.58 44.5417L485.572 42.5493Z" fill="#fff"/><path d="M481.587 46.5341C481.88 46.2412 481.88 45.7664 481.587 45.4735C481.294 45.1806 480.819 45.1806 480.527 45.4735L479.53 46.4697C479.237 46.7626 479.237 47.2374 479.53 47.5303C479.823 47.8232 480.298 47.8232 480.591 47.5303L481.587 46.5341Z" fill="#fff"/><path d="M495.409 47.5303C495.702 47.8232 496.177 47.8232 496.47 47.5303C496.763 47.2374 496.763 46.7626 496.47 46.4697L495.473 45.4735C495.181 45.1806 494.706 45.1806 494.413 45.4735C494.12 45.7664 494.12 46.2412 494.413 46.5341L495.409 47.5303Z" fill="#fff"/><path d="M492.42 44.5417C492.713 44.8346 493.188 44.8346 493.481 44.5417C493.774 44.2488 493.774 43.7739 493.481 43.481L491.489 41.4886C491.196 41.1957 490.721 41.1957 490.428 41.4886C490.135 41.7815 490.135 42.2564 490.428 42.5493L492.42 44.5417Z" fill="#fff"/><path d="M484.451 36.572C484.744 36.8649 485.218 36.8649 485.511 36.572C485.804 36.2791 485.804 35.8043 485.511 35.5114L483.519 33.519C483.226 33.2261 482.751 33.2261 482.458 33.519C482.165 33.8118 482.165 34.2867 482.458 34.5796L484.451 36.572Z" fill="#fff"/><path d="M480.466 32.5872C480.759 32.8801 481.234 32.8801 481.527 32.5872C481.819 32.2943 481.819 31.8194 481.527 31.5265L480.53 30.5303C480.237 30.2374 479.763 30.2374 479.47 30.5303C479.177 30.8232 479.177 31.2981 479.47 31.591L480.466 32.5872Z" fill="#fff"/><path d="M485.056 33.889C485.354 33.7988 485.671 33.75 486 33.75H486.75C487.164 33.75 487.5 33.4142 487.5 33C487.5 32.5858 487.164 32.25 486.75 32.25H486C485.522 32.25 485.058 32.321 484.621 32.4535C484.225 32.5736 484.001 32.9923 484.121 33.3887C484.241 33.7851 484.66 34.0091 485.056 33.889Z" fill="#fff"/><path d="M489.25 32.25C488.836 32.25 488.5 32.5858 488.5 33C488.5 33.4142 488.836 33.75 489.25 33.75H490C490.329 33.75 490.646 33.7988 490.944 33.889C491.34 34.0091 491.759 33.7851 491.879 33.3887C491.999 32.9923 491.775 32.5736 491.379 32.4535C490.942 32.321 490.478 32.25 490 32.25H489.25Z" fill="#fff"/><path d="M482.889 36.0559C483.009 35.6595 482.785 35.2408 482.389 35.1207C481.992 35.0006 481.574 35.2246 481.453 35.621C481.321 36.0583 481.25 36.5216 481.25 37V37.75C481.25 38.1642 481.586 38.5 482 38.5C482.414 38.5 482.75 38.1642 482.75 37.75V37C482.75 36.6705 482.799 36.3538 482.889 36.0559Z" fill="#fff"/><path d="M494.547 35.621C494.426 35.2246 494.008 35.0006 493.611 35.1207C493.215 35.2408 492.991 35.6595 493.111 36.0559C493.201 36.3538 493.25 36.6705 493.25 37V37.75C493.25 38.1642 493.586 38.5 494 38.5C494.414 38.5 494.75 38.1642 494.75 37.75V37C494.75 36.5216 494.679 36.0583 494.547 35.621Z" fill="#fff"/><path d="M482.75 40.25C482.75 39.8358 482.414 39.5 482 39.5C481.586 39.5 481.25 39.8358 481.25 40.25V41C481.25 41.4784 481.321 41.9417 481.453 42.379C481.574 42.7754 481.992 42.9994 482.389 42.8793C482.785 42.7592 483.009 42.3405 482.889 41.9441C482.799 41.6462 482.75 41.3295 482.75 41V40.25Z" fill="#fff"/><path d="M494.75 40.25C494.75 39.8358 494.414 39.5 494 39.5C493.586 39.5 493.25 39.8358 493.25 40.25V41C493.25 41.3295 493.201 41.6462 493.111 41.9441C492.991 42.3405 493.215 42.7592 493.611 42.8793C494.008 42.9994 494.426 42.7754 494.547 42.379C494.679 41.9417 494.75 41.4784 494.75 41V40.25Z" fill="#fff"/><path d="M485.056 44.111C484.66 43.9909 484.241 44.2149 484.121 44.6113C484.001 45.0077 484.225 45.4264 484.621 45.5465C485.058 45.679 485.522 45.75 486 45.75H486.75C487.164 45.75 487.5 45.4142 487.5 45C487.5 44.5858 487.164 44.25 486.75 44.25H486C485.671 44.25 485.354 44.2012 485.056 44.111Z" fill="#fff"/><path d="M491.379 45.5465C491.775 45.4264 491.999 45.0077 491.879 44.6113C491.759 44.2149 491.34 43.9909 490.944 44.111C490.646 44.2012 490.329 44.25 490 44.25H489.25C488.836 44.25 488.5 44.5858 488.5 45C488.5 45.4142 488.836 45.75 489.25 45.75H490C490.478 45.75 490.942 45.679 491.379 45.5465Z" fill="#fff"/></g><rect x="261.5" y="22.5" width="301" height="33" rx="8.5" stroke="#6A6E79"/><g clip-path="url(#clip1_342_63688)"><rect x="261" y="64" width="98" height="58" rx="7" fill="#6A6E79"/><path d="M304.411 93.8418C304.411 94.9421 304.271 95.9447 303.991 96.8496C303.717 97.748 303.304 98.5228 302.75 99.1738C302.197 99.8184 301.504 100.316 300.67 100.668C299.837 101.02 298.86 101.195 297.741 101.195C296.601 101.195 295.612 101.02 294.772 100.668C293.939 100.316 293.245 99.8151 292.692 99.1641C292.145 98.513 291.735 97.735 291.461 96.8301C291.188 95.9251 291.051 94.9225 291.051 93.8223C291.051 92.3509 291.292 91.0684 291.774 89.9746C292.262 88.8743 293.001 88.0215 293.991 87.416C294.987 86.804 296.243 86.498 297.76 86.498C299.245 86.498 300.478 86.8008 301.461 87.4062C302.444 88.0117 303.18 88.8646 303.668 89.9648C304.163 91.0586 304.411 92.3509 304.411 93.8418ZM293.512 93.8418C293.512 94.9421 293.662 95.8958 293.961 96.7031C294.261 97.5039 294.72 98.1224 295.338 98.5586C295.963 98.9883 296.764 99.2031 297.741 99.2031C298.724 99.2031 299.524 98.9883 300.143 98.5586C300.761 98.1224 301.217 97.5039 301.51 96.7031C301.803 95.8958 301.95 94.9421 301.95 93.8418C301.95 92.1686 301.614 90.86 300.944 89.916C300.28 88.9655 299.218 88.4902 297.76 88.4902C296.784 88.4902 295.98 88.7051 295.348 89.1348C294.723 89.5645 294.261 90.1797 293.961 90.9805C293.662 91.7747 293.512 92.7285 293.512 93.8418ZM313.027 89.9844C314.245 89.9844 315.192 90.3001 315.869 90.9316C316.553 91.5566 316.895 92.5625 316.895 93.9492V101H314.6V94.3789C314.6 93.5391 314.427 92.9108 314.082 92.4941C313.737 92.071 313.203 91.8594 312.48 91.8594C311.432 91.8594 310.703 92.1816 310.293 92.8262C309.889 93.4707 309.688 94.4049 309.688 95.6289V101H307.393V90.1895H309.18L309.502 91.6543H309.629C309.863 91.2767 310.153 90.9674 310.498 90.7266C310.85 90.4792 311.24 90.2936 311.67 90.1699C312.106 90.0462 312.559 89.9844 313.027 89.9844ZM324.564 89.9844C325.528 89.9844 326.354 90.1829 327.045 90.5801C327.735 90.9772 328.265 91.5404 328.636 92.2695C329.007 92.9987 329.193 93.8711 329.193 94.8867V96.1172H321.976C322.002 97.1654 322.282 97.9727 322.816 98.5391C323.356 99.1055 324.112 99.3887 325.082 99.3887C325.772 99.3887 326.39 99.3236 326.937 99.1934C327.49 99.0566 328.06 98.8581 328.646 98.5977V100.463C328.106 100.717 327.556 100.902 326.996 101.02C326.436 101.137 325.765 101.195 324.984 101.195C323.923 101.195 322.989 100.99 322.181 100.58C321.38 100.163 320.752 99.5449 320.296 98.7246C319.847 97.9043 319.623 96.8854 319.623 95.668C319.623 94.457 319.828 93.4284 320.238 92.582C320.648 91.7357 321.224 91.0911 321.966 90.6484C322.709 90.2057 323.574 89.9844 324.564 89.9844ZM324.564 91.7129C323.841 91.7129 323.255 91.9473 322.806 92.416C322.364 92.8848 322.103 93.5716 322.025 94.4766H326.947C326.94 93.9362 326.849 93.4577 326.673 93.041C326.504 92.6243 326.244 92.2988 325.892 92.0645C325.547 91.8301 325.104 91.7129 324.564 91.7129Z" fill="#fff"/><rect x="261" y="64" width="98" height="58" rx="7" stroke="#6A6E79" stroke-width="2"/><path d="M396.764 101H394.411V88.7148H390.231V86.7227H400.934V88.7148H396.764V101ZM411.875 100.99L410.508 95.9609C410.443 95.7135 410.365 95.4141 410.273 95.0625C410.182 94.7109 410.091 94.3496 410 93.9785C409.909 93.6009 409.824 93.2526 409.746 92.9336C409.674 92.6146 409.619 92.3672 409.58 92.1914H409.502C409.469 92.3672 409.417 92.6146 409.346 92.9336C409.274 93.2526 409.193 93.6009 409.102 93.9785C409.01 94.3561 408.919 94.724 408.828 95.082C408.743 95.4401 408.665 95.7461 408.594 96L407.158 100.99H404.639L401.611 90.1797H403.936L405.342 95.5508C405.433 95.9154 405.521 96.3092 405.605 96.7324C405.697 97.1556 405.775 97.5592 405.84 97.9434C405.905 98.3275 405.954 98.6432 405.986 98.8906H406.064C406.09 98.7148 406.126 98.4935 406.172 98.2266C406.217 97.9531 406.27 97.6699 406.328 97.377C406.387 97.0775 406.445 96.7975 406.504 96.5371C406.562 96.2702 406.618 96.0553 406.67 95.8926L408.33 90.1797H410.84L412.432 95.8926C412.503 96.14 412.581 96.4525 412.666 96.8301C412.751 97.2012 412.826 97.5755 412.891 97.9531C412.962 98.3242 413.008 98.6335 413.027 98.8809H413.105C413.132 98.6595 413.177 98.36 413.242 97.9824C413.314 97.5983 413.395 97.1914 413.486 96.7617C413.577 96.3255 413.672 95.9219 413.77 95.5508L415.205 90.1797H417.49L414.443 100.99H411.875ZM429.066 95.5703C429.066 96.4688 428.949 97.2663 428.714 97.9629C428.48 98.6595 428.138 99.2487 427.689 99.7305C427.24 100.206 426.699 100.57 426.068 100.824C425.436 101.072 424.724 101.195 423.929 101.195C423.187 101.195 422.507 101.072 421.888 100.824C421.27 100.57 420.733 100.206 420.277 99.7305C419.828 99.2487 419.479 98.6595 419.232 97.9629C418.985 97.2663 418.861 96.4688 418.861 95.5703C418.861 94.3789 419.066 93.3698 419.476 92.543C419.893 91.7096 420.485 91.0749 421.254 90.6387C422.022 90.2025 422.936 89.9844 423.998 89.9844C424.994 89.9844 425.873 90.2025 426.634 90.6387C427.396 91.0749 427.992 91.7096 428.421 92.543C428.851 93.3763 429.066 94.3854 429.066 95.5703ZM421.224 95.5703C421.224 96.3581 421.319 97.0319 421.507 97.5918C421.703 98.1517 422.002 98.5814 422.406 98.8809C422.81 99.1738 423.33 99.3203 423.968 99.3203C424.606 99.3203 425.127 99.1738 425.531 98.8809C425.935 98.5814 426.231 98.1517 426.42 97.5918C426.608 97.0319 426.703 96.3581 426.703 95.5703C426.703 94.7826 426.608 94.1152 426.42 93.5684C426.231 93.015 425.935 92.5951 425.531 92.3086C425.127 92.0156 424.603 91.8691 423.959 91.8691C423.008 91.8691 422.315 92.1882 421.879 92.8262C421.442 93.4642 421.224 94.3789 421.224 95.5703Z" fill="#fff"/><line x1="462.5" y1="81" x2="462.5" y2="105" stroke="#6A6E79"/><path d="M492.675 101H490.321V88.7148H486.141V86.7227H496.845V88.7148H492.675V101ZM501.243 85.8047V89.623C501.243 90.0202 501.23 90.4076 501.204 90.7852C501.184 91.1628 501.161 91.4557 501.135 91.6641H501.262C501.49 91.2865 501.77 90.9772 502.102 90.7363C502.434 90.4889 502.805 90.3034 503.215 90.1797C503.632 90.056 504.075 89.9941 504.543 89.9941C505.37 89.9941 506.073 90.1341 506.653 90.4141C507.232 90.6875 507.675 91.1139 507.981 91.6934C508.293 92.2728 508.45 93.0247 508.45 93.9492V101H506.155V94.3789C506.155 93.5391 505.982 92.9108 505.637 92.4941C505.292 92.071 504.758 91.8594 504.036 91.8594C503.339 91.8594 502.786 92.0059 502.375 92.2988C501.972 92.5853 501.682 93.0117 501.506 93.5781C501.33 94.138 501.243 94.8216 501.243 95.6289V101H498.948V85.8047H501.243ZM517.291 89.9844C517.473 89.9844 517.672 89.9941 517.887 90.0137C518.102 90.0332 518.287 90.0592 518.443 90.0918L518.229 92.2402C518.092 92.2012 517.923 92.1719 517.721 92.1523C517.525 92.1328 517.35 92.123 517.193 92.123C516.783 92.123 516.393 92.1914 516.021 92.3281C515.65 92.4583 515.322 92.6602 515.035 92.9336C514.749 93.2005 514.524 93.5358 514.361 93.9395C514.199 94.3431 514.117 94.8118 514.117 95.3457V101H511.812V90.1895H513.609L513.922 92.0938H514.029C514.244 91.7096 514.511 91.3581 514.83 91.0391C515.149 90.7201 515.514 90.4661 515.924 90.2773C516.34 90.082 516.796 89.9844 517.291 89.9844ZM524.902 89.9844C525.865 89.9844 526.692 90.1829 527.382 90.5801C528.073 90.9772 528.603 91.5404 528.974 92.2695C529.345 92.9987 529.531 93.8711 529.531 94.8867V96.1172H522.314C522.34 97.1654 522.62 97.9727 523.154 98.5391C523.694 99.1055 524.449 99.3887 525.42 99.3887C526.11 99.3887 526.728 99.3236 527.275 99.1934C527.828 99.0566 528.398 98.8581 528.984 98.5977V100.463C528.444 100.717 527.893 100.902 527.334 101.02C526.774 101.137 526.103 101.195 525.322 101.195C524.261 101.195 523.326 100.99 522.519 100.58C521.718 100.163 521.09 99.5449 520.634 98.7246C520.185 97.9043 519.961 96.8854 519.961 95.668C519.961 94.457 520.166 93.4284 520.576 92.582C520.986 91.7357 521.562 91.0911 522.304 90.6484C523.046 90.2057 523.912 89.9844 524.902 89.9844ZM524.902 91.7129C524.179 91.7129 523.593 91.9473 523.144 92.416C522.701 92.8848 522.441 93.5716 522.363 94.4766H527.285C527.278 93.9362 527.187 93.4577 527.011 93.041C526.842 92.6243 526.582 92.2988 526.23 92.0645C525.885 91.8301 525.442 91.7129 524.902 91.7129ZM536.575 89.9844C537.539 89.9844 538.366 90.1829 539.056 90.5801C539.746 90.9772 540.277 91.5404 540.648 92.2695C541.019 92.9987 541.204 93.8711 541.204 94.8867V96.1172H533.987C534.014 97.1654 534.293 97.9727 534.827 98.5391C535.368 99.1055 536.123 99.3887 537.093 99.3887C537.783 99.3887 538.402 99.3236 538.948 99.1934C539.502 99.0566 540.071 98.8581 540.657 98.5977V100.463C540.117 100.717 539.567 100.902 539.007 101.02C538.447 101.137 537.777 101.195 536.995 101.195C535.934 101.195 535 100.99 534.193 100.58C533.392 100.163 532.764 99.5449 532.308 98.7246C531.859 97.9043 531.634 96.8854 531.634 95.668C531.634 94.457 531.839 93.4284 532.249 92.582C532.659 91.7357 533.236 91.0911 533.978 90.6484C534.72 90.2057 535.586 89.9844 536.575 89.9844ZM536.575 91.7129C535.853 91.7129 535.267 91.9473 534.818 92.416C534.375 92.8848 534.114 93.5716 534.036 94.4766H538.958C538.952 93.9362 538.861 93.4577 538.685 93.041C538.515 92.6243 538.255 92.2988 537.904 92.0645C537.558 91.8301 537.116 91.7129 536.575 91.7129Z" fill="#fff"/></g><rect x="261.5" y="64.5" width="301" height="57" rx="8.5" stroke="#6A6E79"/><g clip-path="url(#clip2_342_63688)"><rect x="261" y="130" width="72" height="42" rx="21" fill="#019AEB"/><path d="M292.398 151.273C292.398 152.154 292.286 152.956 292.062 153.68C291.844 154.398 291.513 155.018 291.07 155.539C290.628 156.055 290.073 156.453 289.406 156.734C288.74 157.016 287.958 157.156 287.062 157.156C286.151 157.156 285.359 157.016 284.688 156.734C284.021 156.453 283.466 156.052 283.023 155.531C282.586 155.01 282.258 154.388 282.039 153.664C281.82 152.94 281.711 152.138 281.711 151.258C281.711 150.081 281.904 149.055 282.289 148.18C282.68 147.299 283.271 146.617 284.062 146.133C284.859 145.643 285.865 145.398 287.078 145.398C288.266 145.398 289.253 145.641 290.039 146.125C290.826 146.609 291.414 147.292 291.805 148.172C292.201 149.047 292.398 150.081 292.398 151.273ZM283.68 151.273C283.68 152.154 283.799 152.917 284.039 153.562C284.279 154.203 284.646 154.698 285.141 155.047C285.641 155.391 286.281 155.562 287.062 155.562C287.849 155.562 288.49 155.391 288.984 155.047C289.479 154.698 289.844 154.203 290.078 153.562C290.312 152.917 290.43 152.154 290.43 151.273C290.43 149.935 290.161 148.888 289.625 148.133C289.094 147.372 288.245 146.992 287.078 146.992C286.297 146.992 285.654 147.164 285.148 147.508C284.648 147.852 284.279 148.344 284.039 148.984C283.799 149.62 283.68 150.383 283.68 151.273ZM299.422 148.188C300.396 148.188 301.154 148.44 301.695 148.945C302.242 149.445 302.516 150.25 302.516 151.359V157H300.68V151.703C300.68 151.031 300.542 150.529 300.266 150.195C299.99 149.857 299.562 149.688 298.984 149.688C298.146 149.688 297.562 149.945 297.234 150.461C296.911 150.977 296.75 151.724 296.75 152.703V157H294.914V148.352H296.344L296.602 149.523H296.703C296.891 149.221 297.122 148.974 297.398 148.781C297.68 148.583 297.992 148.435 298.336 148.336C298.685 148.237 299.047 148.188 299.422 148.188ZM308.781 148.188C309.552 148.188 310.214 148.346 310.766 148.664C311.318 148.982 311.742 149.432 312.039 150.016C312.336 150.599 312.484 151.297 312.484 152.109V153.094H306.711C306.732 153.932 306.956 154.578 307.383 155.031C307.815 155.484 308.419 155.711 309.195 155.711C309.747 155.711 310.242 155.659 310.68 155.555C311.122 155.445 311.578 155.286 312.047 155.078V156.57C311.615 156.773 311.174 156.922 310.727 157.016C310.279 157.109 309.742 157.156 309.117 157.156C308.268 157.156 307.521 156.992 306.875 156.664C306.234 156.331 305.732 155.836 305.367 155.18C305.008 154.523 304.828 153.708 304.828 152.734C304.828 151.766 304.992 150.943 305.32 150.266C305.648 149.589 306.109 149.073 306.703 148.719C307.297 148.365 307.99 148.188 308.781 148.188ZM308.781 149.57C308.203 149.57 307.734 149.758 307.375 150.133C307.021 150.508 306.812 151.057 306.75 151.781H310.688C310.682 151.349 310.609 150.966 310.469 150.633C310.333 150.299 310.125 150.039 309.844 149.852C309.568 149.664 309.214 149.57 308.781 149.57Z" fill="#fff"/><rect x="261" y="130" width="72" height="42" rx="21" stroke="#019AEB" stroke-width="2"/><path d="M360.281 157H358.398V147.172H355.055V145.578H363.617V147.172H360.281V157ZM372.5 156.992L371.406 152.969C371.354 152.771 371.292 152.531 371.219 152.25C371.146 151.969 371.073 151.68 371 151.383C370.927 151.081 370.859 150.802 370.797 150.547C370.74 150.292 370.695 150.094 370.664 149.953H370.602C370.576 150.094 370.534 150.292 370.477 150.547C370.419 150.802 370.354 151.081 370.281 151.383C370.208 151.685 370.135 151.979 370.062 152.266C369.995 152.552 369.932 152.797 369.875 153L368.727 156.992H366.711L364.289 148.344H366.148L367.273 152.641C367.346 152.932 367.417 153.247 367.484 153.586C367.557 153.924 367.62 154.247 367.672 154.555C367.724 154.862 367.763 155.115 367.789 155.312H367.852C367.872 155.172 367.901 154.995 367.938 154.781C367.974 154.562 368.016 154.336 368.062 154.102C368.109 153.862 368.156 153.638 368.203 153.43C368.25 153.216 368.294 153.044 368.336 152.914L369.664 148.344H371.672L372.945 152.914C373.003 153.112 373.065 153.362 373.133 153.664C373.201 153.961 373.26 154.26 373.312 154.562C373.37 154.859 373.406 155.107 373.422 155.305H373.484C373.505 155.128 373.542 154.888 373.594 154.586C373.651 154.279 373.716 153.953 373.789 153.609C373.862 153.26 373.938 152.938 374.016 152.641L375.164 148.344H376.992L374.555 156.992H372.5ZM386.383 152.656C386.383 153.375 386.289 154.013 386.102 154.57C385.914 155.128 385.641 155.599 385.281 155.984C384.922 156.365 384.49 156.656 383.984 156.859C383.479 157.057 382.909 157.156 382.273 157.156C381.68 157.156 381.135 157.057 380.641 156.859C380.146 156.656 379.716 156.365 379.352 155.984C378.992 155.599 378.714 155.128 378.516 154.57C378.318 154.013 378.219 153.375 378.219 152.656C378.219 151.703 378.383 150.896 378.711 150.234C379.044 149.568 379.518 149.06 380.133 148.711C380.747 148.362 381.479 148.188 382.328 148.188C383.125 148.188 383.828 148.362 384.438 148.711C385.047 149.06 385.523 149.568 385.867 150.234C386.211 150.901 386.383 151.708 386.383 152.656ZM380.109 152.656C380.109 153.286 380.185 153.826 380.336 154.273C380.492 154.721 380.732 155.065 381.055 155.305C381.378 155.539 381.794 155.656 382.305 155.656C382.815 155.656 383.232 155.539 383.555 155.305C383.878 155.065 384.115 154.721 384.266 154.273C384.417 153.826 384.492 153.286 384.492 152.656C384.492 152.026 384.417 151.492 384.266 151.055C384.115 150.612 383.878 150.276 383.555 150.047C383.232 149.812 382.812 149.695 382.297 149.695C381.536 149.695 380.982 149.951 380.633 150.461C380.284 150.971 380.109 151.703 380.109 152.656Z" fill="#fff"/><line x1="410.5" y1="139" x2="410.5" y2="163" stroke="#019AEB"/><path d="M431.68 157H429.797V147.172H426.453V145.578H435.016V147.172H431.68V157ZM438.664 144.844V147.898C438.664 148.216 438.654 148.526 438.633 148.828C438.617 149.13 438.599 149.365 438.578 149.531H438.68C438.862 149.229 439.086 148.982 439.352 148.789C439.617 148.591 439.914 148.443 440.242 148.344C440.576 148.245 440.93 148.195 441.305 148.195C441.966 148.195 442.529 148.307 442.992 148.531C443.456 148.75 443.81 149.091 444.055 149.555C444.305 150.018 444.43 150.62 444.43 151.359V157H442.594V151.703C442.594 151.031 442.456 150.529 442.18 150.195C441.904 149.857 441.477 149.688 440.898 149.688C440.341 149.688 439.898 149.805 439.57 150.039C439.247 150.268 439.016 150.609 438.875 151.062C438.734 151.51 438.664 152.057 438.664 152.703V157H436.828V144.844H438.664ZM451.633 148.188C451.779 148.188 451.938 148.195 452.109 148.211C452.281 148.227 452.43 148.247 452.555 148.273L452.383 149.992C452.273 149.961 452.138 149.938 451.977 149.922C451.82 149.906 451.68 149.898 451.555 149.898C451.227 149.898 450.914 149.953 450.617 150.062C450.32 150.167 450.057 150.328 449.828 150.547C449.599 150.76 449.419 151.029 449.289 151.352C449.159 151.674 449.094 152.049 449.094 152.477V157H447.25V148.352H448.688L448.938 149.875H449.023C449.195 149.568 449.409 149.286 449.664 149.031C449.919 148.776 450.211 148.573 450.539 148.422C450.872 148.266 451.237 148.188 451.633 148.188ZM457.852 148.188C458.622 148.188 459.284 148.346 459.836 148.664C460.388 148.982 460.812 149.432 461.109 150.016C461.406 150.599 461.555 151.297 461.555 152.109V153.094H455.781C455.802 153.932 456.026 154.578 456.453 155.031C456.885 155.484 457.49 155.711 458.266 155.711C458.818 155.711 459.312 155.659 459.75 155.555C460.193 155.445 460.648 155.286 461.117 155.078V156.57C460.685 156.773 460.245 156.922 459.797 157.016C459.349 157.109 458.812 157.156 458.188 157.156C457.339 157.156 456.591 156.992 455.945 156.664C455.305 156.331 454.802 155.836 454.438 155.18C454.078 154.523 453.898 153.708 453.898 152.734C453.898 151.766 454.062 150.943 454.391 150.266C454.719 149.589 455.18 149.073 455.773 148.719C456.367 148.365 457.06 148.188 457.852 148.188ZM457.852 149.57C457.273 149.57 456.805 149.758 456.445 150.133C456.091 150.508 455.883 151.057 455.82 151.781H459.758C459.753 151.349 459.68 150.966 459.539 150.633C459.404 150.299 459.195 150.039 458.914 149.852C458.638 149.664 458.284 149.57 457.852 149.57ZM467.32 148.188C468.091 148.188 468.753 148.346 469.305 148.664C469.857 148.982 470.281 149.432 470.578 150.016C470.875 150.599 471.023 151.297 471.023 152.109V153.094H465.25C465.271 153.932 465.495 154.578 465.922 155.031C466.354 155.484 466.958 155.711 467.734 155.711C468.286 155.711 468.781 155.659 469.219 155.555C469.661 155.445 470.117 155.286 470.586 155.078V156.57C470.154 156.773 469.714 156.922 469.266 157.016C468.818 157.109 468.281 157.156 467.656 157.156C466.807 157.156 466.06 156.992 465.414 156.664C464.773 156.331 464.271 155.836 463.906 155.18C463.547 154.523 463.367 153.708 463.367 152.734C463.367 151.766 463.531 150.943 463.859 150.266C464.188 149.589 464.648 149.073 465.242 148.719C465.836 148.365 466.529 148.188 467.32 148.188ZM467.32 149.57C466.742 149.57 466.273 149.758 465.914 150.133C465.56 150.508 465.352 151.057 465.289 151.781H469.227C469.221 151.349 469.148 150.966 469.008 150.633C468.872 150.299 468.664 150.039 468.383 149.852C468.107 149.664 467.753 149.57 467.32 149.57Z" fill="#fff"/><line x1="488.5" y1="139" x2="488.5" y2="163" stroke="#019AEB"/><path d="M512.297 157H510.438V145.578H516.891V147.156H512.297V150.719H516.594V152.289H512.297V157ZM526.688 152.656C526.688 153.375 526.594 154.013 526.406 154.57C526.219 155.128 525.945 155.599 525.586 155.984C525.227 156.365 524.794 156.656 524.289 156.859C523.784 157.057 523.214 157.156 522.578 157.156C521.984 157.156 521.44 157.057 520.945 156.859C520.451 156.656 520.021 156.365 519.656 155.984C519.297 155.599 519.018 155.128 518.82 154.57C518.622 154.013 518.523 153.375 518.523 152.656C518.523 151.703 518.688 150.896 519.016 150.234C519.349 149.568 519.823 149.06 520.438 148.711C521.052 148.362 521.784 148.188 522.633 148.188C523.43 148.188 524.133 148.362 524.742 148.711C525.352 149.06 525.828 149.568 526.172 150.234C526.516 150.901 526.688 151.708 526.688 152.656ZM520.414 152.656C520.414 153.286 520.49 153.826 520.641 154.273C520.797 154.721 521.036 155.065 521.359 155.305C521.682 155.539 522.099 155.656 522.609 155.656C523.12 155.656 523.536 155.539 523.859 155.305C524.182 155.065 524.419 154.721 524.57 154.273C524.721 153.826 524.797 153.286 524.797 152.656C524.797 152.026 524.721 151.492 524.57 151.055C524.419 150.612 524.182 150.276 523.859 150.047C523.536 149.812 523.117 149.695 522.602 149.695C521.841 149.695 521.286 149.951 520.938 150.461C520.589 150.971 520.414 151.703 520.414 152.656ZM536.586 148.352V157H535.141L534.891 155.836H534.789C534.607 156.133 534.375 156.38 534.094 156.578C533.812 156.771 533.5 156.914 533.156 157.008C532.812 157.107 532.451 157.156 532.07 157.156C531.419 157.156 530.862 157.047 530.398 156.828C529.94 156.604 529.589 156.26 529.344 155.797C529.099 155.333 528.977 154.734 528.977 154V148.352H530.82V153.656C530.82 154.328 530.956 154.831 531.227 155.164C531.503 155.497 531.93 155.664 532.508 155.664C533.065 155.664 533.508 155.549 533.836 155.32C534.164 155.091 534.396 154.753 534.531 154.305C534.672 153.857 534.742 153.307 534.742 152.656V148.352H536.586ZM543.852 148.188C543.997 148.188 544.156 148.195 544.328 148.211C544.5 148.227 544.648 148.247 544.773 148.273L544.602 149.992C544.492 149.961 544.357 149.938 544.195 149.922C544.039 149.906 543.898 149.898 543.773 149.898C543.445 149.898 543.133 149.953 542.836 150.062C542.539 150.167 542.276 150.328 542.047 150.547C541.818 150.76 541.638 151.029 541.508 151.352C541.378 151.674 541.312 152.049 541.312 152.477V157H539.469V148.352H540.906L541.156 149.875H541.242C541.414 149.568 541.628 149.286 541.883 149.031C542.138 148.776 542.43 148.573 542.758 148.422C543.091 148.266 543.456 148.188 543.852 148.188Z" fill="#fff"/></g><rect x="261.5" y="130.5" width="301" height="41" rx="20.5" stroke="#019AEB"/><g clip-path="url(#clip3_342_63688)"><rect x="261.5" y="180.5" width="55.4" height="57" rx="4.5" fill="#019AEB"/><path d="M281.199 196.667C280.609 196.667 280.05 196.784 279.54 196.995C279.03 197.207 278.445 196.965 278.233 196.454C278.022 195.944 278.264 195.359 278.774 195.148C279.522 194.837 280.342 194.667 281.199 194.667H283.199C283.751 194.667 284.199 195.114 284.199 195.667C284.199 196.219 283.751 196.667 283.199 196.667H281.199Z" fill="#fff"/><path d="M286.199 195.667C286.199 195.114 286.646 194.667 287.199 194.667H291.199C291.751 194.667 292.199 195.114 292.199 195.667C292.199 196.219 291.751 196.667 291.199 196.667H287.199C286.646 196.667 286.199 196.219 286.199 195.667Z" fill="#fff"/><path d="M294.199 195.667C294.199 195.114 294.646 194.667 295.199 194.667H297.199C298.055 194.667 298.875 194.837 299.623 195.148C300.133 195.359 300.375 195.944 300.164 196.454C299.952 196.965 299.367 197.207 298.857 196.995C298.348 196.784 297.788 196.667 297.199 196.667H295.199C294.646 196.667 294.199 196.219 294.199 195.667Z" fill="#fff"/><path d="M276.653 198.035C277.163 198.246 277.405 198.831 277.194 199.342C276.982 199.851 276.865 200.411 276.865 201V203C276.865 203.552 276.418 204 275.865 204C275.313 204 274.865 203.552 274.865 203V201C274.865 200.143 275.036 199.324 275.346 198.575C275.558 198.065 276.143 197.823 276.653 198.035Z" fill="#fff"/><path d="M301.744 198.035C302.254 197.823 302.839 198.065 303.051 198.575C303.361 199.324 303.532 200.143 303.532 201V203C303.532 203.552 303.084 204 302.532 204C301.98 204 301.532 203.552 301.532 203V201C301.532 200.411 301.415 199.851 301.203 199.342C300.992 198.831 301.234 198.246 301.744 198.035Z" fill="#fff"/><path d="M275.865 206C276.418 206 276.865 206.448 276.865 207V211C276.865 211.552 276.418 212 275.865 212C275.313 212 274.865 211.552 274.865 211V207C274.865 206.448 275.313 206 275.865 206Z" fill="#fff"/><path d="M302.532 206C303.084 206 303.532 206.448 303.532 207V211C303.532 211.552 303.084 212 302.532 212C301.98 212 301.532 211.552 301.532 211V207C301.532 206.448 301.98 206 302.532 206Z" fill="#fff"/><path d="M275.865 214C276.418 214 276.865 214.448 276.865 215V217C276.865 217.589 276.982 218.149 277.194 218.658C277.405 219.169 277.163 219.754 276.653 219.965C276.143 220.177 275.558 219.935 275.346 219.425C275.036 218.676 274.865 217.857 274.865 217V215C274.865 214.448 275.313 214 275.865 214Z" fill="#fff"/><path d="M302.532 214C303.084 214 303.532 214.448 303.532 215V217C303.532 217.857 303.361 218.676 303.051 219.425C302.839 219.935 302.254 220.177 301.744 219.965C301.234 219.754 300.992 219.169 301.203 218.658C301.415 218.149 301.532 217.589 301.532 217V215C301.532 214.448 301.98 214 302.532 214Z" fill="#fff"/><path d="M278.233 221.546C278.445 221.035 279.03 220.793 279.54 221.005C280.05 221.216 280.609 221.333 281.199 221.333H283.199C283.751 221.333 284.199 221.781 284.199 222.333C284.199 222.886 283.751 223.333 283.199 223.333H281.199C280.342 223.333 279.522 223.163 278.774 222.852C278.264 222.641 278.022 222.056 278.233 221.546Z" fill="#fff"/><path d="M300.164 221.546C300.375 222.056 300.133 222.641 299.623 222.852C298.875 223.163 298.055 223.333 297.199 223.333H295.199C294.646 223.333 294.199 222.886 294.199 222.333C294.199 221.781 294.646 221.333 295.199 221.333H297.199C297.788 221.333 298.348 221.216 298.857 221.005C299.367 220.793 299.952 221.035 300.164 221.546Z" fill="#fff"/><path d="M286.199 222.333C286.199 221.781 286.646 221.333 287.199 221.333H291.199C291.751 221.333 292.199 221.781 292.199 222.333C292.199 222.886 291.751 223.333 291.199 223.333H287.199C286.646 223.333 286.199 222.886 286.199 222.333Z" fill="#fff"/><path d="M300.572 199.121C300.963 198.731 300.963 198.098 300.572 197.707C300.182 197.317 299.549 197.317 299.158 197.707L297.83 199.035C297.439 199.426 297.439 200.059 297.83 200.45C298.22 200.84 298.854 200.84 299.244 200.45L300.572 199.121Z" fill="#fff"/><path d="M296.588 203.106C296.978 202.716 296.978 202.082 296.588 201.692C296.197 201.301 295.564 201.301 295.173 201.692L292.517 204.349C292.126 204.739 292.126 205.372 292.517 205.763C292.907 206.153 293.54 206.153 293.931 205.763L296.588 203.106Z" fill="#fff"/><path d="M291.274 208.419C291.665 208.029 291.665 207.396 291.274 207.005C290.884 206.615 290.251 206.615 289.86 207.005L289.199 207.667L288.537 207.005C288.146 206.615 287.513 206.615 287.123 207.005C286.732 207.396 286.732 208.029 287.123 208.419L287.784 209.081L287.204 209.662C286.813 210.052 286.813 210.685 287.204 211.076C287.594 211.466 288.227 211.466 288.618 211.076L289.199 210.495L289.779 211.076C290.17 211.466 290.803 211.466 291.194 211.076C291.584 210.685 291.584 210.052 291.194 209.662L290.613 209.081L291.274 208.419Z" fill="#fff"/><path d="M285.961 213.732C286.352 213.342 286.352 212.709 285.961 212.318C285.571 211.928 284.938 211.928 284.547 212.318L281.891 214.975C281.5 215.365 281.5 215.998 281.891 216.389C282.281 216.779 282.914 216.779 283.305 216.389L285.961 213.732Z" fill="#fff"/><path d="M280.648 219.046C281.039 218.655 281.039 218.022 280.648 217.631C280.258 217.241 279.624 217.241 279.234 217.631L277.906 218.96C277.515 219.35 277.515 219.983 277.906 220.374C278.296 220.764 278.929 220.764 279.32 220.374L280.648 219.046Z" fill="#fff"/><path d="M299.077 220.374C299.468 220.764 300.101 220.764 300.491 220.374C300.882 219.983 300.882 219.35 300.491 218.96L299.163 217.631C298.773 217.241 298.139 217.241 297.749 217.631C297.358 218.022 297.358 218.655 297.749 219.045L299.077 220.374Z" fill="#fff"/><path d="M295.092 216.389C295.483 216.779 296.116 216.779 296.507 216.389C296.897 215.998 296.897 215.365 296.507 214.975L293.85 212.318C293.46 211.928 292.826 211.928 292.436 212.318C292.045 212.709 292.045 213.342 292.436 213.732L295.092 216.389Z" fill="#fff"/><path d="M284.466 205.763C284.857 206.153 285.49 206.153 285.88 205.763C286.271 205.372 286.271 204.739 285.88 204.349L283.224 201.692C282.833 201.301 282.2 201.301 281.81 201.692C281.419 202.082 281.419 202.716 281.81 203.106L284.466 205.763Z" fill="#fff"/><path d="M279.153 200.45C279.544 200.84 280.177 200.84 280.567 200.45C280.958 200.059 280.958 199.426 280.567 199.035L279.239 197.707C278.848 197.317 278.215 197.317 277.825 197.707C277.434 198.098 277.434 198.731 277.825 199.121L279.153 200.45Z" fill="#fff"/><path d="M285.273 202.185C285.67 202.065 286.093 202 286.532 202H287.532C288.084 202 288.532 201.552 288.532 201C288.532 200.448 288.084 200 287.532 200H286.532C285.894 200 285.276 200.095 284.693 200.271C284.165 200.431 283.866 200.99 284.026 201.518C284.186 202.047 284.745 202.346 285.273 202.185Z" fill="#fff"/><path d="M290.865 200C290.313 200 289.865 200.448 289.865 201C289.865 201.552 290.313 202 290.865 202H291.865C292.305 202 292.727 202.065 293.124 202.185C293.653 202.346 294.211 202.047 294.371 201.518C294.531 200.99 294.232 200.431 293.704 200.271C293.121 200.095 292.503 200 291.865 200H290.865Z" fill="#fff"/><path d="M282.384 205.075C282.544 204.546 282.245 203.988 281.717 203.828C281.188 203.667 280.63 203.966 280.47 204.495C280.293 205.078 280.199 205.695 280.199 206.333V207.333C280.199 207.886 280.646 208.333 281.199 208.333C281.751 208.333 282.199 207.886 282.199 207.333V206.333C282.199 205.894 282.264 205.472 282.384 205.075Z" fill="#fff"/><path d="M297.927 204.495C297.767 203.966 297.209 203.667 296.68 203.828C296.152 203.988 295.853 204.546 296.013 205.075C296.134 205.472 296.199 205.894 296.199 206.333V207.333C296.199 207.886 296.646 208.333 297.199 208.333C297.751 208.333 298.199 207.886 298.199 207.333V206.333C298.199 205.695 298.104 205.078 297.927 204.495Z" fill="#fff"/><path d="M282.199 210.667C282.199 210.114 281.751 209.667 281.199 209.667C280.646 209.667 280.199 210.114 280.199 210.667V211.667C280.199 212.305 280.293 212.922 280.47 213.505C280.63 214.034 281.188 214.333 281.717 214.172C282.245 214.012 282.544 213.454 282.384 212.925C282.264 212.528 282.199 212.106 282.199 211.667V210.667Z" fill="#fff"/><path d="M298.199 210.667C298.199 210.114 297.751 209.667 297.199 209.667C296.646 209.667 296.199 210.114 296.199 210.667V211.667C296.199 212.106 296.134 212.528 296.013 212.925C295.853 213.454 296.152 214.012 296.68 214.172C297.209 214.333 297.767 214.034 297.927 213.505C298.104 212.922 298.199 212.305 298.199 211.667V210.667Z" fill="#fff"/><path d="M285.273 215.815C284.745 215.654 284.186 215.953 284.026 216.482C283.866 217.01 284.165 217.569 284.693 217.729C285.276 217.905 285.894 218 286.532 218H287.532C288.084 218 288.532 217.552 288.532 217C288.532 216.448 288.084 216 287.532 216H286.532C286.093 216 285.67 215.935 285.273 215.815Z" fill="#fff"/><path d="M293.704 217.729C294.232 217.569 294.531 217.01 294.371 216.482C294.211 215.953 293.653 215.654 293.124 215.815C292.727 215.935 292.305 216 291.865 216H290.865C290.313 216 289.865 216.448 289.865 217C289.865 217.552 290.313 218 290.865 218H291.865C292.503 218 293.121 217.905 293.704 217.729Z" fill="#fff"/><rect x="261.5" y="180.5" width="55.4" height="57" rx="4.5" stroke="#019AEB"/><path d="M339.599 196.667C339.01 196.667 338.45 196.784 337.94 196.995C337.43 197.207 336.845 196.965 336.634 196.454C336.422 195.944 336.664 195.359 337.174 195.148C337.923 194.837 338.742 194.667 339.599 194.667H341.599C342.151 194.667 342.599 195.114 342.599 195.667C342.599 196.219 342.151 196.667 341.599 196.667H339.599Z" fill="#fff"/><path d="M344.599 195.667C344.599 195.114 345.047 194.667 345.599 194.667H349.599C350.151 194.667 350.599 195.114 350.599 195.667C350.599 196.219 350.151 196.667 349.599 196.667H345.599C345.047 196.667 344.599 196.219 344.599 195.667Z" fill="#fff"/><path d="M352.599 195.667C352.599 195.114 353.047 194.667 353.599 194.667H355.599C356.456 194.667 357.275 194.837 358.024 195.148C358.534 195.359 358.776 195.944 358.564 196.454C358.353 196.965 357.768 197.207 357.257 196.995C356.748 196.784 356.188 196.667 355.599 196.667H353.599C353.047 196.667 352.599 196.219 352.599 195.667Z" fill="#fff"/><path d="M335.053 198.035C335.564 198.246 335.806 198.831 335.594 199.342C335.383 199.851 335.266 200.411 335.266 201V203C335.266 203.552 334.818 204 334.266 204C333.713 204 333.266 203.552 333.266 203V201C333.266 200.143 333.436 199.324 333.747 198.575C333.958 198.065 334.543 197.823 335.053 198.035Z" fill="#fff"/><path d="M360.145 198.035C360.655 197.823 361.24 198.065 361.451 198.575C361.762 199.324 361.932 200.143 361.932 201V203C361.932 203.552 361.485 204 360.932 204C360.38 204 359.932 203.552 359.932 203V201C359.932 200.411 359.815 199.851 359.604 199.342C359.392 198.831 359.634 198.246 360.145 198.035Z" fill="#fff"/><path d="M334.266 206C334.818 206 335.266 206.448 335.266 207V211C335.266 211.552 334.818 212 334.266 212C333.713 212 333.266 211.552 333.266 211V207C333.266 206.448 333.713 206 334.266 206Z" fill="#fff"/><path d="M360.932 206C361.485 206 361.932 206.448 361.932 207V211C361.932 211.552 361.485 212 360.932 212C360.38 212 359.932 211.552 359.932 211V207C359.932 206.448 360.38 206 360.932 206Z" fill="#fff"/><path d="M334.266 214C334.818 214 335.266 214.448 335.266 215V217C335.266 217.589 335.383 218.149 335.594 218.658C335.806 219.169 335.564 219.754 335.053 219.965C334.543 220.177 333.958 219.935 333.747 219.425C333.436 218.676 333.266 217.857 333.266 217V215C333.266 214.448 333.713 214 334.266 214Z" fill="#fff"/><path d="M360.932 214C361.485 214 361.932 214.448 361.932 215V217C361.932 217.857 361.762 218.676 361.451 219.425C361.24 219.935 360.655 220.177 360.145 219.965C359.634 219.754 359.392 219.169 359.604 218.658C359.815 218.149 359.932 217.589 359.932 217V215C359.932 214.448 360.38 214 360.932 214Z" fill="#fff"/><path d="M336.634 221.546C336.845 221.035 337.43 220.793 337.94 221.005C338.45 221.216 339.01 221.333 339.599 221.333H341.599C342.151 221.333 342.599 221.781 342.599 222.333C342.599 222.886 342.151 223.333 341.599 223.333H339.599C338.742 223.333 337.923 223.163 337.174 222.852C336.664 222.641 336.422 222.056 336.634 221.546Z" fill="#fff"/><path d="M358.564 221.546C358.776 222.056 358.534 222.641 358.024 222.852C357.275 223.163 356.456 223.333 355.599 223.333H353.599C353.047 223.333 352.599 222.886 352.599 222.333C352.599 221.781 353.047 221.333 353.599 221.333H355.599C356.188 221.333 356.748 221.216 357.257 221.005C357.768 220.793 358.353 221.035 358.564 221.546Z" fill="#fff"/><path d="M344.599 222.333C344.599 221.781 345.047 221.333 345.599 221.333H349.599C350.151 221.333 350.599 221.781 350.599 222.333C350.599 222.886 350.151 223.333 349.599 223.333H345.599C345.047 223.333 344.599 222.886 344.599 222.333Z" fill="#fff"/><path d="M358.973 199.121C359.363 198.731 359.363 198.098 358.973 197.707C358.582 197.317 357.949 197.317 357.559 197.707L356.23 199.035C355.84 199.426 355.84 200.059 356.23 200.45C356.621 200.84 357.254 200.84 357.644 200.45L358.973 199.121Z" fill="#fff"/><path d="M354.988 203.106C355.378 202.716 355.378 202.082 354.988 201.692C354.597 201.301 353.964 201.301 353.574 201.692L350.917 204.349C350.527 204.739 350.527 205.372 350.917 205.763C351.308 206.153 351.941 206.153 352.331 205.763L354.988 203.106Z" fill="#fff"/><path d="M349.675 208.419C350.065 208.029 350.065 207.396 349.675 207.005C349.284 206.615 348.651 206.615 348.261 207.005L347.599 207.667L346.937 207.005C346.547 206.615 345.914 206.615 345.523 207.005C345.133 207.396 345.133 208.029 345.523 208.419L346.185 209.081L345.604 209.662C345.213 210.052 345.213 210.685 345.604 211.076C345.995 211.466 346.628 211.466 347.018 211.076L347.599 210.495L348.18 211.076C348.57 211.466 349.203 211.466 349.594 211.076C349.984 210.685 349.984 210.052 349.594 209.662L349.013 209.081L349.675 208.419Z" fill="#fff"/><path d="M344.362 213.732C344.752 213.342 344.752 212.709 344.362 212.318C343.971 211.928 343.338 211.928 342.947 212.318L340.291 214.975C339.9 215.365 339.9 215.998 340.291 216.389C340.681 216.779 341.315 216.779 341.705 216.389L344.362 213.732Z" fill="#fff"/><path d="M339.049 219.046C339.439 218.655 339.439 218.022 339.049 217.631C338.658 217.241 338.025 217.241 337.634 217.631L336.306 218.96C335.916 219.35 335.916 219.983 336.306 220.374C336.697 220.764 337.33 220.764 337.72 220.374L339.049 219.046Z" fill="#fff"/><path d="M357.478 220.374C357.868 220.764 358.501 220.764 358.892 220.374C359.282 219.983 359.282 219.35 358.892 218.96L357.564 217.631C357.173 217.241 356.54 217.241 356.149 217.631C355.759 218.022 355.759 218.655 356.149 219.045L357.478 220.374Z" fill="#fff"/><path d="M353.493 216.389C353.883 216.779 354.516 216.779 354.907 216.389C355.298 215.998 355.298 215.365 354.907 214.975L352.25 212.318C351.86 211.928 351.227 211.928 350.836 212.318C350.446 212.709 350.446 213.342 350.836 213.732L353.493 216.389Z" fill="#fff"/><path d="M342.867 205.763C343.257 206.153 343.89 206.153 344.281 205.763C344.671 205.372 344.671 204.739 344.281 204.349L341.624 201.692C341.234 201.301 340.601 201.301 340.21 201.692C339.819 202.082 339.819 202.716 340.21 203.106L342.867 205.763Z" fill="#fff"/><path d="M337.553 200.45C337.944 200.84 338.577 200.84 338.968 200.45C339.358 200.059 339.358 199.426 338.968 199.035L337.639 197.707C337.249 197.317 336.616 197.317 336.225 197.707C335.835 198.098 335.835 198.731 336.225 199.121L337.553 200.45Z" fill="#fff"/><path d="M343.674 202.185C344.071 202.065 344.493 202 344.932 202H345.932C346.485 202 346.932 201.552 346.932 201C346.932 200.448 346.485 200 345.932 200H344.932C344.294 200 343.677 200.095 343.094 200.271C342.565 200.431 342.266 200.99 342.427 201.518C342.587 202.047 343.145 202.346 343.674 202.185Z" fill="#fff"/><path d="M349.266 200C348.713 200 348.266 200.448 348.266 201C348.266 201.552 348.713 202 349.266 202H350.266C350.705 202 351.127 202.065 351.524 202.185C352.053 202.346 352.611 202.047 352.771 201.518C352.932 200.99 352.633 200.431 352.104 200.271C351.521 200.095 350.904 200 350.266 200H349.266Z" fill="#fff"/><path d="M340.784 205.075C340.944 204.546 340.646 203.988 340.117 203.828C339.589 203.667 339.03 203.966 338.87 204.495C338.694 205.078 338.599 205.695 338.599 206.333V207.333C338.599 207.886 339.047 208.333 339.599 208.333C340.151 208.333 340.599 207.886 340.599 207.333V206.333C340.599 205.894 340.664 205.472 340.784 205.075Z" fill="#fff"/><path d="M356.328 204.495C356.168 203.966 355.609 203.667 355.081 203.828C354.552 203.988 354.253 204.546 354.414 205.075C354.534 205.472 354.599 205.894 354.599 206.333V207.333C354.599 207.886 355.047 208.333 355.599 208.333C356.151 208.333 356.599 207.886 356.599 207.333V206.333C356.599 205.695 356.504 205.078 356.328 204.495Z" fill="#fff"/><path d="M340.599 210.667C340.599 210.114 340.151 209.667 339.599 209.667C339.047 209.667 338.599 210.114 338.599 210.667V211.667C338.599 212.305 338.694 212.922 338.87 213.505C339.03 214.034 339.589 214.333 340.117 214.172C340.646 214.012 340.944 213.454 340.784 212.925C340.664 212.528 340.599 212.106 340.599 211.667V210.667Z" fill="#fff"/><path d="M356.599 210.667C356.599 210.114 356.151 209.667 355.599 209.667C355.047 209.667 354.599 210.114 354.599 210.667V211.667C354.599 212.106 354.534 212.528 354.414 212.925C354.253 213.454 354.552 214.012 355.081 214.172C355.609 214.333 356.168 214.034 356.328 213.505C356.504 212.922 356.599 212.305 356.599 211.667V210.667Z" fill="#fff"/><path d="M343.674 215.815C343.145 215.654 342.587 215.953 342.427 216.482C342.266 217.01 342.565 217.569 343.094 217.729C343.677 217.905 344.294 218 344.932 218H345.932C346.485 218 346.932 217.552 346.932 217C346.932 216.448 346.485 216 345.932 216H344.932C344.493 216 344.071 215.935 343.674 215.815Z" fill="#fff"/><path d="M352.104 217.729C352.633 217.569 352.932 217.01 352.771 216.482C352.611 215.953 352.053 215.654 351.524 215.815C351.127 215.935 350.705 216 350.266 216H349.266C348.713 216 348.266 216.448 348.266 217C348.266 217.552 348.713 218 349.266 218H350.266C350.904 218 351.521 217.905 352.104 217.729Z" fill="#fff"/><line x1="379.301" y1="197" x2="379.301" y2="221" stroke="#019AEB"/><path d="M401.999 196.667C401.41 196.667 400.85 196.784 400.341 196.995C399.831 197.207 399.246 196.965 399.034 196.454C398.823 195.944 399.065 195.359 399.575 195.148C400.323 194.837 401.142 194.667 401.999 194.667H403.999C404.552 194.667 404.999 195.114 404.999 195.667C404.999 196.219 404.552 196.667 403.999 196.667H401.999Z" fill="#fff"/><path d="M406.999 195.667C406.999 195.114 407.447 194.667 407.999 194.667H411.999C412.552 194.667 412.999 195.114 412.999 195.667C412.999 196.219 412.552 196.667 411.999 196.667H407.999C407.447 196.667 406.999 196.219 406.999 195.667Z" fill="#fff"/><path d="M414.999 195.667C414.999 195.114 415.447 194.667 415.999 194.667H417.999C418.856 194.667 419.676 194.837 420.424 195.148C420.934 195.359 421.176 195.944 420.965 196.454C420.753 196.965 420.168 197.207 419.658 196.995C419.148 196.784 418.589 196.667 417.999 196.667H415.999C415.447 196.667 414.999 196.219 414.999 195.667Z" fill="#fff"/><path d="M397.454 198.035C397.964 198.246 398.206 198.831 397.994 199.342C397.783 199.851 397.666 200.411 397.666 201V203C397.666 203.552 397.218 204 396.666 204C396.114 204 395.666 203.552 395.666 203V201C395.666 200.143 395.837 199.324 396.147 198.575C396.359 198.065 396.944 197.823 397.454 198.035Z" fill="#fff"/><path d="M422.545 198.035C423.055 197.823 423.64 198.065 423.852 198.575C424.162 199.324 424.333 200.143 424.333 201V203C424.333 203.552 423.885 204 423.333 204C422.78 204 422.333 203.552 422.333 203V201C422.333 200.411 422.216 199.851 422.004 199.342C421.793 198.831 422.035 198.246 422.545 198.035Z" fill="#fff"/><path d="M396.666 206C397.218 206 397.666 206.448 397.666 207V211C397.666 211.552 397.218 212 396.666 212C396.114 212 395.666 211.552 395.666 211V207C395.666 206.448 396.114 206 396.666 206Z" fill="#fff"/><path d="M423.333 206C423.885 206 424.333 206.448 424.333 207V211C424.333 211.552 423.885 212 423.333 212C422.78 212 422.333 211.552 422.333 211V207C422.333 206.448 422.78 206 423.333 206Z" fill="#fff"/><path d="M396.666 214C397.218 214 397.666 214.448 397.666 215V217C397.666 217.589 397.783 218.149 397.994 218.658C398.206 219.169 397.964 219.754 397.454 219.965C396.944 220.177 396.359 219.935 396.147 219.425C395.837 218.676 395.666 217.857 395.666 217V215C395.666 214.448 396.114 214 396.666 214Z" fill="#fff"/><path d="M423.333 214C423.885 214 424.333 214.448 424.333 215V217C424.333 217.857 424.162 218.676 423.852 219.425C423.64 219.935 423.055 220.177 422.545 219.965C422.035 219.754 421.793 219.169 422.004 218.658C422.216 218.149 422.333 217.589 422.333 217V215C422.333 214.448 422.78 214 423.333 214Z" fill="#fff"/><path d="M399.034 221.546C399.246 221.035 399.831 220.793 400.341 221.005C400.85 221.216 401.41 221.333 401.999 221.333H403.999C404.552 221.333 404.999 221.781 404.999 222.333C404.999 222.886 404.552 223.333 403.999 223.333H401.999C401.142 223.333 400.323 223.163 399.575 222.852C399.065 222.641 398.823 222.056 399.034 221.546Z" fill="#fff"/><path d="M420.965 221.546C421.176 222.056 420.934 222.641 420.424 222.852C419.676 223.163 418.856 223.333 417.999 223.333H415.999C415.447 223.333 414.999 222.886 414.999 222.333C414.999 221.781 415.447 221.333 415.999 221.333H417.999C418.589 221.333 419.148 221.216 419.658 221.005C420.168 220.793 420.753 221.035 420.965 221.546Z" fill="#fff"/><path d="M406.999 222.333C406.999 221.781 407.447 221.333 407.999 221.333H411.999C412.552 221.333 412.999 221.781 412.999 222.333C412.999 222.886 412.552 223.333 411.999 223.333H407.999C407.447 223.333 406.999 222.886 406.999 222.333Z" fill="#fff"/><path d="M421.373 199.121C421.764 198.731 421.764 198.098 421.373 197.707C420.983 197.317 420.349 197.317 419.959 197.707L418.631 199.035C418.24 199.426 418.24 200.059 418.631 200.45C419.021 200.84 419.654 200.84 420.045 200.45L421.373 199.121Z" fill="#fff"/><path d="M417.388 203.106C417.779 202.716 417.779 202.082 417.388 201.692C416.998 201.301 416.365 201.301 415.974 201.692L413.318 204.349C412.927 204.739 412.927 205.372 413.318 205.763C413.708 206.153 414.341 206.153 414.732 205.763L417.388 203.106Z" fill="#fff"/><path d="M412.075 208.419C412.466 208.029 412.466 207.396 412.075 207.005C411.685 206.615 411.051 206.615 410.661 207.005L409.999 207.667L409.338 207.005C408.947 206.615 408.314 206.615 407.924 207.005C407.533 207.396 407.533 208.029 407.924 208.419L408.585 209.081L408.004 209.662C407.614 210.052 407.614 210.685 408.004 211.076C408.395 211.466 409.028 211.466 409.419 211.076L409.999 210.495L410.58 211.076C410.971 211.466 411.604 211.466 411.994 211.076C412.385 210.685 412.385 210.052 411.994 209.662L411.414 209.081L412.075 208.419Z" fill="#fff"/><path d="M406.762 213.732C407.153 213.342 407.153 212.709 406.762 212.318C406.372 211.928 405.738 211.928 405.348 212.318L402.691 214.975C402.301 215.365 402.301 215.998 402.691 216.389C403.082 216.779 403.715 216.779 404.106 216.389L406.762 213.732Z" fill="#fff"/><path d="M401.449 219.046C401.839 218.655 401.839 218.022 401.449 217.631C401.058 217.241 400.425 217.241 400.035 217.631L398.706 218.96C398.316 219.35 398.316 219.983 398.706 220.374C399.097 220.764 399.73 220.764 400.121 220.374L401.449 219.046Z" fill="#fff"/><path d="M419.878 220.374C420.269 220.764 420.902 220.764 421.292 220.374C421.683 219.983 421.683 219.35 421.292 218.96L419.964 217.631C419.573 217.241 418.94 217.241 418.55 217.631C418.159 218.022 418.159 218.655 418.55 219.045L419.878 220.374Z" fill="#fff"/><path d="M415.893 216.389C416.284 216.779 416.917 216.779 417.307 216.389C417.698 215.998 417.698 215.365 417.307 214.975L414.651 212.318C414.26 211.928 413.627 211.928 413.237 212.318C412.846 212.709 412.846 213.342 413.237 213.732L415.893 216.389Z" fill="#fff"/><path d="M405.267 205.763C405.657 206.153 406.291 206.153 406.681 205.763C407.072 205.372 407.072 204.739 406.681 204.349L404.025 201.692C403.634 201.301 403.001 201.301 402.61 201.692C402.22 202.082 402.22 202.716 402.61 203.106L405.267 205.763Z" fill="#fff"/><path d="M399.954 200.45C400.344 200.84 400.978 200.84 401.368 200.45C401.759 200.059 401.759 199.426 401.368 199.035L400.04 197.707C399.649 197.317 399.016 197.317 398.626 197.707C398.235 198.098 398.235 198.731 398.626 199.121L399.954 200.45Z" fill="#fff"/><path d="M406.074 202.185C406.471 202.065 406.893 202 407.333 202H408.333C408.885 202 409.333 201.552 409.333 201C409.333 200.448 408.885 200 408.333 200H407.333C406.695 200 406.077 200.095 405.494 200.271C404.965 200.431 404.667 200.99 404.827 201.518C404.987 202.047 405.545 202.346 406.074 202.185Z" fill="#fff"/><path d="M411.666 200C411.114 200 410.666 200.448 410.666 201C410.666 201.552 411.114 202 411.666 202H412.666C413.105 202 413.528 202.065 413.925 202.185C414.453 202.346 415.012 202.047 415.172 201.518C415.332 200.99 415.033 200.431 414.505 200.271C413.922 200.095 413.304 200 412.666 200H411.666Z" fill="#fff"/><path d="M403.185 205.075C403.345 204.546 403.046 203.988 402.518 203.828C401.989 203.667 401.431 203.966 401.271 204.495C401.094 205.078 400.999 205.695 400.999 206.333V207.333C400.999 207.886 401.447 208.333 401.999 208.333C402.552 208.333 402.999 207.886 402.999 207.333V206.333C402.999 205.894 403.064 205.472 403.185 205.075Z" fill="#fff"/><path d="M418.728 204.495C418.568 203.966 418.01 203.667 417.481 203.828C416.952 203.988 416.654 204.546 416.814 205.075C416.934 205.472 416.999 205.894 416.999 206.333V207.333C416.999 207.886 417.447 208.333 417.999 208.333C418.552 208.333 418.999 207.886 418.999 207.333V206.333C418.999 205.695 418.905 205.078 418.728 204.495Z" fill="#fff"/><path d="M402.999 210.667C402.999 210.114 402.552 209.667 401.999 209.667C401.447 209.667 400.999 210.114 400.999 210.667V211.667C400.999 212.305 401.094 212.922 401.271 213.505C401.431 214.034 401.989 214.333 402.518 214.172C403.046 214.012 403.345 213.454 403.185 212.925C403.064 212.528 402.999 212.106 402.999 211.667V210.667Z" fill="#fff"/><path d="M418.999 210.667C418.999 210.114 418.552 209.667 417.999 209.667C417.447 209.667 416.999 210.114 416.999 210.667V211.667C416.999 212.106 416.934 212.528 416.814 212.925C416.654 213.454 416.952 214.012 417.481 214.172C418.01 214.333 418.568 214.034 418.728 213.505C418.905 212.922 418.999 212.305 418.999 211.667V210.667Z" fill="#fff"/><path d="M406.074 215.815C405.545 215.654 404.987 215.953 404.827 216.482C404.667 217.01 404.965 217.569 405.494 217.729C406.077 217.905 406.695 218 407.333 218H408.333C408.885 218 409.333 217.552 409.333 217C409.333 216.448 408.885 216 408.333 216H407.333C406.893 216 406.471 215.935 406.074 215.815Z" fill="#fff"/><path d="M414.505 217.729C415.033 217.569 415.332 217.01 415.172 216.482C415.012 215.953 414.453 215.654 413.925 215.815C413.528 215.935 413.105 216 412.666 216H411.666C411.114 216 410.666 216.448 410.666 217C410.666 217.552 411.114 218 411.666 218H412.666C413.304 218 413.922 217.905 414.505 217.729Z" fill="#fff"/><line x1="441.699" y1="197" x2="441.699" y2="221" stroke="#019AEB"/><path d="M464.398 196.667C463.808 196.667 463.249 196.784 462.739 196.995C462.229 197.207 461.644 196.965 461.433 196.454C461.221 195.944 461.463 195.359 461.973 195.148C462.721 194.837 463.541 194.667 464.398 194.667H466.398C466.95 194.667 467.398 195.114 467.398 195.667C467.398 196.219 466.95 196.667 466.398 196.667H464.398Z" fill="#fff"/><path d="M469.398 195.667C469.398 195.114 469.846 194.667 470.398 194.667H474.398C474.95 194.667 475.398 195.114 475.398 195.667C475.398 196.219 474.95 196.667 474.398 196.667H470.398C469.846 196.667 469.398 196.219 469.398 195.667Z" fill="#fff"/><path d="M477.398 195.667C477.398 195.114 477.846 194.667 478.398 194.667H480.398C481.255 194.667 482.074 194.837 482.822 195.148C483.333 195.359 483.575 195.944 483.363 196.454C483.151 196.965 482.566 197.207 482.056 196.995C481.547 196.784 480.987 196.667 480.398 196.667H478.398C477.846 196.667 477.398 196.219 477.398 195.667Z" fill="#fff"/><path d="M459.852 198.035C460.362 198.246 460.604 198.831 460.393 199.342C460.182 199.851 460.064 200.411 460.064 201V203C460.064 203.552 459.617 204 459.064 204C458.512 204 458.064 203.552 458.064 203V201C458.064 200.143 458.235 199.324 458.545 198.575C458.757 198.065 459.342 197.823 459.852 198.035Z" fill="#fff"/><path d="M484.943 198.035C485.454 197.823 486.039 198.065 486.25 198.575C486.56 199.324 486.731 200.143 486.731 201V203C486.731 203.552 486.283 204 485.731 204C485.179 204 484.731 203.552 484.731 203V201C484.731 200.411 484.614 199.851 484.403 199.342C484.191 198.831 484.433 198.246 484.943 198.035Z" fill="#fff"/><path d="M459.064 206C459.617 206 460.064 206.448 460.064 207V211C460.064 211.552 459.617 212 459.064 212C458.512 212 458.064 211.552 458.064 211V207C458.064 206.448 458.512 206 459.064 206Z" fill="#fff"/><path d="M485.731 206C486.283 206 486.731 206.448 486.731 207V211C486.731 211.552 486.283 212 485.731 212C485.179 212 484.731 211.552 484.731 211V207C484.731 206.448 485.179 206 485.731 206Z" fill="#fff"/><path d="M459.064 214C459.617 214 460.064 214.448 460.064 215V217C460.064 217.589 460.182 218.149 460.393 218.658C460.604 219.169 460.362 219.754 459.852 219.965C459.342 220.177 458.757 219.935 458.545 219.425C458.235 218.676 458.064 217.857 458.064 217V215C458.064 214.448 458.512 214 459.064 214Z" fill="#fff"/><path d="M485.731 214C486.283 214 486.731 214.448 486.731 215V217C486.731 217.857 486.56 218.676 486.25 219.425C486.039 219.935 485.454 220.177 484.943 219.965C484.433 219.754 484.191 219.169 484.403 218.658C484.614 218.149 484.731 217.589 484.731 217V215C484.731 214.448 485.179 214 485.731 214Z" fill="#fff"/><path d="M461.433 221.546C461.644 221.035 462.229 220.793 462.739 221.005C463.249 221.216 463.808 221.333 464.398 221.333H466.398C466.95 221.333 467.398 221.781 467.398 222.333C467.398 222.886 466.95 223.333 466.398 223.333H464.398C463.541 223.333 462.721 223.163 461.973 222.852C461.463 222.641 461.221 222.056 461.433 221.546Z" fill="#fff"/><path d="M483.363 221.546C483.575 222.056 483.333 222.641 482.822 222.852C482.074 223.163 481.255 223.333 480.398 223.333H478.398C477.846 223.333 477.398 222.886 477.398 222.333C477.398 221.781 477.846 221.333 478.398 221.333H480.398C480.987 221.333 481.547 221.216 482.056 221.005C482.566 220.793 483.151 221.035 483.363 221.546Z" fill="#fff"/><path d="M469.398 222.333C469.398 221.781 469.846 221.333 470.398 221.333H474.398C474.95 221.333 475.398 221.781 475.398 222.333C475.398 222.886 474.95 223.333 474.398 223.333H470.398C469.846 223.333 469.398 222.886 469.398 222.333Z" fill="#fff"/><path d="M483.772 199.121C484.162 198.731 484.162 198.098 483.772 197.707C483.381 197.317 482.748 197.317 482.357 197.707L481.029 199.035C480.639 199.426 480.639 200.059 481.029 200.45C481.42 200.84 482.053 200.84 482.443 200.45L483.772 199.121Z" fill="#fff"/><path d="M479.787 203.106C480.177 202.716 480.177 202.082 479.787 201.692C479.396 201.301 478.763 201.301 478.373 201.692L475.716 204.349C475.325 204.739 475.325 205.372 475.716 205.763C476.106 206.153 476.74 206.153 477.13 205.763L479.787 203.106Z" fill="#fff"/><path d="M474.474 208.419C474.864 208.029 474.864 207.396 474.474 207.005C474.083 206.615 473.45 206.615 473.059 207.005L472.398 207.667L471.736 207.005C471.346 206.615 470.712 206.615 470.322 207.005C469.931 207.396 469.931 208.029 470.322 208.419L470.984 209.081L470.403 209.662C470.012 210.052 470.012 210.685 470.403 211.076C470.793 211.466 471.427 211.466 471.817 211.076L472.398 210.495L472.979 211.076C473.369 211.466 474.002 211.466 474.393 211.076C474.783 210.685 474.783 210.052 474.393 209.662L473.812 209.081L474.474 208.419Z" fill="#fff"/><path d="M469.16 213.732C469.551 213.342 469.551 212.709 469.16 212.318C468.77 211.928 468.137 211.928 467.746 212.318L465.09 214.975C464.699 215.365 464.699 215.998 465.09 216.389C465.48 216.779 466.113 216.779 466.504 216.389L469.16 213.732Z" fill="#fff"/><path d="M463.847 219.046C464.238 218.655 464.238 218.022 463.847 217.631C463.457 217.241 462.824 217.241 462.433 217.631L461.105 218.96C460.714 219.35 460.714 219.983 461.105 220.374C461.495 220.764 462.129 220.764 462.519 220.374L463.847 219.046Z" fill="#fff"/><path d="M482.276 220.374C482.667 220.764 483.3 220.764 483.691 220.374C484.081 219.983 484.081 219.35 483.691 218.96L482.362 217.631C481.972 217.241 481.339 217.241 480.948 217.631C480.558 218.022 480.558 218.655 480.948 219.045L482.276 220.374Z" fill="#fff"/><path d="M478.292 216.389C478.682 216.779 479.315 216.779 479.706 216.389C480.096 215.998 480.096 215.365 479.706 214.975L477.049 212.318C476.659 211.928 476.026 211.928 475.635 212.318C475.245 212.709 475.245 213.342 475.635 213.732L478.292 216.389Z" fill="#fff"/><path d="M467.665 205.763C468.056 206.153 468.689 206.153 469.08 205.763C469.47 205.372 469.47 204.739 469.08 204.349L466.423 201.692C466.033 201.301 465.399 201.301 465.009 201.692C464.618 202.082 464.618 202.716 465.009 203.106L467.665 205.763Z" fill="#fff"/><path d="M462.352 200.45C462.743 200.84 463.376 200.84 463.767 200.45C464.157 200.059 464.157 199.426 463.767 199.035L462.438 197.707C462.048 197.317 461.415 197.317 461.024 197.707C460.633 198.098 460.633 198.731 461.024 199.121L462.352 200.45Z" fill="#fff"/><path d="M468.472 202.185C468.87 202.065 469.292 202 469.731 202H470.731C471.283 202 471.731 201.552 471.731 201C471.731 200.448 471.283 200 470.731 200H469.731C469.093 200 468.476 200.095 467.892 200.271C467.364 200.431 467.065 200.99 467.225 201.518C467.386 202.047 467.944 202.346 468.472 202.185Z" fill="#fff"/><path d="M474.064 200C473.512 200 473.064 200.448 473.064 201C473.064 201.552 473.512 202 474.064 202H475.064C475.504 202 475.926 202.065 476.323 202.185C476.852 202.346 477.41 202.047 477.57 201.518C477.73 200.99 477.432 200.431 476.903 200.271C476.32 200.095 475.702 200 475.064 200H474.064Z" fill="#fff"/><path d="M465.583 205.075C465.743 204.546 465.445 203.988 464.916 203.828C464.388 203.667 463.829 203.966 463.669 204.495C463.492 205.078 463.398 205.695 463.398 206.333V207.333C463.398 207.886 463.846 208.333 464.398 208.333C464.95 208.333 465.398 207.886 465.398 207.333V206.333C465.398 205.894 465.463 205.472 465.583 205.075Z" fill="#fff"/><path d="M481.126 204.495C480.966 203.966 480.408 203.667 479.879 203.828C479.351 203.988 479.052 204.546 479.212 205.075C479.333 205.472 479.398 205.894 479.398 206.333V207.333C479.398 207.886 479.846 208.333 480.398 208.333C480.95 208.333 481.398 207.886 481.398 207.333V206.333C481.398 205.695 481.303 205.078 481.126 204.495Z" fill="#fff"/><path d="M465.398 210.667C465.398 210.114 464.95 209.667 464.398 209.667C463.846 209.667 463.398 210.114 463.398 210.667V211.667C463.398 212.305 463.492 212.922 463.669 213.505C463.829 214.034 464.388 214.333 464.916 214.172C465.445 214.012 465.743 213.454 465.583 212.925C465.463 212.528 465.398 212.106 465.398 211.667V210.667Z" fill="#fff"/><path d="M481.398 210.667C481.398 210.114 480.95 209.667 480.398 209.667C479.846 209.667 479.398 210.114 479.398 210.667V211.667C479.398 212.106 479.333 212.528 479.212 212.925C479.052 213.454 479.351 214.012 479.879 214.172C480.408 214.333 480.966 214.034 481.126 213.505C481.303 212.922 481.398 212.305 481.398 211.667V210.667Z" fill="#fff"/><path d="M468.472 215.815C467.944 215.654 467.386 215.953 467.225 216.482C467.065 217.01 467.364 217.569 467.892 217.729C468.476 217.905 469.093 218 469.731 218H470.731C471.283 218 471.731 217.552 471.731 217C471.731 216.448 471.283 216 470.731 216H469.731C469.292 216 468.87 215.935 468.472 215.815Z" fill="#fff"/><path d="M476.903 217.729C477.432 217.569 477.73 217.01 477.57 216.482C477.41 215.953 476.852 215.654 476.323 215.815C475.926 215.935 475.504 216 475.064 216H474.064C473.512 216 473.064 216.448 473.064 217C473.064 217.552 473.512 218 474.064 218H475.064C475.702 218 476.32 217.905 476.903 217.729Z" fill="#fff"/><line x1="504.1" y1="197" x2="504.1" y2="221" stroke="#019AEB"/><path d="M526.798 196.667C526.209 196.667 525.649 196.784 525.14 196.995C524.63 197.207 524.044 196.965 523.833 196.454C523.621 195.944 523.863 195.359 524.374 195.148C525.122 194.837 525.941 194.667 526.798 194.667H528.798C529.35 194.667 529.798 195.114 529.798 195.667C529.798 196.219 529.35 196.667 528.798 196.667H526.798Z" fill="#fff"/><path d="M531.798 195.667C531.798 195.114 532.246 194.667 532.798 194.667H536.798C537.35 194.667 537.798 195.114 537.798 195.667C537.798 196.219 537.35 196.667 536.798 196.667H532.798C532.246 196.667 531.798 196.219 531.798 195.667Z" fill="#fff"/><path d="M539.798 195.667C539.798 195.114 540.246 194.667 540.798 194.667H542.798C543.655 194.667 544.475 194.837 545.223 195.148C545.733 195.359 545.975 195.944 545.763 196.454C545.552 196.965 544.967 197.207 544.457 196.995C543.947 196.784 543.388 196.667 542.798 196.667H540.798C540.246 196.667 539.798 196.219 539.798 195.667Z" fill="#fff"/><path d="M522.253 198.035C522.763 198.246 523.005 198.831 522.793 199.342C522.582 199.851 522.465 200.411 522.465 201V203C522.465 203.552 522.017 204 521.465 204C520.913 204 520.465 203.552 520.465 203V201C520.465 200.143 520.636 199.324 520.946 198.575C521.157 198.065 521.742 197.823 522.253 198.035Z" fill="#fff"/><path d="M547.344 198.035C547.854 197.823 548.439 198.065 548.651 198.575C548.961 199.324 549.132 200.143 549.132 201V203C549.132 203.552 548.684 204 548.132 204C547.579 204 547.132 203.552 547.132 203V201C547.132 200.411 547.014 199.851 546.803 199.342C546.592 198.831 546.834 198.246 547.344 198.035Z" fill="#fff"/><path d="M521.465 206C522.017 206 522.465 206.448 522.465 207V211C522.465 211.552 522.017 212 521.465 212C520.913 212 520.465 211.552 520.465 211V207C520.465 206.448 520.913 206 521.465 206Z" fill="#fff"/><path d="M548.132 206C548.684 206 549.132 206.448 549.132 207V211C549.132 211.552 548.684 212 548.132 212C547.579 212 547.132 211.552 547.132 211V207C547.132 206.448 547.579 206 548.132 206Z" fill="#fff"/><path d="M521.465 214C522.017 214 522.465 214.448 522.465 215V217C522.465 217.589 522.582 218.149 522.793 218.658C523.005 219.169 522.763 219.754 522.253 219.965C521.742 220.177 521.157 219.935 520.946 219.425C520.636 218.676 520.465 217.857 520.465 217V215C520.465 214.448 520.913 214 521.465 214Z" fill="#fff"/><path d="M548.132 214C548.684 214 549.132 214.448 549.132 215V217C549.132 217.857 548.961 218.676 548.651 219.425C548.439 219.935 547.854 220.177 547.344 219.965C546.834 219.754 546.592 219.169 546.803 218.658C547.014 218.149 547.132 217.589 547.132 217V215C547.132 214.448 547.579 214 548.132 214Z" fill="#fff"/><path d="M523.833 221.546C524.044 221.035 524.63 220.793 525.14 221.005C525.649 221.216 526.209 221.333 526.798 221.333H528.798C529.35 221.333 529.798 221.781 529.798 222.333C529.798 222.886 529.35 223.333 528.798 223.333H526.798C525.941 223.333 525.122 223.163 524.374 222.852C523.863 222.641 523.621 222.056 523.833 221.546Z" fill="#fff"/><path d="M545.763 221.546C545.975 222.056 545.733 222.641 545.223 222.852C544.475 223.163 543.655 223.333 542.798 223.333H540.798C540.246 223.333 539.798 222.886 539.798 222.333C539.798 221.781 540.246 221.333 540.798 221.333H542.798C543.388 221.333 543.947 221.216 544.457 221.005C544.967 220.793 545.552 221.035 545.763 221.546Z" fill="#fff"/><path d="M531.798 222.333C531.798 221.781 532.246 221.333 532.798 221.333H536.798C537.35 221.333 537.798 221.781 537.798 222.333C537.798 222.886 537.35 223.333 536.798 223.333H532.798C532.246 223.333 531.798 222.886 531.798 222.333Z" fill="#fff"/><path d="M546.172 199.121C546.562 198.731 546.562 198.098 546.172 197.707C545.781 197.317 545.148 197.317 544.758 197.707L543.429 199.035C543.039 199.426 543.039 200.059 543.429 200.45C543.82 200.84 544.453 200.84 544.844 200.45L546.172 199.121Z" fill="#fff"/><path d="M542.187 203.106C542.578 202.716 542.578 202.082 542.187 201.692C541.797 201.301 541.163 201.301 540.773 201.692L538.116 204.349C537.726 204.739 537.726 205.372 538.116 205.763C538.507 206.153 539.14 206.153 539.531 205.763L542.187 203.106Z" fill="#fff"/><path d="M536.874 208.419C537.265 208.029 537.265 207.396 536.874 207.005C536.483 206.615 535.85 206.615 535.46 207.005L534.798 207.667L534.137 207.005C533.746 206.615 533.113 206.615 532.722 207.005C532.332 207.396 532.332 208.029 532.722 208.419L533.384 209.081L532.803 209.662C532.413 210.052 532.413 210.685 532.803 211.076C533.194 211.466 533.827 211.466 534.217 211.076L534.798 210.495L535.379 211.076C535.769 211.466 536.403 211.466 536.793 211.076C537.184 210.685 537.184 210.052 536.793 209.662L536.212 209.081L536.874 208.419Z" fill="#fff"/><path d="M531.561 213.732C531.951 213.342 531.951 212.709 531.561 212.318C531.17 211.928 530.537 211.928 530.147 212.318L527.49 214.975C527.1 215.365 527.1 215.998 527.49 216.389C527.881 216.779 528.514 216.779 528.904 216.389L531.561 213.732Z" fill="#fff"/><path d="M526.248 219.046C526.638 218.655 526.638 218.022 526.248 217.631C525.857 217.241 525.224 217.241 524.834 217.631L523.505 218.96C523.115 219.35 523.115 219.983 523.505 220.374C523.896 220.764 524.529 220.764 524.919 220.374L526.248 219.046Z" fill="#fff"/><path d="M544.677 220.374C545.067 220.764 545.701 220.764 546.091 220.374C546.482 219.983 546.482 219.35 546.091 218.96L544.763 217.631C544.372 217.241 543.739 217.241 543.349 217.631C542.958 218.022 542.958 218.655 543.349 219.045L544.677 220.374Z" fill="#fff"/><path d="M540.692 216.389C541.083 216.779 541.716 216.779 542.106 216.389C542.497 215.998 542.497 215.365 542.106 214.975L539.45 212.318C539.059 211.928 538.426 211.928 538.035 212.318C537.645 212.709 537.645 213.342 538.035 213.732L540.692 216.389Z" fill="#fff"/><path d="M530.066 205.763C530.456 206.153 531.089 206.153 531.48 205.763C531.871 205.372 531.871 204.739 531.48 204.349L528.823 201.692C528.433 201.301 527.8 201.301 527.409 201.692C527.019 202.082 527.019 202.716 527.409 203.106L530.066 205.763Z" fill="#fff"/><path d="M524.753 200.45C525.143 200.84 525.776 200.84 526.167 200.45C526.557 200.059 526.557 199.426 526.167 199.035L524.839 197.707C524.448 197.317 523.815 197.317 523.424 197.707C523.034 198.098 523.034 198.731 523.424 199.121L524.753 200.45Z" fill="#fff"/><path d="M530.873 202.185C531.27 202.065 531.692 202 532.132 202H533.132C533.684 202 534.132 201.552 534.132 201C534.132 200.448 533.684 200 533.132 200H532.132C531.494 200 530.876 200.095 530.293 200.271C529.764 200.431 529.466 200.99 529.626 201.518C529.786 202.047 530.344 202.346 530.873 202.185Z" fill="#fff"/><path d="M536.465 200C535.913 200 535.465 200.448 535.465 201C535.465 201.552 535.913 202 536.465 202H537.465C537.904 202 538.326 202.065 538.724 202.185C539.252 202.346 539.81 202.047 539.971 201.518C540.131 200.99 539.832 200.431 539.304 200.271C538.72 200.095 538.103 200 537.465 200H536.465Z" fill="#fff"/><path d="M527.984 205.075C528.144 204.546 527.845 203.988 527.316 203.828C526.788 203.667 526.23 203.966 526.069 204.495C525.893 205.078 525.798 205.695 525.798 206.333V207.333C525.798 207.886 526.246 208.333 526.798 208.333C527.35 208.333 527.798 207.886 527.798 207.333V206.333C527.798 205.894 527.863 205.472 527.984 205.075Z" fill="#fff"/><path d="M543.527 204.495C543.367 203.966 542.808 203.667 542.28 203.828C541.751 203.988 541.453 204.546 541.613 205.075C541.733 205.472 541.798 205.894 541.798 206.333V207.333C541.798 207.886 542.246 208.333 542.798 208.333C543.35 208.333 543.798 207.886 543.798 207.333V206.333C543.798 205.695 543.704 205.078 543.527 204.495Z" fill="#fff"/><path d="M527.798 210.667C527.798 210.114 527.35 209.667 526.798 209.667C526.246 209.667 525.798 210.114 525.798 210.667V211.667C525.798 212.305 525.893 212.922 526.069 213.505C526.23 214.034 526.788 214.333 527.316 214.172C527.845 214.012 528.144 213.454 527.984 212.925C527.863 212.528 527.798 212.106 527.798 211.667V210.667Z" fill="#fff"/><path d="M543.798 210.667C543.798 210.114 543.35 209.667 542.798 209.667C542.246 209.667 541.798 210.114 541.798 210.667V211.667C541.798 212.106 541.733 212.528 541.613 212.925C541.453 213.454 541.751 214.012 542.28 214.172C542.808 214.333 543.367 214.034 543.527 213.505C543.704 212.922 543.798 212.305 543.798 211.667V210.667Z" fill="#fff"/><path d="M530.873 215.815C530.344 215.654 529.786 215.953 529.626 216.482C529.466 217.01 529.764 217.569 530.293 217.729C530.876 217.905 531.494 218 532.132 218H533.132C533.684 218 534.132 217.552 534.132 217C534.132 216.448 533.684 216 533.132 216H532.132C531.692 216 531.27 215.935 530.873 215.815Z" fill="#fff"/><path d="M539.304 217.729C539.832 217.569 540.131 217.01 539.971 216.482C539.81 215.953 539.252 215.654 538.724 215.815C538.326 215.935 537.904 216 537.465 216H536.465C535.913 216 535.465 216.448 535.465 217C535.465 217.552 535.913 218 536.465 218H537.465C538.103 218 538.72 217.905 539.304 217.729Z" fill="#fff"/></g><rect x="261.5" y="180.5" width="301" height="57" rx="28.5" stroke="#019AEB"/><defs><clipPath id="clip0_342_63688"><rect x="262" y="23" width="300" height="32" rx="8" fill="#fff"/></clipPath><clipPath id="clip1_342_63688"><rect x="262" y="65" width="300" height="56" rx="8" fill="#fff"/></clipPath><clipPath id="clip2_342_63688"><rect x="262" y="131" width="300" height="40" rx="20" fill="#fff"/></clipPath><clipPath id="clip3_342_63688"><rect x="262" y="181" width="300" height="56" rx="28" fill="#fff"/></clipPath></defs></svg>