<svg width="961" height="260" viewBox="0 0 961 260" fill="none" xmlns="http://www.w3.org/2000/svg">
<rect width="961" height="260" fill="#F1F1F6"/>
<g clip-path="url(#clip0_431_73334)">
<rect x="330.5" y="27" width="148" height="32" rx="4" fill="#353A40"/>
<path d="M398.5 33.75C398.058 33.75 397.638 33.8378 397.256 33.9963C396.874 34.155 396.435 33.9734 396.276 33.5908C396.117 33.2082 396.299 32.7694 396.682 32.6107C397.243 32.378 397.857 32.25 398.5 32.25H400C400.414 32.25 400.75 32.5858 400.75 33C400.75 33.4142 400.414 33.75 400 33.75H398.5Z" fill="white"/>
<path d="M402.25 33C402.25 32.5858 402.586 32.25 403 32.25H406C406.414 32.25 406.75 32.5858 406.75 33C406.75 33.4142 406.414 33.75 406 33.75H403C402.586 33.75 402.25 33.4142 402.25 33Z" fill="white"/>
<path d="M408.25 33C408.25 32.5858 408.586 32.25 409 32.25H410.5C411.143 32.25 411.757 32.378 412.318 32.6107C412.701 32.7694 412.883 33.2082 412.724 33.5908C412.565 33.9734 412.126 34.155 411.744 33.9963C411.362 33.8378 410.942 33.75 410.5 33.75H409C408.586 33.75 408.25 33.4142 408.25 33Z" fill="white"/>
<path d="M395.091 34.7761C395.473 34.9347 395.655 35.3735 395.496 35.7561C395.338 36.1383 395.25 36.5579 395.25 37V38.5C395.25 38.9142 394.914 39.25 394.5 39.25C394.086 39.25 393.75 38.9142 393.75 38.5V37C393.75 36.3573 393.878 35.7427 394.111 35.1816C394.269 34.7989 394.708 34.6174 395.091 34.7761Z" fill="white"/>
<path d="M413.909 34.7761C414.292 34.6174 414.731 34.7989 414.889 35.1816C415.122 35.7427 415.25 36.3573 415.25 37V38.5C415.25 38.9142 414.914 39.25 414.5 39.25C414.086 39.25 413.75 38.9142 413.75 38.5V37C413.75 36.5579 413.662 36.1383 413.504 35.7561C413.345 35.3735 413.527 34.9347 413.909 34.7761Z" fill="white"/>
<path d="M394.5 40.75C394.914 40.75 395.25 41.0858 395.25 41.5V44.5C395.25 44.9142 394.914 45.25 394.5 45.25C394.086 45.25 393.75 44.9142 393.75 44.5V41.5C393.75 41.0858 394.086 40.75 394.5 40.75Z" fill="white"/>
<path d="M414.5 40.75C414.914 40.75 415.25 41.0858 415.25 41.5V44.5C415.25 44.9142 414.914 45.25 414.5 45.25C414.086 45.25 413.75 44.9142 413.75 44.5V41.5C413.75 41.0858 414.086 40.75 414.5 40.75Z" fill="white"/>
<path d="M394.5 46.75C394.914 46.75 395.25 47.0858 395.25 47.5V49C395.25 49.4421 395.338 49.8617 395.496 50.2439C395.655 50.6265 395.473 51.0653 395.091 51.2239C394.708 51.3826 394.269 51.2011 394.111 50.8184C393.878 50.2573 393.75 49.6427 393.75 49V47.5C393.75 47.0858 394.086 46.75 394.5 46.75Z" fill="white"/>
<path d="M414.5 46.75C414.914 46.75 415.25 47.0858 415.25 47.5V49C415.25 49.6427 415.122 50.2573 414.889 50.8184C414.731 51.2011 414.292 51.3826 413.909 51.2239C413.527 51.0653 413.345 50.6265 413.504 50.2439C413.662 49.8617 413.75 49.4421 413.75 49V47.5C413.75 47.0858 414.086 46.75 414.5 46.75Z" fill="white"/>
<path d="M396.276 52.4092C396.435 52.0266 396.874 51.845 397.256 52.0037C397.638 52.1622 398.058 52.25 398.5 52.25H400C400.414 52.25 400.75 52.5858 400.75 53C400.75 53.4142 400.414 53.75 400 53.75H398.5C397.857 53.75 397.243 53.622 396.682 53.3893C396.299 53.2306 396.117 52.7918 396.276 52.4092Z" fill="white"/>
<path d="M412.724 52.4092C412.883 52.7918 412.701 53.2306 412.318 53.3893C411.757 53.622 411.143 53.75 410.5 53.75H409C408.586 53.75 408.25 53.4142 408.25 53C408.25 52.5858 408.586 52.25 409 52.25H410.5C410.942 52.25 411.362 52.1622 411.744 52.0037C412.126 51.845 412.565 52.0266 412.724 52.4092Z" fill="white"/>
<path d="M402.25 53C402.25 52.5858 402.586 52.25 403 52.25H406C406.414 52.25 406.75 52.5858 406.75 53C406.75 53.4142 406.414 53.75 406 53.75H403C402.586 53.75 402.25 53.4142 402.25 53Z" fill="white"/>
<path d="M413.03 35.591C413.323 35.2981 413.323 34.8232 413.03 34.5303C412.737 34.2374 412.263 34.2374 411.97 34.5303L410.973 35.5265C410.681 35.8194 410.681 36.2943 410.973 36.5872C411.266 36.8801 411.741 36.8801 412.034 36.5872L413.03 35.591Z" fill="white"/>
<path d="M410.042 38.5796C410.335 38.2867 410.335 37.8118 410.042 37.519C409.749 37.2261 409.274 37.2261 408.981 37.519L406.989 39.5114C406.696 39.8043 406.696 40.2791 406.989 40.572C407.282 40.8649 407.756 40.8649 408.049 40.572L410.042 38.5796Z" fill="white"/>
<path d="M406.057 42.5645C406.35 42.2716 406.35 41.7967 406.057 41.5038C405.764 41.2109 405.289 41.2109 404.996 41.5038L404.5 42L404.004 41.5038C403.711 41.2109 403.236 41.2109 402.943 41.5038C402.65 41.7967 402.65 42.2716 402.943 42.5645L403.439 43.0607L403.004 43.4962C402.711 43.7891 402.711 44.264 403.004 44.5569C403.297 44.8498 403.772 44.8498 404.064 44.5569L404.5 44.1213L404.936 44.5569C405.228 44.8498 405.703 44.8498 405.996 44.5569C406.289 44.264 406.289 43.7891 405.996 43.4962L405.561 43.0607L406.057 42.5645Z" fill="white"/>
<path d="M402.072 46.5493C402.365 46.2564 402.365 45.7815 402.072 45.4886C401.779 45.1957 401.304 45.1957 401.011 45.4886L399.019 47.481C398.726 47.7739 398.726 48.2488 399.019 48.5417C399.312 48.8346 399.787 48.8346 400.08 48.5417L402.072 46.5493Z" fill="white"/>
<path d="M398.087 50.5341C398.38 50.2412 398.38 49.7664 398.087 49.4735C397.794 49.1806 397.319 49.1806 397.027 49.4735L396.03 50.4697C395.737 50.7626 395.737 51.2374 396.03 51.5303C396.323 51.8232 396.798 51.8232 397.091 51.5303L398.087 50.5341Z" fill="white"/>
<path d="M411.909 51.5303C412.202 51.8232 412.677 51.8232 412.97 51.5303C413.263 51.2374 413.263 50.7626 412.97 50.4697L411.973 49.4735C411.681 49.1806 411.206 49.1806 410.913 49.4735C410.62 49.7664 410.62 50.2412 410.913 50.5341L411.909 51.5303Z" fill="white"/>
<path d="M408.92 48.5417C409.213 48.8346 409.688 48.8346 409.981 48.5417C410.274 48.2488 410.274 47.7739 409.981 47.481L407.989 45.4886C407.696 45.1957 407.221 45.1957 406.928 45.4886C406.635 45.7815 406.635 46.2564 406.928 46.5493L408.92 48.5417Z" fill="white"/>
<path d="M400.951 40.572C401.244 40.8649 401.718 40.8649 402.011 40.572C402.304 40.2791 402.304 39.8043 402.011 39.5114L400.019 37.519C399.726 37.2261 399.251 37.2261 398.958 37.519C398.665 37.8118 398.665 38.2867 398.958 38.5796L400.951 40.572Z" fill="white"/>
<path d="M396.966 36.5872C397.259 36.8801 397.734 36.8801 398.027 36.5872C398.319 36.2943 398.319 35.8194 398.027 35.5265L397.03 34.5303C396.737 34.2374 396.263 34.2374 395.97 34.5303C395.677 34.8232 395.677 35.2981 395.97 35.591L396.966 36.5872Z" fill="white"/>
<path d="M401.556 37.889C401.854 37.7988 402.171 37.75 402.5 37.75H403.25C403.664 37.75 404 37.4142 404 37C404 36.5858 403.664 36.25 403.25 36.25H402.5C402.022 36.25 401.558 36.321 401.121 36.4535C400.725 36.5736 400.501 36.9923 400.621 37.3887C400.741 37.7851 401.16 38.0091 401.556 37.889Z" fill="white"/>
<path d="M405.75 36.25C405.336 36.25 405 36.5858 405 37C405 37.4142 405.336 37.75 405.75 37.75H406.5C406.829 37.75 407.146 37.7988 407.444 37.889C407.84 38.0091 408.259 37.7851 408.379 37.3887C408.499 36.9923 408.275 36.5736 407.879 36.4535C407.442 36.321 406.978 36.25 406.5 36.25H405.75Z" fill="white"/>
<path d="M399.389 40.0559C399.509 39.6595 399.285 39.2408 398.889 39.1207C398.492 39.0006 398.074 39.2246 397.953 39.621C397.821 40.0583 397.75 40.5216 397.75 41V41.75C397.75 42.1642 398.086 42.5 398.5 42.5C398.914 42.5 399.25 42.1642 399.25 41.75V41C399.25 40.6705 399.299 40.3538 399.389 40.0559Z" fill="white"/>
<path d="M411.047 39.621C410.926 39.2246 410.508 39.0006 410.111 39.1207C409.715 39.2408 409.491 39.6595 409.611 40.0559C409.701 40.3538 409.75 40.6705 409.75 41V41.75C409.75 42.1642 410.086 42.5 410.5 42.5C410.914 42.5 411.25 42.1642 411.25 41.75V41C411.25 40.5216 411.179 40.0583 411.047 39.621Z" fill="white"/>
<path d="M399.25 44.25C399.25 43.8358 398.914 43.5 398.5 43.5C398.086 43.5 397.75 43.8358 397.75 44.25V45C397.75 45.4784 397.821 45.9417 397.953 46.379C398.074 46.7754 398.492 46.9994 398.889 46.8793C399.285 46.7592 399.509 46.3405 399.389 45.9441C399.299 45.6462 399.25 45.3295 399.25 45V44.25Z" fill="white"/>
<path d="M411.25 44.25C411.25 43.8358 410.914 43.5 410.5 43.5C410.086 43.5 409.75 43.8358 409.75 44.25V45C409.75 45.3295 409.701 45.6462 409.611 45.9441C409.491 46.3405 409.715 46.7592 410.111 46.8793C410.508 46.9994 410.926 46.7754 411.047 46.379C411.179 45.9417 411.25 45.4784 411.25 45V44.25Z" fill="white"/>
<path d="M401.556 48.111C401.16 47.9909 400.741 48.2149 400.621 48.6113C400.501 49.0077 400.725 49.4264 401.121 49.5465C401.558 49.679 402.022 49.75 402.5 49.75H403.25C403.664 49.75 404 49.4142 404 49C404 48.5858 403.664 48.25 403.25 48.25H402.5C402.171 48.25 401.854 48.2012 401.556 48.111Z" fill="white"/>
<path d="M407.879 49.5465C408.275 49.4264 408.499 49.0077 408.379 48.6113C408.259 48.2149 407.84 47.9909 407.444 48.111C407.146 48.2012 406.829 48.25 406.5 48.25H405.75C405.336 48.25 405 48.5858 405 49C405 49.4142 405.336 49.75 405.75 49.75H406.5C406.978 49.75 407.442 49.679 407.879 49.5465Z" fill="white"/>
<path d="M550.5 33.75C550.058 33.75 549.638 33.8378 549.256 33.9963C548.874 34.155 548.435 33.9734 548.276 33.5908C548.117 33.2082 548.299 32.7694 548.682 32.6107C549.243 32.378 549.857 32.25 550.5 32.25H552C552.414 32.25 552.75 32.5858 552.75 33C552.75 33.4142 552.414 33.75 552 33.75H550.5Z" fill="#252A2E"/>
<path d="M554.25 33C554.25 32.5858 554.586 32.25 555 32.25H558C558.414 32.25 558.75 32.5858 558.75 33C558.75 33.4142 558.414 33.75 558 33.75H555C554.586 33.75 554.25 33.4142 554.25 33Z" fill="#252A2E"/>
<path d="M560.25 33C560.25 32.5858 560.586 32.25 561 32.25H562.5C563.143 32.25 563.757 32.378 564.318 32.6107C564.701 32.7694 564.883 33.2082 564.724 33.5908C564.565 33.9734 564.126 34.155 563.744 33.9963C563.362 33.8378 562.942 33.75 562.5 33.75H561C560.586 33.75 560.25 33.4142 560.25 33Z" fill="#252A2E"/>
<path d="M547.091 34.7761C547.473 34.9347 547.655 35.3735 547.496 35.7561C547.338 36.1383 547.25 36.5579 547.25 37V38.5C547.25 38.9142 546.914 39.25 546.5 39.25C546.086 39.25 545.75 38.9142 545.75 38.5V37C545.75 36.3573 545.878 35.7427 546.111 35.1816C546.269 34.7989 546.708 34.6174 547.091 34.7761Z" fill="#252A2E"/>
<path d="M565.909 34.7761C566.292 34.6174 566.731 34.7989 566.889 35.1816C567.122 35.7427 567.25 36.3573 567.25 37V38.5C567.25 38.9142 566.914 39.25 566.5 39.25C566.086 39.25 565.75 38.9142 565.75 38.5V37C565.75 36.5579 565.662 36.1383 565.504 35.7561C565.345 35.3735 565.527 34.9347 565.909 34.7761Z" fill="#252A2E"/>
<path d="M546.5 40.75C546.914 40.75 547.25 41.0858 547.25 41.5V44.5C547.25 44.9142 546.914 45.25 546.5 45.25C546.086 45.25 545.75 44.9142 545.75 44.5V41.5C545.75 41.0858 546.086 40.75 546.5 40.75Z" fill="#252A2E"/>
<path d="M566.5 40.75C566.914 40.75 567.25 41.0858 567.25 41.5V44.5C567.25 44.9142 566.914 45.25 566.5 45.25C566.086 45.25 565.75 44.9142 565.75 44.5V41.5C565.75 41.0858 566.086 40.75 566.5 40.75Z" fill="#252A2E"/>
<path d="M546.5 46.75C546.914 46.75 547.25 47.0858 547.25 47.5V49C547.25 49.4421 547.338 49.8617 547.496 50.2439C547.655 50.6265 547.473 51.0653 547.091 51.2239C546.708 51.3826 546.269 51.2011 546.111 50.8184C545.878 50.2573 545.75 49.6427 545.75 49V47.5C545.75 47.0858 546.086 46.75 546.5 46.75Z" fill="#252A2E"/>
<path d="M566.5 46.75C566.914 46.75 567.25 47.0858 567.25 47.5V49C567.25 49.6427 567.122 50.2573 566.889 50.8184C566.731 51.2011 566.292 51.3826 565.909 51.2239C565.527 51.0653 565.345 50.6265 565.504 50.2439C565.662 49.8617 565.75 49.4421 565.75 49V47.5C565.75 47.0858 566.086 46.75 566.5 46.75Z" fill="#252A2E"/>
<path d="M548.276 52.4092C548.435 52.0266 548.874 51.845 549.256 52.0037C549.638 52.1622 550.058 52.25 550.5 52.25H552C552.414 52.25 552.75 52.5858 552.75 53C552.75 53.4142 552.414 53.75 552 53.75H550.5C549.857 53.75 549.243 53.622 548.682 53.3893C548.299 53.2306 548.117 52.7918 548.276 52.4092Z" fill="#252A2E"/>
<path d="M564.724 52.4092C564.883 52.7918 564.701 53.2306 564.318 53.3893C563.757 53.622 563.143 53.75 562.5 53.75H561C560.586 53.75 560.25 53.4142 560.25 53C560.25 52.5858 560.586 52.25 561 52.25H562.5C562.942 52.25 563.362 52.1622 563.744 52.0037C564.126 51.845 564.565 52.0266 564.724 52.4092Z" fill="#252A2E"/>
<path d="M554.25 53C554.25 52.5858 554.586 52.25 555 52.25H558C558.414 52.25 558.75 52.5858 558.75 53C558.75 53.4142 558.414 53.75 558 53.75H555C554.586 53.75 554.25 53.4142 554.25 53Z" fill="#252A2E"/>
<path d="M565.03 35.591C565.323 35.2981 565.323 34.8232 565.03 34.5303C564.737 34.2374 564.263 34.2374 563.97 34.5303L562.973 35.5265C562.681 35.8194 562.681 36.2943 562.973 36.5872C563.266 36.8801 563.741 36.8801 564.034 36.5872L565.03 35.591Z" fill="#252A2E"/>
<path d="M562.042 38.5796C562.335 38.2867 562.335 37.8118 562.042 37.519C561.749 37.2261 561.274 37.2261 560.981 37.519L558.989 39.5114C558.696 39.8043 558.696 40.2791 558.989 40.572C559.282 40.8649 559.756 40.8649 560.049 40.572L562.042 38.5796Z" fill="#252A2E"/>
<path d="M558.057 42.5645C558.35 42.2716 558.35 41.7967 558.057 41.5038C557.764 41.2109 557.289 41.2109 556.996 41.5038L556.5 42L556.004 41.5038C555.711 41.2109 555.236 41.2109 554.943 41.5038C554.65 41.7967 554.65 42.2716 554.943 42.5645L555.439 43.0607L555.004 43.4962C554.711 43.7891 554.711 44.264 555.004 44.5569C555.297 44.8498 555.772 44.8498 556.064 44.5569L556.5 44.1213L556.936 44.5569C557.228 44.8498 557.703 44.8498 557.996 44.5569C558.289 44.264 558.289 43.7891 557.996 43.4962L557.561 43.0607L558.057 42.5645Z" fill="#252A2E"/>
<path d="M554.072 46.5493C554.365 46.2564 554.365 45.7815 554.072 45.4886C553.779 45.1957 553.304 45.1957 553.011 45.4886L551.019 47.481C550.726 47.7739 550.726 48.2488 551.019 48.5417C551.312 48.8346 551.787 48.8346 552.08 48.5417L554.072 46.5493Z" fill="#252A2E"/>
<path d="M550.087 50.5341C550.38 50.2412 550.38 49.7664 550.087 49.4735C549.794 49.1806 549.319 49.1806 549.027 49.4735L548.03 50.4697C547.737 50.7626 547.737 51.2374 548.03 51.5303C548.323 51.8232 548.798 51.8232 549.091 51.5303L550.087 50.5341Z" fill="#252A2E"/>
<path d="M563.909 51.5303C564.202 51.8232 564.677 51.8232 564.97 51.5303C565.263 51.2374 565.263 50.7626 564.97 50.4697L563.973 49.4735C563.681 49.1806 563.206 49.1806 562.913 49.4735C562.62 49.7664 562.62 50.2412 562.913 50.5341L563.909 51.5303Z" fill="#252A2E"/>
<path d="M560.92 48.5417C561.213 48.8346 561.688 48.8346 561.981 48.5417C562.274 48.2488 562.274 47.7739 561.981 47.481L559.989 45.4886C559.696 45.1957 559.221 45.1957 558.928 45.4886C558.635 45.7815 558.635 46.2564 558.928 46.5493L560.92 48.5417Z" fill="#252A2E"/>
<path d="M552.951 40.572C553.244 40.8649 553.718 40.8649 554.011 40.572C554.304 40.2791 554.304 39.8043 554.011 39.5114L552.019 37.519C551.726 37.2261 551.251 37.2261 550.958 37.519C550.665 37.8118 550.665 38.2867 550.958 38.5796L552.951 40.572Z" fill="#252A2E"/>
<path d="M548.966 36.5872C549.259 36.8801 549.734 36.8801 550.027 36.5872C550.319 36.2943 550.319 35.8194 550.027 35.5265L549.03 34.5303C548.737 34.2374 548.263 34.2374 547.97 34.5303C547.677 34.8232 547.677 35.2981 547.97 35.591L548.966 36.5872Z" fill="#252A2E"/>
<path d="M553.556 37.889C553.854 37.7988 554.171 37.75 554.5 37.75H555.25C555.664 37.75 556 37.4142 556 37C556 36.5858 555.664 36.25 555.25 36.25H554.5C554.022 36.25 553.558 36.321 553.121 36.4535C552.725 36.5736 552.501 36.9923 552.621 37.3887C552.741 37.7851 553.16 38.0091 553.556 37.889Z" fill="#252A2E"/>
<path d="M557.75 36.25C557.336 36.25 557 36.5858 557 37C557 37.4142 557.336 37.75 557.75 37.75H558.5C558.829 37.75 559.146 37.7988 559.444 37.889C559.84 38.0091 560.259 37.7851 560.379 37.3887C560.499 36.9923 560.275 36.5736 559.879 36.4535C559.442 36.321 558.978 36.25 558.5 36.25H557.75Z" fill="#252A2E"/>
<path d="M551.389 40.0559C551.509 39.6595 551.285 39.2408 550.889 39.1207C550.492 39.0006 550.074 39.2246 549.953 39.621C549.821 40.0583 549.75 40.5216 549.75 41V41.75C549.75 42.1642 550.086 42.5 550.5 42.5C550.914 42.5 551.25 42.1642 551.25 41.75V41C551.25 40.6705 551.299 40.3538 551.389 40.0559Z" fill="#252A2E"/>
<path d="M563.047 39.621C562.926 39.2246 562.508 39.0006 562.111 39.1207C561.715 39.2408 561.491 39.6595 561.611 40.0559C561.701 40.3538 561.75 40.6705 561.75 41V41.75C561.75 42.1642 562.086 42.5 562.5 42.5C562.914 42.5 563.25 42.1642 563.25 41.75V41C563.25 40.5216 563.179 40.0583 563.047 39.621Z" fill="#252A2E"/>
<path d="M551.25 44.25C551.25 43.8358 550.914 43.5 550.5 43.5C550.086 43.5 549.75 43.8358 549.75 44.25V45C549.75 45.4784 549.821 45.9417 549.953 46.379C550.074 46.7754 550.492 46.9994 550.889 46.8793C551.285 46.7592 551.509 46.3405 551.389 45.9441C551.299 45.6462 551.25 45.3295 551.25 45V44.25Z" fill="#252A2E"/>
<path d="M563.25 44.25C563.25 43.8358 562.914 43.5 562.5 43.5C562.086 43.5 561.75 43.8358 561.75 44.25V45C561.75 45.3295 561.701 45.6462 561.611 45.9441C561.491 46.3405 561.715 46.7592 562.111 46.8793C562.508 46.9994 562.926 46.7754 563.047 46.379C563.179 45.9417 563.25 45.4784 563.25 45V44.25Z" fill="#252A2E"/>
<path d="M553.556 48.111C553.16 47.9909 552.741 48.2149 552.621 48.6113C552.501 49.0077 552.725 49.4264 553.121 49.5465C553.558 49.679 554.022 49.75 554.5 49.75H555.25C555.664 49.75 556 49.4142 556 49C556 48.5858 555.664 48.25 555.25 48.25H554.5C554.171 48.25 553.854 48.2012 553.556 48.111Z" fill="#252A2E"/>
<path d="M559.879 49.5465C560.275 49.4264 560.499 49.0077 560.379 48.6113C560.259 48.2149 559.84 47.9909 559.444 48.111C559.146 48.2012 558.829 48.25 558.5 48.25H557.75C557.336 48.25 557 48.5858 557 49C557 49.4142 557.336 49.75 557.75 49.75H558.5C558.978 49.75 559.442 49.679 559.879 49.5465Z" fill="#252A2E"/>
</g>
<rect x="330" y="26.5" width="301" height="33" rx="16.5" stroke="#353A40"/>
<g clip-path="url(#clip1_431_73334)">
<rect x="329.5" y="68" width="98" height="50" rx="7" fill="#353A40"/>
<path d="M373.898 93.2734C373.898 94.1536 373.786 94.9557 373.562 95.6797C373.344 96.3984 373.013 97.0182 372.57 97.5391C372.128 98.0547 371.573 98.4531 370.906 98.7344C370.24 99.0156 369.458 99.1562 368.562 99.1562C367.651 99.1562 366.859 99.0156 366.188 98.7344C365.521 98.4531 364.966 98.0521 364.523 97.5312C364.086 97.0104 363.758 96.388 363.539 95.6641C363.32 94.9401 363.211 94.138 363.211 93.2578C363.211 92.0807 363.404 91.0547 363.789 90.1797C364.18 89.2995 364.771 88.6172 365.562 88.1328C366.359 87.6432 367.365 87.3984 368.578 87.3984C369.766 87.3984 370.753 87.6406 371.539 88.125C372.326 88.6094 372.914 89.2917 373.305 90.1719C373.701 91.0469 373.898 92.0807 373.898 93.2734ZM365.18 93.2734C365.18 94.1536 365.299 94.9167 365.539 95.5625C365.779 96.2031 366.146 96.6979 366.641 97.0469C367.141 97.3906 367.781 97.5625 368.562 97.5625C369.349 97.5625 369.99 97.3906 370.484 97.0469C370.979 96.6979 371.344 96.2031 371.578 95.5625C371.812 94.9167 371.93 94.1536 371.93 93.2734C371.93 91.9349 371.661 90.888 371.125 90.1328C370.594 89.3724 369.745 88.9922 368.578 88.9922C367.797 88.9922 367.154 89.1641 366.648 89.5078C366.148 89.8516 365.779 90.3438 365.539 90.9844C365.299 91.6198 365.18 92.3828 365.18 93.2734ZM380.922 90.1875C381.896 90.1875 382.654 90.4401 383.195 90.9453C383.742 91.4453 384.016 92.25 384.016 93.3594V99H382.18V93.7031C382.18 93.0312 382.042 92.5286 381.766 92.1953C381.49 91.8568 381.062 91.6875 380.484 91.6875C379.646 91.6875 379.062 91.9453 378.734 92.4609C378.411 92.9766 378.25 93.724 378.25 94.7031V99H376.414V90.3516H377.844L378.102 91.5234H378.203C378.391 91.2214 378.622 90.974 378.898 90.7812C379.18 90.5833 379.492 90.4349 379.836 90.3359C380.185 90.237 380.547 90.1875 380.922 90.1875ZM390.281 90.1875C391.052 90.1875 391.714 90.3464 392.266 90.6641C392.818 90.9818 393.242 91.4323 393.539 92.0156C393.836 92.599 393.984 93.2969 393.984 94.1094V95.0938H388.211C388.232 95.9323 388.456 96.5781 388.883 97.0312C389.315 97.4844 389.919 97.7109 390.695 97.7109C391.247 97.7109 391.742 97.6589 392.18 97.5547C392.622 97.4453 393.078 97.2865 393.547 97.0781V98.5703C393.115 98.7734 392.674 98.9219 392.227 99.0156C391.779 99.1094 391.242 99.1562 390.617 99.1562C389.768 99.1562 389.021 98.9922 388.375 98.6641C387.734 98.3307 387.232 97.8359 386.867 97.1797C386.508 96.5234 386.328 95.7083 386.328 94.7344C386.328 93.7656 386.492 92.9427 386.82 92.2656C387.148 91.5885 387.609 91.0729 388.203 90.7188C388.797 90.3646 389.49 90.1875 390.281 90.1875ZM390.281 91.5703C389.703 91.5703 389.234 91.7578 388.875 92.1328C388.521 92.5078 388.312 93.0573 388.25 93.7812H392.188C392.182 93.349 392.109 92.9661 391.969 92.6328C391.833 92.2995 391.625 92.0391 391.344 91.8516C391.068 91.6641 390.714 91.5703 390.281 91.5703Z" fill="white"/>
<rect x="329.5" y="68" width="98" height="50" rx="7" stroke="#353A40" stroke-width="2"/>
<path d="M467.781 99H465.898V89.1719H462.555V87.5781H471.117V89.1719H467.781V99ZM480 98.9922L478.906 94.9688C478.854 94.7708 478.792 94.5312 478.719 94.25C478.646 93.9688 478.573 93.6797 478.5 93.3828C478.427 93.0807 478.359 92.8021 478.297 92.5469C478.24 92.2917 478.195 92.0938 478.164 91.9531H478.102C478.076 92.0938 478.034 92.2917 477.977 92.5469C477.919 92.8021 477.854 93.0807 477.781 93.3828C477.708 93.6849 477.635 93.9792 477.562 94.2656C477.495 94.5521 477.432 94.7969 477.375 95L476.227 98.9922H474.211L471.789 90.3438H473.648L474.773 94.6406C474.846 94.9323 474.917 95.2474 474.984 95.5859C475.057 95.9245 475.12 96.2474 475.172 96.5547C475.224 96.862 475.263 97.1146 475.289 97.3125H475.352C475.372 97.1719 475.401 96.9948 475.438 96.7812C475.474 96.5625 475.516 96.3359 475.562 96.1016C475.609 95.862 475.656 95.638 475.703 95.4297C475.75 95.2161 475.794 95.0443 475.836 94.9141L477.164 90.3438H479.172L480.445 94.9141C480.503 95.112 480.565 95.362 480.633 95.6641C480.701 95.9609 480.76 96.2604 480.812 96.5625C480.87 96.8594 480.906 97.1068 480.922 97.3047H480.984C481.005 97.1276 481.042 96.888 481.094 96.5859C481.151 96.2786 481.216 95.9531 481.289 95.6094C481.362 95.2604 481.438 94.9375 481.516 94.6406L482.664 90.3438H484.492L482.055 98.9922H480ZM493.883 94.6562C493.883 95.375 493.789 96.013 493.602 96.5703C493.414 97.1276 493.141 97.599 492.781 97.9844C492.422 98.3646 491.99 98.6562 491.484 98.8594C490.979 99.0573 490.409 99.1562 489.773 99.1562C489.18 99.1562 488.635 99.0573 488.141 98.8594C487.646 98.6562 487.216 98.3646 486.852 97.9844C486.492 97.599 486.214 97.1276 486.016 96.5703C485.818 96.013 485.719 95.375 485.719 94.6562C485.719 93.7031 485.883 92.8958 486.211 92.2344C486.544 91.5677 487.018 91.0599 487.633 90.7109C488.247 90.362 488.979 90.1875 489.828 90.1875C490.625 90.1875 491.328 90.362 491.938 90.7109C492.547 91.0599 493.023 91.5677 493.367 92.2344C493.711 92.901 493.883 93.7083 493.883 94.6562ZM487.609 94.6562C487.609 95.2865 487.685 95.8255 487.836 96.2734C487.992 96.7214 488.232 97.0651 488.555 97.3047C488.878 97.5391 489.294 97.6562 489.805 97.6562C490.315 97.6562 490.732 97.5391 491.055 97.3047C491.378 97.0651 491.615 96.7214 491.766 96.2734C491.917 95.8255 491.992 95.2865 491.992 94.6562C491.992 94.026 491.917 93.4922 491.766 93.0547C491.615 92.612 491.378 92.276 491.055 92.0469C490.732 91.8125 490.312 91.6953 489.797 91.6953C489.036 91.6953 488.482 91.9505 488.133 92.4609C487.784 92.9714 487.609 93.7031 487.609 94.6562Z" fill="#252A2E"/>
<line x1="531" y1="81" x2="531" y2="105" stroke="#B7B9C3"/>
<path d="M565.18 99H563.297V89.1719H559.953V87.5781H568.516V89.1719H565.18V99ZM572.164 86.8438V89.8984C572.164 90.2161 572.154 90.526 572.133 90.8281C572.117 91.1302 572.099 91.3646 572.078 91.5312H572.18C572.362 91.2292 572.586 90.9818 572.852 90.7891C573.117 90.5911 573.414 90.4427 573.742 90.3438C574.076 90.2448 574.43 90.1953 574.805 90.1953C575.466 90.1953 576.029 90.3073 576.492 90.5312C576.956 90.75 577.31 91.0911 577.555 91.5547C577.805 92.0182 577.93 92.6198 577.93 93.3594V99H576.094V93.7031C576.094 93.0312 575.956 92.5286 575.68 92.1953C575.404 91.8568 574.977 91.6875 574.398 91.6875C573.841 91.6875 573.398 91.8047 573.07 92.0391C572.747 92.2682 572.516 92.6094 572.375 93.0625C572.234 93.5104 572.164 94.0573 572.164 94.7031V99H570.328V86.8438H572.164ZM585.133 90.1875C585.279 90.1875 585.438 90.1953 585.609 90.2109C585.781 90.2266 585.93 90.2474 586.055 90.2734L585.883 91.9922C585.773 91.9609 585.638 91.9375 585.477 91.9219C585.32 91.9062 585.18 91.8984 585.055 91.8984C584.727 91.8984 584.414 91.9531 584.117 92.0625C583.82 92.1667 583.557 92.3281 583.328 92.5469C583.099 92.7604 582.919 93.0286 582.789 93.3516C582.659 93.6745 582.594 94.0495 582.594 94.4766V99H580.75V90.3516H582.188L582.438 91.875H582.523C582.695 91.5677 582.909 91.2865 583.164 91.0312C583.419 90.776 583.711 90.5729 584.039 90.4219C584.372 90.2656 584.737 90.1875 585.133 90.1875ZM591.352 90.1875C592.122 90.1875 592.784 90.3464 593.336 90.6641C593.888 90.9818 594.312 91.4323 594.609 92.0156C594.906 92.599 595.055 93.2969 595.055 94.1094V95.0938H589.281C589.302 95.9323 589.526 96.5781 589.953 97.0312C590.385 97.4844 590.99 97.7109 591.766 97.7109C592.318 97.7109 592.812 97.6589 593.25 97.5547C593.693 97.4453 594.148 97.2865 594.617 97.0781V98.5703C594.185 98.7734 593.745 98.9219 593.297 99.0156C592.849 99.1094 592.312 99.1562 591.688 99.1562C590.839 99.1562 590.091 98.9922 589.445 98.6641C588.805 98.3307 588.302 97.8359 587.938 97.1797C587.578 96.5234 587.398 95.7083 587.398 94.7344C587.398 93.7656 587.562 92.9427 587.891 92.2656C588.219 91.5885 588.68 91.0729 589.273 90.7188C589.867 90.3646 590.56 90.1875 591.352 90.1875ZM591.352 91.5703C590.773 91.5703 590.305 91.7578 589.945 92.1328C589.591 92.5078 589.383 93.0573 589.32 93.7812H593.258C593.253 93.349 593.18 92.9661 593.039 92.6328C592.904 92.2995 592.695 92.0391 592.414 91.8516C592.138 91.6641 591.784 91.5703 591.352 91.5703ZM600.82 90.1875C601.591 90.1875 602.253 90.3464 602.805 90.6641C603.357 90.9818 603.781 91.4323 604.078 92.0156C604.375 92.599 604.523 93.2969 604.523 94.1094V95.0938H598.75C598.771 95.9323 598.995 96.5781 599.422 97.0312C599.854 97.4844 600.458 97.7109 601.234 97.7109C601.786 97.7109 602.281 97.6589 602.719 97.5547C603.161 97.4453 603.617 97.2865 604.086 97.0781V98.5703C603.654 98.7734 603.214 98.9219 602.766 99.0156C602.318 99.1094 601.781 99.1562 601.156 99.1562C600.307 99.1562 599.56 98.9922 598.914 98.6641C598.273 98.3307 597.771 97.8359 597.406 97.1797C597.047 96.5234 596.867 95.7083 596.867 94.7344C596.867 93.7656 597.031 92.9427 597.359 92.2656C597.688 91.5885 598.148 91.0729 598.742 90.7188C599.336 90.3646 600.029 90.1875 600.82 90.1875ZM600.82 91.5703C600.242 91.5703 599.773 91.7578 599.414 92.1328C599.06 92.5078 598.852 93.0573 598.789 93.7812H602.727C602.721 93.349 602.648 92.9661 602.508 92.6328C602.372 92.2995 602.164 92.0391 601.883 91.8516C601.607 91.6641 601.253 91.5703 600.82 91.5703Z" fill="#252A2E"/>
</g>
<rect x="330" y="68.5" width="301" height="49" rx="8.5" stroke="#353A40"/>
<g clip-path="url(#clip2_431_73334)">
<rect x="329.5" y="126" width="72" height="42" rx="21" fill="#0063A3"/>
<path d="M360.898 147.273C360.898 148.154 360.786 148.956 360.562 149.68C360.344 150.398 360.013 151.018 359.57 151.539C359.128 152.055 358.573 152.453 357.906 152.734C357.24 153.016 356.458 153.156 355.562 153.156C354.651 153.156 353.859 153.016 353.188 152.734C352.521 152.453 351.966 152.052 351.523 151.531C351.086 151.01 350.758 150.388 350.539 149.664C350.32 148.94 350.211 148.138 350.211 147.258C350.211 146.081 350.404 145.055 350.789 144.18C351.18 143.299 351.771 142.617 352.562 142.133C353.359 141.643 354.365 141.398 355.578 141.398C356.766 141.398 357.753 141.641 358.539 142.125C359.326 142.609 359.914 143.292 360.305 144.172C360.701 145.047 360.898 146.081 360.898 147.273ZM352.18 147.273C352.18 148.154 352.299 148.917 352.539 149.562C352.779 150.203 353.146 150.698 353.641 151.047C354.141 151.391 354.781 151.562 355.562 151.562C356.349 151.562 356.99 151.391 357.484 151.047C357.979 150.698 358.344 150.203 358.578 149.562C358.812 148.917 358.93 148.154 358.93 147.273C358.93 145.935 358.661 144.888 358.125 144.133C357.594 143.372 356.745 142.992 355.578 142.992C354.797 142.992 354.154 143.164 353.648 143.508C353.148 143.852 352.779 144.344 352.539 144.984C352.299 145.62 352.18 146.383 352.18 147.273ZM367.922 144.188C368.896 144.188 369.654 144.44 370.195 144.945C370.742 145.445 371.016 146.25 371.016 147.359V153H369.18V147.703C369.18 147.031 369.042 146.529 368.766 146.195C368.49 145.857 368.062 145.688 367.484 145.688C366.646 145.688 366.062 145.945 365.734 146.461C365.411 146.977 365.25 147.724 365.25 148.703V153H363.414V144.352H364.844L365.102 145.523H365.203C365.391 145.221 365.622 144.974 365.898 144.781C366.18 144.583 366.492 144.435 366.836 144.336C367.185 144.237 367.547 144.188 367.922 144.188ZM377.281 144.188C378.052 144.188 378.714 144.346 379.266 144.664C379.818 144.982 380.242 145.432 380.539 146.016C380.836 146.599 380.984 147.297 380.984 148.109V149.094H375.211C375.232 149.932 375.456 150.578 375.883 151.031C376.315 151.484 376.919 151.711 377.695 151.711C378.247 151.711 378.742 151.659 379.18 151.555C379.622 151.445 380.078 151.286 380.547 151.078V152.57C380.115 152.773 379.674 152.922 379.227 153.016C378.779 153.109 378.242 153.156 377.617 153.156C376.768 153.156 376.021 152.992 375.375 152.664C374.734 152.331 374.232 151.836 373.867 151.18C373.508 150.523 373.328 149.708 373.328 148.734C373.328 147.766 373.492 146.943 373.82 146.266C374.148 145.589 374.609 145.073 375.203 144.719C375.797 144.365 376.49 144.188 377.281 144.188ZM377.281 145.57C376.703 145.57 376.234 145.758 375.875 146.133C375.521 146.508 375.312 147.057 375.25 147.781H379.188C379.182 147.349 379.109 146.966 378.969 146.633C378.833 146.299 378.625 146.039 378.344 145.852C378.068 145.664 377.714 145.57 377.281 145.57Z" fill="white"/>
<rect x="329.5" y="126" width="72" height="42" rx="21" stroke="#0063A3" stroke-width="2"/>
<path d="M428.781 153H426.898V143.172H423.555V141.578H432.117V143.172H428.781V153ZM441 152.992L439.906 148.969C439.854 148.771 439.792 148.531 439.719 148.25C439.646 147.969 439.573 147.68 439.5 147.383C439.427 147.081 439.359 146.802 439.297 146.547C439.24 146.292 439.195 146.094 439.164 145.953H439.102C439.076 146.094 439.034 146.292 438.977 146.547C438.919 146.802 438.854 147.081 438.781 147.383C438.708 147.685 438.635 147.979 438.562 148.266C438.495 148.552 438.432 148.797 438.375 149L437.227 152.992H435.211L432.789 144.344H434.648L435.773 148.641C435.846 148.932 435.917 149.247 435.984 149.586C436.057 149.924 436.12 150.247 436.172 150.555C436.224 150.862 436.263 151.115 436.289 151.312H436.352C436.372 151.172 436.401 150.995 436.438 150.781C436.474 150.562 436.516 150.336 436.562 150.102C436.609 149.862 436.656 149.638 436.703 149.43C436.75 149.216 436.794 149.044 436.836 148.914L438.164 144.344H440.172L441.445 148.914C441.503 149.112 441.565 149.362 441.633 149.664C441.701 149.961 441.76 150.26 441.812 150.562C441.87 150.859 441.906 151.107 441.922 151.305H441.984C442.005 151.128 442.042 150.888 442.094 150.586C442.151 150.279 442.216 149.953 442.289 149.609C442.362 149.26 442.438 148.938 442.516 148.641L443.664 144.344H445.492L443.055 152.992H441ZM454.883 148.656C454.883 149.375 454.789 150.013 454.602 150.57C454.414 151.128 454.141 151.599 453.781 151.984C453.422 152.365 452.99 152.656 452.484 152.859C451.979 153.057 451.409 153.156 450.773 153.156C450.18 153.156 449.635 153.057 449.141 152.859C448.646 152.656 448.216 152.365 447.852 151.984C447.492 151.599 447.214 151.128 447.016 150.57C446.818 150.013 446.719 149.375 446.719 148.656C446.719 147.703 446.883 146.896 447.211 146.234C447.544 145.568 448.018 145.06 448.633 144.711C449.247 144.362 449.979 144.188 450.828 144.188C451.625 144.188 452.328 144.362 452.938 144.711C453.547 145.06 454.023 145.568 454.367 146.234C454.711 146.901 454.883 147.708 454.883 148.656ZM448.609 148.656C448.609 149.286 448.685 149.826 448.836 150.273C448.992 150.721 449.232 151.065 449.555 151.305C449.878 151.539 450.294 151.656 450.805 151.656C451.315 151.656 451.732 151.539 452.055 151.305C452.378 151.065 452.615 150.721 452.766 150.273C452.917 149.826 452.992 149.286 452.992 148.656C452.992 148.026 452.917 147.492 452.766 147.055C452.615 146.612 452.378 146.276 452.055 146.047C451.732 145.812 451.312 145.695 450.797 145.695C450.036 145.695 449.482 145.951 449.133 146.461C448.784 146.971 448.609 147.703 448.609 148.656Z" fill="#252A2E"/>
<line x1="479" y1="135" x2="479" y2="159" stroke="#B7B9C3"/>
<path d="M500.18 153H498.297V143.172H494.953V141.578H503.516V143.172H500.18V153ZM507.164 140.844V143.898C507.164 144.216 507.154 144.526 507.133 144.828C507.117 145.13 507.099 145.365 507.078 145.531H507.18C507.362 145.229 507.586 144.982 507.852 144.789C508.117 144.591 508.414 144.443 508.742 144.344C509.076 144.245 509.43 144.195 509.805 144.195C510.466 144.195 511.029 144.307 511.492 144.531C511.956 144.75 512.31 145.091 512.555 145.555C512.805 146.018 512.93 146.62 512.93 147.359V153H511.094V147.703C511.094 147.031 510.956 146.529 510.68 146.195C510.404 145.857 509.977 145.688 509.398 145.688C508.841 145.688 508.398 145.805 508.07 146.039C507.747 146.268 507.516 146.609 507.375 147.062C507.234 147.51 507.164 148.057 507.164 148.703V153H505.328V140.844H507.164ZM520.133 144.188C520.279 144.188 520.438 144.195 520.609 144.211C520.781 144.227 520.93 144.247 521.055 144.273L520.883 145.992C520.773 145.961 520.638 145.938 520.477 145.922C520.32 145.906 520.18 145.898 520.055 145.898C519.727 145.898 519.414 145.953 519.117 146.062C518.82 146.167 518.557 146.328 518.328 146.547C518.099 146.76 517.919 147.029 517.789 147.352C517.659 147.674 517.594 148.049 517.594 148.477V153H515.75V144.352H517.188L517.438 145.875H517.523C517.695 145.568 517.909 145.286 518.164 145.031C518.419 144.776 518.711 144.573 519.039 144.422C519.372 144.266 519.737 144.188 520.133 144.188ZM526.352 144.188C527.122 144.188 527.784 144.346 528.336 144.664C528.888 144.982 529.312 145.432 529.609 146.016C529.906 146.599 530.055 147.297 530.055 148.109V149.094H524.281C524.302 149.932 524.526 150.578 524.953 151.031C525.385 151.484 525.99 151.711 526.766 151.711C527.318 151.711 527.812 151.659 528.25 151.555C528.693 151.445 529.148 151.286 529.617 151.078V152.57C529.185 152.773 528.745 152.922 528.297 153.016C527.849 153.109 527.312 153.156 526.688 153.156C525.839 153.156 525.091 152.992 524.445 152.664C523.805 152.331 523.302 151.836 522.938 151.18C522.578 150.523 522.398 149.708 522.398 148.734C522.398 147.766 522.562 146.943 522.891 146.266C523.219 145.589 523.68 145.073 524.273 144.719C524.867 144.365 525.56 144.188 526.352 144.188ZM526.352 145.57C525.773 145.57 525.305 145.758 524.945 146.133C524.591 146.508 524.383 147.057 524.32 147.781H528.258C528.253 147.349 528.18 146.966 528.039 146.633C527.904 146.299 527.695 146.039 527.414 145.852C527.138 145.664 526.784 145.57 526.352 145.57ZM535.82 144.188C536.591 144.188 537.253 144.346 537.805 144.664C538.357 144.982 538.781 145.432 539.078 146.016C539.375 146.599 539.523 147.297 539.523 148.109V149.094H533.75C533.771 149.932 533.995 150.578 534.422 151.031C534.854 151.484 535.458 151.711 536.234 151.711C536.786 151.711 537.281 151.659 537.719 151.555C538.161 151.445 538.617 151.286 539.086 151.078V152.57C538.654 152.773 538.214 152.922 537.766 153.016C537.318 153.109 536.781 153.156 536.156 153.156C535.307 153.156 534.56 152.992 533.914 152.664C533.273 152.331 532.771 151.836 532.406 151.18C532.047 150.523 531.867 149.708 531.867 148.734C531.867 147.766 532.031 146.943 532.359 146.266C532.688 145.589 533.148 145.073 533.742 144.719C534.336 144.365 535.029 144.188 535.82 144.188ZM535.82 145.57C535.242 145.57 534.773 145.758 534.414 146.133C534.06 146.508 533.852 147.057 533.789 147.781H537.727C537.721 147.349 537.648 146.966 537.508 146.633C537.372 146.299 537.164 146.039 536.883 145.852C536.607 145.664 536.253 145.57 535.82 145.57Z" fill="#252A2E"/>
<line x1="557" y1="135" x2="557" y2="159" stroke="#B7B9C3"/>
<path d="M580.797 153H578.938V141.578H585.391V143.156H580.797V146.719H585.094V148.289H580.797V153ZM595.188 148.656C595.188 149.375 595.094 150.013 594.906 150.57C594.719 151.128 594.445 151.599 594.086 151.984C593.727 152.365 593.294 152.656 592.789 152.859C592.284 153.057 591.714 153.156 591.078 153.156C590.484 153.156 589.94 153.057 589.445 152.859C588.951 152.656 588.521 152.365 588.156 151.984C587.797 151.599 587.518 151.128 587.32 150.57C587.122 150.013 587.023 149.375 587.023 148.656C587.023 147.703 587.188 146.896 587.516 146.234C587.849 145.568 588.323 145.06 588.938 144.711C589.552 144.362 590.284 144.188 591.133 144.188C591.93 144.188 592.633 144.362 593.242 144.711C593.852 145.06 594.328 145.568 594.672 146.234C595.016 146.901 595.188 147.708 595.188 148.656ZM588.914 148.656C588.914 149.286 588.99 149.826 589.141 150.273C589.297 150.721 589.536 151.065 589.859 151.305C590.182 151.539 590.599 151.656 591.109 151.656C591.62 151.656 592.036 151.539 592.359 151.305C592.682 151.065 592.919 150.721 593.07 150.273C593.221 149.826 593.297 149.286 593.297 148.656C593.297 148.026 593.221 147.492 593.07 147.055C592.919 146.612 592.682 146.276 592.359 146.047C592.036 145.812 591.617 145.695 591.102 145.695C590.341 145.695 589.786 145.951 589.438 146.461C589.089 146.971 588.914 147.703 588.914 148.656ZM605.086 144.352V153H603.641L603.391 151.836H603.289C603.107 152.133 602.875 152.38 602.594 152.578C602.312 152.771 602 152.914 601.656 153.008C601.312 153.107 600.951 153.156 600.57 153.156C599.919 153.156 599.362 153.047 598.898 152.828C598.44 152.604 598.089 152.26 597.844 151.797C597.599 151.333 597.477 150.734 597.477 150V144.352H599.32V149.656C599.32 150.328 599.456 150.831 599.727 151.164C600.003 151.497 600.43 151.664 601.008 151.664C601.565 151.664 602.008 151.549 602.336 151.32C602.664 151.091 602.896 150.753 603.031 150.305C603.172 149.857 603.242 149.307 603.242 148.656V144.352H605.086ZM612.352 144.188C612.497 144.188 612.656 144.195 612.828 144.211C613 144.227 613.148 144.247 613.273 144.273L613.102 145.992C612.992 145.961 612.857 145.938 612.695 145.922C612.539 145.906 612.398 145.898 612.273 145.898C611.945 145.898 611.633 145.953 611.336 146.062C611.039 146.167 610.776 146.328 610.547 146.547C610.318 146.76 610.138 147.029 610.008 147.352C609.878 147.674 609.812 148.049 609.812 148.477V153H607.969V144.352H609.406L609.656 145.875H609.742C609.914 145.568 610.128 145.286 610.383 145.031C610.638 144.776 610.93 144.573 611.258 144.422C611.591 144.266 611.956 144.188 612.352 144.188Z" fill="#252A2E"/>
</g>
<rect x="330" y="126.5" width="301" height="41" rx="20.5" stroke="#353A40"/>
<g clip-path="url(#clip3_431_73334)">
<rect x="330" y="176.5" width="55.4" height="57" rx="4.5" fill="#0063A3"/>
<path d="M349.699 192.667C349.109 192.667 348.55 192.784 348.04 192.995C347.53 193.207 346.945 192.965 346.733 192.454C346.522 191.944 346.764 191.359 347.274 191.148C348.022 190.837 348.842 190.667 349.699 190.667H351.699C352.251 190.667 352.699 191.114 352.699 191.667C352.699 192.219 352.251 192.667 351.699 192.667H349.699Z" fill="white"/>
<path d="M354.699 191.667C354.699 191.114 355.146 190.667 355.699 190.667H359.699C360.251 190.667 360.699 191.114 360.699 191.667C360.699 192.219 360.251 192.667 359.699 192.667H355.699C355.146 192.667 354.699 192.219 354.699 191.667Z" fill="white"/>
<path d="M362.699 191.667C362.699 191.114 363.146 190.667 363.699 190.667H365.699C366.555 190.667 367.375 190.837 368.123 191.148C368.633 191.359 368.875 191.944 368.664 192.454C368.452 192.965 367.867 193.207 367.357 192.995C366.848 192.784 366.288 192.667 365.699 192.667H363.699C363.146 192.667 362.699 192.219 362.699 191.667Z" fill="white"/>
<path d="M345.153 194.035C345.663 194.246 345.905 194.831 345.694 195.341C345.482 195.851 345.365 196.411 345.365 197V199C345.365 199.552 344.918 200 344.365 200C343.813 200 343.365 199.552 343.365 199V197C343.365 196.143 343.536 195.324 343.846 194.575C344.058 194.065 344.643 193.823 345.153 194.035Z" fill="white"/>
<path d="M370.244 194.035C370.754 193.823 371.339 194.065 371.551 194.575C371.861 195.324 372.032 196.143 372.032 197V199C372.032 199.552 371.584 200 371.032 200C370.48 200 370.032 199.552 370.032 199V197C370.032 196.411 369.915 195.851 369.703 195.341C369.492 194.831 369.734 194.246 370.244 194.035Z" fill="white"/>
<path d="M344.365 202C344.918 202 345.365 202.448 345.365 203V207C345.365 207.552 344.918 208 344.365 208C343.813 208 343.365 207.552 343.365 207V203C343.365 202.448 343.813 202 344.365 202Z" fill="white"/>
<path d="M371.032 202C371.584 202 372.032 202.448 372.032 203V207C372.032 207.552 371.584 208 371.032 208C370.48 208 370.032 207.552 370.032 207V203C370.032 202.448 370.48 202 371.032 202Z" fill="white"/>
<path d="M344.365 210C344.918 210 345.365 210.448 345.365 211V213C345.365 213.589 345.482 214.149 345.694 214.658C345.905 215.169 345.663 215.754 345.153 215.965C344.643 216.177 344.058 215.935 343.846 215.425C343.536 214.676 343.365 213.857 343.365 213V211C343.365 210.448 343.813 210 344.365 210Z" fill="white"/>
<path d="M371.032 210C371.584 210 372.032 210.448 372.032 211V213C372.032 213.857 371.861 214.676 371.551 215.425C371.339 215.935 370.754 216.177 370.244 215.965C369.734 215.754 369.492 215.169 369.703 214.658C369.915 214.149 370.032 213.589 370.032 213V211C370.032 210.448 370.48 210 371.032 210Z" fill="white"/>
<path d="M346.733 217.546C346.945 217.035 347.53 216.793 348.04 217.005C348.55 217.216 349.109 217.333 349.699 217.333H351.699C352.251 217.333 352.699 217.781 352.699 218.333C352.699 218.886 352.251 219.333 351.699 219.333H349.699C348.842 219.333 348.022 219.163 347.274 218.852C346.764 218.641 346.522 218.056 346.733 217.546Z" fill="white"/>
<path d="M368.664 217.546C368.875 218.056 368.633 218.641 368.123 218.852C367.375 219.163 366.555 219.333 365.699 219.333H363.699C363.146 219.333 362.699 218.886 362.699 218.333C362.699 217.781 363.146 217.333 363.699 217.333H365.699C366.288 217.333 366.848 217.216 367.357 217.005C367.867 216.793 368.452 217.035 368.664 217.546Z" fill="white"/>
<path d="M354.699 218.333C354.699 217.781 355.146 217.333 355.699 217.333H359.699C360.251 217.333 360.699 217.781 360.699 218.333C360.699 218.886 360.251 219.333 359.699 219.333H355.699C355.146 219.333 354.699 218.886 354.699 218.333Z" fill="white"/>
<path d="M369.072 195.121C369.463 194.731 369.463 194.098 369.072 193.707C368.682 193.317 368.049 193.317 367.658 193.707L366.33 195.035C365.939 195.426 365.939 196.059 366.33 196.45C366.72 196.84 367.354 196.84 367.744 196.45L369.072 195.121Z" fill="white"/>
<path d="M365.088 199.106C365.478 198.716 365.478 198.082 365.088 197.692C364.697 197.301 364.064 197.301 363.673 197.692L361.017 200.348C360.626 200.739 360.626 201.372 361.017 201.763C361.407 202.153 362.04 202.153 362.431 201.763L365.088 199.106Z" fill="white"/>
<path d="M359.774 204.419C360.165 204.029 360.165 203.396 359.774 203.005C359.384 202.614 358.751 202.614 358.36 203.005L357.699 203.667L357.037 203.005C356.646 202.614 356.013 202.614 355.623 203.005C355.232 203.396 355.232 204.029 355.623 204.419L356.284 205.081L355.704 205.662C355.313 206.052 355.313 206.685 355.704 207.076C356.094 207.466 356.727 207.466 357.118 207.076L357.699 206.495L358.279 207.076C358.67 207.466 359.303 207.466 359.694 207.076C360.084 206.685 360.084 206.052 359.694 205.662L359.113 205.081L359.774 204.419Z" fill="white"/>
<path d="M354.461 209.732C354.852 209.342 354.852 208.709 354.461 208.318C354.071 207.928 353.438 207.928 353.047 208.318L350.391 210.975C350 211.365 350 211.998 350.391 212.389C350.781 212.779 351.414 212.779 351.805 212.389L354.461 209.732Z" fill="white"/>
<path d="M349.148 215.045C349.539 214.655 349.539 214.022 349.148 213.631C348.758 213.241 348.124 213.241 347.734 213.631L346.406 214.96C346.015 215.35 346.015 215.983 346.406 216.374C346.796 216.764 347.429 216.764 347.82 216.374L349.148 215.045Z" fill="white"/>
<path d="M367.577 216.374C367.968 216.764 368.601 216.764 368.991 216.374C369.382 215.983 369.382 215.35 368.991 214.96L367.663 213.631C367.273 213.241 366.639 213.241 366.249 213.631C365.858 214.022 365.858 214.655 366.249 215.045L367.577 216.374Z" fill="white"/>
<path d="M363.592 212.389C363.983 212.779 364.616 212.779 365.007 212.389C365.397 211.998 365.397 211.365 365.007 210.975L362.35 208.318C361.96 207.928 361.326 207.928 360.936 208.318C360.545 208.709 360.545 209.342 360.936 209.732L363.592 212.389Z" fill="white"/>
<path d="M352.966 201.763C353.357 202.153 353.99 202.153 354.38 201.763C354.771 201.372 354.771 200.739 354.38 200.348L351.724 197.692C351.333 197.301 350.7 197.301 350.31 197.692C349.919 198.082 349.919 198.716 350.31 199.106L352.966 201.763Z" fill="white"/>
<path d="M347.653 196.45C348.044 196.84 348.677 196.84 349.067 196.45C349.458 196.059 349.458 195.426 349.067 195.035L347.739 193.707C347.348 193.317 346.715 193.317 346.325 193.707C345.934 194.098 345.934 194.731 346.325 195.121L347.653 196.45Z" fill="white"/>
<path d="M353.773 198.185C354.17 198.065 354.593 198 355.032 198H356.032C356.584 198 357.032 197.552 357.032 197C357.032 196.448 356.584 196 356.032 196H355.032C354.394 196 353.776 196.095 353.193 196.271C352.665 196.431 352.366 196.99 352.526 197.518C352.686 198.047 353.245 198.345 353.773 198.185Z" fill="white"/>
<path d="M359.365 196C358.813 196 358.365 196.448 358.365 197C358.365 197.552 358.813 198 359.365 198H360.365C360.805 198 361.227 198.065 361.624 198.185C362.153 198.345 362.711 198.047 362.871 197.518C363.031 196.99 362.732 196.431 362.204 196.271C361.621 196.095 361.003 196 360.365 196H359.365Z" fill="white"/>
<path d="M350.884 201.075C351.044 200.546 350.745 199.988 350.217 199.828C349.688 199.667 349.13 199.966 348.97 200.495C348.793 201.078 348.699 201.695 348.699 202.333V203.333C348.699 203.886 349.146 204.333 349.699 204.333C350.251 204.333 350.699 203.886 350.699 203.333V202.333C350.699 201.894 350.764 201.472 350.884 201.075Z" fill="white"/>
<path d="M366.427 200.495C366.267 199.966 365.709 199.667 365.18 199.828C364.652 199.988 364.353 200.546 364.513 201.075C364.634 201.472 364.699 201.894 364.699 202.333V203.333C364.699 203.886 365.146 204.333 365.699 204.333C366.251 204.333 366.699 203.886 366.699 203.333V202.333C366.699 201.695 366.604 201.078 366.427 200.495Z" fill="white"/>
<path d="M350.699 206.667C350.699 206.114 350.251 205.667 349.699 205.667C349.146 205.667 348.699 206.114 348.699 206.667V207.667C348.699 208.305 348.793 208.922 348.97 209.505C349.13 210.034 349.688 210.333 350.217 210.172C350.745 210.012 351.044 209.454 350.884 208.925C350.764 208.528 350.699 208.106 350.699 207.667V206.667Z" fill="white"/>
<path d="M366.699 206.667C366.699 206.114 366.251 205.667 365.699 205.667C365.146 205.667 364.699 206.114 364.699 206.667V207.667C364.699 208.106 364.634 208.528 364.513 208.925C364.353 209.454 364.652 210.012 365.18 210.172C365.709 210.333 366.267 210.034 366.427 209.505C366.604 208.922 366.699 208.305 366.699 207.667V206.667Z" fill="white"/>
<path d="M353.773 211.815C353.245 211.654 352.686 211.953 352.526 212.482C352.366 213.01 352.665 213.569 353.193 213.729C353.776 213.905 354.394 214 355.032 214H356.032C356.584 214 357.032 213.552 357.032 213C357.032 212.448 356.584 212 356.032 212H355.032C354.593 212 354.17 211.935 353.773 211.815Z" fill="white"/>
<path d="M362.204 213.729C362.732 213.569 363.031 213.01 362.871 212.482C362.711 211.953 362.153 211.654 361.624 211.815C361.227 211.935 360.805 212 360.365 212H359.365C358.813 212 358.365 212.448 358.365 213C358.365 213.552 358.813 214 359.365 214H360.365C361.003 214 361.621 213.905 362.204 213.729Z" fill="white"/>
<rect x="330" y="176.5" width="55.4" height="57" rx="4.5" stroke="#0063A3"/>
<path d="M408.099 192.667C407.51 192.667 406.95 192.784 406.44 192.995C405.93 193.207 405.345 192.965 405.134 192.454C404.922 191.944 405.164 191.359 405.674 191.148C406.423 190.837 407.242 190.667 408.099 190.667H410.099C410.651 190.667 411.099 191.114 411.099 191.667C411.099 192.219 410.651 192.667 410.099 192.667H408.099Z" fill="#252A2E"/>
<path d="M413.099 191.667C413.099 191.114 413.547 190.667 414.099 190.667H418.099C418.651 190.667 419.099 191.114 419.099 191.667C419.099 192.219 418.651 192.667 418.099 192.667H414.099C413.547 192.667 413.099 192.219 413.099 191.667Z" fill="#252A2E"/>
<path d="M421.099 191.667C421.099 191.114 421.547 190.667 422.099 190.667H424.099C424.956 190.667 425.775 190.837 426.524 191.148C427.034 191.359 427.276 191.944 427.064 192.454C426.853 192.965 426.268 193.207 425.757 192.995C425.248 192.784 424.688 192.667 424.099 192.667H422.099C421.547 192.667 421.099 192.219 421.099 191.667Z" fill="#252A2E"/>
<path d="M403.553 194.035C404.064 194.246 404.306 194.831 404.094 195.341C403.883 195.851 403.766 196.411 403.766 197V199C403.766 199.552 403.318 200 402.766 200C402.213 200 401.766 199.552 401.766 199V197C401.766 196.143 401.936 195.324 402.247 194.575C402.458 194.065 403.043 193.823 403.553 194.035Z" fill="#252A2E"/>
<path d="M428.645 194.035C429.155 193.823 429.74 194.065 429.951 194.575C430.262 195.324 430.432 196.143 430.432 197V199C430.432 199.552 429.985 200 429.432 200C428.88 200 428.432 199.552 428.432 199V197C428.432 196.411 428.315 195.851 428.104 195.341C427.892 194.831 428.134 194.246 428.645 194.035Z" fill="#252A2E"/>
<path d="M402.766 202C403.318 202 403.766 202.448 403.766 203V207C403.766 207.552 403.318 208 402.766 208C402.213 208 401.766 207.552 401.766 207V203C401.766 202.448 402.213 202 402.766 202Z" fill="#252A2E"/>
<path d="M429.432 202C429.985 202 430.432 202.448 430.432 203V207C430.432 207.552 429.985 208 429.432 208C428.88 208 428.432 207.552 428.432 207V203C428.432 202.448 428.88 202 429.432 202Z" fill="#252A2E"/>
<path d="M402.766 210C403.318 210 403.766 210.448 403.766 211V213C403.766 213.589 403.883 214.149 404.094 214.658C404.306 215.169 404.064 215.754 403.553 215.965C403.043 216.177 402.458 215.935 402.247 215.425C401.936 214.676 401.766 213.857 401.766 213V211C401.766 210.448 402.213 210 402.766 210Z" fill="#252A2E"/>
<path d="M429.432 210C429.985 210 430.432 210.448 430.432 211V213C430.432 213.857 430.262 214.676 429.951 215.425C429.74 215.935 429.155 216.177 428.645 215.965C428.134 215.754 427.892 215.169 428.104 214.658C428.315 214.149 428.432 213.589 428.432 213V211C428.432 210.448 428.88 210 429.432 210Z" fill="#252A2E"/>
<path d="M405.134 217.546C405.345 217.035 405.93 216.793 406.44 217.005C406.95 217.216 407.51 217.333 408.099 217.333H410.099C410.651 217.333 411.099 217.781 411.099 218.333C411.099 218.886 410.651 219.333 410.099 219.333H408.099C407.242 219.333 406.423 219.163 405.674 218.852C405.164 218.641 404.922 218.056 405.134 217.546Z" fill="#252A2E"/>
<path d="M427.064 217.546C427.276 218.056 427.034 218.641 426.524 218.852C425.775 219.163 424.956 219.333 424.099 219.333H422.099C421.547 219.333 421.099 218.886 421.099 218.333C421.099 217.781 421.547 217.333 422.099 217.333H424.099C424.688 217.333 425.248 217.216 425.757 217.005C426.268 216.793 426.853 217.035 427.064 217.546Z" fill="#252A2E"/>
<path d="M413.099 218.333C413.099 217.781 413.547 217.333 414.099 217.333H418.099C418.651 217.333 419.099 217.781 419.099 218.333C419.099 218.886 418.651 219.333 418.099 219.333H414.099C413.547 219.333 413.099 218.886 413.099 218.333Z" fill="#252A2E"/>
<path d="M427.473 195.121C427.863 194.731 427.863 194.098 427.473 193.707C427.082 193.317 426.449 193.317 426.059 193.707L424.73 195.035C424.34 195.426 424.34 196.059 424.73 196.45C425.121 196.84 425.754 196.84 426.144 196.45L427.473 195.121Z" fill="#252A2E"/>
<path d="M423.488 199.106C423.878 198.716 423.878 198.082 423.488 197.692C423.097 197.301 422.464 197.301 422.074 197.692L419.417 200.348C419.027 200.739 419.027 201.372 419.417 201.763C419.808 202.153 420.441 202.153 420.831 201.763L423.488 199.106Z" fill="#252A2E"/>
<path d="M418.175 204.419C418.565 204.029 418.565 203.396 418.175 203.005C417.784 202.614 417.151 202.614 416.761 203.005L416.099 203.667L415.437 203.005C415.047 202.614 414.414 202.614 414.023 203.005C413.633 203.396 413.633 204.029 414.023 204.419L414.685 205.081L414.104 205.662C413.713 206.052 413.713 206.685 414.104 207.076C414.495 207.466 415.128 207.466 415.518 207.076L416.099 206.495L416.68 207.076C417.07 207.466 417.703 207.466 418.094 207.076C418.484 206.685 418.484 206.052 418.094 205.662L417.513 205.081L418.175 204.419Z" fill="#252A2E"/>
<path d="M412.862 209.732C413.252 209.342 413.252 208.709 412.862 208.318C412.471 207.928 411.838 207.928 411.447 208.318L408.791 210.975C408.4 211.365 408.4 211.998 408.791 212.389C409.181 212.779 409.815 212.779 410.205 212.389L412.862 209.732Z" fill="#252A2E"/>
<path d="M407.549 215.045C407.939 214.655 407.939 214.022 407.549 213.631C407.158 213.241 406.525 213.241 406.134 213.631L404.806 214.96C404.416 215.35 404.416 215.983 404.806 216.374C405.197 216.764 405.83 216.764 406.22 216.374L407.549 215.045Z" fill="#252A2E"/>
<path d="M425.978 216.374C426.368 216.764 427.001 216.764 427.392 216.374C427.782 215.983 427.782 215.35 427.392 214.96L426.064 213.631C425.673 213.241 425.04 213.241 424.649 213.631C424.259 214.022 424.259 214.655 424.649 215.045L425.978 216.374Z" fill="#252A2E"/>
<path d="M421.993 212.389C422.383 212.779 423.016 212.779 423.407 212.389C423.798 211.998 423.798 211.365 423.407 210.975L420.75 208.318C420.36 207.928 419.727 207.928 419.336 208.318C418.946 208.709 418.946 209.342 419.336 209.732L421.993 212.389Z" fill="#252A2E"/>
<path d="M411.367 201.763C411.757 202.153 412.39 202.153 412.781 201.763C413.171 201.372 413.171 200.739 412.781 200.348L410.124 197.692C409.734 197.301 409.101 197.301 408.71 197.692C408.319 198.082 408.319 198.716 408.71 199.106L411.367 201.763Z" fill="#252A2E"/>
<path d="M406.053 196.45C406.444 196.84 407.077 196.84 407.468 196.45C407.858 196.059 407.858 195.426 407.468 195.035L406.139 193.707C405.749 193.317 405.116 193.317 404.725 193.707C404.335 194.098 404.335 194.731 404.725 195.121L406.053 196.45Z" fill="#252A2E"/>
<path d="M412.174 198.185C412.571 198.065 412.993 198 413.432 198H414.432C414.985 198 415.432 197.552 415.432 197C415.432 196.448 414.985 196 414.432 196H413.432C412.794 196 412.177 196.095 411.594 196.271C411.065 196.431 410.766 196.99 410.927 197.518C411.087 198.047 411.645 198.345 412.174 198.185Z" fill="#252A2E"/>
<path d="M417.766 196C417.213 196 416.766 196.448 416.766 197C416.766 197.552 417.213 198 417.766 198H418.766C419.205 198 419.627 198.065 420.024 198.185C420.553 198.345 421.111 198.047 421.271 197.518C421.432 196.99 421.133 196.431 420.604 196.271C420.021 196.095 419.404 196 418.766 196H417.766Z" fill="#252A2E"/>
<path d="M409.284 201.075C409.444 200.546 409.146 199.988 408.617 199.828C408.089 199.667 407.53 199.966 407.37 200.495C407.194 201.078 407.099 201.695 407.099 202.333V203.333C407.099 203.886 407.547 204.333 408.099 204.333C408.651 204.333 409.099 203.886 409.099 203.333V202.333C409.099 201.894 409.164 201.472 409.284 201.075Z" fill="#252A2E"/>
<path d="M424.828 200.495C424.668 199.966 424.109 199.667 423.581 199.828C423.052 199.988 422.753 200.546 422.914 201.075C423.034 201.472 423.099 201.894 423.099 202.333V203.333C423.099 203.886 423.547 204.333 424.099 204.333C424.651 204.333 425.099 203.886 425.099 203.333V202.333C425.099 201.695 425.004 201.078 424.828 200.495Z" fill="#252A2E"/>
<path d="M409.099 206.667C409.099 206.114 408.651 205.667 408.099 205.667C407.547 205.667 407.099 206.114 407.099 206.667V207.667C407.099 208.305 407.194 208.922 407.37 209.505C407.53 210.034 408.089 210.333 408.617 210.172C409.146 210.012 409.444 209.454 409.284 208.925C409.164 208.528 409.099 208.106 409.099 207.667V206.667Z" fill="#252A2E"/>
<path d="M425.099 206.667C425.099 206.114 424.651 205.667 424.099 205.667C423.547 205.667 423.099 206.114 423.099 206.667V207.667C423.099 208.106 423.034 208.528 422.914 208.925C422.753 209.454 423.052 210.012 423.581 210.172C424.109 210.333 424.668 210.034 424.828 209.505C425.004 208.922 425.099 208.305 425.099 207.667V206.667Z" fill="#252A2E"/>
<path d="M412.174 211.815C411.645 211.654 411.087 211.953 410.927 212.482C410.766 213.01 411.065 213.569 411.594 213.729C412.177 213.905 412.794 214 413.432 214H414.432C414.985 214 415.432 213.552 415.432 213C415.432 212.448 414.985 212 414.432 212H413.432C412.993 212 412.571 211.935 412.174 211.815Z" fill="#252A2E"/>
<path d="M420.604 213.729C421.133 213.569 421.432 213.01 421.271 212.482C421.111 211.953 420.553 211.654 420.024 211.815C419.627 211.935 419.205 212 418.766 212H417.766C417.213 212 416.766 212.448 416.766 213C416.766 213.552 417.213 214 417.766 214H418.766C419.404 214 420.021 213.905 420.604 213.729Z" fill="#252A2E"/>
<line x1="447.801" y1="193" x2="447.801" y2="217" stroke="#B7B9C3"/>
<path d="M470.499 192.667C469.91 192.667 469.35 192.784 468.841 192.995C468.331 193.207 467.746 192.965 467.534 192.454C467.323 191.944 467.565 191.359 468.075 191.148C468.823 190.837 469.642 190.667 470.499 190.667H472.499C473.052 190.667 473.499 191.114 473.499 191.667C473.499 192.219 473.052 192.667 472.499 192.667H470.499Z" fill="#252A2E"/>
<path d="M475.499 191.667C475.499 191.114 475.947 190.667 476.499 190.667H480.499C481.052 190.667 481.499 191.114 481.499 191.667C481.499 192.219 481.052 192.667 480.499 192.667H476.499C475.947 192.667 475.499 192.219 475.499 191.667Z" fill="#252A2E"/>
<path d="M483.499 191.667C483.499 191.114 483.947 190.667 484.499 190.667H486.499C487.356 190.667 488.176 190.837 488.924 191.148C489.434 191.359 489.676 191.944 489.465 192.454C489.253 192.965 488.668 193.207 488.158 192.995C487.648 192.784 487.089 192.667 486.499 192.667H484.499C483.947 192.667 483.499 192.219 483.499 191.667Z" fill="#252A2E"/>
<path d="M465.954 194.035C466.464 194.246 466.706 194.831 466.494 195.341C466.283 195.851 466.166 196.411 466.166 197V199C466.166 199.552 465.718 200 465.166 200C464.614 200 464.166 199.552 464.166 199V197C464.166 196.143 464.337 195.324 464.647 194.575C464.859 194.065 465.444 193.823 465.954 194.035Z" fill="#252A2E"/>
<path d="M491.045 194.035C491.555 193.823 492.14 194.065 492.352 194.575C492.662 195.324 492.833 196.143 492.833 197V199C492.833 199.552 492.385 200 491.833 200C491.28 200 490.833 199.552 490.833 199V197C490.833 196.411 490.716 195.851 490.504 195.341C490.293 194.831 490.535 194.246 491.045 194.035Z" fill="#252A2E"/>
<path d="M465.166 202C465.718 202 466.166 202.448 466.166 203V207C466.166 207.552 465.718 208 465.166 208C464.614 208 464.166 207.552 464.166 207V203C464.166 202.448 464.614 202 465.166 202Z" fill="#252A2E"/>
<path d="M491.833 202C492.385 202 492.833 202.448 492.833 203V207C492.833 207.552 492.385 208 491.833 208C491.28 208 490.833 207.552 490.833 207V203C490.833 202.448 491.28 202 491.833 202Z" fill="#252A2E"/>
<path d="M465.166 210C465.718 210 466.166 210.448 466.166 211V213C466.166 213.589 466.283 214.149 466.494 214.658C466.706 215.169 466.464 215.754 465.954 215.965C465.444 216.177 464.859 215.935 464.647 215.425C464.337 214.676 464.166 213.857 464.166 213V211C464.166 210.448 464.614 210 465.166 210Z" fill="#252A2E"/>
<path d="M491.833 210C492.385 210 492.833 210.448 492.833 211V213C492.833 213.857 492.662 214.676 492.352 215.425C492.14 215.935 491.555 216.177 491.045 215.965C490.535 215.754 490.293 215.169 490.504 214.658C490.716 214.149 490.833 213.589 490.833 213V211C490.833 210.448 491.28 210 491.833 210Z" fill="#252A2E"/>
<path d="M467.534 217.546C467.746 217.035 468.331 216.793 468.841 217.005C469.35 217.216 469.91 217.333 470.499 217.333H472.499C473.052 217.333 473.499 217.781 473.499 218.333C473.499 218.886 473.052 219.333 472.499 219.333H470.499C469.642 219.333 468.823 219.163 468.075 218.852C467.565 218.641 467.323 218.056 467.534 217.546Z" fill="#252A2E"/>
<path d="M489.465 217.546C489.676 218.056 489.434 218.641 488.924 218.852C488.176 219.163 487.356 219.333 486.499 219.333H484.499C483.947 219.333 483.499 218.886 483.499 218.333C483.499 217.781 483.947 217.333 484.499 217.333H486.499C487.089 217.333 487.648 217.216 488.158 217.005C488.668 216.793 489.253 217.035 489.465 217.546Z" fill="#252A2E"/>
<path d="M475.499 218.333C475.499 217.781 475.947 217.333 476.499 217.333H480.499C481.052 217.333 481.499 217.781 481.499 218.333C481.499 218.886 481.052 219.333 480.499 219.333H476.499C475.947 219.333 475.499 218.886 475.499 218.333Z" fill="#252A2E"/>
<path d="M489.873 195.121C490.264 194.731 490.264 194.098 489.873 193.707C489.483 193.317 488.849 193.317 488.459 193.707L487.131 195.035C486.74 195.426 486.74 196.059 487.131 196.45C487.521 196.84 488.154 196.84 488.545 196.45L489.873 195.121Z" fill="#252A2E"/>
<path d="M485.888 199.106C486.279 198.716 486.279 198.082 485.888 197.692C485.498 197.301 484.865 197.301 484.474 197.692L481.818 200.348C481.427 200.739 481.427 201.372 481.818 201.763C482.208 202.153 482.841 202.153 483.232 201.763L485.888 199.106Z" fill="#252A2E"/>
<path d="M480.575 204.419C480.966 204.029 480.966 203.396 480.575 203.005C480.185 202.614 479.551 202.614 479.161 203.005L478.499 203.667L477.838 203.005C477.447 202.614 476.814 202.614 476.424 203.005C476.033 203.396 476.033 204.029 476.424 204.419L477.085 205.081L476.504 205.662C476.114 206.052 476.114 206.685 476.504 207.076C476.895 207.466 477.528 207.466 477.919 207.076L478.499 206.495L479.08 207.076C479.471 207.466 480.104 207.466 480.494 207.076C480.885 206.685 480.885 206.052 480.494 205.662L479.914 205.081L480.575 204.419Z" fill="#252A2E"/>
<path d="M475.262 209.732C475.653 209.342 475.653 208.709 475.262 208.318C474.872 207.928 474.238 207.928 473.848 208.318L471.191 210.975C470.801 211.365 470.801 211.998 471.191 212.389C471.582 212.779 472.215 212.779 472.606 212.389L475.262 209.732Z" fill="#252A2E"/>
<path d="M469.949 215.045C470.339 214.655 470.339 214.022 469.949 213.631C469.558 213.241 468.925 213.241 468.535 213.631L467.206 214.96C466.816 215.35 466.816 215.983 467.206 216.374C467.597 216.764 468.23 216.764 468.621 216.374L469.949 215.045Z" fill="#252A2E"/>
<path d="M488.378 216.374C488.769 216.764 489.402 216.764 489.792 216.374C490.183 215.983 490.183 215.35 489.792 214.96L488.464 213.631C488.073 213.241 487.44 213.241 487.05 213.631C486.659 214.022 486.659 214.655 487.05 215.045L488.378 216.374Z" fill="#252A2E"/>
<path d="M484.393 212.389C484.784 212.779 485.417 212.779 485.807 212.389C486.198 211.998 486.198 211.365 485.807 210.975L483.151 208.318C482.76 207.928 482.127 207.928 481.737 208.318C481.346 208.709 481.346 209.342 481.737 209.732L484.393 212.389Z" fill="#252A2E"/>
<path d="M473.767 201.763C474.157 202.153 474.791 202.153 475.181 201.763C475.572 201.372 475.572 200.739 475.181 200.348L472.525 197.692C472.134 197.301 471.501 197.301 471.11 197.692C470.72 198.082 470.72 198.716 471.11 199.106L473.767 201.763Z" fill="#252A2E"/>
<path d="M468.454 196.45C468.844 196.84 469.478 196.84 469.868 196.45C470.259 196.059 470.259 195.426 469.868 195.035L468.54 193.707C468.149 193.317 467.516 193.317 467.126 193.707C466.735 194.098 466.735 194.731 467.126 195.121L468.454 196.45Z" fill="#252A2E"/>
<path d="M474.574 198.185C474.971 198.065 475.393 198 475.833 198H476.833C477.385 198 477.833 197.552 477.833 197C477.833 196.448 477.385 196 476.833 196H475.833C475.195 196 474.577 196.095 473.994 196.271C473.465 196.431 473.167 196.99 473.327 197.518C473.487 198.047 474.045 198.345 474.574 198.185Z" fill="#252A2E"/>
<path d="M480.166 196C479.614 196 479.166 196.448 479.166 197C479.166 197.552 479.614 198 480.166 198H481.166C481.605 198 482.028 198.065 482.425 198.185C482.953 198.345 483.512 198.047 483.672 197.518C483.832 196.99 483.533 196.431 483.005 196.271C482.422 196.095 481.804 196 481.166 196H480.166Z" fill="#252A2E"/>
<path d="M471.685 201.075C471.845 200.546 471.546 199.988 471.018 199.828C470.489 199.667 469.931 199.966 469.771 200.495C469.594 201.078 469.499 201.695 469.499 202.333V203.333C469.499 203.886 469.947 204.333 470.499 204.333C471.052 204.333 471.499 203.886 471.499 203.333V202.333C471.499 201.894 471.564 201.472 471.685 201.075Z" fill="#252A2E"/>
<path d="M487.228 200.495C487.068 199.966 486.51 199.667 485.981 199.828C485.452 199.988 485.154 200.546 485.314 201.075C485.434 201.472 485.499 201.894 485.499 202.333V203.333C485.499 203.886 485.947 204.333 486.499 204.333C487.052 204.333 487.499 203.886 487.499 203.333V202.333C487.499 201.695 487.405 201.078 487.228 200.495Z" fill="#252A2E"/>
<path d="M471.499 206.667C471.499 206.114 471.052 205.667 470.499 205.667C469.947 205.667 469.499 206.114 469.499 206.667V207.667C469.499 208.305 469.594 208.922 469.771 209.505C469.931 210.034 470.489 210.333 471.018 210.172C471.546 210.012 471.845 209.454 471.685 208.925C471.564 208.528 471.499 208.106 471.499 207.667V206.667Z" fill="#252A2E"/>
<path d="M487.499 206.667C487.499 206.114 487.052 205.667 486.499 205.667C485.947 205.667 485.499 206.114 485.499 206.667V207.667C485.499 208.106 485.434 208.528 485.314 208.925C485.154 209.454 485.452 210.012 485.981 210.172C486.51 210.333 487.068 210.034 487.228 209.505C487.405 208.922 487.499 208.305 487.499 207.667V206.667Z" fill="#252A2E"/>
<path d="M474.574 211.815C474.045 211.654 473.487 211.953 473.327 212.482C473.167 213.01 473.465 213.569 473.994 213.729C474.577 213.905 475.195 214 475.833 214H476.833C477.385 214 477.833 213.552 477.833 213C477.833 212.448 477.385 212 476.833 212H475.833C475.393 212 474.971 211.935 474.574 211.815Z" fill="#252A2E"/>
<path d="M483.005 213.729C483.533 213.569 483.832 213.01 483.672 212.482C483.512 211.953 482.953 211.654 482.425 211.815C482.028 211.935 481.605 212 481.166 212H480.166C479.614 212 479.166 212.448 479.166 213C479.166 213.552 479.614 214 480.166 214H481.166C481.804 214 482.422 213.905 483.005 213.729Z" fill="#252A2E"/>
<line x1="510.199" y1="193" x2="510.199" y2="217" stroke="#B7B9C3"/>
<path d="M532.898 192.667C532.308 192.667 531.749 192.784 531.239 192.995C530.729 193.207 530.144 192.965 529.933 192.454C529.721 191.944 529.963 191.359 530.473 191.148C531.221 190.837 532.041 190.667 532.898 190.667H534.898C535.45 190.667 535.898 191.114 535.898 191.667C535.898 192.219 535.45 192.667 534.898 192.667H532.898Z" fill="#252A2E"/>
<path d="M537.898 191.667C537.898 191.114 538.346 190.667 538.898 190.667H542.898C543.45 190.667 543.898 191.114 543.898 191.667C543.898 192.219 543.45 192.667 542.898 192.667H538.898C538.346 192.667 537.898 192.219 537.898 191.667Z" fill="#252A2E"/>
<path d="M545.898 191.667C545.898 191.114 546.346 190.667 546.898 190.667H548.898C549.755 190.667 550.574 190.837 551.322 191.148C551.833 191.359 552.075 191.944 551.863 192.454C551.651 192.965 551.066 193.207 550.556 192.995C550.047 192.784 549.487 192.667 548.898 192.667H546.898C546.346 192.667 545.898 192.219 545.898 191.667Z" fill="#252A2E"/>
<path d="M528.352 194.035C528.862 194.246 529.104 194.831 528.893 195.341C528.682 195.851 528.564 196.411 528.564 197V199C528.564 199.552 528.117 200 527.564 200C527.012 200 526.564 199.552 526.564 199V197C526.564 196.143 526.735 195.324 527.045 194.575C527.257 194.065 527.842 193.823 528.352 194.035Z" fill="#252A2E"/>
<path d="M553.443 194.035C553.954 193.823 554.539 194.065 554.75 194.575C555.06 195.324 555.231 196.143 555.231 197V199C555.231 199.552 554.783 200 554.231 200C553.679 200 553.231 199.552 553.231 199V197C553.231 196.411 553.114 195.851 552.903 195.341C552.691 194.831 552.933 194.246 553.443 194.035Z" fill="#252A2E"/>
<path d="M527.564 202C528.117 202 528.564 202.448 528.564 203V207C528.564 207.552 528.117 208 527.564 208C527.012 208 526.564 207.552 526.564 207V203C526.564 202.448 527.012 202 527.564 202Z" fill="#252A2E"/>
<path d="M554.231 202C554.783 202 555.231 202.448 555.231 203V207C555.231 207.552 554.783 208 554.231 208C553.679 208 553.231 207.552 553.231 207V203C553.231 202.448 553.679 202 554.231 202Z" fill="#252A2E"/>
<path d="M527.564 210C528.117 210 528.564 210.448 528.564 211V213C528.564 213.589 528.682 214.149 528.893 214.658C529.104 215.169 528.862 215.754 528.352 215.965C527.842 216.177 527.257 215.935 527.045 215.425C526.735 214.676 526.564 213.857 526.564 213V211C526.564 210.448 527.012 210 527.564 210Z" fill="#252A2E"/>
<path d="M554.231 210C554.783 210 555.231 210.448 555.231 211V213C555.231 213.857 555.06 214.676 554.75 215.425C554.539 215.935 553.954 216.177 553.443 215.965C552.933 215.754 552.691 215.169 552.903 214.658C553.114 214.149 553.231 213.589 553.231 213V211C553.231 210.448 553.679 210 554.231 210Z" fill="#252A2E"/>
<path d="M529.933 217.546C530.144 217.035 530.729 216.793 531.239 217.005C531.749 217.216 532.308 217.333 532.898 217.333H534.898C535.45 217.333 535.898 217.781 535.898 218.333C535.898 218.886 535.45 219.333 534.898 219.333H532.898C532.041 219.333 531.221 219.163 530.473 218.852C529.963 218.641 529.721 218.056 529.933 217.546Z" fill="#252A2E"/>
<path d="M551.863 217.546C552.075 218.056 551.833 218.641 551.322 218.852C550.574 219.163 549.755 219.333 548.898 219.333H546.898C546.346 219.333 545.898 218.886 545.898 218.333C545.898 217.781 546.346 217.333 546.898 217.333H548.898C549.487 217.333 550.047 217.216 550.556 217.005C551.066 216.793 551.651 217.035 551.863 217.546Z" fill="#252A2E"/>
<path d="M537.898 218.333C537.898 217.781 538.346 217.333 538.898 217.333H542.898C543.45 217.333 543.898 217.781 543.898 218.333C543.898 218.886 543.45 219.333 542.898 219.333H538.898C538.346 219.333 537.898 218.886 537.898 218.333Z" fill="#252A2E"/>
<path d="M552.272 195.121C552.662 194.731 552.662 194.098 552.272 193.707C551.881 193.317 551.248 193.317 550.857 193.707L549.529 195.035C549.139 195.426 549.139 196.059 549.529 196.45C549.92 196.84 550.553 196.84 550.943 196.45L552.272 195.121Z" fill="#252A2E"/>
<path d="M548.287 199.106C548.677 198.716 548.677 198.082 548.287 197.692C547.896 197.301 547.263 197.301 546.873 197.692L544.216 200.348C543.825 200.739 543.825 201.372 544.216 201.763C544.606 202.153 545.24 202.153 545.63 201.763L548.287 199.106Z" fill="#252A2E"/>
<path d="M542.974 204.419C543.364 204.029 543.364 203.396 542.974 203.005C542.583 202.614 541.95 202.614 541.559 203.005L540.898 203.667L540.236 203.005C539.846 202.614 539.212 202.614 538.822 203.005C538.431 203.396 538.431 204.029 538.822 204.419L539.484 205.081L538.903 205.662C538.512 206.052 538.512 206.685 538.903 207.076C539.293 207.466 539.927 207.466 540.317 207.076L540.898 206.495L541.479 207.076C541.869 207.466 542.502 207.466 542.893 207.076C543.283 206.685 543.283 206.052 542.893 205.662L542.312 205.081L542.974 204.419Z" fill="#252A2E"/>
<path d="M537.66 209.732C538.051 209.342 538.051 208.709 537.66 208.318C537.27 207.928 536.637 207.928 536.246 208.318L533.59 210.975C533.199 211.365 533.199 211.998 533.59 212.389C533.98 212.779 534.613 212.779 535.004 212.389L537.66 209.732Z" fill="#252A2E"/>
<path d="M532.347 215.045C532.738 214.655 532.738 214.022 532.347 213.631C531.957 213.241 531.324 213.241 530.933 213.631L529.605 214.96C529.214 215.35 529.214 215.983 529.605 216.374C529.995 216.764 530.629 216.764 531.019 216.374L532.347 215.045Z" fill="#252A2E"/>
<path d="M550.776 216.374C551.167 216.764 551.8 216.764 552.191 216.374C552.581 215.983 552.581 215.35 552.191 214.96L550.862 213.631C550.472 213.241 549.839 213.241 549.448 213.631C549.058 214.022 549.058 214.655 549.448 215.045L550.776 216.374Z" fill="#252A2E"/>
<path d="M546.792 212.389C547.182 212.779 547.815 212.779 548.206 212.389C548.596 211.998 548.596 211.365 548.206 210.975L545.549 208.318C545.159 207.928 544.526 207.928 544.135 208.318C543.745 208.709 543.745 209.342 544.135 209.732L546.792 212.389Z" fill="#252A2E"/>
<path d="M536.165 201.763C536.556 202.153 537.189 202.153 537.58 201.763C537.97 201.372 537.97 200.739 537.58 200.348L534.923 197.692C534.533 197.301 533.899 197.301 533.509 197.692C533.118 198.082 533.118 198.716 533.509 199.106L536.165 201.763Z" fill="#252A2E"/>
<path d="M530.852 196.45C531.243 196.84 531.876 196.84 532.267 196.45C532.657 196.059 532.657 195.426 532.267 195.035L530.938 193.707C530.548 193.317 529.915 193.317 529.524 193.707C529.133 194.098 529.133 194.731 529.524 195.121L530.852 196.45Z" fill="#252A2E"/>
<path d="M536.972 198.185C537.37 198.065 537.792 198 538.231 198H539.231C539.783 198 540.231 197.552 540.231 197C540.231 196.448 539.783 196 539.231 196H538.231C537.593 196 536.976 196.095 536.392 196.271C535.864 196.431 535.565 196.99 535.725 197.518C535.886 198.047 536.444 198.345 536.972 198.185Z" fill="#252A2E"/>
<path d="M542.564 196C542.012 196 541.564 196.448 541.564 197C541.564 197.552 542.012 198 542.564 198H543.564C544.004 198 544.426 198.065 544.823 198.185C545.352 198.345 545.91 198.047 546.07 197.518C546.23 196.99 545.932 196.431 545.403 196.271C544.82 196.095 544.202 196 543.564 196H542.564Z" fill="#252A2E"/>
<path d="M534.083 201.075C534.243 200.546 533.945 199.988 533.416 199.828C532.888 199.667 532.329 199.966 532.169 200.495C531.992 201.078 531.898 201.695 531.898 202.333V203.333C531.898 203.886 532.346 204.333 532.898 204.333C533.45 204.333 533.898 203.886 533.898 203.333V202.333C533.898 201.894 533.963 201.472 534.083 201.075Z" fill="#252A2E"/>
<path d="M549.626 200.495C549.466 199.966 548.908 199.667 548.379 199.828C547.851 199.988 547.552 200.546 547.712 201.075C547.833 201.472 547.898 201.894 547.898 202.333V203.333C547.898 203.886 548.346 204.333 548.898 204.333C549.45 204.333 549.898 203.886 549.898 203.333V202.333C549.898 201.695 549.803 201.078 549.626 200.495Z" fill="#252A2E"/>
<path d="M533.898 206.667C533.898 206.114 533.45 205.667 532.898 205.667C532.346 205.667 531.898 206.114 531.898 206.667V207.667C531.898 208.305 531.992 208.922 532.169 209.505C532.329 210.034 532.888 210.333 533.416 210.172C533.945 210.012 534.243 209.454 534.083 208.925C533.963 208.528 533.898 208.106 533.898 207.667V206.667Z" fill="#252A2E"/>
<path d="M549.898 206.667C549.898 206.114 549.45 205.667 548.898 205.667C548.346 205.667 547.898 206.114 547.898 206.667V207.667C547.898 208.106 547.833 208.528 547.712 208.925C547.552 209.454 547.851 210.012 548.379 210.172C548.908 210.333 549.466 210.034 549.626 209.505C549.803 208.922 549.898 208.305 549.898 207.667V206.667Z" fill="#252A2E"/>
<path d="M536.972 211.815C536.444 211.654 535.886 211.953 535.725 212.482C535.565 213.01 535.864 213.569 536.392 213.729C536.976 213.905 537.593 214 538.231 214H539.231C539.783 214 540.231 213.552 540.231 213C540.231 212.448 539.783 212 539.231 212H538.231C537.792 212 537.37 211.935 536.972 211.815Z" fill="#252A2E"/>
<path d="M545.403 213.729C545.932 213.569 546.23 213.01 546.07 212.482C545.91 211.953 545.352 211.654 544.823 211.815C544.426 211.935 544.004 212 543.564 212H542.564C542.012 212 541.564 212.448 541.564 213C541.564 213.552 542.012 214 542.564 214H543.564C544.202 214 544.82 213.905 545.403 213.729Z" fill="#252A2E"/>
<line x1="572.6" y1="193" x2="572.6" y2="217" stroke="#B7B9C3"/>
<path d="M595.298 192.667C594.709 192.667 594.149 192.784 593.64 192.995C593.13 193.207 592.544 192.965 592.333 192.454C592.121 191.944 592.363 191.359 592.874 191.148C593.622 190.837 594.441 190.667 595.298 190.667H597.298C597.85 190.667 598.298 191.114 598.298 191.667C598.298 192.219 597.85 192.667 597.298 192.667H595.298Z" fill="#252A2E"/>
<path d="M600.298 191.667C600.298 191.114 600.746 190.667 601.298 190.667H605.298C605.85 190.667 606.298 191.114 606.298 191.667C606.298 192.219 605.85 192.667 605.298 192.667H601.298C600.746 192.667 600.298 192.219 600.298 191.667Z" fill="#252A2E"/>
<path d="M608.298 191.667C608.298 191.114 608.746 190.667 609.298 190.667H611.298C612.155 190.667 612.975 190.837 613.723 191.148C614.233 191.359 614.475 191.944 614.263 192.454C614.052 192.965 613.467 193.207 612.957 192.995C612.447 192.784 611.888 192.667 611.298 192.667H609.298C608.746 192.667 608.298 192.219 608.298 191.667Z" fill="#252A2E"/>
<path d="M590.753 194.035C591.263 194.246 591.505 194.831 591.293 195.341C591.082 195.851 590.965 196.411 590.965 197V199C590.965 199.552 590.517 200 589.965 200C589.413 200 588.965 199.552 588.965 199V197C588.965 196.143 589.136 195.324 589.446 194.575C589.657 194.065 590.242 193.823 590.753 194.035Z" fill="#252A2E"/>
<path d="M615.844 194.035C616.354 193.823 616.939 194.065 617.151 194.575C617.461 195.324 617.632 196.143 617.632 197V199C617.632 199.552 617.184 200 616.632 200C616.079 200 615.632 199.552 615.632 199V197C615.632 196.411 615.514 195.851 615.303 195.341C615.092 194.831 615.334 194.246 615.844 194.035Z" fill="#252A2E"/>
<path d="M589.965 202C590.517 202 590.965 202.448 590.965 203V207C590.965 207.552 590.517 208 589.965 208C589.413 208 588.965 207.552 588.965 207V203C588.965 202.448 589.413 202 589.965 202Z" fill="#252A2E"/>
<path d="M616.632 202C617.184 202 617.632 202.448 617.632 203V207C617.632 207.552 617.184 208 616.632 208C616.079 208 615.632 207.552 615.632 207V203C615.632 202.448 616.079 202 616.632 202Z" fill="#252A2E"/>
<path d="M589.965 210C590.517 210 590.965 210.448 590.965 211V213C590.965 213.589 591.082 214.149 591.293 214.658C591.505 215.169 591.263 215.754 590.753 215.965C590.242 216.177 589.657 215.935 589.446 215.425C589.136 214.676 588.965 213.857 588.965 213V211C588.965 210.448 589.413 210 589.965 210Z" fill="#252A2E"/>
<path d="M616.632 210C617.184 210 617.632 210.448 617.632 211V213C617.632 213.857 617.461 214.676 617.151 215.425C616.939 215.935 616.354 216.177 615.844 215.965C615.334 215.754 615.092 215.169 615.303 214.658C615.514 214.149 615.632 213.589 615.632 213V211C615.632 210.448 616.079 210 616.632 210Z" fill="#252A2E"/>
<path d="M592.333 217.546C592.544 217.035 593.13 216.793 593.64 217.005C594.149 217.216 594.709 217.333 595.298 217.333H597.298C597.85 217.333 598.298 217.781 598.298 218.333C598.298 218.886 597.85 219.333 597.298 219.333H595.298C594.441 219.333 593.622 219.163 592.874 218.852C592.363 218.641 592.121 218.056 592.333 217.546Z" fill="#252A2E"/>
<path d="M614.263 217.546C614.475 218.056 614.233 218.641 613.723 218.852C612.975 219.163 612.155 219.333 611.298 219.333H609.298C608.746 219.333 608.298 218.886 608.298 218.333C608.298 217.781 608.746 217.333 609.298 217.333H611.298C611.888 217.333 612.447 217.216 612.957 217.005C613.467 216.793 614.052 217.035 614.263 217.546Z" fill="#252A2E"/>
<path d="M600.298 218.333C600.298 217.781 600.746 217.333 601.298 217.333H605.298C605.85 217.333 606.298 217.781 606.298 218.333C606.298 218.886 605.85 219.333 605.298 219.333H601.298C600.746 219.333 600.298 218.886 600.298 218.333Z" fill="#252A2E"/>
<path d="M614.672 195.121C615.062 194.731 615.062 194.098 614.672 193.707C614.281 193.317 613.648 193.317 613.258 193.707L611.929 195.035C611.539 195.426 611.539 196.059 611.929 196.45C612.32 196.84 612.953 196.84 613.344 196.45L614.672 195.121Z" fill="#252A2E"/>
<path d="M610.687 199.106C611.078 198.716 611.078 198.082 610.687 197.692C610.297 197.301 609.663 197.301 609.273 197.692L606.616 200.348C606.226 200.739 606.226 201.372 606.616 201.763C607.007 202.153 607.64 202.153 608.031 201.763L610.687 199.106Z" fill="#252A2E"/>
<path d="M605.374 204.419C605.765 204.029 605.765 203.396 605.374 203.005C604.983 202.614 604.35 202.614 603.96 203.005L603.298 203.667L602.637 203.005C602.246 202.614 601.613 202.614 601.222 203.005C600.832 203.396 600.832 204.029 601.222 204.419L601.884 205.081L601.303 205.662C600.913 206.052 600.913 206.685 601.303 207.076C601.694 207.466 602.327 207.466 602.717 207.076L603.298 206.495L603.879 207.076C604.269 207.466 604.903 207.466 605.293 207.076C605.684 206.685 605.684 206.052 605.293 205.662L604.712 205.081L605.374 204.419Z" fill="#252A2E"/>
<path d="M600.061 209.732C600.451 209.342 600.451 208.709 600.061 208.318C599.67 207.928 599.037 207.928 598.647 208.318L595.99 210.975C595.6 211.365 595.6 211.998 595.99 212.389C596.381 212.779 597.014 212.779 597.404 212.389L600.061 209.732Z" fill="#252A2E"/>
<path d="M594.748 215.045C595.138 214.655 595.138 214.022 594.748 213.631C594.357 213.241 593.724 213.241 593.334 213.631L592.005 214.96C591.615 215.35 591.615 215.983 592.005 216.374C592.396 216.764 593.029 216.764 593.419 216.374L594.748 215.045Z" fill="#252A2E"/>
<path d="M613.177 216.374C613.567 216.764 614.201 216.764 614.591 216.374C614.982 215.983 614.982 215.35 614.591 214.96L613.263 213.631C612.872 213.241 612.239 213.241 611.849 213.631C611.458 214.022 611.458 214.655 611.849 215.045L613.177 216.374Z" fill="#252A2E"/>
<path d="M609.192 212.389C609.583 212.779 610.216 212.779 610.606 212.389C610.997 211.998 610.997 211.365 610.606 210.975L607.95 208.318C607.559 207.928 606.926 207.928 606.535 208.318C606.145 208.709 606.145 209.342 606.535 209.732L609.192 212.389Z" fill="#252A2E"/>
<path d="M598.566 201.763C598.956 202.153 599.589 202.153 599.98 201.763C600.371 201.372 600.371 200.739 599.98 200.348L597.323 197.692C596.933 197.301 596.3 197.301 595.909 197.692C595.519 198.082 595.519 198.716 595.909 199.106L598.566 201.763Z" fill="#252A2E"/>
<path d="M593.253 196.45C593.643 196.84 594.276 196.84 594.667 196.45C595.057 196.059 595.057 195.426 594.667 195.035L593.339 193.707C592.948 193.317 592.315 193.317 591.924 193.707C591.534 194.098 591.534 194.731 591.924 195.121L593.253 196.45Z" fill="#252A2E"/>
<path d="M599.373 198.185C599.77 198.065 600.192 198 600.632 198H601.632C602.184 198 602.632 197.552 602.632 197C602.632 196.448 602.184 196 601.632 196H600.632C599.994 196 599.376 196.095 598.793 196.271C598.264 196.431 597.966 196.99 598.126 197.518C598.286 198.047 598.844 198.345 599.373 198.185Z" fill="#252A2E"/>
<path d="M604.965 196C604.413 196 603.965 196.448 603.965 197C603.965 197.552 604.413 198 604.965 198H605.965C606.404 198 606.826 198.065 607.224 198.185C607.752 198.345 608.31 198.047 608.471 197.518C608.631 196.99 608.332 196.431 607.804 196.271C607.22 196.095 606.603 196 605.965 196H604.965Z" fill="#252A2E"/>
<path d="M596.484 201.075C596.644 200.546 596.345 199.988 595.816 199.828C595.288 199.667 594.73 199.966 594.569 200.495C594.393 201.078 594.298 201.695 594.298 202.333V203.333C594.298 203.886 594.746 204.333 595.298 204.333C595.85 204.333 596.298 203.886 596.298 203.333V202.333C596.298 201.894 596.363 201.472 596.484 201.075Z" fill="#252A2E"/>
<path d="M612.027 200.495C611.867 199.966 611.308 199.667 610.78 199.828C610.251 199.988 609.953 200.546 610.113 201.075C610.233 201.472 610.298 201.894 610.298 202.333V203.333C610.298 203.886 610.746 204.333 611.298 204.333C611.85 204.333 612.298 203.886 612.298 203.333V202.333C612.298 201.695 612.204 201.078 612.027 200.495Z" fill="#252A2E"/>
<path d="M596.298 206.667C596.298 206.114 595.85 205.667 595.298 205.667C594.746 205.667 594.298 206.114 594.298 206.667V207.667C594.298 208.305 594.393 208.922 594.569 209.505C594.73 210.034 595.288 210.333 595.816 210.172C596.345 210.012 596.644 209.454 596.484 208.925C596.363 208.528 596.298 208.106 596.298 207.667V206.667Z" fill="#252A2E"/>
<path d="M612.298 206.667C612.298 206.114 611.85 205.667 611.298 205.667C610.746 205.667 610.298 206.114 610.298 206.667V207.667C610.298 208.106 610.233 208.528 610.113 208.925C609.953 209.454 610.251 210.012 610.78 210.172C611.308 210.333 611.867 210.034 612.027 209.505C612.204 208.922 612.298 208.305 612.298 207.667V206.667Z" fill="#252A2E"/>
<path d="M599.373 211.815C598.844 211.654 598.286 211.953 598.126 212.482C597.966 213.01 598.264 213.569 598.793 213.729C599.376 213.905 599.994 214 600.632 214H601.632C602.184 214 602.632 213.552 602.632 213C602.632 212.448 602.184 212 601.632 212H600.632C600.192 212 599.77 211.935 599.373 211.815Z" fill="#252A2E"/>
<path d="M607.804 213.729C608.332 213.569 608.631 213.01 608.471 212.482C608.31 211.953 607.752 211.654 607.224 211.815C606.826 211.935 606.404 212 605.965 212H604.965C604.413 212 603.965 212.448 603.965 213C603.965 213.552 604.413 214 604.965 214H605.965C606.603 214 607.22 213.905 607.804 213.729Z" fill="#252A2E"/>
</g>
<rect x="330" y="176.5" width="301" height="57" rx="28.5" stroke="#353A40"/>
<defs>
<clipPath id="clip0_431_73334">
<rect x="330.5" y="27" width="300" height="32" rx="16" fill="white"/>
</clipPath>
<clipPath id="clip1_431_73334">
<rect x="330.5" y="69" width="300" height="48" rx="8" fill="white"/>
</clipPath>
<clipPath id="clip2_431_73334">
<rect x="330.5" y="127" width="300" height="40" rx="20" fill="white"/>
</clipPath>
<clipPath id="clip3_431_73334">
<rect x="330.5" y="177" width="300" height="56" rx="28" fill="white"/>
</clipPath>
</defs>
</svg>
