<svg fill="none" height="260" viewBox="0 0 961 260" width="961" xmlns="http://www.w3.org/2000/svg" xmlns:xlink="http://www.w3.org/1999/xlink"><clipPath id="a"><rect height="32" rx="8" width="300" x="330.5" y="23"/></clipPath><clipPath id="b"><rect height="56" rx="8" width="300" x="330.5" y="65"/></clipPath><clipPath id="c"><rect height="40" rx="20" width="300" x="330.5" y="131"/></clipPath><clipPath id="d"><rect height="56" rx="28" width="300" x="330.5" y="181"/></clipPath><path d="m0 0h961v260h-961z" fill="#252a2e"/><g clip-path="url(#a)"><rect fill="#353a40" height="33" rx="6.5" width="149" x="330" y="22.5"/><g fill="#fff"><path d="m398.5 29.75c-.442 0-.862.0878-1.244.2463-.382.1587-.821-.0229-.98-.4055s.023-.8214.406-.9801c.561-.2327 1.175-.3607 1.818-.3607h1.5c.414 0 .75.3358.75.75s-.336.75-.75.75z"/><path d="m402.25 29c0-.4142.336-.75.75-.75h3c.414 0 .75.3358.75.75s-.336.75-.75.75h-3c-.414 0-.75-.3358-.75-.75z"/><path d="m408.25 29c0-.4142.336-.75.75-.75h1.5c.643 0 1.257.128 1.818.3607.383.1587.565.5975.406.9801s-.598.5642-.98.4055c-.382-.1585-.802-.2463-1.244-.2463h-1.5c-.414 0-.75-.3358-.75-.75z"/><path d="m395.091 30.7761c.382.1586.564.5974.405.98-.158.3822-.246.8018-.246 1.2439v1.5c0 .4142-.336.75-.75.75s-.75-.3358-.75-.75v-1.5c0-.6427.128-1.2573.361-1.8184.158-.3827.597-.5642.98-.4055z"/><path d="m413.909 30.7761c.383-.1587.822.0228.98.4055.233.5611.361 1.1757.361 1.8184v1.5c0 .4142-.336.75-.75.75s-.75-.3358-.75-.75v-1.5c0-.4421-.088-.8617-.246-1.2439-.159-.3826.023-.8214.405-.98z"/><path d="m394.5 36.75c.414 0 .75.3358.75.75v3c0 .4142-.336.75-.75.75s-.75-.3358-.75-.75v-3c0-.4142.336-.75.75-.75z"/><path d="m414.5 36.75c.414 0 .75.3358.75.75v3c0 .4142-.336.75-.75.75s-.75-.3358-.75-.75v-3c0-.4142.336-.75.75-.75z"/><path d="m394.5 42.75c.414 0 .75.3358.75.75v1.5c0 .4421.088.8617.246 1.2439.159.3826-.023.8214-.405.98-.383.1587-.822-.0228-.98-.4055-.233-.5611-.361-1.1757-.361-1.8184v-1.5c0-.4142.336-.75.75-.75z"/><path d="m414.5 42.75c.414 0 .75.3358.75.75v1.5c0 .6427-.128 1.2573-.361 1.8184-.158.3827-.597.5642-.98.4055-.382-.1586-.564-.5974-.405-.98.158-.3822.246-.8018.246-1.2439v-1.5c0-.4142.336-.75.75-.75z"/><path d="m396.276 48.4092c.159-.3826.598-.5642.98-.4055.382.1585.802.2463 1.244.2463h1.5c.414 0 .75.3358.75.75s-.336.75-.75.75h-1.5c-.643 0-1.257-.128-1.818-.3607-.383-.1587-.565-.5975-.406-.9801z"/><path d="m412.724 48.4092c.159.3826-.023.8214-.406.9801-.561.2327-1.175.3607-1.818.3607h-1.5c-.414 0-.75-.3358-.75-.75s.336-.75.75-.75h1.5c.442 0 .862-.0878 1.244-.2463.382-.1587.821.0229.98.4055z"/><path d="m402.25 49c0-.4142.336-.75.75-.75h3c.414 0 .75.3358.75.75s-.336.75-.75.75h-3c-.414 0-.75-.3358-.75-.75z"/><path d="m413.03 31.591c.293-.2929.293-.7678 0-1.0607s-.767-.2929-1.06 0l-.997.9962c-.292.2929-.292.7678 0 1.0607.293.2929.768.2929 1.061 0z"/><path d="m410.042 34.5796c.293-.2929.293-.7678 0-1.0606-.293-.2929-.768-.2929-1.061 0l-1.992 1.9924c-.293.2929-.293.7677 0 1.0606s.767.2929 1.06 0z"/><path d="m406.057 38.5645c.293-.2929.293-.7678 0-1.0607s-.768-.2929-1.061 0l-.496.4962-.496-.4962c-.293-.2929-.768-.2929-1.061 0s-.293.7678 0 1.0607l.496.4962-.435.4355c-.293.2929-.293.7678 0 1.0607s.768.2929 1.06 0l.436-.4356.436.4356c.292.2929.767.2929 1.06 0s.293-.7678 0-1.0607l-.435-.4355z"/><path d="m402.072 42.5493c.293-.2929.293-.7678 0-1.0607s-.768-.2929-1.061 0l-1.992 1.9924c-.293.2929-.293.7678 0 1.0607s.768.2929 1.061 0z"/><path d="m398.087 46.5341c.293-.2929.293-.7677 0-1.0606s-.768-.2929-1.06 0l-.997.9962c-.293.2929-.293.7677 0 1.0606s.768.2929 1.061 0z"/><path d="m411.909 47.5303c.293.2929.768.2929 1.061 0s.293-.7677 0-1.0606l-.997-.9962c-.292-.2929-.767-.2929-1.06 0s-.293.7677 0 1.0606z"/><path d="m408.92 44.5417c.293.2929.768.2929 1.061 0s.293-.7678 0-1.0607l-1.992-1.9924c-.293-.2929-.768-.2929-1.061 0s-.293.7678 0 1.0607z"/><path d="m400.951 36.572c.293.2929.767.2929 1.06 0s.293-.7677 0-1.0606l-1.992-1.9924c-.293-.2929-.768-.2929-1.061 0-.293.2928-.293.7677 0 1.0606z"/><path d="m396.966 32.5872c.293.2929.768.2929 1.061 0 .292-.2929.292-.7678 0-1.0607l-.997-.9962c-.293-.2929-.767-.2929-1.06 0s-.293.7678 0 1.0607z"/><path d="m401.556 33.889c.298-.0902.615-.139.944-.139h.75c.414 0 .75-.3358.75-.75s-.336-.75-.75-.75h-.75c-.478 0-.942.071-1.379.2035-.396.1201-.62.5388-.5.9352s.539.6204.935.5003z"/><path d="m405.75 32.25c-.414 0-.75.3358-.75.75s.336.75.75.75h.75c.329 0 .646.0488.944.139.396.1201.815-.1039.935-.5003s-.104-.8151-.5-.9352c-.437-.1325-.901-.2035-1.379-.2035z"/><path d="m399.389 36.0559c.12-.3964-.104-.8151-.5-.9352-.397-.1201-.815.1039-.936.5003-.132.4373-.203.9006-.203 1.379v.75c0 .4142.336.75.75.75s.75-.3358.75-.75v-.75c0-.3295.049-.6462.139-.9441z"/><path d="m411.047 35.621c-.121-.3964-.539-.6204-.936-.5003-.396.1201-.62.5388-.5.9352.09.2979.139.6146.139.9441v.75c0 .4142.336.75.75.75s.75-.3358.75-.75v-.75c0-.4784-.071-.9417-.203-1.379z"/><path d="m399.25 40.25c0-.4142-.336-.75-.75-.75s-.75.3358-.75.75v.75c0 .4784.071.9417.203 1.379.121.3964.539.6204.936.5003.396-.1201.62-.5388.5-.9352-.09-.2979-.139-.6146-.139-.9441z"/><path d="m411.25 40.25c0-.4142-.336-.75-.75-.75s-.75.3358-.75.75v.75c0 .3295-.049.6462-.139.9441-.12.3964.104.8151.5.9352.397.1201.815-.1039.936-.5003.132-.4373.203-.9006.203-1.379z"/><path d="m401.556 44.111c-.396-.1201-.815.1039-.935.5003s.104.8151.5.9352c.437.1325.901.2035 1.379.2035h.75c.414 0 .75-.3358.75-.75s-.336-.75-.75-.75h-.75c-.329 0-.646-.0488-.944-.139z"/><path d="m407.879 45.5465c.396-.1201.62-.5388.5-.9352s-.539-.6204-.935-.5003c-.298.0902-.615.139-.944.139h-.75c-.414 0-.75.3358-.75.75s.336.75.75.75h.75c.478 0 .942-.071 1.379-.2035z"/></g><rect height="33" rx="6.5" stroke="#353a40" width="149" x="330" y="22.5"/><path d="m550.5 29.75c-.442 0-.862.0878-1.244.2463-.382.1587-.821-.0229-.98-.4055s.023-.8214.406-.9801c.561-.2327 1.175-.3607 1.818-.3607h1.5c.414 0 .75.3358.75.75s-.336.75-.75.75z" fill="#fff"/><path d="m554.25 29c0-.4142.336-.75.75-.75h3c.414 0 .75.3358.75.75s-.336.75-.75.75h-3c-.414 0-.75-.3358-.75-.75z" fill="#fff"/><path d="m560.25 29c0-.4142.336-.75.75-.75h1.5c.643 0 1.257.128 1.818.3607.383.1587.565.5975.406.9801s-.598.5642-.98.4055c-.382-.1585-.802-.2463-1.244-.2463h-1.5c-.414 0-.75-.3358-.75-.75z" fill="#fff"/><path d="m547.091 30.7761c.382.1586.564.5974.405.98-.158.3822-.246.8018-.246 1.2439v1.5c0 .4142-.336.75-.75.75s-.75-.3358-.75-.75v-1.5c0-.6427.128-1.2573.361-1.8184.158-.3827.597-.5642.98-.4055z" fill="#fff"/><path d="m565.909 30.7761c.383-.1587.822.0228.98.4055.233.5611.361 1.1757.361 1.8184v1.5c0 .4142-.336.75-.75.75s-.75-.3358-.75-.75v-1.5c0-.4421-.088-.8617-.246-1.2439-.159-.3826.023-.8214.405-.98z" fill="#fff"/><path d="m546.5 36.75c.414 0 .75.3358.75.75v3c0 .4142-.336.75-.75.75s-.75-.3358-.75-.75v-3c0-.4142.336-.75.75-.75z" fill="#fff"/><path d="m566.5 36.75c.414 0 .75.3358.75.75v3c0 .4142-.336.75-.75.75s-.75-.3358-.75-.75v-3c0-.4142.336-.75.75-.75z" fill="#fff"/><path d="m546.5 42.75c.414 0 .75.3358.75.75v1.5c0 .4421.088.8617.246 1.2439.159.3826-.023.8214-.405.98-.383.1587-.822-.0228-.98-.4055-.233-.5611-.361-1.1757-.361-1.8184v-1.5c0-.4142.336-.75.75-.75z" fill="#fff"/><path d="m566.5 42.75c.414 0 .75.3358.75.75v1.5c0 .6427-.128 1.2573-.361 1.8184-.158.3827-.597.5642-.98.4055-.382-.1586-.564-.5974-.405-.98.158-.3822.246-.8018.246-1.2439v-1.5c0-.4142.336-.75.75-.75z" fill="#fff"/><path d="m548.276 48.4092c.159-.3826.598-.5642.98-.4055.382.1585.802.2463 1.244.2463h1.5c.414 0 .75.3358.75.75s-.336.75-.75.75h-1.5c-.643 0-1.257-.128-1.818-.3607-.383-.1587-.565-.5975-.406-.9801z" fill="#fff"/><path d="m564.724 48.4092c.159.3826-.023.8214-.406.9801-.561.2327-1.175.3607-1.818.3607h-1.5c-.414 0-.75-.3358-.75-.75s.336-.75.75-.75h1.5c.442 0 .862-.0878 1.244-.2463.382-.1587.821.0229.98.4055z" fill="#fff"/><path d="m554.25 49c0-.4142.336-.75.75-.75h3c.414 0 .75.3358.75.75s-.336.75-.75.75h-3c-.414 0-.75-.3358-.75-.75z" fill="#fff"/><path d="m565.03 31.591c.293-.2929.293-.7678 0-1.0607s-.767-.2929-1.06 0l-.997.9962c-.292.2929-.292.7678 0 1.0607.293.2929.768.2929 1.061 0z" fill="#fff"/><path d="m562.042 34.5796c.293-.2929.293-.7678 0-1.0606-.293-.2929-.768-.2929-1.061 0l-1.992 1.9924c-.293.2929-.293.7677 0 1.0606s.767.2929 1.06 0z" fill="#fff"/><path d="m558.057 38.5645c.293-.2929.293-.7678 0-1.0607s-.768-.2929-1.061 0l-.496.4962-.496-.4962c-.293-.2929-.768-.2929-1.061 0s-.293.7678 0 1.0607l.496.4962-.435.4355c-.293.2929-.293.7678 0 1.0607s.768.2929 1.06 0l.436-.4356.436.4356c.292.2929.767.2929 1.06 0s.293-.7678 0-1.0607l-.435-.4355z" fill="#fff"/><path d="m554.072 42.5493c.293-.2929.293-.7678 0-1.0607s-.768-.2929-1.061 0l-1.992 1.9924c-.293.2929-.293.7678 0 1.0607s.768.2929 1.061 0z" fill="#fff"/><path d="m550.087 46.5341c.293-.2929.293-.7677 0-1.0606s-.768-.2929-1.06 0l-.997.9962c-.293.2929-.293.7677 0 1.0606s.768.2929 1.061 0z" fill="#fff"/><path d="m563.909 47.5303c.293.2929.768.2929 1.061 0s.293-.7677 0-1.0606l-.997-.9962c-.292-.2929-.767-.2929-1.06 0s-.293.7677 0 1.0606z" fill="#fff"/><path d="m560.92 44.5417c.293.2929.768.2929 1.061 0s.293-.7678 0-1.0607l-1.992-1.9924c-.293-.2929-.768-.2929-1.061 0s-.293.7678 0 1.0607z" fill="#fff"/><path d="m552.951 36.572c.293.2929.767.2929 1.06 0s.293-.7677 0-1.0606l-1.992-1.9924c-.293-.2929-.768-.2929-1.061 0-.293.2928-.293.7677 0 1.0606z" fill="#fff"/><path d="m548.966 32.5872c.293.2929.768.2929 1.061 0 .292-.2929.292-.7678 0-1.0607l-.997-.9962c-.293-.2929-.767-.2929-1.06 0s-.293.7678 0 1.0607z" fill="#fff"/><path d="m553.556 33.889c.298-.0902.615-.139.944-.139h.75c.414 0 .75-.3358.75-.75s-.336-.75-.75-.75h-.75c-.478 0-.942.071-1.379.2035-.396.1201-.62.5388-.5.9352s.539.6204.935.5003z" fill="#fff"/><path d="m557.75 32.25c-.414 0-.75.3358-.75.75s.336.75.75.75h.75c.329 0 .646.0488.944.139.396.1201.815-.1039.935-.5003s-.104-.8151-.5-.9352c-.437-.1325-.901-.2035-1.379-.2035z" fill="#fff"/><path d="m551.389 36.0559c.12-.3964-.104-.8151-.5-.9352-.397-.1201-.815.1039-.936.5003-.132.4373-.203.9006-.203 1.379v.75c0 .4142.336.75.75.75s.75-.3358.75-.75v-.75c0-.3295.049-.6462.139-.9441z" fill="#fff"/><path d="m563.047 35.621c-.121-.3964-.539-.6204-.936-.5003-.396.1201-.62.5388-.5.9352.09.2979.139.6146.139.9441v.75c0 .4142.336.75.75.75s.75-.3358.75-.75v-.75c0-.4784-.071-.9417-.203-1.379z" fill="#fff"/><path d="m551.25 40.25c0-.4142-.336-.75-.75-.75s-.75.3358-.75.75v.75c0 .4784.071.9417.203 1.379.121.3964.539.6204.936.5003.396-.1201.62-.5388.5-.9352-.09-.2979-.139-.6146-.139-.9441z" fill="#fff"/><path d="m563.25 40.25c0-.4142-.336-.75-.75-.75s-.75.3358-.75.75v.75c0 .3295-.049.6462-.139.9441-.12.3964.104.8151.5.9352.397.1201.815-.1039.936-.5003.132-.4373.203-.9006.203-1.379z" fill="#fff"/><path d="m553.556 44.111c-.396-.1201-.815.1039-.935.5003s.104.8151.5.9352c.437.1325.901.2035 1.379.2035h.75c.414 0 .75-.3358.75-.75s-.336-.75-.75-.75h-.75c-.329 0-.646-.0488-.944-.139z" fill="#fff"/><path d="m559.879 45.5465c.396-.1201.62-.5388.5-.9352s-.539-.6204-.935-.5003c-.298.0902-.615.139-.944.139h-.75c-.414 0-.75.3358-.75.75s.336.75.75.75h.75c.478 0 .942-.071 1.379-.2035z" fill="#fff"/></g><rect height="33" rx="8.5" stroke="#6a6e79" width="301" x="330" y="22.5"/><g clip-path="url(#b)"><rect fill="#353a40" height="58" rx="7" width="98" x="329.5" y="64"/><path d="m372.911 93.8418c0 1.1003-.14 2.1029-.42 3.0078-.274.8984-.687 1.6732-1.241 2.3242-.553.6446-1.246 1.1422-2.08 1.4942-.833.352-1.81.527-2.929.527-1.14 0-2.129-.175-2.969-.527-.833-.352-1.527-.8529-2.08-1.5039-.547-.6511-.957-1.4291-1.231-2.334-.273-.905-.41-1.9076-.41-3.0078 0-1.4714.241-2.7539.723-3.8477.488-1.1003 1.227-1.9531 2.217-2.5586.996-.612 2.252-.918 3.769-.918 1.485 0 2.718.3028 3.701.9082.983.6055 1.719 1.4584 2.207 2.5586.495 1.0938.743 2.3861.743 3.877zm-10.899 0c0 1.1003.15 2.054.449 2.8613.3.8008.759 1.4193 1.377 1.8555.625.4297 1.426.6445 2.403.6445.983 0 1.783-.2148 2.402-.6445.618-.4362 1.074-1.0547 1.367-1.8555.293-.8073.44-1.761.44-2.8613 0-1.6732-.336-2.9818-1.006-3.9258-.664-.9505-1.726-1.4258-3.184-1.4258-.976 0-1.78.2149-2.412.6446-.625.4297-1.087 1.0449-1.387 1.8457-.299.7942-.449 1.748-.449 2.8613zm19.515-3.8574c1.218 0 2.165.3157 2.842.9472.684.625 1.026 1.6309 1.026 3.0176v7.0508h-2.295v-6.6211c0-.8398-.173-1.4681-.518-1.8848-.345-.4231-.879-.6347-1.602-.6347-1.048 0-1.777.3222-2.187.9668-.404.6445-.605 1.5787-.605 2.8027v5.3711h-2.295v-10.8105h1.787l.322 1.4648h.127c.234-.3776.524-.6869.869-.9277.352-.2474.742-.433 1.172-.5567.436-.1237.889-.1855 1.357-.1855zm11.537 0c.964 0 1.79.1985 2.481.5957.69.3971 1.22.9603 1.591 1.6894.371.7292.557 1.6016.557 2.6172v1.2305h-7.217c.026 1.0482.306 1.8555.84 2.4219.54.5664 1.296.8496 2.266.8496.69 0 1.308-.0651 1.855-.1953.553-.1368 1.123-.3353 1.709-.5957v1.8653c-.54.254-1.09.439-1.65.557-.56.117-1.231.175-2.012.175-1.061 0-1.995-.205-2.803-.615-.801-.417-1.429-1.0351-1.885-1.8554-.449-.8203-.673-1.8392-.673-3.0566 0-1.211.205-2.2396.615-3.086.41-.8463.986-1.4909 1.728-1.9336.743-.4427 1.608-.664 2.598-.664zm0 1.7285c-.723 0-1.309.2344-1.758.7031-.442.4688-.703 1.1556-.781 2.0606h4.922c-.007-.5404-.098-1.0189-.274-1.4356-.169-.4167-.429-.7422-.781-.9765-.345-.2344-.788-.3516-1.328-.3516z" fill="#fff"/><rect height="58" rx="7" stroke="#353a40" stroke-width="2" width="98" x="329.5" y="64"/><path d="m465.264 101h-2.353v-12.2852h-4.18v-1.9921h10.703v1.9921h-4.17zm15.111-.01-1.367-5.0291c-.065-.2474-.143-.5468-.235-.8984-.091-.3516-.182-.7129-.273-1.084-.091-.3776-.176-.7259-.254-1.0449-.072-.319-.127-.5664-.166-.7422h-.078c-.033.1758-.085.4232-.156.7422-.072.319-.153.6673-.244 1.0449-.092.3776-.183.7455-.274 1.1035-.085.3581-.163.6641-.234.918l-1.436 4.99h-2.519l-3.028-10.8103h2.325l1.406 5.3711c.091.3646.179.7584.263 1.1816.092.4232.17.8268.235 1.211.065.3841.114.6998.146.9472h.078c.026-.1758.062-.3971.108-.664.045-.2735.098-.5567.156-.8496.059-.2995.117-.5795.176-.8399.058-.2669.114-.4818.166-.6445l1.66-5.7129h2.51l1.592 5.7129c.071.2474.149.5599.234.9375.085.3711.16.7454.225 1.123.071.3711.117.6804.136.9278h.078c.027-.2214.072-.5209.137-.8985.072-.3841.153-.791.244-1.2207.091-.4362.186-.8398.284-1.2109l1.435-5.3711h2.285l-3.047 10.8103zm17.191-5.4197c0 .8985-.117 1.696-.352 2.3926-.234.6966-.576 1.2858-1.025 1.7676-.449.4755-.99.8395-1.621 1.0935-.632.248-1.344.371-2.139.371-.742 0-1.422-.123-2.041-.371-.618-.254-1.155-.618-1.611-1.0935-.449-.4818-.798-1.071-1.045-1.7676s-.371-1.4941-.371-2.3926c0-1.1914.205-2.2005.615-3.0273.417-.8334 1.009-1.4681 1.778-1.9043.768-.4362 1.682-.6543 2.744-.6543.996 0 1.875.2181 2.636.6543.762.4362 1.358 1.0709 1.787 1.9043.43.8333.645 1.8424.645 3.0273zm-7.842 0c0 .7878.095 1.4616.283 2.0215.196.5599.495.9896.899 1.2891.404.2929.924.4394 1.562.4394s1.159-.1465 1.563-.4394c.404-.2995.7-.7292.889-1.2891.188-.5599.283-1.2337.283-2.0215 0-.7877-.095-1.4551-.283-2.0019-.189-.5534-.485-.9733-.889-1.2598-.404-.293-.928-.4395-1.572-.4395-.951 0-1.644.3191-2.08.9571-.437.638-.655 1.5527-.655 2.7441z" fill="#fff"/><path d="m531 81v24" stroke="#6a6e79"/><path d="m561.175 101h-2.354v-12.2852h-4.18v-1.9921h10.704v1.9921h-4.17zm8.568-15.1953v3.8183c0 .3972-.013.7846-.039 1.1622-.02.3776-.043.6705-.069.8789h.127c.228-.3776.508-.6869.84-.9278.332-.2474.703-.4329 1.113-.5566.417-.1237.86-.1856 1.328-.1856.827 0 1.53.14 2.11.42.579.2734 1.022.6998 1.328 1.2793.312.5794.469 1.3313.469 2.2558v7.0508h-2.295v-6.6211c0-.8398-.173-1.4681-.518-1.8848-.345-.4231-.879-.6347-1.601-.6347-.697 0-1.25.1465-1.661.4394-.403.2865-.693.7129-.869 1.2793-.176.5599-.263 1.2435-.263 2.0508v5.3711h-2.295v-15.1953zm16.048 4.1797c.182 0 .381.0097.596.0293.215.0195.4.0455.556.0781l-.214 2.1484c-.137-.039-.306-.0683-.508-.0879-.196-.0195-.371-.0293-.528-.0293-.41 0-.8.0684-1.172.2051-.371.1302-.699.3321-.986.6055-.286.2669-.511.6022-.674 1.0059-.162.4036-.244.8723-.244 1.4062v5.6543h-2.305v-10.8105h1.797l.313 1.9043h.107c.215-.3842.482-.7357.801-1.0547s.684-.573 1.094-.7618c.416-.1953.872-.2929 1.367-.2929zm7.611 0c.963 0 1.79.1985 2.48.5957.691.3971 1.221.9603 1.592 1.6894.371.7292.557 1.6016.557 2.6172v1.2305h-7.217c.026 1.0482.306 1.8555.84 2.4219.54.5664 1.295.8496 2.266.8496.69 0 1.308-.0651 1.855-.1953.553-.1368 1.123-.3353 1.709-.5957v1.8653c-.54.254-1.091.439-1.65.557-.56.117-1.231.175-2.012.175-1.061 0-1.996-.205-2.803-.615-.801-.417-1.429-1.0351-1.885-1.8554-.449-.8203-.673-1.8392-.673-3.0566 0-1.211.205-2.2396.615-3.086.41-.8463.986-1.4909 1.728-1.9336s1.608-.664 2.598-.664zm0 1.7285c-.723 0-1.309.2344-1.758.7031-.443.4688-.703 1.1556-.781 2.0606h4.922c-.007-.5404-.098-1.0189-.274-1.4356-.169-.4167-.429-.7422-.781-.9765-.345-.2344-.788-.3516-1.328-.3516zm11.673-1.7285c.964 0 1.791.1985 2.481.5957.69.3971 1.221.9603 1.592 1.6894.371.7292.556 1.6016.556 2.6172v1.2305h-7.217c.027 1.0482.306 1.8555.84 2.4219.541.5664 1.296.8496 2.266.8496.69 0 1.309-.0651 1.855-.1953.554-.1368 1.123-.3353 1.709-.5957v1.8653c-.54.254-1.09.439-1.65.557-.56.117-1.23.175-2.012.175-1.061 0-1.995-.205-2.802-.615-.801-.417-1.429-1.0351-1.885-1.8554-.449-.8203-.674-1.8392-.674-3.0566 0-1.211.205-2.2396.615-3.086.41-.8463.987-1.4909 1.729-1.9336s1.608-.664 2.597-.664zm0 1.7285c-.722 0-1.308.2344-1.757.7031-.443.4688-.704 1.1556-.782 2.0606h4.922c-.006-.5404-.097-1.0189-.273-1.4356-.17-.4167-.43-.7422-.781-.9765-.346-.2344-.788-.3516-1.329-.3516z" fill="#fff"/></g><rect height="57" rx="8.5" stroke="#6a6e79" width="301" x="330" y="64.5"/><g clip-path="url(#c)"><rect fill="#019aeb" height="42" rx="21" width="72" x="329.5" y="130"/><path d="m360.898 151.273c0 .881-.112 1.683-.336 2.407-.218.718-.549 1.338-.992 1.859-.442.516-.997.914-1.664 1.195-.666.282-1.448.422-2.344.422-.911 0-1.703-.14-2.374-.422-.667-.281-1.222-.682-1.665-1.203-.437-.521-.765-1.143-.984-1.867s-.328-1.526-.328-2.406c0-1.177.193-2.203.578-3.078.391-.881.982-1.563 1.773-2.047.797-.49 1.803-.735 3.016-.735 1.188 0 2.175.243 2.961.727.787.484 1.375 1.167 1.766 2.047.396.875.593 1.909.593 3.101zm-8.718 0c0 .881.119 1.644.359 2.289.24.641.607 1.136 1.102 1.485.5.344 1.14.515 1.921.515.787 0 1.428-.171 1.922-.515.495-.349.86-.844 1.094-1.485.234-.645.352-1.408.352-2.289 0-1.338-.269-2.385-.805-3.14-.531-.761-1.38-1.141-2.547-1.141-.781 0-1.424.172-1.93.516-.5.344-.869.836-1.109 1.476-.24.636-.359 1.399-.359 2.289zm15.742-3.085c.974 0 1.732.252 2.273.757.547.5.821 1.305.821 2.414v5.641h-1.836v-5.297c0-.672-.138-1.174-.414-1.508-.276-.338-.704-.507-1.282-.507-.838 0-1.422.257-1.75.773-.323.516-.484 1.263-.484 2.242v4.297h-1.836v-8.648h1.43l.258 1.171h.101c.188-.302.419-.549.695-.742.282-.198.594-.346.938-.445.349-.099.711-.148 1.086-.148zm9.359 0c.771 0 1.433.158 1.985.476s.976.768 1.273 1.352c.297.583.445 1.281.445 2.093v.985h-5.773c.021.838.245 1.484.672 1.937.432.453 1.036.68 1.812.68.552 0 1.047-.052 1.485-.156.442-.11.898-.269 1.367-.477v1.492c-.432.203-.873.352-1.32.446-.448.093-.985.14-1.61.14-.849 0-1.596-.164-2.242-.492-.641-.333-1.143-.828-1.508-1.484-.359-.657-.539-1.472-.539-2.446 0-.968.164-1.791.492-2.468s.789-1.193 1.383-1.547 1.287-.531 2.078-.531zm0 1.382c-.578 0-1.047.188-1.406.563-.354.375-.563.924-.625 1.648h3.938c-.006-.432-.079-.815-.219-1.148-.136-.334-.344-.594-.625-.781-.276-.188-.63-.282-1.063-.282z" fill="#fff"/><rect height="42" rx="21" stroke="#019aeb" stroke-width="2" width="72" x="329.5" y="130"/><path d="m428.781 157h-1.883v-9.828h-3.343v-1.594h8.562v1.594h-3.336zm12.219-.008-1.094-4.023c-.052-.198-.114-.438-.187-.719s-.146-.57-.219-.867c-.073-.302-.141-.581-.203-.836-.057-.255-.102-.453-.133-.594h-.062c-.026.141-.068.339-.125.594-.058.255-.123.534-.196.836s-.146.596-.219.883c-.067.286-.13.531-.187.734l-1.148 3.992h-2.016l-2.422-8.648h1.859l1.125 4.297c.073.291.144.606.211.945.073.338.136.661.188.969.052.307.091.56.117.757h.063c.02-.14.049-.317.086-.531.036-.219.078-.445.124-.679.047-.24.094-.464.141-.672.047-.214.091-.386.133-.516l1.328-4.57h2.008l1.273 4.57c.058.198.12.448.188.75.068.297.127.596.179.898.058.297.094.545.11.743h.062c.021-.177.058-.417.11-.719.057-.307.122-.633.195-.977.073-.349.149-.671.227-.968l1.148-4.297h1.828l-2.437 8.648zm13.883-4.336c0 .719-.094 1.357-.281 1.914-.188.558-.461 1.029-.821 1.414-.359.381-.791.672-1.297.875-.505.198-1.075.297-1.711.297-.593 0-1.138-.099-1.632-.297-.495-.203-.925-.494-1.289-.875-.36-.385-.638-.856-.836-1.414-.198-.557-.297-1.195-.297-1.914 0-.953.164-1.76.492-2.422.333-.666.807-1.174 1.422-1.523.614-.349 1.346-.523 2.195-.523.797 0 1.5.174 2.11.523.609.349 1.085.857 1.429 1.523.344.667.516 1.474.516 2.422zm-6.274 0c0 .63.076 1.17.227 1.617.156.448.396.792.719 1.032.323.234.739.351 1.25.351.51 0 .927-.117 1.25-.351.323-.24.56-.584.711-1.032.151-.447.226-.987.226-1.617s-.075-1.164-.226-1.601c-.151-.443-.388-.779-.711-1.008-.323-.235-.743-.352-1.258-.352-.761 0-1.315.256-1.664.766s-.524 1.242-.524 2.195z" fill="#fff"/><path d="m479 139v24" stroke="#019aeb"/><path d="m500.18 157h-1.883v-9.828h-3.344v-1.594h8.563v1.594h-3.336zm6.984-12.156v3.054c0 .318-.01.628-.031.93-.016.302-.034.537-.055.703h.102c.182-.302.406-.549.672-.742.265-.198.562-.346.89-.445.334-.099.688-.149 1.063-.149.661 0 1.224.112 1.687.336.464.219.818.56 1.063 1.024.25.463.375 1.065.375 1.804v5.641h-1.836v-5.297c0-.672-.138-1.174-.414-1.508-.276-.338-.703-.507-1.282-.507-.557 0-1 .117-1.328.351-.323.229-.554.57-.695 1.023-.141.448-.211.995-.211 1.641v4.297h-1.836v-12.156zm12.969 3.344c.146 0 .305.007.476.023.172.016.321.036.446.062l-.172 1.719c-.11-.031-.245-.054-.406-.07-.157-.016-.297-.024-.422-.024-.328 0-.641.055-.938.164-.297.105-.56.266-.789.485-.229.213-.409.482-.539.805-.13.322-.195.697-.195 1.125v4.523h-1.844v-8.648h1.438l.25 1.523h.085c.172-.307.386-.589.641-.844s.547-.458.875-.609c.333-.156.698-.234 1.094-.234zm6.219 0c.77 0 1.432.158 1.984.476s.976.768 1.273 1.352c.297.583.446 1.281.446 2.093v.985h-5.774c.021.838.245 1.484.672 1.937.432.453 1.037.68 1.813.68.552 0 1.046-.052 1.484-.156.443-.11.898-.269 1.367-.477v1.492c-.432.203-.872.352-1.32.446-.448.093-.985.14-1.609.14-.849 0-1.597-.164-2.243-.492-.64-.333-1.143-.828-1.507-1.484-.36-.657-.54-1.472-.54-2.446 0-.968.164-1.791.493-2.468.328-.677.789-1.193 1.382-1.547.594-.354 1.287-.531 2.079-.531zm0 1.382c-.579 0-1.047.188-1.407.563-.354.375-.562.924-.625 1.648h3.938c-.005-.432-.078-.815-.219-1.148-.135-.334-.344-.594-.625-.781-.276-.188-.63-.282-1.062-.282zm9.468-1.382c.771 0 1.433.158 1.985.476s.976.768 1.273 1.352c.297.583.445 1.281.445 2.093v.985h-5.773c.021.838.245 1.484.672 1.937.432.453 1.036.68 1.812.68.552 0 1.047-.052 1.485-.156.442-.11.898-.269 1.367-.477v1.492c-.432.203-.872.352-1.32.446-.448.093-.985.14-1.61.14-.849 0-1.596-.164-2.242-.492-.641-.333-1.143-.828-1.508-1.484-.359-.657-.539-1.472-.539-2.446 0-.968.164-1.791.492-2.468.329-.677.789-1.193 1.383-1.547s1.287-.531 2.078-.531zm0 1.382c-.578 0-1.047.188-1.406.563-.354.375-.562.924-.625 1.648h3.938c-.006-.432-.079-.815-.219-1.148-.136-.334-.344-.594-.625-.781-.276-.188-.63-.282-1.063-.282z" fill="#fff"/><path d="m557 139v24" stroke="#019aeb"/><path d="m580.797 157h-1.859v-11.422h6.453v1.578h-4.594v3.563h4.297v1.57h-4.297zm14.391-4.344c0 .719-.094 1.357-.282 1.914-.187.558-.461 1.029-.82 1.414-.359.381-.792.672-1.297.875-.505.198-1.075.297-1.711.297-.594 0-1.138-.099-1.633-.297-.494-.203-.924-.494-1.289-.875-.359-.385-.638-.856-.836-1.414-.198-.557-.297-1.195-.297-1.914 0-.953.165-1.76.493-2.422.333-.666.807-1.174 1.422-1.523.614-.349 1.346-.523 2.195-.523.797 0 1.5.174 2.109.523.61.349 1.086.857 1.43 1.523.344.667.516 1.474.516 2.422zm-6.274 0c0 .63.076 1.17.227 1.617.156.448.395.792.718 1.032.323.234.74.351 1.25.351.511 0 .927-.117 1.25-.351.323-.24.56-.584.711-1.032.151-.447.227-.987.227-1.617s-.076-1.164-.227-1.601c-.151-.443-.388-.779-.711-1.008-.323-.235-.742-.352-1.257-.352-.761 0-1.316.256-1.664.766-.349.51-.524 1.242-.524 2.195zm16.172-4.304v8.648h-1.445l-.25-1.164h-.102c-.182.297-.414.544-.695.742-.282.193-.594.336-.938.43-.344.099-.705.148-1.086.148-.651 0-1.208-.109-1.672-.328-.458-.224-.809-.568-1.054-1.031-.245-.464-.367-1.063-.367-1.797v-5.648h1.843v5.304c0 .672.136 1.175.407 1.508.276.333.703.5 1.281.5.557 0 1-.115 1.328-.344s.56-.567.695-1.015c.141-.448.211-.998.211-1.649v-4.304zm7.266-.164c.145 0 .304.007.476.023s.32.036.445.062l-.171 1.719c-.11-.031-.245-.054-.407-.07-.156-.016-.297-.024-.422-.024-.328 0-.64.055-.937.164-.297.105-.56.266-.789.485-.229.213-.409.482-.539.805-.13.322-.196.697-.196 1.125v4.523h-1.843v-8.648h1.437l.25 1.523h.086c.172-.307.386-.589.641-.844s.547-.458.875-.609c.333-.156.698-.234 1.094-.234z" fill="#fff"/></g><rect height="41" rx="20.5" stroke="#019aeb" width="301" x="330" y="130.5"/><g clip-path="url(#d)"><rect fill="#019aeb" height="57" rx="4.5" width="55.4" x="330" y="180.5"/><g fill="#fff"><path d="m349.699 196.667c-.59 0-1.149.117-1.659.328-.51.212-1.095-.03-1.307-.541-.211-.51.031-1.095.541-1.306.748-.311 1.568-.481 2.425-.481h2c.552 0 1 .447 1 1 0 .552-.448 1-1 1z"/><path d="m354.699 195.667c0-.553.447-1 1-1h4c.552 0 1 .447 1 1 0 .552-.448 1-1 1h-4c-.553 0-1-.448-1-1z"/><path d="m362.699 195.667c0-.553.447-1 1-1h2c.856 0 1.676.17 2.424.481.51.211.752.796.541 1.306-.212.511-.797.753-1.307.541-.509-.211-1.069-.328-1.658-.328h-2c-.553 0-1-.448-1-1z"/><path d="m345.153 198.035c.51.211.752.796.541 1.306-.212.51-.329 1.07-.329 1.659v2c0 .552-.447 1-1 1-.552 0-1-.448-1-1v-2c0-.857.171-1.676.481-2.425.212-.51.797-.752 1.307-.54z"/><path d="m370.244 198.035c.51-.212 1.095.03 1.307.54.31.749.481 1.568.481 2.425v2c0 .552-.448 1-1 1s-1-.448-1-1v-2c0-.589-.117-1.149-.329-1.659-.211-.51.031-1.095.541-1.306z"/><path d="m344.365 206c.553 0 1 .448 1 1v4c0 .552-.447 1-1 1-.552 0-1-.448-1-1v-4c0-.552.448-1 1-1z"/><path d="m371.032 206c.552 0 1 .448 1 1v4c0 .552-.448 1-1 1s-1-.448-1-1v-4c0-.552.448-1 1-1z"/><path d="m344.365 214c.553 0 1 .448 1 1v2c0 .589.117 1.149.329 1.658.211.511-.031 1.096-.541 1.307-.51.212-1.095-.03-1.307-.54-.31-.749-.481-1.568-.481-2.425v-2c0-.552.448-1 1-1z"/><path d="m371.032 214c.552 0 1 .448 1 1v2c0 .857-.171 1.676-.481 2.425-.212.51-.797.752-1.307.54-.51-.211-.752-.796-.541-1.307.212-.509.329-1.069.329-1.658v-2c0-.552.448-1 1-1z"/><path d="m346.733 221.546c.212-.511.797-.753 1.307-.541.51.211 1.069.328 1.659.328h2c.552 0 1 .448 1 1 0 .553-.448 1-1 1h-2c-.857 0-1.677-.17-2.425-.481-.51-.211-.752-.796-.541-1.306z"/><path d="m368.664 221.546c.211.51-.031 1.095-.541 1.306-.748.311-1.568.481-2.424.481h-2c-.553 0-1-.447-1-1 0-.552.447-1 1-1h2c.589 0 1.149-.117 1.658-.328.51-.212 1.095.03 1.307.541z"/><path d="m354.699 222.333c0-.552.447-1 1-1h4c.552 0 1 .448 1 1 0 .553-.448 1-1 1h-4c-.553 0-1-.447-1-1z"/><path d="m369.072 199.121c.391-.39.391-1.023 0-1.414-.39-.39-1.023-.39-1.414 0l-1.328 1.328c-.391.391-.391 1.024 0 1.415.39.39 1.024.39 1.414 0z"/><path d="m365.088 203.106c.39-.39.39-1.024 0-1.414-.391-.391-1.024-.391-1.415 0l-2.656 2.656c-.391.391-.391 1.024 0 1.415.39.39 1.023.39 1.414 0z"/><path d="m359.774 208.419c.391-.39.391-1.023 0-1.414-.39-.391-1.023-.391-1.414 0l-.661.662-.662-.662c-.391-.391-1.024-.391-1.414 0-.391.391-.391 1.024 0 1.414l.661.662-.58.581c-.391.39-.391 1.023 0 1.414.39.39 1.023.39 1.414 0l.581-.581.58.581c.391.39 1.024.39 1.415 0 .39-.391.39-1.024 0-1.414l-.581-.581z"/><path d="m354.461 213.732c.391-.39.391-1.023 0-1.414-.39-.39-1.023-.39-1.414 0l-2.656 2.657c-.391.39-.391 1.023 0 1.414.39.39 1.023.39 1.414 0z"/><path d="m349.148 219.045c.391-.39.391-1.023 0-1.414-.39-.39-1.024-.39-1.414 0l-1.328 1.329c-.391.39-.391 1.023 0 1.414.39.39 1.023.39 1.414 0z"/><path d="m367.577 220.374c.391.39 1.024.39 1.414 0 .391-.391.391-1.024 0-1.414l-1.328-1.329c-.39-.39-1.024-.39-1.414 0-.391.391-.391 1.024 0 1.414z"/><path d="m363.592 216.389c.391.39 1.024.39 1.415 0 .39-.391.39-1.024 0-1.414l-2.657-2.657c-.39-.39-1.024-.39-1.414 0-.391.391-.391 1.024 0 1.414z"/><path d="m352.966 205.763c.391.39 1.024.39 1.414 0 .391-.391.391-1.024 0-1.415l-2.656-2.656c-.391-.391-1.024-.391-1.414 0-.391.39-.391 1.024 0 1.414z"/><path d="m347.653 200.45c.391.39 1.024.39 1.414 0 .391-.391.391-1.024 0-1.415l-1.328-1.328c-.391-.39-1.024-.39-1.414 0-.391.391-.391 1.024 0 1.414z"/><path d="m353.773 202.185c.397-.12.82-.185 1.259-.185h1c.552 0 1-.448 1-1s-.448-1-1-1h-1c-.638 0-1.256.095-1.839.271-.528.16-.827.719-.667 1.247.16.529.719.827 1.247.667z"/><path d="m359.365 200c-.552 0-1 .448-1 1s.448 1 1 1h1c.44 0 .862.065 1.259.185.529.16 1.087-.138 1.247-.667.16-.528-.139-1.087-.667-1.247-.583-.176-1.201-.271-1.839-.271z"/><path d="m350.884 205.075c.16-.529-.139-1.087-.667-1.247-.529-.161-1.087.138-1.247.667-.177.583-.271 1.2-.271 1.838v1c0 .553.447 1 1 1 .552 0 1-.447 1-1v-1c0-.439.065-.861.185-1.258z"/><path d="m366.427 204.495c-.16-.529-.718-.828-1.247-.667-.528.16-.827.718-.667 1.247.121.397.186.819.186 1.258v1c0 .553.447 1 1 1 .552 0 1-.447 1-1v-1c0-.638-.095-1.255-.272-1.838z"/><path d="m350.699 210.667c0-.553-.448-1-1-1-.553 0-1 .447-1 1v1c0 .638.094 1.255.271 1.838.16.529.718.828 1.247.667.528-.16.827-.718.667-1.247-.12-.397-.185-.819-.185-1.258z"/><path d="m366.699 210.667c0-.553-.448-1-1-1-.553 0-1 .447-1 1v1c0 .439-.065.861-.186 1.258-.16.529.139 1.087.667 1.247.529.161 1.087-.138 1.247-.667.177-.583.272-1.2.272-1.838z"/><path d="m353.773 215.815c-.528-.161-1.087.138-1.247.667-.16.528.139 1.087.667 1.247.583.176 1.201.271 1.839.271h1c.552 0 1-.448 1-1s-.448-1-1-1h-1c-.439 0-.862-.065-1.259-.185z"/><path d="m362.204 217.729c.528-.16.827-.719.667-1.247-.16-.529-.718-.828-1.247-.667-.397.12-.819.185-1.259.185h-1c-.552 0-1 .448-1 1s.448 1 1 1h1c.638 0 1.256-.095 1.839-.271z"/></g><rect height="57" rx="4.5" stroke="#019aeb" width="55.4" x="330" y="180.5"/><path d="m408.099 196.667c-.589 0-1.149.117-1.659.328-.51.212-1.095-.03-1.306-.541-.212-.51.03-1.095.54-1.306.749-.311 1.568-.481 2.425-.481h2c.552 0 1 .447 1 1 0 .552-.448 1-1 1z" fill="#fff"/><path d="m413.099 195.667c0-.553.448-1 1-1h4c.552 0 1 .447 1 1 0 .552-.448 1-1 1h-4c-.552 0-1-.448-1-1z" fill="#fff"/><path d="m421.099 195.667c0-.553.448-1 1-1h2c.857 0 1.676.17 2.425.481.51.211.752.796.54 1.306-.211.511-.796.753-1.307.541-.509-.211-1.069-.328-1.658-.328h-2c-.552 0-1-.448-1-1z" fill="#fff"/><path d="m403.553 198.035c.511.211.753.796.541 1.306-.211.51-.328 1.07-.328 1.659v2c0 .552-.448 1-1 1-.553 0-1-.448-1-1v-2c0-.857.17-1.676.481-2.425.211-.51.796-.752 1.306-.54z" fill="#fff"/><path d="m428.645 198.035c.51-.212 1.095.03 1.306.54.311.749.481 1.568.481 2.425v2c0 .552-.447 1-1 1-.552 0-1-.448-1-1v-2c0-.589-.117-1.149-.328-1.659-.212-.51.03-1.095.541-1.306z" fill="#fff"/><path d="m402.766 206c.552 0 1 .448 1 1v4c0 .552-.448 1-1 1-.553 0-1-.448-1-1v-4c0-.552.447-1 1-1z" fill="#fff"/><path d="m429.432 206c.553 0 1 .448 1 1v4c0 .552-.447 1-1 1-.552 0-1-.448-1-1v-4c0-.552.448-1 1-1z" fill="#fff"/><path d="m402.766 214c.552 0 1 .448 1 1v2c0 .589.117 1.149.328 1.658.212.511-.03 1.096-.541 1.307-.51.212-1.095-.03-1.306-.54-.311-.749-.481-1.568-.481-2.425v-2c0-.552.447-1 1-1z" fill="#fff"/><path d="m429.432 214c.553 0 1 .448 1 1v2c0 .857-.17 1.676-.481 2.425-.211.51-.796.752-1.306.54-.511-.211-.753-.796-.541-1.307.211-.509.328-1.069.328-1.658v-2c0-.552.448-1 1-1z" fill="#fff"/><path d="m405.134 221.546c.211-.511.796-.753 1.306-.541.51.211 1.07.328 1.659.328h2c.552 0 1 .448 1 1 0 .553-.448 1-1 1h-2c-.857 0-1.676-.17-2.425-.481-.51-.211-.752-.796-.54-1.306z" fill="#fff"/><path d="m427.064 221.546c.212.51-.03 1.095-.54 1.306-.749.311-1.568.481-2.425.481h-2c-.552 0-1-.447-1-1 0-.552.448-1 1-1h2c.589 0 1.149-.117 1.658-.328.511-.212 1.096.03 1.307.541z" fill="#fff"/><path d="m413.099 222.333c0-.552.448-1 1-1h4c.552 0 1 .448 1 1 0 .553-.448 1-1 1h-4c-.552 0-1-.447-1-1z" fill="#fff"/><path d="m427.473 199.121c.39-.39.39-1.023 0-1.414-.391-.39-1.024-.39-1.414 0l-1.329 1.328c-.39.391-.39 1.024 0 1.415.391.39 1.024.39 1.414 0z" fill="#fff"/><path d="m423.488 203.106c.39-.39.39-1.024 0-1.414-.391-.391-1.024-.391-1.414 0l-2.657 2.656c-.39.391-.39 1.024 0 1.415.391.39 1.024.39 1.414 0z" fill="#fff"/><path d="m418.175 208.419c.39-.39.39-1.023 0-1.414-.391-.391-1.024-.391-1.414 0l-.662.662-.662-.662c-.39-.391-1.023-.391-1.414 0-.39.391-.39 1.024 0 1.414l.662.662-.581.581c-.391.39-.391 1.023 0 1.414.391.39 1.024.39 1.414 0l.581-.581.581.581c.39.39 1.023.39 1.414 0 .39-.391.39-1.024 0-1.414l-.581-.581z" fill="#fff"/><path d="m412.862 213.732c.39-.39.39-1.023 0-1.414-.391-.39-1.024-.39-1.415 0l-2.656 2.657c-.391.39-.391 1.023 0 1.414.39.39 1.024.39 1.414 0z" fill="#fff"/><path d="m407.549 219.045c.39-.39.39-1.023 0-1.414-.391-.39-1.024-.39-1.415 0l-1.328 1.329c-.39.39-.39 1.023 0 1.414.391.39 1.024.39 1.414 0z" fill="#fff"/><path d="m425.978 220.374c.39.39 1.023.39 1.414 0 .39-.391.39-1.024 0-1.414l-1.328-1.329c-.391-.39-1.024-.39-1.415 0-.39.391-.39 1.024 0 1.414z" fill="#fff"/><path d="m421.993 216.389c.39.39 1.023.39 1.414 0 .391-.391.391-1.024 0-1.414l-2.657-2.657c-.39-.39-1.023-.39-1.414 0-.39.391-.39 1.024 0 1.414z" fill="#fff"/><path d="m411.367 205.763c.39.39 1.023.39 1.414 0 .39-.391.39-1.024 0-1.415l-2.657-2.656c-.39-.391-1.023-.391-1.414 0-.391.39-.391 1.024 0 1.414z" fill="#fff"/><path d="m406.053 200.45c.391.39 1.024.39 1.415 0 .39-.391.39-1.024 0-1.415l-1.329-1.328c-.39-.39-1.023-.39-1.414 0-.39.391-.39 1.024 0 1.414z" fill="#fff"/><path d="m412.174 202.185c.397-.12.819-.185 1.258-.185h1c.553 0 1-.448 1-1s-.447-1-1-1h-1c-.638 0-1.255.095-1.838.271-.529.16-.828.719-.667 1.247.16.529.718.827 1.247.667z" fill="#fff"/><path d="m417.766 200c-.553 0-1 .448-1 1s.447 1 1 1h1c.439 0 .861.065 1.258.185.529.16 1.087-.138 1.247-.667.161-.528-.138-1.087-.667-1.247-.583-.176-1.2-.271-1.838-.271z" fill="#fff"/><path d="m409.284 205.075c.16-.529-.138-1.087-.667-1.247-.528-.161-1.087.138-1.247.667-.176.583-.271 1.2-.271 1.838v1c0 .553.448 1 1 1s1-.447 1-1v-1c0-.439.065-.861.185-1.258z" fill="#fff"/><path d="m424.828 204.495c-.16-.529-.719-.828-1.247-.667-.529.16-.828.718-.667 1.247.12.397.185.819.185 1.258v1c0 .553.448 1 1 1s1-.447 1-1v-1c0-.638-.095-1.255-.271-1.838z" fill="#fff"/><path d="m409.099 210.667c0-.553-.448-1-1-1s-1 .447-1 1v1c0 .638.095 1.255.271 1.838.16.529.719.828 1.247.667.529-.16.827-.718.667-1.247-.12-.397-.185-.819-.185-1.258z" fill="#fff"/><path d="m425.099 210.667c0-.553-.448-1-1-1s-1 .447-1 1v1c0 .439-.065.861-.185 1.258-.161.529.138 1.087.667 1.247.528.161 1.087-.138 1.247-.667.176-.583.271-1.2.271-1.838z" fill="#fff"/><path d="m412.174 215.815c-.529-.161-1.087.138-1.247.667-.161.528.138 1.087.667 1.247.583.176 1.2.271 1.838.271h1c.553 0 1-.448 1-1s-.447-1-1-1h-1c-.439 0-.861-.065-1.258-.185z" fill="#fff"/><path d="m420.604 217.729c.529-.16.828-.719.667-1.247-.16-.529-.718-.828-1.247-.667-.397.12-.819.185-1.258.185h-1c-.553 0-1 .448-1 1s.447 1 1 1h1c.638 0 1.255-.095 1.838-.271z" fill="#fff"/><path d="m447.801 197v24" stroke="#019aeb"/><path d="m470.499 196.667c-.589 0-1.149.117-1.658.328-.51.212-1.095-.03-1.307-.541-.211-.51.031-1.095.541-1.306.748-.311 1.567-.481 2.424-.481h2c.553 0 1 .447 1 1 0 .552-.447 1-1 1z" fill="#fff"/><path d="m475.499 195.667c0-.553.448-1 1-1h4c.553 0 1 .447 1 1 0 .552-.447 1-1 1h-4c-.552 0-1-.448-1-1z" fill="#fff"/><path d="m483.499 195.667c0-.553.448-1 1-1h2c.857 0 1.677.17 2.425.481.51.211.752.796.541 1.306-.212.511-.797.753-1.307.541-.51-.211-1.069-.328-1.659-.328h-2c-.552 0-1-.448-1-1z" fill="#fff"/><path d="m465.954 198.035c.51.211.752.796.54 1.306-.211.51-.328 1.07-.328 1.659v2c0 .552-.448 1-1 1s-1-.448-1-1v-2c0-.857.171-1.676.481-2.425.212-.51.797-.752 1.307-.54z" fill="#fff"/><path d="m491.045 198.035c.51-.212 1.095.03 1.307.54.31.749.481 1.568.481 2.425v2c0 .552-.448 1-1 1-.553 0-1-.448-1-1v-2c0-.589-.117-1.149-.329-1.659-.211-.51.031-1.095.541-1.306z" fill="#fff"/><path d="m465.166 206c.552 0 1 .448 1 1v4c0 .552-.448 1-1 1s-1-.448-1-1v-4c0-.552.448-1 1-1z" fill="#fff"/><path d="m491.833 206c.552 0 1 .448 1 1v4c0 .552-.448 1-1 1-.553 0-1-.448-1-1v-4c0-.552.447-1 1-1z" fill="#fff"/><path d="m465.166 214c.552 0 1 .448 1 1v2c0 .589.117 1.149.328 1.658.212.511-.03 1.096-.54 1.307-.51.212-1.095-.03-1.307-.54-.31-.749-.481-1.568-.481-2.425v-2c0-.552.448-1 1-1z" fill="#fff"/><path d="m491.833 214c.552 0 1 .448 1 1v2c0 .857-.171 1.676-.481 2.425-.212.51-.797.752-1.307.54-.51-.211-.752-.796-.541-1.307.212-.509.329-1.069.329-1.658v-2c0-.552.447-1 1-1z" fill="#fff"/><path d="m467.534 221.546c.212-.511.797-.753 1.307-.541.509.211 1.069.328 1.658.328h2c.553 0 1 .448 1 1 0 .553-.447 1-1 1h-2c-.857 0-1.676-.17-2.424-.481-.51-.211-.752-.796-.541-1.306z" fill="#fff"/><path d="m489.465 221.546c.211.51-.031 1.095-.541 1.306-.748.311-1.568.481-2.425.481h-2c-.552 0-1-.447-1-1 0-.552.448-1 1-1h2c.59 0 1.149-.117 1.659-.328.51-.212 1.095.03 1.307.541z" fill="#fff"/><path d="m475.499 222.333c0-.552.448-1 1-1h4c.553 0 1 .448 1 1 0 .553-.447 1-1 1h-4c-.552 0-1-.447-1-1z" fill="#fff"/><path d="m489.873 199.121c.391-.39.391-1.023 0-1.414-.39-.39-1.024-.39-1.414 0l-1.328 1.328c-.391.391-.391 1.024 0 1.415.39.39 1.023.39 1.414 0z" fill="#fff"/><path d="m485.888 203.106c.391-.39.391-1.024 0-1.414-.39-.391-1.023-.391-1.414 0l-2.656 2.656c-.391.391-.391 1.024 0 1.415.39.39 1.023.39 1.414 0z" fill="#fff"/><path d="m480.575 208.419c.391-.39.391-1.023 0-1.414-.39-.391-1.024-.391-1.414 0l-.662.662-.661-.662c-.391-.391-1.024-.391-1.414 0-.391.391-.391 1.024 0 1.414l.661.662-.581.581c-.39.39-.39 1.023 0 1.414.391.39 1.024.39 1.415 0l.58-.581.581.581c.391.39 1.024.39 1.414 0 .391-.391.391-1.024 0-1.414l-.58-.581z" fill="#fff"/><path d="m475.262 213.732c.391-.39.391-1.023 0-1.414-.39-.39-1.024-.39-1.414 0l-2.657 2.657c-.39.39-.39 1.023 0 1.414.391.39 1.024.39 1.415 0z" fill="#fff"/><path d="m469.949 219.045c.39-.39.39-1.023 0-1.414-.391-.39-1.024-.39-1.414 0l-1.329 1.329c-.39.39-.39 1.023 0 1.414.391.39 1.024.39 1.415 0z" fill="#fff"/><path d="m488.378 220.374c.391.39 1.024.39 1.414 0 .391-.391.391-1.024 0-1.414l-1.328-1.329c-.391-.39-1.024-.39-1.414 0-.391.391-.391 1.024 0 1.414z" fill="#fff"/><path d="m484.393 216.389c.391.39 1.024.39 1.414 0 .391-.391.391-1.024 0-1.414l-2.656-2.657c-.391-.39-1.024-.39-1.414 0-.391.391-.391 1.024 0 1.414z" fill="#fff"/><path d="m473.767 205.763c.39.39 1.024.39 1.414 0 .391-.391.391-1.024 0-1.415l-2.656-2.656c-.391-.391-1.024-.391-1.415 0-.39.39-.39 1.024 0 1.414z" fill="#fff"/><path d="m468.454 200.45c.39.39 1.024.39 1.414 0 .391-.391.391-1.024 0-1.415l-1.328-1.328c-.391-.39-1.024-.39-1.414 0-.391.391-.391 1.024 0 1.414z" fill="#fff"/><path d="m474.574 202.185c.397-.12.819-.185 1.259-.185h1c.552 0 1-.448 1-1s-.448-1-1-1h-1c-.638 0-1.256.095-1.839.271-.529.16-.827.719-.667 1.247.16.529.718.827 1.247.667z" fill="#fff"/><path d="m480.166 200c-.552 0-1 .448-1 1s.448 1 1 1h1c.439 0 .862.065 1.259.185.528.16 1.087-.138 1.247-.667.16-.528-.139-1.087-.667-1.247-.583-.176-1.201-.271-1.839-.271z" fill="#fff"/><path d="m471.685 205.075c.16-.529-.139-1.087-.667-1.247-.529-.161-1.087.138-1.247.667-.177.583-.272 1.2-.272 1.838v1c0 .553.448 1 1 1 .553 0 1-.447 1-1v-1c0-.439.065-.861.186-1.258z" fill="#fff"/><path d="m487.228 204.495c-.16-.529-.718-.828-1.247-.667-.529.16-.827.718-.667 1.247.12.397.185.819.185 1.258v1c0 .553.448 1 1 1 .553 0 1-.447 1-1v-1c0-.638-.094-1.255-.271-1.838z" fill="#fff"/><path d="m471.499 210.667c0-.553-.447-1-1-1-.552 0-1 .447-1 1v1c0 .638.095 1.255.272 1.838.16.529.718.828 1.247.667.528-.16.827-.718.667-1.247-.121-.397-.186-.819-.186-1.258z" fill="#fff"/><path d="m487.499 210.667c0-.553-.447-1-1-1-.552 0-1 .447-1 1v1c0 .439-.065.861-.185 1.258-.16.529.138 1.087.667 1.247.529.161 1.087-.138 1.247-.667.177-.583.271-1.2.271-1.838z" fill="#fff"/><path d="m474.574 215.815c-.529-.161-1.087.138-1.247.667-.16.528.138 1.087.667 1.247.583.176 1.201.271 1.839.271h1c.552 0 1-.448 1-1s-.448-1-1-1h-1c-.44 0-.862-.065-1.259-.185z" fill="#fff"/><path d="m483.005 217.729c.528-.16.827-.719.667-1.247-.16-.529-.719-.828-1.247-.667-.397.12-.82.185-1.259.185h-1c-.552 0-1 .448-1 1s.448 1 1 1h1c.638 0 1.256-.095 1.839-.271z" fill="#fff"/><path d="m510.199 197v24" stroke="#019aeb"/><path d="m532.898 196.667c-.59 0-1.149.117-1.659.328-.51.212-1.095-.03-1.306-.541-.212-.51.03-1.095.54-1.306.748-.311 1.568-.481 2.425-.481h2c.552 0 1 .447 1 1 0 .552-.448 1-1 1z" fill="#fff"/><path d="m537.898 195.667c0-.553.448-1 1-1h4c.552 0 1 .447 1 1 0 .552-.448 1-1 1h-4c-.552 0-1-.448-1-1z" fill="#fff"/><path d="m545.898 195.667c0-.553.448-1 1-1h2c.857 0 1.676.17 2.424.481.511.211.753.796.541 1.306-.212.511-.797.753-1.307.541-.509-.211-1.069-.328-1.658-.328h-2c-.552 0-1-.448-1-1z" fill="#fff"/><path d="m528.352 198.035c.51.211.752.796.541 1.306s-.329 1.07-.329 1.659v2c0 .552-.447 1-1 1-.552 0-1-.448-1-1v-2c0-.857.171-1.676.481-2.425.212-.51.797-.752 1.307-.54z" fill="#fff"/><path d="m553.443 198.035c.511-.212 1.096.03 1.307.54.31.749.481 1.568.481 2.425v2c0 .552-.448 1-1 1s-1-.448-1-1v-2c0-.589-.117-1.149-.328-1.659-.212-.51.03-1.095.54-1.306z" fill="#fff"/><path d="m527.564 206c.553 0 1 .448 1 1v4c0 .552-.447 1-1 1-.552 0-1-.448-1-1v-4c0-.552.448-1 1-1z" fill="#fff"/><path d="m554.231 206c.552 0 1 .448 1 1v4c0 .552-.448 1-1 1s-1-.448-1-1v-4c0-.552.448-1 1-1z" fill="#fff"/><path d="m527.564 214c.553 0 1 .448 1 1v2c0 .589.118 1.149.329 1.658.211.511-.031 1.096-.541 1.307-.51.212-1.095-.03-1.307-.54-.31-.749-.481-1.568-.481-2.425v-2c0-.552.448-1 1-1z" fill="#fff"/><path d="m554.231 214c.552 0 1 .448 1 1v2c0 .857-.171 1.676-.481 2.425-.211.51-.796.752-1.307.54-.51-.211-.752-.796-.54-1.307.211-.509.328-1.069.328-1.658v-2c0-.552.448-1 1-1z" fill="#fff"/><path d="m529.933 221.546c.211-.511.796-.753 1.306-.541.51.211 1.069.328 1.659.328h2c.552 0 1 .448 1 1 0 .553-.448 1-1 1h-2c-.857 0-1.677-.17-2.425-.481-.51-.211-.752-.796-.54-1.306z" fill="#fff"/><path d="m551.863 221.546c.212.51-.03 1.095-.541 1.306-.748.311-1.567.481-2.424.481h-2c-.552 0-1-.447-1-1 0-.552.448-1 1-1h2c.589 0 1.149-.117 1.658-.328.51-.212 1.095.03 1.307.541z" fill="#fff"/><path d="m537.898 222.333c0-.552.448-1 1-1h4c.552 0 1 .448 1 1 0 .553-.448 1-1 1h-4c-.552 0-1-.447-1-1z" fill="#fff"/><path d="m552.272 199.121c.39-.39.39-1.023 0-1.414-.391-.39-1.024-.39-1.415 0l-1.328 1.328c-.39.391-.39 1.024 0 1.415.391.39 1.024.39 1.414 0z" fill="#fff"/><path d="m548.287 203.106c.39-.39.39-1.024 0-1.414-.391-.391-1.024-.391-1.414 0l-2.657 2.656c-.391.391-.391 1.024 0 1.415.39.39 1.024.39 1.414 0z" fill="#fff"/><path d="m542.974 208.419c.39-.39.39-1.023 0-1.414-.391-.391-1.024-.391-1.415 0l-.661.662-.662-.662c-.39-.391-1.024-.391-1.414 0-.391.391-.391 1.024 0 1.414l.662.662-.581.581c-.391.39-.391 1.023 0 1.414.39.39 1.024.39 1.414 0l.581-.581.581.581c.39.39 1.023.39 1.414 0 .39-.391.39-1.024 0-1.414l-.581-.581z" fill="#fff"/><path d="m537.66 213.732c.391-.39.391-1.023 0-1.414-.39-.39-1.023-.39-1.414 0l-2.656 2.657c-.391.39-.391 1.023 0 1.414.39.39 1.023.39 1.414 0z" fill="#fff"/><path d="m532.347 219.045c.391-.39.391-1.023 0-1.414-.39-.39-1.023-.39-1.414 0l-1.328 1.329c-.391.39-.391 1.023 0 1.414.39.39 1.024.39 1.414 0z" fill="#fff"/><path d="m550.776 220.374c.391.39 1.024.39 1.415 0 .39-.391.39-1.024 0-1.414l-1.329-1.329c-.39-.39-1.023-.39-1.414 0-.39.391-.39 1.024 0 1.414z" fill="#fff"/><path d="m546.792 216.389c.39.39 1.023.39 1.414 0 .39-.391.39-1.024 0-1.414l-2.657-2.657c-.39-.39-1.023-.39-1.414 0-.39.391-.39 1.024 0 1.414z" fill="#fff"/><path d="m536.165 205.763c.391.39 1.024.39 1.415 0 .39-.391.39-1.024 0-1.415l-2.657-2.656c-.39-.391-1.024-.391-1.414 0-.391.39-.391 1.024 0 1.414z" fill="#fff"/><path d="m530.852 200.45c.391.39 1.024.39 1.415 0 .39-.391.39-1.024 0-1.415l-1.329-1.328c-.39-.39-1.023-.39-1.414 0-.391.391-.391 1.024 0 1.414z" fill="#fff"/><path d="m536.972 202.185c.398-.12.82-.185 1.259-.185h1c.552 0 1-.448 1-1s-.448-1-1-1h-1c-.638 0-1.255.095-1.839.271-.528.16-.827.719-.667 1.247.161.529.719.827 1.247.667z" fill="#fff"/><path d="m542.564 200c-.552 0-1 .448-1 1s.448 1 1 1h1c.44 0 .862.065 1.259.185.529.16 1.087-.138 1.247-.667.16-.528-.138-1.087-.667-1.247-.583-.176-1.201-.271-1.839-.271z" fill="#fff"/><path d="m534.083 205.075c.16-.529-.138-1.087-.667-1.247-.528-.161-1.087.138-1.247.667-.177.583-.271 1.2-.271 1.838v1c0 .553.448 1 1 1s1-.447 1-1v-1c0-.439.065-.861.185-1.258z" fill="#fff"/><path d="m549.626 204.495c-.16-.529-.718-.828-1.247-.667-.528.16-.827.718-.667 1.247.121.397.186.819.186 1.258v1c0 .553.448 1 1 1s1-.447 1-1v-1c0-.638-.095-1.255-.272-1.838z" fill="#fff"/><path d="m533.898 210.667c0-.553-.448-1-1-1s-1 .447-1 1v1c0 .638.094 1.255.271 1.838.16.529.719.828 1.247.667.529-.16.827-.718.667-1.247-.12-.397-.185-.819-.185-1.258z" fill="#fff"/><path d="m549.898 210.667c0-.553-.448-1-1-1s-1 .447-1 1v1c0 .439-.065.861-.186 1.258-.16.529.139 1.087.667 1.247.529.161 1.087-.138 1.247-.667.177-.583.272-1.2.272-1.838z" fill="#fff"/><path d="m536.972 215.815c-.528-.161-1.086.138-1.247.667-.16.528.139 1.087.667 1.247.584.176 1.201.271 1.839.271h1c.552 0 1-.448 1-1s-.448-1-1-1h-1c-.439 0-.861-.065-1.259-.185z" fill="#fff"/><path d="m545.403 217.729c.529-.16.827-.719.667-1.247-.16-.529-.718-.828-1.247-.667-.397.12-.819.185-1.259.185h-1c-.552 0-1 .448-1 1s.448 1 1 1h1c.638 0 1.256-.095 1.839-.271z" fill="#fff"/><path d="m572.6 197v24" stroke="#019aeb"/><path d="m595.298 196.667c-.589 0-1.149.117-1.658.328-.51.212-1.096-.03-1.307-.541-.212-.51.03-1.095.541-1.306.748-.311 1.567-.481 2.424-.481h2c.552 0 1 .447 1 1 0 .552-.448 1-1 1z" fill="#fff"/><path d="m600.298 195.667c0-.553.448-1 1-1h4c.552 0 1 .447 1 1 0 .552-.448 1-1 1h-4c-.552 0-1-.448-1-1z" fill="#fff"/><path d="m608.298 195.667c0-.553.448-1 1-1h2c.857 0 1.677.17 2.425.481.51.211.752.796.54 1.306-.211.511-.796.753-1.306.541-.51-.211-1.069-.328-1.659-.328h-2c-.552 0-1-.448-1-1z" fill="#fff"/><path d="m590.753 198.035c.51.211.752.796.54 1.306-.211.51-.328 1.07-.328 1.659v2c0 .552-.448 1-1 1s-1-.448-1-1v-2c0-.857.171-1.676.481-2.425.211-.51.796-.752 1.307-.54z" fill="#fff"/><path d="m615.844 198.035c.51-.212 1.095.03 1.307.54.31.749.481 1.568.481 2.425v2c0 .552-.448 1-1 1-.553 0-1-.448-1-1v-2c0-.589-.118-1.149-.329-1.659s.031-1.095.541-1.306z" fill="#fff"/><path d="m589.965 206c.552 0 1 .448 1 1v4c0 .552-.448 1-1 1s-1-.448-1-1v-4c0-.552.448-1 1-1z" fill="#fff"/><path d="m616.632 206c.552 0 1 .448 1 1v4c0 .552-.448 1-1 1-.553 0-1-.448-1-1v-4c0-.552.447-1 1-1z" fill="#fff"/><path d="m589.965 214c.552 0 1 .448 1 1v2c0 .589.117 1.149.328 1.658.212.511-.03 1.096-.54 1.307-.511.212-1.096-.03-1.307-.54-.31-.749-.481-1.568-.481-2.425v-2c0-.552.448-1 1-1z" fill="#fff"/><path d="m616.632 214c.552 0 1 .448 1 1v2c0 .857-.171 1.676-.481 2.425-.212.51-.797.752-1.307.54-.51-.211-.752-.796-.541-1.307.211-.509.329-1.069.329-1.658v-2c0-.552.447-1 1-1z" fill="#fff"/><path d="m592.333 221.546c.211-.511.797-.753 1.307-.541.509.211 1.069.328 1.658.328h2c.552 0 1 .448 1 1 0 .553-.448 1-1 1h-2c-.857 0-1.676-.17-2.424-.481-.511-.211-.753-.796-.541-1.306z" fill="#fff"/><path d="m614.263 221.546c.212.51-.03 1.095-.54 1.306-.748.311-1.568.481-2.425.481h-2c-.552 0-1-.447-1-1 0-.552.448-1 1-1h2c.59 0 1.149-.117 1.659-.328.51-.212 1.095.03 1.306.541z" fill="#fff"/><path d="m600.298 222.333c0-.552.448-1 1-1h4c.552 0 1 .448 1 1 0 .553-.448 1-1 1h-4c-.552 0-1-.447-1-1z" fill="#fff"/><path d="m614.672 199.121c.39-.39.39-1.023 0-1.414-.391-.39-1.024-.39-1.414 0l-1.329 1.328c-.39.391-.39 1.024 0 1.415.391.39 1.024.39 1.415 0z" fill="#fff"/><path d="m610.687 203.106c.391-.39.391-1.024 0-1.414-.39-.391-1.024-.391-1.414 0l-2.657 2.656c-.39.391-.39 1.024 0 1.415.391.39 1.024.39 1.415 0z" fill="#fff"/><path d="m605.374 208.419c.391-.39.391-1.023 0-1.414s-1.024-.391-1.414 0l-.662.662-.661-.662c-.391-.391-1.024-.391-1.415 0-.39.391-.39 1.024 0 1.414l.662.662-.581.581c-.39.39-.39 1.023 0 1.414.391.39 1.024.39 1.414 0l.581-.581.581.581c.39.39 1.024.39 1.414 0 .391-.391.391-1.024 0-1.414l-.581-.581z" fill="#fff"/><path d="m600.061 213.732c.39-.39.39-1.023 0-1.414-.391-.39-1.024-.39-1.414 0l-2.657 2.657c-.39.39-.39 1.023 0 1.414.391.39 1.024.39 1.414 0z" fill="#fff"/><path d="m594.748 219.045c.39-.39.39-1.023 0-1.414-.391-.39-1.024-.39-1.414 0l-1.329 1.329c-.39.39-.39 1.023 0 1.414.391.39 1.024.39 1.414 0z" fill="#fff"/><path d="m613.177 220.374c.39.39 1.024.39 1.414 0 .391-.391.391-1.024 0-1.414l-1.328-1.329c-.391-.39-1.024-.39-1.414 0-.391.391-.391 1.024 0 1.414z" fill="#fff"/><path d="m609.192 216.389c.391.39 1.024.39 1.414 0 .391-.391.391-1.024 0-1.414l-2.656-2.657c-.391-.39-1.024-.39-1.415 0-.39.391-.39 1.024 0 1.414z" fill="#fff"/><path d="m598.566 205.763c.39.39 1.023.39 1.414 0 .391-.391.391-1.024 0-1.415l-2.657-2.656c-.39-.391-1.023-.391-1.414 0-.39.39-.39 1.024 0 1.414z" fill="#fff"/><path d="m593.253 200.45c.39.39 1.023.39 1.414 0 .39-.391.39-1.024 0-1.415l-1.328-1.328c-.391-.39-1.024-.39-1.415 0-.39.391-.39 1.024 0 1.414z" fill="#fff"/><path d="m599.373 202.185c.397-.12.819-.185 1.259-.185h1c.552 0 1-.448 1-1s-.448-1-1-1h-1c-.638 0-1.256.095-1.839.271-.529.16-.827.719-.667 1.247.16.529.718.827 1.247.667z" fill="#fff"/><path d="m604.965 200c-.552 0-1 .448-1 1s.448 1 1 1h1c.439 0 .861.065 1.259.185.528.16 1.086-.138 1.247-.667.16-.528-.139-1.087-.667-1.247-.584-.176-1.201-.271-1.839-.271z" fill="#fff"/><path d="m596.484 205.075c.16-.529-.139-1.087-.668-1.247-.528-.161-1.086.138-1.247.667-.176.583-.271 1.2-.271 1.838v1c0 .553.448 1 1 1s1-.447 1-1v-1c0-.439.065-.861.186-1.258z" fill="#fff"/><path d="m612.027 204.495c-.16-.529-.719-.828-1.247-.667-.529.16-.827.718-.667 1.247.12.397.185.819.185 1.258v1c0 .553.448 1 1 1s1-.447 1-1v-1c0-.638-.094-1.255-.271-1.838z" fill="#fff"/><path d="m596.298 210.667c0-.553-.448-1-1-1s-1 .447-1 1v1c0 .638.095 1.255.271 1.838.161.529.719.828 1.247.667.529-.16.828-.718.668-1.247-.121-.397-.186-.819-.186-1.258z" fill="#fff"/><path d="m612.298 210.667c0-.553-.448-1-1-1s-1 .447-1 1v1c0 .439-.065.861-.185 1.258-.16.529.138 1.087.667 1.247.528.161 1.087-.138 1.247-.667.177-.583.271-1.2.271-1.838z" fill="#fff"/><path d="m599.373 215.815c-.529-.161-1.087.138-1.247.667-.16.528.138 1.087.667 1.247.583.176 1.201.271 1.839.271h1c.552 0 1-.448 1-1s-.448-1-1-1h-1c-.44 0-.862-.065-1.259-.185z" fill="#fff"/><path d="m607.804 217.729c.528-.16.827-.719.667-1.247-.161-.529-.719-.828-1.247-.667-.398.12-.82.185-1.259.185h-1c-.552 0-1 .448-1 1s.448 1 1 1h1c.638 0 1.255-.095 1.839-.271z" fill="#fff"/></g><rect height="57" rx="28.5" stroke="#019aeb" width="301" x="330" y="180.5"/></svg>