<svg width="824" height="260" viewBox="0 0 824 260" fill="none" xmlns="http://www.w3.org/2000/svg"><rect width="824" height="260" fill="#F1F1F6"/><g clip-path="url(#clip0_342_63685)"><rect x="262" y="27" width="148" height="32" rx="4" fill="#353A40"/><path d="M330 33.75C329.558 33.75 329.138 33.8378 328.756 33.9963C328.374 34.155 327.935 33.9734 327.776 33.5908C327.617 33.2082 327.799 32.7694 328.182 32.6107C328.743 32.378 329.357 32.25 330 32.25H331.5C331.914 32.25 332.25 32.5858 332.25 33C332.25 33.4142 331.914 33.75 331.5 33.75H330Z" fill="#fff"/><path d="M333.75 33C333.75 32.5858 334.086 32.25 334.5 32.25H337.5C337.914 32.25 338.25 32.5858 338.25 33C338.25 33.4142 337.914 33.75 337.5 33.75H334.5C334.086 33.75 333.75 33.4142 333.75 33Z" fill="#fff"/><path d="M339.75 33C339.75 32.5858 340.086 32.25 340.5 32.25H342C342.643 32.25 343.257 32.378 343.818 32.6107C344.201 32.7694 344.383 33.2082 344.224 33.5908C344.065 33.9734 343.626 34.155 343.244 33.9963C342.862 33.8378 342.442 33.75 342 33.75H340.5C340.086 33.75 339.75 33.4142 339.75 33Z" fill="#fff"/><path d="M326.591 34.7761C326.973 34.9347 327.155 35.3735 326.996 35.7561C326.838 36.1383 326.75 36.5579 326.75 37V38.5C326.75 38.9142 326.414 39.25 326 39.25C325.586 39.25 325.25 38.9142 325.25 38.5V37C325.25 36.3573 325.378 35.7427 325.611 35.1816C325.769 34.7989 326.208 34.6174 326.591 34.7761Z" fill="#fff"/><path d="M345.409 34.7761C345.792 34.6174 346.231 34.7989 346.389 35.1816C346.622 35.7427 346.75 36.3573 346.75 37V38.5C346.75 38.9142 346.414 39.25 346 39.25C345.586 39.25 345.25 38.9142 345.25 38.5V37C345.25 36.5579 345.162 36.1383 345.004 35.7561C344.845 35.3735 345.027 34.9347 345.409 34.7761Z" fill="#fff"/><path d="M326 40.75C326.414 40.75 326.75 41.0858 326.75 41.5V44.5C326.75 44.9142 326.414 45.25 326 45.25C325.586 45.25 325.25 44.9142 325.25 44.5V41.5C325.25 41.0858 325.586 40.75 326 40.75Z" fill="#fff"/><path d="M346 40.75C346.414 40.75 346.75 41.0858 346.75 41.5V44.5C346.75 44.9142 346.414 45.25 346 45.25C345.586 45.25 345.25 44.9142 345.25 44.5V41.5C345.25 41.0858 345.586 40.75 346 40.75Z" fill="#fff"/><path d="M326 46.75C326.414 46.75 326.75 47.0858 326.75 47.5V49C326.75 49.4421 326.838 49.8617 326.996 50.2439C327.155 50.6265 326.973 51.0653 326.591 51.2239C326.208 51.3826 325.769 51.2011 325.611 50.8184C325.378 50.2573 325.25 49.6427 325.25 49V47.5C325.25 47.0858 325.586 46.75 326 46.75Z" fill="#fff"/><path d="M346 46.75C346.414 46.75 346.75 47.0858 346.75 47.5V49C346.75 49.6427 346.622 50.2573 346.389 50.8184C346.231 51.2011 345.792 51.3826 345.409 51.2239C345.027 51.0653 344.845 50.6265 345.004 50.2439C345.162 49.8617 345.25 49.4421 345.25 49V47.5C345.25 47.0858 345.586 46.75 346 46.75Z" fill="#fff"/><path d="M327.776 52.4092C327.935 52.0266 328.374 51.845 328.756 52.0037C329.138 52.1622 329.558 52.25 330 52.25H331.5C331.914 52.25 332.25 52.5858 332.25 53C332.25 53.4142 331.914 53.75 331.5 53.75H330C329.357 53.75 328.743 53.622 328.182 53.3893C327.799 53.2306 327.617 52.7918 327.776 52.4092Z" fill="#fff"/><path d="M344.224 52.4092C344.383 52.7918 344.201 53.2306 343.818 53.3893C343.257 53.622 342.643 53.75 342 53.75H340.5C340.086 53.75 339.75 53.4142 339.75 53C339.75 52.5858 340.086 52.25 340.5 52.25H342C342.442 52.25 342.862 52.1622 343.244 52.0037C343.626 51.845 344.065 52.0266 344.224 52.4092Z" fill="#fff"/><path d="M333.75 53C333.75 52.5858 334.086 52.25 334.5 52.25H337.5C337.914 52.25 338.25 52.5858 338.25 53C338.25 53.4142 337.914 53.75 337.5 53.75H334.5C334.086 53.75 333.75 53.4142 333.75 53Z" fill="#fff"/><path d="M344.53 35.591C344.823 35.2981 344.823 34.8232 344.53 34.5303C344.237 34.2374 343.763 34.2374 343.47 34.5303L342.473 35.5265C342.181 35.8194 342.181 36.2943 342.473 36.5872C342.766 36.8801 343.241 36.8801 343.534 36.5872L344.53 35.591Z" fill="#fff"/><path d="M341.542 38.5796C341.835 38.2867 341.835 37.8118 341.542 37.519C341.249 37.2261 340.774 37.2261 340.481 37.519L338.489 39.5114C338.196 39.8043 338.196 40.2791 338.489 40.572C338.782 40.8649 339.256 40.8649 339.549 40.572L341.542 38.5796Z" fill="#fff"/><path d="M337.557 42.5645C337.85 42.2716 337.85 41.7967 337.557 41.5038C337.264 41.2109 336.789 41.2109 336.496 41.5038L336 42L335.504 41.5038C335.211 41.2109 334.736 41.2109 334.443 41.5038C334.15 41.7967 334.15 42.2716 334.443 42.5645L334.939 43.0607L334.504 43.4962C334.211 43.7891 334.211 44.264 334.504 44.5569C334.797 44.8498 335.272 44.8498 335.564 44.5569L336 44.1213L336.436 44.5569C336.728 44.8498 337.203 44.8498 337.496 44.5569C337.789 44.264 337.789 43.7891 337.496 43.4962L337.061 43.0607L337.557 42.5645Z" fill="#fff"/><path d="M333.572 46.5493C333.865 46.2564 333.865 45.7815 333.572 45.4886C333.279 45.1957 332.804 45.1957 332.511 45.4886L330.519 47.481C330.226 47.7739 330.226 48.2488 330.519 48.5417C330.812 48.8346 331.287 48.8346 331.58 48.5417L333.572 46.5493Z" fill="#fff"/><path d="M329.587 50.5341C329.88 50.2412 329.88 49.7664 329.587 49.4735C329.294 49.1806 328.819 49.1806 328.527 49.4735L327.53 50.4697C327.237 50.7626 327.237 51.2374 327.53 51.5303C327.823 51.8232 328.298 51.8232 328.591 51.5303L329.587 50.5341Z" fill="#fff"/><path d="M343.409 51.5303C343.702 51.8232 344.177 51.8232 344.47 51.5303C344.763 51.2374 344.763 50.7626 344.47 50.4697L343.473 49.4735C343.181 49.1806 342.706 49.1806 342.413 49.4735C342.12 49.7664 342.12 50.2412 342.413 50.5341L343.409 51.5303Z" fill="#fff"/><path d="M340.42 48.5417C340.713 48.8346 341.188 48.8346 341.481 48.5417C341.774 48.2488 341.774 47.7739 341.481 47.481L339.489 45.4886C339.196 45.1957 338.721 45.1957 338.428 45.4886C338.135 45.7815 338.135 46.2564 338.428 46.5493L340.42 48.5417Z" fill="#fff"/><path d="M332.451 40.572C332.744 40.8649 333.218 40.8649 333.511 40.572C333.804 40.2791 333.804 39.8043 333.511 39.5114L331.519 37.519C331.226 37.2261 330.751 37.2261 330.458 37.519C330.165 37.8118 330.165 38.2867 330.458 38.5796L332.451 40.572Z" fill="#fff"/><path d="M328.466 36.5872C328.759 36.8801 329.234 36.8801 329.527 36.5872C329.819 36.2943 329.819 35.8194 329.527 35.5265L328.53 34.5303C328.237 34.2374 327.763 34.2374 327.47 34.5303C327.177 34.8232 327.177 35.2981 327.47 35.591L328.466 36.5872Z" fill="#fff"/><path d="M333.056 37.889C333.354 37.7988 333.671 37.75 334 37.75H334.75C335.164 37.75 335.5 37.4142 335.5 37C335.5 36.5858 335.164 36.25 334.75 36.25H334C333.522 36.25 333.058 36.321 332.621 36.4535C332.225 36.5736 332.001 36.9923 332.121 37.3887C332.241 37.7851 332.66 38.0091 333.056 37.889Z" fill="#fff"/><path d="M337.25 36.25C336.836 36.25 336.5 36.5858 336.5 37C336.5 37.4142 336.836 37.75 337.25 37.75H338C338.329 37.75 338.646 37.7988 338.944 37.889C339.34 38.0091 339.759 37.7851 339.879 37.3887C339.999 36.9923 339.775 36.5736 339.379 36.4535C338.942 36.321 338.478 36.25 338 36.25H337.25Z" fill="#fff"/><path d="M330.889 40.0559C331.009 39.6595 330.785 39.2408 330.389 39.1207C329.992 39.0006 329.574 39.2246 329.453 39.621C329.321 40.0583 329.25 40.5216 329.25 41V41.75C329.25 42.1642 329.586 42.5 330 42.5C330.414 42.5 330.75 42.1642 330.75 41.75V41C330.75 40.6705 330.799 40.3538 330.889 40.0559Z" fill="#fff"/><path d="M342.547 39.621C342.426 39.2246 342.008 39.0006 341.611 39.1207C341.215 39.2408 340.991 39.6595 341.111 40.0559C341.201 40.3538 341.25 40.6705 341.25 41V41.75C341.25 42.1642 341.586 42.5 342 42.5C342.414 42.5 342.75 42.1642 342.75 41.75V41C342.75 40.5216 342.679 40.0583 342.547 39.621Z" fill="#fff"/><path d="M330.75 44.25C330.75 43.8358 330.414 43.5 330 43.5C329.586 43.5 329.25 43.8358 329.25 44.25V45C329.25 45.4784 329.321 45.9417 329.453 46.379C329.574 46.7754 329.992 46.9994 330.389 46.8793C330.785 46.7592 331.009 46.3405 330.889 45.9441C330.799 45.6462 330.75 45.3295 330.75 45V44.25Z" fill="#fff"/><path d="M342.75 44.25C342.75 43.8358 342.414 43.5 342 43.5C341.586 43.5 341.25 43.8358 341.25 44.25V45C341.25 45.3295 341.201 45.6462 341.111 45.9441C340.991 46.3405 341.215 46.7592 341.611 46.8793C342.008 46.9994 342.426 46.7754 342.547 46.379C342.679 45.9417 342.75 45.4784 342.75 45V44.25Z" fill="#fff"/><path d="M333.056 48.111C332.66 47.9909 332.241 48.2149 332.121 48.6113C332.001 49.0077 332.225 49.4264 332.621 49.5465C333.058 49.679 333.522 49.75 334 49.75H334.75C335.164 49.75 335.5 49.4142 335.5 49C335.5 48.5858 335.164 48.25 334.75 48.25H334C333.671 48.25 333.354 48.2012 333.056 48.111Z" fill="#fff"/><path d="M339.379 49.5465C339.775 49.4264 339.999 49.0077 339.879 48.6113C339.759 48.2149 339.34 47.9909 338.944 48.111C338.646 48.2012 338.329 48.25 338 48.25H337.25C336.836 48.25 336.5 48.5858 336.5 49C336.5 49.4142 336.836 49.75 337.25 49.75H338C338.478 49.75 338.942 49.679 339.379 49.5465Z" fill="#fff"/><path d="M482 33.75C481.558 33.75 481.138 33.8378 480.756 33.9963C480.374 34.155 479.935 33.9734 479.776 33.5908C479.617 33.2082 479.799 32.7694 480.182 32.6107C480.743 32.378 481.357 32.25 482 32.25H483.5C483.914 32.25 484.25 32.5858 484.25 33C484.25 33.4142 483.914 33.75 483.5 33.75H482Z" fill="#252A2E"/><path d="M485.75 33C485.75 32.5858 486.086 32.25 486.5 32.25H489.5C489.914 32.25 490.25 32.5858 490.25 33C490.25 33.4142 489.914 33.75 489.5 33.75H486.5C486.086 33.75 485.75 33.4142 485.75 33Z" fill="#252A2E"/><path d="M491.75 33C491.75 32.5858 492.086 32.25 492.5 32.25H494C494.643 32.25 495.257 32.378 495.818 32.6107C496.201 32.7694 496.383 33.2082 496.224 33.5908C496.065 33.9734 495.626 34.155 495.244 33.9963C494.862 33.8378 494.442 33.75 494 33.75H492.5C492.086 33.75 491.75 33.4142 491.75 33Z" fill="#252A2E"/><path d="M478.591 34.7761C478.973 34.9347 479.155 35.3735 478.996 35.7561C478.838 36.1383 478.75 36.5579 478.75 37V38.5C478.75 38.9142 478.414 39.25 478 39.25C477.586 39.25 477.25 38.9142 477.25 38.5V37C477.25 36.3573 477.378 35.7427 477.611 35.1816C477.769 34.7989 478.208 34.6174 478.591 34.7761Z" fill="#252A2E"/><path d="M497.409 34.7761C497.792 34.6174 498.231 34.7989 498.389 35.1816C498.622 35.7427 498.75 36.3573 498.75 37V38.5C498.75 38.9142 498.414 39.25 498 39.25C497.586 39.25 497.25 38.9142 497.25 38.5V37C497.25 36.5579 497.162 36.1383 497.004 35.7561C496.845 35.3735 497.027 34.9347 497.409 34.7761Z" fill="#252A2E"/><path d="M478 40.75C478.414 40.75 478.75 41.0858 478.75 41.5V44.5C478.75 44.9142 478.414 45.25 478 45.25C477.586 45.25 477.25 44.9142 477.25 44.5V41.5C477.25 41.0858 477.586 40.75 478 40.75Z" fill="#252A2E"/><path d="M498 40.75C498.414 40.75 498.75 41.0858 498.75 41.5V44.5C498.75 44.9142 498.414 45.25 498 45.25C497.586 45.25 497.25 44.9142 497.25 44.5V41.5C497.25 41.0858 497.586 40.75 498 40.75Z" fill="#252A2E"/><path d="M478 46.75C478.414 46.75 478.75 47.0858 478.75 47.5V49C478.75 49.4421 478.838 49.8617 478.996 50.2439C479.155 50.6265 478.973 51.0653 478.591 51.2239C478.208 51.3826 477.769 51.2011 477.611 50.8184C477.378 50.2573 477.25 49.6427 477.25 49V47.5C477.25 47.0858 477.586 46.75 478 46.75Z" fill="#252A2E"/><path d="M498 46.75C498.414 46.75 498.75 47.0858 498.75 47.5V49C498.75 49.6427 498.622 50.2573 498.389 50.8184C498.231 51.2011 497.792 51.3826 497.409 51.2239C497.027 51.0653 496.845 50.6265 497.004 50.2439C497.162 49.8617 497.25 49.4421 497.25 49V47.5C497.25 47.0858 497.586 46.75 498 46.75Z" fill="#252A2E"/><path d="M479.776 52.4092C479.935 52.0266 480.374 51.845 480.756 52.0037C481.138 52.1622 481.558 52.25 482 52.25H483.5C483.914 52.25 484.25 52.5858 484.25 53C484.25 53.4142 483.914 53.75 483.5 53.75H482C481.357 53.75 480.743 53.622 480.182 53.3893C479.799 53.2306 479.617 52.7918 479.776 52.4092Z" fill="#252A2E"/><path d="M496.224 52.4092C496.383 52.7918 496.201 53.2306 495.818 53.3893C495.257 53.622 494.643 53.75 494 53.75H492.5C492.086 53.75 491.75 53.4142 491.75 53C491.75 52.5858 492.086 52.25 492.5 52.25H494C494.442 52.25 494.862 52.1622 495.244 52.0037C495.626 51.845 496.065 52.0266 496.224 52.4092Z" fill="#252A2E"/><path d="M485.75 53C485.75 52.5858 486.086 52.25 486.5 52.25H489.5C489.914 52.25 490.25 52.5858 490.25 53C490.25 53.4142 489.914 53.75 489.5 53.75H486.5C486.086 53.75 485.75 53.4142 485.75 53Z" fill="#252A2E"/><path d="M496.53 35.591C496.823 35.2981 496.823 34.8232 496.53 34.5303C496.237 34.2374 495.763 34.2374 495.47 34.5303L494.473 35.5265C494.181 35.8194 494.181 36.2943 494.473 36.5872C494.766 36.8801 495.241 36.8801 495.534 36.5872L496.53 35.591Z" fill="#252A2E"/><path d="M493.542 38.5796C493.835 38.2867 493.835 37.8118 493.542 37.519C493.249 37.2261 492.774 37.2261 492.481 37.519L490.489 39.5114C490.196 39.8043 490.196 40.2791 490.489 40.572C490.782 40.8649 491.256 40.8649 491.549 40.572L493.542 38.5796Z" fill="#252A2E"/><path d="M489.557 42.5645C489.85 42.2716 489.85 41.7967 489.557 41.5038C489.264 41.2109 488.789 41.2109 488.496 41.5038L488 42L487.504 41.5038C487.211 41.2109 486.736 41.2109 486.443 41.5038C486.15 41.7967 486.15 42.2716 486.443 42.5645L486.939 43.0607L486.504 43.4962C486.211 43.7891 486.211 44.264 486.504 44.5569C486.797 44.8498 487.272 44.8498 487.564 44.5569L488 44.1213L488.436 44.5569C488.728 44.8498 489.203 44.8498 489.496 44.5569C489.789 44.264 489.789 43.7891 489.496 43.4962L489.061 43.0607L489.557 42.5645Z" fill="#252A2E"/><path d="M485.572 46.5493C485.865 46.2564 485.865 45.7815 485.572 45.4886C485.279 45.1957 484.804 45.1957 484.511 45.4886L482.519 47.481C482.226 47.7739 482.226 48.2488 482.519 48.5417C482.812 48.8346 483.287 48.8346 483.58 48.5417L485.572 46.5493Z" fill="#252A2E"/><path d="M481.587 50.5341C481.88 50.2412 481.88 49.7664 481.587 49.4735C481.294 49.1806 480.819 49.1806 480.527 49.4735L479.53 50.4697C479.237 50.7626 479.237 51.2374 479.53 51.5303C479.823 51.8232 480.298 51.8232 480.591 51.5303L481.587 50.5341Z" fill="#252A2E"/><path d="M495.409 51.5303C495.702 51.8232 496.177 51.8232 496.47 51.5303C496.763 51.2374 496.763 50.7626 496.47 50.4697L495.473 49.4735C495.181 49.1806 494.706 49.1806 494.413 49.4735C494.12 49.7664 494.12 50.2412 494.413 50.5341L495.409 51.5303Z" fill="#252A2E"/><path d="M492.42 48.5417C492.713 48.8346 493.188 48.8346 493.481 48.5417C493.774 48.2488 493.774 47.7739 493.481 47.481L491.489 45.4886C491.196 45.1957 490.721 45.1957 490.428 45.4886C490.135 45.7815 490.135 46.2564 490.428 46.5493L492.42 48.5417Z" fill="#252A2E"/><path d="M484.451 40.572C484.744 40.8649 485.218 40.8649 485.511 40.572C485.804 40.2791 485.804 39.8043 485.511 39.5114L483.519 37.519C483.226 37.2261 482.751 37.2261 482.458 37.519C482.165 37.8118 482.165 38.2867 482.458 38.5796L484.451 40.572Z" fill="#252A2E"/><path d="M480.466 36.5872C480.759 36.8801 481.234 36.8801 481.527 36.5872C481.819 36.2943 481.819 35.8194 481.527 35.5265L480.53 34.5303C480.237 34.2374 479.763 34.2374 479.47 34.5303C479.177 34.8232 479.177 35.2981 479.47 35.591L480.466 36.5872Z" fill="#252A2E"/><path d="M485.056 37.889C485.354 37.7988 485.671 37.75 486 37.75H486.75C487.164 37.75 487.5 37.4142 487.5 37C487.5 36.5858 487.164 36.25 486.75 36.25H486C485.522 36.25 485.058 36.321 484.621 36.4535C484.225 36.5736 484.001 36.9923 484.121 37.3887C484.241 37.7851 484.66 38.0091 485.056 37.889Z" fill="#252A2E"/><path d="M489.25 36.25C488.836 36.25 488.5 36.5858 488.5 37C488.5 37.4142 488.836 37.75 489.25 37.75H490C490.329 37.75 490.646 37.7988 490.944 37.889C491.34 38.0091 491.759 37.7851 491.879 37.3887C491.999 36.9923 491.775 36.5736 491.379 36.4535C490.942 36.321 490.478 36.25 490 36.25H489.25Z" fill="#252A2E"/><path d="M482.889 40.0559C483.009 39.6595 482.785 39.2408 482.389 39.1207C481.992 39.0006 481.574 39.2246 481.453 39.621C481.321 40.0583 481.25 40.5216 481.25 41V41.75C481.25 42.1642 481.586 42.5 482 42.5C482.414 42.5 482.75 42.1642 482.75 41.75V41C482.75 40.6705 482.799 40.3538 482.889 40.0559Z" fill="#252A2E"/><path d="M494.547 39.621C494.426 39.2246 494.008 39.0006 493.611 39.1207C493.215 39.2408 492.991 39.6595 493.111 40.0559C493.201 40.3538 493.25 40.6705 493.25 41V41.75C493.25 42.1642 493.586 42.5 494 42.5C494.414 42.5 494.75 42.1642 494.75 41.75V41C494.75 40.5216 494.679 40.0583 494.547 39.621Z" fill="#252A2E"/><path d="M482.75 44.25C482.75 43.8358 482.414 43.5 482 43.5C481.586 43.5 481.25 43.8358 481.25 44.25V45C481.25 45.4784 481.321 45.9417 481.453 46.379C481.574 46.7754 481.992 46.9994 482.389 46.8793C482.785 46.7592 483.009 46.3405 482.889 45.9441C482.799 45.6462 482.75 45.3295 482.75 45V44.25Z" fill="#252A2E"/><path d="M494.75 44.25C494.75 43.8358 494.414 43.5 494 43.5C493.586 43.5 493.25 43.8358 493.25 44.25V45C493.25 45.3295 493.201 45.6462 493.111 45.9441C492.991 46.3405 493.215 46.7592 493.611 46.8793C494.008 46.9994 494.426 46.7754 494.547 46.379C494.679 45.9417 494.75 45.4784 494.75 45V44.25Z" fill="#252A2E"/><path d="M485.056 48.111C484.66 47.9909 484.241 48.2149 484.121 48.6113C484.001 49.0077 484.225 49.4264 484.621 49.5465C485.058 49.679 485.522 49.75 486 49.75H486.75C487.164 49.75 487.5 49.4142 487.5 49C487.5 48.5858 487.164 48.25 486.75 48.25H486C485.671 48.25 485.354 48.2012 485.056 48.111Z" fill="#252A2E"/><path d="M491.379 49.5465C491.775 49.4264 491.999 49.0077 491.879 48.6113C491.759 48.2149 491.34 47.9909 490.944 48.111C490.646 48.2012 490.329 48.25 490 48.25H489.25C488.836 48.25 488.5 48.5858 488.5 49C488.5 49.4142 488.836 49.75 489.25 49.75H490C490.478 49.75 490.942 49.679 491.379 49.5465Z" fill="#252A2E"/></g><rect x="261.5" y="26.5" width="301" height="33" rx="16.5" stroke="#353A40"/><g clip-path="url(#clip1_342_63685)"><rect x="261" y="68" width="98" height="50" rx="7" fill="#353A40"/><path d="M305.398 93.2734C305.398 94.1536 305.286 94.9557 305.062 95.6797C304.844 96.3984 304.513 97.0182 304.07 97.5391C303.628 98.0547 303.073 98.4531 302.406 98.7344C301.74 99.0156 300.958 99.1562 300.062 99.1562C299.151 99.1562 298.359 99.0156 297.688 98.7344C297.021 98.4531 296.466 98.0521 296.023 97.5312C295.586 97.0104 295.258 96.388 295.039 95.6641C294.82 94.9401 294.711 94.138 294.711 93.2578C294.711 92.0807 294.904 91.0547 295.289 90.1797C295.68 89.2995 296.271 88.6172 297.062 88.1328C297.859 87.6432 298.865 87.3984 300.078 87.3984C301.266 87.3984 302.253 87.6406 303.039 88.125C303.826 88.6094 304.414 89.2917 304.805 90.1719C305.201 91.0469 305.398 92.0807 305.398 93.2734ZM296.68 93.2734C296.68 94.1536 296.799 94.9167 297.039 95.5625C297.279 96.2031 297.646 96.6979 298.141 97.0469C298.641 97.3906 299.281 97.5625 300.062 97.5625C300.849 97.5625 301.49 97.3906 301.984 97.0469C302.479 96.6979 302.844 96.2031 303.078 95.5625C303.312 94.9167 303.43 94.1536 303.43 93.2734C303.43 91.9349 303.161 90.888 302.625 90.1328C302.094 89.3724 301.245 88.9922 300.078 88.9922C299.297 88.9922 298.654 89.1641 298.148 89.5078C297.648 89.8516 297.279 90.3438 297.039 90.9844C296.799 91.6198 296.68 92.3828 296.68 93.2734ZM312.422 90.1875C313.396 90.1875 314.154 90.4401 314.695 90.9453C315.242 91.4453 315.516 92.25 315.516 93.3594V99H313.68V93.7031C313.68 93.0312 313.542 92.5286 313.266 92.1953C312.99 91.8568 312.562 91.6875 311.984 91.6875C311.146 91.6875 310.562 91.9453 310.234 92.4609C309.911 92.9766 309.75 93.724 309.75 94.7031V99H307.914V90.3516H309.344L309.602 91.5234H309.703C309.891 91.2214 310.122 90.974 310.398 90.7812C310.68 90.5833 310.992 90.4349 311.336 90.3359C311.685 90.237 312.047 90.1875 312.422 90.1875ZM321.781 90.1875C322.552 90.1875 323.214 90.3464 323.766 90.6641C324.318 90.9818 324.742 91.4323 325.039 92.0156C325.336 92.599 325.484 93.2969 325.484 94.1094V95.0938H319.711C319.732 95.9323 319.956 96.5781 320.383 97.0312C320.815 97.4844 321.419 97.7109 322.195 97.7109C322.747 97.7109 323.242 97.6589 323.68 97.5547C324.122 97.4453 324.578 97.2865 325.047 97.0781V98.5703C324.615 98.7734 324.174 98.9219 323.727 99.0156C323.279 99.1094 322.742 99.1562 322.117 99.1562C321.268 99.1562 320.521 98.9922 319.875 98.6641C319.234 98.3307 318.732 97.8359 318.367 97.1797C318.008 96.5234 317.828 95.7083 317.828 94.7344C317.828 93.7656 317.992 92.9427 318.32 92.2656C318.648 91.5885 319.109 91.0729 319.703 90.7188C320.297 90.3646 320.99 90.1875 321.781 90.1875ZM321.781 91.5703C321.203 91.5703 320.734 91.7578 320.375 92.1328C320.021 92.5078 319.812 93.0573 319.75 93.7812H323.688C323.682 93.349 323.609 92.9661 323.469 92.6328C323.333 92.2995 323.125 92.0391 322.844 91.8516C322.568 91.6641 322.214 91.5703 321.781 91.5703Z" fill="#fff"/><rect x="261" y="68" width="98" height="50" rx="7" stroke="#353A40" stroke-width="2"/><path d="M399.281 99H397.398V89.1719H394.055V87.5781H402.617V89.1719H399.281V99ZM411.5 98.9922L410.406 94.9688C410.354 94.7708 410.292 94.5312 410.219 94.25C410.146 93.9688 410.073 93.6797 410 93.3828C409.927 93.0807 409.859 92.8021 409.797 92.5469C409.74 92.2917 409.695 92.0938 409.664 91.9531H409.602C409.576 92.0938 409.534 92.2917 409.477 92.5469C409.419 92.8021 409.354 93.0807 409.281 93.3828C409.208 93.6849 409.135 93.9792 409.062 94.2656C408.995 94.5521 408.932 94.7969 408.875 95L407.727 98.9922H405.711L403.289 90.3438H405.148L406.273 94.6406C406.346 94.9323 406.417 95.2474 406.484 95.5859C406.557 95.9245 406.62 96.2474 406.672 96.5547C406.724 96.862 406.763 97.1146 406.789 97.3125H406.852C406.872 97.1719 406.901 96.9948 406.938 96.7812C406.974 96.5625 407.016 96.3359 407.062 96.1016C407.109 95.862 407.156 95.638 407.203 95.4297C407.25 95.2161 407.294 95.0443 407.336 94.9141L408.664 90.3438H410.672L411.945 94.9141C412.003 95.112 412.065 95.362 412.133 95.6641C412.201 95.9609 412.26 96.2604 412.312 96.5625C412.37 96.8594 412.406 97.1068 412.422 97.3047H412.484C412.505 97.1276 412.542 96.888 412.594 96.5859C412.651 96.2786 412.716 95.9531 412.789 95.6094C412.862 95.2604 412.938 94.9375 413.016 94.6406L414.164 90.3438H415.992L413.555 98.9922H411.5ZM425.383 94.6562C425.383 95.375 425.289 96.013 425.102 96.5703C424.914 97.1276 424.641 97.599 424.281 97.9844C423.922 98.3646 423.49 98.6562 422.984 98.8594C422.479 99.0573 421.909 99.1562 421.273 99.1562C420.68 99.1562 420.135 99.0573 419.641 98.8594C419.146 98.6562 418.716 98.3646 418.352 97.9844C417.992 97.599 417.714 97.1276 417.516 96.5703C417.318 96.013 417.219 95.375 417.219 94.6562C417.219 93.7031 417.383 92.8958 417.711 92.2344C418.044 91.5677 418.518 91.0599 419.133 90.7109C419.747 90.362 420.479 90.1875 421.328 90.1875C422.125 90.1875 422.828 90.362 423.438 90.7109C424.047 91.0599 424.523 91.5677 424.867 92.2344C425.211 92.901 425.383 93.7083 425.383 94.6562ZM419.109 94.6562C419.109 95.2865 419.185 95.8255 419.336 96.2734C419.492 96.7214 419.732 97.0651 420.055 97.3047C420.378 97.5391 420.794 97.6562 421.305 97.6562C421.815 97.6562 422.232 97.5391 422.555 97.3047C422.878 97.0651 423.115 96.7214 423.266 96.2734C423.417 95.8255 423.492 95.2865 423.492 94.6562C423.492 94.026 423.417 93.4922 423.266 93.0547C423.115 92.612 422.878 92.276 422.555 92.0469C422.232 91.8125 421.812 91.6953 421.297 91.6953C420.536 91.6953 419.982 91.9505 419.633 92.4609C419.284 92.9714 419.109 93.7031 419.109 94.6562Z" fill="#252A2E"/><line x1="462.5" y1="81" x2="462.5" y2="105" stroke="#B7B9C3"/><path d="M496.68 99H494.797V89.1719H491.453V87.5781H500.016V89.1719H496.68V99ZM503.664 86.8438V89.8984C503.664 90.2161 503.654 90.526 503.633 90.8281C503.617 91.1302 503.599 91.3646 503.578 91.5312H503.68C503.862 91.2292 504.086 90.9818 504.352 90.7891C504.617 90.5911 504.914 90.4427 505.242 90.3438C505.576 90.2448 505.93 90.1953 506.305 90.1953C506.966 90.1953 507.529 90.3073 507.992 90.5312C508.456 90.75 508.81 91.0911 509.055 91.5547C509.305 92.0182 509.43 92.6198 509.43 93.3594V99H507.594V93.7031C507.594 93.0312 507.456 92.5286 507.18 92.1953C506.904 91.8568 506.477 91.6875 505.898 91.6875C505.341 91.6875 504.898 91.8047 504.57 92.0391C504.247 92.2682 504.016 92.6094 503.875 93.0625C503.734 93.5104 503.664 94.0573 503.664 94.7031V99H501.828V86.8438H503.664ZM516.633 90.1875C516.779 90.1875 516.938 90.1953 517.109 90.2109C517.281 90.2266 517.43 90.2474 517.555 90.2734L517.383 91.9922C517.273 91.9609 517.138 91.9375 516.977 91.9219C516.82 91.9062 516.68 91.8984 516.555 91.8984C516.227 91.8984 515.914 91.9531 515.617 92.0625C515.32 92.1667 515.057 92.3281 514.828 92.5469C514.599 92.7604 514.419 93.0286 514.289 93.3516C514.159 93.6745 514.094 94.0495 514.094 94.4766V99H512.25V90.3516H513.688L513.938 91.875H514.023C514.195 91.5677 514.409 91.2865 514.664 91.0312C514.919 90.776 515.211 90.5729 515.539 90.4219C515.872 90.2656 516.237 90.1875 516.633 90.1875ZM522.852 90.1875C523.622 90.1875 524.284 90.3464 524.836 90.6641C525.388 90.9818 525.812 91.4323 526.109 92.0156C526.406 92.599 526.555 93.2969 526.555 94.1094V95.0938H520.781C520.802 95.9323 521.026 96.5781 521.453 97.0312C521.885 97.4844 522.49 97.7109 523.266 97.7109C523.818 97.7109 524.312 97.6589 524.75 97.5547C525.193 97.4453 525.648 97.2865 526.117 97.0781V98.5703C525.685 98.7734 525.245 98.9219 524.797 99.0156C524.349 99.1094 523.812 99.1562 523.188 99.1562C522.339 99.1562 521.591 98.9922 520.945 98.6641C520.305 98.3307 519.802 97.8359 519.438 97.1797C519.078 96.5234 518.898 95.7083 518.898 94.7344C518.898 93.7656 519.062 92.9427 519.391 92.2656C519.719 91.5885 520.18 91.0729 520.773 90.7188C521.367 90.3646 522.06 90.1875 522.852 90.1875ZM522.852 91.5703C522.273 91.5703 521.805 91.7578 521.445 92.1328C521.091 92.5078 520.883 93.0573 520.82 93.7812H524.758C524.753 93.349 524.68 92.9661 524.539 92.6328C524.404 92.2995 524.195 92.0391 523.914 91.8516C523.638 91.6641 523.284 91.5703 522.852 91.5703ZM532.32 90.1875C533.091 90.1875 533.753 90.3464 534.305 90.6641C534.857 90.9818 535.281 91.4323 535.578 92.0156C535.875 92.599 536.023 93.2969 536.023 94.1094V95.0938H530.25C530.271 95.9323 530.495 96.5781 530.922 97.0312C531.354 97.4844 531.958 97.7109 532.734 97.7109C533.286 97.7109 533.781 97.6589 534.219 97.5547C534.661 97.4453 535.117 97.2865 535.586 97.0781V98.5703C535.154 98.7734 534.714 98.9219 534.266 99.0156C533.818 99.1094 533.281 99.1562 532.656 99.1562C531.807 99.1562 531.06 98.9922 530.414 98.6641C529.773 98.3307 529.271 97.8359 528.906 97.1797C528.547 96.5234 528.367 95.7083 528.367 94.7344C528.367 93.7656 528.531 92.9427 528.859 92.2656C529.188 91.5885 529.648 91.0729 530.242 90.7188C530.836 90.3646 531.529 90.1875 532.32 90.1875ZM532.32 91.5703C531.742 91.5703 531.273 91.7578 530.914 92.1328C530.56 92.5078 530.352 93.0573 530.289 93.7812H534.227C534.221 93.349 534.148 92.9661 534.008 92.6328C533.872 92.2995 533.664 92.0391 533.383 91.8516C533.107 91.6641 532.753 91.5703 532.32 91.5703Z" fill="#252A2E"/></g><rect x="261.5" y="68.5" width="301" height="49" rx="8.5" stroke="#353A40"/><g clip-path="url(#clip2_342_63685)"><rect x="261" y="126" width="72" height="42" rx="21" fill="#0063A3"/><path d="M292.398 147.273C292.398 148.154 292.286 148.956 292.062 149.68C291.844 150.398 291.513 151.018 291.07 151.539C290.628 152.055 290.073 152.453 289.406 152.734C288.74 153.016 287.958 153.156 287.062 153.156C286.151 153.156 285.359 153.016 284.688 152.734C284.021 152.453 283.466 152.052 283.023 151.531C282.586 151.01 282.258 150.388 282.039 149.664C281.82 148.94 281.711 148.138 281.711 147.258C281.711 146.081 281.904 145.055 282.289 144.18C282.68 143.299 283.271 142.617 284.062 142.133C284.859 141.643 285.865 141.398 287.078 141.398C288.266 141.398 289.253 141.641 290.039 142.125C290.826 142.609 291.414 143.292 291.805 144.172C292.201 145.047 292.398 146.081 292.398 147.273ZM283.68 147.273C283.68 148.154 283.799 148.917 284.039 149.562C284.279 150.203 284.646 150.698 285.141 151.047C285.641 151.391 286.281 151.562 287.062 151.562C287.849 151.562 288.49 151.391 288.984 151.047C289.479 150.698 289.844 150.203 290.078 149.562C290.312 148.917 290.43 148.154 290.43 147.273C290.43 145.935 290.161 144.888 289.625 144.133C289.094 143.372 288.245 142.992 287.078 142.992C286.297 142.992 285.654 143.164 285.148 143.508C284.648 143.852 284.279 144.344 284.039 144.984C283.799 145.62 283.68 146.383 283.68 147.273ZM299.422 144.188C300.396 144.188 301.154 144.44 301.695 144.945C302.242 145.445 302.516 146.25 302.516 147.359V153H300.68V147.703C300.68 147.031 300.542 146.529 300.266 146.195C299.99 145.857 299.562 145.688 298.984 145.688C298.146 145.688 297.562 145.945 297.234 146.461C296.911 146.977 296.75 147.724 296.75 148.703V153H294.914V144.352H296.344L296.602 145.523H296.703C296.891 145.221 297.122 144.974 297.398 144.781C297.68 144.583 297.992 144.435 298.336 144.336C298.685 144.237 299.047 144.188 299.422 144.188ZM308.781 144.188C309.552 144.188 310.214 144.346 310.766 144.664C311.318 144.982 311.742 145.432 312.039 146.016C312.336 146.599 312.484 147.297 312.484 148.109V149.094H306.711C306.732 149.932 306.956 150.578 307.383 151.031C307.815 151.484 308.419 151.711 309.195 151.711C309.747 151.711 310.242 151.659 310.68 151.555C311.122 151.445 311.578 151.286 312.047 151.078V152.57C311.615 152.773 311.174 152.922 310.727 153.016C310.279 153.109 309.742 153.156 309.117 153.156C308.268 153.156 307.521 152.992 306.875 152.664C306.234 152.331 305.732 151.836 305.367 151.18C305.008 150.523 304.828 149.708 304.828 148.734C304.828 147.766 304.992 146.943 305.32 146.266C305.648 145.589 306.109 145.073 306.703 144.719C307.297 144.365 307.99 144.188 308.781 144.188ZM308.781 145.57C308.203 145.57 307.734 145.758 307.375 146.133C307.021 146.508 306.812 147.057 306.75 147.781H310.688C310.682 147.349 310.609 146.966 310.469 146.633C310.333 146.299 310.125 146.039 309.844 145.852C309.568 145.664 309.214 145.57 308.781 145.57Z" fill="#fff"/><rect x="261" y="126" width="72" height="42" rx="21" stroke="#0063A3" stroke-width="2"/><path d="M360.281 153H358.398V143.172H355.055V141.578H363.617V143.172H360.281V153ZM372.5 152.992L371.406 148.969C371.354 148.771 371.292 148.531 371.219 148.25C371.146 147.969 371.073 147.68 371 147.383C370.927 147.081 370.859 146.802 370.797 146.547C370.74 146.292 370.695 146.094 370.664 145.953H370.602C370.576 146.094 370.534 146.292 370.477 146.547C370.419 146.802 370.354 147.081 370.281 147.383C370.208 147.685 370.135 147.979 370.062 148.266C369.995 148.552 369.932 148.797 369.875 149L368.727 152.992H366.711L364.289 144.344H366.148L367.273 148.641C367.346 148.932 367.417 149.247 367.484 149.586C367.557 149.924 367.62 150.247 367.672 150.555C367.724 150.862 367.763 151.115 367.789 151.312H367.852C367.872 151.172 367.901 150.995 367.938 150.781C367.974 150.562 368.016 150.336 368.062 150.102C368.109 149.862 368.156 149.638 368.203 149.43C368.25 149.216 368.294 149.044 368.336 148.914L369.664 144.344H371.672L372.945 148.914C373.003 149.112 373.065 149.362 373.133 149.664C373.201 149.961 373.26 150.26 373.312 150.562C373.37 150.859 373.406 151.107 373.422 151.305H373.484C373.505 151.128 373.542 150.888 373.594 150.586C373.651 150.279 373.716 149.953 373.789 149.609C373.862 149.26 373.938 148.938 374.016 148.641L375.164 144.344H376.992L374.555 152.992H372.5ZM386.383 148.656C386.383 149.375 386.289 150.013 386.102 150.57C385.914 151.128 385.641 151.599 385.281 151.984C384.922 152.365 384.49 152.656 383.984 152.859C383.479 153.057 382.909 153.156 382.273 153.156C381.68 153.156 381.135 153.057 380.641 152.859C380.146 152.656 379.716 152.365 379.352 151.984C378.992 151.599 378.714 151.128 378.516 150.57C378.318 150.013 378.219 149.375 378.219 148.656C378.219 147.703 378.383 146.896 378.711 146.234C379.044 145.568 379.518 145.06 380.133 144.711C380.747 144.362 381.479 144.188 382.328 144.188C383.125 144.188 383.828 144.362 384.438 144.711C385.047 145.06 385.523 145.568 385.867 146.234C386.211 146.901 386.383 147.708 386.383 148.656ZM380.109 148.656C380.109 149.286 380.185 149.826 380.336 150.273C380.492 150.721 380.732 151.065 381.055 151.305C381.378 151.539 381.794 151.656 382.305 151.656C382.815 151.656 383.232 151.539 383.555 151.305C383.878 151.065 384.115 150.721 384.266 150.273C384.417 149.826 384.492 149.286 384.492 148.656C384.492 148.026 384.417 147.492 384.266 147.055C384.115 146.612 383.878 146.276 383.555 146.047C383.232 145.812 382.812 145.695 382.297 145.695C381.536 145.695 380.982 145.951 380.633 146.461C380.284 146.971 380.109 147.703 380.109 148.656Z" fill="#252A2E"/><line x1="410.5" y1="135" x2="410.5" y2="159" stroke="#B7B9C3"/><path d="M431.68 153H429.797V143.172H426.453V141.578H435.016V143.172H431.68V153ZM438.664 140.844V143.898C438.664 144.216 438.654 144.526 438.633 144.828C438.617 145.13 438.599 145.365 438.578 145.531H438.68C438.862 145.229 439.086 144.982 439.352 144.789C439.617 144.591 439.914 144.443 440.242 144.344C440.576 144.245 440.93 144.195 441.305 144.195C441.966 144.195 442.529 144.307 442.992 144.531C443.456 144.75 443.81 145.091 444.055 145.555C444.305 146.018 444.43 146.62 444.43 147.359V153H442.594V147.703C442.594 147.031 442.456 146.529 442.18 146.195C441.904 145.857 441.477 145.688 440.898 145.688C440.341 145.688 439.898 145.805 439.57 146.039C439.247 146.268 439.016 146.609 438.875 147.062C438.734 147.51 438.664 148.057 438.664 148.703V153H436.828V140.844H438.664ZM451.633 144.188C451.779 144.188 451.938 144.195 452.109 144.211C452.281 144.227 452.43 144.247 452.555 144.273L452.383 145.992C452.273 145.961 452.138 145.938 451.977 145.922C451.82 145.906 451.68 145.898 451.555 145.898C451.227 145.898 450.914 145.953 450.617 146.062C450.32 146.167 450.057 146.328 449.828 146.547C449.599 146.76 449.419 147.029 449.289 147.352C449.159 147.674 449.094 148.049 449.094 148.477V153H447.25V144.352H448.688L448.938 145.875H449.023C449.195 145.568 449.409 145.286 449.664 145.031C449.919 144.776 450.211 144.573 450.539 144.422C450.872 144.266 451.237 144.188 451.633 144.188ZM457.852 144.188C458.622 144.188 459.284 144.346 459.836 144.664C460.388 144.982 460.812 145.432 461.109 146.016C461.406 146.599 461.555 147.297 461.555 148.109V149.094H455.781C455.802 149.932 456.026 150.578 456.453 151.031C456.885 151.484 457.49 151.711 458.266 151.711C458.818 151.711 459.312 151.659 459.75 151.555C460.193 151.445 460.648 151.286 461.117 151.078V152.57C460.685 152.773 460.245 152.922 459.797 153.016C459.349 153.109 458.812 153.156 458.188 153.156C457.339 153.156 456.591 152.992 455.945 152.664C455.305 152.331 454.802 151.836 454.438 151.18C454.078 150.523 453.898 149.708 453.898 148.734C453.898 147.766 454.062 146.943 454.391 146.266C454.719 145.589 455.18 145.073 455.773 144.719C456.367 144.365 457.06 144.188 457.852 144.188ZM457.852 145.57C457.273 145.57 456.805 145.758 456.445 146.133C456.091 146.508 455.883 147.057 455.82 147.781H459.758C459.753 147.349 459.68 146.966 459.539 146.633C459.404 146.299 459.195 146.039 458.914 145.852C458.638 145.664 458.284 145.57 457.852 145.57ZM467.32 144.188C468.091 144.188 468.753 144.346 469.305 144.664C469.857 144.982 470.281 145.432 470.578 146.016C470.875 146.599 471.023 147.297 471.023 148.109V149.094H465.25C465.271 149.932 465.495 150.578 465.922 151.031C466.354 151.484 466.958 151.711 467.734 151.711C468.286 151.711 468.781 151.659 469.219 151.555C469.661 151.445 470.117 151.286 470.586 151.078V152.57C470.154 152.773 469.714 152.922 469.266 153.016C468.818 153.109 468.281 153.156 467.656 153.156C466.807 153.156 466.06 152.992 465.414 152.664C464.773 152.331 464.271 151.836 463.906 151.18C463.547 150.523 463.367 149.708 463.367 148.734C463.367 147.766 463.531 146.943 463.859 146.266C464.188 145.589 464.648 145.073 465.242 144.719C465.836 144.365 466.529 144.188 467.32 144.188ZM467.32 145.57C466.742 145.57 466.273 145.758 465.914 146.133C465.56 146.508 465.352 147.057 465.289 147.781H469.227C469.221 147.349 469.148 146.966 469.008 146.633C468.872 146.299 468.664 146.039 468.383 145.852C468.107 145.664 467.753 145.57 467.32 145.57Z" fill="#252A2E"/><line x1="488.5" y1="135" x2="488.5" y2="159" stroke="#B7B9C3"/><path d="M512.297 153H510.438V141.578H516.891V143.156H512.297V146.719H516.594V148.289H512.297V153ZM526.688 148.656C526.688 149.375 526.594 150.013 526.406 150.57C526.219 151.128 525.945 151.599 525.586 151.984C525.227 152.365 524.794 152.656 524.289 152.859C523.784 153.057 523.214 153.156 522.578 153.156C521.984 153.156 521.44 153.057 520.945 152.859C520.451 152.656 520.021 152.365 519.656 151.984C519.297 151.599 519.018 151.128 518.82 150.57C518.622 150.013 518.523 149.375 518.523 148.656C518.523 147.703 518.688 146.896 519.016 146.234C519.349 145.568 519.823 145.06 520.438 144.711C521.052 144.362 521.784 144.188 522.633 144.188C523.43 144.188 524.133 144.362 524.742 144.711C525.352 145.06 525.828 145.568 526.172 146.234C526.516 146.901 526.688 147.708 526.688 148.656ZM520.414 148.656C520.414 149.286 520.49 149.826 520.641 150.273C520.797 150.721 521.036 151.065 521.359 151.305C521.682 151.539 522.099 151.656 522.609 151.656C523.12 151.656 523.536 151.539 523.859 151.305C524.182 151.065 524.419 150.721 524.57 150.273C524.721 149.826 524.797 149.286 524.797 148.656C524.797 148.026 524.721 147.492 524.57 147.055C524.419 146.612 524.182 146.276 523.859 146.047C523.536 145.812 523.117 145.695 522.602 145.695C521.841 145.695 521.286 145.951 520.938 146.461C520.589 146.971 520.414 147.703 520.414 148.656ZM536.586 144.352V153H535.141L534.891 151.836H534.789C534.607 152.133 534.375 152.38 534.094 152.578C533.812 152.771 533.5 152.914 533.156 153.008C532.812 153.107 532.451 153.156 532.07 153.156C531.419 153.156 530.862 153.047 530.398 152.828C529.94 152.604 529.589 152.26 529.344 151.797C529.099 151.333 528.977 150.734 528.977 150V144.352H530.82V149.656C530.82 150.328 530.956 150.831 531.227 151.164C531.503 151.497 531.93 151.664 532.508 151.664C533.065 151.664 533.508 151.549 533.836 151.32C534.164 151.091 534.396 150.753 534.531 150.305C534.672 149.857 534.742 149.307 534.742 148.656V144.352H536.586ZM543.852 144.188C543.997 144.188 544.156 144.195 544.328 144.211C544.5 144.227 544.648 144.247 544.773 144.273L544.602 145.992C544.492 145.961 544.357 145.938 544.195 145.922C544.039 145.906 543.898 145.898 543.773 145.898C543.445 145.898 543.133 145.953 542.836 146.062C542.539 146.167 542.276 146.328 542.047 146.547C541.818 146.76 541.638 147.029 541.508 147.352C541.378 147.674 541.312 148.049 541.312 148.477V153H539.469V144.352H540.906L541.156 145.875H541.242C541.414 145.568 541.628 145.286 541.883 145.031C542.138 144.776 542.43 144.573 542.758 144.422C543.091 144.266 543.456 144.188 543.852 144.188Z" fill="#252A2E"/></g><rect x="261.5" y="126.5" width="301" height="41" rx="20.5" stroke="#353A40"/><g clip-path="url(#clip3_342_63685)"><rect x="261.5" y="176.5" width="55.4" height="57" rx="4.5" fill="#0063A3"/><path d="M281.199 192.667C280.609 192.667 280.05 192.784 279.54 192.995C279.03 193.207 278.445 192.965 278.233 192.454C278.022 191.944 278.264 191.359 278.774 191.148C279.522 190.837 280.342 190.667 281.199 190.667H283.199C283.751 190.667 284.199 191.114 284.199 191.667C284.199 192.219 283.751 192.667 283.199 192.667H281.199Z" fill="#fff"/><path d="M286.199 191.667C286.199 191.114 286.646 190.667 287.199 190.667H291.199C291.751 190.667 292.199 191.114 292.199 191.667C292.199 192.219 291.751 192.667 291.199 192.667H287.199C286.646 192.667 286.199 192.219 286.199 191.667Z" fill="#fff"/><path d="M294.199 191.667C294.199 191.114 294.646 190.667 295.199 190.667H297.199C298.055 190.667 298.875 190.837 299.623 191.148C300.133 191.359 300.375 191.944 300.164 192.454C299.952 192.965 299.367 193.207 298.857 192.995C298.348 192.784 297.788 192.667 297.199 192.667H295.199C294.646 192.667 294.199 192.219 294.199 191.667Z" fill="#fff"/><path d="M276.653 194.035C277.163 194.246 277.405 194.831 277.194 195.342C276.982 195.851 276.865 196.411 276.865 197V199C276.865 199.552 276.418 200 275.865 200C275.313 200 274.865 199.552 274.865 199V197C274.865 196.143 275.036 195.324 275.346 194.575C275.558 194.065 276.143 193.823 276.653 194.035Z" fill="#fff"/><path d="M301.744 194.035C302.254 193.823 302.839 194.065 303.051 194.575C303.361 195.324 303.532 196.143 303.532 197V199C303.532 199.552 303.084 200 302.532 200C301.98 200 301.532 199.552 301.532 199V197C301.532 196.411 301.415 195.851 301.203 195.342C300.992 194.831 301.234 194.246 301.744 194.035Z" fill="#fff"/><path d="M275.865 202C276.418 202 276.865 202.448 276.865 203V207C276.865 207.552 276.418 208 275.865 208C275.313 208 274.865 207.552 274.865 207V203C274.865 202.448 275.313 202 275.865 202Z" fill="#fff"/><path d="M302.532 202C303.084 202 303.532 202.448 303.532 203V207C303.532 207.552 303.084 208 302.532 208C301.98 208 301.532 207.552 301.532 207V203C301.532 202.448 301.98 202 302.532 202Z" fill="#fff"/><path d="M275.865 210C276.418 210 276.865 210.448 276.865 211V213C276.865 213.589 276.982 214.149 277.194 214.659C277.405 215.169 277.163 215.754 276.653 215.965C276.143 216.177 275.558 215.935 275.346 215.425C275.036 214.676 274.865 213.857 274.865 213V211C274.865 210.448 275.313 210 275.865 210Z" fill="#fff"/><path d="M302.532 210C303.084 210 303.532 210.448 303.532 211V213C303.532 213.857 303.361 214.676 303.051 215.425C302.839 215.935 302.254 216.177 301.744 215.965C301.234 215.754 300.992 215.169 301.203 214.659C301.415 214.149 301.532 213.589 301.532 213V211C301.532 210.448 301.98 210 302.532 210Z" fill="#fff"/><path d="M278.233 217.546C278.445 217.035 279.03 216.793 279.54 217.005C280.05 217.216 280.609 217.333 281.199 217.333H283.199C283.751 217.333 284.199 217.781 284.199 218.333C284.199 218.886 283.751 219.333 283.199 219.333H281.199C280.342 219.333 279.522 219.163 278.774 218.852C278.264 218.641 278.022 218.056 278.233 217.546Z" fill="#fff"/><path d="M300.164 217.546C300.375 218.056 300.133 218.641 299.623 218.852C298.875 219.163 298.055 219.333 297.199 219.333H295.199C294.646 219.333 294.199 218.886 294.199 218.333C294.199 217.781 294.646 217.333 295.199 217.333H297.199C297.788 217.333 298.348 217.216 298.857 217.005C299.367 216.793 299.952 217.035 300.164 217.546Z" fill="#fff"/><path d="M286.199 218.333C286.199 217.781 286.646 217.333 287.199 217.333H291.199C291.751 217.333 292.199 217.781 292.199 218.333C292.199 218.886 291.751 219.333 291.199 219.333H287.199C286.646 219.333 286.199 218.886 286.199 218.333Z" fill="#fff"/><path d="M300.572 195.121C300.963 194.731 300.963 194.098 300.572 193.707C300.182 193.317 299.549 193.317 299.158 193.707L297.83 195.035C297.439 195.426 297.439 196.059 297.83 196.45C298.22 196.84 298.854 196.84 299.244 196.45L300.572 195.121Z" fill="#fff"/><path d="M296.588 199.106C296.978 198.716 296.978 198.082 296.588 197.692C296.197 197.301 295.564 197.301 295.173 197.692L292.517 200.349C292.126 200.739 292.126 201.372 292.517 201.763C292.907 202.153 293.54 202.153 293.931 201.763L296.588 199.106Z" fill="#fff"/><path d="M291.274 204.419C291.665 204.029 291.665 203.396 291.274 203.005C290.884 202.615 290.251 202.615 289.86 203.005L289.199 203.667L288.537 203.005C288.146 202.615 287.513 202.615 287.123 203.005C286.732 203.396 286.732 204.029 287.123 204.419L287.784 205.081L287.204 205.662C286.813 206.052 286.813 206.685 287.204 207.076C287.594 207.466 288.227 207.466 288.618 207.076L289.199 206.495L289.779 207.076C290.17 207.466 290.803 207.466 291.194 207.076C291.584 206.685 291.584 206.052 291.194 205.662L290.613 205.081L291.274 204.419Z" fill="#fff"/><path d="M285.961 209.732C286.352 209.342 286.352 208.709 285.961 208.318C285.571 207.928 284.938 207.928 284.547 208.318L281.891 210.975C281.5 211.365 281.5 211.998 281.891 212.389C282.281 212.779 282.914 212.779 283.305 212.389L285.961 209.732Z" fill="#fff"/><path d="M280.648 215.046C281.039 214.655 281.039 214.022 280.648 213.631C280.258 213.241 279.624 213.241 279.234 213.631L277.906 214.96C277.515 215.35 277.515 215.983 277.906 216.374C278.296 216.764 278.929 216.764 279.32 216.374L280.648 215.046Z" fill="#fff"/><path d="M299.077 216.374C299.468 216.764 300.101 216.764 300.491 216.374C300.882 215.983 300.882 215.35 300.491 214.96L299.163 213.631C298.773 213.241 298.139 213.241 297.749 213.631C297.358 214.022 297.358 214.655 297.749 215.046L299.077 216.374Z" fill="#fff"/><path d="M295.092 212.389C295.483 212.779 296.116 212.779 296.507 212.389C296.897 211.998 296.897 211.365 296.507 210.975L293.85 208.318C293.46 207.928 292.826 207.928 292.436 208.318C292.045 208.709 292.045 209.342 292.436 209.732L295.092 212.389Z" fill="#fff"/><path d="M284.466 201.763C284.857 202.153 285.49 202.153 285.88 201.763C286.271 201.372 286.271 200.739 285.88 200.349L283.224 197.692C282.833 197.301 282.2 197.301 281.81 197.692C281.419 198.082 281.419 198.716 281.81 199.106L284.466 201.763Z" fill="#fff"/><path d="M279.153 196.45C279.544 196.84 280.177 196.84 280.567 196.45C280.958 196.059 280.958 195.426 280.567 195.035L279.239 193.707C278.848 193.317 278.215 193.317 277.825 193.707C277.434 194.098 277.434 194.731 277.825 195.121L279.153 196.45Z" fill="#fff"/><path d="M285.273 198.185C285.67 198.065 286.093 198 286.532 198H287.532C288.084 198 288.532 197.552 288.532 197C288.532 196.448 288.084 196 287.532 196H286.532C285.894 196 285.276 196.095 284.693 196.271C284.165 196.431 283.866 196.99 284.026 197.518C284.186 198.047 284.745 198.346 285.273 198.185Z" fill="#fff"/><path d="M290.865 196C290.313 196 289.865 196.448 289.865 197C289.865 197.552 290.313 198 290.865 198H291.865C292.305 198 292.727 198.065 293.124 198.185C293.653 198.346 294.211 198.047 294.371 197.518C294.531 196.99 294.232 196.431 293.704 196.271C293.121 196.095 292.503 196 291.865 196H290.865Z" fill="#fff"/><path d="M282.384 201.075C282.544 200.546 282.245 199.988 281.717 199.828C281.188 199.667 280.63 199.966 280.47 200.495C280.293 201.078 280.199 201.695 280.199 202.333V203.333C280.199 203.886 280.646 204.333 281.199 204.333C281.751 204.333 282.199 203.886 282.199 203.333V202.333C282.199 201.894 282.264 201.472 282.384 201.075Z" fill="#fff"/><path d="M297.927 200.495C297.767 199.966 297.209 199.667 296.68 199.828C296.152 199.988 295.853 200.546 296.013 201.075C296.134 201.472 296.199 201.894 296.199 202.333V203.333C296.199 203.886 296.646 204.333 297.199 204.333C297.751 204.333 298.199 203.886 298.199 203.333V202.333C298.199 201.695 298.104 201.078 297.927 200.495Z" fill="#fff"/><path d="M282.199 206.667C282.199 206.114 281.751 205.667 281.199 205.667C280.646 205.667 280.199 206.114 280.199 206.667V207.667C280.199 208.305 280.293 208.922 280.47 209.505C280.63 210.034 281.188 210.333 281.717 210.172C282.245 210.012 282.544 209.454 282.384 208.925C282.264 208.528 282.199 208.106 282.199 207.667V206.667Z" fill="#fff"/><path d="M298.199 206.667C298.199 206.114 297.751 205.667 297.199 205.667C296.646 205.667 296.199 206.114 296.199 206.667V207.667C296.199 208.106 296.134 208.528 296.013 208.925C295.853 209.454 296.152 210.012 296.68 210.172C297.209 210.333 297.767 210.034 297.927 209.505C298.104 208.922 298.199 208.305 298.199 207.667V206.667Z" fill="#fff"/><path d="M285.273 211.815C284.745 211.655 284.186 211.953 284.026 212.482C283.866 213.01 284.165 213.569 284.693 213.729C285.276 213.905 285.894 214 286.532 214H287.532C288.084 214 288.532 213.552 288.532 213C288.532 212.448 288.084 212 287.532 212H286.532C286.093 212 285.67 211.935 285.273 211.815Z" fill="#fff"/><path d="M293.704 213.729C294.232 213.569 294.531 213.01 294.371 212.482C294.211 211.953 293.653 211.655 293.124 211.815C292.727 211.935 292.305 212 291.865 212H290.865C290.313 212 289.865 212.448 289.865 213C289.865 213.552 290.313 214 290.865 214H291.865C292.503 214 293.121 213.905 293.704 213.729Z" fill="#fff"/><rect x="261.5" y="176.5" width="55.4" height="57" rx="4.5" stroke="#0063A3"/><path d="M339.599 192.667C339.01 192.667 338.45 192.784 337.94 192.995C337.43 193.207 336.845 192.965 336.634 192.454C336.422 191.944 336.664 191.359 337.174 191.148C337.923 190.837 338.742 190.667 339.599 190.667H341.599C342.151 190.667 342.599 191.114 342.599 191.667C342.599 192.219 342.151 192.667 341.599 192.667H339.599Z" fill="#252A2E"/><path d="M344.599 191.667C344.599 191.114 345.047 190.667 345.599 190.667H349.599C350.151 190.667 350.599 191.114 350.599 191.667C350.599 192.219 350.151 192.667 349.599 192.667H345.599C345.047 192.667 344.599 192.219 344.599 191.667Z" fill="#252A2E"/><path d="M352.599 191.667C352.599 191.114 353.047 190.667 353.599 190.667H355.599C356.456 190.667 357.275 190.837 358.024 191.148C358.534 191.359 358.776 191.944 358.564 192.454C358.353 192.965 357.768 193.207 357.257 192.995C356.748 192.784 356.188 192.667 355.599 192.667H353.599C353.047 192.667 352.599 192.219 352.599 191.667Z" fill="#252A2E"/><path d="M335.053 194.035C335.564 194.246 335.806 194.831 335.594 195.342C335.383 195.851 335.266 196.411 335.266 197V199C335.266 199.552 334.818 200 334.266 200C333.713 200 333.266 199.552 333.266 199V197C333.266 196.143 333.436 195.324 333.747 194.575C333.958 194.065 334.543 193.823 335.053 194.035Z" fill="#252A2E"/><path d="M360.145 194.035C360.655 193.823 361.24 194.065 361.451 194.575C361.762 195.324 361.932 196.143 361.932 197V199C361.932 199.552 361.485 200 360.932 200C360.38 200 359.932 199.552 359.932 199V197C359.932 196.411 359.815 195.851 359.604 195.342C359.392 194.831 359.634 194.246 360.145 194.035Z" fill="#252A2E"/><path d="M334.266 202C334.818 202 335.266 202.448 335.266 203V207C335.266 207.552 334.818 208 334.266 208C333.713 208 333.266 207.552 333.266 207V203C333.266 202.448 333.713 202 334.266 202Z" fill="#252A2E"/><path d="M360.932 202C361.485 202 361.932 202.448 361.932 203V207C361.932 207.552 361.485 208 360.932 208C360.38 208 359.932 207.552 359.932 207V203C359.932 202.448 360.38 202 360.932 202Z" fill="#252A2E"/><path d="M334.266 210C334.818 210 335.266 210.448 335.266 211V213C335.266 213.589 335.383 214.149 335.594 214.659C335.806 215.169 335.564 215.754 335.053 215.965C334.543 216.177 333.958 215.935 333.747 215.425C333.436 214.676 333.266 213.857 333.266 213V211C333.266 210.448 333.713 210 334.266 210Z" fill="#252A2E"/><path d="M360.932 210C361.485 210 361.932 210.448 361.932 211V213C361.932 213.857 361.762 214.676 361.451 215.425C361.24 215.935 360.655 216.177 360.145 215.965C359.634 215.754 359.392 215.169 359.604 214.659C359.815 214.149 359.932 213.589 359.932 213V211C359.932 210.448 360.38 210 360.932 210Z" fill="#252A2E"/><path d="M336.634 217.546C336.845 217.035 337.43 216.793 337.94 217.005C338.45 217.216 339.01 217.333 339.599 217.333H341.599C342.151 217.333 342.599 217.781 342.599 218.333C342.599 218.886 342.151 219.333 341.599 219.333H339.599C338.742 219.333 337.923 219.163 337.174 218.852C336.664 218.641 336.422 218.056 336.634 217.546Z" fill="#252A2E"/><path d="M358.564 217.546C358.776 218.056 358.534 218.641 358.024 218.852C357.275 219.163 356.456 219.333 355.599 219.333H353.599C353.047 219.333 352.599 218.886 352.599 218.333C352.599 217.781 353.047 217.333 353.599 217.333H355.599C356.188 217.333 356.748 217.216 357.257 217.005C357.768 216.793 358.353 217.035 358.564 217.546Z" fill="#252A2E"/><path d="M344.599 218.333C344.599 217.781 345.047 217.333 345.599 217.333H349.599C350.151 217.333 350.599 217.781 350.599 218.333C350.599 218.886 350.151 219.333 349.599 219.333H345.599C345.047 219.333 344.599 218.886 344.599 218.333Z" fill="#252A2E"/><path d="M358.973 195.121C359.363 194.731 359.363 194.098 358.973 193.707C358.582 193.317 357.949 193.317 357.559 193.707L356.23 195.035C355.84 195.426 355.84 196.059 356.23 196.45C356.621 196.84 357.254 196.84 357.644 196.45L358.973 195.121Z" fill="#252A2E"/><path d="M354.988 199.106C355.378 198.716 355.378 198.082 354.988 197.692C354.597 197.301 353.964 197.301 353.574 197.692L350.917 200.349C350.527 200.739 350.527 201.372 350.917 201.763C351.308 202.153 351.941 202.153 352.331 201.763L354.988 199.106Z" fill="#252A2E"/><path d="M349.675 204.419C350.065 204.029 350.065 203.396 349.675 203.005C349.284 202.615 348.651 202.615 348.261 203.005L347.599 203.667L346.937 203.005C346.547 202.615 345.914 202.615 345.523 203.005C345.133 203.396 345.133 204.029 345.523 204.419L346.185 205.081L345.604 205.662C345.213 206.052 345.213 206.685 345.604 207.076C345.995 207.466 346.628 207.466 347.018 207.076L347.599 206.495L348.18 207.076C348.57 207.466 349.203 207.466 349.594 207.076C349.984 206.685 349.984 206.052 349.594 205.662L349.013 205.081L349.675 204.419Z" fill="#252A2E"/><path d="M344.362 209.732C344.752 209.342 344.752 208.709 344.362 208.318C343.971 207.928 343.338 207.928 342.947 208.318L340.291 210.975C339.9 211.365 339.9 211.998 340.291 212.389C340.681 212.779 341.315 212.779 341.705 212.389L344.362 209.732Z" fill="#252A2E"/><path d="M339.049 215.046C339.439 214.655 339.439 214.022 339.049 213.631C338.658 213.241 338.025 213.241 337.634 213.631L336.306 214.96C335.916 215.35 335.916 215.983 336.306 216.374C336.697 216.764 337.33 216.764 337.72 216.374L339.049 215.046Z" fill="#252A2E"/><path d="M357.478 216.374C357.868 216.764 358.501 216.764 358.892 216.374C359.282 215.983 359.282 215.35 358.892 214.96L357.564 213.631C357.173 213.241 356.54 213.241 356.149 213.631C355.759 214.022 355.759 214.655 356.149 215.046L357.478 216.374Z" fill="#252A2E"/><path d="M353.493 212.389C353.883 212.779 354.516 212.779 354.907 212.389C355.298 211.998 355.298 211.365 354.907 210.975L352.25 208.318C351.86 207.928 351.227 207.928 350.836 208.318C350.446 208.709 350.446 209.342 350.836 209.732L353.493 212.389Z" fill="#252A2E"/><path d="M342.867 201.763C343.257 202.153 343.89 202.153 344.281 201.763C344.671 201.372 344.671 200.739 344.281 200.349L341.624 197.692C341.234 197.301 340.601 197.301 340.21 197.692C339.819 198.082 339.819 198.716 340.21 199.106L342.867 201.763Z" fill="#252A2E"/><path d="M337.553 196.45C337.944 196.84 338.577 196.84 338.968 196.45C339.358 196.059 339.358 195.426 338.968 195.035L337.639 193.707C337.249 193.317 336.616 193.317 336.225 193.707C335.835 194.098 335.835 194.731 336.225 195.121L337.553 196.45Z" fill="#252A2E"/><path d="M343.674 198.185C344.071 198.065 344.493 198 344.932 198H345.932C346.485 198 346.932 197.552 346.932 197C346.932 196.448 346.485 196 345.932 196H344.932C344.294 196 343.677 196.095 343.094 196.271C342.565 196.431 342.266 196.99 342.427 197.518C342.587 198.047 343.145 198.346 343.674 198.185Z" fill="#252A2E"/><path d="M349.266 196C348.713 196 348.266 196.448 348.266 197C348.266 197.552 348.713 198 349.266 198H350.266C350.705 198 351.127 198.065 351.524 198.185C352.053 198.346 352.611 198.047 352.771 197.518C352.932 196.99 352.633 196.431 352.104 196.271C351.521 196.095 350.904 196 350.266 196H349.266Z" fill="#252A2E"/><path d="M340.784 201.075C340.944 200.546 340.646 199.988 340.117 199.828C339.589 199.667 339.03 199.966 338.87 200.495C338.694 201.078 338.599 201.695 338.599 202.333V203.333C338.599 203.886 339.047 204.333 339.599 204.333C340.151 204.333 340.599 203.886 340.599 203.333V202.333C340.599 201.894 340.664 201.472 340.784 201.075Z" fill="#252A2E"/><path d="M356.328 200.495C356.168 199.966 355.609 199.667 355.081 199.828C354.552 199.988 354.253 200.546 354.414 201.075C354.534 201.472 354.599 201.894 354.599 202.333V203.333C354.599 203.886 355.047 204.333 355.599 204.333C356.151 204.333 356.599 203.886 356.599 203.333V202.333C356.599 201.695 356.504 201.078 356.328 200.495Z" fill="#252A2E"/><path d="M340.599 206.667C340.599 206.114 340.151 205.667 339.599 205.667C339.047 205.667 338.599 206.114 338.599 206.667V207.667C338.599 208.305 338.694 208.922 338.87 209.505C339.03 210.034 339.589 210.333 340.117 210.172C340.646 210.012 340.944 209.454 340.784 208.925C340.664 208.528 340.599 208.106 340.599 207.667V206.667Z" fill="#252A2E"/><path d="M356.599 206.667C356.599 206.114 356.151 205.667 355.599 205.667C355.047 205.667 354.599 206.114 354.599 206.667V207.667C354.599 208.106 354.534 208.528 354.414 208.925C354.253 209.454 354.552 210.012 355.081 210.172C355.609 210.333 356.168 210.034 356.328 209.505C356.504 208.922 356.599 208.305 356.599 207.667V206.667Z" fill="#252A2E"/><path d="M343.674 211.815C343.145 211.655 342.587 211.953 342.427 212.482C342.266 213.01 342.565 213.569 343.094 213.729C343.677 213.905 344.294 214 344.932 214H345.932C346.485 214 346.932 213.552 346.932 213C346.932 212.448 346.485 212 345.932 212H344.932C344.493 212 344.071 211.935 343.674 211.815Z" fill="#252A2E"/><path d="M352.104 213.729C352.633 213.569 352.932 213.01 352.771 212.482C352.611 211.953 352.053 211.655 351.524 211.815C351.127 211.935 350.705 212 350.266 212H349.266C348.713 212 348.266 212.448 348.266 213C348.266 213.552 348.713 214 349.266 214H350.266C350.904 214 351.521 213.905 352.104 213.729Z" fill="#252A2E"/><line x1="379.301" y1="193" x2="379.301" y2="217" stroke="#B7B9C3"/><path d="M401.999 192.667C401.41 192.667 400.85 192.784 400.341 192.995C399.831 193.207 399.246 192.965 399.034 192.454C398.823 191.944 399.065 191.359 399.575 191.148C400.323 190.837 401.142 190.667 401.999 190.667H403.999C404.552 190.667 404.999 191.114 404.999 191.667C404.999 192.219 404.552 192.667 403.999 192.667H401.999Z" fill="#252A2E"/><path d="M406.999 191.667C406.999 191.114 407.447 190.667 407.999 190.667H411.999C412.552 190.667 412.999 191.114 412.999 191.667C412.999 192.219 412.552 192.667 411.999 192.667H407.999C407.447 192.667 406.999 192.219 406.999 191.667Z" fill="#252A2E"/><path d="M414.999 191.667C414.999 191.114 415.447 190.667 415.999 190.667H417.999C418.856 190.667 419.676 190.837 420.424 191.148C420.934 191.359 421.176 191.944 420.965 192.454C420.753 192.965 420.168 193.207 419.658 192.995C419.148 192.784 418.589 192.667 417.999 192.667H415.999C415.447 192.667 414.999 192.219 414.999 191.667Z" fill="#252A2E"/><path d="M397.454 194.035C397.964 194.246 398.206 194.831 397.994 195.342C397.783 195.851 397.666 196.411 397.666 197V199C397.666 199.552 397.218 200 396.666 200C396.114 200 395.666 199.552 395.666 199V197C395.666 196.143 395.837 195.324 396.147 194.575C396.359 194.065 396.944 193.823 397.454 194.035Z" fill="#252A2E"/><path d="M422.545 194.035C423.055 193.823 423.64 194.065 423.852 194.575C424.162 195.324 424.333 196.143 424.333 197V199C424.333 199.552 423.885 200 423.333 200C422.78 200 422.333 199.552 422.333 199V197C422.333 196.411 422.216 195.851 422.004 195.342C421.793 194.831 422.035 194.246 422.545 194.035Z" fill="#252A2E"/><path d="M396.666 202C397.218 202 397.666 202.448 397.666 203V207C397.666 207.552 397.218 208 396.666 208C396.114 208 395.666 207.552 395.666 207V203C395.666 202.448 396.114 202 396.666 202Z" fill="#252A2E"/><path d="M423.333 202C423.885 202 424.333 202.448 424.333 203V207C424.333 207.552 423.885 208 423.333 208C422.78 208 422.333 207.552 422.333 207V203C422.333 202.448 422.78 202 423.333 202Z" fill="#252A2E"/><path d="M396.666 210C397.218 210 397.666 210.448 397.666 211V213C397.666 213.589 397.783 214.149 397.994 214.659C398.206 215.169 397.964 215.754 397.454 215.965C396.944 216.177 396.359 215.935 396.147 215.425C395.837 214.676 395.666 213.857 395.666 213V211C395.666 210.448 396.114 210 396.666 210Z" fill="#252A2E"/><path d="M423.333 210C423.885 210 424.333 210.448 424.333 211V213C424.333 213.857 424.162 214.676 423.852 215.425C423.64 215.935 423.055 216.177 422.545 215.965C422.035 215.754 421.793 215.169 422.004 214.659C422.216 214.149 422.333 213.589 422.333 213V211C422.333 210.448 422.78 210 423.333 210Z" fill="#252A2E"/><path d="M399.034 217.546C399.246 217.035 399.831 216.793 400.341 217.005C400.85 217.216 401.41 217.333 401.999 217.333H403.999C404.552 217.333 404.999 217.781 404.999 218.333C404.999 218.886 404.552 219.333 403.999 219.333H401.999C401.142 219.333 400.323 219.163 399.575 218.852C399.065 218.641 398.823 218.056 399.034 217.546Z" fill="#252A2E"/><path d="M420.965 217.546C421.176 218.056 420.934 218.641 420.424 218.852C419.676 219.163 418.856 219.333 417.999 219.333H415.999C415.447 219.333 414.999 218.886 414.999 218.333C414.999 217.781 415.447 217.333 415.999 217.333H417.999C418.589 217.333 419.148 217.216 419.658 217.005C420.168 216.793 420.753 217.035 420.965 217.546Z" fill="#252A2E"/><path d="M406.999 218.333C406.999 217.781 407.447 217.333 407.999 217.333H411.999C412.552 217.333 412.999 217.781 412.999 218.333C412.999 218.886 412.552 219.333 411.999 219.333H407.999C407.447 219.333 406.999 218.886 406.999 218.333Z" fill="#252A2E"/><path d="M421.373 195.121C421.764 194.731 421.764 194.098 421.373 193.707C420.983 193.317 420.349 193.317 419.959 193.707L418.631 195.035C418.24 195.426 418.24 196.059 418.631 196.45C419.021 196.84 419.654 196.84 420.045 196.45L421.373 195.121Z" fill="#252A2E"/><path d="M417.388 199.106C417.779 198.716 417.779 198.082 417.388 197.692C416.998 197.301 416.365 197.301 415.974 197.692L413.318 200.349C412.927 200.739 412.927 201.372 413.318 201.763C413.708 202.153 414.341 202.153 414.732 201.763L417.388 199.106Z" fill="#252A2E"/><path d="M412.075 204.419C412.466 204.029 412.466 203.396 412.075 203.005C411.685 202.615 411.051 202.615 410.661 203.005L409.999 203.667L409.338 203.005C408.947 202.615 408.314 202.615 407.924 203.005C407.533 203.396 407.533 204.029 407.924 204.419L408.585 205.081L408.004 205.662C407.614 206.052 407.614 206.685 408.004 207.076C408.395 207.466 409.028 207.466 409.419 207.076L409.999 206.495L410.58 207.076C410.971 207.466 411.604 207.466 411.994 207.076C412.385 206.685 412.385 206.052 411.994 205.662L411.414 205.081L412.075 204.419Z" fill="#252A2E"/><path d="M406.762 209.732C407.153 209.342 407.153 208.709 406.762 208.318C406.372 207.928 405.738 207.928 405.348 208.318L402.691 210.975C402.301 211.365 402.301 211.998 402.691 212.389C403.082 212.779 403.715 212.779 404.106 212.389L406.762 209.732Z" fill="#252A2E"/><path d="M401.449 215.046C401.839 214.655 401.839 214.022 401.449 213.631C401.058 213.241 400.425 213.241 400.035 213.631L398.706 214.96C398.316 215.35 398.316 215.983 398.706 216.374C399.097 216.764 399.73 216.764 400.121 216.374L401.449 215.046Z" fill="#252A2E"/><path d="M419.878 216.374C420.269 216.764 420.902 216.764 421.292 216.374C421.683 215.983 421.683 215.35 421.292 214.96L419.964 213.631C419.573 213.241 418.94 213.241 418.55 213.631C418.159 214.022 418.159 214.655 418.55 215.046L419.878 216.374Z" fill="#252A2E"/><path d="M415.893 212.389C416.284 212.779 416.917 212.779 417.307 212.389C417.698 211.998 417.698 211.365 417.307 210.975L414.651 208.318C414.26 207.928 413.627 207.928 413.237 208.318C412.846 208.709 412.846 209.342 413.237 209.732L415.893 212.389Z" fill="#252A2E"/><path d="M405.267 201.763C405.657 202.153 406.291 202.153 406.681 201.763C407.072 201.372 407.072 200.739 406.681 200.349L404.025 197.692C403.634 197.301 403.001 197.301 402.61 197.692C402.22 198.082 402.22 198.716 402.61 199.106L405.267 201.763Z" fill="#252A2E"/><path d="M399.954 196.45C400.344 196.84 400.978 196.84 401.368 196.45C401.759 196.059 401.759 195.426 401.368 195.035L400.04 193.707C399.649 193.317 399.016 193.317 398.626 193.707C398.235 194.098 398.235 194.731 398.626 195.121L399.954 196.45Z" fill="#252A2E"/><path d="M406.074 198.185C406.471 198.065 406.893 198 407.333 198H408.333C408.885 198 409.333 197.552 409.333 197C409.333 196.448 408.885 196 408.333 196H407.333C406.695 196 406.077 196.095 405.494 196.271C404.965 196.431 404.667 196.99 404.827 197.518C404.987 198.047 405.545 198.346 406.074 198.185Z" fill="#252A2E"/><path d="M411.666 196C411.114 196 410.666 196.448 410.666 197C410.666 197.552 411.114 198 411.666 198H412.666C413.105 198 413.528 198.065 413.925 198.185C414.453 198.346 415.012 198.047 415.172 197.518C415.332 196.99 415.033 196.431 414.505 196.271C413.922 196.095 413.304 196 412.666 196H411.666Z" fill="#252A2E"/><path d="M403.185 201.075C403.345 200.546 403.046 199.988 402.518 199.828C401.989 199.667 401.431 199.966 401.271 200.495C401.094 201.078 400.999 201.695 400.999 202.333V203.333C400.999 203.886 401.447 204.333 401.999 204.333C402.552 204.333 402.999 203.886 402.999 203.333V202.333C402.999 201.894 403.064 201.472 403.185 201.075Z" fill="#252A2E"/><path d="M418.728 200.495C418.568 199.966 418.01 199.667 417.481 199.828C416.952 199.988 416.654 200.546 416.814 201.075C416.934 201.472 416.999 201.894 416.999 202.333V203.333C416.999 203.886 417.447 204.333 417.999 204.333C418.552 204.333 418.999 203.886 418.999 203.333V202.333C418.999 201.695 418.905 201.078 418.728 200.495Z" fill="#252A2E"/><path d="M402.999 206.667C402.999 206.114 402.552 205.667 401.999 205.667C401.447 205.667 400.999 206.114 400.999 206.667V207.667C400.999 208.305 401.094 208.922 401.271 209.505C401.431 210.034 401.989 210.333 402.518 210.172C403.046 210.012 403.345 209.454 403.185 208.925C403.064 208.528 402.999 208.106 402.999 207.667V206.667Z" fill="#252A2E"/><path d="M418.999 206.667C418.999 206.114 418.552 205.667 417.999 205.667C417.447 205.667 416.999 206.114 416.999 206.667V207.667C416.999 208.106 416.934 208.528 416.814 208.925C416.654 209.454 416.952 210.012 417.481 210.172C418.01 210.333 418.568 210.034 418.728 209.505C418.905 208.922 418.999 208.305 418.999 207.667V206.667Z" fill="#252A2E"/><path d="M406.074 211.815C405.545 211.655 404.987 211.953 404.827 212.482C404.667 213.01 404.965 213.569 405.494 213.729C406.077 213.905 406.695 214 407.333 214H408.333C408.885 214 409.333 213.552 409.333 213C409.333 212.448 408.885 212 408.333 212H407.333C406.893 212 406.471 211.935 406.074 211.815Z" fill="#252A2E"/><path d="M414.505 213.729C415.033 213.569 415.332 213.01 415.172 212.482C415.012 211.953 414.453 211.655 413.925 211.815C413.528 211.935 413.105 212 412.666 212H411.666C411.114 212 410.666 212.448 410.666 213C410.666 213.552 411.114 214 411.666 214H412.666C413.304 214 413.922 213.905 414.505 213.729Z" fill="#252A2E"/><line x1="441.699" y1="193" x2="441.699" y2="217" stroke="#B7B9C3"/><path d="M464.398 192.667C463.808 192.667 463.249 192.784 462.739 192.995C462.229 193.207 461.644 192.965 461.433 192.454C461.221 191.944 461.463 191.359 461.973 191.148C462.721 190.837 463.541 190.667 464.398 190.667H466.398C466.95 190.667 467.398 191.114 467.398 191.667C467.398 192.219 466.95 192.667 466.398 192.667H464.398Z" fill="#252A2E"/><path d="M469.398 191.667C469.398 191.114 469.846 190.667 470.398 190.667H474.398C474.95 190.667 475.398 191.114 475.398 191.667C475.398 192.219 474.95 192.667 474.398 192.667H470.398C469.846 192.667 469.398 192.219 469.398 191.667Z" fill="#252A2E"/><path d="M477.398 191.667C477.398 191.114 477.846 190.667 478.398 190.667H480.398C481.255 190.667 482.074 190.837 482.822 191.148C483.333 191.359 483.575 191.944 483.363 192.454C483.151 192.965 482.566 193.207 482.056 192.995C481.547 192.784 480.987 192.667 480.398 192.667H478.398C477.846 192.667 477.398 192.219 477.398 191.667Z" fill="#252A2E"/><path d="M459.852 194.035C460.362 194.246 460.604 194.831 460.393 195.342C460.182 195.851 460.064 196.411 460.064 197V199C460.064 199.552 459.617 200 459.064 200C458.512 200 458.064 199.552 458.064 199V197C458.064 196.143 458.235 195.324 458.545 194.575C458.757 194.065 459.342 193.823 459.852 194.035Z" fill="#252A2E"/><path d="M484.943 194.035C485.454 193.823 486.039 194.065 486.25 194.575C486.56 195.324 486.731 196.143 486.731 197V199C486.731 199.552 486.283 200 485.731 200C485.179 200 484.731 199.552 484.731 199V197C484.731 196.411 484.614 195.851 484.403 195.342C484.191 194.831 484.433 194.246 484.943 194.035Z" fill="#252A2E"/><path d="M459.064 202C459.617 202 460.064 202.448 460.064 203V207C460.064 207.552 459.617 208 459.064 208C458.512 208 458.064 207.552 458.064 207V203C458.064 202.448 458.512 202 459.064 202Z" fill="#252A2E"/><path d="M485.731 202C486.283 202 486.731 202.448 486.731 203V207C486.731 207.552 486.283 208 485.731 208C485.179 208 484.731 207.552 484.731 207V203C484.731 202.448 485.179 202 485.731 202Z" fill="#252A2E"/><path d="M459.064 210C459.617 210 460.064 210.448 460.064 211V213C460.064 213.589 460.182 214.149 460.393 214.659C460.604 215.169 460.362 215.754 459.852 215.965C459.342 216.177 458.757 215.935 458.545 215.425C458.235 214.676 458.064 213.857 458.064 213V211C458.064 210.448 458.512 210 459.064 210Z" fill="#252A2E"/><path d="M485.731 210C486.283 210 486.731 210.448 486.731 211V213C486.731 213.857 486.56 214.676 486.25 215.425C486.039 215.935 485.454 216.177 484.943 215.965C484.433 215.754 484.191 215.169 484.403 214.659C484.614 214.149 484.731 213.589 484.731 213V211C484.731 210.448 485.179 210 485.731 210Z" fill="#252A2E"/><path d="M461.433 217.546C461.644 217.035 462.229 216.793 462.739 217.005C463.249 217.216 463.808 217.333 464.398 217.333H466.398C466.95 217.333 467.398 217.781 467.398 218.333C467.398 218.886 466.95 219.333 466.398 219.333H464.398C463.541 219.333 462.721 219.163 461.973 218.852C461.463 218.641 461.221 218.056 461.433 217.546Z" fill="#252A2E"/><path d="M483.363 217.546C483.575 218.056 483.333 218.641 482.822 218.852C482.074 219.163 481.255 219.333 480.398 219.333H478.398C477.846 219.333 477.398 218.886 477.398 218.333C477.398 217.781 477.846 217.333 478.398 217.333H480.398C480.987 217.333 481.547 217.216 482.056 217.005C482.566 216.793 483.151 217.035 483.363 217.546Z" fill="#252A2E"/><path d="M469.398 218.333C469.398 217.781 469.846 217.333 470.398 217.333H474.398C474.95 217.333 475.398 217.781 475.398 218.333C475.398 218.886 474.95 219.333 474.398 219.333H470.398C469.846 219.333 469.398 218.886 469.398 218.333Z" fill="#252A2E"/><path d="M483.772 195.121C484.162 194.731 484.162 194.098 483.772 193.707C483.381 193.317 482.748 193.317 482.357 193.707L481.029 195.035C480.639 195.426 480.639 196.059 481.029 196.45C481.42 196.84 482.053 196.84 482.443 196.45L483.772 195.121Z" fill="#252A2E"/><path d="M479.787 199.106C480.177 198.716 480.177 198.082 479.787 197.692C479.396 197.301 478.763 197.301 478.373 197.692L475.716 200.349C475.325 200.739 475.325 201.372 475.716 201.763C476.106 202.153 476.74 202.153 477.13 201.763L479.787 199.106Z" fill="#252A2E"/><path d="M474.474 204.419C474.864 204.029 474.864 203.396 474.474 203.005C474.083 202.615 473.45 202.615 473.059 203.005L472.398 203.667L471.736 203.005C471.346 202.615 470.712 202.615 470.322 203.005C469.931 203.396 469.931 204.029 470.322 204.419L470.984 205.081L470.403 205.662C470.012 206.052 470.012 206.685 470.403 207.076C470.793 207.466 471.427 207.466 471.817 207.076L472.398 206.495L472.979 207.076C473.369 207.466 474.002 207.466 474.393 207.076C474.783 206.685 474.783 206.052 474.393 205.662L473.812 205.081L474.474 204.419Z" fill="#252A2E"/><path d="M469.16 209.732C469.551 209.342 469.551 208.709 469.16 208.318C468.77 207.928 468.137 207.928 467.746 208.318L465.09 210.975C464.699 211.365 464.699 211.998 465.09 212.389C465.48 212.779 466.113 212.779 466.504 212.389L469.16 209.732Z" fill="#252A2E"/><path d="M463.847 215.046C464.238 214.655 464.238 214.022 463.847 213.631C463.457 213.241 462.824 213.241 462.433 213.631L461.105 214.96C460.714 215.35 460.714 215.983 461.105 216.374C461.495 216.764 462.129 216.764 462.519 216.374L463.847 215.046Z" fill="#252A2E"/><path d="M482.276 216.374C482.667 216.764 483.3 216.764 483.691 216.374C484.081 215.983 484.081 215.35 483.691 214.96L482.362 213.631C481.972 213.241 481.339 213.241 480.948 213.631C480.558 214.022 480.558 214.655 480.948 215.046L482.276 216.374Z" fill="#252A2E"/><path d="M478.292 212.389C478.682 212.779 479.315 212.779 479.706 212.389C480.096 211.998 480.096 211.365 479.706 210.975L477.049 208.318C476.659 207.928 476.026 207.928 475.635 208.318C475.245 208.709 475.245 209.342 475.635 209.732L478.292 212.389Z" fill="#252A2E"/><path d="M467.665 201.763C468.056 202.153 468.689 202.153 469.08 201.763C469.47 201.372 469.47 200.739 469.08 200.349L466.423 197.692C466.033 197.301 465.399 197.301 465.009 197.692C464.618 198.082 464.618 198.716 465.009 199.106L467.665 201.763Z" fill="#252A2E"/><path d="M462.352 196.45C462.743 196.84 463.376 196.84 463.767 196.45C464.157 196.059 464.157 195.426 463.767 195.035L462.438 193.707C462.048 193.317 461.415 193.317 461.024 193.707C460.633 194.098 460.633 194.731 461.024 195.121L462.352 196.45Z" fill="#252A2E"/><path d="M468.472 198.185C468.87 198.065 469.292 198 469.731 198H470.731C471.283 198 471.731 197.552 471.731 197C471.731 196.448 471.283 196 470.731 196H469.731C469.093 196 468.476 196.095 467.892 196.271C467.364 196.431 467.065 196.99 467.225 197.518C467.386 198.047 467.944 198.346 468.472 198.185Z" fill="#252A2E"/><path d="M474.064 196C473.512 196 473.064 196.448 473.064 197C473.064 197.552 473.512 198 474.064 198H475.064C475.504 198 475.926 198.065 476.323 198.185C476.852 198.346 477.41 198.047 477.57 197.518C477.73 196.99 477.432 196.431 476.903 196.271C476.32 196.095 475.702 196 475.064 196H474.064Z" fill="#252A2E"/><path d="M465.583 201.075C465.743 200.546 465.445 199.988 464.916 199.828C464.388 199.667 463.829 199.966 463.669 200.495C463.492 201.078 463.398 201.695 463.398 202.333V203.333C463.398 203.886 463.846 204.333 464.398 204.333C464.95 204.333 465.398 203.886 465.398 203.333V202.333C465.398 201.894 465.463 201.472 465.583 201.075Z" fill="#252A2E"/><path d="M481.126 200.495C480.966 199.966 480.408 199.667 479.879 199.828C479.351 199.988 479.052 200.546 479.212 201.075C479.333 201.472 479.398 201.894 479.398 202.333V203.333C479.398 203.886 479.846 204.333 480.398 204.333C480.95 204.333 481.398 203.886 481.398 203.333V202.333C481.398 201.695 481.303 201.078 481.126 200.495Z" fill="#252A2E"/><path d="M465.398 206.667C465.398 206.114 464.95 205.667 464.398 205.667C463.846 205.667 463.398 206.114 463.398 206.667V207.667C463.398 208.305 463.492 208.922 463.669 209.505C463.829 210.034 464.388 210.333 464.916 210.172C465.445 210.012 465.743 209.454 465.583 208.925C465.463 208.528 465.398 208.106 465.398 207.667V206.667Z" fill="#252A2E"/><path d="M481.398 206.667C481.398 206.114 480.95 205.667 480.398 205.667C479.846 205.667 479.398 206.114 479.398 206.667V207.667C479.398 208.106 479.333 208.528 479.212 208.925C479.052 209.454 479.351 210.012 479.879 210.172C480.408 210.333 480.966 210.034 481.126 209.505C481.303 208.922 481.398 208.305 481.398 207.667V206.667Z" fill="#252A2E"/><path d="M468.472 211.815C467.944 211.655 467.386 211.953 467.225 212.482C467.065 213.01 467.364 213.569 467.892 213.729C468.476 213.905 469.093 214 469.731 214H470.731C471.283 214 471.731 213.552 471.731 213C471.731 212.448 471.283 212 470.731 212H469.731C469.292 212 468.87 211.935 468.472 211.815Z" fill="#252A2E"/><path d="M476.903 213.729C477.432 213.569 477.73 213.01 477.57 212.482C477.41 211.953 476.852 211.655 476.323 211.815C475.926 211.935 475.504 212 475.064 212H474.064C473.512 212 473.064 212.448 473.064 213C473.064 213.552 473.512 214 474.064 214H475.064C475.702 214 476.32 213.905 476.903 213.729Z" fill="#252A2E"/><line x1="504.1" y1="193" x2="504.1" y2="217" stroke="#B7B9C3"/><path d="M526.798 192.667C526.209 192.667 525.649 192.784 525.14 192.995C524.63 193.207 524.044 192.965 523.833 192.454C523.621 191.944 523.863 191.359 524.374 191.148C525.122 190.837 525.941 190.667 526.798 190.667H528.798C529.35 190.667 529.798 191.114 529.798 191.667C529.798 192.219 529.35 192.667 528.798 192.667H526.798Z" fill="#252A2E"/><path d="M531.798 191.667C531.798 191.114 532.246 190.667 532.798 190.667H536.798C537.35 190.667 537.798 191.114 537.798 191.667C537.798 192.219 537.35 192.667 536.798 192.667H532.798C532.246 192.667 531.798 192.219 531.798 191.667Z" fill="#252A2E"/><path d="M539.798 191.667C539.798 191.114 540.246 190.667 540.798 190.667H542.798C543.655 190.667 544.475 190.837 545.223 191.148C545.733 191.359 545.975 191.944 545.763 192.454C545.552 192.965 544.967 193.207 544.457 192.995C543.947 192.784 543.388 192.667 542.798 192.667H540.798C540.246 192.667 539.798 192.219 539.798 191.667Z" fill="#252A2E"/><path d="M522.253 194.035C522.763 194.246 523.005 194.831 522.793 195.342C522.582 195.851 522.465 196.411 522.465 197V199C522.465 199.552 522.017 200 521.465 200C520.913 200 520.465 199.552 520.465 199V197C520.465 196.143 520.636 195.324 520.946 194.575C521.157 194.065 521.742 193.823 522.253 194.035Z" fill="#252A2E"/><path d="M547.344 194.035C547.854 193.823 548.439 194.065 548.651 194.575C548.961 195.324 549.132 196.143 549.132 197V199C549.132 199.552 548.684 200 548.132 200C547.579 200 547.132 199.552 547.132 199V197C547.132 196.411 547.014 195.851 546.803 195.342C546.592 194.831 546.834 194.246 547.344 194.035Z" fill="#252A2E"/><path d="M521.465 202C522.017 202 522.465 202.448 522.465 203V207C522.465 207.552 522.017 208 521.465 208C520.913 208 520.465 207.552 520.465 207V203C520.465 202.448 520.913 202 521.465 202Z" fill="#252A2E"/><path d="M548.132 202C548.684 202 549.132 202.448 549.132 203V207C549.132 207.552 548.684 208 548.132 208C547.579 208 547.132 207.552 547.132 207V203C547.132 202.448 547.579 202 548.132 202Z" fill="#252A2E"/><path d="M521.465 210C522.017 210 522.465 210.448 522.465 211V213C522.465 213.589 522.582 214.149 522.793 214.659C523.005 215.169 522.763 215.754 522.253 215.965C521.742 216.177 521.157 215.935 520.946 215.425C520.636 214.676 520.465 213.857 520.465 213V211C520.465 210.448 520.913 210 521.465 210Z" fill="#252A2E"/><path d="M548.132 210C548.684 210 549.132 210.448 549.132 211V213C549.132 213.857 548.961 214.676 548.651 215.425C548.439 215.935 547.854 216.177 547.344 215.965C546.834 215.754 546.592 215.169 546.803 214.659C547.014 214.149 547.132 213.589 547.132 213V211C547.132 210.448 547.579 210 548.132 210Z" fill="#252A2E"/><path d="M523.833 217.546C524.044 217.035 524.63 216.793 525.14 217.005C525.649 217.216 526.209 217.333 526.798 217.333H528.798C529.35 217.333 529.798 217.781 529.798 218.333C529.798 218.886 529.35 219.333 528.798 219.333H526.798C525.941 219.333 525.122 219.163 524.374 218.852C523.863 218.641 523.621 218.056 523.833 217.546Z" fill="#252A2E"/><path d="M545.763 217.546C545.975 218.056 545.733 218.641 545.223 218.852C544.475 219.163 543.655 219.333 542.798 219.333H540.798C540.246 219.333 539.798 218.886 539.798 218.333C539.798 217.781 540.246 217.333 540.798 217.333H542.798C543.388 217.333 543.947 217.216 544.457 217.005C544.967 216.793 545.552 217.035 545.763 217.546Z" fill="#252A2E"/><path d="M531.798 218.333C531.798 217.781 532.246 217.333 532.798 217.333H536.798C537.35 217.333 537.798 217.781 537.798 218.333C537.798 218.886 537.35 219.333 536.798 219.333H532.798C532.246 219.333 531.798 218.886 531.798 218.333Z" fill="#252A2E"/><path d="M546.172 195.121C546.562 194.731 546.562 194.098 546.172 193.707C545.781 193.317 545.148 193.317 544.758 193.707L543.429 195.035C543.039 195.426 543.039 196.059 543.429 196.45C543.82 196.84 544.453 196.84 544.844 196.45L546.172 195.121Z" fill="#252A2E"/><path d="M542.187 199.106C542.578 198.716 542.578 198.082 542.187 197.692C541.797 197.301 541.163 197.301 540.773 197.692L538.116 200.349C537.726 200.739 537.726 201.372 538.116 201.763C538.507 202.153 539.14 202.153 539.531 201.763L542.187 199.106Z" fill="#252A2E"/><path d="M536.874 204.419C537.265 204.029 537.265 203.396 536.874 203.005C536.483 202.615 535.85 202.615 535.46 203.005L534.798 203.667L534.137 203.005C533.746 202.615 533.113 202.615 532.722 203.005C532.332 203.396 532.332 204.029 532.722 204.419L533.384 205.081L532.803 205.662C532.413 206.052 532.413 206.685 532.803 207.076C533.194 207.466 533.827 207.466 534.217 207.076L534.798 206.495L535.379 207.076C535.769 207.466 536.403 207.466 536.793 207.076C537.184 206.685 537.184 206.052 536.793 205.662L536.212 205.081L536.874 204.419Z" fill="#252A2E"/><path d="M531.561 209.732C531.951 209.342 531.951 208.709 531.561 208.318C531.17 207.928 530.537 207.928 530.147 208.318L527.49 210.975C527.1 211.365 527.1 211.998 527.49 212.389C527.881 212.779 528.514 212.779 528.904 212.389L531.561 209.732Z" fill="#252A2E"/><path d="M526.248 215.046C526.638 214.655 526.638 214.022 526.248 213.631C525.857 213.241 525.224 213.241 524.834 213.631L523.505 214.96C523.115 215.35 523.115 215.983 523.505 216.374C523.896 216.764 524.529 216.764 524.919 216.374L526.248 215.046Z" fill="#252A2E"/><path d="M544.677 216.374C545.067 216.764 545.701 216.764 546.091 216.374C546.482 215.983 546.482 215.35 546.091 214.96L544.763 213.631C544.372 213.241 543.739 213.241 543.349 213.631C542.958 214.022 542.958 214.655 543.349 215.046L544.677 216.374Z" fill="#252A2E"/><path d="M540.692 212.389C541.083 212.779 541.716 212.779 542.106 212.389C542.497 211.998 542.497 211.365 542.106 210.975L539.45 208.318C539.059 207.928 538.426 207.928 538.035 208.318C537.645 208.709 537.645 209.342 538.035 209.732L540.692 212.389Z" fill="#252A2E"/><path d="M530.066 201.763C530.456 202.153 531.089 202.153 531.48 201.763C531.871 201.372 531.871 200.739 531.48 200.349L528.823 197.692C528.433 197.301 527.8 197.301 527.409 197.692C527.019 198.082 527.019 198.716 527.409 199.106L530.066 201.763Z" fill="#252A2E"/><path d="M524.753 196.45C525.143 196.84 525.776 196.84 526.167 196.45C526.557 196.059 526.557 195.426 526.167 195.035L524.839 193.707C524.448 193.317 523.815 193.317 523.424 193.707C523.034 194.098 523.034 194.731 523.424 195.121L524.753 196.45Z" fill="#252A2E"/><path d="M530.873 198.185C531.27 198.065 531.692 198 532.132 198H533.132C533.684 198 534.132 197.552 534.132 197C534.132 196.448 533.684 196 533.132 196H532.132C531.494 196 530.876 196.095 530.293 196.271C529.764 196.431 529.466 196.99 529.626 197.518C529.786 198.047 530.344 198.346 530.873 198.185Z" fill="#252A2E"/><path d="M536.465 196C535.913 196 535.465 196.448 535.465 197C535.465 197.552 535.913 198 536.465 198H537.465C537.904 198 538.326 198.065 538.724 198.185C539.252 198.346 539.81 198.047 539.971 197.518C540.131 196.99 539.832 196.431 539.304 196.271C538.72 196.095 538.103 196 537.465 196H536.465Z" fill="#252A2E"/><path d="M527.984 201.075C528.144 200.546 527.845 199.988 527.316 199.828C526.788 199.667 526.23 199.966 526.069 200.495C525.893 201.078 525.798 201.695 525.798 202.333V203.333C525.798 203.886 526.246 204.333 526.798 204.333C527.35 204.333 527.798 203.886 527.798 203.333V202.333C527.798 201.894 527.863 201.472 527.984 201.075Z" fill="#252A2E"/><path d="M543.527 200.495C543.367 199.966 542.808 199.667 542.28 199.828C541.751 199.988 541.453 200.546 541.613 201.075C541.733 201.472 541.798 201.894 541.798 202.333V203.333C541.798 203.886 542.246 204.333 542.798 204.333C543.35 204.333 543.798 203.886 543.798 203.333V202.333C543.798 201.695 543.704 201.078 543.527 200.495Z" fill="#252A2E"/><path d="M527.798 206.667C527.798 206.114 527.35 205.667 526.798 205.667C526.246 205.667 525.798 206.114 525.798 206.667V207.667C525.798 208.305 525.893 208.922 526.069 209.505C526.23 210.034 526.788 210.333 527.316 210.172C527.845 210.012 528.144 209.454 527.984 208.925C527.863 208.528 527.798 208.106 527.798 207.667V206.667Z" fill="#252A2E"/><path d="M543.798 206.667C543.798 206.114 543.35 205.667 542.798 205.667C542.246 205.667 541.798 206.114 541.798 206.667V207.667C541.798 208.106 541.733 208.528 541.613 208.925C541.453 209.454 541.751 210.012 542.28 210.172C542.808 210.333 543.367 210.034 543.527 209.505C543.704 208.922 543.798 208.305 543.798 207.667V206.667Z" fill="#252A2E"/><path d="M530.873 211.815C530.344 211.655 529.786 211.953 529.626 212.482C529.466 213.01 529.764 213.569 530.293 213.729C530.876 213.905 531.494 214 532.132 214H533.132C533.684 214 534.132 213.552 534.132 213C534.132 212.448 533.684 212 533.132 212H532.132C531.692 212 531.27 211.935 530.873 211.815Z" fill="#252A2E"/><path d="M539.304 213.729C539.832 213.569 540.131 213.01 539.971 212.482C539.81 211.953 539.252 211.655 538.724 211.815C538.326 211.935 537.904 212 537.465 212H536.465C535.913 212 535.465 212.448 535.465 213C535.465 213.552 535.913 214 536.465 214H537.465C538.103 214 538.72 213.905 539.304 213.729Z" fill="#252A2E"/></g><rect x="261.5" y="176.5" width="301" height="57" rx="28.5" stroke="#353A40"/><defs><clipPath id="clip0_342_63685"><rect x="262" y="27" width="300" height="32" rx="16" fill="#fff"/></clipPath><clipPath id="clip1_342_63685"><rect x="262" y="69" width="300" height="48" rx="8" fill="#fff"/></clipPath><clipPath id="clip2_342_63685"><rect x="262" y="127" width="300" height="40" rx="20" fill="#fff"/></clipPath><clipPath id="clip3_342_63685"><rect x="262" y="177" width="300" height="56" rx="28" fill="#fff"/></clipPath></defs></svg>