<svg fill="none" height="440" viewBox="0 0 960 440" width="960" xmlns="http://www.w3.org/2000/svg" xmlns:xlink="http://www.w3.org/1999/xlink"><clipPath id="a"><path d="m0 0h960v440h-960z"/></clipPath><clipPath id="b"><path d="m0 0h960v104h-960z"/></clipPath><clipPath id="c"><rect height="40" rx="20" width="300" x="168" y="32"/></clipPath><clipPath id="d"><rect height="40" rx="20" width="300" x="492" y="32"/></clipPath><clipPath id="e"><path d="m0 112h960v104h-960z"/></clipPath><clipPath id="f"><rect height="40" rx="20" width="300" x="168" y="144"/></clipPath><clipPath id="g"><rect height="40" rx="8" width="300" x="492" y="144"/></clipPath><clipPath id="h"><path d="m0 224h960v104h-960z"/></clipPath><clipPath id="i"><rect height="40" rx="8" width="300" x="168" y="256"/></clipPath><clipPath id="j"><rect height="40" rx="8" width="300" x="492" y="256"/></clipPath><clipPath id="k"><path d="m0 336h960v104h-960z"/></clipPath><clipPath id="l"><rect height="40" rx="8" width="300" x="168" y="368"/></clipPath><clipPath id="m"><rect height="40" rx="8" width="300" x="492" y="368"/></clipPath><g clip-path="url(#a)"><g clip-path="url(#b)"><path d="m0 0h960v104h-960z" fill="#f1f1f6"/><g clip-path="url(#c)"><rect fill="#0063a3" height="41" rx="4.5" width="149" x="167.5" y="31.5"/><g fill="#fff"><path d="m236 42.75c-.442 0-.862.0878-1.244.2463-.382.1587-.821-.0229-.98-.4055s.023-.8214.406-.9801c.561-.2327 1.175-.3607 1.818-.3607h1.5c.414 0 .75.3358.75.75s-.336.75-.75.75z"/><path d="m239.75 42c0-.4142.336-.75.75-.75h3c.414 0 .75.3358.75.75s-.336.75-.75.75h-3c-.414 0-.75-.3358-.75-.75z"/><path d="m245.75 42c0-.4142.336-.75.75-.75h1.5c.643 0 1.257.128 1.818.3607.383.1587.565.5975.406.9801s-.598.5642-.98.4055c-.382-.1585-.802-.2463-1.244-.2463h-1.5c-.414 0-.75-.3358-.75-.75z"/><path d="m232.591 43.7761c.382.1586.564.5974.405.98-.158.3822-.246.8018-.246 1.2439v1.5c0 .4142-.336.75-.75.75s-.75-.3358-.75-.75v-1.5c0-.6427.128-1.2573.361-1.8184.158-.3827.597-.5642.98-.4055z"/><path d="m251.409 43.7761c.383-.1587.822.0228.98.4055.233.5611.361 1.1757.361 1.8184v1.5c0 .4142-.336.75-.75.75s-.75-.3358-.75-.75v-1.5c0-.4421-.088-.8617-.246-1.2439-.159-.3826.023-.8214.405-.98z"/><path d="m232 49.75c.414 0 .75.3358.75.75v3c0 .4142-.336.75-.75.75s-.75-.3358-.75-.75v-3c0-.4142.336-.75.75-.75z"/><path d="m252 49.75c.414 0 .75.3358.75.75v3c0 .4142-.336.75-.75.75s-.75-.3358-.75-.75v-3c0-.4142.336-.75.75-.75z"/><path d="m232 55.75c.414 0 .75.3358.75.75v1.5c0 .4421.088.8617.246 1.2439.159.3826-.023.8214-.405.98-.383.1587-.822-.0228-.98-.4055-.233-.5611-.361-1.1757-.361-1.8184v-1.5c0-.4142.336-.75.75-.75z"/><path d="m252 55.75c.414 0 .75.3358.75.75v1.5c0 .6427-.128 1.2573-.361 1.8184-.158.3827-.597.5642-.98.4055-.382-.1586-.564-.5974-.405-.98.158-.3822.246-.8018.246-1.2439v-1.5c0-.4142.336-.75.75-.75z"/><path d="m233.776 61.4092c.159-.3826.598-.5642.98-.4055.382.1585.802.2463 1.244.2463h1.5c.414 0 .75.3358.75.75s-.336.75-.75.75h-1.5c-.643 0-1.257-.128-1.818-.3607-.383-.1587-.565-.5975-.406-.9801z"/><path d="m250.224 61.4092c.159.3826-.023.8214-.406.9801-.561.2327-1.175.3607-1.818.3607h-1.5c-.414 0-.75-.3358-.75-.75s.336-.75.75-.75h1.5c.442 0 .862-.0878 1.244-.2463.382-.1587.821.0229.98.4055z"/><path d="m239.75 62c0-.4142.336-.75.75-.75h3c.414 0 .75.3358.75.75s-.336.75-.75.75h-3c-.414 0-.75-.3358-.75-.75z"/><path d="m250.53 44.591c.293-.2929.293-.7678 0-1.0607s-.767-.2929-1.06 0l-.997.9962c-.292.2929-.292.7678 0 1.0607.293.2929.768.2929 1.061 0z"/><path d="m247.542 47.5796c.293-.2929.293-.7678 0-1.0606-.293-.2929-.768-.2929-1.061 0l-1.992 1.9924c-.293.2929-.293.7677 0 1.0606s.767.2929 1.06 0z"/><path d="m243.557 51.5645c.293-.2929.293-.7678 0-1.0607s-.768-.2929-1.061 0l-.496.4962-.496-.4962c-.293-.2929-.768-.2929-1.061 0s-.293.7678 0 1.0607l.496.4962-.435.4355c-.293.2929-.293.7678 0 1.0607s.768.2929 1.06 0l.436-.4356.436.4356c.292.2929.767.2929 1.06 0s.293-.7678 0-1.0607l-.435-.4355z"/><path d="m239.572 55.5493c.293-.2929.293-.7678 0-1.0607s-.768-.2929-1.061 0l-1.992 1.9924c-.293.2929-.293.7678 0 1.0607s.768.2929 1.061 0z"/><path d="m235.587 59.5341c.293-.2929.293-.7677 0-1.0606s-.768-.2929-1.06 0l-.997.9962c-.293.2929-.293.7677 0 1.0606s.768.2929 1.061 0z"/><path d="m249.409 60.5303c.293.2929.768.2929 1.061 0s.293-.7677 0-1.0606l-.997-.9962c-.292-.2929-.767-.2929-1.06 0s-.293.7677 0 1.0606z"/><path d="m246.42 57.5417c.293.2929.768.2929 1.061 0s.293-.7678 0-1.0607l-1.992-1.9924c-.293-.2929-.768-.2929-1.061 0s-.293.7678 0 1.0607z"/><path d="m238.451 49.572c.293.2929.767.2929 1.06 0s.293-.7677 0-1.0606l-1.992-1.9924c-.293-.2929-.768-.2929-1.061 0-.293.2928-.293.7677 0 1.0606z"/><path d="m234.466 45.5872c.293.2929.768.2929 1.061 0 .292-.2929.292-.7678 0-1.0607l-.997-.9962c-.293-.2929-.767-.2929-1.06 0s-.293.7678 0 1.0607z"/><path d="m239.056 46.889c.298-.0902.615-.139.944-.139h.75c.414 0 .75-.3358.75-.75s-.336-.75-.75-.75h-.75c-.478 0-.942.071-1.379.2035-.396.1201-.62.5388-.5.9352s.539.6204.935.5003z"/><path d="m243.25 45.25c-.414 0-.75.3358-.75.75s.336.75.75.75h.75c.329 0 .646.0488.944.139.396.1201.815-.1039.935-.5003s-.104-.8151-.5-.9352c-.437-.1325-.901-.2035-1.379-.2035z"/><path d="m236.889 49.0559c.12-.3964-.104-.8151-.5-.9352-.397-.1201-.815.1039-.936.5003-.132.4373-.203.9006-.203 1.379v.75c0 .4142.336.75.75.75s.75-.3358.75-.75v-.75c0-.3295.049-.6462.139-.9441z"/><path d="m248.547 48.621c-.121-.3964-.539-.6204-.936-.5003-.396.1201-.62.5388-.5.9352.09.2979.139.6146.139.9441v.75c0 .4142.336.75.75.75s.75-.3358.75-.75v-.75c0-.4784-.071-.9417-.203-1.379z"/><path d="m236.75 53.25c0-.4142-.336-.75-.75-.75s-.75.3358-.75.75v.75c0 .4784.071.9417.203 1.379.121.3964.539.6204.936.5003.396-.1201.62-.5388.5-.9352-.09-.2979-.139-.6146-.139-.9441z"/><path d="m248.75 53.25c0-.4142-.336-.75-.75-.75s-.75.3358-.75.75v.75c0 .3295-.049.6462-.139.9441-.12.3964.104.8151.5.9352.397.1201.815-.1039.936-.5003.132-.4373.203-.9006.203-1.379z"/><path d="m239.056 57.111c-.396-.1201-.815.1039-.935.5003s.104.8151.5.9352c.437.1325.901.2035 1.379.2035h.75c.414 0 .75-.3358.75-.75s-.336-.75-.75-.75h-.75c-.329 0-.646-.0488-.944-.139z"/><path d="m245.379 58.5465c.396-.1201.62-.5388.5-.9352s-.539-.6204-.935-.5003c-.298.0902-.615.139-.944.139h-.75c-.414 0-.75.3358-.75.75s.336.75.75.75h.75c.478 0 .942-.071 1.379-.2035z"/></g><rect height="41" rx="4.5" stroke="#0063a3" width="149" x="167.5" y="31.5"/><path d="m388 42.75c-.442 0-.862.0878-1.244.2463-.382.1587-.821-.0229-.98-.4055s.023-.8214.406-.9801c.561-.2327 1.175-.3607 1.818-.3607h1.5c.414 0 .75.3358.75.75s-.336.75-.75.75z" fill="#252a2e"/><path d="m391.75 42c0-.4142.336-.75.75-.75h3c.414 0 .75.3358.75.75s-.336.75-.75.75h-3c-.414 0-.75-.3358-.75-.75z" fill="#252a2e"/><path d="m397.75 42c0-.4142.336-.75.75-.75h1.5c.643 0 1.257.128 1.818.3607.383.1587.565.5975.406.9801s-.598.5642-.98.4055c-.382-.1585-.802-.2463-1.244-.2463h-1.5c-.414 0-.75-.3358-.75-.75z" fill="#252a2e"/><path d="m384.591 43.7761c.382.1586.564.5974.405.98-.158.3822-.246.8018-.246 1.2439v1.5c0 .4142-.336.75-.75.75s-.75-.3358-.75-.75v-1.5c0-.6427.128-1.2573.361-1.8184.158-.3827.597-.5642.98-.4055z" fill="#252a2e"/><path d="m403.409 43.7761c.383-.1587.822.0228.98.4055.233.5611.361 1.1757.361 1.8184v1.5c0 .4142-.336.75-.75.75s-.75-.3358-.75-.75v-1.5c0-.4421-.088-.8617-.246-1.2439-.159-.3826.023-.8214.405-.98z" fill="#252a2e"/><path d="m384 49.75c.414 0 .75.3358.75.75v3c0 .4142-.336.75-.75.75s-.75-.3358-.75-.75v-3c0-.4142.336-.75.75-.75z" fill="#252a2e"/><path d="m404 49.75c.414 0 .75.3358.75.75v3c0 .4142-.336.75-.75.75s-.75-.3358-.75-.75v-3c0-.4142.336-.75.75-.75z" fill="#252a2e"/><path d="m384 55.75c.414 0 .75.3358.75.75v1.5c0 .4421.088.8617.246 1.2439.159.3826-.023.8214-.405.98-.383.1587-.822-.0228-.98-.4055-.233-.5611-.361-1.1757-.361-1.8184v-1.5c0-.4142.336-.75.75-.75z" fill="#252a2e"/><path d="m404 55.75c.414 0 .75.3358.75.75v1.5c0 .6427-.128 1.2573-.361 1.8184-.158.3827-.597.5642-.98.4055-.382-.1586-.564-.5974-.405-.98.158-.3822.246-.8018.246-1.2439v-1.5c0-.4142.336-.75.75-.75z" fill="#252a2e"/><path d="m385.776 61.4092c.159-.3826.598-.5642.98-.4055.382.1585.802.2463 1.244.2463h1.5c.414 0 .75.3358.75.75s-.336.75-.75.75h-1.5c-.643 0-1.257-.128-1.818-.3607-.383-.1587-.565-.5975-.406-.9801z" fill="#252a2e"/><path d="m402.224 61.4092c.159.3826-.023.8214-.406.9801-.561.2327-1.175.3607-1.818.3607h-1.5c-.414 0-.75-.3358-.75-.75s.336-.75.75-.75h1.5c.442 0 .862-.0878 1.244-.2463.382-.1587.821.0229.98.4055z" fill="#252a2e"/><path d="m391.75 62c0-.4142.336-.75.75-.75h3c.414 0 .75.3358.75.75s-.336.75-.75.75h-3c-.414 0-.75-.3358-.75-.75z" fill="#252a2e"/><path d="m402.53 44.591c.293-.2929.293-.7678 0-1.0607s-.767-.2929-1.06 0l-.997.9962c-.292.2929-.292.7678 0 1.0607.293.2929.768.2929 1.061 0z" fill="#252a2e"/><path d="m399.542 47.5796c.293-.2929.293-.7678 0-1.0606-.293-.2929-.768-.2929-1.061 0l-1.992 1.9924c-.293.2929-.293.7677 0 1.0606s.767.2929 1.06 0z" fill="#252a2e"/><path d="m395.557 51.5645c.293-.2929.293-.7678 0-1.0607s-.768-.2929-1.061 0l-.496.4962-.496-.4962c-.293-.2929-.768-.2929-1.061 0s-.293.7678 0 1.0607l.496.4962-.435.4355c-.293.2929-.293.7678 0 1.0607s.768.2929 1.06 0l.436-.4356.436.4356c.292.2929.767.2929 1.06 0s.293-.7678 0-1.0607l-.435-.4355z" fill="#252a2e"/><path d="m391.572 55.5493c.293-.2929.293-.7678 0-1.0607s-.768-.2929-1.061 0l-1.992 1.9924c-.293.2929-.293.7678 0 1.0607s.768.2929 1.061 0z" fill="#252a2e"/><path d="m387.587 59.5341c.293-.2929.293-.7677 0-1.0606s-.768-.2929-1.06 0l-.997.9962c-.293.2929-.293.7677 0 1.0606s.768.2929 1.061 0z" fill="#252a2e"/><path d="m401.409 60.5303c.293.2929.768.2929 1.061 0s.293-.7677 0-1.0606l-.997-.9962c-.292-.2929-.767-.2929-1.06 0s-.293.7677 0 1.0606z" fill="#252a2e"/><path d="m398.42 57.5417c.293.2929.768.2929 1.061 0s.293-.7678 0-1.0607l-1.992-1.9924c-.293-.2929-.768-.2929-1.061 0s-.293.7678 0 1.0607z" fill="#252a2e"/><path d="m390.451 49.572c.293.2929.767.2929 1.06 0s.293-.7677 0-1.0606l-1.992-1.9924c-.293-.2929-.768-.2929-1.061 0-.293.2928-.293.7677 0 1.0606z" fill="#252a2e"/><path d="m386.466 45.5872c.293.2929.768.2929 1.061 0 .292-.2929.292-.7678 0-1.0607l-.997-.9962c-.293-.2929-.767-.2929-1.06 0s-.293.7678 0 1.0607z" fill="#252a2e"/><path d="m391.056 46.889c.298-.0902.615-.139.944-.139h.75c.414 0 .75-.3358.75-.75s-.336-.75-.75-.75h-.75c-.478 0-.942.071-1.379.2035-.396.1201-.62.5388-.5.9352s.539.6204.935.5003z" fill="#252a2e"/><path d="m395.25 45.25c-.414 0-.75.3358-.75.75s.336.75.75.75h.75c.329 0 .646.0488.944.139.396.1201.815-.1039.935-.5003s-.104-.8151-.5-.9352c-.437-.1325-.901-.2035-1.379-.2035z" fill="#252a2e"/><path d="m388.889 49.0559c.12-.3964-.104-.8151-.5-.9352-.397-.1201-.815.1039-.936.5003-.132.4373-.203.9006-.203 1.379v.75c0 .4142.336.75.75.75s.75-.3358.75-.75v-.75c0-.3295.049-.6462.139-.9441z" fill="#252a2e"/><path d="m400.547 48.621c-.121-.3964-.539-.6204-.936-.5003-.396.1201-.62.5388-.5.9352.09.2979.139.6146.139.9441v.75c0 .4142.336.75.75.75s.75-.3358.75-.75v-.75c0-.4784-.071-.9417-.203-1.379z" fill="#252a2e"/><path d="m388.75 53.25c0-.4142-.336-.75-.75-.75s-.75.3358-.75.75v.75c0 .4784.071.9417.203 1.379.121.3964.539.6204.936.5003.396-.1201.62-.5388.5-.9352-.09-.2979-.139-.6146-.139-.9441z" fill="#252a2e"/><path d="m400.75 53.25c0-.4142-.336-.75-.75-.75s-.75.3358-.75.75v.75c0 .3295-.049.6462-.139.9441-.12.3964.104.8151.5.9352.397.1201.815-.1039.936-.5003.132-.4373.203-.9006.203-1.379z" fill="#252a2e"/><path d="m391.056 57.111c-.396-.1201-.815.1039-.935.5003s.104.8151.5.9352c.437.1325.901.2035 1.379.2035h.75c.414 0 .75-.3358.75-.75s-.336-.75-.75-.75h-.75c-.329 0-.646-.0488-.944-.139z" fill="#252a2e"/><path d="m397.379 58.5465c.396-.1201.62-.5388.5-.9352s-.539-.6204-.935-.5003c-.298.0902-.615.139-.944.139h-.75c-.414 0-.75.3358-.75.75s.336.75.75.75h.75c.478 0 .942-.071 1.379-.2035z" fill="#252a2e"/></g><rect height="41" rx="20.5" stroke="#353a40" width="301" x="167.5" y="31.5"/><g clip-path="url(#d)"><rect fill="#0063a3" height="41" rx="4.5" width="97" x="491.5" y="31.5"/><g fill="#fff"><path d="m534 42.75c-.442 0-.862.0878-1.244.2463-.382.1587-.821-.0229-.98-.4055s.023-.8214.406-.9801c.561-.2327 1.175-.3607 1.818-.3607h1.5c.414 0 .75.3358.75.75s-.336.75-.75.75z"/><path d="m537.75 42c0-.4142.336-.75.75-.75h3c.414 0 .75.3358.75.75s-.336.75-.75.75h-3c-.414 0-.75-.3358-.75-.75z"/><path d="m543.75 42c0-.4142.336-.75.75-.75h1.5c.643 0 1.257.128 1.818.3607.383.1587.565.5975.406.9801s-.598.5642-.98.4055c-.382-.1585-.802-.2463-1.244-.2463h-1.5c-.414 0-.75-.3358-.75-.75z"/><path d="m530.591 43.7761c.382.1586.564.5974.405.98-.158.3822-.246.8018-.246 1.2439v1.5c0 .4142-.336.75-.75.75s-.75-.3358-.75-.75v-1.5c0-.6427.128-1.2573.361-1.8184.158-.3827.597-.5642.98-.4055z"/><path d="m549.409 43.7761c.383-.1587.822.0228.98.4055.233.5611.361 1.1757.361 1.8184v1.5c0 .4142-.336.75-.75.75s-.75-.3358-.75-.75v-1.5c0-.4421-.088-.8617-.246-1.2439-.159-.3826.023-.8214.405-.98z"/><path d="m530 49.75c.414 0 .75.3358.75.75v3c0 .4142-.336.75-.75.75s-.75-.3358-.75-.75v-3c0-.4142.336-.75.75-.75z"/><path d="m550 49.75c.414 0 .75.3358.75.75v3c0 .4142-.336.75-.75.75s-.75-.3358-.75-.75v-3c0-.4142.336-.75.75-.75z"/><path d="m530 55.75c.414 0 .75.3358.75.75v1.5c0 .4421.088.8617.246 1.2439.159.3826-.023.8214-.405.98-.383.1587-.822-.0228-.98-.4055-.233-.5611-.361-1.1757-.361-1.8184v-1.5c0-.4142.336-.75.75-.75z"/><path d="m550 55.75c.414 0 .75.3358.75.75v1.5c0 .6427-.128 1.2573-.361 1.8184-.158.3827-.597.5642-.98.4055-.382-.1586-.564-.5974-.405-.98.158-.3822.246-.8018.246-1.2439v-1.5c0-.4142.336-.75.75-.75z"/><path d="m531.776 61.4092c.159-.3826.598-.5642.98-.4055.382.1585.802.2463 1.244.2463h1.5c.414 0 .75.3358.75.75s-.336.75-.75.75h-1.5c-.643 0-1.257-.128-1.818-.3607-.383-.1587-.565-.5975-.406-.9801z"/><path d="m548.224 61.4092c.159.3826-.023.8214-.406.9801-.561.2327-1.175.3607-1.818.3607h-1.5c-.414 0-.75-.3358-.75-.75s.336-.75.75-.75h1.5c.442 0 .862-.0878 1.244-.2463.382-.1587.821.0229.98.4055z"/><path d="m537.75 62c0-.4142.336-.75.75-.75h3c.414 0 .75.3358.75.75s-.336.75-.75.75h-3c-.414 0-.75-.3358-.75-.75z"/><path d="m548.53 44.591c.293-.2929.293-.7678 0-1.0607s-.767-.2929-1.06 0l-.997.9962c-.292.2929-.292.7678 0 1.0607.293.2929.768.2929 1.061 0z"/><path d="m545.542 47.5796c.293-.2929.293-.7678 0-1.0606-.293-.2929-.768-.2929-1.061 0l-1.992 1.9924c-.293.2929-.293.7677 0 1.0606s.767.2929 1.06 0z"/><path d="m541.557 51.5645c.293-.2929.293-.7678 0-1.0607s-.768-.2929-1.061 0l-.496.4962-.496-.4962c-.293-.2929-.768-.2929-1.061 0s-.293.7678 0 1.0607l.496.4962-.435.4355c-.293.2929-.293.7678 0 1.0607s.768.2929 1.06 0l.436-.4356.436.4356c.292.2929.767.2929 1.06 0s.293-.7678 0-1.0607l-.435-.4355z"/><path d="m537.572 55.5493c.293-.2929.293-.7678 0-1.0607s-.768-.2929-1.061 0l-1.992 1.9924c-.293.2929-.293.7678 0 1.0607s.768.2929 1.061 0z"/><path d="m533.587 59.5341c.293-.2929.293-.7677 0-1.0606s-.768-.2929-1.06 0l-.997.9962c-.293.2929-.293.7677 0 1.0606s.768.2929 1.061 0z"/><path d="m547.409 60.5303c.293.2929.768.2929 1.061 0s.293-.7677 0-1.0606l-.997-.9962c-.292-.2929-.767-.2929-1.06 0s-.293.7677 0 1.0606z"/><path d="m544.42 57.5417c.293.2929.768.2929 1.061 0s.293-.7678 0-1.0607l-1.992-1.9924c-.293-.2929-.768-.2929-1.061 0s-.293.7678 0 1.0607z"/><path d="m536.451 49.572c.293.2929.767.2929 1.06 0s.293-.7677 0-1.0606l-1.992-1.9924c-.293-.2929-.768-.2929-1.061 0-.293.2928-.293.7677 0 1.0606z"/><path d="m532.466 45.5872c.293.2929.768.2929 1.061 0 .292-.2929.292-.7678 0-1.0607l-.997-.9962c-.293-.2929-.767-.2929-1.06 0s-.293.7678 0 1.0607z"/><path d="m537.056 46.889c.298-.0902.615-.139.944-.139h.75c.414 0 .75-.3358.75-.75s-.336-.75-.75-.75h-.75c-.478 0-.942.071-1.379.2035-.396.1201-.62.5388-.5.9352s.539.6204.935.5003z"/><path d="m541.25 45.25c-.414 0-.75.3358-.75.75s.336.75.75.75h.75c.329 0 .646.0488.944.139.396.1201.815-.1039.935-.5003s-.104-.8151-.5-.9352c-.437-.1325-.901-.2035-1.379-.2035z"/><path d="m534.889 49.0559c.12-.3964-.104-.8151-.5-.9352-.397-.1201-.815.1039-.936.5003-.132.4373-.203.9006-.203 1.379v.75c0 .4142.336.75.75.75s.75-.3358.75-.75v-.75c0-.3295.049-.6462.139-.9441z"/><path d="m546.547 48.621c-.121-.3964-.539-.6204-.936-.5003-.396.1201-.62.5388-.5.9352.09.2979.139.6146.139.9441v.75c0 .4142.336.75.75.75s.75-.3358.75-.75v-.75c0-.4784-.071-.9417-.203-1.379z"/><path d="m534.75 53.25c0-.4142-.336-.75-.75-.75s-.75.3358-.75.75v.75c0 .4784.071.9417.203 1.379.121.3964.539.6204.936.5003.396-.1201.62-.5388.5-.9352-.09-.2979-.139-.6146-.139-.9441z"/><path d="m546.75 53.25c0-.4142-.336-.75-.75-.75s-.75.3358-.75.75v.75c0 .3295-.049.6462-.139.9441-.12.3964.104.8151.5.9352.397.1201.815-.1039.936-.5003.132-.4373.203-.9006.203-1.379z"/><path d="m537.056 57.111c-.396-.1201-.815.1039-.935.5003s.104.8151.5.9352c.437.1325.901.2035 1.379.2035h.75c.414 0 .75-.3358.75-.75s-.336-.75-.75-.75h-.75c-.329 0-.646-.0488-.944-.139z"/><path d="m543.379 58.5465c.396-.1201.62-.5388.5-.9352s-.539-.6204-.935-.5003c-.298.0902-.615.139-.944.139h-.75c-.414 0-.75.3358-.75.75s.336.75.75.75h.75c.478 0 .942-.071 1.379-.2035z"/></g><rect height="41" rx="4.5" stroke="#0063a3" width="97" x="491.5" y="31.5"/><path d="m634 42.75c-.442 0-.862.0878-1.244.2463-.382.1587-.821-.0229-.98-.4055s.023-.8214.406-.9801c.561-.2327 1.175-.3607 1.818-.3607h1.5c.414 0 .75.3358.75.75s-.336.75-.75.75z" fill="#252a2e"/><path d="m637.75 42c0-.4142.336-.75.75-.75h3c.414 0 .75.3358.75.75s-.336.75-.75.75h-3c-.414 0-.75-.3358-.75-.75z" fill="#252a2e"/><path d="m643.75 42c0-.4142.336-.75.75-.75h1.5c.643 0 1.257.128 1.818.3607.383.1587.565.5975.406.9801s-.598.5642-.98.4055c-.382-.1585-.802-.2463-1.244-.2463h-1.5c-.414 0-.75-.3358-.75-.75z" fill="#252a2e"/><path d="m630.591 43.7761c.382.1586.564.5974.405.98-.158.3822-.246.8018-.246 1.2439v1.5c0 .4142-.336.75-.75.75s-.75-.3358-.75-.75v-1.5c0-.6427.128-1.2573.361-1.8184.158-.3827.597-.5642.98-.4055z" fill="#252a2e"/><path d="m649.409 43.7761c.383-.1587.822.0228.98.4055.233.5611.361 1.1757.361 1.8184v1.5c0 .4142-.336.75-.75.75s-.75-.3358-.75-.75v-1.5c0-.4421-.088-.8617-.246-1.2439-.159-.3826.023-.8214.405-.98z" fill="#252a2e"/><path d="m630 49.75c.414 0 .75.3358.75.75v3c0 .4142-.336.75-.75.75s-.75-.3358-.75-.75v-3c0-.4142.336-.75.75-.75z" fill="#252a2e"/><path d="m650 49.75c.414 0 .75.3358.75.75v3c0 .4142-.336.75-.75.75s-.75-.3358-.75-.75v-3c0-.4142.336-.75.75-.75z" fill="#252a2e"/><path d="m630 55.75c.414 0 .75.3358.75.75v1.5c0 .4421.088.8617.246 1.2439.159.3826-.023.8214-.405.98-.383.1587-.822-.0228-.98-.4055-.233-.5611-.361-1.1757-.361-1.8184v-1.5c0-.4142.336-.75.75-.75z" fill="#252a2e"/><path d="m650 55.75c.414 0 .75.3358.75.75v1.5c0 .6427-.128 1.2573-.361 1.8184-.158.3827-.597.5642-.98.4055-.382-.1586-.564-.5974-.405-.98.158-.3822.246-.8018.246-1.2439v-1.5c0-.4142.336-.75.75-.75z" fill="#252a2e"/><path d="m631.776 61.4092c.159-.3826.598-.5642.98-.4055.382.1585.802.2463 1.244.2463h1.5c.414 0 .75.3358.75.75s-.336.75-.75.75h-1.5c-.643 0-1.257-.128-1.818-.3607-.383-.1587-.565-.5975-.406-.9801z" fill="#252a2e"/><path d="m648.224 61.4092c.159.3826-.023.8214-.406.9801-.561.2327-1.175.3607-1.818.3607h-1.5c-.414 0-.75-.3358-.75-.75s.336-.75.75-.75h1.5c.442 0 .862-.0878 1.244-.2463.382-.1587.821.0229.98.4055z" fill="#252a2e"/><path d="m637.75 62c0-.4142.336-.75.75-.75h3c.414 0 .75.3358.75.75s-.336.75-.75.75h-3c-.414 0-.75-.3358-.75-.75z" fill="#252a2e"/><path d="m648.53 44.591c.293-.2929.293-.7678 0-1.0607s-.767-.2929-1.06 0l-.997.9962c-.292.2929-.292.7678 0 1.0607.293.2929.768.2929 1.061 0z" fill="#252a2e"/><path d="m645.542 47.5796c.293-.2929.293-.7678 0-1.0606-.293-.2929-.768-.2929-1.061 0l-1.992 1.9924c-.293.2929-.293.7677 0 1.0606s.767.2929 1.06 0z" fill="#252a2e"/><path d="m641.557 51.5645c.293-.2929.293-.7678 0-1.0607s-.768-.2929-1.061 0l-.496.4962-.496-.4962c-.293-.2929-.768-.2929-1.061 0s-.293.7678 0 1.0607l.496.4962-.435.4355c-.293.2929-.293.7678 0 1.0607s.768.2929 1.06 0l.436-.4356.436.4356c.292.2929.767.2929 1.06 0s.293-.7678 0-1.0607l-.435-.4355z" fill="#252a2e"/><path d="m637.572 55.5493c.293-.2929.293-.7678 0-1.0607s-.768-.2929-1.061 0l-1.992 1.9924c-.293.2929-.293.7678 0 1.0607s.768.2929 1.061 0z" fill="#252a2e"/><path d="m633.587 59.5341c.293-.2929.293-.7677 0-1.0606s-.768-.2929-1.06 0l-.997.9962c-.293.2929-.293.7677 0 1.0606s.768.2929 1.061 0z" fill="#252a2e"/><path d="m647.409 60.5303c.293.2929.768.2929 1.061 0s.293-.7677 0-1.0606l-.997-.9962c-.292-.2929-.767-.2929-1.06 0s-.293.7677 0 1.0606z" fill="#252a2e"/><path d="m644.42 57.5417c.293.2929.768.2929 1.061 0s.293-.7678 0-1.0607l-1.992-1.9924c-.293-.2929-.768-.2929-1.061 0s-.293.7678 0 1.0607z" fill="#252a2e"/><path d="m636.451 49.572c.293.2929.767.2929 1.06 0s.293-.7677 0-1.0606l-1.992-1.9924c-.293-.2929-.768-.2929-1.061 0-.293.2928-.293.7677 0 1.0606z" fill="#252a2e"/><path d="m632.466 45.5872c.293.2929.768.2929 1.061 0 .292-.2929.292-.7678 0-1.0607l-.997-.9962c-.293-.2929-.767-.2929-1.06 0s-.293.7678 0 1.0607z" fill="#252a2e"/><path d="m637.056 46.889c.298-.0902.615-.139.944-.139h.75c.414 0 .75-.3358.75-.75s-.336-.75-.75-.75h-.75c-.478 0-.942.071-1.379.2035-.396.1201-.62.5388-.5.9352s.539.6204.935.5003z" fill="#252a2e"/><path d="m641.25 45.25c-.414 0-.75.3358-.75.75s.336.75.75.75h.75c.329 0 .646.0488.944.139.396.1201.815-.1039.935-.5003s-.104-.8151-.5-.9352c-.437-.1325-.901-.2035-1.379-.2035z" fill="#252a2e"/><path d="m634.889 49.0559c.12-.3964-.104-.8151-.5-.9352-.397-.1201-.815.1039-.936.5003-.132.4373-.203.9006-.203 1.379v.75c0 .4142.336.75.75.75s.75-.3358.75-.75v-.75c0-.3295.049-.6462.139-.9441z" fill="#252a2e"/><path d="m646.547 48.621c-.121-.3964-.539-.6204-.936-.5003-.396.1201-.62.5388-.5.9352.09.2979.139.6146.139.9441v.75c0 .4142.336.75.75.75s.75-.3358.75-.75v-.75c0-.4784-.071-.9417-.203-1.379z" fill="#252a2e"/><path d="m634.75 53.25c0-.4142-.336-.75-.75-.75s-.75.3358-.75.75v.75c0 .4784.071.9417.203 1.379.121.3964.539.6204.936.5003.396-.1201.62-.5388.5-.9352-.09-.2979-.139-.6146-.139-.9441z" fill="#252a2e"/><path d="m646.75 53.25c0-.4142-.336-.75-.75-.75s-.75.3358-.75.75v.75c0 .3295-.049.6462-.139.9441-.12.3964.104.8151.5.9352.397.1201.815-.1039.936-.5003.132-.4373.203-.9006.203-1.379z" fill="#252a2e"/><path d="m637.056 57.111c-.396-.1201-.815.1039-.935.5003s.104.8151.5.9352c.437.1325.901.2035 1.379.2035h.75c.414 0 .75-.3358.75-.75s-.336-.75-.75-.75h-.75c-.329 0-.646-.0488-.944-.139z" fill="#252a2e"/><path d="m643.379 58.5465c.396-.1201.62-.5388.5-.9352s-.539-.6204-.935-.5003c-.298.0902-.615.139-.944.139h-.75c-.414 0-.75.3358-.75.75s.336.75.75.75h.75c.478 0 .942-.071 1.379-.2035z" fill="#252a2e"/><path d="m692.5 40v24" stroke="#b7b9c3"/><path d="m738 42.75c-.442 0-.862.0878-1.244.2463-.382.1587-.821-.0229-.98-.4055s.023-.8214.406-.9801c.561-.2327 1.175-.3607 1.818-.3607h1.5c.414 0 .75.3358.75.75s-.336.75-.75.75z" fill="#252a2e"/><path d="m741.75 42c0-.4142.336-.75.75-.75h3c.414 0 .75.3358.75.75s-.336.75-.75.75h-3c-.414 0-.75-.3358-.75-.75z" fill="#252a2e"/><path d="m747.75 42c0-.4142.336-.75.75-.75h1.5c.643 0 1.257.128 1.818.3607.383.1587.565.5975.406.9801s-.598.5642-.98.4055c-.382-.1585-.802-.2463-1.244-.2463h-1.5c-.414 0-.75-.3358-.75-.75z" fill="#252a2e"/><path d="m734.591 43.7761c.382.1586.564.5974.405.98-.158.3822-.246.8018-.246 1.2439v1.5c0 .4142-.336.75-.75.75s-.75-.3358-.75-.75v-1.5c0-.6427.128-1.2573.361-1.8184.158-.3827.597-.5642.98-.4055z" fill="#252a2e"/><path d="m753.409 43.7761c.383-.1587.822.0228.98.4055.233.5611.361 1.1757.361 1.8184v1.5c0 .4142-.336.75-.75.75s-.75-.3358-.75-.75v-1.5c0-.4421-.088-.8617-.246-1.2439-.159-.3826.023-.8214.405-.98z" fill="#252a2e"/><path d="m734 49.75c.414 0 .75.3358.75.75v3c0 .4142-.336.75-.75.75s-.75-.3358-.75-.75v-3c0-.4142.336-.75.75-.75z" fill="#252a2e"/><path d="m754 49.75c.414 0 .75.3358.75.75v3c0 .4142-.336.75-.75.75s-.75-.3358-.75-.75v-3c0-.4142.336-.75.75-.75z" fill="#252a2e"/><path d="m734 55.75c.414 0 .75.3358.75.75v1.5c0 .4421.088.8617.246 1.2439.159.3826-.023.8214-.405.98-.383.1587-.822-.0228-.98-.4055-.233-.5611-.361-1.1757-.361-1.8184v-1.5c0-.4142.336-.75.75-.75z" fill="#252a2e"/><path d="m754 55.75c.414 0 .75.3358.75.75v1.5c0 .6427-.128 1.2573-.361 1.8184-.158.3827-.597.5642-.98.4055-.382-.1586-.564-.5974-.405-.98.158-.3822.246-.8018.246-1.2439v-1.5c0-.4142.336-.75.75-.75z" fill="#252a2e"/><path d="m735.776 61.4092c.159-.3826.598-.5642.98-.4055.382.1585.802.2463 1.244.2463h1.5c.414 0 .75.3358.75.75s-.336.75-.75.75h-1.5c-.643 0-1.257-.128-1.818-.3607-.383-.1587-.565-.5975-.406-.9801z" fill="#252a2e"/><path d="m752.224 61.4092c.159.3826-.023.8214-.406.9801-.561.2327-1.175.3607-1.818.3607h-1.5c-.414 0-.75-.3358-.75-.75s.336-.75.75-.75h1.5c.442 0 .862-.0878 1.244-.2463.382-.1587.821.0229.98.4055z" fill="#252a2e"/><path d="m741.75 62c0-.4142.336-.75.75-.75h3c.414 0 .75.3358.75.75s-.336.75-.75.75h-3c-.414 0-.75-.3358-.75-.75z" fill="#252a2e"/><path d="m752.53 44.591c.293-.2929.293-.7678 0-1.0607s-.767-.2929-1.06 0l-.997.9962c-.292.2929-.292.7678 0 1.0607.293.2929.768.2929 1.061 0z" fill="#252a2e"/><path d="m749.542 47.5796c.293-.2929.293-.7678 0-1.0606-.293-.2929-.768-.2929-1.061 0l-1.992 1.9924c-.293.2929-.293.7677 0 1.0606s.767.2929 1.06 0z" fill="#252a2e"/><path d="m745.557 51.5645c.293-.2929.293-.7678 0-1.0607s-.768-.2929-1.061 0l-.496.4962-.496-.4962c-.293-.2929-.768-.2929-1.061 0s-.293.7678 0 1.0607l.496.4962-.435.4355c-.293.2929-.293.7678 0 1.0607s.768.2929 1.06 0l.436-.4356.436.4356c.292.2929.767.2929 1.06 0s.293-.7678 0-1.0607l-.435-.4355z" fill="#252a2e"/><path d="m741.572 55.5493c.293-.2929.293-.7678 0-1.0607s-.768-.2929-1.061 0l-1.992 1.9924c-.293.2929-.293.7678 0 1.0607s.768.2929 1.061 0z" fill="#252a2e"/><path d="m737.587 59.5341c.293-.2929.293-.7677 0-1.0606s-.768-.2929-1.06 0l-.997.9962c-.293.2929-.293.7677 0 1.0606s.768.2929 1.061 0z" fill="#252a2e"/><path d="m751.409 60.5303c.293.2929.768.2929 1.061 0s.293-.7677 0-1.0606l-.997-.9962c-.292-.2929-.767-.2929-1.06 0s-.293.7677 0 1.0606z" fill="#252a2e"/><path d="m748.42 57.5417c.293.2929.768.2929 1.061 0s.293-.7678 0-1.0607l-1.992-1.9924c-.293-.2929-.768-.2929-1.061 0s-.293.7678 0 1.0607z" fill="#252a2e"/><path d="m740.451 49.572c.293.2929.767.2929 1.06 0s.293-.7677 0-1.0606l-1.992-1.9924c-.293-.2929-.768-.2929-1.061 0-.293.2928-.293.7677 0 1.0606z" fill="#252a2e"/><path d="m736.466 45.5872c.293.2929.768.2929 1.061 0 .292-.2929.292-.7678 0-1.0607l-.997-.9962c-.293-.2929-.767-.2929-1.06 0s-.293.7678 0 1.0607z" fill="#252a2e"/><path d="m741.056 46.889c.298-.0902.615-.139.944-.139h.75c.414 0 .75-.3358.75-.75s-.336-.75-.75-.75h-.75c-.478 0-.942.071-1.379.2035-.396.1201-.62.5388-.5.9352s.539.6204.935.5003z" fill="#252a2e"/><path d="m745.25 45.25c-.414 0-.75.3358-.75.75s.336.75.75.75h.75c.329 0 .646.0488.944.139.396.1201.815-.1039.935-.5003s-.104-.8151-.5-.9352c-.437-.1325-.901-.2035-1.379-.2035z" fill="#252a2e"/><path d="m738.889 49.0559c.12-.3964-.104-.8151-.5-.9352-.397-.1201-.815.1039-.936.5003-.132.4373-.203.9006-.203 1.379v.75c0 .4142.336.75.75.75s.75-.3358.75-.75v-.75c0-.3295.049-.6462.139-.9441z" fill="#252a2e"/><path d="m750.547 48.621c-.121-.3964-.539-.6204-.936-.5003-.396.1201-.62.5388-.5.9352.09.2979.139.6146.139.9441v.75c0 .4142.336.75.75.75s.75-.3358.75-.75v-.75c0-.4784-.071-.9417-.203-1.379z" fill="#252a2e"/><path d="m738.75 53.25c0-.4142-.336-.75-.75-.75s-.75.3358-.75.75v.75c0 .4784.071.9417.203 1.379.121.3964.539.6204.936.5003.396-.1201.62-.5388.5-.9352-.09-.2979-.139-.6146-.139-.9441z" fill="#252a2e"/><path d="m750.75 53.25c0-.4142-.336-.75-.75-.75s-.75.3358-.75.75v.75c0 .3295-.049.6462-.139.9441-.12.3964.104.8151.5.9352.397.1201.815-.1039.936-.5003.132-.4373.203-.9006.203-1.379z" fill="#252a2e"/><path d="m741.056 57.111c-.396-.1201-.815.1039-.935.5003s.104.8151.5.9352c.437.1325.901.2035 1.379.2035h.75c.414 0 .75-.3358.75-.75s-.336-.75-.75-.75h-.75c-.329 0-.646-.0488-.944-.139z" fill="#252a2e"/><path d="m747.379 58.5465c.396-.1201.62-.5388.5-.9352s-.539-.6204-.935-.5003c-.298.0902-.615.139-.944.139h-.75c-.414 0-.75.3358-.75.75s.336.75.75.75h.75c.478 0 .942-.071 1.379-.2035z" fill="#252a2e"/></g><rect height="41" rx="20.5" stroke="#353a40" width="301" x="491.5" y="31.5"/></g><g clip-path="url(#e)"><path d="m0 0h960v104h-960z" fill="#f1f1f6" transform="translate(0 112)"/><g clip-path="url(#f)"><rect fill="#0063a3" height="41" rx="4.5" width="71" x="167.5" y="143.5"/><g fill="#fff"><path d="m197 154.75c-.442 0-.862.088-1.244.246-.382.159-.821-.023-.98-.405-.159-.383.023-.822.406-.98.561-.233 1.175-.361 1.818-.361h1.5c.414 0 .75.336.75.75s-.336.75-.75.75z"/><path d="m200.75 154c0-.414.336-.75.75-.75h3c.414 0 .75.336.75.75s-.336.75-.75.75h-3c-.414 0-.75-.336-.75-.75z"/><path d="m206.75 154c0-.414.336-.75.75-.75h1.5c.643 0 1.257.128 1.818.361.383.158.565.597.406.98-.159.382-.598.564-.98.405-.382-.158-.802-.246-1.244-.246h-1.5c-.414 0-.75-.336-.75-.75z"/><path d="m193.591 155.776c.382.159.564.598.405.98-.158.382-.246.802-.246 1.244v1.5c0 .414-.336.75-.75.75s-.75-.336-.75-.75v-1.5c0-.643.128-1.257.361-1.818.158-.383.597-.565.98-.406z"/><path d="m212.409 155.776c.383-.159.822.023.98.406.233.561.361 1.175.361 1.818v1.5c0 .414-.336.75-.75.75s-.75-.336-.75-.75v-1.5c0-.442-.088-.862-.246-1.244-.159-.382.023-.821.405-.98z"/><path d="m193 161.75c.414 0 .75.336.75.75v3c0 .414-.336.75-.75.75s-.75-.336-.75-.75v-3c0-.414.336-.75.75-.75z"/><path d="m213 161.75c.414 0 .75.336.75.75v3c0 .414-.336.75-.75.75s-.75-.336-.75-.75v-3c0-.414.336-.75.75-.75z"/><path d="m193 167.75c.414 0 .75.336.75.75v1.5c0 .442.088.862.246 1.244.159.382-.023.821-.405.98-.383.159-.822-.023-.98-.406-.233-.561-.361-1.175-.361-1.818v-1.5c0-.414.336-.75.75-.75z"/><path d="m213 167.75c.414 0 .75.336.75.75v1.5c0 .643-.128 1.257-.361 1.818-.158.383-.597.565-.98.406-.382-.159-.564-.598-.405-.98.158-.382.246-.802.246-1.244v-1.5c0-.414.336-.75.75-.75z"/><path d="m194.776 173.409c.159-.382.598-.564.98-.405.382.158.802.246 1.244.246h1.5c.414 0 .75.336.75.75s-.336.75-.75.75h-1.5c-.643 0-1.257-.128-1.818-.361-.383-.158-.565-.597-.406-.98z"/><path d="m211.224 173.409c.159.383-.023.822-.406.98-.561.233-1.175.361-1.818.361h-1.5c-.414 0-.75-.336-.75-.75s.336-.75.75-.75h1.5c.442 0 .862-.088 1.244-.246.382-.159.821.023.98.405z"/><path d="m200.75 174c0-.414.336-.75.75-.75h3c.414 0 .75.336.75.75s-.336.75-.75.75h-3c-.414 0-.75-.336-.75-.75z"/><path d="m211.53 156.591c.293-.293.293-.768 0-1.061s-.767-.293-1.06 0l-.997.997c-.292.292-.292.767 0 1.06.293.293.768.293 1.061 0z"/><path d="m208.542 159.58c.293-.293.293-.768 0-1.061s-.768-.293-1.061 0l-1.992 1.992c-.293.293-.293.768 0 1.061s.767.293 1.06 0z"/><path d="m204.557 163.564c.293-.292.293-.767 0-1.06s-.768-.293-1.061 0l-.496.496-.496-.496c-.293-.293-.768-.293-1.061 0s-.293.768 0 1.06l.496.497-.435.435c-.293.293-.293.768 0 1.061s.768.293 1.06 0l.436-.436.436.436c.292.293.767.293 1.06 0s.293-.768 0-1.061l-.435-.435z"/><path d="m200.572 167.549c.293-.293.293-.767 0-1.06s-.768-.293-1.061 0l-1.992 1.992c-.293.293-.293.768 0 1.061s.768.293 1.061 0z"/><path d="m196.587 171.534c.293-.293.293-.768 0-1.061-.293-.292-.768-.292-1.06 0l-.997.997c-.293.293-.293.767 0 1.06s.768.293 1.061 0z"/><path d="m210.409 172.53c.293.293.768.293 1.061 0s.293-.767 0-1.06l-.997-.997c-.292-.292-.767-.292-1.06 0-.293.293-.293.768 0 1.061z"/><path d="m207.42 169.542c.293.293.768.293 1.061 0s.293-.768 0-1.061l-1.992-1.992c-.293-.293-.768-.293-1.061 0s-.293.767 0 1.06z"/><path d="m199.451 161.572c.293.293.767.293 1.06 0s.293-.768 0-1.061l-1.992-1.992c-.293-.293-.768-.293-1.061 0s-.293.768 0 1.061z"/><path d="m195.466 157.587c.293.293.768.293 1.061 0 .292-.293.292-.768 0-1.06l-.997-.997c-.293-.293-.767-.293-1.06 0s-.293.768 0 1.061z"/><path d="m200.056 158.889c.298-.09.615-.139.944-.139h.75c.414 0 .75-.336.75-.75s-.336-.75-.75-.75h-.75c-.478 0-.942.071-1.379.203-.396.121-.62.539-.5.936.12.396.539.62.935.5z"/><path d="m204.25 157.25c-.414 0-.75.336-.75.75s.336.75.75.75h.75c.329 0 .646.049.944.139.396.12.815-.104.935-.5.12-.397-.104-.815-.5-.936-.437-.132-.901-.203-1.379-.203z"/><path d="m197.889 161.056c.12-.396-.104-.815-.5-.935-.397-.12-.815.104-.936.5-.132.437-.203.901-.203 1.379v.75c0 .414.336.75.75.75s.75-.336.75-.75v-.75c0-.329.049-.646.139-.944z"/><path d="m209.547 160.621c-.121-.396-.539-.62-.936-.5-.396.12-.62.539-.5.935.09.298.139.615.139.944v.75c0 .414.336.75.75.75s.75-.336.75-.75v-.75c0-.478-.071-.942-.203-1.379z"/><path d="m197.75 165.25c0-.414-.336-.75-.75-.75s-.75.336-.75.75v.75c0 .478.071.942.203 1.379.121.396.539.62.936.5.396-.12.62-.539.5-.935-.09-.298-.139-.615-.139-.944z"/><path d="m209.75 165.25c0-.414-.336-.75-.75-.75s-.75.336-.75.75v.75c0 .329-.049.646-.139.944-.12.396.104.815.5.935.397.12.815-.104.936-.5.132-.437.203-.901.203-1.379z"/><path d="m200.056 169.111c-.396-.12-.815.104-.935.5-.12.397.104.815.5.936.437.132.901.203 1.379.203h.75c.414 0 .75-.336.75-.75s-.336-.75-.75-.75h-.75c-.329 0-.646-.049-.944-.139z"/><path d="m206.379 170.547c.396-.121.62-.539.5-.936-.12-.396-.539-.62-.935-.5-.298.09-.615.139-.944.139h-.75c-.414 0-.75.336-.75.75s.336.75.75.75h.75c.478 0 .942-.071 1.379-.203z"/></g><rect height="41" rx="4.5" stroke="#0063a3" width="71" x="167.5" y="143.5"/><path d="m271 154.75c-.442 0-.862.088-1.244.246-.382.159-.821-.023-.98-.405-.159-.383.023-.822.406-.98.561-.233 1.175-.361 1.818-.361h1.5c.414 0 .75.336.75.75s-.336.75-.75.75z" fill="#252a2e"/><path d="m274.75 154c0-.414.336-.75.75-.75h3c.414 0 .75.336.75.75s-.336.75-.75.75h-3c-.414 0-.75-.336-.75-.75z" fill="#252a2e"/><path d="m280.75 154c0-.414.336-.75.75-.75h1.5c.643 0 1.257.128 1.818.361.383.158.565.597.406.98-.159.382-.598.564-.98.405-.382-.158-.802-.246-1.244-.246h-1.5c-.414 0-.75-.336-.75-.75z" fill="#252a2e"/><path d="m267.591 155.776c.382.159.564.598.405.98-.158.382-.246.802-.246 1.244v1.5c0 .414-.336.75-.75.75s-.75-.336-.75-.75v-1.5c0-.643.128-1.257.361-1.818.158-.383.597-.565.98-.406z" fill="#252a2e"/><path d="m286.409 155.776c.383-.159.822.023.98.406.233.561.361 1.175.361 1.818v1.5c0 .414-.336.75-.75.75s-.75-.336-.75-.75v-1.5c0-.442-.088-.862-.246-1.244-.159-.382.023-.821.405-.98z" fill="#252a2e"/><path d="m267 161.75c.414 0 .75.336.75.75v3c0 .414-.336.75-.75.75s-.75-.336-.75-.75v-3c0-.414.336-.75.75-.75z" fill="#252a2e"/><path d="m287 161.75c.414 0 .75.336.75.75v3c0 .414-.336.75-.75.75s-.75-.336-.75-.75v-3c0-.414.336-.75.75-.75z" fill="#252a2e"/><path d="m267 167.75c.414 0 .75.336.75.75v1.5c0 .442.088.862.246 1.244.159.382-.023.821-.405.98-.383.159-.822-.023-.98-.406-.233-.561-.361-1.175-.361-1.818v-1.5c0-.414.336-.75.75-.75z" fill="#252a2e"/><path d="m287 167.75c.414 0 .75.336.75.75v1.5c0 .643-.128 1.257-.361 1.818-.158.383-.597.565-.98.406-.382-.159-.564-.598-.405-.98.158-.382.246-.802.246-1.244v-1.5c0-.414.336-.75.75-.75z" fill="#252a2e"/><path d="m268.776 173.409c.159-.382.598-.564.98-.405.382.158.802.246 1.244.246h1.5c.414 0 .75.336.75.75s-.336.75-.75.75h-1.5c-.643 0-1.257-.128-1.818-.361-.383-.158-.565-.597-.406-.98z" fill="#252a2e"/><path d="m285.224 173.409c.159.383-.023.822-.406.98-.561.233-1.175.361-1.818.361h-1.5c-.414 0-.75-.336-.75-.75s.336-.75.75-.75h1.5c.442 0 .862-.088 1.244-.246.382-.159.821.023.98.405z" fill="#252a2e"/><path d="m274.75 174c0-.414.336-.75.75-.75h3c.414 0 .75.336.75.75s-.336.75-.75.75h-3c-.414 0-.75-.336-.75-.75z" fill="#252a2e"/><path d="m285.53 156.591c.293-.293.293-.768 0-1.061s-.767-.293-1.06 0l-.997.997c-.292.292-.292.767 0 1.06.293.293.768.293 1.061 0z" fill="#252a2e"/><path d="m282.542 159.58c.293-.293.293-.768 0-1.061s-.768-.293-1.061 0l-1.992 1.992c-.293.293-.293.768 0 1.061s.767.293 1.06 0z" fill="#252a2e"/><path d="m278.557 163.564c.293-.292.293-.767 0-1.06s-.768-.293-1.061 0l-.496.496-.496-.496c-.293-.293-.768-.293-1.061 0s-.293.768 0 1.06l.496.497-.435.435c-.293.293-.293.768 0 1.061s.768.293 1.06 0l.436-.436.436.436c.292.293.767.293 1.06 0s.293-.768 0-1.061l-.435-.435z" fill="#252a2e"/><path d="m274.572 167.549c.293-.293.293-.767 0-1.06s-.768-.293-1.061 0l-1.992 1.992c-.293.293-.293.768 0 1.061s.768.293 1.061 0z" fill="#252a2e"/><path d="m270.587 171.534c.293-.293.293-.768 0-1.061-.293-.292-.768-.292-1.06 0l-.997.997c-.293.293-.293.767 0 1.06s.768.293 1.061 0z" fill="#252a2e"/><path d="m284.409 172.53c.293.293.768.293 1.061 0s.293-.767 0-1.06l-.997-.997c-.292-.292-.767-.292-1.06 0-.293.293-.293.768 0 1.061z" fill="#252a2e"/><path d="m281.42 169.542c.293.293.768.293 1.061 0s.293-.768 0-1.061l-1.992-1.992c-.293-.293-.768-.293-1.061 0s-.293.767 0 1.06z" fill="#252a2e"/><path d="m273.451 161.572c.293.293.767.293 1.06 0s.293-.768 0-1.061l-1.992-1.992c-.293-.293-.768-.293-1.061 0s-.293.768 0 1.061z" fill="#252a2e"/><path d="m269.466 157.587c.293.293.768.293 1.061 0 .292-.293.292-.768 0-1.06l-.997-.997c-.293-.293-.767-.293-1.06 0s-.293.768 0 1.061z" fill="#252a2e"/><path d="m274.056 158.889c.298-.09.615-.139.944-.139h.75c.414 0 .75-.336.75-.75s-.336-.75-.75-.75h-.75c-.478 0-.942.071-1.379.203-.396.121-.62.539-.5.936.12.396.539.62.935.5z" fill="#252a2e"/><path d="m278.25 157.25c-.414 0-.75.336-.75.75s.336.75.75.75h.75c.329 0 .646.049.944.139.396.12.815-.104.935-.5.12-.397-.104-.815-.5-.936-.437-.132-.901-.203-1.379-.203z" fill="#252a2e"/><path d="m271.889 161.056c.12-.396-.104-.815-.5-.935-.397-.12-.815.104-.936.5-.132.437-.203.901-.203 1.379v.75c0 .414.336.75.75.75s.75-.336.75-.75v-.75c0-.329.049-.646.139-.944z" fill="#252a2e"/><path d="m283.547 160.621c-.121-.396-.539-.62-.936-.5-.396.12-.62.539-.5.935.09.298.139.615.139.944v.75c0 .414.336.75.75.75s.75-.336.75-.75v-.75c0-.478-.071-.942-.203-1.379z" fill="#252a2e"/><path d="m271.75 165.25c0-.414-.336-.75-.75-.75s-.75.336-.75.75v.75c0 .478.071.942.203 1.379.121.396.539.62.936.5.396-.12.62-.539.5-.935-.09-.298-.139-.615-.139-.944z" fill="#252a2e"/><path d="m283.75 165.25c0-.414-.336-.75-.75-.75s-.75.336-.75.75v.75c0 .329-.049.646-.139.944-.12.396.104.815.5.935.397.12.815-.104.936-.5.132-.437.203-.901.203-1.379z" fill="#252a2e"/><path d="m274.056 169.111c-.396-.12-.815.104-.935.5-.12.397.104.815.5.936.437.132.901.203 1.379.203h.75c.414 0 .75-.336.75-.75s-.336-.75-.75-.75h-.75c-.329 0-.646-.049-.944-.139z" fill="#252a2e"/><path d="m280.379 170.547c.396-.121.62-.539.5-.936-.12-.396-.539-.62-.935-.5-.298.09-.615.139-.944.139h-.75c-.414 0-.75.336-.75.75s.336.75.75.75h.75c.478 0 .942-.071 1.379-.203z" fill="#252a2e"/><path d="m316.5 152v24" stroke="#b7b9c3"/><path d="m349 154.75c-.442 0-.862.088-1.244.246-.382.159-.821-.023-.98-.405-.159-.383.023-.822.406-.98.561-.233 1.175-.361 1.818-.361h1.5c.414 0 .75.336.75.75s-.336.75-.75.75z" fill="#252a2e"/><path d="m352.75 154c0-.414.336-.75.75-.75h3c.414 0 .75.336.75.75s-.336.75-.75.75h-3c-.414 0-.75-.336-.75-.75z" fill="#252a2e"/><path d="m358.75 154c0-.414.336-.75.75-.75h1.5c.643 0 1.257.128 1.818.361.383.158.565.597.406.98-.159.382-.598.564-.98.405-.382-.158-.802-.246-1.244-.246h-1.5c-.414 0-.75-.336-.75-.75z" fill="#252a2e"/><path d="m345.591 155.776c.382.159.564.598.405.98-.158.382-.246.802-.246 1.244v1.5c0 .414-.336.75-.75.75s-.75-.336-.75-.75v-1.5c0-.643.128-1.257.361-1.818.158-.383.597-.565.98-.406z" fill="#252a2e"/><path d="m364.409 155.776c.383-.159.822.023.98.406.233.561.361 1.175.361 1.818v1.5c0 .414-.336.75-.75.75s-.75-.336-.75-.75v-1.5c0-.442-.088-.862-.246-1.244-.159-.382.023-.821.405-.98z" fill="#252a2e"/><path d="m345 161.75c.414 0 .75.336.75.75v3c0 .414-.336.75-.75.75s-.75-.336-.75-.75v-3c0-.414.336-.75.75-.75z" fill="#252a2e"/><path d="m365 161.75c.414 0 .75.336.75.75v3c0 .414-.336.75-.75.75s-.75-.336-.75-.75v-3c0-.414.336-.75.75-.75z" fill="#252a2e"/><path d="m345 167.75c.414 0 .75.336.75.75v1.5c0 .442.088.862.246 1.244.159.382-.023.821-.405.98-.383.159-.822-.023-.98-.406-.233-.561-.361-1.175-.361-1.818v-1.5c0-.414.336-.75.75-.75z" fill="#252a2e"/><path d="m365 167.75c.414 0 .75.336.75.75v1.5c0 .643-.128 1.257-.361 1.818-.158.383-.597.565-.98.406-.382-.159-.564-.598-.405-.98.158-.382.246-.802.246-1.244v-1.5c0-.414.336-.75.75-.75z" fill="#252a2e"/><path d="m346.776 173.409c.159-.382.598-.564.98-.405.382.158.802.246 1.244.246h1.5c.414 0 .75.336.75.75s-.336.75-.75.75h-1.5c-.643 0-1.257-.128-1.818-.361-.383-.158-.565-.597-.406-.98z" fill="#252a2e"/><path d="m363.224 173.409c.159.383-.023.822-.406.98-.561.233-1.175.361-1.818.361h-1.5c-.414 0-.75-.336-.75-.75s.336-.75.75-.75h1.5c.442 0 .862-.088 1.244-.246.382-.159.821.023.98.405z" fill="#252a2e"/><path d="m352.75 174c0-.414.336-.75.75-.75h3c.414 0 .75.336.75.75s-.336.75-.75.75h-3c-.414 0-.75-.336-.75-.75z" fill="#252a2e"/><path d="m363.53 156.591c.293-.293.293-.768 0-1.061s-.767-.293-1.06 0l-.997.997c-.292.292-.292.767 0 1.06.293.293.768.293 1.061 0z" fill="#252a2e"/><path d="m360.542 159.58c.293-.293.293-.768 0-1.061s-.768-.293-1.061 0l-1.992 1.992c-.293.293-.293.768 0 1.061s.767.293 1.06 0z" fill="#252a2e"/><path d="m356.557 163.564c.293-.292.293-.767 0-1.06s-.768-.293-1.061 0l-.496.496-.496-.496c-.293-.293-.768-.293-1.061 0s-.293.768 0 1.06l.496.497-.435.435c-.293.293-.293.768 0 1.061s.768.293 1.06 0l.436-.436.436.436c.292.293.767.293 1.06 0s.293-.768 0-1.061l-.435-.435z" fill="#252a2e"/><path d="m352.572 167.549c.293-.293.293-.767 0-1.06s-.768-.293-1.061 0l-1.992 1.992c-.293.293-.293.768 0 1.061s.768.293 1.061 0z" fill="#252a2e"/><path d="m348.587 171.534c.293-.293.293-.768 0-1.061-.293-.292-.768-.292-1.06 0l-.997.997c-.293.293-.293.767 0 1.06s.768.293 1.061 0z" fill="#252a2e"/><path d="m362.409 172.53c.293.293.768.293 1.061 0s.293-.767 0-1.06l-.997-.997c-.292-.292-.767-.292-1.06 0-.293.293-.293.768 0 1.061z" fill="#252a2e"/><path d="m359.42 169.542c.293.293.768.293 1.061 0s.293-.768 0-1.061l-1.992-1.992c-.293-.293-.768-.293-1.061 0s-.293.767 0 1.06z" fill="#252a2e"/><path d="m351.451 161.572c.293.293.767.293 1.06 0s.293-.768 0-1.061l-1.992-1.992c-.293-.293-.768-.293-1.061 0s-.293.768 0 1.061z" fill="#252a2e"/><path d="m347.466 157.587c.293.293.768.293 1.061 0 .292-.293.292-.768 0-1.06l-.997-.997c-.293-.293-.767-.293-1.06 0s-.293.768 0 1.061z" fill="#252a2e"/><path d="m352.056 158.889c.298-.09.615-.139.944-.139h.75c.414 0 .75-.336.75-.75s-.336-.75-.75-.75h-.75c-.478 0-.942.071-1.379.203-.396.121-.62.539-.5.936.12.396.539.62.935.5z" fill="#252a2e"/><path d="m356.25 157.25c-.414 0-.75.336-.75.75s.336.75.75.75h.75c.329 0 .646.049.944.139.396.12.815-.104.935-.5.12-.397-.104-.815-.5-.936-.437-.132-.901-.203-1.379-.203z" fill="#252a2e"/><path d="m349.889 161.056c.12-.396-.104-.815-.5-.935-.397-.12-.815.104-.936.5-.132.437-.203.901-.203 1.379v.75c0 .414.336.75.75.75s.75-.336.75-.75v-.75c0-.329.049-.646.139-.944z" fill="#252a2e"/><path d="m361.547 160.621c-.121-.396-.539-.62-.936-.5-.396.12-.62.539-.5.935.09.298.139.615.139.944v.75c0 .414.336.75.75.75s.75-.336.75-.75v-.75c0-.478-.071-.942-.203-1.379z" fill="#252a2e"/><path d="m349.75 165.25c0-.414-.336-.75-.75-.75s-.75.336-.75.75v.75c0 .478.071.942.203 1.379.121.396.539.62.936.5.396-.12.62-.539.5-.935-.09-.298-.139-.615-.139-.944z" fill="#252a2e"/><path d="m361.75 165.25c0-.414-.336-.75-.75-.75s-.75.336-.75.75v.75c0 .329-.049.646-.139.944-.12.396.104.815.5.935.397.12.815-.104.936-.5.132-.437.203-.901.203-1.379z" fill="#252a2e"/><path d="m352.056 169.111c-.396-.12-.815.104-.935.5-.12.397.104.815.5.936.437.132.901.203 1.379.203h.75c.414 0 .75-.336.75-.75s-.336-.75-.75-.75h-.75c-.329 0-.646-.049-.944-.139z" fill="#252a2e"/><path d="m358.379 170.547c.396-.121.62-.539.5-.936-.12-.396-.539-.62-.935-.5-.298.09-.615.139-.944.139h-.75c-.414 0-.75.336-.75.75s.336.75.75.75h.75c.478 0 .942-.071 1.379-.203z" fill="#252a2e"/><path d="m394.5 152v24" stroke="#b7b9c3"/><path d="m427 154.75c-.442 0-.862.088-1.244.246-.382.159-.821-.023-.98-.405-.159-.383.023-.822.406-.98.561-.233 1.175-.361 1.818-.361h1.5c.414 0 .75.336.75.75s-.336.75-.75.75z" fill="#252a2e"/><path d="m430.75 154c0-.414.336-.75.75-.75h3c.414 0 .75.336.75.75s-.336.75-.75.75h-3c-.414 0-.75-.336-.75-.75z" fill="#252a2e"/><path d="m436.75 154c0-.414.336-.75.75-.75h1.5c.643 0 1.257.128 1.818.361.383.158.565.597.406.98-.159.382-.598.564-.98.405-.382-.158-.802-.246-1.244-.246h-1.5c-.414 0-.75-.336-.75-.75z" fill="#252a2e"/><path d="m423.591 155.776c.382.159.564.598.405.98-.158.382-.246.802-.246 1.244v1.5c0 .414-.336.75-.75.75s-.75-.336-.75-.75v-1.5c0-.643.128-1.257.361-1.818.158-.383.597-.565.98-.406z" fill="#252a2e"/><path d="m442.409 155.776c.383-.159.822.023.98.406.233.561.361 1.175.361 1.818v1.5c0 .414-.336.75-.75.75s-.75-.336-.75-.75v-1.5c0-.442-.088-.862-.246-1.244-.159-.382.023-.821.405-.98z" fill="#252a2e"/><path d="m423 161.75c.414 0 .75.336.75.75v3c0 .414-.336.75-.75.75s-.75-.336-.75-.75v-3c0-.414.336-.75.75-.75z" fill="#252a2e"/><path d="m443 161.75c.414 0 .75.336.75.75v3c0 .414-.336.75-.75.75s-.75-.336-.75-.75v-3c0-.414.336-.75.75-.75z" fill="#252a2e"/><path d="m423 167.75c.414 0 .75.336.75.75v1.5c0 .442.088.862.246 1.244.159.382-.023.821-.405.98-.383.159-.822-.023-.98-.406-.233-.561-.361-1.175-.361-1.818v-1.5c0-.414.336-.75.75-.75z" fill="#252a2e"/><path d="m443 167.75c.414 0 .75.336.75.75v1.5c0 .643-.128 1.257-.361 1.818-.158.383-.597.565-.98.406-.382-.159-.564-.598-.405-.98.158-.382.246-.802.246-1.244v-1.5c0-.414.336-.75.75-.75z" fill="#252a2e"/><path d="m424.776 173.409c.159-.382.598-.564.98-.405.382.158.802.246 1.244.246h1.5c.414 0 .75.336.75.75s-.336.75-.75.75h-1.5c-.643 0-1.257-.128-1.818-.361-.383-.158-.565-.597-.406-.98z" fill="#252a2e"/><path d="m441.224 173.409c.159.383-.023.822-.406.98-.561.233-1.175.361-1.818.361h-1.5c-.414 0-.75-.336-.75-.75s.336-.75.75-.75h1.5c.442 0 .862-.088 1.244-.246.382-.159.821.023.98.405z" fill="#252a2e"/><path d="m430.75 174c0-.414.336-.75.75-.75h3c.414 0 .75.336.75.75s-.336.75-.75.75h-3c-.414 0-.75-.336-.75-.75z" fill="#252a2e"/><path d="m441.53 156.591c.293-.293.293-.768 0-1.061s-.767-.293-1.06 0l-.997.997c-.292.292-.292.767 0 1.06.293.293.768.293 1.061 0z" fill="#252a2e"/><path d="m438.542 159.58c.293-.293.293-.768 0-1.061s-.768-.293-1.061 0l-1.992 1.992c-.293.293-.293.768 0 1.061s.767.293 1.06 0z" fill="#252a2e"/><path d="m434.557 163.564c.293-.292.293-.767 0-1.06s-.768-.293-1.061 0l-.496.496-.496-.496c-.293-.293-.768-.293-1.061 0s-.293.768 0 1.06l.496.497-.435.435c-.293.293-.293.768 0 1.061s.768.293 1.06 0l.436-.436.436.436c.292.293.767.293 1.06 0s.293-.768 0-1.061l-.435-.435z" fill="#252a2e"/><path d="m430.572 167.549c.293-.293.293-.767 0-1.06s-.768-.293-1.061 0l-1.992 1.992c-.293.293-.293.768 0 1.061s.768.293 1.061 0z" fill="#252a2e"/><path d="m426.587 171.534c.293-.293.293-.768 0-1.061-.293-.292-.768-.292-1.06 0l-.997.997c-.293.293-.293.767 0 1.06s.768.293 1.061 0z" fill="#252a2e"/><path d="m440.409 172.53c.293.293.768.293 1.061 0s.293-.767 0-1.06l-.997-.997c-.292-.292-.767-.292-1.06 0-.293.293-.293.768 0 1.061z" fill="#252a2e"/><path d="m437.42 169.542c.293.293.768.293 1.061 0s.293-.768 0-1.061l-1.992-1.992c-.293-.293-.768-.293-1.061 0s-.293.767 0 1.06z" fill="#252a2e"/><path d="m429.451 161.572c.293.293.767.293 1.06 0s.293-.768 0-1.061l-1.992-1.992c-.293-.293-.768-.293-1.061 0s-.293.768 0 1.061z" fill="#252a2e"/><path d="m425.466 157.587c.293.293.768.293 1.061 0 .292-.293.292-.768 0-1.06l-.997-.997c-.293-.293-.767-.293-1.06 0s-.293.768 0 1.061z" fill="#252a2e"/><path d="m430.056 158.889c.298-.09.615-.139.944-.139h.75c.414 0 .75-.336.75-.75s-.336-.75-.75-.75h-.75c-.478 0-.942.071-1.379.203-.396.121-.62.539-.5.936.12.396.539.62.935.5z" fill="#252a2e"/><path d="m434.25 157.25c-.414 0-.75.336-.75.75s.336.75.75.75h.75c.329 0 .646.049.944.139.396.12.815-.104.935-.5.12-.397-.104-.815-.5-.936-.437-.132-.901-.203-1.379-.203z" fill="#252a2e"/><path d="m427.889 161.056c.12-.396-.104-.815-.5-.935-.397-.12-.815.104-.936.5-.132.437-.203.901-.203 1.379v.75c0 .414.336.75.75.75s.75-.336.75-.75v-.75c0-.329.049-.646.139-.944z" fill="#252a2e"/><path d="m439.547 160.621c-.121-.396-.539-.62-.936-.5-.396.12-.62.539-.5.935.09.298.139.615.139.944v.75c0 .414.336.75.75.75s.75-.336.75-.75v-.75c0-.478-.071-.942-.203-1.379z" fill="#252a2e"/><path d="m427.75 165.25c0-.414-.336-.75-.75-.75s-.75.336-.75.75v.75c0 .478.071.942.203 1.379.121.396.539.62.936.5.396-.12.62-.539.5-.935-.09-.298-.139-.615-.139-.944z" fill="#252a2e"/><path d="m439.75 165.25c0-.414-.336-.75-.75-.75s-.75.336-.75.75v.75c0 .329-.049.646-.139.944-.12.396.104.815.5.935.397.12.815-.104.936-.5.132-.437.203-.901.203-1.379z" fill="#252a2e"/><path d="m430.056 169.111c-.396-.12-.815.104-.935.5-.12.397.104.815.5.936.437.132.901.203 1.379.203h.75c.414 0 .75-.336.75-.75s-.336-.75-.75-.75h-.75c-.329 0-.646-.049-.944-.139z" fill="#252a2e"/><path d="m436.379 170.547c.396-.121.62-.539.5-.936-.12-.396-.539-.62-.935-.5-.298.09-.615.139-.944.139h-.75c-.414 0-.75.336-.75.75s.336.75.75.75h.75c.478 0 .942-.071 1.379-.203z" fill="#252a2e"/></g><rect height="41" rx="20.5" stroke="#353a40" width="301" x="167.5" y="143.5"/><g clip-path="url(#g)"><rect fill="#0063a3" height="41" rx="6.5" width="55.4" x="491.5" y="143.5"/><g fill="#fff"><path d="m513.199 154.75c-.442 0-.861.088-1.244.246-.382.159-.821-.023-.98-.405-.158-.383.023-.822.406-.98.561-.233 1.176-.361 1.818-.361h1.5c.414 0 .75.336.75.75s-.336.75-.75.75z"/><path d="m516.949 154c0-.414.336-.75.75-.75h3c.414 0 .75.336.75.75s-.336.75-.75.75h-3c-.414 0-.75-.336-.75-.75z"/><path d="m522.949 154c0-.414.336-.75.75-.75h1.5c.643 0 1.258.128 1.819.361.382.158.564.597.405.98-.159.382-.597.564-.98.405-.382-.158-.802-.246-1.244-.246h-1.5c-.414 0-.75-.336-.75-.75z"/><path d="m509.79 155.776c.383.159.564.598.406.98-.159.382-.247.802-.247 1.244v1.5c0 .414-.336.75-.75.75s-.75-.336-.75-.75v-1.5c0-.643.128-1.257.361-1.818.159-.383.597-.565.98-.406z"/><path d="m528.608 155.776c.383-.159.822.023.98.406.233.561.361 1.175.361 1.818v1.5c0 .414-.336.75-.75.75s-.75-.336-.75-.75v-1.5c0-.442-.088-.862-.246-1.244-.159-.382.023-.821.405-.98z"/><path d="m509.199 161.75c.414 0 .75.336.75.75v3c0 .414-.336.75-.75.75s-.75-.336-.75-.75v-3c0-.414.336-.75.75-.75z"/><path d="m529.199 161.75c.414 0 .75.336.75.75v3c0 .414-.336.75-.75.75s-.75-.336-.75-.75v-3c0-.414.336-.75.75-.75z"/><path d="m509.199 167.75c.414 0 .75.336.75.75v1.5c0 .442.088.862.247 1.244.158.382-.023.821-.406.98s-.821-.023-.98-.406c-.233-.561-.361-1.175-.361-1.818v-1.5c0-.414.336-.75.75-.75z"/><path d="m529.199 167.75c.414 0 .75.336.75.75v1.5c0 .643-.128 1.257-.361 1.818-.158.383-.597.565-.98.406-.382-.159-.564-.598-.405-.98.158-.382.246-.802.246-1.244v-1.5c0-.414.336-.75.75-.75z"/><path d="m510.975 173.409c.159-.382.598-.564.98-.405.383.158.802.246 1.244.246h1.5c.414 0 .75.336.75.75s-.336.75-.75.75h-1.5c-.642 0-1.257-.128-1.818-.361-.383-.158-.564-.597-.406-.98z"/><path d="m527.423 173.409c.159.383-.023.822-.405.98-.561.233-1.176.361-1.819.361h-1.5c-.414 0-.75-.336-.75-.75s.336-.75.75-.75h1.5c.442 0 .862-.088 1.244-.246.383-.159.821.023.98.405z"/><path d="m516.949 174c0-.414.336-.75.75-.75h3c.414 0 .75.336.75.75s-.336.75-.75.75h-3c-.414 0-.75-.336-.75-.75z"/><path d="m527.73 156.591c.292-.293.292-.768 0-1.061-.293-.293-.768-.293-1.061 0l-.996.997c-.293.292-.293.767 0 1.06s.767.293 1.06 0z"/><path d="m524.741 159.58c.293-.293.293-.768 0-1.061s-.768-.293-1.061 0l-1.992 1.992c-.293.293-.293.768 0 1.061s.768.293 1.061 0z"/><path d="m520.756 163.564c.293-.292.293-.767 0-1.06s-.768-.293-1.061 0l-.496.496-.496-.496c-.293-.293-.768-.293-1.061 0s-.293.768 0 1.06l.497.497-.436.435c-.293.293-.293.768 0 1.061s.768.293 1.061 0l.435-.436.436.436c.293.293.768.293 1.06 0 .293-.293.293-.768 0-1.061l-.435-.435z"/><path d="m516.771 167.549c.293-.293.293-.767 0-1.06s-.768-.293-1.06 0l-1.993 1.992c-.293.293-.293.768 0 1.061s.768.293 1.061 0z"/><path d="m512.786 171.534c.293-.293.293-.768 0-1.061-.292-.292-.767-.292-1.06 0l-.996.997c-.293.293-.293.767 0 1.06.292.293.767.293 1.06 0z"/><path d="m526.608 172.53c.293.293.768.293 1.061 0s.293-.767 0-1.06l-.996-.997c-.293-.292-.768-.292-1.061 0-.293.293-.293.768 0 1.061z"/><path d="m523.62 169.542c.292.293.767.293 1.06 0s.293-.768 0-1.061l-1.992-1.992c-.293-.293-.768-.293-1.061 0s-.293.767 0 1.06z"/><path d="m515.65 161.572c.293.293.768.293 1.061 0 .292-.293.292-.768 0-1.061l-1.993-1.992c-.293-.293-.768-.293-1.06 0-.293.293-.293.768 0 1.061z"/><path d="m511.665 157.587c.293.293.768.293 1.061 0s.293-.768 0-1.06l-.996-.997c-.293-.293-.768-.293-1.061 0s-.293.768 0 1.061z"/><path d="m516.255 158.889c.298-.09.615-.139.944-.139h.75c.414 0 .75-.336.75-.75s-.336-.75-.75-.75h-.75c-.478 0-.941.071-1.379.203-.396.121-.62.539-.5.936.12.396.539.62.935.5z"/><path d="m520.449 157.25c-.414 0-.75.336-.75.75s.336.75.75.75h.75c.33 0 .646.049.944.139.397.12.815-.104.936-.5.12-.397-.104-.815-.501-.936-.437-.132-.9-.203-1.379-.203z"/><path d="m514.088 161.056c.12-.396-.104-.815-.5-.935s-.815.104-.935.5c-.133.437-.204.901-.204 1.379v.75c0 .414.336.75.75.75s.75-.336.75-.75v-.75c0-.329.049-.646.139-.944z"/><path d="m525.746 160.621c-.12-.396-.539-.62-.936-.5-.396.12-.62.539-.5.935.09.298.139.615.139.944v.75c0 .414.336.75.75.75s.75-.336.75-.75v-.75c0-.478-.071-.942-.203-1.379z"/><path d="m513.949 165.25c0-.414-.336-.75-.75-.75s-.75.336-.75.75v.75c0 .478.071.942.204 1.379.12.396.539.62.935.5s.62-.539.5-.935c-.09-.298-.139-.615-.139-.944z"/><path d="m525.949 165.25c0-.414-.336-.75-.75-.75s-.75.336-.75.75v.75c0 .329-.049.646-.139.944-.12.396.104.815.5.935.397.12.816-.104.936-.5.132-.437.203-.901.203-1.379z"/><path d="m516.255 169.111c-.396-.12-.815.104-.935.5-.12.397.104.815.5.936.438.132.901.203 1.379.203h.75c.414 0 .75-.336.75-.75s-.336-.75-.75-.75h-.75c-.329 0-.646-.049-.944-.139z"/><path d="m522.578 170.547c.397-.121.621-.539.501-.936-.121-.396-.539-.62-.936-.5-.298.09-.614.139-.944.139h-.75c-.414 0-.75.336-.75.75s.336.75.75.75h.75c.479 0 .942-.071 1.379-.203z"/></g><rect height="41" rx="6.5" stroke="#0063a3" width="55.4" x="491.5" y="143.5"/><path d="m571.6 154.75c-.442 0-.862.088-1.244.246-.383.159-.822-.023-.98-.405-.159-.383.023-.822.405-.98.561-.233 1.176-.361 1.819-.361h1.5c.414 0 .75.336.75.75s-.336.75-.75.75z" fill="#252a2e"/><path d="m575.35 154c0-.414.335-.75.75-.75h3c.414 0 .75.336.75.75s-.336.75-.75.75h-3c-.415 0-.75-.336-.75-.75z" fill="#252a2e"/><path d="m581.35 154c0-.414.335-.75.75-.75h1.5c.642 0 1.257.128 1.818.361.383.158.564.597.406.98-.159.382-.598.564-.981.405-.382-.158-.801-.246-1.243-.246h-1.5c-.415 0-.75-.336-.75-.75z" fill="#252a2e"/><path d="m568.19 155.776c.383.159.565.598.406.98s-.246.802-.246 1.244v1.5c0 .414-.336.75-.75.75-.415 0-.75-.336-.75-.75v-1.5c0-.643.128-1.257.36-1.818.159-.383.598-.565.98-.406z" fill="#252a2e"/><path d="m587.009 155.776c.382-.159.821.023.98.406.233.561.361 1.175.361 1.818v1.5c0 .414-.336.75-.75.75-.415 0-.75-.336-.75-.75v-1.5c0-.442-.088-.862-.247-1.244-.158-.382.023-.821.406-.98z" fill="#252a2e"/><path d="m567.6 161.75c.414 0 .75.336.75.75v3c0 .414-.336.75-.75.75-.415 0-.75-.336-.75-.75v-3c0-.414.335-.75.75-.75z" fill="#252a2e"/><path d="m587.6 161.75c.414 0 .75.336.75.75v3c0 .414-.336.75-.75.75-.415 0-.75-.336-.75-.75v-3c0-.414.335-.75.75-.75z" fill="#252a2e"/><path d="m567.6 167.75c.414 0 .75.336.75.75v1.5c0 .442.087.862.246 1.244s-.023.821-.406.98c-.382.159-.821-.023-.98-.406-.232-.561-.36-1.175-.36-1.818v-1.5c0-.414.335-.75.75-.75z" fill="#252a2e"/><path d="m587.6 167.75c.414 0 .75.336.75.75v1.5c0 .643-.128 1.257-.361 1.818-.159.383-.598.565-.98.406-.383-.159-.564-.598-.406-.98.159-.382.247-.802.247-1.244v-1.5c0-.414.335-.75.75-.75z" fill="#252a2e"/><path d="m569.376 173.409c.158-.382.597-.564.98-.405.382.158.802.246 1.244.246h1.5c.414 0 .75.336.75.75s-.336.75-.75.75h-1.5c-.643 0-1.258-.128-1.819-.361-.382-.158-.564-.597-.405-.98z" fill="#252a2e"/><path d="m585.824 173.409c.158.383-.023.822-.406.98-.561.233-1.176.361-1.818.361h-1.5c-.415 0-.75-.336-.75-.75s.335-.75.75-.75h1.5c.442 0 .861-.088 1.243-.246.383-.159.822.023.981.405z" fill="#252a2e"/><path d="m575.35 174c0-.414.335-.75.75-.75h3c.414 0 .75.336.75.75s-.336.75-.75.75h-3c-.415 0-.75-.336-.75-.75z" fill="#252a2e"/><path d="m586.13 156.591c.293-.293.293-.768 0-1.061s-.768-.293-1.061 0l-.996.997c-.293.292-.293.767 0 1.06s.768.293 1.061 0z" fill="#252a2e"/><path d="m583.141 159.58c.293-.293.293-.768 0-1.061s-.767-.293-1.06 0l-1.993 1.992c-.293.293-.293.768 0 1.061s.768.293 1.061 0z" fill="#252a2e"/><path d="m579.156 163.564c.293-.292.293-.767 0-1.06-.292-.293-.767-.293-1.06 0l-.496.496-.497-.496c-.292-.293-.767-.293-1.06 0s-.293.768 0 1.06l.496.497-.436.435c-.292.293-.292.768 0 1.061.293.293.768.293 1.061 0l.436-.436.435.436c.293.293.768.293 1.061 0s.293-.768 0-1.061l-.436-.435z" fill="#252a2e"/><path d="m575.172 167.549c.293-.293.293-.767 0-1.06s-.768-.293-1.061 0l-1.992 1.992c-.293.293-.293.768 0 1.061.292.293.767.293 1.06 0z" fill="#252a2e"/><path d="m571.187 171.534c.293-.293.293-.768 0-1.061-.293-.292-.768-.292-1.061 0l-.996.997c-.293.293-.293.767 0 1.06s.768.293 1.061 0z" fill="#252a2e"/><path d="m585.009 172.53c.293.293.767.293 1.06 0s.293-.767 0-1.06l-.996-.997c-.293-.292-.768-.292-1.061 0-.292.293-.292.768 0 1.061z" fill="#252a2e"/><path d="m582.02 169.542c.293.293.768.293 1.061 0s.293-.768 0-1.061l-1.993-1.992c-.293-.293-.768-.293-1.06 0-.293.293-.293.767 0 1.06z" fill="#252a2e"/><path d="m574.05 161.572c.293.293.768.293 1.061 0s.293-.768 0-1.061l-1.992-1.992c-.293-.293-.768-.293-1.061 0s-.293.768 0 1.061z" fill="#252a2e"/><path d="m570.065 157.587c.293.293.768.293 1.061 0s.293-.768 0-1.06l-.996-.997c-.293-.293-.768-.293-1.061 0s-.293.768 0 1.061z" fill="#252a2e"/><path d="m574.656 158.889c.297-.09.614-.139.944-.139h.75c.414 0 .75-.336.75-.75s-.336-.75-.75-.75h-.75c-.479 0-.942.071-1.379.203-.397.121-.621.539-.501.936.12.396.539.62.936.5z" fill="#252a2e"/><path d="m578.85 157.25c-.415 0-.75.336-.75.75s.335.75.75.75h.75c.329 0 .646.049.944.139.396.12.815-.104.935-.5.12-.397-.104-.815-.5-.936-.438-.132-.901-.203-1.379-.203z" fill="#252a2e"/><path d="m572.489 161.056c.12-.396-.104-.815-.501-.935-.396-.12-.815.104-.935.5-.132.437-.203.901-.203 1.379v.75c0 .414.335.75.75.75.414 0 .75-.336.75-.75v-.75c0-.329.048-.646.139-.944z" fill="#252a2e"/><path d="m584.146 160.621c-.12-.396-.539-.62-.935-.5-.397.12-.621.539-.5.935.09.298.139.615.139.944v.75c0 .414.335.75.75.75.414 0 .75-.336.75-.75v-.75c0-.478-.071-.942-.204-1.379z" fill="#252a2e"/><path d="m572.35 165.25c0-.414-.336-.75-.75-.75-.415 0-.75.336-.75.75v.75c0 .478.071.942.203 1.379.12.396.539.62.935.5.397-.12.621-.539.501-.935-.091-.298-.139-.615-.139-.944z" fill="#252a2e"/><path d="m584.35 165.25c0-.414-.336-.75-.75-.75-.415 0-.75.336-.75.75v.75c0 .329-.049.646-.139.944-.121.396.103.815.5.935.396.12.815-.104.935-.5.133-.437.204-.901.204-1.379z" fill="#252a2e"/><path d="m574.656 169.111c-.397-.12-.816.104-.936.5-.12.397.104.815.501.936.437.132.9.203 1.379.203h.75c.414 0 .75-.336.75-.75s-.336-.75-.75-.75h-.75c-.33 0-.647-.049-.944-.139z" fill="#252a2e"/><path d="m580.979 170.547c.396-.121.62-.539.5-.936-.12-.396-.539-.62-.935-.5-.298.09-.615.139-.944.139h-.75c-.415 0-.75.336-.75.75s.335.75.75.75h.75c.478 0 .941-.071 1.379-.203z" fill="#252a2e"/><path d="m609.301 152v24" stroke="#b7b9c3"/><path d="m634 154.75c-.442 0-.862.088-1.244.246-.382.159-.821-.023-.98-.405-.159-.383.023-.822.406-.98.561-.233 1.175-.361 1.818-.361h1.5c.414 0 .75.336.75.75s-.336.75-.75.75z" fill="#252a2e"/><path d="m637.75 154c0-.414.336-.75.75-.75h3c.414 0 .75.336.75.75s-.336.75-.75.75h-3c-.414 0-.75-.336-.75-.75z" fill="#252a2e"/><path d="m643.75 154c0-.414.336-.75.75-.75h1.5c.643 0 1.257.128 1.818.361.383.158.565.597.406.98-.159.382-.598.564-.98.405-.382-.158-.802-.246-1.244-.246h-1.5c-.414 0-.75-.336-.75-.75z" fill="#252a2e"/><path d="m630.591 155.776c.382.159.564.598.405.98-.158.382-.246.802-.246 1.244v1.5c0 .414-.336.75-.75.75s-.75-.336-.75-.75v-1.5c0-.643.128-1.257.361-1.818.158-.383.597-.565.98-.406z" fill="#252a2e"/><path d="m649.409 155.776c.383-.159.822.023.98.406.233.561.361 1.175.361 1.818v1.5c0 .414-.336.75-.75.75s-.75-.336-.75-.75v-1.5c0-.442-.088-.862-.246-1.244-.159-.382.023-.821.405-.98z" fill="#252a2e"/><path d="m630 161.75c.414 0 .75.336.75.75v3c0 .414-.336.75-.75.75s-.75-.336-.75-.75v-3c0-.414.336-.75.75-.75z" fill="#252a2e"/><path d="m650 161.75c.414 0 .75.336.75.75v3c0 .414-.336.75-.75.75s-.75-.336-.75-.75v-3c0-.414.336-.75.75-.75z" fill="#252a2e"/><path d="m630 167.75c.414 0 .75.336.75.75v1.5c0 .442.088.862.246 1.244.159.382-.023.821-.405.98-.383.159-.822-.023-.98-.406-.233-.561-.361-1.175-.361-1.818v-1.5c0-.414.336-.75.75-.75z" fill="#252a2e"/><path d="m650 167.75c.414 0 .75.336.75.75v1.5c0 .643-.128 1.257-.361 1.818-.158.383-.597.565-.98.406-.382-.159-.564-.598-.405-.98.158-.382.246-.802.246-1.244v-1.5c0-.414.336-.75.75-.75z" fill="#252a2e"/><path d="m631.776 173.409c.159-.382.598-.564.98-.405.382.158.802.246 1.244.246h1.5c.414 0 .75.336.75.75s-.336.75-.75.75h-1.5c-.643 0-1.257-.128-1.818-.361-.383-.158-.565-.597-.406-.98z" fill="#252a2e"/><path d="m648.224 173.409c.159.383-.023.822-.406.98-.561.233-1.175.361-1.818.361h-1.5c-.414 0-.75-.336-.75-.75s.336-.75.75-.75h1.5c.442 0 .862-.088 1.244-.246.382-.159.821.023.98.405z" fill="#252a2e"/><path d="m637.75 174c0-.414.336-.75.75-.75h3c.414 0 .75.336.75.75s-.336.75-.75.75h-3c-.414 0-.75-.336-.75-.75z" fill="#252a2e"/><path d="m648.53 156.591c.293-.293.293-.768 0-1.061s-.767-.293-1.06 0l-.997.997c-.292.292-.292.767 0 1.06.293.293.768.293 1.061 0z" fill="#252a2e"/><path d="m645.542 159.58c.293-.293.293-.768 0-1.061s-.768-.293-1.061 0l-1.992 1.992c-.293.293-.293.768 0 1.061s.767.293 1.06 0z" fill="#252a2e"/><path d="m641.557 163.564c.293-.292.293-.767 0-1.06s-.768-.293-1.061 0l-.496.496-.496-.496c-.293-.293-.768-.293-1.061 0s-.293.768 0 1.06l.496.497-.435.435c-.293.293-.293.768 0 1.061s.768.293 1.06 0l.436-.436.436.436c.292.293.767.293 1.06 0s.293-.768 0-1.061l-.435-.435z" fill="#252a2e"/><path d="m637.572 167.549c.293-.293.293-.767 0-1.06s-.768-.293-1.061 0l-1.992 1.992c-.293.293-.293.768 0 1.061s.768.293 1.061 0z" fill="#252a2e"/><path d="m633.587 171.534c.293-.293.293-.768 0-1.061-.293-.292-.768-.292-1.06 0l-.997.997c-.293.293-.293.767 0 1.06s.768.293 1.061 0z" fill="#252a2e"/><path d="m647.409 172.53c.293.293.768.293 1.061 0s.293-.767 0-1.06l-.997-.997c-.292-.292-.767-.292-1.06 0-.293.293-.293.768 0 1.061z" fill="#252a2e"/><path d="m644.42 169.542c.293.293.768.293 1.061 0s.293-.768 0-1.061l-1.992-1.992c-.293-.293-.768-.293-1.061 0s-.293.767 0 1.06z" fill="#252a2e"/><path d="m636.451 161.572c.293.293.767.293 1.06 0s.293-.768 0-1.061l-1.992-1.992c-.293-.293-.768-.293-1.061 0s-.293.768 0 1.061z" fill="#252a2e"/><path d="m632.466 157.587c.293.293.768.293 1.061 0 .292-.293.292-.768 0-1.06l-.997-.997c-.293-.293-.767-.293-1.06 0s-.293.768 0 1.061z" fill="#252a2e"/><path d="m637.056 158.889c.298-.09.615-.139.944-.139h.75c.414 0 .75-.336.75-.75s-.336-.75-.75-.75h-.75c-.478 0-.942.071-1.379.203-.396.121-.62.539-.5.936.12.396.539.62.935.5z" fill="#252a2e"/><path d="m641.25 157.25c-.414 0-.75.336-.75.75s.336.75.75.75h.75c.329 0 .646.049.944.139.396.12.815-.104.935-.5.12-.397-.104-.815-.5-.936-.437-.132-.901-.203-1.379-.203z" fill="#252a2e"/><path d="m634.889 161.056c.12-.396-.104-.815-.5-.935-.397-.12-.815.104-.936.5-.132.437-.203.901-.203 1.379v.75c0 .414.336.75.75.75s.75-.336.75-.75v-.75c0-.329.049-.646.139-.944z" fill="#252a2e"/><path d="m646.547 160.621c-.121-.396-.539-.62-.936-.5-.396.12-.62.539-.5.935.09.298.139.615.139.944v.75c0 .414.336.75.75.75s.75-.336.75-.75v-.75c0-.478-.071-.942-.203-1.379z" fill="#252a2e"/><path d="m634.75 165.25c0-.414-.336-.75-.75-.75s-.75.336-.75.75v.75c0 .478.071.942.203 1.379.121.396.539.62.936.5.396-.12.62-.539.5-.935-.09-.298-.139-.615-.139-.944z" fill="#252a2e"/><path d="m646.75 165.25c0-.414-.336-.75-.75-.75s-.75.336-.75.75v.75c0 .329-.049.646-.139.944-.12.396.104.815.5.935.397.12.815-.104.936-.5.132-.437.203-.901.203-1.379z" fill="#252a2e"/><path d="m637.056 169.111c-.396-.12-.815.104-.935.5-.12.397.104.815.5.936.437.132.901.203 1.379.203h.75c.414 0 .75-.336.75-.75s-.336-.75-.75-.75h-.75c-.329 0-.646-.049-.944-.139z" fill="#252a2e"/><path d="m643.379 170.547c.396-.121.62-.539.5-.936-.12-.396-.539-.62-.935-.5-.298.09-.615.139-.944.139h-.75c-.414 0-.75.336-.75.75s.336.75.75.75h.75c.478 0 .942-.071 1.379-.203z" fill="#252a2e"/><path d="m671.699 152v24" stroke="#b7b9c3"/><path d="m696.398 154.75c-.442 0-.861.088-1.243.246-.383.159-.822-.023-.981-.405-.158-.383.023-.822.406-.98.561-.233 1.176-.361 1.818-.361h1.5c.415 0 .75.336.75.75s-.335.75-.75.75z" fill="#252a2e"/><path d="m700.148 154c0-.414.336-.75.75-.75h3c.415 0 .75.336.75.75s-.335.75-.75.75h-3c-.414 0-.75-.336-.75-.75z" fill="#252a2e"/><path d="m706.148 154c0-.414.336-.75.75-.75h1.5c.643 0 1.258.128 1.819.361.382.158.564.597.405.98-.158.382-.597.564-.98.405-.382-.158-.802-.246-1.244-.246h-1.5c-.414 0-.75-.336-.75-.75z" fill="#252a2e"/><path d="m692.989 155.776c.383.159.564.598.406.98-.159.382-.247.802-.247 1.244v1.5c0 .414-.335.75-.75.75-.414 0-.75-.336-.75-.75v-1.5c0-.643.128-1.257.361-1.818.159-.383.598-.565.98-.406z" fill="#252a2e"/><path d="m711.808 155.776c.382-.159.821.023.98.406.232.561.36 1.175.36 1.818v1.5c0 .414-.335.75-.75.75-.414 0-.75-.336-.75-.75v-1.5c0-.442-.087-.862-.246-1.244s.023-.821.406-.98z" fill="#252a2e"/><path d="m692.398 161.75c.415 0 .75.336.75.75v3c0 .414-.335.75-.75.75-.414 0-.75-.336-.75-.75v-3c0-.414.336-.75.75-.75z" fill="#252a2e"/><path d="m712.398 161.75c.415 0 .75.336.75.75v3c0 .414-.335.75-.75.75-.414 0-.75-.336-.75-.75v-3c0-.414.336-.75.75-.75z" fill="#252a2e"/><path d="m692.398 167.75c.415 0 .75.336.75.75v1.5c0 .442.088.862.247 1.244.158.382-.023.821-.406.98-.382.159-.821-.023-.98-.406-.233-.561-.361-1.175-.361-1.818v-1.5c0-.414.336-.75.75-.75z" fill="#252a2e"/><path d="m712.398 167.75c.415 0 .75.336.75.75v1.5c0 .643-.128 1.257-.36 1.818-.159.383-.598.565-.98.406-.383-.159-.565-.598-.406-.98s.246-.802.246-1.244v-1.5c0-.414.336-.75.75-.75z" fill="#252a2e"/><path d="m694.174 173.409c.159-.382.598-.564.981-.405.382.158.801.246 1.243.246h1.5c.415 0 .75.336.75.75s-.335.75-.75.75h-1.5c-.642 0-1.257-.128-1.818-.361-.383-.158-.564-.597-.406-.98z" fill="#252a2e"/><path d="m710.622 173.409c.159.383-.023.822-.405.98-.561.233-1.176.361-1.819.361h-1.5c-.414 0-.75-.336-.75-.75s.336-.75.75-.75h1.5c.442 0 .862-.088 1.244-.246.383-.159.822.023.98.405z" fill="#252a2e"/><path d="m700.148 174c0-.414.336-.75.75-.75h3c.415 0 .75.336.75.75s-.335.75-.75.75h-3c-.414 0-.75-.336-.75-.75z" fill="#252a2e"/><path d="m710.929 156.591c.293-.293.293-.768 0-1.061s-.768-.293-1.061 0l-.996.997c-.293.292-.293.767 0 1.06s.768.293 1.061 0z" fill="#252a2e"/><path d="m707.94 159.58c.293-.293.293-.768 0-1.061s-.768-.293-1.061 0l-1.992 1.992c-.293.293-.293.768 0 1.061s.768.293 1.061 0z" fill="#252a2e"/><path d="m703.955 163.564c.293-.292.293-.767 0-1.06s-.767-.293-1.06 0l-.497.496-.496-.496c-.293-.293-.768-.293-1.06 0-.293.293-.293.768 0 1.06l.496.497-.436.435c-.293.293-.293.768 0 1.061s.768.293 1.061 0l.435-.436.436.436c.293.293.768.293 1.061 0s.293-.768 0-1.061l-.436-.435z" fill="#252a2e"/><path d="m699.97 167.549c.293-.293.293-.767 0-1.06-.292-.293-.767-.293-1.06 0l-1.993 1.992c-.293.293-.293.768 0 1.061s.768.293 1.061 0z" fill="#252a2e"/><path d="m695.986 171.534c.293-.293.293-.768 0-1.061-.293-.292-.768-.292-1.061 0l-.996.997c-.293.293-.293.767 0 1.06s.768.293 1.06 0z" fill="#252a2e"/><path d="m709.807 172.53c.293.293.768.293 1.061 0s.293-.767 0-1.06l-.996-.997c-.293-.292-.768-.292-1.061 0-.293.293-.293.768 0 1.061z" fill="#252a2e"/><path d="m706.819 169.542c.293.293.768.293 1.06 0 .293-.293.293-.768 0-1.061l-1.992-1.992c-.293-.293-.768-.293-1.061 0-.292.293-.292.767 0 1.06z" fill="#252a2e"/><path d="m698.849 161.572c.293.293.768.293 1.061 0s.293-.768 0-1.061l-1.993-1.992c-.293-.293-.767-.293-1.06 0s-.293.768 0 1.061z" fill="#252a2e"/><path d="m694.864 157.587c.293.293.768.293 1.061 0s.293-.768 0-1.06l-.996-.997c-.293-.293-.768-.293-1.061 0s-.293.768 0 1.061z" fill="#252a2e"/><path d="m699.454 158.889c.298-.09.615-.139.944-.139h.75c.415 0 .75-.336.75-.75s-.335-.75-.75-.75h-.75c-.478 0-.941.071-1.379.203-.396.121-.62.539-.5.936.12.396.539.62.935.5z" fill="#252a2e"/><path d="m703.648 157.25c-.414 0-.75.336-.75.75s.336.75.75.75h.75c.33 0 .647.049.945.139.396.12.815-.104.935-.5.12-.397-.104-.815-.501-.936-.437-.132-.9-.203-1.379-.203z" fill="#252a2e"/><path d="m697.287 161.056c.121-.396-.103-.815-.5-.935-.396-.12-.815.104-.935.5-.133.437-.204.901-.204 1.379v.75c0 .414.336.75.75.75.415 0 .75-.336.75-.75v-.75c0-.329.049-.646.139-.944z" fill="#252a2e"/><path d="m708.945 160.621c-.12-.396-.539-.62-.935-.5-.397.12-.621.539-.501.935.091.298.139.615.139.944v.75c0 .414.336.75.75.75.415 0 .75-.336.75-.75v-.75c0-.478-.071-.942-.203-1.379z" fill="#252a2e"/><path d="m697.148 165.25c0-.414-.335-.75-.75-.75-.414 0-.75.336-.75.75v.75c0 .478.071.942.204 1.379.12.396.539.62.935.5.397-.12.621-.539.5-.935-.09-.298-.139-.615-.139-.944z" fill="#252a2e"/><path d="m709.148 165.25c0-.414-.335-.75-.75-.75-.414 0-.75.336-.75.75v.75c0 .329-.048.646-.139.944-.12.396.104.815.501.935.396.12.815-.104.935-.5.132-.437.203-.901.203-1.379z" fill="#252a2e"/><path d="m699.454 169.111c-.396-.12-.815.104-.935.5-.12.397.104.815.5.936.438.132.901.203 1.379.203h.75c.415 0 .75-.336.75-.75s-.335-.75-.75-.75h-.75c-.329 0-.646-.049-.944-.139z" fill="#252a2e"/><path d="m705.777 170.547c.397-.121.621-.539.501-.936-.12-.396-.539-.62-.935-.5-.298.09-.615.139-.945.139h-.75c-.414 0-.75.336-.75.75s.336.75.75.75h.75c.479 0 .942-.071 1.379-.203z" fill="#252a2e"/><path d="m734.1 152v24" stroke="#b7b9c3"/><path d="m758.799 154.75c-.442 0-.862.088-1.244.246-.383.159-.821-.023-.98-.405-.159-.383.023-.822.405-.98.561-.233 1.176-.361 1.819-.361h1.5c.414 0 .75.336.75.75s-.336.75-.75.75z" fill="#252a2e"/><path d="m762.549 154c0-.414.336-.75.75-.75h3c.414 0 .75.336.75.75s-.336.75-.75.75h-3c-.414 0-.75-.336-.75-.75z" fill="#252a2e"/><path d="m768.549 154c0-.414.336-.75.75-.75h1.5c.643 0 1.257.128 1.818.361.383.158.564.597.406.98-.159.382-.598.564-.98.405-.382-.158-.802-.246-1.244-.246h-1.5c-.414 0-.75-.336-.75-.75z" fill="#252a2e"/><path d="m755.39 155.776c.382.159.564.598.405.98-.158.382-.246.802-.246 1.244v1.5c0 .414-.336.75-.75.75s-.75-.336-.75-.75v-1.5c0-.643.128-1.257.361-1.818.158-.383.597-.565.98-.406z" fill="#252a2e"/><path d="m774.208 155.776c.383-.159.821.023.98.406.233.561.361 1.175.361 1.818v1.5c0 .414-.336.75-.75.75s-.75-.336-.75-.75v-1.5c0-.442-.088-.862-.246-1.244-.159-.382.022-.821.405-.98z" fill="#252a2e"/><path d="m754.799 161.75c.414 0 .75.336.75.75v3c0 .414-.336.75-.75.75s-.75-.336-.75-.75v-3c0-.414.336-.75.75-.75z" fill="#252a2e"/><path d="m774.799 161.75c.414 0 .75.336.75.75v3c0 .414-.336.75-.75.75s-.75-.336-.75-.75v-3c0-.414.336-.75.75-.75z" fill="#252a2e"/><path d="m754.799 167.75c.414 0 .75.336.75.75v1.5c0 .442.088.862.246 1.244.159.382-.023.821-.405.98-.383.159-.822-.023-.98-.406-.233-.561-.361-1.175-.361-1.818v-1.5c0-.414.336-.75.75-.75z" fill="#252a2e"/><path d="m774.799 167.75c.414 0 .75.336.75.75v1.5c0 .643-.128 1.257-.361 1.818-.159.383-.597.565-.98.406s-.564-.598-.405-.98c.158-.382.246-.802.246-1.244v-1.5c0-.414.336-.75.75-.75z" fill="#252a2e"/><path d="m756.575 173.409c.159-.382.597-.564.98-.405.382.158.802.246 1.244.246h1.5c.414 0 .75.336.75.75s-.336.75-.75.75h-1.5c-.643 0-1.258-.128-1.819-.361-.382-.158-.564-.597-.405-.98z" fill="#252a2e"/><path d="m773.023 173.409c.158.383-.023.822-.406.98-.561.233-1.175.361-1.818.361h-1.5c-.414 0-.75-.336-.75-.75s.336-.75.75-.75h1.5c.442 0 .862-.088 1.244-.246.382-.159.821.023.98.405z" fill="#252a2e"/><path d="m762.549 174c0-.414.336-.75.75-.75h3c.414 0 .75.336.75.75s-.336.75-.75.75h-3c-.414 0-.75-.336-.75-.75z" fill="#252a2e"/><path d="m773.329 156.591c.293-.293.293-.768 0-1.061s-.768-.293-1.061 0l-.996.997c-.293.292-.293.767 0 1.06s.768.293 1.061 0z" fill="#252a2e"/><path d="m770.341 159.58c.292-.293.292-.768 0-1.061-.293-.293-.768-.293-1.061 0l-1.993 1.992c-.292.293-.292.768 0 1.061.293.293.768.293 1.061 0z" fill="#252a2e"/><path d="m766.356 163.564c.293-.292.293-.767 0-1.06s-.768-.293-1.061 0l-.496.496-.496-.496c-.293-.293-.768-.293-1.061 0s-.293.768 0 1.06l.496.497-.435.435c-.293.293-.293.768 0 1.061s.767.293 1.06 0l.436-.436.435.436c.293.293.768.293 1.061 0s.293-.768 0-1.061l-.436-.435z" fill="#252a2e"/><path d="m762.371 167.549c.293-.293.293-.767 0-1.06s-.768-.293-1.061 0l-1.992 1.992c-.293.293-.293.768 0 1.061s.768.293 1.06 0z" fill="#252a2e"/><path d="m758.386 171.534c.293-.293.293-.768 0-1.061-.293-.292-.768-.292-1.061 0l-.996.997c-.293.293-.293.767 0 1.06s.768.293 1.061 0z" fill="#252a2e"/><path d="m772.208 172.53c.293.293.768.293 1.06 0 .293-.293.293-.767 0-1.06l-.996-.997c-.293-.292-.767-.292-1.06 0-.293.293-.293.768 0 1.061z" fill="#252a2e"/><path d="m769.219 169.542c.293.293.768.293 1.061 0s.293-.768 0-1.061l-1.993-1.992c-.292-.293-.767-.293-1.06 0s-.293.767 0 1.06z" fill="#252a2e"/><path d="m761.25 161.572c.292.293.767.293 1.06 0s.293-.768 0-1.061l-1.992-1.992c-.293-.293-.768-.293-1.061 0s-.293.768 0 1.061z" fill="#252a2e"/><path d="m757.265 157.587c.293.293.767.293 1.06 0s.293-.768 0-1.06l-.996-.997c-.293-.293-.768-.293-1.061 0-.292.293-.292.768 0 1.061z" fill="#252a2e"/><path d="m761.855 158.889c.298-.09.614-.139.944-.139h.75c.414 0 .75-.336.75-.75s-.336-.75-.75-.75h-.75c-.479 0-.942.071-1.379.203-.397.121-.621.539-.5.936.12.396.538.62.935.5z" fill="#252a2e"/><path d="m766.049 157.25c-.414 0-.75.336-.75.75s.336.75.75.75h.75c.329 0 .646.049.944.139.396.12.815-.104.935-.5.12-.397-.104-.815-.5-.936-.438-.132-.901-.203-1.379-.203z" fill="#252a2e"/><path d="m759.688 161.056c.12-.396-.104-.815-.5-.935-.397-.12-.816.104-.936.5-.132.437-.203.901-.203 1.379v.75c0 .414.336.75.75.75s.75-.336.75-.75v-.75c0-.329.049-.646.139-.944z" fill="#252a2e"/><path d="m771.345 160.621c-.12-.396-.538-.62-.935-.5-.396.12-.62.539-.5.935.09.298.139.615.139.944v.75c0 .414.336.75.75.75s.75-.336.75-.75v-.75c0-.478-.071-.942-.204-1.379z" fill="#252a2e"/><path d="m759.549 165.25c0-.414-.336-.75-.75-.75s-.75.336-.75.75v.75c0 .478.071.942.203 1.379.12.396.539.62.936.5.396-.12.62-.539.5-.935-.09-.298-.139-.615-.139-.944z" fill="#252a2e"/><path d="m771.549 165.25c0-.414-.336-.75-.75-.75s-.75.336-.75.75v.75c0 .329-.049.646-.139.944-.12.396.104.815.5.935.397.12.815-.104.935-.5.133-.437.204-.901.204-1.379z" fill="#252a2e"/><path d="m761.855 169.111c-.397-.12-.815.104-.935.5-.121.397.103.815.5.936.437.132.9.203 1.379.203h.75c.414 0 .75-.336.75-.75s-.336-.75-.75-.75h-.75c-.33 0-.646-.049-.944-.139z" fill="#252a2e"/><path d="m768.178 170.547c.396-.121.62-.539.5-.936-.12-.396-.539-.62-.935-.5-.298.09-.615.139-.944.139h-.75c-.414 0-.75.336-.75.75s.336.75.75.75h.75c.478 0 .941-.071 1.379-.203z" fill="#252a2e"/></g><rect height="41" rx="8.5" stroke="#353a40" width="301" x="491.5" y="143.5"/></g><g clip-path="url(#h)"><path d="m0 0h960v104h-960z" fill="#f1f1f6" transform="translate(0 224)"/><g clip-path="url(#i)"><rect fill="#0063a3" height="42" rx="7" width="150" x="167" y="255"/><path d="m237.398 276.273c0 .881-.112 1.683-.336 2.407-.218.718-.549 1.338-.992 1.859-.442.516-.997.914-1.664 1.195-.666.282-1.448.422-2.344.422-.911 0-1.703-.14-2.374-.422-.667-.281-1.222-.682-1.665-1.203-.437-.521-.765-1.143-.984-1.867s-.328-1.526-.328-2.406c0-1.177.193-2.203.578-3.078.391-.881.982-1.563 1.773-2.047.797-.49 1.803-.735 3.016-.735 1.188 0 2.175.243 2.961.727.787.484 1.375 1.167 1.766 2.047.396.875.593 1.909.593 3.101zm-8.718 0c0 .881.119 1.644.359 2.289.24.641.607 1.136 1.102 1.485.5.344 1.14.515 1.921.515.787 0 1.428-.171 1.922-.515.495-.349.86-.844 1.094-1.485.234-.645.352-1.408.352-2.289 0-1.338-.269-2.385-.805-3.14-.531-.761-1.38-1.141-2.547-1.141-.781 0-1.424.172-1.93.516-.5.344-.869.836-1.109 1.476-.24.636-.359 1.399-.359 2.289zm15.742-3.085c.974 0 1.732.252 2.273.757.547.5.821 1.305.821 2.414v5.641h-1.836v-5.297c0-.672-.138-1.174-.414-1.508-.276-.338-.704-.507-1.282-.507-.838 0-1.422.257-1.75.773-.323.516-.484 1.263-.484 2.242v4.297h-1.836v-8.648h1.43l.258 1.171h.101c.188-.302.419-.549.695-.742.282-.198.594-.346.938-.445.349-.099.711-.148 1.086-.148zm9.359 0c.771 0 1.433.158 1.985.476s.976.768 1.273 1.352c.297.583.445 1.281.445 2.093v.985h-5.773c.021.838.245 1.484.672 1.937.432.453 1.036.68 1.812.68.552 0 1.047-.052 1.485-.156.442-.11.898-.269 1.367-.477v1.492c-.432.203-.873.352-1.32.446-.448.093-.985.14-1.61.14-.849 0-1.596-.164-2.242-.492-.641-.333-1.143-.828-1.508-1.484-.359-.657-.539-1.472-.539-2.446 0-.968.164-1.791.492-2.468s.789-1.193 1.383-1.547 1.287-.531 2.078-.531zm0 1.382c-.578 0-1.047.188-1.406.563-.354.375-.563.924-.625 1.648h3.938c-.006-.432-.079-.815-.219-1.148-.136-.334-.344-.594-.625-.781-.276-.188-.63-.282-1.063-.282z" fill="#fff"/><rect height="42" rx="7" stroke="#0063a3" stroke-width="2" width="150" x="167" y="255"/><path d="m168.5 256.5h147v39h-147z" stroke="#0063a3"/><path d="m383.281 282h-1.883v-9.828h-3.343v-1.594h8.562v1.594h-3.336zm12.219-.008-1.094-4.023c-.052-.198-.114-.438-.187-.719s-.146-.57-.219-.867c-.073-.302-.141-.581-.203-.836-.057-.255-.102-.453-.133-.594h-.062c-.026.141-.068.339-.125.594-.058.255-.123.534-.196.836s-.146.596-.219.883c-.067.286-.13.531-.187.734l-1.148 3.992h-2.016l-2.422-8.648h1.859l1.125 4.297c.073.291.144.606.211.945.073.338.136.661.188.969.052.307.091.56.117.757h.063c.02-.14.049-.317.086-.531.036-.219.078-.445.124-.679.047-.24.094-.464.141-.672.047-.214.091-.386.133-.516l1.328-4.57h2.008l1.273 4.57c.058.198.12.448.188.75.068.297.127.596.179.898.058.297.094.545.11.743h.062c.021-.177.058-.417.11-.719.057-.307.122-.633.195-.977.073-.349.149-.671.227-.968l1.148-4.297h1.828l-2.437 8.648zm13.883-4.336c0 .719-.094 1.357-.281 1.914-.188.558-.461 1.029-.821 1.414-.359.381-.791.672-1.297.875-.505.198-1.075.297-1.711.297-.593 0-1.138-.099-1.632-.297-.495-.203-.925-.494-1.289-.875-.36-.385-.638-.856-.836-1.414-.198-.557-.297-1.195-.297-1.914 0-.953.164-1.76.492-2.422.333-.666.807-1.174 1.422-1.523.614-.349 1.346-.523 2.195-.523.797 0 1.5.174 2.11.523.609.349 1.085.857 1.429 1.523.344.667.516 1.474.516 2.422zm-6.274 0c0 .63.076 1.17.227 1.617.156.448.396.792.719 1.032.323.234.739.351 1.25.351.51 0 .927-.117 1.25-.351.323-.24.56-.584.711-1.032.151-.447.226-.987.226-1.617s-.075-1.164-.226-1.601c-.151-.443-.388-.779-.711-1.008-.323-.235-.743-.352-1.258-.352-.761 0-1.315.256-1.664.766s-.524 1.242-.524 2.195z" fill="#252a2e"/></g><rect height="41" rx="8.5" stroke="#353a40" width="301" x="167.5" y="255.5"/><g clip-path="url(#j)"><rect fill="#0063a3" height="42" rx="7" width="98" x="491" y="255"/><path d="m535.398 276.273c0 .881-.112 1.683-.336 2.407-.218.718-.549 1.338-.992 1.859-.442.516-.997.914-1.664 1.195-.666.282-1.448.422-2.344.422-.911 0-1.703-.14-2.374-.422-.667-.281-1.222-.682-1.665-1.203-.437-.521-.765-1.143-.984-1.867s-.328-1.526-.328-2.406c0-1.177.193-2.203.578-3.078.391-.881.982-1.563 1.773-2.047.797-.49 1.803-.735 3.016-.735 1.188 0 2.175.243 2.961.727.787.484 1.375 1.167 1.766 2.047.396.875.593 1.909.593 3.101zm-8.718 0c0 .881.119 1.644.359 2.289.24.641.607 1.136 1.102 1.485.5.344 1.14.515 1.921.515.787 0 1.428-.171 1.922-.515.495-.349.86-.844 1.094-1.485.234-.645.352-1.408.352-2.289 0-1.338-.269-2.385-.805-3.14-.531-.761-1.38-1.141-2.547-1.141-.781 0-1.424.172-1.93.516-.5.344-.869.836-1.109 1.476-.24.636-.359 1.399-.359 2.289zm15.742-3.085c.974 0 1.732.252 2.273.757.547.5.821 1.305.821 2.414v5.641h-1.836v-5.297c0-.672-.138-1.174-.414-1.508-.276-.338-.704-.507-1.282-.507-.838 0-1.422.257-1.75.773-.323.516-.484 1.263-.484 2.242v4.297h-1.836v-8.648h1.43l.258 1.171h.101c.188-.302.419-.549.695-.742.282-.198.594-.346.938-.445.349-.099.711-.148 1.086-.148zm9.359 0c.771 0 1.433.158 1.985.476s.976.768 1.273 1.352c.297.583.445 1.281.445 2.093v.985h-5.773c.021.838.245 1.484.672 1.937.432.453 1.036.68 1.812.68.552 0 1.047-.052 1.485-.156.442-.11.898-.269 1.367-.477v1.492c-.432.203-.873.352-1.32.446-.448.093-.985.14-1.61.14-.849 0-1.596-.164-2.242-.492-.641-.333-1.143-.828-1.508-1.484-.359-.657-.539-1.472-.539-2.446 0-.968.164-1.791.492-2.468s.789-1.193 1.383-1.547 1.287-.531 2.078-.531zm0 1.382c-.578 0-1.047.188-1.406.563-.354.375-.563.924-.625 1.648h3.938c-.006-.432-.079-.815-.219-1.148-.136-.334-.344-.594-.625-.781-.276-.188-.63-.282-1.063-.282z" fill="#fff"/><rect height="42" rx="7" stroke="#0063a3" stroke-width="2" width="98" x="491" y="255"/><path d="m492.5 256.5h95v39h-95z" stroke="#0063a3"/><path d="m629.281 282h-1.883v-9.828h-3.343v-1.594h8.562v1.594h-3.336zm12.219-.008-1.094-4.023c-.052-.198-.114-.438-.187-.719s-.146-.57-.219-.867c-.073-.302-.141-.581-.203-.836-.057-.255-.102-.453-.133-.594h-.062c-.026.141-.068.339-.125.594-.058.255-.123.534-.196.836s-.146.596-.219.883c-.067.286-.13.531-.187.734l-1.148 3.992h-2.016l-2.422-8.648h1.859l1.125 4.297c.073.291.144.606.211.945.073.338.136.661.188.969.052.307.091.56.117.757h.063c.02-.14.049-.317.086-.531.036-.219.078-.445.124-.679.047-.24.094-.464.141-.672.047-.214.091-.386.133-.516l1.328-4.57h2.008l1.273 4.57c.058.198.12.448.188.75.068.297.127.596.179.898.058.297.094.545.11.743h.062c.021-.177.058-.417.11-.719.057-.307.122-.633.195-.977.073-.349.149-.671.227-.968l1.148-4.297h1.828l-2.437 8.648zm13.883-4.336c0 .719-.094 1.357-.281 1.914-.188.558-.461 1.029-.821 1.414-.359.381-.791.672-1.297.875-.505.198-1.075.297-1.711.297-.593 0-1.138-.099-1.632-.297-.495-.203-.925-.494-1.289-.875-.36-.385-.638-.856-.836-1.414-.198-.557-.297-1.195-.297-1.914 0-.953.164-1.76.492-2.422.333-.666.807-1.174 1.422-1.523.614-.349 1.346-.523 2.195-.523.797 0 1.5.174 2.11.523.609.349 1.085.857 1.429 1.523.344.667.516 1.474.516 2.422zm-6.274 0c0 .63.076 1.17.227 1.617.156.448.396.792.719 1.032.323.234.739.351 1.25.351.51 0 .927-.117 1.25-.351.323-.24.56-.584.711-1.032.151-.447.226-.987.226-1.617s-.075-1.164-.226-1.601c-.151-.443-.388-.779-.711-1.008-.323-.235-.743-.352-1.258-.352-.761 0-1.315.256-1.664.766s-.524 1.242-.524 2.195z" fill="#252a2e"/><path d="m692.5 264v24" stroke="#b7b9c3"/><path d="m726.68 282h-1.883v-9.828h-3.344v-1.594h8.563v1.594h-3.336zm6.984-12.156v3.054c0 .318-.01.628-.031.93-.016.302-.034.537-.055.703h.102c.182-.302.406-.549.672-.742.265-.198.562-.346.89-.445.334-.099.688-.149 1.063-.149.661 0 1.224.112 1.687.336.464.219.818.56 1.063 1.024.25.463.375 1.065.375 1.804v5.641h-1.836v-5.297c0-.672-.138-1.174-.414-1.508-.276-.338-.703-.507-1.282-.507-.557 0-1 .117-1.328.351-.323.229-.554.57-.695 1.023-.141.448-.211.995-.211 1.641v4.297h-1.836v-12.156zm12.969 3.344c.146 0 .305.007.476.023.172.016.321.036.446.062l-.172 1.719c-.11-.031-.245-.054-.406-.07-.157-.016-.297-.024-.422-.024-.328 0-.641.055-.938.164-.297.105-.56.266-.789.485-.229.213-.409.482-.539.805-.13.322-.195.697-.195 1.125v4.523h-1.844v-8.648h1.438l.25 1.523h.085c.172-.307.386-.589.641-.844s.547-.458.875-.609c.333-.156.698-.234 1.094-.234zm6.219 0c.77 0 1.432.158 1.984.476s.976.768 1.273 1.352c.297.583.446 1.281.446 2.093v.985h-5.774c.021.838.245 1.484.672 1.937.432.453 1.037.68 1.813.68.552 0 1.046-.052 1.484-.156.443-.11.898-.269 1.367-.477v1.492c-.432.203-.872.352-1.32.446-.448.093-.985.14-1.609.14-.849 0-1.597-.164-2.243-.492-.64-.333-1.143-.828-1.507-1.484-.36-.657-.54-1.472-.54-2.446 0-.968.164-1.791.493-2.468.328-.677.789-1.193 1.382-1.547.594-.354 1.287-.531 2.079-.531zm0 1.382c-.579 0-1.047.188-1.407.563-.354.375-.562.924-.625 1.648h3.938c-.005-.432-.078-.815-.219-1.148-.135-.334-.344-.594-.625-.781-.276-.188-.63-.282-1.062-.282zm9.468-1.382c.771 0 1.433.158 1.985.476s.976.768 1.273 1.352c.297.583.445 1.281.445 2.093v.985h-5.773c.021.838.245 1.484.672 1.937.432.453 1.036.68 1.812.68.552 0 1.047-.052 1.485-.156.442-.11.898-.269 1.367-.477v1.492c-.432.203-.872.352-1.32.446-.448.093-.985.14-1.61.14-.849 0-1.596-.164-2.242-.492-.641-.333-1.143-.828-1.508-1.484-.359-.657-.539-1.472-.539-2.446 0-.968.164-1.791.492-2.468.329-.677.789-1.193 1.383-1.547s1.287-.531 2.078-.531zm0 1.382c-.578 0-1.047.188-1.406.563-.354.375-.562.924-.625 1.648h3.938c-.006-.432-.079-.815-.219-1.148-.136-.334-.344-.594-.625-.781-.276-.188-.63-.282-1.063-.282z" fill="#252a2e"/></g><rect height="41" rx="8.5" stroke="#353a40" width="301" x="491.5" y="255.5"/></g><g clip-path="url(#k)"><path d="m0 0h960v104h-960z" fill="#f1f1f6" transform="translate(0 336)"/><g clip-path="url(#l)"><rect fill="#0063a3" height="42" rx="7" width="72" x="167" y="367"/><path d="m198.398 388.273c0 .881-.112 1.683-.336 2.407-.218.718-.549 1.338-.992 1.859-.442.516-.997.914-1.664 1.195-.666.282-1.448.422-2.344.422-.911 0-1.703-.14-2.374-.422-.667-.281-1.222-.682-1.665-1.203-.437-.521-.765-1.143-.984-1.867s-.328-1.526-.328-2.406c0-1.177.193-2.203.578-3.078.391-.881.982-1.563 1.773-2.047.797-.49 1.803-.735 3.016-.735 1.188 0 2.175.243 2.961.727.787.484 1.375 1.167 1.766 2.047.396.875.593 1.909.593 3.101zm-8.718 0c0 .881.119 1.644.359 2.289.24.641.607 1.136 1.102 1.485.5.344 1.14.515 1.921.515.787 0 1.428-.171 1.922-.515.495-.349.86-.844 1.094-1.485.234-.645.352-1.408.352-2.289 0-1.338-.269-2.385-.805-3.14-.531-.761-1.38-1.141-2.547-1.141-.781 0-1.424.172-1.93.516-.5.344-.869.836-1.109 1.476-.24.636-.359 1.399-.359 2.289zm15.742-3.085c.974 0 1.732.252 2.273.757.547.5.821 1.305.821 2.414v5.641h-1.836v-5.297c0-.672-.138-1.174-.414-1.508-.276-.338-.704-.507-1.282-.507-.838 0-1.422.257-1.75.773-.323.516-.484 1.263-.484 2.242v4.297h-1.836v-8.648h1.43l.258 1.171h.101c.188-.302.419-.549.695-.742.282-.198.594-.346.938-.445.349-.099.711-.148 1.086-.148zm9.359 0c.771 0 1.433.158 1.985.476s.976.768 1.273 1.352c.297.583.445 1.281.445 2.093v.985h-5.773c.021.838.245 1.484.672 1.937.432.453 1.036.68 1.812.68.552 0 1.047-.052 1.485-.156.442-.11.898-.269 1.367-.477v1.492c-.432.203-.873.352-1.32.446-.448.093-.985.14-1.61.14-.849 0-1.596-.164-2.242-.492-.641-.333-1.143-.828-1.508-1.484-.359-.657-.539-1.472-.539-2.446 0-.968.164-1.791.492-2.468s.789-1.193 1.383-1.547 1.287-.531 2.078-.531zm0 1.382c-.578 0-1.047.188-1.406.563-.354.375-.563.924-.625 1.648h3.938c-.006-.432-.079-.815-.219-1.148-.136-.334-.344-.594-.625-.781-.276-.188-.63-.282-1.063-.282z" fill="#fff"/><rect height="42" rx="7" stroke="#0063a3" stroke-width="2" width="72" x="167" y="367"/><path d="m168.5 368.5h69v39h-69z" stroke="#0063a3"/><path d="m266.281 394h-1.883v-9.828h-3.343v-1.594h8.562v1.594h-3.336zm12.219-.008-1.094-4.023c-.052-.198-.114-.438-.187-.719s-.146-.57-.219-.867c-.073-.302-.141-.581-.203-.836-.057-.255-.102-.453-.133-.594h-.062c-.026.141-.068.339-.125.594-.058.255-.123.534-.196.836s-.146.596-.219.883c-.067.286-.13.531-.187.734l-1.148 3.992h-2.016l-2.422-8.648h1.859l1.125 4.297c.073.291.144.606.211.945.073.338.136.661.188.969.052.307.091.56.117.757h.063c.02-.14.049-.317.086-.531.036-.219.078-.445.124-.679.047-.24.094-.464.141-.672.047-.214.091-.386.133-.516l1.328-4.57h2.008l1.273 4.57c.058.198.12.448.188.75.068.297.127.596.179.898.058.297.094.545.11.743h.062c.021-.177.058-.417.11-.719.057-.307.122-.633.195-.977.073-.349.149-.671.227-.968l1.148-4.297h1.828l-2.437 8.648zm13.883-4.336c0 .719-.094 1.357-.281 1.914-.188.558-.461 1.029-.821 1.414-.359.381-.791.672-1.297.875-.505.198-1.075.297-1.711.297-.593 0-1.138-.099-1.632-.297-.495-.203-.925-.494-1.289-.875-.36-.385-.638-.856-.836-1.414-.198-.557-.297-1.195-.297-1.914 0-.953.164-1.76.492-2.422.333-.666.807-1.174 1.422-1.523.614-.349 1.346-.523 2.195-.523.797 0 1.5.174 2.11.523.609.349 1.085.857 1.429 1.523.344.667.516 1.474.516 2.422zm-6.274 0c0 .63.076 1.17.227 1.617.156.448.396.792.719 1.032.323.234.739.351 1.25.351.51 0 .927-.117 1.25-.351.323-.24.56-.584.711-1.032.151-.447.226-.987.226-1.617s-.075-1.164-.226-1.601c-.151-.443-.388-.779-.711-1.008-.323-.235-.743-.352-1.258-.352-.761 0-1.315.256-1.664.766s-.524 1.242-.524 2.195z" fill="#252a2e"/><path d="m316.5 376v24" stroke="#b7b9c3"/><path d="m337.68 394h-1.883v-9.828h-3.344v-1.594h8.563v1.594h-3.336zm6.984-12.156v3.054c0 .318-.01.628-.031.93-.016.302-.034.537-.055.703h.102c.182-.302.406-.549.672-.742.265-.198.562-.346.89-.445.334-.099.688-.149 1.063-.149.661 0 1.224.112 1.687.336.464.219.818.56 1.063 1.024.25.463.375 1.065.375 1.804v5.641h-1.836v-5.297c0-.672-.138-1.174-.414-1.508-.276-.338-.703-.507-1.282-.507-.557 0-1 .117-1.328.351-.323.229-.554.57-.695 1.023-.141.448-.211.995-.211 1.641v4.297h-1.836v-12.156zm12.969 3.344c.146 0 .305.007.476.023.172.016.321.036.446.062l-.172 1.719c-.11-.031-.245-.054-.406-.07-.157-.016-.297-.024-.422-.024-.328 0-.641.055-.938.164-.297.105-.56.266-.789.485-.229.213-.409.482-.539.805-.13.322-.195.697-.195 1.125v4.523h-1.844v-8.648h1.438l.25 1.523h.085c.172-.307.386-.589.641-.844s.547-.458.875-.609c.333-.156.698-.234 1.094-.234zm6.219 0c.77 0 1.432.158 1.984.476s.976.768 1.273 1.352c.297.583.446 1.281.446 2.093v.985h-5.774c.021.838.245 1.484.672 1.937.432.453 1.037.68 1.813.68.552 0 1.046-.052 1.484-.156.443-.11.898-.269 1.367-.477v1.492c-.432.203-.872.352-1.32.446-.448.093-.985.14-1.609.14-.849 0-1.597-.164-2.243-.492-.64-.333-1.143-.828-1.507-1.484-.36-.657-.54-1.472-.54-2.446 0-.968.164-1.791.493-2.468.328-.677.789-1.193 1.382-1.547.594-.354 1.287-.531 2.079-.531zm0 1.382c-.579 0-1.047.188-1.407.563-.354.375-.562.924-.625 1.648h3.938c-.005-.432-.078-.815-.219-1.148-.135-.334-.344-.594-.625-.781-.276-.188-.63-.282-1.062-.282zm9.468-1.382c.771 0 1.433.158 1.985.476s.976.768 1.273 1.352c.297.583.445 1.281.445 2.093v.985h-5.773c.021.838.245 1.484.672 1.937.432.453 1.036.68 1.812.68.552 0 1.047-.052 1.485-.156.442-.11.898-.269 1.367-.477v1.492c-.432.203-.872.352-1.32.446-.448.093-.985.14-1.61.14-.849 0-1.596-.164-2.242-.492-.641-.333-1.143-.828-1.508-1.484-.359-.657-.539-1.472-.539-2.446 0-.968.164-1.791.492-2.468.329-.677.789-1.193 1.383-1.547s1.287-.531 2.078-.531zm0 1.382c-.578 0-1.047.188-1.406.563-.354.375-.562.924-.625 1.648h3.938c-.006-.432-.079-.815-.219-1.148-.136-.334-.344-.594-.625-.781-.276-.188-.63-.282-1.063-.282z" fill="#252a2e"/><path d="m394.5 376v24" stroke="#b7b9c3"/><path d="m418.297 394h-1.859v-11.422h6.453v1.578h-4.594v3.563h4.297v1.57h-4.297zm14.391-4.344c0 .719-.094 1.357-.282 1.914-.187.558-.461 1.029-.82 1.414-.359.381-.792.672-1.297.875-.505.198-1.075.297-1.711.297-.594 0-1.138-.099-1.633-.297-.494-.203-.924-.494-1.289-.875-.359-.385-.638-.856-.836-1.414-.198-.557-.297-1.195-.297-1.914 0-.953.165-1.76.493-2.422.333-.666.807-1.174 1.422-1.523.614-.349 1.346-.523 2.195-.523.797 0 1.5.174 2.109.523.61.349 1.086.857 1.43 1.523.344.667.516 1.474.516 2.422zm-6.274 0c0 .63.076 1.17.227 1.617.156.448.395.792.718 1.032.323.234.74.351 1.25.351.511 0 .927-.117 1.25-.351.323-.24.56-.584.711-1.032.151-.447.227-.987.227-1.617s-.076-1.164-.227-1.601c-.151-.443-.388-.779-.711-1.008-.323-.235-.742-.352-1.257-.352-.761 0-1.316.256-1.664.766-.349.51-.524 1.242-.524 2.195zm16.172-4.304v8.648h-1.445l-.25-1.164h-.102c-.182.297-.414.544-.695.742-.282.193-.594.336-.938.43-.344.099-.705.148-1.086.148-.651 0-1.208-.109-1.672-.328-.458-.224-.809-.568-1.054-1.031-.245-.464-.367-1.063-.367-1.797v-5.648h1.843v5.304c0 .672.136 1.175.407 1.508.276.333.703.5 1.281.5.557 0 1-.115 1.328-.344s.56-.567.695-1.015c.141-.448.211-.998.211-1.649v-4.304zm7.266-.164c.145 0 .304.007.476.023s.32.036.445.062l-.171 1.719c-.11-.031-.245-.054-.407-.07-.156-.016-.297-.024-.422-.024-.328 0-.64.055-.937.164-.297.105-.56.266-.789.485-.229.213-.409.482-.539.805-.13.322-.196.697-.196 1.125v4.523h-1.843v-8.648h1.437l.25 1.523h.086c.172-.307.386-.589.641-.844s.547-.458.875-.609c.333-.156.698-.234 1.094-.234z" fill="#252a2e"/></g><rect height="41" rx="8.5" stroke="#353a40" width="301" x="167.5" y="367.5"/><g clip-path="url(#m)"><rect fill="#0063a3" height="42" rx="7" width="55.6" x="491" y="367"/><path d="m520.34 394h-1.844v-7.352c0-.244.003-.489.008-.734s.01-.484.016-.719c.01-.234.023-.458.039-.672-.11.12-.245.25-.407.391-.156.141-.323.287-.5.438l-1.312 1.046-.922-1.164 3.391-2.656h1.531z" fill="#fff"/><rect height="42" rx="7" stroke="#0063a3" stroke-width="2" width="55.6" x="491" y="367"/><path d="m492.5 368.5h52.6v39h-52.6z" stroke="#0063a3"/><path d="m580.275 394h-7.734v-1.383l2.961-3c.573-.583 1.044-1.086 1.414-1.508.37-.427.643-.83.82-1.211.183-.38.274-.794.274-1.242 0-.552-.159-.968-.477-1.25-.318-.286-.737-.429-1.258-.429-.494 0-.953.099-1.375.296-.416.193-.849.469-1.296.829l-1.008-1.211c.317-.271.656-.519 1.015-.743.365-.224.771-.401 1.219-.531.448-.135.958-.203 1.531-.203.724 0 1.349.13 1.875.391.526.255.93.612 1.211 1.07.287.458.43.992.43 1.602 0 .614-.122 1.182-.367 1.703s-.594 1.036-1.047 1.547c-.453.505-.992 1.054-1.617 1.648l-1.977 1.93v.086h5.406z" fill="#252a2e"/><path d="m607.699 376v24" stroke="#b7b9c3"/><path d="m641.438 385.188c0 .515-.105.963-.313 1.343s-.495.693-.859.938c-.36.239-.776.411-1.25.515v.055c.911.115 1.599.401 2.062.859.469.459.703 1.066.703 1.821 0 .661-.159 1.252-.476 1.773-.318.516-.805.922-1.461 1.219s-1.5.445-2.532.445c-.619 0-1.195-.049-1.726-.148-.526-.099-1.026-.258-1.5-.477v-1.633c.484.24 1 .425 1.547.555s1.065.195 1.555.195c.953 0 1.632-.177 2.039-.531.406-.359.609-.854.609-1.484 0-.406-.107-.74-.32-1-.209-.261-.534-.456-.977-.586-.437-.13-1.003-.195-1.695-.195h-1.008v-1.477h1.016c.661 0 1.192-.078 1.593-.234.401-.162.69-.383.867-.664.183-.282.274-.61.274-.985 0-.489-.159-.87-.477-1.14-.317-.276-.789-.414-1.414-.414-.385 0-.737.044-1.054.132-.313.089-.602.201-.868.336-.265.136-.518.282-.757.438l-.883-1.274c.432-.323.948-.596 1.547-.82s1.297-.336 2.093-.336c1.172 0 2.076.253 2.711.758.636.5.954 1.172.954 2.016z" fill="#252a2e"/><path d="m669.301 376v24" stroke="#b7b9c3"/><path d="m703.891 391.492h-1.547v2.508h-1.813v-2.508h-5.195v-1.39l5.219-7.555h1.789v7.422h1.547zm-3.36-1.523v-2.836c0-.235.003-.472.008-.711.01-.245.021-.479.031-.703.011-.224.021-.43.032-.617.01-.193.018-.352.023-.477h-.063c-.098.208-.208.422-.328.641-.119.213-.247.422-.382.625l-2.813 4.078z" fill="#252a2e"/><path d="m730.9 376v24" stroke="#b7b9c3"/><path d="m761.225 386.859c.734 0 1.38.133 1.937.399.563.26 1 .646 1.313 1.156.312.505.468 1.125.468 1.859 0 .803-.169 1.495-.507 2.079-.339.578-.836 1.023-1.493 1.336-.656.312-1.455.468-2.398.468-.599 0-1.159-.052-1.68-.156-.515-.104-.961-.26-1.336-.469v-1.656c.391.219.86.398 1.407.539.546.135 1.07.203 1.57.203.531 0 .987-.078 1.367-.234s.672-.396.875-.719c.208-.323.313-.732.313-1.226 0-.657-.211-1.162-.633-1.516-.417-.36-1.071-.539-1.961-.539-.313 0-.646.028-1 .086-.349.052-.641.109-.875.172l-.805-.477.43-5.586h5.937v1.617h-4.32l-.25 2.844c.187-.042.411-.081.672-.117.26-.042.583-.063.969-.063z" fill="#252a2e"/></g><rect height="41" rx="8.5" stroke="#353a40" width="301" x="491.5" y="367.5"/></g></g></svg>