<svg fill="none" height="797" viewBox="0 0 961 797" width="961" xmlns="http://www.w3.org/2000/svg"><g fill="#f1f1f6"><path d="m961 585h-319v212h319z"/><path d="m640 585h-319v212h319z"/><path d="m319 585h-319v212h319z"/></g><path d="m284 630h-246c-1.1046 0-2 .895-2 2s.8954 2 2 2h246c1.105 0 2-.895 2-2s-.895-2-2-2z" fill="#cbcdd6"/><path d="m157 630h-119c-1.1046 0-2 .895-2 2s.8954 2 2 2h119c1.105 0 2-.895 2-2s-.895-2-2-2z" fill="#0063a3"/><path d="m159 642c5.523 0 10-4.477 10-10s-4.477-10-10-10-10 4.477-10 10 4.477 10 10 10z" fill="#fff"/><path d="m159 641c4.971 0 9-4.029 9-9s-4.029-9-9-9-9 4.029-9 9 4.029 9 9 9z" stroke="#217cbb" stroke-width="2"/><path d="m21.9648 610.434h1.834l-2.9121 8.566h-1.9805l-2.9062-8.566h1.834l1.6113 5.097c.0899.301.1817.653.2754 1.055.0977.398.1582.676.1816.832.043-.359.1895-.988.4395-1.887zm4.2012 5.279c0 .648.1055 1.139.3164 1.471.2149.332.5625.498 1.043.498.4766 0 .8184-.164 1.0254-.493.2109-.332.3164-.824.3164-1.476 0-.649-.1055-1.135-.3164-1.459-.211-.324-.5567-.486-1.0371-.486-.4766 0-.8203.162-1.0313.486-.2109.32-.3164.807-.3164 1.459zm4.5293 0c0 1.066-.2812 1.9-.8437 2.502-.5625.601-1.3457.902-2.3496.902-.629 0-1.1836-.137-1.6641-.41-.4805-.277-.8496-.674-1.1074-1.189-.2578-.516-.3867-1.118-.3867-1.805 0-1.07.2792-1.902.8378-2.496s1.3438-.891 2.3555-.891c.6289 0 1.1836.137 1.6641.41.4804.274.8496.666 1.1074 1.178s.3867 1.111.3867 1.799zm3.2637 3.287h-1.7871v-9.117h1.7871zm6.5215 0-.2403-.838h-.0937c-.1914.305-.4629.541-.8145.709-.3515.164-.7519.246-1.2011.246-.7696 0-1.3497-.205-1.7403-.615-.3906-.414-.5859-1.008-.5859-1.781v-4.272h1.7871v3.826c0 .473.084.829.252 1.067.1679.234.4355.351.8027.351.5 0 .8613-.166 1.084-.498.2226-.336.334-.89.334-1.664v-3.082h1.7871v6.551zm9.1113 0h-1.7871v-3.826c0-.473-.0801-.826-.2402-1.061-.1563-.238-.4043-.357-.7442-.357-.457 0-.7891.168-.9961.504s-.3105.888-.3105 1.658v3.082h-1.7871v-6.551h1.3652l.2402.838h.0996c.1758-.301.4297-.535.7618-.703.332-.172.7128-.258 1.1425-.258.9805 0 1.6446.32 1.9922.961h.1582c.1758-.305.4336-.541.7735-.709.3437-.168.7304-.252 1.1601-.252.7422 0 1.3028.192 1.6817.574.3828.379.5742.989.5742 1.829v4.271h-1.793v-3.826c0-.473-.0801-.826-.2402-1.061-.1563-.238-.4043-.357-.7442-.357-.4375 0-.7656.156-.9843.469-.2149.312-.3223.808-.3223 1.488zm8.6367-5.402c-.3789 0-.6758.121-.8906.363-.2149.238-.3379.578-.3691 1.019h2.5078c-.0078-.441-.1231-.781-.3457-1.019-.2227-.242-.5235-.363-.9024-.363zm.252 5.519c-1.0547 0-1.8789-.291-2.4727-.873-.5937-.582-.8906-1.406-.8906-2.473 0-1.097.2734-1.945.8203-2.542.5508-.602 1.3105-.903 2.2793-.903.9258 0 1.6465.264 2.1621.791.5156.528.7734 1.256.7734 2.186v.867h-4.2246c.0196.508.17.904.4512 1.189.2813.286.6758.428 1.1836.428.3945 0 .7676-.041 1.1191-.123.3516-.082.7188-.213 1.1016-.393v1.383c-.3125.157-.6465.272-1.002.346-.3554.078-.789.117-1.3007.117z" fill="#464b52"/><path d="m18.677 634.61h-2.677v-5.3h2.658v-.01l5.3-5.306v15.909zm10.324-2.01-2.4 2.4-.6-.6 2.4-2.4-2.4-2.4.6-.6 2.4 2.4 2.4-2.4.6.6-2.4 2.4 2.4 2.4-.6.6z" fill="#252a2e"/><path d="m292.676 634.61h-2.676v-5.3h2.659v-.01l5.3-5.306v15.909zm9.824 1.249c.674-.393 1.233-.955 1.622-1.63.39-.676.595-1.442.596-2.222-.001-.78-.207-1.545-.596-2.221s-.948-1.238-1.622-1.63v-.027l.572-1.124c.888.499 1.627 1.224 2.142 2.103.514.879.785 1.879.786 2.897 0 1.017-.27 2.016-.782 2.895-.513.878-1.25 1.605-2.136 2.105zm-1.328-2.6v-.005c.187-.15.338-.339.442-.555.103-.216.158-.452.158-.691-.001-.239-.055-.475-.159-.691s-.254-.405-.441-.555v-.028l.581-1.138c.4.263.728.621.955 1.042s.345.892.345 1.371c0 .477-.118.946-.344 1.366-.225.42-.551.778-.949 1.041z" fill="#252a2e"/><path d="m921 627h-235c-3.314 0-6 2.686-6 6s2.686 6 6 6h235c3.314 0 6-2.686 6-6s-2.686-6-6-6z" fill="#cbcdd6"/><path d="m795 627h-111c-3.314 0-6 2.686-6 6s2.686 6 6 6h111c3.314 0 6-2.686 6-6s-2.686-6-6-6z" fill="#0063a3"/><path d="m801 649c8.837 0 16-7.163 16-16s-7.163-16-16-16-16 7.163-16 16 7.163 16 16 16z" fill="#fff"/><path d="m801 647.5c8.008 0 14.5-6.492 14.5-14.5s-6.492-14.5-14.5-14.5-14.5 6.492-14.5 14.5 6.492 14.5 14.5 14.5z" stroke="#217cbb" stroke-width="3"/><path d="m659.078 612v-8.566h1.817v7.066h3.474v1.5zm10.805 0-.346-.891h-.047c-.301.379-.611.643-.931.791-.317.145-.731.217-1.243.217-.628 0-1.125-.179-1.488-.539-.359-.359-.539-.871-.539-1.535 0-.695.242-1.207.727-1.535.488-.332 1.222-.516 2.203-.551l1.136-.035v-.287c0-.664-.339-.996-1.019-.996-.524 0-1.139.158-1.846.474l-.592-1.207c.754-.394 1.59-.592 2.508-.592.879 0 1.553.192 2.022.575.468.382.703.965.703 1.746v4.365zm-.528-3.035-.691.023c-.519.016-.906.11-1.16.282-.254.171-.381.433-.381.785 0 .504.289.756.867.756.414 0 .744-.12.99-.358.25-.238.375-.555.375-.949zm7.266-3.639c.774 0 1.379.303 1.817.908.437.602.656 1.428.656 2.479 0 1.082-.227 1.92-.68 2.514-.449.593-1.062.89-1.84.89-.769 0-1.373-.279-1.81-.838h-.123l-.299.721h-1.365v-9.117h1.787v2.121c0 .269-.024.701-.071 1.295h.071c.418-.649 1.037-.973 1.857-.973zm-.574 1.43c-.442 0-.764.137-.967.41-.203.27-.309.717-.316 1.342v.193c0 .703.103 1.207.31 1.512.211.305.543.457.996.457.368 0 .659-.168.873-.504.219-.34.328-.832.328-1.477 0-.644-.109-1.127-.328-1.447-.218-.324-.517-.486-.896-.486zm7.236-.158c-.379 0-.676.121-.89.363-.215.238-.338.578-.37 1.019h2.508c-.008-.441-.123-.781-.345-1.019-.223-.242-.524-.363-.903-.363zm.252 5.519c-1.055 0-1.879-.291-2.473-.873-.593-.582-.89-1.406-.89-2.473 0-1.097.273-1.945.82-2.542.551-.602 1.311-.903 2.279-.903.926 0 1.647.264 2.163.791.515.528.773 1.256.773 2.186v.867h-4.225c.02.508.17.904.452 1.189.281.286.675.428 1.183.428.395 0 .768-.041 1.119-.123.352-.082.719-.213 1.102-.393v1.383c-.313.157-.647.272-1.002.346-.356.078-.789.117-1.301.117zm5.912-.117h-1.787v-9.117h1.787z" fill="#464b52"/><path d="m660.677 635.61h-2.677v-5.3h2.658v-.01l5.3-5.306v15.909zm10.324-2.01-2.4 2.4-.6-.6 2.4-2.4-2.4-2.4.6-.6 2.4 2.4 2.4-2.4.6.6-2.4 2.4 2.4 2.4-.6.6z" fill="#252a2e"/><path d="m933.676 634.61h-2.676v-5.3h2.659v-.01l5.3-5.306v15.909zm9.824 1.249c.674-.393 1.233-.955 1.622-1.63.39-.676.595-1.442.596-2.222-.001-.78-.207-1.545-.596-2.221s-.948-1.238-1.622-1.63v-.027l.572-1.124c.888.499 1.627 1.224 2.142 2.103.514.879.785 1.879.786 2.897 0 1.017-.27 2.016-.782 2.895-.513.878-1.25 1.605-2.136 2.105zm-1.328-2.6v-.005c.187-.15.338-.339.442-.555.103-.216.158-.452.158-.691-.001-.239-.055-.475-.159-.691s-.254-.405-.441-.555v-.028l.581-1.138c.4.263.728.621.955 1.042s.345.892.345 1.371c0 .477-.118.946-.344 1.366-.225.42-.551.778-.949 1.041z" fill="#252a2e"/><path d="m607 630h-240c-2.209 0-4 1.791-4 4s1.791 4 4 4h240c2.209 0 4-1.791 4-4s-1.791-4-4-4z" fill="#cbcdd6"/><path d="m481 630h-114c-2.209 0-4 1.791-4 4s1.791 4 4 4h114c2.209 0 4-1.791 4-4s-1.791-4-4-4z" fill="#0063a3"/><path d="m480 646c6.627 0 12-5.373 12-12s-5.373-12-12-12-12 5.373-12 12 5.373 12 12 12z" fill="#fff"/><path d="m480 645c6.075 0 11-4.925 11-11s-4.925-11-11-11-11 4.925-11 11 4.925 11 11 11z" stroke="#217cbb" stroke-width="2"/><path d="m347.965 606.434h1.834l-2.912 8.566h-1.981l-2.906-8.566h1.834l1.611 5.097c.09.301.182.653.276 1.055.097.398.158.676.181.832.043-.359.19-.988.44-1.887zm4.201 5.279c0 .648.105 1.139.316 1.471.215.332.563.498 1.043.498.477 0 .819-.164 1.026-.493.211-.332.316-.824.316-1.476 0-.649-.105-1.135-.316-1.459s-.557-.486-1.037-.486c-.477 0-.821.162-1.032.486-.211.32-.316.807-.316 1.459zm4.529 0c0 1.066-.281 1.9-.843 2.502-.563.601-1.346.902-2.35.902-.629 0-1.184-.137-1.664-.41-.481-.277-.85-.674-1.108-1.189-.257-.516-.386-1.118-.386-1.805 0-1.07.279-1.902.838-2.496.558-.594 1.343-.891 2.355-.891.629 0 1.184.137 1.664.41.481.274.85.666 1.108 1.178.257.512.386 1.111.386 1.799zm3.264 3.287h-1.787v-9.117h1.787zm6.521 0-.24-.838h-.094c-.191.305-.462.541-.814.709-.352.164-.752.246-1.201.246-.77 0-1.35-.205-1.74-.615-.391-.414-.586-1.008-.586-1.781v-4.272h1.787v3.826c0 .473.084.829.252 1.067.168.234.435.351.802.351.5 0 .862-.166 1.084-.498.223-.336.334-.89.334-1.664v-3.082h1.788v6.551zm9.112 0h-1.787v-3.826c0-.473-.08-.826-.241-1.061-.156-.238-.404-.357-.744-.357-.457 0-.789.168-.996.504s-.31.888-.31 1.658v3.082h-1.787v-6.551h1.365l.24.838h.1c.175-.301.429-.535.761-.703.332-.172.713-.258 1.143-.258.98 0 1.644.32 1.992.961h.158c.176-.305.434-.541.774-.709.344-.168.73-.252 1.16-.252.742 0 1.303.192 1.682.574.382.379.574.989.574 1.829v4.271h-1.793v-3.826c0-.473-.08-.826-.24-1.061-.157-.238-.405-.357-.745-.357-.437 0-.765.156-.984.469-.215.312-.322.808-.322 1.488zm8.637-5.402c-.379 0-.676.121-.891.363-.215.238-.338.578-.369 1.019h2.508c-.008-.441-.123-.781-.346-1.019-.223-.242-.524-.363-.902-.363zm.251 5.519c-1.054 0-1.878-.291-2.472-.873s-.891-1.406-.891-2.473c0-1.097.274-1.945.821-2.542.55-.602 1.31-.903 2.279-.903.926 0 1.646.264 2.162.791.516.528.773 1.256.773 2.186v.867h-4.224c.019.508.17.904.451 1.189.281.286.676.428 1.183.428.395 0 .768-.041 1.12-.123.351-.082.718-.213 1.101-.393v1.383c-.312.157-.646.272-1.002.346-.355.078-.789.117-1.301.117z" fill="#464b52"/><path d="m344.677 635.61h-2.677v-5.3h2.658v-.01l5.3-5.306v15.909zm10.324-2.01-2.4 2.4-.6-.6 2.4-2.4-2.4-2.4.6-.6 2.4 2.4 2.4-2.4.6.6-2.4 2.4 2.4 2.4-.6.6z" fill="#252a2e"/><path d="m618.676 635.61h-2.676v-5.3h2.659v-.01l5.3-5.306v15.909zm9.824 1.249c.674-.393 1.233-.955 1.622-1.63.39-.676.595-1.442.596-2.222-.001-.78-.207-1.545-.596-2.221s-.948-1.238-1.622-1.63v-.027l.572-1.124c.888.499 1.627 1.224 2.142 2.103.514.879.785 1.879.786 2.897 0 1.017-.27 2.016-.782 2.895-.513.878-1.25 1.605-2.136 2.105zm-1.328-2.6v-.005c.187-.15.338-.339.442-.555.103-.216.158-.452.158-.691-.001-.239-.055-.475-.159-.691s-.254-.405-.441-.555v-.028l.581-1.138c.4.263.728.621.955 1.042s.345.892.345 1.371c0 .477-.118.946-.344 1.366-.225.42-.551.778-.949 1.041z" fill="#252a2e"/><path d="m607 697h-240c-2.209 0-4 1.791-4 4s1.791 4 4 4h240c2.209 0 4-1.791 4-4s-1.791-4-4-4z" fill="#cbcdd6"/><path d="m481 697h-114c-2.209 0-4 1.791-4 4s1.791 4 4 4h114c2.209 0 4-1.791 4-4s-1.791-4-4-4z" fill="#0063a3"/><path d="m481 722c12.15 0 22-9.85 22-22s-9.85-22-22-22-22 9.85-22 22 9.85 22 22 22z" fill="#217cbb" fill-opacity=".3"/><path d="m481 713c6.627 0 12-5.373 12-12s-5.373-12-12-12-12 5.373-12 12 5.373 12 12 12z" fill="#fff"/><path d="m481 711.5c5.799 0 10.5-4.701 10.5-10.5s-4.701-10.5-10.5-10.5-10.5 4.701-10.5 10.5 4.701 10.5 10.5 10.5z" stroke="#217cbb" stroke-width="3"/><path d="m347.965 673.434h1.834l-2.912 8.566h-1.981l-2.906-8.566h1.834l1.611 5.097c.09.301.182.653.276 1.055.097.398.158.676.181.832.043-.359.19-.988.44-1.887zm4.201 5.279c0 .648.105 1.139.316 1.471.215.332.563.498 1.043.498.477 0 .819-.164 1.026-.493.211-.332.316-.824.316-1.476 0-.649-.105-1.135-.316-1.459s-.557-.486-1.037-.486c-.477 0-.821.162-1.032.486-.211.32-.316.807-.316 1.459zm4.529 0c0 1.066-.281 1.9-.843 2.502-.563.601-1.346.902-2.35.902-.629 0-1.184-.137-1.664-.41-.481-.277-.85-.674-1.108-1.189-.257-.516-.386-1.118-.386-1.805 0-1.07.279-1.902.838-2.496.558-.594 1.343-.891 2.355-.891.629 0 1.184.137 1.664.41.481.274.85.666 1.108 1.178.257.512.386 1.111.386 1.799zm3.264 3.287h-1.787v-9.117h1.787zm6.521 0-.24-.838h-.094c-.191.305-.462.541-.814.709-.352.164-.752.246-1.201.246-.77 0-1.35-.205-1.74-.615-.391-.414-.586-1.008-.586-1.781v-4.272h1.787v3.826c0 .473.084.829.252 1.067.168.234.435.351.802.351.5 0 .862-.166 1.084-.498.223-.336.334-.89.334-1.664v-3.082h1.788v6.551zm9.112 0h-1.787v-3.826c0-.473-.08-.826-.241-1.061-.156-.238-.404-.357-.744-.357-.457 0-.789.168-.996.504s-.31.888-.31 1.658v3.082h-1.787v-6.551h1.365l.24.838h.1c.175-.301.429-.535.761-.703.332-.172.713-.258 1.143-.258.98 0 1.644.32 1.992.961h.158c.176-.305.434-.541.774-.709.344-.168.73-.252 1.16-.252.742 0 1.303.192 1.682.574.382.379.574.989.574 1.829v4.271h-1.793v-3.826c0-.473-.08-.826-.24-1.061-.157-.238-.405-.357-.745-.357-.437 0-.765.156-.984.469-.215.312-.322.808-.322 1.488zm8.637-5.402c-.379 0-.676.121-.891.363-.215.238-.338.578-.369 1.019h2.508c-.008-.441-.123-.781-.346-1.019-.223-.242-.524-.363-.902-.363zm.251 5.519c-1.054 0-1.878-.291-2.472-.873s-.891-1.406-.891-2.473c0-1.097.274-1.945.821-2.542.55-.602 1.31-.903 2.279-.903.926 0 1.646.264 2.162.791.516.528.773 1.256.773 2.186v.867h-4.224c.019.508.17.904.451 1.189.281.286.676.428 1.183.428.395 0 .768-.041 1.12-.123.351-.082.718-.213 1.101-.393v1.383c-.312.157-.646.272-1.002.346-.355.078-.789.117-1.301.117z" fill="#464b52"/><path d="m344.677 702.61h-2.677v-5.3h2.658v-.01l5.3-5.306v15.909zm10.324-2.01-2.4 2.4-.6-.6 2.4-2.4-2.4-2.4.6-.6 2.4 2.4 2.4-2.4.6.6-2.4 2.4 2.4 2.4-.6.6z" fill="#252a2e"/><path d="m618.676 702.61h-2.676v-5.3h2.659v-.01l5.3-5.306v15.909zm9.824 1.249c.674-.393 1.233-.955 1.622-1.63.39-.676.595-1.442.596-2.222-.001-.78-.207-1.545-.596-2.221s-.948-1.238-1.622-1.63v-.027l.572-1.124c.888.499 1.627 1.224 2.142 2.103.514.879.785 1.879.786 2.897 0 1.017-.27 2.016-.782 2.895-.513.878-1.25 1.605-2.136 2.105zm-1.328-2.6v-.005c.187-.15.338-.339.442-.555.103-.216.158-.452.158-.691-.001-.239-.055-.475-.159-.691s-.254-.405-.441-.555v-.028l.581-1.138c.4.263.728.621.955 1.042s.345.892.345 1.371c0 .477-.118.946-.344 1.366-.225.42-.551.778-.949 1.041z" fill="#252a2e"/><path d="m607 764h-240c-2.209 0-4 1.791-4 4s1.791 4 4 4h240c2.209 0 4-1.791 4-4s-1.791-4-4-4z" fill="#cbcdd6"/><path d="m481 764h-114c-2.209 0-4 1.791-4 4s1.791 4 4 4h114c2.209 0 4-1.791 4-4s-1.791-4-4-4z" fill="#a3a6b1"/><path d="m480 780c6.627 0 12-5.373 12-12s-5.373-12-12-12-12 5.373-12 12 5.373 12 12 12z" fill="#fff"/><path d="m480 779c6.075 0 11-4.925 11-11s-4.925-11-11-11-11 4.925-11 11 4.925 11 11 11z" stroke="#cbcdd6" stroke-width="2"/><path d="m347.965 740.434h1.834l-2.912 8.566h-1.981l-2.906-8.566h1.834l1.611 5.097c.09.301.182.653.276 1.055.097.398.158.676.181.832.043-.359.19-.988.44-1.887zm4.201 5.279c0 .648.105 1.139.316 1.471.215.332.563.498 1.043.498.477 0 .819-.164 1.026-.493.211-.332.316-.824.316-1.476 0-.649-.105-1.135-.316-1.459s-.557-.486-1.037-.486c-.477 0-.821.162-1.032.486-.211.32-.316.807-.316 1.459zm4.529 0c0 1.066-.281 1.9-.843 2.502-.563.601-1.346.902-2.35.902-.629 0-1.184-.137-1.664-.41-.481-.277-.85-.674-1.108-1.189-.257-.516-.386-1.118-.386-1.805 0-1.07.279-1.902.838-2.496.558-.594 1.343-.891 2.355-.891.629 0 1.184.137 1.664.41.481.274.85.666 1.108 1.178.257.512.386 1.111.386 1.799zm3.264 3.287h-1.787v-9.117h1.787zm6.521 0-.24-.838h-.094c-.191.305-.462.541-.814.709-.352.164-.752.246-1.201.246-.77 0-1.35-.205-1.74-.615-.391-.414-.586-1.008-.586-1.781v-4.272h1.787v3.826c0 .473.084.829.252 1.067.168.234.435.351.802.351.5 0 .862-.166 1.084-.498.223-.336.334-.89.334-1.664v-3.082h1.788v6.551zm9.112 0h-1.787v-3.826c0-.473-.08-.826-.241-1.061-.156-.238-.404-.357-.744-.357-.457 0-.789.168-.996.504s-.31.888-.31 1.658v3.082h-1.787v-6.551h1.365l.24.838h.1c.175-.301.429-.535.761-.703.332-.172.713-.258 1.143-.258.98 0 1.644.32 1.992.961h.158c.176-.305.434-.541.774-.709.344-.168.73-.252 1.16-.252.742 0 1.303.192 1.682.574.382.379.574.989.574 1.829v4.271h-1.793v-3.826c0-.473-.08-.826-.24-1.061-.157-.238-.405-.357-.745-.357-.437 0-.765.156-.984.469-.215.312-.322.808-.322 1.488zm8.637-5.402c-.379 0-.676.121-.891.363-.215.238-.338.578-.369 1.019h2.508c-.008-.441-.123-.781-.346-1.019-.223-.242-.524-.363-.902-.363zm.251 5.519c-1.054 0-1.878-.291-2.472-.873s-.891-1.406-.891-2.473c0-1.097.274-1.945.821-2.542.55-.602 1.31-.903 2.279-.903.926 0 1.646.264 2.162.791.516.528.773 1.256.773 2.186v.867h-4.224c.019.508.17.904.451 1.189.281.286.676.428 1.183.428.395 0 .768-.041 1.12-.123.351-.082.718-.213 1.101-.393v1.383c-.312.157-.646.272-1.002.346-.355.078-.789.117-1.301.117z" fill="#90939f"/><path d="m344.677 769.61h-2.677v-5.3h2.658v-.01l5.3-5.306v15.909zm10.324-2.01-2.4 2.4-.6-.6 2.4-2.4-2.4-2.4.6-.6 2.4 2.4 2.4-2.4.6.6-2.4 2.4 2.4 2.4-.6.6z" fill="#252a2e" opacity=".3"/><path d="m618.676 769.61h-2.676v-5.3h2.659v-.01l5.3-5.306v15.909zm9.824 1.249c.674-.393 1.233-.955 1.622-1.63.39-.676.595-1.442.596-2.222-.001-.78-.207-1.545-.596-2.221s-.948-1.238-1.622-1.63v-.027l.572-1.124c.888.499 1.627 1.224 2.142 2.103.514.879.785 1.879.786 2.897 0 1.017-.27 2.016-.782 2.895-.513.878-1.25 1.605-2.136 2.105zm-1.328-2.6v-.005c.187-.15.338-.339.442-.555.103-.216.158-.452.158-.691-.001-.239-.055-.475-.159-.691s-.254-.405-.441-.555v-.028l.581-1.138c.4.263.728.621.955 1.042s.345.892.345 1.371c0 .477-.118.946-.344 1.366-.225.42-.551.778-.949 1.041z" fill="#252a2e" opacity=".3"/><path d="m921 694h-235c-3.314 0-6 2.686-6 6s2.686 6 6 6h235c3.314 0 6-2.686 6-6s-2.686-6-6-6z" fill="#cbcdd6"/><path d="m795 694h-111c-3.314 0-6 2.686-6 6s2.686 6 6 6h111c3.314 0 6-2.686 6-6s-2.686-6-6-6z" fill="#0063a3"/><path d="m801 724c13.255 0 24-10.745 24-24s-10.745-24-24-24-24 10.745-24 24 10.745 24 24 24z" fill="#217cbb" fill-opacity=".3"/><path d="m801 716c8.837 0 16-7.163 16-16s-7.163-16-16-16-16 7.163-16 16 7.163 16 16 16z" fill="#fff"/><path d="m801 714c7.732 0 14-6.268 14-14s-6.268-14-14-14-14 6.268-14 14 6.268 14 14 14z" stroke="#217cbb" stroke-width="4"/><path d="m659.078 679v-8.566h1.817v7.066h3.474v1.5zm10.805 0-.346-.891h-.047c-.301.379-.611.643-.931.791-.317.145-.731.217-1.243.217-.628 0-1.125-.179-1.488-.539-.359-.359-.539-.871-.539-1.535 0-.695.242-1.207.727-1.535.488-.332 1.222-.516 2.203-.551l1.136-.035v-.287c0-.664-.339-.996-1.019-.996-.524 0-1.139.158-1.846.474l-.592-1.207c.754-.394 1.59-.592 2.508-.592.879 0 1.553.192 2.022.575.468.382.703.965.703 1.746v4.365zm-.528-3.035-.691.023c-.519.016-.906.11-1.16.282-.254.171-.381.433-.381.785 0 .504.289.756.867.756.414 0 .744-.12.99-.358.25-.238.375-.555.375-.949zm7.266-3.639c.774 0 1.379.303 1.817.908.437.602.656 1.428.656 2.479 0 1.082-.227 1.92-.68 2.514-.449.593-1.062.89-1.84.89-.769 0-1.373-.279-1.81-.838h-.123l-.299.721h-1.365v-9.117h1.787v2.121c0 .269-.024.701-.071 1.295h.071c.418-.649 1.037-.973 1.857-.973zm-.574 1.43c-.442 0-.764.137-.967.41-.203.27-.309.717-.316 1.342v.193c0 .703.103 1.207.31 1.512.211.305.543.457.996.457.368 0 .659-.168.873-.504.219-.34.328-.832.328-1.477 0-.644-.109-1.127-.328-1.447-.218-.324-.517-.486-.896-.486zm7.236-.158c-.379 0-.676.121-.89.363-.215.238-.338.578-.37 1.019h2.508c-.008-.441-.123-.781-.345-1.019-.223-.242-.524-.363-.903-.363zm.252 5.519c-1.055 0-1.879-.291-2.473-.873-.593-.582-.89-1.406-.89-2.473 0-1.097.273-1.945.82-2.542.551-.602 1.311-.903 2.279-.903.926 0 1.647.264 2.163.791.515.528.773 1.256.773 2.186v.867h-4.225c.02.508.17.904.452 1.189.281.286.675.428 1.183.428.395 0 .768-.041 1.119-.123.352-.082.719-.213 1.102-.393v1.383c-.313.157-.647.272-1.002.346-.356.078-.789.117-1.301.117zm5.912-.117h-1.787v-9.117h1.787z" fill="#464b52"/><path d="m660.677 702.61h-2.677v-5.3h2.658v-.01l5.3-5.306v15.909zm10.324-2.01-2.4 2.4-.6-.6 2.4-2.4-2.4-2.4.6-.6 2.4 2.4 2.4-2.4.6.6-2.4 2.4 2.4 2.4-.6.6z" fill="#252a2e"/><path d="m933.676 701.61h-2.676v-5.3h2.659v-.01l5.3-5.306v15.909zm9.824 1.249c.674-.393 1.233-.955 1.622-1.63.39-.676.595-1.442.596-2.222-.001-.78-.207-1.545-.596-2.221s-.948-1.238-1.622-1.63v-.027l.572-1.124c.888.499 1.627 1.224 2.142 2.103.514.879.785 1.879.786 2.897 0 1.017-.27 2.016-.782 2.895-.513.878-1.25 1.605-2.136 2.105zm-1.328-2.6v-.005c.187-.15.338-.339.442-.555.103-.216.158-.452.158-.691-.001-.239-.055-.475-.159-.691s-.254-.405-.441-.555v-.028l.581-1.138c.4.263.728.621.955 1.042s.345.892.345 1.371c0 .477-.118.946-.344 1.366-.225.42-.551.778-.949 1.041z" fill="#252a2e"/><path d="m921 761h-235c-3.314 0-6 2.686-6 6s2.686 6 6 6h235c3.314 0 6-2.686 6-6s-2.686-6-6-6z" fill="#cbcdd6"/><path d="m795 761h-111c-3.314 0-6 2.686-6 6s2.686 6 6 6h111c3.314 0 6-2.686 6-6s-2.686-6-6-6z" fill="#a3a6b1"/><path d="m801 783c8.837 0 16-7.163 16-16s-7.163-16-16-16-16 7.163-16 16 7.163 16 16 16z" fill="#fff"/><path d="m801 781.5c8.008 0 14.5-6.492 14.5-14.5s-6.492-14.5-14.5-14.5-14.5 6.492-14.5 14.5 6.492 14.5 14.5 14.5z" stroke="#cbcdd6" stroke-width="3"/><path d="m659.078 746v-8.566h1.817v7.066h3.474v1.5zm10.805 0-.346-.891h-.047c-.301.379-.611.643-.931.791-.317.145-.731.217-1.243.217-.628 0-1.125-.179-1.488-.539-.359-.359-.539-.871-.539-1.535 0-.695.242-1.207.727-1.535.488-.332 1.222-.516 2.203-.551l1.136-.035v-.287c0-.664-.339-.996-1.019-.996-.524 0-1.139.158-1.846.474l-.592-1.207c.754-.394 1.59-.592 2.508-.592.879 0 1.553.192 2.022.575.468.382.703.965.703 1.746v4.365zm-.528-3.035-.691.023c-.519.016-.906.11-1.16.282-.254.171-.381.433-.381.785 0 .504.289.756.867.756.414 0 .744-.12.99-.358.25-.238.375-.555.375-.949zm7.266-3.639c.774 0 1.379.303 1.817.908.437.602.656 1.428.656 2.479 0 1.082-.227 1.92-.68 2.514-.449.593-1.062.89-1.84.89-.769 0-1.373-.279-1.81-.838h-.123l-.299.721h-1.365v-9.117h1.787v2.121c0 .269-.024.701-.071 1.295h.071c.418-.649 1.037-.973 1.857-.973zm-.574 1.43c-.442 0-.764.137-.967.41-.203.27-.309.717-.316 1.342v.193c0 .703.103 1.207.31 1.512.211.305.543.457.996.457.368 0 .659-.168.873-.504.219-.34.328-.832.328-1.477 0-.644-.109-1.127-.328-1.447-.218-.324-.517-.486-.896-.486zm7.236-.158c-.379 0-.676.121-.89.363-.215.238-.338.578-.37 1.019h2.508c-.008-.441-.123-.781-.345-1.019-.223-.242-.524-.363-.903-.363zm.252 5.519c-1.055 0-1.879-.291-2.473-.873-.593-.582-.89-1.406-.89-2.473 0-1.097.273-1.945.82-2.542.551-.602 1.311-.903 2.279-.903.926 0 1.647.264 2.163.791.515.528.773 1.256.773 2.186v.867h-4.225c.02.508.17.904.452 1.189.281.286.675.428 1.183.428.395 0 .768-.041 1.119-.123.352-.082.719-.213 1.102-.393v1.383c-.313.157-.647.272-1.002.346-.356.078-.789.117-1.301.117zm5.912-.117h-1.787v-9.117h1.787z" fill="#464b52"/><path d="m660.677 769.61h-2.677v-5.3h2.658v-.01l5.3-5.306v15.909zm10.324-2.01-2.4 2.4-.6-.6 2.4-2.4-2.4-2.4.6-.6 2.4 2.4 2.4-2.4.6.6-2.4 2.4 2.4 2.4-.6.6z" fill="#252a2e" opacity=".3"/><path d="m933.676 768.61h-2.676v-5.3h2.659v-.01l5.3-5.306v15.909zm9.824 1.249c.674-.393 1.233-.955 1.622-1.63.39-.676.595-1.442.596-2.222-.001-.78-.207-1.545-.596-2.221s-.948-1.238-1.622-1.63v-.027l.572-1.124c.888.499 1.627 1.224 2.142 2.103.514.879.785 1.879.786 2.897 0 1.017-.27 2.016-.782 2.895-.513.878-1.25 1.605-2.136 2.105zm-1.328-2.6v-.005c.187-.15.338-.339.442-.555.103-.216.158-.452.158-.691-.001-.239-.055-.475-.159-.691s-.254-.405-.441-.555v-.028l.581-1.138c.4.263.728.621.955 1.042s.345.892.345 1.371c0 .477-.118.946-.344 1.366-.225.42-.551.778-.949 1.041z" fill="#252a2e" opacity=".3"/><path d="m284 697h-246c-1.1046 0-2 .895-2 2s.8954 2 2 2h246c1.105 0 2-.895 2-2s-.895-2-2-2z" fill="#cbcdd6"/><path d="m157 697h-119c-1.1046 0-2 .895-2 2s.8954 2 2 2h119c1.105 0 2-.895 2-2s-.895-2-2-2z" fill="#0063a3"/><path d="m159 718c11.046 0 20-8.954 20-20s-8.954-20-20-20-20 8.954-20 20 8.954 20 20 20z" fill="#217cbb" fill-opacity=".3"/><path d="m159 709c5.523 0 10-4.477 10-10s-4.477-10-10-10-10 4.477-10 10 4.477 10 10 10z" fill="#fff"/><path d="m159 707.5c4.694 0 8.5-3.806 8.5-8.5s-3.806-8.5-8.5-8.5-8.5 3.806-8.5 8.5 3.806 8.5 8.5 8.5z" stroke="#217cbb" stroke-width="3"/><path d="m21.9648 677.434h1.834l-2.9121 8.566h-1.9805l-2.9062-8.566h1.834l1.6113 5.097c.0899.301.1817.653.2754 1.055.0977.398.1582.676.1816.832.043-.359.1895-.988.4395-1.887zm4.2012 5.279c0 .648.1055 1.139.3164 1.471.2149.332.5625.498 1.043.498.4766 0 .8184-.164 1.0254-.493.2109-.332.3164-.824.3164-1.476 0-.649-.1055-1.135-.3164-1.459-.211-.324-.5567-.486-1.0371-.486-.4766 0-.8203.162-1.0313.486-.2109.32-.3164.807-.3164 1.459zm4.5293 0c0 1.066-.2812 1.9-.8437 2.502-.5625.601-1.3457.902-2.3496.902-.629 0-1.1836-.137-1.6641-.41-.4805-.277-.8496-.674-1.1074-1.189-.2578-.516-.3867-1.118-.3867-1.805 0-1.07.2792-1.902.8378-2.496s1.3438-.891 2.3555-.891c.6289 0 1.1836.137 1.6641.41.4804.274.8496.666 1.1074 1.178s.3867 1.111.3867 1.799zm3.2637 3.287h-1.7871v-9.117h1.7871zm6.5215 0-.2403-.838h-.0937c-.1914.305-.4629.541-.8145.709-.3515.164-.7519.246-1.2011.246-.7696 0-1.3497-.205-1.7403-.615-.3906-.414-.5859-1.008-.5859-1.781v-4.272h1.7871v3.826c0 .473.084.829.252 1.067.1679.234.4355.351.8027.351.5 0 .8613-.166 1.084-.498.2226-.336.334-.89.334-1.664v-3.082h1.7871v6.551zm9.1113 0h-1.7871v-3.826c0-.473-.0801-.826-.2402-1.061-.1563-.238-.4043-.357-.7442-.357-.457 0-.7891.168-.9961.504s-.3105.888-.3105 1.658v3.082h-1.7871v-6.551h1.3652l.2402.838h.0996c.1758-.301.4297-.535.7618-.703.332-.172.7128-.258 1.1425-.258.9805 0 1.6446.32 1.9922.961h.1582c.1758-.305.4336-.541.7735-.709.3437-.168.7304-.252 1.1601-.252.7422 0 1.3028.192 1.6817.574.3828.379.5742.989.5742 1.829v4.271h-1.793v-3.826c0-.473-.0801-.826-.2402-1.061-.1563-.238-.4043-.357-.7442-.357-.4375 0-.7656.156-.9843.469-.2149.312-.3223.808-.3223 1.488zm8.6367-5.402c-.3789 0-.6758.121-.8906.363-.2149.238-.3379.578-.3691 1.019h2.5078c-.0078-.441-.1231-.781-.3457-1.019-.2227-.242-.5235-.363-.9024-.363zm.252 5.519c-1.0547 0-1.8789-.291-2.4727-.873-.5937-.582-.8906-1.406-.8906-2.473 0-1.097.2734-1.945.8203-2.542.5508-.602 1.3105-.903 2.2793-.903.9258 0 1.6465.264 2.1621.791.5156.528.7734 1.256.7734 2.186v.867h-4.2246c.0196.508.17.904.4512 1.189.2813.286.6758.428 1.1836.428.3945 0 .7676-.041 1.1191-.123.3516-.082.7188-.213 1.1016-.393v1.383c-.3125.157-.6465.272-1.002.346-.3554.078-.789.117-1.3007.117z" fill="#464b52"/><path d="m18.677 701.61h-2.677v-5.3h2.658v-.01l5.3-5.306v15.909zm10.324-2.01-2.4 2.4-.6-.6 2.4-2.4-2.4-2.4.6-.6 2.4 2.4 2.4-2.4.6.6-2.4 2.4 2.4 2.4-.6.6z" fill="#252a2e"/><path d="m292.676 701.61h-2.676v-5.3h2.659v-.01l5.3-5.306v15.909zm9.824 1.249c.674-.393 1.233-.955 1.622-1.63.39-.676.595-1.442.596-2.222-.001-.78-.207-1.545-.596-2.221s-.948-1.238-1.622-1.63v-.027l.572-1.124c.888.499 1.627 1.224 2.142 2.103.514.879.785 1.879.786 2.897 0 1.017-.27 2.016-.782 2.895-.513.878-1.25 1.605-2.136 2.105zm-1.328-2.6v-.005c.187-.15.338-.339.442-.555.103-.216.158-.452.158-.691-.001-.239-.055-.475-.159-.691s-.254-.405-.441-.555v-.028l.581-1.138c.4.263.728.621.955 1.042s.345.892.345 1.371c0 .477-.118.946-.344 1.366-.225.42-.551.778-.949 1.041z" fill="#252a2e"/><path d="m284 764h-246c-1.1046 0-2 .895-2 2s.8954 2 2 2h246c1.105 0 2-.895 2-2s-.895-2-2-2z" fill="#cbcdd6"/><path d="m157 764h-119c-1.1046 0-2 .895-2 2s.8954 2 2 2h119c1.105 0 2-.895 2-2s-.895-2-2-2z" fill="#a3a6b1"/><path d="m159 776c5.523 0 10-4.477 10-10s-4.477-10-10-10-10 4.477-10 10 4.477 10 10 10z" fill="#fff"/><path d="m159 775c4.971 0 9-4.029 9-9s-4.029-9-9-9-9 4.029-9 9 4.029 9 9 9z" stroke="#cbcdd6" stroke-width="2"/><path d="m21.9648 744.434h1.834l-2.9121 8.566h-1.9805l-2.9062-8.566h1.834l1.6113 5.097c.0899.301.1817.653.2754 1.055.0977.398.1582.676.1816.832.043-.359.1895-.988.4395-1.887zm4.2012 5.279c0 .648.1055 1.139.3164 1.471.2149.332.5625.498 1.043.498.4766 0 .8184-.164 1.0254-.493.2109-.332.3164-.824.3164-1.476 0-.649-.1055-1.135-.3164-1.459-.211-.324-.5567-.486-1.0371-.486-.4766 0-.8203.162-1.0313.486-.2109.32-.3164.807-.3164 1.459zm4.5293 0c0 1.066-.2812 1.9-.8437 2.502-.5625.601-1.3457.902-2.3496.902-.629 0-1.1836-.137-1.6641-.41-.4805-.277-.8496-.674-1.1074-1.189-.2578-.516-.3867-1.118-.3867-1.805 0-1.07.2792-1.902.8378-2.496s1.3438-.891 2.3555-.891c.6289 0 1.1836.137 1.6641.41.4804.274.8496.666 1.1074 1.178s.3867 1.111.3867 1.799zm3.2637 3.287h-1.7871v-9.117h1.7871zm6.5215 0-.2403-.838h-.0937c-.1914.305-.4629.541-.8145.709-.3515.164-.7519.246-1.2011.246-.7696 0-1.3497-.205-1.7403-.615-.3906-.414-.5859-1.008-.5859-1.781v-4.272h1.7871v3.826c0 .473.084.829.252 1.067.1679.234.4355.351.8027.351.5 0 .8613-.166 1.084-.498.2226-.336.334-.89.334-1.664v-3.082h1.7871v6.551zm9.1113 0h-1.7871v-3.826c0-.473-.0801-.826-.2402-1.061-.1563-.238-.4043-.357-.7442-.357-.457 0-.7891.168-.9961.504s-.3105.888-.3105 1.658v3.082h-1.7871v-6.551h1.3652l.2402.838h.0996c.1758-.301.4297-.535.7618-.703.332-.172.7128-.258 1.1425-.258.9805 0 1.6446.32 1.9922.961h.1582c.1758-.305.4336-.541.7735-.709.3437-.168.7304-.252 1.1601-.252.7422 0 1.3028.192 1.6817.574.3828.379.5742.989.5742 1.829v4.271h-1.793v-3.826c0-.473-.0801-.826-.2402-1.061-.1563-.238-.4043-.357-.7442-.357-.4375 0-.7656.156-.9843.469-.2149.312-.3223.808-.3223 1.488zm8.6367-5.402c-.3789 0-.6758.121-.8906.363-.2149.238-.3379.578-.3691 1.019h2.5078c-.0078-.441-.1231-.781-.3457-1.019-.2227-.242-.5235-.363-.9024-.363zm.252 5.519c-1.0547 0-1.8789-.291-2.4727-.873-.5937-.582-.8906-1.406-.8906-2.473 0-1.097.2734-1.945.8203-2.542.5508-.602 1.3105-.903 2.2793-.903.9258 0 1.6465.264 2.1621.791.5156.528.7734 1.256.7734 2.186v.867h-4.2246c.0196.508.17.904.4512 1.189.2813.286.6758.428 1.1836.428.3945 0 .7676-.041 1.1191-.123.3516-.082.7188-.213 1.1016-.393v1.383c-.3125.157-.6465.272-1.002.346-.3554.078-.789.117-1.3007.117z" fill="#90939f"/><path d="m18.677 768.61h-2.677v-5.3h2.658v-.01l5.3-5.306v15.909zm10.324-2.01-2.4 2.4-.6-.6 2.4-2.4-2.4-2.4.6-.6 2.4 2.4 2.4-2.4.6.6-2.4 2.4 2.4 2.4-.6.6z" fill="#252a2e" opacity=".3"/><path d="m292.676 768.61h-2.676v-5.3h2.659v-.01l5.3-5.306v15.909zm9.824 1.249c.674-.393 1.233-.955 1.622-1.63.39-.676.595-1.442.596-2.222-.001-.78-.207-1.545-.596-2.221s-.948-1.238-1.622-1.63v-.027l.572-1.124c.888.499 1.627 1.224 2.142 2.103.514.879.785 1.879.786 2.897 0 1.017-.27 2.016-.782 2.895-.513.878-1.25 1.605-2.136 2.105zm-1.328-2.6v-.005c.187-.15.338-.339.442-.555.103-.216.158-.452.158-.691-.001-.239-.055-.475-.159-.691s-.254-.405-.441-.555v-.028l.581-1.138c.4.263.728.621.955 1.042s.345.892.345 1.371c0 .477-.118.946-.344 1.366-.225.42-.551.778-.949 1.041z" fill="#252a2e" opacity=".3"/><path d="m1.57031 565v-11.422h1.32813v10.219h5.03906v1.203zm13.38279 0-.2578-1.219h-.0625c-.4271.537-.8542.901-1.2812 1.094-.4219.187-.9506.281-1.586.281-.8489 0-1.5156-.218-1.99998-.656-.47916-.438-.71874-1.06-.71874-1.867 0-1.729 1.38282-2.636 4.14842-2.719l1.4531-.047v-.531c0-.672-.1458-1.167-.4375-1.484-.2864-.323-.7474-.485-1.3828-.485-.7135 0-1.5208.219-2.4219.656l-.3984-.992c.4219-.229.8828-.409 1.3828-.539.5052-.13 1.0104-.195 1.5156-.195 1.0209 0 1.7761.226 2.2657.68.4948.453.7422 1.179.7422 2.179v5.844zm-2.9297-.914c.8073 0 1.4401-.221 1.8985-.664.4635-.443.6953-1.063.6953-1.86v-.773l-1.2969.055c-1.0312.036-1.776.198-2.2344.484-.4531.281-.6797.721-.6797 1.32 0 .469.1407.826.4219 1.071.2865.245.6849.367 1.1953.367zm10.5547-7.789c1.125 0 1.9974.385 2.6172 1.156.625.766.9375 1.852.9375 3.258s-.3151 2.5-.9453 3.281c-.625.776-1.4948 1.164-2.6094 1.164-.5573 0-1.0677-.101-1.5312-.304-.4584-.209-.8438-.526-1.1563-.954h-.0937l-.2735 1.102h-.9296v-12.156h1.2968v2.953c0 .661-.0208 1.255-.0625 1.781h.0625c.6042-.854 1.5-1.281 2.6875-1.281zm-.1875 1.086c-.8854 0-1.5234.255-1.914.765-.3907.506-.586 1.36-.586 2.563s.2005 2.065.6016 2.586c.401.515 1.0443.773 1.9297.773.7969 0 1.3906-.289 1.7812-.867.3907-.583.586-1.419.586-2.508 0-1.114-.1953-1.945-.586-2.492-.3906-.547-.9948-.82-1.8125-.82zm9.6328 7.773c-1.2656 0-2.2656-.385-3-1.156-.7291-.771-1.0937-1.841-1.0937-3.211 0-1.38.3385-2.477 1.0156-3.289.6823-.812 1.5964-1.219 2.7422-1.219 1.0729 0 1.9219.354 2.5469 1.063.625.703.9375 1.633.9375 2.789v.82h-5.8985c.0261 1.005.2787 1.768.7578 2.289.4844.521 1.1641.781 2.0391.781.9219 0 1.8333-.192 2.7344-.578v1.157c-.4583.197-.8932.338-1.3047.421-.4062.089-.8984.133-1.4766.133zm-.3515-7.789c-.6875 0-1.237.224-1.6485.672-.4062.448-.6458 1.068-.7187 1.859h4.4765c0-.817-.1822-1.442-.5468-1.875-.3646-.437-.8854-.656-1.5625-.656zm7.0156 7.633h-1.2969v-12.156h1.2969zm8.7656-9.148c0 .359.0938.703.2813 1.031.1875.323.5078.713.9609 1.172.6719-.391 1.138-.75 1.3985-1.078.2656-.334.3984-.717.3984-1.149 0-.401-.1354-.726-.4063-.976-.2656-.256-.6224-.383-1.0703-.383-.4635 0-.8411.125-1.1328.375-.2864.25-.4297.586-.4297 1.008zm1.211 8.14c1.2552 0 2.2968-.401 3.125-1.203l-3.4141-3.312c-.5781.354-.987.648-1.2266.882-.2395.23-.4166.477-.5312.743-.1146.265-.1719.567-.1719.906 0 .609.2005 1.094.6016 1.453.4062.354.9453.531 1.6172.531zm-3.5625-1.953c0-.677.1796-1.276.539-1.797.3646-.521 1.0156-1.047 1.9532-1.578-.4428-.495-.7448-.87-.9063-1.125-.1563-.255-.2813-.521-.375-.797s-.1406-.562-.1406-.859c0-.781.2552-1.391.7656-1.828.5104-.438 1.2214-.657 2.1328-.657.8438 0 1.5078.219 1.9922.657.4844.432.7266 1.036.7266 1.812 0 .557-.1771 1.073-.5313 1.547-.3542.469-.9401.945-1.7578 1.43l3.1797 3.054c.2917-.322.5234-.7.6953-1.132.1771-.438.3255-.914.4453-1.43h1.3125c-.3542 1.49-.888 2.62-1.6016 3.391l2.336 2.273h-1.7891l-1.4453-1.391c-.6146.552-1.2396.948-1.875 1.188-.6354.239-1.3437.359-2.125.359-1.1198 0-1.9896-.276-2.6094-.828-.6145-.552-.9218-1.315-.9218-2.289zm16.5312 2.961v-11.422h1.3281v11.422zm7.6953.156c-1.2396 0-2.2005-.38-2.8828-1.14-.6771-.766-1.0156-1.847-1.0156-3.243 0-1.432.3437-2.539 1.0312-3.32.6927-.781 1.6771-1.172 2.9532-1.172.4114 0 .8229.045 1.2343.133.4115.089.7344.193.9688.313l-.3984 1.101c-.2865-.114-.599-.208-.9376-.281-.3385-.078-.638-.117-.8984-.117-1.7396 0-2.6094 1.109-2.6094 3.328 0 1.052.211 1.859.6328 2.422.4271.562 1.0573.843 1.8907.843.7135 0 1.4453-.153 2.1953-.461v1.149c-.5729.297-1.2943.445-2.1641.445zm11.5938-4.445c0 1.396-.3516 2.487-1.0547 3.273-.7031.782-1.6745 1.172-2.9141 1.172-.7656 0-1.4453-.179-2.039-.539-.5938-.359-1.0521-.875-1.375-1.547-.323-.672-.4844-1.458-.4844-2.359 0-1.396.3489-2.482 1.0469-3.258.6979-.781 1.6666-1.172 2.9062-1.172 1.1979 0 2.1484.399 2.8516 1.196.7083.796 1.0625 1.875 1.0625 3.234zm-6.5235 0c0 1.094.2188 1.927.6563 2.5s1.0807.859 1.9297.859c.8489 0 1.4922-.284 1.9297-.851.4427-.573.664-1.409.664-2.508 0-1.089-.2213-1.914-.664-2.477-.4375-.567-1.086-.851-1.9453-.851-.849 0-1.4896.278-1.9219.836-.4323.557-.6485 1.388-.6485 2.492zm14.6641 4.289v-5.539c0-.698-.1589-1.219-.4766-1.563-.3177-.343-.8151-.515-1.4921-.515-.8959 0-1.5521.242-1.9688.726-.4167.485-.625 1.284-.625 2.399v4.492h-1.2969v-8.562h1.0547l.211 1.171h.0624c.2657-.421.6381-.747 1.1172-.976.4792-.235 1.0131-.352 1.6016-.352 1.0312 0 1.8073.25 2.3281.75.5209.495.7813 1.289.7813 2.383v5.586zm9.4922-2.336c0 .797-.2969 1.412-.8906 1.844-.5938.432-1.4271.648-2.5.648-1.1355 0-2.0209-.179-2.6563-.539v-1.203c.4115.208.8516.372 1.3203.492.474.12.9297.18 1.3672.18.6771 0 1.1979-.107 1.5625-.32.3646-.219.5469-.55.5469-.993 0-.333-.1458-.617-.4375-.851-.2865-.24-.849-.521-1.6875-.844-.7969-.297-1.3646-.555-1.7031-.773-.3334-.224-.5834-.477-.75-.758-.1615-.281-.2422-.617-.2422-1.008 0-.698.2838-1.247.8515-1.648.5677-.407 1.3464-.61 2.336-.61.9219 0 1.8229.188 2.7031.563l-.4609 1.054c-.8594-.354-1.6381-.531-2.336-.531-.6146 0-1.0781.097-1.3906.289-.3125.193-.4687.459-.4687.797 0 .229.0572.425.1718.586.1198.162.3099.315.5703.461.2605.146.7605.357 1.5.633 1.0157.37 1.7006.742 2.0547 1.117.3594.375.5391.846.5391 1.414z" fill="#7d808d"/><path d="m961 311h-319v212h319z" fill="#f1f1f6"/><path d="m640 311h-319v212h319z" fill="#f1f1f6"/><path d="m319 311h-319v212h319z" fill="#f1f1f6"/><path d="m621 360h-281c-2.209 0-4 1.791-4 4s1.791 4 4 4h281c2.209 0 4-1.791 4-4s-1.791-4-4-4z" fill="#cbcdd6"/><path d="m475 360h-135c-2.209 0-4 1.791-4 4s1.791 4 4 4h135c2.209 0 4-1.791 4-4s-1.791-4-4-4z" fill="#0063a3"/><path d="m481 376c6.627 0 12-5.373 12-12s-5.373-12-12-12-12 5.373-12 12 5.373 12 12 12z" fill="#fff"/><path d="m481 375c6.075 0 11-4.925 11-11s-4.925-11-11-11-11 4.925-11 11 4.925 11 11 11z" stroke="#217cbb" stroke-width="2"/><path d="m337.078 345v-8.566h1.817v7.066h3.474v1.5zm10.805 0-.346-.891h-.047c-.301.379-.611.643-.931.791-.317.145-.731.217-1.243.217-.628 0-1.125-.179-1.488-.539-.359-.359-.539-.871-.539-1.535 0-.695.242-1.207.727-1.535.488-.332 1.222-.516 2.203-.551l1.136-.035v-.287c0-.664-.339-.996-1.019-.996-.524 0-1.139.158-1.846.474l-.592-1.207c.754-.394 1.59-.592 2.508-.592.879 0 1.553.192 2.022.575.468.382.703.965.703 1.746v4.365zm-.528-3.035-.691.023c-.519.016-.906.11-1.16.282-.254.171-.381.433-.381.785 0 .504.289.756.867.756.414 0 .744-.12.99-.358.25-.238.375-.555.375-.949zm7.266-3.639c.774 0 1.379.303 1.817.908.437.602.656 1.428.656 2.479 0 1.082-.227 1.92-.68 2.514-.449.593-1.062.89-1.84.89-.769 0-1.373-.279-1.81-.838h-.123l-.299.721h-1.365v-9.117h1.787v2.121c0 .269-.024.701-.071 1.295h.071c.418-.649 1.037-.973 1.857-.973zm-.574 1.43c-.442 0-.764.137-.967.41-.203.27-.309.717-.316 1.342v.193c0 .703.103 1.207.31 1.512.211.305.543.457.996.457.368 0 .659-.168.873-.504.219-.34.328-.832.328-1.477 0-.644-.109-1.127-.328-1.447-.218-.324-.517-.486-.896-.486zm7.236-.158c-.379 0-.676.121-.89.363-.215.238-.338.578-.37 1.019h2.508c-.008-.441-.123-.781-.345-1.019-.223-.242-.524-.363-.903-.363zm.252 5.519c-1.055 0-1.879-.291-2.473-.873-.593-.582-.89-1.406-.89-2.473 0-1.097.273-1.945.82-2.542.551-.602 1.311-.903 2.279-.903.926 0 1.647.264 2.163.791.515.528.773 1.256.773 2.186v.867h-4.225c.02.508.17.904.452 1.189.281.286.675.428 1.183.428.395 0 .768-.041 1.119-.123.352-.082.719-.213 1.102-.393v1.383c-.313.157-.647.272-1.002.346-.356.078-.789.117-1.301.117zm5.912-.117h-1.787v-9.117h1.787z" fill="#464b52"/><path d="m621 426h-281c-2.209 0-4 1.791-4 4s1.791 4 4 4h281c2.209 0 4-1.791 4-4s-1.791-4-4-4z" fill="#cbcdd6"/><path d="m475 426h-135c-2.209 0-4 1.791-4 4s1.791 4 4 4h135c2.209 0 4-1.791 4-4s-1.791-4-4-4z" fill="#0063a3"/><path d="m481 452c12.15 0 22-9.85 22-22s-9.85-22-22-22-22 9.85-22 22 9.85 22 22 22z" fill="#217cbb" fill-opacity=".3"/><path d="m481 442c6.627 0 12-5.373 12-12s-5.373-12-12-12-12 5.373-12 12 5.373 12 12 12z" fill="#fff"/><path d="m481 440.5c5.799 0 10.5-4.701 10.5-10.5s-4.701-10.5-10.5-10.5-10.5 4.701-10.5 10.5 4.701 10.5 10.5 10.5z" stroke="#217cbb" stroke-width="3"/><path d="m337.078 411v-8.566h1.817v7.066h3.474v1.5zm10.805 0-.346-.891h-.047c-.301.379-.611.643-.931.791-.317.145-.731.217-1.243.217-.628 0-1.125-.179-1.488-.539-.359-.359-.539-.871-.539-1.535 0-.695.242-1.207.727-1.535.488-.332 1.222-.516 2.203-.551l1.136-.035v-.287c0-.664-.339-.996-1.019-.996-.524 0-1.139.158-1.846.474l-.592-1.207c.754-.394 1.59-.592 2.508-.592.879 0 1.553.192 2.022.575.468.382.703.965.703 1.746v4.365zm-.528-3.035-.691.023c-.519.016-.906.11-1.16.282-.254.171-.381.433-.381.785 0 .504.289.756.867.756.414 0 .744-.12.99-.358.25-.238.375-.555.375-.949zm7.266-3.639c.774 0 1.379.303 1.817.908.437.602.656 1.428.656 2.479 0 1.082-.227 1.92-.68 2.514-.449.593-1.062.89-1.84.89-.769 0-1.373-.279-1.81-.838h-.123l-.299.721h-1.365v-9.117h1.787v2.121c0 .269-.024.701-.071 1.295h.071c.418-.649 1.037-.973 1.857-.973zm-.574 1.43c-.442 0-.764.137-.967.41-.203.27-.309.717-.316 1.342v.193c0 .703.103 1.207.31 1.512.211.305.543.457.996.457.368 0 .659-.168.873-.504.219-.34.328-.832.328-1.477 0-.644-.109-1.127-.328-1.447-.218-.324-.517-.486-.896-.486zm7.236-.158c-.379 0-.676.121-.89.363-.215.238-.338.578-.37 1.019h2.508c-.008-.441-.123-.781-.345-1.019-.223-.242-.524-.363-.903-.363zm.252 5.519c-1.055 0-1.879-.291-2.473-.873-.593-.582-.89-1.406-.89-2.473 0-1.097.273-1.945.82-2.542.551-.602 1.311-.903 2.279-.903.926 0 1.647.264 2.163.791.515.528.773 1.256.773 2.186v.867h-4.225c.02.508.17.904.452 1.189.281.286.675.428 1.183.428.395 0 .768-.041 1.119-.123.352-.082.719-.213 1.102-.393v1.383c-.313.157-.647.272-1.002.346-.356.078-.789.117-1.301.117zm5.912-.117h-1.787v-9.117h1.787z" fill="#464b52"/><path d="m621 488h-281c-2.209 0-4 1.791-4 4s1.791 4 4 4h281c2.209 0 4-1.791 4-4s-1.791-4-4-4z" fill="#cbcdd6"/><path d="m475 488h-135c-2.209 0-4 1.791-4 4s1.791 4 4 4h135c2.209 0 4-1.791 4-4s-1.791-4-4-4z" fill="#a3a6b1"/><path d="m481 504c6.627 0 12-5.373 12-12s-5.373-12-12-12-12 5.373-12 12 5.373 12 12 12z" fill="#fff"/><path d="m481 503c6.075 0 11-4.925 11-11s-4.925-11-11-11-11 4.925-11 11 4.925 11 11 11z" stroke="#cbcdd6" stroke-width="2"/><path d="m337.078 473v-8.566h1.817v7.066h3.474v1.5zm10.805 0-.346-.891h-.047c-.301.379-.611.643-.931.791-.317.145-.731.217-1.243.217-.628 0-1.125-.179-1.488-.539-.359-.359-.539-.871-.539-1.535 0-.695.242-1.207.727-1.535.488-.332 1.222-.516 2.203-.551l1.136-.035v-.287c0-.664-.339-.996-1.019-.996-.524 0-1.139.158-1.846.474l-.592-1.207c.754-.394 1.59-.592 2.508-.592.879 0 1.553.192 2.022.575.468.382.703.965.703 1.746v4.365zm-.528-3.035-.691.023c-.519.016-.906.11-1.16.282-.254.171-.381.433-.381.785 0 .504.289.756.867.756.414 0 .744-.12.99-.358.25-.238.375-.555.375-.949zm7.266-3.639c.774 0 1.379.303 1.817.908.437.602.656 1.428.656 2.479 0 1.082-.227 1.92-.68 2.514-.449.593-1.062.89-1.84.89-.769 0-1.373-.279-1.81-.838h-.123l-.299.721h-1.365v-9.117h1.787v2.121c0 .269-.024.701-.071 1.295h.071c.418-.649 1.037-.973 1.857-.973zm-.574 1.43c-.442 0-.764.137-.967.41-.203.27-.309.717-.316 1.342v.193c0 .703.103 1.207.31 1.512.211.305.543.457.996.457.368 0 .659-.168.873-.504.219-.34.328-.832.328-1.477 0-.644-.109-1.127-.328-1.447-.218-.324-.517-.486-.896-.486zm7.236-.158c-.379 0-.676.121-.89.363-.215.238-.338.578-.37 1.019h2.508c-.008-.441-.123-.781-.345-1.019-.223-.242-.524-.363-.903-.363zm.252 5.519c-1.055 0-1.879-.291-2.473-.873-.593-.582-.89-1.406-.89-2.473 0-1.097.273-1.945.82-2.542.551-.602 1.311-.903 2.279-.903.926 0 1.647.264 2.163.791.515.528.773 1.256.773 2.186v.867h-4.225c.02.508.17.904.452 1.189.281.286.675.428 1.183.428.395 0 .768-.041 1.119-.123.352-.082.719-.213 1.102-.393v1.383c-.313.157-.647.272-1.002.346-.356.078-.789.117-1.301.117zm5.912-.117h-1.787v-9.117h1.787z" fill="#90939f"/><path d="m241 360h-223c-1.1046 0-2 .895-2 2s.8954 2 2 2h223c1.105 0 2-.895 2-2s-.895-2-2-2z" fill="#cbcdd6"/><path d="m157 360h-139c-1.1046 0-2 .895-2 2s.8954 2 2 2h139c1.105 0 2-.895 2-2s-.895-2-2-2z" fill="#0063a3"/><path d="m159 372c5.523 0 10-4.477 10-10s-4.477-10-10-10-10 4.477-10 10 4.477 10 10 10z" fill="#fff"/><path d="m159 371c4.971 0 9-4.029 9-9s-4.029-9-9-9-9 4.029-9 9 4.029 9 9 9z" stroke="#217cbb" stroke-width="2"/><path d="m17.0781 349v-8.566h1.8164v7.066h3.4746v1.5zm10.8047 0-.3457-.891h-.0469c-.3007.379-.6113.643-.9316.791-.3164.145-.7305.217-1.2422.217-.6289 0-1.125-.179-1.4883-.539-.3593-.359-.539-.871-.539-1.535 0-.695.2421-1.207.7265-1.535.4883-.332 1.2227-.516 2.2032-.551l1.1367-.035v-.287c0-.664-.3399-.996-1.0196-.996-.5234 0-1.1386.158-1.8457.474l-.5918-1.207c.7539-.394 1.5899-.592 2.5078-.592.879 0 1.5528.192 2.0215.575.4688.382.7032.965.7032 1.746v4.365zm-.5273-3.035-.6914.023c-.5196.016-.9063.11-1.1602.282-.2539.171-.3809.433-.3809.785 0 .504.2891.756.8672.756.4141 0 .7442-.12.9903-.358.25-.238.375-.555.375-.949zm7.2656-3.639c.7734 0 1.3789.303 1.8164.908.4375.602.6563 1.428.6563 2.479 0 1.082-.2266 1.92-.6797 2.514-.4493.593-1.0625.89-1.8399.89-.7695 0-1.373-.279-1.8105-.838h-.1231l-.2988.721h-1.3652v-9.117h1.7871v2.121c0 .269-.0235.701-.0703 1.295h.0703c.4179-.649 1.0371-.973 1.8574-.973zm-.5742 1.43c-.4414 0-.7637.137-.9668.41-.2031.27-.3086.717-.3164 1.342v.193c0 .703.1035 1.207.3105 1.512.211.305.543.457.9961.457.3672 0 .6582-.168.8731-.504.2187-.34.3281-.832.3281-1.477 0-.644-.1094-1.127-.3281-1.447-.2188-.324-.5176-.486-.8965-.486zm7.2363-.158c-.3789 0-.6758.121-.8906.363-.2149.238-.3379.578-.3692 1.019h2.5078c-.0078-.441-.123-.781-.3457-1.019-.2226-.242-.5234-.363-.9023-.363zm.252 5.519c-1.0547 0-1.879-.291-2.4727-.873s-.8906-1.406-.8906-2.473c0-1.097.2734-1.945.8203-2.542.5508-.602 1.3105-.903 2.2793-.903.9258 0 1.6465.264 2.1621.791.5156.528.7734 1.256.7734 2.186v.867h-4.2246c.0196.508.1699.904.4512 1.189.2812.286.6758.428 1.1836.428.3945 0 .7676-.041 1.1191-.123.3516-.082.7188-.213 1.1016-.393v1.383c-.3125.157-.6465.272-1.002.346-.3554.078-.789.117-1.3007.117zm5.9121-.117h-1.7871v-9.117h1.7871z" fill="#464b52"/><path d="m241 426h-223c-1.1046 0-2 .895-2 2s.8954 2 2 2h223c1.105 0 2-.895 2-2s-.895-2-2-2z" fill="#cbcdd6"/><path d="m157 426h-139c-1.1046 0-2 .895-2 2s.8954 2 2 2h139c1.105 0 2-.895 2-2s-.895-2-2-2z" fill="#0063a3"/><path d="m159 448c11.046 0 20-8.954 20-20s-8.954-20-20-20-20 8.954-20 20 8.954 20 20 20z" fill="#217cbb" fill-opacity=".3"/><path d="m159 438c5.523 0 10-4.477 10-10s-4.477-10-10-10-10 4.477-10 10 4.477 10 10 10z" fill="#fff"/><path d="m159 436.5c4.694 0 8.5-3.806 8.5-8.5s-3.806-8.5-8.5-8.5-8.5 3.806-8.5 8.5 3.806 8.5 8.5 8.5z" stroke="#217cbb" stroke-width="3"/><path d="m17.0781 415v-8.566h1.8164v7.066h3.4746v1.5zm10.8047 0-.3457-.891h-.0469c-.3007.379-.6113.643-.9316.791-.3164.145-.7305.217-1.2422.217-.6289 0-1.125-.179-1.4883-.539-.3593-.359-.539-.871-.539-1.535 0-.695.2421-1.207.7265-1.535.4883-.332 1.2227-.516 2.2032-.551l1.1367-.035v-.287c0-.664-.3399-.996-1.0196-.996-.5234 0-1.1386.158-1.8457.474l-.5918-1.207c.7539-.394 1.5899-.592 2.5078-.592.879 0 1.5528.192 2.0215.575.4688.382.7032.965.7032 1.746v4.365zm-.5273-3.035-.6914.023c-.5196.016-.9063.11-1.1602.282-.2539.171-.3809.433-.3809.785 0 .504.2891.756.8672.756.4141 0 .7442-.12.9903-.358.25-.238.375-.555.375-.949zm7.2656-3.639c.7734 0 1.3789.303 1.8164.908.4375.602.6563 1.428.6563 2.479 0 1.082-.2266 1.92-.6797 2.514-.4493.593-1.0625.89-1.8399.89-.7695 0-1.373-.279-1.8105-.838h-.1231l-.2988.721h-1.3652v-9.117h1.7871v2.121c0 .269-.0235.701-.0703 1.295h.0703c.4179-.649 1.0371-.973 1.8574-.973zm-.5742 1.43c-.4414 0-.7637.137-.9668.41-.2031.27-.3086.717-.3164 1.342v.193c0 .703.1035 1.207.3105 1.512.211.305.543.457.9961.457.3672 0 .6582-.168.8731-.504.2187-.34.3281-.832.3281-1.477 0-.644-.1094-1.127-.3281-1.447-.2188-.324-.5176-.486-.8965-.486zm7.2363-.158c-.3789 0-.6758.121-.8906.363-.2149.238-.3379.578-.3692 1.019h2.5078c-.0078-.441-.123-.781-.3457-1.019-.2226-.242-.5234-.363-.9023-.363zm.252 5.519c-1.0547 0-1.879-.291-2.4727-.873s-.8906-1.406-.8906-2.473c0-1.097.2734-1.945.8203-2.542.5508-.602 1.3105-.903 2.2793-.903.9258 0 1.6465.264 2.1621.791.5156.528.7734 1.256.7734 2.186v.867h-4.2246c.0196.508.1699.904.4512 1.189.2812.286.6758.428 1.1836.428.3945 0 .7676-.041 1.1191-.123.3516-.082.7188-.213 1.1016-.393v1.383c-.3125.157-.6465.272-1.002.346-.3554.078-.789.117-1.3007.117zm5.9121-.117h-1.7871v-9.117h1.7871z" fill="#464b52"/><path d="m241 486h-223c-1.1046 0-2 .895-2 2s.8954 2 2 2h223c1.105 0 2-.895 2-2s-.895-2-2-2z" fill="#cbcdd6"/><path d="m157 486h-139c-1.1046 0-2 .895-2 2s.8954 2 2 2h139c1.105 0 2-.895 2-2s-.895-2-2-2z" fill="#a3a6b1"/><path d="m159 498c5.523 0 10-4.477 10-10s-4.477-10-10-10-10 4.477-10 10 4.477 10 10 10z" fill="#fff"/><path d="m159 497c4.971 0 9-4.029 9-9s-4.029-9-9-9-9 4.029-9 9 4.029 9 9 9z" stroke="#cbcdd6" stroke-width="2"/><path d="m17.0781 475v-8.566h1.8164v7.066h3.4746v1.5zm10.8047 0-.3457-.891h-.0469c-.3007.379-.6113.643-.9316.791-.3164.145-.7305.217-1.2422.217-.6289 0-1.125-.179-1.4883-.539-.3593-.359-.539-.871-.539-1.535 0-.695.2421-1.207.7265-1.535.4883-.332 1.2227-.516 2.2032-.551l1.1367-.035v-.287c0-.664-.3399-.996-1.0196-.996-.5234 0-1.1386.158-1.8457.474l-.5918-1.207c.7539-.394 1.5899-.592 2.5078-.592.879 0 1.5528.192 2.0215.575.4688.382.7032.965.7032 1.746v4.365zm-.5273-3.035-.6914.023c-.5196.016-.9063.11-1.1602.282-.2539.171-.3809.433-.3809.785 0 .504.2891.756.8672.756.4141 0 .7442-.12.9903-.358.25-.238.375-.555.375-.949zm7.2656-3.639c.7734 0 1.3789.303 1.8164.908.4375.602.6563 1.428.6563 2.479 0 1.082-.2266 1.92-.6797 2.514-.4493.593-1.0625.89-1.8399.89-.7695 0-1.373-.279-1.8105-.838h-.1231l-.2988.721h-1.3652v-9.117h1.7871v2.121c0 .269-.0235.701-.0703 1.295h.0703c.4179-.649 1.0371-.973 1.8574-.973zm-.5742 1.43c-.4414 0-.7637.137-.9668.41-.2031.27-.3086.717-.3164 1.342v.193c0 .703.1035 1.207.3105 1.512.211.305.543.457.9961.457.3672 0 .6582-.168.8731-.504.2187-.34.3281-.832.3281-1.477 0-.644-.1094-1.127-.3281-1.447-.2188-.324-.5176-.486-.8965-.486zm7.2363-.158c-.3789 0-.6758.121-.8906.363-.2149.238-.3379.578-.3692 1.019h2.5078c-.0078-.441-.123-.781-.3457-1.019-.2226-.242-.5234-.363-.9023-.363zm.252 5.519c-1.0547 0-1.879-.291-2.4727-.873s-.8906-1.406-.8906-2.473c0-1.097.2734-1.945.8203-2.542.5508-.602 1.3105-.903 2.2793-.903.9258 0 1.6465.264 2.1621.791.5156.528.7734 1.256.7734 2.186v.867h-4.2246c.0196.508.1699.904.4512 1.189.2812.286.6758.428 1.1836.428.3945 0 .7676-.041 1.1191-.123.3516-.082.7188-.213 1.1016-.393v1.383c-.3125.157-.6465.272-1.002.346-.3554.078-.789.117-1.3007.117zm5.9121-.117h-1.7871v-9.117h1.7871z" fill="#90939f"/><path d="m941 355h-277c-3.314 0-6 2.686-6 6s2.686 6 6 6h277c3.314 0 6-2.686 6-6s-2.686-6-6-6z" fill="#cbcdd6"/><path d="m795 355h-131c-3.314 0-6 2.686-6 6s2.686 6 6 6h131c3.314 0 6-2.686 6-6s-2.686-6-6-6z" fill="#0063a3"/><path d="m801 377c8.837 0 16-7.163 16-16s-7.163-16-16-16-16 7.163-16 16 7.163 16 16 16z" fill="#fff"/><path d="m801 375.5c8.008 0 14.5-6.492 14.5-14.5s-6.492-14.5-14.5-14.5-14.5 6.492-14.5 14.5 6.492 14.5 14.5 14.5z" stroke="#217cbb" stroke-width="3"/><path d="m659.078 340v-8.566h1.817v7.066h3.474v1.5zm10.805 0-.346-.891h-.047c-.301.379-.611.643-.931.791-.317.145-.731.217-1.243.217-.628 0-1.125-.179-1.488-.539-.359-.359-.539-.871-.539-1.535 0-.695.242-1.207.727-1.535.488-.332 1.222-.516 2.203-.551l1.136-.035v-.287c0-.664-.339-.996-1.019-.996-.524 0-1.139.158-1.846.474l-.592-1.207c.754-.394 1.59-.592 2.508-.592.879 0 1.553.192 2.022.575.468.382.703.965.703 1.746v4.365zm-.528-3.035-.691.023c-.519.016-.906.11-1.16.282-.254.171-.381.433-.381.785 0 .504.289.756.867.756.414 0 .744-.12.99-.358.25-.238.375-.555.375-.949zm7.266-3.639c.774 0 1.379.303 1.817.908.437.602.656 1.428.656 2.479 0 1.082-.227 1.92-.68 2.514-.449.593-1.062.89-1.84.89-.769 0-1.373-.279-1.81-.838h-.123l-.299.721h-1.365v-9.117h1.787v2.121c0 .269-.024.701-.071 1.295h.071c.418-.649 1.037-.973 1.857-.973zm-.574 1.43c-.442 0-.764.137-.967.41-.203.27-.309.717-.316 1.342v.193c0 .703.103 1.207.31 1.512.211.305.543.457.996.457.368 0 .659-.168.873-.504.219-.34.328-.832.328-1.477 0-.644-.109-1.127-.328-1.447-.218-.324-.517-.486-.896-.486zm7.236-.158c-.379 0-.676.121-.89.363-.215.238-.338.578-.37 1.019h2.508c-.008-.441-.123-.781-.345-1.019-.223-.242-.524-.363-.903-.363zm.252 5.519c-1.055 0-1.879-.291-2.473-.873-.593-.582-.89-1.406-.89-2.473 0-1.097.273-1.945.82-2.542.551-.602 1.311-.903 2.279-.903.926 0 1.647.264 2.163.791.515.528.773 1.256.773 2.186v.867h-4.225c.02.508.17.904.452 1.189.281.286.675.428 1.183.428.395 0 .768-.041 1.119-.123.352-.082.719-.213 1.102-.393v1.383c-.313.157-.647.272-1.002.346-.356.078-.789.117-1.301.117zm5.912-.117h-1.787v-9.117h1.787z" fill="#464b52"/><path d="m941 420h-277c-3.314 0-6 2.686-6 6s2.686 6 6 6h277c3.314 0 6-2.686 6-6s-2.686-6-6-6z" fill="#cbcdd6"/><path d="m795 420h-131c-3.314 0-6 2.686-6 6s2.686 6 6 6h131c3.314 0 6-2.686 6-6s-2.686-6-6-6z" fill="#0063a3"/><path d="m801 450c13.255 0 24-10.745 24-24s-10.745-24-24-24-24 10.745-24 24 10.745 24 24 24z" fill="#217cbb" fill-opacity=".3"/><path d="m801 442c8.837 0 16-7.163 16-16s-7.163-16-16-16-16 7.163-16 16 7.163 16 16 16z" fill="#fff"/><path d="m801 440c7.732 0 14-6.268 14-14s-6.268-14-14-14-14 6.268-14 14 6.268 14 14 14z" stroke="#217cbb" stroke-width="4"/><path d="m659.078 405v-8.566h1.817v7.066h3.474v1.5zm10.805 0-.346-.891h-.047c-.301.379-.611.643-.931.791-.317.145-.731.217-1.243.217-.628 0-1.125-.179-1.488-.539-.359-.359-.539-.871-.539-1.535 0-.695.242-1.207.727-1.535.488-.332 1.222-.516 2.203-.551l1.136-.035v-.287c0-.664-.339-.996-1.019-.996-.524 0-1.139.158-1.846.474l-.592-1.207c.754-.394 1.59-.592 2.508-.592.879 0 1.553.192 2.022.575.468.382.703.965.703 1.746v4.365zm-.528-3.035-.691.023c-.519.016-.906.11-1.16.282-.254.171-.381.433-.381.785 0 .504.289.756.867.756.414 0 .744-.12.99-.358.25-.238.375-.555.375-.949zm7.266-3.639c.774 0 1.379.303 1.817.908.437.602.656 1.428.656 2.479 0 1.082-.227 1.92-.68 2.514-.449.593-1.062.89-1.84.89-.769 0-1.373-.279-1.81-.838h-.123l-.299.721h-1.365v-9.117h1.787v2.121c0 .269-.024.701-.071 1.295h.071c.418-.649 1.037-.973 1.857-.973zm-.574 1.43c-.442 0-.764.137-.967.41-.203.27-.309.717-.316 1.342v.193c0 .703.103 1.207.31 1.512.211.305.543.457.996.457.368 0 .659-.168.873-.504.219-.34.328-.832.328-1.477 0-.644-.109-1.127-.328-1.447-.218-.324-.517-.486-.896-.486zm7.236-.158c-.379 0-.676.121-.89.363-.215.238-.338.578-.37 1.019h2.508c-.008-.441-.123-.781-.345-1.019-.223-.242-.524-.363-.903-.363zm.252 5.519c-1.055 0-1.879-.291-2.473-.873-.593-.582-.89-1.406-.89-2.473 0-1.097.273-1.945.82-2.542.551-.602 1.311-.903 2.279-.903.926 0 1.647.264 2.163.791.515.528.773 1.256.773 2.186v.867h-4.225c.02.508.17.904.452 1.189.281.286.675.428 1.183.428.395 0 .768-.041 1.119-.123.352-.082.719-.213 1.102-.393v1.383c-.313.157-.647.272-1.002.346-.356.078-.789.117-1.301.117zm5.912-.117h-1.787v-9.117h1.787z" fill="#464b52"/><path d="m941 487h-277c-3.314 0-6 2.686-6 6s2.686 6 6 6h277c3.314 0 6-2.686 6-6s-2.686-6-6-6z" fill="#cbcdd6"/><path d="m795 487h-131c-3.314 0-6 2.686-6 6s2.686 6 6 6h131c3.314 0 6-2.686 6-6s-2.686-6-6-6z" fill="#a3a6b1"/><path d="m801 509c8.837 0 16-7.163 16-16s-7.163-16-16-16-16 7.163-16 16 7.163 16 16 16z" fill="#fff"/><path d="m801 507.5c8.008 0 14.5-6.492 14.5-14.5s-6.492-14.5-14.5-14.5-14.5 6.492-14.5 14.5 6.492 14.5 14.5 14.5z" stroke="#cbcdd6" stroke-width="3"/><path d="m659.078 472v-8.566h1.817v7.066h3.474v1.5zm10.805 0-.346-.891h-.047c-.301.379-.611.643-.931.791-.317.145-.731.217-1.243.217-.628 0-1.125-.179-1.488-.539-.359-.359-.539-.871-.539-1.535 0-.695.242-1.207.727-1.535.488-.332 1.222-.516 2.203-.551l1.136-.035v-.287c0-.664-.339-.996-1.019-.996-.524 0-1.139.158-1.846.474l-.592-1.207c.754-.394 1.59-.592 2.508-.592.879 0 1.553.192 2.022.575.468.382.703.965.703 1.746v4.365zm-.528-3.035-.691.023c-.519.016-.906.11-1.16.282-.254.171-.381.433-.381.785 0 .504.289.756.867.756.414 0 .744-.12.99-.358.25-.238.375-.555.375-.949zm7.266-3.639c.774 0 1.379.303 1.817.908.437.602.656 1.428.656 2.479 0 1.082-.227 1.92-.68 2.514-.449.593-1.062.89-1.84.89-.769 0-1.373-.279-1.81-.838h-.123l-.299.721h-1.365v-9.117h1.787v2.121c0 .269-.024.701-.071 1.295h.071c.418-.649 1.037-.973 1.857-.973zm-.574 1.43c-.442 0-.764.137-.967.41-.203.27-.309.717-.316 1.342v.193c0 .703.103 1.207.31 1.512.211.305.543.457.996.457.368 0 .659-.168.873-.504.219-.34.328-.832.328-1.477 0-.644-.109-1.127-.328-1.447-.218-.324-.517-.486-.896-.486zm7.236-.158c-.379 0-.676.121-.89.363-.215.238-.338.578-.37 1.019h2.508c-.008-.441-.123-.781-.345-1.019-.223-.242-.524-.363-.903-.363zm.252 5.519c-1.055 0-1.879-.291-2.473-.873-.593-.582-.89-1.406-.89-2.473 0-1.097.273-1.945.82-2.542.551-.602 1.311-.903 2.279-.903.926 0 1.647.264 2.163.791.515.528.773 1.256.773 2.186v.867h-4.225c.02.508.17.904.452 1.189.281.286.675.428 1.183.428.395 0 .768-.041 1.119-.123.352-.082.719-.213 1.102-.393v1.383c-.313.157-.647.272-1.002.346-.356.078-.789.117-1.301.117zm5.912-.117h-1.787v-9.117h1.787z" fill="#90939f"/><path d="m11.5391 291h-1.3125l-2.30472-7.648c-.10938-.339-.23178-.766-.36719-1.282-.13542-.515-.20573-.825-.21094-.929-.11458.687-.29687 1.44-.54687 2.257l-2.23438 7.602h-1.3125l-3.039062-11.422h1.406252l1.80469 7.055c.25.989.43229 1.885.54687 2.687.14063-.953.34896-1.885.625-2.797l2.04687-6.945h1.40626l2.14842 7.008c.25.807.4609 1.719.6328 2.734.099-.739.2865-1.64.5625-2.703l1.7969-7.039h1.4063zm5.9453 0h-1.2969v-8.562h1.2969zm-1.4063-10.883c0-.297.0729-.513.2188-.648.1458-.141.3281-.211.5469-.211.2083 0 .388.07.539.211.1511.14.2266.357.2266.648 0 .292-.0755.511-.2266.656-.151.141-.3307.211-.539.211-.2188 0-.4011-.07-.5469-.211-.1459-.145-.2188-.364-.2188-.656zm6.9219 9.969c.2292 0 .4505-.016.6641-.047.2135-.036.3828-.073.5078-.109v.992c-.1407.068-.349.122-.625.164-.2709.047-.5157.07-.7344.07-1.6563 0-2.4844-.872-2.4844-2.617v-5.094h-1.2265v-.625l1.2265-.539.5469-1.828h.75v1.985h2.4844v1.007h-2.4844v5.039c0 .516.1224.912.3672 1.188s.5807.414 1.0078.414zm8.75.914v-5.539c0-.698-.1589-1.219-.4766-1.563-.3177-.343-.8151-.515-1.4922-.515-.901 0-1.5598.245-1.9765.734-.4115.49-.6172 1.292-.6172 2.406v4.477h-1.2969v-12.156h1.2969v3.679c0 .443-.0208.81-.0625 1.102h.0781c.2552-.411.6172-.734 1.086-.969.4739-.239 1.013-.359 1.6171-.359 1.0469 0 1.8308.25 2.3516.75.5261.495.7891 1.284.7891 2.367v5.586zm8.3203 0v-11.422h1.3281v10.219h5.0391v1.203zm13.3828 0-.2578-1.219h-.0625c-.4271.537-.8542.901-1.2812 1.094-.4219.187-.9506.281-1.586.281-.8489 0-1.5156-.218-2-.656-.4791-.438-.7187-1.06-.7187-1.867 0-1.729 1.3828-2.636 4.1484-2.719l1.4531-.047v-.531c0-.672-.1458-1.167-.4375-1.484-.2864-.323-.7474-.485-1.3828-.485-.7135 0-1.5208.219-2.4219.656l-.3984-.992c.4219-.229.8828-.409 1.3828-.539.5052-.13 1.0104-.195 1.5156-.195 1.0209 0 1.7761.226 2.2657.68.4948.453.7422 1.179.7422 2.179v5.844zm-2.9297-.914c.8073 0 1.4401-.221 1.8985-.664.4635-.443.6953-1.063.6953-1.86v-.773l-1.2969.055c-1.0312.036-1.776.198-2.2344.484-.4531.281-.6797.721-.6797 1.32 0 .469.1407.826.4219 1.071.2865.245.6849.367 1.1953.367zm10.5547-7.789c1.125 0 1.9974.385 2.6172 1.156.625.766.9375 1.852.9375 3.258s-.3151 2.5-.9453 3.281c-.625.776-1.4948 1.164-2.6094 1.164-.5573 0-1.0677-.101-1.5312-.304-.4584-.209-.8438-.526-1.1563-.954h-.0937l-.2735 1.102h-.9296v-12.156h1.2968v2.953c0 .661-.0208 1.255-.0625 1.781h.0625c.6042-.854 1.5-1.281 2.6875-1.281zm-.1875 1.086c-.8854 0-1.5234.255-1.914.765-.3907.506-.586 1.36-.586 2.563s.2005 2.065.6016 2.586c.401.515 1.0443.773 1.9297.773.7969 0 1.3906-.289 1.7812-.867.3907-.583.586-1.419.586-2.508 0-1.114-.1953-1.945-.586-2.492-.3906-.547-.9948-.82-1.8125-.82zm9.6328 7.773c-1.2656 0-2.2656-.385-3-1.156-.7291-.771-1.0937-1.841-1.0937-3.211 0-1.38.3385-2.477 1.0156-3.289.6823-.812 1.5964-1.219 2.7422-1.219 1.0729 0 1.9219.354 2.5469 1.063.625.703.9375 1.633.9375 2.789v.82h-5.8985c.0261 1.005.2787 1.768.7578 2.289.4844.521 1.1641.781 2.0391.781.9219 0 1.8333-.192 2.7344-.578v1.157c-.4583.197-.8932.338-1.3047.421-.4062.089-.8984.133-1.4766.133zm-.3515-7.789c-.6875 0-1.237.224-1.6485.672-.4062.448-.6458 1.068-.7187 1.859h4.4765c0-.817-.1822-1.442-.5468-1.875-.3646-.437-.8854-.656-1.5625-.656zm7.0156 7.633h-1.2969v-12.156h1.2969z" fill="#7d808d"/><path d="m961 37h-319v212h319z" fill="#f1f1f6"/><path d="m640 37h-319v212h319z" fill="#f1f1f6"/><path d="m319 37h-319v212h319z" fill="#f1f1f6"/><path d="m22.1348 59.6211c0 .7734-.2793 1.3828-.8379 1.8281-.5547.4453-1.3281.668-2.3203.668-.9141 0-1.7227-.1719-2.4258-.5156v-1.6875c.5781.2578 1.0664.4394 1.4648.5449.4024.1055.7696.1582 1.1016.1582.3984 0 .7031-.0762.914-.2285.2149-.1524.3223-.3789.3223-.6797 0-.168-.0469-.3164-.1406-.4453-.0938-.1328-.2324-.2598-.416-.3809-.1797-.1211-.5489-.3144-1.1074-.5801-.5235-.2461-.9161-.4824-1.1778-.7089-.2617-.2266-.4707-.4903-.6269-.7911-.1563-.3007-.2344-.6523-.2344-1.0547 0-.7578.2558-1.3535.7676-1.7871.5156-.4336 1.2265-.6504 2.1328-.6504.4453 0 .8691.0528 1.2715.1583.4062.1054.83.2539 1.2715.4453l-.586 1.4121c-.457-.1875-.8359-.3184-1.1367-.3926-.2969-.0742-.5899-.1113-.8789-.1113-.3438 0-.6074.08-.791.2402s-.2754.3691-.2754.627c0 .1601.0371.3007.1113.4218.0742.1172.1914.2325.3516.3457.164.1094.5488.3086 1.1543.5977.8008.3828 1.3496.7676 1.6465 1.1543.2968.3828.4453.8535.4453 1.4121zm7.2773 2.3789h-1.7871v-3.8262c0-.4726-.0801-.8261-.2402-1.0605-.1563-.2383-.4043-.3574-.7442-.3574-.457 0-.789.1679-.9961.5039-.207.3359-.3105.8886-.3105 1.6582v3.082h-1.7871v-6.5508h1.3652l.2402.8379h.0997c.1757-.3008.4296-.5351.7617-.7031.332-.1719.7129-.2578 1.1425-.2578.9805 0 1.6446.3203 1.9922.9609h.1582c.1758-.3047.4336-.541.7735-.709.3437-.1679.7304-.2519 1.1601-.2519.7422 0 1.3028.1914 1.6817.5742.3828.3789.5742.9883.5742 1.8281v4.2715h-1.793v-3.8262c0-.4726-.0801-.8261-.2402-1.0605-.1563-.2383-.4043-.3574-.7441-.3574-.4376 0-.7657.1562-.9844.4687-.2149.3125-.3223.8086-.3223 1.4883zm10.084 0-.3457-.8906h-.0469c-.3008.3789-.6113.6426-.9316.791-.3164.1445-.7305.2168-1.2422.2168-.6289 0-1.125-.1797-1.4883-.5391-.3594-.3593-.5391-.8711-.5391-1.5351 0-.6953.2422-1.2071.7266-1.5352.4883-.332 1.2227-.5156 2.2031-.5508l1.1368-.0351v-.2871c0-.6641-.3399-.9961-1.0196-.9961-.5234 0-1.1387.1582-1.8457.4746l-.5918-1.2071c.7539-.3945 1.5899-.5917 2.5078-.5917.8789 0 1.5528.1914 2.0215.5742.4688.3828.7031.9648.7031 1.7461v4.3652zm-.5273-3.0352-.6915.0235c-.5195.0156-.9062.1094-1.1601.2812-.2539.1719-.3809.4336-.3809.7852 0 .5039.2891.7558.8672.7558.4141 0 .7442-.1191.9903-.3574.25-.2383.375-.5547.375-.9492zm5.4082 3.0352h-1.7872v-9.1172h1.7872zm3.6679 0h-1.7871v-9.1172h1.7871z" fill="#7d808d"/><path d="m621 84h-281c-2.209 0-4 1.7909-4 4s1.791 4 4 4h281c2.209 0 4-1.7909 4-4s-1.791-4-4-4z" fill="#cbcdd6"/><path d="m475 84h-135c-2.209 0-4 1.7909-4 4s1.791 4 4 4h135c2.209 0 4-1.7909 4-4s-1.791-4-4-4z" fill="#0063a3"/><path d="m481 100c6.627 0 12-5.3726 12-12s-5.373-12-12-12-12 5.3726-12 12 5.373 12 12 12z" fill="#fff"/><path d="m481 99c6.075 0 11-4.9249 11-11s-4.925-11-11-11-11 4.9249-11 11 4.925 11 11 11z" stroke="#217cbb" stroke-width="2"/><path d="m621 141h-281c-2.209 0-4 1.791-4 4s1.791 4 4 4h281c2.209 0 4-1.791 4-4s-1.791-4-4-4z" fill="#cbcdd6"/><path d="m475 141h-135c-2.209 0-4 1.791-4 4s1.791 4 4 4h135c2.209 0 4-1.791 4-4s-1.791-4-4-4z" fill="#0063a3"/><path d="m481 167c12.15 0 22-9.85 22-22s-9.85-22-22-22-22 9.85-22 22 9.85 22 22 22z" fill="#217cbb" fill-opacity=".3"/><path d="m481 157c6.627 0 12-5.373 12-12s-5.373-12-12-12-12 5.373-12 12 5.373 12 12 12z" fill="#fff"/><path d="m481 155.5c5.799 0 10.5-4.701 10.5-10.5s-4.701-10.5-10.5-10.5-10.5 4.701-10.5 10.5 4.701 10.5 10.5 10.5z" stroke="#217cbb" stroke-width="3"/><path d="m621 196h-281c-2.209 0-4 1.791-4 4s1.791 4 4 4h281c2.209 0 4-1.791 4-4s-1.791-4-4-4z" fill="#cbcdd6"/><path d="m475 196h-135c-2.209 0-4 1.791-4 4s1.791 4 4 4h135c2.209 0 4-1.791 4-4s-1.791-4-4-4z" fill="#a3a6b1"/><path d="m481 212c6.627 0 12-5.373 12-12s-5.373-12-12-12-12 5.373-12 12 5.373 12 12 12z" fill="#fff"/><path d="m481 211c6.075 0 11-4.925 11-11s-4.925-11-11-11-11 4.925-11 11 4.925 11 11 11z" stroke="#cbcdd6" stroke-width="2"/><path d="m941 83h-277c-3.314 0-6 2.6863-6 6s2.686 6 6 6h277c3.314 0 6-2.6863 6-6s-2.686-6-6-6z" fill="#cbcdd6"/><path d="m795 83h-131c-3.314 0-6 2.6863-6 6s2.686 6 6 6h131c3.314 0 6-2.6863 6-6s-2.686-6-6-6z" fill="#0063a3"/><path d="m801 105c8.837 0 16-7.1634 16-16s-7.163-16-16-16-16 7.1634-16 16 7.163 16 16 16z" fill="#fff"/><path d="m801 103.5c8.008 0 14.5-6.4919 14.5-14.5s-6.492-14.5-14.5-14.5-14.5 6.4919-14.5 14.5 6.492 14.5 14.5 14.5z" stroke="#217cbb" stroke-width="3"/><path d="m941 138h-277c-3.314 0-6 2.686-6 6s2.686 6 6 6h277c3.314 0 6-2.686 6-6s-2.686-6-6-6z" fill="#cbcdd6"/><path d="m795 138h-131c-3.314 0-6 2.686-6 6s2.686 6 6 6h131c3.314 0 6-2.686 6-6s-2.686-6-6-6z" fill="#0063a3"/><path d="m801 168c13.255 0 24-10.745 24-24s-10.745-24-24-24-24 10.745-24 24 10.745 24 24 24z" fill="#217cbb" fill-opacity=".3"/><path d="m801 160c8.837 0 16-7.163 16-16s-7.163-16-16-16-16 7.163-16 16 7.163 16 16 16z" fill="#fff"/><path d="m801 158c7.732 0 14-6.268 14-14s-6.268-14-14-14-14 6.268-14 14 6.268 14 14 14z" stroke="#217cbb" stroke-width="4"/><path d="m941 192h-277c-3.314 0-6 2.686-6 6s2.686 6 6 6h277c3.314 0 6-2.686 6-6s-2.686-6-6-6z" fill="#cbcdd6"/><path d="m795 192h-131c-3.314 0-6 2.686-6 6s2.686 6 6 6h131c3.314 0 6-2.686 6-6s-2.686-6-6-6z" fill="#a3a6b1"/><path d="m801 214c8.837 0 16-7.163 16-16s-7.163-16-16-16-16 7.163-16 16 7.163 16 16 16z" fill="#fff"/><path d="m801 212.5c8.008 0 14.5-6.492 14.5-14.5s-6.492-14.5-14.5-14.5-14.5 6.492-14.5 14.5 6.492 14.5 14.5 14.5z" stroke="#cbcdd6" stroke-width="3"/><path d="m241 84h-223c-1.1046 0-2 .8954-2 2s.8954 2 2 2h223c1.105 0 2-.8954 2-2s-.895-2-2-2z" fill="#cbcdd6"/><path d="m157 84h-139c-1.1046 0-2 .8954-2 2s.8954 2 2 2h139c1.105 0 2-.8954 2-2s-.895-2-2-2z" fill="#0063a3"/><path d="m159 96c5.523 0 10-4.4772 10-10s-4.477-10-10-10-10 4.4772-10 10 4.477 10 10 10z" fill="#fff"/><path d="m159 95c4.971 0 9-4.0294 9-9s-4.029-9-9-9-9 4.0294-9 9 4.029 9 9 9z" stroke="#217cbb" stroke-width="2"/><path d="m241 143h-223c-1.1046 0-2 .895-2 2s.8954 2 2 2h223c1.105 0 2-.895 2-2s-.895-2-2-2z" fill="#cbcdd6"/><path d="m157 143h-139c-1.1046 0-2 .895-2 2s.8954 2 2 2h139c1.105 0 2-.895 2-2s-.895-2-2-2z" fill="#0063a3"/><path d="m159 165c11.046 0 20-8.954 20-20s-8.954-20-20-20-20 8.954-20 20 8.954 20 20 20z" fill="#217cbb" fill-opacity=".3"/><path d="m159 155c5.523 0 10-4.477 10-10s-4.477-10-10-10-10 4.477-10 10 4.477 10 10 10z" fill="#fff"/><path d="m159 153.5c4.694 0 8.5-3.806 8.5-8.5s-3.806-8.5-8.5-8.5-8.5 3.806-8.5 8.5 3.806 8.5 8.5 8.5z" stroke="#217cbb" stroke-width="3"/><path d="m241 198h-223c-1.1046 0-2 .895-2 2s.8954 2 2 2h223c1.105 0 2-.895 2-2s-.895-2-2-2z" fill="#cbcdd6"/><path d="m157 198h-139c-1.1046 0-2 .895-2 2s.8954 2 2 2h139c1.105 0 2-.895 2-2s-.895-2-2-2z" fill="#a3a6b1"/><path d="m159 210c5.523 0 10-4.477 10-10s-4.477-10-10-10-10 4.477-10 10 4.477 10 10 10z" fill="#fff"/><path d="m159 209c4.971 0 9-4.029 9-9s-4.029-9-9-9-9 4.029-9 9 4.029 9 9 9z" stroke="#cbcdd6" stroke-width="2"/><path d="m340.705 62-2.062-6.7207h-.053c.074 1.3672.111 2.2793.111 2.7363v3.9844h-1.623v-8.5664h2.473l2.027 6.5508h.035l2.151-6.5508h2.472v8.5664h-1.693v-4.0547c0-.1914.002-.4121.006-.6621.008-.25.035-.9141.082-1.9922h-.053l-2.209 6.709zm10.266-5.4023c-.379 0-.676.1211-.891.3632-.215.2383-.338.5782-.369 1.0196h2.508c-.008-.4414-.123-.7813-.346-1.0196-.223-.2421-.523-.3632-.902-.3632zm.252 5.5195c-1.055 0-1.879-.291-2.473-.8731-.594-.582-.891-1.4062-.891-2.4726 0-1.0977.274-1.9453.821-2.543.55-.6015 1.31-.9023 2.279-.9023.926 0 1.646.2636 2.162.791.516.5273.774 1.2558.774 2.1855v.8672h-4.225c.019.5078.17.9043.451 1.1895.281.2851.676.4277 1.184.4277.394 0 .767-.041 1.119-.123.351-.0821.719-.2129 1.101-.3926v1.3828c-.312.1562-.646.2715-1.002.3457-.355.0781-.789.1172-1.3.1172zm6.199 0c-.77 0-1.375-.2988-1.817-.8965-.437-.5977-.656-1.4258-.656-2.4844 0-1.0742.223-1.9101.668-2.5078.449-.6015 1.067-.9023 1.852-.9023.824 0 1.453.3203 1.886.9609h.059c-.09-.4883-.135-.9238-.135-1.3066v-2.0977h1.793v9.1172h-1.371l-.346-.8496h-.076c-.406.6445-1.025.9668-1.857.9668zm.627-1.4238c.457 0 .791-.1329 1.002-.3985.215-.2656.332-.7168.351-1.3535v-.1934c0-.7031-.109-1.207-.328-1.5117-.215-.3047-.566-.457-1.054-.457-.399 0-.709.1699-.932.5098-.219.3359-.328.8261-.328 1.4707 0 .6445.111 1.1289.334 1.4531.222.3203.541.4805.955.4805zm4.816-6.9375c0-.5821.324-.8731.973-.8731.648 0 .973.291.973.8731 0 .2773-.082.4941-.247.6503-.16.1524-.402.2286-.726.2286-.649 0-.973-.293-.973-.8789zm1.864 8.2441h-1.788v-6.5508h1.788zm6.521 0-.24-.8379h-.094c-.191.3047-.463.541-.814.709-.352.1641-.752.2461-1.202.2461-.769 0-1.349-.2051-1.74-.6152-.39-.4141-.586-1.0079-.586-1.7813v-4.2715h1.787v3.8262c0 .4726.084.8281.252 1.0664.168.2344.436.3516.803.3516.5 0 .861-.1661 1.084-.4981.223-.3359.334-.8906.334-1.6641v-3.082h1.787v6.5508zm9.111 0h-1.787v-3.8262c0-.4726-.08-.8261-.24-1.0605-.156-.2383-.404-.3574-.744-.3574-.457 0-.789.1679-.996.5039-.207.3359-.311.8886-.311 1.6582v3.082h-1.787v-6.5508h1.365l.241.8379h.099c.176-.3008.43-.5351.762-.7031.332-.1719.713-.2578 1.142-.2578.981 0 1.645.3203 1.993.9609h.158c.176-.3047.433-.541.773-.709.344-.1679.731-.2519 1.16-.2519.743 0 1.303.1914 1.682.5742.383.3789.574.9883.574 1.8281v4.2715h-1.793v-3.8262c0-.4726-.08-.8261-.24-1.0605-.156-.2383-.404-.3574-.744-.3574-.438 0-.766.1562-.984.4687-.215.3125-.323.8086-.323 1.4883zm8.584-3.2871c0-1.0352.151-2.0039.451-2.9063.305-.9023.743-1.6933 1.313-2.373h1.465c-.551.7539-.967 1.582-1.248 2.4844-.281.9023-.422 1.83-.422 2.7832 0 .957.142 1.8828.428 2.7773.289.8906.699 1.6973 1.23 2.4199h-1.453c-.574-.664-1.012-1.4394-1.313-2.3261-.3-.8868-.451-1.8399-.451-2.8594zm11.772-1.0781c0 1.4101-.403 2.4902-1.207 3.2402-.801.75-1.959 1.125-3.475 1.125h-2.426v-8.5664h2.69c1.398 0 2.484.3691 3.258 1.1074.773.7383 1.16 1.7695 1.16 3.0938zm-1.887.0468c0-1.8398-.812-2.7597-2.437-2.7597h-.967v5.5781h.779c1.75 0 2.625-.9395 2.625-2.8184zm6.234-1.0839c-.378 0-.675.1211-.89.3632-.215.2383-.338.5782-.369 1.0196h2.507c-.007-.4414-.123-.7813-.345-1.0196-.223-.2421-.524-.3632-.903-.3632zm.252 5.5195c-1.054 0-1.878-.291-2.472-.8731-.594-.582-.891-1.4062-.891-2.4726 0-1.0977.274-1.9453.82-2.543.551-.6015 1.311-.9023 2.28-.9023.926 0 1.646.2636 2.162.791.515.5273.773 1.2558.773 2.1855v.8672h-4.224c.019.5078.17.9043.451 1.1895.281.2851.676.4277 1.183.4277.395 0 .768-.041 1.12-.123.351-.0821.718-.2129 1.101-.3926v1.3828c-.312.1562-.646.2715-1.002.3457-.355.0781-.789.1172-1.301.1172zm7.746-5.3262h-1.546v5.209h-1.787v-5.209h-.985v-.8613l.985-.4805v-.4804c0-.7461.183-1.2911.55-1.6348.367-.3438.955-.5156 1.764-.5156.617 0 1.166.0918 1.646.2754l-.457 1.3124c-.359-.1132-.691-.1699-.996-.1699-.254 0-.437.0762-.55.2285-.114.1485-.17.3399-.17.5743v.4101h1.546zm5.192 5.209-.346-.8906h-.047c-.3.3789-.611.6426-.931.791-.317.1445-.731.2168-1.242.2168-.629 0-1.126-.1797-1.489-.5391-.359-.3593-.539-.8711-.539-1.5351 0-.6953.242-1.2071.727-1.5352.488-.332 1.222-.5156 2.203-.5508l1.137-.0351v-.2871c0-.6641-.34-.9961-1.02-.9961-.523 0-1.139.1582-1.846.4746l-.591-1.2071c.753-.3945 1.589-.5917 2.507-.5917.879 0 1.553.1914 2.022.5742s.703.9648.703 1.7461v4.3652zm-.527-3.0352-.692.0235c-.519.0156-.906.1094-1.16.2812-.254.1719-.381.4336-.381.7852 0 .5039.289.7558.867.7558.414 0 .744-.1191.991-.3574.25-.2383.375-.5547.375-.9492zm8.261 3.0352-.24-.8379h-.094c-.191.3047-.463.541-.814.709-.352.1641-.752.2461-1.201.2461-.77 0-1.35-.2051-1.741-.6152-.39-.4141-.586-1.0079-.586-1.7813v-4.2715h1.788v3.8262c0 .4726.084.8281.252 1.0664.168.2344.435.3516.802.3516.5 0 .862-.1661 1.084-.4981.223-.3359.334-.8906.334-1.6641v-3.082h1.787v6.5508zm5.033 0h-1.787v-9.1172h1.787zm4.641-1.3066c.313 0 .688-.0684 1.125-.2051v1.3301c-.445.1992-.992.2988-1.641.2988-.714 0-1.236-.1797-1.564-.5391-.324-.3633-.486-.9062-.486-1.6289v-3.1582h-.856v-.7558l.985-.5977.515-1.3828h1.143v1.3945h1.834v1.3418h-1.834v3.1582c0 .2539.07.4414.211.5625.144.1211.334.1817.568.1817zm5.104-1.9805c0 1.0273-.153 1.9844-.457 2.8711-.301.8867-.737 1.6582-1.307 2.3144h-1.453c.527-.7187.935-1.5234 1.224-2.414.289-.8946.434-1.8223.434-2.7832 0-.9532-.141-1.8809-.422-2.7832-.281-.9024-.697-1.7305-1.248-2.4844h1.465c.574.6836 1.012 1.4785 1.312 2.3848.301.9023.452 1.8671.452 2.8945z" fill="#7d808d"/><path d="m659.078 62v-8.5664h1.817v7.0664h3.474v1.5zm10.805 0-.346-.8906h-.047c-.301.3789-.611.6426-.931.791-.317.1445-.731.2168-1.243.2168-.628 0-1.125-.1797-1.488-.5391-.359-.3593-.539-.8711-.539-1.5351 0-.6953.242-1.2071.727-1.5352.488-.332 1.222-.5156 2.203-.5508l1.136-.0351v-.2871c0-.6641-.339-.9961-1.019-.9961-.524 0-1.139.1582-1.846.4746l-.592-1.2071c.754-.3945 1.59-.5917 2.508-.5917.879 0 1.553.1914 2.022.5742.468.3828.703.9648.703 1.7461v4.3652zm-.528-3.0352-.691.0235c-.519.0156-.906.1094-1.16.2812-.254.1719-.381.4336-.381.7852 0 .5039.289.7558.867.7558.414 0 .744-.1191.99-.3574.25-.2383.375-.5547.375-.9492zm7.278-3.6386c.242 0 .443.0176.603.0527l-.134 1.6758c-.145-.0391-.321-.0586-.528-.0586-.57 0-1.015.1465-1.336.4394-.316.293-.474.7032-.474 1.2305v3.334h-1.787v-6.5508h1.353l.264 1.1016h.088c.203-.3672.476-.6621.82-.8848.348-.2265.725-.3398 1.131-.3398zm7.494.123v.9082l-1.025.2637c.187.293.281.6211.281.9844 0 .7031-.246 1.2519-.738 1.6465-.489.3906-1.168.5859-2.04.5859l-.322-.0176-.263-.0293c-.184.1406-.276.2969-.276.4688 0 .2578.328.3867.985.3867h1.113c.719 0 1.265.1543 1.64.4629.379.3086.569.7617.569 1.3594 0 .7656-.321 1.3593-.961 1.7812-.637.4219-1.553.6328-2.748.6328-.914 0-1.613-.1601-2.098-.4805-.48-.3164-.721-.7617-.721-1.3359 0-.3945.123-.7246.37-.9902.246-.2657.607-.4551 1.084-.5684-.184-.0781-.344-.2051-.481-.3808-.137-.1797-.205-.3692-.205-.5684 0-.25.072-.457.217-.6211.144-.168.353-.332.627-.4922-.344-.1484-.617-.3867-.821-.7148-.199-.3282-.298-.7149-.298-1.1602 0-.7148.232-1.2676.697-1.6582s1.129-.5859 1.992-.5859c.184 0 .4.0176.65.0527.254.0313.416.0547.487.0703zm-5.057 7.4766c0 .2461.118.4394.352.5801.238.1406.57.2109.996.2109.641 0 1.143-.0879 1.506-.2637s.545-.416.545-.7207c0-.2461-.108-.416-.323-.5097-.214-.0938-.546-.1407-.996-.1407h-.925c-.329 0-.604.0762-.827.2285-.218.1563-.328.3614-.328.6153zm.651-5.332c0 .3554.08.6367.24.8437.164.207.412.3105.744.3105.336 0 .582-.1035.738-.3105.157-.207.235-.4883.235-.8437 0-.7891-.324-1.1836-.973-1.1836-.656 0-.984.3945-.984 1.1836zm8.203-.9961c-.379 0-.676.1211-.891.3632-.215.2383-.338.5782-.369 1.0196h2.508c-.008-.4414-.123-.7813-.346-1.0196-.222-.2421-.523-.3632-.902-.3632zm.252 5.5195c-1.055 0-1.879-.291-2.473-.8731-.594-.582-.891-1.4062-.891-2.4726 0-1.0977.274-1.9453.821-2.543.551-.6015 1.31-.9023 2.279-.9023.926 0 1.647.2636 2.162.791.516.5273.774 1.2558.774 2.1855v.8672h-4.225c.02.5078.17.9043.451 1.1895.281.2851.676.4277 1.184.4277.394 0 .767-.041 1.119-.123.352-.0821.719-.2129 1.102-.3926v1.3828c-.313.1562-.647.2715-1.002.3457-.356.0781-.789.1172-1.301.1172z" fill="#7d808d"/><path d="m10.4922 17h-1.51564l-6.24218-9.58594h-.0625c.08333 1.125.125 2.15625.125 3.09374v6.4922h-1.22657v-11.42188h1.5l6.22657 9.54688h.0625c-.01042-.1406-.03386-.5911-.07032-1.3516-.03646-.7656-.04948-1.3125-.03906-1.6406v-6.55468h1.2422zm10.3359-4.2891c0 1.3959-.3515 2.487-1.0547 3.2735-.7031.7812-1.6744 1.1718-2.914 1.1718-.7656 0-1.4453-.1796-2.0391-.539-.5937-.3594-1.0521-.875-1.375-1.5469s-.4844-1.4583-.4844-2.3594c0-1.3958.349-2.4817 1.0469-3.25778.6979-.78124 1.6667-1.17187 2.9063-1.17187 1.1979 0 2.1484.39844 2.8515 1.19531.7084.79684 1.0625 1.87504 1.0625 3.23434zm-6.5234 0c0 1.0938.2187 1.9271.6562 2.5.4375.573 1.0808.8594 1.9297.8594.849 0 1.4922-.2838 1.9297-.8515.4427-.573.6641-1.4089.6641-2.5079 0-1.0885-.2214-1.914-.6641-2.4765-.4375-.56773-1.0859-.85159-1.9453-.85159-.849 0-1.4896.27865-1.9219.83599-.4323.5572-.6484 1.388-.6484 2.4921zm13.1562 4.2891v-11.42188h1.3282v10.21878h5.039v1.2031zm13.3829 0-.2579-1.2188h-.0625c-.427.5365-.8541.9011-1.2812 1.0938-.4219.1875-.9505.2812-1.586.2812-.8489 0-1.5156-.2187-2-.6562-.4791-.4375-.7187-1.0599-.7187-1.8672 0-1.7292 1.3828-2.6354 4.1484-2.7187l1.4532-.0469v-.5313c0-.6718-.1459-1.1666-.4375-1.48434-.2865-.32291-.7474-.48437-1.3828-.48437-.7136 0-1.5209.21875-2.4219.65621l-.3985-.99215c.4219-.22917.8828-.40885 1.3828-.53906.5053-.13021 1.0105-.19531 1.5157-.19531 1.0208 0 1.776.22656 2.2656.67968.4948.45313.7422 1.17964.7422 2.17964v5.8438zm-2.9297-.9141c.8073 0 1.4401-.2213 1.8984-.664.4635-.4427.6953-1.0625.6953-1.8594v-.7734l-1.2969.0547c-1.0312.0364-1.776.1979-2.2343.4843-.4532.2813-.6797.7214-.6797 1.3203 0 .4688.1406.8256.4219 1.0704.2864.2447.6848.3671 1.1953.3671zm10.5547-7.78902c1.125 0 1.9973.38541 2.6171 1.15624.625.76568.9375 1.85158.9375 3.25778 0 1.4063-.3151 2.5-.9453 3.2813-.625.776-1.4948 1.164-2.6093 1.164-.5573 0-1.0678-.1015-1.5313-.3046-.4583-.2084-.8437-.5261-1.1563-.9532h-.0937l-.2734 1.1016h-.9297v-12.15625h1.2968v2.95313c0 .66145-.0208 1.2552-.0624 1.78124h.0624c.6042-.85416 1.5-1.28124 2.6876-1.28124zm-.1876 1.08593c-.8854 0-1.5234.25521-1.914.76559-.3906.5052-.586 1.3594-.586 2.5625 0 1.2032.2006 2.0651.6016 2.586.4011.5156 1.0443.7734 1.9297.7734.7969 0 1.3906-.2891 1.7813-.8672.3906-.5833.5859-1.4192.5859-2.5078 0-1.1146-.1953-1.9453-.5859-2.4922-.3907-.54685-.9948-.82029-1.8126-.82029zm9.6329 7.77339c-1.2657 0-2.2657-.3854-3-1.1562-.7292-.7708-1.0938-1.8411-1.0938-3.2109 0-1.3802.3386-2.4766 1.0156-3.2891.6823-.8125 1.5964-1.21875 2.7422-1.21875 1.0729 0 1.9219.35417 2.5469 1.0625.625.70315.9375 1.63285.9375 2.78905v.8203h-5.8984c.026 1.0052.2786 1.7683.7578 2.2891.4843.5208 1.164.7812 2.039.7812.9219 0 1.8334-.1927 2.7344-.5781v1.1563c-.4583.1979-.8932.3385-1.3047.4218-.4062.0886-.8984.1328-1.4765.1328zm-.3516-7.78901c-.6875 0-1.237.22396-1.6484.67191-.4063.4479-.6459 1.0677-.7188 1.8593h4.4766c0-.8177-.1823-1.4427-.5469-1.875-.3646-.43746-.8854-.65621-1.5625-.65621zm7.0156 7.63281h-1.2969v-12.15625h1.2969zm8.2735-2.3359c0 .7968-.2969 1.4114-.8907 1.8437-.5937.4323-1.427.6484-2.5.6484-1.1354 0-2.0208-.1796-2.6562-.539v-1.2031c.4114.2083.8515.3724 1.3203.4921.474.1198.9297.1797 1.3672.1797.6771 0 1.1979-.1067 1.5625-.3203.3646-.2187.5469-.5495.5469-.9922 0-.3333-.1459-.6172-.4375-.8515-.2865-.2396-.849-.5209-1.6875-.8438-.7969-.2969-1.3646-.5547-1.7032-.7734-.3333-.224-.5833-.4766-.75-.7578-.1614-.2813-.2422-.6172-.2422-1.0078 0-.69795.2839-1.24743.8516-1.64848.5677-.40624 1.3464-.60937 2.336-.60937.9218 0 1.8229.1875 2.7031.5625l-.461 1.05469c-.8593-.35417-1.638-.53125-2.3359-.53125-.6146 0-1.0781.09635-1.3906.28906s-.4688.45835-.4688.79685c0 .2292.0573.4245.1719.586.1198.1614.3099.3151.5703.4609s.7604.3568 1.5.6328c1.0156.3698 1.7005.7422 2.0547 1.1172.3594.375.5391.8464.5391 1.4141z" fill="#7d808d"/></svg>