<svg fill="none" height="286" viewBox="0 0 961 286" width="961" xmlns="http://www.w3.org/2000/svg"><g fill="#f1f1f6"><path d="m961 35h-319v251h319z"/><path d="m640 35h-319v251h319z"/><path d="m319 35h-319v251h319z"/></g><path d="m22.1348 57.6211c0 .7734-.2793 1.3828-.8379 1.8281-.5547.4453-1.3281.668-2.3203.668-.9141 0-1.7227-.1719-2.4258-.5156v-1.6875c.5781.2578 1.0664.4394 1.4648.5449.4024.1055.7696.1582 1.1016.1582.3984 0 .7031-.0762.914-.2285.2149-.1524.3223-.3789.3223-.6797 0-.168-.0469-.3164-.1406-.4453-.0938-.1328-.2324-.2598-.416-.3809-.1797-.1211-.5489-.3144-1.1074-.5801-.5235-.2461-.9161-.4824-1.1778-.7089-.2617-.2266-.4707-.4903-.6269-.7911-.1563-.3007-.2344-.6523-.2344-1.0547 0-.7578.2558-1.3535.7676-1.7871.5156-.4336 1.2265-.6504 2.1328-.6504.4453 0 .8691.0528 1.2715.1583.4062.1054.83.2539 1.2715.4453l-.586 1.4121c-.457-.1875-.8359-.3184-1.1367-.3926-.2969-.0742-.5899-.1113-.8789-.1113-.3438 0-.6074.08-.791.2402s-.2754.3691-.2754.627c0 .1601.0371.3007.1113.4218.0742.1172.1914.2325.3516.3457.164.1094.5488.3086 1.1543.5977.8008.3828 1.3496.7676 1.6465 1.1543.2968.3828.4453.8535.4453 1.4121zm7.2773 2.3789h-1.7871v-3.8262c0-.4726-.0801-.8261-.2402-1.0605-.1563-.2383-.4043-.3574-.7442-.3574-.457 0-.789.1679-.9961.5039-.207.3359-.3105.8886-.3105 1.6582v3.082h-1.7871v-6.5508h1.3652l.2402.8379h.0997c.1757-.3008.4296-.5351.7617-.7031.332-.1719.7129-.2578 1.1425-.2578.9805 0 1.6446.3203 1.9922.9609h.1582c.1758-.3047.4336-.541.7735-.709.3437-.1679.7304-.2519 1.1601-.2519.7422 0 1.3028.1914 1.6817.5742.3828.3789.5742.9883.5742 1.8281v4.2715h-1.793v-3.8262c0-.4726-.0801-.8261-.2402-1.0605-.1563-.2383-.4043-.3574-.7441-.3574-.4376 0-.7657.1562-.9844.4687-.2149.3125-.3223.8086-.3223 1.4883zm10.084 0-.3457-.8906h-.0469c-.3008.3789-.6113.6426-.9316.791-.3164.1445-.7305.2168-1.2422.2168-.6289 0-1.125-.1797-1.4883-.5391-.3594-.3593-.5391-.8711-.5391-1.5351 0-.6953.2422-1.2071.7266-1.5352.4883-.332 1.2227-.5156 2.2031-.5508l1.1368-.0351v-.2871c0-.6641-.3399-.9961-1.0196-.9961-.5234 0-1.1387.1582-1.8457.4746l-.5918-1.2071c.7539-.3945 1.5899-.5917 2.5078-.5917.8789 0 1.5528.1914 2.0215.5742.4688.3828.7031.9648.7031 1.7461v4.3652zm-.5273-3.0352-.6915.0235c-.5195.0156-.9062.1094-1.1601.2812-.2539.1719-.3809.4336-.3809.7852 0 .5039.2891.7558.8672.7558.4141 0 .7442-.1191.9903-.3574.25-.2383.375-.5547.375-.9492zm5.4082 3.0352h-1.7872v-9.1172h1.7872zm3.6679 0h-1.7871v-9.1172h1.7871z" fill="#7d808d"/><path d="m241 104h-223c-1.1046 0-2 .895-2 2s.8954 2 2 2h223c1.105 0 2-.895 2-2s-.895-2-2-2z" fill="#cbcdd6"/><path d="m157 104h-139c-1.1046 0-2 .895-2 2s.8954 2 2 2h139c1.105 0 2-.895 2-2s-.895-2-2-2z" fill="#0063a3"/><path d="m159 116c5.523 0 10-4.477 10-10s-4.477-10-10-10-10 4.477-10 10 4.477 10 10 10z" fill="#fff"/><path d="m159 115c4.971 0 9-4.029 9-9s-4.029-9-9-9-9 4.029-9 9 4.029 9 9 9z" stroke="#217cbb" stroke-width="2"/><path d="m17.0781 93v-8.5664h1.8164v7.0664h3.4746v1.5zm10.8047 0-.3457-.8906h-.0469c-.3007.3789-.6113.6426-.9316.791-.3164.1445-.7305.2168-1.2422.2168-.6289 0-1.125-.1797-1.4883-.5391-.3593-.3593-.539-.8711-.539-1.5351 0-.6953.2421-1.2071.7265-1.5352.4883-.332 1.2227-.5156 2.2032-.5508l1.1367-.0351v-.2871c0-.6641-.3399-.9961-1.0196-.9961-.5234 0-1.1386.1582-1.8457.4746l-.5918-1.2071c.7539-.3945 1.5899-.5917 2.5078-.5917.879 0 1.5528.1914 2.0215.5742.4688.3828.7032.9648.7032 1.7461v4.3652zm-.5273-3.0352-.6914.0235c-.5196.0156-.9063.1094-1.1602.2812-.2539.1719-.3809.4336-.3809.7852 0 .5039.2891.7558.8672.7558.4141 0 .7442-.1191.9903-.3574.25-.2383.375-.5547.375-.9492zm7.2656-3.6386c.7734 0 1.3789.3027 1.8164.9082.4375.6015.6563 1.4277.6563 2.4785 0 1.082-.2266 1.9199-.6797 2.5137-.4493.5937-1.0625.8906-1.8399.8906-.7695 0-1.373-.2793-1.8105-.8379h-.1231l-.2988.7207h-1.3652v-9.1172h1.7871v2.1211c0 .2695-.0235.7012-.0703 1.2949h.0703c.4179-.6484 1.0371-.9726 1.8574-.9726zm-.5742 1.4297c-.4414 0-.7637.1367-.9668.4101-.2031.2695-.3086.7168-.3164 1.3418v.1934c0 .7031.1035 1.207.3105 1.5117.211.3047.543.457.9961.457.3672 0 .6582-.1679.8731-.5039.2187-.3398.3281-.832.3281-1.4765 0-.6446-.1094-1.127-.3281-1.4473-.2188-.3242-.5176-.4863-.8965-.4863zm7.2363-.1582c-.3789 0-.6758.1211-.8906.3632-.2149.2383-.3379.5782-.3692 1.0196h2.5078c-.0078-.4414-.123-.7813-.3457-1.0196-.2226-.2421-.5234-.3632-.9023-.3632zm.252 5.5195c-1.0547 0-1.879-.291-2.4727-.8731-.5937-.582-.8906-1.4062-.8906-2.4726 0-1.0977.2734-1.9453.8203-2.543.5508-.6015 1.3105-.9023 2.2793-.9023.9258 0 1.6465.2636 2.1621.791.5156.5273.7734 1.2558.7734 2.1855v.8672h-4.2246c.0196.5078.1699.9043.4512 1.1895.2812.2851.6758.4277 1.1836.4277.3945 0 .7676-.041 1.1191-.123.3516-.0821.7188-.2129 1.1016-.3926v1.3828c-.3125.1562-.6465.2715-1.002.3457-.3554.0781-.789.1172-1.3007.1172zm5.9121-.1172h-1.7871v-9.1172h1.7871z" fill="#464b52"/><path d="m172 63h-26c-1.105 0-2 .8954-2 2v22.5c0 1.1046.895 2 2 2h26c1.105 0 2-.8954 2-2v-22.5c0-1.1046-.895-2-2-2z" fill="#90939f"/><path d="m159 96-6-8h12z" fill="#90939f"/><path d="m155.402 75.7676c.903 0 1.612.2246 2.127.6738.52.4453.78 1.0566.78 1.834 0 .8867-.284 1.582-.85 2.0859-.563.5039-1.34.7559-2.332.7559-.965 0-1.701-.1543-2.209-.4629v-.9375c.273.1758.613.3144 1.02.416.406.0977.806.1465 1.201.1465.687 0 1.22-.1621 1.599-.4863.383-.3242.574-.793.574-1.4063 0-1.1953-.732-1.7929-2.197-1.7929-.371 0-.867.0566-1.488.1699l-.504-.3223.322-4.0078h4.26v.8965h-3.428l-.216 2.5722c.449-.0898.896-.1347 1.341-.1347zm9.868.9375c0 1.4804-.235 2.5859-.704 3.3164-.464.7305-1.177 1.0957-2.138 1.0957-.922 0-1.623-.3731-2.104-1.1192-.48-.75-.72-1.8476-.72-3.2929 0-1.4922.232-2.5996.697-3.3223.465-.7226 1.174-1.084 2.127-1.084.929 0 1.634.377 2.115 1.1309.484.7539.727 1.8457.727 3.2754zm-4.682 0c0 1.2461.146 2.1543.439 2.7246.293.5664.76.8496 1.401.8496.648 0 1.117-.2871 1.406-.8613.293-.5782.439-1.4825.439-2.7129 0-1.2305-.146-2.1309-.439-2.7012-.289-.5742-.758-.8613-1.406-.8613-.641 0-1.108.2832-1.401.8496-.293.5625-.439 1.4668-.439 2.7129z" fill="#fff"/><path d="m340.705 60-2.062-6.7207h-.053c.074 1.3672.111 2.2793.111 2.7363v3.9844h-1.623v-8.5664h2.473l2.027 6.5508h.035l2.151-6.5508h2.472v8.5664h-1.693v-4.0547c0-.1914.002-.4121.006-.6621.008-.25.035-.9141.082-1.9922h-.053l-2.209 6.709zm10.266-5.4023c-.379 0-.676.1211-.891.3632-.215.2383-.338.5782-.369 1.0196h2.508c-.008-.4414-.123-.7813-.346-1.0196-.223-.2421-.523-.3632-.902-.3632zm.252 5.5195c-1.055 0-1.879-.291-2.473-.8731-.594-.582-.891-1.4062-.891-2.4726 0-1.0977.274-1.9453.821-2.543.55-.6015 1.31-.9023 2.279-.9023.926 0 1.646.2636 2.162.791.516.5273.774 1.2558.774 2.1855v.8672h-4.225c.019.5078.17.9043.451 1.1895.281.2851.676.4277 1.184.4277.394 0 .767-.041 1.119-.123.351-.0821.719-.2129 1.101-.3926v1.3828c-.312.1562-.646.2715-1.002.3457-.355.0781-.789.1172-1.3.1172zm6.199 0c-.77 0-1.375-.2988-1.817-.8965-.437-.5977-.656-1.4258-.656-2.4844 0-1.0742.223-1.9101.668-2.5078.449-.6015 1.067-.9023 1.852-.9023.824 0 1.453.3203 1.886.9609h.059c-.09-.4883-.135-.9238-.135-1.3066v-2.0977h1.793v9.1172h-1.371l-.346-.8496h-.076c-.406.6445-1.025.9668-1.857.9668zm.627-1.4238c.457 0 .791-.1329 1.002-.3985.215-.2656.332-.7168.351-1.3535v-.1934c0-.7031-.109-1.207-.328-1.5117-.215-.3047-.566-.457-1.054-.457-.399 0-.709.1699-.932.5098-.219.3359-.328.8261-.328 1.4707 0 .6445.111 1.1289.334 1.4531.222.3203.541.4805.955.4805zm4.816-6.9375c0-.5821.324-.8731.973-.8731.648 0 .973.291.973.8731 0 .2773-.082.4941-.247.6503-.16.1524-.402.2286-.726.2286-.649 0-.973-.293-.973-.8789zm1.864 8.2441h-1.788v-6.5508h1.788zm6.521 0-.24-.8379h-.094c-.191.3047-.463.541-.814.709-.352.1641-.752.2461-1.202.2461-.769 0-1.349-.2051-1.74-.6152-.39-.4141-.586-1.0079-.586-1.7813v-4.2715h1.787v3.8262c0 .4726.084.8281.252 1.0664.168.2344.436.3516.803.3516.5 0 .861-.1661 1.084-.4981.223-.3359.334-.8906.334-1.6641v-3.082h1.787v6.5508zm9.111 0h-1.787v-3.8262c0-.4726-.08-.8261-.24-1.0605-.156-.2383-.404-.3574-.744-.3574-.457 0-.789.1679-.996.5039-.207.3359-.311.8886-.311 1.6582v3.082h-1.787v-6.5508h1.365l.241.8379h.099c.176-.3008.43-.5351.762-.7031.332-.1719.713-.2578 1.142-.2578.981 0 1.645.3203 1.993.9609h.158c.176-.3047.433-.541.773-.709.344-.1679.731-.2519 1.16-.2519.743 0 1.303.1914 1.682.5742.383.3789.574.9883.574 1.8281v4.2715h-1.793v-3.8262c0-.4726-.08-.8261-.24-1.0605-.156-.2383-.404-.3574-.744-.3574-.438 0-.766.1562-.984.4687-.215.3125-.323.8086-.323 1.4883zm8.584-3.2871c0-1.0352.151-2.0039.451-2.9063.305-.9023.743-1.6933 1.313-2.373h1.465c-.551.7539-.967 1.582-1.248 2.4844-.281.9023-.422 1.83-.422 2.7832 0 .957.142 1.8828.428 2.7773.289.8906.699 1.6973 1.23 2.4199h-1.453c-.574-.664-1.012-1.4394-1.313-2.3261-.3-.8868-.451-1.8399-.451-2.8594zm11.772-1.0781c0 1.4101-.403 2.4902-1.207 3.2402-.801.75-1.959 1.125-3.475 1.125h-2.426v-8.5664h2.69c1.398 0 2.484.3691 3.258 1.1074.773.7383 1.16 1.7695 1.16 3.0938zm-1.887.0468c0-1.8398-.812-2.7597-2.437-2.7597h-.967v5.5781h.779c1.75 0 2.625-.9395 2.625-2.8184zm6.234-1.0839c-.378 0-.675.1211-.89.3632-.215.2383-.338.5782-.369 1.0196h2.507c-.007-.4414-.123-.7813-.345-1.0196-.223-.2421-.524-.3632-.903-.3632zm.252 5.5195c-1.054 0-1.878-.291-2.472-.8731-.594-.582-.891-1.4062-.891-2.4726 0-1.0977.274-1.9453.82-2.543.551-.6015 1.311-.9023 2.28-.9023.926 0 1.646.2636 2.162.791.515.5273.773 1.2558.773 2.1855v.8672h-4.224c.019.5078.17.9043.451 1.1895.281.2851.676.4277 1.183.4277.395 0 .768-.041 1.12-.123.351-.0821.718-.2129 1.101-.3926v1.3828c-.312.1562-.646.2715-1.002.3457-.355.0781-.789.1172-1.301.1172zm7.746-5.3262h-1.546v5.209h-1.787v-5.209h-.985v-.8613l.985-.4805v-.4804c0-.7461.183-1.2911.55-1.6348.367-.3438.955-.5156 1.764-.5156.617 0 1.166.0918 1.646.2754l-.457 1.3124c-.359-.1132-.691-.1699-.996-.1699-.254 0-.437.0762-.55.2285-.114.1485-.17.3399-.17.5743v.4101h1.546zm5.192 5.209-.346-.8906h-.047c-.3.3789-.611.6426-.931.791-.317.1445-.731.2168-1.242.2168-.629 0-1.126-.1797-1.489-.5391-.359-.3593-.539-.8711-.539-1.5351 0-.6953.242-1.2071.727-1.5352.488-.332 1.222-.5156 2.203-.5508l1.137-.0351v-.2871c0-.6641-.34-.9961-1.02-.9961-.523 0-1.139.1582-1.846.4746l-.591-1.2071c.753-.3945 1.589-.5917 2.507-.5917.879 0 1.553.1914 2.022.5742s.703.9648.703 1.7461v4.3652zm-.527-3.0352-.692.0235c-.519.0156-.906.1094-1.16.2812-.254.1719-.381.4336-.381.7852 0 .5039.289.7558.867.7558.414 0 .744-.1191.991-.3574.25-.2383.375-.5547.375-.9492zm8.261 3.0352-.24-.8379h-.094c-.191.3047-.463.541-.814.709-.352.1641-.752.2461-1.201.2461-.77 0-1.35-.2051-1.741-.6152-.39-.4141-.586-1.0079-.586-1.7813v-4.2715h1.788v3.8262c0 .4726.084.8281.252 1.0664.168.2344.435.3516.802.3516.5 0 .862-.1661 1.084-.4981.223-.3359.334-.8906.334-1.6641v-3.082h1.787v6.5508zm5.033 0h-1.787v-9.1172h1.787zm4.641-1.3066c.313 0 .688-.0684 1.125-.2051v1.3301c-.445.1992-.992.2988-1.641.2988-.714 0-1.236-.1797-1.564-.5391-.324-.3633-.486-.9062-.486-1.6289v-3.1582h-.856v-.7558l.985-.5977.515-1.3828h1.143v1.3945h1.834v1.3418h-1.834v3.1582c0 .2539.07.4414.211.5625.144.1211.334.1817.568.1817zm5.104-1.9805c0 1.0273-.153 1.9844-.457 2.8711-.301.8867-.737 1.6582-1.307 2.3144h-1.453c.527-.7187.935-1.5234 1.224-2.414.289-.8946.434-1.8223.434-2.7832 0-.9532-.141-1.8809-.422-2.7832-.281-.9024-.697-1.7305-1.248-2.4844h1.465c.574.6836 1.012 1.4785 1.312 2.3848.301.9023.452 1.8671.452 2.8945z" fill="#7d808d"/><path d="m659.078 60v-8.5664h1.817v7.0664h3.474v1.5zm10.805 0-.346-.8906h-.047c-.301.3789-.611.6426-.931.791-.317.1445-.731.2168-1.243.2168-.628 0-1.125-.1797-1.488-.5391-.359-.3593-.539-.8711-.539-1.5351 0-.6953.242-1.2071.727-1.5352.488-.332 1.222-.5156 2.203-.5508l1.136-.0351v-.2871c0-.6641-.339-.9961-1.019-.9961-.524 0-1.139.1582-1.846.4746l-.592-1.2071c.754-.3945 1.59-.5917 2.508-.5917.879 0 1.553.1914 2.022.5742.468.3828.703.9648.703 1.7461v4.3652zm-.528-3.0352-.691.0235c-.519.0156-.906.1094-1.16.2812-.254.1719-.381.4336-.381.7852 0 .5039.289.7558.867.7558.414 0 .744-.1191.99-.3574.25-.2383.375-.5547.375-.9492zm7.278-3.6386c.242 0 .443.0176.603.0527l-.134 1.6758c-.145-.0391-.321-.0586-.528-.0586-.57 0-1.015.1465-1.336.4394-.316.293-.474.7032-.474 1.2305v3.334h-1.787v-6.5508h1.353l.264 1.1016h.088c.203-.3672.476-.6621.82-.8848.348-.2265.725-.3398 1.131-.3398zm7.494.123v.9082l-1.025.2637c.187.293.281.6211.281.9844 0 .7031-.246 1.2519-.738 1.6465-.489.3906-1.168.5859-2.04.5859l-.322-.0176-.263-.0293c-.184.1406-.276.2969-.276.4688 0 .2578.328.3867.985.3867h1.113c.719 0 1.265.1543 1.64.4629.379.3086.569.7617.569 1.3594 0 .7656-.321 1.3593-.961 1.7812-.637.4219-1.553.6328-2.748.6328-.914 0-1.613-.1601-2.098-.4805-.48-.3164-.721-.7617-.721-1.3359 0-.3945.123-.7246.37-.9902.246-.2657.607-.4551 1.084-.5684-.184-.0781-.344-.2051-.481-.3808-.137-.1797-.205-.3692-.205-.5684 0-.25.072-.457.217-.6211.144-.168.353-.332.627-.4922-.344-.1484-.617-.3867-.821-.7148-.199-.3282-.298-.7149-.298-1.1602 0-.7148.232-1.2676.697-1.6582s1.129-.5859 1.992-.5859c.184 0 .4.0176.65.0527.254.0313.416.0547.487.0703zm-5.057 7.4766c0 .2461.118.4394.352.5801.238.1406.57.2109.996.2109.641 0 1.143-.0879 1.506-.2637s.545-.416.545-.7207c0-.2461-.108-.416-.323-.5097-.214-.0938-.546-.1407-.996-.1407h-.925c-.329 0-.604.0762-.827.2285-.218.1563-.328.3614-.328.6153zm.651-5.332c0 .3554.08.6367.24.8437.164.207.412.3105.744.3105.336 0 .582-.1035.738-.3105.157-.207.235-.4883.235-.8437 0-.7891-.324-1.1836-.973-1.1836-.656 0-.984.3945-.984 1.1836zm8.203-.9961c-.379 0-.676.1211-.891.3632-.215.2383-.338.5782-.369 1.0196h2.508c-.008-.4414-.123-.7813-.346-1.0196-.222-.2421-.523-.3632-.902-.3632zm.252 5.5195c-1.055 0-1.879-.291-2.473-.8731-.594-.582-.891-1.4062-.891-2.4726 0-1.0977.274-1.9453.821-2.543.551-.6015 1.31-.9023 2.279-.9023.926 0 1.647.2636 2.162.791.516.5273.774 1.2558.774 2.1855v.8672h-4.225c.02.5078.17.9043.451 1.1895.281.2851.676.4277 1.184.4277.394 0 .767-.041 1.119-.123.352-.0821.719-.2129 1.102-.3926v1.3828c-.313.1562-.647.2715-1.002.3457-.356.0781-.789.1172-1.301.1172z" fill="#7d808d"/><path d="m621 100h-281c-2.209 0-4 1.791-4 4s1.791 4 4 4h281c2.209 0 4-1.791 4-4s-1.791-4-4-4z" fill="#cbcdd6"/><path d="m475 100h-135c-2.209 0-4 1.791-4 4s1.791 4 4 4h135c2.209 0 4-1.791 4-4s-1.791-4-4-4z" fill="#0063a3"/><path d="m481 116c6.627 0 12-5.373 12-12 0-6.6274-5.373-12-12-12s-12 5.3726-12 12c0 6.627 5.373 12 12 12z" fill="#fff"/><path d="m481 115c6.075 0 11-4.925 11-11 0-6.0751-4.925-11-11-11s-11 4.9249-11 11c0 6.075 4.925 11 11 11z" stroke="#217cbb" stroke-width="2"/><path d="m337.078 85v-8.5664h1.817v7.0664h3.474v1.5zm10.805 0-.346-.8906h-.047c-.301.3789-.611.6426-.931.791-.317.1445-.731.2168-1.243.2168-.628 0-1.125-.1797-1.488-.5391-.359-.3593-.539-.8711-.539-1.5351 0-.6953.242-1.2071.727-1.5352.488-.332 1.222-.5156 2.203-.5508l1.136-.0351v-.2871c0-.6641-.339-.9961-1.019-.9961-.524 0-1.139.1582-1.846.4746l-.592-1.2071c.754-.3945 1.59-.5917 2.508-.5917.879 0 1.553.1914 2.022.5742.468.3828.703.9648.703 1.7461v4.3652zm-.528-3.0352-.691.0235c-.519.0156-.906.1094-1.16.2812-.254.1719-.381.4336-.381.7852 0 .5039.289.7558.867.7558.414 0 .744-.1191.99-.3574.25-.2383.375-.5547.375-.9492zm7.266-3.6386c.774 0 1.379.3027 1.817.9082.437.6015.656 1.4277.656 2.4785 0 1.082-.227 1.9199-.68 2.5137-.449.5937-1.062.8906-1.84.8906-.769 0-1.373-.2793-1.81-.8379h-.123l-.299.7207h-1.365v-9.1172h1.787v2.1211c0 .2695-.024.7012-.071 1.2949h.071c.418-.6484 1.037-.9726 1.857-.9726zm-.574 1.4297c-.442 0-.764.1367-.967.4101-.203.2695-.309.7168-.316 1.3418v.1934c0 .7031.103 1.207.31 1.5117.211.3047.543.457.996.457.368 0 .659-.1679.873-.5039.219-.3398.328-.832.328-1.4765 0-.6446-.109-1.127-.328-1.4473-.218-.3242-.517-.4863-.896-.4863zm7.236-.1582c-.379 0-.676.1211-.89.3632-.215.2383-.338.5782-.37 1.0196h2.508c-.008-.4414-.123-.7813-.345-1.0196-.223-.2421-.524-.3632-.903-.3632zm.252 5.5195c-1.055 0-1.879-.291-2.473-.8731-.593-.582-.89-1.4062-.89-2.4726 0-1.0977.273-1.9453.82-2.543.551-.6015 1.311-.9023 2.279-.9023.926 0 1.647.2636 2.163.791.515.5273.773 1.2558.773 2.1855v.8672h-4.225c.02.5078.17.9043.452 1.1895.281.2851.675.4277 1.183.4277.395 0 .768-.041 1.119-.123.352-.0821.719-.2129 1.102-.3926v1.3828c-.313.1562-.647.2715-1.002.3457-.356.0781-.789.1172-1.301.1172zm5.912-.1172h-1.787v-9.1172h1.787z" fill="#464b52"/><path d="m494 59h-26c-1.105 0-2 .8954-2 2v22.5c0 1.1046.895 2 2 2h26c1.105 0 2-.8954 2-2v-22.5c0-1.1046-.895-2-2-2z" fill="#90939f"/><path d="m481 92-6-8h12z" fill="#90939f"/><path d="m477.402 71.7676c.903 0 1.612.2246 2.127.6738.52.4453.78 1.0566.78 1.834 0 .8867-.284 1.582-.85 2.0859-.563.5039-1.34.7559-2.332.7559-.965 0-1.701-.1543-2.209-.4629v-.9375c.273.1758.613.3144 1.02.416.406.0977.806.1465 1.201.1465.687 0 1.22-.1621 1.599-.4863.383-.3242.574-.793.574-1.4063 0-1.1953-.732-1.7929-2.197-1.7929-.371 0-.867.0566-1.488.1699l-.504-.3223.322-4.0078h4.26v.8965h-3.428l-.216 2.5722c.449-.0898.896-.1347 1.341-.1347zm9.868.9375c0 1.4804-.235 2.5859-.704 3.3164-.464.7305-1.177 1.0957-2.138 1.0957-.922 0-1.623-.3731-2.104-1.1192-.48-.75-.72-1.8476-.72-3.2929 0-1.4922.232-2.5996.697-3.3223.465-.7226 1.174-1.084 2.127-1.084.929 0 1.634.377 2.115 1.1309.484.7539.727 1.8457.727 3.2754zm-4.682 0c0 1.2461.146 2.1543.439 2.7246.293.5664.76.8496 1.401.8496.648 0 1.117-.2871 1.406-.8613.293-.5782.439-1.4825.439-2.7129 0-1.2305-.146-2.1309-.439-2.7012-.289-.5742-.758-.8613-1.406-.8613-.641 0-1.108.2832-1.401.8496-.293.5625-.439 1.4668-.439 2.7129z" fill="#fff"/><path d="m621 177h-281c-2.209 0-4 1.791-4 4s1.791 4 4 4h281c2.209 0 4-1.791 4-4s-1.791-4-4-4z" fill="#cbcdd6"/><path d="m475 177h-135c-2.209 0-4 1.791-4 4s1.791 4 4 4h135c2.209 0 4-1.791 4-4s-1.791-4-4-4z" fill="#0063a3"/><path d="m481 202c12.15 0 22-9.85 22-22s-9.85-22-22-22-22 9.85-22 22 9.85 22 22 22z" fill="#217cbb" fill-opacity=".3"/><path d="m481 193c6.627 0 12-5.373 12-12s-5.373-12-12-12-12 5.373-12 12 5.373 12 12 12z" fill="#fff"/><path d="m481 191.5c5.799 0 10.5-4.701 10.5-10.5s-4.701-10.5-10.5-10.5-10.5 4.701-10.5 10.5 4.701 10.5 10.5 10.5z" stroke="#217cbb" stroke-width="3"/><path d="m337.078 162v-8.566h1.817v7.066h3.474v1.5zm10.805 0-.346-.891h-.047c-.301.379-.611.643-.931.791-.317.145-.731.217-1.243.217-.628 0-1.125-.179-1.488-.539-.359-.359-.539-.871-.539-1.535 0-.695.242-1.207.727-1.535.488-.332 1.222-.516 2.203-.551l1.136-.035v-.287c0-.664-.339-.996-1.019-.996-.524 0-1.139.158-1.846.474l-.592-1.207c.754-.394 1.59-.592 2.508-.592.879 0 1.553.192 2.022.575.468.382.703.965.703 1.746v4.365zm-.528-3.035-.691.023c-.519.016-.906.11-1.16.282-.254.171-.381.433-.381.785 0 .504.289.756.867.756.414 0 .744-.12.99-.358.25-.238.375-.555.375-.949zm7.266-3.639c.774 0 1.379.303 1.817.908.437.602.656 1.428.656 2.479 0 1.082-.227 1.92-.68 2.514-.449.593-1.062.89-1.84.89-.769 0-1.373-.279-1.81-.838h-.123l-.299.721h-1.365v-9.117h1.787v2.121c0 .269-.024.701-.071 1.295h.071c.418-.649 1.037-.973 1.857-.973zm-.574 1.43c-.442 0-.764.137-.967.41-.203.27-.309.717-.316 1.342v.193c0 .703.103 1.207.31 1.512.211.305.543.457.996.457.368 0 .659-.168.873-.504.219-.34.328-.832.328-1.477 0-.644-.109-1.127-.328-1.447-.218-.324-.517-.486-.896-.486zm7.236-.158c-.379 0-.676.121-.89.363-.215.238-.338.578-.37 1.019h2.508c-.008-.441-.123-.781-.345-1.019-.223-.242-.524-.363-.903-.363zm.252 5.519c-1.055 0-1.879-.291-2.473-.873-.593-.582-.89-1.406-.89-2.473 0-1.097.273-1.945.82-2.542.551-.602 1.311-.903 2.279-.903.926 0 1.647.264 2.163.791.515.528.773 1.256.773 2.186v.867h-4.225c.02.508.17.904.452 1.189.281.286.675.428 1.183.428.395 0 .768-.041 1.119-.123.352-.082.719-.213 1.102-.393v1.383c-.313.157-.647.272-1.002.346-.356.078-.789.117-1.301.117zm5.912-.117h-1.787v-9.117h1.787z" fill="#464b52"/><path d="m494 136h-26c-1.105 0-2 .895-2 2v22.5c0 1.105.895 2 2 2h26c1.105 0 2-.895 2-2v-22.5c0-1.105-.895-2-2-2z" fill="#90939f"/><path d="m481 169-6-8h12z" fill="#90939f"/><path d="m477.402 148.768c.903 0 1.612.224 2.127.673.52.446.78 1.057.78 1.834 0 .887-.284 1.582-.85 2.086-.563.504-1.34.756-2.332.756-.965 0-1.701-.154-2.209-.463v-.937c.273.176.613.314 1.02.416.406.097.806.146 1.201.146.687 0 1.22-.162 1.599-.486.383-.324.574-.793.574-1.406 0-1.196-.732-1.793-2.197-1.793-.371 0-.867.056-1.488.17l-.504-.323.322-4.007h4.26v.896h-3.428l-.216 2.572c.449-.09.896-.134 1.341-.134zm9.868.937c0 1.481-.235 2.586-.704 3.316-.464.731-1.177 1.096-2.138 1.096-.922 0-1.623-.373-2.104-1.119-.48-.75-.72-1.848-.72-3.293 0-1.492.232-2.6.697-3.322.465-.723 1.174-1.084 2.127-1.084.929 0 1.634.377 2.115 1.131.484.754.727 1.845.727 3.275zm-4.682 0c0 1.246.146 2.154.439 2.725.293.566.76.849 1.401.849.648 0 1.117-.287 1.406-.861.293-.578.439-1.482.439-2.713 0-1.23-.146-2.131-.439-2.701-.289-.574-.758-.861-1.406-.861-.641 0-1.108.283-1.401.849-.293.563-.439 1.467-.439 2.713z" fill="#fff"/><path d="m621 247h-281c-2.209 0-4 1.791-4 4s1.791 4 4 4h281c2.209 0 4-1.791 4-4s-1.791-4-4-4z" fill="#cbcdd6"/><path d="m475 247h-135c-2.209 0-4 1.791-4 4s1.791 4 4 4h135c2.209 0 4-1.791 4-4s-1.791-4-4-4z" fill="#a3a6b1"/><path d="m481 263c6.627 0 12-5.373 12-12s-5.373-12-12-12-12 5.373-12 12 5.373 12 12 12z" fill="#fff"/><path d="m481 262c6.075 0 11-4.925 11-11s-4.925-11-11-11-11 4.925-11 11 4.925 11 11 11z" stroke="#cbcdd6" stroke-width="2"/><path d="m337.078 232v-8.566h1.817v7.066h3.474v1.5zm10.805 0-.346-.891h-.047c-.301.379-.611.643-.931.791-.317.145-.731.217-1.243.217-.628 0-1.125-.179-1.488-.539-.359-.359-.539-.871-.539-1.535 0-.695.242-1.207.727-1.535.488-.332 1.222-.516 2.203-.551l1.136-.035v-.287c0-.664-.339-.996-1.019-.996-.524 0-1.139.158-1.846.474l-.592-1.207c.754-.394 1.59-.592 2.508-.592.879 0 1.553.192 2.022.575.468.382.703.965.703 1.746v4.365zm-.528-3.035-.691.023c-.519.016-.906.11-1.16.282-.254.171-.381.433-.381.785 0 .504.289.756.867.756.414 0 .744-.12.99-.358.25-.238.375-.555.375-.949zm7.266-3.639c.774 0 1.379.303 1.817.908.437.602.656 1.428.656 2.479 0 1.082-.227 1.92-.68 2.514-.449.593-1.062.89-1.84.89-.769 0-1.373-.279-1.81-.838h-.123l-.299.721h-1.365v-9.117h1.787v2.121c0 .269-.024.701-.071 1.295h.071c.418-.649 1.037-.973 1.857-.973zm-.574 1.43c-.442 0-.764.137-.967.41-.203.27-.309.717-.316 1.342v.193c0 .703.103 1.207.31 1.512.211.305.543.457.996.457.368 0 .659-.168.873-.504.219-.34.328-.832.328-1.477 0-.644-.109-1.127-.328-1.447-.218-.324-.517-.486-.896-.486zm7.236-.158c-.379 0-.676.121-.89.363-.215.238-.338.578-.37 1.019h2.508c-.008-.441-.123-.781-.345-1.019-.223-.242-.524-.363-.903-.363zm.252 5.519c-1.055 0-1.879-.291-2.473-.873-.593-.582-.89-1.406-.89-2.473 0-1.097.273-1.945.82-2.542.551-.602 1.311-.903 2.279-.903.926 0 1.647.264 2.163.791.515.528.773 1.256.773 2.186v.867h-4.225c.02.508.17.904.452 1.189.281.286.675.428 1.183.428.395 0 .768-.041 1.119-.123.352-.082.719-.213 1.102-.393v1.383c-.313.157-.647.272-1.002.346-.356.078-.789.117-1.301.117zm5.912-.117h-1.787v-9.117h1.787z" fill="#90939f"/><path d="m241 175h-223c-1.1046 0-2 .895-2 2s.8954 2 2 2h223c1.105 0 2-.895 2-2s-.895-2-2-2z" fill="#cbcdd6"/><path d="m157 175h-139c-1.1046 0-2 .895-2 2s.8954 2 2 2h139c1.105 0 2-.895 2-2s-.895-2-2-2z" fill="#0063a3"/><path d="m159 197c11.046 0 20-8.954 20-20s-8.954-20-20-20-20 8.954-20 20 8.954 20 20 20z" fill="#217cbb" fill-opacity=".3"/><path d="m159 187c5.523 0 10-4.477 10-10s-4.477-10-10-10-10 4.477-10 10 4.477 10 10 10z" fill="#fff"/><path d="m159 185.5c4.694 0 8.5-3.806 8.5-8.5s-3.806-8.5-8.5-8.5-8.5 3.806-8.5 8.5 3.806 8.5 8.5 8.5z" stroke="#217cbb" stroke-width="3"/><path d="m17.0781 164v-8.566h1.8164v7.066h3.4746v1.5zm10.8047 0-.3457-.891h-.0469c-.3007.379-.6113.643-.9316.791-.3164.145-.7305.217-1.2422.217-.6289 0-1.125-.179-1.4883-.539-.3593-.359-.539-.871-.539-1.535 0-.695.2421-1.207.7265-1.535.4883-.332 1.2227-.516 2.2032-.551l1.1367-.035v-.287c0-.664-.3399-.996-1.0196-.996-.5234 0-1.1386.158-1.8457.474l-.5918-1.207c.7539-.394 1.5899-.592 2.5078-.592.879 0 1.5528.192 2.0215.575.4688.382.7032.965.7032 1.746v4.365zm-.5273-3.035-.6914.023c-.5196.016-.9063.11-1.1602.282-.2539.171-.3809.433-.3809.785 0 .504.2891.756.8672.756.4141 0 .7442-.12.9903-.358.25-.238.375-.555.375-.949zm7.2656-3.639c.7734 0 1.3789.303 1.8164.908.4375.602.6563 1.428.6563 2.479 0 1.082-.2266 1.92-.6797 2.514-.4493.593-1.0625.89-1.8399.89-.7695 0-1.373-.279-1.8105-.838h-.1231l-.2988.721h-1.3652v-9.117h1.7871v2.121c0 .269-.0235.701-.0703 1.295h.0703c.4179-.649 1.0371-.973 1.8574-.973zm-.5742 1.43c-.4414 0-.7637.137-.9668.41-.2031.27-.3086.717-.3164 1.342v.193c0 .703.1035 1.207.3105 1.512.211.305.543.457.9961.457.3672 0 .6582-.168.8731-.504.2187-.34.3281-.832.3281-1.477 0-.644-.1094-1.127-.3281-1.447-.2188-.324-.5176-.486-.8965-.486zm7.2363-.158c-.3789 0-.6758.121-.8906.363-.2149.238-.3379.578-.3692 1.019h2.5078c-.0078-.441-.123-.781-.3457-1.019-.2226-.242-.5234-.363-.9023-.363zm.252 5.519c-1.0547 0-1.879-.291-2.4727-.873s-.8906-1.406-.8906-2.473c0-1.097.2734-1.945.8203-2.542.5508-.602 1.3105-.903 2.2793-.903.9258 0 1.6465.264 2.1621.791.5156.528.7734 1.256.7734 2.186v.867h-4.2246c.0196.508.1699.904.4512 1.189.2812.286.6758.428 1.1836.428.3945 0 .7676-.041 1.1191-.123.3516-.082.7188-.213 1.1016-.393v1.383c-.3125.157-.6465.272-1.002.346-.3554.078-.789.117-1.3007.117zm5.9121-.117h-1.7871v-9.117h1.7871z" fill="#464b52"/><path d="m172 134h-26c-1.105 0-2 .895-2 2v22.5c0 1.105.895 2 2 2h26c1.105 0 2-.895 2-2v-22.5c0-1.105-.895-2-2-2z" fill="#90939f"/><path d="m159 167-6-8h12z" fill="#90939f"/><path d="m155.402 146.768c.903 0 1.612.224 2.127.673.52.446.78 1.057.78 1.834 0 .887-.284 1.582-.85 2.086-.563.504-1.34.756-2.332.756-.965 0-1.701-.154-2.209-.463v-.937c.273.176.613.314 1.02.416.406.097.806.146 1.201.146.687 0 1.22-.162 1.599-.486.383-.324.574-.793.574-1.406 0-1.196-.732-1.793-2.197-1.793-.371 0-.867.056-1.488.17l-.504-.323.322-4.007h4.26v.896h-3.428l-.216 2.572c.449-.09.896-.134 1.341-.134zm9.868.937c0 1.481-.235 2.586-.704 3.316-.464.731-1.177 1.096-2.138 1.096-.922 0-1.623-.373-2.104-1.119-.48-.75-.72-1.848-.72-3.293 0-1.492.232-2.6.697-3.322.465-.723 1.174-1.084 2.127-1.084.929 0 1.634.377 2.115 1.131.484.754.727 1.845.727 3.275zm-4.682 0c0 1.246.146 2.154.439 2.725.293.566.76.849 1.401.849.648 0 1.117-.287 1.406-.861.293-.578.439-1.482.439-2.713 0-1.23-.146-2.131-.439-2.701-.289-.574-.758-.861-1.406-.861-.641 0-1.108.283-1.401.849-.293.563-.439 1.467-.439 2.713z" fill="#fff"/><path d="m241 251h-223c-1.1046 0-2 .895-2 2s.8954 2 2 2h223c1.105 0 2-.895 2-2s-.895-2-2-2z" fill="#cbcdd6"/><path d="m157 251h-139c-1.1046 0-2 .895-2 2s.8954 2 2 2h139c1.105 0 2-.895 2-2s-.895-2-2-2z" fill="#a3a6b1"/><path d="m159 263c5.523 0 10-4.477 10-10s-4.477-10-10-10-10 4.477-10 10 4.477 10 10 10z" fill="#fff"/><path d="m159 262c4.971 0 9-4.029 9-9s-4.029-9-9-9-9 4.029-9 9 4.029 9 9 9z" stroke="#cbcdd6" stroke-width="2"/><path d="m17.0781 240v-8.566h1.8164v7.066h3.4746v1.5zm10.8047 0-.3457-.891h-.0469c-.3007.379-.6113.643-.9316.791-.3164.145-.7305.217-1.2422.217-.6289 0-1.125-.179-1.4883-.539-.3593-.359-.539-.871-.539-1.535 0-.695.2421-1.207.7265-1.535.4883-.332 1.2227-.516 2.2032-.551l1.1367-.035v-.287c0-.664-.3399-.996-1.0196-.996-.5234 0-1.1386.158-1.8457.474l-.5918-1.207c.7539-.394 1.5899-.592 2.5078-.592.879 0 1.5528.192 2.0215.575.4688.382.7032.965.7032 1.746v4.365zm-.5273-3.035-.6914.023c-.5196.016-.9063.11-1.1602.282-.2539.171-.3809.433-.3809.785 0 .504.2891.756.8672.756.4141 0 .7442-.12.9903-.358.25-.238.375-.555.375-.949zm7.2656-3.639c.7734 0 1.3789.303 1.8164.908.4375.602.6563 1.428.6563 2.479 0 1.082-.2266 1.92-.6797 2.514-.4493.593-1.0625.89-1.8399.89-.7695 0-1.373-.279-1.8105-.838h-.1231l-.2988.721h-1.3652v-9.117h1.7871v2.121c0 .269-.0235.701-.0703 1.295h.0703c.4179-.649 1.0371-.973 1.8574-.973zm-.5742 1.43c-.4414 0-.7637.137-.9668.41-.2031.27-.3086.717-.3164 1.342v.193c0 .703.1035 1.207.3105 1.512.211.305.543.457.9961.457.3672 0 .6582-.168.8731-.504.2187-.34.3281-.832.3281-1.477 0-.644-.1094-1.127-.3281-1.447-.2188-.324-.5176-.486-.8965-.486zm7.2363-.158c-.3789 0-.6758.121-.8906.363-.2149.238-.3379.578-.3692 1.019h2.5078c-.0078-.441-.123-.781-.3457-1.019-.2226-.242-.5234-.363-.9023-.363zm.252 5.519c-1.0547 0-1.879-.291-2.4727-.873s-.8906-1.406-.8906-2.473c0-1.097.2734-1.945.8203-2.542.5508-.602 1.3105-.903 2.2793-.903.9258 0 1.6465.264 2.1621.791.5156.528.7734 1.256.7734 2.186v.867h-4.2246c.0196.508.1699.904.4512 1.189.2812.286.6758.428 1.1836.428.3945 0 .7676-.041 1.1191-.123.3516-.082.7188-.213 1.1016-.393v1.383c-.3125.157-.6465.272-1.002.346-.3554.078-.789.117-1.3007.117zm5.9121-.117h-1.7871v-9.117h1.7871z" fill="#90939f"/><path d="m941 104h-277c-3.314 0-6 2.686-6 6s2.686 6 6 6h277c3.314 0 6-2.686 6-6s-2.686-6-6-6z" fill="#cbcdd6"/><path d="m795 104h-131c-3.314 0-6 2.686-6 6s2.686 6 6 6h131c3.314 0 6-2.686 6-6s-2.686-6-6-6z" fill="#0063a3"/><path d="m801 126c8.837 0 16-7.163 16-16s-7.163-16-16-16-16 7.163-16 16 7.163 16 16 16z" fill="#fff"/><path d="m801 124.5c8.008 0 14.5-6.492 14.5-14.5s-6.492-14.5-14.5-14.5-14.5 6.492-14.5 14.5 6.492 14.5 14.5 14.5z" stroke="#217cbb" stroke-width="3"/><path d="m659.078 89v-8.5664h1.817v7.0664h3.474v1.5zm10.805 0-.346-.8906h-.047c-.301.3789-.611.6426-.931.791-.317.1445-.731.2168-1.243.2168-.628 0-1.125-.1797-1.488-.5391-.359-.3593-.539-.8711-.539-1.5351 0-.6953.242-1.2071.727-1.5352.488-.332 1.222-.5156 2.203-.5508l1.136-.0351v-.2871c0-.6641-.339-.9961-1.019-.9961-.524 0-1.139.1582-1.846.4746l-.592-1.2071c.754-.3945 1.59-.5917 2.508-.5917.879 0 1.553.1914 2.022.5742.468.3828.703.9648.703 1.7461v4.3652zm-.528-3.0352-.691.0235c-.519.0156-.906.1094-1.16.2812-.254.1719-.381.4336-.381.7852 0 .5039.289.7558.867.7558.414 0 .744-.1191.99-.3574.25-.2383.375-.5547.375-.9492zm7.266-3.6386c.774 0 1.379.3027 1.817.9082.437.6015.656 1.4277.656 2.4785 0 1.082-.227 1.9199-.68 2.5137-.449.5937-1.062.8906-1.84.8906-.769 0-1.373-.2793-1.81-.8379h-.123l-.299.7207h-1.365v-9.1172h1.787v2.1211c0 .2695-.024.7012-.071 1.2949h.071c.418-.6484 1.037-.9726 1.857-.9726zm-.574 1.4297c-.442 0-.764.1367-.967.4101-.203.2695-.309.7168-.316 1.3418v.1934c0 .7031.103 1.207.31 1.5117.211.3047.543.457.996.457.368 0 .659-.1679.873-.5039.219-.3398.328-.832.328-1.4765 0-.6446-.109-1.127-.328-1.4473-.218-.3242-.517-.4863-.896-.4863zm7.236-.1582c-.379 0-.676.1211-.89.3632-.215.2383-.338.5782-.37 1.0196h2.508c-.008-.4414-.123-.7813-.345-1.0196-.223-.2421-.524-.3632-.903-.3632zm.252 5.5195c-1.055 0-1.879-.291-2.473-.8731-.593-.582-.89-1.4062-.89-2.4726 0-1.0977.273-1.9453.82-2.543.551-.6015 1.311-.9023 2.279-.9023.926 0 1.647.2636 2.163.791.515.5273.773 1.2558.773 2.1855v.8672h-4.225c.02.5078.17.9043.452 1.1895.281.2851.675.4277 1.183.4277.395 0 .768-.041 1.119-.123.352-.0821.719-.2129 1.102-.3926v1.3828c-.313.1562-.647.2715-1.002.3457-.356.0781-.789.1172-1.301.1172zm5.912-.1172h-1.787v-9.1172h1.787z" fill="#464b52"/><path d="m814 61h-26c-1.105 0-2 .8954-2 2v22.5c0 1.1046.895 2 2 2h26c1.105 0 2-.8954 2-2v-22.5c0-1.1046-.895-2-2-2z" fill="#90939f"/><path d="m801 94-6-8h12z" fill="#90939f"/><path d="m797.402 73.7676c.903 0 1.612.2246 2.127.6738.52.4453.78 1.0566.78 1.834 0 .8867-.284 1.582-.85 2.0859-.563.5039-1.34.7559-2.332.7559-.965 0-1.701-.1543-2.209-.4629v-.9375c.273.1758.613.3144 1.02.416.406.0977.806.1465 1.201.1465.687 0 1.22-.1621 1.599-.4863.383-.3242.574-.793.574-1.4063 0-1.1953-.732-1.7929-2.197-1.7929-.371 0-.867.0566-1.488.1699l-.504-.3223.322-4.0078h4.26v.8965h-3.428l-.216 2.5722c.449-.0898.896-.1347 1.341-.1347zm9.868.9375c0 1.4804-.235 2.5859-.704 3.3164-.464.7305-1.177 1.0957-2.138 1.0957-.922 0-1.623-.3731-2.104-1.1192-.48-.75-.72-1.8476-.72-3.2929 0-1.4922.232-2.5996.697-3.3223.465-.7226 1.174-1.084 2.127-1.084.929 0 1.634.377 2.115 1.1309.484.7539.727 1.8457.727 3.2754zm-4.682 0c0 1.2461.146 2.1543.439 2.7246.293.5664.76.8496 1.401.8496.648 0 1.117-.2871 1.406-.8613.293-.5782.439-1.4825.439-2.7129 0-1.2305-.146-2.1309-.439-2.7012-.289-.5742-.758-.8613-1.406-.8613-.641 0-1.108.2832-1.401.8496-.293.5625-.439 1.4668-.439 2.7129z" fill="#fff"/><path d="m941 178h-277c-3.314 0-6 2.686-6 6s2.686 6 6 6h277c3.314 0 6-2.686 6-6s-2.686-6-6-6z" fill="#cbcdd6"/><path d="m795 178h-131c-3.314 0-6 2.686-6 6s2.686 6 6 6h131c3.314 0 6-2.686 6-6s-2.686-6-6-6z" fill="#0063a3"/><path d="m801 208c13.255 0 24-10.745 24-24s-10.745-24-24-24-24 10.745-24 24 10.745 24 24 24z" fill="#217cbb" fill-opacity=".3"/><path d="m801 200c8.837 0 16-7.163 16-16s-7.163-16-16-16-16 7.163-16 16 7.163 16 16 16z" fill="#fff"/><path d="m801 198c7.732 0 14-6.268 14-14s-6.268-14-14-14-14 6.268-14 14 6.268 14 14 14z" stroke="#217cbb" stroke-width="4"/><path d="m659.078 163v-8.566h1.817v7.066h3.474v1.5zm10.805 0-.346-.891h-.047c-.301.379-.611.643-.931.791-.317.145-.731.217-1.243.217-.628 0-1.125-.179-1.488-.539-.359-.359-.539-.871-.539-1.535 0-.695.242-1.207.727-1.535.488-.332 1.222-.516 2.203-.551l1.136-.035v-.287c0-.664-.339-.996-1.019-.996-.524 0-1.139.158-1.846.474l-.592-1.207c.754-.394 1.59-.592 2.508-.592.879 0 1.553.192 2.022.575.468.382.703.965.703 1.746v4.365zm-.528-3.035-.691.023c-.519.016-.906.11-1.16.282-.254.171-.381.433-.381.785 0 .504.289.756.867.756.414 0 .744-.12.99-.358.25-.238.375-.555.375-.949zm7.266-3.639c.774 0 1.379.303 1.817.908.437.602.656 1.428.656 2.479 0 1.082-.227 1.92-.68 2.514-.449.593-1.062.89-1.84.89-.769 0-1.373-.279-1.81-.838h-.123l-.299.721h-1.365v-9.117h1.787v2.121c0 .269-.024.701-.071 1.295h.071c.418-.649 1.037-.973 1.857-.973zm-.574 1.43c-.442 0-.764.137-.967.41-.203.27-.309.717-.316 1.342v.193c0 .703.103 1.207.31 1.512.211.305.543.457.996.457.368 0 .659-.168.873-.504.219-.34.328-.832.328-1.477 0-.644-.109-1.127-.328-1.447-.218-.324-.517-.486-.896-.486zm7.236-.158c-.379 0-.676.121-.89.363-.215.238-.338.578-.37 1.019h2.508c-.008-.441-.123-.781-.345-1.019-.223-.242-.524-.363-.903-.363zm.252 5.519c-1.055 0-1.879-.291-2.473-.873-.593-.582-.89-1.406-.89-2.473 0-1.097.273-1.945.82-2.542.551-.602 1.311-.903 2.279-.903.926 0 1.647.264 2.163.791.515.528.773 1.256.773 2.186v.867h-4.225c.02.508.17.904.452 1.189.281.286.675.428 1.183.428.395 0 .768-.041 1.119-.123.352-.082.719-.213 1.102-.393v1.383c-.313.157-.647.272-1.002.346-.356.078-.789.117-1.301.117zm5.912-.117h-1.787v-9.117h1.787z" fill="#464b52"/><path d="m814 135h-26c-1.105 0-2 .895-2 2v22.5c0 1.105.895 2 2 2h26c1.105 0 2-.895 2-2v-22.5c0-1.105-.895-2-2-2z" fill="#90939f"/><path d="m801 168-6-8h12z" fill="#90939f"/><path d="m797.402 147.768c.903 0 1.612.224 2.127.673.52.446.78 1.057.78 1.834 0 .887-.284 1.582-.85 2.086-.563.504-1.34.756-2.332.756-.965 0-1.701-.154-2.209-.463v-.937c.273.176.613.314 1.02.416.406.097.806.146 1.201.146.687 0 1.22-.162 1.599-.486.383-.324.574-.793.574-1.406 0-1.196-.732-1.793-2.197-1.793-.371 0-.867.056-1.488.17l-.504-.323.322-4.007h4.26v.896h-3.428l-.216 2.572c.449-.09.896-.134 1.341-.134zm9.868.937c0 1.481-.235 2.586-.704 3.316-.464.731-1.177 1.096-2.138 1.096-.922 0-1.623-.373-2.104-1.119-.48-.75-.72-1.848-.72-3.293 0-1.492.232-2.6.697-3.322.465-.723 1.174-1.084 2.127-1.084.929 0 1.634.377 2.115 1.131.484.754.727 1.845.727 3.275zm-4.682 0c0 1.246.146 2.154.439 2.725.293.566.76.849 1.401.849.648 0 1.117-.287 1.406-.861.293-.578.439-1.482.439-2.713 0-1.23-.146-2.131-.439-2.701-.289-.574-.758-.861-1.406-.861-.641 0-1.108.283-1.401.849-.293.563-.439 1.467-.439 2.713z" fill="#fff"/><path d="m941 246h-277c-3.314 0-6 2.686-6 6s2.686 6 6 6h277c3.314 0 6-2.686 6-6s-2.686-6-6-6z" fill="#cbcdd6"/><path d="m795 246h-131c-3.314 0-6 2.686-6 6s2.686 6 6 6h131c3.314 0 6-2.686 6-6s-2.686-6-6-6z" fill="#a3a6b1"/><path d="m801 268c8.837 0 16-7.163 16-16s-7.163-16-16-16-16 7.163-16 16 7.163 16 16 16z" fill="#fff"/><path d="m801 266.5c8.008 0 14.5-6.492 14.5-14.5s-6.492-14.5-14.5-14.5-14.5 6.492-14.5 14.5 6.492 14.5 14.5 14.5z" stroke="#cbcdd6" stroke-width="3"/><path d="m659.078 231v-8.566h1.817v7.066h3.474v1.5zm10.805 0-.346-.891h-.047c-.301.379-.611.643-.931.791-.317.145-.731.217-1.243.217-.628 0-1.125-.179-1.488-.539-.359-.359-.539-.871-.539-1.535 0-.695.242-1.207.727-1.535.488-.332 1.222-.516 2.203-.551l1.136-.035v-.287c0-.664-.339-.996-1.019-.996-.524 0-1.139.158-1.846.474l-.592-1.207c.754-.394 1.59-.592 2.508-.592.879 0 1.553.192 2.022.575.468.382.703.965.703 1.746v4.365zm-.528-3.035-.691.023c-.519.016-.906.11-1.16.282-.254.171-.381.433-.381.785 0 .504.289.756.867.756.414 0 .744-.12.99-.358.25-.238.375-.555.375-.949zm7.266-3.639c.774 0 1.379.303 1.817.908.437.602.656 1.428.656 2.479 0 1.082-.227 1.92-.68 2.514-.449.593-1.062.89-1.84.89-.769 0-1.373-.279-1.81-.838h-.123l-.299.721h-1.365v-9.117h1.787v2.121c0 .269-.024.701-.071 1.295h.071c.418-.649 1.037-.973 1.857-.973zm-.574 1.43c-.442 0-.764.137-.967.41-.203.27-.309.717-.316 1.342v.193c0 .703.103 1.207.31 1.512.211.305.543.457.996.457.368 0 .659-.168.873-.504.219-.34.328-.832.328-1.477 0-.644-.109-1.127-.328-1.447-.218-.324-.517-.486-.896-.486zm7.236-.158c-.379 0-.676.121-.89.363-.215.238-.338.578-.37 1.019h2.508c-.008-.441-.123-.781-.345-1.019-.223-.242-.524-.363-.903-.363zm.252 5.519c-1.055 0-1.879-.291-2.473-.873-.593-.582-.89-1.406-.89-2.473 0-1.097.273-1.945.82-2.542.551-.602 1.311-.903 2.279-.903.926 0 1.647.264 2.163.791.515.528.773 1.256.773 2.186v.867h-4.225c.02.508.17.904.452 1.189.281.286.675.428 1.183.428.395 0 .768-.041 1.119-.123.352-.082.719-.213 1.102-.393v1.383c-.313.157-.647.272-1.002.346-.356.078-.789.117-1.301.117zm5.912-.117h-1.787v-9.117h1.787z" fill="#90939f"/><path d="m2.57031 17v-11.42188h1.32813v10.21878h5.03906v1.2031zm13.38279 0-.2578-1.2188h-.0625c-.4271.5365-.8542.9011-1.2812 1.0938-.4219.1875-.9506.2812-1.586.2812-.8489 0-1.5156-.2187-2-.6562-.4791-.4375-.7187-1.0599-.7187-1.8672 0-1.7292 1.3828-2.6354 4.1484-2.7187l1.4531-.0469v-.5313c0-.6718-.1458-1.1666-.4375-1.48434-.2864-.32291-.7474-.48437-1.3828-.48437-.7135 0-1.5208.21875-2.4219.65621l-.3984-.99215c.4219-.22917.8828-.40885 1.3828-.53906.5052-.13021 1.0104-.19531 1.5156-.19531 1.0209 0 1.7761.22656 2.2657.67968.4948.45313.7422 1.17964.7422 2.17964v5.8438zm-2.9297-.9141c.8073 0 1.4401-.2213 1.8985-.664.4635-.4427.6953-1.0625.6953-1.8594v-.7734l-1.2969.0547c-1.0312.0364-1.776.1979-2.2344.4843-.4531.2813-.6797.7214-.6797 1.3203 0 .4688.1407.8256.4219 1.0704.2865.2447.6849.3671 1.1953.3671zm10.5547-7.78902c1.125 0 1.9974.38541 2.6172 1.15624.625.76568.9375 1.85158.9375 3.25778 0 1.4063-.3151 2.5-.9453 3.2813-.625.776-1.4948 1.164-2.6094 1.164-.5573 0-1.0677-.1015-1.5312-.3046-.4584-.2084-.8438-.5261-1.1563-.9532h-.0937l-.2735 1.1016h-.9296v-12.15625h1.2968v2.95313c0 .66145-.0208 1.2552-.0625 1.78124h.0625c.6042-.85416 1.5-1.28124 2.6875-1.28124zm-.1875 1.08593c-.8854 0-1.5234.25521-1.914.76559-.3907.5052-.586 1.3594-.586 2.5625 0 1.2032.2005 2.0651.6016 2.586.401.5156 1.0443.7734 1.9297.7734.7969 0 1.3906-.2891 1.7812-.8672.3907-.5833.586-1.4192.586-2.5078 0-1.1146-.1953-1.9453-.586-2.4922-.3906-.54685-.9948-.82029-1.8125-.82029zm9.6328 7.77339c-1.2656 0-2.2656-.3854-3-1.1562-.7291-.7708-1.0937-1.8411-1.0937-3.2109 0-1.3802.3385-2.4766 1.0156-3.2891.6823-.8125 1.5964-1.21875 2.7422-1.21875 1.0729 0 1.9219.35417 2.5469 1.0625.625.70315.9375 1.63285.9375 2.78905v.8203h-5.8985c.0261 1.0052.2787 1.7683.7578 2.2891.4844.5208 1.1641.7812 2.0391.7812.9219 0 1.8333-.1927 2.7344-.5781v1.1563c-.4583.1979-.8932.3385-1.3047.4218-.4062.0886-.8984.1328-1.4766.1328zm-.3515-7.78901c-.6875 0-1.237.22396-1.6485.67191-.4062.4479-.6458 1.0677-.7187 1.8593h4.4765c0-.8177-.1822-1.4427-.5468-1.875-.3646-.43746-.8854-.65621-1.5625-.65621zm7.0156 7.63281h-1.2969v-12.15625h1.2969zm16.3281 0-.2578-1.2188h-.0625c-.4271.5365-.8542.9011-1.2812 1.0938-.4219.1875-.9506.2812-1.586.2812-.8489 0-1.5156-.2187-2-.6562-.4791-.4375-.7187-1.0599-.7187-1.8672 0-1.7292 1.3828-2.6354 4.1484-2.7187l1.4531-.0469v-.5313c0-.6718-.1458-1.1666-.4375-1.48434-.2864-.32291-.7474-.48437-1.3828-.48437-.7135 0-1.5208.21875-2.4218.65621l-.3985-.99215c.4219-.22917.8828-.40885 1.3828-.53906.5052-.13021 1.0104-.19531 1.5157-.19531 1.0208 0 1.776.22656 2.2656.67968.4948.45313.7422 1.17964.7422 2.17964v5.8438zm-2.9297-.9141c.8073 0 1.4401-.2213 1.8985-.664.4635-.4427.6953-1.0625.6953-1.8594v-.7734l-1.2969.0547c-1.0312.0364-1.776.1979-2.2344.4843-.4531.2813-.6796.7214-.6796 1.3203 0 .4688.1406.8256.4218 1.0704.2865.2447.6849.3671 1.1953.3671zm12.4297.9141v-5.5391c0-.6979-.1588-1.2187-.4765-1.56246-.3177-.34375-.8151-.51563-1.4922-.51563-.8959 0-1.5521.24219-1.9688.72659-.4166.4844-.625 1.2838-.625 2.3984v4.4922h-1.2969v-8.5625h1.0547l.211 1.17188h.0625c.2656-.42188.638-.7474 1.1172-.97657.4791-.23437 1.013-.35156 1.6015-.35156 1.0313 0 1.8073.25 2.3281.75.5209.49479.7813 1.28905.7813 2.38285v5.5859zm9.7969-1.1484h-.0703c-.599.8698-1.4948 1.3046-2.6875 1.3046-1.1198 0-1.9922-.3828-2.6172-1.1484-.6198-.7656-.9297-1.8542-.9297-3.2656 0-1.4115.3125-2.5078.9375-3.28908.625-.78124 1.4948-1.17187 2.6094-1.17187 1.1614 0 2.0521.42187 2.6719 1.26563h.1015l-.0547-.61719-.0312-.60157v-3.48437h1.2969v12.15625h-1.0547zm-2.5937.2187c.8854 0 1.526-.2396 1.9218-.7187.4011-.4844.6016-1.2631.6016-2.336v-.2734c0-1.2136-.2031-2.0781-.6094-2.5938-.401-.5208-1.0443-.78121-1.9297-.78121-.7604 0-1.3437.29687-1.75.89061-.401.5886-.6015 1.4219-.6015 2.5 0 1.0938.2005 1.9193.6015 2.4766.4011.5573.9896.8359 1.7657.8359zm14.4453.9297h-1.3282v-10.24219h-3.6171v-1.17969h8.5624v1.17969h-3.6171zm12.539-4.2891c0 1.3959-.3515 2.487-1.0547 3.2735-.7031.7812-1.6744 1.1718-2.914 1.1718-.7656 0-1.4453-.1796-2.0391-.539-.5937-.3594-1.0521-.875-1.375-1.5469s-.4844-1.4583-.4844-2.3594c0-1.3958.349-2.4817 1.0469-3.25778.6979-.78124 1.6667-1.17187 2.9063-1.17187 1.1979 0 2.1484.39844 2.8515 1.19531.7084.79684 1.0625 1.87504 1.0625 3.23434zm-6.5234 0c0 1.0938.2187 1.9271.6562 2.5.4375.573 1.0808.8594 1.9297.8594.849 0 1.4922-.2838 1.9297-.8515.4427-.573.6641-1.4089.6641-2.5079 0-1.0885-.2214-1.914-.6641-2.4765-.4375-.56773-1.0859-.85159-1.9453-.85159-.849 0-1.4896.27865-1.9219.83599-.4323.5572-.6484 1.388-.6484 2.4921zm16.1953 0c0 1.3959-.352 2.487-1.055 3.2735-.703.7812-1.674 1.1718-2.914 1.1718-.765 0-1.445-.1796-2.039-.539s-1.052-.875-1.375-1.5469-.484-1.4583-.484-2.3594c0-1.3958.349-2.4817 1.047-3.25778.698-.78124 1.666-1.17187 2.906-1.17187 1.198 0 2.148.39844 2.851 1.19531.709.79684 1.063 1.87504 1.063 3.23434zm-6.523 0c0 1.0938.218 1.9271.656 2.5.437.573 1.081.8594 1.93.8594.848 0 1.492-.2838 1.929-.8515.443-.573.664-1.4089.664-2.5079 0-1.0885-.221-1.914-.664-2.4765-.437-.56773-1.086-.85159-1.945-.85159-.849 0-1.49.27865-1.922.83599-.432.5572-.648 1.388-.648 2.4921zm10.101 4.2891h-1.297v-12.15625h1.297zm5.516-.9141c.229 0 .45-.0156.664-.0468.213-.0365.383-.073.508-.1094v.9922c-.141.0677-.349.1224-.625.164-.271.0469-.516.0703-.735.0703-1.656 0-2.484-.8723-2.484-2.6171v-5.09379h-1.227v-.625l1.227-.53906.547-1.82813h.75v1.98438h2.484v1.00781h-2.484v5.03909c0 .5156.122.9114.367 1.1875.245.276.581.414 1.008.414zm4.187.9141h-1.297v-8.5625h1.297zm-1.406-10.88281c0-.29688.073-.51302.219-.64844.146-.14063.328-.21094.547-.21094.208 0 .388.07031.539.21094s.226.35677.226.64844c0 .29166-.075.51041-.226.65625-.151.14062-.331.21094-.539.21094-.219 0-.401-.07032-.547-.21094-.146-.14584-.219-.36459-.219-.65625zm8.141 11.03901c-.558 0-1.068-.1015-1.532-.3046-.458-.2084-.843-.5261-1.156-.9532h-.094c.063.5.094.974.094 1.4219v3.5235h-1.297v-12.4063h1.055l.18 1.17188h.062c.333-.46876.721-.8073 1.164-1.01563s.951-.3125 1.524-.3125c1.135 0 2.01.38802 2.625 1.16406.619.77609.929 1.86459.929 3.26559 0 1.4063-.315 2.5-.945 3.2813-.625.776-1.495 1.164-2.609 1.164zm-.188-7.77339c-.875 0-1.508.24219-1.898.72659-.391.4844-.591 1.2552-.602 2.3125v.289c0 1.2032.201 2.0651.602 2.586.401.5156 1.044.7734 1.929.7734.74 0 1.318-.2995 1.735-.8984.422-.599.633-1.4245.633-2.4766 0-1.0677-.211-1.8854-.633-2.4531-.417-.57293-1.005-.85939-1.766-.85939zm16.891-3.80469h1.429l-4.117 11.42188h-1.312l-4.094-11.42188h1.406l2.625 7.39068c.302.8489.542 1.6744.719 2.4765.188-.8437.432-1.6849.734-2.5234zm8.078 11.42188-.258-1.2188h-.062c-.428.5365-.855.9011-1.282 1.0938-.422.1875-.95.2812-1.586.2812-.849 0-1.515-.2187-2-.6562-.479-.4375-.718-1.0599-.718-1.8672 0-1.7292 1.382-2.6354 4.148-2.7187l1.453-.0469v-.5313c0-.6718-.146-1.1666-.437-1.48434-.287-.32291-.748-.48437-1.383-.48437-.714 0-1.521.21875-2.422.65621l-.398-.99215c.421-.22917.882-.40885 1.382-.53906.506-.13021 1.011-.19531 1.516-.19531 1.021 0 1.776.22656 2.266.67968.494.45313.742 1.17964.742 2.17964v5.8438zm-2.93-.9141c.807 0 1.44-.2213 1.899-.664.463-.4427.695-1.0625.695-1.8594v-.7734l-1.297.0547c-1.031.0364-1.776.1979-2.234.4843-.453.2813-.68.7214-.68 1.3203 0 .4688.141.8256.422 1.0704.286.2447.685.3671 1.195.3671zm7.867.9141h-1.297v-12.15625h1.297zm3.969-8.5625v5.5547c0 .6979.159 1.2187.477 1.5625.317.3437.815.5156 1.492.5156.896 0 1.549-.2448 1.961-.7344.416-.4895.625-1.289.625-2.3984v-4.5h1.297v8.5625h-1.071l-.187-1.1484h-.07c-.266.4218-.636.7448-1.11.9687-.469.224-1.005.3359-1.609.3359-1.042 0-1.823-.2473-2.344-.7421-.516-.4948-.773-1.2865-.773-2.375v-5.6016zm12.227 8.7187c-1.266 0-2.266-.3854-3-1.1562-.729-.7708-1.094-1.8411-1.094-3.2109 0-1.3802.338-2.4766 1.016-3.2891.682-.8125 1.596-1.21875 2.742-1.21875 1.073 0 1.922.35417 2.547 1.0625.625.70315.937 1.63285.937 2.78905v.8203h-5.898c.026 1.0052.278 1.7683.757 2.2891.485.5208 1.165.7812 2.04.7812.921 0 1.833-.1927 2.734-.5781v1.1563c-.458.1979-.893.3385-1.305.4218-.406.0886-.898.1328-1.476.1328zm-.352-7.78901c-.687 0-1.237.22396-1.648.67191-.407.4479-.646 1.0677-.719 1.8593h4.476c0-.8177-.182-1.4427-.546-1.875-.365-.43746-.886-.65621-1.563-.65621z" fill="#7d808d"/></svg>