<svg width="962" height="344" viewBox="0 0 962 344" fill="none" xmlns="http://www.w3.org/2000/svg"><path d="M962 0H482V171H962V0Z" fill="#252A2E"/><path d="M480 0H0V171H480V0Z" fill="#252A2E"/><path d="M39.1348 32.6211C39.1348 33.3945 38.8555 34.0039 38.2969 34.4492C37.7422 34.8945 36.9688 35.1172 35.9766 35.1172C35.0625 35.1172 34.2539 34.9453 33.5508 34.6016V32.9141C34.1289 33.1719 34.6172 33.3535 35.0156 33.459C35.418 33.5645 35.7852 33.6172 36.1172 33.6172C36.5156 33.6172 36.8203 33.541 37.0312 33.3887C37.2461 33.2363 37.3535 33.0098 37.3535 32.709C37.3535 32.541 37.3066 32.3926 37.2129 32.2637C37.1191 32.1309 36.9805 32.0039 36.7969 31.8828C36.6172 31.7617 36.248 31.5684 35.6895 31.3027C35.166 31.0566 34.7734 30.8203 34.5117 30.5938C34.25 30.3672 34.041 30.1035 33.8848 29.8027C33.7285 29.502 33.6504 29.1504 33.6504 28.748C33.6504 27.9902 33.9062 27.3945 34.418 26.9609C34.9336 26.5273 35.6445 26.3105 36.5508 26.3105C36.9961 26.3105 37.4199 26.3633 37.8223 26.4688C38.2285 26.5742 38.6523 26.7227 39.0938 26.9141L38.5078 28.3262C38.0508 28.1387 37.6719 28.0078 37.3711 27.9336C37.0742 27.8594 36.7812 27.8223 36.4922 27.8223C36.1484 27.8223 35.8848 27.9023 35.7012 28.0625C35.5176 28.2227 35.4258 28.4316 35.4258 28.6895C35.4258 28.8496 35.4629 28.9902 35.5371 29.1113C35.6113 29.2285 35.7285 29.3438 35.8887 29.457C36.0527 29.5664 36.4375 29.7656 37.043 30.0547C37.8438 30.4375 38.3926 30.8223 38.6895 31.209C38.9863 31.5918 39.1348 32.0625 39.1348 32.6211ZM46.4121 35H44.625V31.1738C44.625 30.7012 44.5449 30.3477 44.3848 30.1133C44.2285 29.875 43.9805 29.7559 43.6406 29.7559C43.1836 29.7559 42.8516 29.9238 42.6445 30.2598C42.4375 30.5957 42.334 31.1484 42.334 31.918V35H40.5469V28.4492H41.9121L42.1523 29.2871H42.252C42.4277 28.9863 42.6816 28.752 43.0137 28.584C43.3457 28.4121 43.7266 28.3262 44.1562 28.3262C45.1367 28.3262 45.8008 28.6465 46.1484 29.2871H46.3066C46.4824 28.9824 46.7402 28.7461 47.0801 28.5781C47.4238 28.4102 47.8105 28.3262 48.2402 28.3262C48.9824 28.3262 49.543 28.5176 49.9219 28.9004C50.3047 29.2793 50.4961 29.8887 50.4961 30.7285V35H48.7031V31.1738C48.7031 30.7012 48.623 30.3477 48.4629 30.1133C48.3066 29.875 48.0586 29.7559 47.7188 29.7559C47.2812 29.7559 46.9531 29.9121 46.7344 30.2246C46.5195 30.5371 46.4121 31.0332 46.4121 31.7129V35ZM56.4961 35L56.1504 34.1094H56.1035C55.8027 34.4883 55.4922 34.752 55.1719 34.9004C54.8555 35.0449 54.4414 35.1172 53.9297 35.1172C53.3008 35.1172 52.8047 34.9375 52.4414 34.5781C52.082 34.2188 51.9023 33.707 51.9023 33.043C51.9023 32.3477 52.1445 31.8359 52.6289 31.5078C53.1172 31.1758 53.8516 30.9922 54.832 30.957L55.9688 30.9219V30.6348C55.9688 29.9707 55.6289 29.6387 54.9492 29.6387C54.4258 29.6387 53.8105 29.7969 53.1035 30.1133L52.5117 28.9062C53.2656 28.5117 54.1016 28.3145 55.0195 28.3145C55.8984 28.3145 56.5723 28.5059 57.041 28.8887C57.5098 29.2715 57.7441 29.8535 57.7441 30.6348V35H56.4961ZM55.9688 31.9648L55.2773 31.9883C54.7578 32.0039 54.3711 32.0977 54.1172 32.2695C53.8633 32.4414 53.7363 32.7031 53.7363 33.0547C53.7363 33.5586 54.0254 33.8105 54.6035 33.8105C55.0176 33.8105 55.3477 33.6914 55.5938 33.4531C55.8438 33.2148 55.9688 32.8984 55.9688 32.5039V31.9648ZM61.377 35H59.5898V25.8828H61.377V35ZM65.0449 35H63.2578V25.8828H65.0449V35Z" fill="#B7B9C3"/><path d="M37.6982 120.021H36.8389V121.5H35.3643V120.021H32.3174V118.971L35.4473 114.361H36.8389V118.849H37.6982V120.021ZM35.3643 118.849V117.638C35.3643 117.436 35.3724 117.143 35.3887 116.759C35.4049 116.375 35.418 116.152 35.4277 116.09H35.3887C35.2682 116.357 35.1234 116.617 34.9541 116.871L33.6455 118.849H35.3643Z" fill="#E8178A"/><path d="M62.501 120.5H40.668" stroke="#E8178A"/><path d="M62.501 115.625H40.668" stroke="#E8178A"/><path d="M50.5 115.5V120.5" stroke="#E8178A"/><path d="M209.184 71H204.193V69.9502L205.985 68.1387C206.516 67.5951 206.863 67.2191 207.025 67.0107C207.188 66.7992 207.305 66.6038 207.377 66.4248C207.449 66.2458 207.484 66.0602 207.484 65.8682C207.484 65.5817 207.405 65.3685 207.245 65.2285C207.089 65.0885 206.879 65.0186 206.615 65.0186C206.339 65.0186 206.07 65.082 205.81 65.209C205.549 65.3359 205.277 65.5166 204.994 65.751L204.174 64.7793C204.525 64.4798 204.817 64.2682 205.048 64.1445C205.279 64.0208 205.531 63.9264 205.805 63.8613C206.078 63.793 206.384 63.7588 206.723 63.7588C207.169 63.7588 207.562 63.8402 207.904 64.0029C208.246 64.1657 208.511 64.3936 208.7 64.6865C208.889 64.9795 208.983 65.3148 208.983 65.6924C208.983 66.0212 208.925 66.3304 208.808 66.6201C208.694 66.9066 208.515 67.2012 208.271 67.5039C208.03 67.8066 207.603 68.238 206.991 68.7979L206.073 69.6621V69.7305H209.184V71ZM214.857 67.4307C214.857 68.6774 214.652 69.6003 214.242 70.1992C213.835 70.7982 213.207 71.0977 212.357 71.0977C211.534 71.0977 210.912 70.7884 210.492 70.1699C210.076 69.5514 209.867 68.6383 209.867 67.4307C209.867 66.1709 210.071 65.2432 210.478 64.6475C210.884 64.0485 211.511 63.749 212.357 63.749C213.181 63.749 213.803 64.0615 214.223 64.6865C214.646 65.3115 214.857 66.2262 214.857 67.4307ZM211.366 67.4307C211.366 68.3063 211.441 68.9346 211.591 69.3154C211.744 69.693 211.999 69.8818 212.357 69.8818C212.709 69.8818 212.963 69.6898 213.119 69.3057C213.275 68.9215 213.354 68.2965 213.354 67.4307C213.354 66.555 213.274 65.9268 213.114 65.5459C212.958 65.1618 212.706 64.9697 212.357 64.9697C212.003 64.9697 211.749 65.1618 211.596 65.5459C211.443 65.9268 211.366 66.555 211.366 67.4307Z" fill="#E8178A"/><path d="M197.5 102.032V66.8411" stroke="#E8178A" stroke-width=".75"/><path d="M221.5 102.032V66.8411" stroke="#E8178A" stroke-width=".75"/><path d="M197.5 84.436H221.3" stroke="#E8178A" stroke-width=".75"/><path d="M511.705 35L509.643 28.2793H509.59C509.664 29.6465 509.701 30.5586 509.701 31.0156V35H508.078V26.4336H510.551L512.578 32.9844H512.613L514.764 26.4336H517.236V35H515.543V30.9453C515.543 30.7539 515.545 30.5332 515.549 30.2832C515.557 30.0332 515.584 29.3691 515.631 28.291H515.578L513.369 35H511.705ZM521.971 29.5977C521.592 29.5977 521.295 29.7188 521.08 29.9609C520.865 30.1992 520.742 30.5391 520.711 30.9805H523.219C523.211 30.5391 523.096 30.1992 522.873 29.9609C522.65 29.7188 522.35 29.5977 521.971 29.5977ZM522.223 35.1172C521.168 35.1172 520.344 34.8262 519.75 34.2441C519.156 33.6621 518.859 32.8379 518.859 31.7715C518.859 30.6738 519.133 29.8262 519.68 29.2285C520.23 28.627 520.99 28.3262 521.959 28.3262C522.885 28.3262 523.605 28.5898 524.121 29.1172C524.637 29.6445 524.895 30.373 524.895 31.3027V32.1699H520.67C520.689 32.6777 520.84 33.0742 521.121 33.3594C521.402 33.6445 521.797 33.7871 522.305 33.7871C522.699 33.7871 523.072 33.7461 523.424 33.6641C523.775 33.582 524.143 33.4512 524.525 33.2715V34.6543C524.213 34.8105 523.879 34.9258 523.523 35C523.168 35.0781 522.734 35.1172 522.223 35.1172ZM528.422 35.1172C527.652 35.1172 527.047 34.8184 526.605 34.2207C526.168 33.623 525.949 32.7949 525.949 31.7363C525.949 30.6621 526.172 29.8262 526.617 29.2285C527.066 28.627 527.684 28.3262 528.469 28.3262C529.293 28.3262 529.922 28.6465 530.355 29.2871H530.414C530.324 28.7988 530.279 28.3633 530.279 27.9805V25.8828H532.072V35H530.701L530.355 34.1504H530.279C529.873 34.7949 529.254 35.1172 528.422 35.1172ZM529.049 33.6934C529.506 33.6934 529.84 33.5605 530.051 33.2949C530.266 33.0293 530.383 32.5781 530.402 31.9414V31.748C530.402 31.0449 530.293 30.541 530.074 30.2363C529.859 29.9316 529.508 29.7793 529.02 29.7793C528.621 29.7793 528.311 29.9492 528.088 30.2891C527.869 30.625 527.76 31.1152 527.76 31.7598C527.76 32.4043 527.871 32.8887 528.094 33.2129C528.316 33.5332 528.635 33.6934 529.049 33.6934ZM533.865 26.7559C533.865 26.1738 534.189 25.8828 534.838 25.8828C535.486 25.8828 535.811 26.1738 535.811 26.7559C535.811 27.0332 535.729 27.25 535.564 27.4062C535.404 27.5586 535.162 27.6348 534.838 27.6348C534.189 27.6348 533.865 27.3418 533.865 26.7559ZM535.729 35H533.941V28.4492H535.729V35ZM542.25 35L542.01 34.1621H541.916C541.725 34.4668 541.453 34.7031 541.102 34.8711C540.75 35.0352 540.35 35.1172 539.9 35.1172C539.131 35.1172 538.551 34.9121 538.16 34.502C537.77 34.0879 537.574 33.4941 537.574 32.7207V28.4492H539.361V32.2754C539.361 32.748 539.445 33.1035 539.613 33.3418C539.781 33.5762 540.049 33.6934 540.416 33.6934C540.916 33.6934 541.277 33.5273 541.5 33.1953C541.723 32.8594 541.834 32.3047 541.834 31.5312V28.4492H543.621V35H542.25ZM551.361 35H549.574V31.1738C549.574 30.7012 549.494 30.3477 549.334 30.1133C549.178 29.875 548.93 29.7559 548.59 29.7559C548.133 29.7559 547.801 29.9238 547.594 30.2598C547.387 30.5957 547.283 31.1484 547.283 31.918V35H545.496V28.4492H546.861L547.102 29.2871H547.201C547.377 28.9863 547.631 28.752 547.963 28.584C548.295 28.4121 548.676 28.3262 549.105 28.3262C550.086 28.3262 550.75 28.6465 551.098 29.2871H551.256C551.432 28.9824 551.689 28.7461 552.029 28.5781C552.373 28.4102 552.76 28.3262 553.189 28.3262C553.932 28.3262 554.492 28.5176 554.871 28.9004C555.254 29.2793 555.445 29.8887 555.445 30.7285V35H553.652V31.1738C553.652 30.7012 553.572 30.3477 553.412 30.1133C553.256 29.875 553.008 29.7559 552.668 29.7559C552.23 29.7559 551.902 29.9121 551.684 30.2246C551.469 30.5371 551.361 31.0332 551.361 31.7129V35ZM559.945 31.7129C559.945 30.6777 560.096 29.709 560.396 28.8066C560.701 27.9043 561.139 27.1133 561.709 26.4336H563.174C562.623 27.1875 562.207 28.0156 561.926 28.918C561.645 29.8203 561.504 30.748 561.504 31.7012C561.504 32.6582 561.646 33.584 561.932 34.4785C562.221 35.3691 562.631 36.1758 563.162 36.8984H561.709C561.135 36.2344 560.697 35.459 560.396 34.5723C560.096 33.6855 559.945 32.7324 559.945 31.7129ZM571.717 30.6348C571.717 32.0449 571.314 33.125 570.51 33.875C569.709 34.625 568.551 35 567.035 35H564.609V26.4336H567.299C568.697 26.4336 569.783 26.8027 570.557 27.541C571.33 28.2793 571.717 29.3105 571.717 30.6348ZM569.83 30.6816C569.83 28.8418 569.018 27.9219 567.393 27.9219H566.426V33.5H567.205C568.955 33.5 569.83 32.5605 569.83 30.6816ZM576.064 29.5977C575.686 29.5977 575.389 29.7188 575.174 29.9609C574.959 30.1992 574.836 30.5391 574.805 30.9805H577.312C577.305 30.5391 577.189 30.1992 576.967 29.9609C576.744 29.7188 576.443 29.5977 576.064 29.5977ZM576.316 35.1172C575.262 35.1172 574.438 34.8262 573.844 34.2441C573.25 33.6621 572.953 32.8379 572.953 31.7715C572.953 30.6738 573.227 29.8262 573.773 29.2285C574.324 28.627 575.084 28.3262 576.053 28.3262C576.979 28.3262 577.699 28.5898 578.215 29.1172C578.73 29.6445 578.988 30.373 578.988 31.3027V32.1699H574.764C574.783 32.6777 574.934 33.0742 575.215 33.3594C575.496 33.6445 575.891 33.7871 576.398 33.7871C576.793 33.7871 577.166 33.7461 577.518 33.6641C577.869 33.582 578.236 33.4512 578.619 33.2715V34.6543C578.307 34.8105 577.973 34.9258 577.617 35C577.262 35.0781 576.828 35.1172 576.316 35.1172ZM584.062 29.791H582.516V35H580.729V29.791H579.744V28.9297L580.729 28.4492V27.9688C580.729 27.2227 580.912 26.6777 581.279 26.334C581.646 25.9902 582.234 25.8184 583.043 25.8184C583.66 25.8184 584.209 25.9102 584.689 26.0938L584.232 27.4062C583.873 27.293 583.541 27.2363 583.236 27.2363C582.982 27.2363 582.799 27.3125 582.686 27.4648C582.572 27.6133 582.516 27.8047 582.516 28.0391V28.4492H584.062V29.791ZM589.254 35L588.908 34.1094H588.861C588.561 34.4883 588.25 34.752 587.93 34.9004C587.613 35.0449 587.199 35.1172 586.688 35.1172C586.059 35.1172 585.562 34.9375 585.199 34.5781C584.84 34.2188 584.66 33.707 584.66 33.043C584.66 32.3477 584.902 31.8359 585.387 31.5078C585.875 31.1758 586.609 30.9922 587.59 30.957L588.727 30.9219V30.6348C588.727 29.9707 588.387 29.6387 587.707 29.6387C587.184 29.6387 586.568 29.7969 585.861 30.1133L585.27 28.9062C586.023 28.5117 586.859 28.3145 587.777 28.3145C588.656 28.3145 589.33 28.5059 589.799 28.8887C590.268 29.2715 590.502 29.8535 590.502 30.6348V35H589.254ZM588.727 31.9648L588.035 31.9883C587.516 32.0039 587.129 32.0977 586.875 32.2695C586.621 32.4414 586.494 32.7031 586.494 33.0547C586.494 33.5586 586.783 33.8105 587.361 33.8105C587.775 33.8105 588.105 33.6914 588.352 33.4531C588.602 33.2148 588.727 32.8984 588.727 32.5039V31.9648ZM596.988 35L596.748 34.1621H596.654C596.463 34.4668 596.191 34.7031 595.84 34.8711C595.488 35.0352 595.088 35.1172 594.639 35.1172C593.869 35.1172 593.289 34.9121 592.898 34.502C592.508 34.0879 592.312 33.4941 592.312 32.7207V28.4492H594.1V32.2754C594.1 32.748 594.184 33.1035 594.352 33.3418C594.52 33.5762 594.787 33.6934 595.154 33.6934C595.654 33.6934 596.016 33.5273 596.238 33.1953C596.461 32.8594 596.572 32.3047 596.572 31.5312V28.4492H598.359V35H596.988ZM602.021 35H600.234V25.8828H602.021V35ZM606.662 33.6934C606.975 33.6934 607.35 33.625 607.787 33.4883V34.8184C607.342 35.0176 606.795 35.1172 606.146 35.1172C605.432 35.1172 604.91 34.9375 604.582 34.5781C604.258 34.2148 604.096 33.6719 604.096 32.9492V29.791H603.24V29.0352L604.225 28.4375L604.74 27.0547H605.883V28.4492H607.717V29.791H605.883V32.9492C605.883 33.2031 605.953 33.3906 606.094 33.5117C606.238 33.6328 606.428 33.6934 606.662 33.6934ZM611.766 31.7129C611.766 32.7402 611.613 33.6973 611.309 34.584C611.008 35.4707 610.572 36.2422 610.002 36.8984H608.549C609.076 36.1797 609.484 35.375 609.773 34.4844C610.062 33.5898 610.207 32.6621 610.207 31.7012C610.207 30.748 610.066 29.8203 609.785 28.918C609.504 28.0156 609.088 27.1875 608.537 26.4336H610.002C610.576 27.1172 611.014 27.9121 611.314 28.8184C611.615 29.7207 611.766 30.6855 611.766 31.7129Z" fill="#B7B9C3"/><path d="M769 114H545C542.791 114 541 115.791 541 118C541 120.209 542.791 122 545 122H769C771.209 122 773 120.209 773 118C773 115.791 771.209 114 769 114Z" fill="#6A6E79"/><path d="M680 114H545C542.791 114 541 115.791 541 118C541 120.209 542.791 122 545 122H680C682.209 122 684 120.209 684 118C684 115.791 682.209 114 680 114Z" fill="#019AEB"/><path d="M686 130C692.627 130 698 124.627 698 118C698 111.373 692.627 106 686 106C679.373 106 674 111.373 674 118C674 124.627 679.373 130 686 130Z" fill="#fff"/><path d="M686 129C692.075 129 697 124.075 697 118C697 111.925 692.075 107 686 107C679.925 107 675 111.925 675 118C675 124.075 679.925 129 686 129Z" stroke="#217CBB" stroke-width="2"/><path d="M542.078 99V90.4336H543.895V97.5H547.369V99H542.078ZM552.883 99L552.537 98.1094H552.49C552.189 98.4883 551.879 98.752 551.559 98.9004C551.242 99.0449 550.828 99.1172 550.316 99.1172C549.688 99.1172 549.191 98.9375 548.828 98.5781C548.469 98.2188 548.289 97.707 548.289 97.043C548.289 96.3477 548.531 95.8359 549.016 95.5078C549.504 95.1758 550.238 94.9922 551.219 94.957L552.355 94.9219V94.6348C552.355 93.9707 552.016 93.6387 551.336 93.6387C550.812 93.6387 550.197 93.7969 549.49 94.1133L548.898 92.9062C549.652 92.5117 550.488 92.3145 551.406 92.3145C552.285 92.3145 552.959 92.5059 553.428 92.8887C553.896 93.2715 554.131 93.8535 554.131 94.6348V99H552.883ZM552.355 95.9648L551.664 95.9883C551.145 96.0039 550.758 96.0977 550.504 96.2695C550.25 96.4414 550.123 96.7031 550.123 97.0547C550.123 97.5586 550.412 97.8105 550.99 97.8105C551.404 97.8105 551.734 97.6914 551.98 97.4531C552.23 97.2148 552.355 96.8984 552.355 96.5039V95.9648ZM559.621 92.3262C560.395 92.3262 561 92.6289 561.438 93.2344C561.875 93.8359 562.094 94.6621 562.094 95.7129C562.094 96.7949 561.867 97.6328 561.414 98.2266C560.965 98.8203 560.352 99.1172 559.574 99.1172C558.805 99.1172 558.201 98.8379 557.764 98.2793H557.641L557.342 99H555.977V89.8828H557.764V92.0039C557.764 92.2734 557.74 92.7051 557.693 93.2988H557.764C558.182 92.6504 558.801 92.3262 559.621 92.3262ZM559.047 93.7559C558.605 93.7559 558.283 93.8926 558.08 94.166C557.877 94.4355 557.771 94.8828 557.764 95.5078V95.7012C557.764 96.4043 557.867 96.9082 558.074 97.2129C558.285 97.5176 558.617 97.6699 559.07 97.6699C559.438 97.6699 559.729 97.502 559.943 97.166C560.162 96.8262 560.271 96.334 560.271 95.6895C560.271 95.0449 560.162 94.5625 559.943 94.2422C559.725 93.918 559.426 93.7559 559.047 93.7559ZM566.283 93.5977C565.904 93.5977 565.607 93.7188 565.393 93.9609C565.178 94.1992 565.055 94.5391 565.023 94.9805H567.531C567.523 94.5391 567.408 94.1992 567.186 93.9609C566.963 93.7188 566.662 93.5977 566.283 93.5977ZM566.535 99.1172C565.48 99.1172 564.656 98.8262 564.062 98.2441C563.469 97.6621 563.172 96.8379 563.172 95.7715C563.172 94.6738 563.445 93.8262 563.992 93.2285C564.543 92.627 565.303 92.3262 566.271 92.3262C567.197 92.3262 567.918 92.5898 568.434 93.1172C568.949 93.6445 569.207 94.373 569.207 95.3027V96.1699H564.982C565.002 96.6777 565.152 97.0742 565.434 97.3594C565.715 97.6445 566.109 97.7871 566.617 97.7871C567.012 97.7871 567.385 97.7461 567.736 97.6641C568.088 97.582 568.455 97.4512 568.838 97.2715V98.6543C568.525 98.8105 568.191 98.9258 567.836 99C567.48 99.0781 567.047 99.1172 566.535 99.1172ZM572.447 99H570.66V89.8828H572.447V99Z" fill="#fff"/><path d="M510.008 114.269C510.691 114.269 511.242 114.425 511.658 114.737C512.078 115.047 512.288 115.465 512.288 115.992C512.288 116.357 512.187 116.682 511.985 116.969C511.784 117.252 511.458 117.506 511.009 117.73C511.543 118.017 511.925 118.316 512.156 118.629C512.391 118.938 512.508 119.278 512.508 119.649C512.508 120.235 512.278 120.707 511.819 121.065C511.36 121.42 510.757 121.598 510.008 121.598C509.227 121.598 508.613 121.432 508.167 121.1C507.721 120.768 507.498 120.297 507.498 119.688C507.498 119.282 507.605 118.92 507.82 118.604C508.038 118.289 508.387 118.01 508.865 117.77C508.458 117.512 508.165 117.237 507.986 116.944C507.807 116.651 507.718 116.331 507.718 115.982C507.718 115.471 507.929 115.058 508.353 114.742C508.776 114.426 509.327 114.269 510.008 114.269ZM508.895 119.601C508.895 119.881 508.992 120.099 509.188 120.255C509.383 120.411 509.65 120.489 509.988 120.489C510.363 120.489 510.643 120.41 510.828 120.25C511.014 120.087 511.106 119.874 511.106 119.61C511.106 119.392 511.014 119.189 510.828 119C510.646 118.808 510.348 118.604 509.935 118.39C509.241 118.709 508.895 119.112 508.895 119.601ZM509.998 115.372C509.741 115.372 509.533 115.439 509.373 115.572C509.217 115.702 509.139 115.878 509.139 116.1C509.139 116.295 509.201 116.471 509.324 116.627C509.451 116.78 509.679 116.938 510.008 117.101C510.327 116.951 510.55 116.798 510.677 116.642C510.804 116.485 510.867 116.305 510.867 116.1C510.867 115.875 510.786 115.698 510.623 115.567C510.46 115.437 510.252 115.372 509.998 115.372Z" fill="#E8178A"/><path d="M536.501 122H514.668" stroke="#E8178A"/><path d="M536.501 113H514.668" stroke="#E8178A"/><path d="M522.5 113.5V122" stroke="#E8178A"/><path d="M685.184 71H680.193V69.9502L681.985 68.1387C682.516 67.5951 682.863 67.2191 683.025 67.0107C683.188 66.7992 683.305 66.6038 683.377 66.4248C683.449 66.2458 683.484 66.0602 683.484 65.8682C683.484 65.5817 683.405 65.3685 683.245 65.2285C683.089 65.0885 682.879 65.0186 682.615 65.0186C682.339 65.0186 682.07 65.082 681.81 65.209C681.549 65.3359 681.277 65.5166 680.994 65.751L680.174 64.7793C680.525 64.4798 680.817 64.2682 681.048 64.1445C681.279 64.0208 681.531 63.9264 681.805 63.8613C682.078 63.793 682.384 63.7588 682.723 63.7588C683.169 63.7588 683.562 63.8402 683.904 64.0029C684.246 64.1657 684.511 64.3936 684.7 64.6865C684.889 64.9795 684.983 65.3148 684.983 65.6924C684.983 66.0212 684.925 66.3304 684.808 66.6201C684.694 66.9066 684.515 67.2012 684.271 67.5039C684.03 67.8066 683.603 68.238 682.991 68.7979L682.073 69.6621V69.7305H685.184V71ZM691.058 69.5205H690.198V71H688.724V69.5205H685.677V68.4707L688.807 63.8613H690.198V68.3486H691.058V69.5205ZM688.724 68.3486V67.1377C688.724 66.9359 688.732 66.6429 688.748 66.2588C688.764 65.8747 688.777 65.6517 688.787 65.5898H688.748C688.628 65.8568 688.483 66.1172 688.313 66.3711L687.005 68.3486H688.724Z" fill="#E8178A"/><path d="M673.5 102.032V66.8411" stroke="#E8178A" stroke-width=".75"/><path d="M697.5 102.032V66.8411" stroke="#E8178A" stroke-width=".75"/><path d="M673.5 84.436H697.3" stroke="#E8178A" stroke-width=".75"/><path d="M962 173H0V344H962V173Z" fill="#252A2E"/><path d="M34.0781 219V210.434H35.8945V217.5H39.3691V219H34.0781ZM44.8828 219L44.5371 218.109H44.4902C44.1895 218.488 43.8789 218.752 43.5586 218.9C43.2422 219.045 42.8281 219.117 42.3164 219.117C41.6875 219.117 41.1914 218.938 40.8281 218.578C40.4688 218.219 40.2891 217.707 40.2891 217.043C40.2891 216.348 40.5312 215.836 41.0156 215.508C41.5039 215.176 42.2383 214.992 43.2188 214.957L44.3555 214.922V214.635C44.3555 213.971 44.0156 213.639 43.3359 213.639C42.8125 213.639 42.1973 213.797 41.4902 214.113L40.8984 212.906C41.6523 212.512 42.4883 212.314 43.4062 212.314C44.2852 212.314 44.959 212.506 45.4277 212.889C45.8965 213.271 46.1309 213.854 46.1309 214.635V219H44.8828ZM44.3555 215.965L43.6641 215.988C43.1445 216.004 42.7578 216.098 42.5039 216.27C42.25 216.441 42.123 216.703 42.123 217.055C42.123 217.559 42.4121 217.811 42.9902 217.811C43.4043 217.811 43.7344 217.691 43.9805 217.453C44.2305 217.215 44.3555 216.898 44.3555 216.504V215.965ZM51.6328 212.326C51.875 212.326 52.0762 212.344 52.2363 212.379L52.1016 214.055C51.957 214.016 51.7812 213.996 51.5742 213.996C51.0039 213.996 50.5586 214.143 50.2383 214.436C49.9219 214.729 49.7637 215.139 49.7637 215.666V219H47.9766V212.449H49.3301L49.5938 213.551H49.6816C49.8848 213.184 50.1582 212.889 50.502 212.666C50.8496 212.439 51.2266 212.326 51.6328 212.326ZM59.127 212.449V213.357L58.1016 213.621C58.2891 213.914 58.3828 214.242 58.3828 214.605C58.3828 215.309 58.1367 215.857 57.6445 216.252C57.1562 216.643 56.4766 216.838 55.6055 216.838L55.2832 216.82L55.0195 216.791C54.8359 216.932 54.7441 217.088 54.7441 217.26C54.7441 217.518 55.0723 217.646 55.7285 217.646H56.8418C57.5605 217.646 58.1074 217.801 58.4824 218.109C58.8613 218.418 59.0508 218.871 59.0508 219.469C59.0508 220.234 58.7305 220.828 58.0898 221.25C57.4531 221.672 56.5371 221.883 55.3418 221.883C54.4277 221.883 53.7285 221.723 53.2441 221.402C52.7637 221.086 52.5234 220.641 52.5234 220.066C52.5234 219.672 52.6465 219.342 52.8926 219.076C53.1387 218.811 53.5 218.621 53.9766 218.508C53.793 218.43 53.6328 218.303 53.4961 218.127C53.3594 217.947 53.291 217.758 53.291 217.559C53.291 217.309 53.3633 217.102 53.5078 216.938C53.6523 216.77 53.8613 216.605 54.1348 216.445C53.791 216.297 53.5176 216.059 53.3145 215.73C53.1152 215.402 53.0156 215.016 53.0156 214.57C53.0156 213.855 53.248 213.303 53.7129 212.912C54.1777 212.521 54.8418 212.326 55.7051 212.326C55.8887 212.326 56.1055 212.344 56.3555 212.379C56.6094 212.41 56.7715 212.434 56.8418 212.449H59.127ZM54.0703 219.926C54.0703 220.172 54.1875 220.365 54.4219 220.506C54.6602 220.646 54.9922 220.717 55.418 220.717C56.0586 220.717 56.5605 220.629 56.9238 220.453C57.2871 220.277 57.4688 220.037 57.4688 219.732C57.4688 219.486 57.3613 219.316 57.1465 219.223C56.9316 219.129 56.5996 219.082 56.1504 219.082H55.2246C54.8965 219.082 54.6211 219.158 54.3984 219.311C54.1797 219.467 54.0703 219.672 54.0703 219.926ZM54.7207 214.594C54.7207 214.949 54.8008 215.23 54.9609 215.438C55.125 215.645 55.373 215.748 55.7051 215.748C56.041 215.748 56.2871 215.645 56.4434 215.438C56.5996 215.23 56.6777 214.949 56.6777 214.594C56.6777 213.805 56.3535 213.41 55.7051 213.41C55.0488 213.41 54.7207 213.805 54.7207 214.594ZM62.9238 213.598C62.5449 213.598 62.248 213.719 62.0332 213.961C61.8184 214.199 61.6953 214.539 61.6641 214.98H64.1719C64.1641 214.539 64.0488 214.199 63.8262 213.961C63.6035 213.719 63.3027 213.598 62.9238 213.598ZM63.1758 219.117C62.1211 219.117 61.2969 218.826 60.7031 218.244C60.1094 217.662 59.8125 216.838 59.8125 215.771C59.8125 214.674 60.0859 213.826 60.6328 213.229C61.1836 212.627 61.9434 212.326 62.9121 212.326C63.8379 212.326 64.5586 212.59 65.0742 213.117C65.5898 213.645 65.8477 214.373 65.8477 215.303V216.17H61.623C61.6426 216.678 61.793 217.074 62.0742 217.359C62.3555 217.645 62.75 217.787 63.2578 217.787C63.6523 217.787 64.0254 217.746 64.377 217.664C64.7285 217.582 65.0957 217.451 65.4785 217.271V218.654C65.166 218.811 64.832 218.926 64.4766 219C64.1211 219.078 63.6875 219.117 63.1758 219.117Z" fill="#B7B9C3"/><path d="M482.405 206.941C482.405 207.387 482.27 207.766 482 208.079C481.73 208.391 481.351 208.606 480.862 208.723V208.753C481.438 208.824 481.875 209 482.171 209.28C482.467 209.557 482.615 209.931 482.615 210.403C482.615 211.09 482.366 211.625 481.868 212.009C481.37 212.39 480.659 212.581 479.734 212.581C478.96 212.581 478.273 212.452 477.674 212.195V210.911C477.951 211.051 478.255 211.165 478.587 211.253C478.919 211.34 479.248 211.384 479.573 211.384C480.071 211.384 480.439 211.3 480.677 211.13C480.914 210.961 481.033 210.689 481.033 210.315C481.033 209.98 480.896 209.742 480.623 209.602C480.35 209.462 479.913 209.392 479.314 209.392H478.772V208.235H479.324C479.878 208.235 480.281 208.163 480.535 208.02C480.792 207.874 480.921 207.625 480.921 207.273C480.921 206.733 480.582 206.463 479.905 206.463C479.671 206.463 479.432 206.502 479.188 206.58C478.947 206.658 478.678 206.793 478.382 206.985L477.684 205.945C478.335 205.476 479.111 205.242 480.013 205.242C480.752 205.242 481.334 205.392 481.761 205.691C482.19 205.991 482.405 206.407 482.405 206.941ZM488.396 212.483H483.406V211.433L485.198 209.622C485.729 209.078 486.076 208.702 486.238 208.494C486.401 208.282 486.518 208.087 486.59 207.908C486.661 207.729 486.697 207.543 486.697 207.351C486.697 207.065 486.618 206.852 486.458 206.712C486.302 206.572 486.092 206.502 485.828 206.502C485.551 206.502 485.283 206.565 485.022 206.692C484.762 206.819 484.49 207 484.207 207.234L483.387 206.262C483.738 205.963 484.03 205.751 484.261 205.628C484.492 205.504 484.744 205.409 485.018 205.344C485.291 205.276 485.597 205.242 485.936 205.242C486.382 205.242 486.775 205.323 487.117 205.486C487.459 205.649 487.724 205.877 487.913 206.17C488.102 206.463 488.196 206.798 488.196 207.175C488.196 207.504 488.138 207.813 488.021 208.103C487.907 208.39 487.728 208.684 487.483 208.987C487.243 209.29 486.816 209.721 486.204 210.281L485.286 211.145V211.214H488.396V212.483Z" fill="#E8178A"/><path d="M471 243.515V208.324" stroke="#E8178A" stroke-width=".75"/><path d="M495 243.515V208.324" stroke="#E8178A" stroke-width=".75"/><path d="M471 225.919H494.8" stroke="#E8178A" stroke-width=".75"/><path d="M315.738 264.5H314.531V261.195L314.543 260.652L314.562 260.059C314.362 260.259 314.223 260.391 314.145 260.453L313.488 260.98L312.906 260.254L314.746 258.789H315.738V264.5ZM321.316 264.5H317.324V263.66L318.758 262.211C319.182 261.776 319.46 261.475 319.59 261.309C319.72 261.139 319.814 260.983 319.871 260.84C319.928 260.697 319.957 260.548 319.957 260.395C319.957 260.165 319.893 259.995 319.766 259.883C319.641 259.771 319.473 259.715 319.262 259.715C319.04 259.715 318.826 259.766 318.617 259.867C318.409 259.969 318.191 260.113 317.965 260.301L317.309 259.523C317.59 259.284 317.823 259.115 318.008 259.016C318.193 258.917 318.395 258.841 318.613 258.789C318.832 258.734 319.077 258.707 319.348 258.707C319.704 258.707 320.02 258.772 320.293 258.902C320.566 259.033 320.779 259.215 320.93 259.449C321.081 259.684 321.156 259.952 321.156 260.254C321.156 260.517 321.109 260.764 321.016 260.996C320.924 261.225 320.781 261.461 320.586 261.703C320.393 261.945 320.052 262.29 319.562 262.738L318.828 263.43V263.484H321.316V264.5Z" fill="#E8178A"/><path d="M341.58 266.5H322.666" stroke="#E8178A"/><path d="M341.58 254.5H322.666" stroke="#E8178A"/><path d="M329.451 254.5V266.5" stroke="#E8178A"/><path d="M623 254H346C342.686 254 340 256.686 340 260C340 263.314 342.686 266 346 266H623C626.314 266 629 263.314 629 260C629 256.686 626.314 254 623 254Z" fill="#6A6E79"/><path d="M477 254H346C342.686 254 340 256.686 340 260C340 263.314 342.686 266 346 266H477C480.314 266 483 263.314 483 260C483 256.686 480.314 254 477 254Z" fill="#019AEB"/><path d="M483 276C491.837 276 499 268.837 499 260C499 251.163 491.837 244 483 244C474.163 244 467 251.163 467 260C467 268.837 474.163 276 483 276Z" fill="#fff"/><path d="M483 274.5C491.008 274.5 497.5 268.008 497.5 260C497.5 251.992 491.008 245.5 483 245.5C474.992 245.5 468.5 251.992 468.5 260C468.5 268.008 474.992 274.5 483 274.5Z" stroke="#217CBB" stroke-width="3"/><path d="M341.078 239V230.434H342.895V237.5H346.369V239H341.078ZM351.883 239L351.537 238.109H351.49C351.189 238.488 350.879 238.752 350.559 238.9C350.242 239.045 349.828 239.117 349.316 239.117C348.688 239.117 348.191 238.938 347.828 238.578C347.469 238.219 347.289 237.707 347.289 237.043C347.289 236.348 347.531 235.836 348.016 235.508C348.504 235.176 349.238 234.992 350.219 234.957L351.355 234.922V234.635C351.355 233.971 351.016 233.639 350.336 233.639C349.812 233.639 349.197 233.797 348.49 234.113L347.898 232.906C348.652 232.512 349.488 232.314 350.406 232.314C351.285 232.314 351.959 232.506 352.428 232.889C352.896 233.271 353.131 233.854 353.131 234.635V239H351.883ZM351.355 235.965L350.664 235.988C350.145 236.004 349.758 236.098 349.504 236.27C349.25 236.441 349.123 236.703 349.123 237.055C349.123 237.559 349.412 237.811 349.99 237.811C350.404 237.811 350.734 237.691 350.98 237.453C351.23 237.215 351.355 236.898 351.355 236.504V235.965ZM358.621 232.326C359.395 232.326 360 232.629 360.438 233.234C360.875 233.836 361.094 234.662 361.094 235.713C361.094 236.795 360.867 237.633 360.414 238.227C359.965 238.82 359.352 239.117 358.574 239.117C357.805 239.117 357.201 238.838 356.764 238.279H356.641L356.342 239H354.977V229.883H356.764V232.004C356.764 232.273 356.74 232.705 356.693 233.299H356.764C357.182 232.65 357.801 232.326 358.621 232.326ZM358.047 233.756C357.605 233.756 357.283 233.893 357.08 234.166C356.877 234.436 356.771 234.883 356.764 235.508V235.701C356.764 236.404 356.867 236.908 357.074 237.213C357.285 237.518 357.617 237.67 358.07 237.67C358.438 237.67 358.729 237.502 358.943 237.166C359.162 236.826 359.271 236.334 359.271 235.689C359.271 235.045 359.162 234.562 358.943 234.242C358.725 233.918 358.426 233.756 358.047 233.756ZM365.283 233.598C364.904 233.598 364.607 233.719 364.393 233.961C364.178 234.199 364.055 234.539 364.023 234.98H366.531C366.523 234.539 366.408 234.199 366.186 233.961C365.963 233.719 365.662 233.598 365.283 233.598ZM365.535 239.117C364.48 239.117 363.656 238.826 363.062 238.244C362.469 237.662 362.172 236.838 362.172 235.771C362.172 234.674 362.445 233.826 362.992 233.229C363.543 232.627 364.303 232.326 365.271 232.326C366.197 232.326 366.918 232.59 367.434 233.117C367.949 233.645 368.207 234.373 368.207 235.303V236.17H363.982C364.002 236.678 364.152 237.074 364.434 237.359C364.715 237.645 365.109 237.787 365.617 237.787C366.012 237.787 366.385 237.746 366.736 237.664C367.088 237.582 367.455 237.451 367.838 237.271V238.654C367.525 238.811 367.191 238.926 366.836 239C366.48 239.078 366.047 239.117 365.535 239.117ZM371.447 239H369.66V229.883H371.447V239Z" fill="#fff"/><path d="M290 116H67C65.8954 116 65 116.895 65 118C65 119.105 65.8954 120 67 120H290C291.105 120 292 119.105 292 118C292 116.895 291.105 116 290 116Z" fill="#6A6E79"/><path d="M206 116H67C65.8954 116 65 116.895 65 118C65 119.105 65.8954 120 67 120H206C207.105 120 208 119.105 208 118C208 116.895 207.105 116 206 116Z" fill="#019AEB"/><path d="M208 128C213.523 128 218 123.523 218 118C218 112.477 213.523 108 208 108C202.477 108 198 112.477 198 118C198 123.523 202.477 128 208 128Z" fill="#fff"/><path d="M208 127C212.971 127 217 122.971 217 118C217 113.029 212.971 109 208 109C203.029 109 199 113.029 199 118C199 122.971 203.029 127 208 127Z" stroke="#217CBB" stroke-width="2"/><path d="M66.0781 105V96.4336H67.8945V103.5H71.3691V105H66.0781ZM76.8828 105L76.5371 104.109H76.4902C76.1895 104.488 75.8789 104.752 75.5586 104.9C75.2422 105.045 74.8281 105.117 74.3164 105.117C73.6875 105.117 73.1914 104.938 72.8281 104.578C72.4688 104.219 72.2891 103.707 72.2891 103.043C72.2891 102.348 72.5312 101.836 73.0156 101.508C73.5039 101.176 74.2383 100.992 75.2188 100.957L76.3555 100.922V100.635C76.3555 99.9707 76.0156 99.6387 75.3359 99.6387C74.8125 99.6387 74.1973 99.7969 73.4902 100.113L72.8984 98.9062C73.6523 98.5117 74.4883 98.3145 75.4062 98.3145C76.2852 98.3145 76.959 98.5059 77.4277 98.8887C77.8965 99.2715 78.1309 99.8535 78.1309 100.635V105H76.8828ZM76.3555 101.965L75.6641 101.988C75.1445 102.004 74.7578 102.098 74.5039 102.27C74.25 102.441 74.123 102.703 74.123 103.055C74.123 103.559 74.4121 103.811 74.9902 103.811C75.4043 103.811 75.7344 103.691 75.9805 103.453C76.2305 103.215 76.3555 102.898 76.3555 102.504V101.965ZM83.6211 98.3262C84.3945 98.3262 85 98.6289 85.4375 99.2344C85.875 99.8359 86.0938 100.662 86.0938 101.713C86.0938 102.795 85.8672 103.633 85.4141 104.227C84.9648 104.82 84.3516 105.117 83.5742 105.117C82.8047 105.117 82.2012 104.838 81.7637 104.279H81.6406L81.3418 105H79.9766V95.8828H81.7637V98.0039C81.7637 98.2734 81.7402 98.7051 81.6934 99.2988H81.7637C82.1816 98.6504 82.8008 98.3262 83.6211 98.3262ZM83.0469 99.7559C82.6055 99.7559 82.2832 99.8926 82.0801 100.166C81.877 100.436 81.7715 100.883 81.7637 101.508V101.701C81.7637 102.404 81.8672 102.908 82.0742 103.213C82.2852 103.518 82.6172 103.67 83.0703 103.67C83.4375 103.67 83.7285 103.502 83.9434 103.166C84.1621 102.826 84.2715 102.334 84.2715 101.689C84.2715 101.045 84.1621 100.562 83.9434 100.242C83.7246 99.918 83.4258 99.7559 83.0469 99.7559ZM90.2832 99.5977C89.9043 99.5977 89.6074 99.7188 89.3926 99.9609C89.1777 100.199 89.0547 100.539 89.0234 100.98H91.5312C91.5234 100.539 91.4082 100.199 91.1855 99.9609C90.9629 99.7188 90.6621 99.5977 90.2832 99.5977ZM90.5352 105.117C89.4805 105.117 88.6562 104.826 88.0625 104.244C87.4688 103.662 87.1719 102.838 87.1719 101.771C87.1719 100.674 87.4453 99.8262 87.9922 99.2285C88.543 98.627 89.3027 98.3262 90.2715 98.3262C91.1973 98.3262 91.918 98.5898 92.4336 99.1172C92.9492 99.6445 93.207 100.373 93.207 101.303V102.17H88.9824C89.002 102.678 89.1523 103.074 89.4336 103.359C89.7148 103.645 90.1094 103.787 90.6172 103.787C91.0117 103.787 91.3848 103.746 91.7363 103.664C92.0879 103.582 92.4551 103.451 92.8379 103.271V104.654C92.5254 104.811 92.1914 104.926 91.8359 105C91.4805 105.078 91.0469 105.117 90.5352 105.117ZM96.4473 105H94.6602V95.8828H96.4473V105Z" fill="#fff"/><path d="M821.865 149H820.078V140.434H824.988V141.922H821.865V144.131H824.771V145.613H821.865V149ZM827.947 145.713C827.947 146.361 828.053 146.852 828.264 147.184C828.479 147.516 828.826 147.682 829.307 147.682C829.783 147.682 830.125 147.518 830.332 147.189C830.543 146.857 830.648 146.365 830.648 145.713C830.648 145.064 830.543 144.578 830.332 144.254C830.121 143.93 829.775 143.768 829.295 143.768C828.818 143.768 828.475 143.93 828.264 144.254C828.053 144.574 827.947 145.061 827.947 145.713ZM832.477 145.713C832.477 146.779 832.195 147.613 831.633 148.215C831.07 148.816 830.287 149.117 829.283 149.117C828.654 149.117 828.1 148.98 827.619 148.707C827.139 148.43 826.77 148.033 826.512 147.518C826.254 147.002 826.125 146.4 826.125 145.713C826.125 144.643 826.404 143.811 826.963 143.217C827.521 142.623 828.307 142.326 829.318 142.326C829.947 142.326 830.502 142.463 830.982 142.736C831.463 143.01 831.832 143.402 832.09 143.914C832.348 144.426 832.477 145.025 832.477 145.713ZM836.613 149.117C834.574 149.117 833.555 147.998 833.555 145.76C833.555 144.646 833.832 143.797 834.387 143.211C834.941 142.621 835.736 142.326 836.771 142.326C837.529 142.326 838.209 142.475 838.811 142.771L838.283 144.154C838.002 144.041 837.74 143.949 837.498 143.879C837.256 143.805 837.014 143.768 836.771 143.768C835.842 143.768 835.377 144.428 835.377 145.748C835.377 147.029 835.842 147.67 836.771 147.67C837.115 147.67 837.434 147.625 837.727 147.535C838.02 147.441 838.312 147.297 838.605 147.102V148.631C838.316 148.814 838.023 148.941 837.727 149.012C837.434 149.082 837.062 149.117 836.613 149.117ZM844.77 149L844.529 148.162H844.436C844.244 148.467 843.973 148.703 843.621 148.871C843.27 149.035 842.869 149.117 842.42 149.117C841.65 149.117 841.07 148.912 840.68 148.502C840.289 148.088 840.094 147.494 840.094 146.721V142.449H841.881V146.275C841.881 146.748 841.965 147.104 842.133 147.342C842.301 147.576 842.568 147.693 842.936 147.693C843.436 147.693 843.797 147.527 844.02 147.195C844.242 146.859 844.354 146.305 844.354 145.531V142.449H846.141V149H844.77ZM852.586 147.055C852.586 147.727 852.352 148.238 851.883 148.59C851.418 148.941 850.721 149.117 849.791 149.117C849.314 149.117 848.908 149.084 848.572 149.018C848.236 148.955 847.922 148.861 847.629 148.736V147.26C847.961 147.416 848.334 147.547 848.748 147.652C849.166 147.758 849.533 147.811 849.85 147.811C850.498 147.811 850.822 147.623 850.822 147.248C850.822 147.107 850.779 146.994 850.693 146.908C850.607 146.818 850.459 146.719 850.248 146.609C850.037 146.496 849.756 146.365 849.404 146.217C848.9 146.006 848.529 145.811 848.291 145.631C848.057 145.451 847.885 145.246 847.775 145.016C847.67 144.781 847.617 144.494 847.617 144.154C847.617 143.572 847.842 143.123 848.291 142.807C848.744 142.486 849.385 142.326 850.213 142.326C851.002 142.326 851.77 142.498 852.516 142.842L851.977 144.131C851.648 143.99 851.342 143.875 851.057 143.785C850.771 143.695 850.48 143.65 850.184 143.65C849.656 143.65 849.393 143.793 849.393 144.078C849.393 144.238 849.477 144.377 849.645 144.494C849.816 144.611 850.189 144.785 850.764 145.016C851.275 145.223 851.65 145.416 851.889 145.596C852.127 145.775 852.303 145.982 852.416 146.217C852.529 146.451 852.586 146.73 852.586 147.055ZM857.941 140.434L854.748 149H853.125L856.318 140.434H857.941ZM861.697 147.693C862.01 147.693 862.385 147.625 862.822 147.488V148.818C862.377 149.018 861.83 149.117 861.182 149.117C860.467 149.117 859.945 148.938 859.617 148.578C859.293 148.215 859.131 147.672 859.131 146.949V143.791H858.275V143.035L859.26 142.438L859.775 141.055H860.918V142.449H862.752V143.791H860.918V146.949C860.918 147.203 860.988 147.391 861.129 147.512C861.273 147.633 861.463 147.693 861.697 147.693ZM868.312 149L867.967 148.109H867.92C867.619 148.488 867.309 148.752 866.988 148.9C866.672 149.045 866.258 149.117 865.746 149.117C865.117 149.117 864.621 148.938 864.258 148.578C863.898 148.219 863.719 147.707 863.719 147.043C863.719 146.348 863.961 145.836 864.445 145.508C864.934 145.176 865.668 144.992 866.648 144.957L867.785 144.922V144.635C867.785 143.971 867.445 143.639 866.766 143.639C866.242 143.639 865.627 143.797 864.92 144.113L864.328 142.906C865.082 142.512 865.918 142.314 866.836 142.314C867.715 142.314 868.389 142.506 868.857 142.889C869.326 143.271 869.561 143.854 869.561 144.635V149H868.312ZM867.785 145.965L867.094 145.988C866.574 146.004 866.188 146.098 865.934 146.27C865.68 146.441 865.553 146.703 865.553 147.055C865.553 147.559 865.842 147.811 866.42 147.811C866.834 147.811 867.164 147.691 867.41 147.453C867.66 147.215 867.785 146.898 867.785 146.504V145.965ZM875.062 142.326C875.305 142.326 875.506 142.344 875.666 142.379L875.531 144.055C875.387 144.016 875.211 143.996 875.004 143.996C874.434 143.996 873.988 144.143 873.668 144.436C873.352 144.729 873.193 145.139 873.193 145.666V149H871.406V142.449H872.76L873.023 143.551H873.111C873.314 143.184 873.588 142.889 873.932 142.666C874.279 142.439 874.656 142.326 875.062 142.326ZM882.557 142.449V143.357L881.531 143.621C881.719 143.914 881.812 144.242 881.812 144.605C881.812 145.309 881.566 145.857 881.074 146.252C880.586 146.643 879.906 146.838 879.035 146.838L878.713 146.82L878.449 146.791C878.266 146.932 878.174 147.088 878.174 147.26C878.174 147.518 878.502 147.646 879.158 147.646H880.271C880.99 147.646 881.537 147.801 881.912 148.109C882.291 148.418 882.48 148.871 882.48 149.469C882.48 150.234 882.16 150.828 881.52 151.25C880.883 151.672 879.967 151.883 878.771 151.883C877.857 151.883 877.158 151.723 876.674 151.402C876.193 151.086 875.953 150.641 875.953 150.066C875.953 149.672 876.076 149.342 876.322 149.076C876.568 148.811 876.93 148.621 877.406 148.508C877.223 148.43 877.062 148.303 876.926 148.127C876.789 147.947 876.721 147.758 876.721 147.559C876.721 147.309 876.793 147.102 876.938 146.938C877.082 146.77 877.291 146.605 877.564 146.445C877.221 146.297 876.947 146.059 876.744 145.73C876.545 145.402 876.445 145.016 876.445 144.57C876.445 143.855 876.678 143.303 877.143 142.912C877.607 142.521 878.271 142.326 879.135 142.326C879.318 142.326 879.535 142.344 879.785 142.379C880.039 142.41 880.201 142.434 880.271 142.449H882.557ZM877.5 149.926C877.5 150.172 877.617 150.365 877.852 150.506C878.09 150.646 878.422 150.717 878.848 150.717C879.488 150.717 879.99 150.629 880.354 150.453C880.717 150.277 880.898 150.037 880.898 149.732C880.898 149.486 880.791 149.316 880.576 149.223C880.361 149.129 880.029 149.082 879.58 149.082H878.654C878.326 149.082 878.051 149.158 877.828 149.311C877.609 149.467 877.5 149.672 877.5 149.926ZM878.15 144.594C878.15 144.949 878.23 145.23 878.391 145.438C878.555 145.645 878.803 145.748 879.135 145.748C879.471 145.748 879.717 145.645 879.873 145.438C880.029 145.23 880.107 144.949 880.107 144.594C880.107 143.805 879.783 143.41 879.135 143.41C878.479 143.41 878.15 143.805 878.15 144.594ZM886.354 143.598C885.975 143.598 885.678 143.719 885.463 143.961C885.248 144.199 885.125 144.539 885.094 144.98H887.602C887.594 144.539 887.479 144.199 887.256 143.961C887.033 143.719 886.732 143.598 886.354 143.598ZM886.605 149.117C885.551 149.117 884.727 148.826 884.133 148.244C883.539 147.662 883.242 146.838 883.242 145.771C883.242 144.674 883.516 143.826 884.062 143.229C884.613 142.627 885.373 142.326 886.342 142.326C887.268 142.326 887.988 142.59 888.504 143.117C889.02 143.645 889.277 144.373 889.277 145.303V146.17H885.053C885.072 146.678 885.223 147.074 885.504 147.359C885.785 147.645 886.18 147.787 886.688 147.787C887.082 147.787 887.455 147.746 887.807 147.664C888.158 147.582 888.525 147.451 888.908 147.271V148.654C888.596 148.811 888.262 148.926 887.906 149C887.551 149.078 887.117 149.117 886.605 149.117ZM893.49 147.693C893.803 147.693 894.178 147.625 894.615 147.488V148.818C894.17 149.018 893.623 149.117 892.975 149.117C892.26 149.117 891.738 148.938 891.41 148.578C891.086 148.215 890.924 147.672 890.924 146.949V143.791H890.068V143.035L891.053 142.438L891.568 141.055H892.711V142.449H894.545V143.791H892.711V146.949C892.711 147.203 892.781 147.391 892.922 147.512C893.066 147.633 893.256 147.693 893.49 147.693ZM903.633 147.055C903.633 147.727 903.398 148.238 902.93 148.59C902.465 148.941 901.768 149.117 900.838 149.117C900.361 149.117 899.955 149.084 899.619 149.018C899.283 148.955 898.969 148.861 898.676 148.736V147.26C899.008 147.416 899.381 147.547 899.795 147.652C900.213 147.758 900.58 147.811 900.896 147.811C901.545 147.811 901.869 147.623 901.869 147.248C901.869 147.107 901.826 146.994 901.74 146.908C901.654 146.818 901.506 146.719 901.295 146.609C901.084 146.496 900.803 146.365 900.451 146.217C899.947 146.006 899.576 145.811 899.338 145.631C899.104 145.451 898.932 145.246 898.822 145.016C898.717 144.781 898.664 144.494 898.664 144.154C898.664 143.572 898.889 143.123 899.338 142.807C899.791 142.486 900.432 142.326 901.26 142.326C902.049 142.326 902.816 142.498 903.562 142.842L903.023 144.131C902.695 143.99 902.389 143.875 902.104 143.785C901.818 143.695 901.527 143.65 901.23 143.65C900.703 143.65 900.439 143.793 900.439 144.078C900.439 144.238 900.523 144.377 900.691 144.494C900.863 144.611 901.236 144.785 901.811 145.016C902.322 145.223 902.697 145.416 902.936 145.596C903.174 145.775 903.35 145.982 903.463 146.217C903.576 146.451 903.633 146.73 903.633 147.055ZM904.951 140.756C904.951 140.174 905.275 139.883 905.924 139.883C906.572 139.883 906.896 140.174 906.896 140.756C906.896 141.033 906.814 141.25 906.65 141.406C906.49 141.559 906.248 141.635 905.924 141.635C905.275 141.635 904.951 141.342 904.951 140.756ZM906.814 149H905.027V142.449H906.814V149ZM913.254 149H908.08V147.945L911.115 143.814H908.262V142.449H913.148V143.609L910.195 147.635H913.254V149ZM917.268 143.598C916.889 143.598 916.592 143.719 916.377 143.961C916.162 144.199 916.039 144.539 916.008 144.98H918.516C918.508 144.539 918.393 144.199 918.17 143.961C917.947 143.719 917.646 143.598 917.268 143.598ZM917.52 149.117C916.465 149.117 915.641 148.826 915.047 148.244C914.453 147.662 914.156 146.838 914.156 145.771C914.156 144.674 914.43 143.826 914.977 143.229C915.527 142.627 916.287 142.326 917.256 142.326C918.182 142.326 918.902 142.59 919.418 143.117C919.934 143.645 920.191 144.373 920.191 145.303V146.17H915.967C915.986 146.678 916.137 147.074 916.418 147.359C916.699 147.645 917.094 147.787 917.602 147.787C917.996 147.787 918.369 147.746 918.721 147.664C919.072 147.582 919.439 147.451 919.822 147.271V148.654C919.51 148.811 919.176 148.926 918.82 149C918.465 149.078 918.031 149.117 917.52 149.117Z" fill="#E8178A"/><circle opacity=".4" cx="864" cy="106" r="22" fill="#217CBB"/><circle cx="864" cy="106" r="11" fill="#fff" stroke="#217CBB" stroke-width="2"/><path d="M862.845 53.5205H861.985V55H860.511V53.5205H857.464V52.4707L860.594 47.8613H861.985V52.3486H862.845V53.5205ZM860.511 52.3486V51.1377C860.511 50.9359 860.519 50.6429 860.535 50.2588C860.551 49.8747 860.564 49.6517 860.574 49.5898H860.535C860.415 49.8568 860.27 50.1172 860.101 50.3711L858.792 52.3486H860.511ZM868.558 53.5205H867.698V55H866.224V53.5205H863.177V52.4707L866.307 47.8613H867.698V52.3486H868.558V53.5205ZM866.224 52.3486V51.1377C866.224 50.9359 866.232 50.6429 866.248 50.2588C866.264 49.8747 866.277 49.6517 866.287 49.5898H866.248C866.128 49.8568 865.983 50.1172 865.813 50.3711L864.505 52.3486H866.224Z" fill="#E8178A"/><path d="M842 86.031V50.84" stroke="#E8178A" stroke-width=".75"/><path d="M884 86.031V50.84" stroke="#E8178A" stroke-width=".75"/><path d="M842 68.4359H883.8" stroke="#E8178A" stroke-width=".75"/><circle opacity=".4" cx="705" cy="255" r="24" fill="#217CBB"/><circle cx="705" cy="255" r="15" fill="#fff" stroke="#019AEB" stroke-width="2"/><path d="M683 230.999V195.808" stroke="#E8178A" stroke-width=".75"/><path d="M725 230.999V195.808" stroke="#E8178A" stroke-width=".75"/><path d="M683 213.404H724.8" stroke="#E8178A" stroke-width=".75"/><path d="M703.845 198.488H702.985V199.967H701.511V198.488H698.464V197.438L701.594 192.828H702.985V197.316H703.845V198.488ZM701.511 197.316V196.105C701.511 195.903 701.519 195.61 701.535 195.226C701.551 194.842 701.564 194.619 701.574 194.557H701.535C701.415 194.824 701.27 195.084 701.101 195.338L699.792 197.316H701.511ZM706.867 192.736C707.551 192.736 708.101 192.892 708.518 193.204C708.938 193.514 709.147 193.932 709.147 194.459C709.147 194.824 709.047 195.149 708.845 195.436C708.643 195.719 708.317 195.973 707.868 196.198C708.402 196.484 708.785 196.783 709.016 197.096C709.25 197.405 709.367 197.745 709.367 198.116C709.367 198.702 709.138 199.174 708.679 199.532C708.22 199.887 707.616 200.065 706.867 200.065C706.086 200.065 705.472 199.899 705.026 199.567C704.58 199.235 704.357 198.764 704.357 198.156C704.357 197.749 704.465 197.387 704.68 197.072C704.898 196.756 705.246 196.477 705.725 196.237C705.318 195.979 705.025 195.704 704.846 195.411C704.667 195.118 704.577 194.798 704.577 194.449C704.577 193.938 704.789 193.525 705.212 193.209C705.635 192.893 706.187 192.736 706.867 192.736ZM705.754 198.068C705.754 198.348 705.852 198.566 706.047 198.722C706.242 198.878 706.509 198.956 706.848 198.956C707.222 198.956 707.502 198.877 707.688 198.717C707.873 198.554 707.966 198.341 707.966 198.077C707.966 197.859 707.873 197.656 707.688 197.467C707.505 197.275 707.207 197.072 706.794 196.857C706.101 197.176 705.754 197.579 705.754 198.068ZM706.857 193.839C706.6 193.839 706.392 193.906 706.232 194.039C706.076 194.17 705.998 194.345 705.998 194.567C705.998 194.762 706.06 194.938 706.184 195.094C706.311 195.247 706.538 195.405 706.867 195.568C707.186 195.418 707.409 195.265 707.536 195.109C707.663 194.952 707.727 194.772 707.727 194.567C707.727 194.342 707.645 194.165 707.482 194.034C707.32 193.904 707.111 193.839 706.857 193.839Z" fill="#E8178A"/><path d="M660.865 304H659.078V295.434H663.988V296.922H660.865V299.131H663.771V300.613H660.865V304ZM666.947 300.713C666.947 301.361 667.053 301.852 667.264 302.184C667.479 302.516 667.826 302.682 668.307 302.682C668.783 302.682 669.125 302.518 669.332 302.189C669.543 301.857 669.648 301.365 669.648 300.713C669.648 300.064 669.543 299.578 669.332 299.254C669.121 298.93 668.775 298.768 668.295 298.768C667.818 298.768 667.475 298.93 667.264 299.254C667.053 299.574 666.947 300.061 666.947 300.713ZM671.477 300.713C671.477 301.779 671.195 302.613 670.633 303.215C670.07 303.816 669.287 304.117 668.283 304.117C667.654 304.117 667.1 303.98 666.619 303.707C666.139 303.43 665.77 303.033 665.512 302.518C665.254 302.002 665.125 301.4 665.125 300.713C665.125 299.643 665.404 298.811 665.963 298.217C666.521 297.623 667.307 297.326 668.318 297.326C668.947 297.326 669.502 297.463 669.982 297.736C670.463 298.01 670.832 298.402 671.09 298.914C671.348 299.426 671.477 300.025 671.477 300.713ZM675.613 304.117C673.574 304.117 672.555 302.998 672.555 300.76C672.555 299.646 672.832 298.797 673.387 298.211C673.941 297.621 674.736 297.326 675.771 297.326C676.529 297.326 677.209 297.475 677.811 297.771L677.283 299.154C677.002 299.041 676.74 298.949 676.498 298.879C676.256 298.805 676.014 298.768 675.771 298.768C674.842 298.768 674.377 299.428 674.377 300.748C674.377 302.029 674.842 302.67 675.771 302.67C676.115 302.67 676.434 302.625 676.727 302.535C677.02 302.441 677.312 302.297 677.605 302.102V303.631C677.316 303.814 677.023 303.941 676.727 304.012C676.434 304.082 676.062 304.117 675.613 304.117ZM683.77 304L683.529 303.162H683.436C683.244 303.467 682.973 303.703 682.621 303.871C682.27 304.035 681.869 304.117 681.42 304.117C680.65 304.117 680.07 303.912 679.68 303.502C679.289 303.088 679.094 302.494 679.094 301.721V297.449H680.881V301.275C680.881 301.748 680.965 302.104 681.133 302.342C681.301 302.576 681.568 302.693 681.936 302.693C682.436 302.693 682.797 302.527 683.02 302.195C683.242 301.859 683.354 301.305 683.354 300.531V297.449H685.141V304H683.77ZM691.586 302.055C691.586 302.727 691.352 303.238 690.883 303.59C690.418 303.941 689.721 304.117 688.791 304.117C688.314 304.117 687.908 304.084 687.572 304.018C687.236 303.955 686.922 303.861 686.629 303.736V302.26C686.961 302.416 687.334 302.547 687.748 302.652C688.166 302.758 688.533 302.811 688.85 302.811C689.498 302.811 689.822 302.623 689.822 302.248C689.822 302.107 689.779 301.994 689.693 301.908C689.607 301.818 689.459 301.719 689.248 301.609C689.037 301.496 688.756 301.365 688.404 301.217C687.9 301.006 687.529 300.811 687.291 300.631C687.057 300.451 686.885 300.246 686.775 300.016C686.67 299.781 686.617 299.494 686.617 299.154C686.617 298.572 686.842 298.123 687.291 297.807C687.744 297.486 688.385 297.326 689.213 297.326C690.002 297.326 690.77 297.498 691.516 297.842L690.977 299.131C690.648 298.99 690.342 298.875 690.057 298.785C689.771 298.695 689.48 298.65 689.184 298.65C688.656 298.65 688.393 298.793 688.393 299.078C688.393 299.238 688.477 299.377 688.645 299.494C688.816 299.611 689.189 299.785 689.764 300.016C690.275 300.223 690.65 300.416 690.889 300.596C691.127 300.775 691.303 300.982 691.416 301.217C691.529 301.451 691.586 301.73 691.586 302.055ZM696.941 295.434L693.748 304H692.125L695.318 295.434H696.941ZM700.697 302.693C701.01 302.693 701.385 302.625 701.822 302.488V303.818C701.377 304.018 700.83 304.117 700.182 304.117C699.467 304.117 698.945 303.938 698.617 303.578C698.293 303.215 698.131 302.672 698.131 301.949V298.791H697.275V298.035L698.26 297.438L698.775 296.055H699.918V297.449H701.752V298.791H699.918V301.949C699.918 302.203 699.988 302.391 700.129 302.512C700.273 302.633 700.463 302.693 700.697 302.693ZM707.312 304L706.967 303.109H706.92C706.619 303.488 706.309 303.752 705.988 303.9C705.672 304.045 705.258 304.117 704.746 304.117C704.117 304.117 703.621 303.938 703.258 303.578C702.898 303.219 702.719 302.707 702.719 302.043C702.719 301.348 702.961 300.836 703.445 300.508C703.934 300.176 704.668 299.992 705.648 299.957L706.785 299.922V299.635C706.785 298.971 706.445 298.639 705.766 298.639C705.242 298.639 704.627 298.797 703.92 299.113L703.328 297.906C704.082 297.512 704.918 297.314 705.836 297.314C706.715 297.314 707.389 297.506 707.857 297.889C708.326 298.271 708.561 298.854 708.561 299.635V304H707.312ZM706.785 300.965L706.094 300.988C705.574 301.004 705.188 301.098 704.934 301.27C704.68 301.441 704.553 301.703 704.553 302.055C704.553 302.559 704.842 302.811 705.42 302.811C705.834 302.811 706.164 302.691 706.41 302.453C706.66 302.215 706.785 301.898 706.785 301.504V300.965ZM714.062 297.326C714.305 297.326 714.506 297.344 714.666 297.379L714.531 299.055C714.387 299.016 714.211 298.996 714.004 298.996C713.434 298.996 712.988 299.143 712.668 299.436C712.352 299.729 712.193 300.139 712.193 300.666V304H710.406V297.449H711.76L712.023 298.551H712.111C712.314 298.184 712.588 297.889 712.932 297.666C713.279 297.439 713.656 297.326 714.062 297.326ZM721.557 297.449V298.357L720.531 298.621C720.719 298.914 720.812 299.242 720.812 299.605C720.812 300.309 720.566 300.857 720.074 301.252C719.586 301.643 718.906 301.838 718.035 301.838L717.713 301.82L717.449 301.791C717.266 301.932 717.174 302.088 717.174 302.26C717.174 302.518 717.502 302.646 718.158 302.646H719.271C719.99 302.646 720.537 302.801 720.912 303.109C721.291 303.418 721.48 303.871 721.48 304.469C721.48 305.234 721.16 305.828 720.52 306.25C719.883 306.672 718.967 306.883 717.771 306.883C716.857 306.883 716.158 306.723 715.674 306.402C715.193 306.086 714.953 305.641 714.953 305.066C714.953 304.672 715.076 304.342 715.322 304.076C715.568 303.811 715.93 303.621 716.406 303.508C716.223 303.43 716.062 303.303 715.926 303.127C715.789 302.947 715.721 302.758 715.721 302.559C715.721 302.309 715.793 302.102 715.938 301.938C716.082 301.77 716.291 301.605 716.564 301.445C716.221 301.297 715.947 301.059 715.744 300.73C715.545 300.402 715.445 300.016 715.445 299.57C715.445 298.855 715.678 298.303 716.143 297.912C716.607 297.521 717.271 297.326 718.135 297.326C718.318 297.326 718.535 297.344 718.785 297.379C719.039 297.41 719.201 297.434 719.271 297.449H721.557ZM716.5 304.926C716.5 305.172 716.617 305.365 716.852 305.506C717.09 305.646 717.422 305.717 717.848 305.717C718.488 305.717 718.99 305.629 719.354 305.453C719.717 305.277 719.898 305.037 719.898 304.732C719.898 304.486 719.791 304.316 719.576 304.223C719.361 304.129 719.029 304.082 718.58 304.082H717.654C717.326 304.082 717.051 304.158 716.828 304.311C716.609 304.467 716.5 304.672 716.5 304.926ZM717.15 299.594C717.15 299.949 717.23 300.23 717.391 300.438C717.555 300.645 717.803 300.748 718.135 300.748C718.471 300.748 718.717 300.645 718.873 300.438C719.029 300.23 719.107 299.949 719.107 299.594C719.107 298.805 718.783 298.41 718.135 298.41C717.479 298.41 717.15 298.805 717.15 299.594ZM725.354 298.598C724.975 298.598 724.678 298.719 724.463 298.961C724.248 299.199 724.125 299.539 724.094 299.98H726.602C726.594 299.539 726.479 299.199 726.256 298.961C726.033 298.719 725.732 298.598 725.354 298.598ZM725.605 304.117C724.551 304.117 723.727 303.826 723.133 303.244C722.539 302.662 722.242 301.838 722.242 300.771C722.242 299.674 722.516 298.826 723.062 298.229C723.613 297.627 724.373 297.326 725.342 297.326C726.268 297.326 726.988 297.59 727.504 298.117C728.02 298.645 728.277 299.373 728.277 300.303V301.17H724.053C724.072 301.678 724.223 302.074 724.504 302.359C724.785 302.645 725.18 302.787 725.688 302.787C726.082 302.787 726.455 302.746 726.807 302.664C727.158 302.582 727.525 302.451 727.908 302.271V303.654C727.596 303.811 727.262 303.926 726.906 304C726.551 304.078 726.117 304.117 725.605 304.117ZM732.49 302.693C732.803 302.693 733.178 302.625 733.615 302.488V303.818C733.17 304.018 732.623 304.117 731.975 304.117C731.26 304.117 730.738 303.938 730.41 303.578C730.086 303.215 729.924 302.672 729.924 301.949V298.791H729.068V298.035L730.053 297.438L730.568 296.055H731.711V297.449H733.545V298.791H731.711V301.949C731.711 302.203 731.781 302.391 731.922 302.512C732.066 302.633 732.256 302.693 732.49 302.693ZM742.633 302.055C742.633 302.727 742.398 303.238 741.93 303.59C741.465 303.941 740.768 304.117 739.838 304.117C739.361 304.117 738.955 304.084 738.619 304.018C738.283 303.955 737.969 303.861 737.676 303.736V302.26C738.008 302.416 738.381 302.547 738.795 302.652C739.213 302.758 739.58 302.811 739.896 302.811C740.545 302.811 740.869 302.623 740.869 302.248C740.869 302.107 740.826 301.994 740.74 301.908C740.654 301.818 740.506 301.719 740.295 301.609C740.084 301.496 739.803 301.365 739.451 301.217C738.947 301.006 738.576 300.811 738.338 300.631C738.104 300.451 737.932 300.246 737.822 300.016C737.717 299.781 737.664 299.494 737.664 299.154C737.664 298.572 737.889 298.123 738.338 297.807C738.791 297.486 739.432 297.326 740.26 297.326C741.049 297.326 741.816 297.498 742.562 297.842L742.023 299.131C741.695 298.99 741.389 298.875 741.104 298.785C740.818 298.695 740.527 298.65 740.23 298.65C739.703 298.65 739.439 298.793 739.439 299.078C739.439 299.238 739.523 299.377 739.691 299.494C739.863 299.611 740.236 299.785 740.811 300.016C741.322 300.223 741.697 300.416 741.936 300.596C742.174 300.775 742.35 300.982 742.463 301.217C742.576 301.451 742.633 301.73 742.633 302.055ZM743.951 295.756C743.951 295.174 744.275 294.883 744.924 294.883C745.572 294.883 745.896 295.174 745.896 295.756C745.896 296.033 745.814 296.25 745.65 296.406C745.49 296.559 745.248 296.635 744.924 296.635C744.275 296.635 743.951 296.342 743.951 295.756ZM745.814 304H744.027V297.449H745.814V304ZM752.254 304H747.08V302.945L750.115 298.814H747.262V297.449H752.148V298.609L749.195 302.635H752.254V304ZM756.268 298.598C755.889 298.598 755.592 298.719 755.377 298.961C755.162 299.199 755.039 299.539 755.008 299.98H757.516C757.508 299.539 757.393 299.199 757.17 298.961C756.947 298.719 756.646 298.598 756.268 298.598ZM756.52 304.117C755.465 304.117 754.641 303.826 754.047 303.244C753.453 302.662 753.156 301.838 753.156 300.771C753.156 299.674 753.43 298.826 753.977 298.229C754.527 297.627 755.287 297.326 756.256 297.326C757.182 297.326 757.902 297.59 758.418 298.117C758.934 298.645 759.191 299.373 759.191 300.303V301.17H754.967C754.986 301.678 755.137 302.074 755.418 302.359C755.699 302.645 756.094 302.787 756.602 302.787C756.996 302.787 757.369 302.746 757.721 302.664C758.072 302.582 758.439 302.451 758.822 302.271V303.654C758.51 303.811 758.176 303.926 757.82 304C757.465 304.078 757.031 304.117 756.52 304.117Z" fill="#E8178A"/><path d="M381 85C384.956 85 388.822 86.173 392.111 88.3706C395.4 90.5682 397.964 93.6918 399.478 97.3463C400.991 101.001 401.387 105.022 400.616 108.902C399.844 112.781 397.939 116.345 395.142 119.142C392.345 121.939 388.781 123.844 384.902 124.616C381.022 125.387 377.001 124.991 373.346 123.478C369.692 121.964 366.568 119.4 364.371 116.111C362.173 112.822 361 108.956 361 105C361 99.6957 363.107 94.6086 366.858 90.8579C370.609 87.1071 375.696 85 381 85Z" fill="#217CBB" fill-opacity=".3"/><circle opacity=".4" cx="381" cy="105" r="20" fill="#217CBB"/><circle cx="381" cy="105" r="9" fill="#fff" stroke="#019AEB" stroke-width="2"/><path d="M380.595 56.5205H379.735V58H378.261V56.5205H375.214V55.4707L378.344 50.8613H379.735V55.3486H380.595V56.5205ZM378.261 55.3486V54.1377C378.261 53.9359 378.269 53.6429 378.285 53.2588C378.301 52.8747 378.314 52.6517 378.324 52.5898H378.285C378.165 52.8568 378.02 53.1172 377.851 53.3711L376.542 55.3486H378.261ZM386.107 54.4307C386.107 55.6774 385.902 56.6003 385.492 57.1992C385.085 57.7982 384.457 58.0977 383.607 58.0977C382.784 58.0977 382.162 57.7884 381.742 57.1699C381.326 56.5514 381.117 55.6383 381.117 54.4307C381.117 53.1709 381.321 52.2432 381.728 51.6475C382.134 51.0485 382.761 50.749 383.607 50.749C384.431 50.749 385.053 51.0615 385.473 51.6865C385.896 52.3115 386.107 53.2262 386.107 54.4307ZM382.616 54.4307C382.616 55.3063 382.691 55.9346 382.841 56.3154C382.994 56.693 383.249 56.8818 383.607 56.8818C383.959 56.8818 384.213 56.6898 384.369 56.3057C384.525 55.9215 384.604 55.2965 384.604 54.4307C384.604 53.555 384.524 52.9268 384.364 52.5459C384.208 52.1618 383.956 51.9697 383.607 51.9697C383.253 51.9697 382.999 52.1618 382.846 52.5459C382.693 52.9268 382.616 53.555 382.616 54.4307Z" fill="#E8178A"/><path d="M361.5 89.031V53.84" stroke="#E8178A" stroke-width=".75"/><path d="M400 89.031V53.84" stroke="#E8178A" stroke-width=".75"/><path d="M361.5 71.4359H399.8" stroke="#E8178A" stroke-width=".75"/><path d="M334.865 145H333.078V136.434H337.988V137.922H334.865V140.131H337.771V141.613H334.865V145ZM340.947 141.713C340.947 142.361 341.053 142.852 341.264 143.184C341.479 143.516 341.826 143.682 342.307 143.682C342.783 143.682 343.125 143.518 343.332 143.189C343.543 142.857 343.648 142.365 343.648 141.713C343.648 141.064 343.543 140.578 343.332 140.254C343.121 139.93 342.775 139.768 342.295 139.768C341.818 139.768 341.475 139.93 341.264 140.254C341.053 140.574 340.947 141.061 340.947 141.713ZM345.477 141.713C345.477 142.779 345.195 143.613 344.633 144.215C344.07 144.816 343.287 145.117 342.283 145.117C341.654 145.117 341.1 144.98 340.619 144.707C340.139 144.43 339.77 144.033 339.512 143.518C339.254 143.002 339.125 142.4 339.125 141.713C339.125 140.643 339.404 139.811 339.963 139.217C340.521 138.623 341.307 138.326 342.318 138.326C342.947 138.326 343.502 138.463 343.982 138.736C344.463 139.01 344.832 139.402 345.09 139.914C345.348 140.426 345.477 141.025 345.477 141.713ZM349.613 145.117C347.574 145.117 346.555 143.998 346.555 141.76C346.555 140.646 346.832 139.797 347.387 139.211C347.941 138.621 348.736 138.326 349.771 138.326C350.529 138.326 351.209 138.475 351.811 138.771L351.283 140.154C351.002 140.041 350.74 139.949 350.498 139.879C350.256 139.805 350.014 139.768 349.771 139.768C348.842 139.768 348.377 140.428 348.377 141.748C348.377 143.029 348.842 143.67 349.771 143.67C350.115 143.67 350.434 143.625 350.727 143.535C351.02 143.441 351.312 143.297 351.605 143.102V144.631C351.316 144.814 351.023 144.941 350.727 145.012C350.434 145.082 350.062 145.117 349.613 145.117ZM357.77 145L357.529 144.162H357.436C357.244 144.467 356.973 144.703 356.621 144.871C356.27 145.035 355.869 145.117 355.42 145.117C354.65 145.117 354.07 144.912 353.68 144.502C353.289 144.088 353.094 143.494 353.094 142.721V138.449H354.881V142.275C354.881 142.748 354.965 143.104 355.133 143.342C355.301 143.576 355.568 143.693 355.936 143.693C356.436 143.693 356.797 143.527 357.02 143.195C357.242 142.859 357.354 142.305 357.354 141.531V138.449H359.141V145H357.77ZM365.586 143.055C365.586 143.727 365.352 144.238 364.883 144.59C364.418 144.941 363.721 145.117 362.791 145.117C362.314 145.117 361.908 145.084 361.572 145.018C361.236 144.955 360.922 144.861 360.629 144.736V143.26C360.961 143.416 361.334 143.547 361.748 143.652C362.166 143.758 362.533 143.811 362.85 143.811C363.498 143.811 363.822 143.623 363.822 143.248C363.822 143.107 363.779 142.994 363.693 142.908C363.607 142.818 363.459 142.719 363.248 142.609C363.037 142.496 362.756 142.365 362.404 142.217C361.9 142.006 361.529 141.811 361.291 141.631C361.057 141.451 360.885 141.246 360.775 141.016C360.67 140.781 360.617 140.494 360.617 140.154C360.617 139.572 360.842 139.123 361.291 138.807C361.744 138.486 362.385 138.326 363.213 138.326C364.002 138.326 364.77 138.498 365.516 138.842L364.977 140.131C364.648 139.99 364.342 139.875 364.057 139.785C363.771 139.695 363.48 139.65 363.184 139.65C362.656 139.65 362.393 139.793 362.393 140.078C362.393 140.238 362.477 140.377 362.645 140.494C362.816 140.611 363.189 140.785 363.764 141.016C364.275 141.223 364.65 141.416 364.889 141.596C365.127 141.775 365.303 141.982 365.416 142.217C365.529 142.451 365.586 142.73 365.586 143.055ZM370.941 136.434L367.748 145H366.125L369.318 136.434H370.941ZM374.697 143.693C375.01 143.693 375.385 143.625 375.822 143.488V144.818C375.377 145.018 374.83 145.117 374.182 145.117C373.467 145.117 372.945 144.938 372.617 144.578C372.293 144.215 372.131 143.672 372.131 142.949V139.791H371.275V139.035L372.26 138.438L372.775 137.055H373.918V138.449H375.752V139.791H373.918V142.949C373.918 143.203 373.988 143.391 374.129 143.512C374.273 143.633 374.463 143.693 374.697 143.693ZM381.312 145L380.967 144.109H380.92C380.619 144.488 380.309 144.752 379.988 144.9C379.672 145.045 379.258 145.117 378.746 145.117C378.117 145.117 377.621 144.938 377.258 144.578C376.898 144.219 376.719 143.707 376.719 143.043C376.719 142.348 376.961 141.836 377.445 141.508C377.934 141.176 378.668 140.992 379.648 140.957L380.785 140.922V140.635C380.785 139.971 380.445 139.639 379.766 139.639C379.242 139.639 378.627 139.797 377.92 140.113L377.328 138.906C378.082 138.512 378.918 138.314 379.836 138.314C380.715 138.314 381.389 138.506 381.857 138.889C382.326 139.271 382.561 139.854 382.561 140.635V145H381.312ZM380.785 141.965L380.094 141.988C379.574 142.004 379.188 142.098 378.934 142.27C378.68 142.441 378.553 142.703 378.553 143.055C378.553 143.559 378.842 143.811 379.42 143.811C379.834 143.811 380.164 143.691 380.41 143.453C380.66 143.215 380.785 142.898 380.785 142.504V141.965ZM388.062 138.326C388.305 138.326 388.506 138.344 388.666 138.379L388.531 140.055C388.387 140.016 388.211 139.996 388.004 139.996C387.434 139.996 386.988 140.143 386.668 140.436C386.352 140.729 386.193 141.139 386.193 141.666V145H384.406V138.449H385.76L386.023 139.551H386.111C386.314 139.184 386.588 138.889 386.932 138.666C387.279 138.439 387.656 138.326 388.062 138.326ZM395.557 138.449V139.357L394.531 139.621C394.719 139.914 394.812 140.242 394.812 140.605C394.812 141.309 394.566 141.857 394.074 142.252C393.586 142.643 392.906 142.838 392.035 142.838L391.713 142.82L391.449 142.791C391.266 142.932 391.174 143.088 391.174 143.26C391.174 143.518 391.502 143.646 392.158 143.646H393.271C393.99 143.646 394.537 143.801 394.912 144.109C395.291 144.418 395.48 144.871 395.48 145.469C395.48 146.234 395.16 146.828 394.52 147.25C393.883 147.672 392.967 147.883 391.771 147.883C390.857 147.883 390.158 147.723 389.674 147.402C389.193 147.086 388.953 146.641 388.953 146.066C388.953 145.672 389.076 145.342 389.322 145.076C389.568 144.811 389.93 144.621 390.406 144.508C390.223 144.43 390.062 144.303 389.926 144.127C389.789 143.947 389.721 143.758 389.721 143.559C389.721 143.309 389.793 143.102 389.938 142.938C390.082 142.77 390.291 142.605 390.564 142.445C390.221 142.297 389.947 142.059 389.744 141.73C389.545 141.402 389.445 141.016 389.445 140.57C389.445 139.855 389.678 139.303 390.143 138.912C390.607 138.521 391.271 138.326 392.135 138.326C392.318 138.326 392.535 138.344 392.785 138.379C393.039 138.41 393.201 138.434 393.271 138.449H395.557ZM390.5 145.926C390.5 146.172 390.617 146.365 390.852 146.506C391.09 146.646 391.422 146.717 391.848 146.717C392.488 146.717 392.99 146.629 393.354 146.453C393.717 146.277 393.898 146.037 393.898 145.732C393.898 145.486 393.791 145.316 393.576 145.223C393.361 145.129 393.029 145.082 392.58 145.082H391.654C391.326 145.082 391.051 145.158 390.828 145.311C390.609 145.467 390.5 145.672 390.5 145.926ZM391.15 140.594C391.15 140.949 391.23 141.23 391.391 141.438C391.555 141.645 391.803 141.748 392.135 141.748C392.471 141.748 392.717 141.645 392.873 141.438C393.029 141.23 393.107 140.949 393.107 140.594C393.107 139.805 392.783 139.41 392.135 139.41C391.479 139.41 391.15 139.805 391.15 140.594ZM399.354 139.598C398.975 139.598 398.678 139.719 398.463 139.961C398.248 140.199 398.125 140.539 398.094 140.98H400.602C400.594 140.539 400.479 140.199 400.256 139.961C400.033 139.719 399.732 139.598 399.354 139.598ZM399.605 145.117C398.551 145.117 397.727 144.826 397.133 144.244C396.539 143.662 396.242 142.838 396.242 141.771C396.242 140.674 396.516 139.826 397.062 139.229C397.613 138.627 398.373 138.326 399.342 138.326C400.268 138.326 400.988 138.59 401.504 139.117C402.02 139.645 402.277 140.373 402.277 141.303V142.17H398.053C398.072 142.678 398.223 143.074 398.504 143.359C398.785 143.645 399.18 143.787 399.688 143.787C400.082 143.787 400.455 143.746 400.807 143.664C401.158 143.582 401.525 143.451 401.908 143.271V144.654C401.596 144.811 401.262 144.926 400.906 145C400.551 145.078 400.117 145.117 399.605 145.117ZM406.49 143.693C406.803 143.693 407.178 143.625 407.615 143.488V144.818C407.17 145.018 406.623 145.117 405.975 145.117C405.26 145.117 404.738 144.938 404.41 144.578C404.086 144.215 403.924 143.672 403.924 142.949V139.791H403.068V139.035L404.053 138.438L404.568 137.055H405.711V138.449H407.545V139.791H405.711V142.949C405.711 143.203 405.781 143.391 405.922 143.512C406.066 143.633 406.256 143.693 406.49 143.693ZM416.633 143.055C416.633 143.727 416.398 144.238 415.93 144.59C415.465 144.941 414.768 145.117 413.838 145.117C413.361 145.117 412.955 145.084 412.619 145.018C412.283 144.955 411.969 144.861 411.676 144.736V143.26C412.008 143.416 412.381 143.547 412.795 143.652C413.213 143.758 413.58 143.811 413.896 143.811C414.545 143.811 414.869 143.623 414.869 143.248C414.869 143.107 414.826 142.994 414.74 142.908C414.654 142.818 414.506 142.719 414.295 142.609C414.084 142.496 413.803 142.365 413.451 142.217C412.947 142.006 412.576 141.811 412.338 141.631C412.104 141.451 411.932 141.246 411.822 141.016C411.717 140.781 411.664 140.494 411.664 140.154C411.664 139.572 411.889 139.123 412.338 138.807C412.791 138.486 413.432 138.326 414.26 138.326C415.049 138.326 415.816 138.498 416.562 138.842L416.023 140.131C415.695 139.99 415.389 139.875 415.104 139.785C414.818 139.695 414.527 139.65 414.23 139.65C413.703 139.65 413.439 139.793 413.439 140.078C413.439 140.238 413.523 140.377 413.691 140.494C413.863 140.611 414.236 140.785 414.811 141.016C415.322 141.223 415.697 141.416 415.936 141.596C416.174 141.775 416.35 141.982 416.463 142.217C416.576 142.451 416.633 142.73 416.633 143.055ZM417.951 136.756C417.951 136.174 418.275 135.883 418.924 135.883C419.572 135.883 419.896 136.174 419.896 136.756C419.896 137.033 419.814 137.25 419.65 137.406C419.49 137.559 419.248 137.635 418.924 137.635C418.275 137.635 417.951 137.342 417.951 136.756ZM419.814 145H418.027V138.449H419.814V145ZM426.254 145H421.08V143.945L424.115 139.814H421.262V138.449H426.148V139.609L423.195 143.635H426.254V145ZM430.268 139.598C429.889 139.598 429.592 139.719 429.377 139.961C429.162 140.199 429.039 140.539 429.008 140.98H431.516C431.508 140.539 431.393 140.199 431.17 139.961C430.947 139.719 430.646 139.598 430.268 139.598ZM430.52 145.117C429.465 145.117 428.641 144.826 428.047 144.244C427.453 143.662 427.156 142.838 427.156 141.771C427.156 140.674 427.43 139.826 427.977 139.229C428.527 138.627 429.287 138.326 430.256 138.326C431.182 138.326 431.902 138.59 432.418 139.117C432.934 139.645 433.191 140.373 433.191 141.303V142.17H428.967C428.986 142.678 429.137 143.074 429.418 143.359C429.699 143.645 430.094 143.787 430.602 143.787C430.996 143.787 431.369 143.746 431.721 143.664C432.072 143.582 432.439 143.451 432.822 143.271V144.654C432.51 144.811 432.176 144.926 431.82 145C431.465 145.078 431.031 145.117 430.52 145.117Z" fill="#E8178A"/></svg>