<svg fill="none" height="120" viewBox="0 0 961 120" width="961" xmlns="http://www.w3.org/2000/svg"><path d="m961 0h-319v120h319z" fill="#f1f1f6"/><g opacity=".4"><path d="m658.178 60v-8.5664h.996v7.6641h3.779v.9023zm10.287 0-.194-.9141h-.046c-.321.4024-.641.6758-.961.8203-.317.1407-.713.211-1.19.211-.636 0-1.136-.1641-1.5-.4922-.359-.3281-.539-.7949-.539-1.4004 0-1.2969 1.037-1.9766 3.111-2.0391l1.09-.0351v-.3984c0-.504-.109-.875-.328-1.1133-.215-.2422-.56-.3633-1.037-.3633-.535 0-1.141.1641-1.816.4922l-.299-.7442c.316-.1718.662-.3066 1.037-.4043.379-.0976.758-.1464 1.137-.1464.765 0 1.332.1699 1.699.5097.371.3399.557.8848.557 1.6348v4.3828zm-2.197-.6855c.605 0 1.08-.1661 1.423-.4981.348-.332.522-.7969.522-1.3945v-.5801l-.973.041c-.773.0274-1.332.1484-1.676.3633-.339.2109-.509.541-.509.9902 0 .3516.105.6192.316.8028.215.1836.514.2754.897.2754zm8.166-5.8418c.843 0 1.498.289 1.962.8671.469.5743.704 1.3887.704 2.4434s-.237 1.875-.709 2.4609c-.469.5821-1.121.8731-1.957.8731-.418 0-.801-.0762-1.149-.2285-.344-.1563-.633-.3946-.867-.7149h-.07l-.205.8262h-.698v-9.1172h.973v2.2149c0 .4961-.016.9414-.047 1.3359h.047c.453-.6406 1.125-.9609 2.016-.9609zm-.141.8144c-.664 0-1.143.1914-1.436.5742-.293.3789-.439 1.0196-.439 1.9219s.15 1.5488.451 1.9395c.301.3867.783.58 1.447.58.598 0 1.043-.2168 1.336-.6504.293-.4375.44-1.0644.44-1.8808 0-.836-.147-1.459-.44-1.8692-.293-.4101-.746-.6152-1.359-.6152zm7.475 5.8301c-.95 0-1.7-.2891-2.25-.8672-.547-.5781-.821-1.3809-.821-2.4082 0-1.0352.254-1.8574.762-2.4668.512-.6094 1.197-.9141 2.057-.9141.804 0 1.441.2657 1.91.7969.469.5274.703 1.2246.703 2.0918v.6152h-4.424c.02.754.209 1.3262.568 1.7168.364.3907.873.586 1.53.586.691 0 1.375-.1446 2.051-.4336v.8672c-.344.1484-.67.2539-.979.3164-.305.0664-.674.0996-1.107.0996zm-.264-5.8418c-.516 0-.928.168-1.236.5039-.305.3359-.485.8008-.539 1.3945h3.357c0-.6133-.137-1.082-.41-1.4062-.274-.3281-.664-.4922-1.172-.4922zm5.512 5.7246h-.973v-9.1172h.973z" fill="#464b52"/><rect fill="#cbcdd6" height="4" opacity=".2" rx="2" width="288" x="657" y="84"/><rect fill="#0063a3" height="4" rx="2" width="189" x="657" y="79"/><circle cx="846" cy="81" fill="#fff" r="9" stroke="#90939f" stroke-width="2"/></g><path d="m640 0h-319v120h319z" fill="#f1f1f6"/><path d="m319 0h-319v120h319z" fill="#f1f1f6"/><path d="m18.1777 58v-8.5664h.9961v7.6641h3.7793v.9023zm10.2871 0-.1933-.9141h-.0469c-.3203.4024-.6406.6758-.9609.8203-.3164.1407-.7129.211-1.1895.211-.6367 0-1.1367-.1641-1.5-.4922-.3594-.3281-.539-.7949-.539-1.4004 0-1.2969 1.0371-1.9766 3.1113-2.0391l1.0898-.0351v-.3984c0-.504-.1093-.875-.3281-1.1133-.2148-.2422-.5605-.3633-1.0371-.3633-.5352 0-1.1406.1641-1.8164.4922l-.2988-.7442c.3164-.1718.6621-.3066 1.0371-.4043.3789-.0976.7578-.1464 1.1367-.1464.7656 0 1.332.1699 1.6992.5097.3711.3399.5566.8848.5566 1.6348v4.3828zm-2.1972-.6855c.6054 0 1.0801-.1661 1.4238-.4981.3477-.332.5215-.7969.5215-1.3945v-.5801l-.9727.041c-.7734.0274-1.332.1484-1.6757.3633-.3399.2109-.5098.541-.5098.9902 0 .3516.1055.6192.3164.8028.2148.1836.5137.2754.8965.2754zm8.166-5.8418c.8437 0 1.498.289 1.9629.8671.4687.5743.7031 1.3887.7031 2.4434s-.2363 1.875-.709 2.4609c-.4687.5821-1.1211.8731-1.957.8731-.418 0-.8008-.0762-1.1484-.2285-.3438-.1563-.6329-.3946-.8672-.7149h-.0703l-.2051.8262h-.6973v-9.1172h.9727v2.2149c0 .4961-.0157.9414-.0469 1.3359h.0469c.4531-.6406 1.125-.9609 2.0156-.9609zm-.1406.8144c-.6641 0-1.1426.1914-1.4356.5742-.2929.3789-.4394 1.0196-.4394 1.9219s.1504 1.5488.4511 1.9395c.3008.3867.7832.58 1.4473.58.5977 0 1.043-.2168 1.3359-.6504.293-.4375.4395-1.0644.4395-1.8808 0-.836-.1465-1.459-.4395-1.8692-.2929-.4101-.7461-.6152-1.3593-.6152zm7.4746 5.8301c-.9492 0-1.6992-.2891-2.25-.8672-.5469-.5781-.8203-1.3809-.8203-2.4082 0-1.0352.2539-1.8574.7617-2.4668.5117-.6094 1.1972-.9141 2.0566-.9141.8047 0 1.4414.2657 1.9102.7969.4687.5274.7031 1.2246.7031 2.0918v.6152h-4.4238c.0195.754.209 1.3262.5683 1.7168.3633.3907.8731.586 1.5293.586.6914 0 1.375-.1446 2.0508-.4336v.8672c-.3437.1484-.6699.2539-.9785.3164-.3047.0664-.6738.0996-1.1074.0996zm-.2637-5.8418c-.5156 0-.9277.168-1.2363.5039-.3047.3359-.4844.8008-.5391 1.3945h3.3574c0-.6133-.1367-1.082-.4101-1.4062-.2735-.3281-.6641-.4922-1.1719-.4922zm5.5117 5.7246h-.9726v-9.1172h.9726z" fill="#464b52"/><rect fill="#cbcdd6" height="4" opacity=".2" rx="2" width="278" x="17" y="75"/><rect fill="#0063a3" height="4" rx="2" width="134" x="17" y="75"/><circle cx="156" cy="77" fill="#217cbb" opacity=".4" r="20"/><circle cx="156" cy="77" fill="#fff" r="9" stroke="#217cbb" stroke-width="2"/><path d="m25.1855 20.6348c0 1.4101-.4023 2.4902-1.207 3.2402-.8008.75-1.959 1.125-3.4746 1.125h-2.4258v-8.5664h2.6895c1.3984 0 2.4844.3691 3.2578 1.1074s1.1601 1.7695 1.1601 3.0938zm-1.8867.0468c0-1.8398-.8125-2.7597-2.4375-2.7597h-.9668v5.5781h.7793c1.75 0 2.625-.9395 2.625-2.8184zm6.2344-1.0839c-.3789 0-.6758.1211-.8906.3632-.2149.2383-.3379.5782-.3692 1.0196h2.5078c-.0078-.4414-.123-.7813-.3457-1.0196-.2226-.2421-.5234-.3632-.9023-.3632zm.252 5.5195c-1.0547 0-1.879-.291-2.4727-.8731-.5937-.582-.8906-1.4062-.8906-2.4726 0-1.0977.2734-1.9453.8203-2.543.5508-.6015 1.3105-.9023 2.2793-.9023.9258 0 1.6465.2636 2.1621.791.5156.5273.7734 1.2558.7734 2.1855v.8672h-4.2246c.0196.5078.1699.9043.4512 1.1895.2812.2851.6758.4277 1.1836.4277.3945 0 .7676-.041 1.1191-.123.3516-.0821.7188-.2129 1.1016-.3926v1.3828c-.3125.1562-.6465.2715-1.002.3457-.3554.0781-.789.1172-1.3007.1172zm7.746-5.3262h-1.5468v5.209h-1.7871v-5.209h-.9844v-.8613l.9844-.4805v-.4804c0-.7461.1836-1.2911.5507-1.6348.3672-.3438.9551-.5156 1.7637-.5156.6172 0 1.166.0918 1.6465.2754l-.457 1.3124c-.3594-.1132-.6914-.1699-.9961-.1699-.2539 0-.4375.0762-.5508.2285-.1133.1485-.1699.3399-.1699.5743v.4101h1.5468zm5.1915 5.209-.3457-.8906h-.0469c-.3008.3789-.6113.6426-.9317.791-.3164.1445-.7304.2168-1.2422.2168-.6289 0-1.125-.1797-1.4882-.5391-.3594-.3593-.5391-.8711-.5391-1.5351 0-.6953.2422-1.2071.7266-1.5352.4883-.332 1.2226-.5156 2.2031-.5508l1.1367-.0351v-.2871c0-.6641-.3398-.9961-1.0195-.9961-.5235 0-1.1387.1582-1.8457.4746l-.5918-1.2071c.7539-.3945 1.5898-.5917 2.5078-.5917.8789 0 1.5527.1914 2.0215.5742.4687.3828.7031.9648.7031 1.7461v4.3652zm-.5274-3.0352-.6914.0235c-.5195.0156-.9062.1094-1.1601.2812-.254.1719-.3809.4336-.3809.7852 0 .5039.2891.7558.8672.7558.414 0 .7441-.1191.9902-.3574.25-.2383.375-.5547.375-.9492zm8.2617 3.0352-.2402-.8379h-.0938c-.1914.3047-.4628.541-.8144.709-.3516.1641-.752.2461-1.2012.2461-.7695 0-1.3496-.2051-1.7402-.6152-.3906-.4141-.586-1.0079-.586-1.7813v-4.2715h1.7872v3.8262c0 .4726.0839.8281.2519 1.0664.168.2344.4356.3516.8027.3516.5 0 .8614-.1661 1.084-.4981.2227-.3359.334-.8906.334-1.6641v-3.082h1.7871v6.5508zm5.0332 0h-1.7871v-9.1172h1.7871zm4.6407-1.3066c.3125 0 .6875-.0684 1.125-.2051v1.3301c-.4454.1992-.9922.2988-1.6407.2988-.7148 0-1.2363-.1797-1.5644-.5391-.3242-.3633-.4863-.9062-.4863-1.6289v-3.1582h-.8555v-.7558l.9844-.5977.5156-1.3828h1.1426v1.3945h1.8339v1.3418h-1.8339v3.1582c0 .2539.0703.4414.2109.5625.1445.1211.334.1817.5684.1817z" fill="#7d808d"/><path d="m337.178 57.5v-8.5664h.996v7.6641h3.779v.9023zm10.287 0-.194-.9141h-.046c-.321.4024-.641.6758-.961.8203-.317.1407-.713.211-1.19.211-.636 0-1.136-.1641-1.5-.4922-.359-.3281-.539-.7949-.539-1.4004 0-1.2969 1.037-1.9766 3.111-2.0391l1.09-.0351v-.3984c0-.504-.109-.875-.328-1.1133-.215-.2422-.56-.3633-1.037-.3633-.535 0-1.141.1641-1.816.4922l-.299-.7442c.316-.1718.662-.3066 1.037-.4043.379-.0976.758-.1464 1.137-.1464.765 0 1.332.1699 1.699.5097.371.3399.557.8848.557 1.6348v4.3828zm-2.197-.6855c.605 0 1.08-.1661 1.423-.4981.348-.332.522-.7969.522-1.3945v-.5801l-.973.041c-.773.0274-1.332.1484-1.676.3633-.339.2109-.509.541-.509.9902 0 .3516.105.6192.316.8028.215.1836.514.2754.897.2754zm8.166-5.8418c.843 0 1.498.289 1.962.8671.469.5743.704 1.3887.704 2.4434s-.237 1.875-.709 2.4609c-.469.5821-1.121.8731-1.957.8731-.418 0-.801-.0762-1.149-.2285-.344-.1563-.633-.3946-.867-.7149h-.07l-.205.8262h-.698v-9.1172h.973v2.2149c0 .4961-.016.9414-.047 1.3359h.047c.453-.6406 1.125-.9609 2.016-.9609zm-.141.8144c-.664 0-1.143.1914-1.436.5742-.293.3789-.439 1.0196-.439 1.9219s.15 1.5488.451 1.9395c.301.3867.783.58 1.447.58.598 0 1.043-.2168 1.336-.6504.293-.4375.44-1.0644.44-1.8808 0-.836-.147-1.459-.44-1.8692-.293-.4101-.746-.6152-1.359-.6152zm7.475 5.8301c-.95 0-1.7-.2891-2.25-.8672-.547-.5781-.821-1.3809-.821-2.4082 0-1.0352.254-1.8574.762-2.4668.512-.6094 1.197-.9141 2.057-.9141.804 0 1.441.2657 1.91.7969.469.5274.703 1.2246.703 2.0918v.6152h-4.424c.02.754.209 1.3262.568 1.7168.364.3907.873.586 1.53.586.691 0 1.375-.1446 2.051-.4336v.8672c-.344.1484-.67.2539-.979.3164-.305.0664-.674.0996-1.107.0996zm-.264-5.8418c-.516 0-.928.168-1.236.5039-.305.3359-.485.8008-.539 1.3945h3.357c0-.6133-.137-1.082-.41-1.4062-.274-.3281-.664-.4922-1.172-.4922zm5.512 5.7246h-.973v-9.1172h.973z" fill="#464b52"/><rect fill="#cbcdd6" height="4" opacity=".2" rx="2" width="293" x="336" y="77"/><rect fill="#0063a3" height="4" rx="2" width="149" x="336" y="77"/><circle cx="490" cy="79" fill="#217cbb" opacity=".4" r="20"/><circle cx="490" cy="79" fill="#fff" r="9" stroke="#217cbb" stroke-width="2"/><g fill="#7d808d"><path d="m338.865 25h-1.787v-8.5664h4.91v1.4883h-3.123v2.209h2.906v1.4824h-2.906zm6.082-3.2871c0 .6484.106 1.1387.317 1.4707.215.332.562.498 1.043.498.476 0 .818-.164 1.025-.4921.211-.3321.316-.8243.316-1.4766 0-.6484-.105-1.1348-.316-1.459s-.557-.4863-1.037-.4863c-.477 0-.82.1621-1.031.4863-.211.3203-.317.8066-.317 1.459zm4.53 0c0 1.0664-.282 1.9004-.844 2.5019-.563.6016-1.346.9024-2.35.9024-.629 0-1.183-.1367-1.664-.4102-.48-.2773-.849-.6738-1.107-1.1894s-.387-1.1172-.387-1.8047c0-1.0703.279-1.9024.838-2.4961.558-.5938 1.344-.8906 2.355-.8906.629 0 1.184.1367 1.664.4101.481.2735.85.666 1.108 1.1778.258.5117.387 1.1113.387 1.7988zm4.136 3.4043c-2.039 0-3.058-1.1192-3.058-3.3574 0-1.1133.277-1.9629.832-2.5489.554-.5898 1.349-.8847 2.384-.8847.758 0 1.438.1484 2.04.4453l-.528 1.3828c-.281-.1133-.543-.2051-.785-.2754-.242-.0742-.484-.1113-.727-.1113-.929 0-1.394.6601-1.394 1.9804 0 1.2813.465 1.9219 1.394 1.9219.344 0 .663-.0449.956-.1347.293-.0938.585-.2383.878-.4336v1.5293c-.289.1836-.582.3105-.878.3808-.293.0703-.665.1055-1.114.1055zm8.157-.1172-.241-.8379h-.093c-.192.3047-.463.541-.815.709-.351.1641-.752.2461-1.201.2461-.77 0-1.35-.2051-1.74-.6152-.391-.4141-.586-1.0079-.586-1.7813v-4.2715h1.787v3.8262c0 .4726.084.8281.252 1.0664.168.2344.435.3516.803.3516.5 0 .861-.1661 1.084-.4981.222-.3359.334-.8906.334-1.6641v-3.082h1.787v6.5508zm7.816-1.9453c0 .6719-.234 1.1836-.703 1.5351-.465.3516-1.162.5274-2.092.5274-.477 0-.883-.0332-1.219-.0996-.336-.0625-.65-.1563-.943-.2813v-1.4765c.332.1562.705.2871 1.119.3925.418.1055.785.1582 1.102.1582.648 0 .972-.1875.972-.5625 0-.1406-.043-.2539-.129-.3398-.086-.0898-.234-.1894-.445-.2988-.211-.1133-.492-.2442-.844-.3926-.504-.2109-.875-.4063-1.113-.5859-.234-.1797-.406-.3848-.516-.6153-.105-.2344-.158-.5215-.158-.8613 0-.582.225-1.0313.674-1.3477.453-.3203 1.094-.4804 1.922-.4804.789 0 1.557.1718 2.303.5156l-.539 1.2891c-.329-.1407-.635-.2559-.92-.3457-.286-.0899-.577-.1348-.873-.1348-.528 0-.791.1426-.791.4277 0 .1602.084.2989.252.416.171.1172.544.2911 1.119.5215.511.2071.886.4004 1.125.5801.238.1797.414.3867.527.6211s.17.5137.17.8379zm4.107-3.457c-.379 0-.675.1211-.89.3632-.215.2383-.338.5782-.369 1.0196h2.507c-.007-.4414-.123-.7813-.345-1.0196-.223-.2421-.524-.3632-.903-.3632zm.252 5.5195c-1.054 0-1.879-.291-2.472-.8731-.594-.582-.891-1.4062-.891-2.4726 0-1.0977.273-1.9453.82-2.543.551-.6015 1.311-.9023 2.28-.9023.925 0 1.646.2636 2.162.791.515.5273.773 1.2558.773 2.1855v.8672h-4.224c.019.5078.169.9043.451 1.1895.281.2851.676.4277 1.183.4277.395 0 .768-.041 1.119-.123.352-.0821.719-.2129 1.102-.3926v1.3828c-.312.1562-.646.2715-1.002.3457-.355.0781-.789.1172-1.301.1172zm6.2 0c-.77 0-1.375-.2988-1.817-.8965-.437-.5977-.656-1.4258-.656-2.4844 0-1.0742.223-1.9101.668-2.5078.449-.6015 1.066-.9023 1.851-.9023.825 0 1.454.3203 1.887.9609h.059c-.09-.4883-.135-.9238-.135-1.3066v-2.0977h1.793v9.1172h-1.371l-.346-.8496h-.076c-.406.6445-1.025.9668-1.857.9668zm.626-1.4238c.458 0 .791-.1329 1.002-.3985.215-.2656.332-.7168.352-1.3535v-.1934c0-.7031-.109-1.207-.328-1.5117-.215-.3047-.567-.457-1.055-.457-.398 0-.709.1699-.931.5098-.219.3359-.329.8261-.329 1.4707 0 .6445.112 1.1289.334 1.4531.223.3203.541.4805.955.4805z"/><path d="m665.186 20.6348c0 1.4101-.403 2.4902-1.207 3.2402-.801.75-1.959 1.125-3.475 1.125h-2.426v-8.5664h2.69c1.398 0 2.484.3691 3.257 1.1074.774.7383 1.161 1.7695 1.161 3.0938zm-1.887.0468c0-1.8398-.813-2.7597-2.438-2.7597h-.966v5.5781h.779c1.75 0 2.625-.9395 2.625-2.8184zm3.445-3.9257c0-.5821.324-.8731.973-.8731.648 0 .972.291.972.8731 0 .2773-.082.4941-.246.6503-.16.1524-.402.2286-.726.2286-.649 0-.973-.293-.973-.8789zm1.863 8.2441h-1.787v-6.5508h1.787zm6.452-1.9453c0 .6719-.235 1.1836-.704 1.5351-.464.3516-1.162.5274-2.091.5274-.477 0-.883-.0332-1.219-.0996-.336-.0625-.65-.1563-.943-.2813v-1.4765c.332.1562.705.2871 1.119.3925.418.1055.785.1582 1.101.1582.649 0 .973-.1875.973-.5625 0-.1406-.043-.2539-.129-.3398-.086-.0898-.234-.1894-.445-.2988-.211-.1133-.492-.2442-.844-.3926-.504-.2109-.875-.4063-1.113-.5859-.235-.1797-.407-.3848-.516-.6153-.105-.2344-.158-.5215-.158-.8613 0-.582.224-1.0313.674-1.3477.453-.3203 1.093-.4804 1.922-.4804.789 0 1.556.1718 2.302.5156l-.539 1.2891c-.328-.1407-.635-.2559-.92-.3457-.285-.0899-.576-.1348-.873-.1348-.527 0-.791.1426-.791.4277 0 .1602.084.2989.252.416.172.1172.545.2911 1.119.5215.512.2071.887.4004 1.125.5801.239.1797.414.3867.528.6211.113.2344.17.5137.17.8379zm5.554 1.9453-.345-.8906h-.047c-.301.3789-.612.6426-.932.791-.316.1445-.73.2168-1.242.2168-.629 0-1.125-.1797-1.488-.5391-.36-.3593-.539-.8711-.539-1.5351 0-.6953.242-1.2071.726-1.5352.488-.332 1.223-.5156 2.203-.5508l1.137-.0351v-.2871c0-.6641-.34-.9961-1.02-.9961-.523 0-1.138.1582-1.845.4746l-.592-1.2071c.754-.3945 1.59-.5917 2.508-.5917.879 0 1.552.1914 2.021.5742s.703.9648.703 1.7461v4.3652zm-.527-3.0352-.691.0235c-.52.0156-.907.1094-1.161.2812-.254.1719-.38.4336-.38.7852 0 .5039.289.7558.867.7558.414 0 .744-.1191.99-.3574.25-.2383.375-.5547.375-.9492zm7.266-3.6386c.773 0 1.378.3027 1.816.9082.437.6015.656 1.4277.656 2.4785 0 1.082-.226 1.9199-.679 2.5137-.45.5937-1.063.8906-1.84.8906-.77 0-1.373-.2793-1.811-.8379h-.123l-.299.7207h-1.365v-9.1172h1.787v2.1211c0 .2695-.023.7012-.07 1.2949h.07c.418-.6484 1.037-.9726 1.858-.9726zm-.575 1.4297c-.441 0-.763.1367-.966.4101-.204.2695-.309.7168-.317 1.3418v.1934c0 .7031.104 1.207.311 1.5117.211.3047.543.457.996.457.367 0 .658-.1679.873-.5039.219-.3398.328-.832.328-1.4765 0-.6446-.109-1.127-.328-1.4473-.219-.3242-.518-.4863-.897-.4863zm6.311 5.2441h-1.787v-9.1172h1.787zm4.594-5.4023c-.379 0-.676.1211-.891.3632-.215.2383-.338.5782-.369 1.0196h2.508c-.008-.4414-.123-.7813-.346-1.0196-.223-.2421-.523-.3632-.902-.3632zm.252 5.5195c-1.055 0-1.879-.291-2.473-.8731-.594-.582-.891-1.4062-.891-2.4726 0-1.0977.274-1.9453.821-2.543.55-.6015 1.31-.9023 2.279-.9023.926 0 1.646.2636 2.162.791.516.5273.773 1.2558.773 2.1855v.8672h-4.224c.019.5078.17.9043.451 1.1895.281.2851.676.4277 1.184.4277.394 0 .767-.041 1.119-.123.351-.0821.719-.2129 1.101-.3926v1.3828c-.312.1562-.646.2715-1.002.3457-.355.0781-.789.1172-1.3.1172zm6.199 0c-.77 0-1.375-.2988-1.817-.8965-.437-.5977-.656-1.4258-.656-2.4844 0-1.0742.223-1.9101.668-2.5078.449-.6015 1.067-.9023 1.852-.9023.824 0 1.453.3203 1.886.9609h.059c-.09-.4883-.135-.9238-.135-1.3066v-2.0977h1.793v9.1172h-1.371l-.346-.8496h-.076c-.406.6445-1.025.9668-1.857.9668zm.627-1.4238c.457 0 .791-.1329 1.002-.3985.215-.2656.332-.7168.351-1.3535v-.1934c0-.7031-.109-1.207-.328-1.5117-.215-.3047-.566-.457-1.055-.457-.398 0-.709.1699-.931.5098-.219.3359-.328.8261-.328 1.4707 0 .6445.111 1.1289.334 1.4531.222.3203.541.4805.955.4805z"/></g></svg>