<svg fill="none" height="240" viewBox="0 0 960 240" width="960" xmlns="http://www.w3.org/2000/svg" xmlns:xlink="http://www.w3.org/1999/xlink"><filter id="a" color-interpolation-filters="sRGB" filterUnits="userSpaceOnUse" height="167.5" width="335" x="138.5" y="38.25"><feFlood flood-opacity="0" result="BackgroundImageFix"/><feColorMatrix in="SourceAlpha" result="hardAlpha" type="matrix" values="0 0 0 0 0 0 0 0 0 0 0 0 0 0 0 0 0 0 127 0"/><feOffset dy="2"/><feGaussianBlur stdDeviation="2"/><feColorMatrix type="matrix" values="0 0 0 0 0 0 0 0 0 0 0 0 0 0 0 0 0 0 0.1 0"/><feBlend in2="BackgroundImageFix" mode="normal" result="effect1_dropShadow_310_61493"/><feBlend in="SourceGraphic" in2="effect1_dropShadow_310_61493" mode="normal" result="shape"/></filter><filter id="b" color-interpolation-filters="sRGB" filterUnits="userSpaceOnUse" height="167.5" width="335" x="619.5" y="38.25"><feFlood flood-opacity="0" result="BackgroundImageFix"/><feColorMatrix in="SourceAlpha" result="hardAlpha" type="matrix" values="0 0 0 0 0 0 0 0 0 0 0 0 0 0 0 0 0 0 127 0"/><feOffset dy="2"/><feGaussianBlur stdDeviation="2"/><feColorMatrix type="matrix" values="0 0 0 0 0 0 0 0 0 0 0 0 0 0 0 0 0 0 0.1 0"/><feBlend in2="BackgroundImageFix" mode="normal" result="effect1_dropShadow_310_61493"/><feBlend in="SourceGraphic" in2="effect1_dropShadow_310_61493" mode="normal" result="shape"/></filter><clipPath id="c"><path d="m0 0h960v240h-960z"/></clipPath><clipPath id="d"><path d="m0 0h5.5v11h-5.5z" transform="matrix(0 1 -1 0 245 86.75)"/></clipPath><clipPath id="e"><path d="m0 0h5.5v11h-5.5z" transform="matrix(0 1 -1 0 726 86.75)"/></clipPath><g clip-path="url(#c)"><path d="m0 0h479v240h-479z" fill="#f1f1f6"/><path clip-rule="evenodd" d="m239.5 82.25c11.598 0 21-9.402 21-21s-9.402-21-21-21v3.8182c9.489 0 17.182 7.6925 17.182 17.1818s-7.693 17.1818-17.182 17.1818-17.182-7.6925-17.182-17.1818h-3.818c0 11.598 9.402 21 21 21z" fill="#0063a3" fill-rule="evenodd"/><g filter="url(#a)"><rect fill="#fff" height="88.5" rx="7" width="195" x="142.5" y="92.25"/><g fill="#000"><path d="m158.799 112.579c-.165 0-.299-.144-.299-.321 0-.176.134-.32.299-.32h1.391v-3.587c-.043-.442-.17-.77-.363-1.002-.21-.252-.509-.399-.87-.463-.162-.028-.273-.192-.246-.367.026-.174.18-.292.343-.264.493.087.91.3 1.217.668.078.094.149.198.211.31.078-.146.171-.274.278-.387.32-.34.749-.525 1.261-.594.164-.021.313.104.333.28.02.175-.097.335-.261.356-.383.051-.694.18-.912.411-.217.23-.353.572-.393 1.053v3.585h1.413c.165 0 .299.144.299.32 0 .177-.134.321-.299.321h-1.413v3.57c.04.481.176.824.393 1.053.218.23.529.36.912.411.164.021.281.182.261.356-.02.176-.169.301-.333.28-.512-.069-.941-.254-1.261-.594-.107-.113-.2-.241-.278-.387-.062.113-.133.216-.211.31-.308.368-.724.581-1.217.668-.163.028-.316-.09-.343-.264s.084-.338.246-.367c.361-.064.66-.211.87-.463.193-.231.32-.561.363-1.002v-3.57z" fill-opacity=".3"/><path d="m177.844 110.75c-.047-.396-.237-.703-.571-.922-.333-.219-.742-.328-1.226-.328-.354 0-.664.057-.93.172-.263.114-.469.272-.617.473-.146.2-.219.428-.219.683 0 .214.051.397.153.551.104.151.237.277.398.379.161.099.331.181.508.246.177.062.34.113.488.152l.813.219c.208.055.44.13.695.227.258.096.504.227.738.394.237.164.433.375.586.633.154.258.231.574.231.949 0 .432-.114.823-.34 1.172-.224.349-.552.626-.985.832-.429.206-.951.309-1.566.309-.573 0-1.069-.093-1.488-.278-.417-.185-.745-.442-.985-.773-.237-.331-.371-.715-.402-1.152h1c.026.302.128.552.305.749.179.196.406.342.679.438.276.094.573.141.891.141.37 0 .702-.06.996-.18.294-.122.527-.292.699-.508.172-.219.258-.474.258-.766 0-.265-.074-.481-.223-.648-.148-.167-.343-.302-.585-.406-.243-.104-.504-.196-.786-.274l-.984-.281c-.625-.18-1.12-.436-1.484-.769-.365-.334-.547-.77-.547-1.309 0-.448.121-.839.363-1.172.245-.336.573-.596.984-.781.414-.188.877-.281 1.387-.281.516 0 .974.092 1.375.277.401.182.719.432.953.75.237.318.362.678.375 1.082zm2.514 8.25v-8.25h.891v.953h.109c.068-.104.162-.237.282-.398.122-.164.297-.31.523-.438.229-.13.539-.195.93-.195.505 0 .95.126 1.336.379.385.252.686.61.902 1.074s.324 1.01.324 1.641c0 .635-.108 1.186-.324 1.652-.216.464-.516.823-.898 1.078-.383.253-.825.379-1.325.379-.385 0-.694-.064-.925-.191-.232-.131-.411-.278-.536-.442-.125-.166-.221-.305-.289-.414h-.078v3.172zm.907-5.25c0 .453.066.853.199 1.199.133.344.327.613.582.809.255.193.568.289.937.289.386 0 .707-.102.965-.305.261-.206.456-.482.586-.828.133-.349.199-.737.199-1.164 0-.422-.065-.802-.195-1.141-.128-.341-.322-.61-.582-.808-.258-.201-.582-.301-.973-.301-.375 0-.69.095-.945.285-.255.188-.448.451-.578.789-.13.336-.195.728-.195 1.176zm5.797 3v-6h.921v6zm.468-7c-.179 0-.334-.061-.465-.184-.127-.122-.191-.269-.191-.441s.064-.319.191-.441c.131-.123.286-.184.465-.184.18 0 .334.061.461.184.13.122.196.269.196.441s-.066.319-.196.441c-.127.123-.281.184-.461.184zm3.064 3.391v3.609h-.922v-6h.89v.937h.079c.14-.304.354-.549.64-.734.287-.187.657-.281 1.11-.281.406 0 .761.083 1.066.25.305.164.542.414.711.75.169.333.254.755.254 1.266v3.812h-.922v-3.75c0-.471-.122-.839-.367-1.102-.245-.265-.581-.398-1.008-.398-.294 0-.557.064-.789.191-.229.128-.41.314-.543.559s-.199.542-.199.891zm6.434 0v3.609h-.922v-6h.891v.937h.078c.141-.304.354-.549.641-.734.286-.187.656-.281 1.109-.281.406 0 .762.083 1.067.25.304.164.541.414.711.75.169.333.253.755.253 1.266v3.812h-.921v-3.75c0-.471-.123-.839-.368-1.102-.244-.265-.58-.398-1.007-.398-.295 0-.558.064-.789.191-.23.128-.411.314-.543.559-.133.245-.2.542-.2.891zm8.029 3.734c-.578 0-1.077-.128-1.496-.383-.417-.258-.739-.617-.965-1.078-.224-.463-.336-1.003-.336-1.617 0-.615.112-1.156.336-1.625.226-.471.541-.839.945-1.102.406-.265.88-.398 1.422-.398.312 0 .621.052.926.156.304.104.582.274.832.508.25.232.449.539.597.922.149.383.223.854.223 1.414v.39h-4.625v-.796h3.688c0-.339-.068-.641-.204-.907-.132-.265-.323-.475-.57-.629-.245-.153-.534-.23-.867-.23-.367 0-.685.091-.953.273-.266.18-.47.414-.614.704-.143.289-.214.599-.214.929v.532c0 .453.078.837.234 1.152.159.312.379.551.66.715.281.161.608.242.981.242.242 0 .461-.034.656-.102.198-.07.368-.174.512-.312.143-.141.254-.315.332-.524l.89.25c-.093.302-.251.568-.472.797-.222.227-.495.404-.821.531-.325.126-.691.188-1.097.188zm3.886-.125v-6h.891v.906h.062c.11-.297.308-.538.594-.722.287-.185.61-.278.969-.278.068 0 .152.002.254.004.101.003.178.007.23.012v.937c-.031-.007-.103-.019-.214-.035-.11-.018-.226-.027-.348-.027-.292 0-.552.061-.781.183-.227.12-.407.287-.539.5-.131.211-.196.452-.196.723v3.797z"/><path d="m176.141 127.75v8h-.969v-6.984h-.047l-1.953 1.296v-.984l2-1.328zm4.8 8.109c-.458 0-.871-.091-1.238-.273s-.661-.432-.883-.75c-.221-.318-.342-.68-.363-1.086h.938c.036.362.2.661.492.898.294.235.646.352 1.054.352.329 0 .62-.077.875-.23.258-.154.46-.365.606-.633.148-.271.223-.577.223-.918 0-.349-.077-.66-.231-.934-.151-.276-.359-.493-.625-.652s-.569-.24-.91-.242c-.245-.003-.496.035-.754.113-.258.075-.47.173-.637.293l-.906-.11.484-3.937h4.157v.859h-3.344l-.281 2.36h.047c.164-.13.369-.239.617-.324.247-.086.505-.129.773-.129.49 0 .926.117 1.309.351.385.232.687.55.906.953.221.404.332.865.332 1.383 0 .511-.115.966-.344 1.367-.226.399-.539.714-.937.946-.399.229-.852.343-1.36.343zm8.271-1.609v-.422c0-.292.06-.558.18-.801.122-.244.299-.44.531-.586.234-.148.518-.222.851-.222.339 0 .623.074.852.222.229.146.402.342.52.586.117.243.175.509.175.801v.422c0 .292-.06.56-.179.805-.118.242-.292.437-.524.586-.229.145-.51.218-.844.218-.338 0-.623-.073-.855-.218-.232-.149-.408-.344-.527-.586-.12-.245-.18-.513-.18-.805zm.797-.422v.422c0 .242.057.46.172.652.114.19.312.285.593.285.274 0 .467-.095.579-.285.114-.192.171-.41.171-.652v-.422c0-.242-.054-.458-.164-.648-.109-.193-.304-.289-.586-.289-.273 0-.47.096-.589.289-.118.19-.176.406-.176.648zm-4.781-4.156v-.422c0-.292.059-.559.179-.801.123-.245.3-.44.531-.586.235-.148.519-.222.852-.222.339 0 .622.074.852.222.229.146.402.341.519.586.117.242.176.509.176.801v.422c0 .292-.06.56-.18.805-.117.242-.291.437-.523.585-.229.146-.511.219-.844.219-.339 0-.624-.073-.855-.219-.232-.148-.408-.343-.528-.585-.12-.245-.179-.513-.179-.805zm.796-.422v.422c0 .242.058.46.172.652.115.19.313.285.594.285.273 0 .466-.095.578-.285.115-.192.172-.41.172-.652v-.422c0-.242-.055-.458-.164-.648-.109-.193-.305-.29-.586-.29-.273 0-.47.097-.59.29-.117.19-.176.406-.176.648zm-.5 6.5 5.5-8h.891l-5.5 8zm12.329-2.797c-.193 0-.359-.069-.497-.207s-.207-.303-.207-.496.069-.358.207-.496.304-.207.497-.207c.192 0 .358.069.496.207s.207.303.207.496c0 .128-.033.245-.098.352-.062.106-.147.192-.254.257-.104.063-.221.094-.351.094zm5.451 2.797v-6h.922v6zm.468-7c-.179 0-.334-.061-.464-.184-.128-.122-.192-.269-.192-.441s.064-.319.192-.441c.13-.123.285-.184.464-.184.18 0 .334.061.461.184.131.122.196.269.196.441s-.065.319-.196.441c-.127.123-.281.184-.461.184zm3.064 3.391v3.609h-.922v-6h.891v.937h.078c.14-.304.354-.549.64-.734.287-.187.657-.281 1.11-.281.406 0 .762.083 1.066.25.305.164.542.414.711.75.169.333.254.755.254 1.266v3.812h-.922v-3.75c0-.471-.122-.839-.367-1.102-.245-.265-.581-.398-1.008-.398-.294 0-.557.064-.789.191-.229.128-.41.314-.543.559s-.199.542-.199.891zm9.763-1.047-.828.234c-.053-.138-.129-.272-.231-.402-.099-.133-.234-.242-.406-.328s-.392-.129-.66-.129c-.368 0-.674.084-.918.254-.243.166-.364.379-.364.636 0 .23.084.411.25.543.167.133.427.244.782.332l.89.219c.537.13.936.33 1.199.598.263.265.395.608.395 1.027 0 .344-.099.651-.297.922-.195.271-.469.484-.82.641-.352.156-.761.234-1.227.234-.612 0-1.118-.133-1.519-.398-.401-.266-.655-.654-.762-1.165l.875-.218c.083.323.241.565.473.726.234.162.54.242.918.242.429 0 .77-.091 1.023-.273.255-.185.383-.406.383-.664 0-.208-.073-.383-.219-.523-.146-.144-.37-.25-.672-.321l-1-.234c-.549-.13-.953-.332-1.211-.606-.255-.276-.382-.621-.382-1.035 0-.338.095-.638.285-.898.192-.261.454-.465.785-.613.333-.149.711-.223 1.133-.223.593 0 1.06.13 1.398.39.341.261.583.605.727 1.032zm1.497 4.656v-6h.922v6zm.468-7c-.179 0-.334-.061-.464-.184-.128-.122-.192-.269-.192-.441s.064-.319.192-.441c.13-.123.285-.184.464-.184.18 0 .334.061.461.184.131.122.196.269.196.441s-.065.319-.196.441c-.127.123-.281.184-.461.184zm4.408 7.125c-.5 0-.942-.126-1.325-.379-.382-.255-.682-.614-.898-1.078-.216-.466-.324-1.017-.324-1.652 0-.631.108-1.177.324-1.641s.517-.822.902-1.074c.386-.253.831-.379 1.336-.379.391 0 .7.065.926.195.229.128.404.274.524.438.122.161.217.294.285.398h.078v-2.953h.922v8h-.891v-.922h-.109c-.068.109-.164.248-.289.414-.125.164-.304.311-.536.442-.231.127-.54.191-.925.191zm.125-.828c.369 0 .682-.096.937-.289.255-.196.449-.465.582-.809.133-.346.199-.746.199-1.199 0-.448-.065-.84-.195-1.176-.13-.338-.323-.601-.578-.789-.255-.19-.57-.285-.945-.285-.391 0-.716.1-.977.301-.258.198-.452.467-.582.808-.128.339-.191.719-.191 1.141 0 .427.065.815.195 1.164.133.346.328.622.586.828.26.203.583.305.969.305zm6.957.828c-.578 0-1.077-.128-1.496-.383-.417-.258-.739-.617-.965-1.078-.224-.463-.336-1.003-.336-1.617 0-.615.112-1.156.336-1.625.226-.471.541-.839.945-1.102.406-.265.88-.398 1.422-.398.312 0 .621.052.926.156.304.104.582.274.832.508.25.232.449.539.597.922.149.383.223.854.223 1.414v.39h-4.625v-.796h3.688c0-.339-.068-.641-.204-.907-.132-.265-.322-.475-.57-.629-.245-.153-.534-.23-.867-.23-.367 0-.685.091-.953.273-.266.18-.47.414-.613.704-.144.289-.215.599-.215.929v.532c0 .453.078.837.234 1.152.159.312.379.551.66.715.281.161.608.242.981.242.242 0 .461-.034.656-.102.198-.07.368-.174.512-.312.143-.141.254-.315.332-.524l.89.25c-.093.302-.251.568-.472.797-.222.227-.495.404-.821.531-.325.126-.691.188-1.097.188z"/></g><path d="m164 132.25h-8v-2h8z" fill="#8c8c8c"/><path d="m164 151.25h-8v-2h8z" fill="#8c8c8c"/><path d="m196.328 154.75 1.313-8h.781l-1.313 8zm-3.64-2.219.125-.781h5.968l-.125.781zm.828 2.219 1.312-8h.781l-1.312 8zm-.36-5 .125-.781h5.969l-.125.781zm9.721 5.109c-.589 0-1.09-.16-1.504-.48-.414-.323-.73-.79-.949-1.402-.219-.615-.328-1.357-.328-2.227 0-.865.109-1.603.328-2.215.221-.614.539-1.083.953-1.406.417-.326.917-.488 1.5-.488s1.082.162 1.496.488c.417.323.734.792.953 1.406.222.612.332 1.35.332 2.215 0 .87-.109 1.612-.328 2.227-.219.612-.535 1.079-.949 1.402-.414.32-.916.48-1.504.48zm0-.859c.583 0 1.036-.281 1.359-.844.323-.562.485-1.364.485-2.406 0-.693-.075-1.283-.223-1.77-.146-.487-.357-.858-.633-1.113-.273-.255-.603-.383-.988-.383-.578 0-1.03.286-1.356.856-.325.568-.488 1.371-.488 2.41 0 .693.073 1.281.219 1.766.146.484.355.852.629 1.105.276.253.608.379.996.379zm6.875.859c-.589 0-1.09-.16-1.504-.48-.414-.323-.73-.79-.949-1.402-.219-.615-.328-1.357-.328-2.227 0-.865.109-1.603.328-2.215.221-.614.539-1.083.953-1.406.417-.326.917-.488 1.5-.488s1.082.162 1.496.488c.417.323.734.792.953 1.406.222.612.332 1.35.332 2.215 0 .87-.109 1.612-.328 2.227-.219.612-.535 1.079-.949 1.402-.414.32-.916.48-1.504.48zm0-.859c.583 0 1.036-.281 1.359-.844.323-.562.485-1.364.485-2.406 0-.693-.075-1.283-.223-1.77-.146-.487-.357-.858-.633-1.113-.273-.255-.603-.383-.988-.383-.578 0-1.03.286-1.356.856-.325.568-.488 1.371-.488 2.41 0 .693.073 1.281.219 1.766.146.484.355.852.629 1.105.276.253.608.379.996.379zm6.922.859c-.328-.005-.656-.067-.985-.187-.328-.12-.627-.322-.898-.606-.271-.286-.488-.673-.652-1.16-.164-.489-.246-1.104-.246-1.844 0-.708.066-1.335.199-1.882.133-.55.325-1.012.578-1.387.253-.378.557-.664.914-.859.359-.196.764-.293 1.215-.293.448 0 .846.089 1.195.269.352.177.638.425.86.742.221.318.364.684.429 1.098h-.953c-.088-.359-.26-.658-.516-.895-.255-.237-.593-.355-1.015-.355-.62 0-1.108.27-1.465.809-.354.539-.533 1.295-.535 2.269h.062c.146-.221.319-.41.52-.566.203-.159.427-.282.672-.367.245-.086.504-.129.777-.129.458 0 .878.114 1.258.343.38.227.685.541.914.942.229.398.344.855.344 1.371 0 .495-.111.948-.332 1.359-.222.409-.533.735-.934.977-.398.239-.867.357-1.406.351zm0-.859c.328 0 .622-.082.883-.246.263-.164.47-.384.621-.66.153-.276.23-.584.23-.922 0-.331-.074-.632-.222-.902-.146-.274-.348-.491-.606-.653-.255-.161-.547-.242-.875-.242-.247 0-.478.049-.691.148-.214.097-.401.23-.563.399-.159.169-.284.363-.375.582-.091.216-.137.444-.137.683 0 .318.075.615.223.891.151.276.357.499.617.668.263.169.561.254.895.254zm6.911.859c-.516 0-.975-.088-1.379-.265-.401-.177-.72-.423-.957-.739-.234-.317-.362-.686-.383-1.105h.985c.02.258.109.48.265.668.156.185.361.328.613.43.253.101.533.152.84.152.344 0 .649-.06.914-.18.266-.119.474-.286.625-.5.151-.213.227-.461.227-.742 0-.294-.073-.553-.219-.777-.146-.227-.359-.404-.64-.531-.282-.128-.625-.192-1.032-.192h-.64v-.859h.64c.318 0 .597-.058.836-.172.242-.115.431-.276.567-.485.138-.208.207-.453.207-.734 0-.271-.06-.506-.18-.707-.12-.2-.289-.357-.508-.469-.216-.112-.471-.168-.765-.168-.276 0-.537.051-.782.153-.242.099-.44.243-.593.433-.154.188-.237.414-.25.68h-.938c.016-.419.142-.786.379-1.102.237-.317.547-.565.93-.742.385-.177.808-.265 1.269-.265.495 0 .919.1 1.274.3.354.198.626.46.816.786.19.325.285.677.285 1.054 0 .451-.118.835-.355 1.153-.235.317-.554.537-.957.66v.062c.505.084.899.298 1.183.645.284.344.426.769.426 1.277 0 .435-.118.826-.355 1.172-.235.344-.555.615-.961.812-.407.198-.869.297-1.387.297zm4.769-.109h-1.015l2.937-8h1l2.938 8h-1.016l-2.39-6.734h-.063zm.375-3.125h4.094v.859h-4.094zm9.293 3.234c-.515 0-.975-.088-1.378-.265-.401-.177-.72-.423-.957-.739-.235-.317-.362-.686-.383-1.105h.984c.021.258.109.48.266.668.156.185.36.328.613.43.253.101.533.152.84.152.344 0 .648-.06.914-.18.266-.119.474-.286.625-.5.151-.213.226-.461.226-.742 0-.294-.072-.553-.218-.777-.146-.227-.36-.404-.641-.531-.281-.128-.625-.192-1.031-.192h-.641v-.859h.641c.318 0 .596-.058.836-.172.242-.115.431-.276.566-.485.138-.208.207-.453.207-.734 0-.271-.06-.506-.179-.707-.12-.2-.29-.357-.508-.469-.216-.112-.472-.168-.766-.168-.276 0-.536.051-.781.153-.242.099-.44.243-.594.433-.154.188-.237.414-.25.68h-.937c.015-.419.142-.786.378-1.102.237-.317.547-.565.93-.742.386-.177.809-.265 1.27-.265.495 0 .919.1 1.273.3.354.198.626.46.817.786.19.325.285.677.285 1.054 0 .451-.119.835-.356 1.153-.234.317-.553.537-.957.66v.062c.505.084.9.298 1.184.645.284.344.426.769.426 1.277 0 .435-.119.826-.356 1.172-.234.344-.555.615-.961.812-.406.198-.868.297-1.387.297z" fill="#000"/><path d="m193.381 166.75v-7.273h2.457c.571 0 1.037.103 1.399.309.365.204.635.48.81.828s.263.736.263 1.164c0 .429-.088.818-.263 1.169-.173.35-.44.629-.803.838-.362.206-.826.309-1.392.309h-1.761v-.782h1.733c.39 0 .704-.067.941-.202s.408-.317.515-.547c.109-.232.163-.493.163-.785 0-.291-.054-.551-.163-.781-.107-.229-.28-.409-.519-.54-.239-.132-.556-.198-.951-.198h-1.549v6.491zm6.234 0v-5.455h.809v.824h.057c.1-.27.28-.489.54-.657s.554-.252.881-.252c.061 0 .138.001.23.004.093.002.163.006.21.01v.853c-.028-.007-.094-.018-.195-.032-.1-.017-.205-.025-.316-.025-.266 0-.502.056-.711.167-.206.109-.369.26-.49.454-.118.192-.177.411-.177.657v3.452zm3.72 0v-5.455h.838v5.455zm.427-6.364c-.164 0-.305-.055-.423-.167-.116-.111-.174-.245-.174-.401s.058-.29.174-.401c.118-.111.259-.167.423-.167.163 0 .303.056.419.167.118.111.177.245.177.401s-.059.29-.177.401c-.116.112-.256.167-.419.167zm1.946 6.364v-5.455h.81v.853h.071c.114-.291.297-.518.551-.679.253-.163.557-.245.912-.245.36 0 .66.082.899.245.241.161.429.388.564.679h.057c.14-.282.349-.506.629-.671.279-.169.614-.253 1.005-.253.487 0 .886.153 1.196.459.31.303.466.775.466 1.416v3.651h-.839v-3.651c0-.402-.11-.69-.33-.862-.22-.173-.479-.26-.777-.26-.384 0-.681.116-.892.348-.211.23-.316.521-.316.874v3.551h-.852v-3.736c0-.31-.101-.56-.302-.749-.201-.192-.46-.288-.778-.288-.217 0-.421.058-.61.174-.188.116-.339.277-.455.483-.114.204-.17.439-.17.707v3.409zm10.297.128c-.346 0-.659-.065-.941-.195-.282-.133-.506-.324-.671-.572-.166-.251-.249-.554-.249-.909 0-.313.062-.566.185-.76.123-.197.287-.351.493-.462s.434-.194.682-.248c.251-.057.503-.102.757-.135.331-.043.6-.075.806-.096.208-.024.36-.063.454-.117.097-.055.146-.15.146-.285v-.028c0-.35-.096-.623-.288-.817-.189-.194-.477-.291-.863-.291-.4 0-.713.088-.941.263-.227.175-.387.362-.479.561l-.796-.284c.142-.332.332-.59.569-.774.239-.187.499-.318.781-.391.284-.076.563-.114.838-.114.175 0 .376.022.604.064.229.041.451.125.664.252.215.128.394.321.536.579s.213.604.213 1.037v3.594h-.838v-.739h-.043c-.057.119-.151.245-.284.38-.132.135-.309.25-.529.345-.22.094-.489.142-.806.142zm.128-.753c.331 0 .611-.065.838-.195.23-.131.402-.299.518-.505.119-.206.178-.422.178-.649v-.767c-.036.042-.114.081-.234.117-.119.033-.256.062-.412.088-.154.024-.305.045-.451.064-.145.017-.262.031-.352.043-.218.028-.421.075-.611.139-.187.061-.338.155-.454.28-.114.123-.171.291-.171.504 0 .292.108.512.323.661.218.147.494.22.828.22zm3.902.625v-5.455h.809v.824h.057c.1-.27.279-.489.54-.657.26-.168.554-.252.881-.252.061 0 .138.001.23.004.093.002.163.006.21.01v.853c-.029-.007-.094-.018-.195-.032-.1-.017-.205-.025-.316-.025-.266 0-.502.056-.711.167-.206.109-.369.26-.49.454-.118.192-.177.411-.177.657v3.452zm4.426 2.045c-.142 0-.269-.011-.38-.035-.111-.021-.188-.043-.231-.064l.213-.739c.204.052.384.071.54.057s.295-.084.416-.209c.123-.123.235-.323.337-.6l.156-.427-2.017-5.483h.909l1.506 4.347h.057l1.505-4.347h.91l-2.316 6.25c-.104.282-.233.515-.387.7-.154.187-.332.326-.536.416-.201.089-.429.134-.682.134zm7.953-2.045v-7.273h2.457c.571 0 1.037.103 1.399.309.365.204.635.48.81.828s.263.736.263 1.164c0 .429-.088.818-.263 1.169-.173.35-.44.629-.802.838-.363.206-.827.309-1.393.309h-1.761v-.782h1.733c.391 0 .704-.067.941-.202s.408-.317.515-.547c.109-.232.163-.493.163-.785 0-.291-.054-.551-.163-.781-.107-.229-.279-.409-.518-.54-.24-.132-.557-.198-.952-.198h-1.548v6.491zm7.839.128c-.346 0-.659-.065-.941-.195-.282-.133-.505-.324-.671-.572-.166-.251-.249-.554-.249-.909 0-.313.062-.566.185-.76.123-.197.288-.351.493-.462.206-.111.434-.194.682-.248.251-.057.503-.102.757-.135.331-.043.6-.075.806-.096.208-.024.36-.063.454-.117.097-.055.146-.15.146-.285v-.028c0-.35-.096-.623-.288-.817-.189-.194-.477-.291-.863-.291-.4 0-.713.088-.941.263-.227.175-.387.362-.479.561l-.796-.284c.143-.332.332-.59.569-.774.239-.187.499-.318.781-.391.284-.076.563-.114.838-.114.175 0 .376.022.604.064.229.041.451.125.664.252.215.128.394.321.536.579s.213.604.213 1.037v3.594h-.838v-.739h-.043c-.056.119-.151.245-.284.38-.132.135-.309.25-.529.345-.22.094-.489.142-.806.142zm.128-.753c.331 0 .611-.065.838-.195.23-.131.402-.299.518-.505.119-.206.178-.422.178-.649v-.767c-.036.042-.114.081-.234.117-.119.033-.256.062-.412.088-.154.024-.305.045-.451.064-.145.017-.262.031-.352.043-.218.028-.421.075-.611.139-.187.061-.338.155-.454.28-.114.123-.171.291-.171.504 0 .292.108.512.323.661.218.147.494.22.828.22zm4.74-6.648v7.273h-.838v-7.273zm3.822 7.387c-.526 0-.979-.116-1.36-.348-.379-.235-.672-.561-.878-.98-.203-.422-.305-.912-.305-1.471 0-.558.102-1.051.305-1.477.206-.428.493-.762.86-1.001.369-.242.8-.363 1.292-.363.285 0 .565.048.842.142.277.095.529.249.756.462.228.211.409.49.544.838s.202.777.202 1.286v.355h-4.204v-.725h3.352c0-.307-.062-.582-.185-.823-.12-.242-.293-.433-.518-.572-.223-.14-.486-.21-.789-.21-.333 0-.622.083-.866.249-.242.163-.427.376-.558.639-.13.263-.195.545-.195.845v.483c0 .412.071.761.213 1.048.145.284.345.5.6.65.256.146.553.22.892.22.22 0 .419-.031.596-.093.18-.063.335-.158.465-.284.131-.127.231-.286.302-.475l.81.227c-.085.274-.229.516-.43.724-.201.206-.45.367-.745.483-.296.114-.629.171-.998.171zm5.905-5.569v.711h-2.827v-.711zm-2.003-1.306h.838v5.199c0 .236.035.414.103.532.071.116.161.194.27.235.112.037.229.056.352.056.092 0 .168-.004.227-.014.059-.012.107-.021.142-.028l.171.753c-.057.021-.137.042-.238.064-.102.023-.231.035-.387.035-.237 0-.469-.051-.696-.153-.225-.101-.412-.257-.561-.465-.147-.208-.221-.471-.221-.788zm5.636 1.306v.711h-2.827v-.711zm-2.003-1.306h.838v5.199c0 .236.035.414.103.532.071.116.161.194.27.235.111.037.229.056.352.056.092 0 .168-.004.227-.014.059-.012.106-.021.142-.028l.17.753c-.056.021-.136.042-.237.064-.102.023-.231.035-.388.035-.236 0-.468-.051-.696-.153-.224-.101-.412-.257-.561-.465-.146-.208-.22-.471-.22-.788zm5.492 6.875c-.526 0-.979-.116-1.36-.348-.379-.235-.671-.561-.877-.98-.204-.422-.306-.912-.306-1.471 0-.558.102-1.051.306-1.477.206-.428.492-.762.859-1.001.369-.242.8-.363 1.293-.363.284 0 .564.048.841.142.277.095.53.249.757.462.227.211.408.49.543.838s.203.777.203 1.286v.355h-4.205v-.725h3.352c0-.307-.061-.582-.184-.823-.121-.242-.294-.433-.519-.572-.222-.14-.485-.21-.788-.21-.334 0-.623.083-.867.249-.241.163-.427.376-.557.639s-.196.545-.196.845v.483c0 .412.071.761.214 1.048.144.284.344.5.6.65.255.146.552.22.891.22.22 0 .419-.031.597-.093.18-.063.335-.158.465-.284.13-.127.231-.286.302-.475l.809.227c-.085.274-.228.516-.429.724-.202.206-.45.367-.746.483-.296.114-.629.171-.998.171zm6.104-7.728-2.343 8.708h-.767l2.343-8.708zm.71 1.123v-.782h5.454v.782h-2.287v6.491h-.88v-6.491zm6.133 6.491v-5.455h.81v.824h.057c.099-.27.279-.489.54-.657.26-.168.554-.252.88-.252.062 0 .139.001.231.004.093.002.162.006.21.01v.853c-.029-.007-.094-.018-.196-.032-.099-.017-.204-.025-.316-.025-.265 0-.502.056-.71.167-.206.109-.369.26-.49.454-.118.192-.177.411-.177.657v3.452zm3.721 0v-5.455h.838v5.455zm.426-6.364c-.163 0-.304-.055-.422-.167-.116-.111-.174-.245-.174-.401s.058-.29.174-.401c.118-.111.259-.167.422-.167.164 0 .303.056.419.167.119.111.178.245.178.401s-.059.29-.178.401c-.116.112-.255.167-.419.167zm1.947 6.364v-5.455h.81v.853h.071c.114-.291.297-.518.55-.679.254-.163.558-.245.913-.245.36 0 .659.082.898.245.242.161.43.388.565.679h.057c.14-.282.349-.506.628-.671.28-.169.615-.253 1.005-.253.488 0 .887.153 1.197.459.31.303.465.775.465 1.416v3.651h-.838v-3.651c0-.402-.11-.69-.33-.862-.22-.173-.479-.26-.778-.26-.383 0-.68.116-.891.348-.211.23-.316.521-.316.874v3.551h-.852v-3.736c0-.31-.101-.56-.302-.749-.201-.192-.461-.288-.778-.288-.218 0-.421.058-.611.174-.187.116-.338.277-.454.483-.114.204-.171.439-.171.707v3.409zm8.805 0v-7.273h.838v2.685h.071c.062-.095.147-.216.256-.362.111-.149.27-.282.476-.398.208-.118.49-.178.845-.178.459 0 .864.115 1.215.345.35.23.623.555.82.976.196.422.295.919.295 1.492 0 .578-.099 1.078-.295 1.502-.197.421-.469.748-.817.98-.348.23-.749.345-1.204.345-.35 0-.631-.058-.841-.174-.211-.119-.373-.253-.487-.402-.114-.151-.201-.277-.263-.376h-.099v.838zm.824-2.727c0 .412.06.775.181 1.09.121.312.297.557.529.735.232.175.516.263.853.263.35 0 .642-.093.877-.277.236-.187.414-.438.532-.753.121-.317.182-.67.182-1.058 0-.384-.06-.729-.178-1.037-.116-.31-.292-.555-.529-.735-.235-.183-.529-.274-.884-.274-.341 0-.628.087-.86.26-.232.17-.407.409-.525.717-.119.305-.178.662-.178 1.069zm6.112-4.546v7.273h-.838v-7.273zm3.822 7.387c-.526 0-.979-.116-1.361-.348-.378-.235-.671-.561-.877-.98-.203-.422-.305-.912-.305-1.471 0-.558.102-1.051.305-1.477.206-.428.493-.762.86-1.001.369-.242.8-.363 1.292-.363.284 0 .565.048.842.142.277.095.529.249.756.462.228.211.409.49.544.838s.202.777.202 1.286v.355h-4.205v-.725h3.353c0-.307-.062-.582-.185-.823-.121-.242-.293-.433-.518-.572-.223-.14-.486-.21-.789-.21-.334 0-.622.083-.866.249-.242.163-.428.376-.558.639s-.195.545-.195.845v.483c0 .412.071.761.213 1.048.144.284.344.5.6.65.256.146.553.22.892.22.22 0 .419-.031.596-.093.18-.063.335-.158.465-.284.131-.127.231-.286.302-.475l.81.227c-.085.274-.229.516-.43.724-.201.206-.45.367-.746.483-.296.114-.628.171-.997.171zm6.459-.114v-7.273h2.543c.506 0 .924.088 1.253.263.329.173.574.406.735.7.161.291.242.614.242.969 0 .313-.056.571-.167.774-.109.204-.253.365-.433.483-.178.119-.371.206-.579.263v.071c.222.014.446.092.671.234s.413.346.565.611c.151.265.227.59.227.973 0 .365-.083.693-.249.984-.165.291-.427.522-.785.692-.357.171-.822.256-1.395.256zm.881-.781h1.747c.575 0 .984-.112 1.225-.334.244-.225.366-.497.366-.817 0-.246-.063-.473-.188-.682-.126-.21-.305-.378-.537-.504-.232-.128-.506-.192-.824-.192h-1.789zm0-3.296h1.633c.265 0 .504-.052.718-.156.215-.104.385-.251.511-.44.128-.19.192-.412.192-.668 0-.32-.112-.591-.334-.813-.223-.225-.575-.337-1.058-.337h-1.662zm6.347-3.196v7.273h-.838v-7.273zm4.973 5.043v-3.225h.838v5.455h-.838v-.923h-.057c-.128.277-.327.512-.597.706-.269.192-.61.288-1.022.288-.341 0-.644-.075-.909-.224-.266-.151-.474-.378-.625-.682-.152-.305-.228-.69-.228-1.154v-3.466h.838v3.41c0 .397.112.715.334.951.225.237.512.355.86.355.208 0 .42-.053.635-.159.218-.107.4-.27.547-.49.149-.221.224-.501.224-.842zm4.66 2.344c-.526 0-.979-.116-1.36-.348-.379-.235-.671-.561-.877-.98-.204-.422-.306-.912-.306-1.471 0-.558.102-1.051.306-1.477.206-.428.492-.762.859-1.001.369-.242.8-.363 1.293-.363.284 0 .564.048.841.142.277.095.529.249.757.462.227.211.408.49.543.838s.202.777.202 1.286v.355h-4.204v-.725h3.352c0-.307-.061-.582-.185-.823-.12-.242-.293-.433-.518-.572-.223-.14-.485-.21-.788-.21-.334 0-.623.083-.867.249-.241.163-.427.376-.557.639-.131.263-.196.545-.196.845v.483c0 .412.071.761.213 1.048.145.284.345.5.6.65.256.146.553.22.892.22.22 0 .419-.031.596-.093.18-.063.335-.158.466-.284.13-.127.23-.286.301-.475l.81.227c-.085.274-.228.516-.43.724-.201.206-.449.367-.745.483-.296.114-.629.171-.998.171z" fill="#999"/><rect fill="#0063a3" height="16" rx="3" width="16" x="172.75" y="142.5"/><g clip-path="url(#d)"><path d="m239.5 86.75h11v11h-11z" fill="#fff" transform="matrix(.70710678 .70710678 -.70710678 .70710678 131.489439 -143.943587)"/></g><path d="m276 40.25v42" stroke="#e8178a"/><rect fill="#e8178a" height="18" rx="3" width="190" x="279.5" y="53.75"/><path d="m287.446 59.4773 1.758 5.5255h.067l1.762-5.5255h1.704l-2.507 7.2727h-1.981l-2.511-7.2727zm7.088 7.3757c-.348 0-.658-.0604-.93-.1811-.273-.1231-.488-.3042-.647-.5433-.156-.2415-.234-.5422-.234-.902 0-.3031.056-.5576.167-.7635.111-.206.263-.3717.454-.4972.192-.1255.41-.2202.654-.2841.246-.0639.504-.1089.774-.1349.317-.0332.573-.0639.767-.0924.194-.0307.335-.0757.423-.1349.087-.0592.131-.1468.131-.2628v-.0213c0-.2249-.071-.3989-.213-.522-.14-.1231-.339-.1847-.597-.1847-.272 0-.488.0604-.649.1811-.161.1184-.268.2676-.32.4475l-1.399-.1136c.071-.3315.21-.6179.419-.8594.208-.2439.477-.4309.806-.5611.331-.1326.715-.1989 1.15-.1989.304 0 .594.0355.871.1066.279.071.526.1811.742.3302.218.1492.389.3409.515.5753.125.232.188.5102.188.8345v3.679h-1.435v-.7564h-.042c-.088.1705-.205.3208-.352.451-.147.1278-.323.2285-.529.3018-.206.0711-.444.1066-.714.1066zm.433-1.0441c.223 0 .419-.0437.59-.1313.17-.09.304-.2107.401-.3623.097-.1515.146-.3231.146-.5149v-.5788c-.048.0308-.113.0592-.196.0852-.08.0237-.171.0462-.273.0675-.102.0189-.204.0367-.305.0533-.102.0142-.195.0272-.277.039-.178.0261-.333.0675-.466.1243-.132.0568-.235.1338-.309.2308-.073.0947-.11.2131-.11.3551 0 .206.075.3634.224.4723.152.1066.343.1598.575.1598zm3.812.9411v-5.4545h1.467v.9517h.057c.099-.3386.266-.5943.501-.7671.234-.1752.504-.2628.809-.2628.076 0 .158.0048.245.0142.088.0095.165.0225.231.0391v1.3423c-.071-.0213-.169-.0402-.295-.0568-.125-.0166-.24-.0249-.344-.0249-.223 0-.421.0486-.597.1456-.172.0947-.31.2273-.412.3978-.099.1704-.149.3669-.149.5895v3.0859zm4.092 0v-5.4545h1.513v5.4545zm.76-6.1577c-.225 0-.418-.0745-.579-.2237-.158-.1515-.238-.3326-.238-.5433 0-.2083.08-.3871.238-.5362.161-.1516.354-.2273.579-.2273s.417.0757.575.2273c.161.1491.242.3279.242.5362 0 .2107-.081.3918-.242.5433-.158.1492-.35.2237-.575.2237zm3.52 6.2607c-.348 0-.658-.0604-.93-.1811-.272-.1231-.488-.3042-.646-.5433-.157-.2415-.235-.5422-.235-.902 0-.3031.056-.5576.167-.7635.111-.206.263-.3717.455-.4972.191-.1255.409-.2202.653-.2841.246-.0639.504-.1089.774-.1349.317-.0332.573-.0639.767-.0924.194-.0307.335-.0757.423-.1349.087-.0592.131-.1468.131-.2628v-.0213c0-.2249-.071-.3989-.213-.522-.14-.1231-.338-.1847-.596-.1847-.273 0-.489.0604-.65.1811-.161.1184-.268.2676-.32.4475l-1.399-.1136c.071-.3315.211-.6179.419-.8594.208-.2439.477-.4309.806-.5611.332-.1326.715-.1989 1.151-.1989.303 0 .593.0355.87.1066.279.071.526.1811.742.3302.218.1492.389.3409.515.5753.125.232.188.5102.188.8345v3.679h-1.435v-.7564h-.042c-.088.1705-.205.3208-.352.451-.147.1278-.323.2285-.529.3018-.206.0711-.444.1066-.714.1066zm.434-1.0441c.222 0 .419-.0437.589-.1313.17-.09.304-.2107.401-.3623.097-.1515.146-.3231.146-.5149v-.5788c-.047.0308-.113.0592-.195.0852-.081.0237-.172.0462-.274.0675-.102.0189-.203.0367-.305.0533-.102.0142-.194.0272-.277.039-.178.0261-.333.0675-.465.1243-.133.0568-.236.1338-.309.2308-.074.0947-.11.2131-.11.3551 0 .206.074.3634.223.4723.152.1066.344.1598.576.1598zm3.84.9411v-7.2727h1.513v2.7343h.046c.066-.1467.162-.2959.288-.4474.128-.1539.293-.2817.497-.3835.206-.1042.461-.1563.767-.1563.398 0 .765.1042 1.101.3125.336.206.605.5173.806.934.201.4143.302.9339.302 1.5589 0 .6085-.099 1.1222-.295 1.5412-.194.4167-.459.7327-.796.9482-.333.213-.707.3196-1.122.3196-.293 0-.543-.0486-.749-.1456-.204-.0971-.37-.219-.501-.3658-.13-.1491-.229-.2995-.298-.451h-.067v.8736zm1.481-2.7273c0 .3244.045.6073.135.8487.09.2415.22.4297.39.5647.171.1326.378.1988.622.1988.246 0 .454-.0674.625-.2024.17-.1373.299-.3267.387-.5682.09-.2438.135-.5243.135-.8416 0-.3148-.044-.5918-.131-.8309-.088-.2391-.217-.4262-.388-.5611-.17-.135-.38-.2024-.628-.2024-.246 0-.455.0651-.625.1953-.168.1302-.297.3148-.387.554-.09.2391-.135.5208-.135.8451zm6.361-4.5454v7.2727h-1.513v-7.2727zm3.697 7.3792c-.561 0-1.044-.1136-1.448-.3409-.403-.2296-.713-.554-.931-.973-.218-.4214-.326-.9197-.326-1.495 0-.5611.108-1.0535.326-1.4773s.525-.754.92-.9908c.398-.2367.864-.3551 1.399-.3551.36 0 .695.058 1.005.174.313.1137.585.2853.817.515.234.2296.417.5184.547.8664.13.3457.195.7505.195 1.2145v.4155h-4.606v-.9375h3.182c0-.2178-.047-.4107-.142-.5788s-.226-.2995-.394-.3942c-.166-.0971-.359-.1456-.579-.1456-.23 0-.433.0533-.611.1598-.175.1042-.312.245-.412.4226-.099.1752-.15.3705-.152.5859v.8914c0 .2698.049.503.149.6995.101.1965.245.348.429.4546.185.1065.404.1598.657.1598.168 0 .322-.0237.462-.0711.14-.0473.259-.1183.359-.213.099-.0947.175-.2107.227-.348l1.399.0923c-.071.3362-.217.6297-.437.8807-.218.2486-.499.4427-.845.5824-.343.1373-.74.2059-1.19.2059zm10.344-4.0056-1.385.0852c-.024-.1184-.074-.2249-.153-.3196-.078-.0971-.181-.174-.309-.2308-.125-.0592-.275-.0888-.451-.0888-.234 0-.432.0497-.593.1491-.161.0971-.241.2273-.241.3906 0 .1303.052.2403.156.3303s.283.1622.536.2166l.988.1989c.53.1089.925.2841 1.186.5256.26.2414.39.5587.39.9517 0 .3574-.105.6711-.316.941-.208.2699-.494.4806-.859.6321-.362.1492-.78.2237-1.254.2237-.722 0-1.297-.1503-1.725-.451-.427-.303-.676-.7149-.75-1.2358l1.488-.0781c.045.2202.154.3883.327.5043.173.1136.394.1704.664.1704.265 0 .478-.0509.639-.1527.163-.1041.246-.2379.249-.4012-.003-.1374-.061-.2498-.174-.3374-.114-.09-.289-.1586-.526-.206l-.944-.1882c-.533-.1065-.93-.2912-1.19-.554-.258-.2627-.387-.5977-.387-1.0049 0-.3504.095-.6523.284-.9056.192-.2533.46-.4486.806-.5859.348-.1373.755-.206 1.222-.206.689 0 1.231.1456 1.626.4368.398.2912.63.6878.696 1.1897zm1.077 3.8991v-5.4545h1.513v5.4545zm.76-6.1577c-.225 0-.418-.0745-.579-.2237-.159-.1515-.238-.3326-.238-.5433 0-.2083.079-.3871.238-.5362.161-.1516.354-.2273.579-.2273s.417.0757.575.2273c.161.1491.242.3279.242.5362 0 .2107-.081.3918-.242.5433-.158.1492-.35.2237-.575.2237zm1.936 6.1577v-.902l2.671-3.3061v-.0391h-2.579v-1.2073h4.4v.9836l-2.507 3.2245v.039h2.6v1.2074zm8.071.1065c-.561 0-1.044-.1136-1.449-.3409-.402-.2296-.712-.554-.93-.973-.218-.4214-.327-.9197-.327-1.495 0-.5611.109-1.0535.327-1.4773s.524-.754.919-.9908c.398-.2367.865-.3551 1.4-.3551.359 0 .694.058 1.005.174.312.1137.584.2853.816.515.235.2296.417.5184.547.8664.13.3457.196.7505.196 1.2145v.4155h-4.606v-.9375h3.182c0-.2178-.048-.4107-.143-.5788-.094-.1681-.226-.2995-.394-.3942-.165-.0971-.358-.1456-.579-.1456-.229 0-.433.0533-.61.1598-.176.1042-.313.245-.412.4226-.1.1752-.151.3705-.153.5859v.8914c0 .2698.05.503.149.6995.102.1965.245.348.43.4546.185.1065.404.1598.657.1598.168 0 .322-.0237.461-.0711.14-.0473.26-.1183.359-.213.1-.0947.175-.2107.227-.348l1.4.0923c-.071.3362-.217.6297-.437.8807-.218.2486-.5.4427-.845.5824-.344.1373-.74.2059-1.19.2059zm6.139-3.022c0-.8807.117-1.6915.352-2.4325.236-.741.597-1.4276 1.083-2.0597h1.445c-.185.2344-.356.5209-.515.8594-.159.3362-.297.7055-.415 1.108-.119.4024-.211.8191-.277 1.25-.067.4285-.1.8534-.1 1.2748 0 .5611.057 1.1281.171 1.701.116.5706.272 1.1009.468 1.5909.199.4901.422.8914.668 1.2039h-1.445c-.486-.6321-.847-1.3187-1.083-2.0597-.235-.741-.352-1.553-.352-2.4361zm8.296-.9836-1.385.0852c-.023-.1184-.074-.2249-.152-.3196-.078-.0971-.181-.174-.309-.2308-.126-.0592-.276-.0888-.451-.0888-.235 0-.432.0497-.593.1491-.161.0971-.242.2273-.242.3906 0 .1303.052.2403.157.3303.104.09.282.1622.536.2166l.987.1989c.53.1089.926.2841 1.186.5256.26.2414.391.5587.391.9517 0 .3574-.106.6711-.316.941-.209.2699-.495.4806-.86.6321-.362.1492-.78.2237-1.253.2237-.722 0-1.298-.1503-1.726-.451-.426-.303-.676-.7149-.749-1.2358l1.487-.0781c.045.2202.154.3883.327.5043.173.1136.394.1704.664.1704.265 0 .478-.0509.639-.1527.164-.1041.247-.2379.249-.4012-.002-.1374-.06-.2498-.174-.3374-.114-.09-.289-.1586-.526-.206l-.944-.1882c-.533-.1065-.929-.2912-1.19-.554-.258-.2627-.387-.5977-.387-1.0049 0-.3504.095-.6523.284-.9056.192-.2533.461-.4486.806-.5859.348-.1373.756-.206 1.222-.206.689 0 1.231.1456 1.626.4368.398.2912.63.6878.696 1.1897zm4.575 1.5767v-3.1321h1.513v5.4545h-1.453v-.9908h-.056c-.123.3196-.328.5765-.615.7706-.284.1942-.631.2912-1.04.2912-.365 0-.686-.0828-.963-.2486-.277-.1657-.493-.4012-.649-.7066-.154-.3054-.232-.6712-.235-1.0973v-3.473h1.513v3.2031c.002.3219.089.5764.259.7635.171.187.399.2805.686.2805.182 0 .352-.0414.511-.1243.159-.0852.286-.2107.384-.3764.099-.1657.147-.3705.145-.6143zm5.18 4.4815c-.49 0-.91-.0675-1.26-.2024-.348-.1326-.625-.3137-.831-.5433-.206-.2297-.34-.4877-.402-.7742l1.4-.1882c.042.1089.11.2107.202.3054s.214.1704.366.2273c.154.0592.341.0887.561.0887.329 0 .6-.0804.813-.2414.215-.1587.323-.425.323-.799v-.9979h-.064c-.066.1515-.165.2947-.298.4297-.133.1349-.303.245-.511.3302-.209.0853-.457.1279-.746.1279-.41 0-.783-.0947-1.119-.2841-.334-.1918-.6-.4842-.799-.8771-.196-.3954-.294-.8949-.294-1.4986 0-.6179.1-1.134.301-1.5483.202-.4143.469-.7245.803-.9304.336-.206.704-.309 1.104-.309.306 0 .561.0521.767.1563.206.1018.372.2296.498.3835.127.1515.226.3007.294.4474h.057v-.9161h1.502v5.5078c0 .464-.113.8522-.341 1.1647-.227.3125-.542.5469-.944.7032-.4.1586-.861.2379-1.382.2379zm.032-3.3736c.244 0 .45-.0604.618-.1811.171-.1231.301-.2983.391-.5256.092-.2296.138-.5042.138-.8238s-.045-.5966-.135-.831c-.09-.2367-.22-.4202-.39-.5504-.171-.1302-.378-.1953-.622-.1953-.248 0-.458.0674-.628.2024-.171.1326-.3.3172-.387.554-.088.2367-.132.5101-.132.8203 0 .3148.044.5871.132.8167.09.2273.219.4037.387.5292.17.1231.38.1846.628.1846zm6.296 3.3736c-.49 0-.91-.0675-1.26-.2024-.348-.1326-.625-.3137-.831-.5433-.206-.2297-.34-.4877-.401-.7742l1.399-.1882c.042.1089.11.2107.202.3054s.214.1704.366.2273c.154.0592.341.0887.561.0887.329 0 .6-.0804.813-.2414.216-.1587.323-.425.323-.799v-.9979h-.064c-.066.1515-.165.2947-.298.4297-.132.1349-.303.245-.511.3302-.209.0853-.457.1279-.746.1279-.41 0-.782-.0947-1.119-.2841-.333-.1918-.6-.4842-.799-.8771-.196-.3954-.294-.8949-.294-1.4986 0-.6179.1-1.134.301-1.5483.202-.4143.469-.7245.803-.9304.336-.206.704-.309 1.104-.309.306 0 .562.0521.768.1563.205.1018.371.2296.497.3835.128.1515.226.3007.294.4474h.057v-.9161h1.502v5.5078c0 .464-.113.8522-.341 1.1647-.227.3125-.542.5469-.944.7032-.4.1586-.861.2379-1.382.2379zm.032-3.3736c.244 0 .45-.0604.618-.1811.171-.1231.301-.2983.391-.5256.092-.2296.138-.5042.138-.8238s-.045-.5966-.135-.831c-.089-.2367-.22-.4202-.39-.5504-.171-.1302-.378-.1953-.622-.1953-.248 0-.458.0674-.628.2024-.171.1326-.3.3172-.387.554-.088.2367-.132.5101-.132.8203 0 .3148.044.5871.132.8167.09.2273.219.4037.387.5292.17.1231.38.1846.628.1846zm6.325 1.321c-.561 0-1.044-.1136-1.449-.3409-.402-.2296-.712-.554-.93-.973-.218-.4214-.327-.9197-.327-1.495 0-.5611.109-1.0535.327-1.4773s.524-.754.919-.9908c.398-.2367.865-.3551 1.4-.3551.359 0 .694.058 1.005.174.312.1137.584.2853.816.515.235.2296.417.5184.547.8664.13.3457.196.7505.196 1.2145v.4155h-4.606v-.9375h3.182c0-.2178-.048-.4107-.143-.5788-.094-.1681-.226-.2995-.394-.3942-.165-.0971-.358-.1456-.579-.1456-.229 0-.433.0533-.61.1598-.176.1042-.313.245-.412.4226-.1.1752-.151.3705-.153.5859v.8914c0 .2698.05.503.149.6995.102.1965.245.348.43.4546.185.1065.404.1598.657.1598.168 0 .322-.0237.461-.0711.14-.0473.26-.1183.359-.213.1-.0947.175-.2107.227-.348l1.4.0923c-.071.3362-.217.6297-.437.8807-.218.2486-.5.4427-.845.5824-.344.1373-.74.2059-1.19.2059zm8.029-4.0056-1.385.0852c-.024-.1184-.074-.2249-.153-.3196-.078-.0971-.181-.174-.308-.2308-.126-.0592-.276-.0888-.451-.0888-.235 0-.433.0497-.594.1491-.161.0971-.241.2273-.241.3906 0 .1303.052.2403.156.3303s.283.1622.536.2166l.988.1989c.53.1089.925.2841 1.186.5256.26.2414.39.5587.39.9517 0 .3574-.105.6711-.316.941-.208.2699-.494.4806-.859.6321-.362.1492-.78.2237-1.254.2237-.722 0-1.297-.1503-1.725-.451-.427-.303-.676-.7149-.75-1.2358l1.488-.0781c.045.2202.154.3883.327.5043.173.1136.394.1704.664.1704.265 0 .478-.0509.639-.1527.164-.1041.246-.2379.249-.4012-.003-.1374-.061-.2498-.174-.3374-.114-.09-.289-.1586-.526-.206l-.944-.1882c-.533-.1065-.93-.2912-1.19-.554-.258-.2627-.387-.5977-.387-1.0049 0-.3504.095-.6523.284-.9056.192-.2533.46-.4486.806-.5859.348-.1373.755-.206 1.222-.206.689 0 1.231.1456 1.626.4368.398.2912.63.6878.696 1.1897zm3.978-1.5554v1.1363h-3.285v-1.1363zm-2.539-1.3069h1.513v5.0853c0 .1396.021.2485.064.3267.043.0757.102.129.177.1598.079.0307.169.0461.27.0461.071 0 .142-.0059.213-.0177.071-.0142.126-.0249.164-.032l.238 1.1257c-.076.0237-.183.0509-.32.0817-.137.0331-.304.0533-.501.0604-.364.0142-.684-.0344-.958-.1456-.273-.1113-.485-.2841-.636-.5185-.152-.2344-.226-.5303-.224-.8878zm5.952 6.8679c-.561 0-1.044-.1136-1.449-.3409-.402-.2296-.713-.554-.93-.973-.218-.4214-.327-.9197-.327-1.495 0-.5611.109-1.0535.327-1.4773.217-.4238.524-.754.919-.9908.398-.2367.865-.3551 1.4-.3551.359 0 .694.058 1.005.174.312.1137.584.2853.816.515.235.2296.417.5184.547.8664.13.3457.195.7505.195 1.2145v.4155h-4.605v-.9375h3.181c0-.2178-.047-.4107-.142-.5788-.094-.1681-.226-.2995-.394-.3942-.165-.0971-.358-.1456-.579-.1456-.229 0-.433.0533-.61.1598-.176.1042-.313.245-.412.4226-.1.1752-.151.3705-.153.5859v.8914c0 .2698.05.503.149.6995.102.1965.245.348.43.4546.184.1065.403.1598.657.1598.168 0 .322-.0237.461-.0711.14-.0473.26-.1183.359-.213.1-.0947.175-.2107.227-.348l1.4.0923c-.072.3362-.217.6297-.437.8807-.218.2486-.5.4427-.845.5824-.344.1373-.74.2059-1.19.2059zm5.501-.0177c-.415 0-.79-.1066-1.126-.3196-.334-.2155-.599-.5315-.796-.9482-.194-.419-.291-.9327-.291-1.5412 0-.625.101-1.1446.302-1.5589.201-.4167.469-.728.803-.934.336-.2083.704-.3125 1.104-.3125.305 0 .56.0521.764.1563.206.1018.371.2296.497.3835.128.1515.225.3007.291.4474h.046v-2.7343h1.509v7.2727h-1.491v-.8736h-.064c-.071.1515-.172.3019-.302.451-.128.1468-.295.2687-.501.3658-.203.097-.452.1456-.745.1456zm.479-1.2039c.244 0 .45-.0662.618-.1988.17-.135.301-.3232.391-.5647.092-.2414.138-.5243.138-.8487 0-.3243-.045-.606-.135-.8451-.09-.2392-.22-.4238-.391-.554-.17-.1302-.377-.1953-.621-.1953-.249 0-.458.0674-.629.2024-.17.1349-.299.322-.387.5611-.087.2391-.131.5161-.131.8309 0 .3173.044.5978.131.8416.09.2415.219.4309.387.5682.171.135.38.2024.629.2024zm10.721-2.784-1.385.0852c-.024-.1184-.075-.2249-.153-.3196-.078-.0971-.181-.174-.309-.2308-.125-.0592-.275-.0888-.451-.0888-.234 0-.432.0497-.593.1491-.161.0971-.241.2273-.241.3906 0 .1303.052.2403.156.3303s.283.1622.536.2166l.987.1989c.531.1089.926.2841 1.187.5256.26.2414.39.5587.39.9517 0 .3574-.105.6711-.316.941-.208.2699-.495.4806-.859.6321-.362.1492-.78.2237-1.254.2237-.722 0-1.297-.1503-1.726-.451-.426-.303-.676-.7149-.749-1.2358l1.488-.0781c.045.2202.154.3883.327.5043.173.1136.394.1704.664.1704.265 0 .478-.0509.639-.1527.163-.1041.246-.2379.249-.4012-.003-.1374-.061-.2498-.174-.3374-.114-.09-.289-.1586-.526-.206l-.945-.1882c-.532-.1065-.929-.2912-1.189-.554-.258-.2627-.387-.5977-.387-1.0049 0-.3504.094-.6523.284-.9056.192-.2533.46-.4486.806-.5859.348-.1373.755-.206 1.221-.206.689 0 1.232.1456 1.627.4368.398.2912.63.6878.696 1.1897zm1.077 3.8991v-5.4545h1.513v5.4545zm.76-6.1577c-.225 0-.418-.0745-.579-.2237-.159-.1515-.238-.3326-.238-.5433 0-.2083.079-.3871.238-.5362.161-.1516.354-.2273.579-.2273s.416.0757.575.2273c.161.1491.241.3279.241.5362 0 .2107-.08.3918-.241.5433-.159.1492-.35.2237-.575.2237zm1.936 6.1577v-.902l2.67-3.3061v-.0391h-2.578v-1.2073h4.4v.9836l-2.507 3.2245v.039h2.6v1.2074zm8.071.1065c-.561 0-1.044-.1136-1.449-.3409-.402-.2296-.713-.554-.93-.973-.218-.4214-.327-.9197-.327-1.495 0-.5611.109-1.0535.327-1.4773.217-.4238.524-.754.919-.9908.398-.2367.864-.3551 1.399-.3551.36 0 .695.058 1.005.174.313.1137.585.2853.817.515.235.2296.417.5184.547.8664.13.3457.195.7505.195 1.2145v.4155h-4.605v-.9375h3.181c0-.2178-.047-.4107-.142-.5788-.094-.1681-.226-.2995-.394-.3942-.166-.0971-.359-.1456-.579-.1456-.229 0-.433.0533-.61.1598-.176.1042-.313.245-.412.4226-.1.1752-.151.3705-.153.5859v.8914c0 .2698.05.503.149.6995.102.1965.245.348.43.4546.184.1065.403.1598.657.1598.168 0 .322-.0237.461-.0711.14-.0473.26-.1183.359-.213s.175-.2107.227-.348l1.399.0923c-.071.3362-.216.6297-.436.8807-.218.2486-.5.4427-.846.5824-.343.1373-.739.2059-1.189.2059zm4.375-.0142c-.235 0-.436-.0828-.604-.2485-.166-.1681-.248-.3694-.248-.6037 0-.2321.082-.4309.248-.5966.168-.1658.369-.2486.604-.2486.227 0 .426.0828.596.2486.171.1657.256.3645.256.5966 0 .1562-.04.2994-.121.4296-.078.1279-.181.2309-.309.309-.127.0758-.268.1136-.422.1136zm0-3.821c-.235 0-.436-.0829-.604-.2486-.166-.1657-.248-.3669-.248-.6037 0-.232.082-.4297.248-.593.168-.1657.369-.2486.604-.2486.227 0 .426.0829.596.2486.171.1633.256.361.256.593 0 .1587-.04.3031-.121.4333-.078.1278-.181.2296-.309.3054-.127.0757-.268.1136-.422.1136zm4.284 2.4503v-1.2109l3.037-4.7834h1.044v1.6761h-.618l-1.914 3.0291v.0568h4.314v1.2323zm3.491 1.2784v-1.6477l.028-.5362v-5.0888h1.442v7.2727zm3.397 0v-1.108l2.588-2.397c.221-.213.405-.4048.554-.5753.152-.1704.267-.3373.345-.5007.078-.1657.117-.3444.117-.5362 0-.2131-.048-.3965-.145-.5504-.098-.1563-.23-.2758-.398-.3587-.168-.0852-.359-.1278-.572-.1278-.222 0-.417.045-.582.1349-.166.09-.294.219-.384.3871s-.135.3681-.135.6001h-1.459c0-.4758.107-.8889.323-1.2393.215-.3504.517-.6215.905-.8132.389-.1918.836-.2877 1.343-.2877.521 0 .974.0924 1.36.277.388.1823.69.4356.905.76.216.3243.323.696.323 1.115 0 .2747-.054.5457-.163.8132-.106.2676-.297.5647-.572.8914-.274.3243-.661.7138-1.161 1.1683l-1.062 1.0405v.0497h3.054v1.2571zm6.313 2.0455v-7.5h1.491v.9161h.068c.066-.1467.162-.2959.287-.4474.128-.1539.294-.2817.497-.3835.206-.1042.462-.1563.768-.1563.397 0 .764.1042 1.1.3125.337.206.605.5173.806.934.202.4143.302.9339.302 1.5589 0 .6085-.098 1.1222-.294 1.5412-.195.4167-.46.7327-.796.9482-.334.213-.708.3196-1.122.3196-.294 0-.543-.0486-.749-.1456-.204-.0971-.371-.219-.501-.3658-.13-.1491-.23-.2995-.298-.451h-.046v2.9191zm1.481-4.7728c0 .3244.045.6073.135.8487.089.2415.22.4297.39.5647.171.1326.378.1988.622.1988.246 0 .454-.0674.625-.2024.17-.1373.299-.3267.387-.5682.09-.2438.135-.5243.135-.8416 0-.3148-.044-.5918-.132-.8309-.087-.2391-.216-.4262-.387-.5611-.17-.135-.38-.2024-.628-.2024-.247 0-.455.0651-.625.1953-.169.1302-.298.3148-.387.554-.09.2391-.135.5208-.135.8451zm5.916-2.7272 1.001 1.9069 1.026-1.9069h1.552l-1.58 2.7272 1.623 2.7273h-1.545l-1.076-1.8857-1.058 1.8857h-1.563l1.62-2.7273-1.563-2.7272zm7.027 2.539c0 .8831-.118 1.6951-.355 2.4361-.234.741-.594 1.4276-1.079 2.0597h-1.446c.185-.2344.357-.5209.515-.8594.159-.3386.298-.7079.416-1.108.118-.4024.211-.8191.277-1.25.066-.4308.099-.857.099-1.2784 0-.5611-.058-1.1269-.174-1.6974-.113-.5729-.27-1.1032-.468-1.5909-.197-.4901-.418-.8914-.665-1.2039h1.446c.485.6321.845 1.3187 1.079 2.0597.237.741.355 1.5518.355 2.4325z" fill="#fff"/><path d="m272.5 40.75h7" stroke="#e8178a"/><path d="m272.5 81.75h7" stroke="#e8178a"/></g><path d="m0 0h479v240h-479z" fill="#004f83" transform="translate(481)"/><path clip-rule="evenodd" d="m720.5 82.25c11.598 0 21-9.402 21-21s-9.402-21-21-21v3.8182c9.489 0 17.182 7.6925 17.182 17.1818s-7.693 17.1818-17.182 17.1818-17.182-7.6925-17.182-17.1818h-3.818c0 11.598 9.402 21 21 21z" fill="#f1f1f6" fill-rule="evenodd"/><g filter="url(#b)"><rect fill="#fff" height="88.5" rx="7" width="150" x="623.5" y="92.25"/><g fill="#000"><path d="m639.799 112.579c-.165 0-.299-.144-.299-.321 0-.176.134-.32.299-.32h1.391v-3.587c-.043-.442-.17-.77-.363-1.002-.21-.252-.509-.399-.87-.463-.162-.028-.273-.192-.246-.367.026-.174.18-.292.343-.264.493.087.91.3 1.217.668.078.094.149.198.211.31.078-.146.171-.274.278-.387.32-.34.749-.525 1.261-.594.164-.021.313.104.333.28.02.175-.097.335-.261.356-.383.051-.694.18-.912.411-.217.23-.353.572-.393 1.053v3.585h1.413c.165 0 .299.144.299.32 0 .177-.134.321-.299.321h-1.413v3.57c.04.481.176.824.393 1.053.218.23.529.36.912.411.164.021.281.182.261.356-.02.176-.169.301-.333.28-.512-.069-.941-.254-1.261-.594-.107-.113-.2-.241-.278-.387-.062.113-.133.216-.211.31-.308.368-.724.581-1.217.668-.163.028-.316-.09-.343-.264s.084-.338.246-.367c.361-.064.66-.211.87-.463.193-.231.32-.561.363-1.002v-3.57z" fill-opacity=".3"/><path d="m658.844 110.75c-.047-.396-.237-.703-.571-.922-.333-.219-.742-.328-1.226-.328-.354 0-.664.057-.93.172-.263.114-.469.272-.617.473-.146.2-.219.428-.219.683 0 .214.051.397.153.551.104.151.237.277.398.379.161.099.331.181.508.246.177.062.34.113.488.152l.813.219c.208.055.44.13.695.227.258.096.504.227.738.394.237.164.433.375.586.633.154.258.231.574.231.949 0 .432-.114.823-.34 1.172-.224.349-.552.626-.985.832-.429.206-.951.309-1.566.309-.573 0-1.069-.093-1.488-.278-.417-.185-.745-.442-.985-.773-.237-.331-.371-.715-.402-1.152h1c.026.302.128.552.305.749.179.196.406.342.679.438.276.094.573.141.891.141.37 0 .702-.06.996-.18.294-.122.527-.292.699-.508.172-.219.258-.474.258-.766 0-.265-.074-.481-.223-.648-.148-.167-.343-.302-.585-.406-.243-.104-.504-.196-.786-.274l-.984-.281c-.625-.18-1.12-.436-1.484-.769-.365-.334-.547-.77-.547-1.309 0-.448.121-.839.363-1.172.245-.336.573-.596.984-.781.414-.188.877-.281 1.387-.281.516 0 .974.092 1.375.277.401.182.719.432.953.75.237.318.362.678.375 1.082zm2.514 8.25v-8.25h.891v.953h.109c.068-.104.162-.237.282-.398.122-.164.297-.31.523-.438.229-.13.539-.195.93-.195.505 0 .95.126 1.336.379.385.252.686.61.902 1.074s.324 1.01.324 1.641c0 .635-.108 1.186-.324 1.652-.216.464-.516.823-.898 1.078-.383.253-.825.379-1.325.379-.385 0-.694-.064-.925-.191-.232-.131-.411-.278-.536-.442-.125-.166-.221-.305-.289-.414h-.078v3.172zm.907-5.25c0 .453.066.853.199 1.199.133.344.327.613.582.809.255.193.568.289.937.289.386 0 .707-.102.965-.305.261-.206.456-.482.586-.828.133-.349.199-.737.199-1.164 0-.422-.065-.802-.195-1.141-.128-.341-.322-.61-.582-.808-.258-.201-.582-.301-.973-.301-.375 0-.69.095-.945.285-.255.188-.448.451-.578.789-.13.336-.195.728-.195 1.176zm5.797 3v-6h.921v6zm.468-7c-.179 0-.334-.061-.465-.184-.127-.122-.191-.269-.191-.441s.064-.319.191-.441c.131-.123.286-.184.465-.184.18 0 .334.061.461.184.13.122.196.269.196.441s-.066.319-.196.441c-.127.123-.281.184-.461.184zm3.064 3.391v3.609h-.922v-6h.89v.937h.079c.14-.304.354-.549.64-.734.287-.187.657-.281 1.11-.281.406 0 .761.083 1.066.25.305.164.542.414.711.75.169.333.254.755.254 1.266v3.812h-.922v-3.75c0-.471-.122-.839-.367-1.102-.245-.265-.581-.398-1.008-.398-.294 0-.557.064-.789.191-.229.128-.41.314-.543.559s-.199.542-.199.891zm6.434 0v3.609h-.922v-6h.891v.937h.078c.141-.304.354-.549.641-.734.286-.187.656-.281 1.109-.281.406 0 .762.083 1.067.25.304.164.541.414.711.75.169.333.253.755.253 1.266v3.812h-.921v-3.75c0-.471-.123-.839-.368-1.102-.244-.265-.58-.398-1.007-.398-.295 0-.558.064-.789.191-.23.128-.411.314-.543.559-.133.245-.2.542-.2.891zm8.029 3.734c-.578 0-1.077-.128-1.496-.383-.417-.258-.739-.617-.965-1.078-.224-.463-.336-1.003-.336-1.617 0-.615.112-1.156.336-1.625.226-.471.541-.839.945-1.102.406-.265.88-.398 1.422-.398.312 0 .621.052.926.156.304.104.582.274.832.508.25.232.449.539.597.922.149.383.223.854.223 1.414v.39h-4.625v-.796h3.688c0-.339-.068-.641-.204-.907-.132-.265-.323-.475-.57-.629-.245-.153-.534-.23-.867-.23-.367 0-.685.091-.953.273-.266.18-.47.414-.614.704-.143.289-.214.599-.214.929v.532c0 .453.078.837.234 1.152.159.312.379.551.66.715.281.161.608.242.981.242.242 0 .461-.034.656-.102.198-.07.368-.174.512-.312.143-.141.254-.315.332-.524l.89.25c-.093.302-.251.568-.472.797-.222.227-.495.404-.821.531-.325.126-.691.188-1.097.188zm3.886-.125v-6h.891v.906h.062c.11-.297.308-.538.594-.722.287-.185.61-.278.969-.278.068 0 .152.002.254.004.101.003.178.007.23.012v.937c-.031-.007-.103-.019-.214-.035-.11-.018-.226-.027-.348-.027-.292 0-.552.061-.781.183-.227.12-.407.287-.539.5-.131.211-.196.452-.196.723v3.797z"/><path d="m657.141 127.75v8h-.969v-6.984h-.047l-1.953 1.296v-.984l2-1.328zm4.8 8.109c-.458 0-.871-.091-1.238-.273s-.661-.432-.883-.75c-.221-.318-.342-.68-.363-1.086h.938c.036.362.2.661.492.898.294.235.646.352 1.054.352.329 0 .62-.077.875-.23.258-.154.46-.365.606-.633.148-.271.223-.577.223-.918 0-.349-.077-.66-.231-.934-.151-.276-.359-.493-.625-.652s-.569-.24-.91-.242c-.245-.003-.496.035-.754.113-.258.075-.47.173-.637.293l-.906-.11.484-3.937h4.157v.859h-3.344l-.281 2.36h.047c.164-.13.369-.239.617-.324.247-.086.505-.129.773-.129.49 0 .926.117 1.309.351.385.232.687.55.906.953.221.404.332.865.332 1.383 0 .511-.115.966-.344 1.367-.226.399-.539.714-.937.946-.399.229-.852.343-1.36.343zm8.271-1.609v-.422c0-.292.06-.558.18-.801.122-.244.299-.44.531-.586.234-.148.518-.222.851-.222.339 0 .623.074.852.222.229.146.402.342.52.586.117.243.175.509.175.801v.422c0 .292-.06.56-.179.805-.118.242-.292.437-.524.586-.229.145-.51.218-.844.218-.338 0-.623-.073-.855-.218-.232-.149-.408-.344-.527-.586-.12-.245-.18-.513-.18-.805zm.797-.422v.422c0 .242.057.46.172.652.114.19.312.285.593.285.274 0 .467-.095.579-.285.114-.192.171-.41.171-.652v-.422c0-.242-.054-.458-.164-.648-.109-.193-.304-.289-.586-.289-.273 0-.47.096-.589.289-.118.19-.176.406-.176.648zm-4.781-4.156v-.422c0-.292.059-.559.179-.801.123-.245.3-.44.531-.586.235-.148.519-.222.852-.222.339 0 .622.074.852.222.229.146.402.341.519.586.117.242.176.509.176.801v.422c0 .292-.06.56-.18.805-.117.242-.291.437-.523.585-.229.146-.511.219-.844.219-.339 0-.624-.073-.855-.219-.232-.148-.408-.343-.528-.585-.12-.245-.179-.513-.179-.805zm.796-.422v.422c0 .242.058.46.172.652.115.19.313.285.594.285.273 0 .466-.095.578-.285.115-.192.172-.41.172-.652v-.422c0-.242-.055-.458-.164-.648-.109-.193-.305-.29-.586-.29-.273 0-.47.097-.59.29-.117.19-.176.406-.176.648zm-.5 6.5 5.5-8h.891l-5.5 8zm12.329-2.797c-.193 0-.359-.069-.497-.207s-.207-.303-.207-.496.069-.358.207-.496.304-.207.497-.207c.192 0 .358.069.496.207s.207.303.207.496c0 .128-.033.245-.098.352-.062.106-.147.192-.254.257-.104.063-.221.094-.351.094zm5.451 2.797v-6h.922v6zm.468-7c-.179 0-.334-.061-.464-.184-.128-.122-.192-.269-.192-.441s.064-.319.192-.441c.13-.123.285-.184.464-.184.18 0 .334.061.461.184.131.122.196.269.196.441s-.065.319-.196.441c-.127.123-.281.184-.461.184zm3.064 3.391v3.609h-.922v-6h.891v.937h.078c.14-.304.354-.549.64-.734.287-.187.657-.281 1.11-.281.406 0 .762.083 1.066.25.305.164.542.414.711.75.169.333.254.755.254 1.266v3.812h-.922v-3.75c0-.471-.122-.839-.367-1.102-.245-.265-.581-.398-1.008-.398-.294 0-.557.064-.789.191-.229.128-.41.314-.543.559s-.199.542-.199.891zm9.763-1.047-.828.234c-.053-.138-.129-.272-.231-.402-.099-.133-.234-.242-.406-.328s-.392-.129-.66-.129c-.368 0-.674.084-.918.254-.243.166-.364.379-.364.636 0 .23.084.411.25.543.167.133.427.244.782.332l.89.219c.537.13.936.33 1.199.598.263.265.395.608.395 1.027 0 .344-.099.651-.297.922-.195.271-.469.484-.82.641-.352.156-.761.234-1.227.234-.612 0-1.118-.133-1.519-.398-.401-.266-.655-.654-.762-1.165l.875-.218c.083.323.241.565.473.726.234.162.54.242.918.242.429 0 .77-.091 1.023-.273.255-.185.383-.406.383-.664 0-.208-.073-.383-.219-.523-.146-.144-.37-.25-.672-.321l-1-.234c-.549-.13-.953-.332-1.211-.606-.255-.276-.382-.621-.382-1.035 0-.338.095-.638.285-.898.192-.261.454-.465.785-.613.333-.149.711-.223 1.133-.223.593 0 1.06.13 1.398.39.341.261.583.605.727 1.032zm1.497 4.656v-6h.922v6zm.468-7c-.179 0-.334-.061-.464-.184-.128-.122-.192-.269-.192-.441s.064-.319.192-.441c.13-.123.285-.184.464-.184.18 0 .334.061.461.184.131.122.196.269.196.441s-.065.319-.196.441c-.127.123-.281.184-.461.184zm4.408 7.125c-.5 0-.942-.126-1.325-.379-.382-.255-.682-.614-.898-1.078-.216-.466-.324-1.017-.324-1.652 0-.631.108-1.177.324-1.641s.517-.822.902-1.074c.386-.253.831-.379 1.336-.379.391 0 .7.065.926.195.229.128.404.274.524.438.122.161.217.294.285.398h.078v-2.953h.922v8h-.891v-.922h-.109c-.068.109-.164.248-.289.414-.125.164-.304.311-.536.442-.231.127-.54.191-.925.191zm.125-.828c.369 0 .682-.096.937-.289.255-.196.449-.465.582-.809.133-.346.199-.746.199-1.199 0-.448-.065-.84-.195-1.176-.13-.338-.323-.601-.578-.789-.255-.19-.57-.285-.945-.285-.391 0-.716.1-.977.301-.258.198-.452.467-.582.808-.128.339-.191.719-.191 1.141 0 .427.065.815.195 1.164.133.346.328.622.586.828.26.203.583.305.969.305zm6.957.828c-.578 0-1.077-.128-1.496-.383-.417-.258-.739-.617-.965-1.078-.224-.463-.336-1.003-.336-1.617 0-.615.112-1.156.336-1.625.226-.471.541-.839.945-1.102.406-.265.88-.398 1.422-.398.312 0 .621.052.926.156.304.104.582.274.832.508.25.232.449.539.597.922.149.383.223.854.223 1.414v.39h-4.625v-.796h3.688c0-.339-.068-.641-.204-.907-.132-.265-.322-.475-.57-.629-.245-.153-.534-.23-.867-.23-.367 0-.685.091-.953.273-.266.18-.47.414-.613.704-.144.289-.215.599-.215.929v.532c0 .453.078.837.234 1.152.159.312.379.551.66.715.281.161.608.242.981.242.242 0 .461-.034.656-.102.198-.07.368-.174.512-.312.143-.141.254-.315.332-.524l.89.25c-.093.302-.251.568-.472.797-.222.227-.495.404-.821.531-.325.126-.691.188-1.097.188z"/></g><path d="m645 132.25h-8v-2h8z" fill="#8c8c8c"/><path d="m645 151.25h-8v-2h8z" fill="#8c8c8c"/><path d="m677.328 154.75 1.313-8h.781l-1.313 8zm-3.64-2.219.125-.781h5.968l-.125.781zm.828 2.219 1.312-8h.781l-1.312 8zm-.36-5 .125-.781h5.969l-.125.781zm7.252 5v-8h4.797v.859h-3.828v2.703h3.469v.86h-3.469v3.578zm9.128-8v8h-.969v-6.984h-.046l-1.954 1.296v-.984l2-1.328zm2.442 8v-8h4.796v.859h-3.828v2.703h3.469v.86h-3.469v3.578zm9.127-8v8h-.968v-6.984h-.047l-1.953 1.296v-.984l2-1.328zm2.442 8v-8h4.797v.859h-3.828v2.703h3.468v.86h-3.468v3.578zm8.972.109c-.329-.005-.657-.067-.985-.187s-.627-.322-.898-.606c-.271-.286-.489-.673-.653-1.16-.164-.489-.246-1.104-.246-1.844 0-.708.067-1.335.2-1.882.132-.55.325-1.012.578-1.387.252-.378.557-.664.914-.859.359-.196.764-.293 1.215-.293.447 0 .846.089 1.195.269.351.177.638.425.859.742.222.318.365.684.43 1.098h-.953c-.089-.359-.261-.658-.516-.895s-.594-.355-1.015-.355c-.62 0-1.109.27-1.465.809-.354.539-.533 1.295-.535 2.269h.062c.146-.221.319-.41.52-.566.203-.159.427-.282.671-.367.245-.086.504-.129.778-.129.458 0 .877.114 1.258.343.38.227.685.541.914.942.229.398.343.855.343 1.371 0 .495-.11.948-.332 1.359-.221.409-.532.735-.933.977-.399.239-.867.357-1.406.351zm0-.859c.328 0 .622-.082.882-.246.263-.164.47-.384.621-.66.154-.276.231-.584.231-.922 0-.331-.074-.632-.223-.902-.146-.274-.347-.491-.605-.653-.255-.161-.547-.242-.875-.242-.248 0-.478.049-.692.148-.213.097-.401.23-.562.399-.159.169-.284.363-.375.582-.091.216-.137.444-.137.683 0 .318.074.615.223.891.151.276.357.499.617.668.263.169.561.254.895.254z" fill="#000"/><path d="m680.148 159.477v7.273h-.853l-3.963-5.71h-.071v5.71h-.88v-7.273h.852l3.977 5.725h.071v-5.725zm3.935 7.387c-.525 0-.979-.116-1.36-.348-.379-.235-.671-.561-.877-.98-.204-.422-.305-.912-.305-1.471 0-.558.101-1.051.305-1.477.206-.428.492-.762.859-1.001.37-.242.801-.363 1.293-.363.284 0 .565.048.842.142.277.095.529.249.756.462.227.211.408.49.543.838s.203.777.203 1.286v.355h-4.205v-.725h3.353c0-.307-.062-.582-.185-.823-.121-.242-.294-.433-.519-.572-.222-.14-.485-.21-.788-.21-.334 0-.623.083-.866.249-.242.163-.428.376-.558.639s-.195.545-.195.845v.483c0 .412.071.761.213 1.048.144.284.344.5.6.65.256.146.553.22.891.22.22 0 .419-.031.597-.093.18-.063.335-.158.465-.284.13-.127.231-.286.302-.475l.81.227c-.086.274-.229.516-.43.724-.201.206-.45.367-.746.483-.296.114-.628.171-.998.171zm6.971-2.344v-3.225h.838v5.455h-.838v-.923h-.057c-.128.277-.326.512-.596.706-.27.192-.611.288-1.023.288-.341 0-.644-.075-.909-.224-.265-.151-.474-.378-.625-.682-.152-.305-.227-.69-.227-1.154v-3.466h.838v3.41c0 .397.111.715.334.951.224.237.511.355.859.355.208 0 .42-.053.636-.159.217-.107.4-.27.546-.49.15-.221.224-.501.224-.842zm4.745-3.225v.711h-2.826v-.711zm-2.002-1.306h.838v5.199c0 .236.034.414.103.532.071.116.161.194.269.235.112.037.229.056.352.056.092 0 .168-.004.227-.014.059-.012.107-.021.142-.028l.171.753c-.057.021-.136.042-.238.064-.102.023-.231.035-.387.035-.237 0-.469-.051-.696-.153-.225-.101-.412-.257-.561-.465-.147-.208-.22-.471-.22-.788zm3.263 6.761v-5.455h.81v.824h.056c.1-.27.28-.489.54-.657.261-.168.554-.252.881-.252.061 0 .138.001.231.004.092.002.162.006.209.01v.853c-.028-.007-.093-.018-.195-.032-.099-.017-.205-.025-.316-.025-.265 0-.502.056-.71.167-.206.109-.37.26-.49.454-.119.192-.178.411-.178.657v3.452zm5.326.128c-.346 0-.659-.065-.941-.195-.282-.133-.506-.324-.671-.572-.166-.251-.249-.554-.249-.909 0-.313.062-.566.185-.76.123-.197.287-.351.493-.462s.434-.194.682-.248c.251-.057.503-.102.757-.135.331-.043.6-.075.806-.096.208-.024.359-.063.454-.117.097-.055.146-.15.146-.285v-.028c0-.35-.096-.623-.288-.817-.189-.194-.477-.291-.863-.291-.4 0-.714.088-.941.263s-.387.362-.479.561l-.796-.284c.142-.332.332-.59.568-.774.24-.187.5-.318.782-.391.284-.076.563-.114.838-.114.175 0 .376.022.603.064.23.041.451.125.665.252.215.128.394.321.536.579s.213.604.213 1.037v3.594h-.838v-.739h-.043c-.057.119-.151.245-.284.38s-.309.25-.529.345c-.22.094-.489.142-.806.142zm.128-.753c.331 0 .61-.065.838-.195.229-.131.402-.299.518-.505.119-.206.178-.422.178-.649v-.767c-.036.042-.114.081-.235.117-.118.033-.255.062-.412.088-.153.024-.304.045-.451.064-.144.017-.261.031-.351.043-.218.028-.422.075-.611.139-.187.061-.338.155-.454.28-.114.123-.171.291-.171.504 0 .292.108.512.323.661.218.147.494.22.828.22zm4.74-6.648v7.273h-.839v-7.273zm4.106-.341-2.344 8.708h-.767l2.344-8.708zm6.078 2.614c-.078-.239-.181-.453-.309-.643-.125-.192-.276-.355-.451-.49-.173-.135-.369-.238-.589-.309s-.462-.106-.725-.106c-.431 0-.822.111-1.175.334-.353.222-.633.55-.842.983-.208.433-.312.965-.312 1.595 0 .629.105 1.161.316 1.594s.496.761.856.984c.36.222.764.334 1.214.334.417 0 .784-.089 1.101-.267.32-.18.568-.433.746-.76.18-.329.27-.716.27-1.161l.27.057h-2.188v-.781h2.77v.781c0 .599-.128 1.12-.384 1.562-.253.443-.603.786-1.051 1.03-.445.242-.956.362-1.534.362-.644 0-1.21-.151-1.697-.454-.486-.303-.864-.734-1.137-1.293-.27-.558-.404-1.221-.404-1.988 0-.576.076-1.093.23-1.552.157-.462.377-.855.661-1.179.284-.325.62-.573 1.008-.746.389-.173.816-.259 1.282-.259.384 0 .741.058 1.073.174.334.113.631.276.891.486.263.209.482.458.657.75.175.288.296.609.362.962zm2.347 5v-5.455h.809v.824h.057c.1-.27.279-.489.54-.657.26-.168.554-.252.881-.252.061 0 .138.001.23.004.093.002.163.006.21.01v.853c-.029-.007-.094-.018-.195-.032-.1-.017-.205-.025-.316-.025-.266 0-.502.056-.711.167-.206.109-.369.26-.49.454-.118.192-.177.411-.177.657v3.452zm5.325.128c-.345 0-.659-.065-.941-.195-.281-.133-.505-.324-.671-.572-.165-.251-.248-.554-.248-.909 0-.313.061-.566.184-.76.123-.197.288-.351.494-.462s.433-.194.682-.248c.251-.057.503-.102.756-.135.332-.043.6-.075.806-.096.209-.024.36-.063.455-.117.097-.055.145-.15.145-.285v-.028c0-.35-.096-.623-.287-.817-.19-.194-.477-.291-.863-.291-.4 0-.714.088-.941.263-.228.175-.387.362-.48.561l-.795-.284c.142-.332.331-.59.568-.774.239-.187.5-.318.781-.391.284-.076.564-.114.838-.114.176 0 .377.022.604.064.23.041.451.125.664.252.216.128.394.321.536.579s.213.604.213 1.037v3.594h-.838v-.739h-.042c-.057.119-.152.245-.284.38-.133.135-.309.25-.529.345-.221.094-.489.142-.807.142zm.128-.753c.332 0 .611-.065.838-.195.23-.131.403-.299.519-.505.118-.206.177-.422.177-.649v-.767c-.035.042-.113.081-.234.117-.118.033-.256.062-.412.088-.154.024-.304.045-.451.064-.144.017-.262.031-.351.043-.218.028-.422.075-.611.139-.187.061-.339.155-.455.28-.113.123-.17.291-.17.504 0 .292.107.512.323.661.218.147.493.22.827.22zm4.247 2.67c-.142 0-.269-.011-.38-.035-.112-.021-.189-.043-.231-.064l.213-.739c.203.052.383.071.54.057.156-.014.294-.084.415-.209.123-.123.236-.323.337-.6l.157-.427-2.017-5.483h.909l1.505 4.347h.057l1.506-4.347h.909l-2.315 6.25c-.105.282-.234.515-.387.7-.154.187-.333.326-.537.416-.201.089-.428.134-.681.134zm7.952-2.045v-7.273h.881v6.492h3.381v.781zm5.512 0v-5.455h.838v5.455zm.426-6.364c-.164 0-.304-.055-.423-.167-.116-.111-.174-.245-.174-.401s.058-.29.174-.401c.119-.111.259-.167.423-.167.163 0 .303.056.419.167.118.111.177.245.177.401s-.059.29-.177.401c-.116.112-.256.167-.419.167zm4.148 8.523c-.404 0-.752-.052-1.044-.156-.291-.102-.533-.237-.728-.405-.191-.166-.344-.343-.458-.533l.668-.468c.076.099.172.213.288.341.116.13.274.242.475.337.204.097.47.145.799.145.441 0 .804-.106 1.091-.319.286-.213.429-.547.429-1.002v-1.108h-.071c-.061.1-.149.223-.262.37-.112.144-.273.273-.483.387-.209.111-.49.167-.846.167-.44 0-.835-.104-1.186-.313-.348-.208-.624-.511-.827-.909-.201-.398-.302-.881-.302-1.449 0-.558.098-1.045.295-1.459.196-.417.47-.739.82-.966.35-.23.755-.345 1.215-.345.355 0 .636.06.845.178.21.116.371.249.483.398.113.146.201.267.263.362h.085v-.867h.809v5.611c0 .469-.106.85-.319 1.144-.211.296-.495.512-.852.65-.356.139-.751.209-1.187.209zm-.028-2.997c.336 0 .62-.077.852-.231s.409-.375.529-.664c.121-.289.182-.634.182-1.037 0-.393-.06-.74-.178-1.04-.118-.301-.294-.537-.526-.707-.232-.171-.518-.256-.859-.256-.355 0-.651.09-.888.27-.234.18-.411.422-.529.725-.116.303-.174.639-.174 1.008 0 .379.059.714.178 1.005.12.289.298.516.532.682.237.163.531.245.881.245zm4.759-2.443v3.281h-.839v-7.273h.839v2.671h.071c.127-.282.319-.506.575-.671.258-.169.601-.253 1.03-.253.371 0 .697.075.976.224.28.147.496.373.65.678.156.303.234.689.234 1.158v3.466h-.838v-3.409c0-.433-.112-.768-.337-1.005-.222-.239-.531-.359-.927-.359-.274 0-.521.058-.738.174-.216.116-.386.286-.512.508-.123.223-.184.493-.184.81zm7.442-2.174v.711h-2.827v-.711zm-2.003-1.306h.838v5.199c0 .236.034.414.103.532.071.116.161.194.27.235.111.037.228.056.352.056.092 0 .168-.004.227-.014.059-.012.106-.021.142-.028l.17.753c-.057.021-.136.042-.238.064-.101.023-.23.035-.387.035-.236 0-.468-.051-.696-.153-.225-.101-.412-.257-.561-.465-.147-.208-.22-.471-.22-.788z" fill="#999"/><rect fill="#f1f1f6" height="16" rx="3" width="16" x="653.75" y="142.5"/><g clip-path="url(#e)"><path d="m720.5 86.75h11v11h-11z" fill="#fff" transform="matrix(.70710678 .70710678 -.70710678 .70710678 272.371077 -484.061949)"/></g><path d="m757 40.25v42" stroke="#e8178a"/><rect fill="#e8178a" height="18" rx="3" width="190" x="760.5" y="53.75"/><path d="m768.446 59.4773 1.758 5.5255h.067l1.762-5.5255h1.704l-2.507 7.2727h-1.981l-2.511-7.2727zm7.088 7.3757c-.348 0-.658-.0604-.93-.1811-.273-.1231-.488-.3042-.647-.5433-.156-.2415-.234-.5422-.234-.902 0-.3031.056-.5576.167-.7635.111-.206.263-.3717.454-.4972.192-.1255.41-.2202.654-.2841.246-.0639.504-.1089.774-.1349.317-.0332.573-.0639.767-.0924.194-.0307.335-.0757.423-.1349.087-.0592.131-.1468.131-.2628v-.0213c0-.2249-.071-.3989-.213-.522-.14-.1231-.339-.1847-.597-.1847-.272 0-.488.0604-.649.1811-.161.1184-.268.2676-.32.4475l-1.399-.1136c.071-.3315.21-.6179.419-.8594.208-.2439.477-.4309.806-.5611.331-.1326.715-.1989 1.15-.1989.304 0 .594.0355.871.1066.279.071.526.1811.742.3302.218.1492.389.3409.515.5753.125.232.188.5102.188.8345v3.679h-1.435v-.7564h-.042c-.088.1705-.205.3208-.352.451-.147.1278-.323.2285-.529.3018-.206.0711-.444.1066-.714.1066zm.433-1.0441c.223 0 .419-.0437.59-.1313.17-.09.304-.2107.401-.3623.097-.1515.146-.3231.146-.5149v-.5788c-.048.0308-.113.0592-.196.0852-.08.0237-.171.0462-.273.0675-.102.0189-.204.0367-.305.0533-.102.0142-.195.0272-.277.039-.178.0261-.333.0675-.466.1243-.132.0568-.235.1338-.309.2308-.073.0947-.11.2131-.11.3551 0 .206.075.3634.224.4723.152.1066.343.1598.575.1598zm3.812.9411v-5.4545h1.467v.9517h.057c.099-.3386.266-.5943.501-.7671.234-.1752.504-.2628.809-.2628.076 0 .158.0048.245.0142.088.0095.165.0225.231.0391v1.3423c-.071-.0213-.169-.0402-.295-.0568-.125-.0166-.24-.0249-.344-.0249-.223 0-.421.0486-.597.1456-.172.0947-.31.2273-.412.3978-.099.1704-.149.3669-.149.5895v3.0859zm4.092 0v-5.4545h1.513v5.4545zm.76-6.1577c-.225 0-.418-.0745-.579-.2237-.158-.1515-.238-.3326-.238-.5433 0-.2083.08-.3871.238-.5362.161-.1516.354-.2273.579-.2273s.417.0757.575.2273c.161.1491.242.3279.242.5362 0 .2107-.081.3918-.242.5433-.158.1492-.35.2237-.575.2237zm3.52 6.2607c-.348 0-.658-.0604-.93-.1811-.272-.1231-.488-.3042-.646-.5433-.157-.2415-.235-.5422-.235-.902 0-.3031.056-.5576.167-.7635.111-.206.263-.3717.455-.4972.191-.1255.409-.2202.653-.2841.246-.0639.504-.1089.774-.1349.317-.0332.573-.0639.767-.0924.194-.0307.335-.0757.423-.1349.087-.0592.131-.1468.131-.2628v-.0213c0-.2249-.071-.3989-.213-.522-.14-.1231-.338-.1847-.596-.1847-.273 0-.489.0604-.65.1811-.161.1184-.268.2676-.32.4475l-1.399-.1136c.071-.3315.211-.6179.419-.8594.208-.2439.477-.4309.806-.5611.332-.1326.715-.1989 1.151-.1989.303 0 .593.0355.87.1066.279.071.526.1811.742.3302.218.1492.389.3409.515.5753.125.232.188.5102.188.8345v3.679h-1.435v-.7564h-.042c-.088.1705-.205.3208-.352.451-.147.1278-.323.2285-.529.3018-.206.0711-.444.1066-.714.1066zm.434-1.0441c.222 0 .419-.0437.589-.1313.17-.09.304-.2107.401-.3623.097-.1515.146-.3231.146-.5149v-.5788c-.047.0308-.113.0592-.195.0852-.081.0237-.172.0462-.274.0675-.102.0189-.203.0367-.305.0533-.102.0142-.194.0272-.277.039-.178.0261-.333.0675-.465.1243-.133.0568-.236.1338-.309.2308-.074.0947-.11.2131-.11.3551 0 .206.074.3634.223.4723.152.1066.344.1598.576.1598zm3.84.9411v-7.2727h1.513v2.7343h.046c.066-.1467.162-.2959.288-.4474.128-.1539.293-.2817.497-.3835.206-.1042.461-.1563.767-.1563.398 0 .765.1042 1.101.3125.336.206.605.5173.806.934.201.4143.302.9339.302 1.5589 0 .6085-.099 1.1222-.295 1.5412-.194.4167-.459.7327-.796.9482-.333.213-.707.3196-1.122.3196-.293 0-.543-.0486-.749-.1456-.204-.0971-.37-.219-.501-.3658-.13-.1491-.229-.2995-.298-.451h-.067v.8736zm1.481-2.7273c0 .3244.045.6073.135.8487.09.2415.22.4297.39.5647.171.1326.378.1988.622.1988.246 0 .454-.0674.625-.2024.17-.1373.299-.3267.387-.5682.09-.2438.135-.5243.135-.8416 0-.3148-.044-.5918-.131-.8309-.088-.2391-.217-.4262-.388-.5611-.17-.135-.38-.2024-.628-.2024-.246 0-.455.0651-.625.1953-.168.1302-.297.3148-.387.554-.09.2391-.135.5208-.135.8451zm6.361-4.5454v7.2727h-1.513v-7.2727zm3.697 7.3792c-.561 0-1.044-.1136-1.448-.3409-.403-.2296-.713-.554-.931-.973-.218-.4214-.326-.9197-.326-1.495 0-.5611.108-1.0535.326-1.4773s.525-.754.92-.9908c.398-.2367.864-.3551 1.399-.3551.36 0 .695.058 1.005.174.313.1137.585.2853.817.515.234.2296.417.5184.547.8664.13.3457.195.7505.195 1.2145v.4155h-4.606v-.9375h3.182c0-.2178-.047-.4107-.142-.5788s-.226-.2995-.394-.3942c-.166-.0971-.359-.1456-.579-.1456-.23 0-.433.0533-.611.1598-.175.1042-.312.245-.412.4226-.099.1752-.15.3705-.152.5859v.8914c0 .2698.049.503.149.6995.101.1965.245.348.429.4546.185.1065.404.1598.657.1598.168 0 .322-.0237.462-.0711.14-.0473.259-.1183.359-.213.099-.0947.175-.2107.227-.348l1.399.0923c-.071.3362-.217.6297-.437.8807-.218.2486-.499.4427-.845.5824-.343.1373-.74.2059-1.19.2059zm10.344-4.0056-1.385.0852c-.024-.1184-.074-.2249-.153-.3196-.078-.0971-.181-.174-.309-.2308-.125-.0592-.275-.0888-.451-.0888-.234 0-.432.0497-.593.1491-.161.0971-.241.2273-.241.3906 0 .1303.052.2403.156.3303s.283.1622.536.2166l.988.1989c.53.1089.925.2841 1.186.5256.26.2414.39.5587.39.9517 0 .3574-.105.6711-.316.941-.208.2699-.494.4806-.859.6321-.362.1492-.78.2237-1.254.2237-.722 0-1.297-.1503-1.725-.451-.427-.303-.676-.7149-.75-1.2358l1.488-.0781c.045.2202.154.3883.327.5043.173.1136.394.1704.664.1704.265 0 .478-.0509.639-.1527.163-.1041.246-.2379.249-.4012-.003-.1374-.061-.2498-.174-.3374-.114-.09-.289-.1586-.526-.206l-.944-.1882c-.533-.1065-.93-.2912-1.19-.554-.258-.2627-.387-.5977-.387-1.0049 0-.3504.095-.6523.284-.9056.192-.2533.46-.4486.806-.5859.348-.1373.755-.206 1.222-.206.689 0 1.231.1456 1.626.4368.398.2912.63.6878.696 1.1897zm1.077 3.8991v-5.4545h1.513v5.4545zm.76-6.1577c-.225 0-.418-.0745-.579-.2237-.159-.1515-.238-.3326-.238-.5433 0-.2083.079-.3871.238-.5362.161-.1516.354-.2273.579-.2273s.417.0757.575.2273c.161.1491.242.3279.242.5362 0 .2107-.081.3918-.242.5433-.158.1492-.35.2237-.575.2237zm1.936 6.1577v-.902l2.671-3.3061v-.0391h-2.579v-1.2073h4.4v.9836l-2.507 3.2245v.039h2.6v1.2074zm8.071.1065c-.561 0-1.044-.1136-1.449-.3409-.402-.2296-.712-.554-.93-.973-.218-.4214-.327-.9197-.327-1.495 0-.5611.109-1.0535.327-1.4773s.524-.754.919-.9908c.398-.2367.865-.3551 1.4-.3551.359 0 .694.058 1.005.174.312.1137.584.2853.816.515.235.2296.417.5184.547.8664.13.3457.196.7505.196 1.2145v.4155h-4.606v-.9375h3.182c0-.2178-.048-.4107-.143-.5788-.094-.1681-.226-.2995-.394-.3942-.165-.0971-.358-.1456-.579-.1456-.229 0-.433.0533-.61.1598-.176.1042-.313.245-.412.4226-.1.1752-.151.3705-.153.5859v.8914c0 .2698.05.503.149.6995.102.1965.245.348.43.4546.185.1065.404.1598.657.1598.168 0 .322-.0237.461-.0711.14-.0473.26-.1183.359-.213.1-.0947.175-.2107.227-.348l1.4.0923c-.071.3362-.217.6297-.437.8807-.218.2486-.5.4427-.845.5824-.344.1373-.74.2059-1.19.2059zm6.139-3.022c0-.8807.117-1.6915.352-2.4325.236-.741.597-1.4276 1.083-2.0597h1.445c-.185.2344-.356.5209-.515.8594-.159.3362-.297.7055-.415 1.108-.119.4024-.211.8191-.277 1.25-.067.4285-.1.8534-.1 1.2748 0 .5611.057 1.1281.171 1.701.116.5706.272 1.1009.468 1.5909.199.4901.422.8914.668 1.2039h-1.445c-.486-.6321-.847-1.3187-1.083-2.0597-.235-.741-.352-1.553-.352-2.4361zm8.296-.9836-1.385.0852c-.023-.1184-.074-.2249-.152-.3196-.078-.0971-.181-.174-.309-.2308-.126-.0592-.276-.0888-.451-.0888-.235 0-.432.0497-.593.1491-.161.0971-.242.2273-.242.3906 0 .1303.052.2403.157.3303.104.09.282.1622.536.2166l.987.1989c.53.1089.926.2841 1.186.5256.26.2414.391.5587.391.9517 0 .3574-.106.6711-.316.941-.209.2699-.495.4806-.86.6321-.362.1492-.78.2237-1.253.2237-.722 0-1.298-.1503-1.726-.451-.426-.303-.676-.7149-.749-1.2358l1.487-.0781c.045.2202.154.3883.327.5043.173.1136.394.1704.664.1704.265 0 .478-.0509.639-.1527.164-.1041.247-.2379.249-.4012-.002-.1374-.06-.2498-.174-.3374-.114-.09-.289-.1586-.526-.206l-.944-.1882c-.533-.1065-.929-.2912-1.19-.554-.258-.2627-.387-.5977-.387-1.0049 0-.3504.095-.6523.284-.9056.192-.2533.461-.4486.806-.5859.348-.1373.756-.206 1.222-.206.689 0 1.231.1456 1.626.4368.398.2912.63.6878.696 1.1897zm4.575 1.5767v-3.1321h1.513v5.4545h-1.453v-.9908h-.056c-.123.3196-.328.5765-.615.7706-.284.1942-.631.2912-1.04.2912-.365 0-.686-.0828-.963-.2486-.277-.1657-.493-.4012-.649-.7066-.154-.3054-.232-.6712-.235-1.0973v-3.473h1.513v3.2031c.002.3219.089.5764.259.7635.171.187.399.2805.686.2805.182 0 .352-.0414.511-.1243.159-.0852.286-.2107.384-.3764.099-.1657.147-.3705.145-.6143zm5.18 4.4815c-.49 0-.91-.0675-1.26-.2024-.348-.1326-.625-.3137-.831-.5433-.206-.2297-.34-.4877-.402-.7742l1.4-.1882c.042.1089.11.2107.202.3054s.214.1704.366.2273c.154.0592.341.0887.561.0887.329 0 .6-.0804.813-.2414.215-.1587.323-.425.323-.799v-.9979h-.064c-.066.1515-.165.2947-.298.4297-.133.1349-.303.245-.511.3302-.209.0853-.457.1279-.746.1279-.41 0-.783-.0947-1.119-.2841-.334-.1918-.6-.4842-.799-.8771-.196-.3954-.294-.8949-.294-1.4986 0-.6179.1-1.134.301-1.5483.202-.4143.469-.7245.803-.9304.336-.206.704-.309 1.104-.309.306 0 .561.0521.767.1563.206.1018.372.2296.498.3835.127.1515.226.3007.294.4474h.057v-.9161h1.502v5.5078c0 .464-.113.8522-.341 1.1647-.227.3125-.542.5469-.944.7032-.4.1586-.861.2379-1.382.2379zm.032-3.3736c.244 0 .45-.0604.618-.1811.171-.1231.301-.2983.391-.5256.092-.2296.138-.5042.138-.8238s-.045-.5966-.135-.831c-.09-.2367-.22-.4202-.39-.5504-.171-.1302-.378-.1953-.622-.1953-.248 0-.458.0674-.628.2024-.171.1326-.3.3172-.387.554-.088.2367-.132.5101-.132.8203 0 .3148.044.5871.132.8167.09.2273.219.4037.387.5292.17.1231.38.1846.628.1846zm6.296 3.3736c-.49 0-.91-.0675-1.26-.2024-.348-.1326-.625-.3137-.831-.5433-.206-.2297-.34-.4877-.401-.7742l1.399-.1882c.042.1089.11.2107.202.3054s.214.1704.366.2273c.154.0592.341.0887.561.0887.329 0 .6-.0804.813-.2414.216-.1587.323-.425.323-.799v-.9979h-.064c-.066.1515-.165.2947-.298.4297-.132.1349-.303.245-.511.3302-.209.0853-.457.1279-.746.1279-.41 0-.782-.0947-1.119-.2841-.333-.1918-.6-.4842-.799-.8771-.196-.3954-.294-.8949-.294-1.4986 0-.6179.1-1.134.301-1.5483.202-.4143.469-.7245.803-.9304.336-.206.704-.309 1.104-.309.306 0 .562.0521.768.1563.205.1018.371.2296.497.3835.128.1515.226.3007.294.4474h.057v-.9161h1.502v5.5078c0 .464-.113.8522-.341 1.1647-.227.3125-.542.5469-.944.7032-.4.1586-.861.2379-1.382.2379zm.032-3.3736c.244 0 .45-.0604.618-.1811.171-.1231.301-.2983.391-.5256.092-.2296.138-.5042.138-.8238s-.045-.5966-.135-.831c-.089-.2367-.22-.4202-.39-.5504-.171-.1302-.378-.1953-.622-.1953-.248 0-.458.0674-.628.2024-.171.1326-.3.3172-.387.554-.088.2367-.132.5101-.132.8203 0 .3148.044.5871.132.8167.09.2273.219.4037.387.5292.17.1231.38.1846.628.1846zm6.325 1.321c-.561 0-1.044-.1136-1.449-.3409-.402-.2296-.712-.554-.93-.973-.218-.4214-.327-.9197-.327-1.495 0-.5611.109-1.0535.327-1.4773s.524-.754.919-.9908c.398-.2367.865-.3551 1.4-.3551.359 0 .694.058 1.005.174.312.1137.584.2853.816.515.235.2296.417.5184.547.8664.13.3457.196.7505.196 1.2145v.4155h-4.606v-.9375h3.182c0-.2178-.048-.4107-.143-.5788-.094-.1681-.226-.2995-.394-.3942-.165-.0971-.358-.1456-.579-.1456-.229 0-.433.0533-.61.1598-.176.1042-.313.245-.412.4226-.1.1752-.151.3705-.153.5859v.8914c0 .2698.05.503.149.6995.102.1965.245.348.43.4546.185.1065.404.1598.657.1598.168 0 .322-.0237.461-.0711.14-.0473.26-.1183.359-.213.1-.0947.175-.2107.227-.348l1.4.0923c-.071.3362-.217.6297-.437.8807-.218.2486-.5.4427-.845.5824-.344.1373-.74.2059-1.19.2059zm8.029-4.0056-1.385.0852c-.024-.1184-.074-.2249-.153-.3196-.078-.0971-.181-.174-.308-.2308-.126-.0592-.276-.0888-.451-.0888-.235 0-.433.0497-.594.1491-.161.0971-.241.2273-.241.3906 0 .1303.052.2403.156.3303s.283.1622.536.2166l.988.1989c.53.1089.925.2841 1.186.5256.26.2414.39.5587.39.9517 0 .3574-.105.6711-.316.941-.208.2699-.494.4806-.859.6321-.362.1492-.78.2237-1.254.2237-.722 0-1.297-.1503-1.725-.451-.427-.303-.676-.7149-.75-1.2358l1.488-.0781c.045.2202.154.3883.327.5043.173.1136.394.1704.664.1704.265 0 .478-.0509.639-.1527.164-.1041.246-.2379.249-.4012-.003-.1374-.061-.2498-.174-.3374-.114-.09-.289-.1586-.526-.206l-.944-.1882c-.533-.1065-.93-.2912-1.19-.554-.258-.2627-.387-.5977-.387-1.0049 0-.3504.095-.6523.284-.9056.192-.2533.46-.4486.806-.5859.348-.1373.755-.206 1.222-.206.689 0 1.231.1456 1.626.4368.398.2912.63.6878.696 1.1897zm3.978-1.5554v1.1363h-3.285v-1.1363zm-2.539-1.3069h1.513v5.0853c0 .1396.021.2485.064.3267.043.0757.102.129.177.1598.079.0307.169.0461.27.0461.071 0 .142-.0059.213-.0177.071-.0142.126-.0249.164-.032l.238 1.1257c-.076.0237-.183.0509-.32.0817-.137.0331-.304.0533-.501.0604-.364.0142-.684-.0344-.958-.1456-.273-.1113-.485-.2841-.636-.5185-.152-.2344-.226-.5303-.224-.8878zm5.952 6.8679c-.561 0-1.044-.1136-1.449-.3409-.402-.2296-.713-.554-.93-.973-.218-.4214-.327-.9197-.327-1.495 0-.5611.109-1.0535.327-1.4773.217-.4238.524-.754.919-.9908.398-.2367.865-.3551 1.4-.3551.359 0 .694.058 1.005.174.312.1137.584.2853.816.515.235.2296.417.5184.547.8664.13.3457.195.7505.195 1.2145v.4155h-4.605v-.9375h3.181c0-.2178-.047-.4107-.142-.5788-.094-.1681-.226-.2995-.394-.3942-.165-.0971-.358-.1456-.579-.1456-.229 0-.433.0533-.61.1598-.176.1042-.313.245-.412.4226-.1.1752-.151.3705-.153.5859v.8914c0 .2698.05.503.149.6995.102.1965.245.348.43.4546.184.1065.403.1598.657.1598.168 0 .322-.0237.461-.0711.14-.0473.26-.1183.359-.213.1-.0947.175-.2107.227-.348l1.4.0923c-.072.3362-.217.6297-.437.8807-.218.2486-.5.4427-.845.5824-.344.1373-.74.2059-1.19.2059zm5.501-.0177c-.415 0-.79-.1066-1.126-.3196-.334-.2155-.599-.5315-.796-.9482-.194-.419-.291-.9327-.291-1.5412 0-.625.101-1.1446.302-1.5589.201-.4167.469-.728.803-.934.336-.2083.704-.3125 1.104-.3125.305 0 .56.0521.764.1563.206.1018.371.2296.497.3835.128.1515.225.3007.291.4474h.046v-2.7343h1.509v7.2727h-1.491v-.8736h-.064c-.071.1515-.172.3019-.302.451-.128.1468-.295.2687-.501.3658-.203.097-.452.1456-.745.1456zm.479-1.2039c.244 0 .45-.0662.618-.1988.17-.135.301-.3232.391-.5647.092-.2414.138-.5243.138-.8487 0-.3243-.045-.606-.135-.8451-.09-.2392-.22-.4238-.391-.554-.17-.1302-.377-.1953-.621-.1953-.249 0-.458.0674-.629.2024-.17.1349-.299.322-.387.5611-.087.2391-.131.5161-.131.8309 0 .3173.044.5978.131.8416.09.2415.219.4309.387.5682.171.135.38.2024.629.2024zm10.721-2.784-1.385.0852c-.024-.1184-.075-.2249-.153-.3196-.078-.0971-.181-.174-.309-.2308-.125-.0592-.275-.0888-.451-.0888-.234 0-.432.0497-.593.1491-.161.0971-.241.2273-.241.3906 0 .1303.052.2403.156.3303s.283.1622.536.2166l.987.1989c.531.1089.926.2841 1.187.5256.26.2414.39.5587.39.9517 0 .3574-.105.6711-.316.941-.208.2699-.495.4806-.859.6321-.362.1492-.78.2237-1.254.2237-.722 0-1.297-.1503-1.726-.451-.426-.303-.676-.7149-.749-1.2358l1.488-.0781c.045.2202.154.3883.327.5043.173.1136.394.1704.664.1704.265 0 .478-.0509.639-.1527.163-.1041.246-.2379.249-.4012-.003-.1374-.061-.2498-.174-.3374-.114-.09-.289-.1586-.526-.206l-.945-.1882c-.532-.1065-.929-.2912-1.189-.554-.258-.2627-.387-.5977-.387-1.0049 0-.3504.094-.6523.284-.9056.192-.2533.46-.4486.806-.5859.348-.1373.755-.206 1.221-.206.689 0 1.232.1456 1.627.4368.398.2912.63.6878.696 1.1897zm1.077 3.8991v-5.4545h1.513v5.4545zm.76-6.1577c-.225 0-.418-.0745-.579-.2237-.159-.1515-.238-.3326-.238-.5433 0-.2083.079-.3871.238-.5362.161-.1516.354-.2273.579-.2273s.416.0757.575.2273c.161.1491.241.3279.241.5362 0 .2107-.08.3918-.241.5433-.159.1492-.35.2237-.575.2237zm1.936 6.1577v-.902l2.67-3.3061v-.0391h-2.578v-1.2073h4.4v.9836l-2.507 3.2245v.039h2.6v1.2074zm8.071.1065c-.561 0-1.044-.1136-1.449-.3409-.402-.2296-.713-.554-.93-.973-.218-.4214-.327-.9197-.327-1.495 0-.5611.109-1.0535.327-1.4773.217-.4238.524-.754.919-.9908.398-.2367.864-.3551 1.399-.3551.36 0 .695.058 1.005.174.313.1137.585.2853.817.515.235.2296.417.5184.547.8664.13.3457.195.7505.195 1.2145v.4155h-4.605v-.9375h3.181c0-.2178-.047-.4107-.142-.5788-.094-.1681-.226-.2995-.394-.3942-.166-.0971-.359-.1456-.579-.1456-.229 0-.433.0533-.61.1598-.176.1042-.313.245-.412.4226-.1.1752-.151.3705-.153.5859v.8914c0 .2698.05.503.149.6995.102.1965.245.348.43.4546.184.1065.403.1598.657.1598.168 0 .322-.0237.461-.0711.14-.0473.26-.1183.359-.213s.175-.2107.227-.348l1.399.0923c-.071.3362-.216.6297-.436.8807-.218.2486-.5.4427-.846.5824-.343.1373-.739.2059-1.189.2059zm4.375-.0142c-.235 0-.436-.0828-.604-.2485-.166-.1681-.248-.3694-.248-.6037 0-.2321.082-.4309.248-.5966.168-.1658.369-.2486.604-.2486.227 0 .426.0828.596.2486.171.1657.256.3645.256.5966 0 .1562-.04.2994-.121.4296-.078.1279-.181.2309-.309.309-.127.0758-.268.1136-.422.1136zm0-3.821c-.235 0-.436-.0829-.604-.2486-.166-.1657-.248-.3669-.248-.6037 0-.232.082-.4297.248-.593.168-.1657.369-.2486.604-.2486.227 0 .426.0829.596.2486.171.1633.256.361.256.593 0 .1587-.04.3031-.121.4333-.078.1278-.181.2296-.309.3054-.127.0757-.268.1136-.422.1136zm4.284 2.4503v-1.2109l3.037-4.7834h1.044v1.6761h-.618l-1.914 3.0291v.0568h4.314v1.2323zm3.491 1.2784v-1.6477l.028-.5362v-5.0888h1.442v7.2727zm3.397 0v-1.108l2.588-2.397c.221-.213.405-.4048.554-.5753.152-.1704.267-.3373.345-.5007.078-.1657.117-.3444.117-.5362 0-.2131-.048-.3965-.145-.5504-.098-.1563-.23-.2758-.398-.3587-.168-.0852-.359-.1278-.572-.1278-.222 0-.417.045-.582.1349-.166.09-.294.219-.384.3871s-.135.3681-.135.6001h-1.459c0-.4758.107-.8889.323-1.2393.215-.3504.517-.6215.905-.8132.389-.1918.836-.2877 1.343-.2877.521 0 .974.0924 1.36.277.388.1823.69.4356.905.76.216.3243.323.696.323 1.115 0 .2747-.054.5457-.163.8132-.106.2676-.297.5647-.572.8914-.274.3243-.661.7138-1.161 1.1683l-1.062 1.0405v.0497h3.054v1.2571zm6.313 2.0455v-7.5h1.491v.9161h.068c.066-.1467.162-.2959.287-.4474.128-.1539.294-.2817.497-.3835.206-.1042.462-.1563.768-.1563.397 0 .764.1042 1.1.3125.337.206.605.5173.806.934.202.4143.302.9339.302 1.5589 0 .6085-.098 1.1222-.294 1.5412-.195.4167-.46.7327-.796.9482-.334.213-.708.3196-1.122.3196-.294 0-.543-.0486-.749-.1456-.204-.0971-.371-.219-.501-.3658-.13-.1491-.23-.2995-.298-.451h-.046v2.9191zm1.481-4.7728c0 .3244.045.6073.135.8487.089.2415.22.4297.39.5647.171.1326.378.1988.622.1988.246 0 .454-.0674.625-.2024.17-.1373.299-.3267.387-.5682.09-.2438.135-.5243.135-.8416 0-.3148-.044-.5918-.132-.8309-.087-.2391-.216-.4262-.387-.5611-.17-.135-.38-.2024-.628-.2024-.247 0-.455.0651-.625.1953-.169.1302-.298.3148-.387.554-.09.2391-.135.5208-.135.8451zm5.916-2.7272 1.001 1.9069 1.026-1.9069h1.552l-1.58 2.7272 1.623 2.7273h-1.545l-1.076-1.8857-1.058 1.8857h-1.563l1.62-2.7273-1.563-2.7272zm7.027 2.539c0 .8831-.118 1.6951-.355 2.4361-.234.741-.594 1.4276-1.079 2.0597h-1.446c.185-.2344.357-.5209.515-.8594.159-.3386.298-.7079.416-1.108.118-.4024.211-.8191.277-1.25.066-.4308.099-.857.099-1.2784 0-.5611-.058-1.1269-.174-1.6974-.113-.5729-.27-1.1032-.468-1.5909-.197-.4901-.418-.8914-.665-1.2039h1.446c.485.6321.845 1.3187 1.079 2.0597.237.741.355 1.5518.355 2.4325z" fill="#fff"/><path d="m753.5 40.75h7" stroke="#e8178a"/><path d="m753.5 81.75h7" stroke="#e8178a"/></g></g></svg>