<svg width="960" height="205" viewBox="0 0 960 205" fill="none" xmlns="http://www.w3.org/2000/svg">
<g clip-path="url(#clip0_250_53883)">
<rect width="479" height="205" fill="#252A2E"/>
<g filter="url(#filter0_d_250_53883)">
<rect x="139.5" y="40" width="200" height="56" fill="#171C1E"/>
<rect x="140" y="40.5" width="199" height="55" stroke="black" stroke-opacity="0.2"/>
</g>
<g filter="url(#filter1_d_250_53883)">
<rect x="194" y="106" width="105" height="59" rx="7" fill="#171C1E"/>
<path fill-rule="evenodd" clip-rule="evenodd" d="M212.002 121.002C212.244 121.252 212.475 121.491 212.695 121.72C214.898 124.012 216 125.294 216 126.852C216.003 127.914 215.612 128.977 214.828 129.788C213.266 131.404 210.734 131.404 209.172 129.788C208.388 128.977 207.998 127.914 208 126.852C208 125.294 209.102 124.012 211.305 121.72C211.525 121.491 211.756 121.252 211.999 121.002L212 121L212 121L212.002 121.002ZM209.805 124.911C210.307 124.231 211.024 123.457 212 122.44C212.977 123.457 213.693 124.231 214.195 124.911C214.795 125.724 215 126.291 215 126.852V126.854C215 126.903 214.999 126.951 214.997 127H209.003C209.001 126.951 209 126.903 209 126.854V126.852C209 126.291 209.205 125.724 209.805 124.911Z" fill="#8C8C8C"/>
<path d="M247.828 130.5L249.141 122.5H249.922L248.609 130.5H247.828ZM244.188 128.281L244.313 127.5H250.281L250.156 128.281H244.188ZM245.016 130.5L246.328 122.5H247.109L245.797 130.5H245.016ZM244.656 125.5L244.781 124.719H250.75L250.625 125.5H244.656ZM252.018 130.5L255.596 123.422V123.359H251.471V122.5H256.596V123.406L253.033 130.5H252.018ZM260.864 122.5V130.5H259.896V123.516H259.849L257.896 124.812V123.828L259.896 122.5H260.864ZM263.415 130.5L266.993 123.422V123.359H262.868V122.5H267.993V123.406L264.431 130.5H263.415ZM276.027 125H275.059C275.001 124.721 274.901 124.477 274.758 124.266C274.617 124.055 274.445 123.878 274.242 123.734C274.042 123.589 273.819 123.479 273.574 123.406C273.329 123.333 273.074 123.297 272.809 123.297C272.324 123.297 271.885 123.419 271.492 123.664C271.102 123.909 270.79 124.27 270.559 124.746C270.329 125.223 270.215 125.807 270.215 126.5C270.215 127.193 270.329 127.777 270.559 128.254C270.79 128.73 271.102 129.091 271.492 129.336C271.885 129.581 272.324 129.703 272.809 129.703C273.074 129.703 273.329 129.667 273.574 129.594C273.819 129.521 274.042 129.413 274.242 129.27C274.445 129.124 274.617 128.945 274.758 128.734C274.901 128.521 275.001 128.276 275.059 128H276.027C275.954 128.409 275.822 128.775 275.629 129.098C275.436 129.421 275.197 129.695 274.91 129.922C274.624 130.146 274.302 130.316 273.945 130.434C273.591 130.551 273.212 130.609 272.809 130.609C272.126 130.609 271.52 130.443 270.988 130.109C270.457 129.776 270.039 129.302 269.734 128.687C269.43 128.073 269.277 127.344 269.277 126.5C269.277 125.656 269.43 124.927 269.734 124.312C270.039 123.698 270.457 123.224 270.988 122.891C271.52 122.557 272.126 122.391 272.809 122.391C273.212 122.391 273.591 122.449 273.945 122.566C274.302 122.684 274.624 122.855 274.91 123.082C275.197 123.306 275.436 123.579 275.629 123.902C275.822 124.223 275.954 124.589 276.027 125ZM280.265 122.5V130.5H279.296V123.516H279.249L277.296 124.812V123.828L279.296 122.5H280.265ZM282.706 130.5V122.5H287.534V123.359H283.675V126.062H287.284V126.922H283.675V129.641H287.597V130.5H282.706Z" fill="white"/>
<path d="M224 121C224 119.343 225.343 118 227 118H232V134H227C225.343 134 224 132.657 224 131V121Z" fill="#171C1E"/>
<path d="M232 118H237C238.657 118 240 119.343 240 121V131C240 132.657 238.657 134 237 134H232V118Z" fill="#171C1E"/>
<path fill-rule="evenodd" clip-rule="evenodd" d="M209 147V148H210V147C210 144.791 211.791 143 214 143H214.667C214.779 143 214.89 143.005 215 143.014V142.011C214.89 142.004 214.779 142 214.667 142H214C211.239 142 209 144.239 209 147Z" fill="#90939F"/>
<path d="M227.438 149.609C226.849 149.609 226.348 149.449 225.934 149.129C225.52 148.806 225.203 148.339 224.984 147.727C224.766 147.112 224.656 146.37 224.656 145.5C224.656 144.635 224.766 143.897 224.984 143.285C225.206 142.671 225.523 142.202 225.938 141.879C226.354 141.553 226.854 141.391 227.438 141.391C228.021 141.391 228.52 141.553 228.934 141.879C229.35 142.202 229.668 142.671 229.887 143.285C230.108 143.897 230.219 144.635 230.219 145.5C230.219 146.37 230.109 147.112 229.891 147.727C229.672 148.339 229.355 148.806 228.941 149.129C228.527 149.449 228.026 149.609 227.438 149.609ZM227.438 148.75C228.021 148.75 228.474 148.469 228.797 147.906C229.12 147.344 229.281 146.542 229.281 145.5C229.281 144.807 229.207 144.217 229.059 143.73C228.913 143.243 228.702 142.872 228.426 142.617C228.152 142.362 227.823 142.234 227.438 142.234C226.859 142.234 226.408 142.52 226.082 143.09C225.757 143.658 225.594 144.461 225.594 145.5C225.594 146.193 225.667 146.781 225.813 147.266C225.958 147.75 226.168 148.118 226.441 148.371C226.717 148.624 227.049 148.75 227.438 148.75Z" fill="white"/>
<g clip-path="url(#clip1_250_53883)">
<rect x="239.5" y="100.5" width="11" height="11" transform="rotate(45 239.5 100.5)" fill="#171C1E"/>
</g>
</g>
<rect width="479" height="205" transform="translate(481)" fill="#252A2E"/>
<path d="M708.461 72.25H706.578V62.4219H703.234V60.8281H711.797V62.4219H708.461V72.25ZM715.345 63.6016V72.25H713.509V63.6016H715.345ZM714.439 60.2891C714.72 60.2891 714.962 60.3646 715.166 60.5156C715.374 60.6667 715.478 60.9271 715.478 61.2969C715.478 61.6615 715.374 61.9219 715.166 62.0781C714.962 62.2292 714.72 62.3047 714.439 62.3047C714.147 62.3047 713.9 62.2292 713.697 62.0781C713.499 61.9219 713.4 61.6615 713.4 61.2969C713.4 60.9271 713.499 60.6667 713.697 60.5156C713.9 60.3646 714.147 60.2891 714.439 60.2891ZM721.347 70.9219C721.586 70.9219 721.823 70.901 722.058 70.8594C722.292 70.8125 722.506 70.7578 722.698 70.6953V72.0859C722.495 72.1745 722.232 72.25 721.909 72.3125C721.586 72.375 721.251 72.4062 720.902 72.4062C720.412 72.4062 719.972 72.3255 719.581 72.1641C719.191 71.9974 718.881 71.7135 718.652 71.3125C718.422 70.9115 718.308 70.3568 718.308 69.6484V65H717.128V64.1797L718.394 63.5312L718.995 61.6797H720.152V63.6016H722.628V65H720.152V69.625C720.152 70.0625 720.261 70.388 720.48 70.6016C720.698 70.8151 720.988 70.9219 721.347 70.9219ZM726.45 72.25H724.606V60.0938H726.45V72.25ZM732.67 63.4375C733.441 63.4375 734.103 63.5964 734.655 63.9141C735.207 64.2318 735.631 64.6823 735.928 65.2656C736.225 65.849 736.373 66.5469 736.373 67.3594V68.3438H730.6C730.621 69.1823 730.845 69.8281 731.272 70.2812C731.704 70.7344 732.308 70.9609 733.084 70.9609C733.636 70.9609 734.131 70.9089 734.569 70.8047C735.011 70.6953 735.467 70.5365 735.936 70.3281V71.8203C735.504 72.0234 735.064 72.1719 734.616 72.2656C734.168 72.3594 733.631 72.4062 733.006 72.4062C732.157 72.4062 731.41 72.2422 730.764 71.9141C730.123 71.5807 729.621 71.0859 729.256 70.4297C728.897 69.7734 728.717 68.9583 728.717 67.9844C728.717 67.0156 728.881 66.1927 729.209 65.5156C729.538 64.8385 729.998 64.3229 730.592 63.9688C731.186 63.6146 731.879 63.4375 732.67 63.4375ZM732.67 64.8203C732.092 64.8203 731.623 65.0078 731.264 65.3828C730.91 65.7578 730.702 66.3073 730.639 67.0312H734.577C734.571 66.599 734.498 66.2161 734.358 65.8828C734.222 65.5495 734.014 65.2891 733.733 65.1016C733.457 64.9141 733.103 64.8203 732.67 64.8203Z" fill="white"/>
<g filter="url(#filter2_d_250_53883)">
<rect x="672" y="88.25" width="96" height="67" rx="7" fill="#171C1E"/>
<path d="M695.18 110.199H694.062V110.125C694.07 108.676 694.5 108.234 695.227 107.789C695.691 107.5 696.055 107.09 696.055 106.508C696.055 105.816 695.516 105.375 694.852 105.375C694.254 105.375 693.664 105.738 693.617 106.566H692.43C692.48 105.16 693.535 104.391 694.852 104.391C696.285 104.391 697.246 105.25 697.246 106.52C697.246 107.398 696.816 107.992 696.117 108.414C695.453 108.824 695.195 109.227 695.18 110.125V110.199Z" fill="#8C8C8C"/>
<path d="M695.434 111.793C695.434 112.227 695.078 112.574 694.652 112.574C694.223 112.574 693.871 112.227 693.871 111.793C693.871 111.367 694.223 111.016 694.652 111.016C695.078 111.016 695.434 111.367 695.434 111.793Z" fill="#8C8C8C"/>
<path fill-rule="evenodd" clip-rule="evenodd" d="M684 112.5L687.111 104.5H688.196L691.307 112.5H690.234L689.457 110.5H685.851L685.073 112.5H684ZM687.654 105.864L689.068 109.5H686.24L687.654 105.864Z" fill="#8C8C8C"/>
<path d="M709.896 108.313C709.896 109.57 709.577 110.558 708.939 111.278C708.306 111.998 707.423 112.357 706.292 112.357C705.135 112.357 704.242 112.005 703.611 111.299C702.985 110.59 702.671 109.591 702.671 108.302C702.671 107.024 702.986 106.034 703.617 105.332C704.247 104.627 705.142 104.274 706.302 104.274C707.43 104.274 708.311 104.632 708.945 105.348C709.579 106.064 709.896 107.053 709.896 108.313ZM703.638 108.313C703.638 109.376 703.864 110.184 704.315 110.735C704.77 111.283 705.429 111.557 706.292 111.557C707.162 111.557 707.819 111.283 708.263 110.735C708.707 110.188 708.929 109.38 708.929 108.313C708.929 107.257 708.707 106.456 708.263 105.912C707.822 105.364 707.169 105.09 706.302 105.09C705.432 105.09 704.77 105.366 704.315 105.917C703.864 106.465 703.638 107.264 703.638 108.313ZM714.257 112.357C713.874 112.357 713.523 112.288 713.204 112.148C712.889 112.005 712.624 111.786 712.409 111.493H712.345C712.388 111.836 712.409 112.162 712.409 112.47V114.893H711.518V106.363H712.243L712.366 107.169H712.409C712.638 106.847 712.905 106.614 713.209 106.471C713.514 106.327 713.863 106.256 714.257 106.256C715.037 106.256 715.639 106.523 716.062 107.056C716.488 107.59 716.701 108.338 716.701 109.301C716.701 110.268 716.484 111.02 716.051 111.557C715.621 112.091 715.023 112.357 714.257 112.357ZM714.128 107.013C713.526 107.013 713.091 107.18 712.823 107.513C712.554 107.846 712.416 108.376 712.409 109.103V109.301C712.409 110.128 712.547 110.721 712.823 111.079C713.098 111.434 713.541 111.611 714.149 111.611C714.658 111.611 715.055 111.405 715.342 110.993C715.632 110.581 715.777 110.014 715.777 109.291C715.777 108.556 715.632 107.994 715.342 107.604C715.055 107.21 714.651 107.013 714.128 107.013ZM720.75 112.357C719.88 112.357 719.193 112.092 718.688 111.562C718.187 111.033 717.936 110.297 717.936 109.355C717.936 108.406 718.169 107.652 718.634 107.094C719.103 106.535 719.732 106.256 720.52 106.256C721.257 106.256 721.841 106.499 722.271 106.986C722.7 107.47 722.915 108.109 722.915 108.904V109.468H718.86C718.878 110.159 719.051 110.683 719.381 111.042C719.714 111.4 720.181 111.579 720.783 111.579C721.417 111.579 722.043 111.446 722.663 111.181V111.976C722.347 112.112 722.049 112.209 721.766 112.266C721.486 112.327 721.148 112.357 720.75 112.357ZM720.509 107.002C720.036 107.002 719.658 107.156 719.375 107.464C719.096 107.772 718.931 108.198 718.881 108.743H721.959C721.959 108.181 721.834 107.751 721.583 107.454C721.332 107.153 720.974 107.002 720.509 107.002ZM728.469 112.25V108.442C728.469 107.962 728.36 107.604 728.141 107.368C727.923 107.131 727.581 107.013 727.115 107.013C726.499 107.013 726.048 107.18 725.762 107.513C725.475 107.846 725.332 108.395 725.332 109.162V112.25H724.44V106.363H725.166L725.311 107.169H725.354C725.536 106.879 725.792 106.655 726.122 106.498C726.451 106.336 726.818 106.256 727.223 106.256C727.932 106.256 728.465 106.428 728.823 106.771C729.181 107.112 729.36 107.658 729.36 108.41V112.25H728.469ZM738.62 110.161C738.62 110.852 738.369 111.391 737.868 111.777C737.367 112.164 736.687 112.357 735.827 112.357C734.896 112.357 734.18 112.237 733.679 111.998V111.117C734.001 111.253 734.352 111.36 734.731 111.439C735.111 111.518 735.487 111.557 735.859 111.557C736.468 111.557 736.926 111.443 737.234 111.213C737.542 110.981 737.696 110.658 737.696 110.247C737.696 109.974 737.641 109.752 737.53 109.581C737.422 109.405 737.24 109.244 736.982 109.097C736.728 108.95 736.339 108.784 735.816 108.598C735.086 108.336 734.563 108.027 734.248 107.668C733.937 107.31 733.781 106.843 733.781 106.267C733.781 105.661 734.008 105.18 734.463 104.822C734.918 104.464 735.519 104.285 736.268 104.285C737.048 104.285 737.766 104.428 738.421 104.714L738.137 105.509C737.489 105.237 736.858 105.101 736.246 105.101C735.763 105.101 735.385 105.205 735.113 105.413C734.841 105.62 734.705 105.909 734.705 106.277C734.705 106.549 734.755 106.773 734.855 106.949C734.955 107.121 735.124 107.28 735.36 107.427C735.6 107.57 735.965 107.729 736.456 107.905C737.279 108.198 737.845 108.514 738.153 108.85C738.464 109.187 738.62 109.624 738.62 110.161ZM743.712 112.25L743.535 111.412H743.492C743.198 111.781 742.904 112.032 742.611 112.164C742.321 112.293 741.957 112.357 741.521 112.357C740.937 112.357 740.479 112.207 740.146 111.906C739.816 111.605 739.651 111.178 739.651 110.623C739.651 109.434 740.602 108.811 742.503 108.753L743.502 108.721V108.356C743.502 107.894 743.402 107.554 743.202 107.335C743.005 107.113 742.688 107.002 742.251 107.002C741.76 107.002 741.205 107.153 740.586 107.454L740.312 106.771C740.602 106.614 740.919 106.49 741.263 106.401C741.61 106.311 741.957 106.267 742.305 106.267C743.007 106.267 743.526 106.422 743.862 106.734C744.202 107.045 744.373 107.545 744.373 108.232V112.25H743.712ZM741.698 111.622C742.253 111.622 742.688 111.469 743.003 111.165C743.322 110.861 743.481 110.435 743.481 109.887V109.355L742.589 109.393C741.88 109.418 741.368 109.529 741.053 109.726C740.742 109.919 740.586 110.222 740.586 110.633C740.586 110.956 740.683 111.201 740.876 111.369C741.073 111.537 741.347 111.622 741.698 111.622ZM750.243 112.25V108.442C750.243 107.962 750.134 107.604 749.916 107.368C749.697 107.131 749.355 107.013 748.89 107.013C748.274 107.013 747.823 107.18 747.536 107.513C747.25 107.846 747.106 108.395 747.106 109.162V112.25H746.215V106.363H746.94L747.085 107.169H747.128C747.311 106.879 747.567 106.655 747.896 106.498C748.225 106.336 748.592 106.256 748.997 106.256C749.706 106.256 750.24 106.428 750.598 106.771C750.956 107.112 751.135 107.658 751.135 108.41V112.25H750.243ZM756.769 110.644C756.769 111.192 756.565 111.614 756.157 111.912C755.749 112.209 755.176 112.357 754.438 112.357C753.657 112.357 753.049 112.234 752.612 111.987V111.16C752.895 111.303 753.197 111.416 753.52 111.498C753.845 111.58 754.159 111.622 754.459 111.622C754.925 111.622 755.283 111.548 755.534 111.401C755.784 111.251 755.91 111.024 755.91 110.719C755.91 110.49 755.809 110.295 755.609 110.134C755.412 109.969 755.025 109.776 754.449 109.554C753.901 109.35 753.511 109.172 753.278 109.022C753.049 108.868 752.877 108.694 752.762 108.501C752.651 108.308 752.596 108.077 752.596 107.808C752.596 107.328 752.791 106.951 753.181 106.675C753.571 106.396 754.107 106.256 754.787 106.256C755.421 106.256 756.04 106.385 756.646 106.643L756.329 107.368C755.738 107.124 755.202 107.002 754.723 107.002C754.3 107.002 753.981 107.069 753.767 107.201C753.552 107.334 753.444 107.516 753.444 107.749C753.444 107.907 753.484 108.041 753.562 108.152C753.645 108.263 753.776 108.368 753.955 108.469C754.134 108.569 754.477 108.714 754.986 108.904C755.684 109.158 756.155 109.414 756.398 109.672C756.646 109.93 756.769 110.254 756.769 110.644Z" fill="white"/>
<path d="M707.01 124.351C707.01 124.979 706.782 125.469 706.326 125.82C705.87 126.172 705.252 126.348 704.471 126.348C703.624 126.348 702.973 126.239 702.518 126.021V125.22C702.811 125.343 703.13 125.441 703.475 125.513C703.82 125.584 704.161 125.62 704.5 125.62C705.053 125.62 705.47 125.516 705.75 125.308C706.03 125.096 706.17 124.803 706.17 124.429C706.17 124.181 706.119 123.979 706.019 123.823C705.921 123.664 705.755 123.517 705.521 123.384C705.289 123.25 704.936 123.099 704.461 122.93C703.797 122.692 703.322 122.41 703.035 122.085C702.752 121.759 702.61 121.335 702.61 120.811C702.61 120.26 702.817 119.823 703.23 119.497C703.644 119.172 704.191 119.009 704.871 119.009C705.581 119.009 706.233 119.139 706.829 119.399L706.57 120.122C705.981 119.875 705.408 119.751 704.852 119.751C704.412 119.751 704.069 119.845 703.821 120.034C703.574 120.223 703.45 120.485 703.45 120.82C703.45 121.068 703.496 121.271 703.587 121.431C703.678 121.587 703.831 121.732 704.046 121.865C704.264 121.995 704.596 122.14 705.042 122.3C705.791 122.567 706.305 122.853 706.585 123.159C706.868 123.465 707.01 123.862 707.01 124.351ZM710.608 126.348C709.817 126.348 709.192 126.107 708.733 125.625C708.278 125.143 708.05 124.474 708.05 123.618C708.05 122.756 708.261 122.07 708.685 121.562C709.111 121.055 709.682 120.801 710.398 120.801C711.069 120.801 711.6 121.022 711.99 121.465C712.381 121.904 712.576 122.485 712.576 123.208V123.721H708.89C708.906 124.349 709.064 124.826 709.363 125.151C709.666 125.477 710.091 125.64 710.638 125.64C711.214 125.64 711.784 125.519 712.347 125.278V126.001C712.06 126.125 711.788 126.213 711.531 126.265C711.277 126.32 710.97 126.348 710.608 126.348ZM710.389 121.479C709.959 121.479 709.616 121.619 709.358 121.899C709.104 122.179 708.955 122.567 708.909 123.062H711.707C711.707 122.55 711.593 122.16 711.365 121.89C711.137 121.616 710.812 121.479 710.389 121.479ZM720.784 126.25V122.769C720.784 122.342 720.693 122.023 720.511 121.812C720.328 121.597 720.045 121.489 719.661 121.489C719.157 121.489 718.784 121.634 718.543 121.924C718.302 122.214 718.182 122.66 718.182 123.262V126.25H717.371V122.769C717.371 122.342 717.28 122.023 717.098 121.812C716.915 121.597 716.631 121.489 716.243 121.489C715.735 121.489 715.363 121.642 715.125 121.948C714.891 122.251 714.773 122.749 714.773 123.442V126.25H713.963V120.898H714.622L714.754 121.631H714.793C714.946 121.37 715.161 121.167 715.438 121.021C715.717 120.874 716.03 120.801 716.375 120.801C717.212 120.801 717.758 121.104 718.016 121.709H718.055C718.214 121.429 718.445 121.208 718.748 121.045C719.051 120.882 719.396 120.801 719.783 120.801C720.389 120.801 720.841 120.957 721.141 121.27C721.443 121.579 721.595 122.075 721.595 122.759V126.25H720.784ZM724.08 126.25H723.27V120.898H724.08V126.25ZM723.201 119.448C723.201 119.263 723.247 119.128 723.338 119.043C723.429 118.955 723.543 118.911 723.68 118.911C723.81 118.911 723.922 118.955 724.017 119.043C724.111 119.131 724.158 119.266 724.158 119.448C724.158 119.631 724.111 119.767 724.017 119.858C723.922 119.946 723.81 119.99 723.68 119.99C723.543 119.99 723.429 119.946 723.338 119.858C723.247 119.767 723.201 119.631 723.201 119.448ZM725.921 119.111H727.938C728.885 119.111 729.57 119.253 729.993 119.536C730.416 119.819 730.628 120.267 730.628 120.879C730.628 121.302 730.509 121.652 730.271 121.929C730.037 122.202 729.694 122.38 729.241 122.461V122.51C730.325 122.695 730.867 123.265 730.867 124.219C730.867 124.857 730.651 125.355 730.218 125.713C729.788 126.071 729.186 126.25 728.411 126.25H725.921V119.111ZM726.751 122.168H728.118C728.704 122.168 729.126 122.077 729.383 121.895C729.64 121.709 729.769 121.398 729.769 120.962C729.769 120.562 729.625 120.273 729.339 120.098C729.052 119.919 728.597 119.829 727.972 119.829H726.751V122.168ZM726.751 122.871V125.542H728.24C728.816 125.542 729.249 125.431 729.539 125.21C729.832 124.985 729.979 124.635 729.979 124.16C729.979 123.717 729.829 123.392 729.529 123.184C729.233 122.975 728.781 122.871 728.172 122.871H726.751ZM736.902 123.569C736.902 124.442 736.683 125.124 736.243 125.615C735.804 126.104 735.197 126.348 734.422 126.348C733.943 126.348 733.519 126.235 733.147 126.011C732.776 125.786 732.49 125.464 732.288 125.044C732.086 124.624 731.985 124.132 731.985 123.569C731.985 122.697 732.203 122.018 732.64 121.533C733.076 121.045 733.681 120.801 734.456 120.801C735.205 120.801 735.799 121.05 736.238 121.548C736.681 122.046 736.902 122.72 736.902 123.569ZM732.825 123.569C732.825 124.253 732.962 124.774 733.235 125.132C733.509 125.49 733.911 125.669 734.441 125.669C734.972 125.669 735.374 125.492 735.647 125.137C735.924 124.779 736.062 124.256 736.062 123.569C736.062 122.889 735.924 122.373 735.647 122.021C735.374 121.667 734.969 121.489 734.432 121.489C733.901 121.489 733.501 121.663 733.23 122.012C732.96 122.36 732.825 122.879 732.825 123.569ZM739.139 126.25H738.328V118.652H739.139V126.25ZM744.5 125.532H744.456C744.082 126.076 743.522 126.348 742.776 126.348C742.076 126.348 741.531 126.108 741.141 125.63C740.753 125.151 740.56 124.471 740.56 123.589C740.56 122.707 740.755 122.021 741.146 121.533C741.536 121.045 742.08 120.801 742.776 120.801C743.502 120.801 744.059 121.064 744.446 121.592H744.51L744.476 121.206L744.456 120.83V118.652H745.267V126.25H744.607L744.5 125.532ZM742.879 125.669C743.432 125.669 743.833 125.519 744.08 125.22C744.331 124.917 744.456 124.43 744.456 123.76V123.589C744.456 122.83 744.329 122.29 744.075 121.968C743.825 121.642 743.423 121.479 742.869 121.479C742.394 121.479 742.029 121.665 741.775 122.036C741.525 122.404 741.399 122.925 741.399 123.599C741.399 124.282 741.525 124.798 741.775 125.146C742.026 125.495 742.394 125.669 742.879 125.669ZM707.01 138.351C707.01 138.979 706.782 139.469 706.326 139.82C705.87 140.172 705.252 140.348 704.471 140.348C703.624 140.348 702.973 140.239 702.518 140.021V139.22C702.811 139.343 703.13 139.441 703.475 139.513C703.82 139.584 704.161 139.62 704.5 139.62C705.053 139.62 705.47 139.516 705.75 139.308C706.03 139.096 706.17 138.803 706.17 138.429C706.17 138.181 706.119 137.979 706.019 137.823C705.921 137.664 705.755 137.517 705.521 137.384C705.289 137.25 704.936 137.099 704.461 136.93C703.797 136.692 703.322 136.41 703.035 136.085C702.752 135.759 702.61 135.335 702.61 134.811C702.61 134.26 702.817 133.823 703.23 133.497C703.644 133.172 704.191 133.009 704.871 133.009C705.581 133.009 706.233 133.139 706.829 133.399L706.57 134.122C705.981 133.875 705.408 133.751 704.852 133.751C704.412 133.751 704.069 133.845 703.821 134.034C703.574 134.223 703.45 134.485 703.45 134.82C703.45 135.068 703.496 135.271 703.587 135.431C703.678 135.587 703.831 135.732 704.046 135.865C704.264 135.995 704.596 136.14 705.042 136.3C705.791 136.567 706.305 136.853 706.585 137.159C706.868 137.465 707.01 137.862 707.01 138.351ZM709.158 140.25H708.348V134.898H709.158V140.25ZM708.279 133.448C708.279 133.263 708.325 133.128 708.416 133.043C708.507 132.955 708.621 132.911 708.758 132.911C708.888 132.911 709 132.955 709.095 133.043C709.189 133.131 709.236 133.266 709.236 133.448C709.236 133.631 709.189 133.767 709.095 133.858C709 133.946 708.888 133.99 708.758 133.99C708.621 133.99 708.507 133.946 708.416 133.858C708.325 133.767 708.279 133.631 708.279 133.448ZM714.3 140.25H710.418V139.698L713.338 135.528H710.599V134.898H714.227V135.528L711.346 139.62H714.3V140.25ZM717.815 140.348C717.024 140.348 716.399 140.107 715.94 139.625C715.485 139.143 715.257 138.474 715.257 137.618C715.257 136.756 715.468 136.07 715.892 135.562C716.318 135.055 716.889 134.801 717.605 134.801C718.276 134.801 718.807 135.022 719.197 135.465C719.588 135.904 719.783 136.485 719.783 137.208V137.721H716.097C716.113 138.349 716.271 138.826 716.57 139.151C716.873 139.477 717.298 139.64 717.845 139.64C718.421 139.64 718.991 139.519 719.554 139.278V140.001C719.267 140.125 718.995 140.213 718.738 140.265C718.484 140.32 718.177 140.348 717.815 140.348ZM717.596 135.479C717.166 135.479 716.823 135.619 716.565 135.899C716.312 136.179 716.162 136.567 716.116 137.062H718.914C718.914 136.55 718.8 136.16 718.572 135.89C718.344 135.616 718.019 135.479 717.596 135.479ZM724.622 138.79C724.622 139.288 724.437 139.672 724.065 139.942C723.694 140.213 723.174 140.348 722.503 140.348C721.793 140.348 721.24 140.235 720.843 140.011V139.259C721.1 139.389 721.375 139.492 721.668 139.566C721.964 139.641 722.249 139.679 722.522 139.679C722.946 139.679 723.271 139.612 723.499 139.479C723.727 139.342 723.841 139.135 723.841 138.858C723.841 138.65 723.75 138.473 723.567 138.326C723.388 138.176 723.037 138.001 722.513 137.799C722.015 137.613 721.66 137.452 721.448 137.315C721.24 137.175 721.084 137.018 720.979 136.842C720.879 136.666 720.828 136.456 720.828 136.212C720.828 135.776 721.006 135.432 721.36 135.182C721.715 134.928 722.202 134.801 722.82 134.801C723.396 134.801 723.96 134.918 724.51 135.152L724.222 135.812C723.685 135.59 723.198 135.479 722.762 135.479C722.378 135.479 722.088 135.54 721.893 135.66C721.697 135.781 721.6 135.947 721.6 136.158C721.6 136.301 721.635 136.424 721.707 136.524C721.782 136.625 721.901 136.721 722.063 136.812C722.226 136.904 722.539 137.035 723.001 137.208C723.636 137.439 724.064 137.672 724.285 137.906C724.51 138.141 724.622 138.435 724.622 138.79ZM725.828 139.732C725.828 139.514 725.877 139.35 725.975 139.239C726.076 139.125 726.219 139.068 726.404 139.068C726.593 139.068 726.74 139.125 726.844 139.239C726.951 139.35 727.005 139.514 727.005 139.732C727.005 139.944 726.951 140.107 726.844 140.221C726.736 140.335 726.59 140.392 726.404 140.392C726.238 140.392 726.1 140.341 725.989 140.24C725.882 140.136 725.828 139.967 725.828 139.732ZM725.828 135.421C725.828 134.981 726.02 134.762 726.404 134.762C726.805 134.762 727.005 134.981 727.005 135.421C727.005 135.632 726.951 135.795 726.844 135.909C726.736 136.023 726.59 136.08 726.404 136.08C726.238 136.08 726.1 136.03 725.989 135.929C725.882 135.825 725.828 135.655 725.828 135.421ZM733.841 140.25H733.05V135.162C733.05 134.739 733.063 134.339 733.089 133.961C733.021 134.029 732.944 134.101 732.859 134.176C732.775 134.251 732.387 134.568 731.697 135.128L731.268 134.571L733.157 133.111H733.841V140.25ZM736.644 137.198C736.644 135.795 736.915 134.747 737.459 134.054C738.006 133.357 738.813 133.009 739.881 133.009C740.249 133.009 740.538 133.04 740.75 133.102V133.8C740.499 133.718 740.213 133.678 739.891 133.678C739.126 133.678 738.541 133.917 738.138 134.396C737.734 134.871 737.513 135.619 737.474 136.642H737.532C737.89 136.082 738.457 135.802 739.231 135.802C739.873 135.802 740.377 135.995 740.745 136.383C741.116 136.77 741.302 137.296 741.302 137.96C741.302 138.702 741.098 139.286 740.691 139.713C740.288 140.136 739.741 140.348 739.051 140.348C738.312 140.348 737.726 140.071 737.293 139.518C736.86 138.961 736.644 138.188 736.644 137.198ZM739.041 139.659C739.503 139.659 739.861 139.514 740.115 139.225C740.372 138.932 740.501 138.51 740.501 137.96C740.501 137.488 740.382 137.117 740.145 136.847C739.907 136.576 739.552 136.441 739.08 136.441C738.787 136.441 738.519 136.502 738.274 136.622C738.03 136.743 737.835 136.909 737.688 137.12C737.545 137.332 737.474 137.551 737.474 137.779C737.474 138.115 737.539 138.427 737.669 138.717C737.799 139.007 737.983 139.236 738.221 139.405C738.462 139.575 738.735 139.659 739.041 139.659Z" fill="#999999"/>
<g clip-path="url(#clip2_250_53883)">
<rect x="720.5" y="82.75" width="11" height="11" transform="rotate(45 720.5 82.75)" fill="#171C1E"/>
</g>
</g>
</g>
<defs>
<filter id="filter0_d_250_53883" x="131.5" y="32" width="216" height="72" filterUnits="userSpaceOnUse" color-interpolation-filters="sRGB">
<feFlood flood-opacity="0" result="BackgroundImageFix"/>
<feColorMatrix in="SourceAlpha" type="matrix" values="0 0 0 0 0 0 0 0 0 0 0 0 0 0 0 0 0 0 127 0" result="hardAlpha"/>
<feOffset/>
<feGaussianBlur stdDeviation="4"/>
<feColorMatrix type="matrix" values="0 0 0 0 0.211765 0 0 0 0 0.207843 0 0 0 0 0.270588 0 0 0 0.3 0"/>
<feBlend mode="multiply" in2="BackgroundImageFix" result="effect1_dropShadow_250_53883"/>
<feBlend mode="normal" in="SourceGraphic" in2="effect1_dropShadow_250_53883" result="shape"/>
</filter>
<filter id="filter1_d_250_53883" x="190" y="98.5" width="113" height="72.5" filterUnits="userSpaceOnUse" color-interpolation-filters="sRGB">
<feFlood flood-opacity="0" result="BackgroundImageFix"/>
<feColorMatrix in="SourceAlpha" type="matrix" values="0 0 0 0 0 0 0 0 0 0 0 0 0 0 0 0 0 0 127 0" result="hardAlpha"/>
<feOffset dy="2"/>
<feGaussianBlur stdDeviation="2"/>
<feColorMatrix type="matrix" values="0 0 0 0 0 0 0 0 0 0 0 0 0 0 0 0 0 0 0.1 0"/>
<feBlend mode="normal" in2="BackgroundImageFix" result="effect1_dropShadow_250_53883"/>
<feBlend mode="normal" in="SourceGraphic" in2="effect1_dropShadow_250_53883" result="shape"/>
</filter>
<filter id="filter2_d_250_53883" x="668" y="80.75" width="105" height="80.5" filterUnits="userSpaceOnUse" color-interpolation-filters="sRGB">
<feFlood flood-opacity="0" result="BackgroundImageFix"/>
<feColorMatrix in="SourceAlpha" type="matrix" values="0 0 0 0 0 0 0 0 0 0 0 0 0 0 0 0 0 0 127 0" result="hardAlpha"/>
<feOffset dy="2"/>
<feGaussianBlur stdDeviation="2"/>
<feColorMatrix type="matrix" values="0 0 0 0 0 0 0 0 0 0 0 0 0 0 0 0 0 0 0.1 0"/>
<feBlend mode="normal" in2="BackgroundImageFix" result="effect1_dropShadow_250_53883"/>
<feBlend mode="normal" in="SourceGraphic" in2="effect1_dropShadow_250_53883" result="shape"/>
</filter>
<clipPath id="clip0_250_53883">
<rect width="960" height="205" fill="white"/>
</clipPath>
<clipPath id="clip1_250_53883">
<rect width="5.5" height="11" fill="white" transform="matrix(0 1 -1 0 245 100.5)"/>
</clipPath>
<clipPath id="clip2_250_53883">
<rect width="5.5" height="11" fill="white" transform="matrix(0 1 -1 0 726 82.75)"/>
</clipPath>
</defs>
</svg>
