<svg width="951" height="243" viewBox="0 0 951 243" fill="none" xmlns="http://www.w3.org/2000/svg"><rect width="951" height="243" fill="#C4C4C4"/><rect width="99" height="243" transform="translate(1)" fill="#C4C4C4"/><rect width="99" height="40" transform="translate(1 1)" fill="#F1F1F6"/><path d="M18.1572 23.2246C18.1572 24.127 17.8314 24.8379 17.1797 25.3574C16.5326 25.877 15.6302 26.1367 14.4727 26.1367C13.4062 26.1367 12.4629 25.9362 11.6426 25.5352V23.5664C12.3171 23.8672 12.8867 24.0791 13.3516 24.2021C13.821 24.3252 14.2493 24.3867 14.6367 24.3867C15.1016 24.3867 15.457 24.2979 15.7031 24.1201C15.9538 23.9424 16.0791 23.6781 16.0791 23.3271C16.0791 23.1312 16.0244 22.958 15.915 22.8076C15.8057 22.6527 15.6439 22.5046 15.4297 22.3633C15.2201 22.222 14.7894 21.9964 14.1377 21.6865C13.527 21.3994 13.069 21.1237 12.7637 20.8594C12.4583 20.5951 12.2145 20.2874 12.0322 19.9365C11.8499 19.5856 11.7588 19.1755 11.7588 18.7061C11.7588 17.8219 12.0573 17.127 12.6543 16.6211C13.2559 16.1152 14.0853 15.8623 15.1426 15.8623C15.6621 15.8623 16.1566 15.9238 16.626 16.0469C17.0999 16.1699 17.5944 16.3431 18.1094 16.5664L17.4258 18.2139C16.8926 17.9951 16.4505 17.8424 16.0996 17.7559C15.7533 17.6693 15.4115 17.626 15.0742 17.626C14.6732 17.626 14.3656 17.7194 14.1514 17.9062C13.9372 18.0931 13.8301 18.3369 13.8301 18.6377C13.8301 18.8245 13.8734 18.9886 13.96 19.1299C14.0465 19.2666 14.1833 19.401 14.3701 19.5332C14.5615 19.6608 15.0104 19.8932 15.7168 20.2305C16.651 20.6771 17.2913 21.126 17.6377 21.5771C17.984 22.0238 18.1572 22.5729 18.1572 23.2246ZM22.9404 24.4756C23.305 24.4756 23.7425 24.3958 24.2529 24.2363V25.7881C23.7334 26.0205 23.0954 26.1367 22.3389 26.1367C21.5049 26.1367 20.8965 25.9271 20.5137 25.5078C20.1354 25.084 19.9463 24.4505 19.9463 23.6074V19.9229H18.9482V19.041L20.0967 18.3438L20.6982 16.7305H22.0312V18.3574H24.1709V19.9229H22.0312V23.6074C22.0312 23.9036 22.1133 24.1224 22.2773 24.2637C22.4459 24.4049 22.667 24.4756 22.9404 24.4756ZM30.5742 26L30.1709 24.9609H30.1162C29.7653 25.403 29.403 25.7106 29.0293 25.8838C28.6601 26.0524 28.1771 26.1367 27.58 26.1367C26.8463 26.1367 26.2675 25.9271 25.8437 25.5078C25.4244 25.0885 25.2148 24.4915 25.2148 23.7168C25.2148 22.9056 25.4974 22.3086 26.0625 21.9258C26.6321 21.5384 27.4889 21.3242 28.6328 21.2832L29.959 21.2422V20.9072C29.959 20.1325 29.5625 19.7451 28.7695 19.7451C28.1588 19.7451 27.441 19.9297 26.6162 20.2988L25.9257 18.8906C26.8053 18.4303 27.7806 18.2002 28.8515 18.2002C29.8769 18.2002 30.6631 18.4235 31.2099 18.8701C31.7568 19.3167 32.0302 19.9958 32.0302 20.9072V26H30.5742ZM29.959 22.459L29.1523 22.4863C28.5462 22.5046 28.095 22.6139 27.7988 22.8145C27.5026 23.015 27.3545 23.3203 27.3545 23.7305C27.3545 24.3184 27.6917 24.6123 28.3662 24.6123C28.8493 24.6123 29.2343 24.4733 29.5215 24.1953C29.8131 23.9173 29.959 23.5482 29.959 23.0879V22.459ZM37.3193 24.4756C37.6839 24.4756 38.1214 24.3958 38.6318 24.2363V25.7881C38.1123 26.0205 37.4742 26.1367 36.7177 26.1367C35.8837 26.1367 35.2753 25.9271 34.8925 25.5078C34.5143 25.084 34.3251 24.4505 34.3251 23.6074V19.9229H33.3271V19.041L34.4755 18.3438L35.0771 16.7305H36.4101V18.3574H38.5498V19.9229H36.4101V23.6074C36.4101 23.9036 36.4921 24.1224 36.6562 24.2637C36.8248 24.4049 37.0459 24.4756 37.3193 24.4756ZM43.2646 19.6973C42.8225 19.6973 42.4762 19.8385 42.2255 20.1211C41.9749 20.3991 41.8313 20.7956 41.7949 21.3105H44.7206C44.7115 20.7956 44.5771 20.3991 44.3173 20.1211C44.0576 19.8385 43.7066 19.6973 43.2646 19.6973ZM43.5585 26.1367C42.3281 26.1367 41.3665 25.7972 40.6738 25.1182C39.9811 24.4391 39.6347 23.4775 39.6347 22.2334C39.6347 20.9528 39.9537 19.9639 40.5917 19.2666C41.2343 18.5648 42.1207 18.2139 43.2509 18.2139C44.331 18.2139 45.1718 18.5215 45.7734 19.1367C46.3749 19.752 46.6757 20.6019 46.6757 21.6865V22.6982H41.747C41.7698 23.2907 41.9452 23.7533 42.2734 24.0859C42.6015 24.4186 43.0618 24.585 43.6542 24.585C44.1145 24.585 44.5497 24.5371 44.9599 24.4414C45.3701 24.3457 45.7984 24.193 46.2451 23.9834V25.5967C45.8805 25.779 45.4908 25.9134 45.0761 26C44.6614 26.0911 44.1555 26.1367 43.5585 26.1367Z" fill="#464B52"/><rect width="99" height="99.333" transform="translate(1 42)" fill="#fff"/><path d="M16.4893 96.6666L14.083 88.8258H14.0215C14.1081 90.4209 14.1514 91.485 14.1514 92.0182V96.6666H12.2578V86.6725H15.1426L17.5078 94.3151H17.5488L20.0576 86.6725H22.9424V96.6666H20.9668V91.9362C20.9668 91.7128 20.9691 91.4554 20.9736 91.1637C20.9827 90.872 21.0146 90.0973 21.0693 88.8395H21.0078L18.4307 96.6666H16.4893ZM28.3818 90.3639C27.9398 90.3639 27.5934 90.5052 27.3428 90.7877C27.0921 91.0657 26.9486 91.4622 26.9121 91.9772H29.8379C29.8288 91.4622 29.6943 91.0657 29.4346 90.7877C29.1748 90.5052 28.8239 90.3639 28.3818 90.3639ZM28.6758 96.8033C27.4453 96.8033 26.4837 96.4638 25.791 95.7848C25.0983 95.1058 24.7519 94.1442 24.7519 92.9C24.7519 91.6194 25.0709 90.6305 25.709 89.9332C26.3515 89.2314 27.2379 88.8805 28.3681 88.8805C29.4482 88.8805 30.289 89.1881 30.8906 89.8033C31.4922 90.4186 31.793 91.2685 31.793 92.3531V93.3649H26.8642C26.887 93.9573 27.0625 94.4199 27.3906 94.7526C27.7187 95.0852 28.179 95.2516 28.7715 95.2516C29.2318 95.2516 29.667 95.2037 30.0771 95.108C30.4873 95.0123 30.9157 94.8597 31.3623 94.65V96.2633C30.9977 96.4456 30.6081 96.58 30.1933 96.6666C29.7786 96.7578 29.2728 96.8033 28.6758 96.8033ZM35.8242 96.8033C34.9264 96.8033 34.22 96.4547 33.705 95.7574C33.1946 95.0602 32.9394 94.094 32.9394 92.859C32.9394 91.6058 33.1992 90.6305 33.7187 89.9332C34.2428 89.2314 34.9629 88.8805 35.8789 88.8805C36.8405 88.8805 37.5742 89.2542 38.08 90.0016H38.1484C38.0436 89.4319 37.9912 88.9238 37.9912 88.4772V86.0299H40.083V96.6666H38.4834L38.08 95.6754H37.9912C37.5172 96.4274 36.7949 96.8033 35.8242 96.8033ZM36.5556 95.1422C37.0888 95.1422 37.4785 94.9873 37.7246 94.6774C37.9752 94.3675 38.1119 93.8411 38.1347 93.0983V92.8727C38.1347 92.0524 38.0071 91.4645 37.7519 91.109C37.5013 90.7535 37.0911 90.5758 36.5215 90.5758C36.0566 90.5758 35.6943 90.774 35.4345 91.1705C35.1793 91.5625 35.0517 92.1344 35.0517 92.8864C35.0517 93.6383 35.1816 94.2034 35.4414 94.5817C35.7011 94.9554 36.0726 95.1422 36.5556 95.1422ZM42.0908 87.0485C42.0908 86.3694 42.469 86.0299 43.2255 86.0299C43.982 86.0299 44.3603 86.3694 44.3603 87.0485C44.3603 87.372 44.2646 87.625 44.0732 87.8073C43.8863 87.985 43.6038 88.0739 43.2255 88.0739C42.469 88.0739 42.0908 87.7321 42.0908 87.0485ZM44.2646 96.6666H42.1796V89.024H44.2646V96.6666ZM51.789 96.6666L51.5087 95.6891H51.3994C51.176 96.0446 50.8593 96.3203 50.4492 96.5162C50.039 96.7076 49.5719 96.8033 49.0478 96.8033C48.15 96.8033 47.4732 96.5641 47.0175 96.0856C46.5618 95.6025 46.3339 94.9098 46.3339 94.0074V89.024H48.4189V93.4879C48.4189 94.0393 48.5169 94.4541 48.7128 94.7321C48.9088 95.0055 49.221 95.1422 49.6494 95.1422C50.2327 95.1422 50.6542 94.9485 50.914 94.5612C51.1738 94.1692 51.3036 93.5221 51.3036 92.6198V89.024H53.3886V96.6666H51.789ZM62.3349 96.6666H60.2499V92.2028C60.2499 91.6513 60.1565 91.2389 59.9697 90.9655C59.7874 90.6875 59.498 90.5485 59.1015 90.5485C58.5683 90.5485 58.1809 90.7444 57.9394 91.1364C57.6978 91.5283 57.5771 92.1731 57.5771 93.0709V96.6666H55.4921V89.024H57.0849L57.3652 90.0016H57.4814C57.6864 89.6507 57.9827 89.3772 58.37 89.1813C58.7574 88.9808 59.2017 88.8805 59.703 88.8805C60.8469 88.8805 61.6217 89.2542 62.0273 90.0016H62.2118C62.4169 89.6461 62.7177 89.3704 63.1142 89.1744C63.5152 88.9785 63.9664 88.8805 64.4677 88.8805C65.3336 88.8805 65.9876 89.1038 66.4296 89.5504C66.8762 89.9925 67.0995 90.7034 67.0995 91.6832V96.6666H65.0077V92.2028C65.0077 91.6513 64.9143 91.2389 64.7275 90.9655C64.5452 90.6875 64.2558 90.5485 63.8593 90.5485C63.3489 90.5485 62.9661 90.7308 62.7109 91.0953C62.4602 91.4599 62.3349 92.0387 62.3349 92.8317V96.6666Z" fill="#000"/><rect width="99" height="99.333" transform="translate(1 142.333)" fill="#fff"/><path d="M12.2578 197V187.006H14.377V195.25H18.4307V197H12.2578ZM24.7793 197L24.376 195.961H24.3213C23.9704 196.403 23.6081 196.711 23.2344 196.884C22.8652 197.052 22.3821 197.137 21.7851 197.137C21.0514 197.137 20.4726 196.927 20.0488 196.508C19.6295 196.089 19.4199 195.492 19.4199 194.717C19.4199 193.906 19.7025 193.309 20.2676 192.926C20.8372 192.538 21.694 192.324 22.8379 192.283L24.164 192.242V191.907C24.164 191.132 23.7676 190.745 22.9746 190.745C22.3639 190.745 21.6461 190.93 20.8213 191.299L20.1308 189.891C21.0104 189.43 21.9857 189.2 23.0566 189.2C24.082 189.2 24.8681 189.424 25.415 189.87C25.9619 190.317 26.2353 190.996 26.2353 191.907V197H24.7793ZM24.164 193.459L23.3574 193.486C22.7513 193.505 22.3001 193.614 22.0039 193.814C21.7077 194.015 21.5596 194.32 21.5596 194.73C21.5596 195.318 21.8968 195.612 22.5713 195.612C23.0543 195.612 23.4394 195.473 23.7265 195.195C24.0182 194.917 24.164 194.548 24.164 194.088V193.459ZM32.5703 189.214C32.8528 189.214 33.0875 189.234 33.2744 189.275L33.1172 191.23C32.9485 191.185 32.7435 191.162 32.5019 191.162C31.8366 191.162 31.317 191.333 30.9433 191.675C30.5742 192.017 30.3896 192.495 30.3896 193.11V197H28.3047V189.357H29.8838L30.1914 190.643H30.2939C30.5309 190.214 30.8499 189.87 31.2509 189.61C31.6565 189.346 32.0963 189.214 32.5703 189.214ZM41.2294 189.357V190.417L40.0332 190.725C40.2519 191.066 40.3613 191.449 40.3613 191.873C40.3613 192.693 40.0742 193.334 39.5 193.794C38.9303 194.25 38.1373 194.478 37.121 194.478L36.7451 194.457L36.4375 194.423C36.2233 194.587 36.1162 194.769 36.1162 194.97C36.1162 195.271 36.499 195.421 37.2646 195.421H38.5634C39.402 195.421 40.04 195.601 40.4775 195.961C40.9195 196.321 41.1406 196.85 41.1406 197.547C41.1406 198.44 40.7669 199.133 40.0195 199.625C39.2766 200.117 38.208 200.363 36.8134 200.363C35.747 200.363 34.9313 200.176 34.3662 199.803C33.8056 199.434 33.5253 198.914 33.5253 198.244C33.5253 197.784 33.6689 197.399 33.956 197.089C34.2431 196.779 34.6647 196.558 35.2207 196.426C35.0065 196.335 34.8196 196.187 34.6601 195.981C34.5006 195.772 34.4209 195.551 34.4209 195.318C34.4209 195.027 34.5052 194.785 34.6738 194.594C34.8424 194.398 35.0862 194.206 35.4052 194.02C35.0042 193.846 34.6852 193.568 34.4482 193.186C34.2158 192.803 34.0996 192.352 34.0996 191.832C34.0996 190.998 34.3707 190.353 34.913 189.897C35.4554 189.442 36.2301 189.214 37.2373 189.214C37.4514 189.214 37.7044 189.234 37.996 189.275C38.2923 189.312 38.4814 189.339 38.5634 189.357H41.2294ZM35.33 198.08C35.33 198.367 35.4667 198.593 35.7402 198.757C36.0182 198.921 36.4056 199.003 36.9023 199.003C37.6497 199.003 38.2353 198.9 38.6591 198.695C39.083 198.49 39.2949 198.21 39.2949 197.854C39.2949 197.567 39.1695 197.369 38.9189 197.26C38.6682 197.15 38.2809 197.096 37.7568 197.096H36.6767C36.2939 197.096 35.9726 197.185 35.7128 197.362C35.4576 197.545 35.33 197.784 35.33 198.08ZM36.0888 191.859C36.0888 192.274 36.1822 192.602 36.3691 192.844C36.5605 193.085 36.8499 193.206 37.2373 193.206C37.6292 193.206 37.9163 193.085 38.0986 192.844C38.2809 192.602 38.372 192.274 38.372 191.859C38.372 190.939 37.9938 190.479 37.2373 190.479C36.4716 190.479 36.0888 190.939 36.0888 191.859ZM45.5751 190.697C45.1331 190.697 44.7867 190.839 44.5361 191.121C44.2854 191.399 44.1419 191.796 44.1054 192.311H47.0312C47.0221 191.796 46.8876 191.399 46.6279 191.121C46.3681 190.839 46.0172 190.697 45.5751 190.697ZM45.8691 197.137C44.6386 197.137 43.677 196.797 42.9843 196.118C42.2916 195.439 41.9452 194.478 41.9452 193.233C41.9452 191.953 42.2643 190.964 42.9023 190.267C43.5449 189.565 44.4313 189.214 45.5615 189.214C46.6415 189.214 47.4824 189.521 48.0839 190.137C48.6855 190.752 48.9863 191.602 48.9863 192.687V193.698H44.0576C44.0803 194.291 44.2558 194.753 44.5839 195.086C44.912 195.419 45.3723 195.585 45.9648 195.585C46.4251 195.585 46.8603 195.537 47.2704 195.441C47.6806 195.346 48.109 195.193 48.5556 194.983V196.597C48.191 196.779 47.8014 196.913 47.3867 197C46.9719 197.091 46.4661 197.137 45.8691 197.137Z" fill="#000"/><rect width="760" height="40" transform="translate(101 1)" fill="#F1F1F6"/><path d="M118.014 26H112.258V16.0059H118.014V17.7422H114.377V19.9365H117.761V21.6729H114.377V24.25H118.014V26ZM121.423 22.0967L118.962 18.3574H121.327L122.811 20.791L124.308 18.3574H126.673L124.185 22.0967L126.789 26H124.417L122.811 23.3818L121.197 26H118.832L121.423 22.0967ZM132.721 26L132.317 24.9609H132.263C131.912 25.403 131.549 25.7106 131.176 25.8838C130.807 26.0524 130.324 26.1367 129.727 26.1367C128.993 26.1367 128.414 25.9271 127.99 25.5078C127.571 25.0885 127.361 24.4915 127.361 23.7168C127.361 22.9056 127.644 22.3086 128.209 21.9258C128.779 21.5384 129.635 21.3242 130.779 21.2832L132.105 21.2422V20.9072C132.105 20.1325 131.709 19.7451 130.916 19.7451C130.305 19.7451 129.588 19.9297 128.763 20.2988L128.072 18.8906C128.952 18.4303 129.927 18.2002 130.998 18.2002C132.023 18.2002 132.81 18.4235 133.356 18.8701C133.903 19.3167 134.177 19.9958 134.177 20.9072V26H132.721ZM132.105 22.459L131.299 22.4863C130.693 22.5046 130.242 22.6139 129.945 22.8145C129.649 23.015 129.501 23.3203 129.501 23.7305C129.501 24.3184 129.838 24.6123 130.513 24.6123C130.996 24.6123 131.381 24.4733 131.668 24.1953C131.96 23.9173 132.105 23.5482 132.105 23.0879V22.459ZM143.089 26H141.004V21.5361C141.004 20.9847 140.91 20.5723 140.724 20.2988C140.541 20.0208 140.252 19.8818 139.855 19.8818C139.322 19.8818 138.935 20.0778 138.693 20.4697C138.452 20.8617 138.331 21.5065 138.331 22.4043V26H136.246V18.3574H137.839L138.119 19.335H138.235C138.44 18.984 138.737 18.7106 139.124 18.5146C139.511 18.3141 139.956 18.2139 140.457 18.2139C141.601 18.2139 142.376 18.5876 142.781 19.335H142.966C143.171 18.9795 143.472 18.7038 143.868 18.5078C144.269 18.3118 144.72 18.2139 145.222 18.2139C146.088 18.2139 146.741 18.4372 147.184 18.8838C147.63 19.3258 147.853 20.0368 147.853 21.0166V26H145.762V21.5361C145.762 20.9847 145.668 20.5723 145.481 20.2988C145.299 20.0208 145.01 19.8818 144.613 19.8818C144.103 19.8818 143.72 20.0641 143.465 20.4287C143.214 20.7933 143.089 21.3721 143.089 22.165V26ZM154.113 26.1367C153.215 26.1367 152.511 25.8109 152.001 25.1592H151.892C151.964 25.7972 152.001 26.1663 152.001 26.2666V29.3633H149.916V18.3574H151.611L151.905 19.3486H152.001C152.489 18.5921 153.211 18.2139 154.168 18.2139C155.07 18.2139 155.777 18.5625 156.287 19.2598C156.797 19.957 157.053 20.9255 157.053 22.165C157.053 22.9808 156.932 23.6895 156.69 24.291C156.453 24.8926 156.114 25.3506 155.672 25.665C155.23 25.9795 154.71 26.1367 154.113 26.1367ZM153.498 19.8818C152.983 19.8818 152.607 20.0413 152.37 20.3604C152.133 20.6748 152.01 21.1966 152.001 21.9258V22.1514C152.001 22.9717 152.122 23.5596 152.363 23.915C152.609 24.2705 152.997 24.4482 153.525 24.4482C154.46 24.4482 154.927 23.6781 154.927 22.1377C154.927 21.3857 154.81 20.8229 154.578 20.4492C154.35 20.071 153.99 19.8818 153.498 19.8818ZM160.776 26H158.691V15.3633H160.776V26ZM166.052 19.6973C165.61 19.6973 165.263 19.8385 165.013 20.1211C164.762 20.3991 164.618 20.7956 164.582 21.3105H167.508C167.499 20.7956 167.364 20.3991 167.104 20.1211C166.845 19.8385 166.494 19.6973 166.052 19.6973ZM166.346 26.1367C165.115 26.1367 164.154 25.7972 163.461 25.1182C162.768 24.4391 162.422 23.4775 162.422 22.2334C162.422 20.9528 162.741 19.9639 163.379 19.2666C164.021 18.5648 164.908 18.2139 166.038 18.2139C167.118 18.2139 167.959 18.5215 168.56 19.1367C169.162 19.752 169.463 20.6019 169.463 21.6865V22.6982H164.534C164.557 23.2907 164.732 23.7533 165.06 24.0859C165.389 24.4186 165.849 24.585 166.441 24.585C166.902 24.585 167.337 24.5371 167.747 24.4414C168.157 24.3457 168.586 24.193 169.032 23.9834V25.5967C168.668 25.779 168.278 25.9134 167.863 26C167.448 26.0911 166.943 26.1367 166.346 26.1367Z" fill="#464B52"/><rect width="760" height="99.333" transform="translate(101 42)" fill="#fff"/><path d="M345.828 86.6666V78.1002H347.645V86.6666H345.828ZM355.635 86.6666H353.848V82.8405C353.848 82.3678 353.764 82.0143 353.596 81.7799C353.428 81.5416 353.16 81.4225 352.793 81.4225C352.293 81.4225 351.932 81.5905 351.709 81.9264C351.487 82.2584 351.375 82.8112 351.375 83.5846V86.6666H349.588V80.1158H350.953L351.194 80.9537H351.293C351.492 80.6373 351.766 80.399 352.114 80.2389C352.465 80.0748 352.864 79.9928 353.309 79.9928C354.071 79.9928 354.649 80.1998 355.043 80.6139C355.438 81.024 355.635 81.6178 355.635 82.3951V86.6666ZM361.973 84.7213C361.973 85.3932 361.739 85.9049 361.27 86.2565C360.805 86.608 360.108 86.7838 359.178 86.7838C358.702 86.7838 358.295 86.7506 357.96 86.6842C357.624 86.6217 357.309 86.528 357.016 86.403V84.9264C357.348 85.0826 357.721 85.2135 358.135 85.319C358.553 85.4244 358.92 85.4772 359.237 85.4772C359.885 85.4772 360.21 85.2897 360.21 84.9147C360.21 84.774 360.167 84.6608 360.081 84.5748C359.995 84.485 359.846 84.3854 359.635 84.276C359.424 84.1627 359.143 84.0319 358.792 83.8834C358.288 83.6725 357.917 83.4772 357.678 83.2975C357.444 83.1178 357.272 82.9127 357.163 82.6823C357.057 82.4479 357.004 82.1608 357.004 81.8209C357.004 81.2389 357.229 80.7897 357.678 80.4733C358.131 80.153 358.772 79.9928 359.6 79.9928C360.389 79.9928 361.157 80.1647 361.903 80.5084L361.364 81.7975C361.036 81.6569 360.729 81.5416 360.444 81.4518C360.159 81.3619 359.868 81.317 359.571 81.317C359.043 81.317 358.78 81.4596 358.78 81.7448C358.78 81.9049 358.864 82.0436 359.032 82.1608C359.204 82.278 359.577 82.4518 360.151 82.6823C360.663 82.8893 361.038 83.0826 361.276 83.2623C361.514 83.442 361.69 83.649 361.803 83.8834C361.917 84.1178 361.973 84.3971 361.973 84.7213ZM363.22 78.4225C363.22 77.8405 363.544 77.5494 364.192 77.5494C364.841 77.5494 365.165 77.8405 365.165 78.4225C365.165 78.6998 365.083 78.9166 364.919 79.0729C364.759 79.2252 364.516 79.3014 364.192 79.3014C363.544 79.3014 363.22 79.0084 363.22 78.4225ZM365.083 86.6666H363.296V80.1158H365.083V86.6666ZM368.966 86.7838C368.196 86.7838 367.591 86.485 367.149 85.8873C366.712 85.2897 366.493 84.4615 366.493 83.403C366.493 82.3287 366.716 81.4928 367.161 80.8951C367.61 80.2936 368.228 79.9928 369.013 79.9928C369.837 79.9928 370.466 80.3131 370.899 80.9537H370.958C370.868 80.4655 370.823 80.0299 370.823 79.6471V77.5494H372.616V86.6666H371.245L370.899 85.817H370.823C370.417 86.4615 369.798 86.7838 368.966 86.7838ZM369.593 85.36C370.05 85.36 370.384 85.2272 370.595 84.9615C370.81 84.6959 370.927 84.2448 370.946 83.608V83.4147C370.946 82.7115 370.837 82.2076 370.618 81.903C370.403 81.5983 370.052 81.4459 369.564 81.4459C369.165 81.4459 368.855 81.6158 368.632 81.9557C368.413 82.2916 368.304 82.7819 368.304 83.4264C368.304 84.0709 368.415 84.5553 368.638 84.8795C368.86 85.1998 369.179 85.36 369.593 85.36ZM377.126 81.2643C376.747 81.2643 376.451 81.3854 376.236 81.6276C376.021 81.8658 375.898 82.2057 375.867 82.6471H378.374C378.367 82.2057 378.251 81.8658 378.029 81.6276C377.806 81.3854 377.505 81.2643 377.126 81.2643ZM377.378 86.7838C376.324 86.7838 375.499 86.4928 374.906 85.9108C374.312 85.3287 374.015 84.5045 374.015 83.4381C374.015 82.3405 374.288 81.4928 374.835 80.8951C375.386 80.2936 376.146 79.9928 377.115 79.9928C378.04 79.9928 378.761 80.2565 379.277 80.7838C379.792 81.3112 380.05 82.0397 380.05 82.9694V83.8365H375.826C375.845 84.3444 375.995 84.7408 376.277 85.026C376.558 85.3112 376.952 85.4537 377.46 85.4537C377.855 85.4537 378.228 85.4127 378.579 85.3307C378.931 85.2487 379.298 85.1178 379.681 84.9381V86.3209C379.369 86.4772 379.035 86.5924 378.679 86.6666C378.324 86.7448 377.89 86.7838 377.378 86.7838ZM387.137 86.7838C385.098 86.7838 384.078 85.6647 384.078 83.4264C384.078 82.3131 384.355 81.4635 384.91 80.8776C385.465 80.2877 386.26 79.9928 387.295 79.9928C388.053 79.9928 388.732 80.1412 389.334 80.4381L388.807 81.8209C388.525 81.7076 388.264 81.6158 388.021 81.5455C387.779 81.4713 387.537 81.4342 387.295 81.4342C386.365 81.4342 385.9 82.0944 385.9 83.4147C385.9 84.6959 386.365 85.3365 387.295 85.3365C387.639 85.3365 387.957 85.2916 388.25 85.2018C388.543 85.108 388.836 84.9635 389.129 84.7682V86.2975C388.84 86.4811 388.547 86.608 388.25 86.6783C387.957 86.7487 387.586 86.7838 387.137 86.7838ZM390.504 78.4225C390.504 77.8405 390.828 77.5494 391.477 77.5494C392.125 77.5494 392.449 77.8405 392.449 78.4225C392.449 78.6998 392.367 78.9166 392.203 79.0729C392.043 79.2252 391.801 79.3014 391.477 79.3014C390.828 79.3014 390.504 79.0084 390.504 78.4225ZM392.367 86.6666H390.58V80.1158H392.367V86.6666ZM397.832 79.9928C398.075 79.9928 398.276 80.0104 398.436 80.0455L398.301 81.7213C398.157 81.6823 397.981 81.6627 397.774 81.6627C397.204 81.6627 396.758 81.8092 396.438 82.1022C396.122 82.3951 395.963 82.8053 395.963 83.3326V86.6666H394.176V80.1158H395.53L395.793 81.2174H395.881C396.084 80.8502 396.358 80.5553 396.702 80.3326C397.049 80.1061 397.426 79.9928 397.832 79.9928ZM402.214 86.7838C400.175 86.7838 399.155 85.6647 399.155 83.4264C399.155 82.3131 399.432 81.4635 399.987 80.8776C400.542 80.2877 401.337 79.9928 402.372 79.9928C403.13 79.9928 403.809 80.1412 404.411 80.4381L403.884 81.8209C403.602 81.7076 403.341 81.6158 403.098 81.5455C402.856 81.4713 402.614 81.4342 402.372 81.4342C401.442 81.4342 400.977 82.0944 400.977 83.4147C400.977 84.6959 401.442 85.3365 402.372 85.3365C402.716 85.3365 403.034 85.2916 403.327 85.2018C403.62 85.108 403.913 84.9635 404.206 84.7682V86.2975C403.917 86.4811 403.624 86.608 403.327 86.6783C403.034 86.7487 402.663 86.7838 402.214 86.7838ZM407.444 86.6666H405.657V77.5494H407.444V86.6666ZM411.966 81.2643C411.587 81.2643 411.29 81.3854 411.075 81.6276C410.861 81.8658 410.738 82.2057 410.706 82.6471H413.214C413.206 82.2057 413.091 81.8658 412.868 81.6276C412.646 81.3854 412.345 81.2643 411.966 81.2643ZM412.218 86.7838C411.163 86.7838 410.339 86.4928 409.745 85.9108C409.152 85.3287 408.855 84.5045 408.855 83.4381C408.855 82.3405 409.128 81.4928 409.675 80.8951C410.226 80.2936 410.986 79.9928 411.954 79.9928C412.88 79.9928 413.601 80.2565 414.116 80.7838C414.632 81.3112 414.89 82.0397 414.89 82.9694V83.8365H410.665C410.685 84.3444 410.835 84.7408 411.116 85.026C411.398 85.3112 411.792 85.4537 412.3 85.4537C412.695 85.4537 413.068 85.4127 413.419 85.3307C413.771 85.2487 414.138 85.1178 414.521 84.9381V86.3209C414.208 86.4772 413.874 86.5924 413.519 86.6666C413.163 86.7448 412.73 86.7838 412.218 86.7838ZM416.019 85.8287C416.019 85.5006 416.107 85.2526 416.283 85.0846C416.459 84.9166 416.714 84.8326 417.05 84.8326C417.375 84.8326 417.625 84.9186 417.8 85.0905C417.98 85.2623 418.07 85.5084 418.07 85.8287C418.07 86.1373 417.98 86.3815 417.8 86.5612C417.621 86.7369 417.371 86.8248 417.05 86.8248C416.722 86.8248 416.468 86.7389 416.289 86.567C416.109 86.3912 416.019 86.1451 416.019 85.8287ZM416.019 80.9889C416.019 80.6608 416.107 80.4127 416.283 80.2448C416.459 80.0768 416.714 79.9928 417.05 79.9928C417.375 79.9928 417.625 80.0787 417.8 80.2506C417.98 80.4225 418.07 80.6686 418.07 80.9889C418.07 81.3053 417.978 81.5514 417.794 81.7272C417.615 81.899 417.367 81.985 417.05 81.985C416.722 81.985 416.468 81.899 416.289 81.7272C416.109 81.5553 416.019 81.3092 416.019 80.9889ZM427.945 86.6666H422.315V85.8287L424.57 83.5612C425.258 82.8658 425.711 82.3698 425.93 82.0729C426.149 81.776 426.313 81.4869 426.422 81.2057C426.531 80.9244 426.586 80.6217 426.586 80.2975C426.586 79.8405 426.447 79.4791 426.17 79.2135C425.893 78.944 425.508 78.8092 425.016 78.8092C424.66 78.8092 424.322 78.8678 424.002 78.985C423.686 79.1022 423.332 79.3151 422.941 79.6237L422.426 78.9615C423.215 78.3053 424.074 77.9772 425.004 77.9772C425.809 77.9772 426.44 78.1842 426.897 78.5983C427.354 79.0084 427.582 79.5612 427.582 80.2565C427.582 80.7994 427.43 81.3365 427.125 81.8678C426.82 82.399 426.25 83.0709 425.414 83.8834L423.539 85.7174V85.7643H427.945V86.6666ZM434.787 82.3717C434.787 83.8522 434.553 84.9576 434.084 85.6881C433.619 86.4186 432.907 86.7838 431.946 86.7838C431.024 86.7838 430.323 86.4108 429.842 85.6647C429.362 84.9147 429.121 83.817 429.121 82.3717C429.121 80.8795 429.354 79.7721 429.819 79.0494C430.284 78.3268 430.993 77.9655 431.946 77.9655C432.875 77.9655 433.58 78.3424 434.061 79.0963C434.545 79.8502 434.787 80.942 434.787 82.3717ZM430.106 82.3717C430.106 83.6178 430.252 84.526 430.545 85.0963C430.838 85.6627 431.305 85.9459 431.946 85.9459C432.594 85.9459 433.063 85.6588 433.352 85.0846C433.645 84.5065 433.791 83.6022 433.791 82.3717C433.791 81.1412 433.645 80.2408 433.352 79.6705C433.063 79.0963 432.594 78.8092 431.946 78.8092C431.305 78.8092 430.838 79.0924 430.545 79.6588C430.252 80.2213 430.106 81.1256 430.106 82.3717ZM439.339 86.7838C438.921 86.7838 438.538 86.7076 438.19 86.5553C437.846 86.399 437.557 86.1608 437.323 85.8405H437.253C437.299 86.2155 437.323 86.5709 437.323 86.9069V89.5494H436.35V80.2448H437.141L437.276 81.1237H437.323C437.573 80.7721 437.864 80.5182 438.196 80.3619C438.528 80.2057 438.909 80.1276 439.339 80.1276C440.19 80.1276 440.846 80.4186 441.307 81.0006C441.772 81.5826 442.005 82.399 442.005 83.4498C442.005 84.5045 441.768 85.3248 441.296 85.9108C440.827 86.4928 440.174 86.7838 439.339 86.7838ZM439.198 80.9537C438.542 80.9537 438.067 81.1354 437.774 81.4987C437.481 81.8619 437.331 82.4401 437.323 83.233V83.4498C437.323 84.3522 437.473 84.9987 437.774 85.3893C438.075 85.776 438.557 85.9694 439.221 85.9694C439.776 85.9694 440.21 85.7448 440.522 85.2955C440.839 84.8463 440.997 84.2272 440.997 83.4381C440.997 82.6373 440.839 82.024 440.522 81.5983C440.21 81.1686 439.768 80.9537 439.198 80.9537ZM445.184 83.3795L442.952 80.2448H444.059L445.753 82.7057L447.44 80.2448H448.536L446.304 83.3795L448.653 86.6666H447.552L445.753 84.0651L443.936 86.6666H442.835L445.184 83.3795ZM345.828 98.1002H348.494C349.709 98.1002 350.59 98.274 351.137 98.6217C351.688 98.9655 351.963 99.5143 351.963 100.268C351.963 100.78 351.842 101.2 351.6 101.528C351.361 101.856 351.043 102.053 350.645 102.12V102.178C351.188 102.299 351.578 102.526 351.816 102.858C352.059 103.19 352.18 103.631 352.18 104.182C352.18 104.964 351.896 105.573 351.33 106.01C350.768 106.448 350.002 106.667 349.033 106.667H345.828V98.1002ZM347.645 101.493H348.699C349.191 101.493 349.547 101.417 349.766 101.264C349.988 101.112 350.1 100.86 350.1 100.508C350.1 100.18 349.979 99.9459 349.736 99.8053C349.498 99.6608 349.119 99.5885 348.6 99.5885H347.645V101.493ZM347.645 102.934V105.167H348.828C349.328 105.167 349.697 105.071 349.936 104.88C350.174 104.688 350.293 104.395 350.293 104.001C350.293 103.29 349.785 102.934 348.77 102.934H347.645ZM355.102 103.38C355.102 104.028 355.207 104.518 355.418 104.85C355.633 105.182 355.981 105.348 356.461 105.348C356.938 105.348 357.28 105.184 357.487 104.856C357.698 104.524 357.803 104.032 357.803 103.38C357.803 102.731 357.698 102.245 357.487 101.921C357.276 101.596 356.93 101.434 356.449 101.434C355.973 101.434 355.629 101.596 355.418 101.921C355.207 102.241 355.102 102.727 355.102 103.38ZM359.631 103.38C359.631 104.446 359.35 105.28 358.787 105.881C358.225 106.483 357.442 106.784 356.438 106.784C355.809 106.784 355.254 106.647 354.774 106.374C354.293 106.096 353.924 105.7 353.666 105.184C353.408 104.669 353.28 104.067 353.28 103.38C353.28 102.309 353.559 101.477 354.117 100.883C354.676 100.29 355.461 99.9928 356.473 99.9928C357.102 99.9928 357.657 100.13 358.137 100.403C358.617 100.676 358.987 101.069 359.244 101.581C359.502 102.092 359.631 102.692 359.631 103.38ZM364.692 99.9928C364.934 99.9928 365.135 100.01 365.295 100.046L365.161 101.721C365.016 101.682 364.84 101.663 364.633 101.663C364.063 101.663 363.618 101.809 363.297 102.102C362.981 102.395 362.823 102.805 362.823 103.333V106.667H361.036V100.116H362.389L362.653 101.217H362.741C362.944 100.85 363.217 100.555 363.561 100.333C363.909 100.106 364.286 99.9928 364.692 99.9928ZM368.487 106.784C367.718 106.784 367.112 106.485 366.671 105.887C366.233 105.29 366.014 104.462 366.014 103.403C366.014 102.329 366.237 101.493 366.682 100.895C367.132 100.294 367.749 99.9928 368.534 99.9928C369.358 99.9928 369.987 100.313 370.421 100.954H370.479C370.389 100.465 370.345 100.03 370.345 99.6471V97.5494H372.138V106.667H370.766L370.421 105.817H370.345C369.938 106.462 369.319 106.784 368.487 106.784ZM369.114 105.36C369.571 105.36 369.905 105.227 370.116 104.962C370.331 104.696 370.448 104.245 370.468 103.608V103.415C370.468 102.712 370.358 102.208 370.139 101.903C369.925 101.598 369.573 101.446 369.085 101.446C368.686 101.446 368.376 101.616 368.153 101.956C367.934 102.292 367.825 102.782 367.825 103.426C367.825 104.071 367.936 104.555 368.159 104.88C368.382 105.2 368.7 105.36 369.114 105.36ZM376.648 101.264C376.269 101.264 375.972 101.385 375.757 101.628C375.542 101.866 375.419 102.206 375.388 102.647H377.896C377.888 102.206 377.773 101.866 377.55 101.628C377.327 101.385 377.026 101.264 376.648 101.264ZM376.899 106.784C375.845 106.784 375.021 106.493 374.427 105.911C373.833 105.329 373.536 104.505 373.536 103.438C373.536 102.34 373.81 101.493 374.357 100.895C374.907 100.294 375.667 99.9928 376.636 99.9928C377.562 99.9928 378.282 100.256 378.798 100.784C379.314 101.311 379.571 102.04 379.571 102.969V103.837H375.347C375.366 104.344 375.517 104.741 375.798 105.026C376.079 105.311 376.474 105.454 376.982 105.454C377.376 105.454 377.749 105.413 378.101 105.331C378.452 105.249 378.819 105.118 379.202 104.938V106.321C378.89 106.477 378.556 106.592 378.2 106.667C377.845 106.745 377.411 106.784 376.899 106.784ZM384.609 99.9928C384.851 99.9928 385.052 100.01 385.212 100.046L385.077 101.721C384.933 101.682 384.757 101.663 384.55 101.663C383.98 101.663 383.535 101.809 383.214 102.102C382.898 102.395 382.74 102.805 382.74 103.333V106.667H380.952V100.116H382.306L382.57 101.217H382.658C382.861 100.85 383.134 100.555 383.478 100.333C383.826 100.106 384.202 99.9928 384.609 99.9928ZM385.75 104.182V102.717H388.896V104.182H385.75ZM393.781 99.9928C394.023 99.9928 394.225 100.01 394.385 100.046L394.25 101.721C394.105 101.682 393.93 101.663 393.723 101.663C393.152 101.663 392.707 101.809 392.387 102.102C392.07 102.395 391.912 102.805 391.912 103.333V106.667H390.125V100.116H391.478L391.742 101.217H391.83C392.033 100.85 392.307 100.555 392.65 100.333C392.998 100.106 393.375 99.9928 393.781 99.9928ZM399.662 106.667L399.317 105.776H399.27C398.969 106.155 398.658 106.419 398.338 106.567C398.022 106.712 397.608 106.784 397.096 106.784C396.467 106.784 395.971 106.604 395.608 106.245C395.248 105.885 395.069 105.374 395.069 104.71C395.069 104.014 395.311 103.503 395.795 103.174C396.283 102.842 397.018 102.659 397.998 102.624L399.135 102.589V102.301C399.135 101.637 398.795 101.305 398.115 101.305C397.592 101.305 396.977 101.464 396.27 101.78L395.678 100.573C396.432 100.178 397.268 99.9811 398.186 99.9811C399.065 99.9811 399.738 100.172 400.207 100.555C400.676 100.938 400.91 101.52 400.91 102.301V106.667H399.662ZM399.135 103.631L398.444 103.655C397.924 103.671 397.537 103.764 397.283 103.936C397.029 104.108 396.903 104.37 396.903 104.721C396.903 105.225 397.192 105.477 397.77 105.477C398.184 105.477 398.514 105.358 398.76 105.12C399.01 104.881 399.135 104.565 399.135 104.171V103.631ZM404.758 106.784C403.989 106.784 403.383 106.485 402.942 105.887C402.504 105.29 402.286 104.462 402.286 103.403C402.286 102.329 402.508 101.493 402.954 100.895C403.403 100.294 404.02 99.9928 404.805 99.9928C405.629 99.9928 406.258 100.313 406.692 100.954H406.75C406.661 100.465 406.616 100.03 406.616 99.6471V97.5494H408.409V106.667H407.038L406.692 105.817H406.616C406.209 106.462 405.59 106.784 404.758 106.784ZM405.385 105.36C405.842 105.36 406.176 105.227 406.387 104.962C406.602 104.696 406.719 104.245 406.739 103.608V103.415C406.739 102.712 406.629 102.208 406.411 101.903C406.196 101.598 405.844 101.446 405.356 101.446C404.957 101.446 404.647 101.616 404.424 101.956C404.206 102.292 404.096 102.782 404.096 103.426C404.096 104.071 404.207 104.555 404.43 104.88C404.653 105.2 404.971 105.36 405.385 105.36ZM410.13 98.4225C410.13 97.8405 410.454 97.5494 411.102 97.5494C411.751 97.5494 412.075 97.8405 412.075 98.4225C412.075 98.6998 411.993 98.9166 411.829 99.0729C411.669 99.2252 411.426 99.3014 411.102 99.3014C410.454 99.3014 410.13 99.0084 410.13 98.4225ZM411.993 106.667H410.206V100.116H411.993V106.667ZM418.442 106.667L418.202 105.829H418.108C417.917 106.133 417.646 106.37 417.294 106.538C416.942 106.702 416.542 106.784 416.093 106.784C415.323 106.784 414.743 106.579 414.353 106.169C413.962 105.755 413.767 105.161 413.767 104.387V100.116H415.554V103.942C415.554 104.415 415.638 104.77 415.806 105.008C415.974 105.243 416.241 105.36 416.608 105.36C417.108 105.36 417.47 105.194 417.692 104.862C417.915 104.526 418.026 103.971 418.026 103.198V100.116H419.813V106.667H418.442ZM426.187 104.721C426.187 105.393 425.952 105.905 425.484 106.256C425.019 106.608 424.322 106.784 423.392 106.784C422.915 106.784 422.509 106.751 422.173 106.684C421.837 106.622 421.523 106.528 421.23 106.403V104.926C421.562 105.083 421.935 105.214 422.349 105.319C422.767 105.424 423.134 105.477 423.45 105.477C424.099 105.477 424.423 105.29 424.423 104.915C424.423 104.774 424.38 104.661 424.294 104.575C424.208 104.485 424.06 104.385 423.849 104.276C423.638 104.163 423.357 104.032 423.005 103.883C422.501 103.672 422.13 103.477 421.892 103.297C421.657 103.118 421.486 102.913 421.376 102.682C421.271 102.448 421.218 102.161 421.218 101.821C421.218 101.239 421.443 100.79 421.892 100.473C422.345 100.153 422.986 99.9928 423.814 99.9928C424.603 99.9928 425.37 100.165 426.116 100.508L425.577 101.797C425.249 101.657 424.943 101.542 424.657 101.452C424.372 101.362 424.081 101.317 423.784 101.317C423.257 101.317 422.993 101.46 422.993 101.745C422.993 101.905 423.077 102.044 423.245 102.161C423.417 102.278 423.79 102.452 424.365 102.682C424.876 102.889 425.251 103.083 425.49 103.262C425.728 103.442 425.904 103.649 426.017 103.883C426.13 104.118 426.187 104.397 426.187 104.721ZM427.257 105.829C427.257 105.501 427.345 105.253 427.521 105.085C427.697 104.917 427.953 104.833 428.289 104.833C428.613 104.833 428.863 104.919 429.039 105.09C429.218 105.262 429.308 105.508 429.308 105.829C429.308 106.137 429.218 106.381 429.039 106.561C428.859 106.737 428.609 106.825 428.289 106.825C427.96 106.825 427.707 106.739 427.527 106.567C427.347 106.391 427.257 106.145 427.257 105.829ZM427.257 100.989C427.257 100.661 427.345 100.413 427.521 100.245C427.697 100.077 427.953 99.9928 428.289 99.9928C428.613 99.9928 428.863 100.079 429.039 100.251C429.218 100.422 429.308 100.669 429.308 100.989C429.308 101.305 429.216 101.551 429.033 101.727C428.853 101.899 428.605 101.985 428.289 101.985C427.96 101.985 427.707 101.899 427.527 101.727C427.347 101.555 427.257 101.309 427.257 100.989ZM438.861 100.116C438.861 100.663 438.707 101.11 438.399 101.458C438.094 101.805 437.66 102.038 437.098 102.155V102.202C437.785 102.288 438.295 102.506 438.627 102.858C438.959 103.21 439.125 103.671 439.125 104.241C439.125 105.057 438.842 105.686 438.275 106.128C437.709 106.565 436.904 106.784 435.861 106.784C435.408 106.784 434.992 106.749 434.613 106.678C434.238 106.612 433.873 106.493 433.518 106.321V105.395C433.889 105.579 434.283 105.719 434.701 105.817C435.123 105.911 435.522 105.958 435.897 105.958C437.377 105.958 438.117 105.378 438.117 104.217C438.117 103.178 437.301 102.659 435.668 102.659H434.824V101.821H435.68C436.348 101.821 436.877 101.674 437.268 101.381C437.658 101.085 437.854 100.674 437.854 100.151C437.854 99.733 437.709 99.4049 437.42 99.1666C437.135 98.9283 436.746 98.8092 436.254 98.8092C435.879 98.8092 435.525 98.86 435.193 98.9615C434.861 99.0631 434.482 99.2506 434.057 99.524L433.565 98.8678C433.916 98.5905 434.32 98.3737 434.777 98.2174C435.238 98.0573 435.723 97.9772 436.231 97.9772C437.063 97.9772 437.709 98.1686 438.17 98.5514C438.631 98.9303 438.861 99.4518 438.861 100.116ZM446.026 102.372C446.026 103.852 445.791 104.958 445.323 105.688C444.858 106.419 444.145 106.784 443.184 106.784C442.262 106.784 441.561 106.411 441.08 105.665C440.6 104.915 440.36 103.817 440.36 102.372C440.36 100.88 440.592 99.7721 441.057 99.0494C441.522 98.3268 442.231 97.9655 443.184 97.9655C444.114 97.9655 444.819 98.3424 445.299 99.0963C445.784 99.8502 446.026 100.942 446.026 102.372ZM441.344 102.372C441.344 103.618 441.491 104.526 441.784 105.096C442.077 105.663 442.543 105.946 443.184 105.946C443.832 105.946 444.301 105.659 444.59 105.085C444.883 104.506 445.03 103.602 445.03 102.372C445.03 101.141 444.883 100.241 444.59 99.6705C444.301 99.0963 443.832 98.8092 443.184 98.8092C442.543 98.8092 442.077 99.0924 441.784 99.6588C441.491 100.221 441.344 101.126 441.344 102.372ZM450.577 106.784C450.159 106.784 449.776 106.708 449.428 106.555C449.085 106.399 448.796 106.161 448.561 105.84H448.491C448.538 106.215 448.561 106.571 448.561 106.907V109.549H447.589V100.245H448.38L448.514 101.124H448.561C448.811 100.772 449.102 100.518 449.434 100.362C449.766 100.206 450.147 100.128 450.577 100.128C451.428 100.128 452.085 100.419 452.546 101.001C453.01 101.583 453.243 102.399 453.243 103.45C453.243 104.505 453.006 105.325 452.534 105.911C452.065 106.493 451.413 106.784 450.577 106.784ZM450.436 100.954C449.78 100.954 449.305 101.135 449.012 101.499C448.719 101.862 448.569 102.44 448.561 103.233V103.45C448.561 104.352 448.712 104.999 449.012 105.389C449.313 105.776 449.796 105.969 450.46 105.969C451.014 105.969 451.448 105.745 451.76 105.296C452.077 104.846 452.235 104.227 452.235 103.438C452.235 102.637 452.077 102.024 451.76 101.598C451.448 101.169 451.006 100.954 450.436 100.954ZM456.423 103.38L454.19 100.245H455.298L456.991 102.706L458.679 100.245H459.774L457.542 103.38L459.892 106.667H458.79L456.991 104.065L455.175 106.667H454.073L456.423 103.38Z" fill="#000"/><rect x="335.25" y="60.167" width="135" height="63" rx="6.5" stroke="#90939F"/><g clip-path="url(#clip0_375_70033)"><rect x="474.543" y="92.5" width="10" height="10" transform="rotate(135 474.543 92.5)" fill="#fff" stroke="#90939F"/></g><rect width="63.463" height="32" rx="16" transform="matrix(0.999867 -0.0162803 0.0170575 0.999855 487.25 76.1854)" fill="#217CBB"/><path d="M548.25 91.1647C548.377 98.6194 542.437 104.761 534.982 104.882C527.527 105.004 521.381 99.059 521.254 91.6042C521.127 84.1495 527.067 78.0078 534.522 77.8864C541.977 77.765 548.123 83.7099 548.25 91.1647Z" fill="#fff"/><rect width="64" height="32" rx="16" transform="matrix(1 0 0 -1 487.25 107.667)" fill="#217CBB"/><path d="M547.468 91.6647C547.591 98.8433 541.871 104.758 534.692 104.874C527.513 104.991 521.594 99.2666 521.472 92.088C521.349 84.9093 527.07 78.9951 534.248 78.8782C541.427 78.7613 547.346 84.486 547.468 91.6647Z" fill="#fff"/><path d="M551.25 81H560.25V102H551.25" stroke="#4091D2"/><path d="M576.719 93.3704H570.73V92.1106L572.881 89.9368C573.518 89.2844 573.934 88.8333 574.129 88.5833C574.324 88.3293 574.465 88.095 574.551 87.8801C574.637 87.6653 574.68 87.4426 574.68 87.2122C574.68 86.8684 574.584 86.6125 574.393 86.4446C574.205 86.2766 573.953 86.1926 573.637 86.1926C573.305 86.1926 572.982 86.2688 572.67 86.4211C572.357 86.5735 572.031 86.7903 571.691 87.0715L570.707 85.9055C571.129 85.5461 571.479 85.2922 571.756 85.1438C572.033 84.9954 572.336 84.8821 572.664 84.804C572.992 84.7219 573.359 84.6809 573.766 84.6809C574.301 84.6809 574.773 84.7786 575.184 84.9739C575.594 85.1692 575.912 85.4426 576.139 85.7942C576.365 86.1458 576.479 86.5481 576.479 87.0012C576.479 87.3958 576.408 87.7668 576.268 88.1145C576.131 88.4583 575.916 88.8118 575.623 89.175C575.334 89.5383 574.822 90.0559 574.088 90.7278L572.986 91.7649V91.8469H576.719V93.3704ZM583.696 91.595H582.664V93.3704H580.895V91.595H577.239V90.3352L580.994 84.804H582.664V90.1887H583.696V91.595ZM580.895 90.1887V88.7356C580.895 88.4934 580.905 88.1418 580.924 87.6809C580.944 87.22 580.959 86.9524 580.971 86.8782H580.924C580.78 87.1985 580.606 87.511 580.403 87.8157L578.832 90.1887H580.895ZM588.352 93.4875C587.583 93.4875 586.979 93.2083 586.542 92.6497H586.448C586.51 93.1965 586.542 93.5129 586.542 93.5989V96.2532H584.754V86.8196H586.208L586.46 87.6692H586.542C586.96 87.0208 587.579 86.6965 588.399 86.6965C589.172 86.6965 589.778 86.9954 590.215 87.593C590.653 88.1907 590.872 89.0208 590.872 90.0833C590.872 90.7825 590.768 91.3899 590.561 91.9055C590.358 92.4211 590.067 92.8137 589.688 93.0833C589.309 93.3528 588.864 93.4875 588.352 93.4875ZM587.825 88.1262C587.383 88.1262 587.061 88.2629 586.858 88.5364C586.655 88.8059 586.549 89.2532 586.542 89.8782V90.0715C586.542 90.7747 586.645 91.2786 586.852 91.5833C587.063 91.8879 587.395 92.0403 587.848 92.0403C588.649 92.0403 589.049 91.3801 589.049 90.0598C589.049 89.4153 588.95 88.9329 588.751 88.6125C588.555 88.2883 588.247 88.1262 587.825 88.1262ZM593.618 90.0247L591.509 86.8196H593.536L594.807 88.9055L596.091 86.8196H598.118L595.985 90.0247L598.218 93.3704H596.184L594.807 91.1262L593.425 93.3704H591.397L593.618 90.0247Z" fill="#4091D2"/><rect width="760" height="99.333" transform="translate(101 142.333)" fill="#fff"/><path d="M345.828 187V178.434H347.645V187H345.828ZM355.635 187H353.848V183.174C353.848 182.701 353.764 182.348 353.596 182.113C353.428 181.875 353.16 181.756 352.793 181.756C352.293 181.756 351.932 181.924 351.709 182.26C351.487 182.592 351.375 183.145 351.375 183.918V187H349.588V180.449H350.953L351.194 181.287H351.293C351.492 180.971 351.766 180.732 352.114 180.572C352.465 180.408 352.864 180.326 353.309 180.326C354.071 180.326 354.649 180.533 355.043 180.947C355.438 181.357 355.635 181.951 355.635 182.729V187ZM361.973 185.055C361.973 185.727 361.739 186.238 361.27 186.59C360.805 186.941 360.108 187.117 359.178 187.117C358.702 187.117 358.295 187.084 357.96 187.018C357.624 186.955 357.309 186.861 357.016 186.736V185.26C357.348 185.416 357.721 185.547 358.135 185.652C358.553 185.758 358.92 185.811 359.237 185.811C359.885 185.811 360.21 185.623 360.21 185.248C360.21 185.107 360.167 184.994 360.081 184.908C359.995 184.818 359.846 184.719 359.635 184.609C359.424 184.496 359.143 184.365 358.792 184.217C358.288 184.006 357.917 183.811 357.678 183.631C357.444 183.451 357.272 183.246 357.163 183.016C357.057 182.781 357.004 182.494 357.004 182.154C357.004 181.572 357.229 181.123 357.678 180.807C358.131 180.486 358.772 180.326 359.6 180.326C360.389 180.326 361.157 180.498 361.903 180.842L361.364 182.131C361.036 181.99 360.729 181.875 360.444 181.785C360.159 181.695 359.868 181.65 359.571 181.65C359.043 181.65 358.78 181.793 358.78 182.078C358.78 182.238 358.864 182.377 359.032 182.494C359.204 182.611 359.577 182.785 360.151 183.016C360.663 183.223 361.038 183.416 361.276 183.596C361.514 183.775 361.69 183.982 361.803 184.217C361.917 184.451 361.973 184.73 361.973 185.055ZM363.22 178.756C363.22 178.174 363.544 177.883 364.192 177.883C364.841 177.883 365.165 178.174 365.165 178.756C365.165 179.033 365.083 179.25 364.919 179.406C364.759 179.559 364.516 179.635 364.192 179.635C363.544 179.635 363.22 179.342 363.22 178.756ZM365.083 187H363.296V180.449H365.083V187ZM368.966 187.117C368.196 187.117 367.591 186.818 367.149 186.221C366.712 185.623 366.493 184.795 366.493 183.736C366.493 182.662 366.716 181.826 367.161 181.229C367.61 180.627 368.228 180.326 369.013 180.326C369.837 180.326 370.466 180.646 370.899 181.287H370.958C370.868 180.799 370.823 180.363 370.823 179.98V177.883H372.616V187H371.245L370.899 186.15H370.823C370.417 186.795 369.798 187.117 368.966 187.117ZM369.593 185.693C370.05 185.693 370.384 185.561 370.595 185.295C370.81 185.029 370.927 184.578 370.946 183.941V183.748C370.946 183.045 370.837 182.541 370.618 182.236C370.403 181.932 370.052 181.779 369.564 181.779C369.165 181.779 368.855 181.949 368.632 182.289C368.413 182.625 368.304 183.115 368.304 183.76C368.304 184.404 368.415 184.889 368.638 185.213C368.86 185.533 369.179 185.693 369.593 185.693ZM377.126 181.598C376.747 181.598 376.451 181.719 376.236 181.961C376.021 182.199 375.898 182.539 375.867 182.98H378.374C378.367 182.539 378.251 182.199 378.029 181.961C377.806 181.719 377.505 181.598 377.126 181.598ZM377.378 187.117C376.324 187.117 375.499 186.826 374.906 186.244C374.312 185.662 374.015 184.838 374.015 183.771C374.015 182.674 374.288 181.826 374.835 181.229C375.386 180.627 376.146 180.326 377.115 180.326C378.04 180.326 378.761 180.59 379.277 181.117C379.792 181.645 380.05 182.373 380.05 183.303V184.17H375.826C375.845 184.678 375.995 185.074 376.277 185.359C376.558 185.645 376.952 185.787 377.46 185.787C377.855 185.787 378.228 185.746 378.579 185.664C378.931 185.582 379.298 185.451 379.681 185.271V186.654C379.369 186.811 379.035 186.926 378.679 187C378.324 187.078 377.89 187.117 377.378 187.117ZM387.137 187.117C385.098 187.117 384.078 185.998 384.078 183.76C384.078 182.646 384.355 181.797 384.91 181.211C385.465 180.621 386.26 180.326 387.295 180.326C388.053 180.326 388.732 180.475 389.334 180.771L388.807 182.154C388.525 182.041 388.264 181.949 388.021 181.879C387.779 181.805 387.537 181.768 387.295 181.768C386.365 181.768 385.9 182.428 385.9 183.748C385.9 185.029 386.365 185.67 387.295 185.67C387.639 185.67 387.957 185.625 388.25 185.535C388.543 185.441 388.836 185.297 389.129 185.102V186.631C388.84 186.814 388.547 186.941 388.25 187.012C387.957 187.082 387.586 187.117 387.137 187.117ZM390.504 178.756C390.504 178.174 390.828 177.883 391.477 177.883C392.125 177.883 392.449 178.174 392.449 178.756C392.449 179.033 392.367 179.25 392.203 179.406C392.043 179.559 391.801 179.635 391.477 179.635C390.828 179.635 390.504 179.342 390.504 178.756ZM392.367 187H390.58V180.449H392.367V187ZM397.832 180.326C398.075 180.326 398.276 180.344 398.436 180.379L398.301 182.055C398.157 182.016 397.981 181.996 397.774 181.996C397.204 181.996 396.758 182.143 396.438 182.436C396.122 182.729 395.963 183.139 395.963 183.666V187H394.176V180.449H395.53L395.793 181.551H395.881C396.084 181.184 396.358 180.889 396.702 180.666C397.049 180.439 397.426 180.326 397.832 180.326ZM402.214 187.117C400.175 187.117 399.155 185.998 399.155 183.76C399.155 182.646 399.432 181.797 399.987 181.211C400.542 180.621 401.337 180.326 402.372 180.326C403.13 180.326 403.809 180.475 404.411 180.771L403.884 182.154C403.602 182.041 403.341 181.949 403.098 181.879C402.856 181.805 402.614 181.768 402.372 181.768C401.442 181.768 400.977 182.428 400.977 183.748C400.977 185.029 401.442 185.67 402.372 185.67C402.716 185.67 403.034 185.625 403.327 185.535C403.62 185.441 403.913 185.297 404.206 185.102V186.631C403.917 186.814 403.624 186.941 403.327 187.012C403.034 187.082 402.663 187.117 402.214 187.117ZM407.444 187H405.657V177.883H407.444V187ZM411.966 181.598C411.587 181.598 411.29 181.719 411.075 181.961C410.861 182.199 410.738 182.539 410.706 182.98H413.214C413.206 182.539 413.091 182.199 412.868 181.961C412.646 181.719 412.345 181.598 411.966 181.598ZM412.218 187.117C411.163 187.117 410.339 186.826 409.745 186.244C409.152 185.662 408.855 184.838 408.855 183.771C408.855 182.674 409.128 181.826 409.675 181.229C410.226 180.627 410.986 180.326 411.954 180.326C412.88 180.326 413.601 180.59 414.116 181.117C414.632 181.645 414.89 182.373 414.89 183.303V184.17H410.665C410.685 184.678 410.835 185.074 411.116 185.359C411.398 185.645 411.792 185.787 412.3 185.787C412.695 185.787 413.068 185.746 413.419 185.664C413.771 185.582 414.138 185.451 414.521 185.271V186.654C414.208 186.811 413.874 186.926 413.519 187C413.163 187.078 412.73 187.117 412.218 187.117ZM416.019 186.162C416.019 185.834 416.107 185.586 416.283 185.418C416.459 185.25 416.714 185.166 417.05 185.166C417.375 185.166 417.625 185.252 417.8 185.424C417.98 185.596 418.07 185.842 418.07 186.162C418.07 186.471 417.98 186.715 417.8 186.895C417.621 187.07 417.371 187.158 417.05 187.158C416.722 187.158 416.468 187.072 416.289 186.9C416.109 186.725 416.019 186.479 416.019 186.162ZM416.019 181.322C416.019 180.994 416.107 180.746 416.283 180.578C416.459 180.41 416.714 180.326 417.05 180.326C417.375 180.326 417.625 180.412 417.8 180.584C417.98 180.756 418.07 181.002 418.07 181.322C418.07 181.639 417.978 181.885 417.794 182.061C417.615 182.232 417.367 182.318 417.05 182.318C416.722 182.318 416.468 182.232 416.289 182.061C416.109 181.889 416.019 181.643 416.019 181.322ZM427.945 187H422.315V186.162L424.57 183.895C425.258 183.199 425.711 182.703 425.93 182.406C426.149 182.109 426.313 181.82 426.422 181.539C426.531 181.258 426.586 180.955 426.586 180.631C426.586 180.174 426.447 179.812 426.17 179.547C425.893 179.277 425.508 179.143 425.016 179.143C424.66 179.143 424.322 179.201 424.002 179.318C423.686 179.436 423.332 179.648 422.941 179.957L422.426 179.295C423.215 178.639 424.074 178.311 425.004 178.311C425.809 178.311 426.44 178.518 426.897 178.932C427.354 179.342 427.582 179.895 427.582 180.59C427.582 181.133 427.43 181.67 427.125 182.201C426.82 182.732 426.25 183.404 425.414 184.217L423.539 186.051V186.098H427.945V187ZM429.209 183.338C429.209 181.654 429.535 180.396 430.188 179.564C430.844 178.729 431.813 178.311 433.094 178.311C433.535 178.311 433.883 178.348 434.137 178.422V179.26C433.836 179.162 433.493 179.113 433.106 179.113C432.188 179.113 431.487 179.4 431.002 179.975C430.518 180.545 430.252 181.443 430.205 182.67H430.276C430.705 181.998 431.385 181.662 432.315 181.662C433.084 181.662 433.69 181.895 434.131 182.359C434.577 182.824 434.799 183.455 434.799 184.252C434.799 185.143 434.555 185.844 434.067 186.355C433.582 186.863 432.926 187.117 432.098 187.117C431.211 187.117 430.508 186.785 429.989 186.121C429.469 185.453 429.209 184.525 429.209 183.338ZM432.086 186.291C432.641 186.291 433.071 186.117 433.375 185.77C433.684 185.418 433.838 184.912 433.838 184.252C433.838 183.686 433.696 183.24 433.41 182.916C433.125 182.592 432.7 182.43 432.133 182.43C431.782 182.43 431.459 182.502 431.166 182.646C430.873 182.791 430.639 182.99 430.463 183.244C430.291 183.498 430.205 183.762 430.205 184.035C430.205 184.438 430.284 184.812 430.44 185.16C430.596 185.508 430.817 185.783 431.102 185.986C431.391 186.189 431.719 186.291 432.086 186.291ZM439.339 187.117C438.921 187.117 438.538 187.041 438.19 186.889C437.846 186.732 437.557 186.494 437.323 186.174H437.253C437.299 186.549 437.323 186.904 437.323 187.24V189.883H436.35V180.578H437.141L437.276 181.457H437.323C437.573 181.105 437.864 180.852 438.196 180.695C438.528 180.539 438.909 180.461 439.339 180.461C440.19 180.461 440.846 180.752 441.307 181.334C441.772 181.916 442.005 182.732 442.005 183.783C442.005 184.838 441.768 185.658 441.296 186.244C440.827 186.826 440.174 187.117 439.339 187.117ZM439.198 181.287C438.542 181.287 438.067 181.469 437.774 181.832C437.481 182.195 437.331 182.773 437.323 183.566V183.783C437.323 184.686 437.473 185.332 437.774 185.723C438.075 186.109 438.557 186.303 439.221 186.303C439.776 186.303 440.21 186.078 440.522 185.629C440.839 185.18 440.997 184.561 440.997 183.771C440.997 182.971 440.839 182.357 440.522 181.932C440.21 181.502 439.768 181.287 439.198 181.287ZM445.184 183.713L442.952 180.578H444.059L445.753 183.039L447.44 180.578H448.536L446.304 183.713L448.653 187H447.552L445.753 184.398L443.936 187H442.835L445.184 183.713ZM345.828 198.434H348.494C349.709 198.434 350.59 198.607 351.137 198.955C351.688 199.299 351.963 199.848 351.963 200.602C351.963 201.113 351.842 201.533 351.6 201.861C351.361 202.189 351.043 202.387 350.645 202.453V202.512C351.188 202.633 351.578 202.859 351.816 203.191C352.059 203.523 352.18 203.965 352.18 204.516C352.18 205.297 351.896 205.906 351.33 206.344C350.768 206.781 350.002 207 349.033 207H345.828V198.434ZM347.645 201.826H348.699C349.191 201.826 349.547 201.75 349.766 201.598C349.988 201.445 350.1 201.193 350.1 200.842C350.1 200.514 349.979 200.279 349.736 200.139C349.498 199.994 349.119 199.922 348.6 199.922H347.645V201.826ZM347.645 203.268V205.5H348.828C349.328 205.5 349.697 205.404 349.936 205.213C350.174 205.021 350.293 204.729 350.293 204.334C350.293 203.623 349.785 203.268 348.77 203.268H347.645ZM355.102 203.713C355.102 204.361 355.207 204.852 355.418 205.184C355.633 205.516 355.981 205.682 356.461 205.682C356.938 205.682 357.28 205.518 357.487 205.189C357.698 204.857 357.803 204.365 357.803 203.713C357.803 203.064 357.698 202.578 357.487 202.254C357.276 201.93 356.93 201.768 356.449 201.768C355.973 201.768 355.629 201.93 355.418 202.254C355.207 202.574 355.102 203.061 355.102 203.713ZM359.631 203.713C359.631 204.779 359.35 205.613 358.787 206.215C358.225 206.816 357.442 207.117 356.438 207.117C355.809 207.117 355.254 206.98 354.774 206.707C354.293 206.43 353.924 206.033 353.666 205.518C353.408 205.002 353.28 204.4 353.28 203.713C353.28 202.643 353.559 201.811 354.117 201.217C354.676 200.623 355.461 200.326 356.473 200.326C357.102 200.326 357.657 200.463 358.137 200.736C358.617 201.01 358.987 201.402 359.244 201.914C359.502 202.426 359.631 203.025 359.631 203.713ZM364.692 200.326C364.934 200.326 365.135 200.344 365.295 200.379L365.161 202.055C365.016 202.016 364.84 201.996 364.633 201.996C364.063 201.996 363.618 202.143 363.297 202.436C362.981 202.729 362.823 203.139 362.823 203.666V207H361.036V200.449H362.389L362.653 201.551H362.741C362.944 201.184 363.217 200.889 363.561 200.666C363.909 200.439 364.286 200.326 364.692 200.326ZM368.487 207.117C367.718 207.117 367.112 206.818 366.671 206.221C366.233 205.623 366.014 204.795 366.014 203.736C366.014 202.662 366.237 201.826 366.682 201.229C367.132 200.627 367.749 200.326 368.534 200.326C369.358 200.326 369.987 200.646 370.421 201.287H370.479C370.389 200.799 370.345 200.363 370.345 199.98V197.883H372.138V207H370.766L370.421 206.15H370.345C369.938 206.795 369.319 207.117 368.487 207.117ZM369.114 205.693C369.571 205.693 369.905 205.561 370.116 205.295C370.331 205.029 370.448 204.578 370.468 203.941V203.748C370.468 203.045 370.358 202.541 370.139 202.236C369.925 201.932 369.573 201.779 369.085 201.779C368.686 201.779 368.376 201.949 368.153 202.289C367.934 202.625 367.825 203.115 367.825 203.76C367.825 204.404 367.936 204.889 368.159 205.213C368.382 205.533 368.7 205.693 369.114 205.693ZM376.648 201.598C376.269 201.598 375.972 201.719 375.757 201.961C375.542 202.199 375.419 202.539 375.388 202.98H377.896C377.888 202.539 377.773 202.199 377.55 201.961C377.327 201.719 377.026 201.598 376.648 201.598ZM376.899 207.117C375.845 207.117 375.021 206.826 374.427 206.244C373.833 205.662 373.536 204.838 373.536 203.771C373.536 202.674 373.81 201.826 374.357 201.229C374.907 200.627 375.667 200.326 376.636 200.326C377.562 200.326 378.282 200.59 378.798 201.117C379.314 201.645 379.571 202.373 379.571 203.303V204.17H375.347C375.366 204.678 375.517 205.074 375.798 205.359C376.079 205.645 376.474 205.787 376.982 205.787C377.376 205.787 377.749 205.746 378.101 205.664C378.452 205.582 378.819 205.451 379.202 205.271V206.654C378.89 206.811 378.556 206.926 378.2 207C377.845 207.078 377.411 207.117 376.899 207.117ZM384.609 200.326C384.851 200.326 385.052 200.344 385.212 200.379L385.077 202.055C384.933 202.016 384.757 201.996 384.55 201.996C383.98 201.996 383.535 202.143 383.214 202.436C382.898 202.729 382.74 203.139 382.74 203.666V207H380.952V200.449H382.306L382.57 201.551H382.658C382.861 201.184 383.134 200.889 383.478 200.666C383.826 200.439 384.202 200.326 384.609 200.326ZM385.75 204.516V203.051H388.896V204.516H385.75ZM393.781 200.326C394.023 200.326 394.225 200.344 394.385 200.379L394.25 202.055C394.105 202.016 393.93 201.996 393.723 201.996C393.152 201.996 392.707 202.143 392.387 202.436C392.07 202.729 391.912 203.139 391.912 203.666V207H390.125V200.449H391.478L391.742 201.551H391.83C392.033 201.184 392.307 200.889 392.65 200.666C392.998 200.439 393.375 200.326 393.781 200.326ZM399.662 207L399.317 206.109H399.27C398.969 206.488 398.658 206.752 398.338 206.9C398.022 207.045 397.608 207.117 397.096 207.117C396.467 207.117 395.971 206.938 395.608 206.578C395.248 206.219 395.069 205.707 395.069 205.043C395.069 204.348 395.311 203.836 395.795 203.508C396.283 203.176 397.018 202.992 397.998 202.957L399.135 202.922V202.635C399.135 201.971 398.795 201.639 398.115 201.639C397.592 201.639 396.977 201.797 396.27 202.113L395.678 200.906C396.432 200.512 397.268 200.314 398.186 200.314C399.065 200.314 399.738 200.506 400.207 200.889C400.676 201.271 400.91 201.854 400.91 202.635V207H399.662ZM399.135 203.965L398.444 203.988C397.924 204.004 397.537 204.098 397.283 204.27C397.029 204.441 396.903 204.703 396.903 205.055C396.903 205.559 397.192 205.811 397.77 205.811C398.184 205.811 398.514 205.691 398.76 205.453C399.01 205.215 399.135 204.898 399.135 204.504V203.965ZM404.758 207.117C403.989 207.117 403.383 206.818 402.942 206.221C402.504 205.623 402.286 204.795 402.286 203.736C402.286 202.662 402.508 201.826 402.954 201.229C403.403 200.627 404.02 200.326 404.805 200.326C405.629 200.326 406.258 200.646 406.692 201.287H406.75C406.661 200.799 406.616 200.363 406.616 199.98V197.883H408.409V207H407.038L406.692 206.15H406.616C406.209 206.795 405.59 207.117 404.758 207.117ZM405.385 205.693C405.842 205.693 406.176 205.561 406.387 205.295C406.602 205.029 406.719 204.578 406.739 203.941V203.748C406.739 203.045 406.629 202.541 406.411 202.236C406.196 201.932 405.844 201.779 405.356 201.779C404.957 201.779 404.647 201.949 404.424 202.289C404.206 202.625 404.096 203.115 404.096 203.76C404.096 204.404 404.207 204.889 404.43 205.213C404.653 205.533 404.971 205.693 405.385 205.693ZM410.13 198.756C410.13 198.174 410.454 197.883 411.102 197.883C411.751 197.883 412.075 198.174 412.075 198.756C412.075 199.033 411.993 199.25 411.829 199.406C411.669 199.559 411.426 199.635 411.102 199.635C410.454 199.635 410.13 199.342 410.13 198.756ZM411.993 207H410.206V200.449H411.993V207ZM418.442 207L418.202 206.162H418.108C417.917 206.467 417.646 206.703 417.294 206.871C416.942 207.035 416.542 207.117 416.093 207.117C415.323 207.117 414.743 206.912 414.353 206.502C413.962 206.088 413.767 205.494 413.767 204.721V200.449H415.554V204.275C415.554 204.748 415.638 205.104 415.806 205.342C415.974 205.576 416.241 205.693 416.608 205.693C417.108 205.693 417.47 205.527 417.692 205.195C417.915 204.859 418.026 204.305 418.026 203.531V200.449H419.813V207H418.442ZM426.187 205.055C426.187 205.727 425.952 206.238 425.484 206.59C425.019 206.941 424.322 207.117 423.392 207.117C422.915 207.117 422.509 207.084 422.173 207.018C421.837 206.955 421.523 206.861 421.23 206.736V205.26C421.562 205.416 421.935 205.547 422.349 205.652C422.767 205.758 423.134 205.811 423.45 205.811C424.099 205.811 424.423 205.623 424.423 205.248C424.423 205.107 424.38 204.994 424.294 204.908C424.208 204.818 424.06 204.719 423.849 204.609C423.638 204.496 423.357 204.365 423.005 204.217C422.501 204.006 422.13 203.811 421.892 203.631C421.657 203.451 421.486 203.246 421.376 203.016C421.271 202.781 421.218 202.494 421.218 202.154C421.218 201.572 421.443 201.123 421.892 200.807C422.345 200.486 422.986 200.326 423.814 200.326C424.603 200.326 425.37 200.498 426.116 200.842L425.577 202.131C425.249 201.99 424.943 201.875 424.657 201.785C424.372 201.695 424.081 201.65 423.784 201.65C423.257 201.65 422.993 201.793 422.993 202.078C422.993 202.238 423.077 202.377 423.245 202.494C423.417 202.611 423.79 202.785 424.365 203.016C424.876 203.223 425.251 203.416 425.49 203.596C425.728 203.775 425.904 203.982 426.017 204.217C426.13 204.451 426.187 204.73 426.187 205.055ZM427.257 206.162C427.257 205.834 427.345 205.586 427.521 205.418C427.697 205.25 427.953 205.166 428.289 205.166C428.613 205.166 428.863 205.252 429.039 205.424C429.218 205.596 429.308 205.842 429.308 206.162C429.308 206.471 429.218 206.715 429.039 206.895C428.859 207.07 428.609 207.158 428.289 207.158C427.96 207.158 427.707 207.072 427.527 206.9C427.347 206.725 427.257 206.479 427.257 206.162ZM427.257 201.322C427.257 200.994 427.345 200.746 427.521 200.578C427.697 200.41 427.953 200.326 428.289 200.326C428.613 200.326 428.863 200.412 429.039 200.584C429.218 200.756 429.308 201.002 429.308 201.322C429.308 201.639 429.216 201.885 429.033 202.061C428.853 202.232 428.605 202.318 428.289 202.318C427.96 202.318 427.707 202.232 427.527 202.061C427.347 201.889 427.257 201.643 427.257 201.322ZM438.861 200.449C438.861 200.996 438.707 201.443 438.399 201.791C438.094 202.139 437.66 202.371 437.098 202.488V202.535C437.785 202.621 438.295 202.84 438.627 203.191C438.959 203.543 439.125 204.004 439.125 204.574C439.125 205.391 438.842 206.02 438.275 206.461C437.709 206.898 436.904 207.117 435.861 207.117C435.408 207.117 434.992 207.082 434.613 207.012C434.238 206.945 433.873 206.826 433.518 206.654V205.729C433.889 205.912 434.283 206.053 434.701 206.15C435.123 206.244 435.522 206.291 435.897 206.291C437.377 206.291 438.117 205.711 438.117 204.551C438.117 203.512 437.301 202.992 435.668 202.992H434.824V202.154H435.68C436.348 202.154 436.877 202.008 437.268 201.715C437.658 201.418 437.854 201.008 437.854 200.484C437.854 200.066 437.709 199.738 437.42 199.5C437.135 199.262 436.746 199.143 436.254 199.143C435.879 199.143 435.525 199.193 435.193 199.295C434.861 199.396 434.482 199.584 434.057 199.857L433.565 199.201C433.916 198.924 434.32 198.707 434.777 198.551C435.238 198.391 435.723 198.311 436.231 198.311C437.063 198.311 437.709 198.502 438.17 198.885C438.631 199.264 438.861 199.785 438.861 200.449ZM446.026 202.705C446.026 204.186 445.791 205.291 445.323 206.021C444.858 206.752 444.145 207.117 443.184 207.117C442.262 207.117 441.561 206.744 441.08 205.998C440.6 205.248 440.36 204.15 440.36 202.705C440.36 201.213 440.592 200.105 441.057 199.383C441.522 198.66 442.231 198.299 443.184 198.299C444.114 198.299 444.819 198.676 445.299 199.43C445.784 200.184 446.026 201.275 446.026 202.705ZM441.344 202.705C441.344 203.951 441.491 204.859 441.784 205.43C442.077 205.996 442.543 206.279 443.184 206.279C443.832 206.279 444.301 205.992 444.59 205.418C444.883 204.84 445.03 203.936 445.03 202.705C445.03 201.475 444.883 200.574 444.59 200.004C444.301 199.43 443.832 199.143 443.184 199.143C442.543 199.143 442.077 199.426 441.784 199.992C441.491 200.555 441.344 201.459 441.344 202.705ZM450.577 207.117C450.159 207.117 449.776 207.041 449.428 206.889C449.085 206.732 448.796 206.494 448.561 206.174H448.491C448.538 206.549 448.561 206.904 448.561 207.24V209.883H447.589V200.578H448.38L448.514 201.457H448.561C448.811 201.105 449.102 200.852 449.434 200.695C449.766 200.539 450.147 200.461 450.577 200.461C451.428 200.461 452.085 200.752 452.546 201.334C453.01 201.916 453.243 202.732 453.243 203.783C453.243 204.838 453.006 205.658 452.534 206.244C452.065 206.826 451.413 207.117 450.577 207.117ZM450.436 201.287C449.78 201.287 449.305 201.469 449.012 201.832C448.719 202.195 448.569 202.773 448.561 203.566V203.783C448.561 204.686 448.712 205.332 449.012 205.723C449.313 206.109 449.796 206.303 450.46 206.303C451.014 206.303 451.448 206.078 451.76 205.629C452.077 205.18 452.235 204.561 452.235 203.771C452.235 202.971 452.077 202.357 451.76 201.932C451.448 201.502 451.006 201.287 450.436 201.287ZM456.423 203.713L454.19 200.578H455.298L456.991 203.039L458.679 200.578H459.774L457.542 203.713L459.892 207H458.79L456.991 204.398L455.175 207H454.073L456.423 203.713Z" fill="#000"/><rect x="335.25" y="160.5" width="135" height="63" rx="6.5" stroke="#90939F"/><g clip-path="url(#clip1_375_70033)"><rect x="474.543" y="192.833" width="10" height="10" transform="rotate(135 474.543 192.833)" fill="#fff" stroke="#90939F"/></g><rect width="63.463" height="32" rx="16" transform="matrix(0.999867 -0.0162803 0.0170575 0.999855 487.25 176.519)" fill="#217CBB"/><path d="M548.25 191.498C548.377 198.953 542.437 205.094 534.982 205.216C527.527 205.337 521.381 199.392 521.254 191.938C521.127 184.483 527.067 178.341 534.522 178.22C541.977 178.098 548.123 184.043 548.25 191.498Z" fill="#fff"/><rect width="64" height="32" rx="16" transform="matrix(1 0 0 -1 487.25 208)" fill="#217CBB"/><path d="M547.468 191.998C547.591 199.177 541.871 205.091 534.692 205.208C527.513 205.325 521.594 199.6 521.472 192.421C521.349 185.243 527.07 179.329 534.248 179.212C541.427 179.095 547.346 184.82 547.468 191.998Z" fill="#fff"/><path d="M551.25 175H560.25V206H551.25" stroke="#4091D2"/><path d="M576.385 189.396C576.385 189.931 576.223 190.386 575.898 190.761C575.574 191.136 575.119 191.394 574.533 191.535V191.57C575.225 191.656 575.748 191.867 576.104 192.203C576.459 192.535 576.637 192.984 576.637 193.551C576.637 194.375 576.338 195.017 575.74 195.478C575.143 195.935 574.289 196.164 573.18 196.164C572.25 196.164 571.426 196.01 570.707 195.701V194.16C571.039 194.328 571.404 194.465 571.803 194.57C572.201 194.676 572.596 194.728 572.986 194.728C573.584 194.728 574.025 194.627 574.311 194.424C574.596 194.22 574.738 193.894 574.738 193.445C574.738 193.043 574.574 192.758 574.246 192.59C573.918 192.422 573.395 192.338 572.676 192.338H572.025V190.949H572.688C573.352 190.949 573.836 190.863 574.141 190.691C574.449 190.515 574.604 190.217 574.604 189.795C574.604 189.146 574.197 188.822 573.385 188.822C573.104 188.822 572.816 188.869 572.523 188.963C572.234 189.056 571.912 189.219 571.557 189.449L570.719 188.201C571.5 187.638 572.432 187.357 573.514 187.357C574.4 187.357 575.1 187.537 575.611 187.896C576.127 188.256 576.385 188.756 576.385 189.396ZM583.502 196.047H577.514V194.787L579.664 192.613C580.301 191.961 580.717 191.51 580.912 191.26C581.108 191.006 581.248 190.771 581.334 190.556C581.42 190.342 581.463 190.119 581.463 189.888C581.463 189.545 581.367 189.289 581.176 189.121C580.989 188.953 580.737 188.869 580.42 188.869C580.088 188.869 579.766 188.945 579.453 189.097C579.141 189.25 578.815 189.467 578.475 189.748L577.49 188.582C577.912 188.222 578.262 187.969 578.539 187.82C578.817 187.672 579.119 187.558 579.448 187.48C579.776 187.398 580.143 187.357 580.549 187.357C581.084 187.357 581.557 187.455 581.967 187.65C582.377 187.845 582.696 188.119 582.922 188.47C583.149 188.822 583.262 189.224 583.262 189.677C583.262 190.072 583.192 190.443 583.051 190.791C582.914 191.135 582.699 191.488 582.407 191.851C582.117 192.215 581.606 192.732 580.871 193.404L579.77 194.441V194.523H583.502V196.047ZM586.829 196.164C586.059 196.164 585.454 195.865 585.012 195.267C584.575 194.67 584.356 193.842 584.356 192.783C584.356 191.709 584.579 190.873 585.024 190.275C585.473 189.674 586.09 189.373 586.876 189.373C587.7 189.373 588.329 189.693 588.762 190.334H588.821C588.731 189.845 588.686 189.41 588.686 189.027V186.929H590.479V196.047H589.108L588.762 195.197H588.686C588.28 195.842 587.661 196.164 586.829 196.164ZM587.456 194.74C587.913 194.74 588.247 194.607 588.458 194.342C588.672 194.076 588.79 193.625 588.809 192.988V192.795C588.809 192.092 588.7 191.588 588.481 191.283C588.266 190.978 587.915 190.826 587.426 190.826C587.028 190.826 586.717 190.996 586.495 191.336C586.276 191.672 586.167 192.162 586.167 192.806C586.167 193.451 586.278 193.935 586.501 194.26C586.723 194.58 587.042 194.74 587.456 194.74ZM595.874 196.164C595.104 196.164 594.501 195.885 594.063 195.326H593.97C594.032 195.873 594.063 196.189 594.063 196.275V198.929H592.276V189.496H593.729L593.981 190.345H594.063C594.481 189.697 595.1 189.373 595.921 189.373C596.694 189.373 597.3 189.672 597.737 190.269C598.175 190.867 598.393 191.697 598.393 192.76C598.393 193.459 598.29 194.066 598.083 194.582C597.88 195.097 597.589 195.49 597.21 195.76C596.831 196.029 596.386 196.164 595.874 196.164ZM595.347 190.802C594.905 190.802 594.583 190.939 594.38 191.213C594.177 191.482 594.071 191.929 594.063 192.554V192.748C594.063 193.451 594.167 193.955 594.374 194.26C594.585 194.564 594.917 194.717 595.37 194.717C596.171 194.717 596.571 194.056 596.571 192.736C596.571 192.092 596.472 191.609 596.272 191.289C596.077 190.965 595.768 190.802 595.347 190.802ZM601.14 192.701L599.03 189.496H601.058L602.329 191.582L603.612 189.496H605.64L603.507 192.701L605.739 196.047H603.706L602.329 193.802L600.946 196.047H598.919L601.14 192.701Z" fill="#4091D2"/><rect width="88" height="243" transform="translate(862)" fill="#C4C4C4"/><rect width="88" height="40" transform="translate(862 1)" fill="#F1F1F6"/><path d="M881.447 26H879.335V21.6865H875.377V26H873.258V16.0059H875.377V19.9229H879.335V16.0059H881.447V26ZM886.894 19.6973C886.451 19.6973 886.105 19.8385 885.854 20.1211C885.604 20.3991 885.46 20.7956 885.424 21.3105H888.35C888.34 20.7956 888.206 20.3991 887.946 20.1211C887.687 19.8385 887.336 19.6973 886.894 19.6973ZM887.187 26.1367C885.957 26.1367 884.995 25.7972 884.303 25.1182C883.61 24.4391 883.264 23.4775 883.264 22.2334C883.264 20.9528 883.583 19.9639 884.221 19.2666C884.863 18.5648 885.75 18.2139 886.88 18.2139C887.96 18.2139 888.801 18.5215 889.402 19.1367C890.004 19.752 890.305 20.6019 890.305 21.6865V22.6982H885.376C885.399 23.2907 885.574 23.7533 885.902 24.0859C886.23 24.4186 886.691 24.585 887.283 24.585C887.743 24.585 888.179 24.5371 888.589 24.4414C888.999 24.3457 889.427 24.193 889.874 23.9834V25.5967C889.509 25.779 889.12 25.9134 888.705 26C888.29 26.0911 887.784 26.1367 887.187 26.1367ZM891.827 16.3818C891.827 15.7028 892.205 15.3633 892.962 15.3633C893.718 15.3633 894.097 15.7028 894.097 16.3818C894.097 16.7054 894.001 16.9583 893.81 17.1406C893.623 17.3184 893.34 17.4072 892.962 17.4072C892.205 17.4072 891.827 17.0654 891.827 16.3818ZM894.001 26H891.916V18.3574H894.001V26ZM902.763 18.3574V19.417L901.566 19.7246C901.785 20.0664 901.894 20.4492 901.894 20.873C901.894 21.6934 901.607 22.3337 901.033 22.7939C900.463 23.2497 899.671 23.4775 898.654 23.4775L898.278 23.457L897.971 23.4229C897.756 23.5869 897.649 23.7692 897.649 23.9697C897.649 24.2705 898.032 24.4209 898.798 24.4209H900.097C900.935 24.4209 901.573 24.6009 902.011 24.9609C902.453 25.321 902.674 25.8496 902.674 26.5469C902.674 27.4401 902.3 28.1328 901.553 28.625C900.81 29.1172 899.741 29.3633 898.347 29.3633C897.28 29.3633 896.464 29.1764 895.899 28.8027C895.339 28.4336 895.059 27.9141 895.059 27.2441C895.059 26.7839 895.202 26.3988 895.489 26.0889C895.776 25.779 896.198 25.5579 896.754 25.4258C896.54 25.3346 896.353 25.1865 896.193 24.9814C896.034 24.7718 895.954 24.5508 895.954 24.3184C895.954 24.0267 896.038 23.7852 896.207 23.5938C896.376 23.3978 896.619 23.2064 896.938 23.0195C896.537 22.8464 896.218 22.5684 895.981 22.1855C895.749 21.8027 895.633 21.3516 895.633 20.832C895.633 19.998 895.904 19.3532 896.446 18.8975C896.989 18.4417 897.763 18.2139 898.77 18.2139C898.985 18.2139 899.238 18.2344 899.529 18.2754C899.825 18.3118 900.015 18.3392 900.097 18.3574H902.763ZM896.863 27.0801C896.863 27.3672 897 27.5928 897.273 27.7568C897.551 27.9209 897.939 28.0029 898.435 28.0029C899.183 28.0029 899.769 27.9004 900.192 27.6953C900.616 27.4902 900.828 27.21 900.828 26.8545C900.828 26.5674 900.703 26.3691 900.452 26.2598C900.201 26.1504 899.814 26.0957 899.29 26.0957H898.21C897.827 26.0957 897.506 26.1846 897.246 26.3623C896.991 26.5446 896.863 26.7839 896.863 27.0801ZM897.622 20.8594C897.622 21.2741 897.715 21.6022 897.902 21.8438C898.094 22.0853 898.383 22.2061 898.77 22.2061C899.162 22.2061 899.449 22.0853 899.632 21.8438C899.814 21.6022 899.905 21.2741 899.905 20.8594C899.905 19.9388 899.527 19.4785 898.77 19.4785C898.005 19.4785 897.622 19.9388 897.622 20.8594ZM910.998 26H908.913V21.5361C908.913 20.4333 908.503 19.8818 907.683 19.8818C907.099 19.8818 906.678 20.0801 906.418 20.4766C906.158 20.873 906.028 21.5156 906.028 22.4043V26H903.943V15.3633H906.028V17.5303C906.028 17.6989 906.012 18.0954 905.98 18.7197L905.933 19.335H906.042C906.507 18.5876 907.245 18.2139 908.257 18.2139C909.155 18.2139 909.836 18.4554 910.301 18.9385C910.766 19.4215 910.998 20.1143 910.998 21.0166V26ZM916.28 24.4756C916.645 24.4756 917.082 24.3958 917.593 24.2363V25.7881C917.073 26.0205 916.435 26.1367 915.679 26.1367C914.845 26.1367 914.236 25.9271 913.853 25.5078C913.475 25.084 913.286 24.4505 913.286 23.6074V19.9229H912.288V19.041L913.436 18.3438L914.038 16.7305H915.371V18.3574H917.511V19.9229H915.371V23.6074C915.371 23.9036 915.453 24.1224 915.617 24.2637C915.786 24.4049 916.007 24.4756 916.28 24.4756Z" fill="#50545B"/><rect width="88" height="99.333" transform="translate(862 42)" fill="#fff"/><path d="M878.877 89.024C878.877 89.6621 878.697 90.1839 878.337 90.5895C877.981 90.9951 877.476 91.2662 876.819 91.403V91.4576C877.621 91.5579 878.216 91.8131 878.604 92.2233C878.991 92.6334 879.185 93.1712 879.185 93.8365C879.185 94.789 878.854 95.5227 878.193 96.0377C877.533 96.5481 876.594 96.8033 875.377 96.8033C874.848 96.8033 874.363 96.7623 873.921 96.6803C873.483 96.6028 873.057 96.4638 872.643 96.2633V95.1832C873.076 95.3974 873.536 95.5615 874.023 95.6754C874.516 95.7848 874.98 95.8395 875.418 95.8395C877.145 95.8395 878.009 95.1627 878.009 93.8092C878.009 92.597 877.056 91.9908 875.151 91.9908H874.167V91.0133H875.165C875.944 91.0133 876.562 90.8424 877.018 90.5006C877.473 90.1543 877.701 89.6757 877.701 89.0651C877.701 88.5774 877.533 88.1946 877.195 87.9166C876.863 87.6386 876.409 87.4996 875.835 87.4996C875.397 87.4996 874.985 87.5589 874.598 87.6774C874.21 87.7959 873.768 88.0146 873.271 88.3336L872.697 87.568C873.107 87.2444 873.579 86.9915 874.112 86.8092C874.65 86.6224 875.215 86.5289 875.808 86.5289C876.778 86.5289 877.533 86.7522 878.07 87.1989C878.608 87.6409 878.877 88.2493 878.877 89.024ZM887.181 96.6666H880.611V95.6891L883.243 93.0436C884.045 92.2324 884.574 91.6536 884.829 91.3073C885.084 90.9609 885.276 90.6237 885.403 90.2955C885.531 89.9674 885.595 89.6142 885.595 89.236C885.595 88.7028 885.433 88.2812 885.109 87.9713C884.786 87.6569 884.337 87.4996 883.763 87.4996C883.348 87.4996 882.954 87.568 882.58 87.7047C882.211 87.8414 881.798 88.0898 881.343 88.4498L880.741 87.6774C881.662 86.9117 882.664 86.5289 883.749 86.5289C884.688 86.5289 885.424 86.7705 885.957 87.2535C886.49 87.7321 886.757 88.3769 886.757 89.1881C886.757 89.8216 886.579 90.4482 886.224 91.068C885.868 91.6878 885.203 92.4716 884.228 93.4196L882.04 95.5592V95.6139H887.181V96.6666ZM892.545 96.8033C892.057 96.8033 891.611 96.7145 891.205 96.5367C890.804 96.3545 890.467 96.0765 890.193 95.7028H890.111C890.166 96.1403 890.193 96.555 890.193 96.9469V100.03H889.059V89.1744H889.981L890.139 90.1998H890.193C890.485 89.7897 890.825 89.4934 891.212 89.3112C891.599 89.1289 892.044 89.0377 892.545 89.0377C893.538 89.0377 894.304 89.3772 894.842 90.0563C895.384 90.7353 895.655 91.6878 895.655 92.9137C895.655 94.1442 895.38 95.1012 894.828 95.7848C894.281 96.4638 893.52 96.8033 892.545 96.8033ZM892.381 90.0016C891.615 90.0016 891.061 90.2135 890.72 90.6373C890.378 91.0612 890.202 91.7356 890.193 92.6608V92.9137C890.193 93.9664 890.369 94.7207 890.72 95.1764C891.071 95.6276 891.633 95.8531 892.408 95.8531C893.055 95.8531 893.561 95.5911 893.926 95.067C894.295 94.5429 894.479 93.8206 894.479 92.9C894.479 91.9658 894.295 91.2503 893.926 90.7535C893.561 90.2522 893.046 90.0016 892.381 90.0016ZM899.365 92.8317L896.761 89.1744H898.053L900.028 92.0455L901.997 89.1744H903.275L900.671 92.8317L903.412 96.6666H902.127L900.028 93.6315L897.909 96.6666H896.624L899.365 92.8317Z" fill="#000"/><rect width="88" height="99.333" transform="translate(862 142.333)" fill="#fff"/><path d="M879.725 194.703H878.241V197H877.154V194.703H872.294V193.712L877.038 186.951H878.241V193.671H879.725V194.703ZM877.154 193.671V190.349C877.154 189.697 877.177 188.961 877.223 188.141H877.168C876.949 188.578 876.744 188.94 876.553 189.228L873.429 193.671H877.154ZM883.92 186.862C884.831 186.862 885.554 187.074 886.087 187.498C886.62 187.922 886.887 188.507 886.887 189.255C886.887 189.747 886.734 190.196 886.429 190.602C886.123 191.007 885.636 191.376 884.966 191.709C885.777 192.096 886.353 192.504 886.695 192.933C887.037 193.356 887.208 193.849 887.208 194.409C887.208 195.239 886.919 195.902 886.34 196.398C885.761 196.891 884.968 197.137 883.961 197.137C882.895 197.137 882.074 196.904 881.5 196.439C880.926 195.97 880.639 195.307 880.639 194.45C880.639 193.306 881.336 192.415 882.73 191.777C882.102 191.422 881.65 191.039 881.377 190.629C881.103 190.214 880.967 189.752 880.967 189.241C880.967 188.517 881.233 187.94 881.767 187.512C882.304 187.079 883.022 186.862 883.92 186.862ZM881.76 194.478C881.76 195.024 881.949 195.451 882.327 195.756C882.71 196.061 883.245 196.214 883.934 196.214C884.613 196.214 885.141 196.054 885.52 195.735C885.898 195.416 886.087 194.979 886.087 194.423C886.087 193.981 885.909 193.589 885.554 193.247C885.198 192.901 884.578 192.566 883.694 192.242C883.015 192.534 882.523 192.857 882.218 193.213C881.912 193.564 881.76 193.985 881.76 194.478ZM883.906 187.785C883.337 187.785 882.89 187.922 882.566 188.195C882.243 188.469 882.081 188.833 882.081 189.289C882.081 189.708 882.215 190.068 882.484 190.369C882.753 190.67 883.25 190.971 883.975 191.271C884.626 190.998 885.087 190.704 885.355 190.39C885.629 190.075 885.766 189.708 885.766 189.289C885.766 188.829 885.599 188.464 885.267 188.195C884.938 187.922 884.485 187.785 883.906 187.785ZM892.545 197.137C892.057 197.137 891.611 197.048 891.205 196.87C890.804 196.688 890.467 196.41 890.193 196.036H890.111C890.166 196.474 890.193 196.888 890.193 197.28V200.363H889.059V189.508H889.981L890.139 190.533H890.193C890.485 190.123 890.825 189.827 891.212 189.645C891.599 189.462 892.044 189.371 892.545 189.371C893.538 189.371 894.304 189.711 894.842 190.39C895.384 191.069 895.655 192.021 895.655 193.247C895.655 194.478 895.38 195.435 894.828 196.118C894.281 196.797 893.52 197.137 892.545 197.137ZM892.381 190.335C891.615 190.335 891.061 190.547 890.72 190.971C890.378 191.395 890.202 192.069 890.193 192.994V193.247C890.193 194.3 890.369 195.054 890.72 195.51C891.071 195.961 891.633 196.187 892.408 196.187C893.055 196.187 893.561 195.924 893.926 195.4C894.295 194.876 894.479 194.154 894.479 193.233C894.479 192.299 894.295 191.584 893.926 191.087C893.561 190.586 893.046 190.335 892.381 190.335ZM899.365 193.165L896.761 189.508H898.053L900.028 192.379L901.997 189.508H903.275L900.671 193.165L903.412 197H902.127L900.028 193.965L897.909 197H896.624L899.365 193.165Z" fill="#000"/><defs><clipPath id="clip0_375_70033"><rect width="5.5" height="11" fill="#fff" transform="matrix(-1 0 0 -1 475.25 98)"/></clipPath><clipPath id="clip1_375_70033"><rect width="5.5" height="11" fill="#fff" transform="matrix(-1 0 0 -1 475.25 198.333)"/></clipPath></defs></svg>