<svg fill="none" height="234" viewBox="0 0 1084 234" width="1084" xmlns="http://www.w3.org/2000/svg" xmlns:xlink="http://www.w3.org/1999/xlink"><clipPath id="a"><path d="m0 0h1084v234h-1084z"/></clipPath><clipPath id="b"><path d="m123 66h114v46h-114z"/></clipPath><clipPath id="c"><path d="m91 122h178v46h-178z"/></clipPath><clipPath id="d"><path d="m478 66h128v46h-128z"/></clipPath><clipPath id="e"><path d="m446 122h192v46h-192z"/></clipPath><clipPath id="f"><path d="m847 40h114v72h-114z"/></clipPath><clipPath id="g"><path d="m840 122h128v72h-128z"/></clipPath><g clip-path="url(#a)"><path d="m0 0h360v234h-360z" fill="#252a2e"/><g clip-path="url(#b)" fill="#019aeb"><path d="m162.856 94-.724-2.3789h-3.644l-.724 2.3789h-2.284l3.528-10.0352h2.591l3.541 10.0352zm-1.23-4.1562c-.67-2.1556-1.048-3.3747-1.135-3.6573-.082-.2825-.141-.5058-.178-.6699-.15.5833-.581 2.0257-1.292 4.3272zm9.173-4.2178c-.797 0-1.415.3008-1.852.9023-.438.597-.656 1.431-.656 2.502 0 2.2285.836 3.3427 2.508 3.3427.702 0 1.552-.1754 2.55-.5263v1.7773c-.82.3418-1.736.5127-2.748.5127-1.454 0-2.566-.4398-3.336-1.3193-.77-.8841-1.155-2.1511-1.155-3.8008 0-1.0391.189-1.9482.567-2.7275.379-.7839.921-1.3832 1.627-1.7979.711-.4193 1.543-.6289 2.495-.6289.971 0 1.946.2347 2.926.7041l-.683 1.7227c-.374-.1778-.75-.3327-1.128-.4649-.379-.1321-.75-.1982-1.115-.1982zm8.688 8.374h-2.119v-8.2305h-2.714v-1.7636h7.547v1.7636h-2.714zm4.402 0v-9.9941h2.12v9.9941zm10.486-9.9941h2.14l-3.397 9.9941h-2.311l-3.391-9.9941h2.14l1.88 5.9472c.105.3509.212.7611.321 1.2305.114.4648.185.7884.212.9707.05-.4193.221-1.153.513-2.2012zm9.311 9.9941h-5.756v-9.9941h5.756v1.7363h-3.637v2.1943h3.384v1.7364h-3.384v2.5771h3.637z"/><path d="m123 111c0-1.105.895-2 2-2h110c1.105 0 2 .895 2 2v2h-114z"/></g><g clip-path="url(#c)" fill="#019aeb"><path d="m129 135.75c-.442 0-.862.088-1.244.246-.382.159-.821-.023-.98-.405-.159-.383.023-.822.406-.98.561-.233 1.175-.361 1.818-.361h1.5c.414 0 .75.336.75.75s-.336.75-.75.75z"/><path d="m132.75 135c0-.414.336-.75.75-.75h3c.414 0 .75.336.75.75s-.336.75-.75.75h-3c-.414 0-.75-.336-.75-.75z"/><path d="m138.75 135c0-.414.336-.75.75-.75h1.5c.643 0 1.257.128 1.818.361.383.158.565.597.406.98-.159.382-.598.564-.98.405-.382-.158-.802-.246-1.244-.246h-1.5c-.414 0-.75-.336-.75-.75z"/><path d="m125.591 136.776c.382.159.564.598.405.98-.158.382-.246.802-.246 1.244v1.5c0 .414-.336.75-.75.75s-.75-.336-.75-.75v-1.5c0-.643.128-1.257.361-1.818.158-.383.597-.565.98-.406z"/><path d="m144.409 136.776c.383-.159.822.023.98.406.233.561.361 1.175.361 1.818v1.5c0 .414-.336.75-.75.75s-.75-.336-.75-.75v-1.5c0-.442-.088-.862-.246-1.244-.159-.382.023-.821.405-.98z"/><path d="m125 142.75c.414 0 .75.336.75.75v3c0 .414-.336.75-.75.75s-.75-.336-.75-.75v-3c0-.414.336-.75.75-.75z"/><path d="m145 142.75c.414 0 .75.336.75.75v3c0 .414-.336.75-.75.75s-.75-.336-.75-.75v-3c0-.414.336-.75.75-.75z"/><path d="m125 148.75c.414 0 .75.336.75.75v1.5c0 .442.088.862.246 1.244.159.382-.023.821-.405.98-.383.159-.822-.023-.98-.406-.233-.561-.361-1.175-.361-1.818v-1.5c0-.414.336-.75.75-.75z"/><path d="m145 148.75c.414 0 .75.336.75.75v1.5c0 .643-.128 1.257-.361 1.818-.158.383-.597.565-.98.406-.382-.159-.564-.598-.405-.98.158-.382.246-.802.246-1.244v-1.5c0-.414.336-.75.75-.75z"/><path d="m126.776 154.409c.159-.382.598-.564.98-.405.382.158.802.246 1.244.246h1.5c.414 0 .75.336.75.75s-.336.75-.75.75h-1.5c-.643 0-1.257-.128-1.818-.361-.383-.158-.565-.597-.406-.98z"/><path d="m143.224 154.409c.159.383-.023.822-.406.98-.561.233-1.175.361-1.818.361h-1.5c-.414 0-.75-.336-.75-.75s.336-.75.75-.75h1.5c.442 0 .862-.088 1.244-.246.382-.159.821.023.98.405z"/><path d="m132.75 155c0-.414.336-.75.75-.75h3c.414 0 .75.336.75.75s-.336.75-.75.75h-3c-.414 0-.75-.336-.75-.75z"/><path d="m143.53 137.591c.293-.293.293-.768 0-1.061s-.767-.293-1.06 0l-.997.997c-.292.292-.292.767 0 1.06.293.293.768.293 1.061 0z"/><path d="m140.542 140.58c.293-.293.293-.768 0-1.061s-.768-.293-1.061 0l-1.992 1.992c-.293.293-.293.768 0 1.061s.767.293 1.06 0z"/><path d="m136.557 144.564c.293-.292.293-.767 0-1.06s-.768-.293-1.061 0l-.496.496-.496-.496c-.293-.293-.768-.293-1.061 0s-.293.768 0 1.06l.496.497-.435.435c-.293.293-.293.768 0 1.061s.768.293 1.06 0l.436-.436.436.436c.292.293.767.293 1.06 0s.293-.768 0-1.061l-.435-.435z"/><path d="m132.572 148.549c.293-.293.293-.767 0-1.06s-.768-.293-1.061 0l-1.992 1.992c-.293.293-.293.768 0 1.061s.768.293 1.061 0z"/><path d="m128.587 152.534c.293-.293.293-.768 0-1.061-.293-.292-.768-.292-1.06 0l-.997.997c-.293.293-.293.767 0 1.06s.768.293 1.061 0z"/><path d="m142.409 153.53c.293.293.768.293 1.061 0s.293-.767 0-1.06l-.997-.997c-.292-.292-.767-.292-1.06 0-.293.293-.293.768 0 1.061z"/><path d="m139.42 150.542c.293.293.768.293 1.061 0s.293-.768 0-1.061l-1.992-1.992c-.293-.293-.768-.293-1.061 0s-.293.767 0 1.06z"/><path d="m131.451 142.572c.293.293.767.293 1.06 0s.293-.768 0-1.061l-1.992-1.992c-.293-.293-.768-.293-1.061 0s-.293.768 0 1.061z"/><path d="m127.466 138.587c.293.293.768.293 1.061 0 .292-.293.292-.768 0-1.06l-.997-.997c-.293-.293-.767-.293-1.06 0s-.293.768 0 1.061z"/><path d="m132.056 139.889c.298-.09.615-.139.944-.139h.75c.414 0 .75-.336.75-.75s-.336-.75-.75-.75h-.75c-.478 0-.942.071-1.379.203-.396.121-.62.539-.5.936.12.396.539.62.935.5z"/><path d="m136.25 138.25c-.414 0-.75.336-.75.75s.336.75.75.75h.75c.329 0 .646.049.944.139.396.12.815-.104.935-.5.12-.397-.104-.815-.5-.936-.437-.132-.901-.203-1.379-.203z"/><path d="m129.889 142.056c.12-.396-.104-.815-.5-.935-.397-.12-.815.104-.936.5-.132.437-.203.901-.203 1.379v.75c0 .414.336.75.75.75s.75-.336.75-.75v-.75c0-.329.049-.646.139-.944z"/><path d="m141.547 141.621c-.121-.396-.539-.62-.936-.5-.396.12-.62.539-.5.935.09.298.139.615.139.944v.75c0 .414.336.75.75.75s.75-.336.75-.75v-.75c0-.478-.071-.942-.203-1.379z"/><path d="m129.75 146.25c0-.414-.336-.75-.75-.75s-.75.336-.75.75v.75c0 .478.071.942.203 1.379.121.396.539.62.936.5.396-.12.62-.539.5-.935-.09-.298-.139-.615-.139-.944z"/><path d="m141.75 146.25c0-.414-.336-.75-.75-.75s-.75.336-.75.75v.75c0 .329-.049.646-.139.944-.12.396.104.815.5.935.397.12.815-.104.936-.5.132-.437.203-.901.203-1.379z"/><path d="m132.056 150.111c-.396-.12-.815.104-.935.5-.12.397.104.815.5.936.437.132.901.203 1.379.203h.75c.414 0 .75-.336.75-.75s-.336-.75-.75-.75h-.75c-.329 0-.646-.049-.944-.139z"/><path d="m138.379 151.547c.396-.121.62-.539.5-.936-.12-.396-.539-.62-.935-.5-.298.09-.615.139-.944.139h-.75c-.414 0-.75.336-.75.75s.336.75.75.75h.75c.478 0 .942-.071 1.379-.203z"/><path d="m162.856 150-.724-2.379h-3.644l-.724 2.379h-2.284l3.528-10.035h2.591l3.541 10.035zm-1.23-4.156c-.67-2.156-1.048-3.375-1.135-3.657-.082-.283-.141-.506-.178-.67-.15.583-.581 2.025-1.292 4.327zm9.173-4.218c-.797 0-1.415.301-1.852.902-.438.597-.656 1.431-.656 2.502 0 2.229.836 3.343 2.508 3.343.702 0 1.552-.175 2.55-.526v1.777c-.82.342-1.736.513-2.748.513-1.454 0-2.566-.44-3.336-1.32-.77-.884-1.155-2.151-1.155-3.8 0-1.039.189-1.949.567-2.728.379-.784.921-1.383 1.627-1.798.711-.419 1.543-.629 2.495-.629.971 0 1.946.235 2.926.704l-.683 1.723c-.374-.178-.75-.333-1.128-.465-.379-.132-.75-.198-1.115-.198zm8.688 8.374h-2.119v-8.23h-2.714v-1.764h7.547v1.764h-2.714zm4.402 0v-9.994h2.12v9.994zm10.486-9.994h2.14l-3.397 9.994h-2.311l-3.391-9.994h2.14l1.88 5.947c.105.351.212.761.321 1.231.114.464.185.788.212.97.05-.419.221-1.153.513-2.201zm9.311 9.994h-5.756v-9.994h5.756v1.736h-3.637v2.195h3.384v1.736h-3.384v2.577h3.637z"/><path d="m219 135.75c-.442 0-.862.088-1.244.246-.382.159-.821-.023-.98-.405-.159-.383.023-.822.406-.98.561-.233 1.175-.361 1.818-.361h1.5c.414 0 .75.336.75.75s-.336.75-.75.75z"/><path d="m222.75 135c0-.414.336-.75.75-.75h3c.414 0 .75.336.75.75s-.336.75-.75.75h-3c-.414 0-.75-.336-.75-.75z"/><path d="m228.75 135c0-.414.336-.75.75-.75h1.5c.643 0 1.257.128 1.818.361.383.158.565.597.406.98-.159.382-.598.564-.98.405-.382-.158-.802-.246-1.244-.246h-1.5c-.414 0-.75-.336-.75-.75z"/><path d="m215.591 136.776c.382.159.564.598.405.98-.158.382-.246.802-.246 1.244v1.5c0 .414-.336.75-.75.75s-.75-.336-.75-.75v-1.5c0-.643.128-1.257.361-1.818.158-.383.597-.565.98-.406z"/><path d="m234.409 136.776c.383-.159.822.023.98.406.233.561.361 1.175.361 1.818v1.5c0 .414-.336.75-.75.75s-.75-.336-.75-.75v-1.5c0-.442-.088-.862-.246-1.244-.159-.382.023-.821.405-.98z"/><path d="m215 142.75c.414 0 .75.336.75.75v3c0 .414-.336.75-.75.75s-.75-.336-.75-.75v-3c0-.414.336-.75.75-.75z"/><path d="m235 142.75c.414 0 .75.336.75.75v3c0 .414-.336.75-.75.75s-.75-.336-.75-.75v-3c0-.414.336-.75.75-.75z"/><path d="m215 148.75c.414 0 .75.336.75.75v1.5c0 .442.088.862.246 1.244.159.382-.023.821-.405.98-.383.159-.822-.023-.98-.406-.233-.561-.361-1.175-.361-1.818v-1.5c0-.414.336-.75.75-.75z"/><path d="m235 148.75c.414 0 .75.336.75.75v1.5c0 .643-.128 1.257-.361 1.818-.158.383-.597.565-.98.406-.382-.159-.564-.598-.405-.98.158-.382.246-.802.246-1.244v-1.5c0-.414.336-.75.75-.75z"/><path d="m216.776 154.409c.159-.382.598-.564.98-.405.382.158.802.246 1.244.246h1.5c.414 0 .75.336.75.75s-.336.75-.75.75h-1.5c-.643 0-1.257-.128-1.818-.361-.383-.158-.565-.597-.406-.98z"/><path d="m233.224 154.409c.159.383-.023.822-.406.98-.561.233-1.175.361-1.818.361h-1.5c-.414 0-.75-.336-.75-.75s.336-.75.75-.75h1.5c.442 0 .862-.088 1.244-.246.382-.159.821.023.98.405z"/><path d="m222.75 155c0-.414.336-.75.75-.75h3c.414 0 .75.336.75.75s-.336.75-.75.75h-3c-.414 0-.75-.336-.75-.75z"/><path d="m233.53 137.591c.293-.293.293-.768 0-1.061s-.767-.293-1.06 0l-.997.997c-.292.292-.292.767 0 1.06.293.293.768.293 1.061 0z"/><path d="m230.542 140.58c.293-.293.293-.768 0-1.061s-.768-.293-1.061 0l-1.992 1.992c-.293.293-.293.768 0 1.061s.767.293 1.06 0z"/><path d="m226.557 144.564c.293-.292.293-.767 0-1.06s-.768-.293-1.061 0l-.496.496-.496-.496c-.293-.293-.768-.293-1.061 0s-.293.768 0 1.06l.496.497-.435.435c-.293.293-.293.768 0 1.061s.768.293 1.06 0l.436-.436.436.436c.292.293.767.293 1.06 0s.293-.768 0-1.061l-.435-.435z"/><path d="m222.572 148.549c.293-.293.293-.767 0-1.06s-.768-.293-1.061 0l-1.992 1.992c-.293.293-.293.768 0 1.061s.768.293 1.061 0z"/><path d="m218.587 152.534c.293-.293.293-.768 0-1.061-.293-.292-.768-.292-1.06 0l-.997.997c-.293.293-.293.767 0 1.06s.768.293 1.061 0z"/><path d="m232.409 153.53c.293.293.768.293 1.061 0s.293-.767 0-1.06l-.997-.997c-.292-.292-.767-.292-1.06 0-.293.293-.293.768 0 1.061z"/><path d="m229.42 150.542c.293.293.768.293 1.061 0s.293-.768 0-1.061l-1.992-1.992c-.293-.293-.768-.293-1.061 0s-.293.767 0 1.06z"/><path d="m221.451 142.572c.293.293.767.293 1.06 0s.293-.768 0-1.061l-1.992-1.992c-.293-.293-.768-.293-1.061 0s-.293.768 0 1.061z"/><path d="m217.466 138.587c.293.293.768.293 1.061 0 .292-.293.292-.768 0-1.06l-.997-.997c-.293-.293-.767-.293-1.06 0s-.293.768 0 1.061z"/><path d="m222.056 139.889c.298-.09.615-.139.944-.139h.75c.414 0 .75-.336.75-.75s-.336-.75-.75-.75h-.75c-.478 0-.942.071-1.379.203-.396.121-.62.539-.5.936.12.396.539.62.935.5z"/><path d="m226.25 138.25c-.414 0-.75.336-.75.75s.336.75.75.75h.75c.329 0 .646.049.944.139.396.12.815-.104.935-.5.12-.397-.104-.815-.5-.936-.437-.132-.901-.203-1.379-.203z"/><path d="m219.889 142.056c.12-.396-.104-.815-.5-.935-.397-.12-.815.104-.936.5-.132.437-.203.901-.203 1.379v.75c0 .414.336.75.75.75s.75-.336.75-.75v-.75c0-.329.049-.646.139-.944z"/><path d="m231.547 141.621c-.121-.396-.539-.62-.936-.5-.396.12-.62.539-.5.935.09.298.139.615.139.944v.75c0 .414.336.75.75.75s.75-.336.75-.75v-.75c0-.478-.071-.942-.203-1.379z"/><path d="m219.75 146.25c0-.414-.336-.75-.75-.75s-.75.336-.75.75v.75c0 .478.071.942.203 1.379.121.396.539.62.936.5.396-.12.62-.539.5-.935-.09-.298-.139-.615-.139-.944z"/><path d="m231.75 146.25c0-.414-.336-.75-.75-.75s-.75.336-.75.75v.75c0 .329-.049.646-.139.944-.12.396.104.815.5.935.397.12.815-.104.936-.5.132-.437.203-.901.203-1.379z"/><path d="m222.056 150.111c-.396-.12-.815.104-.935.5-.12.397.104.815.5.936.437.132.901.203 1.379.203h.75c.414 0 .75-.336.75-.75s-.336-.75-.75-.75h-.75c-.329 0-.646-.049-.944-.139z"/><path d="m228.379 151.547c.396-.121.62-.539.5-.936-.12-.396-.539-.62-.935-.5-.298.09-.615.139-.944.139h-.75c-.414 0-.75.336-.75.75s.336.75.75.75h.75c.478 0 .942-.071 1.379-.203z"/><path d="m91 167c0-1.105.8954-2 2-2h174c1.105 0 2 .895 2 2v2h-178z"/></g><path d="m0 0h360v234h-360z" fill="#252a2e" transform="translate(362)"/><g clip-path="url(#d)" fill="#fff"><path d="m520.017 90.4072c0 1.6452-.47 2.9053-1.408 3.7803-.935.875-2.286 1.3125-4.054 1.3125h-2.83v-9.9941h3.137c1.632 0 2.899.4306 3.801 1.292.903.8613 1.354 2.0644 1.354 3.6093zm-2.201.0547c0-2.1465-.948-3.2197-2.844-3.2197h-1.128v6.5078h.909c2.042 0 3.063-1.096 3.063-3.2881zm10.178 5.0381h-5.756v-9.9941h5.756v1.7363h-3.637v2.1943h3.384v1.7364h-3.384v2.5771h3.637zm4.327 0h-2.085v-9.9941h5.728v1.7363h-3.643v2.5771h3.39v1.7295h-3.39zm11.867 0-.725-2.3789h-3.644l-.724 2.3789h-2.283l3.527-10.0352h2.591l3.541 10.0352zm-1.231-4.1562c-.67-2.1556-1.048-3.3747-1.135-3.6573-.082-.2825-.141-.5058-.177-.6699-.151.5833-.582 2.0257-1.292 4.3272zm13.063-5.8379v6.4668c0 .7382-.166 1.3854-.499 1.9414-.328.556-.804.9821-1.429 1.2783-.624.2962-1.362.4443-2.214.4443-1.286 0-2.284-.3281-2.995-.9844-.711-.6608-1.066-1.5631-1.066-2.707v-6.4394h2.112v6.1181c0 .7702.155 1.3353.465 1.6953.31.3601.823.5401 1.538.5401.693 0 1.194-.18 1.504-.5401.315-.3645.472-.9342.472-1.7089v-6.1045zm2.597 9.9941v-9.9941h2.12v8.2441h4.053v1.75zm11.922 0h-2.119v-8.2305h-2.714v-1.7636h7.547v1.7636h-2.714z"/><path d="m478 110.5h128v1h-128z"/></g><g clip-path="url(#e)" fill="#fff"><path d="m484 137.25c-.442 0-.862.088-1.244.246-.382.159-.821-.023-.98-.405-.159-.383.023-.822.406-.98.561-.233 1.175-.361 1.818-.361h1.5c.414 0 .75.336.75.75s-.336.75-.75.75z"/><path d="m487.75 136.5c0-.414.336-.75.75-.75h3c.414 0 .75.336.75.75s-.336.75-.75.75h-3c-.414 0-.75-.336-.75-.75z"/><path d="m493.75 136.5c0-.414.336-.75.75-.75h1.5c.643 0 1.257.128 1.818.361.383.158.565.597.406.98-.159.382-.598.564-.98.405-.382-.158-.802-.246-1.244-.246h-1.5c-.414 0-.75-.336-.75-.75z"/><path d="m480.591 138.276c.382.159.564.598.405.98-.158.382-.246.802-.246 1.244v1.5c0 .414-.336.75-.75.75s-.75-.336-.75-.75v-1.5c0-.643.128-1.257.361-1.818.158-.383.597-.565.98-.406z"/><path d="m499.409 138.276c.383-.159.822.023.98.406.233.561.361 1.175.361 1.818v1.5c0 .414-.336.75-.75.75s-.75-.336-.75-.75v-1.5c0-.442-.088-.862-.246-1.244-.159-.382.023-.821.405-.98z"/><path d="m480 144.25c.414 0 .75.336.75.75v3c0 .414-.336.75-.75.75s-.75-.336-.75-.75v-3c0-.414.336-.75.75-.75z"/><path d="m500 144.25c.414 0 .75.336.75.75v3c0 .414-.336.75-.75.75s-.75-.336-.75-.75v-3c0-.414.336-.75.75-.75z"/><path d="m480 150.25c.414 0 .75.336.75.75v1.5c0 .442.088.862.246 1.244.159.382-.023.821-.405.98-.383.159-.822-.023-.98-.406-.233-.561-.361-1.175-.361-1.818v-1.5c0-.414.336-.75.75-.75z"/><path d="m500 150.25c.414 0 .75.336.75.75v1.5c0 .643-.128 1.257-.361 1.818-.158.383-.597.565-.98.406-.382-.159-.564-.598-.405-.98.158-.382.246-.802.246-1.244v-1.5c0-.414.336-.75.75-.75z"/><path d="m481.776 155.909c.159-.382.598-.564.98-.405.382.158.802.246 1.244.246h1.5c.414 0 .75.336.75.75s-.336.75-.75.75h-1.5c-.643 0-1.257-.128-1.818-.361-.383-.158-.565-.597-.406-.98z"/><path d="m498.224 155.909c.159.383-.023.822-.406.98-.561.233-1.175.361-1.818.361h-1.5c-.414 0-.75-.336-.75-.75s.336-.75.75-.75h1.5c.442 0 .862-.088 1.244-.246.382-.159.821.023.98.405z"/><path d="m487.75 156.5c0-.414.336-.75.75-.75h3c.414 0 .75.336.75.75s-.336.75-.75.75h-3c-.414 0-.75-.336-.75-.75z"/><path d="m498.53 139.091c.293-.293.293-.768 0-1.061s-.767-.293-1.06 0l-.997.997c-.292.292-.292.767 0 1.06.293.293.768.293 1.061 0z"/><path d="m495.542 142.08c.293-.293.293-.768 0-1.061s-.768-.293-1.061 0l-1.992 1.992c-.293.293-.293.768 0 1.061s.767.293 1.06 0z"/><path d="m491.557 146.064c.293-.292.293-.767 0-1.06s-.768-.293-1.061 0l-.496.496-.496-.496c-.293-.293-.768-.293-1.061 0s-.293.768 0 1.06l.496.497-.435.435c-.293.293-.293.768 0 1.061s.768.293 1.06 0l.436-.436.436.436c.292.293.767.293 1.06 0s.293-.768 0-1.061l-.435-.435z"/><path d="m487.572 150.049c.293-.293.293-.767 0-1.06s-.768-.293-1.061 0l-1.992 1.992c-.293.293-.293.768 0 1.061s.768.293 1.061 0z"/><path d="m483.587 154.034c.293-.293.293-.768 0-1.061-.293-.292-.768-.292-1.06 0l-.997.997c-.293.293-.293.767 0 1.06s.768.293 1.061 0z"/><path d="m497.409 155.03c.293.293.768.293 1.061 0s.293-.767 0-1.06l-.997-.997c-.292-.292-.767-.292-1.06 0-.293.293-.293.768 0 1.061z"/><path d="m494.42 152.042c.293.293.768.293 1.061 0s.293-.768 0-1.061l-1.992-1.992c-.293-.293-.768-.293-1.061 0s-.293.767 0 1.06z"/><path d="m486.451 144.072c.293.293.767.293 1.06 0s.293-.768 0-1.061l-1.992-1.992c-.293-.293-.768-.293-1.061 0s-.293.768 0 1.061z"/><path d="m482.466 140.087c.293.293.768.293 1.061 0 .292-.293.292-.768 0-1.06l-.997-.997c-.293-.293-.767-.293-1.06 0s-.293.768 0 1.061z"/><path d="m487.056 141.389c.298-.09.615-.139.944-.139h.75c.414 0 .75-.336.75-.75s-.336-.75-.75-.75h-.75c-.478 0-.942.071-1.379.203-.396.121-.62.539-.5.936.12.396.539.62.935.5z"/><path d="m491.25 139.75c-.414 0-.75.336-.75.75s.336.75.75.75h.75c.329 0 .646.049.944.139.396.12.815-.104.935-.5.12-.397-.104-.815-.5-.936-.437-.132-.901-.203-1.379-.203z"/><path d="m484.889 143.556c.12-.396-.104-.815-.5-.935-.397-.12-.815.104-.936.5-.132.437-.203.901-.203 1.379v.75c0 .414.336.75.75.75s.75-.336.75-.75v-.75c0-.329.049-.646.139-.944z"/><path d="m496.547 143.121c-.121-.396-.539-.62-.936-.5-.396.12-.62.539-.5.935.09.298.139.615.139.944v.75c0 .414.336.75.75.75s.75-.336.75-.75v-.75c0-.478-.071-.942-.203-1.379z"/><path d="m484.75 147.75c0-.414-.336-.75-.75-.75s-.75.336-.75.75v.75c0 .478.071.942.203 1.379.121.396.539.62.936.5.396-.12.62-.539.5-.935-.09-.298-.139-.615-.139-.944z"/><path d="m496.75 147.75c0-.414-.336-.75-.75-.75s-.75.336-.75.75v.75c0 .329-.049.646-.139.944-.12.396.104.815.5.935.397.12.815-.104.936-.5.132-.437.203-.901.203-1.379z"/><path d="m487.056 151.611c-.396-.12-.815.104-.935.5-.12.397.104.815.5.936.437.132.901.203 1.379.203h.75c.414 0 .75-.336.75-.75s-.336-.75-.75-.75h-.75c-.329 0-.646-.049-.944-.139z"/><path d="m493.379 153.047c.396-.121.62-.539.5-.936-.12-.396-.539-.62-.935-.5-.298.09-.615.139-.944.139h-.75c-.414 0-.75.336-.75.75s.336.75.75.75h.75c.478 0 .942-.071 1.379-.203z"/><path d="m520.017 146.407c0 1.645-.47 2.905-1.408 3.781-.935.874-2.286 1.312-4.054 1.312h-2.83v-9.994h3.137c1.632 0 2.899.431 3.801 1.292.903.861 1.354 2.064 1.354 3.609zm-2.201.055c0-2.147-.948-3.22-2.844-3.22h-1.128v6.508h.909c2.042 0 3.063-1.096 3.063-3.288zm10.178 5.038h-5.756v-9.994h5.756v1.736h-3.637v2.195h3.384v1.736h-3.384v2.577h3.637zm4.327 0h-2.085v-9.994h5.728v1.736h-3.643v2.577h3.39v1.73h-3.39zm11.867 0-.725-2.379h-3.644l-.724 2.379h-2.283l3.527-10.035h2.591l3.541 10.035zm-1.231-4.156c-.67-2.156-1.048-3.375-1.135-3.657-.082-.283-.141-.506-.177-.67-.151.583-.582 2.025-1.292 4.327zm13.063-5.838v6.467c0 .738-.166 1.385-.499 1.941-.328.556-.804.982-1.429 1.278-.624.297-1.362.445-2.214.445-1.286 0-2.284-.328-2.995-.985-.711-.66-1.066-1.563-1.066-2.707v-6.439h2.112v6.118c0 .77.155 1.335.465 1.695s.823.54 1.538.54c.693 0 1.194-.18 1.504-.54.315-.364.472-.934.472-1.709v-6.104zm2.597 9.994v-9.994h2.12v8.244h4.053v1.75zm11.922 0h-2.119v-8.23h-2.714v-1.764h7.547v1.764h-2.714z"/><path d="m588 137.25c-.442 0-.862.088-1.244.246-.382.159-.821-.023-.98-.405-.159-.383.023-.822.406-.98.561-.233 1.175-.361 1.818-.361h1.5c.414 0 .75.336.75.75s-.336.75-.75.75z"/><path d="m591.75 136.5c0-.414.336-.75.75-.75h3c.414 0 .75.336.75.75s-.336.75-.75.75h-3c-.414 0-.75-.336-.75-.75z"/><path d="m597.75 136.5c0-.414.336-.75.75-.75h1.5c.643 0 1.257.128 1.818.361.383.158.565.597.406.98-.159.382-.598.564-.98.405-.382-.158-.802-.246-1.244-.246h-1.5c-.414 0-.75-.336-.75-.75z"/><path d="m584.591 138.276c.382.159.564.598.405.98-.158.382-.246.802-.246 1.244v1.5c0 .414-.336.75-.75.75s-.75-.336-.75-.75v-1.5c0-.643.128-1.257.361-1.818.158-.383.597-.565.98-.406z"/><path d="m603.409 138.276c.383-.159.822.023.98.406.233.561.361 1.175.361 1.818v1.5c0 .414-.336.75-.75.75s-.75-.336-.75-.75v-1.5c0-.442-.088-.862-.246-1.244-.159-.382.023-.821.405-.98z"/><path d="m584 144.25c.414 0 .75.336.75.75v3c0 .414-.336.75-.75.75s-.75-.336-.75-.75v-3c0-.414.336-.75.75-.75z"/><path d="m604 144.25c.414 0 .75.336.75.75v3c0 .414-.336.75-.75.75s-.75-.336-.75-.75v-3c0-.414.336-.75.75-.75z"/><path d="m584 150.25c.414 0 .75.336.75.75v1.5c0 .442.088.862.246 1.244.159.382-.023.821-.405.98-.383.159-.822-.023-.98-.406-.233-.561-.361-1.175-.361-1.818v-1.5c0-.414.336-.75.75-.75z"/><path d="m604 150.25c.414 0 .75.336.75.75v1.5c0 .643-.128 1.257-.361 1.818-.158.383-.597.565-.98.406-.382-.159-.564-.598-.405-.98.158-.382.246-.802.246-1.244v-1.5c0-.414.336-.75.75-.75z"/><path d="m585.776 155.909c.159-.382.598-.564.98-.405.382.158.802.246 1.244.246h1.5c.414 0 .75.336.75.75s-.336.75-.75.75h-1.5c-.643 0-1.257-.128-1.818-.361-.383-.158-.565-.597-.406-.98z"/><path d="m602.224 155.909c.159.383-.023.822-.406.98-.561.233-1.175.361-1.818.361h-1.5c-.414 0-.75-.336-.75-.75s.336-.75.75-.75h1.5c.442 0 .862-.088 1.244-.246.382-.159.821.023.98.405z"/><path d="m591.75 156.5c0-.414.336-.75.75-.75h3c.414 0 .75.336.75.75s-.336.75-.75.75h-3c-.414 0-.75-.336-.75-.75z"/><path d="m602.53 139.091c.293-.293.293-.768 0-1.061s-.767-.293-1.06 0l-.997.997c-.292.292-.292.767 0 1.06.293.293.768.293 1.061 0z"/><path d="m599.542 142.08c.293-.293.293-.768 0-1.061s-.768-.293-1.061 0l-1.992 1.992c-.293.293-.293.768 0 1.061s.767.293 1.06 0z"/><path d="m595.557 146.064c.293-.292.293-.767 0-1.06s-.768-.293-1.061 0l-.496.496-.496-.496c-.293-.293-.768-.293-1.061 0s-.293.768 0 1.06l.496.497-.435.435c-.293.293-.293.768 0 1.061s.768.293 1.06 0l.436-.436.436.436c.292.293.767.293 1.06 0s.293-.768 0-1.061l-.435-.435z"/><path d="m591.572 150.049c.293-.293.293-.767 0-1.06s-.768-.293-1.061 0l-1.992 1.992c-.293.293-.293.768 0 1.061s.768.293 1.061 0z"/><path d="m587.587 154.034c.293-.293.293-.768 0-1.061-.293-.292-.768-.292-1.06 0l-.997.997c-.293.293-.293.767 0 1.06s.768.293 1.061 0z"/><path d="m601.409 155.03c.293.293.768.293 1.061 0s.293-.767 0-1.06l-.997-.997c-.292-.292-.767-.292-1.06 0-.293.293-.293.768 0 1.061z"/><path d="m598.42 152.042c.293.293.768.293 1.061 0s.293-.768 0-1.061l-1.992-1.992c-.293-.293-.768-.293-1.061 0s-.293.767 0 1.06z"/><path d="m590.451 144.072c.293.293.767.293 1.06 0s.293-.768 0-1.061l-1.992-1.992c-.293-.293-.768-.293-1.061 0s-.293.768 0 1.061z"/><path d="m586.466 140.087c.293.293.768.293 1.061 0 .292-.293.292-.768 0-1.06l-.997-.997c-.293-.293-.767-.293-1.06 0s-.293.768 0 1.061z"/><path d="m591.056 141.389c.298-.09.615-.139.944-.139h.75c.414 0 .75-.336.75-.75s-.336-.75-.75-.75h-.75c-.478 0-.942.071-1.379.203-.396.121-.62.539-.5.936.12.396.539.62.935.5z"/><path d="m595.25 139.75c-.414 0-.75.336-.75.75s.336.75.75.75h.75c.329 0 .646.049.944.139.396.12.815-.104.935-.5.12-.397-.104-.815-.5-.936-.437-.132-.901-.203-1.379-.203z"/><path d="m588.889 143.556c.12-.396-.104-.815-.5-.935-.397-.12-.815.104-.936.5-.132.437-.203.901-.203 1.379v.75c0 .414.336.75.75.75s.75-.336.75-.75v-.75c0-.329.049-.646.139-.944z"/><path d="m600.547 143.121c-.121-.396-.539-.62-.936-.5-.396.12-.62.539-.5.935.09.298.139.615.139.944v.75c0 .414.336.75.75.75s.75-.336.75-.75v-.75c0-.478-.071-.942-.203-1.379z"/><path d="m588.75 147.75c0-.414-.336-.75-.75-.75s-.75.336-.75.75v.75c0 .478.071.942.203 1.379.121.396.539.62.936.5.396-.12.62-.539.5-.935-.09-.298-.139-.615-.139-.944z"/><path d="m600.75 147.75c0-.414-.336-.75-.75-.75s-.75.336-.75.75v.75c0 .329-.049.646-.139.944-.12.396.104.815.5.935.397.12.815-.104.936-.5.132-.437.203-.901.203-1.379z"/><path d="m591.056 151.611c-.396-.12-.815.104-.935.5-.12.397.104.815.5.936.437.132.901.203 1.379.203h.75c.414 0 .75-.336.75-.75s-.336-.75-.75-.75h-.75c-.329 0-.646-.049-.944-.139z"/><path d="m597.379 153.047c.396-.121.62-.539.5-.936-.12-.396-.539-.62-.935-.5-.298.09-.615.139-.944.139h-.75c-.414 0-.75.336-.75.75s.336.75.75.75h.75c.478 0 .942-.071 1.379-.203z"/><path d="m446 166.5h192v1h-192z"/></g><path d="m0 0h360v234h-360z" fill="#252a2e" transform="translate(724)"/><g clip-path="url(#f)" fill="#019aeb"><path d="m898 50.75c-.442 0-.862.0878-1.244.2463-.382.1587-.821-.0229-.98-.4055s.023-.8214.406-.9801c.561-.2327 1.175-.3607 1.818-.3607h1.5c.414 0 .75.3358.75.75s-.336.75-.75.75z"/><path d="m901.75 50c0-.4142.336-.75.75-.75h3c.414 0 .75.3358.75.75s-.336.75-.75.75h-3c-.414 0-.75-.3358-.75-.75z"/><path d="m907.75 50c0-.4142.336-.75.75-.75h1.5c.643 0 1.257.128 1.818.3607.383.1587.565.5975.406.9801s-.598.5642-.98.4055c-.382-.1585-.802-.2463-1.244-.2463h-1.5c-.414 0-.75-.3358-.75-.75z"/><path d="m894.591 51.7761c.382.1586.564.5974.405.98-.158.3822-.246.8018-.246 1.2439v1.5c0 .4142-.336.75-.75.75s-.75-.3358-.75-.75v-1.5c0-.6427.128-1.2573.361-1.8184.158-.3827.597-.5642.98-.4055z"/><path d="m913.409 51.7761c.383-.1587.822.0228.98.4055.233.5611.361 1.1757.361 1.8184v1.5c0 .4142-.336.75-.75.75s-.75-.3358-.75-.75v-1.5c0-.4421-.088-.8617-.246-1.2439-.159-.3826.023-.8214.405-.98z"/><path d="m894 57.75c.414 0 .75.3358.75.75v3c0 .4142-.336.75-.75.75s-.75-.3358-.75-.75v-3c0-.4142.336-.75.75-.75z"/><path d="m914 57.75c.414 0 .75.3358.75.75v3c0 .4142-.336.75-.75.75s-.75-.3358-.75-.75v-3c0-.4142.336-.75.75-.75z"/><path d="m894 63.75c.414 0 .75.3358.75.75v1.5c0 .4421.088.8617.246 1.2439.159.3826-.023.8214-.405.98-.383.1587-.822-.0228-.98-.4055-.233-.5611-.361-1.1757-.361-1.8184v-1.5c0-.4142.336-.75.75-.75z"/><path d="m914 63.75c.414 0 .75.3358.75.75v1.5c0 .6427-.128 1.2573-.361 1.8184-.158.3827-.597.5642-.98.4055-.382-.1586-.564-.5974-.405-.98.158-.3822.246-.8018.246-1.2439v-1.5c0-.4142.336-.75.75-.75z"/><path d="m895.776 69.4092c.159-.3826.598-.5642.98-.4055.382.1585.802.2463 1.244.2463h1.5c.414 0 .75.3358.75.75s-.336.75-.75.75h-1.5c-.643 0-1.257-.128-1.818-.3607-.383-.1587-.565-.5975-.406-.9801z"/><path d="m912.224 69.4092c.159.3826-.023.8214-.406.9801-.561.2327-1.175.3607-1.818.3607h-1.5c-.414 0-.75-.3358-.75-.75s.336-.75.75-.75h1.5c.442 0 .862-.0878 1.244-.2463.382-.1587.821.0229.98.4055z"/><path d="m901.75 70c0-.4142.336-.75.75-.75h3c.414 0 .75.3358.75.75s-.336.75-.75.75h-3c-.414 0-.75-.3358-.75-.75z"/><path d="m912.53 52.591c.293-.2929.293-.7678 0-1.0607s-.767-.2929-1.06 0l-.997.9962c-.292.2929-.292.7678 0 1.0607.293.2929.768.2929 1.061 0z"/><path d="m909.542 55.5796c.293-.2929.293-.7678 0-1.0606-.293-.2929-.768-.2929-1.061 0l-1.992 1.9924c-.293.2929-.293.7677 0 1.0606s.767.2929 1.06 0z"/><path d="m905.557 59.5645c.293-.2929.293-.7678 0-1.0607s-.768-.2929-1.061 0l-.496.4962-.496-.4962c-.293-.2929-.768-.2929-1.061 0s-.293.7678 0 1.0607l.496.4962-.435.4355c-.293.2929-.293.7678 0 1.0607s.768.2929 1.06 0l.436-.4356.436.4356c.292.2929.767.2929 1.06 0s.293-.7678 0-1.0607l-.435-.4355z"/><path d="m901.572 63.5493c.293-.2929.293-.7678 0-1.0607s-.768-.2929-1.061 0l-1.992 1.9924c-.293.2929-.293.7678 0 1.0607s.768.2929 1.061 0z"/><path d="m897.587 67.5341c.293-.2929.293-.7677 0-1.0606s-.768-.2929-1.06 0l-.997.9962c-.293.2929-.293.7677 0 1.0606s.768.2929 1.061 0z"/><path d="m911.409 68.5303c.293.2929.768.2929 1.061 0s.293-.7677 0-1.0606l-.997-.9962c-.292-.2929-.767-.2929-1.06 0s-.293.7677 0 1.0606z"/><path d="m908.42 65.5417c.293.2929.768.2929 1.061 0s.293-.7678 0-1.0607l-1.992-1.9924c-.293-.2929-.768-.2929-1.061 0s-.293.7678 0 1.0607z"/><path d="m900.451 57.572c.293.2929.767.2929 1.06 0s.293-.7677 0-1.0606l-1.992-1.9924c-.293-.2929-.768-.2929-1.061 0-.293.2928-.293.7677 0 1.0606z"/><path d="m896.466 53.5872c.293.2929.768.2929 1.061 0 .292-.2929.292-.7678 0-1.0607l-.997-.9962c-.293-.2929-.767-.2929-1.06 0s-.293.7678 0 1.0607z"/><path d="m901.056 54.889c.298-.0902.615-.139.944-.139h.75c.414 0 .75-.3358.75-.75s-.336-.75-.75-.75h-.75c-.478 0-.942.071-1.379.2035-.396.1201-.62.5388-.5.9352s.539.6204.935.5003z"/><path d="m905.25 53.25c-.414 0-.75.3358-.75.75s.336.75.75.75h.75c.329 0 .646.0488.944.139.396.1201.815-.1039.935-.5003s-.104-.8151-.5-.9352c-.437-.1325-.901-.2035-1.379-.2035z"/><path d="m898.889 57.0559c.12-.3964-.104-.8151-.5-.9352-.397-.1201-.815.1039-.936.5003-.132.4373-.203.9006-.203 1.379v.75c0 .4142.336.75.75.75s.75-.3358.75-.75v-.75c0-.3295.049-.6462.139-.9441z"/><path d="m910.547 56.621c-.121-.3964-.539-.6204-.936-.5003-.396.1201-.62.5388-.5.9352.09.2979.139.6146.139.9441v.75c0 .4142.336.75.75.75s.75-.3358.75-.75v-.75c0-.4784-.071-.9417-.203-1.379z"/><path d="m898.75 61.25c0-.4142-.336-.75-.75-.75s-.75.3358-.75.75v.75c0 .4784.071.9417.203 1.379.121.3964.539.6204.936.5003.396-.1201.62-.5388.5-.9352-.09-.2979-.139-.6146-.139-.9441z"/><path d="m910.75 61.25c0-.4142-.336-.75-.75-.75s-.75.3358-.75.75v.75c0 .3295-.049.6462-.139.9441-.12.3964.104.8151.5.9352.397.1201.815-.1039.936-.5003.132-.4373.203-.9006.203-1.379z"/><path d="m901.056 65.111c-.396-.1201-.815.1039-.935.5003s.104.8151.5.9352c.437.1325.901.2035 1.379.2035h.75c.414 0 .75-.3358.75-.75s-.336-.75-.75-.75h-.75c-.329 0-.646-.0488-.944-.139z"/><path d="m907.379 66.5465c.396-.1201.62-.5388.5-.9352s-.539-.6204-.935-.5003c-.298.0902-.615.139-.944.139h-.75c-.414 0-.75.3358-.75.75s.336.75.75.75h.75c.478 0 .942-.071 1.379-.2035z"/><path d="m886.856 93-.724-2.3789h-3.644l-.724 2.3789h-2.284l3.528-10.0352h2.591l3.541 10.0352zm-1.23-4.1562c-.67-2.1556-1.048-3.3747-1.135-3.6573-.082-.2825-.141-.5058-.178-.6699-.15.5833-.581 2.0257-1.292 4.3272zm9.173-4.2178c-.797 0-1.415.3008-1.852.9023-.438.597-.656 1.431-.656 2.502 0 2.2285.836 3.3427 2.508 3.3427.702 0 1.552-.1754 2.55-.5263v1.7773c-.82.3418-1.736.5127-2.748.5127-1.454 0-2.566-.4398-3.336-1.3193-.77-.8841-1.155-2.1511-1.155-3.8008 0-1.0391.189-1.9482.567-2.7275.379-.7839.921-1.3832 1.627-1.7979.711-.4193 1.543-.6289 2.495-.6289.971 0 1.946.2347 2.926.7041l-.683 1.7227c-.374-.1778-.75-.3327-1.128-.4649-.379-.1321-.75-.1982-1.115-.1982zm8.688 8.374h-2.119v-8.2305h-2.714v-1.7636h7.547v1.7636h-2.714zm4.402 0v-9.9941h2.12v9.9941zm10.486-9.9941h2.14l-3.397 9.9941h-2.311l-3.391-9.9941h2.14l1.88 5.9472c.105.3509.212.7611.321 1.2305.114.4648.185.7884.212.9707.05-.4193.221-1.153.513-2.2012zm9.311 9.9941h-5.756v-9.9941h5.756v1.7363h-3.637v2.1943h3.384v1.7364h-3.384v2.5771h3.637z"/><path d="m847 110c0-1.105.895-2 2-2h110c1.105 0 2 .895 2 2v2h-114z"/></g><g clip-path="url(#g)" fill="#fff"><path d="m898 134.75c-.442 0-.862.088-1.244.246-.382.159-.821-.023-.98-.405-.159-.383.023-.822.406-.98.561-.233 1.175-.361 1.818-.361h1.5c.414 0 .75.336.75.75s-.336.75-.75.75z"/><path d="m901.75 134c0-.414.336-.75.75-.75h3c.414 0 .75.336.75.75s-.336.75-.75.75h-3c-.414 0-.75-.336-.75-.75z"/><path d="m907.75 134c0-.414.336-.75.75-.75h1.5c.643 0 1.257.128 1.818.361.383.158.565.597.406.98-.159.382-.598.564-.98.405-.382-.158-.802-.246-1.244-.246h-1.5c-.414 0-.75-.336-.75-.75z"/><path d="m894.591 135.776c.382.159.564.598.405.98-.158.382-.246.802-.246 1.244v1.5c0 .414-.336.75-.75.75s-.75-.336-.75-.75v-1.5c0-.643.128-1.257.361-1.818.158-.383.597-.565.98-.406z"/><path d="m913.409 135.776c.383-.159.822.023.98.406.233.561.361 1.175.361 1.818v1.5c0 .414-.336.75-.75.75s-.75-.336-.75-.75v-1.5c0-.442-.088-.862-.246-1.244-.159-.382.023-.821.405-.98z"/><path d="m894 141.75c.414 0 .75.336.75.75v3c0 .414-.336.75-.75.75s-.75-.336-.75-.75v-3c0-.414.336-.75.75-.75z"/><path d="m914 141.75c.414 0 .75.336.75.75v3c0 .414-.336.75-.75.75s-.75-.336-.75-.75v-3c0-.414.336-.75.75-.75z"/><path d="m894 147.75c.414 0 .75.336.75.75v1.5c0 .442.088.862.246 1.244.159.382-.023.821-.405.98-.383.159-.822-.023-.98-.406-.233-.561-.361-1.175-.361-1.818v-1.5c0-.414.336-.75.75-.75z"/><path d="m914 147.75c.414 0 .75.336.75.75v1.5c0 .643-.128 1.257-.361 1.818-.158.383-.597.565-.98.406-.382-.159-.564-.598-.405-.98.158-.382.246-.802.246-1.244v-1.5c0-.414.336-.75.75-.75z"/><path d="m895.776 153.409c.159-.382.598-.564.98-.405.382.158.802.246 1.244.246h1.5c.414 0 .75.336.75.75s-.336.75-.75.75h-1.5c-.643 0-1.257-.128-1.818-.361-.383-.158-.565-.597-.406-.98z"/><path d="m912.224 153.409c.159.383-.023.822-.406.98-.561.233-1.175.361-1.818.361h-1.5c-.414 0-.75-.336-.75-.75s.336-.75.75-.75h1.5c.442 0 .862-.088 1.244-.246.382-.159.821.023.98.405z"/><path d="m901.75 154c0-.414.336-.75.75-.75h3c.414 0 .75.336.75.75s-.336.75-.75.75h-3c-.414 0-.75-.336-.75-.75z"/><path d="m912.53 136.591c.293-.293.293-.768 0-1.061s-.767-.293-1.06 0l-.997.997c-.292.292-.292.767 0 1.06.293.293.768.293 1.061 0z"/><path d="m909.542 139.58c.293-.293.293-.768 0-1.061s-.768-.293-1.061 0l-1.992 1.992c-.293.293-.293.768 0 1.061s.767.293 1.06 0z"/><path d="m905.557 143.564c.293-.292.293-.767 0-1.06s-.768-.293-1.061 0l-.496.496-.496-.496c-.293-.293-.768-.293-1.061 0s-.293.768 0 1.06l.496.497-.435.435c-.293.293-.293.768 0 1.061s.768.293 1.06 0l.436-.436.436.436c.292.293.767.293 1.06 0s.293-.768 0-1.061l-.435-.435z"/><path d="m901.572 147.549c.293-.293.293-.767 0-1.06s-.768-.293-1.061 0l-1.992 1.992c-.293.293-.293.768 0 1.061s.768.293 1.061 0z"/><path d="m897.587 151.534c.293-.293.293-.768 0-1.061-.293-.292-.768-.292-1.06 0l-.997.997c-.293.293-.293.767 0 1.06s.768.293 1.061 0z"/><path d="m911.409 152.53c.293.293.768.293 1.061 0s.293-.767 0-1.06l-.997-.997c-.292-.292-.767-.292-1.06 0-.293.293-.293.768 0 1.061z"/><path d="m908.42 149.542c.293.293.768.293 1.061 0s.293-.768 0-1.061l-1.992-1.992c-.293-.293-.768-.293-1.061 0s-.293.767 0 1.06z"/><path d="m900.451 141.572c.293.293.767.293 1.06 0s.293-.768 0-1.061l-1.992-1.992c-.293-.293-.768-.293-1.061 0s-.293.768 0 1.061z"/><path d="m896.466 137.587c.293.293.768.293 1.061 0 .292-.293.292-.768 0-1.06l-.997-.997c-.293-.293-.767-.293-1.06 0s-.293.768 0 1.061z"/><path d="m901.056 138.889c.298-.09.615-.139.944-.139h.75c.414 0 .75-.336.75-.75s-.336-.75-.75-.75h-.75c-.478 0-.942.071-1.379.203-.396.121-.62.539-.5.936.12.396.539.62.935.5z"/><path d="m905.25 137.25c-.414 0-.75.336-.75.75s.336.75.75.75h.75c.329 0 .646.049.944.139.396.12.815-.104.935-.5.12-.397-.104-.815-.5-.936-.437-.132-.901-.203-1.379-.203z"/><path d="m898.889 141.056c.12-.396-.104-.815-.5-.935-.397-.12-.815.104-.936.5-.132.437-.203.901-.203 1.379v.75c0 .414.336.75.75.75s.75-.336.75-.75v-.75c0-.329.049-.646.139-.944z"/><path d="m910.547 140.621c-.121-.396-.539-.62-.936-.5-.396.12-.62.539-.5.935.09.298.139.615.139.944v.75c0 .414.336.75.75.75s.75-.336.75-.75v-.75c0-.478-.071-.942-.203-1.379z"/><path d="m898.75 145.25c0-.414-.336-.75-.75-.75s-.75.336-.75.75v.75c0 .478.071.942.203 1.379.121.396.539.62.936.5.396-.12.62-.539.5-.935-.09-.298-.139-.615-.139-.944z"/><path d="m910.75 145.25c0-.414-.336-.75-.75-.75s-.75.336-.75.75v.75c0 .329-.049.646-.139.944-.12.396.104.815.5.935.397.12.815-.104.936-.5.132-.437.203-.901.203-1.379z"/><path d="m901.056 149.111c-.396-.12-.815.104-.935.5-.12.397.104.815.5.936.437.132.901.203 1.379.203h.75c.414 0 .75-.336.75-.75s-.336-.75-.75-.75h-.75c-.329 0-.646-.049-.944-.139z"/><path d="m907.379 150.547c.396-.121.62-.539.5-.936-.12-.396-.539-.62-.935-.5-.298.09-.615.139-.944.139h-.75c-.414 0-.75.336-.75.75s.336.75.75.75h.75c.478 0 .942-.071 1.379-.203z"/><path d="m882.305 171.907c0 1.126-.21 2.067-.629 2.823-.419.752-1.028 1.32-1.825 1.703-.798.378-1.76.567-2.885.567h-2.776v-9.994h3.077c1.034 0 1.927.187 2.679.56.752.37 1.333.919 1.743 1.648.411.724.616 1.622.616 2.693zm-1.709.048c0-.82-.13-1.495-.39-2.023-.255-.529-.633-.921-1.135-1.176-.496-.26-1.109-.39-1.839-.39h-1.401v7.26h1.162c1.208 0 2.11-.308 2.707-.923s.896-1.531.896-2.748zm9.772 5.045h-5.66v-9.994h5.66v1.381h-4.019v2.714h3.766v1.374h-3.766v3.137h4.019zm4.037 0h-1.627v-9.994h5.647v1.381h-4.02v3.117h3.76v1.374h-3.76zm12.282 0-.978-2.775h-3.821l-.978 2.775h-1.729l3.718-10.035h1.819l3.712 10.035zm-1.402-4.184-.95-2.734c-.036-.118-.089-.285-.157-.499-.069-.219-.137-.44-.205-.663-.069-.228-.126-.419-.171-.574-.046.187-.103.396-.171.629-.064.227-.128.442-.192.642-.059.201-.104.356-.136.465l-.957 2.734zm12.562-5.81v6.467c0 .697-.148 1.321-.445 1.873-.291.551-.733.989-1.326 1.312-.592.319-1.337.479-2.235.479-1.281 0-2.256-.335-2.926-1.005-.665-.675-.998-1.57-.998-2.687v-6.439h1.641v6.296c0 .834.196 1.449.588 1.845.391.397.977.595 1.756.595.538 0 .976-.093 1.313-.28.342-.191.592-.469.752-.834.164-.369.246-.814.246-1.333v-6.289zm2.806 9.994v-9.994h1.641v8.599h4.245v1.395zm11.331 0h-1.647v-8.6h-2.926v-1.394h7.492v1.394h-2.919z"/><path d="m840 193h128v1h-128z"/></g></g></svg>