<svg fill="none" height="260" viewBox="0 0 961 260" width="961" xmlns="http://www.w3.org/2000/svg" xmlns:xlink="http://www.w3.org/1999/xlink"><clipPath id="a"><path d="m230.5 94h140v72h-140z"/></clipPath><clipPath id="b"><path d="m410.5 94h140v72h-140z"/></clipPath><clipPath id="c"><path d="m590.5 94h140v72h-140z"/></clipPath><path d="m0 0h961v260h-961z" fill="#f1f1f6"/><g clip-path="url(#a)" fill="#0063a3"><path d="m294.5 104.75c-.442 0-.862.088-1.244.246-.382.159-.821-.023-.98-.405-.159-.383.023-.822.406-.98.561-.233 1.175-.361 1.818-.361h1.5c.414 0 .75.336.75.75s-.336.75-.75.75z"/><path d="m298.25 104c0-.414.336-.75.75-.75h3c.414 0 .75.336.75.75s-.336.75-.75.75h-3c-.414 0-.75-.336-.75-.75z"/><path d="m304.25 104c0-.414.336-.75.75-.75h1.5c.643 0 1.257.128 1.818.361.383.158.565.597.406.98-.159.382-.598.564-.98.405-.382-.158-.802-.246-1.244-.246h-1.5c-.414 0-.75-.336-.75-.75z"/><path d="m291.091 105.776c.382.159.564.598.405.98-.158.382-.246.802-.246 1.244v1.5c0 .414-.336.75-.75.75s-.75-.336-.75-.75v-1.5c0-.643.128-1.257.361-1.818.158-.383.597-.565.98-.406z"/><path d="m309.909 105.776c.383-.159.822.023.98.406.233.561.361 1.175.361 1.818v1.5c0 .414-.336.75-.75.75s-.75-.336-.75-.75v-1.5c0-.442-.088-.862-.246-1.244-.159-.382.023-.821.405-.98z"/><path d="m290.5 111.75c.414 0 .75.336.75.75v3c0 .414-.336.75-.75.75s-.75-.336-.75-.75v-3c0-.414.336-.75.75-.75z"/><path d="m310.5 111.75c.414 0 .75.336.75.75v3c0 .414-.336.75-.75.75s-.75-.336-.75-.75v-3c0-.414.336-.75.75-.75z"/><path d="m290.5 117.75c.414 0 .75.336.75.75v1.5c0 .442.088.862.246 1.244.159.382-.023.821-.405.98-.383.159-.822-.023-.98-.406-.233-.561-.361-1.175-.361-1.818v-1.5c0-.414.336-.75.75-.75z"/><path d="m310.5 117.75c.414 0 .75.336.75.75v1.5c0 .643-.128 1.257-.361 1.818-.158.383-.597.565-.98.406-.382-.159-.564-.598-.405-.98.158-.382.246-.802.246-1.244v-1.5c0-.414.336-.75.75-.75z"/><path d="m292.276 123.409c.159-.382.598-.564.98-.405.382.158.802.246 1.244.246h1.5c.414 0 .75.336.75.75s-.336.75-.75.75h-1.5c-.643 0-1.257-.128-1.818-.361-.383-.158-.565-.597-.406-.98z"/><path d="m308.724 123.409c.159.383-.023.822-.406.98-.561.233-1.175.361-1.818.361h-1.5c-.414 0-.75-.336-.75-.75s.336-.75.75-.75h1.5c.442 0 .862-.088 1.244-.246.382-.159.821.023.98.405z"/><path d="m298.25 124c0-.414.336-.75.75-.75h3c.414 0 .75.336.75.75s-.336.75-.75.75h-3c-.414 0-.75-.336-.75-.75z"/><path d="m309.03 106.591c.293-.293.293-.768 0-1.061s-.767-.293-1.06 0l-.997.997c-.292.292-.292.767 0 1.06.293.293.768.293 1.061 0z"/><path d="m306.042 109.58c.293-.293.293-.768 0-1.061s-.768-.293-1.061 0l-1.992 1.992c-.293.293-.293.768 0 1.061s.767.293 1.06 0z"/><path d="m302.057 113.564c.293-.292.293-.767 0-1.06s-.768-.293-1.061 0l-.496.496-.496-.496c-.293-.293-.768-.293-1.061 0s-.293.768 0 1.06l.496.497-.435.435c-.293.293-.293.768 0 1.061s.768.293 1.06 0l.436-.436.436.436c.292.293.767.293 1.06 0s.293-.768 0-1.061l-.435-.435z"/><path d="m298.072 117.549c.293-.293.293-.767 0-1.06s-.768-.293-1.061 0l-1.992 1.992c-.293.293-.293.768 0 1.061s.768.293 1.061 0z"/><path d="m294.087 121.534c.293-.293.293-.768 0-1.061-.293-.292-.768-.292-1.06 0l-.997.997c-.293.293-.293.767 0 1.06s.768.293 1.061 0z"/><path d="m307.909 122.53c.293.293.768.293 1.061 0s.293-.767 0-1.06l-.997-.997c-.292-.292-.767-.292-1.06 0-.293.293-.293.768 0 1.061z"/><path d="m304.92 119.542c.293.293.768.293 1.061 0s.293-.768 0-1.061l-1.992-1.992c-.293-.293-.768-.293-1.061 0s-.293.767 0 1.06z"/><path d="m296.951 111.572c.293.293.767.293 1.06 0s.293-.768 0-1.061l-1.992-1.992c-.293-.293-.768-.293-1.061 0s-.293.768 0 1.061z"/><path d="m292.966 107.587c.293.293.768.293 1.061 0 .292-.293.292-.768 0-1.06l-.997-.997c-.293-.293-.767-.293-1.06 0s-.293.768 0 1.061z"/><path d="m297.556 108.889c.298-.09.615-.139.944-.139h.75c.414 0 .75-.336.75-.75s-.336-.75-.75-.75h-.75c-.478 0-.942.071-1.379.203-.396.121-.62.539-.5.936.12.396.539.62.935.5z"/><path d="m301.75 107.25c-.414 0-.75.336-.75.75s.336.75.75.75h.75c.329 0 .646.049.944.139.396.12.815-.104.935-.5.12-.397-.104-.815-.5-.936-.437-.132-.901-.203-1.379-.203z"/><path d="m295.389 111.056c.12-.396-.104-.815-.5-.935-.397-.12-.815.104-.936.5-.132.437-.203.901-.203 1.379v.75c0 .414.336.75.75.75s.75-.336.75-.75v-.75c0-.329.049-.646.139-.944z"/><path d="m307.047 110.621c-.121-.396-.539-.62-.936-.5-.396.12-.62.539-.5.935.09.298.139.615.139.944v.75c0 .414.336.75.75.75s.75-.336.75-.75v-.75c0-.478-.071-.942-.203-1.379z"/><path d="m295.25 115.25c0-.414-.336-.75-.75-.75s-.75.336-.75.75v.75c0 .478.071.942.203 1.379.121.396.539.62.936.5.396-.12.62-.539.5-.935-.09-.298-.139-.615-.139-.944z"/><path d="m307.25 115.25c0-.414-.336-.75-.75-.75s-.75.336-.75.75v.75c0 .329-.049.646-.139.944-.12.396.104.815.5.935.397.12.815-.104.936-.5.132-.437.203-.901.203-1.379z"/><path d="m297.556 119.111c-.396-.12-.815.104-.935.5-.12.397.104.815.5.936.437.132.901.203 1.379.203h.75c.414 0 .75-.336.75-.75s-.336-.75-.75-.75h-.75c-.329 0-.646-.049-.944-.139z"/><path d="m303.879 120.547c.396-.121.62-.539.5-.936-.12-.396-.539-.62-.935-.5-.298.09-.615.139-.944.139h-.75c-.414 0-.75.336-.75.75s.336.75.75.75h.75c.478 0 .942-.071 1.379-.203z"/><path d="m274.969 147h-2.119v-8.23h-2.714v-1.764h7.547v1.764h-2.714zm9.092 0-.404-1.039h-.054c-.351.442-.713.75-1.087.923-.369.168-.852.253-1.449.253-.734 0-1.313-.21-1.737-.629-.419-.419-.629-1.016-.629-1.791 0-.811.283-1.408.848-1.791.57-.388 1.426-.602 2.57-.643l1.327-.041v-.335c0-.775-.397-1.162-1.19-1.162-.611 0-1.328.185-2.153.554l-.691-1.408c.88-.461 1.855-.691 2.926-.691 1.025 0 1.812.224 2.358.67.547.447.821 1.126.821 2.037v5.093zm-.615-3.541-.807.027c-.606.019-1.057.128-1.354.328-.296.201-.444.506-.444.916 0 .588.337.882 1.012.882.483 0 .868-.139 1.155-.417.292-.278.438-.647.438-1.107zm8.626-4.245c.902 0 1.609.353 2.119 1.059.511.702.766 1.666.766 2.892 0 1.262-.264 2.24-.793 2.933-.524.692-1.24 1.039-2.147 1.039-.897 0-1.602-.326-2.112-.978h-.143l-.349.841h-1.593v-10.637h2.085v2.475c0 .314-.027.818-.082 1.511h.082c.488-.757 1.21-1.135 2.167-1.135zm-.67 1.668c-.515 0-.891.159-1.128.478-.237.315-.36.837-.369 1.566v.225c0 .821.121 1.409.362 1.764.246.356.634.533 1.162.533.429 0 .768-.196 1.019-.588.255-.396.383-.97.383-1.722s-.128-1.315-.383-1.689c-.255-.378-.604-.567-1.046-.567zm13.234 6.118h-2.119v-8.23h-2.714v-1.764h7.547v1.764h-2.714zm4.149-9.618c0-.679.378-1.019 1.135-1.019.756 0 1.134.34 1.134 1.019 0 .323-.095.576-.287.759-.187.177-.469.266-.847.266-.757 0-1.135-.342-1.135-1.025zm2.174 9.618h-2.085v-7.643h2.085zm5.564-1.524c.364 0 .802-.08 1.312-.24v1.552c-.519.233-1.157.349-1.914.349-.834 0-1.442-.21-1.825-.629-.378-.424-.567-1.057-.567-1.901v-3.684h-.999v-.882l1.149-.697.601-1.614h1.333v1.627h2.14v1.566h-2.14v3.684c0 .297.083.515.247.657.168.141.389.212.663.212zm5.099 1.524h-2.085v-10.637h2.085zm5.509-6.303c-.442 0-.788.142-1.039.424-.25.278-.394.675-.43 1.19h2.925c-.009-.515-.143-.912-.403-1.19-.26-.282-.611-.424-1.053-.424zm.294 6.44c-1.23 0-2.192-.34-2.885-1.019-.692-.679-1.039-1.64-1.039-2.885 0-1.28.319-2.269.957-2.966.643-.702 1.529-1.053 2.66-1.053 1.08 0 1.92.307 2.522.923.602.615.902 1.465.902 2.55v1.011h-4.928c.022.593.198 1.055.526 1.388s.788.499 1.381.499c.46 0 .895-.048 1.306-.144.41-.095.838-.248 1.285-.458v1.614c-.365.182-.755.316-1.169.403-.415.091-.921.137-1.518.137z"/><path d="m230.5 164c0-1.105.895-2 2-2h136c1.105 0 2 .895 2 2v2h-140z"/></g><g clip-path="url(#b)" fill="#252a2e"><path d="m474.5 104.75c-.442 0-.862.088-1.244.246-.382.159-.821-.023-.98-.405-.159-.383.023-.822.406-.98.561-.233 1.175-.361 1.818-.361h1.5c.414 0 .75.336.75.75s-.336.75-.75.75z"/><path d="m478.25 104c0-.414.336-.75.75-.75h3c.414 0 .75.336.75.75s-.336.75-.75.75h-3c-.414 0-.75-.336-.75-.75z"/><path d="m484.25 104c0-.414.336-.75.75-.75h1.5c.643 0 1.257.128 1.818.361.383.158.565.597.406.98-.159.382-.598.564-.98.405-.382-.158-.802-.246-1.244-.246h-1.5c-.414 0-.75-.336-.75-.75z"/><path d="m471.091 105.776c.382.159.564.598.405.98-.158.382-.246.802-.246 1.244v1.5c0 .414-.336.75-.75.75s-.75-.336-.75-.75v-1.5c0-.643.128-1.257.361-1.818.158-.383.597-.565.98-.406z"/><path d="m489.909 105.776c.383-.159.822.023.98.406.233.561.361 1.175.361 1.818v1.5c0 .414-.336.75-.75.75s-.75-.336-.75-.75v-1.5c0-.442-.088-.862-.246-1.244-.159-.382.023-.821.405-.98z"/><path d="m470.5 111.75c.414 0 .75.336.75.75v3c0 .414-.336.75-.75.75s-.75-.336-.75-.75v-3c0-.414.336-.75.75-.75z"/><path d="m490.5 111.75c.414 0 .75.336.75.75v3c0 .414-.336.75-.75.75s-.75-.336-.75-.75v-3c0-.414.336-.75.75-.75z"/><path d="m470.5 117.75c.414 0 .75.336.75.75v1.5c0 .442.088.862.246 1.244.159.382-.023.821-.405.98-.383.159-.822-.023-.98-.406-.233-.561-.361-1.175-.361-1.818v-1.5c0-.414.336-.75.75-.75z"/><path d="m490.5 117.75c.414 0 .75.336.75.75v1.5c0 .643-.128 1.257-.361 1.818-.158.383-.597.565-.98.406-.382-.159-.564-.598-.405-.98.158-.382.246-.802.246-1.244v-1.5c0-.414.336-.75.75-.75z"/><path d="m472.276 123.409c.159-.382.598-.564.98-.405.382.158.802.246 1.244.246h1.5c.414 0 .75.336.75.75s-.336.75-.75.75h-1.5c-.643 0-1.257-.128-1.818-.361-.383-.158-.565-.597-.406-.98z"/><path d="m488.724 123.409c.159.383-.023.822-.406.98-.561.233-1.175.361-1.818.361h-1.5c-.414 0-.75-.336-.75-.75s.336-.75.75-.75h1.5c.442 0 .862-.088 1.244-.246.382-.159.821.023.98.405z"/><path d="m478.25 124c0-.414.336-.75.75-.75h3c.414 0 .75.336.75.75s-.336.75-.75.75h-3c-.414 0-.75-.336-.75-.75z"/><path d="m489.03 106.591c.293-.293.293-.768 0-1.061s-.767-.293-1.06 0l-.997.997c-.292.292-.292.767 0 1.06.293.293.768.293 1.061 0z"/><path d="m486.042 109.58c.293-.293.293-.768 0-1.061s-.768-.293-1.061 0l-1.992 1.992c-.293.293-.293.768 0 1.061s.767.293 1.06 0z"/><path d="m482.057 113.564c.293-.292.293-.767 0-1.06s-.768-.293-1.061 0l-.496.496-.496-.496c-.293-.293-.768-.293-1.061 0s-.293.768 0 1.06l.496.497-.435.435c-.293.293-.293.768 0 1.061s.768.293 1.06 0l.436-.436.436.436c.292.293.767.293 1.06 0s.293-.768 0-1.061l-.435-.435z"/><path d="m478.072 117.549c.293-.293.293-.767 0-1.06s-.768-.293-1.061 0l-1.992 1.992c-.293.293-.293.768 0 1.061s.768.293 1.061 0z"/><path d="m474.087 121.534c.293-.293.293-.768 0-1.061-.293-.292-.768-.292-1.06 0l-.997.997c-.293.293-.293.767 0 1.06s.768.293 1.061 0z"/><path d="m487.909 122.53c.293.293.768.293 1.061 0s.293-.767 0-1.06l-.997-.997c-.292-.292-.767-.292-1.06 0-.293.293-.293.768 0 1.061z"/><path d="m484.92 119.542c.293.293.768.293 1.061 0s.293-.768 0-1.061l-1.992-1.992c-.293-.293-.768-.293-1.061 0s-.293.767 0 1.06z"/><path d="m476.951 111.572c.293.293.767.293 1.06 0s.293-.768 0-1.061l-1.992-1.992c-.293-.293-.768-.293-1.061 0s-.293.768 0 1.061z"/><path d="m472.966 107.587c.293.293.768.293 1.061 0 .292-.293.292-.768 0-1.06l-.997-.997c-.293-.293-.767-.293-1.06 0s-.293.768 0 1.061z"/><path d="m477.556 108.889c.298-.09.615-.139.944-.139h.75c.414 0 .75-.336.75-.75s-.336-.75-.75-.75h-.75c-.478 0-.942.071-1.379.203-.396.121-.62.539-.5.936.12.396.539.62.935.5z"/><path d="m481.75 107.25c-.414 0-.75.336-.75.75s.336.75.75.75h.75c.329 0 .646.049.944.139.396.12.815-.104.935-.5.12-.397-.104-.815-.5-.936-.437-.132-.901-.203-1.379-.203z"/><path d="m475.389 111.056c.12-.396-.104-.815-.5-.935-.397-.12-.815.104-.936.5-.132.437-.203.901-.203 1.379v.75c0 .414.336.75.75.75s.75-.336.75-.75v-.75c0-.329.049-.646.139-.944z"/><path d="m487.047 110.621c-.121-.396-.539-.62-.936-.5-.396.12-.62.539-.5.935.09.298.139.615.139.944v.75c0 .414.336.75.75.75s.75-.336.75-.75v-.75c0-.478-.071-.942-.203-1.379z"/><path d="m475.25 115.25c0-.414-.336-.75-.75-.75s-.75.336-.75.75v.75c0 .478.071.942.203 1.379.121.396.539.62.936.5.396-.12.62-.539.5-.935-.09-.298-.139-.615-.139-.944z"/><path d="m487.25 115.25c0-.414-.336-.75-.75-.75s-.75.336-.75.75v.75c0 .329-.049.646-.139.944-.12.396.104.815.5.935.397.12.815-.104.936-.5.132-.437.203-.901.203-1.379z"/><path d="m477.556 119.111c-.396-.12-.815.104-.935.5-.12.397.104.815.5.936.437.132.901.203 1.379.203h.75c.414 0 .75-.336.75-.75s-.336-.75-.75-.75h-.75c-.329 0-.646-.049-.944-.139z"/><path d="m483.879 120.547c.396-.121.62-.539.5-.936-.12-.396-.539-.62-.935-.5-.298.09-.615.139-.944.139h-.75c-.414 0-.75.336-.75.75s.336.75.75.75h.75c.478 0 .942-.071 1.379-.203z"/><path d="m454.969 147h-2.119v-8.23h-2.714v-1.764h7.547v1.764h-2.714zm9.092 0-.404-1.039h-.054c-.351.442-.713.75-1.087.923-.369.168-.852.253-1.449.253-.734 0-1.313-.21-1.737-.629-.419-.419-.629-1.016-.629-1.791 0-.811.283-1.408.848-1.791.57-.388 1.426-.602 2.57-.643l1.327-.041v-.335c0-.775-.397-1.162-1.19-1.162-.611 0-1.328.185-2.153.554l-.691-1.408c.88-.461 1.855-.691 2.926-.691 1.025 0 1.812.224 2.358.67.547.447.821 1.126.821 2.037v5.093zm-.615-3.541-.807.027c-.606.019-1.057.128-1.354.328-.296.201-.444.506-.444.916 0 .588.337.882 1.012.882.483 0 .868-.139 1.155-.417.292-.278.438-.647.438-1.107zm8.626-4.245c.902 0 1.609.353 2.119 1.059.511.702.766 1.666.766 2.892 0 1.262-.264 2.24-.793 2.933-.524.692-1.24 1.039-2.147 1.039-.897 0-1.602-.326-2.112-.978h-.143l-.349.841h-1.593v-10.637h2.085v2.475c0 .314-.027.818-.082 1.511h.082c.488-.757 1.21-1.135 2.167-1.135zm-.67 1.668c-.515 0-.891.159-1.128.478-.237.315-.36.837-.369 1.566v.225c0 .821.121 1.409.362 1.764.246.356.634.533 1.162.533.429 0 .768-.196 1.019-.588.255-.396.383-.97.383-1.722s-.128-1.315-.383-1.689c-.255-.378-.604-.567-1.046-.567zm13.234 6.118h-2.119v-8.23h-2.714v-1.764h7.547v1.764h-2.714zm4.149-9.618c0-.679.378-1.019 1.135-1.019.756 0 1.134.34 1.134 1.019 0 .323-.095.576-.287.759-.187.177-.469.266-.847.266-.757 0-1.135-.342-1.135-1.025zm2.174 9.618h-2.085v-7.643h2.085zm5.564-1.524c.364 0 .802-.08 1.312-.24v1.552c-.519.233-1.157.349-1.914.349-.834 0-1.442-.21-1.825-.629-.378-.424-.567-1.057-.567-1.901v-3.684h-.999v-.882l1.149-.697.601-1.614h1.333v1.627h2.14v1.566h-2.14v3.684c0 .297.083.515.247.657.168.141.389.212.663.212zm5.099 1.524h-2.085v-10.637h2.085zm5.509-6.303c-.442 0-.788.142-1.039.424-.25.278-.394.675-.43 1.19h2.925c-.009-.515-.143-.912-.403-1.19-.26-.282-.611-.424-1.053-.424zm.294 6.44c-1.23 0-2.192-.34-2.885-1.019-.692-.679-1.039-1.64-1.039-2.885 0-1.28.319-2.269.957-2.966.643-.702 1.529-1.053 2.66-1.053 1.08 0 1.92.307 2.522.923.602.615.902 1.465.902 2.55v1.011h-4.928c.022.593.198 1.055.526 1.388s.788.499 1.381.499c.46 0 .895-.048 1.306-.144.41-.095.838-.248 1.285-.458v1.614c-.365.182-.755.316-1.169.403-.415.091-.921.137-1.518.137z"/><path d="m410.5 164c0-1.105.895-2 2-2h136c1.105 0 2 .895 2 2v2h-140z"/></g><g clip-path="url(#c)"><g fill="#353a40"><path d="m654.5 104.75c-.442 0-.862.088-1.244.246-.382.159-.821-.023-.98-.405-.159-.383.023-.822.406-.98.561-.233 1.175-.361 1.818-.361h1.5c.414 0 .75.336.75.75s-.336.75-.75.75z"/><path d="m658.25 104c0-.414.336-.75.75-.75h3c.414 0 .75.336.75.75s-.336.75-.75.75h-3c-.414 0-.75-.336-.75-.75z"/><path d="m664.25 104c0-.414.336-.75.75-.75h1.5c.643 0 1.257.128 1.818.361.383.158.565.597.406.98-.159.382-.598.564-.98.405-.382-.158-.802-.246-1.244-.246h-1.5c-.414 0-.75-.336-.75-.75z"/><path d="m651.091 105.776c.382.159.564.598.405.98-.158.382-.246.802-.246 1.244v1.5c0 .414-.336.75-.75.75s-.75-.336-.75-.75v-1.5c0-.643.128-1.257.361-1.818.158-.383.597-.565.98-.406z"/><path d="m669.909 105.776c.383-.159.822.023.98.406.233.561.361 1.175.361 1.818v1.5c0 .414-.336.75-.75.75s-.75-.336-.75-.75v-1.5c0-.442-.088-.862-.246-1.244-.159-.382.023-.821.405-.98z"/><path d="m650.5 111.75c.414 0 .75.336.75.75v3c0 .414-.336.75-.75.75s-.75-.336-.75-.75v-3c0-.414.336-.75.75-.75z"/><path d="m670.5 111.75c.414 0 .75.336.75.75v3c0 .414-.336.75-.75.75s-.75-.336-.75-.75v-3c0-.414.336-.75.75-.75z"/><path d="m650.5 117.75c.414 0 .75.336.75.75v1.5c0 .442.088.862.246 1.244.159.382-.023.821-.405.98-.383.159-.822-.023-.98-.406-.233-.561-.361-1.175-.361-1.818v-1.5c0-.414.336-.75.75-.75z"/><path d="m670.5 117.75c.414 0 .75.336.75.75v1.5c0 .643-.128 1.257-.361 1.818-.158.383-.597.565-.98.406-.382-.159-.564-.598-.405-.98.158-.382.246-.802.246-1.244v-1.5c0-.414.336-.75.75-.75z"/><path d="m652.276 123.409c.159-.382.598-.564.98-.405.382.158.802.246 1.244.246h1.5c.414 0 .75.336.75.75s-.336.75-.75.75h-1.5c-.643 0-1.257-.128-1.818-.361-.383-.158-.565-.597-.406-.98z"/><path d="m668.724 123.409c.159.383-.023.822-.406.98-.561.233-1.175.361-1.818.361h-1.5c-.414 0-.75-.336-.75-.75s.336-.75.75-.75h1.5c.442 0 .862-.088 1.244-.246.382-.159.821.023.98.405z"/><path d="m658.25 124c0-.414.336-.75.75-.75h3c.414 0 .75.336.75.75s-.336.75-.75.75h-3c-.414 0-.75-.336-.75-.75z"/><path d="m669.03 106.591c.293-.293.293-.768 0-1.061s-.767-.293-1.06 0l-.997.997c-.292.292-.292.767 0 1.06.293.293.768.293 1.061 0z"/><path d="m666.042 109.58c.293-.293.293-.768 0-1.061s-.768-.293-1.061 0l-1.992 1.992c-.293.293-.293.768 0 1.061s.767.293 1.06 0z"/><path d="m662.057 113.564c.293-.292.293-.767 0-1.06s-.768-.293-1.061 0l-.496.496-.496-.496c-.293-.293-.768-.293-1.061 0s-.293.768 0 1.06l.496.497-.435.435c-.293.293-.293.768 0 1.061s.768.293 1.06 0l.436-.436.436.436c.292.293.767.293 1.06 0s.293-.768 0-1.061l-.435-.435z"/><path d="m658.072 117.549c.293-.293.293-.767 0-1.06s-.768-.293-1.061 0l-1.992 1.992c-.293.293-.293.768 0 1.061s.768.293 1.061 0z"/><path d="m654.087 121.534c.293-.293.293-.768 0-1.061-.293-.292-.768-.292-1.06 0l-.997.997c-.293.293-.293.767 0 1.06s.768.293 1.061 0z"/><path d="m667.909 122.53c.293.293.768.293 1.061 0s.293-.767 0-1.06l-.997-.997c-.292-.292-.767-.292-1.06 0-.293.293-.293.768 0 1.061z"/><path d="m664.92 119.542c.293.293.768.293 1.061 0s.293-.768 0-1.061l-1.992-1.992c-.293-.293-.768-.293-1.061 0s-.293.767 0 1.06z"/><path d="m656.951 111.572c.293.293.767.293 1.06 0s.293-.768 0-1.061l-1.992-1.992c-.293-.293-.768-.293-1.061 0s-.293.768 0 1.061z"/><path d="m652.966 107.587c.293.293.768.293 1.061 0 .292-.293.292-.768 0-1.06l-.997-.997c-.293-.293-.767-.293-1.06 0s-.293.768 0 1.061z"/><path d="m657.556 108.889c.298-.09.615-.139.944-.139h.75c.414 0 .75-.336.75-.75s-.336-.75-.75-.75h-.75c-.478 0-.942.071-1.379.203-.396.121-.62.539-.5.936.12.396.539.62.935.5z"/><path d="m661.75 107.25c-.414 0-.75.336-.75.75s.336.75.75.75h.75c.329 0 .646.049.944.139.396.12.815-.104.935-.5.12-.397-.104-.815-.5-.936-.437-.132-.901-.203-1.379-.203z"/><path d="m655.389 111.056c.12-.396-.104-.815-.5-.935-.397-.12-.815.104-.936.5-.132.437-.203.901-.203 1.379v.75c0 .414.336.75.75.75s.75-.336.75-.75v-.75c0-.329.049-.646.139-.944z"/><path d="m667.047 110.621c-.121-.396-.539-.62-.936-.5-.396.12-.62.539-.5.935.09.298.139.615.139.944v.75c0 .414.336.75.75.75s.75-.336.75-.75v-.75c0-.478-.071-.942-.203-1.379z"/><path d="m655.25 115.25c0-.414-.336-.75-.75-.75s-.75.336-.75.75v.75c0 .478.071.942.203 1.379.121.396.539.62.936.5.396-.12.62-.539.5-.935-.09-.298-.139-.615-.139-.944z"/><path d="m667.25 115.25c0-.414-.336-.75-.75-.75s-.75.336-.75.75v.75c0 .329-.049.646-.139.944-.12.396.104.815.5.935.397.12.815-.104.936-.5.132-.437.203-.901.203-1.379z"/><path d="m657.556 119.111c-.396-.12-.815.104-.935.5-.12.397.104.815.5.936.437.132.901.203 1.379.203h.75c.414 0 .75-.336.75-.75s-.336-.75-.75-.75h-.75c-.329 0-.646-.049-.944-.139z"/><path d="m663.879 120.547c.396-.121.62-.539.5-.936-.12-.396-.539-.62-.935-.5-.298.09-.615.139-.944.139h-.75c-.414 0-.75.336-.75.75s.336.75.75.75h.75c.478 0 .942-.071 1.379-.203z"/><path d="m636.644 147h-1.162v-8.962h-3.165v-1.032h7.492v1.032h-3.165zm9.262 0-.225-1.066h-.055c-.374.469-.747.788-1.121.957-.369.164-.832.246-1.388.246-.742 0-1.326-.192-1.75-.575-.419-.382-.629-.927-.629-1.633 0-1.513 1.21-2.306 3.63-2.379l1.272-.041v-.465c0-.588-.128-1.021-.383-1.299-.251-.282-.654-.424-1.21-.424-.624 0-1.331.192-2.119.575l-.349-.869c.369-.2.773-.357 1.21-.471.442-.114.884-.171 1.326-.171.894 0 1.554.198 1.983.594.433.397.649 1.033.649 1.908v5.113zm-2.563-.8c.706 0 1.26-.193 1.661-.581.406-.387.609-.93.609-1.627v-.677l-1.135.048c-.903.032-1.554.173-1.955.424-.397.246-.595.631-.595 1.155 0 .411.123.723.369.937.251.214.599.321 1.046.321zm9.385-6.815c.985 0 1.748.337 2.29 1.011.547.67.821 1.621.821 2.851 0 1.231-.276 2.188-.827 2.871-.547.679-1.308 1.019-2.284 1.019-.487 0-.934-.089-1.34-.267-.401-.182-.738-.46-1.011-.834h-.082l-.24.964h-.813v-10.637h1.135v2.584c0 .579-.018 1.099-.055 1.559h.055c.528-.748 1.312-1.121 2.351-1.121zm-.164.95c-.774 0-1.333.223-1.675.67-.341.442-.512 1.189-.512 2.242s.175 1.807.526 2.263c.351.451.914.677 1.689.677.697 0 1.216-.253 1.558-.759.342-.511.513-1.242.513-2.195 0-.975-.171-1.702-.513-2.18-.342-.479-.87-.718-1.586-.718zm12.448 6.665h-1.162v-8.962h-3.165v-1.032h7.492v1.032h-3.165zm5.789 0h-1.134v-7.492h1.134zm-1.23-9.522c0-.26.064-.449.191-.568.128-.123.287-.184.479-.184.182 0 .339.061.472.184.132.123.198.312.198.568 0 .255-.066.446-.198.574-.133.123-.29.184-.472.184-.192 0-.351-.061-.479-.184-.127-.128-.191-.319-.191-.574zm6.207 8.722c.2 0 .394-.013.581-.041.186-.032.335-.064.444-.096v.869c-.123.059-.305.107-.547.143-.237.041-.451.062-.643.062-1.449 0-2.173-.764-2.173-2.29v-4.457h-1.074v-.547l1.074-.472.478-1.6h.656v1.737h2.174v.882h-2.174v4.409c0 .451.108.797.322 1.039.214.241.508.362.882.362zm3.814.8h-1.135v-10.637h1.135zm5.721.137c-1.108 0-1.983-.338-2.625-1.012-.638-.674-.957-1.611-.957-2.81 0-1.207.296-2.167.889-2.877.597-.711 1.396-1.067 2.399-1.067.939 0 1.682.31 2.228.93.547.615.821 1.428.821 2.44v.718h-5.161c.022.88.243 1.547.663 2.003.424.456 1.018.684 1.784.684.807 0 1.604-.169 2.392-.506v1.011c-.401.174-.781.297-1.141.37-.356.077-.786.116-1.292.116zm-.308-6.816c-.601 0-1.082.196-1.442.588-.356.392-.565.934-.629 1.627h3.917c0-.715-.16-1.262-.479-1.64-.319-.383-.774-.575-1.367-.575z"/></g><path d="m590.5 165h140v1h-140z" fill="#6a6e79"/></g></svg>