<svg fill="none" height="482" viewBox="0 0 960 482" width="960" xmlns="http://www.w3.org/2000/svg" xmlns:xlink="http://www.w3.org/1999/xlink"><filter id="a" color-interpolation-filters="sRGB" filterUnits="userSpaceOnUse" height="70" width="418" x="30.5" y="94"><feFlood flood-opacity="0" result="BackgroundImageFix"/><feColorMatrix in="SourceAlpha" result="hardAlpha" type="matrix" values="0 0 0 0 0 0 0 0 0 0 0 0 0 0 0 0 0 0 127 0"/><feOffset dy="1"/><feGaussianBlur stdDeviation="1.5"/><feColorMatrix type="matrix" values="0 0 0 0 0 0 0 0 0 0 0 0 0 0 0 0 0 0 0.2 0"/><feBlend in2="BackgroundImageFix" mode="normal" result="effect1_dropShadow_296_60704"/><feColorMatrix in="SourceAlpha" result="hardAlpha" type="matrix" values="0 0 0 0 0 0 0 0 0 0 0 0 0 0 0 0 0 0 127 0"/><feOffset dy="2"/><feGaussianBlur stdDeviation=".5"/><feColorMatrix type="matrix" values="0 0 0 0 0 0 0 0 0 0 0 0 0 0 0 0 0 0 0.12 0"/><feBlend in2="effect1_dropShadow_296_60704" mode="normal" result="effect2_dropShadow_296_60704"/><feColorMatrix in="SourceAlpha" result="hardAlpha" type="matrix" values="0 0 0 0 0 0 0 0 0 0 0 0 0 0 0 0 0 0 127 0"/><feOffset dy="1"/><feGaussianBlur stdDeviation=".5"/><feColorMatrix type="matrix" values="0 0 0 0 0 0 0 0 0 0 0 0 0 0 0 0 0 0 0.14 0"/><feBlend in2="effect2_dropShadow_296_60704" mode="normal" result="effect3_dropShadow_296_60704"/><feBlend in="SourceGraphic" in2="effect3_dropShadow_296_60704" mode="normal" result="shape"/></filter><filter id="b" color-interpolation-filters="sRGB" filterUnits="userSpaceOnUse" height="70" width="418" x="511.5" y="94"><feFlood flood-opacity="0" result="BackgroundImageFix"/><feColorMatrix in="SourceAlpha" result="hardAlpha" type="matrix" values="0 0 0 0 0 0 0 0 0 0 0 0 0 0 0 0 0 0 127 0"/><feOffset dy="1"/><feGaussianBlur stdDeviation="1.5"/><feColorMatrix type="matrix" values="0 0 0 0 0 0 0 0 0 0 0 0 0 0 0 0 0 0 0.2 0"/><feBlend in2="BackgroundImageFix" mode="normal" result="effect1_dropShadow_296_60704"/><feColorMatrix in="SourceAlpha" result="hardAlpha" type="matrix" values="0 0 0 0 0 0 0 0 0 0 0 0 0 0 0 0 0 0 127 0"/><feOffset dy="2"/><feGaussianBlur stdDeviation=".5"/><feColorMatrix type="matrix" values="0 0 0 0 0 0 0 0 0 0 0 0 0 0 0 0 0 0 0.12 0"/><feBlend in2="effect1_dropShadow_296_60704" mode="normal" result="effect2_dropShadow_296_60704"/><feColorMatrix in="SourceAlpha" result="hardAlpha" type="matrix" values="0 0 0 0 0 0 0 0 0 0 0 0 0 0 0 0 0 0 127 0"/><feOffset dy="1"/><feGaussianBlur stdDeviation=".5"/><feColorMatrix type="matrix" values="0 0 0 0 0 0 0 0 0 0 0 0 0 0 0 0 0 0 0.14 0"/><feBlend in2="effect2_dropShadow_296_60704" mode="normal" result="effect3_dropShadow_296_60704"/><feBlend in="SourceGraphic" in2="effect3_dropShadow_296_60704" mode="normal" result="shape"/></filter><filter id="c" color-interpolation-filters="sRGB" filterUnits="userSpaceOnUse" height="70" width="418" x="30.5" y="320"><feFlood flood-opacity="0" result="BackgroundImageFix"/><feColorMatrix in="SourceAlpha" result="hardAlpha" type="matrix" values="0 0 0 0 0 0 0 0 0 0 0 0 0 0 0 0 0 0 127 0"/><feOffset dy="1"/><feGaussianBlur stdDeviation="1.5"/><feColorMatrix type="matrix" values="0 0 0 0 0 0 0 0 0 0 0 0 0 0 0 0 0 0 0.2 0"/><feBlend in2="BackgroundImageFix" mode="normal" result="effect1_dropShadow_296_60704"/><feColorMatrix in="SourceAlpha" result="hardAlpha" type="matrix" values="0 0 0 0 0 0 0 0 0 0 0 0 0 0 0 0 0 0 127 0"/><feOffset dy="2"/><feGaussianBlur stdDeviation=".5"/><feColorMatrix type="matrix" values="0 0 0 0 0 0 0 0 0 0 0 0 0 0 0 0 0 0 0.12 0"/><feBlend in2="effect1_dropShadow_296_60704" mode="normal" result="effect2_dropShadow_296_60704"/><feColorMatrix in="SourceAlpha" result="hardAlpha" type="matrix" values="0 0 0 0 0 0 0 0 0 0 0 0 0 0 0 0 0 0 127 0"/><feOffset dy="1"/><feGaussianBlur stdDeviation=".5"/><feColorMatrix type="matrix" values="0 0 0 0 0 0 0 0 0 0 0 0 0 0 0 0 0 0 0.14 0"/><feBlend in2="effect2_dropShadow_296_60704" mode="normal" result="effect3_dropShadow_296_60704"/><feBlend in="SourceGraphic" in2="effect3_dropShadow_296_60704" mode="normal" result="shape"/></filter><filter id="d" color-interpolation-filters="sRGB" filterUnits="userSpaceOnUse" height="132" width="418" x="511.5" y="289"><feFlood flood-opacity="0" result="BackgroundImageFix"/><feColorMatrix in="SourceAlpha" result="hardAlpha" type="matrix" values="0 0 0 0 0 0 0 0 0 0 0 0 0 0 0 0 0 0 127 0"/><feOffset dy="1"/><feGaussianBlur stdDeviation="1.5"/><feColorMatrix type="matrix" values="0 0 0 0 0 0 0 0 0 0 0 0 0 0 0 0 0 0 0.2 0"/><feBlend in2="BackgroundImageFix" mode="normal" result="effect1_dropShadow_296_60704"/><feColorMatrix in="SourceAlpha" result="hardAlpha" type="matrix" values="0 0 0 0 0 0 0 0 0 0 0 0 0 0 0 0 0 0 127 0"/><feOffset dy="2"/><feGaussianBlur stdDeviation=".5"/><feColorMatrix type="matrix" values="0 0 0 0 0 0 0 0 0 0 0 0 0 0 0 0 0 0 0.12 0"/><feBlend in2="effect1_dropShadow_296_60704" mode="normal" result="effect2_dropShadow_296_60704"/><feColorMatrix in="SourceAlpha" result="hardAlpha" type="matrix" values="0 0 0 0 0 0 0 0 0 0 0 0 0 0 0 0 0 0 127 0"/><feOffset dy="1"/><feGaussianBlur stdDeviation=".5"/><feColorMatrix type="matrix" values="0 0 0 0 0 0 0 0 0 0 0 0 0 0 0 0 0 0 0.14 0"/><feBlend in2="effect2_dropShadow_296_60704" mode="normal" result="effect3_dropShadow_296_60704"/><feBlend in="SourceGraphic" in2="effect3_dropShadow_296_60704" mode="normal" result="shape"/></filter><clipPath id="e"><path d="m405.5 116h24v24h-24z"/></clipPath><clipPath id="f"><path d="m530.5 116h24v24h-24z"/></clipPath><clipPath id="g"><path d="m886.5 116h24v24h-24z"/></clipPath><clipPath id="h"><path d="m405.5 342h24v24h-24z"/></clipPath><clipPath id="i"><path d="m530.5 311h24v24h-24z"/></clipPath><clipPath id="j"><path d="m886.5 311h24v24h-24z"/></clipPath><path d="m0 16h479v224h-479z" fill="#252a2e"/><g filter="url(#a)"><path d="m0 0h412v64h-412z" fill="#171c1e" transform="translate(33.5 96)"/><path d="m53.5 134h16c.55 0 1-.45 1-1s-.45-1-1-1h-16c-.55 0-1 .45-1 1s.45 1 1 1zm0-5h16c.55 0 1-.45 1-1s-.45-1-1-1h-16c-.55 0-1 .45-1 1s.45 1 1 1zm-1-6c0 .55.45 1 1 1h16c.55 0 1-.45 1-1s-.45-1-1-1h-16c-.55 0-1 .45-1 1z" fill="#fff"/><path d="m224.826 136h-2.353v-12.285h-4.18v-1.992h10.703v1.992h-4.17zm8.568-10.811v10.811h-2.295v-10.811zm-1.133-4.14c.352 0 .655.094.909.283.26.189.39.514.39.977 0 .455-.13.781-.39.976-.254.189-.557.283-.909.283-.364 0-.674-.094-.927-.283-.248-.195-.372-.521-.372-.976 0-.463.124-.788.372-.977.253-.189.563-.283.927-.283zm8.598 13.291c.299 0 .595-.026.888-.078.293-.059.56-.127.801-.205v1.738c-.254.111-.583.205-.986.283-.404.078-.824.117-1.26.117-.612 0-1.162-.101-1.65-.302-.489-.209-.876-.564-1.163-1.065-.286-.501-.429-1.195-.429-2.08v-5.81h-1.475v-1.026l1.582-.81.752-2.315h1.445v2.402h3.096v1.749h-3.096v5.781c0 .547.137.954.411 1.22.273.267.634.401 1.084.401zm6.341 1.66h-2.305v-15.195h2.305zm7.738-11.016c.963 0 1.79.199 2.48.596s1.221.96 1.592 1.69c.371.729.557 1.601.557 2.617v1.23h-7.217c.026 1.048.306 1.856.84 2.422.54.566 1.295.85 2.265.85.691 0 1.309-.065 1.856-.196.553-.136 1.123-.335 1.709-.595v1.865c-.54.254-1.091.439-1.65.557-.56.117-1.231.175-2.012.175-1.061 0-1.996-.205-2.803-.615-.801-.417-1.429-1.035-1.885-1.855-.449-.821-.674-1.84-.674-3.057 0-1.211.206-2.24.616-3.086s.986-1.491 1.728-1.934c.742-.442 1.608-.664 2.598-.664zm0 1.729c-.723 0-1.309.234-1.758.703-.443.469-.703 1.156-.781 2.061h4.922c-.007-.541-.098-1.019-.274-1.436-.169-.417-.429-.742-.781-.977-.345-.234-.788-.351-1.328-.351z" fill="#fff"/><g clip-path="url(#e)"><path d="m417.5 118c-5.52 0-10 4.48-10 10s4.48 10 10 10 10-4.48 10-10-4.48-10-10-10zm0 4c2.07 0 3.75 1.68 3.75 3.75s-1.68 3.75-3.75 3.75-3.75-1.68-3.75-3.75 1.68-3.75 3.75-3.75zm0 14c-2.84 0-5.34-1.5-6.76-3.74.13-.07.27-.14.43-.21 1.22-.56 3.47-1.37 6.33-1.37 2.87 0 5.12.81 6.33 1.37.16.07.3.15.43.22-1.42 2.24-3.91 3.73-6.76 3.73z" fill="#fff"/></g></g><path d="m36.8457 37.2012c-.9414 0-1.6855.3144-2.2324.9433-.543.625-.8145 1.4825-.8145 2.5723 0 1.1211.2617 1.9883.7852 2.6016.5273.6093 1.2773.914 2.25.914.5976 0 1.2793-.1074 2.0449-.3222v.873c-.5937.2227-1.3262.334-2.1973.334-1.2617 0-2.2363-.3828-2.9238-1.1484-.6836-.7657-1.0254-1.8536-1.0254-3.2637 0-.8828.1641-1.6563.4922-2.3203.332-.6641.8086-1.1758 1.4297-1.5352.625-.3594 1.3594-.5391 2.2031-.5391.8985 0 1.6836.1641 2.3555.4922l-.4219.8555c-.6484-.3047-1.2969-.457-1.9453-.457zm6.9688 7.916c-.9493 0-1.6993-.2891-2.25-.8672-.5469-.5781-.8204-1.3809-.8204-2.4082 0-1.0352.2539-1.8574.7618-2.4668.5117-.6094 1.1972-.9141 2.0566-.9141.8047 0 1.4414.2657 1.9102.7969.4687.5274.7031 1.2246.7031 2.0918v.6152h-4.4238c.0195.754.2089 1.3262.5683 1.7168.3633.3907.8731.586 1.5293.586.6914 0 1.375-.1446 2.0508-.4336v.8672c-.3438.1484-.6699.2539-.9785.3164-.3047.0664-.6739.0996-1.1074.0996zm-.2637-5.8418c-.5156 0-.9278.168-1.2363.5039-.3047.3359-.4844.8008-.5391 1.3945h3.3574c0-.6133-.1367-1.082-.4101-1.4062-.2735-.3281-.6641-.4922-1.1719-.4922zm9.1836 5.7246v-4.1543c0-.5234-.1192-.9141-.3574-1.1719-.2383-.2578-.6114-.3867-1.1192-.3867-.6719 0-1.164.1817-1.4766.5449-.3124.3633-.4687.9629-.4687 1.7989v3.3691h-.9727v-6.4219h.7911l.1582.8789h.0468c.1993-.3164.4786-.5605.8379-.7324.3594-.1758.7598-.2637 1.2012-.2637.7734 0 1.3555.1875 1.7461.5625.3906.3711.5859.9668.5859 1.7871v4.1895zm5.5508-.6855c.1718 0 .3378-.0118.498-.0352.1602-.0273.2871-.0547.3809-.082v.7441c-.1055.0508-.2618.0918-.4688.1231-.2031.0351-.3867.0527-.5508.0527-1.2422 0-1.8633-.6543-1.8633-1.9629v-3.8203h-.9199v-.4688l.9199-.4043.4102-1.3711h.5625v1.4883h1.8633v.7559h-1.8633v3.7793c0 .3867.0918.6836.2754.8906s.4355.3106.7559.3106zm5.3808.8027c-.9492 0-1.6992-.2891-2.25-.8672-.5469-.5781-.8203-1.3809-.8203-2.4082 0-1.0352.2539-1.8574.7617-2.4668.5117-.6094 1.1973-.9141 2.0567-.9141.8047 0 1.4414.2657 1.9101.7969.4688.5274.7031 1.2246.7031 2.0918v.6152h-4.4238c.0195.754.209 1.3262.5684 1.7168.3633.3907.873.586 1.5293.586.6914 0 1.375-.1446 2.0508-.4336v.8672c-.3438.1484-.67.2539-.9786.3164-.3046.0664-.6738.0996-1.1074.0996zm-.2637-5.8418c-.5156 0-.9277.168-1.2363.5039-.3047.3359-.4844.8008-.539 1.3945h3.3574c0-.6133-.1367-1.082-.4102-1.4062-.2734-.3281-.664-.4922-1.1719-.4922zm7.7188-.8145c.2851 0 .541.0235.7676.0703l-.1348.9024c-.2656-.0586-.5-.0879-.7031-.0879-.5196 0-.9649.2109-1.336.6328-.3671.4219-.5507.9473-.5507 1.5762v3.4453h-.9727v-6.4219h.8027l.1114 1.1895h.0468c.2383-.418.5254-.7403.8614-.9668.3359-.2266.7051-.3399 1.1074-.3399zm11.6172 6.5391-1.0664-2.7246h-3.4336l-1.0547 2.7246h-1.0078l3.3867-8.6016h.8379l3.3691 8.6016zm-1.377-3.6211-.9961-2.6543c-.1289-.3359-.2617-.748-.3984-1.2363-.0859.375-.209.7871-.3691 1.2363l-1.0079 2.6543zm4.9121 3.6211h-.9726v-9.1172h.9726zm3.5352 0h-.9727v-6.4219h.9727zm-1.0547-8.1621c0-.2227.0547-.3848.1641-.4863.1093-.1055.2461-.1582.4101-.1582.1563 0 .291.0527.4043.1582.1133.1054.1699.2675.1699.4863 0 .2187-.0566.3828-.1699.4922-.1133.1054-.248.1582-.4043.1582-.164 0-.3008-.0528-.4101-.1582-.1094-.1094-.1641-.2735-.1641-.4922zm8.8731 1.7402v.6153l-1.1895.1406c.1094.1367.207.3164.293.539.0859.2188.1289.4668.1289.7442 0 .6289-.2149 1.1308-.6446 1.5058-.4296.375-1.0195.5625-1.7695.5625-.1914 0-.3711-.0156-.5391-.0468-.414.2187-.621.4941-.621.8261 0 .1758.0722.3067.2168.3926.1445.0821.3925.1231.7441.1231h1.1367c.6953 0 1.2285.1465 1.5996.4394.375.293.5625.7188.5625 1.2774 0 .7109-.2851 1.2519-.8554 1.623-.5704.375-1.4024.5625-2.4961.5625-.8399 0-1.4883-.1562-1.9454-.4687-.4531-.3125-.6796-.7539-.6796-1.3243 0-.3906.125-.7285.375-1.0136.25-.2852.6015-.4785 1.0546-.5801-.164-.0742-.3027-.1895-.416-.3457-.1093-.1563-.164-.3379-.164-.5449 0-.2344.0625-.4395.1875-.6153.125-.1757.3222-.3457.5918-.5097-.3321-.1367-.6035-.3692-.8145-.6973-.207-.3281-.3105-.7031-.3105-1.125 0-.7031.2109-1.2441.6328-1.623.4219-.3829 1.0195-.5743 1.7929-.5743.336 0 .6387.0391.9082.1172zm-5.1211 7.5c0 .3477.1464.6114.4394.791.293.1797.7129.2696 1.2598.2696.8164 0 1.4199-.1231 1.8105-.3692.3946-.2422.5918-.5722.5918-.9902 0-.3477-.1074-.5898-.3222-.7266-.2149-.1328-.6192-.1992-1.2129-.1992h-1.1661c-.4414 0-.7851.1055-1.0312.3164-.2461.211-.3691.5137-.3691.9082zm.5273-5.4433c0 .4492.127.789.3809 1.0195s.6074.3457 1.0605.3457c.9492 0 1.4238-.4609 1.4238-1.3828 0-.9649-.4804-1.4473-1.4414-1.4473-.457 0-.8086.1231-1.0547.3692s-.3691.6113-.3691 1.0957zm10.8068 4.3652v-4.1543c0-.5234-.119-.9141-.358-1.1719-.238-.2578-.611-.3867-1.119-.3867-.672 0-1.164.1817-1.476.5449-.313.3633-.469.9629-.469 1.7989v3.3691h-.9727v-6.4219h.7907l.159.8789h.046c.2-.3164.479-.5605.838-.7324.36-.1758.76-.2637 1.201-.2637.774 0 1.356.1875 1.747.5625.39.3711.585.9668.585 1.7871v4.1895zm6.189.1172c-.949 0-1.699-.2891-2.25-.8672-.547-.5781-.82-1.3809-.82-2.4082 0-1.0352.254-1.8574.762-2.4668.511-.6094 1.197-.9141 2.056-.9141.805 0 1.442.2657 1.911.7969.468.5274.703 1.2246.703 2.0918v.6152h-4.424c.019.754.209 1.3262.568 1.7168.363.3907.873.586 1.529.586.692 0 1.375-.1446 2.051-.4336v.8672c-.344.1484-.67.2539-.978.3164-.305.0664-.674.0996-1.108.0996zm-.263-5.8418c-.516 0-.928.168-1.237.5039-.304.3359-.484.8008-.539 1.3945h3.358c0-.6133-.137-1.082-.41-1.4062-.274-.3281-.665-.4922-1.172-.4922zm9.16 4.8633h-.053c-.449.6523-1.121.9785-2.016.9785-.839 0-1.494-.2871-1.962-.8613-.465-.5743-.698-1.3907-.698-2.4493s.235-1.8808.703-2.4668c.469-.5859 1.121-.8789 1.957-.8789.872 0 1.539.3164 2.004.9493h.077l-.042-.4629-.023-.4512v-2.6133h.973v9.1172h-.791zm-1.946.164c.665 0 1.145-.1797 1.442-.539.301-.3633.451-.9473.451-1.752v-.2051c0-.9101-.152-1.5586-.457-1.9453-.301-.3906-.783-.5859-1.447-.5859-.571 0-1.008.2226-1.313.668-.301.4414-.451 1.0664-.451 1.875 0 .8203.15 1.4394.451 1.8574s.742.6269 1.324.6269zm15.889.6973h-1.137l-4.681-7.1895h-.047c.062.8438.094 1.6172.094 2.3204v4.8691h-.92v-8.5664h1.125l4.67 7.1602h.047c-.008-.1055-.026-.4434-.053-1.0137-.028-.5742-.037-.9844-.029-1.2305v-4.916h.931zm6.658 0-.193-.9141h-.047c-.32.4024-.641.6758-.961.8203-.316.1407-.713.211-1.189.211-.637 0-1.137-.1641-1.5-.4922-.36-.3281-.539-.7949-.539-1.4004 0-1.2969 1.037-1.9766 3.111-2.0391l1.09-.0351v-.3984c0-.504-.11-.875-.328-1.1133-.215-.2422-.561-.3633-1.037-.3633-.536 0-1.141.1641-1.817.4922l-.299-.7442c.317-.1718.662-.3066 1.037-.4043.379-.0976.758-.1464 1.137-.1464.766 0 1.332.1699 1.699.5097.371.3399.557.8848.557 1.6348v4.3828zm-2.197-.6855c.606 0 1.08-.1661 1.424-.4981.348-.332.521-.7969.521-1.3945v-.5801l-.972.041c-.774.0274-1.332.1484-1.676.3633-.34.2109-.51.541-.51.9902 0 .3516.106.6192.317.8028.214.1836.513.2754.896.2754zm6.834.6855-2.437-6.4219h1.043l1.382 3.8086c.313.8906.496 1.4688.551 1.7344h.047c.043-.207.178-.6348.404-1.2832.231-.6524.744-2.0723 1.541-4.2598h1.043l-2.437 6.4219zm8.869-8.5664h2.42c1.137 0 1.959.1699 2.467.5098.508.3398.762.8769.762 1.6113 0 .5078-.143.9277-.428 1.2598-.281.3281-.693.541-1.236.6386v.0586c1.3.2227 1.951.9063 1.951 2.0508 0 .7656-.26 1.3633-.78 1.793-.515.4297-1.238.6445-2.168.6445h-2.988zm.996 3.668h1.641c.703 0 1.209-.1094 1.518-.3282.308-.2226.462-.5957.462-1.1191 0-.4805-.171-.8262-.515-1.0371-.344-.2149-.891-.3223-1.641-.3223h-1.465zm0 .8437v3.2051h1.787c.692 0 1.211-.1328 1.559-.3984.352-.2696.527-.6895.527-1.2598 0-.5313-.179-.9219-.539-1.1719-.355-.25-.898-.375-1.629-.375zm11.088 4.0547-.193-.9141h-.047c-.32.4024-.641.6758-.961.8203-.316.1407-.713.211-1.189.211-.637 0-1.137-.1641-1.5-.4922-.36-.3281-.539-.7949-.539-1.4004 0-1.2969 1.037-1.9766 3.111-2.0391l1.09-.0351v-.3984c0-.504-.11-.875-.328-1.1133-.215-.2422-.561-.3633-1.038-.3633-.535 0-1.14.1641-1.816.4922l-.299-.7442c.317-.1718.662-.3066 1.037-.4043.379-.0976.758-.1464 1.137-.1464.766 0 1.332.1699 1.699.5097.371.3399.557.8848.557 1.6348v4.3828zm-2.197-.6855c.605 0 1.08-.1661 1.424-.4981.347-.332.521-.7969.521-1.3945v-.5801l-.972.041c-.774.0274-1.332.1484-1.676.3633-.34.2109-.51.541-.51.9902 0 .3516.105.6192.316.8028.215.1836.514.2754.897.2754zm8.357-5.8536c.285 0 .541.0235.768.0703l-.135.9024c-.265-.0586-.5-.0879-.703-.0879-.519 0-.965.2109-1.336.6328-.367.4219-.551.9473-.551 1.5762v3.4453h-.972v-6.4219h.802l.112 1.1895h.047c.238-.418.525-.7403.861-.9668.336-.2266.705-.3399 1.107-.3399z" fill="#fff"/><path d="m481 16h479v224h-479z" fill="#252a2e"/><g filter="url(#b)"><path d="m0 0h412v64h-412z" fill="#171c1e" transform="translate(514.5 96)"/><g clip-path="url(#f)"><path d="m550.5 127h-12.17l5.59-5.59-1.42-1.41-8 8 8 8 1.41-1.41-5.58-5.59h12.17z" fill="#fff"/></g><g fill="#fff"><path d="m581.326 136h-2.353v-12.285h-4.18v-1.992h10.703v1.992h-4.17zm8.568-10.811v10.811h-2.295v-10.811zm-1.133-4.14c.352 0 .655.094.909.283.26.189.39.514.39.977 0 .455-.13.781-.39.976-.254.189-.557.283-.909.283-.364 0-.674-.094-.927-.283-.248-.195-.372-.521-.372-.976 0-.463.124-.788.372-.977.253-.189.563-.283.927-.283zm8.598 13.291c.299 0 .595-.026.888-.078.293-.059.56-.127.801-.205v1.738c-.254.111-.583.205-.986.283-.404.078-.824.117-1.26.117-.612 0-1.162-.101-1.65-.302-.489-.209-.876-.564-1.163-1.065-.286-.501-.429-1.195-.429-2.08v-5.81h-1.475v-1.026l1.582-.81.752-2.315h1.445v2.402h3.096v1.749h-3.096v5.781c0 .547.137.954.411 1.22.273.267.634.401 1.084.401zm6.341 1.66h-2.305v-15.195h2.305zm7.738-11.016c.963 0 1.79.199 2.48.596s1.221.96 1.592 1.69c.371.729.557 1.601.557 2.617v1.23h-7.217c.026 1.048.306 1.856.84 2.422.54.566 1.295.85 2.265.85.691 0 1.309-.065 1.856-.196.553-.136 1.123-.335 1.709-.595v1.865c-.54.254-1.091.439-1.65.557-.56.117-1.231.175-2.012.175-1.061 0-1.996-.205-2.803-.615-.801-.417-1.429-1.035-1.885-1.855-.449-.821-.674-1.84-.674-3.057 0-1.211.206-2.24.616-3.086s.986-1.491 1.728-1.934c.742-.442 1.608-.664 2.598-.664zm0 1.729c-.723 0-1.309.234-1.758.703-.443.469-.703 1.156-.781 2.061h4.922c-.007-.541-.098-1.019-.274-1.436-.169-.417-.429-.742-.781-.977-.345-.234-.788-.351-1.328-.351z"/><path d="m802.5 138c1.1 0 2-.9 2-2h-4c0 1.1.89 2 2 2zm6-6v-5c0-3.07-1.64-5.64-4.5-6.32v-.68c0-.83-.67-1.5-1.5-1.5s-1.5.67-1.5 1.5v.68c-2.87.68-4.5 3.24-4.5 6.32v5l-2 2v1h16v-1z"/><path d="m858.5 119h-2c0-.55-.45-1-1-1s-1 .45-1 1h-8c0-.55-.45-1-1-1s-1 .45-1 1h-2c-1.1 0-2 .9-2 2v15c0 1.1.9 2 2 2h16c1.1 0 2-.9 2-2v-15c0-1.1-.9-2-2-2zm-11 11h-3v-3h3zm4.5 0h-3v-3h3zm4.5 0h-3v-3h3zm2-6.71c0 .39-.32.71-.71.71h-14.58c-.39 0-.71-.32-.71-.71v-1.59c0-.39.32-.71.71-.71h1.29v1.01c0 .55.45 1 1 1s1-.45 1-1v-1l8-.01v1.01c0 .55.45 1 1 1s1-.45 1-1v-1l1.29-.01c.39 0 .71.32.71.71z"/></g><g clip-path="url(#g)"><path d="m897.09 126.59c-.78.78-.78 2.05 0 2.83s2.05.78 2.83 0 .78-2.05 0-2.83-2.05-.78-2.83 0zm0-7c-.78.78-.78 2.05 0 2.83s2.05.78 2.83 0 .78-2.05 0-2.83-2.05-.78-2.83 0zm0 14c-.78.78-.78 2.05 0 2.83s2.05.78 2.83 0 .78-2.05 0-2.83-2.05-.78-2.83 0z" fill="#fff"/></g></g><path d="m520.869 45h-1.137l-4.681-7.1895h-.047c.062.8438.094 1.6172.094 2.3204v4.8691h-.92v-8.5664h1.125l4.67 7.1602h.047c-.008-.1055-.026-.4434-.053-1.0137-.028-.5742-.037-.9844-.029-1.2305v-4.916h.931zm6.658 0-.193-.9141h-.047c-.32.4024-.641.6758-.961.8203-.316.1407-.713.211-1.189.211-.637 0-1.137-.1641-1.5-.4922-.36-.3281-.539-.7949-.539-1.4004 0-1.2969 1.037-1.9766 3.111-2.0391l1.09-.0351v-.3984c0-.504-.11-.875-.328-1.1133-.215-.2422-.561-.3633-1.037-.3633-.536 0-1.141.1641-1.817.4922l-.299-.7442c.317-.1718.662-.3066 1.037-.4043.379-.0976.758-.1464 1.137-.1464.766 0 1.332.1699 1.699.5097.371.3399.557.8848.557 1.6348v4.3828zm-2.197-.6855c.606 0 1.08-.1661 1.424-.4981.348-.332.521-.7969.521-1.3945v-.5801l-.972.041c-.774.0274-1.332.1484-1.676.3633-.34.2109-.51.541-.51.9902 0 .3516.106.6192.317.8028.214.1836.513.2754.896.2754zm6.834.6855-2.437-6.4219h1.043l1.382 3.8086c.313.8906.496 1.4688.551 1.7344h.047c.043-.207.178-.6348.404-1.2832.231-.6524.744-2.0723 1.541-4.2598h1.043l-2.437 6.4219zm8.869-8.5664h2.42c1.137 0 1.959.1699 2.467.5098.508.3398.762.8769.762 1.6113 0 .5078-.143.9277-.428 1.2598-.281.3281-.693.541-1.236.6386v.0586c1.3.2227 1.951.9063 1.951 2.0508 0 .7656-.26 1.3633-.78 1.793-.515.4297-1.238.6445-2.168.6445h-2.988zm.996 3.668h1.641c.703 0 1.209-.1094 1.518-.3282.308-.2226.462-.5957.462-1.1191 0-.4805-.171-.8262-.515-1.0371-.344-.2149-.891-.3223-1.641-.3223h-1.465zm0 .8437v3.2051h1.787c.692 0 1.211-.1328 1.559-.3984.352-.2696.527-.6895.527-1.2598 0-.5313-.179-.9219-.539-1.1719-.355-.25-.898-.375-1.629-.375zm11.088 4.0547-.193-.9141h-.047c-.32.4024-.641.6758-.961.8203-.316.1407-.713.211-1.189.211-.637 0-1.137-.1641-1.5-.4922-.36-.3281-.539-.7949-.539-1.4004 0-1.2969 1.037-1.9766 3.111-2.0391l1.09-.0351v-.3984c0-.504-.11-.875-.328-1.1133-.215-.2422-.561-.3633-1.038-.3633-.535 0-1.14.1641-1.816.4922l-.299-.7442c.317-.1718.662-.3066 1.037-.4043.379-.0976.758-.1464 1.137-.1464.766 0 1.332.1699 1.699.5097.371.3399.557.8848.557 1.6348v4.3828zm-2.197-.6855c.605 0 1.08-.1661 1.424-.4981.347-.332.521-.7969.521-1.3945v-.5801l-.972.041c-.774.0274-1.332.1484-1.676.3633-.34.2109-.51.541-.51.9902 0 .3516.105.6192.316.8028.215.1836.514.2754.897.2754zm8.357-5.8536c.285 0 .541.0235.768.0703l-.135.9024c-.265-.0586-.5-.0879-.703-.0879-.519 0-.965.2109-1.336.6328-.367.4219-.551.9473-.551 1.5762v3.4453h-.972v-6.4219h.802l.112 1.1895h.047c.238-.418.525-.7403.861-.9668.336-.2266.705-.3399 1.107-.3399zm11.33 6.5391-1.177-3.7676c-.075-.2304-.213-.7539-.416-1.5703h-.047c-.156.6836-.293 1.2109-.41 1.582l-1.213 3.7559h-1.125l-1.752-6.4219h1.019c.414 1.6133.729 2.8418.944 3.6856.218.8437.343 1.4121.375 1.7051h.047c.043-.2227.111-.5098.205-.8614.097-.3554.181-.6367.252-.8437l1.177-3.6856h1.055l1.148 3.6856c.219.6718.368 1.2363.446 1.6933h.047c.015-.1406.056-.3574.123-.6504.07-.2929.478-1.8691 1.224-4.7285h1.008l-1.775 6.4219zm5.569 0h-.973v-6.4219h.973zm-1.055-8.1621c0-.2227.055-.3848.164-.4863.11-.1055.246-.1582.41-.1582.157 0 .291.0527.405.1582.113.1054.17.2675.17.4863 0 .2187-.057.3828-.17.4922-.114.1054-.248.1582-.405.1582-.164 0-.3-.0528-.41-.1582-.109-.1094-.164-.2735-.164-.4922zm5.691 7.4766c.172 0 .338-.0118.499-.0352.16-.0273.287-.0547.38-.082v.7441c-.105.0508-.261.0918-.468.1231-.203.0351-.387.0527-.551.0527-1.242 0-1.863-.6543-1.863-1.9629v-3.8203h-.92v-.4688l.92-.4043.41-1.3711h.562v1.4883h1.864v.7559h-1.864v3.7793c0 .3867.092.6836.276.8906.183.207.435.3106.755.3106zm7.063.6855v-4.1543c0-.5234-.119-.9141-.357-1.1719-.239-.2578-.612-.3867-1.12-.3867-.675 0-1.169.1836-1.482.5508-.309.3672-.463.9687-.463 1.8047v3.3574h-.973v-9.1172h.973v2.7598c0 .332-.015.6074-.047.8262h.059c.191-.3086.463-.5508.814-.7266.356-.1797.76-.2695 1.213-.2695.785 0 1.373.1875 1.764.5625.394.371.592.9628.592 1.7753v4.1895zm7.24 0v-8.5664h.996v7.6641h3.78v.9023zm9.301.1172c-.949 0-1.699-.2891-2.25-.8672-.547-.5781-.82-1.3809-.82-2.4082 0-1.0352.254-1.8574.761-2.4668.512-.6094 1.198-.9141 2.057-.9141.805 0 1.441.2657 1.91.7969.469.5274.703 1.2246.703 2.0918v.6152h-4.423c.019.754.208 1.3262.568 1.7168.363.3907.873.586 1.529.586.692 0 1.375-.1446 2.051-.4336v.8672c-.344.1484-.67.2539-.979.3164-.304.0664-.673.0996-1.107.0996zm-.264-5.8418c-.515 0-.927.168-1.236.5039-.305.3359-.484.8008-.539 1.3945h3.357c0-.6133-.136-1.082-.41-1.4062-.273-.3281-.664-.4922-1.172-.4922zm8.739 5.7246-.194-.9141h-.047c-.32.4024-.64.6758-.961.8203-.316.1407-.712.211-1.189.211-.637 0-1.137-.1641-1.5-.4922-.359-.3281-.539-.7949-.539-1.4004 0-1.2969 1.037-1.9766 3.111-2.0391l1.09-.0351v-.3984c0-.504-.109-.875-.328-1.1133-.215-.2422-.561-.3633-1.037-.3633-.535 0-1.141.1641-1.817.4922l-.298-.7442c.316-.1718.662-.3066 1.037-.4043.379-.0976.758-.1464 1.136-.1464.766 0 1.333.1699 1.7.5097.371.3399.556.8848.556 1.6348v4.3828zm-2.198-.6855c.606 0 1.08-.1661 1.424-.4981.348-.332.522-.7969.522-1.3945v-.5801l-.973.041c-.773.0274-1.332.1484-1.676.3633-.34.2109-.51.541-.51.9902 0 .3516.106.6192.317.8028.215.1836.514.2754.896.2754zm9.799-.1758h-.053c-.449.6523-1.121.9785-2.015.9785-.84 0-1.494-.2871-1.963-.8613-.465-.5743-.697-1.3907-.697-2.4493s.234-1.8808.703-2.4668c.469-.5859 1.121-.8789 1.957-.8789.871 0 1.539.3164 2.004.9493h.076l-.041-.4629-.024-.4512v-2.6133h.973v9.1172h-.791zm-1.945.164c.664 0 1.144-.1797 1.441-.539.301-.3633.451-.9473.451-1.752v-.2051c0-.9101-.152-1.5586-.457-1.9453-.3-.3906-.783-.5859-1.447-.5859-.57 0-1.008.2226-1.312.668-.301.4414-.452 1.0664-.452 1.875 0 .8203.151 1.4394.452 1.8574.3.418.742.6269 1.324.6269zm6.406.6973h-.973v-6.4219h.973zm-1.055-8.1621c0-.2227.055-.3848.164-.4863.11-.1055.247-.1582.411-.1582.156 0 .291.0527.404.1582.113.1054.17.2675.17.4863 0 .2187-.057.3828-.17.4922-.113.1054-.248.1582-.404.1582-.164 0-.301-.0528-.411-.1582-.109-.1094-.164-.2735-.164-.4922zm8.012 8.1621v-4.1543c0-.5234-.119-.9141-.357-1.1719-.239-.2578-.612-.3867-1.119-.3867-.672 0-1.164.1817-1.477.5449-.312.3633-.469.9629-.469 1.7989v3.3691h-.972v-6.4219h.791l.158.8789h.047c.199-.3164.478-.5605.838-.7324.359-.1758.759-.2637 1.201-.2637.773 0 1.355.1875 1.746.5625.391.3711.586.9668.586 1.7871v4.1895zm8.733-6.4219v.6153l-1.19.1406c.109.1367.207.3164.293.539.086.2188.129.4668.129.7442 0 .6289-.215 1.1308-.645 1.5058-.429.375-1.019.5625-1.769.5625-.191 0-.371-.0156-.539-.0468-.414.2187-.621.4941-.621.8261 0 .1758.072.3067.217.3926.144.0821.392.1231.744.1231h1.136c.696 0 1.229.1465 1.6.4394.375.293.563.7188.563 1.2774 0 .7109-.286 1.2519-.856 1.623-.57.375-1.402.5625-2.496.5625-.84 0-1.488-.1562-1.945-.4687-.453-.3125-.68-.7539-.68-1.3243 0-.3906.125-.7285.375-1.0136.25-.2852.602-.4785 1.055-.5801-.164-.0742-.303-.1895-.416-.3457-.11-.1563-.164-.3379-.164-.5449 0-.2344.062-.4395.187-.6153.125-.1757.322-.3457.592-.5097-.332-.1367-.604-.3692-.815-.6973-.207-.3281-.31-.7031-.31-1.125 0-.7031.211-1.2441.633-1.623.422-.3829 1.019-.5743 1.793-.5743.336 0 .638.0391.908.1172zm-5.122 7.5c0 .3477.147.6114.44.791.293.1797.713.2696 1.26.2696.816 0 1.42-.1231 1.81-.3692.395-.2422.592-.5722.592-.9902 0-.3477-.107-.5898-.322-.7266-.215-.1328-.619-.1992-1.213-.1992h-1.166c-.442 0-.785.1055-1.031.3164-.246.211-.37.5137-.37.9082zm.528-5.4433c0 .4492.127.789.381 1.0195s.607.3457 1.06.3457c.949 0 1.424-.4609 1.424-1.3828 0-.9649-.48-1.4473-1.441-1.4473-.457 0-.809.1231-1.055.3692s-.369.6113-.369 1.0957zm13.978 4.3652-.193-.9141h-.047c-.32.4024-.641.6758-.961.8203-.316.1407-.713.211-1.189.211-.637 0-1.137-.1641-1.5-.4922-.36-.3281-.539-.7949-.539-1.4004 0-1.2969 1.037-1.9766 3.111-2.0391l1.09-.0351v-.3984c0-.504-.11-.875-.328-1.1133-.215-.2422-.561-.3633-1.037-.3633-.536 0-1.141.1641-1.817.4922l-.299-.7442c.317-.1718.662-.3066 1.037-.4043.379-.0976.758-.1464 1.137-.1464.766 0 1.332.1699 1.699.5097.371.3399.557.8848.557 1.6348v4.3828zm-2.197-.6855c.606 0 1.08-.1661 1.424-.4981.348-.332.521-.7969.521-1.3945v-.5801l-.972.041c-.774.0274-1.332.1484-1.676.3633-.34.2109-.51.541-.51.9902 0 .3516.106.6192.317.8028.214.1836.513.2754.896.2754zm9.822.6855v-4.1543c0-.5234-.119-.9141-.357-1.1719s-.611-.3867-1.119-.3867c-.672 0-1.164.1817-1.477.5449-.312.3633-.469.9629-.469 1.7989v3.3691h-.972v-6.4219h.791l.158.8789h.047c.199-.3164.478-.5605.838-.7324.359-.1758.76-.2637 1.201-.2637.773 0 1.355.1875 1.746.5625.391.3711.586.9668.586 1.7871v4.1895zm7.848-.8613h-.053c-.449.6523-1.121.9785-2.015.9785-.84 0-1.494-.2871-1.963-.8613-.465-.5743-.698-1.3907-.698-2.4493s.235-1.8808.704-2.4668c.468-.5859 1.121-.8789 1.957-.8789.871 0 1.539.3164 2.004.9493h.076l-.041-.4629-.024-.4512v-2.6133h.973v9.1172h-.791zm-1.945.164c.664 0 1.144-.1797 1.441-.539.301-.3633.451-.9473.451-1.752v-.2051c0-.9101-.152-1.5586-.457-1.9453-.301-.3906-.783-.5859-1.447-.5859-.57 0-1.008.2226-1.313.668-.3.4414-.451 1.0664-.451 1.875 0 .8203.151 1.4394.451 1.8574.301.418.743.6269 1.325.6269zm11.834.6973h-.996v-7.6816h-2.713v-.8848h6.422v.8848h-2.713zm7.291-6.5391c.285 0 .541.0235.767.0703l-.135.9024c-.265-.0586-.5-.0879-.703-.0879-.519 0-.964.2109-1.336.6328-.367.4219-.55.9473-.55 1.5762v3.4453h-.973v-6.4219h.803l.111 1.1895h.047c.238-.418.525-.7403.861-.9668.336-.2266.705-.3399 1.108-.3399zm6.418 6.5391-.194-.9141h-.047c-.32.4024-.64.6758-.961.8203-.316.1407-.712.211-1.189.211-.637 0-1.137-.1641-1.5-.4922-.359-.3281-.539-.7949-.539-1.4004 0-1.2969 1.037-1.9766 3.111-2.0391l1.09-.0351v-.3984c0-.504-.109-.875-.328-1.1133-.215-.2422-.561-.3633-1.037-.3633-.535 0-1.141.1641-1.816.4922l-.299-.7442c.316-.1718.662-.3066 1.037-.4043.379-.0976.758-.1464 1.136-.1464.766 0 1.333.1699 1.7.5097.371.3399.556.8848.556 1.6348v4.3828zm-2.198-.6855c.606 0 1.08-.1661 1.424-.4981.348-.332.522-.7969.522-1.3945v-.5801l-.973.041c-.773.0274-1.332.1484-1.676.3633-.34.2109-.509.541-.509.9902 0 .3516.105.6192.316.8028.215.1836.514.2754.896.2754zm6.401.6855h-.973v-6.4219h.973zm-1.055-8.1621c0-.2227.055-.3848.164-.4863.11-.1055.246-.1582.41-.1582.157 0 .291.0527.405.1582.113.1054.17.2675.17.4863 0 .2187-.057.3828-.17.4922-.114.1054-.248.1582-.405.1582-.164 0-.3-.0528-.41-.1582-.109-.1094-.164-.2735-.164-.4922zm4.59 8.1621h-.973v-9.1172h.973zm3.535 0h-.973v-6.4219h.973zm-1.055-8.1621c0-.2227.055-.3848.164-.4863.11-.1055.247-.1582.411-.1582.156 0 .291.0527.404.1582.113.1054.17.2675.17.4863 0 .2187-.057.3828-.17.4922-.113.1054-.248.1582-.404.1582-.164 0-.301-.0528-.411-.1582-.109-.1094-.164-.2735-.164-.4922zm8.012 8.1621v-4.1543c0-.5234-.119-.9141-.357-1.1719-.239-.2578-.612-.3867-1.119-.3867-.672 0-1.164.1817-1.477.5449-.313.3633-.469.9629-.469 1.7989v3.3691h-.972v-6.4219h.791l.158.8789h.047c.199-.3164.478-.5605.838-.7324.359-.1758.759-.2637 1.201-.2637.773 0 1.355.1875 1.746.5625.39.3711.586.9668.586 1.7871v4.1895zm8.733-6.4219v.6153l-1.19.1406c.109.1367.207.3164.293.539.086.2188.129.4668.129.7442 0 .6289-.215 1.1308-.645 1.5058-.429.375-1.019.5625-1.769.5625-.191 0-.371-.0156-.539-.0468-.414.2187-.621.4941-.621.8261 0 .1758.072.3067.217.3926.144.0821.392.1231.744.1231h1.136c.696 0 1.229.1465 1.6.4394.375.293.563.7188.563 1.2774 0 .7109-.286 1.2519-.856 1.623-.57.375-1.402.5625-2.496.5625-.84 0-1.488-.1562-1.945-.4687-.453-.3125-.68-.7539-.68-1.3243 0-.3906.125-.7285.375-1.0136.25-.2852.602-.4785 1.055-.5801-.164-.0742-.303-.1895-.416-.3457-.11-.1563-.164-.3379-.164-.5449 0-.2344.062-.4395.187-.6153.125-.1757.322-.3457.592-.5097-.332-.1367-.604-.3692-.815-.6973-.207-.3281-.31-.7031-.31-1.125 0-.7031.211-1.2441.633-1.623.422-.3829 1.019-.5743 1.793-.5743.336 0 .638.0391.908.1172zm-5.122 7.5c0 .3477.147.6114.44.791.293.1797.713.2696 1.26.2696.816 0 1.42-.1231 1.81-.3692.395-.2422.592-.5722.592-.9902 0-.3477-.107-.5898-.322-.7266-.215-.1328-.619-.1992-1.213-.1992h-1.166c-.442 0-.785.1055-1.031.3164-.247.211-.37.5137-.37.9082zm.528-5.4433c0 .4492.127.789.381 1.0195s.607.3457 1.06.3457c.949 0 1.424-.4609 1.424-1.3828 0-.9649-.48-1.4473-1.441-1.4473-.457 0-.809.1231-1.055.3692s-.369.6113-.369 1.0957zm10.176 4.3652v-8.5664h.996v8.5664zm6.271.1172c-.93 0-1.65-.2852-2.162-.8555-.508-.5742-.762-1.3847-.762-2.4316 0-1.0742.258-1.9043.774-2.4903.519-.5859 1.257-.8789 2.215-.8789.308 0 .617.0332.925.0996.309.0665.551.1446.727.2344l-.299.8262c-.215-.0859-.449-.1563-.703-.2109-.254-.0586-.479-.0879-.674-.0879-1.305 0-1.957.832-1.957 2.4961 0 .789.158 1.3945.475 1.8164.32.4218.793.6328 1.418.6328.535 0 1.084-.1153 1.646-.3457v.8613c-.43.2227-.971.334-1.623.334zm9.195-3.334c0 1.0469-.263 1.8652-.791 2.4551-.527.5859-1.256.8789-2.185.8789-.574 0-1.084-.1348-1.529-.4043-.446-.2695-.79-.6563-1.032-1.1602s-.363-1.0937-.363-1.7695c0-1.0469.262-1.8613.785-2.4434.524-.5859 1.25-.8789 2.18-.8789.898 0 1.611.2989 2.138.8965.532.5977.797 1.4063.797 2.4258zm-4.892 0c0 .8203.164 1.4453.492 1.875s.811.6445 1.447.6445c.637 0 1.119-.2129 1.448-.6386.332-.4297.498-1.0567.498-1.8809 0-.8164-.166-1.4355-.498-1.8574-.329-.4258-.815-.6387-1.459-.6387-.637 0-1.118.209-1.442.627-.324.4179-.486 1.041-.486 1.8691zm11.498 3.2168v-4.1543c0-.5234-.119-.9141-.358-1.1719-.238-.2578-.611-.3867-1.119-.3867-.672 0-1.164.1817-1.476.5449-.313.3633-.469.9629-.469 1.7989v3.3691h-.973v-6.4219h.791l.159.8789h.046c.2-.3164.479-.5605.838-.7324.36-.1758.76-.2637 1.201-.2637.774 0 1.356.1875 1.747.5625.39.3711.586.9668.586 1.7871v4.1895zm7.619-1.752c0 .5977-.223 1.0586-.668 1.3829-.445.3242-1.07.4863-1.875.4863-.852 0-1.516-.1348-1.992-.4043v-.9024c.308.1563.639.2793.99.3692.356.0898.697.1348 1.025.1348.508 0 .899-.0801 1.172-.2403.274-.164.41-.4121.41-.7441 0-.25-.109-.4629-.328-.6387-.214-.1797-.636-.3906-1.265-.6328-.598-.2227-1.024-.416-1.278-.5801-.25-.168-.437-.3574-.562-.5683-.121-.211-.182-.4629-.182-.7559 0-.5234.213-.9355.639-1.2363.426-.3047 1.01-.4571 1.752-.4571.691 0 1.367.1407 2.027.4219l-.345.791c-.645-.2656-1.229-.3984-1.752-.3984-.461 0-.809.0723-1.043.2168-.235.1445-.352.3437-.352.5976 0 .1719.043.3184.129.4395.09.1211.232.2363.428.3457.195.1094.57.2676 1.125.4746.761.2774 1.275.5566 1.541.8379.269.2813.404.6348.404 1.0605z" fill="#fff"/><path d="m0 242h479v224h-479z" fill="#252a2e"/><g filter="url(#c)"><path d="m0 0h412v64h-412z" fill="#171c1e" transform="translate(33.5 322)"/><g fill="#fff"><path d="m52.3262 362h-2.3535v-12.285h-4.1797v-1.992h10.7031v1.992h-4.1699zm8.5679-10.811v10.811h-2.2949v-10.811zm-1.1328-4.14c.3516 0 .6543.094.9082.283.2604.189.3907.514.3907.977 0 .455-.1303.781-.3907.976-.2539.189-.5566.283-.9082.283-.3646 0-.6738-.094-.9277-.283-.2474-.195-.3711-.521-.3711-.976 0-.463.1237-.788.3711-.977.2539-.189.5631-.283.9277-.283zm8.5973 13.291c.2995 0 .5957-.026.8887-.078.2929-.059.5599-.127.8007-.205v1.738c-.2539.111-.5826.205-.9863.283-.4036.078-.8235.117-1.2597.117-.612 0-1.1622-.101-1.6504-.302-.4883-.209-.8757-.564-1.1621-1.065-.2865-.501-.4297-1.195-.4297-2.08v-5.81h-1.4746v-1.026l1.582-.81.7519-2.315h1.4454v2.402h3.0957v1.749h-3.0957v5.781c0 .547.1367.954.4101 1.22.2734.267.6348.401 1.084.401zm6.3414 1.66h-2.3047v-15.195h2.3047zm7.7379-11.016c.9635 0 1.7904.199 2.4805.596s1.2207.96 1.5918 1.69c.3711.729.5566 1.601.5566 2.617v1.23h-7.2168c.026 1.048.306 1.856.8398 2.422.5404.566 1.2956.85 2.2657.85.6901 0 1.3086-.065 1.8554-.196.5534-.136 1.1231-.335 1.709-.595v1.865c-.5403.254-1.0905.439-1.6504.557-.5599.117-1.2304.175-2.0117.175-1.0612 0-1.9954-.205-2.8027-.615-.8008-.417-1.4291-1.035-1.8848-1.855-.4492-.821-.6738-1.84-.6738-3.057 0-1.211.2051-2.24.6152-3.086.4102-.846.9863-1.491 1.7285-1.934.7422-.442 1.6081-.664 2.5977-.664zm0 1.729c-.7227 0-1.3086.234-1.7578.703-.4427.469-.7031 1.156-.7813 2.061h4.9219c-.0065-.541-.0977-1.019-.2734-1.436-.1693-.417-.4297-.742-.7813-.977-.345-.234-.7877-.351-1.3281-.351z"/><path d="m325.88 356.92-.66.05-.41-.41c2.44-2.81 2.28-7.1-.5-9.7s-7.01-2.46-9.64.08c-2.82 2.73-2.85 7.22-.08 9.98 2.61 2.61 6.77 2.72 9.52.34l.41.41-.05.65 3.89 3.89c.39.39 1.02.39 1.41 0s.39-1.02 0-1.41l-3.88-3.88zm-2.81-1.41c-1.95 1.95-5.13 1.95-7.08 0s-1.95-5.13 0-7.08 5.13-1.95 7.08 0 1.95 5.13 0 7.08z"/><path d="m377.5 345h-2c0-.55-.45-1-1-1s-1 .45-1 1h-8c0-.55-.45-1-1-1s-1 .45-1 1h-2c-1.1 0-2 .9-2 2v15c0 1.1.9 2 2 2h16c1.1 0 2-.9 2-2v-15c0-1.1-.9-2-2-2zm-11 11h-3v-3h3zm4.5 0h-3v-3h3zm4.5 0h-3v-3h3zm2-6.71c0 .39-.32.71-.71.71h-14.58c-.39 0-.71-.32-.71-.71v-1.59c0-.39.32-.71.71-.71h1.29v1.01c0 .55.45 1 1 1s1-.45 1-1v-1l8-.01v1.01c0 .55.45 1 1 1s1-.45 1-1v-1l1.29-.01c.39 0 .71.32.71.71z"/></g><g clip-path="url(#h)"><path d="m416.09 352.59c-.78.78-.78 2.05 0 2.83s2.05.78 2.83 0 .78-2.05 0-2.83-2.05-.78-2.83 0zm0-7c-.78.78-.78 2.05 0 2.83s2.05.78 2.83 0 .78-2.05 0-2.83-2.05-.78-2.83 0zm0 14c-.78.78-.78 2.05 0 2.83s2.05.78 2.83 0 .78-2.05 0-2.83-2.05-.78-2.83 0z" fill="#fff"/></g></g><path d="m39.8691 271h-1.1367l-4.6816-7.189h-.0469c.0625.843.0938 1.617.0938 2.32v4.869h-.92v-8.566h1.125l4.67 7.16h.0468c-.0078-.106-.0254-.444-.0527-1.014-.0273-.574-.0371-.984-.0293-1.23v-4.916h.9316zm6.6582 0-.1933-.914h-.0469c-.3203.402-.6406.676-.9609.82-.3164.141-.7129.211-1.1895.211-.6367 0-1.1367-.164-1.5-.492-.3594-.328-.539-.795-.539-1.4 0-1.297 1.0371-1.977 3.1113-2.039l1.0898-.036v-.398c0-.504-.1093-.875-.3281-1.113-.2148-.243-.5605-.364-1.0371-.364-.5352 0-1.1406.164-1.8164.493l-.2988-.745c.3164-.171.6621-.306 1.0371-.404.3789-.098.7578-.146 1.1367-.146.7656 0 1.332.17 1.6992.509.3711.34.5566.885.5566 1.635v4.383zm-2.1972-.686c.6054 0 1.0801-.166 1.4238-.498.3477-.332.5215-.796.5215-1.394v-.58l-.9727.041c-.7734.027-1.332.148-1.6757.363-.3399.211-.5098.541-.5098.99 0 .352.1055.619.3164.803.2148.184.5137.275.8965.275zm6.834.686-2.4375-6.422h1.0429l1.3828 3.809c.3125.89.4961 1.468.5508 1.734h.0469c.043-.207.1777-.635.4043-1.283.2305-.652.7441-2.072 1.541-4.26h1.043l-2.4375 6.422zm8.8691-8.566h2.4199c1.1367 0 1.959.17 2.4668.509.5078.34.7617.877.7617 1.612 0 .507-.1425.927-.4277 1.259-.2812.329-.6934.541-1.2363.639v.059c1.3008.222 1.9512.906 1.9512 2.05 0 .766-.2598 1.364-.7793 1.793-.5157.43-1.2383.645-2.168.645h-2.9883zm.9961 3.668h1.6406c.7031 0 1.209-.11 1.5176-.329.3086-.222.4629-.595.4629-1.119 0-.48-.1719-.826-.5156-1.037-.3438-.215-.8907-.322-1.6407-.322h-1.4648zm0 .843v3.205h1.7871c.6914 0 1.2109-.132 1.5586-.398.3516-.27.5273-.69.5273-1.26 0-.531-.1796-.922-.539-1.172-.3555-.25-.8985-.375-1.6289-.375zm11.0879 4.055-.1934-.914h-.0468c-.3204.402-.6407.676-.961.82-.3164.141-.7129.211-1.1894.211-.6368 0-1.1368-.164-1.5-.492-.3594-.328-.5391-.795-.5391-1.4 0-1.297 1.0371-1.977 3.1113-2.039l1.0899-.036v-.398c0-.504-.1094-.875-.3282-1.113-.2148-.243-.5605-.364-1.0371-.364-.5351 0-1.1406.164-1.8164.493l-.2988-.745c.3164-.171.6621-.306 1.0371-.404.3789-.098.7578-.146 1.1367-.146.7657 0 1.3321.17 1.6992.509.3711.34.5567.885.5567 1.635v4.383zm-2.1973-.686c.6055 0 1.0801-.166 1.4239-.498.3476-.332.5214-.796.5214-1.394v-.58l-.9726.041c-.7735.027-1.3321.148-1.6758.363-.3398.211-.5098.541-.5098.99 0 .352.1055.619.3164.803.2149.184.5137.275.8965.275zm8.3574-5.853c.2852 0 .5411.023.7676.07l-.1347.903c-.2657-.059-.5-.088-.7032-.088-.5195 0-.9648.211-1.3359.633-.3672.421-.5508.947-.5508 1.576v3.445h-.9726v-6.422h.8027l.1113 1.19h.0469c.2383-.418.5254-.741.8613-.967.336-.227.7051-.34 1.1074-.34zm11.3301 6.539-1.1777-3.768c-.0742-.23-.2129-.753-.416-1.57h-.0469c-.1563.684-.293 1.211-.4102 1.582l-1.2128 3.756h-1.125l-1.752-6.422h1.0195c.4141 1.613.7285 2.842.9434 3.686.2187.843.3437 1.412.375 1.705h.0469c.0429-.223.1113-.51.205-.862.0977-.355.1817-.636.252-.843l1.1777-3.686h1.0547l1.1485 3.686c.2187.672.3671 1.236.4453 1.693h.0468c.0157-.141.0567-.357.1231-.65.0703-.293.4785-1.869 1.2246-4.729h1.0078l-1.7754 6.422zm5.5684 0h-.9727v-6.422h.9727zm-1.0547-8.162c0-.223.0547-.385.1641-.486.1093-.106.246-.159.4101-.159.1563 0 .291.053.4043.159.1133.105.1699.267.1699.486s-.0566.383-.1699.492c-.1133.106-.248.158-.4043.158-.1641 0-.3008-.052-.4101-.158-.1094-.109-.1641-.273-.1641-.492zm5.6914 7.476c.1719 0 .3375-.011.4985-.035.16-.027.287-.054.38-.082v.744c-.105.051-.261.092-.468.123-.203.036-.3871.053-.5511.053-1.2422 0-1.8633-.654-1.8633-1.963v-3.82h-.9199v-.469l.9199-.404.4102-1.371h.5624v1.488h1.8638v.756h-1.8638v3.779c0 .387.0918.684.2754.891s.4356.31.7559.31zm7.0625.686v-4.154c0-.524-.119-.914-.357-1.172-.239-.258-.612-.387-1.12-.387-.675 0-1.169.184-1.482.551-.309.367-.463.969-.463 1.805v3.357h-.973v-9.117h.973v2.76c0 .332-.015.607-.047.826h.059c.191-.309.463-.551.814-.727.356-.18.76-.269 1.213-.269.785 0 1.373.187 1.764.562.394.371.592.963.592 1.776v4.189zm9.877 0h-.996v-7.682h-2.713v-.884h6.422v.884h-2.713zm7.291-6.539c.285 0 .541.023.768.07l-.135.903c-.266-.059-.5-.088-.703-.088-.52 0-.965.211-1.336.633-.367.421-.551.947-.551 1.576v3.445h-.973v-6.422h.803l.111 1.19h.047c.238-.418.526-.741.862-.967.335-.227.705-.34 1.107-.34zm6.418 6.539-.193-.914h-.047c-.321.402-.641.676-.961.82-.317.141-.713.211-1.19.211-.636 0-1.136-.164-1.5-.492-.359-.328-.539-.795-.539-1.4 0-1.297 1.037-1.977 3.112-2.039l1.089-.036v-.398c0-.504-.109-.875-.328-1.113-.215-.243-.56-.364-1.037-.364-.535 0-1.14.164-1.816.493l-.299-.745c.316-.171.662-.306 1.037-.404.379-.098.758-.146 1.137-.146.765 0 1.332.17 1.699.509.371.34.557.885.557 1.635v4.383zm-2.197-.686c.605 0 1.08-.166 1.424-.498.347-.332.521-.796.521-1.394v-.58l-.973.041c-.773.027-1.332.148-1.675.363-.34.211-.51.541-.51.99 0 .352.105.619.316.803.215.184.514.275.897.275zm6.4.686h-.973v-6.422h.973zm-1.055-8.162c0-.223.055-.385.164-.486.11-.106.247-.159.411-.159.156 0 .291.053.404.159.113.105.17.267.17.486s-.057.383-.17.492c-.113.106-.248.158-.404.158-.164 0-.301-.052-.411-.158-.109-.109-.164-.273-.164-.492zm4.59 8.162h-.972v-9.117h.972zm3.535 0h-.972v-6.422h.972zm-1.054-8.162c0-.223.054-.385.164-.486.109-.106.246-.159.41-.159.156 0 .291.053.404.159.113.105.17.267.17.486s-.057.383-.17.492c-.113.106-.248.158-.404.158-.164 0-.301-.052-.41-.158-.11-.109-.164-.273-.164-.492zm8.011 8.162v-4.154c0-.524-.119-.914-.357-1.172s-.611-.387-1.119-.387c-.672 0-1.164.182-1.477.545-.312.363-.468.963-.468 1.799v3.369h-.973v-6.422h.791l.158.879h.047c.199-.316.478-.561.838-.732.359-.176.76-.264 1.201-.264.773 0 1.356.187 1.746.562.391.372.586.967.586 1.788v4.189zm8.733-6.422v.615l-1.19.141c.11.137.207.316.293.539.086.219.129.467.129.744 0 .629-.215 1.131-.644 1.506-.43.375-1.02.563-1.77.563-.191 0-.371-.016-.539-.047-.414.218-.621.494-.621.826 0 .176.072.306.217.392.144.082.392.123.744.123h1.137c.695 0 1.228.147 1.599.44.375.293.563.719.563 1.277 0 .711-.285 1.252-.856 1.623-.57.375-1.402.563-2.496.563-.84 0-1.488-.156-1.945-.469-.453-.312-.68-.754-.68-1.324 0-.391.125-.729.375-1.014s.602-.478 1.055-.58c-.164-.074-.303-.189-.416-.346-.109-.156-.164-.338-.164-.545 0-.234.062-.439.187-.615s.323-.345.592-.51c-.332-.136-.603-.369-.814-.697-.207-.328-.311-.703-.311-1.125 0-.703.211-1.244.633-1.623.422-.383 1.019-.574 1.793-.574.336 0 .639.039.908.117zm-5.121 7.5c0 .348.146.611.439.791s.713.27 1.26.27c.816 0 1.42-.123 1.81-.369.395-.243.592-.573.592-.991 0-.347-.107-.59-.322-.726-.215-.133-.619-.199-1.213-.199h-1.166c-.441 0-.785.105-1.031.316s-.369.514-.369.908zm.527-5.443c0 .449.127.789.381 1.019.254.231.607.346 1.06.346.95 0 1.424-.461 1.424-1.383 0-.965-.48-1.447-1.441-1.447-.457 0-.809.123-1.055.369s-.369.611-.369 1.096zm10.176 4.365v-8.566h.996v8.566zm6.271.117c-.929 0-1.65-.285-2.162-.855-.508-.574-.761-1.385-.761-2.432 0-1.074.257-1.904.773-2.49.519-.586 1.258-.879 2.215-.879.308 0 .617.033.926.1.308.066.55.144.726.234l-.299.826c-.215-.086-.449-.156-.703-.211-.254-.058-.478-.088-.674-.088-1.304 0-1.957.832-1.957 2.496 0 .789.159 1.395.475 1.817.32.422.793.633 1.418.633.535 0 1.084-.116 1.646-.346v.861c-.429.223-.97.334-1.623.334zm9.196-3.334c0 1.047-.264 1.865-.791 2.455-.528.586-1.256.879-2.186.879-.574 0-1.084-.135-1.529-.404-.446-.27-.789-.656-1.031-1.16-.243-.504-.364-1.094-.364-1.77 0-1.047.262-1.861.785-2.443.524-.586 1.25-.879 2.18-.879.899 0 1.611.299 2.139.896.531.598.797 1.407.797 2.426zm-4.893 0c0 .821.164 1.446.492 1.875.328.43.811.645 1.448.645.636 0 1.119-.213 1.447-.639.332-.43.498-1.057.498-1.881 0-.816-.166-1.435-.498-1.857-.328-.426-.815-.639-1.459-.639-.637 0-1.117.209-1.442.627-.324.418-.486 1.041-.486 1.869zm11.498 3.217v-4.154c0-.524-.119-.914-.357-1.172-.239-.258-.612-.387-1.119-.387-.672 0-1.164.182-1.477.545s-.469.963-.469 1.799v3.369h-.972v-6.422h.791l.158.879h.047c.199-.316.478-.561.838-.732.359-.176.759-.264 1.201-.264.773 0 1.355.187 1.746.562.39.372.586.967.586 1.788v4.189zm7.619-1.752c0 .598-.222 1.059-.668 1.383-.445.324-1.07.486-1.875.486-.851 0-1.515-.135-1.992-.404v-.902c.309.156.639.279.99.369.356.09.698.134 1.026.134.508 0 .898-.08 1.172-.24.273-.164.41-.412.41-.744 0-.25-.11-.463-.328-.639-.215-.179-.637-.39-1.266-.632-.598-.223-1.023-.416-1.277-.58-.25-.168-.438-.358-.563-.569-.121-.211-.181-.463-.181-.756 0-.523.212-.935.638-1.236.426-.305 1.01-.457 1.752-.457.692 0 1.367.141 2.027.422l-.345.791c-.645-.266-1.229-.399-1.752-.399-.461 0-.809.073-1.043.217-.234.145-.352.344-.352.598 0 .172.043.318.129.439.09.121.233.237.428.346s.57.268 1.125.475c.762.277 1.275.556 1.541.838.269.281.404.634.404 1.06zm13.287-2.543c0 1.371-.347 2.449-1.043 3.234-.691.786-1.654 1.178-2.888 1.178-1.262 0-2.237-.385-2.924-1.154-.684-.774-1.025-1.863-1.025-3.27 0-1.394.343-2.474 1.031-3.24.687-.769 1.664-1.154 2.929-1.154 1.231 0 2.192.39 2.883 1.172.692.781 1.037 1.859 1.037 3.234zm-6.826 0c0 1.16.246 2.041.738 2.643.497.597 1.215.896 2.157.896.949 0 1.666-.299 2.15-.896.485-.598.727-1.479.727-2.643 0-1.152-.242-2.025-.727-2.619-.48-.598-1.193-.897-2.139-.897-.949 0-1.671.301-2.168.903-.492.597-.738 1.469-.738 2.613zm13.49 4.295v-4.154c0-.524-.119-.914-.357-1.172s-.611-.387-1.119-.387c-.672 0-1.164.182-1.477.545-.312.363-.468.963-.468 1.799v3.369h-.973v-6.422h.791l.158.879h.047c.199-.316.479-.561.838-.732.359-.176.76-.264 1.201-.264.773 0 1.356.187 1.746.562.391.372.586.967.586 1.788v4.189zm4.45 0h-.973v-9.117h.973zm1.543-6.422h1.043l1.406 3.662c.308.836.5 1.44.574 1.811h.047c.051-.199.156-.539.316-1.02.164-.484.696-1.969 1.594-4.453h1.043l-2.76 7.313c-.273.722-.593 1.234-.961 1.535-.363.304-.81.457-1.341.457-.297 0-.59-.033-.879-.1v-.779c.215.047.455.07.72.07.668 0 1.145-.375 1.43-1.125l.357-.914z" fill="#fff"/><path d="m481 242h479v224h-479z" fill="#252a2e"/><g filter="url(#d)"><path d="m0 0h412v126h-412z" fill="#171c1e" transform="translate(514.5 291)"/><g clip-path="url(#i)"><path d="m550.5 322h-12.17l5.59-5.59-1.42-1.41-8 8 8 8 1.41-1.41-5.58-5.59h12.17z" fill="#fff"/></g><path d="m806.88 325.92-.66.05-.41-.41c2.44-2.81 2.28-7.1-.5-9.7s-7.01-2.46-9.64.08c-2.82 2.73-2.85 7.22-.08 9.98 2.61 2.61 6.77 2.72 9.52.34l.41.41-.05.65 3.89 3.89c.39.39 1.02.39 1.41 0s.39-1.02 0-1.41l-3.88-3.88zm-2.81-1.41c-1.95 1.95-5.13 1.95-7.08 0s-1.95-5.13 0-7.08 5.13-1.95 7.08 0 1.95 5.13 0 7.08z" fill="#fff"/><path d="m858.5 314h-2c0-.55-.45-1-1-1s-1 .45-1 1h-8c0-.55-.45-1-1-1s-1 .45-1 1h-2c-1.1 0-2 .9-2 2v15c0 1.1.9 2 2 2h16c1.1 0 2-.9 2-2v-15c0-1.1-.9-2-2-2zm-11 11h-3v-3h3zm4.5 0h-3v-3h3zm4.5 0h-3v-3h3zm2-6.71c0 .39-.32.71-.71.71h-14.58c-.39 0-.71-.32-.71-.71v-1.59c0-.39.32-.71.71-.71h1.29v1.01c0 .55.45 1 1 1s1-.45 1-1v-1l8-.01v1.01c0 .55.45 1 1 1s1-.45 1-1v-1l1.29-.01c.39 0 .71.32.71.71z" fill="#fff"/><g clip-path="url(#j)"><path d="m897.09 321.59c-.78.78-.78 2.05 0 2.83s2.05.78 2.83 0 .78-2.05 0-2.83-2.05-.78-2.83 0zm0-7c-.78.78-.78 2.05 0 2.83s2.05.78 2.83 0 .78-2.05 0-2.83-2.05-.78-2.83 0zm0 14c-.78.78-.78 2.05 0 2.83s2.05.78 2.83 0 .78-2.05 0-2.83-2.05-.78-2.83 0z" fill="#fff"/></g><path d="m537.326 402h-2.353v-12.285h-4.18v-1.992h10.703v1.992h-4.17zm8.568-10.811v10.811h-2.295v-10.811zm-1.133-4.14c.352 0 .655.094.909.283.26.189.39.514.39.977 0 .455-.13.781-.39.976-.254.189-.557.283-.909.283-.364 0-.674-.094-.927-.283-.248-.195-.372-.521-.372-.976 0-.463.124-.788.372-.977.253-.189.563-.283.927-.283zm8.598 13.291c.299 0 .595-.026.888-.078.293-.059.56-.127.801-.205v1.738c-.254.111-.583.205-.986.283-.404.078-.824.117-1.26.117-.612 0-1.162-.101-1.65-.302-.489-.209-.876-.564-1.163-1.065-.286-.501-.429-1.195-.429-2.08v-5.81h-1.475v-1.026l1.582-.81.752-2.315h1.445v2.402h3.096v1.749h-3.096v5.781c0 .547.137.954.411 1.22.273.267.634.401 1.084.401zm6.341 1.66h-2.305v-15.195h2.305zm7.738-11.016c.963 0 1.79.199 2.48.596s1.221.96 1.592 1.69c.371.729.557 1.601.557 2.617v1.23h-7.217c.026 1.048.306 1.856.84 2.422.54.566 1.295.85 2.265.85.691 0 1.309-.065 1.856-.196.553-.136 1.123-.335 1.709-.595v1.865c-.54.254-1.091.439-1.65.557-.56.117-1.231.175-2.012.175-1.061 0-1.996-.205-2.803-.615-.801-.417-1.429-1.035-1.885-1.855-.449-.821-.674-1.84-.674-3.057 0-1.211.206-2.24.616-3.086s.986-1.491 1.728-1.934c.742-.442 1.608-.664 2.598-.664zm0 1.729c-.723 0-1.309.234-1.758.703-.443.469-.703 1.156-.781 2.061h4.922c-.007-.541-.098-1.019-.274-1.436-.169-.417-.429-.742-.781-.977-.345-.234-.788-.351-1.328-.351zm19.03-3.203c-.683 0-1.295.123-1.836.371-.533.247-.986.605-1.357 1.074-.371.462-.654 1.025-.85 1.69-.195.657-.293 1.399-.293 2.226 0 1.107.157 2.061.469 2.861.313.795.788 1.407 1.426 1.836.638.424 1.445.635 2.422.635.605 0 1.194-.058 1.767-.176.573-.117 1.166-.276 1.778-.478v1.992c-.58.228-1.166.394-1.758.498-.593.104-1.276.156-2.051.156-1.458 0-2.669-.302-3.633-.908-.957-.605-1.673-1.458-2.148-2.558-.469-1.101-.703-2.39-.703-3.868 0-1.08.15-2.07.449-2.968.299-.899.736-1.674 1.309-2.325.573-.657 1.279-1.162 2.119-1.513.846-.358 1.813-.537 2.9-.537.716 0 1.419.081 2.11.244.696.156 1.341.381 1.933.674l-.82 1.933c-.495-.234-1.013-.436-1.553-.605-.54-.17-1.1-.254-1.68-.254zm10.814 1.474c.964 0 1.791.199 2.481.596s1.221.96 1.592 1.69c.371.729.556 1.601.556 2.617v1.23h-7.216c.026 1.048.306 1.856.839 2.422.541.566 1.296.85 2.266.85.69 0 1.309-.065 1.855-.196.554-.136 1.124-.335 1.709-.595v1.865c-.54.254-1.09.439-1.65.557-.56.117-1.23.175-2.012.175-1.061 0-1.995-.205-2.802-.615-.801-.417-1.429-1.035-1.885-1.855-.449-.821-.674-1.84-.674-3.057 0-1.211.205-2.24.615-3.086s.987-1.491 1.729-1.934c.742-.442 1.608-.664 2.597-.664zm0 1.729c-.722 0-1.308.234-1.757.703-.443.469-.704 1.156-.782 2.061h4.922c-.006-.541-.097-1.019-.273-1.436-.169-.417-.43-.742-.781-.977-.346-.234-.788-.351-1.329-.351zm13.002-1.729c1.217 0 2.165.316 2.842.948.683.625 1.025 1.63 1.025 3.017v7.051h-2.295v-6.621c0-.84-.172-1.468-.517-1.885-.345-.423-.879-.635-1.602-.635-1.048 0-1.777.323-2.187.967-.404.645-.606 1.579-.606 2.803v5.371h-2.295v-10.811h1.787l.323 1.465h.127c.234-.377.524-.687.869-.927.351-.248.742-.433 1.172-.557.436-.124.888-.186 1.357-.186zm11.253 9.356c.3 0 .596-.026.889-.078.293-.059.56-.127.801-.205v1.738c-.254.111-.583.205-.986.283-.404.078-.824.117-1.26.117-.612 0-1.162-.101-1.651-.302-.488-.209-.875-.564-1.162-1.065-.286-.501-.429-1.195-.429-2.08v-5.81h-1.475v-1.026l1.582-.81.752-2.315h1.445v2.402h3.096v1.749h-3.096v5.781c0 .547.137.954.411 1.22.273.267.634.401 1.083.401zm8.344-9.356c.963 0 1.79.199 2.48.596s1.221.96 1.592 1.69c.371.729.557 1.601.557 2.617v1.23h-7.217c.026 1.048.306 1.856.84 2.422.54.566 1.295.85 2.265.85.691 0 1.309-.065 1.856-.196.553-.136 1.123-.335 1.709-.595v1.865c-.54.254-1.091.439-1.651.557-.559.117-1.23.175-2.011.175-1.061 0-1.996-.205-2.803-.615-.801-.417-1.429-1.035-1.885-1.855-.449-.821-.674-1.84-.674-3.057 0-1.211.206-2.24.616-3.086s.986-1.491 1.728-1.934c.742-.442 1.608-.664 2.598-.664zm0 1.729c-.723 0-1.309.234-1.758.703-.443.469-.703 1.156-.781 2.061h4.922c-.007-.541-.098-1.019-.274-1.436-.169-.417-.429-.742-.781-.977-.345-.234-.788-.351-1.328-.351zm12.845-1.729c.182 0 .381.01.596.03.215.019.4.045.557.078l-.215 2.148c-.137-.039-.306-.068-.508-.088-.195-.019-.371-.029-.527-.029-.411 0-.801.068-1.172.205-.371.13-.7.332-.987.606-.286.267-.511.602-.674 1.005-.162.404-.244.873-.244 1.407v5.654h-2.304v-10.811h1.797l.312 1.905h.107c.215-.384.482-.736.801-1.055s.684-.573 1.094-.762c.417-.195.872-.293 1.367-.293z" fill="#fff"/></g><path d="m519.953 271h-4.775v-8.566h4.775v.884h-3.779v2.76h3.551v.879h-3.551v3.152h3.779zm3.805-3.287-2.233-3.135h1.108l1.693 2.461 1.688-2.461h1.095l-2.232 3.135 2.35 3.287h-1.102l-1.799-2.602-1.816 2.602h-1.102zm7.32 2.601c.172 0 .338-.011.498-.035.16-.027.287-.054.381-.082v.744c-.105.051-.262.092-.469.123-.203.036-.386.053-.55.053-1.243 0-1.864-.654-1.864-1.963v-3.82h-.92v-.469l.92-.404.41-1.371h.563v1.488h1.863v.756h-1.863v3.779c0 .387.092.684.275.891.184.207.436.31.756.31zm5.381.803c-.949 0-1.699-.289-2.25-.867-.547-.578-.82-1.381-.82-2.408 0-1.035.254-1.858.761-2.467.512-.609 1.198-.914 2.057-.914.805 0 1.441.266 1.91.797.469.527.703 1.224.703 2.092v.615h-4.424c.02.754.209 1.326.569 1.717.363.39.873.586 1.529.586.692 0 1.375-.145 2.051-.434v.867c-.344.149-.67.254-.979.317-.304.066-.673.099-1.107.099zm-.264-5.842c-.515 0-.927.168-1.236.504-.305.336-.484.801-.539 1.395h3.357c0-.613-.136-1.082-.41-1.406-.273-.329-.664-.493-1.172-.493zm9.184 5.725v-4.154c0-.524-.119-.914-.358-1.172-.238-.258-.611-.387-1.119-.387-.672 0-1.164.182-1.476.545-.313.363-.469.963-.469 1.799v3.369h-.973v-6.422h.791l.159.879h.046c.2-.316.479-.561.838-.732.36-.176.76-.264 1.202-.264.773 0 1.355.187 1.746.562.39.372.586.967.586 1.788v4.189zm7.848-.861h-.053c-.449.652-1.121.978-2.016.978-.84 0-1.494-.287-1.963-.861-.465-.574-.697-1.391-.697-2.449 0-1.059.234-1.881.703-2.467s1.121-.879 1.957-.879c.871 0 1.539.316 2.004.949h.076l-.041-.463-.023-.451v-2.613h.972v9.117h-.791zm-1.946.164c.664 0 1.145-.18 1.442-.539.3-.364.451-.948.451-1.752v-.205c0-.911-.153-1.559-.457-1.946-.301-.39-.783-.586-1.447-.586-.571 0-1.008.223-1.313.668-.301.442-.451 1.067-.451 1.875 0 .821.15 1.44.451 1.858s.742.627 1.324.627zm8.147.814c-.949 0-1.699-.289-2.25-.867-.547-.578-.821-1.381-.821-2.408 0-1.035.254-1.858.762-2.467.512-.609 1.197-.914 2.057-.914.804 0 1.441.266 1.91.797.469.527.703 1.224.703 2.092v.615h-4.424c.02.754.209 1.326.569 1.717.363.39.873.586 1.529.586.691 0 1.375-.145 2.051-.434v.867c-.344.149-.67.254-.979.317-.305.066-.674.099-1.107.099zm-.264-5.842c-.516 0-.928.168-1.236.504-.305.336-.485.801-.539 1.395h3.357c0-.613-.137-1.082-.41-1.406-.274-.329-.664-.493-1.172-.493zm9.16 4.864h-.053c-.449.652-1.121.978-2.015.978-.84 0-1.494-.287-1.963-.861-.465-.574-.697-1.391-.697-2.449 0-1.059.234-1.881.703-2.467s1.121-.879 1.957-.879c.871 0 1.539.316 2.004.949h.076l-.041-.463-.024-.451v-2.613h.973v9.117h-.791zm-1.945.164c.664 0 1.144-.18 1.441-.539.301-.364.451-.948.451-1.752v-.205c0-.911-.152-1.559-.457-1.946-.3-.39-.783-.586-1.447-.586-.57 0-1.008.223-1.312.668-.301.442-.451 1.067-.451 1.875 0 .821.15 1.44.451 1.858.3.418.742.627 1.324.627zm15.889.697h-1.137l-4.682-7.189h-.047c.063.843.094 1.617.094 2.32v4.869h-.92v-8.566h1.125l4.67 7.16h.047c-.008-.106-.025-.444-.053-1.014-.027-.574-.037-.984-.029-1.23v-4.916h.932zm6.658 0-.194-.914h-.046c-.321.402-.641.676-.961.82-.317.141-.713.211-1.19.211-.637 0-1.137-.164-1.5-.492-.359-.328-.539-.795-.539-1.4 0-1.297 1.037-1.977 3.111-2.039l1.09-.036v-.398c0-.504-.109-.875-.328-1.113-.215-.243-.56-.364-1.037-.364-.535 0-1.141.164-1.816.493l-.299-.745c.316-.171.662-.306 1.037-.404.379-.098.758-.146 1.137-.146.765 0 1.332.17 1.699.509.371.34.556.885.556 1.635v4.383zm-2.197-.686c.605 0 1.08-.166 1.423-.498.348-.332.522-.796.522-1.394v-.58l-.973.041c-.773.027-1.332.148-1.676.363-.339.211-.509.541-.509.99 0 .352.105.619.316.803.215.184.514.275.897.275zm6.833.686-2.437-6.422h1.043l1.383 3.809c.312.89.496 1.468.551 1.734h.046c.043-.207.178-.635.405-1.283.23-.652.744-2.072 1.541-4.26h1.043l-2.438 6.422zm8.87-8.566h2.42c1.136 0 1.959.17 2.466.509.508.34.762.877.762 1.612 0 .507-.142.927-.428 1.259-.281.329-.693.541-1.236.639v.059c1.301.222 1.951.906 1.951 2.05 0 .766-.26 1.364-.779 1.793-.516.43-1.238.645-2.168.645h-2.988zm.996 3.668h1.64c.703 0 1.209-.11 1.518-.329.309-.222.463-.595.463-1.119 0-.48-.172-.826-.516-1.037-.344-.215-.89-.322-1.64-.322h-1.465zm0 .843v3.205h1.787c.691 0 1.211-.132 1.558-.398.352-.27.528-.69.528-1.26 0-.531-.18-.922-.539-1.172-.356-.25-.899-.375-1.629-.375zm11.088 4.055-.194-.914h-.047c-.32.402-.64.676-.961.82-.316.141-.712.211-1.189.211-.637 0-1.137-.164-1.5-.492-.359-.328-.539-.795-.539-1.4 0-1.297 1.037-1.977 3.111-2.039l1.09-.036v-.398c0-.504-.109-.875-.328-1.113-.215-.243-.561-.364-1.037-.364-.535 0-1.141.164-1.817.493l-.298-.745c.316-.171.662-.306 1.037-.404.379-.098.758-.146 1.136-.146.766 0 1.332.17 1.7.509.371.34.556.885.556 1.635v4.383zm-2.198-.686c.606 0 1.08-.166 1.424-.498.348-.332.522-.796.522-1.394v-.58l-.973.041c-.773.027-1.332.148-1.676.363-.34.211-.51.541-.51.99 0 .352.106.619.317.803.215.184.514.275.896.275zm8.358-5.853c.285 0 .541.023.767.07l-.134.903c-.266-.059-.5-.088-.704-.088-.519 0-.964.211-1.335.633-.368.421-.551.947-.551 1.576v3.445h-.973v-6.422h.803l.111 1.19h.047c.238-.418.525-.741.861-.967.336-.227.705-.34 1.108-.34z" fill="#fff"/></svg>