<svg width="912" height="574" viewBox="0 0 912 574" fill="none" xmlns="http://www.w3.org/2000/svg">
<g clip-path="url(#clip0_296_61051)">
<rect width="455" height="286" fill="#F1F1F6"/>
<g filter="url(#filter0_ddd_296_61051)">
<rect width="412" height="64" transform="translate(21.5 111)" fill="white"/>
<path d="M41.5 149H57.5C58.05 149 58.5 148.55 58.5 148C58.5 147.45 58.05 147 57.5 147H41.5C40.95 147 40.5 147.45 40.5 148C40.5 148.55 40.95 149 41.5 149ZM41.5 144H57.5C58.05 144 58.5 143.55 58.5 143C58.5 142.45 58.05 142 57.5 142H41.5C40.95 142 40.5 142.45 40.5 143C40.5 143.55 40.95 144 41.5 144ZM40.5 138C40.5 138.55 40.95 139 41.5 139H57.5C58.05 139 58.5 138.55 58.5 138C58.5 137.45 58.05 137 57.5 137H41.5C40.95 137 40.5 137.45 40.5 138Z" fill="#252A2E"/>
<path d="M88.3262 151H85.9727V138.715H81.793V136.723H92.4961V138.715H88.3262V151ZM96.8941 140.189V151H94.5992V140.189H96.8941ZM95.7613 136.049C96.1129 136.049 96.4156 136.143 96.6695 136.332C96.9299 136.521 97.0602 136.846 97.0602 137.309C97.0602 137.764 96.9299 138.09 96.6695 138.285C96.4156 138.474 96.1129 138.568 95.7613 138.568C95.3967 138.568 95.0875 138.474 94.8336 138.285C94.5862 138.09 94.4625 137.764 94.4625 137.309C94.4625 136.846 94.5862 136.521 94.8336 136.332C95.0875 136.143 95.3967 136.049 95.7613 136.049ZM104.359 149.34C104.658 149.34 104.954 149.314 105.247 149.262C105.54 149.203 105.807 149.135 106.048 149.057V150.795C105.794 150.906 105.465 151 105.062 151.078C104.658 151.156 104.238 151.195 103.802 151.195C103.19 151.195 102.64 151.094 102.152 150.893C101.663 150.684 101.276 150.329 100.989 149.828C100.703 149.327 100.56 148.633 100.56 147.748V141.938H99.0852V140.912L100.667 140.102L101.419 137.787H102.864V140.189H105.96V141.938H102.864V147.719C102.864 148.266 103.001 148.673 103.275 148.939C103.548 149.206 103.909 149.34 104.359 149.34ZM110.7 151H108.395V135.805H110.7V151ZM118.438 139.984C119.401 139.984 120.228 140.183 120.918 140.58C121.608 140.977 122.139 141.54 122.51 142.27C122.881 142.999 123.067 143.871 123.067 144.887V146.117H115.85C115.876 147.165 116.156 147.973 116.69 148.539C117.23 149.105 117.985 149.389 118.955 149.389C119.646 149.389 120.264 149.324 120.811 149.193C121.364 149.057 121.934 148.858 122.52 148.598V150.463C121.98 150.717 121.429 150.902 120.87 151.02C120.31 151.137 119.639 151.195 118.858 151.195C117.797 151.195 116.862 150.99 116.055 150.58C115.254 150.163 114.626 149.545 114.17 148.725C113.721 147.904 113.496 146.885 113.496 145.668C113.496 144.457 113.702 143.428 114.112 142.582C114.522 141.736 115.098 141.091 115.84 140.648C116.582 140.206 117.448 139.984 118.438 139.984ZM118.438 141.713C117.715 141.713 117.129 141.947 116.68 142.416C116.237 142.885 115.977 143.572 115.899 144.477H120.821C120.814 143.936 120.723 143.458 120.547 143.041C120.378 142.624 120.118 142.299 119.766 142.064C119.421 141.83 118.978 141.713 118.438 141.713Z" fill="#252A2E"/>
<path d="M405.5 133C399.98 133 395.5 137.48 395.5 143C395.5 148.52 399.98 153 405.5 153C411.02 153 415.5 148.52 415.5 143C415.5 137.48 411.02 133 405.5 133ZM405.5 137C407.57 137 409.25 138.68 409.25 140.75C409.25 142.82 407.57 144.5 405.5 144.5C403.43 144.5 401.75 142.82 401.75 140.75C401.75 138.68 403.43 137 405.5 137ZM405.5 151C402.66 151 400.16 149.5 398.74 147.26C398.87 147.19 399.01 147.12 399.17 147.05C400.39 146.49 402.64 145.68 405.5 145.68C408.37 145.68 410.62 146.49 411.83 147.05C411.99 147.12 412.13 147.2 412.26 147.27C410.84 149.51 408.35 151 405.5 151Z" fill="#252A2E"/>
</g>
<rect width="455" height="286" transform="translate(457)" fill="#F1F1F6"/>
<g filter="url(#filter1_ddd_296_61051)">
<rect width="412" height="126" transform="translate(478.5 80)" fill="white"/>
<path d="M498.5 118H514.5C515.05 118 515.5 117.55 515.5 117C515.5 116.45 515.05 116 514.5 116H498.5C497.95 116 497.5 116.45 497.5 117C497.5 117.55 497.95 118 498.5 118ZM498.5 113H514.5C515.05 113 515.5 112.55 515.5 112C515.5 111.45 515.05 111 514.5 111H498.5C497.95 111 497.5 111.45 497.5 112C497.5 112.55 497.95 113 498.5 113ZM497.5 107C497.5 107.55 497.95 108 498.5 108H514.5C515.05 108 515.5 107.55 515.5 107C515.5 106.45 515.05 106 514.5 106H498.5C497.95 106 497.5 106.45 497.5 107Z" fill="#252A2E"/>
<g clip-path="url(#clip1_296_61051)">
<path d="M862.5 102C856.98 102 852.5 106.48 852.5 112C852.5 117.52 856.98 122 862.5 122C868.02 122 872.5 117.52 872.5 112C872.5 106.48 868.02 102 862.5 102ZM862.5 106C864.57 106 866.25 107.68 866.25 109.75C866.25 111.82 864.57 113.5 862.5 113.5C860.43 113.5 858.75 111.82 858.75 109.75C858.75 107.68 860.43 106 862.5 106ZM862.5 120C859.66 120 857.16 118.5 855.74 116.26C855.87 116.19 856.01 116.12 856.17 116.05C857.39 115.49 859.64 114.68 862.5 114.68C865.37 114.68 867.62 115.49 868.83 116.05C868.99 116.12 869.13 116.2 869.26 116.27C867.84 118.51 865.35 120 862.5 120Z" fill="#252A2E"/>
</g>
<path d="M501.326 191H498.973V178.715H494.793V176.723H505.496V178.715H501.326V191ZM509.894 180.189V191H507.599V180.189H509.894ZM508.761 176.049C509.113 176.049 509.416 176.143 509.67 176.332C509.93 176.521 510.06 176.846 510.06 177.309C510.06 177.764 509.93 178.09 509.67 178.285C509.416 178.474 509.113 178.568 508.761 178.568C508.397 178.568 508.087 178.474 507.834 178.285C507.586 178.09 507.462 177.764 507.462 177.309C507.462 176.846 507.586 176.521 507.834 176.332C508.087 176.143 508.397 176.049 508.761 176.049ZM517.359 189.34C517.658 189.34 517.954 189.314 518.247 189.262C518.54 189.203 518.807 189.135 519.048 189.057V190.795C518.794 190.906 518.465 191 518.062 191.078C517.658 191.156 517.238 191.195 516.802 191.195C516.19 191.195 515.64 191.094 515.152 190.893C514.663 190.684 514.276 190.329 513.989 189.828C513.703 189.327 513.56 188.633 513.56 187.748V181.938H512.085V180.912L513.667 180.102L514.419 177.787H515.864V180.189H518.96V181.938H515.864V187.719C515.864 188.266 516.001 188.673 516.275 188.939C516.548 189.206 516.909 189.34 517.359 189.34ZM523.7 191H521.395V175.805H523.7V191ZM531.438 179.984C532.401 179.984 533.228 180.183 533.918 180.58C534.608 180.977 535.139 181.54 535.51 182.27C535.881 182.999 536.067 183.871 536.067 184.887V186.117H528.85C528.876 187.165 529.156 187.973 529.69 188.539C530.23 189.105 530.985 189.389 531.955 189.389C532.646 189.389 533.264 189.324 533.811 189.193C534.364 189.057 534.934 188.858 535.52 188.598V190.463C534.98 190.717 534.429 190.902 533.87 191.02C533.31 191.137 532.639 191.195 531.858 191.195C530.797 191.195 529.862 190.99 529.055 190.58C528.254 190.163 527.626 189.545 527.17 188.725C526.721 187.904 526.496 186.885 526.496 185.668C526.496 184.457 526.702 183.428 527.112 182.582C527.522 181.736 528.098 181.091 528.84 180.648C529.582 180.206 530.448 179.984 531.438 179.984ZM531.438 181.713C530.715 181.713 530.129 181.947 529.68 182.416C529.237 182.885 528.977 183.572 528.899 184.477H533.821C533.814 183.936 533.723 183.458 533.547 183.041C533.378 182.624 533.118 182.299 532.766 182.064C532.421 181.83 531.978 181.713 531.438 181.713Z" fill="#252A2E"/>
</g>
<rect width="455" height="286" transform="translate(0 288)" fill="#F1F1F6"/>
<g filter="url(#filter2_ddd_296_61051)">
<rect width="412" height="64" transform="translate(21.5 399)" fill="#004F83"/>
<path d="M41.5 437H57.5C58.05 437 58.5 436.55 58.5 436C58.5 435.45 58.05 435 57.5 435H41.5C40.95 435 40.5 435.45 40.5 436C40.5 436.55 40.95 437 41.5 437ZM41.5 432H57.5C58.05 432 58.5 431.55 58.5 431C58.5 430.45 58.05 430 57.5 430H41.5C40.95 430 40.5 430.45 40.5 431C40.5 431.55 40.95 432 41.5 432ZM40.5 426C40.5 426.55 40.95 427 41.5 427H57.5C58.05 427 58.5 426.55 58.5 426C58.5 425.45 58.05 425 57.5 425H41.5C40.95 425 40.5 425.45 40.5 426Z" fill="white"/>
<path d="M88.3262 439H85.9727V426.715H81.793V424.723H92.4961V426.715H88.3262V439ZM96.8941 428.189V439H94.5992V428.189H96.8941ZM95.7613 424.049C96.1129 424.049 96.4156 424.143 96.6695 424.332C96.9299 424.521 97.0602 424.846 97.0602 425.309C97.0602 425.764 96.9299 426.09 96.6695 426.285C96.4156 426.474 96.1129 426.568 95.7613 426.568C95.3967 426.568 95.0875 426.474 94.8336 426.285C94.5862 426.09 94.4625 425.764 94.4625 425.309C94.4625 424.846 94.5862 424.521 94.8336 424.332C95.0875 424.143 95.3967 424.049 95.7613 424.049ZM104.359 437.34C104.658 437.34 104.954 437.314 105.247 437.262C105.54 437.203 105.807 437.135 106.048 437.057V438.795C105.794 438.906 105.465 439 105.062 439.078C104.658 439.156 104.238 439.195 103.802 439.195C103.19 439.195 102.64 439.094 102.152 438.893C101.663 438.684 101.276 438.329 100.989 437.828C100.703 437.327 100.56 436.633 100.56 435.748V429.938H99.0852V428.912L100.667 428.102L101.419 425.787H102.864V428.189H105.96V429.938H102.864V435.719C102.864 436.266 103.001 436.673 103.275 436.939C103.548 437.206 103.909 437.34 104.359 437.34ZM110.7 439H108.395V423.805H110.7V439ZM118.438 427.984C119.401 427.984 120.228 428.183 120.918 428.58C121.608 428.977 122.139 429.54 122.51 430.27C122.881 430.999 123.067 431.871 123.067 432.887V434.117H115.85C115.876 435.165 116.156 435.973 116.69 436.539C117.23 437.105 117.985 437.389 118.955 437.389C119.646 437.389 120.264 437.324 120.811 437.193C121.364 437.057 121.934 436.858 122.52 436.598V438.463C121.98 438.717 121.429 438.902 120.87 439.02C120.31 439.137 119.639 439.195 118.858 439.195C117.797 439.195 116.862 438.99 116.055 438.58C115.254 438.163 114.626 437.545 114.17 436.725C113.721 435.904 113.496 434.885 113.496 433.668C113.496 432.457 113.702 431.428 114.112 430.582C114.522 429.736 115.098 429.091 115.84 428.648C116.582 428.206 117.448 427.984 118.438 427.984ZM118.438 429.713C117.715 429.713 117.129 429.947 116.68 430.416C116.237 430.885 115.977 431.572 115.899 432.477H120.821C120.814 431.936 120.723 431.458 120.547 431.041C120.378 430.624 120.118 430.299 119.766 430.064C119.421 429.83 118.978 429.713 118.438 429.713Z" fill="white"/>
<g clip-path="url(#clip2_296_61051)">
<path d="M405.5 421C399.98 421 395.5 425.48 395.5 431C395.5 436.52 399.98 441 405.5 441C411.02 441 415.5 436.52 415.5 431C415.5 425.48 411.02 421 405.5 421ZM405.5 425C407.57 425 409.25 426.68 409.25 428.75C409.25 430.82 407.57 432.5 405.5 432.5C403.43 432.5 401.75 430.82 401.75 428.75C401.75 426.68 403.43 425 405.5 425ZM405.5 439C402.66 439 400.16 437.5 398.74 435.26C398.87 435.19 399.01 435.12 399.17 435.05C400.39 434.49 402.64 433.68 405.5 433.68C408.37 433.68 410.62 434.49 411.83 435.05C411.99 435.12 412.13 435.2 412.26 435.27C410.84 437.51 408.35 439 405.5 439Z" fill="white"/>
</g>
</g>
<rect width="455" height="286" transform="translate(457 288)" fill="#F1F1F6"/>
<g filter="url(#filter3_ddd_296_61051)">
<rect width="412" height="126" transform="translate(478.5 368)" fill="#004F83"/>
<path d="M498.5 406H514.5C515.05 406 515.5 405.55 515.5 405C515.5 404.45 515.05 404 514.5 404H498.5C497.95 404 497.5 404.45 497.5 405C497.5 405.55 497.95 406 498.5 406ZM498.5 401H514.5C515.05 401 515.5 400.55 515.5 400C515.5 399.45 515.05 399 514.5 399H498.5C497.95 399 497.5 399.45 497.5 400C497.5 400.55 497.95 401 498.5 401ZM497.5 395C497.5 395.55 497.95 396 498.5 396H514.5C515.05 396 515.5 395.55 515.5 395C515.5 394.45 515.05 394 514.5 394H498.5C497.95 394 497.5 394.45 497.5 395Z" fill="white"/>
<g clip-path="url(#clip3_296_61051)">
<path d="M862.5 390C856.98 390 852.5 394.48 852.5 400C852.5 405.52 856.98 410 862.5 410C868.02 410 872.5 405.52 872.5 400C872.5 394.48 868.02 390 862.5 390ZM862.5 394C864.57 394 866.25 395.68 866.25 397.75C866.25 399.82 864.57 401.5 862.5 401.5C860.43 401.5 858.75 399.82 858.75 397.75C858.75 395.68 860.43 394 862.5 394ZM862.5 408C859.66 408 857.16 406.5 855.74 404.26C855.87 404.19 856.01 404.12 856.17 404.05C857.39 403.49 859.64 402.68 862.5 402.68C865.37 402.68 867.62 403.49 868.83 404.05C868.99 404.12 869.13 404.2 869.26 404.27C867.84 406.51 865.35 408 862.5 408Z" fill="white"/>
</g>
<path d="M501.326 479H498.973V466.715H494.793V464.723H505.496V466.715H501.326V479ZM509.894 468.189V479H507.599V468.189H509.894ZM508.761 464.049C509.113 464.049 509.416 464.143 509.67 464.332C509.93 464.521 510.06 464.846 510.06 465.309C510.06 465.764 509.93 466.09 509.67 466.285C509.416 466.474 509.113 466.568 508.761 466.568C508.397 466.568 508.087 466.474 507.834 466.285C507.586 466.09 507.462 465.764 507.462 465.309C507.462 464.846 507.586 464.521 507.834 464.332C508.087 464.143 508.397 464.049 508.761 464.049ZM517.359 477.34C517.658 477.34 517.954 477.314 518.247 477.262C518.54 477.203 518.807 477.135 519.048 477.057V478.795C518.794 478.906 518.465 479 518.062 479.078C517.658 479.156 517.238 479.195 516.802 479.195C516.19 479.195 515.64 479.094 515.152 478.893C514.663 478.684 514.276 478.329 513.989 477.828C513.703 477.327 513.56 476.633 513.56 475.748V469.938H512.085V468.912L513.667 468.102L514.419 465.787H515.864V468.189H518.96V469.938H515.864V475.719C515.864 476.266 516.001 476.673 516.275 476.939C516.548 477.206 516.909 477.34 517.359 477.34ZM523.7 479H521.395V463.805H523.7V479ZM531.438 467.984C532.401 467.984 533.228 468.183 533.918 468.58C534.608 468.977 535.139 469.54 535.51 470.27C535.881 470.999 536.067 471.871 536.067 472.887V474.117H528.85C528.876 475.165 529.156 475.973 529.69 476.539C530.23 477.105 530.985 477.389 531.955 477.389C532.646 477.389 533.264 477.324 533.811 477.193C534.364 477.057 534.934 476.858 535.52 476.598V478.463C534.98 478.717 534.429 478.902 533.87 479.02C533.31 479.137 532.639 479.195 531.858 479.195C530.797 479.195 529.862 478.99 529.055 478.58C528.254 478.163 527.626 477.545 527.17 476.725C526.721 475.904 526.496 474.885 526.496 473.668C526.496 472.457 526.702 471.428 527.112 470.582C527.522 469.736 528.098 469.091 528.84 468.648C529.582 468.206 530.448 467.984 531.438 467.984ZM531.438 469.713C530.715 469.713 530.129 469.947 529.68 470.416C529.237 470.885 528.977 471.572 528.899 472.477H533.821C533.814 471.936 533.723 471.458 533.547 471.041C533.378 470.624 533.118 470.299 532.766 470.064C532.421 469.83 531.978 469.713 531.438 469.713Z" fill="white"/>
</g>
</g>
<defs>
<filter id="filter0_ddd_296_61051" x="18.5" y="109" width="418" height="70" filterUnits="userSpaceOnUse" color-interpolation-filters="sRGB">
<feFlood flood-opacity="0" result="BackgroundImageFix"/>
<feColorMatrix in="SourceAlpha" type="matrix" values="0 0 0 0 0 0 0 0 0 0 0 0 0 0 0 0 0 0 127 0" result="hardAlpha"/>
<feOffset dy="1"/>
<feGaussianBlur stdDeviation="1.5"/>
<feColorMatrix type="matrix" values="0 0 0 0 0 0 0 0 0 0 0 0 0 0 0 0 0 0 0.2 0"/>
<feBlend mode="normal" in2="BackgroundImageFix" result="effect1_dropShadow_296_61051"/>
<feColorMatrix in="SourceAlpha" type="matrix" values="0 0 0 0 0 0 0 0 0 0 0 0 0 0 0 0 0 0 127 0" result="hardAlpha"/>
<feOffset dy="2"/>
<feGaussianBlur stdDeviation="0.5"/>
<feColorMatrix type="matrix" values="0 0 0 0 0 0 0 0 0 0 0 0 0 0 0 0 0 0 0.12 0"/>
<feBlend mode="normal" in2="effect1_dropShadow_296_61051" result="effect2_dropShadow_296_61051"/>
<feColorMatrix in="SourceAlpha" type="matrix" values="0 0 0 0 0 0 0 0 0 0 0 0 0 0 0 0 0 0 127 0" result="hardAlpha"/>
<feOffset dy="1"/>
<feGaussianBlur stdDeviation="0.5"/>
<feColorMatrix type="matrix" values="0 0 0 0 0 0 0 0 0 0 0 0 0 0 0 0 0 0 0.14 0"/>
<feBlend mode="normal" in2="effect2_dropShadow_296_61051" result="effect3_dropShadow_296_61051"/>
<feBlend mode="normal" in="SourceGraphic" in2="effect3_dropShadow_296_61051" result="shape"/>
</filter>
<filter id="filter1_ddd_296_61051" x="475.5" y="78" width="418" height="132" filterUnits="userSpaceOnUse" color-interpolation-filters="sRGB">
<feFlood flood-opacity="0" result="BackgroundImageFix"/>
<feColorMatrix in="SourceAlpha" type="matrix" values="0 0 0 0 0 0 0 0 0 0 0 0 0 0 0 0 0 0 127 0" result="hardAlpha"/>
<feOffset dy="1"/>
<feGaussianBlur stdDeviation="1.5"/>
<feColorMatrix type="matrix" values="0 0 0 0 0 0 0 0 0 0 0 0 0 0 0 0 0 0 0.2 0"/>
<feBlend mode="normal" in2="BackgroundImageFix" result="effect1_dropShadow_296_61051"/>
<feColorMatrix in="SourceAlpha" type="matrix" values="0 0 0 0 0 0 0 0 0 0 0 0 0 0 0 0 0 0 127 0" result="hardAlpha"/>
<feOffset dy="2"/>
<feGaussianBlur stdDeviation="0.5"/>
<feColorMatrix type="matrix" values="0 0 0 0 0 0 0 0 0 0 0 0 0 0 0 0 0 0 0.12 0"/>
<feBlend mode="normal" in2="effect1_dropShadow_296_61051" result="effect2_dropShadow_296_61051"/>
<feColorMatrix in="SourceAlpha" type="matrix" values="0 0 0 0 0 0 0 0 0 0 0 0 0 0 0 0 0 0 127 0" result="hardAlpha"/>
<feOffset dy="1"/>
<feGaussianBlur stdDeviation="0.5"/>
<feColorMatrix type="matrix" values="0 0 0 0 0 0 0 0 0 0 0 0 0 0 0 0 0 0 0.14 0"/>
<feBlend mode="normal" in2="effect2_dropShadow_296_61051" result="effect3_dropShadow_296_61051"/>
<feBlend mode="normal" in="SourceGraphic" in2="effect3_dropShadow_296_61051" result="shape"/>
</filter>
<filter id="filter2_ddd_296_61051" x="18.5" y="397" width="418" height="70" filterUnits="userSpaceOnUse" color-interpolation-filters="sRGB">
<feFlood flood-opacity="0" result="BackgroundImageFix"/>
<feColorMatrix in="SourceAlpha" type="matrix" values="0 0 0 0 0 0 0 0 0 0 0 0 0 0 0 0 0 0 127 0" result="hardAlpha"/>
<feOffset dy="1"/>
<feGaussianBlur stdDeviation="1.5"/>
<feColorMatrix type="matrix" values="0 0 0 0 0 0 0 0 0 0 0 0 0 0 0 0 0 0 0.2 0"/>
<feBlend mode="normal" in2="BackgroundImageFix" result="effect1_dropShadow_296_61051"/>
<feColorMatrix in="SourceAlpha" type="matrix" values="0 0 0 0 0 0 0 0 0 0 0 0 0 0 0 0 0 0 127 0" result="hardAlpha"/>
<feOffset dy="2"/>
<feGaussianBlur stdDeviation="0.5"/>
<feColorMatrix type="matrix" values="0 0 0 0 0 0 0 0 0 0 0 0 0 0 0 0 0 0 0.12 0"/>
<feBlend mode="normal" in2="effect1_dropShadow_296_61051" result="effect2_dropShadow_296_61051"/>
<feColorMatrix in="SourceAlpha" type="matrix" values="0 0 0 0 0 0 0 0 0 0 0 0 0 0 0 0 0 0 127 0" result="hardAlpha"/>
<feOffset dy="1"/>
<feGaussianBlur stdDeviation="0.5"/>
<feColorMatrix type="matrix" values="0 0 0 0 0 0 0 0 0 0 0 0 0 0 0 0 0 0 0.14 0"/>
<feBlend mode="normal" in2="effect2_dropShadow_296_61051" result="effect3_dropShadow_296_61051"/>
<feBlend mode="normal" in="SourceGraphic" in2="effect3_dropShadow_296_61051" result="shape"/>
</filter>
<filter id="filter3_ddd_296_61051" x="475.5" y="366" width="418" height="132" filterUnits="userSpaceOnUse" color-interpolation-filters="sRGB">
<feFlood flood-opacity="0" result="BackgroundImageFix"/>
<feColorMatrix in="SourceAlpha" type="matrix" values="0 0 0 0 0 0 0 0 0 0 0 0 0 0 0 0 0 0 127 0" result="hardAlpha"/>
<feOffset dy="1"/>
<feGaussianBlur stdDeviation="1.5"/>
<feColorMatrix type="matrix" values="0 0 0 0 0 0 0 0 0 0 0 0 0 0 0 0 0 0 0.2 0"/>
<feBlend mode="normal" in2="BackgroundImageFix" result="effect1_dropShadow_296_61051"/>
<feColorMatrix in="SourceAlpha" type="matrix" values="0 0 0 0 0 0 0 0 0 0 0 0 0 0 0 0 0 0 127 0" result="hardAlpha"/>
<feOffset dy="2"/>
<feGaussianBlur stdDeviation="0.5"/>
<feColorMatrix type="matrix" values="0 0 0 0 0 0 0 0 0 0 0 0 0 0 0 0 0 0 0.12 0"/>
<feBlend mode="normal" in2="effect1_dropShadow_296_61051" result="effect2_dropShadow_296_61051"/>
<feColorMatrix in="SourceAlpha" type="matrix" values="0 0 0 0 0 0 0 0 0 0 0 0 0 0 0 0 0 0 127 0" result="hardAlpha"/>
<feOffset dy="1"/>
<feGaussianBlur stdDeviation="0.5"/>
<feColorMatrix type="matrix" values="0 0 0 0 0 0 0 0 0 0 0 0 0 0 0 0 0 0 0.14 0"/>
<feBlend mode="normal" in2="effect2_dropShadow_296_61051" result="effect3_dropShadow_296_61051"/>
<feBlend mode="normal" in="SourceGraphic" in2="effect3_dropShadow_296_61051" result="shape"/>
</filter>
<clipPath id="clip0_296_61051">
<rect width="912" height="574" fill="white"/>
</clipPath>
<clipPath id="clip1_296_61051">
<rect width="24" height="24" fill="white" transform="translate(850.5 100)"/>
</clipPath>
<clipPath id="clip2_296_61051">
<rect width="24" height="24" fill="white" transform="translate(393.5 419)"/>
</clipPath>
<clipPath id="clip3_296_61051">
<rect width="24" height="24" fill="white" transform="translate(850.5 388)"/>
</clipPath>
</defs>
</svg>
