<svg fill="none" height="260" viewBox="0 0 961 260" width="961" xmlns="http://www.w3.org/2000/svg" xmlns:xlink="http://www.w3.org/1999/xlink"><filter id="a" color-interpolation-filters="sRGB" filterUnits="userSpaceOnUse" height="70" width="418" x="271.5" y="23"><feFlood flood-opacity="0" result="BackgroundImageFix"/><feColorMatrix in="SourceAlpha" result="hardAlpha" type="matrix" values="0 0 0 0 0 0 0 0 0 0 0 0 0 0 0 0 0 0 127 0"/><feOffset dy="1"/><feGaussianBlur stdDeviation="1.5"/><feColorMatrix type="matrix" values="0 0 0 0 0 0 0 0 0 0 0 0 0 0 0 0 0 0 0.2 0"/><feBlend in2="BackgroundImageFix" mode="normal" result="effect1_dropShadow_431_73279"/><feColorMatrix in="SourceAlpha" result="hardAlpha" type="matrix" values="0 0 0 0 0 0 0 0 0 0 0 0 0 0 0 0 0 0 127 0"/><feOffset dy="2"/><feGaussianBlur stdDeviation=".5"/><feColorMatrix type="matrix" values="0 0 0 0 0 0 0 0 0 0 0 0 0 0 0 0 0 0 0.12 0"/><feBlend in2="effect1_dropShadow_431_73279" mode="normal" result="effect2_dropShadow_431_73279"/><feColorMatrix in="SourceAlpha" result="hardAlpha" type="matrix" values="0 0 0 0 0 0 0 0 0 0 0 0 0 0 0 0 0 0 127 0"/><feOffset dy="1"/><feGaussianBlur stdDeviation=".5"/><feColorMatrix type="matrix" values="0 0 0 0 0 0 0 0 0 0 0 0 0 0 0 0 0 0 0.14 0"/><feBlend in2="effect2_dropShadow_431_73279" mode="normal" result="effect3_dropShadow_431_73279"/><feBlend in="SourceGraphic" in2="effect3_dropShadow_431_73279" mode="normal" result="shape"/></filter><filter id="b" color-interpolation-filters="sRGB" filterUnits="userSpaceOnUse" height="132" width="418" x="271.5" y="107"><feFlood flood-opacity="0" result="BackgroundImageFix"/><feColorMatrix in="SourceAlpha" result="hardAlpha" type="matrix" values="0 0 0 0 0 0 0 0 0 0 0 0 0 0 0 0 0 0 127 0"/><feOffset dy="1"/><feGaussianBlur stdDeviation="1.5"/><feColorMatrix type="matrix" values="0 0 0 0 0 0 0 0 0 0 0 0 0 0 0 0 0 0 0.2 0"/><feBlend in2="BackgroundImageFix" mode="normal" result="effect1_dropShadow_431_73279"/><feColorMatrix in="SourceAlpha" result="hardAlpha" type="matrix" values="0 0 0 0 0 0 0 0 0 0 0 0 0 0 0 0 0 0 127 0"/><feOffset dy="2"/><feGaussianBlur stdDeviation=".5"/><feColorMatrix type="matrix" values="0 0 0 0 0 0 0 0 0 0 0 0 0 0 0 0 0 0 0.12 0"/><feBlend in2="effect1_dropShadow_431_73279" mode="normal" result="effect2_dropShadow_431_73279"/><feColorMatrix in="SourceAlpha" result="hardAlpha" type="matrix" values="0 0 0 0 0 0 0 0 0 0 0 0 0 0 0 0 0 0 127 0"/><feOffset dy="1"/><feGaussianBlur stdDeviation=".5"/><feColorMatrix type="matrix" values="0 0 0 0 0 0 0 0 0 0 0 0 0 0 0 0 0 0 0.14 0"/><feBlend in2="effect2_dropShadow_431_73279" mode="normal" result="effect3_dropShadow_431_73279"/><feBlend in="SourceGraphic" in2="effect3_dropShadow_431_73279" mode="normal" result="shape"/></filter><clipPath id="c"><path d="m598.5 45h24v24h-24z"/></clipPath><clipPath id="d"><rect height="48" rx="4" width="316" x="290.5" y="117"/></clipPath><path d="m0 0h961v260h-961z" fill="#f1f1f6"/><g filter="url(#a)"><path d="m0 0h412v64h-412z" fill="#fff" transform="translate(274.5 25)"/><g fill="#252a2e"><path d="m294.5 63h16c.55 0 1-.45 1-1s-.45-1-1-1h-16c-.55 0-1 .45-1 1s.45 1 1 1zm0-5h16c.55 0 1-.45 1-1s-.45-1-1-1h-16c-.55 0-1 .45-1 1s.45 1 1 1zm-1-6c0 .55.45 1 1 1h16c.55 0 1-.45 1-1s-.45-1-1-1h-16c-.55 0-1 .45-1 1z"/><path d="m344.5 47.75c-.442 0-.862.0878-1.244.2463-.382.1587-.821-.0229-.98-.4055s.023-.8214.406-.9801c.561-.2327 1.175-.3607 1.818-.3607h1.5c.414 0 .75.3358.75.75s-.336.75-.75.75z"/><path d="m348.25 47c0-.4142.336-.75.75-.75h3c.414 0 .75.3358.75.75s-.336.75-.75.75h-3c-.414 0-.75-.3358-.75-.75z"/><path d="m354.25 47c0-.4142.336-.75.75-.75h1.5c.643 0 1.257.128 1.818.3607.383.1587.565.5975.406.9801s-.598.5642-.98.4055c-.382-.1585-.802-.2463-1.244-.2463h-1.5c-.414 0-.75-.3358-.75-.75z"/><path d="m341.091 48.7761c.382.1586.564.5974.405.98-.158.3822-.246.8018-.246 1.2439v1.5c0 .4142-.336.75-.75.75s-.75-.3358-.75-.75v-1.5c0-.6427.128-1.2573.361-1.8184.158-.3827.597-.5642.98-.4055z"/><path d="m359.909 48.7761c.383-.1587.822.0228.98.4055.233.5611.361 1.1757.361 1.8184v1.5c0 .4142-.336.75-.75.75s-.75-.3358-.75-.75v-1.5c0-.4421-.088-.8617-.246-1.2439-.159-.3826.023-.8214.405-.98z"/><path d="m340.5 54.75c.414 0 .75.3358.75.75v3c0 .4142-.336.75-.75.75s-.75-.3358-.75-.75v-3c0-.4142.336-.75.75-.75z"/><path d="m360.5 54.75c.414 0 .75.3358.75.75v3c0 .4142-.336.75-.75.75s-.75-.3358-.75-.75v-3c0-.4142.336-.75.75-.75z"/><path d="m340.5 60.75c.414 0 .75.3358.75.75v1.5c0 .4421.088.8617.246 1.2439.159.3826-.023.8214-.405.98-.383.1587-.822-.0228-.98-.4055-.233-.5611-.361-1.1757-.361-1.8184v-1.5c0-.4142.336-.75.75-.75z"/><path d="m360.5 60.75c.414 0 .75.3358.75.75v1.5c0 .6427-.128 1.2573-.361 1.8184-.158.3827-.597.5642-.98.4055-.382-.1586-.564-.5974-.405-.98.158-.3822.246-.8018.246-1.2439v-1.5c0-.4142.336-.75.75-.75z"/><path d="m342.276 66.4092c.159-.3826.598-.5642.98-.4055.382.1585.802.2463 1.244.2463h1.5c.414 0 .75.3358.75.75s-.336.75-.75.75h-1.5c-.643 0-1.257-.128-1.818-.3607-.383-.1587-.565-.5975-.406-.9801z"/><path d="m358.724 66.4092c.159.3826-.023.8214-.406.9801-.561.2327-1.175.3607-1.818.3607h-1.5c-.414 0-.75-.3358-.75-.75s.336-.75.75-.75h1.5c.442 0 .862-.0878 1.244-.2463.382-.1587.821.0229.98.4055z"/><path d="m348.25 67c0-.4142.336-.75.75-.75h3c.414 0 .75.3358.75.75s-.336.75-.75.75h-3c-.414 0-.75-.3358-.75-.75z"/><path d="m359.03 49.591c.293-.2929.293-.7678 0-1.0607s-.767-.2929-1.06 0l-.997.9962c-.292.2929-.292.7678 0 1.0607.293.2929.768.2929 1.061 0z"/><path d="m356.042 52.5796c.293-.2929.293-.7678 0-1.0606-.293-.2929-.768-.2929-1.061 0l-1.992 1.9924c-.293.2929-.293.7677 0 1.0606s.767.2929 1.06 0z"/><path d="m352.057 56.5645c.293-.2929.293-.7678 0-1.0607s-.768-.2929-1.061 0l-.496.4962-.496-.4962c-.293-.2929-.768-.2929-1.061 0s-.293.7678 0 1.0607l.496.4962-.435.4355c-.293.2929-.293.7678 0 1.0607s.768.2929 1.06 0l.436-.4356.436.4356c.292.2929.767.2929 1.06 0s.293-.7678 0-1.0607l-.435-.4355z"/><path d="m348.072 60.5493c.293-.2929.293-.7678 0-1.0607s-.768-.2929-1.061 0l-1.992 1.9924c-.293.2929-.293.7678 0 1.0607s.768.2929 1.061 0z"/><path d="m344.087 64.5341c.293-.2929.293-.7677 0-1.0606s-.768-.2929-1.06 0l-.997.9962c-.293.2929-.293.7677 0 1.0606s.768.2929 1.061 0z"/><path d="m357.909 65.5303c.293.2929.768.2929 1.061 0s.293-.7677 0-1.0606l-.997-.9962c-.292-.2929-.767-.2929-1.06 0s-.293.7677 0 1.0606z"/><path d="m354.92 62.5417c.293.2929.768.2929 1.061 0s.293-.7678 0-1.0607l-1.992-1.9924c-.293-.2929-.768-.2929-1.061 0s-.293.7678 0 1.0607z"/><path d="m346.951 54.572c.293.2929.767.2929 1.06 0s.293-.7677 0-1.0606l-1.992-1.9924c-.293-.2929-.768-.2929-1.061 0-.293.2928-.293.7677 0 1.0606z"/><path d="m342.966 50.5872c.293.2929.768.2929 1.061 0 .292-.2929.292-.7678 0-1.0607l-.997-.9962c-.293-.2929-.767-.2929-1.06 0s-.293.7678 0 1.0607z"/><path d="m347.556 51.889c.298-.0902.615-.139.944-.139h.75c.414 0 .75-.3358.75-.75s-.336-.75-.75-.75h-.75c-.478 0-.942.071-1.379.2035-.396.1201-.62.5388-.5.9352s.539.6204.935.5003z"/><path d="m351.75 50.25c-.414 0-.75.3358-.75.75s.336.75.75.75h.75c.329 0 .646.0488.944.139.396.1201.815-.1039.935-.5003s-.104-.8151-.5-.9352c-.437-.1325-.901-.2035-1.379-.2035z"/><path d="m345.389 54.0559c.12-.3964-.104-.8151-.5-.9352-.397-.1201-.815.1039-.936.5003-.132.4373-.203.9006-.203 1.379v.75c0 .4142.336.75.75.75s.75-.3358.75-.75v-.75c0-.3295.049-.6462.139-.9441z"/><path d="m357.047 53.621c-.121-.3964-.539-.6204-.936-.5003-.396.1201-.62.5388-.5.9352.09.2979.139.6146.139.9441v.75c0 .4142.336.75.75.75s.75-.3358.75-.75v-.75c0-.4784-.071-.9417-.203-1.379z"/><path d="m345.25 58.25c0-.4142-.336-.75-.75-.75s-.75.3358-.75.75v.75c0 .4784.071.9417.203 1.379.121.3964.539.6204.936.5003.396-.1201.62-.5388.5-.9352-.09-.2979-.139-.6146-.139-.9441z"/><path d="m357.25 58.25c0-.4142-.336-.75-.75-.75s-.75.3358-.75.75v.75c0 .3295-.049.6462-.139.9441-.12.3964.104.8151.5.9352.397.1201.815-.1039.936-.5003.132-.4373.203-.9006.203-1.379z"/><path d="m347.556 62.111c-.396-.1201-.815.1039-.935.5003s.104.8151.5.9352c.437.1325.901.2035 1.379.2035h.75c.414 0 .75-.3358.75-.75s-.336-.75-.75-.75h-.75c-.329 0-.646-.0488-.944-.139z"/><path d="m353.879 63.5465c.396-.1201.62-.5388.5-.9352s-.539-.6204-.935-.5003c-.298.0902-.615.139-.944.139h-.75c-.414 0-.75.3358-.75.75s.336.75.75.75h.75c.478 0 .942-.071 1.379-.2035z"/><path d="m389.326 65h-2.353v-12.2852h-4.18v-1.9921h10.703v1.9921h-4.17zm8.568-10.8105v10.8105h-2.295v-10.8105zm-1.133-4.1407c.352 0 .655.0944.909.2832.26.1888.39.5144.39.9766 0 .4557-.13.7812-.39.9766-.254.1888-.557.2832-.909.2832-.364 0-.674-.0944-.927-.2832-.248-.1954-.372-.5209-.372-.9766 0-.4622.124-.7878.372-.9766.253-.1888.563-.2832.927-.2832zm8.598 13.291c.299 0 .595-.026.888-.0781.293-.0586.56-.1269.801-.2051v1.7383c-.254.1107-.583.2051-.986.2832-.404.0781-.824.1172-1.26.1172-.612 0-1.162-.1009-1.65-.3027-.489-.2084-.876-.5632-1.163-1.0645-.286-.5013-.429-1.1946-.429-2.0801v-5.8105h-1.475v-1.0254l1.582-.8105.752-2.3145h1.445v2.4024h3.096v1.748h-3.096v5.7813c0 .5468.137.9537.411 1.2207.273.2669.634.4003 1.084.4003zm6.341 1.6602h-2.305v-15.1953h2.305zm7.738-11.0156c.963 0 1.79.1985 2.48.5957.69.3971 1.221.9603 1.592 1.6894.371.7292.557 1.6016.557 2.6172v1.2305h-7.217c.026 1.0482.306 1.8555.84 2.4219.54.5664 1.295.8496 2.265.8496.691 0 1.309-.0651 1.856-.1953.553-.1368 1.123-.3353 1.709-.5957v1.8652c-.54.2539-1.091.4394-1.65.5566-.56.1172-1.231.1758-2.012.1758-1.061 0-1.996-.2051-2.803-.6152-.801-.4167-1.429-1.0352-1.885-1.8555-.449-.8203-.674-1.8392-.674-3.0566 0-1.211.206-2.2396.616-3.086.41-.8463.986-1.4909 1.728-1.9336s1.608-.664 2.598-.664zm0 1.7285c-.723 0-1.309.2344-1.758.7031-.443.4688-.703 1.1556-.781 2.0606h4.922c-.007-.5404-.098-1.0189-.274-1.4356-.169-.4167-.429-.7422-.781-.9765-.345-.2344-.788-.3516-1.328-.3516z"/><path d="m450.9 54.2501c-.106-.226-.274-.4169-.485-.5499s-.456-.2025-.705-.2001h-8.43c-.52 0-.99.29-1.19.75-.19.43-.1.91.22 1.25l4.22 4.58c.24.26.6.42.97.42s.73-.15.97-.42l4.22-4.58c.32-.35.4-.83.22-1.25z"/><path d="m518.88 59.9199-.66.05-.41-.41c2.44-2.81 2.28-7.1-.5-9.7s-7.01-2.46-9.64.08c-2.82 2.73-2.85 7.22-.08 9.98 2.61 2.61 6.77 2.72 9.52.34l.41.41-.05.65 3.89 3.89c.39.39 1.02.39 1.41 0s.39-1.02 0-1.41l-3.88-3.88zm-2.81-1.41c-1.95 1.95-5.13 1.95-7.08 0s-1.95-5.13 0-7.08 5.13-1.95 7.08 0 1.95 5.13 0 7.08z"/><path d="m570.5 48h-2c0-.55-.45-1-1-1s-1 .45-1 1h-8c0-.55-.45-1-1-1s-1 .45-1 1h-2c-1.1 0-2 .9-2 2v15c0 1.1.9 2 2 2h16c1.1 0 2-.9 2-2v-15c0-1.1-.9-2-2-2zm-11 11h-3v-3h3zm4.5 0h-3v-3h3zm4.5 0h-3v-3h3zm2-6.71c0 .39-.32.71-.71.71h-14.58c-.39 0-.71-.32-.71-.71v-1.59c0-.39.32-.71.71-.71h1.29v1.01c0 .55.45 1 1 1s1-.45 1-1v-1l8-.01v1.01c0 .55.45 1 1 1s1-.45 1-1v-1l1.29-.01c.39 0 .71.32.71.71z"/></g><g clip-path="url(#c)"><path d="m609.09 55.59c-.78.78-.78 2.05 0 2.83s2.05.78 2.83 0 .78-2.05 0-2.83-2.05-.78-2.83 0zm0-7c-.78.78-.78 2.05 0 2.83s2.05.78 2.83 0 .78-2.05 0-2.83-2.05-.78-2.83 0zm0 14c-.78.78-.78 2.05 0 2.83s2.05.78 2.83 0 .78-2.05 0-2.83-2.05-.78-2.83 0z" fill="#252a2e"/></g><path d="m658.5 47c-5.52 0-10 4.48-10 10s4.48 10 10 10 10-4.48 10-10-4.48-10-10-10zm0 4c2.07 0 3.75 1.68 3.75 3.75s-1.68 3.75-3.75 3.75-3.75-1.68-3.75-3.75 1.68-3.75 3.75-3.75zm0 14c-2.84 0-5.34-1.5-6.76-3.74.13-.07.27-.14.43-.21 1.22-.56 3.47-1.37 6.33-1.37 2.87 0 5.12.81 6.33 1.37.16.07.3.15.43.22-1.42 2.24-3.91 3.73-6.76 3.73z" fill="#252a2e"/></g><g filter="url(#b)"><path d="m0 0h412v126h-412z" fill="#004f83" transform="translate(274.5 109)"/><g clip-path="url(#d)"><rect fill="#fff" height="48" rx="4" width="316" x="290.5" y="117"/><g fill="#90939f"><path d="m318.88 143.92-.66.05-.41-.41c2.44-2.81 2.28-7.1-.5-9.7s-7.01-2.46-9.64.08c-2.82 2.73-2.85 7.22-.08 9.98 2.61 2.61 6.77 2.72 9.52.34l.41.41-.05.65 3.89 3.89c.39.39 1.02.39 1.41 0s.39-1.02 0-1.41l-3.88-3.88zm-2.81-1.41c-1.95 1.95-5.13 1.95-7.08 0s-1.95-5.13 0-7.08 5.13-1.95 7.08 0 1.95 5.13 0 7.08z"/><path d="m346.516 143.961c0 1.005-.365 1.789-1.094 2.351-.729.563-1.719.844-2.969.844-1.354 0-2.396-.174-3.125-.523v-1.281c.469.197.979.354 1.531.468.552.115 1.099.172 1.641.172.885 0 1.552-.166 2-.5.448-.338.672-.807.672-1.406 0-.396-.081-.719-.242-.969-.157-.255-.422-.489-.797-.703-.37-.213-.935-.456-1.695-.726-1.063-.381-1.823-.831-2.282-1.352-.453-.521-.679-1.201-.679-2.039 0-.88.33-1.581.992-2.102.661-.521 1.536-.781 2.625-.781 1.135 0 2.179.208 3.133.625l-.415 1.156c-.942-.396-1.859-.593-2.75-.593-.703 0-1.252.151-1.648.453s-.594.721-.594 1.257c0 .396.073.722.219.977.146.25.391.482.734.695.349.209.881.44 1.594.696 1.198.427 2.021.885 2.469 1.375.453.489.68 1.125.68 1.906zm5.907 3.195c-1.265 0-2.265-.385-3-1.156-.729-.771-1.093-1.841-1.093-3.211 0-1.38.338-2.477 1.015-3.289.683-.812 1.597-1.219 2.742-1.219 1.073 0 1.922.354 2.547 1.063.625.703.938 1.633.938 2.789v.82h-5.899c.026 1.005.279 1.768.758 2.289.485.521 1.164.781 2.039.781.922 0 1.834-.192 2.735-.578v1.157c-.459.197-.894.338-1.305.421-.406.089-.898.133-1.477.133zm-.351-7.789c-.688 0-1.237.224-1.649.672-.406.448-.645 1.068-.718 1.859h4.476c0-.817-.182-1.442-.547-1.875-.364-.437-.885-.656-1.562-.656zm11.134 7.633-.258-1.219h-.062c-.427.537-.854.901-1.281 1.094-.422.187-.951.281-1.586.281-.849 0-1.516-.218-2-.656-.479-.438-.719-1.06-.719-1.867 0-1.729 1.383-2.636 4.148-2.719l1.454-.047v-.531c0-.672-.146-1.167-.438-1.484-.286-.323-.747-.485-1.383-.485-.713 0-1.521.219-2.422.656l-.398-.992c.422-.229.883-.409 1.383-.539.505-.13 1.01-.195 1.515-.195 1.021 0 1.776.226 2.266.68.495.453.742 1.179.742 2.179v5.844zm-2.929-.914c.807 0 1.44-.221 1.898-.664.464-.443.695-1.063.695-1.86v-.773l-1.297.055c-1.031.036-1.776.198-2.234.484-.453.281-.68.721-.68 1.32 0 .469.141.826.422 1.071.287.245.685.367 1.196.367zm10.626-7.805c.38 0 .721.031 1.024.094l-.18 1.203c-.354-.078-.667-.117-.938-.117-.692 0-1.286.281-1.781.844-.489.562-.734 1.263-.734 2.101v4.594h-1.297v-8.562h1.07l.149 1.585h.062c.318-.557.701-.987 1.149-1.289.447-.302.94-.453 1.476-.453zm6.197 8.875c-1.24 0-2.201-.38-2.883-1.14-.677-.766-1.015-1.847-1.015-3.243 0-1.432.343-2.539 1.031-3.32.693-.781 1.677-1.172 2.953-1.172.411 0 .823.045 1.234.133.412.089.735.193.969.313l-.398 1.101c-.287-.114-.599-.208-.938-.281-.338-.078-.638-.117-.898-.117-1.74 0-2.61 1.109-2.61 3.328 0 1.052.211 1.859.633 2.422.427.562 1.057.843 1.891.843.713 0 1.445-.153 2.195-.461v1.149c-.573.297-1.294.445-2.164.445zm10.212-.156v-5.539c0-.698-.158-1.219-.476-1.563-.318-.343-.815-.515-1.492-.515-.901 0-1.56.245-1.977.734-.411.49-.617 1.292-.617 2.406v4.477h-1.297v-12.156h1.297v3.679c0 .443-.021.81-.062 1.102h.078c.255-.411.617-.734 1.086-.969.474-.239 1.013-.359 1.617-.359 1.047 0 1.83.25 2.351.75.526.495.789 1.284.789 2.367v5.586z"/></g></g><rect height="48" rx="4" stroke="#b7b9c3" width="316" x="290.5" y="117"/><g fill="#fff"><path d="m652.8 134.71c-.39-.39-1.02-.39-1.41 0l-4.89 4.89-4.89-4.89c-.39-.39-1.02-.39-1.41 0s-.39 1.02 0 1.41l4.89 4.89-4.89 4.89c-.39.39-.39 1.02 0 1.41s1.02.39 1.41 0l4.89-4.89 4.89 4.89c.39.39 1.02.39 1.41 0s.39-1.02 0-1.41l-4.89-4.89 4.89-4.89c.39-.39.39-1.02 0-1.41z"/><path d="m297.326 220h-2.353v-12.285h-4.18v-1.992h10.703v1.992h-4.17zm8.568-10.811v10.811h-2.295v-10.811zm-1.133-4.14c.352 0 .655.094.909.283.26.189.39.514.39.977 0 .455-.13.781-.39.976-.254.189-.557.283-.909.283-.364 0-.674-.094-.927-.283-.248-.195-.372-.521-.372-.976 0-.463.124-.788.372-.977.253-.189.563-.283.927-.283zm8.598 13.291c.299 0 .595-.026.888-.078.293-.059.56-.127.801-.205v1.738c-.254.111-.583.205-.986.283-.404.078-.824.117-1.26.117-.612 0-1.162-.101-1.65-.302-.489-.209-.876-.564-1.163-1.065-.286-.501-.429-1.195-.429-2.08v-5.81h-1.475v-1.026l1.582-.81.752-2.315h1.445v2.402h3.096v1.749h-3.096v5.781c0 .547.137.954.411 1.22.273.267.634.401 1.084.401zm6.341 1.66h-2.305v-15.195h2.305zm7.738-11.016c.963 0 1.79.199 2.48.596s1.221.96 1.592 1.69c.371.729.557 1.601.557 2.617v1.23h-7.217c.026 1.048.306 1.856.84 2.422.54.566 1.295.85 2.265.85.691 0 1.309-.065 1.856-.196.553-.136 1.123-.335 1.709-.595v1.865c-.54.254-1.091.439-1.65.557-.56.117-1.231.175-2.012.175-1.061 0-1.996-.205-2.803-.615-.801-.417-1.429-1.035-1.885-1.855-.449-.821-.674-1.84-.674-3.057 0-1.211.206-2.24.616-3.086s.986-1.491 1.728-1.934c.742-.442 1.608-.664 2.598-.664zm0 1.729c-.723 0-1.309.234-1.758.703-.443.469-.703 1.156-.781 2.061h4.922c-.007-.541-.098-1.019-.274-1.436-.169-.417-.429-.742-.781-.977-.345-.234-.788-.351-1.328-.351z"/></g></g></svg>