<svg fill="none" height="594" viewBox="0 0 960 594" width="960" xmlns="http://www.w3.org/2000/svg" xmlns:xlink="http://www.w3.org/1999/xlink"><filter id="a" color-interpolation-filters="sRGB" filterUnits="userSpaceOnUse" height="70" width="418" x="30.5" y="78"><feFlood flood-opacity="0" result="BackgroundImageFix"/><feColorMatrix in="SourceAlpha" result="hardAlpha" type="matrix" values="0 0 0 0 0 0 0 0 0 0 0 0 0 0 0 0 0 0 127 0"/><feOffset dy="1"/><feGaussianBlur stdDeviation="1.5"/><feColorMatrix type="matrix" values="0 0 0 0 0 0 0 0 0 0 0 0 0 0 0 0 0 0 0.2 0"/><feBlend in2="BackgroundImageFix" mode="normal" result="effect1_dropShadow_296_61265"/><feColorMatrix in="SourceAlpha" result="hardAlpha" type="matrix" values="0 0 0 0 0 0 0 0 0 0 0 0 0 0 0 0 0 0 127 0"/><feOffset dy="2"/><feGaussianBlur stdDeviation=".5"/><feColorMatrix type="matrix" values="0 0 0 0 0 0 0 0 0 0 0 0 0 0 0 0 0 0 0.12 0"/><feBlend in2="effect1_dropShadow_296_61265" mode="normal" result="effect2_dropShadow_296_61265"/><feColorMatrix in="SourceAlpha" result="hardAlpha" type="matrix" values="0 0 0 0 0 0 0 0 0 0 0 0 0 0 0 0 0 0 127 0"/><feOffset dy="1"/><feGaussianBlur stdDeviation=".5"/><feColorMatrix type="matrix" values="0 0 0 0 0 0 0 0 0 0 0 0 0 0 0 0 0 0 0.14 0"/><feBlend in2="effect2_dropShadow_296_61265" mode="normal" result="effect3_dropShadow_296_61265"/><feBlend in="SourceGraphic" in2="effect3_dropShadow_296_61265" mode="normal" result="shape"/></filter><filter id="b" color-interpolation-filters="sRGB" filterUnits="userSpaceOnUse" height="70" width="418" x="30.5" y="152"><feFlood flood-opacity="0" result="BackgroundImageFix"/><feColorMatrix in="SourceAlpha" result="hardAlpha" type="matrix" values="0 0 0 0 0 0 0 0 0 0 0 0 0 0 0 0 0 0 127 0"/><feOffset dy="1"/><feGaussianBlur stdDeviation="1.5"/><feColorMatrix type="matrix" values="0 0 0 0 0 0 0 0 0 0 0 0 0 0 0 0 0 0 0.2 0"/><feBlend in2="BackgroundImageFix" mode="normal" result="effect1_dropShadow_296_61265"/><feColorMatrix in="SourceAlpha" result="hardAlpha" type="matrix" values="0 0 0 0 0 0 0 0 0 0 0 0 0 0 0 0 0 0 127 0"/><feOffset dy="2"/><feGaussianBlur stdDeviation=".5"/><feColorMatrix type="matrix" values="0 0 0 0 0 0 0 0 0 0 0 0 0 0 0 0 0 0 0.12 0"/><feBlend in2="effect1_dropShadow_296_61265" mode="normal" result="effect2_dropShadow_296_61265"/><feColorMatrix in="SourceAlpha" result="hardAlpha" type="matrix" values="0 0 0 0 0 0 0 0 0 0 0 0 0 0 0 0 0 0 127 0"/><feOffset dy="1"/><feGaussianBlur stdDeviation=".5"/><feColorMatrix type="matrix" values="0 0 0 0 0 0 0 0 0 0 0 0 0 0 0 0 0 0 0.14 0"/><feBlend in2="effect2_dropShadow_296_61265" mode="normal" result="effect3_dropShadow_296_61265"/><feBlend in="SourceGraphic" in2="effect3_dropShadow_296_61265" mode="normal" result="shape"/></filter><filter id="c" color-interpolation-filters="sRGB" filterUnits="userSpaceOnUse" height="70" width="418" x="30.5" y="226"><feFlood flood-opacity="0" result="BackgroundImageFix"/><feColorMatrix in="SourceAlpha" result="hardAlpha" type="matrix" values="0 0 0 0 0 0 0 0 0 0 0 0 0 0 0 0 0 0 127 0"/><feOffset dy="1"/><feGaussianBlur stdDeviation="1.5"/><feColorMatrix type="matrix" values="0 0 0 0 0 0 0 0 0 0 0 0 0 0 0 0 0 0 0.2 0"/><feBlend in2="BackgroundImageFix" mode="normal" result="effect1_dropShadow_296_61265"/><feColorMatrix in="SourceAlpha" result="hardAlpha" type="matrix" values="0 0 0 0 0 0 0 0 0 0 0 0 0 0 0 0 0 0 127 0"/><feOffset dy="2"/><feGaussianBlur stdDeviation=".5"/><feColorMatrix type="matrix" values="0 0 0 0 0 0 0 0 0 0 0 0 0 0 0 0 0 0 0.12 0"/><feBlend in2="effect1_dropShadow_296_61265" mode="normal" result="effect2_dropShadow_296_61265"/><feColorMatrix in="SourceAlpha" result="hardAlpha" type="matrix" values="0 0 0 0 0 0 0 0 0 0 0 0 0 0 0 0 0 0 127 0"/><feOffset dy="1"/><feGaussianBlur stdDeviation=".5"/><feColorMatrix type="matrix" values="0 0 0 0 0 0 0 0 0 0 0 0 0 0 0 0 0 0 0.14 0"/><feBlend in2="effect2_dropShadow_296_61265" mode="normal" result="effect3_dropShadow_296_61265"/><feBlend in="SourceGraphic" in2="effect3_dropShadow_296_61265" mode="normal" result="shape"/></filter><filter id="d" color-interpolation-filters="sRGB" filterUnits="userSpaceOnUse" height="70" width="418" x="30.5" y="300"><feFlood flood-opacity="0" result="BackgroundImageFix"/><feColorMatrix in="SourceAlpha" result="hardAlpha" type="matrix" values="0 0 0 0 0 0 0 0 0 0 0 0 0 0 0 0 0 0 127 0"/><feOffset dy="1"/><feGaussianBlur stdDeviation="1.5"/><feColorMatrix type="matrix" values="0 0 0 0 0 0 0 0 0 0 0 0 0 0 0 0 0 0 0.2 0"/><feBlend in2="BackgroundImageFix" mode="normal" result="effect1_dropShadow_296_61265"/><feColorMatrix in="SourceAlpha" result="hardAlpha" type="matrix" values="0 0 0 0 0 0 0 0 0 0 0 0 0 0 0 0 0 0 127 0"/><feOffset dy="2"/><feGaussianBlur stdDeviation=".5"/><feColorMatrix type="matrix" values="0 0 0 0 0 0 0 0 0 0 0 0 0 0 0 0 0 0 0.12 0"/><feBlend in2="effect1_dropShadow_296_61265" mode="normal" result="effect2_dropShadow_296_61265"/><feColorMatrix in="SourceAlpha" result="hardAlpha" type="matrix" values="0 0 0 0 0 0 0 0 0 0 0 0 0 0 0 0 0 0 127 0"/><feOffset dy="1"/><feGaussianBlur stdDeviation=".5"/><feColorMatrix type="matrix" values="0 0 0 0 0 0 0 0 0 0 0 0 0 0 0 0 0 0 0.14 0"/><feBlend in2="effect2_dropShadow_296_61265" mode="normal" result="effect3_dropShadow_296_61265"/><feBlend in="SourceGraphic" in2="effect3_dropShadow_296_61265" mode="normal" result="shape"/></filter><filter id="e" color-interpolation-filters="sRGB" filterUnits="userSpaceOnUse" height="70" width="418" x="30.5" y="374"><feFlood flood-opacity="0" result="BackgroundImageFix"/><feColorMatrix in="SourceAlpha" result="hardAlpha" type="matrix" values="0 0 0 0 0 0 0 0 0 0 0 0 0 0 0 0 0 0 127 0"/><feOffset dy="1"/><feGaussianBlur stdDeviation="1.5"/><feColorMatrix type="matrix" values="0 0 0 0 0 0 0 0 0 0 0 0 0 0 0 0 0 0 0.2 0"/><feBlend in2="BackgroundImageFix" mode="normal" result="effect1_dropShadow_296_61265"/><feColorMatrix in="SourceAlpha" result="hardAlpha" type="matrix" values="0 0 0 0 0 0 0 0 0 0 0 0 0 0 0 0 0 0 127 0"/><feOffset dy="2"/><feGaussianBlur stdDeviation=".5"/><feColorMatrix type="matrix" values="0 0 0 0 0 0 0 0 0 0 0 0 0 0 0 0 0 0 0.12 0"/><feBlend in2="effect1_dropShadow_296_61265" mode="normal" result="effect2_dropShadow_296_61265"/><feColorMatrix in="SourceAlpha" result="hardAlpha" type="matrix" values="0 0 0 0 0 0 0 0 0 0 0 0 0 0 0 0 0 0 127 0"/><feOffset dy="1"/><feGaussianBlur stdDeviation=".5"/><feColorMatrix type="matrix" values="0 0 0 0 0 0 0 0 0 0 0 0 0 0 0 0 0 0 0.14 0"/><feBlend in2="effect2_dropShadow_296_61265" mode="normal" result="effect3_dropShadow_296_61265"/><feBlend in="SourceGraphic" in2="effect3_dropShadow_296_61265" mode="normal" result="shape"/></filter><filter id="f" color-interpolation-filters="sRGB" filterUnits="userSpaceOnUse" height="70" width="418" x="30.5" y="448"><feFlood flood-opacity="0" result="BackgroundImageFix"/><feColorMatrix in="SourceAlpha" result="hardAlpha" type="matrix" values="0 0 0 0 0 0 0 0 0 0 0 0 0 0 0 0 0 0 127 0"/><feOffset dy="1"/><feGaussianBlur stdDeviation="1.5"/><feColorMatrix type="matrix" values="0 0 0 0 0 0 0 0 0 0 0 0 0 0 0 0 0 0 0.2 0"/><feBlend in2="BackgroundImageFix" mode="normal" result="effect1_dropShadow_296_61265"/><feColorMatrix in="SourceAlpha" result="hardAlpha" type="matrix" values="0 0 0 0 0 0 0 0 0 0 0 0 0 0 0 0 0 0 127 0"/><feOffset dy="2"/><feGaussianBlur stdDeviation=".5"/><feColorMatrix type="matrix" values="0 0 0 0 0 0 0 0 0 0 0 0 0 0 0 0 0 0 0.12 0"/><feBlend in2="effect1_dropShadow_296_61265" mode="normal" result="effect2_dropShadow_296_61265"/><feColorMatrix in="SourceAlpha" result="hardAlpha" type="matrix" values="0 0 0 0 0 0 0 0 0 0 0 0 0 0 0 0 0 0 127 0"/><feOffset dy="1"/><feGaussianBlur stdDeviation=".5"/><feColorMatrix type="matrix" values="0 0 0 0 0 0 0 0 0 0 0 0 0 0 0 0 0 0 0.14 0"/><feBlend in2="effect2_dropShadow_296_61265" mode="normal" result="effect3_dropShadow_296_61265"/><feBlend in="SourceGraphic" in2="effect3_dropShadow_296_61265" mode="normal" result="shape"/></filter><filter id="g" color-interpolation-filters="sRGB" filterUnits="userSpaceOnUse" height="70" width="418" x="511.5" y="78"><feFlood flood-opacity="0" result="BackgroundImageFix"/><feColorMatrix in="SourceAlpha" result="hardAlpha" type="matrix" values="0 0 0 0 0 0 0 0 0 0 0 0 0 0 0 0 0 0 127 0"/><feOffset dy="1"/><feGaussianBlur stdDeviation="1.5"/><feColorMatrix type="matrix" values="0 0 0 0 0 0 0 0 0 0 0 0 0 0 0 0 0 0 0.2 0"/><feBlend in2="BackgroundImageFix" mode="normal" result="effect1_dropShadow_296_61265"/><feColorMatrix in="SourceAlpha" result="hardAlpha" type="matrix" values="0 0 0 0 0 0 0 0 0 0 0 0 0 0 0 0 0 0 127 0"/><feOffset dy="2"/><feGaussianBlur stdDeviation=".5"/><feColorMatrix type="matrix" values="0 0 0 0 0 0 0 0 0 0 0 0 0 0 0 0 0 0 0.12 0"/><feBlend in2="effect1_dropShadow_296_61265" mode="normal" result="effect2_dropShadow_296_61265"/><feColorMatrix in="SourceAlpha" result="hardAlpha" type="matrix" values="0 0 0 0 0 0 0 0 0 0 0 0 0 0 0 0 0 0 127 0"/><feOffset dy="1"/><feGaussianBlur stdDeviation=".5"/><feColorMatrix type="matrix" values="0 0 0 0 0 0 0 0 0 0 0 0 0 0 0 0 0 0 0.14 0"/><feBlend in2="effect2_dropShadow_296_61265" mode="normal" result="effect3_dropShadow_296_61265"/><feBlend in="SourceGraphic" in2="effect3_dropShadow_296_61265" mode="normal" result="shape"/></filter><filter id="h" color-interpolation-filters="sRGB" filterUnits="userSpaceOnUse" height="70" width="418" x="511.5" y="152"><feFlood flood-opacity="0" result="BackgroundImageFix"/><feColorMatrix in="SourceAlpha" result="hardAlpha" type="matrix" values="0 0 0 0 0 0 0 0 0 0 0 0 0 0 0 0 0 0 127 0"/><feOffset dy="1"/><feGaussianBlur stdDeviation="1.5"/><feColorMatrix type="matrix" values="0 0 0 0 0 0 0 0 0 0 0 0 0 0 0 0 0 0 0.2 0"/><feBlend in2="BackgroundImageFix" mode="normal" result="effect1_dropShadow_296_61265"/><feColorMatrix in="SourceAlpha" result="hardAlpha" type="matrix" values="0 0 0 0 0 0 0 0 0 0 0 0 0 0 0 0 0 0 127 0"/><feOffset dy="2"/><feGaussianBlur stdDeviation=".5"/><feColorMatrix type="matrix" values="0 0 0 0 0 0 0 0 0 0 0 0 0 0 0 0 0 0 0.12 0"/><feBlend in2="effect1_dropShadow_296_61265" mode="normal" result="effect2_dropShadow_296_61265"/><feColorMatrix in="SourceAlpha" result="hardAlpha" type="matrix" values="0 0 0 0 0 0 0 0 0 0 0 0 0 0 0 0 0 0 127 0"/><feOffset dy="1"/><feGaussianBlur stdDeviation=".5"/><feColorMatrix type="matrix" values="0 0 0 0 0 0 0 0 0 0 0 0 0 0 0 0 0 0 0.14 0"/><feBlend in2="effect2_dropShadow_296_61265" mode="normal" result="effect3_dropShadow_296_61265"/><feBlend in="SourceGraphic" in2="effect3_dropShadow_296_61265" mode="normal" result="shape"/></filter><filter id="i" color-interpolation-filters="sRGB" filterUnits="userSpaceOnUse" height="70" width="418" x="511.5" y="226"><feFlood flood-opacity="0" result="BackgroundImageFix"/><feColorMatrix in="SourceAlpha" result="hardAlpha" type="matrix" values="0 0 0 0 0 0 0 0 0 0 0 0 0 0 0 0 0 0 127 0"/><feOffset dy="1"/><feGaussianBlur stdDeviation="1.5"/><feColorMatrix type="matrix" values="0 0 0 0 0 0 0 0 0 0 0 0 0 0 0 0 0 0 0.2 0"/><feBlend in2="BackgroundImageFix" mode="normal" result="effect1_dropShadow_296_61265"/><feColorMatrix in="SourceAlpha" result="hardAlpha" type="matrix" values="0 0 0 0 0 0 0 0 0 0 0 0 0 0 0 0 0 0 127 0"/><feOffset dy="2"/><feGaussianBlur stdDeviation=".5"/><feColorMatrix type="matrix" values="0 0 0 0 0 0 0 0 0 0 0 0 0 0 0 0 0 0 0.12 0"/><feBlend in2="effect1_dropShadow_296_61265" mode="normal" result="effect2_dropShadow_296_61265"/><feColorMatrix in="SourceAlpha" result="hardAlpha" type="matrix" values="0 0 0 0 0 0 0 0 0 0 0 0 0 0 0 0 0 0 127 0"/><feOffset dy="1"/><feGaussianBlur stdDeviation=".5"/><feColorMatrix type="matrix" values="0 0 0 0 0 0 0 0 0 0 0 0 0 0 0 0 0 0 0.14 0"/><feBlend in2="effect2_dropShadow_296_61265" mode="normal" result="effect3_dropShadow_296_61265"/><feBlend in="SourceGraphic" in2="effect3_dropShadow_296_61265" mode="normal" result="shape"/></filter><filter id="j" color-interpolation-filters="sRGB" filterUnits="userSpaceOnUse" height="70" width="418" x="511.5" y="300"><feFlood flood-opacity="0" result="BackgroundImageFix"/><feColorMatrix in="SourceAlpha" result="hardAlpha" type="matrix" values="0 0 0 0 0 0 0 0 0 0 0 0 0 0 0 0 0 0 127 0"/><feOffset dy="1"/><feGaussianBlur stdDeviation="1.5"/><feColorMatrix type="matrix" values="0 0 0 0 0 0 0 0 0 0 0 0 0 0 0 0 0 0 0.2 0"/><feBlend in2="BackgroundImageFix" mode="normal" result="effect1_dropShadow_296_61265"/><feColorMatrix in="SourceAlpha" result="hardAlpha" type="matrix" values="0 0 0 0 0 0 0 0 0 0 0 0 0 0 0 0 0 0 127 0"/><feOffset dy="2"/><feGaussianBlur stdDeviation=".5"/><feColorMatrix type="matrix" values="0 0 0 0 0 0 0 0 0 0 0 0 0 0 0 0 0 0 0.12 0"/><feBlend in2="effect1_dropShadow_296_61265" mode="normal" result="effect2_dropShadow_296_61265"/><feColorMatrix in="SourceAlpha" result="hardAlpha" type="matrix" values="0 0 0 0 0 0 0 0 0 0 0 0 0 0 0 0 0 0 127 0"/><feOffset dy="1"/><feGaussianBlur stdDeviation=".5"/><feColorMatrix type="matrix" values="0 0 0 0 0 0 0 0 0 0 0 0 0 0 0 0 0 0 0.14 0"/><feBlend in2="effect2_dropShadow_296_61265" mode="normal" result="effect3_dropShadow_296_61265"/><feBlend in="SourceGraphic" in2="effect3_dropShadow_296_61265" mode="normal" result="shape"/></filter><filter id="k" color-interpolation-filters="sRGB" filterUnits="userSpaceOnUse" height="70" width="418" x="511.5" y="374"><feFlood flood-opacity="0" result="BackgroundImageFix"/><feColorMatrix in="SourceAlpha" result="hardAlpha" type="matrix" values="0 0 0 0 0 0 0 0 0 0 0 0 0 0 0 0 0 0 127 0"/><feOffset dy="1"/><feGaussianBlur stdDeviation="1.5"/><feColorMatrix type="matrix" values="0 0 0 0 0 0 0 0 0 0 0 0 0 0 0 0 0 0 0.2 0"/><feBlend in2="BackgroundImageFix" mode="normal" result="effect1_dropShadow_296_61265"/><feColorMatrix in="SourceAlpha" result="hardAlpha" type="matrix" values="0 0 0 0 0 0 0 0 0 0 0 0 0 0 0 0 0 0 127 0"/><feOffset dy="2"/><feGaussianBlur stdDeviation=".5"/><feColorMatrix type="matrix" values="0 0 0 0 0 0 0 0 0 0 0 0 0 0 0 0 0 0 0.12 0"/><feBlend in2="effect1_dropShadow_296_61265" mode="normal" result="effect2_dropShadow_296_61265"/><feColorMatrix in="SourceAlpha" result="hardAlpha" type="matrix" values="0 0 0 0 0 0 0 0 0 0 0 0 0 0 0 0 0 0 127 0"/><feOffset dy="1"/><feGaussianBlur stdDeviation=".5"/><feColorMatrix type="matrix" values="0 0 0 0 0 0 0 0 0 0 0 0 0 0 0 0 0 0 0.14 0"/><feBlend in2="effect2_dropShadow_296_61265" mode="normal" result="effect3_dropShadow_296_61265"/><feBlend in="SourceGraphic" in2="effect3_dropShadow_296_61265" mode="normal" result="shape"/></filter><filter id="l" color-interpolation-filters="sRGB" filterUnits="userSpaceOnUse" height="70" width="418" x="511.5" y="448"><feFlood flood-opacity="0" result="BackgroundImageFix"/><feColorMatrix in="SourceAlpha" result="hardAlpha" type="matrix" values="0 0 0 0 0 0 0 0 0 0 0 0 0 0 0 0 0 0 127 0"/><feOffset dy="1"/><feGaussianBlur stdDeviation="1.5"/><feColorMatrix type="matrix" values="0 0 0 0 0 0 0 0 0 0 0 0 0 0 0 0 0 0 0.2 0"/><feBlend in2="BackgroundImageFix" mode="normal" result="effect1_dropShadow_296_61265"/><feColorMatrix in="SourceAlpha" result="hardAlpha" type="matrix" values="0 0 0 0 0 0 0 0 0 0 0 0 0 0 0 0 0 0 127 0"/><feOffset dy="2"/><feGaussianBlur stdDeviation=".5"/><feColorMatrix type="matrix" values="0 0 0 0 0 0 0 0 0 0 0 0 0 0 0 0 0 0 0.12 0"/><feBlend in2="effect1_dropShadow_296_61265" mode="normal" result="effect2_dropShadow_296_61265"/><feColorMatrix in="SourceAlpha" result="hardAlpha" type="matrix" values="0 0 0 0 0 0 0 0 0 0 0 0 0 0 0 0 0 0 127 0"/><feOffset dy="1"/><feGaussianBlur stdDeviation=".5"/><feColorMatrix type="matrix" values="0 0 0 0 0 0 0 0 0 0 0 0 0 0 0 0 0 0 0.14 0"/><feBlend in2="effect2_dropShadow_296_61265" mode="normal" result="effect3_dropShadow_296_61265"/><feBlend in="SourceGraphic" in2="effect3_dropShadow_296_61265" mode="normal" result="shape"/></filter><clipPath id="m"><path d="m0 0h960v594h-960z"/></clipPath><clipPath id="n"><path d="m49.5 174h24v24h-24z"/></clipPath><clipPath id="o"><path d="m405.5 174h24v24h-24z"/></clipPath><clipPath id="p"><rect height="48" rx="4" width="300" x="57.5" y="310"/></clipPath><clipPath id="q"><path d="m357.5 470h24v24h-24z"/></clipPath><clipPath id="r"><path d="m530.5 174h24v24h-24z"/></clipPath><clipPath id="s"><path d="m886.5 174h24v24h-24z"/></clipPath><clipPath id="t"><rect height="48" rx="4" width="316" x="530.5" y="310"/></clipPath><clipPath id="u"><path d="m838.5 470h24v24h-24z"/></clipPath><clipPath id="v"><path d="m886.5 470h24v24h-24z"/></clipPath><g clip-path="url(#m)"><path d="m0 0h479v594h-479z" fill="#f1f1f6"/><g filter="url(#a)"><path d="m0 0h412v64h-412z" fill="#fff" transform="translate(33.5 80)"/><g fill="#252a2e"><path d="m53.5 118h16c.55 0 1-.45 1-1s-.45-1-1-1h-16c-.55 0-1 .45-1 1s.45 1 1 1zm0-5h16c.55 0 1-.45 1-1s-.45-1-1-1h-16c-.55 0-1 .45-1 1s.45 1 1 1zm-1-6c0 .55.45 1 1 1h16c.55 0 1-.45 1-1s-.45-1-1-1h-16c-.55 0-1 .45-1 1z"/><path d="m100.326 120h-2.3533v-12.285h-4.1797v-1.992h10.703v1.992h-4.17zm8.568-10.811v10.811h-2.295v-10.811zm-1.133-4.14c.352 0 .655.094.909.283.26.189.39.514.39.977 0 .455-.13.781-.39.976-.254.189-.557.283-.909.283-.364 0-.674-.094-.927-.283-.248-.195-.372-.521-.372-.976 0-.463.124-.788.372-.977.253-.189.563-.283.927-.283zm8.598 13.291c.299 0 .595-.026.888-.078.293-.059.56-.127.801-.205v1.738c-.254.111-.583.205-.986.283-.404.078-.824.117-1.26.117-.612 0-1.162-.101-1.65-.302-.489-.209-.876-.564-1.163-1.065-.286-.501-.429-1.195-.429-2.08v-5.81h-1.475v-1.026l1.582-.81.752-2.315h1.445v2.402h3.096v1.749h-3.096v5.781c0 .547.137.954.411 1.22.273.267.634.401 1.084.401zm6.341 1.66h-2.305v-15.195h2.305zm7.738-11.016c.963 0 1.79.199 2.48.596s1.221.96 1.592 1.69c.371.729.557 1.601.557 2.617v1.23h-7.217c.026 1.048.306 1.856.84 2.422.54.566 1.295.85 2.265.85.691 0 1.309-.065 1.856-.196.553-.136 1.123-.335 1.709-.595v1.865c-.54.254-1.091.439-1.65.557-.56.117-1.231.175-2.012.175-1.061 0-1.996-.205-2.803-.615-.801-.417-1.429-1.035-1.885-1.855-.449-.821-.674-1.84-.674-3.057 0-1.211.206-2.24.616-3.086s.986-1.491 1.728-1.934c.742-.442 1.608-.664 2.598-.664zm0 1.729c-.723 0-1.309.234-1.758.703-.443.469-.703 1.156-.781 2.061h4.922c-.007-.541-.098-1.019-.274-1.436-.169-.417-.429-.742-.781-.977-.345-.234-.788-.351-1.328-.351z"/><path d="m421.88 114.92-.66.05-.41-.41c2.44-2.81 2.28-7.1-.5-9.7s-7.01-2.46-9.64.08c-2.82 2.73-2.85 7.22-.08 9.98 2.61 2.61 6.77 2.72 9.52.34l.41.41-.05.65 3.89 3.89c.39.39 1.02.39 1.41 0s.39-1.02 0-1.41l-3.88-3.88zm-2.81-1.41c-1.95 1.95-5.13 1.95-7.08 0s-1.95-5.13 0-7.08 5.13-1.95 7.08 0 1.95 5.13 0 7.08z"/></g></g><g filter="url(#b)"><path d="m0 0h412v64h-412z" fill="#fff" transform="translate(33.5 154)"/><g clip-path="url(#n)"><path d="m69.5 185h-12.17l5.59-5.59-1.42-1.41-8 8 8 8 1.41-1.41-5.58-5.59h12.17z" fill="#fff"/></g><path d="m100.326 194h-2.3533v-12.285h-4.1797v-1.992h10.703v1.992h-4.17zm8.568-10.811v10.811h-2.295v-10.811zm-1.133-4.14c.352 0 .655.094.909.283.26.189.39.514.39.977 0 .455-.13.781-.39.976-.254.189-.557.283-.909.283-.364 0-.674-.094-.927-.283-.248-.195-.372-.521-.372-.976 0-.463.124-.788.372-.977.253-.189.563-.283.927-.283zm8.598 13.291c.299 0 .595-.026.888-.078.293-.059.56-.127.801-.205v1.738c-.254.111-.583.205-.986.283-.404.078-.824.117-1.26.117-.612 0-1.162-.101-1.65-.302-.489-.209-.876-.564-1.163-1.065-.286-.501-.429-1.195-.429-2.08v-5.81h-1.475v-1.026l1.582-.81.752-2.315h1.445v2.402h3.096v1.749h-3.096v5.781c0 .547.137.954.411 1.22.273.267.634.401 1.084.401zm6.341 1.66h-2.305v-15.195h2.305zm7.738-11.016c.963 0 1.79.199 2.48.596s1.221.96 1.592 1.69c.371.729.557 1.601.557 2.617v1.23h-7.217c.026 1.048.306 1.856.84 2.422.54.566 1.295.85 2.265.85.691 0 1.309-.065 1.856-.196.553-.136 1.123-.335 1.709-.595v1.865c-.54.254-1.091.439-1.65.557-.56.117-1.231.175-2.012.175-1.061 0-1.996-.205-2.803-.615-.801-.417-1.429-1.035-1.885-1.855-.449-.821-.674-1.84-.674-3.057 0-1.211.206-2.24.616-3.086s.986-1.491 1.728-1.934c.742-.442 1.608-.664 2.598-.664zm0 1.729c-.723 0-1.309.234-1.758.703-.443.469-.703 1.156-.781 2.061h4.922c-.007-.541-.098-1.019-.274-1.436-.169-.417-.429-.742-.781-.977-.345-.234-.788-.351-1.328-.351z" fill="#252a2e"/><path d="m324.219 180.578h3.398c1.474 0 2.586.214 3.336.641s1.125 1.164 1.125 2.211c0 .437-.078.833-.234 1.187-.151.349-.373.638-.664.867-.292.224-.651.375-1.078.454v.078c.442.078.836.216 1.179.414.349.198.623.481.821.851.203.37.304.849.304 1.438 0 .698-.166 1.291-.5 1.781-.328.49-.799.862-1.414 1.117-.609.255-1.333.383-2.172.383h-4.101zm1.875 4.711h1.797c.849 0 1.437-.138 1.765-.414s.492-.68.492-1.211c0-.542-.195-.932-.586-1.172-.385-.239-1-.359-1.843-.359h-1.625zm0 1.516v3.625h1.976c.875 0 1.49-.17 1.844-.508.354-.339.531-.797.531-1.375 0-.354-.08-.662-.242-.922-.156-.26-.414-.461-.773-.602-.36-.145-.844-.218-1.453-.218zm16.273-3.453v8.648h-1.445l-.25-1.164h-.102c-.182.297-.414.544-.695.742-.281.193-.594.336-.937.43-.344.099-.706.148-1.086.148-.651 0-1.209-.109-1.672-.328-.459-.224-.81-.568-1.055-1.031-.245-.464-.367-1.063-.367-1.797v-5.648h1.844v5.304c0 .672.135 1.175.406 1.508.276.333.703.5 1.281.5.557 0 1-.115 1.328-.344s.56-.567.695-1.015c.141-.448.211-.998.211-1.649v-4.304zm6.102 7.32c.239 0 .476-.021.711-.063.234-.047.448-.101.64-.164v1.391c-.203.088-.466.164-.789.226-.323.063-.659.094-1.008.094-.489 0-.929-.08-1.32-.242-.391-.167-.7-.45-.93-.852-.229-.401-.343-.955-.343-1.664v-4.648h-1.18v-.82l1.266-.649.601-1.851h1.156v1.922h2.477v1.398h-2.477v4.625c0 .437.11.763.329.977.218.213.507.32.867.32zm6.578 0c.239 0 .476-.021.711-.063.234-.047.448-.101.64-.164v1.391c-.203.088-.466.164-.789.226-.323.063-.658.094-1.007.094-.49 0-.93-.08-1.321-.242-.39-.167-.7-.45-.929-.852-.23-.401-.344-.955-.344-1.664v-4.648h-1.18v-.82l1.266-.649.601-1.851h1.157v1.922h2.476v1.398h-2.476v4.625c0 .437.109.763.328.977.218.213.508.32.867.32zm11.015-3.016c0 .719-.093 1.357-.281 1.914-.187.558-.461 1.029-.82 1.414-.359.381-.792.672-1.297.875-.505.198-1.075.297-1.711.297-.594 0-1.138-.099-1.633-.297-.494-.203-.924-.494-1.289-.875-.359-.385-.638-.856-.836-1.414-.198-.557-.297-1.195-.297-1.914 0-.953.164-1.76.493-2.422.333-.666.807-1.174 1.421-1.523.615-.349 1.347-.523 2.196-.523.797 0 1.5.174 2.109.523.61.349 1.086.857 1.43 1.523.344.667.515 1.474.515 2.422zm-6.273 0c0 .63.076 1.17.227 1.617.156.448.395.792.718 1.032.323.234.74.351 1.25.351.511 0 .927-.117 1.25-.351.323-.24.56-.584.711-1.032.151-.447.227-.987.227-1.617s-.076-1.164-.227-1.601c-.151-.443-.388-.779-.711-1.008-.323-.235-.742-.352-1.257-.352-.761 0-1.316.256-1.665.766-.348.51-.523 1.242-.523 2.195zm13.141-4.468c.974 0 1.731.252 2.273.757.547.5.82 1.305.82 2.414v5.641h-1.835v-5.297c0-.672-.139-1.174-.415-1.508-.276-.338-.703-.507-1.281-.507-.838 0-1.422.257-1.75.773-.323.516-.484 1.263-.484 2.242v4.297h-1.836v-8.648h1.43l.257 1.171h.102c.187-.302.419-.549.695-.742.282-.198.594-.346.938-.445.349-.099.711-.148 1.086-.148z" fill="#252a2e"/><rect height="46" rx="3" stroke="#252a2e" stroke-width="2" width="85" x="307.5" y="163"/><g clip-path="url(#o)"><path d="m417.5 182c1.1 0 2-.9 2-2s-.9-2-2-2-2 .9-2 2 .9 2 2 2zm0 2c-1.1 0-2 .9-2 2s.9 2 2 2 2-.9 2-2-.9-2-2-2zm0 6c-1.1 0-2 .9-2 2s.9 2 2 2 2-.9 2-2-.9-2-2-2z" fill="#363545"/></g></g><g filter="url(#c)"><path d="m0 0h412v64h-412z" fill="#fff" transform="translate(33.5 228)"/><g fill="#252a2e"><path d="m53.5 266h16c.55 0 1-.45 1-1s-.45-1-1-1h-16c-.55 0-1 .45-1 1s.45 1 1 1zm0-5h16c.55 0 1-.45 1-1s-.45-1-1-1h-16c-.55 0-1 .45-1 1s.45 1 1 1zm-1-6c0 .55.45 1 1 1h16c.55 0 1-.45 1-1s-.45-1-1-1h-16c-.55 0-1 .45-1 1z"/><path d="m100.326 268h-2.3533v-12.285h-4.1797v-1.992h10.703v1.992h-4.17zm8.568-10.811v10.811h-2.295v-10.811zm-1.133-4.14c.352 0 .655.094.909.283.26.189.39.514.39.977 0 .455-.13.781-.39.976-.254.189-.557.283-.909.283-.364 0-.674-.094-.927-.283-.248-.195-.372-.521-.372-.976 0-.463.124-.788.372-.977.253-.189.563-.283.927-.283zm8.598 13.291c.299 0 .595-.026.888-.078.293-.059.56-.127.801-.205v1.738c-.254.111-.583.205-.986.283-.404.078-.824.117-1.26.117-.612 0-1.162-.101-1.65-.302-.489-.209-.876-.564-1.163-1.065-.286-.501-.429-1.195-.429-2.08v-5.81h-1.475v-1.026l1.582-.81.752-2.315h1.445v2.402h3.096v1.749h-3.096v5.781c0 .547.137.954.411 1.22.273.267.634.401 1.084.401zm6.341 1.66h-2.305v-15.195h2.305zm7.738-11.016c.963 0 1.79.199 2.48.596s1.221.96 1.592 1.69c.371.729.557 1.601.557 2.617v1.23h-7.217c.026 1.048.306 1.856.84 2.422.54.566 1.295.85 2.265.85.691 0 1.309-.065 1.856-.196.553-.136 1.123-.335 1.709-.595v1.865c-.54.254-1.091.439-1.65.557-.56.117-1.231.175-2.012.175-1.061 0-1.996-.205-2.803-.615-.801-.417-1.429-1.035-1.885-1.855-.449-.821-.674-1.84-.674-3.057 0-1.211.206-2.24.616-3.086s.986-1.491 1.728-1.934c.742-.442 1.608-.664 2.598-.664zm0 1.729c-.723 0-1.309.234-1.758.703-.443.469-.703 1.156-.781 2.061h4.922c-.007-.541-.098-1.019-.274-1.436-.169-.417-.429-.742-.781-.977-.345-.234-.788-.351-1.328-.351z"/><path d="m241.312 254.578h3.399c1.474 0 2.586.214 3.336.641s1.125 1.164 1.125 2.211c0 .437-.078.833-.234 1.187-.152.349-.373.638-.665.867-.291.224-.651.375-1.078.454v.078c.443.078.836.216 1.18.414.349.198.622.481.82.851.203.37.305.849.305 1.438 0 .698-.167 1.291-.5 1.781-.328.49-.799.862-1.414 1.117-.609.255-1.333.383-2.172.383h-4.102zm1.876 4.711h1.796c.849 0 1.438-.138 1.766-.414s.492-.68.492-1.211c0-.542-.195-.932-.586-1.172-.385-.239-1-.359-1.844-.359h-1.624zm0 1.516v3.625h1.976c.875 0 1.49-.17 1.844-.508.354-.339.531-.797.531-1.375 0-.354-.081-.662-.242-.922-.156-.26-.414-.461-.774-.602-.359-.145-.843-.218-1.453-.218zm16.273-3.453v8.648h-1.445l-.25-1.164h-.102c-.182.297-.414.544-.695.742-.281.193-.594.336-.938.43-.343.099-.705.148-1.086.148-.651 0-1.208-.109-1.672-.328-.458-.224-.809-.568-1.054-1.031-.245-.464-.367-1.063-.367-1.797v-5.648h1.843v5.304c0 .672.136 1.175.407 1.508.276.333.703.5 1.281.5.557 0 1-.115 1.328-.344s.56-.567.695-1.015c.141-.448.211-.998.211-1.649v-4.304zm6.101 7.32c.24 0 .477-.021.711-.063.235-.047.448-.101.641-.164v1.391c-.203.088-.466.164-.789.226-.323.063-.659.094-1.008.094-.489 0-.929-.08-1.32-.242-.391-.167-.701-.45-.93-.852-.229-.401-.344-.955-.344-1.664v-4.648h-1.179v-.82l1.265-.649.602-1.851h1.156v1.922h2.477v1.398h-2.477v4.625c0 .437.11.763.328.977.219.213.508.32.867.32zm6.579 0c.239 0 .476-.021.711-.063.234-.047.447-.101.64-.164v1.391c-.203.088-.466.164-.789.226-.323.063-.659.094-1.008.094-.489 0-.929-.08-1.32-.242-.391-.167-.701-.45-.93-.852-.229-.401-.343-.955-.343-1.664v-4.648h-1.18v-.82l1.266-.649.601-1.851h1.156v1.922h2.477v1.398h-2.477v4.625c0 .437.11.763.328.977.219.213.508.32.868.32zm11.015-3.016c0 .719-.094 1.357-.281 1.914-.187.558-.461 1.029-.82 1.414-.36.381-.792.672-1.297.875-.505.198-1.076.297-1.711.297-.594 0-1.138-.099-1.633-.297-.495-.203-.924-.494-1.289-.875-.359-.385-.638-.856-.836-1.414-.198-.557-.297-1.195-.297-1.914 0-.953.164-1.76.492-2.422.334-.666.808-1.174 1.422-1.523.615-.349 1.347-.523 2.196-.523.796 0 1.5.174 2.109.523s1.086.857 1.43 1.523c.343.667.515 1.474.515 2.422zm-6.273 0c0 .63.075 1.17.226 1.617.157.448.396.792.719 1.032.323.234.74.351 1.25.351.511 0 .927-.117 1.25-.351.323-.24.56-.584.711-1.032.151-.447.227-.987.227-1.617s-.076-1.164-.227-1.601c-.151-.443-.388-.779-.711-1.008-.323-.235-.742-.352-1.258-.352-.76 0-1.315.256-1.664.766s-.523 1.242-.523 2.195zm13.14-4.468c.974 0 1.732.252 2.274.757.547.5.82 1.305.82 2.414v5.641h-1.836v-5.297c0-.672-.138-1.174-.414-1.508-.276-.338-.703-.507-1.281-.507-.839 0-1.422.257-1.75.773-.323.516-.484 1.263-.484 2.242v4.297h-1.836v-8.648h1.429l.258 1.171h.102c.187-.302.419-.549.695-.742.281-.198.594-.346.938-.445.348-.099.71-.148 1.085-.148zm15.125 8.812h-1.843v-7.352c0-.244.002-.489.007-.734.006-.245.011-.484.016-.719.011-.234.024-.458.039-.672-.109.12-.245.25-.406.391-.156.141-.323.287-.5.438l-1.313 1.046-.921-1.164 3.39-2.656h1.531z"/></g><rect height="46" rx="3" stroke="#252a2e" stroke-width="2" width="99" x="224.5" y="237"/><path d="m358.312 254.578h3.399c1.474 0 2.586.214 3.336.641s1.125 1.164 1.125 2.211c0 .437-.078.833-.234 1.187-.152.349-.373.638-.665.867-.291.224-.651.375-1.078.454v.078c.443.078.836.216 1.18.414.349.198.622.481.82.851.203.37.305.849.305 1.438 0 .698-.167 1.291-.5 1.781-.328.49-.799.862-1.414 1.117-.609.255-1.333.383-2.172.383h-4.102zm1.876 4.711h1.796c.849 0 1.438-.138 1.766-.414s.492-.68.492-1.211c0-.542-.195-.932-.586-1.172-.385-.239-1-.359-1.844-.359h-1.624zm0 1.516v3.625h1.976c.875 0 1.49-.17 1.844-.508.354-.339.531-.797.531-1.375 0-.354-.081-.662-.242-.922-.156-.26-.414-.461-.774-.602-.359-.145-.843-.218-1.453-.218zm16.273-3.453v8.648h-1.445l-.25-1.164h-.102c-.182.297-.414.544-.695.742-.281.193-.594.336-.938.43-.343.099-.705.148-1.086.148-.651 0-1.208-.109-1.672-.328-.458-.224-.809-.568-1.054-1.031-.245-.464-.367-1.063-.367-1.797v-5.648h1.843v5.304c0 .672.136 1.175.407 1.508.276.333.703.5 1.281.5.557 0 1-.115 1.328-.344s.56-.567.695-1.015c.141-.448.211-.998.211-1.649v-4.304zm6.101 7.32c.24 0 .477-.021.711-.063.235-.047.448-.101.641-.164v1.391c-.203.088-.466.164-.789.226-.323.063-.659.094-1.008.094-.489 0-.929-.08-1.32-.242-.391-.167-.701-.45-.93-.852-.229-.401-.344-.955-.344-1.664v-4.648h-1.179v-.82l1.265-.649.602-1.851h1.156v1.922h2.477v1.398h-2.477v4.625c0 .437.11.763.328.977.219.213.508.32.867.32zm6.579 0c.239 0 .476-.021.711-.063.234-.047.447-.101.64-.164v1.391c-.203.088-.466.164-.789.226-.323.063-.659.094-1.008.094-.489 0-.929-.08-1.32-.242-.391-.167-.701-.45-.93-.852-.229-.401-.343-.955-.343-1.664v-4.648h-1.18v-.82l1.266-.649.601-1.851h1.156v1.922h2.477v1.398h-2.477v4.625c0 .437.11.763.328.977.219.213.508.32.868.32zm11.015-3.016c0 .719-.094 1.357-.281 1.914-.187.558-.461 1.029-.82 1.414-.36.381-.792.672-1.297.875-.505.198-1.076.297-1.711.297-.594 0-1.138-.099-1.633-.297-.495-.203-.924-.494-1.289-.875-.359-.385-.638-.856-.836-1.414-.198-.557-.297-1.195-.297-1.914 0-.953.164-1.76.492-2.422.334-.666.808-1.174 1.422-1.523.615-.349 1.347-.523 2.196-.523.796 0 1.5.174 2.109.523s1.086.857 1.43 1.523c.343.667.515 1.474.515 2.422zm-6.273 0c0 .63.075 1.17.226 1.617.157.448.396.792.719 1.032.323.234.74.351 1.25.351.511 0 .927-.117 1.25-.351.323-.24.56-.584.711-1.032.151-.447.227-.987.227-1.617s-.076-1.164-.227-1.601c-.151-.443-.388-.779-.711-1.008-.323-.235-.742-.352-1.258-.352-.76 0-1.315.256-1.664.766s-.523 1.242-.523 2.195zm13.14-4.468c.974 0 1.732.252 2.274.757.547.5.82 1.305.82 2.414v5.641h-1.836v-5.297c0-.672-.138-1.174-.414-1.508-.276-.338-.703-.507-1.281-.507-.839 0-1.422.257-1.75.773-.323.516-.484 1.263-.484 2.242v4.297h-1.836v-8.648h1.429l.258 1.171h.102c.187-.302.419-.549.695-.742.281-.198.594-.346.938-.445.348-.099.71-.148 1.085-.148zm17.461 8.812h-7.734v-1.383l2.961-3c.573-.583 1.044-1.086 1.414-1.508.37-.427.643-.83.82-1.211.183-.38.274-.794.274-1.242 0-.552-.159-.968-.477-1.25-.318-.286-.737-.429-1.258-.429-.494 0-.953.099-1.375.296-.416.193-.849.469-1.297.829l-1.007-1.211c.317-.271.656-.519 1.015-.743.365-.224.771-.401 1.219-.531.448-.135.958-.203 1.531-.203.724 0 1.349.13 1.875.391.526.255.93.612 1.211 1.07.287.458.43.992.43 1.602 0 .614-.122 1.182-.367 1.703s-.594 1.036-1.047 1.547c-.453.505-.992 1.054-1.617 1.648l-1.977 1.93v.086h5.406z" fill="#252a2e"/><rect height="46" rx="3" stroke="#252a2e" stroke-width="2" width="99" x="341.5" y="237"/></g><g filter="url(#d)"><path d="m0 0h412v64h-412z" fill="#fff" transform="translate(33.5 302)"/><g clip-path="url(#p)"><rect fill="#fff" height="48" rx="4" width="300" x="57.5" y="310"/><g fill="#90939f"><path d="m85.8797 336.92-.66.05-.41-.41c2.44-2.81 2.28-7.1-.5-9.7s-7.01-2.46-9.64.08c-2.82 2.73-2.85 7.22-.08 9.98 2.61 2.61 6.77 2.72 9.52.34l.41.41-.05.65 3.89 3.89c.39.39 1.02.39 1.41 0s.39-1.02 0-1.41l-3.88-3.88zm-2.81-1.41c-1.95 1.95-5.13 1.95-7.08 0s-1.95-5.13 0-7.08 5.13-1.95 7.08 0 1.95 5.13 0 7.08z"/><path d="m113.516 336.961c0 1.005-.365 1.789-1.094 2.351-.729.563-1.719.844-2.969.844-1.354 0-2.396-.174-3.125-.523v-1.281c.469.197.979.354 1.531.468.552.115 1.099.172 1.641.172.885 0 1.552-.166 2-.5.448-.338.672-.807.672-1.406 0-.396-.081-.719-.242-.969-.157-.255-.422-.489-.797-.703-.37-.213-.935-.456-1.695-.726-1.063-.381-1.823-.831-2.282-1.352-.453-.521-.679-1.201-.679-2.039 0-.88.33-1.581.992-2.102.661-.521 1.536-.781 2.625-.781 1.135 0 2.179.208 3.133.625l-.415 1.156c-.942-.396-1.859-.593-2.75-.593-.703 0-1.252.151-1.648.453s-.594.721-.594 1.257c0 .396.073.722.219.977.146.25.391.482.734.695.349.209.881.44 1.594.696 1.198.427 2.021.885 2.469 1.375.453.489.68 1.125.68 1.906zm5.907 3.195c-1.265 0-2.265-.385-3-1.156-.729-.771-1.093-1.841-1.093-3.211 0-1.38.338-2.477 1.015-3.289.683-.812 1.597-1.219 2.742-1.219 1.073 0 1.922.354 2.547 1.063.625.703.938 1.633.938 2.789v.82h-5.899c.026 1.005.279 1.768.758 2.289.485.521 1.164.781 2.039.781.922 0 1.834-.192 2.735-.578v1.157c-.459.197-.894.338-1.305.421-.406.089-.898.133-1.477.133zm-.351-7.789c-.688 0-1.237.224-1.649.672-.406.448-.645 1.068-.718 1.859h4.476c0-.817-.182-1.442-.547-1.875-.364-.437-.885-.656-1.562-.656zm11.134 7.633-.258-1.219h-.062c-.427.537-.854.901-1.281 1.094-.422.187-.951.281-1.586.281-.849 0-1.516-.218-2-.656-.479-.438-.719-1.06-.719-1.867 0-1.729 1.383-2.636 4.148-2.719l1.454-.047v-.531c0-.672-.146-1.167-.438-1.484-.286-.323-.747-.485-1.383-.485-.713 0-1.521.219-2.422.656l-.398-.992c.422-.229.883-.409 1.383-.539.505-.13 1.01-.195 1.515-.195 1.021 0 1.776.226 2.266.68.495.453.742 1.179.742 2.179v5.844zm-2.929-.914c.807 0 1.44-.221 1.898-.664.464-.443.695-1.063.695-1.86v-.773l-1.297.055c-1.031.036-1.776.198-2.234.484-.453.281-.68.721-.68 1.32 0 .469.141.826.422 1.071.287.245.685.367 1.196.367zm10.626-7.805c.38 0 .721.031 1.024.094l-.18 1.203c-.354-.078-.667-.117-.938-.117-.692 0-1.286.281-1.781.844-.489.562-.734 1.263-.734 2.101v4.594h-1.297v-8.562h1.07l.149 1.585h.062c.318-.557.701-.987 1.149-1.289.447-.302.94-.453 1.476-.453zm6.197 8.875c-1.24 0-2.201-.38-2.883-1.14-.677-.766-1.015-1.847-1.015-3.243 0-1.432.343-2.539 1.031-3.32.693-.781 1.677-1.172 2.953-1.172.411 0 .823.045 1.234.133.412.089.735.193.969.313l-.398 1.101c-.287-.114-.599-.208-.938-.281-.338-.078-.638-.117-.898-.117-1.74 0-2.61 1.109-2.61 3.328 0 1.052.211 1.859.633 2.422.427.562 1.057.843 1.891.843.713 0 1.445-.153 2.195-.461v1.149c-.573.297-1.294.445-2.164.445zm10.212-.156v-5.539c0-.698-.158-1.219-.476-1.563-.318-.343-.815-.515-1.492-.515-.901 0-1.56.245-1.977.734-.411.49-.617 1.292-.617 2.406v4.477h-1.297v-12.156h1.297v3.679c0 .443-.021.81-.062 1.102h.078c.255-.411.617-.734 1.086-.969.474-.239 1.013-.359 1.617-.359 1.047 0 1.83.25 2.351.75.526.495.789 1.284.789 2.367v5.586z"/></g></g><rect height="48" rx="4" stroke="#b7b9c3" width="300" x="57.5" y="310"/><path d="m403.8 327.71c-.39-.39-1.02-.39-1.41 0l-4.89 4.89-4.89-4.89c-.39-.39-1.02-.39-1.41 0s-.39 1.02 0 1.41l4.89 4.89-4.89 4.89c-.39.39-.39 1.02 0 1.41s1.02.39 1.41 0l4.89-4.89 4.89 4.89c.39.39 1.02.39 1.41 0s.39-1.02 0-1.41l-4.89-4.89 4.89-4.89c.39-.39.39-1.02 0-1.41z" fill="#fff"/></g><g filter="url(#e)"><path d="m0 0h412v64h-412z" fill="#fff" transform="translate(33.5 376)"/><g fill="#252a2e"><path d="m60.3262 416h-2.3535v-12.285h-4.1797v-1.992h10.7031v1.992h-4.1699zm8.5679-10.811v10.811h-2.2949v-10.811zm-1.1328-4.14c.3516 0 .6543.094.9082.283.2604.189.3907.514.3907.977 0 .455-.1303.781-.3907.976-.2539.189-.5566.283-.9082.283-.3646 0-.6738-.094-.9277-.283-.2474-.195-.3711-.521-.3711-.976 0-.463.1237-.788.3711-.977.2539-.189.5631-.283.9277-.283zm8.5973 13.291c.2995 0 .5957-.026.8887-.078.2929-.059.5599-.127.8007-.205v1.738c-.2539.111-.5826.205-.9863.283-.4036.078-.8235.117-1.2597.117-.612 0-1.1622-.101-1.6504-.302-.4883-.209-.8757-.564-1.1621-1.065-.2865-.501-.4297-1.195-.4297-2.08v-5.81h-1.4746v-1.026l1.582-.81.7519-2.315h1.4454v2.402h3.0957v1.749h-3.0957v5.781c0 .547.1367.954.4101 1.22.2734.267.6348.401 1.084.401zm6.3414 1.66h-2.3047v-15.195h2.3047zm7.7379-11.016c.9635 0 1.7904.199 2.4805.596s1.2207.96 1.5918 1.69c.3711.729.5566 1.601.5566 2.617v1.23h-7.2168c.026 1.048.306 1.856.8398 2.422.5404.566 1.2956.85 2.2657.85.6901 0 1.3086-.065 1.8554-.196.5534-.136 1.1231-.335 1.709-.595v1.865c-.5403.254-1.0905.439-1.6504.557-.5599.117-1.2304.175-2.0117.175-1.0612 0-1.9954-.205-2.8027-.615-.8008-.417-1.4291-1.035-1.8848-1.855-.4492-.821-.6738-1.84-.6738-3.057 0-1.211.2051-2.24.6152-3.086.4102-.846.9863-1.491 1.7285-1.934.7422-.442 1.6081-.664 2.5977-.664zm0 1.729c-.7227 0-1.3086.234-1.7578.703-.4427.469-.7031 1.156-.7813 2.061h4.9219c-.0065-.541-.0977-1.019-.2734-1.436-.1693-.417-.4297-.742-.7813-.977-.345-.234-.7877-.351-1.3281-.351z"/><path d="m121.9 405.25c-.106-.226-.274-.417-.485-.55s-.456-.202-.705-.2h-8.43c-.52 0-.99.29-1.19.75-.19.43-.1.91.22 1.25l4.22 4.58c.24.26.6.42.97.42s.73-.15.97-.42l4.22-4.58c.32-.35.4-.83.22-1.25z"/></g></g><g filter="url(#f)"><path d="m0 0h412v64h-412z" fill="#fff" transform="translate(33.5 450)"/><g fill="#252a2e"><path d="m60.3262 490h-2.3535v-12.285h-4.1797v-1.992h10.7031v1.992h-4.1699zm8.5679-10.811v10.811h-2.2949v-10.811zm-1.1328-4.14c.3516 0 .6543.094.9082.283.2604.189.3907.514.3907.977 0 .455-.1303.781-.3907.976-.2539.189-.5566.283-.9082.283-.3646 0-.6738-.094-.9277-.283-.2474-.195-.3711-.521-.3711-.976 0-.463.1237-.788.3711-.977.2539-.189.5631-.283.9277-.283zm8.5973 13.291c.2995 0 .5957-.026.8887-.078.2929-.059.5599-.127.8007-.205v1.738c-.2539.111-.5826.205-.9863.283-.4036.078-.8235.117-1.2597.117-.612 0-1.1622-.101-1.6504-.302-.4883-.209-.8757-.564-1.1621-1.065-.2865-.501-.4297-1.195-.4297-2.08v-5.81h-1.4746v-1.026l1.582-.81.7519-2.315h1.4454v2.402h3.0957v1.749h-3.0957v5.781c0 .547.1367.954.4101 1.22.2734.267.6348.401 1.084.401zm6.3414 1.66h-2.3047v-15.195h2.3047zm7.7379-11.016c.9635 0 1.7904.199 2.4805.596s1.2207.96 1.5918 1.69c.3711.729.5566 1.601.5566 2.617v1.23h-7.2168c.026 1.048.306 1.856.8398 2.422.5404.566 1.2956.85 2.2657.85.6901 0 1.3086-.065 1.8554-.196.5534-.136 1.1231-.335 1.709-.595v1.865c-.5403.254-1.0905.439-1.6504.557-.5599.117-1.2304.175-2.0117.175-1.0612 0-1.9954-.205-2.8027-.615-.8008-.417-1.4291-1.035-1.8848-1.855-.4492-.821-.6738-1.84-.6738-3.057 0-1.211.2051-2.24.6152-3.086.4102-.846.9863-1.491 1.7285-1.934.7422-.442 1.6081-.664 2.5977-.664zm0 1.729c-.7227 0-1.3086.234-1.7578.703-.4427.469-.7031 1.156-.7813 2.061h4.9219c-.0065-.541-.0977-1.019-.2734-1.436-.1693-.417-.4297-.742-.7813-.977-.345-.234-.7877-.351-1.3281-.351z"/><path d="m121.9 479.25c-.106-.226-.274-.417-.485-.55s-.456-.202-.705-.2h-8.43c-.52 0-.99.29-1.19.75-.19.43-.1.91.22 1.25l4.22 4.58c.24.26.6.42.97.42s.73-.15.97-.42l4.22-4.58c.32-.35.4-.83.22-1.25z"/><path d="m277.88 484.92-.66.05-.41-.41c2.44-2.81 2.28-7.1-.5-9.7s-7.01-2.46-9.64.08c-2.82 2.73-2.85 7.22-.08 9.98 2.61 2.61 6.77 2.72 9.52.34l.41.41-.05.65 3.89 3.89c.39.39 1.02.39 1.41 0s.39-1.02 0-1.41l-3.88-3.88zm-2.81-1.41c-1.95 1.95-5.13 1.95-7.08 0s-1.95-5.13 0-7.08 5.13-1.95 7.08 0 1.95 5.13 0 7.08z"/><path d="m329.5 473h-2c0-.55-.45-1-1-1s-1 .45-1 1h-8c0-.55-.45-1-1-1s-1 .45-1 1h-2c-1.1 0-2 .9-2 2v15c0 1.1.9 2 2 2h16c1.1 0 2-.9 2-2v-15c0-1.1-.9-2-2-2zm-11 11h-3v-3h3zm4.5 0h-3v-3h3zm4.5 0h-3v-3h3zm2-6.71c0 .39-.32.71-.71.71h-14.58c-.39 0-.71-.32-.71-.71v-1.59c0-.39.32-.71.71-.71h1.29v1.01c0 .55.45 1 1 1s1-.45 1-1v-1l8-.01v1.01c0 .55.45 1 1 1s1-.45 1-1v-1l1.29-.01c.39 0 .71.32.71.71z"/></g><g clip-path="url(#q)"><path d="m368.09 480.59c-.78.78-.78 2.05 0 2.83s2.05.78 2.83 0 .78-2.05 0-2.83-2.05-.78-2.83 0zm0-7c-.78.78-.78 2.05 0 2.83s2.05.78 2.83 0 .78-2.05 0-2.83-2.05-.78-2.83 0zm0 14c-.78.78-.78 2.05 0 2.83s2.05.78 2.83 0 .78-2.05 0-2.83-2.05-.78-2.83 0z" fill="#252a2e"/></g><path d="m417.5 472c-5.52 0-10 4.48-10 10s4.48 10 10 10 10-4.48 10-10-4.48-10-10-10zm0 4c2.07 0 3.75 1.68 3.75 3.75s-1.68 3.75-3.75 3.75-3.75-1.68-3.75-3.75 1.68-3.75 3.75-3.75zm0 14c-2.84 0-5.34-1.5-6.76-3.74.13-.07.27-.14.43-.21 1.22-.56 3.47-1.37 6.33-1.37 2.87 0 5.12.81 6.33 1.37.16.07.3.15.43.22-1.42 2.24-3.91 3.73-6.76 3.73z" fill="#252a2e"/></g><path d="m0 0h479v594h-479z" fill="#f1f1f6" transform="translate(481)"/><g filter="url(#g)"><path d="m0 0h412v64h-412z" fill="#004f83" transform="translate(514.5 80)"/><g fill="#fff"><path d="m534.5 118h16c.55 0 1-.45 1-1s-.45-1-1-1h-16c-.55 0-1 .45-1 1s.45 1 1 1zm0-5h16c.55 0 1-.45 1-1s-.45-1-1-1h-16c-.55 0-1 .45-1 1s.45 1 1 1zm-1-6c0 .55.45 1 1 1h16c.55 0 1-.45 1-1s-.45-1-1-1h-16c-.55 0-1 .45-1 1z"/><path d="m581.326 120h-2.353v-12.285h-4.18v-1.992h10.703v1.992h-4.17zm8.568-10.811v10.811h-2.295v-10.811zm-1.133-4.14c.352 0 .655.094.909.283.26.189.39.514.39.977 0 .455-.13.781-.39.976-.254.189-.557.283-.909.283-.364 0-.674-.094-.927-.283-.248-.195-.372-.521-.372-.976 0-.463.124-.788.372-.977.253-.189.563-.283.927-.283zm8.598 13.291c.299 0 .595-.026.888-.078.293-.059.56-.127.801-.205v1.738c-.254.111-.583.205-.986.283-.404.078-.824.117-1.26.117-.612 0-1.162-.101-1.65-.302-.489-.209-.876-.564-1.163-1.065-.286-.501-.429-1.195-.429-2.08v-5.81h-1.475v-1.026l1.582-.81.752-2.315h1.445v2.402h3.096v1.749h-3.096v5.781c0 .547.137.954.411 1.22.273.267.634.401 1.084.401zm6.341 1.66h-2.305v-15.195h2.305zm7.738-11.016c.963 0 1.79.199 2.48.596s1.221.96 1.592 1.69c.371.729.557 1.601.557 2.617v1.23h-7.217c.026 1.048.306 1.856.84 2.422.54.566 1.295.85 2.265.85.691 0 1.309-.065 1.856-.196.553-.136 1.123-.335 1.709-.595v1.865c-.54.254-1.091.439-1.65.557-.56.117-1.231.175-2.012.175-1.061 0-1.996-.205-2.803-.615-.801-.417-1.429-1.035-1.885-1.855-.449-.821-.674-1.84-.674-3.057 0-1.211.206-2.24.616-3.086s.986-1.491 1.728-1.934c.742-.442 1.608-.664 2.598-.664zm0 1.729c-.723 0-1.309.234-1.758.703-.443.469-.703 1.156-.781 2.061h4.922c-.007-.541-.098-1.019-.274-1.436-.169-.417-.429-.742-.781-.977-.345-.234-.788-.351-1.328-.351z"/><path d="m902.88 114.92-.66.05-.41-.41c2.44-2.81 2.28-7.1-.5-9.7s-7.01-2.46-9.64.08c-2.82 2.73-2.85 7.22-.08 9.98 2.61 2.61 6.77 2.72 9.52.34l.41.41-.05.65 3.89 3.89c.39.39 1.02.39 1.41 0s.39-1.02 0-1.41l-3.88-3.88zm-2.81-1.41c-1.95 1.95-5.13 1.95-7.08 0s-1.95-5.13 0-7.08 5.13-1.95 7.08 0 1.95 5.13 0 7.08z"/></g></g><g filter="url(#h)"><path d="m0 0h412v64h-412z" fill="#004f83" transform="translate(514.5 154)"/><g clip-path="url(#r)"><path d="m550.5 185h-12.17l5.59-5.59-1.42-1.41-8 8 8 8 1.41-1.41-5.58-5.59h12.17z" fill="#fff"/></g><path d="m581.326 194h-2.353v-12.285h-4.18v-1.992h10.703v1.992h-4.17zm8.568-10.811v10.811h-2.295v-10.811zm-1.133-4.14c.352 0 .655.094.909.283.26.189.39.514.39.977 0 .455-.13.781-.39.976-.254.189-.557.283-.909.283-.364 0-.674-.094-.927-.283-.248-.195-.372-.521-.372-.976 0-.463.124-.788.372-.977.253-.189.563-.283.927-.283zm8.598 13.291c.299 0 .595-.026.888-.078.293-.059.56-.127.801-.205v1.738c-.254.111-.583.205-.986.283-.404.078-.824.117-1.26.117-.612 0-1.162-.101-1.65-.302-.489-.209-.876-.564-1.163-1.065-.286-.501-.429-1.195-.429-2.08v-5.81h-1.475v-1.026l1.582-.81.752-2.315h1.445v2.402h3.096v1.749h-3.096v5.781c0 .547.137.954.411 1.22.273.267.634.401 1.084.401zm6.341 1.66h-2.305v-15.195h2.305zm7.738-11.016c.963 0 1.79.199 2.48.596s1.221.96 1.592 1.69c.371.729.557 1.601.557 2.617v1.23h-7.217c.026 1.048.306 1.856.84 2.422.54.566 1.295.85 2.265.85.691 0 1.309-.065 1.856-.196.553-.136 1.123-.335 1.709-.595v1.865c-.54.254-1.091.439-1.65.557-.56.117-1.231.175-2.012.175-1.061 0-1.996-.205-2.803-.615-.801-.417-1.429-1.035-1.885-1.855-.449-.821-.674-1.84-.674-3.057 0-1.211.206-2.24.616-3.086s.986-1.491 1.728-1.934c.742-.442 1.608-.664 2.598-.664zm0 1.729c-.723 0-1.309.234-1.758.703-.443.469-.703 1.156-.781 2.061h4.922c-.007-.541-.098-1.019-.274-1.436-.169-.417-.429-.742-.781-.977-.345-.234-.788-.351-1.328-.351z" fill="#fff"/><path d="m805.219 180.578h3.398c1.474 0 2.586.214 3.336.641s1.125 1.164 1.125 2.211c0 .437-.078.833-.234 1.187-.151.349-.373.638-.664.867-.292.224-.651.375-1.078.454v.078c.442.078.836.216 1.179.414.349.198.623.481.821.851.203.37.304.849.304 1.438 0 .698-.166 1.291-.5 1.781-.328.49-.799.862-1.414 1.117-.609.255-1.333.383-2.172.383h-4.101zm1.875 4.711h1.797c.849 0 1.437-.138 1.765-.414s.492-.68.492-1.211c0-.542-.195-.932-.586-1.172-.385-.239-1-.359-1.843-.359h-1.625zm0 1.516v3.625h1.976c.875 0 1.49-.17 1.844-.508.354-.339.531-.797.531-1.375 0-.354-.08-.662-.242-.922-.156-.26-.414-.461-.773-.602-.36-.145-.844-.218-1.453-.218zm16.273-3.453v8.648h-1.445l-.25-1.164h-.102c-.182.297-.414.544-.695.742-.281.193-.594.336-.937.43-.344.099-.706.148-1.086.148-.651 0-1.209-.109-1.672-.328-.459-.224-.81-.568-1.055-1.031-.245-.464-.367-1.063-.367-1.797v-5.648h1.844v5.304c0 .672.135 1.175.406 1.508.276.333.703.5 1.281.5.557 0 1-.115 1.328-.344s.56-.567.695-1.015c.141-.448.211-.998.211-1.649v-4.304zm6.102 7.32c.239 0 .476-.021.711-.063.234-.047.448-.101.64-.164v1.391c-.203.088-.466.164-.789.226-.323.063-.659.094-1.008.094-.489 0-.929-.08-1.32-.242-.391-.167-.7-.45-.93-.852-.229-.401-.343-.955-.343-1.664v-4.648h-1.18v-.82l1.266-.649.601-1.851h1.156v1.922h2.477v1.398h-2.477v4.625c0 .437.11.763.329.977.218.213.507.32.867.32zm6.578 0c.239 0 .476-.021.711-.063.234-.047.448-.101.64-.164v1.391c-.203.088-.466.164-.789.226-.323.063-.658.094-1.007.094-.49 0-.93-.08-1.321-.242-.39-.167-.7-.45-.929-.852-.23-.401-.344-.955-.344-1.664v-4.648h-1.18v-.82l1.266-.649.601-1.851h1.157v1.922h2.476v1.398h-2.476v4.625c0 .437.109.763.328.977.218.213.508.32.867.32zm11.015-3.016c0 .719-.093 1.357-.281 1.914-.187.558-.461 1.029-.82 1.414-.359.381-.792.672-1.297.875-.505.198-1.075.297-1.711.297-.594 0-1.138-.099-1.633-.297-.494-.203-.924-.494-1.289-.875-.359-.385-.638-.856-.836-1.414-.198-.557-.297-1.195-.297-1.914 0-.953.164-1.76.493-2.422.333-.666.807-1.174 1.421-1.523.615-.349 1.347-.523 2.196-.523.797 0 1.5.174 2.109.523.61.349 1.086.857 1.43 1.523.344.667.515 1.474.515 2.422zm-6.273 0c0 .63.076 1.17.227 1.617.156.448.395.792.718 1.032.323.234.74.351 1.25.351.511 0 .927-.117 1.25-.351.323-.24.56-.584.711-1.032.151-.447.227-.987.227-1.617s-.076-1.164-.227-1.601c-.151-.443-.388-.779-.711-1.008-.323-.235-.742-.352-1.257-.352-.761 0-1.316.256-1.665.766-.348.51-.523 1.242-.523 2.195zm13.141-4.468c.974 0 1.731.252 2.273.757.547.5.82 1.305.82 2.414v5.641h-1.835v-5.297c0-.672-.139-1.174-.415-1.508-.276-.338-.703-.507-1.281-.507-.838 0-1.422.257-1.75.773-.323.516-.484 1.263-.484 2.242v4.297h-1.836v-8.648h1.43l.257 1.171h.102c.187-.302.419-.549.695-.742.282-.198.594-.346.938-.445.349-.099.711-.148 1.086-.148z" fill="#fff"/><rect height="46" rx="3" stroke="#fff" stroke-width="2" width="85" x="788.5" y="163"/><g clip-path="url(#s)"><path d="m898.5 182c1.1 0 2-.9 2-2s-.9-2-2-2-2 .9-2 2 .9 2 2 2zm0 2c-1.1 0-2 .9-2 2s.9 2 2 2 2-.9 2-2-.9-2-2-2zm0 6c-1.1 0-2 .9-2 2s.9 2 2 2 2-.9 2-2-.9-2-2-2z" fill="#fff"/></g></g><g filter="url(#i)"><path d="m0 0h412v64h-412z" fill="#004f83" transform="translate(514.5 228)"/><g fill="#fff"><path d="m534.5 266h16c.55 0 1-.45 1-1s-.45-1-1-1h-16c-.55 0-1 .45-1 1s.45 1 1 1zm0-5h16c.55 0 1-.45 1-1s-.45-1-1-1h-16c-.55 0-1 .45-1 1s.45 1 1 1zm-1-6c0 .55.45 1 1 1h16c.55 0 1-.45 1-1s-.45-1-1-1h-16c-.55 0-1 .45-1 1z"/><path d="m581.326 268h-2.353v-12.285h-4.18v-1.992h10.703v1.992h-4.17zm8.568-10.811v10.811h-2.295v-10.811zm-1.133-4.14c.352 0 .655.094.909.283.26.189.39.514.39.977 0 .455-.13.781-.39.976-.254.189-.557.283-.909.283-.364 0-.674-.094-.927-.283-.248-.195-.372-.521-.372-.976 0-.463.124-.788.372-.977.253-.189.563-.283.927-.283zm8.598 13.291c.299 0 .595-.026.888-.078.293-.059.56-.127.801-.205v1.738c-.254.111-.583.205-.986.283-.404.078-.824.117-1.26.117-.612 0-1.162-.101-1.65-.302-.489-.209-.876-.564-1.163-1.065-.286-.501-.429-1.195-.429-2.08v-5.81h-1.475v-1.026l1.582-.81.752-2.315h1.445v2.402h3.096v1.749h-3.096v5.781c0 .547.137.954.411 1.22.273.267.634.401 1.084.401zm6.341 1.66h-2.305v-15.195h2.305zm7.738-11.016c.963 0 1.79.199 2.48.596s1.221.96 1.592 1.69c.371.729.557 1.601.557 2.617v1.23h-7.217c.026 1.048.306 1.856.84 2.422.54.566 1.295.85 2.265.85.691 0 1.309-.065 1.856-.196.553-.136 1.123-.335 1.709-.595v1.865c-.54.254-1.091.439-1.65.557-.56.117-1.231.175-2.012.175-1.061 0-1.996-.205-2.803-.615-.801-.417-1.429-1.035-1.885-1.855-.449-.821-.674-1.84-.674-3.057 0-1.211.206-2.24.616-3.086s.986-1.491 1.728-1.934c.742-.442 1.608-.664 2.598-.664zm0 1.729c-.723 0-1.309.234-1.758.703-.443.469-.703 1.156-.781 2.061h4.922c-.007-.541-.098-1.019-.274-1.436-.169-.417-.429-.742-.781-.977-.345-.234-.788-.351-1.328-.351z"/><path d="m722.312 254.578h3.399c1.474 0 2.586.214 3.336.641s1.125 1.164 1.125 2.211c0 .437-.078.833-.234 1.187-.152.349-.373.638-.665.867-.291.224-.651.375-1.078.454v.078c.443.078.836.216 1.18.414.349.198.622.481.82.851.203.37.305.849.305 1.438 0 .698-.167 1.291-.5 1.781-.328.49-.799.862-1.414 1.117-.609.255-1.333.383-2.172.383h-4.102zm1.876 4.711h1.796c.849 0 1.438-.138 1.766-.414s.492-.68.492-1.211c0-.542-.195-.932-.586-1.172-.385-.239-1-.359-1.844-.359h-1.624zm0 1.516v3.625h1.976c.875 0 1.49-.17 1.844-.508.354-.339.531-.797.531-1.375 0-.354-.081-.662-.242-.922-.156-.26-.414-.461-.774-.602-.359-.145-.843-.218-1.453-.218zm16.273-3.453v8.648h-1.445l-.25-1.164h-.102c-.182.297-.414.544-.695.742-.281.193-.594.336-.938.43-.343.099-.705.148-1.086.148-.651 0-1.208-.109-1.672-.328-.458-.224-.809-.568-1.054-1.031-.245-.464-.367-1.063-.367-1.797v-5.648h1.843v5.304c0 .672.136 1.175.407 1.508.276.333.703.5 1.281.5.557 0 1-.115 1.328-.344s.56-.567.695-1.015c.141-.448.211-.998.211-1.649v-4.304zm6.101 7.32c.24 0 .477-.021.711-.063.235-.047.448-.101.641-.164v1.391c-.203.088-.466.164-.789.226-.323.063-.659.094-1.008.094-.489 0-.929-.08-1.32-.242-.391-.167-.701-.45-.93-.852-.229-.401-.344-.955-.344-1.664v-4.648h-1.179v-.82l1.265-.649.602-1.851h1.156v1.922h2.477v1.398h-2.477v4.625c0 .437.11.763.328.977.219.213.508.32.867.32zm6.579 0c.239 0 .476-.021.711-.063.234-.047.447-.101.64-.164v1.391c-.203.088-.466.164-.789.226-.323.063-.659.094-1.008.094-.489 0-.929-.08-1.32-.242-.391-.167-.701-.45-.93-.852-.229-.401-.343-.955-.343-1.664v-4.648h-1.18v-.82l1.266-.649.601-1.851h1.156v1.922h2.477v1.398h-2.477v4.625c0 .437.11.763.328.977.219.213.508.32.868.32zm11.015-3.016c0 .719-.094 1.357-.281 1.914-.187.558-.461 1.029-.82 1.414-.36.381-.792.672-1.297.875-.505.198-1.076.297-1.711.297-.594 0-1.138-.099-1.633-.297-.495-.203-.924-.494-1.289-.875-.359-.385-.638-.856-.836-1.414-.198-.557-.297-1.195-.297-1.914 0-.953.164-1.76.492-2.422.334-.666.808-1.174 1.422-1.523.615-.349 1.347-.523 2.196-.523.796 0 1.5.174 2.109.523s1.086.857 1.43 1.523c.343.667.515 1.474.515 2.422zm-6.273 0c0 .63.075 1.17.226 1.617.157.448.396.792.719 1.032.323.234.74.351 1.25.351.511 0 .927-.117 1.25-.351.323-.24.56-.584.711-1.032.151-.447.227-.987.227-1.617s-.076-1.164-.227-1.601c-.151-.443-.388-.779-.711-1.008-.323-.235-.742-.352-1.258-.352-.76 0-1.315.256-1.664.766s-.523 1.242-.523 2.195zm13.14-4.468c.974 0 1.732.252 2.274.757.547.5.82 1.305.82 2.414v5.641h-1.836v-5.297c0-.672-.138-1.174-.414-1.508-.276-.338-.703-.507-1.281-.507-.839 0-1.422.257-1.75.773-.323.516-.484 1.263-.484 2.242v4.297h-1.836v-8.648h1.429l.258 1.171h.102c.187-.302.419-.549.695-.742.281-.198.594-.346.938-.445.348-.099.71-.148 1.085-.148zm15.125 8.812h-1.843v-7.352c0-.244.002-.489.007-.734.006-.245.011-.484.016-.719.011-.234.024-.458.039-.672-.109.12-.245.25-.406.391-.156.141-.323.287-.5.438l-1.313 1.046-.921-1.164 3.39-2.656h1.531z"/></g><rect height="46" rx="3" stroke="#fff" stroke-width="2" width="99" x="705.5" y="237"/><path d="m839.312 254.578h3.399c1.474 0 2.586.214 3.336.641s1.125 1.164 1.125 2.211c0 .437-.078.833-.234 1.187-.152.349-.373.638-.665.867-.291.224-.651.375-1.078.454v.078c.443.078.836.216 1.18.414.349.198.622.481.82.851.203.37.305.849.305 1.438 0 .698-.167 1.291-.5 1.781-.328.49-.799.862-1.414 1.117-.609.255-1.333.383-2.172.383h-4.102zm1.876 4.711h1.796c.849 0 1.438-.138 1.766-.414s.492-.68.492-1.211c0-.542-.195-.932-.586-1.172-.385-.239-1-.359-1.844-.359h-1.624zm0 1.516v3.625h1.976c.875 0 1.49-.17 1.844-.508.354-.339.531-.797.531-1.375 0-.354-.081-.662-.242-.922-.156-.26-.414-.461-.774-.602-.359-.145-.843-.218-1.453-.218zm16.273-3.453v8.648h-1.445l-.25-1.164h-.102c-.182.297-.414.544-.695.742-.281.193-.594.336-.938.43-.343.099-.705.148-1.086.148-.651 0-1.208-.109-1.672-.328-.458-.224-.809-.568-1.054-1.031-.245-.464-.367-1.063-.367-1.797v-5.648h1.843v5.304c0 .672.136 1.175.407 1.508.276.333.703.5 1.281.5.557 0 1-.115 1.328-.344s.56-.567.695-1.015c.141-.448.211-.998.211-1.649v-4.304zm6.101 7.32c.24 0 .477-.021.711-.063.235-.047.448-.101.641-.164v1.391c-.203.088-.466.164-.789.226-.323.063-.659.094-1.008.094-.489 0-.929-.08-1.32-.242-.391-.167-.701-.45-.93-.852-.229-.401-.344-.955-.344-1.664v-4.648h-1.179v-.82l1.265-.649.602-1.851h1.156v1.922h2.477v1.398h-2.477v4.625c0 .437.11.763.328.977.219.213.508.32.867.32zm6.579 0c.239 0 .476-.021.711-.063.234-.047.447-.101.64-.164v1.391c-.203.088-.466.164-.789.226-.323.063-.659.094-1.008.094-.489 0-.929-.08-1.32-.242-.391-.167-.701-.45-.93-.852-.229-.401-.343-.955-.343-1.664v-4.648h-1.18v-.82l1.266-.649.601-1.851h1.156v1.922h2.477v1.398h-2.477v4.625c0 .437.11.763.328.977.219.213.508.32.868.32zm11.015-3.016c0 .719-.094 1.357-.281 1.914-.187.558-.461 1.029-.82 1.414-.36.381-.792.672-1.297.875-.505.198-1.076.297-1.711.297-.594 0-1.138-.099-1.633-.297-.495-.203-.924-.494-1.289-.875-.359-.385-.638-.856-.836-1.414-.198-.557-.297-1.195-.297-1.914 0-.953.164-1.76.492-2.422.334-.666.808-1.174 1.422-1.523.615-.349 1.347-.523 2.196-.523.796 0 1.5.174 2.109.523s1.086.857 1.43 1.523c.343.667.515 1.474.515 2.422zm-6.273 0c0 .63.075 1.17.226 1.617.157.448.396.792.719 1.032.323.234.74.351 1.25.351.511 0 .927-.117 1.25-.351.323-.24.56-.584.711-1.032.151-.447.227-.987.227-1.617s-.076-1.164-.227-1.601c-.151-.443-.388-.779-.711-1.008-.323-.235-.742-.352-1.258-.352-.76 0-1.315.256-1.664.766s-.523 1.242-.523 2.195zm13.14-4.468c.974 0 1.732.252 2.274.757.547.5.82 1.305.82 2.414v5.641h-1.836v-5.297c0-.672-.138-1.174-.414-1.508-.276-.338-.703-.507-1.281-.507-.839 0-1.422.257-1.75.773-.323.516-.484 1.263-.484 2.242v4.297h-1.836v-8.648h1.429l.258 1.171h.102c.187-.302.419-.549.695-.742.281-.198.594-.346.938-.445.348-.099.71-.148 1.085-.148zm17.461 8.812h-7.734v-1.383l2.961-3c.573-.583 1.044-1.086 1.414-1.508.37-.427.643-.83.82-1.211.183-.38.274-.794.274-1.242 0-.552-.159-.968-.477-1.25-.318-.286-.737-.429-1.258-.429-.494 0-.953.099-1.375.296-.416.193-.849.469-1.297.829l-1.007-1.211c.317-.271.656-.519 1.015-.743.365-.224.771-.401 1.219-.531.448-.135.958-.203 1.531-.203.724 0 1.349.13 1.875.391.526.255.93.612 1.211 1.07.287.458.43.992.43 1.602 0 .614-.122 1.182-.367 1.703s-.594 1.036-1.047 1.547c-.453.505-.992 1.054-1.617 1.648l-1.977 1.93v.086h5.406z" fill="#fff"/><rect height="46" rx="3" stroke="#fff" stroke-width="2" width="99" x="822.5" y="237"/></g><g filter="url(#j)"><path d="m0 0h412v64h-412z" fill="#004f83" transform="translate(514.5 302)"/><g clip-path="url(#t)"><rect fill="#fff" height="48" rx="4" width="316" x="530.5" y="310"/><g fill="#90939f"><path d="m558.88 336.92-.66.05-.41-.41c2.44-2.81 2.28-7.1-.5-9.7s-7.01-2.46-9.64.08c-2.82 2.73-2.85 7.22-.08 9.98 2.61 2.61 6.77 2.72 9.52.34l.41.41-.05.65 3.89 3.89c.39.39 1.02.39 1.41 0s.39-1.02 0-1.41l-3.88-3.88zm-2.81-1.41c-1.95 1.95-5.13 1.95-7.08 0s-1.95-5.13 0-7.08 5.13-1.95 7.08 0 1.95 5.13 0 7.08z"/><path d="m586.516 336.961c0 1.005-.365 1.789-1.094 2.351-.729.563-1.719.844-2.969.844-1.354 0-2.396-.174-3.125-.523v-1.281c.469.197.979.354 1.531.468.552.115 1.099.172 1.641.172.885 0 1.552-.166 2-.5.448-.338.672-.807.672-1.406 0-.396-.081-.719-.242-.969-.157-.255-.422-.489-.797-.703-.37-.213-.935-.456-1.695-.726-1.063-.381-1.823-.831-2.282-1.352-.453-.521-.679-1.201-.679-2.039 0-.88.33-1.581.992-2.102.661-.521 1.536-.781 2.625-.781 1.135 0 2.179.208 3.133.625l-.415 1.156c-.942-.396-1.859-.593-2.75-.593-.703 0-1.252.151-1.648.453s-.594.721-.594 1.257c0 .396.073.722.219.977.146.25.391.482.734.695.349.209.881.44 1.594.696 1.198.427 2.021.885 2.469 1.375.453.489.68 1.125.68 1.906zm5.907 3.195c-1.265 0-2.265-.385-3-1.156-.729-.771-1.093-1.841-1.093-3.211 0-1.38.338-2.477 1.015-3.289.683-.812 1.597-1.219 2.742-1.219 1.073 0 1.922.354 2.547 1.063.625.703.938 1.633.938 2.789v.82h-5.899c.026 1.005.279 1.768.758 2.289.485.521 1.164.781 2.039.781.922 0 1.834-.192 2.735-.578v1.157c-.459.197-.894.338-1.305.421-.406.089-.898.133-1.477.133zm-.351-7.789c-.688 0-1.237.224-1.649.672-.406.448-.645 1.068-.718 1.859h4.476c0-.817-.182-1.442-.547-1.875-.364-.437-.885-.656-1.562-.656zm11.134 7.633-.258-1.219h-.062c-.427.537-.854.901-1.281 1.094-.422.187-.951.281-1.586.281-.849 0-1.516-.218-2-.656-.479-.438-.719-1.06-.719-1.867 0-1.729 1.383-2.636 4.148-2.719l1.454-.047v-.531c0-.672-.146-1.167-.438-1.484-.286-.323-.747-.485-1.383-.485-.713 0-1.521.219-2.422.656l-.398-.992c.422-.229.883-.409 1.383-.539.505-.13 1.01-.195 1.515-.195 1.021 0 1.776.226 2.266.68.495.453.742 1.179.742 2.179v5.844zm-2.929-.914c.807 0 1.44-.221 1.898-.664.464-.443.695-1.063.695-1.86v-.773l-1.297.055c-1.031.036-1.776.198-2.234.484-.453.281-.68.721-.68 1.32 0 .469.141.826.422 1.071.287.245.685.367 1.196.367zm10.626-7.805c.38 0 .721.031 1.024.094l-.18 1.203c-.354-.078-.667-.117-.938-.117-.692 0-1.286.281-1.781.844-.489.562-.734 1.263-.734 2.101v4.594h-1.297v-8.562h1.07l.149 1.585h.062c.318-.557.701-.987 1.149-1.289.447-.302.94-.453 1.476-.453zm6.197 8.875c-1.24 0-2.201-.38-2.883-1.14-.677-.766-1.015-1.847-1.015-3.243 0-1.432.343-2.539 1.031-3.32.693-.781 1.677-1.172 2.953-1.172.411 0 .823.045 1.234.133.412.089.735.193.969.313l-.398 1.101c-.287-.114-.599-.208-.938-.281-.338-.078-.638-.117-.898-.117-1.74 0-2.61 1.109-2.61 3.328 0 1.052.211 1.859.633 2.422.427.562 1.057.843 1.891.843.713 0 1.445-.153 2.195-.461v1.149c-.573.297-1.294.445-2.164.445zm10.212-.156v-5.539c0-.698-.158-1.219-.476-1.563-.318-.343-.815-.515-1.492-.515-.901 0-1.56.245-1.977.734-.411.49-.617 1.292-.617 2.406v4.477h-1.297v-12.156h1.297v3.679c0 .443-.021.81-.062 1.102h.078c.255-.411.617-.734 1.086-.969.474-.239 1.013-.359 1.617-.359 1.047 0 1.83.25 2.351.75.526.495.789 1.284.789 2.367v5.586z"/></g></g><rect height="48" rx="4" stroke="#b7b9c3" width="316" x="530.5" y="310"/><path d="m892.8 327.71c-.39-.39-1.02-.39-1.41 0l-4.89 4.89-4.89-4.89c-.39-.39-1.02-.39-1.41 0s-.39 1.02 0 1.41l4.89 4.89-4.89 4.89c-.39.39-.39 1.02 0 1.41s1.02.39 1.41 0l4.89-4.89 4.89 4.89c.39.39 1.02.39 1.41 0s.39-1.02 0-1.41l-4.89-4.89 4.89-4.89c.39-.39.39-1.02 0-1.41z" fill="#fff"/></g><g filter="url(#k)"><path d="m0 0h412v64h-412z" fill="#004f83" transform="translate(514.5 376)"/><g fill="#fff"><path d="m541.326 416h-2.353v-12.285h-4.18v-1.992h10.703v1.992h-4.17zm8.568-10.811v10.811h-2.295v-10.811zm-1.133-4.14c.352 0 .655.094.909.283.26.189.39.514.39.977 0 .455-.13.781-.39.976-.254.189-.557.283-.909.283-.364 0-.674-.094-.927-.283-.248-.195-.372-.521-.372-.976 0-.463.124-.788.372-.977.253-.189.563-.283.927-.283zm8.598 13.291c.299 0 .595-.026.888-.078.293-.059.56-.127.801-.205v1.738c-.254.111-.583.205-.986.283-.404.078-.824.117-1.26.117-.612 0-1.162-.101-1.65-.302-.489-.209-.876-.564-1.163-1.065-.286-.501-.429-1.195-.429-2.08v-5.81h-1.475v-1.026l1.582-.81.752-2.315h1.445v2.402h3.096v1.749h-3.096v5.781c0 .547.137.954.411 1.22.273.267.634.401 1.084.401zm6.341 1.66h-2.305v-15.195h2.305zm7.738-11.016c.963 0 1.79.199 2.48.596s1.221.96 1.592 1.69c.371.729.557 1.601.557 2.617v1.23h-7.217c.026 1.048.306 1.856.84 2.422.54.566 1.295.85 2.265.85.691 0 1.309-.065 1.856-.196.553-.136 1.123-.335 1.709-.595v1.865c-.54.254-1.091.439-1.65.557-.56.117-1.231.175-2.012.175-1.061 0-1.996-.205-2.803-.615-.801-.417-1.429-1.035-1.885-1.855-.449-.821-.674-1.84-.674-3.057 0-1.211.206-2.24.616-3.086s.986-1.491 1.728-1.934c.742-.442 1.608-.664 2.598-.664zm0 1.729c-.723 0-1.309.234-1.758.703-.443.469-.703 1.156-.781 2.061h4.922c-.007-.541-.098-1.019-.274-1.436-.169-.417-.429-.742-.781-.977-.345-.234-.788-.351-1.328-.351z"/><path d="m602.9 405.25c-.106-.226-.274-.417-.485-.55s-.456-.202-.705-.2h-8.43c-.52 0-.99.29-1.19.75-.19.43-.1.91.22 1.25l4.22 4.58c.24.26.6.42.97.42s.73-.15.97-.42l4.22-4.58c.32-.35.4-.83.22-1.25z"/></g></g><g filter="url(#l)"><path d="m0 0h412v64h-412z" fill="#004f83" transform="translate(514.5 450)"/><g fill="#fff"><path d="m541.326 490h-2.353v-12.285h-4.18v-1.992h10.703v1.992h-4.17zm8.568-10.811v10.811h-2.295v-10.811zm-1.133-4.14c.352 0 .655.094.909.283.26.189.39.514.39.977 0 .455-.13.781-.39.976-.254.189-.557.283-.909.283-.364 0-.674-.094-.927-.283-.248-.195-.372-.521-.372-.976 0-.463.124-.788.372-.977.253-.189.563-.283.927-.283zm8.598 13.291c.299 0 .595-.026.888-.078.293-.059.56-.127.801-.205v1.738c-.254.111-.583.205-.986.283-.404.078-.824.117-1.26.117-.612 0-1.162-.101-1.65-.302-.489-.209-.876-.564-1.163-1.065-.286-.501-.429-1.195-.429-2.08v-5.81h-1.475v-1.026l1.582-.81.752-2.315h1.445v2.402h3.096v1.749h-3.096v5.781c0 .547.137.954.411 1.22.273.267.634.401 1.084.401zm6.341 1.66h-2.305v-15.195h2.305zm7.738-11.016c.963 0 1.79.199 2.48.596s1.221.96 1.592 1.69c.371.729.557 1.601.557 2.617v1.23h-7.217c.026 1.048.306 1.856.84 2.422.54.566 1.295.85 2.265.85.691 0 1.309-.065 1.856-.196.553-.136 1.123-.335 1.709-.595v1.865c-.54.254-1.091.439-1.65.557-.56.117-1.231.175-2.012.175-1.061 0-1.996-.205-2.803-.615-.801-.417-1.429-1.035-1.885-1.855-.449-.821-.674-1.84-.674-3.057 0-1.211.206-2.24.616-3.086s.986-1.491 1.728-1.934c.742-.442 1.608-.664 2.598-.664zm0 1.729c-.723 0-1.309.234-1.758.703-.443.469-.703 1.156-.781 2.061h4.922c-.007-.541-.098-1.019-.274-1.436-.169-.417-.429-.742-.781-.977-.345-.234-.788-.351-1.328-.351z"/><path d="m602.9 479.25c-.106-.226-.274-.417-.485-.55s-.456-.202-.705-.2h-8.43c-.52 0-.99.29-1.19.75-.19.43-.1.91.22 1.25l4.22 4.58c.24.26.6.42.97.42s.73-.15.97-.42l4.22-4.58c.32-.35.4-.83.22-1.25z"/><path d="m758.88 484.92-.66.05-.41-.41c2.44-2.81 2.28-7.1-.5-9.7s-7.01-2.46-9.64.08c-2.82 2.73-2.85 7.22-.08 9.98 2.61 2.61 6.77 2.72 9.52.34l.41.41-.05.65 3.89 3.89c.39.39 1.02.39 1.41 0s.39-1.02 0-1.41l-3.88-3.88zm-2.81-1.41c-1.95 1.95-5.13 1.95-7.08 0s-1.95-5.13 0-7.08 5.13-1.95 7.08 0 1.95 5.13 0 7.08z"/><path d="m810.5 473h-2c0-.55-.45-1-1-1s-1 .45-1 1h-8c0-.55-.45-1-1-1s-1 .45-1 1h-2c-1.1 0-2 .9-2 2v15c0 1.1.9 2 2 2h16c1.1 0 2-.9 2-2v-15c0-1.1-.9-2-2-2zm-11 11h-3v-3h3zm4.5 0h-3v-3h3zm4.5 0h-3v-3h3zm2-6.71c0 .39-.32.71-.71.71h-14.58c-.39 0-.71-.32-.71-.71v-1.59c0-.39.32-.71.71-.71h1.29v1.01c0 .55.45 1 1 1s1-.45 1-1v-1l8-.01v1.01c0 .55.45 1 1 1s1-.45 1-1v-1l1.29-.01c.39 0 .71.32.71.71z"/></g><g clip-path="url(#u)"><path d="m849.09 480.59c-.78.78-.78 2.05 0 2.83s2.05.78 2.83 0 .78-2.05 0-2.83-2.05-.78-2.83 0zm0-7c-.78.78-.78 2.05 0 2.83s2.05.78 2.83 0 .78-2.05 0-2.83-2.05-.78-2.83 0zm0 14c-.78.78-.78 2.05 0 2.83s2.05.78 2.83 0 .78-2.05 0-2.83-2.05-.78-2.83 0z" fill="#fff"/></g><g clip-path="url(#v)"><path d="m898.5 472c-5.52 0-10 4.48-10 10s4.48 10 10 10 10-4.48 10-10-4.48-10-10-10zm0 4c2.07 0 3.75 1.68 3.75 3.75s-1.68 3.75-3.75 3.75-3.75-1.68-3.75-3.75 1.68-3.75 3.75-3.75zm0 14c-2.84 0-5.34-1.5-6.76-3.74.13-.07.27-.14.43-.21 1.22-.56 3.47-1.37 6.33-1.37 2.87 0 5.12.81 6.33 1.37.16.07.3.15.43.22-1.42 2.24-3.91 3.73-6.76 3.73z" fill="#fff"/></g></g></g></svg>