<svg xmlns="http://www.w3.org/2000/svg" {{ with .width }} width="{{ . }}"{{ end }}{{ with .height }} height="{{ . }}"{{ end }}{{ with .class }} class="{{ . }}"{{ end }} viewBox="0 0 32 32">
<g stroke="none" stroke-width="1" fill="none" fill-rule="evenodd">
<g stroke="none" stroke-width="1" fill="none" fill-rule="evenodd">
<g fill="#6A6976" fill-rule="nonzero">
<path d="M29,30 L1,30 C0.44771525,30 0,29.5522847 0,29 L0,1 C0,0.44771525 0.44771525,0 1,0 C1.55228475,0 2,0.44771525 2,1 L2,28 L29,28 C29.5522847,28 30,28.4477153 30,29 C30,29.5522847 29.5522847,30 29,30 Z"></path>
<path d="M9.06,30 L5.06,30 C4.50771525,30 4.06,29.5522847 4.06,29 L4.06,9 C4.06,8.44771525 4.50771525,8 5.06,8 L9.06,8 C9.61228475,8 10.06,8.44771525 10.06,9 L10.06,29 C10.06,29.5522847 9.61228475,30 9.06,30 Z M6.06,28 L8.06,28 L8.06,10 L6.06,10 L6.06,28 Z"></path>
<path d="M17.06,30 L13.06,30 C12.5077153,30 12.06,29.5522847 12.06,29 L12.06,17 C12.06,16.4477153 12.5077153,16 13.06,16 L17.06,16 C17.6122847,16 18.06,16.4477153 18.06,17 L18.06,29 C18.06,29.5522847 17.6122847,30 17.06,30 Z M14.06,28 L16.06,28 L16.06,18 L14.06,18 L14.06,28 Z"></path>
<path d="M25.06,30 L21.06,30 C20.5077153,30 20.06,29.5522847 20.06,29 L20.06,21 C20.06,20.4477153 20.5077153,20 21.06,20 L25.06,20 C25.6122847,20 26.06,20.4477153 26.06,21 L26.06,29 C26.06,29.5522847 25.6122847,30 25.06,30 Z M22.06,28 L24.06,28 L24.06,22 L22.06,22 L22.06,28 Z"></path>
</g>
</g>
</svg>