<svg viewBox="0 0 1200 1200" xmlns="http://www.w3.org/2000/svg" xmlns:xlink="http://www.w3.org/1999/xlink"><clipPath id="a"><path d="m787.63 485.33-4.73-2.74c-1.8-1-2.92-3.27-2.93-6.42 0-6.34 4.48-14.14 10-17.33l4.72 2.75c-5.52 3.19-10 11-10 17.32.01 3.15 1.13 5.38 2.94 6.42z"/></clipPath><clipPath id="b"><path d="m668.36 734.51 4.21 2.43 4.24-2.44-4.24-2.45z"/></clipPath><path d="m590.39 618.08a54 54 0 0 1 -8.17-9.06l-30.06-59.82 22.75 60.89a37.9 37.9 0 0 1 .56 6.56 140.3 140.3 0 0 1 -28.7-8.87l-117.62-63.33 109.68 67.91c6.58 5.3 11.34 10.12 14.27 14.71-2.76-.17-5.69-.42-8.76-.74l-103.22-18.15 100.77 22.26a122.14 122.14 0 0 1 14.6 5.3 15.5 15.5 0 0 1 .18 2.44 128 128 0 0 1 -15.67 4.72l-103.63 17.35 105.47-13.13c4.07-.22 7.85-.33 11.36-.32-2.77 5.15-7.9 10.55-15.37 16.56l-109.68 67.91 117.62-63.27a146.65 146.65 0 0 1 25.48-8.24 43.16 43.16 0 0 1 -1.28 5.06l-31.44 59.59 38.56-58.18a62.33 62.33 0 0 1 9.18-8.42c1.41-.07 2.82-.12 4.23-.11a54 54 0 0 1 8.17 9.05l30.05 59.83-22.72-60.94a37.9 37.9 0 0 1 -.56-6.56 139.42 139.42 0 0 1 28.67 8.92l117.63 63.32-109.69-67.9c-6.57-5.3-11.33-10.13-14.26-14.72 2.76.17 5.69.43 8.76.75l103.22 18.15-100.77-22.32a118.14 118.14 0 0 1 -14.6-5.3 15.41 15.41 0 0 1 -.18-2.44 131.4 131.4 0 0 1 15.67-4.72l103.63-17.35-105.47 13.14c-4.07.22-7.85.33-11.36.32 2.76-5.15 7.9-10.55 15.36-16.57l109.69-67.91-117.63 63.33a148.38 148.38 0 0 1 -25.48 8.22 45.38 45.38 0 0 1 1.29-5.06l31.44-59.6-38.57 58.18a62.37 62.37 0 0 1 -9.17 8.43c-1.41.05-2.82.13-4.23.13z" fill="#ffd13e"/><path d="m591.7 682.8v-33.87c0-.56-1.52-.56-1.52 0v33.87c0 .56 1.52.56 1.52 0zm0 16.64v-10.8c0-.56-1.52-.57-1.52 0v10.8c0 .56 1.52.56 1.52 0zm40.23-23.1-29.33-29.34c-.49-.48-1.8 0-1.32.44l29.33 29.33c.49.5 1.81.06 1.32-.43zm14.41 14.41-9.34-9.35c-.48-.49-1.8 0-1.31.44l9.35 9.35c.47.49 1.79.05 1.3-.44zm14.83-31.61-50.8-16.93c-.84-.29-1.6.47-.76.75l50.8 16.94c.85.28 1.59-.48.76-.76zm24.96 8.32-16.2-5.4c-.85-.28-1.61.47-.76.76l16.2 5.4c.85.28 1.63-.48.76-.76zm-14.53-31.66h-58.66c-1 0-1 .87 0 .87h58.66c.97 0 .98-.87 0-.87zm28.82 0h-18.71c-1 0-1 .87 0 .87h18.71c.98 0 .98-.87 0-.87zm-40.01-23.23-50.8 16.94c-.84.28-.08 1 .76.75l50.8-16.93c.83-.28.09-1.04-.76-.76zm24.96-8.32-16.2 5.4c-.84.28-.09 1 .76.76l16.2-5.4c.87-.28.09-1.01-.76-.76zm-54.76-8.56-29.33 29.31c-.48.49.83.92 1.32.44l29.33-29.33c.49-.47-.83-.91-1.32-.42zm14.39-14.41-9.36 9.35c-.49.49.83.93 1.31.44l9.36-9.35c.52-.49-.8-.93-1.31-.44zm-54.81 8.39v33.87c0 .56 1.51.56 1.51 0v-33.87c0-.56-1.51-.57-1.51 0zm0-16.67v10.8c0 .56 1.51.56 1.51 0v-10.8c0-.54-1.51-.54-1.51 0zm-40.19 23.13 29.33 29.33c.49.48 1.8 0 1.31-.44l-29.33-29.33c-.52-.49-1.84-.05-1.31.44zm-14.45-14.41 9.35 9.35c.49.49 1.81 0 1.32-.44l-9.36-9.35c-.49-.49-1.8-.05-1.31.44zm-14.83 31.61 50.79 16.93c.85.29 1.61-.47.76-.75l-50.8-16.94c-.84-.28-1.6.48-.75.76zm-24.97-8.33 16.21 5.4c.84.28 1.6-.47.76-.76l-16.21-5.4c-.84-.24-1.6.49-.76.76zm14.54 31.67h58.71c1 0 1-.87 0-.87h-58.71c-.98 0-.98.87 0 .87zm-28.82 0h18.71c1 0 1-.87 0-.87h-18.71c-.98 0-.98.87 0 .87zm40 23.23 50.8-16.9c.85-.28.09-1-.76-.75l-50.79 16.93c-.85.24-.09 1 .75.72zm-24.96 8.32 16.21-5.4c.84-.29.08-1-.76-.76l-16.21 5.4c-.84.28-.08 1.04.76.76zm54.76 8.56 29.33-29.33c.49-.49-.82-.92-1.31-.44l-29.29 29.33c-.53.49.78.93 1.27.44zm-14.41 14.41 9.36-9.35c.48-.49-.83-.93-1.32-.44l-9.35 9.35c-.49.49.82.93 1.31.44zm81.62-39.68-15-8.67c-.69-.4-1.77.22-1.07.62l15 8.67c.68.4 1.76-.22 1.07-.62zm28.24 16.31-22.52-13c-.69-.39-1.77.22-1.08.62l22.53 13c.69.4 1.76-.22 1.07-.62zm10.01 5.78-5-2.89c-.69-.4-1.77.22-1.07.62l5 2.89c.69.4 1.77-.22 1.07-.62zm-28.73-32.08-20.52-3.18c-.94-.14-1.33.7-.39.85l20.51 3.17c.97.15 1.4-.7.4-.84zm38.6 5.97-30.77-4.76c-.94-.15-1.34.7-.39.84l30.77 4.76c.94.15 1.34-.7.39-.84zm13.68 2.11-6.84-1.06c-.94-.14-1.34.7-.39.85l6.84 1.06c.94.14 1.33-.7.39-.85zm-52.66-19.49-20.51 3.17c-.94.15-.55 1 .39.85l20.5-3.13c1-.19.57-1-.38-.89zm38.59-5.97-30.77 4.76c-.94.14-.55 1 .39.84l30.77-4.74c.95-.16.56-1-.39-.86zm13.68-2.14-6.84 1.06c-.94.15-.55 1 .39.85l6.84-1.06c.94-.13.55-.97-.39-.85zm-62.49-1.66-15 8.67c-.69.4.38 1 1.07.62l15-8.67c.7-.4-.38-1.02-1.07-.62zm28.25-16.34-22.53 13c-.69.39.39 1 1.08.62l22.52-13c.69-.37-.38-.99-1.07-.62zm10.01-5.75-5 2.89c-.69.4.38 1 1.07.62l5-2.89c.7-.4-.38-1.02-1.07-.62zm-55.57 16.58-5.49 11.84c-.26.55 1.21.78 1.46.23l5.5-11.84c.25-.55-1.21-.77-1.47-.23zm10.34-22.28-8.24 17.77c-.26.54 1.21.77 1.46.23l8.25-17.77c.25-.55-1.22-.78-1.47-.23zm3.67-7.89-1.84 3.94c-.25.55 1.22.78 1.47.23l1.83-4c.25-.49-1.21-.72-1.46-.17zm-33.77 30.4 5.5 11.84c.25.55 1.71.32 1.46-.23l-5.49-11.84c-.26-.54-1.72-.32-1.47.23zm-10.33-22.28 8.25 17.77c.25.54 1.71.31 1.46-.23l-8.24-17.77c-.27-.55-1.73-.32-1.47.23zm-3.67-7.9 1.83 4c.25.55 1.72.32 1.46-.23l-1.83-3.94c-.25-.6-1.72-.37-1.46.17zm-2.92 36.12 15 8.67c.69.4 1.76-.22 1.07-.62l-15-8.67c-.69-.44-1.76.18-1.07.62zm-28.25-16.35 22.53 13c.69.39 1.76-.22 1.07-.62l-22.52-13c-.69-.4-1.77.22-1.08.62zm-10.01-5.78 5 2.89c.69.4 1.76-.22 1.07-.62l-5-2.89c-.69-.4-1.76.22-1.07.62zm28.72 32.13 20.51 3.18c1 .14 1.34-.7.4-.85l-20.52-3.17c-.94-.16-1.33.65-.39.84zm-38.59-6 30.78 4.76c.94.15 1.33-.7.39-.84l-30.77-4.76c-.95-.16-1.34.68-.4.84zm-13.67-2.13 6.84 1.06c.94.14 1.33-.7.39-.85l-6.84-1.08c-.94-.12-1.34.72-.39.87zm52.65 19.49 20.52-3.17c.94-.15.55-1-.4-.85l-20.51 3.18c-.94.14-.55.99.39.84zm-38.58 5.97 30.77-4.76c.94-.14.55-1-.39-.84l-30.78 4.76c-.94.14-.55.99.4.84zm-13.68 2.12 6.84-1.06c.94-.15.55-1-.39-.85l-6.84 1.06c-.95.15-.55.99.39.85zm62.48 1.68 15-8.67c.69-.4-.38-1-1.07-.62l-15 8.67c-.69.4.38 1.02 1.07.62zm-28.24 16.31 22.52-13c.69-.39-.38-1-1.07-.62l-22.53 13c-.69.4.39 1.02 1.08.62zm-10.02 5.78 5-2.89c.69-.4-.38-1-1.07-.62l-5 2.89c-.69.4.38 1.02 1.07.62zm55.57-16.58 5.5-11.84c.25-.55-1.21-.78-1.46-.23l-5.5 11.84c-.25.59 1.21.77 1.46.23zm-10.33 22.28 8.24-17.77c.25-.54-1.21-.77-1.46-.23l-8.24 17.77c-.26.54 1.2.77 1.46.23zm-3.67 7.89 1.83-3.94c.26-.55-1.21-.78-1.46-.23l-1.83 4c-.26.49 1.21.72 1.46.17zm33.77-30.4-5.5-11.84c-.25-.55-1.72-.32-1.46.23l5.49 11.84c.25.54 1.72.36 1.47-.23zm10.34 22.28-8.25-17.77c-.25-.54-1.72-.31-1.46.23l8.24 17.77c.25.54 1.72.32 1.47-.23zm3.66 7.9-1.83-4c-.25-.55-1.72-.32-1.47.23l1.84 3.94c.25.6 1.71.37 1.46-.17z" fill="#ffd13e"/><path d="m517.26 328.49 55.18-31.73 33.88 19.68-25.72 129.62 61.7-51.08 22.32 12.7-72.5 230.18-.28-.18 1.67-166.41-30.92 63.81-19.8-11.29z" fill="#f9a216"/><path d="m517.54 328.33 42.97 25.12 43.95-27.63 1.86-9.38-33.88-19.68z" fill="#ffb92c"/><path d="m599.34 457.41 6.98-140.97-51.72 29.75-3.45 1.99 11.44 186.9 48.65-37.48-19.12 140.26.42-.24 72.08-229.94z" fill="#ffd13e"/><path d="m97.78 357.73v89.44l9.55-5.44v-89.44z" fill="#d0d0d7"/><path d="m97.78 357.73-7.22-4.17v89.45l7.22 4.16z" fill="#9d9da6"/><path d="m90.56 353.56 9.54-5.44 7.23 4.17-9.55 5.44z" fill="#c7c7c7"/><path d="m141.51 410.21v62.36l9.55-5.45v-62.35z" fill="#d0d0d7"/><path d="m141.51 410.21-7.22-4.17v62.36l7.22 4.17z" fill="#9d9da6"/><path d="m134.29 406.04 9.54-5.44 7.23 4.17-9.55 5.44z" fill="#c7c7c7"/><path d="m69.87 327.42 156.27-90.81 150.03 199-156.26 90.78z" fill="#9d9da6"/><path d="m77.72 322.86 156.25-90.8 150.04 198.99-156.26 90.79z" fill="#d0d0d7"/><path d="m231.31 245.28-138.69 80.59 137.8 182.75 138.69-80.59z" fill="#474655"/><path d="m102.4 338.88 1.89 2.51 138.69-80.59-1.89-2.51zm13.1 17.37 1.89 2.51 138.69-80.59-1.89-2.51zm13.1 17.37 1.89 2.51 138.69-80.59-1.89-2.51zm13.09 17.37 1.89 2.51 138.69-80.6-1.89-2.5zm13.1 17.37 1.89 2.51 138.69-80.6-1.89-2.5zm13.1 17.37 1.89 2.51 138.69-80.6-1.9-2.5zm13.09 17.37 1.89 2.5 138.69-80.59-1.89-2.5zm13.1 17.36 1.89 2.51 138.69-80.59-1.89-2.51zm13.1 17.37 1.89 2.51 138.68-80.59-1.88-2.51zm13.09 17.37 1.89 2.51 138.69-80.59-1.89-2.51z" fill="#7b7a86"/><path d="m355.74 435.75 3.17-1.84-137.8-182.75-3.17 1.84zm-36.38 21.09 3.16-1.84-137.79-182.75-3.17 1.84zm-36.39 21.09 3.17-1.84-137.8-182.75-3.17 1.84zm-36.38 21.1 3.16-1.84-137.8-182.75-3.16 1.84z" fill="#7b7a86"/><path d="m469.43 569.61a2.16 2.16 0 0 1 -1.06-.28l-118.52-68.43a2.13 2.13 0 0 1 2.13-3.69l118.52 68.43a2.13 2.13 0 0 1 -1.07 4z" fill="#8c8b96"/><path d="m353.52 495a4.81 4.81 0 1 0 1.76 6.57 4.81 4.81 0 0 0 -1.76-6.57z" fill="#8c8b96"/><path d="m311.34 524.39a2.15 2.15 0 0 1 -1.07-.29l-43.71-25.24a2.13 2.13 0 0 1 2.13-3.69l42.65 24.62 74.08-42.79-41.12-23.73a2.13 2.13 0 0 1 2.14-3.69l44.3 25.6a2.13 2.13 0 0 1 0 3.69l-78.34 45.23a2.09 2.09 0 0 1 -1.06.29z" fill="#8c8b96"/><path d="m265.43 501.3a4.81 4.81 0 1 1 6.56-1.76 4.81 4.81 0 0 1 -6.56 1.76zm82.57-53.92a4.81 4.81 0 1 0 1.76 6.57 4.79 4.79 0 0 0 -1.76-6.57z" fill="#8c8b96"/><path d="m385.52 520.25a1.52 1.52 0 0 1 -1.52-1.52v-11.45c0-3.53 1.28-6.21 3.59-7.54s5.28-1.11 8.33.66l15.39 8.89a1.51 1.51 0 1 1 -1.51 2.62l-15.39-8.91c-2.08-1.2-4-1.43-5.3-.66s-2.08 2.52-2.08 4.92v11.45a1.52 1.52 0 0 1 -1.51 1.54z" fill="#322f34"/><path d="m444.53 517.05a4.29 4.29 0 0 0 -1.9-.55h-.81a7.37 7.37 0 0 0 -2.39.68c-.27.13-.54.27-.82.43a14.14 14.14 0 0 0 -3 2.35c-3.12 3.18-5.33 7.93-5.32 12a8 8 0 0 0 .66 3.32 5.2 5.2 0 0 0 .76 1.18 4.16 4.16 0 0 0 .48.46 3.87 3.87 0 0 0 .53.37l-37.89-22c-1.5-.87-2.42-2.71-2.43-5.34a12.2 12.2 0 0 1 .15-1.88 19.12 19.12 0 0 1 5.08-10 14.21 14.21 0 0 1 3.06-2.44 7.59 7.59 0 0 1 .69-.36 6.72 6.72 0 0 1 3.29-.77 4.24 4.24 0 0 1 1.94.55l25.09 14.59z" fill="#fbaf17"/><path d="m438.61 517.63c4.59-2.65 8.33-.52 8.34 4.75s-3.69 11.71-8.28 14.36-8.33.52-8.35-4.75 3.68-11.71 8.29-14.36z" fill="#e5a124"/><path d="m438.62 520.75c3.1-1.79 5.61-.36 5.62 3.2a12.33 12.33 0 0 1 -5.58 9.68c-3.1 1.78-5.61.35-5.62-3.21a12.29 12.29 0 0 1 5.58-9.67z" fill="#fbaf17"/><path d="m448.56 557a1.52 1.52 0 0 1 -1.51-1.51v-11.43c0-5.57-4.07-12.62-8.89-15.4a1.52 1.52 0 1 1 1.51-2.63c5.74 3.32 10.41 11.4 10.41 18v11.45a1.52 1.52 0 0 1 -1.52 1.52z" fill="#322f34"/><path d="m441.1 515-.86-.47c-1.51-.87-3.6-.75-5.91.58-4.6 2.66-8.31 9.08-8.29 14.36a7.25 7.25 0 0 0 1 4 4.69 4.69 0 0 0 .42.55 4.08 4.08 0 0 0 .47.46 4.6 4.6 0 0 0 .53.37l.86.46c-1.49-.86-2.42-2.71-2.43-5.33 0-5.28 3.7-11.7 8.29-14.35a9.06 9.06 0 0 1 2.49-1 7.13 7.13 0 0 1 .77-.11 4.48 4.48 0 0 1 .73 0 4.3 4.3 0 0 1 1.93.56z" fill="#1c7cb6"/><path d="m434.38 511.14-.86-.46c-1.51-.88-3.61-.75-5.92.58-4.59 2.65-8.3 9.08-8.28 14.35a7.2 7.2 0 0 0 1 4 6 6 0 0 0 .41.55 4.16 4.16 0 0 0 .48.46 3.87 3.87 0 0 0 .53.37l.86.46c-1.5-.87-2.42-2.71-2.43-5.33 0-5.28 3.7-11.71 8.29-14.36a8.6 8.6 0 0 1 2.49-1 5.34 5.34 0 0 1 .77-.12 6 6 0 0 1 .73 0 4.17 4.17 0 0 1 1.93.55z" fill="#1c7cb6"/><path d="m430.49 508.87-.86-.46c-1.51-.88-3.61-.76-5.92.58-4.59 2.65-8.3 9.08-8.28 14.35a7.2 7.2 0 0 0 1 4 6 6 0 0 0 .41.55 5.22 5.22 0 0 0 .48.46 5 5 0 0 0 .53.37l.86.46c-1.5-.87-2.42-2.71-2.43-5.34 0-5.27 3.7-11.7 8.29-14.35a8.6 8.6 0 0 1 2.49-1 5.34 5.34 0 0 1 .77-.12 4.46 4.46 0 0 1 .73 0 4.17 4.17 0 0 1 1.93.55z" fill="#1c7cb6"/><path d="m437.47 513-.86-.46c-1.51-.88-3.6-.76-5.92.58-4.59 2.65-8.3 9.07-8.28 14.35a7.23 7.23 0 0 0 1 4 5.87 5.87 0 0 0 .41.54 4.16 4.16 0 0 0 .48.46 3.62 3.62 0 0 0 .53.37l.86.47c-1.5-.87-2.42-2.72-2.43-5.34 0-5.27 3.7-11.7 8.29-14.35a8.71 8.71 0 0 1 2.49-1 5.34 5.34 0 0 1 .77-.12 6 6 0 0 1 .73 0 4.3 4.3 0 0 1 1.93.56z" fill="#1c7cb6"/><path d="m319.91 796.94a2.13 2.13 0 0 1 -1.06-4l149.53-85.32a2.13 2.13 0 1 1 2.11 3.7l-149.49 85.34a2.09 2.09 0 0 1 -1.09.28z" fill="#8c8b96"/><path d="m322.5 798.87a4.81 4.81 0 1 1 1.79-6.56 4.81 4.81 0 0 1 -1.79 6.56z" fill="#8c8b96"/><path d="m106.33 805.79.28 98.38 97.81 56.84-.28-98.38z" fill="#f4bf22"/><path d="m204.14 862.63.28 98.38 188.58-108.87-.28-98.38z" fill="#e5a124"/><path d="m106.33 805.79 97.81 56.84 188.58-108.87-97.81-56.84z" fill="#f4bf22"/><path d="m228.57 848.58.28 98.38 140.67-81.07-.28-98.38zm-97.81-56.84 97.81 56.84 140.67-81.07-97.92-56.9z" fill="#363545"/><path d="m253.1 823.42-9.6 5.55-76.85-44.37 9.61-5.55zm-15.1 8.72-9.61 5.54-76.84-44.36 9.61-5.55zm80.73 37-74.59 43.07v-42.28l74.59-43.06zm42.1-24.3-28.67 16.55v-42.27l28.67-16.56z" fill="#d6d6d6"/><path d="m1068.81 781.23-45.7-26.54-.21-119.51 45.69 26.55z" fill="#484655"/><path d="m1068.59 661.73-45.69-26.55 61.31-35.41 45.7 26.55z" fill="#174579"/><path d="m1129.91 626.32.22 119.5-61.32 35.41-.22-119.5z" fill="#6a6976"/><path d="m1081.1 713.22-3.84-2.3-.16-27.18 3.83 2.3zm-.17-27.18-3.83-2.3 47.07-27.18 3.83 2.3z" fill="#6a6a77"/><path d="m1128 658.86.17 27.18-47.07 27.18-.17-27.18z" fill="#e5eaea"/><path d="m1097.76 687.04-.02-4z" fill="#334142"/><path d="m1095.19 687.04-.01-2.52zm2.62 8.13a.59.59 0 0 1 0-.2v-.05a.62.62 0 0 0 0 .25zm1.05-.36a1.34 1.34 0 0 0 .19-.64 1.34 1.34 0 0 1 -.19.64z" fill="#334142"/><path d="m1092.62 696.39v-1.19zm0-9.37-.01-1.02zm3.22 9.75a1 1 0 0 0 .25-.21 1 1 0 0 1 -.25.21zm-.25.08h-.08zm-.4-.45v-1.5z" fill="#334142"/><path d="m1092.62 695.2v1.19zm0-8.18-.01-1.02.01 8.9zm2.57.32v-.3zm2.58 7.66v-.05zm-5.15 1.39.01.63zm1.14 1.29s0 .02 0 0zm-1.13.2v-.86zm-.01-2.98v.3zm5.77-12.97a.63.63 0 0 1 .25-.09.63.63 0 0 0 -.25.09zm-.46.48a1.33 1.33 0 0 1 .46-.48 1.33 1.33 0 0 0 -.46.48z" fill="#334142"/><path d="m1097.81 695.17a.62.62 0 0 1 0-.25v-11.92a1.39 1.39 0 0 1 .19-.63 1.33 1.33 0 0 1 .46-.48.63.63 0 0 1 .25-.09c.23 0 .39.15.39.46v11.87a1.34 1.34 0 0 1 -.19.64 1.36 1.36 0 0 1 -.45.47c-.32.2-.55.14-.65-.07zm-6.55 3.83v.1zm-.26.46s0 .02 0 0zm-.54.35h-.08s.04.01.08 0zm.51-.31v.01zm-.26.23h-.07zm4.48-3.33v-11.88a1.28 1.28 0 0 1 .19-.63 1.1 1.1 0 0 1 .2-.28 1.16 1.16 0 0 1 .25-.2.44.44 0 0 1 .45 0 .29.29 0 0 1 .14.15.53.53 0 0 1 .06.26v11.87a1.41 1.41 0 0 1 -.39.91 1 1 0 0 1 -.25.21.44.44 0 0 1 -.2.07h-.09a.2.2 0 0 1 -.11 0 .45.45 0 0 1 -.25-.48zm-1.94-11.51a.56.56 0 0 1 .25-.08.56.56 0 0 0 -.25.08zm-.64 1.11a1.46 1.46 0 0 1 .39-.91 1.46 1.46 0 0 0 -.39.91z" fill="#334142"/><path d="m1092.63 697.88v-11.88a1.36 1.36 0 0 1 .64-1.11.56.56 0 0 1 .25-.08.3.3 0 0 1 .21 0 .43.43 0 0 1 .19.41v11.88a1.22 1.22 0 0 1 -.14.5 1.33 1.33 0 0 1 -.46.48c-.4.37-.69.2-.69-.2zm-2.57 1.48v-11.88a1.41 1.41 0 0 1 .18-.63 1.33 1.33 0 0 1 .46-.48.52.52 0 0 1 .25-.08c.23 0 .39.15.39.45v11.88a1.12 1.12 0 0 1 0 .31 1 1 0 0 1 0 .1v.1a1.15 1.15 0 0 1 -.21.33 1.32 1.32 0 0 1 -.26.22h-.07a.54.54 0 0 1 -.18.06h-.21a.45.45 0 0 1 -.35-.38zm17.97-18.35-.01-4z" fill="#334142"/><path d="m1105.46 681.01-.01-2.51zm2.62 8.14a1.12 1.12 0 0 1 0-.21v-.05a.67.67 0 0 0 0 .26zm1.05-.37a1.28 1.28 0 0 0 .19-.63 1.28 1.28 0 0 1 -.19.63z" fill="#334142"/><path d="m1102.89 690.36v-1.18zm0-9.36-.01-1.02zm3.22 9.74a1.16 1.16 0 0 0 .25-.2 1.16 1.16 0 0 1 -.25.2zm-.25.09h-.08zm-.39-.46-.01-1.49z" fill="#334142"/><path d="m1102.89 689.18v1.18zm0-8.18-.01-1.02.01 8.9zm5.11 7.94v-.05zm-5.11 1.42.01.64zm1.11 1.3s0 .01 0 0zm-1.1.2v-.86zm5.76-15.96a.66.66 0 0 1 .25-.08.66.66 0 0 0 -.25.08zm-.45.48a1.3 1.3 0 0 1 .45-.48 1.3 1.3 0 0 0 -.45.48z" fill="#334142"/><path d="m1108.08 689.15a.67.67 0 0 1 0-.26v-11.89a1.44 1.44 0 0 1 .64-1.11.66.66 0 0 1 .25-.08c.23 0 .39.15.39.45v11.88a1.28 1.28 0 0 1 -.19.63 1.39 1.39 0 0 1 -.45.48c-.31.16-.54.11-.64-.1zm-6.55 3.85v.1zm-.25.44s-.02.01 0 0zm-.55.35h-.08zm.52-.31-.01.01zm-.25.23h-.07zm4.47-3.34v-11.87a1.25 1.25 0 0 1 .19-.63 1.55 1.55 0 0 1 .2-.28 1.16 1.16 0 0 1 .25-.2.44.44 0 0 1 .46 0 .37.37 0 0 1 .14.16.62.62 0 0 1 0 .25v11.88a1.46 1.46 0 0 1 -.39.91 1.16 1.16 0 0 1 -.25.2 1 1 0 0 1 -.2.07h-.2a.45.45 0 0 1 -.2-.49zm-1.94-11.5a.63.63 0 0 1 .25-.09.63.63 0 0 0 -.25.09zm-.65 1.13a1.45 1.45 0 0 1 .4-.91 1.47 1.47 0 0 0 -.4.91z" fill="#334142"/><path d="m1102.9 691.86v-11.86a1.47 1.47 0 0 1 .4-.91 1 1 0 0 1 .25-.2.63.63 0 0 1 .25-.09.37.37 0 0 1 .39.46v11.87a1.42 1.42 0 0 1 -.13.51 1.31 1.31 0 0 1 -.45.48c-.42.31-.71.14-.71-.26zm-2.57 1.48v-11.88a1.28 1.28 0 0 1 .19-.63 1.23 1.23 0 0 1 .45-.48.69.69 0 0 1 .25-.09c.23 0 .4.15.4.46v11.87a1.19 1.19 0 0 1 0 .32 1 1 0 0 0 0 .1v.1a1.38 1.38 0 0 1 -.2.33.86.86 0 0 1 -.26.21h-.07a.43.43 0 0 1 -.18.06h-.09a.25.25 0 0 1 -.12 0 .46.46 0 0 1 -.37-.37zm17.98-18.31-.01-4z" fill="#334142"/><path d="m1115.74 675.03-.01-2.51zm2.62 8.14a1.12 1.12 0 0 1 0-.21v-.05a.67.67 0 0 0 0 .26zm1.05-.37a1.28 1.28 0 0 0 .19-.63 1.28 1.28 0 0 1 -.19.63z" fill="#334142"/><path d="m1113.18 684.38-.01-1.18zm-.01-9.36-.01-1.02zm3.22 9.74a1 1 0 0 0 .25-.2 1 1 0 0 1 -.25.2h-.05zm-.25.09h-.08zm-.39-.46-.01-1.49z" fill="#334142"/><path d="m1113.17 683.2.01 1.18zm0-8.18-.01-1.02.01 8.9zm5.15 7.98v-.05zm-5.14 1.38v.64zm0 1.5v-.86zm-.01-2.98v.3zm5.77-12.98a.66.66 0 0 1 .25-.08.66.66 0 0 0 -.25.08zm-.45.48a1.3 1.3 0 0 1 .45-.48 1.3 1.3 0 0 0 -.45.48z" fill="#334142"/><path d="m1118.36 683.17a.67.67 0 0 1 0-.26v-11.91a1.44 1.44 0 0 1 .64-1.11.66.66 0 0 1 .25-.08c.23 0 .39.15.39.45v11.88a1.28 1.28 0 0 1 -.19.63 1.31 1.31 0 0 1 -.45.48c-.31.18-.54.13-.64-.08zm-6.55 3.83v.1zm-.81.81h-.08zm.53-.31-.01.01zm-.27.23h-.07zm4.49-3.34v-11.87a1.28 1.28 0 0 1 .19-.63 2 2 0 0 1 .2-.28 1.16 1.16 0 0 1 .25-.2.46.46 0 0 1 .46 0 .37.37 0 0 1 .14.16.62.62 0 0 1 0 .25v11.88a1.4 1.4 0 0 1 -.39.91 1 1 0 0 1 -.25.2h-.05a1 1 0 0 1 -.2.07h-.2a.45.45 0 0 1 -.15-.49zm-1.94-11.5a.63.63 0 0 1 .25-.09.63.63 0 0 0 -.25.09zm-.65 1.11a1.47 1.47 0 0 1 .4-.91 1.47 1.47 0 0 0 -.4.91z" fill="#334142"/><path d="m1113.18 685.88v-11.88a1.47 1.47 0 0 1 .4-.91 1 1 0 0 1 .25-.2.63.63 0 0 1 .25-.09.37.37 0 0 1 .39.46v11.87a1.42 1.42 0 0 1 -.13.51 1.31 1.31 0 0 1 -.45.48c-.42.33-.71.16-.71-.24zm-2.57 1.48v-11.88a1.28 1.28 0 0 1 .19-.63 1.23 1.23 0 0 1 .45-.48.69.69 0 0 1 .25-.09c.23 0 .4.15.4.46v11.87a1.19 1.19 0 0 1 -.05.32 1 1 0 0 0 0 .1v.1a1.38 1.38 0 0 1 -.2.33.86.86 0 0 1 -.26.21h-.07a.43.43 0 0 1 -.18.06h-.09a.2.2 0 0 1 -.11 0 .45.45 0 0 1 -.33-.37z" fill="#334142"/><path d="m1037.58 737.36-1.26.73 17.43 10.12-.06 12.77 1.27-.74.06-12.77z" fill="#6a6a77"/><path d="m1036.32 738.09-.01.89 16.72 9.73-.05 11-.74.42 1.45.85.06-12.77z" fill="#bfbfc6"/><path d="m1036.31 738.98-22.6 12.93 16.77 9.73 22.55-12.93z" fill="#afaeb6"/><path d="m1030.48 761.64 22.55-12.93-.05 11-22.56 13.02z" fill="#d0d0d8"/><path d="m1014.98 750.39-1.27.74 17.44 10.11-.07 12.77 1.27-.73.07-12.77z" fill="#6a6a77"/><path d="m1013.71 751.13v.89l16.72 9.73-.06 10.99-.74.43 1.45.84.07-12.77z" fill="#bfbfc6"/><path d="m1013.71 752.02-22.6 12.92 16.76 9.74 22.56-12.93z" fill="#afaeb6"/><path d="m1007.87 774.68 22.56-12.93-.06 10.99-22.55 13.03z" fill="#d0d0d8"/><path d="m992.38 763.32-1.27.73 17.44 10.12-.07 12.77 1.27-.73.07-12.78z" fill="#6a6a77"/><path d="m991.11 764.05v.89l16.72 9.74-.06 10.99-.74.43 1.45.84.07-12.77z" fill="#bfbfc6"/><path d="m991.11 764.94-22.78 12.83 16.94 9.83 22.56-12.92z" fill="#afaeb6"/><path d="m985.27 787.6 22.56-12.92-.06 10.99-22.55 13.03z" fill="#d0d0d8"/><path d="m969.85 776.25-1.27.74 17.43 10.11-.06 12.77 1.27-.73.06-12.77z" fill="#6a6a77"/><path d="m968.58 776.99-.01.89 16.72 9.73-.05 10.99-.74.43 1.45.84.06-12.77z" fill="#bfbfc6"/><path d="m968.57 777.88-22.55 12.92 16.72 9.74 22.55-12.93z" fill="#afaeb6"/><path d="m962.74 800.54 22.55-12.93-.05 10.99-22.56 13.03z" fill="#d0d0d8"/><path d="m947.29 789.18-1.27.73 17.44 10.12-.07 12.77 1.27-.73.07-12.78z" fill="#6a6a77"/><path d="m946.02 789.91v.89l16.72 9.74-.06 10.99-.74.43 1.45.84.07-12.77z" fill="#bfbfc6"/><path d="m946.02 790.8-22.78 12.83 16.95 9.83 22.55-12.92z" fill="#afaeb6"/><path d="m940.19 813.46 22.55-12.92-.06 10.99-22.55 13.02z" fill="#d0d0d8"/><path d="m737.26 710.99-20.67-12v-3.13l20.67 12z" fill="#192d30"/><path d="m737.26 707.86-20.67-12 7.24-4.31 20.66 12.01z" fill="#a2aeaf"/><path d="m744.49 703.56v3.13l-7.23 4.3v-3.13z" fill="#355a5f"/><path d="m740.11 682.5-2.49-1.44-34.15 19.72.07 25 2.48 1.44 34.16-19.72zm-30.4 21.86 24.19-14v13.5l-24.19 14z" fill="#6a6a77"/><path d="m752.46 726.57-45.11-23.35.06 21.51 45.08 13.03z" fill="#d0d0d8"/><path d="m769.17 717.13-30.39-32.06-31.43 18.15 45.11 23.35z" fill="#bfbfc6"/><path d="m770.92 737.23-18.46-10.66.03 11.19 18.49 10.76z" fill="#d0d0d8"/><path d="m787.42 727.65-18.25-10.52-16.71 9.44 18.46 10.66z" fill="#afaeb6"/><path d="m790.66 723-2.81-1.64-21.79 12.64.08 16.72 2.81 1.63 21.79-12.64z" fill="#6a6a77"/><path d="m787.07 726.27 1.22.71-16.87 9.79.06 12.36-1.23-.71-.06-12.36z" fill="#6a6a77"/><path d="m788.29 726.98.01.86-16.18 9.42.05 10.64.71.42-1.4.81-.06-12.36z" fill="#bfbfc6"/><path d="m788.3 727.84 22.05 12.42-16.41 9.52-21.82-12.52z" fill="#afaeb6"/><path d="m793.94 749.78-21.82-12.52.05 10.64 21.83 12.61z" fill="#d0d0d8"/><path d="m808.84 738.81 1.23.71-16.88 9.79.06 12.36-1.23-.71-.06-12.36z" fill="#6a6a77"/><path d="m810.07 739.52v.86l-16.18 9.42.05 10.64.72.42-1.41.81-.06-12.36z" fill="#bfbfc6"/><path d="m810.07 740.38 22.05 12.42-16.41 9.52-21.82-12.52z" fill="#afaeb6"/><path d="m815.71 762.32-21.82-12.52.05 10.64 21.83 12.61z" fill="#d0d0d8"/><path d="m830.64 751.35 1.23.71-16.88 9.79.06 12.36-1.23-.71-.06-12.36z" fill="#6a6a77"/><path d="m831.87 752.06v.86l-16.18 9.42.05 10.64.72.41-1.41.82-.06-12.36z" fill="#bfbfc6"/><path d="m831.87 752.92 22.05 12.42-16.41 9.51-21.82-12.51z" fill="#afaeb6"/><path d="m837.51 774.85-21.82-12.51.05 10.64 21.83 12.61z" fill="#d0d0d8"/><path d="m852.4 763.88 1.23.71-16.88 9.8.06 12.36-1.23-.72-.06-12.36z" fill="#6a6a77"/><path d="m853.63 764.59v.87l-16.18 9.42.05 10.64.72.41-1.41.82-.06-12.36z" fill="#bfbfc6"/><path d="m853.63 765.46 22.05 12.41-16.41 9.52-21.82-12.51z" fill="#afaeb6"/><path d="m859.27 787.39-21.82-12.51.05 10.64 21.83 12.6z" fill="#d0d0d8"/><path d="m874.17 776.42 1.23.71-16.88 9.79.06 12.36-1.23-.71-.06-12.36z" fill="#6a6a77"/><path d="m875.4 777.13v.86l-16.18 9.42.05 10.64.72.42-1.41.81-.06-12.36z" fill="#bfbfc6"/><path d="m875.4 777.99 22.05 12.42-16.4 9.52-21.83-12.52z" fill="#afaeb6"/><path d="m881.05 799.93-21.83-12.52.05 10.64 21.83 12.61z" fill="#d0d0d8"/><path d="m895.97 788.96 1.23.71-16.88 9.79.06 12.36-1.23-.71-.06-12.36z" fill="#6a6a77"/><path d="m897.2 789.67v.86l-16.18 9.42.05 10.64.72.42-1.41.81-.06-12.36z" fill="#bfbfc6"/><path d="m897.2 790.53 22.05 12.42-16.4 9.51-21.83-12.51z" fill="#afaeb6"/><path d="m902.85 812.46-21.83-12.51.05 10.64 21.83 12.61z" fill="#d0d0d8"/><path d="m918.46 805.14-1.3-.76.01 8.58 1.3.76z" fill="#3a7880"/><path d="m918.47 813.72-1.3-.76-13.99 8.04 1.3.75z" fill="#355a5f"/><path d="m902.5 812.05-1.3-.76.01 13.1 1.3.75z" fill="#6a6a77"/><path d="m920.42 801.76-1.3-.76-17.92 10.29 1.3.76z" fill="#6a6a77"/><path d="m920.43 814.85-17.92 10.29v-13.09l17.92-10.29zm-15.95 6.9 14-8v-8.58l-14 8z" fill="#afaeb6"/><path d="m922.24 808.72-4.07-2.41.01 7.39 4.07 2.41z" fill="#384a4d"/><path d="m922.25 816.11-4.07-2.41-13.11 7.53 4.07 2.41z" fill="#6c8083"/><path d="m907.44 815.28-4.07-2.41.01 11.27 4.07 2.41z" fill="#bfbfc6"/><path d="m923.93 805.81-4.09-2.43-16.47 9.49 4.07 2.41z" fill="#afaeb6"/><path d="m923.94 817.08-16.49 9.47v-11.27l16.49-9.47zm-14.8 6.56 13.11-7.53v-7.39l-13.1 7.53v7.39z" fill="#435052"/><path d="m924.54 801.67-1.3.75 17.88 10.37-.07 13.09 1.31-.75.06-13.09z" fill="#6a6a77"/><path d="m923.24 802.42v.91l17.14 9.98-.05 11.27-.76.44 1.48.86.07-13.09z" fill="#bfbfc6"/><path d="m923.24 803.33-23.11 13.26 17.13 9.98 23.12-13.26z" fill="#afaeb6"/><path d="m917.26 826.57 23.12-13.26-.05 11.27-23.13 13.36z" fill="#d0d0d8"/><path d="m902.35 815.06-1.27.73 17.44 10.12-.07 12.77 1.27-.73.07-12.77z" fill="#6a6a77"/><path d="m901.08 815.79-.01.89 16.72 9.74-.05 10.99-.74.43 1.45.84.07-12.77z" fill="#bfbfc6"/><path d="m901.07 816.68-22.6 12.93 16.77 9.73 22.55-12.92z" fill="#afaeb6"/><path d="m895.24 839.34 22.55-12.92-.05 10.99-22.55 13.02z" fill="#d0d0d8"/><path d="m879.75 827.99-1.27.73 17.44 10.12-.07 12.77 1.27-.74.07-12.77z" fill="#6a6a77"/><path d="m878.48 828.72-.01.89 16.73 9.73-.06 11-.74.42 1.45.85.07-12.77z" fill="#bfbfc6"/><path d="m878.47 829.61-22.78 12.83 16.95 9.83 22.56-12.93z" fill="#afaeb6"/><path d="m872.64 852.27 22.56-12.93-.06 11-22.55 13.02z" fill="#d0d0d8"/><path d="m857.21 840.92-1.27.73 17.44 10.12-.06 12.77 1.27-.73.06-12.77z" fill="#6a6a77"/><path d="m855.94 841.65v.89l16.72 9.74-.05 10.99-.74.43 1.45.84.06-12.77z" fill="#bfbfc6"/><path d="m855.94 842.54-22.56 12.93 16.73 9.73 22.55-12.92z" fill="#afaeb6"/><path d="m850.11 865.2 22.55-12.92-.05 10.99-22.56 13.03z" fill="#d0d0d8"/><path d="m834.66 853.85-1.27.73 17.44 10.12-.07 12.77 1.27-.74.07-12.77z" fill="#6a6a77"/><path d="m833.39 854.58-.01.89 16.73 9.73-.06 11-.74.43 1.45.84.07-12.77z" fill="#bfbfc6"/><path d="m811.94 872.46 6.21 3.6-6.24 3.61z" fill="#363545"/><path d="m817.9 876.21-5.93 3.42v.06l12.35 7.18.04-6.92z" fill="#484655"/><path d="m810.31 869.61 16 9.31-.05 11-16-9.31zm14.35 17.46v-7.21l-12.75-7.4v7.21z" fill="#435052"/><path d="m833.38 855.47-22.77 12.83 16.94 9.83 22.56-12.93z" fill="#afaeb6"/><path d="m827.55 878.13 22.56-12.93-.06 11-22.55 13.02z" fill="#d0d0d8"/><path d="m810.12 868.01-1.27.74 17.43 10.12-.06 12.76 1.27-.73.06-12.77z" fill="#6a6a77"/><path d="m808.78 881.52 17.44 10.11.06-12.77-17.43-10.11zm2-9.47v8.37l13.61 7.9v-1.45l-12.39-7.18v-6.9l12.36 7.21-.05 8.37-13.61-7.9zm68.61-86.39a5.64 5.64 0 0 0 -5.12 0c-1.42.82-1.43 2.15 0 3a5.64 5.64 0 0 0 5.12 0c1.41-.86 1.41-2.19 0-3z" fill="#6a6a77"/><path d="m896.69 695.1a7.17 7.17 0 0 0 -1-.24 31.13 31.13 0 0 1 -7.78-2.59c-.82-.38-1.62-.81-2.41-1.26a30.53 30.53 0 0 1 -2.75-1.79 13.65 13.65 0 0 1 -3.92-4.07 26.67 26.67 0 0 0 -.13 2.77 1 1 0 0 1 0 .17.25.25 0 0 1 0 .12.8.8 0 0 1 -.08.16.67.67 0 0 1 -.06.12.85.85 0 0 1 -.16.17.36.36 0 0 1 -.08.09 1.4 1.4 0 0 1 -.33.24 4.07 4.07 0 0 1 -3.69 0 1.4 1.4 0 0 1 -.33-.24l-.09-.09a1.22 1.22 0 0 1 -.15-.17s0-.08-.07-.12-.06-.1-.08-.16 0-.08 0-.13a.9.9 0 0 1 0-.16 15.77 15.77 0 0 1 .44-5.27 24.65 24.65 0 0 0 -2.89-.69 12.82 12.82 0 0 0 -5.17.22 36.74 36.74 0 0 0 -9.62 4.26c-6.45 3.72-4.9 11.2 3.68 17 .61.42 1.26.82 1.94 1.21s1.12.63 1.7.93a42.68 42.68 0 0 0 8.53 3.19 43.67 43.67 0 0 0 4.68 1c6.52 1 12.75.41 16.62-1.83 11.22-6.48 8.35-8.12 5.39-11.52a4.61 4.61 0 0 0 -2.19-1.32z" fill="#afaeb6"/><path d="m903.83 711.89c-1 1.77-8.25 5.48-10.28 6.29-8 3.16-18.7 2.36-25.71-1.41a63.47 63.47 0 0 1 -12.48-9 32.12 32.12 0 0 0 12.48 11.33c7 3.77 17.71 4.58 25.71 1.41 2-.81 8.26-5.17 9.22-6.94.44-.64.83-1.24 1.2-1.81z" fill="#6a6a77"/><path d="m848.26 700.29.21.27zm69.36-4.64-13.32 11.22a26.33 26.33 0 0 1 -7.31 4.21c-11.26 4.46-26.48 3.63-36.19-2l-6.63-3.83a20.34 20.34 0 0 1 -5.71-4.7 68 68 0 0 0 19.38 16.2c7 3.77 17.71 4.57 25.71 1.41 2-.81 9.33-4.52 10.28-6.29.28-.22.56-.43.82-.65l13-11v-4.6zm-43.41 25.84-.05 65.58a1.32 1.32 0 0 0 .78 1.08 4.07 4.07 0 0 0 3.72 0 1.3 1.3 0 0 0 .77-1.07l.05-64.75a34.88 34.88 0 0 1 -5.27-.84z" fill="#afaeb6"/><path d="m893.52 706.62a4.12 4.12 0 0 0 -2.38-1.16 24.89 24.89 0 0 1 -7.85-3 13.57 13.57 0 0 1 -5.15-4.53 3.2 3.2 0 0 0 -2-1.38c-4.54-1.31-6.74-2.59-15.37 2.4a6.83 6.83 0 0 0 -1.94 1.61 4.82 4.82 0 0 0 -.83 1.44l.19.15q.81.63 1.71 1.26c.3.21.65.41 1 .61s.62.41 1 .61c10.18 5.88 24.41 7.21 31.38 3.33l.15-.09.82-.48z" fill="#e7e7ea"/><path d="m879.64 702.5a5.69 5.69 0 0 0 -5.13 0c-1.42.82-1.42 2.14 0 3a5.67 5.67 0 0 0 5.12 0c1.37-.85 1.42-2.18.01-3zm3.7-11.62a1.32 1.32 0 0 0 -.3-.1h-.27c-.69 0-1.36.56-1.07 1.61a1.89 1.89 0 0 0 1.64 1.55.69.69 0 0 0 .61-.09l.16-.1a.83.83 0 0 0 .36-.78 2.66 2.66 0 0 0 -1.13-2.09z" fill="#6a6a77"/><path d="m879.21 683.37a6.06 6.06 0 0 0 -.37 1.78 13.65 13.65 0 0 0 3.92 4.07 30.53 30.53 0 0 0 2.75 1.79c.79.45 1.59.88 2.41 1.26a31.13 31.13 0 0 0 7.78 2.59 7.17 7.17 0 0 1 1 .24 4.61 4.61 0 0 1 2.11 1.27c3 3.4 5.83 5-5.39 11.52-3.87 2.24-10.1 2.81-16.62 1.83a43.67 43.67 0 0 1 -4.68-1 42.68 42.68 0 0 1 -8.53-3.19c-.58-.3-1.14-.6-1.7-.93s-1.33-.79-1.94-1.21c-8.58-5.79-10.13-13.27-3.68-17a36.74 36.74 0 0 1 9.62-4.26 12.82 12.82 0 0 1 5.17-.22 24.65 24.65 0 0 1 2.89.69 6.58 6.58 0 0 1 2.35-3.7 1.37 1.37 0 0 1 .23-.19l5.94-3.42-5-2.88-19.47 7.74a26.59 26.59 0 0 0 -7.31 4.22c-7.72 6.51-6.27 15.29 3.44 20.9l6.63 3.83c9.71 5.61 24.93 6.44 36.19 2a26.33 26.33 0 0 0 7.31-4.21l13.32-11.22-29.78-17.24z" fill="#d0d0d8"/><path d="m895.18 651.13a2.23 2.23 0 0 1 2.26.22 7 7 0 0 1 3.18 5.5 2.21 2.21 0 0 1 -.93 2l-.91.58a1.42 1.42 0 0 0 .37-.32 1.77 1.77 0 0 0 .29-.44 2.38 2.38 0 0 0 .18-.57 3 3 0 0 0 .07-.69 7 7 0 0 0 -3.18-5.5l-.33-.17h-.09l-.22-.09h-.12a1.06 1.06 0 0 0 -.19-.06h-.94l-.13.05h-.11l-.12.07z" fill="#6a6a77"/><path d="m897.38 657a.83.83 0 0 0 .34-.74 2.56 2.56 0 0 0 -1.15-2 .8.8 0 0 0 -.82-.08l-2.12 1.22a5.59 5.59 0 0 1 -.29-1.67 2.2 2.2 0 0 1 .93-2l.12-.07h.11l.13-.05h.95a1.06 1.06 0 0 1 .19.06h.12l.22.09h.09l.33.17a7 7 0 0 1 3.18 5.5 3 3 0 0 1 -.07.69 2.38 2.38 0 0 1 -.18.57 1.77 1.77 0 0 1 -.29.44 1.42 1.42 0 0 1 -.37.32 2.24 2.24 0 0 1 -2.28-.22 5.65 5.65 0 0 1 -1.25-1z" fill="#afaeb6"/><path d="m892.05 660.09-3.23-1.9 6.93-4a.8.8 0 0 1 .82.08 2.56 2.56 0 0 1 1.15 2 .83.83 0 0 1 -.34.74zm24.95 3.91a2.23 2.23 0 0 1 2.26.22 7 7 0 0 1 3.18 5.5 2.2 2.2 0 0 1 -.93 2l-.91.59a1.53 1.53 0 0 0 .4-.31 1.77 1.77 0 0 0 .29-.44 2.24 2.24 0 0 0 .18-.57 3 3 0 0 0 .07-.69 7 7 0 0 0 -3.18-5.51l-.33-.17h-.1l-.21-.08h-.12a.7.7 0 0 0 -.19-.06h-.95a.69.69 0 0 0 -.13 0h-.11l-.12.06z" fill="#6a6a77"/><path d="m919.24 669.83a.82.82 0 0 0 .34-.73 2.56 2.56 0 0 0 -1.15-2 .82.82 0 0 0 -.83-.08l-2.11 1.22a5.61 5.61 0 0 1 -.3-1.67 2.26 2.26 0 0 1 .94-2.05l.12-.06h.11a.69.69 0 0 1 .13 0h.95a.7.7 0 0 1 .19.06h.12l.21.08h.1l.33.17a7 7 0 0 1 3.18 5.51 3 3 0 0 1 -.07.69 2.24 2.24 0 0 1 -.18.57 1.77 1.77 0 0 1 -.29.44 1.53 1.53 0 0 1 -.37.31 2.24 2.24 0 0 1 -2.28-.21 5.23 5.23 0 0 1 -1.25-1z" fill="#afaeb6"/><path d="m913.9 672.9-3.22-1.9 6.92-4a.82.82 0 0 1 .83.08 2.56 2.56 0 0 1 1.15 2 .82.82 0 0 1 -.34.73z" fill="#6a6a77"/><path d="m898.17 672.47a1.33 1.33 0 0 0 .55-1.22 4.16 4.16 0 0 0 -1.88-3.26 1.35 1.35 0 0 0 -1.35-.13l-4 2.3-11.22-6.58a2.22 2.22 0 0 1 -.93-2 7 7 0 0 1 3.16-5.58 2.25 2.25 0 0 1 2.26-.22l33 19.35h-.11l-.11-.05h-1.39l-.22.08h-.1l-.33.17a7 7 0 0 0 -3.17 5.51 3 3 0 0 0 .07.69 2.62 2.62 0 0 0 .18.58 2.08 2.08 0 0 0 .28.44 1.69 1.69 0 0 0 .36.3l-16.44-9.65z" fill="#174579"/><path d="m917.75 675.17-.01-.01z" fill="#afaeb6"/><path d="m917.75 675.17-.12-.06-.11-.05h-1.39l-.22.08h-.1l-.33.17a7 7 0 0 0 -3.17 5.51 3.69 3.69 0 0 0 .06.69 2.62 2.62 0 0 0 .18.58 2.08 2.08 0 0 0 .28.44 1.57 1.57 0 0 0 .38.31 2.26 2.26 0 0 0 2.28-.21 7 7 0 0 0 3.17-5.51 2.22 2.22 0 0 0 -.91-1.95z" fill="#6a6a77"/><path d="m896.84 668a1.35 1.35 0 0 0 -1.35-.13l-19 10.9a1.37 1.37 0 0 0 -.23.19c-3.5 2.5-2.79 9-2.79 9a.9.9 0 0 0 0 .16v.13c0 .04.06.11.08.16s0 .08.07.12a1.22 1.22 0 0 0 .15.17s0 .07.09.09a1.4 1.4 0 0 0 .33.24 4.07 4.07 0 0 0 3.69 0 1.4 1.4 0 0 0 .33-.24.36.36 0 0 0 .08-.09.85.85 0 0 0 .16-.17.67.67 0 0 0 .06-.12.8.8 0 0 0 .08-.16.25.25 0 0 0 0-.12 1 1 0 0 0 0-.17c0-3.5.49-4.54.5-4.55l19-10.9a1.33 1.33 0 0 0 .55-1.22 4.16 4.16 0 0 0 -1.8-3.29z" fill="#bfbfc6"/><path d="m840.34 912.75a20.34 20.34 0 0 0 1.26-2 27.66 27.66 0 0 0 1.35-4.18c.21-.73.52-1.33.68-2.1a39.55 39.55 0 0 0 .72-7.57c.06-21.94-15.39-48.71-34.49-59.74a39.16 39.16 0 0 0 -7-3.23c-.75-.26-1.43-.29-2.16-.48a28.33 28.33 0 0 0 -4.38-1 20.92 20.92 0 0 0 -2.39.11 21.39 21.39 0 0 0 -3.52.18 262.13 262.13 0 0 0 -5.15 1.92c-6.26 3.69-10.16 11.34-10.19 22.34-.06 21.94 15.4 48.71 34.57 59.78 11 6.32 20.61 5.92 27 .45a17.92 17.92 0 0 0 1.79-1.47 20.66 20.66 0 0 0 1.91-3.01z" fill="#6a6a77"/><path d="m811.49 836.09c-9.66-5.58-18.4-6.1-24.71-2.43l-1.62 1.13h.08a262.13 262.13 0 0 1 5.15-1.92 21.39 21.39 0 0 1 3.52-.18 23.48 23.48 0 0 1 2.39-.11 28.33 28.33 0 0 1 4.38 1c.73.19 1.41.22 2.16.48a39.16 39.16 0 0 1 7 3.23c19.1 11 34.55 37.8 34.49 59.74a39.55 39.55 0 0 1 -.72 7.57c-.16.77-.47 1.37-.68 2.1a27.66 27.66 0 0 1 -1.35 4.18 20.34 20.34 0 0 1 -1.26 2 20.66 20.66 0 0 1 -1.93 3 17.92 17.92 0 0 1 -1.79 1.47 17.54 17.54 0 0 1 -2.37 2l1.62-1.13c6.22-3.61 10.07-11.28 10.1-22.18.05-22.16-15.37-48.93-34.46-59.95z" fill="#d0d0d8"/><path d="m809.86 837.21a39.16 39.16 0 0 0 -7-3.23 39.16 39.16 0 0 1 7 3.23zm-15.95-4.56a21.39 21.39 0 0 0 -3.52.18 21.39 21.39 0 0 1 3.52-.18zm2.39-.11a28.33 28.33 0 0 1 4.38 1 28.33 28.33 0 0 0 -4.38-1zm-11.06 2.21a17.81 17.81 0 0 1 2.91-1.1 17.81 17.81 0 0 0 -2.91 1.1zm56.36 76.05a20.34 20.34 0 0 1 -1.26 2 20.34 20.34 0 0 0 1.26-2zm-3.19 4.91a17.92 17.92 0 0 1 -1.79 1.47 17.92 17.92 0 0 0 1.79-1.47zm5.22-11.19c-.16.77-.47 1.37-.68 2.1.21-.73.52-1.33.68-2.1z" fill="#5e7073"/><path d="m736.27 1001.45-7.09-4.05v-4.04l7.09 4.04z" fill="#6a6a77"/><path d="m736.27 997.4-7.09-4.04 103.9-60.46 7.09 4.05z" fill="#afaeb6"/><path d="m840.17 936.95v4.05l-103.9 60.45v-4.05z" fill="#6a6a77"/><path d="m743.79 966.85a.7.7 0 0 1 0 .14 1.11 1.11 0 0 1 -.09.19s0 .09-.07.13a1.62 1.62 0 0 1 -.18.2l-.09.09a2.07 2.07 0 0 1 -.37.27 4.62 4.62 0 0 1 -4.19 0 1.84 1.84 0 0 1 -.38-.27l-.09-.09a1.8 1.8 0 0 1 -.19-.21l-.06-.12a.93.93 0 0 1 -.1-.2v-.13a1.42 1.42 0 0 1 0-.2v23.36a1.48 1.48 0 0 0 .88 1.22 4.6 4.6 0 0 0 4.18 0 1.49 1.49 0 0 0 .87-1.21v-23.35a1.13 1.13 0 0 1 -.12.18z" fill="#6a6a77"/><path d="m738 967a.93.93 0 0 0 .1.2l.06.12a1.8 1.8 0 0 0 .19.21l.09.09a1.84 1.84 0 0 0 .38.27 4.62 4.62 0 0 0 4.19 0 2.07 2.07 0 0 0 .37-.27l.09-.09a1.62 1.62 0 0 0 .18-.2s0-.09.07-.13a1.11 1.11 0 0 0 .09-.19.7.7 0 0 0 0-.14 1.37 1.37 0 0 0 -.85-1.4 4.62 4.62 0 0 0 -4.19 0 1.47 1.47 0 0 0 -.86 1.2 1.42 1.42 0 0 0 0 .2s.03.07.09.13z" fill="#5d7a80"/><path d="m791.16 939.78a.36.36 0 0 1 0 .14.87.87 0 0 1 -.1.19 1.39 1.39 0 0 1 -.06.13 1.62 1.62 0 0 1 -.18.19.43.43 0 0 1 -.09.1 1.84 1.84 0 0 1 -.38.27 4.6 4.6 0 0 1 -4.18 0 1.61 1.61 0 0 1 -.38-.27l-.09-.09a1.8 1.8 0 0 1 -.19-.21.67.67 0 0 1 -.06-.12.93.93 0 0 1 -.1-.2.32.32 0 0 1 0-.14.65.65 0 0 1 0-.19v23.35a1.48 1.48 0 0 0 .88 1.23 4.6 4.6 0 0 0 4.18 0 1.48 1.48 0 0 0 .86-1.21v-23.35a.58.58 0 0 1 -.11.18z" fill="#6a6a77"/><path d="m785.33 939.91a.93.93 0 0 0 .1.2.67.67 0 0 0 .06.12 1.8 1.8 0 0 0 .19.21l.09.09a1.61 1.61 0 0 0 .38.27 4.6 4.6 0 0 0 4.18 0 1.84 1.84 0 0 0 .38-.27.43.43 0 0 0 .09-.1 1.62 1.62 0 0 0 .18-.19 1.39 1.39 0 0 0 .06-.13.87.87 0 0 0 .1-.19.36.36 0 0 0 0-.14 1.35 1.35 0 0 0 -.84-1.4 4.62 4.62 0 0 0 -4.19 0 1.47 1.47 0 0 0 -.86 1.2.65.65 0 0 0 0 .19.32.32 0 0 0 .08.14z" fill="#5d7a80"/><path d="m830.89 917.38v.14a1.18 1.18 0 0 1 -.1.19.45.45 0 0 1 -.06.12 1.71 1.71 0 0 1 -.18.2l-.09.1a1.84 1.84 0 0 1 -.38.27 4.6 4.6 0 0 1 -4.18 0 2.42 2.42 0 0 1 -.39-.27l-.08-.09a1.8 1.8 0 0 1 -.19-.21.67.67 0 0 1 -.06-.12.93.93 0 0 1 -.1-.2.58.58 0 0 1 0-.14 1.08 1.08 0 0 1 0-.19v23.35a1.47 1.47 0 0 0 .87 1.22 4.56 4.56 0 0 0 4.19 0 1.46 1.46 0 0 0 .86-1.2v-23.35a.57.57 0 0 1 -.11.18z" fill="#6a6a77"/><path d="m825.06 917.51a.93.93 0 0 0 .1.2.67.67 0 0 0 .06.12 1.8 1.8 0 0 0 .19.21l.08.09a2.42 2.42 0 0 0 .39.27 4.6 4.6 0 0 0 4.18 0 1.84 1.84 0 0 0 .38-.27l.09-.1a1.71 1.71 0 0 0 .18-.2.45.45 0 0 0 .06-.12 1.18 1.18 0 0 0 .1-.19v-.14a1.37 1.37 0 0 0 -.84-1.41 4.68 4.68 0 0 0 -4.19 0 1.48 1.48 0 0 0 -.86 1.21 1.08 1.08 0 0 0 0 .19.58.58 0 0 0 .08.14z" fill="#5d7a80"/><path d="m708.66 898.07a38.86 38.86 0 0 0 -6.93-3.19c-.74-.25-1.41-.29-2.13-.47a27.58 27.58 0 0 0 -4.32-.95 20.22 20.22 0 0 0 -2.35.11 19.84 19.84 0 0 0 -3.48.18 15.8 15.8 0 0 0 -2.21.81 16.49 16.49 0 0 0 -2.87 1.09 17 17 0 0 0 -5.53 5.18c.69-.74 1.4-1.47 2.14-2.17a10.17 10.17 0 0 1 4.37-2.13 16.72 16.72 0 0 1 2.18-.8 19.22 19.22 0 0 1 3.42-.17 19.81 19.81 0 0 1 2.32-.11 26.43 26.43 0 0 1 4.25.93c.72.18 1.38.22 2.11.47a38.34 38.34 0 0 1 6.82 3.14c18.55 10.71 33.55 36.73 33.55 58.01a38.35 38.35 0 0 1 -.7 7.37c-.16.75-.46 1.33-.66 2a26.23 26.23 0 0 1 -1.32 4.07 19.1 19.1 0 0 1 -1.22 1.89 19.47 19.47 0 0 1 -1.88 2.87 15.63 15.63 0 0 1 -1.73 1.43 16.53 16.53 0 0 1 -5.27 3 16.91 16.91 0 0 0 7.87-3.78 17.37 17.37 0 0 0 1.76-1.45 21 21 0 0 0 1.91-2.92 19.72 19.72 0 0 0 1.24-1.92 27 27 0 0 0 1.34-4.13c.2-.71.51-1.3.66-2.07a38.49 38.49 0 0 0 .72-7.47c.03-21.53-15.22-47.89-34.06-58.82z" fill="#d0d0d8"/><path d="m706.45 900a38.34 38.34 0 0 0 -6.82-3.14c-.73-.25-1.39-.29-2.11-.47a26.43 26.43 0 0 0 -4.25-.93 19.81 19.81 0 0 0 -2.32.11 19.22 19.22 0 0 0 -3.42.17 16.72 16.72 0 0 0 -2.18.8 10.17 10.17 0 0 0 -4.37 2.13 49.62 49.62 0 0 0 -4.4 4.77 48.57 48.57 0 0 0 -6.46 10.56v.08c-.52 1.17-1 2.37-1.44 3.58-.06.15-.09.31-.15.46-.38 1.1-.74 2.22-1 3.36-.09.34-.14.69-.23 1-.23 1-.46 1.92-.63 2.91-.11.6-.16 1.22-.25 1.84s-.22 1.48-.29 2.24c-.11 1.3-.16 2.62-.17 3.95v.24c0 26.87 22.14 48.65 49.46 48.65 1.2 0 2.38-.06 3.55-.15 1.64-.12 3.26-.3 4.85-.57l1.23-.21a16.61 16.61 0 0 0 7.5-3.67 15.63 15.63 0 0 0 1.73-1.43 19.47 19.47 0 0 0 1.88-2.87 19.1 19.1 0 0 0 1.22-1.89 26.23 26.23 0 0 0 1.32-4.07c.2-.7.5-1.28.66-2a38.35 38.35 0 0 0 .64-7.45c0-21.28-15-47.3-33.55-58z" fill="#005f9e"/><path d="m740 970.67a19.72 19.72 0 0 1 -1.24 1.92 19.72 19.72 0 0 0 1.24-1.92zm-3.18 4.84a17.37 17.37 0 0 1 -1.76 1.45 17.37 17.37 0 0 0 1.76-1.45zm5.18-11.04c-.15.77-.46 1.36-.66 2.07.17-.71.48-1.3.66-2.07z" fill="#5e7073"/><path d="m808 839c-9.52-5.5-18.14-6-24.36-2.4l-99.36 59.08h.08a16.49 16.49 0 0 1 2.87-1.09 15.8 15.8 0 0 1 2.21-.81 19.84 19.84 0 0 1 3.48-.18 20.22 20.22 0 0 1 2.35-.11 26.49 26.49 0 0 1 4.32.95 21.5 21.5 0 0 1 2.13.47 38.86 38.86 0 0 1 6.93 3.19c18.84 10.88 34.09 37.29 34 58.93a38.49 38.49 0 0 1 -.72 7.47c-.15.77-.46 1.36-.66 2.07a27 27 0 0 1 -1.34 4.13 19.72 19.72 0 0 1 -1.24 1.92 21 21 0 0 1 -1.91 2.92 17.37 17.37 0 0 1 -1.76 1.45 16.36 16.36 0 0 1 -2.34 1.92l99.35-59.08c6.14-3.56 9.94-11.13 10-21.88.07-21.68-15.18-48.09-34.03-58.95z" fill="#174579"/><path d="m705.19 931.96-32.85-19.09-.1-34.31 32.85 19.09z" fill="#bfbfc6"/><path d="m705.09 897.65-32.85-19.09 13.53-7.81 32.85 19.09z" fill="#e5eaea"/><path d="m718.62 889.84.07 22.78c-3.89 6.76-6.09 10.55-10 17.31l-3.51 2-.1-34.31z" fill="#e5eaea"/><g fill="#6a6a77"><path d="m696.18 916.39.01-3.73z"/><path d="m698.57 916.39.01-2.35zm-2.45 7.61a.4.4 0 0 0 0-.2.6.6 0 0 1 0 .2zm-.97-.37a1.19 1.19 0 0 1 -.18-.58 1.19 1.19 0 0 0 .18.58z"/><path d="m700.96 925.11.01-1.11zm.01-8.73v-.96zm-2.97 9.08a1 1 0 0 1 -.23-.18 1 1 0 0 0 .23.18zm.57-.34v-1.39z"/><path d="m700.97 924-.01 1.11zm0-7.62v-.96 8.3zm-4.81 7.4s0-.01 0 0zm4.8 1.33v.59zm0 1.39v-.8zm.01-2.78v.28zm-5.38-12.1a.79.79 0 0 0 -.23-.08.79.79 0 0 1 .23.08zm.41.45a1.31 1.31 0 0 0 -.42-.45 1.31 1.31 0 0 1 .42.45z"/><path d="m696.12 924a.6.6 0 0 0 0-.24v-11.1a1.22 1.22 0 0 0 -.18-.59 1.31 1.31 0 0 0 -.42-.45.79.79 0 0 0 -.23-.08c-.22 0-.37.14-.38.43v11.08a1.19 1.19 0 0 0 .18.58 1.15 1.15 0 0 0 .42.45c.31.15.49.09.61-.08zm6.12 3.58a.36.36 0 0 0 0 .09.36.36 0 0 1 0-.09zm.76.73h.08zm-.25-.08h.07zm-4.18-3.11v-11.12a1.22 1.22 0 0 0 -.18-.59 1.57 1.57 0 0 0 -.19-.26 1.37 1.37 0 0 0 -.2-.15.43.43 0 0 0 -.42 0 .28.28 0 0 0 -.13.15.54.54 0 0 0 0 .24v11.07a1.41 1.41 0 0 0 .37.86 1 1 0 0 0 .23.18.52.52 0 0 0 .19.06h.19a.43.43 0 0 0 .14-.44zm1.8-10.73a.46.46 0 0 0 -.23-.08.46.46 0 0 1 .23.08zm.63 1.03a1.35 1.35 0 0 0 -.36-.84 1.35 1.35 0 0 1 .36.84z"/><path d="m701 926.5v-11.08a1.35 1.35 0 0 0 -.36-.84.72.72 0 0 0 -.24-.19.46.46 0 0 0 -.23-.08.4.4 0 0 0 -.19 0 .43.43 0 0 0 -.18.39v11.08a1.21 1.21 0 0 0 .12.47 1.14 1.14 0 0 0 .43.44c.34.31.65.19.65-.19zm2.35 1.38v-11.08a1.19 1.19 0 0 0 -.18-.58 1.22 1.22 0 0 0 -.42-.45.46.46 0 0 0 -.24-.08c-.21 0-.36.14-.36.42v11.08a1.11 1.11 0 0 0 .05.3.79.79 0 0 1 0 .09.36.36 0 0 0 0 .09 1.61 1.61 0 0 0 .19.31.72.72 0 0 0 .24.19h.07l.16.06h.19a.42.42 0 0 0 .3-.35zm-27.81-23.9.01-3.73z"/><path d="m677.94 903.98.01-2.34zm-2.45 7.59a.38.38 0 0 0 0-.19.57.57 0 0 1 0 .19zm-.97-.34a1.22 1.22 0 0 1 -.18-.59 1.22 1.22 0 0 0 .18.59z"/><path d="m680.33 912.7.01-1.1zm.01-8.73v-.95zm-3.01 9.09a1.37 1.37 0 0 1 -.23-.19 1.37 1.37 0 0 0 .23.19zm.24.07h.07a.11.11 0 0 1 -.07 0zm.36-.42.01-1.39z"/><path d="m680.34 911.6h-.01v1.1zm0-7.63v-.95 8.3zm-2.4.29v-.28zm-2.41 7.12s0-.02 0 0zm4.8 1.32v.59zm-1.06 1.21s0 .01 0 0zm1.06.19v-.81zm.01-2.78-.01.28h.01zm-5.34-12.1a.49.49 0 0 0 -.24-.08.49.49 0 0 1 .24.08zm.38.44a1.27 1.27 0 0 0 -.42-.44 1.27 1.27 0 0 1 .42.44z"/><path d="m675.49 911.57a.57.57 0 0 0 0-.24v-11.08a1.11 1.11 0 0 0 -.17-.59 1.27 1.27 0 0 0 -.42-.44.49.49 0 0 0 -.24-.08c-.21 0-.36.14-.37.42v11.08a1.22 1.22 0 0 0 .18.59 1.11 1.11 0 0 0 .42.44c.29.15.51.09.6-.1zm6.12 3.59a.3.3 0 0 0 0 .1.3.3 0 0 1 0-.1zm.74.74h.08zm-.48-.29.01.01zm.25.21h.07zm-4.19-3.11v-11.07a1.26 1.26 0 0 0 -.18-.6 1.57 1.57 0 0 0 -.19-.26 1 1 0 0 0 -.23-.18.39.39 0 0 0 -.42 0 .29.29 0 0 0 -.13.14.45.45 0 0 0 0 .24v11.08a1.33 1.33 0 0 0 .37.85 1.37 1.37 0 0 0 .23.19.52.52 0 0 0 .19.06.11.11 0 0 0 .08 0h.11a.42.42 0 0 0 .17-.45zm1.81-10.71a.46.46 0 0 0 -.23-.08.46.46 0 0 1 .23.08zm.6 1a1.35 1.35 0 0 0 -.36-.85 1.35 1.35 0 0 1 .36.85z"/><path d="m680.33 914.09v-11.09a1.35 1.35 0 0 0 -.36-.85 1.06 1.06 0 0 0 -.24-.19.46.46 0 0 0 -.23-.08.3.3 0 0 0 -.19 0 .4.4 0 0 0 -.18.38v11.14a1.21 1.21 0 0 0 .12.47 1.24 1.24 0 0 0 .43.45c.37.31.65.15.65-.23zm2.39 1.39v-11.08a1.22 1.22 0 0 0 -.18-.59 1.31 1.31 0 0 0 -.42-.45.62.62 0 0 0 -.24-.08c-.21 0-.36.14-.37.42v11.08a1 1 0 0 0 .05.3.2.2 0 0 0 0 .08.3.3 0 0 0 0 .1 1.61 1.61 0 0 0 .19.31 1.07 1.07 0 0 0 .23.2h.07a.52.52 0 0 0 .16.06h.09a.18.18 0 0 0 .1 0 .4.4 0 0 0 .32-.35zm3.18-5.17.01-3.73z"/><path d="m688.3 910.31v-2.35zm-2.45 7.59a.9.9 0 0 0 0-.19v-.05a.6.6 0 0 1 0 .24zm-.98-.35a1.16 1.16 0 0 1 -.18-.58 1.16 1.16 0 0 0 .18.58z"/><path d="m690.69 919.03v-1.1zm.01-8.73v-.95zm-3.01 9.09a1.43 1.43 0 0 1 -.24-.19 1.43 1.43 0 0 0 .24.19zm.23.07h.08s0 .01-.08 0zm.37-.42v-1.39z"/><path d="m690.69 917.93v1.1zm.01-7.63v-.95l-.01 8.3zm-4.81 7.41v-.05zm4.8 1.32-.01.59zm-.01 1.39v-.8zm.01-2.77v.28zm-5.38-12.11a.55.55 0 0 0 -.23-.07.55.55 0 0 1 .23.07zm.42.46a1.21 1.21 0 0 0 -.42-.45 1.21 1.21 0 0 1 .42.45zm.12 11.9a.6.6 0 0 0 0-.24v-11.08a1.37 1.37 0 0 0 -.6-1 .55.55 0 0 0 -.23-.07c-.22 0-.37.14-.37.42v11.08a1.37 1.37 0 0 0 .6 1c.29.14.5.08.6-.11zm6.15 3.6v.09zm.2.4s.01.01 0 0zm.51.33h.08zm-.24-.08h.07zm-4.18-3.15v-11a1.17 1.17 0 0 0 -.17-.58 1.34 1.34 0 0 0 -.19-.26 1 1 0 0 0 -.23-.19.4.4 0 0 0 -.43 0 .35.35 0 0 0 -.13.14.6.6 0 0 0 0 .24v11.08a1.37 1.37 0 0 0 .36.85 1.43 1.43 0 0 0 .24.19.43.43 0 0 0 .18.06h.19a.43.43 0 0 0 .18-.53zm1.81-10.69a.58.58 0 0 0 -.23-.08.58.58 0 0 1 .23.08z"/><path d="m690.7 909.35a1.31 1.31 0 0 0 -.37-.85 1.31 1.31 0 0 1 .37.85z"/><path d="m690.68 920.43v-11.08a1.31 1.31 0 0 0 -.37-.85 1 1 0 0 0 -.23-.19.58.58 0 0 0 -.23-.08.28.28 0 0 0 -.19 0 .39.39 0 0 0 -.18.38v11.08a1.08 1.08 0 0 0 .13.47 1.31 1.31 0 0 0 .42.45c.38.39.65.19.65-.18zm2.4 1.38v-11.08a1.32 1.32 0 0 0 -.17-.59 1.24 1.24 0 0 0 -.43-.45.58.58 0 0 0 -.23-.08c-.22 0-.37.14-.37.42v11.08a1 1 0 0 0 0 .3v.18a1.65 1.65 0 0 0 .2.31 1.11 1.11 0 0 0 .24.2h.07l.17.06h.19a.42.42 0 0 0 .33-.35zm-11.27-34.76-.05 7.25 12.97 7.46.06-7.25z"/></g><path d="m1090.57 437.18-132.7 76.94v9.22l166.17-96.38v-9.21zm-132.71 76.94v9.22l-158.21-92.75v-9.21l27.18 15.74v.13z" fill="#aeaeb6"/><path d="m1124.04 417.75-166.18 96.37-158.21-92.74 171.25-99.74z" fill="#e7e3e3"/><path d="m864.83 284.75-18.02-10.41 13.34-20.43 4.68 2.45z" fill="#d7d7d7"/><path d="m960.52 201-95.69 55.36v28.39l117.87-68.35z" fill="#aeaeb6"/><path d="m864.83 256.36-4.68-2.45 95.67-55.36 4.7 2.45z" fill="#eaeaef"/><path d="m883.67 295.82-18.02-10.41 13.33-20.43 4.69 2.45z" fill="#d7d7d7"/><path d="m979.35 212.07-95.68 55.36v28.39l117.86-68.35z" fill="#aeaeb6"/><path d="m883.67 267.43-4.69-2.45 95.68-55.36 4.69 2.45z" fill="#eaeaef"/><path d="m902.5 306.89-18.01-10.41 13.33-20.43 4.68 2.45z" fill="#d7d7d7"/><path d="m998.19 223.14-95.69 55.36v28.39l117.87-68.35z" fill="#aeaeb6"/><path d="m902.5 278.5-4.68-2.45 95.68-55.36 4.69 2.45z" fill="#eaeaef"/><path d="m921.34 317.97-18.01-10.42 13.33-20.43 4.68 2.45z" fill="#d7d7d7"/><path d="m1017.02 234.22-95.68 55.35v28.4l117.87-68.35z" fill="#aeaeb6"/><path d="m921.34 289.57-4.68-2.45 95.68-55.36 4.68 2.46z" fill="#eaeaef"/><path d="m940.18 329.04-18.02-10.41 13.34-20.43 4.68 2.44z" fill="#d7d7d7"/><path d="m1035.86 245.29-95.68 55.35v28.4l117.86-68.35z" fill="#aeaeb6"/><path d="m940.18 300.64-4.68-2.44 95.67-55.36 4.69 2.45z" fill="#eaeaef"/><path d="m959.01 340.11-18.01-10.41 13.33-20.43 4.68 2.45z" fill="#d7d7d7"/><path d="m1054.69 256.36-95.68 55.36v28.39l117.87-68.35z" fill="#aeaeb6"/><path d="m959.01 311.72-4.68-2.45 95.68-55.36 4.68 2.45z" fill="#eaeaef"/><path d="m1053.14 285.55-94.12 54.56v146.13l117.86-68.36v-146.12z" fill="#6a6976"/><path d="m959.01 340.11v146.13l-112.2-65.78v-146.12l19.28 11.16v.09z" fill="#474655"/><path d="m1022.34 365.08v105.46l34.86-20.08v-105.46z" fill="#6a6976"/><path d="m1022.34 365.08-18.22-34.44v129.39l18.22 10.51z" fill="#474655"/><path d="m1004.12 330.64 34.86-20.08 18.22 34.44-34.86 20.08z" fill="#eaeaef"/><path d="m899.83 367.42v105.46l-34.86-20.08v-105.46z" fill="#474655"/><path d="m899.83 367.42 18.22-34.44v129.4l-18.22 10.5z" fill="#6a6976"/><path d="m918.05 332.98-34.86-20.08-18.22 34.44 34.86 20.08z" fill="#eaeaef"/><path d="m714.52 570.06a2.13 2.13 0 0 1 -1.06-4l160.6-91.64v-43a2.15 2.15 0 0 1 1.06-1.85l9.76-5.63a2.13 2.13 0 0 1 2.13 3.69l-8.69 5v43.05a2.13 2.13 0 0 1 -1.07 1.85l-161.67 92.25a2.16 2.16 0 0 1 -1.06.28z" fill="#8c8b96"/><path d="m883.33 421.73a4.81 4.81 0 1 1 -1.76 6.56 4.81 4.81 0 0 1 1.76-6.56z" fill="#8c8b96"/><path d="m816 509.78a1.4 1.4 0 0 1 -1.4-1.4v-19.56c-1.32-.33-3.69-1.17-3.68-3.88 0-1.13.47-2.82 3.83-6.86v-24.95a1.4 1.4 0 0 1 2.8 0v25.46a1.41 1.41 0 0 1 -.33.9c-2.22 2.63-3.5 4.61-3.5 5.45 0 .56.28.87 1.94 1.24a7.19 7.19 0 0 1 .84.23 1.42 1.42 0 0 1 .91 1.31v20.66a1.41 1.41 0 0 1 -1.41 1.4zm-25.55 14.72a1.4 1.4 0 0 1 -1.41-1.4v-20.65a1.42 1.42 0 0 1 .23-.77c.17-.25.41-.59.7-1 1-1.33 2.76-3.81 2.76-5.29v-.05a4.61 4.61 0 0 0 -2.47-.48 1.4 1.4 0 0 1 -1.36-1.4v-25.46a1.4 1.4 0 0 1 2.8 0v24.16c2.54.33 3.83 1.41 3.83 3.23 0 2.38-2 5.12-3.3 6.94l-.38.53v20.24a1.4 1.4 0 0 1 -1.4 1.4z" fill="#322f34"/><path d="m818.77 451.12-4.72-2.74c-1.83-1.07-4.35-.92-7.13.68l-16.92 9.78 4.72 2.75 16.95-9.78a7.81 7.81 0 0 1 6-1.16 5.13 5.13 0 0 1 1.1.47z" fill="#474655"/><g clip-path="url(#a)"><path d="m787.63 485.33-4.73-2.74c-1.8-1-2.92-3.27-2.93-6.42 0-6.34 4.48-14.14 10-17.33l4.72 2.75c-5.52 3.19-10 11-10 17.32 0 3.15 1.13 5.38 2.94 6.42z" fill="#474655"/></g><path d="m811.64 451.8c5.52-3.18 10.05-.6 10.07 5.74s-4.49 14.14-10 17.33l-17 9.78c-5.52 3.19-10 .61-10.07-5.74s4.48-14.13 10-17.32z" fill="#fbaf17"/><path d="m799.66 469.25-7.74 4.48v-5.62l7.74-4.47zm10.99 1.28-18.73 10.81v-5.61l18.73-10.81z" fill="#202225"/><path d="m402.5 657.32-14.77-8.53c-2.58-1.49-2.26-4.12.72-5.84l13.17-7.6c3-1.72 7.53-1.91 10.11-.42l14.77 8.53c2.58 1.49 2.25 4.12-.73 5.84l-13.17 7.6c-2.98 1.72-7.52 1.91-10.1.42z" fill="#262533"/><path d="m425.77 648.29-13.17 7.6c-3 1.72-7.52 1.91-10.1.42l-8.18-4.72-6.59-3.8c-2.58-1.5-2.26-4.12.72-5.84l4.89-2.82 8.28-4.79c3-1.72 7.52-1.9 10.11-.41l14.76 8.53c2.58 1.54 2.26 4.12-.72 5.83z" fill="#595868"/><path d="m421.47 644.16c.27 2.29-1.11 4.64-4.15 6.4-5.6 3.23-14.71 3.22-20.36 0a11.64 11.64 0 0 1 -1.16-.76l-.4-.3a6.34 6.34 0 0 1 -2.68-4.85 4.91 4.91 0 0 1 .38-1.89l2.66-3.74h2.66l20.06.11 2.3 3a5.6 5.6 0 0 1 .67 1.91l.05.15z" fill="#ffbe00"/><path d="m421.47 644.16c.27 2.29-1.11 4.64-4.15 6.4-5.6 3.23-14.71 3.22-20.36 0a11.64 11.64 0 0 1 -1.16-.76l-.4-.3a6.34 6.34 0 0 1 -2.68-4.85 4.91 4.91 0 0 1 .38-1.89l2.66-3.74h2.66l20.06.11 2.3 3a5.6 5.6 0 0 1 .67 1.91l.05.15z" fill="#363545" opacity=".2"/><path d="m417.32 649.76c-5.6 3.23-14.71 3.22-20.36 0a11.64 11.64 0 0 1 -1.16-.76l-.4-.3a6.58 6.58 0 0 1 -2.65-4.37v.32a6.34 6.34 0 0 0 2.68 4.85l.4.3a11.64 11.64 0 0 0 1.16.76c5.65 3.26 14.76 3.27 20.36 0 3-1.71 4.33-4 4.16-6.23-.2 1.97-1.58 3.92-4.19 5.43z" fill="#262533"/><path d="m415.2 644.28c-4.44 2.57-11.66 2.55-16.12 0a8.51 8.51 0 0 1 -1.44-1c-1.65-1.42-2.25-3.13-1.78-4.75l8.33-41h5.81l8.38 41.28v.11c.43 1.91-.65 3.9-3.18 5.36z" fill="#ffbe00"/><path d="m416.58 629.77-2.38-11.77a3.8 3.8 0 0 1 -2.13 2.65 10.94 10.94 0 0 1 -9.89 0 4 4 0 0 1 -2.18-2.75l-2.4 11.83a5 5 0 0 0 2.78 3.57 14.8 14.8 0 0 0 13.42 0 4.82 4.82 0 0 0 2.78-3.53z" fill="#57c7b8"/><path d="m409.17 596.31a4.55 4.55 0 0 0 -4.13 0 1.26 1.26 0 0 0 0 2.38 4.52 4.52 0 0 0 4.13 0c1.15-.69 1.15-1.69 0-2.38z" fill="#363545"/><path d="m408.48 596.7a3.06 3.06 0 0 0 -2.75 0 .84.84 0 0 0 0 1.59 3 3 0 0 0 2.75 0c.77-.44.76-1.15 0-1.59z" fill="#ffbe00"/><path d="m408.48 596.7a3.06 3.06 0 0 0 -2.75 0 .84.84 0 0 0 0 1.59 3 3 0 0 0 2.75 0c.77-.44.76-1.15 0-1.59z" fill="#363545" opacity=".2"/><path d="m800.15 675.37-14.77-8.52c-2.58-1.49-2.25-4.12.73-5.84l13.16-7.6c3-1.72 7.53-1.91 10.11-.42l14.77 8.53c2.58 1.49 2.25 4.11-.73 5.83l-13.16 7.65c-2.98 1.67-7.53 1.86-10.11.37z" fill="#262533"/><path d="m823.43 666.35-13.18 7.65c-3 1.72-7.52 1.91-10.1.41l-8.15-4.76-6.59-3.81c-2.58-1.49-2.26-4.11.73-5.83l4.88-2.82 8.28-4.79c3-1.72 7.52-1.9 10.11-.41l14.76 8.52c2.55 1.49 2.23 4.12-.74 5.84z" fill="#595868"/><path d="m819.13 662.21c.26 2.3-1.12 4.65-4.16 6.41-5.6 3.22-14.71 3.21-20.36 0-.42-.25-.8-.5-1.16-.76a4.08 4.08 0 0 1 -.39-.31 6.31 6.31 0 0 1 -2.68-4.84 5 5 0 0 1 .37-1.89l2.66-3.75h2.66l20.06.11 2.3 3a5.57 5.57 0 0 1 .68 1.9v.15z" fill="#ffbe00"/><path d="m819.13 662.21c.26 2.3-1.12 4.65-4.16 6.41-5.6 3.22-14.71 3.21-20.36 0-.42-.25-.8-.5-1.16-.76a4.08 4.08 0 0 1 -.39-.31 6.31 6.31 0 0 1 -2.68-4.84 5 5 0 0 1 .37-1.89l2.66-3.75h2.66l20.06.11 2.3 3a5.57 5.57 0 0 1 .68 1.9v.15z" fill="#363545" opacity=".2"/><path d="m815 667.82c-5.6 3.22-14.71 3.21-20.36 0-.42-.25-.8-.5-1.16-.76-.14-.1-.27-.21-.39-.31a6.51 6.51 0 0 1 -2.65-4.36 3.16 3.16 0 0 0 0 .32 6.31 6.31 0 0 0 2.68 4.84 4.08 4.08 0 0 0 .39.31c.36.26.74.51 1.16.76 5.65 3.25 14.76 3.26 20.36 0 3-1.72 4.34-4 4.16-6.23-.19 1.97-1.61 3.91-4.19 5.43z" fill="#262533"/><path d="m812.85 662.33c-4.44 2.57-11.66 2.55-16.12 0a8.35 8.35 0 0 1 -1.44-1 4.53 4.53 0 0 1 -1.78-4.74l8.33-41h5.85l8.37 41.27v.11c.41 1.91-.68 3.91-3.21 5.36z" fill="#ffbe00"/><path d="m814.24 647.83-2.39-11.75a3.77 3.77 0 0 1 -2.12 2.64 10.93 10.93 0 0 1 -9.9 0 4 4 0 0 1 -2.13-2.72l-2.41 11.83a5 5 0 0 0 2.79 3.56 14.81 14.81 0 0 0 13.41 0 4.9 4.9 0 0 0 2.75-3.56z" fill="#57c7b8"/><path d="m806.82 614.36a4.59 4.59 0 0 0 -4.13 0 1.26 1.26 0 0 0 0 2.39 4.58 4.58 0 0 0 4.14 0 1.26 1.26 0 0 0 -.01-2.39z" fill="#363545"/><path d="m806.13 614.76a3 3 0 0 0 -2.74 0 .83.83 0 0 0 0 1.58 3.06 3.06 0 0 0 2.75 0 .84.84 0 0 0 -.01-1.58z" fill="#ffbe00"/><path d="m806.13 614.76a3 3 0 0 0 -2.74 0 .83.83 0 0 0 0 1.58 3.06 3.06 0 0 0 2.75 0 .84.84 0 0 0 -.01-1.58z" fill="#363545" opacity=".2"/><path d="m513.12 790.39-14.77-8.53c-2.58-1.49-2.25-4.11.73-5.83l13.16-7.6c3-1.72 7.53-1.91 10.11-.42l14.77 8.52c2.58 1.49 2.25 4.12-.73 5.84l-13.16 7.63c-2.98 1.69-7.53 1.88-10.11.39z" fill="#262533"/><path d="m536.4 781.37-13.17 7.63c-3 1.72-7.53 1.91-10.11.41l-8.12-4.74-6.6-3.81c-2.58-1.49-2.26-4.11.73-5.83l4.87-2.83 8.28-4.78c3-1.72 7.53-1.9 10.12-.42l14.76 8.53c2.53 1.47 2.21 4.12-.76 5.84z" fill="#595868"/><path d="m532.1 777.23c.26 2.3-1.12 4.65-4.16 6.41-5.59 3.22-14.71 3.21-20.35 0a11.79 11.79 0 0 1 -1.17-.75l-.39-.31a6.31 6.31 0 0 1 -2.68-4.84 5 5 0 0 1 .37-1.89l2.66-3.75h2.66l20.06.11 2.3 3a5.5 5.5 0 0 1 .68 1.9v.15z" fill="#ffbe00"/><path d="m532.1 777.23c.26 2.3-1.12 4.65-4.16 6.41-5.59 3.22-14.71 3.21-20.35 0a11.79 11.79 0 0 1 -1.17-.75l-.39-.31a6.31 6.31 0 0 1 -2.68-4.84 5 5 0 0 1 .37-1.89l2.66-3.75h2.66l20.06.11 2.3 3a5.5 5.5 0 0 1 .68 1.9v.15z" fill="#363545" opacity=".2"/><path d="m527.94 782.83c-5.59 3.23-14.71 3.22-20.35 0a10.26 10.26 0 0 1 -1.17-.76l-.39-.3a6.51 6.51 0 0 1 -2.65-4.37v.33a6.31 6.31 0 0 0 2.68 4.84l.39.31a11.79 11.79 0 0 0 1.17.75c5.64 3.26 14.76 3.27 20.35 0 3-1.72 4.34-4 4.16-6.23-.2 1.98-1.58 3.92-4.19 5.43z" fill="#262533"/><path d="m525.83 777.35c-4.45 2.57-11.67 2.55-16.13 0a8.35 8.35 0 0 1 -1.44-1 4.54 4.54 0 0 1 -1.78-4.74l8.33-41h5.85l8.34 41.24v.11c.44 1.94-.65 3.94-3.17 5.39z" fill="#ffbe00"/><path d="m527.21 762.85-2.39-11.75a3.77 3.77 0 0 1 -2.12 2.64 10.93 10.93 0 0 1 -9.9 0 4 4 0 0 1 -2.13-2.75l-2.41 11.83a5 5 0 0 0 2.79 3.56 14.83 14.83 0 0 0 13.42 0 4.88 4.88 0 0 0 2.74-3.53z" fill="#57c7b8"/><path d="m519.79 729.38a4.59 4.59 0 0 0 -4.13 0c-1.14.66-1.13 1.73 0 2.39a4.59 4.59 0 0 0 4.13 0c1.21-.66 1.15-1.77 0-2.39z" fill="#363545"/><path d="m519.11 729.78a3.06 3.06 0 0 0 -2.75 0 .84.84 0 0 0 0 1.59 3.06 3.06 0 0 0 2.75 0 .84.84 0 0 0 0-1.59z" fill="#ffbe00"/><path d="m519.11 729.78a3.06 3.06 0 0 0 -2.75 0 .84.84 0 0 0 0 1.59 3.06 3.06 0 0 0 2.75 0 .84.84 0 0 0 0-1.59z" fill="#363545" opacity=".2"/><path d="m634.39 715.11 9.29 57.27 4.25-2.45-9.3-57.26z" fill="#8c8b96"/><path d="m634.4 715.11 9.3 57.27-4.22-2.45-9.3-57.25z" fill="#7b7a86"/><path d="m630.18 712.68 4.22 2.43 4.23-2.44-4.23-2.45z" fill="#7b7a86"/><path d="m634.39 715.11-22.28 76.05 4.24-2.45 22.28-76.04z" fill="#8c8b96"/><path d="m634.4 715.11-22.28 76.05-4.22-2.45 22.28-76.03z" fill="#7b7a86"/><path d="m630.18 712.68 4.22 2.43 4.23-2.44-4.23-2.45zm21.04 81.79-.66 1.71-33.74-19.2.67-1.71z" fill="#7b7a86"/><path d="m617.49 775.27 33.73 19.2 2.41-1.37-33.74-19.2zm55.07-38.33 9.3 57.27 4.25-2.45-9.3-57.26z" fill="#8c8b96"/><path d="m672.57 736.94 9.3 57.27-4.21-2.45-9.3-57.25z" fill="#7b7a86"/><g clip-path="url(#b)"><path d="m676.81 732.16-.21-.11h.21z" fill="#cfccd5"/><path d="m676.81 732.28-.43-.23h.22l.21.11z" fill="#d0cdd5"/><path d="m676.81 732.39-.64-.34h.21l.43.23z" fill="#d1ced6"/><path d="m676.81 732.5-.86-.45h.22l.64.34z" fill="#d2cfd7"/><path d="m676.81 732.62-1.08-.57h.22l.86.45z" fill="#d3d0d7"/><path d="m676.81 732.73-1.29-.68h.21l1.08.57z" fill="#d4d1d8"/><path d="m676.81 732.92-1.64-.87h.35l1.29.68z" fill="#d4d1d8"/><path d="m676.81 733.1-2-1.05h.36l1.64.87z" fill="#d5d2d9"/><path d="m676.81 733.28-2.35-1.23h.35l2 1.05z" fill="#d6d3da"/><path d="m676.81 733.47-2.7-1.42h.35l2.35 1.23z" fill="#d7d4db"/><path d="m676.81 733.65-3.05-1.6h.35l2.7 1.42z" fill="#d8d5dc"/><path d="m676.81 733.84-3.4-1.79h.35l3.05 1.6z" fill="#d9d6dd"/><path d="m676.81 734.02-3.75-1.97h.35l3.4 1.79z" fill="#dad7de"/><path d="m676.81 734.21-4.1-2.16h.35l3.75 1.97z" fill="#dbd8df"/><path d="m676.81 734.39-4.46-2.34h.36l4.1 2.16z" fill="#dcd9e0"/><path d="m676.81 734.58-4.81-2.53h.35l4.46 2.34z" fill="#dddae1"/><path d="m676.81 734.76-5.16-2.71h.35l4.81 2.53z" fill="#dedbe2"/><path d="m676.81 734.95-5.51-2.9h.35l5.16 2.71z" fill="#dfdce3"/><path d="m676.81 735.13-5.86-3.08h.35l5.51 2.9z" fill="#e0dde4"/><path d="m676.81 735.31-6.21-3.26h.35l5.86 3.08z" fill="#e1dee5"/><path d="m676.81 735.5-6.56-3.45h.35l6.21 3.26z" fill="#e2dfe6"/><path d="m676.81 735.68-6.92-3.63h.36l6.56 3.45z" fill="#e3e0e7"/><path d="m676.81 735.87-7.27-3.82h.35l6.92 3.63z" fill="#e4e1e8"/><path d="m676.81 736.05-7.62-4h.35l7.27 3.82z" fill="#e5e2e9"/><path d="m676.81 736.24-7.97-4.19h.35l7.62 4z" fill="#e6e3ea"/><path d="m676.81 736.42-8.32-4.37h.35l7.97 4.19z" fill="#e7e4eb"/><path d="m676.81 736.6-8.45-4.43v-.12h.13l8.32 4.37z" fill="#e9e6ed"/><path d="m676.81 736.79-8.45-4.43v-.19l8.45 4.43z" fill="#eae7ee"/><path d="m676.75 736.94-8.39-4.4v-.18l8.45 4.43v.15z" fill="#ebe8ef"/><path d="m676.4 736.94-8.04-4.22v-.18l8.39 4.4z" fill="#ece9f0"/><path d="m676.05 736.94-7.69-4.03v-.19l8.04 4.22z" fill="#edeaf1"/><g fill="#eeebf2"><path d="m675.7 736.94-7.34-3.85v-.18l7.69 4.03z"/><path d="m668.36 733.09 7.34 3.85h-7.34z"/></g></g><path d="m672.56 736.94-22.28 76.05 4.25-2.45 22.28-76.04z" fill="#8c8b96"/><path d="m672.57 736.94-22.28 76.05-4.21-2.45 22.28-76.03z" fill="#7b7a86"/><path d="m668.36 734.51 4.21 2.43 4.24-2.44-4.24-2.45z" fill="#7b7a86"/><path d="m665.6 781-50.2-28.9c-2.12-1.22-3.2-4.34-2.41-7l2.41-8c.4-1.34-1.22-1.41-.25-1.87.08 0 2.59-1 2.67-1a3.27 3.27 0 0 1 2.85.28l50.2 28.9c2.12 1.22 3.2 4.34 2.41 7l-2.41 8a4.21 4.21 0 0 1 -2.4 2.85l-2.63 1c-.84.28.69-.75-.24-1.26zm6.05-20.21-50.2-28.91c-2.12-1.21-3.2-4.34-2.41-7l2.41-8c.4-1.33-1.22-1.41-.25-1.87l2.67-1a3.29 3.29 0 0 1 2.84.29l50.21 28.9c2.12 1.21 3.2 4.34 2.41 7l-2.41 8.05a4.16 4.16 0 0 1 -2.41 2.84l-2.62 1c-.89.25.69-.77-.24-1.3z" fill="#ffbe00"/><path d="m665.6 781-50.2-28.9c-2.12-1.22-3.2-4.34-2.41-7l2.41-8c.4-1.34-1.22-1.41-.25-1.87.08 0 2.59-1 2.67-1a3.27 3.27 0 0 1 2.85.28l50.2 28.9c2.12 1.22 3.2 4.34 2.41 7l-2.41 8a4.21 4.21 0 0 1 -2.4 2.85l-2.63 1c-.84.28.69-.75-.24-1.26z" fill="#aeaeb6" opacity=".4"/><path d="m671.65 760.79-50.2-28.91c-2.12-1.21-3.2-4.34-2.41-7l2.41-8c.4-1.33-1.22-1.41-.25-1.87l2.67-1a3.29 3.29 0 0 1 2.84.29l50.21 28.9c2.12 1.21 3.2 4.34 2.41 7l-2.41 8.05a4.16 4.16 0 0 1 -2.41 2.84l-2.62 1c-.89.25.69-.77-.24-1.3z" fill="#aeaeb6" opacity=".4"/><path d="m663.07 781.93-50.21-28.93c-2.12-1.22-3.19-4.34-2.4-7l2.4-8c.79-2.64 3.15-3.79 5.27-2.57l50.21 28.9c2.12 1.22 3.2 4.34 2.41 7l-2.41 8c-.79 2.67-3.15 3.82-5.27 2.6zm6.05-20.19-50.21-28.91c-2.12-1.21-3.2-4.34-2.41-7l2.41-8.05c.79-2.63 3.15-3.78 5.27-2.57l50.21 28.91c2.12 1.21 3.19 4.34 2.41 7l-2.41 8c-.79 2.68-3.15 3.88-5.27 2.62z" fill="#ffbe00"/><path d="m641 753.92a2.29 2.29 0 0 1 1 2.13.88.88 0 0 1 -1.39.75 2.3 2.3 0 0 1 -1.05-2.12.9.9 0 0 1 1.44-.76zm1.49-11.92a3.81 3.81 0 0 1 1.79 4l-1.6 6a1 1 0 0 1 -1.48.59 2.47 2.47 0 0 1 -1.16-2.05v-6.78c.05-1.6 1.13-2.43 2.45-1.76z"/><path d="m643.68 732.29 9.68 35.19-26.16-14.91zm-1 19.72 1.6-6a3.81 3.81 0 0 0 -1.79-4c-1.32-.69-2.41.14-2.49 1.75v6.78a2.47 2.47 0 0 0 1.16 2.05 1 1 0 0 0 1.48-.59m-2 4.79a.88.88 0 0 0 1.39-.75 2.29 2.29 0 0 0 -1-2.13.9.9 0 0 0 -1.4.76 2.3 2.3 0 0 0 1.05 2.12"/><path d="m656.21 767.22c.8 3.17-1 5.27-3.41 3.9l-26-15c-2.35-1.26-3.43-4.92-2-6.65l16.48-20.26a2.19 2.19 0 0 1 2.88-.47 5 5 0 0 1 2.45 3.14zm-29-14.65 26.16 14.91-9.68-35.19-16.49 20.28" fill="#474655"/><path d="m640.21 754a2.23 2.23 0 0 1 1 2 .86.86 0 0 1 -1.34.73 2.22 2.22 0 0 1 -1-2 .86.86 0 0 1 1.34-.73zm1.39-11.45a3.66 3.66 0 0 1 1.72 3.88l-1.53 5.72a1 1 0 0 1 -1.43.56 2.34 2.34 0 0 1 -1.12-2v-6.52c.04-1.51 1.08-2.31 2.36-1.64z" fill="#d52a33"/><path d="m642.75 733.2 9.32 33.8-25.19-14.33zm-1 18.95 1.53-5.72a3.66 3.66 0 0 0 -1.72-3.88c-1.28-.67-2.32.13-2.4 1.68v6.52a2.34 2.34 0 0 0 1.12 2 1 1 0 0 0 1.43-.56m-1.92 4.61a.86.86 0 0 0 1.34-.73 2.23 2.23 0 0 0 -1-2 .86.86 0 0 0 -1.35.74 2.22 2.22 0 0 0 1 2" fill="#fff"/><path d="m654.82 766.75c.77 3-.94 5.06-3.28 3.75l-25.06-14.45c-2.26-1.21-3.3-4.73-2-6.4l15.86-19.47a2.13 2.13 0 0 1 2.78-.45 4.86 4.86 0 0 1 2.35 3zm-27.94-14.07 25.19 14.32-9.32-33.81-15.87 19.48" fill="#d52a33"/></svg>