<svg viewBox="0 0 1200 1200" xmlns="http://www.w3.org/2000/svg" xmlns:xlink="http://www.w3.org/1999/xlink"><clipPath id="a"><path d="m970.14 356.14v179.29c0 2.8 1.85 5.61 5.55 7.74 7.41 4.28 19.42 4.28 26.83 0 3.71-2.13 5.56-4.94 5.56-7.74v-179.29z"/></clipPath><clipPath id="b"><path d="m1061.91 338.52c.07-24.2-16.94-53.66-38-65.81-11.07-6.4-21-6.72-28-2.08l-87.84 50.57 55.6 92.08 87.7-50.56-.06-.08c6.54-4.1 10.57-12.42 10.6-24.12z"/></clipPath><clipPath id="c"><path d="m899.41 343.28c19.35 11.31 35.07 38.43 35.11 60.58l.19 107c0 7-4.92 9.75-11 6.18l-48-28.06c-6.1-3.56-11.05-12.1-11.06-19.08l-.19-107c-.06-22.15 15.59-30.9 34.95-19.62z"/></clipPath><clipPath id="d"><path d="m967.84 768.81v203.11c0 3.17 2.1 6.35 6.29 8.77 8.4 4.85 22 4.85 30.4 0 4.2-2.42 6.29-5.6 6.29-8.77v-203.11z"/></clipPath><clipPath id="e"><path d="m966.16 849.14v97.93c0 3.42 2.26 6.84 6.79 9.46 9 5.22 23.72 5.22 32.76 0 4.53-2.62 6.79-6 6.79-9.46v-97.93z"/></clipPath><clipPath id="f"><path d="m883.38 718.09v67.78c.15 15.58 10.51 31.14 31.1 43 41.47 23.94 108.71 23.94 150.18 0 20.59-11.89 30.95-27.45 31.1-43v-67.78z"/></clipPath><clipPath id="g"><path d="m1070.44 667.56c20.8 20.66 15.88 47.58-14.76 65.27-36.51 21.08-95.71 21.08-132.22 0-30.64-17.69-35.56-44.61-14.76-65.27-35.59 24.09-33.67 60.32 5.78 83.1 41.47 23.94 108.71 23.94 150.18 0 39.45-22.78 41.34-59.01 5.78-83.1z"/></clipPath><clipPath id="h"><path d="m604.53 838.14 4.27 2.46 4.29-2.48-4.29-2.48z"/></clipPath><path d="m595.45 739a54.59 54.59 0 0 1 -8.25-9.14l-30.35-60.43 23 61.5a37.78 37.78 0 0 1 .56 6.63 141.58 141.58 0 0 1 -29-9l-118.79-64 110.77 68.59c6.64 5.35 11.45 10.22 14.41 14.86-2.79-.17-5.75-.43-8.85-.75l-104.26-18.26 101.78 22.48a121.71 121.71 0 0 1 14.75 5.35 18.78 18.78 0 0 1 .18 2.47 131.31 131.31 0 0 1 -15.84 4.7l-104.66 17.55 106.53-13.27c4.11-.22 7.92-.33 11.47-.32-2.79 5.2-8 10.65-15.52 16.73l-110.78 68.59 118.8-64a149 149 0 0 1 25.74-8.28 44.63 44.63 0 0 1 -1.3 5.11l-31.75 60.19 38.91-58.76a63.57 63.57 0 0 1 9.3-8.54c1.43-.07 2.85-.12 4.28-.11a55 55 0 0 1 8.25 9.14l30.35 60.43-23-61.5a36.84 36.84 0 0 1 -.56-6.63 142.2 142.2 0 0 1 29 9l118.79 64-110.76-68.64c-6.65-5.35-11.46-10.22-14.42-14.86 2.8.17 5.75.43 8.86.75l104.24 18.34-101.77-22.49a121.71 121.71 0 0 1 -14.75-5.35 15.79 15.79 0 0 1 -.18-2.47 131.24 131.24 0 0 1 15.83-4.76l104.67-17.53-106.53 13.27c-4.11.22-7.92.33-11.47.32 2.79-5.2 8-10.65 15.52-16.73l110.77-68.59-118.8 64a149 149 0 0 1 -25.73 8.32 44.63 44.63 0 0 1 1.3-5.11l31.75-60.19-39 58.76a63 63 0 0 1 -9.26 8.51c-1.38.03-2.81.12-4.23.12z" fill="#ffd13e"/><path d="m596.78 804.32v-34.2c0-.57-1.53-.57-1.53 0v34.2c0 .57 1.53.57 1.53 0zm0 16.81v-10.91c0-.57-1.53-.57-1.53 0v10.91c0 .57 1.53.57 1.53 0zm40.63-23.33-29.62-29.62c-.5-.49-1.82 0-1.33.44l29.62 29.62c.49.5 1.82.05 1.33-.44zm14.59 14.56-9.45-9.45c-.49-.5-1.82 0-1.32.44l9.45 9.45c.45.49 1.78.05 1.32-.44zm14.94-31.94-51.3-17.1c-.86-.28-1.62.48-.77.77l51.31 17.1c.82.28 1.62-.48.76-.77zm25.21 8.41-16.36-5.46c-.85-.28-1.62.48-.77.77l16.37 5.45c.85.29 1.61-.48.76-.76zm-14.68-31.98h-59.24c-1 0-1 .88 0 .88h59.24c.99 0 .99-.88 0-.88zm29.12 0h-18.9c-1 0-1 .88 0 .88h18.9c.98 0 .98-.88 0-.88zm-40.41-23.46-51.31 17.1c-.85.29-.09 1.06.77.77l51.3-17.1c.86-.29.06-1.05-.76-.77zm25.21-8.39-16.39 5.44c-.85.29-.09 1 .77.77l16.37-5.46c.86-.28.1-1.05-.75-.75zm-55.31-8.66-29.62 29.66c-.49.49.83.94 1.33.44l29.62-29.62c.49-.53-.84-.97-1.33-.48zm14.56-14.56-9.45 9.45c-.49.5.83.94 1.33.44l9.44-9.44c.5-.5-.83-.94-1.32-.45zm-55.39 8.48v34.2c0 .57 1.53.57 1.53 0v-34.2c0-.57-1.53-.57-1.53 0zm0-16.81v10.91c0 .57 1.53.57 1.53 0v-10.91c0-.57-1.53-.57-1.53 0zm-40.63 23.33 29.62 29.62c.5.5 1.82.06 1.33-.44l-29.57-29.62c-.55-.49-1.87-.05-1.38.44zm-14.55-14.55 9.44 9.44c.5.5 1.82.06 1.33-.44l-9.45-9.45c-.49-.49-1.82-.05-1.32.45zm-14.99 31.93 51.31 17.1c.85.29 1.62-.48.77-.77l-51.31-17.1c-.85-.28-1.62.48-.77.77zm-25.21-8.41 16.37 5.46c.85.28 1.62-.48.76-.77l-16.36-5.44c-.85-.3-1.64.47-.77.75zm14.68 31.98h59.25c1 0 1-.88 0-.88h-59.25c-.98 0-.98.88 0 .88zm-29.11 0h18.9c1 0 1-.88 0-.88h-18.9c-.98 0-.99.88 0 .88zm40.41 23.46 51.31-17.1c.85-.29.09-1.05-.77-.77l-51.31 17.1c-.85.29-.08 1.05.77.77zm-25.21 8.4 16.36-5.45c.86-.29.09-1-.76-.77l-16.37 5.46c-.87.28-.09 1.05.77.76zm55.36 8.65 29.62-29.62c.49-.49-.83-.94-1.33-.44l-29.67 29.62c-.49.49.83.94 1.38.44zm-14.61 14.56 9.45-9.45c.49-.49-.83-.94-1.33-.44l-9.45 9.45c-.49.49.84.93 1.33.44zm82.43-40.08-15.17-8.72c-.69-.4-1.78.23-1.08.63l15.17 8.76c.7.36 1.78-.27 1.08-.67zm28.53 16.47-22.75-13.13c-.7-.41-1.78.22-1.08.62l22.75 13.14c.73.4 1.78-.23 1.08-.63zm10.11 5.81-5.05-2.92c-.7-.4-1.78.22-1.09.63l5.06 2.92c.7.43 1.78-.2 1.08-.63zm-29-32.37-20.72-3.21c-1-.15-1.35.71-.4.85l20.72 3.21c.94.15 1.35-.71.4-.85zm38.97 6.02-31.08-4.8c-1-.15-1.35.7-.4.85l31.05 4.81c1 .15 1.38-.71.43-.86zm13.81 2.14-6.9-1.07c-1-.14-1.35.71-.4.86l6.91 1.07c.95.14 1.35-.71.39-.86zm-53.18-19.69-20.72 3.21c-1 .14-.56 1 .4.85l20.72-3.2c.95-.15.54-.96-.4-.86zm38.94-6.03-31 4.81c-1 .15-.55 1 .4.86l31.08-4.81c.9-.15.52-1-.48-.86zm13.85-2.13-6.91 1.06c-1 .15-.56 1 .4.86l6.9-1.07c.96-.15.56-1-.39-.85zm-63.11-1.7-15.17 8.76c-.7.41.39 1 1.08.63l15.17-8.76c.7-.41-.38-1.04-1.08-.63zm28.53-16.48-22.75 13.14c-.7.4.38 1 1.08.63l22.75-13.14c.7-.39-.35-1.03-1.08-.63zm10.11-5.83-5.06 2.92c-.69.4.39 1 1.09.62l5.05-2.92c.7-.4-.38-1.03-1.08-.62zm-56.13 16.74-5.55 12c-.25.54 1.23.77 1.48.22l5.55-12c.27-.54-1.22-.77-1.48-.22zm10.45-22.5-8.33 18c-.26.55 1.22.78 1.48.22l8.33-17.94c.25-.6-1.18-.83-1.48-.28zm3.7-7.97-1.85 4c-.26.55 1.22.78 1.48.23l1.85-4c.25-.55-1.23-.78-1.48-.23zm-34.11 30.7 5.56 12c.25.55 1.73.33 1.48-.22l-5.56-12c-.25-.56-1.77-.33-1.48.22zm-10.44-22.5 8.33 17.94c.25.55 1.73.33 1.48-.22l-8.33-18c-.25-.5-1.73-.27-1.48.28zm-3.7-7.97 1.85 4c.26.55 1.74.33 1.48-.23l-1.85-4c-.25-.55-1.73-.32-1.48.23zm-2.94 36.43 15.16 8.76c.7.4 1.79-.22 1.09-.63l-15.17-8.75c-.7-.41-1.78.22-1.08.62zm-28.53-16.47 22.75 13.14c.7.4 1.78-.23 1.08-.63l-22.75-13.14c-.7-.4-1.76.24-1.08.63zm-10.11-5.84 5 2.92c.7.4 1.78-.22 1.08-.62l-5.05-2.92c-.6-.41-1.73.22-1.03.62zm29 32.45 20.72 3.2c1 .15 1.35-.71.4-.85l-20.69-3.25c-1-.1-1.38.71-.43.9zm-38.97-6.07 31.08 4.81c1 .14 1.35-.71.39-.86l-31.07-4.81c-1-.14-1.36.71-.4.86zm-13.82-2.14 6.91 1.07c.95.15 1.35-.71.4-.86l-6.91-1.06c-.95-.15-1.35.7-.4.85zm53.22 19.69 20.72-3.21c.95-.14.55-1-.4-.85l-20.72 3.21c-.98.14-.6 1 .4.85zm-39 6.03 31.08-4.81c1-.15.56-1-.39-.85l-31.08 4.8c-.96.15-.61 1.01.39.86zm-13.82 2.14 6.91-1.07c.95-.15.55-1-.4-.86l-6.91 1.07c-.95.15-.55 1 .4.86zm63.11 1.7 15.17-8.76c.69-.4-.39-1-1.09-.63l-15.16 8.76c-.7.4.38 1.03 1.08.63zm-28.53 16.47 22.75-13.14c.7-.4-.38-1-1.08-.62l-22.75 13.13c-.68.4.38 1.03 1.08.63zm-10.11 5.84 5.05-2.92c.7-.41-.38-1-1.08-.63l-5.06 2.89c-.69.43.44 1.06 1.09.66zm56.12-16.75 5.56-12c.25-.55-1.23-.78-1.48-.23l-5.56 12c-.29.55 1.23.78 1.48.23zm-10.44 22.5 8.33-17.94c.25-.55-1.23-.78-1.48-.23l-8.33 17.94c-.25.55 1.23.82 1.48.23zm-3.7 7.98 1.85-4c.26-.55-1.22-.78-1.48-.23l-1.85 4c-.26.55 1.22.78 1.48.23zm34.1-30.71-5.55-12c-.25-.55-1.73-.32-1.48.23l5.55 12c.26.55 1.75.32 1.48-.23zm10.45 22.5-8.33-17.94c-.26-.55-1.74-.32-1.48.23l8.33 17.94c.3.59 1.73.32 1.48-.23zm3.7 7.98-1.85-4c-.26-.55-1.74-.32-1.48.23l1.85 4c.25.54 1.73.32 1.48-.23z" fill="#ffd13e"/><path d="m521.6 446.47 55.72-32.05 34.22 19.88-25.97 130.91 62.31-51.58 22.55 12.82-73.22 232.49-.29-.19 1.69-168.08-31.23 64.45-20-11.4z" fill="#f9a216"/><path d="m521.88 446.31 43.4 25.37 44.38-27.91 1.88-9.47-34.22-19.88z" fill="#ffb92c"/><path d="m604.5 576.68 7.04-142.38-52.24 30.05-3.48 2 11.56 188.77 49.13-37.85-19.3 141.67.42-.25 72.8-232.24z" fill="#ffd13e"/><g opacity=".4"><path d="m200.08 576.17c-15.17 0-29.46-3.39-40.23-9.56-11-6.31-17.15-14.8-17.19-23.89s6-17.63 17-24 25.5-9.9 41-9.9c15.17 0 29.46 3.4 40.24 9.56 11 6.31 17.14 14.8 17.18 23.89s-6 17.63-17 24-25.52 9.9-41 9.9z" fill="#d0d0d7"/><g fill="#7b7a86"><path d="m200.63 509.69c14.4 0 28.78 3.14 39.79 9.44 22.24 12.71 22.32 33.47.2 46.37-11.17 6.51-25.87 9.77-40.54 9.77-14.4 0-28.78-3.14-39.79-9.43-22.24-12.72-22.32-33.48-.19-46.38 11.16-6.51 25.86-9.77 40.53-9.77m0-1.79c-15.64 0-30.35 3.55-41.43 10-11.28 6.58-17.47 15.39-17.43 24.81s6.3 18.19 17.63 24.67c10.91 6.24 25.36 9.67 40.68 9.67 15.64 0 30.36-3.55 41.44-10 11.27-6.58 17.46-15.39 17.42-24.81s-6.3-18.19-17.63-24.67c-10.91-6.24-25.36-9.67-40.68-9.67z"/><path d="m200 567.82c-14.57 0-29.11-3.17-40.23-9.53s-17.14-14.8-17.18-23.89 6-17.63 17-24c22.34-13 58.78-13.18 81.22-.34 11 6.31 17.15 14.8 17.19 23.89s-6 17.63-17 24c-11.24 6.58-26.11 9.87-41 9.87zm.56-65.56c-14.52 0-29.06 3.23-40.09 9.65-10.37 6.09-16.09 14.09-16.05 22.48s5.81 16.36 16.28 22.35c22 12.55 57.58 12.4 79.43-.33 10.41-6.07 16.13-14.06 16.1-22.48s-5.82-16.36-16.29-22.35c-10.87-6.21-25.1-9.32-39.34-9.32z" opacity=".6"/><path d="m194.49 559.37h-.05a92.73 92.73 0 0 1 -15.89-2.24.91.91 0 0 1 -.67-1.08.9.9 0 0 1 1.08-.67 91.09 91.09 0 0 0 15.58 2.21.89.89 0 0 1 0 1.78zm15.89-.39a.9.9 0 0 1 -.89-.8.91.91 0 0 1 .8-1 87.57 87.57 0 0 0 15.44-3 .89.89 0 1 1 .51 1.71 89.38 89.38 0 0 1 -15.76 3.1zm-46.64-7a.91.91 0 0 1 -.39-.08 60.14 60.14 0 0 1 -3.57-1.89 44.18 44.18 0 0 1 -9.69-7.32.89.89 0 1 1 1.28-1.25 42.51 42.51 0 0 0 9.29 7c1.12.63 2.28 1.25 3.47 1.82a.9.9 0 0 1 .42 1.2.89.89 0 0 1 -.81.48zm76.86-2.22a.86.86 0 0 1 -.77-.44.89.89 0 0 1 .32-1.22 38.23 38.23 0 0 0 11.71-10.1.89.89 0 1 1 1.44 1.06 40 40 0 0 1 -12.25 10.55.82.82 0 0 1 -.45.11zm-97-20.7a.89.89 0 0 1 -.88-.79 18.77 18.77 0 0 1 -.13-2.23 22.31 22.31 0 0 1 4.65-13.32.89.89 0 0 1 1.25-.19.9.9 0 0 1 .19 1.25 20.6 20.6 0 0 0 -4.3 12.26 19.88 19.88 0 0 0 .11 2 .89.89 0 0 1 -.79 1zm113.4-4.55a.89.89 0 0 1 -.88-.8c-.51-4.67-2.88-9.3-6.85-13.38a.9.9 0 0 1 0-1.27.89.89 0 0 1 1.26 0c4.25 4.37 6.79 9.37 7.34 14.44a.88.88 0 0 1 -.79 1zm-96.49-20.92-.56-.71-.36-.82a67 67 0 0 1 14.84-6.28.9.9 0 0 1 .5 1.72 65.76 65.76 0 0 0 -14.45 6.09zm76.44-2.04a.92.92 0 0 1 -.4-.08 71.09 71.09 0 0 0 -14.81-5.16.89.89 0 1 1 .41-1.74 73.78 73.78 0 0 1 15.19 5.28.9.9 0 0 1 .41 1.2.88.88 0 0 1 -.86.5zm-46.64-7.07a.89.89 0 0 1 -.1-1.78 99.83 99.83 0 0 1 16-.39.9.9 0 1 1 -.1 1.79 97.36 97.36 0 0 0 -15.75.38z" opacity=".6"/></g></g><path d="m448.57 680a2.18 2.18 0 0 1 -1.07-.29l-202.16-116.71a2.13 2.13 0 0 1 2.13-3.69l202.16 116.74a2.13 2.13 0 0 1 -1.06 4z" fill="#8c8b96"/><path d="m244.21 565.45a4.81 4.81 0 1 1 6.56-1.76 4.81 4.81 0 0 1 -6.56 1.76z" fill="#8c8b96"/><g opacity=".4"><path d="m988 1014.12c-15.17 0-29.46-3.4-40.23-9.56-11-6.32-17.15-14.8-17.19-23.89s6-17.63 17-24 25.5-9.89 41-9.89c15.17 0 29.46 3.39 40.24 9.55 11 6.32 17.14 14.8 17.18 23.9s-6 17.62-17 24-25.52 9.89-41 9.89z" fill="#d0d0d7"/><g fill="#7b7a86"><path d="m988.55 947.63c14.4 0 28.78 3.14 39.79 9.44 22.24 12.72 22.32 33.48.2 46.38-11.17 6.51-25.87 9.77-40.54 9.77-14.4 0-28.78-3.14-39.79-9.44-22.21-12.71-22.32-33.48-.21-46.37 11.17-6.51 25.86-9.78 40.53-9.78m0-1.79c-15.64 0-30.35 3.56-41.43 10-11.28 6.57-17.47 15.39-17.43 24.81s6.3 18.19 17.63 24.67c10.91 6.23 25.36 9.67 40.68 9.67 15.64 0 30.36-3.56 41.44-10 11.28-6.57 17.46-15.38 17.43-24.81s-6.31-18.18-17.64-24.66c-10.91-6.24-25.35-9.68-40.68-9.68z"/><path d="m988 1005.77c-14.57 0-29.11-3.17-40.23-9.53s-17.14-14.8-17.18-23.89 6-17.63 17-24c22.34-13 58.78-13.17 81.22-.34 11 6.32 17.15 14.8 17.19 23.9s-6 17.62-17 24c-11.32 6.56-26.19 9.86-41 9.86zm.56-65.56c-14.52 0-29.06 3.22-40.09 9.65-10.41 6.07-16.13 14-16.09 22.48s5.81 16.36 16.28 22.35c22 12.55 57.58 12.4 79.43-.33 10.42-6.07 16.13-14.06 16.1-22.49s-5.82-16.36-16.28-22.34c-10.91-6.22-25.14-9.32-39.39-9.32z" opacity=".6"/><path d="m982.41 997.32a92.73 92.73 0 0 1 -15.89-2.25.89.89 0 1 1 .41-1.74 91.23 91.23 0 0 0 15.58 2.2.9.9 0 0 1 -.05 1.79zm15.89-.39a.9.9 0 0 1 -.09-1.79 86.67 86.67 0 0 0 15.44-3 .9.9 0 0 1 .51 1.72 88.48 88.48 0 0 1 -15.76 3.09zm-46.64-7a.92.92 0 0 1 -.39-.09 54.71 54.71 0 0 1 -3.57-1.88 43.9 43.9 0 0 1 -9.69-7.33.89.89 0 1 1 1.28-1.24 42.51 42.51 0 0 0 9.29 7c1.12.63 2.28 1.25 3.47 1.82a.9.9 0 0 1 .42 1.2.88.88 0 0 1 -.81.48zm76.86-2.22a.89.89 0 0 1 -.77-.44.9.9 0 0 1 .32-1.23 38.21 38.21 0 0 0 11.71-10.06.89.89 0 1 1 1.44 1.06 40.12 40.12 0 0 1 -12.22 10.51.92.92 0 0 1 -.48.12zm-97-20.7a.89.89 0 0 1 -.88-.8 18.48 18.48 0 0 1 -.13-2.22 22.31 22.31 0 0 1 4.65-13.32.9.9 0 0 1 1.25-.2.91.91 0 0 1 .19 1.26 20.6 20.6 0 0 0 -4.3 12.27 19.84 19.84 0 0 0 .11 2 .88.88 0 0 1 -.79 1zm113.37-4.51a.9.9 0 0 1 -.89-.8c-.5-4.67-2.87-9.3-6.84-13.39a.9.9 0 0 1 1.29-1.25c4.24 4.38 6.78 9.37 7.33 14.45a.88.88 0 0 1 -.79 1zm-96.49-20.96-.56-.71-.45-.78.11-.06a67.06 67.06 0 0 1 14.82-6.26.89.89 0 1 1 .5 1.71 65.29 65.29 0 0 0 -14.42 6.1zm76.41-2a.86.86 0 0 1 -.39-.09 71.38 71.38 0 0 0 -14.82-5.15.9.9 0 0 1 -.67-1.08.89.89 0 0 1 1.08-.66 73.19 73.19 0 0 1 15.19 5.28.9.9 0 0 1 -.39 1.7zm-46.64-7.07a.9.9 0 0 1 -.1-1.79 101 101 0 0 1 16-.38.9.9 0 0 1 .85.94.89.89 0 0 1 -1 .84 99.69 99.69 0 0 0 -15.75.38z" opacity=".6"/></g></g><path d="m926.48 953.33a2.14 2.14 0 0 1 -1.07-.28l-186.48-107.68a2.13 2.13 0 1 1 2.13-3.69l183.31 105.85.12-15.3a2.12 2.12 0 0 1 2.13-2.12 2.13 2.13 0 0 1 2.12 2.15l-.14 19a2.15 2.15 0 0 1 -1.08 1.83 2.07 2.07 0 0 1 -1.04.24z" fill="#8c8b96"/><path d="m921.81 932.45a4.81 4.81 0 1 1 4.77 4.84 4.8 4.8 0 0 1 -4.77-4.84z" fill="#8c8b96"/><g opacity=".4"><path d="m200.56 1012.43c-15.48 0-30-3.51-41-9.89s-17-14.94-17-24 6.14-17.57 17.19-23.89c10.77-6.16 25.06-9.56 40.23-9.56 15.48 0 30 3.52 41 9.9s17 14.94 17 24-6.14 17.58-17.18 23.89c-10.78 6.17-25.07 9.56-40.24 9.56z" fill="#d0d0d7"/><g fill="#7b7a86"><path d="m200 946c14.67 0 29.37 3.26 40.54 9.77 22.12 12.9 22 33.66-.2 46.38-11 6.3-25.39 9.44-39.79 9.44-14.67 0-29.36-3.27-40.53-9.78-22.13-12.89-22-33.66.19-46.37 11-6.3 25.39-9.44 39.79-9.44m0-1.79c-15.32 0-29.77 3.44-40.68 9.67-11.33 6.48-17.59 15.24-17.63 24.67s6.15 18.24 17.43 24.81c11.08 6.46 25.79 10 41.43 10 15.32 0 29.77-3.44 40.68-9.68 11.33-6.48 17.6-15.24 17.64-24.66s-6.15-18.24-17.43-24.81c-11.08-6.46-25.8-10-41.44-10z"/><path d="m200.6 1004.08c-14.85 0-29.71-3.29-41-9.86-11-6.41-17-14.94-17-24s6.14-17.57 17.18-23.89c22.45-12.84 58.88-12.68 81.22.34 11 6.41 17 14.94 17 24s-6.15 17.58-17.19 23.9-25.64 9.51-40.21 9.51zm-.6-65.55c-14.24 0-28.47 3.1-39.34 9.31-10.47 6-16.25 13.92-16.28 22.35s5.68 16.41 16.09 22.48c21.85 12.74 57.48 12.88 79.43.33 10.47-6 16.25-13.92 16.29-22.34s-5.69-16.41-16.1-22.48c-10.99-6.43-25.53-9.65-40.09-9.65z" opacity=".6"/><path d="m206.15 995.64a.9.9 0 0 1 -.05-1.79 91.35 91.35 0 0 0 15.59-2.2.88.88 0 0 1 1.07.66.9.9 0 0 1 -.67 1.08 93.73 93.73 0 0 1 -15.89 2.25zm-15.89-.4h-.1a90 90 0 0 1 -15.75-3.09.9.9 0 1 1 .5-1.72 86.67 86.67 0 0 0 15.44 3 .89.89 0 0 1 -.09 1.78zm46.64-7a.91.91 0 0 1 -.81-.51.89.89 0 0 1 .42-1.19c1.19-.58 2.35-1.19 3.47-1.83a42.2 42.2 0 0 0 9.29-7 .89.89 0 0 1 1.28 1.25 44.14 44.14 0 0 1 -9.68 7.33c-1.15.65-2.36 1.29-3.58 1.88a.92.92 0 0 1 -.39.04zm-76.9-2.24a.92.92 0 0 1 -.45-.12 40 40 0 0 1 -12.25-10.56.89.89 0 0 1 1.44-1.06 38.1 38.1 0 0 0 11.71 10.07.89.89 0 0 1 .33 1.22.9.9 0 0 1 -.78.45zm97-20.71h-.1a.9.9 0 0 1 -.79-1 17.38 17.38 0 0 0 .11-2 20.63 20.63 0 0 0 -4.22-12.29.9.9 0 1 1 1.45-1 22.35 22.35 0 0 1 4.64 13.31 21.11 21.11 0 0 1 -.12 2.23.89.89 0 0 1 -.97.74zm-113.37-4.51h-.1a.9.9 0 0 1 -.79-1c.55-5.07 3.09-10.07 7.34-14.44a.89.89 0 1 1 1.28 1.25c-4 4.08-6.33 8.71-6.84 13.39a.9.9 0 0 1 -.85.79zm97-20.74a.76.76 0 0 1 -.4-.11l-.13-.08a65.73 65.73 0 0 0 -14.41-6.08.9.9 0 0 1 .5-1.72 67.16 67.16 0 0 1 14.83 6.27 1 1 0 0 1 .37 1.25.87.87 0 0 1 -.71.43zm-76.92-2.21a.91.91 0 0 1 -.81-.51.89.89 0 0 1 .42-1.19 72.8 72.8 0 0 1 15.19-5.29.9.9 0 0 1 1.07.67.89.89 0 0 1 -.67 1.07 71.88 71.88 0 0 0 -14.81 5.16.92.92 0 0 1 -.34.08zm46.64-7.07h-.1a97.36 97.36 0 0 0 -15.75-.38.87.87 0 0 1 -.94-.84.9.9 0 0 1 .84-.95 99.8 99.8 0 0 1 16 .39.9.9 0 0 1 -.09 1.79z" opacity=".6"/></g></g><path d="m246.41 962.39a2.13 2.13 0 0 1 -1.07-4l202.16-116.71a2.13 2.13 0 0 1 2.13 3.69l-202.16 116.73a2.17 2.17 0 0 1 -1.06.29z" fill="#8c8b96"/><path d="m249 964.3a4.81 4.81 0 1 1 1.75-6.57 4.82 4.82 0 0 1 -1.75 6.57z" fill="#8c8b96"/><g opacity=".4"><path d="m988.48 576.17c-15.48 0-30-3.51-41-9.9s-17-14.94-17-24 6.14-17.58 17.19-23.89c10.77-6.16 25.06-9.56 40.23-9.56 15.48 0 30 3.52 41 9.9s17 14.94 17 24-6.14 17.58-17.18 23.89c-10.78 6.17-25.07 9.56-40.23 9.56z" fill="#d0d0d7"/><g fill="#7b7a86"><path d="m987.93 509.69c14.67 0 29.37 3.26 40.54 9.77 22.13 12.9 22 33.66-.2 46.38-11 6.29-25.39 9.43-39.79 9.43-14.67 0-29.36-3.26-40.53-9.77-22.13-12.9-22-33.66.19-46.37 11-6.3 25.39-9.44 39.79-9.44m0-1.79c-15.32 0-29.77 3.43-40.68 9.67-11.33 6.48-17.59 15.24-17.63 24.67s6.15 18.23 17.43 24.81c11.08 6.46 25.79 10 41.43 10 15.33 0 29.77-3.43 40.68-9.67 11.33-6.48 17.6-15.24 17.64-24.67s-6.15-18.23-17.43-24.81c-11.08-6.46-25.8-10-41.44-10z"/><path d="m988.52 567.82c-14.85 0-29.71-3.29-41-9.87-11-6.4-17-14.94-17-24s6.14-17.58 17.18-23.89c22.45-12.84 58.88-12.68 81.22.34 11 6.4 17 14.94 17 24s-6.14 17.58-17.19 23.89-25.64 9.53-40.21 9.53zm-.52-65.56c-14.25 0-28.48 3.11-39.35 9.32-10.47 6-16.25 13.92-16.28 22.35s5.68 16.41 16.09 22.48c21.85 12.73 57.48 12.88 79.44.33 10.46-6 16.24-13.92 16.28-22.35s-5.68-16.41-16.1-22.48c-11.08-6.42-25.6-9.65-40.08-9.65z" opacity=".6"/><path d="m994.07 559.37a.89.89 0 0 1 -.05-1.78 91.35 91.35 0 0 0 15.59-2.21.89.89 0 0 1 1.07.67.91.91 0 0 1 -.67 1.08 92.73 92.73 0 0 1 -15.89 2.24zm-15.89-.37h-.1a89.09 89.09 0 0 1 -15.75-3.1.89.89 0 1 1 .5-1.71 87.57 87.57 0 0 0 15.44 3 .91.91 0 0 1 .8 1 .9.9 0 0 1 -.89.81zm46.64-7a.91.91 0 0 1 -.81-.51.89.89 0 0 1 .42-1.19c1.19-.58 2.36-1.19 3.47-1.83a42.2 42.2 0 0 0 9.29-7 .89.89 0 0 1 1.28 1.25 44 44 0 0 1 -9.68 7.32c-1.15.66-2.35 1.29-3.58 1.89a.92.92 0 0 1 -.39.07zm-76.82-2.28a.82.82 0 0 1 -.45-.12 40.12 40.12 0 0 1 -12.25-10.55.9.9 0 0 1 1.45-1.06 38.07 38.07 0 0 0 11.7 10.07.89.89 0 0 1 .32 1.22.86.86 0 0 1 -.77.44zm97-20.7h-.1a.9.9 0 0 1 -.79-1 20 20 0 0 0 .11-2 20.6 20.6 0 0 0 -4.3-12.26.9.9 0 0 1 1.45-1 22.31 22.31 0 0 1 4.63 13.24 21.11 21.11 0 0 1 -.12 2.23.9.9 0 0 1 -.88.77zm-113.37-4.51h-.1a.88.88 0 0 1 -.79-1c.55-5.07 3.09-10.07 7.34-14.44a.89.89 0 1 1 1.28 1.25c-4 4.08-6.33 8.71-6.84 13.38a.9.9 0 0 1 -.93.81zm97-20.74a.87.87 0 0 1 -.41-.11l-.11-.07a65.64 65.64 0 0 0 -14.43-6.09.9.9 0 0 1 .51-1.72 67.07 67.07 0 0 1 14.82 6.27 1 1 0 0 1 .37 1.25.89.89 0 0 1 -.77.47zm-76.93-2.22a.89.89 0 0 1 -.39-1.7 73.37 73.37 0 0 1 15.19-5.28.89.89 0 0 1 .41 1.74 71.18 71.18 0 0 0 -14.82 5.15.8.8 0 0 1 -.41.09zm46.64-7.07h-.1a97.36 97.36 0 0 0 -15.75-.38.9.9 0 0 1 -.1-1.79 99.77 99.77 0 0 1 16 .39.89.89 0 0 1 -.09 1.78z" opacity=".6"/></g></g><path d="m740 680a2.13 2.13 0 0 1 -1.07-4l202.16-116.68a2.13 2.13 0 0 1 2.13 3.69l-202.16 116.73a2.17 2.17 0 0 1 -1.06.26z" fill="#8c8b96"/><path d="m939.55 557.12a4.81 4.81 0 1 1 -1.76 6.57 4.81 4.81 0 0 1 1.76-6.57z" fill="#8c8b96"/><path d="m320 477.58-1.79-68.51c-.24-8.82-6.41-19.28-14-23.64l-97.01-55.33-96.62-56.5c-7-4-12.78-1-13.08 6.89l-2.81 75 .65 75.51c.07 7.92 5.56 18.22 12.41 22.23l197.39 114c7.54 4.36 13.7.93 13.83-7.67l1-66q.25-7.88.03-15.98z" fill="#0b0a12"/><path d="m300.2 388.64c7.41 4.27 13.45 14.52 13.69 23.17l1.75 67.19q.21 7.94 0 15.62l-1 64.74c-.12 8.43-6.16 11.78-13.55 7.52l-193.51-111.76c-6.71-3.93-12.1-14-12.16-21.78l-.64-74.07 2.76-73.5c.29-7.73 5.95-10.71 12.82-6.74l94.7 55.37z" fill="#3d4641"/><path d="m296.69 393.38c7.16 4.13 13 13.75 13.23 21.74l1.52 69.35-.8 67c-.12 7.8-6 10.74-13.11 6.62l-92.33-53.33-94.53-54.58c-6.49-3.79-11.71-13.27-11.78-20.45l.16-67.89 1.87-68.42c.29-7.13 5.75-9.75 12.39-5.92l91.48 53.5z" fill="#0b0a12"/><path d="m252.86 372.01-.44 157.08-.01 1.93-147.8-85.45-5.11-15.34 1.97-133.65 3.6-9.9z" fill="#0b0a12"/><path d="m295.84 396.82c8.38 4.84 11.05 10.09 11.41 20.58l1.52 66.43-.77 64.23c-.13 7.29-2.46 12.2-11.95 6.72l-.79-.47-42.85-25.22.44-156.78 41.91 23.91z" fill="#3d4641"/><path d="m214.59 355.33a.61.61 0 0 1 .27.46c0 .18-.12.25-.28.16a.61.61 0 0 1 -.27-.47c0-.17.12-.24.28-.15zm0 .55c.12.07.23 0 .23-.12a.49.49 0 0 0 -.22-.36c-.12-.07-.23 0-.23.11a.47.47 0 0 0 .22.37" fill="#005f9e"/><path d="m214.32 354.29v.19l-1.32-.76a1 1 0 0 0 .35.86c.2.11.36.05.41-.15l.52.53c0 .11-.27.61-1 .2a2.42 2.42 0 0 1 -1.09-2.1c0-.8.37-1.27 1.09-.84a2.31 2.31 0 0 1 1.04 2.07zm-1.32-1.11.58.34a.77.77 0 0 0 -.3-.74c-.22-.13-.28.14-.28.4" fill="#005f9e"/><path d="m213.29 352.78a.77.77 0 0 1 .3.74l-.58-.34c-.01-.26.06-.53.28-.4z" fill="#f7c24a"/><path d="m210.17 350.49a2.19 2.19 0 0 1 .84 1.93c0 .64-.24 1.34-.9.95a1.66 1.66 0 0 1 -.66-.82l-.15.32-.41-.23v-4l.79.46v1.33a.56.56 0 0 1 .49.06zm0 1.59v-.21c0-.56 0-.86-.24-1a.28.28 0 0 0 -.23 0v1.3a.56.56 0 0 0 .25.52c.22.12.25-.12.25-.63" fill="#005f9e"/><path d="m210 350.87c.24.14.24.44.24 1v.21c0 .51 0 .75-.25.63a.56.56 0 0 1 -.25-.52v-1.3a.28.28 0 0 1 .26-.02zm-10.24-4.03a.5.5 0 0 1 .23.37c0 .14-.11.19-.23.12a.47.47 0 0 1 -.22-.38c0-.13.1-.18.22-.11zm.14.49-.09-.21h.1v-.1l-.07-.06-.14-.08v.34h.05v-.16l.09.2h.05" fill="#f7c24a"/><path d="m199.87 347v.1h-.1l.09.21h-.05l-.09-.2v.16h-.05v-.34l.14.08zm-.11.06h.1l-.07-.1h-.08v.1" fill="#005f9e"/><path d="m199.71 346.92.08.04.07.1-.11-.01-.04-.03z" fill="#f7c24a"/><path d="m204.13 347v.92a1.5 1.5 0 0 0 -.33-.26c-.25-.15-.34-.13-.43 0v1.82l-.78-.45v-2.81l.77.45v.42c.11-.33.46-.27.77-.09zm1 .65-.01 2.8-.8-.45.01-2.81zm2.96 1.64a1.06 1.06 0 0 1 .55.91v2.28l-.79-.45v-2a.38.38 0 0 0 -.18-.36.18.18 0 0 0 -.21 0v2.05l-.79-.45v-2a.39.39 0 0 0 -.19-.36.2.2 0 0 0 -.21 0v2.1l-.79-.45v-2.76l.79.46v.37a.54.54 0 0 1 .71 0 1 1 0 0 1 .49.73.54.54 0 0 1 .62-.07zm3.92 1.16-.01 3.98-.78-.45.01-3.99zm-6.88-4v.81l-.8-.45.01-.81z" fill="#005f9e"/><path d="m202.94 345.19-.01.77-.78-.45-.01 3.23-.88-.51.01-3.23-.79-.45.01-.78zm-6.54-2.97v.51a1.05 1.05 0 0 0 -.11.39v.49a3.34 3.34 0 0 0 .09.43v.57a2.05 2.05 0 0 1 -.16-.41 3.72 3.72 0 0 1 -.13-.58 2.18 2.18 0 0 1 0-.35v-.21a1.31 1.31 0 0 1 .18-.54.74.74 0 0 1 .13-.3zm3.03 2.32 1 1.25h-1.07a2.11 2.11 0 0 0 .07-1.25z" fill="#005f9e"/><path d="m199.39 345.83-.07.17a.91.91 0 0 1 -.41.35 1 1 0 0 1 -.63 0 1.4 1.4 0 0 1 -.5-.2 3.2 3.2 0 0 1 -.37-.26h.34a1.64 1.64 0 0 0 .47.2.82.82 0 0 0 .54 0h.07v-.14zm-1.8-3.04a4.21 4.21 0 0 1 .4.54 2.46 2.46 0 0 0 -.47 0 .52.52 0 0 1 0-.46z" fill="#005f9e"/><path d="m198 342.84a1.71 1.71 0 0 1 .6.67l-.11-.06-.52-.62z" fill="#f7c24a"/><path d="m196.84 343.93a3.79 3.79 0 0 0 1.37 1.57l.22.11a1.12 1.12 0 0 0 .48.09v.16l-1.14.05a3.77 3.77 0 0 1 -.4-.3 3.22 3.22 0 0 1 -.71-.95l-.08-.15v-.18a.72.72 0 0 1 .26-.4zm2.16.14.06.07v.22a1 1 0 0 1 -.07.85l-.05.06a5.88 5.88 0 0 0 -.19-.65l.07-.07a.66.66 0 0 0 .18-.48zm-1.9-1.7a1.17 1.17 0 0 1 .27.2.78.78 0 0 0 -.06.67v.11a1.33 1.33 0 0 0 -.46.17l-.06-.2a1.9 1.9 0 0 1 -.07-.44.82.82 0 0 1 .13-.44l.17-.13zm1.09 1.26a7.48 7.48 0 0 1 .39.81l-.2-.05-.11-.05a1.89 1.89 0 0 1 -.64-.72h.56z" fill="#005f9e"/><path d="m196.45 342.64v.09-.51a.8.8 0 0 1 .5-.23 1.17 1.17 0 0 1 .43 0l.32.37h-.06l-.22-.07.18.16h.15l.3.36h-.2a4.36 4.36 0 0 1 .44.61l.28.08.51.62a.66.66 0 0 1 -.08.52l-.07.07a5.88 5.88 0 0 1 .19.65l.05-.06a1 1 0 0 0 .07-.85v-.22l.34.4a2.11 2.11 0 0 1 0 1.29h-.5v-.16a1.1 1.1 0 0 1 -.48-.09l-.22-.11a3.79 3.79 0 0 1 -1.37-1.57.72.72 0 0 0 -.28.4v.18l.08.15a3.22 3.22 0 0 0 .71.95 3.77 3.77 0 0 0 .4.3h-.34l-.12-.11a3.58 3.58 0 0 1 -.82-1.09l-.07-.14v-.63a.94.94 0 0 1 .3-.39 1.8 1.8 0 0 1 -.1-.33 1.78 1.78 0 0 1 0-.81zm1 1a1.58 1.58 0 0 0 -.46.18 3.38 3.38 0 0 0 1.23 1.42l.18.09a.84.84 0 0 0 .48.06 4.32 4.32 0 0 0 -.18-.68.63.63 0 0 1 -.29-.06.38.38 0 0 1 -.13-.06 2.29 2.29 0 0 1 -.83-1m-.58-1.19a.82.82 0 0 0 -.13.44 1.9 1.9 0 0 0 .07.44l.06.2a1.33 1.33 0 0 1 .46-.17v-.11a.78.78 0 0 1 .06-.67 1.17 1.17 0 0 0 -.27-.2h-.06l-.17.13m1.32 1.17h-.56a1.89 1.89 0 0 0 .64.72l.11.05.2.05a7.48 7.48 0 0 0 -.39-.81m-.64-.79a.52.52 0 0 0 0 .46 2.46 2.46 0 0 1 .47 0 4.21 4.21 0 0 0 -.4-.54m1.17 1a1.48 1.48 0 0 0 -.29-.12c.12.23.23.45.32.67a.53.53 0 0 0 0-.46h-.06m.48 1.8h-.08v.09l.07-.14" fill="#f7c24a"/><path d="m197.45 343.65a2.29 2.29 0 0 0 .83 1 .38.38 0 0 0 .13.06.63.63 0 0 0 .29.06 4.32 4.32 0 0 1 .18.68.84.84 0 0 1 -.48-.06l-.18-.09a3.38 3.38 0 0 1 -1.23-1.42 1.92 1.92 0 0 1 .46-.23zm.31-1.45.14.09a3.19 3.19 0 0 1 .92.94 3.54 3.54 0 0 1 .52 1.12v.13l-.34-.4-.06-.09-.51-.62.12.06a1.82 1.82 0 0 0 -.61-.67l-.3-.36h.12-.14l-.32-.37h.21z" fill="#005f9e"/><path d="m214.53 355.47.08.05.07.1-.1-.02-.05-.03z" fill="#f7c24a"/><path d="m214.59 355.4a.49.49 0 0 1 .22.36c0 .15-.11.19-.23.12a.47.47 0 0 1 -.22-.37c0-.13.11-.18.23-.11zm.13.49-.09-.21h.1v-.09l-.07-.06-.14-.08v.34h.05v-.16h.06l.08.21h.05" fill="#f7c24a"/><path d="m307.54 416.82c-.36-10.49-3-15.74-11.41-20.58l-1.07-.6c-.22-.11-84.69-48.33-89.13-50.87l-92.57-53.77c-6.42-3.71-9.46.81-9.73 7.65l-2.2 64.18.21 65.8c-.22 8 3.55 15.17 9.82 18.83l94.7 54.68 89.41 51.61.78.47c9.49 5.48 11.83.58 11.95-6.72l.77-64.23zm-1.33 129.43c-.13 7.91-3 9.51-9.85 5.55l-.79-.47-89.4-51.61-94.69-54.67a15 15 0 0 1 -5.55-5.62 18.44 18.44 0 0 1 -2.2-9.62l-.21-65.76 2.2-64.11c.1-2.52.94-10.43 7.63-6.57l74.35 43 8.71 4.58.7.85 25.89 15.14 72.08 41.14 1 .56c7.08 4.09 9 7.6 9.32 17.05l1.6 66.38-.77 64.18" fill="#f7c24a"/><path d="m197 345.51a3.5 3.5 0 0 1 -.52-.78v-.14 1.41h1l-.12-.11a2.91 2.91 0 0 1 -.36-.38z" fill="#005f9e"/><path d="m196.29 343.12a1.05 1.05 0 0 1 .11-.39v1.27a3.34 3.34 0 0 1 -.09-.43v-.32z" fill="#f7c24a"/><path d="m196.55 342.49a1.78 1.78 0 0 0 0 .81 1.8 1.8 0 0 0 .1.33.94.94 0 0 0 -.3.39v-1.38z" fill="#005f9e"/><path d="m198.76 346.08a.82.82 0 0 1 -.54 0 1.64 1.64 0 0 1 -.47-.2l1.14-.05v.14z" fill="#f7c24a"/><path d="m197.11 341.76 26.12 15.08-.19.1-5.85 3.13a1.1 1.1 0 0 1 -1.05-.12l-21.47-12.39a3.66 3.66 0 0 1 -1.25-1.33l-5.5-9.52-.22-.38 8.7 5v.87a.74.74 0 0 0 -.15.19 1.31 1.31 0 0 0 -.18.54v.21a2.18 2.18 0 0 0 0 .35 3.72 3.72 0 0 0 .13.58 2.05 2.05 0 0 0 .16.41v1.47h1a3.2 3.2 0 0 0 .37.26 1.63 1.63 0 0 0 .5.2 1 1 0 0 0 .63 0 .91.91 0 0 0 .41-.35l.07-.17h1.07l-1-1.25a3.89 3.89 0 0 0 -.56-1.25 3.21 3.21 0 0 0 -.94-1l-.17-.11a1.21 1.21 0 0 0 -.2-.09l-.14-.06h-.09zm5 7v-3.23l.78.45v-.77l-2.45-1.42v.78l.79.45v3.23zm6.49 3.74v-2.3a1.06 1.06 0 0 0 -.55-.91.52.52 0 0 0 -.7 0 1.05 1.05 0 0 0 -.5-.73.52.52 0 0 0 -.7 0v-.37l-.79-.46v2.81l.79.45v-2.04a.2.2 0 0 1 .21 0 .39.39 0 0 1 .19.36v2l.79.45v-2.05a.18.18 0 0 1 .21 0 .38.38 0 0 1 .18.36v2l.79.45m1.48.89c.66.39.9-.31.9-.95a2.19 2.19 0 0 0 -.84-1.93.5.5 0 0 0 -.47 0v-1.34l-.79-.46v4l.41.23.15-.32a1.66 1.66 0 0 0 .66.82m3.19 1.79c.71.41.95-.09 1-.2l-.52-.53c0 .2-.21.26-.41.15a1 1 0 0 1 -.35-.86l1.32.76v-.19a2.31 2.31 0 0 0 -1-2.07c-.72-.43-1.09 0-1.09.84a2.42 2.42 0 0 0 1.09 2.1m-9.17-7.24v-1.01c-.31-.18-.66-.24-.76.06v-.42l-.77-.45v2.81l.78.45v-1.82c.09-.09.18-.11.43 0a1.5 1.5 0 0 1 .33.26m7.87 6.51v-4l-.78-.46v4l.78.45m-6.88-4v-2.8l-.79-.46v2.87l.8.45m0-3.19v-.81l-.79-.45v.81l.8.45m9.45 8.69c.16.09.28 0 .28-.16a.61.61 0 0 0 -.27-.46c-.16-.09-.28 0-.28.15a.61.61 0 0 0 .27.47m-14.82-8.56c.15.09.27 0 .28-.16a.59.59 0 0 0 -.28-.46c-.15-.08-.27 0-.27.15a.59.59 0 0 0 .27.47" fill="#f7c24a"/><path d="m188.41 336.74 7.99 5.48.93-1.31z" fill="#f7c24a"/><path d="m199.76 346.77a.59.59 0 0 1 .28.46c0 .18-.13.25-.28.16a.59.59 0 0 1 -.27-.47c0-.16.12-.23.27-.15zm0 .56c.12.07.23 0 .23-.12a.5.5 0 0 0 -.23-.37c-.12-.07-.22 0-.22.11a.47.47 0 0 0 .22.38m-.56-1.73-.07.14-.01-.09zm-2.79-4.69.7.85.22.27a1.17 1.17 0 0 0 -.43 0 .8.8 0 0 0 -.5.23v-1.31zm1.24 1.49.05.07h-.15l-.18-.16.22.07.01.01z" fill="#005f9e"/><path d="m197.75 342.45.07.04-.12-.02-.05-.07.07.03z" fill="#f7c24a"/><path d="m198 342.83.52.62-.28-.08a4.36 4.36 0 0 0 -.44-.61h.12zm.72.97h.06a.53.53 0 0 1 0 .46c-.09-.22-.2-.44-.32-.67a1.48 1.48 0 0 1 .26.21z" fill="#005f9e"/><path d="m199.03 344.07v-.02l.06.09z" fill="#f7c24a"/><path d="m214.69 355.55v.09h-.1l.09.21h-.05l-.08-.21h-.06v.16h-.05v-.34l.14.08zm-.11.05h.1l-.07-.1h-.08v.11h.05" fill="#005f9e"/><path d="m307.54 416.82 1.53 66.43-.77 64.23c-.12 7.3-2.46 12.2-11.95 6.72l-.78-.47-89.41-51.61-94.7-54.68c-6.27-3.66-10-10.81-9.82-18.83l-.21-65.8 2.2-64.18c.27-6.84 3.31-11.36 9.73-7.65l92.57 53.79c4.44 2.54 88.91 50.76 89.13 50.87l1.07.6c8.38 4.84 11.05 10.09 11.41 20.58zm.62 130.58.78-64.23-1.53-66.42c-.37-10.69-3.11-15.63-11.28-20.35-.35-.21-.7-.41-1.07-.6l-89.13-50.88-92.57-53.8c-6.71-3.87-9.36 1.38-9.6 7.6l-2.2 64.17.21 65.79a22.18 22.18 0 0 0 2.75 11.5 19 19 0 0 0 6.94 7.11l94.7 54.71 89.41 51.62.78.46c7.92 4.57 11.67 2.46 11.81-6.65" fill="#212121"/><path d="m310 415.16 1.53 69.34-.8 67c-.06 3.79-1.47 6.57-4 7.82s-5.75.82-9.22-1.18l-186.84-107.89c-6.35-3.7-11.78-13.12-11.84-20.56l.17-67.89 1.87-68.42c.28-7.2 5.75-9.82 12.45-5.95l91.48 53.46 91.9 52.41a27.35 27.35 0 0 1 9.26 9.48 26 26 0 0 1 4.04 12.38zm.59 136.25.81-67-1.54-69.35a25.6 25.6 0 0 0 -4-12.24 27 27 0 0 0 -9.17-9.38l-91.9-52.44-91.48-53.46c-6.63-3.82-12-1.25-12.32 5.88l-1.87 68.43-.12 67.92c.07 7.35 5.43 16.67 11.71 20.33l186.78 107.9c3.48 2 6.72 2.42 9.17 1.19s3.85-4 3.91-7.75" fill="#212121"/><path d="m269.75 399.54a4.49 4.49 0 0 0 -.75 2.68v15.78a11.76 11.76 0 0 0 5.32 9.22l13.68 7.88c1.61.93 3.06.94 4 .2-.94 1.26-2.65 1.48-4.59.36l-13.71-7.92a11.76 11.76 0 0 1 -5.31-9.21v-15.76a4 4 0 0 1 1.36-3.23z" fill="#0b0a12"/><path d="m284.55 413.68a2.9 2.9 0 0 1 1.33 2.3v7.74c0 .84-.6 1.19-1.34.76l-6.73-3.88a3 3 0 0 1 -1.33-2.31v-7.74c0-.84.61-1.18 1.34-.76zm-1.1 6.38v-3.21a2 2 0 0 0 -.88-1.53l-2.8-1.62c-.49-.28-.89-.05-.89.51v3.21a2 2 0 0 0 .89 1.53l2.79 1.62c.49.28.89.05.89-.51" fill="#363545"/><path d="m281.21 406.54 1.61 2.79-3.24-1.86z" fill="#f3f3f7"/><path d="m284.55 412.65a4.89 4.89 0 0 1 2.22 3.85v7.73c0 1.41-1 2-2.23 1.27l-6.73-3.88a4.92 4.92 0 0 1 -2.22-3.85v-7.73c0-1.41 1-2 2.23-1.27zm1.31 11.07v-7.74a2.9 2.9 0 0 0 -1.33-2.3l-6.73-3.89c-.73-.42-1.34-.08-1.34.76v7.74a3 3 0 0 0 1.33 2.31l6.73 3.88c.74.43 1.34.08 1.34-.76" fill="#0b0a12"/><path d="m282.58 415.32a2 2 0 0 1 .88 1.53v3.21c0 .56-.4.79-.89.51l-2.8-1.57a2 2 0 0 1 -.89-1.54v-3.21c0-.56.4-.79.89-.51zm6.2 4.34 1.61 2.81-1.62.92zm-15.21-8.78v3.73l-1.62-2.8zm9.2 15.92-1.63.93-1.61-2.79z" fill="#f3f3f7"/><path d="m288.07 407.08a11.79 11.79 0 0 1 5.32 9.22l-.05 15.75a3.9 3.9 0 0 1 -1.34 3.25c-1 .74-2.44.73-4-.2l-13.71-7.91a11.76 11.76 0 0 1 -5.29-9.19v-15.75a4.49 4.49 0 0 1 .75-2.68c.93-1.27 2.65-1.5 4.61-.37zm-1.32 17.15v-7.73a4.89 4.89 0 0 0 -2.22-3.85l-6.73-3.88c-1.22-.71-2.22-.14-2.23 1.27v7.73a4.92 4.92 0 0 0 2.22 3.85l6.73 3.88c1.22.71 2.23.14 2.23-1.27m-14.75-12.42 1.62 2.8v-3.73zm9.25-5.27-1.63.93 3.25 1.86zm-.06 21.19 1.63-.93-3.25-1.86zm7.63-4.34 1.62-.93-1.62-2.8z" fill="#363545"/><path d="m289.75 493.67a7.5 7.5 0 0 1 3.4 5.87v.85a2.23 2.23 0 0 1 -1.27 2.3 2.59 2.59 0 0 1 -2.15-.36l-8.85-5.11-8.88-5.11a7.52 7.52 0 0 1 -3.4-5.87v-.85a2.48 2.48 0 0 1 .84-2.07 2.31 2.31 0 0 1 2.58.13l8.84 5.11zm-9.31 1.7c1.11.65 2 .13 2-1.15a4.36 4.36 0 0 0 -1-2.59l-.16.22a3.66 3.66 0 0 1 .86 2.19c0 1.09-.77 1.52-1.71 1a3.74 3.74 0 0 1 -1.69-2.94c0-.65.28-1.09.76-1.19l-.18-.39c-.56.11-.89.63-.89 1.4a4.4 4.4 0 0 0 2 3.47m-.14-5.21v2l.31.18v-2z" fill="#72a544"/><path d="m280.62 490.35-.01 1.98-.31-.18v-1.98z" fill="#f3f3f7"/><path d="m281.45 491.63a4.38 4.38 0 0 1 1 2.59c0 1.28-.91 1.8-2 1.16a4.43 4.43 0 0 1 -2-3.48c0-.76.33-1.29.89-1.4l.18.39c-.48.1-.76.55-.76 1.19a3.77 3.77 0 0 0 1.69 2.94c.94.54 1.71.11 1.71-1a3.66 3.66 0 0 0 -.86-2.19z" fill="#f3f3f7"/><path d="m269.48 483.32a2.48 2.48 0 0 0 -.84 2.07v.85a7.56 7.56 0 0 0 3.4 5.88l8.85 5.1 8.85 5.11a2.59 2.59 0 0 0 2.15.36 2.28 2.28 0 0 1 -2.59-.12l-8.86-5.11-8.85-5.11a7.53 7.53 0 0 1 -3.39-5.88v-.84a2.22 2.22 0 0 1 1.28-2.31z" fill="#0b0a12"/><path d="m281.67 477.94a1.92 1.92 0 0 1 .88 1.54v1.68c0 .56-.4.79-.89.51l-1.47-.84a2 2 0 0 1 -.88-1.54v-1.68c0-.57.4-.8.89-.52zm-6.44-16.55v.26l-1.26-.73v1l1.17.67v.26l-1.17-.68v1.37l-.25-.14.01-2.88z" fill="#f3f3f7"/><path d="m269.52 469.81a2.47 2.47 0 0 0 -.84 2.08v.84a7.56 7.56 0 0 0 3.4 5.88l8.84 5.1 8.86 5.11a2.57 2.57 0 0 0 2.14.36 2.28 2.28 0 0 1 -2.59-.12l-8.86-5.06-8.85-5.11a7.53 7.53 0 0 1 -3.39-5.88v-.83a2.24 2.24 0 0 1 1.29-2.37z" fill="#0b0a12"/><path d="m276.35 462a1.86 1.86 0 0 1 .28.21 2 2 0 0 1 .23.28 1.33 1.33 0 0 1 .16.34 1.15 1.15 0 0 1 .06.37.43.43 0 0 1 -.12.35.32.32 0 0 1 -.32.05 1.33 1.33 0 0 1 .36.45 1.09 1.09 0 0 1 .15.56 1 1 0 0 1 -.07.33.38.38 0 0 1 -.43.19.9.9 0 0 1 -.32-.12 1.62 1.62 0 0 1 -.48-.43 2.4 2.4 0 0 1 -.31-.62h.24a1.22 1.22 0 0 0 .22.44 1.14 1.14 0 0 0 .34.32l.2.07h.18l.12-.12a.49.49 0 0 0 .05-.23.81.81 0 0 0 -.06-.31l-.14-.27-.21-.21a1.18 1.18 0 0 0 -.24-.17l-.11-.07v-.25l.11.07a1.46 1.46 0 0 0 .23.1h.18l.13-.09a.4.4 0 0 0 .05-.22v-.24l-.11-.23-.16-.21-.19-.14a.48.48 0 0 0 -.28-.08.25.25 0 0 0 -.2.14l-.21-.26a.37.37 0 0 1 .29-.17.87.87 0 0 1 .38.17z" fill="#f3f3f7"/><path d="m289.79 480.16a7.53 7.53 0 0 1 3.4 5.88v.84a2.22 2.22 0 0 1 -1.28 2.3 2.57 2.57 0 0 1 -2.14-.36l-8.86-5.11-8.84-5.11a7.52 7.52 0 0 1 -3.4-5.87v-.84a2.51 2.51 0 0 1 .85-2.08 2.29 2.29 0 0 1 2.57.13l8.85 5.11zm-7.24 1v-1.68a2 2 0 0 0 -.88-1.54l-1.47-.85c-.49-.29-.89 0-.89.52v1.68a2 2 0 0 0 .88 1.53l1.47.85c.49.28.89.05.89-.51m-10.06-24.52 8.27 4.77v8.67l-8.27-4.78a8.3 8.3 0 0 1 -3.76-6.51c0-1.42.61-2.33 1.54-2.59a3 3 0 0 1 2.22.44zm4.59 8.27a.81.81 0 0 0 .06-.33 1 1 0 0 0 -.14-.58 1.39 1.39 0 0 0 -.36-.44.3.3 0 0 0 .31-.05.43.43 0 0 0 .13-.36 1.13 1.13 0 0 0 -.06-.36 1.33 1.33 0 0 0 -.16-.34 1.56 1.56 0 0 0 -.23-.28 1.86 1.86 0 0 0 -.28-.21.87.87 0 0 0 -.42-.13.37.37 0 0 0 -.29.17l.21.25a.25.25 0 0 1 .2-.13.48.48 0 0 1 .28.08l.19.14.16.21.11.23v.24a.42.42 0 0 1 -.05.22l-.13.09h-.18l-.23-.1-.11-.07v.25l.11.06.24.18.21.21.14.27a.81.81 0 0 1 .06.31.49.49 0 0 1 -.05.23l-.12.12h-.18l-.21-.08a1 1 0 0 1 -.33-.31 1.22 1.22 0 0 1 -.22-.44h-.24a2.12 2.12 0 0 0 .31.62 1.62 1.62 0 0 0 .48.43 1.15 1.15 0 0 0 .32.12.42.42 0 0 0 .25 0 .48.48 0 0 0 .18-.17m-1.85-3.26v-.26l-1.51-.87v2.88l.24.14v-1.37l1.17.68v-.26l-1.17-.68v-1l1.26.73" fill="#363545"/><path d="m281.2 461.67-.02 8.66-.23-.13-.21-.12.02-8.67z" fill="#0b0a12"/><path d="m289.47 466.44a8.35 8.35 0 0 1 3.76 6.51 2.86 2.86 0 0 1 -.82 2.2 2.49 2.49 0 0 1 -3 0l-8.26-4.77v-8.66zm-.72 4.67v-.26l-.37-.21v-1.92l-.33-.19-1.05 1.28v.28l1.15.67v.7l.24.14v-.7l.37.21m-2-3.11v-.25l-1.52-.88v2.88l.25.15v-1.36l1.16.67v-.21l-1.16-.68v-1l1.26.72" fill="#363545"/><path d="m286.71 467.75v.26l-1.26-.73v.99l1.17.68v.26l-1.17-.67-.01 1.36-.25-.15v-2.87z" fill="#f3f3f7"/><path d="m270.29 442.69c-.93.26-1.54 1.18-1.54 2.6a8.27 8.27 0 0 0 3.76 6.5l8.48 4.9 8.49 4.91a2.48 2.48 0 0 0 3 0c-.57.95-1.73 1.17-3.05.41l-8.85-5.12-8.85-5.11a7.5 7.5 0 0 1 -3.39-5.88v-.83c-.03-1.53.79-2.42 1.95-2.38z" fill="#0b0a12"/><path d="m272.53 443.13 8.27 4.77v8.67l-8.26-4.78a8.27 8.27 0 0 1 -3.76-6.5c0-1.43.61-2.34 1.54-2.6a3 3 0 0 1 2.21.44zm2.79 4.77v-.26l-1.51-.87v2.88l.26.15v-1.36l1.16.67v-.27l-1.17-.67v-1l1.25.72m1.4 3.44v-2.88l-.22-.13-.64.23.15.29.46-.18v2.52z" fill="#363545"/><path d="m275.32 447.65v.25l-1.25-.72-.01.99 1.17.67v.27l-1.17-.67v1.36l-.26-.15.01-2.88z" fill="#f3f3f7"/><path d="m287.25 469.99.89-1.08h.01l-.01 1.59z" fill="#363545"/><path d="m288.38 470.64.37.21v.26l-.37-.21v.7l-.24-.14v-.7l-1.15-.67v-.28l1.07-1.28.33.19zm-.24-.14v-1.59l-.89 1.08zm-11.41-22.04v2.88l-.26-.15.01-2.52-.46.18-.15-.29.64-.23z" fill="#f3f3f7"/><path d="m270.25 456.2c-.93.26-1.53 1.18-1.54 2.6a8.32 8.32 0 0 0 3.76 6.5l8.48 4.9 8.49 4.9a2.47 2.47 0 0 0 3 0c-.57 1-1.72 1.17-3.05.4l-8.85-5.11-8.85-5.11a7.5 7.5 0 0 1 -3.39-5.88v-.83c-.02-1.52.79-2.41 1.95-2.37zm10.99-8.04-.03 8.66-.22-.13-.22-.12.03-8.67z" fill="#0b0a12"/><path d="m289.51 452.93a8.32 8.32 0 0 1 3.75 6.51 2.82 2.82 0 0 1 -.81 2.2 2.47 2.47 0 0 1 -3-.05l-8.27-4.77v-8.66zm-1.26 5.1v-.27l-1.32-.76.9-.51.16-.1.13-.12.09-.18a.75.75 0 0 0 0-.23 1.21 1.21 0 0 0 -.06-.38 1.19 1.19 0 0 0 -.16-.34 1.76 1.76 0 0 0 -.24-.3 1.94 1.94 0 0 0 -.29-.21.9.9 0 0 0 -.27-.1.59.59 0 0 0 -.23 0l-.17.14a.41.41 0 0 0 -.1.22l.26.2a.35.35 0 0 1 .17-.27.41.41 0 0 1 .34.06l.19.15.16.2.1.23v.43l-.07.14-.09.1-.11.07-1 .6v.31l1.59.92m-1.91-3.73v-.3l-1.52-.87v2.88l.25.14v-1.36l1.16.68v-.27l-1.17-.68v-1l1.26.73" fill="#363545"/><path d="m286.34 454.04v.26l-1.26-.73v1l1.17.67v.27l-1.17-.68-.01 1.36-.25-.14v-2.88zm1.15.59a3.06 3.06 0 0 1 .29.21 2.25 2.25 0 0 1 .24.3 1.5 1.5 0 0 1 .16.34 1 1 0 0 1 .06.38.88.88 0 0 1 0 .24l-.09.17-.13.12-.16.11-.9.5 1.32.76v.24l-1.59-.92v-.31l1-.6.11-.07.1-.1.06-.14v-.42l-.1-.24-.16-.2-.19-.15a.41.41 0 0 0 -.34-.06.35.35 0 0 0 -.17.27l-.26-.2a.45.45 0 0 1 .1-.22l.17-.14a.59.59 0 0 1 .23 0 .9.9 0 0 1 .25.13z" fill="#f3f3f7"/><path d="m268.14 506.45a.75.75 0 0 1 .34.6v9.29c0 .22-.15.31-.34.19a.76.76 0 0 1 -.35-.59v-9.29c-.01-.23.15-.31.35-.2zm24.95 14.4a.77.77 0 0 1 .34.61v9.29c0 .22-.16.3-.35.19a.77.77 0 0 1 -.35-.6v-9.29c.01-.23.17-.31.36-.2zm-21.39-12.35a.78.78 0 0 1 .35.61v9.29c0 .22-.16.3-.35.19a.75.75 0 0 1 -.34-.59v-9.29c-.01-.23.15-.32.34-.21zm3.57 2.06a.77.77 0 0 1 .34.61v9.28c0 .23-.15.31-.34.2a.77.77 0 0 1 -.35-.6v-9.29c-.01-.23.16-.31.35-.2zm3.56 2.06a.78.78 0 0 1 .35.61v9.29c0 .22-.16.3-.35.19a.76.76 0 0 1 -.34-.6v-9.28c-.01-.23.15-.32.34-.21zm3.57 2.06a.75.75 0 0 1 .34.6v9.29c0 .22-.15.31-.34.2a.76.76 0 0 1 -.35-.6v-9.29c0-.23.15-.32.35-.2zm3.6 2.06a.76.76 0 0 1 .35.6v9.29c0 .22-.16.31-.35.19a.76.76 0 0 1 -.35-.59v-9.29c-.04-.23.12-.31.35-.2zm3.52 2.05a.77.77 0 0 1 .35.61v9.29c0 .22-.16.31-.36.19a.75.75 0 0 1 -.34-.59v-9.29c.01-.23.16-.32.35-.21z" fill="#0b0a12"/><path d="m238.69 389.14-.32 112.93-124.7-71.99.32-112.94z" fill="#009ad9"/><path d="m239.08 503.3-126.08-72.82.33-114.56 126.07 72.81zm-124.69-73.63 123.28 71.17.33-111.29-123.3-71.18z" fill="#009ad9"/><path d="m970.14 356.14v179.29c0 2.8 1.85 5.61 5.55 7.74 7.41 4.28 19.42 4.28 26.83 0 3.71-2.13 5.56-4.94 5.56-7.74v-179.29z" fill="#6a6976"/><g clip-path="url(#a)"><path d="m1007.35 356.14h.73v191.31h-.73z" fill="#f3f3f7"/><path d="m1006.63 356.14h.73v191.31h-.73z" fill="#f3f3f7"/><path d="m1005.9 356.14h.73v191.31h-.73z" fill="#f2f2f6"/><path d="m1005.18 356.14h.73v191.31h-.73z" fill="#f2f2f6"/><path d="m1004.45 356.14h.73v191.31h-.73z" fill="#f1f1f5"/><path d="m1003.73 356.14h.73v191.31h-.73z" fill="#f1f1f5"/><path d="m1003 356.14h.73v191.31h-.73z" fill="#f0f0f4"/><path d="m1002.28 356.14h.73v191.31h-.73z" fill="#efeff4"/><path d="m1001.55 356.14h.73v191.31h-.73z" fill="#efeff3"/><path d="m1000.82 356.14h.73v191.31h-.73z" fill="#eeeef2"/><path d="m1000.1 356.14h.73v191.31h-.73z" fill="#ededf1"/><path d="m999.37 356.14h.73v191.31h-.73z" fill="#ececf1"/><path d="m998.65 356.14h.73v191.31h-.73z" fill="#ebebf0"/><path d="m997.92 356.14h.73v191.31h-.73z" fill="#ebebef"/><path d="m997.2 356.14h.73v191.31h-.73z" fill="#eaeaee"/><path d="m996.47 356.14h.73v191.31h-.73z" fill="#e9e9ed"/><path d="m995.74 356.14h.73v191.31h-.73z" fill="#e8e8ed"/><path d="m995.02 356.14h.73v191.31h-.73z" fill="#e7e7ec"/><path d="m994.29 356.14h.73v191.31h-.73z" fill="#e6e6eb"/><path d="m993.57 356.14h.73v191.31h-.73z" fill="#e5e5ea"/><path d="m992.84 356.14h.73v191.31h-.73z" fill="#e4e4e9"/><path d="m992.12 356.14h.73v191.31h-.73z" fill="#e3e3e8"/><path d="m991.39 356.14h.73v191.31h-.73z" fill="#e2e2e7"/><path d="m990.67 356.14h.73v191.31h-.73z" fill="#e1e1e6"/><path d="m989.94 356.14h.73v191.31h-.73z" fill="#e0e0e5"/><path d="m989.21 356.14h.73v191.31h-.73z" fill="#dfdfe4"/><path d="m988.49 356.14h.73v191.31h-.73z" fill="#dedee3"/><path d="m987.76 356.14h.73v191.31h-.73z" fill="#dddde2"/><path d="m987.04 356.14h.73v191.31h-.73z" fill="#dcdce1"/><path d="m986.31 356.14h.73v191.31h-.73z" fill="#dbdbe0"/><path d="m985.59 356.14h.73v191.31h-.73z" fill="#d9d9df"/><path d="m984.86 356.14h.73v191.31h-.73z" fill="#d8d8de"/><path d="m984.13 356.14h.73v191.31h-.73z" fill="#d7d7dd"/><path d="m983.41 356.14h.73v191.31h-.73z" fill="#d6d6dc"/><path d="m982.68 356.14h.73v191.31h-.73z" fill="#d5d5db"/><path d="m981.96 356.14h.73v191.31h-.73z" fill="#d4d4d9"/><path d="m981.23 356.14h.73v191.31h-.73z" fill="#d2d2d8"/><path d="m980.51 356.14h.73v191.31h-.73z" fill="#d1d1d7"/><path d="m979.78 356.14h.73v191.31h-.73z" fill="#d0d0d6"/><path d="m979.06 356.14h.73v191.31h-.73z" fill="#cfcfd5"/><path d="m978.33 356.14h.73v191.31h-.73z" fill="#cdcdd4"/><path d="m977.6 356.14h.73v191.31h-.73z" fill="#ccccd2"/><path d="m976.88 356.14h.73v191.31h-.73z" fill="#cbcbd1"/><path d="m976.15 356.14h.73v191.31h-.73z" fill="#cacad0"/><path d="m975.43 356.14h.73v191.31h-.73z" fill="#c8c8cf"/><path d="m974.7 356.14h.73v191.31h-.73z" fill="#c7c7ce"/><path d="m973.98 356.14h.73v191.31h-.73z" fill="#c6c6cc"/><path d="m973.25 356.14h.73v191.31h-.73z" fill="#c4c4cb"/><path d="m972.53 356.14h.73v191.31h-.73z" fill="#c3c3ca"/><path d="m971.8 356.14h.73v191.31h-.73z" fill="#c2c2c9"/><path d="m971.07 356.14h.73v191.31h-.73z" fill="#c0c0c7"/><path d="m970.35 356.14h.73v191.31h-.73zm-.22 0h.21v191.31h-.21z" fill="#bfbfc6"/></g><ellipse cx="989.3" cy="468.24" fill="#6a6976" rx="32.14" ry="18.56"/><ellipse cx="989.3" cy="460.89" fill="#6a6976" rx="37.11" ry="21.42"/><path d="m1008.08 502c0 2.8-1.85 5.61-5.56 7.75-7.41 4.27-19.42 4.27-26.83 0-3.7-2.14-5.55-4.95-5.55-7.75" fill="none"/><path d="m1053.73 256.51c18.68 10.92 33.73 37.31 33.62 58.95l-.56 104.6c0 6.82-4.84 9.55-10.73 6.11l-46.34-27.08c-5.88-3.44-10.63-11.76-10.59-18.58l.56-104.59c.12-21.64 15.31-30.33 34.04-19.41z" fill="#6a6976"/><path d="m940.4 449.24v61.27" fill="#f3f3f7"/><path d="m1047.66 256.54c-9-5.27-17.25-6.16-23.53-3.36a16.53 16.53 0 0 0 -2.94 1.7l-9 5.21a16.94 16.94 0 0 0 -5.15 3c-4.91 4.16-7.87 11.36-7.92 21.05l-.27 49.66-129.19 74.6v61.26l70.74 40.85 119.08-68.76a7.16 7.16 0 0 0 6 .16l12.61-7.2a5.46 5.46 0 0 0 1.5-.86c1.6-1.3 2.57-3.6 2.58-6.71l.32-59.73.27-49.39c.1-22.55-15.61-50.09-35.1-61.48z" fill="#aeaeb6"/><path d="m1070.65 364.23-32.98 28.85m-61.91 35.74-35.36 4.21-70.74-24.63 131.35-75.84" fill="none"/><path d="m975.66 428.65 17.79 30.8 35.37-20.42 8.85-45.95-7.92-5.1-61.81 36.32z" fill="#f3f3f7"/><path d="m1029.75 387.98-1.29 50.78 8.82-45.93z" fill="#6a6976"/><path d="m999.05 284.19c.12-22.58 16-31.64 35.51-20.25s35.19 38.93 36.3 60.71l-.26 49.35.05 59.93" fill="#aeaeb6"/><path d="m1029.75 387.98 33.66-28.26 7.24 4.51m-102.71 60.07-14.08 1.57m54.4-159.68c5.77-2.14 13.15-1.13 21.17 3.56 18.34 10.72 33.11 36.63 34.16 57.12l-.18 32.85" fill="none"/><path d="m1026.39 271.29c21 12.15 38.06 41.62 38 65.81s-17.19 33.95-38.24 21.8-38.07-41.63-38-65.82 17.18-33.95 38.24-21.79z" fill="#ffbe00"/><path d="m1061.91 338.52c.07-24.2-16.94-53.66-38-65.81-11.07-6.4-21-6.72-28-2.08l-87.84 50.57 55.6 92.08 87.7-50.56-.06-.08c6.54-4.1 10.57-12.42 10.6-24.12z" fill="#aeaeb6"/><g clip-path="url(#b)"><path d="m908.07 410.5h153.91v2.79h-153.91zm0-2.79h153.91v2.79h-153.91z" fill="#f3f3f7"/><path d="m908.07 404.92h153.91v2.79h-153.91zm0-2.79h153.91v2.79h-153.91z" fill="#f2f2f6"/><path d="m908.07 399.34h153.91v2.79h-153.91z" fill="#f1f1f5"/><path d="m908.07 396.56h153.91v2.79h-153.91z" fill="#f1f1f5"/><path d="m908.07 393.77h153.91v2.79h-153.91z" fill="#f0f0f4"/><path d="m908.07 390.98h153.91v2.79h-153.91z" fill="#efeff4"/><path d="m908.07 388.19h153.91v2.79h-153.91z" fill="#efeff3"/><path d="m908.07 385.4h153.91v2.79h-153.91z" fill="#eeeef2"/><path d="m908.07 382.61h153.91v2.79h-153.91z" fill="#ededf1"/><path d="m908.07 379.83h153.91v2.79h-153.91z" fill="#ececf1"/><path d="m908.07 377.04h153.91v2.79h-153.91z" fill="#ebebf0"/><path d="m908.07 374.25h153.91v2.79h-153.91z" fill="#ebebef"/><path d="m908.07 371.46h153.91v2.79h-153.91z" fill="#eaeaee"/><path d="m908.07 368.67h153.91v2.79h-153.91z" fill="#e9e9ed"/><path d="m908.07 365.89h153.91v2.79h-153.91z" fill="#e8e8ed"/><path d="m908.07 363.1h153.91v2.79h-153.91z" fill="#e7e7ec"/><path d="m908.07 360.31h153.91v2.79h-153.91z" fill="#e6e6eb"/><path d="m908.07 357.52h153.91v2.79h-153.91z" fill="#e5e5ea"/><path d="m908.07 354.73h153.91v2.79h-153.91z" fill="#e4e4e9"/><path d="m908.07 351.94h153.91v2.79h-153.91z" fill="#e3e3e8"/><path d="m908.07 349.16h153.91v2.79h-153.91z" fill="#e2e2e7"/><path d="m908.07 346.37h153.91v2.79h-153.91z" fill="#e1e1e6"/><path d="m908.07 343.58h153.91v2.79h-153.91z" fill="#e0e0e5"/><path d="m908.07 340.79h153.91v2.79h-153.91z" fill="#dfdfe4"/><path d="m908.07 338h153.91v2.79h-153.91z" fill="#dedee3"/><path d="m908.07 335.22h153.91v2.79h-153.91z" fill="#dddde2"/><path d="m908.07 332.43h153.91v2.79h-153.91z" fill="#dcdce1"/><path d="m908.07 329.64h153.91v2.79h-153.91z" fill="#dbdbe0"/><path d="m908.07 326.85h153.91v2.79h-153.91z" fill="#d9d9df"/><path d="m908.07 324.06h153.91v2.79h-153.91z" fill="#d8d8de"/><path d="m908.07 321.28h153.91v2.79h-153.91z" fill="#d7d7dd"/><path d="m908.07 318.49h153.91v2.79h-153.91z" fill="#d6d6dc"/><path d="m908.07 315.7h153.91v2.79h-153.91z" fill="#d5d5db"/><path d="m908.07 312.91h153.91v2.79h-153.91z" fill="#d4d4d9"/><path d="m908.07 310.12h153.91v2.79h-153.91z" fill="#d2d2d8"/><path d="m908.07 307.33h153.91v2.79h-153.91z" fill="#d1d1d7"/><path d="m908.07 304.55h153.91v2.79h-153.91z" fill="#d0d0d6"/><path d="m908.07 301.76h153.91v2.79h-153.91z" fill="#cfcfd5"/><path d="m908.07 298.97h153.91v2.79h-153.91z" fill="#cdcdd4"/><path d="m908.07 296.18h153.91v2.79h-153.91z" fill="#ccccd2"/><path d="m908.07 293.39h153.91v2.79h-153.91z" fill="#cbcbd1"/><path d="m908.07 290.61h153.91v2.79h-153.91z" fill="#cacad0"/><path d="m908.07 287.82h153.91v2.79h-153.91z" fill="#c8c8cf"/><path d="m908.07 285.03h153.91v2.79h-153.91z" fill="#c7c7ce"/><path d="m908.07 282.24h153.91v2.79h-153.91z" fill="#c6c6cc"/><path d="m908.07 279.45h153.91v2.79h-153.91z" fill="#c4c4cb"/><path d="m908.07 276.67h153.91v2.79h-153.91z" fill="#c3c3ca"/><path d="m908.07 273.88h153.91v2.79h-153.91z" fill="#c2c2c9"/><path d="m908.07 271.09h153.91v2.79h-153.91z" fill="#c0c0c7"/><path d="m908.07 268.3h153.91v2.79h-153.91zm0-2.31h153.91v2.31h-153.91z" fill="#bfbfc6"/></g><path d="m935.56 323.47c21.06 12.16 38.06 41.62 38 65.81s-17.18 34-38.24 21.8-38.06-41.62-38-65.81 17.19-33.95 38.24-21.8z" fill="#6a6976"/><path d="m995.09 395.16 38.51-22.25 7.78-34.69c-.5-18-13.59-25.18-29.62-15.93-16.31 9.42-29.49 32.25-29.44 51l.19 14.82s-9 18.61 6.66 7.51z" fill="#f3f3f7"/><path d="m1019.15 398 29-53.92-20-12.11a10.88 10.88 0 0 0 -1.6-1c-3.89-1.87-9.07-1.39-14.76 1.89-12 6.93-21.7 23.74-21.66 37.53 0 6.3 2.06 10.88 5.42 13.34a10.59 10.59 0 0 0 1.61 1z" fill="#aeaeb6"/><path d="m1033.52 346c-12 6.93-21.7 23.74-21.66 37.53s9.8 19.37 21.81 12.43 21.7-23.73 21.66-37.53-9.8-19.35-21.81-12.43z" fill="#aeaeb6"/><path d="m1037.38 349c-11.56 6.67-20.89 22.84-20.85 36.11s9.43 18.63 21 12 20.89-22.84 20.85-36.11-9.45-18.7-21-12z" fill="#6a6976"/><path d="m1034.58 391.42c10.5-6.06 19-20.75 19-32.8 0-6.33-2.38-10.68-6.14-12.5a18.48 18.48 0 0 0 -10 2.85c-11.56 6.67-20.89 22.84-20.85 36.11 0 .73 0 1.44.1 2.12 2.57 6.98 9.62 9 17.89 4.22z" fill="#262533"/><path d="m1036.61 362.45-7.76 15.23m9.19-11.7-7.76 15.23m12.17-18.59-7.76 15.23" fill="none" opacity=".4"/><path d="m964.9 370.24 4.85-2.41-2-5.24-2.88-6.25-3-5.55-1.33-2.16-4.72 2.86.05.09c-.84-1.33-1.7-2.63-2.6-3.91-6.27-8.86-14-16.41-22.34-21.24-21.06-12.15-38.18-2.4-38.25 21.8s17 53.65 38 65.81 38.17 2.39 38.24-21.8a67.35 67.35 0 0 0 -4-22z" fill="#ffbe00"/><path d="m928.29 332.8c19.61 11.32 35.45 38.76 35.38 61.29s-16 31.63-35.61 20.31-35.46-38.77-35.4-61.3 16.02-31.63 35.63-20.3z" fill="#6a6976"/><path d="m918.78 330.08c-9-5.27-17.25-6.16-23.52-3.36h-.06a16.53 16.53 0 0 0 -2.94 1.7l-9 5.21a17.06 17.06 0 0 0 -5.15 3c-4.9 4.16-7.87 11.36-7.92 21.05l-.59 109.12c0 7.12 4.91 15.8 11 19.39l48.4 28.3c2.93 1.72 5.6 2 7.6 1l12.61-7.2a5.32 5.32 0 0 0 1.5-.86c1.6-1.3 2.57-3.6 2.58-6.71l.59-109.12c.12-22.6-15.6-50.13-35.1-61.52z" fill="#aeaeb6"/><path d="m905.68 337.48c19.49 11.39 35.19 38.93 35.07 61.51l-.58 109.12c0 7.12-5 10-11.19 6.38l-48.35-28.25c-6.14-3.59-11.08-12.27-11-19.39l.59-109.12c.07-22.58 15.97-31.64 35.46-20.25z" fill="#6a6976"/><path d="m899.41 343.28c19.35 11.31 35.07 38.43 35.11 60.58l.19 107c0 7-4.92 9.75-11 6.18l-48-28.06c-6.1-3.56-11.05-12.1-11.06-19.08l-.19-107c-.06-22.15 15.59-30.9 34.95-19.62z" fill="#6a6976"/><g clip-path="url(#c)"><path d="m934.71 331.97h.01v188.65h-.01zm-1.34 0h1.34v188.65h-1.34zm-1.35 0h1.34v188.65h-1.34z" fill="#f3f3f7"/><path d="m930.68 331.97h1.34v188.65h-1.34zm-1.35 0h1.34v188.65h-1.34z" fill="#f2f2f6"/><path d="m927.99 331.97h1.34v188.65h-1.34zm-1.34 0h1.34v188.65h-1.34z" fill="#f1f1f5"/><path d="m925.3 331.97h1.34v188.65h-1.34z" fill="#f0f0f4"/><path d="m923.96 331.97h1.34v188.65h-1.34z" fill="#efeff4"/><path d="m922.62 331.97h1.34v188.65h-1.34z" fill="#efeff3"/><path d="m921.27 331.97h1.34v188.65h-1.34z" fill="#eeeef2"/><path d="m919.93 331.97h1.34v188.65h-1.34z" fill="#ededf1"/><path d="m918.58 331.97h1.34v188.65h-1.34z" fill="#ececf1"/><path d="m917.24 331.97h1.34v188.65h-1.34z" fill="#ebebf0"/><path d="m915.9 331.97h1.34v188.65h-1.34z" fill="#ebebef"/><path d="m914.55 331.97h1.34v188.65h-1.34z" fill="#eaeaee"/><path d="m913.21 331.97h1.34v188.65h-1.34z" fill="#e9e9ed"/><path d="m911.87 331.97h1.34v188.65h-1.34z" fill="#e8e8ed"/><path d="m910.52 331.97h1.34v188.65h-1.34z" fill="#e7e7ec"/><path d="m909.18 331.97h1.34v188.65h-1.34z" fill="#e6e6eb"/><path d="m907.83 331.97h1.34v188.65h-1.34z" fill="#e5e5ea"/><path d="m906.49 331.97h1.34v188.65h-1.34z" fill="#e4e4e9"/><path d="m905.15 331.97h1.34v188.65h-1.34z" fill="#e3e3e8"/><path d="m903.8 331.97h1.34v188.65h-1.34z" fill="#e2e2e7"/><path d="m902.46 331.97h1.34v188.65h-1.34z" fill="#e1e1e6"/><path d="m901.11 331.97h1.34v188.65h-1.34z" fill="#e0e0e5"/><path d="m899.77 331.97h1.34v188.65h-1.34z" fill="#dfdfe4"/><path d="m898.43 331.97h1.34v188.65h-1.34z" fill="#dedee3"/><path d="m897.08 331.97h1.34v188.65h-1.34z" fill="#dddde2"/><path d="m895.74 331.97h1.34v188.65h-1.34z" fill="#dcdce1"/><path d="m894.4 331.97h1.34v188.65h-1.34z" fill="#dbdbe0"/><path d="m893.05 331.97h1.34v188.65h-1.34z" fill="#d9d9df"/><path d="m891.71 331.97h1.34v188.65h-1.34z" fill="#d8d8de"/><path d="m890.36 331.97h1.34v188.65h-1.34z" fill="#d7d7dd"/><path d="m889.02 331.97h1.34v188.65h-1.34z" fill="#d6d6dc"/><path d="m887.68 331.97h1.34v188.65h-1.34z" fill="#d5d5db"/><path d="m886.33 331.97h1.34v188.65h-1.34z" fill="#d4d4d9"/><path d="m884.99 331.97h1.34v188.65h-1.34z" fill="#d2d2d8"/><path d="m883.64 331.97h1.34v188.65h-1.34z" fill="#d1d1d7"/><path d="m882.3 331.97h1.34v188.65h-1.34z" fill="#d0d0d6"/><path d="m880.96 331.97h1.34v188.65h-1.34z" fill="#cfcfd5"/><path d="m879.61 331.97h1.34v188.65h-1.34z" fill="#cdcdd4"/><path d="m878.27 331.97h1.34v188.65h-1.34z" fill="#ccccd2"/><path d="m876.93 331.97h1.34v188.65h-1.34z" fill="#cbcbd1"/><path d="m875.58 331.97h1.34v188.65h-1.34z" fill="#cacad0"/><path d="m874.24 331.97h1.34v188.65h-1.34z" fill="#c8c8cf"/><path d="m872.89 331.97h1.34v188.65h-1.34z" fill="#c7c7ce"/><path d="m871.55 331.97h1.34v188.65h-1.34z" fill="#c6c6cc"/><path d="m870.21 331.97h1.34v188.65h-1.34z" fill="#c4c4cb"/><path d="m868.86 331.97h1.34v188.65h-1.34z" fill="#c3c3ca"/><path d="m867.52 331.97h1.34v188.65h-1.34z" fill="#c2c2c9"/><path d="m866.18 331.97h1.34v188.65h-1.34z" fill="#c0c0c7"/><path d="m864.83 331.97h1.34v188.65h-1.34zm-.43 0h.43v188.65h-.43z" fill="#bfbfc6"/></g><path d="m1082 427.67-.37.23-140.86 80.1v.26a8.67 8.67 0 0 1 -1.87 6l140.19-79.91c2.25-1.35 3.13-3.55 2.91-6.68z" fill="#6a6976"/><path d="m880.36 380.76 36 20.69a8.18 8.18 0 0 1 4.1 7.09l-.1 74.91a2.22 2.22 0 0 1 -3.33 1.91l-35.79-20.84a8.17 8.17 0 0 1 -4.06-7l-.16-74.8a2.22 2.22 0 0 1 3.34-1.96z" fill="#ffbe00"/><path d="m882.6 462.22a5.53 5.53 0 0 1 -2.74-4.74l-.15-72a1.16 1.16 0 0 1 1.74-1l33.61 19.31a5.51 5.51 0 0 1 2.76 4.78l-.1 72.11a1.16 1.16 0 0 1 -1.74 1z" fill="#6a6976"/><path d="m1034 254.36 21.22 12.25a2.46 2.46 0 0 0 3.65-2.6l-11.7-60.78a9.76 9.76 0 0 0 -4.71-6.62l-9.69-5.59-9.86-5.7a2.47 2.47 0 0 0 -3.7 2.13v10a2.46 2.46 0 0 0 1.23 2.13l11.1 6.41a2.46 2.46 0 0 1 1.23 2.13v44.13a2.46 2.46 0 0 0 1.23 2.11z" fill="#262533"/><path d="m1057.31 264.89-9.24-20.67 4.13-5.86-6.59-34.25a9.82 9.82 0 0 0 -4.71-6.62l-9.69-5.59-9.87-5.7a2.45 2.45 0 0 0 -2.79.23l-4.64 2.71 3.74 5.07v4.09a2.48 2.48 0 0 0 1.23 2.14l11.1 6.4a2.48 2.48 0 0 1 1.23 2.14v44.13a2.47 2.47 0 0 0 1.23 2.13l21.22 12.25a2.47 2.47 0 0 0 3.65-2.6z" fill="#6a6976"/><path d="m1027.71 258 21.22 12.25a2.46 2.46 0 0 0 3.65-2.6l-11.7-60.78a9.76 9.76 0 0 0 -4.71-6.62l-9.69-5.59-9.87-5.7a2.46 2.46 0 0 0 -3.69 2.13v10a2.46 2.46 0 0 0 1.23 2.13l11.1 6.4a2.48 2.48 0 0 1 1.23 2.14v44.13a2.46 2.46 0 0 0 1.23 2.11z" fill="#6a6976"/><path d="m1052.2 238.36-4.13 5.86 4.51 23.45.05.37-.05.59-.18.54-.3.49-.52.49 6.35-3.7" fill="#262533"/><path d="m1026 203.31a15.38 15.38 0 0 0 -7-12.08c-1.88-1.08-3.59-1.21-4.85-.55l-121.52 70 19.06 12.07 111.61-64.69c1.7-.52 2.7-2.2 2.7-4.75z" fill="#aeaeb6"/><path d="m997.08 223.28-86.14 50c1.42-.9-12-2.17-12-2.17l96.2-55.74 26.86-15.55a14.43 14.43 0 0 1 .82 4.61c0 2.52-.87 4.31-2.27 5.19l-25.48 14.8" fill="#6a6976"/><path d="m929.3 337.58-11.7-60.78a9.8 9.8 0 0 0 -4.71-6.62l-9.69-5.6-9.87-5.69a2.42 2.42 0 0 0 -2.33-.07l-.25.15-3.48 2 2.37 3.52v6.51a2.46 2.46 0 0 0 1.23 2.13l11.1 6.41a2.46 2.46 0 0 1 1.23 2.13v44.13a2.46 2.46 0 0 0 1.23 2.13l21.22 12.26a2.47 2.47 0 0 0 3.65-2.61z" fill="#6a6976"/><path d="m925 315-4.76-2.18-6.55-33.82a9.76 9.76 0 0 0 -4.71-6.62l-9.69-5.59-9.86-5.7a2.47 2.47 0 0 0 -3.7 2.13v10a2.46 2.46 0 0 0 1.23 2.13l11.1 6.41a2.45 2.45 0 0 1 1.23 2.13v44.11a2.46 2.46 0 0 0 1.23 2.13l21.22 12.25a2.44 2.44 0 0 0 2.69-.15l3.33-1.9a3.11 3.11 0 0 0 .72-.58 3 3 0 0 0 .74-1.6v-.15a2.84 2.84 0 0 0 0-.92z" fill="#262533"/><path d="m899.16 331 21.21 12.25a2.46 2.46 0 0 0 3.65-2.59l-11.69-60.78a9.76 9.76 0 0 0 -4.72-6.62l-9.69-5.6-9.86-5.7a2.46 2.46 0 0 0 -3.69 2.14v10a2.46 2.46 0 0 0 1.23 2.13l11.09 6.41a2.44 2.44 0 0 1 1.23 2.13v44.13a2.45 2.45 0 0 0 1.24 2.1z" fill="#6a6976"/><path d="m266.76 745.19a46.82 46.82 0 0 0 -2.6-14.41l-.25-.74c-1.83-5.39-5.67-10.36-9.87-12.76l-141-80.43c-4.2-2.39-8-1.79-9.79 1.55l-1.25 2.34a24.31 24.31 0 0 0 -2.47 11.52l.39 75.92a46.56 46.56 0 0 0 2.61 14.41l1.8 5.33c1.82 5.4 5.66 10.37 9.86 12.77l27.94 15.94c2.17 2.76 8.49 11 10 15.07 1.8 4.95-1.95 34.6-1.95 34.6s-10.51 23.7-10.65 31.49-2.32 31.49-1.92 39.77 4.14 25.68 6.6 31 9.14 8.72 9.14 8.72l31.13 17.77 31.14 17.76s6.69 4.22 9.11 1.68 6-15.77 6.31-23.64-2.13-34.24-2.35-42.21-11-43.86-11-43.86-4.07-34.11-2.32-37c1.45-2.41 7.72-3.46 9.88-3.76l29.72 17c4.2 2.39 8 1.79 9.79-1.56a24.3 24.3 0 0 0 2.46-11.51z" fill="#0b0a12"/><path d="m260.3 829.68-.42-81.68a45.67 45.67 0 0 0 -2.57-14.23l-.25-.73c-1.8-5.33-5.59-10.24-9.74-12.61l-139.26-79.43c-4.15-2.37-7.92-1.77-9.68 1.53l-1.22 2.31a24 24 0 0 0 -2.44 11.37l.39 75a45.73 45.73 0 0 0 2.57 14.24l1.78 5.26c1.8 5.34 5.59 10.24 9.74 12.61l139 79.29c4.15 2.37 7.92 1.77 9.67-1.53a24 24 0 0 0 2.43-11.4z" fill="#3d4641"/><path d="m109.17 757.1a11.91 11.91 0 0 1 -4.86-6.29l-1.77-5.26a36.42 36.42 0 0 1 -2-11.28l-.39-75a19.15 19.15 0 0 1 1.93-9l1.23-2.3c.87-1.64 2.76-1.94 4.82-.76l139.26 79.44a11.93 11.93 0 0 1 4.86 6.28l.24.73a36.42 36.42 0 0 1 2 11.28l.42 81.69a19.13 19.13 0 0 1 -1.93 9c-.87 1.64-2.76 1.94-4.82.77z" fill="#262533"/><path d="m109.16 755.85a9.42 9.42 0 0 1 -3.87-5l-1.78-5.27a34.57 34.57 0 0 1 -1.93-10.69l-.39-75a18.17 18.17 0 0 1 1.83-8.54l1.23-2.31c.69-1.3 2.2-1.54 3.84-.6l139.27 79.44a9.49 9.49 0 0 1 3.87 5l.25.73a34.81 34.81 0 0 1 1.93 10.68l.42 81.69a18.07 18.07 0 0 1 -1.83 8.55c-.69 1.3-2.2 1.54-3.85.61z" fill="#0b0a12"/><path d="m211.37 866.14s-4-33.7-2.29-36.58c1.43-2.38 7.63-3.42 9.76-3.71l-82-46.8c2.15 2.73 8.39 10.86 9.85 14.89 1.78 4.89-1.92 34.18-1.92 34.18s-10.39 23.43-10.52 31.1-2.3 31.11-1.9 39.29 4.09 25.37 6.51 30.63 9 8.61 9 8.61l30.76 17.56 30.76 17.54s6.6 4.17 9 1.66 5.93-15.58 6.24-23.36-2.11-33.82-2.32-41.69-10.93-43.32-10.93-43.32z" fill="#3d4641"/><path d="m211.37 866.14s-4-33.7-2.29-36.58c1.43-2.38 7.63-3.42 9.76-3.71l-82-46.8c2.15 2.73 8.39 10.86 9.85 14.89 1.78 4.89-1.92 34.18-1.92 34.18s-10.39 23.43-10.52 31.1-2.3 31.11-1.9 39.29 4.09 25.37 6.51 30.63 9 8.61 9 8.61l30.76 17.56 30.76 17.54s6.6 4.17 9 1.66 5.93-15.58 6.24-23.36-2.11-33.82-2.32-41.69-10.93-43.32-10.93-43.32z" fill="#3d4641"/><path d="m143.12 780.81 69.38 39.58c.6.34.88 1.36.41 1.54l-8.66 3.26a.52.52 0 0 1 -.41-.06l-52-29.65a1.19 1.19 0 0 1 -.41-.4l-8.75-13.2c-.43-.7-.16-1.41.44-1.07z" fill="#6a6976"/><ellipse cx="152.03" cy="790.21" fill="#0b0a12" rx="1.45" ry="2.51" transform="matrix(.86339555 -.50452762 .50452762 .86339555 -377.870168 184.610377)"/><ellipse cx="203.94" cy="819.83" fill="#0b0a12" rx="1.45" ry="2.51" transform="matrix(.8642748 -.50301995 .50301995 .8642748 -388.023581 216.240678)"/><path d="m209.33 965.4-30.76-17.54-30.93-17.66-.18-.08-.19-.11a15.86 15.86 0 0 1 -3.34-2.52c-1.47-3.75-4.81-18.24-5.16-25.68-.22-4.5.5-15.37 1.09-24.1.4-6.13.76-11.44.81-14.61.07-3.89 5.27-18 10.05-28.73l.31-.69.11-.87c1.86-14.7 2.44-23.65 2.45-29.27 0-5.37 1.64-9.63 4.67-12a.44.44 0 0 1 .5 0l39.12 22.31a1.51 1.51 0 0 1 .56.65l.17.39a37.46 37.46 0 0 1 3.59 15.22c0 5.47.61 15.27 2.77 33.37l.12 1 .32 1c4.92 16.32 10.29 36.41 10.4 40.41.09 3.25.5 9 1 15.62.67 9.45 1.51 21.21 1.34 25.5-.28 7.06-3.48 17.8-4.93 19.91a9.13 9.13 0 0 1 -3.33-1.28z" fill="#262533"/><path d="m147.26 928.76a15.18 15.18 0 0 1 -2.57-1.84c-1.45-4.15-4.51-17.65-4.85-24.55-.21-4.43.51-15.25 1.09-23.94.41-6.18.77-11.48.82-14.68s4.63-16.28 10-28.34l.36-.81.13-1c1.62-12.87 2.45-22.77 2.46-29.43 0-5 1.52-9 4.29-11.24l38.69 22.07v.12a35.14 35.14 0 0 1 3.39 14.4c0 6.61.91 17.9 2.79 33.56l.14 1.16.36 1.21c5.5 18.26 10.23 36.54 10.32 39.93s.51 9 1 15.69c.68 9.41 1.51 21.12 1.34 25.33-.26 6.69-3.17 16.61-4.61 19.16a10.14 10.14 0 0 1 -2.57-1.09l-.53-.31-30.78-17.55-30.9-17.61-.23-.12z" fill="#ffbe00"/><path d="m147.25 926.28c-.39-.22-.75-.46-1.06-.67-1.47-5-3.91-16.26-4.19-22.14-.21-4.27.54-15.45 1.08-23.62.42-6.26.77-11.56.83-14.8.05-2.66 4.25-15 9.81-27.56l.46-1 .16-1.3c1.64-13 2.48-23 2.48-29.75 0-4.06 1.13-7.36 3.2-9.4l36.5 20.82a30.26 30.26 0 0 1 2.48 11.41c0 6.75.93 18.17 2.81 34l.18 1.49.47 1.56c5.72 19 10.08 36.22 10.16 39 .09 3.34.5 9 1 15.66v.17c.67 9.34 1.5 21 1.34 25a61.58 61.58 0 0 1 -4 17.46 9.75 9.75 0 0 1 -1-.51l-.51-.3-30.82-17.57-30.93-17.66-.33-.17z" fill="#6a6976"/><path d="m239.87 820.28-124.28-70.9-.45-86.79 124.28 70.9z" fill="#0d6aa8"/><path d="m163 936.13s4.57-1.82 6-2.26a1.09 1.09 0 0 1 .83.15l18.34 10.47a1.16 1.16 0 0 1 .42.43l5.56 9z" fill="#ffbe00"/><path d="m176.28 940.56.61.35v.33c.07-.23.35-.18.59 0v.72a1.6 1.6 0 0 0 -.26-.21c-.2-.11-.27-.09-.34 0v1.43l-.62-.35zm1.38.78.62.36v2.21l-.62-.36zm.83.48.62.35v.3a.42.42 0 0 1 .55 0 .79.79 0 0 1 .39.57.39.39 0 0 1 .54 0 .82.82 0 0 1 .43.72v1.79l-.62-.35v-1.57a.31.31 0 0 0 -.15-.28h-.16v1.62l-.62-.35v-1.62a.29.29 0 0 0 -.15-.28.12.12 0 0 0 -.16 0v1.62l-.62-.35zm2.75.64.62.36v1a.42.42 0 0 1 .37 0 1.75 1.75 0 0 1 .67 1.5c0 .51-.18 1.06-.7.76a1.28 1.28 0 0 1 -.52-.64l-.12.25-.32-.18zm.63 2.78a.42.42 0 0 0 .2.4c.17.1.2-.08.19-.49v-.15c0-.44 0-.67-.19-.78a.21.21 0 0 0 -.17 0zm1.19-1.74.62.36v3.14l-.62-.35zm1.41 2.92a.8.8 0 0 0 .28.69c.15.08.28 0 .31-.13l.42.42c0 .08-.21.47-.77.16a1.9 1.9 0 0 1 -.86-1.65c0-.63.28-1 .85-.67a1.85 1.85 0 0 1 .8 1.63v.13zm.46-.16c0-.2 0-.45-.24-.57s-.22.1-.22.31zm-7.28-5.86.62.36v.63l-.62-.35z" fill="#005f9e"/><path d="m174.63 938.68 1.92 1.1v.6l-.62-.35v2.54l-.69-.39v-2.54l-.62-.35zm-1.24 1.65v.11a.63.63 0 0 1 -.43 0 1.1 1.1 0 0 1 -.37-.15h-.27a1.61 1.61 0 0 0 .69.36.8.8 0 0 0 .49 0 .67.67 0 0 0 .31-.28.54.54 0 0 0 .07-.13zm-.94-2.69h.05-.09l.24.28a1.43 1.43 0 0 1 .5.53h-.09l.4.48v.06l.27.32v-.1a3 3 0 0 0 -.42-.88 2.61 2.61 0 0 0 -.72-.74l-.27-.15h-.17l.25.3zm-1.03 1.28a1.83 1.83 0 0 1 -.07-.34v-.39a1.35 1.35 0 0 1 .08-.3v-.41l-.12.15a1.34 1.34 0 0 0 -.13.43.86.86 0 0 0 0 .16 2.62 2.62 0 0 0 0 .28 2.21 2.21 0 0 0 .11.45 2.53 2.53 0 0 0 .12.33v-.42z" fill="#005f9e"/><path d="m173.43 939.33-.06.06a3.6 3.6 0 0 1 .16.5.85.85 0 0 0 .05-.67.19.19 0 0 0 0-.07v-.16a.52.52 0 0 1 -.15.34zm-1.07-1.73a.55.55 0 0 0 -.17-.05.57.57 0 0 1 .14.13h.12zm1.43 2.71h.83l-.82-1a1.69 1.69 0 0 1 -.01 1zm-1.17-2.39h-.1a5 5 0 0 1 .35.48 1.41 1.41 0 0 1 .22.06l-.41-.49zm.38 2.22a2.82 2.82 0 0 1 -1.26-1.31.59.59 0 0 0 -.2.31.34.34 0 0 0 0 .14l.06.13a2.84 2.84 0 0 0 .57.74 1.9 1.9 0 0 0 .31.23h.89a.49.49 0 0 0 0-.12.89.89 0 0 1 -.37-.12zm-1.2-1.63a1.17 1.17 0 0 1 .36-.13v-.08a.65.65 0 0 1 0-.53 1 1 0 0 0 -.27-.19l-.13.1a.63.63 0 0 0 -.09.35 1.47 1.47 0 0 0 .05.34.88.88 0 0 0 .08.14zm.5-.18h.38c-.11-.16-.22-.3-.32-.42a.41.41 0 0 0 0 .37zm.7.85a.27.27 0 0 0 .17 0 6.23 6.23 0 0 0 -.32-.63h-.07a1.43 1.43 0 0 0 -.36 0 1.3 1.3 0 0 0 .58.63zm-1.19-1.88a.83.83 0 0 1 .34 0l-.73-.87v1a.67.67 0 0 1 .39-.13zm1.47 1.84a.42.42 0 0 0 0-.36 1 1 0 0 0 -.28-.12c.1.18.19.35.27.53z" fill="#005f9e"/><path d="m173 939.92a.6.6 0 0 0 .38.05 3.33 3.33 0 0 0 -.15-.53.49.49 0 0 1 -.22-.05 1.69 1.69 0 0 1 -.76-.78 1.13 1.13 0 0 0 -.36.14 2.44 2.44 0 0 0 1.11 1.17zm-1.33-1.32-.09-.27a1.38 1.38 0 0 1 0-.63l-.09.11a.3.3 0 0 1 0 .08v1a.7.7 0 0 1 .18-.29zm1.96 1.53h-.06v.08a1.17 1.17 0 0 0 .06-.08zm-2.14-.67-.06-.12v1.1l.79-.05-.09-.07a3.48 3.48 0 0 1 -.64-.86zm2.38 1.71c0-.14.09-.19.21-.12a.47.47 0 0 1 .22.36c0 .13-.1.19-.22.12a.49.49 0 0 1 -.21-.36zm0 0a.37.37 0 0 0 .17.29c.1.06.18 0 .18-.09a.35.35 0 0 0 -.18-.29c-.04-.08-.13 0-.13.11zm.28.29-.07-.16v.13-.27l.11.06h.06a.31.31 0 0 1 0 .08c0 .05 0 .05-.07 0zm-.11-.22s.08.06.08 0 0-.06-.06-.08h-.06v.08zm11.46 6.56c0-.13.1-.18.22-.11a.44.44 0 0 1 .21.36c0 .13-.09.19-.21.12a.5.5 0 0 1 -.22-.37zm.05 0a.34.34 0 0 0 .17.29c.1.06.17 0 .17-.1a.4.4 0 0 0 -.17-.29c-.1-.02-.18.02-.17.13zm.28.29-.07-.16v.07-.27l.1.06h.06a.11.11 0 0 1 0 .08c0 .05 0 .05-.08 0zm-.12-.22s.08.05.08 0a.09.09 0 0 0 0-.08h-.07v.08z" fill="#005f9e"/><path d="m180.55 844.65-5.65-3.23c-4.66-2.65-8.49-9.89-8.53-16.08v-3.49c0-6.19 3.75-9.09 8.4-6.43l5.66 3.22c4.65 2.66 8.49 9.9 8.52 16.09v3.49c.05 6.19-3.74 9.08-8.4 6.43z" fill="#0b0a12"/><path d="m181.05 844.13-5.65-3.22c-4.66-2.66-8.5-9.9-8.53-16.09v-3.49c0-6.19 3.76-9.08 8.41-6.42l5.65 3.22c4.66 2.66 8.5 9.89 8.53 16.09v3.49c.03 6.19-3.76 9.08-8.41 6.42z" fill="#aeaeb6"/><path d="m181.23 837.15a3 3 0 0 1 -1.46-.42l-3.88-2.22a7.41 7.41 0 0 1 -3.2-6v-3.47a3.14 3.14 0 0 1 1.32-2.89 2.46 2.46 0 0 1 2.55.13l3.88 2.21a7.42 7.42 0 0 1 3.2 6v3.47a3.15 3.15 0 0 1 -1.32 2.89 2.07 2.07 0 0 1 -1.09.3zm-.75-1.65a1.17 1.17 0 0 0 1.13.13 1.9 1.9 0 0 0 .61-1.66v-3.46a6.06 6.06 0 0 0 -2.48-4.75l-3.89-2.22a1.17 1.17 0 0 0 -1.13-.14 1.9 1.9 0 0 0 -.61 1.66v3.47a6.08 6.08 0 0 0 2.48 4.75z" fill="#0b0a12"/><path d="m178.87 832.36-1.41-.81a3.36 3.36 0 0 1 -1.42-2.68v-1.12c0-1 .62-1.52 1.4-1.07l1.41.8a3.4 3.4 0 0 1 1.42 2.68v1.13c.01 1.03-.62 1.51-1.4 1.07zm6.32-.55 1.51 2.59-1.49.87zm-14.07-4.58-1.51-2.59 1.49-.87zm5.49-6.67 1.5-.88 1.5 2.58zm3.09 17.92-1.5.88-1.5-2.58z" fill="#f3f3f7"/><path d="m167.73 808.23-3.42-2a3.36 3.36 0 0 1 -1.42-2.68v-.77c0-1 .62-1.52 1.4-1.07l3.42 2a3.34 3.34 0 0 1 1.42 2.68v.77c.01 1.03-.62 1.51-1.4 1.07zm7.7 4.39-3.42-2a3.34 3.34 0 0 1 -1.42-2.68v-.77c0-1 .63-1.52 1.4-1.07l3.43 2a3.39 3.39 0 0 1 1.42 2.68v.78c0 1.02-.63 1.5-1.41 1.06zm7.69 4.38-3.42-2a3.36 3.36 0 0 1 -1.42-2.68v-.77c0-1 .62-1.52 1.4-1.07l3.42 2a3.34 3.34 0 0 1 1.42 2.68v.78c.01 1.06-.62 1.51-1.4 1.06zm7.7 4.4-3.42-2a3.34 3.34 0 0 1 -1.42-2.68v-.72c0-1 .63-1.52 1.41-1.07l3.42 2a3.36 3.36 0 0 1 1.42 2.68v.78c0 .97-.63 1.45-1.41 1.01zm-22.68 66.18-3.42-2a3.4 3.4 0 0 1 -1.42-2.58v-.78c0-1 .62-1.52 1.4-1.07l3.42 1.95a3.37 3.37 0 0 1 1.42 2.68v.78c.01.98-.62 1.44-1.4 1.02zm7.7 4.42-3.42-2a3.37 3.37 0 0 1 -1.42-2.68v-.78c0-1 .63-1.52 1.4-1.07l3.43 2a3.4 3.4 0 0 1 1.42 2.68v.78c0 1-.63 1.48-1.41 1.07zm7.69 4.36-3.42-2a3.4 3.4 0 0 1 -1.42-2.68v-.68c0-1 .62-1.52 1.4-1.07l3.42 2a3.37 3.37 0 0 1 1.42 2.68v.78c.01.93-.62 1.41-1.4.97zm7.7 4.39-3.42-2a3.37 3.37 0 0 1 -1.42-2.68v-.78c0-1 .63-1.51 1.41-1.07l3.42 2a3.4 3.4 0 0 1 1.42 2.68v.78c0 1.03-.64 1.51-1.41 1.07zm-40.04-17.25-3.36-2.68a3 3 0 0 1 -1.12-2.54l.21-1.13c.14-.8.88-.95 1.65-.34l3.36 2.67a3 3 0 0 1 1.12 2.55l-.21 1.13c-.14.84-.84.94-1.65.34zm8.36 6.34-3.36-2.67a3 3 0 0 1 -1.13-2.54l.21-1.14c.15-.79.89-.94 1.65-.33l3.36 2.67a3 3 0 0 1 1.13 2.54l-.21 1.14c-.15.79-.89.94-1.65.33zm8.51 6.07-3.41-2.32a3.14 3.14 0 0 1 -1.28-2.5l.1-1.21c.07-.85.76-1.11 1.54-.58l3.4 2.31a3.08 3.08 0 0 1 1.28 2.5l-.1 1.21c-.07.85-.75 1.12-1.53.59zm8.31 5.69-3.37-2.14a3.09 3.09 0 0 1 -1.36-2.46v-1.25c0-.87.69-1.19 1.47-.71l3.41 2.14a3.1 3.1 0 0 1 1.36 2.46v1.25c-.08.88-.74 1.19-1.51.71zm29.9 13.32 3.35 1.15c.77.27 1.26-.3 1.11-1.27l-.22-1.38a3 3 0 0 0 -1.67-2.22l-3.35-1.2c-.76-.26-1.26.31-1.1 1.27l.22 1.38a3 3 0 0 0 1.66 2.27zm-8.34-3.18 3.35 1.16c.77.26 1.26-.31 1.11-1.28l-.22-1.37a3 3 0 0 0 -1.67-2.25l-3.35-1.16c-.76-.26-1.26.31-1.1 1.28l.22 1.37a3 3 0 0 0 1.66 2.25zm-8.5-3.64 3.4 1.57c.78.35 1.34-.12 1.27-1l-.12-1.34a3.1 3.1 0 0 0 -1.54-2.34l-3.44-1.61c-.77-.36-1.34.11-1.26 1l.11 1.34a3.09 3.09 0 0 0 1.58 2.38zm-8.29-3.78 3.41 1.77c.78.4 1.38 0 1.34-.94l-.06-1.3a3.09 3.09 0 0 0 -1.48-2.39l-3.42-1.77c-.78-.4-1.38 0-1.33.93l.05 1.31a3.1 3.1 0 0 0 1.49 2.39zm-29.9-11.9-3.36-2.67a3 3 0 0 1 -1.13-2.54l.21-1.14c.15-.79.89-.94 1.65-.33l3.36 2.67a3 3 0 0 1 1.13 2.59l-.21 1.14c-.15.74-.89.86-1.65.28zm8.35 6.35-3.36-2.67a3 3 0 0 1 -1.12-2.55l.21-1.13c.14-.79.88-.94 1.65-.33l3.36 2.67a3 3 0 0 1 1.12 2.54l-.21 1.13c-.14.8-.88.95-1.65.34zm8.52 6.06-3.41-2.31a3.08 3.08 0 0 1 -1.28-2.5l.1-1.21c.07-.85.76-1.12 1.53-.59l3.41 2.32a3.08 3.08 0 0 1 1.28 2.5l-.1 1.21c-.07.85-.76 1.11-1.53.58zm8.3 5.69-3.41-2.13a3.09 3.09 0 0 1 -1.35-2.46l.05-1.25c0-.88.68-1.19 1.46-.71l3.42 2.13a3.08 3.08 0 0 1 1.35 2.47v1.25c-.08.87-.74 1.18-1.52.7zm29.91 13.32 3.35 1.16c.76.26 1.26-.31 1.1-1.27l-.22-1.38a3 3 0 0 0 -1.66-2.23l-3.35-1.12c-.77-.26-1.26.31-1.11 1.27l.22 1.38a3 3 0 0 0 1.67 2.19zm-8.32-3.17 3.35 1.15c.76.27 1.26-.3 1.1-1.27l-.22-1.38a3 3 0 0 0 -1.66-2.22l-3.35-1.16c-.77-.26-1.26.31-1.11 1.27l.22 1.38a3 3 0 0 0 1.67 2.23zm-8.52-3.67 3.4 1.57c.78.36 1.34-.11 1.26-1l-.11-1.34a3.09 3.09 0 0 0 -1.55-2.34l-3.4-1.57c-.78-.35-1.34.11-1.26 1.05l.11 1.33a3.06 3.06 0 0 0 1.55 2.3zm-8.3-3.75 3.42 1.75c.78.4 1.38 0 1.33-.93l-.05-1.31a3.13 3.13 0 0 0 -1.49-2.39l-3.39-1.75c-.78-.4-1.38 0-1.34.93l.06 1.31a3.12 3.12 0 0 0 1.46 2.39zm-29.9-11.9-3.36-2.67a3 3 0 0 1 -1.12-2.55l.2-1.13c.14-.79.88-.94 1.65-.34l3.36 2.68a3 3 0 0 1 1.12 2.54l-.21 1.13c-.13.8-.87.99-1.64.34zm8.36 6.35-3.36-2.7a3 3 0 0 1 -1.12-2.54l.2-1.13c.15-.8.89-1 1.65-.34l3.37 2.68a3 3 0 0 1 1.12 2.54l-.21 1.13c-.15.82-.88.97-1.65.36zm8.51 6.06-3.4-2.32a3 3 0 0 1 -1.28-2.49l.1-1.22c.07-.85.75-1.11 1.53-.58l3.41 2.32a3.07 3.07 0 0 1 1.27 2.49l-.09 1.22c-.07.82-.76 1.11-1.54.58zm8.31 5.69-3.46-2.13a3.08 3.08 0 0 1 -1.35-2.47v-1.24c0-.88.69-1.2 1.47-.71l3.42 2.13a3.11 3.11 0 0 1 1.46 2.47l-.05 1.24c-.06.88-.71 1.2-1.49.71zm21.54 10.14 3.36 1.16c.76.26 1.25-.31 1.1-1.27l-.22-1.38a3 3 0 0 0 -1.66-2.23l-3.36-1.15c-.76-.26-1.26.3-1.1 1.27l.22 1.38a3 3 0 0 0 1.66 2.22zm-8.48-3.59 3.41 1.57c.77.36 1.34-.11 1.26-1l-.11-1.33a3.1 3.1 0 0 0 -1.55-2.34l-3.41-1.57c-.77-.36-1.34.11-1.26 1l.12 1.33a3.06 3.06 0 0 0 1.54 2.34zm-8.29-3.83 3.42 1.77c.77.4 1.37 0 1.33-.93l-.06-1.31a3.09 3.09 0 0 0 -1.48-2.39l-3.44-1.77c-.78-.4-1.37 0-1.33.94l.06 1.3a3.09 3.09 0 0 0 1.5 2.39zm-29.9-12.31-3.33-2.68a3 3 0 0 1 -1.13-2.54l.21-1.13c.15-.8.89-1 1.65-.34l3.36 2.68a3 3 0 0 1 1.13 2.54l-.21 1.13c-.18.8-.92.95-1.68.34zm8.35 6.35-3.36-2.68a3 3 0 0 1 -1.12-2.53l.21-1.13c.14-.8.88-1 1.65-.34l3.36 2.67a3 3 0 0 1 1.12 2.55l-.21 1.13c-.14.78-.88.94-1.65.33zm8.52 6.06-3.41-2.27a3.07 3.07 0 0 1 -1.28-2.5l.1-1.21c.07-.85.76-1.11 1.53-.58l3.41 2.31a3.08 3.08 0 0 1 1.28 2.5l-.1 1.21c-.07.81-.73 1.07-1.53.54zm8.3 5.73-3.42-2.13a3.11 3.11 0 0 1 -1.35-2.47l.05-1.25c0-.87.68-1.19 1.46-.7l3.42 2.13a3.06 3.06 0 0 1 1.34 2.42v1.25c-.06.88-.72 1.19-1.5.75zm31.63 14.26 3.35 1.16c.77.26 1.26-.31 1.11-1.27l-1.9-11.86a3 3 0 0 0 -1.67-2.23l-3.35-1.15c-.76-.26-1.26.31-1.1 1.27l1.9 11.86a3 3 0 0 0 1.66 2.22zm-10.06-4.16 3.35 1.16c.76.26 1.26-.31 1.1-1.27l-.22-1.38a3 3 0 0 0 -1.66-2.23l-3.35-1.15c-.77-.27-1.26.3-1.11 1.27l.22 1.38a3 3 0 0 0 1.67 2.22zm-8.5-3.64 3.43 1.54c.78.35 1.34-.11 1.26-1l-.11-1.33a3.06 3.06 0 0 0 -1.55-2.34l-3.4-1.57c-.78-.36-1.34.11-1.26 1l.11 1.34a3.09 3.09 0 0 0 1.52 2.36zm-8.3-3.78 3.42 1.77c.78.4 1.38 0 1.33-.93l-.05-1.31a3.1 3.1 0 0 0 -1.49-2.39l-3.41-1.77c-.78-.4-1.38 0-1.34.93l.06 1.31a3.09 3.09 0 0 0 1.48 2.39z" fill="#3d4641"/><path d="m163.44 814.71-3.42-2a3.36 3.36 0 0 1 -1.42-2.68v-1.82c0-1 .63-1.52 1.4-1.07l3.43 1.95a3.36 3.36 0 0 1 1.42 2.68v1.82c0 1.09-.63 1.57-1.41 1.12zm.06 10.06-3.42-1.95a3.4 3.4 0 0 1 -1.43-2.68v-1.83c0-1 .62-1.51 1.4-1.07l3.42 2a3.36 3.36 0 0 1 1.42 2.68v1.82c.01.99-.61 1.47-1.39 1.03zm.05 10.06-3.42-2a3.34 3.34 0 0 1 -1.42-2.68v-1.82c0-1 .62-1.52 1.4-1.07l3.42 2a3.37 3.37 0 0 1 1.42 2.68v1.82c.05 1.03-.62 1.51-1.4 1.07zm3.11 13.53-7.08-4a3.4 3.4 0 0 1 -1.42-2.69v-1.82c0-1 .62-1.51 1.4-1.07l7.08 4a3.36 3.36 0 0 1 1.42 2.68v1.82c0 1.05-.62 1.53-1.4 1.08zm14.97 8.54-7.08-4a3.4 3.4 0 0 1 -1.42-2.69v-1.82c0-1 .62-1.51 1.4-1.07l7.08 4a3.36 3.36 0 0 1 1.39 2.68v1.82c0 1.05-.59 1.53-1.37 1.08zm14.97 8.54-7.08-4a3.4 3.4 0 0 1 -1.42-2.69v-1.85c0-1 .62-1.51 1.4-1.07l7.08 4a3.36 3.36 0 0 1 1.42 2.68v1.82c0 1.08-.62 1.56-1.4 1.11zm-29.89-7.26-7.08-4a3.36 3.36 0 0 1 -1.42-2.68v-1.82c0-1 .63-1.52 1.4-1.07l7.08 4a3.37 3.37 0 0 1 1.42 2.68v1.83c.01 1.02-.62 1.5-1.4 1.06zm14.97 8.54-7.08-4a3.36 3.36 0 0 1 -1.42-2.68v-1.82c0-1 .63-1.52 1.4-1.07l7.08 4a3.4 3.4 0 0 1 1.42 2.68v1.83c0 1.02-.62 1.5-1.4 1.06zm14.97 8.54-7.08-4a3.36 3.36 0 0 1 -1.42-2.68v-1.82c0-1 .62-1.52 1.4-1.07l7.08 4a3.4 3.4 0 0 1 1.42 2.68v1.83c0 1.02-.62 1.5-1.4 1.06zm-29.89-7.4-7.08-4a3.4 3.4 0 0 1 -1.42-2.68v-1.83c0-1 .63-1.51 1.4-1.07l7.08 4a3.34 3.34 0 0 1 1.42 2.68v1.82c.01 1.05-.62 1.53-1.4 1.08zm14.97 8.54-7.08-4a3.4 3.4 0 0 1 -1.42-2.69v-1.82c0-1 .63-1.51 1.4-1.07l7.08 4a3.36 3.36 0 0 1 1.42 2.68v1.82c0 1.05-.62 1.53-1.4 1.08zm14.97 8.54-7.08-4a3.4 3.4 0 0 1 -1.42-2.69v-1.85c0-1 .62-1.51 1.4-1.07l7.08 4a3.36 3.36 0 0 1 1.42 2.68v1.82c0 1.08-.62 1.56-1.4 1.11zm-29.89-7.26-7.08-4a3.39 3.39 0 0 1 -1.42-2.68v-1.82c0-1 .63-1.52 1.41-1.07l7.07 4a3.37 3.37 0 0 1 1.42 2.69v1.82c.01 1.02-.62 1.5-1.4 1.06zm14.97 8.54-7.08-4a3.36 3.36 0 0 1 -1.42-2.68v-1.82c0-1 .63-1.52 1.41-1.07l7.07 4a3.37 3.37 0 0 1 1.42 2.68v1.83c.01 1.02-.62 1.5-1.4 1.06zm14.97 8.54-7.08-4a3.36 3.36 0 0 1 -1.42-2.68v-1.82c0-1 .63-1.52 1.4-1.07l7.08 4a3.37 3.37 0 0 1 1.42 2.68v1.83c.01 1.02-.62 1.5-1.4 1.06zm-.46-61.31-3.43-2a3.4 3.4 0 0 1 -1.42-2.68v-1.77c0-1 .63-1.51 1.41-1.07l3.42 2a3.4 3.4 0 0 1 1.42 2.69v1.82c0 .97-.63 1.45-1.4 1.01zm.1 20.11-3.39-1.95a3.37 3.37 0 0 1 -1.42-2.68l-.06-11.66c0-1 .62-1.51 1.4-1.07l3.42 1.95a3.37 3.37 0 0 1 1.42 2.68l.06 11.66c-.02 1.04-.65 1.51-1.43 1.07z" fill="#aeaeb6"/><ellipse cx="148.69" cy="869.39" fill="#0b0a12" rx="1.45" ry="2.51" transform="matrix(.86 -.5 .5 .86 -418.27 193.74)"/><ellipse cx="208.41" cy="903.46" fill="#0b0a12" rx="1.45" ry="2.51" transform="matrix(.86339555 -.50452762 .50452762 .86339555 -427.300192 228.520149)"/><ellipse cx="146.77" cy="913.85" fill="#0b0a12" rx="1.45" ry="2.51" transform="matrix(.86339555 -.50452762 .50452762 .86339555 -440.960377 198.840345)"/><ellipse cx="210.81" cy="950.38" fill="#0b0a12" rx="1.45" ry="2.51" transform="matrix(.86 -.5 .5 .86 -450.65 236.14)"/><ellipse cx="179.72" cy="935.37" fill="#0b0a12" rx="1.45" ry="2.51" transform="matrix(.86339555 -.50452762 .50452762 .86339555 -447.320006 218.410028)"/><path d="m967.84 768.81v203.11c0 3.17 2.1 6.35 6.29 8.77 8.4 4.85 22 4.85 30.4 0 4.2-2.42 6.29-5.6 6.29-8.77v-203.11z" fill="#6a6976"/><g clip-path="url(#d)"><path d="m1010 768.81h.82v216.73h-.82zm-.82 0h.82v216.73h-.82z" fill="#f3f3f7"/><path d="m1008.36 768.81h.82v216.73h-.82zm-.82 0h.82v216.73h-.82z" fill="#f2f2f6"/><path d="m1006.71 768.81h.82v216.73h-.82zm-.82 0h.82v216.73h-.82z" fill="#f1f1f5"/><path d="m1005.07 768.81h.82v216.73h-.82z" fill="#f0f0f4"/><path d="m1004.25 768.81h.82v216.73h-.82z" fill="#efeff4"/><path d="m1003.43 768.81h.82v216.73h-.82z" fill="#efeff3"/><path d="m1002.6 768.81h.82v216.73h-.82z" fill="#eeeef2"/><path d="m1001.78 768.81h.82v216.73h-.82z" fill="#ededf1"/><path d="m1000.96 768.81h.82v216.73h-.82z" fill="#ececf1"/><path d="m1000.14 768.81h.82v216.73h-.82z" fill="#ebebf0"/><path d="m999.32 768.81h.82v216.73h-.82z" fill="#ebebef"/><path d="m998.49 768.81h.82v216.73h-.82z" fill="#eaeaee"/><path d="m997.67 768.81h.82v216.73h-.82z" fill="#e9e9ed"/><path d="m996.85 768.81h.82v216.73h-.82z" fill="#e8e8ed"/><path d="m996.03 768.81h.82v216.73h-.82z" fill="#e7e7ec"/><path d="m995.21 768.81h.82v216.73h-.82z" fill="#e6e6eb"/><path d="m994.38 768.81h.82v216.73h-.82z" fill="#e5e5ea"/><path d="m993.56 768.81h.82v216.73h-.82z" fill="#e4e4e9"/><path d="m992.74 768.81h.82v216.73h-.82z" fill="#e3e3e8"/><path d="m991.92 768.81h.82v216.73h-.82z" fill="#e2e2e7"/><path d="m991.1 768.81h.82v216.73h-.82z" fill="#e1e1e6"/><path d="m990.27 768.81h.82v216.73h-.82z" fill="#e0e0e5"/><path d="m989.45 768.81h.82v216.73h-.82z" fill="#dfdfe4"/><path d="m988.63 768.81h.82v216.73h-.82z" fill="#dedee3"/><path d="m987.81 768.81h.82v216.73h-.82z" fill="#dddde2"/><path d="m986.99 768.81h.82v216.73h-.82z" fill="#dcdce1"/><path d="m986.16 768.81h.82v216.73h-.82z" fill="#dbdbe0"/><path d="m985.34 768.81h.82v216.73h-.82z" fill="#d9d9df"/><path d="m984.52 768.81h.82v216.73h-.82z" fill="#d8d8de"/><path d="m983.7 768.81h.82v216.73h-.82z" fill="#d7d7dd"/><path d="m982.88 768.81h.82v216.73h-.82z" fill="#d6d6dc"/><path d="m982.05 768.81h.82v216.73h-.82z" fill="#d5d5db"/><path d="m981.23 768.81h.82v216.73h-.82z" fill="#d4d4d9"/><path d="m980.41 768.81h.82v216.73h-.82z" fill="#d2d2d8"/><path d="m979.59 768.81h.82v216.73h-.82z" fill="#d1d1d7"/><path d="m978.77 768.81h.82v216.73h-.82z" fill="#d0d0d6"/><path d="m977.94 768.81h.82v216.73h-.82z" fill="#cfcfd5"/><path d="m977.12 768.81h.82v216.73h-.82z" fill="#cdcdd4"/><path d="m976.3 768.81h.82v216.73h-.82z" fill="#ccccd2"/><path d="m975.48 768.81h.82v216.73h-.82z" fill="#cbcbd1"/><path d="m974.66 768.81h.82v216.73h-.82z" fill="#cacad0"/><path d="m973.83 768.81h.82v216.73h-.82z" fill="#c8c8cf"/><path d="m973.01 768.81h.82v216.73h-.82z" fill="#c7c7ce"/><path d="m972.19 768.81h.82v216.73h-.82z" fill="#c6c6cc"/><path d="m971.37 768.81h.82v216.73h-.82z" fill="#c4c4cb"/><path d="m970.55 768.81h.82v216.73h-.82z" fill="#c3c3ca"/><path d="m969.72 768.81h.82v216.73h-.82z" fill="#c2c2c9"/><path d="m968.9 768.81h.82v216.73h-.82z" fill="#c0c0c7"/><path d="m968.08 768.81h.82v216.73h-.82zm-.24 0h.24v216.73h-.24z" fill="#bfbfc6"/></g><ellipse cx="989.33" cy="949.39" fill="#f3f3f7" rx="23.17" ry="13.38"/><g fill="#262533"><path d="m926.22 916.34v-8.58h-9.22v8.58a2.32 2.32 0 0 0 1.35 1.9 7.27 7.27 0 0 0 6.55 0 2.33 2.33 0 0 0 1.32-1.9z"/><ellipse cx="921.59" cy="907.76" rx="4.63" ry="2.67"/><path d="m925 907.48v-46.33h-7.14v46.33a1.78 1.78 0 0 0 1 1.46 5.55 5.55 0 0 0 5.05 0 1.77 1.77 0 0 0 1.09-1.46z"/><ellipse cx="921.45" cy="861.15" rx="3.57" ry="2.06"/><ellipse cx="921.45" cy="860.37" rx="5.42" ry="3.13"/><ellipse cx="921.45" cy="857.99" rx="6.35" ry="3.67"/><path d="m928.89 854.88v-30.62h-14.89v30.62a3.71 3.71 0 0 0 2.18 3 11.63 11.63 0 0 0 10.53 0 3.71 3.71 0 0 0 2.18-3z"/><ellipse cx="921.45" cy="824.26" rx="7.44" ry="4.3"/></g><path d="m966.16 849.14v97.93c0 3.42 2.26 6.84 6.79 9.46 9 5.22 23.72 5.22 32.76 0 4.53-2.62 6.79-6 6.79-9.46v-97.93z" fill="#6a6976"/><g clip-path="url(#e)"><path d="m1011.61 849.14h.89v112.61h-.89z" fill="#f3f3f7"/><path d="m1010.73 849.14h.89v112.61h-.89z" fill="#f3f3f7"/><path d="m1009.84 849.14h.89v112.61h-.89z" fill="#f2f2f6"/><path d="m1008.96 849.14h.89v112.61h-.89z" fill="#f2f2f6"/><path d="m1008.07 849.14h.89v112.61h-.89zm-.89 0h.89v112.61h-.89z" fill="#f1f1f5"/><path d="m1006.3 849.14h.89v112.61h-.89z" fill="#f0f0f4"/><path d="m1005.41 849.14h.89v112.61h-.89z" fill="#efeff4"/><path d="m1004.53 849.14h.89v112.61h-.89z" fill="#efeff3"/><path d="m1003.64 849.14h.89v112.61h-.89z" fill="#eeeef2"/><path d="m1002.75 849.14h.89v112.61h-.89z" fill="#ededf1"/><path d="m1001.87 849.14h.89v112.61h-.89z" fill="#ececf1"/><path d="m1000.98 849.14h.89v112.61h-.89z" fill="#ebebf0"/><path d="m1000.1 849.14h.89v112.61h-.89z" fill="#ebebef"/><path d="m999.21 849.14h.89v112.61h-.89z" fill="#eaeaee"/><path d="m998.32 849.14h.89v112.61h-.89z" fill="#e9e9ed"/><path d="m997.44 849.14h.89v112.61h-.89z" fill="#e8e8ed"/><path d="m996.55 849.14h.89v112.61h-.89z" fill="#e7e7ec"/><path d="m995.66 849.14h.89v112.61h-.89z" fill="#e6e6eb"/><path d="m994.78 849.14h.89v112.61h-.89z" fill="#e5e5ea"/><path d="m993.89 849.14h.89v112.61h-.89z" fill="#e4e4e9"/><path d="m993.01 849.14h.89v112.61h-.89z" fill="#e3e3e8"/><path d="m992.12 849.14h.89v112.61h-.89z" fill="#e2e2e7"/><path d="m991.23 849.14h.89v112.61h-.89z" fill="#e1e1e6"/><path d="m990.35 849.14h.89v112.61h-.89z" fill="#e0e0e5"/><path d="m989.46 849.14h.89v112.61h-.89z" fill="#dfdfe4"/><path d="m988.58 849.14h.89v112.61h-.89z" fill="#dedee3"/><path d="m987.69 849.14h.89v112.61h-.89z" fill="#dddde2"/><path d="m986.8 849.14h.89v112.61h-.89z" fill="#dcdce1"/><path d="m985.92 849.14h.89v112.61h-.89z" fill="#dbdbe0"/><path d="m985.03 849.14h.89v112.61h-.89z" fill="#d9d9df"/><path d="m984.15 849.14h.89v112.61h-.89z" fill="#d8d8de"/><path d="m983.26 849.14h.89v112.61h-.89z" fill="#d7d7dd"/><path d="m982.37 849.14h.89v112.61h-.89z" fill="#d6d6dc"/><path d="m981.49 849.14h.89v112.61h-.89z" fill="#d5d5db"/><path d="m980.6 849.14h.89v112.61h-.89z" fill="#d4d4d9"/><path d="m979.71 849.14h.89v112.61h-.89z" fill="#d2d2d8"/><path d="m978.83 849.14h.89v112.61h-.89z" fill="#d1d1d7"/><path d="m977.94 849.14h.89v112.61h-.89z" fill="#d0d0d6"/><path d="m977.06 849.14h.89v112.61h-.89z" fill="#cfcfd5"/><path d="m976.17 849.14h.89v112.61h-.89z" fill="#cdcdd4"/><path d="m975.28 849.14h.89v112.61h-.89z" fill="#ccccd2"/><path d="m974.4 849.14h.89v112.61h-.89z" fill="#cbcbd1"/><path d="m973.51 849.14h.89v112.61h-.89z" fill="#cacad0"/><path d="m972.63 849.14h.89v112.61h-.89z" fill="#c8c8cf"/><path d="m971.74 849.14h.89v112.61h-.89z" fill="#c7c7ce"/><path d="m970.85 849.14h.89v112.61h-.89z" fill="#c6c6cc"/><path d="m969.97 849.14h.89v112.61h-.89z" fill="#c4c4cb"/><path d="m969.08 849.14h.89v112.61h-.89z" fill="#c3c3ca"/><path d="m968.2 849.14h.89v112.61h-.89z" fill="#c2c2c9"/><path d="m967.31 849.14h.89v112.61h-.89z" fill="#c0c0c7"/><path d="m966.42 849.14h.89v112.61h-.89zm-.26 0h.26v112.61h-.26z" fill="#bfbfc6"/></g><ellipse cx="989.33" cy="849.14" fill="#6a6976" rx="23.17" ry="13.38"/><ellipse cx="989.57" cy="840.01" fill="#6a6976" rx="39.25" ry="22.66"/><ellipse cx="989.57" cy="831.04" fill="#6a6976" rx="45.31" ry="26.16"/><path d="m1012.5 881.25c0 3.43-2.26 6.85-6.79 9.46-9 5.23-23.71 5.23-32.76 0-4.53-2.61-6.79-6-6.79-9.46" fill="none"/><path d="m972.72 939.11v-33.47h.28a30.16 30.16 0 0 0 10.46 3.48v33.47a30.15 30.15 0 0 1 -10.46-3.48" fill="#363545"/><path d="m975 936v-19.31h.13a17.24 17.24 0 0 0 6 2v19.31a17.45 17.45 0 0 1 -6-2" fill="#0b0a12"/><path d="m883.38 718.09v67.78c.15 15.58 10.51 31.14 31.1 43 41.47 23.94 108.71 23.94 150.18 0 20.59-11.89 30.95-27.45 31.1-43v-67.78z" fill="#7b7a86"/><g clip-path="url(#f)"><path d="m1091.71 718.09h4.06v134.75h-4.06zm-4.07 0h4.06v134.75h-4.06z" fill="#f3f3f7"/><path d="m1083.58 718.09h4.06v134.75h-4.06zm-4.06 0h4.06v134.75h-4.06z" fill="#f2f2f6"/><path d="m1075.46 718.09h4.06v134.75h-4.06zm-4.06 0h4.06v134.75h-4.06z" fill="#f1f1f5"/><path d="m1067.34 718.09h4.06v134.75h-4.06z" fill="#f0f0f4"/><path d="m1063.27 718.09h4.06v134.75h-4.06z" fill="#efeff4"/><path d="m1059.21 718.09h4.06v134.75h-4.06z" fill="#efeff3"/><path d="m1055.15 718.09h4.06v134.75h-4.06z" fill="#eeeef2"/><path d="m1051.09 718.09h4.06v134.75h-4.06z" fill="#ededf1"/><path d="m1047.03 718.09h4.06v134.75h-4.06z" fill="#ececf1"/><path d="m1042.97 718.09h4.06v134.75h-4.06z" fill="#ebebf0"/><path d="m1038.91 718.09h4.06v134.75h-4.06z" fill="#ebebef"/><path d="m1034.84 718.09h4.06v134.75h-4.06z" fill="#eaeaee"/><path d="m1030.78 718.09h4.06v134.75h-4.06z" fill="#e9e9ed"/><path d="m1026.72 718.09h4.06v134.75h-4.06z" fill="#e8e8ed"/><path d="m1022.66 718.09h4.06v134.75h-4.06z" fill="#e7e7ec"/><path d="m1018.6 718.09h4.06v134.75h-4.06z" fill="#e6e6eb"/><path d="m1014.54 718.09h4.06v134.75h-4.06z" fill="#e5e5ea"/><path d="m1010.48 718.09h4.06v134.75h-4.06z" fill="#e4e4e9"/><path d="m1006.41 718.09h4.06v134.75h-4.06z" fill="#e3e3e8"/><path d="m1002.35 718.09h4.06v134.75h-4.06z" fill="#e2e2e7"/><path d="m998.29 718.09h4.06v134.75h-4.06z" fill="#e1e1e6"/><path d="m994.23 718.09h4.06v134.75h-4.06z" fill="#e0e0e5"/><path d="m990.17 718.09h4.06v134.75h-4.06z" fill="#dfdfe4"/><path d="m986.11 718.09h4.06v134.75h-4.06z" fill="#dedee3"/><path d="m982.04 718.09h4.06v134.75h-4.06z" fill="#dddde2"/><path d="m977.98 718.09h4.06v134.75h-4.06z" fill="#dcdce1"/><path d="m973.92 718.09h4.06v134.75h-4.06z" fill="#dbdbe0"/><path d="m969.86 718.09h4.06v134.75h-4.06z" fill="#d9d9df"/><path d="m965.8 718.09h4.06v134.75h-4.06z" fill="#d8d8de"/><path d="m961.74 718.09h4.06v134.75h-4.06z" fill="#d7d7dd"/><path d="m957.68 718.09h4.06v134.75h-4.06z" fill="#d6d6dc"/><path d="m953.61 718.09h4.06v134.75h-4.06z" fill="#d5d5db"/><path d="m949.55 718.09h4.06v134.75h-4.06z" fill="#d4d4d9"/><path d="m945.49 718.09h4.06v134.75h-4.06z" fill="#d2d2d8"/><path d="m941.43 718.09h4.06v134.75h-4.06z" fill="#d1d1d7"/><path d="m937.37 718.09h4.06v134.75h-4.06z" fill="#d0d0d6"/><path d="m933.31 718.09h4.06v134.75h-4.06z" fill="#cfcfd5"/><path d="m929.25 718.09h4.06v134.75h-4.06z" fill="#cdcdd4"/><path d="m925.18 718.09h4.06v134.75h-4.06z" fill="#ccccd2"/><path d="m921.12 718.09h4.06v134.75h-4.06z" fill="#cbcbd1"/><path d="m917.06 718.09h4.06v134.75h-4.06z" fill="#cacad0"/><path d="m913 718.09h4.06v134.75h-4.06z" fill="#c8c8cf"/><path d="m908.94 718.09h4.06v134.75h-4.06z" fill="#c7c7ce"/><path d="m904.88 718.09h4.06v134.75h-4.06z" fill="#c6c6cc"/><path d="m900.81 718.09h4.06v134.75h-4.06z" fill="#c4c4cb"/><path d="m896.75 718.09h4.06v134.75h-4.06z" fill="#c3c3ca"/><path d="m892.69 718.09h4.06v134.75h-4.06z" fill="#c2c2c9"/><path d="m888.63 718.09h4.06v134.75h-4.06z" fill="#c0c0c7"/><path d="m884.57 718.09h4.06v134.75h-4.06zm-1.19 0h1.19v134.75h-1.19z" fill="#bfbfc6"/></g><ellipse cx="989.57" cy="715.64" fill="#ffbe00" rx="106.2" ry="61.31"/><ellipse cx="989.57" cy="707.3" fill="#fff" rx="106.2" ry="61.31"/><ellipse cx="989.57" cy="694.67" fill="#aeaeb6" rx="93.49" ry="53.98"/><g clip-path="url(#g)"><path d="m873.11 667.56h232.92v1.93h-232.92zm0 1.93h232.92v1.93h-232.92z" fill="#f3f3f7"/><path d="m873.11 671.43h232.92v1.93h-232.92zm0 1.93h232.92v1.93h-232.92z" fill="#f2f2f6"/><path d="m873.11 675.29h232.92v1.93h-232.92zm0 1.93h232.92v1.93h-232.92z" fill="#f1f1f5"/><path d="m873.11 679.16h232.92v1.93h-232.92z" fill="#f0f0f4"/><path d="m873.11 681.09h232.92v1.93h-232.92z" fill="#efeff4"/><path d="m873.11 683.02h232.92v1.93h-232.92z" fill="#efeff3"/><path d="m873.11 684.95h232.92v1.93h-232.92z" fill="#eeeef2"/><path d="m873.11 686.89h232.92v1.93h-232.92z" fill="#ededf1"/><path d="m873.11 688.82h232.92v1.93h-232.92z" fill="#ececf1"/><path d="m873.11 690.75h232.92v1.93h-232.92z" fill="#ebebf0"/><path d="m873.11 692.68h232.92v1.93h-232.92z" fill="#ebebef"/><path d="m873.11 694.62h232.92v1.93h-232.92z" fill="#eaeaee"/><path d="m873.11 696.55h232.92v1.93h-232.92z" fill="#e9e9ed"/><path d="m873.11 698.48h232.92v1.93h-232.92z" fill="#e8e8ed"/><path d="m873.11 700.41h232.92v1.93h-232.92z" fill="#e7e7ec"/><path d="m873.11 702.35h232.92v1.93h-232.92z" fill="#e6e6eb"/><path d="m873.11 704.28h232.92v1.93h-232.92z" fill="#e5e5ea"/><path d="m873.11 706.21h232.92v1.93h-232.92z" fill="#e4e4e9"/><path d="m873.11 708.14h232.92v1.93h-232.92z" fill="#e3e3e8"/><path d="m873.11 710.08h232.92v1.93h-232.92z" fill="#e2e2e7"/><path d="m873.11 712.01h232.92v1.93h-232.92z" fill="#e1e1e6"/><path d="m873.11 713.94h232.92v1.93h-232.92z" fill="#e0e0e5"/><path d="m873.11 715.87h232.92v1.93h-232.92z" fill="#dfdfe4"/><path d="m873.11 717.81h232.92v1.93h-232.92z" fill="#dedee3"/><path d="m873.11 719.74h232.92v1.93h-232.92z" fill="#dddde2"/><path d="m873.11 721.67h232.92v1.93h-232.92z" fill="#dcdce1"/><path d="m873.11 723.6h232.92v1.93h-232.92z" fill="#dbdbe0"/><path d="m873.11 725.53h232.92v1.93h-232.92z" fill="#d9d9df"/><path d="m873.11 727.47h232.92v1.93h-232.92z" fill="#d8d8de"/><path d="m873.11 729.4h232.92v1.93h-232.92z" fill="#d7d7dd"/><path d="m873.11 731.33h232.92v1.93h-232.92z" fill="#d6d6dc"/><path d="m873.11 733.26h232.92v1.93h-232.92z" fill="#d5d5db"/><path d="m873.11 735.2h232.92v1.93h-232.92z" fill="#d4d4d9"/><path d="m873.11 737.13h232.92v1.93h-232.92z" fill="#d2d2d8"/><path d="m873.11 739.06h232.92v1.93h-232.92z" fill="#d1d1d7"/><path d="m873.11 740.99h232.92v1.93h-232.92z" fill="#d0d0d6"/><path d="m873.11 742.93h232.92v1.93h-232.92z" fill="#cfcfd5"/><path d="m873.11 744.86h232.92v1.93h-232.92z" fill="#cdcdd4"/><path d="m873.11 746.79h232.92v1.93h-232.92z" fill="#ccccd2"/><path d="m873.11 748.72h232.92v1.93h-232.92z" fill="#cbcbd1"/><path d="m873.11 750.66h232.92v1.93h-232.92z" fill="#cacad0"/><path d="m873.11 752.59h232.92v1.93h-232.92z" fill="#c8c8cf"/><path d="m873.11 754.52h232.92v1.93h-232.92z" fill="#c7c7ce"/><path d="m873.11 756.45h232.92v1.93h-232.92z" fill="#c6c6cc"/><path d="m873.11 758.39h232.92v1.93h-232.92z" fill="#c4c4cb"/><path d="m873.11 760.32h232.92v1.93h-232.92z" fill="#c3c3ca"/><path d="m873.11 762.25h232.92v1.93h-232.92z" fill="#c2c2c9"/><path d="m873.11 764.18h232.92v1.93h-232.92z" fill="#c0c0c7"/><path d="m873.11 766.12h232.92v1.93h-232.92zm0 1.93h232.92v6.55h-232.92z" fill="#bfbfc6"/></g><path d="m901 819.36v-50.74a86.24 86.24 0 0 0 13.52 9.53 120.31 120.31 0 0 0 23.45 10.24v50.74l-6.29-2.19-10.18-4.34-9.5-5.2-6.84-4.71z" fill="#aeaeb6"/><path d="m695.65 869.17-11.28-6.52c-2-1.14-1.73-3.15.55-4.46l10.08-5.81c2.28-1.31 5.76-1.46 7.73-.32l11.27 6.52c2 1.14 1.72 3.14-.56 4.46l-10.06 5.81c-2.28 1.31-5.76 1.46-7.73.32z" fill="#262533"/><path d="m713.44 862.27-10.06 5.81c-2.28 1.31-5.76 1.46-7.73.32l-6.24-3.61-5-2.9c-2-1.15-1.72-3.15.56-4.47l3.74-2.15 6.32-3.66c2.28-1.31 5.75-1.45 7.73-.32l11.24 6.52c2 1.19 1.72 3.19-.56 4.46z" fill="#595868"/><path d="m710.16 859.11c.2 1.76-.85 3.55-3.18 4.89-4.28 2.47-11.24 2.46-15.56 0a8.54 8.54 0 0 1 -.89-.58l-.3-.23a4.82 4.82 0 0 1 -2.05-3.7 3.91 3.91 0 0 1 .29-1.45l2-2.86h2l15.33.08 1.75 2.28a4.27 4.27 0 0 1 .52 1.46v.11z" fill="#ffbe00"/><path d="m710.16 859.11c.2 1.76-.85 3.55-3.18 4.89-4.28 2.47-11.24 2.46-15.56 0a8.54 8.54 0 0 1 -.89-.58l-.3-.23a4.82 4.82 0 0 1 -2.05-3.7 3.91 3.91 0 0 1 .29-1.45l2-2.86h2l15.33.08 1.75 2.28a4.27 4.27 0 0 1 .52 1.46v.11z" fill="#363545" opacity=".2"/><path d="m707 863.39c-4.28 2.47-11.24 2.46-15.56 0a8.54 8.54 0 0 1 -.89-.58l-.3-.23a5 5 0 0 1 -2-3.34 1.9 1.9 0 0 0 0 .25 4.82 4.82 0 0 0 2.05 3.7l.3.23a8.54 8.54 0 0 0 .89.58c4.32 2.49 11.28 2.5 15.56 0 2.27-1.31 3.32-3 3.18-4.76-.23 1.51-1.23 3-3.23 4.15z" fill="#262533"/><path d="m705.36 859.2a13.61 13.61 0 0 1 -12.32 0 6.71 6.71 0 0 1 -1.1-.78 3.45 3.45 0 0 1 -1.36-3.62l6.36-31.34h4.47l6.4 31.55v.08c.31 1.48-.51 3-2.45 4.11z" fill="#ffbe00"/><path d="m706.42 848.11-1.82-9a2.91 2.91 0 0 1 -1.63 2 8.36 8.36 0 0 1 -7.56 0 3 3 0 0 1 -1.63-2.1l-1.84 9.05a3.79 3.79 0 0 0 2.13 2.72 11.32 11.32 0 0 0 10.25 0 3.7 3.7 0 0 0 2.1-2.67z" fill="#57c7b8"/><path d="m700.75 822.54a3.46 3.46 0 0 0 -3.15 0c-.87.5-.87 1.32 0 1.83a3.49 3.49 0 0 0 3.15 0 1 1 0 0 0 0-1.83z" fill="#363545"/><path d="m700.23 822.84a2.32 2.32 0 0 0 -2.1 0 .64.64 0 0 0 0 1.21 2.29 2.29 0 0 0 2.1 0c.58-.33.58-.87 0-1.21z" fill="#ffbe00"/><path d="m700.23 822.84a2.32 2.32 0 0 0 -2.1 0 .64.64 0 0 0 0 1.21 2.29 2.29 0 0 0 2.1 0c.58-.33.58-.87 0-1.21z" fill="#363545" opacity=".2"/><path d="m695.65 677.45-11.29-6.51c-2-1.14-1.72-3.15.56-4.46l10.08-5.81c2.28-1.32 5.75-1.46 7.73-.32l11.27 6.51c2 1.14 1.73 3.15-.55 4.46l-10.06 5.81c-2.29 1.32-5.77 1.46-7.74.32z" fill="#262533"/><path d="m713.44 670.56-10.07 5.81c-2.27 1.31-5.75 1.46-7.72.31l-6.25-3.6-5-2.91c-2-1.14-1.72-3.14.56-4.46l3.73-2.16 6.31-3.65c2.28-1.32 5.75-1.46 7.73-.32l11.27 6.52c2 1.13 1.71 3.14-.56 4.46z" fill="#595868"/><path d="m710.16 667.4c.2 1.75-.85 3.55-3.18 4.89-4.28 2.47-11.24 2.46-15.56 0a10.54 10.54 0 0 1 -.89-.58c-.11-.08-.21-.15-.3-.23a4.85 4.85 0 0 1 -2.05-3.71 3.7 3.7 0 0 1 .29-1.44l2-2.86h2l15.34.09 1.75 2.28a4.29 4.29 0 0 1 .52 1.45v.12z" fill="#ffbe00"/><path d="m710.16 667.4c.2 1.75-.85 3.55-3.18 4.89-4.28 2.47-11.24 2.46-15.56 0a10.54 10.54 0 0 1 -.89-.58c-.11-.08-.21-.15-.3-.23a4.85 4.85 0 0 1 -2.05-3.71 3.7 3.7 0 0 1 .29-1.44l2-2.86h2l15.34.09 1.75 2.28a4.29 4.29 0 0 1 .52 1.45v.12z" fill="#363545" opacity=".2"/><path d="m707 671.68a17.23 17.23 0 0 1 -15.56 0 10.54 10.54 0 0 1 -.89-.58l-.3-.23a5 5 0 0 1 -2-3.34 2 2 0 0 0 0 .24 4.85 4.85 0 0 0 2.05 3.71c.09.08.19.15.3.23a10.54 10.54 0 0 0 .89.58c4.32 2.49 11.28 2.5 15.56 0 2.27-1.31 3.31-3 3.18-4.76-.23 1.47-1.23 2.99-3.23 4.15z" fill="#262533"/><path d="m705.36 667.49a13.61 13.61 0 0 1 -12.32 0 6.68 6.68 0 0 1 -1.1-.77 3.46 3.46 0 0 1 -1.36-3.63l6.36-31.33h4.47l6.4 31.54v.09c.31 1.46-.52 2.99-2.45 4.1z" fill="#ffbe00"/><path d="m706.42 656.4-1.82-9a2.9 2.9 0 0 1 -1.63 2 8.33 8.33 0 0 1 -7.56 0 3 3 0 0 1 -1.63-2.1l-1.84 9a3.78 3.78 0 0 0 2.13 2.73 11.32 11.32 0 0 0 10.25 0 3.72 3.72 0 0 0 2.1-2.63z" fill="#57c7b8"/><path d="m700.75 630.82a3.52 3.52 0 0 0 -3.16 0 1 1 0 0 0 0 1.82 3.49 3.49 0 0 0 3.16 0c.88-.49.88-1.31 0-1.82z" fill="#363545"/><path d="m700.23 631.13a2.34 2.34 0 0 0 -2.11 0 .65.65 0 0 0 0 1.22 2.32 2.32 0 0 0 2.1 0 .64.64 0 0 0 .01-1.22z" fill="#ffbe00"/><path d="m700.23 631.13a2.34 2.34 0 0 0 -2.11 0 .65.65 0 0 0 0 1.22 2.32 2.32 0 0 0 2.1 0 .64.64 0 0 0 .01-1.22z" fill="#363545" opacity=".2"/><path d="m432.14 768.18-11.28-6.52c-2-1.14-1.73-3.15.55-4.46l10.06-5.81c2.28-1.31 5.76-1.46 7.73-.32l11.28 6.52c2 1.14 1.73 3.14-.55 4.46l-10.06 5.81c-2.28 1.31-5.76 1.46-7.73.32z" fill="#262533"/><path d="m449.93 761.28-10.06 5.81c-2.28 1.31-5.76 1.46-7.73.32l-6.25-3.61-5-2.9c-2-1.15-1.72-3.15.56-4.47l3.73-2.15 6.33-3.66c2.28-1.31 5.75-1.45 7.73-.32l11.28 6.52c1.93 1.18 1.69 3.18-.59 4.46z" fill="#595868"/><path d="m446.65 758.12c.2 1.76-.85 3.55-3.18 4.89-4.28 2.47-11.24 2.46-15.56 0a8.54 8.54 0 0 1 -.89-.58 3.4 3.4 0 0 1 -.3-.23 4.82 4.82 0 0 1 -2.05-3.7 3.91 3.91 0 0 1 .33-1.5l2-2.86h2l15.33.08 1.75 2.28a4.27 4.27 0 0 1 .52 1.46v.11z" fill="#ffbe00"/><path d="m446.65 758.12c.2 1.76-.85 3.55-3.18 4.89-4.28 2.47-11.24 2.46-15.56 0a8.54 8.54 0 0 1 -.89-.58 3.4 3.4 0 0 1 -.3-.23 4.82 4.82 0 0 1 -2.05-3.7 3.91 3.91 0 0 1 .33-1.5l2-2.86h2l15.33.08 1.75 2.28a4.27 4.27 0 0 1 .52 1.46v.11z" fill="#363545" opacity=".2"/><path d="m443.47 762.4c-4.28 2.47-11.24 2.46-15.56 0a8.54 8.54 0 0 1 -.89-.58c-.1-.08-.21-.15-.3-.23a5 5 0 0 1 -2-3.34 2.13 2.13 0 0 0 0 .25 4.82 4.82 0 0 0 2.05 3.7 3.4 3.4 0 0 0 .3.23 8.54 8.54 0 0 0 .89.58c4.32 2.49 11.28 2.5 15.56 0 2.27-1.31 3.31-3 3.18-4.76-.18 1.51-1.23 3-3.23 4.15z" fill="#262533"/><path d="m441.85 758.21a13.61 13.61 0 0 1 -12.32 0 6.71 6.71 0 0 1 -1.1-.78 3.45 3.45 0 0 1 -1.36-3.62l6.36-31.34h4.47l6.4 31.53v.08c.31 1.5-.51 3.02-2.45 4.13z" fill="#ffbe00"/><path d="m442.91 747.12-1.82-9a2.91 2.91 0 0 1 -1.63 2 8.36 8.36 0 0 1 -7.56 0 3 3 0 0 1 -1.63-2.1l-1.84 9.05a3.77 3.77 0 0 0 2.13 2.72 11.32 11.32 0 0 0 10.25 0 3.7 3.7 0 0 0 2.1-2.67z" fill="#57c7b8"/><path d="m437.24 721.55a3.46 3.46 0 0 0 -3.15 0c-.87.5-.87 1.32 0 1.83a3.49 3.49 0 0 0 3.15 0 1 1 0 0 0 0-1.83z" fill="#363545"/><path d="m436.72 721.85a2.32 2.32 0 0 0 -2.1 0 .64.64 0 0 0 0 1.21 2.29 2.29 0 0 0 2.1 0c.58-.33.58-.87 0-1.21z" fill="#ffbe00"/><path d="m436.72 721.85a2.32 2.32 0 0 0 -2.1 0 .64.64 0 0 0 0 1.21 2.29 2.29 0 0 0 2.1 0c.58-.33.58-.87 0-1.21z" fill="#363545" opacity=".2"/><path d="m570.08 818.47 9.43 58.05 4.3-2.47-9.42-58.06z" fill="#8c8b96"/><path d="m570.09 818.47 9.43 58.05-4.27-2.47-9.43-58.05z" fill="#7b7a86"/><path d="m565.82 816 4.27 2.47 4.3-2.48-4.3-2.48z" fill="#7b7a86"/><path d="m570.08 818.47-22.59 77.1 4.31-2.48 22.59-77.1z" fill="#8c8b96"/><path d="m570.09 818.47-22.59 77.1-4.27-2.48 22.59-77.09z" fill="#7b7a86"/><path d="m565.82 816 4.27 2.47 4.3-2.48-4.3-2.48zm21.33 82.92-.67 1.74-34.21-19.46.68-1.74z" fill="#7b7a86"/><path d="m552.95 879.46 34.2 19.46 2.44-1.38-34.21-19.47zm55.84-38.86 9.42 58.06 4.31-2.48-9.43-58.06z" fill="#8c8b96"/><path d="m608.8 840.6 9.43 58.06-4.28-2.48-9.42-58.04z" fill="#7b7a86"/><g clip-path="url(#h)"><path d="m613.09 835.76-.21-.12h.21z" fill="#cfccd5"/><path d="m613.09 835.87-.43-.23h.22l.21.12z" fill="#d0cdd5"/><path d="m613.09 835.99-.65-.35h.22l.43.23z" fill="#d1ced6"/><path d="m613.09 836.1-.87-.46h.22l.65.35z" fill="#d2cfd7"/><path d="m613.09 836.22-1.09-.58h.22l.87.46z" fill="#d3d0d7"/><path d="m613.09 836.33-1.31-.69h.22l1.09.58zm0 .19-1.66-.88h.35l1.31.69z" fill="#d4d1d8"/><path d="m613.09 836.71-2.02-1.07h.36l1.66.88z" fill="#d5d2d9"/><path d="m613.09 836.89-2.38-1.25h.36l2.02 1.07z" fill="#d6d3da"/><path d="m613.09 837.08-2.73-1.44h.35l2.38 1.25z" fill="#d7d4db"/><path d="m613.09 837.27-3.09-1.63h.36l2.73 1.44z" fill="#d8d5dc"/><path d="m613.09 837.45-3.45-1.81h.36l3.09 1.63z" fill="#d9d6dd"/><path d="m613.09 837.64-3.8-2h.35l3.45 1.81z" fill="#dad7de"/><path d="m613.09 837.83-4.16-2.19h.36l3.8 2z" fill="#dbd8df"/><path d="m613.09 838.01-4.51-2.37h.35l4.16 2.19z" fill="#dcd9e0"/><path d="m613.09 838.2-4.87-2.56h.36l4.51 2.37z" fill="#dddae1"/><path d="m613.09 838.39-5.23-2.75h.36l4.87 2.56z" fill="#dedbe2"/><path d="m613.09 838.58-5.58-2.94h.35l5.23 2.75z" fill="#dfdce3"/><path d="m613.09 838.76-5.94-3.12h.36l5.58 2.94z" fill="#e0dde4"/><path d="m613.09 838.95-6.3-3.31h.36l5.94 3.12z" fill="#e1dee5"/><path d="m613.09 839.14-6.65-3.5h.35l6.3 3.31z" fill="#e2dfe6"/><path d="m613.09 839.32-7.01-3.68h.36l6.65 3.5z" fill="#e3e0e7"/><path d="m613.09 839.51-7.36-3.87h.35l7.01 3.68z" fill="#e4e1e8"/><path d="m613.09 839.7-7.72-4.06h.36l7.36 3.87z" fill="#e5e2e9"/><path d="m613.09 839.88-8.08-4.24h.36l7.72 4.06z" fill="#e6e3ea"/><path d="m613.09 840.07-8.43-4.43h.35l8.08 4.24z" fill="#e7e4eb"/><path d="m613.09 840.26-8.56-4.5v-.12h.13l8.43 4.43z" fill="#e9e6ed"/><path d="m613.09 840.45-8.56-4.5v-.19l8.56 4.5z" fill="#eae7ee"/><path d="m613.04 840.6-8.51-4.46v-.19l8.56 4.5v.15z" fill="#ebe8ef"/><path d="m612.68 840.6-8.15-4.28v-.18l8.51 4.46z" fill="#ece9f0"/><path d="m612.33 840.6-7.8-4.09v-.19l8.15 4.28z" fill="#edeaf1"/><g fill="#eeebf2"><path d="m611.97 840.6-7.44-3.9v-.19l7.8 4.09z"/><path d="m604.53 836.7 7.44 3.9h-7.44z"/></g></g><path d="m608.79 840.6-22.59 77.1 4.3-2.48 22.59-77.1z" fill="#8c8b96"/><path d="m608.8 840.6-22.59 77.1-4.27-2.48 22.59-77.08z" fill="#7b7a86"/><path d="m604.53 838.14 4.27 2.46 4.29-2.48-4.29-2.48z" fill="#7b7a86"/><path d="m601.73 885.25-50.9-29.25c-2.15-1.23-3.24-4.4-2.44-7.07l2.44-8.16c.41-1.35-1.24-1.43-.25-1.9l2.7-1a3.33 3.33 0 0 1 2.89.29l50.9 29.3c2.15 1.23 3.25 4.4 2.45 7.07l-2.45 8.16a4.22 4.22 0 0 1 -2.44 2.88l-2.66 1c-.87.26.7-.78-.24-1.32zm6.14-20.47-50.87-29.31c-2.15-1.23-3.24-4.4-2.44-7.07l2.44-8.16c.41-1.35-1.23-1.43-.25-1.89.08 0 2.62-1 2.7-1a3.36 3.36 0 0 1 2.89.29l50.91 29.3c2.15 1.24 3.24 4.4 2.44 7.08l-2.44 8.15a4.28 4.28 0 0 1 -2.44 2.89l-2.66 1c-.92.29.65-.75-.28-1.28z" fill="#ffbe00"/><path d="m601.73 885.25-50.9-29.25c-2.15-1.23-3.24-4.4-2.44-7.07l2.44-8.16c.41-1.35-1.24-1.43-.25-1.9l2.7-1a3.33 3.33 0 0 1 2.89.29l50.9 29.3c2.15 1.23 3.25 4.4 2.45 7.07l-2.45 8.16a4.22 4.22 0 0 1 -2.44 2.88l-2.66 1c-.87.26.7-.78-.24-1.32z" fill="#aeaeb6" opacity=".4"/><path d="m607.87 864.78-50.87-29.31c-2.15-1.23-3.24-4.4-2.44-7.07l2.44-8.16c.41-1.35-1.23-1.43-.25-1.89.08 0 2.62-1 2.7-1a3.36 3.36 0 0 1 2.89.29l50.91 29.3c2.15 1.24 3.24 4.4 2.44 7.08l-2.44 8.15a4.28 4.28 0 0 1 -2.44 2.89l-2.66 1c-.92.29.65-.75-.28-1.28z" fill="#aeaeb6" opacity=".4"/><path d="m599.16 886.22-50.9-29.31c-2.15-1.23-3.24-4.4-2.44-7.07l2.44-8.16c.8-2.67 3.19-3.84 5.34-2.6l50.9 29.3c2.15 1.24 3.25 4.4 2.45 7.07l-2.45 8.16c-.8 2.67-3.19 3.84-5.34 2.61zm6.14-20.48-50.91-29.3c-2.15-1.24-3.24-4.4-2.44-7.08l2.44-8.15c.8-2.67 3.19-3.84 5.34-2.61l50.91 29.31c2.15 1.23 3.24 4.4 2.44 7.07l-2.44 8.15c-.8 2.68-3.19 3.87-5.34 2.61z" fill="#ffbe00"/><path d="m576.83 857.81a2.33 2.33 0 0 1 1 2.16.9.9 0 0 1 -1.41.77 2.34 2.34 0 0 1 -1.06-2.15.91.91 0 0 1 1.47-.78zm1.47-12.06a3.85 3.85 0 0 1 1.81 4.1l-1.62 6a1 1 0 0 1 -1.5.6 2.53 2.53 0 0 1 -1.18-2.07v-6.88c.05-1.61 1.19-2.45 2.49-1.75z"/><path d="m579.51 835.89 9.81 35.67-26.53-15.12zm-1 20 1.62-6a3.85 3.85 0 0 0 -1.81-4.1c-1.34-.7-2.44.14-2.53 1.77v6.88a2.53 2.53 0 0 0 1.18 2.07 1 1 0 0 0 1.5-.6m-2 4.87a.9.9 0 0 0 1.41-.77 2.33 2.33 0 0 0 -1-2.16.91.91 0 0 0 -1.42.78 2.34 2.34 0 0 0 1.06 2.15"/><path d="m592.21 871.3c.81 3.21-1 5.35-3.46 4l-26.38-15.3c-2.38-1.28-3.48-5-2-6.74l16.63-20.55a2.23 2.23 0 0 1 2.92-.48 5.07 5.07 0 0 1 2.48 3.19zm-29.42-14.86 26.53 15.12-9.81-35.67z" fill="#474655"/><path d="m576 857.88a2.23 2.23 0 0 1 1 2.07.87.87 0 0 1 -1.36.74 2.23 2.23 0 0 1 -1-2.07.87.87 0 0 1 1.36-.74zm1.4-11.59a3.71 3.71 0 0 1 1.74 3.93l-1.55 5.8a1 1 0 0 1 -1.45.57 2.41 2.41 0 0 1 -1.14-2v-6.61c.05-1.56 1.1-2.37 2.4-1.69z" fill="#d52a33"/><path d="m578.56 836.81 9.44 34.27-25.54-14.52zm-1 19.21 1.55-5.8a3.71 3.71 0 0 0 -1.74-3.93c-1.3-.68-2.35.13-2.44 1.7v6.61a2.41 2.41 0 0 0 1.14 2 1 1 0 0 0 1.45-.57m-2 4.67a.87.87 0 0 0 1.48-.7 2.23 2.23 0 0 0 -1-2.07.87.87 0 0 0 -1.36.74 2.23 2.23 0 0 0 1 2.07" fill="#fff"/><path d="m590.79 870.82c.79 3.08-.95 5.14-3.32 3.81l-25.41-14.63c-2.29-1.24-3.34-4.8-2-6.49l16.08-19.74a2.16 2.16 0 0 1 2.82-.46 4.93 4.93 0 0 1 2.38 3.07zm-28.32-14.26 25.53 14.52-9.45-34.27-16.09 19.75" fill="#d52a33"/></svg>