<svg height="327.333" width="790" xmlns="http://www.w3.org/2000/svg" xmlns:xlink="http://www.w3.org/1999/xlink"><filter id="a" filterUnits="userSpaceOnUse" height="212" width="292" x="237" y="79"><feOffset/><feGaussianBlur result="blur" stdDeviation="2"/><feFlood flood-opacity=".161"/><feComposite in2="blur" operator="in"/><feComposite in="SourceGraphic"/></filter><g fill="#f1f1f6"><path d="m789.5 326.833h-789v-326.333h789z"/><path d="m1 1v325.333h788v-325.333zm-1-1h790v327.333h-790z" fill="#cbcdd6"/></g><g filter="url(#a)"><path d="m243 85h280v200h-280z" fill="#fff"/></g><path d="m244 229h280v48h-280z" fill="#fff"/><path d="m265.055 259-3.875-10.125h-.062q.109 1.2.109 2.859v7.266h-1.227v-11.422h2l3.618 9.422h.062l3.65-9.422h1.984v11.422h-1.329v-7.359q0-1.266.109-2.75h-.064l-3.9 10.109zm12.813.156a3.934 3.934 0 0 1 -3-1.156 4.476 4.476 0 0 1 -1.1-3.211 4.964 4.964 0 0 1 1.025-3.289 3.387 3.387 0 0 1 2.737-1.219 3.229 3.229 0 0 1 2.548 1.059 4.057 4.057 0 0 1 .938 2.793v.82h-5.9a3.394 3.394 0 0 0 .762 2.289 2.635 2.635 0 0 0 2.035.781 6.9 6.9 0 0 0 2.734-.578v1.155a6.863 6.863 0 0 1 -1.3.426 7.31 7.31 0 0 1 -1.479.13zm-.352-7.789a2.118 2.118 0 0 0 -1.645.672 3.1 3.1 0 0 0 -.722 1.861h4.481a2.851 2.851 0 0 0 -.547-1.879 1.925 1.925 0 0 0 -1.567-.654zm11.57 7.633v-5.539a2.235 2.235 0 0 0 -.476-1.561 1.941 1.941 0 0 0 -1.492-.516 2.461 2.461 0 0 0 -1.969.727 3.668 3.668 0 0 0 -.625 2.4v4.489h-1.294v-8.562h1.055l.211 1.172h.063a2.648 2.648 0 0 1 1.117-.98 3.63 3.63 0 0 1 1.6-.348 3.252 3.252 0 0 1 2.328.746 3.175 3.175 0 0 1 .781 2.387v5.585zm5.18-8.562v5.555a2.235 2.235 0 0 0 .477 1.563 1.941 1.941 0 0 0 1.487.514 2.435 2.435 0 0 0 1.965-.734 3.7 3.7 0 0 0 .621-2.4v-4.5h1.3v8.564h-1.07l-.186-1.148h-.07a2.585 2.585 0 0 1 -1.105.969 3.716 3.716 0 0 1 -1.613.336 3.273 3.273 0 0 1 -2.342-.743 3.159 3.159 0 0 1 -.777-2.375v-5.6zm12.953 8.562v-11.422h1.328v10.222h5.039v1.2zm9.411 0h-1.3v-8.562h1.3zm-1.411-10.883a.861.861 0 0 1 .219-.652.764.764 0 0 1 .547-.207.764.764 0 0 1 .539.211.846.846 0 0 1 .227.648.859.859 0 0 1 -.227.652.757.757 0 0 1 -.539.215.749.749 0 0 1 -.547-.215.877.877 0 0 1 -.219-.652zm9.68 8.547a2.145 2.145 0 0 1 -.891 1.844 4.186 4.186 0 0 1 -2.5.648 5.436 5.436 0 0 1 -2.656-.539v-1.2a6.424 6.424 0 0 0 1.324.492 5.53 5.53 0 0 0 1.363.18 3.092 3.092 0 0 0 1.563-.324 1.072 1.072 0 0 0 .547-.988 1.073 1.073 0 0 0 -.434-.855 6.82 6.82 0 0 0 -1.691-.84 9.172 9.172 0 0 1 -1.7-.777 2.321 2.321 0 0 1 -.75-.754 1.966 1.966 0 0 1 -.244-1.012 1.921 1.921 0 0 1 .852-1.652 3.968 3.968 0 0 1 2.336-.605 6.835 6.835 0 0 1 2.7.563l-.46 1.055a6.2 6.2 0 0 0 -2.336-.531 2.688 2.688 0 0 0 -1.391.289.894.894 0 0 0 -.469.8.971.971 0 0 0 .176.586 1.735 1.735 0 0 0 .566.461 12.658 12.658 0 0 0 1.5.633 5.6 5.6 0 0 1 2.06 1.112 1.97 1.97 0 0 1 .535 1.414zm4.875 1.422a4.236 4.236 0 0 0 .664-.051 4.3 4.3 0 0 0 .508-.105v.992a2.371 2.371 0 0 1 -.621.168 4.664 4.664 0 0 1 -.738.066q-2.484 0-2.484-2.617v-5.094h-1.228v-.625l1.227-.539.547-1.828h.75v1.984h2.484v1.008h-2.484v5.039a1.734 1.734 0 0 0 .367 1.188 1.278 1.278 0 0 0 1.008.414zm7.234.914v-11.422h1.328v11.422zm7.031-.914a4.236 4.236 0 0 0 .664-.051 4.3 4.3 0 0 0 .508-.105v.992a2.371 2.371 0 0 1 -.621.168 4.664 4.664 0 0 1 -.738.066q-2.484 0-2.484-2.617v-5.094h-1.227v-.625l1.227-.539.547-1.828h.75v1.984h2.484v1.008h-2.485v5.039a1.734 1.734 0 0 0 .366 1.188 1.278 1.278 0 0 0 1.009.414zm6.5 1.07a3.934 3.934 0 0 1 -3-1.156 4.476 4.476 0 0 1 -1.1-3.211 4.964 4.964 0 0 1 1.026-3.289 3.387 3.387 0 0 1 2.738-1.219 3.229 3.229 0 0 1 2.547 1.059 4.057 4.057 0 0 1 .938 2.793v.82h-5.9a3.394 3.394 0 0 0 .762 2.289 2.635 2.635 0 0 0 2.035.781 6.9 6.9 0 0 0 2.734-.578v1.155a6.863 6.863 0 0 1 -1.3.426 7.31 7.31 0 0 1 -1.48.13zm-.352-7.789a2.118 2.118 0 0 0 -1.645.672 3.1 3.1 0 0 0 -.721 1.861h4.477a2.851 2.851 0 0 0 -.548-1.88 1.925 1.925 0 0 0 -1.562-.653zm16.626 7.633v-5.57a2.312 2.312 0 0 0 -.437-1.535 1.692 1.692 0 0 0 -1.359-.512 2.195 2.195 0 0 0 -1.789.7 3.3 3.3 0 0 0 -.578 2.141v4.776h-1.3v-5.57a2.312 2.312 0 0 0 -.437-1.535 1.7 1.7 0 0 0 -1.367-.512 2.118 2.118 0 0 0 -1.785.73 3.953 3.953 0 0 0 -.566 2.395v4.492h-1.3v-8.562h1.055l.211 1.172h.069a2.549 2.549 0 0 1 1.035-.977 3.162 3.162 0 0 1 1.5-.352 2.544 2.544 0 0 1 2.625 1.453h.063a2.73 2.73 0 0 1 1.109-1.062 3.442 3.442 0 0 1 1.656-.391 2.9 2.9 0 0 1 2.176.746 3.338 3.338 0 0 1 .723 2.387v5.586z" fill="#252a2e"/><path d="m244 181h280v48h-280z" fill="#fff"/><path d="m265.055 211-3.875-10.125h-.062q.109 1.2.109 2.859v7.266h-1.227v-11.422h2l3.618 9.422h.062l3.65-9.422h1.984v11.422h-1.329v-7.359q0-1.266.109-2.75h-.064l-3.9 10.109zm12.813.156a3.934 3.934 0 0 1 -3-1.156 4.476 4.476 0 0 1 -1.1-3.211 4.964 4.964 0 0 1 1.025-3.289 3.387 3.387 0 0 1 2.737-1.219 3.229 3.229 0 0 1 2.548 1.059 4.057 4.057 0 0 1 .938 2.793v.82h-5.9a3.394 3.394 0 0 0 .762 2.289 2.635 2.635 0 0 0 2.035.781 6.9 6.9 0 0 0 2.734-.578v1.155a6.863 6.863 0 0 1 -1.3.426 7.31 7.31 0 0 1 -1.479.13zm-.352-7.789a2.118 2.118 0 0 0 -1.645.672 3.1 3.1 0 0 0 -.722 1.861h4.481a2.851 2.851 0 0 0 -.547-1.879 1.925 1.925 0 0 0 -1.567-.654zm11.57 7.633v-5.539a2.235 2.235 0 0 0 -.476-1.561 1.941 1.941 0 0 0 -1.492-.516 2.461 2.461 0 0 0 -1.969.727 3.668 3.668 0 0 0 -.625 2.4v4.489h-1.294v-8.562h1.055l.211 1.172h.063a2.648 2.648 0 0 1 1.117-.98 3.63 3.63 0 0 1 1.6-.348 3.252 3.252 0 0 1 2.328.746 3.175 3.175 0 0 1 .781 2.387v5.585zm5.18-8.562v5.555a2.235 2.235 0 0 0 .477 1.563 1.941 1.941 0 0 0 1.487.514 2.435 2.435 0 0 0 1.965-.734 3.7 3.7 0 0 0 .621-2.4v-4.5h1.3v8.564h-1.07l-.186-1.148h-.07a2.585 2.585 0 0 1 -1.105.969 3.716 3.716 0 0 1 -1.613.336 3.273 3.273 0 0 1 -2.342-.743 3.159 3.159 0 0 1 -.777-2.375v-5.6zm12.953 8.562v-11.422h1.328v10.222h5.039v1.2zm9.411 0h-1.3v-8.562h1.3zm-1.411-10.883a.861.861 0 0 1 .219-.652.764.764 0 0 1 .547-.207.764.764 0 0 1 .539.211.846.846 0 0 1 .227.648.859.859 0 0 1 -.227.652.757.757 0 0 1 -.539.215.749.749 0 0 1 -.547-.215.877.877 0 0 1 -.219-.652zm9.68 8.547a2.145 2.145 0 0 1 -.891 1.844 4.186 4.186 0 0 1 -2.5.648 5.436 5.436 0 0 1 -2.656-.539v-1.2a6.424 6.424 0 0 0 1.324.492 5.53 5.53 0 0 0 1.363.18 3.092 3.092 0 0 0 1.563-.324 1.072 1.072 0 0 0 .547-.988 1.073 1.073 0 0 0 -.434-.855 6.82 6.82 0 0 0 -1.691-.84 9.172 9.172 0 0 1 -1.7-.777 2.321 2.321 0 0 1 -.75-.754 1.966 1.966 0 0 1 -.244-1.012 1.921 1.921 0 0 1 .852-1.652 3.968 3.968 0 0 1 2.336-.605 6.835 6.835 0 0 1 2.7.563l-.46 1.055a6.2 6.2 0 0 0 -2.336-.531 2.688 2.688 0 0 0 -1.391.289.894.894 0 0 0 -.469.8.971.971 0 0 0 .176.586 1.735 1.735 0 0 0 .566.461 12.658 12.658 0 0 0 1.5.633 5.6 5.6 0 0 1 2.06 1.112 1.97 1.97 0 0 1 .535 1.414zm4.875 1.422a4.236 4.236 0 0 0 .664-.051 4.3 4.3 0 0 0 .508-.105v.992a2.371 2.371 0 0 1 -.621.168 4.664 4.664 0 0 1 -.738.066q-2.484 0-2.484-2.617v-5.094h-1.228v-.625l1.227-.539.547-1.828h.75v1.984h2.484v1.008h-2.484v5.039a1.734 1.734 0 0 0 .367 1.188 1.278 1.278 0 0 0 1.008.414zm7.234.914v-11.422h1.328v11.422zm7.031-.914a4.236 4.236 0 0 0 .664-.051 4.3 4.3 0 0 0 .508-.105v.992a2.371 2.371 0 0 1 -.621.168 4.664 4.664 0 0 1 -.738.066q-2.484 0-2.484-2.617v-5.094h-1.227v-.625l1.227-.539.547-1.828h.75v1.984h2.484v1.008h-2.485v5.039a1.734 1.734 0 0 0 .366 1.188 1.278 1.278 0 0 0 1.009.414zm6.5 1.07a3.934 3.934 0 0 1 -3-1.156 4.476 4.476 0 0 1 -1.1-3.211 4.964 4.964 0 0 1 1.026-3.289 3.387 3.387 0 0 1 2.738-1.219 3.229 3.229 0 0 1 2.547 1.059 4.057 4.057 0 0 1 .938 2.793v.82h-5.9a3.394 3.394 0 0 0 .762 2.289 2.635 2.635 0 0 0 2.035.781 6.9 6.9 0 0 0 2.734-.578v1.155a6.863 6.863 0 0 1 -1.3.426 7.31 7.31 0 0 1 -1.48.13zm-.352-7.789a2.118 2.118 0 0 0 -1.645.672 3.1 3.1 0 0 0 -.721 1.861h4.477a2.851 2.851 0 0 0 -.548-1.88 1.925 1.925 0 0 0 -1.562-.653zm16.626 7.633v-5.57a2.312 2.312 0 0 0 -.437-1.535 1.692 1.692 0 0 0 -1.359-.512 2.195 2.195 0 0 0 -1.789.7 3.3 3.3 0 0 0 -.578 2.141v4.776h-1.3v-5.57a2.312 2.312 0 0 0 -.437-1.535 1.7 1.7 0 0 0 -1.367-.512 2.118 2.118 0 0 0 -1.785.73 3.953 3.953 0 0 0 -.566 2.395v4.492h-1.3v-8.562h1.055l.211 1.172h.069a2.549 2.549 0 0 1 1.035-.977 3.162 3.162 0 0 1 1.5-.352 2.544 2.544 0 0 1 2.625 1.453h.063a2.73 2.73 0 0 1 1.109-1.062 3.442 3.442 0 0 1 1.656-.391 2.9 2.9 0 0 1 2.176.746 3.338 3.338 0 0 1 .723 2.387v5.586z" fill="#252a2e"/><path d="m244 133h280v48h-280z" fill="#fff"/><path d="m265.055 163-3.875-10.125h-.062q.109 1.2.109 2.859v7.266h-1.227v-11.422h2l3.618 9.422h.062l3.65-9.422h1.984v11.422h-1.329v-7.359q0-1.266.109-2.75h-.064l-3.9 10.109zm12.813.156a3.934 3.934 0 0 1 -3-1.156 4.476 4.476 0 0 1 -1.1-3.211 4.964 4.964 0 0 1 1.025-3.289 3.387 3.387 0 0 1 2.737-1.219 3.229 3.229 0 0 1 2.548 1.059 4.057 4.057 0 0 1 .938 2.793v.82h-5.9a3.394 3.394 0 0 0 .762 2.289 2.635 2.635 0 0 0 2.035.781 6.9 6.9 0 0 0 2.734-.578v1.155a6.863 6.863 0 0 1 -1.3.426 7.31 7.31 0 0 1 -1.479.13zm-.352-7.789a2.118 2.118 0 0 0 -1.645.672 3.1 3.1 0 0 0 -.722 1.861h4.481a2.851 2.851 0 0 0 -.547-1.879 1.925 1.925 0 0 0 -1.567-.654zm11.57 7.633v-5.539a2.235 2.235 0 0 0 -.476-1.561 1.941 1.941 0 0 0 -1.492-.516 2.461 2.461 0 0 0 -1.969.727 3.668 3.668 0 0 0 -.625 2.4v4.489h-1.294v-8.562h1.055l.211 1.172h.063a2.648 2.648 0 0 1 1.117-.98 3.63 3.63 0 0 1 1.6-.348 3.252 3.252 0 0 1 2.328.746 3.175 3.175 0 0 1 .781 2.387v5.585zm5.18-8.562v5.555a2.235 2.235 0 0 0 .477 1.563 1.941 1.941 0 0 0 1.487.514 2.435 2.435 0 0 0 1.965-.734 3.7 3.7 0 0 0 .621-2.4v-4.5h1.3v8.564h-1.07l-.186-1.148h-.07a2.585 2.585 0 0 1 -1.105.969 3.716 3.716 0 0 1 -1.613.336 3.273 3.273 0 0 1 -2.342-.743 3.159 3.159 0 0 1 -.777-2.375v-5.6zm12.953 8.562v-11.422h1.328v10.222h5.039v1.2zm9.411 0h-1.3v-8.562h1.3zm-1.411-10.883a.861.861 0 0 1 .219-.652.764.764 0 0 1 .547-.207.764.764 0 0 1 .539.211.846.846 0 0 1 .227.648.859.859 0 0 1 -.227.652.757.757 0 0 1 -.539.215.749.749 0 0 1 -.547-.215.877.877 0 0 1 -.219-.652zm9.68 8.547a2.145 2.145 0 0 1 -.891 1.844 4.186 4.186 0 0 1 -2.5.648 5.436 5.436 0 0 1 -2.656-.539v-1.2a6.424 6.424 0 0 0 1.324.492 5.53 5.53 0 0 0 1.363.18 3.092 3.092 0 0 0 1.563-.324 1.072 1.072 0 0 0 .547-.988 1.073 1.073 0 0 0 -.434-.855 6.82 6.82 0 0 0 -1.691-.84 9.172 9.172 0 0 1 -1.7-.777 2.321 2.321 0 0 1 -.75-.754 1.966 1.966 0 0 1 -.244-1.012 1.921 1.921 0 0 1 .852-1.652 3.968 3.968 0 0 1 2.336-.605 6.835 6.835 0 0 1 2.7.563l-.46 1.055a6.2 6.2 0 0 0 -2.336-.531 2.688 2.688 0 0 0 -1.391.289.894.894 0 0 0 -.469.8.971.971 0 0 0 .176.586 1.735 1.735 0 0 0 .566.461 12.658 12.658 0 0 0 1.5.633 5.6 5.6 0 0 1 2.06 1.112 1.97 1.97 0 0 1 .535 1.414zm4.875 1.422a4.236 4.236 0 0 0 .664-.051 4.3 4.3 0 0 0 .508-.105v.992a2.371 2.371 0 0 1 -.621.168 4.664 4.664 0 0 1 -.738.066q-2.484 0-2.484-2.617v-5.094h-1.228v-.625l1.227-.539.547-1.828h.75v1.984h2.484v1.008h-2.484v5.039a1.734 1.734 0 0 0 .367 1.188 1.278 1.278 0 0 0 1.008.414zm7.234.914v-11.422h1.328v11.422zm7.031-.914a4.236 4.236 0 0 0 .664-.051 4.3 4.3 0 0 0 .508-.105v.992a2.371 2.371 0 0 1 -.621.168 4.664 4.664 0 0 1 -.738.066q-2.484 0-2.484-2.617v-5.094h-1.227v-.625l1.227-.539.547-1.828h.75v1.984h2.484v1.008h-2.485v5.039a1.734 1.734 0 0 0 .366 1.188 1.278 1.278 0 0 0 1.009.414zm6.5 1.07a3.934 3.934 0 0 1 -3-1.156 4.476 4.476 0 0 1 -1.1-3.211 4.964 4.964 0 0 1 1.026-3.289 3.387 3.387 0 0 1 2.738-1.219 3.229 3.229 0 0 1 2.547 1.059 4.057 4.057 0 0 1 .938 2.793v.82h-5.9a3.394 3.394 0 0 0 .762 2.289 2.635 2.635 0 0 0 2.035.781 6.9 6.9 0 0 0 2.734-.578v1.155a6.863 6.863 0 0 1 -1.3.426 7.31 7.31 0 0 1 -1.48.13zm-.352-7.789a2.118 2.118 0 0 0 -1.645.672 3.1 3.1 0 0 0 -.721 1.861h4.477a2.851 2.851 0 0 0 -.548-1.88 1.925 1.925 0 0 0 -1.562-.653zm16.626 7.633v-5.57a2.312 2.312 0 0 0 -.437-1.535 1.692 1.692 0 0 0 -1.359-.512 2.195 2.195 0 0 0 -1.789.7 3.3 3.3 0 0 0 -.578 2.141v4.776h-1.3v-5.57a2.312 2.312 0 0 0 -.437-1.535 1.7 1.7 0 0 0 -1.367-.512 2.118 2.118 0 0 0 -1.785.73 3.953 3.953 0 0 0 -.566 2.395v4.492h-1.3v-8.562h1.055l.211 1.172h.069a2.549 2.549 0 0 1 1.035-.977 3.162 3.162 0 0 1 1.5-.352 2.544 2.544 0 0 1 2.625 1.453h.063a2.73 2.73 0 0 1 1.109-1.062 3.442 3.442 0 0 1 1.656-.391 2.9 2.9 0 0 1 2.176.746 3.338 3.338 0 0 1 .723 2.387v5.586z" fill="#252a2e"/><path d="m244 85h280v48h-280z" fill="#fff"/><path d="m265.055 115-3.875-10.125h-.062q.109 1.2.109 2.859v7.266h-1.227v-11.422h2l3.618 9.422h.062l3.65-9.422h1.984v11.422h-1.329v-7.359q0-1.266.109-2.75h-.064l-3.9 10.109zm12.813.156a3.934 3.934 0 0 1 -3-1.156 4.476 4.476 0 0 1 -1.1-3.211 4.964 4.964 0 0 1 1.025-3.289 3.387 3.387 0 0 1 2.737-1.219 3.229 3.229 0 0 1 2.548 1.059 4.057 4.057 0 0 1 .938 2.793v.82h-5.9a3.394 3.394 0 0 0 .762 2.289 2.635 2.635 0 0 0 2.035.781 6.9 6.9 0 0 0 2.734-.578v1.155a6.863 6.863 0 0 1 -1.3.426 7.31 7.31 0 0 1 -1.479.13zm-.352-7.789a2.118 2.118 0 0 0 -1.645.672 3.1 3.1 0 0 0 -.722 1.861h4.481a2.851 2.851 0 0 0 -.547-1.879 1.925 1.925 0 0 0 -1.567-.654zm11.57 7.633v-5.539a2.235 2.235 0 0 0 -.476-1.561 1.941 1.941 0 0 0 -1.492-.516 2.461 2.461 0 0 0 -1.969.727 3.668 3.668 0 0 0 -.625 2.4v4.489h-1.294v-8.562h1.055l.211 1.172h.063a2.648 2.648 0 0 1 1.117-.98 3.63 3.63 0 0 1 1.6-.348 3.252 3.252 0 0 1 2.328.746 3.175 3.175 0 0 1 .781 2.387v5.585zm5.18-8.562v5.555a2.235 2.235 0 0 0 .477 1.563 1.941 1.941 0 0 0 1.487.514 2.435 2.435 0 0 0 1.965-.734 3.7 3.7 0 0 0 .621-2.4v-4.5h1.3v8.564h-1.07l-.186-1.148h-.07a2.585 2.585 0 0 1 -1.105.969 3.716 3.716 0 0 1 -1.613.336 3.273 3.273 0 0 1 -2.342-.743 3.159 3.159 0 0 1 -.777-2.375v-5.6zm12.953 8.562v-11.422h1.328v10.222h5.039v1.2zm9.411 0h-1.3v-8.562h1.3zm-1.411-10.883a.861.861 0 0 1 .219-.652.764.764 0 0 1 .547-.207.764.764 0 0 1 .539.211.846.846 0 0 1 .227.648.859.859 0 0 1 -.227.652.757.757 0 0 1 -.539.215.749.749 0 0 1 -.547-.215.877.877 0 0 1 -.219-.652zm9.68 8.547a2.145 2.145 0 0 1 -.891 1.844 4.186 4.186 0 0 1 -2.5.648 5.436 5.436 0 0 1 -2.656-.539v-1.2a6.424 6.424 0 0 0 1.324.492 5.53 5.53 0 0 0 1.363.18 3.092 3.092 0 0 0 1.563-.324 1.072 1.072 0 0 0 .547-.988 1.073 1.073 0 0 0 -.434-.855 6.82 6.82 0 0 0 -1.691-.84 9.172 9.172 0 0 1 -1.7-.777 2.321 2.321 0 0 1 -.75-.754 1.966 1.966 0 0 1 -.244-1.012 1.921 1.921 0 0 1 .852-1.652 3.968 3.968 0 0 1 2.336-.605 6.835 6.835 0 0 1 2.7.563l-.46 1.055a6.2 6.2 0 0 0 -2.336-.531 2.688 2.688 0 0 0 -1.391.289.894.894 0 0 0 -.469.8.971.971 0 0 0 .176.586 1.735 1.735 0 0 0 .566.461 12.658 12.658 0 0 0 1.5.633 5.6 5.6 0 0 1 2.06 1.112 1.97 1.97 0 0 1 .535 1.414zm4.875 1.422a4.236 4.236 0 0 0 .664-.051 4.3 4.3 0 0 0 .508-.105v.992a2.371 2.371 0 0 1 -.621.168 4.664 4.664 0 0 1 -.738.066q-2.484 0-2.484-2.617v-5.094h-1.228v-.625l1.227-.539.547-1.828h.75v1.984h2.484v1.008h-2.484v5.039a1.734 1.734 0 0 0 .367 1.188 1.278 1.278 0 0 0 1.008.414zm7.234.914v-11.422h1.328v11.422zm7.031-.914a4.236 4.236 0 0 0 .664-.051 4.3 4.3 0 0 0 .508-.105v.992a2.371 2.371 0 0 1 -.621.168 4.664 4.664 0 0 1 -.738.066q-2.484 0-2.484-2.617v-5.094h-1.227v-.625l1.227-.539.547-1.828h.75v1.984h2.484v1.008h-2.485v5.039a1.734 1.734 0 0 0 .366 1.188 1.278 1.278 0 0 0 1.009.414zm6.5 1.07a3.934 3.934 0 0 1 -3-1.156 4.476 4.476 0 0 1 -1.1-3.211 4.964 4.964 0 0 1 1.026-3.289 3.387 3.387 0 0 1 2.738-1.219 3.229 3.229 0 0 1 2.547 1.059 4.057 4.057 0 0 1 .938 2.793v.82h-5.9a3.394 3.394 0 0 0 .762 2.289 2.635 2.635 0 0 0 2.035.781 6.9 6.9 0 0 0 2.734-.578v1.155a6.863 6.863 0 0 1 -1.3.426 7.31 7.31 0 0 1 -1.48.13zm-.352-7.789a2.118 2.118 0 0 0 -1.645.672 3.1 3.1 0 0 0 -.721 1.861h4.477a2.851 2.851 0 0 0 -.548-1.88 1.925 1.925 0 0 0 -1.562-.653zm16.626 7.633v-5.57a2.312 2.312 0 0 0 -.437-1.535 1.692 1.692 0 0 0 -1.359-.512 2.195 2.195 0 0 0 -1.789.7 3.3 3.3 0 0 0 -.578 2.141v4.776h-1.3v-5.57a2.312 2.312 0 0 0 -.437-1.535 1.7 1.7 0 0 0 -1.367-.512 2.118 2.118 0 0 0 -1.785.73 3.953 3.953 0 0 0 -.566 2.395v4.492h-1.3v-8.562h1.055l.211 1.172h.069a2.549 2.549 0 0 1 1.035-.977 3.162 3.162 0 0 1 1.5-.352 2.544 2.544 0 0 1 2.625 1.453h.063a2.73 2.73 0 0 1 1.109-1.062 3.442 3.442 0 0 1 1.656-.391 2.9 2.9 0 0 1 2.176.746 3.338 3.338 0 0 1 .723 2.387v5.586z" fill="#252a2e"/><g fill="#fff" stroke="#e0e1e9"><path d="m245 37h276a2 2 0 0 1 2 2v46h-280v-46a2 2 0 0 1 2-2z" stroke="none"/><path d="m245 37.5h276a1.5 1.5 0 0 1 1.5 1.5v45.5h-279v-45.5a1.5 1.5 0 0 1 1.5-1.5z" fill="none"/></g><path d="m243 83h280v2h-280z" fill="#217cbb"/><path d="m259 49h24v24h-24z" fill="none"/><path d="m274.5 63h-.79l-.28-.27a6.51 6.51 0 1 0 -.7.7l.27.28v.79l5 4.99 1.49-1.49zm-6 0a4.5 4.5 0 1 1 4.5-4.5 4.494 4.494 0 0 1 -4.5 4.5z" fill="#6a6e79"/><path d="m304.8 66.467-3.394-8.859h-.054q.1 1.053.1 2.5v6.359h-1.078v-9.994h1.75l3.165 8.244h.055l3.192-8.244h1.736v9.994h-1.162v-6.439q0-1.107.1-2.406h-.055l-3.422 8.845zm11.208.137a3.442 3.442 0 0 1 -2.622-1.012 3.917 3.917 0 0 1 -.96-2.81 4.344 4.344 0 0 1 .892-2.878 2.963 2.963 0 0 1 2.4-1.066 2.825 2.825 0 0 1 2.229.926 3.55 3.55 0 0 1 .82 2.444v.718h-5.167a2.97 2.97 0 0 0 .667 2 2.305 2.305 0 0 0 1.781.684 6.035 6.035 0 0 0 2.393-.506v1.014a6.005 6.005 0 0 1 -1.141.373 6.4 6.4 0 0 1 -1.292.113zm-.308-6.816a1.853 1.853 0 0 0 -1.439.588 2.71 2.71 0 0 0 -.632 1.627h3.917a2.5 2.5 0 0 0 -.479-1.644 1.684 1.684 0 0 0 -1.367-.571zm10.124 6.679v-4.847a1.955 1.955 0 0 0 -.417-1.367 1.7 1.7 0 0 0 -1.307-.451 2.153 2.153 0 0 0 -1.723.636 3.21 3.21 0 0 0 -.547 2.1v3.929h-1.13v-7.492h.923l.177 1.025h.055a2.317 2.317 0 0 1 .978-.858 3.176 3.176 0 0 1 1.4-.3 2.846 2.846 0 0 1 2.037.653 2.778 2.778 0 0 1 .684 2.088v4.884z" fill="#252a2e"/><path d="m328.5 51.5v20" fill="none" stroke="#252a2e"/><g transform="translate(-267.173 -67.524)"><rect fill="#cbcdd6" height="32" rx="16" width="85.472" x="698" y="112.887"/><path d="m768.184 131.783-1.271 1.271-3.229-3.229-3.229 3.229-1.271-1.271 3.229-3.229-3.229-3.229 1.271-1.271 3.229 3.229 3.229-3.229 1.271 1.271-3.229 3.229zm-4.5-12.229a9 9 0 0 0 -9 9 9 9 0 0 0 9 9 9 9 0 0 0 9-9 9 9 0 0 0 -9-9z" fill="#353a40" fill-rule="evenodd"/><path d="m751.737 116.887h24v24h-24z" fill="none"/></g><path d="m447.571 57.264a2.693 2.693 0 0 0 -2.215 1 4.266 4.266 0 0 0 -.806 2.753 4.3 4.3 0 0 0 .776 2.783 2.74 2.74 0 0 0 2.246.943 5.9 5.9 0 0 0 1.228-.127q.595-.126 1.237-.325v1.4a7.5 7.5 0 0 1 -2.664.446 4.261 4.261 0 0 1 -3.373-1.33 5.562 5.562 0 0 1 -1.173-3.807 6.147 6.147 0 0 1 .573-2.725 4.074 4.074 0 0 1 1.649-1.791 4.993 4.993 0 0 1 2.536-.622 6.294 6.294 0 0 1 2.83.643l-.588 1.36a8.777 8.777 0 0 0 -1.07-.42 3.854 3.854 0 0 0 -1.186-.181zm5.945 8.736h-1.607v-10.637h1.606zm5.484.137a3.657 3.657 0 0 1 -2.756-1.029 3.906 3.906 0 0 1 -.995-2.833 4.285 4.285 0 0 1 .923-2.912 3.188 3.188 0 0 1 2.537-1.063 3.116 3.116 0 0 1 2.365.909 3.474 3.474 0 0 1 .868 2.5v.868h-5.042a2.483 2.483 0 0 0 .6 1.697 2.071 2.071 0 0 0 1.579.591 5.829 5.829 0 0 0 1.248-.126 6.539 6.539 0 0 0 1.241-.42v1.305a4.932 4.932 0 0 1 -1.189.4 7.294 7.294 0 0 1 -1.379.113zm-.291-6.617a1.614 1.614 0 0 0 -1.227.48 2.313 2.313 0 0 0 -.55 1.415h3.432a2.093 2.093 0 0 0 -.452-1.415 1.543 1.543 0 0 0 -1.203-.48zm9.677 6.48-.321-1.053h-.055a3.1 3.1 0 0 1 -1.1.94 3.481 3.481 0 0 1 -1.422.25 2.406 2.406 0 0 1 -1.74-.6 2.251 2.251 0 0 1 -.625-1.7 2 2 0 0 1 .868-1.764 5.006 5.006 0 0 1 2.646-.649l1.306-.041v-.4a1.529 1.529 0 0 0 -.343-1.091 1.38 1.38 0 0 0 -1.049-.359 3.628 3.628 0 0 0 -1.114.171 8.409 8.409 0 0 0 -1.025.4l-.52-1.148a5.591 5.591 0 0 1 1.347-.489 6.2 6.2 0 0 1 1.383-.167 3.27 3.27 0 0 1 2.177.629 2.462 2.462 0 0 1 .735 1.976v5.095zm-2.393-1.094a1.99 1.99 0 0 0 1.4-.489 1.772 1.772 0 0 0 .53-1.371v-.656l-.971.041a3.321 3.321 0 0 0 -1.651.379 1.153 1.153 0 0 0 -.516 1.036 1.011 1.011 0 0 0 .3.783 1.292 1.292 0 0 0 .908.277zm9.507-6.606a3.867 3.867 0 0 1 .8.068l-.157 1.5a3.036 3.036 0 0 0 -.711-.082 2.057 2.057 0 0 0 -1.562.629 2.273 2.273 0 0 0 -.6 1.634v3.951h-1.606v-7.561h1.258l.212 1.333h.082a3 3 0 0 1 .984-1.072 2.332 2.332 0 0 1 1.3-.4z" fill="#353a40"/></svg>