<svg viewBox="0 0 790 356" xmlns="http://www.w3.org/2000/svg"><path d="m789.5 355.5h-789v-355h789z" fill="#252a2e"/><path d="m1 1v354h788v-354zm-1-1h790v356h-790z" fill="#cbcdd6"/><g transform="translate(65 77.383)"><g transform="translate(-55 -338.883)"><path d="m57 359h276c1.1 0 2 .9 2 2v30h-280v-30c0-1.1.9-2 2-2z" fill="#171c1e"/><path d="m57 359.5h276c.8 0 1.5.7 1.5 1.5v29.5h-279v-29.5c0-.8.7-1.5 1.5-1.5z" fill="none" stroke="#464b52"/><path d="m55 390h280v1h-280z" fill="#6a6e79"/></g><g fill="#fff"><path d="m1.2 9.1v-8.5h1v7.7h3.8v.9zm10 0-.2-.9c-.3.3-.6.6-1 .8s-.8.2-1.2.2c-.5 0-1.1-.1-1.5-.5-.4-.3-.6-.8-.5-1.4 0-1.3 1-2 3.1-2h1.1v-.4c0-.4-.1-.8-.3-1.1-.3-.3-.7-.4-1-.4-.7 0-1.3.2-1.9.5l-.3-.8c.3-.2.7-.3 1-.4.4-.1.8-.1 1.1-.1.6 0 1.2.1 1.7.5.4.4.6 1 .6 1.6v4.4zm-2.2-.7c.5 0 1-.2 1.4-.5s.6-.8.6-1.4v-.5h-1c-.6 0-1.2.1-1.7.4-.3.2-.5.5-.5.9 0 .3.1.6.3.8.3.3.6.4.9.3zm7.9-5.8c.8 0 1.5.3 2 .9.5.7.8 1.6.7 2.4.1.9-.2 1.7-.7 2.5-.5.6-1.2.9-2 .9-.4 0-.8-.1-1.1-.2-.3-.2-.6-.4-.9-.7h-.1l-.2.8h-.7v-9.2h1v3.5c.5-.6 1.2-1 2-.9zm-.1.8c-.5-.1-1.1.2-1.4.6-.3.6-.5 1.3-.4 1.9-.1.7.1 1.4.5 1.9.4.4.9.6 1.4.6s1-.2 1.3-.7c.3-.6.5-1.2.4-1.9 0-.7-.1-1.3-.4-1.9-.4-.3-.9-.5-1.4-.5zm7.2 5.8c-.8 0-1.7-.3-2.2-.9-.6-.7-.9-1.5-.8-2.4 0-.9.2-1.8.8-2.5.5-.6 1.3-.9 2.1-.9.7 0 1.4.3 1.9.8.5.6.7 1.3.7 2.1v.6h-4.4c0 .6.2 1.2.6 1.7.4.4 1 .6 1.5.6.7 0 1.4-.2 2.1-.4v.9c-.3.1-.6.2-1 .3-.6.1-.9.1-1.3.1zm-.3-5.8c-.5 0-.9.2-1.2.5-.3.4-.5.9-.5 1.4h3.4c0-.5-.1-1-.4-1.4-.4-.4-.8-.5-1.3-.5zm5.3 5.7h-1v-9.1h1z"/><path d="m22.6 40.1-1.1-2.7h-3.4l-1.1 2.7h-1l3.4-8.6h.8l3.4 8.6zm-1.4-3.6-1-2.7c-.1-.3-.3-.7-.4-1.2-.1.4-.2.8-.4 1.2l-1 2.7zm4.4 3.6h-1v-9.1h1zm3 0h-1v-9.1h1zm8.2.1c-.4 0-.8-.1-1.1-.2-.3-.2-.6-.4-.9-.7h-.1c0 .4.1.7.1 1.1v2.6h-1v-9.3h.8l.1.9c.2-.3.5-.6.9-.8s.8-.2 1.1-.2c.8 0 1.5.3 2 .9.5.7.7 1.6.7 2.4.1.9-.2 1.7-.7 2.5-.4.5-1.1.9-1.9.8zm-.1-5.8c-.5 0-1.1.2-1.4.5-.3.5-.5 1.1-.5 1.7v.2c-.1.7.1 1.4.5 1.9.4.4.9.6 1.4.6s1-.2 1.3-.7c.3-.6.5-1.2.5-1.9 0-.6-.1-1.3-.5-1.8-.3-.3-.8-.5-1.3-.5zm7.4-.8c.3 0 .5 0 .8.1l-.1.9c-.2-.1-.5-.1-.7-.1-.5 0-1 .2-1.3.6-.4.4-.6 1-.6 1.6v3.4h-1v-6.4h.8l.1 1.2c.2-.4.5-.7.9-1 .3-.2.7-.3 1.1-.3zm7.5 3.3c.1.9-.2 1.8-.8 2.5-.6.6-1.4.9-2.2.9-.5 0-1.1-.1-1.5-.4-.5-.3-.8-.7-1-1.2-.3-.6-.4-1.2-.4-1.8-.1-.9.2-1.8.8-2.4s1.4-.9 2.2-.9 1.6.3 2.1.9c.6.7.9 1.5.8 2.4zm-4.9 0c0 .7.1 1.3.5 1.9.3.4.9.7 1.4.6.6 0 1.1-.2 1.5-.6.4-.6.5-1.2.5-1.9s-.1-1.3-.5-1.9c-.4-.4-.9-.7-1.5-.6-.6 0-1.1.2-1.4.6-.4.6-.5 1.2-.5 1.9zm5.8 6.1c-.3 0-.6 0-.9-.1v-.8c.3.1.5.1.8.1.2 0 .5-.1.7-.2.2-.2.2-.5.2-.8v-7.5h1v7.4c0 1.3-.6 1.9-1.8 1.9zm.7-11c0-.2 0-.4.2-.5.1-.1.3-.2.4-.2s.3.1.4.2.2.3.2.5 0 .4-.2.5c-.1.1-.3.2-.4.2-.2 0-.3-.1-.4-.2-.1-.2-.2-.4-.2-.5zm5.9 8.2c-.8 0-1.7-.3-2.2-.9-.6-.7-.9-1.5-.8-2.4 0-.9.2-1.8.8-2.5.5-.6 1.3-.9 2.1-.9.7 0 1.4.3 1.9.8.5.6.7 1.3.7 2.1v.6h-4.6c0 .6.2 1.2.6 1.7.4.4 1 .6 1.5.6.7 0 1.4-.2 2.1-.4v.9c-.3.1-.6.2-1 .3s-.8.1-1.1.1zm-.3-5.8c-.5 0-.9.2-1.2.5-.3.4-.5.9-.5 1.4h3.4c0-.5-.1-1-.4-1.4-.4-.4-.9-.5-1.3-.5zm6.8 5.8c-.8 0-1.6-.3-2.2-.9-.5-.7-.8-1.6-.8-2.4-.1-.9.2-1.8.8-2.5.6-.6 1.4-.9 2.2-.9.3 0 .6 0 .9.1.3 0 .5.1.7.2l-.3.8c-.2-.1-.5-.2-.7-.2-.2-.1-.4-.1-.7-.1-1.3 0-2 .8-2 2.5 0 .6.1 1.3.5 1.8.3.4.9.7 1.4.6.6 0 1.1-.1 1.6-.3v.9c-.2.3-.8.5-1.4.4zm5.3-.8h.5c.1 0 .3 0 .4-.1v.7c-.1.1-.3.1-.5.1h-.6c-1.2 0-1.9-.7-1.9-2v-3.8h-.9v-.3l.9-.4.4-1.4h.6v1.5h1.9v.8h-1.9v3.8c0 .3.1.6.3.9.2.1.5.2.8.2zm6.3-1c0 .5-.2 1.1-.7 1.4-.6.4-1.2.5-1.9.5s-1.4-.1-2-.4v-.9c.3.2.6.3 1 .4.3.1.7.1 1 .1.4 0 .8-.1 1.2-.2.3-.1.4-.4.4-.7s-.1-.5-.3-.6c-.4-.3-.8-.5-1.3-.6-.4-.2-.9-.3-1.3-.6-.2-.1-.4-.3-.6-.6-.1-.2-.2-.5-.2-.8 0-.5.2-1 .6-1.2.5-.3 1.1-.5 1.8-.5s1.4.1 2 .4l-.3.8c-.6-.2-1.1-.4-1.8-.4-.4 0-.7.1-1 .2-.2.1-.4.3-.4.6 0 .2 0 .3.1.4s.3.3.4.3c.4.2.7.3 1.1.5.6.2 1.1.5 1.5.8.5.3.7.7.7 1.1z"/><text font-family="OpenSans, Open Sans, helvetica, arial, sans-serif" font-size="10.5" transform="translate(0 65.117)">Helper Text</text></g><g transform="translate(248 21.451)"><path d="m5.7 5.7h20v20h-20z" fill="none"/><path d="m15.8 19.5c-.2 0-.4-.1-.6-.2l-5.2-5.2 1.1-1.1 4.7 4.7 4.7-4.7 1.1 1.1-5.2 5.2c-.2.2-.4.2-.6.2z" fill="#6a6e79"/></g></g><g transform="translate(37.5 97.292)"><g fill="none" stroke="#f0d" transform="translate(12.143)"><path d="m4.1 0v32"/><path d="m0 0h8.1"/><path d="m0 32h8.1"/></g><path d="m5.3 14.8c0 .4-.1.8-.4 1.1s-.7.5-1.1.6c.5 0 .9.2 1.3.5.3.3.4.7.4 1.1 0 .6-.2 1.2-.7 1.6-.6.4-1.3.6-2.1.6-.7 0-1.4-.1-2-.4v-1c.3.2.6.3 1 .3.3.1.6.1 1 .1s.9-.1 1.2-.3.4-.6.4-1c0-.3-.2-.7-.5-.8-.4-.2-.9-.3-1.4-.3h-.6v-.9h.6c1.1 0 1.7-.4 1.7-1.2 0-.3-.1-.5-.3-.7-.2 0-.5-.1-.8 0-.3 0-.5 0-.8.1s-.6.3-.9.4l-.6-.8c.7-.5 1.5-.7 2.3-.7.6 0 1.2.1 1.7.5.4.3.6.7.6 1.2zm6 5.5h-4.9v-.9l1.8-1.9c.4-.4.7-.8 1.1-1.2.2-.2.3-.4.4-.7.1-.2.1-.4.1-.7s-.1-.6-.3-.8-.5-.3-.8-.3-.5.1-.8.2-.6.3-.9.5l-.5-.5c.3-.3.7-.5 1.2-.7.4-.1.8-.2 1.2-.2.6 0 1.1.2 1.6.5.4.4.6.9.6 1.4 0 .3-.1.6-.2.9s-.3.6-.5.9c-.4.4-.8.9-1.2 1.2l-1.2 1.2h3.4z" fill="#f0d"/></g><g transform="translate(65 152)"><path d="m2 0h276c1.1 0 2 .9 2 2v30h-280v-30c0-1.1.9-2 2-2z" fill="#171c1e"/><path d="m2 .5h276c.8 0 1.5.7 1.5 1.5v29.5h-279v-29.5c0-.8.7-1.5 1.5-1.5z" fill="none" stroke="#464b52"/><path d="m0 31h280v1h-280z" fill="#6a6e79"/><g transform="translate(8 6)"><path d="m0 0h20v20h-20z" fill="none"/><path d="m12.6 11.5h-.6l-.2-.2c1.8-2.1 1.6-5.3-.5-7.1s-5.3-1.6-7.1.5-1.6 5.3.5 7.1c1.9 1.6 4.7 1.6 6.5 0l.2.2v.6l3.9 3.8 1.1-1.1zm-4.6 0c-1.9 0-3.5-1.6-3.5-3.5s1.6-3.5 3.5-3.5 3.5 1.6 3.5 3.5-1.6 3.5-3.5 3.5z" fill="#b7b9c3"/></g><path d="m42 17.7c0 .7-.3 1.3-.8 1.8-.7.5-1.4.7-2.2.6-.8 0-1.6-.1-2.3-.4v-1c.4.2.8.3 1.1.4.4.1.8.1 1.2.1.5 0 1.1-.1 1.5-.4.3-.2.5-.6.5-1.1 0-.3-.1-.5-.2-.7-.2-.2-.4-.4-.6-.5-.4-.2-.8-.4-1.3-.5-.6-.2-1.2-.5-1.7-1-.4-.4-.5-1-.5-1.5 0-.6.3-1.2.7-1.6.6-.4 1.3-.6 2-.6.8 0 1.6.2 2.4.5l-.3.9c-.7-.3-1.4-.4-2.1-.4-.4 0-.9.1-1.2.3s-.5.6-.4.9c0 .3 0 .5.2.7.1.2.3.4.6.5.4.2.8.4 1.2.5.7.2 1.3.6 1.8 1 .2.5.4 1 .4 1.5zm4.3 2.4c-.8 0-1.7-.3-2.2-.9-.6-.7-.9-1.5-.8-2.4 0-.9.2-1.8.8-2.5.5-.6 1.3-.9 2.1-.9.7 0 1.4.3 1.9.8.5.6.7 1.3.7 2.1v.7h-4.4c0 .6.2 1.2.6 1.7.4.4 1 .6 1.5.6.7 0 1.4-.2 2.1-.4v.9c-.3.1-.6.2-1 .3zm-.2-5.8c-.5 0-.9.2-1.2.5-.3.4-.5.9-.5 1.4h3.4c0-.5-.1-1-.4-1.4-.5-.4-.9-.6-1.3-.5zm8.2 5.7-.2-.9c-.3.3-.6.6-1 .8s-.8.2-1.2.2c-.5 0-1.1-.1-1.5-.5s-.6-.9-.5-1.4c0-1.3 1-2 3.1-2h1.1v-.4c0-.4-.1-.8-.3-1.1-.3-.3-.7-.4-1-.4-.6 0-1.3.2-1.8.5l-.4-.8c.3-.2.7-.3 1-.4.4-.1.8-.1 1.1-.1.6 0 1.2.1 1.7.5.4.4.6 1 .6 1.6v4.4zm-2.2-.7c.5 0 1-.2 1.4-.5.4-.4.5-.9.5-1.4v-.6h-1c-.6 0-1.2.1-1.7.4-.3.2-.5.6-.5 1 0 .3.1.6.3.8.4.2.7.3 1 .3zm7.9-5.8c.3 0 .5 0 .8.1l-.1.9c-.2-.1-.5-.1-.7-.1-.5 0-1 .2-1.3.6-.4.4-.6 1-.6 1.6v3.4h-1v-6.4h.8l.1 1.2c.2-.4.5-.7.9-1 .3-.2.7-.3 1.1-.3zm4.5 6.6c-.8 0-1.6-.3-2.2-.9-.5-.7-.8-1.6-.8-2.4-.1-.9.2-1.8.8-2.5.6-.6 1.4-.9 2.2-.9.3 0 .6 0 .9.1.3 0 .5.1.7.2l-.3.8c-.2-.1-.5-.2-.7-.2-.2-.1-.4-.1-.7-.1-1.3 0-2 .8-2 2.5 0 .6.1 1.3.5 1.8.3.4.9.7 1.4.6.6 0 1.1-.1 1.6-.3v.9c-.3.3-.9.4-1.4.4zm7.5-.1v-4.2c0-.4-.1-.8-.4-1.2-.3-.3-.7-.4-1.1-.4-.6 0-1.1.2-1.5.6-.4.5-.5 1.2-.5 1.8v3.4h-1v-9.1h1v3.6h.1c.2-.3.5-.6.8-.7.4-.2.8-.3 1.2-.3.6 0 1.3.2 1.8.6.4.5.6 1.1.6 1.8v4.1zm2.9-.6c0-.2 0-.4.2-.6.1-.1.3-.2.5-.2s.4.1.5.2c.1.2.2.4.2.6s-.1.4-.2.6c-.1.1-.3.2-.5.2s-.4-.1-.5-.2c-.2-.2-.3-.4-.2-.6zm3.2 0c0-.2 0-.4.2-.6.1-.1.3-.2.5-.2s.4.1.5.2c.1.2.2.4.2.6s-.1.4-.2.6c-.1.1-.3.2-.5.2s-.4-.1-.5-.2c-.2-.2-.3-.4-.2-.6zm3.1 0c0-.2 0-.4.2-.6.1-.1.3-.2.5-.2s.4.1.5.2c.1.2.2.4.2.6s-.1.4-.2.6c-.1.1-.3.2-.5.2s-.4-.1-.5-.2c-.1-.2-.2-.4-.2-.6z" fill="#fff"/><g opacity="0" transform="translate(252 8)"><path d="m0 0h16v16h-16z" fill="none"/><path d="m12 4.8-.8-.8-3.2 3.2-3.2-3.2-.8.8 3.2 3.2-3.2 3.2.8.8 3.2-3.2 3.2 3.2.8-.8-3.2-3.2z" fill="#6a6e79"/></g></g><g transform="translate(37.5 152)"><g fill="none" stroke="#f0d" transform="translate(12.143)"><path d="m4.1 0v32"/><path d="m0 0h8.1"/><path d="m0 32h8.1"/></g><path d="m5.3 14.8c0 .4-.1.8-.4 1.1s-.7.5-1.1.6c.5 0 .9.2 1.3.5.3.3.4.7.4 1.1 0 .6-.2 1.2-.7 1.6-.6.4-1.3.6-2.1.6-.7 0-1.4-.1-2-.4v-1c.3.2.6.3 1 .3.3.1.6.1 1 .1s.9-.1 1.2-.3.4-.6.4-1c0-.3-.2-.7-.5-.8-.4-.2-.9-.3-1.4-.3h-.6v-.9h.6c1.1 0 1.7-.4 1.7-1.2 0-.3-.1-.5-.3-.7-.2 0-.5-.1-.8 0-.3 0-.5 0-.8.1s-.6.3-.9.4l-.6-.8c.7-.5 1.5-.7 2.3-.7.6 0 1.2.1 1.7.5.4.3.6.7.6 1.2zm6 5.5h-4.9v-.9l1.8-1.9c.4-.4.7-.8 1.1-1.2.2-.2.3-.4.4-.7.1-.2.1-.4.1-.7s-.1-.6-.3-.8-.5-.3-.8-.3-.5.1-.8.2-.6.3-.9.5l-.5-.5c.3-.3.7-.5 1.2-.7.4-.1.8-.2 1.2-.2.6 0 1.1.2 1.6.5.4.4.6.9.6 1.4 0 .3-.1.6-.2.9s-.3.6-.5.9c-.4.4-.8.9-1.2 1.2l-1.2 1.2h3.4z" fill="#f0d"/></g><g transform="translate(419.5 152)"><g fill="none" stroke="#f0d" transform="translate(12.143)"><path d="m4.1 0v48"/><path d="m0 0h8.1"/><path d="m0 48h8.1"/></g><path d="m5.8 27.2h-1v1.6h-1.1v-1.6h-3.2v-.9l3.3-4.7h1.1v4.6h1zm-2.1-1v-1.8-1.6c-.1.3-.3.5-.4.8l-1.8 2.6zm5.2-4.7c.6 0 1.1.1 1.6.5.4.3.6.8.6 1.2 0 .8-.6 1.5-1.3 1.7.5.2.9.5 1.2.9.2.3.4.7.4 1 0 .5-.2 1.1-.6 1.4-.5.4-1.1.6-1.8.5-.6 0-1.3-.1-1.8-.5-.4-.3-.7-.9-.6-1.4 0-.4.1-.8.3-1.1.3-.4.7-.7 1.1-.8-.4-.2-.7-.5-.9-.8s-.3-.6-.3-1c0-.5.2-1 .6-1.2.3-.3.9-.4 1.5-.4zm-1.4 5.4c0 .3.1.6.4.8s.6.3 1 .3.7-.1 1-.3c.2-.2.4-.5.4-.8s-.1-.5-.3-.7c-.3-.3-.6-.5-1-.6l-.1-.1c-.4.1-.7.3-.9.6-.4.2-.5.5-.5.8zm1.3-4.5c-.3 0-.6.1-.8.2-.2.2-.3.4-.3.7 0 .2 0 .3.1.5.1.1.2.2.4.3.2.2.4.3.7.4.3-.1.6-.3.8-.5s.2-.4.2-.7-.1-.5-.3-.7c-.2-.1-.5-.2-.8-.2z" fill="#f0d"/></g><g transform="translate(444 152)"><path d="m2 0h276c1.1 0 2 .9 2 2v46h-280v-46c0-1.1.9-2 2-2z" fill="#171c1e"/><path d="m2 .5h276c.8 0 1.5.7 1.5 1.5v45.5h-279v-45.5c0-.8.7-1.5 1.5-1.5z" fill="none" stroke="#464b52"/><path d="m0 47h280v1h-280z" fill="#6a6e79"/><g transform="translate(16 12)"><path d="m0 0h24v24h-24z" fill="none"/><path d="m15.5 14h-.8l-.3-.3c2.3-2.7 2-6.8-.7-9.2s-6.8-2-9.2.7-2 6.8.7 9.2c2.4 2.1 6 2.1 8.5 0l.3.3v.8l5 5 1.5-1.5zm-6 0c-2.5 0-4.5-2-4.5-4.5s2-4.5 4.5-4.5 4.5 2 4.5 4.5-2 4.5-4.5 4.5z" fill="#b7b9c3"/></g><path d="m63 26.8c0 .8-.3 1.6-1 2.1-.8.5-1.7.8-2.6.7-.9 0-1.9-.1-2.7-.5v-1.1c.4.2.9.3 1.3.4.5.1 1 .1 1.4.1.6 0 1.2-.1 1.8-.4.4-.3.6-.7.6-1.2 0-.3-.1-.6-.2-.9-.2-.3-.4-.5-.7-.6-.5-.3-1-.5-1.5-.6-.8-.2-1.4-.6-2-1.2-.4-.5-.6-1.1-.6-1.8s.3-1.4.9-1.8c.7-.5 1.5-.7 2.3-.7.9 0 1.9.2 2.7.5l-.4 1c-.8-.3-1.6-.5-2.4-.5-.5 0-1 .1-1.4.4-.3.3-.5.7-.5 1.2 0 .3.1.6.2.9.2.3.4.5.6.6.4.2.9.5 1.4.6.8.2 1.5.6 2.2 1.2.4.4.6 1 .6 1.6zm5.1 2.8c-1 .1-1.9-.3-2.6-1-.7-.8-1-1.8-1-2.8-.1-1 .3-2.1.9-2.9.6-.7 1.5-1.1 2.4-1.1.8 0 1.7.3 2.2.9.6.7.9 1.6.8 2.4v.7h-5.2c0 .7.2 1.4.7 2 .5.5 1.1.7 1.8.7.8 0 1.6-.2 2.4-.5v1c-.4.2-.7.3-1.1.4-.5.2-.9.2-1.3.2zm-.4-6.8c-.5 0-1.1.2-1.4.6-.4.5-.6 1-.6 1.6h3.9c0-.6-.1-1.2-.5-1.6-.3-.4-.8-.6-1.4-.6zm9.6 6.7-.2-1.1h-.1c-.3.4-.7.7-1.1 1-.4.2-.9.3-1.4.2-.6 0-1.3-.2-1.7-.6s-.7-1-.6-1.6c0-1.5 1.2-2.3 3.6-2.4h1.3v-.5c0-.5-.1-.9-.4-1.3-.3-.3-.8-.5-1.2-.4-.7 0-1.5.2-2.1.6l-.4-.9c.4-.2.8-.4 1.2-.5s.9-.2 1.3-.2c.7-.1 1.4.2 2 .6.5.5.7 1.2.6 1.9v5.1h-.8zm-2.5-.8c.6 0 1.2-.2 1.7-.6.4-.4.6-1 .6-1.6v-.7h-1.1c-.7 0-1.3.1-2 .4-.4.2-.6.7-.6 1.2 0 .4.1.7.4.9.2.3.6.4 1 .4zm9.1-6.9c.3 0 .6 0 .9.1l-.1 1.1c-.3-.1-.5-.1-.8-.1-.6 0-1.2.3-1.6.7-.4.5-.7 1.2-.6 1.8v4h-1.1v-7.4h.9l.1 1.4h.1c.2-.4.6-.8 1-1.1.3-.3.8-.5 1.2-.5zm5.3 7.8c-.9.1-1.9-.3-2.5-1-.6-.8-1-1.8-.9-2.8-.1-1 .3-2.1.9-2.9.7-.7 1.6-1.1 2.6-1 .4 0 .7 0 1.1.1.3.1.6.1.8.3l-.3 1c-.3-.1-.5-.2-.8-.2-.3-.1-.5-.1-.8-.1-1.5 0-2.3 1-2.3 2.9 0 .7.1 1.5.6 2.1.4.5 1 .8 1.7.7.7 0 1.3-.1 1.9-.4v1c-.7.2-1.3.3-2 .3zm8.8-.1v-4.8c0-.5-.1-1-.4-1.4-.4-.3-.8-.5-1.3-.5-.6-.1-1.3.2-1.7.6-.4.6-.6 1.4-.5 2.1v3.9h-1.1v-10.6h1v3.2c0 .3 0 .6-.1 1h.1c.2-.4.6-.7 1-.9s.9-.3 1.4-.3c.7-.1 1.5.2 2.1.7.5.6.8 1.3.7 2.1v4.9z" fill="#fff"/><g opacity="0" transform="translate(248 14)"><path d="m0 0h20v20h-20z" fill="none"/><path d="m16 5.2-1.2-1.2-4.8 4.8-4.8-4.8-1.2 1.2 4.8 4.8-4.8 4.8 1.2 1.2 4.8-4.8 4.8 4.8 1.2-1.2-4.8-4.8z" fill="#6a6e79"/></g></g><g transform="translate(419.5 93.792)"><g fill="none" stroke="#f0d" transform="translate(12.143)"><path d="m4.1 0v48"/><path d="m0 0h8.1"/><path d="m0 48h8.1"/></g><path d="m5.8 27.2h-1v1.6h-1.1v-1.6h-3.2v-.9l3.3-4.7h1.1v4.6h1zm-2.1-1v-1.8-1.6c-.1.3-.3.5-.4.8l-1.8 2.6zm5.2-4.7c.6 0 1.1.1 1.6.5.4.3.6.8.6 1.2 0 .8-.6 1.5-1.3 1.7.5.2.9.5 1.2.9.2.3.4.7.4 1 0 .5-.2 1.1-.6 1.4-.5.4-1.1.6-1.8.5-.6 0-1.3-.1-1.8-.5-.4-.3-.7-.9-.6-1.4 0-.4.1-.8.3-1.1.3-.4.7-.7 1.1-.8-.4-.2-.7-.5-.9-.8s-.3-.6-.3-1c0-.5.2-1 .6-1.2.3-.3.9-.4 1.5-.4zm-1.4 5.4c0 .3.1.6.4.8s.6.3 1 .3.7-.1 1-.3c.2-.2.4-.5.4-.8s-.1-.5-.3-.7c-.3-.3-.6-.5-1-.6l-.1-.1c-.4.1-.7.3-.9.6-.4.2-.5.5-.5.8zm1.3-4.5c-.3 0-.6.1-.8.2-.2.2-.3.4-.3.7 0 .2 0 .3.1.5.1.1.2.2.4.3.2.2.4.3.7.4.3-.1.6-.3.8-.5s.2-.4.2-.7-.1-.5-.3-.7c-.2-.1-.5-.2-.8-.2z" fill="#f0d"/></g><g transform="translate(444 66.363)"><g transform="translate(-54 -333.363)"><path d="m57 359h276c1.1 0 2 .9 2 2v46h-280v-46c0-1.1.9-2 2-2z" fill="#171c1e"/><path d="m57 359.5h276c.8 0 1.5.7 1.5 1.5v45.5h-279v-45.5c0-.8.7-1.5 1.5-1.5z" fill="none" stroke="#464b52"/><path d="m55 406h280v1h-280z" fill="#6a6e79"/></g><path d="m2.4 10.6v-10h1.2v8.9h4.4v1.1zm11.7 0-.2-1.1c-.3.4-.7.7-1.1 1-.4.2-.9.3-1.4.2-.6 0-1.3-.2-1.7-.6s-.7-1-.6-1.6c0-1.5 1.2-2.3 3.6-2.4h1.3v-.4c0-.5-.1-.9-.4-1.3-.3-.3-.8-.5-1.2-.4-.7 0-1.5.2-2.1.6l-.5-.9c.4-.2.8-.4 1.2-.5s.8-.2 1.3-.2c.7-.1 1.4.2 2 .6.5.5.7 1.2.6 1.9v5.1zm-2.6-.8c.6 0 1.2-.2 1.7-.6.4-.4.6-1 .6-1.6v-.6h-1.1c-.7 0-1.3.1-2 .4-.4.2-.6.7-.6 1.2 0 .4.1.7.4.9s.6.4 1 .3zm9.2-6.8c.9 0 1.7.3 2.3 1 .6.8.9 1.8.8 2.9.1 1-.2 2-.8 2.9-.6.7-1.4 1.1-2.3 1-.5 0-.9-.1-1.3-.3s-.8-.5-1-.8h-.1l-.2 1h-.8v-10.7h1.1v2.6c0 .6 0 1.1-.1 1.6h.1c.5-.8 1.4-1.2 2.3-1.2zm-.1 1c-.6-.1-1.3.2-1.7.7-.4.7-.6 1.5-.5 2.2-.1.8.1 1.6.5 2.3.4.5 1 .7 1.7.7.6 0 1.2-.3 1.6-.8.4-.7.6-1.4.5-2.2.1-.8-.1-1.5-.5-2.2-.4-.5-1-.8-1.6-.7zm8.4 6.8c-1 .1-1.9-.3-2.6-1-.7-.8-1-1.8-1-2.8-.1-1 .3-2.1.9-2.9.6-.7 1.5-1.1 2.4-1.1.8 0 1.7.3 2.2.9.6.7.9 1.6.8 2.4v.7h-5.2c0 .7.2 1.4.7 2 .5.5 1.1.7 1.8.7.8 0 1.6-.2 2.4-.5v1c-.4.2-.7.3-1.1.4s-.9.2-1.3.2zm-.3-6.8c-.5 0-1.1.2-1.4.6-.4.5-.6 1-.6 1.6h3.9c0-.6-.1-1.2-.5-1.6-.4-.5-.9-.7-1.4-.6zm6.1 6.6h-1.1v-10.6h1.1z" fill="#fff"/><path d="m26 55.6h-1.2v-4.7h-5.3v4.7h-1.2v-10h1.2v4.3h5.3v-4.3h1.2zm3.7 0h-1.1v-7.5h1.1zm-1.3-9.5c0-.2.1-.4.2-.6.1-.1.3-.2.5-.2s.3.1.5.2c.1.2.2.4.2.6s-.1.4-.2.6c-.1.1-.3.2-.5.2s-.4-.1-.5-.2c-.1-.2-.2-.4-.2-.6zm8.8 9.5v-4.8c0-.5-.1-1-.4-1.4-.4-.3-.8-.5-1.3-.5-.6-.1-1.3.2-1.7.6-.4.6-.6 1.4-.5 2.1v3.9h-1.1v-7.5h.8l.2 1h.1c.2-.4.6-.7 1-.9s.9-.3 1.4-.3c.7-.1 1.5.2 2 .7.5.6.8 1.3.7 2.1v4.9zm5.9-.8h.6c.1 0 .3-.1.4-.1v.9c-.2.1-.4.1-.5.1-.2 0-.4.1-.6.1-1.4 0-2.2-.8-2.2-2.3v-4.5h-1.1v-.5l1.1-.5.5-1.6h.7v1.7h2.2v.9h-2.2v4.4c0 .4.1.7.3 1 .1.3.5.5.8.4zm9.4.8h-1.2v-9h-3.2v-1h7.5v1h-3.2v9zm7.7.2c-1 .1-1.9-.3-2.6-1-.7-.8-1-1.8-1-2.8-.1-1 .3-2.1.9-2.9.6-.7 1.5-1.1 2.4-1.1.8 0 1.7.3 2.2.9.6.7.9 1.6.8 2.4v.7h-5.2c0 .7.2 1.4.7 2 .5.5 1.1.7 1.8.7.8 0 1.6-.2 2.4-.5v1c-.4.2-.7.3-1.1.4-.5.1-.9.2-1.3.2zm-.4-6.8c-.5 0-1.1.2-1.4.6-.4.5-.6 1-.6 1.6h3.9c0-.6-.1-1.2-.5-1.6-.3-.5-.8-.7-1.4-.6zm6.8 2.8-2.6-3.7h1.3l2 2.9 2-2.9h1.3l-2.6 3.7 2.7 3.8h-1.3l-2.1-3-2.1 3h-1.3zm8 3h.6c.1 0 .3-.1.4-.1v.9c-.2.1-.4.1-.5.1-.2 0-.4.1-.6.1-1.4 0-2.2-.8-2.2-2.3v-4.5h-1.1v-.5l1.1-.5.5-1.6h.7v1.7h2.2v.9h-2.2v4.4c0 .4.1.7.3 1 .1.3.5.5.8.4z" fill="#fff"/><path d="m245 39.6h24v24h-24z" fill="none"/></g><path d="m71.2 37.6c.1 1.2-.4 2.4-1.2 3.2-1 .8-2.2 1.2-3.5 1.1h-2.4v-8.6h2.7c1.2-.1 2.4.3 3.3 1.1.7 1 1.2 2.1 1.1 3.2zm-1.9.1c0-1.8-.8-2.8-2.4-2.8h-1v5.6h.8c1.7 0 2.6-.9 2.6-2.8zm8.6 4.3h-4.9v-8.6h4.9v1.5h-3.1v1.9h2.9v1.5h-2.9v2.2h3.1zm3.6 0h-1.8v-8.6h4.9v1.5h-3.1v2.2h2.9v1.5h-2.9zm10 0-.6-2h-3.1l-.6 2h-2l3-8.6h2.2l3 8.6zm-1-3.6c-.6-1.8-.9-2.9-1-3.1s-.1-.4-.2-.6c-.1.5-.5 1.7-1.1 3.7zm11-5v5.6c0 .6-.1 1.2-.4 1.7s-.7.9-1.2 1.1c-.6.3-1.2.4-1.9.4-.9.1-1.8-.2-2.6-.9-.6-.6-1-1.4-.9-2.3v-5.5h1.8v5.2c0 .5.1 1 .4 1.5.3.3.8.5 1.3.5s1-.1 1.3-.5.4-.9.4-1.5v-5.2zm2.1 8.6v-8.6h1.8v7.1h3.5v1.5zm10.1 0h-1.8v-7.1h-2.3v-1.5h6.5v1.5h-2.3z" fill="#fff"/><path d="m445.1 42v-8.6h1.8v7.1h3.5v1.5zm12 0-.6-2h-3.1l-.6 2h-2l3-8.6h2.2l3 8.6zm-1.1-3.6c-.6-1.8-.9-2.9-1-3.1s-.1-.4-.2-.6c-.1.5-.5 1.7-1.1 3.7zm6-1.2h.6c.4 0 .9-.1 1.3-.3.3-.2.4-.5.4-.9 0-.3-.1-.7-.4-.9-.4-.2-.9-.3-1.3-.3h-.6zm0 1.5v3.3h-1.8v-8.6h2.5c.9-.1 1.8.2 2.6.6.6.5.9 1.2.8 1.9 0 .5-.1 1-.4 1.3-.3.4-.7.7-1.2.9 1.3 1.9 2.1 3.2 2.5 3.7h-2l-2-3.3zm9.3-1.5h3.4v4.4c-.5.2-1 .3-1.6.4-.5.1-1 .1-1.5.1-1.1.1-2.2-.3-3-1.1-.7-.9-1.1-2.1-1-3.3-.1-1.2.4-2.4 1.2-3.2.9-.8 2.1-1.2 3.3-1.2.9 0 1.7.2 2.5.5l-.6 1.5c-.6-.3-1.3-.5-2-.5s-1.4.3-1.9.8c-.5.6-.7 1.4-.7 2.1-.1.8.2 1.5.6 2.1.4.5 1 .8 1.7.7.4 0 .8 0 1.2-.1v-1.8h-1.6zm10.4 4.8h-4.9v-8.6h4.9v1.5h-3.1v1.9h2.9v1.5h-2.9v2.2h3.1z" fill="#fff"/><path d="m66 222h280v72h-280z" fill="#171c1e" stroke="#464b52"/><g transform="translate(67 254)"><path d="m0 0h277v32h-277z" fill="#171c1e"/><path d="m16 21-2.9-7.6c.1.6.1 1.3.1 2.1v5.5h-.9v-8.6h1.5l2.7 7.1 2.7-7.1h1.5v8.6h-1v-5.5c0-.6 0-1.3.1-2.1l-3 7.6zm9.6.1c-.8 0-1.7-.3-2.2-.9-.6-.7-.9-1.5-.8-2.4 0-.9.2-1.8.8-2.5.5-.6 1.3-.9 2.1-.9.7 0 1.4.3 1.9.8.5.6.7 1.3.7 2.1v.7h-4.4c0 .6.2 1.2.6 1.7.4.4 1 .6 1.5.6.7 0 1.4-.2 2.1-.4v.9c-.3.1-.6.2-1 .3zm-.3-5.8c-.5 0-.9.2-1.2.5-.3.4-.5.9-.5 1.4h3.4c0-.5-.1-1-.4-1.4-.4-.4-.8-.6-1.3-.5zm8.7 5.7v-4.2c0-.4-.1-.8-.4-1.2-.3-.3-.7-.4-1.1-.4-.5 0-1.1.2-1.5.5-.4.5-.5 1.2-.5 1.8v3.5h-1v-6.4h.8l.2.9c.2-.3.5-.6.8-.7.4-.2.8-.3 1.2-.3.6 0 1.3.2 1.7.6.4.5.6 1.1.6 1.8v4.1zm3.9-6.4v4.2c0 .4.1.8.4 1.2.3.3.7.4 1.1.4.5 0 1.1-.2 1.5-.6.4-.5.5-1.2.5-1.8v-3.4h1v6.4h-.8l-.1-.9h-.1c-.2.3-.5.6-.8.7-.4.2-.8.3-1.2.3-.6 0-1.3-.2-1.8-.6-.4-.5-.6-1.1-.6-1.8v-4.2zm9.7 6.4v-8.6h1v7.7h3.8v.9zm7 0h-1v-6.4h1zm-1-8.2c0-.2 0-.4.2-.5.1-.1.3-.2.4-.2s.3.1.4.2.2.3.2.5 0 .4-.2.5c-.1.1-.3.2-.4.2-.2 0-.3-.1-.4-.2-.2-.1-.2-.3-.2-.5zm7.3 6.4c0 .5-.2 1.1-.7 1.4-.6.4-1.2.5-1.9.5s-1.4-.1-2-.4v-.9c.3.2.6.3 1 .4.3.1.7.1 1 .1.4 0 .8-.1 1.2-.2.3-.1.4-.4.4-.7s-.1-.5-.3-.6c-.4-.3-.8-.5-1.3-.6-.4-.2-.9-.3-1.3-.6-.2-.1-.4-.3-.6-.6-.1-.2-.2-.5-.2-.8 0-.5.2-1 .6-1.2.5-.3 1.1-.5 1.8-.5s1.4.1 2 .4l-.3.8c-.6-.2-1.1-.4-1.8-.4-.4 0-.7.1-1 .2-.2.1-.4.3-.4.6 0 .2 0 .3.1.4s.3.3.4.3c.4.2.7.3 1.1.5.6.2 1.1.5 1.5.8.5.4.7.8.7 1.1zm3.6 1.1h.5c.1 0 .3 0 .4-.1v.7c-.1.1-.3.1-.5.1s-.4 0-.6.1c-1.2 0-1.9-.7-1.9-2v-3.8h-.9v-.5l.9-.4.4-1.4h.6v1.5h1.9v.8h-1.9v3.8c0 .3.1.6.3.9.2.2.5.3.8.3zm5.4.7v-8.6h1v8.6zm5.3-.7h.5c.1 0 .3 0 .4-.1v.7c-.1.1-.3.1-.5.1s-.4 0-.6.1c-1.2 0-1.9-.7-1.9-2v-3.8h-.9v-.5l.9-.4.4-1.4h.6v1.5h1.9v.8h-1.9v3.8c0 .3.1.6.3.9.2.2.5.3.8.3zm4.9.8c-.8 0-1.7-.3-2.2-.9-.6-.7-.9-1.5-.8-2.4 0-.9.2-1.8.8-2.5.5-.6 1.3-.9 2.1-.9.7 0 1.4.3 1.9.8.5.6.7 1.3.7 2.1v.7h-4.6c0 .6.2 1.2.6 1.7.4.4 1 .6 1.5.6.7 0 1.4-.2 2.1-.4v.9c-.3.1-.6.2-1 .3zm-.3-5.8c-.5 0-.9.2-1.2.5-.3.4-.5.9-.5 1.4h3.4c0-.5-.1-1-.4-1.4-.4-.4-.8-.6-1.3-.5zm12.5 5.7v-4.2c0-.4-.1-.8-.3-1.2-.3-.3-.6-.4-1-.4-.5 0-1 .2-1.3.5-.3.5-.5 1-.4 1.6v3.7h-1v-4.2c0-.4-.1-.8-.3-1.2-.3-.3-.6-.4-1-.4-.5 0-1 .2-1.3.5-.3.5-.5 1.2-.4 1.8v3.5h-1v-6.4h.8l.2.9h.1c.2-.3.5-.6.8-.7.3-.2.7-.3 1.1-.3.8-.1 1.6.3 2 1.1.2-.3.5-.6.8-.8.4-.2.8-.3 1.2-.3.6 0 1.2.2 1.6.6.4.5.6 1.1.5 1.8v4.1z" fill="#fff"/><g opacity="0" transform="translate(256.225 8)"><path d="m-.2 0h14v14h-14z" fill="none"/><path d="m5.3 8.9-2.2-2.1-.8.7 3 3 6.3-6.3-.7-.7z" fill="#252a2e"/></g></g><g transform="translate(67 222)"><path d="m0 0h277v32h-277z" fill="#171c1e"/><path d="m16 21-2.9-7.6c.1.6.1 1.3.1 2.1v5.5h-.9v-8.6h1.5l2.7 7.1 2.7-7.1h1.5v8.6h-1v-5.5c0-.6 0-1.3.1-2.1l-3 7.6zm9.6.1c-.8 0-1.7-.3-2.2-.9-.6-.7-.9-1.5-.8-2.4 0-.9.2-1.8.8-2.5.5-.6 1.3-.9 2.1-.9.7 0 1.4.3 1.9.8.5.6.7 1.3.7 2.1v.7h-4.4c0 .6.2 1.2.6 1.7.4.4 1 .6 1.5.6.7 0 1.4-.2 2.1-.4v.9c-.3.1-.6.2-1 .3zm-.3-5.8c-.5 0-.9.2-1.2.5-.3.4-.5.9-.5 1.4h3.4c0-.5-.1-1-.4-1.4-.4-.4-.8-.6-1.3-.5zm8.7 5.7v-4.2c0-.4-.1-.8-.4-1.2-.3-.3-.7-.4-1.1-.4-.5 0-1.1.2-1.5.5-.4.5-.5 1.2-.5 1.8v3.5h-1v-6.4h.8l.2.9c.2-.3.5-.6.8-.7.4-.2.8-.3 1.2-.3.6 0 1.3.2 1.7.6.4.5.6 1.1.6 1.8v4.1zm3.9-6.4v4.2c0 .4.1.8.4 1.2.3.3.7.4 1.1.4.5 0 1.1-.2 1.5-.6.4-.5.5-1.2.5-1.8v-3.4h1v6.4h-.8l-.1-.9h-.1c-.2.3-.5.6-.8.7-.4.2-.8.3-1.2.3-.6 0-1.3-.2-1.8-.6-.4-.5-.6-1.1-.6-1.8v-4.2zm9.7 6.4v-8.6h1v7.7h3.8v.9zm7 0h-1v-6.4h1zm-1-8.2c0-.2 0-.4.2-.5.1-.1.3-.2.4-.2s.3.1.4.2.2.3.2.5 0 .4-.2.5c-.1.1-.3.2-.4.2-.2 0-.3-.1-.4-.2-.2-.1-.2-.3-.2-.5zm7.3 6.4c0 .5-.2 1.1-.7 1.4-.6.4-1.2.5-1.9.5s-1.4-.1-2-.4v-.9c.3.2.6.3 1 .4.3.1.7.1 1 .1.4 0 .8-.1 1.2-.2.3-.1.4-.4.4-.7s-.1-.5-.3-.6c-.4-.3-.8-.5-1.3-.6-.4-.2-.9-.3-1.3-.6-.2-.1-.4-.3-.6-.6-.1-.2-.2-.5-.2-.8 0-.5.2-1 .6-1.2.5-.3 1.1-.5 1.8-.5s1.4.1 2 .4l-.3.8c-.6-.2-1.1-.4-1.8-.4-.4 0-.7.1-1 .2-.2.1-.4.3-.4.6 0 .2 0 .3.1.4s.3.3.4.3c.4.2.7.3 1.1.5.6.2 1.1.5 1.5.8.5.4.7.8.7 1.1zm3.6 1.1h.5c.1 0 .3 0 .4-.1v.7c-.1.1-.3.1-.5.1s-.4 0-.6.1c-1.2 0-1.9-.7-1.9-2v-3.8h-.9v-.5l.9-.4.4-1.4h.6v1.5h1.9v.8h-1.9v3.8c0 .3.1.6.3.9.2.2.5.3.8.3zm5.4.7v-8.6h1v8.6zm5.3-.7h.5c.1 0 .3 0 .4-.1v.7c-.1.1-.3.1-.5.1s-.4 0-.6.1c-1.2 0-1.9-.7-1.9-2v-3.8h-.9v-.5l.9-.4.4-1.4h.6v1.5h1.9v.8h-1.9v3.8c0 .3.1.6.3.9.2.2.5.3.8.3zm4.9.8c-.8 0-1.7-.3-2.2-.9-.6-.7-.9-1.5-.8-2.4 0-.9.2-1.8.8-2.5.5-.6 1.3-.9 2.1-.9.7 0 1.4.3 1.9.8.5.6.7 1.3.7 2.1v.7h-4.6c0 .6.2 1.2.6 1.7.4.4 1 .6 1.5.6.7 0 1.4-.2 2.1-.4v.9c-.3.1-.6.2-1 .3zm-.3-5.8c-.5 0-.9.2-1.2.5-.3.4-.5.9-.5 1.4h3.4c0-.5-.1-1-.4-1.4-.4-.4-.8-.6-1.3-.5zm12.5 5.7v-4.2c0-.4-.1-.8-.3-1.2-.3-.3-.6-.4-1-.4-.5 0-1 .2-1.3.5-.3.5-.5 1-.4 1.6v3.7h-1v-4.2c0-.4-.1-.8-.3-1.2-.3-.3-.6-.4-1-.4-.5 0-1 .2-1.3.5-.3.5-.5 1.2-.4 1.8v3.5h-1v-6.4h.8l.2.9h.1c.2-.3.5-.6.8-.7.3-.2.7-.3 1.1-.3.8-.1 1.6.3 2 1.1.2-.3.5-.6.8-.8.4-.2.8-.3 1.2-.3.6 0 1.2.2 1.6.6.4.5.6 1.1.5 1.8v4.1z" fill="#fff"/><g opacity="0" transform="translate(256.225 8)"><path d="m-.2 0h14v14h-14z" fill="none"/><path d="m5.3 8.9-2.2-2.1-.8.7 3 3 6.3-6.3-.7-.7z" fill="#252a2e"/></g></g><path d="m444 222h281v104h-281z" fill="#171c1e" stroke="#464b52"/><g transform="translate(445 270)"><path d="m0 0h280v48h-280z" fill="#171c1e"/><path d="m14.1 30-3.9-10.1h-.1c.1.8.1 1.8.1 2.9v7.2h-1.2v-11.4h2l3.6 9.4h.1l3.6-9.4h2v11.4h-1.3v-7.4c0-.8 0-1.8.1-2.8h-.1l-3.9 10.2zm12.8.2c-1.1.1-2.2-.4-3-1.2-.8-.9-1.2-2-1.1-3.2-.1-1.2.3-2.4 1-3.3.7-.8 1.7-1.3 2.7-1.2 1 0 1.9.3 2.5 1.1.7.8 1 1.8.9 2.8v.8h-5.9c0 .8.2 1.6.8 2.3.5.5 1.3.8 2 .8.9 0 1.9-.2 2.7-.6v1.2c-.4.2-.9.3-1.3.4-.3 0-.8.1-1.3.1zm-.4-7.8c-.6 0-1.2.2-1.6.7s-.7 1.2-.7 1.9h4.5c0-.7-.1-1.3-.5-1.9-.5-.5-1.1-.8-1.7-.7zm11.6 7.6v-5.5c0-.6-.1-1.1-.5-1.6-.4-.4-.9-.6-1.5-.5-.7-.1-1.5.2-2 .7-.5.7-.7 1.6-.6 2.4v4.5h-1.3v-8.6h1.1l.2 1.2h.1c.3-.4.7-.8 1.1-1 .5-.2 1-.4 1.6-.3.8-.1 1.7.2 2.3.7.6.7.9 1.5.8 2.4v5.6zm5.2-8.6v5.6c0 .6.1 1.1.5 1.6.4.4.9.6 1.5.5.7.1 1.5-.2 2-.7.5-.7.7-1.6.6-2.4v-4.5h1.3v8.5h-1.2l-.2-1.1h-.1c-.3.4-.7.8-1.1 1-.5.2-1.1.3-1.6.3-.8.1-1.7-.2-2.3-.7-.6-.7-.9-1.5-.8-2.4v-5.6zm12.9 8.6v-11.4h1.3v10.2h5v1.2zm9.4 0h-1.3v-8.6h1.3zm-1.4-10.9c0-.2.1-.5.2-.7.1-.1.3-.2.5-.2s.4.1.5.2c.2.2.2.4.2.6s-.1.5-.2.7c0 .2-.2.3-.4.3s-.4-.1-.5-.2c-.2-.2-.3-.4-.3-.7zm9.7 8.6c0 .7-.3 1.4-.9 1.8-.7.5-1.6.7-2.5.6-.9 0-1.8-.1-2.7-.5v-1.2c.4.2.9.4 1.3.5s.9.2 1.4.2 1.1-.1 1.6-.3c.4-.2.6-.6.5-1 0-.3-.2-.7-.4-.9-.5-.4-1.1-.6-1.7-.8s-1.2-.5-1.7-.8c-.3-.2-.6-.4-.8-.8-.2-.3-.3-.7-.2-1 0-.7.3-1.3.9-1.7.7-.4 1.5-.7 2.3-.6.9 0 1.8.2 2.7.6l-.5 1.1c-.7-.3-1.5-.5-2.3-.5-.5 0-1 .1-1.4.3-.3.2-.5.5-.5.8 0 .2.1.4.2.6.2.2.3.3.6.5.5.2 1 .5 1.5.6.8.2 1.5.6 2.1 1.1.3.3.5.8.5 1.4zm4.9 1.4c.2 0 .4 0 .7-.1.2 0 .3-.1.5-.1v1c-.2.1-.4.1-.6.2-.2 0-.5.1-.7.1-1.7 0-2.5-.9-2.5-2.6v-5.1h-1.2v-.6l1.2-.5.5-1.8h.8v2h2.5v1h-2.5v5c0 .4.1.9.4 1.2.1.2.5.3.9.3zm7.2.9v-11.4h1.3v11.4zm7-.9c.2 0 .4 0 .7-.1.2 0 .3-.1.5-.1v1c-.2.1-.4.1-.6.2-.2 0-.5.1-.7.1-1.7 0-2.5-.9-2.5-2.6v-5.1h-1.2v-.6l1.2-.5.5-1.8h.8v2h2.5v1h-2.5v5c0 .4.1.9.4 1.2.2.2.6.3.9.3zm6.5 1.1c-1.1.1-2.2-.4-3-1.2-.8-.9-1.2-2-1.1-3.2-.1-1.2.3-2.4 1-3.3.7-.8 1.7-1.3 2.7-1.2 1 0 1.9.3 2.5 1.1.7.8 1 1.8.9 2.8v.8h-5.9c0 .8.2 1.6.8 2.3.5.5 1.3.8 2 .8.9 0 1.9-.2 2.7-.6v1.2c-.4.2-.9.3-1.3.4-.3 0-.8.1-1.3.1zm-.3-7.8c-.6 0-1.2.2-1.6.7s-.7 1.2-.7 1.9h4.5c0-.7-.1-1.3-.5-1.9-.5-.5-1.1-.8-1.7-.7zm16.6 7.6v-5.6c0-.5-.1-1.1-.4-1.5-.4-.4-.9-.6-1.4-.5-.7-.1-1.3.2-1.8.7-.4.6-.6 1.4-.6 2.1v4.8h-1.3v-5.6c0-.5-.1-1.1-.4-1.5-.4-.4-.9-.6-1.4-.5-.7-.1-1.3.2-1.8.7-.4.7-.6 1.6-.6 2.4v4.5h-1.3v-8.6h1.1l.2 1.2h.1c.2-.4.6-.8 1-1 .5-.2 1-.4 1.5-.4 1.1-.1 2.2.4 2.6 1.5h.1c.3-.5.6-.8 1.1-1.1s1.1-.4 1.7-.4c.8-.1 1.6.2 2.2.7.5.7.8 1.5.7 2.4v5.7z" fill="#b7b9c3" opacity=".4" transform="translate(7)"/></g><g transform="translate(445 222)"><path d="m0 0h280v48h-280z" fill="#171c1e"/><path d="m14.1 30-3.9-10.1h-.1c.1.8.1 1.8.1 2.9v7.2h-1.2v-11.4h2l3.6 9.4h.1l3.6-9.4h2v11.4h-1.3v-7.4c0-.8 0-1.8.1-2.8h-.1l-3.9 10.2zm12.8.2c-1.1.1-2.2-.4-3-1.2-.8-.9-1.2-2-1.1-3.2-.1-1.2.3-2.4 1-3.3.7-.8 1.7-1.3 2.7-1.2 1 0 1.9.3 2.5 1.1.7.8 1 1.8.9 2.8v.8h-5.9c0 .8.2 1.6.8 2.3.5.5 1.3.8 2 .8.9 0 1.9-.2 2.7-.6v1.2c-.4.2-.9.3-1.3.4-.3 0-.8.1-1.3.1zm-.4-7.8c-.6 0-1.2.2-1.6.7s-.7 1.2-.7 1.9h4.5c0-.7-.1-1.3-.5-1.9-.5-.5-1.1-.8-1.7-.7zm11.6 7.6v-5.5c0-.6-.1-1.1-.5-1.6-.4-.4-.9-.6-1.5-.5-.7-.1-1.5.2-2 .7-.5.7-.7 1.6-.6 2.4v4.5h-1.3v-8.6h1.1l.2 1.2h.1c.3-.4.7-.8 1.1-1 .5-.2 1-.4 1.6-.3.8-.1 1.7.2 2.3.7.6.7.9 1.5.8 2.4v5.6zm5.2-8.6v5.6c0 .6.1 1.1.5 1.6.4.4.9.6 1.5.5.7.1 1.5-.2 2-.7.5-.7.7-1.6.6-2.4v-4.5h1.3v8.5h-1.2l-.2-1.1h-.1c-.3.4-.7.8-1.1 1-.5.2-1.1.3-1.6.3-.8.1-1.7-.2-2.3-.7-.6-.7-.9-1.5-.8-2.4v-5.6zm12.9 8.6v-11.4h1.3v10.2h5v1.2zm9.4 0h-1.3v-8.6h1.3zm-1.4-10.9c0-.2.1-.5.2-.7.1-.1.3-.2.5-.2s.4.1.5.2c.2.2.2.4.2.6s-.1.5-.2.7c0 .2-.2.3-.4.3s-.4-.1-.5-.2c-.2-.2-.3-.4-.3-.7zm9.7 8.6c0 .7-.3 1.4-.9 1.8-.7.5-1.6.7-2.5.6-.9 0-1.8-.1-2.7-.5v-1.2c.4.2.9.4 1.3.5s.9.2 1.4.2 1.1-.1 1.6-.3c.4-.2.6-.6.5-1 0-.3-.2-.7-.4-.9-.5-.4-1.1-.6-1.7-.8s-1.2-.5-1.7-.8c-.3-.2-.6-.4-.8-.8-.2-.3-.3-.7-.2-1 0-.7.3-1.3.9-1.7.7-.4 1.5-.7 2.3-.6.9 0 1.8.2 2.7.6l-.5 1.1c-.7-.3-1.5-.5-2.3-.5-.5 0-1 .1-1.4.3-.3.2-.5.5-.5.8 0 .2.1.4.2.6.2.2.3.3.6.5.5.2 1 .5 1.5.6.8.2 1.5.6 2.1 1.1.3.3.5.8.5 1.4zm4.9 1.4c.2 0 .4 0 .7-.1.2 0 .3-.1.5-.1v1c-.2.1-.4.1-.6.2-.2 0-.5.1-.7.1-1.7 0-2.5-.9-2.5-2.6v-5.1h-1.2v-.6l1.2-.5.5-1.8h.8v2h2.5v1h-2.5v5c0 .4.1.9.4 1.2.1.2.5.3.9.3zm7.2.9v-11.4h1.3v11.4zm7-.9c.2 0 .4 0 .7-.1.2 0 .3-.1.5-.1v1c-.2.1-.4.1-.6.2-.2 0-.5.1-.7.1-1.7 0-2.5-.9-2.5-2.6v-5.1h-1.2v-.6l1.2-.5.5-1.8h.8v2h2.5v1h-2.5v5c0 .4.1.9.4 1.2.2.2.6.3.9.3zm6.5 1.1c-1.1.1-2.2-.4-3-1.2-.8-.9-1.2-2-1.1-3.2-.1-1.2.3-2.4 1-3.3.7-.8 1.7-1.3 2.7-1.2 1 0 1.9.3 2.5 1.1.7.8 1 1.8.9 2.8v.8h-5.9c0 .8.2 1.6.8 2.3.5.5 1.3.8 2 .8.9 0 1.9-.2 2.7-.6v1.2c-.4.2-.9.3-1.3.4-.3 0-.8.1-1.3.1zm-.3-7.8c-.6 0-1.2.2-1.6.7s-.7 1.2-.7 1.9h4.5c0-.7-.1-1.3-.5-1.9-.5-.5-1.1-.8-1.7-.7zm16.6 7.6v-5.6c0-.5-.1-1.1-.4-1.5-.4-.4-.9-.6-1.4-.5-.7-.1-1.3.2-1.8.7-.4.6-.6 1.4-.6 2.1v4.8h-1.3v-5.6c0-.5-.1-1.1-.4-1.5-.4-.4-.9-.6-1.4-.5-.7-.1-1.3.2-1.8.7-.4.7-.6 1.6-.6 2.4v4.5h-1.3v-8.6h1.1l.2 1.2h.1c.2-.4.6-.8 1-1 .5-.2 1-.4 1.5-.4 1.1-.1 2.2.4 2.6 1.5h.1c.3-.5.6-.8 1.1-1.1s1.1-.4 1.7-.4c.8-.1 1.6.2 2.2.7.5.7.8 1.5.7 2.4v5.7z" fill="#fff" transform="translate(7)"/></g><g transform="translate(37.5 222)"><g fill="none" stroke="#f0d" transform="translate(12.143)"><path d="m4.1 0v32"/><path d="m0 0h8.1"/><path d="m0 32h8.1"/></g><path d="m5.3 14.8c0 .4-.1.8-.4 1.1s-.7.5-1.1.6c.5 0 .9.2 1.3.5.3.3.4.7.4 1.1 0 .6-.2 1.2-.7 1.6-.6.4-1.3.6-2.1.6-.7 0-1.4-.1-2-.4v-1c.3.2.6.3 1 .3.3.1.6.1 1 .1s.9-.1 1.2-.3.4-.6.4-1c0-.3-.2-.7-.5-.8-.4-.2-.9-.3-1.4-.3h-.6v-.9h.6c1.1 0 1.7-.4 1.7-1.2 0-.3-.1-.5-.3-.7-.2 0-.5-.1-.8 0-.3 0-.5 0-.8.1s-.6.3-.9.4l-.6-.8c.7-.5 1.5-.7 2.3-.7.6 0 1.2.1 1.7.5.4.3.6.7.6 1.2zm6 5.5h-4.9v-.9l1.8-1.9c.4-.4.7-.8 1.1-1.2.2-.2.3-.4.4-.7.1-.2.1-.4.1-.7s-.1-.6-.3-.8-.5-.3-.8-.3-.5.1-.8.2-.6.3-.9.5l-.5-.5c.3-.3.7-.5 1.2-.7.4-.1.8-.2 1.2-.2.6 0 1.1.2 1.6.5.4.4.6.9.6 1.4 0 .3-.1.6-.2.9s-.3.6-.5.9c-.4.4-.8.9-1.2 1.2l-1.2 1.2h3.4z" fill="#f0d"/></g><g transform="translate(419.5 222)"><g fill="none" stroke="#f0d" transform="translate(12.143)"><path d="m4.1 0v48"/><path d="m0 0h8.1"/><path d="m0 48h8.1"/></g><path d="m5.8 27.2h-1v1.6h-1.1v-1.6h-3.2v-.9l3.3-4.7h1.1v4.6h1zm-2.1-1v-1.8-1.6c-.1.3-.3.5-.4.8l-1.8 2.6zm5.2-4.7c.6 0 1.1.1 1.6.5.4.3.6.8.6 1.2 0 .8-.6 1.5-1.3 1.7.5.2.9.5 1.2.9.2.3.4.7.4 1 0 .5-.2 1.1-.6 1.4-.5.4-1.1.6-1.8.5-.6 0-1.3-.1-1.8-.5-.4-.3-.7-.9-.6-1.4 0-.4.1-.8.3-1.1.3-.4.7-.7 1.1-.8-.4-.2-.7-.5-.9-.8s-.3-.6-.3-1c0-.5.2-1 .6-1.2.3-.3.9-.4 1.5-.4zm-1.4 5.4c0 .3.1.6.4.8s.6.3 1 .3.7-.1 1-.3c.2-.2.4-.5.4-.8s-.1-.5-.3-.7c-.3-.3-.6-.5-1-.6l-.1-.1c-.4.1-.7.3-.9.6-.4.2-.5.5-.5.8zm1.3-4.5c-.3 0-.6.1-.8.2-.2.2-.3.4-.3.7 0 .2 0 .3.1.5.1.1.2.2.4.3.2.2.4.3.7.4.3-.1.6-.3.8-.5s.2-.4.2-.7-.1-.5-.3-.7c-.2-.1-.5-.2-.8-.2z" fill="#f0d"/></g></svg>