<svg xmlns="http://www.w3.org/2000/svg" width="790" height="283"><defs><filter id="a" x="72" y="65" width="292" height="180" filterUnits="userSpaceOnUse"><feOffset/><feGaussianBlur stdDeviation="2" result="blur"/><feFlood flood-opacity=".161"/><feComposite operator="in" in2="blur"/><feComposite in="SourceGraphic"/></filter><filter id="b" x="418" y="65" width="292" height="84" filterUnits="userSpaceOnUse"><feOffset/><feGaussianBlur stdDeviation="2" result="blur-2"/><feFlood flood-opacity=".161"/><feComposite operator="in" in2="blur-2"/><feComposite in="SourceGraphic"/></filter></defs><g data-name="Rectangle 3463" fill="#f1f1f6" stroke="#cbcdd6"><path stroke="none" d="M0 0h790v283H0z"/><path fill="none" d="M.5.5h789v282H.5z"/></g><g data-name="search + Menu"><g data-name="Search Input"><g data-name="Rectangle 1841" fill="#fff" stroke="#e0e1e9"><path d="M80 39h276a2 2 0 0 1 2 2v30H78V41a2 2 0 0 1 2-2Z" stroke="none"/><path d="M80 39.5h276a1.5 1.5 0 0 1 1.5 1.5v29.5h-279V41a1.5 1.5 0 0 1 1.5-1.5Z" fill="none"/></g><path data-name="Bottom Line" fill="#217cbb" d="M78 69h280v2H78z"/><g data-name="Search Icon"><path data-name="Path 6175" d="M86 45h20v20H86Z" fill="none"/><path data-name="Path 6176" d="M98.641 56.484h-.609l-.216-.208a5.021 5.021 0 1 0-.54.54l.208.216v.609l3.856 3.849 1.149-1.149Zm-4.628 0a3.471 3.471 0 1 1 3.471-3.471 3.466 3.466 0 0 1-3.471 3.471Z" fill="#6a6e79"/></g><path data-name="Path 6583" d="m120.563 59-1.063-2.725h-3.437L115.008 59H114l3.387-8.6h.838l3.369 8.6Zm-1.377-3.621-1-2.654q-.193-.5-.4-1.236a11.1 11.1 0 0 1-.369 1.236l-1.003 2.654ZM123.6 59h-.975v-9.117h.975Zm3.035 0h-.975v-9.117h.973Zm10.756-6.07a2.4 2.4 0 0 1-.888 2 4.021 4.021 0 0 1-2.54.7h-1.008V59h-1v-8.566h2.225q3.211 0 3.211 2.496Zm-4.436 1.845h.9a3.332 3.332 0 0 0 1.916-.428 1.576 1.576 0 0 0 .592-1.371 1.478 1.478 0 0 0-.563-1.265 2.908 2.908 0 0 0-1.734-.416h-1.111Zm9.012-2.314a3.806 3.806 0 0 1 .768.07l-.135.9a3.313 3.313 0 0 0-.7-.088 1.712 1.712 0 0 0-1.333.633 2.307 2.307 0 0 0-.554 1.576V59h-.973v-6.422h.8l.111 1.189H140a2.823 2.823 0 0 1 .861-.967 1.939 1.939 0 0 1 1.106-.339Zm7.512 3.322a3.543 3.543 0 0 1-.791 2.452 2.786 2.786 0 0 1-2.188.882 2.9 2.9 0 0 1-1.529-.4 2.668 2.668 0 0 1-1.031-1.16 4.043 4.043 0 0 1-.363-1.77 3.537 3.537 0 0 1 .785-2.446 2.777 2.777 0 0 1 2.18-.876 2.717 2.717 0 0 1 2.142.9 3.527 3.527 0 0 1 .795 2.418Zm-4.893 0a3.048 3.048 0 0 0 .492 1.875 1.708 1.708 0 0 0 1.447.642 1.72 1.72 0 0 0 1.45-.642 3.033 3.033 0 0 0 .5-1.878 2.984 2.984 0 0 0-.5-1.86 1.74 1.74 0 0 0-1.462-.636 1.712 1.712 0 0 0-1.441.627 3.017 3.017 0 0 0-.486 1.872Zm5.818 6.1a2.341 2.341 0 0 1-.9-.146v-.792a2.853 2.853 0 0 0 .8.117.838.838 0 0 0 .671-.249 1.142 1.142 0 0 0 .214-.759v-7.476h.973v7.406q-.006 1.899-1.762 1.899Zm.7-11.045a.646.646 0 0 1 .164-.489.573.573 0 0 1 .41-.155.573.573 0 0 1 .4.158.634.634 0 0 1 .17.486.644.644 0 0 1-.17.489.567.567 0 0 1-.4.161.562.562 0 0 1-.41-.161.658.658 0 0 1-.168-.489Zm5.828 8.279a2.95 2.95 0 0 1-2.247-.867 3.357 3.357 0 0 1-.823-2.408 3.723 3.723 0 0 1 .765-2.467 2.54 2.54 0 0 1 2.054-.914 2.422 2.422 0 0 1 1.91.794 3.043 3.043 0 0 1 .7 2.095v.615h-4.422a2.546 2.546 0 0 0 .571 1.717 1.976 1.976 0 0 0 1.526.586 5.172 5.172 0 0 0 2.051-.434v.866a5.147 5.147 0 0 1-.976.319 5.483 5.483 0 0 1-1.109.098Zm-.264-5.842a1.588 1.588 0 0 0-1.233.5 2.323 2.323 0 0 0-.542 1.395h3.357a2.139 2.139 0 0 0-.41-1.409 1.444 1.444 0 0 0-1.172-.486Zm6.85 5.842a2.741 2.741 0 0 1-2.159-.858 3.53 3.53 0 0 1-.765-2.429 3.64 3.64 0 0 1 .776-2.49 2.8 2.8 0 0 1 2.212-.879 4.389 4.389 0 0 1 .926.1 3.05 3.05 0 0 1 .727.234l-.3.826a4.574 4.574 0 0 0-.7-.214 3.139 3.139 0 0 0-.674-.085q-1.957 0-1.957 2.5a2.972 2.972 0 0 0 .478 1.816 1.661 1.661 0 0 0 1.415.633 4.326 4.326 0 0 0 1.646-.346v.861a3.509 3.509 0 0 1-1.625.331Zm5.221-.8a3.177 3.177 0 0 0 .5-.038 3.224 3.224 0 0 0 .378-.079v.744a1.778 1.778 0 0 1-.466.126 3.5 3.5 0 0 1-.554.05q-1.863 0-1.863-1.963v-3.82h-.92v-.469l.92-.4.41-1.371h.563v1.488h1.863v.756h-1.863v3.779a1.3 1.3 0 0 0 .275.88.958.958 0 0 0 .756.314Zm6.3-1.066a1.609 1.609 0 0 1-.668 1.383 3.14 3.14 0 0 1-1.871.483 4.077 4.077 0 0 1-1.992-.4v-.9a4.818 4.818 0 0 0 .992.363 4.147 4.147 0 0 0 1.022.135 2.319 2.319 0 0 0 1.178-.244.8.8 0 0 0 .41-.741.8.8 0 0 0-.325-.642 5.115 5.115 0 0 0-1.269-.63 6.879 6.879 0 0 1-1.274-.583 1.741 1.741 0 0 1-.562-.565 1.475 1.475 0 0 1-.185-.756 1.441 1.441 0 0 1 .639-1.239 2.976 2.976 0 0 1 1.752-.454 5.126 5.126 0 0 1 2.027.422l-.346.791a4.654 4.654 0 0 0-1.752-.4 2.016 2.016 0 0 0-1.043.217.67.67 0 0 0-.352.6.728.728 0 0 0 .132.439 1.3 1.3 0 0 0 .425.346 9.493 9.493 0 0 0 1.123.474 4.2 4.2 0 0 1 1.544.838 1.478 1.478 0 0 1 .399 1.06Z" fill="#252a2e"/><path fill="none" stroke="#252a2e" d="M178.5 45.5v18"/></g><g data-name="Group 156743"><g filter="url(#a)"><path data-name="Rectangle 3464" fill="#fff" d="M78 71h280v168H78z"/></g><g data-name="Group 156742"><g data-name="List Item Condensed"><path data-name="Rectangle 3286" fill="#fff" d="M79 199h277v32H79z"/><path data-name="Path 6588" d="M97.646 211.434v5.543a3.019 3.019 0 0 1-.885 2.3 3.393 3.393 0 0 1-2.431.84 3.244 3.244 0 0 1-2.393-.844 3.129 3.129 0 0 1-.847-2.32v-5.52h1v5.59a2.2 2.2 0 0 0 .582 1.647 2.364 2.364 0 0 0 1.723.574 2.28 2.28 0 0 0 1.67-.577 2.22 2.22 0 0 0 .585-1.655v-5.578ZM105.3 220l-1.068-2.725H100.8L99.744 220h-1.008l3.387-8.6h.838l3.369 8.6Zm-1.378-3.621-1-2.654q-.193-.5-.4-1.236a11.1 11.1 0 0 1-.369 1.236l-1.003 2.654Zm8.625 3.621h-5.631v-.838l2.256-2.268a16.612 16.612 0 0 0 1.359-1.488 3.8 3.8 0 0 0 .492-.867 2.484 2.484 0 0 0 .164-.908 1.44 1.44 0 0 0-.416-1.087 1.593 1.593 0 0 0-1.154-.4 2.9 2.9 0 0 0-1.011.176 4.029 4.029 0 0 0-1.063.639l-.516-.662a3.949 3.949 0 0 1 2.578-.984 2.724 2.724 0 0 1 1.893.618 2.126 2.126 0 0 1 .686 1.661 3.208 3.208 0 0 1-.457 1.608 10.23 10.23 0 0 1-1.711 2.016l-1.875 1.835v.049h4.406Zm4.066-8.689a2.9 2.9 0 0 1 1.857.545 1.817 1.817 0 0 1 .686 1.506 1.875 1.875 0 0 1-.393 1.154 3.468 3.468 0 0 1-1.254.949 4.216 4.216 0 0 1 1.482 1.046 1.969 1.969 0 0 1 .439 1.269 2.125 2.125 0 0 1-.744 1.7 3.038 3.038 0 0 1-2.039.636 3.266 3.266 0 0 1-2.109-.6 2.069 2.069 0 0 1-.738-1.7 2.541 2.541 0 0 1 1.793-2.291 3.309 3.309 0 0 1-1.16-.987 2.1 2.1 0 0 1-.352-1.187 1.808 1.808 0 0 1 .688-1.485 2.855 2.855 0 0 1 1.844-.555Zm-1.851 6.527a1.326 1.326 0 0 0 .489 1.1 2.143 2.143 0 0 0 1.374.393 2.047 2.047 0 0 0 1.359-.41 1.393 1.393 0 0 0 .486-1.125 1.371 1.371 0 0 0-.457-1.011 4.663 4.663 0 0 0-1.594-.858 3.468 3.468 0 0 0-1.266.829 1.607 1.607 0 0 0-.391 1.082Zm1.838-5.738a1.725 1.725 0 0 0-1.148.352 1.166 1.166 0 0 0-.416.938 1.342 1.342 0 0 0 .346.926 3.61 3.61 0 0 0 1.277.773 3.2 3.2 0 0 0 1.187-.756 1.4 1.4 0 0 0 .349-.943 1.153 1.153 0 0 0-.425-.94 1.79 1.79 0 0 0-1.17-.35Zm7.748 7.9v-8.566h1v7.666h3.779v.9Zm7.052 0h-.97v-6.422h.97Zm-1.052-8.162a.646.646 0 0 1 .164-.489.573.573 0 0 1 .41-.155.573.573 0 0 1 .4.158.634.634 0 0 1 .17.486.644.644 0 0 1-.17.489.567.567 0 0 1-.4.161.562.562 0 0 1-.41-.161.658.658 0 0 1-.164-.489Zm8.373 1.74v.615l-1.189.141a2.045 2.045 0 0 1 .293.536 2.046 2.046 0 0 1 .129.747 1.9 1.9 0 0 1-.645 1.506 2.6 2.6 0 0 1-1.77.563 2.947 2.947 0 0 1-.539-.047.957.957 0 0 0-.621.826.42.42 0 0 0 .217.39 1.584 1.584 0 0 0 .744.126h1.137a2.545 2.545 0 0 1 1.6.439 1.527 1.527 0 0 1 .562 1.28 1.823 1.823 0 0 1-.855 1.626 4.579 4.579 0 0 1-2.5.56 3.41 3.41 0 0 1-1.942-.469 1.513 1.513 0 0 1-.683-1.324 1.487 1.487 0 0 1 .378-1.017 1.909 1.909 0 0 1 1.055-.576 1.017 1.017 0 0 1-.413-.346.915.915 0 0 1-.167-.545 1.034 1.034 0 0 1 .188-.619 1.971 1.971 0 0 1 .592-.51 1.735 1.735 0 0 1-.812-.7 2.049 2.049 0 0 1-.313-1.125 2.078 2.078 0 0 1 .633-1.623 2.584 2.584 0 0 1 1.793-.571 3.26 3.26 0 0 1 .908.117Zm-5.121 7.5a.872.872 0 0 0 .439.791 2.425 2.425 0 0 0 1.26.27 3.515 3.515 0 0 0 1.813-.366 1.121 1.121 0 0 0 .588-.994.786.786 0 0 0-.322-.724 2.5 2.5 0 0 0-1.213-.2H135a1.536 1.536 0 0 0-1.031.315 1.131 1.131 0 0 0-.369.908Zm.527-5.443a1.307 1.307 0 0 0 .381 1.02 1.521 1.521 0 0 0 1.06.345 1.241 1.241 0 0 0 1.424-1.383 1.277 1.277 0 0 0-1.441-1.447 1.427 1.427 0 0 0-1.055.369 1.487 1.487 0 0 0-.369 1.096ZM144.434 220v-4.154a1.676 1.676 0 0 0-.357-1.172 1.456 1.456 0 0 0-1.119-.387 1.834 1.834 0 0 0-1.479.551 2.79 2.79 0 0 0-.466 1.8V220h-.973v-9.117h.973v2.76a6.013 6.013 0 0 1-.047.826h.059a1.984 1.984 0 0 1 .817-.729 2.657 2.657 0 0 1 1.21-.267 2.478 2.478 0 0 1 1.767.56 2.357 2.357 0 0 1 .589 1.778V220Zm5.045-.686a3.177 3.177 0 0 0 .5-.038 3.224 3.224 0 0 0 .378-.076v.744a1.778 1.778 0 0 1-.466.126 3.5 3.5 0 0 1-.554.05q-1.863 0-1.863-1.963v-3.82h-.92v-.469l.92-.4.41-1.371h.563v1.488h1.863v.756h-1.863v3.779a1.3 1.3 0 0 0 .276.88.958.958 0 0 0 .756.314Zm3.134.686h-.973v-6.422h.973Zm-1.054-8.162a.646.646 0 0 1 .164-.489.573.573 0 0 1 .41-.155.573.573 0 0 1 .4.158.634.634 0 0 1 .17.486.644.644 0 0 1-.17.489.567.567 0 0 1-.4.161.562.562 0 0 1-.41-.161.658.658 0 0 1-.164-.489ZM159.07 220v-4.154a1.676 1.676 0 0 0-.357-1.172 1.456 1.456 0 0 0-1.119-.387 1.846 1.846 0 0 0-1.477.545 2.751 2.751 0 0 0-.469 1.8V220h-.973v-6.422h.791l.158.879h.047a1.986 1.986 0 0 1 .838-.735 2.722 2.722 0 0 1 1.2-.261 2.439 2.439 0 0 1 1.746.56 2.381 2.381 0 0 1 .586 1.79V220Zm8.23-6.422v.615l-1.189.141a2.045 2.045 0 0 1 .293.536 2.046 2.046 0 0 1 .129.747 1.9 1.9 0 0 1-.645 1.506 2.6 2.6 0 0 1-1.77.563 2.947 2.947 0 0 1-.539-.047.957.957 0 0 0-.621.826.42.42 0 0 0 .217.39 1.584 1.584 0 0 0 .744.126h1.137a2.545 2.545 0 0 1 1.6.439 1.527 1.527 0 0 1 .559 1.28 1.823 1.823 0 0 1-.855 1.626 4.579 4.579 0 0 1-2.5.56 3.41 3.41 0 0 1-1.942-.469 1.513 1.513 0 0 1-.683-1.324 1.487 1.487 0 0 1 .378-1.017 1.909 1.909 0 0 1 1.055-.576 1.017 1.017 0 0 1-.413-.346.915.915 0 0 1-.167-.545 1.034 1.034 0 0 1 .188-.615 1.971 1.971 0 0 1 .592-.51 1.735 1.735 0 0 1-.812-.7 2.049 2.049 0 0 1-.313-1.125 2.078 2.078 0 0 1 .633-1.626 2.584 2.584 0 0 1 1.793-.571 3.26 3.26 0 0 1 .908.117Zm-5.121 7.5a.872.872 0 0 0 .439.791 2.425 2.425 0 0 0 1.26.27 3.515 3.515 0 0 0 1.813-.366 1.121 1.121 0 0 0 .589-.993.786.786 0 0 0-.322-.724 2.5 2.5 0 0 0-1.213-.2h-1.169a1.536 1.536 0 0 0-1.031.314 1.131 1.131 0 0 0-.369.908Zm.521-5.443a1.307 1.307 0 0 0 .381 1.02 1.521 1.521 0 0 0 1.064.345 1.241 1.241 0 0 0 1.424-1.383 1.277 1.277 0 0 0-1.442-1.447 1.427 1.427 0 0 0-1.055.369 1.487 1.487 0 0 0-.372 1.096Zm15.645-4.2v5.543a3.019 3.019 0 0 1-.885 2.3 3.393 3.393 0 0 1-2.432.838 3.244 3.244 0 0 1-2.394-.844 3.129 3.129 0 0 1-.847-2.32v-5.52h1v5.59a2.2 2.2 0 0 0 .586 1.646 2.364 2.364 0 0 0 1.727.576 2.28 2.28 0 0 0 1.67-.577 2.22 2.22 0 0 0 .586-1.655v-5.578Zm5.112 8.682a2.779 2.779 0 0 1-1.146-.231 2.154 2.154 0 0 1-.87-.712h-.07a8.614 8.614 0 0 1 .07 1.066v2.643h-.973v-9.3h.791l.135.879h.047a2.259 2.259 0 0 1 .873-.762 2.654 2.654 0 0 1 1.143-.234 2.374 2.374 0 0 1 1.972.873 3.844 3.844 0 0 1 .694 2.449 3.821 3.821 0 0 1-.706 2.458 2.378 2.378 0 0 1-1.96.871Zm-.141-5.83a1.724 1.724 0 0 0-1.424.545 2.8 2.8 0 0 0-.451 1.734v.217a3.214 3.214 0 0 0 .451 1.937 1.716 1.716 0 0 0 1.448.58 1.5 1.5 0 0 0 1.3-.674 3.2 3.2 0 0 0 .472-1.857 3.075 3.075 0 0 0-.472-1.843 1.551 1.551 0 0 0-1.324-.639Zm9.762-.709v.615l-1.189.141a2.045 2.045 0 0 1 .293.536 2.046 2.046 0 0 1 .129.747 1.9 1.9 0 0 1-.645 1.506 2.6 2.6 0 0 1-1.77.563 2.947 2.947 0 0 1-.539-.047.957.957 0 0 0-.621.826.42.42 0 0 0 .217.39 1.584 1.584 0 0 0 .744.126h1.137a2.545 2.545 0 0 1 1.6.439 1.527 1.527 0 0 1 .566 1.28 1.823 1.823 0 0 1-.855 1.626 4.579 4.579 0 0 1-2.5.56 3.41 3.41 0 0 1-1.945-.472 1.513 1.513 0 0 1-.68-1.324 1.487 1.487 0 0 1 .375-1.014 1.909 1.909 0 0 1 1.054-.576 1.017 1.017 0 0 1-.413-.346.915.915 0 0 1-.167-.545 1.034 1.034 0 0 1 .188-.615 1.971 1.971 0 0 1 .592-.51 1.735 1.735 0 0 1-.812-.7 2.049 2.049 0 0 1-.313-1.125 2.078 2.078 0 0 1 .633-1.626 2.584 2.584 0 0 1 1.793-.571 3.26 3.26 0 0 1 .908.117Zm-5.121 7.5a.872.872 0 0 0 .439.791 2.425 2.425 0 0 0 1.26.27 3.515 3.515 0 0 0 1.813-.366 1.121 1.121 0 0 0 .589-.993.786.786 0 0 0-.322-.724 2.5 2.5 0 0 0-1.213-.2h-1.166a1.536 1.536 0 0 0-1.031.314 1.131 1.131 0 0 0-.369.908Zm.527-5.443a1.307 1.307 0 0 0 .381 1.02 1.521 1.521 0 0 0 1.061.345 1.241 1.241 0 0 0 1.424-1.383 1.277 1.277 0 0 0-1.442-1.447 1.427 1.427 0 0 0-1.055.369 1.487 1.487 0 0 0-.369 1.096Zm8.842-2.174a3.806 3.806 0 0 1 .768.07l-.135.9a3.313 3.313 0 0 0-.7-.088 1.712 1.712 0 0 0-1.333.633 2.307 2.307 0 0 0-.554 1.576V220h-.972v-6.422h.8l.111 1.189h.047a2.823 2.823 0 0 1 .861-.967 1.939 1.939 0 0 1 1.107-.339Zm5.918 6.539-.193-.914H203a2.7 2.7 0 0 1-.958.817 2.92 2.92 0 0 1-1.192.214 2.145 2.145 0 0 1-1.5-.492 1.8 1.8 0 0 1-.542-1.4q0-1.945 3.111-2.039l1.09-.035v-.4a1.628 1.628 0 0 0-.325-1.116 1.337 1.337 0 0 0-1.04-.36 4.238 4.238 0 0 0-1.816.492l-.3-.744a4.571 4.571 0 0 1 1.04-.4 4.5 4.5 0 0 1 1.134-.146 2.446 2.446 0 0 1 1.7.51 2.128 2.128 0 0 1 .554 1.635V220Zm-2.2-.686a1.974 1.974 0 0 0 1.427-.5 1.842 1.842 0 0 0 .519-1.395v-.58l-.973.041a3.538 3.538 0 0 0-1.673.36 1.087 1.087 0 0 0-.513.993 1 1 0 0 0 .319.8 1.326 1.326 0 0 0 .897.281Zm9.293-.176h-.053a2.285 2.285 0 0 1-2.016.979 2.384 2.384 0 0 1-1.96-.861 3.791 3.791 0 0 1-.7-2.449 3.855 3.855 0 0 1 .7-2.467 2.366 2.366 0 0 1 1.957-.879 2.335 2.335 0 0 1 2 .949h.076l-.041-.463-.023-.451v-2.613h.973V220h-.791Zm-1.942.162a1.771 1.771 0 0 0 1.444-.542 2.739 2.739 0 0 0 .448-1.749v-.205a3.222 3.222 0 0 0-.454-1.948 1.724 1.724 0 0 0-1.45-.583 1.489 1.489 0 0 0-1.31.665 3.307 3.307 0 0 0-.454 1.878 3.17 3.17 0 0 0 .451 1.857 1.528 1.528 0 0 0 1.325.627Zm7.641.814a2.95 2.95 0 0 1-2.247-.867 3.357 3.357 0 0 1-.823-2.408 3.723 3.723 0 0 1 .765-2.467 2.54 2.54 0 0 1 2.054-.914 2.422 2.422 0 0 1 1.91.794 3.043 3.043 0 0 1 .7 2.095v.615h-4.424a2.546 2.546 0 0 0 .571 1.717 1.976 1.976 0 0 0 1.526.586 5.172 5.172 0 0 0 2.051-.434v.869a5.147 5.147 0 0 1-.976.319 5.483 5.483 0 0 1-1.108.098Zm-.264-5.842a1.588 1.588 0 0 0-1.233.5 2.323 2.323 0 0 0-.539 1.402h3.357a2.139 2.139 0 0 0-.41-1.409 1.444 1.444 0 0 0-1.176-.49Zm12.978-.342a2.4 2.4 0 0 1-.888 2 4.021 4.021 0 0 1-2.54.7h-1.008V220h-1v-8.566h2.221q3.215 0 3.215 2.496Zm-4.436 1.846h.9a3.332 3.332 0 0 0 1.916-.428 1.576 1.576 0 0 0 .592-1.371 1.478 1.478 0 0 0-.557-1.266 2.908 2.908 0 0 0-1.734-.416h-1.113Zm11.063 1.945a2.1 2.1 0 0 1-.82 1.764 3.557 3.557 0 0 1-2.227.633 5.577 5.577 0 0 1-2.344-.393v-.961a6.171 6.171 0 0 0 1.148.352 6.042 6.042 0 0 0 1.23.129 2.483 2.483 0 0 0 1.5-.378 1.24 1.24 0 0 0 .5-1.052 1.35 1.35 0 0 0-.179-.729 1.66 1.66 0 0 0-.6-.524 8.361 8.361 0 0 0-1.274-.545A4.068 4.068 0 0 1 230.61 215a2.238 2.238 0 0 1-.513-1.529 1.9 1.9 0 0 1 .744-1.576 3.092 3.092 0 0 1 1.969-.586 5.8 5.8 0 0 1 2.35.469l-.311.867a5.31 5.31 0 0 0-2.062-.445 2 2 0 0 0-1.236.34 1.12 1.12 0 0 0-.445.943 1.446 1.446 0 0 0 .164.729 1.545 1.545 0 0 0 .554.521 6.88 6.88 0 0 0 1.192.524 4.721 4.721 0 0 1 1.854 1.031 2.028 2.028 0 0 1 .507 1.433Z" fill="#252a2e"/></g><g data-name="List Item Condensed"><path data-name="Rectangle 3286" fill="#fff" d="M79 167h277v32H79z"/><path data-name="Path 6587" d="M94.846 180.2a2.8 2.8 0 0 0-2.229.94 3.793 3.793 0 0 0-.817 2.577 3.869 3.869 0 0 0 .788 2.6 2.8 2.8 0 0 0 2.247.917 7.672 7.672 0 0 0 2.044-.324v.873a6.3 6.3 0 0 1-2.2.334 3.717 3.717 0 0 1-2.918-1.148 4.729 4.729 0 0 1-1.029-3.264 5.151 5.151 0 0 1 .5-2.32 3.555 3.555 0 0 1 1.425-1.535 4.327 4.327 0 0 1 2.2-.539 5.309 5.309 0 0 1 2.356.489l-.422.855a4.54 4.54 0 0 0-1.945-.455Zm9.334 1.73a2.4 2.4 0 0 1-.888 2 4.021 4.021 0 0 1-2.54.7h-1.008V188h-1v-8.566h2.221q3.215 0 3.215 2.496Zm-4.436 1.845h.9a3.332 3.332 0 0 0 1.916-.428 1.576 1.576 0 0 0 .592-1.371 1.478 1.478 0 0 0-.557-1.266 2.908 2.908 0 0 0-1.734-.416h-1.117Zm8.314-1.008a3.15 3.15 0 0 1 2.13.671 2.3 2.3 0 0 1 .776 1.837 2.653 2.653 0 0 1-.847 2.086 3.382 3.382 0 0 1-2.335.756 4.3 4.3 0 0 1-2.209-.463v-.937a3.357 3.357 0 0 0 1.02.413 5.031 5.031 0 0 0 1.2.149 2.4 2.4 0 0 0 1.6-.486 1.744 1.744 0 0 0 .571-1.406q0-1.793-2.2-1.793a8.748 8.748 0 0 0-1.488.17l-.5-.322.324-4.008h4.26v.9h-3.426l-.217 2.566a6.827 6.827 0 0 1 1.342-.132Zm9.814.322q0 5.027-3.891 5.027A3.961 3.961 0 0 1 112.9 188v-.838a3.445 3.445 0 0 0 1.066.152 2.594 2.594 0 0 0 2.124-.87 4.4 4.4 0 0 0 .782-2.669h-.07a2.085 2.085 0 0 1-.855.741 2.751 2.751 0 0 1-1.2.255 2.415 2.415 0 0 1-1.8-.68 2.593 2.593 0 0 1-.668-1.9 2.908 2.908 0 0 1 .747-2.109 2.609 2.609 0 0 1 1.966-.773 2.632 2.632 0 0 1 1.526.448 2.833 2.833 0 0 1 1 1.307 5.322 5.322 0 0 1 .355 2.026Zm-2.882-2.946a1.6 1.6 0 0 0-1.295.539 2.25 2.25 0 0 0-.457 1.5 1.95 1.95 0 0 0 .422 1.327 1.613 1.613 0 0 0 1.283.483 2.224 2.224 0 0 0 .981-.217 1.772 1.772 0 0 0 .706-.592 1.365 1.365 0 0 0 .258-.785 2.684 2.684 0 0 0-.24-1.137 1.982 1.982 0 0 0-.671-.82 1.69 1.69 0 0 0-.987-.298Zm5.198 7.857 3.551-7.67h-4.67v-.9h5.7v.779L121.266 188Zm8.612-8.689a2.9 2.9 0 0 1 1.857.545 1.817 1.817 0 0 1 .686 1.506 1.875 1.875 0 0 1-.393 1.154 3.468 3.468 0 0 1-1.254.949 4.216 4.216 0 0 1 1.484 1.046 1.969 1.969 0 0 1 .439 1.269 2.125 2.125 0 0 1-.744 1.7 3.038 3.038 0 0 1-2.039.636 3.266 3.266 0 0 1-2.109-.6 2.069 2.069 0 0 1-.738-1.7 2.541 2.541 0 0 1 1.793-2.291 3.309 3.309 0 0 1-1.16-.987 2.1 2.1 0 0 1-.352-1.188 1.808 1.808 0 0 1 .688-1.485 2.855 2.855 0 0 1 1.842-.554Zm-1.851 6.527a1.326 1.326 0 0 0 .489 1.1 2.143 2.143 0 0 0 1.374.393 2.047 2.047 0 0 0 1.359-.41 1.393 1.393 0 0 0 .486-1.125 1.371 1.371 0 0 0-.457-1.016 4.663 4.663 0 0 0-1.594-.858 3.468 3.468 0 0 0-1.266.829 1.607 1.607 0 0 0-.391 1.087Zm1.84-5.738a1.725 1.725 0 0 0-1.148.352 1.166 1.166 0 0 0-.416.938 1.342 1.342 0 0 0 .346.926 3.61 3.61 0 0 0 1.277.773 3.2 3.2 0 0 0 1.187-.756 1.4 1.4 0 0 0 .349-.943 1.153 1.153 0 0 0-.425-.94 1.79 1.79 0 0 0-1.17-.35Zm14.438 7.9h-1.137l-4.682-7.189h-.047q.094 1.266.094 2.32V188h-.92v-8.566h1.125l4.67 7.16h.047q-.012-.158-.053-1.017t-.029-1.227v-4.916h.932Zm4.922.117a2.95 2.95 0 0 1-2.249-.867 3.357 3.357 0 0 1-.823-2.408 3.723 3.723 0 0 1 .765-2.467 2.54 2.54 0 0 1 2.058-.914 2.422 2.422 0 0 1 1.91.794 3.043 3.043 0 0 1 .7 2.095v.615h-4.424a2.546 2.546 0 0 0 .571 1.717 1.976 1.976 0 0 0 1.526.586 5.172 5.172 0 0 0 2.051-.434v.866a5.147 5.147 0 0 1-.976.319 5.483 5.483 0 0 1-1.11.098Zm-.264-5.842a1.588 1.588 0 0 0-1.233.5 2.323 2.323 0 0 0-.542 1.395h3.357a2.139 2.139 0 0 0-.41-1.409 1.444 1.444 0 0 0-1.172-.486Zm9.527 5.725-1.178-3.768q-.111-.346-.416-1.57h-.047q-.234 1.025-.41 1.582L154.148 188h-1.125l-1.752-6.422h1.02l.946 3.686a14.932 14.932 0 0 1 .372 1.705h.047q.064-.334.208-.864t.249-.841l1.178-3.686h1.055l1.148 3.686a12.439 12.439 0 0 1 .445 1.693h.047a6.211 6.211 0 0 1 .126-.65q.1-.439 1.222-4.729h1.008L158.566 188Zm13.822-8.566v5.543a3.019 3.019 0 0 1-.885 2.3 3.393 3.393 0 0 1-2.432.838 3.244 3.244 0 0 1-2.394-.844 3.129 3.129 0 0 1-.847-2.32v-5.52h1v5.59a2.2 2.2 0 0 0 .584 1.649 2.364 2.364 0 0 0 1.723.574 2.28 2.28 0 0 0 1.67-.577 2.22 2.22 0 0 0 .586-1.655v-5.578Zm4.2 7.881a3.177 3.177 0 0 0 .5-.038 3.224 3.224 0 0 0 .375-.077v.744a1.778 1.778 0 0 1-.466.126 3.5 3.5 0 0 1-.554.05q-1.863 0-1.863-1.963v-3.82h-.92v-.469l.92-.4.41-1.371h.564v1.488h1.863v.756H174.4v3.779a1.3 1.3 0 0 0 .274.88.958.958 0 0 0 .756.314Zm3.13.685h-.973v-6.422h.973Zm-1.054-8.162a.646.646 0 0 1 .164-.489.573.573 0 0 1 .41-.155.573.573 0 0 1 .4.158.634.634 0 0 1 .17.486.644.644 0 0 1-.17.489.567.567 0 0 1-.4.161.562.562 0 0 1-.41-.161.658.658 0 0 1-.164-.489ZM181.6 188h-.973v-9.117h.973Zm3.035 0h-.973v-6.422h.973Zm-1.055-8.162a.646.646 0 0 1 .164-.489.573.573 0 0 1 .41-.155.573.573 0 0 1 .4.158.634.634 0 0 1 .17.486.644.644 0 0 1-.17.489.567.567 0 0 1-.4.161.562.562 0 0 1-.41-.161.658.658 0 0 1-.164-.489Zm5.191 7.476a3.177 3.177 0 0 0 .5-.038 3.224 3.224 0 0 0 .379-.076v.744a1.778 1.778 0 0 1-.466.126 3.5 3.5 0 0 1-.554.05q-1.863 0-1.863-1.963v-3.82h-.92v-.469l.92-.4.41-1.371h.563v1.488h1.86v.756h-1.86v3.779a1.3 1.3 0 0 0 .276.88.958.958 0 0 0 .755.314Zm1.143-5.736h1.043l1.406 3.662a13.929 13.929 0 0 1 .574 1.811h.047q.076-.3.319-1.022t1.591-4.45h1.043l-2.759 7.312a3.648 3.648 0 0 1-.958 1.538 2.037 2.037 0 0 1-1.345.454 3.913 3.913 0 0 1-.879-.1V190a3.39 3.39 0 0 0 .721.07 1.486 1.486 0 0 0 1.43-1.125l.353-.91Zm15.762.352a2.4 2.4 0 0 1-.888 2 4.021 4.021 0 0 1-2.54.7h-1.008V188h-1v-8.566h2.221q3.215 0 3.215 2.496Zm-4.436 1.845h.9a3.332 3.332 0 0 0 1.916-.428 1.576 1.576 0 0 0 .592-1.371 1.478 1.478 0 0 0-.557-1.266 2.908 2.908 0 0 0-1.734-.416h-1.117Zm7.055 4.225h-.973v-9.117h.973Zm6.012 0-.193-.914h-.047a2.7 2.7 0 0 1-.958.817 2.92 2.92 0 0 1-1.192.214 2.145 2.145 0 0 1-1.5-.492 1.8 1.8 0 0 1-.542-1.4q0-1.945 3.111-2.039l1.09-.035v-.4a1.628 1.628 0 0 0-.325-1.116 1.337 1.337 0 0 0-1.04-.36 4.238 4.238 0 0 0-1.816.492l-.3-.744a4.571 4.571 0 0 1 1.04-.4 4.5 4.5 0 0 1 1.134-.146 2.446 2.446 0 0 1 1.7.51 2.128 2.128 0 0 1 .554 1.635V188Zm-2.2-.686a1.974 1.974 0 0 0 1.427-.5 1.842 1.842 0 0 0 .519-1.395v-.58l-.973.041a3.538 3.538 0 0 0-1.673.36 1.087 1.087 0 0 0-.513.993 1 1 0 0 0 .319.8 1.326 1.326 0 0 0 .896.281Zm9.319.686v-4.154a1.676 1.676 0 0 0-.357-1.172 1.456 1.456 0 0 0-1.119-.387 1.846 1.846 0 0 0-1.477.545 2.751 2.751 0 0 0-.469 1.8V188h-.973v-6.422h.791l.158.879h.047a1.986 1.986 0 0 1 .838-.735 2.722 2.722 0 0 1 1.2-.261 2.439 2.439 0 0 1 1.746.56 2.381 2.381 0 0 1 .586 1.79V188Zm5.045-.686a3.177 3.177 0 0 0 .5-.038 3.224 3.224 0 0 0 .379-.076v.744a1.778 1.778 0 0 1-.466.126 3.5 3.5 0 0 1-.554.05q-1.863 0-1.863-1.963v-3.82h-.92v-.469l.92-.4.41-1.371h.563v1.488h1.86v.756h-1.863v3.779a1.3 1.3 0 0 0 .275.891.958.958 0 0 0 .759.303Z" fill="#252a2e"/></g><g data-name="List Item Condensed"><path data-name="Rectangle 3286" fill="#fff" d="M79 135h277v32H79z"/><path data-name="Path 6586" d="M90.686 152.338a6.06 6.06 0 0 1 .981-3.776 3.466 3.466 0 0 1 2.9-1.251 3.868 3.868 0 0 1 1.043.111v.838a3.337 3.337 0 0 0-1.031-.146 2.6 2.6 0 0 0-2.1.858 4.4 4.4 0 0 0-.8 2.7h.07a2.243 2.243 0 0 1 2.042-1.01 2.4 2.4 0 0 1 1.819.7 2.629 2.629 0 0 1 .665 1.893 2.918 2.918 0 0 1-.729 2.1 2.6 2.6 0 0 1-1.972.762 2.534 2.534 0 0 1-2.109-1 4.42 4.42 0 0 1-.779-2.779Zm2.877 2.953a1.628 1.628 0 0 0 1.292-.524 2.229 2.229 0 0 0 .46-1.515 1.953 1.953 0 0 0-.428-1.336 1.611 1.611 0 0 0-1.278-.486 2.155 2.155 0 0 0-.967.217 1.789 1.789 0 0 0-.7.6 1.381 1.381 0 0 0-.261.791 2.712 2.712 0 0 0 .235 1.122 1.982 1.982 0 0 0 .665.826 1.657 1.657 0 0 0 .982.305Zm9.563-3.586a6.256 6.256 0 0 1-.7 3.316 2.366 2.366 0 0 1-2.142 1.1A2.346 2.346 0 0 1 98.18 155a6.132 6.132 0 0 1-.721-3.29 6.254 6.254 0 0 1 .7-3.322 2.355 2.355 0 0 1 2.124-1.088 2.359 2.359 0 0 1 2.117 1.13 6.106 6.106 0 0 1 .725 3.275Zm-4.682 0a6.274 6.274 0 0 0 .439 2.722 1.47 1.47 0 0 0 1.4.853 1.471 1.471 0 0 0 1.409-.864 6.322 6.322 0 0 0 .437-2.71 6.28 6.28 0 0 0-.437-2.706 1.472 1.472 0 0 0-1.409-.858 1.471 1.471 0 0 0-1.4.847 6.232 6.232 0 0 0-.44 2.716ZM109.939 156h-5.63v-.838l2.256-2.268a16.612 16.612 0 0 0 1.359-1.488 3.8 3.8 0 0 0 .492-.867 2.484 2.484 0 0 0 .164-.908 1.44 1.44 0 0 0-.416-1.087 1.593 1.593 0 0 0-1.154-.4 2.9 2.9 0 0 0-1.01.174 4.029 4.029 0 0 0-1.063.639l-.516-.662a3.949 3.949 0 0 1 2.579-.984 2.724 2.724 0 0 1 1.893.618 2.126 2.126 0 0 1 .686 1.661 3.208 3.208 0 0 1-.46 1.61 10.23 10.23 0 0 1-1.711 2.016l-1.875 1.835v.049h4.406Zm6.908-4.295a6.256 6.256 0 0 1-.7 3.316 2.366 2.366 0 0 1-2.142 1.1A2.346 2.346 0 0 1 111.9 155a6.132 6.132 0 0 1-.721-3.29 6.254 6.254 0 0 1 .7-3.322 2.355 2.355 0 0 1 2.127-1.088 2.359 2.359 0 0 1 2.118 1.13 6.106 6.106 0 0 1 .724 3.275Zm-4.682 0a6.274 6.274 0 0 0 .439 2.722 1.47 1.47 0 0 0 1.4.853 1.471 1.471 0 0 0 1.409-.864 6.322 6.322 0 0 0 .437-2.71 6.28 6.28 0 0 0-.435-2.706 1.472 1.472 0 0 0-1.409-.858 1.471 1.471 0 0 0-1.4.847 6.232 6.232 0 0 0-.44 2.716ZM124.857 156v-8.566h1V156Zm7.594 0v-4.154a1.676 1.676 0 0 0-.357-1.172 1.456 1.456 0 0 0-1.119-.387 1.846 1.846 0 0 0-1.477.545 2.751 2.751 0 0 0-.469 1.8V156h-.973v-6.422h.791l.158.879h.047a1.986 1.986 0 0 1 .838-.735 2.722 2.722 0 0 1 1.2-.261 2.439 2.439 0 0 1 1.746.56 2.381 2.381 0 0 1 .586 1.79V156Zm7.342-.861h-.053a2.285 2.285 0 0 1-2.016.979 2.384 2.384 0 0 1-1.96-.861 3.791 3.791 0 0 1-.7-2.449 3.855 3.855 0 0 1 .7-2.467 2.366 2.366 0 0 1 1.957-.879 2.335 2.335 0 0 1 2 .949h.079l-.041-.463-.019-.448v-2.617h.973V156h-.791Zm-1.945.161a1.771 1.771 0 0 0 1.444-.542 2.739 2.739 0 0 0 .448-1.749v-.205a3.222 3.222 0 0 0-.454-1.948 1.724 1.724 0 0 0-1.45-.583 1.489 1.489 0 0 0-1.31.665 3.307 3.307 0 0 0-.454 1.878 3.17 3.17 0 0 0 .451 1.857 1.528 1.528 0 0 0 1.325.627Zm7.641.814a2.95 2.95 0 0 1-2.248-.864 3.357 3.357 0 0 1-.823-2.408 3.723 3.723 0 0 1 .765-2.467 2.54 2.54 0 0 1 2.054-.914 2.422 2.422 0 0 1 1.91.794 3.043 3.043 0 0 1 .7 2.095v.615h-4.421a2.546 2.546 0 0 0 .574 1.717 1.976 1.976 0 0 0 1.526.586 5.172 5.172 0 0 0 2.051-.434v.866a5.147 5.147 0 0 1-.977.321 5.483 5.483 0 0 1-1.112.096Zm-.264-5.842a1.588 1.588 0 0 0-1.233.5 2.323 2.323 0 0 0-.542 1.395h3.357a2.139 2.139 0 0 0-.41-1.409 1.444 1.444 0 0 0-1.172-.483Zm7.275 5.845a2.779 2.779 0 0 1-1.146-.231 2.154 2.154 0 0 1-.87-.712h-.07a8.614 8.614 0 0 1 .066 1.066v2.643h-.973v-9.3h.793l.135.879h.047a2.259 2.259 0 0 1 .873-.762 2.654 2.654 0 0 1 1.145-.239 2.374 2.374 0 0 1 1.972.873 3.844 3.844 0 0 1 .694 2.449 3.821 3.821 0 0 1-.706 2.458 2.378 2.378 0 0 1-1.96.876Zm-.141-5.83a1.724 1.724 0 0 0-1.424.545 2.8 2.8 0 0 0-.451 1.734v.217a3.214 3.214 0 0 0 .451 1.937 1.716 1.716 0 0 0 1.444.58 1.5 1.5 0 0 0 1.3-.674 3.2 3.2 0 0 0 .472-1.857 3.075 3.075 0 0 0-.472-1.843 1.551 1.551 0 0 0-1.324-.639Zm7.215 5.83a2.95 2.95 0 0 1-2.247-.867 3.357 3.357 0 0 1-.827-2.408 3.723 3.723 0 0 1 .765-2.467 2.54 2.54 0 0 1 2.054-.914 2.422 2.422 0 0 1 1.91.794 3.043 3.043 0 0 1 .7 2.095v.615h-4.417a2.546 2.546 0 0 0 .571 1.717 1.976 1.976 0 0 0 1.526.586 5.172 5.172 0 0 0 2.051-.434v.866a5.147 5.147 0 0 1-.976.319 5.483 5.483 0 0 1-1.11.098Zm-.264-5.842a1.588 1.588 0 0 0-1.233.5 2.323 2.323 0 0 0-.542 1.395h3.357a2.139 2.139 0 0 0-.41-1.409 1.444 1.444 0 0 0-1.171-.486Zm8.678 5.725v-4.154a1.676 1.676 0 0 0-.357-1.172 1.456 1.456 0 0 0-1.119-.387 1.846 1.846 0 0 0-1.477.545 2.751 2.751 0 0 0-.469 1.8V156h-.973v-6.422h.791l.158.879h.047a1.986 1.986 0 0 1 .838-.735 2.722 2.722 0 0 1 1.2-.261 2.439 2.439 0 0 1 1.746.56 2.381 2.381 0 0 1 .586 1.79V156Zm7.342-.861h-.053a2.285 2.285 0 0 1-2.016.979 2.384 2.384 0 0 1-1.961-.862 3.791 3.791 0 0 1-.7-2.449 3.855 3.855 0 0 1 .7-2.467 2.366 2.366 0 0 1 1.957-.879 2.335 2.335 0 0 1 2 .949h.076l-.033-.463-.023-.447v-2.617h.973V156h-.791Zm-1.945.161a1.771 1.771 0 0 0 1.444-.542 2.739 2.739 0 0 0 .448-1.749v-.205a3.222 3.222 0 0 0-.454-1.948 1.724 1.724 0 0 0-1.45-.583 1.489 1.489 0 0 0-1.31.665 3.307 3.307 0 0 0-.454 1.878 3.17 3.17 0 0 0 .451 1.857 1.528 1.528 0 0 0 1.325.627Zm7.641.814a2.95 2.95 0 0 1-2.248-.864 3.357 3.357 0 0 1-.823-2.408 3.723 3.723 0 0 1 .765-2.467 2.54 2.54 0 0 1 2.054-.914 2.422 2.422 0 0 1 1.91.794 3.043 3.043 0 0 1 .7 2.095v.615h-4.421a2.546 2.546 0 0 0 .571 1.717 1.976 1.976 0 0 0 1.526.586 5.172 5.172 0 0 0 2.051-.434v.866a5.147 5.147 0 0 1-.976.319 5.483 5.483 0 0 1-1.11.098Zm-.264-5.842a1.588 1.588 0 0 0-1.233.5 2.323 2.323 0 0 0-.542 1.395h3.357a2.139 2.139 0 0 0-.41-1.409 1.444 1.444 0 0 0-1.172-.483Zm8.677 5.728v-4.154a1.676 1.676 0 0 0-.357-1.172 1.456 1.456 0 0 0-1.119-.387 1.846 1.846 0 0 0-1.477.545 2.751 2.751 0 0 0-.469 1.8V156h-.973v-6.422h.791l.158.879h.047a1.986 1.986 0 0 1 .838-.735 2.722 2.722 0 0 1 1.2-.261 2.439 2.439 0 0 1 1.746.56 2.381 2.381 0 0 1 .586 1.79V156Zm5.537.117a2.741 2.741 0 0 1-2.159-.858 3.53 3.53 0 0 1-.765-2.429 3.64 3.64 0 0 1 .776-2.49 2.8 2.8 0 0 1 2.212-.879 4.389 4.389 0 0 1 .926.1 3.05 3.05 0 0 1 .727.234l-.3.826a4.574 4.574 0 0 0-.7-.214 3.139 3.139 0 0 0-.674-.085q-1.957 0-1.957 2.5a2.972 2.972 0 0 0 .478 1.816 1.661 1.661 0 0 0 1.415.633 4.326 4.326 0 0 0 1.646-.346v.861a3.509 3.509 0 0 1-1.624.331Zm5.859 0a2.95 2.95 0 0 1-2.247-.867 3.357 3.357 0 0 1-.823-2.408 3.723 3.723 0 0 1 .765-2.467 2.54 2.54 0 0 1 2.054-.914 2.422 2.422 0 0 1 1.91.794 3.043 3.043 0 0 1 .7 2.095v.615h-4.424a2.546 2.546 0 0 0 .571 1.717 1.976 1.976 0 0 0 1.526.586 5.172 5.172 0 0 0 2.051-.434v.866a5.147 5.147 0 0 1-.976.319 5.483 5.483 0 0 1-1.106.098Zm-.264-5.842a1.588 1.588 0 0 0-1.233.5 2.323 2.323 0 0 0-.542 1.395h3.357a2.139 2.139 0 0 0-.41-1.409 1.444 1.444 0 0 0-1.171-.486ZM214.623 156h-1v-4.031h-4.512V156h-1v-8.566h1v3.645h4.512v-3.645h1Zm3.177 0h-.973v-6.422h.973Zm-1.055-8.162a.646.646 0 0 1 .164-.489.573.573 0 0 1 .41-.155.573.573 0 0 1 .4.158.634.634 0 0 1 .17.486.644.644 0 0 1-.17.489.567.567 0 0 1-.4.161.562.562 0 0 1-.41-.161.658.658 0 0 1-.165-.489Zm8.373 1.74v.615l-1.189.141a2.045 2.045 0 0 1 .293.536 2.046 2.046 0 0 1 .129.747 1.9 1.9 0 0 1-.645 1.506 2.6 2.6 0 0 1-1.77.563 2.947 2.947 0 0 1-.539-.047.957.957 0 0 0-.621.826.42.42 0 0 0 .217.39 1.584 1.584 0 0 0 .744.126h1.137a2.545 2.545 0 0 1 1.6.439 1.527 1.527 0 0 1 .561 1.28 1.823 1.823 0 0 1-.855 1.626 4.579 4.579 0 0 1-2.5.56 3.41 3.41 0 0 1-1.942-.469 1.513 1.513 0 0 1-.683-1.324 1.487 1.487 0 0 1 .375-1.014 1.909 1.909 0 0 1 1.055-.58 1.017 1.017 0 0 1-.413-.346.915.915 0 0 1-.167-.545 1.034 1.034 0 0 1 .188-.615 1.971 1.971 0 0 1 .592-.51 1.735 1.735 0 0 1-.812-.7 2.049 2.049 0 0 1-.313-1.125 2.078 2.078 0 0 1 .633-1.626 2.584 2.584 0 0 1 1.793-.571 3.26 3.26 0 0 1 .908.117Zm-5.118 7.5a.872.872 0 0 0 .439.791 2.425 2.425 0 0 0 1.26.27 3.515 3.515 0 0 0 1.813-.366 1.121 1.121 0 0 0 .588-.994.786.786 0 0 0-.322-.724 2.5 2.5 0 0 0-1.213-.2H221.4a1.536 1.536 0 0 0-1.031.316 1.131 1.131 0 0 0-.369.907Zm.527-5.443a1.307 1.307 0 0 0 .381 1.02 1.521 1.521 0 0 0 1.057.345 1.241 1.241 0 0 0 1.424-1.383 1.277 1.277 0 0 0-1.441-1.447 1.427 1.427 0 0 0-1.055.369 1.487 1.487 0 0 0-.37 1.096ZM230.83 156v-4.154a1.676 1.676 0 0 0-.357-1.172 1.456 1.456 0 0 0-1.119-.387 1.834 1.834 0 0 0-1.479.551 2.79 2.79 0 0 0-.466 1.8V156h-.973v-9.117h.973v2.76a6.013 6.013 0 0 1-.047.826h.059a1.984 1.984 0 0 1 .817-.729 2.657 2.657 0 0 1 1.21-.267 2.478 2.478 0 0 1 1.767.56 2.357 2.357 0 0 1 .589 1.778V156Zm11.07-2.279a2.1 2.1 0 0 1-.82 1.764 3.557 3.557 0 0 1-2.227.633 5.577 5.577 0 0 1-2.344-.393v-.961a6.171 6.171 0 0 0 1.148.352 6.042 6.042 0 0 0 1.23.129 2.483 2.483 0 0 0 1.5-.378 1.24 1.24 0 0 0 .5-1.052 1.35 1.35 0 0 0-.179-.729 1.66 1.66 0 0 0-.6-.524 8.361 8.361 0 0 0-1.274-.545 4.068 4.068 0 0 1-1.702-1.017 2.238 2.238 0 0 1-.513-1.529 1.9 1.9 0 0 1 .744-1.576 3.092 3.092 0 0 1 1.969-.586 5.8 5.8 0 0 1 2.35.469l-.311.867a5.31 5.31 0 0 0-2.062-.445 2 2 0 0 0-1.236.34 1.12 1.12 0 0 0-.445.943 1.446 1.446 0 0 0 .164.729 1.545 1.545 0 0 0 .554.521 6.88 6.88 0 0 0 1.192.524 4.721 4.721 0 0 1 1.854 1.031 2.028 2.028 0 0 1 .508 1.433Zm4.172 2.4a2.741 2.741 0 0 1-2.159-.858 3.53 3.53 0 0 1-.765-2.429 3.64 3.64 0 0 1 .776-2.49 2.8 2.8 0 0 1 2.212-.879 4.389 4.389 0 0 1 .926.1 3.05 3.05 0 0 1 .727.234l-.3.826a4.574 4.574 0 0 0-.7-.214 3.139 3.139 0 0 0-.674-.085q-1.957 0-1.957 2.5a2.972 2.972 0 0 0 .478 1.816 1.661 1.661 0 0 0 1.415.633 4.326 4.326 0 0 0 1.646-.346v.861a3.509 3.509 0 0 1-1.627.327Zm7.539-.121v-4.154a1.676 1.676 0 0 0-.357-1.172 1.456 1.456 0 0 0-1.119-.387 1.834 1.834 0 0 0-1.479.551 2.79 2.79 0 0 0-.466 1.8V156h-.973v-9.117h.973v2.76a6.013 6.013 0 0 1-.047.826h.059a1.984 1.984 0 0 1 .817-.729 2.657 2.657 0 0 1 1.21-.267 2.478 2.478 0 0 1 1.767.56 2.357 2.357 0 0 1 .589 1.778V156Zm8.514-3.217a3.543 3.543 0 0 1-.791 2.452 2.786 2.786 0 0 1-2.186.882 2.9 2.9 0 0 1-1.529-.4 2.668 2.668 0 0 1-1.031-1.16 4.043 4.043 0 0 1-.363-1.77 3.537 3.537 0 0 1 .785-2.446 2.777 2.777 0 0 1 2.18-.876 2.717 2.717 0 0 1 2.142.9 3.527 3.527 0 0 1 .793 2.418Zm-4.893 0a3.048 3.048 0 0 0 .492 1.875 1.708 1.708 0 0 0 1.447.645 1.72 1.72 0 0 0 1.45-.642 3.033 3.033 0 0 0 .5-1.878 2.984 2.984 0 0 0-.5-1.86 1.74 1.74 0 0 0-1.462-.636 1.712 1.712 0 0 0-1.441.627 3.017 3.017 0 0 0-.486 1.869Zm12.141 0a3.543 3.543 0 0 1-.791 2.452 2.786 2.786 0 0 1-2.182.882 2.9 2.9 0 0 1-1.529-.4 2.668 2.668 0 0 1-1.031-1.16 4.043 4.043 0 0 1-.363-1.77 3.537 3.537 0 0 1 .785-2.446 2.777 2.777 0 0 1 2.18-.876 2.717 2.717 0 0 1 2.142.9 3.527 3.527 0 0 1 .789 2.418Zm-4.893 0a3.048 3.048 0 0 0 .492 1.875 1.708 1.708 0 0 0 1.448.642 1.72 1.72 0 0 0 1.45-.642 3.033 3.033 0 0 0 .5-1.878 2.984 2.984 0 0 0-.5-1.86 1.74 1.74 0 0 0-1.462-.636 1.712 1.712 0 0 0-1.441.627 3.017 3.017 0 0 0-.487 1.872Zm7.571 3.217h-.973v-9.117h.973Z" fill="#252a2e"/></g><g data-name="List Item Condensed"><path data-name="Rectangle 3286" fill="#fff" d="M79 103h277v32H79z"/><path data-name="Path 6585" d="M96.217 124h-5.631v-.838l2.256-2.267a16.612 16.612 0 0 0 1.358-1.489 3.8 3.8 0 0 0 .492-.867 2.484 2.484 0 0 0 .164-.908 1.44 1.44 0 0 0-.416-1.087 1.593 1.593 0 0 0-1.154-.4 2.9 2.9 0 0 0-1.011.176 4.029 4.029 0 0 0-1.063.639l-.512-.664a3.949 3.949 0 0 1 2.578-.984 2.724 2.724 0 0 1 1.893.618 2.126 2.126 0 0 1 .683 1.661 3.208 3.208 0 0 1-.454 1.61 10.23 10.23 0 0 1-1.714 2.017l-1.875 1.834v.049h4.406Zm6.908-4.295a6.256 6.256 0 0 1-.7 3.316 2.366 2.366 0 0 1-2.142 1.1A2.346 2.346 0 0 1 98.18 123a6.132 6.132 0 0 1-.721-3.29 6.254 6.254 0 0 1 .7-3.322 2.355 2.355 0 0 1 2.124-1.088 2.359 2.359 0 0 1 2.117 1.13 6.106 6.106 0 0 1 .725 3.275Zm-4.682 0a6.274 6.274 0 0 0 .439 2.722 1.47 1.47 0 0 0 1.4.853 1.471 1.471 0 0 0 1.409-.864 6.322 6.322 0 0 0 .437-2.71 6.28 6.28 0 0 0-.436-2.706 1.472 1.472 0 0 0-1.409-.858 1.471 1.471 0 0 0-1.4.847 6.232 6.232 0 0 0-.44 2.716Zm9.469 4.295h-.949v-6.105q0-.762.047-1.441-.123.123-.275.258t-1.395 1.142l-.516-.668 2.268-1.752h.82Zm8.888-4.91q0 5.027-3.89 5.027a3.961 3.961 0 0 1-1.078-.117v-.838a3.445 3.445 0 0 0 1.068.152 2.594 2.594 0 0 0 2.124-.87 4.4 4.4 0 0 0 .776-2.669h-.07a2.085 2.085 0 0 1-.855.741 2.751 2.751 0 0 1-1.2.255 2.415 2.415 0 0 1-1.8-.68 2.593 2.593 0 0 1-.668-1.9 2.908 2.908 0 0 1 .747-2.109 2.609 2.609 0 0 1 1.966-.773 2.632 2.632 0 0 1 1.526.448 2.833 2.833 0 0 1 1 1.307 5.322 5.322 0 0 1 .354 2.026Zm-2.882-2.947a1.6 1.6 0 0 0-1.295.539 2.25 2.25 0 0 0-.457 1.5 1.95 1.95 0 0 0 .422 1.327 1.613 1.613 0 0 0 1.283.483 2.224 2.224 0 0 0 .981-.217 1.772 1.772 0 0 0 .706-.592 1.365 1.365 0 0 0 .258-.785 2.684 2.684 0 0 0-.24-1.137 1.982 1.982 0 0 0-.671-.82 1.69 1.69 0 0 0-.987-.298ZM128.244 124h-1v-4.031h-4.508V124h-1v-8.566h1v3.645h4.512v-3.645h1Zm7.746-3.217a3.543 3.543 0 0 1-.79 2.452 2.786 2.786 0 0 1-2.186.882 2.9 2.9 0 0 1-1.529-.4 2.668 2.668 0 0 1-1.031-1.16 4.043 4.043 0 0 1-.363-1.77 3.537 3.537 0 0 1 .785-2.446 2.777 2.777 0 0 1 2.18-.876 2.717 2.717 0 0 1 2.142.9 3.527 3.527 0 0 1 .792 2.418Zm-4.893 0a3.048 3.048 0 0 0 .492 1.875 1.708 1.708 0 0 0 1.448.642 1.72 1.72 0 0 0 1.45-.642 3.033 3.033 0 0 0 .5-1.878 2.984 2.984 0 0 0-.5-1.86 1.74 1.74 0 0 0-1.462-.636 1.712 1.712 0 0 0-1.441.627 3.017 3.017 0 0 0-.484 1.872Zm7.571 3.217h-.968v-9.117h.973Zm3.032 0h-.97v-9.117h.97Zm6.012 0-.193-.914h-.047a2.7 2.7 0 0 1-.958.817 2.92 2.92 0 0 1-1.192.214 2.145 2.145 0 0 1-1.5-.492 1.8 1.8 0 0 1-.542-1.4q0-1.945 3.111-2.039l1.09-.035v-.4a1.628 1.628 0 0 0-.325-1.116 1.337 1.337 0 0 0-1.04-.36 4.238 4.238 0 0 0-1.816.492l-.3-.744a4.571 4.571 0 0 1 1.04-.4 4.5 4.5 0 0 1 1.134-.146 2.446 2.446 0 0 1 1.7.51 2.128 2.128 0 0 1 .554 1.635V124Zm-2.2-.686a1.974 1.974 0 0 0 1.427-.5 1.842 1.842 0 0 0 .519-1.395v-.58l-.973.041a3.538 3.538 0 0 0-1.673.36 1.087 1.087 0 0 0-.513.993 1 1 0 0 0 .319.8 1.326 1.326 0 0 0 .9.281Zm9.322.686v-4.154a1.676 1.676 0 0 0-.357-1.172 1.456 1.456 0 0 0-1.119-.387 1.846 1.846 0 0 0-1.477.545 2.751 2.751 0 0 0-.469 1.8V124h-.973v-6.422h.791l.158.879h.047a1.986 1.986 0 0 1 .838-.735 2.722 2.722 0 0 1 1.2-.261 2.439 2.439 0 0 1 1.746.56 2.381 2.381 0 0 1 .586 1.79V124Zm7.342-.861h-.053a2.285 2.285 0 0 1-2.016.979 2.384 2.384 0 0 1-1.96-.861 3.791 3.791 0 0 1-.7-2.449 3.855 3.855 0 0 1 .7-2.467 2.366 2.366 0 0 1 1.957-.879 2.335 2.335 0 0 1 2 .949h.076l-.041-.463-.016-.448v-2.617h.977V124h-.8Zm-1.946.161a1.771 1.771 0 0 0 1.444-.542 2.739 2.739 0 0 0 .448-1.749v-.205a3.222 3.222 0 0 0-.454-1.948 1.724 1.724 0 0 0-1.45-.583 1.489 1.489 0 0 0-1.31.665 3.307 3.307 0 0 0-.454 1.878 3.17 3.17 0 0 0 .451 1.857 1.528 1.528 0 0 0 1.325.627Zm11.995.7-.193-.914h-.047a2.7 2.7 0 0 1-.958.817 2.92 2.92 0 0 1-1.192.214 2.145 2.145 0 0 1-1.5-.492 1.8 1.8 0 0 1-.542-1.4q0-1.945 3.111-2.039l1.096-.036v-.4a1.628 1.628 0 0 0-.325-1.116 1.337 1.337 0 0 0-1.04-.36 4.238 4.238 0 0 0-1.816.492l-.3-.744a4.571 4.571 0 0 1 1.04-.4 4.5 4.5 0 0 1 1.134-.146 2.446 2.446 0 0 1 1.7.51 2.128 2.128 0 0 1 .554 1.635V124Zm-2.2-.686a1.974 1.974 0 0 0 1.427-.5 1.842 1.842 0 0 0 .519-1.395v-.58l-.971.044a3.538 3.538 0 0 0-1.673.36 1.087 1.087 0 0 0-.513.993 1 1 0 0 0 .319.8 1.326 1.326 0 0 0 .894.278Zm7.488.8a2.741 2.741 0 0 1-2.159-.858 3.53 3.53 0 0 1-.765-2.429 3.64 3.64 0 0 1 .776-2.49 2.8 2.8 0 0 1 2.212-.879 4.389 4.389 0 0 1 .926.1 3.05 3.05 0 0 1 .727.234l-.3.826a4.574 4.574 0 0 0-.7-.214 3.139 3.139 0 0 0-.674-.085q-1.957 0-1.957 2.5a2.972 2.972 0 0 0 .478 1.816 1.661 1.661 0 0 0 1.415.633 4.326 4.326 0 0 0 1.646-.346v.861a3.509 3.509 0 0 1-1.622.334Zm5.221-.8a3.177 3.177 0 0 0 .5-.038 3.224 3.224 0 0 0 .381-.076v.744a1.778 1.778 0 0 1-.466.126 3.5 3.5 0 0 1-.554.05q-1.863 0-1.863-1.963v-3.82h-.92v-.469l.92-.4.41-1.371h.563v1.488h1.863v.756h-1.863v3.779a1.3 1.3 0 0 0 .275.88.958.958 0 0 0 .756.314Zm3.137.686h-.971v-6.422h.973Zm-1.055-8.162a.646.646 0 0 1 .164-.489.573.573 0 0 1 .41-.155.573.573 0 0 1 .4.158.634.634 0 0 1 .17.486.644.644 0 0 1-.17.489.567.567 0 0 1-.4.161.562.562 0 0 1-.41-.161.658.658 0 0 1-.164-.489ZM189.34 124l-2.44-6.422h1.043l1.383 3.809a18.027 18.027 0 0 1 .551 1.734h.047a13.1 13.1 0 0 1 .407-1.286q.343-.976 1.538-4.257h1.043L190.477 124Zm7.318.117a2.95 2.95 0 0 1-2.247-.867 3.357 3.357 0 0 1-.823-2.408 3.723 3.723 0 0 1 .765-2.467 2.54 2.54 0 0 1 2.054-.914 2.422 2.422 0 0 1 1.91.794 3.043 3.043 0 0 1 .7 2.095v.615H194.6a2.546 2.546 0 0 0 .571 1.717 1.976 1.976 0 0 0 1.526.586 5.172 5.172 0 0 0 2.051-.434v.866a5.147 5.147 0 0 1-.976.319 5.483 5.483 0 0 1-1.114.098Zm-.264-5.842a1.588 1.588 0 0 0-1.233.5 2.323 2.323 0 0 0-.542 1.395h3.357a2.139 2.139 0 0 0-.41-1.409 1.444 1.444 0 0 0-1.171-.486Zm10.389 5.842a2.779 2.779 0 0 1-1.146-.231 2.154 2.154 0 0 1-.87-.712h-.07a8.614 8.614 0 0 1 .07 1.066v2.643h-.973v-9.3h.791l.135.879h.047a2.259 2.259 0 0 1 .873-.762 2.654 2.654 0 0 1 1.143-.234 2.374 2.374 0 0 1 1.972.873 3.844 3.844 0 0 1 .694 2.449 3.821 3.821 0 0 1-.706 2.458 2.378 2.378 0 0 1-1.96.871Zm-.141-5.83a1.724 1.724 0 0 0-1.424.545 2.8 2.8 0 0 0-.451 1.734v.217a3.214 3.214 0 0 0 .451 1.937 1.716 1.716 0 0 0 1.447.583 1.5 1.5 0 0 0 1.3-.674 3.2 3.2 0 0 0 .472-1.857 3.075 3.075 0 0 0-.472-1.843 1.551 1.551 0 0 0-1.322-.642Zm7.436-.826a3.806 3.806 0 0 1 .768.07l-.135.9a3.313 3.313 0 0 0-.7-.088 1.712 1.712 0 0 0-1.333.633 2.307 2.307 0 0 0-.554 1.576V124h-.973v-6.422h.8l.111 1.189h.047a2.823 2.823 0 0 1 .861-.967 1.939 1.939 0 0 1 1.108-.339Zm7.512 3.322a3.543 3.543 0 0 1-.79 2.452 2.786 2.786 0 0 1-2.186.882 2.9 2.9 0 0 1-1.529-.4 2.668 2.668 0 0 1-1.031-1.16 4.043 4.043 0 0 1-.363-1.77 3.537 3.537 0 0 1 .785-2.446 2.777 2.777 0 0 1 2.18-.876 2.717 2.717 0 0 1 2.142.9 3.527 3.527 0 0 1 .792 2.418Zm-4.893 0a3.048 3.048 0 0 0 .492 1.875 1.708 1.708 0 0 0 1.447.645 1.72 1.72 0 0 0 1.45-.642 3.033 3.033 0 0 0 .5-1.878 2.984 2.984 0 0 0-.5-1.86 1.74 1.74 0 0 0-1.462-.636 1.712 1.712 0 0 0-1.441.627 3.017 3.017 0 0 0-.483 1.869Zm5.818 6.1a2.341 2.341 0 0 1-.9-.146v-.792a2.853 2.853 0 0 0 .8.117.838.838 0 0 0 .671-.249 1.142 1.142 0 0 0 .214-.759v-7.476h.973v7.406q-.005 1.899-1.757 1.899Zm.7-11.045a.646.646 0 0 1 .164-.489.573.573 0 0 1 .41-.155.573.573 0 0 1 .4.158.634.634 0 0 1 .17.486.644.644 0 0 1-.17.489.567.567 0 0 1-.4.161.562.562 0 0 1-.41-.161.658.658 0 0 1-.166-.489Zm5.83 8.279a2.95 2.95 0 0 1-2.245-.867 3.357 3.357 0 0 1-.823-2.408 3.723 3.723 0 0 1 .765-2.467 2.54 2.54 0 0 1 2.054-.914 2.422 2.422 0 0 1 1.91.794 3.043 3.043 0 0 1 .7 2.095v.615h-4.426a2.546 2.546 0 0 0 .571 1.717 1.976 1.976 0 0 0 1.526.586 5.172 5.172 0 0 0 2.051-.434v.866a5.147 5.147 0 0 1-.976.319 5.483 5.483 0 0 1-1.109.098Zm-.264-5.842a1.588 1.588 0 0 0-1.233.5 2.323 2.323 0 0 0-.548 1.399h3.357a2.139 2.139 0 0 0-.41-1.409 1.444 1.444 0 0 0-1.168-.49Zm6.85 5.842a2.741 2.741 0 0 1-2.159-.858 3.53 3.53 0 0 1-.765-2.429 3.64 3.64 0 0 1 .776-2.49 2.8 2.8 0 0 1 2.212-.879 4.389 4.389 0 0 1 .926.1 3.05 3.05 0 0 1 .727.234l-.3.826a4.574 4.574 0 0 0-.7-.214 3.139 3.139 0 0 0-.674-.085q-1.957 0-1.957 2.5a2.972 2.972 0 0 0 .478 1.816 1.661 1.661 0 0 0 1.415.633 4.326 4.326 0 0 0 1.646-.346v.861a3.509 3.509 0 0 1-1.627.331Zm5.221-.8a3.177 3.177 0 0 0 .5-.038 3.224 3.224 0 0 0 .381-.079v.744a1.778 1.778 0 0 1-.466.126 3.5 3.5 0 0 1-.554.05q-1.863 0-1.863-1.963v-3.82h-.92v-.469l.92-.4.41-1.371h.563v1.488h1.863v.756h-1.863v3.779a1.3 1.3 0 0 0 .275.891.958.958 0 0 0 .752.303Z" fill="#252a2e"/></g><g data-name="List Item Condensed"><path data-name="Rectangle 3286" fill="#fff" d="M79 71h277v32H79z"/><path data-name="Path 6584" d="m96.445 92-.855-2.379h-3.276L91.477 92H90l3.205-8.6h1.524l3.205 8.6Zm-1.224-3.586-.8-2.332q-.088-.234-.243-.738t-.214-.738a13.132 13.132 0 0 1-.464 1.576l-.775 2.232ZM99.064 92v-8.566h1.4V90.8h3.627V92Zm6.5 0v-8.566h1.4V90.8h3.636V92Zm15.297-5.977a2.5 2.5 0 0 1-.879 2.057 3.872 3.872 0 0 1-2.5.715h-.892V92h-1.4v-8.566h2.467a3.732 3.732 0 0 1 2.405.656 2.356 2.356 0 0 1 .799 1.933Zm-4.271 1.594h.744a2.666 2.666 0 0 0 1.582-.375 1.365 1.365 0 0 0 .5-1.172 1.33 1.33 0 0 0-.451-1.1 2.228 2.228 0 0 0-1.406-.363h-.969Zm7.383-.2h.973a2.221 2.221 0 0 0 1.418-.363 1.318 1.318 0 0 0 .436-1.077 1.16 1.16 0 0 0-.475-1.043 2.6 2.6 0 0 0-1.43-.316h-.926Zm0 1.16V92h-1.4v-8.566h2.42a3.976 3.976 0 0 1 2.455.621 2.23 2.23 0 0 1 .8 1.875 2.344 2.344 0 0 1-1.668 2.279L129 92h-1.594l-2.051-3.422Zm13.875-.873a4.686 4.686 0 0 1-1.048 3.253 3.783 3.783 0 0 1-2.96 1.16 3.809 3.809 0 0 1-2.98-1.151 4.715 4.715 0 0 1-1.04-3.272 4.642 4.642 0 0 1 1.046-3.258 3.854 3.854 0 0 1 2.986-1.136 3.776 3.776 0 0 1 2.948 1.153 4.681 4.681 0 0 1 1.048 3.252Zm-6.539 0a3.841 3.841 0 0 0 .639 2.4 2.255 2.255 0 0 0 1.893.817 2.251 2.251 0 0 0 1.884-.809 3.848 3.848 0 0 0 .636-2.408 3.856 3.856 0 0 0-.63-2.391 2.227 2.227 0 0 0-1.879-.813 2.274 2.274 0 0 0-1.9.814 3.8 3.8 0 0 0-.643 2.391Zm7.291 6.687a2.732 2.732 0 0 1-.961-.146v-1.179a3.6 3.6 0 0 0 .855.123q1.148 0 1.148-1.453v-8.3h1.406v8.253a2.906 2.906 0 0 1-.619 2.011 2.328 2.328 0 0 1-1.829.691ZM148.119 92h-4.846v-8.566h4.846v1.184h-3.445v2.332h3.226v1.172h-3.226v2.689h3.445Zm5.5-7.488a2.308 2.308 0 0 0-1.9.855 3.657 3.657 0 0 0-.691 2.361 3.681 3.681 0 0 0 .665 2.385 2.349 2.349 0 0 0 1.925.809 5.058 5.058 0 0 0 1.055-.108q.51-.108 1.061-.278v1.2a6.43 6.43 0 0 1-2.285.381 3.652 3.652 0 0 1-2.889-1.14 4.768 4.768 0 0 1-1.008-3.261 5.269 5.269 0 0 1 .489-2.338 3.492 3.492 0 0 1 1.415-1.535 4.28 4.28 0 0 1 2.174-.533 5.4 5.4 0 0 1 2.426.551l-.5 1.166a7.524 7.524 0 0 0-.917-.36 3.3 3.3 0 0 0-1.024-.155ZM160.535 92h-1.4v-7.365h-2.52v-1.2h6.439v1.2h-2.52Zm8.771-2.326a2.156 2.156 0 0 1-.826 1.793 3.6 3.6 0 0 1-2.28.65 5.438 5.438 0 0 1-2.379-.451v-1.324a6.466 6.466 0 0 0 1.245.434 5.279 5.279 0 0 0 1.228.158 1.953 1.953 0 0 0 1.228-.316 1.032 1.032 0 0 0 .4-.85 1.065 1.065 0 0 0-.363-.814 5.469 5.469 0 0 0-1.5-.791 3.968 3.968 0 0 1-1.659-1.085 2.294 2.294 0 0 1-.48-1.465 2.052 2.052 0 0 1 .762-1.687 3.16 3.16 0 0 1 2.045-.615 6.008 6.008 0 0 1 2.449.539l-.445 1.143a5.351 5.351 0 0 0-2.039-.48 1.565 1.565 0 0 0-1.031.3.972.972 0 0 0-.352.782 1.1 1.1 0 0 0 .141.571 1.436 1.436 0 0 0 .463.448 7.83 7.83 0 0 0 1.16.557 6.348 6.348 0 0 1 1.383.732 2.154 2.154 0 0 1 .645.768 2.309 2.309 0 0 1 .206 1.003Z" fill="#6a6e79"/></g></g></g></g><g data-name="search + Menu"><g data-name="Search Input"><g data-name="Rectangle 1841" fill="#fff" stroke="#e0e1e9"><path d="M426 39h276a2 2 0 0 1 2 2v30H424V41a2 2 0 0 1 2-2Z" stroke="none"/><path d="M426 39.5h276a1.5 1.5 0 0 1 1.5 1.5v29.5h-279V41a1.5 1.5 0 0 1 1.5-1.5Z" fill="none"/></g><path data-name="Bottom Line" fill="#217cbb" d="M424 69h280v2H424z"/><g data-name="Search Icon"><path data-name="Path 6175" d="M432 45h20v20h-20Z" fill="none"/><path data-name="Path 6176" d="M444.641 56.484h-.609l-.216-.208a5.021 5.021 0 1 0-.54.54l.208.216v.609l3.856 3.849 1.149-1.149Zm-4.628 0a3.471 3.471 0 1 1 3.471-3.471 3.466 3.466 0 0 1-3.471 3.471Z" fill="#6a6e79"/></g><path data-name="Path 6589" d="m464.98 59-.193-.914h-.047a2.7 2.7 0 0 1-.958.814 2.92 2.92 0 0 1-1.192.217 2.145 2.145 0 0 1-1.5-.492 1.8 1.8 0 0 1-.542-1.4q0-1.945 3.111-2.039l1.09-.035v-.4a1.628 1.628 0 0 0-.325-1.116 1.337 1.337 0 0 0-1.04-.36 4.238 4.238 0 0 0-1.816.492l-.3-.744a4.571 4.571 0 0 1 1.04-.4 4.5 4.5 0 0 1 1.134-.146 2.446 2.446 0 0 1 1.7.51 2.128 2.128 0 0 1 .558 1.63V59Zm-2.2-.686a1.974 1.974 0 0 0 1.427-.5 1.842 1.842 0 0 0 .519-1.395v-.58l-.973.041a3.538 3.538 0 0 0-1.673.36 1.087 1.087 0 0 0-.513.993 1 1 0 0 0 .319.8 1.326 1.326 0 0 0 .897.281Zm7.488.8a2.741 2.741 0 0 1-2.156-.855 3.53 3.53 0 0 1-.764-2.429 3.64 3.64 0 0 1 .776-2.49 2.8 2.8 0 0 1 2.212-.879 4.389 4.389 0 0 1 .926.1 3.05 3.05 0 0 1 .727.234l-.3.826a4.574 4.574 0 0 0-.7-.214 3.139 3.139 0 0 0-.674-.085q-1.957 0-1.957 2.5a2.972 2.972 0 0 0 .478 1.816 1.661 1.661 0 0 0 1.415.633 4.326 4.326 0 0 0 1.646-.346v.861a3.509 3.509 0 0 1-1.626.331Zm5.221-.8a3.177 3.177 0 0 0 .5-.038 3.224 3.224 0 0 0 .382-.076v.744a1.778 1.778 0 0 1-.466.126 3.5 3.5 0 0 1-.554.05q-1.863 0-1.863-1.963v-3.82h-.92v-.469l.92-.4.412-1.378h.563v1.488h1.863v.756h-1.865v3.779a1.3 1.3 0 0 0 .275.887.958.958 0 0 0 .756.314Z" fill="#252a2e"/><path data-name="cursor" fill="none" stroke="#252a2e" d="M479.5 45.5v18"/><path data-name="icon-box" fill="none" d="M676 47h16v16h-16z"/><path d="m688 51.8-.8-.8-3.2 3.2-3.2-3.2-.8.8 3.2 3.2-3.2 3.2.8.8 3.2-3.2 3.2 3.2.8-.8-3.2-3.2Z" fill="#6a6e79"/></g><g data-name="Group 156743"><g filter="url(#b)"><path data-name="Rectangle 3464" fill="#fff" d="M424 71h280v72H424z"/></g><g data-name="Group 156742"><g data-name="List Item Condensed"><path data-name="Rectangle 3286" fill="#fff" d="M425 103h277v32H425z"/><path data-name="Path 6591" d="M443.646 115.434v5.543a3.019 3.019 0 0 1-.885 2.3 3.393 3.393 0 0 1-2.431.84 3.244 3.244 0 0 1-2.393-.844 3.129 3.129 0 0 1-.847-2.32v-5.52h1v5.59a2.2 2.2 0 0 0 .582 1.647 2.364 2.364 0 0 0 1.723.574 2.28 2.28 0 0 0 1.67-.577 2.22 2.22 0 0 0 .585-1.655v-5.578ZM451.3 124l-1.068-2.725H446.8L445.744 124h-1.008l3.387-8.6h.838l3.369 8.6Zm-1.378-3.621-1-2.654q-.193-.5-.4-1.236a11.1 11.1 0 0 1-.369 1.236l-1.003 2.654Zm8.625 3.621h-5.631v-.838l2.256-2.268a16.612 16.612 0 0 0 1.359-1.488 3.8 3.8 0 0 0 .492-.867 2.484 2.484 0 0 0 .164-.908 1.44 1.44 0 0 0-.416-1.087 1.593 1.593 0 0 0-1.154-.4 2.9 2.9 0 0 0-1.011.176 4.029 4.029 0 0 0-1.063.639l-.516-.662a3.949 3.949 0 0 1 2.578-.984 2.724 2.724 0 0 1 1.893.618 2.126 2.126 0 0 1 .686 1.661 3.208 3.208 0 0 1-.457 1.608 10.23 10.23 0 0 1-1.711 2.016l-1.875 1.835v.049h4.406Zm4.066-8.689a2.9 2.9 0 0 1 1.857.545 1.817 1.817 0 0 1 .686 1.506 1.875 1.875 0 0 1-.393 1.154 3.468 3.468 0 0 1-1.254.949 4.216 4.216 0 0 1 1.482 1.046 1.969 1.969 0 0 1 .439 1.269 2.125 2.125 0 0 1-.744 1.7 3.038 3.038 0 0 1-2.039.636 3.266 3.266 0 0 1-2.109-.6 2.069 2.069 0 0 1-.738-1.7 2.541 2.541 0 0 1 1.793-2.291 3.309 3.309 0 0 1-1.16-.987 2.1 2.1 0 0 1-.352-1.187 1.808 1.808 0 0 1 .688-1.485 2.855 2.855 0 0 1 1.844-.555Zm-1.851 6.527a1.326 1.326 0 0 0 .489 1.1 2.143 2.143 0 0 0 1.374.393 2.047 2.047 0 0 0 1.359-.41 1.393 1.393 0 0 0 .486-1.125 1.371 1.371 0 0 0-.457-1.011 4.663 4.663 0 0 0-1.594-.858 3.468 3.468 0 0 0-1.266.829 1.607 1.607 0 0 0-.391 1.082Zm1.838-5.738a1.725 1.725 0 0 0-1.148.352 1.166 1.166 0 0 0-.416.938 1.342 1.342 0 0 0 .346.926 3.61 3.61 0 0 0 1.277.773 3.2 3.2 0 0 0 1.187-.756 1.4 1.4 0 0 0 .349-.943 1.153 1.153 0 0 0-.425-.94 1.79 1.79 0 0 0-1.17-.35Zm7.748 7.9v-8.566h1v7.666h3.779v.9Zm7.052 0h-.97v-6.422h.97Zm-1.052-8.162a.646.646 0 0 1 .164-.489.573.573 0 0 1 .41-.155.573.573 0 0 1 .4.158.634.634 0 0 1 .17.486.644.644 0 0 1-.17.489.567.567 0 0 1-.4.161.562.562 0 0 1-.41-.161.658.658 0 0 1-.164-.489Zm8.373 1.74v.615l-1.189.141a2.045 2.045 0 0 1 .293.536 2.046 2.046 0 0 1 .129.747 1.9 1.9 0 0 1-.645 1.506 2.6 2.6 0 0 1-1.77.563 2.947 2.947 0 0 1-.539-.047.957.957 0 0 0-.621.826.42.42 0 0 0 .217.39 1.584 1.584 0 0 0 .744.126h1.137a2.545 2.545 0 0 1 1.6.439 1.527 1.527 0 0 1 .562 1.28 1.823 1.823 0 0 1-.855 1.626 4.579 4.579 0 0 1-2.5.56 3.41 3.41 0 0 1-1.942-.469 1.513 1.513 0 0 1-.683-1.324 1.487 1.487 0 0 1 .378-1.017 1.909 1.909 0 0 1 1.055-.576 1.017 1.017 0 0 1-.413-.346.915.915 0 0 1-.167-.545 1.034 1.034 0 0 1 .188-.619 1.971 1.971 0 0 1 .592-.51 1.735 1.735 0 0 1-.812-.7 2.049 2.049 0 0 1-.313-1.125 2.078 2.078 0 0 1 .633-1.623 2.584 2.584 0 0 1 1.793-.571 3.26 3.26 0 0 1 .908.117Zm-5.121 7.5a.872.872 0 0 0 .439.791 2.425 2.425 0 0 0 1.26.27 3.515 3.515 0 0 0 1.813-.366 1.121 1.121 0 0 0 .588-.994.786.786 0 0 0-.322-.724 2.5 2.5 0 0 0-1.213-.2H481a1.536 1.536 0 0 0-1.031.315 1.131 1.131 0 0 0-.369.908Zm.527-5.443a1.307 1.307 0 0 0 .381 1.02 1.521 1.521 0 0 0 1.06.345 1.241 1.241 0 0 0 1.424-1.383 1.277 1.277 0 0 0-1.441-1.447 1.427 1.427 0 0 0-1.055.369 1.487 1.487 0 0 0-.369 1.096ZM490.434 124v-4.154a1.676 1.676 0 0 0-.357-1.172 1.456 1.456 0 0 0-1.119-.387 1.834 1.834 0 0 0-1.479.551 2.79 2.79 0 0 0-.466 1.8V124h-.973v-9.117h.973v2.76a6.013 6.013 0 0 1-.047.826h.059a1.984 1.984 0 0 1 .817-.729 2.657 2.657 0 0 1 1.21-.267 2.478 2.478 0 0 1 1.767.56 2.357 2.357 0 0 1 .589 1.778V124Zm5.045-.686a3.177 3.177 0 0 0 .5-.038 3.224 3.224 0 0 0 .378-.076v.744a1.778 1.778 0 0 1-.466.126 3.5 3.5 0 0 1-.554.05q-1.863 0-1.863-1.963v-3.82h-.92v-.469l.92-.4.41-1.371h.563v1.488h1.863v.756h-1.863v3.779a1.3 1.3 0 0 0 .276.88.958.958 0 0 0 .756.314Zm3.134.686h-.973v-6.422h.973Zm-1.054-8.162a.646.646 0 0 1 .164-.489.573.573 0 0 1 .41-.155.573.573 0 0 1 .4.158.634.634 0 0 1 .17.486.644.644 0 0 1-.17.489.567.567 0 0 1-.4.161.562.562 0 0 1-.41-.161.658.658 0 0 1-.164-.489ZM505.07 124v-4.154a1.676 1.676 0 0 0-.357-1.172 1.456 1.456 0 0 0-1.119-.387 1.846 1.846 0 0 0-1.477.545 2.751 2.751 0 0 0-.469 1.8V124h-.973v-6.422h.791l.158.879h.047a1.986 1.986 0 0 1 .838-.735 2.722 2.722 0 0 1 1.2-.261 2.439 2.439 0 0 1 1.746.56 2.381 2.381 0 0 1 .586 1.79V124Zm8.23-6.422v.615l-1.189.141a2.045 2.045 0 0 1 .293.536 2.046 2.046 0 0 1 .129.747 1.9 1.9 0 0 1-.645 1.506 2.6 2.6 0 0 1-1.77.563 2.947 2.947 0 0 1-.539-.047.957.957 0 0 0-.621.826.42.42 0 0 0 .217.39 1.584 1.584 0 0 0 .744.126h1.137a2.545 2.545 0 0 1 1.6.439 1.527 1.527 0 0 1 .559 1.28 1.823 1.823 0 0 1-.855 1.626 4.579 4.579 0 0 1-2.5.56 3.41 3.41 0 0 1-1.942-.469 1.513 1.513 0 0 1-.683-1.324 1.487 1.487 0 0 1 .378-1.017 1.909 1.909 0 0 1 1.055-.576 1.017 1.017 0 0 1-.413-.346.915.915 0 0 1-.167-.545 1.034 1.034 0 0 1 .188-.615 1.971 1.971 0 0 1 .592-.51 1.735 1.735 0 0 1-.812-.7 2.049 2.049 0 0 1-.313-1.125 2.078 2.078 0 0 1 .633-1.626 2.584 2.584 0 0 1 1.793-.571 3.26 3.26 0 0 1 .908.117Zm-5.121 7.5a.872.872 0 0 0 .439.791 2.425 2.425 0 0 0 1.26.27 3.515 3.515 0 0 0 1.813-.366 1.121 1.121 0 0 0 .589-.993.786.786 0 0 0-.322-.724 2.5 2.5 0 0 0-1.213-.2h-1.169a1.536 1.536 0 0 0-1.031.314 1.131 1.131 0 0 0-.369.908Zm.521-5.443a1.307 1.307 0 0 0 .381 1.02 1.521 1.521 0 0 0 1.064.345 1.241 1.241 0 0 0 1.424-1.383 1.277 1.277 0 0 0-1.442-1.447 1.427 1.427 0 0 0-1.055.369 1.487 1.487 0 0 0-.372 1.096Zm15.645-4.2v5.543a3.019 3.019 0 0 1-.885 2.3 3.393 3.393 0 0 1-2.432.838 3.244 3.244 0 0 1-2.394-.844 3.129 3.129 0 0 1-.847-2.32v-5.52h1v5.59a2.2 2.2 0 0 0 .586 1.646 2.364 2.364 0 0 0 1.727.576 2.28 2.28 0 0 0 1.67-.577 2.22 2.22 0 0 0 .586-1.655v-5.578Zm5.112 8.682a2.779 2.779 0 0 1-1.146-.231 2.154 2.154 0 0 1-.87-.712h-.07a8.614 8.614 0 0 1 .07 1.066v2.643h-.973v-9.3h.791l.135.879h.047a2.259 2.259 0 0 1 .873-.762 2.654 2.654 0 0 1 1.143-.234 2.374 2.374 0 0 1 1.972.873 3.844 3.844 0 0 1 .694 2.449 3.821 3.821 0 0 1-.706 2.458 2.378 2.378 0 0 1-1.96.871Zm-.141-5.83a1.724 1.724 0 0 0-1.424.545 2.8 2.8 0 0 0-.451 1.734v.217a3.214 3.214 0 0 0 .451 1.937 1.716 1.716 0 0 0 1.448.58 1.5 1.5 0 0 0 1.3-.674 3.2 3.2 0 0 0 .472-1.857 3.075 3.075 0 0 0-.472-1.843 1.551 1.551 0 0 0-1.324-.639Zm9.762-.709v.615l-1.189.141a2.045 2.045 0 0 1 .293.536 2.046 2.046 0 0 1 .129.747 1.9 1.9 0 0 1-.645 1.506 2.6 2.6 0 0 1-1.77.563 2.947 2.947 0 0 1-.539-.047.957.957 0 0 0-.621.826.42.42 0 0 0 .217.39 1.584 1.584 0 0 0 .744.126h1.137a2.545 2.545 0 0 1 1.6.439 1.527 1.527 0 0 1 .566 1.28 1.823 1.823 0 0 1-.855 1.626 4.579 4.579 0 0 1-2.5.56 3.41 3.41 0 0 1-1.945-.472 1.513 1.513 0 0 1-.68-1.324 1.487 1.487 0 0 1 .375-1.014 1.909 1.909 0 0 1 1.054-.576 1.017 1.017 0 0 1-.413-.346.915.915 0 0 1-.167-.545 1.034 1.034 0 0 1 .188-.615 1.971 1.971 0 0 1 .592-.51 1.735 1.735 0 0 1-.812-.7 2.049 2.049 0 0 1-.313-1.125 2.078 2.078 0 0 1 .633-1.626 2.584 2.584 0 0 1 1.793-.571 3.26 3.26 0 0 1 .908.117Zm-5.121 7.5a.872.872 0 0 0 .439.791 2.425 2.425 0 0 0 1.26.27 3.515 3.515 0 0 0 1.813-.366 1.121 1.121 0 0 0 .589-.993.786.786 0 0 0-.322-.724 2.5 2.5 0 0 0-1.213-.2h-1.166a1.536 1.536 0 0 0-1.031.314 1.131 1.131 0 0 0-.369.908Zm.527-5.443a1.307 1.307 0 0 0 .381 1.02 1.521 1.521 0 0 0 1.061.345 1.241 1.241 0 0 0 1.424-1.383 1.277 1.277 0 0 0-1.442-1.447 1.427 1.427 0 0 0-1.055.369 1.487 1.487 0 0 0-.369 1.096Zm8.842-2.174a3.806 3.806 0 0 1 .768.07l-.135.9a3.313 3.313 0 0 0-.7-.088 1.712 1.712 0 0 0-1.333.633 2.307 2.307 0 0 0-.554 1.576V124h-.972v-6.422h.8l.111 1.189h.047a2.823 2.823 0 0 1 .861-.967 1.939 1.939 0 0 1 1.107-.339Zm5.918 6.539-.193-.914H549a2.7 2.7 0 0 1-.958.817 2.92 2.92 0 0 1-1.192.214 2.145 2.145 0 0 1-1.5-.492 1.8 1.8 0 0 1-.542-1.4q0-1.945 3.111-2.039l1.09-.035v-.4a1.628 1.628 0 0 0-.325-1.116 1.337 1.337 0 0 0-1.04-.36 4.238 4.238 0 0 0-1.816.492l-.3-.744a4.571 4.571 0 0 1 1.04-.4 4.5 4.5 0 0 1 1.134-.146 2.446 2.446 0 0 1 1.7.51 2.128 2.128 0 0 1 .554 1.635V124Zm-2.2-.686a1.974 1.974 0 0 0 1.427-.5 1.842 1.842 0 0 0 .519-1.395v-.58l-.973.041a3.538 3.538 0 0 0-1.673.36 1.087 1.087 0 0 0-.513.993 1 1 0 0 0 .319.8 1.326 1.326 0 0 0 .897.281Zm9.293-.176h-.053a2.285 2.285 0 0 1-2.016.979 2.384 2.384 0 0 1-1.96-.861 3.791 3.791 0 0 1-.7-2.449 3.855 3.855 0 0 1 .7-2.467 2.366 2.366 0 0 1 1.957-.879 2.335 2.335 0 0 1 2 .949h.076l-.041-.463-.023-.451v-2.613h.973V124h-.791Zm-1.942.162a1.771 1.771 0 0 0 1.444-.542 2.739 2.739 0 0 0 .448-1.749v-.205a3.222 3.222 0 0 0-.454-1.948 1.724 1.724 0 0 0-1.45-.583 1.489 1.489 0 0 0-1.31.665 3.307 3.307 0 0 0-.454 1.878 3.17 3.17 0 0 0 .451 1.857 1.528 1.528 0 0 0 1.325.627Zm7.641.814a2.95 2.95 0 0 1-2.247-.867 3.357 3.357 0 0 1-.823-2.408 3.723 3.723 0 0 1 .765-2.467 2.54 2.54 0 0 1 2.054-.914 2.422 2.422 0 0 1 1.91.794 3.043 3.043 0 0 1 .7 2.095v.615h-4.424a2.546 2.546 0 0 0 .571 1.717 1.976 1.976 0 0 0 1.526.586 5.172 5.172 0 0 0 2.051-.434v.869a5.147 5.147 0 0 1-.976.319 5.483 5.483 0 0 1-1.108.098Zm-.264-5.842a1.588 1.588 0 0 0-1.233.5 2.323 2.323 0 0 0-.539 1.402h3.357a2.139 2.139 0 0 0-.41-1.409 1.444 1.444 0 0 0-1.176-.49ZM573.238 124l-.346-.891h-.047a2.639 2.639 0 0 1-.929.788 3 3 0 0 1-1.245.22 2.013 2.013 0 0 1-1.485-.539 2.07 2.07 0 0 1-.542-1.535 1.729 1.729 0 0 1 .729-1.538 4.227 4.227 0 0 1 2.2-.548l1.137-.035v-.287a.891.891 0 0 0-1.02-1 4.646 4.646 0 0 0-1.846.475l-.592-1.207a5.326 5.326 0 0 1 2.508-.592 3.124 3.124 0 0 1 2.021.574 2.122 2.122 0 0 1 .7 1.746V124Zm-.527-3.035-.691.023a2.214 2.214 0 0 0-1.16.281.883.883 0 0 0-.381.785q0 .756.867.756a1.373 1.373 0 0 0 .993-.357 1.255 1.255 0 0 0 .372-.949Zm6.275 3.152q-3.059 0-3.059-3.357a3.581 3.581 0 0 1 .832-2.552 3.121 3.121 0 0 1 2.385-.882 4.546 4.546 0 0 1 2.039.445l-.527 1.383q-.422-.17-.785-.278a2.53 2.53 0 0 0-.727-.108q-1.395 0-1.395 1.98 0 1.922 1.395 1.922a3.18 3.18 0 0 0 .955-.138 3.448 3.448 0 0 0 .879-.431v1.53a2.88 2.88 0 0 1-.876.381 4.926 4.926 0 0 1-1.116.105Zm6.27-1.424a3.874 3.874 0 0 0 1.125-.205v1.33a4.011 4.011 0 0 1-1.641.3 2.008 2.008 0 0 1-1.562-.542 2.359 2.359 0 0 1-.489-1.626v-3.159h-.855v-.756l.984-.6.516-1.383h1.143v1.395h1.834v1.342h-1.834v3.158a.7.7 0 0 0 .214.563.844.844 0 0 0 .565.183Zm3.515 1.307h-.971v-6.422h.973Zm-1.055-8.162a.646.646 0 0 1 .164-.489.573.573 0 0 1 .41-.155.573.573 0 0 1 .4.158.634.634 0 0 1 .17.486.644.644 0 0 1-.17.489.567.567 0 0 1-.4.161.562.562 0 0 1-.41-.161.658.658 0 0 1-.163-.489ZM592.24 124l-2.44-6.422h1.043l1.383 3.809a18.027 18.027 0 0 1 .551 1.734h.047a13.1 13.1 0 0 1 .407-1.286q.343-.976 1.538-4.257h1.043L593.377 124Zm7.318.117a2.95 2.95 0 0 1-2.247-.867 3.357 3.357 0 0 1-.823-2.408 3.723 3.723 0 0 1 .765-2.467 2.54 2.54 0 0 1 2.054-.914 2.422 2.422 0 0 1 1.91.794 3.043 3.043 0 0 1 .7 2.095v.615H597.5a2.546 2.546 0 0 0 .571 1.717 1.976 1.976 0 0 0 1.526.586 5.172 5.172 0 0 0 2.051-.434v.866a5.147 5.147 0 0 1-.976.319 5.483 5.483 0 0 1-1.113.098Zm-.264-5.842a1.588 1.588 0 0 0-1.233.5 2.323 2.323 0 0 0-.542 1.395h3.357a2.139 2.139 0 0 0-.41-1.409 1.444 1.444 0 0 0-1.171-.486Zm16.1-.346a2.4 2.4 0 0 1-.888 2 4.021 4.021 0 0 1-2.54.7h-1.008V124h-1v-8.566h2.221q3.212 0 3.212 2.496Zm-4.436 1.846h.9a3.332 3.332 0 0 0 1.916-.428 1.576 1.576 0 0 0 .592-1.371 1.478 1.478 0 0 0-.557-1.266 2.908 2.908 0 0 0-1.734-.416h-1.113Zm11.063 1.945a2.1 2.1 0 0 1-.82 1.764 3.557 3.557 0 0 1-2.227.633 5.577 5.577 0 0 1-2.344-.393v-.961a6.171 6.171 0 0 0 1.148.352 6.042 6.042 0 0 0 1.23.129 2.483 2.483 0 0 0 1.5-.378 1.24 1.24 0 0 0 .5-1.052 1.35 1.35 0 0 0-.179-.729 1.66 1.66 0 0 0-.6-.524 8.361 8.361 0 0 0-1.274-.545 4.068 4.068 0 0 1-1.704-1.016 2.238 2.238 0 0 1-.513-1.529 1.9 1.9 0 0 1 .744-1.576 3.092 3.092 0 0 1 1.969-.586 5.8 5.8 0 0 1 2.35.469l-.311.867a5.31 5.31 0 0 0-2.062-.445 2 2 0 0 0-1.236.34 1.12 1.12 0 0 0-.445.943 1.446 1.446 0 0 0 .164.729 1.545 1.545 0 0 0 .554.521 6.88 6.88 0 0 0 1.192.524 4.721 4.721 0 0 1 1.854 1.031 2.028 2.028 0 0 1 .507 1.433Z" fill="#252a2e"/></g><g data-name="List Item Condensed"><path data-name="Rectangle 3286" fill="#fff" d="M425 71h277v32H425z"/><path data-name="Path 6590" d="M442.217 92h-5.631v-.838l2.256-2.267a16.612 16.612 0 0 0 1.358-1.489 3.8 3.8 0 0 0 .492-.867 2.484 2.484 0 0 0 .164-.908 1.44 1.44 0 0 0-.416-1.087 1.593 1.593 0 0 0-1.154-.4 2.9 2.9 0 0 0-1.011.176 4.029 4.029 0 0 0-1.063.639l-.512-.664a3.949 3.949 0 0 1 2.578-.984 2.724 2.724 0 0 1 1.893.618 2.126 2.126 0 0 1 .683 1.661 3.208 3.208 0 0 1-.454 1.61 10.23 10.23 0 0 1-1.714 2.017l-1.875 1.834v.049h4.406Zm6.908-4.295a6.256 6.256 0 0 1-.7 3.316 2.366 2.366 0 0 1-2.142 1.1A2.346 2.346 0 0 1 444.18 91a6.132 6.132 0 0 1-.721-3.29 6.254 6.254 0 0 1 .7-3.322 2.355 2.355 0 0 1 2.124-1.088 2.359 2.359 0 0 1 2.117 1.13 6.106 6.106 0 0 1 .725 3.275Zm-4.682 0a6.274 6.274 0 0 0 .439 2.722 1.47 1.47 0 0 0 1.4.853 1.471 1.471 0 0 0 1.409-.864 6.322 6.322 0 0 0 .437-2.71 6.28 6.28 0 0 0-.436-2.706 1.472 1.472 0 0 0-1.409-.858 1.471 1.471 0 0 0-1.4.847 6.232 6.232 0 0 0-.44 2.716ZM453.912 92h-.949v-6.105q0-.762.047-1.441-.123.123-.275.258t-1.395 1.142l-.516-.668 2.268-1.752h.82Zm8.888-4.91q0 5.027-3.89 5.027a3.961 3.961 0 0 1-1.078-.117v-.838a3.445 3.445 0 0 0 1.068.152 2.594 2.594 0 0 0 2.124-.87 4.4 4.4 0 0 0 .776-2.669h-.07a2.085 2.085 0 0 1-.855.741 2.751 2.751 0 0 1-1.2.255 2.415 2.415 0 0 1-1.8-.68 2.593 2.593 0 0 1-.668-1.9 2.908 2.908 0 0 1 .747-2.109 2.609 2.609 0 0 1 1.966-.773 2.632 2.632 0 0 1 1.526.448 2.833 2.833 0 0 1 1 1.307 5.322 5.322 0 0 1 .354 2.026Zm-2.882-2.947a1.6 1.6 0 0 0-1.295.539 2.25 2.25 0 0 0-.457 1.5 1.95 1.95 0 0 0 .422 1.327 1.613 1.613 0 0 0 1.283.483 2.224 2.224 0 0 0 .981-.217 1.772 1.772 0 0 0 .706-.592 1.365 1.365 0 0 0 .258-.785 2.684 2.684 0 0 0-.24-1.137 1.982 1.982 0 0 0-.671-.82 1.69 1.69 0 0 0-.987-.298ZM474.244 92h-1v-4.031h-4.508V92h-1v-8.566h1v3.645h4.512v-3.645h1Zm7.746-3.217a3.543 3.543 0 0 1-.79 2.452 2.786 2.786 0 0 1-2.186.882 2.9 2.9 0 0 1-1.529-.4 2.668 2.668 0 0 1-1.031-1.16 4.043 4.043 0 0 1-.363-1.77 3.537 3.537 0 0 1 .785-2.446 2.777 2.777 0 0 1 2.18-.876 2.717 2.717 0 0 1 2.142.9 3.527 3.527 0 0 1 .792 2.418Zm-4.893 0a3.048 3.048 0 0 0 .492 1.875 1.708 1.708 0 0 0 1.448.642 1.72 1.72 0 0 0 1.45-.642 3.033 3.033 0 0 0 .5-1.878 2.984 2.984 0 0 0-.5-1.86 1.74 1.74 0 0 0-1.462-.636 1.712 1.712 0 0 0-1.441.627 3.017 3.017 0 0 0-.484 1.872ZM484.668 92h-.968v-9.117h.973Zm3.032 0h-.97v-9.117h.97Zm6.012 0-.193-.914h-.047a2.7 2.7 0 0 1-.958.817 2.92 2.92 0 0 1-1.192.214 2.145 2.145 0 0 1-1.5-.492 1.8 1.8 0 0 1-.542-1.4q0-1.945 3.111-2.039l1.09-.035v-.4a1.628 1.628 0 0 0-.325-1.116 1.337 1.337 0 0 0-1.04-.36 4.238 4.238 0 0 0-1.816.492l-.3-.744a4.571 4.571 0 0 1 1.04-.4 4.5 4.5 0 0 1 1.134-.146 2.446 2.446 0 0 1 1.7.51 2.128 2.128 0 0 1 .554 1.635V92Zm-2.2-.686a1.974 1.974 0 0 0 1.427-.5 1.842 1.842 0 0 0 .519-1.395v-.58l-.973.041a3.538 3.538 0 0 0-1.673.36 1.087 1.087 0 0 0-.513.993 1 1 0 0 0 .319.8 1.326 1.326 0 0 0 .9.281Zm9.322.686v-4.154a1.676 1.676 0 0 0-.357-1.172 1.456 1.456 0 0 0-1.119-.387 1.846 1.846 0 0 0-1.477.545 2.751 2.751 0 0 0-.469 1.8V92h-.973v-6.422h.791l.158.879h.047a1.986 1.986 0 0 1 .838-.735 2.722 2.722 0 0 1 1.2-.261 2.439 2.439 0 0 1 1.746.56 2.381 2.381 0 0 1 .586 1.79V92Zm7.342-.861h-.053a2.285 2.285 0 0 1-2.016.979 2.384 2.384 0 0 1-1.96-.861 3.791 3.791 0 0 1-.7-2.449 3.855 3.855 0 0 1 .7-2.467 2.366 2.366 0 0 1 1.957-.879 2.335 2.335 0 0 1 2 .949h.076l-.041-.463-.016-.448v-2.617h.977V92h-.8Zm-1.946.161a1.771 1.771 0 0 0 1.444-.542 2.739 2.739 0 0 0 .448-1.749v-.205a3.222 3.222 0 0 0-.454-1.948 1.724 1.724 0 0 0-1.45-.583 1.489 1.489 0 0 0-1.31.665 3.307 3.307 0 0 0-.454 1.878 3.17 3.17 0 0 0 .451 1.857 1.528 1.528 0 0 0 1.325.627Zm12.112.7-.342-.891h-.047a2.639 2.639 0 0 1-.929.788 3 3 0 0 1-1.245.22 2.013 2.013 0 0 1-1.489-.539 2.07 2.07 0 0 1-.542-1.535 1.729 1.729 0 0 1 .73-1.543 4.227 4.227 0 0 1 2.2-.548l1.137-.035v-.287a.891.891 0 0 0-1.02-1 4.646 4.646 0 0 0-1.846.475l-.592-1.207a5.326 5.326 0 0 1 2.508-.592 3.124 3.124 0 0 1 2.021.574 2.122 2.122 0 0 1 .7 1.746V92Zm-.527-3.035-.691.023a2.214 2.214 0 0 0-1.16.281.883.883 0 0 0-.381.785q0 .756.867.756a1.373 1.373 0 0 0 .993-.357 1.255 1.255 0 0 0 .372-.949Zm6.275 3.152q-3.059 0-3.059-3.357a3.581 3.581 0 0 1 .832-2.552 3.121 3.121 0 0 1 2.385-.882 4.546 4.546 0 0 1 2.039.445l-.527 1.383q-.422-.17-.785-.278a2.53 2.53 0 0 0-.727-.108q-1.395 0-1.395 1.98 0 1.922 1.395 1.922a3.18 3.18 0 0 0 .955-.138 3.448 3.448 0 0 0 .879-.431v1.53a2.88 2.88 0 0 1-.876.381 4.926 4.926 0 0 1-1.116.105Zm6.27-1.424a3.874 3.874 0 0 0 1.125-.205v1.33a4.011 4.011 0 0 1-1.641.3 2.008 2.008 0 0 1-1.562-.542 2.359 2.359 0 0 1-.489-1.626v-3.159h-.855v-.756l.984-.6.516-1.383h1.142v1.395h1.834v1.342h-1.834v3.158a.7.7 0 0 0 .214.563.844.844 0 0 0 .565.183ZM533.875 92h-.975v-6.422h.973Zm-1.055-8.162a.646.646 0 0 1 .164-.489.573.573 0 0 1 .41-.155.573.573 0 0 1 .4.158.634.634 0 0 1 .17.486.644.644 0 0 1-.17.489.567.567 0 0 1-.4.161.562.562 0 0 1-.41-.161.658.658 0 0 1-.164-.489ZM537.344 92l-2.438-6.422h1.043l1.383 3.809a18.027 18.027 0 0 1 .551 1.734h.047a13.1 13.1 0 0 1 .407-1.286q.343-.976 1.538-4.257h1.043L538.48 92Zm7.318.117a2.95 2.95 0 0 1-2.247-.867 3.357 3.357 0 0 1-.823-2.408 3.723 3.723 0 0 1 .765-2.467 2.54 2.54 0 0 1 2.054-.914 2.422 2.422 0 0 1 1.91.794 3.043 3.043 0 0 1 .7 2.095v.615H542.6a2.546 2.546 0 0 0 .571 1.717 1.976 1.976 0 0 0 1.526.586 5.172 5.172 0 0 0 2.051-.434v.866a5.147 5.147 0 0 1-.976.319 5.483 5.483 0 0 1-1.11.098Zm-.262-5.842a1.588 1.588 0 0 0-1.233.5 2.323 2.323 0 0 0-.542 1.395h3.357a2.139 2.139 0 0 0-.41-1.409 1.444 1.444 0 0 0-1.172-.486Zm10.387 5.842a2.779 2.779 0 0 1-1.146-.231 2.154 2.154 0 0 1-.87-.712h-.07a8.614 8.614 0 0 1 .07 1.066v2.643h-.971v-9.3h.791l.135.879h.047a2.259 2.259 0 0 1 .873-.762 2.654 2.654 0 0 1 1.143-.234 2.374 2.374 0 0 1 1.972.873 3.844 3.844 0 0 1 .694 2.449 3.821 3.821 0 0 1-.706 2.458 2.378 2.378 0 0 1-1.962.871Zm-.141-5.83a1.724 1.724 0 0 0-1.424.545 2.8 2.8 0 0 0-.451 1.734v.217a3.214 3.214 0 0 0 .451 1.937 1.716 1.716 0 0 0 1.448.58 1.5 1.5 0 0 0 1.3-.674 3.2 3.2 0 0 0 .472-1.857 3.075 3.075 0 0 0-.472-1.843 1.551 1.551 0 0 0-1.324-.639Zm7.436-.826a3.806 3.806 0 0 1 .768.07l-.135.9a3.313 3.313 0 0 0-.7-.088 1.712 1.712 0 0 0-1.333.633 2.307 2.307 0 0 0-.554 1.576V92h-.973v-6.422h.8l.111 1.189h.047a2.823 2.823 0 0 1 .861-.967 1.939 1.939 0 0 1 1.108-.339Zm7.512 3.322a3.543 3.543 0 0 1-.794 2.452 2.786 2.786 0 0 1-2.186.882 2.9 2.9 0 0 1-1.529-.4 2.668 2.668 0 0 1-1.031-1.16 4.043 4.043 0 0 1-.363-1.77 3.537 3.537 0 0 1 .785-2.446 2.777 2.777 0 0 1 2.18-.876 2.717 2.717 0 0 1 2.142.9 3.527 3.527 0 0 1 .796 2.418Zm-4.893 0a3.048 3.048 0 0 0 .492 1.875 1.708 1.708 0 0 0 1.447.645 1.72 1.72 0 0 0 1.45-.642 3.033 3.033 0 0 0 .5-1.878 2.984 2.984 0 0 0-.5-1.86 1.74 1.74 0 0 0-1.462-.636 1.712 1.712 0 0 0-1.441.627 3.017 3.017 0 0 0-.487 1.869Zm5.818 6.1a2.341 2.341 0 0 1-.9-.146v-.792a2.853 2.853 0 0 0 .8.117.838.838 0 0 0 .671-.249 1.142 1.142 0 0 0 .214-.759v-7.476h.973v7.406q-.006 1.899-1.757 1.899Zm.7-11.045a.646.646 0 0 1 .164-.489.573.573 0 0 1 .41-.155.573.573 0 0 1 .4.158.634.634 0 0 1 .17.486.644.644 0 0 1-.17.489.567.567 0 0 1-.4.161.562.562 0 0 1-.41-.161.658.658 0 0 1-.166-.489Zm5.83 8.279a2.95 2.95 0 0 1-2.249-.867 3.357 3.357 0 0 1-.823-2.408 3.723 3.723 0 0 1 .765-2.467 2.54 2.54 0 0 1 2.054-.914 2.422 2.422 0 0 1 1.91.794 3.043 3.043 0 0 1 .7 2.095v.615h-4.424a2.546 2.546 0 0 0 .571 1.717 1.976 1.976 0 0 0 1.526.586 5.172 5.172 0 0 0 2.051-.434v.866a5.147 5.147 0 0 1-.976.319 5.483 5.483 0 0 1-1.107.098Zm-.264-5.842a1.588 1.588 0 0 0-1.233.5 2.323 2.323 0 0 0-.542 1.395h3.357a2.139 2.139 0 0 0-.41-1.409 1.444 1.444 0 0 0-1.174-.486Zm6.85 5.842a2.741 2.741 0 0 1-2.159-.858 3.53 3.53 0 0 1-.765-2.429 3.64 3.64 0 0 1 .776-2.49 2.8 2.8 0 0 1 2.212-.879 4.389 4.389 0 0 1 .926.1 3.05 3.05 0 0 1 .727.234l-.3.826a4.574 4.574 0 0 0-.7-.214 3.139 3.139 0 0 0-.674-.085q-1.957 0-1.957 2.5a2.972 2.972 0 0 0 .478 1.816 1.661 1.661 0 0 0 1.415.633 4.326 4.326 0 0 0 1.646-.346v.861a3.509 3.509 0 0 1-1.627.331Zm5.221-.8a3.177 3.177 0 0 0 .5-.038 3.224 3.224 0 0 0 .381-.079v.744a1.778 1.778 0 0 1-.466.126 3.5 3.5 0 0 1-.554.05q-1.863 0-1.863-1.963v-3.82h-.92v-.469l.92-.4.41-1.371h.563v1.488h1.863v.756h-1.863v3.779a1.3 1.3 0 0 0 .273.88.958.958 0 0 0 .754.314Z" fill="#252a2e"/></g></g></g></g></svg>