<svg width="79" height="32" fill="none" xmlns="http://www.w3.org/2000/svg"><rect width="79" height="32" rx="2" fill="#AB1F26"/><path d="M0 2a2 2 0 012-2h48v32H2a2 2 0 01-2-2V2z" fill="#E86363"/><path d="M17.313 11.006h2.973c1.29 0 2.263.187 2.92.56.655.374.983 1.019.983 1.935 0 .383-.068.73-.205 1.039a1.916 1.916 0 01-.58.759 2.16 2.16 0 01-.944.396v.069c.387.068.731.189 1.032.362.305.173.545.421.718.745.178.324.267.743.267 1.258 0 .61-.146 1.13-.438 1.558-.287.429-.7.755-1.237.978-.533.223-1.167.335-1.9.335h-3.59v-9.994zm1.64 4.122h1.572c.743 0 1.258-.12 1.545-.362.287-.242.431-.595.431-1.06 0-.474-.17-.816-.513-1.025-.337-.21-.875-.315-1.613-.315h-1.422v2.762zm0 1.326v3.172h1.73c.765 0 1.303-.148 1.613-.444.31-.297.465-.698.465-1.203a1.5 1.5 0 00-.212-.807c-.137-.228-.363-.403-.677-.527-.314-.127-.738-.19-1.271-.19h-1.648zm14.042-3.021V21H31.73l-.219-1.019h-.089a2.18 2.18 0 01-.608.65c-.246.168-.52.294-.82.376-.301.086-.618.13-.95.13-.57 0-1.058-.096-1.463-.287a2.032 2.032 0 01-.923-.903c-.215-.405-.322-.93-.322-1.572v-4.942h1.614v4.641c0 .588.118 1.028.355 1.32.242.291.615.437 1.121.437.488 0 .875-.1 1.162-.3.287-.201.49-.497.609-.89.123-.391.184-.872.184-1.442v-3.766h1.614zm5.14 6.405c.21 0 .418-.018.623-.055a5 5 0 00.56-.143v1.216a3.36 3.36 0 01-.69.199 4.63 4.63 0 01-.882.082 3 3 0 01-1.155-.212 1.69 1.69 0 01-.814-.745c-.2-.351-.3-.837-.3-1.456v-4.068h-1.033v-.718l1.108-.567.526-1.62h1.012v1.682h2.167v1.223H37.09v4.047c0 .383.096.668.287.855.191.186.444.28.759.28zm5.559 0c.21 0 .417-.018.622-.055.205-.04.392-.089.56-.143v1.216a3.36 3.36 0 01-.69.199 4.63 4.63 0 01-.882.082 3 3 0 01-1.155-.212 1.69 1.69 0 01-.813-.745c-.201-.351-.301-.837-.301-1.456v-4.068h-1.032v-.718l1.107-.567.526-1.62h1.012v1.682h2.167v1.223h-2.167v4.047c0 .383.096.668.287.855.191.186.444.28.759.28zm9.44-2.639c0 .63-.081 1.187-.245 1.675-.164.488-.404.9-.718 1.237a3.163 3.163 0 01-1.135.766c-.442.173-.94.26-1.497.26-.52 0-.996-.087-1.429-.26a3.26 3.26 0 01-1.128-.766 3.51 3.51 0 01-.731-1.237c-.173-.488-.26-1.046-.26-1.675 0-.834.144-1.54.43-2.119a3.067 3.067 0 011.245-1.333c.538-.305 1.178-.458 1.92-.458.698 0 1.313.153 1.847.458.533.305.95.75 1.25 1.333.301.583.452 1.29.452 2.12zm-5.489 0c0 .552.067 1.023.199 1.415.136.392.346.693.629.903.282.205.647.307 1.093.307.447 0 .812-.102 1.094-.307.283-.21.49-.51.622-.903.132-.392.199-.863.199-1.415 0-.551-.067-1.018-.199-1.401-.132-.387-.34-.681-.622-.882-.282-.205-.65-.308-1.1-.308-.666 0-1.151.224-1.457.67-.305.447-.458 1.087-.458 1.921zm11.3-3.91c.853 0 1.516.221 1.99.663.479.438.718 1.142.718 2.112V21h-1.607v-4.635c0-.588-.12-1.027-.362-1.32-.241-.295-.615-.443-1.121-.443-.734 0-1.244.225-1.531.676-.283.451-.424 1.106-.424 1.962V21h-1.606v-7.567h1.25l.226 1.025h.089c.164-.264.367-.48.608-.65.246-.173.52-.303.82-.39a3.47 3.47 0 01.95-.129z" fill="#fff"/></svg>