<svg xmlns="http://www.w3.org/2000/svg" width="166" height="32" fill="none" viewBox="0 0 166 32"><rect width="166" height="32" fill="#AB1F26" rx="2"/><path fill="#E86363" d="M0 2C0 0.895431 0.89543 0 2 0H50V32H2C0.895432 32 0 31.1046 0 30V2Z"/><path fill="#fff" d="M20.2178 11.0059C21.5075 11.0059 22.4486 11.2702 23.041 11.7988C23.6335 12.3275 23.9297 13.068 23.9297 14.0205C23.9297 14.4535 23.8613 14.8659 23.7246 15.2578C23.5924 15.6452 23.3737 15.9893 23.0684 16.29C22.763 16.5863 22.3597 16.821 21.8584 16.9941C21.3617 17.1673 20.7487 17.2539 20.0195 17.2539H18.9531V21H17.3125V11.0059H20.2178ZM20.1084 12.3662H18.9531V15.8867H19.8486C20.3636 15.8867 20.8011 15.8275 21.1611 15.709C21.5212 15.5859 21.7946 15.3923 21.9814 15.1279C22.1683 14.8636 22.2617 14.515 22.2617 14.082C22.2617 13.5033 22.0863 13.0726 21.7354 12.79C21.389 12.5075 20.8467 12.3662 20.1084 12.3662ZM28.7974 13.2891C29.4718 13.2891 30.0506 13.4281 30.5337 13.7061C31.0168 13.984 31.3882 14.3783 31.648 14.8887C31.9077 15.3991 32.0376 16.0098 32.0376 16.7207V17.582H26.9858C27.0041 18.3158 27.2 18.8809 27.5737 19.2773C27.952 19.6738 28.4806 19.8721 29.1597 19.8721C29.6427 19.8721 30.0757 19.8265 30.4585 19.7354C30.8459 19.6396 31.2446 19.5007 31.6548 19.3184V20.624C31.2765 20.8018 30.8914 20.9316 30.4995 21.0137C30.1076 21.0957 29.6382 21.1367 29.0913 21.1367C28.3485 21.1367 27.6945 20.9932 27.1294 20.7061C26.5689 20.4144 26.1291 19.9814 25.8101 19.4072C25.4956 18.833 25.3384 18.1198 25.3384 17.2676C25.3384 16.4199 25.4819 15.6999 25.769 15.1074C26.0562 14.515 26.4595 14.0638 26.979 13.7539C27.4985 13.444 28.1047 13.2891 28.7974 13.2891ZM28.7974 14.499C28.2915 14.499 27.8814 14.6631 27.5669 14.9912C27.257 15.3193 27.0747 15.8001 27.02 16.4336H30.4653C30.4608 16.0553 30.397 15.7204 30.2739 15.4287C30.1554 15.137 29.9731 14.9092 29.7271 14.7451C29.4855 14.5811 29.1756 14.499 28.7974 14.499ZM37.7051 13.2891C37.8327 13.2891 37.9717 13.2959 38.1221 13.3096C38.2725 13.3232 38.4024 13.3415 38.5117 13.3643L38.3613 14.8682C38.2656 14.8408 38.1471 14.8203 38.0059 14.8066C37.8691 14.793 37.7461 14.7861 37.6367 14.7861C37.3496 14.7861 37.0762 14.834 36.8164 14.9297C36.5566 15.0208 36.3265 15.1621 36.126 15.3535C35.9255 15.5404 35.7682 15.7751 35.6543 16.0576C35.5404 16.3402 35.4834 16.6683 35.4834 17.042V21H33.8701V13.4326H35.1279L35.3467 14.7656H35.4219C35.5723 14.4967 35.7591 14.2507 35.9824 14.0273C36.2057 13.804 36.4609 13.6263 36.7481 13.4941C37.0397 13.3574 37.3587 13.2891 37.7051 13.2891ZM48.4859 13.2891C49.3335 13.2891 49.9715 13.5078 50.3999 13.9453C50.8329 14.3828 51.0493 15.0846 51.0493 16.0508V21H49.4429V16.3379C49.4429 15.7637 49.3312 15.3307 49.1079 15.0391C48.8846 14.7474 48.5451 14.6016 48.0894 14.6016C47.4513 14.6016 46.9911 14.8066 46.7085 15.2168C46.4305 15.6224 46.2915 16.2126 46.2915 16.9873V21H44.6851V16.3379C44.6851 15.9551 44.6349 15.6361 44.5347 15.3809C44.439 15.1211 44.2909 14.9274 44.0903 14.7998C43.8898 14.6676 43.6369 14.6016 43.3316 14.6016C42.8895 14.6016 42.5363 14.7018 42.272 14.9023C42.0122 15.1029 41.8254 15.3991 41.7114 15.791C41.5975 16.1784 41.5405 16.6546 41.5405 17.2197V21H39.9341V13.4326H41.1851L41.4107 14.4512H41.4995C41.6545 14.1868 41.8459 13.9704 42.0737 13.8018C42.3062 13.6286 42.5637 13.501 42.8462 13.4189C43.1288 13.3324 43.4227 13.2891 43.728 13.2891C44.2931 13.2891 44.7694 13.3893 45.1567 13.5898C45.5441 13.7858 45.8335 14.0866 46.0249 14.4922H46.148C46.3849 14.082 46.7153 13.779 47.1392 13.583C47.563 13.387 48.0119 13.2891 48.4859 13.2891ZM56.2793 13.2891C57.2363 13.2891 57.9587 13.501 58.4463 13.9248C58.9385 14.3486 59.1846 15.0094 59.1846 15.9072V21H58.043L57.7354 19.9268H57.6807C57.4665 20.2002 57.2455 20.4258 57.0176 20.6035C56.7897 20.7812 56.5254 20.9134 56.2246 21C55.9284 21.0911 55.5661 21.1367 55.1377 21.1367C54.6865 21.1367 54.2832 21.0547 53.9277 20.8906C53.5723 20.722 53.292 20.4668 53.0869 20.125C52.8819 19.7832 52.7793 19.3503 52.7793 18.8262C52.7793 18.0469 53.0687 17.4613 53.6475 17.0693C54.2308 16.6774 55.1104 16.4609 56.2861 16.4199L57.5986 16.3721V15.9756C57.5986 15.4515 57.4756 15.0778 57.2295 14.8545C56.988 14.6312 56.6462 14.5195 56.2041 14.5195C55.8259 14.5195 55.459 14.5742 55.1035 14.6836C54.7481 14.793 54.4017 14.9274 54.0645 15.0869L53.5449 13.9521C53.9141 13.7562 54.3333 13.5967 54.8027 13.4736C55.2767 13.3506 55.7689 13.2891 56.2793 13.2891ZM57.5918 17.3838L56.6143 17.418C55.8122 17.4453 55.2494 17.582 54.9258 17.8281C54.6022 18.0742 54.4404 18.4115 54.4404 18.8398C54.4404 19.2135 54.5521 19.487 54.7754 19.6602C54.9987 19.8288 55.2927 19.9131 55.6572 19.9131C56.2132 19.9131 56.6735 19.7559 57.0381 19.4414C57.4072 19.1224 57.5918 18.6553 57.5918 18.04V17.3838ZM65.3989 13.2891C66.2512 13.2891 66.9142 13.5101 67.3882 13.9521C67.8667 14.3896 68.106 15.0938 68.106 16.0645V21H66.4995V16.3652C66.4995 15.7773 66.3788 15.3376 66.1372 15.0459C65.8957 14.7497 65.522 14.6016 65.0161 14.6016C64.2824 14.6016 63.772 14.8271 63.4849 15.2783C63.2023 15.7295 63.0611 16.3835 63.0611 17.2402V21H61.4546V13.4326H62.7056L62.9312 14.458H63.02C63.1841 14.1937 63.3869 13.9772 63.6284 13.8086C63.8745 13.6354 64.148 13.5055 64.4487 13.4189C64.7541 13.3324 65.0708 13.2891 65.3989 13.2891ZM73.3906 13.2891C74.0651 13.2891 74.6439 13.4281 75.127 13.7061C75.61 13.984 75.9815 14.3783 76.2412 14.8887C76.501 15.3991 76.6309 16.0098 76.6309 16.7207V17.582H71.5791C71.5974 18.3158 71.7933 18.8809 72.167 19.2773C72.5453 19.6738 73.0739 19.8721 73.753 19.8721C74.236 19.8721 74.669 19.8265 75.0518 19.7354C75.4392 19.6396 75.8379 19.5007 76.2481 19.3184V20.624C75.8698 20.8018 75.4847 20.9316 75.0928 21.0137C74.7009 21.0957 74.2315 21.1367 73.6846 21.1367C72.9418 21.1367 72.2878 20.9932 71.7227 20.7061C71.1621 20.4144 70.7224 19.9814 70.4033 19.4072C70.0889 18.833 69.9317 18.1198 69.9317 17.2676C69.9317 16.4199 70.0752 15.6999 70.3623 15.1074C70.6494 14.515 71.0528 14.0638 71.5723 13.7539C72.0918 13.444 72.6979 13.2891 73.3906 13.2891ZM73.3906 14.499C72.8848 14.499 72.4746 14.6631 72.1602 14.9912C71.8503 15.3193 71.668 15.8001 71.6133 16.4336H75.0586C75.0541 16.0553 74.9903 15.7204 74.8672 15.4287C74.7487 15.137 74.5664 14.9092 74.3203 14.7451C74.0788 14.5811 73.7689 14.499 73.3906 14.499ZM82.4077 13.2891C83.26 13.2891 83.923 13.5101 84.397 13.9521C84.8755 14.3896 85.1148 15.0938 85.1148 16.0645V21H83.5083V16.3652C83.5083 15.7773 83.3876 15.3376 83.146 15.0459C82.9045 14.7497 82.5308 14.6016 82.0249 14.6016C81.2912 14.6016 80.7808 14.8271 80.4937 15.2783C80.2111 15.7295 80.0699 16.3835 80.0699 17.2402V21H78.4634V13.4326H79.7144L79.94 14.458H80.0288C80.1929 14.1937 80.3957 13.9772 80.6372 13.8086C80.8833 13.6354 81.1568 13.5055 81.4575 13.4189C81.7629 13.3324 82.0796 13.2891 82.4077 13.2891ZM90.2012 19.8379C90.4108 19.8379 90.6182 19.8197 90.8233 19.7832C91.0284 19.7422 91.2152 19.6943 91.3838 19.6396V20.8564C91.2061 20.9339 90.9759 21 90.6934 21.0547C90.4108 21.1094 90.1169 21.1367 89.8116 21.1367C89.3832 21.1367 88.9981 21.0661 88.6563 20.9248C88.3145 20.779 88.0433 20.5306 87.8428 20.1797C87.6423 19.8288 87.542 19.3434 87.542 18.7236V14.6562H86.5098V13.9385L87.6172 13.3711L88.1436 11.751H89.1553V13.4326H91.3223V14.6562H89.1553V18.7031C89.1553 19.0859 89.251 19.3708 89.4424 19.5576C89.6338 19.7445 89.8867 19.8379 90.2012 19.8379ZM94.5562 21H92.9429V10.3633H94.5562V21ZM95.7325 13.4326H97.4825L99.0342 17.7529C99.1026 17.9489 99.1641 18.1426 99.2188 18.334C99.278 18.5208 99.3282 18.7054 99.3692 18.8877C99.4148 19.07 99.4512 19.2523 99.4786 19.4346H99.5196C99.5651 19.1976 99.6289 18.9333 99.711 18.6416C99.7976 18.3454 99.8933 18.0492 99.9981 17.7529L101.488 13.4326H103.218L99.9707 22.0391C99.7839 22.5312 99.5537 22.9505 99.2803 23.2969C99.0114 23.6478 98.6924 23.9121 98.3233 24.0898C97.9541 24.2721 97.5326 24.3633 97.0586 24.3633C96.8308 24.3633 96.6325 24.3496 96.4639 24.3223C96.2953 24.2995 96.1517 24.2744 96.0332 24.2471V22.9619C96.1289 22.9847 96.2497 23.0052 96.3955 23.0234C96.5414 23.0417 96.6918 23.0508 96.8467 23.0508C97.1338 23.0508 97.3822 22.9938 97.5918 22.8799C97.8015 22.766 97.9792 22.6042 98.125 22.3945C98.2709 22.1895 98.3916 21.9548 98.4873 21.6904L98.7539 20.9795L95.7325 13.4326ZM110.588 21.1367C109.686 21.1367 108.961 20.8086 108.414 20.1523C107.872 19.4915 107.601 18.5186 107.601 17.2334C107.601 15.9346 107.876 14.9525 108.428 14.2871C108.984 13.6217 109.715 13.2891 110.622 13.2891C111.005 13.2891 111.34 13.3415 111.627 13.4463C111.914 13.5465 112.16 13.6833 112.365 13.8564C112.575 14.0296 112.753 14.2233 112.898 14.4375H112.974C112.951 14.2962 112.924 14.0934 112.892 13.8291C112.864 13.5602 112.851 13.3118 112.851 13.084V10.3633H114.464V21H113.206L112.919 19.9678H112.851C112.714 20.1865 112.541 20.3848 112.331 20.5625C112.126 20.7357 111.88 20.8747 111.593 20.9795C111.31 21.0843 110.975 21.1367 110.588 21.1367ZM111.039 19.8311C111.727 19.8311 112.213 19.6328 112.495 19.2363C112.778 18.8398 112.924 18.2451 112.933 17.4521V17.2402C112.933 16.3926 112.796 15.7432 112.523 15.292C112.249 14.8363 111.75 14.6084 111.025 14.6084C110.447 14.6084 110.005 14.8431 109.699 15.3125C109.398 15.7773 109.248 16.4268 109.248 17.2607C109.248 18.0947 109.398 18.7327 109.699 19.1748C110.005 19.6123 110.451 19.8311 111.039 19.8311ZM119.803 13.2891C120.478 13.2891 121.057 13.4281 121.54 13.7061C122.023 13.984 122.394 14.3783 122.654 14.8887C122.914 15.3991 123.044 16.0098 123.044 16.7207V17.582H117.992C118.01 18.3158 118.206 18.8809 118.58 19.2773C118.958 19.6738 119.487 19.8721 120.166 19.8721C120.649 19.8721 121.082 19.8265 121.464 19.7354C121.852 19.6396 122.251 19.5007 122.661 19.3184V20.624C122.282 20.8018 121.897 20.9316 121.505 21.0137C121.113 21.0957 120.644 21.1367 120.097 21.1367C119.354 21.1367 118.7 20.9932 118.135 20.7061C117.575 20.4144 117.135 19.9814 116.816 19.4072C116.502 18.833 116.344 18.1198 116.344 17.2676C116.344 16.4199 116.488 15.6999 116.775 15.1074C117.062 14.515 117.465 14.0638 117.985 13.7539C118.504 13.444 119.111 13.2891 119.803 13.2891ZM119.803 14.499C119.297 14.499 118.887 14.6631 118.573 14.9912C118.263 15.3193 118.081 15.8001 118.026 16.4336H121.471C121.467 16.0553 121.403 15.7204 121.28 15.4287C121.161 15.137 120.979 14.9092 120.733 14.7451C120.491 14.5811 120.182 14.499 119.803 14.499ZM126.489 21H124.876V10.3633H126.489V21ZM131.822 13.2891C132.496 13.2891 133.075 13.4281 133.558 13.7061C134.041 13.984 134.413 14.3783 134.672 14.8887C134.932 15.3991 135.062 16.0098 135.062 16.7207V17.582H130.01C130.029 18.3158 130.225 18.8809 130.598 19.2773C130.976 19.6738 131.505 19.8721 132.184 19.8721C132.667 19.8721 133.1 19.8265 133.483 19.7354C133.87 19.6396 134.269 19.5007 134.679 19.3184V20.624C134.301 20.8018 133.916 20.9316 133.524 21.0137C133.132 21.0957 132.663 21.1367 132.116 21.1367C131.373 21.1367 130.719 20.9932 130.154 20.7061C129.593 20.4144 129.154 19.9814 128.835 19.4072C128.52 18.833 128.363 18.1198 128.363 17.2676C128.363 16.4199 128.506 15.6999 128.794 15.1074C129.081 14.515 129.484 14.0638 130.003 13.7539C130.523 13.444 131.129 13.2891 131.822 13.2891ZM131.822 14.499C131.316 14.499 130.906 14.6631 130.591 14.9912C130.281 15.3193 130.099 15.8001 130.044 16.4336H133.49C133.485 16.0553 133.421 15.7204 133.298 15.4287C133.18 15.137 132.998 14.9092 132.752 14.7451C132.51 14.5811 132.2 14.499 131.822 14.499ZM139.711 19.8379C139.921 19.8379 140.128 19.8197 140.333 19.7832C140.538 19.7422 140.725 19.6943 140.894 19.6396V20.8564C140.716 20.9339 140.486 21 140.203 21.0547C139.921 21.1094 139.627 21.1367 139.321 21.1367C138.893 21.1367 138.508 21.0661 138.166 20.9248C137.824 20.779 137.553 20.5306 137.353 20.1797C137.152 19.8288 137.052 19.3434 137.052 18.7236V14.6562H136.02V13.9385L137.127 13.3711L137.653 11.751H138.665V13.4326H140.832V14.6562H138.665V18.7031C138.665 19.0859 138.761 19.3708 138.952 19.5576C139.144 19.7445 139.397 19.8379 139.711 19.8379ZM145.467 13.2891C146.142 13.2891 146.721 13.4281 147.204 13.7061C147.687 13.984 148.058 14.3783 148.318 14.8887C148.578 15.3991 148.708 16.0098 148.708 16.7207V17.582H143.656C143.674 18.3158 143.87 18.8809 144.244 19.2773C144.622 19.6738 145.151 19.8721 145.83 19.8721C146.313 19.8721 146.746 19.8265 147.128 19.7354C147.516 19.6396 147.915 19.5007 148.325 19.3184V20.624C147.947 20.8018 147.561 20.9316 147.17 21.0137C146.778 21.0957 146.308 21.1367 145.761 21.1367C145.018 21.1367 144.364 20.9932 143.799 20.7061C143.239 20.4144 142.799 19.9814 142.48 19.4072C142.166 18.833 142.008 18.1198 142.008 17.2676C142.008 16.4199 142.152 15.6999 142.439 15.1074C142.726 14.515 143.129 14.0638 143.649 13.7539C144.169 13.444 144.775 13.2891 145.467 13.2891ZM145.467 14.499C144.961 14.499 144.551 14.6631 144.237 14.9912C143.927 15.3193 143.745 15.8001 143.69 16.4336H147.135C147.131 16.0553 147.067 15.7204 146.944 15.4287C146.825 15.137 146.643 14.9092 146.397 14.7451C146.156 14.5811 145.846 14.499 145.467 14.499Z"/></svg>