<svg height="520" viewBox="0 0 824 520" width="824" xmlns="http://www.w3.org/2000/svg" xmlns:xlink="http://www.w3.org/1999/xlink"><filter id="a" filterUnits="userSpaceOnUse" height="231" width="237" x="35" y="25"><feOffset/><feGaussianBlur result="b" stdDeviation="2"/><feFlood flood-color="#252a2e" flood-opacity=".502"/><feComposite in2="b" operator="in"/><feComposite in="SourceGraphic"/></filter><filter id="b" filterUnits="userSpaceOnUse" height="231" width="237" x="294" y="25"><feOffset/><feGaussianBlur result="d" stdDeviation="2"/><feFlood flood-color="#252a2e" flood-opacity=".502"/><feComposite in2="d" operator="in"/><feComposite in="SourceGraphic"/></filter><filter id="c" filterUnits="userSpaceOnUse" height="231" width="237" x="552" y="25"><feOffset/><feGaussianBlur result="f" stdDeviation="2"/><feFlood flood-color="#252a2e" flood-opacity=".502"/><feComposite in2="f" operator="in"/><feComposite in="SourceGraphic"/></filter><filter id="d" filterUnits="userSpaceOnUse" height="231" width="237" x="36" y="264"><feOffset/><feGaussianBlur result="h" stdDeviation="2"/><feFlood flood-color="#252a2e" flood-opacity=".502"/><feComposite in2="h" operator="in"/><feComposite in="SourceGraphic"/></filter><filter id="e" filterUnits="userSpaceOnUse" height="231" width="237" x="295" y="264"><feOffset/><feGaussianBlur result="j" stdDeviation="2"/><feFlood flood-color="#252a2e" flood-opacity=".502"/><feComposite in2="j" operator="in"/><feComposite in="SourceGraphic"/></filter><filter id="f" filterUnits="userSpaceOnUse" height="231" width="237" x="553" y="264"><feOffset/><feGaussianBlur result="l" stdDeviation="2"/><feFlood flood-color="#252a2e" flood-opacity=".502"/><feComposite in2="l" operator="in"/><feComposite in="SourceGraphic"/></filter><clipPath id="g"><path d="m0 0h824v520h-824z"/></clipPath><g clip-path="url(#g)"><path d="m0 0h824v520h-824z" fill="#fff"/><path d="m0 0h824v520h-824z" fill="#252a2e"/><g filter="url(#a)"><rect fill="#353a40" height="219" rx="2" transform="translate(41 31)" width="225"/></g><path d="m0 0h225v87h-225z" fill="#464b52" transform="translate(41 31)"/><g fill="#90939f"><path d="m0 0h110v16h-110z" transform="translate(51 129)"/><path d="m0 0h205v16h-205z" transform="translate(51 153)"/><path d="m0 0h205v16h-205z" transform="translate(51 177)"/><path d="m0 0h80v8h-80z" transform="translate(93 209)"/><path d="m0 0h58v8h-58z" transform="translate(93 221)"/><circle cx="18" cy="18" r="18" transform="translate(51 201)"/></g><g filter="url(#b)"><rect fill="#353a40" height="219" rx="2" transform="translate(300 31)" width="225"/></g><path d="m0 0h225v87h-225z" fill="#464b52" transform="translate(300 31)"/><path d="m0 0h110v16h-110z" fill="#90939f" transform="translate(310 129)"/><path d="m0 0h205v16h-205z" fill="#90939f" transform="translate(310 153)"/><path d="m0 0h205v16h-205z" fill="#90939f" transform="translate(310 177)"/><path d="m0 0h80v8h-80z" fill="#90939f" transform="translate(352 209)"/><path d="m0 0h58v8h-58z" fill="#90939f" transform="translate(352 221)"/><circle cx="18" cy="18" fill="#90939f" r="18" transform="translate(310 201)"/><g filter="url(#c)"><rect fill="#353a40" height="219" rx="2" transform="translate(558 31)" width="225"/></g><path d="m0 0h225v87h-225z" fill="#464b52" transform="translate(558 31)"/><path d="m0 0h110v16h-110z" fill="#90939f" transform="translate(568 129)"/><path d="m0 0h205v16h-205z" fill="#90939f" transform="translate(568 153)"/><path d="m0 0h205v16h-205z" fill="#90939f" transform="translate(568 177)"/><path d="m0 0h80v8h-80z" fill="#90939f" transform="translate(610 209)"/><path d="m0 0h58v8h-58z" fill="#90939f" transform="translate(610 221)"/><circle cx="18" cy="18" fill="#90939f" r="18" transform="translate(568 201)"/><g filter="url(#d)"><rect fill="#353a40" height="219" rx="2" transform="translate(42 270)" width="225"/></g><path d="m0 0h225v87h-225z" fill="#464b52" transform="translate(42 270)"/><path d="m0 0h110v16h-110z" fill="#90939f" transform="translate(52 368)"/><path d="m0 0h205v16h-205z" fill="#90939f" transform="translate(52 392)"/><path d="m0 0h205v16h-205z" fill="#90939f" transform="translate(52 416)"/><path d="m0 0h80v8h-80z" fill="#90939f" transform="translate(94 448)"/><path d="m0 0h58v8h-58z" fill="#90939f" transform="translate(94 460)"/><circle cx="18" cy="18" fill="#90939f" r="18" transform="translate(52 440)"/><g filter="url(#e)"><rect fill="#353a40" height="219" rx="2" transform="translate(301 270)" width="225"/></g><path d="m0 0h225v87h-225z" fill="#464b52" transform="translate(301 270)"/><path d="m0 0h110v16h-110z" fill="#90939f" transform="translate(311 368)"/><path d="m0 0h205v16h-205z" fill="#90939f" transform="translate(311 392)"/><path d="m0 0h205v16h-205z" fill="#90939f" transform="translate(311 416)"/><path d="m0 0h80v8h-80z" fill="#90939f" transform="translate(353 448)"/><path d="m0 0h58v8h-58z" fill="#90939f" transform="translate(353 460)"/><circle cx="18" cy="18" fill="#90939f" r="18" transform="translate(311 440)"/><g filter="url(#f)"><rect fill="#353a40" height="219" rx="2" transform="translate(559 270)" width="225"/></g><path d="m0 0h225v87h-225z" fill="#464b52" transform="translate(559 270)"/><path d="m0 0h110v16h-110z" fill="#90939f" transform="translate(569 368)"/><path d="m0 0h205v16h-205z" fill="#90939f" transform="translate(569 392)"/><path d="m0 0h205v16h-205z" fill="#90939f" transform="translate(569 416)"/><path d="m0 0h80v8h-80z" fill="#90939f" transform="translate(611 448)"/><path d="m0 0h58v8h-58z" fill="#90939f" transform="translate(611 460)"/><circle cx="18" cy="18" fill="#90939f" r="18" transform="translate(569 440)"/></g></svg>