<svg width="280" height="382" viewBox="0 0 280 382" fill="none" xmlns="http://www.w3.org/2000/svg">
<path d="M10.1348 13.6211C10.1348 14.3945 9.85547 15.0039 9.29688 15.4492C8.74219 15.8945 7.96875 16.1172 6.97656 16.1172C6.0625 16.1172 5.25391 15.9453 4.55078 15.6016V13.9141C5.12891 14.1719 5.61719 14.3535 6.01562 14.459C6.41797 14.5645 6.78516 14.6172 7.11719 14.6172C7.51562 14.6172 7.82031 14.541 8.03125 14.3887C8.24609 14.2363 8.35352 14.0098 8.35352 13.709C8.35352 13.541 8.30664 13.3926 8.21289 13.2637C8.11914 13.1309 7.98047 13.0039 7.79688 12.8828C7.61719 12.7617 7.24805 12.5684 6.68945 12.3027C6.16602 12.0566 5.77344 11.8203 5.51172 11.5938C5.25 11.3672 5.04102 11.1035 4.88477 10.8027C4.72852 10.502 4.65039 10.1504 4.65039 9.74805C4.65039 8.99023 4.90625 8.39453 5.41797 7.96094C5.93359 7.52734 6.64453 7.31055 7.55078 7.31055C7.99609 7.31055 8.41992 7.36328 8.82227 7.46875C9.22852 7.57422 9.65234 7.72266 10.0938 7.91406L9.50781 9.32617C9.05078 9.13867 8.67188 9.00781 8.37109 8.93359C8.07422 8.85938 7.78125 8.82227 7.49219 8.82227C7.14844 8.82227 6.88477 8.90234 6.70117 9.0625C6.51758 9.22266 6.42578 9.43164 6.42578 9.68945C6.42578 9.84961 6.46289 9.99023 6.53711 10.1113C6.61133 10.2285 6.72852 10.3438 6.88867 10.457C7.05273 10.5664 7.4375 10.7656 8.04297 11.0547C8.84375 11.4375 9.39258 11.8223 9.68945 12.209C9.98633 12.5918 10.1348 13.0625 10.1348 13.6211ZM14.4098 10.5977C14.0309 10.5977 13.734 10.7188 13.5191 10.9609C13.3043 11.1992 13.1813 11.5391 13.15 11.9805H15.6578C15.65 11.5391 15.5348 11.1992 15.3121 10.9609C15.0895 10.7188 14.7887 10.5977 14.4098 10.5977ZM14.6617 16.1172C13.607 16.1172 12.7828 15.8262 12.1891 15.2441C11.5953 14.6621 11.2984 13.8379 11.2984 12.7715C11.2984 11.6738 11.5719 10.8262 12.1188 10.2285C12.6695 9.62695 13.4293 9.32617 14.398 9.32617C15.3238 9.32617 16.0445 9.58984 16.5602 10.1172C17.0758 10.6445 17.3336 11.373 17.3336 12.3027V13.1699H13.109C13.1285 13.6777 13.2789 14.0742 13.5602 14.3594C13.8414 14.6445 14.2359 14.7871 14.7438 14.7871C15.1383 14.7871 15.5113 14.7461 15.8629 14.6641C16.2145 14.582 16.5816 14.4512 16.9645 14.2715V15.6543C16.652 15.8105 16.318 15.9258 15.9625 16C15.607 16.0781 15.1734 16.1172 14.6617 16.1172ZM20.7238 16H18.9367V6.88281H20.7238V16ZM25.4676 10.5977C25.0887 10.5977 24.7918 10.7188 24.577 10.9609C24.3621 11.1992 24.2391 11.5391 24.2078 11.9805H26.7156C26.7078 11.5391 26.5926 11.1992 26.3699 10.9609C26.1473 10.7188 25.8465 10.5977 25.4676 10.5977ZM25.7195 16.1172C24.6648 16.1172 23.8406 15.8262 23.2469 15.2441C22.6531 14.6621 22.3563 13.8379 22.3563 12.7715C22.3563 11.6738 22.6297 10.8262 23.1766 10.2285C23.7273 9.62695 24.4871 9.32617 25.4559 9.32617C26.3816 9.32617 27.1023 9.58984 27.618 10.1172C28.1336 10.6445 28.3914 11.373 28.3914 12.3027V13.1699H24.1668C24.1863 13.6777 24.3367 14.0742 24.618 14.3594C24.8992 14.6445 25.2938 14.7871 25.8016 14.7871C26.1961 14.7871 26.5691 14.7461 26.9207 14.6641C27.2723 14.582 27.6395 14.4512 28.0223 14.2715V15.6543C27.7098 15.8105 27.3758 15.9258 27.0203 16C26.6648 16.0781 26.2313 16.1172 25.7195 16.1172ZM32.6547 16.1172C30.6156 16.1172 29.5961 14.998 29.5961 12.7598C29.5961 11.6465 29.8734 10.7969 30.4281 10.2109C30.9828 9.62109 31.7777 9.32617 32.8129 9.32617C33.5707 9.32617 34.2504 9.47461 34.852 9.77148L34.3246 11.1543C34.0434 11.041 33.7816 10.9492 33.5395 10.8789C33.2973 10.8047 33.0551 10.7676 32.8129 10.7676C31.8832 10.7676 31.4184 11.4277 31.4184 12.748C31.4184 14.0293 31.8832 14.6699 32.8129 14.6699C33.1566 14.6699 33.475 14.625 33.768 14.5352C34.0609 14.4414 34.3539 14.2969 34.6469 14.1016V15.6309C34.3578 15.8145 34.0648 15.9414 33.768 16.0117C33.475 16.082 33.1039 16.1172 32.6547 16.1172ZM39.0801 14.6934C39.3926 14.6934 39.7676 14.625 40.2051 14.4883V15.8184C39.7598 16.0176 39.2129 16.1172 38.5645 16.1172C37.8496 16.1172 37.3281 15.9375 37 15.5781C36.6758 15.2148 36.5137 14.6719 36.5137 13.9492V10.791H35.6582V10.0352L36.6426 9.4375L37.1582 8.05469H38.3008V9.44922H40.1348V10.791H38.3008V13.9492C38.3008 14.2031 38.3711 14.3906 38.5117 14.5117C38.6562 14.6328 38.8457 14.6934 39.0801 14.6934ZM52.2004 11.6348C52.2004 13.0449 51.798 14.125 50.9934 14.875C50.1926 15.625 49.0344 16 47.5187 16H45.093V7.43359H47.7824C49.1809 7.43359 50.2668 7.80273 51.0402 8.54102C51.8137 9.2793 52.2004 10.3105 52.2004 11.6348ZM50.3137 11.6816C50.3137 9.8418 49.5012 8.92188 47.8762 8.92188H46.9094V14.5H47.6887C49.4387 14.5 50.3137 13.5605 50.3137 11.6816ZM58.1453 16L57.7996 15.1094H57.7527C57.452 15.4883 57.1414 15.752 56.8211 15.9004C56.5047 16.0449 56.0906 16.1172 55.5789 16.1172C54.95 16.1172 54.4539 15.9375 54.0906 15.5781C53.7313 15.2188 53.5516 14.707 53.5516 14.043C53.5516 13.3477 53.7938 12.8359 54.2781 12.5078C54.7664 12.1758 55.5008 11.9922 56.4813 11.957L57.618 11.9219V11.6348C57.618 10.9707 57.2781 10.6387 56.5984 10.6387C56.075 10.6387 55.4598 10.7969 54.7527 11.1133L54.1609 9.90625C54.9148 9.51172 55.7508 9.31445 56.6688 9.31445C57.5477 9.31445 58.2215 9.50586 58.6902 9.88867C59.159 10.2715 59.3934 10.8535 59.3934 11.6348V16H58.1453ZM57.618 12.9648L56.9266 12.9883C56.407 13.0039 56.0203 13.0977 55.7664 13.2695C55.5125 13.4414 55.3855 13.7031 55.3855 14.0547C55.3855 14.5586 55.6746 14.8105 56.2527 14.8105C56.6668 14.8105 56.9969 14.6914 57.243 14.4531C57.493 14.2148 57.618 13.8984 57.618 13.5039V12.9648ZM64.1488 14.6934C64.4613 14.6934 64.8363 14.625 65.2738 14.4883V15.8184C64.8285 16.0176 64.2816 16.1172 63.6332 16.1172C62.9184 16.1172 62.3969 15.9375 62.0687 15.5781C61.7445 15.2148 61.5824 14.6719 61.5824 13.9492V10.791H60.727V10.0352L61.7113 9.4375L62.227 8.05469H63.3695V9.44922H65.2035V10.791H63.3695V13.9492C63.3695 14.2031 63.4398 14.3906 63.5805 14.5117C63.725 14.6328 63.9145 14.6934 64.1488 14.6934ZM69.4668 10.5977C69.0879 10.5977 68.791 10.7188 68.5762 10.9609C68.3613 11.1992 68.2383 11.5391 68.207 11.9805H70.7148C70.707 11.5391 70.5918 11.1992 70.3691 10.9609C70.1465 10.7188 69.8457 10.5977 69.4668 10.5977ZM69.7188 16.1172C68.6641 16.1172 67.8398 15.8262 67.2461 15.2441C66.6523 14.6621 66.3555 13.8379 66.3555 12.7715C66.3555 11.6738 66.6289 10.8262 67.1758 10.2285C67.7266 9.62695 68.4863 9.32617 69.4551 9.32617C70.3809 9.32617 71.1016 9.58984 71.6172 10.1172C72.1328 10.6445 72.3906 11.373 72.3906 12.3027V13.1699H68.166C68.1855 13.6777 68.3359 14.0742 68.6172 14.3594C68.8984 14.6445 69.293 14.7871 69.8008 14.7871C70.1953 14.7871 70.5684 14.7461 70.9199 14.6641C71.2715 14.582 71.6387 14.4512 72.0215 14.2715V15.6543C71.709 15.8105 71.375 15.9258 71.0195 16C70.6641 16.0781 70.2305 16.1172 69.7188 16.1172Z" fill="#464B52"/>
<rect x="5" y="23" width="170" height="30" rx="3" fill="white"/>
<rect x="5" y="23" width="170" height="30" rx="3" stroke="#217CBB" stroke-width="2"/>
<path d="M18.0117 40.7207C18.0117 41.4746 17.7383 42.0625 17.1914 42.4844C16.6445 42.9062 15.9023 43.1172 14.9648 43.1172C13.9492 43.1172 13.168 42.9863 12.6211 42.7246V41.7637C12.9727 41.9121 13.3555 42.0293 13.7695 42.1152C14.1836 42.2012 14.5938 42.2441 15 42.2441C15.6641 42.2441 16.1641 42.1191 16.5 41.8691C16.8359 41.6152 17.0039 41.2637 17.0039 40.8145C17.0039 40.5176 16.9434 40.2754 16.8223 40.0879C16.7051 39.8965 16.5059 39.7207 16.2246 39.5605C15.9473 39.4004 15.5234 39.2188 14.9531 39.0156C14.1562 38.7305 13.5859 38.3926 13.2422 38.002C12.9023 37.6113 12.7324 37.1016 12.7324 36.4727C12.7324 35.8125 12.9805 35.2871 13.4766 34.8965C13.9727 34.5059 14.6289 34.3105 15.4453 34.3105C16.2969 34.3105 17.0801 34.4668 17.7949 34.7793L17.4844 35.6465C16.7773 35.3496 16.0898 35.2012 15.4219 35.2012C14.8945 35.2012 14.4824 35.3145 14.1855 35.541C13.8887 35.7676 13.7402 36.082 13.7402 36.4844C13.7402 36.7812 13.7949 37.0254 13.9043 37.2168C14.0137 37.4043 14.1973 37.5781 14.4551 37.7383C14.7168 37.8945 15.1152 38.0684 15.6504 38.2598C16.5488 38.5801 17.166 38.9238 17.502 39.291C17.8418 39.6582 18.0117 40.1348 18.0117 40.7207ZM22.3481 43.1172C21.3989 43.1172 20.6489 42.8281 20.0981 42.25C19.5512 41.6719 19.2778 40.8691 19.2778 39.8418C19.2778 38.8066 19.5317 37.9844 20.0395 37.375C20.5512 36.7656 21.2368 36.4609 22.0961 36.4609C22.9008 36.4609 23.5375 36.7266 24.0063 37.2578C24.475 37.7852 24.7094 38.4824 24.7094 39.3496V39.9648H20.2856C20.3051 40.7188 20.4946 41.291 20.8539 41.6816C21.2172 42.0723 21.727 42.2676 22.3832 42.2676C23.0746 42.2676 23.7582 42.123 24.434 41.834V42.7012C24.0903 42.8496 23.7641 42.9551 23.4555 43.0176C23.1508 43.084 22.7817 43.1172 22.3481 43.1172ZM22.0844 37.2754C21.5688 37.2754 21.1567 37.4434 20.8481 37.7793C20.5434 38.1152 20.3637 38.5801 20.309 39.1738H23.6664C23.6664 38.5605 23.5297 38.0918 23.2563 37.7676C22.9828 37.4395 22.5922 37.2754 22.0844 37.2754ZM29.3798 43.1172C28.9618 43.1172 28.579 43.041 28.2313 42.8887C27.8876 42.7324 27.5985 42.4941 27.3641 42.1738H27.2938C27.3407 42.5488 27.3641 42.9043 27.3641 43.2402V45.8828H26.3915V36.5781H27.1825L27.3173 37.457H27.3641C27.6141 37.1055 27.9051 36.8516 28.2372 36.6953C28.5692 36.5391 28.9501 36.4609 29.3798 36.4609C30.2313 36.4609 30.8876 36.752 31.3485 37.334C31.8133 37.916 32.0458 38.7324 32.0458 39.7832C32.0458 40.8379 31.8094 41.6582 31.3368 42.2441C30.868 42.8262 30.2157 43.1172 29.3798 43.1172ZM29.2391 37.2871C28.5829 37.2871 28.1083 37.4688 27.8153 37.832C27.5223 38.1953 27.3719 38.7734 27.3641 39.5664V39.7832C27.3641 40.6855 27.5145 41.332 27.8153 41.7227C28.1161 42.1094 28.5985 42.3027 29.2626 42.3027C29.8173 42.3027 30.2508 42.0781 30.5633 41.6289C30.8798 41.1797 31.038 40.5605 31.038 39.7715C31.038 38.9707 30.8798 38.3574 30.5633 37.9316C30.2508 37.502 29.8094 37.2871 29.2391 37.2871ZM35.8431 42.3145C36.0149 42.3145 36.181 42.3027 36.3411 42.2793C36.5013 42.252 36.6282 42.2246 36.722 42.1973V42.9414C36.6165 42.9922 36.4603 43.0332 36.2532 43.0645C36.0501 43.0996 35.8665 43.1172 35.7024 43.1172C34.4603 43.1172 33.8392 42.4629 33.8392 41.1543V37.334H32.9192V36.8652L33.8392 36.4609L34.2493 35.0898H34.8118V36.5781H36.6751V37.334H34.8118V41.1133C34.8118 41.5 34.9036 41.7969 35.0872 42.0039C35.2708 42.2109 35.5228 42.3145 35.8431 42.3145ZM44.3224 43H43.3732V36.8945C43.3732 36.3867 43.3888 35.9062 43.4201 35.4531C43.338 35.5352 43.2463 35.6211 43.1447 35.7109C43.0431 35.8008 42.5783 36.1816 41.7502 36.8535L41.2345 36.1855L43.5021 34.4336H44.3224V43ZM53.6393 41.0312H52.3678V43H51.4361V41.0312H47.2701V40.1816L51.3365 34.3867H52.3678V40.1465H53.6393V41.0312ZM51.4361 40.1465V37.2988C51.4361 36.7402 51.4557 36.1094 51.4947 35.4062H51.4478C51.2603 35.7812 51.0846 36.0918 50.9205 36.3379L48.2428 40.1465H51.4361ZM55.9541 41.6055L56.042 41.7402C55.9405 42.1309 55.794 42.584 55.6026 43.0996C55.4112 43.6191 55.2119 44.1016 55.0049 44.5469H54.2725C54.378 44.1406 54.4932 43.6387 54.6182 43.041C54.7471 42.4434 54.8369 41.9648 54.8877 41.6055H55.9541ZM66.2147 43H60.5839V42.1621L62.8397 39.8945C63.5272 39.1992 63.9804 38.7031 64.1991 38.4062C64.4179 38.1094 64.5819 37.8203 64.6913 37.5391C64.8007 37.2578 64.8554 36.9551 64.8554 36.6309C64.8554 36.1738 64.7167 35.8125 64.4393 35.5469C64.162 35.2773 63.7772 35.1426 63.285 35.1426C62.9296 35.1426 62.5917 35.2012 62.2714 35.3184C61.955 35.4355 61.6015 35.6484 61.2108 35.957L60.6952 35.2949C61.4843 34.6387 62.3436 34.3105 63.2733 34.3105C64.078 34.3105 64.7089 34.5176 65.1659 34.9316C65.6229 35.3418 65.8515 35.8945 65.8515 36.5898C65.8515 37.1328 65.6991 37.6699 65.3944 38.2012C65.0897 38.7324 64.5194 39.4043 63.6835 40.2168L61.8085 42.0508V42.0977H66.2147V43ZM73.1468 38.7051C73.1468 40.1855 72.9124 41.291 72.4437 42.0215C71.9788 42.752 71.2659 43.1172 70.305 43.1172C69.3831 43.1172 68.682 42.7441 68.2015 41.998C67.721 41.248 67.4808 40.1504 67.4808 38.7051C67.4808 37.2129 67.7132 36.1055 68.178 35.3828C68.6429 34.6602 69.3519 34.2988 70.305 34.2988C71.2347 34.2988 71.9398 34.6758 72.4202 35.4297C72.9046 36.1836 73.1468 37.2754 73.1468 38.7051ZM68.4652 38.7051C68.4652 39.9512 68.6116 40.8594 68.9046 41.4297C69.1976 41.9961 69.6644 42.2793 70.305 42.2793C70.9534 42.2793 71.4222 41.9922 71.7113 41.418C72.0042 40.8398 72.1507 39.9355 72.1507 38.7051C72.1507 37.4746 72.0042 36.5742 71.7113 36.0039C71.4222 35.4297 70.9534 35.1426 70.305 35.1426C69.6644 35.1426 69.1976 35.4258 68.9046 35.9922C68.6116 36.5547 68.4652 37.459 68.4652 38.7051ZM79.9851 43H74.3543V42.1621L76.6101 39.8945C77.2976 39.1992 77.7507 38.7031 77.9695 38.4062C78.1882 38.1094 78.3523 37.8203 78.4617 37.5391C78.571 37.2578 78.6257 36.9551 78.6257 36.6309C78.6257 36.1738 78.4871 35.8125 78.2097 35.5469C77.9324 35.2773 77.5476 35.1426 77.0554 35.1426C76.7 35.1426 76.3621 35.2012 76.0418 35.3184C75.7253 35.4355 75.3718 35.6484 74.9812 35.957L74.4656 35.2949C75.2546 34.6387 76.114 34.3105 77.0437 34.3105C77.8484 34.3105 78.4793 34.5176 78.9363 34.9316C79.3933 35.3418 79.6218 35.8945 79.6218 36.5898C79.6218 37.1328 79.4695 37.6699 79.1648 38.2012C78.8601 38.7324 78.2898 39.4043 77.4539 40.2168L75.5789 42.0508V42.0977H79.9851V43ZM86.8703 43H81.2394V42.1621L83.4953 39.8945C84.1828 39.1992 84.6359 38.7031 84.8547 38.4062C85.0734 38.1094 85.2375 37.8203 85.3469 37.5391C85.4562 37.2578 85.5109 36.9551 85.5109 36.6309C85.5109 36.1738 85.3723 35.8125 85.0949 35.5469C84.8176 35.2773 84.4328 35.1426 83.9406 35.1426C83.5851 35.1426 83.2473 35.2012 82.9269 35.3184C82.6105 35.4355 82.257 35.6484 81.8664 35.957L81.3508 35.2949C82.1398 34.6387 82.9992 34.3105 83.9289 34.3105C84.7336 34.3105 85.3644 34.5176 85.8215 34.9316C86.2785 35.3418 86.507 35.8945 86.507 36.5898C86.507 37.1328 86.3547 37.6699 86.05 38.2012C85.7453 38.7324 85.175 39.4043 84.3391 40.2168L82.4641 42.0508V42.0977H86.8703V43Z" fill="#464B52"/>
<rect x="90" y="29" width="1" height="18" fill="#464B52"/>
<path d="M165.333 32H164C164 31.6333 163.7 31.3333 163.333 31.3333C162.967 31.3333 162.667 31.6333 162.667 32H157.333C157.333 31.6333 157.033 31.3333 156.667 31.3333C156.3 31.3333 156 31.6333 156 32H154.667C153.933 32 153.333 32.6 153.333 33.3333V43.3333C153.333 44.0667 153.933 44.6667 154.667 44.6667H165.333C166.067 44.6667 166.667 44.0667 166.667 43.3333V33.3333C166.667 32.6 166.067 32 165.333 32ZM158 39.3333H156V37.3333H158V39.3333ZM161 39.3333H159V37.3333H161V39.3333ZM164 39.3333H162V37.3333H164V39.3333ZM165.333 34.86C165.333 35.12 165.12 35.3333 164.86 35.3333H155.14C154.88 35.3333 154.667 35.12 154.667 34.86V33.8C154.667 33.54 154.88 33.3267 155.14 33.3267H156V34C156 34.3667 156.3 34.6667 156.667 34.6667C157.033 34.6667 157.333 34.3667 157.333 34V33.3333L162.667 33.3267V34C162.667 34.3667 162.967 34.6667 163.333 34.6667C163.7 34.6667 164 34.3667 164 34V33.3333L164.86 33.3267C165.12 33.3267 165.333 33.54 165.333 33.8V34.86Z" fill="#217CBB"/>
<g filter="url(#filter0_d_43648_22904)">
<path d="M4 66C4 63.7909 5.79086 62 8 62H272C274.209 62 276 63.7909 276 66V102H4V66Z" fill="#0063A3"/>
<path d="M37.8067 78.4733C37.5467 78.2133 37.1267 78.2133 36.8667 78.4733L33.8067 81.5333C33.5467 81.7933 33.5467 82.2133 33.8067 82.4733L36.8667 85.5333C37.1267 85.7933 37.5467 85.7933 37.8067 85.5333C38.0667 85.2733 38.0667 84.8533 37.8067 84.5933L35.22 82L37.8067 79.4133C38.0667 79.1533 38.06 78.7267 37.8067 78.4733Z" fill="white"/>
<path d="M89.6572 84.2246C89.6572 85.127 89.3314 85.8379 88.6797 86.3574C88.0326 86.877 87.1302 87.1367 85.9727 87.1367C84.9062 87.1367 83.9629 86.9362 83.1426 86.5352V84.5664C83.8171 84.8672 84.3867 85.0791 84.8516 85.2021C85.321 85.3252 85.7493 85.3867 86.1367 85.3867C86.6016 85.3867 86.957 85.2979 87.2031 85.1201C87.4538 84.9424 87.5791 84.6781 87.5791 84.3271C87.5791 84.1312 87.5244 83.958 87.415 83.8076C87.3057 83.6527 87.1439 83.5046 86.9297 83.3633C86.7201 83.222 86.2894 82.9964 85.6377 82.6865C85.027 82.3994 84.569 82.1237 84.2637 81.8594C83.9583 81.5951 83.7145 81.2874 83.5322 80.9365C83.3499 80.5856 83.2588 80.1755 83.2588 79.7061C83.2588 78.8219 83.5573 78.127 84.1543 77.6211C84.7559 77.1152 85.5853 76.8623 86.6426 76.8623C87.1621 76.8623 87.6566 76.9238 88.126 77.0469C88.5999 77.1699 89.0944 77.3431 89.6094 77.5664L88.9258 79.2139C88.3926 78.9951 87.9505 78.8424 87.5996 78.7559C87.2533 78.6693 86.9115 78.626 86.5742 78.626C86.1732 78.626 85.8656 78.7194 85.6514 78.9062C85.4372 79.0931 85.3301 79.3369 85.3301 79.6377C85.3301 79.8245 85.3734 79.9886 85.46 80.1299C85.5465 80.2666 85.6833 80.401 85.8701 80.5332C86.0615 80.6608 86.5104 80.8932 87.2168 81.2305C88.151 81.6771 88.7913 82.126 89.1377 82.5771C89.484 83.0238 89.6572 83.5729 89.6572 84.2246ZM94.6197 80.6973C94.1777 80.6973 93.8313 80.8385 93.5807 81.1211C93.33 81.3991 93.1865 81.7956 93.15 82.3105H96.0758C96.0667 81.7956 95.9322 81.3991 95.6725 81.1211C95.4127 80.8385 95.0618 80.6973 94.6197 80.6973ZM94.9137 87.1367C93.6832 87.1367 92.7216 86.7972 92.0289 86.1182C91.3362 85.4391 90.9898 84.4775 90.9898 83.2334C90.9898 81.9528 91.3089 80.9639 91.9469 80.2666C92.5895 79.5648 93.4758 79.2139 94.6061 79.2139C95.6861 79.2139 96.527 79.5215 97.1285 80.1367C97.7301 80.752 98.0309 81.6019 98.0309 82.6865V83.6982H93.1021C93.1249 84.2907 93.3004 84.7533 93.6285 85.0859C93.9566 85.4186 94.4169 85.585 95.0094 85.585C95.4697 85.585 95.9049 85.5371 96.315 85.4414C96.7252 85.3457 97.1536 85.193 97.6002 84.9834V86.5967C97.2356 86.779 96.846 86.9134 96.4313 87C96.0165 87.0911 95.5107 87.1367 94.9137 87.1367ZM104.073 87.1367C103.176 87.1367 102.472 86.8109 101.961 86.1592H101.852C101.925 86.7972 101.961 87.1663 101.961 87.2666V90.3633H99.8762V79.3574H101.571L101.865 80.3486H101.961C102.449 79.5921 103.171 79.2139 104.128 79.2139C105.03 79.2139 105.737 79.5625 106.247 80.2598C106.758 80.957 107.013 81.9255 107.013 83.165C107.013 83.9808 106.892 84.6895 106.651 85.291C106.414 85.8926 106.074 86.3506 105.632 86.665C105.19 86.9795 104.67 87.1367 104.073 87.1367ZM103.458 80.8818C102.943 80.8818 102.567 81.0413 102.33 81.3604C102.093 81.6748 101.97 82.1966 101.961 82.9258V83.1514C101.961 83.9717 102.082 84.5596 102.323 84.915C102.57 85.2705 102.957 85.4482 103.486 85.4482C104.42 85.4482 104.887 84.6781 104.887 83.1377C104.887 82.3857 104.771 81.8229 104.538 81.4492C104.31 81.071 103.95 80.8818 103.458 80.8818ZM112.105 85.4756C112.47 85.4756 112.907 85.3958 113.418 85.2363V86.7881C112.898 87.0205 112.26 87.1367 111.504 87.1367C110.67 87.1367 110.061 86.9271 109.679 86.5078C109.3 86.084 109.111 85.4505 109.111 84.6074V80.9229H108.113V80.041L109.262 79.3438L109.863 77.7305H111.196V79.3574H113.336V80.9229H111.196V84.6074C111.196 84.9036 111.278 85.1224 111.442 85.2637C111.611 85.4049 111.832 85.4756 112.105 85.4756ZM118.285 80.6973C117.843 80.6973 117.496 80.8385 117.246 81.1211C116.995 81.3991 116.851 81.7956 116.815 82.3105H119.741C119.732 81.7956 119.597 81.3991 119.337 81.1211C119.078 80.8385 118.727 80.6973 118.285 80.6973ZM118.579 87.1367C117.348 87.1367 116.386 86.7972 115.694 86.1182C115.001 85.4391 114.655 84.4775 114.655 83.2334C114.655 81.9528 114.974 80.9639 115.612 80.2666C116.254 79.5648 117.141 79.2139 118.271 79.2139C119.351 79.2139 120.192 79.5215 120.793 80.1367C121.395 80.752 121.696 81.6019 121.696 82.6865V83.6982H116.767C116.79 84.2907 116.965 84.7533 117.293 85.0859C117.621 85.4186 118.082 85.585 118.674 85.585C119.135 85.585 119.57 85.5371 119.98 85.4414C120.39 85.3457 120.818 85.193 121.265 84.9834V86.5967C120.9 86.779 120.511 86.9134 120.096 87C119.681 87.0911 119.176 87.1367 118.579 87.1367ZM130.384 87H128.299V82.5361C128.299 81.9847 128.205 81.5723 128.019 81.2988C127.836 81.0208 127.547 80.8818 127.15 80.8818C126.617 80.8818 126.23 81.0778 125.988 81.4697C125.747 81.8617 125.626 82.5065 125.626 83.4043V87H123.541V79.3574H125.134L125.414 80.335H125.53C125.735 79.984 126.032 79.7106 126.419 79.5146C126.806 79.3141 127.251 79.2139 127.752 79.2139C128.896 79.2139 129.671 79.5876 130.076 80.335H130.261C130.466 79.9795 130.767 79.7038 131.163 79.5078C131.564 79.3118 132.015 79.2139 132.517 79.2139C133.382 79.2139 134.036 79.4372 134.479 79.8838C134.925 80.3258 135.148 81.0368 135.148 82.0166V87H133.057V82.5361C133.057 81.9847 132.963 81.5723 132.776 81.2988C132.594 81.0208 132.305 80.8818 131.908 80.8818C131.398 80.8818 131.015 81.0641 130.76 81.4287C130.509 81.7933 130.384 82.3721 130.384 83.165V87ZM141.697 79.2139C142.599 79.2139 143.306 79.5671 143.816 80.2734C144.326 80.9753 144.582 81.9391 144.582 83.165C144.582 84.4274 144.317 85.4049 143.789 86.0977C143.265 86.7904 142.549 87.1367 141.642 87.1367C140.744 87.1367 140.04 86.8109 139.53 86.1592H139.386L139.038 87H137.445V76.3633H139.53V78.8379C139.53 79.1523 139.503 79.6559 139.448 80.3486H139.53C140.018 79.5921 140.74 79.2139 141.697 79.2139ZM141.027 80.8818C140.512 80.8818 140.136 81.0413 139.899 81.3604C139.662 81.6748 139.539 82.1966 139.53 82.9258V83.1514C139.53 83.9717 139.651 84.5596 139.892 84.915C140.138 85.2705 140.526 85.4482 141.054 85.4482C141.483 85.4482 141.822 85.2523 142.073 84.8604C142.328 84.4639 142.456 83.8896 142.456 83.1377C142.456 82.3857 142.328 81.8229 142.073 81.4492C141.818 81.071 141.469 80.8818 141.027 80.8818ZM149.619 80.6973C149.177 80.6973 148.831 80.8385 148.58 81.1211C148.33 81.3991 148.186 81.7956 148.15 82.3105H151.075C151.066 81.7956 150.932 81.3991 150.672 81.1211C150.412 80.8385 150.061 80.6973 149.619 80.6973ZM149.913 87.1367C148.683 87.1367 147.721 86.7972 147.029 86.1182C146.336 85.4391 145.989 84.4775 145.989 83.2334C145.989 81.9528 146.308 80.9639 146.946 80.2666C147.589 79.5648 148.475 79.2139 149.606 79.2139C150.686 79.2139 151.527 79.5215 152.128 80.1367C152.73 80.752 153.03 81.6019 153.03 82.6865V83.6982H148.102C148.125 84.2907 148.3 84.7533 148.628 85.0859C148.956 85.4186 149.417 85.585 150.009 85.585C150.469 85.585 150.904 85.5371 151.315 85.4414C151.725 85.3457 152.153 85.193 152.6 84.9834V86.5967C152.235 86.779 151.846 86.9134 151.431 87C151.016 87.0911 150.51 87.1367 149.913 87.1367ZM159.141 79.2139C159.424 79.2139 159.659 79.2344 159.846 79.2754L159.688 81.2305C159.52 81.1849 159.315 81.1621 159.073 81.1621C158.408 81.1621 157.888 81.333 157.514 81.6748C157.145 82.0166 156.961 82.4951 156.961 83.1104V87H154.876V79.3574H156.455L156.762 80.6426H156.865C157.102 80.2142 157.421 79.8701 157.822 79.6104C158.228 79.346 158.667 79.2139 159.141 79.2139ZM171.623 87H164.637V85.5303L167.146 82.9941C167.888 82.2331 168.374 81.7067 168.602 81.415C168.829 81.1188 168.993 80.8454 169.094 80.5947C169.194 80.3441 169.244 80.0843 169.244 79.8154C169.244 79.4144 169.132 79.1159 168.909 78.9199C168.69 78.724 168.396 78.626 168.027 78.626C167.64 78.626 167.264 78.7148 166.899 78.8926C166.535 79.0703 166.154 79.3232 165.758 79.6514L164.609 78.291C165.102 77.8717 165.509 77.5755 165.833 77.4023C166.157 77.2292 166.51 77.097 166.893 77.0059C167.275 76.9102 167.704 76.8623 168.178 76.8623C168.802 76.8623 169.354 76.9762 169.832 77.2041C170.311 77.432 170.682 77.751 170.946 78.1611C171.211 78.5713 171.343 79.0407 171.343 79.5693C171.343 80.0296 171.261 80.4626 171.097 80.8682C170.937 81.2692 170.687 81.6816 170.345 82.1055C170.007 82.5293 169.41 83.1331 168.554 83.917L167.269 85.127V85.2227H171.623V87ZM179.716 82.0029C179.716 83.7484 179.429 85.0404 178.855 85.8789C178.285 86.7174 177.406 87.1367 176.216 87.1367C175.063 87.1367 174.193 86.7038 173.605 85.8379C173.022 84.972 172.73 83.6937 172.73 82.0029C172.73 80.2393 173.015 78.9404 173.585 78.1064C174.154 77.2679 175.032 76.8486 176.216 76.8486C177.369 76.8486 178.24 77.2861 178.828 78.1611C179.42 79.0361 179.716 80.3167 179.716 82.0029ZM174.829 82.0029C174.829 83.2288 174.934 84.1084 175.143 84.6416C175.357 85.1702 175.715 85.4346 176.216 85.4346C176.709 85.4346 177.064 85.1657 177.283 84.6279C177.502 84.0902 177.611 83.2152 177.611 82.0029C177.611 80.777 177.499 79.8975 177.276 79.3643C177.057 78.8265 176.704 78.5576 176.216 78.5576C175.72 78.5576 175.364 78.8265 175.15 79.3643C174.936 79.8975 174.829 80.777 174.829 82.0029ZM187.919 87H180.933V85.5303L183.442 82.9941C184.184 82.2331 184.67 81.7067 184.898 81.415C185.126 81.1188 185.29 80.8454 185.39 80.5947C185.49 80.3441 185.54 80.0843 185.54 79.8154C185.54 79.4144 185.429 79.1159 185.205 78.9199C184.987 78.724 184.693 78.626 184.323 78.626C183.936 78.626 183.56 78.7148 183.196 78.8926C182.831 79.0703 182.45 79.3232 182.054 79.6514L180.905 78.291C181.398 77.8717 181.806 77.5755 182.129 77.4023C182.453 77.2292 182.806 77.097 183.189 77.0059C183.571 76.9102 184 76.8623 184.474 76.8623C185.098 76.8623 185.65 76.9762 186.128 77.2041C186.607 77.432 186.978 77.751 187.242 78.1611C187.507 78.5713 187.639 79.0407 187.639 79.5693C187.639 80.0296 187.557 80.4626 187.393 80.8682C187.233 81.2692 186.983 81.6816 186.641 82.1055C186.304 82.5293 185.707 83.1331 184.85 83.917L183.565 85.127V85.2227H187.919V87ZM196.067 87H189.081V85.5303L191.59 82.9941C192.332 82.2331 192.818 81.7067 193.046 81.415C193.274 81.1188 193.438 80.8454 193.538 80.5947C193.638 80.3441 193.688 80.0843 193.688 79.8154C193.688 79.4144 193.577 79.1159 193.353 78.9199C193.135 78.724 192.841 78.626 192.471 78.626C192.084 78.626 191.708 78.7148 191.344 78.8926C190.979 79.0703 190.598 79.3232 190.202 79.6514L189.054 78.291C189.546 77.8717 189.954 77.5755 190.277 77.4023C190.601 77.2292 190.954 77.097 191.337 77.0059C191.72 76.9102 192.148 76.8623 192.622 76.8623C193.246 76.8623 193.798 76.9762 194.276 77.2041C194.755 77.432 195.126 77.751 195.39 78.1611C195.655 78.5713 195.787 79.0407 195.787 79.5693C195.787 80.0296 195.705 80.4626 195.541 80.8682C195.381 81.2692 195.131 81.6816 194.789 82.1055C194.452 82.5293 193.855 83.1331 192.998 83.917L191.713 85.127V85.2227H196.067V87Z" fill="white"/>
<path d="M242.193 78.4733C241.933 78.7333 241.933 79.1533 242.193 79.4133L244.78 82L242.193 84.5867C241.933 84.8467 241.933 85.2667 242.193 85.5267C242.453 85.7867 242.873 85.7867 243.133 85.5267L246.193 82.4667C246.453 82.2067 246.453 81.7867 246.193 81.5267L243.133 78.4667C242.88 78.2133 242.453 78.2133 242.193 78.4733Z" fill="white"/>
<path d="M4 102H276V370C276 372.209 274.209 374 272 374H8C5.79086 374 4 372.209 4 370V102Z" fill="white"/>
<rect width="32" height="32" transform="translate(28 126)" fill="white"/>
<path d="M42.6262 144.225C42.6262 145.127 42.3003 145.838 41.6486 146.357C41.0015 146.877 40.0992 147.137 38.9416 147.137C37.8752 147.137 36.9318 146.936 36.1115 146.535V144.566C36.786 144.867 37.3557 145.079 37.8205 145.202C38.2899 145.325 38.7183 145.387 39.1057 145.387C39.5705 145.387 39.926 145.298 40.1721 145.12C40.4227 144.942 40.548 144.678 40.548 144.327C40.548 144.131 40.4934 143.958 40.384 143.808C40.2746 143.653 40.1128 143.505 39.8986 143.363C39.689 143.222 39.2583 142.996 38.6066 142.687C37.996 142.399 37.538 142.124 37.2326 141.859C36.9273 141.595 36.6835 141.287 36.5012 140.937C36.3189 140.586 36.2277 140.175 36.2277 139.706C36.2277 138.822 36.5262 138.127 37.1232 137.621C37.7248 137.115 38.5542 136.862 39.6115 136.862C40.1311 136.862 40.6255 136.924 41.0949 137.047C41.5689 137.17 42.0633 137.343 42.5783 137.566L41.8947 139.214C41.3615 138.995 40.9195 138.842 40.5686 138.756C40.2222 138.669 39.8804 138.626 39.5432 138.626C39.1421 138.626 38.8345 138.719 38.6203 138.906C38.4061 139.093 38.299 139.337 38.299 139.638C38.299 139.825 38.3423 139.989 38.4289 140.13C38.5155 140.267 38.6522 140.401 38.8391 140.533C39.0305 140.661 39.4794 140.893 40.1857 141.23C41.12 141.677 41.7603 142.126 42.1066 142.577C42.453 143.024 42.6262 143.573 42.6262 144.225ZM49.8377 147L49.5574 146.022H49.448C49.2247 146.378 48.908 146.654 48.4979 146.85C48.0877 147.041 47.6206 147.137 47.0965 147.137C46.1987 147.137 45.5219 146.897 45.0662 146.419C44.6105 145.936 44.3826 145.243 44.3826 144.341V139.357H46.4676V143.821C46.4676 144.373 46.5656 144.787 46.7615 145.065C46.9575 145.339 47.2697 145.476 47.698 145.476C48.2814 145.476 48.7029 145.282 48.9627 144.895C49.2225 144.503 49.3523 143.855 49.3523 142.953V139.357H51.4373V147H49.8377Z" fill="#252A2E"/>
<rect width="32" height="32" transform="translate(60 126)" fill="white"/>
<path d="M70.4768 147L68.0705 139.159H68.009C68.0956 140.754 68.1389 141.818 68.1389 142.352V147H66.2453V137.006H69.1301L71.4953 144.648H71.5363L74.0451 137.006H76.9299V147H74.9543V142.27C74.9543 142.046 74.9566 141.789 74.9611 141.497C74.9702 141.205 75.0021 140.431 75.0568 139.173H74.9953L72.4182 147H70.4768ZM81.0994 143.165C81.0994 143.922 81.2225 144.493 81.4686 144.881C81.7192 145.268 82.1248 145.462 82.6854 145.462C83.2413 145.462 83.6401 145.271 83.8816 144.888C84.1277 144.5 84.2508 143.926 84.2508 143.165C84.2508 142.409 84.1277 141.841 83.8816 141.463C83.6355 141.085 83.2322 140.896 82.6717 140.896C82.1157 140.896 81.7146 141.085 81.4686 141.463C81.2225 141.837 81.0994 142.404 81.0994 143.165ZM86.3836 143.165C86.3836 144.409 86.0555 145.382 85.3992 146.084C84.743 146.786 83.8292 147.137 82.658 147.137C81.9243 147.137 81.2771 146.977 80.7166 146.658C80.1561 146.335 79.7254 145.872 79.4246 145.271C79.1238 144.669 78.9734 143.967 78.9734 143.165C78.9734 141.916 79.2993 140.946 79.951 140.253C80.6027 139.56 81.5187 139.214 82.699 139.214C83.4327 139.214 84.0799 139.373 84.6404 139.692C85.201 140.011 85.6316 140.469 85.9324 141.066C86.2332 141.663 86.3836 142.363 86.3836 143.165Z" fill="#252A2E"/>
<rect width="32" height="32" transform="translate(92 126)" fill="white"/>
<path d="M104.384 147H102.265V138.77H99.551V137.006H107.098V138.77H104.384V147ZM114.036 147L113.756 146.022H113.646C113.423 146.378 113.106 146.654 112.696 146.85C112.286 147.041 111.819 147.137 111.295 147.137C110.397 147.137 109.72 146.897 109.264 146.419C108.809 145.936 108.581 145.243 108.581 144.341V139.357H110.666V143.821C110.666 144.373 110.764 144.787 110.96 145.065C111.156 145.339 111.468 145.476 111.896 145.476C112.48 145.476 112.901 145.282 113.161 144.895C113.421 144.503 113.551 143.855 113.551 142.953V139.357H115.636V147H114.036Z" fill="#252A2E"/>
<rect width="32" height="32" transform="translate(124 126)" fill="white"/>
<path d="M140.014 147H137.601L136.247 141.75C136.197 141.563 136.111 141.178 135.988 140.595C135.869 140.007 135.801 139.613 135.782 139.412C135.755 139.658 135.687 140.055 135.577 140.602C135.468 141.144 135.384 141.531 135.324 141.764L133.978 147H131.571L129.022 137.006H131.107L132.385 142.461C132.608 143.468 132.77 144.341 132.87 145.079C132.898 144.819 132.959 144.418 133.055 143.876C133.155 143.329 133.249 142.905 133.335 142.604L134.791 137.006H136.794L138.25 142.604C138.314 142.855 138.394 143.238 138.489 143.753C138.585 144.268 138.658 144.71 138.708 145.079C138.754 144.724 138.827 144.282 138.927 143.753C139.027 143.22 139.118 142.789 139.2 142.461L140.472 137.006H142.557L140.014 147ZM146.966 140.697C146.524 140.697 146.177 140.839 145.927 141.121C145.676 141.399 145.532 141.796 145.496 142.311H148.422C148.413 141.796 148.278 141.399 148.018 141.121C147.759 140.839 147.408 140.697 146.966 140.697ZM147.26 147.137C146.029 147.137 145.068 146.797 144.375 146.118C143.682 145.439 143.336 144.478 143.336 143.233C143.336 141.953 143.655 140.964 144.293 140.267C144.935 139.565 145.822 139.214 146.952 139.214C148.032 139.214 148.873 139.521 149.474 140.137C150.076 140.752 150.377 141.602 150.377 142.687V143.698H145.448C145.471 144.291 145.646 144.753 145.974 145.086C146.303 145.419 146.763 145.585 147.355 145.585C147.816 145.585 148.251 145.537 148.661 145.441C149.071 145.346 149.499 145.193 149.946 144.983V146.597C149.582 146.779 149.192 146.913 148.777 147C148.362 147.091 147.857 147.137 147.26 147.137Z" fill="#252A2E"/>
<rect width="32" height="32" transform="translate(156 126)" fill="white"/>
<path d="M168.384 147H166.265V138.77H163.551V137.006H171.098V138.77H168.384V147ZM179.677 147H177.592V142.536C177.592 141.433 177.181 140.882 176.361 140.882C175.778 140.882 175.356 141.08 175.096 141.477C174.837 141.873 174.707 142.516 174.707 143.404V147H172.622V136.363H174.707V138.53C174.707 138.699 174.691 139.095 174.659 139.72L174.611 140.335H174.721C175.185 139.588 175.924 139.214 176.935 139.214C177.833 139.214 178.514 139.455 178.979 139.938C179.444 140.422 179.677 141.114 179.677 142.017V147Z" fill="#252A2E"/>
<rect width="32" height="32" transform="translate(188 126)" fill="white"/>
<path d="M200.247 147H198.162V137.006H203.891V138.742H200.247V141.319H203.638V143.049H200.247V147ZM210.097 139.214C210.38 139.214 210.615 139.234 210.802 139.275L210.644 141.23C210.476 141.185 210.271 141.162 210.029 141.162C209.364 141.162 208.844 141.333 208.471 141.675C208.101 142.017 207.917 142.495 207.917 143.11V147H205.832V139.357H207.411L207.719 140.643H207.821C208.058 140.214 208.377 139.87 208.778 139.61C209.184 139.346 209.624 139.214 210.097 139.214Z" fill="#252A2E"/>
<rect width="32" height="32" transform="translate(220 126)" fill="white"/>
<path d="M234.995 144.225C234.995 145.127 234.669 145.838 234.018 146.357C233.371 146.877 232.468 147.137 231.311 147.137C230.244 147.137 229.301 146.936 228.481 146.535V144.566C229.155 144.867 229.725 145.079 230.19 145.202C230.659 145.325 231.087 145.387 231.475 145.387C231.94 145.387 232.295 145.298 232.541 145.12C232.792 144.942 232.917 144.678 232.917 144.327C232.917 144.131 232.863 143.958 232.753 143.808C232.644 143.653 232.482 143.505 232.268 143.363C232.058 143.222 231.627 142.996 230.976 142.687C230.365 142.399 229.907 142.124 229.602 141.859C229.296 141.595 229.053 141.287 228.87 140.937C228.688 140.586 228.597 140.175 228.597 139.706C228.597 138.822 228.895 138.127 229.492 137.621C230.094 137.115 230.923 136.862 231.981 136.862C232.5 136.862 232.995 136.924 233.464 137.047C233.938 137.17 234.432 137.343 234.947 137.566L234.264 139.214C233.731 138.995 233.289 138.842 232.938 138.756C232.591 138.669 232.25 138.626 231.912 138.626C231.511 138.626 231.204 138.719 230.989 138.906C230.775 139.093 230.668 139.337 230.668 139.638C230.668 139.825 230.711 139.989 230.798 140.13C230.885 140.267 231.021 140.401 231.208 140.533C231.4 140.661 231.849 140.893 232.555 141.23C233.489 141.677 234.129 142.126 234.476 142.577C234.822 143.024 234.995 143.573 234.995 144.225ZM241.646 147L241.243 145.961H241.188C240.837 146.403 240.475 146.711 240.101 146.884C239.732 147.052 239.249 147.137 238.652 147.137C237.918 147.137 237.34 146.927 236.916 146.508C236.497 146.089 236.287 145.492 236.287 144.717C236.287 143.906 236.569 143.309 237.135 142.926C237.704 142.538 238.561 142.324 239.705 142.283L241.031 142.242V141.907C241.031 141.132 240.635 140.745 239.842 140.745C239.231 140.745 238.513 140.93 237.688 141.299L236.998 139.891C237.877 139.43 238.853 139.2 239.924 139.2C240.949 139.2 241.735 139.424 242.282 139.87C242.829 140.317 243.102 140.996 243.102 141.907V147H241.646ZM241.031 143.459L240.224 143.486C239.618 143.505 239.167 143.614 238.871 143.814C238.575 144.015 238.427 144.32 238.427 144.73C238.427 145.318 238.764 145.612 239.438 145.612C239.921 145.612 240.306 145.473 240.594 145.195C240.885 144.917 241.031 144.548 241.031 144.088V143.459Z" fill="#252A2E"/>
<path d="M28 174C28 165.163 35.1634 158 44 158C52.8366 158 60 165.163 60 174C60 182.837 52.8366 190 44 190C35.1634 190 28 182.837 28 174Z" fill="white"/>
<path d="M43.2307 179.5H36.6614V178.522L39.2932 175.877C40.0953 175.066 40.6239 174.487 40.8791 174.141C41.1344 173.794 41.3258 173.457 41.4534 173.129C41.581 172.801 41.6448 172.448 41.6448 172.069C41.6448 171.536 41.483 171.115 41.1594 170.805C40.8359 170.49 40.387 170.333 39.8127 170.333C39.398 170.333 39.0038 170.401 38.6301 170.538C38.261 170.675 37.8485 170.923 37.3928 171.283L36.7913 170.511C37.7118 169.745 38.7144 169.362 39.7991 169.362C40.7379 169.362 41.4739 169.604 42.0071 170.087C42.5403 170.565 42.8069 171.21 42.8069 172.021C42.8069 172.655 42.6291 173.282 42.2737 173.901C41.9182 174.521 41.2528 175.305 40.2776 176.253L38.0901 178.393V178.447H43.2307V179.5ZM48.0027 169.362C48.9141 169.362 49.6365 169.574 50.1697 169.998C50.7029 170.422 50.9695 171.007 50.9695 171.755C50.9695 172.247 50.8168 172.696 50.5115 173.102C50.2061 173.507 49.7185 173.876 49.0486 174.209C49.8598 174.596 50.4363 175.004 50.7781 175.433C51.1199 175.856 51.2908 176.349 51.2908 176.909C51.2908 177.739 51.0014 178.402 50.4226 178.898C49.8438 179.391 49.0509 179.637 48.0437 179.637C46.9773 179.637 46.157 179.404 45.5828 178.939C45.0085 178.47 44.7214 177.807 44.7214 176.95C44.7214 175.806 45.4187 174.915 46.8132 174.277C46.1843 173.922 45.7332 173.539 45.4597 173.129C45.1863 172.714 45.0496 172.252 45.0496 171.741C45.0496 171.017 45.3162 170.44 45.8494 170.012C46.3871 169.579 47.1049 169.362 48.0027 169.362ZM45.8425 176.978C45.8425 177.524 46.0317 177.951 46.4099 178.256C46.7927 178.561 47.3282 178.714 48.0164 178.714C48.6954 178.714 49.224 178.554 49.6023 178.235C49.9806 177.916 50.1697 177.479 50.1697 176.923C50.1697 176.481 49.9919 176.089 49.6365 175.747C49.281 175.401 48.6612 175.066 47.7771 174.742C47.0981 175.034 46.6059 175.357 46.3005 175.713C45.9952 176.064 45.8425 176.485 45.8425 176.978ZM47.989 170.285C47.4194 170.285 46.9727 170.422 46.6492 170.695C46.3256 170.969 46.1638 171.333 46.1638 171.789C46.1638 172.208 46.2983 172.568 46.5671 172.869C46.836 173.17 47.3328 173.471 48.0574 173.771C48.7091 173.498 49.1694 173.204 49.4382 172.89C49.7117 172.575 49.8484 172.208 49.8484 171.789C49.8484 171.329 49.682 170.964 49.3494 170.695C49.0212 170.422 48.5678 170.285 47.989 170.285Z" fill="#252A2E" fill-opacity="0.3"/>
<path d="M60 174C60 165.163 67.1634 158 76 158C84.8366 158 92 165.163 92 174C92 182.837 84.8366 190 76 190C67.1634 190 60 182.837 60 174Z" fill="white"/>
<path d="M75.2307 179.5H68.6614V178.522L71.2932 175.877C72.0953 175.066 72.6239 174.487 72.8791 174.141C73.1344 173.794 73.3258 173.457 73.4534 173.129C73.581 172.801 73.6448 172.448 73.6448 172.069C73.6448 171.536 73.483 171.115 73.1594 170.805C72.8359 170.49 72.387 170.333 71.8127 170.333C71.398 170.333 71.0038 170.401 70.6301 170.538C70.261 170.675 69.8485 170.923 69.3928 171.283L68.7913 170.511C69.7118 169.745 70.7144 169.362 71.7991 169.362C72.7379 169.362 73.4739 169.604 74.0071 170.087C74.5403 170.565 74.8069 171.21 74.8069 172.021C74.8069 172.655 74.6291 173.282 74.2737 173.901C73.9182 174.521 73.2528 175.305 72.2776 176.253L70.0901 178.393V178.447H75.2307V179.5ZM83.2634 173.771C83.2634 177.682 81.7504 179.637 78.7244 179.637C78.1957 179.637 77.7765 179.591 77.4666 179.5V178.522C77.8311 178.641 78.2459 178.7 78.7107 178.7C79.8044 178.7 80.6293 178.363 81.1853 177.688C81.7459 177.009 82.0512 175.97 82.1013 174.571H82.0193C81.7686 174.95 81.436 175.239 81.0212 175.439C80.6065 175.635 80.1394 175.733 79.6199 175.733C78.7358 175.733 78.0339 175.469 77.5144 174.94C76.9949 174.412 76.7351 173.674 76.7351 172.726C76.7351 171.687 77.0245 170.866 77.6033 170.265C78.1866 169.663 78.9522 169.362 79.9001 169.362C80.5792 169.362 81.1716 169.538 81.6775 169.889C82.1879 170.235 82.5798 170.743 82.8533 171.413C83.1267 172.078 83.2634 172.865 83.2634 173.771ZM79.9001 170.333C79.2485 170.333 78.7449 170.543 78.3894 170.962C78.0339 171.381 77.8562 171.965 77.8562 172.712C77.8562 173.368 78.0203 173.885 78.3484 174.264C78.6765 174.637 79.1755 174.824 79.8455 174.824C80.2602 174.824 80.6407 174.74 80.9871 174.571C81.338 174.403 81.6137 174.173 81.8142 173.881C82.0147 173.589 82.115 173.284 82.115 172.965C82.115 172.486 82.0216 172.044 81.8347 171.639C81.6479 171.233 81.3858 170.914 81.0486 170.682C80.7159 170.449 80.3331 170.333 79.9001 170.333Z" fill="#252A2E" fill-opacity="0.3"/>
<path d="M92 174C92 165.163 99.1634 158 108 158C116.837 158 124 165.163 124 174C124 182.837 116.837 190 108 190C99.1634 190 92 182.837 92 174Z" fill="white"/>
<path d="M106.855 171.857C106.855 172.495 106.675 173.017 106.315 173.423C105.959 173.828 105.453 174.1 104.797 174.236V174.291C105.599 174.391 106.194 174.646 106.581 175.057C106.969 175.467 107.162 176.005 107.162 176.67C107.162 177.622 106.832 178.356 106.171 178.871C105.51 179.382 104.572 179.637 103.355 179.637C102.826 179.637 102.341 179.596 101.899 179.514C101.461 179.436 101.035 179.297 100.62 179.097V178.017C101.053 178.231 101.514 178.395 102.001 178.509C102.493 178.618 102.958 178.673 103.396 178.673C105.123 178.673 105.987 177.996 105.987 176.643C105.987 175.43 105.034 174.824 103.129 174.824H102.145V173.847H103.143C103.922 173.847 104.54 173.676 104.995 173.334C105.451 172.988 105.679 172.509 105.679 171.898C105.679 171.411 105.51 171.028 105.173 170.75C104.84 170.472 104.387 170.333 103.813 170.333C103.375 170.333 102.963 170.392 102.575 170.511C102.188 170.629 101.746 170.848 101.249 171.167L100.675 170.401C101.085 170.078 101.557 169.825 102.09 169.643C102.628 169.456 103.193 169.362 103.785 169.362C104.756 169.362 105.51 169.586 106.048 170.032C106.586 170.474 106.855 171.083 106.855 171.857ZM115.318 174.489C115.318 176.216 115.045 177.506 114.498 178.358C113.955 179.211 113.124 179.637 112.003 179.637C110.927 179.637 110.109 179.201 109.549 178.331C108.988 177.456 108.708 176.175 108.708 174.489C108.708 172.748 108.979 171.456 109.521 170.613C110.064 169.77 110.891 169.349 112.003 169.349C113.087 169.349 113.91 169.788 114.47 170.668C115.036 171.548 115.318 172.821 115.318 174.489ZM109.856 174.489C109.856 175.943 110.027 177.003 110.369 177.668C110.711 178.329 111.255 178.659 112.003 178.659C112.759 178.659 113.306 178.324 113.643 177.654C113.985 176.98 114.156 175.925 114.156 174.489C114.156 173.054 113.985 172.003 113.643 171.338C113.306 170.668 112.759 170.333 112.003 170.333C111.255 170.333 110.711 170.663 110.369 171.324C110.027 171.98 109.856 173.035 109.856 174.489Z" fill="#252A2E" fill-opacity="0.3"/>
<path d="M124 174C124 165.163 131.163 158 140 158C148.837 158 156 165.163 156 174C156 182.837 148.837 190 140 190C131.163 190 124 182.837 124 174Z" fill="white"/>
<path d="M138.855 171.857C138.855 172.495 138.675 173.017 138.315 173.423C137.959 173.828 137.453 174.1 136.797 174.236V174.291C137.599 174.391 138.194 174.646 138.581 175.057C138.969 175.467 139.162 176.005 139.162 176.67C139.162 177.622 138.832 178.356 138.171 178.871C137.51 179.382 136.572 179.637 135.355 179.637C134.826 179.637 134.341 179.596 133.899 179.514C133.461 179.436 133.035 179.297 132.62 179.097V178.017C133.053 178.231 133.514 178.395 134.001 178.509C134.493 178.618 134.958 178.673 135.396 178.673C137.123 178.673 137.987 177.996 137.987 176.643C137.987 175.43 137.034 174.824 135.129 174.824H134.145V173.847H135.143C135.922 173.847 136.54 173.676 136.995 173.334C137.451 172.988 137.679 172.509 137.679 171.898C137.679 171.411 137.51 171.028 137.173 170.75C136.84 170.472 136.387 170.333 135.813 170.333C135.375 170.333 134.963 170.392 134.575 170.511C134.188 170.629 133.746 170.848 133.249 171.167L132.675 170.401C133.085 170.078 133.557 169.825 134.09 169.643C134.628 169.456 135.193 169.362 135.785 169.362C136.756 169.362 137.51 169.586 138.048 170.032C138.586 170.474 138.855 171.083 138.855 171.857ZM144.898 179.5H143.791V172.377C143.791 171.785 143.809 171.224 143.845 170.695C143.75 170.791 143.643 170.891 143.524 170.996C143.406 171.101 142.863 171.545 141.897 172.329L141.296 171.55L143.941 169.506H144.898V179.5Z" fill="#252A2E" fill-opacity="0.3"/>
<path d="M156 174C156 165.163 163.163 158 172 158C180.837 158 188 165.163 188 174C188 182.837 180.837 190 172 190C163.163 190 156 182.837 156 174Z" fill="white"/>
<path d="M172.882 179.5H171.774V172.377C171.774 171.785 171.793 171.224 171.829 170.695C171.733 170.791 171.626 170.891 171.508 170.996C171.389 171.101 170.847 171.545 169.881 172.329L169.279 171.55L171.925 169.506H172.882V179.5Z" fill="#252A2E"/>
<path d="M188 174C188 165.163 195.163 158 204 158C212.837 158 220 165.163 220 174C220 182.837 212.837 190 204 190C195.163 190 188 182.837 188 174Z" fill="white"/>
<path d="M207.247 179.5H200.678V178.522L203.31 175.877C204.112 175.066 204.64 174.487 204.896 174.141C205.151 173.794 205.342 173.457 205.47 173.129C205.597 172.801 205.661 172.448 205.661 172.069C205.661 171.536 205.499 171.115 205.176 170.805C204.852 170.49 204.403 170.333 203.829 170.333C203.414 170.333 203.02 170.401 202.646 170.538C202.277 170.675 201.865 170.923 201.409 171.283L200.808 170.511C201.728 169.745 202.731 169.362 203.815 169.362C204.754 169.362 205.49 169.604 206.023 170.087C206.557 170.565 206.823 171.21 206.823 172.021C206.823 172.655 206.646 173.282 206.29 173.901C205.935 174.521 205.269 175.305 204.294 176.253L202.106 178.393V178.447H207.247V179.5Z" fill="#252A2E"/>
<path d="M220 174C220 165.163 227.163 158 236 158C244.837 158 252 165.163 252 174C252 182.837 244.837 190 236 190C227.163 190 220 182.837 220 174Z" fill="white"/>
<path d="M238.871 171.857C238.871 172.495 238.691 173.017 238.331 173.423C237.976 173.828 237.47 174.1 236.813 174.236V174.291C237.616 174.391 238.21 174.646 238.598 175.057C238.985 175.467 239.179 176.005 239.179 176.67C239.179 177.622 238.848 178.356 238.188 178.871C237.527 179.382 236.588 179.637 235.371 179.637C234.842 179.637 234.357 179.596 233.915 179.514C233.478 179.436 233.051 179.297 232.637 179.097V178.017C233.07 178.231 233.53 178.395 234.018 178.509C234.51 178.618 234.975 178.673 235.412 178.673C237.139 178.673 238.003 177.996 238.003 176.643C238.003 175.43 237.05 174.824 235.146 174.824H234.161V173.847H235.159C235.938 173.847 236.556 173.676 237.012 173.334C237.467 172.988 237.695 172.509 237.695 171.898C237.695 171.411 237.527 171.028 237.189 170.75C236.857 170.472 236.403 170.333 235.829 170.333C235.392 170.333 234.979 170.392 234.592 170.511C234.204 170.629 233.762 170.848 233.266 171.167L232.691 170.401C233.102 170.078 233.573 169.825 234.106 169.643C234.644 169.456 235.209 169.362 235.802 169.362C236.772 169.362 237.527 169.586 238.064 170.032C238.602 170.474 238.871 171.083 238.871 171.857Z" fill="#252A2E"/>
<path d="M28 206C28 197.163 35.1634 190 44 190C52.8366 190 60 197.163 60 206C60 214.837 52.8366 222 44 222C35.1634 222 28 214.837 28 206Z" fill="white"/>
<path d="M47.7188 209.203H46.2354V211.5H45.1484V209.203H40.2881V208.212L45.0322 201.451H46.2354V208.171H47.7188V209.203ZM45.1484 208.171V204.849C45.1484 204.197 45.1712 203.461 45.2168 202.641H45.1621C44.9434 203.078 44.7383 203.44 44.5469 203.728L41.4229 208.171H45.1484Z" fill="#252A2E"/>
<path d="M60 206C60 197.163 67.1634 190 76 190C84.8366 190 92 197.163 92 206C92 214.837 84.8366 222 76 222C67.1634 222 60 214.837 60 206Z" fill="white"/>
<path d="M75.8018 205.396C76.8545 205.396 77.6816 205.658 78.2832 206.182C78.8893 206.701 79.1924 207.414 79.1924 208.321C79.1924 209.356 78.862 210.167 78.2012 210.755C77.5449 211.343 76.638 211.637 75.4805 211.637C74.3548 211.637 73.4958 211.457 72.9033 211.097V210.003C73.2223 210.208 73.6188 210.37 74.0928 210.488C74.5667 210.602 75.0339 210.659 75.4941 210.659C76.2962 210.659 76.9183 210.47 77.3604 210.092C77.807 209.714 78.0303 209.167 78.0303 208.451C78.0303 207.057 77.1758 206.359 75.4668 206.359C75.0339 206.359 74.4551 206.425 73.7305 206.558L73.1426 206.182L73.5186 201.506H78.4883V202.552H74.4893L74.2363 205.553C74.7604 205.448 75.2822 205.396 75.8018 205.396Z" fill="#252A2E"/>
<path d="M92 206C92 197.163 99.1634 190 108 190C116.837 190 124 197.163 124 206C124 214.837 116.837 222 108 222C99.1634 222 92 214.837 92 206Z" fill="white"/>
<path d="M104.794 207.228C104.794 205.263 105.174 203.796 105.936 202.825C106.701 201.85 107.831 201.362 109.326 201.362C109.841 201.362 110.247 201.406 110.543 201.492V202.47C110.192 202.356 109.791 202.299 109.34 202.299C108.269 202.299 107.451 202.634 106.886 203.304C106.321 203.969 106.011 205.017 105.956 206.448H106.038C106.539 205.664 107.332 205.272 108.417 205.272C109.315 205.272 110.021 205.544 110.536 206.086C111.056 206.628 111.315 207.364 111.315 208.294C111.315 209.333 111.031 210.151 110.461 210.748C109.896 211.34 109.13 211.637 108.164 211.637C107.13 211.637 106.309 211.249 105.703 210.475C105.097 209.695 104.794 208.613 104.794 207.228ZM108.15 210.673C108.798 210.673 109.299 210.47 109.654 210.064C110.014 209.654 110.194 209.064 110.194 208.294C110.194 207.633 110.028 207.114 109.695 206.735C109.363 206.357 108.866 206.168 108.205 206.168C107.795 206.168 107.419 206.252 107.077 206.421C106.735 206.59 106.462 206.822 106.257 207.118C106.056 207.414 105.956 207.722 105.956 208.041C105.956 208.51 106.047 208.948 106.229 209.354C106.412 209.759 106.669 210.08 107.002 210.317C107.339 210.554 107.722 210.673 108.15 210.673Z" fill="#252A2E"/>
<path d="M124 206C124 197.163 131.163 190 140 190C148.837 190 156 197.163 156 206C156 214.837 148.837 222 140 222C131.163 222 124 214.837 124 206Z" fill="white"/>
<path d="M137.942 211.5L142.085 202.552H136.637V201.506H143.288V202.415L139.2 211.5H137.942Z" fill="#252A2E"/>
<path d="M156 206C156 197.163 163.163 190 172 190C180.837 190 188 197.163 188 206C188 214.837 180.837 222 172 222C163.163 222 156 214.837 156 206Z" fill="white"/>
<path d="M171.986 201.362C172.898 201.362 173.62 201.574 174.153 201.998C174.687 202.422 174.953 203.007 174.953 203.755C174.953 204.247 174.8 204.696 174.495 205.102C174.19 205.507 173.702 205.876 173.032 206.209C173.843 206.596 174.42 207.004 174.762 207.433C175.104 207.856 175.274 208.349 175.274 208.909C175.274 209.739 174.985 210.402 174.406 210.898C173.827 211.391 173.035 211.637 172.027 211.637C170.961 211.637 170.141 211.404 169.566 210.939C168.992 210.47 168.705 209.807 168.705 208.95C168.705 207.806 169.402 206.915 170.797 206.277C170.168 205.922 169.717 205.539 169.443 205.129C169.17 204.714 169.033 204.252 169.033 203.741C169.033 203.017 169.3 202.44 169.833 202.012C170.371 201.579 171.089 201.362 171.986 201.362ZM169.826 208.978C169.826 209.524 170.015 209.951 170.394 210.256C170.776 210.561 171.312 210.714 172 210.714C172.679 210.714 173.208 210.554 173.586 210.235C173.964 209.916 174.153 209.479 174.153 208.923C174.153 208.481 173.976 208.089 173.62 207.747C173.265 207.401 172.645 207.066 171.761 206.742C171.082 207.034 170.59 207.357 170.284 207.713C169.979 208.064 169.826 208.485 169.826 208.978ZM171.973 202.285C171.403 202.285 170.956 202.422 170.633 202.695C170.309 202.969 170.147 203.333 170.147 203.789C170.147 204.208 170.282 204.568 170.551 204.869C170.82 205.17 171.316 205.471 172.041 205.771C172.693 205.498 173.153 205.204 173.422 204.89C173.695 204.575 173.832 204.208 173.832 203.789C173.832 203.329 173.666 202.964 173.333 202.695C173.005 202.422 172.551 202.285 171.973 202.285Z" fill="#252A2E"/>
<path d="M188 206C188 197.163 195.163 190 204 190C212.837 190 220 197.163 220 206C220 214.837 212.837 222 204 222C195.163 222 188 214.837 188 206Z" fill="white"/>
<path d="M207.247 205.771C207.247 209.682 205.734 211.637 202.708 211.637C202.179 211.637 201.76 211.591 201.45 211.5V210.522C201.815 210.641 202.229 210.7 202.694 210.7C203.788 210.7 204.613 210.363 205.169 209.688C205.729 209.009 206.035 207.97 206.085 206.571H206.003C205.752 206.95 205.42 207.239 205.005 207.439C204.59 207.635 204.123 207.733 203.604 207.733C202.719 207.733 202.018 207.469 201.498 206.94C200.979 206.412 200.719 205.674 200.719 204.726C200.719 203.687 201.008 202.866 201.587 202.265C202.17 201.663 202.936 201.362 203.884 201.362C204.563 201.362 205.155 201.538 205.661 201.889C206.172 202.235 206.563 202.743 206.837 203.413C207.11 204.078 207.247 204.865 207.247 205.771ZM203.884 202.333C203.232 202.333 202.729 202.543 202.373 202.962C202.018 203.381 201.84 203.965 201.84 204.712C201.84 205.368 202.004 205.885 202.332 206.264C202.66 206.637 203.159 206.824 203.829 206.824C204.244 206.824 204.624 206.74 204.971 206.571C205.322 206.403 205.597 206.173 205.798 205.881C205.998 205.589 206.099 205.284 206.099 204.965C206.099 204.486 206.005 204.044 205.818 203.639C205.632 203.233 205.369 202.914 205.032 202.682C204.7 202.449 204.317 202.333 203.884 202.333Z" fill="#252A2E"/>
<path d="M220 206C220 197.163 227.163 190 236 190C244.837 190 252 197.163 252 206C252 214.837 244.837 222 236 222C227.163 222 220 214.837 220 206Z" fill="white"/>
<path d="M232.865 211.5H231.758V204.377C231.758 203.785 231.776 203.224 231.813 202.695C231.717 202.791 231.61 202.891 231.491 202.996C231.373 203.101 230.831 203.545 229.865 204.329L229.263 203.55L231.908 201.506H232.865V211.5ZM243.318 206.489C243.318 208.216 243.045 209.506 242.498 210.358C241.955 211.211 241.124 211.637 240.003 211.637C238.927 211.637 238.109 211.201 237.549 210.331C236.988 209.456 236.708 208.175 236.708 206.489C236.708 204.748 236.979 203.456 237.521 202.613C238.064 201.77 238.891 201.349 240.003 201.349C241.087 201.349 241.91 201.788 242.47 202.668C243.036 203.548 243.318 204.821 243.318 206.489ZM237.856 206.489C237.856 207.943 238.027 209.003 238.369 209.668C238.711 210.329 239.255 210.659 240.003 210.659C240.759 210.659 241.306 210.324 241.643 209.654C241.985 208.98 242.156 207.925 242.156 206.489C242.156 205.054 241.985 204.003 241.643 203.338C241.306 202.668 240.759 202.333 240.003 202.333C239.255 202.333 238.711 202.663 238.369 203.324C238.027 203.98 237.856 205.035 237.856 206.489Z" fill="#252A2E"/>
<path d="M28 238C28 229.163 35.1634 222 44 222C52.8366 222 60 229.163 60 238C60 246.837 52.8366 254 44 254C35.1634 254 28 246.837 28 238Z" fill="white"/>
<path d="M40.8655 243.5H39.7581V236.377C39.7581 235.785 39.7763 235.224 39.8127 234.695C39.717 234.791 39.6099 234.891 39.4915 234.996C39.373 235.101 38.8306 235.545 37.8645 236.329L37.2629 235.55L39.9084 233.506H40.8655V243.5ZM48.8982 243.5H47.7908V236.377C47.7908 235.785 47.809 235.224 47.8455 234.695C47.7498 234.791 47.6427 234.891 47.5242 234.996C47.4057 235.101 46.8634 235.545 45.8972 236.329L45.2957 235.55L47.9412 233.506H48.8982V243.5Z" fill="#252A2E"/>
<path d="M60 238C60 229.163 67.1634 222 76 222C84.8366 222 92 229.163 92 238C92 246.837 84.8366 254 76 254C67.1634 254 60 246.837 60 238Z" fill="white"/>
<path d="M72.8655 243.5H71.7581V236.377C71.7581 235.785 71.7763 235.224 71.8127 234.695C71.717 234.791 71.6099 234.891 71.4915 234.996C71.373 235.101 70.8306 235.545 69.8645 236.329L69.2629 235.55L71.9084 233.506H72.8655V243.5ZM83.2634 243.5H76.6941V242.522L79.3259 239.877C80.128 239.066 80.6567 238.487 80.9119 238.141C81.1671 237.794 81.3585 237.457 81.4861 237.129C81.6137 236.801 81.6775 236.448 81.6775 236.069C81.6775 235.536 81.5157 235.115 81.1921 234.805C80.8686 234.49 80.4197 234.333 79.8455 234.333C79.4307 234.333 79.0365 234.401 78.6628 234.538C78.2937 234.675 77.8813 234.923 77.4255 235.283L76.824 234.511C77.7445 233.745 78.7472 233.362 79.8318 233.362C80.7706 233.362 81.5066 233.604 82.0398 234.087C82.573 234.565 82.8396 235.21 82.8396 236.021C82.8396 236.655 82.6619 237.282 82.3064 237.901C81.9509 238.521 81.2856 239.305 80.3103 240.253L78.1228 242.393V242.447H83.2634V243.5Z" fill="#252A2E"/>
<path d="M92 238C92 229.163 99.1634 222 108 222C116.837 222 124 229.163 124 238C124 246.837 116.837 254 108 254C99.1634 254 92 246.837 92 238Z" fill="white"/>
<path d="M104.865 243.5H103.758V236.377C103.758 235.785 103.776 235.224 103.813 234.695C103.717 234.791 103.61 234.891 103.491 234.996C103.373 235.101 102.831 235.545 101.865 236.329L101.263 235.55L103.908 233.506H104.865V243.5ZM114.887 235.857C114.887 236.495 114.707 237.017 114.347 237.423C113.992 237.828 113.486 238.1 112.83 238.236V238.291C113.632 238.391 114.227 238.646 114.614 239.057C115.001 239.467 115.195 240.005 115.195 240.67C115.195 241.622 114.865 242.356 114.204 242.871C113.543 243.382 112.604 243.637 111.387 243.637C110.859 243.637 110.373 243.596 109.931 243.514C109.494 243.436 109.068 243.297 108.653 243.097V242.017C109.086 242.231 109.546 242.395 110.034 242.509C110.526 242.618 110.991 242.673 111.428 242.673C113.156 242.673 114.019 241.996 114.019 240.643C114.019 239.43 113.067 238.824 111.162 238.824H110.177V237.847H111.176C111.955 237.847 112.572 237.676 113.028 237.334C113.484 236.988 113.712 236.509 113.712 235.898C113.712 235.411 113.543 235.028 113.206 234.75C112.873 234.472 112.42 234.333 111.845 234.333C111.408 234.333 110.996 234.392 110.608 234.511C110.221 234.629 109.779 234.848 109.282 235.167L108.708 234.401C109.118 234.078 109.59 233.825 110.123 233.643C110.661 233.456 111.226 233.362 111.818 233.362C112.789 233.362 113.543 233.586 114.081 234.032C114.619 234.474 114.887 235.083 114.887 235.857Z" fill="#252A2E"/>
<path d="M125 238C125 229.716 131.716 223 140 223C148.284 223 155 229.716 155 238C155 246.284 148.284 253 140 253C131.716 253 125 246.284 125 238Z" fill="white"/>
<path d="M125 238C125 229.716 131.716 223 140 223C148.284 223 155 229.716 155 238C155 246.284 148.284 253 140 253C131.716 253 125 246.284 125 238Z" stroke="#217CBB" stroke-width="2"/>
<path d="M136.865 243.5H135.758V236.377C135.758 235.785 135.776 235.224 135.813 234.695C135.717 234.791 135.61 234.891 135.491 234.996C135.373 235.101 134.831 235.545 133.865 236.329L133.263 235.55L135.908 233.506H136.865V243.5ZM147.735 241.203H146.252V243.5H145.165V241.203H140.304V240.212L145.049 233.451H146.252V240.171H147.735V241.203ZM145.165 240.171V236.849C145.165 236.197 145.188 235.461 145.233 234.641H145.178C144.96 235.078 144.755 235.44 144.563 235.728L141.439 240.171H145.165Z" fill="#252A2E"/>
<path d="M156 238C156 229.163 163.163 222 172 222C180.837 222 188 229.163 188 238C188 246.837 180.837 254 172 254C163.163 254 156 246.837 156 238Z" fill="white"/>
<path d="M168.865 243.5H167.758V236.377C167.758 235.785 167.776 235.224 167.813 234.695C167.717 234.791 167.61 234.891 167.491 234.996C167.373 235.101 166.831 235.545 165.865 236.329L165.263 235.55L167.908 233.506H168.865V243.5ZM175.818 237.396C176.871 237.396 177.698 237.658 178.3 238.182C178.906 238.701 179.209 239.414 179.209 240.321C179.209 241.356 178.878 242.167 178.218 242.755C177.561 243.343 176.654 243.637 175.497 243.637C174.371 243.637 173.512 243.457 172.92 243.097V242.003C173.239 242.208 173.635 242.37 174.109 242.488C174.583 242.602 175.05 242.659 175.51 242.659C176.313 242.659 176.935 242.47 177.377 242.092C177.823 241.714 178.047 241.167 178.047 240.451C178.047 239.057 177.192 238.359 175.483 238.359C175.05 238.359 174.471 238.425 173.747 238.558L173.159 238.182L173.535 233.506H178.505V234.552H174.506L174.253 237.553C174.777 237.448 175.299 237.396 175.818 237.396Z" fill="#252A2E"/>
<path d="M188 238C188 229.163 195.163 222 204 222C212.837 222 220 229.163 220 238C220 246.837 212.837 254 204 254C195.163 254 188 246.837 188 238Z" fill="white"/>
<path d="M200.865 243.5H199.758V236.377C199.758 235.785 199.776 235.224 199.813 234.695C199.717 234.791 199.61 234.891 199.491 234.996C199.373 235.101 198.831 235.545 197.865 236.329L197.263 235.55L199.908 233.506H200.865V243.5ZM204.81 239.228C204.81 237.263 205.191 235.796 205.952 234.825C206.718 233.85 207.848 233.362 209.343 233.362C209.858 233.362 210.263 233.406 210.559 233.492V234.47C210.208 234.356 209.807 234.299 209.356 234.299C208.285 234.299 207.467 234.634 206.902 235.304C206.337 235.969 206.027 237.017 205.972 238.448H206.054C206.556 237.664 207.349 237.272 208.433 237.272C209.331 237.272 210.038 237.544 210.552 238.086C211.072 238.628 211.332 239.364 211.332 240.294C211.332 241.333 211.047 242.151 210.477 242.748C209.912 243.34 209.147 243.637 208.18 243.637C207.146 243.637 206.326 243.249 205.719 242.475C205.113 241.695 204.81 240.613 204.81 239.228ZM208.167 242.673C208.814 242.673 209.315 242.47 209.671 242.064C210.031 241.654 210.211 241.064 210.211 240.294C210.211 239.633 210.044 239.114 209.712 238.735C209.379 238.357 208.882 238.168 208.221 238.168C207.811 238.168 207.435 238.252 207.094 238.421C206.752 238.59 206.478 238.822 206.273 239.118C206.073 239.414 205.972 239.722 205.972 240.041C205.972 240.51 206.064 240.948 206.246 241.354C206.428 241.759 206.686 242.08 207.018 242.317C207.356 242.554 207.738 242.673 208.167 242.673Z" fill="#252A2E"/>
<path d="M220 238C220 229.163 227.163 222 236 222C244.837 222 252 229.163 252 238C252 246.837 244.837 254 236 254C227.163 254 220 246.837 220 238Z" fill="white"/>
<path d="M232.865 243.5H231.758V236.377C231.758 235.785 231.776 235.224 231.813 234.695C231.717 234.791 231.61 234.891 231.491 234.996C231.373 235.101 230.831 235.545 229.865 236.329L229.263 235.55L231.908 233.506H232.865V243.5ZM237.959 243.5L242.101 234.552H236.653V233.506H243.304V234.415L239.217 243.5H237.959Z" fill="#252A2E"/>
<path d="M28 270C28 261.163 35.1634 254 44 254C52.8366 254 60 261.163 60 270C60 278.837 52.8366 286 44 286C35.1634 286 28 278.837 28 270Z" fill="white"/>
<path d="M40.8655 275.5H39.7581V268.377C39.7581 267.785 39.7763 267.224 39.8127 266.695C39.717 266.791 39.6099 266.891 39.4915 266.996C39.373 267.101 38.8306 267.545 37.8645 268.329L37.2629 267.55L39.9084 265.506H40.8655V275.5ZM48.0027 265.362C48.9141 265.362 49.6365 265.574 50.1697 265.998C50.7029 266.422 50.9695 267.007 50.9695 267.755C50.9695 268.247 50.8168 268.696 50.5115 269.102C50.2061 269.507 49.7185 269.876 49.0486 270.209C49.8598 270.596 50.4363 271.004 50.7781 271.433C51.1199 271.856 51.2908 272.349 51.2908 272.909C51.2908 273.739 51.0014 274.402 50.4226 274.898C49.8438 275.391 49.0509 275.637 48.0437 275.637C46.9773 275.637 46.157 275.404 45.5828 274.939C45.0085 274.47 44.7214 273.807 44.7214 272.95C44.7214 271.806 45.4187 270.915 46.8132 270.277C46.1843 269.922 45.7332 269.539 45.4597 269.129C45.1863 268.714 45.0496 268.252 45.0496 267.741C45.0496 267.017 45.3162 266.44 45.8494 266.012C46.3871 265.579 47.1049 265.362 48.0027 265.362ZM45.8425 272.978C45.8425 273.524 46.0317 273.951 46.4099 274.256C46.7927 274.561 47.3282 274.714 48.0164 274.714C48.6954 274.714 49.224 274.554 49.6023 274.235C49.9806 273.916 50.1697 273.479 50.1697 272.923C50.1697 272.481 49.9919 272.089 49.6365 271.747C49.281 271.401 48.6612 271.066 47.7771 270.742C47.0981 271.034 46.6059 271.357 46.3005 271.713C45.9952 272.064 45.8425 272.485 45.8425 272.978ZM47.989 266.285C47.4194 266.285 46.9727 266.422 46.6492 266.695C46.3256 266.969 46.1638 267.333 46.1638 267.789C46.1638 268.208 46.2983 268.568 46.5671 268.869C46.836 269.17 47.3328 269.471 48.0574 269.771C48.7091 269.498 49.1694 269.204 49.4382 268.89C49.7117 268.575 49.8484 268.208 49.8484 267.789C49.8484 267.329 49.682 266.964 49.3494 266.695C49.0212 266.422 48.5678 266.285 47.989 266.285Z" fill="#252A2E"/>
<path d="M60 270C60 261.163 67.1634 254 76 254C84.8366 254 92 261.163 92 270C92 278.837 84.8366 286 76 286C67.1634 286 60 278.837 60 270Z" fill="white"/>
<path d="M72.8655 275.5H71.7581V268.377C71.7581 267.785 71.7763 267.224 71.8127 266.695C71.717 266.791 71.6099 266.891 71.4915 266.996C71.373 267.101 70.8306 267.545 69.8645 268.329L69.2629 267.55L71.9084 265.506H72.8655V275.5ZM83.2634 269.771C83.2634 273.682 81.7504 275.637 78.7244 275.637C78.1957 275.637 77.7765 275.591 77.4666 275.5V274.522C77.8311 274.641 78.2459 274.7 78.7107 274.7C79.8044 274.7 80.6293 274.363 81.1853 273.688C81.7459 273.009 82.0512 271.97 82.1013 270.571H82.0193C81.7686 270.95 81.436 271.239 81.0212 271.439C80.6065 271.635 80.1394 271.733 79.6199 271.733C78.7358 271.733 78.0339 271.469 77.5144 270.94C76.9949 270.412 76.7351 269.674 76.7351 268.726C76.7351 267.687 77.0245 266.866 77.6033 266.265C78.1866 265.663 78.9522 265.362 79.9001 265.362C80.5792 265.362 81.1716 265.538 81.6775 265.889C82.1879 266.235 82.5798 266.743 82.8533 267.413C83.1267 268.078 83.2634 268.865 83.2634 269.771ZM79.9001 266.333C79.2485 266.333 78.7449 266.543 78.3894 266.962C78.0339 267.381 77.8562 267.965 77.8562 268.712C77.8562 269.368 78.0203 269.885 78.3484 270.264C78.6765 270.637 79.1755 270.824 79.8455 270.824C80.2602 270.824 80.6407 270.74 80.9871 270.571C81.338 270.403 81.6137 270.173 81.8142 269.881C82.0147 269.589 82.115 269.284 82.115 268.965C82.115 268.486 82.0216 268.044 81.8347 267.639C81.6479 267.233 81.3858 266.914 81.0486 266.682C80.7159 266.449 80.3331 266.333 79.9001 266.333Z" fill="#252A2E"/>
<path d="M92 270C92 261.163 99.1634 254 108 254C116.837 254 124 261.163 124 270C124 278.837 116.837 286 108 286C99.1634 286 92 278.837 92 270Z" fill="white"/>
<path d="M107.231 275.5H100.661V274.522L103.293 271.877C104.095 271.066 104.624 270.487 104.879 270.141C105.134 269.794 105.326 269.457 105.453 269.129C105.581 268.801 105.645 268.448 105.645 268.069C105.645 267.536 105.483 267.115 105.159 266.805C104.836 266.49 104.387 266.333 103.813 266.333C103.398 266.333 103.004 266.401 102.63 266.538C102.261 266.675 101.849 266.923 101.393 267.283L100.791 266.511C101.712 265.745 102.714 265.362 103.799 265.362C104.738 265.362 105.474 265.604 106.007 266.087C106.54 266.565 106.807 267.21 106.807 268.021C106.807 268.655 106.629 269.282 106.274 269.901C105.918 270.521 105.253 271.305 104.278 272.253L102.09 274.393V274.447H107.231V275.5ZM115.318 270.489C115.318 272.216 115.045 273.506 114.498 274.358C113.955 275.211 113.124 275.637 112.003 275.637C110.927 275.637 110.109 275.201 109.549 274.331C108.988 273.456 108.708 272.175 108.708 270.489C108.708 268.748 108.979 267.456 109.521 266.613C110.064 265.77 110.891 265.349 112.003 265.349C113.087 265.349 113.91 265.788 114.47 266.668C115.036 267.548 115.318 268.821 115.318 270.489ZM109.856 270.489C109.856 271.943 110.027 273.003 110.369 273.668C110.711 274.329 111.255 274.659 112.003 274.659C112.759 274.659 113.306 274.324 113.643 273.654C113.985 272.98 114.156 271.925 114.156 270.489C114.156 269.054 113.985 268.003 113.643 267.338C113.306 266.668 112.759 266.333 112.003 266.333C111.255 266.333 110.711 266.663 110.369 267.324C110.027 267.98 109.856 269.035 109.856 270.489Z" fill="#252A2E"/>
<path d="M124 270C124 261.163 131.163 254 140 254C148.837 254 156 261.163 156 270C156 278.837 148.837 286 140 286C131.163 286 124 278.837 124 270Z" fill="white"/>
<path d="M139.231 275.5H132.661V274.522L135.293 271.877C136.095 271.066 136.624 270.487 136.879 270.141C137.134 269.794 137.326 269.457 137.453 269.129C137.581 268.801 137.645 268.448 137.645 268.069C137.645 267.536 137.483 267.115 137.159 266.805C136.836 266.49 136.387 266.333 135.813 266.333C135.398 266.333 135.004 266.401 134.63 266.538C134.261 266.675 133.849 266.923 133.393 267.283L132.791 266.511C133.712 265.745 134.714 265.362 135.799 265.362C136.738 265.362 137.474 265.604 138.007 266.087C138.54 266.565 138.807 267.21 138.807 268.021C138.807 268.655 138.629 269.282 138.274 269.901C137.918 270.521 137.253 271.305 136.278 272.253L134.09 274.393V274.447H139.231V275.5ZM144.898 275.5H143.791V268.377C143.791 267.785 143.809 267.224 143.845 266.695C143.75 266.791 143.643 266.891 143.524 266.996C143.406 267.101 142.863 267.545 141.897 268.329L141.296 267.55L143.941 265.506H144.898V275.5Z" fill="#252A2E"/>
<path d="M156 270C156 261.163 163.163 254 172 254C180.837 254 188 261.163 188 270C188 278.837 180.837 286 172 286C163.163 286 156 278.837 156 270Z" fill="white"/>
<path d="M171.231 275.5H164.661V274.522L167.293 271.877C168.095 271.066 168.624 270.487 168.879 270.141C169.134 269.794 169.326 269.457 169.453 269.129C169.581 268.801 169.645 268.448 169.645 268.069C169.645 267.536 169.483 267.115 169.159 266.805C168.836 266.49 168.387 266.333 167.813 266.333C167.398 266.333 167.004 266.401 166.63 266.538C166.261 266.675 165.849 266.923 165.393 267.283L164.791 266.511C165.712 265.745 166.714 265.362 167.799 265.362C168.738 265.362 169.474 265.604 170.007 266.087C170.54 266.565 170.807 267.21 170.807 268.021C170.807 268.655 170.629 269.282 170.274 269.901C169.918 270.521 169.253 271.305 168.278 272.253L166.09 274.393V274.447H171.231V275.5ZM179.263 275.5H172.694V274.522L175.326 271.877C176.128 271.066 176.657 270.487 176.912 270.141C177.167 269.794 177.358 269.457 177.486 269.129C177.614 268.801 177.677 268.448 177.677 268.069C177.677 267.536 177.516 267.115 177.192 266.805C176.869 266.49 176.42 266.333 175.845 266.333C175.431 266.333 175.037 266.401 174.663 266.538C174.294 266.675 173.881 266.923 173.426 267.283L172.824 266.511C173.745 265.745 174.747 265.362 175.832 265.362C176.771 265.362 177.507 265.604 178.04 266.087C178.573 266.565 178.84 267.21 178.84 268.021C178.84 268.655 178.662 269.282 178.306 269.901C177.951 270.521 177.286 271.305 176.31 272.253L174.123 274.393V274.447H179.263V275.5Z" fill="#252A2E"/>
<path d="M188 270C188 261.163 195.163 254 204 254C212.837 254 220 261.163 220 270C220 278.837 212.837 286 204 286C195.163 286 188 278.837 188 270Z" fill="white"/>
<path d="M203.231 275.5H196.661V274.522L199.293 271.877C200.095 271.066 200.624 270.487 200.879 270.141C201.134 269.794 201.326 269.457 201.453 269.129C201.581 268.801 201.645 268.448 201.645 268.069C201.645 267.536 201.483 267.115 201.159 266.805C200.836 266.49 200.387 266.333 199.813 266.333C199.398 266.333 199.004 266.401 198.63 266.538C198.261 266.675 197.849 266.923 197.393 267.283L196.791 266.511C197.712 265.745 198.714 265.362 199.799 265.362C200.738 265.362 201.474 265.604 202.007 266.087C202.54 266.565 202.807 267.21 202.807 268.021C202.807 268.655 202.629 269.282 202.274 269.901C201.918 270.521 201.253 271.305 200.278 272.253L198.09 274.393V274.447H203.231V275.5ZM210.887 267.857C210.887 268.495 210.707 269.017 210.347 269.423C209.992 269.828 209.486 270.1 208.83 270.236V270.291C209.632 270.391 210.227 270.646 210.614 271.057C211.001 271.467 211.195 272.005 211.195 272.67C211.195 273.622 210.865 274.356 210.204 274.871C209.543 275.382 208.604 275.637 207.387 275.637C206.859 275.637 206.373 275.596 205.931 275.514C205.494 275.436 205.068 275.297 204.653 275.097V274.017C205.086 274.231 205.546 274.395 206.034 274.509C206.526 274.618 206.991 274.673 207.428 274.673C209.156 274.673 210.019 273.996 210.019 272.643C210.019 271.43 209.067 270.824 207.162 270.824H206.177V269.847H207.176C207.955 269.847 208.572 269.676 209.028 269.334C209.484 268.988 209.712 268.509 209.712 267.898C209.712 267.411 209.543 267.028 209.206 266.75C208.873 266.472 208.42 266.333 207.845 266.333C207.408 266.333 206.996 266.392 206.608 266.511C206.221 266.629 205.779 266.848 205.282 267.167L204.708 266.401C205.118 266.078 205.59 265.825 206.123 265.643C206.661 265.456 207.226 265.362 207.818 265.362C208.789 265.362 209.543 265.586 210.081 266.032C210.619 266.474 210.887 267.083 210.887 267.857Z" fill="#252A2E"/>
<path d="M220 270C220 261.163 227.163 254 236 254C244.837 254 252 261.163 252 270C252 278.837 244.837 286 236 286C227.163 286 220 278.837 220 270Z" fill="white"/>
<path d="M235.231 275.5H228.661V274.522L231.293 271.877C232.095 271.066 232.624 270.487 232.879 270.141C233.134 269.794 233.326 269.457 233.453 269.129C233.581 268.801 233.645 268.448 233.645 268.069C233.645 267.536 233.483 267.115 233.159 266.805C232.836 266.49 232.387 266.333 231.813 266.333C231.398 266.333 231.004 266.401 230.63 266.538C230.261 266.675 229.849 266.923 229.393 267.283L228.791 266.511C229.712 265.745 230.714 265.362 231.799 265.362C232.738 265.362 233.474 265.604 234.007 266.087C234.54 266.565 234.807 267.21 234.807 268.021C234.807 268.655 234.629 269.282 234.274 269.901C233.918 270.521 233.253 271.305 232.278 272.253L230.09 274.393V274.447H235.231V275.5ZM243.735 273.203H242.252V275.5H241.165V273.203H236.304V272.212L241.049 265.451H242.252V272.171H243.735V273.203ZM241.165 272.171V268.849C241.165 268.197 241.188 267.461 241.233 266.641H241.178C240.96 267.078 240.755 267.44 240.563 267.728L237.439 272.171H241.165Z" fill="#252A2E"/>
<path d="M28 302C28 293.163 35.1634 286 44 286C52.8366 286 60 293.163 60 302C60 310.837 52.8366 318 44 318C35.1634 318 28 310.837 28 302Z" fill="white"/>
<path d="M43.2307 307.5H36.6614V306.522L39.2932 303.877C40.0953 303.066 40.6239 302.487 40.8791 302.141C41.1344 301.794 41.3258 301.457 41.4534 301.129C41.581 300.801 41.6448 300.448 41.6448 300.069C41.6448 299.536 41.483 299.115 41.1594 298.805C40.8359 298.49 40.387 298.333 39.8127 298.333C39.398 298.333 39.0038 298.401 38.6301 298.538C38.261 298.675 37.8485 298.923 37.3928 299.283L36.7913 298.511C37.7118 297.745 38.7144 297.362 39.7991 297.362C40.7379 297.362 41.4739 297.604 42.0071 298.087C42.5403 298.565 42.8069 299.21 42.8069 300.021C42.8069 300.655 42.6291 301.282 42.2737 301.901C41.9182 302.521 41.2528 303.305 40.2776 304.253L38.0901 306.393V306.447H43.2307V307.5ZM47.8181 301.396C48.8709 301.396 49.698 301.658 50.2996 302.182C50.9057 302.701 51.2087 303.414 51.2087 304.321C51.2087 305.356 50.8783 306.167 50.2175 306.755C49.5613 307.343 48.6544 307.637 47.4968 307.637C46.3712 307.637 45.5121 307.457 44.9197 307.097V306.003C45.2387 306.208 45.6352 306.37 46.1091 306.488C46.5831 306.602 47.0502 306.659 47.5105 306.659C48.3126 306.659 48.9347 306.47 49.3767 306.092C49.8233 305.714 50.0466 305.167 50.0466 304.451C50.0466 303.057 49.1921 302.359 47.4832 302.359C47.0502 302.359 46.4714 302.425 45.7468 302.558L45.1589 302.182L45.5349 297.506H50.5046V298.552H46.5056L46.2527 301.553C46.7768 301.448 47.2986 301.396 47.8181 301.396Z" fill="#252A2E"/>
<path d="M60 302C60 293.163 67.1634 286 76 286C84.8366 286 92 293.163 92 302C92 310.837 84.8366 318 76 318C67.1634 318 60 310.837 60 302Z" fill="white"/>
<path d="M75.2307 307.5H68.6614V306.522L71.2932 303.877C72.0953 303.066 72.6239 302.487 72.8791 302.141C73.1344 301.794 73.3258 301.457 73.4534 301.129C73.581 300.801 73.6448 300.448 73.6448 300.069C73.6448 299.536 73.483 299.115 73.1594 298.805C72.8359 298.49 72.387 298.333 71.8127 298.333C71.398 298.333 71.0038 298.401 70.6301 298.538C70.261 298.675 69.8485 298.923 69.3928 299.283L68.7913 298.511C69.7118 297.745 70.7144 297.362 71.7991 297.362C72.7379 297.362 73.4739 297.604 74.0071 298.087C74.5403 298.565 74.8069 299.21 74.8069 300.021C74.8069 300.655 74.6291 301.282 74.2737 301.901C73.9182 302.521 73.2528 303.305 72.2776 304.253L70.0901 306.393V306.447H75.2307V307.5ZM76.8103 303.228C76.8103 301.263 77.1908 299.796 77.9519 298.825C78.7175 297.85 79.8477 297.362 81.3425 297.362C81.8575 297.362 82.2631 297.406 82.5593 297.492V298.47C82.2084 298.356 81.8074 298.299 81.3562 298.299C80.2852 298.299 79.4672 298.634 78.9021 299.304C78.337 299.969 78.0271 301.017 77.9724 302.448H78.0544C78.5557 301.664 79.3487 301.272 80.4334 301.272C81.3311 301.272 82.0375 301.544 82.5525 302.086C83.072 302.628 83.3318 303.364 83.3318 304.294C83.3318 305.333 83.047 306.151 82.4773 306.748C81.9122 307.34 81.1466 307.637 80.1804 307.637C79.1459 307.637 78.3256 307.249 77.7195 306.475C77.1134 305.695 76.8103 304.613 76.8103 303.228ZM80.1667 306.673C80.8139 306.673 81.3152 306.47 81.6707 306.064C82.0307 305.654 82.2107 305.064 82.2107 304.294C82.2107 303.633 82.0444 303.114 81.7117 302.735C81.379 302.357 80.8822 302.168 80.2214 302.168C79.8113 302.168 79.4353 302.252 79.0935 302.421C78.7517 302.59 78.4783 302.822 78.2732 303.118C78.0727 303.414 77.9724 303.722 77.9724 304.041C77.9724 304.51 78.0636 304.948 78.2459 305.354C78.4281 305.759 78.6856 306.08 79.0183 306.317C79.3556 306.554 79.7384 306.673 80.1667 306.673Z" fill="#252A2E"/>
<path d="M92 302C92 293.163 99.1634 286 108 286C116.837 286 124 293.163 124 302C124 310.837 116.837 318 108 318C99.1634 318 92 310.837 92 302Z" fill="white"/>
<path d="M107.231 307.5H100.661V306.522L103.293 303.877C104.095 303.066 104.624 302.487 104.879 302.141C105.134 301.794 105.326 301.457 105.453 301.129C105.581 300.801 105.645 300.448 105.645 300.069C105.645 299.536 105.483 299.115 105.159 298.805C104.836 298.49 104.387 298.333 103.813 298.333C103.398 298.333 103.004 298.401 102.63 298.538C102.261 298.675 101.849 298.923 101.393 299.283L100.791 298.511C101.712 297.745 102.714 297.362 103.799 297.362C104.738 297.362 105.474 297.604 106.007 298.087C106.54 298.565 106.807 299.21 106.807 300.021C106.807 300.655 106.629 301.282 106.274 301.901C105.918 302.521 105.253 303.305 104.278 304.253L102.09 306.393V306.447H107.231V307.5ZM109.959 307.5L114.101 298.552H108.653V297.506H115.304V298.415L111.217 307.5H109.959Z" fill="#252A2E"/>
<path d="M124 302C124 293.163 131.163 286 140 286C148.837 286 156 293.163 156 302C156 310.837 148.837 318 140 318C131.163 318 124 310.837 124 302Z" fill="white"/>
<path d="M139.231 307.5H132.661V306.522L135.293 303.877C136.095 303.066 136.624 302.487 136.879 302.141C137.134 301.794 137.326 301.457 137.453 301.129C137.581 300.801 137.645 300.448 137.645 300.069C137.645 299.536 137.483 299.115 137.159 298.805C136.836 298.49 136.387 298.333 135.813 298.333C135.398 298.333 135.004 298.401 134.63 298.538C134.261 298.675 133.849 298.923 133.393 299.283L132.791 298.511C133.712 297.745 134.714 297.362 135.799 297.362C136.738 297.362 137.474 297.604 138.007 298.087C138.54 298.565 138.807 299.21 138.807 300.021C138.807 300.655 138.629 301.282 138.274 301.901C137.918 302.521 137.253 303.305 136.278 304.253L134.09 306.393V306.447H139.231V307.5ZM144.003 297.362C144.914 297.362 145.636 297.574 146.17 297.998C146.703 298.422 146.969 299.007 146.969 299.755C146.969 300.247 146.817 300.696 146.511 301.102C146.206 301.507 145.719 301.876 145.049 302.209C145.86 302.596 146.436 303.004 146.778 303.433C147.12 303.856 147.291 304.349 147.291 304.909C147.291 305.739 147.001 306.402 146.423 306.898C145.844 307.391 145.051 307.637 144.044 307.637C142.977 307.637 142.157 307.404 141.583 306.939C141.009 306.47 140.721 305.807 140.721 304.95C140.721 303.806 141.419 302.915 142.813 302.277C142.184 301.922 141.733 301.539 141.46 301.129C141.186 300.714 141.05 300.252 141.05 299.741C141.05 299.017 141.316 298.44 141.849 298.012C142.387 297.579 143.105 297.362 144.003 297.362ZM141.843 304.978C141.843 305.524 142.032 305.951 142.41 306.256C142.793 306.561 143.328 306.714 144.016 306.714C144.695 306.714 145.224 306.554 145.602 306.235C145.981 305.916 146.17 305.479 146.17 304.923C146.17 304.481 145.992 304.089 145.636 303.747C145.281 303.401 144.661 303.066 143.777 302.742C143.098 303.034 142.606 303.357 142.301 303.713C141.995 304.064 141.843 304.485 141.843 304.978ZM143.989 298.285C143.419 298.285 142.973 298.422 142.649 298.695C142.326 298.969 142.164 299.333 142.164 299.789C142.164 300.208 142.298 300.568 142.567 300.869C142.836 301.17 143.333 301.471 144.057 301.771C144.709 301.498 145.169 301.204 145.438 300.89C145.712 300.575 145.848 300.208 145.848 299.789C145.848 299.329 145.682 298.964 145.349 298.695C145.021 298.422 144.568 298.285 143.989 298.285Z" fill="#252A2E"/>
<path d="M156 302C156 293.163 163.163 286 172 286C180.837 286 188 293.163 188 302C188 310.837 180.837 318 172 318C163.163 318 156 310.837 156 302Z" fill="white"/>
<path d="M171.231 307.5H164.661V306.522L167.293 303.877C168.095 303.066 168.624 302.487 168.879 302.141C169.134 301.794 169.326 301.457 169.453 301.129C169.581 300.801 169.645 300.448 169.645 300.069C169.645 299.536 169.483 299.115 169.159 298.805C168.836 298.49 168.387 298.333 167.813 298.333C167.398 298.333 167.004 298.401 166.63 298.538C166.261 298.675 165.849 298.923 165.393 299.283L164.791 298.511C165.712 297.745 166.714 297.362 167.799 297.362C168.738 297.362 169.474 297.604 170.007 298.087C170.54 298.565 170.807 299.21 170.807 300.021C170.807 300.655 170.629 301.282 170.274 301.901C169.918 302.521 169.253 303.305 168.278 304.253L166.09 306.393V306.447H171.231V307.5ZM179.263 301.771C179.263 305.682 177.75 307.637 174.724 307.637C174.196 307.637 173.776 307.591 173.467 307.5V306.522C173.831 306.641 174.246 306.7 174.711 306.7C175.804 306.7 176.629 306.363 177.185 305.688C177.746 305.009 178.051 303.97 178.101 302.571H178.019C177.769 302.95 177.436 303.239 177.021 303.439C176.607 303.635 176.139 303.733 175.62 303.733C174.736 303.733 174.034 303.469 173.514 302.94C172.995 302.412 172.735 301.674 172.735 300.726C172.735 299.687 173.024 298.866 173.603 298.265C174.187 297.663 174.952 297.362 175.9 297.362C176.579 297.362 177.172 297.538 177.677 297.889C178.188 298.235 178.58 298.743 178.853 299.413C179.127 300.078 179.263 300.865 179.263 301.771ZM175.9 298.333C175.248 298.333 174.745 298.543 174.389 298.962C174.034 299.381 173.856 299.965 173.856 300.712C173.856 301.368 174.02 301.885 174.348 302.264C174.677 302.637 175.176 302.824 175.845 302.824C176.26 302.824 176.641 302.74 176.987 302.571C177.338 302.403 177.614 302.173 177.814 301.881C178.015 301.589 178.115 301.284 178.115 300.965C178.115 300.486 178.022 300.044 177.835 299.639C177.648 299.233 177.386 298.914 177.049 298.682C176.716 298.449 176.333 298.333 175.9 298.333Z" fill="#252A2E"/>
<path d="M188 302C188 293.163 195.163 286 204 286C212.837 286 220 293.163 220 302C220 310.837 212.837 318 204 318C195.163 318 188 310.837 188 302Z" fill="white"/>
<path d="M202.855 299.857C202.855 300.495 202.675 301.017 202.315 301.423C201.959 301.828 201.453 302.1 200.797 302.236V302.291C201.599 302.391 202.194 302.646 202.581 303.057C202.969 303.467 203.162 304.005 203.162 304.67C203.162 305.622 202.832 306.356 202.171 306.871C201.51 307.382 200.572 307.637 199.355 307.637C198.826 307.637 198.341 307.596 197.899 307.514C197.461 307.436 197.035 307.297 196.62 307.097V306.017C197.053 306.231 197.514 306.395 198.001 306.509C198.493 306.618 198.958 306.673 199.396 306.673C201.123 306.673 201.987 305.996 201.987 304.643C201.987 303.43 201.034 302.824 199.129 302.824H198.145V301.847H199.143C199.922 301.847 200.54 301.676 200.995 301.334C201.451 300.988 201.679 300.509 201.679 299.898C201.679 299.411 201.51 299.028 201.173 298.75C200.84 298.472 200.387 298.333 199.813 298.333C199.375 298.333 198.963 298.392 198.575 298.511C198.188 298.629 197.746 298.848 197.249 299.167L196.675 298.401C197.085 298.078 197.557 297.825 198.09 297.643C198.628 297.456 199.193 297.362 199.785 297.362C200.756 297.362 201.51 297.586 202.048 298.032C202.586 298.474 202.855 299.083 202.855 299.857ZM211.318 302.489C211.318 304.216 211.045 305.506 210.498 306.358C209.955 307.211 209.124 307.637 208.003 307.637C206.927 307.637 206.109 307.201 205.549 306.331C204.988 305.456 204.708 304.175 204.708 302.489C204.708 300.748 204.979 299.456 205.521 298.613C206.064 297.77 206.891 297.349 208.003 297.349C209.087 297.349 209.91 297.788 210.47 298.668C211.036 299.548 211.318 300.821 211.318 302.489ZM205.856 302.489C205.856 303.943 206.027 305.003 206.369 305.668C206.711 306.329 207.255 306.659 208.003 306.659C208.759 306.659 209.306 306.324 209.643 305.654C209.985 304.98 210.156 303.925 210.156 302.489C210.156 301.054 209.985 300.003 209.643 299.338C209.306 298.668 208.759 298.333 208.003 298.333C207.255 298.333 206.711 298.663 206.369 299.324C206.027 299.98 205.856 301.035 205.856 302.489Z" fill="#252A2E"/>
<path d="M220 302C220 293.163 227.163 286 236 286C244.837 286 252 293.163 252 302C252 310.837 244.837 318 236 318C227.163 318 220 310.837 220 302Z" fill="white"/>
<path d="M236.882 307.5H235.774V300.377C235.774 299.785 235.793 299.224 235.829 298.695C235.733 298.791 235.626 298.891 235.508 298.996C235.389 299.101 234.847 299.545 233.881 300.329L233.279 299.55L235.925 297.506H236.882V307.5Z" fill="#252A2E" fill-opacity="0.3"/>
<path d="M28 334C28 325.163 35.1634 318 44 318C52.8366 318 60 325.163 60 334C60 342.837 52.8366 350 44 350C35.1634 350 28 342.837 28 334Z" fill="white"/>
<path d="M47.2471 339.5H40.6777V338.522L43.3096 335.877C44.1117 335.066 44.6403 334.487 44.8955 334.141C45.1507 333.794 45.3421 333.457 45.4697 333.129C45.5973 332.801 45.6611 332.448 45.6611 332.069C45.6611 331.536 45.4993 331.115 45.1758 330.805C44.8522 330.49 44.4033 330.333 43.8291 330.333C43.4144 330.333 43.0202 330.401 42.6465 330.538C42.2773 330.675 41.8649 330.923 41.4092 331.283L40.8076 330.511C41.7282 329.745 42.7308 329.362 43.8154 329.362C44.7542 329.362 45.4902 329.604 46.0234 330.087C46.5566 330.565 46.8232 331.21 46.8232 332.021C46.8232 332.655 46.6455 333.282 46.29 333.901C45.9346 334.521 45.2692 335.305 44.2939 336.253L42.1064 338.393V338.447H47.2471V339.5Z" fill="#252A2E" fill-opacity="0.3"/>
<path d="M60 334C60 325.163 67.1634 318 76 318C84.8366 318 92 325.163 92 334C92 342.837 84.8366 350 76 350C67.1634 350 60 342.837 60 334Z" fill="white"/>
<path d="M78.8711 331.857C78.8711 332.495 78.6911 333.017 78.3311 333.423C77.9756 333.828 77.4697 334.1 76.8135 334.236V334.291C77.6156 334.391 78.2103 334.646 78.5977 335.057C78.985 335.467 79.1787 336.005 79.1787 336.67C79.1787 337.622 78.8483 338.356 78.1875 338.871C77.5267 339.382 76.5879 339.637 75.3711 339.637C74.8424 339.637 74.3571 339.596 73.915 339.514C73.4775 339.436 73.0514 339.297 72.6367 339.097V338.017C73.0697 338.231 73.5299 338.395 74.0176 338.509C74.5098 338.618 74.9746 338.673 75.4121 338.673C77.1393 338.673 78.0029 337.996 78.0029 336.643C78.0029 335.43 77.0505 334.824 75.1455 334.824H74.1611V333.847H75.1592C75.9385 333.847 76.556 333.676 77.0117 333.334C77.4674 332.988 77.6953 332.509 77.6953 331.898C77.6953 331.411 77.5267 331.028 77.1895 330.75C76.8568 330.472 76.4033 330.333 75.8291 330.333C75.3916 330.333 74.9792 330.392 74.5918 330.511C74.2044 330.629 73.7624 330.848 73.2656 331.167L72.6914 330.401C73.1016 330.078 73.5732 329.825 74.1064 329.643C74.6442 329.456 75.2093 329.362 75.8018 329.362C76.7725 329.362 77.5267 329.586 78.0645 330.032C78.6022 330.474 78.8711 331.083 78.8711 331.857Z" fill="#252A2E" fill-opacity="0.3"/>
<path d="M92 334C92 325.163 99.1634 318 108 318C116.837 318 124 325.163 124 334C124 342.837 116.837 350 108 350C99.1634 350 92 342.837 92 334Z" fill="white"/>
<path d="M111.719 337.203H110.235V339.5H109.148V337.203H104.288V336.212L109.032 329.451H110.235V336.171H111.719V337.203ZM109.148 336.171V332.849C109.148 332.197 109.171 331.461 109.217 330.641H109.162C108.943 331.078 108.738 331.44 108.547 331.728L105.423 336.171H109.148Z" fill="#252A2E" fill-opacity="0.3"/>
<path d="M124 334C124 325.163 131.163 318 140 318C148.837 318 156 325.163 156 334C156 342.837 148.837 350 140 350C131.163 350 124 342.837 124 334Z" fill="white"/>
<path opacity="0.5" d="M139.802 333.396C140.854 333.396 141.682 333.658 142.283 334.182C142.889 334.701 143.192 335.414 143.192 336.321C143.192 337.356 142.862 338.167 142.201 338.755C141.545 339.343 140.638 339.637 139.48 339.637C138.355 339.637 137.496 339.457 136.903 339.097V338.003C137.222 338.208 137.619 338.37 138.093 338.488C138.567 338.602 139.034 338.659 139.494 338.659C140.296 338.659 140.918 338.47 141.36 338.092C141.807 337.714 142.03 337.167 142.03 336.451C142.03 335.057 141.176 334.359 139.467 334.359C139.034 334.359 138.455 334.425 137.73 334.558L137.143 334.182L137.519 329.506H142.488V330.552H138.489L138.236 333.553C138.76 333.448 139.282 333.396 139.802 333.396Z" fill="#252A2E" fill-opacity="0.3"/>
<path d="M156 334C156 325.163 163.163 318 172 318C180.837 318 188 325.163 188 334C188 342.837 180.837 350 172 350C163.163 350 156 342.837 156 334Z" fill="white"/>
<path d="M168.794 335.228C168.794 333.263 169.174 331.796 169.936 330.825C170.701 329.85 171.831 329.362 173.326 329.362C173.841 329.362 174.247 329.406 174.543 329.492V330.47C174.192 330.356 173.791 330.299 173.34 330.299C172.269 330.299 171.451 330.634 170.886 331.304C170.321 331.969 170.011 333.017 169.956 334.448H170.038C170.539 333.664 171.332 333.272 172.417 333.272C173.315 333.272 174.021 333.544 174.536 334.086C175.056 334.628 175.315 335.364 175.315 336.294C175.315 337.333 175.031 338.151 174.461 338.748C173.896 339.34 173.13 339.637 172.164 339.637C171.13 339.637 170.309 339.249 169.703 338.475C169.097 337.695 168.794 336.613 168.794 335.228ZM172.15 338.673C172.798 338.673 173.299 338.47 173.654 338.064C174.014 337.654 174.194 337.064 174.194 336.294C174.194 335.633 174.028 335.114 173.695 334.735C173.363 334.357 172.866 334.168 172.205 334.168C171.795 334.168 171.419 334.252 171.077 334.421C170.735 334.59 170.462 334.822 170.257 335.118C170.056 335.414 169.956 335.722 169.956 336.041C169.956 336.51 170.047 336.948 170.229 337.354C170.412 337.759 170.669 338.08 171.002 338.317C171.339 338.554 171.722 338.673 172.15 338.673Z" fill="#252A2E" fill-opacity="0.3"/>
<path d="M188 334C188 325.163 195.163 318 204 318C212.837 318 220 325.163 220 334C220 342.837 212.837 350 204 350C195.163 350 188 342.837 188 334Z" fill="white"/>
<path d="M201.942 339.5L206.085 330.552H200.637V329.506H207.288V330.415L203.2 339.5H201.942Z" fill="#252A2E" fill-opacity="0.3"/>
<path d="M220 334C220 325.163 227.163 318 236 318C244.837 318 252 325.163 252 334C252 342.837 244.837 350 236 350C227.163 350 220 342.837 220 334Z" fill="white"/>
<path d="M235.986 329.362C236.898 329.362 237.62 329.574 238.153 329.998C238.687 330.422 238.953 331.007 238.953 331.755C238.953 332.247 238.8 332.696 238.495 333.102C238.19 333.507 237.702 333.876 237.032 334.209C237.843 334.596 238.42 335.004 238.762 335.433C239.104 335.856 239.274 336.349 239.274 336.909C239.274 337.739 238.985 338.402 238.406 338.898C237.827 339.391 237.035 339.637 236.027 339.637C234.961 339.637 234.141 339.404 233.566 338.939C232.992 338.47 232.705 337.807 232.705 336.95C232.705 335.806 233.402 334.915 234.797 334.277C234.168 333.922 233.717 333.539 233.443 333.129C233.17 332.714 233.033 332.252 233.033 331.741C233.033 331.017 233.3 330.44 233.833 330.012C234.371 329.579 235.089 329.362 235.986 329.362ZM233.826 336.978C233.826 337.524 234.015 337.951 234.394 338.256C234.776 338.561 235.312 338.714 236 338.714C236.679 338.714 237.208 338.554 237.586 338.235C237.964 337.916 238.153 337.479 238.153 336.923C238.153 336.481 237.976 336.089 237.62 335.747C237.265 335.401 236.645 335.066 235.761 334.742C235.082 335.034 234.59 335.357 234.284 335.713C233.979 336.064 233.826 336.485 233.826 336.978ZM235.973 330.285C235.403 330.285 234.956 330.422 234.633 330.695C234.309 330.969 234.147 331.333 234.147 331.789C234.147 332.208 234.282 332.568 234.551 332.869C234.82 333.17 235.316 333.471 236.041 333.771C236.693 333.498 237.153 333.204 237.422 332.89C237.695 332.575 237.832 332.208 237.832 331.789C237.832 331.329 237.666 330.964 237.333 330.695C237.005 330.422 236.551 330.285 235.973 330.285Z" fill="#252A2E" fill-opacity="0.3"/>
</g>
<defs>
<filter id="filter0_d_43648_22904" x="0" y="62" width="280" height="320" filterUnits="userSpaceOnUse" color-interpolation-filters="sRGB">
<feFlood flood-opacity="0" result="BackgroundImageFix"/>
<feColorMatrix in="SourceAlpha" type="matrix" values="0 0 0 0 0 0 0 0 0 0 0 0 0 0 0 0 0 0 127 0" result="hardAlpha"/>
<feOffset dy="4"/>
<feGaussianBlur stdDeviation="2"/>
<feComposite in2="hardAlpha" operator="out"/>
<feColorMatrix type="matrix" values="0 0 0 0 0 0 0 0 0 0 0 0 0 0 0 0 0 0 0.25 0"/>
<feBlend mode="normal" in2="BackgroundImageFix" result="effect1_dropShadow_43648_22904"/>
<feBlend mode="normal" in="SourceGraphic" in2="effect1_dropShadow_43648_22904" result="shape"/>
</filter>
</defs>
</svg>
