<svg width="2552" height="809" fill="none" xmlns="http://www.w3.org/2000/svg"><path fill="#252A2E" d="M0 0h2552v809H0z"/><path fill="#252A2E" fill-opacity=".4" d="M320 245h778v318H320z"/><mask id="prefix__a" style="mask-type:alpha" maskUnits="userSpaceOnUse" x="689" y="371" width="40" height="27"><path d="M721.25 381.067C720.117 375.317 715.067 371 709 371c-4.817 0-9 2.733-11.083 6.733a9.991 9.991 0 00-8.917 9.934c0 5.516 4.483 10 10 10h21.667c4.6 0 8.333-3.734 8.333-8.334 0-4.4-3.417-7.966-7.75-8.266zM712.333 386v6.667h-6.666V386h-5l8.333-8.333 8.333 8.333h-5z" fill="#fff"/></mask><g mask="url(#prefix__a)"><path d="M721.25 381.067C720.117 375.317 715.067 371 709 371c-4.817 0-9 2.733-11.083 6.733a9.991 9.991 0 00-8.917 9.934c0 5.516 4.483 10 10 10h21.667c4.6 0 8.333-3.734 8.333-8.334 0-4.4-3.417-7.966-7.75-8.266zM712.333 386v6.667h-6.666V386h-5l8.333-8.333 8.333 8.333h-5z" fill="#fff"/></g><path d="M554.193 432.725c0 2.356-.641 4.16-1.924 5.41-1.276 1.243-3.115 1.865-5.517 1.865h-3.955v-14.277h4.375c2.22 0 3.945.615 5.175 1.845 1.231 1.231 1.846 2.95 1.846 5.157zm-1.758.058c0-1.862-.468-3.265-1.406-4.209-.931-.944-2.318-1.416-4.16-1.416h-2.412v11.406h2.021c1.979 0 3.467-.485 4.463-1.455.996-.976 1.494-2.418 1.494-4.326zm9.62-3.681c.475 0 .902.039 1.279.117l-.224 1.504a5.503 5.503 0 00-1.172-.147c-.866 0-1.608.352-2.227 1.055-.612.703-.918 1.579-.918 2.627V440h-1.621v-10.703h1.338l.186 1.982h.078c.397-.696.876-1.233 1.435-1.611a3.23 3.23 0 011.846-.566zM571.948 440l-.322-1.523h-.078c-.534.67-1.068 1.126-1.602 1.367-.527.234-1.188.351-1.982.351-1.061 0-1.894-.273-2.5-.82-.599-.547-.898-1.325-.898-2.334 0-2.161 1.728-3.294 5.185-3.398l1.817-.059v-.664c0-.84-.183-1.458-.547-1.856-.358-.403-.935-.605-1.729-.605-.892 0-1.901.273-3.027.82l-.498-1.24a7.66 7.66 0 011.728-.674 7.557 7.557 0 011.895-.244c1.276 0 2.22.283 2.832.85.618.566.928 1.474.928 2.724V440h-1.202zm-3.662-1.143c1.009 0 1.8-.276 2.373-.83.58-.553.87-1.328.87-2.324v-.967l-1.622.069c-1.289.045-2.22.247-2.793.605-.566.352-.849.902-.849 1.651 0 .585.176 1.031.527 1.337.358.306.856.459 1.494.459zm17.003-9.56v1.025l-1.982.235c.182.228.345.527.488.898.143.365.215.778.215 1.24 0 1.048-.358 1.885-1.075 2.51-.716.625-1.699.938-2.949.938-.319 0-.618-.026-.898-.079-.69.365-1.035.824-1.035 1.377 0 .293.12.511.361.655.241.136.654.205 1.24.205h1.895c1.159 0 2.047.244 2.666.732.625.488.937 1.198.937 2.129 0 1.185-.475 2.087-1.426 2.705-.95.625-2.337.938-4.16.938-1.399 0-2.48-.261-3.242-.782-.755-.52-1.133-1.256-1.133-2.207 0-.651.209-1.214.625-1.689.417-.475 1.003-.798 1.758-.967a1.74 1.74 0 01-.693-.576 1.538 1.538 0 01-.274-.908c0-.391.105-.733.313-1.026.208-.293.537-.576.986-.849-.553-.228-1.006-.615-1.357-1.162-.345-.547-.518-1.172-.518-1.875 0-1.172.352-2.074 1.055-2.705.703-.638 1.699-.957 2.988-.957.56 0 1.065.065 1.514.195h3.701zm-8.535 12.5c0 .579.244 1.019.732 1.318.489.3 1.188.449 2.1.449 1.361 0 2.366-.205 3.017-.615.658-.403.987-.954.987-1.65 0-.58-.179-.983-.537-1.211-.358-.221-1.032-.332-2.022-.332h-1.943c-.736 0-1.309.176-1.719.527-.41.352-.615.856-.615 1.514zm.879-9.072c0 .748.211 1.315.635 1.699.423.384 1.012.576 1.767.576 1.582 0 2.373-.768 2.373-2.305 0-1.608-.801-2.412-2.402-2.412-.762 0-1.348.205-1.758.615-.41.411-.615 1.019-.615 1.827zm19.933-2.168h-2.725V440h-1.621v-9.443h-1.914v-.733l1.914-.586v-.595c0-2.631 1.149-3.946 3.447-3.946.567 0 1.231.114 1.993.342l-.42 1.299c-.625-.202-1.159-.303-1.602-.303-.612 0-1.064.205-1.357.615-.293.404-.44 1.055-.44 1.954v.693h2.725v1.26zM601.14 440h-1.621v-10.703h1.621V440zm-1.758-13.604c0-.371.091-.641.274-.81a.944.944 0 01.683-.264c.261 0 .485.088.674.264.189.176.283.446.283.81 0 .365-.094.639-.283.821a.953.953 0 01-.674.263.943.943 0 01-.683-.263c-.183-.182-.274-.456-.274-.821zM606.229 440h-1.621v-15.195h1.621V440zm7.989.195c-1.582 0-2.832-.481-3.75-1.445-.912-.964-1.368-2.301-1.368-4.014 0-1.725.424-3.095 1.27-4.111.853-1.016 1.995-1.523 3.428-1.523 1.341 0 2.402.442 3.183 1.328.782.879 1.172 2.041 1.172 3.486v1.025h-7.373c.033 1.257.348 2.211.947 2.862.606.651 1.455.976 2.549.976a8.63 8.63 0 003.418-.722v1.445a8.289 8.289 0 01-1.631.527c-.508.111-1.123.166-1.845.166zm-.44-9.736c-.859 0-1.546.28-2.06.84-.508.56-.808 1.334-.899 2.324h5.596c0-1.022-.228-1.803-.684-2.344-.455-.547-1.107-.82-1.953-.82zm14.083 6.621c0 .996-.371 1.764-1.113 2.305-.743.54-1.784.81-3.125.81-1.42 0-2.526-.224-3.321-.674v-1.503c.515.26 1.065.465 1.651.615.592.15 1.162.224 1.709.224.846 0 1.497-.133 1.953-.4.456-.273.683-.687.683-1.24 0-.417-.182-.772-.547-1.065-.358-.299-1.061-.651-2.109-1.054-.996-.371-1.706-.694-2.129-.967-.416-.28-.729-.596-.937-.947-.202-.352-.303-.772-.303-1.26 0-.873.355-1.559 1.064-2.061.71-.508 1.683-.761 2.92-.761 1.153 0 2.279.234 3.379.703l-.576 1.318c-1.074-.443-2.047-.664-2.92-.664-.768 0-1.347.12-1.738.361s-.586.573-.586.996c0 .287.072.531.215.733.15.202.387.394.713.576.325.182.95.446 1.875.791 1.269.462 2.125.928 2.568 1.396.449.469.674 1.058.674 1.768zm15.226 2.92v-6.924c0-.872-.199-1.523-.596-1.953-.397-.43-1.019-.644-1.865-.644-1.126 0-1.95.306-2.471.917-.514.612-.771 1.615-.771 3.008V440h-1.621v-15.195h1.621v4.599c0 .554-.026 1.013-.078 1.377h.097c.319-.514.772-.918 1.358-1.211.592-.299 1.266-.449 2.021-.449 1.309 0 2.289.313 2.94.938.657.618.986 1.604.986 2.959V440h-1.621zm9.512.195c-1.582 0-2.832-.481-3.75-1.445-.911-.964-1.367-2.301-1.367-4.014 0-1.725.423-3.095 1.27-4.111.853-1.016 1.995-1.523 3.427-1.523 1.342 0 2.403.442 3.184 1.328.781.879 1.172 2.041 1.172 3.486v1.025h-7.373c.032 1.257.348 2.211.947 2.862.606.651 1.455.976 2.549.976a8.634 8.634 0 003.418-.722v1.445a8.31 8.31 0 01-1.631.527c-.508.111-1.123.166-1.846.166zm-.439-9.736c-.86 0-1.546.28-2.061.84-.508.56-.807 1.334-.898 2.324h5.596c0-1.022-.228-1.803-.684-2.344-.456-.547-1.107-.82-1.953-.82zm12.061-1.357c.475 0 .902.039 1.279.117l-.224 1.504a5.511 5.511 0 00-1.172-.147c-.866 0-1.608.352-2.227 1.055-.612.703-.918 1.579-.918 2.627V440h-1.621v-10.703h1.338l.186 1.982h.078c.397-.696.876-1.233 1.435-1.611a3.23 3.23 0 011.846-.566zm7.833 11.093c-1.582 0-2.832-.481-3.75-1.445-.912-.964-1.367-2.301-1.367-4.014 0-1.725.423-3.095 1.269-4.111.853-1.016 1.996-1.523 3.428-1.523 1.341 0 2.402.442 3.184 1.328.781.879 1.171 2.041 1.171 3.486v1.025h-7.373c.033 1.257.349 2.211.948 2.862.605.651 1.455.976 2.548.976a8.63 8.63 0 003.418-.722v1.445a8.302 8.302 0 01-1.63.527c-.508.111-1.124.166-1.846.166zm-.44-9.736c-.859 0-1.546.28-2.06.84-.508.56-.807 1.334-.899 2.324h5.596c0-1.022-.228-1.803-.683-2.344-.456-.547-1.107-.82-1.954-.82zm21.642 4.18c0 1.744-.439 3.108-1.318 4.091-.879.977-2.093 1.465-3.643 1.465-.957 0-1.806-.224-2.548-.674-.743-.449-1.315-1.093-1.719-1.933-.404-.84-.606-1.823-.606-2.949 0-1.745.437-3.103 1.309-4.073.872-.976 2.083-1.464 3.633-1.464 1.497 0 2.685.498 3.564 1.494.886.996 1.328 2.343 1.328 4.043zm-8.154 0c0 1.367.274 2.409.82 3.125.547.716 1.351 1.074 2.413 1.074 1.061 0 1.865-.355 2.412-1.065.553-.716.83-1.761.83-3.134 0-1.361-.277-2.393-.83-3.096-.547-.71-1.358-1.064-2.432-1.064-1.061 0-1.862.348-2.402 1.044-.541.697-.811 1.735-.811 3.116zm15.919-5.537c.475 0 .901.039 1.279.117l-.225 1.504a5.495 5.495 0 00-1.171-.147c-.866 0-1.608.352-2.227 1.055-.612.703-.918 1.579-.918 2.627V440h-1.621v-10.703h1.338l.185 1.982h.079c.397-.696.875-1.233 1.435-1.611a3.228 3.228 0 011.846-.566zm86.266 9.755c.286 0 .563-.019.83-.058.267-.046.478-.091.635-.137v1.24c-.176.085-.436.153-.782.205a5.38 5.38 0 01-.918.088c-2.07 0-3.105-1.09-3.105-3.271v-6.367h-1.533v-.782l1.533-.673.684-2.286h.937v2.481h3.106v1.26h-3.106v6.298c0 .645.153 1.14.459 1.485.306.345.726.517 1.26.517zm12.881-4.218c0 1.744-.439 3.108-1.318 4.091-.879.977-2.093 1.465-3.642 1.465-.958 0-1.807-.224-2.549-.674-.742-.449-1.315-1.093-1.719-1.933-.404-.84-.606-1.823-.606-2.949 0-1.745.437-3.103 1.309-4.073.872-.976 2.083-1.464 3.633-1.464 1.497 0 2.685.498 3.564 1.494.886.996 1.328 2.343 1.328 4.043zm-8.154 0c0 1.367.274 2.409.82 3.125.547.716 1.351 1.074 2.413 1.074 1.061 0 1.865-.355 2.412-1.065.553-.716.83-1.761.83-3.134 0-1.361-.277-2.393-.83-3.096-.547-.71-1.358-1.064-2.432-1.064-1.061 0-1.862.348-2.402 1.044-.541.697-.811 1.735-.811 3.116zm17.785-5.342v6.943c0 .873.198 1.524.595 1.953.398.43 1.019.645 1.866.645 1.119 0 1.937-.306 2.451-.918.521-.612.781-1.611.781-2.998v-5.625h1.621V440h-1.338l-.234-1.436h-.088a3.22 3.22 0 01-1.387 1.211c-.586.28-1.256.42-2.011.42-1.302 0-2.279-.309-2.93-.927-.645-.619-.967-1.608-.967-2.969v-7.002h1.641zm15.772 10.898a4.713 4.713 0 01-1.914-.381 3.626 3.626 0 01-1.445-1.191h-.118c.078.625.118 1.217.118 1.777v4.405h-1.622v-15.508h1.319l.224 1.465h.079c.416-.586.901-1.009 1.455-1.27.553-.26 1.188-.39 1.904-.39 1.419 0 2.513.485 3.281 1.455.775.97 1.162 2.33 1.162 4.082 0 1.757-.394 3.125-1.181 4.101-.782.97-1.869 1.455-3.262 1.455zm-.234-9.716c-1.094 0-1.885.302-2.373.908-.489.605-.739 1.569-.752 2.89v.362c0 1.504.25 2.581.752 3.232.501.645 1.305.967 2.412.967.924 0 1.647-.374 2.168-1.123.527-.749.791-1.781.791-3.096 0-1.334-.264-2.357-.791-3.066-.521-.716-1.257-1.074-2.207-1.074zm9.17 9.521h-1.621v-15.195h1.621V440zm12.706-5.361c0 1.744-.44 3.108-1.318 4.091-.879.977-2.094 1.465-3.643 1.465-.957 0-1.807-.224-2.549-.674-.742-.449-1.315-1.093-1.719-1.933-.403-.84-.605-1.823-.605-2.949 0-1.745.436-3.103 1.309-4.073.872-.976 2.083-1.464 3.632-1.464 1.498 0 2.686.498 3.565 1.494.885.996 1.328 2.343 1.328 4.043zm-8.154 0c0 1.367.273 2.409.82 3.125.547.716 1.351 1.074 2.412 1.074s1.865-.355 2.412-1.065c.554-.716.83-1.761.83-3.134 0-1.361-.276-2.393-.83-3.096-.547-.71-1.357-1.064-2.431-1.064-1.062 0-1.862.348-2.403 1.044-.54.697-.81 1.735-.81 3.116zM856.677 440l-.323-1.523h-.078c-.534.67-1.068 1.126-1.601 1.367-.528.234-1.189.351-1.983.351-1.061 0-1.894-.273-2.5-.82-.599-.547-.898-1.325-.898-2.334 0-2.161 1.728-3.294 5.185-3.398l1.817-.059v-.664c0-.84-.183-1.458-.547-1.856-.358-.403-.934-.605-1.729-.605-.892 0-1.901.273-3.027.82l-.498-1.24a7.66 7.66 0 011.728-.674 7.557 7.557 0 011.895-.244c1.276 0 2.22.283 2.832.85.619.566.928 1.474.928 2.724V440h-1.201zm-3.663-1.143c1.01 0 1.801-.276 2.374-.83.579-.553.869-1.328.869-2.324v-.967l-1.621.069c-1.29.045-2.22.247-2.793.605-.567.352-.85.902-.85 1.651 0 .585.176 1.031.527 1.337.358.306.856.459 1.494.459zm15.528-.293h-.087c-.749 1.088-1.869 1.631-3.36 1.631-1.4 0-2.49-.478-3.271-1.435-.775-.957-1.162-2.318-1.162-4.082 0-1.765.39-3.135 1.171-4.112.782-.976 1.869-1.464 3.262-1.464 1.452 0 2.565.527 3.34 1.582h.127l-.068-.772-.039-.752v-4.355h1.621V440h-1.319l-.215-1.436zm-3.242.274c1.107 0 1.908-.3 2.403-.899.501-.605.752-1.578.752-2.919v-.342c0-1.517-.254-2.598-.762-3.242-.501-.651-1.305-.977-2.412-.977-.951 0-1.68.371-2.188 1.113-.501.736-.752 1.778-.752 3.125 0 1.367.251 2.399.752 3.096.502.697 1.237 1.045 2.207 1.045zm8.019.127c0-.436.097-.765.293-.986.201-.228.488-.342.859-.342.378 0 .671.114.879.342.215.221.322.55.322.986 0 .423-.107.749-.322.976-.215.228-.508.342-.879.342-.332 0-.609-.101-.83-.303-.215-.208-.322-.546-.322-1.015z" fill="#fff"/><path d="M714.538 429.121c1.406 0 2.497.482 3.271 1.445.782.957 1.172 2.315 1.172 4.073 0 1.757-.394 3.125-1.181 4.101-.782.97-1.869 1.455-3.262 1.455a4.713 4.713 0 01-1.914-.381 3.636 3.636 0 01-1.446-1.191h-.117l-.342 1.377h-1.162v-15.195h1.621v3.691c0 .827-.026 1.569-.078 2.227h.078c.756-1.068 1.875-1.602 3.36-1.602zm-.235 1.358c-1.106 0-1.904.319-2.392.957-.488.631-.733 1.699-.733 3.203 0 1.504.251 2.581.752 3.232.502.645 1.306.967 2.412.967.997 0 1.739-.361 2.227-1.084.488-.729.732-1.774.732-3.135 0-1.393-.244-2.431-.732-3.115-.488-.684-1.243-1.025-2.266-1.025zm12.433-1.377c.475 0 .901.039 1.279.117l-.225 1.504a5.495 5.495 0 00-1.171-.147c-.866 0-1.608.352-2.227 1.055-.612.703-.918 1.579-.918 2.627V440h-1.621v-10.703h1.338l.185 1.982h.079c.397-.696.875-1.233 1.435-1.611a3.228 3.228 0 011.846-.566zm12.549 5.537c0 1.744-.439 3.108-1.318 4.091-.879.977-2.093 1.465-3.643 1.465-.957 0-1.806-.224-2.548-.674-.743-.449-1.316-1.093-1.719-1.933-.404-.84-.606-1.823-.606-2.949 0-1.745.437-3.103 1.309-4.073.872-.976 2.083-1.464 3.633-1.464 1.497 0 2.685.498 3.564 1.494.886.996 1.328 2.343 1.328 4.043zm-8.154 0c0 1.367.273 2.409.82 3.125.547.716 1.351 1.074 2.412 1.074 1.062 0 1.866-.355 2.413-1.065.553-.716.83-1.761.83-3.134 0-1.361-.277-2.393-.83-3.096-.547-.71-1.358-1.064-2.432-1.064-1.061 0-1.862.348-2.402 1.044-.541.697-.811 1.735-.811 3.116zM750.907 440l-1.963-6.279c-.123-.384-.355-1.257-.693-2.617h-.078c-.261 1.139-.489 2.018-.684 2.636l-2.021 6.26h-1.875l-2.92-10.703h1.699c.69 2.689 1.214 4.736 1.572 6.142.365 1.407.573 2.354.625 2.842h.078a26.61 26.61 0 01.762-2.842l1.963-6.142h1.758l1.914 6.142c.364 1.12.612 2.061.742 2.823h.078c.026-.235.095-.596.205-1.084.117-.489.798-3.116 2.041-7.881h1.68L752.831 440h-1.924zm13.761-2.92c0 .996-.371 1.764-1.114 2.305-.742.54-1.784.81-3.125.81-1.419 0-2.526-.224-3.32-.674v-1.503c.514.26 1.064.465 1.65.615.593.15 1.163.224 1.709.224.847 0 1.498-.133 1.954-.4.455-.273.683-.687.683-1.24 0-.417-.182-.772-.547-1.065-.358-.299-1.061-.651-2.109-1.054-.996-.371-1.706-.694-2.129-.967-.417-.28-.729-.596-.938-.947-.201-.352-.302-.772-.302-1.26 0-.873.355-1.559 1.064-2.061.71-.508 1.683-.761 2.92-.761a8.54 8.54 0 013.379.703l-.576 1.318c-1.074-.443-2.048-.664-2.92-.664-.768 0-1.348.12-1.738.361-.391.241-.586.573-.586.996 0 .287.071.531.215.733.149.202.387.394.712.576.326.182.951.446 1.875.791 1.27.462 2.126.928 2.569 1.396.449.469.674 1.058.674 1.768zm7.198 3.115c-1.582 0-2.832-.481-3.75-1.445-.912-.964-1.368-2.301-1.368-4.014 0-1.725.424-3.095 1.27-4.111.853-1.016 1.995-1.523 3.428-1.523 1.341 0 2.402.442 3.183 1.328.781.879 1.172 2.041 1.172 3.486v1.025h-7.373c.033 1.257.348 2.211.947 2.862.606.651 1.455.976 2.549.976a8.634 8.634 0 003.418-.722v1.445a8.289 8.289 0 01-1.631.527c-.508.111-1.123.166-1.845.166zm-.44-9.736c-.859 0-1.546.28-2.06.84-.508.56-.808 1.334-.899 2.324h5.596c0-1.022-.228-1.803-.684-2.344-.456-.547-1.107-.82-1.953-.82z" fill="#019AEB"/><path stroke="#6A6E79" stroke-width="2" stroke-dasharray="5 5" d="M320 245h778v318H320z"/><path fill="#019AEB" fill-opacity=".2" d="M1464 245h778v318h-778z"/><mask id="prefix__b" style="mask-type:alpha" maskUnits="userSpaceOnUse" x="1833" y="371" width="40" height="27"><path d="M1865.25 381.067c-1.13-5.75-6.18-10.067-12.25-10.067-4.82 0-9 2.733-11.08 6.733a9.992 9.992 0 00-8.92 9.934c0 5.516 4.48 10 10 10h21.67c4.6 0 8.33-3.734 8.33-8.334 0-4.4-3.42-7.966-7.75-8.266zm-8.92 4.933v6.667h-6.66V386h-5l8.33-8.333 8.33 8.333h-5z" fill="#fff"/></mask><g mask="url(#prefix__b)"><path d="M1865.25 381.067c-1.13-5.75-6.18-10.067-12.25-10.067-4.82 0-9 2.733-11.08 6.733a9.992 9.992 0 00-8.92 9.934c0 5.516 4.48 10 10 10h21.67c4.6 0 8.33-3.734 8.33-8.334 0-4.4-3.42-7.966-7.75-8.266zm-8.92 4.933v6.667h-6.66V386h-5l8.33-8.333 8.33 8.333h-5z" fill="#fff"/></g><path d="M1795.57 432.725c0 2.356-.64 4.16-1.92 5.41-1.28 1.243-3.12 1.865-5.52 1.865h-3.95v-14.277h4.37c2.22 0 3.95.615 5.18 1.845 1.23 1.231 1.84 2.95 1.84 5.157zm-1.75.058c0-1.862-.47-3.265-1.41-4.209-.93-.944-2.32-1.416-4.16-1.416h-2.41v11.406h2.02c1.98 0 3.47-.485 4.46-1.455 1-.976 1.5-2.418 1.5-4.326zm9.62-3.681c.47 0 .9.039 1.27.117l-.22 1.504a5.456 5.456 0 00-1.17-.147c-.87 0-1.61.352-2.23 1.055-.61.703-.92 1.579-.92 2.627V440h-1.62v-10.703h1.34l.19 1.982h.07c.4-.696.88-1.233 1.44-1.611a3.22 3.22 0 011.85-.566zm9.89 10.898l-.32-1.523h-.08c-.54.67-1.07 1.126-1.6 1.367-.53.234-1.19.351-1.99.351-1.06 0-1.89-.273-2.5-.82-.59-.547-.89-1.325-.89-2.334 0-2.161 1.72-3.294 5.18-3.398l1.82-.059v-.664c0-.84-.18-1.458-.55-1.856-.36-.403-.93-.605-1.73-.605-.89 0-1.9.273-3.03.82l-.49-1.24a7.46 7.46 0 011.73-.674 7.518 7.518 0 011.89-.244c1.28 0 2.22.283 2.83.85.62.566.93 1.474.93 2.724V440h-1.2zm-3.66-1.143c1.01 0 1.8-.276 2.37-.83.58-.553.87-1.328.87-2.324v-.967l-1.62.069c-1.29.045-2.22.247-2.8.605-.56.352-.85.902-.85 1.651 0 .585.18 1.031.53 1.337.36.306.86.459 1.5.459zm17-9.56v1.025l-1.98.235c.18.228.34.527.48.898.15.365.22.778.22 1.24 0 1.048-.36 1.885-1.07 2.51-.72.625-1.7.938-2.95.938-.32 0-.62-.026-.9-.079-.69.365-1.04.824-1.04 1.377 0 .293.12.511.36.655.24.136.66.205 1.24.205h1.9c1.16 0 2.05.244 2.66.732.63.488.94 1.198.94 2.129 0 1.185-.47 2.087-1.42 2.705-.95.625-2.34.938-4.16.938-1.4 0-2.48-.261-3.25-.782-.75-.52-1.13-1.256-1.13-2.207 0-.651.21-1.214.63-1.689.41-.475 1-.798 1.75-.967-.27-.124-.5-.316-.69-.576-.18-.26-.27-.563-.27-.908 0-.391.1-.733.31-1.026.21-.293.54-.576.99-.849-.56-.228-1.01-.615-1.36-1.162-.35-.547-.52-1.172-.52-1.875 0-1.172.35-2.074 1.06-2.705.7-.638 1.7-.957 2.98-.957.56 0 1.07.065 1.52.195h3.7zm-8.54 12.5c0 .579.25 1.019.74 1.318.48.3 1.18.449 2.1.449 1.36 0 2.36-.205 3.01-.615.66-.403.99-.954.99-1.65 0-.58-.18-.983-.54-1.211-.36-.221-1.03-.332-2.02-.332h-1.94c-.74 0-1.31.176-1.72.527-.41.352-.62.856-.62 1.514zm.88-9.072c0 .748.21 1.315.64 1.699.42.384 1.01.576 1.77.576 1.58 0 2.37-.768 2.37-2.305 0-1.608-.8-2.412-2.4-2.412-.77 0-1.35.205-1.76.615-.41.411-.62 1.019-.62 1.827zm19.94-2.168h-2.73V440h-1.62v-9.443h-1.91v-.733l1.91-.586v-.595c0-2.631 1.15-3.946 3.45-3.946.56 0 1.23.114 1.99.342l-.42 1.299c-.63-.202-1.16-.303-1.6-.303-.61 0-1.07.205-1.36.615-.29.404-.44 1.055-.44 1.954v.693h2.73v1.26zm3.57 9.443h-1.62v-10.703h1.62V440zm-1.76-13.604c0-.371.09-.641.28-.81a.938.938 0 01.68-.264c.26 0 .48.088.67.264.19.176.29.446.29.81 0 .365-.1.639-.29.821a.947.947 0 01-.67.263c-.27 0-.5-.087-.68-.263-.19-.182-.28-.456-.28-.821zm6.85 13.604h-1.62v-15.195h1.62V440zm7.99.195c-1.58 0-2.83-.481-3.75-1.445-.91-.964-1.37-2.301-1.37-4.014 0-1.725.42-3.095 1.27-4.111.85-1.016 2-1.523 3.43-1.523 1.34 0 2.4.442 3.18 1.328.78.879 1.17 2.041 1.17 3.486v1.025h-7.37c.03 1.257.35 2.211.95 2.862.6.651 1.45.976 2.55.976 1.15 0 2.29-.241 3.41-.722v1.445c-.57.247-1.11.423-1.63.527-.5.111-1.12.166-1.84.166zm-.44-9.736c-.86 0-1.55.28-2.06.84-.51.56-.81 1.334-.9 2.324h5.59c0-1.022-.22-1.803-.68-2.344-.45-.547-1.11-.82-1.95-.82zm14.08 6.621c0 .996-.37 1.764-1.11 2.305-.74.54-1.79.81-3.13.81-1.42 0-2.52-.224-3.32-.674v-1.503c.52.26 1.07.465 1.65.615.6.15 1.16.224 1.71.224.85 0 1.5-.133 1.95-.4.46-.273.69-.687.69-1.24 0-.417-.18-.772-.55-1.065-.36-.299-1.06-.651-2.11-1.054-.99-.371-1.7-.694-2.13-.967-.41-.28-.73-.596-.93-.947-.21-.352-.31-.772-.31-1.26 0-.873.36-1.559 1.07-2.061.71-.508 1.68-.761 2.92-.761 1.15 0 2.28.234 3.38.703l-.58 1.318c-1.07-.443-2.05-.664-2.92-.664-.77 0-1.35.12-1.74.361-.39.241-.58.573-.58.996 0 .287.07.531.21.733.15.202.39.394.71.576.33.182.95.446 1.88.791 1.27.462 2.12.928 2.57 1.396.45.469.67 1.058.67 1.768zm15.23 2.92v-6.924c0-.872-.2-1.523-.6-1.953-.4-.43-1.02-.644-1.86-.644-1.13 0-1.95.306-2.47.917-.52.612-.78 1.615-.78 3.008V440h-1.62v-15.195h1.62v4.599c0 .554-.02 1.013-.07 1.377h.09a3.27 3.27 0 011.36-1.211c.59-.299 1.27-.449 2.02-.449 1.31 0 2.29.313 2.94.938.66.618.99 1.604.99 2.959V440h-1.62zm9.51.195c-1.58 0-2.83-.481-3.75-1.445-.91-.964-1.37-2.301-1.37-4.014 0-1.725.43-3.095 1.27-4.111.85-1.016 2-1.523 3.43-1.523 1.34 0 2.4.442 3.18 1.328.78.879 1.17 2.041 1.17 3.486v1.025h-7.37c.03 1.257.35 2.211.95 2.862.6.651 1.45.976 2.55.976 1.15 0 2.29-.241 3.42-.722v1.445c-.58.247-1.12.423-1.63.527-.51.111-1.13.166-1.85.166zm-.44-9.736c-.86 0-1.55.28-2.06.84-.51.56-.81 1.334-.9 2.324h5.6c0-1.022-.23-1.803-.69-2.344-.45-.547-1.1-.82-1.95-.82zm12.06-1.357c.48 0 .9.039 1.28.117l-.22 1.504a5.618 5.618 0 00-1.18-.147c-.86 0-1.6.352-2.22 1.055-.61.703-.92 1.579-.92 2.627V440h-1.62v-10.703h1.34l.18 1.982h.08c.4-.696.88-1.233 1.44-1.611a3.212 3.212 0 011.84-.566zm7.83 11.093c-1.58 0-2.83-.481-3.75-1.445-.91-.964-1.36-2.301-1.36-4.014 0-1.725.42-3.095 1.27-4.111.85-1.016 1.99-1.523 3.42-1.523 1.35 0 2.41.442 3.19 1.328.78.879 1.17 2.041 1.17 3.486v1.025H1910c.03 1.257.34 2.211.94 2.862.61.651 1.46.976 2.55.976 1.15 0 2.29-.241 3.42-.722v1.445c-.57.247-1.12.423-1.63.527-.51.111-1.12.166-1.85.166zm-.44-9.736c-.85 0-1.54.28-2.06.84-.5.56-.8 1.334-.89 2.324h5.59c0-1.022-.23-1.803-.68-2.344-.46-.547-1.11-.82-1.96-.82zm6.95 8.506c0-.436.1-.765.29-.986.2-.228.49-.342.86-.342.38 0 .67.114.88.342.21.221.32.55.32.986 0 .423-.11.749-.32.976-.22.228-.51.342-.88.342-.33 0-.61-.101-.83-.303-.21-.208-.32-.546-.32-1.015z" fill="#fff"/><path stroke="#0063A3" stroke-width="2" stroke-dasharray="5 5" d="M1464 245h778v318h-778z"/><path d="M334.544 142.867v11.086c0 1.953-.59 3.488-1.769 4.606-1.18 1.117-2.801 1.675-4.864 1.675-2.062 0-3.66-.562-4.793-1.687-1.125-1.125-1.687-2.672-1.687-4.641v-11.039h1.992v11.18c0 1.43.391 2.527 1.172 3.293.781.765 1.93 1.148 3.445 1.148 1.445 0 2.559-.383 3.34-1.148.781-.774 1.172-1.879 1.172-3.317v-11.156h1.992zm10.351 17.367c-.836 0-1.602-.152-2.297-.457a4.365 4.365 0 01-1.735-1.429h-.14c.093.75.14 1.461.14 2.132v5.286h-1.945v-18.61h1.582l.27 1.758h.093c.5-.703 1.082-1.211 1.746-1.523.664-.313 1.426-.469 2.286-.469 1.703 0 3.015.582 3.937 1.746.93 1.164 1.395 2.797 1.395 4.898 0 2.11-.473 3.75-1.418 4.922-.938 1.164-2.243 1.746-3.914 1.746zm-.282-11.66c-1.312 0-2.261.364-2.847 1.09-.586.727-.887 1.883-.903 3.469v.433c0 1.805.301 3.098.903 3.879.601.774 1.566 1.16 2.894 1.16 1.11 0 1.977-.449 2.602-1.347.633-.899.949-2.137.949-3.715 0-1.602-.316-2.828-.949-3.68-.625-.859-1.508-1.289-2.649-1.289zM355.702 160h-1.945v-18.234h1.945V160zm15.331-6.434c0 2.094-.527 3.731-1.582 4.911-1.055 1.171-2.512 1.757-4.371 1.757-1.149 0-2.168-.269-3.059-.808-.89-.539-1.578-1.313-2.062-2.321-.485-1.007-.727-2.187-.727-3.539 0-2.093.524-3.722 1.571-4.886 1.046-1.172 2.5-1.758 4.359-1.758 1.797 0 3.223.598 4.277 1.793 1.063 1.195 1.594 2.812 1.594 4.851zm-9.785 0c0 1.641.328 2.891.984 3.75.656.86 1.621 1.289 2.895 1.289 1.273 0 2.238-.425 2.894-1.277.664-.859.996-2.113.996-3.762 0-1.632-.332-2.871-.996-3.714-.656-.852-1.629-1.278-2.918-1.278-1.273 0-2.234.418-2.883 1.254-.648.836-.972 2.082-.972 3.738zM382.473 160l-.386-1.828h-.094c-.641.805-1.281 1.351-1.922 1.64-.633.282-1.426.422-2.379.422-1.273 0-2.273-.328-3-.984-.719-.656-1.078-1.59-1.078-2.801 0-2.594 2.074-3.953 6.223-4.078l2.179-.07v-.797c0-1.008-.218-1.75-.656-2.227-.43-.484-1.121-.726-2.074-.726-1.071 0-2.281.328-3.633.984l-.598-1.488a9.196 9.196 0 012.075-.809 9.082 9.082 0 012.273-.293c1.531 0 2.664.34 3.398 1.02.743.68 1.114 1.769 1.114 3.269V160h-1.442zm-4.394-1.371c1.211 0 2.16-.332 2.847-.996.696-.664 1.043-1.594 1.043-2.789v-1.16l-1.945.082c-1.547.054-2.664.296-3.351.726-.68.422-1.02 1.082-1.02 1.981 0 .703.211 1.238.633 1.605.429.367 1.027.551 1.793.551zm18.717-.352h-.105c-.898 1.305-2.242 1.957-4.031 1.957-1.68 0-2.989-.574-3.926-1.722-.93-1.149-1.395-2.782-1.395-4.899s.469-3.761 1.407-4.933c.937-1.172 2.242-1.758 3.914-1.758 1.742 0 3.078.633 4.008 1.898h.152l-.082-.925-.047-.903v-5.226h1.945V160h-1.582l-.258-1.723zm-3.89.328c1.328 0 2.289-.359 2.883-1.078.601-.726.902-1.894.902-3.504v-.41c0-1.82-.305-3.117-.914-3.89-.602-.782-1.567-1.172-2.895-1.172-1.14 0-2.015.445-2.625 1.336-.601.883-.902 2.133-.902 3.75 0 1.64.301 2.879.902 3.715.602.836 1.485 1.253 2.649 1.253zM411.533 160h-1.993v-17.133h9.551v1.77h-7.558v6.269h7.101v1.77h-7.101V160zm12.178 0h-1.945v-12.844h1.945V160zm-2.109-16.324c0-.446.109-.77.328-.973.219-.211.492-.316.82-.316.313 0 .582.105.809.316.226.211.34.535.34.973 0 .437-.114.765-.34.984a1.147 1.147 0 01-.809.317c-.328 0-.601-.106-.82-.317-.219-.219-.328-.547-.328-.984zM429.901 160h-1.945v-18.234h1.945V160zm9.671.234c-1.898 0-3.398-.578-4.5-1.734-1.094-1.156-1.64-2.762-1.64-4.816 0-2.071.507-3.715 1.523-4.934 1.023-1.219 2.395-1.828 4.113-1.828 1.61 0 2.883.531 3.821 1.594.937 1.054 1.406 2.449 1.406 4.183v1.231h-8.848c.039 1.508.418 2.652 1.137 3.433.726.782 1.746 1.172 3.059 1.172 1.382 0 2.75-.289 4.101-.867v1.734a9.931 9.931 0 01-1.957.633c-.609.133-1.348.199-2.215.199zm-.527-11.683c-1.031 0-1.856.336-2.473 1.008-.609.671-.969 1.601-1.078 2.789h6.715c0-1.227-.274-2.164-.82-2.813-.547-.656-1.329-.984-2.344-.984zm16.983 7.945c0 1.195-.445 2.117-1.336 2.766-.89.648-2.14.972-3.75.972-1.703 0-3.031-.269-3.984-.808v-1.805a9.593 9.593 0 001.98.738c.711.18 1.395.27 2.051.27 1.016 0 1.797-.16 2.344-.481.547-.328.82-.824.82-1.488 0-.5-.219-.926-.656-1.277-.43-.36-1.274-.781-2.531-1.266-1.196-.445-2.047-.832-2.555-1.16-.5-.336-.875-.715-1.125-1.137-.242-.422-.363-.925-.363-1.511 0-1.047.425-1.871 1.277-2.473.852-.609 2.02-.914 3.504-.914 1.383 0 2.734.281 4.055.844l-.692 1.582c-1.289-.532-2.457-.797-3.504-.797-.922 0-1.617.144-2.086.433-.468.289-.703.688-.703 1.196 0 .343.086.636.258.879.18.242.465.472.856.691.39.219 1.14.535 2.25.949 1.523.555 2.55 1.113 3.082 1.676.539.563.808 1.27.808 2.121zm15.439-7.828h-3.269V160h-1.945v-11.332h-2.297v-.879l2.297-.703v-.715c0-3.156 1.378-4.734 4.136-4.734.68 0 1.477.136 2.391.41l-.504 1.558c-.75-.242-1.391-.363-1.922-.363-.734 0-1.277.246-1.629.738-.351.485-.527 1.266-.527 2.344v.832h3.269v1.512zm13.55 4.898c0 2.094-.527 3.731-1.582 4.911-1.055 1.171-2.512 1.757-4.371 1.757-1.149 0-2.168-.269-3.059-.808-.89-.539-1.578-1.313-2.062-2.321-.485-1.007-.727-2.187-.727-3.539 0-2.093.524-3.722 1.571-4.886 1.046-1.172 2.5-1.758 4.359-1.758 1.797 0 3.223.598 4.277 1.793 1.063 1.195 1.594 2.812 1.594 4.851zm-9.785 0c0 1.641.328 2.891.984 3.75.656.86 1.621 1.289 2.895 1.289 1.273 0 2.238-.425 2.894-1.277.664-.859.996-2.113.996-3.762 0-1.632-.332-2.871-.996-3.714-.656-.852-1.629-1.278-2.918-1.278-1.273 0-2.234.418-2.882 1.254-.649.836-.973 2.082-.973 3.738zm19.186-6.644c.571 0 1.082.047 1.535.14l-.269 1.805c-.531-.117-1-.176-1.406-.176-1.039 0-1.93.422-2.672 1.266-.735.844-1.102 1.895-1.102 3.152V160h-1.945v-12.844h1.605l.223 2.379h.094c.476-.836 1.051-1.48 1.722-1.933a3.874 3.874 0 012.215-.68zM505.123 160v-17.133h1.992v15.328h7.559V160h-9.551zm23.382-6.434c0 2.094-.527 3.731-1.582 4.911-1.055 1.171-2.512 1.757-4.371 1.757-1.149 0-2.168-.269-3.059-.808-.89-.539-1.578-1.313-2.062-2.321-.485-1.007-.727-2.187-.727-3.539 0-2.093.524-3.722 1.57-4.886 1.047-1.172 2.5-1.758 4.36-1.758 1.797 0 3.222.598 4.277 1.793 1.063 1.195 1.594 2.812 1.594 4.851zm-9.785 0c0 1.641.328 2.891.984 3.75.656.86 1.621 1.289 2.895 1.289 1.273 0 2.238-.425 2.894-1.277.664-.859.996-2.113.996-3.762 0-1.632-.332-2.871-.996-3.714-.656-.852-1.629-1.278-2.918-1.278-1.273 0-2.234.418-2.883 1.254-.648.836-.972 2.082-.972 3.738zm19.186-6.644c.57 0 1.082.047 1.535.14l-.269 1.805c-.532-.117-1-.176-1.407-.176-1.039 0-1.929.422-2.671 1.266-.735.844-1.102 1.895-1.102 3.152V160h-1.945v-12.844h1.605l.223 2.379h.094c.476-.836 1.05-1.48 1.722-1.933a3.872 3.872 0 012.215-.68zm9.483 13.312c-1.898 0-3.398-.578-4.5-1.734-1.093-1.156-1.64-2.762-1.64-4.816 0-2.071.508-3.715 1.523-4.934 1.024-1.219 2.395-1.828 4.113-1.828 1.61 0 2.883.531 3.821 1.594.937 1.054 1.406 2.449 1.406 4.183v1.231h-8.848c.039 1.508.418 2.652 1.137 3.433.727.782 1.746 1.172 3.059 1.172 1.382 0 2.75-.289 4.101-.867v1.734a9.931 9.931 0 01-1.957.633c-.609.133-1.347.199-2.215.199zm-.527-11.683c-1.031 0-1.855.336-2.473 1.008-.609.671-.968 1.601-1.078 2.789h6.715c0-1.227-.273-2.164-.82-2.813-.547-.656-1.328-.984-2.344-.984zM571.931 160v-8.355c0-1.024-.218-1.79-.656-2.297-.437-.516-1.117-.774-2.039-.774-1.211 0-2.106.348-2.684 1.043-.578.695-.867 1.766-.867 3.211V160h-1.945v-8.355c0-1.024-.219-1.79-.656-2.297-.438-.516-1.121-.774-2.051-.774-1.219 0-2.113.367-2.684 1.102-.562.726-.844 1.922-.844 3.586V160h-1.945v-12.844h1.582l.317 1.758h.093a3.841 3.841 0 011.547-1.465c.672-.351 1.422-.527 2.25-.527 2.008 0 3.321.726 3.938 2.18h.093c.383-.672.938-1.204 1.665-1.594.726-.391 1.554-.586 2.484-.586 1.453 0 2.539.375 3.258 1.125.726.742 1.09 1.933 1.09 3.574V160h-1.946zm12.732 0v-17.133h1.993V160h-1.993zm12.507.234c-.836 0-1.601-.152-2.297-.457a4.368 4.368 0 01-1.734-1.429h-.141c.094.75.141 1.461.141 2.132v5.286h-1.945v-18.61h1.582l.269 1.758h.094c.5-.703 1.082-1.211 1.746-1.523.664-.313 1.426-.469 2.285-.469 1.703 0 3.016.582 3.938 1.746.929 1.164 1.394 2.797 1.394 4.898 0 2.11-.472 3.75-1.418 4.922-.937 1.164-2.242 1.746-3.914 1.746zm-.281-11.66c-1.313 0-2.262.364-2.848 1.09-.586.727-.886 1.883-.902 3.469v.433c0 1.805.301 3.098.902 3.879.602.774 1.567 1.16 2.895 1.16 1.109 0 1.976-.449 2.601-1.347.633-.899.95-2.137.95-3.715 0-1.602-.317-2.828-.95-3.68-.625-.859-1.507-1.289-2.648-1.289zm17.429 7.922c0 1.195-.446 2.117-1.336 2.766-.891.648-2.141.972-3.75.972-1.704 0-3.032-.269-3.985-.808v-1.805a9.602 9.602 0 001.981.738c.711.18 1.394.27 2.05.27 1.016 0 1.797-.16 2.344-.481.547-.328.821-.824.821-1.488 0-.5-.219-.926-.657-1.277-.429-.36-1.273-.781-2.531-1.266-1.195-.445-2.047-.832-2.555-1.16-.5-.336-.875-.715-1.125-1.137-.242-.422-.363-.925-.363-1.511 0-1.047.426-1.871 1.277-2.473.852-.609 2.02-.914 3.504-.914 1.383 0 2.735.281 4.055.844l-.691 1.582c-1.289-.532-2.457-.797-3.504-.797-.922 0-1.618.144-2.086.433-.469.289-.703.688-.703 1.196 0 .343.086.636.257.879.18.242.465.472.856.691.391.219 1.141.535 2.25.949 1.523.555 2.551 1.113 3.082 1.676.539.563.809 1.27.809 2.121zm5.123-9.34v8.332c0 1.047.239 1.828.715 2.344.477.516 1.223.773 2.239.773 1.343 0 2.324-.367 2.941-1.101.625-.734.937-1.934.937-3.598v-6.75h1.946V160h-1.606l-.281-1.723h-.105a3.868 3.868 0 01-1.665 1.453c-.703.336-1.507.504-2.414.504-1.562 0-2.734-.371-3.515-1.113-.774-.742-1.16-1.93-1.16-3.562v-8.403h1.968zM648.847 160v-8.355c0-1.024-.219-1.79-.657-2.297-.437-.516-1.117-.774-2.039-.774-1.211 0-2.105.348-2.683 1.043-.578.695-.868 1.766-.868 3.211V160h-1.945v-8.355c0-1.024-.219-1.79-.656-2.297-.438-.516-1.121-.774-2.051-.774-1.219 0-2.113.367-2.683 1.102-.563.726-.844 1.922-.844 3.586V160h-1.946v-12.844h1.582l.317 1.758h.094a3.829 3.829 0 011.547-1.465c.671-.351 1.421-.527 2.25-.527 2.007 0 3.32.726 3.937 2.18h.094c.383-.672.937-1.204 1.664-1.594.726-.391 1.555-.586 2.484-.586 1.453 0 2.539.375 3.258 1.125.727.742 1.09 1.933 1.09 3.574V160h-1.945zM325.625 187l-3.289-9.539h-.07a68.318 68.318 0 01.109 2.062c.016.422.023.826.023 1.211V187h-1.703v-11.422h2.633l3.164 9.117h.047l3.273-9.117h2.626V187h-1.79v-6.359c0-.349.006-.727.016-1.133.016-.406.031-.792.047-1.156.021-.365.036-.657.047-.875h-.063L327.281 187h-1.656zm13.173-8.812c1.094 0 1.92.242 2.477.726.562.484.844 1.24.844 2.266V187h-1.305l-.352-1.227h-.062a4.433 4.433 0 01-.758.774c-.26.203-.562.354-.906.453-.339.104-.753.156-1.242.156a3.27 3.27 0 01-1.383-.281 2.197 2.197 0 01-.961-.875c-.234-.391-.352-.885-.352-1.484 0-.891.331-1.56.993-2.008.666-.448 1.671-.696 3.015-.742l1.5-.055v-.453c0-.599-.14-1.026-.422-1.281-.276-.256-.666-.383-1.172-.383-.432 0-.851.062-1.257.187a8.923 8.923 0 00-1.188.461l-.594-1.297a6.673 6.673 0 011.438-.547 6.717 6.717 0 011.687-.21zm1.5 4.679l-1.117.039c-.916.032-1.56.188-1.929.469-.37.281-.555.667-.555 1.156 0 .427.127.74.383.938.255.192.591.289 1.007.289.636 0 1.162-.18 1.579-.539.421-.365.632-.899.632-1.602v-.75zm6.455-.289l-2.891-4.226h2.094l1.977 3.039 1.984-3.039h2.086l-2.906 4.226 3.055 4.422h-2.102l-2.117-3.242-2.125 3.242h-2.086l3.031-4.422zm6.783 3.453c0-.427.109-.726.328-.898.224-.177.495-.266.813-.266.317 0 .588.089.812.266.229.172.344.471.344.898 0 .417-.115.719-.344.907a1.247 1.247 0 01-.812.273c-.318 0-.589-.091-.813-.273-.219-.188-.328-.49-.328-.907zm0-6.687c0-.433.109-.737.328-.914.224-.177.495-.266.813-.266.317 0 .588.089.812.266.229.177.344.481.344.914 0 .411-.115.711-.344.898a1.248 1.248 0 01-.812.274c-.318 0-.589-.092-.813-.274-.219-.187-.328-.487-.328-.898zm15.816-1.156c0 .515-.105.963-.313 1.343-.208.38-.495.693-.859.938a3.65 3.65 0 01-1.25.515v.055c.911.115 1.599.401 2.062.859.469.459.703 1.066.703 1.821 0 .661-.159 1.252-.476 1.773-.318.516-.805.922-1.461 1.219-.656.297-1.5.445-2.531.445-.62 0-1.196-.049-1.727-.148a6.371 6.371 0 01-1.5-.477v-1.633c.484.24 1 .425 1.547.555a6.73 6.73 0 001.555.195c.953 0 1.632-.177 2.039-.531.406-.359.609-.854.609-1.484 0-.406-.107-.74-.32-1-.209-.261-.534-.456-.977-.586-.437-.13-1.002-.195-1.695-.195h-1.008v-1.477h1.016c.661 0 1.192-.078 1.593-.234.401-.162.69-.383.868-.664.182-.282.273-.61.273-.985 0-.489-.159-.87-.477-1.14-.317-.276-.789-.414-1.414-.414a3.94 3.94 0 00-1.054.132 4.793 4.793 0 00-.867.336 8.292 8.292 0 00-.758.438l-.883-1.274a6.187 6.187 0 011.547-.82c.599-.224 1.297-.336 2.094-.336 1.171 0 2.075.253 2.71.758.636.5.954 1.172.954 2.016zm11.229 1.562h-2.101V187h-1.836v-7.25h-1.414v-.883l1.414-.539v-.601c0-.735.114-1.318.343-1.75a2.036 2.036 0 011-.93c.438-.193.959-.289 1.563-.289.396 0 .758.034 1.086.101.328.063.604.136.828.219l-.477 1.391a5.929 5.929 0 00-.593-.157 3.035 3.035 0 00-.703-.078c-.417 0-.724.131-.922.391-.193.26-.289.641-.289 1.141v.586h2.101v1.398zm3.463-1.398V187h-1.836v-8.648h1.836zm-.906-3.313c.281 0 .523.076.726.227.208.151.313.411.313.781 0 .364-.105.625-.313.781a1.183 1.183 0 01-.726.227 1.21 1.21 0 01-.743-.227c-.198-.156-.297-.417-.297-.781 0-.37.099-.63.297-.781a1.21 1.21 0 01.743-.227zM388.67 187h-1.843v-12.156h1.843V187zm6.221-8.812c.77 0 1.432.158 1.984.476.552.318.977.768 1.273 1.352.297.583.446 1.281.446 2.093v.985h-5.774c.021.838.245 1.484.672 1.937.432.453 1.037.68 1.813.68.552 0 1.047-.052 1.484-.156.443-.11.899-.269 1.367-.477v1.492a5.99 5.99 0 01-1.32.446c-.448.093-.984.14-1.609.14-.849 0-1.597-.164-2.243-.492a3.597 3.597 0 01-1.507-1.484c-.36-.657-.539-1.472-.539-2.446 0-.968.164-1.791.492-2.468.328-.677.789-1.193 1.382-1.547.594-.354 1.287-.531 2.079-.531zm0 1.382c-.579 0-1.047.188-1.407.563-.354.375-.562.924-.625 1.648h3.938a3.015 3.015 0 00-.219-1.148 1.658 1.658 0 00-.625-.781c-.276-.188-.63-.282-1.062-.282zm11.736 4.961c0 .568-.138 1.047-.414 1.438-.277.39-.68.687-1.211.89-.526.198-1.172.297-1.938.297a7.938 7.938 0 01-1.562-.133 5.326 5.326 0 01-1.227-.39v-1.586c.411.193.872.359 1.383.5a5.538 5.538 0 001.461.211c.604 0 1.039-.094 1.304-.281a.902.902 0 00.399-.766.813.813 0 00-.164-.5c-.104-.151-.302-.305-.594-.461a11.359 11.359 0 00-1.266-.578 10.723 10.723 0 01-1.382-.656c-.375-.219-.659-.482-.852-.789-.193-.313-.289-.711-.289-1.196 0-.765.302-1.346.906-1.742.61-.401 1.414-.601 2.414-.601.532 0 1.032.054 1.5.164.474.104.938.257 1.391.46l-.578 1.383a8.726 8.726 0 00-1.18-.422 4.241 4.241 0 00-1.195-.171c-.474 0-.836.072-1.086.218-.245.146-.367.354-.367.625 0 .203.06.375.179.516.12.141.326.281.618.422.296.14.708.315 1.234.523.516.198.961.406 1.336.625.38.214.672.477.875.789.203.313.305.716.305 1.211zm5.768-1.914c0-.875.084-1.729.25-2.562a10.91 10.91 0 01.782-2.383 9.55 9.55 0 011.32-2.094h1.601a10.968 10.968 0 00-1.687 3.305 12.475 12.475 0 00-.313 6.179 11.42 11.42 0 001.985 4.469h-1.586a9.226 9.226 0 01-1.32-2.047c-.349-.739-.61-1.52-.782-2.343a12.732 12.732 0 01-.25-2.524zM425.436 187h-7.734v-1.383l2.96-3a37.324 37.324 0 001.415-1.508c.369-.427.643-.83.82-1.211.182-.38.273-.794.273-1.242 0-.552-.159-.968-.476-1.25-.318-.286-.737-.429-1.258-.429a3.21 3.21 0 00-1.375.296 6.372 6.372 0 00-1.297.829l-1.008-1.211a8.43 8.43 0 011.016-.743 4.942 4.942 0 011.219-.531 5.305 5.305 0 011.531-.203c.724 0 1.349.13 1.875.391.526.255.93.612 1.211 1.07.286.458.429.992.429 1.602 0 .614-.122 1.182-.367 1.703a6.5 6.5 0 01-1.047 1.547 29.305 29.305 0 01-1.617 1.648l-1.976 1.93v.086h5.406V187zm5.455-7.141c.734 0 1.38.133 1.937.399.563.26 1 .646 1.313 1.156.312.505.468 1.125.468 1.859 0 .803-.169 1.495-.507 2.079-.339.578-.836 1.023-1.493 1.336-.656.312-1.455.468-2.398.468a8.58 8.58 0 01-1.68-.156 4.61 4.61 0 01-1.336-.469v-1.656c.391.219.86.398 1.407.539.546.135 1.07.203 1.57.203.531 0 .987-.078 1.367-.234.38-.156.672-.396.875-.719.208-.323.313-.732.313-1.226 0-.657-.211-1.162-.633-1.516-.417-.36-1.071-.539-1.961-.539a6.19 6.19 0 00-1 .086 7.975 7.975 0 00-.875.172l-.805-.477.43-5.586h5.937v1.617h-4.32l-.25 2.844c.188-.042.411-.081.672-.117.26-.042.583-.063.969-.063zm15.44 7.141l-3.289-9.539h-.07a64.294 64.294 0 01.109 2.062c.016.422.024.826.024 1.211V187h-1.703v-11.422h2.632l3.164 9.117h.047l3.274-9.117h2.625V187h-1.789v-6.359c0-.349.005-.727.015-1.133l.047-1.156c.021-.365.037-.657.047-.875h-.062L447.988 187h-1.657zm9.971-11.422h3.398c1.474 0 2.586.214 3.336.641.75.427 1.125 1.164 1.125 2.211 0 .437-.078.833-.234 1.187a2.187 2.187 0 01-.665.867c-.291.224-.651.375-1.078.454v.078c.443.078.836.216 1.18.414.349.198.622.481.82.851.203.37.305.849.305 1.438 0 .698-.167 1.291-.5 1.781-.328.49-.799.862-1.414 1.117-.609.255-1.333.383-2.172.383h-4.101v-11.422zm1.875 4.711h1.796c.849 0 1.438-.138 1.766-.414.328-.276.492-.68.492-1.211 0-.542-.195-.932-.586-1.172-.385-.239-1-.359-1.843-.359h-1.625v3.156zm0 1.516v3.625h1.976c.875 0 1.49-.17 1.844-.508.354-.339.531-.797.531-1.375 0-.354-.081-.662-.242-.922-.156-.26-.414-.461-.774-.602-.359-.145-.843-.218-1.453-.218h-1.882zm16.159 3.867c.24 0 .476-.021.711-.063.234-.047.448-.101.641-.164v1.391a3.872 3.872 0 01-.79.226 5.237 5.237 0 01-1.007.094c-.49 0-.93-.08-1.321-.242a1.93 1.93 0 01-.929-.852c-.23-.401-.344-.955-.344-1.664v-4.648h-1.18v-.82l1.266-.649.601-1.851h1.157v1.922h2.476v1.398h-2.476v4.625c0 .437.109.763.328.977.219.213.508.32.867.32zm10.916-3.016c0 .719-.094 1.357-.282 1.914a3.822 3.822 0 01-.82 1.414 3.602 3.602 0 01-1.297.875c-.505.198-1.075.297-1.711.297a4.358 4.358 0 01-1.633-.297 3.723 3.723 0 01-1.289-.875 4.007 4.007 0 01-.836-1.414c-.198-.557-.297-1.195-.297-1.914 0-.953.165-1.76.493-2.422a3.504 3.504 0 011.422-1.523c.614-.349 1.346-.523 2.195-.523.797 0 1.5.174 2.109.523.61.349 1.086.857 1.43 1.523.344.667.516 1.474.516 2.422zm-6.274 0c0 .63.076 1.17.227 1.617.156.448.396.792.718 1.032.323.234.74.351 1.25.351.511 0 .928-.117 1.25-.351.323-.24.56-.584.711-1.032.151-.447.227-.987.227-1.617s-.076-1.164-.227-1.601c-.151-.443-.388-.779-.711-1.008-.322-.235-.742-.352-1.257-.352-.761 0-1.315.256-1.664.766s-.524 1.242-.524 2.195zm11.752 3.016c.239 0 .476-.021.711-.063.234-.047.448-.101.64-.164v1.391a3.842 3.842 0 01-.789.226 5.256 5.256 0 01-1.008.094 3.42 3.42 0 01-1.32-.242c-.391-.167-.7-.45-.93-.852-.229-.401-.343-.955-.343-1.664v-4.648h-1.18v-.82l1.266-.649.601-1.851h1.156v1.922h2.477v1.398h-2.477v4.625c0 .437.11.763.329.977.218.213.507.32.867.32zm6.65-7.484c1.093 0 1.919.242 2.476.726.563.484.844 1.24.844 2.266V187h-1.305l-.351-1.227h-.063a4.433 4.433 0 01-.758.774c-.26.203-.562.354-.906.453-.338.104-.752.156-1.242.156a3.27 3.27 0 01-1.383-.281 2.202 2.202 0 01-.961-.875c-.234-.391-.351-.885-.351-1.484 0-.891.33-1.56.992-2.008.667-.448 1.672-.696 3.015-.742l1.5-.055v-.453c0-.599-.14-1.026-.421-1.281-.276-.256-.667-.383-1.172-.383-.433 0-.852.062-1.258.187a8.977 8.977 0 00-1.188.461l-.593-1.297a6.684 6.684 0 011.437-.547 6.719 6.719 0 011.688-.21zm1.5 4.679l-1.118.039c-.916.032-1.559.188-1.929.469-.37.281-.555.667-.555 1.156 0 .427.128.74.383.938.255.192.591.289 1.008.289.635 0 1.161-.18 1.578-.539.422-.365.633-.899.633-1.602v-.75zm6.384 4.133h-1.844v-12.156h1.844V187zm5.892-4.391a12.7 12.7 0 01-.25 2.532 10.177 10.177 0 01-.773 2.343 8.752 8.752 0 01-1.328 2.047h-1.578c.489-.661.901-1.37 1.234-2.125.333-.755.583-1.539.75-2.351a12.197 12.197 0 00-.008-4.961 11.698 11.698 0 00-.75-2.375 10.655 10.655 0 00-1.242-2.141h1.594a9.054 9.054 0 011.328 2.094c.349.755.607 1.549.773 2.383.167.828.25 1.679.25 2.554zM1478.54 142.867v11.086c0 1.953-.59 3.488-1.77 4.606-1.18 1.117-2.8 1.675-4.86 1.675-2.06 0-3.66-.562-4.79-1.687s-1.69-2.672-1.69-4.641v-11.039h1.99v11.18c0 1.43.39 2.527 1.17 3.293.79.765 1.93 1.148 3.45 1.148 1.45 0 2.56-.383 3.34-1.148.78-.774 1.17-1.879 1.17-3.317v-11.156h1.99zm10.35 17.367c-.83 0-1.6-.152-2.29-.457a4.372 4.372 0 01-1.74-1.429h-.14c.1.75.14 1.461.14 2.132v5.286h-1.94v-18.61h1.58l.27 1.758h.09c.5-.703 1.09-1.211 1.75-1.523.66-.313 1.43-.469 2.28-.469 1.71 0 3.02.582 3.94 1.746.93 1.164 1.4 2.797 1.4 4.898 0 2.11-.48 3.75-1.42 4.922-.94 1.164-2.24 1.746-3.92 1.746zm-.28-11.66c-1.31 0-2.26.364-2.84 1.09-.59.727-.89 1.883-.91 3.469v.433c0 1.805.3 3.098.91 3.879.6.774 1.56 1.16 2.89 1.16 1.11 0 1.98-.449 2.6-1.347.63-.899.95-2.137.95-3.715 0-1.602-.32-2.828-.95-3.68-.62-.859-1.51-1.289-2.65-1.289zM1499.7 160h-1.94v-18.234h1.94V160zm15.33-6.434c0 2.094-.52 3.731-1.58 4.911-1.05 1.171-2.51 1.757-4.37 1.757-1.15 0-2.17-.269-3.06-.808-.89-.539-1.58-1.313-2.06-2.321-.49-1.007-.73-2.187-.73-3.539 0-2.093.53-3.722 1.57-4.886 1.05-1.172 2.5-1.758 4.36-1.758 1.8 0 3.22.598 4.28 1.793 1.06 1.195 1.59 2.812 1.59 4.851zm-9.78 0c0 1.641.33 2.891.98 3.75.66.86 1.62 1.289 2.9 1.289 1.27 0 2.24-.425 2.89-1.277.67-.859 1-2.113 1-3.762 0-1.632-.33-2.871-1-3.714-.65-.852-1.63-1.278-2.92-1.278-1.27 0-2.23.418-2.88 1.254-.65.836-.97 2.082-.97 3.738zm21.22 6.434l-.38-1.828h-.1c-.64.805-1.28 1.351-1.92 1.64-.63.282-1.42.422-2.38.422-1.27 0-2.27-.328-3-.984-.72-.656-1.08-1.59-1.08-2.801 0-2.594 2.08-3.953 6.23-4.078l2.18-.07v-.797c0-1.008-.22-1.75-.66-2.227-.43-.484-1.12-.726-2.07-.726-1.07 0-2.29.328-3.64.984l-.59-1.488a9.1 9.1 0 012.07-.809 9.124 9.124 0 012.27-.293c1.53 0 2.67.34 3.4 1.02.74.68 1.11 1.769 1.11 3.269V160h-1.44zm-4.39-1.371c1.21 0 2.16-.332 2.85-.996.69-.664 1.04-1.594 1.04-2.789v-1.16l-1.95.082c-1.54.054-2.66.296-3.35.726-.68.422-1.02 1.082-1.02 1.981 0 .703.21 1.238.64 1.605.43.367 1.02.551 1.79.551zm18.72-.352h-.11c-.9 1.305-2.24 1.957-4.03 1.957-1.68 0-2.99-.574-3.93-1.722-.93-1.149-1.39-2.782-1.39-4.899s.47-3.761 1.41-4.933c.93-1.172 2.24-1.758 3.91-1.758 1.74 0 3.08.633 4.01 1.898h.15l-.08-.925-.05-.903v-5.226h1.95V160h-1.59l-.25-1.723zm-3.89.328c1.32 0 2.28-.359 2.88-1.078.6-.726.9-1.894.9-3.504v-.41c0-1.82-.3-3.117-.91-3.89-.6-.782-1.57-1.172-2.9-1.172-1.14 0-2.01.445-2.62 1.336-.6.883-.9 2.133-.9 3.75 0 1.64.3 2.879.9 3.715.6.836 1.48 1.253 2.65 1.253zm18.62 1.395h-1.99v-17.133h9.55v1.77h-7.56v6.269h7.1v1.77h-7.1V160zm12.18 0h-1.94v-12.844h1.94V160zm-2.11-16.324c0-.446.11-.77.33-.973.22-.211.49-.316.82-.316.31 0 .58.105.81.316.23.211.34.535.34.973 0 .437-.11.765-.34.984-.23.211-.5.317-.81.317-.33 0-.6-.106-.82-.317-.22-.219-.33-.547-.33-.984zm8.3 16.324h-1.94v-18.234h1.94V160zm9.67.234c-1.9 0-3.4-.578-4.5-1.734-1.09-1.156-1.64-2.762-1.64-4.816 0-2.071.51-3.715 1.53-4.934 1.02-1.219 2.39-1.828 4.11-1.828 1.61 0 2.88.531 3.82 1.594.94 1.054 1.4 2.449 1.4 4.183v1.231h-8.84c.04 1.508.42 2.652 1.13 3.433.73.782 1.75 1.172 3.06 1.172 1.39 0 2.75-.289 4.1-.867v1.734c-.68.297-1.34.508-1.95.633-.61.133-1.35.199-2.22.199zm-.53-11.683c-1.03 0-1.85.336-2.47 1.008-.61.671-.97 1.601-1.08 2.789h6.72c0-1.227-.27-2.164-.82-2.813-.55-.656-1.33-.984-2.35-.984zm16.99 7.945c0 1.195-.45 2.117-1.34 2.766-.89.648-2.14.972-3.75.972-1.7 0-3.03-.269-3.98-.808v-1.805c.62.313 1.28.559 1.98.738.71.18 1.39.27 2.05.27 1.01 0 1.8-.16 2.34-.481.55-.328.82-.824.82-1.488 0-.5-.22-.926-.65-1.277-.43-.36-1.28-.781-2.53-1.266-1.2-.445-2.05-.832-2.56-1.16-.5-.336-.87-.715-1.12-1.137-.25-.422-.37-.925-.37-1.511 0-1.047.43-1.871 1.28-2.473.85-.609 2.02-.914 3.5-.914 1.39 0 2.74.281 4.06.844l-.69 1.582c-1.29-.532-2.46-.797-3.51-.797-.92 0-1.61.144-2.08.433-.47.289-.71.688-.71 1.196 0 .343.09.636.26.879.18.242.47.472.86.691.39.219 1.14.535 2.25.949 1.52.555 2.55 1.113 3.08 1.676.54.563.81 1.27.81 2.121zm15.44-7.828h-3.27V160h-1.95v-11.332h-2.29v-.879l2.29-.703v-.715c0-3.156 1.38-4.734 4.14-4.734.68 0 1.48.136 2.39.41l-.5 1.558c-.75-.242-1.39-.363-1.93-.363-.73 0-1.27.246-1.62.738-.36.485-.53 1.266-.53 2.344v.832h3.27v1.512zm13.55 4.898c0 2.094-.53 3.731-1.59 4.911-1.05 1.171-2.51 1.757-4.37 1.757-1.14 0-2.16-.269-3.05-.808-.9-.539-1.58-1.313-2.07-2.321-.48-1.007-.72-2.187-.72-3.539 0-2.093.52-3.722 1.57-4.886 1.04-1.172 2.5-1.758 4.36-1.758 1.79 0 3.22.598 4.27 1.793 1.07 1.195 1.6 2.812 1.6 4.851zm-9.79 0c0 1.641.33 2.891.99 3.75.65.86 1.62 1.289 2.89 1.289s2.24-.425 2.9-1.277c.66-.859.99-2.113.99-3.762 0-1.632-.33-2.871-.99-3.714-.66-.852-1.63-1.278-2.92-1.278-1.28 0-2.24.418-2.89 1.254-.64.836-.97 2.082-.97 3.738zm19.19-6.644c.57 0 1.08.047 1.53.14l-.27 1.805c-.53-.117-1-.176-1.4-.176-1.04 0-1.93.422-2.67 1.266-.74.844-1.11 1.895-1.11 3.152V160h-1.94v-12.844h1.6l.23 2.379h.09c.48-.836 1.05-1.48 1.72-1.933.68-.454 1.41-.68 2.22-.68zm10.7 13.078v-17.133h2v15.328h7.55V160h-9.55zm23.38-6.434c0 2.094-.52 3.731-1.58 4.911-1.05 1.171-2.51 1.757-4.37 1.757-1.15 0-2.17-.269-3.06-.808-.89-.539-1.57-1.313-2.06-2.321-.48-1.007-.73-2.187-.73-3.539 0-2.093.53-3.722 1.57-4.886 1.05-1.172 2.5-1.758 4.36-1.758 1.8 0 3.23.598 4.28 1.793 1.06 1.195 1.59 2.812 1.59 4.851zm-9.78 0c0 1.641.33 2.891.98 3.75.66.86 1.63 1.289 2.9 1.289s2.24-.425 2.89-1.277c.67-.859 1-2.113 1-3.762 0-1.632-.33-2.871-1-3.714-.65-.852-1.63-1.278-2.91-1.278-1.28 0-2.24.418-2.89 1.254-.65.836-.97 2.082-.97 3.738zm19.19-6.644c.57 0 1.08.047 1.53.14l-.27 1.805c-.53-.117-1-.176-1.4-.176-1.04 0-1.93.422-2.68 1.266-.73.844-1.1 1.895-1.1 3.152V160h-1.94v-12.844h1.6l.22 2.379h.1c.48-.836 1.05-1.48 1.72-1.933.67-.454 1.41-.68 2.22-.68zm9.48 13.312c-1.9 0-3.4-.578-4.5-1.734-1.09-1.156-1.64-2.762-1.64-4.816 0-2.071.51-3.715 1.52-4.934 1.03-1.219 2.4-1.828 4.12-1.828 1.6 0 2.88.531 3.82 1.594.93 1.054 1.4 2.449 1.4 4.183v1.231h-8.85c.04 1.508.42 2.652 1.14 3.433.73.782 1.75 1.172 3.06 1.172 1.38 0 2.75-.289 4.1-.867v1.734c-.69.297-1.34.508-1.96.633-.61.133-1.34.199-2.21.199zm-.53-11.683c-1.03 0-1.85.336-2.47 1.008-.61.671-.97 1.601-1.08 2.789h6.72c0-1.227-.28-2.164-.82-2.813-.55-.656-1.33-.984-2.35-.984zM1715.93 160v-8.355c0-1.024-.22-1.79-.65-2.297-.44-.516-1.12-.774-2.04-.774-1.21 0-2.11.348-2.69 1.043-.58.695-.86 1.766-.86 3.211V160h-1.95v-8.355c0-1.024-.22-1.79-.66-2.297-.43-.516-1.12-.774-2.05-.774-1.22 0-2.11.367-2.68 1.102-.56.726-.84 1.922-.84 3.586V160h-1.95v-12.844h1.58l.32 1.758h.09c.37-.625.89-1.113 1.55-1.465.67-.351 1.42-.527 2.25-.527 2.01 0 3.32.726 3.94 2.18h.09c.38-.672.94-1.204 1.66-1.594.73-.391 1.56-.586 2.49-.586 1.45 0 2.54.375 3.26 1.125.72.742 1.09 1.933 1.09 3.574V160h-1.95zm12.73 0v-17.133h2V160h-2zm12.51.234c-.84 0-1.6-.152-2.3-.457a4.412 4.412 0 01-1.73-1.429h-.14c.09.75.14 1.461.14 2.132v5.286h-1.95v-18.61h1.59l.27 1.758h.09c.5-.703 1.08-1.211 1.75-1.523.66-.313 1.42-.469 2.28-.469 1.7 0 3.02.582 3.94 1.746.93 1.164 1.39 2.797 1.39 4.898 0 2.11-.47 3.75-1.42 4.922-.93 1.164-2.24 1.746-3.91 1.746zm-.28-11.66c-1.31 0-2.26.364-2.85 1.09-.58.727-.89 1.883-.9 3.469v.433c0 1.805.3 3.098.9 3.879.6.774 1.57 1.16 2.9 1.16 1.11 0 1.97-.449 2.6-1.347.63-.899.95-2.137.95-3.715 0-1.602-.32-2.828-.95-3.68-.63-.859-1.51-1.289-2.65-1.289zm17.43 7.922c0 1.195-.45 2.117-1.34 2.766-.89.648-2.14.972-3.75.972-1.7 0-3.03-.269-3.98-.808v-1.805c.61.313 1.27.559 1.98.738.71.18 1.39.27 2.05.27 1.01 0 1.8-.16 2.34-.481.55-.328.82-.824.82-1.488 0-.5-.22-.926-.65-1.277-.43-.36-1.28-.781-2.53-1.266-1.2-.445-2.05-.832-2.56-1.16-.5-.336-.87-.715-1.12-1.137-.25-.422-.37-.925-.37-1.511 0-1.047.43-1.871 1.28-2.473.85-.609 2.02-.914 3.5-.914 1.39 0 2.74.281 4.06.844l-.69 1.582c-1.29-.532-2.46-.797-3.51-.797-.92 0-1.61.144-2.08.433-.47.289-.71.688-.71 1.196 0 .343.09.636.26.879.18.242.47.472.86.691.39.219 1.14.535 2.25.949 1.52.555 2.55 1.113 3.08 1.676.54.563.81 1.27.81 2.121zm5.12-9.34v8.332c0 1.047.24 1.828.72 2.344.47.516 1.22.773 2.23.773 1.35 0 2.33-.367 2.95-1.101.62-.734.93-1.934.93-3.598v-6.75h1.95V160h-1.61l-.28-1.723h-.1c-.4.633-.96 1.118-1.67 1.453-.7.336-1.51.504-2.41.504-1.56 0-2.74-.371-3.52-1.113-.77-.742-1.16-1.93-1.16-3.562v-8.403h1.97zM1792.85 160v-8.355c0-1.024-.22-1.79-.66-2.297-.44-.516-1.12-.774-2.04-.774-1.21 0-2.1.348-2.68 1.043-.58.695-.87 1.766-.87 3.211V160h-1.94v-8.355c0-1.024-.22-1.79-.66-2.297-.44-.516-1.12-.774-2.05-.774-1.22 0-2.12.367-2.69 1.102-.56.726-.84 1.922-.84 3.586V160h-1.94v-12.844h1.58l.31 1.758h.1c.36-.625.88-1.113 1.54-1.465a4.832 4.832 0 012.25-.527c2.01 0 3.32.726 3.94 2.18h.1c.38-.672.93-1.204 1.66-1.594.73-.391 1.55-.586 2.48-.586 1.46 0 2.54.375 3.26 1.125.73.742 1.09 1.933 1.09 3.574V160h-1.94zM1469.62 187l-3.28-9.539h-.07c.01.213.03.505.05.875.02.37.04.766.06 1.187.01.422.02.826.02 1.211V187h-1.7v-11.422h2.63l3.16 9.117h.05l3.27-9.117h2.63V187h-1.79v-6.359c0-.349 0-.727.01-1.133.02-.406.04-.792.05-1.156.02-.365.04-.657.05-.875h-.06l-3.42 9.523h-1.66zm13.18-8.812c1.09 0 1.92.242 2.47.726.57.484.85 1.24.85 2.266V187h-1.31l-.35-1.227h-.06c-.24.313-.5.571-.76.774a2.65 2.65 0 01-.9.453c-.34.104-.76.156-1.25.156-.51 0-.97-.094-1.38-.281a2.152 2.152 0 01-.96-.875c-.23-.391-.35-.885-.35-1.484 0-.891.33-1.56.99-2.008.67-.448 1.67-.696 3.02-.742l1.5-.055v-.453c0-.599-.14-1.026-.43-1.281-.27-.256-.66-.383-1.17-.383-.43 0-.85.062-1.26.187-.4.125-.8.279-1.18.461l-.6-1.297a6.794 6.794 0 013.13-.757zm1.5 4.679l-1.12.039c-.92.032-1.56.188-1.93.469-.37.281-.55.667-.55 1.156 0 .427.12.74.38.938.25.192.59.289 1.01.289.63 0 1.16-.18 1.58-.539.42-.365.63-.899.63-1.602v-.75zm6.45-.289l-2.89-4.226h2.1l1.97 3.039 1.99-3.039h2.08l-2.9 4.226 3.05 4.422h-2.1l-2.12-3.242-2.12 3.242h-2.09l3.03-4.422zm6.79 3.453c0-.427.11-.726.32-.898.23-.177.5-.266.82-.266.31 0 .59.089.81.266.23.172.34.471.34.898 0 .417-.11.719-.34.907-.22.182-.5.273-.81.273-.32 0-.59-.091-.82-.273-.21-.188-.32-.49-.32-.907zm0-6.687c0-.433.11-.737.32-.914.23-.177.5-.266.82-.266.31 0 .59.089.81.266.23.177.34.481.34.914 0 .411-.11.711-.34.898-.22.182-.5.274-.81.274-.32 0-.59-.092-.82-.274-.21-.187-.32-.487-.32-.898zm15.81-1.156c0 .515-.1.963-.31 1.343s-.5.693-.86.938c-.36.239-.78.411-1.25.515v.055c.91.115 1.6.401 2.06.859.47.459.71 1.066.71 1.821 0 .661-.16 1.252-.48 1.773-.32.516-.81.922-1.46 1.219-.66.297-1.5.445-2.53.445-.62 0-1.2-.049-1.73-.148a6.255 6.255 0 01-1.5-.477v-1.633c.48.24 1 .425 1.55.555.54.13 1.06.195 1.55.195.95 0 1.63-.177 2.04-.531.41-.359.61-.854.61-1.484 0-.406-.11-.74-.32-1-.21-.261-.53-.456-.98-.586-.43-.13-1-.195-1.69-.195h-1.01v-1.477h1.02c.66 0 1.19-.078 1.59-.234.4-.162.69-.383.87-.664.18-.282.27-.61.27-.985 0-.489-.16-.87-.48-1.14-.31-.276-.79-.414-1.41-.414-.39 0-.74.044-1.06.132-.31.089-.6.201-.86.336-.27.136-.52.282-.76.438l-.88-1.274c.43-.323.94-.596 1.54-.82.6-.224 1.3-.336 2.1-.336 1.17 0 2.07.253 2.71.758.63.5.95 1.172.95 2.016zm11.23 1.562h-2.1V187h-1.84v-7.25h-1.41v-.883l1.41-.539v-.601c0-.735.12-1.318.35-1.75.23-.433.57-.743 1-.93.43-.193.96-.289 1.56-.289.4 0 .76.034 1.09.101.32.063.6.136.82.219l-.47 1.391c-.18-.058-.38-.11-.6-.157a3.015 3.015 0 00-.7-.078c-.42 0-.72.131-.92.391-.19.26-.29.641-.29 1.141v.586h2.1v1.398zm3.46-1.398V187h-1.83v-8.648h1.83zm-.9-3.313c.28 0 .52.076.72.227.21.151.32.411.32.781 0 .364-.11.625-.32.781-.2.151-.44.227-.72.227a1.2 1.2 0 01-.74-.227c-.2-.156-.3-.417-.3-.781 0-.37.1-.63.3-.781a1.2 1.2 0 01.74-.227zm5.53 11.961h-1.84v-12.156h1.84V187zm6.22-8.812c.77 0 1.43.158 1.99.476.55.318.97.768 1.27 1.352.3.583.44 1.281.44 2.093v.985h-5.77c.02.838.25 1.484.67 1.937.43.453 1.04.68 1.81.68.56 0 1.05-.052 1.49-.156.44-.11.9-.269 1.37-.477v1.492c-.44.203-.88.352-1.32.446-.45.093-.99.14-1.61.14-.85 0-1.6-.164-2.25-.492a3.559 3.559 0 01-1.5-1.484c-.36-.657-.54-1.472-.54-2.446 0-.968.16-1.791.49-2.468.33-.677.79-1.193 1.38-1.547.6-.354 1.29-.531 2.08-.531zm0 1.382c-.58 0-1.05.188-1.41.563-.35.375-.56.924-.62 1.648h3.94a3.134 3.134 0 00-.22-1.148 1.705 1.705 0 00-.63-.781c-.27-.188-.63-.282-1.06-.282zm11.74 4.961c0 .568-.14 1.047-.42 1.438-.27.39-.68.687-1.21.89-.52.198-1.17.297-1.94.297-.6 0-1.12-.044-1.56-.133a5.239 5.239 0 01-1.22-.39v-1.586c.41.193.87.359 1.38.5.51.141 1 .211 1.46.211.6 0 1.04-.094 1.3-.281.27-.193.4-.448.4-.766a.803.803 0 00-.16-.5c-.11-.151-.3-.305-.6-.461-.28-.161-.7-.354-1.26-.578a10.14 10.14 0 01-1.38-.656 2.464 2.464 0 01-.86-.789c-.19-.313-.28-.711-.28-1.196 0-.765.3-1.346.9-1.742.61-.401 1.42-.601 2.42-.601.53 0 1.03.054 1.5.164.47.104.93.257 1.39.46l-.58 1.383a8.977 8.977 0 00-1.18-.422 4.255 4.255 0 00-1.2-.171c-.47 0-.83.072-1.08.218-.25.146-.37.354-.37.625 0 .203.06.375.18.516.12.141.32.281.62.422.29.14.7.315 1.23.523a9.3 9.3 0 011.34.625c.38.214.67.477.87.789.21.313.31.716.31 1.211zm5.77-1.914c0-.875.08-1.729.25-2.562.17-.834.43-1.628.78-2.383.35-.755.79-1.453 1.32-2.094h1.6a10.84 10.84 0 00-1.69 3.305 12.635 12.635 0 00-.56 3.719c0 .828.08 1.648.25 2.46.17.813.42 1.594.75 2.344.33.755.74 1.464 1.23 2.125h-1.58a9.298 9.298 0 01-1.32-2.047c-.35-.739-.61-1.52-.78-2.343a12.44 12.44 0 01-.25-2.524zm13.04 4.383h-7.74v-1.383l2.96-3c.58-.583 1.05-1.086 1.42-1.508.37-.427.64-.83.82-1.211.18-.38.27-.794.27-1.242 0-.552-.16-.968-.48-1.25-.31-.286-.73-.429-1.25-.429-.5 0-.96.099-1.38.296a6.36 6.36 0 00-1.3.829l-1-1.211c.31-.271.65-.519 1.01-.743.37-.224.77-.401 1.22-.531.45-.135.96-.203 1.53-.203.73 0 1.35.13 1.88.391.52.255.93.612 1.21 1.07.28.458.43.992.43 1.602 0 .614-.12 1.182-.37 1.703-.24.521-.59 1.036-1.05 1.547a29.69 29.69 0 01-1.61 1.648l-1.98 1.93v.086h5.41V187zm5.45-7.141c.73 0 1.38.133 1.94.399.56.26 1 .646 1.31 1.156.31.505.47 1.125.47 1.859 0 .803-.17 1.495-.51 2.079-.34.578-.83 1.023-1.49 1.336-.66.312-1.46.468-2.4.468-.6 0-1.16-.052-1.68-.156a4.57 4.57 0 01-1.33-.469v-1.656c.39.219.85.398 1.4.539a6.57 6.57 0 001.57.203c.53 0 .99-.078 1.37-.234.38-.156.67-.396.87-.719.21-.323.32-.732.32-1.226 0-.657-.21-1.162-.64-1.516-.41-.36-1.07-.539-1.96-.539-.31 0-.64.028-1 .086-.35.052-.64.109-.87.172l-.81-.477.43-5.586h5.94v1.617h-4.32l-.25 2.844c.19-.042.41-.081.67-.117.26-.042.59-.063.97-.063zm15.44 7.141l-3.29-9.539h-.07a38.726 38.726 0 01.11 2.062c.02.422.02.826.02 1.211V187h-1.7v-11.422h2.63l3.17 9.117h.05l3.27-9.117h2.62V187h-1.79v-6.359c0-.349.01-.727.02-1.133.02-.406.03-.792.05-1.156.02-.365.03-.657.04-.875h-.06l-3.41 9.523h-1.66zm9.97-11.422h3.4c1.47 0 2.59.214 3.34.641.75.427 1.12 1.164 1.12 2.211 0 .437-.08.833-.23 1.187-.15.349-.38.638-.67.867-.29.224-.65.375-1.08.454v.078c.45.078.84.216 1.18.414.35.198.63.481.82.851.21.37.31.849.31 1.438 0 .698-.17 1.291-.5 1.781-.33.49-.8.862-1.42 1.117-.6.255-1.33.383-2.17.383h-4.1v-11.422zm1.88 4.711h1.79c.85 0 1.44-.138 1.77-.414.33-.276.49-.68.49-1.211 0-.542-.19-.932-.58-1.172-.39-.239-1-.359-1.85-.359h-1.62v3.156zm0 1.516v3.625h1.97c.88 0 1.49-.17 1.85-.508.35-.339.53-.797.53-1.375 0-.354-.08-.662-.24-.922-.16-.26-.42-.461-.78-.602-.36-.145-.84-.218-1.45-.218h-1.88zm16.16 3.867c.24 0 .47-.021.71-.063.23-.047.44-.101.64-.164v1.391a4.05 4.05 0 01-.79.226c-.32.063-.66.094-1.01.094-.49 0-.93-.08-1.32-.242-.39-.167-.7-.45-.93-.852-.23-.401-.34-.955-.34-1.664v-4.648h-1.18v-.82l1.26-.649.6-1.851h1.16v1.922h2.48v1.398h-2.48v4.625c0 .437.11.763.33.977.22.213.51.32.87.32zm10.91-3.016c0 .719-.09 1.357-.28 1.914-.19.558-.46 1.029-.82 1.414a3.58 3.58 0 01-1.3.875c-.5.198-1.07.297-1.71.297-.59 0-1.14-.099-1.63-.297-.5-.203-.93-.494-1.29-.875a4.03 4.03 0 01-.84-1.414c-.19-.557-.29-1.195-.29-1.914 0-.953.16-1.76.49-2.422.33-.666.81-1.174 1.42-1.523.62-.349 1.35-.523 2.2-.523.79 0 1.5.174 2.11.523.61.349 1.08.857 1.43 1.523.34.667.51 1.474.51 2.422zm-6.27 0c0 .63.07 1.17.22 1.617.16.448.4.792.72 1.032.33.234.74.351 1.25.351s.93-.117 1.25-.351c.33-.24.56-.584.71-1.032.16-.447.23-.987.23-1.617s-.07-1.164-.23-1.601c-.15-.443-.38-.779-.71-1.008-.32-.235-.74-.352-1.25-.352-.76 0-1.32.256-1.67.766-.35.51-.52 1.242-.52 2.195zm11.75 3.016c.24 0 .48-.021.71-.063.24-.047.45-.101.64-.164v1.391c-.2.088-.46.164-.79.226-.32.063-.66.094-1.01.094-.49 0-.93-.08-1.32-.242-.39-.167-.7-.45-.93-.852-.22-.401-.34-.955-.34-1.664v-4.648h-1.18v-.82l1.27-.649.6-1.851h1.15v1.922h2.48v1.398h-2.48v4.625c0 .437.11.763.33.977.22.213.51.32.87.32zm6.65-7.484c1.09 0 1.92.242 2.48.726s.84 1.24.84 2.266V187h-1.3l-.36-1.227h-.06c-.24.313-.5.571-.76.774a2.65 2.65 0 01-.9.453c-.34.104-.76.156-1.25.156-.51 0-.97-.094-1.38-.281a2.26 2.26 0 01-.96-.875c-.23-.391-.35-.885-.35-1.484 0-.891.33-1.56.99-2.008.67-.448 1.67-.696 3.02-.742l1.5-.055v-.453c0-.599-.14-1.026-.42-1.281-.28-.256-.67-.383-1.18-.383-.43 0-.85.062-1.25.187-.41.125-.81.279-1.19.461l-.6-1.297a6.746 6.746 0 013.13-.757zm1.5 4.679l-1.12.039c-.91.032-1.56.188-1.93.469-.37.281-.55.667-.55 1.156 0 .427.13.74.38.938.26.192.59.289 1.01.289.63 0 1.16-.18 1.58-.539.42-.365.63-.899.63-1.602v-.75zm6.38 4.133h-1.84v-12.156h1.84V187zm5.9-4.391c0 .865-.09 1.709-.25 2.532-.17.823-.43 1.604-.78 2.343-.34.74-.78 1.422-1.33 2.047h-1.57c.49-.661.9-1.37 1.23-2.125.33-.755.58-1.539.75-2.351.17-.813.25-1.633.25-2.461 0-.844-.08-1.677-.26-2.5-.16-.823-.41-1.615-.75-2.375a10.28 10.28 0 00-1.24-2.141h1.59a8.65 8.65 0 011.33 2.094c.35.755.61 1.549.78 2.383.16.828.25 1.679.25 2.554zM1394.12 713.578c.99 0 1.8.12 2.44.36.65.239 1.13.604 1.44 1.093.32.49.48 1.112.48 1.867 0 .563-.11 1.042-.32 1.438a2.96 2.96 0 01-.82.984 4.7 4.7 0 01-1.08.625l3.24 5.055h-2.12l-2.76-4.578h-1.83V725h-1.88v-11.422h3.21zm-.12 1.563h-1.21v3.734h1.29c.87 0 1.5-.161 1.9-.484.39-.323.59-.8.59-1.43 0-.662-.21-1.13-.63-1.406-.42-.276-1.07-.414-1.94-.414zm10.54 1.047c.77 0 1.43.158 1.98.476.56.318.98.768 1.28 1.352.29.583.44 1.281.44 2.093v.985h-5.77c.02.838.24 1.484.67 1.937.43.453 1.04.68 1.81.68.56 0 1.05-.052 1.49-.156.44-.11.9-.269 1.36-.477v1.492a5.92 5.92 0 01-1.32.446c-.44.093-.98.14-1.6.14-.85 0-1.6-.164-2.25-.492a3.559 3.559 0 01-1.5-1.484c-.36-.657-.54-1.472-.54-2.446 0-.968.16-1.791.49-2.468.33-.677.79-1.193 1.38-1.547.59-.354 1.29-.531 2.08-.531zm0 1.382c-.58 0-1.05.188-1.41.563-.35.375-.56.924-.62 1.648h3.94a3.134 3.134 0 00-.22-1.148 1.705 1.705 0 00-.63-.781c-.27-.188-.63-.282-1.06-.282zm8.83 7.586c-1.03 0-1.86-.375-2.49-1.125-.62-.755-.93-1.867-.93-3.336 0-1.484.32-2.606.95-3.367.64-.76 1.47-1.14 2.51-1.14.44 0 .82.059 1.15.179.32.115.61.271.84.469.24.198.44.419.61.664h.09c-.03-.161-.06-.393-.1-.695a8.917 8.917 0 01-.05-.852v-3.109h1.85V725h-1.44l-.33-1.18h-.08a2.753 2.753 0 01-1.43 1.157 3.37 3.37 0 01-1.15.179zm.51-1.492c.79 0 1.35-.226 1.67-.68.32-.453.49-1.132.5-2.039v-.242c0-.969-.16-1.711-.47-2.226-.31-.521-.88-.782-1.71-.782-.66 0-1.17.269-1.52.805-.34.531-.51 1.273-.51 2.227 0 .953.17 1.682.51 2.187.35.5.86.75 1.53.75zm13.91 1.492c-1.03 0-1.86-.375-2.48-1.125-.62-.755-.93-1.867-.93-3.336 0-1.484.31-2.606.95-3.367.63-.76 1.47-1.14 2.5-1.14.44 0 .82.059 1.15.179.33.115.61.271.85.469.23.198.44.419.6.664h.09a8.842 8.842 0 01-.09-.695 8.917 8.917 0 01-.05-.852v-3.109h1.84V725h-1.43l-.33-1.18h-.08c-.16.25-.35.477-.59.68-.24.198-.52.357-.85.477-.32.119-.7.179-1.15.179zm.52-1.492c.79 0 1.34-.226 1.66-.68.33-.453.49-1.132.5-2.039v-.242c0-.969-.15-1.711-.47-2.226-.31-.521-.88-.782-1.71-.782-.66 0-1.16.269-1.51.805-.35.531-.52 1.273-.52 2.227 0 .953.17 1.682.52 2.187.35.5.86.75 1.53.75zm14.35-3.008c0 .719-.09 1.357-.28 1.914-.19.558-.46 1.029-.82 1.414a3.58 3.58 0 01-1.3.875c-.5.198-1.07.297-1.71.297-.59 0-1.13-.099-1.63-.297a3.813 3.813 0 01-1.29-.875 3.867 3.867 0 01-.83-1.414c-.2-.557-.3-1.195-.3-1.914 0-.953.16-1.76.49-2.422.33-.666.81-1.174 1.42-1.523.62-.349 1.35-.523 2.2-.523.79 0 1.5.174 2.11.523.61.349 1.08.857 1.43 1.523.34.667.51 1.474.51 2.422zm-6.27 0c0 .63.07 1.17.23 1.617.15.448.39.792.71 1.032.33.234.74.351 1.25.351s.93-.117 1.25-.351c.33-.24.56-.584.72-1.032.15-.447.22-.987.22-1.617s-.07-1.164-.22-1.601c-.16-.443-.39-.779-.72-1.008-.32-.235-.74-.352-1.25-.352-.76 0-1.32.256-1.67.766-.35.51-.52 1.242-.52 2.195zm11.75 3.016c.24 0 .48-.021.71-.063.24-.047.45-.101.64-.164v1.391c-.2.088-.46.164-.79.226-.32.063-.66.094-1 .094-.49 0-.93-.08-1.32-.242-.4-.167-.71-.45-.93-.852-.23-.401-.35-.955-.35-1.664v-4.648h-1.18v-.82l1.27-.649.6-1.851h1.16v1.922h2.47v1.398h-2.47v4.625c0 .437.1.763.32.977.22.213.51.32.87.32zm6.48 0c.24 0 .48-.021.71-.063.23-.047.45-.101.64-.164v1.391c-.2.088-.47.164-.79.226-.32.063-.66.094-1.01.094-.49 0-.93-.08-1.32-.242-.39-.167-.7-.45-.93-.852-.23-.401-.34-.955-.34-1.664v-4.648h-1.18v-.82l1.27-.649.6-1.851h1.15v1.922h2.48v1.398h-2.48v4.625c0 .437.11.763.33.977.22.213.51.32.87.32zm6.7-7.484c.77 0 1.44.158 1.99.476.55.318.97.768 1.27 1.352.3.583.45 1.281.45 2.093v.985h-5.78c.02.838.25 1.484.68 1.937.43.453 1.03.68 1.81.68.55 0 1.04-.052 1.48-.156.44-.11.9-.269 1.37-.477v1.492a5.92 5.92 0 01-1.32.446c-.45.093-.99.14-1.61.14-.85 0-1.6-.164-2.24-.492a3.582 3.582 0 01-1.51-1.484c-.36-.657-.54-1.472-.54-2.446 0-.968.16-1.791.49-2.468.33-.677.79-1.193 1.39-1.547.59-.354 1.28-.531 2.07-.531zm0 1.382c-.57 0-1.04.188-1.4.563-.36.375-.57.924-.63 1.648h3.94a3.134 3.134 0 00-.22-1.148 1.626 1.626 0 00-.62-.781c-.28-.188-.63-.282-1.07-.282zm8.83 7.586c-1.03 0-1.86-.375-2.48-1.125-.62-.755-.93-1.867-.93-3.336 0-1.484.31-2.606.94-3.367.64-.76 1.48-1.14 2.51-1.14.44 0 .82.059 1.15.179.33.115.61.271.84.469.24.198.45.419.61.664h.09a8.842 8.842 0 01-.09-.695 6.526 6.526 0 01-.05-.852v-3.109h1.84V725h-1.43l-.33-1.18h-.08c-.16.25-.36.477-.59.68-.24.198-.52.357-.85.477-.32.119-.7.179-1.15.179zm.52-1.492c.79 0 1.34-.226 1.66-.68.33-.453.49-1.132.5-2.039v-.242c0-.969-.15-1.711-.47-2.226-.31-.521-.88-.782-1.71-.782-.66 0-1.16.269-1.51.805-.35.531-.52 1.273-.52 2.227 0 .953.17 1.682.52 2.187.35.5.86.75 1.53.75zm12.85 1.336h-1.85v-12.156h1.85V725zm4.61-8.648V725h-1.84v-8.648h1.84zm-.91-3.313c.28 0 .52.076.73.227.21.151.31.411.31.781 0 .364-.1.625-.31.781-.21.151-.45.227-.73.227a1.2 1.2 0 01-.74-.227c-.2-.156-.3-.417-.3-.781 0-.37.1-.63.3-.781a1.2 1.2 0 01.74-.227zm8.2 3.149c.97 0 1.73.252 2.27.757.55.5.82 1.305.82 2.414V725h-1.83v-5.297c0-.672-.14-1.174-.42-1.508-.28-.338-.7-.507-1.28-.507-.84 0-1.42.257-1.75.773-.32.516-.48 1.263-.48 2.242V725h-1.84v-8.648h1.43l.26 1.171h.1a2.6 2.6 0 01.69-.742c.29-.198.6-.346.94-.445.35-.099.71-.148 1.09-.148zm9.26 0c.77 0 1.43.158 1.98.476.55.318.98.768 1.27 1.352.3.583.45 1.281.45 2.093v.985h-5.77c.02.838.24 1.484.67 1.937.43.453 1.03.68 1.81.68.55 0 1.05-.052 1.49-.156.44-.11.89-.269 1.36-.477v1.492a5.92 5.92 0 01-1.32.446c-.45.093-.98.14-1.61.14-.85 0-1.59-.164-2.24-.492a3.639 3.639 0 01-1.51-1.484c-.36-.657-.54-1.472-.54-2.446 0-.968.17-1.791.5-2.468.32-.677.78-1.193 1.38-1.547.59-.354 1.28-.531 2.08-.531zm0 1.382c-.58 0-1.05.188-1.41.563-.35.375-.56.924-.62 1.648h3.93c0-.432-.08-.815-.22-1.148a1.626 1.626 0 00-.62-.781c-.28-.188-.63-.282-1.06-.282zm12.06-1.218V725h-1.83v-8.648h1.83zm-.9-3.313c.28 0 .52.076.72.227.21.151.32.411.32.781 0 .364-.11.625-.32.781-.2.151-.44.227-.72.227-.3 0-.54-.076-.75-.227-.19-.156-.29-.417-.29-.781 0-.37.1-.63.29-.781.21-.151.45-.227.75-.227zm9.5 9.492c0 .568-.14 1.047-.42 1.438-.27.39-.68.687-1.21.89-.52.198-1.17.297-1.93.297-.61 0-1.13-.044-1.57-.133a5.239 5.239 0 01-1.22-.39v-1.586c.41.193.87.359 1.38.5.51.141 1 .211 1.46.211.6 0 1.04-.094 1.3-.281.27-.193.4-.448.4-.766a.803.803 0 00-.16-.5c-.11-.151-.3-.305-.59-.461-.29-.161-.71-.354-1.27-.578a10.14 10.14 0 01-1.38-.656c-.38-.219-.66-.482-.85-.789-.2-.313-.29-.711-.29-1.196 0-.765.3-1.346.9-1.742.61-.401 1.42-.601 2.42-.601.53 0 1.03.054 1.5.164.47.104.93.257 1.39.46l-.58 1.383a8.977 8.977 0 00-1.18-.422 4.255 4.255 0 00-1.2-.171c-.47 0-.83.072-1.08.218-.25.146-.37.354-.37.625 0 .203.06.375.18.516.12.141.33.281.62.422.29.14.71.315 1.23.523a9.3 9.3 0 011.34.625c.38.214.67.477.87.789.21.313.31.716.31 1.211zm9.83-6.343c1.09 0 1.92.242 2.48.726s.84 1.24.84 2.266V725h-1.31l-.35-1.227h-.06c-.24.313-.5.571-.76.774a2.65 2.65 0 01-.9.453c-.34.104-.76.156-1.25.156-.51 0-.97-.094-1.38-.281-.4-.193-.73-.484-.96-.875-.23-.391-.35-.885-.35-1.484 0-.891.33-1.56.99-2.008.67-.448 1.67-.696 3.02-.742l1.5-.055v-.453c0-.599-.14-1.026-.43-1.281-.27-.256-.66-.383-1.17-.383-.43 0-.85.062-1.25.187-.41.125-.81.279-1.19.461l-.6-1.297a6.794 6.794 0 013.13-.757zm1.5 4.679l-1.12.039c-.92.032-1.56.188-1.93.469-.37.281-.55.667-.55 1.156 0 .427.12.74.38.938.26.192.59.289 1.01.289.63 0 1.16-.18 1.58-.539.42-.365.63-.899.63-1.602v-.75zm10.82 4.133l-3.29-8.648h1.95l1.78 5.078c.11.323.22.672.31 1.047.1.375.16.69.2.945h.06c.04-.266.11-.583.21-.953.11-.375.21-.722.32-1.039l1.78-5.078h1.94l-3.29 8.648h-1.97zm8.56-8.648V725h-1.84v-8.648h1.84zm-.91-3.313c.28 0 .53.076.73.227.21.151.31.411.31.781 0 .364-.1.625-.31.781-.2.151-.45.227-.73.227a1.2 1.2 0 01-.74-.227c-.2-.156-.3-.417-.3-.781 0-.37.1-.63.3-.781a1.2 1.2 0 01.74-.227zm9.5 9.492c0 .568-.13 1.047-.41 1.438-.28.39-.68.687-1.21.89-.53.198-1.17.297-1.94.297-.6 0-1.12-.044-1.56-.133a5.476 5.476 0 01-1.23-.39v-1.586c.41.193.87.359 1.39.5.51.141 1 .211 1.46.211.6 0 1.04-.094 1.3-.281.27-.193.4-.448.4-.766a.87.87 0 00-.16-.5c-.11-.151-.31-.305-.6-.461-.29-.161-.71-.354-1.26-.578-.55-.219-1.01-.438-1.39-.656-.37-.219-.66-.482-.85-.789-.19-.313-.29-.711-.29-1.196 0-.765.3-1.346.91-1.742.61-.401 1.41-.601 2.41-.601.53 0 1.03.054 1.5.164.48.104.94.257 1.39.46l-.57 1.383c-.4-.172-.79-.312-1.18-.422-.4-.114-.79-.171-1.2-.171-.47 0-.84.072-1.09.218a.692.692 0 00-.36.625c0 .203.06.375.18.516.12.141.32.281.61.422.3.14.71.315 1.24.523.51.198.96.406 1.33.625.38.214.68.477.88.789.2.313.3.716.3 1.211zm9.68-6.179V725h-1.45l-.25-1.164h-.1a2.46 2.46 0 01-.69.742c-.29.193-.6.336-.94.43-.35.099-.71.148-1.09.148-.65 0-1.21-.109-1.67-.328a2.284 2.284 0 01-1.05-1.031c-.25-.464-.37-1.063-.37-1.797v-5.648h1.84v5.304c0 .672.14 1.175.41 1.508.27.333.7.5 1.28.5.56 0 1-.115 1.33-.344.33-.229.56-.567.69-1.015.14-.448.21-.998.21-1.649v-4.304h1.85zm6.17-.164c1.09 0 1.92.242 2.48.726s.84 1.24.84 2.266V725h-1.3l-.36-1.227h-.06c-.24.313-.5.571-.76.774a2.65 2.65 0 01-.9.453c-.34.104-.75.156-1.24.156-.52 0-.98-.094-1.39-.281a2.26 2.26 0 01-.96-.875c-.23-.391-.35-.885-.35-1.484 0-.891.33-1.56.99-2.008.67-.448 1.67-.696 3.02-.742l1.5-.055v-.453c0-.599-.14-1.026-.42-1.281-.28-.256-.67-.383-1.18-.383-.43 0-.85.062-1.25.187-.41.125-.81.279-1.19.461l-.59-1.297a6.702 6.702 0 013.12-.757zm1.5 4.679l-1.12.039c-.91.032-1.56.188-1.93.469-.37.281-.55.667-.55 1.156 0 .427.13.74.38.938.26.192.59.289 1.01.289.64 0 1.16-.18 1.58-.539.42-.365.63-.899.63-1.602v-.75zm6.39 4.133h-1.85v-12.156h1.85V725zm4.61-8.648V725h-1.84v-8.648h1.84zm-.91-3.313c.28 0 .52.076.73.227.2.151.31.411.31.781 0 .364-.11.625-.31.781-.21.151-.45.227-.73.227a1.2 1.2 0 01-.74-.227c-.2-.156-.3-.417-.3-.781 0-.37.1-.63.3-.781a1.2 1.2 0 01.74-.227zm9.48 11.961h-6.57v-1.133l4.36-6.101h-4.1v-1.414h6.18v1.25l-4.28 5.984h4.41V725zm5.41-8.812c1.09 0 1.91.242 2.47.726.56.484.85 1.24.85 2.266V725h-1.31l-.35-1.227h-.06c-.25.313-.5.571-.76.774-.26.203-.56.354-.91.453-.34.104-.75.156-1.24.156-.51 0-.98-.094-1.38-.281a2.152 2.152 0 01-.96-.875c-.24-.391-.35-.885-.35-1.484 0-.891.33-1.56.99-2.008.66-.448 1.67-.696 3.01-.742l1.5-.055v-.453c0-.599-.14-1.026-.42-1.281-.27-.256-.67-.383-1.17-.383-.43 0-.85.062-1.26.187-.4.125-.8.279-1.19.461l-.59-1.297c.42-.224.9-.406 1.44-.547.54-.14 1.1-.21 1.69-.21zm1.5 4.679l-1.12.039c-.92.032-1.56.188-1.93.469-.37.281-.56.667-.56 1.156 0 .427.13.74.39.938.25.192.59.289 1 .289.64 0 1.17-.18 1.58-.539.42-.365.64-.899.64-1.602v-.75zm7.76 2.805c.23 0 .47-.021.71-.063.23-.047.44-.101.64-.164v1.391a4.05 4.05 0 01-.79.226c-.33.063-.66.094-1.01.094-.49 0-.93-.08-1.32-.242-.39-.167-.7-.45-.93-.852-.23-.401-.34-.955-.34-1.664v-4.648h-1.18v-.82l1.26-.649.6-1.851h1.16v1.922h2.48v1.398h-2.48v4.625c0 .437.11.763.33.977.22.213.51.32.87.32zm5.09-7.32V725h-1.84v-8.648h1.84zm-.91-3.313c.29 0 .53.076.73.227.21.151.31.411.31.781 0 .364-.1.625-.31.781-.2.151-.44.227-.73.227s-.53-.076-.74-.227c-.2-.156-.29-.417-.29-.781 0-.37.09-.63.29-.781.21-.151.45-.227.74-.227zm11.35 7.617c0 .719-.09 1.357-.28 1.914-.19.558-.46 1.029-.82 1.414a3.58 3.58 0 01-1.3.875c-.5.198-1.07.297-1.71.297-.59 0-1.14-.099-1.63-.297-.5-.203-.93-.494-1.29-.875a4.03 4.03 0 01-.84-1.414c-.2-.557-.29-1.195-.29-1.914 0-.953.16-1.76.49-2.422.33-.666.8-1.174 1.42-1.523.61-.349 1.35-.523 2.19-.523.8 0 1.5.174 2.11.523.61.349 1.09.857 1.43 1.523.35.667.52 1.474.52 2.422zm-6.27 0c0 .63.07 1.17.22 1.617.16.448.4.792.72 1.032.32.234.74.351 1.25.351s.93-.117 1.25-.351c.32-.24.56-.584.71-1.032.15-.447.23-.987.23-1.617s-.08-1.164-.23-1.601c-.15-.443-.39-.779-.71-1.008-.32-.235-.74-.352-1.26-.352-.76 0-1.31.256-1.66.766-.35.51-.52 1.242-.52 2.195zm13.04-4.468c.97 0 1.73.252 2.27.757.55.5.82 1.305.82 2.414V725h-1.84v-5.297c0-.672-.13-1.174-.41-1.508-.28-.338-.7-.507-1.28-.507-.84 0-1.42.257-1.75.773-.32.516-.49 1.263-.49 2.242V725h-1.83v-8.648h1.43l.26 1.171h.1a2.6 2.6 0 01.69-.742c.28-.198.6-.346.94-.445.35-.099.71-.148 1.09-.148zm17.77 4.468c0 .719-.09 1.357-.28 1.914-.19.558-.46 1.029-.82 1.414a3.58 3.58 0 01-1.3.875c-.5.198-1.07.297-1.71.297-.59 0-1.13-.099-1.63-.297a3.813 3.813 0 01-1.29-.875 3.867 3.867 0 01-.83-1.414c-.2-.557-.3-1.195-.3-1.914 0-.953.16-1.76.49-2.422.33-.666.81-1.174 1.42-1.523.62-.349 1.35-.523 2.2-.523.8 0 1.5.174 2.11.523.61.349 1.08.857 1.43 1.523.34.667.51 1.474.51 2.422zm-6.27 0c0 .63.08 1.17.23 1.617.15.448.39.792.72 1.032.32.234.73.351 1.25.351.51 0 .92-.117 1.25-.351.32-.24.55-.584.71-1.032.15-.447.22-.987.22-1.617s-.07-1.164-.22-1.601c-.16-.443-.39-.779-.71-1.008-.33-.235-.75-.352-1.26-.352-.76 0-1.32.256-1.67.766-.35.51-.52 1.242-.52 2.195zm12.85-2.906h-2.1V725h-1.83v-7.25h-1.42v-.883l1.42-.539v-.601c0-.735.11-1.318.34-1.75.23-.433.57-.743 1-.93.44-.193.96-.289 1.56-.289.4 0 .76.034 1.09.101.33.063.6.136.83.219l-.48 1.391a6.77 6.77 0 00-.59-.157 3.102 3.102 0 00-.71-.078c-.41 0-.72.131-.92.391-.19.26-.29.641-.29 1.141v.586h2.1v1.398zm9.15 5.922c.24 0 .48-.021.72-.063.23-.047.44-.101.64-.164v1.391a4.05 4.05 0 01-.79.226c-.33.063-.66.094-1.01.094-.49 0-.93-.08-1.32-.242-.39-.167-.7-.45-.93-.852-.23-.401-.34-.955-.34-1.664v-4.648h-1.18v-.82l1.26-.649.6-1.851h1.16v1.922h2.48v1.398h-2.48v4.625c0 .437.11.763.33.977.22.213.51.32.86.32zm5.1-10.828v3.054c0 .318-.01.628-.03.93-.02.302-.04.537-.06.703h.11c.18-.302.4-.549.67-.742.26-.198.56-.346.89-.445.33-.099.69-.149 1.06-.149.66 0 1.22.112 1.69.336.46.219.82.56 1.06 1.024.25.463.38 1.065.38 1.804V725h-1.84v-5.297c0-.672-.14-1.174-.41-1.508-.28-.338-.71-.507-1.29-.507-.55 0-1 .117-1.32.351-.33.229-.56.57-.7 1.023-.14.448-.21.995-.21 1.641V725h-1.84v-12.156h1.84zm11.93 3.344c.77 0 1.43.158 1.99.476.55.318.97.768 1.27 1.352.3.583.44 1.281.44 2.093v.985h-5.77c.02.838.25 1.484.67 1.937.43.453 1.04.68 1.82.68.55 0 1.04-.052 1.48-.156.44-.11.9-.269 1.37-.477v1.492c-.44.203-.88.352-1.32.446-.45.093-.99.14-1.61.14-.85 0-1.6-.164-2.25-.492a3.559 3.559 0 01-1.5-1.484c-.36-.657-.54-1.472-.54-2.446 0-.968.16-1.791.49-2.468.33-.677.79-1.193 1.38-1.547.6-.354 1.29-.531 2.08-.531zm0 1.382c-.58 0-1.05.188-1.41.563-.35.375-.56.924-.62 1.648h3.94a3.134 3.134 0 00-.22-1.148 1.705 1.705 0 00-.63-.781c-.27-.188-.63-.282-1.06-.282zm13.14 7.586c-1.03 0-1.86-.375-2.49-1.125-.62-.755-.93-1.867-.93-3.336 0-1.484.32-2.606.95-3.367.63-.76 1.47-1.14 2.51-1.14.43 0 .82.059 1.14.179.33.115.61.271.85.469.24.198.44.419.61.664h.08l-.09-.695a8.917 8.917 0 01-.05-.852v-3.109h1.85V725h-1.44l-.33-1.18h-.08a2.753 2.753 0 01-1.43 1.157 3.37 3.37 0 01-1.15.179zm.51-1.492c.79 0 1.34-.226 1.67-.68.32-.453.49-1.132.5-2.039v-.242c0-.969-.16-1.711-.47-2.226-.31-.521-.89-.782-1.71-.782-.66 0-1.17.269-1.52.805-.34.531-.51 1.273-.51 2.227 0 .953.17 1.682.51 2.187.35.5.86.75 1.53.75zm11.08-7.476a5.12 5.12 0 01.92.085l-.17 1.719a2.337 2.337 0 00-.4-.07c-.16-.016-.3-.024-.43-.024-.32 0-.64.055-.93.164-.3.105-.56.266-.79.485-.23.213-.41.482-.54.805-.13.322-.2.697-.2 1.125V725h-1.84v-8.648h1.44l.25 1.523h.08c.17-.307.39-.589.64-.844.26-.255.55-.458.88-.609.33-.156.7-.234 1.09-.234zm10.33 4.468c0 .719-.09 1.357-.28 1.914-.19.558-.46 1.029-.82 1.414a3.58 3.58 0 01-1.3.875c-.5.198-1.07.297-1.71.297-.59 0-1.14-.099-1.63-.297-.5-.203-.92-.494-1.29-.875a4.03 4.03 0 01-.84-1.414c-.19-.557-.29-1.195-.29-1.914 0-.953.16-1.76.49-2.422.33-.666.81-1.174 1.42-1.523.62-.349 1.35-.523 2.2-.523.79 0 1.5.174 2.11.523.61.349 1.08.857 1.43 1.523.34.667.51 1.474.51 2.422zm-6.27 0c0 .63.07 1.17.23 1.617.15.448.39.792.71 1.032.33.234.74.351 1.25.351s.93-.117 1.25-.351c.33-.24.56-.584.71-1.032.16-.447.23-.987.23-1.617s-.07-1.164-.23-1.601c-.15-.443-.38-.779-.71-1.008-.32-.235-.74-.352-1.25-.352-.76 0-1.32.256-1.67.766-.35.51-.52 1.242-.52 2.195zm12.97-4.468c1.02 0 1.85.374 2.47 1.124.62.75.94 1.865.94 3.344 0 .979-.15 1.805-.44 2.477-.29.666-.69 1.172-1.21 1.515-.52.339-1.12.508-1.81.508-.44 0-.82-.057-1.14-.172a2.9 2.9 0 01-.83-.445 2.926 2.926 0 01-.57-.609h-.11c.02.208.05.44.07.695.02.25.04.479.04.687v3.524h-1.85v-12.484h1.5l.26 1.195h.09c.16-.245.35-.471.58-.68.24-.208.52-.372.84-.492a3.38 3.38 0 011.17-.187zm-.49 1.5c-.51 0-.91.101-1.22.304-.3.198-.53.498-.67.899-.13.401-.2.903-.21 1.507v.258c0 .641.06 1.185.19 1.633.14.443.36.781.66 1.016.32.229.74.343 1.27.343.45 0 .82-.122 1.11-.367.3-.245.52-.593.66-1.047.15-.453.22-.987.22-1.601 0-.932-.16-1.656-.5-2.172-.33-.516-.83-.773-1.51-.773zm11.96 7.312h-6.57v-1.133l4.37-6.101h-4.11v-1.414h6.18v1.25l-4.28 5.984h4.41V725zm9.67-4.344c0 .719-.09 1.357-.28 1.914-.19.558-.46 1.029-.82 1.414a3.58 3.58 0 01-1.3.875c-.5.198-1.07.297-1.71.297-.59 0-1.13-.099-1.63-.297a3.813 3.813 0 01-1.29-.875 3.867 3.867 0 01-.83-1.414c-.2-.557-.3-1.195-.3-1.914 0-.953.16-1.76.49-2.422.33-.666.81-1.174 1.42-1.523.62-.349 1.35-.523 2.2-.523.79 0 1.5.174 2.11.523.61.349 1.08.857 1.43 1.523.34.667.51 1.474.51 2.422zm-6.27 0c0 .63.07 1.17.23 1.617.15.448.39.792.71 1.032.33.234.74.351 1.25.351s.93-.117 1.25-.351c.33-.24.56-.584.72-1.032.15-.447.22-.987.22-1.617s-.07-1.164-.22-1.601c-.16-.443-.39-.779-.72-1.008-.32-.235-.74-.352-1.25-.352-.76 0-1.32.256-1.67.766-.35.51-.52 1.242-.52 2.195zm13.04-4.468c.97 0 1.73.252 2.27.757.55.5.82 1.305.82 2.414V725h-1.83v-5.297c0-.672-.14-1.174-.42-1.508-.27-.338-.7-.507-1.28-.507-.84 0-1.42.257-1.75.773-.32.516-.48 1.263-.48 2.242V725h-1.84v-8.648h1.43l.26 1.171h.1c.19-.302.42-.549.7-.742.28-.198.59-.346.93-.445.35-.099.71-.148 1.09-.148zm9.26 0c.77 0 1.43.158 1.98.476.56.318.98.768 1.28 1.352.29.583.44 1.281.44 2.093v.985h-5.77c.02.838.24 1.484.67 1.937.43.453 1.04.68 1.81.68.56 0 1.05-.052 1.49-.156.44-.11.9-.269 1.36-.477v1.492a5.92 5.92 0 01-1.32.446c-.44.093-.98.14-1.6.14-.85 0-1.6-.164-2.25-.492a3.559 3.559 0 01-1.5-1.484c-.36-.657-.54-1.472-.54-2.446 0-.968.16-1.791.49-2.468.33-.677.79-1.193 1.38-1.547.59-.354 1.29-.531 2.08-.531zm0 1.382c-.58 0-1.05.188-1.41.563-.35.375-.56.924-.62 1.648h3.94a3.134 3.134 0 00-.22-1.148 1.705 1.705 0 00-.63-.781c-.27-.188-.63-.282-1.06-.282zm13.62-1.382c1.09 0 1.92.242 2.48.726s.84 1.24.84 2.266V725h-1.31l-.35-1.227h-.06c-.24.313-.5.571-.76.774a2.65 2.65 0 01-.9.453c-.34.104-.76.156-1.25.156-.51 0-.97-.094-1.38-.281a2.26 2.26 0 01-.96-.875c-.23-.391-.35-.885-.35-1.484 0-.891.33-1.56.99-2.008.67-.448 1.67-.696 3.02-.742l1.5-.055v-.453c0-.599-.14-1.026-.42-1.281-.28-.256-.67-.383-1.18-.383-.43 0-.85.062-1.25.187-.41.125-.81.279-1.19.461l-.6-1.297a6.746 6.746 0 013.13-.757zm1.5 4.679l-1.12.039c-.91.032-1.56.188-1.93.469-.37.281-.55.667-.55 1.156 0 .427.13.74.38.938.26.192.59.289 1.01.289.63 0 1.16-.18 1.58-.539.42-.365.63-.899.63-1.602v-.75zm8.02 4.289c-.81 0-1.52-.159-2.12-.476-.6-.318-1.06-.805-1.38-1.461-.33-.657-.49-1.49-.49-2.5 0-1.052.18-1.912.53-2.578.36-.667.85-1.159 1.47-1.477.63-.318 1.35-.476 2.17-.476.51 0 .98.052 1.39.156.43.099.78.221 1.07.367l-.54 1.469c-.32-.131-.65-.24-.98-.328a3.68 3.68 0 00-.96-.133c-.5 0-.93.112-1.27.336-.33.224-.58.557-.75 1-.16.442-.24.992-.24 1.648 0 .636.09 1.172.25 1.609.17.433.42.761.74.985.33.219.74.328 1.22.328.47 0 .89-.057 1.27-.172a5.65 5.65 0 001.06-.445v1.594c-.33.187-.68.325-1.05.414-.38.093-.84.14-1.39.14zm7.84-1.484c.24 0 .48-.021.71-.063.24-.047.45-.101.64-.164v1.391c-.2.088-.46.164-.79.226-.32.063-.65.094-1 .094-.49 0-.93-.08-1.32-.242-.39-.167-.7-.45-.93-.852-.23-.401-.35-.955-.35-1.664v-4.648h-1.18v-.82l1.27-.649.6-1.851h1.16v1.922h2.47v1.398h-2.47v4.625c0 .437.11.763.32.977.22.213.51.32.87.32zm5.1-7.32V725h-1.84v-8.648h1.84zm-.91-3.313c.28 0 .52.076.73.227.21.151.31.411.31.781 0 .364-.1.625-.31.781-.21.151-.45.227-.73.227a1.2 1.2 0 01-.74-.227c-.2-.156-.3-.417-.3-.781 0-.37.1-.63.3-.781a1.2 1.2 0 01.74-.227zm5.67 11.961l-3.29-8.648h1.94l1.78 5.078c.12.323.22.672.32 1.047.09.375.16.69.19.945h.06c.04-.266.11-.583.22-.953.1-.375.21-.722.32-1.039l1.78-5.078h1.93L1810.8 725h-1.97zm10.16-8.812c.77 0 1.43.158 1.99.476.55.318.97.768 1.27 1.352.3.583.45 1.281.45 2.093v.985h-5.78c.02.838.25 1.484.67 1.937.44.453 1.04.68 1.82.68.55 0 1.04-.052 1.48-.156.44-.11.9-.269 1.37-.477v1.492a5.92 5.92 0 01-1.32.446c-.45.093-.99.14-1.61.14-.85 0-1.6-.164-2.24-.492a3.582 3.582 0 01-1.51-1.484c-.36-.657-.54-1.472-.54-2.446 0-.968.16-1.791.49-2.468.33-.677.79-1.193 1.38-1.547.6-.354 1.29-.531 2.08-.531zm0 1.382c-.58 0-1.04.188-1.4.563-.36.375-.57.924-.63 1.648h3.94a3.134 3.134 0 00-.22-1.148 1.644 1.644 0 00-.63-.781c-.27-.188-.63-.282-1.06-.282zm13.62-1.382c1.1 0 1.92.242 2.48.726s.84 1.24.84 2.266V725h-1.3l-.35-1.227h-.07c-.24.313-.49.571-.75.774-.26.203-.57.354-.91.453-.34.104-.75.156-1.24.156-.52 0-.98-.094-1.38-.281a2.23 2.23 0 01-.97-.875c-.23-.391-.35-.885-.35-1.484 0-.891.33-1.56.99-2.008.67-.448 1.68-.696 3.02-.742l1.5-.055v-.453c0-.599-.14-1.026-.42-1.281-.28-.256-.67-.383-1.17-.383-.44 0-.85.062-1.26.187-.41.125-.8.279-1.19.461l-.59-1.297c.42-.224.9-.406 1.44-.547.54-.14 1.1-.21 1.68-.21zm1.5 4.679l-1.11.039c-.92.032-1.56.188-1.93.469-.37.281-.56.667-.56 1.156 0 .427.13.74.38.938.26.192.59.289 1.01.289.64 0 1.16-.18 1.58-.539.42-.365.63-.899.63-1.602v-.75zm8.93-4.679a5.076 5.076 0 01.92.085l-.17 1.719a2.472 2.472 0 00-.41-.07c-.16-.016-.3-.024-.42-.024-.33 0-.64.055-.94.164-.3.105-.56.266-.79.485-.23.213-.41.482-.54.805-.13.322-.19.697-.19 1.125V725h-1.85v-8.648h1.44l.25 1.523h.09c.17-.307.38-.589.64-.844.25-.255.54-.458.87-.609.34-.156.7-.234 1.1-.234zm6.11 0c.78 0 1.44.158 1.99.476.55.318.98.768 1.27 1.352.3.583.45 1.281.45 2.093v.985h-5.78c.03.838.25 1.484.68 1.937.43.453 1.03.68 1.81.68.55 0 1.05-.052 1.48-.156.45-.11.9-.269 1.37-.477v1.492a5.92 5.92 0 01-1.32.446c-.45.093-.98.14-1.61.14-.85 0-1.6-.164-2.24-.492a3.639 3.639 0 01-1.51-1.484c-.36-.657-.54-1.472-.54-2.446 0-.968.17-1.791.49-2.468.33-.677.79-1.193 1.39-1.547.59-.354 1.28-.531 2.07-.531zm0 1.382c-.57 0-1.04.188-1.4.563-.36.375-.56.924-.63 1.648h3.94c0-.432-.08-.815-.22-1.148a1.626 1.626 0 00-.62-.781c-.28-.188-.63-.282-1.07-.282zm9.32-1.382c1.09 0 1.92.242 2.48.726s.84 1.24.84 2.266V725h-1.31l-.35-1.227h-.06c-.24.313-.5.571-.76.774a2.65 2.65 0 01-.9.453c-.34.104-.76.156-1.25.156-.51 0-.97-.094-1.38-.281-.4-.193-.73-.484-.96-.875-.23-.391-.35-.885-.35-1.484 0-.891.33-1.56.99-2.008.67-.448 1.67-.696 3.02-.742l1.5-.055v-.453c0-.599-.14-1.026-.43-1.281-.27-.256-.66-.383-1.17-.383-.43 0-.85.062-1.26.187-.4.125-.8.279-1.18.461l-.6-1.297a6.794 6.794 0 013.13-.757zm1.5 4.679l-1.12.039c-.92.032-1.56.188-1.93.469-.37.281-.55.667-.55 1.156 0 .427.12.74.38.938.26.192.59.289 1.01.289.63 0 1.16-.18 1.58-.539.42-.365.63-.899.63-1.602v-.75zm15.92 4.125l-1.1-4.023c-.05-.198-.11-.438-.19-.719-.07-.281-.14-.57-.21-.867-.08-.302-.14-.581-.21-.836-.05-.255-.1-.453-.13-.594h-.06c-.03.141-.07.339-.13.594-.05.255-.12.534-.19.836-.08.302-.15.596-.22.883-.07.286-.13.531-.19.734l-1.15 3.992h-2.01l-2.42-8.648h1.85l1.13 4.297c.07.291.14.606.21.945.07.338.14.661.19.969.05.307.09.56.12.757h.06c.02-.14.05-.317.08-.531.04-.219.08-.445.13-.679.05-.24.09-.464.14-.672.05-.214.09-.386.13-.516l1.33-4.57h2.01l1.27 4.57c.06.198.12.448.19.75.07.297.13.596.18.898.06.297.09.545.11.743h.06c.02-.177.06-.417.11-.719.06-.307.12-.633.2-.977.07-.349.14-.671.22-.968l1.15-4.297h1.83l-2.44 8.648h-2.05zm7.96-12.148v3.054c0 .318-.01.628-.03.93-.02.302-.04.537-.06.703h.1c.19-.302.41-.549.68-.742.26-.198.56-.346.89-.445.33-.099.68-.149 1.06-.149.66 0 1.22.112 1.69.336.46.219.81.56 1.06 1.024.25.463.37 1.065.37 1.804V725h-1.83v-5.297c0-.672-.14-1.174-.42-1.508-.27-.338-.7-.507-1.28-.507-.55 0-1 .117-1.33.351-.32.229-.55.57-.69 1.023-.14.448-.21.995-.21 1.641V725h-1.84v-12.156h1.84zm10.32 3.508V725h-1.84v-8.648h1.84zm-.91-3.313c.29 0 .53.076.73.227.21.151.31.411.31.781 0 .364-.1.625-.31.781-.2.151-.44.227-.73.227s-.53-.076-.74-.227c-.2-.156-.29-.417-.29-.781 0-.37.09-.63.29-.781.21-.151.45-.227.74-.227zm7.18 12.117c-.82 0-1.53-.159-2.13-.476-.6-.318-1.06-.805-1.38-1.461-.32-.657-.48-1.49-.48-2.5 0-1.052.17-1.912.53-2.578.35-.667.84-1.159 1.47-1.477.63-.318 1.35-.476 2.16-.476.51 0 .98.052 1.4.156.42.099.78.221 1.07.367l-.55 1.469c-.32-.131-.64-.24-.98-.328a3.68 3.68 0 00-.96-.133c-.5 0-.92.112-1.26.336-.34.224-.59.557-.75 1-.16.442-.24.992-.24 1.648 0 .636.08 1.172.25 1.609.16.433.41.761.74.985.33.219.73.328 1.21.328.47 0 .9-.057 1.27-.172.38-.114.73-.263 1.07-.445v1.594c-.33.187-.68.325-1.06.414-.37.093-.84.14-1.38.14zm6.45-12.312v3.054c0 .318-.01.628-.03.93-.01.302-.03.537-.05.703h.1c.18-.302.4-.549.67-.742.27-.198.56-.346.89-.445.33-.099.69-.149 1.06-.149.66 0 1.23.112 1.69.336.46.219.82.56 1.06 1.024.25.463.38 1.065.38 1.804V725h-1.84v-5.297c0-.672-.14-1.174-.41-1.508-.28-.338-.71-.507-1.28-.507-.56 0-1 .117-1.33.351-.32.229-.56.57-.7 1.023-.14.448-.21.995-.21 1.641V725h-1.83v-12.156h1.83zm16.24 3.344c.77 0 1.43.158 1.98.476.56.318.98.768 1.28 1.352.29.583.44 1.281.44 2.093v.985h-5.77c.02.838.24 1.484.67 1.937.43.453 1.04.68 1.81.68.56 0 1.05-.052 1.49-.156.44-.11.9-.269 1.37-.477v1.492c-.44.203-.88.352-1.33.446-.44.093-.98.14-1.6.14-.85 0-1.6-.164-2.25-.492a3.559 3.559 0 01-1.5-1.484c-.36-.657-.54-1.472-.54-2.446 0-.968.16-1.791.49-2.468.33-.677.79-1.193 1.38-1.547.6-.354 1.29-.531 2.08-.531zm0 1.382c-.58 0-1.05.188-1.41.563-.35.375-.56.924-.62 1.648h3.94a3.134 3.134 0 00-.22-1.148 1.705 1.705 0 00-.63-.781c-.27-.188-.63-.282-1.06-.282zm7.84 3.008l-2.89-4.226h2.09l1.98 3.039 1.98-3.039h2.09l-2.91 4.226 3.06 4.422h-2.11l-2.11-3.242-2.13 3.242h-2.08l3.03-4.422zm10.26 3.094c.24 0 .48-.021.72-.063.23-.047.44-.101.64-.164v1.391a4.05 4.05 0 01-.79.226c-.33.063-.66.094-1.01.094-.49 0-.93-.08-1.32-.242-.39-.167-.7-.45-.93-.852-.23-.401-.34-.955-.34-1.664v-4.648h-1.18v-.82l1.26-.649.6-1.851h1.16v1.922h2.48v1.398h-2.48v4.625c0 .437.11.763.33.977.22.213.51.32.86.32zm6.71-7.484c.77 0 1.43.158 1.98.476.56.318.98.768 1.28 1.352.29.583.44 1.281.44 2.093v.985h-5.77c.02.838.24 1.484.67 1.937.43.453 1.04.68 1.81.68.56 0 1.05-.052 1.49-.156.44-.11.9-.269 1.36-.477v1.492a5.92 5.92 0 01-1.32.446c-.44.093-.98.14-1.6.14-.85 0-1.6-.164-2.25-.492a3.559 3.559 0 01-1.5-1.484c-.36-.657-.54-1.472-.54-2.446 0-.968.16-1.791.49-2.468.33-.677.79-1.193 1.38-1.547.59-.354 1.29-.531 2.08-.531zm0 1.382c-.58 0-1.05.188-1.41.563-.35.375-.56.924-.62 1.648h3.94a3.134 3.134 0 00-.22-1.148 1.705 1.705 0 00-.63-.781c-.27-.188-.63-.282-1.06-.282zm10.43-1.382c.97 0 1.73.252 2.27.757.55.5.82 1.305.82 2.414V725h-1.83v-5.297c0-.672-.14-1.174-.42-1.508-.27-.338-.7-.507-1.28-.507-.84 0-1.42.257-1.75.773-.32.516-.48 1.263-.48 2.242V725h-1.84v-8.648h1.43l.26 1.171h.1c.19-.302.42-.549.7-.742.28-.198.59-.346.93-.445a4.02 4.02 0 011.09-.148zm8.72 8.968c-1.03 0-1.86-.375-2.48-1.125-.62-.755-.93-1.867-.93-3.336 0-1.484.31-2.606.94-3.367.64-.76 1.47-1.14 2.51-1.14.44 0 .82.059 1.15.179.33.115.61.271.84.469.24.198.44.419.61.664h.09c-.03-.161-.06-.393-.1-.695a8.724 8.724 0 01-.04-.852v-3.109h1.84V725h-1.44l-.33-1.18h-.07c-.16.25-.36.477-.6.68-.23.198-.51.357-.84.477-.32.119-.71.179-1.15.179zm.52-1.492c.78 0 1.34-.226 1.66-.68.32-.453.49-1.132.5-2.039v-.242c0-.969-.16-1.711-.47-2.226-.31-.521-.88-.782-1.71-.782-.66 0-1.17.269-1.52.805-.34.531-.51 1.273-.51 2.227 0 .953.17 1.682.51 2.187.35.5.86.75 1.54.75zm12.51-1.133c0 .568-.14 1.047-.42 1.438-.27.39-.68.687-1.21.89-.53.198-1.17.297-1.94.297-.6 0-1.12-.044-1.56-.133a5.476 5.476 0 01-1.23-.39v-1.586c.42.193.88.359 1.39.5.51.141 1 .211 1.46.211.6 0 1.04-.094 1.3-.281.27-.193.4-.448.4-.766a.803.803 0 00-.16-.5c-.11-.151-.31-.305-.6-.461-.28-.161-.71-.354-1.26-.578-.55-.219-1.01-.438-1.39-.656a2.518 2.518 0 01-.85-.789c-.19-.313-.29-.711-.29-1.196 0-.765.31-1.346.91-1.742.61-.401 1.41-.601 2.41-.601.54 0 1.04.054 1.5.164.48.104.94.257 1.39.46l-.57 1.383a8.977 8.977 0 00-1.18-.422 4.255 4.255 0 00-1.2-.171c-.47 0-.83.072-1.08.218-.25.146-.37.354-.37.625 0 .203.06.375.18.516.12.141.32.281.62.422.29.14.7.315 1.23.523a9.3 9.3 0 011.34.625c.38.214.67.477.87.789.2.313.31.716.31 1.211zm8.27-9.687v2.929c0 .339-.01.672-.03 1a9.8 9.8 0 01-.05.758h.08c.24-.375.56-.69.98-.945.42-.26.96-.391 1.62-.391 1.02 0 1.85.378 2.47 1.133.63.75.94 1.862.94 3.336 0 .979-.14 1.802-.43 2.469-.29.666-.69 1.172-1.21 1.515-.52.339-1.12.508-1.82.508-.66 0-1.19-.12-1.59-.359a3.072 3.072 0 01-.95-.852h-.13l-.34 1.055h-1.37v-12.156h1.83zm2.11 4.844c-.52 0-.93.104-1.24.312-.3.208-.52.521-.66.938-.13.411-.2.934-.21 1.57v.164c0 .963.15 1.7.46 2.211.3.51.86.765 1.67.765.64 0 1.13-.257 1.47-.773.35-.521.52-1.266.52-2.234 0-.98-.17-1.717-.52-2.211-.33-.495-.83-.742-1.49-.742zm9.62-1.5c.77 0 1.43.158 1.98.476.56.318.98.768 1.28 1.352.3.583.44 1.281.44 2.093v.985h-5.77c.02.838.24 1.484.67 1.937.43.453 1.04.68 1.81.68.56 0 1.05-.052 1.49-.156.44-.11.9-.269 1.37-.477v1.492c-.44.203-.88.352-1.32.446-.45.093-.99.14-1.61.14-.85 0-1.6-.164-2.25-.492a3.559 3.559 0 01-1.5-1.484c-.36-.657-.54-1.472-.54-2.446 0-.968.16-1.791.49-2.468.33-.677.79-1.193 1.38-1.547.6-.354 1.29-.531 2.08-.531zm0 1.382c-.58 0-1.05.188-1.41.563-.35.375-.56.924-.62 1.648h3.94a3.134 3.134 0 00-.22-1.148 1.705 1.705 0 00-.63-.781c-.27-.188-.63-.282-1.06-.282zm4.62-1.218h2l1.77 4.937c.08.224.15.445.21.664.07.214.13.425.18.633.05.208.09.417.12.625h.05c.05-.271.12-.573.22-.906.09-.339.2-.677.32-1.016l1.71-4.937h1.97l-3.71 9.836c-.21.562-.47 1.041-.79 1.437-.3.401-.67.703-1.09.906-.42.209-.9.313-1.45.313-.26 0-.48-.016-.68-.047a6.05 6.05 0 01-.49-.086v-1.469c.11.026.25.05.42.07.16.021.34.032.51.032.33 0 .61-.065.85-.196.24-.13.45-.315.61-.554.17-.235.31-.503.42-.805l.3-.812-3.45-8.625zm17.67 4.304c0 .719-.09 1.357-.28 1.914-.19.558-.46 1.029-.82 1.414a3.58 3.58 0 01-1.3.875c-.5.198-1.07.297-1.71.297-.59 0-1.13-.099-1.63-.297a3.813 3.813 0 01-1.29-.875 3.867 3.867 0 01-.83-1.414c-.2-.557-.3-1.195-.3-1.914 0-.953.16-1.76.49-2.422.33-.666.81-1.174 1.42-1.523.62-.349 1.35-.523 2.2-.523.79 0 1.5.174 2.11.523.61.349 1.08.857 1.43 1.523.34.667.51 1.474.51 2.422zm-6.27 0c0 .63.07 1.17.23 1.617.15.448.39.792.71 1.032.33.234.74.351 1.25.351s.93-.117 1.25-.351c.33-.24.56-.584.72-1.032.15-.447.22-.987.22-1.617s-.07-1.164-.22-1.601c-.16-.443-.39-.779-.72-1.008-.32-.235-.74-.352-1.25-.352-.76 0-1.32.256-1.67.766-.35.51-.52 1.242-.52 2.195zm13.04-4.468c.97 0 1.73.252 2.27.757.55.5.82 1.305.82 2.414V725h-1.83v-5.297c0-.672-.14-1.174-.42-1.508-.27-.338-.7-.507-1.28-.507-.84 0-1.42.257-1.75.773-.32.516-.48 1.263-.48 2.242V725h-1.84v-8.648h1.43l.26 1.171h.1c.19-.302.42-.549.7-.742.28-.198.59-.346.93-.445.35-.099.71-.148 1.09-.148zm8.72 8.968c-1.03 0-1.86-.375-2.48-1.125-.62-.755-.93-1.867-.93-3.336 0-1.484.31-2.606.94-3.367.64-.76 1.47-1.14 2.51-1.14.44 0 .82.059 1.15.179.33.115.61.271.84.469.24.198.44.419.61.664h.09c-.03-.161-.06-.393-.1-.695a8.724 8.724 0 01-.04-.852v-3.109h1.84V725h-1.44l-.33-1.18h-.07c-.16.25-.36.477-.6.68-.23.198-.51.357-.84.477-.32.119-.71.179-1.15.179zm.52-1.492c.78 0 1.34-.226 1.66-.68.32-.453.49-1.132.5-2.039v-.242c0-.969-.16-1.711-.47-2.226-.31-.521-.88-.782-1.71-.782-.66 0-1.17.269-1.52.805-.34.531-.51 1.273-.51 2.227 0 .953.17 1.682.51 2.187.35.5.86.75 1.54.75zm14.22.008c.24 0 .47-.021.71-.063.23-.047.45-.101.64-.164v1.391c-.2.088-.47.164-.79.226-.32.063-.66.094-1.01.094-.49 0-.93-.08-1.32-.242-.39-.167-.7-.45-.93-.852-.23-.401-.34-.955-.34-1.664v-4.648h-1.18v-.82l1.26-.649.61-1.851h1.15v1.922h2.48v1.398h-2.48v4.625c0 .437.11.763.33.977.22.213.51.32.87.32zm5.09-10.828v3.054c0 .318-.01.628-.03.93-.01.302-.03.537-.05.703h.1c.18-.302.4-.549.67-.742.27-.198.56-.346.89-.445.33-.099.69-.149 1.06-.149.66 0 1.23.112 1.69.336.46.219.82.56 1.06 1.024.25.463.38 1.065.38 1.804V725h-1.84v-5.297c0-.672-.14-1.174-.41-1.508-.28-.338-.7-.507-1.28-.507-.56 0-1 .117-1.33.351-.32.229-.56.57-.7 1.023-.14.448-.21.995-.21 1.641V725h-1.83v-12.156h1.83zm11.93 3.344c.77 0 1.44.158 1.99.476.55.318.97.768 1.27 1.352.3.583.45 1.281.45 2.093v.985h-5.78c.02.838.25 1.484.68 1.937.43.453 1.03.68 1.81.68.55 0 1.04-.052 1.48-.156.45-.11.9-.269 1.37-.477v1.492a5.92 5.92 0 01-1.32.446c-.45.093-.99.14-1.61.14-.85 0-1.6-.164-2.24-.492a3.582 3.582 0 01-1.51-1.484c-.36-.657-.54-1.472-.54-2.446 0-.968.17-1.791.49-2.468.33-.677.79-1.193 1.39-1.547.59-.354 1.28-.531 2.07-.531zm0 1.382c-.57 0-1.04.188-1.4.563-.36.375-.56.924-.63 1.648h3.94c0-.432-.08-.815-.22-1.148a1.626 1.626 0 00-.62-.781c-.28-.188-.63-.282-1.07-.282zm13.62-1.382c1.1 0 1.92.242 2.48.726s.84 1.24.84 2.266V725h-1.3l-.35-1.227h-.06c-.25.313-.5.571-.76.774-.26.203-.56.354-.91.453-.34.104-.75.156-1.24.156-.52 0-.98-.094-1.38-.281a2.152 2.152 0 01-.96-.875c-.24-.391-.36-.885-.36-1.484 0-.891.34-1.56 1-2.008.66-.448 1.67-.696 3.01-.742l1.5-.055v-.453c0-.599-.14-1.026-.42-1.281-.28-.256-.67-.383-1.17-.383-.43 0-.85.062-1.26.187-.41.125-.8.279-1.19.461l-.59-1.297c.42-.224.9-.406 1.44-.547.54-.14 1.1-.21 1.68-.21zm1.5 4.679l-1.11.039c-.92.032-1.56.188-1.93.469-.37.281-.56.667-.56 1.156 0 .427.13.74.39.938.25.192.59.289 1 .289.64 0 1.16-.18 1.58-.539.42-.365.63-.899.63-1.602v-.75zm8.03 4.289c-.82 0-1.53-.159-2.13-.476a3.222 3.222 0 01-1.38-1.461c-.32-.657-.48-1.49-.48-2.5 0-1.052.17-1.912.53-2.578.35-.667.84-1.159 1.47-1.477.63-.318 1.35-.476 2.16-.476.52 0 .98.052 1.4.156.42.099.78.221 1.07.367l-.55 1.469c-.31-.131-.64-.24-.97-.328a3.797 3.797 0 00-.96-.133c-.51 0-.93.112-1.27.336-.33.224-.58.557-.75 1-.16.442-.24.992-.24 1.648 0 .636.08 1.172.25 1.609.16.433.41.761.74.985.33.219.73.328 1.21.328.47 0 .9-.057 1.27-.172.38-.114.73-.263 1.07-.445v1.594c-.33.187-.68.325-1.06.414-.37.093-.83.14-1.38.14zm7.84-1.484c.24 0 .47-.021.71-.063.23-.047.45-.101.64-.164v1.391c-.2.088-.47.164-.79.226-.32.063-.66.094-1.01.094-.49 0-.93-.08-1.32-.242-.39-.167-.7-.45-.93-.852-.23-.401-.34-.955-.34-1.664v-4.648h-1.18v-.82l1.26-.649.61-1.851h1.15v1.922h2.48v1.398h-2.48v4.625c0 .437.11.763.33.977.22.213.51.32.87.32zm10.8-7.32V725H2110l-.25-1.164h-.1c-.18.297-.42.544-.7.742-.28.193-.59.336-.93.43-.35.099-.71.148-1.09.148-.65 0-1.21-.109-1.67-.328a2.353 2.353 0 01-1.06-1.031c-.24-.464-.36-1.063-.36-1.797v-5.648h1.84v5.304c0 .672.14 1.175.41 1.508.27.333.7.5 1.28.5.55 0 1-.115 1.33-.344.32-.229.56-.567.69-1.015.14-.448.21-.998.21-1.649v-4.304h1.85zm6.17-.164c1.09 0 1.92.242 2.48.726s.84 1.24.84 2.266V725h-1.31l-.35-1.227h-.06c-.24.313-.5.571-.76.774a2.65 2.65 0 01-.9.453c-.34.104-.76.156-1.25.156-.51 0-.97-.094-1.38-.281-.4-.193-.73-.484-.96-.875-.23-.391-.35-.885-.35-1.484 0-.891.33-1.56.99-2.008.67-.448 1.67-.696 3.02-.742l1.5-.055v-.453c0-.599-.14-1.026-.43-1.281-.27-.256-.66-.383-1.17-.383-.43 0-.85.062-1.25.187-.41.125-.81.279-1.19.461l-.6-1.297a6.794 6.794 0 013.13-.757zm1.5 4.679l-1.12.039c-.92.032-1.56.188-1.93.469-.37.281-.55.667-.55 1.156 0 .427.12.74.38.938.26.192.59.289 1.01.289.63 0 1.16-.18 1.58-.539.42-.365.63-.899.63-1.602v-.75zm6.38 4.133h-1.84v-12.156h1.84V725zm9.99.156c-1.03 0-1.86-.375-2.48-1.125-.62-.755-.93-1.867-.93-3.336 0-1.484.31-2.606.94-3.367.64-.76 1.47-1.14 2.51-1.14.44 0 .82.059 1.15.179.33.115.61.271.84.469.24.198.44.419.61.664h.09c-.03-.161-.06-.393-.1-.695a8.724 8.724 0 01-.04-.852v-3.109h1.84V725h-1.44l-.33-1.18h-.07c-.16.25-.36.477-.6.68-.23.198-.51.357-.84.477-.32.119-.71.179-1.15.179zm.52-1.492c.78 0 1.34-.226 1.66-.68.32-.453.49-1.132.5-2.039v-.242c0-.969-.16-1.711-.47-2.226-.31-.521-.88-.782-1.71-.782-.66 0-1.17.269-1.52.805-.34.531-.51 1.273-.51 2.227 0 .953.17 1.682.51 2.187.35.5.86.75 1.54.75zm11.08-7.476a5.076 5.076 0 01.92.085l-.17 1.719a2.472 2.472 0 00-.41-.07c-.16-.016-.3-.024-.42-.024-.33 0-.64.055-.94.164-.3.105-.56.266-.79.485-.23.213-.41.482-.54.805-.13.322-.19.697-.19 1.125V725h-1.85v-8.648h1.44l.25 1.523h.09c.17-.307.38-.589.64-.844.25-.255.54-.458.87-.609.34-.156.7-.234 1.1-.234zm10.33 4.468c0 .719-.1 1.357-.29 1.914a3.715 3.715 0 01-.82 1.414c-.36.381-.79.672-1.29.875-.51.198-1.08.297-1.71.297-.6 0-1.14-.099-1.64-.297a3.813 3.813 0 01-1.29-.875 4.167 4.167 0 01-.83-1.414c-.2-.557-.3-1.195-.3-1.914 0-.953.17-1.76.49-2.422.34-.666.81-1.174 1.43-1.523.61-.349 1.34-.523 2.19-.523.8 0 1.5.174 2.11.523.61.349 1.09.857 1.43 1.523.34.667.52 1.474.52 2.422zm-6.28 0c0 .63.08 1.17.23 1.617.16.448.39.792.72 1.032.32.234.74.351 1.25.351s.92-.117 1.25-.351c.32-.24.56-.584.71-1.032.15-.447.23-.987.23-1.617s-.08-1.164-.23-1.601c-.15-.443-.39-.779-.71-1.008-.33-.235-.74-.352-1.26-.352-.76 0-1.32.256-1.66.766-.35.51-.53 1.242-.53 2.195zm12.97-4.468c1.03 0 1.85.374 2.47 1.124.63.75.94 1.865.94 3.344 0 .979-.15 1.805-.44 2.477-.29.666-.69 1.172-1.21 1.515-.52.339-1.12.508-1.8.508-.44 0-.82-.057-1.14-.172-.33-.114-.6-.263-.83-.445a3.283 3.283 0 01-.58-.609h-.11c.03.208.05.44.07.695.03.25.04.479.04.687v3.524h-1.84v-12.484h1.5l.25 1.195h.09c.16-.245.36-.471.58-.68.24-.208.52-.372.85-.492.33-.125.72-.187 1.16-.187zm-.49 1.5c-.5 0-.91.101-1.22.304-.3.198-.52.498-.66.899s-.21.903-.22 1.507v.258c0 .641.06 1.185.19 1.633.14.443.36.781.67 1.016.31.229.73.343 1.26.343.45 0 .82-.122 1.11-.367.3-.245.52-.593.67-1.047.14-.453.22-.987.22-1.601 0-.932-.17-1.656-.5-2.172-.33-.516-.84-.773-1.52-.773zm11.96 7.312h-6.57v-1.133l4.37-6.101h-4.1v-1.414h6.18v1.25l-4.28 5.984h4.4V725zm9.68-4.344c0 .719-.1 1.357-.29 1.914a3.715 3.715 0 01-.82 1.414c-.35.381-.79.672-1.29.875-.51.198-1.08.297-1.71.297-.6 0-1.14-.099-1.64-.297a3.813 3.813 0 01-1.29-.875 4.167 4.167 0 01-.83-1.414c-.2-.557-.3-1.195-.3-1.914 0-.953.17-1.76.49-2.422.34-.666.81-1.174 1.43-1.523.61-.349 1.34-.523 2.19-.523.8 0 1.5.174 2.11.523.61.349 1.09.857 1.43 1.523.34.667.52 1.474.52 2.422zm-6.28 0c0 .63.08 1.17.23 1.617.16.448.4.792.72 1.032.32.234.74.351 1.25.351s.93-.117 1.25-.351c.32-.24.56-.584.71-1.032.15-.447.23-.987.23-1.617s-.08-1.164-.23-1.601c-.15-.443-.39-.779-.71-1.008-.32-.235-.74-.352-1.26-.352-.76 0-1.31.256-1.66.766-.35.51-.53 1.242-.53 2.195zm13.04-4.468c.98 0 1.74.252 2.28.757.54.5.82 1.305.82 2.414V725h-1.84v-5.297c0-.672-.14-1.174-.41-1.508-.28-.338-.71-.507-1.28-.507-.84 0-1.43.257-1.75.773-.33.516-.49 1.263-.49 2.242V725h-1.83v-8.648h1.43l.25 1.171h.1c.19-.302.42-.549.7-.742.28-.198.59-.346.94-.445.35-.099.71-.148 1.08-.148zm9.26 0c.77 0 1.44.158 1.99.476.55.318.97.768 1.27 1.352.3.583.45 1.281.45 2.093v.985h-5.78c.02.838.25 1.484.67 1.937.44.453 1.04.68 1.82.68.55 0 1.04-.052 1.48-.156.44-.11.9-.269 1.37-.477v1.492a5.92 5.92 0 01-1.32.446c-.45.093-.99.14-1.61.14-.85 0-1.6-.164-2.24-.492a3.582 3.582 0 01-1.51-1.484c-.36-.657-.54-1.472-.54-2.446 0-.968.16-1.791.49-2.468.33-.677.79-1.193 1.38-1.547.6-.354 1.29-.531 2.08-.531zm0 1.382c-.58 0-1.04.188-1.4.563-.36.375-.57.924-.63 1.648h3.94a3.134 3.134 0 00-.22-1.148 1.686 1.686 0 00-.62-.781c-.28-.188-.63-.282-1.07-.282zm12.07-4.726v2.929c0 .339-.01.672-.03 1-.02.323-.03.576-.05.758h.08c.23-.375.56-.69.97-.945.43-.26.97-.391 1.62-.391 1.03 0 1.85.378 2.48 1.133.62.75.94 1.862.94 3.336 0 .979-.15 1.802-.43 2.469-.29.666-.69 1.172-1.21 1.515-.52.339-1.13.508-1.82.508-.66 0-1.19-.12-1.6-.359-.4-.245-.71-.529-.94-.852h-.14l-.33 1.055h-1.38v-12.156h1.84zm2.11 4.844c-.52 0-.94.104-1.24.312-.31.208-.53.521-.66.938-.14.411-.21.934-.21 1.57v.164c0 .963.15 1.7.45 2.211.31.51.87.765 1.67.765.64 0 1.14-.257 1.48-.773.34-.521.52-1.266.52-2.234 0-.98-.18-1.717-.52-2.211-.34-.495-.84-.742-1.49-.742zm13.83 2.968c0 .719-.1 1.357-.28 1.914-.19.558-.46 1.029-.82 1.414-.36.381-.8.672-1.3.875-.51.198-1.08.297-1.71.297-.6 0-1.14-.099-1.63-.297-.5-.203-.93-.494-1.29-.875a4.03 4.03 0 01-.84-1.414c-.2-.557-.3-1.195-.3-1.914 0-.953.17-1.76.5-2.422.33-.666.8-1.174 1.42-1.523.61-.349 1.34-.523 2.19-.523.8 0 1.5.174 2.11.523.61.349 1.09.857 1.43 1.523.35.667.52 1.474.52 2.422zm-6.28 0c0 .63.08 1.17.23 1.617.16.448.4.792.72 1.032.32.234.74.351 1.25.351s.93-.117 1.25-.351c.32-.24.56-.584.71-1.032.15-.447.23-.987.23-1.617s-.08-1.164-.23-1.601c-.15-.443-.39-.779-.71-1.008-.32-.235-.74-.352-1.26-.352-.76 0-1.31.256-1.66.766-.35.51-.53 1.242-.53 2.195zm10.45-.078l-2.89-4.226h2.09l1.98 3.039 1.98-3.039h2.09l-2.91 4.226 3.06 4.422h-2.1l-2.12-3.242-2.12 3.242h-2.09l3.03-4.422zm6.78 3.453c0-.427.11-.726.33-.898.23-.177.5-.266.81-.266.32 0 .59.089.82.266.23.172.34.471.34.898 0 .417-.11.719-.34.907-.23.182-.5.273-.82.273-.31 0-.58-.091-.81-.273-.22-.188-.33-.49-.33-.907z" fill="#fff"/><path stroke="#AB1F26" stroke-width="3" stroke-dasharray="5 5" d="M1390.5 106.5h925v549h-925z"/><mask id="prefix__c" style="mask-type:alpha" maskUnits="userSpaceOnUse" x="1962" y="643" width="22" height="28"><path d="M1965 643.667c-1.47 0-2.65 1.2-2.65 2.666l-.02 21.334a2.667 2.667 0 002.66 2.666H1981c1.47 0 2.67-1.2 2.67-2.666v-16l-8-8H1965zm9.33 9.333v-7.333l7.34 7.333h-7.34z" fill="#fff"/></mask><g mask="url(#prefix__c)"><path d="M1965 643.667c-1.47 0-2.65 1.2-2.65 2.666l-.02 21.334a2.667 2.667 0 002.66 2.666H1981c1.47 0 2.67-1.2 2.67-2.666v-16l-8-8H1965zm9.33 9.333v-7.333l7.34 7.333h-7.34z" fill="#7D808D"/></g><mask id="prefix__d" style="mask-type:alpha" maskUnits="userSpaceOnUse" x="819" y="705" width="22" height="28"><path d="M822 705.667a2.662 2.662 0 00-2.653 2.666l-.014 21.334a2.663 2.663 0 002.654 2.666H838c1.467 0 2.667-1.2 2.667-2.666v-16l-8-8H822zm9.333 9.333v-7.333l7.334 7.333h-7.334z" fill="#7D808D"/></mask><g mask="url(#prefix__d)"><path d="M822 705.667a2.662 2.662 0 00-2.653 2.666l-.014 21.334a2.663 2.663 0 002.654 2.666H838c1.467 0 2.667-1.2 2.667-2.666v-16l-8-8H822zm9.333 9.333v-7.333l7.334 7.333h-7.334z" fill="#7D808D"/></g></svg>