<svg viewBox="0 0 555 252" xmlns="http://www.w3.org/2000/svg"><g transform="translate(-506 -672)"><path d="m0 0h555v252h-555z" fill="#252a2e" transform="translate(506 672)"/><path d="m.5.5h554v251h-554z" fill="none" transform="translate(506 672)"/><path d="m631 832h383v56h-383z" fill="#004f83"/><path d="m631 770h383v56h-383z" fill="#171c1e"/><path d="m631 708h383v56h-383z" fill="#171c1e"/><g transform="translate(769 836)"><path d="m2 0h44c1.1 0 2 .9 2 2v44c0 1.1-.9 2-2 2h-44c-1.1 0-2-.9-2-2v-44c0-1.1.9-2 2-2z" fill="none"/><g transform="translate(10 10)"><path d="m0 0h28v28h-28z" fill="none"/><path d="m14.4 23c1 0 1.8-.8 1.8-1.8h-3.7c0 1 .9 1.8 1.9 1.8zm5.5-5.5v-4.6c0-2.8-1.5-5.2-4.2-5.8v-.7c0-.8-.6-1.4-1.3-1.4-.8 0-1.4.6-1.4 1.3v.7c-2.6.6-4.2 3-4.2 5.8v4.6l-1.8 1.9v.9h14.8v-.9z" fill="#fff"/></g></g><g transform="translate(769 774)"><path d="m2 0h44c1.1 0 2 .9 2 2v44c0 1.1-.9 2-2 2h-44c-1.1 0-2-.9-2-2v-44c0-1.1.9-2 2-2z" fill="none"/><g transform="translate(10 10)"><path d="m0 0h28v28h-28z" fill="none"/><path d="m14.4 23c1 0 1.8-.8 1.8-1.8h-3.7c0 1 .9 1.8 1.9 1.8zm5.5-5.5v-4.6c0-2.8-1.5-5.2-4.2-5.8v-.7c0-.8-.6-1.4-1.3-1.4-.8 0-1.4.6-1.4 1.3v.7c-2.6.6-4.2 3-4.2 5.8v4.6l-1.8 1.9v.9h14.8v-.9z" fill="#7d808d"/></g></g><g transform="translate(769 712)"><path d="m2 0h44c1.1 0 2 .9 2 2v44c0 1.1-.9 2-2 2h-44c-1.1 0-2-.9-2-2v-44c0-1.1.9-2 2-2z" fill="none"/><g transform="translate(10 10)"><path d="m0 0h28v28h-28z" fill="none"/><path d="m14.4 23c1 0 1.8-.8 1.8-1.8h-3.7c0 1 .9 1.8 1.9 1.8zm5.5-5.5v-4.6c0-2.8-1.5-5.2-4.2-5.8v-.7c0-.8-.6-1.4-1.3-1.4-.8 0-1.4.6-1.4 1.3v.7c-2.6.6-4.2 3-4.2 5.8v4.6l-1.8 1.9v.9h14.8v-.9z" fill="#fff"/></g></g><g transform="translate(824 836)"><path d="m2 0h44c1.1 0 2 .9 2 2v44c0 1.1-.9 2-2 2h-44c-1.1 0-2-.9-2-2v-44c0-1.1.9-2 2-2z" fill="none"/><g transform="translate(12 12)"><path d="m0 0h24v24h-24z" fill="none"/><path d="m10 0c-5.5 0-10 4.5-10 10s4.5 10 10 10 10-4.5 10-10-4.5-10-10-10zm1 17h-2v-2h2zm2.1-7.8-.9.9c-.8.7-1.3 1.8-1.2 2.8h-2v-.5c0-1.1.4-2.1 1.2-2.8l1.2-1.3c.4-.3.6-.8.6-1.3 0-1.1-.9-2-2-2s-2 .9-2 2h-2c0-2.2 1.8-4 4-4s4 1.8 4 4c0 .8-.3 1.7-.9 2.2z" fill="#fff" transform="translate(1.667 2)"/></g></g><g transform="translate(822.872 774)"><path d="m2 0h44c1.1 0 2 .9 2 2v44c0 1.1-.9 2-2 2h-44c-1.1 0-2-.9-2-2v-44c0-1.1.9-2 2-2z" fill="none"/><g transform="translate(12 12)"><path d="m0 0h24v24h-24z" fill="none"/><path d="m10 0c-5.5 0-10 4.5-10 10s4.5 10 10 10 10-4.5 10-10-4.5-10-10-10zm1 17h-2v-2h2zm2.1-7.8-.9.9c-.8.7-1.3 1.8-1.2 2.8h-2v-.5c0-1.1.4-2.1 1.2-2.8l1.2-1.3c.4-.3.6-.8.6-1.3 0-1.1-.9-2-2-2s-2 .9-2 2h-2c0-2.2 1.8-4 4-4s4 1.8 4 4c0 .8-.3 1.7-.9 2.2z" fill="#7d808d" transform="translate(1.667 2)"/></g></g><g transform="translate(824 712)"><path d="m2 0h44c1.1 0 2 .9 2 2v44c0 1.1-.9 2-2 2h-44c-1.1 0-2-.9-2-2v-44c0-1.1.9-2 2-2z" fill="none"/><g transform="translate(12 12)"><path d="m0 0h24v24h-24z" fill="none"/><path d="m10 0c-5.5 0-10 4.5-10 10s4.5 10 10 10 10-4.5 10-10-4.5-10-10-10zm1 17h-2v-2h2zm2.1-7.8-.9.9c-.8.7-1.3 1.8-1.2 2.8h-2v-.5c0-1.1.4-2.1 1.2-2.8l1.2-1.3c.4-.3.6-.8.6-1.3 0-1.1-.9-2-2-2s-2 .9-2 2h-2c0-2.2 1.8-4 4-4s4 1.8 4 4c0 .8-.3 1.7-.9 2.2z" fill="#fff" transform="translate(1.667 2)"/></g></g><g transform="translate(879 836)"><path d="m2 0h44c1.1 0 2 .9 2 2v44c0 1.1-.9 2-2 2h-44c-1.1 0-2-.9-2-2v-44c0-1.1.9-2 2-2z" fill="none"/><g transform="translate(12 12)"><path d="m0 0h24v24h-24z" fill="none"/><path d="m2 7h5v-5h-5zm7.5 15h5v-5h-5zm-7.5 0h5v-5h-5zm0-7.5h5v-5h-5zm7.5 0h5v-5h-5zm7.5-12.5v5h5v-5zm-7.5 5h5v-5h-5zm7.5 7.5h5v-5h-5zm0 7.5h5v-5h-5z" fill="#fff"/></g></g><g transform="translate(879 774)"><path d="m2 0h44c1.1 0 2 .9 2 2v44c0 1.1-.9 2-2 2h-44c-1.1 0-2-.9-2-2v-44c0-1.1.9-2 2-2z" fill="none"/><g transform="translate(12 12)"><path d="m0 0h24v24h-24z" fill="none"/><path d="m2 7h5v-5h-5zm7.5 15h5v-5h-5zm-7.5 0h5v-5h-5zm0-7.5h5v-5h-5zm7.5 0h5v-5h-5zm7.5-12.5v5h5v-5zm-7.5 5h5v-5h-5zm7.5 7.5h5v-5h-5zm0 7.5h5v-5h-5z" fill="#7d808d"/></g></g><g transform="translate(879 712)"><path d="m2 0h44c1.1 0 2 .9 2 2v44c0 1.1-.9 2-2 2h-44c-1.1 0-2-.9-2-2v-44c0-1.1.9-2 2-2z" fill="none"/><g transform="translate(12 12)"><path d="m0 0h24v24h-24z" fill="none"/><path d="m2 7h5v-5h-5zm7.5 15h5v-5h-5zm-7.5 0h5v-5h-5zm0-7.5h5v-5h-5zm7.5 0h5v-5h-5zm7.5-12.5v5h5v-5zm-7.5 5h5v-5h-5zm7.5 7.5h5v-5h-5zm0 7.5h5v-5h-5z" fill="#fff"/></g></g><g transform="translate(642 836)"><path d="m2 0h44c1.1 0 2 .9 2 2v44c0 1.1-.9 2-2 2h-44c-1.1 0-2-.9-2-2v-44c0-1.1.9-2 2-2z" fill="none"/><g transform="translate(12 12)"><path d="m0 0h24v24h-24z" fill="none"/><path d="m3 18h18v-2h-18zm0-5h18v-2h-18zm0-7v2h18v-2z" fill="#fff"/></g></g><g transform="translate(642 774)"><path d="m2 0h44c1.1 0 2 .9 2 2v44c0 1.1-.9 2-2 2h-44c-1.1 0-2-.9-2-2v-44c0-1.1.9-2 2-2z" fill="none"/><g transform="translate(12 12)"><path d="m0 0h24v24h-24z" fill="none"/><path d="m3 18h18v-2h-18zm0-5h18v-2h-18zm0-7v2h18v-2z" fill="#7d808d"/></g></g><g transform="translate(642 712)"><path d="m2 0h44c1.1 0 2 .9 2 2v44c0 1.1-.9 2-2 2h-44c-1.1 0-2-.9-2-2v-44c0-1.1.9-2 2-2z" fill="none"/><g transform="translate(12.25 11.618)"><path d="m0 0h24v24h-24z" fill="none"/><path d="m3 18h18v-2h-18zm0-5h18v-2h-18zm0-7v2h18v-2z" fill="#fff"/></g></g><g transform="translate(702.558 836)"><path d="m2 0h44c1.1 0 2 .9 2 2v44c0 1.1-.9 2-2 2h-44c-1.1 0-2-.9-2-2v-44c0-1.1.9-2 2-2z" fill="none"/><g transform="translate(11.362 11)"><path d="m.6 1h24v24h-24z" fill="none"/><path clip-rule="evenodd" d="m16.9 15.6h-.9l-.3-.3c1.2-1.3 1.8-3.1 1.8-4.8 0-4.1-3.3-7.4-7.4-7.4-4.1-.1-7.5 3.2-7.5 7.3s3.3 7.4 7.4 7.4c1.8 0 3.5-.6 4.8-1.8l.3.3v.9l5.7 5.7 1.7-1.7zm-6.8 0c-2.8 0-5.1-2.3-5.1-5.1s2.3-5.1 5.1-5.1 5.1 2.3 5.1 5.1-2.3 5.1-5.1 5.1z" fill="#fff" fill-rule="evenodd"/></g></g><g transform="translate(702.558 774)"><path d="m2 0h44c1.1 0 2 .9 2 2v44c0 1.1-.9 2-2 2h-44c-1.1 0-2-.9-2-2v-44c0-1.1.9-2 2-2z" fill="none"/><g transform="translate(11.362 11)"><path d="m.6 1h24v24h-24z" fill="none"/><path clip-rule="evenodd" d="m16.9 15.6h-.9l-.3-.3c1.2-1.3 1.8-3.1 1.8-4.8 0-4.1-3.3-7.4-7.4-7.4-4.1-.1-7.5 3.2-7.5 7.3s3.3 7.4 7.4 7.4c1.8 0 3.5-.6 4.8-1.8l.3.3v.9l5.7 5.7 1.7-1.7zm-6.8 0c-2.8 0-5.1-2.3-5.1-5.1s2.3-5.1 5.1-5.1 5.1 2.3 5.1 5.1-2.3 5.1-5.1 5.1z" fill="#7d808d" fill-rule="evenodd"/></g></g><g transform="translate(702.558 712)"><path d="m2 0h44c1.1 0 2 .9 2 2v44c0 1.1-.9 2-2 2h-44c-1.1 0-2-.9-2-2v-44c0-1.1.9-2 2-2z" fill="none"/><g transform="translate(11.362 11)"><path d="m.6 1h24v24h-24z" fill="none"/><path clip-rule="evenodd" d="m16.9 15.6h-.9l-.3-.3c1.2-1.3 1.8-3.1 1.8-4.8 0-4.1-3.3-7.4-7.4-7.4-4.1-.1-7.5 3.2-7.5 7.3s3.3 7.4 7.4 7.4c1.8 0 3.5-.6 4.8-1.8l.3.3v.9l5.7 5.7 1.7-1.7zm-6.8 0c-2.8 0-5.1-2.3-5.1-5.1s2.3-5.1 5.1-5.1 5.1 2.3 5.1 5.1-2.3 5.1-5.1 5.1z" fill="#fff" fill-rule="evenodd"/></g></g><circle cx="969" cy="860" fill="none" r="24"/><circle cx="969" cy="860" fill="#fff" r="16"/><path d="m18 25v4h-1.6v-10h2.8c1.3 0 2.2.2 2.9.7s.9 1.2.9 2.2c0 1.2-.6 2.1-1.9 2.7l2.8 4.4h-1.9l-2.4-4zm0-1.3h1.1c.8 0 1.3-.1 1.7-.4s.5-.7.5-1.3-.2-1-.6-1.2-.9-.4-1.7-.4h-1zm13.9-1.7c0 1-.3 1.8-1 2.4s-1.7.8-2.9.8h-1v3.8h-1.6v-10h2.9c1.2 0 2.2.3 2.8.8.5.5.8 1.2.8 2.2zm-5 1.9h.9c.8 0 1.5-.1 1.8-.4s.6-.7.6-1.4c0-.6-.2-1-.5-1.3s-.9-.4-1.6-.4h-1.1z" fill="#004f83" transform="translate(945 836)"/><circle cx="969.442" cy="798" fill="none" r="24"/><circle cx="969.442" cy="798" fill="#7d808d" r="16"/><path d="m18 25v4h-1.6v-10h2.8c1.3 0 2.2.2 2.9.7.6.5.9 1.2.9 2.2 0 1.2-.6 2.1-1.9 2.7l2.8 4.4h-1.9l-2.4-4zm0-1.3h1.1c.8 0 1.3-.1 1.7-.4s.5-.7.5-1.3-.2-1-.6-1.2-.9-.4-1.7-.4h-1zm13.9-1.7c0 1-.3 1.8-1 2.4s-1.7.8-2.9.8h-1v3.8h-1.6v-10h2.9c1.2 0 2.2.3 2.8.8.5.5.8 1.2.8 2.2zm-5 1.9h.9c.8 0 1.5-.1 1.8-.4s.6-.7.6-1.4c0-.6-.2-1-.5-1.3s-.9-.4-1.6-.4h-1.1z" fill="#fff" transform="translate(945.442 774)"/><circle cx="969.442" cy="736" fill="none" r="24"/><circle cx="969.442" cy="736" fill="#fff" r="16"/><path d="m18 25v4h-1.6v-10h2.8c1.3 0 2.2.2 2.9.7.6.5.9 1.2.9 2.2 0 1.2-.6 2.1-1.9 2.7l2.8 4.4h-1.9l-2.4-4zm0-1.3h1.1c.8 0 1.3-.1 1.7-.4s.5-.7.5-1.3-.2-1-.6-1.2-.9-.4-1.7-.4h-1zm13.9-1.7c0 1-.3 1.8-1 2.4s-1.7.8-2.9.8h-1v3.8h-1.6v-10h2.9c1.2 0 2.2.3 2.8.8.5.5.8 1.2.8 2.2zm-5 1.9h.9c.8 0 1.5-.1 1.8-.4s.6-.7.6-1.4c0-.6-.2-1-.5-1.3s-.9-.4-1.6-.4h-1.1z" fill="#171c1e" transform="translate(945.442 712)"/><g fill="#fff"><path d="m539.4 742h-2.1l-1.2-4.5c0-.2-.1-.5-.2-1s-.2-.8-.2-1c0 .2-.1.5-.2 1s-.2.8-.2 1l-1.2 4.5h-2.1l-2.2-8.6h1.8l1.1 4.7c.2.9.3 1.6.4 2.2 0-.2.1-.6.2-1s.2-.8.2-1.1l1.2-4.8h1.7l1.2 4.8c.1.2.1.5.2 1s.1.8.2 1.1c0-.3.1-.7.2-1.1s.2-.8.2-1.1l1.1-4.7h1.8zm10.3 0h-1.8v-3.7h-3.4v3.7h-1.8v-8.6h1.8v3.4h3.4v-3.4h1.8zm2.2 0v-8.6h1.8v8.6zm7.2 0h-1.8v-7.1h-2.3v-1.5h6.5v1.5h-2.3v7.1zm8.6 0h-4.9v-8.6h4.9v1.5h-3.1v1.9h2.9v1.5h-2.9v2.2h3.1z"/><path d="m534.3 798.2h3.4v4.4c-.6.2-1.1.3-1.6.4s-1 .1-1.5.1c-1.3 0-2.3-.4-3-1.1s-1-1.9-1-3.3.4-2.5 1.2-3.2 1.9-1.2 3.3-1.2c.9 0 1.7.2 2.5.5l-.6 1.5c-.6-.3-1.3-.5-2-.5-.8 0-1.4.3-1.9.8s-.7 1.2-.7 2.1.2 1.6.6 2.1.9.7 1.7.7c.4 0 .8 0 1.2-.1v-1.8h-1.6zm7.3 1.5v3.3h-1.8v-8.6h2.5c1.2 0 2 .2 2.6.6s.8 1.1.8 1.9c0 .5-.1 1-.4 1.3s-.7.7-1.2.9c1.3 1.9 2.1 3.2 2.5 3.7h-2l-2-3.3h-1zm0-1.5h.6c.6 0 1-.1 1.3-.3s.4-.5.4-.9-.1-.7-.4-.9-.7-.3-1.3-.3h-.6zm11.3 4.8-.6-2h-3.1l-.6 2h-2l3-8.6h2.2l3 8.6zm-1-3.6c-.6-1.8-.9-2.9-1-3.1s-.1-.4-.2-.6c-.1.5-.5 1.7-1.1 3.7zm6.7-1.4 1.8-3.5h2l-2.8 5.2v3.3h-1.8v-3.3l-2.8-5.3h2zm7.4 1.7c0-1 .2-2 .5-2.9s.7-1.7 1.3-2.4h1.5c-.6.8-1 1.6-1.2 2.5s-.4 1.8-.4 2.8.1 1.9.4 2.8.7 1.7 1.2 2.4h-1.5c-.6-.7-1-1.4-1.3-2.3s-.5-1.9-.5-2.9zm7.9-1.5h3.4v4.4c-.6.2-1.1.3-1.6.4s-1 .1-1.5.1c-1.3 0-2.3-.4-3-1.1s-1-1.9-1-3.3.4-2.5 1.2-3.2 1.9-1.2 3.3-1.2c.9 0 1.7.2 2.5.5l-.6 1.5c-.6-.3-1.3-.5-2-.5-.8 0-1.4.3-1.9.8s-.7 1.2-.7 2.1.2 1.6.6 2.1.9.7 1.7.7c.4 0 .8 0 1.2-.1v-1.8h-1.6zm7.2 1.5v3.3h-1.8v-8.6h2.5c1.2 0 2 .2 2.6.6s.8 1.1.8 1.9c0 .5-.1 1-.4 1.3s-.7.7-1.2.9c1.3 1.9 2.1 3.2 2.5 3.7h-2l-2-3.3h-1zm0-1.5h.6c.6 0 1-.1 1.3-.3s.4-.5.4-.9-.1-.7-.4-.9-.7-.3-1.3-.3h-.6zm11.4 4.8-.6-2h-3.1l-.6 2h-2l3-8.6h2.2l3 8.6zm-1.1-3.6c-.6-1.8-.9-2.9-1-3.1s-.1-.4-.2-.6c-.1.5-.5 1.7-1.1 3.7zm6.8-1.4 1.8-3.5h2l-2.8 5.2v3.3h-1.8v-3.3l-2.8-5.3h2zm10.5-.5c.8 0 1.5.2 2 .7s.7 1.1.7 1.9c0 1-.3 1.7-.9 2.2s-1.4.8-2.5.8c-1 0-1.7-.2-2.3-.5v-1.6c.3.2.7.3 1.1.4s.8.2 1.2.2c1.1 0 1.7-.5 1.7-1.4s-.6-1.3-1.7-1.3c-.2 0-.4 0-.7.1s-.5.1-.6.1l-.7-.4.3-4.4h4.6v1.5h-3.1l-.2 1.7h.2c.2.1.5 0 .9 0zm6.8 2.2c0 1-.2 2-.5 2.9s-.7 1.7-1.3 2.3h-1.5c.5-.7.9-1.5 1.2-2.4s.4-1.8.4-2.8-.1-1.9-.4-2.8-.7-1.7-1.2-2.5h1.5c.6.7 1 1.5 1.3 2.4s.5 1.9.5 2.9z"/><path d="m532.9 860.7v3.3h-1.8v-8.6h2.5c1.2 0 2 .2 2.6.6s.8 1.1.8 1.9c0 .5-.1 1-.4 1.3s-.7.7-1.2.9c1.3 1.9 2.1 3.2 2.5 3.7h-2l-2-3.3h-1zm0-1.5h.6c.6 0 1-.1 1.3-.3s.4-.5.4-.9-.1-.7-.4-.9-.7-.3-1.3-.3h-.6zm11 4.8h-4.9v-8.6h4.9v1.5h-3.1v1.9h2.9v1.5h-2.9v2.2h3.1zm6.7-8.6h1.8l-2.9 8.6h-2l-2.9-8.6h1.8l1.6 5.1c.1.3.2.7.3 1.1s.2.7.2.8c0-.4.2-1 .4-1.9zm7.9 8.6h-4.9v-8.6h4.9v1.5h-3.1v1.9h2.9v1.5h-2.9v2.2h3.1zm3.6-3.3v3.3h-1.8v-8.6h2.5c1.2 0 2 .2 2.6.6s.8 1.1.8 1.9c0 .5-.1 1-.4 1.3s-.7.7-1.2.9c1.3 1.9 2.1 3.2 2.5 3.7h-2l-2-3.3h-1zm0-1.5h.6c.6 0 1-.1 1.3-.3s.4-.5.4-.9-.1-.7-.4-.9-.7-.3-1.3-.3h-.6zm11.1 2.4c0 .8-.3 1.4-.8 1.8s-1.3.7-2.3.7c-.9 0-1.7-.2-2.4-.5v-1.7c.6.3 1.1.4 1.5.5s.8.2 1.1.2c.4 0 .7-.1.9-.2s.3-.4.3-.7c0-.2 0-.3-.1-.4s-.2-.3-.4-.4-.6-.3-1.1-.6c-.5-.2-.9-.5-1.2-.7s-.5-.5-.6-.8-.2-.7-.2-1.1c0-.8.3-1.4.8-1.8s1.2-.7 2.1-.7c.4 0 .9.1 1.3.2s.8.3 1.3.4l-.6 1.4c-.5-.2-.8-.3-1.1-.4s-.6-.1-.9-.1-.6.1-.8.2-.3.4-.3.6 0 .3.1.4.2.2.4.3.5.3 1.2.6c.8.4 1.3.8 1.6 1.2s.2 1.1.2 1.6zm6.5 2.4h-4.9v-8.6h4.9v1.5h-3.1v1.9h2.9v1.5h-2.9v2.2h3.1zm8.9-4.4c0 1.4-.4 2.5-1.2 3.2s-2 1.1-3.5 1.1h-2.4v-8.6h2.7c1.4 0 2.5.4 3.3 1.1s1.1 1.9 1.1 3.2zm-1.9.1c0-1.8-.8-2.8-2.4-2.8h-1v5.6h.8c1.7 0 2.6-.9 2.6-2.8z"/></g></g></svg>