<svg id="prefix__Layer_1" xmlns="http://www.w3.org/2000/svg" xmlns:xlink="http://www.w3.org/1999/xlink" x="0" y="0" viewBox="0 0 1600 752" xml:space="preserve"><style>.prefix__st1{fill:#fff}.prefix__st2{fill:#353a40}.prefix__st3{fill:#171c1e}.prefix__st4{fill:#363545}</style><path fill="#252a2e" d="M2 0h1598v752H2z"/><path class="prefix__st1" d="M10.3 21H8.6l-3.5-5.7L1.7 21H.1l4.3-6.7-4-6.1H2l3.2 5.1 3.2-5.1H10l-4 6.1 4.3 6.7zm10.4 0H19l-3.5-5.7-3.4 5.7h-1.6l4.3-6.7-4-6.1h1.7l3.2 5.1 3.2-5.1h1.6l-4 6.1 4.2 6.7zm.9-4.2v-1.3h4.3v1.3h-4.3zm6.8 4.2V8.2h1.5v11.5h5.7V21h-7.2zm15.1 0l-.3-1.4h-.1c-.5.6-1 1-1.4 1.2-.5.2-1.1.3-1.8.3-1 0-1.7-.2-2.2-.7-.5-.5-.8-1.2-.8-2.1 0-1.9 1.6-3 4.7-3.1l1.6-.1v-.6c0-.8-.2-1.3-.5-1.7-.3-.4-.8-.5-1.6-.5s-1.7.2-2.7.7l-.5-1c.5-.3 1-.5 1.6-.6.6-.1 1.1-.2 1.7-.2 1.1 0 2 .3 2.5.8.6.5.8 1.3.8 2.5V21h-1zm-3.3-1c.9 0 1.6-.2 2.1-.7.5-.5.8-1.2.8-2.1v-.9l-1.5.1c-1.2 0-2 .2-2.5.5s-.8.8-.8 1.5c0 .5.2.9.5 1.2.4.2.8.4 1.4.4zM52 11.2c.4 0 .8 0 1.2.1l-.2 1.4c-.4-.1-.8-.1-1.1-.1-.8 0-1.4.3-2 .9-.6.6-.8 1.4-.8 2.4V21h-1.5v-9.6h1.2l.2 1.8h.1c.4-.6.8-1.1 1.3-1.5.5-.3 1-.5 1.6-.5zm10.9.2v.9l-1.8.2c.2.2.3.5.4.8.1.3.2.7.2 1.1 0 .9-.3 1.7-1 2.3-.6.6-1.5.8-2.7.8-.3 0-.6 0-.8-.1-.6.3-.9.7-.9 1.2 0 .3.1.5.3.6.2.1.6.2 1.1.2h1.7c1 0 1.8.2 2.4.7.6.4.8 1.1.8 1.9 0 1.1-.4 1.9-1.3 2.4-.9.6-2.1.8-3.7.8-1.3 0-2.2-.2-2.9-.7-.7-.5-1-1.1-1-2 0-.6.2-1.1.6-1.5.4-.4.9-.7 1.6-.9-.2-.1-.5-.3-.6-.5-.2-.2-.2-.5-.2-.8 0-.4.1-.7.3-.9.2-.3.5-.5.9-.8-.5-.2-.9-.6-1.2-1-.3-.5-.5-1.1-.5-1.7 0-1.1.3-1.9.9-2.4.6-.6 1.5-.9 2.7-.9.5 0 1 .1 1.4.2h3.3zm-7.7 11.2c0 .5.2.9.7 1.2.4.3 1.1.4 1.9.4 1.2 0 2.1-.2 2.7-.6.6-.4.9-.9.9-1.5 0-.5-.2-.9-.5-1.1-.3-.2-.9-.3-1.8-.3h-1.7c-.7 0-1.2.2-1.5.5s-.7.8-.7 1.4zm.8-8.1c0 .7.2 1.2.6 1.5.4.3.9.5 1.6.5 1.4 0 2.1-.7 2.1-2.1 0-1.4-.7-2.2-2.2-2.2-.7 0-1.2.2-1.6.6-.3.4-.5.9-.5 1.7zm13 6.7c-1.4 0-2.5-.4-3.4-1.3-.8-.9-1.2-2.1-1.2-3.6 0-1.6.4-2.8 1.1-3.7.8-.9 1.8-1.4 3.1-1.4 1.2 0 2.2.4 2.9 1.2.7.8 1.1 1.8 1.1 3.1v.9H66c0 1.1.3 2 .9 2.6.5.6 1.3.9 2.3.9 1 0 2.1-.2 3.1-.7v1.3c-.5.2-1 .4-1.5.5-.6.1-1.2.2-1.8.2zm-.4-8.8c-.8 0-1.4.3-1.9.8s-.7 1.2-.8 2.1h5c0-.9-.2-1.6-.6-2.1-.4-.5-1-.8-1.7-.8zm10.3 3.7c0-1.6.2-3 .7-4.4.5-1.4 1.1-2.5 2-3.6H83c-.8 1.1-1.5 2.4-1.9 3.7-.4 1.4-.6 2.7-.6 4.2 0 1.4.2 2.8.7 4.1.4 1.3 1.1 2.6 1.9 3.7h-1.4c-.9-1-1.5-2.2-2-3.5-.6-1.3-.8-2.7-.8-4.2zM89.8 21h-1.4v-9.2c0-.8 0-1.5.1-2.2l-.4.4c-.2.1-.8.7-2.1 1.7l-.8-1 3.4-2.6h1.2V21zm5.1-5.5c0-2.5.5-4.4 1.5-5.7 1-1.3 2.4-1.9 4.4-1.9.7 0 1.2.1 1.6.2v1.3c-.5-.1-1-.2-1.5-.2-1.4 0-2.4.4-3.2 1.3-.7.9-1.1 2.2-1.2 4h.1c.6-1 1.7-1.5 3.1-1.5 1.2 0 2.1.3 2.7 1 .7.7 1 1.6 1 2.8 0 1.3-.4 2.4-1.1 3.2-.7.8-1.7 1.1-3 1.1s-2.4-.5-3.2-1.5c-.8-.9-1.2-2.3-1.2-4.1zm4.3 4.4c.8 0 1.5-.3 1.9-.8.5-.5.7-1.3.7-2.3 0-.8-.2-1.5-.6-2-.4-.5-1.1-.7-1.9-.7-.5 0-1 .1-1.5.3-.4.2-.8.5-1.1.9-.3.4-.4.8-.4 1.2 0 .6.1 1.2.4 1.7.2.5.6.9 1 1.2.5.4 1 .5 1.5.5zm14.4-5.3c0 2.2-.4 3.9-1.1 5-.7 1.1-1.8 1.6-3.2 1.6-1.4 0-2.4-.6-3.2-1.7-.7-1.1-1.1-2.8-1.1-4.9 0-2.2.3-3.9 1-5s1.8-1.6 3.2-1.6c1.4 0 2.5.6 3.2 1.7.8 1.1 1.2 2.7 1.2 4.9zm-7 0c0 1.9.2 3.2.7 4.1.4.8 1.1 1.3 2.1 1.3s1.7-.4 2.1-1.3c.4-.9.7-2.2.7-4.1s-.2-3.2-.7-4.1c-.4-.9-1.1-1.3-2.1-1.3s-1.7.4-2.1 1.3c-.5.8-.7 2.2-.7 4.1zm17.3 0c0 2.2-.4 3.9-1.1 5-.7 1.1-1.8 1.6-3.2 1.6-1.4 0-2.4-.6-3.2-1.7-.7-1.1-1.1-2.8-1.1-4.9 0-2.2.3-3.9 1-5s1.8-1.6 3.2-1.6c1.4 0 2.5.6 3.2 1.7.9 1.1 1.2 2.7 1.2 4.9zm-7 0c0 1.9.2 3.2.7 4.1.4.8 1.1 1.3 2.1 1.3s1.7-.4 2.1-1.3c.4-.9.7-2.2.7-4.1s-.2-3.2-.7-4.1c-.4-.9-1.1-1.3-2.1-1.3s-1.7.4-2.1 1.3c-.5.8-.7 2.2-.7 4.1zm14 6.6c-.6 0-1.2-.1-1.7-.3-.5-.2-.9-.6-1.3-1.1h-.1c.1.6.1 1.1.1 1.6v4h-1.5v-14h1.2l.2 1.3h.1c.4-.5.8-.9 1.3-1.1.5-.2 1.1-.4 1.7-.4 1.3 0 2.3.4 3 1.3.7.9 1 2.1 1 3.7s-.4 2.8-1.1 3.7c-.7.8-1.7 1.3-2.9 1.3zm-.2-8.8c-1 0-1.7.3-2.1.8-.4.5-.7 1.4-.7 2.6v.3c0 1.4.2 2.3.7 2.9.5.6 1.2.9 2.2.9.8 0 1.5-.3 2-1s.7-1.6.7-2.8c0-1.2-.2-2.1-.7-2.8-.6-.5-1.3-.9-2.1-.9zm9.1 3.7l-3.3-4.7h1.7l2.5 3.7 2.5-3.7h1.6l-3.3 4.7L145 21h-1.7l-2.7-3.9-2.7 3.9h-1.7l3.6-4.9zm10.2 0c0 1.5-.2 3-.7 4.3-.5 1.3-1.1 2.5-2 3.5h-1.4c.8-1.1 1.4-2.3 1.9-3.7.4-1.3.6-2.7.6-4.1 0-1.4-.2-2.8-.6-4.2-.4-1.4-1.1-2.6-1.9-3.7h1.4c.9 1 1.5 2.2 2 3.6.5 1.3.7 2.7.7 4.3zM10.3 149H8.6l-3.5-5.7-3.4 5.7H.1l4.3-6.7-4-6.1H2l3.2 5.1 3.2-5.1H10l-4 6.1 4.3 6.7zm.9-4.2v-1.3h4.3v1.3h-4.3zM18 149v-12.9h1.5v11.5h5.7v1.4H18zm15.1 0l-.3-1.4h-.1c-.5.6-1 1-1.4 1.2-.5.2-1.1.3-1.8.3-1 0-1.7-.2-2.2-.7-.5-.5-.8-1.2-.8-2.1 0-1.9 1.6-3 4.7-3.1l1.6-.1v-.6c0-.8-.2-1.3-.5-1.7-.3-.4-.8-.5-1.6-.5s-1.7.2-2.7.7l-.4-1.1c.5-.3 1-.5 1.6-.6.6-.1 1.1-.2 1.7-.2 1.1 0 2 .3 2.5.8.6.5.8 1.3.8 2.5v6.6h-1.1zm-3.3-1c.9 0 1.6-.2 2.1-.7.5-.5.8-1.2.8-2.1v-.9l-1.5.1c-1.2 0-2 .2-2.5.5s-.8.8-.8 1.5c0 .5.2.9.5 1.2.4.2.8.4 1.4.4zm11.8-8.8c.4 0 .8 0 1.2.1l-.2 1.4c-.4-.1-.8-.1-1.1-.1-.8 0-1.4.3-2 .9-.6.6-.8 1.4-.8 2.4v5.2h-1.5v-9.6h1.2l.2 1.8h.1c.4-.6.8-1.1 1.3-1.4.5-.5 1-.7 1.6-.7zm10.9.2v.9l-1.8.2c.2.2.3.5.4.8.1.3.2.7.2 1.1 0 .9-.3 1.7-1 2.3-.6.6-1.5.8-2.7.8-.3 0-.6 0-.8-.1-.6.3-.9.7-.9 1.2 0 .3.1.5.3.6.2.1.6.2 1.1.2H49c1 0 1.8.2 2.4.7.6.4.8 1.1.8 1.9 0 1.1-.4 1.9-1.3 2.4-.9.6-2.1.8-3.7.8-1.3 0-2.2-.2-2.9-.7-.7-.5-1-1.1-1-2 0-.6.2-1.1.6-1.5.4-.4.9-.7 1.6-.9-.2-.1-.5-.3-.6-.5-.2-.2-.2-.5-.2-.8 0-.4.1-.7.3-.9.2-.3.5-.5.9-.8-.5-.2-.9-.6-1.2-1-.3-.5-.5-1.1-.5-1.7 0-1.1.3-1.9.9-2.4.6-.6 1.5-.9 2.7-.9.5 0 1 .1 1.4.2h3.3zm-7.7 11.2c0 .5.2.9.7 1.2.4.3 1.1.4 1.9.4 1.2 0 2.1-.2 2.7-.6.6-.4.9-.9.9-1.5 0-.5-.2-.9-.5-1.1-.3-.2-.9-.3-1.8-.3H47c-.7 0-1.2.2-1.5.5-.5.4-.7.8-.7 1.4zm.8-8.1c0 .7.2 1.2.6 1.5.4.3.9.5 1.6.5 1.4 0 2.1-.7 2.1-2.1 0-1.4-.7-2.2-2.2-2.2-.7 0-1.2.2-1.6.6-.3.4-.5.9-.5 1.7zm12.9 6.7c-1.4 0-2.5-.4-3.4-1.3-.8-.9-1.2-2.1-1.2-3.6 0-1.6.4-2.8 1.1-3.7.8-.9 1.8-1.4 3.1-1.4 1.2 0 2.2.4 2.9 1.2.7.8 1.1 1.8 1.1 3.1v.9h-6.6c0 1.1.3 2 .9 2.6.5.6 1.3.9 2.3.9 1 0 2.1-.2 3.1-.6v1.3c-.5.2-1 .4-1.5.5-.5 0-1.1.1-1.8.1zm-.3-8.8c-.8 0-1.4.3-1.9.8s-.7 1.2-.8 2.1h5c0-.9-.2-1.6-.6-2.1-.4-.5-1-.8-1.7-.8zm10.3 3.7c0-1.6.2-3 .7-4.4.5-1.4 1.1-2.5 2-3.6h1.4c-.8 1.1-1.5 2.4-1.9 3.7-.4 1.4-.6 2.7-.6 4.2 0 1.4.2 2.8.7 4.1.4 1.3 1.1 2.6 1.9 3.7h-1.4c-.9-1-1.5-2.2-2-3.5s-.8-2.7-.8-4.2zm10.9 4.9H78v-9.2c0-.8 0-1.5.1-2.2l-.4.4c-.2.1-.8.7-2.1 1.7l-.8-1 3.4-2.6h1.2V149zm13.4 0h-8.4v-1.3l3.4-3.4c1-1 1.7-1.8 2-2.2.3-.4.6-.9.7-1.3.2-.4.2-.9.2-1.4 0-.7-.2-1.2-.6-1.6-.4-.4-1-.6-1.7-.6-.5 0-1 .1-1.5.3-.5.2-1 .5-1.6 1l-.8-1c1.2-1 2.5-1.5 3.9-1.5 1.2 0 2.2.3 2.8.9.7.6 1 1.4 1 2.5 0 .8-.2 1.6-.7 2.4s-1.3 1.8-2.6 3l-2.8 2.8v.1h6.6v1.3zm10.4-6.4c0 2.2-.4 3.9-1.1 5-.7 1.1-1.8 1.6-3.2 1.6-1.4 0-2.4-.6-3.2-1.7-.7-1.1-1.1-2.8-1.1-4.9 0-2.2.3-3.9 1-5s1.8-1.6 3.2-1.6c1.4 0 2.5.6 3.2 1.7.8 1.1 1.2 2.7 1.2 4.9zm-7 0c0 1.9.2 3.2.7 4.1.4.8 1.1 1.3 2.1 1.3s1.7-.4 2.1-1.3c.4-.9.7-2.2.7-4.1 0-1.8-.2-3.2-.7-4.1-.4-.9-1.1-1.3-2.1-1.3s-1.7.4-2.1 1.3c-.5.8-.7 2.2-.7 4.1zm17.3 0c0 2.2-.4 3.9-1.1 5-.7 1.1-1.8 1.6-3.2 1.6-1.4 0-2.4-.6-3.2-1.7-.7-1.1-1.1-2.8-1.1-4.9 0-2.2.3-3.9 1-5s1.8-1.6 3.2-1.6c1.4 0 2.5.6 3.2 1.7.8 1.1 1.2 2.7 1.2 4.9zm-7 0c0 1.9.2 3.2.7 4.1.4.8 1.1 1.3 2.1 1.3s1.7-.4 2.1-1.3c.4-.9.7-2.2.7-4.1 0-1.8-.2-3.2-.7-4.1-.4-.9-1.1-1.3-2.1-1.3s-1.7.4-2.1 1.3c-.5.8-.7 2.2-.7 4.1zm14 6.6c-.6 0-1.2-.1-1.7-.3-.5-.2-.9-.6-1.3-1.1h-.1c.1.6.1 1.1.1 1.6v4H116v-14h1.2l.2 1.3h.1c.4-.5.8-.9 1.3-1.1.5-.2 1.1-.4 1.7-.4 1.3 0 2.3.4 3 1.3.7.9 1 2.1 1 3.7s-.4 2.8-1.1 3.7c-.7.8-1.7 1.3-2.9 1.3zm-.2-8.8c-1 0-1.7.3-2.1.8-.4.5-.7 1.4-.7 2.6v.3c0 1.4.2 2.3.7 2.9.5.6 1.2.9 2.2.9.8 0 1.5-.3 2-1s.7-1.6.7-2.8c0-1.2-.2-2.1-.7-2.8-.6-.5-1.3-.9-2.1-.9zm9.1 3.7l-3.3-4.7h1.7l2.5 3.7 2.5-3.7h1.6l-3.3 4.7 3.5 4.9h-1.7l-2.7-3.9-2.7 3.9h-1.7l3.6-4.9zm10.2 0c0 1.5-.2 3-.7 4.3-.5 1.3-1.1 2.5-2 3.5h-1.4c.8-1.1 1.4-2.3 1.9-3.7.4-1.3.7-2.7.7-4.1 0-1.4-.2-2.8-.6-4.2-.4-1.4-1.1-2.6-1.9-3.7h1.4c.9 1 1.5 2.2 2 3.6.3 1.3.6 2.7.6 4.3zM1.8 277v-12.9h1.5v11.5H9v1.4H1.8zm15 0l-.3-1.4h-.1c-.5.6-1 1-1.4 1.2-.5.2-1.1.3-1.8.3-1 0-1.7-.2-2.2-.7-.5-.5-.8-1.2-.8-2.1 0-1.9 1.6-3 4.7-3.1l1.6-.1v-.6c0-.8-.2-1.3-.5-1.7-.3-.4-.8-.5-1.6-.5s-1.7.2-2.7.7l-.4-1.1c.5-.3 1-.5 1.6-.6.6-.1 1.1-.2 1.7-.2 1.1 0 2 .3 2.5.8.6.5.8 1.3.8 2.5v6.6h-1.1zm-3.2-1c.9 0 1.6-.2 2.1-.7.5-.5.8-1.2.8-2.1v-.9l-1.5.1c-1.2 0-2 .2-2.5.5s-.8.8-.8 1.5c0 .5.2.9.5 1.2.3.2.8.4 1.4.4zm11.8-8.8c.4 0 .8 0 1.2.1l-.2 1.4c-.4-.1-.8-.1-1.1-.1-.8 0-1.4.3-2 .9-.6.6-.8 1.4-.8 2.4v5.2H21v-9.6h1.2l.2 1.8h.1c.4-.6.8-1.1 1.3-1.5.4-.4 1-.6 1.6-.6zm10.8.2v.9l-1.8.2c.2.2.3.5.4.8.1.3.2.7.2 1.1 0 .9-.3 1.7-1 2.3-.6.6-1.5.8-2.7.8-.3 0-.6 0-.8-.1-.6.3-.9.7-.9 1.2 0 .3.1.5.3.6.2.1.6.2 1.1.2h1.7c1 0 1.8.2 2.4.7.6.4.8 1.1.8 1.9 0 1.1-.4 1.9-1.3 2.4-.9.6-2.1.8-3.7.8-1.3 0-2.2-.2-2.9-.7-.7-.5-1-1.1-1-2 0-.6.2-1.1.6-1.5.4-.4.9-.7 1.6-.9-.2-.1-.5-.3-.6-.5-.2-.2-.2-.5-.2-.8 0-.4.1-.7.3-.9.2-.3.5-.5.9-.8-.5-.2-.9-.6-1.2-1-.3-.5-.5-1.1-.5-1.7 0-1.1.3-1.9.9-2.4.6-.6 1.5-.9 2.7-.9.5 0 1 .1 1.4.2h3.3zm-7.7 11.2c0 .5.2.9.7 1.2.4.3 1.1.4 1.9.4 1.2 0 2.1-.2 2.7-.6.6-.4.9-.9.9-1.5 0-.5-.2-.9-.5-1.1-.3-.2-.9-.3-1.8-.3h-1.7c-.7 0-1.2.2-1.5.5-.5.4-.7.8-.7 1.4zm.8-8.1c0 .7.2 1.2.6 1.5.4.3.9.5 1.6.5 1.4 0 2.1-.7 2.1-2.1 0-1.4-.7-2.2-2.2-2.2-.7 0-1.2.2-1.6.6-.3.4-.5.9-.5 1.7zm13 6.7c-1.4 0-2.5-.4-3.4-1.3-.8-.9-1.2-2.1-1.2-3.6 0-1.6.4-2.8 1.1-3.7.8-.9 1.8-1.4 3.1-1.4 1.2 0 2.2.4 2.9 1.2.7.8 1.1 1.8 1.1 3.1v.9h-6.6c0 1.1.3 2 .9 2.6.5.6 1.3.9 2.3.9 1 0 2.1-.2 3.1-.6v1.3c-.5.2-1 .4-1.5.5-.6 0-1.1.1-1.8.1zm-.4-8.8c-.8 0-1.4.3-1.9.8s-.7 1.2-.8 2.1h5c0-.9-.2-1.6-.6-2.1-.3-.5-.9-.8-1.7-.8zm10.3 3.7c0-1.6.2-3 .7-4.4.5-1.4 1.1-2.5 2-3.6h1.4c-.8 1.1-1.5 2.4-1.9 3.7-.4 1.4-.6 2.7-.6 4.2 0 1.4.2 2.8.7 4.1.4 1.3 1.1 2.6 1.9 3.7H55c-.9-1-1.5-2.2-2-3.5-.5-1.3-.8-2.7-.8-4.2zm14-2.5c0 5-1.9 7.5-5.8 7.5-.7 0-1.2-.1-1.6-.2v-1.3c.5.2 1 .2 1.6.2 1.4 0 2.5-.4 3.2-1.3.7-.9 1.1-2.2 1.2-4h-.1c-.3.5-.7.9-1.3 1.1-.5.3-1.1.4-1.8.4-1.1 0-2-.3-2.7-1-.7-.7-1-1.6-1-2.8 0-1.3.4-2.4 1.1-3.2.8-.8 1.7-1.2 3-1.2.9 0 1.6.2 2.3.7.7.4 1.2 1.1 1.5 2 .2 1 .4 2 .4 3.1zm-4.3-4.4c-.8 0-1.5.3-1.9.8-.5.5-.7 1.3-.7 2.2 0 .8.2 1.5.6 2 .4.5 1.1.7 1.9.7.5 0 1-.1 1.5-.3.5-.2.8-.5 1.1-.9s.4-.8.4-1.2c0-.6-.1-1.2-.4-1.7-.2-.5-.6-.9-1-1.2-.5-.2-1-.4-1.5-.4zm14.6 4.4c0 5-1.9 7.5-5.8 7.5-.7 0-1.2-.1-1.6-.2v-1.3c.5.2 1 .2 1.6.2 1.4 0 2.5-.4 3.2-1.3.7-.9 1.1-2.2 1.2-4H75c-.3.5-.8.9-1.3 1.1-.5.3-1.1.4-1.8.4-1.1 0-2-.3-2.7-1-.7-.7-1-1.6-1-2.8 0-1.3.4-2.4 1.1-3.2.8-.8 1.7-1.2 3-1.2.9 0 1.6.2 2.3.7.7.4 1.2 1.1 1.5 2 .3 1 .4 2 .4 3.1zm-4.3-4.4c-.8 0-1.5.3-1.9.8-.5.5-.7 1.3-.7 2.2 0 .8.2 1.5.6 2 .4.5 1.1.7 1.9.7.5 0 1-.1 1.5-.3.5-.2.8-.5 1.1-.9.3-.4.4-.8.4-1.2 0-.6-.1-1.2-.4-1.7-.2-.5-.6-.9-1-1.2-.4-.2-.9-.4-1.5-.4zM86.9 277h-8.4v-1.3l3.4-3.4c1-1 1.7-1.8 2-2.2.3-.4.6-.9.7-1.3.2-.4.2-.9.2-1.4 0-.7-.2-1.2-.6-1.6-.4-.4-1-.6-1.7-.6-.5 0-1 .1-1.5.3-.5.2-1 .5-1.6 1l-.8-1c1.2-1 2.5-1.5 3.9-1.5 1.2 0 2.2.3 2.8.9.7.6 1 1.4 1 2.5 0 .8-.2 1.6-.7 2.4-.5.8-1.3 1.8-2.6 3l-2.8 2.8v.1h6.6v1.3zm7 .2c-.6 0-1.2-.1-1.7-.3-.5-.2-.9-.6-1.3-1.1h-.1c.1.6.1 1.1.1 1.6v4h-1.5v-14h1.2l.2 1.3h.1c.4-.5.8-.9 1.3-1.1.5-.2 1.1-.4 1.7-.4 1.3 0 2.3.4 3 1.3.7.9 1 2.1 1 3.7s-.4 2.8-1.1 3.7c-.7.8-1.7 1.3-2.9 1.3zm-.2-8.8c-1 0-1.7.3-2.1.8-.4.5-.7 1.4-.7 2.6v.3c0 1.4.2 2.3.7 2.9.5.6 1.2.9 2.2.9.8 0 1.5-.3 2-1s.7-1.6.7-2.8c0-1.2-.2-2.1-.7-2.8-.6-.5-1.3-.9-2.1-.9zm9.1 3.7l-3.3-4.7h1.7l2.5 3.7 2.5-3.7h1.6l-3.3 4.7 3.5 4.9h-1.7l-2.7-3.9-2.7 3.9h-1.7l3.6-4.9zm10.2 0c0 1.5-.2 3-.7 4.3-.5 1.3-1.1 2.5-2 3.5h-1.4c.8-1.1 1.4-2.3 1.9-3.7.4-1.3.7-2.7.7-4.1 0-1.4-.2-2.8-.6-4.2-.4-1.4-1.1-2.6-1.9-3.7h1.4c.9 1 1.5 2.2 2 3.6.4 1.3.6 2.7.6 4.3zM7.5 405l-4.4-11.4H3c.1.9.1 2 .1 3.2v8.2H1.8v-12.9H4l4.1 10.6h.1l4.1-10.6h2.2V405H13v-8.3c0-1 0-2 .1-3.1H13L8.7 405H7.5zm14.4.2c-1.4 0-2.5-.4-3.4-1.3-.8-.9-1.2-2.1-1.2-3.6 0-1.6.4-2.8 1.1-3.7.8-.9 1.8-1.4 3.1-1.4 1.2 0 2.2.4 2.9 1.2.7.8 1.1 1.8 1.1 3.1v.9h-6.6c0 1.1.3 2 .9 2.6.5.6 1.3.9 2.3.9 1 0 2.1-.2 3.1-.6v1.3c-.5.2-1 .4-1.5.5-.6 0-1.1.1-1.8.1zm-.4-8.8c-.8 0-1.4.3-1.9.8s-.7 1.2-.8 2.1h5c0-.9-.2-1.6-.6-2.1-.3-.5-.9-.8-1.7-.8zm13 7.3c-.8 1-1.8 1.5-3.1 1.5s-2.2-.4-2.9-1.3c-.7-.9-1-2.1-1-3.7s.4-2.8 1.1-3.7c.7-.9 1.7-1.3 2.9-1.3 1.3 0 2.3.5 3 1.4h.1l-.1-.7v-4.6H36V405h-1.2l-.3-1.3zm-2.9.3c1 0 1.7-.3 2.2-.8.5-.5.7-1.4.7-2.6v-.3c0-1.4-.2-2.3-.7-2.9-.5-.6-1.2-.9-2.2-.9-.9 0-1.5.3-2 1s-.7 1.6-.7 2.8c0 1.2.2 2.2.7 2.8.5.5 1.1.9 2 .9zm8.9 1H39v-9.6h1.5v9.6zm-1.6-12.2c0-.3.1-.6.2-.7.2-.2.4-.2.6-.2.2 0 .4.1.6.2.2.2.3.4.3.7s-.1.6-.3.7c-.2.2-.4.2-.6.2-.2 0-.5-.1-.6-.2-.1-.2-.2-.4-.2-.7zm6.1 2.6v6.2c0 .8.2 1.4.5 1.8.4.4.9.6 1.7.6 1 0 1.7-.3 2.2-.8.5-.6.7-1.4.7-2.7v-5.1h1.5v9.6h-1.2l-.2-1.3h-.1c-.3.5-.7.8-1.2 1.1-.5.3-1.1.4-1.8.4-1.2 0-2.1-.3-2.6-.8-.6-.6-.9-1.4-.9-2.7v-6.3H45zm22 9.6v-6.3c0-.8-.2-1.3-.5-1.7-.3-.4-.8-.6-1.5-.6-.9 0-1.6.3-2 .8-.4.5-.7 1.3-.7 2.4v5.4h-1.5v-6.3c0-.8-.2-1.3-.5-1.7-.3-.4-.8-.6-1.5-.6-.9 0-1.6.3-2 .8-.4.5-.6 1.4-.6 2.7v5.1h-1.5v-9.6h1.2l.2 1.3h.1c.3-.5.7-.8 1.2-1.1.5-.3 1.1-.4 1.7-.4 1.5 0 2.5.5 3 1.6h.1c.3-.5.7-.9 1.2-1.2.5-.3 1.2-.4 1.9-.4 1.1 0 1.9.3 2.4.8.5.6.8 1.4.8 2.7v6.3H67zm8.4-4.9c0-1.6.2-3 .7-4.4.5-1.4 1.1-2.5 2-3.6h1.4c-.8 1.1-1.5 2.4-1.9 3.7-.4 1.4-.6 2.7-.6 4.2 0 1.4.2 2.8.7 4.1.4 1.3 1.1 2.6 1.9 3.7H78c-.9-1-1.5-2.2-2-3.5-.4-1.3-.6-2.7-.6-4.2zm7.1 4.9l5.3-11.5h-7v-1.3h8.6v1.2L84.1 405h-1.6zm8.8-5.5c0-2.5.5-4.4 1.5-5.7 1-1.3 2.4-1.9 4.4-1.9.7 0 1.2.1 1.6.2v1.3c-.5-.1-1-.2-1.5-.2-1.4 0-2.4.4-3.2 1.3-.7.9-1.1 2.2-1.2 4h.1c.6-1 1.7-1.5 3.1-1.5 1.2 0 2.1.3 2.7 1 .7.7 1 1.6 1 2.8 0 1.3-.4 2.4-1.1 3.2-.7.8-1.7 1.1-3 1.1s-2.4-.5-3.2-1.5c-.8-.9-1.2-2.3-1.2-4.1zm4.4 4.4c.8 0 1.5-.3 1.9-.8.5-.5.7-1.3.7-2.3 0-.8-.2-1.5-.6-2-.4-.5-1.1-.7-1.9-.7-.5 0-1 .1-1.5.3-.4.2-.8.5-1.1.9-.3.4-.4.8-.4 1.2 0 .6.1 1.2.4 1.7.2.5.6.9 1 1.2.4.4.9.5 1.5.5zm10.1-11.9c1.2 0 2.1.3 2.8.8.7.5 1 1.3 1 2.3 0 .6-.2 1.2-.6 1.7-.4.5-1 1-1.9 1.4 1 .5 1.8 1 2.2 1.6.4.5.7 1.2.7 1.9 0 1.1-.4 1.9-1.1 2.6-.7.6-1.8.9-3.1.9-1.4 0-2.4-.3-3.2-.9-.7-.6-1.1-1.5-1.1-2.6 0-1.5.9-2.6 2.7-3.4-.8-.5-1.4-.9-1.7-1.5-.4-.5-.5-1.1-.5-1.8 0-.9.3-1.7 1-2.2.7-.6 1.6-.8 2.8-.8zm-2.8 9.8c0 .7.2 1.3.7 1.6.5.4 1.2.6 2.1.6.9 0 1.6-.2 2-.6.5-.4.7-1 .7-1.7 0-.6-.2-1.1-.7-1.5-.5-.4-1.3-.9-2.4-1.3-.9.4-1.5.8-1.9 1.2-.3.5-.5 1-.5 1.7zm2.8-8.6c-.7 0-1.3.2-1.7.5-.4.4-.6.8-.6 1.4 0 .5.2 1 .5 1.4.3.4 1 .8 1.9 1.2.8-.4 1.4-.7 1.8-1.1.4-.4.5-.9.5-1.4 0-.6-.2-1.1-.6-1.4-.5-.5-1.1-.6-1.8-.6zm11.2 12c-.6 0-1.2-.1-1.7-.3-.5-.2-1-.6-1.3-1.1h-.1c.1.6.1 1.1.1 1.6v4h-1.5v-14h1.2l.2 1.3h.1c.4-.5.8-.9 1.3-1.1.5-.2 1.1-.4 1.7-.4 1.3 0 2.3.4 3 1.3.7.9 1 2.1 1 3.7s-.4 2.8-1.1 3.7c-.7.8-1.6 1.3-2.9 1.3zm-.2-8.8c-1 0-1.7.3-2.1.8-.4.5-.7 1.4-.7 2.6v.3c0 1.4.2 2.3.7 2.9.5.6 1.2.9 2.2.9.8 0 1.5-.3 2-1s.7-1.6.7-2.8c0-1.2-.2-2.1-.7-2.8-.6-.5-1.3-.9-2.1-.9zm9.1 3.7l-3.3-4.7h1.7l2.5 3.7 2.5-3.7h1.6l-3.3 4.7 3.5 4.9h-1.7l-2.7-3.9-2.7 3.9h-1.7l3.6-4.9zm10.2 0c0 1.5-.2 3-.7 4.3-.5 1.3-1.1 2.5-2 3.5H132c.8-1.1 1.4-2.3 1.9-3.7.4-1.3.7-2.7.7-4.1 0-1.4-.2-2.8-.6-4.2-.4-1.4-1.1-2.6-1.9-3.7h1.4c.9 1 1.5 2.2 2 3.6.4 1.3.6 2.7.6 4.3zM9 529.6c0 1.1-.4 2-1.2 2.6-.8.6-1.9.9-3.3.9-1.5 0-2.7-.2-3.5-.6v-1.4c.5.2 1.1.4 1.7.5.6.1 1.2.2 1.8.2 1 0 1.7-.2 2.2-.6.5-.4.8-.9.8-1.6 0-.4-.1-.8-.3-1.1-.2-.3-.5-.6-.9-.8-.4-.2-1.1-.5-1.9-.8-1.2-.4-2.1-.9-2.6-1.5S1 524 1 523.1c0-1 .4-1.8 1.1-2.4.7-.6 1.7-.9 3-.9s2.5.2 3.5.7l-.4 1.5c-1.1-.4-2.1-.7-3.1-.7-.8 0-1.4.2-1.9.5-.4.3-.7.8-.7 1.4 0 .4.1.8.2 1.1.2.3.4.5.8.8.4.2 1 .5 1.8.8 1.3.5 2.3 1 2.8 1.5.7.6.9 1.3.9 2.2zm14.7 3.4v-6.3c0-.8-.2-1.3-.5-1.7-.3-.4-.8-.6-1.5-.6-.9 0-1.6.3-2 .8-.4.5-.7 1.3-.7 2.4v5.4h-1.5v-6.3c0-.8-.2-1.3-.5-1.7-.3-.4-.8-.6-1.5-.6-.9 0-1.6.3-2 .8-.4.5-.6 1.4-.6 2.7v5.1h-1.5v-9.6h1.2l.2 1.3h.1c.3-.5.7-.8 1.2-1.1.5-.3 1.1-.4 1.7-.4 1.5 0 2.5.5 3 1.6h.1c.3-.5.7-.9 1.2-1.2.5-.3 1.2-.4 1.9-.4 1.1 0 1.9.3 2.4.8.5.6.8 1.5.8 2.7v6.3h-1.5zm10.5 0l-.3-1.4h-.1c-.5.6-1 1-1.4 1.2-.5.2-1.1.3-1.8.3-1 0-1.7-.2-2.2-.7-.5-.5-.8-1.2-.8-2.1 0-1.9 1.6-3 4.7-3.1l1.6-.1v-.6c0-.8-.2-1.3-.5-1.7-.3-.4-.8-.5-1.6-.5s-1.7.2-2.7.7l-.4-1.1c.5-.3 1-.5 1.6-.6.6-.1 1.1-.2 1.7-.2 1.1 0 2 .3 2.5.8.6.5.8 1.3.8 2.5v6.6h-1.1zm-3.3-1c.9 0 1.6-.2 2.1-.7.5-.5.8-1.2.8-2.1v-.9l-1.5.1c-1.2 0-2 .2-2.5.5s-.8.8-.8 1.5c0 .5.2.9.5 1.2.3.2.8.4 1.4.4zm8.8 1h-1.5v-13.7h1.5V533zm4.6 0h-1.5v-13.7h1.5V533zm7-4.9c0-1.6.2-3 .7-4.4.5-1.4 1.1-2.5 2-3.6h1.4c-.8 1.1-1.5 2.4-1.9 3.7-.4 1.4-.6 2.7-.6 4.2 0 1.4.2 2.8.7 4.1.4 1.3 1.1 2.6 1.9 3.7H54c-.9-1-1.5-2.2-2-3.5-.5-1.3-.7-2.7-.7-4.2zm9.5-2.9c1.4 0 2.4.3 3.2 1 .8.7 1.2 1.6 1.2 2.8 0 1.3-.4 2.4-1.3 3.1-.8.8-2 1.1-3.5 1.1-1.4 0-2.6-.2-3.3-.7v-1.4c.4.3.9.5 1.5.6.6.1 1.2.2 1.8.2 1 0 1.8-.2 2.4-.7.6-.5.9-1.2.9-2.1 0-1.8-1.1-2.7-3.3-2.7-.6 0-1.3.1-2.2.3l-.8-.5.5-6h6.4v1.3h-5.1l-.3 3.9c.6-.2 1.3-.2 1.9-.2zm8 7.8l5.3-11.5h-7v-1.3h8.6v1.2L70.4 533h-1.6zm8.8-5.5c0-2.5.5-4.4 1.5-5.7 1-1.3 2.4-1.9 4.4-1.9.7 0 1.2.1 1.6.2v1.3c-.5-.1-1-.2-1.5-.2-1.4 0-2.4.4-3.2 1.3-.7.9-1.1 2.2-1.2 4h.1c.6-1 1.7-1.5 3.1-1.5 1.2 0 2.1.3 2.7 1 .7.7 1 1.6 1 2.8 0 1.3-.4 2.4-1.1 3.2-.7.8-1.7 1.1-3 1.1s-2.4-.5-3.2-1.5c-.8-.9-1.2-2.3-1.2-4.1zm4.3 4.4c.8 0 1.5-.3 1.9-.8.5-.5.7-1.3.7-2.3 0-.8-.2-1.5-.6-2-.4-.5-1.1-.7-1.9-.7-.5 0-1 .1-1.5.3-.4.2-.8.5-1.1.9-.3.4-.4.8-.4 1.2 0 .6.1 1.2.4 1.7.2.5.6.9 1 1.2.5.4 1 .5 1.5.5zm11.1 1.3c-.6 0-1.2-.1-1.7-.3-.5-.2-.9-.6-1.3-1.1h-.1c.1.6.1 1.1.1 1.6v4h-1.5v-14h1.2l.2 1.3h.1c.4-.5.8-.9 1.3-1.1.5-.2 1.1-.4 1.7-.4 1.3 0 2.3.4 3 1.3.7.9 1 2.1 1 3.7s-.4 2.8-1.1 3.7c-.7.8-1.7 1.3-2.9 1.3zm-.3-8.8c-1 0-1.7.3-2.1.8-.4.5-.7 1.4-.7 2.6v.3c0 1.4.2 2.3.7 2.9.5.6 1.2.9 2.2.9.8 0 1.5-.3 2-1s.7-1.6.7-2.8c0-1.2-.2-2.1-.7-2.8-.5-.5-1.2-.9-2.1-.9zm9.2 3.7l-3.3-4.7h1.7l2.5 3.7 2.5-3.7h1.6l-3.3 4.7 3.5 4.9h-1.7l-2.7-3.9-2.7 3.9h-1.7l3.6-4.9zm10.2 0c0 1.5-.2 3-.7 4.3-.5 1.3-1.1 2.5-2 3.5H108c.8-1.1 1.4-2.3 1.9-3.7.4-1.3.7-2.7.7-4.1 0-1.4-.2-2.8-.6-4.2-.4-1.4-1.1-2.6-1.9-3.7h1.4c.9 1 1.5 2.2 2 3.6.3 1.3.6 2.7.6 4.3zM10.3 661H8.6l-3.5-5.7-3.4 5.7H.1l4.3-6.7-4-6.1H2l3.2 5.1 3.2-5.1H10l-4 6.1 4.3 6.7zm.9-4.2v-1.3h4.3v1.3h-4.3zm14.1.8c0 1.1-.4 2-1.2 2.6-.8.6-1.9.9-3.3.9-1.5 0-2.7-.2-3.5-.6v-1.4c.5.2 1.1.4 1.7.5.6.1 1.2.2 1.8.2 1 0 1.7-.2 2.2-.6.5-.4.8-.9.8-1.6 0-.4-.1-.8-.3-1.1-.2-.3-.5-.6-.9-.8-.4-.2-1.1-.5-1.9-.8-1.2-.4-2.1-.9-2.6-1.5s-.8-1.4-.8-2.3c0-1 .4-1.8 1.1-2.4.7-.6 1.7-.9 3-.9s2.5.2 3.5.7l-.5 1.3c-1.1-.4-2.1-.7-3.1-.7-.8 0-1.4.2-1.9.5-.4.3-.7.8-.7 1.4 0 .4.1.8.2 1.1.2.3.4.5.8.8.4.2 1 .5 1.8.8 1.3.5 2.3 1 2.8 1.5.7.8 1 1.5 1 2.4zM40 661v-6.3c0-.8-.2-1.3-.5-1.7-.3-.4-.8-.6-1.5-.6-.9 0-1.6.3-2 .8-.4.5-.7 1.3-.7 2.4v5.4h-1.5v-6.3c0-.8-.2-1.3-.5-1.7-.3-.4-.8-.6-1.5-.6-.9 0-1.6.3-2 .8-.4.5-.6 1.4-.6 2.7v5.1h-1.5v-9.6h1.2l.2 1.3h.1c.3-.5.7-.8 1.2-1.1.5-.3 1.1-.4 1.7-.4 1.5 0 2.5.5 3 1.6h.1c.3-.5.7-.9 1.2-1.2.5-.3 1.2-.4 1.9-.4 1.1 0 1.9.3 2.4.8.5.6.8 1.5.8 2.7v6.3H40zm10.4 0l-.3-1.4H50c-.5.6-1 1-1.4 1.2-.5.2-1.1.3-1.8.3-1 0-1.7-.2-2.2-.7-.5-.5-.8-1.2-.8-2.1 0-1.9 1.6-3 4.7-3.1l1.6-.1v-.6c0-.8-.2-1.3-.5-1.7-.3-.4-.8-.5-1.6-.5s-1.7.2-2.7.7l-.4-1.1c.5-.3 1-.5 1.6-.6.6-.1 1.1-.2 1.7-.2 1.1 0 2 .3 2.5.8.6.5.8 1.3.8 2.5v6.6h-1.1zm-3.3-1c.9 0 1.6-.2 2.1-.7.5-.5.8-1.2.8-2.1v-.9l-1.5.1c-1.2 0-2 .2-2.5.5s-.8.8-.8 1.5c0 .5.2.9.5 1.2.4.2.8.4 1.4.4zm8.9 1h-1.5v-13.7H56V661zm4.6 0h-1.5v-13.7h1.5V661zm7-4.9c0-1.6.2-3 .7-4.4.5-1.4 1.1-2.5 2-3.6h1.4c-.8 1.1-1.5 2.4-1.9 3.7-.4 1.4-.6 2.7-.6 4.2 0 1.4.2 2.8.7 4.1.4 1.3 1.1 2.6 1.9 3.7h-1.4c-.9-1-1.5-2.2-2-3.5-.6-1.3-.8-2.7-.8-4.2zm13.4-4.9c0 .8-.2 1.5-.7 2-.5.5-1.1.9-2 1v.1c1 .1 1.8.5 2.3 1 .5.5.7 1.2.7 2.1 0 1.2-.4 2.2-1.3 2.8-.8.7-2.1 1-3.6 1-.7 0-1.3-.1-1.9-.2-.6-.1-1.1-.3-1.6-.5v-1.4c.6.3 1.1.5 1.8.6.6.1 1.2.2 1.8.2 2.2 0 3.3-.9 3.3-2.6 0-1.6-1.2-2.3-3.7-2.3H75v-1.3h1.3c1 0 1.8-.2 2.4-.7.6-.4.9-1.1.9-1.8 0-.6-.2-1.1-.7-1.5-.4-.4-1-.5-1.7-.5-.6 0-1.1.1-1.6.2-.5.2-1.1.4-1.7.8l-.7-1c.5-.4 1.1-.7 1.8-1 .7-.2 1.4-.4 2.2-.4 1.2 0 2.2.3 2.9.9.6.7.9 1.5.9 2.5zm10.8 9.8h-8.4v-1.3l3.4-3.4c1-1 1.7-1.8 2-2.2.3-.4.6-.9.7-1.3.2-.4.2-.9.2-1.4 0-.7-.2-1.2-.6-1.6-.4-.4-1-.6-1.7-.6-.5 0-1 .1-1.5.3-.5.2-1 .5-1.6 1l-.8-1c1.2-1 2.5-1.5 3.9-1.5 1.2 0 2.2.3 2.8.9.7.6 1 1.4 1 2.5 0 .8-.2 1.6-.7 2.4-.5.8-1.3 1.8-2.6 3l-2.8 2.8v.1h6.6v1.3zm10.4-6.4c0 2.2-.4 3.9-1.1 5-.7 1.1-1.8 1.6-3.2 1.6-1.4 0-2.4-.6-3.2-1.7-.7-1.1-1.1-2.8-1.1-4.9 0-2.2.3-3.9 1-5s1.8-1.6 3.2-1.6c1.4 0 2.5.6 3.2 1.7.9 1.1 1.2 2.7 1.2 4.9zm-7 0c0 1.9.2 3.2.7 4.1.4.8 1.1 1.3 2.1 1.3s1.7-.4 2.1-1.3c.4-.9.7-2.2.7-4.1 0-1.8-.2-3.2-.7-4.1-.4-.9-1.1-1.3-2.1-1.3s-1.7.4-2.1 1.3c-.5.8-.7 2.2-.7 4.1zm14 6.6c-.6 0-1.2-.1-1.7-.3-.5-.2-.9-.6-1.3-1.1h-.1c.1.6.1 1.1.1 1.6v4h-1.5v-14h1.2l.2 1.3h.1c.4-.5.8-.9 1.3-1.1.5-.2 1.1-.4 1.7-.4 1.3 0 2.3.4 3 1.3.7.9 1 2.1 1 3.7s-.4 2.8-1.1 3.7c-.7.8-1.6 1.3-2.9 1.3zm-.2-8.8c-1 0-1.7.3-2.1.8-.4.5-.7 1.4-.7 2.6v.3c0 1.4.2 2.3.7 2.9.5.6 1.2.9 2.2.9.8 0 1.5-.3 2-1s.7-1.6.7-2.8c0-1.2-.2-2.1-.7-2.8-.6-.5-1.3-.9-2.1-.9zm9.1 3.7l-3.3-4.7h1.7l2.5 3.7 2.5-3.7h1.6l-3.3 4.7 3.5 4.9h-1.7l-2.7-3.9-2.7 3.9h-1.7l3.6-4.9zm10.2 0c0 1.5-.2 3-.7 4.3-.5 1.3-1.1 2.5-2 3.5h-1.4c.8-1.1 1.4-2.3 1.9-3.7.4-1.3.6-2.7.6-4.1 0-1.4-.2-2.8-.6-4.2-.4-1.4-1.1-2.6-1.9-3.7h1.4c.9 1 1.5 2.2 2 3.6.5 1.3.7 2.7.7 4.3z"/><path class="prefix__st2" d="M0 672h320v80H0z"/><path class="prefix__st1" d="M0 672h320v56H0z"/><path class="prefix__st3" d="M0 672h320v56H0z"/><circle class="prefix__st1" cx="288" cy="700" r="16"/><path class="prefix__st4" d="M286.3 702.3c0 .9-.3 1.6-1 2.1s-1.5.8-2.7.8c-1.1 0-2.1-.2-2.8-.5v-1.5c.5.2.9.4 1.4.5.5.1 1 .2 1.4.2.6 0 1.1-.1 1.4-.4.3-.2.5-.6.5-1s-.1-.7-.4-1c-.3-.3-.9-.6-1.8-.9-.9-.4-1.6-.8-1.9-1.3-.4-.5-.6-1-.6-1.7 0-.8.3-1.5.9-2 .6-.5 1.4-.7 2.4-.7s1.9.2 2.9.6l-.5 1.3c-.9-.4-1.7-.6-2.4-.6-.5 0-.9.1-1.2.3-.3.2-.4.5-.4.9 0 .3.1.5.2.7.1.2.3.4.5.5.3.2.7.4 1.4.6.7.3 1.3.6 1.6.9.3.3.6.6.8.9.2.4.3.8.3 1.3zm6.2-6c-.9 0-1.7.3-2.2 1-.5.7-.8 1.6-.8 2.8 0 1.2.3 2.2.8 2.8.5.6 1.3.9 2.2.9.4 0 .8 0 1.2-.1l1.2-.3v1.4c-.8.3-1.7.4-2.7.4-1.5 0-2.6-.4-3.4-1.3-.8-.9-1.2-2.2-1.2-3.8 0-1 .2-1.9.6-2.7.4-.8.9-1.4 1.7-1.8.7-.4 1.6-.6 2.5-.6 1 0 2 .2 2.8.6l-.6 1.4c-.3-.2-.7-.3-1.1-.4-.2-.3-.6-.3-1-.3z"/><path class="prefix__st1" d="M147.5 702h-.8l-.3-.3c1-1.1 1.6-2.6 1.6-4.2 0-3.6-2.9-6.5-6.5-6.5s-6.5 2.9-6.5 6.5 2.9 6.5 6.5 6.5c1.6 0 3.1-.6 4.2-1.6l.3.3v.8l5 5 1.5-1.5-5-5zm-6 0c-2.5 0-4.5-2-4.5-4.5s2-4.5 4.5-4.5 4.5 2 4.5 4.5-2 4.5-4.5 4.5zM192 710c1.1 0 2-.9 2-2h-4c0 1.1.9 2 2 2zm6-6v-5c0-3.1-1.6-5.6-4.5-6.3v-.7c0-.8-.7-1.5-1.5-1.5s-1.5.7-1.5 1.5v.7c-2.9.7-4.5 3.2-4.5 6.3v5l-2 2v1h16v-1l-2-2zM240 696c1.1 0 2-.9 2-2s-.9-2-2-2-2 .9-2 2 .9 2 2 2zm0 2c-1.1 0-2 .9-2 2s.9 2 2 2 2-.9 2-2-.9-2-2-2zm0 6c-1.1 0-2 .9-2 2s.9 2 2 2 2-.9 2-2-.9-2-2-2z"/><defs><path id="prefix__SVGID_1_" d="M60 688h23.9v24H60z"/></defs><clipPath id="prefix__SVGID_00000120545401872692561660000006948562478876898962_"><use xlink:href="#prefix__SVGID_1_" overflow="visible"/></clipPath><g clip-path="url(#prefix__SVGID_00000120545401872692561660000006948562478876898962_)"><path class="prefix__st1" d="M73.9 697.4l8.8-5.1V688l-8.8 5.1-5-2.9v4.4l5 2.8zM75.1 699.6v10.2l3.8 2.2v-10.2l5-2.9-3.8-2.2-5 2.9zM72.6 699.6l-8.8-5.1-3.8 2.2 8.8 5.1v5.8l3.8-2.2v-5.8z"/></g><path class="prefix__st1" d="M19 706h18v-2H19v2zm0-5h18v-2H19v2zm0-7v2h18v-2H19z"/><path class="prefix__st2" d="M0 544h576v80H0z"/><path class="prefix__st1" d="M0 544h576v56H0z"/><path class="prefix__st3" d="M0 544h576v56H0z"/><circle class="prefix__st1" cx="536" cy="572" r="16"/><path class="prefix__st4" d="M534.3 574.3c0 .9-.3 1.6-1 2.1s-1.5.8-2.7.8-2.1-.2-2.8-.5v-1.5c.5.2.9.4 1.5.5.5.1 1 .2 1.4.2.6 0 1.1-.1 1.4-.4.3-.2.5-.6.5-1s-.1-.7-.4-1c-.3-.3-.9-.6-1.8-.9-.9-.4-1.6-.8-1.9-1.3-.4-.5-.6-1-.6-1.7 0-.8.3-1.5.9-2 .6-.5 1.4-.7 2.4-.7s1.9.2 2.9.6l-.5 1.3c-.9-.4-1.7-.6-2.4-.6-.5 0-.9.1-1.2.3-.3.2-.4.5-.4.9 0 .3.1.5.2.7.1.2.3.4.5.5.3.2.7.4 1.4.6.7.3 1.3.6 1.6.9.3.3.6.6.8.9.1.4.2.8.2 1.3zm6.2-6c-.9 0-1.7.3-2.2 1-.5.7-.8 1.6-.8 2.8 0 1.2.3 2.2.8 2.8.5.6 1.3.9 2.2.9.4 0 .8 0 1.2-.1l1.2-.3v1.4c-.8.3-1.7.4-2.7.4-1.5 0-2.6-.4-3.4-1.3-.8-.9-1.2-2.2-1.2-3.8 0-1 .2-1.9.6-2.7.4-.8.9-1.4 1.7-1.8.7-.4 1.6-.6 2.5-.6 1 0 2 .2 2.8.6l-.6 1.4c-.3-.2-.7-.3-1.1-.4-.2-.3-.6-.3-1-.3z"/><defs><path id="prefix__SVGID_00000120544790331901191850000009100616497178239145_" d="M64 560h227.9v24H64z"/></defs><clipPath id="prefix__SVGID_00000154392170345802954690000005744797263415896233_"><use xlink:href="#prefix__SVGID_00000120544790331901191850000009100616497178239145_" overflow="visible"/></clipPath><g clip-path="url(#prefix__SVGID_00000154392170345802954690000005744797263415896233_)"><path class="prefix__st1" d="M77.9 569.4l8.8-5.1V560l-8.8 5.1-5-2.9v4.4l5 2.8zM79.1 571.6v10.2l3.8 2.2v-10.2l5-2.9-3.8-2.2-5 2.9zM76.6 571.6l-8.8-5.1-3.8 2.2 8.8 5.1v5.8l3.8-2.2v-5.8zM101.5 580.8V566h-5.4v-2.7h13.8v2.7h-5.4v14.8h-3zM109.4 580.8v-12.6h2.9v2.1h.1c.8-1.3 2.1-2.3 4.5-2.3h.2l-.1 2.7c-.2 0-.6-.1-.8-.1-1.9 0-3 .9-3.9 2.2v8h-2.9zM118.6 566.1v-2.5h3v2.5h-3zm.1 14.7v-12.6h2.9v12.6h-2.9zM124.3 580.8v-12.6h2.9v1.7c1-1.1 2.4-2 4.3-2 2.1 0 2.9.8 3.4 2.1 1-1.1 2.5-2.1 4.4-2.1 2.6 0 3.7 1.5 3.7 3.8v9h-2.9v-8.3c0-1.4-.4-2-1.8-2-1.2 0-2.1.7-3.2 1.6v8.7h-2.9v-8.3c0-1.4-.4-2-1.8-2-1.2 0-2.1.7-3.2 1.6v8.7h-2.9zM148.6 579.4v1.4h-2.9v-17.5h2.9v6.6c.8-1 2.1-1.9 4-1.9 2.9 0 5 2.2 5 6.5s-2.2 6.5-5.4 6.5c-1.3 0-2.6-.6-3.6-1.6zm6.1-4.9c0-2.6-1.1-4.1-3-4.1-1.2 0-2.4.8-3 1.6v5c.8 1 1.9 1.6 2.9 1.6 2.2.1 3.1-1.3 3.1-4.1zM159.8 580.8v-17.5h2.9v17.5h-2.9zM164.8 574.5c0-4.8 3.4-6.5 6-6.5 2.8 0 5.5 1.7 5.5 6.8v.7h-8.6c.1 2.3 1.5 3.3 3.3 3.3 1.6 0 2.6-.6 3.5-1.5l1.5 1.5c-1.3 1.4-3 2.3-5.3 2.3-2.9 0-5.9-1.9-5.9-6.6zm8.9-1.2c-.2-1.9-1.1-2.9-2.9-2.9-1.4 0-2.7.8-3 2.9h5.9zM184.6 563.3h10.5v1.6h-8.8v5.9h6.5v1.5h-6.5v7h9.3v1.5h-11v-17.5zM197.4 578.8l1-1c1 1.1 2.2 1.8 3.9 1.8 2.1 0 3.2-.8 3.2-2.2 0-1.4-1-1.9-3.4-2.5-2.9-.7-4.3-1.5-4.3-3.7 0-1.8 1.5-3.3 4.2-3.3 2.1 0 3.5.7 4.6 1.8l-.9 1.1c-1-1-2.1-1.5-3.7-1.5-1.9 0-2.7.9-2.7 1.8 0 1.2.9 1.7 3 2.2 3.1.8 4.7 1.5 4.7 4 0 2.3-2 3.6-4.9 3.6-2 .2-3.7-.8-4.7-2.1zM210.7 577.9v-8.2h-2.2v-1.4h2.2v-4.5h1.6v4.5h3.2v1.4h-3.2v7.8c0 1.3.4 2 2 2 .5 0 1-.1 1.3-.2v1.4c-.4.1-1 .2-1.6.2-2.4.1-3.3-.9-3.3-3zM217.7 563.7h1.7v1.8h-1.7v-1.8zm.1 4.6h1.6v12.5h-1.6v-12.5zM222.6 568.3h1.6v2c1.3-1.2 2.7-2.2 4.6-2.2 2.1 0 3 .9 3.4 2.2 1.3-1.2 2.9-2.2 4.7-2.2 2.6 0 3.6 1.4 3.6 3.7v9h-1.6v-8.7c0-1.8-.6-2.6-2.3-2.6-1.5 0-2.8.8-4.2 2.2v9.1h-1.6v-8.7c0-1.8-.6-2.6-2.4-2.6-1.5 0-2.8.8-4.2 2.2v9.1h-1.6v-12.5zM242.9 577.9c0-2.5 2.1-4.3 8.5-5.2v-.7c0-1.7-.9-2.6-2.5-2.6-2 0-3.3.8-4.7 2l-.9-1c1.5-1.4 3.2-2.3 5.7-2.3 2.8 0 4 1.5 4 4v5.7c0 1.5.1 2.4.4 3.1h-1.7c-.2-.5-.3-1.1-.3-1.8-1.4 1.3-3 2-4.9 2-2.3-.1-3.6-1.3-3.6-3.2zm8.4-.2v-3.9c-5.3.9-6.9 2.2-6.9 3.9 0 1.3.9 2 2.3 2 1.8 0 3.4-.8 4.6-2zM256.8 577.9v-8.2h-2.2v-1.4h2.2v-4.5h1.6v4.5h3.2v1.4h-3.2v7.8c0 1.3.4 2 2 2 .5 0 1-.1 1.3-.2v1.4c-.4.1-1 .2-1.6.2-2.4.1-3.3-.9-3.3-3zM263.8 563.7h1.7v1.8h-1.7v-1.8zm.1 4.6h1.6v12.5h-1.6v-12.5zM268 574.6c0-4.2 2.6-6.5 5.7-6.5 3 0 5.6 2.3 5.6 6.5 0 4.1-2.6 6.5-5.6 6.5-3.1 0-5.7-2.4-5.7-6.5zm9.7 0c0-2.7-1.4-5.1-4-5.1-2.5 0-4 2.1-4 5.1 0 2.8 1.4 5.1 4 5.1 2.5 0 4-2.1 4-5.1zM281.8 568.3h1.6v2c1.2-1.2 2.8-2.2 4.8-2.2 2.5 0 3.7 1.4 3.7 3.7v9h-1.6v-8.7c0-1.8-.8-2.6-2.5-2.6-1.6 0-2.9.8-4.4 2.2v9.1h-1.6v-12.5z"/></g><path class="prefix__st1" d="M347.5 574h-.8l-.3-.3c1-1.1 1.6-2.6 1.6-4.2 0-3.6-2.9-6.5-6.5-6.5s-6.5 2.9-6.5 6.5 2.9 6.5 6.5 6.5c1.6 0 3.1-.6 4.2-1.6l.3.3v.8l5 5 1.5-1.5-5-5zm-6 0c-2.5 0-4.5-2-4.5-4.5s2-4.5 4.5-4.5 4.5 2 4.5 4.5-2 4.5-4.5 4.5zM392 582c1.1 0 2-.9 2-2h-4c0 1.1.9 2 2 2zm6-6v-5c0-3.1-1.6-5.6-4.5-6.3v-.7c0-.8-.7-1.5-1.5-1.5s-1.5.7-1.5 1.5v.7c-2.9.7-4.5 3.2-4.5 6.3v5l-2 2v1h16v-1l-2-2zM440 562c-5.5 0-10 4.5-10 10s4.5 10 10 10 10-4.5 10-10-4.5-10-10-10zm1 17h-2v-2h2v2zm2.1-7.8l-.9.9c-.7.7-1.2 1.3-1.2 2.8h-2v-.5c0-1.1.5-2.1 1.2-2.8l1.2-1.3c.4-.4.6-.9.6-1.4 0-1.1-.9-2-2-2s-2 .9-2 2h-2c0-2.2 1.8-4 4-4s4 1.8 4 4c0 1-.4 1.8-.9 2.3zM480 568h4v-4h-4v4zm6 12h4v-4h-4v4zm-6 0h4v-4h-4v4zm0-6h4v-4h-4v4zm6 0h4v-4h-4v4zm6-10v4h4v-4h-4zm-6 4h4v-4h-4v4zm6 6h4v-4h-4v4zm0 6h4v-4h-4v4zM23 578h18v-2H23v2zm0-5h18v-2H23v2zm0-7v2h18v-2H23z"/><path class="prefix__st2" d="M0 416h768v80H0z"/><path class="prefix__st1" d="M0 416h768v56H0z"/><path class="prefix__st3" d="M0 416h768v56H0z"/><circle class="prefix__st1" cx="728" cy="444" r="16"/><path class="prefix__st4" d="M726.3 446.3c0 .9-.3 1.6-1 2.1-.6.5-1.5.8-2.7.8s-2.1-.2-2.8-.5v-1.5c.5.2.9.4 1.5.5.5.1 1 .2 1.4.2.6 0 1.1-.1 1.4-.4.3-.2.5-.6.5-1s-.1-.7-.4-1c-.3-.3-.9-.6-1.8-.9-.9-.4-1.6-.8-1.9-1.3-.4-.5-.6-1-.6-1.7 0-.8.3-1.5.9-2 .6-.5 1.4-.7 2.4-.7s1.9.2 2.9.6l-.5 1.3c-.9-.4-1.7-.6-2.4-.6-.5 0-.9.1-1.2.3-.3.2-.4.5-.4.9 0 .3.1.5.2.7.1.2.3.4.5.5.3.2.7.4 1.4.6.7.3 1.3.6 1.6.9.3.3.6.6.8.9.1.4.2.8.2 1.3zm6.2-6c-.9 0-1.7.3-2.2 1-.5.7-.8 1.6-.8 2.8 0 1.2.3 2.2.8 2.8.5.6 1.3.9 2.2.9.4 0 .8 0 1.2-.1l1.2-.3v1.4c-.8.3-1.7.4-2.7.4-1.5 0-2.6-.4-3.4-1.3-.8-.9-1.2-2.2-1.2-3.8 0-1 .2-1.9.6-2.7.4-.8.9-1.4 1.7-1.8.7-.4 1.6-.6 2.5-.6 1 0 2 .2 2.8.6l-.6 1.4c-.3-.2-.7-.3-1.1-.4-.2-.3-.6-.3-1-.3z"/><defs><path id="prefix__SVGID_00000015332318541310799150000009222834238949882755_" d="M64 432h227.9v24H64z"/></defs><clipPath id="prefix__SVGID_00000147179619110025286010000009556512976448363904_"><use xlink:href="#prefix__SVGID_00000015332318541310799150000009222834238949882755_" overflow="visible"/></clipPath><g clip-path="url(#prefix__SVGID_00000147179619110025286010000009556512976448363904_)"><path class="prefix__st1" d="M77.9 441.4l8.8-5.1V432l-8.8 5.1-5-2.9v4.4l5 2.8zM79.1 443.6v10.2l3.8 2.2v-10.2l5-2.9-3.8-2.2-5 2.9zM76.6 443.6l-8.8-5.1-3.8 2.2 8.8 5.1v5.8l3.8-2.2v-5.8zM101.5 452.8V438h-5.4v-2.7h13.8v2.7h-5.4v14.8h-3zM109.4 452.8v-12.6h2.9v2.1h.1c.8-1.3 2.1-2.3 4.5-2.3h.2l-.1 2.7c-.2 0-.6-.1-.8-.1-1.9 0-3 .9-3.9 2.2v8h-2.9zM118.6 438.1v-2.5h3v2.5h-3zm.1 14.7v-12.6h2.9v12.6h-2.9zM124.3 452.8v-12.6h2.9v1.7c1-1.1 2.4-2 4.3-2 2.1 0 2.9.8 3.4 2.1 1-1.1 2.5-2.1 4.4-2.1 2.6 0 3.7 1.5 3.7 3.8v9h-2.9v-8.3c0-1.4-.4-2-1.8-2-1.2 0-2.1.7-3.2 1.6v8.7h-2.9v-8.3c0-1.4-.4-2-1.8-2-1.2 0-2.1.7-3.2 1.6v8.7h-2.9zM148.6 451.4v1.4h-2.9v-17.5h2.9v6.6c.8-1 2.1-1.9 4-1.9 2.9 0 5 2.2 5 6.5s-2.2 6.5-5.4 6.5c-1.3 0-2.6-.6-3.6-1.6zm6.1-4.9c0-2.6-1.1-4.1-3-4.1-1.2 0-2.4.8-3 1.6v5c.8 1 1.9 1.6 2.9 1.6 2.2.1 3.1-1.3 3.1-4.1zM159.8 452.8v-17.5h2.9v17.5h-2.9zM164.8 446.5c0-4.8 3.4-6.5 6-6.5 2.8 0 5.5 1.7 5.5 6.8v.7h-8.6c.1 2.3 1.5 3.3 3.3 3.3 1.6 0 2.6-.6 3.5-1.5l1.5 1.5c-1.3 1.4-3 2.3-5.3 2.3-2.9 0-5.9-1.9-5.9-6.6zm8.9-1.2c-.2-1.9-1.1-2.9-2.9-2.9-1.4 0-2.7.8-3 2.9h5.9zM184.6 435.3h10.5v1.6h-8.8v5.9h6.5v1.5h-6.5v7h9.3v1.5h-11v-17.5zM197.4 450.8l1-1c1 1.1 2.2 1.8 3.9 1.8 2.1 0 3.2-.8 3.2-2.2 0-1.4-1-1.9-3.4-2.5-2.9-.7-4.3-1.5-4.3-3.7 0-1.8 1.5-3.3 4.2-3.3 2.1 0 3.5.7 4.6 1.8l-.9 1.1c-1-1-2.1-1.5-3.7-1.5-1.9 0-2.7.9-2.7 1.8 0 1.2.9 1.7 3 2.2 3.1.8 4.7 1.5 4.7 4 0 2.3-2 3.6-4.9 3.6-2 .2-3.7-.8-4.7-2.1zM210.7 449.9v-8.2h-2.2v-1.4h2.2v-4.5h1.6v4.5h3.2v1.4h-3.2v7.8c0 1.3.4 2 2 2 .5 0 1 0 1.3-.2v1.4c-.4.1-1 .2-1.6.2-2.4.1-3.3-.9-3.3-3zM217.7 435.7h1.7v1.8h-1.7v-1.8zm.1 4.6h1.6v12.5h-1.6v-12.5zM222.6 440.3h1.6v2c1.3-1.2 2.7-2.2 4.6-2.2 2.1 0 3 .9 3.4 2.2 1.3-1.2 2.9-2.2 4.7-2.2 2.6 0 3.6 1.4 3.6 3.7v9h-1.6v-8.7c0-1.8-.6-2.6-2.3-2.6-1.5 0-2.8.8-4.2 2.2v9.1h-1.6v-8.7c0-1.8-.6-2.6-2.4-2.6-1.5 0-2.8.8-4.2 2.2v9.1h-1.6v-12.5zM242.9 449.9c0-2.5 2.1-4.3 8.5-5.2v-.7c0-1.7-.9-2.6-2.5-2.6-2 0-3.3.8-4.7 2l-.9-1c1.5-1.4 3.2-2.3 5.7-2.3 2.8 0 4 1.5 4 4v5.7c0 1.5.1 2.4.4 3.1h-1.7c-.2-.5-.3-1.1-.3-1.8-1.4 1.3-3 2-4.9 2-2.3-.1-3.6-1.3-3.6-3.2zm8.4-.2v-3.9c-5.3.9-6.9 2.2-6.9 3.9 0 1.3.9 2 2.3 2 1.8 0 3.4-.8 4.6-2zM256.8 449.9v-8.2h-2.2v-1.4h2.2v-4.5h1.6v4.5h3.2v1.4h-3.2v7.8c0 1.3.4 2 2 2 .5 0 1 0 1.3-.2v1.4c-.4.1-1 .2-1.6.2-2.4.1-3.3-.9-3.3-3zM263.8 435.7h1.7v1.8h-1.7v-1.8zm.1 4.6h1.6v12.5h-1.6v-12.5zM268 446.6c0-4.2 2.6-6.5 5.7-6.5 3 0 5.6 2.3 5.6 6.5 0 4.1-2.6 6.5-5.6 6.5-3.1 0-5.7-2.4-5.7-6.5zm9.7 0c0-2.7-1.4-5.1-4-5.1-2.5 0-4 2.1-4 5.1 0 2.8 1.4 5.1 4 5.1 2.5 0 4-2.1 4-5.1zM281.8 440.3h1.6v2c1.2-1.2 2.8-2.2 4.8-2.2 2.5 0 3.7 1.4 3.7 3.7v9h-1.6v-8.7c0-1.8-.8-2.6-2.5-2.6-1.6 0-2.9.8-4.4 2.2v9.1h-1.6v-12.5z"/></g><path class="prefix__st1" d="M539.5 446h-.8l-.3-.3c1-1.1 1.6-2.6 1.6-4.2 0-3.6-2.9-6.5-6.5-6.5s-6.5 2.9-6.5 6.5 2.9 6.5 6.5 6.5c1.6 0 3.1-.6 4.2-1.6l.3.3v.8l5 5 1.5-1.5-5-5zm-6 0c-2.5 0-4.5-2-4.5-4.5s2-4.5 4.5-4.5 4.5 2 4.5 4.5-2 4.5-4.5 4.5zM584 454c1.1 0 2-.9 2-2h-4c0 1.1.9 2 2 2zm6-6v-5c0-3.1-1.6-5.6-4.5-6.3v-.7c0-.8-.7-1.5-1.5-1.5s-1.5.7-1.5 1.5v.7c-2.9.7-4.5 3.2-4.5 6.3v5l-2 2v1h16v-1l-2-2zM632 434c-5.5 0-10 4.5-10 10s4.5 10 10 10 10-4.5 10-10-4.5-10-10-10zm1 17h-2v-2h2v2zm2.1-7.8l-.9.9c-.7.7-1.2 1.3-1.2 2.8h-2v-.5c0-1.1.5-2.1 1.2-2.8l1.2-1.3c.4-.4.6-.9.6-1.4 0-1.1-.9-2-2-2s-2 .9-2 2h-2c0-2.2 1.8-4 4-4s4 1.8 4 4c0 1-.4 1.8-.9 2.3zM672 440h4v-4h-4v4zm6 12h4v-4h-4v4zm-6 0h4v-4h-4v4zm0-6h4v-4h-4v4zm6 0h4v-4h-4v4zm6-10v4h4v-4h-4zm-6 4h4v-4h-4v4zm6 6h4v-4h-4v4zm0 6h4v-4h-4v4zM23 450h18v-2H23v2zm0-5h18v-2H23v2zm0-7v2h18v-2H23z"/><path class="prefix__st2" d="M0 288h992v80H0z"/><path class="prefix__st1" d="M0 288h992v56H0z"/><path class="prefix__st3" d="M0 288h992v56H0z"/><circle class="prefix__st1" cx="952" cy="316" r="16"/><path class="prefix__st4" d="M950.3 318.3c0 .9-.3 1.6-1 2.1-.6.5-1.5.8-2.7.8s-2.1-.2-2.8-.5v-1.5c.5.2.9.4 1.5.5.5.1 1 .2 1.4.2.6 0 1.1-.1 1.4-.4.3-.2.5-.6.5-1s-.1-.7-.4-1c-.3-.3-.9-.6-1.8-.9-.9-.4-1.6-.8-1.9-1.3-.4-.5-.6-1-.6-1.7 0-.8.3-1.5.9-2 .6-.5 1.4-.7 2.4-.7s1.9.2 2.9.6l-.5 1.3c-.9-.4-1.7-.6-2.4-.6-.5 0-.9.1-1.2.3-.3.2-.4.5-.4.9 0 .3.1.5.2.7.1.2.3.4.5.5.3.2.7.4 1.4.6.7.3 1.3.6 1.6.9.3.3.6.6.8.9.1.4.2.8.2 1.3zm6.2-6c-.9 0-1.7.3-2.2 1-.5.7-.8 1.6-.8 2.8 0 1.2.3 2.2.8 2.8.5.6 1.3.9 2.2.9.4 0 .8 0 1.2-.1l1.2-.3v1.4c-.8.3-1.7.4-2.7.4-1.5 0-2.6-.4-3.4-1.3-.8-.9-1.2-2.2-1.2-3.8 0-1 .2-1.9.6-2.7.4-.8.9-1.4 1.7-1.8.7-.4 1.6-.6 2.5-.6 1 0 2 .2 2.8.6l-.6 1.4c-.3-.2-.7-.3-1.1-.4-.2-.3-.6-.3-1-.3z"/><defs><path id="prefix__SVGID_00000057861505980521115960000009658693666289295276_" d="M64 304h227.9v24H64z"/></defs><clipPath id="prefix__SVGID_00000165914235130326459110000011574807768528654724_"><use xlink:href="#prefix__SVGID_00000057861505980521115960000009658693666289295276_" overflow="visible"/></clipPath><g clip-path="url(#prefix__SVGID_00000165914235130326459110000011574807768528654724_)"><path class="prefix__st1" d="M77.9 313.4l8.8-5.1V304l-8.8 5.1-5-2.9v4.4l5 2.8zM79.1 315.6v10.2l3.8 2.2v-10.2l5-2.9-3.8-2.2-5 2.9zM76.6 315.6l-8.8-5.1-3.8 2.2 8.8 5.1v5.8l3.8-2.2v-5.8zM101.5 324.8V310h-5.4v-2.7h13.8v2.7h-5.4v14.8h-3zM109.4 324.8v-12.6h2.9v2.1h.1c.8-1.3 2.1-2.3 4.5-2.3h.2l-.1 2.7c-.2 0-.6-.1-.8-.1-1.9 0-3 .9-3.9 2.2v8h-2.9zM118.6 310.1v-2.5h3v2.5h-3zm.1 14.7v-12.6h2.9v12.6h-2.9zM124.3 324.8v-12.6h2.9v1.7c1-1.1 2.4-2 4.3-2 2.1 0 2.9.8 3.4 2.1 1-1.1 2.5-2.1 4.4-2.1 2.6 0 3.7 1.5 3.7 3.8v9h-2.9v-8.3c0-1.4-.4-2-1.8-2-1.2 0-2.1.7-3.2 1.6v8.7h-2.9v-8.3c0-1.4-.4-2-1.8-2-1.2 0-2.1.7-3.2 1.6v8.7h-2.9zM148.6 323.4v1.4h-2.9v-17.5h2.9v6.6c.8-1 2.1-1.9 4-1.9 2.9 0 5 2.2 5 6.5s-2.2 6.5-5.4 6.5c-1.3 0-2.6-.6-3.6-1.6zm6.1-4.9c0-2.6-1.1-4.1-3-4.1-1.2 0-2.4.8-3 1.6v5c.8 1 1.9 1.6 2.9 1.6 2.2.1 3.1-1.3 3.1-4.1zM159.8 324.8v-17.5h2.9v17.5h-2.9zM164.8 318.5c0-4.8 3.4-6.5 6-6.5 2.8 0 5.5 1.7 5.5 6.8v.7h-8.6c.1 2.3 1.5 3.3 3.3 3.3 1.6 0 2.6-.6 3.5-1.5l1.5 1.5c-1.3 1.4-3 2.3-5.3 2.3-2.9 0-5.9-1.9-5.9-6.6zm8.9-1.2c-.2-1.9-1.1-2.9-2.9-2.9-1.4 0-2.7.8-3 2.9h5.9zM184.6 307.3h10.5v1.6h-8.8v5.9h6.5v1.5h-6.5v7h9.3v1.5h-11v-17.5zM197.4 322.8l1-1c1 1.1 2.2 1.8 3.9 1.8 2.1 0 3.2-.8 3.2-2.2 0-1.4-1-1.9-3.4-2.5-2.9-.7-4.3-1.5-4.3-3.7 0-1.8 1.5-3.3 4.2-3.3 2.1 0 3.5.7 4.6 1.8l-.9 1.1c-1-1-2.1-1.5-3.7-1.5-1.9 0-2.7.9-2.7 1.8 0 1.2.9 1.7 3 2.2 3.1.8 4.7 1.5 4.7 4 0 2.3-2 3.6-4.9 3.6-2 .2-3.7-.8-4.7-2.1zM210.7 321.9v-8.2h-2.2v-1.4h2.2v-4.5h1.6v4.5h3.2v1.4h-3.2v7.8c0 1.3.4 2 2 2 .5 0 1 0 1.3-.2v1.4c-.4.1-1 .2-1.6.2-2.4.1-3.3-.9-3.3-3zM217.7 307.7h1.7v1.8h-1.7v-1.8zm.1 4.6h1.6v12.5h-1.6v-12.5zM222.6 312.3h1.6v2c1.3-1.2 2.7-2.2 4.6-2.2 2.1 0 3 .9 3.4 2.2 1.3-1.2 2.9-2.2 4.7-2.2 2.6 0 3.6 1.4 3.6 3.7v9h-1.6v-8.7c0-1.8-.6-2.6-2.3-2.6-1.5 0-2.8.8-4.2 2.2v9.1h-1.6v-8.7c0-1.8-.6-2.6-2.4-2.6-1.5 0-2.8.8-4.2 2.2v9.1h-1.6v-12.5zM242.9 321.9c0-2.5 2.1-4.3 8.5-5.2v-.7c0-1.7-.9-2.6-2.5-2.6-2 0-3.3.8-4.7 2l-.9-1c1.5-1.4 3.2-2.3 5.7-2.3 2.8 0 4 1.5 4 4v5.7c0 1.5.1 2.4.4 3.1h-1.7c-.2-.5-.3-1.1-.3-1.8-1.4 1.3-3 2-4.9 2-2.3-.1-3.6-1.3-3.6-3.2zm8.4-.2v-3.9c-5.3.9-6.9 2.2-6.9 3.9 0 1.3.9 2 2.3 2 1.8 0 3.4-.8 4.6-2zM256.8 321.9v-8.2h-2.2v-1.4h2.2v-4.5h1.6v4.5h3.2v1.4h-3.2v7.8c0 1.3.4 2 2 2 .5 0 1 0 1.3-.2v1.4c-.4.1-1 .2-1.6.2-2.4.1-3.3-.9-3.3-3zM263.8 307.7h1.7v1.8h-1.7v-1.8zm.1 4.6h1.6v12.5h-1.6v-12.5zM268 318.6c0-4.2 2.6-6.5 5.7-6.5 3 0 5.6 2.3 5.6 6.5 0 4.1-2.6 6.5-5.6 6.5-3.1 0-5.7-2.4-5.7-6.5zm9.7 0c0-2.7-1.4-5.1-4-5.1-2.5 0-4 2.1-4 5.1 0 2.8 1.4 5.1 4 5.1 2.5 0 4-2.1 4-5.1zM281.8 312.3h1.6v2c1.2-1.2 2.8-2.2 4.8-2.2 2.5 0 3.7 1.4 3.7 3.7v9h-1.6v-8.7c0-1.8-.8-2.6-2.5-2.6-1.6 0-2.9.8-4.4 2.2v9.1h-1.6v-12.5z"/></g><path class="prefix__st1" d="M763.5 318h-.8l-.3-.3c1-1.1 1.6-2.6 1.6-4.2 0-3.6-2.9-6.5-6.5-6.5s-6.5 2.9-6.5 6.5 2.9 6.5 6.5 6.5c1.6 0 3.1-.6 4.2-1.6l.3.3v.8l5 5 1.5-1.5-5-5zm-6 0c-2.5 0-4.5-2-4.5-4.5s2-4.5 4.5-4.5 4.5 2 4.5 4.5-2 4.5-4.5 4.5zM808 326c1.1 0 2-.9 2-2h-4c0 1.1.9 2 2 2zm6-6v-5c0-3.1-1.6-5.6-4.5-6.3v-.7c0-.8-.7-1.5-1.5-1.5s-1.5.7-1.5 1.5v.7c-2.9.7-4.5 3.2-4.5 6.3v5l-2 2v1h16v-1l-2-2zM856 306c-5.5 0-10 4.5-10 10s4.5 10 10 10 10-4.5 10-10-4.5-10-10-10zm1 17h-2v-2h2v2zm2.1-7.8l-.9.9c-.7.7-1.2 1.3-1.2 2.8h-2v-.5c0-1.1.5-2.1 1.2-2.8l1.2-1.3c.4-.4.6-.9.6-1.4 0-1.1-.9-2-2-2s-2 .9-2 2h-2c0-2.2 1.8-4 4-4s4 1.8 4 4c0 1-.4 1.8-.9 2.3zM896 312h4v-4h-4v4zm6 12h4v-4h-4v4zm-6 0h4v-4h-4v4zm0-6h4v-4h-4v4zm6 0h4v-4h-4v4zm6-10v4h4v-4h-4zm-6 4h4v-4h-4v4zm6 6h4v-4h-4v4zm0 6h4v-4h-4v4zM23 322h18v-2H23v2zm0-5h18v-2H23v2zm0-7v2h18v-2H23z"/><path class="prefix__st2" d="M0 160h1200v80H0z"/><path class="prefix__st1" d="M0 160h1200v56H0z"/><path class="prefix__st3" d="M0 160h1200v56H0z"/><circle class="prefix__st1" cx="1160" cy="188" r="16"/><path class="prefix__st4" d="M1158.3 190.3c0 .9-.3 1.6-1 2.1-.6.5-1.5.8-2.7.8s-2.1-.2-2.8-.5v-1.5c.4.2.9.4 1.4.5s1 .2 1.4.2c.7 0 1.1-.1 1.4-.4.3-.2.5-.6.5-1s-.1-.7-.4-1c-.3-.3-.9-.6-1.8-.9-.9-.4-1.6-.8-1.9-1.3-.4-.5-.6-1-.6-1.7 0-.8.3-1.5.9-2 .6-.5 1.4-.7 2.4-.7s1.9.2 2.9.6l-.5 1.3c-.9-.4-1.7-.6-2.4-.6-.5 0-.9.1-1.2.3-.3.2-.4.5-.4.9 0 .3.1.5.2.7.1.2.3.4.5.5s.7.4 1.3.6c.7.3 1.3.6 1.6.9.3.3.6.6.8.9.3.4.4.8.4 1.3zm6.2-6c-.9 0-1.7.3-2.2 1-.5.7-.8 1.6-.8 2.8 0 1.2.3 2.2.8 2.8.5.6 1.3.9 2.2.9.4 0 .8 0 1.2-.1l1.2-.3v1.4c-.8.3-1.7.4-2.7.4-1.5 0-2.6-.4-3.4-1.3-.8-.9-1.2-2.2-1.2-3.8 0-1 .2-1.9.6-2.7.4-.8.9-1.4 1.6-1.8.7-.4 1.6-.6 2.5-.6 1 0 2 .2 2.8.6l-.6 1.4c-.3-.2-.7-.3-1.1-.4-.1-.3-.5-.3-.9-.3z"/><defs><path id="prefix__SVGID_00000031165453583459459790000017601540237746378171_" d="M64 176h227.9v24H64z"/></defs><clipPath id="prefix__SVGID_00000170959198253176571890000009164749043418537603_"><use xlink:href="#prefix__SVGID_00000031165453583459459790000017601540237746378171_" overflow="visible"/></clipPath><g clip-path="url(#prefix__SVGID_00000170959198253176571890000009164749043418537603_)"><path class="prefix__st1" d="M77.9 185.4l8.8-5.1V176l-8.8 5.1-5-2.9v4.4l5 2.8zM79.1 187.6v10.2l3.8 2.2v-10.2l5-2.9-3.8-2.2-5 2.9zM76.6 187.6l-8.8-5.1-3.8 2.2 8.8 5.1v5.8l3.8-2.2v-5.8zM101.5 196.8V182h-5.4v-2.7h13.8v2.7h-5.4v14.8h-3zM109.4 196.8v-12.6h2.9v2.1h.1c.8-1.3 2.1-2.3 4.5-2.3h.2l-.1 2.7h-.8c-1.9 0-3 .9-3.9 2.2v8h-2.9zM118.6 182.1v-2.5h3v2.5h-3zm.1 14.7v-12.6h2.9v12.6h-2.9zM124.3 196.8v-12.6h2.9v1.7c1-1.1 2.4-2 4.3-2 2.1 0 2.9.8 3.4 2.1 1-1.1 2.5-2.1 4.4-2.1 2.6 0 3.7 1.5 3.7 3.8v9h-2.9v-8.3c0-1.4-.4-2-1.8-2-1.2 0-2.1.7-3.2 1.6v8.7h-2.9v-8.3c0-1.4-.4-2-1.8-2-1.2 0-2.1.7-3.2 1.6v8.7h-2.9zM148.6 195.4v1.4h-2.9v-17.5h2.9v6.6c.8-1 2.1-1.9 4-1.9 2.9 0 5 2.2 5 6.5s-2.2 6.5-5.4 6.5c-1.3 0-2.6-.6-3.6-1.6zm6.1-4.9c0-2.6-1.1-4.1-3-4.1-1.2 0-2.4.8-3 1.6v5c.8 1 1.9 1.6 2.9 1.6 2.2.1 3.1-1.3 3.1-4.1zM159.8 196.8v-17.5h2.9v17.5h-2.9zM164.8 190.5c0-4.8 3.4-6.5 6-6.5 2.8 0 5.5 1.7 5.5 6.8v.7h-8.6c.1 2.3 1.5 3.3 3.3 3.3 1.6 0 2.6-.6 3.5-1.5l1.5 1.5c-1.3 1.4-3 2.3-5.3 2.3-2.9 0-5.9-1.9-5.9-6.6zm8.9-1.2c-.2-1.9-1.1-2.9-2.9-2.9-1.4 0-2.7.8-3 2.9h5.9zM184.6 179.3h10.5v1.6h-8.8v5.9h6.5v1.5h-6.5v6.9h9.3v1.5h-11v-17.4zM197.4 194.8l1-1c1 1.1 2.2 1.8 3.9 1.8 2.1 0 3.2-.8 3.2-2.2 0-1.4-1-1.9-3.4-2.5-2.9-.7-4.3-1.5-4.3-3.7 0-1.8 1.5-3.3 4.2-3.3 2.1 0 3.5.7 4.6 1.8l-.9 1.1c-1-1-2.1-1.5-3.7-1.5-1.9 0-2.7.9-2.7 1.8 0 1.2.9 1.7 3 2.2 3.1.8 4.7 1.5 4.7 4 0 2.3-2 3.6-4.9 3.6-2 .2-3.7-.8-4.7-2.1zM210.7 193.9v-8.2h-2.2v-1.4h2.2v-4.5h1.6v4.5h3.2v1.4h-3.2v7.8c0 1.3.4 2 2 2 .5 0 1-.1 1.3-.2v1.4c-.4.1-1 .2-1.6.2-2.4.1-3.3-.9-3.3-3zM217.7 179.7h1.7v1.8h-1.7v-1.8zm.1 4.6h1.6v12.5h-1.6v-12.5zM222.6 184.3h1.6v2c1.3-1.2 2.7-2.2 4.6-2.2 2.1 0 3 .9 3.4 2.2 1.3-1.2 2.9-2.2 4.7-2.2 2.6 0 3.6 1.4 3.6 3.7v9h-1.6v-8.7c0-1.8-.6-2.6-2.3-2.6-1.5 0-2.8.8-4.2 2.2v9.1h-1.6v-8.7c0-1.8-.6-2.6-2.4-2.6-1.5 0-2.8.8-4.2 2.2v9.1h-1.6v-12.5zM242.9 193.9c0-2.5 2.1-4.3 8.5-5.2v-.7c0-1.7-.9-2.6-2.5-2.6-2 0-3.3.8-4.7 2l-.9-1c1.5-1.4 3.2-2.3 5.7-2.3 2.8 0 4 1.5 4 4v5.7c0 1.5.1 2.4.4 3.1h-1.7c-.2-.5-.3-1.1-.3-1.8-1.4 1.3-3 2-4.9 2-2.3-.1-3.6-1.3-3.6-3.2zm8.4-.2v-3.9c-5.3.9-6.9 2.2-6.9 3.9 0 1.3.9 2 2.3 2 1.8 0 3.4-.8 4.6-2zM256.8 193.9v-8.2h-2.2v-1.4h2.2v-4.5h1.6v4.5h3.2v1.4h-3.2v7.8c0 1.3.4 2 2 2 .5 0 1-.1 1.3-.2v1.4c-.4.1-1 .2-1.6.2-2.4.1-3.3-.9-3.3-3zM263.8 179.7h1.7v1.8h-1.7v-1.8zm.1 4.6h1.6v12.5h-1.6v-12.5zM268 190.6c0-4.2 2.6-6.5 5.7-6.5 3 0 5.6 2.3 5.6 6.5 0 4.1-2.6 6.5-5.6 6.5-3.1 0-5.7-2.4-5.7-6.5zm9.7 0c0-2.7-1.4-5.1-4-5.1-2.5 0-4 2.1-4 5.1 0 2.8 1.4 5.1 4 5.1 2.5 0 4-2.1 4-5.1zM281.8 184.3h1.6v2c1.2-1.2 2.8-2.2 4.8-2.2 2.5 0 3.7 1.4 3.7 3.7v9h-1.6v-8.7c0-1.8-.8-2.6-2.5-2.6-1.6 0-2.9.8-4.4 2.2v9.1h-1.6v-12.5z"/></g><path class="prefix__st1" d="M971.5 190h-.8l-.3-.3c1-1.1 1.6-2.6 1.6-4.2 0-3.6-2.9-6.5-6.5-6.5s-6.5 2.9-6.5 6.5 2.9 6.5 6.5 6.5c1.6 0 3.1-.6 4.2-1.6l.3.3v.8l5 5 1.5-1.5-5-5zm-6 0c-2.5 0-4.5-2-4.5-4.5s2-4.5 4.5-4.5 4.5 2 4.5 4.5-2 4.5-4.5 4.5zM1016 198c1.1 0 2-.9 2-2h-4c0 1.1.9 2 2 2zm6-6v-5c0-3.1-1.6-5.6-4.5-6.3v-.7c0-.8-.7-1.5-1.5-1.5s-1.5.7-1.5 1.5v.7c-2.9.7-4.5 3.2-4.5 6.3v5l-2 2v1h16v-1l-2-2zM1064 178c-5.5 0-10 4.5-10 10s4.5 10 10 10 10-4.5 10-10-4.5-10-10-10zm1 17h-2v-2h2v2zm2.1-7.8l-.9.9c-.7.7-1.2 1.3-1.2 2.8h-2v-.5c0-1.1.4-2.1 1.2-2.8l1.2-1.3c.4-.4.6-.9.6-1.4 0-1.1-.9-2-2-2s-2 .9-2 2h-2c0-2.2 1.8-4 4-4s4 1.8 4 4c0 1-.4 1.8-.9 2.3zM1104 184h4v-4h-4v4zm6 12h4v-4h-4v4zm-6 0h4v-4h-4v4zm0-6h4v-4h-4v4zm6 0h4v-4h-4v4zm6-10v4h4v-4h-4zm-6 4h4v-4h-4v4zm6 6h4v-4h-4v4zm0 6h4v-4h-4v4zM23 194h18v-2H23v2zm0-5h18v-2H23v2zm0-7v2h18v-2H23z"/><path class="prefix__st2" d="M0 32h1600v80H0z"/><path class="prefix__st1" d="M0 32h1600v56H0z"/><path class="prefix__st3" d="M0 32h1600v56H0z"/><circle class="prefix__st1" cx="1560" cy="60" r="16"/><path class="prefix__st4" d="M1558.3 62.3c0 .9-.3 1.6-1 2.1-.6.5-1.5.8-2.7.8s-2.1-.2-2.8-.5v-1.5c.4.2.9.4 1.4.5.5.1 1 .2 1.4.2.7 0 1.1-.1 1.4-.4.3-.2.5-.6.5-1s-.1-.7-.4-1c-.3-.3-.9-.6-1.8-.9-.9-.4-1.6-.8-1.9-1.3-.4-.5-.6-1-.6-1.7 0-.8.3-1.5.9-2 .6-.5 1.4-.7 2.4-.7s1.9.2 2.9.6l-.5 1.3c-.9-.4-1.7-.6-2.4-.6-.5 0-.9.1-1.2.3-.3.2-.4.5-.4.9 0 .3.1.5.2.7.1.2.3.4.5.5.2.2.7.4 1.3.6.7.3 1.3.6 1.6.9.3.3.6.6.8.9.3.4.4.8.4 1.3zm6.2-6c-.9 0-1.7.3-2.2 1-.5.7-.8 1.6-.8 2.8 0 1.2.3 2.2.8 2.8.5.6 1.3.9 2.2.9.4 0 .8 0 1.2-.1l1.2-.3v1.4c-.8.3-1.7.4-2.7.4-1.5 0-2.6-.4-3.4-1.3-.8-.9-1.2-2.2-1.2-3.8 0-1 .2-1.9.6-2.7.4-.8.9-1.4 1.6-1.8.7-.4 1.6-.6 2.5-.6 1 0 2 .2 2.8.6l-.6 1.4c-.3-.2-.7-.3-1.1-.4-.1-.3-.5-.3-.9-.3z"/><g><defs><path id="prefix__SVGID_00000078012692388994873920000014785053384568255114_" d="M64 48h227.9v24H64z"/></defs><clipPath id="prefix__SVGID_00000023239974056948772020000004862659986404529837_"><use xlink:href="#prefix__SVGID_00000078012692388994873920000014785053384568255114_" overflow="visible"/></clipPath><g clip-path="url(#prefix__SVGID_00000023239974056948772020000004862659986404529837_)"><path class="prefix__st1" d="M77.9 57.4l8.8-5.1V48l-8.8 5.1-5-2.9v4.4l5 2.8zM79.1 59.6v10.2l3.8 2.2V61.8l5-2.9-3.8-2.2-5 2.9zM76.6 59.6l-8.8-5.1-3.8 2.2 8.8 5.1v5.8l3.8-2.2v-5.8zM101.5 68.8V54h-5.4v-2.7h13.8V54h-5.4v14.8h-3zM109.4 68.8V56.2h2.9v2.1h.1c.8-1.3 2.1-2.3 4.5-2.3h.2l-.1 2.7c-.2 0-.6-.1-.8-.1-1.9 0-3 .9-3.9 2.2v8h-2.9zM118.6 54.1v-2.5h3v2.5h-3zm.1 14.7V56.2h2.9v12.6h-2.9zM124.3 68.8V56.2h2.9V58c1-1.1 2.4-2 4.3-2 2.1 0 2.9.8 3.4 2.1 1-1.1 2.5-2.1 4.4-2.1 2.6 0 3.7 1.5 3.7 3.8v9h-2.9v-8.3c0-1.4-.4-2-1.8-2-1.2 0-2.1.7-3.2 1.6v8.7h-2.9v-8.3c0-1.4-.4-2-1.8-2-1.2 0-2.1.7-3.2 1.6v8.7h-2.9zM148.6 67.4v1.4h-2.9V51.3h2.9v6.6c.8-1 2.1-1.9 4-1.9 2.9 0 5 2.2 5 6.5s-2.2 6.5-5.4 6.5c-1.3 0-2.6-.6-3.6-1.6zm6.1-4.9c0-2.6-1.1-4.1-3-4.1-1.2 0-2.4.8-3 1.6v5c.8 1 1.9 1.6 2.9 1.6 2.2.1 3.1-1.3 3.1-4.1zM159.8 68.8V51.3h2.9v17.5h-2.9zM164.8 62.5c0-4.8 3.4-6.5 6-6.5 2.8 0 5.5 1.7 5.5 6.8v.7h-8.6c.1 2.3 1.5 3.3 3.3 3.3 1.6 0 2.6-.6 3.5-1.5l1.5 1.5c-1.3 1.4-3 2.3-5.3 2.3-2.9 0-5.9-1.9-5.9-6.6zm8.9-1.2c-.2-1.9-1.1-2.9-2.9-2.9-1.4 0-2.7.8-3 2.9h5.9zM184.6 51.3h10.5v1.6h-8.8v5.9h6.5v1.5h-6.5v7h9.3v1.5h-11V51.3zM197.4 66.8l1-1c1 1.1 2.2 1.8 3.9 1.8 2.1 0 3.2-.8 3.2-2.2s-1-1.9-3.4-2.5c-2.9-.7-4.3-1.5-4.3-3.7 0-1.8 1.5-3.3 4.2-3.3 2.1 0 3.5.7 4.6 1.8l-.9 1.1c-1-1-2.1-1.5-3.7-1.5-1.9 0-2.7.9-2.7 1.8 0 1.2.9 1.7 3 2.2 3.1.8 4.7 1.5 4.7 4 0 2.3-2 3.6-4.9 3.6-2 .2-3.7-.8-4.7-2.1zM210.7 65.9v-8.2h-2.2v-1.4h2.2v-4.5h1.6v4.5h3.2v1.4h-3.2v7.8c0 1.3.4 2 2 2 .5 0 1-.1 1.3-.2v1.4c-.4.1-1 .2-1.6.2-2.4.1-3.3-.9-3.3-3zM217.7 51.7h1.7v1.8h-1.7v-1.8zm.1 4.6h1.6v12.5h-1.6V56.3zM222.6 56.3h1.6v2c1.3-1.2 2.7-2.2 4.6-2.2 2.1 0 3 .9 3.4 2.2 1.3-1.2 2.9-2.2 4.7-2.2 2.6 0 3.6 1.4 3.6 3.7v9h-1.6v-8.7c0-1.8-.6-2.6-2.3-2.6-1.5 0-2.8.8-4.2 2.2v9.1h-1.6v-8.7c0-1.8-.6-2.6-2.4-2.6-1.5 0-2.8.8-4.2 2.2v9.1h-1.6V56.3zM242.9 65.9c0-2.5 2.1-4.3 8.5-5.2V60c0-1.7-.9-2.6-2.5-2.6-2 0-3.3.8-4.7 2l-.9-1c1.5-1.4 3.2-2.3 5.7-2.3 2.8 0 4 1.5 4 4v5.7c0 1.5.1 2.4.4 3.1h-1.7c-.2-.5-.3-1.1-.3-1.8-1.4 1.3-3 2-4.9 2-2.3-.1-3.6-1.3-3.6-3.2zm8.4-.2v-3.9c-5.3.9-6.9 2.2-6.9 3.9 0 1.3.9 2 2.3 2 1.8 0 3.4-.8 4.6-2zM256.8 65.9v-8.2h-2.2v-1.4h2.2v-4.5h1.6v4.5h3.2v1.4h-3.2v7.8c0 1.3.4 2 2 2 .5 0 1-.1 1.3-.2v1.4c-.4.1-1 .2-1.6.2-2.4.1-3.3-.9-3.3-3zM263.8 51.7h1.7v1.8h-1.7v-1.8zm.1 4.6h1.6v12.5h-1.6V56.3zM268 62.6c0-4.2 2.6-6.5 5.7-6.5 3 0 5.6 2.3 5.6 6.5 0 4.1-2.6 6.5-5.6 6.5-3.1 0-5.7-2.4-5.7-6.5zm9.7 0c0-2.7-1.4-5.1-4-5.1-2.5 0-4 2.1-4 5.1 0 2.8 1.4 5.1 4 5.1 2.5 0 4-2.1 4-5.1zM281.8 56.3h1.6v2c1.2-1.2 2.8-2.2 4.8-2.2 2.5 0 3.7 1.4 3.7 3.7v9h-1.6v-8.7c0-1.8-.8-2.6-2.5-2.6-1.6 0-2.9.8-4.4 2.2v9.1h-1.6V56.3z"/></g></g><path class="prefix__st1" d="M1371.5 62h-.8l-.3-.3c1-1.1 1.6-2.6 1.6-4.2 0-3.6-2.9-6.5-6.5-6.5s-6.5 2.9-6.5 6.5 2.9 6.5 6.5 6.5c1.6 0 3.1-.6 4.2-1.6l.3.3v.8l5 5 1.5-1.5-5-5zm-6 0c-2.5 0-4.5-2-4.5-4.5s2-4.5 4.5-4.5 4.5 2 4.5 4.5-2 4.5-4.5 4.5zM1416 70c1.1 0 2-.9 2-2h-4c0 1.1.9 2 2 2zm6-6v-5c0-3.1-1.6-5.6-4.5-6.3V52c0-.8-.7-1.5-1.5-1.5s-1.5.7-1.5 1.5v.7c-2.9.7-4.5 3.2-4.5 6.3v5l-2 2v1h16v-1l-2-2zM1464 50c-5.5 0-10 4.5-10 10s4.5 10 10 10 10-4.5 10-10-4.5-10-10-10zm1 17h-2v-2h2v2zm2.1-7.8l-.9.9c-.7.7-1.2 1.3-1.2 2.8h-2v-.5c0-1.1.4-2.1 1.2-2.8l1.2-1.3c.4-.4.6-.9.6-1.4 0-1.1-.9-2-2-2s-2 .9-2 2h-2c0-2.2 1.8-4 4-4s4 1.8 4 4c0 1-.4 1.8-.9 2.3zM1504 56h4v-4h-4v4zm6 12h4v-4h-4v4zm-6 0h4v-4h-4v4zm0-6h4v-4h-4v4zm6 0h4v-4h-4v4zm6-10v4h4v-4h-4zm-6 4h4v-4h-4v4zm6 6h4v-4h-4v4zm0 6h4v-4h-4v4zM23 66h18v-2H23v2zm0-5h18v-2H23v2zm0-7v2h18v-2H23z"/></svg>