<svg width="1706" height="292" viewBox="0 0 1706 292" fill="none" xmlns="http://www.w3.org/2000/svg">
<rect width="1706" height="292" fill="#252A2E"/>
<rect width="1600" height="56" transform="translate(53 66)" fill="#171C1E"/>
<path d="M77 100H93C93.55 100 94 99.55 94 99C94 98.45 93.55 98 93 98H77C76.45 98 76 98.45 76 99C76 99.55 76.45 100 77 100ZM77 95H93C93.55 95 94 94.55 94 94C94 93.45 93.55 93 93 93H77C76.45 93 76 93.45 76 94C76 94.55 76.45 95 77 95ZM76 89C76 89.55 76.45 90 77 90H93C93.55 90 94 89.55 94 89C94 88.45 93.55 88 93 88H77C76.45 88 76 88.45 76 89Z" fill="white"/>
<g clip-path="url(#clip0_1410_222653)">
<path d="M1425.38 96.92L1424.72 96.97L1424.31 96.56C1426.75 93.75 1426.59 89.46 1423.81 86.86C1421.03 84.26 1416.8 84.4 1414.17 86.94C1411.35 89.67 1411.32 94.16 1414.09 96.92C1416.7 99.53 1420.86 99.64 1423.61 97.26L1424.02 97.67L1423.97 98.32L1427.86 102.21C1428.25 102.6 1428.88 102.6 1429.27 102.21C1429.66 101.82 1429.66 101.19 1429.27 100.8L1425.39 96.92H1425.38ZM1422.57 95.51C1420.62 97.46 1417.44 97.46 1415.49 95.51C1413.54 93.56 1413.54 90.38 1415.49 88.43C1417.44 86.48 1420.62 86.48 1422.57 88.43C1424.52 90.38 1424.52 93.56 1422.57 95.51Z" fill="white"/>
<g clip-path="url(#clip1_1410_222653)">
<path d="M1467 102H1471C1471 103.1 1470.1 104 1469 104C1467.9 104 1467 103.1 1467 102ZM1476.67 99.31C1475.36 97.96 1474 95.66 1474 92C1474 89.58 1472.28 87.56 1470 87.1V86C1470 85.45 1469.55 85 1469 85C1468.45 85 1468 85.45 1468 86V87.1C1465.72 87.56 1464 89.58 1464 92C1464 95.66 1462.63 97.96 1461.33 99.31C1460.72 99.95 1461.17 101 1462.05 101H1475.96C1476.84 101 1477.29 99.95 1476.68 99.31H1476.67Z" fill="white"/>
</g>
<path d="M1517 84C1511.48 84 1507 88.48 1507 94C1507 99.52 1511.48 104 1517 104C1522.52 104 1527 99.52 1527 94C1527 88.48 1522.52 84 1517 84ZM1517 101C1516.45 101 1516 100.55 1516 100C1516 99.45 1516.45 99 1517 99C1517.55 99 1518 99.45 1518 100C1518 100.55 1517.55 101 1517 101ZM1520.07 93.25L1519.17 94.17C1518.67 94.68 1518.31 95.14 1518.13 95.86C1518.05 96.18 1518 96.54 1518 97H1516V96.5C1516 96.04 1516.08 95.6 1516.22 95.19C1516.42 94.61 1516.75 94.09 1517.17 93.67L1518.41 92.41C1518.87 91.97 1519.09 91.31 1518.96 90.61C1518.83 89.89 1518.27 89.28 1517.57 89.08C1516.46 88.77 1515.43 89.4 1515.1 90.35C1514.98 90.72 1514.67 91 1514.28 91H1513.98C1513.4 91 1513 90.44 1513.16 89.88C1513.59 88.41 1514.84 87.29 1516.39 87.05C1517.91 86.81 1519.36 87.6 1520.26 88.85C1521.44 90.48 1521.09 92.23 1520.07 93.25Z" fill="white"/>
<path fill-rule="evenodd" clip-rule="evenodd" d="M1557 90H1561V86H1557V90ZM1563 102H1567V98H1563V102ZM1561 102H1557V98H1561V102ZM1557 96H1561V92H1557V96ZM1567 96H1563V92H1567V96ZM1569 86V90H1573V86H1569ZM1567 90H1563V86H1567V90ZM1569 96H1573V92H1569V96ZM1573 102H1569V98H1573V102Z" fill="white"/>
<g clip-path="url(#clip2_1410_222653)">
<circle cx="1613" cy="94" r="16" fill="white"/>
<path d="M1611.3 96.2793C1611.3 96.8717 1611.15 97.3822 1610.86 97.8105C1610.57 98.2389 1610.16 98.5671 1609.62 98.7949C1609.08 99.0228 1608.43 99.1367 1607.69 99.1367C1607.32 99.1367 1606.97 99.1162 1606.64 99.0752C1606.31 99.0342 1605.99 98.9749 1605.7 98.8975C1605.41 98.8154 1605.14 98.7174 1604.9 98.6035V97.0586C1605.3 97.2363 1605.76 97.3981 1606.26 97.5439C1606.76 97.6852 1607.27 97.7559 1607.79 97.7559C1608.21 97.7559 1608.56 97.7012 1608.84 97.5918C1609.13 97.4779 1609.33 97.3184 1609.47 97.1133C1609.61 96.9036 1609.68 96.6598 1609.68 96.3818C1609.68 96.0856 1609.6 95.835 1609.44 95.6299C1609.28 95.4248 1609.04 95.238 1608.71 95.0693C1608.39 94.8962 1607.99 94.7116 1607.51 94.5156C1607.18 94.3835 1606.87 94.2331 1606.57 94.0645C1606.27 93.8958 1606.01 93.6976 1605.77 93.4697C1605.54 93.2419 1605.36 92.973 1605.22 92.6631C1605.09 92.3486 1605.02 91.9795 1605.02 91.5557C1605.02 90.9906 1605.16 90.5075 1605.42 90.1064C1605.7 89.7054 1606.08 89.3978 1606.57 89.1836C1607.07 88.9694 1607.65 88.8623 1608.31 88.8623C1608.83 88.8623 1609.33 88.917 1609.79 89.0264C1610.25 89.1357 1610.71 89.2907 1611.15 89.4912L1610.63 90.8105C1610.22 90.6419 1609.82 90.5075 1609.44 90.4072C1609.05 90.307 1608.66 90.2568 1608.26 90.2568C1607.92 90.2568 1607.62 90.3092 1607.38 90.4141C1607.14 90.5189 1606.95 90.667 1606.83 90.8584C1606.7 91.0452 1606.64 91.2686 1606.64 91.5283C1606.64 91.82 1606.71 92.0661 1606.85 92.2666C1607 92.4626 1607.22 92.6426 1607.52 92.8066C1607.83 92.9707 1608.22 93.153 1608.7 93.3535C1609.25 93.5814 1609.72 93.8206 1610.1 94.0713C1610.49 94.3219 1610.78 94.6227 1610.99 94.9736C1611.19 95.32 1611.3 95.7552 1611.3 96.2793ZM1617.48 90.2568C1617 90.2568 1616.58 90.3434 1616.2 90.5166C1615.82 90.6898 1615.51 90.9404 1615.25 91.2686C1614.99 91.5921 1614.79 91.9863 1614.65 92.4512C1614.52 92.9115 1614.45 93.431 1614.45 94.0098C1614.45 94.7845 1614.56 95.4521 1614.78 96.0127C1615 96.5687 1615.33 96.9971 1615.77 97.2979C1616.22 97.5941 1616.79 97.7422 1617.47 97.7422C1617.89 97.7422 1618.31 97.7012 1618.71 97.6191C1619.11 97.5371 1619.52 97.4255 1619.95 97.2842V98.6787C1619.55 98.8382 1619.14 98.9544 1618.72 99.0273C1618.31 99.1003 1617.83 99.1367 1617.29 99.1367C1616.26 99.1367 1615.42 98.9248 1614.74 98.501C1614.07 98.0771 1613.57 97.4801 1613.24 96.71C1612.91 95.9398 1612.75 95.0374 1612.75 94.0029C1612.75 93.2464 1612.85 92.5537 1613.06 91.9248C1613.27 91.2959 1613.58 90.7536 1613.98 90.2979C1614.38 89.8376 1614.87 89.4844 1615.46 89.2383C1616.05 88.9876 1616.73 88.8623 1617.49 88.8623C1617.99 88.8623 1618.48 88.9193 1618.97 89.0332C1619.45 89.1426 1619.91 89.2998 1620.32 89.5049L1619.75 90.8584C1619.4 90.6943 1619.04 90.5531 1618.66 90.4346C1618.28 90.3161 1617.89 90.2568 1617.48 90.2568Z" fill="#171C1E"/>
</g>
</g>
<g clip-path="url(#clip3_1410_222653)">
<rect width="1600" height="56" transform="translate(53 170)" fill="white"/>
<rect x="53" y="170" width="1600" height="56" fill="#0E416C"/>
<path d="M77 204H93C93.55 204 94 203.55 94 203C94 202.45 93.55 202 93 202H77C76.45 202 76 202.45 76 203C76 203.55 76.45 204 77 204ZM77 199H93C93.55 199 94 198.55 94 198C94 197.45 93.55 197 93 197H77C76.45 197 76 197.45 76 198C76 198.55 76.45 199 77 199ZM76 193C76 193.55 76.45 194 77 194H93C93.55 194 94 193.55 94 193C94 192.45 93.55 192 93 192H77C76.45 192 76 192.45 76 193Z" fill="white"/>
<g clip-path="url(#clip4_1410_222653)">
<path d="M1425.38 200.92L1424.72 200.97L1424.31 200.56C1426.75 197.75 1426.59 193.46 1423.81 190.86C1421.03 188.26 1416.8 188.4 1414.17 190.94C1411.35 193.67 1411.32 198.16 1414.09 200.92C1416.7 203.53 1420.86 203.64 1423.61 201.26L1424.02 201.67L1423.97 202.32L1427.86 206.21C1428.25 206.6 1428.88 206.6 1429.27 206.21C1429.66 205.82 1429.66 205.19 1429.27 204.8L1425.39 200.92H1425.38ZM1422.57 199.51C1420.62 201.46 1417.44 201.46 1415.49 199.51C1413.54 197.56 1413.54 194.38 1415.49 192.43C1417.44 190.48 1420.62 190.48 1422.57 192.43C1424.52 194.38 1424.52 197.56 1422.57 199.51Z" fill="white"/>
<g clip-path="url(#clip5_1410_222653)">
<path d="M1467 206H1471C1471 207.1 1470.1 208 1469 208C1467.9 208 1467 207.1 1467 206ZM1476.67 203.31C1475.36 201.96 1474 199.66 1474 196C1474 193.58 1472.28 191.56 1470 191.1V190C1470 189.45 1469.55 189 1469 189C1468.45 189 1468 189.45 1468 190V191.1C1465.72 191.56 1464 193.58 1464 196C1464 199.66 1462.63 201.96 1461.33 203.31C1460.72 203.95 1461.17 205 1462.05 205H1475.96C1476.84 205 1477.29 203.95 1476.68 203.31H1476.67Z" fill="white"/>
</g>
<path d="M1517 188C1511.48 188 1507 192.48 1507 198C1507 203.52 1511.48 208 1517 208C1522.52 208 1527 203.52 1527 198C1527 192.48 1522.52 188 1517 188ZM1517 205C1516.45 205 1516 204.55 1516 204C1516 203.45 1516.45 203 1517 203C1517.55 203 1518 203.45 1518 204C1518 204.55 1517.55 205 1517 205ZM1520.07 197.25L1519.17 198.17C1518.67 198.68 1518.31 199.14 1518.13 199.86C1518.05 200.18 1518 200.54 1518 201H1516V200.5C1516 200.04 1516.08 199.6 1516.22 199.19C1516.42 198.61 1516.75 198.09 1517.17 197.67L1518.41 196.41C1518.87 195.97 1519.09 195.31 1518.96 194.61C1518.83 193.89 1518.27 193.28 1517.57 193.08C1516.46 192.77 1515.43 193.4 1515.1 194.35C1514.98 194.72 1514.67 195 1514.28 195H1513.98C1513.4 195 1513 194.44 1513.16 193.88C1513.59 192.41 1514.84 191.29 1516.39 191.05C1517.91 190.81 1519.36 191.6 1520.26 192.85C1521.44 194.48 1521.09 196.23 1520.07 197.25Z" fill="white"/>
<g clip-path="url(#clip6_1410_222653)">
<path d="M1557 194H1561V190H1557V194ZM1563 206H1567V202H1563V206ZM1557 206H1561V202H1557V206ZM1557 200H1561V196H1557V200ZM1563 200H1567V196H1563V200ZM1569 190V194H1573V190H1569ZM1563 194H1567V190H1563V194ZM1569 200H1573V196H1569V200ZM1569 206H1573V202H1569V206Z" fill="white"/>
</g>
<g clip-path="url(#clip7_1410_222653)">
<circle cx="1613" cy="198" r="16" fill="white"/>
<path d="M1611.3 200.286C1611.3 201.175 1610.98 201.872 1610.33 202.378C1609.69 202.884 1608.8 203.137 1607.67 203.137C1606.54 203.137 1605.62 202.961 1604.9 202.61V201.065C1605.35 201.28 1605.84 201.448 1606.35 201.571C1606.86 201.694 1607.34 201.756 1607.78 201.756C1608.43 201.756 1608.91 201.633 1609.21 201.387C1609.52 201.141 1609.68 200.81 1609.68 200.396C1609.68 200.022 1609.54 199.705 1609.25 199.445C1608.97 199.186 1608.39 198.878 1607.5 198.522C1606.59 198.153 1605.95 197.732 1605.58 197.258C1605.2 196.784 1605.01 196.214 1605.01 195.549C1605.01 194.715 1605.31 194.059 1605.9 193.58C1606.5 193.102 1607.29 192.862 1608.29 192.862C1609.25 192.862 1610.2 193.072 1611.15 193.491L1610.63 194.824C1609.74 194.451 1608.95 194.264 1608.25 194.264C1607.72 194.264 1607.32 194.38 1607.04 194.612C1606.77 194.84 1606.63 195.143 1606.63 195.521C1606.63 195.781 1606.69 196.005 1606.8 196.191C1606.91 196.374 1607.09 196.547 1607.34 196.711C1607.59 196.875 1608.04 197.091 1608.69 197.36C1609.43 197.666 1609.96 197.951 1610.31 198.215C1610.65 198.479 1610.9 198.778 1611.06 199.11C1611.22 199.443 1611.3 199.835 1611.3 200.286ZM1617.48 194.264C1616.54 194.264 1615.81 194.596 1615.27 195.262C1614.73 195.927 1614.46 196.845 1614.46 198.017C1614.46 199.243 1614.72 200.17 1615.23 200.799C1615.75 201.428 1616.5 201.742 1617.48 201.742C1617.91 201.742 1618.32 201.701 1618.71 201.619C1619.11 201.533 1619.52 201.423 1619.95 201.291V202.692C1619.17 202.989 1618.28 203.137 1617.29 203.137C1615.82 203.137 1614.7 202.695 1613.92 201.811C1613.13 200.922 1612.74 199.653 1612.74 198.003C1612.74 196.964 1612.93 196.055 1613.31 195.275C1613.69 194.496 1614.24 193.899 1614.96 193.484C1615.68 193.07 1616.53 192.862 1617.5 192.862C1618.52 192.862 1619.46 193.076 1620.33 193.505L1619.74 194.865C1619.4 194.706 1619.04 194.567 1618.67 194.448C1618.29 194.325 1617.9 194.264 1617.48 194.264Z" fill="#252A2E"/>
</g>
</g>
</g>
<rect x="119.5" y="181.5" width="119" height="33" fill="white" fill-opacity="0.1" stroke="white" stroke-dasharray="2 2"/>
<path d="M130.721 204V194.006H132.354V202.599H136.586V204H130.721ZM144.844 200.206C144.844 201.441 144.527 202.405 143.894 203.098C143.26 203.79 142.378 204.137 141.248 204.137C140.542 204.137 139.917 203.977 139.375 203.658C138.833 203.339 138.416 202.881 138.124 202.284C137.832 201.687 137.687 200.994 137.687 200.206C137.687 198.98 138.001 198.023 138.63 197.335C139.259 196.647 140.145 196.303 141.289 196.303C142.383 196.303 143.249 196.656 143.887 197.362C144.525 198.064 144.844 199.012 144.844 200.206ZM139.341 200.206C139.341 201.951 139.986 202.824 141.275 202.824C142.551 202.824 143.189 201.951 143.189 200.206C143.189 198.479 142.547 197.615 141.262 197.615C140.587 197.615 140.097 197.839 139.792 198.285C139.491 198.732 139.341 199.372 139.341 200.206ZM153.081 196.439V197.321L151.789 197.561C151.908 197.72 152.006 197.916 152.083 198.148C152.16 198.381 152.199 198.627 152.199 198.887C152.199 199.666 151.93 200.279 151.393 200.726C150.855 201.172 150.114 201.396 149.171 201.396C148.929 201.396 148.711 201.377 148.515 201.341C148.168 201.555 147.995 201.806 147.995 202.093C147.995 202.266 148.075 202.396 148.234 202.482C148.398 202.569 148.697 202.612 149.13 202.612H150.449C151.283 202.612 151.917 202.79 152.35 203.146C152.783 203.501 152.999 204.014 152.999 204.684C152.999 205.54 152.646 206.201 151.939 206.666C151.233 207.131 150.212 207.363 148.877 207.363C147.847 207.363 147.061 207.181 146.519 206.816C145.976 206.452 145.705 205.932 145.705 205.258C145.705 204.793 145.851 204.401 146.143 204.082C146.439 203.768 146.851 203.549 147.38 203.426C147.166 203.335 146.988 203.189 146.847 202.988C146.71 202.783 146.642 202.569 146.642 202.346C146.642 202.063 146.721 201.824 146.881 201.628C147.04 201.432 147.277 201.238 147.592 201.047C147.2 200.878 146.881 200.605 146.635 200.227C146.393 199.844 146.272 199.397 146.272 198.887C146.272 198.066 146.53 197.431 147.045 196.979C147.564 196.528 148.303 196.303 149.26 196.303C149.474 196.303 149.697 196.319 149.93 196.351C150.167 196.378 150.344 196.408 150.463 196.439H153.081ZM147.141 205.176C147.141 205.522 147.296 205.789 147.605 205.976C147.92 206.162 148.36 206.256 148.925 206.256C149.8 206.256 150.451 206.131 150.88 205.88C151.308 205.629 151.522 205.297 151.522 204.882C151.522 204.554 151.404 204.319 151.167 204.178C150.935 204.041 150.499 203.973 149.861 203.973H148.645C148.184 203.973 147.817 204.08 147.544 204.294C147.275 204.513 147.141 204.807 147.141 205.176ZM147.831 198.887C147.831 199.361 147.952 199.725 148.193 199.98C148.439 200.236 148.79 200.363 149.246 200.363C150.176 200.363 150.641 199.867 150.641 198.873C150.641 198.381 150.524 198.003 150.292 197.738C150.064 197.469 149.715 197.335 149.246 197.335C148.781 197.335 148.428 197.467 148.187 197.731C147.95 197.996 147.831 198.381 147.831 198.887ZM161.195 200.206C161.195 201.441 160.879 202.405 160.245 203.098C159.612 203.79 158.73 204.137 157.6 204.137C156.893 204.137 156.269 203.977 155.727 203.658C155.184 203.339 154.767 202.881 154.476 202.284C154.184 201.687 154.038 200.994 154.038 200.206C154.038 198.98 154.353 198.023 154.981 197.335C155.61 196.647 156.497 196.303 157.641 196.303C158.734 196.303 159.6 196.656 160.238 197.362C160.876 198.064 161.195 199.012 161.195 200.206ZM155.692 200.206C155.692 201.951 156.337 202.824 157.627 202.824C158.903 202.824 159.541 201.951 159.541 200.206C159.541 198.479 158.898 197.615 157.613 197.615C156.939 197.615 156.449 197.839 156.144 198.285C155.843 198.732 155.692 199.372 155.692 200.206ZM173.336 204H171.723V199.352C171.723 198.768 171.604 198.333 171.367 198.046C171.135 197.759 170.763 197.615 170.253 197.615C169.578 197.615 169.082 197.818 168.763 198.224C168.448 198.625 168.291 199.299 168.291 200.247V204H166.685V193.363H168.291V196.063C168.291 196.496 168.264 196.959 168.209 197.451H168.312C168.53 197.087 168.833 196.804 169.221 196.604C169.613 196.403 170.068 196.303 170.588 196.303C172.42 196.303 173.336 197.226 173.336 199.071V204ZM178.873 204.137C177.697 204.137 176.777 203.795 176.111 203.111C175.451 202.423 175.12 201.478 175.12 200.274C175.12 199.039 175.428 198.069 176.043 197.362C176.658 196.656 177.504 196.303 178.579 196.303C179.577 196.303 180.366 196.606 180.944 197.212C181.523 197.818 181.812 198.652 181.812 199.714V200.582H176.774C176.797 201.316 176.995 201.881 177.369 202.277C177.743 202.669 178.269 202.865 178.948 202.865C179.395 202.865 179.81 202.824 180.192 202.742C180.58 202.656 180.994 202.514 181.437 202.318V203.624C181.045 203.811 180.648 203.943 180.247 204.021C179.846 204.098 179.388 204.137 178.873 204.137ZM178.579 197.52C178.069 197.52 177.659 197.681 177.349 198.005C177.043 198.328 176.861 198.8 176.802 199.42H180.233C180.224 198.796 180.074 198.324 179.782 198.005C179.491 197.681 179.09 197.52 178.579 197.52ZM187.473 196.303C187.796 196.303 188.063 196.326 188.272 196.371L188.115 197.868C187.887 197.813 187.65 197.786 187.404 197.786C186.762 197.786 186.24 197.996 185.839 198.415C185.442 198.834 185.244 199.379 185.244 200.049V204H183.638V196.439H184.896L185.107 197.772H185.189C185.44 197.321 185.766 196.964 186.167 196.699C186.573 196.435 187.008 196.303 187.473 196.303ZM192.982 204.137C191.807 204.137 190.886 203.795 190.221 203.111C189.56 202.423 189.229 201.478 189.229 200.274C189.229 199.039 189.537 198.069 190.152 197.362C190.768 196.656 191.613 196.303 192.688 196.303C193.687 196.303 194.475 196.606 195.054 197.212C195.632 197.818 195.922 198.652 195.922 199.714V200.582H190.884C190.907 201.316 191.105 201.881 191.479 202.277C191.852 202.669 192.379 202.865 193.058 202.865C193.504 202.865 193.919 202.824 194.302 202.742C194.689 202.656 195.104 202.514 195.546 202.318V203.624C195.154 203.811 194.757 203.943 194.356 204.021C193.955 204.098 193.497 204.137 192.982 204.137ZM192.688 197.52C192.178 197.52 191.768 197.681 191.458 198.005C191.153 198.328 190.97 198.8 190.911 199.42H194.343C194.334 198.796 194.183 198.324 193.892 198.005C193.6 197.681 193.199 197.52 192.688 197.52Z" fill="white"/>
<rect x="119.5" y="77.5" width="119" height="33" fill="white" fill-opacity="0.1" stroke="white" stroke-dasharray="2 2"/>
<path d="M130.721 100V90.0059H132.354V98.5986H136.586V100H130.721ZM144.844 96.2061C144.844 97.4411 144.527 98.4049 143.894 99.0977C143.26 99.7904 142.378 100.137 141.248 100.137C140.542 100.137 139.917 99.9772 139.375 99.6582C138.833 99.3392 138.416 98.8812 138.124 98.2842C137.832 97.6872 137.687 96.9945 137.687 96.2061C137.687 94.9801 138.001 94.0231 138.63 93.335C139.259 92.6468 140.145 92.3027 141.289 92.3027C142.383 92.3027 143.249 92.6559 143.887 93.3623C144.525 94.0641 144.844 95.012 144.844 96.2061ZM139.341 96.2061C139.341 97.9515 139.986 98.8242 141.275 98.8242C142.551 98.8242 143.189 97.9515 143.189 96.2061C143.189 94.4788 142.547 93.6152 141.262 93.6152C140.587 93.6152 140.097 93.8385 139.792 94.2852C139.491 94.7318 139.341 95.3721 139.341 96.2061ZM153.081 92.4395V93.3213L151.789 93.5605C151.908 93.7201 152.006 93.916 152.083 94.1484C152.16 94.3809 152.199 94.627 152.199 94.8867C152.199 95.666 151.93 96.279 151.393 96.7256C150.855 97.1722 150.114 97.3955 149.171 97.3955C148.929 97.3955 148.711 97.3773 148.515 97.3408C148.168 97.555 147.995 97.8057 147.995 98.0928C147.995 98.266 148.075 98.3958 148.234 98.4824C148.398 98.569 148.697 98.6123 149.13 98.6123H150.449C151.283 98.6123 151.917 98.79 152.35 99.1455C152.783 99.501 152.999 100.014 152.999 100.684C152.999 101.54 152.646 102.201 151.939 102.666C151.233 103.131 150.212 103.363 148.877 103.363C147.847 103.363 147.061 103.181 146.519 102.816C145.976 102.452 145.705 101.932 145.705 101.258C145.705 100.793 145.851 100.401 146.143 100.082C146.439 99.7676 146.851 99.5488 147.38 99.4258C147.166 99.3346 146.988 99.1888 146.847 98.9883C146.71 98.7832 146.642 98.569 146.642 98.3457C146.642 98.0632 146.721 97.8239 146.881 97.6279C147.04 97.432 147.277 97.2383 147.592 97.0469C147.2 96.8783 146.881 96.6048 146.635 96.2266C146.393 95.8438 146.272 95.3971 146.272 94.8867C146.272 94.0664 146.53 93.4307 147.045 92.9795C147.564 92.5283 148.303 92.3027 149.26 92.3027C149.474 92.3027 149.697 92.3187 149.93 92.3506C150.167 92.3779 150.344 92.4076 150.463 92.4395H153.081ZM147.141 101.176C147.141 101.522 147.296 101.789 147.605 101.976C147.92 102.162 148.36 102.256 148.925 102.256C149.8 102.256 150.451 102.131 150.88 101.88C151.308 101.629 151.522 101.297 151.522 100.882C151.522 100.554 151.404 100.319 151.167 100.178C150.935 100.041 150.499 99.9727 149.861 99.9727H148.645C148.184 99.9727 147.817 100.08 147.544 100.294C147.275 100.513 147.141 100.807 147.141 101.176ZM147.831 94.8867C147.831 95.3607 147.952 95.7253 148.193 95.9805C148.439 96.2357 148.79 96.3633 149.246 96.3633C150.176 96.3633 150.641 95.8665 150.641 94.873C150.641 94.3809 150.524 94.0026 150.292 93.7383C150.064 93.4694 149.715 93.335 149.246 93.335C148.781 93.335 148.428 93.4671 148.187 93.7314C147.95 93.9958 147.831 94.3809 147.831 94.8867ZM161.195 96.2061C161.195 97.4411 160.879 98.4049 160.245 99.0977C159.612 99.7904 158.73 100.137 157.6 100.137C156.893 100.137 156.269 99.9772 155.727 99.6582C155.184 99.3392 154.767 98.8812 154.476 98.2842C154.184 97.6872 154.038 96.9945 154.038 96.2061C154.038 94.9801 154.353 94.0231 154.981 93.335C155.61 92.6468 156.497 92.3027 157.641 92.3027C158.734 92.3027 159.6 92.6559 160.238 93.3623C160.876 94.0641 161.195 95.012 161.195 96.2061ZM155.692 96.2061C155.692 97.9515 156.337 98.8242 157.627 98.8242C158.903 98.8242 159.541 97.9515 159.541 96.2061C159.541 94.4788 158.898 93.6152 157.613 93.6152C156.939 93.6152 156.449 93.8385 156.144 94.2852C155.843 94.7318 155.692 95.3721 155.692 96.2061ZM173.336 100H171.723V95.3516C171.723 94.7682 171.604 94.333 171.367 94.0459C171.135 93.7588 170.763 93.6152 170.253 93.6152C169.578 93.6152 169.082 93.818 168.763 94.2236C168.448 94.6247 168.291 95.2992 168.291 96.2471V100H166.685V89.3633H168.291V92.0635C168.291 92.4964 168.264 92.959 168.209 93.4512H168.312C168.53 93.0866 168.833 92.804 169.221 92.6035C169.613 92.403 170.068 92.3027 170.588 92.3027C172.42 92.3027 173.336 93.2256 173.336 95.0713V100ZM178.873 100.137C177.697 100.137 176.777 99.7949 176.111 99.1113C175.451 98.4232 175.12 97.4775 175.12 96.2744C175.12 95.0394 175.428 94.0687 176.043 93.3623C176.658 92.6559 177.504 92.3027 178.579 92.3027C179.577 92.3027 180.366 92.6058 180.944 93.2119C181.523 93.818 181.812 94.652 181.812 95.7139V96.582H176.774C176.797 97.3158 176.995 97.8809 177.369 98.2773C177.743 98.6693 178.269 98.8652 178.948 98.8652C179.395 98.8652 179.81 98.8242 180.192 98.7422C180.58 98.6556 180.994 98.5143 181.437 98.3184V99.624C181.045 99.8109 180.648 99.943 180.247 100.021C179.846 100.098 179.388 100.137 178.873 100.137ZM178.579 93.5195C178.069 93.5195 177.659 93.6813 177.349 94.0049C177.043 94.3285 176.861 94.8001 176.802 95.4199H180.233C180.224 94.7956 180.074 94.3239 179.782 94.0049C179.491 93.6813 179.09 93.5195 178.579 93.5195ZM187.473 92.3027C187.796 92.3027 188.063 92.3255 188.272 92.3711L188.115 93.8682C187.887 93.8135 187.65 93.7861 187.404 93.7861C186.762 93.7861 186.24 93.9958 185.839 94.415C185.442 94.8343 185.244 95.3789 185.244 96.0488V100H183.638V92.4395H184.896L185.107 93.7725H185.189C185.44 93.3213 185.766 92.9635 186.167 92.6992C186.573 92.4349 187.008 92.3027 187.473 92.3027ZM192.982 100.137C191.807 100.137 190.886 99.7949 190.221 99.1113C189.56 98.4232 189.229 97.4775 189.229 96.2744C189.229 95.0394 189.537 94.0687 190.152 93.3623C190.768 92.6559 191.613 92.3027 192.688 92.3027C193.687 92.3027 194.475 92.6058 195.054 93.2119C195.632 93.818 195.922 94.652 195.922 95.7139V96.582H190.884C190.907 97.3158 191.105 97.8809 191.479 98.2773C191.852 98.6693 192.379 98.8652 193.058 98.8652C193.504 98.8652 193.919 98.8242 194.302 98.7422C194.689 98.6556 195.104 98.5143 195.546 98.3184V99.624C195.154 99.8109 194.757 99.943 194.356 100.021C193.955 100.098 193.497 100.137 192.982 100.137ZM192.688 93.5195C192.178 93.5195 191.768 93.6813 191.458 94.0049C191.153 94.3285 190.97 94.8001 190.911 95.4199H194.343C194.334 94.7956 194.183 94.3239 193.892 94.0049C193.6 93.6813 193.199 93.5195 192.688 93.5195Z" fill="white"/>
<defs>
<clipPath id="clip0_1410_222653">
<rect width="240" height="48" fill="white" transform="translate(1397 70)"/>
</clipPath>
<clipPath id="clip1_1410_222653">
<rect width="24" height="24" fill="white" transform="translate(1457 82)"/>
</clipPath>
<clipPath id="clip2_1410_222653">
<rect width="32" height="32" fill="white" transform="translate(1597 78)"/>
</clipPath>
<clipPath id="clip3_1410_222653">
<rect width="1600" height="56" fill="white" transform="translate(53 170)"/>
</clipPath>
<clipPath id="clip4_1410_222653">
<rect width="240" height="48" fill="white" transform="translate(1397 174)"/>
</clipPath>
<clipPath id="clip5_1410_222653">
<rect width="24" height="24" fill="white" transform="translate(1457 186)"/>
</clipPath>
<clipPath id="clip6_1410_222653">
<rect width="24" height="24" fill="white" transform="translate(1553 186)"/>
</clipPath>
<clipPath id="clip7_1410_222653">
<rect width="32" height="32" fill="white" transform="translate(1597 182)"/>
</clipPath>
</defs>
</svg>
