<svg enable-background="new 0 0 768 80" viewBox="0 0 768 80" xmlns="http://www.w3.org/2000/svg"><path d="m0 0h768v80h-768z" fill="#f3f3f7"/><path d="m3 .2h765v55.8h-765z" fill="#fff"/><path d="m3 .2h765v55.8h-765z" fill="#fff"/><circle cx="728" cy="28" fill="#eaeaef" r="16"/><path d="m726.3 30.3c0 .9-.3 1.6-1 2.1-.6.5-1.5.8-2.7.8s-2.1-.2-2.8-.5v-1.5c.5.2.9.4 1.5.5.5.1 1 .2 1.4.2.6 0 1.1-.1 1.4-.4.3-.2.5-.6.5-1s-.1-.7-.4-1-.9-.6-1.8-.9c-.9-.4-1.6-.8-1.9-1.3-.4-.5-.6-1-.6-1.7 0-.8.3-1.5.9-2s1.4-.7 2.4-.7 1.9.2 2.9.6l-.5 1.3c-.9-.4-1.7-.6-2.4-.6-.5 0-.9.1-1.2.3s-.4.5-.4.9c0 .3.1.5.2.7s.3.4.5.5c.3.2.7.4 1.4.6.7.3 1.3.6 1.6.9s.6.6.8.9c.1.4.2.8.2 1.3zm6.2-6c-.9 0-1.7.3-2.2 1s-.8 1.6-.8 2.8.3 2.2.8 2.8 1.3.9 2.2.9c.4 0 .8 0 1.2-.1l1.2-.3v1.4c-.8.3-1.7.4-2.7.4-1.5 0-2.6-.4-3.4-1.3s-1.2-2.2-1.2-3.8c0-1 .2-1.9.6-2.7s.9-1.4 1.7-1.8c.7-.4 1.6-.6 2.5-.6 1 0 2 .2 2.8.6l-.6 1.4c-.3-.2-.7-.3-1.1-.4-.2-.3-.6-.3-1-.3z" fill="#363545"/><path d="m539.5 30h-.8l-.3-.3c1-1.1 1.6-2.6 1.6-4.2 0-3.6-2.9-6.5-6.5-6.5s-6.5 2.9-6.5 6.5 2.9 6.5 6.5 6.5c1.6 0 3.1-.6 4.2-1.6l.3.3v.8l5 5 1.5-1.5zm-6 0c-2.5 0-4.5-2-4.5-4.5s2-4.5 4.5-4.5 4.5 2 4.5 4.5-2 4.5-4.5 4.5zm50.5 8c1.1 0 2-.9 2-2h-4c0 1.1.9 2 2 2zm6-6v-5c0-3.1-1.6-5.6-4.5-6.3v-.7c0-.8-.7-1.5-1.5-1.5s-1.5.7-1.5 1.5v.7c-2.9.7-4.5 3.2-4.5 6.3v5l-2 2v1h16v-1zm42-14c-5.5 0-10 4.5-10 10s4.5 10 10 10 10-4.5 10-10-4.5-10-10-10zm1 17h-2v-2h2zm2.1-7.8-.9.9c-.7.7-1.2 1.3-1.2 2.8h-2v-.5c0-1.1.5-2.1 1.2-2.8l1.2-1.3c.4-.4.6-.9.6-1.4 0-1.1-.9-2-2-2s-2 .9-2 2h-2c0-2.2 1.8-4 4-4s4 1.8 4 4c0 1-.4 1.8-.9 2.3zm36.9-3.2h4v-4h-4zm6 12h4v-4h-4zm-6 0h4v-4h-4zm0-6h4v-4h-4zm6 0h4v-4h-4zm6-10v4h4v-4zm-6 4h4v-4h-4zm6 6h4v-4h-4zm0 6h4v-4h-4zm-661-2h18v-2h-18zm0-5h18v-2h-18zm0-7v2h18v-2z" fill="#6a6976"/><g fill="#0063a3"><path d="m102.6 40v-19.2h-7.1v-4.3h19.4v4.3h-7.1v19.2z"/><path d="m110.7 40v-16.8h5.1v2.7c.9-1.4 2.5-3.2 5.7-3.2h.2v4.5c-.2 0-1.1-.1-1.4-.1-1.8 0-3.5.9-4.5 2.3v10.6zm12.6-19.2v-4.1h5.1v4.1zm.1 19.2v-16.9h5.1v16.9zm7 0v-16.9h5.1v2.7c1-1.3 2.9-3 5.6-3 2.8 0 4.2 1.2 4.6 3 1-1.3 2.9-3 5.6-3 3.4 0 5 2.2 5 5.2v12h-5.1v-10.7c0-1.5-.3-2.3-1.8-2.3-1.3 0-2.3.7-3.4 1.7v11.3h-5.1v-10.7c0-1.5-.3-2.3-1.9-2.3-1.3 0-2.3.7-3.4 1.7v11.3zm33-2v2h-5.1v-23.5h5.1v9.2c1.1-1.5 2.7-3 5.2-3 3.8 0 6.5 3 6.5 8.8s-2.7 8.8-6.6 8.8c-2.3 0-3.9-.9-5.1-2.3zm6.6-6.4c0-2.8-1-4.6-3.3-4.6-1.3 0-2.5.8-3.3 1.7v6.3c1.1 1 2 1.5 3.4 1.5 2.1-.1 3.1-1.9 3.2-4.9zm6.6 8.4v-23.5h5.1v23.5zm6.7-8.4c0-6.6 5-8.8 8.5-8.8s7.8 1.8 7.8 9.4v.8h-11.2c.3 2.8 1.8 3.9 3.9 3.9 1.9-.1 3.6-.8 5-2l2 3c-2 1.7-4.4 2.5-7.4 2.5-4.4 0-8.6-2.3-8.6-8.8zm11.7-1.7c-.3-2.4-1.3-3.5-3.2-3.5-1.6 0-3 1-3.3 3.5zm5.6 8.2c0-1.1.8-1.9 1.9-1.9s1.9.9 1.9 1.9c0 1.1-.9 1.9-1.9 1.9-1.1.1-1.9-.8-1.9-1.9zm3.5 0c0-.9-.7-1.6-1.6-1.6s-1.6.7-1.6 1.6.7 1.6 1.6 1.6 1.6-.7 1.6-1.6zm-2.3-1.1h.8c.5 0 .8.2.8.7 0 .3-.1.5-.4.6l.5.9h-.4l-.4-.8h-.3v.8h-.4zm.7 1c.3 0 .4-.1.4-.3s-.1-.3-.4-.3h-.3v.6zm-133.8-1.3v7.3l6.4-3.7c-2.5-.5-4.7-1.8-6.4-3.6zm6.3-20-6.3-3.7v7.3c1.7-1.8 3.9-3.1 6.3-3.6zm20.5 11.8-6.3-3.7c.8 2.4.7 5 0 7.3zm-22.6-9.9c.9-.2 2.8 0 3.8.3.9-.7 2.1-1 3.2-1.1-2.4-.4-4.8-.1-7 .8zm12.1 13.3c-.2-1.4-.5-2.8-1-4.1-2.2 1-4.9.3-6.7-1.2-1.3 1.4-2.5 2.9-3.5 4.5 3 2.5 8 3.1 11.2.8zm-12.9-.6c-2.7-2.8-3.6-6.8-2.8-9.9-3.7 4.3-3.4 10.7.6 14.7.5-1.6 1.3-3.3 2.2-4.8zm11.4-4.7c-.6-1.2-1.3-2.3-2.2-3.3-1.1.7-2.1 1.5-3.1 2.4 1.6 1.4 3.8 1.6 5.3.9zm-2-5c.7-.5 1.5-1 2.4-1.3-1.7-1.7-4.5-1.7-5.7-.9 1.2.5 2.3 1.3 3.3 2.2z"/><path d="m73.1 32.2c-1.3 2.3-1.8 4-2 4.9 4 3 9.5 2.9 13.4-.3.4-1.1.6-2.3.6-3.5-3.7 2.3-8.9 1.4-12-1.1zm11.4-6.3c1.2-1.2.9-3.4 0-4.6-.8.3-1.5.8-2.2 1.3.9 1 1.6 2.1 2.2 3.3zm2.1-2.7c.2 1.5-.4 2.9-1.5 3.9.5 1.2.8 2.4 1 3.6 1.6-2.1 1.6-5.1.5-7.5zm-9.3 1.6c1-.9 2-1.7 3-2.4-1-.9-2.1-1.6-3.3-2-1 1.3-.7 3 .3 4.4zm9 7.6c0 .9 0 1.8-.1 2.7 1.7-2.2 2.5-4.9 2.3-7.6-.2 1.9-1 3.6-2.2 4.9zm-10.5-12.5c-1.4-.3-2.9-.3-4.3 0-2.1 3-1.1 7.5 1.3 10.2 1.1-1.6 2.3-3.1 3.6-4.5-1.3-1.5-1.8-3.9-.6-5.7z"/></g></svg>