<svg width="812" height="62" viewBox="0 0 812 62" fill="none" xmlns="http://www.w3.org/2000/svg">
<mask id="path-1-inside-1_1342_218928" fill="white">
<path d="M12 13C12 11.8954 12.8954 11 14 11H810C811.105 11 812 11.8954 812 13V51H12V13Z"/>
</mask>
<path d="M12 13C12 11.8954 12.8954 11 14 11H810C811.105 11 812 11.8954 812 13V51H12V13Z" fill="white"/>
<g clip-path="url(#clip0_1342_218928)">
<rect x="12" y="15" width="110" height="32" rx="2" fill="white"/>
<path d="M26.0117 33.7207C26.0117 34.4746 25.7383 35.0625 25.1914 35.4844C24.6445 35.9062 23.9023 36.1172 22.9648 36.1172C21.9492 36.1172 21.168 35.9863 20.6211 35.7246V34.7637C20.9727 34.9121 21.3555 35.0293 21.7695 35.1152C22.1836 35.2012 22.5938 35.2441 23 35.2441C23.6641 35.2441 24.1641 35.1191 24.5 34.8691C24.8359 34.6152 25.0039 34.2637 25.0039 33.8145C25.0039 33.5176 24.9434 33.2754 24.8223 33.0879C24.7051 32.8965 24.5059 32.7207 24.2246 32.5605C23.9473 32.4004 23.5234 32.2188 22.9531 32.0156C22.1562 31.7305 21.5859 31.3926 21.2422 31.002C20.9023 30.6113 20.7324 30.1016 20.7324 29.4727C20.7324 28.8125 20.9805 28.2871 21.4766 27.8965C21.9727 27.5059 22.6289 27.3105 23.4453 27.3105C24.2969 27.3105 25.0801 27.4668 25.7949 27.7793L25.4844 28.6465C24.7773 28.3496 24.0898 28.2012 23.4219 28.2012C22.8945 28.2012 22.4824 28.3145 22.1855 28.541C21.8887 28.7676 21.7402 29.082 21.7402 29.4844C21.7402 29.7812 21.7949 30.0254 21.9043 30.2168C22.0137 30.4043 22.1973 30.5781 22.4551 30.7383C22.7168 30.8945 23.1152 31.0684 23.6504 31.2598C24.5488 31.5801 25.166 31.9238 25.502 32.291C25.8418 32.6582 26.0117 33.1348 26.0117 33.7207ZM31.5844 36L31.391 35.0859H31.3442C31.0239 35.4883 30.7035 35.7617 30.3832 35.9062C30.0668 36.0469 29.6703 36.1172 29.1938 36.1172C28.5571 36.1172 28.0571 35.9531 27.6938 35.625C27.3344 35.2969 27.1547 34.8301 27.1547 34.2246C27.1547 32.9277 28.1918 32.248 30.266 32.1855L31.3559 32.1504V31.752C31.3559 31.248 31.2465 30.877 31.0278 30.6387C30.8129 30.3965 30.4672 30.2754 29.9907 30.2754C29.4555 30.2754 28.85 30.4395 28.1743 30.7676L27.8754 30.0234C28.1918 29.8516 28.5375 29.7168 28.9125 29.6191C29.2914 29.5215 29.6703 29.4727 30.0493 29.4727C30.8149 29.4727 31.3813 29.6426 31.7485 29.9824C32.1196 30.3223 32.3051 30.8672 32.3051 31.6172V36H31.5844ZM29.3871 35.3145C29.9926 35.3145 30.4672 35.1484 30.811 34.8164C31.1586 34.4844 31.3325 34.0195 31.3325 33.4219V32.8418L30.3598 32.8828C29.5864 32.9102 29.0278 33.0312 28.684 33.2461C28.3442 33.457 28.1743 33.7871 28.1743 34.2363C28.1743 34.5879 28.2797 34.8555 28.4907 35.0391C28.7055 35.2227 29.0043 35.3145 29.3871 35.3145ZM38.7274 36V31.8457C38.7274 31.3223 38.6083 30.9316 38.37 30.6738C38.1317 30.416 37.7587 30.2871 37.2508 30.2871C36.579 30.2871 36.0868 30.4688 35.7743 30.832C35.4618 31.1953 35.3055 31.7949 35.3055 32.6309V36H34.3329V29.5781H35.1239L35.2821 30.457H35.329C35.5282 30.1406 35.8075 29.8965 36.1669 29.7246C36.5262 29.5488 36.9266 29.4609 37.368 29.4609C38.1415 29.4609 38.7235 29.6484 39.1141 30.0234C39.5048 30.3945 39.7001 30.9902 39.7001 31.8105V36H38.7274ZM45.8645 34.248C45.8645 34.8457 45.6419 35.3066 45.1966 35.6309C44.7513 35.9551 44.1263 36.1172 43.3216 36.1172C42.47 36.1172 41.806 35.9824 41.3294 35.7129V34.8105C41.638 34.9668 41.9681 35.0898 42.3196 35.1797C42.6751 35.2695 43.0169 35.3145 43.345 35.3145C43.8528 35.3145 44.2435 35.2344 44.5169 35.0742C44.7903 34.9102 44.927 34.6621 44.927 34.3301C44.927 34.0801 44.8177 33.8672 44.5989 33.6914C44.3841 33.5117 43.9622 33.3008 43.3333 33.0586C42.7356 32.8359 42.3099 32.6426 42.056 32.4785C41.806 32.3105 41.6185 32.1211 41.4935 31.9102C41.3724 31.6992 41.3118 31.4473 41.3118 31.1543C41.3118 30.6309 41.5247 30.2188 41.9505 29.918C42.3763 29.6133 42.9603 29.4609 43.7024 29.4609C44.3938 29.4609 45.0696 29.6016 45.7298 29.8828L45.3841 30.6738C44.7395 30.4082 44.1556 30.2754 43.6321 30.2754C43.1712 30.2754 42.8235 30.3477 42.5892 30.4922C42.3548 30.6367 42.2376 30.8359 42.2376 31.0898C42.2376 31.2617 42.2806 31.4082 42.3665 31.5293C42.4563 31.6504 42.5989 31.7656 42.7942 31.875C42.9895 31.9844 43.3645 32.1426 43.9192 32.3496C44.681 32.627 45.1946 32.9062 45.4603 33.1875C45.7298 33.4688 45.8645 33.8223 45.8645 34.248ZM55.5861 33.7207C55.5861 34.4746 55.3127 35.0625 54.7658 35.4844C54.2189 35.9062 53.4767 36.1172 52.5392 36.1172C51.5236 36.1172 50.7423 35.9863 50.1955 35.7246V34.7637C50.547 34.9121 50.9298 35.0293 51.3439 35.1152C51.758 35.2012 52.1681 35.2441 52.5744 35.2441C53.2384 35.2441 53.7384 35.1191 54.0744 34.8691C54.4103 34.6152 54.5783 34.2637 54.5783 33.8145C54.5783 33.5176 54.5177 33.2754 54.3966 33.0879C54.2795 32.8965 54.0802 32.7207 53.799 32.5605C53.5216 32.4004 53.0978 32.2188 52.5275 32.0156C51.7306 31.7305 51.1603 31.3926 50.8166 31.002C50.4767 30.6113 50.3068 30.1016 50.3068 29.4727C50.3068 28.8125 50.5548 28.2871 51.0509 27.8965C51.547 27.5059 52.2033 27.3105 53.0197 27.3105C53.8713 27.3105 54.6545 27.4668 55.3693 27.7793L55.0588 28.6465C54.3517 28.3496 53.6642 28.2012 52.9963 28.2012C52.4689 28.2012 52.0568 28.3145 51.7599 28.541C51.463 28.7676 51.3146 29.082 51.3146 29.4844C51.3146 29.7812 51.3693 30.0254 51.4787 30.2168C51.588 30.4043 51.7716 30.5781 52.0295 30.7383C52.2912 30.8945 52.6896 31.0684 53.2248 31.2598C54.1232 31.5801 54.7404 31.9238 55.0763 32.291C55.4162 32.6582 55.5861 33.1348 55.5861 33.7207ZM59.9225 36.1172C58.9732 36.1172 58.2232 35.8281 57.6725 35.25C57.1256 34.6719 56.8521 33.8691 56.8521 32.8418C56.8521 31.8066 57.106 30.9844 57.6139 30.375C58.1256 29.7656 58.8111 29.4609 59.6705 29.4609C60.4752 29.4609 61.1119 29.7266 61.5807 30.2578C62.0494 30.7852 62.2838 31.4824 62.2838 32.3496V32.9648H57.86C57.8795 33.7188 58.0689 34.291 58.4283 34.6816C58.7916 35.0723 59.3014 35.2676 59.9576 35.2676C60.649 35.2676 61.3326 35.123 62.0084 34.834V35.7012C61.6646 35.8496 61.3385 35.9551 61.0299 36.0176C60.7252 36.084 60.356 36.1172 59.9225 36.1172ZM59.6588 30.2754C59.1432 30.2754 58.731 30.4434 58.4225 30.7793C58.1178 31.1152 57.9381 31.5801 57.8834 32.1738H61.2408C61.2408 31.5605 61.1041 31.0918 60.8307 30.7676C60.5572 30.4395 60.1666 30.2754 59.6588 30.2754ZM66.8955 29.4609C67.1807 29.4609 67.4365 29.4844 67.6631 29.5312L67.5283 30.4336C67.2627 30.375 67.0283 30.3457 66.8252 30.3457C66.3057 30.3457 65.8604 30.5566 65.4893 30.9785C65.1221 31.4004 64.9385 31.9258 64.9385 32.5547V36H63.9658V29.5781H64.7686L64.8799 30.7676H64.9268C65.1651 30.3496 65.4522 30.0273 65.7881 29.8008C66.124 29.5742 66.4932 29.4609 66.8955 29.4609ZM69.8549 36H68.8823V29.5781H69.8549V36ZM68.8003 27.8379C68.8003 27.6152 68.8549 27.4531 68.9643 27.3516C69.0737 27.2461 69.2104 27.1934 69.3745 27.1934C69.5307 27.1934 69.6655 27.2461 69.7788 27.3516C69.892 27.457 69.9487 27.6191 69.9487 27.8379C69.9487 28.0566 69.892 28.2207 69.7788 28.3301C69.6655 28.4355 69.5307 28.4883 69.3745 28.4883C69.2104 28.4883 69.0737 28.4355 68.9643 28.3301C68.8549 28.2207 68.8003 28.0566 68.8003 27.8379ZM74.83 30.334H73.1952V36H72.2225V30.334H71.0741V29.8945L72.2225 29.543V29.1855C72.2225 27.6074 72.912 26.8184 74.2909 26.8184C74.6307 26.8184 75.0292 26.8867 75.4862 27.0234L75.2343 27.8027C74.8593 27.6816 74.539 27.6211 74.2733 27.6211C73.9061 27.6211 73.6347 27.7441 73.4589 27.9902C73.2831 28.2324 73.1952 28.623 73.1952 29.1621V29.5781H74.83V30.334Z" fill="#252A2E"/>
<path d="M108.587 29.1935L106 31.7802L103.413 29.1935C103.153 28.9335 102.733 28.9335 102.473 29.1935C102.213 29.4535 102.213 29.8735 102.473 30.1335L105.533 33.1935C105.793 33.4535 106.213 33.4535 106.473 33.1935L109.533 30.1335C109.793 29.8735 109.793 29.4535 109.533 29.1935C109.273 28.9402 108.847 28.9335 108.587 29.1935Z" fill="#464B52"/>
</g>
<path d="M127 19V43" stroke="#E0E1E9" stroke-linecap="square"/>
<g clip-path="url(#clip1_1342_218928)">
<rect x="132" y="15" width="68" height="32" rx="2" fill="white"/>
<path d="M144.189 36H143.24V29.8945C143.24 29.3867 143.256 28.9062 143.287 28.4531C143.205 28.5352 143.113 28.6211 143.012 28.7109C142.91 28.8008 142.445 29.1816 141.617 29.8535L141.102 29.1855L143.369 27.4336H144.189V36ZM153.506 34.0312H152.235V36H151.303V34.0312H147.137V33.1816L151.204 27.3867H152.235V33.1465H153.506V34.0312ZM151.303 33.1465V30.2988C151.303 29.7402 151.323 29.1094 151.362 28.4062H151.315C151.127 28.7812 150.952 29.0918 150.788 29.3379L148.11 33.1465H151.303ZM157.79 36.1172C157.372 36.1172 156.989 36.041 156.641 35.8887C156.298 35.7324 156.009 35.4941 155.774 35.1738H155.704C155.751 35.5488 155.774 35.9043 155.774 36.2402V38.8828H154.802V29.5781H155.593L155.727 30.457H155.774C156.024 30.1055 156.315 29.8516 156.647 29.6953C156.979 29.5391 157.36 29.4609 157.79 29.4609C158.641 29.4609 159.298 29.752 159.759 30.334C160.224 30.916 160.456 31.7324 160.456 32.7832C160.456 33.8379 160.22 34.6582 159.747 35.2441C159.278 35.8262 158.626 36.1172 157.79 36.1172ZM157.649 30.2871C156.993 30.2871 156.518 30.4688 156.225 30.832C155.932 31.1953 155.782 31.7734 155.774 32.5664V32.7832C155.774 33.6855 155.925 34.332 156.225 34.7227C156.526 35.1094 157.009 35.3027 157.673 35.3027C158.227 35.3027 158.661 35.0781 158.974 34.6289C159.29 34.1797 159.448 33.5605 159.448 32.7715C159.448 31.9707 159.29 31.3574 158.974 30.9316C158.661 30.502 158.22 30.2871 157.649 30.2871ZM163.726 32.7129L161.493 29.5781H162.601L164.294 32.0391L165.982 29.5781H167.077L164.845 32.7129L167.195 36H166.093L164.294 33.3984L162.478 36H161.376L163.726 32.7129Z" fill="#252A2E"/>
<path d="M186.587 29.1935L184 31.7802L181.413 29.1935C181.153 28.9335 180.733 28.9335 180.473 29.1935C180.213 29.4535 180.213 29.8735 180.473 30.1335L183.533 33.1935C183.793 33.4535 184.213 33.4535 184.473 33.1935L187.533 30.1335C187.793 29.8735 187.793 29.4535 187.533 29.1935C187.273 28.9402 186.847 28.9335 186.587 29.1935Z" fill="#464B52"/>
</g>
<path d="M205 19V43" stroke="#E0E1E9" stroke-linecap="square"/>
<path d="M220.78 37.6598V24.3398H226.11C228.56 24.3398 230.86 24.9298 230.86 27.6398C230.86 29.5298 229.67 30.4298 228.32 30.6998V30.7398C229.94 31.0298 231.22 31.8698 231.22 33.9998C231.22 36.6798 228.86 37.6698 226.38 37.6698H220.78V37.6598ZM223.66 29.8298H225.82C227.35 29.8298 228.05 29.2498 228.05 28.2298C228.05 27.2098 227.42 26.6098 225.85 26.6098H223.65V29.8298H223.66ZM223.66 35.4298H226.02C227.64 35.4298 228.36 34.7798 228.36 33.6498C228.36 32.5198 227.51 31.8998 225.89 31.8998H223.66V35.4298Z" fill="#252A2E"/>
<path d="M255.7 37.6598L258.04 24.3398H260.29L257.95 37.6598H255.7Z" fill="#252A2E"/>
<path d="M296 40H284V39H296V40ZM290.01 37.04C293.07 37.04 294.59 35.2 294.59 32.51V25H292.62V32.36C292.62 34.18 291.84 35.23 290.03 35.23C288.22 35.23 287.42 34.16 287.42 32.35V25H285.42V32.52C285.42 35.21 286.75 37.03 290.01 37.03V37.04Z" fill="#252A2E"/>
<path d="M330 30.4998V31.4998H314V30.4998H318.67C317.84 29.9098 317.31 29.1098 317.31 27.8498C317.31 25.5798 319.16 24.0898 321.87 24.0898C324.58 24.0898 326.05 25.3898 326.86 26.9498L325.22 28.0798C324.43 26.7498 323.29 26.1398 321.85 26.1398C320.41 26.1398 319.53 26.6798 319.53 27.6498C319.53 28.8898 320.48 29.3098 322.66 29.9498C323.23 30.1198 323.77 30.2998 324.26 30.4898H330V30.4998ZM323.73 32.4998C324.61 32.9298 324.98 33.4298 324.98 34.1898C324.98 35.3998 323.88 35.9198 322.26 35.9198C320.64 35.9198 319.38 35.1598 318.59 33.5998L316.81 34.5398C317.66 36.5598 319.53 37.9198 322.18 37.9198C325.35 37.9198 327.2 36.2098 327.2 34.0298C327.2 33.4298 327.08 32.9298 326.87 32.5098H323.74L323.73 32.4998Z" fill="#252A2E"/>
<path d="M343 19V43" stroke="#E0E1E9" stroke-linecap="square"/>
<path d="M367 26H357C356.45 26 356 25.55 356 25C356 24.45 356.45 24 357 24H367C367.55 24 368 24.45 368 25C368 25.55 367.55 26 367 26ZM368 33C368 32.45 367.55 32 367 32H357C356.45 32 356 32.45 356 33C356 33.55 356.45 34 357 34H367C367.55 34 368 33.55 368 33ZM372 29C372 28.45 371.55 28 371 28H357C356.45 28 356 28.45 356 29C356 29.55 356.45 30 357 30H371C371.55 30 372 29.55 372 29ZM372 37C372 36.45 371.55 36 371 36H357C356.45 36 356 36.45 356 37C356 37.55 356.45 38 357 38H371C371.55 38 372 37.55 372 37Z" fill="#252A2E"/>
<path d="M401 26H391C390.45 26 390 25.55 390 25C390 24.45 390.45 24 391 24H401C401.55 24 402 24.45 402 25C402 25.55 401.55 26 401 26ZM402 33C402 32.45 401.55 32 401 32H391C390.45 32 390 32.45 390 33C390 33.55 390.45 34 391 34H401C401.55 34 402 33.55 402 33ZM404 29C404 28.45 403.55 28 403 28H389C388.45 28 388 28.45 388 29C388 29.55 388.45 30 389 30H403C403.55 30 404 29.55 404 29ZM404 37C404 36.45 403.55 36 403 36H389C388.45 36 388 36.45 388 37C388 37.55 388.45 38 389 38H403C403.55 38 404 37.55 404 37Z" fill="#252A2E"/>
<path d="M435 26H425C424.45 26 424 25.55 424 25C424 24.45 424.45 24 425 24H435C435.55 24 436 24.45 436 25C436 25.55 435.55 26 435 26ZM436 33C436 32.45 435.55 32 435 32H425C424.45 32 424 32.45 424 33C424 33.55 424.45 34 425 34H435C435.55 34 436 33.55 436 33ZM436 29C436 28.45 435.55 28 435 28H421C420.45 28 420 28.45 420 29C420 29.55 420.45 30 421 30H435C435.55 30 436 29.55 436 29ZM436 37C436 36.45 435.55 36 435 36H421C420.45 36 420 36.45 420 37C420 37.55 420.45 38 421 38H435C435.55 38 436 37.55 436 37Z" fill="#252A2E"/>
<path d="M449 19V43" stroke="#E0E1E9" stroke-linecap="square"/>
<path d="M463.5 29.5C462.67 29.5 462 30.17 462 31C462 31.83 462.67 32.5 463.5 32.5C464.33 32.5 465 31.83 465 31C465.01 30.18 464.36 29.51 463.54 29.5H463.5ZM463.5 24.5C462.67 24.5 462 25.17 462 26C462 26.83 462.67 27.5 463.5 27.5C464.33 27.5 465 26.83 465 26C465.01 25.18 464.36 24.51 463.54 24.5H463.5ZM463.5 34.5C462.67 34.5 462 35.17 462 36C462 36.83 462.67 37.5 463.5 37.5C464.33 37.5 465 36.83 465 36C465.01 35.18 464.36 34.51 463.54 34.5H463.5ZM467 37H477C477.55 37 478 36.55 478 36C478 35.45 477.55 35 477 35H467C466.45 35 466 35.45 466 36C466 36.55 466.45 37 467 37ZM467 32H477C477.55 32 478 31.55 478 31C478 30.45 477.55 30 477 30H467C466.45 30 466 30.45 466 31C466 31.55 466.45 32 467 32ZM466 26C466 26.55 466.45 27 467 27H477C477.55 27 478 26.55 478 26C478 25.45 477.55 25 477 25H467C466.45 25 466 25.45 466 26Z" fill="#252A2E"/>
<path d="M499 36C499 35.45 499.45 35 500 35H510C510.55 35 511 35.45 511 36C511 36.55 510.55 37 510 37H500C499.45 37 499 36.55 499 36ZM500 32H510C510.55 32 511 31.55 511 31C511 30.45 510.55 30 510 30H500C499.45 30 499 30.45 499 31C499 31.55 499.45 32 500 32ZM499 26C499 26.55 499.45 27 500 27H510C510.55 27 511 26.55 511 26C511 25.45 510.55 25 510 25H500C499.45 25 499 25.45 499 26ZM497.03 28.92V28.04H496.06V23H495.12C494.86 23.25 494.47 23.37 494.02 23.38V24.28C494.36 24.28 494.8 24.16 495.09 24.01V28.03H494V28.91H497.03V28.92ZM497.13 39V38.12H494.17C494.27 37.7 494.75 37.23 495.7 36.63C496.84 35.91 497.1 35.37 497.1 34.65C497.1 33.64 496.4 32.97 495.25 32.97C494.23 32.97 493.55 33.49 493.07 34.23L493.81 34.74C494.18 34.19 494.68 33.87 495.2 33.87C495.76 33.87 496.13 34.17 496.13 34.73C496.13 35.34 495.77 35.62 494.87 36.2C493.31 37.2 493.02 38.02 493.02 38.88V39.01H497.15L497.13 39Z" fill="#252A2E"/>
<path d="M523 19V43" stroke="#E0E1E9" stroke-linecap="square"/>
<path d="M537.88 36.2498C537.04 35.0098 537.3 33.3198 538.36 32.2598L540.43 30.1898C540.8 29.8198 540.8 29.2198 540.43 28.8498C540.06 28.4798 539.46 28.4798 539.09 28.8498L537.09 30.8498C535.24 32.6998 534.94 35.6898 536.6 37.7098C538.51 40.0198 541.94 40.1398 544 38.0798L546.16 35.9198C546.53 35.5498 546.53 34.9498 546.16 34.5798C545.79 34.2098 545.19 34.2098 544.82 34.5798L542.66 36.7398C541.31 38.0898 539.01 37.9298 537.88 36.2598V36.2498ZM542.59 33.8298L546.83 29.5898C547.22 29.1998 547.22 28.5698 546.83 28.1798C546.44 27.7898 545.81 27.7898 545.42 28.1798L541.18 32.4198C540.79 32.8098 540.79 33.4398 541.18 33.8298C541.57 34.2198 542.2 34.2198 542.59 33.8298ZM543.85 24.0798L541.85 26.0798C541.48 26.4498 541.48 27.0498 541.85 27.4198C542.22 27.7898 542.82 27.7898 543.19 27.4198L545.26 25.3498C546.32 24.2898 548.01 24.0298 549.25 24.8698C550.92 25.9998 551.08 28.2998 549.73 29.6498L547.57 31.8098C547.2 32.1798 547.2 32.7798 547.57 33.1498C547.94 33.5198 548.54 33.5198 548.91 33.1498L551.07 30.9898C553.14 28.9198 553.01 25.4898 550.7 23.5898C548.69 21.9298 545.69 22.2298 543.84 24.0798H543.85Z" fill="#252A2E"/>
<path d="M11 13C11 11.3431 12.3431 10 14 10H810C811.657 10 813 11.3431 813 13H811C811 12.4477 810.552 12 810 12H14C13.4477 12 13 12.4477 13 13H11ZM812 51H12H812ZM11 51V13C11 11.3431 12.3431 10 14 10V12C13.4477 12 13 12.4477 13 13V51H11ZM810 10C811.657 10 813 11.3431 813 13V51H811V13C811 12.4477 810.552 12 810 12V10Z" fill="#E0E1E9" mask="url(#path-1-inside-1_1342_218928)"/>
<rect x="0.5" y="0.5" width="128" height="61" stroke="#FF00DD"/>
<defs>
<clipPath id="clip0_1342_218928">
<rect x="12" y="15" width="110" height="32" rx="2" fill="white"/>
</clipPath>
<clipPath id="clip1_1342_218928">
<rect x="132" y="15" width="68" height="32" rx="2" fill="white"/>
</clipPath>
</defs>
</svg>
