<svg xmlns="http://www.w3.org/2000/svg" width="244" height="184" fill="none" viewBox="0 0 244 184"><g filter="url(#filter0_d_17612_48289)"><g clip-path="url(#clip0_17612_48289)"><rect width="240" height="180" x="2" y="2" fill="#353A40" rx="2"/><path fill="#fff" d="M25.0137 27.3408C25.0137 28.2204 24.6947 28.9062 24.0566 29.3984C23.4186 29.8906 22.5527 30.1367 21.459 30.1367C20.2741 30.1367 19.3626 29.984 18.7246 29.6787V28.5576C19.1348 28.7308 19.5814 28.8675 20.0645 28.9678C20.5475 29.068 21.026 29.1182 21.5 29.1182C22.2747 29.1182 22.8581 28.9723 23.25 28.6807C23.6419 28.3844 23.8379 27.9743 23.8379 27.4502C23.8379 27.1038 23.7673 26.8213 23.626 26.6025C23.4893 26.3792 23.2568 26.1742 22.9287 25.9873C22.6051 25.8005 22.1107 25.5885 21.4453 25.3516C20.5156 25.0189 19.8503 24.6247 19.4492 24.1689C19.0527 23.7132 18.8545 23.1185 18.8545 22.3848C18.8545 21.6146 19.1439 21.0016 19.7227 20.5459C20.3014 20.0902 21.0671 19.8623 22.0195 19.8623C23.013 19.8623 23.9268 20.0446 24.7607 20.4092L24.3984 21.4209C23.5736 21.0745 22.7715 20.9014 21.9922 20.9014C21.377 20.9014 20.8962 21.0335 20.5498 21.2979C20.2035 21.5622 20.0303 21.929 20.0303 22.3984C20.0303 22.7448 20.0941 23.0296 20.2217 23.2529C20.3493 23.4717 20.5635 23.6745 20.8643 23.8613C21.1696 24.0436 21.6344 24.2464 22.2588 24.4697C23.307 24.8434 24.027 25.2445 24.4189 25.6729C24.8154 26.1012 25.0137 26.6572 25.0137 27.3408ZM27.9741 22.5078V27.3682C27.9741 27.9788 28.1131 28.4346 28.3911 28.7354C28.6691 29.0361 29.1043 29.1865 29.6968 29.1865C30.4806 29.1865 31.0526 28.9723 31.4126 28.5439C31.7772 28.1156 31.9595 27.416 31.9595 26.4453V22.5078H33.0942V30H32.1577L31.9937 28.9951H31.9321C31.6997 29.3643 31.3761 29.6468 30.9614 29.8428C30.5513 30.0387 30.0819 30.1367 29.5532 30.1367C28.6418 30.1367 27.9582 29.9202 27.5024 29.4873C27.0513 29.0544 26.8257 28.3617 26.8257 27.4092V22.5078H27.9741ZM39.0147 22.3848C39.999 22.3848 40.7624 22.722 41.3047 23.3965C41.8516 24.0664 42.125 25.0166 42.125 26.2471C42.125 27.4775 41.8493 28.4346 41.2979 29.1182C40.751 29.7972 39.9899 30.1367 39.0147 30.1367C38.527 30.1367 38.0804 30.0479 37.6748 29.8701C37.2738 29.6878 36.9365 29.4098 36.6631 29.0361H36.5811L36.3418 30H35.5283V19.3633H36.6631V21.9473C36.6631 22.526 36.6449 23.0456 36.6084 23.5059H36.6631C37.1917 22.7585 37.9756 22.3848 39.0147 22.3848ZM38.8506 23.335C38.0759 23.335 37.5176 23.5583 37.1758 24.0049C36.834 24.4469 36.6631 25.1943 36.6631 26.2471C36.6631 27.2998 36.8385 28.054 37.1895 28.5098C37.5404 28.9609 38.1032 29.1865 38.8779 29.1865C39.5752 29.1865 40.0947 28.9336 40.4365 28.4277C40.7783 27.9173 40.9492 27.1859 40.9492 26.2334C40.9492 25.2581 40.7783 24.5312 40.4365 24.0527C40.0947 23.5742 39.5661 23.335 38.8506 23.335ZM53.6851 30V25.126C53.6851 24.529 53.5575 24.0824 53.3023 23.7861C53.047 23.4854 52.6506 23.335 52.1128 23.335C51.4064 23.335 50.8846 23.5378 50.5474 23.9434C50.2101 24.349 50.0415 24.9733 50.0415 25.8164V30H48.9067V25.126C48.9067 24.529 48.7791 24.0824 48.5239 23.7861C48.2687 23.4854 47.87 23.335 47.3276 23.335C46.6167 23.335 46.0949 23.5492 45.7622 23.9775C45.4341 24.4014 45.27 25.0986 45.27 26.0693V30H44.1353V22.5078H45.0581L45.2427 23.5332H45.2974C45.5116 23.1686 45.8123 22.8838 46.1997 22.6787C46.5916 22.4736 47.0291 22.3711 47.5122 22.3711C48.6834 22.3711 49.4491 22.7949 49.8091 23.6426H49.8638C50.0871 23.2507 50.4107 22.9408 50.8345 22.7129C51.2583 22.485 51.7414 22.3711 52.2837 22.3711C53.1314 22.3711 53.7648 22.5898 54.1841 23.0273C54.6079 23.4603 54.8198 24.1553 54.8198 25.1123V30H53.6851ZM58.3203 30H57.1856V22.5078H58.3203V30ZM57.0899 20.4775C57.0899 20.2178 57.1537 20.0286 57.2813 19.9102C57.4089 19.7871 57.5684 19.7256 57.7598 19.7256C57.9421 19.7256 58.0993 19.7871 58.2315 19.9102C58.3636 20.0332 58.4297 20.2223 58.4297 20.4775C58.4297 20.7327 58.3636 20.9242 58.2315 21.0518C58.0993 21.1748 57.9421 21.2363 57.7598 21.2363C57.5684 21.2363 57.4089 21.1748 57.2813 21.0518C57.1537 20.9242 57.0899 20.7327 57.0899 20.4775ZM63.1675 29.2002C63.368 29.2002 63.5617 29.1865 63.7486 29.1592C63.9354 29.1273 64.0835 29.0954 64.1929 29.0635V29.9316C64.0698 29.9909 63.8876 30.0387 63.646 30.0752C63.409 30.1162 63.1948 30.1367 63.0034 30.1367C61.5542 30.1367 60.8296 29.3734 60.8296 27.8467V23.3896H59.7564V22.8428L60.8296 22.3711L61.3081 20.7715H61.9644V22.5078H64.1382V23.3896H61.9644V27.7988C61.9644 28.25 62.0715 28.5964 62.2857 28.8379C62.4999 29.0794 62.7938 29.2002 63.1675 29.2002ZM70.7085 30H69.5464V20.0059H75.1177V21.0381H70.7085V24.6953H74.8511V25.7275H70.7085V30ZM79.794 30.1367C78.6866 30.1367 77.8116 29.7995 77.169 29.125C76.531 28.4505 76.2119 27.514 76.2119 26.3154C76.2119 25.1077 76.5082 24.1484 77.1006 23.4375C77.6976 22.7266 78.4974 22.3711 79.5 22.3711C80.4388 22.3711 81.1817 22.681 81.7285 23.3008C82.2754 23.916 82.5489 24.7295 82.5489 25.7412V26.459H77.3877C77.4105 27.3385 77.6315 28.0062 78.0508 28.4619C78.4746 28.9176 79.0694 29.1455 79.835 29.1455C80.6416 29.1455 81.4392 28.9769 82.2276 28.6396V29.6514C81.8265 29.8245 81.446 29.9476 81.086 30.0205C80.7305 30.098 80.2998 30.1367 79.794 30.1367ZM79.4864 23.3213C78.8848 23.3213 78.404 23.5173 78.044 23.9092C77.6885 24.3011 77.4789 24.8434 77.4151 25.5361H81.3321C81.3321 24.8206 81.1726 24.2738 80.8535 23.8955C80.5345 23.5127 80.0788 23.3213 79.4864 23.3213ZM87.6763 30.1367C86.5689 30.1367 85.6939 29.7995 85.0513 29.125C84.4133 28.4505 84.0943 27.514 84.0943 26.3154C84.0943 25.1077 84.3905 24.1484 84.9829 23.4375C85.58 22.7266 86.3798 22.3711 87.3824 22.3711C88.3212 22.3711 89.064 22.681 89.6109 23.3008C90.1578 23.916 90.4312 24.7295 90.4312 25.7412V26.459H85.2701C85.2928 27.3385 85.5139 28.0062 85.9331 28.4619C86.357 28.9176 86.9517 29.1455 87.7173 29.1455C88.524 29.1455 89.3215 28.9769 90.1099 28.6396V29.6514C89.7089 29.8245 89.3283 29.9476 88.9683 30.0205C88.6128 30.098 88.1822 30.1367 87.6763 30.1367ZM87.3687 23.3213C86.7671 23.3213 86.2863 23.5173 85.9263 23.9092C85.5708 24.3011 85.3612 24.8434 85.2974 25.5361H89.2144C89.2144 24.8206 89.0549 24.2738 88.7359 23.8955C88.4169 23.5127 87.9611 23.3213 87.3687 23.3213ZM97.4932 28.9951H97.4317C96.9076 29.7562 96.1237 30.1367 95.0801 30.1367C94.1003 30.1367 93.337 29.8018 92.7901 29.1318C92.2478 28.4619 91.9766 27.5094 91.9766 26.2744C91.9766 25.0394 92.25 24.0801 92.7969 23.3965C93.3438 22.7129 94.1049 22.3711 95.0801 22.3711C96.0964 22.3711 96.8757 22.7402 97.418 23.4785H97.5069L97.459 22.9385L97.4317 22.4121V19.3633H98.5664V30H97.6436L97.4932 28.9951ZM95.2237 29.1865C95.9984 29.1865 96.559 28.9769 96.9053 28.5576C97.2562 28.1338 97.4317 27.4525 97.4317 26.5137V26.2744C97.4317 25.2126 97.2539 24.4561 96.8985 24.0049C96.5476 23.5492 95.9847 23.3213 95.21 23.3213C94.5446 23.3213 94.0342 23.5811 93.6787 24.1006C93.3278 24.6156 93.1524 25.3447 93.1524 26.2881C93.1524 27.2451 93.3278 27.9674 93.6787 28.4551C94.0297 28.9427 94.5446 29.1865 95.2237 29.1865ZM104.487 22.3848C105.471 22.3848 106.235 22.722 106.777 23.3965C107.324 24.0664 107.597 25.0166 107.597 26.2471C107.597 27.4775 107.321 28.4346 106.77 29.1182C106.223 29.7972 105.462 30.1367 104.487 30.1367C103.999 30.1367 103.553 30.0479 103.147 29.8701C102.746 29.6878 102.409 29.4098 102.135 29.0361H102.053L101.814 30H101.001V19.3633H102.135V21.9473C102.135 22.526 102.117 23.0456 102.081 23.5059H102.135C102.664 22.7585 103.448 22.3848 104.487 22.3848ZM104.323 23.335C103.548 23.335 102.99 23.5583 102.648 24.0049C102.306 24.4469 102.135 25.1943 102.135 26.2471C102.135 27.2998 102.311 28.054 102.662 28.5098C103.013 28.9609 103.575 29.1865 104.35 29.1865C105.047 29.1865 105.567 28.9336 105.909 28.4277C106.251 27.9173 106.421 27.1859 106.421 26.2334C106.421 25.2581 106.251 24.5312 105.909 24.0527C105.567 23.5742 105.038 23.335 104.323 23.335ZM114.215 30L113.989 28.9336H113.935C113.561 29.403 113.187 29.722 112.814 29.8906C112.444 30.0547 111.982 30.1367 111.426 30.1367C110.683 30.1367 110.1 29.9453 109.676 29.5625C109.257 29.1797 109.047 28.6351 109.047 27.9287C109.047 26.4157 110.257 25.6227 112.677 25.5498L113.948 25.5088V25.0439C113.948 24.4561 113.821 24.0231 113.565 23.7451C113.315 23.4626 112.912 23.3213 112.356 23.3213C111.731 23.3213 111.025 23.5127 110.236 23.8955L109.888 23.0273C110.257 22.8268 110.66 22.6696 111.098 22.5557C111.54 22.4417 111.982 22.3848 112.424 22.3848C113.317 22.3848 113.978 22.583 114.406 22.9795C114.839 23.376 115.056 24.0117 115.056 24.8867V30H114.215ZM111.651 29.2002C112.358 29.2002 112.912 29.0065 113.313 28.6191C113.718 28.2318 113.921 27.6895 113.921 26.9922V26.3154L112.786 26.3633C111.884 26.3952 111.232 26.5365 110.831 26.7871C110.435 27.0332 110.236 27.4183 110.236 27.9424C110.236 28.3525 110.359 28.6647 110.606 28.8789C110.856 29.0931 111.205 29.2002 111.651 29.2002ZM120.416 30.1367C119.331 30.1367 118.49 29.804 117.893 29.1387C117.301 28.4688 117.004 27.5231 117.004 26.3018C117.004 25.0485 117.305 24.0801 117.907 23.3965C118.513 22.7129 119.374 22.3711 120.491 22.3711C120.851 22.3711 121.211 22.4098 121.571 22.4873C121.931 22.5648 122.213 22.6559 122.419 22.7607L122.07 23.7246C121.819 23.6243 121.546 23.5423 121.25 23.4785C120.953 23.4102 120.691 23.376 120.463 23.376C118.941 23.376 118.18 24.3467 118.18 26.2881C118.18 27.2087 118.365 27.915 118.734 28.4072C119.108 28.8994 119.659 29.1455 120.388 29.1455C121.013 29.1455 121.653 29.0111 122.309 28.7422V29.7471C121.808 30.0068 121.177 30.1367 120.416 30.1367ZM125.235 26.165C125.431 25.887 125.73 25.5225 126.131 25.0713L128.551 22.5078H129.898L126.862 25.7002L130.109 30H128.735L126.09 26.459L125.235 27.1973V30H124.114V19.3633H125.235V25.0029C125.235 25.2536 125.217 25.641 125.181 26.165H125.235Z"/><rect width="240" height="1" x="2" y="48" fill="#464B52"/><path fill="#fff" d="M33.0078 71.5781L30.0234 83H27.9766L26.0703 76.1562C26.0234 75.9896 25.9714 75.7917 25.9141 75.5625C25.8568 75.3333 25.7995 75.099 25.7422 74.8594C25.6901 74.6198 25.6432 74.401 25.6016 74.2031C25.5651 74 25.5391 73.8438 25.5234 73.7344C25.513 73.8438 25.4896 73.9974 25.4531 74.1953C25.4167 74.3932 25.3724 74.612 25.3203 74.8516C25.2734 75.0859 25.2214 75.3203 25.1641 75.5547C25.1068 75.7839 25.0547 75.987 25.0078 76.1641L23.1328 83H21.0938L18.1172 71.5781H20L21.6484 78.2734C21.7005 78.487 21.7526 78.7188 21.8047 78.9688C21.862 79.2135 21.9141 79.4609 21.9609 79.7109C22.013 79.9609 22.0599 80.2057 22.1016 80.4453C22.1432 80.6797 22.1771 80.8932 22.2031 81.0859C22.2292 80.888 22.263 80.6693 22.3047 80.4297C22.3464 80.1849 22.3906 79.9375 22.4375 79.6875C22.4896 79.4323 22.5417 79.1875 22.5938 78.9531C22.651 78.7188 22.7083 78.5078 22.7656 78.3203L24.625 71.5781H26.4531L28.3516 78.3438C28.4089 78.5365 28.4635 78.7526 28.5156 78.9922C28.5729 79.2318 28.6276 79.4766 28.6797 79.7266C28.7318 79.9766 28.7786 80.2188 28.8203 80.4531C28.862 80.6875 28.8958 80.8984 28.9219 81.0859C28.9583 80.8307 29.0052 80.5391 29.0625 80.2109C29.1198 79.8828 29.1849 79.5495 29.2578 79.2109C29.3307 78.8724 29.4036 78.5599 29.4766 78.2734L31.1172 71.5781H33.0078ZM37.9781 74.1875C39.0719 74.1875 39.8974 74.4297 40.4547 74.9141C41.0172 75.3984 41.2984 76.1536 41.2984 77.1797V83H39.9937L39.6422 81.7734H39.5797C39.3349 82.0859 39.0823 82.3438 38.8219 82.5469C38.5615 82.75 38.2594 82.901 37.9156 83C37.5771 83.1042 37.163 83.1562 36.6734 83.1562C36.1578 83.1562 35.6969 83.0625 35.2906 82.875C34.8844 82.6823 34.5641 82.3906 34.3297 82C34.0953 81.6094 33.9781 81.1146 33.9781 80.5156C33.9781 79.625 34.3089 78.9557 34.9703 78.5078C35.637 78.0599 36.6422 77.8125 37.9859 77.7656L39.4859 77.7109V77.2578C39.4859 76.6589 39.3453 76.2318 39.0641 75.9766C38.788 75.7214 38.3974 75.5938 37.8922 75.5938C37.4599 75.5938 37.0406 75.6562 36.6344 75.7812C36.2281 75.9062 35.8323 76.0599 35.4469 76.2422L34.8531 74.9453C35.275 74.7214 35.7542 74.5391 36.2906 74.3984C36.8323 74.2578 37.3948 74.1875 37.9781 74.1875ZM39.4781 78.8672L38.3609 78.9062C37.4443 78.9375 36.801 79.0938 36.4312 79.375C36.0615 79.6562 35.8766 80.0417 35.8766 80.5312C35.8766 80.9583 36.0042 81.2708 36.2594 81.4688C36.5146 81.6615 36.8505 81.7578 37.2672 81.7578C37.9026 81.7578 38.4286 81.5781 38.8453 81.2188C39.2672 80.8542 39.4781 80.3203 39.4781 79.6172V78.8672ZM49.8312 80.5312C49.8312 81.099 49.6932 81.5781 49.4172 81.9688C49.1411 82.3594 48.7375 82.6562 48.2062 82.8594C47.6802 83.0573 47.0344 83.1562 46.2687 83.1562C45.6646 83.1562 45.1437 83.112 44.7062 83.0234C44.274 82.9401 43.8651 82.8099 43.4797 82.6328V81.0469C43.8911 81.2396 44.3521 81.4062 44.8625 81.5469C45.3781 81.6875 45.8651 81.7578 46.3234 81.7578C46.9276 81.7578 47.3625 81.6641 47.6281 81.4766C47.8937 81.2839 48.0266 81.0286 48.0266 80.7109C48.0266 80.5234 47.9719 80.3568 47.8625 80.2109C47.7583 80.0599 47.5604 79.9062 47.2687 79.75C46.9823 79.5885 46.5604 79.3958 46.0031 79.1719C45.4562 78.9531 44.9953 78.7344 44.6203 78.5156C44.2453 78.2969 43.9615 78.0339 43.7687 77.7266C43.576 77.4141 43.4797 77.0156 43.4797 76.5312C43.4797 75.7656 43.7818 75.1849 44.3859 74.7891C44.9953 74.388 45.8 74.1875 46.8 74.1875C47.3312 74.1875 47.8312 74.2422 48.3 74.3516C48.774 74.4557 49.2375 74.6094 49.6906 74.8125L49.1125 76.1953C48.7219 76.0234 48.3286 75.8828 47.9328 75.7734C47.5422 75.6589 47.1437 75.6016 46.7375 75.6016C46.2635 75.6016 45.9016 75.6745 45.6516 75.8203C45.4068 75.9661 45.2844 76.1745 45.2844 76.4453C45.2844 76.6484 45.3443 76.8203 45.4641 76.9609C45.5839 77.1016 45.7896 77.2422 46.0812 77.3828C46.3781 77.5234 46.7896 77.6979 47.3156 77.9062C47.8312 78.1042 48.2766 78.3125 48.6516 78.5312C49.0318 78.7448 49.3234 79.0078 49.5266 79.3203C49.7297 79.6328 49.8312 80.0365 49.8312 80.5312ZM59.4906 81.6719C59.7302 81.6719 59.9672 81.651 60.2016 81.6094C60.4359 81.5625 60.6495 81.5078 60.8422 81.4453V82.8359C60.6391 82.9245 60.376 83 60.0531 83.0625C59.7302 83.125 59.3943 83.1562 59.0453 83.1562C58.5557 83.1562 58.1156 83.0755 57.725 82.9141C57.3344 82.7474 57.0245 82.4635 56.7953 82.0625C56.5661 81.6615 56.4516 81.1068 56.4516 80.3984V75.75H55.2719V74.9297L56.5375 74.2812L57.1391 72.4297H58.2953V74.3516H60.7719V75.75H58.2953V80.375C58.2953 80.8125 58.4047 81.138 58.6234 81.3516C58.8422 81.5651 59.1312 81.6719 59.4906 81.6719ZM64.5859 70.8438V73.8984C64.5859 74.2161 64.5755 74.526 64.5547 74.8281C64.5391 75.1302 64.5208 75.3646 64.5 75.5312H64.6016C64.7839 75.2292 65.0078 74.9818 65.2734 74.7891C65.5391 74.5911 65.8359 74.4427 66.1641 74.3438C66.4974 74.2448 66.8516 74.1953 67.2266 74.1953C67.888 74.1953 68.4505 74.3073 68.9141 74.5312C69.3776 74.75 69.7318 75.0911 69.9766 75.5547C70.2266 76.0182 70.3516 76.6198 70.3516 77.3594V83H68.5156V77.7031C68.5156 77.0312 68.3776 76.5286 68.1016 76.1953C67.8255 75.8568 67.3984 75.6875 66.8203 75.6875C66.263 75.6875 65.8203 75.8047 65.4922 76.0391C65.1693 76.2682 64.9375 76.6094 64.7969 77.0625C64.6562 77.5104 64.5859 78.0573 64.5859 78.7031V83H62.75V70.8438H64.5859ZM74.9078 74.3516V83H73.0719V74.3516H74.9078ZM74.0016 71.0391C74.2828 71.0391 74.525 71.1146 74.7281 71.2656C74.9365 71.4167 75.0406 71.6771 75.0406 72.0469C75.0406 72.4115 74.9365 72.6719 74.7281 72.8281C74.525 72.9792 74.2828 73.0547 74.0016 73.0547C73.7099 73.0547 73.4625 72.9792 73.2594 72.8281C73.0615 72.6719 72.9625 72.4115 72.9625 72.0469C72.9625 71.6771 73.0615 71.4167 73.2594 71.2656C73.4625 71.1146 73.7099 71.0391 74.0016 71.0391ZM83.5031 80.5312C83.5031 81.099 83.3651 81.5781 83.0891 81.9688C82.813 82.3594 82.4094 82.6562 81.8781 82.8594C81.3521 83.0573 80.7062 83.1562 79.9406 83.1562C79.3365 83.1562 78.8156 83.112 78.3781 83.0234C77.9458 82.9401 77.537 82.8099 77.1516 82.6328V81.0469C77.563 81.2396 78.024 81.4062 78.5344 81.5469C79.05 81.6875 79.537 81.7578 79.9953 81.7578C80.5995 81.7578 81.0344 81.6641 81.3 81.4766C81.5656 81.2839 81.6984 81.0286 81.6984 80.7109C81.6984 80.5234 81.6437 80.3568 81.5344 80.2109C81.4302 80.0599 81.2323 79.9062 80.9406 79.75C80.6542 79.5885 80.2323 79.3958 79.675 79.1719C79.1281 78.9531 78.6672 78.7344 78.2922 78.5156C77.9172 78.2969 77.6333 78.0339 77.4406 77.7266C77.2479 77.4141 77.1516 77.0156 77.1516 76.5312C77.1516 75.7656 77.4536 75.1849 78.0578 74.7891C78.6672 74.388 79.4719 74.1875 80.4719 74.1875C81.0031 74.1875 81.5031 74.2422 81.9719 74.3516C82.4458 74.4557 82.9094 74.6094 83.3625 74.8125L82.7844 76.1953C82.3937 76.0234 82.0005 75.8828 81.6047 75.7734C81.2141 75.6589 80.8156 75.6016 80.4094 75.6016C79.9354 75.6016 79.5734 75.6745 79.3234 75.8203C79.0786 75.9661 78.9562 76.1745 78.9562 76.4453C78.9562 76.6484 79.0161 76.8203 79.1359 76.9609C79.2557 77.1016 79.4615 77.2422 79.7531 77.3828C80.05 77.5234 80.4615 77.6979 80.9875 77.9062C81.5031 78.1042 81.9484 78.3125 82.3234 78.5312C82.7036 78.7448 82.9953 79.0078 83.1984 79.3203C83.4016 79.6328 83.5031 80.0365 83.5031 80.5312ZM93.3344 74.1875C94.4281 74.1875 95.2536 74.4297 95.8109 74.9141C96.3734 75.3984 96.6547 76.1536 96.6547 77.1797V83H95.35L94.9984 81.7734H94.9359C94.6911 82.0859 94.4385 82.3438 94.1781 82.5469C93.9177 82.75 93.6156 82.901 93.2719 83C92.9333 83.1042 92.5193 83.1562 92.0297 83.1562C91.5141 83.1562 91.0531 83.0625 90.6469 82.875C90.2406 82.6823 89.9203 82.3906 89.6859 82C89.4516 81.6094 89.3344 81.1146 89.3344 80.5156C89.3344 79.625 89.6651 78.9557 90.3266 78.5078C90.9932 78.0599 91.9984 77.8125 93.3422 77.7656L94.8422 77.7109V77.2578C94.8422 76.6589 94.7016 76.2318 94.4203 75.9766C94.1443 75.7214 93.7536 75.5938 93.2484 75.5938C92.8161 75.5938 92.3969 75.6562 91.9906 75.7812C91.5844 75.9062 91.1885 76.0599 90.8031 76.2422L90.2094 74.9453C90.6312 74.7214 91.1104 74.5391 91.6469 74.3984C92.1885 74.2578 92.751 74.1875 93.3344 74.1875ZM94.8344 78.8672L93.7172 78.9062C92.8005 78.9375 92.1573 79.0938 91.7875 79.375C91.4177 79.6562 91.2328 80.0417 91.2328 80.5312C91.2328 80.9583 91.3604 81.2708 91.6156 81.4688C91.8708 81.6615 92.2068 81.7578 92.6234 81.7578C93.2589 81.7578 93.7849 81.5781 94.2016 81.2188C94.6234 80.8542 94.8344 80.3203 94.8344 79.6172V78.8672ZM103.758 74.1875C103.904 74.1875 104.062 74.1953 104.234 74.2109C104.406 74.2266 104.555 74.2474 104.68 74.2734L104.508 75.9922C104.398 75.9609 104.263 75.9375 104.102 75.9219C103.945 75.9062 103.805 75.8984 103.68 75.8984C103.352 75.8984 103.039 75.9531 102.742 76.0625C102.445 76.1667 102.182 76.3281 101.953 76.5469C101.724 76.7604 101.544 77.0286 101.414 77.3516C101.284 77.6745 101.219 78.0495 101.219 78.4766V83H99.375V74.3516H100.812L101.062 75.875H101.148C101.32 75.5677 101.534 75.2865 101.789 75.0312C102.044 74.776 102.336 74.5729 102.664 74.4219C102.997 74.2656 103.362 74.1875 103.758 74.1875ZM109.65 81.6719C109.89 81.6719 110.127 81.651 110.361 81.6094C110.595 81.5625 110.809 81.5078 111.002 81.4453V82.8359C110.798 82.9245 110.535 83 110.213 83.0625C109.89 83.125 109.554 83.1562 109.205 83.1562C108.715 83.1562 108.275 83.0755 107.884 82.9141C107.494 82.7474 107.184 82.4635 106.955 82.0625C106.726 81.6615 106.611 81.1068 106.611 80.3984V75.75H105.431V74.9297L106.697 74.2812L107.298 72.4297H108.455V74.3516H110.931V75.75H108.455V80.375C108.455 80.8125 108.564 81.138 108.783 81.3516C109.002 81.5651 109.291 81.6719 109.65 81.6719ZM114.745 74.3516V83H112.909V74.3516H114.745ZM113.839 71.0391C114.12 71.0391 114.363 71.1146 114.566 71.2656C114.774 71.4167 114.878 71.6771 114.878 72.0469C114.878 72.4115 114.774 72.6719 114.566 72.8281C114.363 72.9792 114.12 73.0547 113.839 73.0547C113.547 73.0547 113.3 72.9792 113.097 72.8281C112.899 72.6719 112.8 72.4115 112.8 72.0469C112.8 71.6771 112.899 71.4167 113.097 71.2656C113.3 71.1146 113.547 71.0391 113.839 71.0391ZM121.012 83.1562C120.195 83.1562 119.486 82.9974 118.887 82.6797C118.289 82.362 117.828 81.875 117.505 81.2188C117.182 80.5625 117.02 79.7292 117.02 78.7188C117.02 77.6667 117.197 76.8073 117.552 76.1406C117.906 75.474 118.395 74.9818 119.02 74.6641C119.651 74.3464 120.372 74.1875 121.184 74.1875C121.7 74.1875 122.166 74.2396 122.583 74.3438C123.005 74.4427 123.361 74.5651 123.653 74.7109L123.106 76.1797C122.789 76.0495 122.463 75.9401 122.13 75.8516C121.796 75.763 121.476 75.7188 121.169 75.7188C120.664 75.7188 120.242 75.8307 119.903 76.0547C119.57 76.2786 119.32 76.612 119.153 77.0547C118.992 77.4974 118.911 78.0469 118.911 78.7031C118.911 79.3385 118.994 79.875 119.161 80.3125C119.328 80.7448 119.575 81.0729 119.903 81.2969C120.231 81.5156 120.635 81.625 121.114 81.625C121.588 81.625 122.012 81.5677 122.387 81.4531C122.762 81.3385 123.117 81.1901 123.45 81.0078V82.6016C123.122 82.7891 122.77 82.9271 122.395 83.0156C122.02 83.1094 121.559 83.1562 121.012 83.1562ZM127.475 83H125.631V70.8438H127.475V83ZM133.695 74.1875C134.466 74.1875 135.128 74.3464 135.68 74.6641C136.232 74.9818 136.656 75.4323 136.953 76.0156C137.25 76.599 137.398 77.2969 137.398 78.1094V79.0938H131.625C131.646 79.9323 131.87 80.5781 132.297 81.0312C132.729 81.4844 133.333 81.7109 134.109 81.7109C134.661 81.7109 135.156 81.6589 135.594 81.5547C136.036 81.4453 136.492 81.2865 136.961 81.0781V82.5703C136.529 82.7734 136.089 82.9219 135.641 83.0156C135.193 83.1094 134.656 83.1562 134.031 83.1562C133.182 83.1562 132.435 82.9922 131.789 82.6641C131.148 82.3307 130.646 81.8359 130.281 81.1797C129.922 80.5234 129.742 79.7083 129.742 78.7344C129.742 77.7656 129.906 76.9427 130.234 76.2656C130.562 75.5885 131.023 75.0729 131.617 74.7188C132.211 74.3646 132.904 74.1875 133.695 74.1875ZM133.695 75.5703C133.117 75.5703 132.648 75.7578 132.289 76.1328C131.935 76.5078 131.727 77.0573 131.664 77.7812H135.602C135.596 77.349 135.523 76.9661 135.383 76.6328C135.247 76.2995 135.039 76.0391 134.758 75.8516C134.482 75.6641 134.128 75.5703 133.695 75.5703ZM145.761 70.8438V73.8984C145.761 74.2161 145.751 74.526 145.73 74.8281C145.714 75.1302 145.696 75.3646 145.675 75.5312H145.777C145.959 75.2292 146.183 74.9818 146.448 74.7891C146.714 74.5911 147.011 74.4427 147.339 74.3438C147.672 74.2448 148.027 74.1953 148.402 74.1953C149.063 74.1953 149.626 74.3073 150.089 74.5312C150.553 74.75 150.907 75.0911 151.152 75.5547C151.402 76.0182 151.527 76.6198 151.527 77.3594V83H149.691V77.7031C149.691 77.0312 149.553 76.5286 149.277 76.1953C149.001 75.8568 148.573 75.6875 147.995 75.6875C147.438 75.6875 146.995 75.8047 146.667 76.0391C146.344 76.2682 146.113 76.6094 145.972 77.0625C145.831 77.5104 145.761 78.0573 145.761 78.7031V83H143.925V70.8438H145.761ZM157.692 74.1875C158.463 74.1875 159.124 74.3464 159.677 74.6641C160.229 74.9818 160.653 75.4323 160.95 76.0156C161.247 76.599 161.395 77.2969 161.395 78.1094V79.0938H155.622C155.643 79.9323 155.867 80.5781 156.294 81.0312C156.726 81.4844 157.33 81.7109 158.106 81.7109C158.658 81.7109 159.153 81.6589 159.591 81.5547C160.033 81.4453 160.489 81.2865 160.958 81.0781V82.5703C160.526 82.7734 160.085 82.9219 159.637 83.0156C159.19 83.1094 158.653 83.1562 158.028 83.1562C157.179 83.1562 156.432 82.9922 155.786 82.6641C155.145 82.3307 154.643 81.8359 154.278 81.1797C153.919 80.5234 153.739 79.7083 153.739 78.7344C153.739 77.7656 153.903 76.9427 154.231 76.2656C154.559 75.5885 155.02 75.0729 155.614 74.7188C156.208 74.3646 156.901 74.1875 157.692 74.1875ZM157.692 75.5703C157.114 75.5703 156.645 75.7578 156.286 76.1328C155.932 76.5078 155.723 77.0573 155.661 77.7812H159.598C159.593 77.349 159.52 76.9661 159.38 76.6328C159.244 76.2995 159.036 76.0391 158.755 75.8516C158.479 75.6641 158.124 75.5703 157.692 75.5703ZM165.459 83H163.616V70.8438H165.459V83ZM172.672 74.1875C173.698 74.1875 174.521 74.5625 175.141 75.3125C175.766 76.0625 176.078 77.1771 176.078 78.6562C176.078 79.6354 175.932 80.4609 175.641 81.1328C175.354 81.7995 174.951 82.3047 174.43 82.6484C173.914 82.987 173.312 83.1562 172.625 83.1562C172.188 83.1562 171.807 83.099 171.484 82.9844C171.161 82.8698 170.885 82.7214 170.656 82.5391C170.427 82.3516 170.234 82.1484 170.078 81.9297H169.969C169.995 82.138 170.018 82.3698 170.039 82.625C170.065 82.875 170.078 83.1042 170.078 83.3125V86.8359H168.234V74.3516H169.734L169.992 75.5469H170.078C170.24 75.3021 170.435 75.0755 170.664 74.8672C170.898 74.6589 171.18 74.4948 171.508 74.375C171.841 74.25 172.229 74.1875 172.672 74.1875ZM172.18 75.6875C171.674 75.6875 171.268 75.7891 170.961 75.9922C170.659 76.1901 170.438 76.4896 170.297 76.8906C170.161 77.2917 170.089 77.7943 170.078 78.3984V78.6562C170.078 79.2969 170.143 79.8411 170.273 80.2891C170.409 80.7318 170.63 81.0703 170.938 81.3047C171.25 81.5339 171.672 81.6484 172.203 81.6484C172.651 81.6484 173.021 81.526 173.312 81.2812C173.609 81.0365 173.831 80.6875 173.977 80.2344C174.122 79.7812 174.195 79.2474 174.195 78.6328C174.195 77.7005 174.029 76.9766 173.695 76.4609C173.367 75.9453 172.862 75.6875 172.18 75.6875ZM182.673 75.75H180.572V83H178.736V75.75H177.322V74.8672L178.736 74.3281V73.7266C178.736 72.9922 178.851 72.4089 179.08 71.9766C179.314 71.5443 179.647 71.2344 180.08 71.0469C180.517 70.8542 181.038 70.7578 181.642 70.7578C182.038 70.7578 182.4 70.7917 182.728 70.8594C183.056 70.9219 183.332 70.9948 183.556 71.0781L183.08 72.4688C182.903 72.4115 182.705 72.3594 182.486 72.3125C182.267 72.2604 182.033 72.2344 181.783 72.2344C181.366 72.2344 181.059 72.3646 180.861 72.625C180.668 72.8854 180.572 73.2656 180.572 73.7656V74.3516H182.673V75.75ZM191.839 74.3516V83H190.394L190.144 81.8359H190.042C189.86 82.1328 189.628 82.3802 189.347 82.5781C189.066 82.7708 188.753 82.9141 188.409 83.0078C188.066 83.1068 187.704 83.1562 187.323 83.1562C186.672 83.1562 186.115 83.0469 185.652 82.8281C185.193 82.6042 184.842 82.2604 184.597 81.7969C184.352 81.3333 184.23 80.7344 184.23 80V74.3516H186.073V79.6562C186.073 80.3281 186.209 80.8307 186.48 81.1641C186.756 81.4974 187.183 81.6641 187.761 81.6641C188.318 81.6641 188.761 81.5495 189.089 81.3203C189.417 81.0911 189.649 80.7526 189.784 80.3047C189.925 79.8568 189.995 79.3073 189.995 78.6562V74.3516H191.839ZM196.466 83H194.622V70.8438H196.466V83ZM200.131 79.5156V79.0234C200.131 78.638 200.176 78.3021 200.264 78.0156C200.353 77.7292 200.501 77.4609 200.709 77.2109C200.918 76.9557 201.199 76.6901 201.553 76.4141C201.918 76.1276 202.207 75.8802 202.42 75.6719C202.639 75.4635 202.795 75.2552 202.889 75.0469C202.988 74.8333 203.038 74.5859 203.038 74.3047C203.038 73.862 202.886 73.526 202.584 73.2969C202.288 73.0625 201.868 72.9453 201.327 72.9453C200.847 72.9453 200.397 73.013 199.975 73.1484C199.553 73.2839 199.136 73.4531 198.725 73.6562L198.077 72.2812C198.551 72.0208 199.064 71.8125 199.616 71.6562C200.173 71.4948 200.785 71.4141 201.452 71.4141C202.514 71.4141 203.334 71.6719 203.913 72.1875C204.496 72.7031 204.788 73.3828 204.788 74.2266C204.788 74.6901 204.715 75.0885 204.569 75.4219C204.423 75.75 204.207 76.0547 203.92 76.3359C203.639 76.612 203.298 76.9036 202.897 77.2109C202.569 77.4714 202.316 77.6979 202.139 77.8906C201.967 78.0781 201.847 78.2682 201.78 78.4609C201.717 78.6536 201.686 78.8854 201.686 79.1562V79.5156H200.131ZM199.834 82.0312C199.834 81.6042 199.944 81.3047 200.163 81.1328C200.386 80.9557 200.66 80.8672 200.983 80.8672C201.295 80.8672 201.564 80.9557 201.788 81.1328C202.011 81.3047 202.123 81.6042 202.123 82.0312C202.123 82.4479 202.011 82.75 201.788 82.9375C201.564 83.1198 201.295 83.2109 200.983 83.2109C200.66 83.2109 200.386 83.1198 200.163 82.9375C199.944 82.75 199.834 82.4479 199.834 82.0312Z"/></g></g><path fill="#F1F1F6" d="M79.3333 126H78C77.2666 126 76.6666 126.6 76.6666 127.333V139.333C76.6666 140.067 77.2666 140.667 78 140.667H79.3333C80.0666 140.667 80.6666 140.067 80.6666 139.333V127.333C80.6666 126.6 80.0666 126 79.3333 126ZM103.267 128.747C103.267 127.267 102.067 126.067 100.587 126.067H93.88C93.5466 126.067 93.24 126.067 92.96 126.027C92.9466 126.027 92.92 126.027 92.9066 126.027C92.9066 126.027 92.9066 126.027 92.8933 126.027C92.2533 125.947 91.8 125.773 91.7333 125.413C92.1333 122.387 93.1733 118.347 89.5066 116.853C87.4266 116.027 86.9066 118.253 87.2 119.84C87.6533 122.733 85.0933 124.573 83.5066 126.6C83.3333 126.867 83.3466 127.573 83.3466 127.573V138C83.3466 139.48 84.56 140.68 86.04 140.68H97.32C98.8 140.68 99.4266 140.307 100.427 137.68C100.427 137.68 102.973 131.587 103.16 131.16C103.347 130.733 103.28 128.733 103.28 128.733L103.267 128.747Z"/><path fill="#F1F1F6" d="M143.333 134.027H142C141.267 134.027 140.667 133.427 140.667 132.693V120.693C140.667 119.96 141.267 119.36 142 119.36H143.333C144.067 119.36 144.667 119.96 144.667 120.693V132.693C144.667 133.427 144.067 134.027 143.333 134.027ZM167.267 131.28C167.267 132.76 166.067 133.96 164.587 133.96H157.88C157.547 133.96 157.24 133.96 156.96 134C156.947 134 156.92 134 156.907 134C156.907 134 156.907 134 156.893 134C156.253 134.08 155.8 134.253 155.733 134.613C156.133 137.64 157.173 141.68 153.507 143.173C151.427 144 150.907 141.773 151.2 140.187C151.653 137.293 149.093 135.453 147.507 133.427C147.333 133.16 147.347 132.453 147.347 132.453V122.027C147.347 120.547 148.56 119.347 150.04 119.347H161.32C162.8 119.347 163.427 119.72 164.427 122.347C164.427 122.347 166.973 128.44 167.16 128.867C167.347 129.293 167.28 131.293 167.28 131.293L167.267 131.28Z"/><defs><filter id="filter0_d_17612_48289" width="244" height="184" x="0" y="0" color-interpolation-filters="sRGB" filterUnits="userSpaceOnUse"><feFlood flood-opacity="0" result="BackgroundImageFix"/><feColorMatrix in="SourceAlpha" result="hardAlpha" type="matrix" values="0 0 0 0 0 0 0 0 0 0 0 0 0 0 0 0 0 0 127 0"/><feOffset/><feGaussianBlur stdDeviation="1"/><feColorMatrix type="matrix" values="0 0 0 0 0.211765 0 0 0 0 0.207843 0 0 0 0 0.270588 0 0 0 0.3 0"/><feBlend in2="BackgroundImageFix" mode="normal" result="effect1_dropShadow_17612_48289"/><feBlend in="SourceGraphic" in2="effect1_dropShadow_17612_48289" mode="normal" result="shape"/></filter><clipPath id="clip0_17612_48289"><rect width="240" height="180" x="2" y="2" fill="#fff" rx="2"/></clipPath></defs></svg>