<svg xmlns="http://www.w3.org/2000/svg" width="800" height="300" fill="none"><path fill="#fff" d="M0 0h800v300H0z"/><rect width="300" height="32" x="250" y="134" fill="#0063A3" rx="2"/><path fill="#fff" d="M348.278 155h-1.647v-8.6h-2.926v-1.394h7.492v1.394h-2.919v8.6Zm11.007-3.801c0 .629-.082 1.187-.246 1.675-.164.488-.404.9-.718 1.237-.315.333-.693.588-1.135.766-.442.173-.941.26-1.497.26-.52 0-.996-.087-1.429-.26-.433-.178-.809-.433-1.128-.766-.314-.337-.558-.749-.731-1.237-.173-.488-.26-1.046-.26-1.675 0-.834.144-1.54.431-2.119.291-.583.706-1.028 1.244-1.333.538-.305 1.178-.458 1.921-.458.697 0 1.312.153 1.846.458.533.305.95.75 1.25 1.333.301.583.452 1.29.452 2.119Zm-5.49 0c0 .552.066 1.023.199 1.415.136.392.346.693.629.903.282.205.647.307 1.093.307.447 0 .812-.102 1.094-.307.283-.21.49-.511.622-.903s.198-.863.198-1.415c0-.551-.066-1.018-.198-1.401-.132-.388-.339-.681-.622-.882-.282-.205-.649-.308-1.101-.308-.665 0-1.15.224-1.456.67-.305.447-.458 1.087-.458 1.921Zm14.056 0c0 .629-.082 1.187-.247 1.675-.164.488-.403.9-.717 1.237-.315.333-.693.588-1.135.766-.442.173-.941.26-1.497.26-.52 0-.996-.087-1.429-.26-.433-.178-.809-.433-1.128-.766-.314-.337-.558-.749-.731-1.237-.173-.488-.26-1.046-.26-1.675 0-.834.144-1.54.431-2.119.291-.583.706-1.028 1.244-1.333.538-.305 1.178-.458 1.921-.458.697 0 1.312.153 1.845.458.534.305.951.75 1.251 1.333.301.583.452 1.29.452 2.119Zm-5.49 0c0 .552.066 1.023.199 1.415.136.392.346.693.628.903.283.205.648.307 1.094.307.447 0 .811-.102 1.094-.307.283-.21.49-.511.622-.903s.198-.863.198-1.415c0-.551-.066-1.018-.198-1.401-.132-.388-.339-.681-.622-.882-.283-.205-.649-.308-1.101-.308-.665 0-1.15.224-1.456.67-.305.447-.458 1.087-.458 1.921Zm8.97 3.801h-1.614v-10.637h1.614V155Zm5.134-1.162c.209 0 .417-.018.622-.055.205-.041.392-.089.56-.143v1.216c-.177.078-.407.144-.69.199-.283.054-.576.082-.882.082-.428 0-.813-.071-1.155-.212-.342-.146-.613-.394-.814-.745-.2-.351-.3-.837-.3-1.456v-4.068h-1.033v-.718l1.108-.567.526-1.62h1.012v1.682h2.167v1.223h-2.167v4.047c0 .383.096.668.287.855.191.186.444.28.759.28Zm4.348-6.405V155h-1.606v-7.567h1.606Zm-.793-2.899c.246 0 .458.066.636.198.182.133.273.36.273.684 0 .319-.091.547-.273.684-.178.132-.39.198-.636.198-.255 0-.472-.066-.649-.198-.174-.137-.26-.365-.26-.684 0-.324.086-.551.26-.684.177-.132.394-.198.649-.198Zm7.001 2.755c.897 0 1.617.328 2.16.984.547.657.82 1.632.82 2.926 0 .857-.128 1.579-.383 2.167-.25.584-.604 1.026-1.059 1.326-.452.297-.978.445-1.579.445-.383 0-.716-.05-.999-.151-.282-.1-.524-.23-.724-.389-.201-.164-.369-.342-.506-.534h-.096c.023.183.044.386.062.609.023.219.034.419.034.601v3.083h-1.613v-10.923h1.312l.226 1.046h.075c.141-.215.312-.413.513-.595.205-.183.451-.326.738-.431.292-.109.631-.164 1.019-.164Zm-.431 1.313c-.442 0-.798.088-1.067.266-.264.173-.458.435-.581.786-.118.351-.182.791-.191 1.32v.225c0 .561.057 1.037.171 1.429.118.387.312.684.581.889.273.2.643.3 1.107.3.392 0 .716-.107.971-.321.26-.214.454-.519.581-.916.128-.396.192-.864.192-1.401 0-.816-.146-1.45-.438-1.901-.287-.451-.729-.676-1.326-.676Zm12.832-1.313c.898 0 1.618.328 2.16.984.547.657.82 1.632.82 2.926 0 .857-.127 1.579-.382 2.167-.251.584-.604 1.026-1.06 1.326-.451.297-.978.445-1.579.445-.383 0-.716-.05-.998-.151-.283-.1-.524-.23-.725-.389-.2-.164-.369-.342-.506-.534h-.095c.022.183.043.386.061.609.023.219.034.419.034.601v3.083h-1.613v-10.923h1.313l.225 1.046h.075c.142-.215.313-.413.513-.595.205-.183.451-.326.738-.431.292-.109.632-.164 1.019-.164Zm-.431 1.313c-.442 0-.797.088-1.066.266-.264.173-.458.435-.581.786-.119.351-.183.791-.192 1.32v.225c0 .561.057 1.037.171 1.429.119.387.312.684.581.889.274.2.643.3 1.108.3.392 0 .715-.107.97-.321.26-.214.454-.519.582-.916.127-.396.191-.864.191-1.401 0-.816-.146-1.45-.438-1.901-.287-.451-.729-.676-1.326-.676Zm11.991 2.597c0 .629-.082 1.187-.246 1.675-.164.488-.403.9-.718 1.237-.314.333-.693.588-1.135.766-.442.173-.941.26-1.497.26-.519 0-.996-.087-1.428-.26-.433-.178-.809-.433-1.128-.766-.315-.337-.559-.749-.732-1.237-.173-.488-.26-1.046-.26-1.675 0-.834.144-1.54.431-2.119.292-.583.706-1.028 1.244-1.333.538-.305 1.178-.458 1.921-.458.697 0 1.313.153 1.846.458.533.305.95.75 1.251 1.333.301.583.451 1.29.451 2.119Zm-5.489 0c0 .552.066 1.023.198 1.415.137.392.346.693.629.903.282.205.647.307 1.094.307.446 0 .811-.102 1.093-.307.283-.21.49-.511.622-.903.133-.392.199-.863.199-1.415 0-.551-.066-1.018-.199-1.401-.132-.388-.339-.681-.622-.882-.282-.205-.649-.308-1.1-.308-.666 0-1.151.224-1.456.67-.306.447-.458 1.087-.458 1.921Zm12.442 1.641c0 .497-.121.916-.363 1.258-.241.341-.594.601-1.059.779-.461.173-1.026.26-1.696.26-.528 0-.984-.039-1.367-.116-.378-.073-.736-.187-1.073-.342v-1.388c.36.169.763.314 1.21.438.451.123.877.184 1.278.184.529 0 .909-.082 1.142-.246.232-.169.349-.392.349-.67 0-.164-.048-.31-.144-.437-.091-.133-.264-.267-.52-.404-.25-.141-.619-.31-1.107-.506-.479-.191-.882-.382-1.21-.574-.328-.191-.576-.421-.745-.69-.169-.274-.253-.622-.253-1.046 0-.67.264-1.178.793-1.525.533-.35 1.237-.526 2.112-.526.465 0 .903.048 1.313.144.414.091.82.225 1.217.403l-.506 1.21c-.342-.15-.686-.274-1.033-.369-.341-.101-.69-.151-1.045-.151-.415 0-.732.064-.951.192-.214.127-.321.31-.321.547 0 .177.053.328.157.451.105.123.285.246.54.369.26.123.62.276 1.08.458.452.173.841.355 1.169.547.333.187.588.417.766.69.178.274.267.627.267 1.06Zm3.363-5.407V155h-1.606v-7.567h1.606Zm-.793-2.899c.247 0 .458.066.636.198.182.133.274.36.274.684 0 .319-.092.547-.274.684-.178.132-.389.198-.636.198-.255 0-.471-.066-.649-.198-.173-.137-.26-.365-.26-.684 0-.324.087-.551.26-.684.178-.132.394-.198.649-.198Zm5.934 9.304c.21 0 .417-.018.623-.055.205-.041.391-.089.56-.143v1.216c-.178.078-.408.144-.69.199-.283.054-.577.082-.882.082-.429 0-.814-.071-1.155-.212-.342-.146-.613-.394-.814-.745-.2-.351-.301-.837-.301-1.456v-4.068h-1.032v-.718l1.108-.567.526-1.62h1.012v1.682h2.167v1.223h-2.167v4.047c0 .383.095.668.287.855.191.186.444.28.758.28Zm4.349-6.405V155h-1.607v-7.567h1.607Zm-.793-2.899c.246 0 .458.066.635.198.183.133.274.36.274.684 0 .319-.091.547-.274.684-.177.132-.389.198-.635.198-.256 0-.472-.066-.65-.198-.173-.137-.259-.365-.259-.684 0-.324.086-.551.259-.684.178-.132.394-.198.65-.198Zm9.817 6.665c0 .629-.082 1.187-.247 1.675-.164.488-.403.9-.717 1.237-.315.333-.693.588-1.135.766-.442.173-.941.26-1.497.26-.52 0-.996-.087-1.429-.26-.433-.178-.809-.433-1.128-.766-.314-.337-.558-.749-.731-1.237-.173-.488-.26-1.046-.26-1.675 0-.834.144-1.54.431-2.119.291-.583.706-1.028 1.244-1.333.538-.305 1.178-.458 1.921-.458.697 0 1.312.153 1.845.458.534.305.951.75 1.251 1.333.301.583.452 1.29.452 2.119Zm-5.49 0c0 .552.066 1.023.199 1.415.136.392.346.693.628.903.283.205.648.307 1.094.307.447 0 .811-.102 1.094-.307.283-.21.49-.511.622-.903s.198-.863.198-1.415c0-.551-.066-1.018-.198-1.401-.132-.388-.339-.681-.622-.882-.283-.205-.649-.308-1.101-.308-.665 0-1.15.224-1.456.67-.305.447-.458 1.087-.458 1.921Zm11.301-3.91c.852 0 1.515.221 1.989.663.478.438.718 1.142.718 2.112V155h-1.607v-4.635c0-.588-.121-1.027-.362-1.319-.242-.296-.615-.444-1.121-.444-.734 0-1.244.225-1.531.676-.283.451-.424 1.105-.424 1.962V155h-1.607v-7.567h1.251l.226 1.025h.089c.164-.264.367-.481.608-.649.246-.174.52-.303.82-.39.306-.087.622-.13.951-.13Zm10.063 5.551c0 .497-.121.916-.363 1.258-.241.341-.594.601-1.059.779-.461.173-1.026.26-1.696.26-.528 0-.984-.039-1.367-.116-.378-.073-.736-.187-1.073-.342v-1.388c.36.169.763.314 1.21.438.451.123.877.184 1.278.184.529 0 .909-.082 1.142-.246.232-.169.349-.392.349-.67 0-.164-.048-.31-.144-.437-.091-.133-.264-.267-.52-.404-.25-.141-.619-.31-1.107-.506-.479-.191-.882-.382-1.21-.574-.328-.191-.576-.421-.745-.69-.169-.274-.253-.622-.253-1.046 0-.67.264-1.178.793-1.525.533-.35 1.237-.526 2.112-.526.465 0 .903.048 1.313.144.414.091.82.225 1.217.403l-.506 1.21c-.342-.15-.686-.274-1.033-.369-.341-.101-.69-.151-1.045-.151-.415 0-.732.064-.951.192-.214.127-.321.31-.321.547 0 .177.053.328.157.451.105.123.285.246.54.369.26.123.62.276 1.08.458.452.173.841.355 1.169.547.333.187.588.417.766.69.178.274.267.627.267 1.06Z"/><g clip-path="url(#a)" opacity=".95"><path fill="#585C65" d="M524 188h-8l4-4 4 4Z"/><rect width="143" height="29" x="500" y="188" fill="#585C65" rx="4"/><path fill="#fff" d="M512.45 208h-1.162v-8.962h-3.165v-1.032h7.492v1.032h-3.165V208Zm10.993-3.753c0 1.221-.308 2.176-.923 2.864-.615.684-1.465 1.026-2.55 1.026-.67 0-1.264-.158-1.784-.472-.519-.314-.921-.766-1.203-1.353-.283-.588-.424-1.277-.424-2.065 0-1.221.305-2.171.916-2.851.611-.683 1.458-1.025 2.543-1.025 1.048 0 1.88.349 2.495 1.046.62.697.93 1.641.93 2.83Zm-5.708 0c0 .957.191 1.686.574 2.188.383.501.946.752 1.689.752.742 0 1.305-.249 1.688-.746.387-.501.581-1.232.581-2.194 0-.952-.194-1.675-.581-2.167-.383-.497-.95-.745-1.702-.745-.743 0-1.303.244-1.682.731-.378.488-.567 1.215-.567 2.181Zm14.192 0c0 1.221-.308 2.176-.923 2.864-.615.684-1.465 1.026-2.55 1.026-.67 0-1.265-.158-1.784-.472-.52-.314-.921-.766-1.203-1.353-.283-.588-.424-1.277-.424-2.065 0-1.221.305-2.171.916-2.851.611-.683 1.458-1.025 2.543-1.025 1.048 0 1.88.349 2.495 1.046.62.697.93 1.641.93 2.83Zm-5.708 0c0 .957.191 1.686.574 2.188.383.501.946.752 1.688.752.743 0 1.306-.249 1.689-.746.387-.501.581-1.232.581-2.194 0-.952-.194-1.675-.581-2.167-.383-.497-.95-.745-1.702-.745-.743 0-1.304.244-1.682.731-.378.488-.567 1.215-.567 2.181Zm8.86 3.753h-1.135v-10.637h1.135V208Zm4.847-.8c.2 0 .394-.013.581-.041.187-.032.335-.064.444-.096v.869c-.123.059-.305.107-.547.143-.237.041-.451.062-.642.062-1.449 0-2.174-.764-2.174-2.29v-4.457h-1.073v-.547l1.073-.472.478-1.6h.657v1.737h2.173v.882h-2.173v4.409c0 .451.107.797.321 1.039.214.241.508.362.882.362Zm3.685.8h-1.135v-7.492h1.135V208Zm-1.231-9.522c0-.26.064-.449.192-.568.127-.123.287-.184.478-.184.183 0 .34.061.472.184.132.123.198.312.198.568 0 .255-.066.446-.198.574-.132.123-.289.184-.472.184-.191 0-.351-.061-.478-.184-.128-.128-.192-.319-.192-.574Zm7.144 9.659c-.487 0-.934-.089-1.339-.267-.401-.182-.739-.46-1.012-.834h-.082c.055.438.082.852.082 1.244v3.083h-1.135v-10.855h.923l.157 1.025h.055c.292-.41.631-.706 1.018-.888.388-.183.832-.274 1.333-.274.994 0 1.76.34 2.297 1.019.543.679.814 1.631.814 2.857 0 1.231-.276 2.188-.827 2.871-.547.679-1.308 1.019-2.284 1.019Zm-.164-6.802c-.765 0-1.319.212-1.661.636-.342.424-.517 1.098-.526 2.023v.253c0 1.053.175 1.807.526 2.263.351.451.914.677 1.689.677.647 0 1.153-.263 1.517-.787.369-.524.554-1.246.554-2.167 0-.934-.185-1.649-.554-2.146-.364-.501-.879-.752-1.545-.752Zm12.429 6.802c-.488 0-.934-.089-1.34-.267-.401-.182-.738-.46-1.011-.834h-.083c.055.438.083.852.083 1.244v3.083h-1.135v-10.855h.923l.157 1.025h.055c.291-.41.631-.706 1.018-.888.387-.183.832-.274 1.333-.274.994 0 1.759.34 2.297 1.019.542.679.813 1.631.813 2.857 0 1.231-.275 2.188-.827 2.871-.547.679-1.308 1.019-2.283 1.019Zm-.164-6.802c-.766 0-1.319.212-1.661.636-.342.424-.517 1.098-.526 2.023v.253c0 1.053.175 1.807.526 2.263.351.451.914.677 1.688.677.648 0 1.153-.263 1.518-.787.369-.524.554-1.246.554-2.167 0-.934-.185-1.649-.554-2.146-.365-.501-.88-.752-1.545-.752Zm6.419 6.665h-1.134v-10.637h1.134V208Zm7.035 0-.225-1.066h-.055c-.374.469-.748.788-1.121.957-.369.164-.832.246-1.388.246-.743 0-1.326-.192-1.75-.575-.419-.382-.629-.927-.629-1.633 0-1.513 1.21-2.306 3.63-2.379l1.272-.041v-.465c0-.588-.128-1.021-.383-1.299-.251-.282-.654-.424-1.21-.424-.625 0-1.331.192-2.119.575l-.349-.869c.369-.2.772-.357 1.21-.471.442-.114.884-.171 1.326-.171.893 0 1.554.198 1.983.594.432.397.649 1.033.649 1.908V208h-.841Zm-2.563-.8c.706 0 1.26-.193 1.661-.581.405-.387.608-.93.608-1.627v-.677l-1.135.048c-.902.032-1.554.173-1.955.424-.396.246-.594.631-.594 1.155 0 .411.123.723.369.937.25.214.599.321 1.046.321Zm8.764.937c-1.085 0-1.926-.333-2.523-.998-.592-.67-.888-1.616-.888-2.837 0-1.253.3-2.222.902-2.906.606-.683 1.467-1.025 2.584-1.025.36 0 .72.039 1.08.116.36.078.643.169.848.274l-.349.964c-.251-.101-.524-.183-.82-.246-.296-.069-.558-.103-.786-.103-1.522 0-2.284.971-2.284 2.912 0 .921.185 1.627.554 2.119.374.492.925.739 1.654.739.625 0 1.265-.135 1.921-.404v1.005c-.501.26-1.132.39-1.893.39Zm6.864 0c-1.108 0-1.983-.338-2.625-1.012-.638-.674-.957-1.611-.957-2.81 0-1.207.296-2.167.888-2.877.597-.711 1.397-1.067 2.4-1.067.938 0 1.681.31 2.228.93.547.615.82 1.428.82 2.44v.718h-5.161c.023.88.244 1.547.663 2.003.424.456 1.019.684 1.785.684.806 0 1.604-.169 2.392-.506v1.011c-.401.174-.781.297-1.141.37-.356.077-.787.116-1.292.116Zm-.308-6.816c-.602 0-1.082.196-1.442.588-.356.392-.566.934-.629 1.627h3.917c0-.715-.16-1.262-.479-1.64-.319-.383-.775-.575-1.367-.575ZM597.988 208v-4.847c0-.61-.139-1.066-.417-1.367-.278-.301-.713-.451-1.306-.451-.788 0-1.365.214-1.729.643-.36.428-.54 1.13-.54 2.105V208h-1.135v-10.637h1.135v3.22c0 .387-.019.709-.055.964h.068c.224-.36.54-.643.951-.848.414-.209.886-.314 1.415-.314.916 0 1.601.219 2.057.656.46.433.691 1.123.691 2.071V208h-1.135Zm9.96-3.753c0 1.221-.307 2.176-.923 2.864-.615.684-1.465 1.026-2.549 1.026-.67 0-1.265-.158-1.785-.472-.519-.314-.92-.766-1.203-1.353-.282-.588-.423-1.277-.423-2.065 0-1.221.305-2.171.916-2.851.61-.683 1.458-1.025 2.542-1.025 1.049 0 1.88.349 2.496 1.046.619.697.929 1.641.929 2.83Zm-5.708 0c0 .957.192 1.686.575 2.188.382.501.945.752 1.688.752s1.306-.249 1.688-.746c.388-.501.582-1.232.582-2.194 0-.952-.194-1.675-.582-2.167-.382-.497-.95-.745-1.702-.745-.743 0-1.303.244-1.681.731-.379.488-.568 1.215-.568 2.181ZM611.1 208h-1.135v-10.637h1.135V208Zm7.527-1.005h-.062c-.524.761-1.307 1.142-2.351 1.142-.98 0-1.743-.335-2.29-1.005-.542-.67-.814-1.623-.814-2.858s.274-2.194.821-2.878c.547-.683 1.308-1.025 2.283-1.025 1.016 0 1.796.369 2.338 1.108h.089l-.048-.541-.028-.526v-3.049h1.135V208h-.923l-.15-1.005Zm-2.27.192c.775 0 1.336-.21 1.682-.629.351-.424.526-1.106.526-2.044v-.24c0-1.061-.177-1.818-.533-2.269-.351-.456-.913-.684-1.688-.684-.666 0-1.176.26-1.531.78-.351.515-.527 1.244-.527 2.187 0 .957.176 1.679.527 2.167.35.488.865.732 1.544.732Zm8.942.95c-1.107 0-1.982-.338-2.625-1.012-.638-.674-.957-1.611-.957-2.81 0-1.207.297-2.167.889-2.877.597-.711 1.397-1.067 2.399-1.067.939 0 1.682.31 2.229.93.547.615.82 1.428.82 2.44v.718h-5.161c.023.88.244 1.547.663 2.003.424.456 1.019.684 1.784.684.807 0 1.605-.169 2.393-.506v1.011c-.401.174-.782.297-1.142.37-.355.077-.786.116-1.292.116Zm-.307-6.816c-.602 0-1.083.196-1.443.588-.355.392-.565.934-.629 1.627h3.917c0-.715-.159-1.262-.478-1.64-.319-.383-.775-.575-1.367-.575Zm8.443-.95c.332 0 .631.027.895.082l-.157 1.053c-.31-.068-.583-.103-.82-.103-.607 0-1.126.246-1.559.739-.428.492-.643 1.105-.643 1.838V208h-1.134v-7.492h.936l.13 1.388h.055c.278-.488.613-.864 1.005-1.128.392-.265.822-.397 1.292-.397Z"/></g><g clip-path="url(#b)" opacity=".95"><path fill="#585C65" d="M306 188h-8l4-4 4 4Z"/><rect width="143" height="29" x="179" y="188" fill="#585C65" rx="4"/><path fill="#fff" d="M191.45 208h-1.162v-8.962h-3.165v-1.032h7.492v1.032h-3.165V208Zm10.993-3.753c0 1.221-.308 2.176-.923 2.864-.615.684-1.465 1.026-2.55 1.026-.67 0-1.264-.158-1.784-.472-.519-.314-.921-.766-1.203-1.353-.283-.588-.424-1.277-.424-2.065 0-1.221.305-2.171.916-2.851.611-.683 1.458-1.025 2.543-1.025 1.048 0 1.88.349 2.495 1.046.62.697.93 1.641.93 2.83Zm-5.708 0c0 .957.191 1.686.574 2.188.383.501.946.752 1.689.752.742 0 1.305-.249 1.688-.746.387-.501.581-1.232.581-2.194 0-.952-.194-1.675-.581-2.167-.383-.497-.95-.745-1.702-.745-.743 0-1.303.244-1.682.731-.378.488-.567 1.215-.567 2.181Zm14.192 0c0 1.221-.308 2.176-.923 2.864-.615.684-1.465 1.026-2.55 1.026-.67 0-1.265-.158-1.784-.472-.52-.314-.921-.766-1.203-1.353-.283-.588-.424-1.277-.424-2.065 0-1.221.305-2.171.916-2.851.611-.683 1.458-1.025 2.543-1.025 1.048 0 1.88.349 2.495 1.046.62.697.93 1.641.93 2.83Zm-5.708 0c0 .957.191 1.686.574 2.188.383.501.946.752 1.688.752.743 0 1.306-.249 1.689-.746.387-.501.581-1.232.581-2.194 0-.952-.194-1.675-.581-2.167-.383-.497-.95-.745-1.702-.745-.743 0-1.304.244-1.682.731-.378.488-.567 1.215-.567 2.181Zm8.86 3.753h-1.135v-10.637h1.135V208Zm4.847-.8c.2 0 .394-.013.581-.041.187-.032.335-.064.444-.096v.869c-.123.059-.305.107-.547.143-.237.041-.451.062-.642.062-1.449 0-2.174-.764-2.174-2.29v-4.457h-1.073v-.547l1.073-.472.478-1.6h.657v1.737h2.173v.882h-2.173v4.409c0 .451.107.797.321 1.039.214.241.508.362.882.362Zm3.685.8h-1.135v-7.492h1.135V208Zm-1.231-9.522c0-.26.064-.449.192-.568.127-.123.287-.184.478-.184.183 0 .34.061.472.184.132.123.198.312.198.568 0 .255-.066.446-.198.574-.132.123-.289.184-.472.184-.191 0-.351-.061-.478-.184-.128-.128-.192-.319-.192-.574Zm7.144 9.659c-.487 0-.934-.089-1.339-.267-.401-.182-.739-.46-1.012-.834h-.082c.055.438.082.852.082 1.244v3.083h-1.135v-10.855h.923l.157 1.025h.055c.292-.41.631-.706 1.018-.888.388-.183.832-.274 1.333-.274.994 0 1.76.34 2.297 1.019.543.679.814 1.631.814 2.857 0 1.231-.276 2.188-.827 2.871-.547.679-1.308 1.019-2.284 1.019Zm-.164-6.802c-.765 0-1.319.212-1.661.636-.342.424-.517 1.098-.526 2.023v.253c0 1.053.175 1.807.526 2.263.351.451.914.677 1.689.677.647 0 1.153-.263 1.517-.787.369-.524.554-1.246.554-2.167 0-.934-.185-1.649-.554-2.146-.364-.501-.879-.752-1.545-.752Zm12.429 6.802c-.488 0-.934-.089-1.34-.267-.401-.182-.738-.46-1.011-.834h-.083c.055.438.083.852.083 1.244v3.083h-1.135v-10.855h.923l.157 1.025h.055c.291-.41.631-.706 1.018-.888.387-.183.832-.274 1.333-.274.994 0 1.759.34 2.297 1.019.542.679.813 1.631.813 2.857 0 1.231-.275 2.188-.827 2.871-.547.679-1.308 1.019-2.283 1.019Zm-.164-6.802c-.766 0-1.319.212-1.661.636-.342.424-.517 1.098-.526 2.023v.253c0 1.053.175 1.807.526 2.263.351.451.914.677 1.688.677.648 0 1.153-.263 1.518-.787.369-.524.554-1.246.554-2.167 0-.934-.185-1.649-.554-2.146-.365-.501-.88-.752-1.545-.752Zm6.419 6.665h-1.134v-10.637h1.134V208Zm7.035 0-.225-1.066h-.055c-.374.469-.748.788-1.121.957-.369.164-.832.246-1.388.246-.743 0-1.326-.192-1.75-.575-.419-.382-.629-.927-.629-1.633 0-1.513 1.21-2.306 3.63-2.379l1.272-.041v-.465c0-.588-.128-1.021-.383-1.299-.251-.282-.654-.424-1.21-.424-.625 0-1.331.192-2.119.575l-.349-.869c.369-.2.772-.357 1.21-.471.442-.114.884-.171 1.326-.171.893 0 1.554.198 1.983.594.432.397.649 1.033.649 1.908V208h-.841Zm-2.563-.8c.706 0 1.26-.193 1.661-.581.405-.387.608-.93.608-1.627v-.677l-1.135.048c-.902.032-1.554.173-1.955.424-.396.246-.594.631-.594 1.155 0 .411.123.723.369.937.25.214.599.321 1.046.321Zm8.764.937c-1.085 0-1.926-.333-2.523-.998-.592-.67-.888-1.616-.888-2.837 0-1.253.3-2.222.902-2.906.606-.683 1.467-1.025 2.584-1.025.36 0 .72.039 1.08.116.36.078.643.169.848.274l-.349.964c-.251-.101-.524-.183-.82-.246-.296-.069-.558-.103-.786-.103-1.522 0-2.284.971-2.284 2.912 0 .921.185 1.627.554 2.119.374.492.925.739 1.654.739.625 0 1.265-.135 1.921-.404v1.005c-.501.26-1.132.39-1.893.39Zm6.864 0c-1.108 0-1.983-.338-2.625-1.012-.638-.674-.957-1.611-.957-2.81 0-1.207.296-2.167.888-2.877.597-.711 1.397-1.067 2.4-1.067.938 0 1.681.31 2.228.93.547.615.82 1.428.82 2.44v.718h-5.161c.023.88.244 1.547.663 2.003.424.456 1.019.684 1.785.684.806 0 1.604-.169 2.392-.506v1.011c-.401.174-.781.297-1.141.37-.356.077-.787.116-1.292.116Zm-.308-6.816c-.602 0-1.082.196-1.442.588-.356.392-.566.934-.629 1.627h3.917c0-.715-.16-1.262-.479-1.64-.319-.383-.775-.575-1.367-.575ZM276.988 208v-4.847c0-.61-.139-1.066-.417-1.367-.278-.301-.713-.451-1.306-.451-.788 0-1.365.214-1.729.643-.36.428-.54 1.13-.54 2.105V208h-1.135v-10.637h1.135v3.22c0 .387-.019.709-.055.964h.068c.224-.36.54-.643.951-.848.414-.209.886-.314 1.415-.314.916 0 1.601.219 2.057.656.46.433.691 1.123.691 2.071V208h-1.135Zm9.96-3.753c0 1.221-.307 2.176-.923 2.864-.615.684-1.465 1.026-2.549 1.026-.67 0-1.265-.158-1.785-.472-.519-.314-.92-.766-1.203-1.353-.282-.588-.423-1.277-.423-2.065 0-1.221.305-2.171.916-2.851.61-.683 1.458-1.025 2.542-1.025 1.049 0 1.88.349 2.496 1.046.619.697.929 1.641.929 2.83Zm-5.708 0c0 .957.192 1.686.575 2.188.382.501.945.752 1.688.752s1.306-.249 1.688-.746c.388-.501.582-1.232.582-2.194 0-.952-.194-1.675-.582-2.167-.382-.497-.95-.745-1.702-.745-.743 0-1.303.244-1.681.731-.379.488-.568 1.215-.568 2.181ZM290.1 208h-1.135v-10.637h1.135V208Zm7.527-1.005h-.062c-.524.761-1.307 1.142-2.351 1.142-.98 0-1.743-.335-2.29-1.005-.542-.67-.814-1.623-.814-2.858s.274-2.194.821-2.878c.547-.683 1.308-1.025 2.283-1.025 1.016 0 1.796.369 2.338 1.108h.089l-.048-.541-.028-.526v-3.049h1.135V208h-.923l-.15-1.005Zm-2.27.192c.775 0 1.336-.21 1.682-.629.351-.424.526-1.106.526-2.044v-.24c0-1.061-.177-1.818-.533-2.269-.351-.456-.913-.684-1.688-.684-.666 0-1.176.26-1.531.78-.351.515-.527 1.244-.527 2.187 0 .957.176 1.679.527 2.167.35.488.865.732 1.544.732Zm8.942.95c-1.107 0-1.982-.338-2.625-1.012-.638-.674-.957-1.611-.957-2.81 0-1.207.297-2.167.889-2.877.597-.711 1.397-1.067 2.399-1.067.939 0 1.682.31 2.229.93.547.615.82 1.428.82 2.44v.718h-5.161c.023.88.244 1.547.663 2.003.424.456 1.019.684 1.784.684.807 0 1.605-.169 2.393-.506v1.011c-.401.174-.782.297-1.142.37-.355.077-.786.116-1.292.116Zm-.307-6.816c-.602 0-1.083.196-1.443.588-.355.392-.565.934-.629 1.627h3.917c0-.715-.159-1.262-.478-1.64-.319-.383-.775-.575-1.367-.575Zm8.443-.95c.332 0 .631.027.895.082l-.157 1.053c-.31-.068-.583-.103-.82-.103-.607 0-1.126.246-1.559.739-.428.492-.643 1.105-.643 1.838V208h-1.134v-7.492h.936l.13 1.388h.055c.278-.488.613-.864 1.005-1.128.392-.265.822-.397 1.292-.397Z"/></g><path fill="#585C65" d="M516 111h8l-4 4-4-4Z"/><g clip-path="url(#c)" opacity=".95"><rect width="143" height="29" x="500" y="82" fill="#585C65" rx="4"/><path fill="#fff" d="M512.45 102h-1.162v-8.9619h-3.165v-1.0322h7.492v1.0322h-3.165V102Zm10.993-3.7529c0 1.2213-.308 2.1759-.923 2.8639-.615.684-1.465 1.026-2.55 1.026-.67 0-1.264-.158-1.784-.472-.519-.314-.921-.766-1.203-1.353-.283-.5884-.424-1.2765-.424-2.0649 0-1.2214.305-2.1716.916-2.8506.611-.6836 1.458-1.0254 2.543-1.0254 1.048 0 1.88.3486 2.495 1.0459.62.6973.93 1.6406.93 2.8301Zm-5.708 0c0 .957.191 1.6862.574 2.1879.383.501.946.752 1.689.752.742 0 1.305-.249 1.688-.746.387-.5009.581-1.2323.581-2.1939 0-.9525-.194-1.6748-.581-2.167-.383-.4968-.95-.7451-1.702-.7451-.743 0-1.303.2438-1.682.7314-.378.4876-.567 1.2145-.567 2.1807Zm14.192 0c0 1.2213-.308 2.1759-.923 2.8639-.615.684-1.465 1.026-2.55 1.026-.67 0-1.265-.158-1.784-.472-.52-.314-.921-.766-1.203-1.353-.283-.5884-.424-1.2765-.424-2.0649 0-1.2214.305-2.1716.916-2.8506.611-.6836 1.458-1.0254 2.543-1.0254 1.048 0 1.88.3486 2.495 1.0459.62.6973.93 1.6406.93 2.8301Zm-5.708 0c0 .957.191 1.6862.574 2.1879.383.501.946.752 1.688.752.743 0 1.306-.249 1.689-.746.387-.5009.581-1.2323.581-2.1939 0-.9525-.194-1.6748-.581-2.167-.383-.4968-.95-.7451-1.702-.7451-.743 0-1.304.2438-1.682.7314-.378.4876-.567 1.2145-.567 2.1807Zm8.86 3.7529h-1.135V91.3633h1.135V102Zm4.847-.8c.2 0 .394-.013.581-.041.187-.032.335-.064.444-.096v.869c-.123.059-.305.107-.547.143-.237.041-.451.062-.642.062-1.449 0-2.174-.764-2.174-2.2903v-4.4571h-1.073v-.5468l1.073-.4717.478-1.5996h.657v1.7363h2.173v.8818h-2.173v4.4092c0 .4512.107.7972.321 1.0392.214.241.508.362.882.362Zm3.685.8h-1.135v-7.4922h1.135V102Zm-1.231-9.5225c0-.2597.064-.4489.192-.5673.127-.1231.287-.1846.478-.1846.183 0 .34.0615.472.1846.132.123.198.3121.198.5673 0 .2552-.066.4467-.198.5743-.132.123-.289.1845-.472.1845-.191 0-.351-.0615-.478-.1845-.128-.1276-.192-.3191-.192-.5743Zm7.144 9.6595c-.487 0-.934-.089-1.339-.267-.401-.182-.739-.46-1.012-.834h-.082c.055.438.082.852.082 1.244v3.083h-1.135V94.5078h.923l.157 1.0254h.055c.292-.4102.631-.7064 1.018-.8887.388-.1823.832-.2734 1.333-.2734.994 0 1.76.3395 2.297 1.0185.543.6791.814 1.6316.814 2.8575 0 1.2304-.276 2.1879-.827 2.8709-.547.679-1.308 1.019-2.284 1.019Zm-.164-6.802c-.765 0-1.319.2119-1.661.6357-.342.4238-.517 1.0983-.526 2.0234v.253c0 1.0527.175 1.8069.526 2.2629.351.451.914.677 1.689.677.647 0 1.153-.263 1.517-.787.369-.5237.554-1.246.554-2.1666 0-.9342-.185-1.6497-.554-2.1465-.364-.5013-.879-.7519-1.545-.7519Zm12.429 6.802c-.488 0-.934-.089-1.34-.267-.401-.182-.738-.46-1.011-.834h-.083c.055.438.083.852.083 1.244v3.083h-1.135V94.5078h.923l.157 1.0254h.055c.291-.4102.631-.7064 1.018-.8887.387-.1823.832-.2734 1.333-.2734.994 0 1.759.3395 2.297 1.0185.542.6791.813 1.6316.813 2.8575 0 1.2304-.275 2.1879-.827 2.8709-.547.679-1.308 1.019-2.283 1.019Zm-.164-6.802c-.766 0-1.319.2119-1.661.6357-.342.4238-.517 1.0983-.526 2.0234v.253c0 1.0527.175 1.8069.526 2.2629.351.451.914.677 1.688.677.648 0 1.153-.263 1.518-.787.369-.5237.554-1.246.554-2.1666 0-.9342-.185-1.6497-.554-2.1465-.365-.5013-.88-.7519-1.545-.7519Zm6.419 6.665h-1.134V91.3633h1.134V102Zm7.035 0-.225-1.066h-.055c-.374.469-.748.788-1.121.957-.369.164-.832.246-1.388.246-.743 0-1.326-.192-1.75-.575-.419-.382-.629-.927-.629-1.6333 0-1.513 1.21-2.306 3.63-2.3789l1.272-.041v-.4649c0-.5878-.128-1.0208-.383-1.2988-.251-.2825-.654-.4238-1.21-.4238-.625 0-1.331.1914-2.119.5742l-.349-.8682c.369-.2005.772-.3577 1.21-.4716.442-.114.884-.1709 1.326-.1709.893 0 1.554.1982 1.983.5947.432.3965.649 1.0322.649 1.9072V102h-.841Zm-2.563-.8c.706 0 1.26-.193 1.661-.581.405-.387.608-.9295.608-1.6268v-.6768l-1.135.0479c-.902.0319-1.554.1732-1.955.4238-.396.2461-.594.6312-.594 1.1553 0 .4106.123.7226.369.9366.25.214.599.321 1.046.321Zm8.764.937c-1.085 0-1.926-.333-2.523-.998-.592-.67-.888-1.6159-.888-2.8372 0-1.2533.3-2.2217.902-2.9053.606-.6836 1.467-1.0254 2.584-1.0254.36 0 .72.0387 1.08.1162.36.0775.643.1686.848.2734l-.349.9639c-.251-.1003-.524-.1823-.82-.2461-.296-.0683-.558-.1025-.786-.1025-1.522 0-2.284.9707-2.284 2.9121 0 .9206.185 1.6269.554 2.1189.374.492.925.739 1.654.739.625 0 1.265-.135 1.921-.404v1.005c-.501.26-1.132.39-1.893.39Zm6.864 0c-1.108 0-1.983-.338-2.625-1.012-.638-.674-.957-1.611-.957-2.8096 0-1.2077.296-2.167.888-2.8779.597-.7109 1.397-1.0664 2.4-1.0664.938 0 1.681.3099 2.228.9297.547.6152.82 1.4287.82 2.4404v.7178h-5.161c.023.8795.244 1.547.663 2.003.424.456 1.019.684 1.785.684.806 0 1.604-.169 2.392-.506v1.011c-.401.174-.781.297-1.141.37-.356.077-.787.116-1.292.116Zm-.308-6.8157c-.602 0-1.082.196-1.442.5879-.356.3919-.566.9342-.629 1.6269h3.917c0-.7155-.16-1.2623-.479-1.6406-.319-.3828-.775-.5742-1.367-.5742ZM597.988 102v-4.8467c0-.6107-.139-1.0664-.417-1.3672-.278-.3007-.713-.4511-1.306-.4511-.788 0-1.365.2142-1.729.6425-.36.4284-.54 1.1302-.54 2.1055V102h-1.135V91.3633h1.135v3.2197c0 .3874-.019.7087-.055.9639h.068c.224-.3601.54-.6426.951-.8477.414-.2096.886-.3144 1.415-.3144.916 0 1.601.2187 2.057.6562.46.433.691 1.1234.691 2.0713V102h-1.135Zm9.96-3.7529c0 1.2213-.307 2.1759-.923 2.8639-.615.684-1.465 1.026-2.549 1.026-.67 0-1.265-.158-1.785-.472-.519-.314-.92-.766-1.203-1.353-.282-.5884-.423-1.2765-.423-2.0649 0-1.2214.305-2.1716.916-2.8506.61-.6836 1.458-1.0254 2.542-1.0254 1.049 0 1.88.3486 2.496 1.0459.619.6973.929 1.6406.929 2.8301Zm-5.708 0c0 .957.192 1.6862.575 2.1879.382.501.945.752 1.688.752s1.306-.249 1.688-.746c.388-.5009.582-1.2323.582-2.1939 0-.9525-.194-1.6748-.582-2.167-.382-.4968-.95-.7451-1.702-.7451-.743 0-1.303.2438-1.681.7314-.379.4876-.568 1.2145-.568 2.1807ZM611.1 102h-1.135V91.3633h1.135V102Zm7.527-1.005h-.062c-.524.761-1.307 1.142-2.351 1.142-.98 0-1.743-.335-2.29-1.005-.542-.67-.814-1.6226-.814-2.8576s.274-2.1943.821-2.8779c.547-.6836 1.308-1.0254 2.283-1.0254 1.016 0 1.796.3691 2.338 1.1074h.089l-.048-.54-.028-.5264v-3.0488h1.135V102h-.923l-.15-1.005Zm-2.27.192c.775 0 1.336-.21 1.682-.629.351-.424.526-1.1055.526-2.0443v-.2393c0-1.0618-.177-1.8183-.533-2.2695-.351-.4557-.913-.6836-1.688-.6836-.666 0-1.176.2598-1.531.7793-.351.515-.527 1.2441-.527 2.1875 0 .957.176 1.6793.527 2.1669.35.488.865.732 1.544.732Zm8.942.95c-1.107 0-1.982-.338-2.625-1.012-.638-.674-.957-1.611-.957-2.8096 0-1.2077.297-2.167.889-2.8779.597-.7109 1.397-1.0664 2.399-1.0664.939 0 1.682.3099 2.229.9297.547.6152.82 1.4287.82 2.4404v.7178h-5.161c.023.8795.244 1.547.663 2.003.424.456 1.019.684 1.784.684.807 0 1.605-.169 2.393-.506v1.011c-.401.174-.782.297-1.142.37-.355.077-.786.116-1.292.116Zm-.307-6.8157c-.602 0-1.083.196-1.443.5879-.355.3919-.565.9342-.629 1.6269h3.917c0-.7155-.159-1.2623-.478-1.6406-.319-.3828-.775-.5742-1.367-.5742Zm8.443-.9502c.332 0 .631.0273.895.082l-.157 1.0528c-.31-.0684-.583-.1026-.82-.1026-.607 0-1.126.2461-1.559.7383-.428.4922-.643 1.1051-.643 1.8389V102h-1.134v-7.4922h.936l.13 1.3877h.055c.278-.4876.613-.8636 1.005-1.1279.392-.2643.822-.3965 1.292-.3965Z"/></g><path fill="#585C65" d="M298 111h8l-4 4-4-4Z"/><g clip-path="url(#d)" opacity=".95"><rect width="143" height="29" x="179" y="82" fill="#585C65" rx="4"/><path fill="#fff" d="M191.45 102h-1.162v-8.9619h-3.165v-1.0322h7.492v1.0322h-3.165V102Zm10.993-3.7529c0 1.2213-.308 2.1759-.923 2.8639-.615.684-1.465 1.026-2.55 1.026-.67 0-1.264-.158-1.784-.472-.519-.314-.921-.766-1.203-1.353-.283-.5884-.424-1.2765-.424-2.0649 0-1.2214.305-2.1716.916-2.8506.611-.6836 1.458-1.0254 2.543-1.0254 1.048 0 1.88.3486 2.495 1.0459.62.6973.93 1.6406.93 2.8301Zm-5.708 0c0 .957.191 1.6862.574 2.1879.383.501.946.752 1.689.752.742 0 1.305-.249 1.688-.746.387-.5009.581-1.2323.581-2.1939 0-.9525-.194-1.6748-.581-2.167-.383-.4968-.95-.7451-1.702-.7451-.743 0-1.303.2438-1.682.7314-.378.4876-.567 1.2145-.567 2.1807Zm14.192 0c0 1.2213-.308 2.1759-.923 2.8639-.615.684-1.465 1.026-2.55 1.026-.67 0-1.265-.158-1.784-.472-.52-.314-.921-.766-1.203-1.353-.283-.5884-.424-1.2765-.424-2.0649 0-1.2214.305-2.1716.916-2.8506.611-.6836 1.458-1.0254 2.543-1.0254 1.048 0 1.88.3486 2.495 1.0459.62.6973.93 1.6406.93 2.8301Zm-5.708 0c0 .957.191 1.6862.574 2.1879.383.501.946.752 1.688.752.743 0 1.306-.249 1.689-.746.387-.5009.581-1.2323.581-2.1939 0-.9525-.194-1.6748-.581-2.167-.383-.4968-.95-.7451-1.702-.7451-.743 0-1.304.2438-1.682.7314-.378.4876-.567 1.2145-.567 2.1807Zm8.86 3.7529h-1.135V91.3633h1.135V102Zm4.847-.8c.2 0 .394-.013.581-.041.187-.032.335-.064.444-.096v.869c-.123.059-.305.107-.547.143-.237.041-.451.062-.642.062-1.449 0-2.174-.764-2.174-2.2903v-4.4571h-1.073v-.5468l1.073-.4717.478-1.5996h.657v1.7363h2.173v.8818h-2.173v4.4092c0 .4512.107.7972.321 1.0392.214.241.508.362.882.362Zm3.685.8h-1.135v-7.4922h1.135V102Zm-1.231-9.5225c0-.2597.064-.4489.192-.5673.127-.1231.287-.1846.478-.1846.183 0 .34.0615.472.1846.132.123.198.3121.198.5673 0 .2552-.066.4467-.198.5743-.132.123-.289.1845-.472.1845-.191 0-.351-.0615-.478-.1845-.128-.1276-.192-.3191-.192-.5743Zm7.144 9.6595c-.487 0-.934-.089-1.339-.267-.401-.182-.739-.46-1.012-.834h-.082c.055.438.082.852.082 1.244v3.083h-1.135V94.5078h.923l.157 1.0254h.055c.292-.4102.631-.7064 1.018-.8887.388-.1823.832-.2734 1.333-.2734.994 0 1.76.3395 2.297 1.0185.543.6791.814 1.6316.814 2.8575 0 1.2304-.276 2.1879-.827 2.8709-.547.679-1.308 1.019-2.284 1.019Zm-.164-6.802c-.765 0-1.319.2119-1.661.6357-.342.4238-.517 1.0983-.526 2.0234v.253c0 1.0527.175 1.8069.526 2.2629.351.451.914.677 1.689.677.647 0 1.153-.263 1.517-.787.369-.5237.554-1.246.554-2.1666 0-.9342-.185-1.6497-.554-2.1465-.364-.5013-.879-.7519-1.545-.7519Zm12.429 6.802c-.488 0-.934-.089-1.34-.267-.401-.182-.738-.46-1.011-.834h-.083c.055.438.083.852.083 1.244v3.083h-1.135V94.5078h.923l.157 1.0254h.055c.291-.4102.631-.7064 1.018-.8887.387-.1823.832-.2734 1.333-.2734.994 0 1.759.3395 2.297 1.0185.542.6791.813 1.6316.813 2.8575 0 1.2304-.275 2.1879-.827 2.8709-.547.679-1.308 1.019-2.283 1.019Zm-.164-6.802c-.766 0-1.319.2119-1.661.6357-.342.4238-.517 1.0983-.526 2.0234v.253c0 1.0527.175 1.8069.526 2.2629.351.451.914.677 1.688.677.648 0 1.153-.263 1.518-.787.369-.5237.554-1.246.554-2.1666 0-.9342-.185-1.6497-.554-2.1465-.365-.5013-.88-.7519-1.545-.7519Zm6.419 6.665h-1.134V91.3633h1.134V102Zm7.035 0-.225-1.066h-.055c-.374.469-.748.788-1.121.957-.369.164-.832.246-1.388.246-.743 0-1.326-.192-1.75-.575-.419-.382-.629-.927-.629-1.6333 0-1.513 1.21-2.306 3.63-2.3789l1.272-.041v-.4649c0-.5878-.128-1.0208-.383-1.2988-.251-.2825-.654-.4238-1.21-.4238-.625 0-1.331.1914-2.119.5742l-.349-.8682c.369-.2005.772-.3577 1.21-.4716.442-.114.884-.1709 1.326-.1709.893 0 1.554.1982 1.983.5947.432.3965.649 1.0322.649 1.9072V102h-.841Zm-2.563-.8c.706 0 1.26-.193 1.661-.581.405-.387.608-.9295.608-1.6268v-.6768l-1.135.0479c-.902.0319-1.554.1732-1.955.4238-.396.2461-.594.6312-.594 1.1553 0 .4106.123.7226.369.9366.25.214.599.321 1.046.321Zm8.764.937c-1.085 0-1.926-.333-2.523-.998-.592-.67-.888-1.6159-.888-2.8372 0-1.2533.3-2.2217.902-2.9053.606-.6836 1.467-1.0254 2.584-1.0254.36 0 .72.0387 1.08.1162.36.0775.643.1686.848.2734l-.349.9639c-.251-.1003-.524-.1823-.82-.2461-.296-.0683-.558-.1025-.786-.1025-1.522 0-2.284.9707-2.284 2.9121 0 .9206.185 1.6269.554 2.1189.374.492.925.739 1.654.739.625 0 1.265-.135 1.921-.404v1.005c-.501.26-1.132.39-1.893.39Zm6.864 0c-1.108 0-1.983-.338-2.625-1.012-.638-.674-.957-1.611-.957-2.8096 0-1.2077.296-2.167.888-2.8779.597-.7109 1.397-1.0664 2.4-1.0664.938 0 1.681.3099 2.228.9297.547.6152.82 1.4287.82 2.4404v.7178h-5.161c.023.8795.244 1.547.663 2.003.424.456 1.019.684 1.785.684.806 0 1.604-.169 2.392-.506v1.011c-.401.174-.781.297-1.141.37-.356.077-.787.116-1.292.116Zm-.308-6.8157c-.602 0-1.082.196-1.442.5879-.356.3919-.566.9342-.629 1.6269h3.917c0-.7155-.16-1.2623-.479-1.6406-.319-.3828-.775-.5742-1.367-.5742ZM276.988 102v-4.8467c0-.6107-.139-1.0664-.417-1.3672-.278-.3007-.713-.4511-1.306-.4511-.788 0-1.365.2142-1.729.6425-.36.4284-.54 1.1302-.54 2.1055V102h-1.135V91.3633h1.135v3.2197c0 .3874-.019.7087-.055.9639h.068c.224-.3601.54-.6426.951-.8477.414-.2096.886-.3144 1.415-.3144.916 0 1.601.2187 2.057.6562.46.433.691 1.1234.691 2.0713V102h-1.135Zm9.96-3.7529c0 1.2213-.307 2.1759-.923 2.8639-.615.684-1.465 1.026-2.549 1.026-.67 0-1.265-.158-1.785-.472-.519-.314-.92-.766-1.203-1.353-.282-.5884-.423-1.2765-.423-2.0649 0-1.2214.305-2.1716.916-2.8506.61-.6836 1.458-1.0254 2.542-1.0254 1.049 0 1.88.3486 2.496 1.0459.619.6973.929 1.6406.929 2.8301Zm-5.708 0c0 .957.192 1.6862.575 2.1879.382.501.945.752 1.688.752s1.306-.249 1.688-.746c.388-.5009.582-1.2323.582-2.1939 0-.9525-.194-1.6748-.582-2.167-.382-.4968-.95-.7451-1.702-.7451-.743 0-1.303.2438-1.681.7314-.379.4876-.568 1.2145-.568 2.1807ZM290.1 102h-1.135V91.3633h1.135V102Zm7.527-1.005h-.062c-.524.761-1.307 1.142-2.351 1.142-.98 0-1.743-.335-2.29-1.005-.542-.67-.814-1.6226-.814-2.8576s.274-2.1943.821-2.8779c.547-.6836 1.308-1.0254 2.283-1.0254 1.016 0 1.796.3691 2.338 1.1074h.089l-.048-.54-.028-.5264v-3.0488h1.135V102h-.923l-.15-1.005Zm-2.27.192c.775 0 1.336-.21 1.682-.629.351-.424.526-1.1055.526-2.0443v-.2393c0-1.0618-.177-1.8183-.533-2.2695-.351-.4557-.913-.6836-1.688-.6836-.666 0-1.176.2598-1.531.7793-.351.515-.527 1.2441-.527 2.1875 0 .957.176 1.6793.527 2.1669.35.488.865.732 1.544.732Zm8.942.95c-1.107 0-1.982-.338-2.625-1.012-.638-.674-.957-1.611-.957-2.8096 0-1.2077.297-2.167.889-2.8779.597-.7109 1.397-1.0664 2.399-1.0664.939 0 1.682.3099 2.229.9297.547.6152.82 1.4287.82 2.4404v.7178h-5.161c.023.8795.244 1.547.663 2.003.424.456 1.019.684 1.784.684.807 0 1.605-.169 2.393-.506v1.011c-.401.174-.782.297-1.142.37-.355.077-.786.116-1.292.116Zm-.307-6.8157c-.602 0-1.083.196-1.443.5879-.355.3919-.565.9342-.629 1.6269h3.917c0-.7155-.159-1.2623-.478-1.6406-.319-.3828-.775-.5742-1.367-.5742Zm8.443-.9502c.332 0 .631.0273.895.082l-.157 1.0528c-.31-.0684-.583-.1026-.82-.1026-.607 0-1.126.2461-1.559.7383-.428.4922-.643 1.1051-.643 1.8389V102h-1.134v-7.4922h.936l.13 1.3877h.055c.278-.4876.613-.8636 1.005-1.1279.392-.2643.822-.3965 1.292-.3965Z"/></g><path fill="#585C65" d="M406.5 111h8l-4 4-4-4Z"/><g clip-path="url(#e)" opacity=".95"><rect width="143" height="29" x="339" y="82" fill="#585C65" rx="4"/><path fill="#fff" d="M351.45 102h-1.162v-8.9619h-3.165v-1.0322h7.492v1.0322h-3.165V102Zm10.993-3.7529c0 1.2213-.308 2.1759-.923 2.8639-.615.684-1.465 1.026-2.55 1.026-.67 0-1.264-.158-1.784-.472-.519-.314-.921-.766-1.203-1.353-.283-.5884-.424-1.2765-.424-2.0649 0-1.2214.305-2.1716.916-2.8506.611-.6836 1.458-1.0254 2.543-1.0254 1.048 0 1.88.3486 2.495 1.0459.62.6973.93 1.6406.93 2.8301Zm-5.708 0c0 .957.191 1.6862.574 2.1879.383.501.946.752 1.689.752.742 0 1.305-.249 1.688-.746.387-.5009.581-1.2323.581-2.1939 0-.9525-.194-1.6748-.581-2.167-.383-.4968-.95-.7451-1.702-.7451-.743 0-1.303.2438-1.682.7314-.378.4876-.567 1.2145-.567 2.1807Zm14.192 0c0 1.2213-.308 2.1759-.923 2.8639-.615.684-1.465 1.026-2.55 1.026-.67 0-1.265-.158-1.784-.472-.52-.314-.921-.766-1.203-1.353-.283-.5884-.424-1.2765-.424-2.0649 0-1.2214.305-2.1716.916-2.8506.611-.6836 1.458-1.0254 2.543-1.0254 1.048 0 1.88.3486 2.495 1.0459.62.6973.93 1.6406.93 2.8301Zm-5.708 0c0 .957.191 1.6862.574 2.1879.383.501.946.752 1.688.752.743 0 1.306-.249 1.689-.746.387-.5009.581-1.2323.581-2.1939 0-.9525-.194-1.6748-.581-2.167-.383-.4968-.95-.7451-1.702-.7451-.743 0-1.304.2438-1.682.7314-.378.4876-.567 1.2145-.567 2.1807Zm8.86 3.7529h-1.135V91.3633h1.135V102Zm4.847-.8c.2 0 .394-.013.581-.041.187-.032.335-.064.444-.096v.869c-.123.059-.305.107-.547.143-.237.041-.451.062-.642.062-1.449 0-2.174-.764-2.174-2.2903v-4.4571h-1.073v-.5468l1.073-.4717.478-1.5996h.657v1.7363h2.173v.8818h-2.173v4.4092c0 .4512.107.7972.321 1.0392.214.241.508.362.882.362Zm3.685.8h-1.135v-7.4922h1.135V102Zm-1.231-9.5225c0-.2597.064-.4489.192-.5673.127-.1231.287-.1846.478-.1846.183 0 .34.0615.472.1846.132.123.198.3121.198.5673 0 .2552-.066.4467-.198.5743-.132.123-.289.1845-.472.1845-.191 0-.351-.0615-.478-.1845-.128-.1276-.192-.3191-.192-.5743Zm7.144 9.6595c-.487 0-.934-.089-1.339-.267-.401-.182-.739-.46-1.012-.834h-.082c.055.438.082.852.082 1.244v3.083h-1.135V94.5078h.923l.157 1.0254h.055c.292-.4102.631-.7064 1.018-.8887.388-.1823.832-.2734 1.333-.2734.994 0 1.76.3395 2.297 1.0185.543.6791.814 1.6316.814 2.8575 0 1.2304-.276 2.1879-.827 2.8709-.547.679-1.308 1.019-2.284 1.019Zm-.164-6.802c-.765 0-1.319.2119-1.661.6357-.342.4238-.517 1.0983-.526 2.0234v.253c0 1.0527.175 1.8069.526 2.2629.351.451.914.677 1.689.677.647 0 1.153-.263 1.517-.787.369-.5237.554-1.246.554-2.1666 0-.9342-.185-1.6497-.554-2.1465-.364-.5013-.879-.7519-1.545-.7519Zm12.429 6.802c-.488 0-.934-.089-1.34-.267-.401-.182-.738-.46-1.011-.834h-.083c.055.438.083.852.083 1.244v3.083h-1.135V94.5078h.923l.157 1.0254h.055c.291-.4102.631-.7064 1.018-.8887.387-.1823.832-.2734 1.333-.2734.994 0 1.759.3395 2.297 1.0185.542.6791.813 1.6316.813 2.8575 0 1.2304-.275 2.1879-.827 2.8709-.547.679-1.308 1.019-2.283 1.019Zm-.164-6.802c-.766 0-1.319.2119-1.661.6357-.342.4238-.517 1.0983-.526 2.0234v.253c0 1.0527.175 1.8069.526 2.2629.351.451.914.677 1.688.677.648 0 1.153-.263 1.518-.787.369-.5237.554-1.246.554-2.1666 0-.9342-.185-1.6497-.554-2.1465-.365-.5013-.88-.7519-1.545-.7519Zm6.419 6.665h-1.134V91.3633h1.134V102Zm7.035 0-.225-1.066h-.055c-.374.469-.748.788-1.121.957-.369.164-.832.246-1.388.246-.743 0-1.326-.192-1.75-.575-.419-.382-.629-.927-.629-1.6333 0-1.513 1.21-2.306 3.63-2.3789l1.272-.041v-.4649c0-.5878-.128-1.0208-.383-1.2988-.251-.2825-.654-.4238-1.21-.4238-.625 0-1.331.1914-2.119.5742l-.349-.8682c.369-.2005.772-.3577 1.21-.4716.442-.114.884-.1709 1.326-.1709.893 0 1.554.1982 1.983.5947.432.3965.649 1.0322.649 1.9072V102h-.841Zm-2.563-.8c.706 0 1.26-.193 1.661-.581.405-.387.608-.9295.608-1.6268v-.6768l-1.135.0479c-.902.0319-1.554.1732-1.955.4238-.396.2461-.594.6312-.594 1.1553 0 .4106.123.7226.369.9366.25.214.599.321 1.046.321Zm8.764.937c-1.085 0-1.926-.333-2.523-.998-.592-.67-.888-1.6159-.888-2.8372 0-1.2533.3-2.2217.902-2.9053.606-.6836 1.467-1.0254 2.584-1.0254.36 0 .72.0387 1.08.1162.36.0775.643.1686.848.2734l-.349.9639c-.251-.1003-.524-.1823-.82-.2461-.296-.0683-.558-.1025-.786-.1025-1.522 0-2.284.9707-2.284 2.9121 0 .9206.185 1.6269.554 2.1189.374.492.925.739 1.654.739.625 0 1.265-.135 1.921-.404v1.005c-.501.26-1.132.39-1.893.39Zm6.864 0c-1.108 0-1.983-.338-2.625-1.012-.638-.674-.957-1.611-.957-2.8096 0-1.2077.296-2.167.888-2.8779.597-.7109 1.397-1.0664 2.4-1.0664.938 0 1.681.3099 2.228.9297.547.6152.82 1.4287.82 2.4404v.7178h-5.161c.023.8795.244 1.547.663 2.003.424.456 1.019.684 1.785.684.806 0 1.604-.169 2.392-.506v1.011c-.401.174-.781.297-1.141.37-.356.077-.787.116-1.292.116Zm-.308-6.8157c-.602 0-1.082.196-1.442.5879-.356.3919-.566.9342-.629 1.6269h3.917c0-.7155-.16-1.2623-.479-1.6406-.319-.3828-.775-.5742-1.367-.5742ZM436.988 102v-4.8467c0-.6107-.139-1.0664-.417-1.3672-.278-.3007-.713-.4511-1.306-.4511-.788 0-1.365.2142-1.729.6425-.36.4284-.54 1.1302-.54 2.1055V102h-1.135V91.3633h1.135v3.2197c0 .3874-.019.7087-.055.9639h.068c.224-.3601.54-.6426.951-.8477.414-.2096.886-.3144 1.415-.3144.916 0 1.601.2187 2.057.6562.46.433.691 1.1234.691 2.0713V102h-1.135Zm9.96-3.7529c0 1.2213-.307 2.1759-.923 2.8639-.615.684-1.465 1.026-2.549 1.026-.67 0-1.265-.158-1.785-.472-.519-.314-.92-.766-1.203-1.353-.282-.5884-.423-1.2765-.423-2.0649 0-1.2214.305-2.1716.916-2.8506.61-.6836 1.458-1.0254 2.542-1.0254 1.049 0 1.88.3486 2.496 1.0459.619.6973.929 1.6406.929 2.8301Zm-5.708 0c0 .957.192 1.6862.575 2.1879.382.501.945.752 1.688.752s1.306-.249 1.688-.746c.388-.5009.582-1.2323.582-2.1939 0-.9525-.194-1.6748-.582-2.167-.382-.4968-.95-.7451-1.702-.7451-.743 0-1.303.2438-1.681.7314-.379.4876-.568 1.2145-.568 2.1807ZM450.1 102h-1.135V91.3633h1.135V102Zm7.527-1.005h-.062c-.524.761-1.307 1.142-2.351 1.142-.98 0-1.743-.335-2.29-1.005-.542-.67-.814-1.6226-.814-2.8576s.274-2.1943.821-2.8779c.547-.6836 1.308-1.0254 2.283-1.0254 1.016 0 1.796.3691 2.338 1.1074h.089l-.048-.54-.028-.5264v-3.0488h1.135V102h-.923l-.15-1.005Zm-2.27.192c.775 0 1.336-.21 1.682-.629.351-.424.526-1.1055.526-2.0443v-.2393c0-1.0618-.177-1.8183-.533-2.2695-.351-.4557-.913-.6836-1.688-.6836-.666 0-1.176.2598-1.531.7793-.351.515-.527 1.2441-.527 2.1875 0 .957.176 1.6793.527 2.1669.35.488.865.732 1.544.732Zm8.942.95c-1.107 0-1.982-.338-2.625-1.012-.638-.674-.957-1.611-.957-2.8096 0-1.2077.297-2.167.889-2.8779.597-.7109 1.397-1.0664 2.399-1.0664.939 0 1.682.3099 2.229.9297.547.6152.82 1.4287.82 2.4404v.7178h-5.161c.023.8795.244 1.547.663 2.003.424.456 1.019.684 1.784.684.807 0 1.605-.169 2.393-.506v1.011c-.401.174-.782.297-1.142.37-.355.077-.786.116-1.292.116Zm-.307-6.8157c-.602 0-1.083.196-1.443.5879-.355.3919-.565.9342-.629 1.6269h3.917c0-.7155-.159-1.2623-.478-1.6406-.319-.3828-.775-.5742-1.367-.5742Zm8.443-.9502c.332 0 .631.0273.895.082l-.157 1.0528c-.31-.0684-.583-.1026-.82-.1026-.607 0-1.126.2461-1.559.7383-.428.4922-.643 1.1051-.643 1.8389V102h-1.134v-7.4922h.936l.13 1.3877h.055c.278-.4876.613-.8636 1.005-1.1279.392-.2643.822-.3965 1.292-.3965Z"/></g><g clip-path="url(#f)" opacity=".95"><path fill="#585C65" d="M573 145.5v8l-4-4 4-4Z"/><rect width="143" height="29" x="573" y="135" fill="#585C65" rx="4"/><path fill="#fff" d="M585.45 155h-1.162v-8.962h-3.165v-1.032h7.492v1.032h-3.165V155Zm10.993-3.753c0 1.221-.308 2.176-.923 2.864-.615.684-1.465 1.026-2.55 1.026-.67 0-1.264-.158-1.784-.472-.519-.314-.921-.766-1.203-1.353-.283-.588-.424-1.277-.424-2.065 0-1.221.305-2.171.916-2.851.611-.683 1.458-1.025 2.543-1.025 1.048 0 1.88.349 2.495 1.046.62.697.93 1.641.93 2.83Zm-5.708 0c0 .957.191 1.686.574 2.188.383.501.946.752 1.689.752.742 0 1.305-.249 1.688-.746.387-.501.581-1.232.581-2.194 0-.952-.194-1.675-.581-2.167-.383-.497-.95-.745-1.702-.745-.743 0-1.303.244-1.682.731-.378.488-.567 1.215-.567 2.181Zm14.192 0c0 1.221-.308 2.176-.923 2.864-.615.684-1.465 1.026-2.55 1.026-.67 0-1.265-.158-1.784-.472-.52-.314-.921-.766-1.203-1.353-.283-.588-.424-1.277-.424-2.065 0-1.221.305-2.171.916-2.851.611-.683 1.458-1.025 2.543-1.025 1.048 0 1.88.349 2.495 1.046.62.697.93 1.641.93 2.83Zm-5.708 0c0 .957.191 1.686.574 2.188.383.501.946.752 1.688.752.743 0 1.306-.249 1.689-.746.387-.501.581-1.232.581-2.194 0-.952-.194-1.675-.581-2.167-.383-.497-.95-.745-1.702-.745-.743 0-1.304.244-1.682.731-.378.488-.567 1.215-.567 2.181Zm8.86 3.753h-1.135v-10.637h1.135V155Zm4.847-.8c.2 0 .394-.013.581-.041.187-.032.335-.064.444-.096v.869c-.123.059-.305.107-.547.143-.237.041-.451.062-.642.062-1.449 0-2.174-.764-2.174-2.29v-4.457h-1.073v-.547l1.073-.472.478-1.6h.657v1.737h2.173v.882h-2.173v4.409c0 .451.107.797.321 1.039.214.241.508.362.882.362Zm3.685.8h-1.135v-7.492h1.135V155Zm-1.231-9.522c0-.26.064-.449.192-.568.127-.123.287-.184.478-.184.183 0 .34.061.472.184.132.123.198.312.198.568 0 .255-.066.446-.198.574-.132.123-.289.184-.472.184-.191 0-.351-.061-.478-.184-.128-.128-.192-.319-.192-.574Zm7.144 9.659c-.487 0-.934-.089-1.339-.267-.401-.182-.739-.46-1.012-.834h-.082c.055.438.082.852.082 1.244v3.083h-1.135v-10.855h.923l.157 1.025h.055c.292-.41.631-.706 1.018-.888.388-.183.832-.274 1.333-.274.994 0 1.76.34 2.297 1.019.543.679.814 1.631.814 2.857 0 1.231-.276 2.188-.827 2.871-.547.679-1.308 1.019-2.284 1.019Zm-.164-6.802c-.765 0-1.319.212-1.661.636-.342.424-.517 1.098-.526 2.023v.253c0 1.053.175 1.807.526 2.263.351.451.914.677 1.689.677.647 0 1.153-.263 1.517-.787.369-.524.554-1.246.554-2.167 0-.934-.185-1.649-.554-2.146-.364-.501-.879-.752-1.545-.752Zm12.429 6.802c-.488 0-.934-.089-1.34-.267-.401-.182-.738-.46-1.011-.834h-.083c.055.438.083.852.083 1.244v3.083h-1.135v-10.855h.923l.157 1.025h.055c.291-.41.631-.706 1.018-.888.387-.183.832-.274 1.333-.274.994 0 1.759.34 2.297 1.019.542.679.813 1.631.813 2.857 0 1.231-.275 2.188-.827 2.871-.547.679-1.308 1.019-2.283 1.019Zm-.164-6.802c-.766 0-1.319.212-1.661.636-.342.424-.517 1.098-.526 2.023v.253c0 1.053.175 1.807.526 2.263.351.451.914.677 1.688.677.648 0 1.153-.263 1.518-.787.369-.524.554-1.246.554-2.167 0-.934-.185-1.649-.554-2.146-.365-.501-.88-.752-1.545-.752Zm6.419 6.665h-1.134v-10.637h1.134V155Zm7.035 0-.225-1.066h-.055c-.374.469-.748.788-1.121.957-.369.164-.832.246-1.388.246-.743 0-1.326-.192-1.75-.575-.419-.382-.629-.927-.629-1.633 0-1.513 1.21-2.306 3.63-2.379l1.272-.041v-.465c0-.588-.128-1.021-.383-1.299-.251-.282-.654-.424-1.21-.424-.625 0-1.331.192-2.119.575l-.349-.869c.369-.2.772-.357 1.21-.471.442-.114.884-.171 1.326-.171.893 0 1.554.198 1.983.594.432.397.649 1.033.649 1.908V155h-.841Zm-2.563-.8c.706 0 1.26-.193 1.661-.581.405-.387.608-.93.608-1.627v-.677l-1.135.048c-.902.032-1.554.173-1.955.424-.396.246-.594.631-.594 1.155 0 .411.123.723.369.937.25.214.599.321 1.046.321Zm8.764.937c-1.085 0-1.926-.333-2.523-.998-.592-.67-.888-1.616-.888-2.837 0-1.253.3-2.222.902-2.906.606-.683 1.467-1.025 2.584-1.025.36 0 .72.039 1.08.116.36.078.643.169.848.274l-.349.964c-.251-.101-.524-.183-.82-.246-.296-.069-.558-.103-.786-.103-1.522 0-2.284.971-2.284 2.912 0 .921.185 1.627.554 2.119.374.492.925.739 1.654.739.625 0 1.265-.135 1.921-.404v1.005c-.501.26-1.132.39-1.893.39Zm6.864 0c-1.108 0-1.983-.338-2.625-1.012-.638-.674-.957-1.611-.957-2.81 0-1.207.296-2.167.888-2.877.597-.711 1.397-1.067 2.4-1.067.938 0 1.681.31 2.228.93.547.615.82 1.428.82 2.44v.718h-5.161c.023.88.244 1.547.663 2.003.424.456 1.019.684 1.785.684.806 0 1.604-.169 2.392-.506v1.011c-.401.174-.781.297-1.141.37-.356.077-.787.116-1.292.116Zm-.308-6.816c-.602 0-1.082.196-1.442.588-.356.392-.566.934-.629 1.627h3.917c0-.715-.16-1.262-.479-1.64-.319-.383-.775-.575-1.367-.575ZM670.988 155v-4.847c0-.61-.139-1.066-.417-1.367-.278-.301-.713-.451-1.306-.451-.788 0-1.365.214-1.729.643-.36.428-.54 1.13-.54 2.105V155h-1.135v-10.637h1.135v3.22c0 .387-.019.709-.055.964h.068c.224-.36.54-.643.951-.848.414-.209.886-.314 1.415-.314.916 0 1.601.219 2.057.656.46.433.691 1.123.691 2.071V155h-1.135Zm9.96-3.753c0 1.221-.307 2.176-.923 2.864-.615.684-1.465 1.026-2.549 1.026-.67 0-1.265-.158-1.785-.472-.519-.314-.92-.766-1.203-1.353-.282-.588-.423-1.277-.423-2.065 0-1.221.305-2.171.916-2.851.61-.683 1.458-1.025 2.542-1.025 1.049 0 1.88.349 2.496 1.046.619.697.929 1.641.929 2.83Zm-5.708 0c0 .957.192 1.686.575 2.188.382.501.945.752 1.688.752s1.306-.249 1.688-.746c.388-.501.582-1.232.582-2.194 0-.952-.194-1.675-.582-2.167-.382-.497-.95-.745-1.702-.745-.743 0-1.303.244-1.681.731-.379.488-.568 1.215-.568 2.181ZM684.1 155h-1.135v-10.637h1.135V155Zm7.527-1.005h-.062c-.524.761-1.307 1.142-2.351 1.142-.98 0-1.743-.335-2.29-1.005-.542-.67-.814-1.623-.814-2.858s.274-2.194.821-2.878c.547-.683 1.308-1.025 2.283-1.025 1.016 0 1.796.369 2.338 1.108h.089l-.048-.541-.028-.526v-3.049h1.135V155h-.923l-.15-1.005Zm-2.27.192c.775 0 1.336-.21 1.682-.629.351-.424.526-1.106.526-2.044v-.24c0-1.061-.177-1.818-.533-2.269-.351-.456-.913-.684-1.688-.684-.666 0-1.176.26-1.531.78-.351.515-.527 1.244-.527 2.187 0 .957.176 1.679.527 2.167.35.488.865.732 1.544.732Zm8.942.95c-1.107 0-1.982-.338-2.625-1.012-.638-.674-.957-1.611-.957-2.81 0-1.207.297-2.167.889-2.877.597-.711 1.397-1.067 2.399-1.067.939 0 1.682.31 2.229.93.547.615.82 1.428.82 2.44v.718h-5.161c.023.88.244 1.547.663 2.003.424.456 1.019.684 1.784.684.807 0 1.605-.169 2.393-.506v1.011c-.401.174-.782.297-1.142.37-.355.077-.786.116-1.292.116Zm-.307-6.816c-.602 0-1.083.196-1.443.588-.355.392-.565.934-.629 1.627h3.917c0-.715-.159-1.262-.478-1.64-.319-.383-.775-.575-1.367-.575Zm8.443-.95c.332 0 .631.027.895.082l-.157 1.053c-.31-.068-.583-.103-.82-.103-.607 0-1.126.246-1.559.739-.428.492-.643 1.105-.643 1.838V155h-1.134v-7.492h.936l.13 1.388h.055c.278-.488.613-.864 1.005-1.128.392-.265.822-.397 1.292-.397Z"/></g><g clip-path="url(#g)" opacity=".95"><rect width="143" height="29" x="84" y="135" fill="#585C65" rx="4"/><path fill="#fff" d="M96.4502 155h-1.1621v-8.962H92.123v-1.032h7.4922v1.032h-3.165V155Zm10.9928-3.753c0 1.221-.308 2.176-.923 2.864-.615.684-1.465 1.026-2.55 1.026-.67 0-1.264-.158-1.784-.472-.519-.314-.921-.766-1.203-1.353-.283-.588-.424-1.277-.424-2.065 0-1.221.305-2.171.916-2.851.611-.683 1.458-1.025 2.543-1.025 1.048 0 1.88.349 2.495 1.046.62.697.93 1.641.93 2.83Zm-5.708 0c0 .957.191 1.686.574 2.188.383.501.946.752 1.689.752.742 0 1.305-.249 1.688-.746.387-.501.581-1.232.581-2.194 0-.952-.194-1.675-.581-2.167-.383-.497-.95-.745-1.702-.745-.743 0-1.303.244-1.682.731-.378.488-.567 1.215-.567 2.181Zm14.192 0c0 1.221-.308 2.176-.923 2.864-.615.684-1.465 1.026-2.55 1.026-.67 0-1.265-.158-1.784-.472-.52-.314-.921-.766-1.203-1.353-.283-.588-.424-1.277-.424-2.065 0-1.221.305-2.171.916-2.851.611-.683 1.458-1.025 2.543-1.025 1.048 0 1.88.349 2.495 1.046.62.697.93 1.641.93 2.83Zm-5.708 0c0 .957.191 1.686.574 2.188.383.501.946.752 1.688.752.743 0 1.306-.249 1.689-.746.387-.501.581-1.232.581-2.194 0-.952-.194-1.675-.581-2.167-.383-.497-.95-.745-1.702-.745-.743 0-1.304.244-1.682.731-.378.488-.567 1.215-.567 2.181Zm8.86 3.753h-1.135v-10.637h1.135V155Zm4.847-.8c.2 0 .394-.013.581-.041.187-.032.335-.064.444-.096v.869c-.123.059-.305.107-.547.143-.237.041-.451.062-.642.062-1.449 0-2.174-.764-2.174-2.29v-4.457h-1.073v-.547l1.073-.472.478-1.6h.657v1.737h2.173v.882h-2.173v4.409c0 .451.107.797.321 1.039.214.241.508.362.882.362Zm3.685.8h-1.135v-7.492h1.135V155Zm-1.231-9.522c0-.26.064-.449.192-.568.127-.123.287-.184.478-.184.183 0 .34.061.472.184.132.123.198.312.198.568 0 .255-.066.446-.198.574-.132.123-.289.184-.472.184-.191 0-.351-.061-.478-.184-.128-.128-.192-.319-.192-.574Zm7.144 9.659c-.487 0-.934-.089-1.339-.267-.401-.182-.739-.46-1.012-.834h-.082c.055.438.082.852.082 1.244v3.083h-1.135v-10.855h.923l.157 1.025h.055c.292-.41.631-.706 1.018-.888.388-.183.832-.274 1.333-.274.994 0 1.76.34 2.297 1.019.543.679.814 1.631.814 2.857 0 1.231-.276 2.188-.827 2.871-.547.679-1.308 1.019-2.284 1.019Zm-.164-6.802c-.765 0-1.319.212-1.661.636-.342.424-.517 1.098-.526 2.023v.253c0 1.053.175 1.807.526 2.263.351.451.914.677 1.689.677.647 0 1.153-.263 1.517-.787.369-.524.554-1.246.554-2.167 0-.934-.185-1.649-.554-2.146-.364-.501-.879-.752-1.545-.752Zm12.429 6.802c-.488 0-.934-.089-1.34-.267-.401-.182-.738-.46-1.011-.834h-.083c.055.438.083.852.083 1.244v3.083h-1.135v-10.855h.923l.157 1.025h.055c.291-.41.631-.706 1.018-.888.387-.183.832-.274 1.333-.274.994 0 1.759.34 2.297 1.019.542.679.813 1.631.813 2.857 0 1.231-.275 2.188-.827 2.871-.547.679-1.308 1.019-2.283 1.019Zm-.164-6.802c-.766 0-1.319.212-1.661.636-.342.424-.517 1.098-.526 2.023v.253c0 1.053.175 1.807.526 2.263.351.451.914.677 1.688.677.648 0 1.153-.263 1.518-.787.369-.524.554-1.246.554-2.167 0-.934-.185-1.649-.554-2.146-.365-.501-.88-.752-1.545-.752Zm6.419 6.665h-1.134v-10.637h1.134V155Zm7.035 0-.225-1.066h-.055c-.374.469-.748.788-1.121.957-.369.164-.832.246-1.388.246-.743 0-1.326-.192-1.75-.575-.419-.382-.629-.927-.629-1.633 0-1.513 1.21-2.306 3.63-2.379l1.272-.041v-.465c0-.588-.128-1.021-.383-1.299-.251-.282-.654-.424-1.21-.424-.625 0-1.331.192-2.119.575l-.349-.869c.369-.2.772-.357 1.21-.471.442-.114.884-.171 1.326-.171.893 0 1.554.198 1.983.594.432.397.649 1.033.649 1.908V155h-.841Zm-2.563-.8c.706 0 1.26-.193 1.661-.581.405-.387.608-.93.608-1.627v-.677l-1.135.048c-.902.032-1.554.173-1.955.424-.396.246-.594.631-.594 1.155 0 .411.123.723.369.937.25.214.599.321 1.046.321Zm8.764.937c-1.085 0-1.926-.333-2.523-.998-.592-.67-.888-1.616-.888-2.837 0-1.253.3-2.222.902-2.906.606-.683 1.467-1.025 2.584-1.025.36 0 .72.039 1.08.116.36.078.643.169.848.274l-.349.964c-.251-.101-.524-.183-.82-.246-.296-.069-.558-.103-.786-.103-1.522 0-2.284.971-2.284 2.912 0 .921.185 1.627.554 2.119.374.492.925.739 1.654.739.625 0 1.265-.135 1.921-.404v1.005c-.501.26-1.132.39-1.893.39Zm6.864 0c-1.108 0-1.983-.338-2.625-1.012-.638-.674-.957-1.611-.957-2.81 0-1.207.296-2.167.888-2.877.597-.711 1.397-1.067 2.4-1.067.938 0 1.681.31 2.228.93.547.615.82 1.428.82 2.44v.718h-5.161c.023.88.244 1.547.663 2.003.424.456 1.019.684 1.785.684.806 0 1.604-.169 2.392-.506v1.011c-.401.174-.781.297-1.141.37-.356.077-.787.116-1.292.116Zm-.308-6.816c-.602 0-1.082.196-1.442.588-.356.392-.566.934-.629 1.627h3.917c0-.715-.16-1.262-.479-1.64-.319-.383-.775-.575-1.367-.575ZM181.988 155v-4.847c0-.61-.139-1.066-.417-1.367-.278-.301-.713-.451-1.306-.451-.788 0-1.365.214-1.729.643-.36.428-.54 1.13-.54 2.105V155h-1.135v-10.637h1.135v3.22c0 .387-.019.709-.055.964h.068c.224-.36.54-.643.951-.848.414-.209.886-.314 1.415-.314.916 0 1.601.219 2.057.656.46.433.691 1.123.691 2.071V155h-1.135Zm9.96-3.753c0 1.221-.307 2.176-.923 2.864-.615.684-1.465 1.026-2.549 1.026-.67 0-1.265-.158-1.785-.472-.519-.314-.92-.766-1.203-1.353-.282-.588-.423-1.277-.423-2.065 0-1.221.305-2.171.916-2.851.61-.683 1.458-1.025 2.542-1.025 1.049 0 1.88.349 2.496 1.046.619.697.929 1.641.929 2.83Zm-5.708 0c0 .957.192 1.686.575 2.188.382.501.945.752 1.688.752s1.306-.249 1.688-.746c.388-.501.582-1.232.582-2.194 0-.952-.194-1.675-.582-2.167-.382-.497-.95-.745-1.702-.745-.743 0-1.303.244-1.681.731-.379.488-.568 1.215-.568 2.181ZM195.1 155h-1.135v-10.637h1.135V155Zm7.527-1.005h-.062c-.524.761-1.307 1.142-2.351 1.142-.98 0-1.743-.335-2.29-1.005-.542-.67-.814-1.623-.814-2.858s.274-2.194.821-2.878c.547-.683 1.308-1.025 2.283-1.025 1.016 0 1.796.369 2.338 1.108h.089l-.048-.541-.028-.526v-3.049h1.135V155h-.923l-.15-1.005Zm-2.27.192c.775 0 1.336-.21 1.682-.629.351-.424.526-1.106.526-2.044v-.24c0-1.061-.177-1.818-.533-2.269-.351-.456-.913-.684-1.688-.684-.666 0-1.176.26-1.531.78-.351.515-.527 1.244-.527 2.187 0 .957.176 1.679.527 2.167.35.488.865.732 1.544.732Zm8.942.95c-1.107 0-1.982-.338-2.625-1.012-.638-.674-.957-1.611-.957-2.81 0-1.207.297-2.167.889-2.877.597-.711 1.397-1.067 2.399-1.067.939 0 1.682.31 2.229.93.547.615.82 1.428.82 2.44v.718h-5.161c.023.88.244 1.547.663 2.003.424.456 1.019.684 1.784.684.807 0 1.605-.169 2.393-.506v1.011c-.401.174-.782.297-1.142.37-.355.077-.786.116-1.292.116Zm-.307-6.816c-.602 0-1.083.196-1.443.588-.355.392-.565.934-.629 1.627h3.917c0-.715-.159-1.262-.478-1.64-.319-.383-.775-.575-1.367-.575Zm8.443-.95c.332 0 .631.027.895.082l-.157 1.053c-.31-.068-.583-.103-.82-.103-.607 0-1.126.246-1.559.739-.428.492-.643 1.105-.643 1.838V155h-1.134v-7.492h.936l.13 1.388h.055c.278-.488.613-.864 1.005-1.128.392-.265.822-.397 1.292-.397Z"/><path fill="#585C65" d="M227 153.5v-8l4 4-4 4Z"/></g><g clip-path="url(#h)" opacity=".95"><path fill="#585C65" d="M414.5 188h-8l4-4 4 4Z"/><rect width="143" height="29" x="339" y="188" fill="#585C65" rx="4"/><path fill="#fff" d="M351.45 208h-1.162v-8.962h-3.165v-1.032h7.492v1.032h-3.165V208Zm10.993-3.753c0 1.221-.308 2.176-.923 2.864-.615.684-1.465 1.026-2.55 1.026-.67 0-1.264-.158-1.784-.472-.519-.314-.921-.766-1.203-1.353-.283-.588-.424-1.277-.424-2.065 0-1.221.305-2.171.916-2.851.611-.683 1.458-1.025 2.543-1.025 1.048 0 1.88.349 2.495 1.046.62.697.93 1.641.93 2.83Zm-5.708 0c0 .957.191 1.686.574 2.188.383.501.946.752 1.689.752.742 0 1.305-.249 1.688-.746.387-.501.581-1.232.581-2.194 0-.952-.194-1.675-.581-2.167-.383-.497-.95-.745-1.702-.745-.743 0-1.303.244-1.682.731-.378.488-.567 1.215-.567 2.181Zm14.192 0c0 1.221-.308 2.176-.923 2.864-.615.684-1.465 1.026-2.55 1.026-.67 0-1.265-.158-1.784-.472-.52-.314-.921-.766-1.203-1.353-.283-.588-.424-1.277-.424-2.065 0-1.221.305-2.171.916-2.851.611-.683 1.458-1.025 2.543-1.025 1.048 0 1.88.349 2.495 1.046.62.697.93 1.641.93 2.83Zm-5.708 0c0 .957.191 1.686.574 2.188.383.501.946.752 1.688.752.743 0 1.306-.249 1.689-.746.387-.501.581-1.232.581-2.194 0-.952-.194-1.675-.581-2.167-.383-.497-.95-.745-1.702-.745-.743 0-1.304.244-1.682.731-.378.488-.567 1.215-.567 2.181Zm8.86 3.753h-1.135v-10.637h1.135V208Zm4.847-.8c.2 0 .394-.013.581-.041.187-.032.335-.064.444-.096v.869c-.123.059-.305.107-.547.143-.237.041-.451.062-.642.062-1.449 0-2.174-.764-2.174-2.29v-4.457h-1.073v-.547l1.073-.472.478-1.6h.657v1.737h2.173v.882h-2.173v4.409c0 .451.107.797.321 1.039.214.241.508.362.882.362Zm3.685.8h-1.135v-7.492h1.135V208Zm-1.231-9.522c0-.26.064-.449.192-.568.127-.123.287-.184.478-.184.183 0 .34.061.472.184.132.123.198.312.198.568 0 .255-.066.446-.198.574-.132.123-.289.184-.472.184-.191 0-.351-.061-.478-.184-.128-.128-.192-.319-.192-.574Zm7.144 9.659c-.487 0-.934-.089-1.339-.267-.401-.182-.739-.46-1.012-.834h-.082c.055.438.082.852.082 1.244v3.083h-1.135v-10.855h.923l.157 1.025h.055c.292-.41.631-.706 1.018-.888.388-.183.832-.274 1.333-.274.994 0 1.76.34 2.297 1.019.543.679.814 1.631.814 2.857 0 1.231-.276 2.188-.827 2.871-.547.679-1.308 1.019-2.284 1.019Zm-.164-6.802c-.765 0-1.319.212-1.661.636-.342.424-.517 1.098-.526 2.023v.253c0 1.053.175 1.807.526 2.263.351.451.914.677 1.689.677.647 0 1.153-.263 1.517-.787.369-.524.554-1.246.554-2.167 0-.934-.185-1.649-.554-2.146-.364-.501-.879-.752-1.545-.752Zm12.429 6.802c-.488 0-.934-.089-1.34-.267-.401-.182-.738-.46-1.011-.834h-.083c.055.438.083.852.083 1.244v3.083h-1.135v-10.855h.923l.157 1.025h.055c.291-.41.631-.706 1.018-.888.387-.183.832-.274 1.333-.274.994 0 1.759.34 2.297 1.019.542.679.813 1.631.813 2.857 0 1.231-.275 2.188-.827 2.871-.547.679-1.308 1.019-2.283 1.019Zm-.164-6.802c-.766 0-1.319.212-1.661.636-.342.424-.517 1.098-.526 2.023v.253c0 1.053.175 1.807.526 2.263.351.451.914.677 1.688.677.648 0 1.153-.263 1.518-.787.369-.524.554-1.246.554-2.167 0-.934-.185-1.649-.554-2.146-.365-.501-.88-.752-1.545-.752Zm6.419 6.665h-1.134v-10.637h1.134V208Zm7.035 0-.225-1.066h-.055c-.374.469-.748.788-1.121.957-.369.164-.832.246-1.388.246-.743 0-1.326-.192-1.75-.575-.419-.382-.629-.927-.629-1.633 0-1.513 1.21-2.306 3.63-2.379l1.272-.041v-.465c0-.588-.128-1.021-.383-1.299-.251-.282-.654-.424-1.21-.424-.625 0-1.331.192-2.119.575l-.349-.869c.369-.2.772-.357 1.21-.471.442-.114.884-.171 1.326-.171.893 0 1.554.198 1.983.594.432.397.649 1.033.649 1.908V208h-.841Zm-2.563-.8c.706 0 1.26-.193 1.661-.581.405-.387.608-.93.608-1.627v-.677l-1.135.048c-.902.032-1.554.173-1.955.424-.396.246-.594.631-.594 1.155 0 .411.123.723.369.937.25.214.599.321 1.046.321Zm8.764.937c-1.085 0-1.926-.333-2.523-.998-.592-.67-.888-1.616-.888-2.837 0-1.253.3-2.222.902-2.906.606-.683 1.467-1.025 2.584-1.025.36 0 .72.039 1.08.116.36.078.643.169.848.274l-.349.964c-.251-.101-.524-.183-.82-.246-.296-.069-.558-.103-.786-.103-1.522 0-2.284.971-2.284 2.912 0 .921.185 1.627.554 2.119.374.492.925.739 1.654.739.625 0 1.265-.135 1.921-.404v1.005c-.501.26-1.132.39-1.893.39Zm6.864 0c-1.108 0-1.983-.338-2.625-1.012-.638-.674-.957-1.611-.957-2.81 0-1.207.296-2.167.888-2.877.597-.711 1.397-1.067 2.4-1.067.938 0 1.681.31 2.228.93.547.615.82 1.428.82 2.44v.718h-5.161c.023.88.244 1.547.663 2.003.424.456 1.019.684 1.785.684.806 0 1.604-.169 2.392-.506v1.011c-.401.174-.781.297-1.141.37-.356.077-.787.116-1.292.116Zm-.308-6.816c-.602 0-1.082.196-1.442.588-.356.392-.566.934-.629 1.627h3.917c0-.715-.16-1.262-.479-1.64-.319-.383-.775-.575-1.367-.575ZM436.988 208v-4.847c0-.61-.139-1.066-.417-1.367-.278-.301-.713-.451-1.306-.451-.788 0-1.365.214-1.729.643-.36.428-.54 1.13-.54 2.105V208h-1.135v-10.637h1.135v3.22c0 .387-.019.709-.055.964h.068c.224-.36.54-.643.951-.848.414-.209.886-.314 1.415-.314.916 0 1.601.219 2.057.656.46.433.691 1.123.691 2.071V208h-1.135Zm9.96-3.753c0 1.221-.307 2.176-.923 2.864-.615.684-1.465 1.026-2.549 1.026-.67 0-1.265-.158-1.785-.472-.519-.314-.92-.766-1.203-1.353-.282-.588-.423-1.277-.423-2.065 0-1.221.305-2.171.916-2.851.61-.683 1.458-1.025 2.542-1.025 1.049 0 1.88.349 2.496 1.046.619.697.929 1.641.929 2.83Zm-5.708 0c0 .957.192 1.686.575 2.188.382.501.945.752 1.688.752s1.306-.249 1.688-.746c.388-.501.582-1.232.582-2.194 0-.952-.194-1.675-.582-2.167-.382-.497-.95-.745-1.702-.745-.743 0-1.303.244-1.681.731-.379.488-.568 1.215-.568 2.181ZM450.1 208h-1.135v-10.637h1.135V208Zm7.527-1.005h-.062c-.524.761-1.307 1.142-2.351 1.142-.98 0-1.743-.335-2.29-1.005-.542-.67-.814-1.623-.814-2.858s.274-2.194.821-2.878c.547-.683 1.308-1.025 2.283-1.025 1.016 0 1.796.369 2.338 1.108h.089l-.048-.541-.028-.526v-3.049h1.135V208h-.923l-.15-1.005Zm-2.27.192c.775 0 1.336-.21 1.682-.629.351-.424.526-1.106.526-2.044v-.24c0-1.061-.177-1.818-.533-2.269-.351-.456-.913-.684-1.688-.684-.666 0-1.176.26-1.531.78-.351.515-.527 1.244-.527 2.187 0 .957.176 1.679.527 2.167.35.488.865.732 1.544.732Zm8.942.95c-1.107 0-1.982-.338-2.625-1.012-.638-.674-.957-1.611-.957-2.81 0-1.207.297-2.167.889-2.877.597-.711 1.397-1.067 2.399-1.067.939 0 1.682.31 2.229.93.547.615.82 1.428.82 2.44v.718h-5.161c.023.88.244 1.547.663 2.003.424.456 1.019.684 1.784.684.807 0 1.605-.169 2.393-.506v1.011c-.401.174-.782.297-1.142.37-.355.077-.786.116-1.292.116Zm-.307-6.816c-.602 0-1.083.196-1.443.588-.355.392-.565.934-.629 1.627h3.917c0-.715-.159-1.262-.478-1.64-.319-.383-.775-.575-1.367-.575Zm8.443-.95c.332 0 .631.027.895.082l-.157 1.053c-.31-.068-.583-.103-.82-.103-.607 0-1.126.246-1.559.739-.428.492-.643 1.105-.643 1.838V208h-1.134v-7.492h.936l.13 1.388h.055c.278-.488.613-.864 1.005-1.128.392-.265.822-.397 1.292-.397Z"/></g><defs><clipPath id="a"><path fill="#fff" d="M500 184h143v33H500z"/></clipPath><clipPath id="b"><path fill="#fff" d="M179 184h143v33H179z"/></clipPath><clipPath id="c"><path fill="#fff" d="M500 82h143v29H500z"/></clipPath><clipPath id="d"><path fill="#fff" d="M179 82h143v29H179z"/></clipPath><clipPath id="e"><path fill="#fff" d="M339 82h143v29H339z"/></clipPath><clipPath id="f"><path fill="#fff" d="M569 135h147v29H569z"/></clipPath><clipPath id="g"><path fill="#fff" d="M84 135h147v29H84z"/></clipPath><clipPath id="h"><path fill="#fff" d="M339 184h143v33H339z"/></clipPath></defs></svg>