<svg xmlns="http://www.w3.org/2000/svg" xmlns:xlink="http://www.w3.org/1999/xlink" id="tree-open-close" x="0" y="0" viewBox="0 0 790 506" xml:space="preserve" style="enable-background:new 0 0 790 506"><style>.st0{fill:#f1f1f6}.st1{fill:none;stroke:#cbcdd6}.st2{enable-background:new}.st3{fill:#fff}.st4{fill:#252a2e}.st5{fill:none}.st6{fill:#90939f}.st7{fill:none;stroke:#90939f;stroke-width:2}.st8{fill:none;stroke:#e0e1e9}.st9{opacity:0}.st10{fill:#217cbb}</style><g id="Rectangle_3463"><rect width="790" height="506" class="st0"/><rect width="789" height="505" x=".5" y=".5" class="st1"/></g><g class="st2"><path d="M45.7,35.8c-0.7,0-1.2,0.3-1.6,0.8s-0.6,1.2-0.6,2.1c0,1.9,0.7,2.9,2.2,2.9c0.6,0,1.3-0.2,2.2-0.5v1.5 c-0.7,0.3-1.5,0.4-2.4,0.4c-1.2,0-2.2-0.4-2.9-1.1s-1-1.8-1-3.3c0-0.9,0.2-1.7,0.5-2.3s0.8-1.2,1.4-1.5s1.3-0.5,2.1-0.5 c0.8,0,1.7,0.2,2.5,0.6l-0.6,1.5c-0.3-0.2-0.6-0.3-1-0.4S46,35.8,45.7,35.8z"/><path d="M57.5,38.7c0,1.4-0.4,2.5-1.1,3.3s-1.7,1.1-3,1.1s-2.3-0.4-3-1.1s-1.1-1.9-1.1-3.3s0.4-2.5,1.1-3.3s1.7-1.1,3-1.1 s2.3,0.4,3,1.1S57.5,37.3,57.5,38.7z M51.2,38.7c0,1,0.2,1.7,0.5,2.2s0.9,0.7,1.6,0.7c1.4,0,2.2-1,2.2-2.9c0-1.9-0.7-2.9-2.2-2.9 c-0.7,0-1.3,0.2-1.6,0.7S51.2,37.7,51.2,38.7z"/><path d="M59.3,43v-8.6h1.8v7.1h3.5V43H59.3z"/><path d="M66.1,43v-8.6h1.8v7.1h3.5V43H66.1z"/><path d="M78.1,43l-0.6-2h-3.1l-0.6,2h-2l3-8.6H77l3,8.6H78.1z M77,39.4c-0.6-1.8-0.9-2.9-1-3.1s-0.1-0.4-0.2-0.6 c-0.1,0.5-0.5,1.7-1.1,3.7H77z"/><path d="M87,37.1c0,0.9-0.3,1.6-0.9,2.1S84.8,40,83.7,40h-0.8v3h-1.8v-8.6h2.7c1,0,1.8,0.2,2.4,0.7S87,36.2,87,37.1z M82.9,38.5 h0.6c0.6,0,1-0.1,1.3-0.3s0.4-0.5,0.4-1c0-0.4-0.1-0.7-0.3-0.9s-0.6-0.3-1.1-0.3h-0.8V38.5z"/><path d="M93.7,40.6c0,0.8-0.3,1.4-0.8,1.8s-1.3,0.7-2.3,0.7c-0.9,0-1.7-0.2-2.4-0.5v-1.7c0.6,0.3,1.1,0.4,1.5,0.5s0.8,0.2,1.1,0.2 c0.4,0,0.7-0.1,0.9-0.2s0.3-0.4,0.3-0.7c0-0.2,0-0.3-0.1-0.4s-0.2-0.3-0.4-0.4s-0.6-0.3-1.1-0.6c-0.5-0.2-0.9-0.5-1.2-0.7 s-0.5-0.5-0.6-0.8s-0.2-0.7-0.2-1.1c0-0.8,0.3-1.4,0.8-1.8s1.2-0.7,2.1-0.7c0.4,0,0.9,0.1,1.3,0.2s0.8,0.3,1.3,0.4l-0.6,1.4 c-0.5-0.2-0.8-0.3-1.1-0.4s-0.6-0.1-0.9-0.1c-0.3,0-0.6,0.1-0.8,0.2S90,36.4,90,36.7c0,0.2,0,0.3,0.1,0.4s0.2,0.2,0.4,0.3 s0.5,0.3,1.2,0.6c0.8,0.4,1.3,0.8,1.6,1.2S93.7,40.1,93.7,40.6z"/><path d="M100.2,43h-4.9v-8.6h4.9v1.5h-3.1v1.9h2.9v1.5h-2.9v2.2h3.1V43z"/><path d="M109.1,38.6c0,1.4-0.4,2.5-1.2,3.2s-2,1.1-3.5,1.1H102v-8.6h2.7c1.4,0,2.5,0.4,3.3,1.1S109.1,37.3,109.1,38.6z M107.2,38.7 c0-1.8-0.8-2.8-2.4-2.8h-1v5.6h0.8C106.3,41.5,107.2,40.6,107.2,38.7z"/></g><g class="st2"><path d="M421,43h-4.9v-8.6h4.9v1.5h-3.1v1.9h2.9v1.5h-2.9v2.2h3.1V43z"/><path d="M429.7,43h-2.1l-2-3.2l-2,3.2h-1.9l2.8-4.4l-2.7-4.1h2l1.8,3.1l1.8-3.1h2l-2.7,4.2L429.7,43z"/><path d="M436.7,37.1c0,0.9-0.3,1.6-0.9,2.1s-1.4,0.7-2.5,0.7h-0.8v3h-1.8v-8.6h2.7c1,0,1.8,0.2,2.4,0.7S436.7,36.2,436.7,37.1z M432.6,38.5h0.6c0.6,0,1-0.1,1.3-0.3s0.4-0.5,0.4-1c0-0.4-0.1-0.7-0.3-0.9s-0.6-0.3-1.1-0.3h-0.8V38.5z"/><path d="M443.6,43l-0.6-2h-3.1l-0.6,2h-2l3-8.6h2.2l3,8.6H443.6z M442.5,39.4c-0.6-1.8-0.9-2.9-1-3.1s-0.1-0.4-0.2-0.6 c-0.1,0.5-0.5,1.7-1.1,3.7H442.5z"/><path d="M454.2,43h-2.3l-3.7-6.5h-0.1c0.1,1.1,0.1,2,0.1,2.4v4h-1.6v-8.6h2.3l3.7,6.4h0c-0.1-1.1-0.1-1.9-0.1-2.4v-4.1h1.6V43z"/><path d="M463.5,38.6c0,1.4-0.4,2.5-1.2,3.2s-2,1.1-3.5,1.1h-2.4v-8.6h2.7c1.4,0,2.5,0.4,3.3,1.1S463.5,37.3,463.5,38.6z M461.6,38.7c0-1.8-0.8-2.8-2.4-2.8h-1v5.6h0.8C460.7,41.5,461.6,40.6,461.6,38.7z"/><path d="M470.2,43h-4.9v-8.6h4.9v1.5h-3.1v1.9h2.9v1.5h-2.9v2.2h3.1V43z"/><path d="M479.1,38.6c0,1.4-0.4,2.5-1.2,3.2s-2,1.1-3.5,1.1H472v-8.6h2.7c1.4,0,2.5,0.4,3.3,1.1S479.1,37.3,479.1,38.6z M477.2,38.7 c0-1.8-0.8-2.8-2.4-2.8h-1v5.6h0.8C476.3,41.5,477.2,40.6,477.2,38.7z"/></g><g id="Group_8355" transform="translate(180 -3491)"><g id="tree-item-checkbox-level_1" transform="translate(235 3896)"><rect id="Rectangle_3345" width="320" height="48" class="st3"/><g class="st2"><path d="M85.1,30.2h-1.3V19.9h-3.6v-1.2h8.6v1.2h-3.6V30.2z" class="st4"/><path d="M94.1,21.5c0.4,0,0.7,0,1,0.1L95,22.8c-0.4-0.1-0.7-0.1-0.9-0.1c-0.7,0-1.3,0.3-1.8,0.8s-0.7,1.3-0.7,2.1 v4.6h-1.3v-8.6h1.1l0.1,1.6h0.1c0.3-0.6,0.7-1,1.1-1.3C93.1,21.6,93.6,21.5,94.1,21.5z" class="st4"/><path d="M100.4,30.3c-1.3,0-2.3-0.4-3-1.2c-0.7-0.8-1.1-1.8-1.1-3.2c0-1.4,0.3-2.5,1-3.3s1.6-1.2,2.7-1.2 c1.1,0,1.9,0.4,2.5,1.1s0.9,1.6,0.9,2.8v0.8h-5.9c0,1,0.3,1.8,0.8,2.3c0.5,0.5,1.2,0.8,2,0.8c0.9,0,1.8-0.2,2.7-0.6v1.2 c-0.5,0.2-0.9,0.3-1.3,0.4C101.4,30.3,101,30.3,100.4,30.3z M100,22.6c-0.7,0-1.2,0.2-1.6,0.7c-0.4,0.4-0.7,1.1-0.7,1.9h4.5 c0-0.8-0.2-1.4-0.5-1.9C101.2,22.8,100.7,22.6,100,22.6z" class="st4"/><path d="M109.4,30.3c-1.3,0-2.3-0.4-3-1.2c-0.7-0.8-1.1-1.8-1.1-3.2c0-1.4,0.3-2.5,1-3.3s1.6-1.2,2.7-1.2 c1.1,0,1.9,0.4,2.5,1.1s0.9,1.6,0.9,2.8v0.8h-5.9c0,1,0.3,1.8,0.8,2.3c0.5,0.5,1.2,0.8,2,0.8c0.9,0,1.8-0.2,2.7-0.6v1.2 c-0.5,0.2-0.9,0.3-1.3,0.4C110.4,30.3,109.9,30.3,109.4,30.3z M109,22.6c-0.7,0-1.2,0.2-1.6,0.7c-0.4,0.4-0.7,1.1-0.7,1.9h4.5 c0-0.8-0.2-1.4-0.5-1.9C110.2,22.8,109.7,22.6,109,22.6z" class="st4"/><path d="M119.1,30.2V18.8h1.3v11.4H119.1z" class="st4"/><path d="M126.1,29.3c0.2,0,0.5,0,0.7-0.1c0.2,0,0.4-0.1,0.5-0.1v1c-0.1,0.1-0.3,0.1-0.6,0.2s-0.5,0.1-0.7,0.1 c-1.7,0-2.5-0.9-2.5-2.6v-5.1h-1.2V22l1.2-0.5l0.5-1.8h0.8v2h2.5v1h-2.5v5c0,0.5,0.1,0.9,0.4,1.2 C125.3,29.1,125.7,29.3,126.1,29.3z" class="st4"/><path d="M132.6,30.3c-1.3,0-2.3-0.4-3-1.2c-0.7-0.8-1.1-1.8-1.1-3.2c0-1.4,0.3-2.5,1-3.3s1.6-1.2,2.7-1.2 c1.1,0,1.9,0.4,2.5,1.1s0.9,1.6,0.9,2.8v0.8h-5.9c0,1,0.3,1.8,0.8,2.3c0.5,0.5,1.2,0.8,2,0.8c0.9,0,1.8-0.2,2.7-0.6v1.2 c-0.5,0.2-0.9,0.3-1.3,0.4C133.7,30.3,133.2,30.3,132.6,30.3z M132.2,22.6c-0.7,0-1.2,0.2-1.6,0.7c-0.4,0.4-0.7,1.1-0.7,1.9h4.5 c0-0.8-0.2-1.4-0.5-1.9C133.4,22.8,132.9,22.6,132.2,22.6z" class="st4"/><path d="M148.9,30.2v-5.6c0-0.7-0.1-1.2-0.4-1.5c-0.3-0.3-0.7-0.5-1.4-0.5c-0.8,0-1.4,0.2-1.8,0.7 c-0.4,0.5-0.6,1.2-0.6,2.1v4.8h-1.3v-5.6c0-0.7-0.1-1.2-0.4-1.5c-0.3-0.3-0.7-0.5-1.4-0.5c-0.8,0-1.4,0.2-1.8,0.7 c-0.4,0.5-0.6,1.3-0.6,2.4v4.5H138v-8.6h1.1l0.2,1.2h0.1c0.2-0.4,0.6-0.7,1-1s0.9-0.4,1.5-0.4c1.3,0,2.2,0.5,2.6,1.5h0.1 c0.3-0.4,0.6-0.8,1.1-1.1s1-0.4,1.7-0.4c1,0,1.7,0.2,2.2,0.7c0.5,0.5,0.7,1.3,0.7,2.4v5.6H148.9z" class="st4"/></g><g id="Arrow_down" transform="translate(16 36) rotate(-90)"><path id="Path_3872" d="M0,0h24v24H0V0z" class="st5"/><path id="Path_3871" d="M11.8,15.5c-0.2,0-0.4-0.1-0.6-0.2L6,10.1L7.1,9l4.7,4.7L16.4,9l1.1,1.1l-5.2,5.2 C12.2,15.5,12,15.5,11.8,15.5z" class="st6"/></g><g id="Checkbox" transform="translate(48 12)"><rect id="box" width="24" height="24" class="st5"/><g id="BG"><path d="M2,0h12c1.1,0,2,0.9,2,2v12c0,1.1-0.9,2-2,2H2c-1.1,0-2-0.9-2-2V2C0,0.9,0.9,0,2,0z" class="st3" transform="translate(4 4)"/><path d="M2,1h12c0.6,0,1,0.4,1,1v12c0,0.6-0.4,1-1,1H2c-0.6,0-1-0.4-1-1V2C1,1.4,1.4,1,2,1z" class="st7" transform="translate(4 4)"/></g></g></g><g id="tree-item-checkbox-level_1-2" transform="translate(235 3847.5)"><rect id="Rectangle_3345-2" width="320" height="48" class="st3"/><line id="bottom_border" x1="0" x2="320" y1="48.5" y2="48.5" class="st8"/><line id="top_border" x1="0" x2="320" y1=".5" y2=".5" class="st8"/><g class="st2"><path d="M85.1,30.2h-1.3V19.9h-3.6v-1.2h8.6v1.2h-3.6V30.2z" class="st4"/><path d="M94.1,21.5c0.4,0,0.7,0,1,0.1L95,22.8c-0.4-0.1-0.7-0.1-0.9-0.1c-0.7,0-1.3,0.3-1.8,0.8s-0.7,1.3-0.7,2.1 v4.6h-1.3v-8.6h1.1l0.1,1.6h0.1c0.3-0.6,0.7-1,1.1-1.3C93.1,21.6,93.6,21.5,94.1,21.5z" class="st4"/><path d="M100.4,30.3c-1.3,0-2.3-0.4-3-1.2c-0.7-0.8-1.1-1.8-1.1-3.2c0-1.4,0.3-2.5,1-3.3s1.6-1.2,2.7-1.2 c1.1,0,1.9,0.4,2.5,1.1s0.9,1.6,0.9,2.8v0.8h-5.9c0,1,0.3,1.8,0.8,2.3c0.5,0.5,1.2,0.8,2,0.8c0.9,0,1.8-0.2,2.7-0.6v1.2 c-0.5,0.2-0.9,0.3-1.3,0.4C101.4,30.3,101,30.3,100.4,30.3z M100,22.6c-0.7,0-1.2,0.2-1.6,0.7c-0.4,0.4-0.7,1.1-0.7,1.9h4.5 c0-0.8-0.2-1.4-0.5-1.9C101.2,22.8,100.7,22.6,100,22.6z" class="st4"/><path d="M109.4,30.3c-1.3,0-2.3-0.4-3-1.2c-0.7-0.8-1.1-1.8-1.1-3.2c0-1.4,0.3-2.5,1-3.3s1.6-1.2,2.7-1.2 c1.1,0,1.9,0.4,2.5,1.1s0.9,1.6,0.9,2.8v0.8h-5.9c0,1,0.3,1.8,0.8,2.3c0.5,0.5,1.2,0.8,2,0.8c0.9,0,1.8-0.2,2.7-0.6v1.2 c-0.5,0.2-0.9,0.3-1.3,0.4C110.4,30.3,109.9,30.3,109.4,30.3z M109,22.6c-0.7,0-1.2,0.2-1.6,0.7c-0.4,0.4-0.7,1.1-0.7,1.9h4.5 c0-0.8-0.2-1.4-0.5-1.9C110.2,22.8,109.7,22.6,109,22.6z" class="st4"/><path d="M119.1,30.2V18.8h1.3v11.4H119.1z" class="st4"/><path d="M126.1,29.3c0.2,0,0.5,0,0.7-0.1c0.2,0,0.4-0.1,0.5-0.1v1c-0.1,0.1-0.3,0.1-0.6,0.2s-0.5,0.1-0.7,0.1 c-1.7,0-2.5-0.9-2.5-2.6v-5.1h-1.2V22l1.2-0.5l0.5-1.8h0.8v2h2.5v1h-2.5v5c0,0.5,0.1,0.9,0.4,1.2 C125.3,29.1,125.7,29.3,126.1,29.3z" class="st4"/><path d="M132.6,30.3c-1.3,0-2.3-0.4-3-1.2c-0.7-0.8-1.1-1.8-1.1-3.2c0-1.4,0.3-2.5,1-3.3s1.6-1.2,2.7-1.2 c1.1,0,1.9,0.4,2.5,1.1s0.9,1.6,0.9,2.8v0.8h-5.9c0,1,0.3,1.8,0.8,2.3c0.5,0.5,1.2,0.8,2,0.8c0.9,0,1.8-0.2,2.7-0.6v1.2 c-0.5,0.2-0.9,0.3-1.3,0.4C133.7,30.3,133.2,30.3,132.6,30.3z M132.2,22.6c-0.7,0-1.2,0.2-1.6,0.7c-0.4,0.4-0.7,1.1-0.7,1.9h4.5 c0-0.8-0.2-1.4-0.5-1.9C133.4,22.8,132.9,22.6,132.2,22.6z" class="st4"/><path d="M148.9,30.2v-5.6c0-0.7-0.1-1.2-0.4-1.5c-0.3-0.3-0.7-0.5-1.4-0.5c-0.8,0-1.4,0.2-1.8,0.7 c-0.4,0.5-0.6,1.2-0.6,2.1v4.8h-1.3v-5.6c0-0.7-0.1-1.2-0.4-1.5c-0.3-0.3-0.7-0.5-1.4-0.5c-0.8,0-1.4,0.2-1.8,0.7 c-0.4,0.5-0.6,1.3-0.6,2.4v4.5H138v-8.6h1.1l0.2,1.2h0.1c0.2-0.4,0.6-0.7,1-1s0.9-0.4,1.5-0.4c1.3,0,2.2,0.5,2.6,1.5h0.1 c0.3-0.4,0.6-0.8,1.1-1.1s1-0.4,1.7-0.4c1,0,1.7,0.2,2.2,0.7c0.5,0.5,0.7,1.3,0.7,2.4v5.6H148.9z" class="st4"/></g><g id="Arrow_down-2" transform="translate(16 36) rotate(-90)"><path id="Path_3872-2" d="M0,0h24v24H0V0z" class="st5"/><path id="Path_3871-2" d="M11.8,15.5c-0.2,0-0.4-0.1-0.6-0.2L6,10.1L7.1,9l4.7,4.7L16.4,9l1.1,1.1l-5.2,5.2 C12.2,15.5,12,15.5,11.8,15.5z" class="st6"/></g><g id="Checkbox-2" transform="translate(48 12)"><rect id="box-2" width="24" height="24" class="st5"/><g id="BG-2"><path d="M2,0h12c1.1,0,2,0.9,2,2v12c0,1.1-0.9,2-2,2H2c-1.1,0-2-0.9-2-2V2C0,0.9,0.9,0,2,0z" class="st3" transform="translate(4 4)"/><path d="M2,1h12c0.6,0,1,0.4,1,1v12c0,0.6-0.4,1-1,1H2c-0.6,0-1-0.4-1-1V2C1,1.4,1.4,1,2,1z" class="st7" transform="translate(4 4)"/></g></g></g><g id="tree-item-checkbox-level_1-3" transform="translate(235 3799)"><rect id="Rectangle_3345-3" width="320" height="48" class="st3"/><line id="bottom_border-2" x1="0" x2="320" y1="48.5" y2="48.5" class="st8"/><g class="st2"><path d="M179.1,30.2h-1.3V19.9h-3.6v-1.2h8.6v1.2h-3.6V30.2z" class="st4"/><path d="M188.1,21.5c0.4,0,0.7,0,1,0.1l-0.2,1.2c-0.4-0.1-0.7-0.1-0.9-0.1c-0.7,0-1.3,0.3-1.8,0.8s-0.7,1.3-0.7,2.1 v4.6h-1.3v-8.6h1.1l0.1,1.6h0.1c0.3-0.6,0.7-1,1.1-1.3C187.1,21.6,187.6,21.5,188.1,21.5z" class="st4"/><path d="M194.4,30.3c-1.3,0-2.3-0.4-3-1.2c-0.7-0.8-1.1-1.8-1.1-3.2c0-1.4,0.3-2.5,1-3.3s1.6-1.2,2.7-1.2 c1.1,0,1.9,0.4,2.5,1.1s0.9,1.6,0.9,2.8v0.8h-5.9c0,1,0.3,1.8,0.8,2.3c0.5,0.5,1.2,0.8,2,0.8c0.9,0,1.8-0.2,2.7-0.6v1.2 c-0.5,0.2-0.9,0.3-1.3,0.4C195.4,30.3,195,30.3,194.4,30.3z M194,22.6c-0.7,0-1.2,0.2-1.6,0.7c-0.4,0.4-0.7,1.1-0.7,1.9h4.5 c0-0.8-0.2-1.4-0.5-1.9C195.2,22.8,194.7,22.6,194,22.6z" class="st4"/><path d="M203.4,30.3c-1.3,0-2.3-0.4-3-1.2c-0.7-0.8-1.1-1.8-1.1-3.2c0-1.4,0.3-2.5,1-3.3s1.6-1.2,2.7-1.2 c1.1,0,1.9,0.4,2.5,1.1s0.9,1.6,0.9,2.8v0.8h-5.9c0,1,0.3,1.8,0.8,2.3c0.5,0.5,1.2,0.8,2,0.8c0.9,0,1.8-0.2,2.7-0.6v1.2 c-0.5,0.2-0.9,0.3-1.3,0.4C204.4,30.3,203.9,30.3,203.4,30.3z M203,22.6c-0.7,0-1.2,0.2-1.6,0.7c-0.4,0.4-0.7,1.1-0.7,1.9h4.5 c0-0.8-0.2-1.4-0.5-1.9C204.2,22.8,203.7,22.6,203,22.6z" class="st4"/><path d="M213.1,30.2V18.8h1.3v11.4H213.1z" class="st4"/><path d="M220.1,29.3c0.2,0,0.5,0,0.7-0.1c0.2,0,0.4-0.1,0.5-0.1v1c-0.1,0.1-0.3,0.1-0.6,0.2s-0.5,0.1-0.7,0.1 c-1.7,0-2.5-0.9-2.5-2.6v-5.1h-1.2V22l1.2-0.5l0.5-1.8h0.8v2h2.5v1h-2.5v5c0,0.5,0.1,0.9,0.4,1.2 C219.3,29.1,219.7,29.3,220.1,29.3z" class="st4"/><path d="M226.6,30.3c-1.3,0-2.3-0.4-3-1.2c-0.7-0.8-1.1-1.8-1.1-3.2c0-1.4,0.3-2.5,1-3.3s1.6-1.2,2.7-1.2 c1.1,0,1.9,0.4,2.5,1.1s0.9,1.6,0.9,2.8v0.8h-5.9c0,1,0.3,1.8,0.8,2.3c0.5,0.5,1.2,0.8,2,0.8c0.9,0,1.8-0.2,2.7-0.6v1.2 c-0.5,0.2-0.9,0.3-1.3,0.4C227.7,30.3,227.2,30.3,226.6,30.3z M226.2,22.6c-0.7,0-1.2,0.2-1.6,0.7c-0.4,0.4-0.7,1.1-0.7,1.9h4.5 c0-0.8-0.2-1.4-0.5-1.9C227.4,22.8,226.9,22.6,226.2,22.6z" class="st4"/><path d="M242.9,30.2v-5.6c0-0.7-0.1-1.2-0.4-1.5c-0.3-0.3-0.7-0.5-1.4-0.5c-0.8,0-1.4,0.2-1.8,0.7 c-0.4,0.5-0.6,1.2-0.6,2.1v4.8h-1.3v-5.6c0-0.7-0.1-1.2-0.4-1.5c-0.3-0.3-0.7-0.5-1.4-0.5c-0.8,0-1.4,0.2-1.8,0.7 c-0.4,0.5-0.6,1.3-0.6,2.4v4.5H232v-8.6h1.1l0.2,1.2h0.1c0.2-0.4,0.6-0.7,1-1s0.9-0.4,1.5-0.4c1.3,0,2.2,0.5,2.6,1.5h0.1 c0.3-0.4,0.6-0.8,1.1-1.1s1-0.4,1.7-0.4c1,0,1.7,0.2,2.2,0.7c0.5,0.5,0.7,1.3,0.7,2.4v5.6H242.9z" class="st4"/></g><g id="Arrow_down-3" class="st9" transform="translate(80 12)"><path id="Path_3872-3" d="M0,0h24v24H0V0z" class="st5"/><path id="Path_3871-3" d="M11.8,15.5c-0.2,0-0.4-0.1-0.6-0.2L6,10.1L7.1,9l4.7,4.7L16.4,9l1.1,1.1l-5.2,5.2 C12.2,15.5,12,15.5,11.8,15.5z" class="st6"/></g><g id="Checkbox-3" transform="translate(142 12)"><rect id="box-3" width="24" height="24" class="st5"/><g id="BG-3"><path d="M2,0h12c1.1,0,2,0.9,2,2v12c0,1.1-0.9,2-2,2H2c-1.1,0-2-0.9-2-2V2C0,0.9,0.9,0,2,0z" class="st3" transform="translate(4 4)"/><path d="M2,1h12c0.6,0,1,0.4,1,1v12c0,0.6-0.4,1-1,1H2c-0.6,0-1-0.4-1-1V2C1,1.4,1.4,1,2,1z" class="st7" transform="translate(4 4)"/></g></g></g><g id="tree-item-checkbox-level_1-4" transform="translate(235 3751)"><rect id="Rectangle_3345-4" width="320" height="48" class="st3"/><g class="st2"><path d="M179.1,30.2h-1.3V19.9h-3.6v-1.2h8.6v1.2h-3.6V30.2z" class="st4"/><path d="M188.1,21.5c0.4,0,0.7,0,1,0.1l-0.2,1.2c-0.4-0.1-0.7-0.1-0.9-0.1c-0.7,0-1.3,0.3-1.8,0.8s-0.7,1.3-0.7,2.1 v4.6h-1.3v-8.6h1.1l0.1,1.6h0.1c0.3-0.6,0.7-1,1.1-1.3C187.1,21.6,187.6,21.5,188.1,21.5z" class="st4"/><path d="M194.4,30.3c-1.3,0-2.3-0.4-3-1.2c-0.7-0.8-1.1-1.8-1.1-3.2c0-1.4,0.3-2.5,1-3.3s1.6-1.2,2.7-1.2 c1.1,0,1.9,0.4,2.5,1.1s0.9,1.6,0.9,2.8v0.8h-5.9c0,1,0.3,1.8,0.8,2.3c0.5,0.5,1.2,0.8,2,0.8c0.9,0,1.8-0.2,2.7-0.6v1.2 c-0.5,0.2-0.9,0.3-1.3,0.4C195.4,30.3,195,30.3,194.4,30.3z M194,22.6c-0.7,0-1.2,0.2-1.6,0.7c-0.4,0.4-0.7,1.1-0.7,1.9h4.5 c0-0.8-0.2-1.4-0.5-1.9C195.2,22.8,194.7,22.6,194,22.6z" class="st4"/><path d="M203.4,30.3c-1.3,0-2.3-0.4-3-1.2c-0.7-0.8-1.1-1.8-1.1-3.2c0-1.4,0.3-2.5,1-3.3s1.6-1.2,2.7-1.2 c1.1,0,1.9,0.4,2.5,1.1s0.9,1.6,0.9,2.8v0.8h-5.9c0,1,0.3,1.8,0.8,2.3c0.5,0.5,1.2,0.8,2,0.8c0.9,0,1.8-0.2,2.7-0.6v1.2 c-0.5,0.2-0.9,0.3-1.3,0.4C204.4,30.3,203.9,30.3,203.4,30.3z M203,22.6c-0.7,0-1.2,0.2-1.6,0.7c-0.4,0.4-0.7,1.1-0.7,1.9h4.5 c0-0.8-0.2-1.4-0.5-1.9C204.2,22.8,203.7,22.6,203,22.6z" class="st4"/><path d="M213.1,30.2V18.8h1.3v11.4H213.1z" class="st4"/><path d="M220.1,29.3c0.2,0,0.5,0,0.7-0.1c0.2,0,0.4-0.1,0.5-0.1v1c-0.1,0.1-0.3,0.1-0.6,0.2s-0.5,0.1-0.7,0.1 c-1.7,0-2.5-0.9-2.5-2.6v-5.1h-1.2V22l1.2-0.5l0.5-1.8h0.8v2h2.5v1h-2.5v5c0,0.5,0.1,0.9,0.4,1.2 C219.3,29.1,219.7,29.3,220.1,29.3z" class="st4"/><path d="M226.6,30.3c-1.3,0-2.3-0.4-3-1.2c-0.7-0.8-1.1-1.8-1.1-3.2c0-1.4,0.3-2.5,1-3.3s1.6-1.2,2.7-1.2 c1.1,0,1.9,0.4,2.5,1.1s0.9,1.6,0.9,2.8v0.8h-5.9c0,1,0.3,1.8,0.8,2.3c0.5,0.5,1.2,0.8,2,0.8c0.9,0,1.8-0.2,2.7-0.6v1.2 c-0.5,0.2-0.9,0.3-1.3,0.4C227.7,30.3,227.2,30.3,226.6,30.3z M226.2,22.6c-0.7,0-1.2,0.2-1.6,0.7c-0.4,0.4-0.7,1.1-0.7,1.9h4.5 c0-0.8-0.2-1.4-0.5-1.9C227.4,22.8,226.9,22.6,226.2,22.6z" class="st4"/><path d="M242.9,30.2v-5.6c0-0.7-0.1-1.2-0.4-1.5c-0.3-0.3-0.7-0.5-1.4-0.5c-0.8,0-1.4,0.2-1.8,0.7 c-0.4,0.5-0.6,1.2-0.6,2.1v4.8h-1.3v-5.6c0-0.7-0.1-1.2-0.4-1.5c-0.3-0.3-0.7-0.5-1.4-0.5c-0.8,0-1.4,0.2-1.8,0.7 c-0.4,0.5-0.6,1.3-0.6,2.4v4.5H232v-8.6h1.1l0.2,1.2h0.1c0.2-0.4,0.6-0.7,1-1s0.9-0.4,1.5-0.4c1.3,0,2.2,0.5,2.6,1.5h0.1 c0.3-0.4,0.6-0.8,1.1-1.1s1-0.4,1.7-0.4c1,0,1.7,0.2,2.2,0.7c0.5,0.5,0.7,1.3,0.7,2.4v5.6H242.9z" class="st4"/></g><g id="Arrow_down-4" class="st9" transform="translate(110 36) rotate(-90)"><path id="Path_3872-4" d="M0,0h24v24H0V0z" class="st5"/><path id="Path_3871-4" d="M11.8,15.5c-0.2,0-0.4-0.1-0.6-0.2L6,10.1L7.1,9l4.7,4.7L16.4,9l1.1,1.1l-5.2,5.2 C12.2,15.5,12,15.5,11.8,15.5z" class="st6"/></g><g id="Checkbox-4" transform="translate(142 12)"><rect id="box-4" width="24" height="24" class="st5"/><path id="BG-4" d="M6,4h12c1.1,0,2,0.9,2,2v12c0,1.1-0.9,2-2,2H6c-1.1,0-2-0.9-2-2V6C4,4.9,4.9,4,6,4z" class="st10"/><path id="Check" d="M10.4,16l-4-4l1.1-1.1l2.9,2.9l6.1-6.1l1.1,1.1L10.4,16z" class="st3"/></g></g><g id="tree-item-checkbox-level_1-5" transform="translate(235 3703)"><rect id="Rectangle_3345-5" width="320" height="48" class="st3"/><g class="st2"><path d="M179.1,30.2h-1.3V19.9h-3.6v-1.2h8.6v1.2h-3.6V30.2z" class="st4"/><path d="M188.1,21.5c0.4,0,0.7,0,1,0.1l-0.2,1.2c-0.4-0.1-0.7-0.1-0.9-0.1c-0.7,0-1.3,0.3-1.8,0.8s-0.7,1.3-0.7,2.1 v4.6h-1.3v-8.6h1.1l0.1,1.6h0.1c0.3-0.6,0.7-1,1.1-1.3C187.1,21.6,187.6,21.5,188.1,21.5z" class="st4"/><path d="M194.4,30.3c-1.3,0-2.3-0.4-3-1.2c-0.7-0.8-1.1-1.8-1.1-3.2c0-1.4,0.3-2.5,1-3.3s1.6-1.2,2.7-1.2 c1.1,0,1.9,0.4,2.5,1.1s0.9,1.6,0.9,2.8v0.8h-5.9c0,1,0.3,1.8,0.8,2.3c0.5,0.5,1.2,0.8,2,0.8c0.9,0,1.8-0.2,2.7-0.6v1.2 c-0.5,0.2-0.9,0.3-1.3,0.4C195.4,30.3,195,30.3,194.4,30.3z M194,22.6c-0.7,0-1.2,0.2-1.6,0.7c-0.4,0.4-0.7,1.1-0.7,1.9h4.5 c0-0.8-0.2-1.4-0.5-1.9C195.2,22.8,194.7,22.6,194,22.6z" class="st4"/><path d="M203.4,30.3c-1.3,0-2.3-0.4-3-1.2c-0.7-0.8-1.1-1.8-1.1-3.2c0-1.4,0.3-2.5,1-3.3s1.6-1.2,2.7-1.2 c1.1,0,1.9,0.4,2.5,1.1s0.9,1.6,0.9,2.8v0.8h-5.9c0,1,0.3,1.8,0.8,2.3c0.5,0.5,1.2,0.8,2,0.8c0.9,0,1.8-0.2,2.7-0.6v1.2 c-0.5,0.2-0.9,0.3-1.3,0.4C204.4,30.3,203.9,30.3,203.4,30.3z M203,22.6c-0.7,0-1.2,0.2-1.6,0.7c-0.4,0.4-0.7,1.1-0.7,1.9h4.5 c0-0.8-0.2-1.4-0.5-1.9C204.2,22.8,203.7,22.6,203,22.6z" class="st4"/><path d="M213.1,30.2V18.8h1.3v11.4H213.1z" class="st4"/><path d="M220.1,29.3c0.2,0,0.5,0,0.7-0.1c0.2,0,0.4-0.1,0.5-0.1v1c-0.1,0.1-0.3,0.1-0.6,0.2s-0.5,0.1-0.7,0.1 c-1.7,0-2.5-0.9-2.5-2.6v-5.1h-1.2V22l1.2-0.5l0.5-1.8h0.8v2h2.5v1h-2.5v5c0,0.5,0.1,0.9,0.4,1.2 C219.3,29.1,219.7,29.3,220.1,29.3z" class="st4"/><path d="M226.6,30.3c-1.3,0-2.3-0.4-3-1.2c-0.7-0.8-1.1-1.8-1.1-3.2c0-1.4,0.3-2.5,1-3.3s1.6-1.2,2.7-1.2 c1.1,0,1.9,0.4,2.5,1.1s0.9,1.6,0.9,2.8v0.8h-5.9c0,1,0.3,1.8,0.8,2.3c0.5,0.5,1.2,0.8,2,0.8c0.9,0,1.8-0.2,2.7-0.6v1.2 c-0.5,0.2-0.9,0.3-1.3,0.4C227.7,30.3,227.2,30.3,226.6,30.3z M226.2,22.6c-0.7,0-1.2,0.2-1.6,0.7c-0.4,0.4-0.7,1.1-0.7,1.9h4.5 c0-0.8-0.2-1.4-0.5-1.9C227.4,22.8,226.9,22.6,226.2,22.6z" class="st4"/><path d="M242.9,30.2v-5.6c0-0.7-0.1-1.2-0.4-1.5c-0.3-0.3-0.7-0.5-1.4-0.5c-0.8,0-1.4,0.2-1.8,0.7 c-0.4,0.5-0.6,1.2-0.6,2.1v4.8h-1.3v-5.6c0-0.7-0.1-1.2-0.4-1.5c-0.3-0.3-0.7-0.5-1.4-0.5c-0.8,0-1.4,0.2-1.8,0.7 c-0.4,0.5-0.6,1.3-0.6,2.4v4.5H232v-8.6h1.1l0.2,1.2h0.1c0.2-0.4,0.6-0.7,1-1s0.9-0.4,1.5-0.4c1.3,0,2.2,0.5,2.6,1.5h0.1 c0.3-0.4,0.6-0.8,1.1-1.1s1-0.4,1.7-0.4c1,0,1.7,0.2,2.2,0.7c0.5,0.5,0.7,1.3,0.7,2.4v5.6H242.9z" class="st4"/></g><g id="Arrow_down-5" class="st9" transform="translate(80 12)"><path id="Path_3872-5" d="M0,0h24v24H0V0z" class="st5"/><path id="Path_3871-5" d="M11.8,15.5c-0.2,0-0.4-0.1-0.6-0.2L6,10.1L7.1,9l4.7,4.7L16.4,9l1.1,1.1l-5.2,5.2 C12.2,15.5,12,15.5,11.8,15.5z" class="st6"/></g><g id="Checkbox-5" transform="translate(142 12)"><rect id="box-5" width="24" height="24" class="st5"/><g id="BG-5"><path d="M2,0h12c1.1,0,2,0.9,2,2v12c0,1.1-0.9,2-2,2H2c-1.1,0-2-0.9-2-2V2C0,0.9,0.9,0,2,0z" class="st3" transform="translate(4 4)"/><path d="M2,1h12c0.6,0,1,0.4,1,1v12c0,0.6-0.4,1-1,1H2c-0.6,0-1-0.4-1-1V2C1,1.4,1.4,1,2,1z" class="st7" transform="translate(4 4)"/></g></g></g><g id="tree-item-checkbox-level_1-6" transform="translate(235 3655)"><rect id="Rectangle_3345-6" width="320" height="48" class="st3"/><g class="st2"><path d="M149.1,30.2h-1.3V19.9h-3.6v-1.2h8.6v1.2h-3.6V30.2z" class="st4"/><path d="M158.1,21.5c0.4,0,0.7,0,1,0.1l-0.2,1.2c-0.4-0.1-0.7-0.1-0.9-0.1c-0.7,0-1.3,0.3-1.8,0.8s-0.7,1.3-0.7,2.1 v4.6h-1.3v-8.6h1.1l0.1,1.6h0.1c0.3-0.6,0.7-1,1.1-1.3C157.1,21.6,157.6,21.5,158.1,21.5z" class="st4"/><path d="M164.4,30.3c-1.3,0-2.3-0.4-3-1.2c-0.7-0.8-1.1-1.8-1.1-3.2c0-1.4,0.3-2.5,1-3.3s1.6-1.2,2.7-1.2 c1.1,0,1.9,0.4,2.5,1.1s0.9,1.6,0.9,2.8v0.8h-5.9c0,1,0.3,1.8,0.8,2.3c0.5,0.5,1.2,0.8,2,0.8c0.9,0,1.8-0.2,2.7-0.6v1.2 c-0.5,0.2-0.9,0.3-1.3,0.4C165.4,30.3,165,30.3,164.4,30.3z M164,22.6c-0.7,0-1.2,0.2-1.6,0.7c-0.4,0.4-0.7,1.1-0.7,1.9h4.5 c0-0.8-0.2-1.4-0.5-1.9C165.2,22.8,164.7,22.6,164,22.6z" class="st4"/><path d="M173.4,30.3c-1.3,0-2.3-0.4-3-1.2c-0.7-0.8-1.1-1.8-1.1-3.2c0-1.4,0.3-2.5,1-3.3s1.6-1.2,2.7-1.2 c1.1,0,1.9,0.4,2.5,1.1s0.9,1.6,0.9,2.8v0.8h-5.9c0,1,0.3,1.8,0.8,2.3c0.5,0.5,1.2,0.8,2,0.8c0.9,0,1.8-0.2,2.7-0.6v1.2 c-0.5,0.2-0.9,0.3-1.3,0.4C174.4,30.3,173.9,30.3,173.4,30.3z M173,22.6c-0.7,0-1.2,0.2-1.6,0.7c-0.4,0.4-0.7,1.1-0.7,1.9h4.5 c0-0.8-0.2-1.4-0.5-1.9C174.2,22.8,173.7,22.6,173,22.6z" class="st4"/><path d="M183.1,30.2V18.8h1.3v11.4H183.1z" class="st4"/><path d="M190.1,29.3c0.2,0,0.5,0,0.7-0.1c0.2,0,0.4-0.1,0.5-0.1v1c-0.1,0.1-0.3,0.1-0.6,0.2s-0.5,0.1-0.7,0.1 c-1.7,0-2.5-0.9-2.5-2.6v-5.1h-1.2V22l1.2-0.5l0.5-1.8h0.8v2h2.5v1h-2.5v5c0,0.5,0.1,0.9,0.4,1.2 C189.3,29.1,189.7,29.3,190.1,29.3z" class="st4"/><path d="M196.6,30.3c-1.3,0-2.3-0.4-3-1.2c-0.7-0.8-1.1-1.8-1.1-3.2c0-1.4,0.3-2.5,1-3.3s1.6-1.2,2.7-1.2 c1.1,0,1.9,0.4,2.5,1.1s0.9,1.6,0.9,2.8v0.8h-5.9c0,1,0.3,1.8,0.8,2.3c0.5,0.5,1.2,0.8,2,0.8c0.9,0,1.8-0.2,2.7-0.6v1.2 c-0.5,0.2-0.9,0.3-1.3,0.4C197.7,30.3,197.2,30.3,196.6,30.3z M196.2,22.6c-0.7,0-1.2,0.2-1.6,0.7c-0.4,0.4-0.7,1.1-0.7,1.9h4.5 c0-0.8-0.2-1.4-0.5-1.9C197.4,22.8,196.9,22.6,196.2,22.6z" class="st4"/><path d="M212.9,30.2v-5.6c0-0.7-0.1-1.2-0.4-1.5c-0.3-0.3-0.7-0.5-1.4-0.5c-0.8,0-1.4,0.2-1.8,0.7 c-0.4,0.5-0.6,1.2-0.6,2.1v4.8h-1.3v-5.6c0-0.7-0.1-1.2-0.4-1.5c-0.3-0.3-0.7-0.5-1.4-0.5c-0.8,0-1.4,0.2-1.8,0.7 c-0.4,0.5-0.6,1.3-0.6,2.4v4.5H202v-8.6h1.1l0.2,1.2h0.1c0.2-0.4,0.6-0.7,1-1s0.9-0.4,1.5-0.4c1.3,0,2.2,0.5,2.6,1.5h0.1 c0.3-0.4,0.6-0.8,1.1-1.1s1-0.4,1.7-0.4c1,0,1.7,0.2,2.2,0.7c0.5,0.5,0.7,1.3,0.7,2.4v5.6H212.9z" class="st4"/></g><g id="Arrow_down-6" transform="translate(80 12)"><path id="Path_3872-6" d="M0,0h24v24H0V0z" class="st5"/><path id="Path_3871-6" d="M11.8,15.5c-0.2,0-0.4-0.1-0.6-0.2L6,10.1L7.1,9l4.7,4.7L16.4,9l1.1,1.1l-5.2,5.2 C12.2,15.5,12,15.5,11.8,15.5z" class="st6"/></g><g id="Checkbox-6" transform="translate(112 12)"><rect id="box-6" width="24" height="24" class="st5"/><g id="BG-6"><path d="M2,0h12c1.1,0,2,0.9,2,2v12c0,1.1-0.9,2-2,2H2c-1.1,0-2-0.9-2-2V2C0,0.9,0.9,0,2,0z" class="st3" transform="translate(4 4)"/><path d="M2,1h12c0.6,0,1,0.4,1,1v12c0,0.6-0.4,1-1,1H2c-0.6,0-1-0.4-1-1V2C1,1.4,1.4,1,2,1z" class="st7" transform="translate(4 4)"/></g></g></g><g id="tree-item-checkbox-level_1-7" transform="translate(235 3607)"><rect id="Rectangle_3345-7" width="320" height="48" class="st3"/><g class="st2"><path d="M117.5,30.2h-1.9v-9.8h-3.4v-1.6h8.6v1.6h-3.4V30.2z" class="st4"/><path d="M126.8,21.4c0.4,0,0.7,0,0.9,0.1l-0.2,1.7c-0.3-0.1-0.5-0.1-0.8-0.1c-0.7,0-1.3,0.2-1.8,0.7 c-0.5,0.5-0.7,1.1-0.7,1.9v4.5h-1.8v-8.6h1.4l0.2,1.5h0.1c0.3-0.5,0.7-0.9,1.1-1.2S126.2,21.4,126.8,21.4z" class="st4"/><path d="M133,30.3c-1.3,0-2.4-0.4-3.2-1.2s-1.1-1.9-1.1-3.2c0-1.4,0.4-2.5,1.1-3.3s1.7-1.2,2.9-1.2 c1.1,0,2,0.3,2.7,1c0.7,0.7,1,1.6,1,2.9v1h-5.8c0,0.8,0.3,1.5,0.7,1.9c0.4,0.5,1,0.7,1.8,0.7c0.5,0,1,0,1.4-0.1 c0.4-0.1,0.9-0.3,1.4-0.5v1.5c-0.4,0.2-0.9,0.4-1.4,0.5C134.2,30.3,133.6,30.3,133,30.3z M132.7,22.8c-0.6,0-1.1,0.2-1.4,0.6 s-0.6,0.9-0.6,1.6h3.9c0-0.7-0.2-1.3-0.5-1.6C133.7,23,133.3,22.8,132.7,22.8z" class="st4"/><path d="M142.3,30.3c-1.3,0-2.4-0.4-3.2-1.2s-1.1-1.9-1.1-3.2c0-1.4,0.4-2.5,1.1-3.3s1.7-1.2,2.9-1.2 c1.1,0,2,0.3,2.7,1c0.7,0.7,1,1.6,1,2.9v1h-5.8c0,0.8,0.3,1.5,0.7,1.9c0.4,0.5,1,0.7,1.8,0.7c0.5,0,1,0,1.4-0.1 c0.4-0.1,0.9-0.3,1.4-0.5v1.5c-0.4,0.2-0.9,0.4-1.4,0.5C143.4,30.3,142.8,30.3,142.3,30.3z M141.9,22.8c-0.6,0-1.1,0.2-1.4,0.6 s-0.6,0.9-0.6,1.6h3.9c0-0.7-0.2-1.3-0.5-1.6C143,23,142.5,22.8,141.9,22.8z" class="st4"/><path d="M152.1,30.2V18.8h1.9v11.4H152.1z" class="st4"/><path d="M160,28.9c0.4,0,0.9-0.1,1.3-0.2V30c-0.2,0.1-0.5,0.2-0.8,0.2s-0.7,0.1-1,0.1c-1.7,0-2.6-0.9-2.6-2.8v-4.7 h-1.2v-0.8l1.3-0.7l0.6-1.8h1.1v1.9h2.5v1.4h-2.5v4.6c0,0.4,0.1,0.8,0.3,1C159.3,28.8,159.6,28.9,160,28.9z" class="st4"/><path d="M166.8,30.3c-1.3,0-2.4-0.4-3.2-1.2s-1.1-1.9-1.1-3.2c0-1.4,0.4-2.5,1.1-3.3s1.7-1.2,2.9-1.2 c1.1,0,2,0.3,2.7,1c0.7,0.7,1,1.6,1,2.9v1h-5.8c0,0.8,0.3,1.5,0.7,1.9c0.4,0.5,1,0.7,1.8,0.7c0.5,0,1,0,1.4-0.1 c0.4-0.1,0.9-0.3,1.4-0.5v1.5c-0.4,0.2-0.9,0.4-1.4,0.5C167.9,30.3,167.4,30.3,166.8,30.3z M166.5,22.8c-0.6,0-1.1,0.2-1.4,0.6 s-0.6,0.9-0.6,1.6h3.9c0-0.7-0.2-1.3-0.5-1.6C167.5,23,167.1,22.8,166.5,22.8z" class="st4"/><path d="M179.5,30.2h-1.8v-5.3c0-0.7-0.1-1.2-0.4-1.5s-0.6-0.5-1.2-0.5c-0.7,0-1.2,0.2-1.6,0.7 c-0.3,0.5-0.5,1.2-0.5,2.3v4.3h-1.8v-8.6h1.4l0.3,1.1h0.1c0.2-0.4,0.6-0.7,1-1c0.5-0.2,1-0.3,1.5-0.3c1.3,0,2.2,0.5,2.6,1.4h0.1 c0.3-0.4,0.6-0.8,1.1-1c0.5-0.2,1-0.4,1.6-0.4c1,0,1.8,0.3,2.3,0.8c0.5,0.5,0.7,1.3,0.7,2.4v5.6h-1.8v-5.3c0-0.7-0.1-1.2-0.4-1.5 c-0.3-0.3-0.6-0.5-1.2-0.5c-0.7,0-1.2,0.2-1.6,0.7c-0.3,0.4-0.5,1.1-0.5,2.1V30.2z" class="st4"/></g><g id="Arrow_down-7" transform="translate(48 12)"><path id="Path_3872-7" d="M0,0h24v24H0V0z" class="st5"/><path id="Path_3871-7" d="M11.8,15.5c-0.2,0-0.4-0.1-0.6-0.2L6,10.1L7.1,9l4.7,4.7L16.4,9l1.1,1.1l-5.2,5.2 C12.2,15.5,12,15.5,11.8,15.5z" class="st6"/></g><g id="Checkbox-7" transform="translate(80 12)"><rect id="box-7" width="24" height="24" class="st5"/><g id="BG-7"><path d="M2,0h12c1.1,0,2,0.9,2,2v12c0,1.1-0.9,2-2,2H2c-1.1,0-2-0.9-2-2V2C0,0.9,0.9,0,2,0z" class="st3" transform="translate(4 4)"/><path d="M2,1h12c0.6,0,1,0.4,1,1v12c0,0.6-0.4,1-1,1H2c-0.6,0-1-0.4-1-1V2C1,1.4,1.4,1,2,1z" class="st7" transform="translate(4 4)"/></g></g></g><g id="tree-item-checkbox-level_1-8" transform="translate(235 3559)"><rect id="Rectangle_3345-8" width="320" height="48" class="st3"/><g class="st2"><path d="M85.8,30.2h-2.4v-9.4h-3.1v-2h8.6v2h-3.1V30.2z" class="st4"/><path d="M95.4,21.3c0.3,0,0.6,0,0.8,0.1L96,23.6c-0.2-0.1-0.4-0.1-0.7-0.1c-0.8,0-1.4,0.2-1.8,0.6 c-0.4,0.4-0.6,0.9-0.6,1.6v4.4h-2.4v-8.7h1.8l0.4,1.5h0.1c0.3-0.5,0.6-0.9,1.1-1.2S94.8,21.3,95.4,21.3z" class="st4"/><path d="M101.7,30.3c-1.4,0-2.5-0.4-3.3-1.2c-0.8-0.8-1.2-1.9-1.2-3.3c0-1.5,0.4-2.6,1.1-3.4c0.7-0.8,1.7-1.2,3-1.2 c1.2,0,2.2,0.4,2.9,1.1s1,1.7,1,2.9v1.2h-5.6c0,0.7,0.2,1.2,0.6,1.6s0.9,0.6,1.6,0.6c0.5,0,1-0.1,1.5-0.2s1-0.3,1.5-0.5v1.8 c-0.4,0.2-0.9,0.4-1.3,0.5C103,30.3,102.4,30.3,101.7,30.3z M101.4,23c-0.5,0-0.9,0.2-1.2,0.5c-0.3,0.3-0.5,0.8-0.5,1.4h3.3 c0-0.6-0.2-1-0.5-1.4S101.9,23,101.4,23z" class="st4"/><path d="M111.2,30.3c-1.4,0-2.5-0.4-3.3-1.2c-0.8-0.8-1.2-1.9-1.2-3.3c0-1.5,0.4-2.6,1.1-3.4c0.7-0.8,1.7-1.2,3-1.2 c1.2,0,2.2,0.4,2.9,1.1s1,1.7,1,2.9v1.2h-5.6c0,0.7,0.2,1.2,0.6,1.6s0.9,0.6,1.6,0.6c0.5,0,1-0.1,1.5-0.2s1-0.3,1.5-0.5v1.8 c-0.4,0.2-0.9,0.4-1.3,0.5C112.4,30.3,111.9,30.3,111.2,30.3z M110.9,23c-0.5,0-0.9,0.2-1.2,0.5c-0.3,0.3-0.5,0.8-0.5,1.4h3.3 c0-0.6-0.2-1-0.5-1.4S111.4,23,110.9,23z" class="st4"/><path d="M121,30.2V18.8h2.4v11.4H121z" class="st4"/><path d="M129.8,28.4c0.4,0,0.9-0.1,1.5-0.3v1.8c-0.6,0.3-1.3,0.4-2.2,0.4c-1,0-1.6-0.2-2.1-0.7 c-0.4-0.5-0.7-1.2-0.7-2.2v-4.2h-1.1v-1l1.3-0.8l0.7-1.8h1.5v1.9h2.4v1.8h-2.4v4.2c0,0.3,0.1,0.6,0.3,0.8 C129.3,28.4,129.5,28.4,129.8,28.4z" class="st4"/><path d="M137,30.3c-1.4,0-2.5-0.4-3.3-1.2c-0.8-0.8-1.2-1.9-1.2-3.3c0-1.5,0.4-2.6,1.1-3.4c0.7-0.8,1.7-1.2,3-1.2 c1.2,0,2.2,0.4,2.9,1.1s1,1.7,1,2.9v1.2H135c0,0.7,0.2,1.2,0.6,1.6s0.9,0.6,1.6,0.6c0.5,0,1-0.1,1.5-0.2s1-0.3,1.5-0.5v1.8 c-0.4,0.2-0.9,0.4-1.3,0.5C138.3,30.3,137.7,30.3,137,30.3z M136.7,23c-0.5,0-0.9,0.2-1.2,0.5c-0.3,0.3-0.5,0.8-0.5,1.4h3.3 c0-0.6-0.2-1-0.5-1.4S137.2,23,136.7,23z" class="st4"/><path d="M150.4,30.2H148v-5.1c0-0.6-0.1-1.1-0.3-1.4s-0.5-0.5-1-0.5c-0.6,0-1.1,0.2-1.3,0.7 c-0.3,0.4-0.4,1.2-0.4,2.2v4.1h-2.4v-8.7h1.8l0.3,1.1h0.1c0.2-0.4,0.6-0.7,1-0.9c0.4-0.2,1-0.3,1.5-0.3c1.3,0,2.2,0.4,2.7,1.3 h0.2c0.2-0.4,0.6-0.7,1-0.9c0.5-0.2,1-0.3,1.5-0.3c1,0,1.7,0.3,2.2,0.8s0.8,1.3,0.8,2.4v5.7h-2.4v-5.1c0-0.6-0.1-1.1-0.3-1.4 s-0.5-0.5-1-0.5c-0.6,0-1,0.2-1.3,0.6s-0.4,1.1-0.4,2V30.2z" class="st4"/><path d="M169.2,30.2h-6.6V18.8h6.6v2H165v2.5h3.9v2H165v2.9h4.2V30.2z" class="st4"/><path d="M173.2,25.7l-2.8-4.3h2.7l1.7,2.8l1.7-2.8h2.7l-2.8,4.3l3,4.5h-2.7l-1.8-3l-1.8,3h-2.7L173.2,25.7z" class="st4"/><path d="M185.4,30.3c-1,0-1.8-0.4-2.4-1.1h-0.1c0.1,0.7,0.1,1.2,0.1,1.3V34h-2.4V21.5h1.9l0.3,1.1h0.1 c0.6-0.9,1.4-1.3,2.5-1.3c1,0,1.8,0.4,2.4,1.2c0.6,0.8,0.9,1.9,0.9,3.3c0,0.9-0.1,1.7-0.4,2.4s-0.7,1.2-1.2,1.6 C186.7,30.2,186.1,30.3,185.4,30.3z M184.7,23.2c-0.6,0-1,0.2-1.3,0.5c-0.3,0.4-0.4,1-0.4,1.8v0.3c0,0.9,0.1,1.6,0.4,2 c0.3,0.4,0.7,0.6,1.3,0.6c1.1,0,1.6-0.9,1.6-2.6c0-0.9-0.1-1.5-0.4-1.9C185.7,23.4,185.3,23.2,184.7,23.2z" class="st4"/><path d="M196.3,30.2l-0.5-1.2h-0.1c-0.4,0.5-0.8,0.9-1.2,1.1c-0.4,0.2-1,0.3-1.7,0.3c-0.8,0-1.5-0.2-2-0.7 c-0.5-0.5-0.7-1.2-0.7-2c0-0.9,0.3-1.6,1-2.1s1.6-0.7,2.9-0.7l1.5,0v-0.4c0-0.9-0.5-1.3-1.4-1.3c-0.7,0-1.5,0.2-2.5,0.6l-0.8-1.6 c1-0.5,2.1-0.8,3.3-0.8c1.2,0,2.1,0.3,2.7,0.8s0.9,1.3,0.9,2.3v5.8H196.3z M195.6,26.1l-0.9,0c-0.7,0-1.2,0.1-1.5,0.4 c-0.3,0.2-0.5,0.6-0.5,1c0,0.7,0.4,1,1.2,1c0.6,0,1-0.2,1.3-0.5c0.3-0.3,0.5-0.7,0.5-1.3V26.1z" class="st4"/><path d="M208.5,30.2h-2.4v-5.1c0-0.6-0.1-1.1-0.3-1.4c-0.2-0.3-0.6-0.5-1.1-0.5c-0.7,0-1.1,0.2-1.4,0.7 s-0.4,1.2-0.4,2.2v4.1h-2.4v-8.7h1.8l0.3,1.1h0.1c0.3-0.4,0.6-0.7,1.1-1c0.5-0.2,1-0.3,1.6-0.3c1,0,1.8,0.3,2.3,0.8 c0.5,0.5,0.8,1.3,0.8,2.4V30.2z" class="st4"/><path d="M213.7,30.3c-1,0-1.8-0.4-2.4-1.2s-0.9-1.9-0.9-3.3c0-1.4,0.3-2.5,0.9-3.3c0.6-0.8,1.4-1.2,2.5-1.2 c1.1,0,1.9,0.4,2.5,1.3h0.1c-0.1-0.7-0.2-1.2-0.2-1.7V18h2.4v12.2h-1.8l-0.5-1.1h-0.1C215.6,29.9,214.8,30.3,213.7,30.3z M214.5,28.4c0.6,0,1.1-0.2,1.3-0.5c0.3-0.4,0.4-1,0.5-1.8v-0.3c0-0.9-0.1-1.6-0.4-2s-0.8-0.6-1.4-0.6c-0.5,0-0.9,0.2-1.2,0.7 c-0.3,0.5-0.4,1.1-0.4,2s0.1,1.5,0.4,1.9S214,28.4,214.5,28.4z" class="st4"/><path d="M225,30.3c-1.4,0-2.5-0.4-3.3-1.2c-0.8-0.8-1.2-1.9-1.2-3.3c0-1.5,0.4-2.6,1.1-3.4c0.7-0.8,1.7-1.2,3-1.2 c1.2,0,2.2,0.4,2.9,1.1s1,1.7,1,2.9v1.2h-5.6c0,0.7,0.2,1.2,0.6,1.6s0.9,0.6,1.6,0.6c0.5,0,1-0.1,1.5-0.2s1-0.3,1.5-0.5v1.8 c-0.4,0.2-0.9,0.4-1.3,0.5C226.3,30.3,225.7,30.3,225,30.3z M224.7,23c-0.5,0-0.9,0.2-1.2,0.5c-0.3,0.3-0.5,0.8-0.5,1.4h3.3 c0-0.6-0.2-1-0.5-1.4S225.2,23,224.7,23z" class="st4"/><path d="M233.3,30.3c-1,0-1.8-0.4-2.4-1.2s-0.9-1.9-0.9-3.3c0-1.4,0.3-2.5,0.9-3.3c0.6-0.8,1.4-1.2,2.5-1.2 c1.1,0,1.9,0.4,2.5,1.3h0.1c-0.1-0.7-0.2-1.2-0.2-1.7V18h2.4v12.2h-1.8l-0.5-1.1h-0.1C235.2,29.9,234.4,30.3,233.3,30.3z M234.1,28.4c0.6,0,1.1-0.2,1.3-0.5c0.3-0.4,0.4-1,0.5-1.8v-0.3c0-0.9-0.1-1.6-0.4-2s-0.8-0.6-1.4-0.6c-0.5,0-0.9,0.2-1.2,0.7 c-0.3,0.5-0.4,1.1-0.4,2s0.1,1.5,0.4,1.9S233.5,28.4,234.1,28.4z" class="st4"/></g><g id="Arrow_down-8" transform="translate(16 12)"><path id="Path_3872-8" d="M0,0h24v24H0V0z" class="st5"/><path id="Path_3871-8" d="M11.8,15.5c-0.2,0-0.4-0.1-0.6-0.2L6,10.1L7.1,9l4.7,4.7L16.4,9l1.1,1.1l-5.2,5.2 C12.2,15.5,12,15.5,11.8,15.5z" class="st6"/></g><g id="Checkbox-8" transform="translate(48 12)"><rect id="box-8" width="24" height="24" class="st5"/><g id="BG-8"><path d="M2,0h12c1.1,0,2,0.9,2,2v12c0,1.1-0.9,2-2,2H2c-1.1,0-2-0.9-2-2V2C0,0.9,0.9,0,2,0z" class="st3" transform="translate(4 4)"/><path d="M2,1h12c0.6,0,1,0.4,1,1v12c0,0.6-0.4,1-1,1H2c-0.6,0-1-0.4-1-1V2C1,1.4,1.4,1,2,1z" class="st7" transform="translate(4 4)"/></g></g></g></g><g id="Group_156742" transform="translate(-194 -3491)"><g id="tree-item-checkbox-level_1-9" transform="translate(235 3751.5)"><rect id="Rectangle_3345-9" width="320" height="48" class="st3"/><line id="bottom_border-3" x1="0" x2="320" y1="48.5" y2="48.5" class="st8"/><line id="top_border-2" x1="0" x2="320" y1=".5" y2=".5" class="st8"/><g class="st2"><path d="M85.1,30.2h-1.3V19.9h-3.6v-1.2h8.6v1.2h-3.6V30.2z" class="st4"/><path d="M94.1,21.5c0.4,0,0.7,0,1,0.1L95,22.8c-0.4-0.1-0.7-0.1-0.9-0.1c-0.7,0-1.3,0.3-1.8,0.8s-0.7,1.3-0.7,2.1 v4.6h-1.3v-8.6h1.1l0.1,1.6h0.1c0.3-0.6,0.7-1,1.1-1.3C93.1,21.6,93.6,21.5,94.1,21.5z" class="st4"/><path d="M100.4,30.3c-1.3,0-2.3-0.4-3-1.2c-0.7-0.8-1.1-1.8-1.1-3.2c0-1.4,0.3-2.5,1-3.3s1.6-1.2,2.7-1.2 c1.1,0,1.9,0.4,2.5,1.1s0.9,1.6,0.9,2.8v0.8h-5.9c0,1,0.3,1.8,0.8,2.3c0.5,0.5,1.2,0.8,2,0.8c0.9,0,1.8-0.2,2.7-0.6v1.2 c-0.5,0.2-0.9,0.3-1.3,0.4C101.4,30.3,101,30.3,100.4,30.3z M100,22.6c-0.7,0-1.2,0.2-1.6,0.7c-0.4,0.4-0.6,1.1-0.7,1.9h4.5 c0-0.8-0.2-1.4-0.5-1.9C101.2,22.8,100.7,22.6,100,22.6z" class="st4"/><path d="M109.4,30.3c-1.3,0-2.3-0.4-3-1.2c-0.7-0.8-1.1-1.8-1.1-3.2c0-1.4,0.3-2.5,1-3.3s1.6-1.2,2.7-1.2 c1.1,0,1.9,0.4,2.5,1.1s0.9,1.6,0.9,2.8v0.8h-5.9c0,1,0.3,1.8,0.8,2.3c0.5,0.5,1.2,0.8,2,0.8c0.9,0,1.8-0.2,2.7-0.6v1.2 c-0.5,0.2-0.9,0.3-1.3,0.4C110.4,30.3,109.9,30.3,109.4,30.3z M109,22.6c-0.7,0-1.2,0.2-1.6,0.7c-0.4,0.4-0.6,1.1-0.7,1.9h4.5 c0-0.8-0.2-1.4-0.5-1.9C110.2,22.8,109.7,22.6,109,22.6z" class="st4"/><path d="M119.1,30.2V18.8h1.3v11.4H119.1z" class="st4"/><path d="M126.1,29.3c0.2,0,0.5,0,0.7-0.1c0.2,0,0.4-0.1,0.5-0.1v1c-0.1,0.1-0.3,0.1-0.6,0.2s-0.5,0.1-0.7,0.1 c-1.7,0-2.5-0.9-2.5-2.6v-5.1h-1.2V22l1.2-0.5l0.5-1.8h0.8v2h2.5v1h-2.5v5c0,0.5,0.1,0.9,0.4,1.2 C125.3,29.1,125.7,29.3,126.1,29.3z" class="st4"/><path d="M132.6,30.3c-1.3,0-2.3-0.4-3-1.2c-0.7-0.8-1.1-1.8-1.1-3.2c0-1.4,0.3-2.5,1-3.3s1.6-1.2,2.7-1.2 c1.1,0,1.9,0.4,2.5,1.1s0.9,1.6,0.9,2.8v0.8h-5.9c0,1,0.3,1.8,0.8,2.3c0.5,0.5,1.2,0.8,2,0.8c0.9,0,1.8-0.2,2.7-0.6v1.2 c-0.5,0.2-0.9,0.3-1.3,0.4C133.7,30.3,133.2,30.3,132.6,30.3z M132.2,22.6c-0.7,0-1.2,0.2-1.6,0.7c-0.4,0.4-0.6,1.1-0.7,1.9h4.5 c0-0.8-0.2-1.4-0.5-1.9C133.4,22.8,132.9,22.6,132.2,22.6z" class="st4"/><path d="M148.9,30.2v-5.6c0-0.7-0.1-1.2-0.4-1.5c-0.3-0.3-0.7-0.5-1.4-0.5c-0.8,0-1.4,0.2-1.8,0.7 c-0.4,0.5-0.6,1.2-0.6,2.1v4.8h-1.3v-5.6c0-0.7-0.1-1.2-0.4-1.5c-0.3-0.3-0.7-0.5-1.4-0.5c-0.8,0-1.4,0.2-1.8,0.7 c-0.4,0.5-0.6,1.3-0.6,2.4v4.5H138v-8.6h1.1l0.2,1.2h0.1c0.2-0.4,0.6-0.7,1-1s0.9-0.4,1.5-0.4c1.3,0,2.2,0.5,2.6,1.5h0.1 c0.3-0.4,0.6-0.8,1.1-1.1s1-0.4,1.7-0.4c1,0,1.7,0.2,2.2,0.7c0.5,0.5,0.7,1.3,0.7,2.4v5.6H148.9z" class="st4"/></g><g id="Arrow_down-9" transform="translate(16 36) rotate(-90)"><path id="Path_3872-9" d="M0,0h24v24H0V0z" class="st5"/><path id="Path_3871-9" d="M11.8,15.5c-0.2,0-0.4-0.1-0.6-0.2L6,10.1L7.1,9l4.7,4.7L16.4,9l1.1,1.1l-5.2,5.2 C12.2,15.5,12,15.5,11.8,15.5z" class="st6"/></g><g id="Checkbox-9" transform="translate(48 12)"><rect id="box-9" width="24" height="24" class="st5"/><g id="BG-9"><path d="M2,0h12c1.1,0,2,0.9,2,2v12c0,1.1-0.9,2-2,2H2c-1.1,0-2-0.9-2-2V2C0,0.9,0.9,0,2,0z" class="st3" transform="translate(4 4)"/><path d="M2,1h12c0.6,0,1,0.4,1,1v12c0,0.6-0.4,1-1,1H2c-0.6,0-1-0.4-1-1V2C1,1.4,1.4,1,2,1z" class="st7" transform="translate(4 4)"/></g></g></g><g id="tree-item-checkbox-level_1-10" transform="translate(235 3703.5)"><rect id="Rectangle_3345-10" width="320" height="48" class="st3"/><line id="top_border-3" x1="0" x2="320" y1=".5" y2=".5" class="st8"/><g class="st2"><path d="M85.1,30.2h-1.3V19.9h-3.6v-1.2h8.6v1.2h-3.6V30.2z" class="st4"/><path d="M94.1,21.5c0.4,0,0.7,0,1,0.1L95,22.8c-0.4-0.1-0.7-0.1-0.9-0.1c-0.7,0-1.3,0.3-1.8,0.8s-0.7,1.3-0.7,2.1 v4.6h-1.3v-8.6h1.1l0.1,1.6h0.1c0.3-0.6,0.7-1,1.1-1.3C93.1,21.6,93.6,21.5,94.1,21.5z" class="st4"/><path d="M100.4,30.3c-1.3,0-2.3-0.4-3-1.2c-0.7-0.8-1.1-1.8-1.1-3.2c0-1.4,0.3-2.5,1-3.3s1.6-1.2,2.7-1.2 c1.1,0,1.9,0.4,2.5,1.1s0.9,1.6,0.9,2.8v0.8h-5.9c0,1,0.3,1.8,0.8,2.3c0.5,0.5,1.2,0.8,2,0.8c0.9,0,1.8-0.2,2.7-0.6v1.2 c-0.5,0.2-0.9,0.3-1.3,0.4C101.4,30.3,101,30.3,100.4,30.3z M100,22.6c-0.7,0-1.2,0.2-1.6,0.7c-0.4,0.4-0.6,1.1-0.7,1.9h4.5 c0-0.8-0.2-1.4-0.5-1.9C101.2,22.8,100.7,22.6,100,22.6z" class="st4"/><path d="M109.4,30.3c-1.3,0-2.3-0.4-3-1.2c-0.7-0.8-1.1-1.8-1.1-3.2c0-1.4,0.3-2.5,1-3.3s1.6-1.2,2.7-1.2 c1.1,0,1.9,0.4,2.5,1.1s0.9,1.6,0.9,2.8v0.8h-5.9c0,1,0.3,1.8,0.8,2.3c0.5,0.5,1.2,0.8,2,0.8c0.9,0,1.8-0.2,2.7-0.6v1.2 c-0.5,0.2-0.9,0.3-1.3,0.4C110.4,30.3,109.9,30.3,109.4,30.3z M109,22.6c-0.7,0-1.2,0.2-1.6,0.7c-0.4,0.4-0.6,1.1-0.7,1.9h4.5 c0-0.8-0.2-1.4-0.5-1.9C110.2,22.8,109.7,22.6,109,22.6z" class="st4"/><path d="M119.1,30.2V18.8h1.3v11.4H119.1z" class="st4"/><path d="M126.1,29.3c0.2,0,0.5,0,0.7-0.1c0.2,0,0.4-0.1,0.5-0.1v1c-0.1,0.1-0.3,0.1-0.6,0.2s-0.5,0.1-0.7,0.1 c-1.7,0-2.5-0.9-2.5-2.6v-5.1h-1.2V22l1.2-0.5l0.5-1.8h0.8v2h2.5v1h-2.5v5c0,0.5,0.1,0.9,0.4,1.2 C125.3,29.1,125.7,29.3,126.1,29.3z" class="st4"/><path d="M132.6,30.3c-1.3,0-2.3-0.4-3-1.2c-0.7-0.8-1.1-1.8-1.1-3.2c0-1.4,0.3-2.5,1-3.3s1.6-1.2,2.7-1.2 c1.1,0,1.9,0.4,2.5,1.1s0.9,1.6,0.9,2.8v0.8h-5.9c0,1,0.3,1.8,0.8,2.3c0.5,0.5,1.2,0.8,2,0.8c0.9,0,1.8-0.2,2.7-0.6v1.2 c-0.5,0.2-0.9,0.3-1.3,0.4C133.7,30.3,133.2,30.3,132.6,30.3z M132.2,22.6c-0.7,0-1.2,0.2-1.6,0.7c-0.4,0.4-0.6,1.1-0.7,1.9h4.5 c0-0.8-0.2-1.4-0.5-1.9C133.4,22.8,132.9,22.6,132.2,22.6z" class="st4"/><path d="M148.9,30.2v-5.6c0-0.7-0.1-1.2-0.4-1.5c-0.3-0.3-0.7-0.5-1.4-0.5c-0.8,0-1.4,0.2-1.8,0.7 c-0.4,0.5-0.6,1.2-0.6,2.1v4.8h-1.3v-5.6c0-0.7-0.1-1.2-0.4-1.5c-0.3-0.3-0.7-0.5-1.4-0.5c-0.8,0-1.4,0.2-1.8,0.7 c-0.4,0.5-0.6,1.3-0.6,2.4v4.5H138v-8.6h1.1l0.2,1.2h0.1c0.2-0.4,0.6-0.7,1-1s0.9-0.4,1.5-0.4c1.3,0,2.2,0.5,2.6,1.5h0.1 c0.3-0.4,0.6-0.8,1.1-1.1s1-0.4,1.7-0.4c1,0,1.7,0.2,2.2,0.7c0.5,0.5,0.7,1.3,0.7,2.4v5.6H148.9z" class="st4"/></g><g id="Arrow_down-10" transform="translate(16 36) rotate(-90)"><path id="Path_3872-10" d="M0,0h24v24H0V0z" class="st5"/><path id="Path_3871-10" d="M11.8,15.5c-0.2,0-0.4-0.1-0.6-0.2L6,10.1L7.1,9l4.7,4.7L16.4,9l1.1,1.1l-5.2,5.2 C12.2,15.5,12,15.5,11.8,15.5z" class="st6"/></g><g id="Checkbox-10" transform="translate(48 12)"><rect id="box-10" width="24" height="24" class="st5"/><g id="BG-10"><path d="M2,0h12c1.1,0,2,0.9,2,2v12c0,1.1-0.9,2-2,2H2c-1.1,0-2-0.9-2-2V2C0,0.9,0.9,0,2,0z" class="st3" transform="translate(4 4)"/><path d="M2,1h12c0.6,0,1,0.4,1,1v12c0,0.6-0.4,1-1,1H2c-0.6,0-1-0.4-1-1V2C1,1.4,1.4,1,2,1z" class="st7" transform="translate(4 4)"/></g></g></g><g id="tree-item-checkbox-level_1-11" transform="translate(235 3655.5)"><rect id="Rectangle_3345-11" width="320" height="48" class="st3"/><g class="st2"><path d="M85.1,30.2h-1.3V19.9h-3.6v-1.2h8.6v1.2h-3.6V30.2z" class="st4"/><path d="M94.1,21.5c0.4,0,0.7,0,1,0.1L95,22.8c-0.4-0.1-0.7-0.1-0.9-0.1c-0.7,0-1.3,0.3-1.8,0.8s-0.7,1.3-0.7,2.1 v4.6h-1.3v-8.6h1.1l0.1,1.6h0.1c0.3-0.6,0.7-1,1.1-1.3C93.1,21.6,93.6,21.5,94.1,21.5z" class="st4"/><path d="M100.4,30.3c-1.3,0-2.3-0.4-3-1.2c-0.7-0.8-1.1-1.8-1.1-3.2c0-1.4,0.3-2.5,1-3.3s1.6-1.2,2.7-1.2 c1.1,0,1.9,0.4,2.5,1.1s0.9,1.6,0.9,2.8v0.8h-5.9c0,1,0.3,1.8,0.8,2.3c0.5,0.5,1.2,0.8,2,0.8c0.9,0,1.8-0.2,2.7-0.6v1.2 c-0.5,0.2-0.9,0.3-1.3,0.4C101.4,30.3,101,30.3,100.4,30.3z M100,22.6c-0.7,0-1.2,0.2-1.6,0.7c-0.4,0.4-0.6,1.1-0.7,1.9h4.5 c0-0.8-0.2-1.4-0.5-1.9C101.2,22.8,100.7,22.6,100,22.6z" class="st4"/><path d="M109.4,30.3c-1.3,0-2.3-0.4-3-1.2c-0.7-0.8-1.1-1.8-1.1-3.2c0-1.4,0.3-2.5,1-3.3s1.6-1.2,2.7-1.2 c1.1,0,1.9,0.4,2.5,1.1s0.9,1.6,0.9,2.8v0.8h-5.9c0,1,0.3,1.8,0.8,2.3c0.5,0.5,1.2,0.8,2,0.8c0.9,0,1.8-0.2,2.7-0.6v1.2 c-0.5,0.2-0.9,0.3-1.3,0.4C110.4,30.3,109.9,30.3,109.4,30.3z M109,22.6c-0.7,0-1.2,0.2-1.6,0.7c-0.4,0.4-0.6,1.1-0.7,1.9h4.5 c0-0.8-0.2-1.4-0.5-1.9C110.2,22.8,109.7,22.6,109,22.6z" class="st4"/><path d="M119.1,30.2V18.8h1.3v11.4H119.1z" class="st4"/><path d="M126.1,29.3c0.2,0,0.5,0,0.7-0.1c0.2,0,0.4-0.1,0.5-0.1v1c-0.1,0.1-0.3,0.1-0.6,0.2s-0.5,0.1-0.7,0.1 c-1.7,0-2.5-0.9-2.5-2.6v-5.1h-1.2V22l1.2-0.5l0.5-1.8h0.8v2h2.5v1h-2.5v5c0,0.5,0.1,0.9,0.4,1.2 C125.3,29.1,125.7,29.3,126.1,29.3z" class="st4"/><path d="M132.6,30.3c-1.3,0-2.3-0.4-3-1.2c-0.7-0.8-1.1-1.8-1.1-3.2c0-1.4,0.3-2.5,1-3.3s1.6-1.2,2.7-1.2 c1.1,0,1.9,0.4,2.5,1.1s0.9,1.6,0.9,2.8v0.8h-5.9c0,1,0.3,1.8,0.8,2.3c0.5,0.5,1.2,0.8,2,0.8c0.9,0,1.8-0.2,2.7-0.6v1.2 c-0.5,0.2-0.9,0.3-1.3,0.4C133.7,30.3,133.2,30.3,132.6,30.3z M132.2,22.6c-0.7,0-1.2,0.2-1.6,0.7c-0.4,0.4-0.6,1.1-0.7,1.9h4.5 c0-0.8-0.2-1.4-0.5-1.9C133.4,22.8,132.9,22.6,132.2,22.6z" class="st4"/><path d="M148.9,30.2v-5.6c0-0.7-0.1-1.2-0.4-1.5c-0.3-0.3-0.7-0.5-1.4-0.5c-0.8,0-1.4,0.2-1.8,0.7 c-0.4,0.5-0.6,1.2-0.6,2.1v4.8h-1.3v-5.6c0-0.7-0.1-1.2-0.4-1.5c-0.3-0.3-0.7-0.5-1.4-0.5c-0.8,0-1.4,0.2-1.8,0.7 c-0.4,0.5-0.6,1.3-0.6,2.4v4.5H138v-8.6h1.1l0.2,1.2h0.1c0.2-0.4,0.6-0.7,1-1s0.9-0.4,1.5-0.4c1.3,0,2.2,0.5,2.6,1.5h0.1 c0.3-0.4,0.6-0.8,1.1-1.1s1-0.4,1.7-0.4c1,0,1.7,0.2,2.2,0.7c0.5,0.5,0.7,1.3,0.7,2.4v5.6H148.9z" class="st4"/></g><g id="Arrow_down-11" transform="translate(16 36) rotate(-90)"><path id="Path_3872-11" d="M0,0h24v24H0V0z" class="st5"/><path id="Path_3871-11" d="M11.8,15.5c-0.2,0-0.4-0.1-0.6-0.2L6,10.1L7.1,9l4.7,4.7L16.4,9l1.1,1.1l-5.2,5.2 C12.2,15.5,12,15.5,11.8,15.5z" class="st6"/></g><g id="Checkbox-11" transform="translate(48 12)"><rect id="box-11" width="24" height="24" class="st5"/><g id="BG-11"><path d="M2,0h12c1.1,0,2,0.9,2,2v12c0,1.1-0.9,2-2,2H2c-1.1,0-2-0.9-2-2V2C0,0.9,0.9,0,2,0z" class="st3" transform="translate(4 4)"/><path d="M2,1h12c0.6,0,1,0.4,1,1v12c0,0.6-0.4,1-1,1H2c-0.6,0-1-0.4-1-1V2C1,1.4,1.4,1,2,1z" class="st7" transform="translate(4 4)"/></g></g></g><g id="tree-item-checkbox-level_1-12" transform="translate(235 3607)"><rect id="Rectangle_3345-12" width="320" height="48" class="st3"/><line id="bottom_border-4" x1="0" x2="320" y1="48.5" y2="48.5" class="st8"/><line id="top_border-4" x1="0" x2="320" y1=".5" y2=".5" class="st8"/><g class="st2"><path d="M85.1,30.2h-1.3V19.9h-3.6v-1.2h8.6v1.2h-3.6V30.2z" class="st4"/><path d="M94.1,21.5c0.4,0,0.7,0,1,0.1L95,22.8c-0.4-0.1-0.7-0.1-0.9-0.1c-0.7,0-1.3,0.3-1.8,0.8s-0.7,1.3-0.7,2.1 v4.6h-1.3v-8.6h1.1l0.1,1.6h0.1c0.3-0.6,0.7-1,1.1-1.3C93.1,21.6,93.6,21.5,94.1,21.5z" class="st4"/><path d="M100.4,30.3c-1.3,0-2.3-0.4-3-1.2c-0.7-0.8-1.1-1.8-1.1-3.2c0-1.4,0.3-2.5,1-3.3s1.6-1.2,2.7-1.2 c1.1,0,1.9,0.4,2.5,1.1s0.9,1.6,0.9,2.8v0.8h-5.9c0,1,0.3,1.8,0.8,2.3c0.5,0.5,1.2,0.8,2,0.8c0.9,0,1.8-0.2,2.7-0.6v1.2 c-0.5,0.2-0.9,0.3-1.3,0.4C101.4,30.3,101,30.3,100.4,30.3z M100,22.6c-0.7,0-1.2,0.2-1.6,0.7c-0.4,0.4-0.6,1.1-0.7,1.9h4.5 c0-0.8-0.2-1.4-0.5-1.9C101.2,22.8,100.7,22.6,100,22.6z" class="st4"/><path d="M109.4,30.3c-1.3,0-2.3-0.4-3-1.2c-0.7-0.8-1.1-1.8-1.1-3.2c0-1.4,0.3-2.5,1-3.3s1.6-1.2,2.7-1.2 c1.1,0,1.9,0.4,2.5,1.1s0.9,1.6,0.9,2.8v0.8h-5.9c0,1,0.3,1.8,0.8,2.3c0.5,0.5,1.2,0.8,2,0.8c0.9,0,1.8-0.2,2.7-0.6v1.2 c-0.5,0.2-0.9,0.3-1.3,0.4C110.4,30.3,109.9,30.3,109.4,30.3z M109,22.6c-0.7,0-1.2,0.2-1.6,0.7c-0.4,0.4-0.6,1.1-0.7,1.9h4.5 c0-0.8-0.2-1.4-0.5-1.9C110.2,22.8,109.7,22.6,109,22.6z" class="st4"/><path d="M119.1,30.2V18.8h1.3v11.4H119.1z" class="st4"/><path d="M126.1,29.3c0.2,0,0.5,0,0.7-0.1c0.2,0,0.4-0.1,0.5-0.1v1c-0.1,0.1-0.3,0.1-0.6,0.2s-0.5,0.1-0.7,0.1 c-1.7,0-2.5-0.9-2.5-2.6v-5.1h-1.2V22l1.2-0.5l0.5-1.8h0.8v2h2.5v1h-2.5v5c0,0.5,0.1,0.9,0.4,1.2 C125.3,29.1,125.7,29.3,126.1,29.3z" class="st4"/><path d="M132.6,30.3c-1.3,0-2.3-0.4-3-1.2c-0.7-0.8-1.1-1.8-1.1-3.2c0-1.4,0.3-2.5,1-3.3s1.6-1.2,2.7-1.2 c1.1,0,1.9,0.4,2.5,1.1s0.9,1.6,0.9,2.8v0.8h-5.9c0,1,0.3,1.8,0.8,2.3c0.5,0.5,1.2,0.8,2,0.8c0.9,0,1.8-0.2,2.7-0.6v1.2 c-0.5,0.2-0.9,0.3-1.3,0.4C133.7,30.3,133.2,30.3,132.6,30.3z M132.2,22.6c-0.7,0-1.2,0.2-1.6,0.7c-0.4,0.4-0.6,1.1-0.7,1.9h4.5 c0-0.8-0.2-1.4-0.5-1.9C133.4,22.8,132.9,22.6,132.2,22.6z" class="st4"/><path d="M148.9,30.2v-5.6c0-0.7-0.1-1.2-0.4-1.5c-0.3-0.3-0.7-0.5-1.4-0.5c-0.8,0-1.4,0.2-1.8,0.7 c-0.4,0.5-0.6,1.2-0.6,2.1v4.8h-1.3v-5.6c0-0.7-0.1-1.2-0.4-1.5c-0.3-0.3-0.7-0.5-1.4-0.5c-0.8,0-1.4,0.2-1.8,0.7 c-0.4,0.5-0.6,1.3-0.6,2.4v4.5H138v-8.6h1.1l0.2,1.2h0.1c0.2-0.4,0.6-0.7,1-1s0.9-0.4,1.5-0.4c1.3,0,2.2,0.5,2.6,1.5h0.1 c0.3-0.4,0.6-0.8,1.1-1.1s1-0.4,1.7-0.4c1,0,1.7,0.2,2.2,0.7c0.5,0.5,0.7,1.3,0.7,2.4v5.6H148.9z" class="st4"/></g><g id="Arrow_down-12" transform="translate(16 36) rotate(-90)"><path id="Path_3872-12" d="M0,0h24v24H0V0z" class="st5"/><path id="Path_3871-12" d="M11.8,15.5c-0.2,0-0.4-0.1-0.6-0.2L6,10.1L7.1,9l4.7,4.7L16.4,9l1.1,1.1l-5.2,5.2 C12.2,15.5,12,15.5,11.8,15.5z" class="st6"/></g><g id="Checkbox-12" transform="translate(48 12)"><rect id="box-12" width="24" height="24" class="st5"/><g id="BG-12"><path d="M2,0h12c1.1,0,2,0.9,2,2v12c0,1.1-0.9,2-2,2H2c-1.1,0-2-0.9-2-2V2C0,0.9,0.9,0,2,0z" class="st3" transform="translate(4 4)"/><path d="M2,1h12c0.6,0,1,0.4,1,1v12c0,0.6-0.4,1-1,1H2c-0.6,0-1-0.4-1-1V2C1,1.4,1.4,1,2,1z" class="st7" transform="translate(4 4)"/></g></g></g><g id="tree-item-checkbox-level_1-13" transform="translate(235 3559)"><rect id="Rectangle_3345-13" width="320" height="48" class="st3"/><line id="top_border-5" x1="0" x2="320" y1=".5" y2=".5" class="st8"/><g class="st2"><path d="M85.1,30.2h-1.3V19.9h-3.6v-1.2h8.6v1.2h-3.6V30.2z" class="st4"/><path d="M94.1,21.5c0.4,0,0.7,0,1,0.1L95,22.8c-0.4-0.1-0.7-0.1-0.9-0.1c-0.7,0-1.3,0.3-1.8,0.8s-0.7,1.3-0.7,2.1 v4.6h-1.3v-8.6h1.1l0.1,1.6h0.1c0.3-0.6,0.7-1,1.1-1.3C93.1,21.6,93.6,21.5,94.1,21.5z" class="st4"/><path d="M100.4,30.3c-1.3,0-2.3-0.4-3-1.2c-0.7-0.8-1.1-1.8-1.1-3.2c0-1.4,0.3-2.5,1-3.3s1.6-1.2,2.7-1.2 c1.1,0,1.9,0.4,2.5,1.1s0.9,1.6,0.9,2.8v0.8h-5.9c0,1,0.3,1.8,0.8,2.3c0.5,0.5,1.2,0.8,2,0.8c0.9,0,1.8-0.2,2.7-0.6v1.2 c-0.5,0.2-0.9,0.3-1.3,0.4C101.4,30.3,101,30.3,100.4,30.3z M100,22.6c-0.7,0-1.2,0.2-1.6,0.7c-0.4,0.4-0.6,1.1-0.7,1.9h4.5 c0-0.8-0.2-1.4-0.5-1.9C101.2,22.8,100.7,22.6,100,22.6z" class="st4"/><path d="M109.4,30.3c-1.3,0-2.3-0.4-3-1.2c-0.7-0.8-1.1-1.8-1.1-3.2c0-1.4,0.3-2.5,1-3.3s1.6-1.2,2.7-1.2 c1.1,0,1.9,0.4,2.5,1.1s0.9,1.6,0.9,2.8v0.8h-5.9c0,1,0.3,1.8,0.8,2.3c0.5,0.5,1.2,0.8,2,0.8c0.9,0,1.8-0.2,2.7-0.6v1.2 c-0.5,0.2-0.9,0.3-1.3,0.4C110.4,30.3,109.9,30.3,109.4,30.3z M109,22.6c-0.7,0-1.2,0.2-1.6,0.7c-0.4,0.4-0.6,1.1-0.7,1.9h4.5 c0-0.8-0.2-1.4-0.5-1.9C110.2,22.8,109.7,22.6,109,22.6z" class="st4"/><path d="M119.1,30.2V18.8h1.3v11.4H119.1z" class="st4"/><path d="M126.1,29.3c0.2,0,0.5,0,0.7-0.1c0.2,0,0.4-0.1,0.5-0.1v1c-0.1,0.1-0.3,0.1-0.6,0.2s-0.5,0.1-0.7,0.1 c-1.7,0-2.5-0.9-2.5-2.6v-5.1h-1.2V22l1.2-0.5l0.5-1.8h0.8v2h2.5v1h-2.5v5c0,0.5,0.1,0.9,0.4,1.2 C125.3,29.1,125.7,29.3,126.1,29.3z" class="st4"/><path d="M132.6,30.3c-1.3,0-2.3-0.4-3-1.2c-0.7-0.8-1.1-1.8-1.1-3.2c0-1.4,0.3-2.5,1-3.3s1.6-1.2,2.7-1.2 c1.1,0,1.9,0.4,2.5,1.1s0.9,1.6,0.9,2.8v0.8h-5.9c0,1,0.3,1.8,0.8,2.3c0.5,0.5,1.2,0.8,2,0.8c0.9,0,1.8-0.2,2.7-0.6v1.2 c-0.5,0.2-0.9,0.3-1.3,0.4C133.7,30.3,133.2,30.3,132.6,30.3z M132.2,22.6c-0.7,0-1.2,0.2-1.6,0.7c-0.4,0.4-0.6,1.1-0.7,1.9h4.5 c0-0.8-0.2-1.4-0.5-1.9C133.4,22.8,132.9,22.6,132.2,22.6z" class="st4"/><path d="M148.9,30.2v-5.6c0-0.7-0.1-1.2-0.4-1.5c-0.3-0.3-0.7-0.5-1.4-0.5c-0.8,0-1.4,0.2-1.8,0.7 c-0.4,0.5-0.6,1.2-0.6,2.1v4.8h-1.3v-5.6c0-0.7-0.1-1.2-0.4-1.5c-0.3-0.3-0.7-0.5-1.4-0.5c-0.8,0-1.4,0.2-1.8,0.7 c-0.4,0.5-0.6,1.3-0.6,2.4v4.5H138v-8.6h1.1l0.2,1.2h0.1c0.2-0.4,0.6-0.7,1-1s0.9-0.4,1.5-0.4c1.3,0,2.2,0.5,2.6,1.5h0.1 c0.3-0.4,0.6-0.8,1.1-1.1s1-0.4,1.7-0.4c1,0,1.7,0.2,2.2,0.7c0.5,0.5,0.7,1.3,0.7,2.4v5.6H148.9z" class="st4"/></g><g id="Arrow_down-13" transform="translate(16 36) rotate(-90)"><path id="Path_3872-13" d="M0,0h24v24H0V0z" class="st5"/><path id="Path_3871-13" d="M11.8,15.5c-0.2,0-0.4-0.1-0.6-0.2L6,10.1L7.1,9l4.7,4.7L16.4,9l1.1,1.1l-5.2,5.2 C12.2,15.5,12,15.5,11.8,15.5z" class="st6"/></g><g id="Checkbox-13" transform="translate(48 12)"><rect id="box-13" width="24" height="24" class="st5"/><g id="BG-13"><path d="M2,0h12c1.1,0,2,0.9,2,2v12c0,1.1-0.9,2-2,2H2c-1.1,0-2-0.9-2-2V2C0,0.9,0.9,0,2,0z" class="st3" transform="translate(4 4)"/><path d="M2,1h12c0.6,0,1,0.4,1,1v12c0,0.6-0.4,1-1,1H2c-0.6,0-1-0.4-1-1V2C1,1.4,1.4,1,2,1z" class="st7" transform="translate(4 4)"/></g></g></g></g></svg>