<svg xmlns="http://www.w3.org/2000/svg" width="790" height="506" viewBox="0 0 790 506"><rect width="790" height="506" fill="#f1f1f6"/><rect width="789" height="505" transform="translate(0.5 0.5)" fill="none" stroke="#cbcdd6" stroke-width="1"/><path d="M45.7,35.8a1.943,1.943,0,0,0-1.6.8,3.281,3.281,0,0,0-.6,2.1c0,1.9.7,2.9,2.2,2.9a7.442,7.442,0,0,0,2.2-.5v1.5a6.051,6.051,0,0,1-2.4.4,4,4,0,0,1-2.9-1.1,4.5,4.5,0,0,1-1-3.3,5.214,5.214,0,0,1,.5-2.3,3.389,3.389,0,0,1,1.4-1.5,4.648,4.648,0,0,1,2.1-.5,5.734,5.734,0,0,1,2.5.6l-.6,1.5a3,3,0,0,0-1-.4A3.091,3.091,0,0,0,45.7,35.8Z"/><path d="M57.5,38.7A4.859,4.859,0,0,1,56.4,42a3.719,3.719,0,0,1-3,1.1,4.081,4.081,0,0,1-3-1.1,4.683,4.683,0,0,1-1.1-3.3,4.859,4.859,0,0,1,1.1-3.3,3.719,3.719,0,0,1,3-1.1,4.081,4.081,0,0,1,3,1.1A4.683,4.683,0,0,1,57.5,38.7Zm-6.3,0a4.2,4.2,0,0,0,.5,2.2,1.753,1.753,0,0,0,1.6.7c1.4,0,2.2-1,2.2-2.9s-.7-2.9-2.2-2.9a1.753,1.753,0,0,0-1.6.7A4.2,4.2,0,0,0,51.2,38.7Z"/><path d="M59.3,43V34.4h1.8v7.1h3.5V43Z"/><path d="M66.1,43V34.4h1.8v7.1h3.5V43Z"/><path d="M78.1,43l-.6-2H74.4l-.6,2h-2l3-8.6H77L80,43ZM77,39.4c-.6-1.8-.9-2.9-1-3.1s-.1-.4-.2-.6c-.1.5-.5,1.7-1.1,3.7H77Z"/><path d="M87,37.1a2.583,2.583,0,0,1-.9,2.1,3.464,3.464,0,0,1-2.4.8h-.8v3H81.1V34.4h2.7a3.612,3.612,0,0,1,2.4.7A2.319,2.319,0,0,1,87,37.1Zm-4.1,1.4h.6a2.269,2.269,0,0,0,1.3-.3,1.053,1.053,0,0,0,.4-1,1.222,1.222,0,0,0-.3-.9,1.609,1.609,0,0,0-1.1-.3H83v2.5Z"/><path d="M93.7,40.6a2.2,2.2,0,0,1-.8,1.8,3.7,3.7,0,0,1-2.3.7,6.042,6.042,0,0,1-2.4-.5V40.9a6.518,6.518,0,0,0,1.5.5,5.16,5.16,0,0,0,1.1.2,2,2,0,0,0,.9-.2.779.779,0,0,0,.3-.7c0-.2,0-.3-.1-.4s-.2-.3-.4-.4-.6-.3-1.1-.6a6.347,6.347,0,0,1-1.2-.7,1.555,1.555,0,0,1-.6-.8,3.6,3.6,0,0,1-.2-1.1,2.2,2.2,0,0,1,.8-1.8,3.3,3.3,0,0,1,2.1-.7,5.853,5.853,0,0,1,1.3.2c.4.1.8.3,1.3.4l-.6,1.4c-.5-.2-.8-.3-1.1-.4a2.768,2.768,0,0,0-.9-.1,1.884,1.884,0,0,0-.8.2,1.126,1.126,0,0,0-.5.8c0,.2,0,.3.1.4a1.38,1.38,0,0,0,.4.3,12.22,12.22,0,0,0,1.2.6,4.4,4.4,0,0,1,1.6,1.2A2.3,2.3,0,0,1,93.7,40.6Z"/><path d="M100.2,43H95.3V34.4h4.9v1.5H97.1v1.9H100v1.5H97.1v2.2h3.1Z"/><path d="M109.1,38.6a4.076,4.076,0,0,1-1.2,3.2,5.235,5.235,0,0,1-3.5,1.1H102V34.3h2.7a4.859,4.859,0,0,1,3.3,1.1A4.172,4.172,0,0,1,109.1,38.6Zm-1.9.1c0-1.8-.8-2.8-2.4-2.8h-1v5.6h.8C106.3,41.5,107.2,40.6,107.2,38.7Z"/><path d="M421,43h-4.9V34.4H421v1.5h-3.1v1.9h2.9v1.5h-2.9v2.2H421Z"/><path d="M429.7,43h-2.1l-2-3.2-2,3.2h-1.9l2.8-4.4-2.7-4.1h2l1.8,3.1,1.8-3.1h2l-2.7,4.2Z"/><path d="M436.7,37.1a2.583,2.583,0,0,1-.9,2.1,3.727,3.727,0,0,1-2.5.7h-.8v3h-1.8V34.3h2.7a3.612,3.612,0,0,1,2.4.7A2.583,2.583,0,0,1,436.7,37.1Zm-4.1,1.4h.6a2.269,2.269,0,0,0,1.3-.3,1.053,1.053,0,0,0,.4-1,1.222,1.222,0,0,0-.3-.9,1.609,1.609,0,0,0-1.1-.3h-.8v2.5Z"/><path d="M443.6,43l-.6-2h-3.1l-.6,2h-2l3-8.6h2.2l3,8.6Zm-1.1-3.6c-.6-1.8-.9-2.9-1-3.1s-.1-.4-.2-.6c-.1.5-.5,1.7-1.1,3.7h2.3Z"/><path d="M454.2,43h-2.3l-3.7-6.5h-.1c.1,1.1.1,2,.1,2.4v4h-1.6V34.3h2.3l3.7,6.4h0c-.1-1.1-.1-1.9-.1-2.4V34.2h1.6V43Z"/><path d="M463.5,38.6a4.076,4.076,0,0,1-1.2,3.2,5.235,5.235,0,0,1-3.5,1.1h-2.4V34.3h2.7a4.859,4.859,0,0,1,3.3,1.1A4.172,4.172,0,0,1,463.5,38.6Zm-1.9.1c0-1.8-.8-2.8-2.4-2.8h-1v5.6h.8C460.7,41.5,461.6,40.6,461.6,38.7Z"/><path d="M470.2,43h-4.9V34.4h4.9v1.5h-3.1v1.9H470v1.5h-2.9v2.2h3.1Z"/><path d="M479.1,38.6a4.076,4.076,0,0,1-1.2,3.2,5.235,5.235,0,0,1-3.5,1.1H472V34.3h2.7a4.859,4.859,0,0,1,3.3,1.1A4.172,4.172,0,0,1,479.1,38.6Zm-1.9.1c0-1.8-.8-2.8-2.4-2.8h-1v5.6h.8C476.3,41.5,477.2,40.6,477.2,38.7Z"/><g transform="translate(180 -3491)"><g transform="translate(235 3896)"><rect width="320" height="48" fill="#fff"/><path d="M85.1,30.2H83.8V19.9H80.2V18.7h8.6v1.2H85.2V30.2Z" fill="#252a2e"/><path d="M94.1,21.5a3.083,3.083,0,0,1,1,.1L95,22.8a3.445,3.445,0,0,0-.9-.1,2.5,2.5,0,0,0-1.8.8,2.971,2.971,0,0,0-.7,2.1v4.6H90.3V21.6h1.1l.1,1.6h.1a3.611,3.611,0,0,1,1.1-1.3A2.3,2.3,0,0,1,94.1,21.5Z" fill="#252a2e"/><path d="M100.4,30.3a3.773,3.773,0,0,1-3-1.2,4.591,4.591,0,0,1-1.1-3.2,4.826,4.826,0,0,1,1-3.3,3.424,3.424,0,0,1,2.7-1.2,3.1,3.1,0,0,1,2.5,1.1,4.1,4.1,0,0,1,.9,2.8v.8H97.5a3.2,3.2,0,0,0,.8,2.3,2.792,2.792,0,0,0,2,.8,6.6,6.6,0,0,0,2.7-.6v1.2a9.288,9.288,0,0,1-1.3.4A4.512,4.512,0,0,1,100.4,30.3Zm-.4-7.7a1.865,1.865,0,0,0-1.6.7,2.738,2.738,0,0,0-.7,1.9h4.5a3.557,3.557,0,0,0-.5-1.9A2.193,2.193,0,0,0,100,22.6Z" fill="#252a2e"/><path d="M109.4,30.3a3.773,3.773,0,0,1-3-1.2,4.591,4.591,0,0,1-1.1-3.2,4.826,4.826,0,0,1,1-3.3,3.424,3.424,0,0,1,2.7-1.2,3.1,3.1,0,0,1,2.5,1.1,4.1,4.1,0,0,1,.9,2.8v.8h-5.9a3.2,3.2,0,0,0,.8,2.3,2.792,2.792,0,0,0,2,.8,6.6,6.6,0,0,0,2.7-.6v1.2a9.288,9.288,0,0,1-1.3.4A4.888,4.888,0,0,1,109.4,30.3Zm-.4-7.7a1.865,1.865,0,0,0-1.6.7,2.738,2.738,0,0,0-.7,1.9h4.5a3.557,3.557,0,0,0-.5-1.9A2.193,2.193,0,0,0,109,22.6Z" fill="#252a2e"/><path d="M119.1,30.2V18.8h1.3V30.2h-1.3Z" fill="#252a2e"/><path d="M126.1,29.3a1.7,1.7,0,0,0,.7-.1,4.331,4.331,0,0,0,.5-.1v1c-.1.1-.3.1-.6.2a1.952,1.952,0,0,1-.7.1c-1.7,0-2.5-.9-2.5-2.6V22.7h-1.2V22l1.2-.5.5-1.8h.8v2h2.5v1h-2.5v5a1.594,1.594,0,0,0,.4,1.2A1.1,1.1,0,0,0,126.1,29.3Z" fill="#252a2e"/><path d="M132.6,30.3a3.773,3.773,0,0,1-3-1.2,4.591,4.591,0,0,1-1.1-3.2,4.826,4.826,0,0,1,1-3.3,3.424,3.424,0,0,1,2.7-1.2,3.1,3.1,0,0,1,2.5,1.1,4.1,4.1,0,0,1,.9,2.8v.8h-5.9a3.2,3.2,0,0,0,.8,2.3,2.792,2.792,0,0,0,2,.8,6.6,6.6,0,0,0,2.7-.6v1.2a9.287,9.287,0,0,1-1.3.4A4.153,4.153,0,0,1,132.6,30.3Zm-.4-7.7a1.865,1.865,0,0,0-1.6.7,2.738,2.738,0,0,0-.7,1.9h4.5a3.557,3.557,0,0,0-.5-1.9A2.193,2.193,0,0,0,132.2,22.6Z" fill="#252a2e"/><path d="M148.9,30.2V24.6a2.076,2.076,0,0,0-.4-1.5,1.813,1.813,0,0,0-1.4-.5,2.139,2.139,0,0,0-1.8.7,3.281,3.281,0,0,0-.6,2.1v4.8h-1.3V24.6a2.076,2.076,0,0,0-.4-1.5,1.813,1.813,0,0,0-1.4-.5,2.139,2.139,0,0,0-1.8.7,3.845,3.845,0,0,0-.6,2.4v4.5H138V21.6h1.1l.2,1.2h.1a3.178,3.178,0,0,1,1-1,2.41,2.41,0,0,1,1.5-.4,2.52,2.52,0,0,1,2.6,1.5h.1a3.838,3.838,0,0,1,1.1-1.1,3.064,3.064,0,0,1,1.7-.4,2.918,2.918,0,0,1,2.2.7,3.286,3.286,0,0,1,.7,2.4v5.6h-1.4Z" fill="#252a2e"/><g transform="translate(16 36) rotate(-90)"><path d="M0,0H24V24H0Z" fill="none"/><path d="M11.8,15.5a1.421,1.421,0,0,1-.6-.2L6,10.1,7.1,9l4.7,4.7L16.4,9l1.1,1.1-5.2,5.2C12.2,15.5,12,15.5,11.8,15.5Z" fill="#90939f"/></g><g transform="translate(48 12)"><rect width="24" height="24" fill="none"/><path d="M2,0H14a2.006,2.006,0,0,1,2,2V14a2.006,2.006,0,0,1-2,2H2a2.006,2.006,0,0,1-2-2V2A2.006,2.006,0,0,1,2,0Z" transform="translate(4 4)" fill="#fff"/><path d="M2,1H14a.945.945,0,0,1,1,1V14a.945.945,0,0,1-1,1H2a.945.945,0,0,1-1-1V2A.945.945,0,0,1,2,1Z" transform="translate(4 4)" fill="none" stroke="#90939f" stroke-width="2"/></g></g><g transform="translate(235 3847.5)"><rect width="320" height="48" fill="#fff"/><line x2="320" transform="translate(0 48.5)" fill="none" stroke="#e0e1e9" stroke-width="1"/><line x2="320" transform="translate(0 0.5)" fill="none" stroke="#e0e1e9" stroke-width="1"/><path d="M85.1,30.2H83.8V19.9H80.2V18.7h8.6v1.2H85.2V30.2Z" fill="#252a2e"/><path d="M94.1,21.5a3.083,3.083,0,0,1,1,.1L95,22.8a3.445,3.445,0,0,0-.9-.1,2.5,2.5,0,0,0-1.8.8,2.971,2.971,0,0,0-.7,2.1v4.6H90.3V21.6h1.1l.1,1.6h.1a3.611,3.611,0,0,1,1.1-1.3A2.3,2.3,0,0,1,94.1,21.5Z" fill="#252a2e"/><path d="M100.4,30.3a3.773,3.773,0,0,1-3-1.2,4.591,4.591,0,0,1-1.1-3.2,4.826,4.826,0,0,1,1-3.3,3.424,3.424,0,0,1,2.7-1.2,3.1,3.1,0,0,1,2.5,1.1,4.1,4.1,0,0,1,.9,2.8v.8H97.5a3.2,3.2,0,0,0,.8,2.3,2.792,2.792,0,0,0,2,.8,6.6,6.6,0,0,0,2.7-.6v1.2a9.288,9.288,0,0,1-1.3.4A4.512,4.512,0,0,1,100.4,30.3Zm-.4-7.7a1.865,1.865,0,0,0-1.6.7,2.738,2.738,0,0,0-.7,1.9h4.5a3.557,3.557,0,0,0-.5-1.9A2.193,2.193,0,0,0,100,22.6Z" fill="#252a2e"/><path d="M109.4,30.3a3.773,3.773,0,0,1-3-1.2,4.591,4.591,0,0,1-1.1-3.2,4.826,4.826,0,0,1,1-3.3,3.424,3.424,0,0,1,2.7-1.2,3.1,3.1,0,0,1,2.5,1.1,4.1,4.1,0,0,1,.9,2.8v.8h-5.9a3.2,3.2,0,0,0,.8,2.3,2.792,2.792,0,0,0,2,.8,6.6,6.6,0,0,0,2.7-.6v1.2a9.288,9.288,0,0,1-1.3.4A4.888,4.888,0,0,1,109.4,30.3Zm-.4-7.7a1.865,1.865,0,0,0-1.6.7,2.738,2.738,0,0,0-.7,1.9h4.5a3.557,3.557,0,0,0-.5-1.9A2.193,2.193,0,0,0,109,22.6Z" fill="#252a2e"/><path d="M119.1,30.2V18.8h1.3V30.2h-1.3Z" fill="#252a2e"/><path d="M126.1,29.3a1.7,1.7,0,0,0,.7-.1,4.331,4.331,0,0,0,.5-.1v1c-.1.1-.3.1-.6.2a1.952,1.952,0,0,1-.7.1c-1.7,0-2.5-.9-2.5-2.6V22.7h-1.2V22l1.2-.5.5-1.8h.8v2h2.5v1h-2.5v5a1.594,1.594,0,0,0,.4,1.2A1.1,1.1,0,0,0,126.1,29.3Z" fill="#252a2e"/><path d="M132.6,30.3a3.773,3.773,0,0,1-3-1.2,4.591,4.591,0,0,1-1.1-3.2,4.826,4.826,0,0,1,1-3.3,3.424,3.424,0,0,1,2.7-1.2,3.1,3.1,0,0,1,2.5,1.1,4.1,4.1,0,0,1,.9,2.8v.8h-5.9a3.2,3.2,0,0,0,.8,2.3,2.792,2.792,0,0,0,2,.8,6.6,6.6,0,0,0,2.7-.6v1.2a9.287,9.287,0,0,1-1.3.4A4.153,4.153,0,0,1,132.6,30.3Zm-.4-7.7a1.865,1.865,0,0,0-1.6.7,2.738,2.738,0,0,0-.7,1.9h4.5a3.557,3.557,0,0,0-.5-1.9A2.193,2.193,0,0,0,132.2,22.6Z" fill="#252a2e"/><path d="M148.9,30.2V24.6a2.076,2.076,0,0,0-.4-1.5,1.813,1.813,0,0,0-1.4-.5,2.139,2.139,0,0,0-1.8.7,3.281,3.281,0,0,0-.6,2.1v4.8h-1.3V24.6a2.076,2.076,0,0,0-.4-1.5,1.813,1.813,0,0,0-1.4-.5,2.139,2.139,0,0,0-1.8.7,3.845,3.845,0,0,0-.6,2.4v4.5H138V21.6h1.1l.2,1.2h.1a3.178,3.178,0,0,1,1-1,2.41,2.41,0,0,1,1.5-.4,2.52,2.52,0,0,1,2.6,1.5h.1a3.838,3.838,0,0,1,1.1-1.1,3.064,3.064,0,0,1,1.7-.4,2.918,2.918,0,0,1,2.2.7,3.286,3.286,0,0,1,.7,2.4v5.6h-1.4Z" fill="#252a2e"/><g transform="translate(16 36) rotate(-90)"><path d="M0,0H24V24H0Z" fill="none"/><path d="M11.8,15.5a1.421,1.421,0,0,1-.6-.2L6,10.1,7.1,9l4.7,4.7L16.4,9l1.1,1.1-5.2,5.2C12.2,15.5,12,15.5,11.8,15.5Z" fill="#90939f"/></g><g transform="translate(48 12)"><rect width="24" height="24" fill="none"/><path d="M2,0H14a2.006,2.006,0,0,1,2,2V14a2.006,2.006,0,0,1-2,2H2a2.006,2.006,0,0,1-2-2V2A2.006,2.006,0,0,1,2,0Z" transform="translate(4 4)" fill="#fff"/><path d="M2,1H14a.945.945,0,0,1,1,1V14a.945.945,0,0,1-1,1H2a.945.945,0,0,1-1-1V2A.945.945,0,0,1,2,1Z" transform="translate(4 4)" fill="none" stroke="#90939f" stroke-width="2"/></g></g><g transform="translate(235 3799)"><rect width="320" height="48" fill="#fff"/><line x2="320" transform="translate(0 48.5)" fill="none" stroke="#e0e1e9" stroke-width="1"/><path d="M179.1,30.2h-1.3V19.9h-3.6V18.7h8.6v1.2h-3.6V30.2Z" fill="#252a2e"/><path d="M188.1,21.5a3.083,3.083,0,0,1,1,.1l-.2,1.2a3.444,3.444,0,0,0-.9-.1,2.5,2.5,0,0,0-1.8.8,2.971,2.971,0,0,0-.7,2.1v4.6h-1.3V21.6h1.1l.1,1.6h.1a3.611,3.611,0,0,1,1.1-1.3A2.822,2.822,0,0,1,188.1,21.5Z" fill="#252a2e"/><path d="M194.4,30.3a3.773,3.773,0,0,1-3-1.2,4.591,4.591,0,0,1-1.1-3.2,4.826,4.826,0,0,1,1-3.3,3.424,3.424,0,0,1,2.7-1.2,3.1,3.1,0,0,1,2.5,1.1,4.1,4.1,0,0,1,.9,2.8v.8h-5.9a3.2,3.2,0,0,0,.8,2.3,2.792,2.792,0,0,0,2,.8,6.6,6.6,0,0,0,2.7-.6v1.2a9.287,9.287,0,0,1-1.3.4A4.512,4.512,0,0,1,194.4,30.3Zm-.4-7.7a1.865,1.865,0,0,0-1.6.7,2.738,2.738,0,0,0-.7,1.9h4.5a3.557,3.557,0,0,0-.5-1.9A2.193,2.193,0,0,0,194,22.6Z" fill="#252a2e"/><path d="M203.4,30.3a3.773,3.773,0,0,1-3-1.2,4.591,4.591,0,0,1-1.1-3.2,4.826,4.826,0,0,1,1-3.3,3.424,3.424,0,0,1,2.7-1.2,3.1,3.1,0,0,1,2.5,1.1,4.1,4.1,0,0,1,.9,2.8v.8h-5.9a3.2,3.2,0,0,0,.8,2.3,2.792,2.792,0,0,0,2,.8,6.6,6.6,0,0,0,2.7-.6v1.2a9.287,9.287,0,0,1-1.3.4A4.887,4.887,0,0,1,203.4,30.3Zm-.4-7.7a1.865,1.865,0,0,0-1.6.7,2.738,2.738,0,0,0-.7,1.9h4.5a3.557,3.557,0,0,0-.5-1.9A2.193,2.193,0,0,0,203,22.6Z" fill="#252a2e"/><path d="M213.1,30.2V18.8h1.3V30.2h-1.3Z" fill="#252a2e"/><path d="M220.1,29.3a1.7,1.7,0,0,0,.7-.1,4.331,4.331,0,0,0,.5-.1v1c-.1.1-.3.1-.6.2a1.952,1.952,0,0,1-.7.1c-1.7,0-2.5-.9-2.5-2.6V22.7h-1.2V22l1.2-.5.5-1.8h.8v2h2.5v1h-2.5v5a1.594,1.594,0,0,0,.4,1.2A1.1,1.1,0,0,0,220.1,29.3Z" fill="#252a2e"/><path d="M226.6,30.3a3.773,3.773,0,0,1-3-1.2,4.591,4.591,0,0,1-1.1-3.2,4.826,4.826,0,0,1,1-3.3,3.424,3.424,0,0,1,2.7-1.2,3.1,3.1,0,0,1,2.5,1.1,4.1,4.1,0,0,1,.9,2.8v.8h-5.9a3.2,3.2,0,0,0,.8,2.3,2.792,2.792,0,0,0,2,.8,6.6,6.6,0,0,0,2.7-.6v1.2a9.287,9.287,0,0,1-1.3.4A4.153,4.153,0,0,1,226.6,30.3Zm-.4-7.7a1.865,1.865,0,0,0-1.6.7,2.738,2.738,0,0,0-.7,1.9h4.5a3.557,3.557,0,0,0-.5-1.9A2.193,2.193,0,0,0,226.2,22.6Z" fill="#252a2e"/><path d="M242.9,30.2V24.6a2.076,2.076,0,0,0-.4-1.5,1.813,1.813,0,0,0-1.4-.5,2.139,2.139,0,0,0-1.8.7,3.281,3.281,0,0,0-.6,2.1v4.8h-1.3V24.6a2.076,2.076,0,0,0-.4-1.5,1.813,1.813,0,0,0-1.4-.5,2.139,2.139,0,0,0-1.8.7,3.845,3.845,0,0,0-.6,2.4v4.5H232V21.6h1.1l.2,1.2h.1a3.178,3.178,0,0,1,1-1,2.41,2.41,0,0,1,1.5-.4,2.52,2.52,0,0,1,2.6,1.5h.1a3.838,3.838,0,0,1,1.1-1.1,3.064,3.064,0,0,1,1.7-.4,2.918,2.918,0,0,1,2.2.7,3.286,3.286,0,0,1,.7,2.4v5.6h-1.4Z" fill="#252a2e"/><g transform="translate(80 12)" opacity="0"><path d="M0,0H24V24H0Z" fill="none"/><path d="M11.8,15.5a1.421,1.421,0,0,1-.6-.2L6,10.1,7.1,9l4.7,4.7L16.4,9l1.1,1.1-5.2,5.2C12.2,15.5,12,15.5,11.8,15.5Z" fill="#90939f"/></g><g transform="translate(142 12)"><rect width="24" height="24" fill="none"/><path d="M2,0H14a2.006,2.006,0,0,1,2,2V14a2.006,2.006,0,0,1-2,2H2a2.006,2.006,0,0,1-2-2V2A2.006,2.006,0,0,1,2,0Z" transform="translate(4 4)" fill="#fff"/><path d="M2,1H14a.945.945,0,0,1,1,1V14a.945.945,0,0,1-1,1H2a.945.945,0,0,1-1-1V2A.945.945,0,0,1,2,1Z" transform="translate(4 4)" fill="none" stroke="#90939f" stroke-width="2"/></g></g><g transform="translate(235 3751)"><rect width="320" height="48" fill="#fff"/><path d="M179.1,30.2h-1.3V19.9h-3.6V18.7h8.6v1.2h-3.6V30.2Z" fill="#252a2e"/><path d="M188.1,21.5a3.083,3.083,0,0,1,1,.1l-.2,1.2a3.444,3.444,0,0,0-.9-.1,2.5,2.5,0,0,0-1.8.8,2.971,2.971,0,0,0-.7,2.1v4.6h-1.3V21.6h1.1l.1,1.6h.1a3.611,3.611,0,0,1,1.1-1.3A2.822,2.822,0,0,1,188.1,21.5Z" fill="#252a2e"/><path d="M194.4,30.3a3.773,3.773,0,0,1-3-1.2,4.591,4.591,0,0,1-1.1-3.2,4.826,4.826,0,0,1,1-3.3,3.424,3.424,0,0,1,2.7-1.2,3.1,3.1,0,0,1,2.5,1.1,4.1,4.1,0,0,1,.9,2.8v.8h-5.9a3.2,3.2,0,0,0,.8,2.3,2.792,2.792,0,0,0,2,.8,6.6,6.6,0,0,0,2.7-.6v1.2a9.287,9.287,0,0,1-1.3.4A4.512,4.512,0,0,1,194.4,30.3Zm-.4-7.7a1.865,1.865,0,0,0-1.6.7,2.738,2.738,0,0,0-.7,1.9h4.5a3.557,3.557,0,0,0-.5-1.9A2.193,2.193,0,0,0,194,22.6Z" fill="#252a2e"/><path d="M203.4,30.3a3.773,3.773,0,0,1-3-1.2,4.591,4.591,0,0,1-1.1-3.2,4.826,4.826,0,0,1,1-3.3,3.424,3.424,0,0,1,2.7-1.2,3.1,3.1,0,0,1,2.5,1.1,4.1,4.1,0,0,1,.9,2.8v.8h-5.9a3.2,3.2,0,0,0,.8,2.3,2.792,2.792,0,0,0,2,.8,6.6,6.6,0,0,0,2.7-.6v1.2a9.287,9.287,0,0,1-1.3.4A4.887,4.887,0,0,1,203.4,30.3Zm-.4-7.7a1.865,1.865,0,0,0-1.6.7,2.738,2.738,0,0,0-.7,1.9h4.5a3.557,3.557,0,0,0-.5-1.9A2.193,2.193,0,0,0,203,22.6Z" fill="#252a2e"/><path d="M213.1,30.2V18.8h1.3V30.2h-1.3Z" fill="#252a2e"/><path d="M220.1,29.3a1.7,1.7,0,0,0,.7-.1,4.331,4.331,0,0,0,.5-.1v1c-.1.1-.3.1-.6.2a1.952,1.952,0,0,1-.7.1c-1.7,0-2.5-.9-2.5-2.6V22.7h-1.2V22l1.2-.5.5-1.8h.8v2h2.5v1h-2.5v5a1.594,1.594,0,0,0,.4,1.2A1.1,1.1,0,0,0,220.1,29.3Z" fill="#252a2e"/><path d="M226.6,30.3a3.773,3.773,0,0,1-3-1.2,4.591,4.591,0,0,1-1.1-3.2,4.826,4.826,0,0,1,1-3.3,3.424,3.424,0,0,1,2.7-1.2,3.1,3.1,0,0,1,2.5,1.1,4.1,4.1,0,0,1,.9,2.8v.8h-5.9a3.2,3.2,0,0,0,.8,2.3,2.792,2.792,0,0,0,2,.8,6.6,6.6,0,0,0,2.7-.6v1.2a9.287,9.287,0,0,1-1.3.4A4.153,4.153,0,0,1,226.6,30.3Zm-.4-7.7a1.865,1.865,0,0,0-1.6.7,2.738,2.738,0,0,0-.7,1.9h4.5a3.557,3.557,0,0,0-.5-1.9A2.193,2.193,0,0,0,226.2,22.6Z" fill="#252a2e"/><path d="M242.9,30.2V24.6a2.076,2.076,0,0,0-.4-1.5,1.813,1.813,0,0,0-1.4-.5,2.139,2.139,0,0,0-1.8.7,3.281,3.281,0,0,0-.6,2.1v4.8h-1.3V24.6a2.076,2.076,0,0,0-.4-1.5,1.813,1.813,0,0,0-1.4-.5,2.139,2.139,0,0,0-1.8.7,3.845,3.845,0,0,0-.6,2.4v4.5H232V21.6h1.1l.2,1.2h.1a3.178,3.178,0,0,1,1-1,2.41,2.41,0,0,1,1.5-.4,2.52,2.52,0,0,1,2.6,1.5h.1a3.838,3.838,0,0,1,1.1-1.1,3.064,3.064,0,0,1,1.7-.4,2.918,2.918,0,0,1,2.2.7,3.286,3.286,0,0,1,.7,2.4v5.6h-1.4Z" fill="#252a2e"/><g transform="translate(110 36) rotate(-90)" opacity="0"><path d="M0,0H24V24H0Z" fill="none"/><path d="M11.8,15.5a1.421,1.421,0,0,1-.6-.2L6,10.1,7.1,9l4.7,4.7L16.4,9l1.1,1.1-5.2,5.2C12.2,15.5,12,15.5,11.8,15.5Z" fill="#90939f"/></g><g transform="translate(142 12)"><rect width="24" height="24" fill="none"/><path d="M6,4H18a2.006,2.006,0,0,1,2,2V18a2.006,2.006,0,0,1-2,2H6a2.006,2.006,0,0,1-2-2V6A2.006,2.006,0,0,1,6,4Z" fill="#217cbb"/><path d="M10.4,16l-4-4,1.1-1.1,2.9,2.9,6.1-6.1,1.1,1.1Z" fill="#fff"/></g></g><g transform="translate(235 3703)"><rect width="320" height="48" fill="#fff"/><path d="M179.1,30.2h-1.3V19.9h-3.6V18.7h8.6v1.2h-3.6V30.2Z" fill="#252a2e"/><path d="M188.1,21.5a3.083,3.083,0,0,1,1,.1l-.2,1.2a3.444,3.444,0,0,0-.9-.1,2.5,2.5,0,0,0-1.8.8,2.971,2.971,0,0,0-.7,2.1v4.6h-1.3V21.6h1.1l.1,1.6h.1a3.611,3.611,0,0,1,1.1-1.3A2.822,2.822,0,0,1,188.1,21.5Z" fill="#252a2e"/><path d="M194.4,30.3a3.773,3.773,0,0,1-3-1.2,4.591,4.591,0,0,1-1.1-3.2,4.826,4.826,0,0,1,1-3.3,3.424,3.424,0,0,1,2.7-1.2,3.1,3.1,0,0,1,2.5,1.1,4.1,4.1,0,0,1,.9,2.8v.8h-5.9a3.2,3.2,0,0,0,.8,2.3,2.792,2.792,0,0,0,2,.8,6.6,6.6,0,0,0,2.7-.6v1.2a9.287,9.287,0,0,1-1.3.4A4.512,4.512,0,0,1,194.4,30.3Zm-.4-7.7a1.865,1.865,0,0,0-1.6.7,2.738,2.738,0,0,0-.7,1.9h4.5a3.557,3.557,0,0,0-.5-1.9A2.193,2.193,0,0,0,194,22.6Z" fill="#252a2e"/><path d="M203.4,30.3a3.773,3.773,0,0,1-3-1.2,4.591,4.591,0,0,1-1.1-3.2,4.826,4.826,0,0,1,1-3.3,3.424,3.424,0,0,1,2.7-1.2,3.1,3.1,0,0,1,2.5,1.1,4.1,4.1,0,0,1,.9,2.8v.8h-5.9a3.2,3.2,0,0,0,.8,2.3,2.792,2.792,0,0,0,2,.8,6.6,6.6,0,0,0,2.7-.6v1.2a9.287,9.287,0,0,1-1.3.4A4.887,4.887,0,0,1,203.4,30.3Zm-.4-7.7a1.865,1.865,0,0,0-1.6.7,2.738,2.738,0,0,0-.7,1.9h4.5a3.557,3.557,0,0,0-.5-1.9A2.193,2.193,0,0,0,203,22.6Z" fill="#252a2e"/><path d="M213.1,30.2V18.8h1.3V30.2h-1.3Z" fill="#252a2e"/><path d="M220.1,29.3a1.7,1.7,0,0,0,.7-.1,4.331,4.331,0,0,0,.5-.1v1c-.1.1-.3.1-.6.2a1.952,1.952,0,0,1-.7.1c-1.7,0-2.5-.9-2.5-2.6V22.7h-1.2V22l1.2-.5.5-1.8h.8v2h2.5v1h-2.5v5a1.594,1.594,0,0,0,.4,1.2A1.1,1.1,0,0,0,220.1,29.3Z" fill="#252a2e"/><path d="M226.6,30.3a3.773,3.773,0,0,1-3-1.2,4.591,4.591,0,0,1-1.1-3.2,4.826,4.826,0,0,1,1-3.3,3.424,3.424,0,0,1,2.7-1.2,3.1,3.1,0,0,1,2.5,1.1,4.1,4.1,0,0,1,.9,2.8v.8h-5.9a3.2,3.2,0,0,0,.8,2.3,2.792,2.792,0,0,0,2,.8,6.6,6.6,0,0,0,2.7-.6v1.2a9.287,9.287,0,0,1-1.3.4A4.153,4.153,0,0,1,226.6,30.3Zm-.4-7.7a1.865,1.865,0,0,0-1.6.7,2.738,2.738,0,0,0-.7,1.9h4.5a3.557,3.557,0,0,0-.5-1.9A2.193,2.193,0,0,0,226.2,22.6Z" fill="#252a2e"/><path d="M242.9,30.2V24.6a2.076,2.076,0,0,0-.4-1.5,1.813,1.813,0,0,0-1.4-.5,2.139,2.139,0,0,0-1.8.7,3.281,3.281,0,0,0-.6,2.1v4.8h-1.3V24.6a2.076,2.076,0,0,0-.4-1.5,1.813,1.813,0,0,0-1.4-.5,2.139,2.139,0,0,0-1.8.7,3.845,3.845,0,0,0-.6,2.4v4.5H232V21.6h1.1l.2,1.2h.1a3.178,3.178,0,0,1,1-1,2.41,2.41,0,0,1,1.5-.4,2.52,2.52,0,0,1,2.6,1.5h.1a3.838,3.838,0,0,1,1.1-1.1,3.064,3.064,0,0,1,1.7-.4,2.918,2.918,0,0,1,2.2.7,3.286,3.286,0,0,1,.7,2.4v5.6h-1.4Z" fill="#252a2e"/><g transform="translate(80 12)" opacity="0"><path d="M0,0H24V24H0Z" fill="none"/><path d="M11.8,15.5a1.421,1.421,0,0,1-.6-.2L6,10.1,7.1,9l4.7,4.7L16.4,9l1.1,1.1-5.2,5.2C12.2,15.5,12,15.5,11.8,15.5Z" fill="#90939f"/></g><g transform="translate(142 12)"><rect width="24" height="24" fill="none"/><path d="M2,0H14a2.006,2.006,0,0,1,2,2V14a2.006,2.006,0,0,1-2,2H2a2.006,2.006,0,0,1-2-2V2A2.006,2.006,0,0,1,2,0Z" transform="translate(4 4)" fill="#fff"/><path d="M2,1H14a.945.945,0,0,1,1,1V14a.945.945,0,0,1-1,1H2a.945.945,0,0,1-1-1V2A.945.945,0,0,1,2,1Z" transform="translate(4 4)" fill="none" stroke="#90939f" stroke-width="2"/></g></g><g transform="translate(235 3655)"><rect width="320" height="48" fill="#fff"/><path d="M149.1,30.2h-1.3V19.9h-3.6V18.7h8.6v1.2h-3.6V30.2Z" fill="#252a2e"/><path d="M158.1,21.5a3.083,3.083,0,0,1,1,.1l-.2,1.2a3.444,3.444,0,0,0-.9-.1,2.5,2.5,0,0,0-1.8.8,2.971,2.971,0,0,0-.7,2.1v4.6h-1.3V21.6h1.1l.1,1.6h.1a3.611,3.611,0,0,1,1.1-1.3A2.822,2.822,0,0,1,158.1,21.5Z" fill="#252a2e"/><path d="M164.4,30.3a3.773,3.773,0,0,1-3-1.2,4.591,4.591,0,0,1-1.1-3.2,4.826,4.826,0,0,1,1-3.3,3.424,3.424,0,0,1,2.7-1.2,3.1,3.1,0,0,1,2.5,1.1,4.1,4.1,0,0,1,.9,2.8v.8h-5.9a3.2,3.2,0,0,0,.8,2.3,2.792,2.792,0,0,0,2,.8,6.6,6.6,0,0,0,2.7-.6v1.2a9.287,9.287,0,0,1-1.3.4A4.512,4.512,0,0,1,164.4,30.3Zm-.4-7.7a1.865,1.865,0,0,0-1.6.7,2.738,2.738,0,0,0-.7,1.9h4.5a3.557,3.557,0,0,0-.5-1.9A2.193,2.193,0,0,0,164,22.6Z" fill="#252a2e"/><path d="M173.4,30.3a3.773,3.773,0,0,1-3-1.2,4.591,4.591,0,0,1-1.1-3.2,4.826,4.826,0,0,1,1-3.3,3.424,3.424,0,0,1,2.7-1.2,3.1,3.1,0,0,1,2.5,1.1,4.1,4.1,0,0,1,.9,2.8v.8h-5.9a3.2,3.2,0,0,0,.8,2.3,2.792,2.792,0,0,0,2,.8,6.6,6.6,0,0,0,2.7-.6v1.2a9.287,9.287,0,0,1-1.3.4A4.887,4.887,0,0,1,173.4,30.3Zm-.4-7.7a1.865,1.865,0,0,0-1.6.7,2.738,2.738,0,0,0-.7,1.9h4.5a3.557,3.557,0,0,0-.5-1.9A2.193,2.193,0,0,0,173,22.6Z" fill="#252a2e"/><path d="M183.1,30.2V18.8h1.3V30.2h-1.3Z" fill="#252a2e"/><path d="M190.1,29.3a1.7,1.7,0,0,0,.7-.1,4.331,4.331,0,0,0,.5-.1v1c-.1.1-.3.1-.6.2a1.952,1.952,0,0,1-.7.1c-1.7,0-2.5-.9-2.5-2.6V22.7h-1.2V22l1.2-.5.5-1.8h.8v2h2.5v1h-2.5v5a1.594,1.594,0,0,0,.4,1.2A1.1,1.1,0,0,0,190.1,29.3Z" fill="#252a2e"/><path d="M196.6,30.3a3.773,3.773,0,0,1-3-1.2,4.591,4.591,0,0,1-1.1-3.2,4.826,4.826,0,0,1,1-3.3,3.424,3.424,0,0,1,2.7-1.2,3.1,3.1,0,0,1,2.5,1.1,4.1,4.1,0,0,1,.9,2.8v.8h-5.9a3.2,3.2,0,0,0,.8,2.3,2.792,2.792,0,0,0,2,.8,6.6,6.6,0,0,0,2.7-.6v1.2a9.287,9.287,0,0,1-1.3.4A4.153,4.153,0,0,1,196.6,30.3Zm-.4-7.7a1.865,1.865,0,0,0-1.6.7,2.738,2.738,0,0,0-.7,1.9h4.5a3.557,3.557,0,0,0-.5-1.9A2.193,2.193,0,0,0,196.2,22.6Z" fill="#252a2e"/><path d="M212.9,30.2V24.6a2.076,2.076,0,0,0-.4-1.5,1.813,1.813,0,0,0-1.4-.5,2.139,2.139,0,0,0-1.8.7,3.281,3.281,0,0,0-.6,2.1v4.8h-1.3V24.6a2.076,2.076,0,0,0-.4-1.5,1.813,1.813,0,0,0-1.4-.5,2.139,2.139,0,0,0-1.8.7,3.845,3.845,0,0,0-.6,2.4v4.5H202V21.6h1.1l.2,1.2h.1a3.178,3.178,0,0,1,1-1,2.41,2.41,0,0,1,1.5-.4,2.52,2.52,0,0,1,2.6,1.5h.1a3.838,3.838,0,0,1,1.1-1.1,3.064,3.064,0,0,1,1.7-.4,2.918,2.918,0,0,1,2.2.7,3.286,3.286,0,0,1,.7,2.4v5.6h-1.4Z" fill="#252a2e"/><g transform="translate(80 12)"><path d="M0,0H24V24H0Z" fill="none"/><path d="M11.8,15.5a1.421,1.421,0,0,1-.6-.2L6,10.1,7.1,9l4.7,4.7L16.4,9l1.1,1.1-5.2,5.2C12.2,15.5,12,15.5,11.8,15.5Z" fill="#90939f"/></g><g transform="translate(112 12)"><rect width="24" height="24" fill="none"/><path d="M2,0H14a2.006,2.006,0,0,1,2,2V14a2.006,2.006,0,0,1-2,2H2a2.006,2.006,0,0,1-2-2V2A2.006,2.006,0,0,1,2,0Z" transform="translate(4 4)" fill="#fff"/><path d="M2,1H14a.945.945,0,0,1,1,1V14a.945.945,0,0,1-1,1H2a.945.945,0,0,1-1-1V2A.945.945,0,0,1,2,1Z" transform="translate(4 4)" fill="none" stroke="#90939f" stroke-width="2"/></g></g><g transform="translate(235 3607)"><rect width="320" height="48" fill="#fff"/><path d="M117.5,30.2h-1.9V20.4h-3.4V18.8h8.6v1.6h-3.4v9.8Z" fill="#252a2e"/><path d="M126.8,21.4a2.22,2.22,0,0,1,.9.1l-.2,1.7a2.2,2.2,0,0,0-.8-.1,2.41,2.41,0,0,0-1.8.7,2.489,2.489,0,0,0-.7,1.9v4.5h-1.8V21.6h1.4l.2,1.5h.1a4.263,4.263,0,0,1,1.1-1.2A2.767,2.767,0,0,1,126.8,21.4Z" fill="#252a2e"/><path d="M133,30.3a4.378,4.378,0,0,1-3.2-1.2,4.316,4.316,0,0,1-1.1-3.2,4.859,4.859,0,0,1,1.1-3.3,3.7,3.7,0,0,1,2.9-1.2,3.62,3.62,0,0,1,2.7,1,3.8,3.8,0,0,1,1,2.9v1h-5.8a2.738,2.738,0,0,0,.7,1.9,2.139,2.139,0,0,0,1.8.7,6.149,6.149,0,0,0,1.4-.1,12.129,12.129,0,0,0,1.4-.5v1.5a5.782,5.782,0,0,1-1.4.5Zm-.3-7.5a1.678,1.678,0,0,0-1.4.6,2.578,2.578,0,0,0-.6,1.6h3.9a2.348,2.348,0,0,0-.5-1.6A1.816,1.816,0,0,0,132.7,22.8Z" fill="#252a2e"/><path d="M142.3,30.3a4.378,4.378,0,0,1-3.2-1.2,4.316,4.316,0,0,1-1.1-3.2,4.859,4.859,0,0,1,1.1-3.3,3.7,3.7,0,0,1,2.9-1.2,3.62,3.62,0,0,1,2.7,1,3.8,3.8,0,0,1,1,2.9v1h-5.8a2.738,2.738,0,0,0,.7,1.9,2.139,2.139,0,0,0,1.8.7,6.149,6.149,0,0,0,1.4-.1,12.129,12.129,0,0,0,1.4-.5v1.5a5.782,5.782,0,0,1-1.4.5Zm-.4-7.5a1.678,1.678,0,0,0-1.4.6,2.578,2.578,0,0,0-.6,1.6h3.9a2.348,2.348,0,0,0-.5-1.6A1.678,1.678,0,0,0,141.9,22.8Z" fill="#252a2e"/><path d="M152.1,30.2V18.8H154V30.2h-1.9Z" fill="#252a2e"/><path d="M160,28.9a5.853,5.853,0,0,0,1.3-.2V30a1.884,1.884,0,0,1-.8.2c-.3,0-.7.1-1,.1-1.7,0-2.6-.9-2.6-2.8V22.8h-1.2V22l1.3-.7.6-1.8h1.1v1.9h2.5v1.4h-2.5v4.6a1.493,1.493,0,0,0,.3,1A1.107,1.107,0,0,0,160,28.9Z" fill="#252a2e"/><path d="M166.8,30.3a4.378,4.378,0,0,1-3.2-1.2,4.316,4.316,0,0,1-1.1-3.2,4.859,4.859,0,0,1,1.1-3.3,3.7,3.7,0,0,1,2.9-1.2,3.62,3.62,0,0,1,2.7,1,3.8,3.8,0,0,1,1,2.9v1h-5.8a2.738,2.738,0,0,0,.7,1.9,2.139,2.139,0,0,0,1.8.7,6.149,6.149,0,0,0,1.4-.1,12.129,12.129,0,0,0,1.4-.5v1.5a5.782,5.782,0,0,1-1.4.5Zm-.3-7.5a1.678,1.678,0,0,0-1.4.6,2.578,2.578,0,0,0-.6,1.6h3.9a2.348,2.348,0,0,0-.5-1.6A1.816,1.816,0,0,0,166.5,22.8Z" fill="#252a2e"/><path d="M179.5,30.2h-1.8V24.9a2.076,2.076,0,0,0-.4-1.5,1.5,1.5,0,0,0-1.2-.5,1.865,1.865,0,0,0-1.6.7,4.352,4.352,0,0,0-.5,2.3v4.3h-1.8V21.6h1.4l.3,1.1h.1a3.178,3.178,0,0,1,1-1,4.013,4.013,0,0,1,1.5-.3,2.6,2.6,0,0,1,2.6,1.4h.1a2.66,2.66,0,0,1,1.1-1,4.193,4.193,0,0,1,1.6-.4,3.2,3.2,0,0,1,2.3.8,3.286,3.286,0,0,1,.7,2.4v5.6h-1.8V24.9a2.076,2.076,0,0,0-.4-1.5,1.5,1.5,0,0,0-1.2-.5,1.865,1.865,0,0,0-1.6.7,3.576,3.576,0,0,0-.5,2.1v4.5Z" fill="#252a2e"/><g transform="translate(48 12)"><path d="M0,0H24V24H0Z" fill="none"/><path d="M11.8,15.5a1.421,1.421,0,0,1-.6-.2L6,10.1,7.1,9l4.7,4.7L16.4,9l1.1,1.1-5.2,5.2C12.2,15.5,12,15.5,11.8,15.5Z" fill="#90939f"/></g><g transform="translate(80 12)"><rect width="24" height="24" fill="none"/><path d="M2,0H14a2.006,2.006,0,0,1,2,2V14a2.006,2.006,0,0,1-2,2H2a2.006,2.006,0,0,1-2-2V2A2.006,2.006,0,0,1,2,0Z" transform="translate(4 4)" fill="#fff"/><path d="M2,1H14a.945.945,0,0,1,1,1V14a.945.945,0,0,1-1,1H2a.945.945,0,0,1-1-1V2A.945.945,0,0,1,2,1Z" transform="translate(4 4)" fill="none" stroke="#90939f" stroke-width="2"/></g></g><g transform="translate(235 3559)"><rect width="320" height="48" fill="#fff"/><path d="M85.8,30.2H83.4V20.8H80.3v-2h8.6v2H85.8Z" fill="#252a2e"/><path d="M95.4,21.3a1.949,1.949,0,0,1,.8.1L96,23.6a1.483,1.483,0,0,0-.7-.1,2.445,2.445,0,0,0-1.8.6,2.111,2.111,0,0,0-.6,1.6v4.4H90.5V21.4h1.8l.4,1.5h.1a3.179,3.179,0,0,1,1.1-1.2A2.6,2.6,0,0,1,95.4,21.3Z" fill="#252a2e"/><path d="M101.7,30.3a4.152,4.152,0,0,1-4.5-4.5,4.954,4.954,0,0,1,1.1-3.4,3.773,3.773,0,0,1,3-1.2,4,4,0,0,1,2.9,1.1,3.945,3.945,0,0,1,1,2.9v1.2H99.6a2.065,2.065,0,0,0,2.2,2.2,7.719,7.719,0,0,0,1.5-.2,8.8,8.8,0,0,0,1.5-.5v1.8a6.943,6.943,0,0,1-1.3.5A9.722,9.722,0,0,1,101.7,30.3Zm-.3-7.3a1.656,1.656,0,0,0-1.2.5,1.978,1.978,0,0,0-.5,1.4H103a2.168,2.168,0,0,0-.5-1.4A1.173,1.173,0,0,0,101.4,23Z" fill="#252a2e"/><path d="M111.2,30.3a4.152,4.152,0,0,1-4.5-4.5,4.954,4.954,0,0,1,1.1-3.4,3.773,3.773,0,0,1,3-1.2,4,4,0,0,1,2.9,1.1,3.945,3.945,0,0,1,1,2.9v1.2h-5.6a2.065,2.065,0,0,0,2.2,2.2,7.719,7.719,0,0,0,1.5-.2,8.8,8.8,0,0,0,1.5-.5v1.8a6.943,6.943,0,0,1-1.3.5A10.283,10.283,0,0,1,111.2,30.3Zm-.3-7.3a1.656,1.656,0,0,0-1.2.5,1.978,1.978,0,0,0-.5,1.4h3.3a2.168,2.168,0,0,0-.5-1.4A1.173,1.173,0,0,0,110.9,23Z" fill="#252a2e"/><path d="M121,30.2V18.8h2.4V30.2H121Z" fill="#252a2e"/><path d="M129.8,28.4a4.936,4.936,0,0,0,1.5-.3v1.8a4.813,4.813,0,0,1-2.2.4,2.674,2.674,0,0,1-2.1-.7,3.393,3.393,0,0,1-.7-2.2V23.2h-1.1v-1l1.3-.8.7-1.8h1.5v1.9h2.4v1.8h-2.4v4.2a1.136,1.136,0,0,0,.3.8A2.2,2.2,0,0,0,129.8,28.4Z" fill="#252a2e"/><path d="M137,30.3a4.152,4.152,0,0,1-4.5-4.5,4.954,4.954,0,0,1,1.1-3.4,3.773,3.773,0,0,1,3-1.2,4,4,0,0,1,2.9,1.1,3.945,3.945,0,0,1,1,2.9v1.2H135a2.065,2.065,0,0,0,2.2,2.2,7.719,7.719,0,0,0,1.5-.2,8.8,8.8,0,0,0,1.5-.5v1.8a6.943,6.943,0,0,1-1.3.5A11.483,11.483,0,0,1,137,30.3Zm-.3-7.3a1.656,1.656,0,0,0-1.2.5,1.978,1.978,0,0,0-.5,1.4h3.3a2.168,2.168,0,0,0-.5-1.4A1.173,1.173,0,0,0,136.7,23Z" fill="#252a2e"/><path d="M150.4,30.2H148V25.1a2.649,2.649,0,0,0-.3-1.4,1.1,1.1,0,0,0-1-.5,1.269,1.269,0,0,0-1.3.7,4.087,4.087,0,0,0-.4,2.2v4.1h-2.4V21.5h1.8l.3,1.1h.1a2.189,2.189,0,0,1,1-.9,3.653,3.653,0,0,1,1.5-.3,2.787,2.787,0,0,1,2.7,1.3h.2a2.189,2.189,0,0,1,1-.9,4.013,4.013,0,0,1,1.5-.3,2.947,2.947,0,0,1,2.2.8,3.293,3.293,0,0,1,.8,2.4v5.7h-2.4V25.3a2.649,2.649,0,0,0-.3-1.4,1.1,1.1,0,0,0-1-.5,1.486,1.486,0,0,0-1.3.6,3.524,3.524,0,0,0-.4,2v4.2Z" fill="#252a2e"/><path d="M169.2,30.2h-6.6V18.8h6.6v2H165v2.5h3.9v2H165v2.9h4.2Z" fill="#252a2e"/><path d="M173.2,25.7l-2.8-4.3h2.7l1.7,2.8,1.7-2.8h2.7l-2.8,4.3,3,4.5h-2.7l-1.8-3-1.8,3h-2.7Z" fill="#252a2e"/><path d="M185.4,30.3a3.043,3.043,0,0,1-2.4-1.1h-.1a9.285,9.285,0,0,1,.1,1.3V34h-2.4V21.5h1.9l.3,1.1h.1a2.764,2.764,0,0,1,2.5-1.3,2.851,2.851,0,0,1,2.4,1.2,5.389,5.389,0,0,1,.9,3.3,6.051,6.051,0,0,1-.4,2.4,3.978,3.978,0,0,1-1.2,1.6A2.311,2.311,0,0,1,185.4,30.3Zm-.7-7.1a1.728,1.728,0,0,0-1.3.5,3.007,3.007,0,0,0-.4,1.8v.3a3.524,3.524,0,0,0,.4,2,1.486,1.486,0,0,0,1.3.6c1.1,0,1.6-.9,1.6-2.6a3.161,3.161,0,0,0-.4-1.9A1.132,1.132,0,0,0,184.7,23.2Z" fill="#252a2e"/><path d="M196.3,30.2l-.5-1.2h-.1a3,3,0,0,1-2.9,1.4,2.442,2.442,0,0,1-2.7-2.7,2.393,2.393,0,0,1,1-2.1,4.789,4.789,0,0,1,2.9-.7h1.5v-.4c0-.9-.5-1.3-1.4-1.3a6.882,6.882,0,0,0-2.5.6l-.8-1.6a7.308,7.308,0,0,1,3.3-.8,4.138,4.138,0,0,1,2.7.8,2.869,2.869,0,0,1,.9,2.3v5.8h-1.4Zm-.7-4.1h-.9a2.076,2.076,0,0,0-1.5.4,1.231,1.231,0,0,0-.5,1c0,.7.4,1,1.2,1a1.715,1.715,0,0,0,1.8-1.8v-.6Z" fill="#252a2e"/><path d="M208.5,30.2h-2.4V25.1a2.649,2.649,0,0,0-.3-1.4,1.29,1.29,0,0,0-1.1-.5,1.417,1.417,0,0,0-1.4.7,4.315,4.315,0,0,0-.4,2.2v4.1h-2.4V21.5h1.8l.3,1.1h.1a3.566,3.566,0,0,1,1.1-1,4.146,4.146,0,0,1,1.6-.3,3.2,3.2,0,0,1,2.3.8,3.293,3.293,0,0,1,.8,2.4v5.7Z" fill="#252a2e"/><path d="M213.7,30.3a2.851,2.851,0,0,1-2.4-1.2,5.389,5.389,0,0,1-.9-3.3,5.389,5.389,0,0,1,.9-3.3,2.908,2.908,0,0,1,2.5-1.2,2.764,2.764,0,0,1,2.5,1.3h.1a12.764,12.764,0,0,1-.2-1.7V18h2.4V30.2h-1.8l-.5-1.1h-.1A2.908,2.908,0,0,1,213.7,30.3Zm.8-1.9a1.578,1.578,0,0,0,1.3-.5,3.87,3.87,0,0,0,.5-1.8v-.3a3.524,3.524,0,0,0-.4-2,1.678,1.678,0,0,0-1.4-.6,1.306,1.306,0,0,0-1.2.7,3.737,3.737,0,0,0-.4,2,3.161,3.161,0,0,0,.4,1.9A1.425,1.425,0,0,0,214.5,28.4Z" fill="#252a2e"/><path d="M225,30.3a4.152,4.152,0,0,1-4.5-4.5,4.954,4.954,0,0,1,1.1-3.4,3.773,3.773,0,0,1,3-1.2,4,4,0,0,1,2.9,1.1,3.945,3.945,0,0,1,1,2.9v1.2h-5.6a2.065,2.065,0,0,0,2.2,2.2,7.719,7.719,0,0,0,1.5-.2,8.8,8.8,0,0,0,1.5-.5v1.8a6.943,6.943,0,0,1-1.3.5A9.722,9.722,0,0,1,225,30.3Zm-.3-7.3a1.656,1.656,0,0,0-1.2.5,1.978,1.978,0,0,0-.5,1.4h3.3a2.168,2.168,0,0,0-.5-1.4A1.173,1.173,0,0,0,224.7,23Z" fill="#252a2e"/><path d="M233.3,30.3a2.851,2.851,0,0,1-2.4-1.2,5.389,5.389,0,0,1-.9-3.3,5.389,5.389,0,0,1,.9-3.3,2.908,2.908,0,0,1,2.5-1.2,2.764,2.764,0,0,1,2.5,1.3h.1a12.764,12.764,0,0,1-.2-1.7V18h2.4V30.2h-1.8l-.5-1.1h-.1A2.908,2.908,0,0,1,233.3,30.3Zm.8-1.9a1.578,1.578,0,0,0,1.3-.5,3.87,3.87,0,0,0,.5-1.8v-.3a3.524,3.524,0,0,0-.4-2,1.678,1.678,0,0,0-1.4-.6,1.306,1.306,0,0,0-1.2.7,3.737,3.737,0,0,0-.4,2,3.161,3.161,0,0,0,.4,1.9A1.309,1.309,0,0,0,234.1,28.4Z" fill="#252a2e"/><g transform="translate(16 12)"><path d="M0,0H24V24H0Z" fill="none"/><path d="M11.8,15.5a1.421,1.421,0,0,1-.6-.2L6,10.1,7.1,9l4.7,4.7L16.4,9l1.1,1.1-5.2,5.2C12.2,15.5,12,15.5,11.8,15.5Z" fill="#90939f"/></g><g transform="translate(48 12)"><rect width="24" height="24" fill="none"/><path d="M2,0H14a2.006,2.006,0,0,1,2,2V14a2.006,2.006,0,0,1-2,2H2a2.006,2.006,0,0,1-2-2V2A2.006,2.006,0,0,1,2,0Z" transform="translate(4 4)" fill="#fff"/><path d="M2,1H14a.945.945,0,0,1,1,1V14a.945.945,0,0,1-1,1H2a.945.945,0,0,1-1-1V2A.945.945,0,0,1,2,1Z" transform="translate(4 4)" fill="none" stroke="#90939f" stroke-width="2"/></g></g></g><g transform="translate(-194 -3491)"><g transform="translate(235 3751.5)"><rect width="320" height="48" fill="#fff"/><line x2="320" transform="translate(0 48.5)" fill="none" stroke="#e0e1e9" stroke-width="1"/><line x2="320" transform="translate(0 0.5)" fill="none" stroke="#e0e1e9" stroke-width="1"/><path d="M85.1,30.2H83.8V19.9H80.2V18.7h8.6v1.2H85.2V30.2Z" fill="#252a2e"/><path d="M94.1,21.5a3.083,3.083,0,0,1,1,.1L95,22.8a3.445,3.445,0,0,0-.9-.1,2.5,2.5,0,0,0-1.8.8,2.971,2.971,0,0,0-.7,2.1v4.6H90.3V21.6h1.1l.1,1.6h.1a3.611,3.611,0,0,1,1.1-1.3A2.3,2.3,0,0,1,94.1,21.5Z" fill="#252a2e"/><path d="M100.4,30.3a3.773,3.773,0,0,1-3-1.2,4.591,4.591,0,0,1-1.1-3.2,4.826,4.826,0,0,1,1-3.3,3.424,3.424,0,0,1,2.7-1.2,3.1,3.1,0,0,1,2.5,1.1,4.1,4.1,0,0,1,.9,2.8v.8H97.5a3.2,3.2,0,0,0,.8,2.3,2.792,2.792,0,0,0,2,.8,6.6,6.6,0,0,0,2.7-.6v1.2a9.288,9.288,0,0,1-1.3.4A4.512,4.512,0,0,1,100.4,30.3Zm-.4-7.7a1.865,1.865,0,0,0-1.6.7,3.3,3.3,0,0,0-.7,1.9h4.5a3.557,3.557,0,0,0-.5-1.9A2.193,2.193,0,0,0,100,22.6Z" fill="#252a2e"/><path d="M109.4,30.3a3.773,3.773,0,0,1-3-1.2,4.591,4.591,0,0,1-1.1-3.2,4.826,4.826,0,0,1,1-3.3,3.424,3.424,0,0,1,2.7-1.2,3.1,3.1,0,0,1,2.5,1.1,4.1,4.1,0,0,1,.9,2.8v.8h-5.9a3.2,3.2,0,0,0,.8,2.3,2.792,2.792,0,0,0,2,.8,6.6,6.6,0,0,0,2.7-.6v1.2a9.288,9.288,0,0,1-1.3.4A4.888,4.888,0,0,1,109.4,30.3Zm-.4-7.7a1.865,1.865,0,0,0-1.6.7,3.3,3.3,0,0,0-.7,1.9h4.5a3.557,3.557,0,0,0-.5-1.9A2.193,2.193,0,0,0,109,22.6Z" fill="#252a2e"/><path d="M119.1,30.2V18.8h1.3V30.2h-1.3Z" fill="#252a2e"/><path d="M126.1,29.3a1.7,1.7,0,0,0,.7-.1,4.331,4.331,0,0,0,.5-.1v1c-.1.1-.3.1-.6.2a1.952,1.952,0,0,1-.7.1c-1.7,0-2.5-.9-2.5-2.6V22.7h-1.2V22l1.2-.5.5-1.8h.8v2h2.5v1h-2.5v5a1.594,1.594,0,0,0,.4,1.2A1.1,1.1,0,0,0,126.1,29.3Z" fill="#252a2e"/><path d="M132.6,30.3a3.773,3.773,0,0,1-3-1.2,4.591,4.591,0,0,1-1.1-3.2,4.826,4.826,0,0,1,1-3.3,3.424,3.424,0,0,1,2.7-1.2,3.1,3.1,0,0,1,2.5,1.1,4.1,4.1,0,0,1,.9,2.8v.8h-5.9a3.2,3.2,0,0,0,.8,2.3,2.792,2.792,0,0,0,2,.8,6.6,6.6,0,0,0,2.7-.6v1.2a9.287,9.287,0,0,1-1.3.4A4.153,4.153,0,0,1,132.6,30.3Zm-.4-7.7a1.865,1.865,0,0,0-1.6.7,3.3,3.3,0,0,0-.7,1.9h4.5a3.557,3.557,0,0,0-.5-1.9A2.193,2.193,0,0,0,132.2,22.6Z" fill="#252a2e"/><path d="M148.9,30.2V24.6a2.076,2.076,0,0,0-.4-1.5,1.813,1.813,0,0,0-1.4-.5,2.139,2.139,0,0,0-1.8.7,3.281,3.281,0,0,0-.6,2.1v4.8h-1.3V24.6a2.076,2.076,0,0,0-.4-1.5,1.813,1.813,0,0,0-1.4-.5,2.139,2.139,0,0,0-1.8.7,3.845,3.845,0,0,0-.6,2.4v4.5H138V21.6h1.1l.2,1.2h.1a3.178,3.178,0,0,1,1-1,2.41,2.41,0,0,1,1.5-.4,2.52,2.52,0,0,1,2.6,1.5h.1a3.838,3.838,0,0,1,1.1-1.1,3.064,3.064,0,0,1,1.7-.4,2.918,2.918,0,0,1,2.2.7,3.286,3.286,0,0,1,.7,2.4v5.6h-1.4Z" fill="#252a2e"/><g transform="translate(16 36) rotate(-90)"><path d="M0,0H24V24H0Z" fill="none"/><path d="M11.8,15.5a1.421,1.421,0,0,1-.6-.2L6,10.1,7.1,9l4.7,4.7L16.4,9l1.1,1.1-5.2,5.2C12.2,15.5,12,15.5,11.8,15.5Z" fill="#90939f"/></g><g transform="translate(48 12)"><rect width="24" height="24" fill="none"/><path d="M2,0H14a2.006,2.006,0,0,1,2,2V14a2.006,2.006,0,0,1-2,2H2a2.006,2.006,0,0,1-2-2V2A2.006,2.006,0,0,1,2,0Z" transform="translate(4 4)" fill="#fff"/><path d="M2,1H14a.945.945,0,0,1,1,1V14a.945.945,0,0,1-1,1H2a.945.945,0,0,1-1-1V2A.945.945,0,0,1,2,1Z" transform="translate(4 4)" fill="none" stroke="#90939f" stroke-width="2"/></g></g><g transform="translate(235 3703.5)"><rect width="320" height="48" fill="#fff"/><line x2="320" transform="translate(0 0.5)" fill="none" stroke="#e0e1e9" stroke-width="1"/><path d="M85.1,30.2H83.8V19.9H80.2V18.7h8.6v1.2H85.2V30.2Z" fill="#252a2e"/><path d="M94.1,21.5a3.083,3.083,0,0,1,1,.1L95,22.8a3.445,3.445,0,0,0-.9-.1,2.5,2.5,0,0,0-1.8.8,2.971,2.971,0,0,0-.7,2.1v4.6H90.3V21.6h1.1l.1,1.6h.1a3.611,3.611,0,0,1,1.1-1.3A2.3,2.3,0,0,1,94.1,21.5Z" fill="#252a2e"/><path d="M100.4,30.3a3.773,3.773,0,0,1-3-1.2,4.591,4.591,0,0,1-1.1-3.2,4.826,4.826,0,0,1,1-3.3,3.424,3.424,0,0,1,2.7-1.2,3.1,3.1,0,0,1,2.5,1.1,4.1,4.1,0,0,1,.9,2.8v.8H97.5a3.2,3.2,0,0,0,.8,2.3,2.792,2.792,0,0,0,2,.8,6.6,6.6,0,0,0,2.7-.6v1.2a9.288,9.288,0,0,1-1.3.4A4.512,4.512,0,0,1,100.4,30.3Zm-.4-7.7a1.865,1.865,0,0,0-1.6.7,3.3,3.3,0,0,0-.7,1.9h4.5a3.557,3.557,0,0,0-.5-1.9A2.193,2.193,0,0,0,100,22.6Z" fill="#252a2e"/><path d="M109.4,30.3a3.773,3.773,0,0,1-3-1.2,4.591,4.591,0,0,1-1.1-3.2,4.826,4.826,0,0,1,1-3.3,3.424,3.424,0,0,1,2.7-1.2,3.1,3.1,0,0,1,2.5,1.1,4.1,4.1,0,0,1,.9,2.8v.8h-5.9a3.2,3.2,0,0,0,.8,2.3,2.792,2.792,0,0,0,2,.8,6.6,6.6,0,0,0,2.7-.6v1.2a9.288,9.288,0,0,1-1.3.4A4.888,4.888,0,0,1,109.4,30.3Zm-.4-7.7a1.865,1.865,0,0,0-1.6.7,3.3,3.3,0,0,0-.7,1.9h4.5a3.557,3.557,0,0,0-.5-1.9A2.193,2.193,0,0,0,109,22.6Z" fill="#252a2e"/><path d="M119.1,30.2V18.8h1.3V30.2h-1.3Z" fill="#252a2e"/><path d="M126.1,29.3a1.7,1.7,0,0,0,.7-.1,4.331,4.331,0,0,0,.5-.1v1c-.1.1-.3.1-.6.2a1.952,1.952,0,0,1-.7.1c-1.7,0-2.5-.9-2.5-2.6V22.7h-1.2V22l1.2-.5.5-1.8h.8v2h2.5v1h-2.5v5a1.594,1.594,0,0,0,.4,1.2A1.1,1.1,0,0,0,126.1,29.3Z" fill="#252a2e"/><path d="M132.6,30.3a3.773,3.773,0,0,1-3-1.2,4.591,4.591,0,0,1-1.1-3.2,4.826,4.826,0,0,1,1-3.3,3.424,3.424,0,0,1,2.7-1.2,3.1,3.1,0,0,1,2.5,1.1,4.1,4.1,0,0,1,.9,2.8v.8h-5.9a3.2,3.2,0,0,0,.8,2.3,2.792,2.792,0,0,0,2,.8,6.6,6.6,0,0,0,2.7-.6v1.2a9.287,9.287,0,0,1-1.3.4A4.153,4.153,0,0,1,132.6,30.3Zm-.4-7.7a1.865,1.865,0,0,0-1.6.7,3.3,3.3,0,0,0-.7,1.9h4.5a3.557,3.557,0,0,0-.5-1.9A2.193,2.193,0,0,0,132.2,22.6Z" fill="#252a2e"/><path d="M148.9,30.2V24.6a2.076,2.076,0,0,0-.4-1.5,1.813,1.813,0,0,0-1.4-.5,2.139,2.139,0,0,0-1.8.7,3.281,3.281,0,0,0-.6,2.1v4.8h-1.3V24.6a2.076,2.076,0,0,0-.4-1.5,1.813,1.813,0,0,0-1.4-.5,2.139,2.139,0,0,0-1.8.7,3.845,3.845,0,0,0-.6,2.4v4.5H138V21.6h1.1l.2,1.2h.1a3.178,3.178,0,0,1,1-1,2.41,2.41,0,0,1,1.5-.4,2.52,2.52,0,0,1,2.6,1.5h.1a3.838,3.838,0,0,1,1.1-1.1,3.064,3.064,0,0,1,1.7-.4,2.918,2.918,0,0,1,2.2.7,3.286,3.286,0,0,1,.7,2.4v5.6h-1.4Z" fill="#252a2e"/><g transform="translate(16 36) rotate(-90)"><path d="M0,0H24V24H0Z" fill="none"/><path d="M11.8,15.5a1.421,1.421,0,0,1-.6-.2L6,10.1,7.1,9l4.7,4.7L16.4,9l1.1,1.1-5.2,5.2C12.2,15.5,12,15.5,11.8,15.5Z" fill="#90939f"/></g><g transform="translate(48 12)"><rect width="24" height="24" fill="none"/><path d="M2,0H14a2.006,2.006,0,0,1,2,2V14a2.006,2.006,0,0,1-2,2H2a2.006,2.006,0,0,1-2-2V2A2.006,2.006,0,0,1,2,0Z" transform="translate(4 4)" fill="#fff"/><path d="M2,1H14a.945.945,0,0,1,1,1V14a.945.945,0,0,1-1,1H2a.945.945,0,0,1-1-1V2A.945.945,0,0,1,2,1Z" transform="translate(4 4)" fill="none" stroke="#90939f" stroke-width="2"/></g></g><g transform="translate(235 3655.5)"><rect width="320" height="48" fill="#fff"/><path d="M85.1,30.2H83.8V19.9H80.2V18.7h8.6v1.2H85.2V30.2Z" fill="#252a2e"/><path d="M94.1,21.5a3.083,3.083,0,0,1,1,.1L95,22.8a3.445,3.445,0,0,0-.9-.1,2.5,2.5,0,0,0-1.8.8,2.971,2.971,0,0,0-.7,2.1v4.6H90.3V21.6h1.1l.1,1.6h.1a3.611,3.611,0,0,1,1.1-1.3A2.3,2.3,0,0,1,94.1,21.5Z" fill="#252a2e"/><path d="M100.4,30.3a3.773,3.773,0,0,1-3-1.2,4.591,4.591,0,0,1-1.1-3.2,4.826,4.826,0,0,1,1-3.3,3.424,3.424,0,0,1,2.7-1.2,3.1,3.1,0,0,1,2.5,1.1,4.1,4.1,0,0,1,.9,2.8v.8H97.5a3.2,3.2,0,0,0,.8,2.3,2.792,2.792,0,0,0,2,.8,6.6,6.6,0,0,0,2.7-.6v1.2a9.288,9.288,0,0,1-1.3.4A4.512,4.512,0,0,1,100.4,30.3Zm-.4-7.7a1.865,1.865,0,0,0-1.6.7,3.3,3.3,0,0,0-.7,1.9h4.5a3.557,3.557,0,0,0-.5-1.9A2.193,2.193,0,0,0,100,22.6Z" fill="#252a2e"/><path d="M109.4,30.3a3.773,3.773,0,0,1-3-1.2,4.591,4.591,0,0,1-1.1-3.2,4.826,4.826,0,0,1,1-3.3,3.424,3.424,0,0,1,2.7-1.2,3.1,3.1,0,0,1,2.5,1.1,4.1,4.1,0,0,1,.9,2.8v.8h-5.9a3.2,3.2,0,0,0,.8,2.3,2.792,2.792,0,0,0,2,.8,6.6,6.6,0,0,0,2.7-.6v1.2a9.288,9.288,0,0,1-1.3.4A4.888,4.888,0,0,1,109.4,30.3Zm-.4-7.7a1.865,1.865,0,0,0-1.6.7,3.3,3.3,0,0,0-.7,1.9h4.5a3.557,3.557,0,0,0-.5-1.9A2.193,2.193,0,0,0,109,22.6Z" fill="#252a2e"/><path d="M119.1,30.2V18.8h1.3V30.2h-1.3Z" fill="#252a2e"/><path d="M126.1,29.3a1.7,1.7,0,0,0,.7-.1,4.331,4.331,0,0,0,.5-.1v1c-.1.1-.3.1-.6.2a1.952,1.952,0,0,1-.7.1c-1.7,0-2.5-.9-2.5-2.6V22.7h-1.2V22l1.2-.5.5-1.8h.8v2h2.5v1h-2.5v5a1.594,1.594,0,0,0,.4,1.2A1.1,1.1,0,0,0,126.1,29.3Z" fill="#252a2e"/><path d="M132.6,30.3a3.773,3.773,0,0,1-3-1.2,4.591,4.591,0,0,1-1.1-3.2,4.826,4.826,0,0,1,1-3.3,3.424,3.424,0,0,1,2.7-1.2,3.1,3.1,0,0,1,2.5,1.1,4.1,4.1,0,0,1,.9,2.8v.8h-5.9a3.2,3.2,0,0,0,.8,2.3,2.792,2.792,0,0,0,2,.8,6.6,6.6,0,0,0,2.7-.6v1.2a9.287,9.287,0,0,1-1.3.4A4.153,4.153,0,0,1,132.6,30.3Zm-.4-7.7a1.865,1.865,0,0,0-1.6.7,3.3,3.3,0,0,0-.7,1.9h4.5a3.557,3.557,0,0,0-.5-1.9A2.193,2.193,0,0,0,132.2,22.6Z" fill="#252a2e"/><path d="M148.9,30.2V24.6a2.076,2.076,0,0,0-.4-1.5,1.813,1.813,0,0,0-1.4-.5,2.139,2.139,0,0,0-1.8.7,3.281,3.281,0,0,0-.6,2.1v4.8h-1.3V24.6a2.076,2.076,0,0,0-.4-1.5,1.813,1.813,0,0,0-1.4-.5,2.139,2.139,0,0,0-1.8.7,3.845,3.845,0,0,0-.6,2.4v4.5H138V21.6h1.1l.2,1.2h.1a3.178,3.178,0,0,1,1-1,2.41,2.41,0,0,1,1.5-.4,2.52,2.52,0,0,1,2.6,1.5h.1a3.838,3.838,0,0,1,1.1-1.1,3.064,3.064,0,0,1,1.7-.4,2.918,2.918,0,0,1,2.2.7,3.286,3.286,0,0,1,.7,2.4v5.6h-1.4Z" fill="#252a2e"/><g transform="translate(16 36) rotate(-90)"><path d="M0,0H24V24H0Z" fill="none"/><path d="M11.8,15.5a1.421,1.421,0,0,1-.6-.2L6,10.1,7.1,9l4.7,4.7L16.4,9l1.1,1.1-5.2,5.2C12.2,15.5,12,15.5,11.8,15.5Z" fill="#90939f"/></g><g transform="translate(48 12)"><rect width="24" height="24" fill="none"/><path d="M2,0H14a2.006,2.006,0,0,1,2,2V14a2.006,2.006,0,0,1-2,2H2a2.006,2.006,0,0,1-2-2V2A2.006,2.006,0,0,1,2,0Z" transform="translate(4 4)" fill="#fff"/><path d="M2,1H14a.945.945,0,0,1,1,1V14a.945.945,0,0,1-1,1H2a.945.945,0,0,1-1-1V2A.945.945,0,0,1,2,1Z" transform="translate(4 4)" fill="none" stroke="#90939f" stroke-width="2"/></g></g><g transform="translate(235 3607)"><rect width="320" height="48" fill="#fff"/><line x2="320" transform="translate(0 48.5)" fill="none" stroke="#e0e1e9" stroke-width="1"/><line x2="320" transform="translate(0 0.5)" fill="none" stroke="#e0e1e9" stroke-width="1"/><path d="M85.1,30.2H83.8V19.9H80.2V18.7h8.6v1.2H85.2V30.2Z" fill="#252a2e"/><path d="M94.1,21.5a3.083,3.083,0,0,1,1,.1L95,22.8a3.445,3.445,0,0,0-.9-.1,2.5,2.5,0,0,0-1.8.8,2.971,2.971,0,0,0-.7,2.1v4.6H90.3V21.6h1.1l.1,1.6h.1a3.611,3.611,0,0,1,1.1-1.3A2.3,2.3,0,0,1,94.1,21.5Z" fill="#252a2e"/><path d="M100.4,30.3a3.773,3.773,0,0,1-3-1.2,4.591,4.591,0,0,1-1.1-3.2,4.826,4.826,0,0,1,1-3.3,3.424,3.424,0,0,1,2.7-1.2,3.1,3.1,0,0,1,2.5,1.1,4.1,4.1,0,0,1,.9,2.8v.8H97.5a3.2,3.2,0,0,0,.8,2.3,2.792,2.792,0,0,0,2,.8,6.6,6.6,0,0,0,2.7-.6v1.2a9.288,9.288,0,0,1-1.3.4A4.512,4.512,0,0,1,100.4,30.3Zm-.4-7.7a1.865,1.865,0,0,0-1.6.7,3.3,3.3,0,0,0-.7,1.9h4.5a3.557,3.557,0,0,0-.5-1.9A2.193,2.193,0,0,0,100,22.6Z" fill="#252a2e"/><path d="M109.4,30.3a3.773,3.773,0,0,1-3-1.2,4.591,4.591,0,0,1-1.1-3.2,4.826,4.826,0,0,1,1-3.3,3.424,3.424,0,0,1,2.7-1.2,3.1,3.1,0,0,1,2.5,1.1,4.1,4.1,0,0,1,.9,2.8v.8h-5.9a3.2,3.2,0,0,0,.8,2.3,2.792,2.792,0,0,0,2,.8,6.6,6.6,0,0,0,2.7-.6v1.2a9.288,9.288,0,0,1-1.3.4A4.888,4.888,0,0,1,109.4,30.3Zm-.4-7.7a1.865,1.865,0,0,0-1.6.7,3.3,3.3,0,0,0-.7,1.9h4.5a3.557,3.557,0,0,0-.5-1.9A2.193,2.193,0,0,0,109,22.6Z" fill="#252a2e"/><path d="M119.1,30.2V18.8h1.3V30.2h-1.3Z" fill="#252a2e"/><path d="M126.1,29.3a1.7,1.7,0,0,0,.7-.1,4.331,4.331,0,0,0,.5-.1v1c-.1.1-.3.1-.6.2a1.952,1.952,0,0,1-.7.1c-1.7,0-2.5-.9-2.5-2.6V22.7h-1.2V22l1.2-.5.5-1.8h.8v2h2.5v1h-2.5v5a1.594,1.594,0,0,0,.4,1.2A1.1,1.1,0,0,0,126.1,29.3Z" fill="#252a2e"/><path d="M132.6,30.3a3.773,3.773,0,0,1-3-1.2,4.591,4.591,0,0,1-1.1-3.2,4.826,4.826,0,0,1,1-3.3,3.424,3.424,0,0,1,2.7-1.2,3.1,3.1,0,0,1,2.5,1.1,4.1,4.1,0,0,1,.9,2.8v.8h-5.9a3.2,3.2,0,0,0,.8,2.3,2.792,2.792,0,0,0,2,.8,6.6,6.6,0,0,0,2.7-.6v1.2a9.287,9.287,0,0,1-1.3.4A4.153,4.153,0,0,1,132.6,30.3Zm-.4-7.7a1.865,1.865,0,0,0-1.6.7,3.3,3.3,0,0,0-.7,1.9h4.5a3.557,3.557,0,0,0-.5-1.9A2.193,2.193,0,0,0,132.2,22.6Z" fill="#252a2e"/><path d="M148.9,30.2V24.6a2.076,2.076,0,0,0-.4-1.5,1.813,1.813,0,0,0-1.4-.5,2.139,2.139,0,0,0-1.8.7,3.281,3.281,0,0,0-.6,2.1v4.8h-1.3V24.6a2.076,2.076,0,0,0-.4-1.5,1.813,1.813,0,0,0-1.4-.5,2.139,2.139,0,0,0-1.8.7,3.845,3.845,0,0,0-.6,2.4v4.5H138V21.6h1.1l.2,1.2h.1a3.178,3.178,0,0,1,1-1,2.41,2.41,0,0,1,1.5-.4,2.52,2.52,0,0,1,2.6,1.5h.1a3.838,3.838,0,0,1,1.1-1.1,3.064,3.064,0,0,1,1.7-.4,2.918,2.918,0,0,1,2.2.7,3.286,3.286,0,0,1,.7,2.4v5.6h-1.4Z" fill="#252a2e"/><g transform="translate(16 36) rotate(-90)"><path d="M0,0H24V24H0Z" fill="none"/><path d="M11.8,15.5a1.421,1.421,0,0,1-.6-.2L6,10.1,7.1,9l4.7,4.7L16.4,9l1.1,1.1-5.2,5.2C12.2,15.5,12,15.5,11.8,15.5Z" fill="#90939f"/></g><g transform="translate(48 12)"><rect width="24" height="24" fill="none"/><path d="M2,0H14a2.006,2.006,0,0,1,2,2V14a2.006,2.006,0,0,1-2,2H2a2.006,2.006,0,0,1-2-2V2A2.006,2.006,0,0,1,2,0Z" transform="translate(4 4)" fill="#fff"/><path d="M2,1H14a.945.945,0,0,1,1,1V14a.945.945,0,0,1-1,1H2a.945.945,0,0,1-1-1V2A.945.945,0,0,1,2,1Z" transform="translate(4 4)" fill="none" stroke="#90939f" stroke-width="2"/></g></g><g transform="translate(235 3559)"><rect width="320" height="48" fill="#fff"/><line x2="320" transform="translate(0 0.5)" fill="none" stroke="#e0e1e9" stroke-width="1"/><path d="M85.1,30.2H83.8V19.9H80.2V18.7h8.6v1.2H85.2V30.2Z" fill="#252a2e"/><path d="M94.1,21.5a3.083,3.083,0,0,1,1,.1L95,22.8a3.445,3.445,0,0,0-.9-.1,2.5,2.5,0,0,0-1.8.8,2.971,2.971,0,0,0-.7,2.1v4.6H90.3V21.6h1.1l.1,1.6h.1a3.611,3.611,0,0,1,1.1-1.3A2.3,2.3,0,0,1,94.1,21.5Z" fill="#252a2e"/><path d="M100.4,30.3a3.773,3.773,0,0,1-3-1.2,4.591,4.591,0,0,1-1.1-3.2,4.826,4.826,0,0,1,1-3.3,3.424,3.424,0,0,1,2.7-1.2,3.1,3.1,0,0,1,2.5,1.1,4.1,4.1,0,0,1,.9,2.8v.8H97.5a3.2,3.2,0,0,0,.8,2.3,2.792,2.792,0,0,0,2,.8,6.6,6.6,0,0,0,2.7-.6v1.2a9.288,9.288,0,0,1-1.3.4A4.512,4.512,0,0,1,100.4,30.3Zm-.4-7.7a1.865,1.865,0,0,0-1.6.7,3.3,3.3,0,0,0-.7,1.9h4.5a3.557,3.557,0,0,0-.5-1.9A2.193,2.193,0,0,0,100,22.6Z" fill="#252a2e"/><path d="M109.4,30.3a3.773,3.773,0,0,1-3-1.2,4.591,4.591,0,0,1-1.1-3.2,4.826,4.826,0,0,1,1-3.3,3.424,3.424,0,0,1,2.7-1.2,3.1,3.1,0,0,1,2.5,1.1,4.1,4.1,0,0,1,.9,2.8v.8h-5.9a3.2,3.2,0,0,0,.8,2.3,2.792,2.792,0,0,0,2,.8,6.6,6.6,0,0,0,2.7-.6v1.2a9.288,9.288,0,0,1-1.3.4A4.888,4.888,0,0,1,109.4,30.3Zm-.4-7.7a1.865,1.865,0,0,0-1.6.7,3.3,3.3,0,0,0-.7,1.9h4.5a3.557,3.557,0,0,0-.5-1.9A2.193,2.193,0,0,0,109,22.6Z" fill="#252a2e"/><path d="M119.1,30.2V18.8h1.3V30.2h-1.3Z" fill="#252a2e"/><path d="M126.1,29.3a1.7,1.7,0,0,0,.7-.1,4.331,4.331,0,0,0,.5-.1v1c-.1.1-.3.1-.6.2a1.952,1.952,0,0,1-.7.1c-1.7,0-2.5-.9-2.5-2.6V22.7h-1.2V22l1.2-.5.5-1.8h.8v2h2.5v1h-2.5v5a1.594,1.594,0,0,0,.4,1.2A1.1,1.1,0,0,0,126.1,29.3Z" fill="#252a2e"/><path d="M132.6,30.3a3.773,3.773,0,0,1-3-1.2,4.591,4.591,0,0,1-1.1-3.2,4.826,4.826,0,0,1,1-3.3,3.424,3.424,0,0,1,2.7-1.2,3.1,3.1,0,0,1,2.5,1.1,4.1,4.1,0,0,1,.9,2.8v.8h-5.9a3.2,3.2,0,0,0,.8,2.3,2.792,2.792,0,0,0,2,.8,6.6,6.6,0,0,0,2.7-.6v1.2a9.287,9.287,0,0,1-1.3.4A4.153,4.153,0,0,1,132.6,30.3Zm-.4-7.7a1.865,1.865,0,0,0-1.6.7,3.3,3.3,0,0,0-.7,1.9h4.5a3.557,3.557,0,0,0-.5-1.9A2.193,2.193,0,0,0,132.2,22.6Z" fill="#252a2e"/><path d="M148.9,30.2V24.6a2.076,2.076,0,0,0-.4-1.5,1.813,1.813,0,0,0-1.4-.5,2.139,2.139,0,0,0-1.8.7,3.281,3.281,0,0,0-.6,2.1v4.8h-1.3V24.6a2.076,2.076,0,0,0-.4-1.5,1.813,1.813,0,0,0-1.4-.5,2.139,2.139,0,0,0-1.8.7,3.845,3.845,0,0,0-.6,2.4v4.5H138V21.6h1.1l.2,1.2h.1a3.178,3.178,0,0,1,1-1,2.41,2.41,0,0,1,1.5-.4,2.52,2.52,0,0,1,2.6,1.5h.1a3.838,3.838,0,0,1,1.1-1.1,3.064,3.064,0,0,1,1.7-.4,2.918,2.918,0,0,1,2.2.7,3.286,3.286,0,0,1,.7,2.4v5.6h-1.4Z" fill="#252a2e"/><g transform="translate(16 36) rotate(-90)"><path d="M0,0H24V24H0Z" fill="none"/><path d="M11.8,15.5a1.421,1.421,0,0,1-.6-.2L6,10.1,7.1,9l4.7,4.7L16.4,9l1.1,1.1-5.2,5.2C12.2,15.5,12,15.5,11.8,15.5Z" fill="#90939f"/></g><g transform="translate(48 12)"><rect width="24" height="24" fill="none"/><path d="M2,0H14a2.006,2.006,0,0,1,2,2V14a2.006,2.006,0,0,1-2,2H2a2.006,2.006,0,0,1-2-2V2A2.006,2.006,0,0,1,2,0Z" transform="translate(4 4)" fill="#fff"/><path d="M2,1H14a.945.945,0,0,1,1,1V14a.945.945,0,0,1-1,1H2a.945.945,0,0,1-1-1V2A.945.945,0,0,1,2,1Z" transform="translate(4 4)" fill="none" stroke="#90939f" stroke-width="2"/></g><rect width="6" height="288" transform="translate(374)" fill="#217cbb"/></g></g><rect width="6" height="49" transform="translate(41 68)" fill="#217cbb"/></svg>