<svg xmlns="http://www.w3.org/2000/svg" width="790" height="449" viewBox="0 0 790 449"><rect width="790" height="449" fill="#353a40"/><rect width="789" height="448" transform="translate(0.5 0.5)" fill="none" stroke="#464b52" stroke-width="1"/><g transform="translate(-30 -3518)"><g transform="translate(235 3887.5)"><rect width="320" height="48" fill="#171c1e"/><path d="M85.1,30.2H83.8V19.9H80.2V18.7h8.6v1.2H85.2l-.1,10.3Z" fill="#fff"/><path d="M94.1,21.5a3.083,3.083,0,0,1,1,.1L95,22.8a3.445,3.445,0,0,0-.9-.1,2.5,2.5,0,0,0-1.8.8,2.971,2.971,0,0,0-.7,2.1v4.6H90.3V21.6h1.1l.1,1.6h.1a3.611,3.611,0,0,1,1.1-1.3A2.3,2.3,0,0,1,94.1,21.5Z" fill="#fff"/><path d="M100.4,30.3a3.773,3.773,0,0,1-3-1.2,4.591,4.591,0,0,1-1.1-3.2,4.826,4.826,0,0,1,1-3.3,3.424,3.424,0,0,1,2.7-1.2,3.1,3.1,0,0,1,2.5,1.1,4.1,4.1,0,0,1,.9,2.8v.8H97.5a3.2,3.2,0,0,0,.8,2.3,2.792,2.792,0,0,0,2,.8,6.6,6.6,0,0,0,2.7-.6v1.2a9.288,9.288,0,0,1-1.3.4A4.512,4.512,0,0,1,100.4,30.3Zm-.4-7.7a1.865,1.865,0,0,0-1.6.7,3.3,3.3,0,0,0-.7,1.9h4.5a3.557,3.557,0,0,0-.5-1.9A2.193,2.193,0,0,0,100,22.6Z" fill="#fff"/><path d="M109.4,30.3a3.773,3.773,0,0,1-3-1.2,4.591,4.591,0,0,1-1.1-3.2,4.826,4.826,0,0,1,1-3.3,3.424,3.424,0,0,1,2.7-1.2,3.1,3.1,0,0,1,2.5,1.1,4.1,4.1,0,0,1,.9,2.8v.8h-5.9a3.2,3.2,0,0,0,.8,2.3,2.792,2.792,0,0,0,2,.8,6.6,6.6,0,0,0,2.7-.6v1.2a9.288,9.288,0,0,1-1.3.4A4.888,4.888,0,0,1,109.4,30.3Zm-.4-7.7a1.865,1.865,0,0,0-1.6.7,3.3,3.3,0,0,0-.7,1.9h4.5a3.557,3.557,0,0,0-.5-1.9A2.193,2.193,0,0,0,109,22.6Z" fill="#fff"/><path d="M119.1,30.2V18.8h1.3V30.2Z" fill="#fff"/><path d="M126.1,29.3a1.7,1.7,0,0,0,.7-.1,4.331,4.331,0,0,0,.5-.1v1c-.1.1-.3.1-.6.2a1.952,1.952,0,0,1-.7.1c-1.7,0-2.5-.9-2.5-2.6V22.7h-1.2V22l1.2-.5.5-1.8h.8v2h2.5v1h-2.5v5a1.594,1.594,0,0,0,.4,1.2A1.1,1.1,0,0,0,126.1,29.3Z" fill="#fff"/><path d="M132.6,30.3a3.773,3.773,0,0,1-3-1.2,4.591,4.591,0,0,1-1.1-3.2,4.826,4.826,0,0,1,1-3.3,3.424,3.424,0,0,1,2.7-1.2,3.1,3.1,0,0,1,2.5,1.1,4.1,4.1,0,0,1,.9,2.8v.8h-5.9a3.2,3.2,0,0,0,.8,2.3,2.792,2.792,0,0,0,2,.8,6.6,6.6,0,0,0,2.7-.6v1.2a9.287,9.287,0,0,1-1.3.4A4.153,4.153,0,0,1,132.6,30.3Zm-.4-7.7a1.865,1.865,0,0,0-1.6.7,3.3,3.3,0,0,0-.7,1.9h4.5a3.557,3.557,0,0,0-.5-1.9A2.193,2.193,0,0,0,132.2,22.6Z" fill="#fff"/><path d="M148.9,30.2V24.6a2.076,2.076,0,0,0-.4-1.5,1.813,1.813,0,0,0-1.4-.5,2.139,2.139,0,0,0-1.8.7,3.281,3.281,0,0,0-.6,2.1v4.8h-1.3V24.6a2.076,2.076,0,0,0-.4-1.5,1.813,1.813,0,0,0-1.4-.5,2.139,2.139,0,0,0-1.8.7,3.845,3.845,0,0,0-.6,2.4v4.5H138V21.6h1.1l.2,1.2h.1a3.178,3.178,0,0,1,1-1,2.41,2.41,0,0,1,1.5-.4,2.52,2.52,0,0,1,2.6,1.5h.1a3.838,3.838,0,0,1,1.1-1.1,3.064,3.064,0,0,1,1.7-.4,2.918,2.918,0,0,1,2.2.7,3.286,3.286,0,0,1,.7,2.4v5.6l-1.4.1Z" fill="#fff"/><g transform="translate(16 36) rotate(-90)"><path d="M0,0H24V24H0Z" fill="none"/><path d="M11.8,15.5a1.421,1.421,0,0,1-.6-.2L6,10.1,7.1,9l4.7,4.7L16.4,9l1.1,1.1-5.2,5.2C12.2,15.5,12,15.5,11.8,15.5Z" fill="#90939f"/></g><g transform="translate(48 12)"><rect width="24" height="24" fill="none"/><path d="M2,0H14a2.006,2.006,0,0,1,2,2V14a2.006,2.006,0,0,1-2,2H2a2.006,2.006,0,0,1-2-2V2A2.006,2.006,0,0,1,2,0Z" transform="translate(4 4)" fill="none"/><path d="M2,1H14a.945.945,0,0,1,1,1V14a.945.945,0,0,1-1,1H2a.945.945,0,0,1-1-1V2A.945.945,0,0,1,2,1Z" transform="translate(4 4)" fill="none" stroke="#90939f" stroke-width="2"/></g></g><g transform="translate(235 3839)"><rect width="320" height="48" fill="#171c1e"/><line x2="320" transform="translate(0 48.5)" fill="none" stroke="#464b52" stroke-width="1"/><line x2="320" transform="translate(0 0.5)" fill="none" stroke="#464b52" stroke-width="1"/><path d="M85.1,30.2H83.8V19.9H80.2V18.7h8.6v1.2H85.2l-.1,10.3Z" fill="#fff"/><path d="M94.1,21.5a3.083,3.083,0,0,1,1,.1L95,22.8a3.445,3.445,0,0,0-.9-.1,2.5,2.5,0,0,0-1.8.8,2.971,2.971,0,0,0-.7,2.1v4.6H90.3V21.6h1.1l.1,1.6h.1a3.611,3.611,0,0,1,1.1-1.3A2.3,2.3,0,0,1,94.1,21.5Z" fill="#fff"/><path d="M100.4,30.3a3.773,3.773,0,0,1-3-1.2,4.591,4.591,0,0,1-1.1-3.2,4.826,4.826,0,0,1,1-3.3,3.424,3.424,0,0,1,2.7-1.2,3.1,3.1,0,0,1,2.5,1.1,4.1,4.1,0,0,1,.9,2.8v.8H97.5a3.2,3.2,0,0,0,.8,2.3,2.792,2.792,0,0,0,2,.8,6.6,6.6,0,0,0,2.7-.6v1.2a9.288,9.288,0,0,1-1.3.4A4.512,4.512,0,0,1,100.4,30.3Zm-.4-7.7a1.865,1.865,0,0,0-1.6.7,3.3,3.3,0,0,0-.7,1.9h4.5a3.557,3.557,0,0,0-.5-1.9A2.193,2.193,0,0,0,100,22.6Z" fill="#fff"/><path d="M109.4,30.3a3.773,3.773,0,0,1-3-1.2,4.591,4.591,0,0,1-1.1-3.2,4.826,4.826,0,0,1,1-3.3,3.424,3.424,0,0,1,2.7-1.2,3.1,3.1,0,0,1,2.5,1.1,4.1,4.1,0,0,1,.9,2.8v.8h-5.9a3.2,3.2,0,0,0,.8,2.3,2.792,2.792,0,0,0,2,.8,6.6,6.6,0,0,0,2.7-.6v1.2a9.288,9.288,0,0,1-1.3.4A4.888,4.888,0,0,1,109.4,30.3Zm-.4-7.7a1.865,1.865,0,0,0-1.6.7,3.3,3.3,0,0,0-.7,1.9h4.5a3.557,3.557,0,0,0-.5-1.9A2.193,2.193,0,0,0,109,22.6Z" fill="#fff"/><path d="M119.1,30.2V18.8h1.3V30.2Z" fill="#fff"/><path d="M126.1,29.3a1.7,1.7,0,0,0,.7-.1,4.331,4.331,0,0,0,.5-.1v1c-.1.1-.3.1-.6.2a1.952,1.952,0,0,1-.7.1c-1.7,0-2.5-.9-2.5-2.6V22.7h-1.2V22l1.2-.5.5-1.8h.8v2h2.5v1h-2.5v5a1.594,1.594,0,0,0,.4,1.2A1.1,1.1,0,0,0,126.1,29.3Z" fill="#fff"/><path d="M132.6,30.3a3.773,3.773,0,0,1-3-1.2,4.591,4.591,0,0,1-1.1-3.2,4.826,4.826,0,0,1,1-3.3,3.424,3.424,0,0,1,2.7-1.2,3.1,3.1,0,0,1,2.5,1.1,4.1,4.1,0,0,1,.9,2.8v.8h-5.9a3.2,3.2,0,0,0,.8,2.3,2.792,2.792,0,0,0,2,.8,6.6,6.6,0,0,0,2.7-.6v1.2a9.287,9.287,0,0,1-1.3.4A4.153,4.153,0,0,1,132.6,30.3Zm-.4-7.7a1.865,1.865,0,0,0-1.6.7,3.3,3.3,0,0,0-.7,1.9h4.5a3.557,3.557,0,0,0-.5-1.9A2.193,2.193,0,0,0,132.2,22.6Z" fill="#fff"/><path d="M148.9,30.2V24.6a2.076,2.076,0,0,0-.4-1.5,1.813,1.813,0,0,0-1.4-.5,2.139,2.139,0,0,0-1.8.7,3.281,3.281,0,0,0-.6,2.1v4.8h-1.3V24.6a2.076,2.076,0,0,0-.4-1.5,1.813,1.813,0,0,0-1.4-.5,2.139,2.139,0,0,0-1.8.7,3.845,3.845,0,0,0-.6,2.4v4.5H138V21.6h1.1l.2,1.2h.1a3.178,3.178,0,0,1,1-1,2.41,2.41,0,0,1,1.5-.4,2.52,2.52,0,0,1,2.6,1.5h.1a3.838,3.838,0,0,1,1.1-1.1,3.064,3.064,0,0,1,1.7-.4,2.918,2.918,0,0,1,2.2.7,3.286,3.286,0,0,1,.7,2.4v5.6l-1.4.1Z" fill="#fff"/><g transform="translate(16 36) rotate(-90)"><path d="M0,0H24V24H0Z" fill="none"/><path d="M11.8,15.5a1.421,1.421,0,0,1-.6-.2L6,10.1,7.1,9l4.7,4.7L16.4,9l1.1,1.1-5.2,5.2C12.2,15.5,12,15.5,11.8,15.5Z" fill="#90939f"/></g><g transform="translate(48 12)"><rect width="24" height="24" fill="none"/><path d="M2,0H14a2.006,2.006,0,0,1,2,2V14a2.006,2.006,0,0,1-2,2H2a2.006,2.006,0,0,1-2-2V2A2.006,2.006,0,0,1,2,0Z" transform="translate(4 4)" fill="none"/><path d="M2,1H14a.945.945,0,0,1,1,1V14a.945.945,0,0,1-1,1H2a.945.945,0,0,1-1-1V2A.945.945,0,0,1,2,1Z" transform="translate(4 4)" fill="none" stroke="#90939f" stroke-width="2"/></g></g><g transform="translate(-130 3547)"><rect width="320" height="40" transform="translate(365 252)" fill="#171c1e"/><path d="M541.6,278l2.1-10h1.2l-1.9,8.9h3.9l-.2,1.1Z" fill="#fff"/><path d="M552,270.4a3.037,3.037,0,0,1,2.1.8,2.865,2.865,0,0,1,.8,2.1,6.042,6.042,0,0,1-.5,2.4,5.936,5.936,0,0,1-1.3,1.8,2.564,2.564,0,0,1-1.9.6,2.865,2.865,0,0,1-2.1-.8,2.817,2.817,0,0,1-.7-2.1,6.042,6.042,0,0,1,.5-2.4,4.92,4.92,0,0,1,1.3-1.8A2.792,2.792,0,0,1,552,270.4Zm1.6,2.7a2.01,2.01,0,0,0-.4-1.3,1.656,1.656,0,0,0-1.2-.5,2.106,2.106,0,0,0-1.3.5,2.845,2.845,0,0,0-.9,1.4,6.447,6.447,0,0,0-.3,2,1.955,1.955,0,0,0,.4,1.4,1.656,1.656,0,0,0,1.2.5,2.106,2.106,0,0,0,1.3-.5,2.845,2.845,0,0,0,.9-1.4A6.648,6.648,0,0,0,553.6,273.1Z" fill="#fff"/><path d="M559.9,270.4a2.016,2.016,0,0,1,1.1.3,2.723,2.723,0,0,1,.8,1h.1l.5-1.2h.9l-1.6,7.5h-.9l.2-1.4h-.1a3.57,3.57,0,0,1-2.6,1.6,1.8,1.8,0,0,1-1.5-.7,2.851,2.851,0,0,1-.5-1.9,7.512,7.512,0,0,1,.5-2.6,5.334,5.334,0,0,1,1.3-1.9A2.41,2.41,0,0,1,559.9,270.4Zm-1.3,6.8a1.936,1.936,0,0,0,1.3-.6A6.445,6.445,0,0,0,561,275a5.086,5.086,0,0,0,.4-2,1.366,1.366,0,0,0-.4-1.1,1.284,1.284,0,0,0-1-.4,1.76,1.76,0,0,0-1.3.6,4.882,4.882,0,0,0-1,1.6,5.106,5.106,0,0,0-.3,2.1,2.133,2.133,0,0,0,.3,1.2A2,2,0,0,0,558.6,277.2Z" fill="#fff"/><path d="M567.8,270.4a1.914,1.914,0,0,1,1.9,1.3h.1c.1-.7.2-1.3.3-1.9l.5-2.4h1.1L569.4,278h-1l.2-1.4h-.1a4.561,4.561,0,0,1-1.3,1.2,2.842,2.842,0,0,1-1.2.4,1.8,1.8,0,0,1-1.5-.7,2.851,2.851,0,0,1-.5-1.9,7.635,7.635,0,0,1,.5-2.7,5.334,5.334,0,0,1,1.3-1.9A3.859,3.859,0,0,1,567.8,270.4Zm-1.3,6.8a1.936,1.936,0,0,0,1.3-.6,4.569,4.569,0,0,0,1.1-1.6,4.767,4.767,0,0,0,.4-2,1.594,1.594,0,0,0-.4-1.2,1.366,1.366,0,0,0-1.1-.4,1.76,1.76,0,0,0-1.3.6,4.882,4.882,0,0,0-1,1.6,7.8,7.8,0,0,0-.4,2.2A1.365,1.365,0,0,0,566.5,277.2Z" fill="#fff"/><path d="M573,278h-1.1l1.6-7.5h1.1Zm.8-9.4a.845.845,0,0,1,.2-.6c.1-.2.3-.2.6-.2a.53.53,0,0,1,.6.6.845.845,0,0,1-.2.6c-.2.2-.3.3-.5.3s-.3-.1-.5-.2A.764.764,0,0,1,573.8,268.6Z" fill="#fff"/><path d="M580,278l1-4.7a4.593,4.593,0,0,0,.1-1,1.445,1.445,0,0,0-.2-.7.984.984,0,0,0-.8-.3,1.922,1.922,0,0,0-1.2.4,4,4,0,0,0-1,1.2,7.511,7.511,0,0,0-.7,1.8l-.7,3.2h-1.1l1.6-7.5h1l-.2,1.4h.1a4.741,4.741,0,0,1,1.3-1.2,2.768,2.768,0,0,1,1.3-.3,2.168,2.168,0,0,1,1.4.5,1.9,1.9,0,0,1,.5,1.3,5.018,5.018,0,0,1-.2,1.2l-1,4.6H580Z" fill="#fff"/><path d="M590.6,270.5l-.2.7-1.4.2a1.8,1.8,0,0,1,.3,1.1,2.747,2.747,0,0,1-2.9,2.9,1.268,1.268,0,0,1-.6-.1c-.6.2-1,.5-1,.9a.519.519,0,0,0,.2.4,1.483,1.483,0,0,0,.7.1l.8.1a3.8,3.8,0,0,1,1.8.6,1.486,1.486,0,0,1,.6,1.3,2.058,2.058,0,0,1-1,1.9,5.494,5.494,0,0,1-2.8.7,4.064,4.064,0,0,1-2.1-.5,1.6,1.6,0,0,1-.8-1.4,1.656,1.656,0,0,1,.5-1.2,5.65,5.65,0,0,1,1.6-.9.824.824,0,0,1-.5-.8,1.135,1.135,0,0,1,.3-.8,4.372,4.372,0,0,1,1-.6c-.3-.1-.5-.4-.7-.6a1.689,1.689,0,0,1-.3-1,3.3,3.3,0,0,1,.8-2.2,2.52,2.52,0,0,1,2.1-.8,4.1,4.1,0,0,1,1.1.1h2.5v-.1Zm-7.2,8.8a.811.811,0,0,0,.4.8,2.269,2.269,0,0,0,1.3.3,3.361,3.361,0,0,0,1.9-.4,1.306,1.306,0,0,0,.7-1.2.755.755,0,0,0-.4-.7,2.269,2.269,0,0,0-1.3-.3l-1.1-.1a2.618,2.618,0,0,0-1.3.6C583.3,278.6,583.4,278.9,583.4,279.3Zm1.9-5.9a1.277,1.277,0,0,0,2.1.9,2.406,2.406,0,0,0,.6-.8,3.6,3.6,0,0,0,.2-1.1,1.277,1.277,0,0,0-2.1-.9,1.242,1.242,0,0,0-.6.8A1.978,1.978,0,0,0,585.3,273.4Z" fill="#fff"/><path d="M590.4,277.5a1.032,1.032,0,0,1,1.1-1.1.684.684,0,0,1,.7.7,1.135,1.135,0,0,1-.3.8.908.908,0,0,1-.7.3.764.764,0,0,1-.5-.2A.85.85,0,0,1,590.4,277.5Zm3.6,0a1.032,1.032,0,0,1,1.1-1.1.684.684,0,0,1,.7.7,1.135,1.135,0,0,1-.3.8.908.908,0,0,1-.7.3.764.764,0,0,1-.5-.2A.85.85,0,0,1,594,277.5Zm3.5,0a1.032,1.032,0,0,1,1.1-1.1.684.684,0,0,1,.7.7,1.135,1.135,0,0,1-.3.8.908.908,0,0,1-.7.3.764.764,0,0,1-.5-.2A.85.85,0,0,1,597.5,277.5Z" fill="#fff"/><g transform="translate(365 252)"><rect width="24" height="23" transform="translate(144 8)" fill="none"/><g transform="translate(147 10)"><path d="M9,18A9,9,0,0,1,9,0V2.2A6.8,6.8,0,1,0,15.8,9H18A8.963,8.963,0,0,1,9,18Z" fill="#005f9e"/></g></g></g><g transform="translate(235 3751)"><rect width="320" height="48" fill="#171c1e"/><path d="M179.1,30.2h-1.3V19.9h-3.6V18.7h8.6v1.2h-3.6l-.1,10.3Z" fill="#fff"/><path d="M188.1,21.5a3.083,3.083,0,0,1,1,.1l-.2,1.2a3.444,3.444,0,0,0-.9-.1,2.5,2.5,0,0,0-1.8.8,2.971,2.971,0,0,0-.7,2.1v4.6h-1.3V21.6h1.1l.1,1.6h.1a3.611,3.611,0,0,1,1.1-1.3A2.822,2.822,0,0,1,188.1,21.5Z" fill="#fff"/><path d="M194.4,30.3a3.773,3.773,0,0,1-3-1.2,4.591,4.591,0,0,1-1.1-3.2,4.826,4.826,0,0,1,1-3.3,3.424,3.424,0,0,1,2.7-1.2,3.1,3.1,0,0,1,2.5,1.1,4.1,4.1,0,0,1,.9,2.8v.8h-5.9a3.2,3.2,0,0,0,.8,2.3,2.792,2.792,0,0,0,2,.8,6.6,6.6,0,0,0,2.7-.6v1.2a9.287,9.287,0,0,1-1.3.4A4.512,4.512,0,0,1,194.4,30.3Zm-.4-7.7a1.865,1.865,0,0,0-1.6.7,2.738,2.738,0,0,0-.7,1.9h4.5a3.557,3.557,0,0,0-.5-1.9A2.193,2.193,0,0,0,194,22.6Z" fill="#fff"/><path d="M203.4,30.3a3.773,3.773,0,0,1-3-1.2,4.591,4.591,0,0,1-1.1-3.2,4.826,4.826,0,0,1,1-3.3,3.424,3.424,0,0,1,2.7-1.2,3.1,3.1,0,0,1,2.5,1.1,4.1,4.1,0,0,1,.9,2.8v.8h-5.9a3.2,3.2,0,0,0,.8,2.3,2.792,2.792,0,0,0,2,.8,6.6,6.6,0,0,0,2.7-.6v1.2a9.287,9.287,0,0,1-1.3.4A4.887,4.887,0,0,1,203.4,30.3Zm-.4-7.7a1.865,1.865,0,0,0-1.6.7,2.738,2.738,0,0,0-.7,1.9h4.5a3.557,3.557,0,0,0-.5-1.9A2.193,2.193,0,0,0,203,22.6Z" fill="#fff"/><path d="M213.1,30.2V18.8h1.3V30.2Z" fill="#fff"/><path d="M220.1,29.3a1.7,1.7,0,0,0,.7-.1,4.331,4.331,0,0,0,.5-.1v1c-.1.1-.3.1-.6.2-.3,0-.5.1-.7.1-1.7,0-2.5-.9-2.5-2.6V22.7h-1.2V22l1.2-.5.5-1.8h.8v2h2.5v1h-2.5v5a1.594,1.594,0,0,0,.4,1.2A1.1,1.1,0,0,0,220.1,29.3Z" fill="#fff"/><path d="M226.6,30.3a3.773,3.773,0,0,1-3-1.2,4.591,4.591,0,0,1-1.1-3.2,4.826,4.826,0,0,1,1-3.3,3.424,3.424,0,0,1,2.7-1.2,3.1,3.1,0,0,1,2.5,1.1,4.1,4.1,0,0,1,.9,2.8v.8h-5.9a3.2,3.2,0,0,0,.8,2.3,2.792,2.792,0,0,0,2,.8,6.6,6.6,0,0,0,2.7-.6v1.2a9.287,9.287,0,0,1-1.3.4A4.153,4.153,0,0,1,226.6,30.3Zm-.4-7.7a1.865,1.865,0,0,0-1.6.7,2.738,2.738,0,0,0-.7,1.9h4.5a3.557,3.557,0,0,0-.5-1.9A2.193,2.193,0,0,0,226.2,22.6Z" fill="#fff"/><path d="M242.9,30.2V24.6a2.076,2.076,0,0,0-.4-1.5,1.813,1.813,0,0,0-1.4-.5,2.139,2.139,0,0,0-1.8.7,3.281,3.281,0,0,0-.6,2.1v4.8h-1.3V24.6a2.076,2.076,0,0,0-.4-1.5,1.813,1.813,0,0,0-1.4-.5,2.139,2.139,0,0,0-1.8.7,3.845,3.845,0,0,0-.6,2.4v4.5H232V21.6h1.1l.2,1.2h.1a3.178,3.178,0,0,1,1-1,2.41,2.41,0,0,1,1.5-.4,2.52,2.52,0,0,1,2.6,1.5h.1a3.838,3.838,0,0,1,1.1-1.1,3.064,3.064,0,0,1,1.7-.4,2.918,2.918,0,0,1,2.2.7,3.286,3.286,0,0,1,.7,2.4v5.6l-1.4.1Z" fill="#fff"/><g transform="translate(110 36) rotate(-90)" opacity="0"><path d="M0,0H24V24H0Z" fill="none"/><path d="M11.8,15.5a1.421,1.421,0,0,1-.6-.2L6,10.1,7.1,9l4.7,4.7L16.4,9l1.1,1.1-5.2,5.2C12.2,15.5,12,15.5,11.8,15.5Z" fill="#90939f"/></g><g transform="translate(142 12)"><rect width="24" height="24" fill="none"/><path d="M6,4H18a2.006,2.006,0,0,1,2,2V18a2.006,2.006,0,0,1-2,2H6a2.006,2.006,0,0,1-2-2V6A2.006,2.006,0,0,1,6,4Z" fill="#019aeb"/><path d="M10.4,16l-4-4,1.1-1.1,2.9,2.9,6.1-6.1,1.1,1.1Z" fill="#fff"/></g></g><g transform="translate(235 3703)"><rect width="320" height="48" fill="#171c1e"/><path d="M179.1,30.2h-1.3V19.9h-3.6V18.7h8.6v1.2h-3.6l-.1,10.3Z" fill="#fff"/><path d="M188.1,21.5a3.083,3.083,0,0,1,1,.1l-.2,1.2a3.444,3.444,0,0,0-.9-.1,2.5,2.5,0,0,0-1.8.8,2.971,2.971,0,0,0-.7,2.1v4.6h-1.3V21.6h1.1l.1,1.6h.1a3.611,3.611,0,0,1,1.1-1.3A2.822,2.822,0,0,1,188.1,21.5Z" fill="#fff"/><path d="M194.4,30.3a3.773,3.773,0,0,1-3-1.2,4.591,4.591,0,0,1-1.1-3.2,4.826,4.826,0,0,1,1-3.3,3.424,3.424,0,0,1,2.7-1.2,3.1,3.1,0,0,1,2.5,1.1,4.1,4.1,0,0,1,.9,2.8v.8h-5.9a3.2,3.2,0,0,0,.8,2.3,2.792,2.792,0,0,0,2,.8,6.6,6.6,0,0,0,2.7-.6v1.2a9.287,9.287,0,0,1-1.3.4A4.512,4.512,0,0,1,194.4,30.3Zm-.4-7.7a1.865,1.865,0,0,0-1.6.7,2.738,2.738,0,0,0-.7,1.9h4.5a3.557,3.557,0,0,0-.5-1.9A2.193,2.193,0,0,0,194,22.6Z" fill="#fff"/><path d="M203.4,30.3a3.773,3.773,0,0,1-3-1.2,4.591,4.591,0,0,1-1.1-3.2,4.826,4.826,0,0,1,1-3.3,3.424,3.424,0,0,1,2.7-1.2,3.1,3.1,0,0,1,2.5,1.1,4.1,4.1,0,0,1,.9,2.8v.8h-5.9a3.2,3.2,0,0,0,.8,2.3,2.792,2.792,0,0,0,2,.8,6.6,6.6,0,0,0,2.7-.6v1.2a9.287,9.287,0,0,1-1.3.4A4.887,4.887,0,0,1,203.4,30.3Zm-.4-7.7a1.865,1.865,0,0,0-1.6.7,2.738,2.738,0,0,0-.7,1.9h4.5a3.557,3.557,0,0,0-.5-1.9A2.193,2.193,0,0,0,203,22.6Z" fill="#fff"/><path d="M213.1,30.2V18.8h1.3V30.2Z" fill="#fff"/><path d="M220.1,29.3a1.7,1.7,0,0,0,.7-.1,4.331,4.331,0,0,0,.5-.1v1c-.1.1-.3.1-.6.2a1.952,1.952,0,0,1-.7.1c-1.7,0-2.5-.9-2.5-2.6V22.7h-1.2V22l1.2-.5.5-1.8h.8v2h2.5v1h-2.5v5a1.594,1.594,0,0,0,.4,1.2A1.1,1.1,0,0,0,220.1,29.3Z" fill="#fff"/><path d="M226.6,30.3a3.773,3.773,0,0,1-3-1.2,4.591,4.591,0,0,1-1.1-3.2,4.826,4.826,0,0,1,1-3.3,3.424,3.424,0,0,1,2.7-1.2,3.1,3.1,0,0,1,2.5,1.1,4.1,4.1,0,0,1,.9,2.8v.8h-5.9a3.2,3.2,0,0,0,.8,2.3,2.792,2.792,0,0,0,2,.8,6.6,6.6,0,0,0,2.7-.6v1.2a9.287,9.287,0,0,1-1.3.4A4.153,4.153,0,0,1,226.6,30.3Zm-.4-7.7a1.865,1.865,0,0,0-1.6.7,2.738,2.738,0,0,0-.7,1.9h4.5a3.557,3.557,0,0,0-.5-1.9A2.193,2.193,0,0,0,226.2,22.6Z" fill="#fff"/><path d="M242.9,30.2V24.6a2.076,2.076,0,0,0-.4-1.5,1.813,1.813,0,0,0-1.4-.5,2.139,2.139,0,0,0-1.8.7,3.281,3.281,0,0,0-.6,2.1v4.8h-1.3V24.6a2.076,2.076,0,0,0-.4-1.5,1.813,1.813,0,0,0-1.4-.5,2.139,2.139,0,0,0-1.8.7,3.845,3.845,0,0,0-.6,2.4v4.5H232V21.6h1.1l.2,1.2h.1a3.178,3.178,0,0,1,1-1,2.41,2.41,0,0,1,1.5-.4,2.52,2.52,0,0,1,2.6,1.5h.1a3.838,3.838,0,0,1,1.1-1.1,3.064,3.064,0,0,1,1.7-.4,2.918,2.918,0,0,1,2.2.7,3.286,3.286,0,0,1,.7,2.4v5.6l-1.4.1Z" fill="#fff"/><g transform="translate(80 12)" opacity="0"><path d="M0,0H24V24H0Z" fill="none"/><path d="M11.8,15.5a1.421,1.421,0,0,1-.6-.2L6,10.1,7.1,9l4.7,4.7L16.4,9l1.1,1.1-5.2,5.2C12.2,15.5,12,15.5,11.8,15.5Z" fill="#90939f"/></g><g transform="translate(142 12)"><rect width="24" height="24" fill="none"/><path d="M2,0H14a2.006,2.006,0,0,1,2,2V14a2.006,2.006,0,0,1-2,2H2a2.006,2.006,0,0,1-2-2V2A2.006,2.006,0,0,1,2,0Z" transform="translate(4 4)" fill="none"/><path d="M2,1H14a.945.945,0,0,1,1,1V14a.945.945,0,0,1-1,1H2a.945.945,0,0,1-1-1V2A.945.945,0,0,1,2,1Z" transform="translate(4 4)" fill="none" stroke="#90939f" stroke-width="2"/></g></g><g transform="translate(235 3655)"><rect width="320" height="48" fill="#171c1e"/><path d="M149.1,30.2h-1.3V19.9h-3.6V18.7h8.6v1.2h-3.6l-.1,10.3Z" fill="#fff"/><path d="M158.1,21.5a3.083,3.083,0,0,1,1,.1l-.2,1.2a3.444,3.444,0,0,0-.9-.1,2.5,2.5,0,0,0-1.8.8,2.971,2.971,0,0,0-.7,2.1v4.6h-1.3V21.6h1.1l.1,1.6h.1a3.611,3.611,0,0,1,1.1-1.3A2.822,2.822,0,0,1,158.1,21.5Z" fill="#fff"/><path d="M164.4,30.3a3.773,3.773,0,0,1-3-1.2,4.591,4.591,0,0,1-1.1-3.2,4.826,4.826,0,0,1,1-3.3,3.424,3.424,0,0,1,2.7-1.2,3.1,3.1,0,0,1,2.5,1.1,4.1,4.1,0,0,1,.9,2.8v.8h-5.9a3.2,3.2,0,0,0,.8,2.3,2.792,2.792,0,0,0,2,.8,6.6,6.6,0,0,0,2.7-.6v1.2a9.287,9.287,0,0,1-1.3.4A4.512,4.512,0,0,1,164.4,30.3Zm-.4-7.7a1.865,1.865,0,0,0-1.6.7,3.3,3.3,0,0,0-.7,1.9h4.5a3.557,3.557,0,0,0-.5-1.9A2.193,2.193,0,0,0,164,22.6Z" fill="#fff"/><path d="M173.4,30.3a3.773,3.773,0,0,1-3-1.2,4.591,4.591,0,0,1-1.1-3.2,4.826,4.826,0,0,1,1-3.3,3.424,3.424,0,0,1,2.7-1.2,3.1,3.1,0,0,1,2.5,1.1,4.1,4.1,0,0,1,.9,2.8v.8h-5.9a3.2,3.2,0,0,0,.8,2.3,2.792,2.792,0,0,0,2,.8,6.6,6.6,0,0,0,2.7-.6v1.2a9.287,9.287,0,0,1-1.3.4A4.887,4.887,0,0,1,173.4,30.3Zm-.4-7.7a1.865,1.865,0,0,0-1.6.7,3.3,3.3,0,0,0-.7,1.9h4.5a3.557,3.557,0,0,0-.5-1.9A2.193,2.193,0,0,0,173,22.6Z" fill="#fff"/><path d="M183.1,30.2V18.8h1.3V30.2Z" fill="#fff"/><path d="M190.1,29.3a1.7,1.7,0,0,0,.7-.1,4.331,4.331,0,0,0,.5-.1v1c-.1.1-.3.1-.6.2a1.952,1.952,0,0,1-.7.1c-1.7,0-2.5-.9-2.5-2.6V22.7h-1.2V22l1.2-.5.5-1.8h.8v2h2.5v1h-2.5v5a1.594,1.594,0,0,0,.4,1.2A1.1,1.1,0,0,0,190.1,29.3Z" fill="#fff"/><path d="M196.6,30.3a3.773,3.773,0,0,1-3-1.2,4.591,4.591,0,0,1-1.1-3.2,4.826,4.826,0,0,1,1-3.3,3.424,3.424,0,0,1,2.7-1.2,3.1,3.1,0,0,1,2.5,1.1,4.1,4.1,0,0,1,.9,2.8v.8h-5.9a3.2,3.2,0,0,0,.8,2.3,2.792,2.792,0,0,0,2,.8,6.6,6.6,0,0,0,2.7-.6v1.2a9.287,9.287,0,0,1-1.3.4A4.153,4.153,0,0,1,196.6,30.3Zm-.4-7.7a1.865,1.865,0,0,0-1.6.7,2.738,2.738,0,0,0-.7,1.9h4.5a3.557,3.557,0,0,0-.5-1.9A2.193,2.193,0,0,0,196.2,22.6Z" fill="#fff"/><path d="M212.9,30.2V24.6a2.076,2.076,0,0,0-.4-1.5,1.813,1.813,0,0,0-1.4-.5,2.139,2.139,0,0,0-1.8.7,3.281,3.281,0,0,0-.6,2.1v4.8h-1.3V24.6a2.076,2.076,0,0,0-.4-1.5,1.813,1.813,0,0,0-1.4-.5,2.139,2.139,0,0,0-1.8.7,3.845,3.845,0,0,0-.6,2.4v4.5H202V21.6h1.1l.2,1.2h.1a3.178,3.178,0,0,1,1-1,2.41,2.41,0,0,1,1.5-.4,2.52,2.52,0,0,1,2.6,1.5h.1a3.838,3.838,0,0,1,1.1-1.1,3.064,3.064,0,0,1,1.7-.4,2.918,2.918,0,0,1,2.2.7,3.286,3.286,0,0,1,.7,2.4v5.6l-1.4.1Z" fill="#fff"/><g transform="translate(80 12)"><path d="M0,0H24V24H0Z" fill="none"/><path d="M11.8,15.5a1.421,1.421,0,0,1-.6-.2L6,10.1,7.1,9l4.7,4.7L16.4,9l1.1,1.1-5.2,5.2C12.2,15.5,12,15.5,11.8,15.5Z" fill="#90939f"/></g><g transform="translate(112 12)"><rect width="24" height="24" fill="none"/><path d="M2,0H14a2.006,2.006,0,0,1,2,2V14a2.006,2.006,0,0,1-2,2H2a2.006,2.006,0,0,1-2-2V2A2.006,2.006,0,0,1,2,0Z" transform="translate(4 4)" fill="none"/><path d="M2,1H14a.945.945,0,0,1,1,1V14a.945.945,0,0,1-1,1H2a.945.945,0,0,1-1-1V2A.945.945,0,0,1,2,1Z" transform="translate(4 4)" fill="none" stroke="#90939f" stroke-width="2"/></g></g><g transform="translate(235 3607)"><rect width="320" height="48" fill="#171c1e"/><path d="M117.5,30.2h-1.9V20.4h-3.4V18.8h8.6v1.6h-3.4v9.8Z" fill="#fff"/><path d="M126.8,21.4a2.22,2.22,0,0,1,.9.1l-.2,1.7a2.2,2.2,0,0,0-.8-.1,2.41,2.41,0,0,0-1.8.7,2.489,2.489,0,0,0-.7,1.9v4.5h-1.8V21.6h1.4l.2,1.5h.1a4.263,4.263,0,0,1,1.1-1.2A2.767,2.767,0,0,1,126.8,21.4Z" fill="#fff"/><path d="M133,30.3a4.378,4.378,0,0,1-3.2-1.2,4.316,4.316,0,0,1-1.1-3.2,4.859,4.859,0,0,1,1.1-3.3,3.7,3.7,0,0,1,2.9-1.2,3.62,3.62,0,0,1,2.7,1,3.8,3.8,0,0,1,1,2.9v1h-5.8a2.738,2.738,0,0,0,.7,1.9,2.139,2.139,0,0,0,1.8.7,6.149,6.149,0,0,0,1.4-.1,12.129,12.129,0,0,0,1.4-.5v1.5a5.782,5.782,0,0,1-1.4.5Zm-.3-7.5a1.678,1.678,0,0,0-1.4.6,2.578,2.578,0,0,0-.6,1.6h3.9a2.348,2.348,0,0,0-.5-1.6A1.816,1.816,0,0,0,132.7,22.8Z" fill="#fff"/><path d="M142.3,30.3a4.378,4.378,0,0,1-3.2-1.2,4.316,4.316,0,0,1-1.1-3.2,4.859,4.859,0,0,1,1.1-3.3,3.7,3.7,0,0,1,2.9-1.2,3.62,3.62,0,0,1,2.7,1,3.8,3.8,0,0,1,1,2.9v1h-5.8a2.738,2.738,0,0,0,.7,1.9,2.139,2.139,0,0,0,1.8.7,6.149,6.149,0,0,0,1.4-.1,12.129,12.129,0,0,0,1.4-.5v1.5a5.782,5.782,0,0,1-1.4.5Zm-.4-7.5a1.678,1.678,0,0,0-1.4.6,2.578,2.578,0,0,0-.6,1.6h3.9a2.348,2.348,0,0,0-.5-1.6A1.678,1.678,0,0,0,141.9,22.8Z" fill="#fff"/><path d="M152.1,30.2V18.8H154V30.2Z" fill="#fff"/><path d="M160,28.9a5.853,5.853,0,0,0,1.3-.2V30a1.884,1.884,0,0,1-.8.2c-.3,0-.7.1-1,.1-1.7,0-2.6-.9-2.6-2.8V22.8h-1.2V22l1.3-.7.6-1.8h1.1v1.9h2.5v1.4h-2.5v4.6a1.493,1.493,0,0,0,.3,1A1.107,1.107,0,0,0,160,28.9Z" fill="#fff"/><path d="M166.8,30.3a4.378,4.378,0,0,1-3.2-1.2,4.316,4.316,0,0,1-1.1-3.2,4.859,4.859,0,0,1,1.1-3.3,3.7,3.7,0,0,1,2.9-1.2,3.62,3.62,0,0,1,2.7,1,3.8,3.8,0,0,1,1,2.9v1h-5.8a2.738,2.738,0,0,0,.7,1.9,2.139,2.139,0,0,0,1.8.7,6.149,6.149,0,0,0,1.4-.1,12.129,12.129,0,0,0,1.4-.5v1.5a5.782,5.782,0,0,1-1.4.5Zm-.3-7.5a1.678,1.678,0,0,0-1.4.6,2.578,2.578,0,0,0-.6,1.6h3.9a2.348,2.348,0,0,0-.5-1.6A1.816,1.816,0,0,0,166.5,22.8Z" fill="#fff"/><path d="M179.5,30.2h-1.8V24.9a2.076,2.076,0,0,0-.4-1.5,1.5,1.5,0,0,0-1.2-.5,1.865,1.865,0,0,0-1.6.7,4.352,4.352,0,0,0-.5,2.3v4.3h-1.8V21.6h1.4l.3,1.1h.1a3.178,3.178,0,0,1,1-1,4.013,4.013,0,0,1,1.5-.3,2.6,2.6,0,0,1,2.6,1.4h.1a2.66,2.66,0,0,1,1.1-1,4.193,4.193,0,0,1,1.6-.4,3.2,3.2,0,0,1,2.3.8,3.286,3.286,0,0,1,.7,2.4v5.6h-1.8V24.9a2.076,2.076,0,0,0-.4-1.5,1.5,1.5,0,0,0-1.2-.5,1.865,1.865,0,0,0-1.6.7,3.576,3.576,0,0,0-.5,2.1l.1,4.5Z" fill="#fff"/><g transform="translate(48 12)"><path d="M0,0H24V24H0Z" fill="none"/><path d="M11.8,15.5a1.421,1.421,0,0,1-.6-.2L6,10.1,7.1,9l4.7,4.7L16.4,9l1.1,1.1-5.2,5.2C12.2,15.5,12,15.5,11.8,15.5Z" fill="#90939f"/></g><g transform="translate(80 12)"><rect width="24" height="24" fill="none"/><path d="M2,0H14a2.006,2.006,0,0,1,2,2V14a2.006,2.006,0,0,1-2,2H2a2.006,2.006,0,0,1-2-2V2A2.006,2.006,0,0,1,2,0Z" transform="translate(4 4)" fill="none"/><path d="M2,1H14a.945.945,0,0,1,1,1V14a.945.945,0,0,1-1,1H2a.945.945,0,0,1-1-1V2A.945.945,0,0,1,2,1Z" transform="translate(4 4)" fill="none" stroke="#90939f" stroke-width="2"/></g></g><g transform="translate(235 3559)"><rect width="320" height="48" fill="#171c1e"/><line x2="320" transform="translate(0 0.5)" fill="none" stroke="#464b52" stroke-width="1"/><path d="M85.8,30.2H83.4V20.8H80.3v-2h8.6v2H85.8Z" fill="#fff"/><path d="M95.4,21.3a1.949,1.949,0,0,1,.8.1L96,23.6a1.483,1.483,0,0,0-.7-.1,2.445,2.445,0,0,0-1.8.6,2.111,2.111,0,0,0-.6,1.6v4.4H90.5V21.4h1.8l.4,1.5h.1a3.179,3.179,0,0,1,1.1-1.2A2.6,2.6,0,0,1,95.4,21.3Z" fill="#fff"/><path d="M101.7,30.3a4.152,4.152,0,0,1-4.5-4.5,4.954,4.954,0,0,1,1.1-3.4,3.773,3.773,0,0,1,3-1.2,4,4,0,0,1,2.9,1.1,3.945,3.945,0,0,1,1,2.9v1.2H99.6a2.065,2.065,0,0,0,2.2,2.2,7.719,7.719,0,0,0,1.5-.2,8.8,8.8,0,0,0,1.5-.5v1.8a6.943,6.943,0,0,1-1.3.5A9.722,9.722,0,0,1,101.7,30.3Zm-.3-7.3a1.656,1.656,0,0,0-1.2.5,1.978,1.978,0,0,0-.5,1.4H103a2.168,2.168,0,0,0-.5-1.4A1.173,1.173,0,0,0,101.4,23Z" fill="#fff"/><path d="M111.2,30.3a4.152,4.152,0,0,1-4.5-4.5,4.954,4.954,0,0,1,1.1-3.4,3.773,3.773,0,0,1,3-1.2,4,4,0,0,1,2.9,1.1,3.945,3.945,0,0,1,1,2.9v1.2h-5.6a2.065,2.065,0,0,0,2.2,2.2,7.719,7.719,0,0,0,1.5-.2,8.8,8.8,0,0,0,1.5-.5v1.8a6.943,6.943,0,0,1-1.3.5A10.283,10.283,0,0,1,111.2,30.3Zm-.3-7.3a1.656,1.656,0,0,0-1.2.5,1.978,1.978,0,0,0-.5,1.4h3.3a2.168,2.168,0,0,0-.5-1.4A1.173,1.173,0,0,0,110.9,23Z" fill="#fff"/><path d="M121,30.2V18.8h2.4V30.2Z" fill="#fff"/><path d="M129.8,28.4a4.936,4.936,0,0,0,1.5-.3v1.8a4.813,4.813,0,0,1-2.2.4,2.674,2.674,0,0,1-2.1-.7,3.393,3.393,0,0,1-.7-2.2V23.2h-1.1v-1l1.3-.8.7-1.8h1.5v1.9h2.4v1.8h-2.4v4.2a1.136,1.136,0,0,0,.3.8A2.2,2.2,0,0,0,129.8,28.4Z" fill="#fff"/><path d="M137,30.3a4.152,4.152,0,0,1-4.5-4.5,4.954,4.954,0,0,1,1.1-3.4,3.773,3.773,0,0,1,3-1.2,4,4,0,0,1,2.9,1.1,3.945,3.945,0,0,1,1,2.9v1.2H135a2.065,2.065,0,0,0,2.2,2.2,7.719,7.719,0,0,0,1.5-.2,8.8,8.8,0,0,0,1.5-.5v1.8a6.943,6.943,0,0,1-1.3.5A11.483,11.483,0,0,1,137,30.3Zm-.3-7.3a1.656,1.656,0,0,0-1.2.5,1.978,1.978,0,0,0-.5,1.4h3.3a2.168,2.168,0,0,0-.5-1.4A1.173,1.173,0,0,0,136.7,23Z" fill="#fff"/><path d="M150.4,30.2H148V25.1a2.649,2.649,0,0,0-.3-1.4,1.1,1.1,0,0,0-1-.5,1.269,1.269,0,0,0-1.3.7,4.087,4.087,0,0,0-.4,2.2v4.1h-2.4V21.5h1.8l.3,1.1h.1a2.189,2.189,0,0,1,1-.9,3.653,3.653,0,0,1,1.5-.3,2.787,2.787,0,0,1,2.7,1.3h.2a2.189,2.189,0,0,1,1-.9,4.013,4.013,0,0,1,1.5-.3,2.947,2.947,0,0,1,2.2.8,3.293,3.293,0,0,1,.8,2.4v5.7h-2.4V25.3a2.649,2.649,0,0,0-.3-1.4,1.1,1.1,0,0,0-1-.5,1.486,1.486,0,0,0-1.3.6,3.524,3.524,0,0,0-.4,2l.1,4.2Z" fill="#fff"/><path d="M169.2,30.2h-6.6V18.8h6.6v2H165v2.5h3.9v2H165v2.9h4.2Z" fill="#fff"/><path d="M173.2,25.7l-2.8-4.3h2.7l1.7,2.8,1.7-2.8h2.7l-2.8,4.3,3,4.5h-2.7l-1.8-3-1.8,3h-2.7Z" fill="#fff"/><path d="M185.4,30.3a3.043,3.043,0,0,1-2.4-1.1h-.1a9.285,9.285,0,0,1,.1,1.3V34h-2.4V21.5h1.9l.3,1.1h.1a2.764,2.764,0,0,1,2.5-1.3,2.851,2.851,0,0,1,2.4,1.2,5.389,5.389,0,0,1,.9,3.3,6.051,6.051,0,0,1-.4,2.4,3.978,3.978,0,0,1-1.2,1.6A2.311,2.311,0,0,1,185.4,30.3Zm-.7-7.1a1.728,1.728,0,0,0-1.3.5,3.007,3.007,0,0,0-.4,1.8v.3a3.524,3.524,0,0,0,.4,2,1.486,1.486,0,0,0,1.3.6c1.1,0,1.6-.9,1.6-2.6a3.161,3.161,0,0,0-.4-1.9A1.132,1.132,0,0,0,184.7,23.2Z" fill="#fff"/><path d="M196.3,30.2l-.5-1.2h-.1a3,3,0,0,1-2.9,1.4,2.442,2.442,0,0,1-2.7-2.7,2.393,2.393,0,0,1,1-2.1,4.789,4.789,0,0,1,2.9-.7h1.5v-.4c0-.9-.5-1.3-1.4-1.3a6.882,6.882,0,0,0-2.5.6l-.8-1.6a7.308,7.308,0,0,1,3.3-.8,4.138,4.138,0,0,1,2.7.8,2.869,2.869,0,0,1,.9,2.3v5.8l-1.4-.1Zm-.7-4.1h-.9a2.076,2.076,0,0,0-1.5.4,1.231,1.231,0,0,0-.5,1c0,.7.4,1,1.2,1a1.715,1.715,0,0,0,1.8-1.8v-.6Z" fill="#fff"/><path d="M208.5,30.2h-2.4V25.1a2.649,2.649,0,0,0-.3-1.4,1.29,1.29,0,0,0-1.1-.5,1.417,1.417,0,0,0-1.4.7,4.315,4.315,0,0,0-.4,2.2v4.1h-2.4V21.5h1.8l.3,1.1h.1a3.566,3.566,0,0,1,1.1-1,4.146,4.146,0,0,1,1.6-.3,3.2,3.2,0,0,1,2.3.8,3.293,3.293,0,0,1,.8,2.4v5.7Z" fill="#fff"/><path d="M213.7,30.3a2.851,2.851,0,0,1-2.4-1.2,5.389,5.389,0,0,1-.9-3.3,5.389,5.389,0,0,1,.9-3.3,2.908,2.908,0,0,1,2.5-1.2,2.764,2.764,0,0,1,2.5,1.3h.1a12.764,12.764,0,0,1-.2-1.7V18h2.4V30.2h-1.8l-.5-1.1h-.1A2.908,2.908,0,0,1,213.7,30.3Zm.8-1.9a1.578,1.578,0,0,0,1.3-.5,3.87,3.87,0,0,0,.5-1.8v-.3a3.524,3.524,0,0,0-.4-2,1.678,1.678,0,0,0-1.4-.6,1.306,1.306,0,0,0-1.2.7,3.737,3.737,0,0,0-.4,2,3.161,3.161,0,0,0,.4,1.9A1.425,1.425,0,0,0,214.5,28.4Z" fill="#fff"/><path d="M225,30.3a4.152,4.152,0,0,1-4.5-4.5,4.954,4.954,0,0,1,1.1-3.4,3.773,3.773,0,0,1,3-1.2,4,4,0,0,1,2.9,1.1,3.945,3.945,0,0,1,1,2.9v1.2h-5.6a2.065,2.065,0,0,0,2.2,2.2,7.719,7.719,0,0,0,1.5-.2,8.8,8.8,0,0,0,1.5-.5v1.8a6.943,6.943,0,0,1-1.3.5A9.722,9.722,0,0,1,225,30.3Zm-.3-7.3a1.656,1.656,0,0,0-1.2.5,1.978,1.978,0,0,0-.5,1.4h3.3a2.168,2.168,0,0,0-.5-1.4A1.173,1.173,0,0,0,224.7,23Z" fill="#fff"/><path d="M233.3,30.3a2.851,2.851,0,0,1-2.4-1.2,5.389,5.389,0,0,1-.9-3.3,5.389,5.389,0,0,1,.9-3.3,2.908,2.908,0,0,1,2.5-1.2,2.764,2.764,0,0,1,2.5,1.3h.1a12.764,12.764,0,0,1-.2-1.7V18h2.4V30.2h-1.8l-.5-1.1h-.1A2.908,2.908,0,0,1,233.3,30.3Zm.8-1.9a1.578,1.578,0,0,0,1.3-.5,3.87,3.87,0,0,0,.5-1.8v-.3a3.524,3.524,0,0,0-.4-2,1.678,1.678,0,0,0-1.4-.6,1.306,1.306,0,0,0-1.2.7,3.737,3.737,0,0,0-.4,2,3.161,3.161,0,0,0,.4,1.9A1.309,1.309,0,0,0,234.1,28.4Z" fill="#fff"/><g transform="translate(16 12)"><path d="M0,0H24V24H0Z" fill="none"/><path d="M11.8,15.5a1.421,1.421,0,0,1-.6-.2L6,10.1,7.1,9l4.7,4.7L16.4,9l1.1,1.1-5.2,5.2C12.2,15.5,12,15.5,11.8,15.5Z" fill="#90939f"/></g><g transform="translate(48 12)"><rect width="24" height="24" fill="none"/><path d="M2,0H14a2.006,2.006,0,0,1,2,2V14a2.006,2.006,0,0,1-2,2H2a2.006,2.006,0,0,1-2-2V2A2.006,2.006,0,0,1,2,0Z" transform="translate(4 4)" fill="none"/><path d="M2,1H14a.945.945,0,0,1,1,1V14a.945.945,0,0,1-1,1H2a.945.945,0,0,1-1-1V2A.945.945,0,0,1,2,1Z" transform="translate(4 4)" fill="none" stroke="#90939f" stroke-width="2"/></g></g></g><g transform="translate(665.208 469) rotate(180)"><g transform="translate(144 164)"><circle cx="4" cy="4" r="4" fill="#f0d" opacity="0.3"/><circle cx="3.5" cy="3.5" r="3.5" transform="translate(0.5 0.5)" fill="none" stroke="#f0d" stroke-width="1"/></g><path d="M144,168H102.5" fill="none" stroke="#f0d" stroke-width="1"/></g><path d="M573,273.1a1.8,1.8,0,0,1-.7,1.5,2.851,2.851,0,0,1-1.9.5,5.619,5.619,0,0,1-2-.3V274c.3.1.6.2,1,.3a3.753,3.753,0,0,0,1,.1,1.737,1.737,0,0,0,1.2-.3.975.975,0,0,0,.4-.9c0-.2,0-.5-.1-.6a1,1,0,0,0-.5-.4c-.2-.1-.6-.3-1.1-.5a3.036,3.036,0,0,1-1.4-.8,1.844,1.844,0,0,1-.4-1.3,1.613,1.613,0,0,1,.6-1.3,2.767,2.767,0,0,1,1.6-.5,4.477,4.477,0,0,1,2,.4l-.3.7a5.928,5.928,0,0,0-1.7-.4,1.493,1.493,0,0,0-1,.3,1.234,1.234,0,0,0-.4.8c0,.2,0,.5.1.6a.7.7,0,0,0,.5.4,3.363,3.363,0,0,0,1,.4,3.883,3.883,0,0,1,1.5.9A1.218,1.218,0,0,1,573,273.1Z" fill="#f0d"/><path d="M576.8,275.1a3.553,3.553,0,0,1-1-.2,1.344,1.344,0,0,1-.7-.6H575c0,.3.1.6.1.9v2.2h-.8v-7.8h.7l.1.7h0a1.874,1.874,0,0,1,.7-.6,2.509,2.509,0,0,1,1-.2,1.753,1.753,0,0,1,1.6.7,3.173,3.173,0,0,1,.6,2,2.814,2.814,0,0,1-.6,2A1.544,1.544,0,0,1,576.8,275.1Zm-.1-4.9a1.656,1.656,0,0,0-1.2.5,1.955,1.955,0,0,0-.4,1.4v.2a2.2,2.2,0,0,0,.4,1.6,1.656,1.656,0,0,0,1.2.5,1.255,1.255,0,0,0,1.1-.6,2.41,2.41,0,0,0,.4-1.5,2.075,2.075,0,0,0-.4-1.5A1.149,1.149,0,0,0,576.7,270.2Z" fill="#f0d"/><path d="M580.4,268.2c0-.2,0-.3.1-.4a.5.5,0,0,1,.6,0c.1.1.1.2.1.4s0,.3-.1.4a.367.367,0,0,1-.3.1c-.1,0-.3,0-.3-.1S580.4,268.4,580.4,268.2Zm.9,6.8h-.8v-5.4h.8Z" fill="#f0d"/><path d="M586.7,275v-3.5a1.493,1.493,0,0,0-.3-1,1.222,1.222,0,0,0-.9-.3,1.364,1.364,0,0,0-1.2.5,2.076,2.076,0,0,0-.4,1.5V275H583v-5.4h.7l.1.7h0a1.345,1.345,0,0,1,.7-.6,2.958,2.958,0,0,1,1-.2,2.456,2.456,0,0,1,1.5.5,2.07,2.07,0,0,1,.5,1.5V275Z" fill="#f0d"/><path d="M592.8,275v-3.5a1.493,1.493,0,0,0-.3-1,1.222,1.222,0,0,0-.9-.3,1.364,1.364,0,0,0-1.2.5,2.7,2.7,0,0,0-.4,1.5V275h-.8v-5.4h.7l.1.7h0a1.345,1.345,0,0,1,.7-.6,2.958,2.958,0,0,1,1-.2,2.456,2.456,0,0,1,1.5.5,2.07,2.07,0,0,1,.5,1.5V275Z" fill="#f0d"/><path d="M597.6,275.1a2.49,2.49,0,0,1-1.9-.7,2.724,2.724,0,0,1-.7-2,3.48,3.48,0,0,1,.6-2.1,2.136,2.136,0,0,1,1.7-.8,1.865,1.865,0,0,1,1.6.7,2.352,2.352,0,0,1,.6,1.7v.5h-3.7a1.978,1.978,0,0,0,.5,1.4,1.728,1.728,0,0,0,1.3.5,3.534,3.534,0,0,0,1.7-.4v.7a6.9,6.9,0,0,0-.8.3C598.3,275.1,598,275.1,597.6,275.1Zm-.2-4.9a1.159,1.159,0,0,0-1,.4,2.195,2.195,0,0,0-.5,1.2h2.8a2.133,2.133,0,0,0-.3-1.2A1.777,1.777,0,0,0,597.4,270.2Z" fill="#f0d"/><path d="M603.4,269.6c.2,0,.5,0,.6.1l-.1.8c-.2,0-.4-.1-.6-.1a1.606,1.606,0,0,0-1.1.5,1.9,1.9,0,0,0-.5,1.3v2.9H601v-5.4h.7l.1,1h0a2.7,2.7,0,0,1,.7-.8C602.7,269.6,603.1,269.6,603.4,269.6Z" fill="#f0d"/><path d="M611.1,273.5a1.426,1.426,0,0,1-.6,1.2,2.537,2.537,0,0,1-1.6.4,3.985,3.985,0,0,1-1.7-.3V274c.3.1.5.2.8.3a2.768,2.768,0,0,0,.9.1,2.958,2.958,0,0,0,1-.2.6.6,0,0,0,.3-.6.55.55,0,0,0-.3-.5,6.137,6.137,0,0,0-1.1-.5,3.831,3.831,0,0,1-1.1-.5,1.2,1.2,0,0,1-.5-.5,1.422,1.422,0,0,1-.2-.6,1.231,1.231,0,0,1,.5-1,2.235,2.235,0,0,1,1.5-.4,3.534,3.534,0,0,1,1.7.4l-.3.7a4.012,4.012,0,0,0-1.5-.3,2,2,0,0,0-.9.2.55.55,0,0,0-.3.5.6.6,0,0,0,.1.4,1.38,1.38,0,0,0,.4.3c.2.1.5.2.9.4a3.747,3.747,0,0,1,1.3.7C611,272.9,611.1,273.2,611.1,273.5Z" fill="#f0d"/><path d="M612.4,268.2c0-.2,0-.3.1-.4a.5.5,0,0,1,.6,0c.1.1.1.2.1.4s0,.3-.1.4a.367.367,0,0,1-.3.1c-.1,0-.3,0-.3-.1C612.4,268.5,612.4,268.4,612.4,268.2Zm.8,6.8h-.8v-5.4h.8Z" fill="#f0d"/><path d="M618.4,275h-3.9v-.6l2.9-4.2h-2.7v-.6h3.6v.6l-2.9,4.1h3v.7Z" fill="#f0d"/><path d="M621.9,275.1a2.49,2.49,0,0,1-1.9-.7,2.724,2.724,0,0,1-.7-2,3.48,3.48,0,0,1,.6-2.1,2.193,2.193,0,0,1,3.3-.1,2.352,2.352,0,0,1,.6,1.7v.5h-3.7a1.978,1.978,0,0,0,.5,1.4,1.728,1.728,0,0,0,1.3.5,3.534,3.534,0,0,0,1.7-.4v.7a6.9,6.9,0,0,0-.8.3C622.6,275.1,622.3,275.1,621.9,275.1Zm-.2-4.9a1.159,1.159,0,0,0-1,.4,3.337,3.337,0,0,0-.5,1.2H623a2.133,2.133,0,0,0-.3-1.2A1.777,1.777,0,0,0,621.7,270.2Z" fill="#f0d"/><path d="M625.2,270.2c0-.4.2-.7.6-.7s.6.2.6.7a.694.694,0,0,1-.6.7.52.52,0,0,1-.4-.2C625.2,270.6,625.2,270.4,625.2,270.2Zm0,4.3a.75.75,0,0,1,.1-.5.5.5,0,0,1,.8,0,.707.707,0,0,1-.4,1.2.52.52,0,0,1-.4-.2A.75.75,0,0,1,625.2,274.5Z" fill="#f0d"/><path d="M573.2,290h-4.7v-.7l1.9-1.9a8.244,8.244,0,0,0,1.1-1.2c.1-.2.3-.5.4-.7a1.949,1.949,0,0,0,.1-.8,1.222,1.222,0,0,0-.3-.9,1.493,1.493,0,0,0-1-.3,1.949,1.949,0,0,0-.8.1,4.055,4.055,0,0,0-.9.5l-.4-.6a3.678,3.678,0,0,1,2.1-.8,2.544,2.544,0,0,1,1.6.5,1.678,1.678,0,0,1,.6,1.4,2.01,2.01,0,0,1-.4,1.3,13.347,13.347,0,0,1-1.4,1.7l-1.6,1.5h3.7v.9Z" fill="#f0d"/><path d="M579.2,288.4h-1.1V290h-.8v-1.6h-3.5v-.7l3.4-4.8h.9v4.8h1.1v.7Zm-1.8-.8v-4h0a5.9,5.9,0,0,0-.4.8l-2.2,3.2Z" fill="#f0d"/><path d="M584.2,287.3l-1.9-2.6h.9l1.4,2.1,1.4-2.1h.9l-1.9,2.6,2,2.7h-.9l-1.5-2.2-1.5,2.2h-.9Z" fill="#f0d"/><path d="M595.1,290h-4.7v-.7l1.9-1.9a8.244,8.244,0,0,0,1.1-1.2c.1-.2.3-.5.4-.7a1.949,1.949,0,0,0,.1-.8,1.222,1.222,0,0,0-.3-.9,1.493,1.493,0,0,0-1-.3,1.949,1.949,0,0,0-.8.1,4.055,4.055,0,0,0-.9.5l-.4-.6a3.678,3.678,0,0,1,2.1-.8,2.544,2.544,0,0,1,1.6.5,1.678,1.678,0,0,1,.6,1.4,2.01,2.01,0,0,1-.4,1.3,13.347,13.347,0,0,1-1.4,1.7l-1.6,1.5h3.7v.9Z" fill="#f0d"/><path d="M601.2,288.4h-1.1V290h-.8v-1.6h-3.5v-.7l3.4-4.8h.9v4.8h1.1v.7Zm-1.9-.8v-4h0a5.9,5.9,0,0,0-.4.8l-2.2,3.2Z" fill="#f0d"/><path d="M607.3,290.1a3.553,3.553,0,0,1-1-.2,1.344,1.344,0,0,1-.7-.6h-.1c0,.3.1.6.1.9v2.2h-.8v-7.8h.7l.1.7h0a1.874,1.874,0,0,1,.7-.6,2.509,2.509,0,0,1,1-.2,1.753,1.753,0,0,1,1.6.7,3.173,3.173,0,0,1,.6,2,2.814,2.814,0,0,1-.6,2A1.544,1.544,0,0,1,607.3,290.1Zm-.1-4.9a1.656,1.656,0,0,0-1.2.5,1.955,1.955,0,0,0-.4,1.4v.2a2.2,2.2,0,0,0,.4,1.6,1.5,1.5,0,0,0,1.2.5,1.255,1.255,0,0,0,1.1-.6,2.41,2.41,0,0,0,.4-1.5,2.075,2.075,0,0,0-.4-1.5A1.149,1.149,0,0,0,607.2,285.2Z" fill="#f0d"/><path d="M612.3,287.3l-1.9-2.6h.9l1.4,2.1,1.4-2.1h.9l-1.9,2.6,2,2.7h-.9l-1.5-2.2-1.5,2.2h-.9Z" fill="#f0d"/><path d="M616.1,289.5a.75.75,0,0,1,.1-.5.5.5,0,0,1,.8,0,.707.707,0,0,1-.4,1.2.52.52,0,0,1-.4-.2A4.345,4.345,0,0,1,616.1,289.5Z" fill="#f0d"/><path d="M569.8,305H569v-7.1h4v.7h-3.1v2.6h3v.7h-3V305h-.1Z" fill="#f0d"/><path d="M578.6,302.3a2.444,2.444,0,0,1-.7,2,2.14,2.14,0,0,1-1.8.7,2.768,2.768,0,0,1-1.3-.3,1.789,1.789,0,0,1-.9-1,3.653,3.653,0,0,1-.3-1.5,2.444,2.444,0,0,1,.7-2,2.14,2.14,0,0,1,1.8-.7,2.41,2.41,0,0,1,1.8.7A3.138,3.138,0,0,1,578.6,302.3Zm-4,0a2.537,2.537,0,0,0,.4,1.6,1.346,1.346,0,0,0,1.2.5,1.656,1.656,0,0,0,1.2-.5,2.537,2.537,0,0,0,.4-1.6,2.075,2.075,0,0,0-.4-1.5,1.346,1.346,0,0,0-1.2-.5,1.656,1.656,0,0,0-1.2.5A2.076,2.076,0,0,0,574.6,302.3Z" fill="#f0d"/><path d="M580.9,305h-.8v-7.6h.8Z" fill="#f0d"/><path d="M583.4,305h-.8v-7.6h.8Z" fill="#f0d"/><path d="M589.8,302.3a2.444,2.444,0,0,1-.7,2,2.14,2.14,0,0,1-1.8.7,2.768,2.768,0,0,1-1.3-.3,1.789,1.789,0,0,1-.9-1,3.653,3.653,0,0,1-.3-1.5,2.444,2.444,0,0,1,.7-2,2.14,2.14,0,0,1,1.8-.7,2.41,2.41,0,0,1,1.8.7A3.139,3.139,0,0,1,589.8,302.3Zm-4.1,0a2.537,2.537,0,0,0,.4,1.6,1.346,1.346,0,0,0,1.2.5,1.656,1.656,0,0,0,1.2-.5,2.537,2.537,0,0,0,.4-1.6,2.075,2.075,0,0,0-.4-1.5,1.346,1.346,0,0,0-1.2-.5,1.656,1.656,0,0,0-1.2.5A2.076,2.076,0,0,0,585.7,302.3Z" fill="#f0d"/><path d="M595.6,305l-1-3.1a4.906,4.906,0,0,1-.3-1.3h0a8.571,8.571,0,0,1-.3,1.3l-1,3.1h-.9l-1.5-5.4h.8c.3,1.3.6,2.4.8,3.1a6.963,6.963,0,0,1,.3,1.4h0a2.543,2.543,0,0,1,.2-.7,6.361,6.361,0,0,1,.2-.7l1-3.1h.9l1,3.1c.2.6.3,1,.4,1.4h0a1.088,1.088,0,0,1,.1-.5c.1-.2.4-1.6,1-3.9h.8l-1.5,5.4-1-.1Z" fill="#f0d"/><path d="M604.9,305l-2.4-6.3h0c0,.5.1,1.1.1,1.8V305h-.8v-7.1H603l2.3,5.9h0l2.3-5.9h1.2V305H608v-4.6a10.287,10.287,0,0,1,.1-1.7h0l-2.4,6.3Z" fill="#f0d"/><path d="M615.3,302.3a2.444,2.444,0,0,1-.7,2,2.14,2.14,0,0,1-1.8.7,2.768,2.768,0,0,1-1.3-.3,1.789,1.789,0,0,1-.9-1,3.653,3.653,0,0,1-.3-1.5,2.444,2.444,0,0,1,.7-2,2.14,2.14,0,0,1,1.8-.7,2.41,2.41,0,0,1,1.8.7A3.77,3.77,0,0,1,615.3,302.3Zm-4.1,0a2.537,2.537,0,0,0,.4,1.6,1.346,1.346,0,0,0,1.2.5,1.656,1.656,0,0,0,1.2-.5,2.537,2.537,0,0,0,.4-1.6,2.075,2.075,0,0,0-.4-1.5,1.346,1.346,0,0,0-1.2-.5,1.656,1.656,0,0,0-1.2.5A2.076,2.076,0,0,0,611.2,302.3Z" fill="#f0d"/><path d="M620.3,304.3h0a2.136,2.136,0,0,1-1.7.8,1.865,1.865,0,0,1-1.6-.7,3.173,3.173,0,0,1-.6-2,3.48,3.48,0,0,1,.6-2.1,1.865,1.865,0,0,1,1.6-.7,2.136,2.136,0,0,1,1.7.8h.1v-3h.8V305h-.7Zm-1.6.1a1.364,1.364,0,0,0,1.2-.5,2.7,2.7,0,0,0,.4-1.5v-.2a2.2,2.2,0,0,0-.4-1.6,1.656,1.656,0,0,0-1.2-.5,1.255,1.255,0,0,0-1.1.6,2.537,2.537,0,0,0-.4,1.6,2.075,2.075,0,0,0,.4,1.5A1.524,1.524,0,0,0,618.7,304.4Z" fill="#f0d"/><path d="M623.6,299.6v3.5a1.493,1.493,0,0,0,.3,1,1.222,1.222,0,0,0,.9.3,1.364,1.364,0,0,0,1.2-.5,2.7,2.7,0,0,0,.4-1.5v-2.8h.8V305h-.7l-.1-.7h0a1.345,1.345,0,0,1-.7.6,2.958,2.958,0,0,1-1,.2,2.251,2.251,0,0,1-1.5-.5,1.721,1.721,0,0,1-.5-1.5v-3.5Z" fill="#f0d"/><path d="M632.4,303.5a1.426,1.426,0,0,1-.6,1.2,2.537,2.537,0,0,1-1.6.4,3.985,3.985,0,0,1-1.7-.3V304c.3.1.5.2.8.3a2.769,2.769,0,0,0,.9.1,2.958,2.958,0,0,0,1-.2.6.6,0,0,0,.3-.6.55.55,0,0,0-.3-.5,6.137,6.137,0,0,0-1.1-.5,3.831,3.831,0,0,1-1.1-.5,1.2,1.2,0,0,1-.5-.5,1.422,1.422,0,0,1-.2-.6,1.231,1.231,0,0,1,.5-1,2.235,2.235,0,0,1,1.5-.4,3.534,3.534,0,0,1,1.7.4l-.3.7a4.012,4.012,0,0,0-1.5-.3,2,2,0,0,0-.9.2.55.55,0,0,0-.3.5.6.6,0,0,0,.1.4,1.38,1.38,0,0,0,.4.3c.2.1.5.2.9.4a3.747,3.747,0,0,1,1.3.7C631.9,303.1,632.4,303.2,632.4,303.5Z" fill="#f0d"/><path d="M572.3,318.5a1.426,1.426,0,0,1-.6,1.2,2.537,2.537,0,0,1-1.6.4,3.985,3.985,0,0,1-1.7-.3V319c.3.1.5.2.8.3a2.768,2.768,0,0,0,.9.1,2.958,2.958,0,0,0,1-.2.6.6,0,0,0,.3-.6.55.55,0,0,0-.3-.5,6.137,6.137,0,0,0-1.1-.5,3.831,3.831,0,0,1-1.1-.5,1.2,1.2,0,0,1-.5-.5,1.422,1.422,0,0,1-.2-.6,1.231,1.231,0,0,1,.5-1,2.235,2.235,0,0,1,1.5-.4,3.534,3.534,0,0,1,1.7.4l-.3.7a4.012,4.012,0,0,0-1.5-.3,2,2,0,0,0-.9.2.55.55,0,0,0-.3.5.6.6,0,0,0,.1.4,1.38,1.38,0,0,0,.4.3c.2.1.5.2.9.4a3.747,3.747,0,0,1,1.3.7C572.2,317.9,572.3,318.2,572.3,318.5Z" fill="#f0d"/><path d="M576.1,320.1a3.553,3.553,0,0,1-1-.2,1.344,1.344,0,0,1-.7-.6h-.1c0,.3.1.6.1.9v2.2h-.8v-7.8h.7l.1.7h0a1.874,1.874,0,0,1,.7-.6,2.509,2.509,0,0,1,1-.2,1.753,1.753,0,0,1,1.6.7,3.173,3.173,0,0,1,.6,2,2.814,2.814,0,0,1-.6,2A1.544,1.544,0,0,1,576.1,320.1Zm-.1-4.9a1.656,1.656,0,0,0-1.2.5,1.955,1.955,0,0,0-.4,1.4v.2a2.2,2.2,0,0,0,.4,1.6,1.5,1.5,0,0,0,1.2.5,1.255,1.255,0,0,0,1.1-.6,2.41,2.41,0,0,0,.4-1.5,2.075,2.075,0,0,0-.4-1.5A1.149,1.149,0,0,0,576,315.2Z" fill="#f0d"/><path d="M579.7,313.2c0-.2,0-.3.1-.4a.5.5,0,0,1,.6,0c.1.1.1.2.1.4s0,.3-.1.4a.5.5,0,0,1-.6,0C579.8,313.5,579.7,313.4,579.7,313.2Zm.9,6.8h-.8v-5.4h.8Z" fill="#f0d"/><path d="M586,320v-3.5a1.493,1.493,0,0,0-.3-1,1.222,1.222,0,0,0-.9-.3,1.364,1.364,0,0,0-1.2.5,2.076,2.076,0,0,0-.4,1.5V320h-.8v-5.4h.7l.1.7h0a1.345,1.345,0,0,1,.7-.6,2.958,2.958,0,0,1,1-.2,2.456,2.456,0,0,1,1.5.5,2.07,2.07,0,0,1,.5,1.5V320Z" fill="#f0d"/><path d="M592.1,320v-3.5a1.493,1.493,0,0,0-.3-1,1.222,1.222,0,0,0-.9-.3,1.364,1.364,0,0,0-1.2.5,2.7,2.7,0,0,0-.4,1.5V320h-.8v-5.4h.7l.1.7h0a1.345,1.345,0,0,1,.7-.6,2.958,2.958,0,0,1,1-.2,2.456,2.456,0,0,1,1.5.5,2.07,2.07,0,0,1,.5,1.5V320Z" fill="#f0d"/><path d="M596.9,320.1a2.49,2.49,0,0,1-1.9-.7,2.724,2.724,0,0,1-.7-2,3.48,3.48,0,0,1,.6-2.1,2.136,2.136,0,0,1,1.7-.8,1.865,1.865,0,0,1,1.6.7,2.352,2.352,0,0,1,.6,1.7v.5h-3.7a1.978,1.978,0,0,0,.5,1.4,1.728,1.728,0,0,0,1.3.5,3.534,3.534,0,0,0,1.7-.4v.7a6.9,6.9,0,0,0-.8.3A1.486,1.486,0,0,1,596.9,320.1Zm-.2-4.9a1.159,1.159,0,0,0-1,.4,2.195,2.195,0,0,0-.5,1.2H598a2.133,2.133,0,0,0-.3-1.2A1.777,1.777,0,0,0,596.7,315.2Z" fill="#f0d"/><path d="M602.7,314.6c.2,0,.5,0,.6.1l-.1.8c-.2,0-.4-.1-.6-.1a1.606,1.606,0,0,0-1.1.5,1.9,1.9,0,0,0-.5,1.3v2.9h-.8v-5.4h.7l.1,1h0a2.7,2.7,0,0,1,.7-.8A1.209,1.209,0,0,1,602.7,314.6Z" fill="#f0d"/><path d="M573.2,329.6v.5l-1,.1a.758.758,0,0,1,.2.4,1.269,1.269,0,0,1,.1.6,2.106,2.106,0,0,1-.5,1.3,1.721,1.721,0,0,1-1.5.5h-.4c-.3.2-.5.4-.5.7,0,.1.1.3.2.3.1.1.3.1.6.1h.9a1.7,1.7,0,0,1,1.3.4,1.29,1.29,0,0,1,.5,1.1,1.622,1.622,0,0,1-.7,1.4,4.064,4.064,0,0,1-2.1.5,2.537,2.537,0,0,1-1.6-.4,1.255,1.255,0,0,1-.6-1.1,1.135,1.135,0,0,1,.3-.8,1.934,1.934,0,0,1,.9-.5c-.1-.1-.3-.2-.3-.3a.75.75,0,0,1-.1-.5.764.764,0,0,1,.2-.5,2.182,2.182,0,0,1,.5-.4,1.344,1.344,0,0,1-.7-.6,1.613,1.613,0,0,1-.3-.9,2.168,2.168,0,0,1,.5-1.4,2.251,2.251,0,0,1,1.5-.5,2.2,2.2,0,0,1,.8.1h1.8v-.1Zm-4.2,6.3a.755.755,0,0,0,.4.7,1.645,1.645,0,0,0,1,.2,2.811,2.811,0,0,0,1.5-.3,1.02,1.02,0,0,0,.5-.8.6.6,0,0,0-.3-.6,2.151,2.151,0,0,0-1-.2h-1a1.222,1.222,0,0,0-.9.3A.844.844,0,0,0,569,335.9Zm.4-4.5c0,.4.1.7.3.8a1.9,1.9,0,0,0,.9.3,1.2,1.2,0,0,0,0-2.4,1.222,1.222,0,0,0-.9.3A1.493,1.493,0,0,0,569.4,331.4Z" fill="#f0d"/><path d="M575.1,329.6v3.5a1.493,1.493,0,0,0,.3,1,1.222,1.222,0,0,0,.9.3,1.364,1.364,0,0,0,1.2-.5,2.076,2.076,0,0,0,.4-1.5v-2.8h.8V335H578l-.1-.7h0a1.345,1.345,0,0,1-.7.6,2.958,2.958,0,0,1-1,.2,2.251,2.251,0,0,1-1.5-.5,2.07,2.07,0,0,1-.5-1.5v-3.5Z" fill="#f0d"/><path d="M580.4,328.2c0-.2,0-.3.1-.4a.5.5,0,0,1,.6,0c.1.1.1.2.1.4s0,.3-.1.4a.367.367,0,0,1-.3.1c-.1,0-.3,0-.3-.1S580.4,328.4,580.4,328.2Zm.9,6.8h-.8v-5.4h.8Z" fill="#f0d"/><path d="M586.7,334.3h0a2.136,2.136,0,0,1-1.7.8,1.865,1.865,0,0,1-1.6-.7,3.174,3.174,0,0,1-.6-2,3.48,3.48,0,0,1,.6-2.1,1.865,1.865,0,0,1,1.6-.7,2.136,2.136,0,0,1,1.7.8h.1v-3h.8V335h-.7Zm-1.6.1a1.364,1.364,0,0,0,1.2-.5,2.7,2.7,0,0,0,.4-1.5v-.2a2.2,2.2,0,0,0-.4-1.6,1.656,1.656,0,0,0-1.2-.5,1.255,1.255,0,0,0-1.1.6,2.537,2.537,0,0,0-.4,1.6,2.075,2.075,0,0,0,.4,1.5A1.149,1.149,0,0,0,585.1,334.4Z" fill="#f0d"/><path d="M591.4,335.1a2.49,2.49,0,0,1-1.9-.7,2.724,2.724,0,0,1-.7-2,3.48,3.48,0,0,1,.6-2.1,2.136,2.136,0,0,1,1.7-.8,1.865,1.865,0,0,1,1.6.7,2.352,2.352,0,0,1,.6,1.7v.5h-3.7a1.978,1.978,0,0,0,.5,1.4,1.728,1.728,0,0,0,1.3.5,3.534,3.534,0,0,0,1.7-.4v.7a6.9,6.9,0,0,0-.8.3C592.1,335.1,591.8,335.1,591.4,335.1Zm-.2-4.9a1.159,1.159,0,0,0-1,.4,2.195,2.195,0,0,0-.5,1.2h2.8a2.133,2.133,0,0,0-.3-1.2A1.528,1.528,0,0,0,591.2,330.2Z" fill="#f0d"/><path d="M595.6,335h-.8v-7.6h.8Z" fill="#f0d"/><path d="M597.3,328.2c0-.2,0-.3.1-.4a.5.5,0,0,1,.6,0c.1.1.1.2.1.4s0,.3-.1.4a.5.5,0,0,1-.6,0C597.3,328.5,597.3,328.4,597.3,328.2Zm.8,6.8h-.8v-5.4h.8Z" fill="#f0d"/><path d="M603.5,335v-3.5a1.493,1.493,0,0,0-.3-1,1.222,1.222,0,0,0-.9-.3,1.364,1.364,0,0,0-1.2.5,2.076,2.076,0,0,0-.4,1.5V335h-.8v-5.4h.7l.1.7h0a1.345,1.345,0,0,1,.7-.6,2.958,2.958,0,0,1,1-.2,2.456,2.456,0,0,1,1.5.5,2.07,2.07,0,0,1,.5,1.5V335Z" fill="#f0d"/><path d="M608.3,335.1a2.49,2.49,0,0,1-1.9-.7,2.724,2.724,0,0,1-.7-2,3.48,3.48,0,0,1,.6-2.1,2.136,2.136,0,0,1,1.7-.8,1.865,1.865,0,0,1,1.6.7,2.352,2.352,0,0,1,.6,1.7v.5h-3.7a1.978,1.978,0,0,0,.5,1.4,1.728,1.728,0,0,0,1.3.5,3.534,3.534,0,0,0,1.7-.4v.7a6.9,6.9,0,0,0-.8.3A1.344,1.344,0,0,1,608.3,335.1Zm-.2-4.9a1.159,1.159,0,0,0-1,.4,2.195,2.195,0,0,0-.5,1.2h2.8a2.133,2.133,0,0,0-.3-1.2A1.777,1.777,0,0,0,608.1,330.2Z" fill="#f0d"/><path d="M615.1,333.5a1.426,1.426,0,0,1-.6,1.2,2.537,2.537,0,0,1-1.6.4,3.985,3.985,0,0,1-1.7-.3V334c.3.1.5.2.8.3a2.768,2.768,0,0,0,.9.1,2.958,2.958,0,0,0,1-.2.6.6,0,0,0,.3-.6.55.55,0,0,0-.3-.5,6.137,6.137,0,0,0-1.1-.5,3.831,3.831,0,0,1-1.1-.5,1.2,1.2,0,0,1-.5-.5,1.422,1.422,0,0,1-.2-.6,1.231,1.231,0,0,1,.5-1,2.235,2.235,0,0,1,1.5-.4,3.534,3.534,0,0,1,1.7.4l-.3.7a4.012,4.012,0,0,0-1.5-.3,2,2,0,0,0-.9.2.55.55,0,0,0-.3.5.6.6,0,0,0,.1.4,1.38,1.38,0,0,0,.4.3c.2.1.5.2.9.4a3.747,3.747,0,0,1,1.3.7C615,332.9,615.1,333.2,615.1,333.5Z" fill="#f0d"/></svg>