<svg xmlns="http://www.w3.org/2000/svg" width="790" height="773" viewBox="0 0 790 773"><rect width="790" height="773" fill="#353a40"/><rect width="789" height="772" transform="translate(0.5 0.5)" fill="none" stroke="#464b52" stroke-width="1"/><g transform="translate(-577 -1310)"><rect width="321" height="80" transform="translate(614 1382)" fill="#171c1e"/><g transform="translate(863 1430)"><path d="M0,0H24V24H0Z" fill="none"/><path d="M11,18a2,2,0,1,1-2-2A2.006,2.006,0,0,1,11,18ZM9,10a2,2,0,1,0,2,2A2.006,2.006,0,0,0,9,10ZM9,4a2,2,0,1,0,2,2A2.006,2.006,0,0,0,9,4Zm6,4a2,2,0,1,0-2-2A2.006,2.006,0,0,0,15,8Zm0,2a2,2,0,1,0,2,2A2.006,2.006,0,0,0,15,10Zm0,6a2,2,0,1,0,2,2A2.006,2.006,0,0,0,15,16Z" fill="#fff"/></g><g transform="translate(622 1390)"><path d="M2,0H303a2.006,2.006,0,0,1,2,2V32H0V2A2.006,2.006,0,0,1,2,0Z" fill="#171c1e"/><path d="M2,.5H303A1.538,1.538,0,0,1,304.5,2V31.5H.5V2A1.538,1.538,0,0,1,2,.5Z" fill="none" stroke="#3d4248" stroke-width="1"/><rect width="305" height="2" transform="translate(0 31)" fill="#019aeb"/><g transform="translate(8 6)"><path d="M0,0H20V20H0Z" fill="none"/><path d="M12.6,11.5H12l-.2-.2a5.559,5.559,0,1,0-.6.5l.2.2v.6l3.9,3.8,1.1-1.1ZM8,11.5A3.543,3.543,0,0,1,4.5,8,3.543,3.543,0,0,1,8,4.5,3.543,3.543,0,0,1,11.5,8h0A3.543,3.543,0,0,1,8,11.5Z" fill="#6a6e79"/></g><path d="M42,17.7a2.342,2.342,0,0,1-.8,1.8,3.041,3.041,0,0,1-2.2.6,4.744,4.744,0,0,1-2.3-.4v-1c.4.1.7.3,1.1.4a4.869,4.869,0,0,0,1.2.1,2.076,2.076,0,0,0,1.5-.4,1.408,1.408,0,0,0,.3-1.8,1.024,1.024,0,0,0-.6-.5c-.3-.1-.7-.3-1.2-.5a3.8,3.8,0,0,1-1.7-1,2.456,2.456,0,0,1-.5-1.5,1.865,1.865,0,0,1,.7-1.6,3.173,3.173,0,0,1,2-.6,5.555,5.555,0,0,1,2.3.5l-.3.9a5.222,5.222,0,0,0-2.1-.4,2.133,2.133,0,0,0-1.2.3.975.975,0,0,0-.4.9,1.445,1.445,0,0,0,.2.7,1.024,1.024,0,0,0,.6.5c.3.1.7.3,1.2.5a6.487,6.487,0,0,1,1.9,1C42.1,16.5,42,17.1,42,17.7Z" fill="#b7b9c3"/><path d="M46.3,20.1a2.792,2.792,0,0,1-2.2-.9,3.649,3.649,0,0,1-.8-2.4,3.936,3.936,0,0,1,.8-2.5,2.78,2.78,0,0,1,4-.1,2.817,2.817,0,0,1,.7,2.1V17H44.4a2.2,2.2,0,0,0,.6,1.7,2.035,2.035,0,0,0,1.5.6,5.222,5.222,0,0,0,2.1-.4v.9a3.81,3.81,0,0,1-1,.3Zm-.2-5.8a1.656,1.656,0,0,0-1.2.5,1.978,1.978,0,0,0-.5,1.4h3.4a1.955,1.955,0,0,0-.4-1.4A1.9,1.9,0,0,0,46.1,14.3Z" fill="#b7b9c3"/><path d="M54.3,20l-.2-.9h0a1.891,1.891,0,0,1-1,.8,4.3,4.3,0,0,1-1.2.2,2.456,2.456,0,0,1-1.5-.5,1.624,1.624,0,0,1-.5-1.4c0-1.3,1-2,3.1-2h1.1v-.4a1.609,1.609,0,0,0-.3-1.1,1.528,1.528,0,0,0-1-.4,4.925,4.925,0,0,0-1.8.5l-.4-.8a4.179,4.179,0,0,1,1-.4,4.1,4.1,0,0,1,1.1-.1,2.648,2.648,0,0,1,1.7.5,1.969,1.969,0,0,1,.6,1.6V20Zm-2.2-.7A1.736,1.736,0,0,0,54,17.4v-.6H53a2.674,2.674,0,0,0-1.7.4,1.016,1.016,0,0,0-.5,1,.984.984,0,0,0,.3.8A1.493,1.493,0,0,0,52.1,19.3Z" fill="#b7b9c3"/><path d="M60,13.5a2.2,2.2,0,0,1,.8.1l-.1.9a1.952,1.952,0,0,0-.7-.1,1.612,1.612,0,0,0-1.3.6,2.637,2.637,0,0,0-.7,1.6V20H57V13.6h.8l.1,1.2h0a2.836,2.836,0,0,1,.9-1A1.8,1.8,0,0,1,60,13.5Z" fill="#b7b9c3"/><path d="M64.5,20.1a2.94,2.94,0,0,1-2.2-.9,3.188,3.188,0,0,1-.8-2.4,3.742,3.742,0,0,1,.8-2.5,3.345,3.345,0,0,1,3.1-.8c.3.1.6.1.7.2l-.3.8a1.445,1.445,0,0,0-.7-.2c-.3,0-.5-.1-.7-.1-1.3,0-2,.8-2,2.5a2.969,2.969,0,0,0,.5,1.8,1.678,1.678,0,0,0,1.4.6,4.529,4.529,0,0,0,1.6-.3v.9C65.7,20,65.1,20.1,64.5,20.1Z" fill="#b7b9c3"/><path d="M72,20V15.8a1.594,1.594,0,0,0-.4-1.2,1.366,1.366,0,0,0-1.1-.4,1.755,1.755,0,0,0-1.5.6,2.969,2.969,0,0,0-.5,1.8V20h-1V10.9h1v3.6h.1a1.779,1.779,0,0,1,.8-.7,4.22,4.22,0,0,1,1.2-.3,2.445,2.445,0,0,1,1.8.6,2.445,2.445,0,0,1,.6,1.8V20Z" fill="#b7b9c3"/><g transform="translate(277 8)" opacity="0"><rect width="16" height="16" fill="none"/><path d="M12,4.8,11.2,4,8,7.2,4.8,4,4,4.8,7.2,8,4,11.2l.8.8L8,8.8,11.2,12l.8-.8L8.8,8Z" fill="#6a6e79"/></g></g><g transform="translate(903 1430)"><path d="M0,0H24V24H0Z" fill="none"/><path d="M7.4,18.6,8.8,20,12,16.8,15.2,20l1.4-1.4L12,14ZM16.6,5.4,15.2,4,12,7.2,8.8,4,7.4,5.4,12,10Z" fill="#fff"/></g><g transform="translate(825.026 1430)"><path d="M0,0H24V24H0Z" fill="none"/><path d="M19,13H13v6H11V13H5V11h6V5h2v6h6Z" fill="#fff"/></g><g transform="translate(707.789 1430)"><path d="M0,0H24V24H0Z" fill="none"/><path d="M6,19a2.006,2.006,0,0,0,2,2h8a2.006,2.006,0,0,0,2-2V7H6ZM19,4H15.5l-1-1h-5l-1,1H5V6H19Z" fill="#fff"/></g><g transform="translate(785.947 1430)"><path d="M0,0H24V24H0Z" fill="none"/><path d="M3,17.2V21H6.8l11-11.1L14.1,6.2ZM20.7,7a.967.967,0,0,0,0-1.4L18.4,3.3a.967.967,0,0,0-1.4,0L15.2,5.1,19,8.9C18.9,8.9,20.7,7,20.7,7Z" fill="#fff"/></g><g transform="translate(746.868 1430)"><path d="M0,0H24V24H0Z" fill="none"/><path d="M16,1H4A2.006,2.006,0,0,0,2,3V17H4V3H16Zm3,4H8A2.006,2.006,0,0,0,6,7V21a2.006,2.006,0,0,0,2,2H19a2.006,2.006,0,0,0,2-2V7A2.006,2.006,0,0,0,19,5Zm0,16H8V7H19Z" fill="#fff"/></g></g><g transform="translate(-193 -5549)"><g transform="translate(0 -10.5)"><path d="M288,5753.5a2.56,2.56,0,0,0-1.9.8,2.817,2.817,0,0,0-.7,2.1,3.07,3.07,0,0,0,.7,2.2,2.407,2.407,0,0,0,1.9.8,5.555,5.555,0,0,0,1.7-.3v.7a4.841,4.841,0,0,1-1.8.3,2.718,2.718,0,0,1-2.4-1,4.36,4.36,0,0,1-.9-2.7,3.806,3.806,0,0,1,.4-1.9,3.742,3.742,0,0,1,1.2-1.3,3.426,3.426,0,0,1,1.8-.4,4.48,4.48,0,0,1,2,.4l-.4.7A2.932,2.932,0,0,0,288,5753.5Z" fill="#fff"/><path d="M295.8,5757.3a2.444,2.444,0,0,1-.7,2,2.14,2.14,0,0,1-1.8.7,2.771,2.771,0,0,1-1.3-.3,1.788,1.788,0,0,1-.9-1,3.653,3.653,0,0,1-.3-1.5,2.444,2.444,0,0,1,.7-2,2.14,2.14,0,0,1,1.8-.7,2.41,2.41,0,0,1,1.8.7A2.971,2.971,0,0,1,295.8,5757.3Zm-4.1,0a2.537,2.537,0,0,0,.4,1.6,1.346,1.346,0,0,0,1.2.5,1.657,1.657,0,0,0,1.2-.5,2.537,2.537,0,0,0,.4-1.6,2.075,2.075,0,0,0-.4-1.5,1.346,1.346,0,0,0-1.2-.5,1.657,1.657,0,0,0-1.2.5A2.076,2.076,0,0,0,291.7,5757.3Z" fill="#fff"/><path d="M298,5760h-.8v-7.6h.8Z" fill="#fff"/><path d="M300.6,5760h-.8v-7.6h.8Z" fill="#fff"/><path d="M305.6,5760l-.2-.8h0c-.3.3-.5.6-.8.7a2.956,2.956,0,0,1-1,.2,1.6,1.6,0,0,1-1.2-.4,1.656,1.656,0,0,1-.5-1.2c0-1.1.9-1.6,2.6-1.7h.9v-.3a1.06,1.06,0,0,0-1.2-1.2,3.072,3.072,0,0,0-1.5.4l-.2-.6a3.174,3.174,0,0,1,.9-.3c.3,0,.6-.1.9-.1a1.956,1.956,0,0,1,1.4.4,1.813,1.813,0,0,1,.5,1.4v3.7h-.6Zm-1.8-.6a1.414,1.414,0,0,0,1.6-1.6v-.5h-.8a2.651,2.651,0,0,0-1.4.3.985.985,0,0,0-.1,1.5A.778.778,0,0,0,303.8,5759.4Z" fill="#fff"/><path d="M310.4,5760.1a3.55,3.55,0,0,1-1-.2,1.344,1.344,0,0,1-.7-.6h-.1c0,.3.1.6.1.9v2.2h-.8v-7.8h.7l.1.7h0a1.877,1.877,0,0,1,.7-.6,2.507,2.507,0,0,1,1-.2,1.753,1.753,0,0,1,1.6.7,3.941,3.941,0,0,1,.6,2,2.814,2.814,0,0,1-.6,2A1.625,1.625,0,0,1,310.4,5760.1Zm-.1-4.9a1.657,1.657,0,0,0-1.2.5,1.954,1.954,0,0,0-.4,1.4v.2a2.206,2.206,0,0,0,.4,1.6,1.657,1.657,0,0,0,1.2.5,1.255,1.255,0,0,0,1.1-.6,2.41,2.41,0,0,0,.4-1.5,2.075,2.075,0,0,0-.4-1.5A1.381,1.381,0,0,0,310.3,5755.2Z" fill="#fff"/><path d="M317.5,5758.5a1.426,1.426,0,0,1-.6,1.2,2.535,2.535,0,0,1-1.6.4,3.989,3.989,0,0,1-1.7-.3v-.8c.3.1.5.2.8.3a2.779,2.779,0,0,0,.9.1,2.956,2.956,0,0,0,1-.2.6.6,0,0,0,.3-.6.55.55,0,0,0-.3-.5,6.143,6.143,0,0,0-1.1-.5,3.832,3.832,0,0,1-1.1-.5,1.2,1.2,0,0,1-.5-.5,1.422,1.422,0,0,1-.2-.6,1.231,1.231,0,0,1,.5-1,2.236,2.236,0,0,1,1.5-.4,3.535,3.535,0,0,1,1.7.4l-.3.7a4.008,4.008,0,0,0-1.5-.3,2,2,0,0,0-.9.2.55.55,0,0,0-.3.5.6.6,0,0,0,.1.4,1.372,1.372,0,0,0,.4.3c.2.1.5.2.9.4a3.746,3.746,0,0,1,1.3.7C317,5758.1,317.5,5758.2,317.5,5758.5Z" fill="#fff"/><path d="M321.1,5760.1a2.49,2.49,0,0,1-1.9-.7,2.724,2.724,0,0,1-.7-2,3.481,3.481,0,0,1,.6-2.1,2.193,2.193,0,0,1,3.3-.1,2.352,2.352,0,0,1,.6,1.7v.5h-3.7a1.978,1.978,0,0,0,.5,1.4,1.728,1.728,0,0,0,1.3.5,3.535,3.535,0,0,0,1.7-.4v.7a6.983,6.983,0,0,0-.8.3A1.488,1.488,0,0,1,321.1,5760.1Zm-.3-4.9a1.16,1.16,0,0,0-1,.4,3.337,3.337,0,0,0-.5,1.2h2.8a2.134,2.134,0,0,0-.3-1.2A1.332,1.332,0,0,0,320.8,5755.2Z" fill="#fff"/><path d="M327.1,5752.9l-2.7,7.1h-.8l2.7-7.1Z" fill="#fff"/><path d="M332.2,5760h-4v-7.1h4v.7h-3.1v2.3h3v.7h-3v2.6h3.1Z" fill="#fff"/><path d="M335,5757.3l-1.9-2.6h.9l1.4,2.1,1.4-2.1h.9l-1.9,2.6,2,2.7h-.9l-1.5-2.2-1.5,2.2H333Z" fill="#fff"/><path d="M341.4,5760.1a3.55,3.55,0,0,1-1-.2,1.344,1.344,0,0,1-.7-.6h-.1c0,.3.1.6.1.9v2.2h-.8v-7.8h.7l.1.7h0a1.877,1.877,0,0,1,.7-.6,2.507,2.507,0,0,1,1-.2,1.753,1.753,0,0,1,1.6.7,3.941,3.941,0,0,1,.6,2,2.814,2.814,0,0,1-.6,2A1.545,1.545,0,0,1,341.4,5760.1Zm-.1-4.9a1.657,1.657,0,0,0-1.2.5,1.954,1.954,0,0,0-.4,1.4v.2a2.206,2.206,0,0,0,.4,1.6,1.657,1.657,0,0,0,1.2.5,1.255,1.255,0,0,0,1.1-.6,2.41,2.41,0,0,0,.4-1.5,2.075,2.075,0,0,0-.4-1.5A1.254,1.254,0,0,0,341.3,5755.2Z" fill="#fff"/><path d="M348.3,5760l-.2-.8h0c-.3.3-.5.6-.8.7a2.956,2.956,0,0,1-1,.2,1.6,1.6,0,0,1-1.2-.4,1.656,1.656,0,0,1-.5-1.2c0-1.1.9-1.6,2.6-1.7h.9v-.3a1.06,1.06,0,0,0-1.2-1.2,3.072,3.072,0,0,0-1.5.4l-.2-.6a3.174,3.174,0,0,1,.9-.3c.3,0,.6-.1.9-.1a1.956,1.956,0,0,1,1.4.4,1.813,1.813,0,0,1,.5,1.4v3.7h-.6Zm-1.8-.6a1.414,1.414,0,0,0,1.6-1.6v-.5h-.8a2.651,2.651,0,0,0-1.4.3,1.006,1.006,0,0,0,.6,1.8Z" fill="#fff"/><path d="M354.3,5760v-3.5a1.494,1.494,0,0,0-.3-1,1.221,1.221,0,0,0-.9-.3,1.364,1.364,0,0,0-1.2.5,2.7,2.7,0,0,0-.4,1.5v2.8h-.8v-5.4h.7l.1.7h0a1.346,1.346,0,0,1,.7-.6,2.956,2.956,0,0,1,1-.2,2.457,2.457,0,0,1,1.5.5,2.069,2.069,0,0,1,.5,1.5v3.5Z" fill="#fff"/><path d="M360.4,5759.3h0a2.136,2.136,0,0,1-1.7.8,1.865,1.865,0,0,1-1.6-.7,3.174,3.174,0,0,1-.6-2,3.481,3.481,0,0,1,.6-2.1,1.865,1.865,0,0,1,1.6-.7,2.136,2.136,0,0,1,1.7.8h.1v-3h.8v7.6h-.7Zm-1.6.1a1.364,1.364,0,0,0,1.2-.5,2.7,2.7,0,0,0,.4-1.5v-.2a2.206,2.206,0,0,0-.4-1.6,1.657,1.657,0,0,0-1.2-.5,1.255,1.255,0,0,0-1.1.6,2.537,2.537,0,0,0-.4,1.6,2.075,2.075,0,0,0,.4,1.5A1.525,1.525,0,0,0,358.8,5759.4Z" fill="#fff"/><path d="M368.8,5760l-.2-.8h0c-.3.3-.5.6-.8.7a2.956,2.956,0,0,1-1,.2,1.6,1.6,0,0,1-1.2-.4,1.656,1.656,0,0,1-.5-1.2c0-1.1.9-1.6,2.6-1.7h.9v-.3a1.06,1.06,0,0,0-1.2-1.2,3.072,3.072,0,0,0-1.5.4l-.2-.6a3.174,3.174,0,0,1,.9-.3c.3,0,.6-.1.9-.1a1.956,1.956,0,0,1,1.4.4,1.813,1.813,0,0,1,.5,1.4v3.7h-.6Zm-1.8-.6a1.414,1.414,0,0,0,1.6-1.6v-.5h-.8a2.651,2.651,0,0,0-1.4.3,1.006,1.006,0,0,0,.6,1.8Z" fill="#fff"/><path d="M371.9,5760h-.8v-7.6h.8Z" fill="#fff"/><path d="M374.4,5760h-.8v-7.6h.8Z" fill="#fff"/><path d="M380.5,5759.4h.4a.367.367,0,0,0,.3-.1v.6c-.1,0-.2.1-.4.1h-.5a1.427,1.427,0,0,1-1.6-1.6v-3.2h-.8v-.4l.8-.3.3-1.1h.5v1.2h1.6v.6h-1.6v3.1a1.167,1.167,0,0,0,.2.7A1.505,1.505,0,0,0,380.5,5759.4Z" fill="#fff"/><path d="M386.9,5757.3a2.444,2.444,0,0,1-.7,2,2.14,2.14,0,0,1-1.8.7,2.771,2.771,0,0,1-1.3-.3,1.788,1.788,0,0,1-.9-1,3.653,3.653,0,0,1-.3-1.5,2.444,2.444,0,0,1,.7-2,2.14,2.14,0,0,1,1.8-.7,2.41,2.41,0,0,1,1.8.7A2.971,2.971,0,0,1,386.9,5757.3Zm-4,0a2.537,2.537,0,0,0,.4,1.6,1.346,1.346,0,0,0,1.2.5,1.657,1.657,0,0,0,1.2-.5,2.537,2.537,0,0,0,.4-1.6,2.075,2.075,0,0,0-.4-1.5,1.346,1.346,0,0,0-1.2-.5,1.657,1.657,0,0,0-1.2.5A2.076,2.076,0,0,0,382.9,5757.3Z" fill="#fff"/><path d="M392.8,5754.6v.5l-1,.1a.758.758,0,0,1,.2.4,1.269,1.269,0,0,1,.1.6,2.105,2.105,0,0,1-.5,1.3,1.721,1.721,0,0,1-1.5.5h-.4c-.3.2-.5.4-.5.7,0,.1.1.3.2.3.1.1.3.1.6.1h.9a1.7,1.7,0,0,1,1.3.4,1.433,1.433,0,0,1,.5,1.1,1.621,1.621,0,0,1-.7,1.4,4.066,4.066,0,0,1-2.1.5,2.538,2.538,0,0,1-1.6-.4,1.255,1.255,0,0,1-.6-1.1,1.135,1.135,0,0,1,.3-.8,1.937,1.937,0,0,1,.9-.5c-.1-.1-.3-.2-.3-.3a4.3,4.3,0,0,1-.1-.5.764.764,0,0,1,.2-.5,2.181,2.181,0,0,1,.5-.4,1.344,1.344,0,0,1-.7-.6,1.614,1.614,0,0,1-.3-.9,2.167,2.167,0,0,1,.5-1.4,2.251,2.251,0,0,1,1.5-.5,2.2,2.2,0,0,1,.8.1h1.8Zm-4.3,6.3a.756.756,0,0,0,.4.7,1.643,1.643,0,0,0,1,.2,2.813,2.813,0,0,0,1.5-.3,1.02,1.02,0,0,0,.5-.8.605.605,0,0,0-.3-.6,2.15,2.15,0,0,0-1-.2h-1a1.223,1.223,0,0,0-.9.3A.843.843,0,0,0,388.5,5760.9Zm.4-4.5c0,.4.1.7.3.8a1.9,1.9,0,0,0,.9.3,1.2,1.2,0,0,0,0-2.4,1.223,1.223,0,0,0-.9.3A1.5,1.5,0,0,0,388.9,5756.4Z" fill="#fff"/><path d="M398.2,5754.6v.5l-1,.1a.758.758,0,0,1,.2.4,1.269,1.269,0,0,1,.1.6,2.105,2.105,0,0,1-.5,1.3,1.721,1.721,0,0,1-1.5.5h-.4c-.3.2-.5.4-.5.7,0,.1.1.3.2.3.1.1.3.1.6.1h.9a1.7,1.7,0,0,1,1.3.4,1.433,1.433,0,0,1,.5,1.1,1.621,1.621,0,0,1-.7,1.4,4.066,4.066,0,0,1-2.1.5,2.538,2.538,0,0,1-1.6-.4,1.255,1.255,0,0,1-.6-1.1,1.135,1.135,0,0,1,.3-.8,1.937,1.937,0,0,1,.9-.5c-.1-.1-.3-.2-.3-.3a4.3,4.3,0,0,1-.1-.5.764.764,0,0,1,.2-.5,2.181,2.181,0,0,1,.5-.4,1.344,1.344,0,0,1-.7-.6,1.614,1.614,0,0,1-.3-.9,2.167,2.167,0,0,1,.5-1.4,2.251,2.251,0,0,1,1.5-.5,2.2,2.2,0,0,1,.8.1h1.8Zm-4.2,6.3a.756.756,0,0,0,.4.7,1.643,1.643,0,0,0,1,.2,2.813,2.813,0,0,0,1.5-.3,1.02,1.02,0,0,0,.5-.8.605.605,0,0,0-.3-.6,2.15,2.15,0,0,0-1-.2h-1a1.223,1.223,0,0,0-.9.3A.843.843,0,0,0,394,5760.9Zm.4-4.5c0,.4.1.7.3.8a1.9,1.9,0,0,0,.9.3,1.2,1.2,0,0,0,0-2.4,1.223,1.223,0,0,0-.9.3A1.5,1.5,0,0,0,394.4,5756.4Z" fill="#fff"/><path d="M400.2,5760h-.8v-7.6h.8Z" fill="#fff"/><path d="M404.1,5760.1a2.49,2.49,0,0,1-1.9-.7,2.724,2.724,0,0,1-.7-2,3.481,3.481,0,0,1,.6-2.1,2.193,2.193,0,0,1,3.3-.1,2.352,2.352,0,0,1,.6,1.7v.5h-3.7a1.978,1.978,0,0,0,.5,1.4,1.728,1.728,0,0,0,1.3.5,3.535,3.535,0,0,0,1.7-.4v.7a6.983,6.983,0,0,0-.8.3C404.8,5760.1,404.5,5760.1,404.1,5760.1Zm-.2-4.9a1.16,1.16,0,0,0-1,.4,3.337,3.337,0,0,0-.5,1.2h2.8a2.134,2.134,0,0,0-.3-1.2A1.332,1.332,0,0,0,403.9,5755.2Z" fill="#fff"/><path d="M290.7,5795.4a3.338,3.338,0,0,1-1,2.7,3.926,3.926,0,0,1-2.8.9h-2v-7.1h2.2a3.572,3.572,0,0,1,2.6.9A3.622,3.622,0,0,1,290.7,5795.4Zm-.9,0a2.475,2.475,0,0,0-2.8-2.8h-1.2v5.7h1a2.918,2.918,0,0,0,2.2-.7A2.73,2.73,0,0,0,289.8,5795.4Z" fill="#fff"/><path d="M292.9,5793.6v3.5a1.494,1.494,0,0,0,.3,1,1.221,1.221,0,0,0,.9.3,1.364,1.364,0,0,0,1.2-.5,2.7,2.7,0,0,0,.4-1.5v-2.8h.8v5.4h-.7l-.1-.7h0a1.346,1.346,0,0,1-.7.6,2.956,2.956,0,0,1-1,.2,2.251,2.251,0,0,1-1.5-.5,1.72,1.72,0,0,1-.5-1.5v-3.5Z" fill="#fff"/><path d="M300.8,5799.1a3.55,3.55,0,0,1-1-.2,1.344,1.344,0,0,1-.7-.6H299c0,.3.1.6.1.9v2.2h-.8v-7.8h.7l.1.7h0a1.877,1.877,0,0,1,.7-.6,2.507,2.507,0,0,1,1-.2,1.753,1.753,0,0,1,1.6.7,3.941,3.941,0,0,1,.6,2,2.814,2.814,0,0,1-.6,2A1.625,1.625,0,0,1,300.8,5799.1Zm-.1-4.9a1.657,1.657,0,0,0-1.2.5,1.954,1.954,0,0,0-.4,1.4v.2a2.206,2.206,0,0,0,.4,1.6,1.657,1.657,0,0,0,1.2.5,1.255,1.255,0,0,0,1.1-.6,2.41,2.41,0,0,0,.4-1.5,2.075,2.075,0,0,0-.4-1.5A1.254,1.254,0,0,0,300.7,5794.2Z" fill="#fff"/><path d="M305.3,5799h-.8v-7.6h.8Z" fill="#fff"/><path d="M306.9,5792.2c0-.2,0-.3.1-.4a.5.5,0,0,1,.6,0c.1.1.1.2.1.4s0,.3-.1.4a.367.367,0,0,1-.3.1c-.1,0-.3,0-.3-.1S306.9,5792.4,306.9,5792.2Zm.9,6.8H307v-5.4h.8Z" fill="#fff"/><path d="M311.7,5799.1a2.14,2.14,0,0,1-1.8-.7,3.174,3.174,0,0,1-.6-2,3.282,3.282,0,0,1,.6-2.1,2.14,2.14,0,0,1,1.8-.7,2.2,2.2,0,0,1,.8.1c.3.1.5.1.6.2l-.2.7c-.2-.1-.4-.1-.6-.2-.2,0-.4-.1-.6-.1-1.1,0-1.6.7-1.6,2.1a2.075,2.075,0,0,0,.4,1.5,1.657,1.657,0,0,0,1.2.5,3.931,3.931,0,0,0,1.4-.3v.7A3.2,3.2,0,0,1,311.7,5799.1Z" fill="#fff"/><path d="M317.6,5799l-.2-.8h0c-.3.3-.5.6-.8.7a2.956,2.956,0,0,1-1,.2,1.6,1.6,0,0,1-1.2-.4,1.656,1.656,0,0,1-.5-1.2c0-1.1.9-1.6,2.6-1.7h.9v-.3a1.06,1.06,0,0,0-1.2-1.2,3.072,3.072,0,0,0-1.5.4l-.2-.6a3.174,3.174,0,0,1,.9-.3c.3,0,.6-.1.9-.1a1.956,1.956,0,0,1,1.4.4,1.813,1.813,0,0,1,.5,1.4v3.7h-.6Zm-1.8-.6a1.414,1.414,0,0,0,1.6-1.6v-.5h-.8a2.651,2.651,0,0,0-1.4.3.985.985,0,0,0-.1,1.5A.778.778,0,0,0,315.8,5798.4Z" fill="#fff"/><path d="M321.6,5798.4h.4a.367.367,0,0,0,.3-.1v.6c-.1,0-.2.1-.4.1h-.5a1.427,1.427,0,0,1-1.6-1.6v-3.2H319v-.4l.8-.3.3-1.1h.5v1.2h1.6v.6h-1.6v3.1a1.167,1.167,0,0,0,.2.7A1.505,1.505,0,0,0,321.6,5798.4Z" fill="#fff"/><path d="M325.7,5799.1a2.49,2.49,0,0,1-1.9-.7,2.724,2.724,0,0,1-.7-2,3.481,3.481,0,0,1,.6-2.1,2.193,2.193,0,0,1,3.3-.1,2.352,2.352,0,0,1,.6,1.7v.5h-3.7a1.978,1.978,0,0,0,.5,1.4,1.728,1.728,0,0,0,1.3.5,3.535,3.535,0,0,0,1.7-.4v.7a6.983,6.983,0,0,0-.8.3A1.488,1.488,0,0,1,325.7,5799.1Zm-.3-4.9a1.16,1.16,0,0,0-1,.4,3.337,3.337,0,0,0-.5,1.2h2.8a2.134,2.134,0,0,0-.3-1.2A1.332,1.332,0,0,0,325.4,5794.2Z" fill="#fff"/><path d="M290.7,5834.4a3.338,3.338,0,0,1-1,2.7,3.926,3.926,0,0,1-2.8.9h-2v-7.1h2.2a3.572,3.572,0,0,1,2.6.9A3.622,3.622,0,0,1,290.7,5834.4Zm-.9,0a2.475,2.475,0,0,0-2.8-2.8h-1.2v5.7h1a2.918,2.918,0,0,0,2.2-.7A2.73,2.73,0,0,0,289.8,5834.4Z" fill="#fff"/><path d="M294.6,5832.6c.2,0,.5,0,.6.1l-.1.8c-.2,0-.4-.1-.6-.1a1.607,1.607,0,0,0-1.1.5,1.9,1.9,0,0,0-.5,1.3v2.9h-.8v-5.4h.7l.1,1h0a2.694,2.694,0,0,1,.7-.8A1.932,1.932,0,0,1,294.6,5832.6Z" fill="#fff"/><path d="M299.5,5838l-.2-.8h0c-.3.3-.5.6-.8.7a2.956,2.956,0,0,1-1,.2,1.6,1.6,0,0,1-1.2-.4,1.656,1.656,0,0,1-.5-1.2c0-1.1.9-1.6,2.6-1.7h.9v-.3a1.06,1.06,0,0,0-1.2-1.2,3.072,3.072,0,0,0-1.5.4l-.2-.6a3.174,3.174,0,0,1,.9-.3c.3,0,.6-.1.9-.1a1.956,1.956,0,0,1,1.4.4,1.813,1.813,0,0,1,.5,1.4v3.7h-.6Zm-1.8-.6a1.414,1.414,0,0,0,1.6-1.6v-.5h-.8a2.651,2.651,0,0,0-1.4.3,1.006,1.006,0,0,0,.6,1.8Z" fill="#fff"/><path d="M306.2,5832.6v.5l-1,.1a.758.758,0,0,1,.2.4,1.269,1.269,0,0,1,.1.6,2.105,2.105,0,0,1-.5,1.3,1.721,1.721,0,0,1-1.5.5h-.4c-.3.2-.5.4-.5.7,0,.1.1.3.2.3.1.1.3.1.6.1h.9a1.7,1.7,0,0,1,1.3.4,1.433,1.433,0,0,1,.5,1.1,1.621,1.621,0,0,1-.7,1.4,4.066,4.066,0,0,1-2.1.5,2.538,2.538,0,0,1-1.6-.4,1.255,1.255,0,0,1-.6-1.1,1.135,1.135,0,0,1,.3-.8,1.937,1.937,0,0,1,.9-.5c-.1-.1-.3-.2-.3-.3a4.3,4.3,0,0,1-.1-.5.764.764,0,0,1,.2-.5,2.181,2.181,0,0,1,.5-.4,1.344,1.344,0,0,1-.7-.6,1.614,1.614,0,0,1-.3-.9,2.167,2.167,0,0,1,.5-1.4,2.251,2.251,0,0,1,1.5-.5,2.2,2.2,0,0,1,.8.1h1.8Zm-4.3,6.3a.756.756,0,0,0,.4.7,1.643,1.643,0,0,0,1,.2,2.813,2.813,0,0,0,1.5-.3,1.02,1.02,0,0,0,.5-.8.605.605,0,0,0-.3-.6,2.15,2.15,0,0,0-1-.2h-1a1.223,1.223,0,0,0-.9.3A.843.843,0,0,0,301.9,5838.9Zm.5-4.5c0,.4.1.7.3.8a1.9,1.9,0,0,0,.9.3,1.2,1.2,0,0,0,0-2.4,1.223,1.223,0,0,0-.9.3A1.5,1.5,0,0,0,302.4,5834.4Z" fill="#fff"/><path d="M309.6,5836.1a2.017,2.017,0,0,1,.3-1.1.9.9,0,1,0,.6-1.7c-.1-.2-.2-.3-.2-.5a4.326,4.326,0,0,0-.1-.5,1.291,1.291,0,0,1,.5-1.1,2.5,2.5,0,0,1,1.3-.4,1.547,1.547,0,0,1,1.7,1.5,1.93,1.93,0,0,1-.3,1,3.528,3.528,0,0,1-1.1.9l2,1.9a1.612,1.612,0,0,0,.4-.7l.3-.9h.8a5.143,5.143,0,0,1-1,2.1l1.5,1.4h-1.1l-.9-.9a3.751,3.751,0,0,1-1.2.7,5.062,5.062,0,0,1-1.3.2,2.546,2.546,0,0,1-1.6-.5A1.557,1.557,0,0,1,309.6,5836.1Zm2.2,1.3a2.973,2.973,0,0,0,2-.8l-2.1-2.1c-.4.2-.6.4-.8.5a.85.85,0,0,0-.3.5c0,.2-.1.4-.1.6a1.372,1.372,0,0,0,1.3,1.3Zm-.7-5.1a1.422,1.422,0,0,0,.2.6,3.193,3.193,0,0,0,.6.7,3.514,3.514,0,0,0,.9-.7.844.844,0,0,0,.2-.7.605.605,0,0,0-.3-.6.843.843,0,0,0-.7-.2,1.444,1.444,0,0,0-.7.2C311.1,5831.7,311.1,5832,311.1,5832.3Z" fill="#fff"/><path d="M325.7,5834.4a3.338,3.338,0,0,1-1,2.7,3.926,3.926,0,0,1-2.8.9h-2v-7.1h2.2a3.572,3.572,0,0,1,2.6.9A3.622,3.622,0,0,1,325.7,5834.4Zm-.9,0a2.475,2.475,0,0,0-2.8-2.8h-1.2v5.7h1a2.918,2.918,0,0,0,2.2-.7A3.111,3.111,0,0,0,324.8,5834.4Z" fill="#fff"/><path d="M329.6,5832.6c.2,0,.5,0,.6.1l-.1.8c-.2,0-.4-.1-.6-.1a1.607,1.607,0,0,0-1.1.5,1.9,1.9,0,0,0-.5,1.3v2.9h-.8v-5.4h.7l.1,1h0a2.694,2.694,0,0,1,.7-.8A1.691,1.691,0,0,1,329.6,5832.6Z" fill="#fff"/><path d="M335.8,5835.3a2.444,2.444,0,0,1-.7,2,2.14,2.14,0,0,1-1.8.7,2.771,2.771,0,0,1-1.3-.3,1.788,1.788,0,0,1-.9-1,3.653,3.653,0,0,1-.3-1.5,2.444,2.444,0,0,1,.7-2,2.14,2.14,0,0,1,1.8-.7,2.41,2.41,0,0,1,1.8.7A2.971,2.971,0,0,1,335.8,5835.3Zm-4,0a2.537,2.537,0,0,0,.4,1.6,1.346,1.346,0,0,0,1.2.5,1.657,1.657,0,0,0,1.2-.5,2.537,2.537,0,0,0,.4-1.6,2.075,2.075,0,0,0-.4-1.5,1.346,1.346,0,0,0-1.2-.5,1.657,1.657,0,0,0-1.2.5A2.076,2.076,0,0,0,331.8,5835.3Z" fill="#fff"/><path d="M339.8,5838.1a3.55,3.55,0,0,1-1-.2,1.344,1.344,0,0,1-.7-.6H338c0,.3.1.6.1.9v2.2h-.8v-7.8h.7l.1.7h0a1.877,1.877,0,0,1,.7-.6,2.507,2.507,0,0,1,1-.2,1.753,1.753,0,0,1,1.6.7,3.941,3.941,0,0,1,.6,2,2.814,2.814,0,0,1-.6,2A1.625,1.625,0,0,1,339.8,5838.1Zm-.1-4.9a1.657,1.657,0,0,0-1.2.5,1.954,1.954,0,0,0-.4,1.4v.2a2.206,2.206,0,0,0,.4,1.6,1.657,1.657,0,0,0,1.2.5,1.255,1.255,0,0,0,1.1-.6,2.41,2.41,0,0,0,.4-1.5,2.075,2.075,0,0,0-.4-1.5A1.381,1.381,0,0,0,339.7,5833.2Z" fill="#fff"/><path d="M290.7,5873.4a3.338,3.338,0,0,1-1,2.7,3.926,3.926,0,0,1-2.8.9h-2v-7.1h2.2a3.572,3.572,0,0,1,2.6.9A3.622,3.622,0,0,1,290.7,5873.4Zm-.9,0a2.475,2.475,0,0,0-2.8-2.8h-1.2v5.7h1a2.918,2.918,0,0,0,2.2-.7A2.73,2.73,0,0,0,289.8,5873.4Z" fill="#fff"/><path d="M294.4,5877.1a2.49,2.49,0,0,1-1.9-.7,2.724,2.724,0,0,1-.7-2,3.481,3.481,0,0,1,.6-2.1,2.193,2.193,0,0,1,3.3-.1,2.352,2.352,0,0,1,.6,1.7v.5h-3.7a1.978,1.978,0,0,0,.5,1.4,1.728,1.728,0,0,0,1.3.5,3.535,3.535,0,0,0,1.7-.4v.7a6.983,6.983,0,0,0-.8.3C295.1,5877.1,294.8,5877.1,294.4,5877.1Zm-.2-4.9a1.16,1.16,0,0,0-1,.4,3.337,3.337,0,0,0-.5,1.2h2.8a2.134,2.134,0,0,0-.3-1.2A1.775,1.775,0,0,0,294.2,5872.2Z" fill="#fff"/><path d="M298.6,5877h-.8v-7.6h.8Z" fill="#fff"/><path d="M302.6,5877.1a2.49,2.49,0,0,1-1.9-.7,2.724,2.724,0,0,1-.7-2,3.481,3.481,0,0,1,.6-2.1,2.193,2.193,0,0,1,3.3-.1,2.352,2.352,0,0,1,.6,1.7v.5h-3.7a1.978,1.978,0,0,0,.5,1.4,1.728,1.728,0,0,0,1.3.5,3.535,3.535,0,0,0,1.7-.4v.7a6.983,6.983,0,0,0-.8.3A1.488,1.488,0,0,1,302.6,5877.1Zm-.2-4.9a1.16,1.16,0,0,0-1,.4,3.337,3.337,0,0,0-.5,1.2h2.8a2.134,2.134,0,0,0-.3-1.2A1.775,1.775,0,0,0,302.4,5872.2Z" fill="#fff"/><path d="M307.7,5876.4h.4a.367.367,0,0,0,.3-.1v.6c-.1,0-.2.1-.4.1h-.5a1.427,1.427,0,0,1-1.6-1.6v-3.2h-.8v-.4l.8-.3.3-1.1h.5v1.2h1.6v.6h-1.6v3.1a1.167,1.167,0,0,0,.2.7A1.505,1.505,0,0,0,307.7,5876.4Z" fill="#fff"/><path d="M311.7,5877.1a2.49,2.49,0,0,1-1.9-.7,2.724,2.724,0,0,1-.7-2,3.481,3.481,0,0,1,.6-2.1,2.193,2.193,0,0,1,3.3-.1,2.352,2.352,0,0,1,.6,1.7v.5H310a1.978,1.978,0,0,0,.5,1.4,1.728,1.728,0,0,0,1.3.5,3.535,3.535,0,0,0,1.7-.4v.7a6.983,6.983,0,0,0-.8.3A1.647,1.647,0,0,1,311.7,5877.1Zm-.2-4.9a1.16,1.16,0,0,0-1,.4,3.337,3.337,0,0,0-.5,1.2h2.8a2.134,2.134,0,0,0-.3-1.2A1.527,1.527,0,0,0,311.5,5872.2Z" fill="#fff"/><path d="M289,5914h-4v-7.1h4v.7h-3.1v2.3h3v.7h-3v2.6H289Z" fill="#fff"/><path d="M294.1,5913.3h0a2.136,2.136,0,0,1-1.7.8,1.865,1.865,0,0,1-1.6-.7,3.174,3.174,0,0,1-.6-2,3.481,3.481,0,0,1,.6-2.1,1.865,1.865,0,0,1,1.6-.7,2.136,2.136,0,0,1,1.7.8h.1v-3h.8v7.6h-.7Zm-1.6.1a1.364,1.364,0,0,0,1.2-.5,2.7,2.7,0,0,0,.4-1.5v-.2a2.206,2.206,0,0,0-.4-1.6,1.657,1.657,0,0,0-1.2-.5,1.255,1.255,0,0,0-1.1.6,2.537,2.537,0,0,0-.4,1.6,2.075,2.075,0,0,0,.4,1.5A1.525,1.525,0,0,0,292.5,5913.4Z" fill="#fff"/><path d="M296.5,5907.2c0-.2,0-.3.1-.4a.5.5,0,0,1,.6,0c.1.1.1.2.1.4s0,.3-.1.4a.367.367,0,0,1-.3.1c-.1,0-.3,0-.3-.1C296.5,5907.5,296.5,5907.4,296.5,5907.2Zm.9,6.8h-.8v-5.4h.8Z" fill="#fff"/><path d="M300.8,5913.4h.4a.367.367,0,0,0,.3-.1v.6c-.1,0-.2.1-.4.1h-.5a1.427,1.427,0,0,1-1.6-1.6v-3.2h-.8v-.4l.8-.3.3-1.1h.5v1.2h1.6v.6H300v3.1a1.167,1.167,0,0,0,.2.7C300.3,5913.1,300.6,5913.4,300.8,5913.4Z" fill="#fff"/><path d="M289.5,5949l-.9-2.3h-2.9l-.9,2.3H284l2.8-7.2h.7l2.8,7.2Zm-1.2-3-.8-2.2c-.1-.3-.2-.6-.3-1-.1.3-.2.7-.3,1l-.8,2.2Z" fill="#fff"/><path d="M294.8,5948.3h0a2.136,2.136,0,0,1-1.7.8,1.865,1.865,0,0,1-1.6-.7,3.174,3.174,0,0,1-.6-2,3.481,3.481,0,0,1,.6-2.1,1.865,1.865,0,0,1,1.6-.7,2.136,2.136,0,0,1,1.7.8h.1v-3h.8v7.6H295Zm-1.6.1a1.364,1.364,0,0,0,1.2-.5,2.7,2.7,0,0,0,.4-1.5v-.2a2.206,2.206,0,0,0-.4-1.6,1.657,1.657,0,0,0-1.2-.5,1.255,1.255,0,0,0-1.1.6,2.537,2.537,0,0,0-.4,1.6,2.075,2.075,0,0,0,.4,1.5A1.525,1.525,0,0,0,293.2,5948.4Z" fill="#fff"/><path d="M301,5948.3h0a2.136,2.136,0,0,1-1.7.8,1.865,1.865,0,0,1-1.6-.7,3.174,3.174,0,0,1-.6-2,3.481,3.481,0,0,1,.6-2.1,1.865,1.865,0,0,1,1.6-.7,2.136,2.136,0,0,1,1.7.8h.1v-3h.8v7.6h-.7Zm-1.6.1a1.364,1.364,0,0,0,1.2-.5,2.7,2.7,0,0,0,.4-1.5v-.2a2.206,2.206,0,0,0-.4-1.6,1.657,1.657,0,0,0-1.2-.5,1.255,1.255,0,0,0-1.1.6,2.537,2.537,0,0,0-.4,1.6,2.075,2.075,0,0,0,.4,1.5A1.525,1.525,0,0,0,299.4,5948.4Z" fill="#fff"/><path d="M307,5949h-.8v-7.1h4v.7H307v2.6h3v.7h-3Z" fill="#fff"/><path d="M315.9,5946.3a2.444,2.444,0,0,1-.7,2,2.14,2.14,0,0,1-1.8.7,2.771,2.771,0,0,1-1.3-.3,1.788,1.788,0,0,1-.9-1,3.653,3.653,0,0,1-.3-1.5,2.444,2.444,0,0,1,.7-2,2.14,2.14,0,0,1,1.8-.7,2.41,2.41,0,0,1,1.8.7A2.971,2.971,0,0,1,315.9,5946.3Zm-4.1,0a2.537,2.537,0,0,0,.4,1.6,1.346,1.346,0,0,0,1.2.5,1.657,1.657,0,0,0,1.2-.5,2.537,2.537,0,0,0,.4-1.6,2.075,2.075,0,0,0-.4-1.5,1.346,1.346,0,0,0-1.2-.5,1.657,1.657,0,0,0-1.2.5A2.076,2.076,0,0,0,311.8,5946.3Z" fill="#fff"/><path d="M318.1,5949h-.8v-7.6h.8Z" fill="#fff"/><path d="M323.5,5948.3h0a2.136,2.136,0,0,1-1.7.8,1.865,1.865,0,0,1-1.6-.7,3.174,3.174,0,0,1-.6-2,3.481,3.481,0,0,1,.6-2.1,1.865,1.865,0,0,1,1.6-.7,2.136,2.136,0,0,1,1.7.8h.1v-3h.8v7.6h-.7Zm-1.6.1a1.364,1.364,0,0,0,1.2-.5,2.7,2.7,0,0,0,.4-1.5v-.2a2.206,2.206,0,0,0-.4-1.6,1.657,1.657,0,0,0-1.2-.5,1.255,1.255,0,0,0-1.1.6,2.537,2.537,0,0,0-.4,1.6,2.075,2.075,0,0,0,.4,1.5A1.525,1.525,0,0,0,321.9,5948.4Z" fill="#fff"/><path d="M328.2,5949.1a2.49,2.49,0,0,1-1.9-.7,2.724,2.724,0,0,1-.7-2,3.481,3.481,0,0,1,.6-2.1,2.193,2.193,0,0,1,3.3-.1,2.352,2.352,0,0,1,.6,1.7v.5h-3.7a1.978,1.978,0,0,0,.5,1.4,1.728,1.728,0,0,0,1.3.5,3.535,3.535,0,0,0,1.7-.4v.7a6.983,6.983,0,0,0-.8.3C328.9,5949.1,328.6,5949.1,328.2,5949.1Zm-.2-4.9a1.16,1.16,0,0,0-1,.4,3.337,3.337,0,0,0-.5,1.2h2.8a2.134,2.134,0,0,0-.3-1.2A1.527,1.527,0,0,0,328,5944.2Z" fill="#fff"/><path d="M334,5943.6c.2,0,.5,0,.6.1l-.1.8c-.2,0-.4-.1-.6-.1a1.607,1.607,0,0,0-1.1.5,1.9,1.9,0,0,0-.5,1.3v2.9h-.8v-5.4h.7l.1,1h0a2.694,2.694,0,0,1,.7-.8A1.932,1.932,0,0,1,334,5943.6Z" fill="#fff"/><g transform="translate(230 5742)"><path d="M0,0H24V24H0Z" fill="#fff" opacity="0"/><path d="M7.4,18.6,8.8,20,12,16.8,15.2,20l1.4-1.4L12,14ZM16.6,5.4,15.2,4,12,7.2,8.8,4,7.4,5.4,12,10Z" fill="#fff"/></g><g transform="translate(240 5820)"><path d="M0,0H24V24H0Z" fill="#fff" opacity="0"/><path d="M11,18a2,2,0,1,1-2-2A2.006,2.006,0,0,1,11,18ZM9,10a2,2,0,1,0,2,2A2.006,2.006,0,0,0,9,10ZM9,4a2,2,0,1,0,2,2A2.006,2.006,0,0,0,9,4Zm6,4a2,2,0,1,0-2-2A2.006,2.006,0,0,0,15,8Zm0,2a2,2,0,1,0,2,2A2.006,2.006,0,0,0,15,10Zm0,6a2,2,0,1,0,2,2A2.006,2.006,0,0,0,15,16Z" fill="#fff"/></g><g transform="translate(240 5781)"><path d="M0,0H24V24H0Z" fill="#fff" opacity="0"/><path d="M16,1H4A2.006,2.006,0,0,0,2,3V17H4V3H16Zm3,4H8A2.006,2.006,0,0,0,6,7V21a2.006,2.006,0,0,0,2,2H19a2.006,2.006,0,0,0,2-2V7A2.006,2.006,0,0,0,19,5Zm0,16H8V7H19Z" fill="#fff"/></g><g transform="translate(252 5742)"><path d="M0,0H24V24H0Z" fill="#fff" opacity="0"/><path d="M12,5.8,15.2,9l1.4-1.4L12,3,7.4,7.6,8.8,9Zm0,12.4L8.8,15,7.4,16.4,12,21l4.6-4.6L15.2,15Z" fill="#fff"/></g><g transform="translate(240 5859)"><path d="M0,0H24V24H0Z" fill="#fff" opacity="0"/><path d="M6,19a2.006,2.006,0,0,0,2,2h8a2.006,2.006,0,0,0,2-2V7H6ZM19,4H15.5l-1-1h-5l-1,1H5V6H19Z" fill="#fff"/></g><g transform="translate(240 5896)"><path d="M0,0H24V24H0Z" fill="#fff" opacity="0"/><path d="M3,17.2V21H6.8l11-11.1L14.1,6.2ZM20.7,7a.967.967,0,0,0,0-1.4L18.4,3.3a.967.967,0,0,0-1.4,0L15.2,5.1,19,8.9C18.9,8.9,20.7,7,20.7,7Z" fill="#fff"/></g><g transform="translate(240 5933)"><path d="M0,0H24V24H0Z" fill="#fff" opacity="0"/><path d="M19,13H13v6H11V13H5V11h6V5h2v6h6Z" fill="#fff"/></g><line x2="321" transform="translate(230.5 5734.5)" fill="none" stroke="#464b52" stroke-width="1"/><line x2="321" transform="translate(230.5 5773.5)" fill="none" stroke="#464b52" stroke-width="1"/><line x2="321" transform="translate(230.5 5812.5)" fill="none" stroke="#464b52" stroke-width="1"/><line x2="321" transform="translate(230.5 5851.5)" fill="none" stroke="#464b52" stroke-width="1"/><line x2="321" transform="translate(230.5 5890.5)" fill="none" stroke="#464b52" stroke-width="1"/><line x2="321" transform="translate(230.5 5927.5)" fill="none" stroke="#464b52" stroke-width="1"/><line x2="321" transform="translate(230.5 5962.5)" fill="none" stroke="#464b52" stroke-width="1"/></g></g><g transform="translate(369.286 28)"><rect width="328" height="80" transform="translate(40 41)" fill="#171c1e"/><g transform="translate(-451.286 -17)"><g transform="translate(483.143 58)"><path d="M4.1,0V80" fill="none" stroke="#f0d" stroke-width="1"/><path d="M0,0H8.1" fill="none" stroke="#f0d" stroke-width="1"/><path d="M0,80H8.1" fill="none" stroke="#f0d" stroke-width="1"/></g><path d="M474.1,94.8a2.544,2.544,0,0,1,1.6.5,1.426,1.426,0,0,1,.6,1.2,1.854,1.854,0,0,1-1.3,1.7,3.092,3.092,0,0,1,1.2.9,2.112,2.112,0,0,1,.4,1,1.678,1.678,0,0,1-.6,1.4,3.49,3.49,0,0,1-3.6,0,1.678,1.678,0,0,1-.6-1.4,2.016,2.016,0,0,1,.3-1.1,2.421,2.421,0,0,1,1.1-.8,3.631,3.631,0,0,1-.9-.8,1.69,1.69,0,0,1-.3-1,1.426,1.426,0,0,1,.6-1.2A2.41,2.41,0,0,1,474.1,94.8Zm-1.3,5.3a.91.91,0,0,0,.4.8,1.493,1.493,0,0,0,1,.3,1.689,1.689,0,0,0,1-.3,1.135,1.135,0,0,0,.3-.8.908.908,0,0,0-.3-.7,2.887,2.887,0,0,0-1-.6l-.1-.1a3.49,3.49,0,0,0-.9.6A1.2,1.2,0,0,0,472.8,100.1Zm1.3-4.4a1.884,1.884,0,0,0-.8.2,1.074,1.074,0,0,0-.2,1.2,1.381,1.381,0,0,0,.3.4c.1.1.4.2.7.4a3.774,3.774,0,0,0,.8-.5.844.844,0,0,0,.2-.7.908.908,0,0,0-.3-.7C474.7,95.7,474.5,95.7,474.1,95.7Z" fill="#f0d"/><path d="M482.3,98.4a5.3,5.3,0,0,1-.6,2.8,2.25,2.25,0,0,1-3.6,0,4.909,4.909,0,0,1-.6-2.7,5.063,5.063,0,0,1,.6-2.8,2.25,2.25,0,0,1,3.6,0A4.909,4.909,0,0,1,482.3,98.4Zm-3.7,0a5.149,5.149,0,0,0,.3,2.1,1.133,1.133,0,0,0,2,0,5.148,5.148,0,0,0,.3-2.1,5.484,5.484,0,0,0-.3-2.1,1.133,1.133,0,0,0-2,0A5.843,5.843,0,0,0,478.6,98.4Z" fill="#f0d"/></g><g transform="translate(-112.571 -17)"><g transform="translate(483.143 58)"><path d="M4.1,0V32" fill="none" stroke="#f0d" stroke-width="1"/><path d="M0,0H8.1" fill="none" stroke="#f0d" stroke-width="1"/><path d="M0,32H8.1" fill="none" stroke="#f0d" stroke-width="1"/></g><path d="M497.6,72.5a1.366,1.366,0,0,1-.4,1.1,1.975,1.975,0,0,1-1.1.6h0a2.226,2.226,0,0,1,1.3.5,1.5,1.5,0,0,1,.4,1.1,1.865,1.865,0,0,1-.7,1.6,3.281,3.281,0,0,1-2.1.6,3.966,3.966,0,0,1-2-.4v-1a2.935,2.935,0,0,0,1,.3,3.4,3.4,0,0,0,1,.1,1.737,1.737,0,0,0,1.2-.3,1.333,1.333,0,0,0,.4-1,.792.792,0,0,0-.5-.8,4.2,4.2,0,0,0-1.4-.3h-.6v-.9h.6c1.1,0,1.7-.4,1.7-1.2a.908.908,0,0,0-.3-.7c-.2-.2-.5-.2-.9-.2a2.2,2.2,0,0,0-.8.1c-.2.1-.5.2-.9.4l-.6-.8a3.691,3.691,0,0,1,2.3-.7,2.86,2.86,0,0,1,1.7.5A1.746,1.746,0,0,1,497.6,72.5Z" fill="#f0d"/><path d="M503.6,78h-4.8v-.9l1.8-1.9c.5-.6.9-1,1.1-1.2a2.506,2.506,0,0,0,.4-.7,1.483,1.483,0,0,0,.1-.7,1.032,1.032,0,0,0-1.1-1.1,2.353,2.353,0,0,0-.8.2,4.053,4.053,0,0,0-.9.5l-.6-.8a3.745,3.745,0,0,1,1.2-.7,5.019,5.019,0,0,1,1.2-.2,2.544,2.544,0,0,1,1.6.5,1.678,1.678,0,0,1,.6,1.4,2.92,2.92,0,0,1-.2.9,4.053,4.053,0,0,1-.5.9,6.578,6.578,0,0,1-1.2,1.2l-1.2,1.2h3.4V78Z" fill="#f0d"/></g><g transform="translate(39.714 49)"><rect width="8" height="32" fill="#f0d" opacity="0.3"/><path d="M4,13.9a1.8,1.8,0,0,1,1.1.3.975.975,0,0,1,.4.9,1.352,1.352,0,0,1-.9,1.2,2.975,2.975,0,0,1,.8.7.952.952,0,0,1,.2.7,1.389,1.389,0,0,1-.5,1,2.144,2.144,0,0,1-1.2.4,2.5,2.5,0,0,1-1.3-.3,1.159,1.159,0,0,1-.4-1,2.353,2.353,0,0,1,.2-.8,2.761,2.761,0,0,1,.8-.6,2.651,2.651,0,0,1-.5-.6,1.445,1.445,0,0,1-.2-.7.975.975,0,0,1,.4-.9A1.8,1.8,0,0,1,4,13.9Zm-.9,3.8a1.421,1.421,0,0,0,.2.6,1.445,1.445,0,0,0,.7.2,1.445,1.445,0,0,0,.7-.2c.2-.1.2-.3.2-.6a.764.764,0,0,0-.2-.5c-.1-.2-.4-.3-.7-.4H3.9a1.538,1.538,0,0,0-.6.4C3.1,17.3,3.1,17.5,3.1,17.7ZM4,14.6a.764.764,0,0,0-.5.2.764.764,0,0,0-.2.5.367.367,0,0,0,.1.3c.1.1.1.2.2.3s.2,0,.4.1a.918.918,0,0,0,.6-.4.764.764,0,0,0,.2-.5c0-.2-.1-.3-.2-.5Z" fill="#fff"/></g><g transform="translate(359.714 49)"><rect width="8" height="32" fill="#f0d" opacity="0.3"/><path d="M4,13.9a1.8,1.8,0,0,1,1.1.3.975.975,0,0,1,.4.9,1.352,1.352,0,0,1-.9,1.2,2.975,2.975,0,0,1,.8.7.952.952,0,0,1,.2.7,1.389,1.389,0,0,1-.5,1,2.144,2.144,0,0,1-1.2.4,2.5,2.5,0,0,1-1.3-.3,1.159,1.159,0,0,1-.4-1,2.353,2.353,0,0,1,.2-.8,2.761,2.761,0,0,1,.8-.6,2.651,2.651,0,0,1-.5-.6,1.445,1.445,0,0,1-.2-.7.975.975,0,0,1,.4-.9A1.8,1.8,0,0,1,4,13.9Zm-.9,3.8a1.421,1.421,0,0,0,.2.6,1.445,1.445,0,0,0,.7.2,1.445,1.445,0,0,0,.7-.2c.2-.1.2-.3.2-.6a.764.764,0,0,0-.2-.5c-.1-.2-.4-.3-.7-.4H3.9a1.538,1.538,0,0,0-.6.4C3.1,17.3,3.1,17.5,3.1,17.7ZM4,14.6a.764.764,0,0,0-.5.2.764.764,0,0,0-.2.5.367.367,0,0,0,.1.3c.1.1.1.2.2.3s.2,0,.4.1a.918.918,0,0,0,.6-.4.764.764,0,0,0,.2-.5c0-.2-.1-.3-.2-.5Z" fill="#fff"/></g><g transform="translate(176 89)"><rect width="24" height="24" fill="#f0d" opacity="0.5"/><rect width="23" height="23" transform="translate(0.5 0.5)" fill="none" stroke="#e346f5" stroke-width="1" stroke-dasharray="2 1"/><path d="M11.6,15.7H7.3v-.8L9,13.2c.5-.5.8-.9,1-1.1a.864.864,0,0,0,.3-.6c0-.2.1-.4.1-.6a1.025,1.025,0,0,0-1-1,1.7,1.7,0,0,0-.7.1,9.224,9.224,0,0,0-.8.5L7.3,10a3.744,3.744,0,0,1,1-.6,4.253,4.253,0,0,1,1.1-.2,1.978,1.978,0,0,1,1.4.5,1.428,1.428,0,0,1,.5,1.3,1.884,1.884,0,0,1-.2.8,3.508,3.508,0,0,1-.5.8,5.625,5.625,0,0,1-1.1,1.1L8.4,14.8h3v.9Z" fill="#fefeff"/><path d="M17,14.3h-.9v1.4h-1V14.3H12.2v-.8l2.9-4.2h1v4.2H17Zm-1.9-.8v-3h0a5.736,5.736,0,0,1-.4.7l-1.6,2.3Z" fill="#fefeff"/></g><g transform="translate(216 89)"><rect width="24" height="24" fill="#f0d" opacity="0.5"/><rect width="23" height="23" transform="translate(0.5 0.5)" fill="none" stroke="#e346f5" stroke-width="1" stroke-dasharray="2 1"/><path d="M11.6,15.7H7.3v-.8L9,13.2c.5-.5.8-.9,1-1.1a.864.864,0,0,0,.3-.6c0-.2.1-.4.1-.6a1.025,1.025,0,0,0-1-1,1.7,1.7,0,0,0-.7.1,9.224,9.224,0,0,0-.8.5L7.3,10a3.744,3.744,0,0,1,1-.6,4.253,4.253,0,0,1,1.1-.2,1.978,1.978,0,0,1,1.4.5,1.428,1.428,0,0,1,.5,1.3,1.884,1.884,0,0,1-.2.8,3.508,3.508,0,0,1-.5.8,5.625,5.625,0,0,1-1.1,1.1L8.4,14.8h3v.9Z" fill="#fefeff"/><path d="M17,14.3h-.9v1.4h-1V14.3H12.2v-.8l2.9-4.2h1v4.2H17Zm-1.9-.8v-3h0a5.736,5.736,0,0,1-.4.7l-1.6,2.3Z" fill="#fefeff"/></g><g transform="translate(256 89)"><rect width="24" height="24" fill="#f0d" opacity="0.5"/><rect width="23" height="23" transform="translate(0.5 0.5)" fill="none" stroke="#e346f5" stroke-width="1" stroke-dasharray="2 1"/><path d="M11.6,15.7H7.3v-.8L9,13.2c.5-.5.8-.9,1-1.1a.864.864,0,0,0,.3-.6c0-.2.1-.4.1-.6a1.025,1.025,0,0,0-1-1,1.7,1.7,0,0,0-.7.1,9.224,9.224,0,0,0-.8.5L7.3,10a3.744,3.744,0,0,1,1-.6,4.253,4.253,0,0,1,1.1-.2,1.978,1.978,0,0,1,1.4.5,1.428,1.428,0,0,1,.5,1.3,1.884,1.884,0,0,1-.2.8,3.508,3.508,0,0,1-.5.8,5.625,5.625,0,0,1-1.1,1.1L8.4,14.8h3v.9Z" fill="#fefeff"/><path d="M17,14.3h-.9v1.4h-1V14.3H12.2v-.8l2.9-4.2h1v4.2H17Zm-1.9-.8v-3h0a5.736,5.736,0,0,1-.4.7l-1.6,2.3Z" fill="#fefeff"/></g><g transform="translate(296 89)"><rect width="24" height="24" fill="#f0d" opacity="0.5"/><rect width="23" height="23" transform="translate(0.5 0.5)" fill="none" stroke="#e346f5" stroke-width="1" stroke-dasharray="2 1"/><path d="M11.6,15.7H7.3v-.8L9,13.2c.5-.5.8-.9,1-1.1a.864.864,0,0,0,.3-.6c0-.2.1-.4.1-.6a1.025,1.025,0,0,0-1-1,1.7,1.7,0,0,0-.7.1,9.224,9.224,0,0,0-.8.5L7.3,10a3.744,3.744,0,0,1,1-.6,4.253,4.253,0,0,1,1.1-.2,1.978,1.978,0,0,1,1.4.5,1.428,1.428,0,0,1,.5,1.3,1.884,1.884,0,0,1-.2.8,3.508,3.508,0,0,1-.5.8,5.625,5.625,0,0,1-1.1,1.1L8.4,14.8h3v.9Z" fill="#fefeff"/><path d="M17,14.3h-.9v1.4h-1V14.3H12.2v-.8l2.9-4.2h1v4.2H17Zm-1.9-.8v-3h0a5.736,5.736,0,0,1-.4.7l-1.6,2.3Z" fill="#fefeff"/></g><g transform="translate(336 89)"><rect width="24" height="24" fill="#f0d" opacity="0.5"/><rect width="23" height="23" transform="translate(0.5 0.5)" fill="none" stroke="#e346f5" stroke-width="1" stroke-dasharray="2 1"/><path d="M11.6,15.7H7.3v-.8L9,13.2c.5-.5.8-.9,1-1.1a.864.864,0,0,0,.3-.6c0-.2.1-.4.1-.6a1.025,1.025,0,0,0-1-1,1.7,1.7,0,0,0-.7.1,9.224,9.224,0,0,0-.8.5L7.3,10a3.744,3.744,0,0,1,1-.6,4.253,4.253,0,0,1,1.1-.2,1.978,1.978,0,0,1,1.4.5,1.428,1.428,0,0,1,.5,1.3,1.884,1.884,0,0,1-.2.8,3.508,3.508,0,0,1-.5.8,5.625,5.625,0,0,1-1.1,1.1L8.4,14.8h3v.9Z" fill="#fefeff"/><path d="M17,14.3h-.9v1.4h-1V14.3H12.2v-.8l2.9-4.2h1v4.2H17Zm-1.9-.8v-3h0a5.736,5.736,0,0,1-.4.7l-1.6,2.3Z" fill="#fefeff"/></g><g transform="translate(136 89)"><rect width="24" height="24" fill="#f0d" opacity="0.37"/><rect width="23" height="23" transform="translate(0.5 0.5)" fill="none" stroke="#e346f5" stroke-width="1" stroke-dasharray="2 1"/><path d="M11.6,15.7H7.3v-.8L9,13.2c.5-.5.8-.9,1-1.1a.864.864,0,0,0,.3-.6c0-.2.1-.4.1-.6a1.025,1.025,0,0,0-1-1,1.7,1.7,0,0,0-.7.1,9.224,9.224,0,0,0-.8.5L7.3,10a3.744,3.744,0,0,1,1-.6,4.253,4.253,0,0,1,1.1-.2,1.978,1.978,0,0,1,1.4.5,1.428,1.428,0,0,1,.5,1.3,1.884,1.884,0,0,1-.2.8,3.508,3.508,0,0,1-.5.8,5.625,5.625,0,0,1-1.1,1.1L8.4,14.8h3v.9Z" fill="#fefeff"/><path d="M17,14.3h-.9v1.4h-1V14.3H12.2v-.8l2.9-4.2h1v4.2H17Zm-1.9-.8v-3h0a5.736,5.736,0,0,1-.4.7l-1.6,2.3Z" fill="#fefeff"/></g><g transform="translate(39.714 113.5)"><rect width="328" height="7" fill="#f0d" opacity="0.3"/><path d="M164,1.2a1.689,1.689,0,0,1,1,.3.755.755,0,0,1,.4.7,1.15,1.15,0,0,1-.8,1c.3.2.6.3.7.5a1.421,1.421,0,0,1,.2.6.812.812,0,0,1-.4.8,2.167,2.167,0,0,1-2.2,0,.909.909,0,0,1-.4-.8,1.072,1.072,0,0,1,.2-.6,1.275,1.275,0,0,1,.7-.5,3.171,3.171,0,0,1-.6-.5.735.735,0,0,1-.2-.6.67.67,0,0,1,.4-.7A2.959,2.959,0,0,1,164,1.2Zm-.8,3.2a.764.764,0,0,0,.2.5c.1.1.4.1.6.1a1.072,1.072,0,0,0,.6-.2c.2-.1.2-.3.2-.5a.52.52,0,0,0-.2-.4,1.538,1.538,0,0,0-.6-.4h-.1a1.275,1.275,0,0,0-.6.4C163.3,4.1,163.2,4.2,163.2,4.4Zm.8-2.7a.749.749,0,0,0-.5.1.52.52,0,0,0-.2.4.367.367,0,0,0,.1.3c.1.1.1.2.2.2.1.1.2.1.4.2a2.186,2.186,0,0,0,.5-.3c.1-.1.1-.2.1-.4a.52.52,0,0,0-.2-.4C164.4,1.7,164.2,1.7,164,1.7Z" fill="#fff"/></g><g transform="translate(359.714 89)"><rect width="8" height="24" fill="#f0d" opacity="0.3"/><path d="M4,9.9a1.8,1.8,0,0,1,1.1.3.975.975,0,0,1,.4.9,1.352,1.352,0,0,1-.9,1.2,2.975,2.975,0,0,1,.8.7.952.952,0,0,1,.2.7,1.389,1.389,0,0,1-.5,1,2.144,2.144,0,0,1-1.2.4,2.5,2.5,0,0,1-1.3-.3,1.159,1.159,0,0,1-.4-1,2.353,2.353,0,0,1,.2-.8,2.761,2.761,0,0,1,.8-.6,2.651,2.651,0,0,1-.5-.6,1.445,1.445,0,0,1-.2-.7.975.975,0,0,1,.4-.9A1.8,1.8,0,0,1,4,9.9Zm-.9,3.8a1.421,1.421,0,0,0,.2.6,1.445,1.445,0,0,0,.7.2,1.445,1.445,0,0,0,.7-.2c.2-.1.2-.3.2-.6a.764.764,0,0,0-.2-.5c-.1-.2-.4-.3-.7-.4H3.9a1.538,1.538,0,0,0-.6.4C3.1,13.3,3.1,13.5,3.1,13.7ZM4,10.6a.764.764,0,0,0-.5.2.764.764,0,0,0-.2.5.367.367,0,0,0,.1.3c.1.1.1.2.2.3s.2,0,.4.1a.918.918,0,0,0,.6-.4.764.764,0,0,0,.2-.5c0-.2-.1-.3-.2-.5Z" fill="#fff"/></g><g transform="translate(-112.571 31)"><g transform="translate(483.143 58)"><path d="M4.1,0V24" fill="none" stroke="#f0d" stroke-width="1"/><path d="M0,0H8.1" fill="none" stroke="#f0d" stroke-width="1"/><path d="M0,24H8.1" fill="none" stroke="#f0d" stroke-width="1"/></g><path d="M497.9,74H493v-.9l1.8-1.9c.5-.6.9-1,1.1-1.2a2.506,2.506,0,0,0,.4-.7,1.483,1.483,0,0,0,.1-.7,1.032,1.032,0,0,0-1.1-1.1,2.353,2.353,0,0,0-.8.2,4.053,4.053,0,0,0-.9.5l-.6-.8a3.745,3.745,0,0,1,1.2-.7,5.019,5.019,0,0,1,1.2-.2,2.544,2.544,0,0,1,1.6.5,1.678,1.678,0,0,1,.6,1.4,2.92,2.92,0,0,1-.2.9,4.053,4.053,0,0,1-.5.9,6.578,6.578,0,0,1-1.2,1.2l-1.2,1.2h3.4V74Z" fill="#f0d"/><path d="M503.8,72.4h-1V74h-1.1V72.4h-3.3v-.9l3.3-4.7h1.1v4.6h1Zm-2.1-.9V68.1h0a5.9,5.9,0,0,1-.4.8l-1.8,2.6Z" fill="#f0d"/></g><g transform="translate(-46.286 -1310)"><rect width="16" height="24" transform="translate(366 1399)" fill="#f0d" opacity="0.3"/><path d="M372.3,1414.7h-1v-5.3c-.1.1-.2.1-.2.2a6.219,6.219,0,0,1-1,.8l-.5-.7,1.9-1.5h.9v6.5Z" fill="#fff"/><path d="M374.4,1412c0-2.5,1-3.8,3.1-3.8a1.95,1.95,0,0,1,.8.1v.9a1.95,1.95,0,0,0-.8-.1,2.111,2.111,0,0,0-1.6.6,2.961,2.961,0,0,0-.6,1.8h.1a1.7,1.7,0,0,1,.6-.6,2,2,0,0,1,.9-.2,2.167,2.167,0,0,1,1.4.5,1.721,1.721,0,0,1,.5,1.5,2.111,2.111,0,0,1-.6,1.6,2.035,2.035,0,0,1-1.5.6,2.132,2.132,0,0,1-1.2-.3,2.089,2.089,0,0,1-.8-1A4.146,4.146,0,0,1,374.4,1412Zm2.3,1.9a.984.984,0,0,0,.8-.3,1.493,1.493,0,0,0,.3-1,1.223,1.223,0,0,0-.3-.9,1.136,1.136,0,0,0-.8-.3,1.269,1.269,0,0,0-.6.1.78.78,0,0,0-.4.4c-.1.2-.2.3-.2.5a1.493,1.493,0,0,0,.3,1A.874.874,0,0,0,376.7,1413.9Z" fill="#fff"/></g><g transform="translate(-86.286 -1310)"><rect width="16" height="24" transform="translate(366 1399)" fill="#f0d" opacity="0.3"/><path d="M372.3,1414.7h-1v-5.3c-.1.1-.2.1-.2.2a6.219,6.219,0,0,1-1,.8l-.5-.7,1.9-1.5h.9v6.5Z" fill="#fff"/><path d="M374.4,1412c0-2.5,1-3.8,3.1-3.8a1.95,1.95,0,0,1,.8.1v.9a1.95,1.95,0,0,0-.8-.1,2.111,2.111,0,0,0-1.6.6,2.961,2.961,0,0,0-.6,1.8h.1a1.7,1.7,0,0,1,.6-.6,2,2,0,0,1,.9-.2,2.167,2.167,0,0,1,1.4.5,1.721,1.721,0,0,1,.5,1.5,2.111,2.111,0,0,1-.6,1.6,2.035,2.035,0,0,1-1.5.6,2.132,2.132,0,0,1-1.2-.3,2.089,2.089,0,0,1-.8-1A4.146,4.146,0,0,1,374.4,1412Zm2.3,1.9a.984.984,0,0,0,.8-.3,1.493,1.493,0,0,0,.3-1,1.223,1.223,0,0,0-.3-.9,1.136,1.136,0,0,0-.8-.3,1.269,1.269,0,0,0-.6.1.78.78,0,0,0-.4.4c-.1.2-.2.3-.2.5a1.493,1.493,0,0,0,.3,1A.874.874,0,0,0,376.7,1413.9Z" fill="#fff"/></g><g transform="translate(-126.286 -1310)"><rect width="16" height="24" transform="translate(366 1399)" fill="#f0d" opacity="0.3"/><path d="M372.3,1414.7h-1v-5.3c-.1.1-.2.1-.2.2a6.219,6.219,0,0,1-1,.8l-.5-.7,1.9-1.5h.9v6.5Z" fill="#fff"/><path d="M374.4,1412c0-2.5,1-3.8,3.1-3.8a1.95,1.95,0,0,1,.8.1v.9a1.95,1.95,0,0,0-.8-.1,2.111,2.111,0,0,0-1.6.6,2.961,2.961,0,0,0-.6,1.8h.1a1.7,1.7,0,0,1,.6-.6,2,2,0,0,1,.9-.2,2.167,2.167,0,0,1,1.4.5,1.721,1.721,0,0,1,.5,1.5,2.111,2.111,0,0,1-.6,1.6,2.035,2.035,0,0,1-1.5.6,2.132,2.132,0,0,1-1.2-.3,2.089,2.089,0,0,1-.8-1A4.146,4.146,0,0,1,374.4,1412Zm2.3,1.9a.984.984,0,0,0,.8-.3,1.493,1.493,0,0,0,.3-1,1.223,1.223,0,0,0-.3-.9,1.136,1.136,0,0,0-.8-.3,1.269,1.269,0,0,0-.6.1.78.78,0,0,0-.4.4c-.1.2-.2.3-.2.5a1.493,1.493,0,0,0,.3,1A.874.874,0,0,0,376.7,1413.9Z" fill="#fff"/></g><g transform="translate(-166.286 -1326)"><rect width="16" height="24" transform="translate(366 1415)" fill="#f0d" opacity="0.3"/><path d="M372.3,1430.1h-1v-5.3c-.1.1-.2.1-.2.2a6.219,6.219,0,0,1-1,.8l-.5-.7,1.9-1.5h.9v6.5Z" fill="#fff"/><path d="M374.4,1427.4c0-2.5,1-3.8,3.1-3.8a1.95,1.95,0,0,1,.8.1v.9a1.95,1.95,0,0,0-.8-.1,2.111,2.111,0,0,0-1.6.6,2.961,2.961,0,0,0-.6,1.8h.1a1.7,1.7,0,0,1,.6-.6,2,2,0,0,1,.9-.2,2.167,2.167,0,0,1,1.4.5,1.721,1.721,0,0,1,.5,1.5,2.111,2.111,0,0,1-.6,1.6,2.035,2.035,0,0,1-1.5.6,2.132,2.132,0,0,1-1.2-.3,2.089,2.089,0,0,1-.8-1A4.146,4.146,0,0,1,374.4,1427.4Zm2.3,2a.984.984,0,0,0,.8-.3,1.493,1.493,0,0,0,.3-1,1.223,1.223,0,0,0-.3-.9,1.136,1.136,0,0,0-.8-.3,1.269,1.269,0,0,0-.6.1.78.78,0,0,0-.4.4c-.1.2-.2.3-.2.5a1.493,1.493,0,0,0,.3,1A1.05,1.05,0,0,0,376.7,1429.4Z" fill="#fff"/></g><g transform="translate(-206.286 -1310)"><rect width="16" height="24" transform="translate(366 1399)" fill="#f0d" opacity="0.3"/><path d="M372.3,1414.7h-1v-5.3c-.1.1-.2.1-.2.2a6.219,6.219,0,0,1-1,.8l-.5-.7,1.9-1.5h.9v6.5Z" fill="#fff"/><path d="M374.4,1412c0-2.5,1-3.8,3.1-3.8a1.95,1.95,0,0,1,.8.1v.9a1.95,1.95,0,0,0-.8-.1,2.111,2.111,0,0,0-1.6.6,2.961,2.961,0,0,0-.6,1.8h.1a1.7,1.7,0,0,1,.6-.6,2,2,0,0,1,.9-.2,2.167,2.167,0,0,1,1.4.5,1.721,1.721,0,0,1,.5,1.5,2.111,2.111,0,0,1-.6,1.6,2.035,2.035,0,0,1-1.5.6,2.132,2.132,0,0,1-1.2-.3,2.089,2.089,0,0,1-.8-1A4.146,4.146,0,0,1,374.4,1412Zm2.3,1.9a.984.984,0,0,0,.8-.3,1.493,1.493,0,0,0,.3-1,1.223,1.223,0,0,0-.3-.9,1.136,1.136,0,0,0-.8-.3,1.269,1.269,0,0,0-.6.1.78.78,0,0,0-.4.4c-.1.2-.2.3-.2.5a1.493,1.493,0,0,0,.3,1A.874.874,0,0,0,376.7,1413.9Z" fill="#fff"/></g><g transform="translate(47.714 49)"><path d="M2,0H310a2.006,2.006,0,0,1,2,2V32H0V2A2.006,2.006,0,0,1,2,0Z" fill="#171c1e"/><path d="M2,.5H310A1.538,1.538,0,0,1,311.5,2V31.5H.5V2A1.538,1.538,0,0,1,2,.5Z" fill="none" stroke="#464b52" stroke-width="1"/><rect width="312" height="1" transform="translate(0 31)" fill="#6a6e79"/><g transform="translate(8 6)"><path d="M0,0H20V20H0Z" fill="none"/><path d="M12.6,11.5H12l-.2-.2a5.559,5.559,0,1,0-.6.5l.2.2v.6l3.9,3.8,1.1-1.1ZM8,11.5A3.543,3.543,0,0,1,4.5,8,3.543,3.543,0,0,1,8,4.5,3.543,3.543,0,0,1,11.5,8h0A3.543,3.543,0,0,1,8,11.5Z" fill="#6a6e79"/></g><path d="M42,17.7a2.342,2.342,0,0,1-.8,1.8,3.041,3.041,0,0,1-2.2.6,4.744,4.744,0,0,1-2.3-.4v-1c.4.1.7.3,1.1.4a4.869,4.869,0,0,0,1.2.1,2.076,2.076,0,0,0,1.5-.4,1.408,1.408,0,0,0,.3-1.8,1.024,1.024,0,0,0-.6-.5c-.3-.1-.7-.3-1.2-.5a3.8,3.8,0,0,1-1.7-1,2.456,2.456,0,0,1-.5-1.5,1.865,1.865,0,0,1,.7-1.6,3.173,3.173,0,0,1,2-.6,5.555,5.555,0,0,1,2.3.5l-.3.9a5.222,5.222,0,0,0-2.1-.4,2.133,2.133,0,0,0-1.2.3.975.975,0,0,0-.4.9,1.445,1.445,0,0,0,.2.7,1.024,1.024,0,0,0,.6.5c.3.1.7.3,1.2.5a6.487,6.487,0,0,1,1.9,1C42.1,16.5,42,17.1,42,17.7Z" fill="#b7b9c3"/><path d="M46.3,20.1a2.792,2.792,0,0,1-2.2-.9,3.649,3.649,0,0,1-.8-2.4,3.936,3.936,0,0,1,.8-2.5,2.78,2.78,0,0,1,4-.1,2.817,2.817,0,0,1,.7,2.1V17H44.4a2.2,2.2,0,0,0,.6,1.7,2.035,2.035,0,0,0,1.5.6,5.222,5.222,0,0,0,2.1-.4v.9a3.81,3.81,0,0,1-1,.3Zm-.2-5.8a1.656,1.656,0,0,0-1.2.5,1.978,1.978,0,0,0-.5,1.4h3.4a1.955,1.955,0,0,0-.4-1.4A1.9,1.9,0,0,0,46.1,14.3Z" fill="#b7b9c3"/><path d="M54.3,20l-.2-.9h0a1.891,1.891,0,0,1-1,.8,4.3,4.3,0,0,1-1.2.2,2.456,2.456,0,0,1-1.5-.5,1.624,1.624,0,0,1-.5-1.4c0-1.3,1-2,3.1-2h1.1v-.4a1.609,1.609,0,0,0-.3-1.1,1.528,1.528,0,0,0-1-.4,4.925,4.925,0,0,0-1.8.5l-.4-.8a4.179,4.179,0,0,1,1-.4,4.1,4.1,0,0,1,1.1-.1,2.648,2.648,0,0,1,1.7.5,1.969,1.969,0,0,1,.6,1.6V20Zm-2.2-.7A1.736,1.736,0,0,0,54,17.4v-.6H53a2.674,2.674,0,0,0-1.7.4,1.016,1.016,0,0,0-.5,1,.984.984,0,0,0,.3.8A1.493,1.493,0,0,0,52.1,19.3Z" fill="#b7b9c3"/><path d="M60,13.5a2.2,2.2,0,0,1,.8.1l-.1.9a1.952,1.952,0,0,0-.7-.1,1.612,1.612,0,0,0-1.3.6,2.637,2.637,0,0,0-.7,1.6V20H57V13.6h.8l.1,1.2h0a2.836,2.836,0,0,1,.9-1A1.8,1.8,0,0,1,60,13.5Z" fill="#b7b9c3"/><path d="M64.5,20.1a2.94,2.94,0,0,1-2.2-.9,3.188,3.188,0,0,1-.8-2.4,3.742,3.742,0,0,1,.8-2.5,3.345,3.345,0,0,1,3.1-.8c.3.1.6.1.7.2l-.3.8a1.445,1.445,0,0,0-.7-.2c-.3,0-.5-.1-.7-.1-1.3,0-2,.8-2,2.5a2.969,2.969,0,0,0,.5,1.8,1.678,1.678,0,0,0,1.4.6,4.529,4.529,0,0,0,1.6-.3v.9C65.7,20,65.1,20.1,64.5,20.1Z" fill="#b7b9c3"/><path d="M72,20V15.8a1.594,1.594,0,0,0-.4-1.2,1.366,1.366,0,0,0-1.1-.4,1.755,1.755,0,0,0-1.5.6,2.969,2.969,0,0,0-.5,1.8V20h-1V10.9h1v3.6h.1a1.779,1.779,0,0,1,.8-.7,4.22,4.22,0,0,1,1.2-.3,2.445,2.445,0,0,1,1.8.6,2.445,2.445,0,0,1,.6,1.8V20Z" fill="#b7b9c3"/><g transform="translate(284 8)" opacity="0"><rect width="16" height="16" fill="none"/><path d="M12,4.8,11.2,4,8,7.2,4.8,4,4,4.8,7.2,8,4,11.2l.8.8L8,8.8,11.2,12l.8-.8L8.8,8Z" fill="#6a6e79"/></g></g><g transform="translate(39.714 81.5)"><rect width="328" height="7" fill="#f0d" opacity="0.3"/><path d="M164,1.2a1.689,1.689,0,0,1,1,.3.755.755,0,0,1,.4.7,1.15,1.15,0,0,1-.8,1c.3.2.6.3.7.5a1.421,1.421,0,0,1,.2.6.812.812,0,0,1-.4.8,2.167,2.167,0,0,1-2.2,0,.909.909,0,0,1-.4-.8,1.072,1.072,0,0,1,.2-.6,1.275,1.275,0,0,1,.7-.5,3.171,3.171,0,0,1-.6-.5.735.735,0,0,1-.2-.6.67.67,0,0,1,.4-.7A2.959,2.959,0,0,1,164,1.2Zm-.8,3.2a.764.764,0,0,0,.2.5c.1.1.4.1.6.1a1.072,1.072,0,0,0,.6-.2c.2-.1.2-.3.2-.5a.52.52,0,0,0-.2-.4,1.538,1.538,0,0,0-.6-.4h-.1a1.275,1.275,0,0,0-.6.4C163.3,4.1,163.2,4.2,163.2,4.4Zm.8-2.7a.749.749,0,0,0-.5.1.52.52,0,0,0-.2.4.367.367,0,0,0,.1.3c.1.1.1.2.2.2.1.1.2.1.4.2a2.186,2.186,0,0,0,.5-.3c.1-.1.1-.2.1-.4a.52.52,0,0,0-.2-.4C164.4,1.7,164.2,1.7,164,1.7Z" fill="#fff"/></g><g transform="translate(39.714 41.5)"><rect width="328" height="7" fill="#f0d" opacity="0.3"/><path d="M164,1.2a1.689,1.689,0,0,1,1,.3.755.755,0,0,1,.4.7,1.15,1.15,0,0,1-.8,1c.3.2.6.3.7.5a1.421,1.421,0,0,1,.2.6.812.812,0,0,1-.4.8,2.167,2.167,0,0,1-2.2,0,.909.909,0,0,1-.4-.8,1.072,1.072,0,0,1,.2-.6,1.275,1.275,0,0,1,.7-.5,3.171,3.171,0,0,1-.6-.5.735.735,0,0,1-.2-.6.67.67,0,0,1,.4-.7A2.959,2.959,0,0,1,164,1.2Zm-.8,3.2a.764.764,0,0,0,.2.5c.1.1.4.1.6.1a1.072,1.072,0,0,0,.6-.2c.2-.1.2-.3.2-.5a.52.52,0,0,0-.2-.4,1.538,1.538,0,0,0-.6-.4h-.1a1.275,1.275,0,0,0-.6.4C163.3,4.1,163.2,4.2,163.2,4.4Zm.8-2.7a.749.749,0,0,0-.5.1.52.52,0,0,0-.2.4.367.367,0,0,0,.1.3c.1.1.1.2.2.2.1.1.2.1.4.2a2.186,2.186,0,0,0,.5-.3c.1-.1.1-.2.1-.4a.52.52,0,0,0-.2-.4C164.4,1.7,164.2,1.7,164,1.7Z" fill="#fff"/></g></g><g transform="translate(-322 -5506)"><g transform="translate(496 2196)"><g transform="translate(235 3991.5)"><rect width="320" height="48" fill="#171c1e"/><line x2="320" transform="translate(0 48.5)" fill="none" stroke="#464b52" stroke-width="1"/><line x2="320" transform="translate(0 0.5)" fill="none" stroke="#464b52" stroke-width="1"/><path d="M85.1,30.2H83.8V19.9H80.2V18.7h8.6v1.2H85.2V30.2Z" fill="#fff"/><path d="M94.1,21.5a3.083,3.083,0,0,1,1,.1L95,22.8a3.445,3.445,0,0,0-.9-.1,2.5,2.5,0,0,0-1.8.8,2.971,2.971,0,0,0-.7,2.1v4.6H90.3V21.6h1.1l.1,1.6h.1a3.611,3.611,0,0,1,1.1-1.3A2.3,2.3,0,0,1,94.1,21.5Z" fill="#fff"/><path d="M100.4,30.3a3.773,3.773,0,0,1-3-1.2,4.591,4.591,0,0,1-1.1-3.2,4.826,4.826,0,0,1,1-3.3,3.424,3.424,0,0,1,2.7-1.2,3.1,3.1,0,0,1,2.5,1.1,4.1,4.1,0,0,1,.9,2.8v.8H97.5a3.2,3.2,0,0,0,.8,2.3,2.792,2.792,0,0,0,2,.8,6.6,6.6,0,0,0,2.7-.6v1.2a9.288,9.288,0,0,1-1.3.4A4.512,4.512,0,0,1,100.4,30.3Zm-.4-7.7a1.865,1.865,0,0,0-1.6.7,2.738,2.738,0,0,0-.7,1.9h4.5a3.557,3.557,0,0,0-.5-1.9A2.193,2.193,0,0,0,100,22.6Z" fill="#fff"/><path d="M109.4,30.3a3.773,3.773,0,0,1-3-1.2,4.591,4.591,0,0,1-1.1-3.2,4.826,4.826,0,0,1,1-3.3,3.424,3.424,0,0,1,2.7-1.2,3.1,3.1,0,0,1,2.5,1.1,4.1,4.1,0,0,1,.9,2.8v.8h-5.9a3.2,3.2,0,0,0,.8,2.3,2.792,2.792,0,0,0,2,.8,6.6,6.6,0,0,0,2.7-.6v1.2a9.288,9.288,0,0,1-1.3.4A4.888,4.888,0,0,1,109.4,30.3Zm-.4-7.7a1.865,1.865,0,0,0-1.6.7,2.738,2.738,0,0,0-.7,1.9h4.5a3.557,3.557,0,0,0-.5-1.9A2.193,2.193,0,0,0,109,22.6Z" fill="#fff"/><path d="M119.1,30.2V18.8h1.3V30.2h-1.3Z" fill="#fff"/><path d="M126.1,29.3a1.7,1.7,0,0,0,.7-.1,4.331,4.331,0,0,0,.5-.1v1c-.1.1-.3.1-.6.2a1.952,1.952,0,0,1-.7.1c-1.7,0-2.5-.9-2.5-2.6V22.7h-1.2V22l1.2-.5.5-1.8h.8v2h2.5v1h-2.5v5a1.594,1.594,0,0,0,.4,1.2A1.1,1.1,0,0,0,126.1,29.3Z" fill="#fff"/><path d="M132.6,30.3a3.773,3.773,0,0,1-3-1.2,4.591,4.591,0,0,1-1.1-3.2,4.826,4.826,0,0,1,1-3.3,3.424,3.424,0,0,1,2.7-1.2,3.1,3.1,0,0,1,2.5,1.1,4.1,4.1,0,0,1,.9,2.8v.8h-5.9a3.2,3.2,0,0,0,.8,2.3,2.792,2.792,0,0,0,2,.8,6.6,6.6,0,0,0,2.7-.6v1.2a9.287,9.287,0,0,1-1.3.4A4.153,4.153,0,0,1,132.6,30.3Zm-.4-7.7a1.865,1.865,0,0,0-1.6.7,2.738,2.738,0,0,0-.7,1.9h4.5a3.557,3.557,0,0,0-.5-1.9A2.193,2.193,0,0,0,132.2,22.6Z" fill="#fff"/><path d="M148.9,30.2V24.6a2.076,2.076,0,0,0-.4-1.5,1.813,1.813,0,0,0-1.4-.5,2.139,2.139,0,0,0-1.8.7,3.281,3.281,0,0,0-.6,2.1v4.8h-1.3V24.6a2.076,2.076,0,0,0-.4-1.5,1.813,1.813,0,0,0-1.4-.5,2.139,2.139,0,0,0-1.8.7,3.845,3.845,0,0,0-.6,2.4v4.5H138V21.6h1.1l.2,1.2h.1a3.178,3.178,0,0,1,1-1,2.41,2.41,0,0,1,1.5-.4,2.52,2.52,0,0,1,2.6,1.5h.1a3.838,3.838,0,0,1,1.1-1.1,3.064,3.064,0,0,1,1.7-.4,2.918,2.918,0,0,1,2.2.7,3.286,3.286,0,0,1,.7,2.4v5.6h-1.4Z" fill="#fff"/><g transform="translate(16 36) rotate(-90)"><path d="M0,0H24V24H0Z" fill="none"/><path d="M11.8,15.5a1.421,1.421,0,0,1-.6-.2L6,10.1,7.1,9l4.7,4.7L16.4,9l1.1,1.1-5.2,5.2C12.2,15.5,12,15.5,11.8,15.5Z" fill="#90939f"/></g><g transform="translate(48 12)"><rect width="24" height="24" fill="none"/><path d="M2,0H14a2.006,2.006,0,0,1,2,2V14a2.006,2.006,0,0,1-2,2H2a2.006,2.006,0,0,1-2-2V2A2.006,2.006,0,0,1,2,0Z" transform="translate(4 4)" fill="none"/><path d="M2,1H14a.945.945,0,0,1,1,1V14a.945.945,0,0,1-1,1H2a.945.945,0,0,1-1-1V2A.945.945,0,0,1,2,1Z" transform="translate(4 4)" fill="none" stroke="#90939f" stroke-width="2"/></g></g><g transform="translate(235 3943)"><rect width="320" height="48" fill="#171c1e"/><line x2="320" transform="translate(0 48.5)" fill="none" stroke="#464b52" stroke-width="1"/><path d="M85.1,30.2H83.8V19.9H80.2V18.7h8.6v1.2H85.2V30.2Z" fill="#fff"/><path d="M94.1,21.5a3.083,3.083,0,0,1,1,.1L95,22.8a3.445,3.445,0,0,0-.9-.1,2.5,2.5,0,0,0-1.8.8,2.971,2.971,0,0,0-.7,2.1v4.6H90.3V21.6h1.1l.1,1.6h.1a3.611,3.611,0,0,1,1.1-1.3A2.3,2.3,0,0,1,94.1,21.5Z" fill="#fff"/><path d="M100.4,30.3a3.773,3.773,0,0,1-3-1.2,4.591,4.591,0,0,1-1.1-3.2,4.826,4.826,0,0,1,1-3.3,3.424,3.424,0,0,1,2.7-1.2,3.1,3.1,0,0,1,2.5,1.1,4.1,4.1,0,0,1,.9,2.8v.8H97.5a3.2,3.2,0,0,0,.8,2.3,2.792,2.792,0,0,0,2,.8,6.6,6.6,0,0,0,2.7-.6v1.2a9.288,9.288,0,0,1-1.3.4A4.512,4.512,0,0,1,100.4,30.3Zm-.4-7.7a1.865,1.865,0,0,0-1.6.7,2.738,2.738,0,0,0-.7,1.9h4.5a3.557,3.557,0,0,0-.5-1.9A2.193,2.193,0,0,0,100,22.6Z" fill="#fff"/><path d="M109.4,30.3a3.773,3.773,0,0,1-3-1.2,4.591,4.591,0,0,1-1.1-3.2,4.826,4.826,0,0,1,1-3.3,3.424,3.424,0,0,1,2.7-1.2,3.1,3.1,0,0,1,2.5,1.1,4.1,4.1,0,0,1,.9,2.8v.8h-5.9a3.2,3.2,0,0,0,.8,2.3,2.792,2.792,0,0,0,2,.8,6.6,6.6,0,0,0,2.7-.6v1.2a9.288,9.288,0,0,1-1.3.4A4.888,4.888,0,0,1,109.4,30.3Zm-.4-7.7a1.865,1.865,0,0,0-1.6.7,2.738,2.738,0,0,0-.7,1.9h4.5a3.557,3.557,0,0,0-.5-1.9A2.193,2.193,0,0,0,109,22.6Z" fill="#fff"/><path d="M119.1,30.2V18.8h1.3V30.2h-1.3Z" fill="#fff"/><path d="M126.1,29.3a1.7,1.7,0,0,0,.7-.1,4.331,4.331,0,0,0,.5-.1v1c-.1.1-.3.1-.6.2a1.952,1.952,0,0,1-.7.1c-1.7,0-2.5-.9-2.5-2.6V22.7h-1.2V22l1.2-.5.5-1.8h.8v2h2.5v1h-2.5v5a1.594,1.594,0,0,0,.4,1.2A1.1,1.1,0,0,0,126.1,29.3Z" fill="#fff"/><path d="M132.6,30.3a3.773,3.773,0,0,1-3-1.2,4.591,4.591,0,0,1-1.1-3.2,4.826,4.826,0,0,1,1-3.3,3.424,3.424,0,0,1,2.7-1.2,3.1,3.1,0,0,1,2.5,1.1,4.1,4.1,0,0,1,.9,2.8v.8h-5.9a3.2,3.2,0,0,0,.8,2.3,2.792,2.792,0,0,0,2,.8,6.6,6.6,0,0,0,2.7-.6v1.2a9.287,9.287,0,0,1-1.3.4A4.153,4.153,0,0,1,132.6,30.3Zm-.4-7.7a1.865,1.865,0,0,0-1.6.7,2.738,2.738,0,0,0-.7,1.9h4.5a3.557,3.557,0,0,0-.5-1.9A2.193,2.193,0,0,0,132.2,22.6Z" fill="#fff"/><path d="M148.9,30.2V24.6a2.076,2.076,0,0,0-.4-1.5,1.813,1.813,0,0,0-1.4-.5,2.139,2.139,0,0,0-1.8.7,3.281,3.281,0,0,0-.6,2.1v4.8h-1.3V24.6a2.076,2.076,0,0,0-.4-1.5,1.813,1.813,0,0,0-1.4-.5,2.139,2.139,0,0,0-1.8.7,3.845,3.845,0,0,0-.6,2.4v4.5H138V21.6h1.1l.2,1.2h.1a3.178,3.178,0,0,1,1-1,2.41,2.41,0,0,1,1.5-.4,2.52,2.52,0,0,1,2.6,1.5h.1a3.838,3.838,0,0,1,1.1-1.1,3.064,3.064,0,0,1,1.7-.4,2.918,2.918,0,0,1,2.2.7,3.286,3.286,0,0,1,.7,2.4v5.6h-1.4Z" fill="#fff"/><g transform="translate(16 36) rotate(-90)"><path d="M0,0H24V24H0Z" fill="none"/><path d="M11.8,15.5a1.421,1.421,0,0,1-.6-.2L6,10.1,7.1,9l4.7,4.7L16.4,9l1.1,1.1-5.2,5.2C12.2,15.5,12,15.5,11.8,15.5Z" fill="#90939f"/></g><g transform="translate(48 12)"><rect width="24" height="24" fill="none"/><path d="M2,0H14a2.006,2.006,0,0,1,2,2V14a2.006,2.006,0,0,1-2,2H2a2.006,2.006,0,0,1-2-2V2A2.006,2.006,0,0,1,2,0Z" transform="translate(4 4)" fill="none"/><path d="M2,1H14a.945.945,0,0,1,1,1V14a.945.945,0,0,1-1,1H2a.945.945,0,0,1-1-1V2A.945.945,0,0,1,2,1Z" transform="translate(4 4)" fill="none" stroke="#90939f" stroke-width="2"/></g></g><g transform="translate(235 3895)"><rect width="320" height="48" fill="#171c1e"/><path d="M179.1,30.2h-1.3V19.9h-3.6V18.7h8.6v1.2h-3.6V30.2Z" fill="#fff"/><path d="M188.1,21.5a3.083,3.083,0,0,1,1,.1l-.2,1.2a3.444,3.444,0,0,0-.9-.1,2.5,2.5,0,0,0-1.8.8,2.971,2.971,0,0,0-.7,2.1v4.6h-1.3V21.6h1.1l.1,1.6h.1a3.611,3.611,0,0,1,1.1-1.3A2.822,2.822,0,0,1,188.1,21.5Z" fill="#fff"/><path d="M194.4,30.3a3.773,3.773,0,0,1-3-1.2,4.591,4.591,0,0,1-1.1-3.2,4.826,4.826,0,0,1,1-3.3,3.424,3.424,0,0,1,2.7-1.2,3.1,3.1,0,0,1,2.5,1.1,4.1,4.1,0,0,1,.9,2.8v.8h-5.9a3.2,3.2,0,0,0,.8,2.3,2.792,2.792,0,0,0,2,.8,6.6,6.6,0,0,0,2.7-.6v1.2a9.287,9.287,0,0,1-1.3.4A4.512,4.512,0,0,1,194.4,30.3Zm-.4-7.7a1.865,1.865,0,0,0-1.6.7,2.738,2.738,0,0,0-.7,1.9h4.5a3.557,3.557,0,0,0-.5-1.9A2.193,2.193,0,0,0,194,22.6Z" fill="#fff"/><path d="M203.4,30.3a3.773,3.773,0,0,1-3-1.2,4.591,4.591,0,0,1-1.1-3.2,4.826,4.826,0,0,1,1-3.3,3.424,3.424,0,0,1,2.7-1.2,3.1,3.1,0,0,1,2.5,1.1,4.1,4.1,0,0,1,.9,2.8v.8h-5.9a3.2,3.2,0,0,0,.8,2.3,2.792,2.792,0,0,0,2,.8,6.6,6.6,0,0,0,2.7-.6v1.2a9.287,9.287,0,0,1-1.3.4A4.887,4.887,0,0,1,203.4,30.3Zm-.4-7.7a1.865,1.865,0,0,0-1.6.7,2.738,2.738,0,0,0-.7,1.9h4.5a3.557,3.557,0,0,0-.5-1.9A2.193,2.193,0,0,0,203,22.6Z" fill="#fff"/><path d="M213.1,30.2V18.8h1.3V30.2h-1.3Z" fill="#fff"/><path d="M220.1,29.3a1.7,1.7,0,0,0,.7-.1,4.331,4.331,0,0,0,.5-.1v1c-.1.1-.3.1-.6.2a1.952,1.952,0,0,1-.7.1c-1.7,0-2.5-.9-2.5-2.6V22.7h-1.2V22l1.2-.5.5-1.8h.8v2h2.5v1h-2.5v5a1.594,1.594,0,0,0,.4,1.2A1.1,1.1,0,0,0,220.1,29.3Z" fill="#fff"/><path d="M226.6,30.3a3.773,3.773,0,0,1-3-1.2,4.591,4.591,0,0,1-1.1-3.2,4.826,4.826,0,0,1,1-3.3,3.424,3.424,0,0,1,2.7-1.2,3.1,3.1,0,0,1,2.5,1.1,4.1,4.1,0,0,1,.9,2.8v.8h-5.9a3.2,3.2,0,0,0,.8,2.3,2.792,2.792,0,0,0,2,.8,6.6,6.6,0,0,0,2.7-.6v1.2a9.287,9.287,0,0,1-1.3.4A4.153,4.153,0,0,1,226.6,30.3Zm-.4-7.7a1.865,1.865,0,0,0-1.6.7,2.738,2.738,0,0,0-.7,1.9h4.5a3.557,3.557,0,0,0-.5-1.9A2.193,2.193,0,0,0,226.2,22.6Z" fill="#fff"/><path d="M242.9,30.2V24.6a2.076,2.076,0,0,0-.4-1.5,1.813,1.813,0,0,0-1.4-.5,2.139,2.139,0,0,0-1.8.7,3.281,3.281,0,0,0-.6,2.1v4.8h-1.3V24.6a2.076,2.076,0,0,0-.4-1.5,1.813,1.813,0,0,0-1.4-.5,2.139,2.139,0,0,0-1.8.7,3.845,3.845,0,0,0-.6,2.4v4.5H232V21.6h1.1l.2,1.2h.1a3.178,3.178,0,0,1,1-1,2.41,2.41,0,0,1,1.5-.4,2.52,2.52,0,0,1,2.6,1.5h.1a3.838,3.838,0,0,1,1.1-1.1,3.064,3.064,0,0,1,1.7-.4,2.918,2.918,0,0,1,2.2.7,3.286,3.286,0,0,1,.7,2.4v5.6h-1.4Z" fill="#fff"/><g transform="translate(80 12)" opacity="0"><path d="M0,0H24V24H0Z" fill="none"/><path d="M11.8,15.5a1.421,1.421,0,0,1-.6-.2L6,10.1,7.1,9l4.7,4.7L16.4,9l1.1,1.1-5.2,5.2C12.2,15.5,12,15.5,11.8,15.5Z" fill="#90939f"/></g><g transform="translate(142 12)"><rect width="24" height="24" fill="none"/><path d="M2,0H14a2.006,2.006,0,0,1,2,2V14a2.006,2.006,0,0,1-2,2H2a2.006,2.006,0,0,1-2-2V2A2.006,2.006,0,0,1,2,0Z" transform="translate(4 4)" fill="none"/><path d="M2,1H14a.945.945,0,0,1,1,1V14a.945.945,0,0,1-1,1H2a.945.945,0,0,1-1-1V2A.945.945,0,0,1,2,1Z" transform="translate(4 4)" fill="none" stroke="#90939f" stroke-width="2"/></g></g><g transform="translate(235 3847)"><rect width="320" height="48" fill="#171c1e"/><path d="M179.1,30.2h-1.3V19.9h-3.6V18.7h8.6v1.2h-3.6V30.2Z" fill="#fff"/><path d="M188.1,21.5a3.083,3.083,0,0,1,1,.1l-.2,1.2a3.444,3.444,0,0,0-.9-.1,2.5,2.5,0,0,0-1.8.8,2.971,2.971,0,0,0-.7,2.1v4.6h-1.3V21.6h1.1l.1,1.6h.1a3.611,3.611,0,0,1,1.1-1.3A2.822,2.822,0,0,1,188.1,21.5Z" fill="#fff"/><path d="M194.4,30.3a3.773,3.773,0,0,1-3-1.2,4.591,4.591,0,0,1-1.1-3.2,4.826,4.826,0,0,1,1-3.3,3.424,3.424,0,0,1,2.7-1.2,3.1,3.1,0,0,1,2.5,1.1,4.1,4.1,0,0,1,.9,2.8v.8h-5.9a3.2,3.2,0,0,0,.8,2.3,2.792,2.792,0,0,0,2,.8,6.6,6.6,0,0,0,2.7-.6v1.2a9.287,9.287,0,0,1-1.3.4A4.512,4.512,0,0,1,194.4,30.3Zm-.4-7.7a1.865,1.865,0,0,0-1.6.7,2.738,2.738,0,0,0-.7,1.9h4.5a3.557,3.557,0,0,0-.5-1.9A2.193,2.193,0,0,0,194,22.6Z" fill="#fff"/><path d="M203.4,30.3a3.773,3.773,0,0,1-3-1.2,4.591,4.591,0,0,1-1.1-3.2,4.826,4.826,0,0,1,1-3.3,3.424,3.424,0,0,1,2.7-1.2,3.1,3.1,0,0,1,2.5,1.1,4.1,4.1,0,0,1,.9,2.8v.8h-5.9a3.2,3.2,0,0,0,.8,2.3,2.792,2.792,0,0,0,2,.8,6.6,6.6,0,0,0,2.7-.6v1.2a9.287,9.287,0,0,1-1.3.4A4.887,4.887,0,0,1,203.4,30.3Zm-.4-7.7a1.865,1.865,0,0,0-1.6.7,2.738,2.738,0,0,0-.7,1.9h4.5a3.557,3.557,0,0,0-.5-1.9A2.193,2.193,0,0,0,203,22.6Z" fill="#fff"/><path d="M213.1,30.2V18.8h1.3V30.2h-1.3Z" fill="#fff"/><path d="M220.1,29.3a1.7,1.7,0,0,0,.7-.1,4.331,4.331,0,0,0,.5-.1v1c-.1.1-.3.1-.6.2a1.952,1.952,0,0,1-.7.1c-1.7,0-2.5-.9-2.5-2.6V22.7h-1.2V22l1.2-.5.5-1.8h.8v2h2.5v1h-2.5v5a1.594,1.594,0,0,0,.4,1.2A1.1,1.1,0,0,0,220.1,29.3Z" fill="#fff"/><path d="M226.6,30.3a3.773,3.773,0,0,1-3-1.2,4.591,4.591,0,0,1-1.1-3.2,4.826,4.826,0,0,1,1-3.3,3.424,3.424,0,0,1,2.7-1.2,3.1,3.1,0,0,1,2.5,1.1,4.1,4.1,0,0,1,.9,2.8v.8h-5.9a3.2,3.2,0,0,0,.8,2.3,2.792,2.792,0,0,0,2,.8,6.6,6.6,0,0,0,2.7-.6v1.2a9.287,9.287,0,0,1-1.3.4A4.153,4.153,0,0,1,226.6,30.3Zm-.4-7.7a1.865,1.865,0,0,0-1.6.7,2.738,2.738,0,0,0-.7,1.9h4.5a3.557,3.557,0,0,0-.5-1.9A2.193,2.193,0,0,0,226.2,22.6Z" fill="#fff"/><path d="M242.9,30.2V24.6a2.076,2.076,0,0,0-.4-1.5,1.813,1.813,0,0,0-1.4-.5,2.139,2.139,0,0,0-1.8.7,3.281,3.281,0,0,0-.6,2.1v4.8h-1.3V24.6a2.076,2.076,0,0,0-.4-1.5,1.813,1.813,0,0,0-1.4-.5,2.139,2.139,0,0,0-1.8.7,3.845,3.845,0,0,0-.6,2.4v4.5H232V21.6h1.1l.2,1.2h.1a3.178,3.178,0,0,1,1-1,2.41,2.41,0,0,1,1.5-.4,2.52,2.52,0,0,1,2.6,1.5h.1a3.838,3.838,0,0,1,1.1-1.1,3.064,3.064,0,0,1,1.7-.4,2.918,2.918,0,0,1,2.2.7,3.286,3.286,0,0,1,.7,2.4v5.6h-1.4Z" fill="#fff"/><g transform="translate(110 36) rotate(-90)" opacity="0"><path d="M0,0H24V24H0Z" fill="none"/><path d="M11.8,15.5a1.421,1.421,0,0,1-.6-.2L6,10.1,7.1,9l4.7,4.7L16.4,9l1.1,1.1-5.2,5.2C12.2,15.5,12,15.5,11.8,15.5Z" fill="#90939f"/></g><g transform="translate(142 12)"><rect width="24" height="24" fill="none"/><path d="M6,4H18a2.006,2.006,0,0,1,2,2V18a2.006,2.006,0,0,1-2,2H6a2.006,2.006,0,0,1-2-2V6A2.006,2.006,0,0,1,6,4Z" fill="#019aeb"/><path d="M10.4,16l-4-4,1.1-1.1,2.9,2.9,6.1-6.1,1.1,1.1Z" fill="#fff"/></g></g><g transform="translate(235 3799)"><rect width="320" height="48" fill="#171c1e"/><path d="M179.1,30.2h-1.3V19.9h-3.6V18.7h8.6v1.2h-3.6V30.2Z" fill="#fff"/><path d="M188.1,21.5a3.083,3.083,0,0,1,1,.1l-.2,1.2a3.444,3.444,0,0,0-.9-.1,2.5,2.5,0,0,0-1.8.8,2.971,2.971,0,0,0-.7,2.1v4.6h-1.3V21.6h1.1l.1,1.6h.1a3.611,3.611,0,0,1,1.1-1.3A2.822,2.822,0,0,1,188.1,21.5Z" fill="#fff"/><path d="M194.4,30.3a3.773,3.773,0,0,1-3-1.2,4.591,4.591,0,0,1-1.1-3.2,4.826,4.826,0,0,1,1-3.3,3.424,3.424,0,0,1,2.7-1.2,3.1,3.1,0,0,1,2.5,1.1,4.1,4.1,0,0,1,.9,2.8v.8h-5.9a3.2,3.2,0,0,0,.8,2.3,2.792,2.792,0,0,0,2,.8,6.6,6.6,0,0,0,2.7-.6v1.2a9.287,9.287,0,0,1-1.3.4A4.512,4.512,0,0,1,194.4,30.3Zm-.4-7.7a1.865,1.865,0,0,0-1.6.7,2.738,2.738,0,0,0-.7,1.9h4.5a3.557,3.557,0,0,0-.5-1.9A2.193,2.193,0,0,0,194,22.6Z" fill="#fff"/><path d="M203.4,30.3a3.773,3.773,0,0,1-3-1.2,4.591,4.591,0,0,1-1.1-3.2,4.826,4.826,0,0,1,1-3.3,3.424,3.424,0,0,1,2.7-1.2,3.1,3.1,0,0,1,2.5,1.1,4.1,4.1,0,0,1,.9,2.8v.8h-5.9a3.2,3.2,0,0,0,.8,2.3,2.792,2.792,0,0,0,2,.8,6.6,6.6,0,0,0,2.7-.6v1.2a9.287,9.287,0,0,1-1.3.4A4.887,4.887,0,0,1,203.4,30.3Zm-.4-7.7a1.865,1.865,0,0,0-1.6.7,2.738,2.738,0,0,0-.7,1.9h4.5a3.557,3.557,0,0,0-.5-1.9A2.193,2.193,0,0,0,203,22.6Z" fill="#fff"/><path d="M213.1,30.2V18.8h1.3V30.2h-1.3Z" fill="#fff"/><path d="M220.1,29.3a1.7,1.7,0,0,0,.7-.1,4.331,4.331,0,0,0,.5-.1v1c-.1.1-.3.1-.6.2a1.952,1.952,0,0,1-.7.1c-1.7,0-2.5-.9-2.5-2.6V22.7h-1.2V22l1.2-.5.5-1.8h.8v2h2.5v1h-2.5v5a1.594,1.594,0,0,0,.4,1.2A1.1,1.1,0,0,0,220.1,29.3Z" fill="#fff"/><path d="M226.6,30.3a3.773,3.773,0,0,1-3-1.2,4.591,4.591,0,0,1-1.1-3.2,4.826,4.826,0,0,1,1-3.3,3.424,3.424,0,0,1,2.7-1.2,3.1,3.1,0,0,1,2.5,1.1,4.1,4.1,0,0,1,.9,2.8v.8h-5.9a3.2,3.2,0,0,0,.8,2.3,2.792,2.792,0,0,0,2,.8,6.6,6.6,0,0,0,2.7-.6v1.2a9.287,9.287,0,0,1-1.3.4A4.153,4.153,0,0,1,226.6,30.3Zm-.4-7.7a1.865,1.865,0,0,0-1.6.7,2.738,2.738,0,0,0-.7,1.9h4.5a3.557,3.557,0,0,0-.5-1.9A2.193,2.193,0,0,0,226.2,22.6Z" fill="#fff"/><path d="M242.9,30.2V24.6a2.076,2.076,0,0,0-.4-1.5,1.813,1.813,0,0,0-1.4-.5,2.139,2.139,0,0,0-1.8.7,3.281,3.281,0,0,0-.6,2.1v4.8h-1.3V24.6a2.076,2.076,0,0,0-.4-1.5,1.813,1.813,0,0,0-1.4-.5,2.139,2.139,0,0,0-1.8.7,3.845,3.845,0,0,0-.6,2.4v4.5H232V21.6h1.1l.2,1.2h.1a3.178,3.178,0,0,1,1-1,2.41,2.41,0,0,1,1.5-.4,2.52,2.52,0,0,1,2.6,1.5h.1a3.838,3.838,0,0,1,1.1-1.1,3.064,3.064,0,0,1,1.7-.4,2.918,2.918,0,0,1,2.2.7,3.286,3.286,0,0,1,.7,2.4v5.6h-1.4Z" fill="#fff"/><g transform="translate(80 12)" opacity="0"><path d="M0,0H24V24H0Z" fill="none"/><path d="M11.8,15.5a1.421,1.421,0,0,1-.6-.2L6,10.1,7.1,9l4.7,4.7L16.4,9l1.1,1.1-5.2,5.2C12.2,15.5,12,15.5,11.8,15.5Z" fill="#90939f"/></g><g transform="translate(142 12)"><rect width="24" height="24" fill="none"/><path d="M2,0H14a2.006,2.006,0,0,1,2,2V14a2.006,2.006,0,0,1-2,2H2a2.006,2.006,0,0,1-2-2V2A2.006,2.006,0,0,1,2,0Z" transform="translate(4 4)" fill="none"/><path d="M2,1H14a.945.945,0,0,1,1,1V14a.945.945,0,0,1-1,1H2a.945.945,0,0,1-1-1V2A.945.945,0,0,1,2,1Z" transform="translate(4 4)" fill="none" stroke="#90939f" stroke-width="2"/></g></g><g transform="translate(235 3751)"><rect width="320" height="48" fill="#171c1e"/><path d="M149.1,30.2h-1.3V19.9h-3.6V18.7h8.6v1.2h-3.6V30.2Z" fill="#fff"/><path d="M158.1,21.5a3.083,3.083,0,0,1,1,.1l-.2,1.2a3.444,3.444,0,0,0-.9-.1,2.5,2.5,0,0,0-1.8.8,2.971,2.971,0,0,0-.7,2.1v4.6h-1.3V21.6h1.1l.1,1.6h.1a3.611,3.611,0,0,1,1.1-1.3A2.822,2.822,0,0,1,158.1,21.5Z" fill="#fff"/><path d="M164.4,30.3a3.773,3.773,0,0,1-3-1.2,4.591,4.591,0,0,1-1.1-3.2,4.826,4.826,0,0,1,1-3.3,3.424,3.424,0,0,1,2.7-1.2,3.1,3.1,0,0,1,2.5,1.1,4.1,4.1,0,0,1,.9,2.8v.8h-5.9a3.2,3.2,0,0,0,.8,2.3,2.792,2.792,0,0,0,2,.8,6.6,6.6,0,0,0,2.7-.6v1.2a9.287,9.287,0,0,1-1.3.4A4.512,4.512,0,0,1,164.4,30.3Zm-.4-7.7a1.865,1.865,0,0,0-1.6.7,2.738,2.738,0,0,0-.7,1.9h4.5a3.557,3.557,0,0,0-.5-1.9A2.193,2.193,0,0,0,164,22.6Z" fill="#fff"/><path d="M173.4,30.3a3.773,3.773,0,0,1-3-1.2,4.591,4.591,0,0,1-1.1-3.2,4.826,4.826,0,0,1,1-3.3,3.424,3.424,0,0,1,2.7-1.2,3.1,3.1,0,0,1,2.5,1.1,4.1,4.1,0,0,1,.9,2.8v.8h-5.9a3.2,3.2,0,0,0,.8,2.3,2.792,2.792,0,0,0,2,.8,6.6,6.6,0,0,0,2.7-.6v1.2a9.287,9.287,0,0,1-1.3.4A4.887,4.887,0,0,1,173.4,30.3Zm-.4-7.7a1.865,1.865,0,0,0-1.6.7,2.738,2.738,0,0,0-.7,1.9h4.5a3.557,3.557,0,0,0-.5-1.9A2.193,2.193,0,0,0,173,22.6Z" fill="#fff"/><path d="M183.1,30.2V18.8h1.3V30.2h-1.3Z" fill="#fff"/><path d="M190.1,29.3a1.7,1.7,0,0,0,.7-.1,4.331,4.331,0,0,0,.5-.1v1c-.1.1-.3.1-.6.2a1.952,1.952,0,0,1-.7.1c-1.7,0-2.5-.9-2.5-2.6V22.7h-1.2V22l1.2-.5.5-1.8h.8v2h2.5v1h-2.5v5a1.594,1.594,0,0,0,.4,1.2A1.1,1.1,0,0,0,190.1,29.3Z" fill="#fff"/><path d="M196.6,30.3a3.773,3.773,0,0,1-3-1.2,4.591,4.591,0,0,1-1.1-3.2,4.826,4.826,0,0,1,1-3.3,3.424,3.424,0,0,1,2.7-1.2,3.1,3.1,0,0,1,2.5,1.1,4.1,4.1,0,0,1,.9,2.8v.8h-5.9a3.2,3.2,0,0,0,.8,2.3,2.792,2.792,0,0,0,2,.8,6.6,6.6,0,0,0,2.7-.6v1.2a9.287,9.287,0,0,1-1.3.4A4.153,4.153,0,0,1,196.6,30.3Zm-.4-7.7a1.865,1.865,0,0,0-1.6.7,2.738,2.738,0,0,0-.7,1.9h4.5a3.557,3.557,0,0,0-.5-1.9A2.193,2.193,0,0,0,196.2,22.6Z" fill="#fff"/><path d="M212.9,30.2V24.6a2.076,2.076,0,0,0-.4-1.5,1.813,1.813,0,0,0-1.4-.5,2.139,2.139,0,0,0-1.8.7,3.281,3.281,0,0,0-.6,2.1v4.8h-1.3V24.6a2.076,2.076,0,0,0-.4-1.5,1.813,1.813,0,0,0-1.4-.5,2.139,2.139,0,0,0-1.8.7,3.845,3.845,0,0,0-.6,2.4v4.5H202V21.6h1.1l.2,1.2h.1a3.178,3.178,0,0,1,1-1,2.41,2.41,0,0,1,1.5-.4,2.52,2.52,0,0,1,2.6,1.5h.1a3.838,3.838,0,0,1,1.1-1.1,3.064,3.064,0,0,1,1.7-.4,2.918,2.918,0,0,1,2.2.7,3.286,3.286,0,0,1,.7,2.4v5.6h-1.4Z" fill="#fff"/><g transform="translate(80 12)"><path d="M0,0H24V24H0Z" fill="none"/><path d="M11.8,15.5a1.421,1.421,0,0,1-.6-.2L6,10.1,7.1,9l4.7,4.7L16.4,9l1.1,1.1-5.2,5.2C12.2,15.5,12,15.5,11.8,15.5Z" fill="#90939f"/></g><g transform="translate(112 12)"><rect width="24" height="24" fill="none"/><path d="M2,0H14a2.006,2.006,0,0,1,2,2V14a2.006,2.006,0,0,1-2,2H2a2.006,2.006,0,0,1-2-2V2A2.006,2.006,0,0,1,2,0Z" transform="translate(4 4)" fill="none"/><path d="M2,1H14a.945.945,0,0,1,1,1V14a.945.945,0,0,1-1,1H2a.945.945,0,0,1-1-1V2A.945.945,0,0,1,2,1Z" transform="translate(4 4)" fill="none" stroke="#90939f" stroke-width="2"/></g></g><g transform="translate(235 3703)"><rect width="320" height="48" fill="#171c1e"/><path d="M117.5,30.2h-1.9V20.4h-3.4V18.8h8.6v1.6h-3.4v9.8Z" fill="#fff"/><path d="M126.8,21.4a2.22,2.22,0,0,1,.9.1l-.2,1.7a2.2,2.2,0,0,0-.8-.1,2.41,2.41,0,0,0-1.8.7,2.489,2.489,0,0,0-.7,1.9v4.5h-1.8V21.6h1.4l.2,1.5h.1a4.263,4.263,0,0,1,1.1-1.2A2.767,2.767,0,0,1,126.8,21.4Z" fill="#fff"/><path d="M133,30.3a4.378,4.378,0,0,1-3.2-1.2,4.316,4.316,0,0,1-1.1-3.2,4.859,4.859,0,0,1,1.1-3.3,3.7,3.7,0,0,1,2.9-1.2,3.62,3.62,0,0,1,2.7,1,3.8,3.8,0,0,1,1,2.9v1h-5.8a2.738,2.738,0,0,0,.7,1.9,2.139,2.139,0,0,0,1.8.7,6.149,6.149,0,0,0,1.4-.1,12.129,12.129,0,0,0,1.4-.5v1.5a5.782,5.782,0,0,1-1.4.5Zm-.3-7.5a1.678,1.678,0,0,0-1.4.6,2.578,2.578,0,0,0-.6,1.6h3.9a2.348,2.348,0,0,0-.5-1.6A1.816,1.816,0,0,0,132.7,22.8Z" fill="#fff"/><path d="M142.3,30.3a4.378,4.378,0,0,1-3.2-1.2,4.316,4.316,0,0,1-1.1-3.2,4.859,4.859,0,0,1,1.1-3.3,3.7,3.7,0,0,1,2.9-1.2,3.62,3.62,0,0,1,2.7,1,3.8,3.8,0,0,1,1,2.9v1h-5.8a2.738,2.738,0,0,0,.7,1.9,2.139,2.139,0,0,0,1.8.7,6.149,6.149,0,0,0,1.4-.1,12.129,12.129,0,0,0,1.4-.5v1.5a5.782,5.782,0,0,1-1.4.5Zm-.4-7.5a1.678,1.678,0,0,0-1.4.6,2.578,2.578,0,0,0-.6,1.6h3.9a2.348,2.348,0,0,0-.5-1.6A1.678,1.678,0,0,0,141.9,22.8Z" fill="#fff"/><path d="M152.1,30.2V18.8H154V30.2h-1.9Z" fill="#fff"/><path d="M160,28.9a5.853,5.853,0,0,0,1.3-.2V30a1.884,1.884,0,0,1-.8.2c-.3,0-.7.1-1,.1-1.7,0-2.6-.9-2.6-2.8V22.8h-1.2V22l1.3-.7.6-1.8h1.1v1.9h2.5v1.4h-2.5v4.6a1.493,1.493,0,0,0,.3,1A1.107,1.107,0,0,0,160,28.9Z" fill="#fff"/><path d="M166.8,30.3a4.378,4.378,0,0,1-3.2-1.2,4.316,4.316,0,0,1-1.1-3.2,4.859,4.859,0,0,1,1.1-3.3,3.7,3.7,0,0,1,2.9-1.2,3.62,3.62,0,0,1,2.7,1,3.8,3.8,0,0,1,1,2.9v1h-5.8a2.738,2.738,0,0,0,.7,1.9,2.139,2.139,0,0,0,1.8.7,6.149,6.149,0,0,0,1.4-.1,12.129,12.129,0,0,0,1.4-.5v1.5a5.782,5.782,0,0,1-1.4.5Zm-.3-7.5a1.678,1.678,0,0,0-1.4.6,2.578,2.578,0,0,0-.6,1.6h3.9a2.348,2.348,0,0,0-.5-1.6A1.816,1.816,0,0,0,166.5,22.8Z" fill="#fff"/><path d="M179.5,30.2h-1.8V24.9a2.076,2.076,0,0,0-.4-1.5,1.5,1.5,0,0,0-1.2-.5,1.865,1.865,0,0,0-1.6.7,4.352,4.352,0,0,0-.5,2.3v4.3h-1.8V21.6h1.4l.3,1.1h.1a3.178,3.178,0,0,1,1-1,4.013,4.013,0,0,1,1.5-.3,2.6,2.6,0,0,1,2.6,1.4h.1a2.66,2.66,0,0,1,1.1-1,4.193,4.193,0,0,1,1.6-.4,3.2,3.2,0,0,1,2.3.8,3.286,3.286,0,0,1,.7,2.4v5.6h-1.8V24.9a2.076,2.076,0,0,0-.4-1.5,1.5,1.5,0,0,0-1.2-.5,1.865,1.865,0,0,0-1.6.7,3.576,3.576,0,0,0-.5,2.1v4.5Z" fill="#fff"/><g transform="translate(48 12)"><path d="M0,0H24V24H0Z" fill="none"/><path d="M11.8,15.5a1.421,1.421,0,0,1-.6-.2L6,10.1,7.1,9l4.7,4.7L16.4,9l1.1,1.1-5.2,5.2C12.2,15.5,12,15.5,11.8,15.5Z" fill="#90939f"/></g><g transform="translate(80 12)"><rect width="24" height="24" fill="none"/><path d="M2,0H14a2.006,2.006,0,0,1,2,2V14a2.006,2.006,0,0,1-2,2H2a2.006,2.006,0,0,1-2-2V2A2.006,2.006,0,0,1,2,0Z" transform="translate(4 4)" fill="none"/><path d="M2,1H14a.945.945,0,0,1,1,1V14a.945.945,0,0,1-1,1H2a.945.945,0,0,1-1-1V2A.945.945,0,0,1,2,1Z" transform="translate(4 4)" fill="none" stroke="#90939f" stroke-width="2"/></g></g><g transform="translate(235 3655)"><rect width="317" height="48" fill="rgba(1,154,235,0.3)" stroke="#019aeb" stroke-width="1"/><path d="M85.8,30.2H83.4V20.8H80.3v-2h8.6v2H85.8Z" fill="#fff"/><path d="M95.4,21.3a1.949,1.949,0,0,1,.8.1L96,23.6a1.483,1.483,0,0,0-.7-.1,2.445,2.445,0,0,0-1.8.6,2.111,2.111,0,0,0-.6,1.6v4.4H90.5V21.4h1.8l.4,1.5h.1a3.179,3.179,0,0,1,1.1-1.2A2.6,2.6,0,0,1,95.4,21.3Z" fill="#fff"/><path d="M101.7,30.3a4.152,4.152,0,0,1-4.5-4.5,4.954,4.954,0,0,1,1.1-3.4,3.773,3.773,0,0,1,3-1.2,4,4,0,0,1,2.9,1.1,3.945,3.945,0,0,1,1,2.9v1.2H99.6a2.065,2.065,0,0,0,2.2,2.2,7.719,7.719,0,0,0,1.5-.2,8.8,8.8,0,0,0,1.5-.5v1.8a6.943,6.943,0,0,1-1.3.5A9.722,9.722,0,0,1,101.7,30.3Zm-.3-7.3a1.656,1.656,0,0,0-1.2.5,1.978,1.978,0,0,0-.5,1.4H103a2.168,2.168,0,0,0-.5-1.4A1.173,1.173,0,0,0,101.4,23Z" fill="#fff"/><path d="M111.2,30.3a4.152,4.152,0,0,1-4.5-4.5,4.954,4.954,0,0,1,1.1-3.4,3.773,3.773,0,0,1,3-1.2,4,4,0,0,1,2.9,1.1,3.945,3.945,0,0,1,1,2.9v1.2h-5.6a2.065,2.065,0,0,0,2.2,2.2,7.719,7.719,0,0,0,1.5-.2,8.8,8.8,0,0,0,1.5-.5v1.8a6.943,6.943,0,0,1-1.3.5A10.283,10.283,0,0,1,111.2,30.3Zm-.3-7.3a1.656,1.656,0,0,0-1.2.5,1.978,1.978,0,0,0-.5,1.4h3.3a2.168,2.168,0,0,0-.5-1.4A1.173,1.173,0,0,0,110.9,23Z" fill="#fff"/><path d="M121,30.2V18.8h2.4V30.2H121Z" fill="#fff"/><path d="M129.8,28.4a4.936,4.936,0,0,0,1.5-.3v1.8a4.813,4.813,0,0,1-2.2.4,2.674,2.674,0,0,1-2.1-.7,3.393,3.393,0,0,1-.7-2.2V23.2h-1.1v-1l1.3-.8.7-1.8h1.5v1.9h2.4v1.8h-2.4v4.2a1.136,1.136,0,0,0,.3.8A2.2,2.2,0,0,0,129.8,28.4Z" fill="#fff"/><path d="M137,30.3a4.152,4.152,0,0,1-4.5-4.5,4.954,4.954,0,0,1,1.1-3.4,3.773,3.773,0,0,1,3-1.2,4,4,0,0,1,2.9,1.1,3.945,3.945,0,0,1,1,2.9v1.2H135a2.065,2.065,0,0,0,2.2,2.2,7.719,7.719,0,0,0,1.5-.2,8.8,8.8,0,0,0,1.5-.5v1.8a6.943,6.943,0,0,1-1.3.5A11.483,11.483,0,0,1,137,30.3Zm-.3-7.3a1.656,1.656,0,0,0-1.2.5,1.978,1.978,0,0,0-.5,1.4h3.3a2.168,2.168,0,0,0-.5-1.4A1.173,1.173,0,0,0,136.7,23Z" fill="#fff"/><path d="M150.4,30.2H148V25.1a2.649,2.649,0,0,0-.3-1.4,1.1,1.1,0,0,0-1-.5,1.269,1.269,0,0,0-1.3.7,4.087,4.087,0,0,0-.4,2.2v4.1h-2.4V21.5h1.8l.3,1.1h.1a2.189,2.189,0,0,1,1-.9,3.653,3.653,0,0,1,1.5-.3,2.787,2.787,0,0,1,2.7,1.3h.2a2.189,2.189,0,0,1,1-.9,4.013,4.013,0,0,1,1.5-.3,2.947,2.947,0,0,1,2.2.8,3.293,3.293,0,0,1,.8,2.4v5.7h-2.4V25.3a2.649,2.649,0,0,0-.3-1.4,1.1,1.1,0,0,0-1-.5,1.486,1.486,0,0,0-1.3.6,3.524,3.524,0,0,0-.4,2v4.2Z" fill="#fff"/><path d="M169.2,30.2h-6.6V18.8h6.6v2H165v2.5h3.9v2H165v2.9h4.2Z" fill="#fff"/><path d="M173.2,25.7l-2.8-4.3h2.7l1.7,2.8,1.7-2.8h2.7l-2.8,4.3,3,4.5h-2.7l-1.8-3-1.8,3h-2.7Z" fill="#fff"/><path d="M185.4,30.3a3.043,3.043,0,0,1-2.4-1.1h-.1a9.285,9.285,0,0,1,.1,1.3V34h-2.4V21.5h1.9l.3,1.1h.1a2.764,2.764,0,0,1,2.5-1.3,2.851,2.851,0,0,1,2.4,1.2,5.389,5.389,0,0,1,.9,3.3,6.051,6.051,0,0,1-.4,2.4,3.978,3.978,0,0,1-1.2,1.6A2.311,2.311,0,0,1,185.4,30.3Zm-.7-7.1a1.728,1.728,0,0,0-1.3.5,3.007,3.007,0,0,0-.4,1.8v.3a3.524,3.524,0,0,0,.4,2,1.486,1.486,0,0,0,1.3.6c1.1,0,1.6-.9,1.6-2.6a3.161,3.161,0,0,0-.4-1.9A1.132,1.132,0,0,0,184.7,23.2Z" fill="#fff"/><path d="M196.3,30.2l-.5-1.2h-.1a3,3,0,0,1-2.9,1.4,2.442,2.442,0,0,1-2.7-2.7,2.393,2.393,0,0,1,1-2.1,4.789,4.789,0,0,1,2.9-.7h1.5v-.4c0-.9-.5-1.3-1.4-1.3a6.882,6.882,0,0,0-2.5.6l-.8-1.6a7.308,7.308,0,0,1,3.3-.8,4.138,4.138,0,0,1,2.7.8,2.869,2.869,0,0,1,.9,2.3v5.8h-1.4Zm-.7-4.1h-.9a2.076,2.076,0,0,0-1.5.4,1.231,1.231,0,0,0-.5,1c0,.7.4,1,1.2,1a1.715,1.715,0,0,0,1.8-1.8v-.6Z" fill="#fff"/><path d="M208.5,30.2h-2.4V25.1a2.649,2.649,0,0,0-.3-1.4,1.29,1.29,0,0,0-1.1-.5,1.417,1.417,0,0,0-1.4.7,4.315,4.315,0,0,0-.4,2.2v4.1h-2.4V21.5h1.8l.3,1.1h.1a3.566,3.566,0,0,1,1.1-1,4.146,4.146,0,0,1,1.6-.3,3.2,3.2,0,0,1,2.3.8,3.293,3.293,0,0,1,.8,2.4v5.7Z" fill="#fff"/><path d="M213.7,30.3a2.851,2.851,0,0,1-2.4-1.2,5.389,5.389,0,0,1-.9-3.3,5.389,5.389,0,0,1,.9-3.3,2.908,2.908,0,0,1,2.5-1.2,2.764,2.764,0,0,1,2.5,1.3h.1a12.764,12.764,0,0,1-.2-1.7V18h2.4V30.2h-1.8l-.5-1.1h-.1A2.908,2.908,0,0,1,213.7,30.3Zm.8-1.9a1.578,1.578,0,0,0,1.3-.5,3.87,3.87,0,0,0,.5-1.8v-.3a3.524,3.524,0,0,0-.4-2,1.678,1.678,0,0,0-1.4-.6,1.306,1.306,0,0,0-1.2.7,3.737,3.737,0,0,0-.4,2,3.161,3.161,0,0,0,.4,1.9A1.425,1.425,0,0,0,214.5,28.4Z" fill="#fff"/><path d="M225,30.3a4.152,4.152,0,0,1-4.5-4.5,4.954,4.954,0,0,1,1.1-3.4,3.773,3.773,0,0,1,3-1.2,4,4,0,0,1,2.9,1.1,3.945,3.945,0,0,1,1,2.9v1.2h-5.6a2.065,2.065,0,0,0,2.2,2.2,7.719,7.719,0,0,0,1.5-.2,8.8,8.8,0,0,0,1.5-.5v1.8a6.943,6.943,0,0,1-1.3.5A9.722,9.722,0,0,1,225,30.3Zm-.3-7.3a1.656,1.656,0,0,0-1.2.5,1.978,1.978,0,0,0-.5,1.4h3.3a2.168,2.168,0,0,0-.5-1.4A1.173,1.173,0,0,0,224.7,23Z" fill="#fff"/><path d="M233.3,30.3a2.851,2.851,0,0,1-2.4-1.2,5.389,5.389,0,0,1-.9-3.3,5.389,5.389,0,0,1,.9-3.3,2.908,2.908,0,0,1,2.5-1.2,2.764,2.764,0,0,1,2.5,1.3h.1a12.764,12.764,0,0,1-.2-1.7V18h2.4V30.2h-1.8l-.5-1.1h-.1A2.908,2.908,0,0,1,233.3,30.3Zm.8-1.9a1.578,1.578,0,0,0,1.3-.5,3.87,3.87,0,0,0,.5-1.8v-.3a3.524,3.524,0,0,0-.4-2,1.678,1.678,0,0,0-1.4-.6,1.306,1.306,0,0,0-1.2.7,3.737,3.737,0,0,0-.4,2,3.161,3.161,0,0,0,.4,1.9A1.309,1.309,0,0,0,234.1,28.4Z" fill="#fff"/><g transform="translate(16 12)"><path d="M0,0H24V24H0Z" fill="none"/><path d="M11.8,15.5a1.421,1.421,0,0,1-.6-.2L6,10.1,7.1,9l4.7,4.7L16.4,9l1.1,1.1-5.2,5.2C12.2,15.5,12,15.5,11.8,15.5Z" fill="#90939f"/></g><g transform="translate(288 12.6)"><rect width="24" height="24" fill="none"/><path d="M9.8,14.6,7,11.8l-1,1,3.8,3.8L18,8.4l-1-1Z" fill="#fff"/></g><g transform="translate(48 12)"><rect width="24" height="24" fill="none"/><path d="M6,4H18a2.006,2.006,0,0,1,2,2V18a2.006,2.006,0,0,1-2,2H6a2.006,2.006,0,0,1-2-2V6A2.006,2.006,0,0,1,6,4Z" fill="#019aeb"/><path d="M10.4,16l-4-4,1.1-1.1,2.9,2.9,6.1-6.1,1.1,1.1Z" fill="#fff"/></g><rect width="6" height="284" fill="#019aeb"/></g><g transform="translate(235 3607)"><rect width="320" height="48" fill="#171c1e"/><line x2="320" transform="translate(0 0.5)" fill="none" stroke="#464b52" stroke-width="1"/><path d="M85.1,30.2H83.8V19.9H80.2V18.7h8.6v1.2H85.2V30.2Z" fill="#fff"/><path d="M94.1,21.5a3.083,3.083,0,0,1,1,.1L95,22.8a3.445,3.445,0,0,0-.9-.1,2.5,2.5,0,0,0-1.8.8,2.971,2.971,0,0,0-.7,2.1v4.6H90.3V21.6h1.1l.1,1.6h.1a3.611,3.611,0,0,1,1.1-1.3A2.3,2.3,0,0,1,94.1,21.5Z" fill="#fff"/><path d="M100.4,30.3a3.773,3.773,0,0,1-3-1.2,4.591,4.591,0,0,1-1.1-3.2,4.826,4.826,0,0,1,1-3.3,3.424,3.424,0,0,1,2.7-1.2,3.1,3.1,0,0,1,2.5,1.1,4.1,4.1,0,0,1,.9,2.8v.8H97.5a3.2,3.2,0,0,0,.8,2.3,2.792,2.792,0,0,0,2,.8,6.6,6.6,0,0,0,2.7-.6v1.2a9.288,9.288,0,0,1-1.3.4A4.512,4.512,0,0,1,100.4,30.3Zm-.4-7.7a1.865,1.865,0,0,0-1.6.7,2.738,2.738,0,0,0-.7,1.9h4.5a3.557,3.557,0,0,0-.5-1.9A2.193,2.193,0,0,0,100,22.6Z" fill="#fff"/><path d="M109.4,30.3a3.773,3.773,0,0,1-3-1.2,4.591,4.591,0,0,1-1.1-3.2,4.826,4.826,0,0,1,1-3.3,3.424,3.424,0,0,1,2.7-1.2,3.1,3.1,0,0,1,2.5,1.1,4.1,4.1,0,0,1,.9,2.8v.8h-5.9a3.2,3.2,0,0,0,.8,2.3,2.792,2.792,0,0,0,2,.8,6.6,6.6,0,0,0,2.7-.6v1.2a9.288,9.288,0,0,1-1.3.4A4.888,4.888,0,0,1,109.4,30.3Zm-.4-7.7a1.865,1.865,0,0,0-1.6.7,2.738,2.738,0,0,0-.7,1.9h4.5a3.557,3.557,0,0,0-.5-1.9A2.193,2.193,0,0,0,109,22.6Z" fill="#fff"/><path d="M119.1,30.2V18.8h1.3V30.2h-1.3Z" fill="#fff"/><path d="M126.1,29.3a1.7,1.7,0,0,0,.7-.1,4.331,4.331,0,0,0,.5-.1v1c-.1.1-.3.1-.6.2a1.952,1.952,0,0,1-.7.1c-1.7,0-2.5-.9-2.5-2.6V22.7h-1.2V22l1.2-.5.5-1.8h.8v2h2.5v1h-2.5v5a1.594,1.594,0,0,0,.4,1.2A1.1,1.1,0,0,0,126.1,29.3Z" fill="#fff"/><path d="M132.6,30.3a3.773,3.773,0,0,1-3-1.2,4.591,4.591,0,0,1-1.1-3.2,4.826,4.826,0,0,1,1-3.3,3.424,3.424,0,0,1,2.7-1.2,3.1,3.1,0,0,1,2.5,1.1,4.1,4.1,0,0,1,.9,2.8v.8h-5.9a3.2,3.2,0,0,0,.8,2.3,2.792,2.792,0,0,0,2,.8,6.6,6.6,0,0,0,2.7-.6v1.2a9.287,9.287,0,0,1-1.3.4A4.153,4.153,0,0,1,132.6,30.3Zm-.4-7.7a1.865,1.865,0,0,0-1.6.7,2.738,2.738,0,0,0-.7,1.9h4.5a3.557,3.557,0,0,0-.5-1.9A2.193,2.193,0,0,0,132.2,22.6Z" fill="#fff"/><path d="M148.9,30.2V24.6a2.076,2.076,0,0,0-.4-1.5,1.813,1.813,0,0,0-1.4-.5,2.139,2.139,0,0,0-1.8.7,3.281,3.281,0,0,0-.6,2.1v4.8h-1.3V24.6a2.076,2.076,0,0,0-.4-1.5,1.813,1.813,0,0,0-1.4-.5,2.139,2.139,0,0,0-1.8.7,3.845,3.845,0,0,0-.6,2.4v4.5H138V21.6h1.1l.2,1.2h.1a3.178,3.178,0,0,1,1-1,2.41,2.41,0,0,1,1.5-.4,2.52,2.52,0,0,1,2.6,1.5h.1a3.838,3.838,0,0,1,1.1-1.1,3.064,3.064,0,0,1,1.7-.4,2.918,2.918,0,0,1,2.2.7,3.286,3.286,0,0,1,.7,2.4v5.6h-1.4Z" fill="#fff"/><g transform="translate(16 36) rotate(-90)"><path d="M0,0H24V24H0Z" fill="none"/><path d="M11.8,15.5a1.421,1.421,0,0,1-.6-.2L6,10.1,7.1,9l4.7,4.7L16.4,9l1.1,1.1-5.2,5.2C12.2,15.5,12,15.5,11.8,15.5Z" fill="#90939f"/></g><g transform="translate(48 12)"><rect width="24" height="24" fill="none"/><path d="M2,0H14a2.006,2.006,0,0,1,2,2V14a2.006,2.006,0,0,1-2,2H2a2.006,2.006,0,0,1-2-2V2A2.006,2.006,0,0,1,2,0Z" transform="translate(4 4)" fill="none"/><path d="M2,1H14a.945.945,0,0,1,1,1V14a.945.945,0,0,1-1,1H2a.945.945,0,0,1-1-1V2A.945.945,0,0,1,2,1Z" transform="translate(4 4)" fill="none" stroke="#90939f" stroke-width="2"/></g></g><g transform="translate(235 3559)"><rect width="320" height="48" fill="#171c1e"/><line x2="320" transform="translate(0 0.5)" fill="none" stroke="#464b52" stroke-width="1"/><path d="M85.1,30.2H83.8V19.9H80.2V18.7h8.6v1.2H85.2V30.2Z" fill="#fff"/><path d="M94.1,21.5a3.083,3.083,0,0,1,1,.1L95,22.8a3.445,3.445,0,0,0-.9-.1,2.5,2.5,0,0,0-1.8.8,2.971,2.971,0,0,0-.7,2.1v4.6H90.3V21.6h1.1l.1,1.6h.1a3.611,3.611,0,0,1,1.1-1.3A2.3,2.3,0,0,1,94.1,21.5Z" fill="#fff"/><path d="M100.4,30.3a3.773,3.773,0,0,1-3-1.2,4.591,4.591,0,0,1-1.1-3.2,4.826,4.826,0,0,1,1-3.3,3.424,3.424,0,0,1,2.7-1.2,3.1,3.1,0,0,1,2.5,1.1,4.1,4.1,0,0,1,.9,2.8v.8H97.5a3.2,3.2,0,0,0,.8,2.3,2.792,2.792,0,0,0,2,.8,6.6,6.6,0,0,0,2.7-.6v1.2a9.288,9.288,0,0,1-1.3.4A4.512,4.512,0,0,1,100.4,30.3Zm-.4-7.7a1.865,1.865,0,0,0-1.6.7,2.738,2.738,0,0,0-.7,1.9h4.5a3.557,3.557,0,0,0-.5-1.9A2.193,2.193,0,0,0,100,22.6Z" fill="#fff"/><path d="M109.4,30.3a3.773,3.773,0,0,1-3-1.2,4.591,4.591,0,0,1-1.1-3.2,4.826,4.826,0,0,1,1-3.3,3.424,3.424,0,0,1,2.7-1.2,3.1,3.1,0,0,1,2.5,1.1,4.1,4.1,0,0,1,.9,2.8v.8h-5.9a3.2,3.2,0,0,0,.8,2.3,2.792,2.792,0,0,0,2,.8,6.6,6.6,0,0,0,2.7-.6v1.2a9.288,9.288,0,0,1-1.3.4A4.888,4.888,0,0,1,109.4,30.3Zm-.4-7.7a1.865,1.865,0,0,0-1.6.7,2.738,2.738,0,0,0-.7,1.9h4.5a3.557,3.557,0,0,0-.5-1.9A2.193,2.193,0,0,0,109,22.6Z" fill="#fff"/><path d="M119.1,30.2V18.8h1.3V30.2h-1.3Z" fill="#fff"/><path d="M126.1,29.3a1.7,1.7,0,0,0,.7-.1,4.331,4.331,0,0,0,.5-.1v1c-.1.1-.3.1-.6.2a1.952,1.952,0,0,1-.7.1c-1.7,0-2.5-.9-2.5-2.6V22.7h-1.2V22l1.2-.5.5-1.8h.8v2h2.5v1h-2.5v5a1.594,1.594,0,0,0,.4,1.2A1.1,1.1,0,0,0,126.1,29.3Z" fill="#fff"/><path d="M132.6,30.3a3.773,3.773,0,0,1-3-1.2,4.591,4.591,0,0,1-1.1-3.2,4.826,4.826,0,0,1,1-3.3,3.424,3.424,0,0,1,2.7-1.2,3.1,3.1,0,0,1,2.5,1.1,4.1,4.1,0,0,1,.9,2.8v.8h-5.9a3.2,3.2,0,0,0,.8,2.3,2.792,2.792,0,0,0,2,.8,6.6,6.6,0,0,0,2.7-.6v1.2a9.287,9.287,0,0,1-1.3.4A4.153,4.153,0,0,1,132.6,30.3Zm-.4-7.7a1.865,1.865,0,0,0-1.6.7,2.738,2.738,0,0,0-.7,1.9h4.5a3.557,3.557,0,0,0-.5-1.9A2.193,2.193,0,0,0,132.2,22.6Z" fill="#fff"/><path d="M148.9,30.2V24.6a2.076,2.076,0,0,0-.4-1.5,1.813,1.813,0,0,0-1.4-.5,2.139,2.139,0,0,0-1.8.7,3.281,3.281,0,0,0-.6,2.1v4.8h-1.3V24.6a2.076,2.076,0,0,0-.4-1.5,1.813,1.813,0,0,0-1.4-.5,2.139,2.139,0,0,0-1.8.7,3.845,3.845,0,0,0-.6,2.4v4.5H138V21.6h1.1l.2,1.2h.1a3.178,3.178,0,0,1,1-1,2.41,2.41,0,0,1,1.5-.4,2.52,2.52,0,0,1,2.6,1.5h.1a3.838,3.838,0,0,1,1.1-1.1,3.064,3.064,0,0,1,1.7-.4,2.918,2.918,0,0,1,2.2.7,3.286,3.286,0,0,1,.7,2.4v5.6h-1.4Z" fill="#fff"/><g transform="translate(16 36) rotate(-90)"><path d="M0,0H24V24H0Z" fill="none"/><path d="M11.8,15.5a1.421,1.421,0,0,1-.6-.2L6,10.1,7.1,9l4.7,4.7L16.4,9l1.1,1.1-5.2,5.2C12.2,15.5,12,15.5,11.8,15.5Z" fill="#90939f"/></g><g transform="translate(48 12)"><rect width="24" height="24" fill="none"/><path d="M2,0H14a2.006,2.006,0,0,1,2,2V14a2.006,2.006,0,0,1-2,2H2a2.006,2.006,0,0,1-2-2V2A2.006,2.006,0,0,1,2,0Z" transform="translate(4 4)" fill="none"/><path d="M2,1H14a.945.945,0,0,1,1,1V14a.945.945,0,0,1-1,1H2a.945.945,0,0,1-1-1V2A.945.945,0,0,1,2,1Z" transform="translate(4 4)" fill="none" stroke="#90939f" stroke-width="2"/></g></g></g><g transform="translate(707 5739)"><rect width="8" height="480" transform="translate(336 16)" fill="#252a2e"/><path d="M340,128h0a4.012,4.012,0,0,1,4,4v88a4.012,4.012,0,0,1-4,4h0a4.012,4.012,0,0,1-4-4V132A4.012,4.012,0,0,1,340,128Z" fill="#585c65"/></g><g transform="translate(116 4293)"><rect width="321" height="80" transform="translate(614 1382)" fill="#171c1e"/><g transform="translate(863 1430)"><path d="M0,0H24V24H0Z" fill="none"/><path d="M11,18a2,2,0,1,1-2-2A2.006,2.006,0,0,1,11,18ZM9,10a2,2,0,1,0,2,2A2.006,2.006,0,0,0,9,10ZM9,4a2,2,0,1,0,2,2A2.006,2.006,0,0,0,9,4Zm6,4a2,2,0,1,0-2-2A2.006,2.006,0,0,0,15,8Zm0,2a2,2,0,1,0,2,2A2.006,2.006,0,0,0,15,10Zm0,6a2,2,0,1,0,2,2A2.006,2.006,0,0,0,15,16Z" fill="#fff"/></g><g transform="translate(622 1390)"><path d="M2,0H303a2.006,2.006,0,0,1,2,2V32H0V2A2.006,2.006,0,0,1,2,0Z" fill="#171c1e"/><path d="M2,.5H303A1.538,1.538,0,0,1,304.5,2V31.5H.5V2A1.538,1.538,0,0,1,2,.5Z" fill="none" stroke="#464b52" stroke-width="1"/><rect width="305" height="1" transform="translate(0 31)" fill="#6a6e79"/><g transform="translate(8 6)"><path d="M0,0H20V20H0Z" fill="none"/><path d="M12.6,11.5H12l-.2-.2a5.559,5.559,0,1,0-.6.5l.2.2v.6l3.9,3.8,1.1-1.1ZM8,11.5A3.543,3.543,0,0,1,4.5,8,3.543,3.543,0,0,1,8,4.5,3.543,3.543,0,0,1,11.5,8h0A3.543,3.543,0,0,1,8,11.5Z" fill="#b7b9c3"/></g><path d="M42,17.7a2.342,2.342,0,0,1-.8,1.8,3.041,3.041,0,0,1-2.2.6,4.744,4.744,0,0,1-2.3-.4v-1c.4.1.7.3,1.1.4a4.869,4.869,0,0,0,1.2.1,2.076,2.076,0,0,0,1.5-.4,1.408,1.408,0,0,0,.3-1.8,1.024,1.024,0,0,0-.6-.5c-.3-.1-.7-.3-1.2-.5a3.8,3.8,0,0,1-1.7-1,2.456,2.456,0,0,1-.5-1.5,1.865,1.865,0,0,1,.7-1.6,3.173,3.173,0,0,1,2-.6,5.555,5.555,0,0,1,2.3.5l-.3.9a5.222,5.222,0,0,0-2.1-.4,2.133,2.133,0,0,0-1.2.3.975.975,0,0,0-.4.9,1.445,1.445,0,0,0,.2.7,1.024,1.024,0,0,0,.6.5c.3.1.7.3,1.2.5a6.487,6.487,0,0,1,1.9,1C42.1,16.5,42,17.1,42,17.7Z" fill="#b7b9c3"/><path d="M46.3,20.1a2.792,2.792,0,0,1-2.2-.9,3.649,3.649,0,0,1-.8-2.4,3.936,3.936,0,0,1,.8-2.5,2.78,2.78,0,0,1,4-.1,2.817,2.817,0,0,1,.7,2.1V17H44.4a2.2,2.2,0,0,0,.6,1.7,2.035,2.035,0,0,0,1.5.6,5.222,5.222,0,0,0,2.1-.4v.9a3.81,3.81,0,0,1-1,.3Zm-.2-5.8a1.656,1.656,0,0,0-1.2.5,1.978,1.978,0,0,0-.5,1.4h3.4a1.955,1.955,0,0,0-.4-1.4A1.9,1.9,0,0,0,46.1,14.3Z" fill="#b7b9c3"/><path d="M54.3,20l-.2-.9h0a1.891,1.891,0,0,1-1,.8,4.3,4.3,0,0,1-1.2.2,2.456,2.456,0,0,1-1.5-.5,1.624,1.624,0,0,1-.5-1.4c0-1.3,1-2,3.1-2h1.1v-.4a1.609,1.609,0,0,0-.3-1.1,1.528,1.528,0,0,0-1-.4,4.925,4.925,0,0,0-1.8.5l-.4-.8a4.179,4.179,0,0,1,1-.4,4.1,4.1,0,0,1,1.1-.1,2.648,2.648,0,0,1,1.7.5,1.969,1.969,0,0,1,.6,1.6V20Zm-2.2-.7A1.736,1.736,0,0,0,54,17.4v-.6H53a2.674,2.674,0,0,0-1.7.4,1.016,1.016,0,0,0-.5,1,.984.984,0,0,0,.3.8A1.493,1.493,0,0,0,52.1,19.3Z" fill="#b7b9c3"/><path d="M60,13.5a2.2,2.2,0,0,1,.8.1l-.1.9a1.952,1.952,0,0,0-.7-.1,1.612,1.612,0,0,0-1.3.6,2.637,2.637,0,0,0-.7,1.6V20H57V13.6h.8l.1,1.2h0a2.836,2.836,0,0,1,.9-1A1.8,1.8,0,0,1,60,13.5Z" fill="#b7b9c3"/><path d="M64.5,20.1a2.94,2.94,0,0,1-2.2-.9,3.188,3.188,0,0,1-.8-2.4,3.742,3.742,0,0,1,.8-2.5,3.345,3.345,0,0,1,3.1-.8c.3.1.6.1.7.2l-.3.8a1.445,1.445,0,0,0-.7-.2c-.3,0-.5-.1-.7-.1-1.3,0-2,.8-2,2.5a2.969,2.969,0,0,0,.5,1.8,1.678,1.678,0,0,0,1.4.6,4.529,4.529,0,0,0,1.6-.3v.9C65.7,20,65.1,20.1,64.5,20.1Z" fill="#b7b9c3"/><path d="M72,20V15.8a1.594,1.594,0,0,0-.4-1.2,1.366,1.366,0,0,0-1.1-.4,1.755,1.755,0,0,0-1.5.6,2.969,2.969,0,0,0-.5,1.8V20h-1V10.9h1v3.6h.1a1.779,1.779,0,0,1,.8-.7,4.22,4.22,0,0,1,1.2-.3,2.445,2.445,0,0,1,1.8.6,2.445,2.445,0,0,1,.6,1.8V20Z" fill="#b7b9c3"/><g transform="translate(277 8)" opacity="0"><rect width="16" height="16" fill="none"/><path d="M12,4.8,11.2,4,8,7.2,4.8,4,4,4.8,7.2,8,4,11.2l.8.8L8,8.8,11.2,12l.8-.8L8.8,8Z" fill="#6a6e79"/></g></g><g transform="translate(903 1430)"><path d="M0,0H24V24H0Z" fill="none"/><path d="M7.4,18.6,8.8,20,12,16.8,15.2,20l1.4-1.4L12,14ZM16.6,5.4,15.2,4,12,7.2,8.8,4,7.4,5.4,12,10Z" fill="#fff"/></g><g transform="translate(825.026 1430)"><path d="M0,0H24V24H0Z" fill="none"/><path d="M19,13H13v6H11V13H5V11h6V5h2v6h6Z" fill="#fff"/></g><g transform="translate(707.789 1430)"><path d="M0,0H24V24H0Z" fill="none"/><path d="M6,19a2.006,2.006,0,0,0,2,2h8a2.006,2.006,0,0,0,2-2V7H6ZM19,4H15.5l-1-1h-5l-1,1H5V6H19Z" fill="#fff"/></g><g transform="translate(785.947 1430)"><path d="M0,0H24V24H0Z" fill="none"/><path d="M3,17.2V21H6.8l11-11.1L14.1,6.2ZM20.7,7a.967.967,0,0,0,0-1.4L18.4,3.3a.967.967,0,0,0-1.4,0L15.2,5.1,19,8.9C18.9,8.9,20.7,7,20.7,7Z" fill="#fff"/></g><g transform="translate(746.868 1430)"><path d="M0,0H24V24H0Z" fill="none"/><path d="M16,1H4A2.006,2.006,0,0,0,2,3V17H4V3H16Zm3,4H8A2.006,2.006,0,0,0,6,7V21a2.006,2.006,0,0,0,2,2H19a2.006,2.006,0,0,0,2-2V7A2.006,2.006,0,0,0,19,5Zm0,16H8V7H19Z" fill="#fff"/></g></g></g><path d="M41.7,35.8a1.943,1.943,0,0,0-1.6.8,3.281,3.281,0,0,0-.6,2.1c0,1.9.7,2.9,2.2,2.9a7.442,7.442,0,0,0,2.2-.5v1.5a6.051,6.051,0,0,1-2.4.4,4,4,0,0,1-2.9-1.1,4.5,4.5,0,0,1-1-3.3,5.214,5.214,0,0,1,.5-2.3,3.389,3.389,0,0,1,1.4-1.5,4.648,4.648,0,0,1,2.1-.5,5.734,5.734,0,0,1,2.5.6l-.6,1.5a3,3,0,0,0-1-.4A3.091,3.091,0,0,0,41.7,35.8Z" fill="#fff"/><path d="M53.5,38.7A4.859,4.859,0,0,1,52.4,42a3.719,3.719,0,0,1-3,1.1,4.081,4.081,0,0,1-3-1.1,4.683,4.683,0,0,1-1.1-3.3,4.859,4.859,0,0,1,1.1-3.3,3.719,3.719,0,0,1,3-1.1,4.081,4.081,0,0,1,3,1.1A4.683,4.683,0,0,1,53.5,38.7Zm-6.3,0a4.2,4.2,0,0,0,.5,2.2,1.753,1.753,0,0,0,1.6.7c1.4,0,2.2-1,2.2-2.9s-.7-2.9-2.2-2.9a1.753,1.753,0,0,0-1.6.7A4.2,4.2,0,0,0,47.2,38.7Z" fill="#fff"/><path d="M62.9,43H60.6l-3.7-6.5h-.1c.1,1.1.1,2,.1,2.4v4H55.3V34.3h2.3l3.7,6.4h0c-.1-1.1-.1-1.9-.1-2.4V34.2h1.6V43Z" fill="#fff"/><path d="M68.3,43H66.5V35.9H64.2V34.4h6.5v1.5H68.4V43Z" fill="#fff"/><path d="M76.9,43H72V34.4h4.9v1.5H73.8v1.9h2.9v1.5H73.8v2.2h3.1Z" fill="#fff"/><path d="M86.3,43H84l-3.7-6.5h-.1c.1,1.1.1,2,.1,2.4v4H78.7V34.3H81l3.7,6.4h0c-.1-1.1-.1-1.9-.1-2.4V34.2h1.6V43Z" fill="#fff"/><path d="M91.8,43H90V35.9H87.7V34.4h6.5v1.5H91.9V43Z" fill="#fff"/><path d="M101.8,43H100V35.9H97.7V34.4h6.5v1.5h-2.3V43Z" fill="#fff"/><path d="M107.3,39.7V43h-1.8V34.4H108a4.538,4.538,0,0,1,2.6.6,2.129,2.129,0,0,1,.8,1.9,1.844,1.844,0,0,1-.4,1.3,3.778,3.778,0,0,1-1.2.9c1.3,1.9,2.1,3.2,2.5,3.7h-2l-2-3.3h-1Zm0-1.5h.6a2.269,2.269,0,0,0,1.3-.3,1.213,1.213,0,0,0,0-1.8,2.269,2.269,0,0,0-1.3-.3h-.6Z" fill="#fff"/><path d="M118.3,43h-4.9V34.4h4.9v1.5h-3.1v1.9h2.9v1.5h-2.9v2.2h3.1Z" fill="#fff"/><path d="M125,43h-4.9V34.4H125v1.5h-3.1v1.9h2.9v1.5h-2.9v2.2H125Z" fill="#fff"/><path d="M135.2,43l-.6-2h-3.1l-.6,2h-2l3-8.6h2.2l3,8.6Zm-1.1-3.6c-.6-1.8-.9-2.9-1-3.1s-.1-.4-.2-.6c-.1.5-.5,1.7-1.1,3.7h2.3Z" fill="#fff"/><path d="M141.9,35.8a1.943,1.943,0,0,0-1.6.8,3.281,3.281,0,0,0-.6,2.1c0,1.9.7,2.9,2.2,2.9a7.442,7.442,0,0,0,2.2-.5v1.5a6.051,6.051,0,0,1-2.4.4,4,4,0,0,1-2.9-1.1,4.5,4.5,0,0,1-1-3.3,5.214,5.214,0,0,1,.5-2.3,3.389,3.389,0,0,1,1.4-1.5,4.648,4.648,0,0,1,2.1-.5,5.734,5.734,0,0,1,2.5.6l-.6,1.5a3,3,0,0,0-1-.4A3.091,3.091,0,0,0,141.9,35.8Z" fill="#fff"/><path d="M149.2,43h-1.8V35.9H145V34.4h6.5v1.5h-2.3Z" fill="#fff"/><path d="M152.8,43V34.4h1.8V43Z" fill="#fff"/><path d="M164.6,38.7a4.859,4.859,0,0,1-1.1,3.3,3.719,3.719,0,0,1-3,1.1,4.081,4.081,0,0,1-3-1.1,4.683,4.683,0,0,1-1.1-3.3,4.859,4.859,0,0,1,1.1-3.3,3.719,3.719,0,0,1,3-1.1,4.081,4.081,0,0,1,3,1.1A4.683,4.683,0,0,1,164.6,38.7Zm-6.3,0a4.2,4.2,0,0,0,.5,2.2,1.753,1.753,0,0,0,1.6.7c1.4,0,2.2-1,2.2-2.9s-.7-2.9-2.2-2.9a1.753,1.753,0,0,0-1.6.7A4.2,4.2,0,0,0,158.3,38.7Z" fill="#fff"/><path d="M174,43h-2.3L168,36.5h-.1c.1,1.1.1,2,.1,2.4v4h-1.6V34.3h2.3l3.7,6.4h0c-.1-1.1-.1-1.9-.1-2.4V34.2h1.6V43Z" fill="#fff"/><path d="M179.2,34.4h2.7a5.385,5.385,0,0,1,2.6.5,1.816,1.816,0,0,1,.8,1.6,2.01,2.01,0,0,1-.4,1.3,1.524,1.524,0,0,1-1,.6v.1a1.855,1.855,0,0,1,1.2.7,2.01,2.01,0,0,1,.4,1.3,2.2,2.2,0,0,1-.8,1.8,3.7,3.7,0,0,1-2.3.7h-3.2Zm1.8,3.4h1.1a3.087,3.087,0,0,0,1.1-.2c.3-.1.3-.4.3-.8a.67.67,0,0,0-.4-.7,3.087,3.087,0,0,0-1.1-.2h-1v1.9Zm0,1.5v2.2h1.2a1.609,1.609,0,0,0,1.1-.3,1.267,1.267,0,0,0,.4-.9c0-.7-.5-1.1-1.5-1.1H181Z" fill="#fff"/><path d="M192.5,43l-.6-2h-3.1l-.6,2h-2l3-8.6h2.2l3,8.6Zm-1-3.6c-.6-1.8-.9-2.9-1-3.1s-.1-.4-.2-.6c-.1.5-.5,1.7-1.1,3.7h2.3Z" fill="#fff"/><path d="M197.4,39.7V43h-1.8V34.4h2.5a4.538,4.538,0,0,1,2.6.6,2.129,2.129,0,0,1,.8,1.9,1.844,1.844,0,0,1-.4,1.3,3.778,3.778,0,0,1-1.2.9c1.3,1.9,2.1,3.2,2.5,3.7h-2l-2-3.3h-1Zm0-1.5h.6a2.269,2.269,0,0,0,1.3-.3,1.213,1.213,0,0,0,0-1.8,2.269,2.269,0,0,0-1.3-.3h-.6Z" fill="#fff"/><path d="M408.7,35.8a1.943,1.943,0,0,0-1.6.8,3.281,3.281,0,0,0-.6,2.1c0,1.9.7,2.9,2.2,2.9a7.442,7.442,0,0,0,2.2-.5v1.5a6.051,6.051,0,0,1-2.4.4,4,4,0,0,1-2.9-1.1,4.5,4.5,0,0,1-1-3.3,5.215,5.215,0,0,1,.5-2.3,3.389,3.389,0,0,1,1.4-1.5,4.648,4.648,0,0,1,2.1-.5,5.734,5.734,0,0,1,2.5.6l-.6,1.5a3,3,0,0,0-1-.4A3.091,3.091,0,0,0,408.7,35.8Z" fill="#fff"/><path d="M420.5,38.7a4.859,4.859,0,0,1-1.1,3.3,3.719,3.719,0,0,1-3,1.1,4.081,4.081,0,0,1-3-1.1,4.683,4.683,0,0,1-1.1-3.3,4.859,4.859,0,0,1,1.1-3.3,3.719,3.719,0,0,1,3-1.1,4.081,4.081,0,0,1,3,1.1A4.683,4.683,0,0,1,420.5,38.7Zm-6.3,0a4.2,4.2,0,0,0,.5,2.2,1.753,1.753,0,0,0,1.6.7c1.4,0,2.2-1,2.2-2.9s-.7-2.9-2.2-2.9a1.753,1.753,0,0,0-1.6.7A4.2,4.2,0,0,0,414.2,38.7Z" fill="#fff"/><path d="M429.9,43h-2.3l-3.7-6.5h-.1c.1,1.1.1,2,.1,2.4v4h-1.6V34.3h2.3l3.7,6.4h0c-.1-1.1-.1-1.9-.1-2.4V34.2h1.6V43Z" fill="#fff"/><path d="M435.3,43h-1.8V35.9h-2.3V34.4h6.5v1.5h-2.3V43Z" fill="#fff"/><path d="M443.9,43H439V34.4h4.9v1.5h-3.1v1.9h2.9v1.5h-2.9v2.2h3.1Z" fill="#fff"/><path d="M453.3,43H451l-3.7-6.5h-.1c.1,1.1.1,2,.1,2.4v4h-1.6V34.3H448l3.7,6.4h0c-.1-1.1-.1-1.9-.1-2.4V34.2h1.6V43Z" fill="#fff"/><path d="M458.8,43H457V35.9h-2.3V34.4h6.5v1.5h-2.3V43Z" fill="#fff"/><path d="M468.8,43H467V35.9h-2.3V34.4h6.5v1.5h-2.3V43Z" fill="#fff"/><path d="M474.3,39.7V43h-1.8V34.4H475a4.538,4.538,0,0,1,2.6.6,2.129,2.129,0,0,1,.8,1.9,1.844,1.844,0,0,1-.4,1.3,3.778,3.778,0,0,1-1.2.9c1.3,1.9,2.1,3.2,2.5,3.7h-2l-2-3.3h-1Zm0-1.5h.6a2.269,2.269,0,0,0,1.3-.3,1.213,1.213,0,0,0,0-1.8,2.269,2.269,0,0,0-1.3-.3h-.6Z" fill="#fff"/><path d="M485.3,43h-4.9V34.4h4.9v1.5h-3.1v1.9h2.9v1.5h-2.9v2.2h3.1Z" fill="#fff"/><path d="M492,43h-4.9V34.4H492v1.5h-3.1v1.9h2.9v1.5h-2.9v2.2H492Z" fill="#fff"/><path d="M502.2,43l-.6-2h-3.1l-.6,2h-2l3-8.6h2.2l3,8.6Zm-1.1-3.6c-.6-1.8-.9-2.9-1-3.1s-.1-.4-.2-.6c-.1.5-.5,1.7-1.1,3.7h2.3Z" fill="#fff"/><path d="M508.9,35.8a1.943,1.943,0,0,0-1.6.8,3.281,3.281,0,0,0-.6,2.1c0,1.9.7,2.9,2.2,2.9a7.442,7.442,0,0,0,2.2-.5v1.5a6.051,6.051,0,0,1-2.4.4,4,4,0,0,1-2.9-1.1,4.5,4.5,0,0,1-1-3.3,5.215,5.215,0,0,1,.5-2.3,3.389,3.389,0,0,1,1.4-1.5,4.648,4.648,0,0,1,2.1-.5,5.734,5.734,0,0,1,2.5.6l-.6,1.5a3,3,0,0,0-1-.4A3.091,3.091,0,0,0,508.9,35.8Z" fill="#fff"/><path d="M516.2,43h-1.8V35.9H512V34.4h6.5v1.5h-2.3Z" fill="#fff"/><path d="M519.8,43V34.4h1.8V43Z" fill="#fff"/><path d="M531.6,38.7a4.859,4.859,0,0,1-1.1,3.3,3.719,3.719,0,0,1-3,1.1,4.081,4.081,0,0,1-3-1.1,4.683,4.683,0,0,1-1.1-3.3,4.859,4.859,0,0,1,1.1-3.3,3.719,3.719,0,0,1,3-1.1,4.081,4.081,0,0,1,3,1.1A4.683,4.683,0,0,1,531.6,38.7Zm-6.3,0a4.2,4.2,0,0,0,.5,2.2,1.753,1.753,0,0,0,1.6.7c1.4,0,2.2-1,2.2-2.9s-.7-2.9-2.2-2.9a1.753,1.753,0,0,0-1.6.7A4.2,4.2,0,0,0,525.3,38.7Z" fill="#fff"/><path d="M541,43h-2.3L535,36.5h-.1c.1,1.1.1,2,.1,2.4v4h-1.6V34.3h2.3l3.7,6.4h0c-.1-1.1-.1-1.9-.1-2.4V34.2h1.6V43Z" fill="#fff"/><path d="M546.2,34.4h2.7a5.385,5.385,0,0,1,2.6.5,1.816,1.816,0,0,1,.8,1.6,2.01,2.01,0,0,1-.4,1.3,1.524,1.524,0,0,1-1,.6v.1a1.855,1.855,0,0,1,1.2.7,2.01,2.01,0,0,1,.4,1.3,2.2,2.2,0,0,1-.8,1.8,3.7,3.7,0,0,1-2.3.7h-3.2Zm1.8,3.4h1.1a3.087,3.087,0,0,0,1.1-.2c.3-.1.3-.4.3-.8a.669.669,0,0,0-.4-.7,3.087,3.087,0,0,0-1.1-.2h-1v1.9Zm0,1.5v2.2h1.2a1.608,1.608,0,0,0,1.1-.3,1.268,1.268,0,0,0,.4-.9c0-.7-.5-1.1-1.5-1.1H548Z" fill="#fff"/><path d="M559.5,43l-.6-2h-3.1l-.6,2h-2l3-8.6h2.2l3,8.6Zm-1-3.6c-.6-1.8-.9-2.9-1-3.1s-.1-.4-.2-.6c-.1.5-.5,1.7-1.1,3.7h2.3Z" fill="#fff"/><path d="M564.4,39.7V43h-1.8V34.4h2.5a4.538,4.538,0,0,1,2.6.6,2.129,2.129,0,0,1,.8,1.9,1.844,1.844,0,0,1-.4,1.3,3.779,3.779,0,0,1-1.2.9c1.3,1.9,2.1,3.2,2.5,3.7h-2l-2-3.3h-1Zm0-1.5h.6a2.269,2.269,0,0,0,1.3-.3,1.212,1.212,0,0,0,0-1.8,2.269,2.269,0,0,0-1.3-.3h-.6Z" fill="#fff"/></svg>