<svg xmlns="http://www.w3.org/2000/svg" width="790" height="773" viewBox="0 0 790 773"><rect width="790" height="773" fill="#353a40"/><rect width="789" height="772" transform="translate(0.5 0.5)" fill="none" stroke="#464b52" stroke-width="1"/><path d="M45.2,38.6A4.076,4.076,0,0,1,44,41.8,5.261,5.261,0,0,1,40.5,43H38.1V34.4h2.7a4.859,4.859,0,0,1,3.3,1.1A3.941,3.941,0,0,1,45.2,38.6Zm-1.9.1c0-1.8-.8-2.8-2.4-2.8h-1v5.6h.8C42.4,41.5,43.3,40.6,43.3,38.7Z" fill="#fff"/><path d="M53.9,34.4V40a3.287,3.287,0,0,1-.4,1.7,3.179,3.179,0,0,1-1.2,1.1,3.807,3.807,0,0,1-1.9.4,4.033,4.033,0,0,1-2.6-.8,2.869,2.869,0,0,1-.9-2.3V34.6h1.8v5.2a2.235,2.235,0,0,0,.4,1.5,1.428,1.428,0,0,0,1.3.5,1.728,1.728,0,0,0,1.3-.5,2.076,2.076,0,0,0,.4-1.5V34.6h1.8Z" fill="#fff"/><path d="M61.9,37.1a2.583,2.583,0,0,1-.9,2.1,3.464,3.464,0,0,1-2.4.8h-.8v3H56V34.4h2.7a3.612,3.612,0,0,1,2.4.7A2.319,2.319,0,0,1,61.9,37.1Zm-4.1,1.4h.6a2.269,2.269,0,0,0,1.3-.3,1.053,1.053,0,0,0,.4-1,1.222,1.222,0,0,0-.3-.9,1.609,1.609,0,0,0-1.1-.3h-.8v2.5Z" fill="#fff"/><path d="M63.6,43V34.4h1.8v7.1h3.5V43Z" fill="#fff"/><path d="M70.3,43V34.4h1.8V43Z" fill="#fff"/><path d="M78,35.8a1.943,1.943,0,0,0-1.6.8,3.281,3.281,0,0,0-.6,2.1c0,1.9.7,2.9,2.2,2.9a7.442,7.442,0,0,0,2.2-.5v1.5a6.051,6.051,0,0,1-2.4.4,4,4,0,0,1-2.9-1.1,4.5,4.5,0,0,1-1-3.3,5.214,5.214,0,0,1,.5-2.3,3.389,3.389,0,0,1,1.4-1.5,4.648,4.648,0,0,1,2.1-.5,5.734,5.734,0,0,1,2.5.6l-.6,1.5a3,3,0,0,0-1-.4A3.091,3.091,0,0,0,78,35.8Z" fill="#fff"/><path d="M87.2,43l-.6-2H83.5l-.6,2h-2l3-8.6h2.2l3,8.6Zm-1-3.6c-.6-1.8-.9-2.9-1-3.1s-.1-.4-.2-.6c-.1.5-.5,1.7-1.1,3.7h2.3Z" fill="#fff"/><path d="M93.5,43H91.7V35.9H89.4V34.4h6.5v1.5H93.6V43Z" fill="#fff"/><path d="M97.2,43V34.4H99V43Z" fill="#fff"/><path d="M108.8,43h-2.3l-3.7-6.5h-.1c.1,1.1.1,2,.1,2.4v4h-1.6V34.3h2.3l3.7,6.4h0c-.1-1.1-.1-1.9-.1-2.4V34.2h1.6V43Z" fill="#fff"/><path d="M114.2,38.2h3.4v4.4a12.437,12.437,0,0,1-1.6.4,7.569,7.569,0,0,1-1.5.1,4.081,4.081,0,0,1-3-1.1,4.66,4.66,0,0,1-1-3.3,4.076,4.076,0,0,1,1.2-3.2,4.9,4.9,0,0,1,3.3-1.2,6.963,6.963,0,0,1,2.5.5l-.6,1.5a4.552,4.552,0,0,0-2-.5,2.56,2.56,0,0,0-1.9.8,2.817,2.817,0,0,0-.7,2.1,3.281,3.281,0,0,0,.6,2.1,1.94,1.94,0,0,0,1.7.7,4.869,4.869,0,0,0,1.2-.1V39.6h-1.6Z" fill="#fff"/><path d="M128,43l-.6-2h-3.1l-.6,2h-2l3-8.6h2.2l3,8.6Zm-1.1-3.6c-.6-1.8-.9-2.9-1-3.1s-.1-.4-.2-.6c-.1.5-.5,1.7-1.1,3.7h2.3Z" fill="#fff"/><path d="M137.4,43h-1.8V35.9h-2.3V34.4h6.5v1.5h-2.3V43Z" fill="#fff"/><path d="M142.9,39.7V43h-1.8V34.4h2.5a4.538,4.538,0,0,1,2.6.6,2.129,2.129,0,0,1,.8,1.9,1.844,1.844,0,0,1-.4,1.3,3.778,3.778,0,0,1-1.2.9c1.3,1.9,2.1,3.2,2.5,3.7h-2l-2-3.3h-1Zm0-1.5h.6a2.269,2.269,0,0,0,1.3-.3,1.213,1.213,0,0,0,0-1.8,2.269,2.269,0,0,0-1.3-.3h-.6Z" fill="#fff"/><path d="M153.9,43H149V34.4h4.9v1.5h-3.1v1.9h2.9v1.5h-2.9v2.2h3.1Z" fill="#fff"/><path d="M160.7,43h-4.9V34.4h4.9v1.5h-3.1v1.9h2.9v1.5h-2.9v2.2h3.1Z" fill="#fff"/><path d="M165.6,43V34.4h1.8V43Z" fill="#fff"/><path d="M172.8,43H171V35.9h-2.3V34.4h6.5v1.5h-2.3V43Z" fill="#fff"/><path d="M181.4,43h-4.9V34.4h4.9v1.5h-3.1v1.9h2.9v1.5h-2.9v2.2h3.1Z" fill="#fff"/><path d="M186.8,43l-2.1-6.7h-.1c.1,1.4.1,2.3.1,2.7v4h-1.6V34.4h2.5l2,6.6h0l2.2-6.6h2.5V43h-1.7V38.2c0-.3,0-.9.1-2h-.1l-2.2,6.7h-1.6Z" fill="#fff"/><g transform="translate(-693 -5605)"><g transform="translate(496 2196)"><g transform="translate(235 3991.5)"><rect width="320" height="48" fill="#171c1e"/><path d="M85.1,30.2H83.8V19.9H80.2V18.7h8.6v1.2H85.2V30.2Z" fill="#fff"/><path d="M94.1,21.5a3.083,3.083,0,0,1,1,.1L95,22.8a3.445,3.445,0,0,0-.9-.1,2.5,2.5,0,0,0-1.8.8,2.971,2.971,0,0,0-.7,2.1v4.6H90.3V21.6h1.1l.1,1.6h.1a3.611,3.611,0,0,1,1.1-1.3A2.3,2.3,0,0,1,94.1,21.5Z" fill="#fff"/><path d="M100.4,30.3a3.773,3.773,0,0,1-3-1.2,4.591,4.591,0,0,1-1.1-3.2,4.826,4.826,0,0,1,1-3.3,3.424,3.424,0,0,1,2.7-1.2,3.1,3.1,0,0,1,2.5,1.1,4.1,4.1,0,0,1,.9,2.8v.8H97.5a3.2,3.2,0,0,0,.8,2.3,2.792,2.792,0,0,0,2,.8,6.6,6.6,0,0,0,2.7-.6v1.2a9.288,9.288,0,0,1-1.3.4A4.512,4.512,0,0,1,100.4,30.3Zm-.4-7.7a1.865,1.865,0,0,0-1.6.7,3.3,3.3,0,0,0-.7,1.9h4.5a3.557,3.557,0,0,0-.5-1.9A2.193,2.193,0,0,0,100,22.6Z" fill="#fff"/><path d="M109.4,30.3a3.773,3.773,0,0,1-3-1.2,4.591,4.591,0,0,1-1.1-3.2,4.826,4.826,0,0,1,1-3.3,3.424,3.424,0,0,1,2.7-1.2,3.1,3.1,0,0,1,2.5,1.1,4.1,4.1,0,0,1,.9,2.8v.8h-5.9a3.2,3.2,0,0,0,.8,2.3,2.792,2.792,0,0,0,2,.8,6.6,6.6,0,0,0,2.7-.6v1.2a9.288,9.288,0,0,1-1.3.4A4.888,4.888,0,0,1,109.4,30.3Zm-.4-7.7a1.865,1.865,0,0,0-1.6.7,3.3,3.3,0,0,0-.7,1.9h4.5a3.557,3.557,0,0,0-.5-1.9A2.193,2.193,0,0,0,109,22.6Z" fill="#fff"/><path d="M119.1,30.2V18.8h1.3V30.2h-1.3Z" fill="#fff"/><path d="M126.1,29.3a1.7,1.7,0,0,0,.7-.1,4.331,4.331,0,0,0,.5-.1v1c-.1.1-.3.1-.6.2a1.952,1.952,0,0,1-.7.1c-1.7,0-2.5-.9-2.5-2.6V22.7h-1.2V22l1.2-.5.5-1.8h.8v2h2.5v1h-2.5v5a1.594,1.594,0,0,0,.4,1.2A1.1,1.1,0,0,0,126.1,29.3Z" fill="#fff"/><path d="M132.6,30.3a3.773,3.773,0,0,1-3-1.2,4.591,4.591,0,0,1-1.1-3.2,4.826,4.826,0,0,1,1-3.3,3.424,3.424,0,0,1,2.7-1.2,3.1,3.1,0,0,1,2.5,1.1,4.1,4.1,0,0,1,.9,2.8v.8h-5.9a3.2,3.2,0,0,0,.8,2.3,2.792,2.792,0,0,0,2,.8,6.6,6.6,0,0,0,2.7-.6v1.2a9.287,9.287,0,0,1-1.3.4A4.153,4.153,0,0,1,132.6,30.3Zm-.4-7.7a1.865,1.865,0,0,0-1.6.7,3.3,3.3,0,0,0-.7,1.9h4.5a3.557,3.557,0,0,0-.5-1.9A2.193,2.193,0,0,0,132.2,22.6Z" fill="#fff"/><path d="M148.9,30.2V24.6a2.076,2.076,0,0,0-.4-1.5,1.813,1.813,0,0,0-1.4-.5,2.139,2.139,0,0,0-1.8.7,3.281,3.281,0,0,0-.6,2.1v4.8h-1.3V24.6a2.076,2.076,0,0,0-.4-1.5,1.813,1.813,0,0,0-1.4-.5,2.139,2.139,0,0,0-1.8.7,3.845,3.845,0,0,0-.6,2.4v4.5H138V21.6h1.1l.2,1.2h.1a3.178,3.178,0,0,1,1-1,2.41,2.41,0,0,1,1.5-.4,2.52,2.52,0,0,1,2.6,1.5h.1a3.838,3.838,0,0,1,1.1-1.1,3.064,3.064,0,0,1,1.7-.4,2.918,2.918,0,0,1,2.2.7,3.286,3.286,0,0,1,.7,2.4v5.6h-1.4Z" fill="#fff"/><g transform="translate(16 36) rotate(-90)"><path d="M0,0H24V24H0Z" fill="none"/><path d="M11.8,15.5a1.421,1.421,0,0,1-.6-.2L6,10.1,7.1,9l4.7,4.7L16.4,9l1.1,1.1-5.2,5.2C12.2,15.5,12,15.5,11.8,15.5Z" fill="#90939f"/></g><g transform="translate(48 12)"><rect width="24" height="24" fill="none"/><path d="M2,0H14a2.006,2.006,0,0,1,2,2V14a2.006,2.006,0,0,1-2,2H2a2.006,2.006,0,0,1-2-2V2A2.006,2.006,0,0,1,2,0Z" transform="translate(4 4)" fill="none"/><path d="M2,1H14a.945.945,0,0,1,1,1V14a.945.945,0,0,1-1,1H2a.945.945,0,0,1-1-1V2A.945.945,0,0,1,2,1Z" transform="translate(4 4)" fill="none" stroke="#90939f" stroke-width="2"/></g></g><g transform="translate(235 3943)"><rect width="320" height="48" fill="#171c1e"/><line x2="320" transform="translate(0 48.5)" fill="none" stroke="#464b52" stroke-width="1"/><line x2="320" transform="translate(0 0.5)" fill="none" stroke="#464b52" stroke-width="1"/><path d="M85.1,30.2H83.8V19.9H80.2V18.7h8.6v1.2H85.2V30.2Z" fill="#fff"/><path d="M94.1,21.5a3.083,3.083,0,0,1,1,.1L95,22.8a3.445,3.445,0,0,0-.9-.1,2.5,2.5,0,0,0-1.8.8,2.971,2.971,0,0,0-.7,2.1v4.6H90.3V21.6h1.1l.1,1.6h.1a3.611,3.611,0,0,1,1.1-1.3A2.3,2.3,0,0,1,94.1,21.5Z" fill="#fff"/><path d="M100.4,30.3a3.773,3.773,0,0,1-3-1.2,4.591,4.591,0,0,1-1.1-3.2,4.826,4.826,0,0,1,1-3.3,3.424,3.424,0,0,1,2.7-1.2,3.1,3.1,0,0,1,2.5,1.1,4.1,4.1,0,0,1,.9,2.8v.8H97.5a3.2,3.2,0,0,0,.8,2.3,2.792,2.792,0,0,0,2,.8,6.6,6.6,0,0,0,2.7-.6v1.2a9.288,9.288,0,0,1-1.3.4A4.512,4.512,0,0,1,100.4,30.3Zm-.4-7.7a1.865,1.865,0,0,0-1.6.7,3.3,3.3,0,0,0-.7,1.9h4.5a3.557,3.557,0,0,0-.5-1.9A2.193,2.193,0,0,0,100,22.6Z" fill="#fff"/><path d="M109.4,30.3a3.773,3.773,0,0,1-3-1.2,4.591,4.591,0,0,1-1.1-3.2,4.826,4.826,0,0,1,1-3.3,3.424,3.424,0,0,1,2.7-1.2,3.1,3.1,0,0,1,2.5,1.1,4.1,4.1,0,0,1,.9,2.8v.8h-5.9a3.2,3.2,0,0,0,.8,2.3,2.792,2.792,0,0,0,2,.8,6.6,6.6,0,0,0,2.7-.6v1.2a9.288,9.288,0,0,1-1.3.4A4.888,4.888,0,0,1,109.4,30.3Zm-.4-7.7a1.865,1.865,0,0,0-1.6.7,3.3,3.3,0,0,0-.7,1.9h4.5a3.557,3.557,0,0,0-.5-1.9A2.193,2.193,0,0,0,109,22.6Z" fill="#fff"/><path d="M119.1,30.2V18.8h1.3V30.2h-1.3Z" fill="#fff"/><path d="M126.1,29.3a1.7,1.7,0,0,0,.7-.1,4.331,4.331,0,0,0,.5-.1v1c-.1.1-.3.1-.6.2a1.952,1.952,0,0,1-.7.1c-1.7,0-2.5-.9-2.5-2.6V22.7h-1.2V22l1.2-.5.5-1.8h.8v2h2.5v1h-2.5v5a1.594,1.594,0,0,0,.4,1.2A1.1,1.1,0,0,0,126.1,29.3Z" fill="#fff"/><path d="M132.6,30.3a3.773,3.773,0,0,1-3-1.2,4.591,4.591,0,0,1-1.1-3.2,4.826,4.826,0,0,1,1-3.3,3.424,3.424,0,0,1,2.7-1.2,3.1,3.1,0,0,1,2.5,1.1,4.1,4.1,0,0,1,.9,2.8v.8h-5.9a3.2,3.2,0,0,0,.8,2.3,2.792,2.792,0,0,0,2,.8,6.6,6.6,0,0,0,2.7-.6v1.2a9.287,9.287,0,0,1-1.3.4A4.153,4.153,0,0,1,132.6,30.3Zm-.4-7.7a1.865,1.865,0,0,0-1.6.7,3.3,3.3,0,0,0-.7,1.9h4.5a3.557,3.557,0,0,0-.5-1.9A2.193,2.193,0,0,0,132.2,22.6Z" fill="#fff"/><path d="M148.9,30.2V24.6a2.076,2.076,0,0,0-.4-1.5,1.813,1.813,0,0,0-1.4-.5,2.139,2.139,0,0,0-1.8.7,3.281,3.281,0,0,0-.6,2.1v4.8h-1.3V24.6a2.076,2.076,0,0,0-.4-1.5,1.813,1.813,0,0,0-1.4-.5,2.139,2.139,0,0,0-1.8.7,3.845,3.845,0,0,0-.6,2.4v4.5H138V21.6h1.1l.2,1.2h.1a3.178,3.178,0,0,1,1-1,2.41,2.41,0,0,1,1.5-.4,2.52,2.52,0,0,1,2.6,1.5h.1a3.838,3.838,0,0,1,1.1-1.1,3.064,3.064,0,0,1,1.7-.4,2.918,2.918,0,0,1,2.2.7,3.286,3.286,0,0,1,.7,2.4v5.6h-1.4Z" fill="#fff"/><g transform="translate(16 36) rotate(-90)"><path d="M0,0H24V24H0Z" fill="none"/><path d="M11.8,15.5a1.421,1.421,0,0,1-.6-.2L6,10.1,7.1,9l4.7,4.7L16.4,9l1.1,1.1-5.2,5.2C12.2,15.5,12,15.5,11.8,15.5Z" fill="#90939f"/></g><g transform="translate(48 12)"><rect width="24" height="24" fill="none"/><path d="M2,0H14a2.006,2.006,0,0,1,2,2V14a2.006,2.006,0,0,1-2,2H2a2.006,2.006,0,0,1-2-2V2A2.006,2.006,0,0,1,2,0Z" transform="translate(4 4)" fill="none"/><path d="M2,1H14a.945.945,0,0,1,1,1V14a.945.945,0,0,1-1,1H2a.945.945,0,0,1-1-1V2A.945.945,0,0,1,2,1Z" transform="translate(4 4)" fill="none" stroke="#90939f" stroke-width="2"/></g></g><g transform="translate(235 3895)"><rect width="320" height="48" fill="#171c1e"/><path d="M179.1,30.2h-1.3V19.9h-3.6V18.7h8.6v1.2h-3.6V30.2Z" fill="#fff"/><path d="M188.1,21.5a3.083,3.083,0,0,1,1,.1l-.2,1.2a3.444,3.444,0,0,0-.9-.1,2.5,2.5,0,0,0-1.8.8,2.971,2.971,0,0,0-.7,2.1v4.6h-1.3V21.6h1.1l.1,1.6h.1a3.611,3.611,0,0,1,1.1-1.3A2.822,2.822,0,0,1,188.1,21.5Z" fill="#fff"/><path d="M194.4,30.3a3.773,3.773,0,0,1-3-1.2,4.591,4.591,0,0,1-1.1-3.2,4.826,4.826,0,0,1,1-3.3,3.424,3.424,0,0,1,2.7-1.2,3.1,3.1,0,0,1,2.5,1.1,4.1,4.1,0,0,1,.9,2.8v.8h-5.9a3.2,3.2,0,0,0,.8,2.3,2.792,2.792,0,0,0,2,.8,6.6,6.6,0,0,0,2.7-.6v1.2a9.287,9.287,0,0,1-1.3.4A4.512,4.512,0,0,1,194.4,30.3Zm-.4-7.7a1.865,1.865,0,0,0-1.6.7,3.3,3.3,0,0,0-.7,1.9h4.5a3.557,3.557,0,0,0-.5-1.9A2.193,2.193,0,0,0,194,22.6Z" fill="#fff"/><path d="M203.4,30.3a3.773,3.773,0,0,1-3-1.2,4.591,4.591,0,0,1-1.1-3.2,4.826,4.826,0,0,1,1-3.3,3.424,3.424,0,0,1,2.7-1.2,3.1,3.1,0,0,1,2.5,1.1,4.1,4.1,0,0,1,.9,2.8v.8h-5.9a3.2,3.2,0,0,0,.8,2.3,2.792,2.792,0,0,0,2,.8,6.6,6.6,0,0,0,2.7-.6v1.2a9.287,9.287,0,0,1-1.3.4A4.887,4.887,0,0,1,203.4,30.3Zm-.4-7.7a1.865,1.865,0,0,0-1.6.7,3.3,3.3,0,0,0-.7,1.9h4.5a3.557,3.557,0,0,0-.5-1.9A2.193,2.193,0,0,0,203,22.6Z" fill="#fff"/><path d="M213.1,30.2V18.8h1.3V30.2h-1.3Z" fill="#fff"/><path d="M220.1,29.3a1.7,1.7,0,0,0,.7-.1,4.331,4.331,0,0,0,.5-.1v1c-.1.1-.3.1-.6.2a1.952,1.952,0,0,1-.7.1c-1.7,0-2.5-.9-2.5-2.6V22.7h-1.2V22l1.2-.5.5-1.8h.8v2h2.5v1h-2.5v5a1.594,1.594,0,0,0,.4,1.2A1.1,1.1,0,0,0,220.1,29.3Z" fill="#fff"/><path d="M226.6,30.3a3.773,3.773,0,0,1-3-1.2,4.591,4.591,0,0,1-1.1-3.2,4.826,4.826,0,0,1,1-3.3,3.424,3.424,0,0,1,2.7-1.2,3.1,3.1,0,0,1,2.5,1.1,4.1,4.1,0,0,1,.9,2.8v.8h-5.9a3.2,3.2,0,0,0,.8,2.3,2.792,2.792,0,0,0,2,.8,6.6,6.6,0,0,0,2.7-.6v1.2a9.287,9.287,0,0,1-1.3.4A4.153,4.153,0,0,1,226.6,30.3Zm-.4-7.7a1.865,1.865,0,0,0-1.6.7,3.3,3.3,0,0,0-.7,1.9h4.5a3.557,3.557,0,0,0-.5-1.9A2.193,2.193,0,0,0,226.2,22.6Z" fill="#fff"/><path d="M242.9,30.2V24.6a2.076,2.076,0,0,0-.4-1.5,1.813,1.813,0,0,0-1.4-.5,2.139,2.139,0,0,0-1.8.7,3.281,3.281,0,0,0-.6,2.1v4.8h-1.3V24.6a2.076,2.076,0,0,0-.4-1.5,1.813,1.813,0,0,0-1.4-.5,2.139,2.139,0,0,0-1.8.7,3.845,3.845,0,0,0-.6,2.4v4.5H232V21.6h1.1l.2,1.2h.1a3.178,3.178,0,0,1,1-1,2.41,2.41,0,0,1,1.5-.4,2.52,2.52,0,0,1,2.6,1.5h.1a3.838,3.838,0,0,1,1.1-1.1,3.064,3.064,0,0,1,1.7-.4,2.918,2.918,0,0,1,2.2.7,3.286,3.286,0,0,1,.7,2.4v5.6h-1.4Z" fill="#fff"/><g transform="translate(80 12)" opacity="0"><path d="M0,0H24V24H0Z" fill="none"/><path d="M11.8,15.5a1.421,1.421,0,0,1-.6-.2L6,10.1,7.1,9l4.7,4.7L16.4,9l1.1,1.1-5.2,5.2C12.2,15.5,12,15.5,11.8,15.5Z" fill="#90939f"/></g><g transform="translate(142 12)"><rect width="24" height="24" fill="none"/><path d="M2,0H14a2.006,2.006,0,0,1,2,2V14a2.006,2.006,0,0,1-2,2H2a2.006,2.006,0,0,1-2-2V2A2.006,2.006,0,0,1,2,0Z" transform="translate(4 4)" fill="none"/><path d="M2,1H14a.945.945,0,0,1,1,1V14a.945.945,0,0,1-1,1H2a.945.945,0,0,1-1-1V2A.945.945,0,0,1,2,1Z" transform="translate(4 4)" fill="none" stroke="#90939f" stroke-width="2"/></g></g><g transform="translate(235 3847)"><rect width="320" height="48" fill="#171c1e"/><path d="M179.1,30.2h-1.3V19.9h-3.6V18.7h8.6v1.2h-3.6V30.2Z" fill="#fff"/><path d="M188.1,21.5a3.083,3.083,0,0,1,1,.1l-.2,1.2a3.444,3.444,0,0,0-.9-.1,2.5,2.5,0,0,0-1.8.8,2.971,2.971,0,0,0-.7,2.1v4.6h-1.3V21.6h1.1l.1,1.6h.1a3.611,3.611,0,0,1,1.1-1.3A2.822,2.822,0,0,1,188.1,21.5Z" fill="#fff"/><path d="M194.4,30.3a3.773,3.773,0,0,1-3-1.2,4.591,4.591,0,0,1-1.1-3.2,4.826,4.826,0,0,1,1-3.3,3.424,3.424,0,0,1,2.7-1.2,3.1,3.1,0,0,1,2.5,1.1,4.1,4.1,0,0,1,.9,2.8v.8h-5.9a3.2,3.2,0,0,0,.8,2.3,2.792,2.792,0,0,0,2,.8,6.6,6.6,0,0,0,2.7-.6v1.2a9.287,9.287,0,0,1-1.3.4A4.512,4.512,0,0,1,194.4,30.3Zm-.4-7.7a1.865,1.865,0,0,0-1.6.7,3.3,3.3,0,0,0-.7,1.9h4.5a3.557,3.557,0,0,0-.5-1.9A2.193,2.193,0,0,0,194,22.6Z" fill="#fff"/><path d="M203.4,30.3a3.773,3.773,0,0,1-3-1.2,4.591,4.591,0,0,1-1.1-3.2,4.826,4.826,0,0,1,1-3.3,3.424,3.424,0,0,1,2.7-1.2,3.1,3.1,0,0,1,2.5,1.1,4.1,4.1,0,0,1,.9,2.8v.8h-5.9a3.2,3.2,0,0,0,.8,2.3,2.792,2.792,0,0,0,2,.8,6.6,6.6,0,0,0,2.7-.6v1.2a9.287,9.287,0,0,1-1.3.4A4.887,4.887,0,0,1,203.4,30.3Zm-.4-7.7a1.865,1.865,0,0,0-1.6.7,3.3,3.3,0,0,0-.7,1.9h4.5a3.557,3.557,0,0,0-.5-1.9A2.193,2.193,0,0,0,203,22.6Z" fill="#fff"/><path d="M213.1,30.2V18.8h1.3V30.2h-1.3Z" fill="#fff"/><path d="M220.1,29.3a1.7,1.7,0,0,0,.7-.1,4.331,4.331,0,0,0,.5-.1v1c-.1.1-.3.1-.6.2a1.952,1.952,0,0,1-.7.1c-1.7,0-2.5-.9-2.5-2.6V22.7h-1.2V22l1.2-.5.5-1.8h.8v2h2.5v1h-2.5v5a1.594,1.594,0,0,0,.4,1.2A1.1,1.1,0,0,0,220.1,29.3Z" fill="#fff"/><path d="M226.6,30.3a3.773,3.773,0,0,1-3-1.2,4.591,4.591,0,0,1-1.1-3.2,4.826,4.826,0,0,1,1-3.3,3.424,3.424,0,0,1,2.7-1.2,3.1,3.1,0,0,1,2.5,1.1,4.1,4.1,0,0,1,.9,2.8v.8h-5.9a3.2,3.2,0,0,0,.8,2.3,2.792,2.792,0,0,0,2,.8,6.6,6.6,0,0,0,2.7-.6v1.2a9.287,9.287,0,0,1-1.3.4A4.153,4.153,0,0,1,226.6,30.3Zm-.4-7.7a1.865,1.865,0,0,0-1.6.7,3.3,3.3,0,0,0-.7,1.9h4.5a3.557,3.557,0,0,0-.5-1.9A2.193,2.193,0,0,0,226.2,22.6Z" fill="#fff"/><path d="M242.9,30.2V24.6a2.076,2.076,0,0,0-.4-1.5,1.813,1.813,0,0,0-1.4-.5,2.139,2.139,0,0,0-1.8.7,3.281,3.281,0,0,0-.6,2.1v4.8h-1.3V24.6a2.076,2.076,0,0,0-.4-1.5,1.813,1.813,0,0,0-1.4-.5,2.139,2.139,0,0,0-1.8.7,3.845,3.845,0,0,0-.6,2.4v4.5H232V21.6h1.1l.2,1.2h.1a3.178,3.178,0,0,1,1-1,2.41,2.41,0,0,1,1.5-.4,2.52,2.52,0,0,1,2.6,1.5h.1a3.838,3.838,0,0,1,1.1-1.1,3.064,3.064,0,0,1,1.7-.4,2.918,2.918,0,0,1,2.2.7,3.286,3.286,0,0,1,.7,2.4v5.6h-1.4Z" fill="#fff"/><g transform="translate(110 36) rotate(-90)" opacity="0"><path d="M0,0H24V24H0Z" fill="none"/><path d="M11.8,15.5a1.421,1.421,0,0,1-.6-.2L6,10.1,7.1,9l4.7,4.7L16.4,9l1.1,1.1-5.2,5.2C12.2,15.5,12,15.5,11.8,15.5Z" fill="#90939f"/></g><g transform="translate(142 12)"><rect width="24" height="24" fill="none"/><path d="M6,4H18a2.006,2.006,0,0,1,2,2V18a2.006,2.006,0,0,1-2,2H6a2.006,2.006,0,0,1-2-2V6A2.006,2.006,0,0,1,6,4Z" fill="#019aeb"/><path d="M10.4,16l-4-4,1.1-1.1,2.9,2.9,6.1-6.1,1.1,1.1Z" fill="#fff"/></g></g><g transform="translate(235 3799)"><rect width="320" height="48" fill="#171c1e"/><path d="M179.1,30.2h-1.3V19.9h-3.6V18.7h8.6v1.2h-3.6V30.2Z" fill="#fff"/><path d="M188.1,21.5a3.083,3.083,0,0,1,1,.1l-.2,1.2a3.444,3.444,0,0,0-.9-.1,2.5,2.5,0,0,0-1.8.8,2.971,2.971,0,0,0-.7,2.1v4.6h-1.3V21.6h1.1l.1,1.6h.1a3.611,3.611,0,0,1,1.1-1.3A2.822,2.822,0,0,1,188.1,21.5Z" fill="#fff"/><path d="M194.4,30.3a3.773,3.773,0,0,1-3-1.2,4.591,4.591,0,0,1-1.1-3.2,4.826,4.826,0,0,1,1-3.3,3.424,3.424,0,0,1,2.7-1.2,3.1,3.1,0,0,1,2.5,1.1,4.1,4.1,0,0,1,.9,2.8v.8h-5.9a3.2,3.2,0,0,0,.8,2.3,2.792,2.792,0,0,0,2,.8,6.6,6.6,0,0,0,2.7-.6v1.2a9.287,9.287,0,0,1-1.3.4A4.512,4.512,0,0,1,194.4,30.3Zm-.4-7.7a1.865,1.865,0,0,0-1.6.7,3.3,3.3,0,0,0-.7,1.9h4.5a3.557,3.557,0,0,0-.5-1.9A2.193,2.193,0,0,0,194,22.6Z" fill="#fff"/><path d="M203.4,30.3a3.773,3.773,0,0,1-3-1.2,4.591,4.591,0,0,1-1.1-3.2,4.826,4.826,0,0,1,1-3.3,3.424,3.424,0,0,1,2.7-1.2,3.1,3.1,0,0,1,2.5,1.1,4.1,4.1,0,0,1,.9,2.8v.8h-5.9a3.2,3.2,0,0,0,.8,2.3,2.792,2.792,0,0,0,2,.8,6.6,6.6,0,0,0,2.7-.6v1.2a9.287,9.287,0,0,1-1.3.4A4.887,4.887,0,0,1,203.4,30.3Zm-.4-7.7a1.865,1.865,0,0,0-1.6.7,3.3,3.3,0,0,0-.7,1.9h4.5a3.557,3.557,0,0,0-.5-1.9A2.193,2.193,0,0,0,203,22.6Z" fill="#fff"/><path d="M213.1,30.2V18.8h1.3V30.2h-1.3Z" fill="#fff"/><path d="M220.1,29.3a1.7,1.7,0,0,0,.7-.1,4.331,4.331,0,0,0,.5-.1v1c-.1.1-.3.1-.6.2a1.952,1.952,0,0,1-.7.1c-1.7,0-2.5-.9-2.5-2.6V22.7h-1.2V22l1.2-.5.5-1.8h.8v2h2.5v1h-2.5v5a1.594,1.594,0,0,0,.4,1.2A1.1,1.1,0,0,0,220.1,29.3Z" fill="#fff"/><path d="M226.6,30.3a3.773,3.773,0,0,1-3-1.2,4.591,4.591,0,0,1-1.1-3.2,4.826,4.826,0,0,1,1-3.3,3.424,3.424,0,0,1,2.7-1.2,3.1,3.1,0,0,1,2.5,1.1,4.1,4.1,0,0,1,.9,2.8v.8h-5.9a3.2,3.2,0,0,0,.8,2.3,2.792,2.792,0,0,0,2,.8,6.6,6.6,0,0,0,2.7-.6v1.2a9.287,9.287,0,0,1-1.3.4A4.153,4.153,0,0,1,226.6,30.3Zm-.4-7.7a1.865,1.865,0,0,0-1.6.7,3.3,3.3,0,0,0-.7,1.9h4.5a3.557,3.557,0,0,0-.5-1.9A2.193,2.193,0,0,0,226.2,22.6Z" fill="#fff"/><path d="M242.9,30.2V24.6a2.076,2.076,0,0,0-.4-1.5,1.813,1.813,0,0,0-1.4-.5,2.139,2.139,0,0,0-1.8.7,3.281,3.281,0,0,0-.6,2.1v4.8h-1.3V24.6a2.076,2.076,0,0,0-.4-1.5,1.813,1.813,0,0,0-1.4-.5,2.139,2.139,0,0,0-1.8.7,3.845,3.845,0,0,0-.6,2.4v4.5H232V21.6h1.1l.2,1.2h.1a3.178,3.178,0,0,1,1-1,2.41,2.41,0,0,1,1.5-.4,2.52,2.52,0,0,1,2.6,1.5h.1a3.838,3.838,0,0,1,1.1-1.1,3.064,3.064,0,0,1,1.7-.4,2.918,2.918,0,0,1,2.2.7,3.286,3.286,0,0,1,.7,2.4v5.6h-1.4Z" fill="#fff"/><g transform="translate(80 12)" opacity="0"><path d="M0,0H24V24H0Z" fill="none"/><path d="M11.8,15.5a1.421,1.421,0,0,1-.6-.2L6,10.1,7.1,9l4.7,4.7L16.4,9l1.1,1.1-5.2,5.2C12.2,15.5,12,15.5,11.8,15.5Z" fill="#90939f"/></g><g transform="translate(142 12)"><rect width="24" height="24" fill="none"/><path d="M2,0H14a2.006,2.006,0,0,1,2,2V14a2.006,2.006,0,0,1-2,2H2a2.006,2.006,0,0,1-2-2V2A2.006,2.006,0,0,1,2,0Z" transform="translate(4 4)" fill="none"/><path d="M2,1H14a.945.945,0,0,1,1,1V14a.945.945,0,0,1-1,1H2a.945.945,0,0,1-1-1V2A.945.945,0,0,1,2,1Z" transform="translate(4 4)" fill="none" stroke="#90939f" stroke-width="2"/></g></g><g transform="translate(235 3751)"><rect width="320" height="48" fill="#171c1e"/><path d="M149.1,30.2h-1.3V19.9h-3.6V18.7h8.6v1.2h-3.6V30.2Z" fill="#fff"/><path d="M158.1,21.5a3.083,3.083,0,0,1,1,.1l-.2,1.2a3.444,3.444,0,0,0-.9-.1,2.5,2.5,0,0,0-1.8.8,2.971,2.971,0,0,0-.7,2.1v4.6h-1.3V21.6h1.1l.1,1.6h.1a3.611,3.611,0,0,1,1.1-1.3A2.822,2.822,0,0,1,158.1,21.5Z" fill="#fff"/><path d="M164.4,30.3a3.773,3.773,0,0,1-3-1.2,4.591,4.591,0,0,1-1.1-3.2,4.826,4.826,0,0,1,1-3.3,3.424,3.424,0,0,1,2.7-1.2,3.1,3.1,0,0,1,2.5,1.1,4.1,4.1,0,0,1,.9,2.8v.8h-5.9a3.2,3.2,0,0,0,.8,2.3,2.792,2.792,0,0,0,2,.8,6.6,6.6,0,0,0,2.7-.6v1.2a9.287,9.287,0,0,1-1.3.4A4.512,4.512,0,0,1,164.4,30.3Zm-.4-7.7a1.865,1.865,0,0,0-1.6.7,3.3,3.3,0,0,0-.7,1.9h4.5a3.557,3.557,0,0,0-.5-1.9A2.193,2.193,0,0,0,164,22.6Z" fill="#fff"/><path d="M173.4,30.3a3.773,3.773,0,0,1-3-1.2,4.591,4.591,0,0,1-1.1-3.2,4.826,4.826,0,0,1,1-3.3,3.424,3.424,0,0,1,2.7-1.2,3.1,3.1,0,0,1,2.5,1.1,4.1,4.1,0,0,1,.9,2.8v.8h-5.9a3.2,3.2,0,0,0,.8,2.3,2.792,2.792,0,0,0,2,.8,6.6,6.6,0,0,0,2.7-.6v1.2a9.287,9.287,0,0,1-1.3.4A4.887,4.887,0,0,1,173.4,30.3Zm-.4-7.7a1.865,1.865,0,0,0-1.6.7,3.3,3.3,0,0,0-.7,1.9h4.5a3.557,3.557,0,0,0-.5-1.9A2.193,2.193,0,0,0,173,22.6Z" fill="#fff"/><path d="M183.1,30.2V18.8h1.3V30.2h-1.3Z" fill="#fff"/><path d="M190.1,29.3a1.7,1.7,0,0,0,.7-.1,4.331,4.331,0,0,0,.5-.1v1c-.1.1-.3.1-.6.2a1.952,1.952,0,0,1-.7.1c-1.7,0-2.5-.9-2.5-2.6V22.7h-1.2V22l1.2-.5.5-1.8h.8v2h2.5v1h-2.5v5a1.594,1.594,0,0,0,.4,1.2A1.1,1.1,0,0,0,190.1,29.3Z" fill="#fff"/><path d="M196.6,30.3a3.773,3.773,0,0,1-3-1.2,4.591,4.591,0,0,1-1.1-3.2,4.826,4.826,0,0,1,1-3.3,3.424,3.424,0,0,1,2.7-1.2,3.1,3.1,0,0,1,2.5,1.1,4.1,4.1,0,0,1,.9,2.8v.8h-5.9a3.2,3.2,0,0,0,.8,2.3,2.792,2.792,0,0,0,2,.8,6.6,6.6,0,0,0,2.7-.6v1.2a9.287,9.287,0,0,1-1.3.4A4.153,4.153,0,0,1,196.6,30.3Zm-.4-7.7a1.865,1.865,0,0,0-1.6.7,3.3,3.3,0,0,0-.7,1.9h4.5a3.557,3.557,0,0,0-.5-1.9A2.193,2.193,0,0,0,196.2,22.6Z" fill="#fff"/><path d="M212.9,30.2V24.6a2.076,2.076,0,0,0-.4-1.5,1.813,1.813,0,0,0-1.4-.5,2.139,2.139,0,0,0-1.8.7,3.281,3.281,0,0,0-.6,2.1v4.8h-1.3V24.6a2.076,2.076,0,0,0-.4-1.5,1.813,1.813,0,0,0-1.4-.5,2.139,2.139,0,0,0-1.8.7,3.845,3.845,0,0,0-.6,2.4v4.5H202V21.6h1.1l.2,1.2h.1a3.178,3.178,0,0,1,1-1,2.41,2.41,0,0,1,1.5-.4,2.52,2.52,0,0,1,2.6,1.5h.1a3.838,3.838,0,0,1,1.1-1.1,3.064,3.064,0,0,1,1.7-.4,2.918,2.918,0,0,1,2.2.7,3.286,3.286,0,0,1,.7,2.4v5.6h-1.4Z" fill="#fff"/><g transform="translate(80 12)"><path d="M0,0H24V24H0Z" fill="none"/><path d="M11.8,15.5a1.421,1.421,0,0,1-.6-.2L6,10.1,7.1,9l4.7,4.7L16.4,9l1.1,1.1-5.2,5.2C12.2,15.5,12,15.5,11.8,15.5Z" fill="#90939f"/></g><g transform="translate(112 12)"><rect width="24" height="24" fill="none"/><path d="M2,0H14a2.006,2.006,0,0,1,2,2V14a2.006,2.006,0,0,1-2,2H2a2.006,2.006,0,0,1-2-2V2A2.006,2.006,0,0,1,2,0Z" transform="translate(4 4)" fill="none"/><path d="M2,1H14a.945.945,0,0,1,1,1V14a.945.945,0,0,1-1,1H2a.945.945,0,0,1-1-1V2A.945.945,0,0,1,2,1Z" transform="translate(4 4)" fill="none" stroke="#90939f" stroke-width="2"/></g></g><g transform="translate(235 3703)"><rect width="320" height="48" fill="#171c1e"/><path d="M117.5,30.2h-1.9V20.4h-3.4V18.8h8.6v1.6h-3.4v9.8Z" fill="#fff"/><path d="M126.8,21.4a2.22,2.22,0,0,1,.9.1l-.2,1.7a2.2,2.2,0,0,0-.8-.1,2.41,2.41,0,0,0-1.8.7,2.489,2.489,0,0,0-.7,1.9v4.5h-1.8V21.6h1.4l.2,1.5h.1a4.263,4.263,0,0,1,1.1-1.2A2.767,2.767,0,0,1,126.8,21.4Z" fill="#fff"/><path d="M133,30.3a4.378,4.378,0,0,1-3.2-1.2,4.316,4.316,0,0,1-1.1-3.2,4.859,4.859,0,0,1,1.1-3.3,3.7,3.7,0,0,1,2.9-1.2,3.62,3.62,0,0,1,2.7,1,3.8,3.8,0,0,1,1,2.9v1h-5.8a2.738,2.738,0,0,0,.7,1.9,2.139,2.139,0,0,0,1.8.7,6.149,6.149,0,0,0,1.4-.1,12.129,12.129,0,0,0,1.4-.5v1.5a5.782,5.782,0,0,1-1.4.5Zm-.3-7.5a1.678,1.678,0,0,0-1.4.6,2.578,2.578,0,0,0-.6,1.6h3.9a2.348,2.348,0,0,0-.5-1.6A1.816,1.816,0,0,0,132.7,22.8Z" fill="#fff"/><path d="M142.3,30.3a4.378,4.378,0,0,1-3.2-1.2,4.316,4.316,0,0,1-1.1-3.2,4.859,4.859,0,0,1,1.1-3.3,3.7,3.7,0,0,1,2.9-1.2,3.62,3.62,0,0,1,2.7,1,3.8,3.8,0,0,1,1,2.9v1h-5.8a2.738,2.738,0,0,0,.7,1.9,2.139,2.139,0,0,0,1.8.7,6.149,6.149,0,0,0,1.4-.1,12.129,12.129,0,0,0,1.4-.5v1.5a5.782,5.782,0,0,1-1.4.5Zm-.4-7.5a1.678,1.678,0,0,0-1.4.6,2.578,2.578,0,0,0-.6,1.6h3.9a2.348,2.348,0,0,0-.5-1.6A1.678,1.678,0,0,0,141.9,22.8Z" fill="#fff"/><path d="M152.1,30.2V18.8H154V30.2h-1.9Z" fill="#fff"/><path d="M160,28.9a5.853,5.853,0,0,0,1.3-.2V30a1.884,1.884,0,0,1-.8.2c-.3,0-.7.1-1,.1-1.7,0-2.6-.9-2.6-2.8V22.8h-1.2V22l1.3-.7.6-1.8h1.1v1.9h2.5v1.4h-2.5v4.6a1.493,1.493,0,0,0,.3,1A1.107,1.107,0,0,0,160,28.9Z" fill="#fff"/><path d="M166.8,30.3a4.378,4.378,0,0,1-3.2-1.2,4.316,4.316,0,0,1-1.1-3.2,4.859,4.859,0,0,1,1.1-3.3,3.7,3.7,0,0,1,2.9-1.2,3.62,3.62,0,0,1,2.7,1,3.8,3.8,0,0,1,1,2.9v1h-5.8a2.738,2.738,0,0,0,.7,1.9,2.139,2.139,0,0,0,1.8.7,6.149,6.149,0,0,0,1.4-.1,12.129,12.129,0,0,0,1.4-.5v1.5a5.782,5.782,0,0,1-1.4.5Zm-.3-7.5a1.678,1.678,0,0,0-1.4.6,2.578,2.578,0,0,0-.6,1.6h3.9a2.348,2.348,0,0,0-.5-1.6A1.816,1.816,0,0,0,166.5,22.8Z" fill="#fff"/><path d="M179.5,30.2h-1.8V24.9a2.076,2.076,0,0,0-.4-1.5,1.5,1.5,0,0,0-1.2-.5,1.865,1.865,0,0,0-1.6.7,4.352,4.352,0,0,0-.5,2.3v4.3h-1.8V21.6h1.4l.3,1.1h.1a3.178,3.178,0,0,1,1-1,4.013,4.013,0,0,1,1.5-.3,2.6,2.6,0,0,1,2.6,1.4h.1a2.66,2.66,0,0,1,1.1-1,4.193,4.193,0,0,1,1.6-.4,3.2,3.2,0,0,1,2.3.8,3.286,3.286,0,0,1,.7,2.4v5.6h-1.8V24.9a2.076,2.076,0,0,0-.4-1.5,1.5,1.5,0,0,0-1.2-.5,1.865,1.865,0,0,0-1.6.7,3.576,3.576,0,0,0-.5,2.1v4.5Z" fill="#fff"/><g transform="translate(48 12)"><path d="M0,0H24V24H0Z" fill="none"/><path d="M11.8,15.5a1.421,1.421,0,0,1-.6-.2L6,10.1,7.1,9l4.7,4.7L16.4,9l1.1,1.1-5.2,5.2C12.2,15.5,12,15.5,11.8,15.5Z" fill="#90939f"/></g><g transform="translate(80 12)"><rect width="24" height="24" fill="none"/><path d="M2,0H14a2.006,2.006,0,0,1,2,2V14a2.006,2.006,0,0,1-2,2H2a2.006,2.006,0,0,1-2-2V2A2.006,2.006,0,0,1,2,0Z" transform="translate(4 4)" fill="none"/><path d="M2,1H14a.945.945,0,0,1,1,1V14a.945.945,0,0,1-1,1H2a.945.945,0,0,1-1-1V2A.945.945,0,0,1,2,1Z" transform="translate(4 4)" fill="none" stroke="#90939f" stroke-width="2"/></g></g><g transform="translate(235 3655)"><rect width="317" height="48" fill="rgba(1,154,235,0.3)" stroke="#019aeb" stroke-width="1"/><path d="M85.8,30.2H83.4V20.8H80.3v-2h8.6v2H85.8Z" fill="#fff"/><path d="M95.4,21.3a1.949,1.949,0,0,1,.8.1L96,23.6a1.483,1.483,0,0,0-.7-.1,2.445,2.445,0,0,0-1.8.6,2.111,2.111,0,0,0-.6,1.6v4.4H90.5V21.4h1.8l.4,1.5h.1a3.179,3.179,0,0,1,1.1-1.2A2.6,2.6,0,0,1,95.4,21.3Z" fill="#fff"/><path d="M101.7,30.3a4.152,4.152,0,0,1-4.5-4.5,4.954,4.954,0,0,1,1.1-3.4,3.773,3.773,0,0,1,3-1.2,4,4,0,0,1,2.9,1.1,3.945,3.945,0,0,1,1,2.9v1.2H99.6a2.065,2.065,0,0,0,2.2,2.2,7.719,7.719,0,0,0,1.5-.2,8.8,8.8,0,0,0,1.5-.5v1.8a6.943,6.943,0,0,1-1.3.5A9.722,9.722,0,0,1,101.7,30.3Zm-.3-7.3a1.656,1.656,0,0,0-1.2.5,1.978,1.978,0,0,0-.5,1.4H103a2.168,2.168,0,0,0-.5-1.4A1.173,1.173,0,0,0,101.4,23Z" fill="#fff"/><path d="M111.2,30.3a4.152,4.152,0,0,1-4.5-4.5,4.954,4.954,0,0,1,1.1-3.4,3.773,3.773,0,0,1,3-1.2,4,4,0,0,1,2.9,1.1,3.945,3.945,0,0,1,1,2.9v1.2h-5.6a2.065,2.065,0,0,0,2.2,2.2,7.719,7.719,0,0,0,1.5-.2,8.8,8.8,0,0,0,1.5-.5v1.8a6.943,6.943,0,0,1-1.3.5A10.283,10.283,0,0,1,111.2,30.3Zm-.3-7.3a1.656,1.656,0,0,0-1.2.5,1.978,1.978,0,0,0-.5,1.4h3.3a2.168,2.168,0,0,0-.5-1.4A1.173,1.173,0,0,0,110.9,23Z" fill="#fff"/><path d="M121,30.2V18.8h2.4V30.2H121Z" fill="#fff"/><path d="M129.8,28.4a4.936,4.936,0,0,0,1.5-.3v1.8a4.813,4.813,0,0,1-2.2.4,2.674,2.674,0,0,1-2.1-.7,3.393,3.393,0,0,1-.7-2.2V23.2h-1.1v-1l1.3-.8.7-1.8h1.5v1.9h2.4v1.8h-2.4v4.2a1.136,1.136,0,0,0,.3.8A2.2,2.2,0,0,0,129.8,28.4Z" fill="#fff"/><path d="M137,30.3a4.152,4.152,0,0,1-4.5-4.5,4.954,4.954,0,0,1,1.1-3.4,3.773,3.773,0,0,1,3-1.2,4,4,0,0,1,2.9,1.1,3.945,3.945,0,0,1,1,2.9v1.2H135a2.065,2.065,0,0,0,2.2,2.2,7.719,7.719,0,0,0,1.5-.2,8.8,8.8,0,0,0,1.5-.5v1.8a6.943,6.943,0,0,1-1.3.5A11.483,11.483,0,0,1,137,30.3Zm-.3-7.3a1.656,1.656,0,0,0-1.2.5,1.978,1.978,0,0,0-.5,1.4h3.3a2.168,2.168,0,0,0-.5-1.4A1.173,1.173,0,0,0,136.7,23Z" fill="#fff"/><path d="M150.4,30.2H148V25.1a2.649,2.649,0,0,0-.3-1.4,1.1,1.1,0,0,0-1-.5,1.269,1.269,0,0,0-1.3.7,4.087,4.087,0,0,0-.4,2.2v4.1h-2.4V21.5h1.8l.3,1.1h.1a2.189,2.189,0,0,1,1-.9,3.653,3.653,0,0,1,1.5-.3,2.787,2.787,0,0,1,2.7,1.3h.2a2.189,2.189,0,0,1,1-.9,4.013,4.013,0,0,1,1.5-.3,2.947,2.947,0,0,1,2.2.8,3.293,3.293,0,0,1,.8,2.4v5.7h-2.4V25.3a2.649,2.649,0,0,0-.3-1.4,1.1,1.1,0,0,0-1-.5,1.486,1.486,0,0,0-1.3.6,3.524,3.524,0,0,0-.4,2v4.2Z" fill="#fff"/><g transform="translate(16 12)"><path d="M0,0H24V24H0Z" fill="none"/><path d="M11.8,15.5a1.421,1.421,0,0,1-.6-.2L6,10.1,7.1,9l4.7,4.7L16.4,9l1.1,1.1-5.2,5.2C12.2,15.5,12,15.5,11.8,15.5Z" fill="#90939f"/></g><g transform="translate(48 12)"><rect width="24" height="24" fill="none"/><path d="M6,4H18a2.006,2.006,0,0,1,2,2V18a2.006,2.006,0,0,1-2,2H6a2.006,2.006,0,0,1-2-2V6A2.006,2.006,0,0,1,6,4Z" fill="#019aeb"/><path d="M10.4,16l-4-4,1.1-1.1,2.9,2.9,6.1-6.1,1.1,1.1Z" fill="#fff"/></g></g><g transform="translate(235 3607)"><rect width="320" height="48" fill="#171c1e"/><path d="M85.1,30.2H83.8V19.9H80.2V18.7h8.6v1.2H85.2V30.2Z" fill="#fff"/><path d="M94.1,21.5a3.083,3.083,0,0,1,1,.1L95,22.8a3.445,3.445,0,0,0-.9-.1,2.5,2.5,0,0,0-1.8.8,2.971,2.971,0,0,0-.7,2.1v4.6H90.3V21.6h1.1l.1,1.6h.1a3.611,3.611,0,0,1,1.1-1.3A2.3,2.3,0,0,1,94.1,21.5Z" fill="#fff"/><path d="M100.4,30.3a3.773,3.773,0,0,1-3-1.2,4.591,4.591,0,0,1-1.1-3.2,4.826,4.826,0,0,1,1-3.3,3.424,3.424,0,0,1,2.7-1.2,3.1,3.1,0,0,1,2.5,1.1,4.1,4.1,0,0,1,.9,2.8v.8H97.5a3.2,3.2,0,0,0,.8,2.3,2.792,2.792,0,0,0,2,.8,6.6,6.6,0,0,0,2.7-.6v1.2a9.288,9.288,0,0,1-1.3.4A4.512,4.512,0,0,1,100.4,30.3Zm-.4-7.7a1.865,1.865,0,0,0-1.6.7,3.3,3.3,0,0,0-.7,1.9h4.5a3.557,3.557,0,0,0-.5-1.9A2.193,2.193,0,0,0,100,22.6Z" fill="#fff"/><path d="M109.4,30.3a3.773,3.773,0,0,1-3-1.2,4.591,4.591,0,0,1-1.1-3.2,4.826,4.826,0,0,1,1-3.3,3.424,3.424,0,0,1,2.7-1.2,3.1,3.1,0,0,1,2.5,1.1,4.1,4.1,0,0,1,.9,2.8v.8h-5.9a3.2,3.2,0,0,0,.8,2.3,2.792,2.792,0,0,0,2,.8,6.6,6.6,0,0,0,2.7-.6v1.2a9.288,9.288,0,0,1-1.3.4A4.888,4.888,0,0,1,109.4,30.3Zm-.4-7.7a1.865,1.865,0,0,0-1.6.7,3.3,3.3,0,0,0-.7,1.9h4.5a3.557,3.557,0,0,0-.5-1.9A2.193,2.193,0,0,0,109,22.6Z" fill="#fff"/><path d="M119.1,30.2V18.8h1.3V30.2h-1.3Z" fill="#fff"/><path d="M126.1,29.3a1.7,1.7,0,0,0,.7-.1,4.331,4.331,0,0,0,.5-.1v1c-.1.1-.3.1-.6.2a1.952,1.952,0,0,1-.7.1c-1.7,0-2.5-.9-2.5-2.6V22.7h-1.2V22l1.2-.5.5-1.8h.8v2h2.5v1h-2.5v5a1.594,1.594,0,0,0,.4,1.2A1.1,1.1,0,0,0,126.1,29.3Z" fill="#fff"/><path d="M132.6,30.3a3.773,3.773,0,0,1-3-1.2,4.591,4.591,0,0,1-1.1-3.2,4.826,4.826,0,0,1,1-3.3,3.424,3.424,0,0,1,2.7-1.2,3.1,3.1,0,0,1,2.5,1.1,4.1,4.1,0,0,1,.9,2.8v.8h-5.9a3.2,3.2,0,0,0,.8,2.3,2.792,2.792,0,0,0,2,.8,6.6,6.6,0,0,0,2.7-.6v1.2a9.287,9.287,0,0,1-1.3.4A4.153,4.153,0,0,1,132.6,30.3Zm-.4-7.7a1.865,1.865,0,0,0-1.6.7,3.3,3.3,0,0,0-.7,1.9h4.5a3.557,3.557,0,0,0-.5-1.9A2.193,2.193,0,0,0,132.2,22.6Z" fill="#fff"/><path d="M148.9,30.2V24.6a2.076,2.076,0,0,0-.4-1.5,1.813,1.813,0,0,0-1.4-.5,2.139,2.139,0,0,0-1.8.7,3.281,3.281,0,0,0-.6,2.1v4.8h-1.3V24.6a2.076,2.076,0,0,0-.4-1.5,1.813,1.813,0,0,0-1.4-.5,2.139,2.139,0,0,0-1.8.7,3.845,3.845,0,0,0-.6,2.4v4.5H138V21.6h1.1l.2,1.2h.1a3.178,3.178,0,0,1,1-1,2.41,2.41,0,0,1,1.5-.4,2.52,2.52,0,0,1,2.6,1.5h.1a3.838,3.838,0,0,1,1.1-1.1,3.064,3.064,0,0,1,1.7-.4,2.918,2.918,0,0,1,2.2.7,3.286,3.286,0,0,1,.7,2.4v5.6h-1.4Z" fill="#fff"/><g transform="translate(16 36) rotate(-90)"><path d="M0,0H24V24H0Z" fill="none"/><path d="M11.8,15.5a1.421,1.421,0,0,1-.6-.2L6,10.1,7.1,9l4.7,4.7L16.4,9l1.1,1.1-5.2,5.2C12.2,15.5,12,15.5,11.8,15.5Z" fill="#90939f"/></g><g transform="translate(48 12)"><rect width="24" height="24" fill="none"/><path d="M2,0H14a2.006,2.006,0,0,1,2,2V14a2.006,2.006,0,0,1-2,2H2a2.006,2.006,0,0,1-2-2V2A2.006,2.006,0,0,1,2,0Z" transform="translate(4 4)" fill="none"/><path d="M2,1H14a.945.945,0,0,1,1,1V14a.945.945,0,0,1-1,1H2a.945.945,0,0,1-1-1V2A.945.945,0,0,1,2,1Z" transform="translate(4 4)" fill="none" stroke="#90939f" stroke-width="2"/></g></g><g transform="translate(235 3559)"><rect width="320" height="48" fill="#171c1e"/><line x2="320" transform="translate(0 0.5)" fill="none" stroke="#464b52" stroke-width="1"/><path d="M85.1,30.2H83.8V19.9H80.2V18.7h8.6v1.2H85.2V30.2Z" fill="#fff"/><path d="M94.1,21.5a3.083,3.083,0,0,1,1,.1L95,22.8a3.445,3.445,0,0,0-.9-.1,2.5,2.5,0,0,0-1.8.8,2.971,2.971,0,0,0-.7,2.1v4.6H90.3V21.6h1.1l.1,1.6h.1a3.611,3.611,0,0,1,1.1-1.3A2.3,2.3,0,0,1,94.1,21.5Z" fill="#fff"/><path d="M100.4,30.3a3.773,3.773,0,0,1-3-1.2,4.591,4.591,0,0,1-1.1-3.2,4.826,4.826,0,0,1,1-3.3,3.424,3.424,0,0,1,2.7-1.2,3.1,3.1,0,0,1,2.5,1.1,4.1,4.1,0,0,1,.9,2.8v.8H97.5a3.2,3.2,0,0,0,.8,2.3,2.792,2.792,0,0,0,2,.8,6.6,6.6,0,0,0,2.7-.6v1.2a9.288,9.288,0,0,1-1.3.4A4.512,4.512,0,0,1,100.4,30.3Zm-.4-7.7a1.865,1.865,0,0,0-1.6.7,3.3,3.3,0,0,0-.7,1.9h4.5a3.557,3.557,0,0,0-.5-1.9A2.193,2.193,0,0,0,100,22.6Z" fill="#fff"/><path d="M109.4,30.3a3.773,3.773,0,0,1-3-1.2,4.591,4.591,0,0,1-1.1-3.2,4.826,4.826,0,0,1,1-3.3,3.424,3.424,0,0,1,2.7-1.2,3.1,3.1,0,0,1,2.5,1.1,4.1,4.1,0,0,1,.9,2.8v.8h-5.9a3.2,3.2,0,0,0,.8,2.3,2.792,2.792,0,0,0,2,.8,6.6,6.6,0,0,0,2.7-.6v1.2a9.288,9.288,0,0,1-1.3.4A4.888,4.888,0,0,1,109.4,30.3Zm-.4-7.7a1.865,1.865,0,0,0-1.6.7,3.3,3.3,0,0,0-.7,1.9h4.5a3.557,3.557,0,0,0-.5-1.9A2.193,2.193,0,0,0,109,22.6Z" fill="#fff"/><path d="M119.1,30.2V18.8h1.3V30.2h-1.3Z" fill="#fff"/><path d="M126.1,29.3a1.7,1.7,0,0,0,.7-.1,4.331,4.331,0,0,0,.5-.1v1c-.1.1-.3.1-.6.2a1.952,1.952,0,0,1-.7.1c-1.7,0-2.5-.9-2.5-2.6V22.7h-1.2V22l1.2-.5.5-1.8h.8v2h2.5v1h-2.5v5a1.594,1.594,0,0,0,.4,1.2A1.1,1.1,0,0,0,126.1,29.3Z" fill="#fff"/><path d="M132.6,30.3a3.773,3.773,0,0,1-3-1.2,4.591,4.591,0,0,1-1.1-3.2,4.826,4.826,0,0,1,1-3.3,3.424,3.424,0,0,1,2.7-1.2,3.1,3.1,0,0,1,2.5,1.1,4.1,4.1,0,0,1,.9,2.8v.8h-5.9a3.2,3.2,0,0,0,.8,2.3,2.792,2.792,0,0,0,2,.8,6.6,6.6,0,0,0,2.7-.6v1.2a9.287,9.287,0,0,1-1.3.4A4.153,4.153,0,0,1,132.6,30.3Zm-.4-7.7a1.865,1.865,0,0,0-1.6.7,3.3,3.3,0,0,0-.7,1.9h4.5a3.557,3.557,0,0,0-.5-1.9A2.193,2.193,0,0,0,132.2,22.6Z" fill="#fff"/><path d="M148.9,30.2V24.6a2.076,2.076,0,0,0-.4-1.5,1.813,1.813,0,0,0-1.4-.5,2.139,2.139,0,0,0-1.8.7,3.281,3.281,0,0,0-.6,2.1v4.8h-1.3V24.6a2.076,2.076,0,0,0-.4-1.5,1.813,1.813,0,0,0-1.4-.5,2.139,2.139,0,0,0-1.8.7,3.845,3.845,0,0,0-.6,2.4v4.5H138V21.6h1.1l.2,1.2h.1a3.178,3.178,0,0,1,1-1,2.41,2.41,0,0,1,1.5-.4,2.52,2.52,0,0,1,2.6,1.5h.1a3.838,3.838,0,0,1,1.1-1.1,3.064,3.064,0,0,1,1.7-.4,2.918,2.918,0,0,1,2.2.7,3.286,3.286,0,0,1,.7,2.4v5.6h-1.4Z" fill="#fff"/><g transform="translate(16 36) rotate(-90)"><path d="M0,0H24V24H0Z" fill="none"/><path d="M11.8,15.5a1.421,1.421,0,0,1-.6-.2L6,10.1,7.1,9l4.7,4.7L16.4,9l1.1,1.1-5.2,5.2C12.2,15.5,12,15.5,11.8,15.5Z" fill="#90939f"/></g><g transform="translate(48 12)"><rect width="24" height="24" fill="none"/><path d="M2,0H14a2.006,2.006,0,0,1,2,2V14a2.006,2.006,0,0,1-2,2H2a2.006,2.006,0,0,1-2-2V2A2.006,2.006,0,0,1,2,0Z" transform="translate(4 4)" fill="none"/><path d="M2,1H14a.945.945,0,0,1,1,1V14a.945.945,0,0,1-1,1H2a.945.945,0,0,1-1-1V2A.945.945,0,0,1,2,1Z" transform="translate(4 4)" fill="none" stroke="#90939f" stroke-width="2"/></g></g></g><g transform="translate(707 5739)"><rect width="8" height="480" transform="translate(336 16)" fill="#252a2e"/><path d="M340,128h0a4.012,4.012,0,0,1,4,4v88a4.012,4.012,0,0,1-4,4h0a4.012,4.012,0,0,1-4-4V132A4.012,4.012,0,0,1,340,128Z" fill="#585c65"/></g><g transform="translate(116 4293)"><rect width="321" height="80" transform="translate(614 1382)" fill="#171c1e"/><g transform="translate(863 1430)"><path d="M0,0H24V24H0Z" fill="none"/><path d="M11,18a2,2,0,1,1-2-2A2.006,2.006,0,0,1,11,18ZM9,10a2,2,0,1,0,2,2A2.006,2.006,0,0,0,9,10ZM9,4a2,2,0,1,0,2,2A2.006,2.006,0,0,0,9,4Zm6,4a2,2,0,1,0-2-2A2.006,2.006,0,0,0,15,8Zm0,2a2,2,0,1,0,2,2A2.006,2.006,0,0,0,15,10Zm0,6a2,2,0,1,0,2,2A2.006,2.006,0,0,0,15,16Z" fill="#fff"/></g><g transform="translate(622 1390)"><path d="M2,0H303a2.006,2.006,0,0,1,2,2V32H0V2A2.006,2.006,0,0,1,2,0Z" fill="#171c1e"/><path d="M2,.5H303A1.538,1.538,0,0,1,304.5,2V31.5H.5V2A1.538,1.538,0,0,1,2,.5Z" fill="none" stroke="#464b52" stroke-width="1"/><rect width="305" height="1" transform="translate(0 31)" fill="#6a6e79"/><g transform="translate(8 6)"><path d="M0,0H20V20H0Z" fill="none"/><path d="M12.6,11.5H12l-.2-.2a5.559,5.559,0,1,0-.6.5l.2.2v.6l3.9,3.8,1.1-1.1ZM8,11.5A3.543,3.543,0,0,1,4.5,8,3.543,3.543,0,0,1,8,4.5,3.543,3.543,0,0,1,11.5,8h0A3.543,3.543,0,0,1,8,11.5Z" fill="#6a6e79"/></g><path d="M42,17.7a2.342,2.342,0,0,1-.8,1.8,3.041,3.041,0,0,1-2.2.6,4.744,4.744,0,0,1-2.3-.4v-1c.4.1.7.3,1.1.4a4.869,4.869,0,0,0,1.2.1,2.076,2.076,0,0,0,1.5-.4,1.408,1.408,0,0,0,.3-1.8,1.024,1.024,0,0,0-.6-.5c-.3-.1-.7-.3-1.2-.5a3.8,3.8,0,0,1-1.7-1,2.456,2.456,0,0,1-.5-1.5,1.865,1.865,0,0,1,.7-1.6,3.173,3.173,0,0,1,2-.6,5.555,5.555,0,0,1,2.3.5l-.3.9a5.222,5.222,0,0,0-2.1-.4,2.133,2.133,0,0,0-1.2.3.975.975,0,0,0-.4.9,1.445,1.445,0,0,0,.2.7,1.024,1.024,0,0,0,.6.5c.3.1.7.3,1.2.5a6.487,6.487,0,0,1,1.9,1C42.1,16.5,42,17.1,42,17.7Z" fill="#b7b9c3"/><path d="M46.3,20.1a2.792,2.792,0,0,1-2.2-.9,3.649,3.649,0,0,1-.8-2.4,3.936,3.936,0,0,1,.8-2.5,2.78,2.78,0,0,1,4-.1,2.817,2.817,0,0,1,.7,2.1V17H44.4a2.2,2.2,0,0,0,.6,1.7,2.035,2.035,0,0,0,1.5.6,5.222,5.222,0,0,0,2.1-.4v.9a3.81,3.81,0,0,1-1,.3Zm-.2-5.8a1.656,1.656,0,0,0-1.2.5,1.978,1.978,0,0,0-.5,1.4h3.4a1.955,1.955,0,0,0-.4-1.4A1.9,1.9,0,0,0,46.1,14.3Z" fill="#b7b9c3"/><path d="M54.3,20l-.2-.9h0a1.891,1.891,0,0,1-1,.8,4.3,4.3,0,0,1-1.2.2,2.456,2.456,0,0,1-1.5-.5,1.624,1.624,0,0,1-.5-1.4c0-1.3,1-2,3.1-2h1.1v-.4a1.609,1.609,0,0,0-.3-1.1,1.528,1.528,0,0,0-1-.4,4.925,4.925,0,0,0-1.8.5l-.4-.8a4.179,4.179,0,0,1,1-.4,4.1,4.1,0,0,1,1.1-.1,2.648,2.648,0,0,1,1.7.5,1.969,1.969,0,0,1,.6,1.6V20Zm-2.2-.7A1.736,1.736,0,0,0,54,17.4v-.6H53a2.674,2.674,0,0,0-1.7.4,1.016,1.016,0,0,0-.5,1,.984.984,0,0,0,.3.8A1.493,1.493,0,0,0,52.1,19.3Z" fill="#b7b9c3"/><path d="M60,13.5a2.2,2.2,0,0,1,.8.1l-.1.9a1.952,1.952,0,0,0-.7-.1,1.612,1.612,0,0,0-1.3.6,2.637,2.637,0,0,0-.7,1.6V20H57V13.6h.8l.1,1.2h0a2.836,2.836,0,0,1,.9-1A1.8,1.8,0,0,1,60,13.5Z" fill="#b7b9c3"/><path d="M64.5,20.1a2.94,2.94,0,0,1-2.2-.9,3.188,3.188,0,0,1-.8-2.4,3.742,3.742,0,0,1,.8-2.5,3.345,3.345,0,0,1,3.1-.8c.3.1.6.1.7.2l-.3.8a1.445,1.445,0,0,0-.7-.2c-.3,0-.5-.1-.7-.1-1.3,0-2,.8-2,2.5a2.969,2.969,0,0,0,.5,1.8,1.678,1.678,0,0,0,1.4.6,4.529,4.529,0,0,0,1.6-.3v.9C65.7,20,65.1,20.1,64.5,20.1Z" fill="#b7b9c3"/><path d="M72,20V15.8a1.594,1.594,0,0,0-.4-1.2,1.366,1.366,0,0,0-1.1-.4,1.755,1.755,0,0,0-1.5.6,2.969,2.969,0,0,0-.5,1.8V20h-1V10.9h1v3.6h.1a1.779,1.779,0,0,1,.8-.7,4.22,4.22,0,0,1,1.2-.3,2.445,2.445,0,0,1,1.8.6,2.445,2.445,0,0,1,.6,1.8V20Z" fill="#b7b9c3"/><g transform="translate(277 8)" opacity="0"><rect width="16" height="16" fill="none"/><path d="M12,4.8,11.2,4,8,7.2,4.8,4,4,4.8,7.2,8,4,11.2l.8.8L8,8.8,11.2,12l.8-.8L8.8,8Z" fill="#6a6e79"/></g></g><g transform="translate(903 1430)"><path d="M0,0H24V24H0Z" fill="none"/><path d="M7.4,18.6,8.8,20,12,16.8,15.2,20l1.4-1.4L12,14ZM16.6,5.4,15.2,4,12,7.2,8.8,4,7.4,5.4,12,10Z" fill="#fff"/></g><g transform="translate(825.026 1430)"><path d="M0,0H24V24H0Z" fill="none"/><path d="M19,13H13v6H11V13H5V11h6V5h2v6h6Z" fill="#fff"/></g><g transform="translate(742 1426)"><path d="M2,0H30a2.006,2.006,0,0,1,2,2V30a2.006,2.006,0,0,1-2,2H2a2.006,2.006,0,0,1-2-2V2A2.006,2.006,0,0,1,2,0Z" fill="#6a6e79"/></g><g transform="translate(707.789 1430)"><path d="M0,0H24V24H0Z" fill="none"/><path d="M6,19a2.006,2.006,0,0,0,2,2h8a2.006,2.006,0,0,0,2-2V7H6ZM19,4H15.5l-1-1h-5l-1,1H5V6H19Z" fill="#fff"/></g><g transform="translate(746.868 1430)"><path d="M0,0H24V24H0Z" fill="none"/><path d="M16,1H4A2.006,2.006,0,0,0,2,3V17H4V3H16Zm3,4H8A2.006,2.006,0,0,0,6,7V21a2.006,2.006,0,0,0,2,2H19a2.006,2.006,0,0,0,2-2V7A2.006,2.006,0,0,0,19,5Zm0,16H8V7H19Z" fill="#fff"/></g><g transform="translate(782 1426)"><path d="M2,0H30a2.006,2.006,0,0,1,2,2V30a2.006,2.006,0,0,1-2,2H2a2.006,2.006,0,0,1-2-2V2A2.006,2.006,0,0,1,2,0Z" fill="none"/><g transform="translate(4 4)"><g opacity="0"><rect width="24" height="24" fill="none"/><rect width="23" height="23" transform="translate(0.5 0.5)" fill="none" stroke="#fff" stroke-miterlimit="10" stroke-width="1"/></g><path d="M3,17.2V21H6.8L17.9,9.9,14.1,6.1ZM20.7,7a.967.967,0,0,0,0-1.4L18.4,3.3a.967.967,0,0,0-1.4,0L15.2,5.1,19,8.9Z" fill="#363545"/></g></g></g></g><g transform="translate(-326 -5605)"><g transform="translate(496 2196)"><g transform="translate(235 4039.5)"><rect width="320" height="48" fill="#171c1e"/><path d="M85.1,30.2H83.8V19.9H80.2V18.7h8.6v1.2H85.2V30.2Z" fill="#fff"/><path d="M94.1,21.5a3.083,3.083,0,0,1,1,.1L95,22.8a3.445,3.445,0,0,0-.9-.1,2.5,2.5,0,0,0-1.8.8,2.971,2.971,0,0,0-.7,2.1v4.6H90.3V21.6h1.1l.1,1.6h.1a3.611,3.611,0,0,1,1.1-1.3A2.3,2.3,0,0,1,94.1,21.5Z" fill="#fff"/><path d="M100.4,30.3a3.773,3.773,0,0,1-3-1.2,4.591,4.591,0,0,1-1.1-3.2,4.826,4.826,0,0,1,1-3.3,3.424,3.424,0,0,1,2.7-1.2,3.1,3.1,0,0,1,2.5,1.1,4.1,4.1,0,0,1,.9,2.8v.8H97.5a3.2,3.2,0,0,0,.8,2.3,2.792,2.792,0,0,0,2,.8,6.6,6.6,0,0,0,2.7-.6v1.2a9.288,9.288,0,0,1-1.3.4A4.512,4.512,0,0,1,100.4,30.3Zm-.4-7.7a1.865,1.865,0,0,0-1.6.7,2.738,2.738,0,0,0-.7,1.9h4.5a3.557,3.557,0,0,0-.5-1.9A2.193,2.193,0,0,0,100,22.6Z" fill="#fff"/><path d="M109.4,30.3a3.773,3.773,0,0,1-3-1.2,4.591,4.591,0,0,1-1.1-3.2,4.826,4.826,0,0,1,1-3.3,3.424,3.424,0,0,1,2.7-1.2,3.1,3.1,0,0,1,2.5,1.1,4.1,4.1,0,0,1,.9,2.8v.8h-5.9a3.2,3.2,0,0,0,.8,2.3,2.792,2.792,0,0,0,2,.8,6.6,6.6,0,0,0,2.7-.6v1.2a9.288,9.288,0,0,1-1.3.4A4.888,4.888,0,0,1,109.4,30.3Zm-.4-7.7a1.865,1.865,0,0,0-1.6.7,2.738,2.738,0,0,0-.7,1.9h4.5a3.557,3.557,0,0,0-.5-1.9A2.193,2.193,0,0,0,109,22.6Z" fill="#fff"/><path d="M119.1,30.2V18.8h1.3V30.2h-1.3Z" fill="#fff"/><path d="M126.1,29.3a1.7,1.7,0,0,0,.7-.1,4.331,4.331,0,0,0,.5-.1v1c-.1.1-.3.1-.6.2a1.952,1.952,0,0,1-.7.1c-1.7,0-2.5-.9-2.5-2.6V22.7h-1.2V22l1.2-.5.5-1.8h.8v2h2.5v1h-2.5v5a1.594,1.594,0,0,0,.4,1.2A1.1,1.1,0,0,0,126.1,29.3Z" fill="#fff"/><path d="M132.6,30.3a3.773,3.773,0,0,1-3-1.2,4.591,4.591,0,0,1-1.1-3.2,4.826,4.826,0,0,1,1-3.3,3.424,3.424,0,0,1,2.7-1.2,3.1,3.1,0,0,1,2.5,1.1,4.1,4.1,0,0,1,.9,2.8v.8h-5.9a3.2,3.2,0,0,0,.8,2.3,2.792,2.792,0,0,0,2,.8,6.6,6.6,0,0,0,2.7-.6v1.2a9.287,9.287,0,0,1-1.3.4A4.153,4.153,0,0,1,132.6,30.3Zm-.4-7.7a1.865,1.865,0,0,0-1.6.7,2.738,2.738,0,0,0-.7,1.9h4.5a3.557,3.557,0,0,0-.5-1.9A2.193,2.193,0,0,0,132.2,22.6Z" fill="#fff"/><path d="M148.9,30.2V24.6a2.076,2.076,0,0,0-.4-1.5,1.813,1.813,0,0,0-1.4-.5,2.139,2.139,0,0,0-1.8.7,3.281,3.281,0,0,0-.6,2.1v4.8h-1.3V24.6a2.076,2.076,0,0,0-.4-1.5,1.813,1.813,0,0,0-1.4-.5,2.139,2.139,0,0,0-1.8.7,3.845,3.845,0,0,0-.6,2.4v4.5H138V21.6h1.1l.2,1.2h.1a3.178,3.178,0,0,1,1-1,2.41,2.41,0,0,1,1.5-.4,2.52,2.52,0,0,1,2.6,1.5h.1a3.838,3.838,0,0,1,1.1-1.1,3.064,3.064,0,0,1,1.7-.4,2.918,2.918,0,0,1,2.2.7,3.286,3.286,0,0,1,.7,2.4v5.6h-1.4Z" fill="#fff"/><g transform="translate(16 36) rotate(-90)"><path d="M0,0H24V24H0Z" fill="none"/><path d="M11.8,15.5a1.421,1.421,0,0,1-.6-.2L6,10.1,7.1,9l4.7,4.7L16.4,9l1.1,1.1-5.2,5.2C12.2,15.5,12,15.5,11.8,15.5Z" fill="#90939f"/></g><g transform="translate(48 12)"><rect width="24" height="24" fill="none"/><path d="M2,0H14a2.006,2.006,0,0,1,2,2V14a2.006,2.006,0,0,1-2,2H2a2.006,2.006,0,0,1-2-2V2A2.006,2.006,0,0,1,2,0Z" transform="translate(4 4)" fill="none"/><path d="M2,1H14a.945.945,0,0,1,1,1V14a.945.945,0,0,1-1,1H2a.945.945,0,0,1-1-1V2A.945.945,0,0,1,2,1Z" transform="translate(4 4)" fill="none" stroke="#90939f" stroke-width="2"/></g></g><g transform="translate(235 3991)"><rect width="320" height="48" fill="#171c1e"/><line x2="320" transform="translate(0 48.5)" fill="none" stroke="#464b52" stroke-width="1"/><line x2="320" transform="translate(0 0.5)" fill="none" stroke="#464b52" stroke-width="1"/><path d="M85.1,30.2H83.8V19.9H80.2V18.7h8.6v1.2H85.2V30.2Z" fill="#fff"/><path d="M94.1,21.5a3.083,3.083,0,0,1,1,.1L95,22.8a3.445,3.445,0,0,0-.9-.1,2.5,2.5,0,0,0-1.8.8,2.971,2.971,0,0,0-.7,2.1v4.6H90.3V21.6h1.1l.1,1.6h.1a3.611,3.611,0,0,1,1.1-1.3A2.3,2.3,0,0,1,94.1,21.5Z" fill="#fff"/><path d="M100.4,30.3a3.773,3.773,0,0,1-3-1.2,4.591,4.591,0,0,1-1.1-3.2,4.826,4.826,0,0,1,1-3.3,3.424,3.424,0,0,1,2.7-1.2,3.1,3.1,0,0,1,2.5,1.1,4.1,4.1,0,0,1,.9,2.8v.8H97.5a3.2,3.2,0,0,0,.8,2.3,2.792,2.792,0,0,0,2,.8,6.6,6.6,0,0,0,2.7-.6v1.2a9.288,9.288,0,0,1-1.3.4A4.512,4.512,0,0,1,100.4,30.3Zm-.4-7.7a1.865,1.865,0,0,0-1.6.7,2.738,2.738,0,0,0-.7,1.9h4.5a3.557,3.557,0,0,0-.5-1.9A2.193,2.193,0,0,0,100,22.6Z" fill="#fff"/><path d="M109.4,30.3a3.773,3.773,0,0,1-3-1.2,4.591,4.591,0,0,1-1.1-3.2,4.826,4.826,0,0,1,1-3.3,3.424,3.424,0,0,1,2.7-1.2,3.1,3.1,0,0,1,2.5,1.1,4.1,4.1,0,0,1,.9,2.8v.8h-5.9a3.2,3.2,0,0,0,.8,2.3,2.792,2.792,0,0,0,2,.8,6.6,6.6,0,0,0,2.7-.6v1.2a9.288,9.288,0,0,1-1.3.4A4.888,4.888,0,0,1,109.4,30.3Zm-.4-7.7a1.865,1.865,0,0,0-1.6.7,2.738,2.738,0,0,0-.7,1.9h4.5a3.557,3.557,0,0,0-.5-1.9A2.193,2.193,0,0,0,109,22.6Z" fill="#fff"/><path d="M119.1,30.2V18.8h1.3V30.2h-1.3Z" fill="#fff"/><path d="M126.1,29.3a1.7,1.7,0,0,0,.7-.1,4.331,4.331,0,0,0,.5-.1v1c-.1.1-.3.1-.6.2a1.952,1.952,0,0,1-.7.1c-1.7,0-2.5-.9-2.5-2.6V22.7h-1.2V22l1.2-.5.5-1.8h.8v2h2.5v1h-2.5v5a1.594,1.594,0,0,0,.4,1.2A1.1,1.1,0,0,0,126.1,29.3Z" fill="#fff"/><path d="M132.6,30.3a3.773,3.773,0,0,1-3-1.2,4.591,4.591,0,0,1-1.1-3.2,4.826,4.826,0,0,1,1-3.3,3.424,3.424,0,0,1,2.7-1.2,3.1,3.1,0,0,1,2.5,1.1,4.1,4.1,0,0,1,.9,2.8v.8h-5.9a3.2,3.2,0,0,0,.8,2.3,2.792,2.792,0,0,0,2,.8,6.6,6.6,0,0,0,2.7-.6v1.2a9.287,9.287,0,0,1-1.3.4A4.153,4.153,0,0,1,132.6,30.3Zm-.4-7.7a1.865,1.865,0,0,0-1.6.7,2.738,2.738,0,0,0-.7,1.9h4.5a3.557,3.557,0,0,0-.5-1.9A2.193,2.193,0,0,0,132.2,22.6Z" fill="#fff"/><path d="M148.9,30.2V24.6a2.076,2.076,0,0,0-.4-1.5,1.813,1.813,0,0,0-1.4-.5,2.139,2.139,0,0,0-1.8.7,3.281,3.281,0,0,0-.6,2.1v4.8h-1.3V24.6a2.076,2.076,0,0,0-.4-1.5,1.813,1.813,0,0,0-1.4-.5,2.139,2.139,0,0,0-1.8.7,3.845,3.845,0,0,0-.6,2.4v4.5H138V21.6h1.1l.2,1.2h.1a3.178,3.178,0,0,1,1-1,2.41,2.41,0,0,1,1.5-.4,2.52,2.52,0,0,1,2.6,1.5h.1a3.838,3.838,0,0,1,1.1-1.1,3.064,3.064,0,0,1,1.7-.4,2.918,2.918,0,0,1,2.2.7,3.286,3.286,0,0,1,.7,2.4v5.6h-1.4Z" fill="#fff"/><g transform="translate(16 36) rotate(-90)"><path d="M0,0H24V24H0Z" fill="none"/><path d="M11.8,15.5a1.421,1.421,0,0,1-.6-.2L6,10.1,7.1,9l4.7,4.7L16.4,9l1.1,1.1-5.2,5.2C12.2,15.5,12,15.5,11.8,15.5Z" fill="#90939f"/></g><g transform="translate(48 12)"><rect width="24" height="24" fill="none"/><path d="M2,0H14a2.006,2.006,0,0,1,2,2V14a2.006,2.006,0,0,1-2,2H2a2.006,2.006,0,0,1-2-2V2A2.006,2.006,0,0,1,2,0Z" transform="translate(4 4)" fill="none"/><path d="M2,1H14a.945.945,0,0,1,1,1V14a.945.945,0,0,1-1,1H2a.945.945,0,0,1-1-1V2A.945.945,0,0,1,2,1Z" transform="translate(4 4)" fill="none" stroke="#90939f" stroke-width="2"/></g></g><g transform="translate(235 3943)"><rect width="320" height="48" fill="#171c1e"/><path d="M85.1,30.2H83.8V19.9H80.2V18.7h8.6v1.2H85.2V30.2Z" fill="#fff"/><path d="M94.1,21.5a3.083,3.083,0,0,1,1,.1L95,22.8a3.445,3.445,0,0,0-.9-.1,2.5,2.5,0,0,0-1.8.8,2.971,2.971,0,0,0-.7,2.1v4.6H90.3V21.6h1.1l.1,1.6h.1a3.611,3.611,0,0,1,1.1-1.3A2.3,2.3,0,0,1,94.1,21.5Z" fill="#fff"/><path d="M100.4,30.3a3.773,3.773,0,0,1-3-1.2,4.591,4.591,0,0,1-1.1-3.2,4.826,4.826,0,0,1,1-3.3,3.424,3.424,0,0,1,2.7-1.2,3.1,3.1,0,0,1,2.5,1.1,4.1,4.1,0,0,1,.9,2.8v.8H97.5a3.2,3.2,0,0,0,.8,2.3,2.792,2.792,0,0,0,2,.8,6.6,6.6,0,0,0,2.7-.6v1.2a9.288,9.288,0,0,1-1.3.4A4.512,4.512,0,0,1,100.4,30.3Zm-.4-7.7a1.865,1.865,0,0,0-1.6.7,2.738,2.738,0,0,0-.7,1.9h4.5a3.557,3.557,0,0,0-.5-1.9A2.193,2.193,0,0,0,100,22.6Z" fill="#fff"/><path d="M109.4,30.3a3.773,3.773,0,0,1-3-1.2,4.591,4.591,0,0,1-1.1-3.2,4.826,4.826,0,0,1,1-3.3,3.424,3.424,0,0,1,2.7-1.2,3.1,3.1,0,0,1,2.5,1.1,4.1,4.1,0,0,1,.9,2.8v.8h-5.9a3.2,3.2,0,0,0,.8,2.3,2.792,2.792,0,0,0,2,.8,6.6,6.6,0,0,0,2.7-.6v1.2a9.288,9.288,0,0,1-1.3.4A4.888,4.888,0,0,1,109.4,30.3Zm-.4-7.7a1.865,1.865,0,0,0-1.6.7,2.738,2.738,0,0,0-.7,1.9h4.5a3.557,3.557,0,0,0-.5-1.9A2.193,2.193,0,0,0,109,22.6Z" fill="#fff"/><path d="M119.1,30.2V18.8h1.3V30.2h-1.3Z" fill="#fff"/><path d="M126.1,29.3a1.7,1.7,0,0,0,.7-.1,4.331,4.331,0,0,0,.5-.1v1c-.1.1-.3.1-.6.2a1.952,1.952,0,0,1-.7.1c-1.7,0-2.5-.9-2.5-2.6V22.7h-1.2V22l1.2-.5.5-1.8h.8v2h2.5v1h-2.5v5a1.594,1.594,0,0,0,.4,1.2A1.1,1.1,0,0,0,126.1,29.3Z" fill="#fff"/><path d="M132.6,30.3a3.773,3.773,0,0,1-3-1.2,4.591,4.591,0,0,1-1.1-3.2,4.826,4.826,0,0,1,1-3.3,3.424,3.424,0,0,1,2.7-1.2,3.1,3.1,0,0,1,2.5,1.1,4.1,4.1,0,0,1,.9,2.8v.8h-5.9a3.2,3.2,0,0,0,.8,2.3,2.792,2.792,0,0,0,2,.8,6.6,6.6,0,0,0,2.7-.6v1.2a9.287,9.287,0,0,1-1.3.4A4.153,4.153,0,0,1,132.6,30.3Zm-.4-7.7a1.865,1.865,0,0,0-1.6.7,2.738,2.738,0,0,0-.7,1.9h4.5a3.557,3.557,0,0,0-.5-1.9A2.193,2.193,0,0,0,132.2,22.6Z" fill="#fff"/><path d="M148.9,30.2V24.6a2.076,2.076,0,0,0-.4-1.5,1.813,1.813,0,0,0-1.4-.5,2.139,2.139,0,0,0-1.8.7,3.281,3.281,0,0,0-.6,2.1v4.8h-1.3V24.6a2.076,2.076,0,0,0-.4-1.5,1.813,1.813,0,0,0-1.4-.5,2.139,2.139,0,0,0-1.8.7,3.845,3.845,0,0,0-.6,2.4v4.5H138V21.6h1.1l.2,1.2h.1a3.178,3.178,0,0,1,1-1,2.41,2.41,0,0,1,1.5-.4,2.52,2.52,0,0,1,2.6,1.5h.1a3.838,3.838,0,0,1,1.1-1.1,3.064,3.064,0,0,1,1.7-.4,2.918,2.918,0,0,1,2.2.7,3.286,3.286,0,0,1,.7,2.4v5.6h-1.4Z" fill="#fff"/><g transform="translate(16 36) rotate(-90)"><path d="M0,0H24V24H0Z" fill="none"/><path d="M11.8,15.5a1.421,1.421,0,0,1-.6-.2L6,10.1,7.1,9l4.7,4.7L16.4,9l1.1,1.1-5.2,5.2C12.2,15.5,12,15.5,11.8,15.5Z" fill="#90939f"/></g><g transform="translate(48 12)"><rect width="24" height="24" fill="none"/><path d="M2,0H14a2.006,2.006,0,0,1,2,2V14a2.006,2.006,0,0,1-2,2H2a2.006,2.006,0,0,1-2-2V2A2.006,2.006,0,0,1,2,0Z" transform="translate(4 4)" fill="none"/><path d="M2,1H14a.945.945,0,0,1,1,1V14a.945.945,0,0,1-1,1H2a.945.945,0,0,1-1-1V2A.945.945,0,0,1,2,1Z" transform="translate(4 4)" fill="none" stroke="#90939f" stroke-width="2"/></g><g transform="translate(80 -16)"><g transform="translate(0 54)"><path d="M2-30H206a2.006,2.006,0,0,1,2,2V2H0V-28A2.006,2.006,0,0,1,2-30Z" fill="#171c1e" stroke="#464b52" stroke-width="1"/><rect width="208" height="2" fill="#019aeb"/></g><path d="M13.5,35.6a2.323,2.323,0,0,0-1.9.9A4.626,4.626,0,0,0,11,39c0,2.2.8,3.3,2.5,3.3a8.5,8.5,0,0,0,2.5-.5v1.8a7.635,7.635,0,0,1-2.7.5A3.9,3.9,0,0,1,10,42.8,5.414,5.414,0,0,1,8.8,39a5.954,5.954,0,0,1,.6-2.7A4.034,4.034,0,0,1,11,34.5a4.871,4.871,0,0,1,2.5-.6,6.19,6.19,0,0,1,2.9.7l-.7,1.7c-.4-.2-.7-.3-1.1-.5A2.153,2.153,0,0,0,13.5,35.6Z" fill="#fff"/><path d="M25,40.2a3.945,3.945,0,0,1-1,2.9,3.693,3.693,0,0,1-2.7,1.1,3.83,3.83,0,0,1-1.9-.5,2.949,2.949,0,0,1-1.3-1.4,4.648,4.648,0,0,1-.5-2.1,3.945,3.945,0,0,1,1-2.9,3.62,3.62,0,0,1,2.7-1,3.83,3.83,0,0,1,1.9.5,3.531,3.531,0,0,1,1.3,1.4A4.228,4.228,0,0,1,25,40.2Zm-5.3,0a2.674,2.674,0,0,0,.4,1.7,1.309,1.309,0,0,0,1.2.6,1.209,1.209,0,0,0,1.2-.6,3.867,3.867,0,0,0,.4-1.7,2.674,2.674,0,0,0-.4-1.7,1.309,1.309,0,0,0-1.2-.6,1.209,1.209,0,0,0-1.2.6A2.5,2.5,0,0,0,19.7,40.2Z" fill="#fff"/><path d="M30.9,44.1a2.393,2.393,0,0,1-2.1-1h-.1a6.612,6.612,0,0,1,.1,1.1v3.1H26.7v-11h1.7l.3,1h.1A2.322,2.322,0,0,1,31,36.2a2.393,2.393,0,0,1,2.1,1,4.985,4.985,0,0,1,.8,2.9,4.638,4.638,0,0,1-.4,2.1,2.981,2.981,0,0,1-1,1.4A2.767,2.767,0,0,1,30.9,44.1Zm-.6-6.2a1.29,1.29,0,0,0-1.1.5,2.826,2.826,0,0,0-.4,1.6v.2a3.007,3.007,0,0,0,.4,1.8c.2.4.6.5,1.2.5.9,0,1.4-.8,1.4-2.3a3.689,3.689,0,0,0-.3-1.7A1.563,1.563,0,0,0,30.3,37.9Z" fill="#fff"/><path d="M34.4,36.4h2.3l1.4,4.3c.1.4.2.8.3,1.3h0a2.768,2.768,0,0,1,.3-1.3l1.4-4.3h2.2L39.2,45a3.524,3.524,0,0,1-1.3,1.8,3.077,3.077,0,0,1-1.9.6,4.1,4.1,0,0,1-1.1-.1V45.6a2.2,2.2,0,0,0,.8.1,1.53,1.53,0,0,0,1.6-1.3l.1-.4Z" fill="#fff"/><path d="M54.1,40.2a3.945,3.945,0,0,1-1,2.9,3.693,3.693,0,0,1-2.7,1.1,3.83,3.83,0,0,1-1.9-.5,2.949,2.949,0,0,1-1.3-1.4,4.648,4.648,0,0,1-.5-2.1,3.945,3.945,0,0,1,1-2.9,3.62,3.62,0,0,1,2.7-1,3.83,3.83,0,0,1,1.9.5,3.531,3.531,0,0,1,1.3,1.4A4.228,4.228,0,0,1,54.1,40.2Zm-5.3,0a2.674,2.674,0,0,0,.4,1.7,1.309,1.309,0,0,0,1.2.6,1.209,1.209,0,0,0,1.2-.6,3.867,3.867,0,0,0,.4-1.7,2.674,2.674,0,0,0-.4-1.7,1.309,1.309,0,0,0-1.2-.6,1.209,1.209,0,0,0-1.2.6A2.5,2.5,0,0,0,48.8,40.2Z" fill="#fff"/><path d="M60,37.9H58.2V44H56.1V37.9H55v-1l1.1-.6v-.6a2.546,2.546,0,0,1,.6-1.9,2.928,2.928,0,0,1,2.1-.6,5.412,5.412,0,0,1,1.9.3L60.2,35a5.019,5.019,0,0,0-1.2-.2.6.6,0,0,0-.6.3,1.445,1.445,0,0,0-.2.7v.5H60Z" fill="#fff"/><path d="M68.9,44H66.8V35.8H64.1V34h7.5v1.8H68.9V44Z" fill="#fff"/><path d="M77.2,36.2a1.483,1.483,0,0,1,.7.1l-.2,2c-.2,0-.4-.1-.6-.1a2.544,2.544,0,0,0-1.6.5,1.678,1.678,0,0,0-.6,1.4V44H73V36.4h1.6l.3,1.3H75a2.41,2.41,0,0,1,1-1A1.457,1.457,0,0,1,77.2,36.2Z" fill="#fff"/><path d="M82.8,44.1a3.945,3.945,0,0,1-2.9-1,3.8,3.8,0,0,1-1-2.9,4.04,4.04,0,0,1,1-3,4.035,4.035,0,0,1,5.2-.1,3.486,3.486,0,0,1,.9,2.5v1H81a1.736,1.736,0,0,0,1.9,1.9,5.283,5.283,0,0,0,1.3-.1,4.284,4.284,0,0,0,1.3-.5v1.6a5.638,5.638,0,0,1-1.2.4A3.416,3.416,0,0,1,82.8,44.1Zm-.3-6.4a1.159,1.159,0,0,0-1,.4,2.144,2.144,0,0,0-.4,1.2H84a1.594,1.594,0,0,0-.4-1.2A1.5,1.5,0,0,0,82.5,37.7Z" fill="#fff"/><path d="M91.1,44.1a3.945,3.945,0,0,1-2.9-1,3.8,3.8,0,0,1-1-2.9,4.04,4.04,0,0,1,1-3,4.035,4.035,0,0,1,5.2-.1,3.486,3.486,0,0,1,.9,2.5v1H89.4a1.736,1.736,0,0,0,1.9,1.9,5.283,5.283,0,0,0,1.3-.1,4.284,4.284,0,0,0,1.3-.5v1.6a5.638,5.638,0,0,1-1.2.4A4.145,4.145,0,0,1,91.1,44.1Zm-.3-6.4a1.159,1.159,0,0,0-1,.4,2.144,2.144,0,0,0-.4,1.2h2.9a1.594,1.594,0,0,0-.4-1.2A1.5,1.5,0,0,0,90.8,37.7Z" fill="#fff"/><path d="M99.7,44V34h2.1V44Z" fill="#fff"/><path d="M107.4,42.5a6.882,6.882,0,0,0,1.3-.2v1.6a5.412,5.412,0,0,1-1.9.3,2.445,2.445,0,0,1-1.8-.6,2.707,2.707,0,0,1-.6-1.9V38h-1V37l1.1-.7.6-1.6h1.3v1.6h2.1v1.6h-2.1v3.7a1.445,1.445,0,0,0,.2.7A2.353,2.353,0,0,0,107.4,42.5Z" fill="#fff"/><path d="M113.7,44.1a3.945,3.945,0,0,1-2.9-1,3.8,3.8,0,0,1-1-2.9,4.04,4.04,0,0,1,1-3,4.035,4.035,0,0,1,5.2-.1,3.486,3.486,0,0,1,.9,2.5v1H112a1.736,1.736,0,0,0,1.9,1.9,5.283,5.283,0,0,0,1.3-.1,4.284,4.284,0,0,0,1.3-.5v1.6a5.638,5.638,0,0,1-1.2.4A4.145,4.145,0,0,1,113.7,44.1Zm-.3-6.4a1.159,1.159,0,0,0-1,.4,1.594,1.594,0,0,0-.4,1.2h2.9a1.594,1.594,0,0,0-.4-1.2A1.5,1.5,0,0,0,113.4,37.7Z" fill="#fff"/><path d="M125.3,44h-2.1V39.5a1.737,1.737,0,0,0-.3-1.2.975.975,0,0,0-.9-.4,1.425,1.425,0,0,0-1.2.6,3.161,3.161,0,0,0-.4,1.9V44h-2.1V36.4h1.6l.3,1h.1a1.765,1.765,0,0,1,.9-.8,2.768,2.768,0,0,1,1.3-.3,2.477,2.477,0,0,1,2.3,1.1h.2a1.765,1.765,0,0,1,.9-.8,2.9,2.9,0,0,1,1.4-.3,2.578,2.578,0,0,1,2,.7,3.1,3.1,0,0,1,.7,2.1v5h-2V39.6a1.737,1.737,0,0,0-.3-1.2.975.975,0,0,0-.9-.4,1.29,1.29,0,0,0-1.1.5,2.674,2.674,0,0,0-.4,1.7V44Z" fill="#fff"/><path d="M140.6,44h-2.1V36.2l-.7.7-1.1.9-1-1.3,3.2-2.6h1.7V44Z" fill="#fff"/><path d="M150.3,44h-7V42.5l2.5-2.5c.7-.8,1.2-1.3,1.5-1.6a9.225,9.225,0,0,0,.5-.8,1.884,1.884,0,0,0,.2-.8,1.061,1.061,0,0,0-1.2-1.2,2.016,2.016,0,0,0-1.1.3,5.939,5.939,0,0,0-1.1.8l-1.1-1.4q.75-.6,1.2-.9a3.582,3.582,0,0,1,1.1-.4,5.283,5.283,0,0,1,1.3-.1,4.671,4.671,0,0,1,1.7.3,2.132,2.132,0,0,1,1.1,1,2.5,2.5,0,0,1,.4,1.4,5.067,5.067,0,0,1-.2,1.3,4.184,4.184,0,0,1-.8,1.2,14.639,14.639,0,0,1-1.8,1.8l-1.3,1.2v.1h4.4V44Z" fill="#fff"/><path d="M157.9,36.2a2.271,2.271,0,0,1-.6,1.6,3.54,3.54,0,0,1-1.6.9h0a2.979,2.979,0,0,1,1.8.7,2.111,2.111,0,0,1,.6,1.6,2.459,2.459,0,0,1-1,2.2,5.1,5.1,0,0,1-3,.8,8.807,8.807,0,0,1-2.9-.5V41.7a5.023,5.023,0,0,0,1.3.5,6.753,6.753,0,0,0,1.4.2,2.076,2.076,0,0,0,1.5-.4,1.433,1.433,0,0,0,.5-1.1,1,1,0,0,0-.6-1,4.178,4.178,0,0,0-1.8-.3h-.8V38h.8a3.689,3.689,0,0,0,1.7-.3c.4-.2.5-.5.5-1,0-.8-.5-1.1-1.4-1.1a3.553,3.553,0,0,0-1,.2,4.073,4.073,0,0,0-1.1.6l-1-1.5a5.183,5.183,0,0,1,3.3-1,4.626,4.626,0,0,1,2.5.6A1.965,1.965,0,0,1,157.9,36.2Z" fill="#fff"/><line y2="20" transform="translate(164 29)" fill="none" stroke="#fff" stroke-width="1"/></g></g><g transform="translate(235 3895)"><rect width="320" height="48" fill="#171c1e"/><path d="M179.1,30.2h-1.3V19.9h-3.6V18.7h8.6v1.2h-3.6V30.2Z" fill="#fff"/><path d="M188.1,21.5a3.083,3.083,0,0,1,1,.1l-.2,1.2a3.444,3.444,0,0,0-.9-.1,2.5,2.5,0,0,0-1.8.8,2.971,2.971,0,0,0-.7,2.1v4.6h-1.3V21.6h1.1l.1,1.6h.1a3.611,3.611,0,0,1,1.1-1.3A2.822,2.822,0,0,1,188.1,21.5Z" fill="#fff"/><path d="M194.4,30.3a3.773,3.773,0,0,1-3-1.2,4.591,4.591,0,0,1-1.1-3.2,4.826,4.826,0,0,1,1-3.3,3.424,3.424,0,0,1,2.7-1.2,3.1,3.1,0,0,1,2.5,1.1,4.1,4.1,0,0,1,.9,2.8v.8h-5.9a3.2,3.2,0,0,0,.8,2.3,2.792,2.792,0,0,0,2,.8,6.6,6.6,0,0,0,2.7-.6v1.2a9.287,9.287,0,0,1-1.3.4A4.512,4.512,0,0,1,194.4,30.3Zm-.4-7.7a1.865,1.865,0,0,0-1.6.7,2.738,2.738,0,0,0-.7,1.9h4.5a3.557,3.557,0,0,0-.5-1.9A2.193,2.193,0,0,0,194,22.6Z" fill="#fff"/><path d="M203.4,30.3a3.773,3.773,0,0,1-3-1.2,4.591,4.591,0,0,1-1.1-3.2,4.826,4.826,0,0,1,1-3.3,3.424,3.424,0,0,1,2.7-1.2,3.1,3.1,0,0,1,2.5,1.1,4.1,4.1,0,0,1,.9,2.8v.8h-5.9a3.2,3.2,0,0,0,.8,2.3,2.792,2.792,0,0,0,2,.8,6.6,6.6,0,0,0,2.7-.6v1.2a9.287,9.287,0,0,1-1.3.4A4.887,4.887,0,0,1,203.4,30.3Zm-.4-7.7a1.865,1.865,0,0,0-1.6.7,2.738,2.738,0,0,0-.7,1.9h4.5a3.557,3.557,0,0,0-.5-1.9A2.193,2.193,0,0,0,203,22.6Z" fill="#fff"/><path d="M213.1,30.2V18.8h1.3V30.2h-1.3Z" fill="#fff"/><path d="M220.1,29.3a1.7,1.7,0,0,0,.7-.1,4.331,4.331,0,0,0,.5-.1v1c-.1.1-.3.1-.6.2a1.952,1.952,0,0,1-.7.1c-1.7,0-2.5-.9-2.5-2.6V22.7h-1.2V22l1.2-.5.5-1.8h.8v2h2.5v1h-2.5v5a1.594,1.594,0,0,0,.4,1.2A1.1,1.1,0,0,0,220.1,29.3Z" fill="#fff"/><path d="M226.6,30.3a3.773,3.773,0,0,1-3-1.2,4.591,4.591,0,0,1-1.1-3.2,4.826,4.826,0,0,1,1-3.3,3.424,3.424,0,0,1,2.7-1.2,3.1,3.1,0,0,1,2.5,1.1,4.1,4.1,0,0,1,.9,2.8v.8h-5.9a3.2,3.2,0,0,0,.8,2.3,2.792,2.792,0,0,0,2,.8,6.6,6.6,0,0,0,2.7-.6v1.2a9.287,9.287,0,0,1-1.3.4A4.153,4.153,0,0,1,226.6,30.3Zm-.4-7.7a1.865,1.865,0,0,0-1.6.7,2.738,2.738,0,0,0-.7,1.9h4.5a3.557,3.557,0,0,0-.5-1.9A2.193,2.193,0,0,0,226.2,22.6Z" fill="#fff"/><path d="M242.9,30.2V24.6a2.076,2.076,0,0,0-.4-1.5,1.813,1.813,0,0,0-1.4-.5,2.139,2.139,0,0,0-1.8.7,3.281,3.281,0,0,0-.6,2.1v4.8h-1.3V24.6a2.076,2.076,0,0,0-.4-1.5,1.813,1.813,0,0,0-1.4-.5,2.139,2.139,0,0,0-1.8.7,3.845,3.845,0,0,0-.6,2.4v4.5H232V21.6h1.1l.2,1.2h.1a3.178,3.178,0,0,1,1-1,2.41,2.41,0,0,1,1.5-.4,2.52,2.52,0,0,1,2.6,1.5h.1a3.838,3.838,0,0,1,1.1-1.1,3.064,3.064,0,0,1,1.7-.4,2.918,2.918,0,0,1,2.2.7,3.286,3.286,0,0,1,.7,2.4v5.6h-1.4Z" fill="#fff"/><g transform="translate(80 12)" opacity="0"><path d="M0,0H24V24H0Z" fill="none"/><path d="M11.8,15.5a1.421,1.421,0,0,1-.6-.2L6,10.1,7.1,9l4.7,4.7L16.4,9l1.1,1.1-5.2,5.2C12.2,15.5,12,15.5,11.8,15.5Z" fill="#90939f"/></g><g transform="translate(142 12)"><rect width="24" height="24" fill="none"/><path d="M2,0H14a2.006,2.006,0,0,1,2,2V14a2.006,2.006,0,0,1-2,2H2a2.006,2.006,0,0,1-2-2V2A2.006,2.006,0,0,1,2,0Z" transform="translate(4 4)" fill="none"/><path d="M2,1H14a.945.945,0,0,1,1,1V14a.945.945,0,0,1-1,1H2a.945.945,0,0,1-1-1V2A.945.945,0,0,1,2,1Z" transform="translate(4 4)" fill="none" stroke="#90939f" stroke-width="2"/></g></g><g transform="translate(235 3847)"><rect width="320" height="48" fill="#171c1e"/><path d="M179.1,30.2h-1.3V19.9h-3.6V18.7h8.6v1.2h-3.6V30.2Z" fill="#fff"/><path d="M188.1,21.5a3.083,3.083,0,0,1,1,.1l-.2,1.2a3.444,3.444,0,0,0-.9-.1,2.5,2.5,0,0,0-1.8.8,2.971,2.971,0,0,0-.7,2.1v4.6h-1.3V21.6h1.1l.1,1.6h.1a3.611,3.611,0,0,1,1.1-1.3A2.822,2.822,0,0,1,188.1,21.5Z" fill="#fff"/><path d="M194.4,30.3a3.773,3.773,0,0,1-3-1.2,4.591,4.591,0,0,1-1.1-3.2,4.826,4.826,0,0,1,1-3.3,3.424,3.424,0,0,1,2.7-1.2,3.1,3.1,0,0,1,2.5,1.1,4.1,4.1,0,0,1,.9,2.8v.8h-5.9a3.2,3.2,0,0,0,.8,2.3,2.792,2.792,0,0,0,2,.8,6.6,6.6,0,0,0,2.7-.6v1.2a9.287,9.287,0,0,1-1.3.4A4.512,4.512,0,0,1,194.4,30.3Zm-.4-7.7a1.865,1.865,0,0,0-1.6.7,2.738,2.738,0,0,0-.7,1.9h4.5a3.557,3.557,0,0,0-.5-1.9A2.193,2.193,0,0,0,194,22.6Z" fill="#fff"/><path d="M203.4,30.3a3.773,3.773,0,0,1-3-1.2,4.591,4.591,0,0,1-1.1-3.2,4.826,4.826,0,0,1,1-3.3,3.424,3.424,0,0,1,2.7-1.2,3.1,3.1,0,0,1,2.5,1.1,4.1,4.1,0,0,1,.9,2.8v.8h-5.9a3.2,3.2,0,0,0,.8,2.3,2.792,2.792,0,0,0,2,.8,6.6,6.6,0,0,0,2.7-.6v1.2a9.287,9.287,0,0,1-1.3.4A4.887,4.887,0,0,1,203.4,30.3Zm-.4-7.7a1.865,1.865,0,0,0-1.6.7,2.738,2.738,0,0,0-.7,1.9h4.5a3.557,3.557,0,0,0-.5-1.9A2.193,2.193,0,0,0,203,22.6Z" fill="#fff"/><path d="M213.1,30.2V18.8h1.3V30.2h-1.3Z" fill="#fff"/><path d="M220.1,29.3a1.7,1.7,0,0,0,.7-.1,4.331,4.331,0,0,0,.5-.1v1c-.1.1-.3.1-.6.2a1.952,1.952,0,0,1-.7.1c-1.7,0-2.5-.9-2.5-2.6V22.7h-1.2V22l1.2-.5.5-1.8h.8v2h2.5v1h-2.5v5a1.594,1.594,0,0,0,.4,1.2A1.1,1.1,0,0,0,220.1,29.3Z" fill="#fff"/><path d="M226.6,30.3a3.773,3.773,0,0,1-3-1.2,4.591,4.591,0,0,1-1.1-3.2,4.826,4.826,0,0,1,1-3.3,3.424,3.424,0,0,1,2.7-1.2,3.1,3.1,0,0,1,2.5,1.1,4.1,4.1,0,0,1,.9,2.8v.8h-5.9a3.2,3.2,0,0,0,.8,2.3,2.792,2.792,0,0,0,2,.8,6.6,6.6,0,0,0,2.7-.6v1.2a9.287,9.287,0,0,1-1.3.4A4.153,4.153,0,0,1,226.6,30.3Zm-.4-7.7a1.865,1.865,0,0,0-1.6.7,2.738,2.738,0,0,0-.7,1.9h4.5a3.557,3.557,0,0,0-.5-1.9A2.193,2.193,0,0,0,226.2,22.6Z" fill="#fff"/><path d="M242.9,30.2V24.6a2.076,2.076,0,0,0-.4-1.5,1.813,1.813,0,0,0-1.4-.5,2.139,2.139,0,0,0-1.8.7,3.281,3.281,0,0,0-.6,2.1v4.8h-1.3V24.6a2.076,2.076,0,0,0-.4-1.5,1.813,1.813,0,0,0-1.4-.5,2.139,2.139,0,0,0-1.8.7,3.845,3.845,0,0,0-.6,2.4v4.5H232V21.6h1.1l.2,1.2h.1a3.178,3.178,0,0,1,1-1,2.41,2.41,0,0,1,1.5-.4,2.52,2.52,0,0,1,2.6,1.5h.1a3.838,3.838,0,0,1,1.1-1.1,3.064,3.064,0,0,1,1.7-.4,2.918,2.918,0,0,1,2.2.7,3.286,3.286,0,0,1,.7,2.4v5.6h-1.4Z" fill="#fff"/><g transform="translate(110 36) rotate(-90)" opacity="0"><path d="M0,0H24V24H0Z" fill="none"/><path d="M11.8,15.5a1.421,1.421,0,0,1-.6-.2L6,10.1,7.1,9l4.7,4.7L16.4,9l1.1,1.1-5.2,5.2C12.2,15.5,12,15.5,11.8,15.5Z" fill="#90939f"/></g><g transform="translate(142 12)"><rect width="24" height="24" fill="none"/><path d="M6,4H18a2.006,2.006,0,0,1,2,2V18a2.006,2.006,0,0,1-2,2H6a2.006,2.006,0,0,1-2-2V6A2.006,2.006,0,0,1,6,4Z" fill="#019aeb"/><path d="M10.4,16l-4-4,1.1-1.1,2.9,2.9,6.1-6.1,1.1,1.1Z" fill="#fff"/></g></g><g transform="translate(235 3799)"><rect width="320" height="48" fill="#171c1e"/><path d="M179.1,30.2h-1.3V19.9h-3.6V18.7h8.6v1.2h-3.6V30.2Z" fill="#fff"/><path d="M188.1,21.5a3.083,3.083,0,0,1,1,.1l-.2,1.2a3.444,3.444,0,0,0-.9-.1,2.5,2.5,0,0,0-1.8.8,2.971,2.971,0,0,0-.7,2.1v4.6h-1.3V21.6h1.1l.1,1.6h.1a3.611,3.611,0,0,1,1.1-1.3A2.822,2.822,0,0,1,188.1,21.5Z" fill="#fff"/><path d="M194.4,30.3a3.773,3.773,0,0,1-3-1.2,4.591,4.591,0,0,1-1.1-3.2,4.826,4.826,0,0,1,1-3.3,3.424,3.424,0,0,1,2.7-1.2,3.1,3.1,0,0,1,2.5,1.1,4.1,4.1,0,0,1,.9,2.8v.8h-5.9a3.2,3.2,0,0,0,.8,2.3,2.792,2.792,0,0,0,2,.8,6.6,6.6,0,0,0,2.7-.6v1.2a9.287,9.287,0,0,1-1.3.4A4.512,4.512,0,0,1,194.4,30.3Zm-.4-7.7a1.865,1.865,0,0,0-1.6.7,2.738,2.738,0,0,0-.7,1.9h4.5a3.557,3.557,0,0,0-.5-1.9A2.193,2.193,0,0,0,194,22.6Z" fill="#fff"/><path d="M203.4,30.3a3.773,3.773,0,0,1-3-1.2,4.591,4.591,0,0,1-1.1-3.2,4.826,4.826,0,0,1,1-3.3,3.424,3.424,0,0,1,2.7-1.2,3.1,3.1,0,0,1,2.5,1.1,4.1,4.1,0,0,1,.9,2.8v.8h-5.9a3.2,3.2,0,0,0,.8,2.3,2.792,2.792,0,0,0,2,.8,6.6,6.6,0,0,0,2.7-.6v1.2a9.287,9.287,0,0,1-1.3.4A4.887,4.887,0,0,1,203.4,30.3Zm-.4-7.7a1.865,1.865,0,0,0-1.6.7,2.738,2.738,0,0,0-.7,1.9h4.5a3.557,3.557,0,0,0-.5-1.9A2.193,2.193,0,0,0,203,22.6Z" fill="#fff"/><path d="M213.1,30.2V18.8h1.3V30.2h-1.3Z" fill="#fff"/><path d="M220.1,29.3a1.7,1.7,0,0,0,.7-.1,4.331,4.331,0,0,0,.5-.1v1c-.1.1-.3.1-.6.2a1.952,1.952,0,0,1-.7.1c-1.7,0-2.5-.9-2.5-2.6V22.7h-1.2V22l1.2-.5.5-1.8h.8v2h2.5v1h-2.5v5a1.594,1.594,0,0,0,.4,1.2A1.1,1.1,0,0,0,220.1,29.3Z" fill="#fff"/><path d="M226.6,30.3a3.773,3.773,0,0,1-3-1.2,4.591,4.591,0,0,1-1.1-3.2,4.826,4.826,0,0,1,1-3.3,3.424,3.424,0,0,1,2.7-1.2,3.1,3.1,0,0,1,2.5,1.1,4.1,4.1,0,0,1,.9,2.8v.8h-5.9a3.2,3.2,0,0,0,.8,2.3,2.792,2.792,0,0,0,2,.8,6.6,6.6,0,0,0,2.7-.6v1.2a9.287,9.287,0,0,1-1.3.4A4.153,4.153,0,0,1,226.6,30.3Zm-.4-7.7a1.865,1.865,0,0,0-1.6.7,2.738,2.738,0,0,0-.7,1.9h4.5a3.557,3.557,0,0,0-.5-1.9A2.193,2.193,0,0,0,226.2,22.6Z" fill="#fff"/><path d="M242.9,30.2V24.6a2.076,2.076,0,0,0-.4-1.5,1.813,1.813,0,0,0-1.4-.5,2.139,2.139,0,0,0-1.8.7,3.281,3.281,0,0,0-.6,2.1v4.8h-1.3V24.6a2.076,2.076,0,0,0-.4-1.5,1.813,1.813,0,0,0-1.4-.5,2.139,2.139,0,0,0-1.8.7,3.845,3.845,0,0,0-.6,2.4v4.5H232V21.6h1.1l.2,1.2h.1a3.178,3.178,0,0,1,1-1,2.41,2.41,0,0,1,1.5-.4,2.52,2.52,0,0,1,2.6,1.5h.1a3.838,3.838,0,0,1,1.1-1.1,3.064,3.064,0,0,1,1.7-.4,2.918,2.918,0,0,1,2.2.7,3.286,3.286,0,0,1,.7,2.4v5.6h-1.4Z" fill="#fff"/><g transform="translate(80 12)" opacity="0"><path d="M0,0H24V24H0Z" fill="none"/><path d="M11.8,15.5a1.421,1.421,0,0,1-.6-.2L6,10.1,7.1,9l4.7,4.7L16.4,9l1.1,1.1-5.2,5.2C12.2,15.5,12,15.5,11.8,15.5Z" fill="#90939f"/></g><g transform="translate(142 12)"><rect width="24" height="24" fill="none"/><path d="M2,0H14a2.006,2.006,0,0,1,2,2V14a2.006,2.006,0,0,1-2,2H2a2.006,2.006,0,0,1-2-2V2A2.006,2.006,0,0,1,2,0Z" transform="translate(4 4)" fill="#fff"/><path d="M2,1H14a.945.945,0,0,1,1,1V14a.945.945,0,0,1-1,1H2a.945.945,0,0,1-1-1V2A.945.945,0,0,1,2,1Z" transform="translate(4 4)" fill="none" stroke="#90939f" stroke-width="2"/></g></g><g transform="translate(235 3751)"><rect width="320" height="48" fill="#171c1e"/><path d="M149.1,30.2h-1.3V19.9h-3.6V18.7h8.6v1.2h-3.6V30.2Z" fill="#fff"/><path d="M158.1,21.5a3.083,3.083,0,0,1,1,.1l-.2,1.2a3.444,3.444,0,0,0-.9-.1,2.5,2.5,0,0,0-1.8.8,2.971,2.971,0,0,0-.7,2.1v4.6h-1.3V21.6h1.1l.1,1.6h.1a3.611,3.611,0,0,1,1.1-1.3A2.822,2.822,0,0,1,158.1,21.5Z" fill="#fff"/><path d="M164.4,30.3a3.773,3.773,0,0,1-3-1.2,4.591,4.591,0,0,1-1.1-3.2,4.826,4.826,0,0,1,1-3.3,3.424,3.424,0,0,1,2.7-1.2,3.1,3.1,0,0,1,2.5,1.1,4.1,4.1,0,0,1,.9,2.8v.8h-5.9a3.2,3.2,0,0,0,.8,2.3,2.792,2.792,0,0,0,2,.8,6.6,6.6,0,0,0,2.7-.6v1.2a9.287,9.287,0,0,1-1.3.4A4.512,4.512,0,0,1,164.4,30.3Zm-.4-7.7a1.865,1.865,0,0,0-1.6.7,2.738,2.738,0,0,0-.7,1.9h4.5a3.557,3.557,0,0,0-.5-1.9A2.193,2.193,0,0,0,164,22.6Z" fill="#fff"/><path d="M173.4,30.3a3.773,3.773,0,0,1-3-1.2,4.591,4.591,0,0,1-1.1-3.2,4.826,4.826,0,0,1,1-3.3,3.424,3.424,0,0,1,2.7-1.2,3.1,3.1,0,0,1,2.5,1.1,4.1,4.1,0,0,1,.9,2.8v.8h-5.9a3.2,3.2,0,0,0,.8,2.3,2.792,2.792,0,0,0,2,.8,6.6,6.6,0,0,0,2.7-.6v1.2a9.287,9.287,0,0,1-1.3.4A4.887,4.887,0,0,1,173.4,30.3Zm-.4-7.7a1.865,1.865,0,0,0-1.6.7,2.738,2.738,0,0,0-.7,1.9h4.5a3.557,3.557,0,0,0-.5-1.9A2.193,2.193,0,0,0,173,22.6Z" fill="#fff"/><path d="M183.1,30.2V18.8h1.3V30.2h-1.3Z" fill="#fff"/><path d="M190.1,29.3a1.7,1.7,0,0,0,.7-.1,4.331,4.331,0,0,0,.5-.1v1c-.1.1-.3.1-.6.2a1.952,1.952,0,0,1-.7.1c-1.7,0-2.5-.9-2.5-2.6V22.7h-1.2V22l1.2-.5.5-1.8h.8v2h2.5v1h-2.5v5a1.594,1.594,0,0,0,.4,1.2A1.1,1.1,0,0,0,190.1,29.3Z" fill="#fff"/><path d="M196.6,30.3a3.773,3.773,0,0,1-3-1.2,4.591,4.591,0,0,1-1.1-3.2,4.826,4.826,0,0,1,1-3.3,3.424,3.424,0,0,1,2.7-1.2,3.1,3.1,0,0,1,2.5,1.1,4.1,4.1,0,0,1,.9,2.8v.8h-5.9a3.2,3.2,0,0,0,.8,2.3,2.792,2.792,0,0,0,2,.8,6.6,6.6,0,0,0,2.7-.6v1.2a9.287,9.287,0,0,1-1.3.4A4.153,4.153,0,0,1,196.6,30.3Zm-.4-7.7a1.865,1.865,0,0,0-1.6.7,2.738,2.738,0,0,0-.7,1.9h4.5a3.557,3.557,0,0,0-.5-1.9A2.193,2.193,0,0,0,196.2,22.6Z" fill="#fff"/><path d="M212.9,30.2V24.6a2.076,2.076,0,0,0-.4-1.5,1.813,1.813,0,0,0-1.4-.5,2.139,2.139,0,0,0-1.8.7,3.281,3.281,0,0,0-.6,2.1v4.8h-1.3V24.6a2.076,2.076,0,0,0-.4-1.5,1.813,1.813,0,0,0-1.4-.5,2.139,2.139,0,0,0-1.8.7,3.845,3.845,0,0,0-.6,2.4v4.5H202V21.6h1.1l.2,1.2h.1a3.178,3.178,0,0,1,1-1,2.41,2.41,0,0,1,1.5-.4,2.52,2.52,0,0,1,2.6,1.5h.1a3.838,3.838,0,0,1,1.1-1.1,3.064,3.064,0,0,1,1.7-.4,2.918,2.918,0,0,1,2.2.7,3.286,3.286,0,0,1,.7,2.4v5.6h-1.4Z" fill="#fff"/><g transform="translate(80 12)"><path d="M0,0H24V24H0Z" fill="none"/><path d="M11.8,15.5a1.421,1.421,0,0,1-.6-.2L6,10.1,7.1,9l4.7,4.7L16.4,9l1.1,1.1-5.2,5.2C12.2,15.5,12,15.5,11.8,15.5Z" fill="#90939f"/></g><g transform="translate(112 12)"><rect width="24" height="24" fill="none"/><path d="M2,0H14a2.006,2.006,0,0,1,2,2V14a2.006,2.006,0,0,1-2,2H2a2.006,2.006,0,0,1-2-2V2A2.006,2.006,0,0,1,2,0Z" transform="translate(4 4)" fill="none"/><path d="M2,1H14a.945.945,0,0,1,1,1V14a.945.945,0,0,1-1,1H2a.945.945,0,0,1-1-1V2A.945.945,0,0,1,2,1Z" transform="translate(4 4)" fill="none" stroke="#90939f" stroke-width="2"/></g></g><g transform="translate(235 3703)"><rect width="320" height="48" fill="#171c1e"/><path d="M117.5,30.2h-1.9V20.4h-3.4V18.8h8.6v1.6h-3.4v9.8Z" fill="#fff"/><path d="M126.8,21.4a2.22,2.22,0,0,1,.9.1l-.2,1.7a2.2,2.2,0,0,0-.8-.1,2.41,2.41,0,0,0-1.8.7,2.489,2.489,0,0,0-.7,1.9v4.5h-1.8V21.6h1.4l.2,1.5h.1a4.263,4.263,0,0,1,1.1-1.2A2.767,2.767,0,0,1,126.8,21.4Z" fill="#fff"/><path d="M133,30.3a4.378,4.378,0,0,1-3.2-1.2,4.316,4.316,0,0,1-1.1-3.2,4.859,4.859,0,0,1,1.1-3.3,3.7,3.7,0,0,1,2.9-1.2,3.62,3.62,0,0,1,2.7,1,3.8,3.8,0,0,1,1,2.9v1h-5.8a2.738,2.738,0,0,0,.7,1.9,2.139,2.139,0,0,0,1.8.7,6.149,6.149,0,0,0,1.4-.1,12.129,12.129,0,0,0,1.4-.5v1.5a5.782,5.782,0,0,1-1.4.5Zm-.3-7.5a1.678,1.678,0,0,0-1.4.6,2.578,2.578,0,0,0-.6,1.6h3.9a2.348,2.348,0,0,0-.5-1.6A1.816,1.816,0,0,0,132.7,22.8Z" fill="#fff"/><path d="M142.3,30.3a4.378,4.378,0,0,1-3.2-1.2,4.316,4.316,0,0,1-1.1-3.2,4.859,4.859,0,0,1,1.1-3.3,3.7,3.7,0,0,1,2.9-1.2,3.62,3.62,0,0,1,2.7,1,3.8,3.8,0,0,1,1,2.9v1h-5.8a2.738,2.738,0,0,0,.7,1.9,2.139,2.139,0,0,0,1.8.7,6.149,6.149,0,0,0,1.4-.1,12.129,12.129,0,0,0,1.4-.5v1.5a5.782,5.782,0,0,1-1.4.5Zm-.4-7.5a1.678,1.678,0,0,0-1.4.6,2.578,2.578,0,0,0-.6,1.6h3.9a2.348,2.348,0,0,0-.5-1.6A1.678,1.678,0,0,0,141.9,22.8Z" fill="#fff"/><path d="M152.1,30.2V18.8H154V30.2h-1.9Z" fill="#fff"/><path d="M160,28.9a5.853,5.853,0,0,0,1.3-.2V30a1.884,1.884,0,0,1-.8.2c-.3,0-.7.1-1,.1-1.7,0-2.6-.9-2.6-2.8V22.8h-1.2V22l1.3-.7.6-1.8h1.1v1.9h2.5v1.4h-2.5v4.6a1.493,1.493,0,0,0,.3,1A1.107,1.107,0,0,0,160,28.9Z" fill="#fff"/><path d="M166.8,30.3a4.378,4.378,0,0,1-3.2-1.2,4.316,4.316,0,0,1-1.1-3.2,4.859,4.859,0,0,1,1.1-3.3,3.7,3.7,0,0,1,2.9-1.2,3.62,3.62,0,0,1,2.7,1,3.8,3.8,0,0,1,1,2.9v1h-5.8a2.738,2.738,0,0,0,.7,1.9,2.139,2.139,0,0,0,1.8.7,6.149,6.149,0,0,0,1.4-.1,12.129,12.129,0,0,0,1.4-.5v1.5a5.782,5.782,0,0,1-1.4.5Zm-.3-7.5a1.678,1.678,0,0,0-1.4.6,2.578,2.578,0,0,0-.6,1.6h3.9a2.348,2.348,0,0,0-.5-1.6A1.816,1.816,0,0,0,166.5,22.8Z" fill="#fff"/><path d="M179.5,30.2h-1.8V24.9a2.076,2.076,0,0,0-.4-1.5,1.5,1.5,0,0,0-1.2-.5,1.865,1.865,0,0,0-1.6.7,4.352,4.352,0,0,0-.5,2.3v4.3h-1.8V21.6h1.4l.3,1.1h.1a3.178,3.178,0,0,1,1-1,4.013,4.013,0,0,1,1.5-.3,2.6,2.6,0,0,1,2.6,1.4h.1a2.66,2.66,0,0,1,1.1-1,4.193,4.193,0,0,1,1.6-.4,3.2,3.2,0,0,1,2.3.8,3.286,3.286,0,0,1,.7,2.4v5.6h-1.8V24.9a2.076,2.076,0,0,0-.4-1.5,1.5,1.5,0,0,0-1.2-.5,1.865,1.865,0,0,0-1.6.7,3.576,3.576,0,0,0-.5,2.1v4.5Z" fill="#fff"/><g transform="translate(48 12)"><path d="M0,0H24V24H0Z" fill="none"/><path d="M11.8,15.5a1.421,1.421,0,0,1-.6-.2L6,10.1,7.1,9l4.7,4.7L16.4,9l1.1,1.1-5.2,5.2C12.2,15.5,12,15.5,11.8,15.5Z" fill="#90939f"/></g><g transform="translate(80 12)"><rect width="24" height="24" fill="none"/><path d="M2,0H14a2.006,2.006,0,0,1,2,2V14a2.006,2.006,0,0,1-2,2H2a2.006,2.006,0,0,1-2-2V2A2.006,2.006,0,0,1,2,0Z" transform="translate(4 4)" fill="none"/><path d="M2,1H14a.945.945,0,0,1,1,1V14a.945.945,0,0,1-1,1H2a.945.945,0,0,1-1-1V2A.945.945,0,0,1,2,1Z" transform="translate(4 4)" fill="none" stroke="#90939f" stroke-width="2"/></g></g><g transform="translate(235 3655)"><rect width="318" height="48" fill="rgba(1,154,235,0.3)" stroke="#019aeb" stroke-width="1"/><path d="M85.8,30.2H83.4V20.8H80.3v-2h8.6v2H85.8Z" fill="#fff"/><path d="M95.4,21.3a1.949,1.949,0,0,1,.8.1L96,23.6a1.483,1.483,0,0,0-.7-.1,2.445,2.445,0,0,0-1.8.6,2.111,2.111,0,0,0-.6,1.6v4.4H90.5V21.4h1.8l.4,1.5h.1a3.179,3.179,0,0,1,1.1-1.2A2.6,2.6,0,0,1,95.4,21.3Z" fill="#fff"/><path d="M101.7,30.3a4.152,4.152,0,0,1-4.5-4.5,4.954,4.954,0,0,1,1.1-3.4,3.773,3.773,0,0,1,3-1.2,4,4,0,0,1,2.9,1.1,3.945,3.945,0,0,1,1,2.9v1.2H99.6a2.065,2.065,0,0,0,2.2,2.2,7.719,7.719,0,0,0,1.5-.2,8.8,8.8,0,0,0,1.5-.5v1.8a6.943,6.943,0,0,1-1.3.5A9.722,9.722,0,0,1,101.7,30.3Zm-.3-7.3a1.656,1.656,0,0,0-1.2.5,1.978,1.978,0,0,0-.5,1.4H103a2.168,2.168,0,0,0-.5-1.4A1.173,1.173,0,0,0,101.4,23Z" fill="#fff"/><path d="M111.2,30.3a4.152,4.152,0,0,1-4.5-4.5,4.954,4.954,0,0,1,1.1-3.4,3.773,3.773,0,0,1,3-1.2,4,4,0,0,1,2.9,1.1,3.945,3.945,0,0,1,1,2.9v1.2h-5.6a2.065,2.065,0,0,0,2.2,2.2,7.719,7.719,0,0,0,1.5-.2,8.8,8.8,0,0,0,1.5-.5v1.8a6.943,6.943,0,0,1-1.3.5A10.283,10.283,0,0,1,111.2,30.3Zm-.3-7.3a1.656,1.656,0,0,0-1.2.5,1.978,1.978,0,0,0-.5,1.4h3.3a2.168,2.168,0,0,0-.5-1.4A1.173,1.173,0,0,0,110.9,23Z" fill="#fff"/><path d="M121,30.2V18.8h2.4V30.2H121Z" fill="#fff"/><path d="M129.8,28.4a4.936,4.936,0,0,0,1.5-.3v1.8a4.813,4.813,0,0,1-2.2.4,2.674,2.674,0,0,1-2.1-.7,3.393,3.393,0,0,1-.7-2.2V23.2h-1.1v-1l1.3-.8.7-1.8h1.5v1.9h2.4v1.8h-2.4v4.2a1.136,1.136,0,0,0,.3.8A2.2,2.2,0,0,0,129.8,28.4Z" fill="#fff"/><path d="M137,30.3a4.152,4.152,0,0,1-4.5-4.5,4.954,4.954,0,0,1,1.1-3.4,3.773,3.773,0,0,1,3-1.2,4,4,0,0,1,2.9,1.1,3.945,3.945,0,0,1,1,2.9v1.2H135a2.065,2.065,0,0,0,2.2,2.2,7.719,7.719,0,0,0,1.5-.2,8.8,8.8,0,0,0,1.5-.5v1.8a6.943,6.943,0,0,1-1.3.5A11.483,11.483,0,0,1,137,30.3Zm-.3-7.3a1.656,1.656,0,0,0-1.2.5,1.978,1.978,0,0,0-.5,1.4h3.3a2.168,2.168,0,0,0-.5-1.4A1.173,1.173,0,0,0,136.7,23Z" fill="#fff"/><path d="M150.4,30.2H148V25.1a2.649,2.649,0,0,0-.3-1.4,1.1,1.1,0,0,0-1-.5,1.269,1.269,0,0,0-1.3.7,4.087,4.087,0,0,0-.4,2.2v4.1h-2.4V21.5h1.8l.3,1.1h.1a2.189,2.189,0,0,1,1-.9,3.653,3.653,0,0,1,1.5-.3,2.787,2.787,0,0,1,2.7,1.3h.2a2.189,2.189,0,0,1,1-.9,4.013,4.013,0,0,1,1.5-.3,2.947,2.947,0,0,1,2.2.8,3.293,3.293,0,0,1,.8,2.4v5.7h-2.4V25.3a2.649,2.649,0,0,0-.3-1.4,1.1,1.1,0,0,0-1-.5,1.486,1.486,0,0,0-1.3.6,3.524,3.524,0,0,0-.4,2v4.2Z" fill="#fff"/><g transform="translate(16 12)"><path d="M0,0H24V24H0Z" fill="none"/><path d="M11.8,15.5a1.421,1.421,0,0,1-.6-.2L6,10.1,7.1,9l4.7,4.7L16.4,9l1.1,1.1-5.2,5.2C12.2,15.5,12,15.5,11.8,15.5Z" fill="#90939f"/></g><g transform="translate(48 12)"><rect width="24" height="24" fill="none"/><path d="M6,4H18a2.006,2.006,0,0,1,2,2V18a2.006,2.006,0,0,1-2,2H6a2.006,2.006,0,0,1-2-2V6A2.006,2.006,0,0,1,6,4Z" fill="#019aeb"/><path d="M10.4,16l-4-4,1.1-1.1,2.9,2.9,6.1-6.1,1.1,1.1Z" fill="#fff"/></g></g><g transform="translate(235 3607)"><rect width="320" height="48" fill="#171c1e"/><path d="M85.1,30.2H83.8V19.9H80.2V18.7h8.6v1.2H85.2V30.2Z" fill="#fff"/><path d="M94.1,21.5a3.083,3.083,0,0,1,1,.1L95,22.8a3.445,3.445,0,0,0-.9-.1,2.5,2.5,0,0,0-1.8.8,2.971,2.971,0,0,0-.7,2.1v4.6H90.3V21.6h1.1l.1,1.6h.1a3.611,3.611,0,0,1,1.1-1.3A2.3,2.3,0,0,1,94.1,21.5Z" fill="#fff"/><path d="M100.4,30.3a3.773,3.773,0,0,1-3-1.2,4.591,4.591,0,0,1-1.1-3.2,4.826,4.826,0,0,1,1-3.3,3.424,3.424,0,0,1,2.7-1.2,3.1,3.1,0,0,1,2.5,1.1,4.1,4.1,0,0,1,.9,2.8v.8H97.5a3.2,3.2,0,0,0,.8,2.3,2.792,2.792,0,0,0,2,.8,6.6,6.6,0,0,0,2.7-.6v1.2a9.288,9.288,0,0,1-1.3.4A4.512,4.512,0,0,1,100.4,30.3Zm-.4-7.7a1.865,1.865,0,0,0-1.6.7,2.738,2.738,0,0,0-.7,1.9h4.5a3.557,3.557,0,0,0-.5-1.9A2.193,2.193,0,0,0,100,22.6Z" fill="#fff"/><path d="M109.4,30.3a3.773,3.773,0,0,1-3-1.2,4.591,4.591,0,0,1-1.1-3.2,4.826,4.826,0,0,1,1-3.3,3.424,3.424,0,0,1,2.7-1.2,3.1,3.1,0,0,1,2.5,1.1,4.1,4.1,0,0,1,.9,2.8v.8h-5.9a3.2,3.2,0,0,0,.8,2.3,2.792,2.792,0,0,0,2,.8,6.6,6.6,0,0,0,2.7-.6v1.2a9.288,9.288,0,0,1-1.3.4A4.888,4.888,0,0,1,109.4,30.3Zm-.4-7.7a1.865,1.865,0,0,0-1.6.7,2.738,2.738,0,0,0-.7,1.9h4.5a3.557,3.557,0,0,0-.5-1.9A2.193,2.193,0,0,0,109,22.6Z" fill="#fff"/><path d="M119.1,30.2V18.8h1.3V30.2h-1.3Z" fill="#fff"/><path d="M126.1,29.3a1.7,1.7,0,0,0,.7-.1,4.331,4.331,0,0,0,.5-.1v1c-.1.1-.3.1-.6.2a1.952,1.952,0,0,1-.7.1c-1.7,0-2.5-.9-2.5-2.6V22.7h-1.2V22l1.2-.5.5-1.8h.8v2h2.5v1h-2.5v5a1.594,1.594,0,0,0,.4,1.2A1.1,1.1,0,0,0,126.1,29.3Z" fill="#fff"/><path d="M132.6,30.3a3.773,3.773,0,0,1-3-1.2,4.591,4.591,0,0,1-1.1-3.2,4.826,4.826,0,0,1,1-3.3,3.424,3.424,0,0,1,2.7-1.2,3.1,3.1,0,0,1,2.5,1.1,4.1,4.1,0,0,1,.9,2.8v.8h-5.9a3.2,3.2,0,0,0,.8,2.3,2.792,2.792,0,0,0,2,.8,6.6,6.6,0,0,0,2.7-.6v1.2a9.287,9.287,0,0,1-1.3.4A4.153,4.153,0,0,1,132.6,30.3Zm-.4-7.7a1.865,1.865,0,0,0-1.6.7,2.738,2.738,0,0,0-.7,1.9h4.5a3.557,3.557,0,0,0-.5-1.9A2.193,2.193,0,0,0,132.2,22.6Z" fill="#fff"/><path d="M148.9,30.2V24.6a2.076,2.076,0,0,0-.4-1.5,1.813,1.813,0,0,0-1.4-.5,2.139,2.139,0,0,0-1.8.7,3.281,3.281,0,0,0-.6,2.1v4.8h-1.3V24.6a2.076,2.076,0,0,0-.4-1.5,1.813,1.813,0,0,0-1.4-.5,2.139,2.139,0,0,0-1.8.7,3.845,3.845,0,0,0-.6,2.4v4.5H138V21.6h1.1l.2,1.2h.1a3.178,3.178,0,0,1,1-1,2.41,2.41,0,0,1,1.5-.4,2.52,2.52,0,0,1,2.6,1.5h.1a3.838,3.838,0,0,1,1.1-1.1,3.064,3.064,0,0,1,1.7-.4,2.918,2.918,0,0,1,2.2.7,3.286,3.286,0,0,1,.7,2.4v5.6h-1.4Z" fill="#fff"/><g transform="translate(16 36) rotate(-90)"><path d="M0,0H24V24H0Z" fill="none"/><path d="M11.8,15.5a1.421,1.421,0,0,1-.6-.2L6,10.1,7.1,9l4.7,4.7L16.4,9l1.1,1.1-5.2,5.2C12.2,15.5,12,15.5,11.8,15.5Z" fill="#90939f"/></g><g transform="translate(48 12)"><rect width="24" height="24" fill="none"/><path d="M2,0H14a2.006,2.006,0,0,1,2,2V14a2.006,2.006,0,0,1-2,2H2a2.006,2.006,0,0,1-2-2V2A2.006,2.006,0,0,1,2,0Z" transform="translate(4 4)" fill="none"/><path d="M2,1H14a.945.945,0,0,1,1,1V14a.945.945,0,0,1-1,1H2a.945.945,0,0,1-1-1V2A.945.945,0,0,1,2,1Z" transform="translate(4 4)" fill="none" stroke="#90939f" stroke-width="2"/></g></g><g transform="translate(235 3559)"><rect width="320" height="48" fill="#171c1e"/><line x2="320" transform="translate(0 0.5)" fill="none" stroke="#464b52" stroke-width="1"/><path d="M85.1,30.2H83.8V19.9H80.2V18.7h8.6v1.2H85.2V30.2Z" fill="#fff"/><path d="M94.1,21.5a3.083,3.083,0,0,1,1,.1L95,22.8a3.445,3.445,0,0,0-.9-.1,2.5,2.5,0,0,0-1.8.8,2.971,2.971,0,0,0-.7,2.1v4.6H90.3V21.6h1.1l.1,1.6h.1a3.611,3.611,0,0,1,1.1-1.3A2.3,2.3,0,0,1,94.1,21.5Z" fill="#fff"/><path d="M100.4,30.3a3.773,3.773,0,0,1-3-1.2,4.591,4.591,0,0,1-1.1-3.2,4.826,4.826,0,0,1,1-3.3,3.424,3.424,0,0,1,2.7-1.2,3.1,3.1,0,0,1,2.5,1.1,4.1,4.1,0,0,1,.9,2.8v.8H97.5a3.2,3.2,0,0,0,.8,2.3,2.792,2.792,0,0,0,2,.8,6.6,6.6,0,0,0,2.7-.6v1.2a9.288,9.288,0,0,1-1.3.4A4.512,4.512,0,0,1,100.4,30.3Zm-.4-7.7a1.865,1.865,0,0,0-1.6.7,2.738,2.738,0,0,0-.7,1.9h4.5a3.557,3.557,0,0,0-.5-1.9A2.193,2.193,0,0,0,100,22.6Z" fill="#fff"/><path d="M109.4,30.3a3.773,3.773,0,0,1-3-1.2,4.591,4.591,0,0,1-1.1-3.2,4.826,4.826,0,0,1,1-3.3,3.424,3.424,0,0,1,2.7-1.2,3.1,3.1,0,0,1,2.5,1.1,4.1,4.1,0,0,1,.9,2.8v.8h-5.9a3.2,3.2,0,0,0,.8,2.3,2.792,2.792,0,0,0,2,.8,6.6,6.6,0,0,0,2.7-.6v1.2a9.288,9.288,0,0,1-1.3.4A4.888,4.888,0,0,1,109.4,30.3Zm-.4-7.7a1.865,1.865,0,0,0-1.6.7,2.738,2.738,0,0,0-.7,1.9h4.5a3.557,3.557,0,0,0-.5-1.9A2.193,2.193,0,0,0,109,22.6Z" fill="#fff"/><path d="M119.1,30.2V18.8h1.3V30.2h-1.3Z" fill="#fff"/><path d="M126.1,29.3a1.7,1.7,0,0,0,.7-.1,4.331,4.331,0,0,0,.5-.1v1c-.1.1-.3.1-.6.2a1.952,1.952,0,0,1-.7.1c-1.7,0-2.5-.9-2.5-2.6V22.7h-1.2V22l1.2-.5.5-1.8h.8v2h2.5v1h-2.5v5a1.594,1.594,0,0,0,.4,1.2A1.1,1.1,0,0,0,126.1,29.3Z" fill="#fff"/><path d="M132.6,30.3a3.773,3.773,0,0,1-3-1.2,4.591,4.591,0,0,1-1.1-3.2,4.826,4.826,0,0,1,1-3.3,3.424,3.424,0,0,1,2.7-1.2,3.1,3.1,0,0,1,2.5,1.1,4.1,4.1,0,0,1,.9,2.8v.8h-5.9a3.2,3.2,0,0,0,.8,2.3,2.792,2.792,0,0,0,2,.8,6.6,6.6,0,0,0,2.7-.6v1.2a9.287,9.287,0,0,1-1.3.4A4.153,4.153,0,0,1,132.6,30.3Zm-.4-7.7a1.865,1.865,0,0,0-1.6.7,2.738,2.738,0,0,0-.7,1.9h4.5a3.557,3.557,0,0,0-.5-1.9A2.193,2.193,0,0,0,132.2,22.6Z" fill="#fff"/><path d="M148.9,30.2V24.6a2.076,2.076,0,0,0-.4-1.5,1.813,1.813,0,0,0-1.4-.5,2.139,2.139,0,0,0-1.8.7,3.281,3.281,0,0,0-.6,2.1v4.8h-1.3V24.6a2.076,2.076,0,0,0-.4-1.5,1.813,1.813,0,0,0-1.4-.5,2.139,2.139,0,0,0-1.8.7,3.845,3.845,0,0,0-.6,2.4v4.5H138V21.6h1.1l.2,1.2h.1a3.178,3.178,0,0,1,1-1,2.41,2.41,0,0,1,1.5-.4,2.52,2.52,0,0,1,2.6,1.5h.1a3.838,3.838,0,0,1,1.1-1.1,3.064,3.064,0,0,1,1.7-.4,2.918,2.918,0,0,1,2.2.7,3.286,3.286,0,0,1,.7,2.4v5.6h-1.4Z" fill="#fff"/><g transform="translate(16 36) rotate(-90)"><path d="M0,0H24V24H0Z" fill="none"/><path d="M11.8,15.5a1.421,1.421,0,0,1-.6-.2L6,10.1,7.1,9l4.7,4.7L16.4,9l1.1,1.1-5.2,5.2C12.2,15.5,12,15.5,11.8,15.5Z" fill="#90939f"/></g><g transform="translate(48 12)"><rect width="24" height="24" fill="none"/><path d="M2,0H14a2.006,2.006,0,0,1,2,2V14a2.006,2.006,0,0,1-2,2H2a2.006,2.006,0,0,1-2-2V2A2.006,2.006,0,0,1,2,0Z" transform="translate(4 4)" fill="none"/><path d="M2,1H14a.945.945,0,0,1,1,1V14a.945.945,0,0,1-1,1H2a.945.945,0,0,1-1-1V2A.945.945,0,0,1,2,1Z" transform="translate(4 4)" fill="none" stroke="#90939f" stroke-width="2"/></g></g></g><g transform="translate(707 5739)"><rect width="8" height="480" transform="translate(336 16)" fill="#252a2e"/><path d="M340,128h0a4.012,4.012,0,0,1,4,4v88a4.012,4.012,0,0,1-4,4h0a4.012,4.012,0,0,1-4-4V132A4.012,4.012,0,0,1,340,128Z" fill="#585c65"/></g><g transform="translate(116 4293)"><rect width="321" height="80" transform="translate(614 1382)" fill="#171c1e"/><g transform="translate(863 1430)"><path d="M0,0H24V24H0Z" fill="none"/><path d="M11,18a2,2,0,1,1-2-2A2.006,2.006,0,0,1,11,18ZM9,10a2,2,0,1,0,2,2A2.006,2.006,0,0,0,9,10ZM9,4a2,2,0,1,0,2,2A2.006,2.006,0,0,0,9,4Zm6,4a2,2,0,1,0-2-2A2.006,2.006,0,0,0,15,8Zm0,2a2,2,0,1,0,2,2A2.006,2.006,0,0,0,15,10Zm0,6a2,2,0,1,0,2,2A2.006,2.006,0,0,0,15,16Z" fill="#fff"/></g><g transform="translate(622 1390)"><path d="M2,0H303a2.006,2.006,0,0,1,2,2V32H0V2A2.006,2.006,0,0,1,2,0Z" fill="#171c1e"/><path d="M2,.5H303A1.538,1.538,0,0,1,304.5,2V31.5H.5V2A1.538,1.538,0,0,1,2,.5Z" fill="none" stroke="#464b52" stroke-width="1"/><rect width="305" height="1" transform="translate(0 31)" fill="#6a6e79"/><g transform="translate(8 6)"><path d="M0,0H20V20H0Z" fill="none"/><path d="M12.6,11.5H12l-.2-.2a5.559,5.559,0,1,0-.6.5l.2.2v.6l3.9,3.8,1.1-1.1ZM8,11.5A3.543,3.543,0,0,1,4.5,8,3.543,3.543,0,0,1,8,4.5,3.543,3.543,0,0,1,11.5,8h0A3.543,3.543,0,0,1,8,11.5Z" fill="#6a6e79"/></g><path d="M42,17.7a2.342,2.342,0,0,1-.8,1.8,3.041,3.041,0,0,1-2.2.6,4.744,4.744,0,0,1-2.3-.4v-1c.4.1.7.3,1.1.4a4.869,4.869,0,0,0,1.2.1,2.076,2.076,0,0,0,1.5-.4,1.408,1.408,0,0,0,.3-1.8,1.024,1.024,0,0,0-.6-.5c-.3-.1-.7-.3-1.2-.5a3.8,3.8,0,0,1-1.7-1,2.456,2.456,0,0,1-.5-1.5,1.865,1.865,0,0,1,.7-1.6,3.173,3.173,0,0,1,2-.6,5.555,5.555,0,0,1,2.3.5l-.3.9a5.222,5.222,0,0,0-2.1-.4,2.133,2.133,0,0,0-1.2.3.975.975,0,0,0-.4.9,1.445,1.445,0,0,0,.2.7,1.024,1.024,0,0,0,.6.5c.3.1.7.3,1.2.5a6.487,6.487,0,0,1,1.9,1C42.1,16.5,42,17.1,42,17.7Z" fill="#b7b9c3"/><path d="M46.3,20.1a2.792,2.792,0,0,1-2.2-.9,3.649,3.649,0,0,1-.8-2.4,3.936,3.936,0,0,1,.8-2.5,2.78,2.78,0,0,1,4-.1,2.817,2.817,0,0,1,.7,2.1V17H44.4a2.2,2.2,0,0,0,.6,1.7,2.035,2.035,0,0,0,1.5.6,5.222,5.222,0,0,0,2.1-.4v.9a3.81,3.81,0,0,1-1,.3Zm-.2-5.8a1.656,1.656,0,0,0-1.2.5,1.978,1.978,0,0,0-.5,1.4h3.4a1.955,1.955,0,0,0-.4-1.4A1.9,1.9,0,0,0,46.1,14.3Z" fill="#b7b9c3"/><path d="M54.3,20l-.2-.9h0a1.891,1.891,0,0,1-1,.8,4.3,4.3,0,0,1-1.2.2,2.456,2.456,0,0,1-1.5-.5,1.624,1.624,0,0,1-.5-1.4c0-1.3,1-2,3.1-2h1.1v-.4a1.609,1.609,0,0,0-.3-1.1,1.528,1.528,0,0,0-1-.4,4.925,4.925,0,0,0-1.8.5l-.4-.8a4.179,4.179,0,0,1,1-.4,4.1,4.1,0,0,1,1.1-.1,2.648,2.648,0,0,1,1.7.5,1.969,1.969,0,0,1,.6,1.6V20Zm-2.2-.7A1.736,1.736,0,0,0,54,17.4v-.6H53a2.674,2.674,0,0,0-1.7.4,1.016,1.016,0,0,0-.5,1,.984.984,0,0,0,.3.8A1.493,1.493,0,0,0,52.1,19.3Z" fill="#b7b9c3"/><path d="M60,13.5a2.2,2.2,0,0,1,.8.1l-.1.9a1.952,1.952,0,0,0-.7-.1,1.612,1.612,0,0,0-1.3.6,2.637,2.637,0,0,0-.7,1.6V20H57V13.6h.8l.1,1.2h0a2.836,2.836,0,0,1,.9-1A1.8,1.8,0,0,1,60,13.5Z" fill="#b7b9c3"/><path d="M64.5,20.1a2.94,2.94,0,0,1-2.2-.9,3.188,3.188,0,0,1-.8-2.4,3.742,3.742,0,0,1,.8-2.5,3.345,3.345,0,0,1,3.1-.8c.3.1.6.1.7.2l-.3.8a1.445,1.445,0,0,0-.7-.2c-.3,0-.5-.1-.7-.1-1.3,0-2,.8-2,2.5a2.969,2.969,0,0,0,.5,1.8,1.678,1.678,0,0,0,1.4.6,4.529,4.529,0,0,0,1.6-.3v.9C65.7,20,65.1,20.1,64.5,20.1Z" fill="#b7b9c3"/><path d="M72,20V15.8a1.594,1.594,0,0,0-.4-1.2,1.366,1.366,0,0,0-1.1-.4,1.755,1.755,0,0,0-1.5.6,2.969,2.969,0,0,0-.5,1.8V20h-1V10.9h1v3.6h.1a1.779,1.779,0,0,1,.8-.7,4.22,4.22,0,0,1,1.2-.3,2.445,2.445,0,0,1,1.8.6,2.445,2.445,0,0,1,.6,1.8V20Z" fill="#b7b9c3"/><g transform="translate(277 8)" opacity="0"><rect width="16" height="16" fill="none"/><path d="M12,4.8,11.2,4,8,7.2,4.8,4,4,4.8,7.2,8,4,11.2l.8.8L8,8.8,11.2,12l.8-.8L8.8,8Z" fill="#6a6e79"/></g></g><g transform="translate(903 1430)"><path d="M0,0H24V24H0Z" fill="none"/><path d="M7.4,18.6,8.8,20,12,16.8,15.2,20l1.4-1.4L12,14ZM16.6,5.4,15.2,4,12,7.2,8.8,4,7.4,5.4,12,10Z" fill="#fff"/></g><g transform="translate(825.026 1430)"><path d="M0,0H24V24H0Z" fill="none"/><path d="M19,13H13v6H11V13H5V11h6V5h2v6h6Z" fill="#fff"/></g><g transform="translate(742 1426)"><path d="M2,0H30a2.006,2.006,0,0,1,2,2V30a2.006,2.006,0,0,1-2,2H2a2.006,2.006,0,0,1-2-2V2A2.006,2.006,0,0,1,2,0Z" fill="rgba(214,213,219,0)"/></g><g transform="translate(707.789 1430)"><path d="M0,0H24V24H0Z" fill="none"/><path d="M6,19a2.006,2.006,0,0,0,2,2h8a2.006,2.006,0,0,0,2-2V7H6ZM19,4H15.5l-1-1h-5l-1,1H5V6H19Z" fill="#fff"/></g><g transform="translate(746.868 1430)"><path d="M0,0H24V24H0Z" fill="none"/><path d="M16,1H4A2.006,2.006,0,0,0,2,3V17H4V3H16Zm3,4H8A2.006,2.006,0,0,0,6,7V21a2.006,2.006,0,0,0,2,2H19a2.006,2.006,0,0,0,2-2V7A2.006,2.006,0,0,0,19,5Zm0,16H8V7H19Z" fill="#fff"/></g><g transform="translate(782 1426)"><path d="M2,0H30a2.006,2.006,0,0,1,2,2V30a2.006,2.006,0,0,1-2,2H2a2.006,2.006,0,0,1-2-2V2A2.006,2.006,0,0,1,2,0Z" fill="none"/><g transform="translate(4 4)"><g opacity="0"><rect width="24" height="24" fill="none"/><rect width="23" height="23" transform="translate(0.5 0.5)" fill="none" stroke="#fff" stroke-miterlimit="10" stroke-width="1"/></g><path d="M3,17.2V21H6.8L17.9,9.9,14.1,6.1ZM20.7,7a.967.967,0,0,0,0-1.4L18.4,3.3a.967.967,0,0,0-1.4,0L15.2,5.1,19,8.9Z" fill="#363545"/></g></g></g></g><rect width="6" height="288" transform="translate(38 246)" fill="#019aeb"/><rect width="6" height="287" transform="translate(405 246)" fill="#019aeb"/></svg>