<svg xmlns="http://www.w3.org/2000/svg" width="790" height="249"><g data-name="Group 156780"><g data-name="Rectangle 3463"><path data-name="Rectangle 3505" fill="#353a40" d="M0 0h790v249H0z"/><path data-name="Rectangle 3506" fill="none" stroke="#cbcdd6" d="M.5.5h789v248H.5z"/></g><g data-name="Group 156720"><g data-name="tree-item-icons-level 1"><path data-name="Rectangle 3345" fill="#171c1e" d="M230 96h320v48H230z"/><path data-name="top border" fill="none" stroke="#464b52" d="M230 96.5h320"/><path data-name="bottom border" fill="none" stroke="#464b52" d="M230 143.5h320"/><g data-name="Arrow down"><path data-name="72" d="M246 132v-24h24v24Z" fill="none"/><path data-name="71" d="M261.542 120.239a.781.781 0 0 1-.228.552L256.105 126l-1.1-1.105 4.657-4.656-4.657-4.657 1.1-1.105 5.209 5.209a.785.785 0 0 1 .228.553Z" fill="#90939f"/></g><path fill="none" d="M510 107.6h24v24h-24z"/><path d="m519.84 122.21-2.82-2.82-1.02.96 3.84 3.84 8.16-8.22-.96-.96Z" fill="#fff"/><g data-name="drag indicator black 24dp"><path data-name="0" d="M230 112h16v16h-16Z" fill="none"/><path data-name="1" d="M237.329 124.077a1.342 1.342 0 1 1-1.342-1.342 1.342 1.342 0 0 1 1.342 1.342Zm-1.342-5.367a1.342 1.342 0 1 0 1.342 1.342 1.342 1.342 0 0 0-1.342-1.342Zm0-4.026a1.342 1.342 0 1 0 1.342 1.342 1.342 1.342 0 0 0-1.342-1.342Zm4.026 2.684a1.342 1.342 0 1 0-1.342-1.342 1.342 1.342 0 0 0 1.342 1.342Zm0 1.342a1.342 1.342 0 1 0 1.342 1.342 1.342 1.342 0 0 0-1.342-1.342Zm0 4.026a1.342 1.342 0 1 0 1.342 1.342 1.342 1.342 0 0 0-1.342-1.342Z" fill="#fff"/></g><g data-name="Group 156708"><g data-name="Tree Item" style="isolation:isolate"><g data-name="Group 156762" style="isolation:isolate" fill="#fff"><path data-name="17" d="M347.086 126.19h-1.328v-10.242h-3.617v-1.18h8.559v1.18h-3.617Z"/><path data-name="18" d="M356.133 117.471a5.107 5.107 0 0 1 1.023.094l-.179 1.2a4.433 4.433 0 0 0-.938-.117 2.279 2.279 0 0 0-1.777.844 3.075 3.075 0 0 0-.739 2.1v4.594h-1.3v-8.562h1.07l.148 1.585h.063a3.757 3.757 0 0 1 1.148-1.289 2.594 2.594 0 0 1 1.481-.449Z"/><path data-name="19" d="M362.375 126.346a3.931 3.931 0 0 1-3-1.156 4.473 4.473 0 0 1-1.1-3.211 4.964 4.964 0 0 1 1.02-3.289 3.386 3.386 0 0 1 2.738-1.219 3.229 3.229 0 0 1 2.547 1.059 4.058 4.058 0 0 1 .937 2.793v.82h-5.9a3.392 3.392 0 0 0 .762 2.289 2.632 2.632 0 0 0 2.035.781 6.884 6.884 0 0 0 2.734-.578v1.157a6.847 6.847 0 0 1-1.3.425 7.3 7.3 0 0 1-1.473.129Zm-.352-7.789a2.117 2.117 0 0 0-1.644.672 3.1 3.1 0 0 0-.723 1.859h4.477a2.852 2.852 0 0 0-.547-1.878 1.927 1.927 0 0 0-1.563-.653Z"/><path data-name="20" d="M371.352 126.346a3.935 3.935 0 0 1-3-1.156 4.478 4.478 0 0 1-1.1-3.211 4.969 4.969 0 0 1 1.019-3.289 3.39 3.39 0 0 1 2.739-1.219 3.228 3.228 0 0 1 2.546 1.059 4.058 4.058 0 0 1 .938 2.793v.82h-5.9a3.386 3.386 0 0 0 .761 2.289 2.634 2.634 0 0 0 2.035.781 6.892 6.892 0 0 0 2.735-.578v1.157a6.868 6.868 0 0 1-1.3.425 7.3 7.3 0 0 1-1.473.129Zm-.352-7.789a2.118 2.118 0 0 0-1.645.672 3.1 3.1 0 0 0-.722 1.859h4.476a2.846 2.846 0 0 0-.547-1.878 1.923 1.923 0 0 0-1.562-.653Z"/><path data-name="21" d="M381.062 126.19v-11.422h1.329v11.422Z"/><path data-name="22" d="M388.094 125.276a4.224 4.224 0 0 0 .664-.051 4.47 4.47 0 0 0 .508-.1v.992a2.4 2.4 0 0 1-.621.168 4.706 4.706 0 0 1-.739.066q-2.484 0-2.484-2.617v-5.094H384.2v-.625l1.227-.539.547-1.828h.75v1.985h2.476v1.007h-2.484v5.039a1.733 1.733 0 0 0 .367 1.188 1.279 1.279 0 0 0 1.011.409Z"/><path data-name="23" d="M394.594 126.346a3.931 3.931 0 0 1-3-1.156 4.474 4.474 0 0 1-1.1-3.211 4.964 4.964 0 0 1 1.02-3.289 3.386 3.386 0 0 1 2.738-1.219 3.229 3.229 0 0 1 2.547 1.059 4.058 4.058 0 0 1 .937 2.793v.82h-5.9a3.4 3.4 0 0 0 .761 2.289 2.636 2.636 0 0 0 2.036.781 6.888 6.888 0 0 0 2.734-.578v1.157a6.892 6.892 0 0 1-1.3.425 7.3 7.3 0 0 1-1.473.129Zm-.352-7.789a2.116 2.116 0 0 0-1.644.672 3.089 3.089 0 0 0-.723 1.859h4.477a2.852 2.852 0 0 0-.547-1.878 1.927 1.927 0 0 0-1.563-.653Z"/><path data-name="24" d="M410.867 126.19v-5.57a2.312 2.312 0 0 0-.437-1.535 1.694 1.694 0 0 0-1.36-.512 2.193 2.193 0 0 0-1.789.695 3.308 3.308 0 0 0-.578 2.141v4.781h-1.3v-5.57a2.312 2.312 0 0 0-.437-1.535 1.7 1.7 0 0 0-1.367-.512 2.118 2.118 0 0 0-1.786.73 3.953 3.953 0 0 0-.566 2.4v4.492h-1.3v-8.562h1.055l.211 1.171h.062a2.539 2.539 0 0 1 1.035-.976 3.157 3.157 0 0 1 1.5-.352 2.546 2.546 0 0 1 2.625 1.453h.065a2.732 2.732 0 0 1 1.109-1.062 3.44 3.44 0 0 1 1.657-.391 2.9 2.9 0 0 1 2.175.746 3.336 3.336 0 0 1 .723 2.387v5.586Z"/></g></g><g data-name="folder icon"><path data-name="21" d="M310 108h24v24h-24Z" fill="none"/><path data-name="22" d="M320.4 114h-4.8a1.55 1.55 0 0 0-1.592 1.5l-.008 9a1.557 1.557 0 0 0 1.6 1.5h12.8a1.557 1.557 0 0 0 1.6-1.5V117a1.557 1.557 0 0 0-1.6-1.5H322Z" fill="#fff"/></g><g fill="none"><path d="M278 108h24v24h-24z"/><g transform="translate(-288.5 -56.643)"><rect data-name="Rectangle 3507" width="16" height="16" rx="2" transform="translate(570.5 168.643)"/><rect data-name="Rectangle 3508" width="14" height="14" rx="1" transform="translate(571.5 169.643)" stroke="#90939f" stroke-width="2"/></g></g></g></g><g data-name="Drag icon size: 1616 px color: Trimble Gray 252a2e" style="isolation:isolate" fill="#f0d"><g data-name="Group 156763" style="isolation:isolate"><path data-name="25" d="M160.162 112.362a3.6 3.6 0 0 1-.96 2.7 3.794 3.794 0 0 1-2.761.935h-1.978v-7.14h2.188a3.2 3.2 0 0 1 3.511 3.5Zm-.879.03a2.876 2.876 0 0 0-.7-2.105 2.807 2.807 0 0 0-2.082-.708h-1.207v5.7h1.006a3.076 3.076 0 0 0 2.232-.729 2.893 2.893 0 0 0 .751-2.158Z"/><path data-name="26" d="M164.083 110.551a3.177 3.177 0 0 1 .639.058l-.112.752a2.813 2.813 0 0 0-.586-.073 1.429 1.429 0 0 0-1.111.527 1.923 1.923 0 0 0-.461 1.314V116h-.811v-5.351h.669l.093.991h.039a2.354 2.354 0 0 1 .718-.806 1.618 1.618 0 0 1 .923-.283Z"/><path data-name="27" d="m169.024 116-.161-.762h-.039a2.263 2.263 0 0 1-.8.682 2.449 2.449 0 0 1-.994.178 1.787 1.787 0 0 1-1.247-.41 1.5 1.5 0 0 1-.452-1.167q0-1.622 2.593-1.7l.908-.029v-.335a1.36 1.36 0 0 0-.271-.931 1.12 1.12 0 0 0-.867-.3 3.52 3.52 0 0 0-1.513.41l-.249-.62a3.887 3.887 0 0 1 1.811-.459 2.042 2.042 0 0 1 1.419.424 1.778 1.778 0 0 1 .461 1.363v3.652Zm-1.831-.571a1.647 1.647 0 0 0 1.189-.415 1.536 1.536 0 0 0 .432-1.162v-.484l-.81.034a2.941 2.941 0 0 0-1.394.3.9.9 0 0 0-.427.827.833.833 0 0 0 .266.669 1.1 1.1 0 0 0 .744.231Z"/><path data-name="28" d="M175.685 110.649v.512l-.992.117a1.748 1.748 0 0 1 .352 1.07 1.583 1.583 0 0 1-.537 1.255 2.17 2.17 0 0 1-1.475.468 2.376 2.376 0 0 1-.449-.039.8.8 0 0 0-.518.689.347.347 0 0 0 .181.324 1.321 1.321 0 0 0 .62.1h.947a2.123 2.123 0 0 1 1.336.367 1.27 1.27 0 0 1 .466 1.064 1.52 1.52 0 0 1-.713 1.355 3.813 3.813 0 0 1-2.08.466 2.837 2.837 0 0 1-1.618-.39 1.26 1.26 0 0 1-.569-1.1 1.238 1.238 0 0 1 .312-.844 1.6 1.6 0 0 1 .879-.484.842.842 0 0 1-.344-.288.759.759 0 0 1-.139-.454.865.865 0 0 1 .156-.513 1.659 1.659 0 0 1 .493-.425 1.44 1.44 0 0 1-.676-.581 1.707 1.707 0 0 1-.261-.937 1.729 1.729 0 0 1 .527-1.355 2.151 2.151 0 0 1 1.494-.476 2.686 2.686 0 0 1 .757.1Zm-4.268 6.25a.726.726 0 0 0 .366.659 2.029 2.029 0 0 0 1.05.224 2.923 2.923 0 0 0 1.511-.305.934.934 0 0 0 .491-.828.65.65 0 0 0-.269-.6 2.075 2.075 0 0 0-1.01-.169h-.972a1.277 1.277 0 0 0-.859.264.94.94 0 0 0-.308.755Zm.439-4.537a1.09 1.09 0 0 0 .318.85 1.266 1.266 0 0 0 .884.288 1.033 1.033 0 0 0 1.186-1.152 1.064 1.064 0 0 0-1.2-1.206 1.189 1.189 0 0 0-.879.307 1.24 1.24 0 0 0-.309.913Z"/><path data-name="29" d="M179.333 109.198a.537.537 0 0 1 .136-.407.505.505 0 0 1 .679 0 .53.53 0 0 1 .142.4.537.537 0 0 1-.142.408.5.5 0 0 1-.679 0 .548.548 0 0 1-.136-.401Zm.878 6.8h-.81v-5.351h.81Z"/><path data-name="30" d="M184.079 116.098a2.286 2.286 0 0 1-1.8-.715 2.945 2.945 0 0 1-.637-2.025 3.031 3.031 0 0 1 .647-2.075 2.328 2.328 0 0 1 1.843-.732 3.61 3.61 0 0 1 .771.083 2.568 2.568 0 0 1 .606.2l-.249.689a3.767 3.767 0 0 0-.586-.178 2.572 2.572 0 0 0-.562-.071q-1.631 0-1.631 2.08a2.476 2.476 0 0 0 .4 1.513 1.386 1.386 0 0 0 1.18.528 3.611 3.611 0 0 0 1.372-.288v.717a2.919 2.919 0 0 1-1.354.274Z"/><path data-name="31" d="M191.33 113.319a2.957 2.957 0 0 1-.659 2.044 2.321 2.321 0 0 1-1.821.735 2.418 2.418 0 0 1-1.275-.337 2.221 2.221 0 0 1-.859-.967 3.366 3.366 0 0 1-.3-1.475 2.948 2.948 0 0 1 .654-2.038 2.314 2.314 0 0 1 1.817-.73 2.262 2.262 0 0 1 1.784.747 2.94 2.94 0 0 1 .659 2.021Zm-4.077 0a2.544 2.544 0 0 0 .41 1.563 1.629 1.629 0 0 0 2.415 0 2.534 2.534 0 0 0 .412-1.566 2.481 2.481 0 0 0-.412-1.549 1.45 1.45 0 0 0-1.219-.531 1.425 1.425 0 0 0-1.2.523 2.513 2.513 0 0 0-.406 1.56Z"/><path data-name="32" d="M196.423 116v-3.462a1.392 1.392 0 0 0-.3-.976 1.211 1.211 0 0 0-.932-.323 1.542 1.542 0 0 0-1.231.454 2.3 2.3 0 0 0-.39 1.5v2.808h-.811v-5.351h.659l.132.732h.039a1.653 1.653 0 0 1 .7-.613 2.265 2.265 0 0 1 1-.217 2.029 2.029 0 0 1 1.455.467 1.983 1.983 0 0 1 .488 1.491v3.491Z"/></g><g data-name="Group 156764" style="isolation:isolate"><path data-name="33" d="M132.12 129.54a1.34 1.34 0 0 1-.557 1.152 2.611 2.611 0 0 1-1.563.406 3.405 3.405 0 0 1-1.66-.337v-.752a4.067 4.067 0 0 0 .828.307 3.4 3.4 0 0 0 .852.113 1.947 1.947 0 0 0 .977-.2.7.7 0 0 0 .07-1.153 4.26 4.26 0 0 0-1.057-.525 5.787 5.787 0 0 1-1.062-.486 1.45 1.45 0 0 1-.469-.471 1.235 1.235 0 0 1-.153-.63 1.2 1.2 0 0 1 .532-1.032 2.474 2.474 0 0 1 1.46-.379 4.276 4.276 0 0 1 1.689.351l-.288.66a3.866 3.866 0 0 0-1.46-.332 1.684 1.684 0 0 0-.869.18.558.558 0 0 0-.293.5.6.6 0 0 0 .11.366 1.077 1.077 0 0 0 .354.289 8.206 8.206 0 0 0 .938.4 3.524 3.524 0 0 1 1.286.7 1.235 1.235 0 0 1 .335.873Z"/><path data-name="34" d="M133.379 124.198a.538.538 0 0 1 .137-.407.505.505 0 0 1 .679 0 .53.53 0 0 1 .141.4.537.537 0 0 1-.141.408.475.475 0 0 1-.337.134.47.47 0 0 1-.342-.134.548.548 0 0 1-.137-.401Zm.879 6.8h-.81v-5.351h.81Z"/><path data-name="35" d="M139.41 131h-3.882v-.552l2.92-4.17h-2.739v-.629h3.628v.629l-2.881 4.092h2.954Z"/><path data-name="36" d="M142.936 131.098a2.46 2.46 0 0 1-1.873-.723 2.793 2.793 0 0 1-.686-2.007 3.1 3.1 0 0 1 .637-2.055 2.117 2.117 0 0 1 1.712-.762 2.017 2.017 0 0 1 1.591.662 2.53 2.53 0 0 1 .586 1.745v.513h-3.686a2.118 2.118 0 0 0 .476 1.43 1.645 1.645 0 0 0 1.272.489 4.293 4.293 0 0 0 1.709-.362v.723a4.393 4.393 0 0 1-.813.267 4.7 4.7 0 0 1-.925.08Zm-.22-4.868a1.322 1.322 0 0 0-1.028.419 1.944 1.944 0 0 0-.452 1.163h2.8a1.784 1.784 0 0 0-.342-1.175 1.2 1.2 0 0 0-.978-.407Z"/><path data-name="37" d="M146.178 126.171q0-.658.576-.659.6 0 .6.659a.685.685 0 0 1-.161.488.64.64 0 0 1-.852.017.668.668 0 0 1-.163-.505Zm0 4.311a.735.735 0 0 1 .149-.5.544.544 0 0 1 .427-.168.583.583 0 0 1 .442.168.7.7 0 0 1 .159.5.688.688 0 0 1-.161.489.64.64 0 0 1-.852.017.67.67 0 0 1-.164-.506Z"/><path data-name="38" d="M154.206 131h-.791v-5.088q0-.634.039-1.2c-.068.068-.145.14-.229.215s-.473.392-1.163.952l-.429-.557 1.889-1.46h.684Z"/><path data-name="39" d="M157.014 127.948a5.045 5.045 0 0 1 .818-3.147 2.889 2.889 0 0 1 2.419-1.042 3.211 3.211 0 0 1 .869.093v.7a2.788 2.788 0 0 0-.859-.122 2.168 2.168 0 0 0-1.753.715 3.664 3.664 0 0 0-.664 2.249h.058a1.87 1.87 0 0 1 1.7-.84 1.994 1.994 0 0 1 1.516.581 2.193 2.193 0 0 1 .554 1.577 2.437 2.437 0 0 1-.608 1.751 2.166 2.166 0 0 1-1.643.637 2.114 2.114 0 0 1-1.758-.832 3.687 3.687 0 0 1-.649-2.32Zm2.4 2.461a1.357 1.357 0 0 0 1.077-.436 1.864 1.864 0 0 0 .383-1.263 1.629 1.629 0 0 0-.356-1.113 1.342 1.342 0 0 0-1.065-.406 1.8 1.8 0 0 0-.805.181 1.48 1.48 0 0 0-.584.5 1.152 1.152 0 0 0-.217.659 2.268 2.268 0 0 0 .2.938 1.647 1.647 0 0 0 .554.688 1.385 1.385 0 0 0 .81.252Z"/><path data-name="40" d="m166.926 128.257-1.86-2.612h.923l1.411 2.05 1.406-2.05h.913l-1.86 2.612 1.958 2.739h-.917l-1.5-2.168-1.514 2.168h-.918Z"/><path data-name="41" d="M176.126 131h-.791v-5.088q0-.634.039-1.2c-.068.068-.145.14-.229.215s-.473.392-1.163.952l-.429-.557 1.889-1.46h.684Z"/><path data-name="42" d="M178.934 127.948a5.051 5.051 0 0 1 .818-3.147 2.89 2.89 0 0 1 2.419-1.042 3.224 3.224 0 0 1 .87.093v.7a2.8 2.8 0 0 0-.86-.122 2.168 2.168 0 0 0-1.753.715 3.664 3.664 0 0 0-.664 2.249h.059a1.869 1.869 0 0 1 1.7-.84 1.994 1.994 0 0 1 1.516.581 2.189 2.189 0 0 1 .554 1.577 2.432 2.432 0 0 1-.608 1.751 2.166 2.166 0 0 1-1.643.637 2.117 2.117 0 0 1-1.758-.832 3.687 3.687 0 0 1-.65-2.32Zm2.4 2.461a1.355 1.355 0 0 0 1.076-.436 1.859 1.859 0 0 0 .384-1.263 1.625 1.625 0 0 0-.357-1.113 1.34 1.34 0 0 0-1.064-.406 1.8 1.8 0 0 0-.806.181 1.488 1.488 0 0 0-.584.5 1.152 1.152 0 0 0-.217.659 2.268 2.268 0 0 0 .2.938 1.649 1.649 0 0 0 .555.688 1.381 1.381 0 0 0 .811.252Z"/><path data-name="43" d="M190.048 131.098a2.313 2.313 0 0 1-.955-.194 1.793 1.793 0 0 1-.725-.592h-.058a7.168 7.168 0 0 1 .058.888v2.2h-.81v-7.753h.659l.112.732h.039a1.884 1.884 0 0 1 .728-.635 2.215 2.215 0 0 1 .952-.2 1.979 1.979 0 0 1 1.643.727 3.871 3.871 0 0 1-.01 4.089 1.977 1.977 0 0 1-1.633.738Zm-.117-4.859a1.439 1.439 0 0 0-1.187.454 2.343 2.343 0 0 0-.376 1.446v.18a2.689 2.689 0 0 0 .376 1.615 1.433 1.433 0 0 0 1.206.485 1.254 1.254 0 0 0 1.087-.562 2.66 2.66 0 0 0 .393-1.547 2.566 2.566 0 0 0-.393-1.536 1.3 1.3 0 0 0-1.106-.535Z"/><path data-name="44" d="m194.984 128.257-1.86-2.612h.923l1.411 2.05 1.406-2.05h.913l-1.86 2.612 1.958 2.739h-.918l-1.5-2.168-1.514 2.168h-.918Z"/></g></g><g data-name="Group 156711"><g data-name="Ellipse 2" transform="translate(-288.5 -56.643)"><circle data-name="Ellipse 3" cx="4" cy="4" r="4" transform="translate(510.5 172.643)" fill="rgba(255,0,221,0.3)"/><circle data-name="Ellipse 4" cx="3.5" cy="3.5" r="3.5" transform="translate(511 173.143)" fill="none" stroke="#f0d"/></g><path data-name="1" d="M222 120h-19.5" fill="none" stroke="#f0d"/></g><g data-name="Group 156713"><g data-name="Group 156712"><g data-name="Ellipse 2-2" transform="translate(-288.5 -56.643)"><circle data-name="Ellipse 5" cx="4" cy="4" r="4" transform="translate(574.75 186.893)" fill="rgba(255,0,221,0.3)"/><circle data-name="Ellipse 6" cx="3.5" cy="3.5" r="3.5" transform="translate(575.25 187.393)" fill="none" stroke="#f0d"/></g><path data-name="1-2" d="M290.25 138.25v19.5" fill="none" stroke="#f0d"/></g><g data-name="Group 156767" style="isolation:isolate" fill="#f0d"><path data-name="1" d="M271.038 162.501a2.332 2.332 0 0 0-1.858.784 3.161 3.161 0 0 0-.681 2.146 3.221 3.221 0 0 0 .657 2.165 2.332 2.332 0 0 0 1.872.764 6.392 6.392 0 0 0 1.7-.268v.727a5.233 5.233 0 0 1-1.831.279 3.1 3.1 0 0 1-2.434-.957 3.944 3.944 0 0 1-.857-2.72 4.3 4.3 0 0 1 .413-1.934 2.966 2.966 0 0 1 1.191-1.279 3.6 3.6 0 0 1 1.834-.449 4.433 4.433 0 0 1 1.963.41l-.352.713a3.779 3.779 0 0 0-1.617-.381Z"/><path data-name="2" d="M277.84 169v-3.462a1.392 1.392 0 0 0-.3-.976 1.213 1.213 0 0 0-.933-.323 1.532 1.532 0 0 0-1.233.459 2.331 2.331 0 0 0-.388 1.5v2.8h-.81v-7.6h.81v2.3a5.031 5.031 0 0 1-.039.689h.049a1.66 1.66 0 0 1 .681-.608 2.217 2.217 0 0 1 1.008-.222 2.065 2.065 0 0 1 1.473.466 1.965 1.965 0 0 1 .49 1.482v3.491Z"/><path data-name="3" d="M282.586 169.098a2.456 2.456 0 0 1-1.872-.723 2.792 2.792 0 0 1-.686-2.007 3.1 3.1 0 0 1 .637-2.055 2.116 2.116 0 0 1 1.711-.762 2.018 2.018 0 0 1 1.592.662 2.53 2.53 0 0 1 .586 1.745v.513h-3.686a2.113 2.113 0 0 0 .476 1.43 1.645 1.645 0 0 0 1.272.489 4.292 4.292 0 0 0 1.709-.362v.723a4.392 4.392 0 0 1-.813.267 4.707 4.707 0 0 1-.926.08Zm-.219-4.868a1.322 1.322 0 0 0-1.028.419 1.938 1.938 0 0 0-.452 1.163h2.8a1.784 1.784 0 0 0-.342-1.175 1.2 1.2 0 0 0-.978-.407Z"/><path data-name="4" d="M288.084 169.098a2.287 2.287 0 0 1-1.8-.715 2.945 2.945 0 0 1-.637-2.025 3.036 3.036 0 0 1 .647-2.075 2.33 2.33 0 0 1 1.843-.732 3.619 3.619 0 0 1 .772.083 2.558 2.558 0 0 1 .605.2l-.249.689a3.734 3.734 0 0 0-.586-.178 2.564 2.564 0 0 0-.561-.071q-1.632 0-1.631 2.08a2.476 2.476 0 0 0 .4 1.513 1.383 1.383 0 0 0 1.179.528 3.607 3.607 0 0 0 1.372-.288v.717a2.919 2.919 0 0 1-1.354.274Z"/><path data-name="5" d="M291.518 166.257a9.657 9.657 0 0 1 .639-.781l1.729-1.831h.962l-2.168 2.28 2.319 3.071h-.981l-1.89-2.529-.61.527v2h-.8v-7.6h.8v4.029c0 .178-.014.456-.039.83Z"/><path data-name="6" d="M298.466 163.557a1.99 1.99 0 0 1 1.638.72 3.857 3.857 0 0 1-.005 4.086 1.977 1.977 0 0 1-1.633.731 2.312 2.312 0 0 1-.955-.194 1.793 1.793 0 0 1-.725-.592h-.058l-.171.688h-.581v-7.6h.81v1.846q0 .619-.039 1.113h.039a1.924 1.924 0 0 1 1.68-.798Zm-.117.678a1.42 1.42 0 0 0-1.2.476 3.677 3.677 0 0 0 .01 3.219 1.433 1.433 0 0 0 1.206.485 1.251 1.251 0 0 0 1.113-.544 2.792 2.792 0 0 0 .367-1.565 2.683 2.683 0 0 0-.367-1.558 1.3 1.3 0 0 0-1.129-.509Z"/><path data-name="7" d="M306.733 166.319a2.956 2.956 0 0 1-.659 2.044 2.323 2.323 0 0 1-1.822.735 2.417 2.417 0 0 1-1.274-.337 2.22 2.22 0 0 1-.859-.967 3.366 3.366 0 0 1-.3-1.475 2.948 2.948 0 0 1 .654-2.038 2.314 2.314 0 0 1 1.817-.73 2.263 2.263 0 0 1 1.784.747 2.939 2.939 0 0 1 .659 2.021Zm-4.077 0a2.537 2.537 0 0 0 .41 1.563 1.628 1.628 0 0 0 2.414 0 2.534 2.534 0 0 0 .413-1.566 2.481 2.481 0 0 0-.413-1.549 1.446 1.446 0 0 0-1.218-.531 1.424 1.424 0 0 0-1.2.523 2.514 2.514 0 0 0-.406 1.56Z"/><path data-name="" d="m309.453 166.257-1.861-2.612h.923l1.411 2.05 1.407-2.05h.913l-1.861 2.612 1.958 2.739h-.918l-1.5-2.168-1.513 2.168h-.918Z"/></g></g><g data-name="Group 156715"><g data-name="Ellipse 2-3" transform="translate(-288.5 -56.643)"><circle data-name="Ellipse 7" cx="4" cy="4" r="4" transform="translate(608 186.893)" fill="rgba(255,0,221,0.3)"/><circle data-name="Ellipse 8" cx="3.5" cy="3.5" r="3.5" transform="translate(608.5 187.393)" fill="none" stroke="#f0d"/></g><path data-name="1-3" d="M323.5 138.25v40.083" fill="none" stroke="#f0d"/></g><g data-name="Group 156716"><g data-name="Group 156714"><g data-name="Ellipse 2-4" transform="translate(-288.5 -56.643)"><circle data-name="Ellipse 9" cx="4" cy="4" r="4" transform="translate(541.75 152.226)" fill="rgba(255,0,221,0.3)"/><circle data-name="Ellipse 10" cx="3.5" cy="3.5" r="3.5" transform="translate(542.25 152.726)" fill="none" stroke="#f0d"/></g><path data-name="1-4" d="M257.25 95.583V79.999" fill="none" stroke="#f0d"/></g><g data-name="Tree Arrow 24x24 Gray" style="isolation:isolate" fill="#f0d"><g data-name="Group 156768" style="isolation:isolate"><path data-name="9" d="M234.285 44h-.83v-6.4h-2.261v-.743h5.351v.738h-2.26Z"/><path data-name="0" d="M239.949 38.551a3.171 3.171 0 0 1 .639.058l-.112.752a2.806 2.806 0 0 0-.586-.073 1.428 1.428 0 0 0-1.111.527 1.928 1.928 0 0 0-.461 1.314V44h-.811v-5.351h.669l.093.991h.039a2.354 2.354 0 0 1 .718-.806 1.621 1.621 0 0 1 .923-.283Z"/><path data-name="1" d="M243.86 44.098a2.456 2.456 0 0 1-1.872-.723 2.793 2.793 0 0 1-.686-2.007 3.1 3.1 0 0 1 .637-2.055 2.116 2.116 0 0 1 1.711-.762 2.018 2.018 0 0 1 1.592.662 2.53 2.53 0 0 1 .586 1.745v.513h-3.686a2.113 2.113 0 0 0 .476 1.43 1.645 1.645 0 0 0 1.272.489 4.292 4.292 0 0 0 1.709-.362v.723a4.393 4.393 0 0 1-.813.267 4.707 4.707 0 0 1-.926.08Zm-.219-4.868a1.322 1.322 0 0 0-1.028.419 1.938 1.938 0 0 0-.452 1.163h2.8a1.784 1.784 0 0 0-.342-1.175 1.2 1.2 0 0 0-.978-.407Z"/><path data-name="2" d="M249.48 44.098a2.456 2.456 0 0 1-1.872-.723 2.793 2.793 0 0 1-.686-2.007 3.1 3.1 0 0 1 .637-2.055 2.117 2.117 0 0 1 1.712-.762 2.017 2.017 0 0 1 1.591.662 2.53 2.53 0 0 1 .586 1.745v.513h-3.686a2.118 2.118 0 0 0 .476 1.43 1.645 1.645 0 0 0 1.272.489 4.292 4.292 0 0 0 1.709-.362v.723a4.393 4.393 0 0 1-.813.267 4.707 4.707 0 0 1-.926.08Zm-.219-4.868a1.322 1.322 0 0 0-1.028.419 1.945 1.945 0 0 0-.452 1.163h2.8a1.784 1.784 0 0 0-.342-1.175 1.2 1.2 0 0 0-.978-.407Z"/><path data-name="3" d="m260.057 44-.889-2.27h-2.861l-.879 2.27h-.84l2.823-7.168h.7L260.919 44Zm-1.147-3.018-.83-2.211c-.108-.281-.219-.623-.332-1.031a9.39 9.39 0 0 1-.308 1.031l-.84 2.211Z"/><path data-name="4" d="M264.228 38.551a3.178 3.178 0 0 1 .639.058l-.112.752a2.814 2.814 0 0 0-.586-.073 1.429 1.429 0 0 0-1.111.527 1.923 1.923 0 0 0-.461 1.314V44h-.811v-5.351h.669l.093.991h.039a2.354 2.354 0 0 1 .718-.806 1.618 1.618 0 0 1 .923-.283Z"/><path data-name="5" d="M268.319 38.551a3.181 3.181 0 0 1 .64.058l-.112.752a2.822 2.822 0 0 0-.586-.073 1.428 1.428 0 0 0-1.111.527 1.924 1.924 0 0 0-.462 1.314V44h-.81v-5.351h.669l.093.991h.039a2.351 2.351 0 0 1 .717-.806 1.623 1.623 0 0 1 .923-.283Z"/><path data-name="6" d="M274.589 41.319a2.952 2.952 0 0 1-.659 2.044 2.32 2.32 0 0 1-1.821.735 2.421 2.421 0 0 1-1.275-.337 2.227 2.227 0 0 1-.859-.967 3.367 3.367 0 0 1-.3-1.475 2.948 2.948 0 0 1 .655-2.038 2.311 2.311 0 0 1 1.816-.73 2.264 2.264 0 0 1 1.785.747 2.939 2.939 0 0 1 .658 2.021Zm-4.077 0a2.544 2.544 0 0 0 .41 1.563 1.629 1.629 0 0 0 2.415 0 2.534 2.534 0 0 0 .413-1.566 2.481 2.481 0 0 0-.413-1.549 1.448 1.448 0 0 0-1.218-.531 1.426 1.426 0 0 0-1.2.523 2.513 2.513 0 0 0-.407 1.56Z"/><path data-name="7" d="m280.39 44-.981-3.14q-.093-.288-.347-1.308h-.039q-.2.854-.342 1.318L277.67 44h-.937l-1.46-5.351h.85q.518 2.016.788 3.071a12.362 12.362 0 0 1 .31 1.421h.039q.054-.279.174-.721c.079-.294.149-.527.207-.7l.982-3.071h.877l.957 3.071a10.232 10.232 0 0 1 .372 1.411h.039a5.161 5.161 0 0 1 .1-.542q.086-.366 1.018-3.94h.84L281.346 44Z"/></g><g data-name="Group 156769" style="isolation:isolate"><path data-name="8" d="M248.116 59h-4.693v-.7l1.88-1.89a13.79 13.79 0 0 0 1.133-1.24 3.15 3.15 0 0 0 .41-.723 2.069 2.069 0 0 0 .137-.757 1.2 1.2 0 0 0-.347-.9 1.328 1.328 0 0 0-.962-.335 2.409 2.409 0 0 0-.842.147 3.339 3.339 0 0 0-.886.532l-.43-.552a3.292 3.292 0 0 1 2.149-.82 2.272 2.272 0 0 1 1.577.515 1.771 1.771 0 0 1 .571 1.384 2.673 2.673 0 0 1-.381 1.343 8.536 8.536 0 0 1-1.426 1.68l-1.562 1.528v.039h3.672Z"/><path data-name="9" d="M254.18 57.357h-1.059v1.641h-.777v-1.641h-3.471v-.708l3.388-4.829h.86v4.8h1.059Zm-1.836-.737v-2.373q0-.7.049-1.577h-.039a7.454 7.454 0 0 1-.439.776l-2.232 3.174Z"/><path data-name="90" d="m256.539 56.257-1.86-2.612h.923l1.411 2.05 1.406-2.05h.913l-1.86 2.612 1.958 2.739h-.918l-1.5-2.168L255.5 59h-.918Z"/><path data-name="91" d="M264.82 59h-4.692v-.7l1.88-1.89a13.957 13.957 0 0 0 1.133-1.24 3.189 3.189 0 0 0 .41-.723 2.069 2.069 0 0 0 .136-.757 1.2 1.2 0 0 0-.346-.9 1.328 1.328 0 0 0-.962-.335 2.409 2.409 0 0 0-.842.147 3.342 3.342 0 0 0-.887.532l-.429-.552a3.287 3.287 0 0 1 2.148-.82 2.271 2.271 0 0 1 1.577.515 1.771 1.771 0 0 1 .572 1.384 2.673 2.673 0 0 1-.381 1.343 8.536 8.536 0 0 1-1.426 1.68l-1.563 1.528v.039h3.672Z"/><path data-name="92" d="M270.885 57.357h-1.059v1.641h-.777v-1.641h-3.471v-.708l3.388-4.829h.86v4.8h1.059Zm-1.836-.737v-2.373q0-.7.049-1.577h-.039a7.465 7.465 0 0 1-.439.776l-2.232 3.174Z"/></g><g data-name="Group 156770" style="isolation:isolate"><path data-name="93" d="M239.284 71.257a7.549 7.549 0 0 1 .379-2.422 6.026 6.026 0 0 1 1.091-1.978h.791a6.879 6.879 0 0 0-1.057 2.071 7.7 7.7 0 0 0-.354 2.319 7.4 7.4 0 0 0 .361 2.29 7.128 7.128 0 0 0 1.04 2.041h-.781a5.756 5.756 0 0 1-1.094-1.938 7.4 7.4 0 0 1-.376-2.383Z"/><path data-name="94" d="M245.974 70.257h2.426v3.472a7.843 7.843 0 0 1-1.152.273 8.877 8.877 0 0 1-1.357.093 3.291 3.291 0 0 1-2.525-.965 3.8 3.8 0 0 1-.9-2.7 4.076 4.076 0 0 1 .447-1.95 3.015 3.015 0 0 1 1.286-1.28 4.164 4.164 0 0 1 1.968-.442 5.378 5.378 0 0 1 2.129.42l-.322.732a4.767 4.767 0 0 0-1.861-.41 2.665 2.665 0 0 0-2.036.776 3.017 3.017 0 0 0-.732 2.154 3.079 3.079 0 0 0 .705 2.192 2.718 2.718 0 0 0 2.073.747 6.1 6.1 0 0 0 1.45-.171v-2.2h-1.6Z"/><path data-name="95" d="M252.444 68.551a3.164 3.164 0 0 1 .639.058l-.112.752a2.806 2.806 0 0 0-.586-.073 1.429 1.429 0 0 0-1.111.527 1.928 1.928 0 0 0-.461 1.314V74H250v-5.351h.669l.093.991h.039a2.354 2.354 0 0 1 .718-.806 1.621 1.621 0 0 1 .925-.283Z"/><path data-name="96" d="m257.385 74-.161-.762h-.039a2.263 2.263 0 0 1-.8.682 2.449 2.449 0 0 1-.994.178 1.787 1.787 0 0 1-1.247-.41 1.5 1.5 0 0 1-.452-1.167q0-1.622 2.593-1.7l.908-.029v-.335a1.366 1.366 0 0 0-.271-.931 1.12 1.12 0 0 0-.867-.3 3.524 3.524 0 0 0-1.514.41l-.249-.62a3.895 3.895 0 0 1 1.812-.459 2.037 2.037 0 0 1 1.418.424 1.775 1.775 0 0 1 .462 1.363v3.652Zm-1.831-.571a1.647 1.647 0 0 0 1.189-.415 1.536 1.536 0 0 0 .432-1.162v-.484l-.81.034a2.938 2.938 0 0 0-1.394.3.9.9 0 0 0-.428.827.834.834 0 0 0 .267.669 1.1 1.1 0 0 0 .744.231Z"/><path data-name="97" d="M258.816 68.649h.87l1.171 3.051a11.506 11.506 0 0 1 .479 1.509h.039q.063-.249.266-.852t1.326-3.708h.869l-2.3 6.093a3.039 3.039 0 0 1-.8 1.282 1.7 1.7 0 0 1-1.121.378 3.216 3.216 0 0 1-.732-.083v-.649a2.824 2.824 0 0 0 .6.059 1.239 1.239 0 0 0 1.192-.938l.3-.762Z"/><path data-name="98" d="M271.981 72.357h-1.06v1.641h-.776v-1.641h-3.472v-.708l3.389-4.829h.859v4.8h1.06Zm-1.836-.737v-2.373q0-.7.049-1.577h-.039a7.278 7.278 0 0 1-.44.776l-2.231 3.174Z"/><path data-name="99" d="M274.75 71.257a7.335 7.335 0 0 1-.379 2.392 5.714 5.714 0 0 1-1.091 1.929h-.78a7.04 7.04 0 0 0 1.04-2.039 7.445 7.445 0 0 0 .361-2.292 7.7 7.7 0 0 0-.354-2.319 6.879 6.879 0 0 0-1.057-2.071h.791a6.017 6.017 0 0 1 1.094 1.985 7.621 7.621 0 0 1 .375 2.415Z"/></g></g></g><g data-name="Group 156718"><g data-name="Group 156714-2"><g data-name="Ellipse 2-5" transform="translate(-288.5 -56.643)"><circle data-name="Ellipse 11" cx="4" cy="4" r="4" transform="translate(805.75 152.226)" fill="rgba(255,0,221,0.3)"/><circle data-name="Ellipse 12" cx="3.5" cy="3.5" r="3.5" transform="translate(806.25 152.726)" fill="none" stroke="#f0d"/></g><path data-name="1-5" d="M521.25 95.583V79.999" fill="none" stroke="#f0d"/></g><g data-name="Action Icons or Check 24x24 Trimble Gray" style="isolation:isolate" fill="#f0d"><g data-name="Group 156771" style="isolation:isolate"><path data-name="00" d="m473.017 58-.889-2.27h-2.861l-.879 2.27h-.84l2.822-7.168h.7L473.878 58Zm-1.148-3.018-.83-2.211c-.107-.281-.218-.623-.332-1.031a8.968 8.968 0 0 1-.308 1.031l-.839 2.211Z"/><path data-name="01" d="M476.884 58.098a2.286 2.286 0 0 1-1.8-.715 2.944 2.944 0 0 1-.638-2.025 3.031 3.031 0 0 1 .648-2.075 2.328 2.328 0 0 1 1.842-.732 3.612 3.612 0 0 1 .772.083 2.543 2.543 0 0 1 .605.195l-.249.689a3.7 3.7 0 0 0-.586-.178 2.55 2.55 0 0 0-.561-.071q-1.631 0-1.631 2.08a2.47 2.47 0 0 0 .4 1.513 1.381 1.381 0 0 0 1.178.528 3.6 3.6 0 0 0 1.372-.288v.717a2.912 2.912 0 0 1-1.352.279Z"/><path data-name="02" d="M481.245 57.429a2.9 2.9 0 0 0 .733-.1v.62a1.552 1.552 0 0 1-.389.106 2.983 2.983 0 0 1-.461.041q-1.552 0-1.553-1.636v-3.184h-.766v-.39l.766-.337.342-1.143h.469v1.241h1.552v.629h-1.552v3.15a1.084 1.084 0 0 0 .229.742.8.8 0 0 0 .63.261Z"/><path data-name="03" d="M482.988 51.198a.534.534 0 0 1 .137-.407.505.505 0 0 1 .679 0 .534.534 0 0 1 .141.405.541.541 0 0 1-.141.408.477.477 0 0 1-.337.134.47.47 0 0 1-.342-.134.544.544 0 0 1-.137-.406Zm.879 6.8h-.81v-5.351h.81Z"/><path data-name="04" d="M490.215 55.319a2.957 2.957 0 0 1-.659 2.044 2.322 2.322 0 0 1-1.822.735 2.417 2.417 0 0 1-1.274-.337 2.226 2.226 0 0 1-.859-.967 3.366 3.366 0 0 1-.3-1.475 2.953 2.953 0 0 1 .654-2.038 2.315 2.315 0 0 1 1.817-.73 2.266 2.266 0 0 1 1.785.747 2.944 2.944 0 0 1 .658 2.021Zm-4.077 0a2.537 2.537 0 0 0 .41 1.563 1.424 1.424 0 0 0 1.206.537 1.438 1.438 0 0 0 1.209-.534 2.541 2.541 0 0 0 .412-1.566 2.488 2.488 0 0 0-.412-1.549 1.451 1.451 0 0 0-1.219-.531 1.425 1.425 0 0 0-1.2.523 2.513 2.513 0 0 0-.406 1.557Z"/><path data-name="05" d="M495.308 58v-3.462a1.392 1.392 0 0 0-.3-.976 1.212 1.212 0 0 0-.933-.323 1.54 1.54 0 0 0-1.23.454 2.3 2.3 0 0 0-.391 1.5v2.808h-.81V52.65h.659l.132.732h.039a1.656 1.656 0 0 1 .7-.613 2.271 2.271 0 0 1 1-.217 2.028 2.028 0 0 1 1.455.467 1.979 1.979 0 0 1 .488 1.491v3.491Z"/><path data-name="06" d="M500.523 58v-7.143h.831v7.139Z"/><path data-name="07" d="M505.338 58.098a2.286 2.286 0 0 1-1.8-.715 2.945 2.945 0 0 1-.638-2.026 3.031 3.031 0 0 1 .648-2.075 2.328 2.328 0 0 1 1.843-.732 3.611 3.611 0 0 1 .771.083 2.567 2.567 0 0 1 .606.195l-.249.689a3.734 3.734 0 0 0-.586-.178 2.566 2.566 0 0 0-.562-.071q-1.631 0-1.631 2.08a2.47 2.47 0 0 0 .4 1.513 1.381 1.381 0 0 0 1.178.528 3.6 3.6 0 0 0 1.372-.288v.717a2.912 2.912 0 0 1-1.352.28Z"/><path data-name="08" d="M512.589 55.319a2.957 2.957 0 0 1-.659 2.044 2.322 2.322 0 0 1-1.822.735 2.418 2.418 0 0 1-1.274-.337 2.227 2.227 0 0 1-.859-.967 3.367 3.367 0 0 1-.3-1.475 2.953 2.953 0 0 1 .654-2.038 2.315 2.315 0 0 1 1.817-.73 2.265 2.265 0 0 1 1.785.747 2.944 2.944 0 0 1 .658 2.021Zm-4.077 0a2.537 2.537 0 0 0 .41 1.563 1.629 1.629 0 0 0 2.415 0 2.54 2.54 0 0 0 .412-1.566 2.487 2.487 0 0 0-.412-1.549 1.45 1.45 0 0 0-1.219-.531 1.425 1.425 0 0 0-1.2.523 2.513 2.513 0 0 0-.406 1.56Z"/><path data-name="09" d="M517.683 58v-3.462a1.4 1.4 0 0 0-.3-.976 1.215 1.215 0 0 0-.933-.323 1.538 1.538 0 0 0-1.23.454 2.291 2.291 0 0 0-.391 1.5v2.808h-.81V52.65h.659l.132.732h.039a1.651 1.651 0 0 1 .7-.613 2.265 2.265 0 0 1 1-.217 2.029 2.029 0 0 1 1.455.467 1.983 1.983 0 0 1 .488 1.491v3.491Z"/><path data-name="10" d="M523.62 56.54a1.338 1.338 0 0 1-.557 1.152 2.61 2.61 0 0 1-1.562.406 3.4 3.4 0 0 1-1.66-.337v-.752a4.037 4.037 0 0 0 .827.307 3.411 3.411 0 0 0 .853.113 1.946 1.946 0 0 0 .976-.2.7.7 0 0 0 .07-1.153 4.267 4.267 0 0 0-1.056-.525 5.805 5.805 0 0 1-1.063-.486 1.449 1.449 0 0 1-.469-.471 1.235 1.235 0 0 1-.153-.63 1.2 1.2 0 0 1 .532-1.032 2.474 2.474 0 0 1 1.46-.379 4.28 4.28 0 0 1 1.69.351l-.288.66a3.87 3.87 0 0 0-1.46-.332 1.681 1.681 0 0 0-.869.18.556.556 0 0 0-.293.5.6.6 0 0 0 .109.366 1.073 1.073 0 0 0 .355.289 8.085 8.085 0 0 0 .937.395 3.515 3.515 0 0 1 1.286.7 1.23 1.23 0 0 1 .335.878Z"/><path data-name="11" d="M532.175 55.319a2.957 2.957 0 0 1-.659 2.044 2.322 2.322 0 0 1-1.822.735 2.418 2.418 0 0 1-1.274-.337 2.227 2.227 0 0 1-.859-.967 3.367 3.367 0 0 1-.3-1.475 2.953 2.953 0 0 1 .654-2.038 2.315 2.315 0 0 1 1.817-.73 2.265 2.265 0 0 1 1.785.747 2.944 2.944 0 0 1 .658 2.021Zm-4.077 0a2.537 2.537 0 0 0 .41 1.563 1.629 1.629 0 0 0 2.415 0 2.54 2.54 0 0 0 .412-1.566 2.487 2.487 0 0 0-.412-1.549 1.451 1.451 0 0 0-1.219-.531 1.425 1.425 0 0 0-1.2.523 2.513 2.513 0 0 0-.404 1.56Z"/><path data-name="12" d="M536.048 52.551a3.178 3.178 0 0 1 .639.058l-.112.752a2.814 2.814 0 0 0-.586-.073 1.429 1.429 0 0 0-1.111.527 1.923 1.923 0 0 0-.461 1.314V58h-.811v-5.351h.669l.093.991h.039a2.343 2.343 0 0 1 .718-.806 1.618 1.618 0 0 1 .923-.283Z"/><path data-name="13" d="M543.484 51.501a2.331 2.331 0 0 0-1.857.784 3.161 3.161 0 0 0-.682 2.146 3.216 3.216 0 0 0 .658 2.165 2.33 2.33 0 0 0 1.872.764 6.392 6.392 0 0 0 1.7-.268v.727a5.232 5.232 0 0 1-1.831.279 3.1 3.1 0 0 1-2.434-.957 3.944 3.944 0 0 1-.857-2.72 4.286 4.286 0 0 1 .413-1.934 2.961 2.961 0 0 1 1.191-1.279 3.6 3.6 0 0 1 1.833-.449 4.43 4.43 0 0 1 1.963.41l-.352.713a3.778 3.778 0 0 0-1.617-.381Z"/><path data-name="14" d="M550.286 58v-3.462a1.392 1.392 0 0 0-.3-.976 1.211 1.211 0 0 0-.932-.323 1.532 1.532 0 0 0-1.233.459 2.325 2.325 0 0 0-.388 1.5v2.8h-.811v-7.6h.811v2.3a5.031 5.031 0 0 1-.039.689h.048a1.657 1.657 0 0 1 .682-.608 2.215 2.215 0 0 1 1.008-.222 2.064 2.064 0 0 1 1.472.466 1.961 1.961 0 0 1 .491 1.482v3.491Z"/><path data-name="15" d="M555.033 58.098a2.46 2.46 0 0 1-1.873-.723 2.8 2.8 0 0 1-.685-2.007 3.1 3.1 0 0 1 .636-2.055 2.117 2.117 0 0 1 1.712-.762 2.02 2.02 0 0 1 1.592.662 2.53 2.53 0 0 1 .586 1.745v.513h-3.687a2.118 2.118 0 0 0 .476 1.43 1.648 1.648 0 0 0 1.272.489 4.289 4.289 0 0 0 1.709-.362v.723a4.37 4.37 0 0 1-.813.267 4.688 4.688 0 0 1-.925.08Zm-.22-4.868a1.325 1.325 0 0 0-1.028.419 1.938 1.938 0 0 0-.451 1.163h2.8a1.784 1.784 0 0 0-.342-1.175 1.2 1.2 0 0 0-.979-.407Z"/><path data-name="16" d="M560.531 58.098a2.288 2.288 0 0 1-1.8-.715 2.949 2.949 0 0 1-.636-2.025 3.041 3.041 0 0 1 .646-2.075 2.332 2.332 0 0 1 1.844-.732 3.611 3.611 0 0 1 .771.083 2.583 2.583 0 0 1 .606.195l-.249.689a3.8 3.8 0 0 0-.586-.178 2.573 2.573 0 0 0-.562-.071q-1.63 0-1.63 2.08a2.477 2.477 0 0 0 .4 1.513 1.385 1.385 0 0 0 1.18.528 3.611 3.611 0 0 0 1.372-.288v.717a2.924 2.924 0 0 1-1.356.279Z"/><path data-name="17" d="M563.964 55.257a9.5 9.5 0 0 1 .64-.781l1.728-1.831h.962l-2.168 2.28 2.319 3.071h-.981l-1.89-2.529-.61.527v2h-.8v-7.6h.8v4.029c0 .178-.013.456-.039.83Z"/></g><g data-name="Group 156772" style="isolation:isolate"><path data-name="18" d="M512.184 73h-4.693v-.7l1.88-1.89a13.8 13.8 0 0 0 1.133-1.24 3.114 3.114 0 0 0 .41-.723 2.049 2.049 0 0 0 .137-.757 1.2 1.2 0 0 0-.347-.9 1.327 1.327 0 0 0-.962-.335 2.409 2.409 0 0 0-.842.147 3.355 3.355 0 0 0-.886.532l-.43-.552a3.291 3.291 0 0 1 2.148-.82 2.273 2.273 0 0 1 1.578.515 1.774 1.774 0 0 1 .571 1.384 2.672 2.672 0 0 1-.381 1.343 8.536 8.536 0 0 1-1.426 1.68l-1.562 1.528v.039h3.672Z"/><path data-name="19" d="M518.248 71.357h-1.06v1.641h-.776v-1.641h-3.472v-.708l3.389-4.829h.859v4.8h1.06Zm-1.836-.737v-2.373q0-.7.049-1.577h-.039a7.268 7.268 0 0 1-.44.776l-2.231 3.174Z"/><path data-name="20" d="m520.607 70.257-1.86-2.612h.923l1.411 2.05 1.406-2.05h.913l-1.86 2.612L523.5 73h-.918l-1.5-2.168L519.568 73h-.918Z"/><path data-name="21" d="M528.889 73H524.2v-.7l1.88-1.89a14.117 14.117 0 0 0 1.133-1.24 3.189 3.189 0 0 0 .41-.723 2.069 2.069 0 0 0 .137-.757 1.2 1.2 0 0 0-.347-.9 1.328 1.328 0 0 0-.962-.335 2.415 2.415 0 0 0-.843.147 3.351 3.351 0 0 0-.885.532l-.43-.552a3.287 3.287 0 0 1 2.148-.82 2.275 2.275 0 0 1 1.578.515 1.771 1.771 0 0 1 .571 1.384 2.673 2.673 0 0 1-.381 1.343 8.536 8.536 0 0 1-1.426 1.68l-1.562 1.528v.039h3.672Z"/><path data-name="22" d="M534.953 71.357h-1.059v1.641h-.777v-1.641h-3.471v-.708l3.388-4.829h.86v4.8h1.059Zm-1.836-.737v-2.373q0-.7.049-1.577h-.039a7.278 7.278 0 0 1-.44.776l-2.231 3.174Z"/></g></g></g><g data-name="Item Icon 24x24 Trimble Gray" style="isolation:isolate" fill="#f0d"><g data-name="Group 156773" style="isolation:isolate"><path data-name="36" d="M303.185 191v-7.143h.83v7.139Z"/><path data-name="37" d="M307.589 190.429a2.664 2.664 0 0 0 .415-.032 2.615 2.615 0 0 0 .317-.066v.62a1.541 1.541 0 0 1-.388.106 2.993 2.993 0 0 1-.461.041q-1.552 0-1.553-1.636v-3.184h-.767v-.39l.767-.337.342-1.143h.468v1.241h1.553v.629h-1.553v3.15a1.085 1.085 0 0 0 .23.742.8.8 0 0 0 .63.259Z"/><path data-name="38" d="M311.662 191.098a2.46 2.46 0 0 1-1.873-.723 2.8 2.8 0 0 1-.686-2.007 3.1 3.1 0 0 1 .637-2.055 2.117 2.117 0 0 1 1.712-.762 2.017 2.017 0 0 1 1.591.662 2.53 2.53 0 0 1 .586 1.745v.513h-3.686a2.118 2.118 0 0 0 .476 1.43 1.645 1.645 0 0 0 1.272.489 4.293 4.293 0 0 0 1.709-.362v.723a4.394 4.394 0 0 1-.813.267 4.7 4.7 0 0 1-.925.08Zm-.22-4.868a1.322 1.322 0 0 0-1.028.419 1.944 1.944 0 0 0-.452 1.163h2.8a1.784 1.784 0 0 0-.342-1.175 1.2 1.2 0 0 0-.978-.407Z"/><path data-name="39" d="M321.842 191v-3.481a1.449 1.449 0 0 0-.273-.96 1.058 1.058 0 0 0-.85-.32 1.371 1.371 0 0 0-1.118.435 2.064 2.064 0 0 0-.361 1.338V191h-.811v-3.481a1.449 1.449 0 0 0-.273-.96 1.066 1.066 0 0 0-.855-.32 1.324 1.324 0 0 0-1.115.456 2.475 2.475 0 0 0-.354 1.5v2.808h-.811v-5.351h.659l.132.732h.039a1.587 1.587 0 0 1 .647-.61 1.97 1.97 0 0 1 .935-.22 1.591 1.591 0 0 1 1.641.908h.039a1.7 1.7 0 0 1 .693-.664 2.149 2.149 0 0 1 1.035-.244 1.807 1.807 0 0 1 1.36.467 2.082 2.082 0 0 1 .452 1.491v3.491Z"/><path data-name="40" d="M327.062 191v-7.143h.831v7.139Z"/><path data-name="41" d="M331.877 191.098a2.287 2.287 0 0 1-1.8-.715 2.945 2.945 0 0 1-.637-2.025 3.036 3.036 0 0 1 .647-2.075 2.33 2.33 0 0 1 1.843-.732 3.626 3.626 0 0 1 .772.083 2.557 2.557 0 0 1 .6.2l-.249.689a3.736 3.736 0 0 0-.586-.178 2.565 2.565 0 0 0-.561-.071q-1.632 0-1.631 2.08a2.476 2.476 0 0 0 .4 1.513 1.383 1.383 0 0 0 1.179.528 3.607 3.607 0 0 0 1.372-.288v.717a2.919 2.919 0 0 1-1.349.274Z"/><path data-name="42" d="M339.128 188.319a2.952 2.952 0 0 1-.659 2.044 2.32 2.32 0 0 1-1.821.735 2.415 2.415 0 0 1-1.274-.337 2.223 2.223 0 0 1-.86-.967 3.367 3.367 0 0 1-.3-1.475 2.948 2.948 0 0 1 .655-2.038 2.311 2.311 0 0 1 1.816-.73 2.264 2.264 0 0 1 1.785.747 2.939 2.939 0 0 1 .658 2.021Zm-4.077 0a2.544 2.544 0 0 0 .41 1.563 1.629 1.629 0 0 0 2.415 0 2.534 2.534 0 0 0 .413-1.566 2.481 2.481 0 0 0-.413-1.549 1.448 1.448 0 0 0-1.218-.531 1.424 1.424 0 0 0-1.2.523 2.513 2.513 0 0 0-.407 1.56Z"/><path data-name="43" d="M344.222 191v-3.462a1.392 1.392 0 0 0-.3-.976 1.213 1.213 0 0 0-.933-.323 1.539 1.539 0 0 0-1.23.454 2.291 2.291 0 0 0-.391 1.5v2.808h-.81v-5.351h.659l.132.732h.039a1.656 1.656 0 0 1 .7-.613 2.265 2.265 0 0 1 1-.217 2.029 2.029 0 0 1 1.455.467 1.979 1.979 0 0 1 .488 1.491v3.491Z"/></g><g data-name="Group 156774" style="isolation:isolate"><path data-name="44" d="M315.684 206h-4.693v-.7l1.88-1.89a13.8 13.8 0 0 0 1.133-1.24 3.153 3.153 0 0 0 .41-.723 2.069 2.069 0 0 0 .137-.757 1.2 1.2 0 0 0-.347-.9 1.328 1.328 0 0 0-.962-.335 2.409 2.409 0 0 0-.842.147 3.338 3.338 0 0 0-.886.532l-.43-.552a3.291 3.291 0 0 1 2.148-.82 2.273 2.273 0 0 1 1.578.515 1.774 1.774 0 0 1 .571 1.384 2.673 2.673 0 0 1-.381 1.343 8.537 8.537 0 0 1-1.426 1.68l-1.562 1.528v.039h3.672Z"/><path data-name="45" d="M321.748 204.357h-1.06v1.641h-.776v-1.641h-3.472v-.708l3.389-4.829h.859v4.8h1.06Zm-1.836-.737v-2.373q0-.7.049-1.577h-.039a7.268 7.268 0 0 1-.44.776l-2.231 3.174Z"/><path data-name="46" d="m324.107 203.257-1.86-2.612h.922l1.412 2.05 1.406-2.05h.913l-1.86 2.612 1.958 2.739h-.918l-1.5-2.168-1.514 2.168h-.918Z"/><path data-name="47" d="M332.388 206H327.7v-.7l1.88-1.89a13.893 13.893 0 0 0 1.132-1.24 3.159 3.159 0 0 0 .411-.723 2.069 2.069 0 0 0 .136-.757 1.2 1.2 0 0 0-.346-.9 1.328 1.328 0 0 0-.962-.335 2.415 2.415 0 0 0-.843.147 3.353 3.353 0 0 0-.886.532l-.429-.552a3.287 3.287 0 0 1 2.148-.82 2.272 2.272 0 0 1 1.577.515 1.77 1.77 0 0 1 .571 1.384 2.682 2.682 0 0 1-.38 1.343 8.537 8.537 0 0 1-1.426 1.68l-1.563 1.528v.039h3.672Z"/><path data-name="48" d="M338.453 204.357h-1.059v1.641h-.777v-1.641h-3.471v-.708l3.388-4.829h.86v4.8h1.059Zm-1.836-.737v-2.373q0-.7.049-1.577h-.039a7.278 7.278 0 0 1-.44.776l-2.231 3.174Z"/></g></g><g data-name="Group 156717"><g data-name="Group 156714-3"><g data-name="Ellipse 2-6" transform="translate(-288.5 -56.643)"><circle data-name="Ellipse 13" cx="4" cy="4" r="4" transform="translate(660.75 152.226)" fill="rgba(255,0,221,0.3)"/><circle data-name="Ellipse 14" cx="3.5" cy="3.5" r="3.5" transform="translate(661.25 152.726)" fill="none" stroke="#f0d"/></g><path data-name="1-6" d="M376.25 95.583V79.999" fill="none" stroke="#f0d"/></g><g data-name="Text Trimble Gray Body Text" style="isolation:isolate"><g data-name="Group 156775" style="isolation:isolate" fill="#f0d"><path data-name="62" d="M369.715 73h-.83v-6.4h-2.261v-.743h5.352v.738h-2.261Z"/><path data-name="63" d="M375.2 73.098a2.456 2.456 0 0 1-1.872-.723 2.792 2.792 0 0 1-.686-2.007 3.1 3.1 0 0 1 .637-2.055 2.116 2.116 0 0 1 1.711-.762 2.019 2.019 0 0 1 1.592.662 2.53 2.53 0 0 1 .586 1.745v.513h-3.687a2.118 2.118 0 0 0 .477 1.43 1.645 1.645 0 0 0 1.272.489 4.292 4.292 0 0 0 1.709-.362v.723a4.393 4.393 0 0 1-.813.267 4.707 4.707 0 0 1-.926.08Zm-.219-4.868a1.322 1.322 0 0 0-1.028.419 1.932 1.932 0 0 0-.452 1.163h2.8a1.784 1.784 0 0 0-.342-1.175 1.2 1.2 0 0 0-.98-.407Z"/><path data-name="64" d="m379.847 70.257-1.86-2.612h.923l1.411 2.05 1.406-2.05h.913l-1.86 2.612 1.958 2.739h-.918l-1.5-2.168-1.514 2.168h-.918Z"/><path data-name="65" d="M385.536 72.429a2.673 2.673 0 0 0 .415-.032 2.617 2.617 0 0 0 .317-.066v.62a1.542 1.542 0 0 1-.388.106 3 3 0 0 1-.462.041q-1.553 0-1.552-1.636v-3.184h-.766v-.39l.767-.337.342-1.143h.468v1.241h1.553v.629h-1.553v3.15a1.084 1.084 0 0 0 .23.742.8.8 0 0 0 .629.259Z"/></g></g></g><g data-name="Group 156719"><g data-name="Ellipse 2-7" transform="translate(-288.5 -56.643)"><circle data-name="Ellipse 15" cx="4" cy="4" r="4" transform="translate(834.708 196.643)" fill="rgba(255,0,221,0.3)"/><circle data-name="Ellipse 16" cx="3.5" cy="3.5" r="3.5" transform="translate(835.208 197.143)" fill="none" stroke="#f0d"/></g><path data-name="1-7" d="M554.208 144h15.584" fill="none" stroke="#f0d"/></g><g data-name="Borders 1px solid Gray" style="isolation:isolate"><g data-name="Group 156777" style="isolation:isolate" fill="#f0d"><path data-name="7" d="M574.981 133.857H577a3.808 3.808 0 0 1 2.056.425 1.5 1.5 0 0 1 .634 1.343 1.551 1.551 0 0 1-.354 1.047 1.7 1.7 0 0 1-1.032.535v.049q1.626.277 1.626 1.709a1.836 1.836 0 0 1-.647 1.494 2.755 2.755 0 0 1-1.809.537h-2.491Zm.831 3.057h1.367a2.231 2.231 0 0 0 1.264-.275 1.065 1.065 0 0 0 .386-.931.939.939 0 0 0-.43-.866 2.676 2.676 0 0 0-1.367-.267h-1.22Zm0 .7v2.671h1.488a2.113 2.113 0 0 0 1.3-.335 1.232 1.232 0 0 0 .437-1.047 1.106 1.106 0 0 0-.447-.976 2.386 2.386 0 0 0-1.36-.313Z"/><path data-name="8" d="M585.968 138.319a2.957 2.957 0 0 1-.659 2.044 2.323 2.323 0 0 1-1.822.735 2.417 2.417 0 0 1-1.274-.337 2.22 2.22 0 0 1-.859-.967 3.366 3.366 0 0 1-.3-1.475 2.953 2.953 0 0 1 .654-2.038 2.311 2.311 0 0 1 1.816-.73 2.268 2.268 0 0 1 1.786.747 2.944 2.944 0 0 1 .658 2.021Zm-4.077 0a2.537 2.537 0 0 0 .41 1.563 1.628 1.628 0 0 0 2.414 0 2.534 2.534 0 0 0 .413-1.566 2.481 2.481 0 0 0-.413-1.549 1.448 1.448 0 0 0-1.218-.531 1.425 1.425 0 0 0-1.2.523 2.507 2.507 0 0 0-.406 1.56Z"/><path data-name="9" d="M589.84 135.551a3.18 3.18 0 0 1 .64.058l-.113.752a2.806 2.806 0 0 0-.586-.073 1.428 1.428 0 0 0-1.11.527 1.924 1.924 0 0 0-.462 1.314V141h-.809v-5.351h.67l.092.991h.039a2.356 2.356 0 0 1 .719-.806 1.617 1.617 0 0 1 .92-.283Z"/><path data-name="90" d="M595.133 140.282h-.043a1.906 1.906 0 0 1-1.68.816 1.991 1.991 0 0 1-1.634-.718 3.161 3.161 0 0 1-.583-2.041 3.219 3.219 0 0 1 .586-2.056 1.972 1.972 0 0 1 1.631-.732 1.948 1.948 0 0 1 1.67.791h.063l-.034-.386-.019-.376v-2.178h.81v7.6h-.66Zm-1.621.137a1.474 1.474 0 0 0 1.2-.452 2.279 2.279 0 0 0 .374-1.457v-.171a2.688 2.688 0 0 0-.379-1.624 1.439 1.439 0 0 0-1.209-.485 1.241 1.241 0 0 0-1.091.553 2.755 2.755 0 0 0-.378 1.566 2.65 2.65 0 0 0 .375 1.548 1.275 1.275 0 0 0 1.108.522Z"/><path data-name="91" d="M599.89 141.098a2.456 2.456 0 0 1-1.872-.723 2.793 2.793 0 0 1-.687-2.007 3.094 3.094 0 0 1 .638-2.055 2.113 2.113 0 0 1 1.711-.762 2.017 2.017 0 0 1 1.591.662 2.53 2.53 0 0 1 .586 1.745v.513h-3.686a2.123 2.123 0 0 0 .475 1.43 1.649 1.649 0 0 0 1.273.489 4.3 4.3 0 0 0 1.709-.362v.723a4.353 4.353 0 0 1-.814.267 4.678 4.678 0 0 1-.924.08Zm-.22-4.868a1.318 1.318 0 0 0-1.027.419 1.939 1.939 0 0 0-.453 1.163h2.8a1.778 1.778 0 0 0-.342-1.175 1.2 1.2 0 0 0-.978-.407Z"/><path data-name="92" d="M605.69 135.551a3.181 3.181 0 0 1 .64.058l-.112.752a2.822 2.822 0 0 0-.586-.073 1.427 1.427 0 0 0-1.111.527 1.923 1.923 0 0 0-.461 1.314V141h-.811v-5.351h.669l.093.991h.039a2.343 2.343 0 0 1 .718-.806 1.617 1.617 0 0 1 .922-.283Z"/><path data-name="93" d="M610.793 139.54a1.34 1.34 0 0 1-.557 1.152 2.608 2.608 0 0 1-1.562.406 3.405 3.405 0 0 1-1.66-.337v-.752a4.024 4.024 0 0 0 .828.307 3.4 3.4 0 0 0 .851.113 1.944 1.944 0 0 0 .977-.2.7.7 0 0 0 .071-1.153 4.261 4.261 0 0 0-1.057-.525 5.785 5.785 0 0 1-1.062-.486 1.449 1.449 0 0 1-.469-.471 1.235 1.235 0 0 1-.153-.63 1.2 1.2 0 0 1 .531-1.032 2.48 2.48 0 0 1 1.461-.379 4.284 4.284 0 0 1 1.69.351l-.289.66a3.87 3.87 0 0 0-1.459-.332 1.688 1.688 0 0 0-.87.18.558.558 0 0 0-.293.5.6.6 0 0 0 .11.366 1.083 1.083 0 0 0 .353.289 8.287 8.287 0 0 0 .938.4 3.521 3.521 0 0 1 1.287.7 1.234 1.234 0 0 1 .334.873Z"/><path data-name="94" d="M617.361 141h-.791v-5.088c0-.423.014-.823.039-1.2-.068.068-.144.14-.229.215s-.472.392-1.162.952l-.43-.557 1.89-1.46h.683Z"/><path data-name="95" d="M622.947 141.098a2.319 2.319 0 0 1-.955-.194 1.8 1.8 0 0 1-.724-.592h-.059a7.176 7.176 0 0 1 .059.888v2.2h-.811v-7.753h.659l.113.732h.039a1.889 1.889 0 0 1 .727-.635 2.215 2.215 0 0 1 .952-.2 1.977 1.977 0 0 1 1.643.727 3.871 3.871 0 0 1-.01 4.089 1.976 1.976 0 0 1-1.633.738Zm-.117-4.859a1.437 1.437 0 0 0-1.186.454 2.324 2.324 0 0 0-.376 1.446v.18a2.682 2.682 0 0 0 .376 1.615 1.433 1.433 0 0 0 1.206.485 1.252 1.252 0 0 0 1.086-.562 2.66 2.66 0 0 0 .393-1.547 2.566 2.566 0 0 0-.393-1.536 1.294 1.294 0 0 0-1.106-.535Z"/><path data-name="96" d="m627.885 138.257-1.862-2.612h.924l1.41 2.05 1.407-2.05h.914l-1.862 2.612 1.959 2.739h-.918l-1.5-2.168-1.513 2.168h-.918Z"/><path data-name="97" d="M637.9 139.54a1.34 1.34 0 0 1-.556 1.152 2.613 2.613 0 0 1-1.563.406 3.4 3.4 0 0 1-1.66-.337v-.752a4.046 4.046 0 0 0 .828.307 3.4 3.4 0 0 0 .852.113 1.94 1.94 0 0 0 .976-.2.7.7 0 0 0 .071-1.153 4.279 4.279 0 0 0-1.057-.525 5.837 5.837 0 0 1-1.063-.486 1.457 1.457 0 0 1-.468-.471 1.236 1.236 0 0 1-.154-.63 1.2 1.2 0 0 1 .533-1.032 2.474 2.474 0 0 1 1.46-.379 4.276 4.276 0 0 1 1.689.351l-.288.66a3.866 3.866 0 0 0-1.46-.332 1.684 1.684 0 0 0-.869.18.556.556 0 0 0-.293.5.6.6 0 0 0 .11.366 1.078 1.078 0 0 0 .354.289 8.083 8.083 0 0 0 .937.4 3.522 3.522 0 0 1 1.287.7 1.234 1.234 0 0 1 .334.873Z"/><path data-name="98" d="M643.852 138.319a2.952 2.952 0 0 1-.66 2.044 2.32 2.32 0 0 1-1.821.735 2.418 2.418 0 0 1-1.274-.337 2.229 2.229 0 0 1-.86-.967 3.366 3.366 0 0 1-.3-1.475 2.943 2.943 0 0 1 .654-2.038 2.313 2.313 0 0 1 1.816-.73 2.261 2.261 0 0 1 1.784.747 2.935 2.935 0 0 1 .661 2.021Zm-4.078 0a2.537 2.537 0 0 0 .411 1.563 1.421 1.421 0 0 0 1.206.537 1.438 1.438 0 0 0 1.209-.534 2.54 2.54 0 0 0 .412-1.566 2.487 2.487 0 0 0-.412-1.549 1.451 1.451 0 0 0-1.219-.531 1.423 1.423 0 0 0-1.2.523 2.513 2.513 0 0 0-.407 1.557Z"/><path data-name="99" d="M646.094 141h-.811v-7.6h.811Z"/><path data-name="00" d="M647.754 134.198a.534.534 0 0 1 .137-.407.5.5 0 0 1 .677 0 .527.527 0 0 1 .143.4.534.534 0 0 1-.143.408.495.495 0 0 1-.677 0 .544.544 0 0 1-.137-.401Zm.879 6.8h-.811v-5.351h.811Z"/><path data-name="01" d="M654 140.282h-.044a1.9 1.9 0 0 1-1.68.816 1.991 1.991 0 0 1-1.634-.718 3.166 3.166 0 0 1-.583-2.041 3.219 3.219 0 0 1 .586-2.056 1.974 1.974 0 0 1 1.631-.732 1.948 1.948 0 0 1 1.67.791h.064l-.035-.386-.019-.376v-2.178h.811v7.6h-.66Zm-1.621.137a1.471 1.471 0 0 0 1.2-.452 2.273 2.273 0 0 0 .374-1.457v-.171a2.688 2.688 0 0 0-.378-1.624 1.442 1.442 0 0 0-1.209-.485 1.243 1.243 0 0 0-1.092.553 2.763 2.763 0 0 0-.378 1.566 2.65 2.65 0 0 0 .376 1.548 1.274 1.274 0 0 0 1.111.522Z"/></g></g></g></g><path data-name="245" d="M578.121 150.26h2.427v3.471a7.8 7.8 0 0 1-1.148.269 8.773 8.773 0 0 1-1.362.1 3.29 3.29 0 0 1-2.524-.967 3.8 3.8 0 0 1-.9-2.7 4.083 4.083 0 0 1 .443-1.953 3.022 3.022 0 0 1 1.287-1.28 4.168 4.168 0 0 1 1.968-.442 5.378 5.378 0 0 1 2.129.42l-.322.732a4.756 4.756 0 0 0-1.86-.41 2.664 2.664 0 0 0-2.036.776 3.013 3.013 0 0 0-.732 2.153 3.079 3.079 0 0 0 .706 2.192 2.717 2.717 0 0 0 2.071.749 6.159 6.159 0 0 0 1.45-.17V151h-1.6Zm6.46-1.709a3.172 3.172 0 0 1 .64.059l-.112.752a2.761 2.761 0 0 0-.586-.073 1.426 1.426 0 0 0-1.111.527 1.923 1.923 0 0 0-.462 1.313V154h-.81v-5.352h.669l.091.992h.04a2.352 2.352 0 0 1 .718-.806 1.616 1.616 0 0 1 .923-.283Zm4.932 5.449-.161-.762h-.039a2.252 2.252 0 0 1-.8.681 2.433 2.433 0 0 1-.992.181 1.787 1.787 0 0 1-1.248-.41 1.5 1.5 0 0 1-.452-1.167q0-1.621 2.593-1.7l.908-.029v-.334a1.357 1.357 0 0 0-.271-.93 1.115 1.115 0 0 0-.867-.3 3.531 3.531 0 0 0-1.514.41l-.249-.62a3.809 3.809 0 0 1 .867-.337 3.754 3.754 0 0 1 .945-.122 2.039 2.039 0 0 1 1.418.425 1.773 1.773 0 0 1 .461 1.362V154Zm-1.831-.571a1.645 1.645 0 0 0 1.189-.415 1.535 1.535 0 0 0 .429-1.162v-.483l-.811.034a2.948 2.948 0 0 0-1.394.3.905.905 0 0 0-.427.828.835.835 0 0 0 .266.669 1.1 1.1 0 0 0 .748.229Zm3.252-4.78h.866l1.175 3.051a11.608 11.608 0 0 1 .479 1.509h.039q.063-.249.266-.852t1.326-3.708h.869l-2.301 6.093a3.04 3.04 0 0 1-.8 1.282 1.7 1.7 0 0 1-1.121.378 3.261 3.261 0 0 1-.732-.083v-.649a2.825 2.825 0 0 0 .6.059 1.238 1.238 0 0 0 1.194-.938l.3-.762Zm10.479-1.89a2.42 2.42 0 0 1 1.548.454 1.514 1.514 0 0 1 .571 1.255 1.562 1.562 0 0 1-.327.962 2.89 2.89 0 0 1-1.045.791 3.513 3.513 0 0 1 1.235.872 1.641 1.641 0 0 1 .366 1.057 1.771 1.771 0 0 1-.62 1.418 2.532 2.532 0 0 1-1.7.53 2.721 2.721 0 0 1-1.758-.5 1.725 1.725 0 0 1-.615-1.418 2.118 2.118 0 0 1 1.495-1.91 2.758 2.758 0 0 1-.967-.823 1.75 1.75 0 0 1-.293-.989 1.507 1.507 0 0 1 .574-1.238 2.379 2.379 0 0 1 1.535-.461Zm-1.544 5.441a1.1 1.1 0 0 0 .408.913 1.786 1.786 0 0 0 1.145.327 1.706 1.706 0 0 0 1.133-.34 1.161 1.161 0 0 0 .405-.937 1.142 1.142 0 0 0-.381-.842 3.886 3.886 0 0 0-1.328-.721 2.89 2.89 0 0 0-1.055.691 1.339 1.339 0 0 0-.327.909Zm1.531-4.782a1.437 1.437 0 0 0-.957.293.971.971 0 0 0-.347.781 1.118 1.118 0 0 0 .288.771 3.009 3.009 0 0 0 1.064.645 2.666 2.666 0 0 0 .989-.63 1.167 1.167 0 0 0 .291-.786.961.961 0 0 0-.354-.784 1.492 1.492 0 0 0-.974-.29Zm3.621 6.064a.727.727 0 0 1 .149-.5.54.54 0 0 1 .427-.168.578.578 0 0 1 .442.168.7.7 0 0 1 .159.5.685.685 0 0 1-.161.488.575.575 0 0 1-.437.172.579.579 0 0 1-.413-.154.669.669 0 0 1-.166-.506Zm0-4.312q0-.659.576-.659.6 0 .6.659a.685.685 0 0 1-.161.488.575.575 0 0 1-.439.171.579.579 0 0 1-.413-.154.669.669 0 0 1-.163-.504Zm9.307.439-.328 1.662h1.382v.63h-1.5l-.404 2.099h-.669l.41-2.1h-1.48l-.4 2.1h-.664l.391-2.1h-1.28v-.63h1.4l.332-1.66h-1.351v-.62h1.46l.4-2.129h.679l-.4 2.129h1.489l.41-2.129h.654l-.41 2.129h1.289v.62Zm-2.471 1.66h1.479l.322-1.66h-1.479Zm9.658 1.089h-1.06V154h-.776v-1.641h-3.472v-.708l3.393-4.829h.859v4.8h1.06Zm-1.836-.737v-2.372q0-.7.049-1.577h-.039a7.337 7.337 0 0 1-.439.776l-2.232 3.174Zm2.607-.674a5.05 5.05 0 0 1 .814-3.147 2.888 2.888 0 0 1 2.419-1.042 3.223 3.223 0 0 1 .869.093v.7a2.78 2.78 0 0 0-.859-.122 2.168 2.168 0 0 0-1.753.715 3.667 3.667 0 0 0-.664 2.249h.059a1.869 1.869 0 0 1 1.7-.84 2 2 0 0 1 1.516.581 2.191 2.191 0 0 1 .554 1.577 2.432 2.432 0 0 1-.608 1.75 2.164 2.164 0 0 1-1.64.639 2.112 2.112 0 0 1-1.758-.833 3.683 3.683 0 0 1-.649-2.319Zm2.4 2.461a1.356 1.356 0 0 0 1.077-.437 1.858 1.858 0 0 0 .383-1.262 1.628 1.628 0 0 0-.359-1.109 1.343 1.343 0 0 0-1.064-.405 1.8 1.8 0 0 0-.806.181 1.491 1.491 0 0 0-.583.5 1.151 1.151 0 0 0-.217.659 2.26 2.26 0 0 0 .2.938 1.652 1.652 0 0 0 .554.688 1.381 1.381 0 0 0 .813.248Zm8.267-1.05h-1.06V154h-.776v-1.641h-3.474v-.708l3.389-4.829h.859v4.8h1.06Zm-1.836-.737v-2.372q0-.7.049-1.577h-.039a7.337 7.337 0 0 1-.439.776l-2.235 3.174Zm3.018-4.761h2.017a3.8 3.8 0 0 1 2.056.425 1.5 1.5 0 0 1 .635 1.343 1.552 1.552 0 0 1-.354 1.047 1.7 1.7 0 0 1-1.033.535v.049q1.626.278 1.626 1.709a1.835 1.835 0 0 1-.647 1.494 2.754 2.754 0 0 1-1.813.538h-2.49Zm.83 3.057h1.367a2.226 2.226 0 0 0 1.265-.276 1.065 1.065 0 0 0 .386-.93.941.941 0 0 0-.43-.867 2.685 2.685 0 0 0-1.367-.266h-1.224Zm0 .7v2.675h1.489a2.121 2.121 0 0 0 1.3-.334 1.235 1.235 0 0 0 .437-1.047 1.109 1.109 0 0 0-.447-.977 2.388 2.388 0 0 0-1.36-.312Zm7.385-.977a2.625 2.625 0 0 1 1.775.559 1.917 1.917 0 0 1 .647 1.531 2.211 2.211 0 0 1-.706 1.738 2.818 2.818 0 0 1-1.946.632 3.581 3.581 0 0 1-1.841-.386v-.781a2.8 2.8 0 0 0 .85.344 4.193 4.193 0 0 0 1 .125 2 2 0 0 0 1.335-.405 1.454 1.454 0 0 0 .476-1.172q0-1.494-1.831-1.494a7.29 7.29 0 0 0-1.24.142l-.419-.273.269-3.34h3.55v.747h-2.857l-.181 2.144a5.689 5.689 0 0 1 1.119-.111Zm8.178 4.36h-4.692v-.7l1.88-1.89a13.843 13.843 0 0 0 1.133-1.24 3.165 3.165 0 0 0 .41-.723 2.07 2.07 0 0 0 .137-.757 1.2 1.2 0 0 0-.347-.906 1.328 1.328 0 0 0-.962-.334 2.419 2.419 0 0 0-.842.146 3.358 3.358 0 0 0-.886.532l-.43-.552a3.291 3.291 0 0 1 2.148-.82 2.27 2.27 0 0 1 1.577.515 1.772 1.772 0 0 1 .571 1.384 2.673 2.673 0 0 1-.38 1.345 8.525 8.525 0 0 1-1.426 1.68l-1.563 1.529v.039h3.672Z" fill="#f0d"/></svg>