<svg width="178" height="56" fill="none" xmlns="http://www.w3.org/2000/svg"><rect x=".5" y=".5" width="177" height="55" rx="3.5" fill="#fff"/><path d="M30.993 37h-1.826V22.917h-4.974v-1.622h11.774v1.622h-4.974V37zm9.113 0h-1.784V25.227h1.783V37zm-1.934-14.964c0-.408.1-.705.3-.892.201-.193.452-.29.753-.29.286 0 .533.097.74.29.208.194.312.491.312.892s-.104.702-.311.902a1.05 1.05 0 01-.741.29c-.301 0-.552-.096-.752-.29-.2-.2-.301-.5-.301-.902zm9.768 13.707c.315 0 .619-.021.913-.064.293-.05.526-.1.698-.15v1.364c-.194.093-.48.168-.86.225a5.979 5.979 0 01-1.01.097c-2.277 0-3.415-1.2-3.415-3.599v-7.004h-1.687v-.86l1.687-.74.752-2.514h1.03v2.729h3.417v1.385h-3.416v6.929c0 .709.168 1.253.505 1.633.336.38.798.57 1.386.57zM53.947 37h-1.783V20.285h1.783V37zm9.005.215c-1.74 0-3.115-.53-4.125-1.59-1.002-1.06-1.504-2.532-1.504-4.415 0-1.898.466-3.405 1.397-4.523.938-1.117 2.195-1.675 3.77-1.675 1.475 0 2.643.487 3.502 1.46.86.967 1.29 2.246 1.29 3.836v1.128H59.17c.036 1.382.383 2.43 1.042 3.147.666.716 1.6 1.074 2.804 1.074 1.267 0 2.52-.265 3.76-.795v1.59a9.113 9.113 0 01-1.795.58c-.558.122-1.235.183-2.03.183zm-.483-10.71c-.946 0-1.701.308-2.267.924-.558.616-.888 1.468-.988 2.556h6.155c0-1.124-.25-1.983-.752-2.578-.501-.601-1.217-.902-2.148-.902zM155.45 24.55l-2.5-2.5-6.95 6.9-6.95-6.9-2.5 2.5 9.45 9.4 9.45-9.4z" fill="#252A2E"/><rect x=".5" y=".5" width="177" height="55" rx="3.5" stroke="#CBCDD6"/></svg>