<svg fill="none" height="74" viewBox="0 0 628 74" width="628" xmlns="http://www.w3.org/2000/svg" xmlns:xlink="http://www.w3.org/1999/xlink"><mask id="a" fill="#fff"><path d="m204 1h21v71.5677h-21z" fill="#fff"/></mask><path d="m16.1572 39.6779c0 .9023-.3258 1.6132-.9775 2.1328-.6471.5195-1.5495.7793-2.707.7793-1.0665 0-2.0098-.2006-2.83012-.6016v-1.9687c.67452.3007 1.24412.5126 1.70902.6357.4694.123.8977.1846 1.2851.1846.4649 0 .8203-.0889 1.0664-.2666.2507-.1778.376-.4421.376-.793 0-.196-.0547-.3691-.1641-.5195-.1093-.155-.2711-.3031-.4853-.4444-.2096-.1412-.6403-.3668-1.292-.6767-.6107-.2871-1.0687-.5629-1.374-.8272-.3054-.2643-.5492-.5719-.7315-.9228-.18227-.3509-.27341-.7611-.27341-1.2305 0-.8841.29851-1.5791.89551-2.085.6016-.5058 1.431-.7587 2.4883-.7587.5195 0 1.014.0615 1.4834.1845.4739.1231.9684.2962 1.4834.5196l-.6836 1.6474c-.5332-.2187-.9753-.3714-1.3262-.458-.3463-.0866-.6881-.1299-1.0254-.1299-.401 0-.7086.0934-.9228.2803-.2142.1868-.3213.4307-.3213.7314 0 .1869.0433.351.1299.4922.0865.1367.2233.2712.4101.4034.1914.1276.6403.36 1.3467.6972.9342.4466 1.5745.8955 1.9209 1.3467.3463.4466.5195.9958.5195 1.6475zm4.7832 1.2509c.3646 0 .8021-.0797 1.3125-.2392v1.5517c-.5195.2325-1.1575.3487-1.914.3487-.834 0-1.4424-.2097-1.8252-.6289-.3783-.4239-.5674-1.0573-.5674-1.9004v-3.6846h-.9981v-.8818l1.1485-.6973.6015-1.6133h1.333v1.627h2.1397v1.5654h-2.1397v3.6846c0 .2962.0821.5149.2461.6562.1686.1413.3897.2119.6631.2119zm4.4414-2.3105c0 .7565.1231 1.3284.3691 1.7158.2507.3874.6563.5811 1.2168.5811.556 0 .9548-.1914 1.1963-.5743.2461-.3873.3692-.9615.3692-1.7226 0-.7565-.1231-1.3239-.3692-1.7022-.2461-.3782-.6494-.5673-1.2099-.5673-.556 0-.9571.1891-1.2032.5673-.246.3737-.3691.9411-.3691 1.7022zm5.2842 0c0 1.2441-.3281 2.2171-.9844 2.9189-.6562.7019-1.57 1.0528-2.7412 1.0528-.7337 0-1.3809-.1595-1.9414-.4785-.5606-.3236-.9912-.7862-1.292-1.3877-.3008-.6016-.4512-1.3034-.4512-2.1055 0-1.2487.3259-2.2194.9776-2.9121s1.5677-1.0391 2.748-1.0391c.7337 0 1.3809.1595 1.9414.4785.5606.319.9912.777 1.292 1.3741.3008.597.4512 1.2965.4512 2.0986zm3.6416-.3213.9091-1.1621 2.1397-2.3242h2.3516l-3.0352 3.3154 3.2197 4.3271h-2.4062l-2.2012-3.0966-.8955.7177v2.3789h-2.085v-10.6367h2.085v4.7442l-.1094 1.7363zm9.7597-2.1465c-.442 0-.7884.1413-1.039.4238-.2507.278-.3942.6745-.4307 1.1895h2.9258c-.0091-.515-.1436-.9115-.4033-1.1895-.2598-.2825-.6107-.4238-1.0528-.4238zm.294 6.4395c-1.2305 0-2.1921-.3396-2.8848-1.0186s-1.0391-1.6406-1.0391-2.8848c0-1.2806.319-2.2695.9571-2.9668.6425-.7018 1.5289-1.0527 2.6591-1.0527 1.0801 0 1.9209.3076 2.5225.9229.6016.6152.9024 1.4651.9024 2.5498v1.0117h-4.9288c.0228.5924.1983 1.055.5264 1.3877s.7884.499 1.3809.499c.4603 0 .8955-.0478 1.3056-.1435.4102-.0957.8386-.2484 1.2852-.4581v1.6133c-.3646.1823-.7542.3168-1.169.4033-.4147.0912-.9205.1368-1.5175.1368zm4.4345-1.1143c0-.3828.1026-.6722.3076-.8682.2051-.1959.5036-.2939.8955-.2939.3783 0 .67.1003.875.3008.2097.2005.3145.4876.3145.8613 0 .36-.1048.6449-.3145.8545-.2096.2051-.5013.3076-.875.3076-.3828 0-.679-.1002-.8886-.3008-.2097-.205-.3145-.4922-.3145-.8613zm0-5.6465c0-.3828.1026-.6722.3076-.8681.2051-.196.5036-.294.8955-.294.3783 0 .67.1003.875.3008.2097.2005.3145.4876.3145.8613 0 .3692-.1071.6563-.3213.8614-.2096.2005-.499.3007-.8682.3007-.3828 0-.679-.1002-.8886-.3007-.2097-.2006-.3145-.4877-.3145-.8614zm11.5488 6.624h-1.1074v-7.123c0-.5924.0182-1.153.0547-1.6816-.0957.0957-.2028.1959-.3213.3007-.1185.1049-.6608.5492-1.627 1.333l-.6015-.7792 2.6455-2.044h.957zm9.3428-1.0048h-.0615c-.5241.761-1.308 1.1416-2.3516 1.1416-.9798 0-1.7432-.335-2.2901-1.0049-.5423-.6699-.8134-1.6224-.8134-2.8574 0-1.2351.2734-2.1944.8203-2.878s1.3079-1.0254 2.2832-1.0254c1.0163 0 1.7956.3692 2.3379 1.1075h.0888l-.0478-.5401-.0273-.5263v-3.0489h1.1347v10.6367h-.9228zm-2.2696.1914c.7748 0 1.3353-.2097 1.6817-.6289.3509-.4239.5264-1.1052.5264-2.044v-.2392c0-1.0619-.1778-1.8184-.5333-2.2696-.3509-.4557-.9137-.6836-1.6884-.6836-.6654 0-1.1758.2598-1.5313.7793-.3509.515-.5263 1.2442-.5263 2.1875 0 .9571.1754 1.6794.5263 2.167.3509.4877.8659.7315 1.5449.7315zm9.1582.9502c-.4876 0-.9342-.0889-1.3398-.2666-.4011-.1823-.7383-.4603-1.0117-.834h-.0821c.0547.4375.0821.8522.0821 1.2441v3.083h-1.1348v-10.8554h.9229l.1572 1.0254h.0547c.2916-.4102.6312-.7064 1.0185-.8887.3874-.1823.8317-.2735 1.333-.2735.9935 0 1.7591.3396 2.2969 1.0186.5423.679.8135 1.6315.8135 2.8574 0 1.2305-.2757 2.1875-.8272 2.8711-.5468.679-1.3079 1.0186-2.2832 1.0186zm-.164-6.8018c-.7657 0-1.3194.2119-1.6612.6358-.3418.4238-.5172 1.0983-.5263 2.0234v.2529c0 1.0528.1754 1.807.5263 2.2627.3509.4512.9138.6768 1.6885.6768.6471 0 1.153-.2621 1.5176-.7862.3691-.5241.5537-1.2464.5537-2.167 0-.9342-.1846-1.6497-.5537-2.1464-.3646-.5013-.8796-.752-1.5449-.752z" fill="#fff"/><path d="m1 63.3938v-53.1646h140.678v10.3233l7.322 7.7424-7.322 7.2262v27.8727z" stroke="#ccc"/><path d="m168.31 42.5876h-6.57v-.9775l2.632-2.6455c.802-.8112 1.331-1.39 1.586-1.7363.255-.3464.447-.6836.574-1.0117.128-.3282.192-.6814.192-1.0596 0-.5332-.162-.9548-.486-1.2647-.323-.3144-.772-.4716-1.346-.4716-.415 0-.809.0683-1.183.205-.369.1368-.782.3851-1.237.7451l-.602-.7724c.921-.7656 1.923-1.1484 3.008-1.1484.939 0 1.675.2415 2.208.7246.533.4785.8 1.1233.8 1.9345 0 .6335-.178 1.2601-.533 1.8799-.356.6198-1.021 1.4037-1.997 2.3516l-2.187 2.1396v.0547h5.141zm8.399-2.2968h-1.483v2.2968h-1.087v-2.2968h-4.861v-.9912l4.744-6.7608h1.204v6.7197h1.483zm-2.57-1.0323v-3.3222c0-.6517.022-1.3877.068-2.208h-.055c-.218.4375-.423.7998-.615 1.0869l-3.124 4.4433zm9.076 2.3243h-.062c-.524.761-1.308 1.1416-2.351 1.1416-.98 0-1.743-.335-2.29-1.0049-.543-.6699-.814-1.6224-.814-2.8574 0-1.2351.274-2.1944.821-2.878.546-.6836 1.308-1.0254 2.283-1.0254 1.016 0 1.795.3692 2.338 1.1075h.089l-.048-.5401-.028-.5263v-3.0489h1.135v10.6367h-.923zm-2.27.1914c.775 0 1.336-.2097 1.682-.6289.351-.4239.526-1.1052.526-2.044v-.2392c0-1.0619-.177-1.8184-.533-2.2696-.351-.4557-.914-.6836-1.688-.6836-.666 0-1.176.2598-1.532.7793-.351.515-.526 1.2442-.526 2.1875 0 .9571.175 1.6794.526 2.167.351.4877.866.7315 1.545.7315zm9.159.9502c-.488 0-.935-.0889-1.34-.2666-.401-.1823-.739-.4603-1.012-.834h-.082c.055.4375.082.8522.082 1.2441v3.083h-1.135v-10.8554h.923l.157 1.0253h.055c.292-.4101.631-.7063 1.019-.8886.387-.1823.831-.2735 1.333-.2735.993 0 1.759.3396 2.296 1.0186.543.679.814 1.6315.814 2.8574 0 1.2305-.276 2.1875-.827 2.8711-.547.679-1.308 1.0186-2.283 1.0186zm-.165-6.8018c-.765 0-1.319.2119-1.661.6357-.341.4239-.517 1.0984-.526 2.0235v.2529c0 1.0528.175 1.807.526 2.2627.351.4512.914.6768 1.689.6768.647 0 1.153-.2621 1.517-.7862.37-.5241.554-1.2464.554-2.167 0-.9342-.184-1.6497-.554-2.1464-.364-.5013-.879-.752-1.545-.752z" fill="#e8178a"/><g fill="#fff"><path d="m234.993 31.8115h-1.826v-14.083h-4.974v-1.6221h11.774v1.6221h-4.974zm9.112 0h-1.783v-11.7734h1.783zm-1.933-14.9638c0-.4082.1-.7054.301-.8916.2-.1934.451-.2901.752-.2901.286 0 .533.0967.741.2901.208.1933.311.4905.311.8916 0 .401-.103.7018-.311.9023-.208.1934-.455.29-.741.29-.301 0-.552-.0966-.752-.29-.201-.2005-.301-.5013-.301-.9023zm9.767 13.707c.316 0 .62-.0215.914-.0645.293-.0501.526-.1002.698-.1504v1.3643c-.194.0931-.48.1683-.86.2256-.372.0644-.709.0967-1.009.0967-2.278 0-3.416-1.1996-3.416-3.5987v-7.0039h-1.687v-.8593l1.687-.7413.752-2.5136h1.031v2.7285h3.416v1.3857h-3.416v6.9287c0 .709.168 1.2533.505 1.6329.336.3795.798.5693 1.385.5693zm6.008 1.2568h-1.783v-16.7148h1.783zm9.005.2149c-1.74 0-3.115-.53-4.125-1.5899-1.002-1.0599-1.504-2.5316-1.504-4.415 0-1.8978.466-3.4053 1.397-4.5225.938-1.1172 2.195-1.6758 3.77-1.6758 1.475 0 2.643.487 3.502 1.461.86.9668 1.289 2.2451 1.289 3.8349v1.128h-8.11c.036 1.3821.383 2.4313 1.042 3.1474.666.7162 1.6 1.0743 2.804 1.0743 1.267 0 2.52-.265 3.759-.795v1.5899c-.63.2721-1.228.4655-1.794.5801-.558.1217-1.235.1826-2.03.1826zm-.483-10.71c-.946 0-1.701.3079-2.267.9238-.558.6159-.888 1.4681-.988 2.5567h6.155c0-1.1244-.251-1.9837-.752-2.5781-.501-.6016-1.217-.9024-2.148-.9024z"/><path d="m241.359 51.5361c0 2.3568-.641 4.1602-1.923 5.4102-1.276 1.2435-3.116 1.8652-5.518 1.8652h-3.955v-14.2773h4.375c2.22 0 3.945.6152 5.176 1.8457 1.23 1.2305 1.845 2.9492 1.845 5.1562zm-1.757.0586c0-1.862-.469-3.2649-1.407-4.209-.931-.944-2.317-1.416-4.16-1.416h-2.412v11.4063h2.022c1.979 0 3.466-.485 4.462-1.4551.997-.9766 1.495-2.4186 1.495-4.3262zm9.378 7.4121c-1.582 0-2.832-.4817-3.75-1.4453-.911-.9635-1.367-2.3014-1.367-4.0136 0-1.7253.423-3.0958 1.269-4.1114.853-1.0156 1.996-1.5234 3.428-1.5234 1.341 0 2.402.4427 3.184 1.3281.781.8789 1.172 2.041 1.172 3.4863v1.0254h-7.373c.032 1.2565.348 2.2103.947 2.8614.605.651 1.455.9765 2.549.9765 1.152 0 2.291-.2409 3.418-.7226v1.4453c-.573.2474-1.117.4232-1.631.5273-.508.1107-1.123.166-1.846.166zm-.439-9.7363c-.86 0-1.547.28-2.061.8399-.508.5598-.807 1.3346-.898 2.3242h5.595c0-1.0222-.228-1.8034-.683-2.3438-.456-.5469-1.107-.8203-1.953-.8203zm14.202 6.6211c0 .9961-.371 1.7643-1.113 2.3047s-1.784.8105-3.125.8105c-1.419 0-2.526-.2246-3.32-.6738v-1.5039c.514.2604 1.064.4655 1.65.6152.593.1498 1.162.2246 1.709.2246.846 0 1.498-.1334 1.953-.4003.456-.2735.684-.6869.684-1.2403 0-.4166-.182-.7715-.547-1.0644-.358-.2995-1.061-.6511-2.109-1.0547-.996-.3711-1.706-.6934-2.129-.9668-.417-.28-.729-.5957-.938-.9473-.202-.3515-.303-.7715-.303-1.2597 0-.8724.355-1.5593 1.065-2.0606.71-.5078 1.683-.7617 2.92-.7617 1.152 0 2.278.2344 3.379.7031l-.576 1.3184c-1.075-.4427-2.048-.6641-2.92-.6641-.769 0-1.348.1205-1.739.3613-.39.2409-.586.573-.586.9961 0 .2865.072.5306.215.7325.15.2018.388.3938.713.5761.326.1823.951.446 1.875.791 1.27.4623 2.126.9278 2.569 1.3965.449.4688.673 1.058.673 1.7676zm7.074 3.1152c-1.549 0-2.75-.4752-3.603-1.4257-.847-.9571-1.27-2.308-1.27-4.0528 0-1.7903.43-3.1738 1.289-4.1504.866-.9765 2.097-1.4648 3.692-1.4648.514 0 1.028.0553 1.543.166.514.1107.918.2409 1.211.3906l-.499 1.377c-.358-.1432-.748-.2604-1.171-.3516-.424-.0976-.798-.1465-1.123-.1465-2.175 0-3.262 1.3868-3.262 4.1602 0 1.3151.264 2.3242.791 3.0273.534.7032 1.321 1.0547 2.363 1.0547.892 0 1.807-.192 2.744-.5762v1.4356c-.716.3711-1.618.5566-2.705.5566zm10.287-11.0937c.475 0 .902.039 1.279.1172l-.224 1.5039c-.443-.0977-.834-.1465-1.172-.1465-.866 0-1.608.3516-2.227 1.0547-.612.7031-.918 1.5788-.918 2.6269v5.7422h-1.621v-10.7031h1.338l.186 1.9824h.078c.397-.6966.875-1.2337 1.435-1.6113s1.175-.5664 1.846-.5664zm5.052 10.8984h-1.621v-10.7031h1.621zm-1.758-13.6035c0-.3711.092-.6413.274-.8105.182-.1758.41-.2637.683-.2637.261 0 .485.0879.674.2637.189.1757.283.4459.283.8105s-.094.638-.283.8203c-.189.1758-.413.2637-.674.2637-.273 0-.501-.0879-.683-.2637-.182-.1823-.274-.4557-.274-.8203zm10.326 13.7988c-.696 0-1.334-.1269-1.914-.3808-.573-.2604-1.055-.6576-1.445-1.1914h-.117c.078.625.117 1.2174.117 1.7773v4.4043h-1.621v-15.5078h1.318l.225 1.4648h.078c.417-.5859.902-1.0091 1.455-1.2695s1.188-.3906 1.904-.3906c1.419 0 2.513.485 3.281 1.4551.775.97 1.163 2.3307 1.163 4.082 0 1.7578-.394 3.125-1.182 4.1016-.781.97-1.869 1.455-3.262 1.455zm-.234-9.7168c-1.094 0-1.885.3028-2.373.9082-.488.6055-.739 1.5691-.752 2.8907v.3613c0 1.5039.25 2.5814.752 3.2324.501.6445 1.305.9668 2.412.9668.924 0 1.647-.3743 2.168-1.123.527-.7487.791-1.7806.791-3.0957 0-1.3347-.264-2.3568-.791-3.0664-.521-.7162-1.257-1.0743-2.207-1.0743zm11.126 8.3789c.287 0 .564-.0195.83-.0585.267-.0456.479-.0912.635-.1368v1.2403c-.176.0846-.436.153-.781.205-.339.0586-.645.0879-.918.0879-2.07 0-3.105-1.0905-3.105-3.2714v-6.3672h-1.534v-.7813l1.534-.6738.683-2.2852h.938v2.4805h3.105v1.2598h-3.105v6.2988c0 .6445.153 1.1393.459 1.4844.306.345.726.5175 1.259.5175zm5.385 1.1426h-1.621v-10.7031h1.621zm-1.758-13.6035c0-.3711.091-.6413.273-.8105.183-.1758.411-.2637.684-.2637.26 0 .485.0879.674.2637.189.1757.283.4459.283.8105s-.094.638-.283.8203c-.189.1758-.414.2637-.674.2637-.273 0-.501-.0879-.684-.2637-.182-.1823-.273-.4557-.273-.8203zm14.584 8.2422c0 1.7448-.44 3.1087-1.319 4.0918-.879.9766-2.093 1.4648-3.642 1.4648-.957 0-1.807-.2246-2.549-.6738s-1.315-1.0937-1.719-1.9336c-.404-.8398-.605-1.8229-.605-2.9492 0-1.7448.436-3.1022 1.308-4.0723.873-.9765 2.084-1.4648 3.633-1.4648 1.497 0 2.686.498 3.564 1.4941.886.9961 1.329 2.3438 1.329 4.043zm-8.155 0c0 1.3672.274 2.4088.821 3.125.546.7161 1.35 1.0742 2.412 1.0742 1.061 0 1.865-.3548 2.412-1.0644.553-.7162.83-1.7611.83-3.1348 0-1.3607-.277-2.3926-.83-3.0957-.547-.7096-1.358-1.0645-2.432-1.0645-1.061 0-1.862.3483-2.402 1.045-.541.6966-.811 1.735-.811 3.1152zm18.48 5.3613v-6.9238c0-.8724-.198-1.5234-.595-1.9531s-1.019-.6446-1.866-.6446c-1.119 0-1.94.3028-2.461.9082-.52.6055-.781 1.6049-.781 2.9981v5.6152h-1.621v-10.7031h1.318l.264 1.4648h.078c.332-.5273.798-.9342 1.397-1.2207.599-.2929 1.266-.4394 2.002-.4394 1.289 0 2.259.3125 2.91.9375.651.6185.976 1.6113.976 2.9785v6.9824z"/><path d="m503.45 33.3616-2.5-2.5-6.95 6.9-6.95-6.9-2.5 2.5 9.45 9.4z"/></g><path d="m204 1h322zm322 72.6229h-322v-2h322zm-322-1v-71.6229zm322-71.6229v71.6229z" fill="#90939f"/><path d="m204 1h21v71.5677h-21z" fill="#eb3499" fill-opacity=".6"/><path d="m204 0h21v2h-21zm21 72.5677h-21zm-21 0v-71.5677zm21-71.5677v71.5677z" fill="#90939f" mask="url(#a)"/><path d="m519.5 1.5h6v70.5677h-6z" fill="#eb3499" fill-opacity=".6" stroke="#90939f"/><path d="m547.107 32.2986c.911 0 1.634.2119 2.167.6357.533.4239.8 1.0095.8 1.7569 0 .4921-.153.941-.458 1.3466-.306.4056-.793.7748-1.463 1.1075.811.3873 1.387.7952 1.729 1.2236.342.4238.513.916.513 1.4766 0 .8294-.289 1.4925-.868 1.9892-.579.4922-1.372.7383-2.379.7383-1.067 0-1.887-.2324-2.461-.6973-.574-.4694-.861-1.1325-.861-1.9892 0-1.1439.697-2.0349 2.091-2.6729-.628-.3554-1.08-.7383-1.353-1.1484-.274-.4147-.41-.8773-.41-1.3877 0-.7246.266-1.3011.8-1.7295.537-.4329 1.255-.6494 2.153-.6494zm-2.16 7.6152c0 .5469.189.973.567 1.2783.383.3054.918.458 1.607.458.679 0 1.207-.1595 1.585-.4785.379-.319.568-.7565.568-1.3125 0-.442-.178-.834-.533-1.1758-.356-.3463-.976-.6813-1.86-1.0048-.679.2916-1.171.6152-1.476.9707-.306.3509-.458.7724-.458 1.2646zm2.146-6.6924c-.569 0-1.016.1368-1.34.4102-.323.2734-.485.638-.485 1.0937 0 .4193.134.7793.403 1.0801s.766.6016 1.491.9024c.651-.2735 1.112-.5674 1.38-.8819.274-.3144.411-.6813.411-1.1006 0-.4602-.167-.8248-.499-1.0937-.329-.2734-.782-.4102-1.361-.4102zm10.252 8.21h-.061c-.524.7611-1.308 1.1416-2.352 1.1416-.98 0-1.743-.335-2.29-1.0049-.542-.6699-.813-1.6224-.813-2.8574s.273-2.1943.82-2.8779 1.308-1.0254 2.283-1.0254c1.016 0 1.796.3691 2.338 1.1074h.089l-.048-.54-.027-.5264v-3.0488h1.134v10.6367h-.922zm-2.269.1914c.774 0 1.335-.2096 1.681-.6289.351-.4238.527-1.1051.527-2.0439v-.2393c0-1.0619-.178-1.8184-.534-2.2695-.35-.4558-.913-.6836-1.688-.6836-.665 0-1.176.2597-1.531.7793-.351.5149-.527 1.2441-.527 2.1875 0 .957.176 1.6793.527 2.167.351.4876.866.7314 1.545.7314zm9.158.9502c-.488 0-.934-.0889-1.34-.2666-.401-.1823-.738-.4603-1.012-.834h-.082c.055.4375.082.8522.082 1.2442v3.083h-1.135v-10.8555h.923l.158 1.0254h.054c.292-.4102.631-.7064 1.019-.8887.387-.1823.831-.2734 1.333-.2734.993 0 1.759.3395 2.297 1.0185.542.6791.813 1.6315.813 2.8574 0 1.2305-.276 2.1875-.827 2.8711-.547.6791-1.308 1.0186-2.283 1.0186zm-.164-6.8018c-.766 0-1.32.212-1.661.6358-.342.4238-.518 1.0983-.527 2.0234v.2529c0 1.0528.176 1.807.527 2.2627.351.4512.913.6768 1.688.6768.647 0 1.153-.262 1.518-.7861.369-.5241.553-1.2464.553-2.167 0-.9343-.184-1.6498-.553-2.1465-.365-.5013-.88-.752-1.545-.752z" fill="#e8178a"/><path d="m565.875 1.43237h9v71.56773h-9" stroke="#4091d2"/><path d="m581.575 41.4363 3.217-7.0313h-4.225v-1.5234h6.146v1.1367l-3.24 7.418zm11.922 0h-5.988v-1.2598l2.15-2.1738c.637-.6524 1.053-1.1035 1.248-1.3535.195-.2539.336-.4883.422-.7032.086-.2148.129-.4375.129-.6679 0-.3438-.096-.5996-.287-.7676-.188-.168-.44-.252-.756-.252-.332 0-.654.0762-.967.2286-.312.1523-.639.3691-.978.6504l-.985-1.1661c.422-.3593.772-.6132 1.049-.7617.277-.1484.58-.2617.908-.3398.328-.0821.695-.1231 1.102-.1231.535 0 1.008.0977 1.418.293s.728.4687.955.8203c.226.3516.34.7539.34 1.207 0 .3946-.071.7657-.211 1.1133-.137.3438-.352.6973-.645 1.0606-.289.3632-.801.8808-1.535 1.5527l-1.102 1.0371v.082h3.733zm3.326.1172c-.769 0-1.375-.2989-1.816-.8965-.438-.5977-.656-1.4258-.656-2.4844 0-1.0742.222-1.9101.668-2.5078.449-.6016 1.066-.9023 1.851-.9023.824 0 1.453.3203 1.887.9609h.058c-.089-.4883-.134-.9238-.134-1.3067v-2.0976h1.793v9.1172h-1.371l-.346-.8496h-.076c-.407.6445-1.026.9668-1.858.9668zm.627-1.4239c.457 0 .791-.1328 1.002-.3984.215-.2656.332-.7168.352-1.3535v-.1934c0-.7031-.11-1.207-.328-1.5117-.215-.3047-.567-.457-1.055-.457-.398 0-.709.1699-.932.5097-.218.336-.328.8262-.328 1.4707 0 .6446.112 1.129.334 1.4532.223.3203.541.4804.955.4804zm8.418 1.4239c-.769 0-1.373-.2793-1.81-.8379h-.094c.063.5469.094.8633.094.9492v2.6543h-1.787v-9.4336h1.453l.252.8496h.082c.418-.6484 1.037-.9726 1.857-.9726.774 0 1.379.2988 1.817.8964.437.5977.656 1.4278.656 2.4903 0 .6992-.104 1.3066-.311 1.8222-.203.5157-.494.9082-.873 1.1778-.378.2695-.824.4043-1.336.4043zm-.527-5.3614c-.441 0-.764.1368-.967.4102-.203.2695-.308.7168-.316 1.3418v.1934c0 .7031.103 1.207.31 1.5117.211.3047.543.457.997.457.8 0 1.201-.6602 1.201-1.9805 0-.6445-.1-1.1269-.299-1.4472-.195-.3243-.504-.4864-.926-.4864z" fill="#4091d2"/></svg>