<svg width="628" height="58" fill="none" xmlns="http://www.w3.org/2000/svg"><path d="M17.157 31.12c0 .903-.326 1.614-.977 2.133-.647.52-1.55.78-2.707.78-1.067 0-2.01-.2-2.83-.602v-1.969c.674.301 1.244.513 1.709.636.469.123.897.185 1.285.185.465 0 .82-.09 1.066-.267.25-.178.376-.442.376-.793a.86.86 0 00-.164-.52 1.79 1.79 0 00-.485-.444c-.21-.141-.64-.367-1.292-.677-.611-.287-1.069-.562-1.374-.827a3.106 3.106 0 01-.732-.922c-.182-.351-.273-.761-.273-1.23 0-.885.298-1.58.895-2.086.602-.506 1.431-.759 2.489-.759.52 0 1.014.062 1.483.185.474.123.968.296 1.483.52l-.683 1.647a9.891 9.891 0 00-1.326-.458 4.215 4.215 0 00-1.026-.13c-.4 0-.708.093-.923.28a.925.925 0 00-.32.732c0 .187.042.35.129.492.086.137.223.271.41.403.192.128.64.36 1.347.698.934.446 1.574.895 1.92 1.346.347.447.52.996.52 1.648zm4.783 1.252c.365 0 .802-.08 1.313-.24v1.552c-.52.233-1.158.349-1.914.349-.834 0-1.442-.21-1.825-.63-.379-.423-.568-1.056-.568-1.9V27.82h-.998v-.882l1.149-.697.601-1.613h1.333v1.626h2.14v1.566h-2.14v3.684c0 .297.082.515.246.657.169.14.39.212.663.212zm4.442-2.311c0 .756.123 1.329.369 1.716.25.387.656.58 1.217.58.556 0 .954-.19 1.196-.573.246-.388.37-.962.37-1.723 0-.756-.124-1.324-.37-1.702-.246-.378-.65-.568-1.21-.568-.556 0-.957.19-1.203.568-.246.374-.37.941-.37 1.702zm5.284 0c0 1.244-.328 2.217-.984 2.919-.657.702-1.57 1.053-2.742 1.053-.733 0-1.38-.16-1.941-.479a3.228 3.228 0 01-1.292-1.388c-.3-.601-.451-1.303-.451-2.105 0-1.249.326-2.22.977-2.912.652-.693 1.568-1.04 2.748-1.04.734 0 1.381.16 1.942.48.56.318.991.776 1.292 1.373.3.597.451 1.297.451 2.099zm3.642-.321l.909-1.162 2.14-2.325h2.351l-3.035 3.316 3.22 4.327h-2.407l-2.2-3.097-.896.718v2.379h-2.085V23.259h2.085v4.744l-.11 1.737h.028zm9.76-2.147c-.443 0-.79.142-1.04.424-.25.278-.394.675-.43 1.19h2.925c-.009-.515-.143-.912-.403-1.19-.26-.282-.61-.424-1.053-.424zm.293 6.44c-1.23 0-2.192-.34-2.884-1.019-.693-.679-1.04-1.64-1.04-2.885 0-1.28.32-2.27.958-2.966.642-.702 1.528-1.053 2.659-1.053 1.08 0 1.92.308 2.522.923.602.615.902 1.465.902 2.55v1.011H43.55c.023.593.198 1.055.526 1.388.328.333.788.499 1.381.499.46 0 .895-.048 1.306-.144.41-.095.838-.248 1.285-.458v1.614a4.79 4.79 0 01-1.17.403c-.414.091-.92.137-1.517.137zm4.435-1.114c0-.383.102-.673.307-.869.206-.196.504-.294.896-.294.378 0 .67.1.875.301.21.2.314.488.314.861 0 .36-.104.645-.314.855-.21.205-.501.308-.875.308-.383 0-.68-.1-.889-.301-.21-.205-.314-.492-.314-.861zm0-5.647c0-.383.102-.672.307-.868.206-.196.504-.294.896-.294.378 0 .67.1.875.3.21.201.314.488.314.862 0 .37-.107.656-.32.861-.21.2-.5.301-.87.301-.382 0-.678-.1-.888-.3-.21-.201-.314-.488-.314-.862zm14.386 4.327h-1.484v2.297h-1.087v-2.297h-4.86v-.991l4.744-6.76h1.203v6.719h1.483v1.032zm-2.57-1.032v-3.322c0-.652.022-1.388.068-2.208h-.055c-.219.437-.424.8-.615 1.087l-3.124 4.443h3.725zm9.075 2.324h-.061c-.524.761-1.308 1.142-2.352 1.142-.98 0-1.743-.335-2.29-1.005-.542-.67-.813-1.623-.813-2.858s.273-2.194.82-2.878c.547-.683 1.308-1.025 2.283-1.025 1.017 0 1.796.37 2.338 1.108h.089l-.048-.54-.027-.527V23.26h1.135v10.637h-.923l-.15-1.005zm-2.27.192c.776 0 1.336-.21 1.683-.63.35-.423.526-1.105.526-2.043v-.24c0-1.061-.178-1.818-.533-2.27-.351-.455-.914-.683-1.689-.683-.665 0-1.176.26-1.531.78-.351.515-.526 1.244-.526 2.187 0 .957.175 1.68.526 2.167.35.488.866.732 1.545.732zm9.159.95c-.488 0-.934-.09-1.34-.267a2.546 2.546 0 01-1.011-.834h-.083c.055.438.083.852.083 1.244v3.083H74.09V26.404h.923l.157 1.025h.055c.291-.41.63-.706 1.018-.888.387-.183.832-.274 1.333-.274.994 0 1.76.34 2.297 1.019.542.679.813 1.631.813 2.857 0 1.23-.275 2.188-.827 2.871-.547.68-1.308 1.019-2.283 1.019zm-.164-6.802c-.766 0-1.32.212-1.661.636-.342.424-.517 1.098-.526 2.023v.253c0 1.053.175 1.807.526 2.263.35.45.914.677 1.688.677.647 0 1.153-.262 1.518-.787.369-.524.554-1.246.554-2.167 0-.934-.185-1.65-.554-2.146-.365-.501-.88-.752-1.545-.752z" fill="#000"/><path d="M1 54.532V2.982h140.678v10.01L149 20.5l-7.322 7.007v27.026H1z" stroke="#CCC"/><g clip-path="url(#prefix__clip0_7249_82822)"><rect x="204" y="1" width="322" height="55.514" rx="4" fill="#fff"/><path d="M232 16.424c-.589 0-1.149.117-1.658.329a1 1 0 11-.767-1.848 6.323 6.323 0 012.425-.48h2a1 1 0 010 2h-2zM237 15.424a1 1 0 011-1h4a1 1 0 010 2h-4a1 1 0 01-1-1zM245 15.424a1 1 0 011-1h2c.857 0 1.676.17 2.425.481a1 1 0 01-.766 1.848 4.323 4.323 0 00-1.659-.329h-2a1 1 0 01-1-1zM227.454 17.792a1 1 0 01.541 1.307 4.323 4.323 0 00-.328 1.658v2a1 1 0 01-2 0v-2c0-.857.17-1.676.481-2.424a1 1 0 011.306-.54zM252.546 17.792a1 1 0 011.306.54c.311.749.481 1.569.481 2.425v2a1 1 0 11-2 0v-2c0-.589-.117-1.149-.328-1.658a1 1 0 01.541-1.307zM226.667 25.757a1 1 0 011 1v4a1 1 0 01-2 0v-4a1 1 0 011-1zM253.333 25.757a1 1 0 011 1v4a1 1 0 11-2 0v-4a1 1 0 011-1zM226.667 33.757a1 1 0 011 1v2c0 .59.117 1.15.328 1.659a1 1 0 11-1.847.766 6.303 6.303 0 01-.481-2.425v-2a1 1 0 011-1zM253.333 33.757a1 1 0 011 1v2c0 .857-.17 1.677-.481 2.425a.999.999 0 11-1.847-.766c.211-.51.328-1.07.328-1.659v-2a1 1 0 011-1zM229.035 41.303a1 1 0 011.307-.54 4.314 4.314 0 001.658.328h2a1 1 0 010 2h-2c-.857 0-1.676-.171-2.425-.481a1 1 0 01-.54-1.307zM250.965 41.303a1 1 0 01-.54 1.307c-.749.31-1.568.48-2.425.48h-2a1 1 0 010-2h2c.589 0 1.149-.116 1.659-.328a.999.999 0 011.306.541zM237 42.09a1 1 0 011-1h4a1 1 0 010 2h-4a1 1 0 01-1-1zM251.374 18.879a1 1 0 00-1.414-1.415l-1.329 1.329a1 1 0 001.415 1.414l1.328-1.328zM247.389 22.864a1.001 1.001 0 00-1.414-1.415l-2.657 2.657a1 1 0 001.414 1.414l2.657-2.656zM242.076 28.177a1 1 0 00-1.414-1.415l-.662.662-.662-.662a1 1 0 10-1.414 1.415l.662.661-.581.581a1 1 0 001.414 1.414l.581-.58.581.58a1 1 0 101.414-1.414l-.581-.58.662-.662zM236.763 33.49a1 1 0 00-1.414-1.414l-2.657 2.656a1 1 0 101.414 1.414l2.657-2.656zM231.45 38.803a1 1 0 00-1.415-1.414l-1.328 1.328a1 1 0 001.414 1.414l1.329-1.328zM249.879 40.131a1 1 0 101.414-1.414l-1.328-1.328a1.001 1.001 0 00-1.415 1.414l1.329 1.328zM245.894 36.146a1 1 0 101.414-1.414l-2.656-2.656a1.001 1.001 0 00-1.415 1.414l2.657 2.656zM235.268 25.52a1 1 0 101.414-1.414l-2.657-2.657a1 1 0 10-1.414 1.415l2.657 2.656zM229.955 20.207a1 1 0 101.414-1.414l-1.329-1.328a1 1 0 10-1.414 1.414l1.329 1.328zM236.075 21.943a4.33 4.33 0 011.258-.186h1a1 1 0 100-2h-1c-.638 0-1.255.095-1.838.272a.999.999 0 10.58 1.914zM241.667 19.757a1 1 0 100 2h1c.439 0 .861.066 1.258.186a1 1 0 10.58-1.914 6.327 6.327 0 00-1.838-.272h-1zM233.185 24.832a.999.999 0 10-1.914-.58 6.355 6.355 0 00-.271 1.839v1a1 1 0 002 0v-1c0-.44.065-.862.185-1.259zM248.729 24.252a1 1 0 00-1.914.58c.12.397.185.82.185 1.259v1a1 1 0 002 0v-1c0-.638-.095-1.256-.271-1.839zM233 30.424a1 1 0 00-2 0v1c0 .638.095 1.256.271 1.839a1 1 0 001.914-.58 4.343 4.343 0 01-.185-1.259v-1zM249 30.424a1 1 0 00-2 0v1c0 .44-.065.862-.185 1.259a1 1 0 101.914.58c.176-.583.271-1.201.271-1.839v-1zM236.075 35.572a1 1 0 10-.58 1.914c.583.177 1.2.271 1.838.271h1a1 1 0 100-2h-1c-.439 0-.861-.065-1.258-.185zM244.505 37.486a.999.999 0 10-.58-1.914c-.397.12-.819.185-1.258.185h-1a1 1 0 100 2h1c.638 0 1.255-.094 1.838-.27z" fill="#363545"/><path d="M274.993 37.757h-1.826V23.674h-4.974v-1.622h11.774v1.622h-4.974v14.083zm9.112 0h-1.783V25.984h1.783v11.773zm-1.933-14.963c0-.409.1-.706.301-.892.2-.194.451-.29.752-.29.286 0 .533.097.741.29.208.193.311.49.311.892 0 .4-.103.701-.311.902-.208.193-.455.29-.741.29-.301 0-.552-.097-.752-.29-.201-.2-.301-.502-.301-.902zm9.767 13.707c.316 0 .62-.022.914-.065.293-.05.526-.1.698-.15v1.364c-.194.093-.48.168-.86.226a5.974 5.974 0 01-1.009.096c-2.278 0-3.416-1.2-3.416-3.599V27.37h-1.687v-.86l1.687-.741.752-2.514h1.031v2.729h3.416v1.386h-3.416v6.928c0 .71.168 1.254.505 1.633.336.38.798.57 1.385.57zm6.008 1.256h-1.783V21.043h1.783v16.714zm9.005.215c-1.74 0-3.115-.53-4.125-1.59-1.002-1.06-1.504-2.531-1.504-4.415 0-1.897.466-3.405 1.397-4.522.938-1.117 2.195-1.676 3.77-1.676 1.475 0 2.643.487 3.502 1.461.86.967 1.289 2.245 1.289 3.835v1.128h-8.11c.036 1.382.383 2.431 1.042 3.147.666.716 1.6 1.075 2.804 1.075 1.267 0 2.52-.265 3.759-.795v1.59a9.11 9.11 0 01-1.794.58c-.558.121-1.235.182-2.03.182zm-.483-10.71c-.946 0-1.701.308-2.267.924-.558.616-.888 1.468-.988 2.557h6.155c0-1.125-.251-1.984-.752-2.578-.501-.602-1.217-.903-2.148-.903zM503.45 25.307l-2.5-2.5-6.95 6.9-6.95-6.9-2.5 2.5 9.45 9.4 9.45-9.4z" fill="#252A2E"/></g><rect x="206" y="3" width="318" height="51.514" rx="2" stroke="#0084FF" stroke-width="4"/><path d="M564.875 1.486h9V57h-9" stroke="#4091D2"/><path d="M583.842 28.128c.828 0 1.487.233 1.975.698.492.465.738 1.101.738 1.91 0 .957-.295 1.693-.885 2.209-.589.515-1.433.773-2.531.773-.953 0-1.722-.154-2.308-.463v-1.564c.308.164.668.299 1.078.404.41.102.799.153 1.166.153 1.105 0 1.658-.454 1.658-1.36 0-.863-.572-1.295-1.717-1.295-.207 0-.435.022-.685.065-.25.039-.454.082-.61.129L581 29.4l.323-4.365h4.646v1.535h-3.058l-.159 1.681.206-.04c.238-.055.533-.083.884-.083zm3.608 1.834c0-1.695.357-2.957 1.072-3.785.719-.828 1.793-1.242 3.223-1.242.488 0 .871.03 1.148.088v1.447a4.686 4.686 0 00-1.031-.117c-.621 0-1.129.094-1.523.281a1.89 1.89 0 00-.879.832c-.196.367-.311.889-.346 1.565h.076c.387-.664 1.006-.996 1.858-.996.765 0 1.365.24 1.798.72.434.48.651 1.145.651 1.993 0 .914-.258 1.638-.774 2.173-.515.532-1.23.797-2.144.797-.633 0-1.186-.146-1.658-.44-.469-.292-.832-.72-1.09-1.282-.254-.563-.381-1.24-.381-2.034zm3.094 2.309c.386 0 .683-.129.89-.387.207-.261.311-.633.311-1.113 0-.418-.098-.746-.293-.984-.191-.243-.482-.364-.873-.364-.367 0-.682.12-.943.358-.258.238-.387.515-.387.832 0 .465.121.857.363 1.178.246.32.557.48.932.48zm6.279 1.447c-.769 0-1.375-.299-1.816-.896-.438-.598-.656-1.426-.656-2.485 0-1.074.222-1.91.668-2.507.449-.602 1.066-.903 1.851-.903.824 0 1.453.32 1.887.961h.058a7.378 7.378 0 01-.134-1.307v-2.097h1.793V33.6h-1.371l-.346-.85h-.076c-.407.645-1.026.967-1.858.967zm.627-1.424c.457 0 .791-.132 1.002-.398.215-.266.332-.717.352-1.354v-.193c0-.703-.11-1.207-.328-1.512-.215-.304-.567-.457-1.055-.457-.398 0-.709.17-.932.51-.218.336-.328.826-.328 1.47 0 .645.112 1.13.334 1.454.223.32.541.48.955.48zm8.418 1.424c-.769 0-1.373-.279-1.81-.838h-.094c.063.547.094.864.094.95v2.654h-1.787V27.05h1.453l.252.85h.082c.418-.648 1.037-.973 1.857-.973.774 0 1.379.3 1.817.897.437.597.656 1.427.656 2.49 0 .7-.104 1.307-.311 1.822-.203.516-.494.908-.873 1.178-.378.27-.824.404-1.336.404zm-.527-5.361c-.441 0-.764.137-.967.41-.203.27-.308.717-.316 1.342v.193c0 .703.103 1.207.31 1.512.211.305.543.457.997.457.8 0 1.201-.66 1.201-1.98 0-.645-.1-1.127-.299-1.448-.195-.324-.504-.486-.926-.486z" fill="#4091D2"/><defs><clipPath id="prefix__clip0_7249_82822"><rect x="204" y="1" width="322" height="55.514" rx="4" fill="#fff"/></clipPath></defs></svg>
