<svg width="628" height="57" viewBox="0 0 628 57" fill="none" xmlns="http://www.w3.org/2000/svg">
<path d="M8.93652 24.0166H6.85156V14.0225H12.5801V15.7588H8.93652V18.3359H12.3271V20.0654H8.93652V24.0166ZM15.9482 20.1816C15.9482 20.9382 16.0713 21.5101 16.3174 21.8975C16.568 22.2848 16.9736 22.4785 17.5342 22.4785C18.0902 22.4785 18.4889 22.2871 18.7305 21.9043C18.9765 21.5169 19.0996 20.9427 19.0996 20.1816C19.0996 19.4251 18.9765 18.8577 18.7305 18.4795C18.4844 18.1012 18.081 17.9121 17.5205 17.9121C16.9645 17.9121 16.5635 18.1012 16.3174 18.4795C16.0713 18.8532 15.9482 19.4206 15.9482 20.1816ZM21.2324 20.1816C21.2324 21.4258 20.9043 22.3988 20.248 23.1006C19.5918 23.8024 18.678 24.1533 17.5068 24.1533C16.7731 24.1533 16.126 23.9938 15.5654 23.6748C15.0049 23.3512 14.5742 22.8887 14.2734 22.2871C13.9726 21.6855 13.8222 20.9837 13.8222 20.1816C13.8222 18.9329 14.1481 17.9622 14.7998 17.2695C15.4515 16.5768 16.3675 16.2305 17.5478 16.2305C18.2816 16.2305 18.9287 16.39 19.4892 16.709C20.0498 17.028 20.4805 17.486 20.7812 18.083C21.082 18.68 21.2324 19.3796 21.2324 20.1816ZM29.9258 24.0166H27.8408V19.5527C27.8408 19.0013 27.7428 18.5889 27.5468 18.3154C27.3509 18.0374 27.0387 17.8984 26.6103 17.8984C26.027 17.8984 25.6054 18.0944 25.3457 18.4863C25.0859 18.8737 24.956 19.5186 24.956 20.4209V24.0166H22.8711V16.374H24.4638L24.7441 17.3516H24.8603C25.0927 16.9824 25.4118 16.7044 25.8174 16.5176C26.2275 16.3262 26.6924 16.2305 27.2119 16.2305C28.1006 16.2305 28.775 16.472 29.2353 16.9551C29.6956 17.4336 29.9258 18.1263 29.9258 19.0332V24.0166ZM35.208 22.4922C35.5725 22.4922 36.01 22.4124 36.5205 22.2529V23.8047C36.0009 24.0371 35.3629 24.1533 34.6064 24.1533C33.7724 24.1533 33.164 23.9437 32.7812 23.5244C32.4029 23.1006 32.2138 22.4671 32.2138 21.624V17.9395H31.2158V17.0576L32.3642 16.3604L32.9658 14.7471H34.2988V16.374H36.4384V17.9395H34.2988V21.624C34.2988 21.9202 34.3808 22.139 34.5449 22.2803C34.7135 22.4215 34.9345 22.4922 35.208 22.4922ZM37.3115 21.1182V19.4092H40.9824V21.1182H37.3115ZM47.748 21.7471C47.748 22.5309 47.4745 23.1279 46.9277 23.5381C46.3853 23.9482 45.5719 24.1533 44.4872 24.1533C43.9312 24.1533 43.4573 24.1146 43.0654 24.0371C42.6734 23.9642 42.3066 23.8548 41.9648 23.709V21.9863C42.3521 22.1686 42.7874 22.3213 43.2704 22.4443C43.7581 22.5674 44.1864 22.6289 44.5556 22.6289C45.3121 22.6289 45.6904 22.4102 45.6904 21.9727C45.6904 21.8086 45.6402 21.6764 45.54 21.5762C45.4397 21.4714 45.2665 21.3551 45.0204 21.2275C44.7743 21.0954 44.4462 20.9427 44.0361 20.7695C43.4482 20.5234 43.0152 20.2956 42.7372 20.0859C42.4638 19.8763 42.2633 19.637 42.1357 19.3682C42.0126 19.0947 41.9511 18.7598 41.9511 18.3633C41.9511 17.6842 42.2131 17.1602 42.7372 16.791C43.2659 16.4173 44.0133 16.2305 44.9794 16.2305C45.9 16.2305 46.7955 16.431 47.6659 16.832L47.037 18.3359C46.6542 18.1719 46.2965 18.0374 45.9638 17.9326C45.6311 17.8278 45.2916 17.7754 44.9452 17.7754C44.33 17.7754 44.0224 17.9417 44.0224 18.2744C44.0224 18.4613 44.1204 18.623 44.3163 18.7598C44.5169 18.8965 44.9521 19.0993 45.622 19.3682C46.219 19.6097 46.6565 19.8353 46.9345 20.0449C47.2125 20.2546 47.4176 20.4961 47.5497 20.7695C47.6819 21.043 47.748 21.3688 47.748 21.7471ZM49.2021 14.3984C49.2021 13.7194 49.5803 13.3799 50.3368 13.3799C51.0933 13.3799 51.4716 13.7194 51.4716 14.3984C51.4716 14.722 51.3759 14.9749 51.1845 15.1572C50.9976 15.335 50.7151 15.4238 50.3368 15.4238C49.5803 15.4238 49.2021 15.082 49.2021 14.3984ZM51.3759 24.0166H49.2909V16.374H51.3759V24.0166ZM58.8046 24.0166H52.7684V22.7861L56.3095 17.9668H52.9804V16.374H58.6815V17.7275L55.2362 22.4238H58.8046V24.0166ZM63.4032 17.7139C62.9611 17.7139 62.6148 17.8551 62.3641 18.1377C62.1135 18.4157 61.9699 18.8122 61.9335 19.3271H64.8592C64.8501 18.8122 64.7157 18.4157 64.4559 18.1377C64.1962 17.8551 63.8453 17.7139 63.4032 17.7139ZM63.6971 24.1533C62.4667 24.1533 61.5051 23.8138 60.8124 23.1348C60.1197 22.4557 59.7733 21.4941 59.7733 20.25C59.7733 18.9694 60.0923 17.9805 60.7303 17.2832C61.3729 16.5814 62.2593 16.2305 63.3895 16.2305C64.4696 16.2305 65.3104 16.5381 65.912 17.1533C66.5135 17.7686 66.8143 18.6185 66.8143 19.7031V20.7148H61.8856C61.9084 21.3073 62.0839 21.7699 62.412 22.1025C62.7401 22.4352 63.2004 22.6016 63.7928 22.6016C64.2531 22.6016 64.6884 22.5537 65.0985 22.458C65.5087 22.3623 65.937 22.2096 66.3837 22V23.6133C66.0191 23.7956 65.6294 23.93 65.2147 24.0166C64.8 24.1077 64.2941 24.1533 63.6971 24.1533ZM68.1317 23.0391C68.1317 22.6562 68.2342 22.3669 68.4393 22.1709C68.6444 21.9749 68.9429 21.877 69.3348 21.877C69.7131 21.877 70.0047 21.9772 70.2098 22.1777C70.4195 22.3783 70.5243 22.6654 70.5243 23.0391C70.5243 23.3991 70.4195 23.6839 70.2098 23.8936C70.0002 24.0986 69.7085 24.2012 69.3348 24.2012C68.952 24.2012 68.6558 24.1009 68.4461 23.9004C68.2365 23.6953 68.1317 23.4082 68.1317 23.0391ZM68.1317 17.3926C68.1317 17.0098 68.2342 16.7204 68.4393 16.5244C68.6444 16.3285 68.9429 16.2305 69.3348 16.2305C69.7131 16.2305 70.0047 16.3307 70.2098 16.5312C70.4195 16.7318 70.5243 17.0189 70.5243 17.3926C70.5243 17.7617 70.4172 18.0488 70.203 18.2539C69.9933 18.4544 69.704 18.5547 69.3348 18.5547C68.952 18.5547 68.6558 18.4544 68.4461 18.2539C68.2365 18.0534 68.1317 17.7663 68.1317 17.3926ZM82.0457 24.0166H75.4764V23.0391L78.1082 20.3936C78.9103 19.5824 79.439 19.0036 79.6942 18.6572C79.9494 18.3109 80.1408 17.9736 80.2684 17.6455C80.396 17.3174 80.4598 16.9642 80.4598 16.5859C80.4598 16.0527 80.298 15.6312 79.9744 15.3213C79.6509 15.0068 79.202 14.8496 78.6278 14.8496C78.213 14.8496 77.8188 14.918 77.4451 15.0547C77.076 15.1914 76.6636 15.4398 76.2078 15.7998L75.6063 15.0273C76.5268 14.2617 77.5294 13.8789 78.6141 13.8789C79.5529 13.8789 80.2889 14.1204 80.8221 14.6035C81.3553 15.082 81.6219 15.7269 81.6219 16.5381C81.6219 17.1715 81.4442 17.7982 81.0887 18.418C80.7332 19.0378 80.0679 19.8216 79.0926 20.7695L76.9051 22.9092V22.9639H82.0457V24.0166ZM89.9734 24.0166H83.4041V23.0391L86.0359 20.3936C86.838 19.5824 87.3667 19.0036 87.6219 18.6572C87.8771 18.3109 88.0685 17.9736 88.1961 17.6455C88.3237 17.3174 88.3875 16.9642 88.3875 16.5859C88.3875 16.0527 88.2257 15.6312 87.9022 15.3213C87.5786 15.0068 87.1297 14.8496 86.5555 14.8496C86.1408 14.8496 85.7466 14.918 85.3729 15.0547C85.0037 15.1914 84.5913 15.4398 84.1356 15.7998L83.534 15.0273C84.4546 14.2617 85.4572 13.8789 86.5418 13.8789C87.4806 13.8789 88.2166 14.1204 88.7498 14.6035C89.283 15.082 89.5496 15.7269 89.5496 16.5381C89.5496 17.1715 89.3719 17.7982 89.0164 18.418C88.6609 19.0378 87.9956 19.8216 87.0203 20.7695L84.8328 22.9092V22.9639H89.9734V24.0166ZM96.6844 21.9727C96.6844 22.6699 96.4246 23.2077 95.9051 23.5859C95.3855 23.9642 94.6564 24.1533 93.7176 24.1533C92.7241 24.1533 91.9493 23.9961 91.3933 23.6816V22.6289C91.7534 22.8112 92.1385 22.9548 92.5486 23.0596C92.9633 23.1644 93.3621 23.2168 93.7449 23.2168C94.3374 23.2168 94.7931 23.1234 95.1121 22.9365C95.4311 22.7451 95.5906 22.4557 95.5906 22.0684C95.5906 21.7767 95.463 21.5283 95.2078 21.3232C94.9572 21.1136 94.465 20.8675 93.7312 20.585C93.034 20.3252 92.5372 20.0996 92.241 19.9082C91.9493 19.7122 91.7306 19.4912 91.5848 19.2451C91.4435 18.999 91.3728 18.7051 91.3728 18.3633C91.3728 17.7526 91.6212 17.2718 92.118 16.9209C92.6147 16.5654 93.296 16.3877 94.1619 16.3877C94.9685 16.3877 95.757 16.5518 96.5271 16.8799L96.1238 17.8027C95.3719 17.4928 94.6905 17.3379 94.0799 17.3379C93.5421 17.3379 93.1365 17.4222 92.8631 17.5908C92.5896 17.7594 92.4529 17.9919 92.4529 18.2881C92.4529 18.4886 92.503 18.6595 92.6033 18.8008C92.7081 18.9421 92.8745 19.0765 93.1023 19.2041C93.3302 19.3317 93.7677 19.5163 94.4148 19.7578C95.3035 20.0814 95.9028 20.4072 96.2127 20.7354C96.5271 21.0635 96.6844 21.4759 96.6844 21.9727ZM101.939 24.1533C101.452 24.1533 101.005 24.0645 100.599 23.8867C100.198 23.7044 99.8611 23.4264 99.5877 23.0527H99.5056C99.5603 23.4902 99.5877 23.9049 99.5877 24.2969V27.3799H98.4529V16.5244H99.3758L99.533 17.5498H99.5877C99.8793 17.1396 100.219 16.8434 100.606 16.6611C100.994 16.4788 101.438 16.3877 101.939 16.3877C102.933 16.3877 103.698 16.7272 104.236 17.4062C104.778 18.0853 105.05 19.0378 105.05 20.2637C105.05 21.4941 104.774 22.4512 104.222 23.1348C103.676 23.8138 102.914 24.1533 101.939 24.1533ZM101.775 17.3516C101.01 17.3516 100.456 17.5635 100.114 17.9873C99.7722 18.4111 99.5968 19.0856 99.5877 20.0107V20.2637C99.5877 21.3164 99.7631 22.0706 100.114 22.5264C100.465 22.9775 101.028 23.2031 101.803 23.2031C102.45 23.2031 102.956 22.9411 103.32 22.417C103.689 21.8929 103.874 21.1706 103.874 20.25C103.874 19.3158 103.689 18.6003 103.32 18.1035C102.956 17.6022 102.441 17.3516 101.775 17.3516ZM6.85156 34.0225H9.96191C11.3792 34.0225 12.4069 34.2253 13.0449 34.6309C13.6875 35.0319 14.0088 35.6722 14.0088 36.5518C14.0088 37.1488 13.8675 37.6387 13.585 38.0215C13.307 38.4043 12.9355 38.6344 12.4707 38.7119V38.7803C13.1042 38.9215 13.5599 39.1859 13.8379 39.5732C14.1204 39.9606 14.2617 40.4756 14.2617 41.1182C14.2617 42.0296 13.9313 42.7406 13.2705 43.251C12.6143 43.7614 11.721 44.0166 10.5908 44.0166H6.85156V34.0225ZM8.9707 37.9805H10.2012C10.7754 37.9805 11.1901 37.8916 11.4453 37.7139C11.7051 37.5361 11.835 37.2422 11.835 36.832C11.835 36.4492 11.6937 36.1758 11.4111 36.0117C11.1331 35.8431 10.6911 35.7588 10.085 35.7588H8.9707V37.9805ZM8.9707 39.6621V42.2666H10.3516C10.9349 42.2666 11.3656 42.1549 11.6436 41.9316C11.9215 41.7083 12.0605 41.3665 12.0605 40.9062C12.0605 40.0768 11.4681 39.6621 10.2832 39.6621H8.9707ZM17.6709 40.1816C17.6709 40.9382 17.7939 41.5101 18.04 41.8975C18.2907 42.2848 18.6963 42.4785 19.2568 42.4785C19.8128 42.4785 20.2116 42.2871 20.4531 41.9043C20.6992 41.5169 20.8223 40.9427 20.8223 40.1816C20.8223 39.4251 20.6992 38.8577 20.4531 38.4795C20.207 38.1012 19.8037 37.9121 19.2431 37.9121C18.6872 37.9121 18.2861 38.1012 18.04 38.4795C17.7939 38.8532 17.6709 39.4206 17.6709 40.1816ZM22.9551 40.1816C22.9551 41.4258 22.6269 42.3988 21.9707 43.1006C21.3144 43.8024 20.4007 44.1533 19.2295 44.1533C18.4958 44.1533 17.8486 43.9938 17.2881 43.6748C16.7275 43.3512 16.2969 42.8887 15.9961 42.2871C15.6953 41.6855 15.5449 40.9837 15.5449 40.1816C15.5449 38.9329 15.8708 37.9622 16.5224 37.2695C17.1741 36.5768 18.0902 36.2305 19.2705 36.2305C20.0042 36.2305 20.6514 36.39 21.2119 36.709C21.7724 37.028 22.2031 37.486 22.5039 38.083C22.8047 38.68 22.9551 39.3796 22.9551 40.1816ZM28.8593 36.2305C29.1419 36.2305 29.3766 36.251 29.5634 36.292L29.4062 38.2471C29.2376 38.2015 29.0325 38.1787 28.791 38.1787C28.1256 38.1787 27.6061 38.3496 27.2324 38.6914C26.8633 39.0332 26.6787 39.5117 26.6787 40.127V44.0166H24.5937V36.374H26.1728L26.4804 37.6592H26.583C26.82 37.2308 27.139 36.8867 27.54 36.627C27.9456 36.3626 28.3854 36.2305 28.8593 36.2305ZM33.2871 44.1533C32.3893 44.1533 31.6829 43.8047 31.1679 43.1074C30.6575 42.4102 30.4023 41.444 30.4023 40.209C30.4023 38.9557 30.6621 37.9805 31.1816 37.2832C31.7057 36.5814 32.4257 36.2305 33.3417 36.2305C34.3033 36.2305 35.0371 36.6042 35.5429 37.3516H35.6113C35.5065 36.7819 35.4541 36.2738 35.4541 35.8271V33.3799H37.5459V44.0166H35.9462L35.5429 43.0254H35.4541C34.9801 43.7773 34.2578 44.1533 33.2871 44.1533ZM34.0185 42.4922C34.5517 42.4922 34.9414 42.3372 35.1875 42.0273C35.4381 41.7174 35.5748 41.1911 35.5976 40.4482V40.2227C35.5976 39.4023 35.47 38.8145 35.2148 38.459C34.9641 38.1035 34.554 37.9258 33.9843 37.9258C33.5195 37.9258 33.1572 38.124 32.8974 38.5205C32.6422 38.9124 32.5146 39.4844 32.5146 40.2363C32.5146 40.9883 32.6445 41.5534 32.9042 41.9316C33.164 42.3053 33.5354 42.4922 34.0185 42.4922ZM42.8076 37.7139C42.3655 37.7139 42.0191 37.8551 41.7685 38.1377C41.5178 38.4157 41.3743 38.8122 41.3378 39.3271H44.2636C44.2545 38.8122 44.1201 38.4157 43.8603 38.1377C43.6005 37.8551 43.2496 37.7139 42.8076 37.7139ZM43.1015 44.1533C41.871 44.1533 40.9094 43.8138 40.2167 43.1348C39.524 42.4557 39.1777 41.4941 39.1777 40.25C39.1777 38.9694 39.4967 37.9805 40.1347 37.2832C40.7773 36.5814 41.6637 36.2305 42.7939 36.2305C43.874 36.2305 44.7148 36.5381 45.3163 37.1533C45.9179 37.7686 46.2187 38.6185 46.2187 39.7031V40.7148H41.29C41.3128 41.3073 41.4882 41.7699 41.8163 42.1025C42.1445 42.4352 42.6048 42.6016 43.1972 42.6016C43.6575 42.6016 44.0927 42.5537 44.5029 42.458C44.913 42.3623 45.3414 42.2096 45.788 42V43.6133C45.4234 43.7956 45.0338 43.93 44.6191 44.0166C44.2044 44.1077 43.6985 44.1533 43.1015 44.1533ZM52.0956 36.2305C52.3782 36.2305 52.6129 36.251 52.7997 36.292L52.6425 38.2471C52.4739 38.2015 52.2688 38.1787 52.0273 38.1787C51.3619 38.1787 50.8424 38.3496 50.4687 38.6914C50.0995 39.0332 49.915 39.5117 49.915 40.127V44.0166H47.83V36.374H49.4091L49.7167 37.6592H49.8193C50.0562 37.2308 50.3752 36.8867 50.7763 36.627C51.1819 36.3626 51.6217 36.2305 52.0956 36.2305ZM53.4267 41.1182V39.4092H57.0976V41.1182H53.4267ZM62.7968 36.2305C63.0793 36.2305 63.314 36.251 63.5009 36.292L63.3436 38.2471C63.175 38.2015 62.9699 38.1787 62.7284 38.1787C62.063 38.1787 61.5435 38.3496 61.1698 38.6914C60.8007 39.0332 60.6161 39.5117 60.6161 40.127V44.0166H58.5311V36.374H60.1102L60.4179 37.6592H60.5204C60.7574 37.2308 61.0764 36.8867 61.4774 36.627C61.883 36.3626 62.3228 36.2305 62.7968 36.2305ZM69.6581 44.0166L69.2548 42.9775H69.2001C68.8492 43.4196 68.4869 43.7272 68.1132 43.9004C67.744 44.069 67.2609 44.1533 66.6639 44.1533C65.9302 44.1533 65.3514 43.9437 64.9276 43.5244C64.5083 43.1051 64.2987 42.5081 64.2987 41.7334C64.2987 40.9222 64.5813 40.3252 65.1464 39.9424C65.716 39.555 66.5728 39.3408 67.7167 39.2998L69.0428 39.2588V38.9238C69.0428 38.1491 68.6464 37.7617 67.8534 37.7617C67.2427 37.7617 66.5249 37.9463 65.7001 38.3154L65.0096 36.9072C65.8892 36.4469 66.8645 36.2168 67.9354 36.2168C68.9608 36.2168 69.7469 36.4401 70.2938 36.8867C70.8407 37.3333 71.1141 38.0124 71.1141 38.9238V44.0166H69.6581ZM69.0428 40.4756L68.2362 40.5029C67.6301 40.5212 67.1789 40.6305 66.8827 40.8311C66.5865 41.0316 66.4384 41.3369 66.4384 41.7471C66.4384 42.335 66.7756 42.6289 67.4501 42.6289C67.9331 42.6289 68.3182 42.4899 68.6053 42.2119C68.897 41.9339 69.0428 41.5648 69.0428 41.1045V40.4756ZM75.6034 44.1533C74.7056 44.1533 73.9992 43.8047 73.4842 43.1074C72.9738 42.4102 72.7186 41.444 72.7186 40.209C72.7186 38.9557 72.9784 37.9805 73.4979 37.2832C74.022 36.5814 74.7421 36.2305 75.6581 36.2305C76.6197 36.2305 77.3534 36.6042 77.8592 37.3516H77.9276C77.8228 36.7819 77.7704 36.2738 77.7704 35.8271V33.3799H79.8622V44.0166H78.2626L77.8592 43.0254H77.7704C77.2964 43.7773 76.5741 44.1533 75.6034 44.1533ZM76.3348 42.4922C76.868 42.4922 77.2577 42.3372 77.5038 42.0273C77.7544 41.7174 77.8911 41.1911 77.9139 40.4482V40.2227C77.9139 39.4023 77.7863 38.8145 77.5311 38.459C77.2805 38.1035 76.8703 37.9258 76.3006 37.9258C75.8358 37.9258 75.4735 38.124 75.2137 38.5205C74.9585 38.9124 74.8309 39.4844 74.8309 40.2363C74.8309 40.9883 74.9608 41.5534 75.2206 41.9316C75.4803 42.3053 75.8518 42.4922 76.3348 42.4922ZM81.87 34.3984C81.87 33.7194 82.2482 33.3799 83.0047 33.3799C83.7612 33.3799 84.1395 33.7194 84.1395 34.3984C84.1395 34.722 84.0438 34.9749 83.8524 35.1572C83.6655 35.335 83.383 35.4238 83.0047 35.4238C82.2482 35.4238 81.87 35.082 81.87 34.3984ZM84.0438 44.0166H81.9588V36.374H84.0438V44.0166ZM91.5682 44.0166L91.2879 43.0391H91.1785C90.9552 43.3945 90.6385 43.6702 90.2283 43.8662C89.8182 44.0576 89.3511 44.1533 88.827 44.1533C87.9292 44.1533 87.2524 43.9141 86.7967 43.4355C86.341 42.9525 86.1131 42.2598 86.1131 41.3574V36.374H88.1981V40.8379C88.1981 41.3893 88.296 41.804 88.492 42.082C88.688 42.3555 89.0002 42.4922 89.4285 42.4922C90.0119 42.4922 90.4334 42.2985 90.6932 41.9111C90.9529 41.5192 91.0828 40.8721 91.0828 39.9697V36.374H93.1678V44.0166H91.5682ZM100.603 41.7471C100.603 42.5309 100.33 43.1279 99.783 43.5381C99.2407 43.9482 98.4272 44.1533 97.3426 44.1533C96.7866 44.1533 96.3126 44.1146 95.9207 44.0371C95.5288 43.9642 95.1619 43.8548 94.8201 43.709V41.9863C95.2075 42.1686 95.6427 42.3213 96.1258 42.4443C96.6134 42.5674 97.0418 42.6289 97.4109 42.6289C98.1675 42.6289 98.5457 42.4102 98.5457 41.9727C98.5457 41.8086 98.4956 41.6764 98.3953 41.5762C98.2951 41.4714 98.1219 41.3551 97.8758 41.2275C97.6297 41.0954 97.3016 40.9427 96.8914 40.7695C96.3035 40.5234 95.8706 40.2956 95.5926 40.0859C95.3191 39.8763 95.1186 39.637 94.991 39.3682C94.868 39.0947 94.8064 38.7598 94.8064 38.3633C94.8064 37.6842 95.0685 37.1602 95.5926 36.791C96.1212 36.4173 96.8686 36.2305 97.8348 36.2305C98.7553 36.2305 99.6509 36.431 100.521 36.832L99.8924 38.3359C99.5096 38.1719 99.1518 38.0374 98.8191 37.9326C98.4865 37.8278 98.1469 37.7754 97.8006 37.7754C97.1854 37.7754 96.8777 37.9417 96.8777 38.2744C96.8777 38.4613 96.9757 38.623 97.1717 38.7598C97.3722 38.8965 97.8074 39.0993 98.4773 39.3682C99.0744 39.6097 99.5119 39.8353 99.7898 40.0449C100.068 40.2546 100.273 40.4961 100.405 40.7695C100.537 41.043 100.603 41.3688 100.603 41.7471ZM101.852 43.0391C101.852 42.6562 101.955 42.3669 102.16 42.1709C102.365 41.9749 102.664 41.877 103.055 41.877C103.434 41.877 103.725 41.9772 103.93 42.1777C104.14 42.3783 104.245 42.6654 104.245 43.0391C104.245 43.3991 104.14 43.6839 103.93 43.8936C103.721 44.0986 103.429 44.2012 103.055 44.2012C102.673 44.2012 102.376 44.1009 102.167 43.9004C101.957 43.6953 101.852 43.4082 101.852 43.0391ZM101.852 37.3926C101.852 37.0098 101.955 36.7204 102.16 36.5244C102.365 36.3285 102.664 36.2305 103.055 36.2305C103.434 36.2305 103.725 36.3307 103.93 36.5312C104.14 36.7318 104.245 37.0189 104.245 37.3926C104.245 37.7617 104.138 38.0488 103.924 38.2539C103.714 38.4544 103.425 38.5547 103.055 38.5547C102.673 38.5547 102.376 38.4544 102.167 38.2539C101.957 38.0534 101.852 37.7663 101.852 37.3926ZM116.238 41.7197H114.755V44.0166H113.668V41.7197H108.807V40.7285L113.552 33.9678H114.755V40.6875H116.238V41.7197ZM113.668 40.6875V37.3652C113.668 36.7135 113.691 35.9775 113.736 35.1572H113.681C113.463 35.5947 113.258 35.957 113.066 36.2441L109.942 40.6875H113.668ZM122.744 43.0117H122.682C122.158 43.7728 121.374 44.1533 120.331 44.1533C119.351 44.1533 118.588 43.8184 118.041 43.1484C117.498 42.4785 117.227 41.526 117.227 40.291C117.227 39.056 117.501 38.0967 118.048 37.4131C118.594 36.7295 119.356 36.3877 120.331 36.3877C121.347 36.3877 122.126 36.7568 122.669 37.4951H122.758L122.71 36.9551L122.682 36.4287V33.3799H123.817V44.0166H122.894L122.744 43.0117ZM120.474 43.2031C121.249 43.2031 121.81 42.9935 122.156 42.5742C122.507 42.1504 122.682 41.4691 122.682 40.5303V40.291C122.682 39.2292 122.505 38.4727 122.149 38.0215C121.798 37.5658 121.235 37.3379 120.461 37.3379C119.795 37.3379 119.285 37.5977 118.929 38.1172C118.579 38.6322 118.403 39.3613 118.403 40.3047C118.403 41.2617 118.579 41.984 118.929 42.4717C119.28 42.9593 119.795 43.2031 120.474 43.2031ZM129.633 44.1533C129.145 44.1533 128.698 44.0645 128.293 43.8867C127.892 43.7044 127.554 43.4264 127.281 43.0527H127.199C127.254 43.4902 127.281 43.9049 127.281 44.2969V47.3799H126.146V36.5244H127.069L127.226 37.5498H127.281C127.573 37.1396 127.912 36.8434 128.3 36.6611C128.687 36.4788 129.131 36.3877 129.633 36.3877C130.626 36.3877 131.392 36.7272 131.929 37.4062C132.472 38.0853 132.743 39.0378 132.743 40.2637C132.743 41.4941 132.467 42.4512 131.916 43.1348C131.369 43.8138 130.608 44.1533 129.633 44.1533ZM129.468 37.3516C128.703 37.3516 128.149 37.5635 127.807 37.9873C127.466 38.4111 127.29 39.0856 127.281 40.0107V40.2637C127.281 41.3164 127.456 42.0706 127.807 42.5264C128.158 42.9775 128.721 43.2031 129.496 43.2031C130.143 43.2031 130.649 42.9411 131.013 42.417C131.383 41.8929 131.567 41.1706 131.567 40.25C131.567 39.3158 131.383 38.6003 131.013 38.1035C130.649 37.6022 130.134 37.3516 129.468 37.3516Z" fill="#fff"/>
<path d="M1 55.0008V3.02026H141.678V13.1136L149 20.6835L141.678 27.7489V55.0008H1Z" stroke="#CCC"/>
<path d="M168.31 34.0142H161.74V33.0366L164.372 30.3911C165.174 29.5799 165.703 29.0011 165.958 28.6548C166.213 28.3084 166.405 27.9712 166.532 27.6431C166.66 27.3149 166.724 26.9618 166.724 26.5835C166.724 26.0503 166.562 25.6287 166.238 25.3188C165.915 25.0044 165.466 24.8472 164.892 24.8472C164.477 24.8472 164.083 24.9155 163.709 25.0522C163.34 25.189 162.927 25.4373 162.472 25.7974L161.87 25.0249C162.791 24.2593 163.793 23.8765 164.878 23.8765C165.817 23.8765 166.553 24.118 167.086 24.6011C167.619 25.0796 167.886 25.7244 167.886 26.5356C167.886 27.1691 167.708 27.7957 167.353 28.4155C166.997 29.0353 166.332 29.8192 165.356 30.7671L163.169 32.9067V32.9614H168.31V34.0142ZM176.709 31.7173H175.226V34.0142H174.139V31.7173H169.278V30.7261L174.022 23.9653H175.226V30.6851H176.709V31.7173ZM174.139 30.6851V27.3628C174.139 26.7111 174.161 25.9751 174.207 25.1548H174.152C173.934 25.5923 173.729 25.9546 173.537 26.2417L170.413 30.6851H174.139ZM183.215 33.0093H183.153C182.629 33.7703 181.845 34.1509 180.802 34.1509C179.822 34.1509 179.059 33.8159 178.512 33.146C177.969 32.4761 177.698 31.5236 177.698 30.2886C177.698 29.0535 177.972 28.0942 178.519 27.4106C179.065 26.7271 179.827 26.3853 180.802 26.3853C181.818 26.3853 182.597 26.7544 183.14 27.4927H183.229L183.181 26.9526L183.153 26.4263V23.3774H184.288V34.0142H183.365L183.215 33.0093ZM180.945 33.2007C181.72 33.2007 182.281 32.991 182.627 32.5718C182.978 32.1479 183.153 31.4666 183.153 30.5278V30.2886C183.153 29.2267 182.976 28.4702 182.62 28.019C182.269 27.5633 181.706 27.3354 180.932 27.3354C180.266 27.3354 179.756 27.5952 179.4 28.1147C179.049 28.6297 178.874 29.3589 178.874 30.3022C178.874 31.2593 179.049 31.9816 179.4 32.4692C179.751 32.9569 180.266 33.2007 180.945 33.2007ZM190.104 34.1509C189.616 34.1509 189.169 34.062 188.764 33.8843C188.363 33.702 188.025 33.424 187.752 33.0503H187.67C187.725 33.4878 187.752 33.9025 187.752 34.2944V37.3774H186.617V26.522H187.54L187.697 27.5474H187.752C188.044 27.1372 188.383 26.841 188.771 26.6587C189.158 26.4764 189.602 26.3853 190.104 26.3853C191.097 26.3853 191.863 26.7248 192.4 27.4038C192.943 28.0828 193.214 29.0353 193.214 30.2612C193.214 31.4917 192.938 32.4487 192.387 33.1323C191.84 33.8114 191.079 34.1509 190.104 34.1509ZM189.939 27.3491C189.174 27.3491 188.62 27.561 188.278 27.9849C187.937 28.4087 187.761 29.0832 187.752 30.0083V30.2612C187.752 31.314 187.927 32.0682 188.278 32.5239C188.629 32.9751 189.192 33.2007 189.967 33.2007C190.614 33.2007 191.12 32.9386 191.484 32.4146C191.854 31.8905 192.038 31.1681 192.038 30.2476C192.038 29.3133 191.854 28.5978 191.484 28.1011C191.12 27.5998 190.605 27.3491 189.939 27.3491Z" fill="#E8178A"/>
<g clip-path="url(#clip0_7251_82900)">
<rect x="204" y="1.021" width="322" height="55.979" rx="4" fill="#464B52"/>
<path d="M232 16.6772C231.411 16.6772 230.851 16.7944 230.341 17.0057C229.831 17.2172 229.246 16.9752 229.035 16.465C228.823 15.9548 229.065 15.3698 229.575 15.1582C230.324 14.848 231.143 14.6772 232 14.6772H234C234.552 14.6772 235 15.125 235 15.6772C235 16.2295 234.552 16.6772 234 16.6772H232Z" fill="#fff"/>
<path d="M237 15.6772C237 15.125 237.448 14.6772 238 14.6772H242C242.552 14.6772 243 15.125 243 15.6772C243 16.2295 242.552 16.6772 242 16.6772H238C237.448 16.6772 237 16.2295 237 15.6772Z" fill="#fff"/>
<path d="M245 15.6772C245 15.125 245.448 14.6772 246 14.6772H248C248.857 14.6772 249.676 14.848 250.425 15.1582C250.935 15.3698 251.177 15.9548 250.965 16.465C250.754 16.9752 250.169 17.2172 249.658 17.0057C249.149 16.7944 248.589 16.6772 248 16.6772H246C245.448 16.6772 245 16.2295 245 15.6772Z" fill="#fff"/>
<path d="M227.454 18.0453C227.965 18.2569 228.207 18.8419 227.995 19.3521C227.784 19.8616 227.667 20.4212 227.667 21.0106V23.0106C227.667 23.5629 227.219 24.0106 226.667 24.0106C226.114 24.0106 225.667 23.5629 225.667 23.0106V21.0106C225.667 20.1537 225.837 19.3341 226.148 18.586C226.359 18.0758 226.944 17.8338 227.454 18.0453Z" fill="#fff"/>
<path d="M252.546 18.0453C253.056 17.8338 253.641 18.0758 253.852 18.586C254.163 19.3341 254.333 20.1537 254.333 21.0106V23.0106C254.333 23.5629 253.886 24.0106 253.333 24.0106C252.781 24.0106 252.333 23.5629 252.333 23.0106V21.0106C252.333 20.4212 252.216 19.8616 252.005 19.3521C251.793 18.8419 252.035 18.2569 252.546 18.0453Z" fill="#fff"/>
<path d="M226.667 26.0106C227.219 26.0106 227.667 26.4583 227.667 27.0106V31.0106C227.667 31.5629 227.219 32.0106 226.667 32.0106C226.114 32.0106 225.667 31.5629 225.667 31.0106V27.0106C225.667 26.4583 226.114 26.0106 226.667 26.0106Z" fill="#fff"/>
<path d="M253.333 26.0106C253.886 26.0106 254.333 26.4583 254.333 27.0106V31.0106C254.333 31.5629 253.886 32.0106 253.333 32.0106C252.781 32.0106 252.333 31.5629 252.333 31.0106V27.0106C252.333 26.4583 252.781 26.0106 253.333 26.0106Z" fill="#fff"/>
<path d="M226.667 34.0106C227.219 34.0106 227.667 34.4583 227.667 35.0106V37.0106C227.667 37.6 227.784 38.1595 227.995 38.6691C228.207 39.1792 227.965 39.7643 227.454 39.9758C226.944 40.1874 226.359 39.9453 226.148 39.4352C225.837 38.687 225.667 37.8675 225.667 37.0106V35.0106C225.667 34.4583 226.114 34.0106 226.667 34.0106Z" fill="#fff"/>
<path d="M253.333 34.0106C253.886 34.0106 254.333 34.4583 254.333 35.0106V37.0106C254.333 37.8675 254.163 38.687 253.852 39.4352C253.641 39.9453 253.056 40.1874 252.546 39.9758C252.035 39.7643 251.793 39.1792 252.005 38.6691C252.216 38.1595 252.333 37.6 252.333 37.0106V35.0106C252.333 34.4583 252.781 34.0106 253.333 34.0106Z" fill="#fff"/>
<path d="M229.035 41.5562C229.246 41.046 229.831 40.8039 230.341 41.0155C230.851 41.2268 231.411 41.3439 232 41.3439H234C234.552 41.3439 235 41.7916 235 42.3439C235 42.8962 234.552 43.3439 234 43.3439H232C231.143 43.3439 230.324 43.1732 229.575 42.8629C229.065 42.6514 228.823 42.0663 229.035 41.5562Z" fill="#fff"/>
<path d="M250.965 41.5562C251.177 42.0663 250.935 42.6514 250.425 42.8629C249.676 43.1732 248.857 43.3439 248 43.3439H246C245.448 43.3439 245 42.8962 245 42.3439C245 41.7916 245.448 41.3439 246 41.3439H248C248.589 41.3439 249.149 41.2268 249.658 41.0155C250.169 40.8039 250.754 41.046 250.965 41.5562Z" fill="#fff"/>
<path d="M237 42.3439C237 41.7916 237.448 41.3439 238 41.3439H242C242.552 41.3439 243 41.7916 243 42.3439C243 42.8962 242.552 43.3439 242 43.3439H238C237.448 43.3439 237 42.8962 237 42.3439Z" fill="#fff"/>
<path d="M251.374 19.1319C251.764 18.7414 251.764 18.1082 251.374 17.7177C250.983 17.3272 250.35 17.3272 249.96 17.7177L248.631 19.046C248.241 19.4365 248.241 20.0697 248.631 20.4602C249.022 20.8507 249.655 20.8507 250.045 20.4602L251.374 19.1319Z" fill="#fff"/>
<path d="M247.389 23.1167C247.779 22.7262 247.779 22.093 247.389 21.7025C246.998 21.312 246.365 21.312 245.975 21.7025L243.318 24.3591C242.928 24.7496 242.928 25.3828 243.318 25.7733C243.709 26.1638 244.342 26.1638 244.732 25.7733L247.389 23.1167Z" fill="#fff"/>
<path d="M242.076 28.4298C242.466 28.0393 242.466 27.4062 242.076 27.0156C241.685 26.6251 241.052 26.6251 240.662 27.0156L240 27.6772L239.338 27.0156C238.948 26.6251 238.315 26.6251 237.924 27.0156C237.534 27.4062 237.534 28.0393 237.924 28.4298L238.586 29.0915L238.005 29.6722C237.614 30.0627 237.614 30.6959 238.005 31.0864C238.396 31.4769 239.029 31.4769 239.419 31.0864L240 30.5057L240.581 31.0864C240.971 31.4769 241.604 31.4769 241.995 31.0864C242.385 30.6959 242.385 30.0627 241.995 29.6722L241.414 29.0915L242.076 28.4298Z" fill="#fff"/>
<path d="M236.763 33.743C237.153 33.3524 237.153 32.7193 236.763 32.3287C236.372 31.9382 235.739 31.9382 235.348 32.3287L232.692 34.9853C232.301 35.3758 232.301 36.009 232.692 36.3995C233.082 36.79 233.716 36.79 234.106 36.3995L236.763 33.743Z" fill="#fff"/>
<path d="M231.45 39.0561C231.84 38.6656 231.84 38.0324 231.45 37.6419C231.059 37.2513 230.426 37.2513 230.035 37.6419L228.707 38.9701C228.317 39.3607 228.317 39.9938 228.707 40.3844C229.098 40.7749 229.731 40.7749 230.121 40.3844L231.45 39.0561Z" fill="#fff"/>
<path d="M249.879 40.3844C250.269 40.7749 250.902 40.7749 251.293 40.3844C251.683 39.9938 251.683 39.3607 251.293 38.9701L249.965 37.6419C249.574 37.2513 248.941 37.2513 248.55 37.6419C248.16 38.0324 248.16 38.6656 248.55 39.0561L249.879 40.3844Z" fill="#fff"/>
<path d="M245.894 36.3995C246.284 36.79 246.917 36.79 247.308 36.3995C247.699 36.009 247.699 35.3758 247.308 34.9853L244.651 32.3287C244.261 31.9382 243.628 31.9382 243.237 32.3287C242.847 32.7193 242.847 33.3524 243.237 33.743L245.894 36.3995Z" fill="#fff"/>
<path d="M235.268 25.7733C235.658 26.1638 236.291 26.1638 236.682 25.7733C237.072 25.3828 237.072 24.7496 236.682 24.3591L234.025 21.7025C233.635 21.312 233.002 21.312 232.611 21.7025C232.22 22.093 232.22 22.7262 232.611 23.1167L235.268 25.7733Z" fill="#fff"/>
<path d="M229.954 20.4602C230.345 20.8507 230.978 20.8507 231.369 20.4602C231.759 20.0697 231.759 19.4365 231.369 19.046L230.04 17.7177C229.65 17.3272 229.017 17.3272 228.626 17.7177C228.236 18.1082 228.236 18.7414 228.626 19.1319L229.954 20.4602Z" fill="#fff"/>
<path d="M236.075 22.196C236.472 22.0756 236.894 22.0106 237.333 22.0106H238.333C238.886 22.0106 239.333 21.5629 239.333 21.0106C239.333 20.4583 238.886 20.0106 238.333 20.0106H237.333C236.695 20.0106 236.078 20.1052 235.495 20.2819C234.966 20.442 234.667 21.0003 234.828 21.5289C234.988 22.0574 235.546 22.3561 236.075 22.196Z" fill="#fff"/>
<path d="M241.667 20.0106C241.114 20.0106 240.667 20.4583 240.667 21.0106C240.667 21.5629 241.114 22.0106 241.667 22.0106H242.667C243.106 22.0106 243.528 22.0756 243.925 22.196C244.454 22.3561 245.012 22.0574 245.172 21.5289C245.333 21.0003 245.034 20.442 244.505 20.2819C243.922 20.1052 243.305 20.0106 242.667 20.0106H241.667Z" fill="#fff"/>
<path d="M233.185 25.0852C233.345 24.5566 233.047 23.9983 232.518 23.8382C231.99 23.678 231.431 23.9767 231.271 24.5052C231.095 25.0884 231 25.706 231 26.3439V27.3439C231 27.8962 231.448 28.3439 232 28.3439C232.552 28.3439 233 27.8962 233 27.3439V26.3439C233 25.9046 233.065 25.4823 233.185 25.0852Z" fill="#fff"/>
<path d="M248.729 24.5052C248.569 23.9767 248.01 23.678 247.482 23.8382C246.953 23.9983 246.654 24.5566 246.815 25.0852C246.935 25.4823 247 25.9046 247 26.3439V27.3439C247 27.8962 247.448 28.3439 248 28.3439C248.552 28.3439 249 27.8962 249 27.3439V26.3439C249 25.706 248.905 25.0884 248.729 24.5052Z" fill="#fff"/>
<path d="M233 30.6772C233 30.125 232.552 29.6772 232 29.6772C231.448 29.6772 231 30.125 231 30.6772V31.6772C231 32.3152 231.095 32.9328 231.271 33.5159C231.431 34.0445 231.99 34.3431 232.518 34.183C233.047 34.0229 233.345 33.4646 233.185 32.936C233.065 32.5389 233 32.1166 233 31.6772V30.6772Z" fill="#fff"/>
<path d="M249 30.6772C249 30.125 248.552 29.6772 248 29.6772C247.448 29.6772 247 30.125 247 30.6772V31.6772C247 32.1166 246.935 32.5389 246.815 32.936C246.654 33.4646 246.953 34.0229 247.482 34.183C248.01 34.3431 248.569 34.0445 248.729 33.5159C248.905 32.9328 249 32.3152 249 31.6772V30.6772Z" fill="#fff"/>
<path d="M236.075 35.8252C235.546 35.6651 234.988 35.9637 234.828 36.4923C234.667 37.0208 234.966 37.5791 235.495 37.7393C236.078 37.916 236.695 38.0106 237.333 38.0106H238.333C238.886 38.0106 239.333 37.5629 239.333 37.0106C239.333 36.4583 238.886 36.0106 238.333 36.0106H237.333C236.894 36.0106 236.472 35.9455 236.075 35.8252Z" fill="#fff"/>
<path d="M244.505 37.7393C245.034 37.5791 245.333 37.0208 245.172 36.4923C245.012 35.9637 244.454 35.6651 243.925 35.8252C243.528 35.9455 243.106 36.0106 242.667 36.0106H241.667C241.114 36.0106 240.667 36.4583 240.667 37.0106C240.667 37.5629 241.114 38.0106 241.667 38.0106H242.667C243.305 38.0106 243.922 37.916 244.505 37.7393Z" fill="#fff"/>
<path d="M274.993 38.0105H273.167V23.9275H268.193V22.3054H279.967V23.9275H274.993V38.0105ZM284.105 38.0105H282.322V26.2371H284.105V38.0105ZM282.172 23.0466C282.172 22.6384 282.272 22.3412 282.473 22.155C282.673 21.9617 282.924 21.865 283.225 21.865C283.511 21.865 283.758 21.9617 283.966 22.155C284.174 22.3484 284.277 22.6456 284.277 23.0466C284.277 23.4477 284.174 23.7485 283.966 23.949C283.758 24.1423 283.511 24.239 283.225 24.239C282.924 24.239 282.673 24.1423 282.473 23.949C282.272 23.7485 282.172 23.4477 282.172 23.0466ZM291.939 36.7537C292.255 36.7537 292.559 36.7322 292.853 36.6892C293.146 36.6391 293.379 36.5889 293.551 36.5388V37.9031C293.357 37.9962 293.071 38.0714 292.691 38.1287C292.319 38.1931 291.982 38.2253 291.682 38.2253C289.404 38.2253 288.266 37.0258 288.266 34.6267V27.6228H286.579V26.7634L288.266 26.0222L289.018 23.5085H290.049V26.2371H293.465V27.6228H290.049V34.5515C290.049 35.2605 290.217 35.8048 290.554 36.1843C290.89 36.5639 291.352 36.7537 291.939 36.7537ZM297.947 38.0105H296.164V21.2957H297.947V38.0105ZM306.952 38.2253C305.212 38.2253 303.837 37.6954 302.827 36.6355C301.825 35.5756 301.323 34.1039 301.323 32.2205C301.323 30.3227 301.789 28.8152 302.72 27.698C303.658 26.5808 304.915 26.0222 306.49 26.0222C307.965 26.0222 309.133 26.5092 309.992 27.4832C310.852 28.45 311.281 29.7283 311.281 31.3181V32.446H303.171C303.207 33.8282 303.554 34.8774 304.213 35.5935C304.879 36.3097 305.813 36.6677 307.017 36.6677C308.284 36.6677 309.537 36.4028 310.776 35.8728V37.4626C310.146 37.7348 309.548 37.9281 308.982 38.0427C308.424 38.1645 307.747 38.2253 306.952 38.2253ZM306.469 27.5154C305.523 27.5154 304.768 27.8233 304.202 28.4392C303.644 29.0551 303.314 29.9073 303.214 30.9958H309.369C309.369 29.8715 309.118 29.0121 308.617 28.4177C308.116 27.8162 307.4 27.5154 306.469 27.5154Z" fill="#fff"/>
<path d="M503.45 25.5605L500.95 23.0605L494 29.9605L487.05 23.0605L484.55 25.5605L494 34.9605L503.45 25.5605Z" fill="#fff"/>
</g>
<rect x="204.5" y="1.521" width="321" height="54.979" rx="3.5" stroke="#DDDEE5"/>
<rect x="204" y="1.021" width="21" height="55.979" fill="#EB3499" fill-opacity="0.6"/>
<path d="M519 1.021H526V57H519V1.021Z" fill="#EB3499" fill-opacity="0.6"/>
<path d="M547.107 23.2129C548.018 23.2129 548.741 23.4248 549.274 23.8486C549.807 24.2725 550.074 24.8581 550.074 25.6055C550.074 26.0977 549.921 26.5465 549.616 26.9521C549.31 27.3577 548.823 27.7269 548.153 28.0596C548.964 28.4469 549.54 28.8548 549.882 29.2832C550.224 29.707 550.395 30.1992 550.395 30.7598C550.395 31.5892 550.106 32.2523 549.527 32.749C548.948 33.2412 548.155 33.4873 547.148 33.4873C546.081 33.4873 545.261 33.2549 544.687 32.79C544.113 32.3206 543.826 31.6576 543.826 30.8008C543.826 29.6569 544.523 28.766 545.917 28.1279C545.289 27.7725 544.837 27.3896 544.564 26.9795C544.29 26.5648 544.154 26.1022 544.154 25.5918C544.154 24.8672 544.42 24.2907 544.954 23.8623C545.491 23.4294 546.209 23.2129 547.107 23.2129ZM544.947 30.8281C544.947 31.375 545.136 31.8011 545.514 32.1064C545.897 32.4118 546.432 32.5645 547.121 32.5645C547.8 32.5645 548.328 32.4049 548.706 32.0859C549.085 31.7669 549.274 31.3294 549.274 30.7734C549.274 30.3314 549.096 29.9395 548.741 29.5977C548.385 29.2513 547.765 28.9163 546.881 28.5928C546.202 28.8844 545.71 29.208 545.405 29.5635C545.099 29.9144 544.947 30.3359 544.947 30.8281ZM547.093 24.1357C546.524 24.1357 546.077 24.2725 545.753 24.5459C545.43 24.8193 545.268 25.1839 545.268 25.6396C545.268 26.0589 545.402 26.4189 545.671 26.7197C545.94 27.0205 546.437 27.3213 547.162 27.6221C547.813 27.3486 548.274 27.0547 548.542 26.7402C548.816 26.4258 548.953 26.0589 548.953 25.6396C548.953 25.1794 548.786 24.8148 548.454 24.5459C548.125 24.2725 547.672 24.1357 547.093 24.1357ZM557.345 32.3457H557.284C556.76 33.1068 555.976 33.4873 554.932 33.4873C553.952 33.4873 553.189 33.1523 552.642 32.4824C552.1 31.8125 551.829 30.86 551.829 29.625C551.829 28.39 552.102 27.4307 552.649 26.7471C553.196 26.0635 553.957 25.7217 554.932 25.7217C555.948 25.7217 556.728 26.0908 557.27 26.8291H557.359L557.311 26.2891L557.284 25.7627V22.7139H558.418V33.3506H557.496L557.345 32.3457ZM555.076 32.5371C555.85 32.5371 556.411 32.3275 556.757 31.9082C557.108 31.4844 557.284 30.8031 557.284 29.8643V29.625C557.284 28.5632 557.106 27.8066 556.75 27.3555C556.4 26.8997 555.837 26.6719 555.062 26.6719C554.397 26.6719 553.886 26.9316 553.531 27.4512C553.18 27.9661 553.004 28.6953 553.004 29.6387C553.004 30.5957 553.18 31.318 553.531 31.8057C553.882 32.2933 554.397 32.5371 555.076 32.5371ZM564.234 33.4873C563.746 33.4873 563.3 33.3984 562.894 33.2207C562.493 33.0384 562.156 32.7604 561.882 32.3867H561.8C561.855 32.8242 561.882 33.2389 561.882 33.6309V36.7139H560.747V25.8584H561.67L561.828 26.8838H561.882C562.174 26.4736 562.513 26.1774 562.901 25.9951C563.288 25.8128 563.732 25.7217 564.234 25.7217C565.227 25.7217 565.993 26.0612 566.531 26.7402C567.073 27.4193 567.344 28.3717 567.344 29.5977C567.344 30.8281 567.068 31.7852 566.517 32.4688C565.97 33.1478 565.209 33.4873 564.234 33.4873ZM564.07 26.6855C563.304 26.6855 562.75 26.8975 562.409 27.3213C562.067 27.7451 561.891 28.4196 561.882 29.3447V29.5977C561.882 30.6504 562.058 31.4046 562.409 31.8604C562.76 32.3115 563.322 32.5371 564.097 32.5371C564.744 32.5371 565.25 32.2751 565.615 31.751C565.984 31.2269 566.168 30.5046 566.168 29.584C566.168 28.6497 565.984 27.9342 565.615 27.4375C565.25 26.9362 564.735 26.6855 564.07 26.6855Z" fill="#E8178A"/>
<path d="M565.875 1H574.875V54.9798H565.875" stroke="#4091D2"/>
<path d="M583.842 26.8779C584.67 26.8779 585.329 27.1104 585.817 27.5752C586.309 28.04 586.555 28.6768 586.555 29.4854C586.555 30.4424 586.26 31.1787 585.67 31.6943C585.081 32.21 584.237 32.4678 583.139 32.4678C582.186 32.4678 581.417 32.3135 580.831 32.0049V30.4404C581.139 30.6045 581.499 30.7393 581.909 30.8447C582.319 30.9463 582.708 30.9971 583.075 30.9971C584.18 30.9971 584.733 30.5439 584.733 29.6377C584.733 28.7744 584.161 28.3428 583.016 28.3428C582.809 28.3428 582.581 28.3643 582.331 28.4072C582.081 28.4463 581.877 28.4893 581.721 28.5361L581 28.1494L581.323 23.7842H585.969V25.3193H582.911L582.752 27.001L582.958 26.96C583.196 26.9053 583.491 26.8779 583.842 26.8779ZM587.45 28.7119C587.45 27.0166 587.807 25.7549 588.522 24.9268C589.241 24.0986 590.315 23.6846 591.745 23.6846C592.233 23.6846 592.616 23.7139 592.893 23.7725V25.2197C592.546 25.1416 592.202 25.1025 591.862 25.1025C591.241 25.1025 590.733 25.1963 590.339 25.3838C589.948 25.5713 589.655 25.8486 589.46 26.2158C589.264 26.583 589.149 27.1045 589.114 27.7803H589.19C589.577 27.1162 590.196 26.7842 591.048 26.7842C591.813 26.7842 592.413 27.0244 592.846 27.5049C593.28 27.9854 593.497 28.6494 593.497 29.4971C593.497 30.4111 593.239 31.1357 592.723 31.6709C592.208 32.2021 591.493 32.4678 590.579 32.4678C589.946 32.4678 589.393 32.3213 588.921 32.0283C588.452 31.7354 588.089 31.3076 587.831 30.7451C587.577 30.1826 587.45 29.5049 587.45 28.7119ZM590.544 31.0205C590.93 31.0205 591.227 30.8916 591.434 30.6338C591.641 30.3721 591.745 30.001 591.745 29.5205C591.745 29.1025 591.647 28.7744 591.452 28.5361C591.261 28.2939 590.97 28.1729 590.579 28.1729C590.212 28.1729 589.897 28.292 589.636 28.5303C589.378 28.7686 589.249 29.0459 589.249 29.3623C589.249 29.8271 589.37 30.2197 589.612 30.54C589.858 30.8604 590.169 31.0205 590.544 31.0205ZM598.347 32.4678C597.577 32.4678 596.974 32.1885 596.536 31.6299H596.442C596.505 32.1768 596.536 32.4932 596.536 32.5791V35.2334H594.749V25.7998H596.202L596.454 26.6494H596.536C596.954 26.001 597.573 25.6768 598.394 25.6768C599.167 25.6768 599.773 25.9756 600.21 26.5732C600.648 27.1709 600.866 28.001 600.866 29.0635C600.866 29.7627 600.763 30.3701 600.556 30.8857C600.353 31.4014 600.062 31.7939 599.683 32.0635C599.304 32.333 598.858 32.4678 598.347 32.4678ZM597.819 27.1064C597.378 27.1064 597.056 27.2432 596.853 27.5166C596.649 27.7861 596.544 28.2334 596.536 28.8584V29.0518C596.536 29.7549 596.64 30.2588 596.847 30.5635C597.058 30.8682 597.39 31.0205 597.843 31.0205C598.644 31.0205 599.044 30.3604 599.044 29.04C599.044 28.3955 598.944 27.9131 598.745 27.5928C598.55 27.2686 598.241 27.1064 597.819 27.1064Z" fill="#4091D2"/>
<defs>
<clipPath id="clip0_7251_82900">
<rect x="204" y="1.021" width="322" height="55.979" rx="4" fill="#fff"/>
</clipPath>
</defs>
</svg>
