<svg width="628" height="76" viewBox="0 0 628 76" fill="none" xmlns="http://www.w3.org/2000/svg">
<path d="M8.93651 32.0833H6.85155V22.0891H12.5801V23.8254H8.93651V26.4026H12.3271V28.1321H8.93651V32.0833ZM15.9482 28.2483C15.9482 29.0048 16.0713 29.5767 16.3174 29.9641C16.568 30.3515 16.9736 30.5452 17.5341 30.5452C18.0901 30.5452 18.4889 30.3538 18.7304 29.9709C18.9765 29.5836 19.0996 29.0094 19.0996 28.2483C19.0996 27.4918 18.9765 26.9244 18.7304 26.5461C18.4843 26.1679 18.081 25.9788 17.5205 25.9788C16.9645 25.9788 16.5634 26.1679 16.3174 26.5461C16.0713 26.9198 15.9482 27.4872 15.9482 28.2483ZM21.2324 28.2483C21.2324 29.4924 20.9043 30.4654 20.248 31.1672C19.5918 31.8691 18.678 32.22 17.5068 32.22C16.7731 32.22 16.1259 32.0605 15.5654 31.7415C15.0049 31.4179 14.5742 30.9553 14.2734 30.3538C13.9726 29.7522 13.8222 29.0504 13.8222 28.2483C13.8222 26.9996 14.1481 26.0289 14.7998 25.3362C15.4515 24.6435 16.3675 24.2971 17.5478 24.2971C18.2815 24.2971 18.9287 24.4566 19.4892 24.7756C20.0498 25.0946 20.4804 25.5527 20.7812 26.1497C21.082 26.7467 21.2324 27.4462 21.2324 28.2483ZM29.9257 32.0833H27.8408V27.6194C27.8408 27.068 27.7428 26.6555 27.5468 26.3821C27.3509 26.1041 27.0387 25.9651 26.6103 25.9651C26.027 25.9651 25.6054 26.1611 25.3457 26.553C25.0859 26.9403 24.956 27.5852 24.956 28.4875V32.0833H22.871V24.4407H24.4638L24.7441 25.4182H24.8603C25.0927 25.0491 25.4117 24.7711 25.8173 24.5842C26.2275 24.3928 26.6923 24.2971 27.2119 24.2971C28.1005 24.2971 28.775 24.5387 29.2353 25.0217C29.6956 25.5002 29.9257 26.193 29.9257 27.0999V32.0833ZM35.2079 30.5588C35.5725 30.5588 36.01 30.4791 36.5204 30.3196V31.8713C36.0009 32.1038 35.3629 32.22 34.6064 32.22C33.7724 32.22 33.164 32.0103 32.7812 31.5911C32.4029 31.1672 32.2138 30.5338 32.2138 29.6907V26.0061H31.2158V25.1243L32.3642 24.427L32.9658 22.8137H34.2988V24.4407H36.4384V26.0061H34.2988V29.6907C34.2988 29.9869 34.3808 30.2056 34.5449 30.3469C34.7135 30.4882 34.9345 30.5588 35.2079 30.5588ZM37.3114 29.1848V27.4758H40.9823V29.1848H37.3114ZM47.748 29.8137C47.748 30.5976 47.4745 31.1946 46.9276 31.6047C46.3853 32.0149 45.5718 32.22 44.4872 32.22C43.9312 32.22 43.4573 32.1812 43.0653 32.1038C42.6734 32.0308 42.3065 31.9215 41.9648 31.7756V30.053C42.3521 30.2353 42.7873 30.3879 43.2704 30.511C43.758 30.634 44.1864 30.6956 44.5556 30.6956C45.3121 30.6956 45.6903 30.4768 45.6903 30.0393C45.6903 29.8752 45.6402 29.7431 45.5399 29.6428C45.4397 29.538 45.2665 29.4218 45.0204 29.2942C44.7743 29.162 44.4462 29.0094 44.036 28.8362C43.4482 28.5901 43.0152 28.3622 42.7372 28.1526C42.4638 27.943 42.2633 27.7037 42.1357 27.4348C42.0126 27.1614 41.9511 26.8264 41.9511 26.4299C41.9511 25.7509 42.2131 25.2268 42.7372 24.8577C43.2659 24.484 44.0133 24.2971 44.9794 24.2971C45.9 24.2971 46.7955 24.4976 47.6659 24.8987L47.037 26.4026C46.6542 26.2385 46.2965 26.1041 45.9638 25.9993C45.6311 25.8944 45.2916 25.842 44.9452 25.842C44.33 25.842 44.0224 26.0084 44.0224 26.3411C44.0224 26.5279 44.1204 26.6897 44.3163 26.8264C44.5168 26.9631 44.9521 27.1659 45.622 27.4348C46.219 27.6764 46.6565 27.9019 46.9345 28.1116C47.2125 28.3212 47.4176 28.5627 47.5497 28.8362C47.6819 29.1096 47.748 29.4355 47.748 29.8137ZM49.202 22.4651C49.202 21.7861 49.5803 21.4465 50.3368 21.4465C51.0933 21.4465 51.4716 21.7861 51.4716 22.4651C51.4716 22.7887 51.3759 23.0416 51.1845 23.2239C50.9976 23.4016 50.7151 23.4905 50.3368 23.4905C49.5803 23.4905 49.202 23.1487 49.202 22.4651ZM51.3759 32.0833H49.2909V24.4407H51.3759V32.0833ZM58.8046 32.0833H52.7684V30.8528L56.3094 26.0334H52.9803V24.4407H58.6815V25.7942L55.2362 30.4905H58.8046V32.0833ZM63.4032 25.7805C62.9611 25.7805 62.6148 25.9218 62.3641 26.2043C62.1135 26.4823 61.9699 26.8788 61.9335 27.3938H64.8592C64.8501 26.8788 64.7157 26.4823 64.4559 26.2043C64.1961 25.9218 63.8452 25.7805 63.4032 25.7805ZM63.6971 32.22C62.4667 32.22 61.5051 31.8805 60.8124 31.2014C60.1197 30.5224 59.7733 29.5608 59.7733 28.3167C59.7733 27.0361 60.0923 26.0471 60.7303 25.3499C61.3729 24.648 62.2593 24.2971 63.3895 24.2971C64.4696 24.2971 65.3104 24.6047 65.912 25.22C66.5135 25.8352 66.8143 26.6851 66.8143 27.7698V28.7815H61.8856C61.9084 29.3739 62.0838 29.8365 62.412 30.1692C62.7401 30.5019 63.2004 30.6682 63.7928 30.6682C64.2531 30.6682 64.6883 30.6204 65.0985 30.5247C65.5086 30.429 65.937 30.2763 66.3836 30.0667V31.6799C66.0191 31.8622 65.6294 31.9967 65.2147 32.0833C64.8 32.1744 64.2941 32.22 63.6971 32.22ZM68.1317 31.1057C68.1317 30.7229 68.2342 30.4335 68.4393 30.2375C68.6444 30.0416 68.9429 29.9436 69.3348 29.9436C69.7131 29.9436 70.0047 30.0439 70.2098 30.2444C70.4194 30.4449 70.5243 30.732 70.5243 31.1057C70.5243 31.4657 70.4194 31.7506 70.2098 31.9602C70.0002 32.1653 69.7085 32.2678 69.3348 32.2678C68.952 32.2678 68.6558 32.1676 68.4461 31.967C68.2365 31.762 68.1317 31.4749 68.1317 31.1057ZM68.1317 25.4592C68.1317 25.0764 68.2342 24.787 68.4393 24.5911C68.6444 24.3951 68.9429 24.2971 69.3348 24.2971C69.7131 24.2971 70.0047 24.3974 70.2098 24.5979C70.4194 24.7984 70.5243 25.0855 70.5243 25.4592C70.5243 25.8284 70.4172 26.1155 70.203 26.3206C69.9933 26.5211 69.7039 26.6213 69.3348 26.6213C68.952 26.6213 68.6558 26.5211 68.4461 26.3206C68.2365 26.12 68.1317 25.8329 68.1317 25.4592ZM82.0457 32.0833H75.4764V31.1057L78.1082 28.4602C78.9103 27.649 79.4389 27.0702 79.6941 26.7239C79.9494 26.3775 80.1408 26.0403 80.2684 25.7122C80.396 25.384 80.4598 25.0308 80.4598 24.6526C80.4598 24.1194 80.298 23.6978 79.9744 23.3879C79.6509 23.0735 79.202 22.9163 78.6277 22.9163C78.213 22.9163 77.8188 22.9846 77.4451 23.1213C77.076 23.2581 76.6635 23.5064 76.2078 23.8665L75.6063 23.094C76.5268 22.3284 77.5294 21.9456 78.6141 21.9456C79.5529 21.9456 80.2889 22.1871 80.8221 22.6702C81.3553 23.1487 81.6219 23.7935 81.6219 24.6047C81.6219 25.2382 81.4441 25.8648 81.0887 26.4846C80.7332 27.1044 80.0678 27.8883 79.0926 28.8362L76.9051 30.9758V31.0305H82.0457V32.0833ZM90.0281 27.0725C90.0281 28.7997 89.7547 30.0894 89.2078 30.9417C88.6655 31.7939 87.8338 32.22 86.7127 32.22C85.6372 32.22 84.8191 31.7847 84.2586 30.9143C83.698 30.0393 83.4178 28.7587 83.4178 27.0725C83.4178 25.3316 83.6889 24.0396 84.2312 23.1965C84.7736 22.3534 85.6007 21.9319 86.7127 21.9319C87.7973 21.9319 88.6199 22.3717 89.1805 23.2512C89.7456 24.1308 90.0281 25.4045 90.0281 27.0725ZM84.5662 27.0725C84.5662 28.5263 84.7371 29.5859 85.0789 30.2512C85.4207 30.912 85.9653 31.2424 86.7127 31.2424C87.4692 31.2424 88.0161 30.9075 88.3533 30.2375C88.6951 29.5631 88.866 28.5081 88.866 27.0725C88.866 25.637 88.6951 24.5865 88.3533 23.9211C88.0161 23.2512 87.4692 22.9163 86.7127 22.9163C85.9653 22.9163 85.4207 23.2467 85.0789 23.9075C84.7371 24.5637 84.5662 25.6187 84.5662 27.0725ZM96.6843 30.0393C96.6843 30.7366 96.4246 31.2743 95.9051 31.6526C95.3855 32.0308 94.6564 32.22 93.7176 32.22C92.7241 32.22 91.9493 32.0627 91.3933 31.7483V30.6956C91.7534 30.8778 92.1385 31.0214 92.5486 31.1262C92.9633 31.231 93.3621 31.2834 93.7449 31.2834C94.3373 31.2834 94.7931 31.19 95.1121 31.0032C95.4311 30.8118 95.5906 30.5224 95.5906 30.135C95.5906 29.8433 95.463 29.595 95.2078 29.3899C94.9571 29.1803 94.4649 28.9342 93.7312 28.6516C93.034 28.3918 92.5372 28.1663 92.241 27.9749C91.9493 27.7789 91.7306 27.5579 91.5847 27.3118C91.4435 27.0657 91.3728 26.7717 91.3728 26.4299C91.3728 25.8193 91.6212 25.3385 92.1179 24.9875C92.6147 24.6321 93.296 24.4543 94.1619 24.4543C94.9685 24.4543 95.7569 24.6184 96.5271 24.9465L96.1238 25.8694C95.3718 25.5595 94.6905 25.4045 94.0799 25.4045C93.5421 25.4045 93.1365 25.4889 92.8631 25.6575C92.5896 25.8261 92.4529 26.0585 92.4529 26.3547C92.4529 26.5553 92.503 26.7262 92.6033 26.8674C92.7081 27.0087 92.8745 27.1431 93.1023 27.2708C93.3302 27.3984 93.7677 27.5829 94.4148 27.8245C95.3035 28.148 95.9028 28.4739 96.2127 28.802C96.5271 29.1301 96.6843 29.5426 96.6843 30.0393ZM101.939 32.22C101.452 32.22 101.005 32.1311 100.599 31.9534C100.198 31.7711 99.8611 31.4931 99.5877 31.1194H99.5056C99.5603 31.5569 99.5877 31.9716 99.5877 32.3635V35.4465H98.4529V24.5911H99.3757L99.533 25.6165H99.5877C99.8793 25.2063 100.219 24.9101 100.606 24.7278C100.994 24.5455 101.438 24.4543 101.939 24.4543C102.933 24.4543 103.698 24.7939 104.236 25.4729C104.778 26.1519 105.05 27.1044 105.05 28.3303C105.05 29.5608 104.774 30.5178 104.222 31.2014C103.676 31.8805 102.914 32.22 101.939 32.22ZM101.775 25.4182C101.01 25.4182 100.456 25.6301 100.114 26.054C99.7722 26.4778 99.5968 27.1523 99.5877 28.0774V28.3303C99.5877 29.3831 99.7631 30.1373 100.114 30.593C100.465 31.0442 101.028 31.2698 101.802 31.2698C102.45 31.2698 102.955 31.0077 103.32 30.4836C103.689 29.9596 103.874 29.2372 103.874 28.3167C103.874 27.3824 103.689 26.6669 103.32 26.1702C102.955 25.6689 102.441 25.4182 101.775 25.4182ZM6.85155 42.0891H9.9619C11.3792 42.0891 12.4069 42.2919 13.0449 42.6975C13.6875 43.0986 14.0088 43.7389 14.0088 44.6184C14.0088 45.2154 13.8675 45.7053 13.5849 46.0881C13.307 46.4709 12.9355 46.7011 12.4707 46.7786V46.8469C13.1042 46.9882 13.5599 47.2525 13.8379 47.6399C14.1204 48.0273 14.2617 48.5422 14.2617 49.1848C14.2617 50.0963 13.9313 50.8072 13.2705 51.3176C12.6142 51.828 11.721 52.0833 10.5908 52.0833H6.85155V42.0891ZM8.97069 46.0471H10.2012C10.7754 46.0471 11.1901 45.9583 11.4453 45.7805C11.7051 45.6028 11.8349 45.3088 11.8349 44.8987C11.8349 44.5159 11.6937 44.2424 11.4111 44.0784C11.1331 43.9097 10.6911 43.8254 10.0849 43.8254H8.97069V46.0471ZM8.97069 47.7288V50.3333H10.3515C10.9349 50.3333 11.3655 50.2216 11.6435 49.9983C11.9215 49.775 12.0605 49.4332 12.0605 48.9729C12.0605 48.1435 11.4681 47.7288 10.2832 47.7288H8.97069ZM17.6709 48.2483C17.6709 49.0048 17.7939 49.5767 18.04 49.9641C18.2907 50.3515 18.6963 50.5452 19.2568 50.5452C19.8128 50.5452 20.2116 50.3538 20.4531 49.9709C20.6992 49.5836 20.8222 49.0094 20.8222 48.2483C20.8222 47.4918 20.6992 46.9244 20.4531 46.5461C20.207 46.1679 19.8037 45.9788 19.2431 45.9788C18.6871 45.9788 18.2861 46.1679 18.04 46.5461C17.7939 46.9198 17.6709 47.4872 17.6709 48.2483ZM22.955 48.2483C22.955 49.4924 22.6269 50.4654 21.9707 51.1672C21.3144 51.8691 20.4007 52.22 19.2295 52.22C18.4957 52.22 17.8486 52.0605 17.2881 51.7415C16.7275 51.4179 16.2968 50.9553 15.9961 50.3538C15.6953 49.7522 15.5449 49.0504 15.5449 48.2483C15.5449 46.9996 15.8707 46.0289 16.5224 45.3362C17.1741 44.6435 18.0901 44.2971 19.2705 44.2971C20.0042 44.2971 20.6513 44.4566 21.2119 44.7756C21.7724 45.0946 22.2031 45.5527 22.5039 46.1497C22.8047 46.7467 22.955 47.4462 22.955 48.2483ZM28.8593 44.2971C29.1419 44.2971 29.3766 44.3176 29.5634 44.3586L29.4062 46.3137C29.2376 46.2681 29.0325 46.2454 28.791 46.2454C28.1256 46.2454 27.6061 46.4163 27.2324 46.7581C26.8632 47.0999 26.6787 47.5784 26.6787 48.1936V52.0833H24.5937V44.4407H26.1728L26.4804 45.7258H26.583C26.8199 45.2974 27.139 44.9534 27.54 44.6936C27.9456 44.4293 28.3854 44.2971 28.8593 44.2971ZM33.287 52.22C32.3893 52.22 31.6829 51.8713 31.1679 51.1741C30.6575 50.4768 30.4023 49.5107 30.4023 48.2756C30.4023 47.0224 30.662 46.0471 31.1816 45.3499C31.7057 44.648 32.4257 44.2971 33.3417 44.2971C34.3033 44.2971 35.037 44.6708 35.5429 45.4182H35.6113C35.5064 44.8486 35.454 44.3404 35.454 43.8938V41.4465H37.5458V52.0833H35.9462L35.5429 51.092H35.454C34.9801 51.844 34.2577 52.22 33.287 52.22ZM34.0185 50.5588C34.5517 50.5588 34.9413 50.4039 35.1874 50.094C35.4381 49.7841 35.5748 49.2577 35.5976 48.5149V48.2893C35.5976 47.469 35.47 46.8811 35.2148 46.5256C34.9641 46.1702 34.554 45.9924 33.9843 45.9924C33.5195 45.9924 33.1572 46.1907 32.8974 46.5872C32.6422 46.9791 32.5146 47.551 32.5146 48.303C32.5146 49.0549 32.6445 49.62 32.9042 49.9983C33.164 50.372 33.5354 50.5588 34.0185 50.5588ZM42.8075 45.7805C42.3655 45.7805 42.0191 45.9218 41.7685 46.2043C41.5178 46.4823 41.3743 46.8788 41.3378 47.3938H44.2636C44.2545 46.8788 44.12 46.4823 43.8603 46.2043C43.6005 45.9218 43.2496 45.7805 42.8075 45.7805ZM43.1015 52.22C41.871 52.22 40.9094 51.8805 40.2167 51.2014C39.524 50.5224 39.1777 49.5608 39.1777 48.3167C39.1777 47.0361 39.4967 46.0471 40.1347 45.3499C40.7773 44.648 41.6637 44.2971 42.7939 44.2971C43.8739 44.2971 44.7148 44.6047 45.3163 45.22C45.9179 45.8352 46.2187 46.6851 46.2187 47.7698V48.7815H41.29C41.3127 49.3739 41.4882 49.8365 41.8163 50.1692C42.1445 50.5019 42.6047 50.6682 43.1972 50.6682C43.6575 50.6682 44.0927 50.6204 44.5029 50.5247C44.913 50.429 45.3414 50.2763 45.788 50.0667V51.6799C45.4234 51.8622 45.0338 51.9967 44.6191 52.0833C44.2044 52.1744 43.6985 52.22 43.1015 52.22ZM52.0956 44.2971C52.3782 44.2971 52.6129 44.3176 52.7997 44.3586L52.6425 46.3137C52.4739 46.2681 52.2688 46.2454 52.0273 46.2454C51.3619 46.2454 50.8424 46.4163 50.4687 46.7581C50.0995 47.0999 49.9149 47.5784 49.9149 48.1936V52.0833H47.83V44.4407H49.4091L49.7167 45.7258H49.8192C50.0562 45.2974 50.3752 44.9534 50.7763 44.6936C51.1819 44.4293 51.6217 44.2971 52.0956 44.2971ZM53.4266 49.1848V47.4758H57.0975V49.1848H53.4266ZM62.7967 44.2971C63.0793 44.2971 63.314 44.3176 63.5009 44.3586L63.3436 46.3137C63.175 46.2681 62.9699 46.2454 62.7284 46.2454C62.063 46.2454 61.5435 46.4163 61.1698 46.7581C60.8007 47.0999 60.6161 47.5784 60.6161 48.1936V52.0833H58.5311V44.4407H60.1102L60.4178 45.7258H60.5204C60.7574 45.2974 61.0764 44.9534 61.4774 44.6936C61.883 44.4293 62.3228 44.2971 62.7967 44.2971ZM69.6581 52.0833L69.2547 51.0442H69.2001C68.8491 51.4862 68.4868 51.7939 68.1131 51.967C67.744 52.1357 67.2609 52.22 66.6639 52.22C65.9302 52.22 65.3514 52.0103 64.9276 51.5911C64.5083 51.1718 64.2987 50.5748 64.2987 49.8C64.2987 48.9889 64.5812 48.3918 65.1463 48.009C65.716 47.6217 66.5728 47.4075 67.7167 47.3665L69.0428 47.3254V46.9905C69.0428 46.2157 68.6463 45.8284 67.8534 45.8284C67.2427 45.8284 66.5249 46.0129 65.7001 46.3821L65.0096 44.9739C65.8892 44.5136 66.8644 44.2834 67.9354 44.2834C68.9608 44.2834 69.7469 44.5068 70.2938 44.9534C70.8407 45.4 71.1141 46.079 71.1141 46.9905V52.0833H69.6581ZM69.0428 48.5422L68.2362 48.5696C67.6301 48.5878 67.1789 48.6972 66.8827 48.8977C66.5864 49.0982 66.4383 49.4036 66.4383 49.8137C66.4383 50.4016 66.7756 50.6956 67.4501 50.6956C67.9331 50.6956 68.3182 50.5566 68.6053 50.2786C68.897 50.0006 69.0428 49.6314 69.0428 49.1711V48.5422ZM75.6034 52.22C74.7056 52.22 73.9992 51.8713 73.4842 51.1741C72.9738 50.4768 72.7186 49.5107 72.7186 48.2756C72.7186 47.0224 72.9784 46.0471 73.4979 45.3499C74.022 44.648 74.742 44.2971 75.6581 44.2971C76.6196 44.2971 77.3534 44.6708 77.8592 45.4182H77.9276C77.8228 44.8486 77.7704 44.3404 77.7704 43.8938V41.4465H79.8622V52.0833H78.2625L77.8592 51.092H77.7704C77.2964 51.844 76.5741 52.22 75.6034 52.22ZM76.3348 50.5588C76.868 50.5588 77.2577 50.4039 77.5038 50.094C77.7544 49.7841 77.8911 49.2577 77.9139 48.5149V48.2893C77.9139 47.469 77.7863 46.8811 77.5311 46.5256C77.2804 46.1702 76.8703 45.9924 76.3006 45.9924C75.8358 45.9924 75.4735 46.1907 75.2137 46.5872C74.9585 46.9791 74.8309 47.551 74.8309 48.303C74.8309 49.0549 74.9608 49.62 75.2206 49.9983C75.4803 50.372 75.8517 50.5588 76.3348 50.5588ZM81.8699 42.4651C81.8699 41.7861 82.2482 41.4465 83.0047 41.4465C83.7612 41.4465 84.1395 41.7861 84.1395 42.4651C84.1395 42.7887 84.0438 43.0416 83.8524 43.2239C83.6655 43.4016 83.383 43.4905 83.0047 43.4905C82.2482 43.4905 81.8699 43.1487 81.8699 42.4651ZM84.0438 52.0833H81.9588V44.4407H84.0438V52.0833ZM91.5682 52.0833L91.2879 51.1057H91.1785C90.9552 51.4612 90.6385 51.7369 90.2283 51.9329C89.8182 52.1243 89.351 52.22 88.827 52.22C87.9292 52.22 87.2524 51.9807 86.7967 51.5022C86.341 51.0191 86.1131 50.3264 86.1131 49.4241V44.4407H88.1981V48.9045C88.1981 49.456 88.296 49.8707 88.492 50.1487C88.688 50.4221 89.0001 50.5588 89.4285 50.5588C90.0119 50.5588 90.4334 50.3652 90.6932 49.9778C90.9529 49.5859 91.0828 48.9387 91.0828 48.0364V44.4407H93.1678V52.0833H91.5682ZM100.603 49.8137C100.603 50.5976 100.33 51.1946 99.783 51.6047C99.2407 52.0149 98.4272 52.22 97.3426 52.22C96.7866 52.22 96.3126 52.1812 95.9207 52.1038C95.5288 52.0308 95.1619 51.9215 94.8201 51.7756V50.053C95.2075 50.2353 95.6427 50.3879 96.1258 50.511C96.6134 50.634 97.0418 50.6956 97.4109 50.6956C98.1674 50.6956 98.5457 50.4768 98.5457 50.0393C98.5457 49.8752 98.4956 49.7431 98.3953 49.6428C98.295 49.538 98.1219 49.4218 97.8758 49.2942C97.6297 49.162 97.3016 49.0094 96.8914 48.8362C96.3035 48.5901 95.8706 48.3622 95.5926 48.1526C95.3191 47.943 95.1186 47.7037 94.991 47.4348C94.868 47.1614 94.8064 46.8264 94.8064 46.4299C94.8064 45.7509 95.0685 45.2268 95.5926 44.8577C96.1212 44.484 96.8686 44.2971 97.8348 44.2971C98.7553 44.2971 99.6508 44.4976 100.521 44.8987L99.8924 46.4026C99.5096 46.2385 99.1518 46.1041 98.8191 45.9993C98.4864 45.8944 98.1469 45.842 97.8006 45.842C97.1853 45.842 96.8777 46.0084 96.8777 46.3411C96.8777 46.5279 96.9757 46.6897 97.1717 46.8264C97.3722 46.9631 97.8074 47.1659 98.4773 47.4348C99.0743 47.6764 99.5118 47.9019 99.7898 48.1116C100.068 48.3212 100.273 48.5627 100.405 48.8362C100.537 49.1096 100.603 49.4355 100.603 49.8137ZM101.852 51.1057C101.852 50.7229 101.955 50.4335 102.16 50.2375C102.365 50.0416 102.664 49.9436 103.055 49.9436C103.434 49.9436 103.725 50.0439 103.93 50.2444C104.14 50.4449 104.245 50.732 104.245 51.1057C104.245 51.4657 104.14 51.7506 103.93 51.9602C103.721 52.1653 103.429 52.2678 103.055 52.2678C102.673 52.2678 102.376 52.1676 102.167 51.967C101.957 51.762 101.852 51.4749 101.852 51.1057ZM101.852 45.4592C101.852 45.0764 101.955 44.787 102.16 44.5911C102.365 44.3951 102.664 44.2971 103.055 44.2971C103.434 44.2971 103.725 44.3974 103.93 44.5979C104.14 44.7984 104.245 45.0855 104.245 45.4592C104.245 45.8284 104.138 46.1155 103.924 46.3206C103.714 46.5211 103.425 46.6213 103.055 46.6213C102.673 46.6213 102.376 46.5211 102.167 46.3206C101.957 46.12 101.852 45.8329 101.852 45.4592ZM116.238 49.7864H114.755V52.0833H113.668V49.7864H108.807V48.7952L113.552 42.0344H114.755V48.7542H116.238V49.7864ZM113.668 48.7542V45.4319C113.668 44.7802 113.691 44.0442 113.736 43.2239H113.681C113.463 43.6614 113.258 44.0237 113.066 44.3108L109.942 48.7542H113.668ZM122.744 51.0784H122.682C122.158 51.8394 121.374 52.22 120.331 52.22C119.351 52.22 118.588 51.885 118.041 51.2151C117.498 50.5452 117.227 49.5927 117.227 48.3577C117.227 47.1226 117.501 46.1633 118.048 45.4797C118.594 44.7961 119.356 44.4543 120.331 44.4543C121.347 44.4543 122.126 44.8235 122.669 45.5618H122.758L122.71 45.0217L122.682 44.4954V41.4465H123.817V52.0833H122.894L122.744 51.0784ZM120.474 51.2698C121.249 51.2698 121.81 51.0601 122.156 50.6409C122.507 50.217 122.682 49.5357 122.682 48.5969V48.3577C122.682 47.2958 122.505 46.5393 122.149 46.0881C121.798 45.6324 121.235 45.4045 120.461 45.4045C119.795 45.4045 119.285 45.6643 118.929 46.1838C118.579 46.6988 118.403 47.428 118.403 48.3713C118.403 49.3284 118.579 50.0507 118.929 50.5383C119.28 51.026 119.795 51.2698 120.474 51.2698ZM129.633 52.22C129.145 52.22 128.698 52.1311 128.293 51.9534C127.892 51.7711 127.554 51.4931 127.281 51.1194H127.199C127.254 51.5569 127.281 51.9716 127.281 52.3635V55.4465H126.146V44.5911H127.069L127.226 45.6165H127.281C127.573 45.2063 127.912 44.9101 128.3 44.7278C128.687 44.5455 129.131 44.4543 129.633 44.4543C130.626 44.4543 131.392 44.7939 131.929 45.4729C132.472 46.1519 132.743 47.1044 132.743 48.3303C132.743 49.5608 132.467 50.5178 131.916 51.2014C131.369 51.8805 130.608 52.22 129.633 52.22ZM129.468 45.4182C128.703 45.4182 128.149 45.6301 127.807 46.054C127.466 46.4778 127.29 47.1523 127.281 48.0774V48.3303C127.281 49.3831 127.456 50.1373 127.807 50.593C128.158 51.0442 128.721 51.2698 129.496 51.2698C130.143 51.2698 130.649 51.0077 131.013 50.4836C131.383 49.9596 131.567 49.2372 131.567 48.3167C131.567 47.3824 131.383 46.6669 131.013 46.1702C130.649 45.6689 130.134 45.4182 129.468 45.4182Z" fill="black"/>
<path d="M1 63.0833V11.0833H141.678V21.1803L149 28.7532L141.678 35.8211V63.0833H1Z" stroke="#CCCCCC"/>
<path d="M168.31 42.0833H161.74V41.1057L164.372 38.4602C165.174 37.649 165.703 37.0702 165.958 36.7239C166.213 36.3775 166.405 36.0403 166.532 35.7122C166.66 35.384 166.724 35.0308 166.724 34.6526C166.724 34.1194 166.562 33.6978 166.238 33.3879C165.915 33.0735 165.466 32.9163 164.892 32.9163C164.477 32.9163 164.083 32.9846 163.709 33.1213C163.34 33.2581 162.927 33.5064 162.472 33.8665L161.87 33.094C162.791 32.3284 163.793 31.9456 164.878 31.9456C165.817 31.9456 166.553 32.1871 167.086 32.6702C167.619 33.1487 167.886 33.7935 167.886 34.6047C167.886 35.2382 167.708 35.8648 167.353 36.4846C166.997 37.1044 166.332 37.8883 165.356 38.8362L163.169 40.9758V41.0305H168.31V42.0833ZM176.709 39.7864H175.226V42.0833H174.139V39.7864H169.278V38.7952L174.022 32.0344H175.226V38.7542H176.709V39.7864ZM174.139 38.7542V35.4319C174.139 34.7802 174.161 34.0442 174.207 33.2239H174.152C173.934 33.6614 173.729 34.0237 173.537 34.3108L170.413 38.7542H174.139ZM183.215 41.0784H183.153C182.629 41.8394 181.845 42.22 180.802 42.22C179.822 42.22 179.059 41.885 178.512 41.2151C177.969 40.5452 177.698 39.5927 177.698 38.3577C177.698 37.1226 177.972 36.1633 178.519 35.4797C179.065 34.7961 179.827 34.4543 180.802 34.4543C181.818 34.4543 182.597 34.8235 183.14 35.5618H183.229L183.181 35.0217L183.153 34.4954V31.4465H184.288V42.0833H183.365L183.215 41.0784ZM180.945 41.2698C181.72 41.2698 182.281 41.0601 182.627 40.6409C182.978 40.217 183.153 39.5357 183.153 38.5969V38.3577C183.153 37.2958 182.976 36.5393 182.62 36.0881C182.269 35.6324 181.706 35.4045 180.932 35.4045C180.266 35.4045 179.756 35.6643 179.4 36.1838C179.049 36.6988 178.874 37.428 178.874 38.3713C178.874 39.3284 179.049 40.0507 179.4 40.5383C179.751 41.026 180.266 41.2698 180.945 41.2698ZM190.104 42.22C189.616 42.22 189.169 42.1311 188.764 41.9534C188.363 41.7711 188.025 41.4931 187.752 41.1194H187.67C187.725 41.5569 187.752 41.9716 187.752 42.3635V45.4465H186.617V34.5911H187.54L187.697 35.6165H187.752C188.044 35.2063 188.383 34.9101 188.771 34.7278C189.158 34.5455 189.602 34.4543 190.104 34.4543C191.097 34.4543 191.863 34.7939 192.4 35.4729C192.943 36.1519 193.214 37.1044 193.214 38.3303C193.214 39.5608 192.938 40.5178 192.387 41.2014C191.84 41.8805 191.079 42.22 190.104 42.22ZM189.939 35.4182C189.174 35.4182 188.62 35.6301 188.278 36.054C187.937 36.4778 187.761 37.1523 187.752 38.0774V38.3303C187.752 39.3831 187.927 40.1373 188.278 40.593C188.629 41.0442 189.192 41.2698 189.967 41.2698C190.614 41.2698 191.12 41.0077 191.484 40.4836C191.854 39.9596 192.038 39.2372 192.038 38.3167C192.038 37.3824 191.854 36.6669 191.484 36.1702C191.12 35.6689 190.605 35.4182 189.939 35.4182Z" fill="#E8178A"/>
<rect x="204.5" y="1.58325" width="321" height="71" rx="3.5" fill="white"/>
<path d="M234.993 32.0833H233.167V18.0002H228.193V16.3782H239.967V18.0002H234.993V32.0833ZM244.105 32.0833H242.322V20.3098H244.105V32.0833ZM242.172 17.1194C242.172 16.7112 242.272 16.414 242.473 16.2278C242.673 16.0344 242.924 15.9377 243.225 15.9377C243.511 15.9377 243.758 16.0344 243.966 16.2278C244.174 16.4211 244.277 16.7183 244.277 17.1194C244.277 17.5204 244.174 17.8212 243.966 18.0217C243.758 18.2151 243.511 18.3118 243.225 18.3118C242.924 18.3118 242.673 18.2151 242.473 18.0217C242.272 17.8212 242.172 17.5204 242.172 17.1194ZM251.939 30.8264C252.255 30.8264 252.559 30.8049 252.853 30.762C253.146 30.7118 253.379 30.6617 253.551 30.6116V31.9758C253.357 32.0689 253.071 32.1441 252.691 32.2014C252.319 32.2659 251.982 32.2981 251.682 32.2981C249.404 32.2981 248.266 31.0986 248.266 28.6995V21.6956H246.579V20.8362L248.266 20.095L249.018 17.5813H250.049V20.3098H253.465V21.6956H250.049V28.6243C250.049 29.3333 250.217 29.8775 250.554 30.2571C250.89 30.6366 251.352 30.8264 251.939 30.8264ZM257.947 32.0833H256.164V15.3684H257.947V32.0833ZM266.952 32.2981C265.212 32.2981 263.837 31.7681 262.827 30.7083C261.825 29.6484 261.323 28.1767 261.323 26.2932C261.323 24.3954 261.789 22.8879 262.72 21.7708C263.658 20.6536 264.915 20.095 266.49 20.095C267.965 20.095 269.133 20.5819 269.992 21.5559C270.852 22.5227 271.281 23.801 271.281 25.3909V26.5188H263.171C263.207 27.901 263.554 28.9501 264.213 29.6663C264.879 30.3824 265.813 30.7405 267.017 30.7405C268.284 30.7405 269.537 30.4755 270.776 29.9456V31.5354C270.146 31.8075 269.548 32.0009 268.982 32.1155C268.424 32.2372 267.747 32.2981 266.952 32.2981ZM266.469 21.5881C265.523 21.5881 264.768 21.8961 264.202 22.512C263.644 23.1278 263.314 23.9801 263.214 25.0686H269.369C269.369 23.9443 269.118 23.0849 268.617 22.4905C268.116 21.8889 267.4 21.5881 266.469 21.5881Z" fill="#252A2E"/>
<path d="M241.359 51.8079C241.359 54.1646 240.718 55.968 239.436 57.218C238.16 58.4615 236.32 59.0833 233.918 59.0833H229.963V44.8059H234.338C236.558 44.8059 238.283 45.4211 239.514 46.6516C240.744 47.8821 241.359 49.6008 241.359 51.8079ZM239.602 51.8665C239.602 50.0045 239.133 48.6015 238.195 47.6575C237.264 46.7135 235.878 46.2415 234.035 46.2415H231.623V57.6477H233.645C235.624 57.6477 237.111 57.1627 238.107 56.1926C239.104 55.2161 239.602 53.774 239.602 51.8665ZM248.98 59.2786C247.398 59.2786 246.148 58.7968 245.23 57.8333C244.319 56.8697 243.863 55.5318 243.863 53.8196C243.863 52.0943 244.286 50.7239 245.132 49.7083C245.985 48.6926 247.128 48.1848 248.56 48.1848C249.901 48.1848 250.962 48.6275 251.744 49.5129C252.525 50.3918 252.916 51.554 252.916 52.9993V54.0247H245.543C245.575 55.2812 245.891 56.2349 246.49 56.886C247.095 57.537 247.945 57.8625 249.039 57.8625C250.191 57.8625 251.33 57.6217 252.457 57.1399V58.5852C251.884 58.8326 251.34 59.0084 250.826 59.1125C250.318 59.2232 249.703 59.2786 248.98 59.2786ZM248.541 49.5422C247.681 49.5422 246.994 49.8222 246.48 50.3821C245.972 50.942 245.673 51.7167 245.582 52.7063H251.177C251.177 51.6842 250.949 50.9029 250.494 50.3625C250.038 49.8157 249.387 49.5422 248.541 49.5422ZM262.743 56.1633C262.743 57.1594 262.372 57.9277 261.63 58.468C260.888 59.0084 259.846 59.2786 258.505 59.2786C257.086 59.2786 255.979 59.054 255.185 58.6047V57.1008C255.699 57.3612 256.249 57.5663 256.835 57.7161C257.428 57.8658 257.997 57.9407 258.544 57.9407C259.39 57.9407 260.042 57.8072 260.497 57.5403C260.953 57.2668 261.181 56.8534 261.181 56.3C261.181 55.8834 260.999 55.5286 260.634 55.2356C260.276 54.9361 259.573 54.5846 258.525 54.1809C257.529 53.8098 256.819 53.4875 256.396 53.2141C255.979 52.9342 255.667 52.6184 255.458 52.2668C255.256 51.9153 255.155 51.4954 255.155 51.0071C255.155 50.1347 255.51 49.4478 256.22 48.9465C256.93 48.4387 257.903 48.1848 259.14 48.1848C260.292 48.1848 261.418 48.4192 262.519 48.8879L261.943 50.2063C260.868 49.7636 259.895 49.5422 259.023 49.5422C258.254 49.5422 257.675 49.6627 257.284 49.9036C256.894 50.1444 256.698 50.4765 256.698 50.8997C256.698 51.1861 256.77 51.4303 256.913 51.6321C257.063 51.8339 257.301 52.026 257.626 52.2083C257.952 52.3905 258.577 52.6542 259.501 52.9993C260.771 53.4615 261.627 53.927 262.07 54.3958C262.519 54.8645 262.743 55.4537 262.743 56.1633ZM269.817 59.2786C268.268 59.2786 267.067 58.8033 266.214 57.8528C265.367 56.8958 264.944 55.5448 264.944 53.8C264.944 52.0097 265.374 50.6262 266.233 49.6497C267.099 48.6731 268.33 48.1848 269.925 48.1848C270.439 48.1848 270.953 48.2402 271.468 48.3508C271.982 48.4615 272.386 48.5917 272.679 48.7415L272.18 50.1184C271.822 49.9752 271.432 49.858 271.009 49.7668C270.585 49.6692 270.211 49.6204 269.886 49.6204C267.711 49.6204 266.624 51.0071 266.624 53.7805C266.624 55.0956 266.888 56.1047 267.415 56.8079C267.949 57.511 268.736 57.8625 269.778 57.8625C270.67 57.8625 271.585 57.6705 272.522 57.2864V58.7219C271.806 59.093 270.904 59.2786 269.817 59.2786ZM280.104 48.1848C280.579 48.1848 281.006 48.2239 281.383 48.302L281.159 49.8059C280.716 49.7083 280.325 49.6594 279.987 49.6594C279.121 49.6594 278.379 50.011 277.76 50.7141C277.148 51.4172 276.842 52.2929 276.842 53.3411V59.0833H275.221V48.3801H276.559L276.745 50.3625H276.823C277.22 49.6659 277.698 49.1288 278.258 48.7512C278.818 48.3736 279.433 48.1848 280.104 48.1848ZM285.156 59.0833H283.535V48.3801H285.156V59.0833ZM283.398 45.4797C283.398 45.1086 283.49 44.8385 283.672 44.6692C283.854 44.4934 284.082 44.4055 284.355 44.4055C284.616 44.4055 284.84 44.4934 285.029 44.6692C285.218 44.845 285.312 45.1152 285.312 45.4797C285.312 45.8443 285.218 46.1178 285.029 46.3C284.84 46.4758 284.616 46.5637 284.355 46.5637C284.082 46.5637 283.854 46.4758 283.672 46.3C283.49 46.1178 283.398 45.8443 283.398 45.4797ZM293.724 59.2786C293.028 59.2786 292.39 59.1516 291.81 58.8977C291.237 58.6373 290.755 58.2402 290.365 57.7063H290.248C290.326 58.3313 290.365 58.9237 290.365 59.4836V63.8879H288.744V48.3801H290.062L290.287 49.845H290.365C290.782 49.259 291.267 48.8359 291.82 48.5754C292.373 48.315 293.008 48.1848 293.724 48.1848C295.143 48.1848 296.237 48.6698 297.005 49.6399C297.78 50.6099 298.168 51.9706 298.168 53.7219C298.168 55.4797 297.774 56.8469 296.986 57.8235C296.205 58.7935 295.117 59.2786 293.724 59.2786ZM293.49 49.5618C292.396 49.5618 291.605 49.8645 291.117 50.47C290.629 51.0754 290.378 52.039 290.365 53.3606V53.7219C290.365 55.2258 290.615 56.3033 291.117 56.9543C291.618 57.5989 292.422 57.9211 293.529 57.9211C294.453 57.9211 295.176 57.5468 295.697 56.7981C296.224 56.0494 296.488 55.0175 296.488 53.7024C296.488 52.3678 296.224 51.3456 295.697 50.636C295.176 49.9198 294.44 49.5618 293.49 49.5618ZM304.616 57.9407C304.903 57.9407 305.18 57.9211 305.446 57.8821C305.713 57.8365 305.925 57.7909 306.081 57.7454V58.9856C305.905 59.0702 305.645 59.1386 305.3 59.1907C304.961 59.2493 304.655 59.2786 304.382 59.2786C302.312 59.2786 301.277 58.1881 301.277 56.0071V49.6399H299.743V48.8586L301.277 48.1848L301.96 45.8997H302.898V48.3801H306.003V49.6399H302.898V55.9387C302.898 56.5833 303.051 57.078 303.357 57.4231C303.663 57.7681 304.083 57.9407 304.616 57.9407ZM310.001 59.0833H308.38V48.3801H310.001V59.0833ZM308.243 45.4797C308.243 45.1086 308.334 44.8385 308.516 44.6692C308.699 44.4934 308.927 44.4055 309.2 44.4055C309.46 44.4055 309.685 44.4934 309.874 44.6692C310.063 44.845 310.157 45.1152 310.157 45.4797C310.157 45.8443 310.063 46.1178 309.874 46.3C309.685 46.4758 309.46 46.5637 309.2 46.5637C308.927 46.5637 308.699 46.4758 308.516 46.3C308.334 46.1178 308.243 45.8443 308.243 45.4797ZM322.827 53.7219C322.827 55.4667 322.387 56.8306 321.508 57.8137C320.629 58.7903 319.415 59.2786 317.866 59.2786C316.909 59.2786 316.059 59.054 315.317 58.6047C314.575 58.1555 314.002 57.511 313.598 56.6711C313.194 55.8313 312.993 54.8482 312.993 53.7219C312.993 51.9771 313.429 50.6197 314.301 49.6497C315.174 48.6731 316.385 48.1848 317.934 48.1848C319.431 48.1848 320.62 48.6829 321.498 49.679C322.384 50.675 322.827 52.0227 322.827 53.7219ZM314.672 53.7219C314.672 55.0891 314.946 56.1308 315.493 56.8469C316.039 57.5631 316.843 57.9211 317.905 57.9211C318.966 57.9211 319.77 57.5663 320.317 56.8567C320.87 56.1405 321.147 55.0956 321.147 53.7219C321.147 52.3612 320.87 51.3293 320.317 50.6262C319.77 49.9166 318.959 49.5618 317.885 49.5618C316.824 49.5618 316.023 49.9101 315.483 50.6067C314.942 51.3033 314.672 52.3417 314.672 53.7219ZM333.152 59.0833V52.1594C333.152 51.287 332.954 50.636 332.557 50.2063C332.16 49.7766 331.538 49.5618 330.691 49.5618C329.572 49.5618 328.751 49.8645 328.23 50.47C327.71 51.0754 327.449 52.0748 327.449 53.468V59.0833H325.828V48.3801H327.146L327.41 49.845H327.488C327.82 49.3176 328.286 48.9107 328.885 48.6243C329.484 48.3313 330.151 48.1848 330.887 48.1848C332.176 48.1848 333.146 48.4973 333.797 49.1223C334.448 49.7408 334.773 50.7336 334.773 52.1008V59.0833H333.152Z" fill="#7D808D"/>
<path d="M503.45 33.6333L500.95 31.1333L494 38.0333L487.05 31.1333L484.55 33.6333L494 43.0333L503.45 33.6333Z" fill="#252A2E"/>
<rect x="204.5" y="1.58325" width="321" height="71" rx="3.5" stroke="#CBCDD6"/>
<rect x="204.5" y="1.58325" width="20" height="71" fill="#EB3499" fill-opacity="0.6" stroke="#CBCDD6"/>
<path d="M519.5 1.58325H525.5V72.5833H519.5V1.58325Z" fill="#EB3499" fill-opacity="0.6" stroke="#CBCDD6"/>
<path d="M547.107 33.7015C548.018 33.7015 548.741 33.9135 549.274 34.3373C549.807 34.7611 550.074 35.3467 550.074 36.0941C550.074 36.5863 549.921 37.0352 549.616 37.4408C549.31 37.8464 548.823 38.2155 548.153 38.5482C548.964 38.9356 549.54 39.3435 549.882 39.7719C550.224 40.1957 550.395 40.6879 550.395 41.2484C550.395 42.0778 550.106 42.7409 549.527 43.2377C548.948 43.7299 548.155 43.976 547.148 43.976C546.081 43.976 545.261 43.7435 544.687 43.2787C544.113 42.8093 543.826 42.1462 543.826 41.2894C543.826 40.1455 544.523 39.2546 545.917 38.6166C545.289 38.2611 544.837 37.8783 544.564 37.4681C544.29 37.0534 544.154 36.5909 544.154 36.0804C544.154 35.3558 544.42 34.7793 544.954 34.351C545.491 33.918 546.209 33.7015 547.107 33.7015ZM544.947 41.3168C544.947 41.8636 545.136 42.2898 545.514 42.5951C545.897 42.9004 546.432 43.0531 547.121 43.0531C547.8 43.0531 548.328 42.8936 548.706 42.5746C549.085 42.2556 549.274 41.8181 549.274 41.2621C549.274 40.82 549.096 40.4281 548.741 40.0863C548.385 39.7399 547.765 39.405 546.881 39.0814C546.202 39.3731 545.71 39.6967 545.405 40.0521C545.099 40.403 544.947 40.8246 544.947 41.3168ZM547.093 34.6244C546.524 34.6244 546.077 34.7611 545.753 35.0345C545.43 35.308 545.268 35.6726 545.268 36.1283C545.268 36.5476 545.402 36.9076 545.671 37.2084C545.94 37.5092 546.437 37.8099 547.162 38.1107C547.813 37.8373 548.274 37.5433 548.542 37.2289C548.816 36.9144 548.953 36.5476 548.953 36.1283C548.953 35.668 548.786 35.3034 548.454 35.0345C548.125 34.7611 547.672 34.6244 547.093 34.6244ZM557.345 42.8344H557.284C556.76 43.5954 555.976 43.976 554.932 43.976C553.952 43.976 553.189 43.641 552.642 42.9711C552.1 42.3011 551.829 41.3487 551.829 40.1136C551.829 38.8786 552.102 37.9193 552.649 37.2357C553.196 36.5521 553.957 36.2103 554.932 36.2103C555.948 36.2103 556.728 36.5795 557.27 37.3177H557.359L557.311 36.7777L557.284 36.2513V33.2025H558.418V43.8392H557.496L557.345 42.8344ZM555.076 43.0258C555.85 43.0258 556.411 42.8161 556.757 42.3969C557.108 41.973 557.284 41.2917 557.284 40.3529V40.1136C557.284 39.0518 557.106 38.2953 556.75 37.8441C556.4 37.3884 555.837 37.1605 555.062 37.1605C554.397 37.1605 553.886 37.4203 553.531 37.9398C553.18 38.4548 553.004 39.184 553.004 40.1273C553.004 41.0844 553.18 41.8067 553.531 42.2943C553.882 42.7819 554.397 43.0258 555.076 43.0258ZM564.234 43.976C563.746 43.976 563.3 43.8871 562.894 43.7094C562.493 43.5271 562.156 43.2491 561.882 42.8754H561.8C561.855 43.3129 561.882 43.7276 561.882 44.1195V47.2025H560.747V36.347H561.67L561.828 37.3724H561.882C562.174 36.9623 562.513 36.6661 562.901 36.4838C563.288 36.3015 563.732 36.2103 564.234 36.2103C565.227 36.2103 565.993 36.5498 566.531 37.2289C567.073 37.9079 567.344 38.8604 567.344 40.0863C567.344 41.3168 567.068 42.2738 566.517 42.9574C565.97 43.6364 565.209 43.976 564.234 43.976ZM564.07 37.1742C563.304 37.1742 562.75 37.3861 562.409 37.8099C562.067 38.2338 561.891 38.9082 561.882 39.8334V40.0863C561.882 41.139 562.058 41.8933 562.409 42.349C562.76 42.8002 563.322 43.0258 564.097 43.0258C564.744 43.0258 565.25 42.7637 565.615 42.2396C565.984 41.7155 566.168 40.9932 566.168 40.0726C566.168 39.1384 565.984 38.4229 565.615 37.9261C565.25 37.4248 564.735 37.1742 564.07 37.1742Z" fill="#E8178A"/>
<path d="M565.875 1H574.875V75.1665H565.875" stroke="#4091D2"/>
<path d="M581.575 42.8392L584.792 35.808H580.567V34.2845H586.713V35.4213L583.473 42.8392H581.575ZM593.497 42.8392H587.509V41.5795L589.659 39.4056C590.296 38.7533 590.712 38.3021 590.907 38.0521C591.102 37.7982 591.243 37.5638 591.329 37.349C591.415 37.1342 591.458 36.9115 591.458 36.681C591.458 36.3373 591.362 36.0814 591.171 35.9135C590.983 35.7455 590.731 35.6615 590.415 35.6615C590.083 35.6615 589.761 35.7377 589.448 35.89C589.136 36.0424 588.809 36.2592 588.47 36.5404L587.485 35.3744C587.907 35.015 588.257 34.7611 588.534 34.6127C588.811 34.4642 589.114 34.351 589.442 34.2728C589.77 34.1908 590.137 34.1498 590.544 34.1498C591.079 34.1498 591.552 34.2474 591.962 34.4427C592.372 34.6381 592.69 34.9115 592.917 35.2631C593.143 35.6146 593.257 36.017 593.257 36.4701C593.257 36.8646 593.186 37.2357 593.046 37.5834C592.909 37.9271 592.694 38.2806 592.401 38.6439C592.112 39.0072 591.6 39.5248 590.866 40.1967L589.764 41.2338V41.3158H593.497V42.8392ZM596.823 42.9564C596.054 42.9564 595.448 42.6576 595.007 42.0599C594.569 41.4623 594.351 40.6342 594.351 39.5756C594.351 38.5013 594.573 37.6654 595.019 37.0677C595.468 36.4662 596.085 36.1654 596.87 36.1654C597.694 36.1654 598.323 36.4857 598.757 37.1263H598.815C598.726 36.6381 598.681 36.2025 598.681 35.8197V33.722H600.474V42.8392H599.103L598.757 41.9896H598.681C598.274 42.6342 597.655 42.9564 596.823 42.9564ZM597.45 41.5326C597.907 41.5326 598.241 41.3998 598.452 41.1342C598.667 40.8685 598.784 40.4174 598.804 39.7806V39.5873C598.804 38.8842 598.694 38.3802 598.476 38.0756C598.261 37.7709 597.909 37.6185 597.421 37.6185C597.023 37.6185 596.712 37.7885 596.489 38.1283C596.271 38.4642 596.161 38.9545 596.161 39.599C596.161 40.2435 596.273 40.7279 596.495 41.0521C596.718 41.3724 597.036 41.5326 597.45 41.5326ZM605.868 42.9564C605.099 42.9564 604.495 42.6771 604.058 42.1185H603.964C604.027 42.6654 604.058 42.9818 604.058 43.0677V45.722H602.271V36.2885H603.724L603.976 37.1381H604.058C604.476 36.4896 605.095 36.1654 605.915 36.1654C606.689 36.1654 607.294 36.4642 607.732 37.0619C608.169 37.6595 608.388 38.4896 608.388 39.5521C608.388 40.2513 608.284 40.8588 608.077 41.3744C607.874 41.89 607.583 42.2826 607.204 42.5521C606.826 42.8217 606.38 42.9564 605.868 42.9564ZM605.341 37.5951C604.9 37.5951 604.577 37.7318 604.374 38.0052C604.171 38.2748 604.066 38.722 604.058 39.347V39.5404C604.058 40.2435 604.161 40.7474 604.368 41.0521C604.579 41.3568 604.911 41.5092 605.365 41.5092C606.165 41.5092 606.566 40.849 606.566 39.5287C606.566 38.8842 606.466 38.4017 606.267 38.0814C606.072 37.7572 605.763 37.5951 605.341 37.5951Z" fill="#4091D2"/>
</svg>
