<svg width="917" height="401" viewBox="0 0 917 401" fill="none" xmlns="http://www.w3.org/2000/svg"><rect width="917" height="401" fill="#C4C4C4"/><rect width="104" height="40" transform="translate(1 1)" fill="#F1F1F6"/><path d="M18.1572 23.2246C18.1572 24.127 17.8314 24.8379 17.1797 25.3574C16.5326 25.877 15.6302 26.1367 14.4727 26.1367C13.4062 26.1367 12.4629 25.9362 11.6426 25.5352V23.5664C12.3171 23.8672 12.8867 24.0791 13.3516 24.2021C13.821 24.3252 14.2493 24.3867 14.6367 24.3867C15.1016 24.3867 15.457 24.2979 15.7031 24.1201C15.9538 23.9424 16.0791 23.6781 16.0791 23.3271C16.0791 23.1312 16.0244 22.958 15.915 22.8076C15.8057 22.6527 15.6439 22.5046 15.4297 22.3633C15.2201 22.222 14.7894 21.9964 14.1377 21.6865C13.527 21.3994 13.069 21.1237 12.7637 20.8594C12.4583 20.5951 12.2145 20.2874 12.0322 19.9365C11.8499 19.5856 11.7588 19.1755 11.7588 18.7061C11.7588 17.8219 12.0573 17.127 12.6543 16.6211C13.2559 16.1152 14.0853 15.8623 15.1426 15.8623C15.6621 15.8623 16.1566 15.9238 16.626 16.0469C17.0999 16.1699 17.5944 16.3431 18.1094 16.5664L17.4258 18.2139C16.8926 17.9951 16.4505 17.8424 16.0996 17.7559C15.7533 17.6693 15.4115 17.626 15.0742 17.626C14.6732 17.626 14.3656 17.7194 14.1514 17.9062C13.9372 18.0931 13.8301 18.3369 13.8301 18.6377C13.8301 18.8245 13.8734 18.9886 13.96 19.1299C14.0465 19.2666 14.1833 19.401 14.3701 19.5332C14.5615 19.6608 15.0104 19.8932 15.7168 20.2305C16.651 20.6771 17.2913 21.126 17.6377 21.5771C17.984 22.0238 18.1572 22.5729 18.1572 23.2246ZM22.9404 24.4756C23.305 24.4756 23.7425 24.3958 24.2529 24.2363V25.7881C23.7334 26.0205 23.0954 26.1367 22.3389 26.1367C21.5049 26.1367 20.8965 25.9271 20.5137 25.5078C20.1354 25.084 19.9463 24.4505 19.9463 23.6074V19.9229H18.9482V19.041L20.0967 18.3438L20.6982 16.7305H22.0312V18.3574H24.1709V19.9229H22.0312V23.6074C22.0312 23.9036 22.1133 24.1224 22.2773 24.2637C22.4459 24.4049 22.667 24.4756 22.9404 24.4756ZM30.5742 26L30.1709 24.9609H30.1162C29.7653 25.403 29.403 25.7106 29.0293 25.8838C28.6601 26.0524 28.1771 26.1367 27.58 26.1367C26.8463 26.1367 26.2675 25.9271 25.8437 25.5078C25.4244 25.0885 25.2148 24.4915 25.2148 23.7168C25.2148 22.9056 25.4974 22.3086 26.0625 21.9258C26.6321 21.5384 27.4889 21.3242 28.6328 21.2832L29.959 21.2422V20.9072C29.959 20.1325 29.5625 19.7451 28.7695 19.7451C28.1588 19.7451 27.441 19.9297 26.6162 20.2988L25.9257 18.8906C26.8053 18.4303 27.7806 18.2002 28.8515 18.2002C29.8769 18.2002 30.6631 18.4235 31.2099 18.8701C31.7568 19.3167 32.0302 19.9958 32.0302 20.9072V26H30.5742ZM29.959 22.459L29.1523 22.4863C28.5462 22.5046 28.095 22.6139 27.7988 22.8145C27.5026 23.015 27.3545 23.3203 27.3545 23.7305C27.3545 24.3184 27.6917 24.6123 28.3662 24.6123C28.8493 24.6123 29.2343 24.4733 29.5215 24.1953C29.8131 23.9173 29.959 23.5482 29.959 23.0879V22.459ZM37.3193 24.4756C37.6839 24.4756 38.1214 24.3958 38.6318 24.2363V25.7881C38.1123 26.0205 37.4742 26.1367 36.7177 26.1367C35.8837 26.1367 35.2753 25.9271 34.8925 25.5078C34.5143 25.084 34.3251 24.4505 34.3251 23.6074V19.9229H33.3271V19.041L34.4755 18.3438L35.0771 16.7305H36.4101V18.3574H38.5498V19.9229H36.4101V23.6074C36.4101 23.9036 36.4921 24.1224 36.6562 24.2637C36.8248 24.4049 37.0459 24.4756 37.3193 24.4756ZM43.2646 19.6973C42.8225 19.6973 42.4762 19.8385 42.2255 20.1211C41.9749 20.3991 41.8313 20.7956 41.7949 21.3105H44.7206C44.7115 20.7956 44.5771 20.3991 44.3173 20.1211C44.0576 19.8385 43.7066 19.6973 43.2646 19.6973ZM43.5585 26.1367C42.3281 26.1367 41.3665 25.7972 40.6738 25.1182C39.9811 24.4391 39.6347 23.4775 39.6347 22.2334C39.6347 20.9528 39.9537 19.9639 40.5917 19.2666C41.2343 18.5648 42.1207 18.2139 43.2509 18.2139C44.331 18.2139 45.1718 18.5215 45.7734 19.1367C46.3749 19.752 46.6757 20.6019 46.6757 21.6865V22.6982H41.747C41.7698 23.2907 41.9452 23.7533 42.2734 24.0859C42.6015 24.4186 43.0618 24.585 43.6542 24.585C44.1145 24.585 44.5497 24.5371 44.9599 24.4414C45.3701 24.3457 45.7984 24.193 46.2451 23.9834V25.5967C45.8805 25.779 45.4908 25.9134 45.0761 26C44.6614 26.0911 44.1555 26.1367 43.5585 26.1367Z" fill="#464B52"/><rect width="104" height="88.75" transform="translate(1 42)" fill="#fff"/><path d="M36.7569 86.2822C36.7569 87.9274 36.2875 89.1875 35.3487 90.0625C34.4144 90.9375 33.0632 91.375 31.295 91.375H28.4649V81.3809H31.6026C33.2341 81.3809 34.501 81.8115 35.4034 82.6729C36.3057 83.5342 36.7569 84.7373 36.7569 86.2822ZM34.5557 86.3369C34.5557 84.1904 33.6078 83.1172 31.712 83.1172H30.584V89.625H31.4932C33.5349 89.625 34.5557 88.529 34.5557 86.3369ZM41.7451 85.0723C41.3031 85.0723 40.9567 85.2135 40.7061 85.4961C40.4554 85.7741 40.3119 86.1706 40.2754 86.6855H43.2012C43.1921 86.1706 43.0576 85.7741 42.7979 85.4961C42.5381 85.2135 42.1872 85.0723 41.7451 85.0723ZM42.0391 91.5117C40.8086 91.5117 39.847 91.1722 39.1543 90.4932C38.4616 89.8141 38.1153 88.8525 38.1153 87.6084C38.1153 86.3278 38.4343 85.3389 39.0723 84.6416C39.7149 83.9398 40.6013 83.5889 41.7315 83.5889C42.8116 83.5889 43.6524 83.8965 44.2539 84.5117C44.8555 85.127 45.1563 85.9769 45.1563 87.0615V88.0732H40.2276C40.2504 88.6657 40.4258 89.1283 40.7539 89.4609C41.0821 89.7936 41.5424 89.96 42.1348 89.96C42.5951 89.96 43.0303 89.9121 43.4405 89.8164C43.8506 89.7207 44.279 89.568 44.7256 89.3584V90.9717C44.361 91.154 43.9714 91.2884 43.5567 91.375C43.142 91.4661 42.6361 91.5117 42.0391 91.5117ZM50.9922 85.2979H49.1875V91.375H47.1026V85.2979H45.9541V84.293L47.1026 83.7324V83.1719C47.1026 82.3014 47.3167 81.6657 47.7451 81.2646C48.1735 80.8636 48.8594 80.6631 49.8028 80.6631C50.5228 80.6631 51.1631 80.7702 51.7236 80.9844L51.1904 82.5156C50.7712 82.3835 50.3838 82.3174 50.0283 82.3174C49.7321 82.3174 49.5179 82.4062 49.3858 82.584C49.2536 82.7572 49.1875 82.9805 49.1875 83.2539V83.7324H50.9922V85.2979ZM56.9648 91.375L56.5615 90.3359H56.5068C56.1559 90.778 55.7936 91.0856 55.4199 91.2588C55.0508 91.4274 54.5677 91.5117 53.9707 91.5117C53.237 91.5117 52.6582 91.3021 52.2344 90.8828C51.8151 90.4635 51.6055 89.8665 51.6055 89.0918C51.6055 88.2806 51.888 87.6836 52.4531 87.3008C53.0228 86.9134 53.8796 86.6992 55.0234 86.6582L56.3496 86.6172V86.2822C56.3496 85.5075 55.9531 85.1201 55.1602 85.1201C54.5495 85.1201 53.8317 85.3047 53.0068 85.6738L52.3164 84.2656C53.196 83.8053 54.1712 83.5752 55.2422 83.5752C56.2676 83.5752 57.0537 83.7985 57.6006 84.2451C58.1475 84.6917 58.4209 85.3708 58.4209 86.2822V91.375H56.9648ZM56.3496 87.834L55.543 87.8613C54.9368 87.8796 54.4857 87.9889 54.1895 88.1895C53.8932 88.39 53.7451 88.6953 53.7451 89.1055C53.7451 89.6934 54.0824 89.9873 54.7568 89.9873C55.2399 89.9873 55.625 89.8483 55.9121 89.5703C56.2038 89.2923 56.3496 88.9232 56.3496 88.4629V87.834ZM65.9043 91.375L65.624 90.3975H65.5146C65.2913 90.7529 64.9746 91.0286 64.5644 91.2246C64.1543 91.416 63.6872 91.5117 63.1631 91.5117C62.2653 91.5117 61.5885 91.2725 61.1328 90.7939C60.6771 90.3109 60.4492 89.6182 60.4492 88.7158V83.7324H62.5342V88.1963C62.5342 88.7477 62.6321 89.1624 62.8281 89.4404C63.0241 89.7139 63.3362 89.8506 63.7646 89.8506C64.348 89.8506 64.7695 89.6569 65.0293 89.2695C65.289 88.8776 65.4189 88.2305 65.4189 87.3281V83.7324H67.5039V91.375H65.9043ZM71.6924 91.375H69.6074V80.7383H71.6924V91.375ZM77.0224 89.8506C77.387 89.8506 77.8245 89.7708 78.3349 89.6113V91.1631C77.8154 91.3955 77.1774 91.5117 76.4209 91.5117C75.5869 91.5117 74.9785 91.3021 74.5957 90.8828C74.2174 90.459 74.0283 89.8255 74.0283 88.9824V85.2979H73.0302V84.416L74.1787 83.7188L74.7802 82.1055H76.1132V83.7324H78.2529V85.2979H76.1132V88.9824C76.1132 89.2786 76.1953 89.4974 76.3593 89.6387C76.5279 89.7799 76.749 89.8506 77.0224 89.8506Z" fill="#000"/><rect width="104" height="88.75" transform="translate(1 131.75)" fill="#fff"/><path d="M36.6524 181.125H34.5674V171.131H40.2959V172.867H36.6524V175.444H40.043V177.174H36.6524V181.125ZM43.6641 177.29C43.6641 178.047 43.7871 178.618 44.0332 179.006C44.2839 179.393 44.6895 179.587 45.25 179.587C45.806 179.587 46.2048 179.396 46.4463 179.013C46.6924 178.625 46.8154 178.051 46.8154 177.29C46.8154 176.534 46.6924 175.966 46.4463 175.588C46.2002 175.21 45.7969 175.021 45.2363 175.021C44.6804 175.021 44.2793 175.21 44.0332 175.588C43.7871 175.962 43.6641 176.529 43.6641 177.29ZM48.9483 177.29C48.9483 178.534 48.6201 179.507 47.9639 180.209C47.3076 180.911 46.3939 181.262 45.2227 181.262C44.4889 181.262 43.8418 181.102 43.2813 180.783C42.7207 180.46 42.2901 179.997 41.9893 179.396C41.6885 178.794 41.5381 178.092 41.5381 177.29C41.5381 176.041 41.8639 175.071 42.5156 174.378C43.1673 173.685 44.0833 173.339 45.2637 173.339C45.9974 173.339 46.6445 173.498 47.2051 173.817C47.7656 174.136 48.1963 174.594 48.4971 175.191C48.7979 175.788 48.9483 176.488 48.9483 177.29ZM53.6904 181.262C51.3115 181.262 50.1221 179.956 50.1221 177.345C50.1221 176.046 50.4456 175.055 51.0928 174.371C51.7399 173.683 52.6673 173.339 53.875 173.339C54.7591 173.339 55.5521 173.512 56.2539 173.858L55.6387 175.472C55.3105 175.34 55.0052 175.232 54.7227 175.15C54.4401 175.064 54.1576 175.021 53.875 175.021C52.7904 175.021 52.248 175.791 52.248 177.331C52.248 178.826 52.7904 179.573 53.875 179.573C54.276 179.573 54.6475 179.521 54.9893 179.416C55.3311 179.307 55.6729 179.138 56.0146 178.91V180.694C55.6774 180.909 55.3356 181.057 54.9893 181.139C54.6475 181.221 54.2145 181.262 53.6904 181.262ZM63.1221 181.125L62.8418 180.147H62.7324C62.5091 180.503 62.1924 180.779 61.7822 180.975C61.3721 181.166 60.9049 181.262 60.3808 181.262C59.4831 181.262 58.8063 181.022 58.3506 180.544C57.8948 180.061 57.667 179.368 57.667 178.466V173.482H59.7519V177.946C59.7519 178.498 59.8499 178.912 60.0459 179.19C60.2418 179.464 60.554 179.601 60.9824 179.601C61.5657 179.601 61.9873 179.407 62.2471 179.02C62.5068 178.628 62.6367 177.98 62.6367 177.078V173.482H64.7217V181.125H63.1221ZM72.1572 178.855C72.1572 179.639 71.8838 180.236 71.3369 180.646C70.7946 181.057 69.9811 181.262 68.8965 181.262C68.3405 181.262 67.8665 181.223 67.4746 181.146C67.0827 181.073 66.7158 180.963 66.374 180.817V179.095C66.7614 179.277 67.1966 179.43 67.6797 179.553C68.1673 179.676 68.5957 179.737 68.9648 179.737C69.7213 179.737 70.0996 179.519 70.0996 179.081C70.0996 178.917 70.0494 178.785 69.9492 178.685C69.8489 178.58 69.6758 178.464 69.4297 178.336C69.1836 178.204 68.8554 178.051 68.4453 177.878C67.8574 177.632 67.4244 177.404 67.1465 177.194C66.873 176.985 66.6725 176.745 66.5449 176.477C66.4218 176.203 66.3603 175.868 66.3603 175.472C66.3603 174.793 66.6224 174.269 67.1465 173.899C67.6751 173.526 68.4225 173.339 69.3886 173.339C70.3092 173.339 71.2047 173.539 72.0752 173.94L71.4463 175.444C71.0634 175.28 70.7057 175.146 70.373 175.041C70.0403 174.936 69.7008 174.884 69.3545 174.884C68.7392 174.884 68.4316 175.05 68.4316 175.383C68.4316 175.57 68.5296 175.731 68.7256 175.868C68.9261 176.005 69.3613 176.208 70.0312 176.477C70.6282 176.718 71.0657 176.944 71.3437 177.153C71.6217 177.363 71.8268 177.604 71.959 177.878C72.0911 178.151 72.1572 178.477 72.1572 178.855Z" fill="#000"/><rect width="104" height="88.75" transform="translate(1 221.5)" fill="#fff"/><path d="M32.6768 265.782C32.6768 267.427 32.2074 268.688 31.2686 269.562C30.3344 270.438 28.9831 270.875 27.2149 270.875H24.3848V260.881H27.5225C29.154 260.881 30.421 261.312 31.3233 262.173C32.2256 263.034 32.6768 264.237 32.6768 265.782ZM30.4756 265.837C30.4756 263.69 29.5277 262.617 27.6319 262.617H26.504V269.125H27.4131C29.4548 269.125 30.4756 268.029 30.4756 265.837ZM34.4112 261.257C34.4112 260.578 34.7894 260.238 35.5459 260.238C36.3024 260.238 36.6807 260.578 36.6807 261.257C36.6807 261.58 36.585 261.833 36.3936 262.016C36.2067 262.193 35.9242 262.282 35.5459 262.282C34.7894 262.282 34.4112 261.94 34.4112 261.257ZM36.585 270.875H34.5V263.232H36.585V270.875ZM44.0274 268.605C44.0274 269.389 43.7539 269.986 43.2071 270.396C42.6647 270.807 41.8513 271.012 40.7666 271.012C40.2106 271.012 39.7367 270.973 39.3447 270.896C38.9528 270.823 38.586 270.713 38.2442 270.567V268.845C38.6315 269.027 39.0668 269.18 39.5498 269.303C40.0375 269.426 40.4658 269.487 40.835 269.487C41.5915 269.487 41.9697 269.269 41.9697 268.831C41.9697 268.667 41.9196 268.535 41.8194 268.435C41.7191 268.33 41.5459 268.214 41.2998 268.086C41.0537 267.954 40.7256 267.801 40.3155 267.628C39.7276 267.382 39.2946 267.154 39.0166 266.944C38.7432 266.735 38.5427 266.495 38.4151 266.227C38.292 265.953 38.2305 265.618 38.2305 265.222C38.2305 264.543 38.4925 264.019 39.0166 263.649C39.5453 263.276 40.2927 263.089 41.2588 263.089C42.1794 263.089 43.0749 263.289 43.9453 263.69L43.3164 265.194C42.9336 265.03 42.5759 264.896 42.2432 264.791C41.9105 264.686 41.571 264.634 41.2246 264.634C40.6094 264.634 40.3018 264.8 40.3018 265.133C40.3018 265.32 40.3998 265.481 40.5957 265.618C40.7962 265.755 41.2315 265.958 41.9014 266.227C42.4984 266.468 42.9359 266.694 43.2139 266.903C43.4919 267.113 43.697 267.354 43.8291 267.628C43.9613 267.901 44.0274 268.227 44.0274 268.605ZM50.4238 270.875L50.0205 269.836H49.9658C49.6149 270.278 49.2526 270.586 48.8789 270.759C48.5098 270.927 48.0267 271.012 47.4297 271.012C46.696 271.012 46.1172 270.802 45.6934 270.383C45.2741 269.964 45.0645 269.367 45.0645 268.592C45.0645 267.781 45.347 267.184 45.9121 266.801C46.4818 266.413 47.3385 266.199 48.4824 266.158L49.8086 266.117V265.782C49.8086 265.007 49.4121 264.62 48.6191 264.62C48.0085 264.62 47.2907 264.805 46.4658 265.174L45.7754 263.766C46.655 263.305 47.6302 263.075 48.7012 263.075C49.7266 263.075 50.5127 263.299 51.0596 263.745C51.6065 264.192 51.8799 264.871 51.8799 265.782V270.875H50.4238ZM49.8086 267.334L49.002 267.361C48.3958 267.38 47.9447 267.489 47.6484 267.689C47.3522 267.89 47.2041 268.195 47.2041 268.605C47.2041 269.193 47.5413 269.487 48.2158 269.487C48.6989 269.487 49.084 269.348 49.3711 269.07C49.6628 268.792 49.8086 268.423 49.8086 267.963V267.334ZM58.2012 263.089C59.1035 263.089 59.8099 263.442 60.3203 264.148C60.8307 264.85 61.0859 265.814 61.0859 267.04C61.0859 268.302 60.8216 269.28 60.293 269.973C59.7689 270.665 59.0534 271.012 58.1465 271.012C57.2487 271.012 56.5446 270.686 56.0342 270.034H55.8906L55.542 270.875H53.9492V260.238H56.0342V262.713C56.0342 263.027 56.0068 263.531 55.9521 264.224H56.0342C56.5218 263.467 57.2441 263.089 58.2012 263.089ZM57.5312 264.757C57.0163 264.757 56.6403 264.916 56.4033 265.235C56.1663 265.55 56.0433 266.072 56.0342 266.801V267.026C56.0342 267.847 56.1549 268.435 56.3965 268.79C56.6426 269.146 57.0299 269.323 57.5586 269.323C57.987 269.323 58.3265 269.127 58.5771 268.735C58.8323 268.339 58.96 267.765 58.96 267.013C58.96 266.261 58.8323 265.698 58.5771 265.324C58.3219 264.946 57.9733 264.757 57.5312 264.757ZM64.8095 270.875H62.7246V260.238H64.8095V270.875ZM70.0849 264.572C69.6429 264.572 69.2965 264.714 69.0459 264.996C68.7952 265.274 68.6517 265.671 68.6152 266.186H71.541C71.5319 265.671 71.3974 265.274 71.1377 264.996C70.8779 264.714 70.527 264.572 70.0849 264.572ZM70.3789 271.012C69.1484 271.012 68.1868 270.672 67.4941 269.993C66.8014 269.314 66.455 268.353 66.455 267.108C66.455 265.828 66.7741 264.839 67.4121 264.142C68.0546 263.44 68.941 263.089 70.0713 263.089C71.1513 263.089 71.9921 263.396 72.5937 264.012C73.1953 264.627 73.4961 265.477 73.4961 266.562V267.573H68.5673C68.5901 268.166 68.7656 268.628 69.0937 268.961C69.4218 269.294 69.8821 269.46 70.4746 269.46C70.9349 269.46 71.3701 269.412 71.7802 269.316C72.1904 269.221 72.6188 269.068 73.0654 268.858V270.472C72.7008 270.654 72.3112 270.788 71.8964 270.875C71.4817 270.966 70.9759 271.012 70.3789 271.012ZM77.5273 271.012C76.6295 271.012 75.9231 270.663 75.4081 269.966C74.8977 269.269 74.6425 268.302 74.6425 267.067C74.6425 265.814 74.9023 264.839 75.4218 264.142C75.9459 263.44 76.666 263.089 77.582 263.089C78.5436 263.089 79.2773 263.463 79.7831 264.21H79.8515C79.7467 263.64 79.6943 263.132 79.6943 262.686V260.238H81.7861V270.875H80.1865L79.7831 269.884H79.6943C79.2203 270.636 78.498 271.012 77.5273 271.012ZM78.2587 269.351C78.7919 269.351 79.1816 269.196 79.4277 268.886C79.6783 268.576 79.8151 268.049 79.8378 267.307V267.081C79.8378 266.261 79.7102 265.673 79.455 265.317C79.2044 264.962 78.7942 264.784 78.2246 264.784C77.7597 264.784 77.3974 264.982 77.1376 265.379C76.8824 265.771 76.7548 266.343 76.7548 267.095C76.7548 267.847 76.8847 268.412 77.1445 268.79C77.4042 269.164 77.7757 269.351 78.2587 269.351Z" fill="#000"/><rect width="104" height="88.75" transform="translate(1 311.25)" fill="#fff"/><path d="M26.0801 360.625H20.3243V350.631H26.0801V352.367H22.4434V354.562H25.8272V356.298H22.4434V358.875H26.0801V360.625ZM29.4893 356.722L27.0284 352.982H29.3936L30.877 355.416L32.3741 352.982H34.7393L32.251 356.722L34.8555 360.625H32.4834L30.877 358.007L29.2637 360.625H26.8985L29.4893 356.722ZM40.1309 360.762C39.2331 360.762 38.529 360.436 38.0186 359.784H37.9092C37.9821 360.422 38.0186 360.791 38.0186 360.892V363.988H35.9336V352.982H37.6289L37.9229 353.974H38.0186C38.5062 353.217 39.2285 352.839 40.1856 352.839C41.0879 352.839 41.7943 353.188 42.3047 353.885C42.8151 354.582 43.0703 355.55 43.0703 356.79C43.0703 357.606 42.9496 358.314 42.708 358.916C42.4711 359.518 42.1315 359.976 41.6895 360.29C41.2474 360.604 40.7279 360.762 40.1309 360.762ZM39.5156 354.507C39.0007 354.507 38.6247 354.666 38.3877 354.985C38.1507 355.3 38.0277 355.822 38.0186 356.551V356.776C38.0186 357.597 38.1393 358.185 38.3809 358.54C38.627 358.896 39.0143 359.073 39.543 359.073C40.4772 359.073 40.9444 358.303 40.9444 356.763C40.9444 356.011 40.8281 355.448 40.5957 355.074C40.3679 354.696 40.0078 354.507 39.5156 354.507ZM49.5625 360.625L49.1592 359.586H49.1045C48.7536 360.028 48.3913 360.336 48.0176 360.509C47.6484 360.677 47.1654 360.762 46.5684 360.762C45.8346 360.762 45.2559 360.552 44.832 360.133C44.4128 359.714 44.2031 359.117 44.2031 358.342C44.2031 357.531 44.4857 356.934 45.0508 356.551C45.6204 356.163 46.4772 355.949 47.6211 355.908L48.9473 355.867V355.532C48.9473 354.757 48.5508 354.37 47.7578 354.37C47.1471 354.37 46.4294 354.555 45.6045 354.924L44.9141 353.516C45.7936 353.055 46.7689 352.825 47.8398 352.825C48.8652 352.825 49.6514 353.049 50.1982 353.495C50.7451 353.942 51.0186 354.621 51.0186 355.532V360.625H49.5625ZM48.9473 357.084L48.1406 357.111C47.5345 357.13 47.0833 357.239 46.7871 357.439C46.4909 357.64 46.3428 357.945 46.3428 358.355C46.3428 358.943 46.68 359.237 47.3545 359.237C47.8376 359.237 48.2227 359.098 48.5098 358.82C48.8014 358.542 48.9473 358.173 48.9473 357.713V357.084ZM60.1426 360.625H58.0576V356.161C58.0576 355.61 57.9596 355.197 57.7637 354.924C57.5677 354.646 57.2555 354.507 56.8271 354.507C56.2438 354.507 55.8223 354.703 55.5625 355.095C55.3027 355.482 55.1728 356.127 55.1728 357.029V360.625H53.0879V352.982H54.6807L54.9609 353.96H55.0771C55.3096 353.591 55.6286 353.313 56.0342 353.126C56.4443 352.935 56.9092 352.839 57.4287 352.839C58.3174 352.839 58.9919 353.08 59.4521 353.563C59.9124 354.042 60.1426 354.735 60.1426 355.642V360.625ZM64.625 360.762C63.7272 360.762 63.0208 360.413 62.5058 359.716C61.9954 359.019 61.7402 358.052 61.7402 356.817C61.7402 355.564 62 354.589 62.5195 353.892C63.0436 353.19 63.7636 352.839 64.6797 352.839C65.6413 352.839 66.375 353.213 66.8808 353.96H66.9492C66.8444 353.39 66.792 352.882 66.792 352.436V349.988H68.8838V360.625H67.2842L66.8808 359.634H66.792C66.318 360.386 65.5957 360.762 64.625 360.762ZM65.3564 359.101C65.8896 359.101 66.2793 358.946 66.5254 358.636C66.776 358.326 66.9127 357.799 66.9355 357.057V356.831C66.9355 356.011 66.8079 355.423 66.5527 355.067C66.3021 354.712 65.8919 354.534 65.3222 354.534C64.8574 354.534 64.4951 354.732 64.2353 355.129C63.9801 355.521 63.8525 356.093 63.8525 356.845C63.8525 357.597 63.9824 358.162 64.2422 358.54C64.5019 358.914 64.8733 359.101 65.3564 359.101ZM74.1455 354.322C73.7034 354.322 73.3571 354.464 73.1064 354.746C72.8558 355.024 72.7122 355.421 72.6757 355.936H75.6015C75.5924 355.421 75.458 355.024 75.1982 354.746C74.9384 354.464 74.5875 354.322 74.1455 354.322ZM74.4394 360.762C73.2089 360.762 72.2474 360.422 71.5546 359.743C70.8619 359.064 70.5156 358.103 70.5156 356.858C70.5156 355.578 70.8346 354.589 71.4726 353.892C72.1152 353.19 73.0016 352.839 74.1318 352.839C75.2119 352.839 76.0527 353.146 76.6543 353.762C77.2558 354.377 77.5566 355.227 77.5566 356.312V357.323H72.6279C72.6507 357.916 72.8261 358.378 73.1543 358.711C73.4824 359.044 73.9427 359.21 74.5351 359.21C74.9954 359.21 75.4306 359.162 75.8408 359.066C76.2509 358.971 76.6793 358.818 77.1259 358.608V360.222C76.7614 360.404 76.3717 360.538 75.957 360.625C75.5423 360.716 75.0364 360.762 74.4394 360.762ZM81.5878 360.762C80.69 360.762 79.9837 360.413 79.4687 359.716C78.9583 359.019 78.7031 358.052 78.7031 356.817C78.7031 355.564 78.9628 354.589 79.4824 353.892C80.0065 353.19 80.7265 352.839 81.6425 352.839C82.6041 352.839 83.3378 353.213 83.8437 353.96H83.9121C83.8072 353.39 83.7548 352.882 83.7548 352.436V349.988H85.8466V360.625H84.247L83.8437 359.634H83.7548C83.2809 360.386 82.5585 360.762 81.5878 360.762ZM82.3193 359.101C82.8525 359.101 83.2421 358.946 83.4882 358.636C83.7389 358.326 83.8756 357.799 83.8984 357.057V356.831C83.8984 356.011 83.7708 355.423 83.5156 355.067C83.2649 354.712 82.8548 354.534 82.2851 354.534C81.8203 354.534 81.458 354.732 81.1982 355.129C80.943 355.521 80.8154 356.093 80.8154 356.845C80.8154 357.597 80.9453 358.162 81.205 358.54C81.4648 358.914 81.8362 359.101 82.3193 359.101Z" fill="#000"/><rect width="276" height="40" transform="translate(106 1)" fill="#F1F1F6"/><path d="M126.992 26H124.579L123.226 20.75C123.175 20.5632 123.089 20.1781 122.966 19.5947C122.847 19.0068 122.779 18.6126 122.761 18.4121C122.733 18.6582 122.665 19.0547 122.556 19.6016C122.446 20.1439 122.362 20.5312 122.303 20.7637L120.956 26H118.55L116 16.0059H118.085L119.363 21.4609C119.587 22.4681 119.748 23.3408 119.849 24.0791C119.876 23.8193 119.938 23.4183 120.033 22.876C120.133 22.3291 120.227 21.9053 120.313 21.6045L121.77 16.0059H123.772L125.229 21.6045C125.292 21.8551 125.372 22.238 125.468 22.7529C125.563 23.2679 125.636 23.71 125.687 24.0791C125.732 23.7236 125.805 23.2816 125.905 22.7529C126.006 22.2197 126.097 21.7891 126.179 21.4609L127.45 16.0059H129.535L126.992 26ZM137.6 26H135.515V21.5361C135.515 20.4333 135.104 19.8818 134.284 19.8818C133.701 19.8818 133.279 20.0801 133.02 20.4766C132.76 20.873 132.63 21.5156 132.63 22.4043V26H130.545V15.3633H132.63V17.5303C132.63 17.6989 132.614 18.0954 132.582 18.7197L132.534 19.335H132.644C133.108 18.5876 133.847 18.2139 134.858 18.2139C135.756 18.2139 136.437 18.4554 136.902 18.9385C137.367 19.4215 137.6 20.1143 137.6 21.0166V26ZM139.573 16.3818C139.573 15.7028 139.951 15.3633 140.708 15.3633C141.464 15.3633 141.843 15.7028 141.843 16.3818C141.843 16.7054 141.747 16.9583 141.556 17.1406C141.369 17.3184 141.086 17.4072 140.708 17.4072C139.951 17.4072 139.573 17.0654 139.573 16.3818ZM141.747 26H139.662V18.3574H141.747V26ZM147.077 24.4756C147.442 24.4756 147.879 24.3958 148.39 24.2363V25.7881C147.87 26.0205 147.232 26.1367 146.476 26.1367C145.642 26.1367 145.033 25.9271 144.65 25.5078C144.272 25.084 144.083 24.4505 144.083 23.6074V19.9229H143.085V19.041L144.233 18.3438L144.835 16.7305H146.168V18.3574H148.308V19.9229H146.168V23.6074C146.168 23.9036 146.25 24.1224 146.414 24.2637C146.583 24.4049 146.804 24.4756 147.077 24.4756ZM153.022 19.6973C152.58 19.6973 152.234 19.8385 151.983 20.1211C151.733 20.3991 151.589 20.7956 151.553 21.3105H154.478C154.469 20.7956 154.335 20.3991 154.075 20.1211C153.815 19.8385 153.464 19.6973 153.022 19.6973ZM153.316 26.1367C152.086 26.1367 151.124 25.7972 150.432 25.1182C149.739 24.4391 149.393 23.4775 149.393 22.2334C149.393 20.9528 149.712 19.9639 150.35 19.2666C150.992 18.5648 151.879 18.2139 153.009 18.2139C154.089 18.2139 154.93 18.5215 155.531 19.1367C156.133 19.752 156.434 20.6019 156.434 21.6865V22.6982H151.505C151.528 23.2907 151.703 23.7533 152.031 24.0859C152.359 24.4186 152.82 24.585 153.412 24.585C153.872 24.585 154.308 24.5371 154.718 24.4414C155.128 24.3457 155.556 24.193 156.003 23.9834V25.5967C155.638 25.779 155.249 25.9134 154.834 26C154.419 26.0911 153.913 26.1367 153.316 26.1367ZM161.762 16.0059H164.872C166.289 16.0059 167.317 16.2087 167.955 16.6143C168.598 17.0153 168.919 17.6556 168.919 18.5352C168.919 19.1322 168.778 19.6221 168.495 20.0049C168.217 20.3877 167.846 20.6178 167.381 20.6953V20.7637C168.014 20.9049 168.47 21.1693 168.748 21.5566C169.031 21.944 169.172 22.459 169.172 23.1016C169.172 24.013 168.841 24.724 168.181 25.2344C167.524 25.7448 166.631 26 165.501 26H161.762V16.0059ZM163.881 19.9639H165.111C165.685 19.9639 166.1 19.875 166.355 19.6973C166.615 19.5195 166.745 19.2256 166.745 18.8154C166.745 18.4326 166.604 18.1592 166.321 17.9951C166.043 17.8265 165.601 17.7422 164.995 17.7422H163.881V19.9639ZM163.881 21.6455V24.25H165.262C165.845 24.25 166.276 24.1383 166.554 23.915C166.832 23.6917 166.971 23.3499 166.971 22.8896C166.971 22.0602 166.378 21.6455 165.193 21.6455H163.881ZM175.773 26L175.37 24.9609H175.315C174.964 25.403 174.602 25.7106 174.228 25.8838C173.859 26.0524 173.376 26.1367 172.779 26.1367C172.045 26.1367 171.467 25.9271 171.043 25.5078C170.624 25.0885 170.414 24.4915 170.414 23.7168C170.414 22.9056 170.697 22.3086 171.262 21.9258C171.831 21.5384 172.688 21.3242 173.832 21.2832L175.158 21.2422V20.9072C175.158 20.1325 174.762 19.7451 173.969 19.7451C173.358 19.7451 172.64 19.9297 171.815 20.2988L171.125 18.8906C172.004 18.4303 172.98 18.2002 174.051 18.2002C175.076 18.2002 175.862 18.4235 176.409 18.8701C176.956 19.3167 177.229 19.9958 177.229 20.9072V26H175.773ZM175.158 22.459L174.351 22.4863C173.745 22.5046 173.294 22.6139 172.998 22.8145C172.702 23.015 172.554 23.3203 172.554 23.7305C172.554 24.3184 172.891 24.6123 173.565 24.6123C174.048 24.6123 174.433 24.4733 174.721 24.1953C175.012 23.9173 175.158 23.5482 175.158 23.0879V22.459ZM182.402 26.1367C180.023 26.1367 178.834 24.8311 178.834 22.2197C178.834 20.9209 179.157 19.9297 179.805 19.2461C180.452 18.5579 181.379 18.2139 182.587 18.2139C183.471 18.2139 184.264 18.387 184.966 18.7334L184.35 20.3467C184.022 20.2145 183.717 20.1074 183.434 20.0254C183.152 19.9388 182.869 19.8955 182.587 19.8955C181.502 19.8955 180.96 20.6657 180.96 22.2061C180.96 23.7008 181.502 24.4482 182.587 24.4482C182.988 24.4482 183.359 24.3958 183.701 24.291C184.043 24.1816 184.385 24.013 184.726 23.7852V25.5693C184.389 25.7835 184.047 25.9316 183.701 26.0137C183.359 26.0957 182.926 26.1367 182.402 26.1367ZM188.423 21.8438L189.332 20.6816L191.472 18.3574H193.823L190.788 21.6729L194.008 26H191.601L189.4 22.9033L188.505 23.6211V26H186.42V15.3633H188.505V20.1074L188.395 21.8438H188.423ZM201.669 18.3574V19.417L200.473 19.7246C200.691 20.0664 200.801 20.4492 200.801 20.873C200.801 21.6934 200.514 22.3337 199.939 22.7939C199.37 23.2497 198.577 23.4775 197.56 23.4775L197.184 23.457L196.877 23.4229C196.663 23.5869 196.556 23.7692 196.556 23.9697C196.556 24.2705 196.938 24.4209 197.704 24.4209H199.003C199.841 24.4209 200.479 24.6009 200.917 24.9609C201.359 25.321 201.58 25.8496 201.58 26.5469C201.58 27.4401 201.206 28.1328 200.459 28.625C199.716 29.1172 198.647 29.3633 197.253 29.3633C196.186 29.3633 195.371 29.1764 194.806 28.8027C194.245 28.4336 193.965 27.9141 193.965 27.2441C193.965 26.7839 194.108 26.3988 194.395 26.0889C194.682 25.779 195.104 25.5579 195.66 25.4258C195.446 25.3346 195.259 25.1865 195.099 24.9814C194.94 24.7718 194.86 24.5508 194.86 24.3184C194.86 24.0267 194.945 23.7852 195.113 23.5938C195.282 23.3978 195.526 23.2064 195.845 23.0195C195.444 22.8464 195.125 22.5684 194.888 22.1855C194.655 21.8027 194.539 21.3516 194.539 20.832C194.539 19.998 194.81 19.3532 195.352 18.8975C195.895 18.4417 196.669 18.2139 197.677 18.2139C197.891 18.2139 198.144 18.2344 198.435 18.2754C198.732 18.3118 198.921 18.3392 199.003 18.3574H201.669ZM195.769 27.0801C195.769 27.3672 195.906 27.5928 196.18 27.7568C196.458 27.9209 196.845 28.0029 197.342 28.0029C198.089 28.0029 198.675 27.9004 199.098 27.6953C199.522 27.4902 199.734 27.21 199.734 26.8545C199.734 26.5674 199.609 26.3691 199.358 26.2598C199.108 26.1504 198.72 26.0957 198.196 26.0957H197.116C196.733 26.0957 196.412 26.1846 196.152 26.3623C195.897 26.5446 195.769 26.7839 195.769 27.0801ZM196.528 20.8594C196.528 21.2741 196.622 21.6022 196.808 21.8438C197 22.0853 197.289 22.2061 197.677 22.2061C198.069 22.2061 198.356 22.0853 198.538 21.8438C198.72 21.6022 198.811 21.2741 198.811 20.8594C198.811 19.9388 198.433 19.4785 197.677 19.4785C196.911 19.4785 196.528 19.9388 196.528 20.8594ZM207.115 18.2139C207.398 18.2139 207.632 18.2344 207.819 18.2754L207.662 20.2305C207.493 20.1849 207.288 20.1621 207.047 20.1621C206.381 20.1621 205.862 20.333 205.488 20.6748C205.119 21.0166 204.934 21.4951 204.934 22.1104V26H202.849V18.3574H204.429L204.736 19.6426H204.839C205.076 19.2142 205.395 18.8701 205.796 18.6104C206.201 18.346 206.641 18.2139 207.115 18.2139ZM210.784 22.165C210.784 22.9215 210.907 23.4935 211.153 23.8809C211.404 24.2682 211.809 24.4619 212.37 24.4619C212.926 24.4619 213.325 24.2705 213.566 23.8877C213.812 23.5003 213.935 22.9261 213.935 22.165C213.935 21.4085 213.812 20.8411 213.566 20.4629C213.32 20.0846 212.917 19.8955 212.356 19.8955C211.8 19.8955 211.399 20.0846 211.153 20.4629C210.907 20.8366 210.784 21.404 210.784 22.165ZM216.068 22.165C216.068 23.4092 215.74 24.3822 215.084 25.084C214.428 25.7858 213.514 26.1367 212.343 26.1367C211.609 26.1367 210.962 25.9772 210.401 25.6582C209.841 25.3346 209.41 24.8721 209.109 24.2705C208.808 23.6689 208.658 22.9671 208.658 22.165C208.658 20.9163 208.984 19.9456 209.636 19.2529C210.287 18.5602 211.203 18.2139 212.384 18.2139C213.117 18.2139 213.764 18.3734 214.325 18.6924C214.886 19.0114 215.316 19.4694 215.617 20.0664C215.918 20.6634 216.068 21.363 216.068 22.165ZM223.121 26L222.841 25.0225H222.731C222.508 25.3779 222.191 25.6536 221.781 25.8496C221.371 26.041 220.904 26.1367 220.38 26.1367C219.482 26.1367 218.805 25.8975 218.349 25.4189C217.894 24.9359 217.666 24.2432 217.666 23.3408V18.3574H219.751V22.8213C219.751 23.3727 219.849 23.7874 220.045 24.0654C220.241 24.3389 220.553 24.4756 220.981 24.4756C221.565 24.4756 221.986 24.2819 222.246 23.8945C222.506 23.5026 222.636 22.8555 222.636 21.9531V18.3574H224.72V26H223.121ZM233.879 26H231.794V21.5361C231.794 20.9847 231.696 20.5723 231.5 20.2988C231.304 20.0208 230.992 19.8818 230.563 19.8818C229.98 19.8818 229.558 20.0778 229.299 20.4697C229.039 20.8571 228.909 21.502 228.909 22.4043V26H226.824V18.3574H228.417L228.697 19.335H228.813C229.046 18.9658 229.365 18.6878 229.77 18.501C230.18 18.3096 230.645 18.2139 231.165 18.2139C232.053 18.2139 232.728 18.4554 233.188 18.9385C233.649 19.417 233.879 20.1097 233.879 21.0166V26ZM238.361 26.1367C237.463 26.1367 236.757 25.7881 236.242 25.0908C235.732 24.3936 235.476 23.4274 235.476 22.1924C235.476 20.9391 235.736 19.9639 236.256 19.2666C236.78 18.5648 237.5 18.2139 238.416 18.2139C239.377 18.2139 240.111 18.5876 240.617 19.335H240.685C240.58 18.7653 240.528 18.2572 240.528 17.8105V15.3633H242.62V26H241.02L240.617 25.0088H240.528C240.054 25.7607 239.332 26.1367 238.361 26.1367ZM239.093 24.4756C239.626 24.4756 240.015 24.3206 240.261 24.0107C240.512 23.7008 240.649 23.1745 240.672 22.4316V22.2061C240.672 21.3857 240.544 20.7979 240.289 20.4424C240.038 20.0869 239.628 19.9092 239.058 19.9092C238.594 19.9092 238.231 20.1074 237.971 20.5039C237.716 20.8958 237.589 21.4678 237.589 22.2197C237.589 22.9717 237.719 23.5368 237.978 23.915C238.238 24.2887 238.609 24.4756 239.093 24.4756Z" fill="#50545B"/><rect width="276" height="88.75" transform="translate(106 42)" fill="#fff"/><rect x="155.5" y="54.875" width="177" height="63" rx="3.5" fill="#fff"/><path d="M185.993 95.375H184.167V81.292H179.193V79.6699H190.967V81.292H185.993V95.375ZM195.105 95.375H193.322V83.6016H195.105V95.375ZM193.172 80.4111C193.172 80.0029 193.272 79.7057 193.473 79.5195C193.673 79.3262 193.924 79.2295 194.225 79.2295C194.511 79.2295 194.758 79.3262 194.966 79.5195C195.174 79.7129 195.277 80.0101 195.277 80.4111C195.277 80.8122 195.174 81.113 194.966 81.3135C194.758 81.5068 194.511 81.6035 194.225 81.6035C193.924 81.6035 193.673 81.5068 193.473 81.3135C193.272 81.113 193.172 80.8122 193.172 80.4111ZM202.939 94.1182C203.255 94.1182 203.559 94.0967 203.853 94.0537C204.146 94.0036 204.379 93.9535 204.551 93.9033V95.2676C204.357 95.3607 204.071 95.4359 203.691 95.4932C203.319 95.5576 202.982 95.5898 202.682 95.5898C200.404 95.5898 199.266 94.3903 199.266 91.9912V84.9873H197.579V84.1279L199.266 83.3867L200.018 80.873H201.049V83.6016H204.465V84.9873H201.049V91.916C201.049 92.625 201.217 93.1693 201.554 93.5488C201.89 93.9284 202.352 94.1182 202.939 94.1182ZM208.947 95.375H207.164V78.6602H208.947V95.375ZM217.952 95.5898C216.212 95.5898 214.837 95.0599 213.827 94C212.825 92.9401 212.323 91.4684 212.323 89.585C212.323 87.6872 212.789 86.1797 213.72 85.0625C214.658 83.9453 215.915 83.3867 217.49 83.3867C218.965 83.3867 220.133 83.8737 220.992 84.8477C221.852 85.8145 222.281 87.0928 222.281 88.6826V89.8105H214.171C214.207 91.1927 214.554 92.2419 215.213 92.958C215.879 93.6742 216.813 94.0322 218.017 94.0322C219.284 94.0322 220.537 93.7673 221.776 93.2373V94.8271C221.146 95.0993 220.548 95.2926 219.982 95.4072C219.424 95.529 218.747 95.5898 217.952 95.5898ZM217.469 84.8799C216.523 84.8799 215.768 85.1878 215.202 85.8037C214.644 86.4196 214.314 87.2718 214.214 88.3604H220.369C220.369 87.236 220.118 86.3766 219.617 85.7822C219.116 85.1807 218.4 84.8799 217.469 84.8799Z" fill="#252A2E"/><path d="M310.45 82.925L307.95 80.425L301 87.325L294.05 80.425L291.55 82.925L301 92.325L310.45 82.925Z" fill="#252A2E"/><rect x="155.5" y="54.875" width="177" height="63" rx="3.5" stroke="#CBCDD6"/><rect width="276" height="88.75" transform="translate(106 131.75)" fill="#fff"/><rect x="157" y="146.125" width="174" height="60" rx="2" fill="#fff"/><path d="M185.993 185.125H184.167V171.042H179.193V169.42H190.967V171.042H185.993V185.125ZM195.105 185.125H193.322V173.352H195.105V185.125ZM193.172 170.161C193.172 169.753 193.272 169.456 193.473 169.27C193.673 169.076 193.924 168.979 194.225 168.979C194.511 168.979 194.758 169.076 194.966 169.27C195.174 169.463 195.277 169.76 195.277 170.161C195.277 170.562 195.174 170.863 194.966 171.063C194.758 171.257 194.511 171.354 194.225 171.354C193.924 171.354 193.673 171.257 193.473 171.063C193.272 170.863 193.172 170.562 193.172 170.161ZM202.939 183.868C203.255 183.868 203.559 183.847 203.853 183.804C204.146 183.754 204.379 183.703 204.551 183.653V185.018C204.357 185.111 204.071 185.186 203.691 185.243C203.319 185.308 202.982 185.34 202.682 185.34C200.404 185.34 199.266 184.14 199.266 181.741V174.737H197.579V173.878L199.266 173.137L200.018 170.623H201.049V173.352H204.465V174.737H201.049V181.666C201.049 182.375 201.217 182.919 201.554 183.299C201.89 183.678 202.352 183.868 202.939 183.868ZM208.947 185.125H207.164V168.41H208.947V185.125ZM217.952 185.34C216.212 185.34 214.837 184.81 213.827 183.75C212.825 182.69 212.323 181.218 212.323 179.335C212.323 177.437 212.789 175.93 213.72 174.812C214.658 173.695 215.915 173.137 217.49 173.137C218.965 173.137 220.133 173.624 220.992 174.598C221.852 175.564 222.281 176.843 222.281 178.433V179.561H214.171C214.207 180.943 214.554 181.992 215.213 182.708C215.879 183.424 216.813 183.782 218.017 183.782C219.284 183.782 220.537 183.517 221.776 182.987V184.577C221.146 184.849 220.548 185.043 219.982 185.157C219.424 185.279 218.747 185.34 217.952 185.34ZM217.469 174.63C216.523 174.63 215.768 174.938 215.202 175.554C214.644 176.17 214.314 177.022 214.214 178.11H220.369C220.369 176.986 220.118 176.127 219.617 175.532C219.116 174.931 218.4 174.63 217.469 174.63Z" fill="#252A2E"/><path d="M310.45 172.675L307.95 170.175L301 177.075L294.05 170.175L291.55 172.675L301 182.075L310.45 172.675Z" fill="#252A2E"/><rect x="157" y="146.125" width="174" height="60" rx="2" stroke="#0084FF" stroke-width="4"/><rect width="276" height="88.75" transform="translate(106 221.5)" fill="#fff"/><g opacity=".4"><rect x="155.5" y="234.375" width="177" height="63" rx="3.5" fill="#fff"/><path d="M185.993 274.875H184.167V260.792H179.193V259.17H190.967V260.792H185.993V274.875ZM195.105 274.875H193.322V263.102H195.105V274.875ZM193.172 259.911C193.172 259.503 193.272 259.206 193.473 259.02C193.673 258.826 193.924 258.729 194.225 258.729C194.511 258.729 194.758 258.826 194.966 259.02C195.174 259.213 195.277 259.51 195.277 259.911C195.277 260.312 195.174 260.613 194.966 260.813C194.758 261.007 194.511 261.104 194.225 261.104C193.924 261.104 193.673 261.007 193.473 260.813C193.272 260.613 193.172 260.312 193.172 259.911ZM202.939 273.618C203.255 273.618 203.559 273.597 203.853 273.554C204.146 273.504 204.379 273.453 204.551 273.403V274.768C204.357 274.861 204.071 274.936 203.691 274.993C203.319 275.058 202.982 275.09 202.682 275.09C200.404 275.09 199.266 273.89 199.266 271.491V264.487H197.579V263.628L199.266 262.887L200.018 260.373H201.049V263.102H204.465V264.487H201.049V271.416C201.049 272.125 201.217 272.669 201.554 273.049C201.89 273.428 202.352 273.618 202.939 273.618ZM208.947 274.875H207.164V258.16H208.947V274.875ZM217.952 275.09C216.212 275.09 214.837 274.56 213.827 273.5C212.825 272.44 212.323 270.968 212.323 269.085C212.323 267.187 212.789 265.68 213.72 264.562C214.658 263.445 215.915 262.887 217.49 262.887C218.965 262.887 220.133 263.374 220.992 264.348C221.852 265.314 222.281 266.593 222.281 268.183V269.311H214.171C214.207 270.693 214.554 271.742 215.213 272.458C215.879 273.174 216.813 273.532 218.017 273.532C219.284 273.532 220.537 273.267 221.776 272.737V274.327C221.146 274.599 220.548 274.793 219.982 274.907C219.424 275.029 218.747 275.09 217.952 275.09ZM217.469 264.38C216.523 264.38 215.768 264.688 215.202 265.304C214.644 265.92 214.314 266.772 214.214 267.86H220.369C220.369 266.736 220.118 265.877 219.617 265.282C219.116 264.681 218.4 264.38 217.469 264.38Z" fill="#252A2E"/><path d="M310.45 262.425L307.95 259.925L301 266.825L294.05 259.925L291.55 262.425L301 271.825L310.45 262.425Z" fill="#252A2E"/><rect x="155.5" y="234.375" width="177" height="63" rx="3.5" stroke="#CBCDD6"/></g><rect width="276" height="88.75" transform="translate(106 311.25)" fill="#fff"/><rect x="155.5" y="323.754" width="177" height="63.742" rx="3.5" fill="#fff"/><path d="M185.993 364.625H184.167V350.542H179.193V348.92H190.967V350.542H185.993V364.625ZM195.105 364.625H193.322V352.852H195.105V364.625ZM193.172 349.661C193.172 349.253 193.272 348.956 193.473 348.77C193.673 348.576 193.924 348.479 194.225 348.479C194.511 348.479 194.758 348.576 194.966 348.77C195.174 348.963 195.277 349.26 195.277 349.661C195.277 350.062 195.174 350.363 194.966 350.563C194.758 350.757 194.511 350.854 194.225 350.854C193.924 350.854 193.673 350.757 193.473 350.563C193.272 350.363 193.172 350.062 193.172 349.661ZM202.939 363.368C203.255 363.368 203.559 363.347 203.853 363.304C204.146 363.254 204.379 363.203 204.551 363.153V364.518C204.357 364.611 204.071 364.686 203.691 364.743C203.319 364.808 202.982 364.84 202.682 364.84C200.404 364.84 199.266 363.64 199.266 361.241V354.237H197.579V353.378L199.266 352.637L200.018 350.123H201.049V352.852H204.465V354.237H201.049V361.166C201.049 361.875 201.217 362.419 201.554 362.799C201.89 363.178 202.352 363.368 202.939 363.368ZM208.947 364.625H207.164V347.91H208.947V364.625ZM217.952 364.84C216.212 364.84 214.837 364.31 213.827 363.25C212.825 362.19 212.323 360.718 212.323 358.835C212.323 356.937 212.789 355.43 213.72 354.312C214.658 353.195 215.915 352.637 217.49 352.637C218.965 352.637 220.133 353.124 220.992 354.098C221.852 355.064 222.281 356.343 222.281 357.933V359.061H214.171C214.207 360.443 214.554 361.492 215.213 362.208C215.879 362.924 216.813 363.282 218.017 363.282C219.284 363.282 220.537 363.017 221.776 362.487V364.077C221.146 364.349 220.548 364.543 219.982 364.657C219.424 364.779 218.747 364.84 217.952 364.84ZM217.469 354.13C216.523 354.13 215.768 354.438 215.202 355.054C214.644 355.67 214.314 356.522 214.214 357.61H220.369C220.369 356.486 220.118 355.627 219.617 355.032C219.116 354.431 218.4 354.13 217.469 354.13Z" fill="#252A2E"/><path d="M291.064 358.927L293.524 361.466L300.581 354.675L307.423 361.683L309.961 359.222L300.659 349.676L291.064 358.927Z" fill="#252A2E"/><rect x="155.5" y="323.754" width="177" height="63.742" rx="3.5" stroke="#CBCDD6"/><rect width="243" height="40" transform="translate(383 1)" fill="#F1F1F6"/><path d="M394.258 26V16.0059H396.377V24.25H400.431V26H394.258ZM401.837 16.3818C401.837 15.7028 402.215 15.3633 402.972 15.3633C403.728 15.3633 404.106 15.7028 404.106 16.3818C404.106 16.7054 404.011 16.9583 403.819 17.1406C403.632 17.3184 403.35 17.4072 402.972 17.4072C402.215 17.4072 401.837 17.0654 401.837 16.3818ZM404.011 26H401.926V18.3574H404.011V26ZM413.176 26H411.091V21.5361C411.091 20.9847 410.993 20.5723 410.797 20.2988C410.601 20.0208 410.289 19.8818 409.86 19.8818C409.277 19.8818 408.855 20.0778 408.596 20.4697C408.336 20.8571 408.206 21.502 408.206 22.4043V26H406.121V18.3574H407.714L407.994 19.335H408.11C408.343 18.9658 408.662 18.6878 409.067 18.501C409.478 18.3096 409.942 18.2139 410.462 18.2139C411.351 18.2139 412.025 18.4554 412.485 18.9385C412.946 19.417 413.176 20.1097 413.176 21.0166V26ZM418.403 19.6973C417.961 19.6973 417.615 19.8385 417.364 20.1211C417.114 20.3991 416.97 20.7956 416.934 21.3105H419.859C419.85 20.7956 419.716 20.3991 419.456 20.1211C419.196 19.8385 418.845 19.6973 418.403 19.6973ZM418.697 26.1367C417.467 26.1367 416.505 25.7972 415.812 25.1182C415.12 24.4391 414.773 23.4775 414.773 22.2334C414.773 20.9528 415.092 19.9639 415.73 19.2666C416.373 18.5648 417.259 18.2139 418.39 18.2139C419.47 18.2139 420.31 18.5215 420.912 19.1367C421.514 19.752 421.814 20.6019 421.814 21.6865V22.6982H416.886C416.908 23.2907 417.084 23.7533 417.412 24.0859C417.74 24.4186 418.2 24.585 418.793 24.585C419.253 24.585 419.688 24.5371 420.099 24.4414C420.509 24.3457 420.937 24.193 421.384 23.9834V25.5967C421.019 25.779 420.63 25.9134 420.215 26C419.8 26.0911 419.294 26.1367 418.697 26.1367ZM427.143 16.0059H430.253C431.67 16.0059 432.698 16.2087 433.336 16.6143C433.978 17.0153 434.3 17.6556 434.3 18.5352C434.3 19.1322 434.158 19.6221 433.876 20.0049C433.598 20.3877 433.226 20.6178 432.762 20.6953V20.7637C433.395 20.9049 433.851 21.1693 434.129 21.5566C434.411 21.944 434.553 22.459 434.553 23.1016C434.553 24.013 434.222 24.724 433.561 25.2344C432.905 25.7448 432.012 26 430.882 26H427.143V16.0059ZM429.262 19.9639H430.492C431.066 19.9639 431.481 19.875 431.736 19.6973C431.996 19.5195 432.126 19.2256 432.126 18.8154C432.126 18.4326 431.985 18.1592 431.702 17.9951C431.424 17.8265 430.982 17.7422 430.376 17.7422H429.262V19.9639ZM429.262 21.6455V24.25H430.643C431.226 24.25 431.656 24.1383 431.934 23.915C432.212 23.6917 432.351 23.3499 432.351 22.8896C432.351 22.0602 431.759 21.6455 430.574 21.6455H429.262ZM439.466 19.6973C439.024 19.6973 438.677 19.8385 438.427 20.1211C438.176 20.3991 438.032 20.7956 437.996 21.3105H440.922C440.913 20.7956 440.778 20.3991 440.518 20.1211C440.259 19.8385 439.908 19.6973 439.466 19.6973ZM439.76 26.1367C438.529 26.1367 437.568 25.7972 436.875 25.1182C436.182 24.4391 435.836 23.4775 435.836 22.2334C435.836 20.9528 436.155 19.9639 436.793 19.2666C437.435 18.5648 438.322 18.2139 439.452 18.2139C440.532 18.2139 441.373 18.5215 441.975 19.1367C442.576 19.752 442.877 20.6019 442.877 21.6865V22.6982H437.948C437.971 23.2907 438.146 23.7533 438.475 24.0859C438.803 24.4186 439.263 24.585 439.855 24.585C440.316 24.585 440.751 24.5371 441.161 24.4414C441.571 24.3457 442 24.193 442.446 23.9834V25.5967C442.082 25.779 441.692 25.9134 441.277 26C440.863 26.0911 440.357 26.1367 439.76 26.1367ZM446.573 26H444.488V15.3633H446.573V26ZM450.345 22.165C450.345 22.9215 450.468 23.4935 450.714 23.8809C450.964 24.2682 451.37 24.4619 451.931 24.4619C452.487 24.4619 452.885 24.2705 453.127 23.8877C453.373 23.5003 453.496 22.9261 453.496 22.165C453.496 21.4085 453.373 20.8411 453.127 20.4629C452.881 20.0846 452.477 19.8955 451.917 19.8955C451.361 19.8955 450.96 20.0846 450.714 20.4629C450.468 20.8366 450.345 21.404 450.345 22.165ZM455.629 22.165C455.629 23.4092 455.301 24.3822 454.644 25.084C453.988 25.7858 453.074 26.1367 451.903 26.1367C451.169 26.1367 450.522 25.9772 449.962 25.6582C449.401 25.3346 448.971 24.8721 448.67 24.2705C448.369 23.6689 448.219 22.9671 448.219 22.165C448.219 20.9163 448.544 19.9456 449.196 19.2529C449.848 18.5602 450.764 18.2139 451.944 18.2139C452.678 18.2139 453.325 18.3734 453.886 18.6924C454.446 19.0114 454.877 19.4694 455.178 20.0664C455.478 20.6634 455.629 21.363 455.629 22.165ZM463.55 26L462.962 23.3271L462.169 19.9502H462.121L460.726 26H458.484L456.31 18.3574H458.389L459.27 21.7412C459.412 22.3473 459.555 23.1836 459.701 24.25H459.742C459.76 23.9036 459.84 23.3545 459.981 22.6025L460.091 22.0215L461.034 18.3574H463.331L464.226 22.0215C464.245 22.1217 464.272 22.2699 464.308 22.4658C464.349 22.6618 464.388 22.8714 464.425 23.0947C464.461 23.3135 464.493 23.5299 464.52 23.7441C464.552 23.9538 464.57 24.1224 464.575 24.25H464.616C464.657 23.9219 464.73 23.473 464.835 22.9033C464.94 22.3291 465.015 21.9417 465.06 21.7412L465.976 18.3574H468.02L465.819 26H463.55Z" fill="#50545B"/><rect width="243" height="88.75" transform="translate(383 42)" fill="#fff"/><path d="M446.493 95.375H444.667V81.292H439.693V79.6699H451.467V81.292H446.493V95.375ZM455.605 95.375H453.822V83.6016H455.605V95.375ZM453.672 80.4111C453.672 80.0029 453.772 79.7057 453.973 79.5195C454.173 79.3262 454.424 79.2295 454.725 79.2295C455.011 79.2295 455.258 79.3262 455.466 79.5195C455.674 79.7129 455.777 80.0101 455.777 80.4111C455.777 80.8122 455.674 81.113 455.466 81.3135C455.258 81.5068 455.011 81.6035 454.725 81.6035C454.424 81.6035 454.173 81.5068 453.973 81.3135C453.772 81.113 453.672 80.8122 453.672 80.4111ZM463.439 94.1182C463.755 94.1182 464.059 94.0967 464.353 94.0537C464.646 94.0036 464.879 93.9535 465.051 93.9033V95.2676C464.857 95.3607 464.571 95.4359 464.191 95.4932C463.819 95.5576 463.482 95.5898 463.182 95.5898C460.904 95.5898 459.766 94.3903 459.766 91.9912V84.9873H458.079V84.1279L459.766 83.3867L460.518 80.873H461.549V83.6016H464.965V84.9873H461.549V91.916C461.549 92.625 461.717 93.1693 462.054 93.5488C462.39 93.9284 462.852 94.1182 463.439 94.1182ZM469.447 95.375H467.664V78.6602H469.447V95.375ZM478.452 95.5898C476.712 95.5898 475.337 95.0599 474.327 94C473.325 92.9401 472.823 91.4684 472.823 89.585C472.823 87.6872 473.289 86.1797 474.22 85.0625C475.158 83.9453 476.415 83.3867 477.99 83.3867C479.465 83.3867 480.633 83.8737 481.492 84.8477C482.352 85.8145 482.781 87.0928 482.781 88.6826V89.8105H474.671C474.707 91.1927 475.054 92.2419 475.713 92.958C476.379 93.6742 477.313 94.0322 478.517 94.0322C479.784 94.0322 481.037 93.7673 482.276 93.2373V94.8271C481.646 95.0993 481.048 95.2926 480.482 95.4072C479.924 95.529 479.247 95.5898 478.452 95.5898ZM477.969 84.8799C477.023 84.8799 476.268 85.1878 475.702 85.8037C475.144 86.4196 474.814 87.2718 474.714 88.3604H480.869C480.869 87.236 480.618 86.3766 480.117 85.7822C479.616 85.1807 478.9 84.8799 477.969 84.8799Z" fill="#252A2E"/><path d="M570.95 82.925L568.45 80.425L561.5 87.325L554.55 80.425L552.05 82.925L561.5 92.325L570.95 82.925Z" fill="#252A2E"/><path d="M593.5 113.375H415.5V115.375H593.5V113.375Z" fill="#7D808D" mask="url(#path-24-inside-1_5641_93210)"/><rect width="243" height="88.75" transform="translate(383 131.75)" fill="#fff"/><path d="M446.493 185.125H444.667V171.042H439.693V169.42H451.467V171.042H446.493V185.125ZM455.605 185.125H453.822V173.352H455.605V185.125ZM453.672 170.161C453.672 169.753 453.772 169.456 453.973 169.27C454.173 169.076 454.424 168.979 454.725 168.979C455.011 168.979 455.258 169.076 455.466 169.27C455.674 169.463 455.777 169.76 455.777 170.161C455.777 170.562 455.674 170.863 455.466 171.063C455.258 171.257 455.011 171.354 454.725 171.354C454.424 171.354 454.173 171.257 453.973 171.063C453.772 170.863 453.672 170.562 453.672 170.161ZM463.439 183.868C463.755 183.868 464.059 183.847 464.353 183.804C464.646 183.754 464.879 183.703 465.051 183.653V185.018C464.857 185.111 464.571 185.186 464.191 185.243C463.819 185.308 463.482 185.34 463.182 185.34C460.904 185.34 459.766 184.14 459.766 181.741V174.737H458.079V173.878L459.766 173.137L460.518 170.623H461.549V173.352H464.965V174.737H461.549V181.666C461.549 182.375 461.717 182.919 462.054 183.299C462.39 183.678 462.852 183.868 463.439 183.868ZM469.447 185.125H467.664V168.41H469.447V185.125ZM478.452 185.34C476.712 185.34 475.337 184.81 474.327 183.75C473.325 182.69 472.823 181.218 472.823 179.335C472.823 177.437 473.289 175.93 474.22 174.812C475.158 173.695 476.415 173.137 477.99 173.137C479.465 173.137 480.633 173.624 481.492 174.598C482.352 175.564 482.781 176.843 482.781 178.433V179.561H474.671C474.707 180.943 475.054 181.992 475.713 182.708C476.379 183.424 477.313 183.782 478.517 183.782C479.784 183.782 481.037 183.517 482.276 182.987V184.577C481.646 184.849 481.048 185.043 480.482 185.157C479.924 185.279 479.247 185.34 478.452 185.34ZM477.969 174.63C477.023 174.63 476.268 174.938 475.702 175.554C475.144 176.17 474.814 177.022 474.714 178.11H480.869C480.869 176.986 480.618 176.127 480.117 175.532C479.616 174.931 478.9 174.63 477.969 174.63Z" fill="#252A2E"/><path d="M570.95 172.675L568.45 170.175L561.5 177.075L554.55 170.175L552.05 172.675L561.5 182.075L570.95 172.675Z" fill="#252A2E"/><rect x="417.5" y="150.125" width="174" height="52" rx="2" stroke="#0084FF" stroke-width="4"/><rect width="243" height="88.75" transform="translate(383 221.5)" fill="#fff"/><rect width="150" height="76" transform="translate(429.5 227.875)" fill="#fff"/><g opacity=".4"><path d="M446.493 274.875H444.667V260.792H439.693V259.17H451.467V260.792H446.493V274.875ZM455.605 274.875H453.822V263.102H455.605V274.875ZM453.672 259.911C453.672 259.503 453.772 259.206 453.973 259.02C454.173 258.826 454.424 258.729 454.725 258.729C455.011 258.729 455.258 258.826 455.466 259.02C455.674 259.213 455.777 259.51 455.777 259.911C455.777 260.312 455.674 260.613 455.466 260.813C455.258 261.007 455.011 261.104 454.725 261.104C454.424 261.104 454.173 261.007 453.973 260.813C453.772 260.613 453.672 260.312 453.672 259.911ZM463.439 273.618C463.755 273.618 464.059 273.597 464.353 273.554C464.646 273.504 464.879 273.453 465.051 273.403V274.768C464.857 274.861 464.571 274.936 464.191 274.993C463.819 275.058 463.482 275.09 463.182 275.09C460.904 275.09 459.766 273.89 459.766 271.491V264.487H458.079V263.628L459.766 262.887L460.518 260.373H461.549V263.102H464.965V264.487H461.549V271.416C461.549 272.125 461.717 272.669 462.054 273.049C462.39 273.428 462.852 273.618 463.439 273.618ZM469.447 274.875H467.664V258.16H469.447V274.875ZM478.452 275.09C476.712 275.09 475.337 274.56 474.327 273.5C473.325 272.44 472.823 270.968 472.823 269.085C472.823 267.187 473.289 265.68 474.22 264.562C475.158 263.445 476.415 262.887 477.99 262.887C479.465 262.887 480.633 263.374 481.492 264.348C482.352 265.314 482.781 266.593 482.781 268.183V269.311H474.671C474.707 270.693 475.054 271.742 475.713 272.458C476.379 273.174 477.313 273.532 478.517 273.532C479.784 273.532 481.037 273.267 482.276 272.737V274.327C481.646 274.599 481.048 274.793 480.482 274.907C479.924 275.029 479.247 275.09 478.452 275.09ZM477.969 264.38C477.023 264.38 476.268 264.688 475.702 265.304C475.144 265.92 474.814 266.772 474.714 267.86H480.869C480.869 266.736 480.618 265.877 480.117 265.282C479.616 264.681 478.9 264.38 477.969 264.38Z" fill="#252A2E"/><path d="M570.95 262.425L568.45 259.925L561.5 266.825L554.55 259.925L552.05 262.425L561.5 271.825L570.95 262.425Z" fill="#252A2E"/><path d="M593.5 292.875H415.5V294.875H593.5V292.875Z" fill="#7D808D" mask="url(#path-33-inside-2_5641_93210)"/></g><rect width="243" height="88.75" transform="translate(383 311.25)" fill="#fff"/><path d="M446.493 364.625H444.667V350.542H439.693V348.92H451.467V350.542H446.493V364.625ZM455.605 364.625H453.822V352.852H455.605V364.625ZM453.672 349.661C453.672 349.253 453.772 348.956 453.973 348.77C454.173 348.576 454.424 348.479 454.725 348.479C455.011 348.479 455.258 348.576 455.466 348.77C455.674 348.963 455.777 349.26 455.777 349.661C455.777 350.062 455.674 350.363 455.466 350.563C455.258 350.757 455.011 350.854 454.725 350.854C454.424 350.854 454.173 350.757 453.973 350.563C453.772 350.363 453.672 350.062 453.672 349.661ZM463.439 363.368C463.755 363.368 464.059 363.347 464.353 363.304C464.646 363.254 464.879 363.203 465.051 363.153V364.518C464.857 364.611 464.571 364.686 464.191 364.743C463.819 364.808 463.482 364.84 463.182 364.84C460.904 364.84 459.766 363.64 459.766 361.241V354.237H458.079V353.378L459.766 352.637L460.518 350.123H461.549V352.852H464.965V354.237H461.549V361.166C461.549 361.875 461.717 362.419 462.054 362.799C462.39 363.178 462.852 363.368 463.439 363.368ZM469.447 364.625H467.664V347.91H469.447V364.625ZM478.452 364.84C476.712 364.84 475.337 364.31 474.327 363.25C473.325 362.19 472.823 360.718 472.823 358.835C472.823 356.937 473.289 355.43 474.22 354.312C475.158 353.195 476.415 352.637 477.99 352.637C479.465 352.637 480.633 353.124 481.492 354.098C482.352 355.064 482.781 356.343 482.781 357.933V359.061H474.671C474.707 360.443 475.054 361.492 475.713 362.208C476.379 362.924 477.313 363.282 478.517 363.282C479.784 363.282 481.037 363.017 482.276 362.487V364.077C481.646 364.349 481.048 364.543 480.482 364.657C479.924 364.779 479.247 364.84 478.452 364.84ZM477.969 354.13C477.023 354.13 476.268 354.438 475.702 355.054C475.144 355.67 474.814 356.522 474.714 357.61H480.869C480.869 356.486 480.618 355.627 480.117 355.032C479.616 354.431 478.9 354.13 477.969 354.13Z" fill="#252A2E"/><path d="M551.626 358.927L554.087 361.466L561.143 354.675L567.985 361.683L570.524 359.222L561.221 349.676L551.626 358.927Z" fill="#252A2E"/><path d="M593.5 382.996H415.5V384.996H593.5V382.996Z" fill="#7D808D" mask="url(#path-38-inside-3_5641_93210)"/><rect width="289" height="40" transform="translate(627 1)" fill="#F1F1F6"/><path d="M638.258 26V16.0059H640.377V24.25H644.431V26H638.258ZM645.837 16.3818C645.837 15.7028 646.215 15.3633 646.972 15.3633C647.728 15.3633 648.106 15.7028 648.106 16.3818C648.106 16.7054 648.011 16.9583 647.819 17.1406C647.632 17.3184 647.35 17.4072 646.972 17.4072C646.215 17.4072 645.837 17.0654 645.837 16.3818ZM648.011 26H645.926V18.3574H648.011V26ZM657.176 26H655.091V21.5361C655.091 20.9847 654.993 20.5723 654.797 20.2988C654.601 20.0208 654.289 19.8818 653.86 19.8818C653.277 19.8818 652.855 20.0778 652.596 20.4697C652.336 20.8571 652.206 21.502 652.206 22.4043V26H650.121V18.3574H651.714L651.994 19.335H652.11C652.343 18.9658 652.662 18.6878 653.067 18.501C653.478 18.3096 653.942 18.2139 654.462 18.2139C655.351 18.2139 656.025 18.4554 656.485 18.9385C656.946 19.417 657.176 20.1097 657.176 21.0166V26ZM662.403 19.6973C661.961 19.6973 661.615 19.8385 661.364 20.1211C661.114 20.3991 660.97 20.7956 660.934 21.3105H663.859C663.85 20.7956 663.716 20.3991 663.456 20.1211C663.196 19.8385 662.845 19.6973 662.403 19.6973ZM662.697 26.1367C661.467 26.1367 660.505 25.7972 659.812 25.1182C659.12 24.4391 658.773 23.4775 658.773 22.2334C658.773 20.9528 659.092 19.9639 659.73 19.2666C660.373 18.5648 661.259 18.2139 662.39 18.2139C663.47 18.2139 664.31 18.5215 664.912 19.1367C665.514 19.752 665.814 20.6019 665.814 21.6865V22.6982H660.886C660.908 23.2907 661.084 23.7533 661.412 24.0859C661.74 24.4186 662.2 24.585 662.793 24.585C663.253 24.585 663.688 24.5371 664.099 24.4414C664.509 24.3457 664.937 24.193 665.384 23.9834V25.5967C665.019 25.779 664.63 25.9134 664.215 26C663.8 26.0911 663.294 26.1367 662.697 26.1367ZM677.261 26L676.536 23.6211H672.893L672.168 26H669.885L673.412 15.9648H676.003L679.544 26H677.261ZM676.03 21.8438C675.36 19.6882 674.982 18.4691 674.895 18.1865C674.813 17.904 674.754 17.6807 674.718 17.5166C674.567 18.0999 674.137 19.5423 673.426 21.8438H676.03ZM684.812 18.2139C685.715 18.2139 686.421 18.5671 686.932 19.2734C687.442 19.9753 687.697 20.9391 687.697 22.165C687.697 23.4274 687.433 24.4049 686.904 25.0977C686.38 25.7904 685.665 26.1367 684.758 26.1367C683.86 26.1367 683.156 25.8109 682.645 25.1592H682.502L682.153 26H680.56V15.3633H682.645V17.8379C682.645 18.1523 682.618 18.6559 682.563 19.3486H682.645C683.133 18.5921 683.855 18.2139 684.812 18.2139ZM684.142 19.8818C683.628 19.8818 683.252 20.0413 683.015 20.3604C682.778 20.6748 682.655 21.1966 682.645 21.9258V22.1514C682.645 22.9717 682.766 23.5596 683.008 23.915C683.254 24.2705 683.641 24.4482 684.17 24.4482C684.598 24.4482 684.938 24.2523 685.188 23.8604C685.444 23.4639 685.571 22.8896 685.571 22.1377C685.571 21.3857 685.444 20.8229 685.188 20.4492C684.933 20.071 684.585 19.8818 684.142 19.8818ZM690.997 22.165C690.997 22.9215 691.12 23.4935 691.366 23.8809C691.617 24.2682 692.022 24.4619 692.583 24.4619C693.139 24.4619 693.538 24.2705 693.779 23.8877C694.025 23.5003 694.148 22.9261 694.148 22.165C694.148 21.4085 694.025 20.8411 693.779 20.4629C693.533 20.0846 693.13 19.8955 692.569 19.8955C692.013 19.8955 691.612 20.0846 691.366 20.4629C691.12 20.8366 690.997 21.404 690.997 22.165ZM696.281 22.165C696.281 23.4092 695.953 24.3822 695.297 25.084C694.641 25.7858 693.727 26.1367 692.556 26.1367C691.822 26.1367 691.175 25.9772 690.614 25.6582C690.054 25.3346 689.623 24.8721 689.322 24.2705C689.021 23.6689 688.871 22.9671 688.871 22.165C688.871 20.9163 689.197 19.9456 689.849 19.2529C690.5 18.5602 691.416 18.2139 692.597 18.2139C693.33 18.2139 693.977 18.3734 694.538 18.6924C695.099 19.0114 695.529 19.4694 695.83 20.0664C696.131 20.6634 696.281 21.363 696.281 22.165ZM699.738 26L696.826 18.3574H699.007L700.483 22.7119C700.647 23.2633 700.75 23.7852 700.791 24.2773H700.832C700.855 23.8398 700.957 23.318 701.14 22.7119L702.609 18.3574H704.79L701.878 26H699.738ZM708.972 19.6973C708.529 19.6973 708.183 19.8385 707.932 20.1211C707.682 20.3991 707.538 20.7956 707.502 21.3105H710.428C710.418 20.7956 710.284 20.3991 710.024 20.1211C709.765 19.8385 709.414 19.6973 708.972 19.6973ZM709.265 26.1367C708.035 26.1367 707.073 25.7972 706.381 25.1182C705.688 24.4391 705.342 23.4775 705.342 22.2334C705.342 20.9528 705.661 19.9639 706.299 19.2666C706.941 18.5648 707.828 18.2139 708.958 18.2139C710.038 18.2139 710.879 18.5215 711.48 19.1367C712.082 19.752 712.383 20.6019 712.383 21.6865V22.6982H707.454C707.477 23.2907 707.652 23.7533 707.98 24.0859C708.308 24.4186 708.769 24.585 709.361 24.585C709.821 24.585 710.257 24.5371 710.667 24.4414C711.077 24.3457 711.505 24.193 711.952 23.9834V25.5967C711.587 25.779 711.198 25.9134 710.783 26C710.368 26.0911 709.862 26.1367 709.265 26.1367Z" fill="#50545B"/><rect width="289" height="88.75" transform="translate(627 42)" fill="#fff"/><path d="M717.993 95.375H716.167V81.292H711.193V79.6699H722.967V81.292H717.993V95.375ZM727.105 95.375H725.322V83.6016H727.105V95.375ZM725.172 80.4111C725.172 80.0029 725.272 79.7057 725.473 79.5195C725.673 79.3262 725.924 79.2295 726.225 79.2295C726.511 79.2295 726.758 79.3262 726.966 79.5195C727.174 79.7129 727.277 80.0101 727.277 80.4111C727.277 80.8122 727.174 81.113 726.966 81.3135C726.758 81.5068 726.511 81.6035 726.225 81.6035C725.924 81.6035 725.673 81.5068 725.473 81.3135C725.272 81.113 725.172 80.8122 725.172 80.4111ZM734.939 94.1182C735.255 94.1182 735.559 94.0967 735.853 94.0537C736.146 94.0036 736.379 93.9535 736.551 93.9033V95.2676C736.357 95.3607 736.071 95.4359 735.691 95.4932C735.319 95.5576 734.982 95.5898 734.682 95.5898C732.404 95.5898 731.266 94.3903 731.266 91.9912V84.9873H729.579V84.1279L731.266 83.3867L732.018 80.873H733.049V83.6016H736.465V84.9873H733.049V91.916C733.049 92.625 733.217 93.1693 733.554 93.5488C733.89 93.9284 734.352 94.1182 734.939 94.1182ZM740.947 95.375H739.164V78.6602H740.947V95.375ZM749.952 95.5898C748.212 95.5898 746.837 95.0599 745.827 94C744.825 92.9401 744.323 91.4684 744.323 89.585C744.323 87.6872 744.789 86.1797 745.72 85.0625C746.658 83.9453 747.915 83.3867 749.49 83.3867C750.965 83.3867 752.133 83.8737 752.992 84.8477C753.852 85.8145 754.281 87.0928 754.281 88.6826V89.8105H746.171C746.207 91.1927 746.554 92.2419 747.213 92.958C747.879 93.6742 748.813 94.0322 750.017 94.0322C751.284 94.0322 752.537 93.7673 753.776 93.2373V94.8271C753.146 95.0993 752.548 95.2926 751.982 95.4072C751.424 95.529 750.747 95.5898 749.952 95.5898ZM749.469 84.8799C748.523 84.8799 747.768 85.1878 747.202 85.8037C746.644 86.4196 746.314 87.2718 746.214 88.3604H752.369C752.369 87.236 752.118 86.3766 751.617 85.7822C751.116 85.1807 750.4 84.8799 749.469 84.8799Z" fill="#252A2E"/><path d="M833.45 82.925L830.95 80.425L824 87.325L817.05 80.425L814.55 82.925L824 92.325L833.45 82.925Z" fill="#252A2E"/><path d="M687 59.375H856V57.375H687V59.375Z" fill="#7D808D" mask="url(#path-44-inside-4_5641_93210)"/><rect width="289" height="88.75" transform="translate(627 131.75)" fill="#fff"/><path d="M717.993 185.125H716.167V171.042H711.193V169.42H722.967V171.042H717.993V185.125ZM727.105 185.125H725.322V173.352H727.105V185.125ZM725.172 170.161C725.172 169.753 725.272 169.456 725.473 169.27C725.673 169.076 725.924 168.979 726.225 168.979C726.511 168.979 726.758 169.076 726.966 169.27C727.174 169.463 727.277 169.76 727.277 170.161C727.277 170.562 727.174 170.863 726.966 171.063C726.758 171.257 726.511 171.354 726.225 171.354C725.924 171.354 725.673 171.257 725.473 171.063C725.272 170.863 725.172 170.562 725.172 170.161ZM734.939 183.868C735.255 183.868 735.559 183.847 735.853 183.804C736.146 183.754 736.379 183.703 736.551 183.653V185.018C736.357 185.111 736.071 185.186 735.691 185.243C735.319 185.308 734.982 185.34 734.682 185.34C732.404 185.34 731.266 184.14 731.266 181.741V174.737H729.579V173.878L731.266 173.137L732.018 170.623H733.049V173.352H736.465V174.737H733.049V181.666C733.049 182.375 733.217 182.919 733.554 183.299C733.89 183.678 734.352 183.868 734.939 183.868ZM740.947 185.125H739.164V168.41H740.947V185.125ZM749.952 185.34C748.212 185.34 746.837 184.81 745.827 183.75C744.825 182.69 744.323 181.218 744.323 179.335C744.323 177.437 744.789 175.93 745.72 174.812C746.658 173.695 747.915 173.137 749.49 173.137C750.965 173.137 752.133 173.624 752.992 174.598C753.852 175.564 754.281 176.843 754.281 178.433V179.561H746.171C746.207 180.943 746.554 181.992 747.213 182.708C747.879 183.424 748.813 183.782 750.017 183.782C751.284 183.782 752.537 183.517 753.776 182.987V184.577C753.146 184.849 752.548 185.043 751.982 185.157C751.424 185.279 750.747 185.34 749.952 185.34ZM749.469 174.63C748.523 174.63 747.768 174.938 747.202 175.554C746.644 176.17 746.314 177.022 746.214 178.11H752.369C752.369 176.986 752.118 176.127 751.617 175.532C751.116 174.931 750.4 174.63 749.469 174.63Z" fill="#252A2E"/><path d="M833.45 172.675L830.95 170.175L824 177.075L817.05 170.175L814.55 172.675L824 182.075L833.45 172.675Z" fill="#252A2E"/><rect x="689" y="150.125" width="165" height="52" rx="2" stroke="#0084FF" stroke-width="4"/><rect width="289" height="88.75" transform="translate(627 221.5)" fill="#fff"/><g opacity=".4"><path d="M717.993 274.875H716.167V260.792H711.193V259.17H722.967V260.792H717.993V274.875ZM727.105 274.875H725.322V263.102H727.105V274.875ZM725.172 259.911C725.172 259.503 725.272 259.206 725.473 259.02C725.673 258.826 725.924 258.729 726.225 258.729C726.511 258.729 726.758 258.826 726.966 259.02C727.174 259.213 727.277 259.51 727.277 259.911C727.277 260.312 727.174 260.613 726.966 260.813C726.758 261.007 726.511 261.104 726.225 261.104C725.924 261.104 725.673 261.007 725.473 260.813C725.272 260.613 725.172 260.312 725.172 259.911ZM734.939 273.618C735.255 273.618 735.559 273.597 735.853 273.554C736.146 273.504 736.379 273.453 736.551 273.403V274.768C736.357 274.861 736.071 274.936 735.691 274.993C735.319 275.058 734.982 275.09 734.682 275.09C732.404 275.09 731.266 273.89 731.266 271.491V264.487H729.579V263.628L731.266 262.887L732.018 260.373H733.049V263.102H736.465V264.487H733.049V271.416C733.049 272.125 733.217 272.669 733.554 273.049C733.89 273.428 734.352 273.618 734.939 273.618ZM740.947 274.875H739.164V258.16H740.947V274.875ZM749.952 275.09C748.212 275.09 746.837 274.56 745.827 273.5C744.825 272.44 744.323 270.968 744.323 269.085C744.323 267.187 744.789 265.68 745.72 264.562C746.658 263.445 747.915 262.887 749.49 262.887C750.965 262.887 752.133 263.374 752.992 264.348C753.852 265.314 754.281 266.593 754.281 268.183V269.311H746.171C746.207 270.693 746.554 271.742 747.213 272.458C747.879 273.174 748.813 273.532 750.017 273.532C751.284 273.532 752.537 273.267 753.776 272.737V274.327C753.146 274.599 752.548 274.793 751.982 274.907C751.424 275.029 750.747 275.09 749.952 275.09ZM749.469 264.38C748.523 264.38 747.768 264.688 747.202 265.304C746.644 265.92 746.314 266.772 746.214 267.86H752.369C752.369 266.736 752.118 265.877 751.617 265.282C751.116 264.681 750.4 264.38 749.469 264.38Z" fill="#252A2E"/><path d="M833.45 262.425L830.95 259.925L824 266.825L817.05 259.925L814.55 262.425L824 271.825L833.45 262.425Z" fill="#252A2E"/><path d="M687 238.875H856V236.875H687V238.875Z" fill="#7D808D" mask="url(#path-53-inside-5_5641_93210)"/></g><rect width="289" height="88.75" transform="translate(627 311.25)" fill="#fff"/><path d="M713.493 364.625H711.667V350.542H706.693V348.92H718.467V350.542H713.493V364.625ZM722.605 364.625H720.822V352.852H722.605V364.625ZM720.672 349.661C720.672 349.253 720.772 348.956 720.973 348.77C721.173 348.576 721.424 348.479 721.725 348.479C722.011 348.479 722.258 348.576 722.466 348.77C722.674 348.963 722.777 349.26 722.777 349.661C722.777 350.062 722.674 350.363 722.466 350.563C722.258 350.757 722.011 350.854 721.725 350.854C721.424 350.854 721.173 350.757 720.973 350.563C720.772 350.363 720.672 350.062 720.672 349.661ZM730.439 363.368C730.755 363.368 731.059 363.347 731.353 363.304C731.646 363.254 731.879 363.203 732.051 363.153V364.518C731.857 364.611 731.571 364.686 731.191 364.743C730.819 364.808 730.482 364.84 730.182 364.84C727.904 364.84 726.766 363.64 726.766 361.241V354.237H725.079V353.378L726.766 352.637L727.518 350.123H728.549V352.852H731.965V354.237H728.549V361.166C728.549 361.875 728.717 362.419 729.054 362.799C729.39 363.178 729.852 363.368 730.439 363.368ZM736.447 364.625H734.664V347.91H736.447V364.625ZM745.452 364.84C743.712 364.84 742.337 364.31 741.327 363.25C740.325 362.19 739.823 360.718 739.823 358.835C739.823 356.937 740.289 355.43 741.22 354.312C742.158 353.195 743.415 352.637 744.99 352.637C746.465 352.637 747.633 353.124 748.492 354.098C749.352 355.064 749.781 356.343 749.781 357.933V359.061H741.671C741.707 360.443 742.054 361.492 742.713 362.208C743.379 362.924 744.313 363.282 745.517 363.282C746.784 363.282 748.037 363.017 749.276 362.487V364.077C748.646 364.349 748.048 364.543 747.482 364.657C746.924 364.779 746.247 364.84 745.452 364.84ZM744.969 354.13C744.023 354.13 743.268 354.438 742.702 355.054C742.144 355.67 741.814 356.522 741.714 357.61H747.869C747.869 356.486 747.618 355.627 747.117 355.032C746.616 354.431 745.9 354.13 744.969 354.13Z" fill="#252A2E"/><path d="M818.626 358.927L821.087 361.466L828.144 354.675L834.985 361.683L837.524 359.222L828.222 349.676L818.626 358.927Z" fill="#252A2E"/><path d="M682.5 328.254H860.5V326.254H682.5V328.254Z" fill="#7D808D" mask="url(#path-58-inside-6_5641_93210)"/></svg>