<svg width="628" height="83" fill="none" xmlns="http://www.w3.org/2000/svg"><path d="M16.157 43.808c0 .902-.326 1.613-.977 2.133-.647.52-1.55.779-2.707.779-1.067 0-2.01-.2-2.83-.602V44.15c.674.3 1.244.512 1.709.635.469.123.897.185 1.285.185.465 0 .82-.089 1.066-.267.25-.177.376-.442.376-.793a.86.86 0 00-.164-.52 1.788 1.788 0 00-.485-.444c-.21-.14-.64-.366-1.292-.676-.611-.287-1.069-.563-1.374-.827a3.104 3.104 0 01-.732-.923c-.182-.351-.273-.761-.273-1.23 0-.885.298-1.58.895-2.086.602-.505 1.431-.758 2.489-.758.52 0 1.014.061 1.483.184.474.123.968.296 1.483.52l-.683 1.647a9.92 9.92 0 00-1.326-.458 4.215 4.215 0 00-1.026-.13c-.4 0-.708.094-.923.28a.925.925 0 00-.32.732c0 .187.042.35.129.492a1.5 1.5 0 00.41.404c.192.127.64.36 1.347.697.934.446 1.574.895 1.92 1.346.347.447.52.996.52 1.648zm4.783 1.25c.365 0 .802-.079 1.313-.238v1.551c-.52.233-1.158.349-1.914.349-.834 0-1.442-.21-1.825-.629-.379-.424-.568-1.057-.568-1.9v-3.685h-.998v-.882l1.149-.697.601-1.613h1.333v1.627h2.14v1.565h-2.14v3.685c0 .296.082.515.246.656.169.141.39.212.663.212zm4.442-2.31c0 .757.123 1.329.369 1.716.25.388.656.581 1.217.581.556 0 .954-.191 1.196-.574.246-.387.37-.962.37-1.723 0-.756-.124-1.324-.37-1.702-.246-.378-.65-.567-1.21-.567-.556 0-.957.189-1.203.567-.246.374-.37.941-.37 1.702zm5.284 0c0 1.244-.328 2.217-.984 2.92-.657.701-1.57 1.052-2.742 1.052-.733 0-1.38-.16-1.941-.478a3.228 3.228 0 01-1.292-1.388c-.3-.602-.451-1.304-.451-2.106 0-1.248.326-2.22.977-2.912.652-.692 1.568-1.039 2.748-1.039.734 0 1.381.16 1.942.479.56.319.991.777 1.292 1.374.3.597.451 1.296.451 2.098zm3.642-.321l.909-1.162 2.14-2.324h2.351l-3.035 3.315 3.22 4.327h-2.407l-2.2-3.096-.896.717v2.38h-2.085V35.945h2.085v4.745l-.11 1.736h.028zm9.76-2.146c-.443 0-.79.14-1.04.423-.25.278-.394.675-.43 1.19h2.925c-.009-.515-.143-.912-.403-1.19-.26-.282-.61-.423-1.053-.423zm.293 6.439c-1.23 0-2.192-.34-2.884-1.019-.693-.679-1.04-1.64-1.04-2.884 0-1.28.32-2.27.958-2.967.642-.702 1.528-1.053 2.659-1.053 1.08 0 1.92.308 2.522.923.602.615.902 1.465.902 2.55v1.011H42.55c.023.593.198 1.056.526 1.388.328.333.788.5 1.381.5.46 0 .895-.049 1.306-.144.41-.096.838-.249 1.285-.458v1.613a4.79 4.79 0 01-1.17.403c-.414.091-.92.137-1.517.137zm4.435-1.114c0-.383.102-.672.307-.869.206-.195.504-.293.896-.293.378 0 .67.1.875.3.21.2.314.488.314.862 0 .36-.104.645-.314.854-.21.205-.501.308-.875.308-.383 0-.68-.1-.889-.301-.21-.205-.314-.492-.314-.861zm0-5.647c0-.383.102-.672.307-.868.206-.196.504-.294.896-.294.378 0 .67.1.875.3.21.201.314.489.314.862 0 .37-.107.656-.32.862-.21.2-.5.3-.87.3-.382 0-.678-.1-.888-.3-.21-.201-.314-.488-.314-.862zm11.549 6.624h-1.108V39.46c0-.592.018-1.153.055-1.681a7.215 7.215 0 01-.321.3c-.119.105-.661.55-1.627 1.333l-.602-.779 2.646-2.044h.957v9.994zm9.342-1.005h-.061c-.524.761-1.308 1.142-2.352 1.142-.98 0-1.743-.335-2.29-1.005-.542-.67-.813-1.622-.813-2.857s.273-2.195.82-2.878c.547-.684 1.308-1.026 2.283-1.026 1.017 0 1.796.37 2.338 1.108h.089l-.048-.54-.027-.527v-3.048h1.135v10.636h-.923l-.15-1.005zm-2.27.192c.776 0 1.336-.21 1.683-.63.35-.423.526-1.104.526-2.043v-.24c0-1.061-.178-1.818-.533-2.269-.351-.456-.914-.684-1.689-.684-.665 0-1.176.26-1.531.78-.351.515-.526 1.244-.526 2.187 0 .957.175 1.68.526 2.167.35.488.866.732 1.545.732zm9.159.95c-.488 0-.934-.089-1.34-.267a2.546 2.546 0 01-1.011-.834h-.083c.055.438.083.853.083 1.245v3.083H73.09V39.09h.923l.157 1.026h.055c.291-.41.63-.707 1.018-.89.387-.181.832-.273 1.333-.273.994 0 1.76.34 2.297 1.019.542.679.813 1.631.813 2.857 0 1.23-.275 2.188-.827 2.871-.547.68-1.308 1.019-2.283 1.019zm-.164-6.802c-.766 0-1.32.212-1.661.636-.342.424-.517 1.098-.526 2.023v.253c0 1.053.175 1.807.526 2.263.35.451.914.677 1.688.677.647 0 1.153-.262 1.518-.786.369-.524.554-1.247.554-2.167 0-.935-.185-1.65-.554-2.147-.365-.501-.88-.752-1.545-.752z" fill="#000"/><path d="M1 67.583v-52h140.678V25.68L149 33.253l-7.322 7.068v27.262H1z" stroke="#CCC"/><path d="M168.31 46.583h-6.57v-.977l2.632-2.646c.802-.811 1.331-1.39 1.586-1.736.255-.346.447-.684.574-1.012a2.89 2.89 0 00.192-1.06c0-.533-.162-.954-.486-1.264-.323-.314-.772-.472-1.346-.472-.415 0-.809.069-1.183.205-.369.137-.782.385-1.237.745l-.602-.772c.921-.766 1.923-1.148 3.008-1.148.939 0 1.675.241 2.208.724.533.479.8 1.123.8 1.935 0 .633-.178 1.26-.533 1.88-.356.62-1.021 1.403-1.997 2.351l-2.187 2.14v.055h5.141v1.052zm8.399-2.297h-1.483v2.297h-1.087v-2.297h-4.861v-.99l4.744-6.762h1.204v6.72h1.483v1.032zm-2.57-1.032v-3.322c0-.652.022-1.388.068-2.208h-.055c-.218.437-.423.8-.615 1.087l-3.124 4.443h3.726zm9.076 2.324h-.062c-.524.761-1.308 1.142-2.351 1.142-.98 0-1.743-.335-2.29-1.005-.543-.67-.814-1.622-.814-2.857s.274-2.195.821-2.878c.546-.684 1.308-1.026 2.283-1.026 1.016 0 1.795.37 2.338 1.108h.089l-.048-.54-.028-.527v-3.048h1.135v10.636h-.923l-.15-1.005zm-2.27.192c.775 0 1.336-.21 1.682-.63.351-.423.526-1.104.526-2.043v-.24c0-1.061-.177-1.818-.533-2.269-.351-.456-.914-.684-1.688-.684-.666 0-1.176.26-1.532.78-.351.515-.526 1.244-.526 2.187 0 .957.175 1.68.526 2.167.351.488.866.732 1.545.732zm9.159.95a3.3 3.3 0 01-1.34-.267 2.545 2.545 0 01-1.012-.834h-.082c.055.438.082.853.082 1.245v3.083h-1.135V39.09h.923l.157 1.026h.055c.292-.41.631-.707 1.019-.89.387-.181.831-.273 1.333-.273.993 0 1.759.34 2.296 1.019.543.679.814 1.631.814 2.857 0 1.23-.276 2.188-.827 2.871-.547.68-1.308 1.019-2.283 1.019zm-.165-6.802c-.765 0-1.319.212-1.661.636-.341.424-.517 1.098-.526 2.023v.253c0 1.053.175 1.807.526 2.263.351.451.914.677 1.689.677.647 0 1.153-.262 1.517-.786.37-.524.554-1.247.554-2.167 0-.935-.184-1.65-.554-2.147-.364-.501-.879-.752-1.545-.752z" fill="#E8178A"/><path d="M234.993 36.583h-1.826V22.5h-4.974v-1.622h11.774V22.5h-4.974v14.083zm9.112 0h-1.783V24.81h1.783v11.773zm-1.933-14.964c0-.408.1-.705.301-.891.2-.194.451-.29.752-.29.286 0 .533.096.741.29.208.193.311.49.311.891s-.103.702-.311.903c-.208.193-.455.29-.741.29-.301 0-.552-.097-.752-.29-.201-.2-.301-.502-.301-.903zm9.767 13.707c.316 0 .62-.021.914-.064.293-.05.526-.1.698-.15v1.364c-.194.093-.48.168-.86.225a5.974 5.974 0 01-1.009.097c-2.278 0-3.416-1.2-3.416-3.599v-7.004h-1.687v-.859l1.687-.741.752-2.514h1.031v2.729h3.416v1.385h-3.416v6.93c0 .708.168 1.252.505 1.632.336.38.798.57 1.385.57zm6.008 1.257h-1.783V19.868h1.783v16.715zm9.005.215c-1.74 0-3.115-.53-4.125-1.59-1.002-1.06-1.504-2.531-1.504-4.415 0-1.898.466-3.405 1.397-4.522.938-1.118 2.195-1.676 3.77-1.676 1.475 0 2.643.487 3.502 1.46.86.968 1.289 2.246 1.289 3.836v1.128h-8.11c.036 1.382.383 2.431 1.042 3.147.666.716 1.6 1.074 2.804 1.074 1.267 0 2.52-.265 3.759-.795v1.59a9.11 9.11 0 01-1.794.58c-.558.122-1.235.183-2.03.183zm-.483-10.71c-.946 0-1.701.308-2.267.924-.558.616-.888 1.468-.988 2.556h6.155c0-1.124-.251-1.983-.752-2.578-.501-.601-1.217-.902-2.148-.902z" fill="#252A2E"/><path d="M241.359 56.308c0 2.356-.641 4.16-1.923 5.41-1.276 1.243-3.116 1.865-5.518 1.865h-3.955V49.306h4.375c2.22 0 3.945.615 5.176 1.846 1.23 1.23 1.845 2.949 1.845 5.156zm-1.757.058c0-1.862-.469-3.265-1.407-4.209-.931-.944-2.317-1.416-4.16-1.416h-2.412v11.407h2.022c1.979 0 3.466-.485 4.462-1.456.997-.976 1.495-2.418 1.495-4.326zm9.378 7.412c-1.582 0-2.832-.481-3.75-1.445-.911-.963-1.367-2.301-1.367-4.014 0-1.725.423-3.095 1.269-4.11.853-1.017 1.996-1.524 3.428-1.524 1.341 0 2.402.442 3.184 1.328.781.879 1.172 2.04 1.172 3.486v1.026h-7.373c.032 1.256.348 2.21.947 2.86.605.652 1.455.977 2.549.977 1.152 0 2.291-.24 3.418-.722v1.445a8.292 8.292 0 01-1.631.527c-.508.111-1.123.166-1.846.166zm-.439-9.736c-.86 0-1.547.28-2.061.84-.508.56-.807 1.335-.898 2.324h5.595c0-1.022-.228-1.803-.683-2.344-.456-.546-1.107-.82-1.953-.82zm14.202 6.621c0 .996-.371 1.765-1.113 2.305-.742.54-1.784.81-3.125.81-1.419 0-2.526-.224-3.32-.673V61.6c.514.26 1.064.465 1.65.615a6.97 6.97 0 001.709.225c.846 0 1.498-.134 1.953-.4.456-.274.684-.688.684-1.241 0-.417-.182-.772-.547-1.064-.358-.3-1.061-.652-2.109-1.055-.996-.371-1.706-.694-2.129-.967-.417-.28-.729-.596-.938-.947-.202-.352-.303-.772-.303-1.26 0-.872.355-1.56 1.065-2.06.71-.508 1.683-.762 2.92-.762 1.152 0 2.278.234 3.379.703l-.576 1.318c-1.075-.443-2.048-.664-2.92-.664-.769 0-1.348.12-1.739.361-.39.241-.586.573-.586.997 0 .286.072.53.215.732.15.202.388.394.713.576.326.182.951.446 1.875.791 1.27.462 2.126.928 2.569 1.397.449.468.673 1.058.673 1.767zm7.074 3.115c-1.549 0-2.75-.475-3.603-1.425-.847-.957-1.27-2.308-1.27-4.053 0-1.79.43-3.174 1.289-4.15.866-.977 2.097-1.465 3.692-1.465.514 0 1.028.055 1.543.166.514.11.918.24 1.211.39l-.499 1.377a7.281 7.281 0 00-1.171-.351 5.08 5.08 0 00-1.123-.147c-2.175 0-3.262 1.387-3.262 4.16 0 1.316.264 2.325.791 3.028.534.703 1.321 1.054 2.363 1.054.892 0 1.807-.192 2.744-.576v1.436c-.716.37-1.618.556-2.705.556zm10.287-11.093c.475 0 .902.039 1.279.117l-.224 1.504a5.527 5.527 0 00-1.172-.147c-.866 0-1.608.352-2.227 1.055-.612.703-.918 1.579-.918 2.627v5.742h-1.621V52.88h1.338l.186 1.982h.078c.397-.696.875-1.233 1.435-1.61a3.232 3.232 0 011.846-.567zm5.052 10.898h-1.621V52.88h1.621v10.703zm-1.758-13.603c0-.371.092-.642.274-.81a.944.944 0 01.683-.265c.261 0 .485.088.674.264.189.176.283.446.283.81 0 .365-.094.639-.283.82a.955.955 0 01-.674.265.944.944 0 01-.683-.264c-.182-.182-.274-.456-.274-.82zm10.326 13.798a4.721 4.721 0 01-1.914-.38 3.632 3.632 0 01-1.445-1.192h-.117c.078.625.117 1.218.117 1.777v4.405h-1.621V52.88h1.318l.225 1.465h.078c.417-.586.902-1.01 1.455-1.27s1.188-.39 1.904-.39c1.419 0 2.513.485 3.281 1.455.775.97 1.163 2.33 1.163 4.082 0 1.758-.394 3.125-1.182 4.101-.781.97-1.869 1.455-3.262 1.455zm-.234-9.716c-1.094 0-1.885.302-2.373.908-.488.605-.739 1.569-.752 2.89v.362c0 1.504.25 2.581.752 3.232.501.645 1.305.967 2.412.967.924 0 1.647-.374 2.168-1.123.527-.749.791-1.78.791-3.096 0-1.334-.264-2.356-.791-3.066-.521-.716-1.257-1.074-2.207-1.074zm11.126 8.379c.287 0 .564-.02.83-.059.267-.046.479-.091.635-.137v1.24c-.176.085-.436.154-.781.206a5.448 5.448 0 01-.918.087c-2.07 0-3.105-1.09-3.105-3.271V54.14h-1.534v-.782l1.534-.673.683-2.285h.938v2.48h3.105v1.26h-3.105v6.299c0 .644.153 1.139.459 1.484.306.345.726.518 1.259.518zm5.385 1.142h-1.621V52.88h1.621v10.703zm-1.758-13.603c0-.371.091-.642.273-.81a.948.948 0 01.684-.265c.26 0 .485.088.674.264.189.176.283.446.283.81 0 .365-.094.639-.283.82a.957.957 0 01-.674.265.948.948 0 01-.684-.264c-.182-.182-.273-.456-.273-.82zm14.584 8.242c0 1.745-.44 3.108-1.319 4.092-.879.976-2.093 1.464-3.642 1.464-.957 0-1.807-.224-2.549-.673-.742-.45-1.315-1.094-1.719-1.934-.404-.84-.605-1.823-.605-2.95 0-1.744.436-3.101 1.308-4.071.873-.977 2.084-1.465 3.633-1.465 1.497 0 2.686.498 3.564 1.494.886.996 1.329 2.344 1.329 4.043zm-8.155 0c0 1.367.274 2.409.821 3.125.546.716 1.35 1.074 2.412 1.074 1.061 0 1.865-.355 2.412-1.064.553-.717.83-1.761.83-3.135 0-1.36-.277-2.393-.83-3.096-.547-.71-1.358-1.064-2.432-1.064-1.061 0-1.862.348-2.402 1.045-.541.696-.811 1.735-.811 3.115zm18.48 5.361V56.66c0-.872-.198-1.523-.595-1.953-.397-.43-1.019-.644-1.866-.644-1.119 0-1.94.302-2.461.908-.52.605-.781 1.605-.781 2.998v5.615h-1.621V52.88h1.318l.264 1.465h.078a3.28 3.28 0 011.397-1.22c.599-.294 1.266-.44 2.002-.44 1.289 0 2.259.312 2.91.937.651.619.976 1.611.976 2.979v6.982h-1.621z" fill="#7D808D"/><path d="M503.45 38.133l-2.5-2.5-6.95 6.9-6.95-6.9-2.5 2.5 9.45 9.4 9.45-9.4z" fill="#252A2E"/><path d="M204 6.556h322-322zM526 77.61H204v-2h322v2zm-322-1V6.556 76.61zM526 6.556V76.61 6.556z" fill="#7D808D" mask="url(#prefix__path-4-inside-1_7211_84701)"/><path d="M204 6.556h21v70h-21v-70zM519 6.556h7v70h-7v-70z" fill="#EB3499" fill-opacity=".6"/><path d="M547.107 36.952c.911 0 1.634.212 2.167.635.533.424.8 1.01.8 1.757 0 .492-.153.941-.458 1.347-.306.405-.793.774-1.463 1.107.811.388 1.387.795 1.729 1.224.342.424.513.916.513 1.476 0 .83-.289 1.493-.868 1.99-.579.492-1.372.738-2.379.738-1.067 0-1.887-.233-2.461-.697-.574-.47-.861-1.133-.861-1.99 0-1.144.697-2.034 2.091-2.672-.628-.356-1.08-.739-1.353-1.149a2.462 2.462 0 01-.41-1.388c0-.724.266-1.3.8-1.729.537-.433 1.255-.65 2.153-.65zm-2.16 7.615c0 .547.189.973.567 1.278.383.305.918.458 1.607.458.679 0 1.207-.16 1.585-.478.379-.32.568-.757.568-1.313 0-.442-.178-.834-.533-1.176-.356-.346-.976-.681-1.86-1.005-.679.292-1.171.616-1.476.971-.306.351-.458.773-.458 1.265zm2.146-6.693c-.569 0-1.016.137-1.34.41-.323.274-.485.639-.485 1.094 0 .42.134.78.403 1.08.269.301.766.602 1.491.903.651-.274 1.112-.568 1.38-.882.274-.315.411-.681.411-1.1 0-.461-.167-.826-.499-1.094-.329-.274-.782-.41-1.361-.41zm10.252 8.21h-.061c-.524.761-1.308 1.142-2.352 1.142-.98 0-1.743-.335-2.29-1.005-.542-.67-.813-1.622-.813-2.857s.273-2.195.82-2.878c.547-.684 1.308-1.026 2.283-1.026 1.016 0 1.796.37 2.338 1.108h.089l-.048-.54-.027-.527v-3.048h1.134v10.636h-.922l-.151-1.005zm-2.269.192c.774 0 1.335-.21 1.681-.63.351-.423.527-1.104.527-2.043v-.24c0-1.061-.178-1.818-.534-2.269-.35-.456-.913-.684-1.688-.684-.665 0-1.176.26-1.531.78-.351.515-.527 1.244-.527 2.187 0 .957.176 1.68.527 2.167.351.488.866.732 1.545.732zm9.158.95c-.488 0-.934-.089-1.34-.267a2.551 2.551 0 01-1.012-.834h-.082c.055.438.082.853.082 1.245v3.083h-1.135V39.596h.923l.158 1.025h.054c.292-.41.631-.706 1.019-.888.387-.183.831-.274 1.333-.274.993 0 1.759.34 2.297 1.019.542.679.813 1.631.813 2.857 0 1.23-.276 2.188-.827 2.871-.547.68-1.308 1.019-2.283 1.019zm-.164-6.802c-.766 0-1.32.212-1.661.636-.342.424-.518 1.098-.527 2.023v.253c0 1.053.176 1.807.527 2.263.351.451.913.677 1.688.677.647 0 1.153-.262 1.518-.786.369-.525.553-1.247.553-2.167 0-.935-.184-1.65-.553-2.147-.365-.501-.88-.752-1.545-.752z" fill="#E8178A"/><path d="M565.875 1h9v81.166h-9" stroke="#4091D2"/><path d="M581.575 46.09l3.217-7.032h-4.225v-1.523h6.146v1.136l-3.24 7.418h-1.898zm11.922 0h-5.988v-1.26l2.15-2.174c.637-.653 1.053-1.104 1.248-1.354a3.05 3.05 0 00.422-.703c.086-.215.129-.438.129-.668 0-.344-.096-.6-.287-.767-.188-.169-.44-.253-.756-.253-.332 0-.654.077-.967.229-.312.152-.639.37-.978.65l-.985-1.166c.422-.359.772-.613 1.049-.761.277-.149.58-.262.908-.34a4.548 4.548 0 011.102-.123c.535 0 1.008.097 1.418.293.41.195.728.468.955.82.226.352.34.754.34 1.207 0 .395-.071.766-.211 1.113a4.18 4.18 0 01-.645 1.06c-.289.364-.801.882-1.535 1.554l-1.102 1.037v.082h3.733v1.523zm3.326.116c-.769 0-1.375-.298-1.816-.896-.438-.598-.656-1.426-.656-2.484 0-1.075.222-1.91.668-2.508.449-.602 1.066-.903 1.851-.903.824 0 1.453.32 1.887.961h.058a7.377 7.377 0 01-.134-1.306v-2.098h1.793v9.117h-1.371l-.346-.85h-.076c-.407.645-1.026.967-1.858.967zm.627-1.423c.457 0 .791-.133 1.002-.399.215-.266.332-.717.352-1.353v-.194c0-.703-.11-1.207-.328-1.511-.215-.305-.567-.458-1.055-.458-.398 0-.709.17-.932.51-.218.336-.328.827-.328 1.471 0 .645.112 1.129.334 1.453.223.32.541.48.955.48zm8.418 1.423c-.769 0-1.373-.279-1.81-.838h-.094c.063.547.094.864.094.95v2.654h-1.787v-9.434h1.453l.252.85h.082c.418-.648 1.037-.973 1.857-.973.774 0 1.379.3 1.817.897.437.598.656 1.428.656 2.49 0 .7-.104 1.307-.311 1.822-.203.516-.494.909-.873 1.178-.378.27-.824.404-1.336.404zm-.527-5.36c-.441 0-.764.136-.967.41-.203.269-.308.716-.316 1.341v.193c0 .703.103 1.207.31 1.512.211.305.543.457.997.457.8 0 1.201-.66 1.201-1.98 0-.645-.1-1.127-.299-1.448-.195-.324-.504-.486-.926-.486z" fill="#4091D2"/></svg>