<svg width="961" height="170" fill="none" xmlns="http://www.w3.org/2000/svg"><path fill="#F1F1F6" d="M0 0h961v170H0z"/><path d="M147.267 74.933c-.481 0-.938.096-1.354.268a.816.816 0 11-.625-1.508 5.16 5.16 0 011.979-.392h1.633a.817.817 0 010 1.632h-1.633zM151.348 74.117c0-.451.366-.817.817-.817h3.265a.817.817 0 010 1.633h-3.265a.817.817 0 01-.817-.816zM157.878 74.117c0-.451.366-.817.817-.817h1.632c.7 0 1.369.14 1.979.393a.815.815 0 11-.625 1.508 3.526 3.526 0 00-1.354-.268h-1.632a.817.817 0 01-.817-.816zM143.557 76.05c.416.172.614.65.441 1.066a3.533 3.533 0 00-.268 1.354v1.633a.816.816 0 11-1.632 0V78.47c0-.7.139-1.368.392-1.979a.817.817 0 011.067-.441zM164.037 76.05a.817.817 0 011.067.441c.253.61.393 1.28.393 1.98v1.632a.817.817 0 01-1.633 0V78.47c0-.481-.095-.938-.268-1.354a.816.816 0 01.441-1.066zM142.914 82.551c.451 0 .816.366.816.817v3.264a.816.816 0 11-1.632 0v-3.264c0-.451.365-.817.816-.817zM164.68 82.551c.451 0 .817.366.817.817v3.264a.817.817 0 01-1.633 0v-3.264c0-.451.366-.817.816-.817zM142.914 89.081c.451 0 .816.366.816.816v1.633c0 .481.096.938.268 1.354a.816.816 0 11-1.508.625 5.16 5.16 0 01-.392-1.979v-1.633c0-.45.365-.816.816-.816zM164.68 89.081c.451 0 .817.366.817.816v1.633c0 .7-.14 1.368-.393 1.979a.817.817 0 01-1.508-.625c.173-.416.268-.873.268-1.354v-1.633c0-.45.366-.816.816-.816zM144.847 95.24a.816.816 0 011.066-.441c.416.172.873.268 1.354.268h1.633a.817.817 0 010 1.633h-1.633c-.699 0-1.368-.14-1.979-.393a.816.816 0 01-.441-1.067zM162.747 95.24a.815.815 0 01-.441 1.067 5.15 5.15 0 01-1.979.392h-1.632a.817.817 0 110-1.632h1.632c.481 0 .938-.095 1.354-.268a.815.815 0 011.066.441zM151.348 95.883c0-.45.366-.816.817-.816h3.265a.817.817 0 010 1.633h-3.265a.817.817 0 01-.817-.817zM163.081 76.937a.816.816 0 10-1.154-1.155l-1.085 1.085a.818.818 0 001.155 1.154l1.084-1.084zM159.828 80.19a.816.816 0 10-1.154-1.155l-2.168 2.168a.816.816 0 101.154 1.155l2.168-2.169zM155.492 84.526a.818.818 0 00-1.155-1.154l-.54.54-.54-.54a.816.816 0 10-1.154 1.154l.54.54-.474.474a.816.816 0 101.154 1.154l.474-.474.474.474a.817.817 0 001.155-1.154l-.475-.474.541-.54zM151.155 88.863A.816.816 0 10150 87.709l-2.168 2.168a.816.816 0 101.154 1.154l2.169-2.168zM146.818 93.2a.816.816 0 10-1.154-1.155l-1.085 1.084a.818.818 0 001.155 1.155l1.084-1.084zM161.861 94.284a.816.816 0 101.154-1.155l-1.084-1.084a.817.817 0 00-1.155 1.155l1.085 1.084zM158.608 91.031a.816.816 0 101.154-1.154l-2.168-2.168a.816.816 0 10-1.154 1.154l2.168 2.168zM149.934 82.358a.817.817 0 001.155-1.155l-2.169-2.168a.816.816 0 10-1.154 1.154l2.168 2.169zM145.598 78.02a.816.816 0 101.154-1.153l-1.084-1.085a.817.817 0 00-1.155 1.155l1.085 1.084zM150.593 79.438a3.538 3.538 0 011.028-.152h.816a.816.816 0 100-1.632h-.816a5.17 5.17 0 00-1.501.221.816.816 0 10.473 1.563zM155.158 77.654a.817.817 0 100 1.632h.816c.358 0 .703.053 1.027.152a.816.816 0 00.474-1.563 5.17 5.17 0 00-1.501-.221h-.816zM148.235 81.796a.817.817 0 00-1.563-.473c-.144.476-.221.98-.221 1.5v.817a.816.816 0 101.632 0v-.817c0-.358.054-.703.152-1.027zM160.922 81.323a.817.817 0 00-1.562.473c.098.324.151.669.151 1.027v.817a.816.816 0 101.632 0v-.817c0-.52-.077-1.024-.221-1.5zM148.083 86.36a.816.816 0 10-1.632 0v.817c0 .52.077 1.024.221 1.5a.817.817 0 001.563-.473 3.544 3.544 0 01-.152-1.027v-.817zM161.143 86.36a.816.816 0 10-1.632 0v.817c0 .358-.053.703-.151 1.027a.816.816 0 101.562.474c.144-.477.221-.98.221-1.501v-.817zM150.593 90.562a.817.817 0 00-.473 1.563c.476.144.98.221 1.501.221h.816a.816.816 0 100-1.632h-.816c-.359 0-.704-.053-1.028-.152zM157.475 92.125a.816.816 0 00-.474-1.563 3.536 3.536 0 01-1.027.152h-.816a.817.817 0 100 1.632h.816a5.17 5.17 0 001.501-.221z" fill="#363545"/><path d="M182.36 91.5h-1.49V80.005h-4.06V78.68h9.61v1.324h-4.06V91.5zm7.438 0h-1.455v-9.61h1.455v9.61zm-1.578-12.214c0-.334.082-.576.245-.728a.851.851 0 01.614-.237c.234 0 .436.079.605.237.17.158.254.4.254.728 0 .327-.084.572-.254.736a.857.857 0 01-.605.237.851.851 0 01-.614-.237c-.163-.164-.245-.41-.245-.736zm7.973 11.188c.257 0 .505-.018.745-.053a5.38 5.38 0 00.57-.123v1.114c-.158.076-.392.137-.702.184a4.87 4.87 0 01-.824.08c-1.859 0-2.788-.98-2.788-2.938V83.02h-1.377v-.702l1.377-.605.614-2.051h.841v2.227h2.789v1.13h-2.789v5.656c0 .58.138 1.023.412 1.333.275.31.652.465 1.132.465zm4.903 1.026h-1.455V77.856h1.455V91.5zm7.351.175c-1.421 0-2.543-.432-3.367-1.298-.819-.865-1.228-2.066-1.228-3.603 0-1.55.38-2.78 1.14-3.692.766-.912 1.792-1.368 3.078-1.368 1.204 0 2.157.398 2.858 1.193.701.789 1.052 1.832 1.052 3.13v.92h-6.62c.029 1.129.313 1.985.851 2.57.543.584 1.306.877 2.288.877a7.74 7.74 0 003.069-.65v1.299a7.433 7.433 0 01-1.464.473c-.456.1-1.009.15-1.657.15zm-.395-8.742c-.772 0-1.388.251-1.85.754-.456.503-.725 1.199-.807 2.087h5.024c0-.918-.204-1.62-.613-2.104-.41-.491-.994-.737-1.754-.737zM458.624 82.184l-2.041-2.04-5.673 5.631-5.673-5.632-2.04 2.04 7.713 7.674 7.714-7.673z" fill="#252A2E"/><path d="M477.03 110.304H124.412v1.632H477.03v-1.632z" fill="#7D808D" mask="url(#prefix__path-1-inside-1_4767_76222)"/><rect x="497.438" y="49.348" width="338.741" height="71.304" rx="2.857" fill="#fff"/><path d="M519.885 74.933c-.481 0-.938.096-1.354.268a.815.815 0 11-.625-1.508 5.15 5.15 0 011.979-.392h1.632a.817.817 0 110 1.632h-1.632zM523.966 74.117c0-.45.366-.816.816-.816h3.265a.817.817 0 110 1.632h-3.265a.817.817 0 01-.816-.816zM530.496 74.117c0-.45.365-.816.816-.816h1.633c.699 0 1.368.14 1.979.392a.816.816 0 01-.625 1.508 3.527 3.527 0 00-1.354-.268h-1.633a.816.816 0 01-.816-.816zM516.175 76.05c.416.173.614.65.441 1.067a3.514 3.514 0 00-.268 1.353v1.633a.817.817 0 01-1.633 0V78.47c0-.7.14-1.368.393-1.979a.817.817 0 011.067-.441zM536.655 76.05a.817.817 0 011.067.441c.253.61.392 1.28.392 1.98v1.632a.816.816 0 11-1.632 0V78.47c0-.48-.096-.938-.268-1.353a.816.816 0 01.441-1.067zM515.532 82.552c.45 0 .816.365.816.816v3.265a.817.817 0 01-1.633 0v-3.265c0-.451.366-.816.817-.816zM537.298 82.552c.451 0 .816.365.816.816v3.265a.816.816 0 11-1.632 0v-3.265c0-.451.365-.816.816-.816zM515.532 89.082c.45 0 .816.365.816.816v1.632c0 .481.095.938.268 1.354a.816.816 0 11-1.508.625 5.161 5.161 0 01-.393-1.979v-1.632c0-.451.366-.816.817-.816zM537.298 89.082c.451 0 .816.365.816.816v1.632c0 .7-.139 1.369-.392 1.98a.817.817 0 01-1.508-.626c.172-.416.268-.873.268-1.354v-1.632c0-.451.365-.816.816-.816zM517.465 95.24a.815.815 0 011.066-.44c.416.172.873.267 1.354.267h1.632a.817.817 0 110 1.633h-1.632c-.7 0-1.369-.14-1.979-.393a.815.815 0 01-.441-1.067zM535.365 95.24a.816.816 0 01-.441 1.067 5.16 5.16 0 01-1.979.393h-1.633a.816.816 0 110-1.633h1.633c.481 0 .938-.095 1.354-.268a.816.816 0 011.066.441zM523.966 95.883c0-.45.366-.816.816-.816h3.265a.817.817 0 110 1.633h-3.265a.817.817 0 01-.816-.817zM535.699 76.937a.818.818 0 00-1.155-1.154l-1.084 1.084a.816.816 0 101.154 1.154l1.085-1.084zM532.446 80.19a.816.816 0 10-1.154-1.155l-2.169 2.169a.818.818 0 001.155 1.154l2.168-2.169zM528.109 84.526a.816.816 0 10-1.154-1.154l-.54.54-.54-.54a.817.817 0 00-1.155 1.154l.54.54-.474.474a.818.818 0 001.155 1.155l.474-.474.474.474a.816.816 0 101.154-1.155l-.474-.474.54-.54zM523.772 88.863a.816.816 0 10-1.154-1.154l-2.168 2.168a.816.816 0 101.154 1.154l2.168-2.168zM519.436 93.2a.818.818 0 00-1.155-1.154l-1.084 1.084a.816.816 0 101.154 1.154l1.085-1.084zM534.478 94.284a.817.817 0 001.155-1.154l-1.085-1.084a.816.816 0 10-1.154 1.154l1.084 1.084zM531.226 91.031a.816.816 0 101.154-1.154l-2.168-2.168a.817.817 0 00-1.155 1.154l2.169 2.168zM522.552 82.358a.816.816 0 101.154-1.154l-2.168-2.169a.816.816 0 10-1.154 1.154l2.168 2.169zM518.215 78.021a.817.817 0 001.155-1.154l-1.085-1.085a.816.816 0 10-1.154 1.155l1.084 1.084zM523.211 79.438a3.536 3.536 0 011.027-.151h.816a.817.817 0 100-1.633h-.816a5.17 5.17 0 00-1.501.222.816.816 0 00.474 1.562zM527.775 77.654a.816.816 0 100 1.633h.816c.359 0 .704.053 1.028.15a.817.817 0 00.473-1.561 5.17 5.17 0 00-1.501-.222h-.816zM520.852 81.796a.816.816 0 10-1.562-.473c-.144.476-.221.98-.221 1.5v.817a.816.816 0 101.632 0v-.816c0-.359.053-.704.151-1.028zM533.54 81.323a.817.817 0 00-1.563.473c.098.324.152.669.152 1.028v.816a.816.816 0 101.632 0v-.816c0-.521-.077-1.025-.221-1.501zM520.701 86.36a.816.816 0 10-1.632 0v.817c0 .52.077 1.025.221 1.5a.816.816 0 101.562-.473 3.544 3.544 0 01-.151-1.027v-.816zM533.761 86.36a.816.816 0 10-1.632 0v.817c0 .358-.054.703-.152 1.027a.817.817 0 001.563.474c.144-.476.221-.98.221-1.501v-.816zM523.211 90.563a.816.816 0 00-.474 1.562c.476.144.98.222 1.501.222h.816a.817.817 0 100-1.633h-.816c-.358 0-.703-.053-1.027-.151zM530.092 92.125a.817.817 0 00-.473-1.562 3.538 3.538 0 01-1.028.151h-.816a.816.816 0 100 1.633h.816a5.17 5.17 0 001.501-.222z" fill="#363545"/><path d="M554.978 80h-1.491V68.505h-4.059v-1.324h9.61v1.324h-4.06V80zm7.438 0h-1.456v-9.61h1.456V80zm-1.579-12.214c0-.333.082-.576.246-.728a.85.85 0 01.614-.236c.234 0 .435.078.605.236.169.158.254.4.254.728 0 .327-.085.573-.254.737a.858.858 0 01-.605.236.85.85 0 01-.614-.236c-.164-.164-.246-.41-.246-.737zm7.973 11.188c.257 0 .506-.017.746-.052.239-.041.429-.082.569-.123v1.114c-.157.076-.391.137-.701.184a4.88 4.88 0 01-.824.079c-1.859 0-2.789-.98-2.789-2.938v-5.717h-1.376v-.701l1.376-.605.614-2.052h.842v2.227h2.788v1.131h-2.788v5.656c0 .579.137 1.023.412 1.333.275.31.652.464 1.131.464zM573.714 80h-1.455V66.357h1.455V80zm7.35.176c-1.42 0-2.543-.433-3.367-1.298-.818-.865-1.227-2.067-1.227-3.604 0-1.549.38-2.78 1.14-3.691.765-.912 1.791-1.368 3.077-1.368 1.204 0 2.157.397 2.859 1.192.701.79 1.052 1.833 1.052 3.13v.921h-6.62c.029 1.129.313 1.985.85 2.57.544.584 1.307.876 2.289.876a7.743 7.743 0 003.069-.649v1.298a7.454 7.454 0 01-1.465.474c-.456.099-1.008.149-1.657.149zm-.394-8.742c-.772 0-1.389.251-1.85.754-.456.502-.725 1.198-.807 2.087h5.024c0-.918-.204-1.62-.614-2.105-.409-.49-.993-.736-1.753-.736z" fill="#252A2E"/><path d="M560.174 97.062c0 1.923-.523 3.395-1.57 4.416-1.042 1.015-2.543 1.522-4.504 1.522h-3.228V91.346h3.571c1.812 0 3.22.503 4.225 1.507 1.004 1.004 1.506 2.407 1.506 4.209zm-1.435.048c0-1.52-.382-2.665-1.147-3.436-.76-.77-1.892-1.156-3.396-1.156h-1.969v9.31h1.65c1.616 0 2.83-.395 3.643-1.187.813-.797 1.219-1.974 1.219-3.531zm7.656 6.05c-1.292 0-2.312-.394-3.061-1.18-.744-.787-1.116-1.879-1.116-3.276 0-1.408.345-2.527 1.036-3.356.696-.829 1.629-1.243 2.798-1.243 1.095 0 1.961.36 2.598 1.084.638.717.957 1.666.957 2.845v.837h-6.018c.026 1.026.284 1.804.773 2.336.494.531 1.188.797 2.08.797.941 0 1.871-.197 2.79-.59v1.18a6.737 6.737 0 01-1.331.43c-.414.09-.916.136-1.506.136zm-.359-7.948c-.702 0-1.262.229-1.682.686-.414.457-.659 1.09-.733 1.897h4.567c0-.834-.186-1.472-.558-1.913-.372-.446-.903-.67-1.594-.67zm11.593 5.405c0 .813-.303 1.44-.909 1.881-.606.441-1.456.662-2.551.662-1.158 0-2.061-.184-2.71-.55v-1.228c.42.213.869.38 1.347.502a5.66 5.66 0 001.395.184c.691 0 1.222-.109 1.594-.327.372-.223.558-.561.558-1.013 0-.34-.148-.629-.446-.868-.292-.245-.866-.532-1.722-.861-.813-.303-1.392-.566-1.737-.79-.34-.228-.596-.486-.766-.773-.164-.287-.247-.63-.247-1.028 0-.712.29-1.273.869-1.682.579-.414 1.374-.621 2.383-.621.941 0 1.86.19 2.759.573l-.471 1.076c-.877-.36-1.671-.542-2.383-.542-.627 0-1.1.099-1.419.295-.319.197-.478.468-.478.813 0 .234.058.434.175.598.122.165.316.322.582.47.266.15.776.365 1.53.646 1.037.377 1.735.757 2.097 1.14.367.383.55.864.55 1.443zm5.774 2.543c-1.265 0-2.245-.388-2.942-1.164-.69-.781-1.036-1.884-1.036-3.308 0-1.462.351-2.59 1.052-3.388.707-.797 1.712-1.195 3.013-1.195.42 0 .84.045 1.26.135.42.09.749.197.988.319l-.406 1.124a5.924 5.924 0 00-.957-.287 4.133 4.133 0 00-.916-.12c-1.775 0-2.663 1.132-2.663 3.396 0 1.073.215 1.897.646 2.471.436.574 1.079.861 1.929.861.728 0 1.475-.157 2.24-.47v1.171c-.585.303-1.321.455-2.208.455zm8.396-9.055c.388 0 .736.031 1.045.095l-.184 1.228c-.361-.08-.68-.12-.956-.12-.707 0-1.313.287-1.818.861-.499.574-.749 1.289-.749 2.144V103h-1.323v-8.736h1.092l.151 1.618h.064c.324-.569.715-1.007 1.172-1.315a2.637 2.637 0 011.506-.462zm4.124 8.895H594.6v-8.736h1.323V103zm-1.435-11.103c0-.303.075-.524.224-.662a.77.77 0 01.558-.215.78.78 0 01.55.215c.154.143.231.364.231.662 0 .297-.077.52-.231.669a.78.78 0 01-.55.215.77.77 0 01-.558-.215c-.149-.149-.224-.372-.224-.67zm8.429 11.263c-.569 0-1.09-.104-1.563-.311a2.976 2.976 0 01-1.179-.973h-.096c.064.51.096.994.096 1.451v3.595h-1.323V94.264h1.076l.183 1.196h.064c.34-.479.736-.824 1.187-1.037.452-.212.97-.319 1.555-.319 1.158 0 2.051.396 2.678 1.188.632.792.949 1.903.949 3.332 0 1.435-.322 2.551-.965 3.348-.638.792-1.525 1.188-2.662 1.188zm-.192-7.932c-.892 0-1.538.248-1.937.742-.398.494-.603 1.28-.613 2.36v.294c0 1.228.204 2.107.613 2.639.41.526 1.066.789 1.969.789.755 0 1.345-.306 1.77-.917.43-.611.646-1.453.646-2.527 0-1.09-.216-1.924-.646-2.503-.425-.584-1.026-.877-1.802-.877zm9.082 6.84c.234 0 .46-.016.678-.048.218-.037.391-.075.518-.112v1.013c-.143.069-.356.124-.638.167a4.413 4.413 0 01-.749.072c-1.69 0-2.535-.89-2.535-2.671v-5.197h-1.251v-.638l1.251-.55.558-1.865h.766v2.025h2.534v1.028h-2.534v5.142c0 .526.124.93.374 1.211.25.282.593.423 1.028.423zm4.395.932h-1.323v-8.736h1.323V103zm-1.434-11.103c0-.303.074-.524.223-.662a.773.773 0 01.558-.215.78.78 0 01.55.215c.154.143.231.364.231.662 0 .297-.077.52-.231.669a.78.78 0 01-.55.215.773.773 0 01-.558-.215c-.149-.149-.223-.372-.223-.67zm11.903 6.727c0 1.424-.358 2.538-1.076 3.34-.717.797-1.708 1.196-2.973 1.196-.781 0-1.475-.184-2.08-.55-.606-.367-1.074-.893-1.403-1.579-.33-.685-.495-1.488-.495-2.407 0-1.424.357-2.532 1.069-3.324.712-.797 1.7-1.195 2.965-1.195 1.222 0 2.192.406 2.909 1.219.723.813 1.084 1.913 1.084 3.3zm-6.655 0c0 1.116.223 1.966.669 2.551.446.584 1.103.877 1.969.877.866 0 1.522-.29 1.969-.869.452-.585.677-1.438.677-2.559 0-1.11-.225-1.953-.677-2.527-.447-.579-1.108-.869-1.985-.869-.866 0-1.52.285-1.961.853-.441.569-.661 1.416-.661 2.543zM635.1 103v-5.651c0-.712-.162-1.244-.486-1.595-.325-.35-.832-.526-1.523-.526-.914 0-1.584.248-2.009.742-.425.494-.637 1.31-.637 2.447V103h-1.324v-8.736h1.077l.215 1.196h.064c.271-.43.65-.763 1.139-.997a3.67 3.67 0 011.634-.358c1.053 0 1.844.254 2.376.765.531.504.797 1.315.797 2.43v5.7H635.1z" fill="#7D808D"/><path d="M818.181 82.184l-2.04-2.04-5.673 5.631-5.673-5.632-2.041 2.04 7.714 7.674 7.713-7.673z" fill="#252A2E"/><rect x="497.438" y="49.348" width="338.741" height="71.304" rx="2.857" stroke="#CBCDD6" stroke-width=".816"/></svg>