<svg fill="none" height="233" width="961" xmlns="http://www.w3.org/2000/svg" xmlns:xlink="http://www.w3.org/1999/xlink"><clipPath id="a"><rect height="144" rx="4" width="742" x="109.5" y="44.5"/></clipPath><path d="m0 0h961v233h-961z" fill="#353a40"/><g clip-path="url(#a)"><rect fill="#6a6e79" height="144" rx="4" width="742" x="109.5" y="44.5"/><path d="m110 45h741v71h-741z" fill="#464b52"/><path clip-rule="evenodd" d="m157.5 90.5h-2v-19h-4v-3h-7v5.5h-4.5v2.5h-3.5v14h-3v2h24zm-3.5 0h-2.5v-4h-4v4h-2v-17.5h8.5zm-9.5 0v-12.5h-6.5v12.5zm1-19v-1.5h4.5v1.5zm1 6h6v1h-6zm6-3h-6v1h6zm-13 6h4v1h-4zm4 3h-4v1h4zm-4 3h4v1h-4zm13-6h-6v1h6zm-6 3h6v1h-6zm4 7h-2v-3h2z" fill="#fff" fill-rule="evenodd"/><path d="m188.493 89.5h-1.826v-14.083h-4.974v-1.622h11.774v1.622h-4.974zm9.112 0h-1.783v-11.773h1.783zm-1.933-14.964c0-.408.1-.705.301-.892.2-.193.451-.29.752-.29.286 0 .533.097.741.29.208.194.311.491.311.892s-.103.702-.311.903c-.208.193-.455.29-.741.29a1.04 1.04 0 0 1 -.752-.29c-.201-.201-.301-.502-.301-.903zm9.767 13.707c.316 0 .62-.021.914-.064.293-.05.526-.1.698-.15v1.364c-.194.093-.48.168-.86.225a5.974 5.974 0 0 1 -1.009.097c-2.278 0-3.416-1.2-3.416-3.599v-7.004h-1.687v-.86l1.687-.74.752-2.514h1.031v2.729h3.416v1.385h-3.416v6.929c0 .709.168 1.253.505 1.633.336.38.798.57 1.385.57zm6.008 1.257h-1.783v-16.715h1.783zm9.005.215c-1.74 0-3.115-.53-4.125-1.59-1.002-1.06-1.504-2.532-1.504-4.415 0-1.898.466-3.405 1.397-4.522.938-1.118 2.195-1.676 3.77-1.676 1.475 0 2.643.487 3.502 1.46.86.968 1.289 2.246 1.289 3.836v1.127h-8.11c.036 1.383.383 2.432 1.042 3.148.666.716 1.6 1.074 2.804 1.074 1.267 0 2.52-.265 3.759-.795v1.59a9.104 9.104 0 0 1 -1.794.58c-.558.122-1.235.183-2.03.183zm-.483-10.71c-.946 0-1.701.308-2.267.924-.558.616-.888 1.468-.988 2.556h6.155c0-1.124-.251-1.983-.752-2.578-.501-.601-1.217-.902-2.148-.902zm608.981-1.955-2.5-2.5-6.95 6.9-6.95-6.9-2.5 2.5 9.45 9.4z" fill="#fff"/><path d="m110 45h741v71h-741z" stroke="#6a6e79"/><path d="m109.5 116.5h742v72h-742z" fill="#464b52"/><g fill="#fff"><path clip-rule="evenodd" d="m145.5 139.167c-7.36 0-13.333 5.973-13.333 13.333s5.973 13.333 13.333 13.333 13.333-5.973 13.333-13.333-5.973-13.333-13.333-13.333zm-1.333 23.906c-5.267-.653-9.334-5.133-9.334-10.573 0-.827.107-1.613.28-2.387l6.387 6.387v1.333c0 1.467 1.2 2.667 2.667 2.667zm9.2-3.386a2.647 2.647 0 0 0 -2.534-1.854h-1.333v-4c0-.733-.6-1.333-1.333-1.333h-8v-2.667h2.666c.734 0 1.334-.6 1.334-1.333v-2.667h2.666c1.467 0 2.667-1.2 2.667-2.666v-.547c3.907 1.587 6.667 5.413 6.667 9.88 0 2.773-1.067 5.293-2.8 7.187z" fill-rule="evenodd"/><path d="m188.493 161.5h-1.826v-14.083h-4.974v-1.622h11.774v1.622h-4.974zm9.112 0h-1.783v-11.773h1.783zm-1.933-14.964c0-.408.1-.705.301-.891.2-.194.451-.291.752-.291.286 0 .533.097.741.291.208.193.311.49.311.891s-.103.702-.311.902a1.05 1.05 0 0 1 -.741.291c-.301 0-.552-.097-.752-.291-.201-.2-.301-.501-.301-.902zm9.767 13.707c.316 0 .62-.021.914-.064.293-.05.526-.101.698-.151v1.365c-.194.093-.48.168-.86.225a5.916 5.916 0 0 1 -1.009.097c-2.278 0-3.416-1.2-3.416-3.599v-7.004h-1.687v-.859l1.687-.741.752-2.514h1.031v2.729h3.416v1.385h-3.416v6.929c0 .709.168 1.253.505 1.633.336.379.798.569 1.385.569zm6.008 1.257h-1.783v-16.715h1.783zm9.005.215c-1.74 0-3.115-.53-4.125-1.59-1.002-1.06-1.504-2.532-1.504-4.415 0-1.898.466-3.405 1.397-4.522.938-1.118 2.195-1.676 3.77-1.676 1.475 0 2.643.487 3.502 1.461.86.966 1.289 2.245 1.289 3.835v1.128h-8.11c.036 1.382.383 2.431 1.042 3.147.666.716 1.6 1.074 2.804 1.074 1.267 0 2.52-.265 3.759-.795v1.59a9.077 9.077 0 0 1 -1.794.58c-.558.122-1.235.183-2.03.183zm-.483-10.71c-.946 0-1.701.308-2.267.924-.558.616-.888 1.468-.988 2.556h6.155c0-1.124-.251-1.983-.752-2.578-.501-.601-1.217-.902-2.148-.902zm608.981-1.955-2.5-2.5-6.95 6.9-6.95-6.9-2.5 2.5 9.45 9.4z"/></g></g><rect height="143" rx="3.5" stroke="#6a6e79" width="741" x="110" y="45"/></svg>