<svg width="961" height="170" fill="none" xmlns="http://www.w3.org/2000/svg"><path fill="#353A40" d="M0 0h961v170H0z"/><path d="M74.5 72.667c-.59 0-1.15.117-1.659.328a1 1 0 01-.766-1.847 6.318 6.318 0 012.425-.481h2a1 1 0 010 2h-2zM79.5 71.667a1 1 0 011-1h4a1 1 0 010 2h-4a1 1 0 01-1-1zM87.5 71.667a1 1 0 011-1h2c.857 0 1.676.17 2.424.48a1 1 0 11-.766 1.848 4.317 4.317 0 00-1.658-.328h-2a1 1 0 01-1-1zM69.954 74.035a1 1 0 01.54 1.307A4.317 4.317 0 0070.167 77v2a1 1 0 11-2 0v-2c0-.857.171-1.676.481-2.424a1 1 0 011.307-.541zM95.045 74.035a1 1 0 011.307.54c.31.749.481 1.568.481 2.425v2a1 1 0 11-2 0v-2c0-.59-.117-1.149-.328-1.658a1 1 0 01.54-1.307zM69.166 82a1 1 0 011 1v4a1 1 0 11-2 0v-4a1 1 0 011-1zM95.833 82a1 1 0 011 1v4a1 1 0 11-2 0v-4a1 1 0 011-1zM69.166 90a1 1 0 011 1v2c0 .59.118 1.149.329 1.659a1 1 0 11-1.848.766 6.317 6.317 0 01-.48-2.425v-2a1 1 0 011-1zM95.833 90a1 1 0 011 1v2c0 .857-.17 1.677-.48 2.425a1 1 0 01-1.848-.766c.211-.51.328-1.07.328-1.659v-2a1 1 0 011-1zM71.535 97.546a1 1 0 011.306-.541c.51.211 1.07.328 1.659.328h2a1 1 0 110 2h-2c-.857 0-1.677-.17-2.425-.48a1 1 0 01-.54-1.307zM93.465 97.546a1 1 0 01-.54 1.306 6.316 6.316 0 01-2.425.481h-2a1 1 0 010-2h2c.59 0 1.149-.117 1.658-.328a1 1 0 011.307.54zM79.5 98.333a1 1 0 011-1h4a1 1 0 110 2h-4a1 1 0 01-1-1zM93.874 75.121a1 1 0 00-1.415-1.414l-1.328 1.329a1 1 0 001.414 1.414l1.329-1.329zM89.889 79.106a1 1 0 00-1.414-1.414l-2.657 2.657a1 1 0 001.414 1.414l2.657-2.657zM84.576 84.42a1 1 0 00-1.415-1.415l-.661.662-.662-.662a1 1 0 00-1.414 1.414l.662.662-.581.58a1 1 0 001.414 1.415l.58-.58.582.58a1 1 0 001.414-1.414l-.58-.581.66-.662zM79.263 89.733a1 1 0 10-1.415-1.415l-2.656 2.657a1 1 0 001.414 1.414l2.657-2.656zM73.95 95.046a1 1 0 10-1.415-1.415l-1.328 1.329a1 1 0 001.414 1.414l1.328-1.328zM92.379 96.374a1 1 0 001.414-1.414l-1.329-1.329a1 1 0 10-1.414 1.415l1.329 1.328zM88.394 92.389a1 1 0 001.414-1.414l-2.657-2.657a1 1 0 10-1.414 1.415l2.657 2.656zM77.767 81.763a1 1 0 001.415-1.414l-2.657-2.657a1 1 0 00-1.414 1.414l2.656 2.657zM72.454 76.45a1 1 0 001.415-1.415l-1.329-1.328a1 1 0 00-1.414 1.414l1.328 1.329zM78.574 78.186c.398-.12.82-.186 1.26-.186h1a1 1 0 100-2h-1c-.639 0-1.256.095-1.84.271a1 1 0 10.58 1.915zM84.166 76a1 1 0 100 2h1c.44 0 .862.065 1.26.186a1 1 0 00.58-1.915 6.332 6.332 0 00-1.84-.27h-1zM75.685 81.075a1 1 0 10-1.914-.58 6.336 6.336 0 00-.271 1.838v1a1 1 0 002 0v-1c0-.439.065-.861.185-1.258zM91.228 80.495a1 1 0 10-1.913.58c.12.397.185.82.185 1.258v1a1 1 0 002 0v-1c0-.638-.095-1.255-.272-1.838zM75.5 86.667a1 1 0 00-2 0v1c0 .638.094 1.255.271 1.838a1 1 0 001.914-.58 4.334 4.334 0 01-.185-1.258v-1zM91.5 86.667a1 1 0 00-2 0v1c0 .44-.065.861-.186 1.258a1 1 0 101.915.58c.176-.583.27-1.2.27-1.838v-1zM78.574 91.815a1 1 0 00-.58 1.914c.584.177 1.201.271 1.84.271h1a1 1 0 100-2h-1c-.44 0-.862-.065-1.26-.185zM87.005 93.729a1 1 0 00-.58-1.914c-.397.12-.82.185-1.258.185h-1a1 1 0 100 2h1c.637 0 1.255-.094 1.838-.271zM117.493 94h-1.826V79.917h-4.974v-1.622h11.774v1.622h-4.974V94zm9.112 0h-1.783V82.227h1.783V94zm-1.933-14.964c0-.408.1-.705.301-.892.2-.193.451-.29.752-.29.286 0 .533.097.741.29.208.194.311.491.311.892s-.103.702-.311.903c-.208.193-.455.29-.741.29a1.04 1.04 0 01-.752-.29c-.201-.201-.301-.502-.301-.903zm9.767 13.707c.316 0 .62-.021.914-.064.293-.05.526-.1.698-.15v1.364c-.194.093-.48.168-.86.225a5.974 5.974 0 01-1.009.097c-2.278 0-3.416-1.2-3.416-3.599v-7.004h-1.687v-.86l1.687-.74.752-2.514h1.031v2.729h3.416v1.385h-3.416v6.929c0 .709.168 1.253.505 1.633.336.38.798.57 1.385.57zM140.447 94h-1.783V77.285h1.783V94zm9.005.215c-1.74 0-3.115-.53-4.125-1.59-1.002-1.06-1.504-2.532-1.504-4.415 0-1.898.466-3.405 1.397-4.522.938-1.118 2.195-1.676 3.77-1.676 1.475 0 2.643.487 3.502 1.46.86.968 1.289 2.246 1.289 3.836v1.127h-8.11c.036 1.383.383 2.432 1.042 3.148.666.716 1.6 1.074 2.804 1.074 1.267 0 2.52-.265 3.759-.795v1.59a9.104 9.104 0 01-1.794.58c-.558.122-1.235.183-2.03.183zm-.483-10.71c-.946 0-1.701.308-2.267.924-.558.616-.888 1.468-.988 2.556h6.155c0-1.124-.251-1.983-.752-2.578-.501-.601-1.217-.902-2.148-.902zM455.95 81.55l-2.5-2.5-6.95 6.9-6.95-6.9-2.5 2.5 9.45 9.4 9.45-9.4z" fill="#fff"/><path d="M478.5 116h-432v2h432v-2z" fill="#7D808D" mask="url(#prefix__path-1-inside-1_6828_86696)"/><rect x="499" y="41.5" width="415" height="87" rx="3.5" fill="#464B52"/><path d="M526.5 72.667a4.32 4.32 0 00-1.659.328.999.999 0 11-.766-1.847 6.32 6.32 0 012.425-.481h2a1 1 0 010 2h-2zM531.5 71.667a1 1 0 011-1h4a1 1 0 010 2h-4a1 1 0 01-1-1zM539.5 71.667a1 1 0 011-1h2c.857 0 1.676.17 2.424.48a1 1 0 11-.766 1.848 4.314 4.314 0 00-1.658-.328h-2a1 1 0 01-1-1zM521.954 74.035a1 1 0 01.541 1.307 4.323 4.323 0 00-.328 1.658v2a1 1 0 01-2 0v-2c0-.857.17-1.676.48-2.424a1 1 0 011.307-.541zM547.045 74.035a1 1 0 011.307.54c.31.749.481 1.568.481 2.425v2a1 1 0 01-2 0v-2c0-.59-.117-1.149-.328-1.658a1 1 0 01.54-1.307zM521.167 82a1 1 0 011 1v4a1 1 0 01-2 0v-4a1 1 0 011-1zM547.833 82a1 1 0 011 1v4a1 1 0 01-2 0v-4a1 1 0 011-1zM521.167 90a1 1 0 011 1v2c0 .59.117 1.149.328 1.659a1 1 0 01-1.848.766 6.321 6.321 0 01-.48-2.425v-2a1 1 0 011-1zM547.833 90a1 1 0 011 1v2c0 .857-.171 1.677-.481 2.425a1 1 0 11-1.847-.766c.211-.51.328-1.07.328-1.659v-2a1 1 0 011-1zM523.535 97.546a.999.999 0 011.306-.541 4.32 4.32 0 001.659.328h2a1 1 0 010 2h-2c-.857 0-1.677-.17-2.425-.48a1 1 0 01-.54-1.307zM545.465 97.546a.999.999 0 01-.541 1.306 6.312 6.312 0 01-2.424.481h-2a1 1 0 010-2h2c.589 0 1.149-.117 1.658-.328a1 1 0 011.307.54zM531.5 98.333a1 1 0 011-1h4a1 1 0 010 2h-4a1 1 0 01-1-1zM545.874 75.121a1 1 0 00-1.415-1.414l-1.328 1.329a1 1 0 001.414 1.414l1.329-1.329zM541.889 79.106a1 1 0 00-1.414-1.414l-2.657 2.657a1 1 0 101.414 1.414l2.657-2.657zM536.576 84.42a1.001 1.001 0 00-1.415-1.415l-.661.662-.662-.662a1 1 0 10-1.414 1.414l.662.662-.581.58a1 1 0 101.414 1.415l.581-.58.581.58a1 1 0 101.414-1.414l-.581-.581.662-.662zM531.263 89.733a1 1 0 00-1.415-1.415l-2.656 2.657a1 1 0 101.414 1.414l2.657-2.656zM525.949 95.046a1 1 0 10-1.414-1.415l-1.328 1.329a1 1 0 101.414 1.414l1.328-1.328zM544.379 96.374a1 1 0 101.414-1.414l-1.329-1.329a1 1 0 10-1.414 1.415l1.329 1.328zM540.394 92.389a1 1 0 101.414-1.414l-2.657-2.657a1 1 0 10-1.414 1.415l2.657 2.656zM529.767 81.763a1.001 1.001 0 001.415-1.414l-2.657-2.657a1 1 0 10-1.414 1.414l2.656 2.657zM524.454 76.45a1.001 1.001 0 001.415-1.415l-1.329-1.328a1 1 0 10-1.414 1.414l1.328 1.329zM530.574 78.186c.398-.12.82-.186 1.259-.186h1a1 1 0 000-2h-1c-.638 0-1.255.095-1.838.271a1 1 0 10.579 1.915zM536.167 76a1 1 0 100 2h1c.439 0 .861.065 1.258.186a1 1 0 10.58-1.915 6.332 6.332 0 00-1.838-.27h-1zM527.685 81.075a1 1 0 10-1.914-.58 6.323 6.323 0 00-.271 1.838v1a1 1 0 002 0v-1c0-.439.065-.861.185-1.258zM543.229 80.495a1 1 0 00-1.915.58c.121.397.186.82.186 1.258v1a1 1 0 002 0v-1c0-.638-.095-1.255-.271-1.838zM527.5 86.667a1 1 0 00-2 0v1c0 .638.094 1.255.271 1.838a1 1 0 001.914-.58 4.344 4.344 0 01-.185-1.258v-1zM543.5 86.667a1 1 0 00-2 0v1c0 .44-.065.861-.186 1.258a1 1 0 001.915.58c.176-.583.271-1.2.271-1.838v-1zM530.574 91.815a1 1 0 00-.579 1.914c.583.177 1.2.271 1.838.271h1a1 1 0 000-2h-1c-.439 0-.861-.065-1.259-.185zM539.005 93.729a1 1 0 10-.58-1.914 4.33 4.33 0 01-1.258.185h-1a1 1 0 100 2h1c.637 0 1.255-.094 1.838-.271zM569.493 80h-1.826V65.917h-4.974v-1.622h11.774v1.622h-4.974V80zm9.112 0h-1.783V68.227h1.783V80zm-1.933-14.964c0-.408.1-.705.301-.892.2-.193.451-.29.752-.29.286 0 .533.097.741.29.208.194.311.491.311.892s-.103.702-.311.903c-.208.193-.455.29-.741.29a1.04 1.04 0 01-.752-.29c-.201-.201-.301-.502-.301-.903zm9.767 13.707c.316 0 .62-.021.914-.064.293-.05.526-.1.698-.15v1.364c-.194.093-.48.168-.86.225a5.974 5.974 0 01-1.009.097c-2.278 0-3.416-1.2-3.416-3.599v-7.004h-1.687v-.86l1.687-.74.752-2.514h1.031v2.729h3.416v1.385h-3.416v6.929c0 .709.168 1.253.505 1.633.336.38.798.57 1.385.57zM592.447 80h-1.783V63.285h1.783V80zm9.005.215c-1.74 0-3.115-.53-4.125-1.59-1.002-1.06-1.504-2.532-1.504-4.415 0-1.898.466-3.405 1.397-4.522.938-1.118 2.195-1.676 3.77-1.676 1.475 0 2.643.487 3.502 1.46.86.968 1.289 2.246 1.289 3.836v1.127h-8.11c.036 1.383.383 2.432 1.042 3.148.666.716 1.6 1.074 2.804 1.074 1.267 0 2.52-.265 3.759-.795v1.59a9.104 9.104 0 01-1.794.58c-.558.122-1.235.183-2.03.183zm-.483-10.71c-.946 0-1.701.308-2.267.924-.558.616-.888 1.468-.988 2.556h6.155c0-1.124-.251-1.983-.752-2.578-.501-.601-1.217-.902-2.148-.902z" fill="#fff"/><path d="M575.859 99.725c0 2.356-.641 4.16-1.923 5.41-1.276 1.243-3.116 1.865-5.518 1.865h-3.955V92.723h4.375c2.22 0 3.945.615 5.176 1.845 1.23 1.23 1.845 2.95 1.845 5.157zm-1.757.058c0-1.862-.469-3.265-1.407-4.209-.931-.944-2.317-1.416-4.16-1.416h-2.412v11.406h2.022c1.979 0 3.466-.485 4.462-1.455.997-.976 1.495-2.418 1.495-4.326zm9.378 7.412c-1.582 0-2.832-.481-3.75-1.445-.911-.964-1.367-2.301-1.367-4.014 0-1.725.423-3.095 1.269-4.111.853-1.016 1.996-1.523 3.428-1.523 1.341 0 2.402.442 3.184 1.328.781.879 1.172 2.04 1.172 3.486v1.025h-7.373c.032 1.257.348 2.211.947 2.862.605.651 1.455.976 2.549.976 1.152 0 2.291-.241 3.418-.722v1.445a8.31 8.31 0 01-1.631.527c-.508.111-1.123.166-1.846.166zm-.439-9.736c-.86 0-1.547.28-2.061.84-.508.56-.807 1.334-.898 2.324h5.595c0-1.022-.228-1.803-.683-2.344-.456-.547-1.107-.82-1.953-.82zm14.202 6.621c0 .996-.371 1.764-1.113 2.305-.742.54-1.784.81-3.125.81-1.419 0-2.526-.224-3.32-.674v-1.503c.514.26 1.064.465 1.65.615.593.15 1.162.224 1.709.224.846 0 1.498-.133 1.953-.4.456-.273.684-.687.684-1.24 0-.417-.182-.772-.547-1.065-.358-.299-1.061-.651-2.109-1.054-.996-.371-1.706-.694-2.129-.967-.417-.28-.729-.596-.938-.947-.202-.352-.303-.772-.303-1.26 0-.873.355-1.56 1.065-2.06.71-.508 1.683-.762 2.92-.762 1.152 0 2.278.234 3.379.703l-.576 1.318c-1.075-.443-2.048-.664-2.92-.664-.769 0-1.348.12-1.739.361-.39.241-.586.573-.586.996 0 .287.072.531.215.733.15.202.388.394.713.576.326.182.951.446 1.875.791 1.27.462 2.126.928 2.569 1.396.449.469.673 1.058.673 1.768zm7.074 3.115c-1.549 0-2.75-.475-3.603-1.425-.847-.958-1.27-2.308-1.27-4.053 0-1.79.43-3.174 1.289-4.15.866-.977 2.097-1.465 3.692-1.465.514 0 1.028.055 1.543.166.514.11.918.24 1.211.39l-.499 1.377a7.261 7.261 0 00-1.171-.351 5.074 5.074 0 00-1.123-.147c-2.175 0-3.262 1.387-3.262 4.16 0 1.315.264 2.324.791 3.028.534.703 1.321 1.054 2.363 1.054.892 0 1.807-.192 2.744-.576v1.436c-.716.371-1.618.556-2.705.556zm10.287-11.093c.475 0 .902.039 1.279.117l-.224 1.504a5.527 5.527 0 00-1.172-.147c-.866 0-1.608.352-2.227 1.055-.612.703-.918 1.579-.918 2.627V107h-1.621V96.297h1.338l.186 1.982h.078c.397-.696.875-1.233 1.435-1.611a3.232 3.232 0 011.846-.566zM619.656 107h-1.621V96.297h1.621V107zm-1.758-13.603c0-.372.092-.642.274-.811a.945.945 0 01.683-.264c.261 0 .485.088.674.264.189.176.283.446.283.81 0 .365-.094.638-.283.82a.955.955 0 01-.674.265.944.944 0 01-.683-.264c-.182-.183-.274-.456-.274-.82zm10.326 13.798a4.72 4.72 0 01-1.914-.381 3.626 3.626 0 01-1.445-1.191h-.117c.078.625.117 1.217.117 1.777v4.405h-1.621V96.297h1.318l.225 1.465h.078c.417-.586.902-1.01 1.455-1.27s1.188-.39 1.904-.39c1.419 0 2.513.485 3.281 1.455.775.97 1.163 2.33 1.163 4.082 0 1.757-.394 3.125-1.182 4.101-.781.97-1.869 1.455-3.262 1.455zm-.234-9.716c-1.094 0-1.885.302-2.373.908-.488.605-.739 1.569-.752 2.89v.362c0 1.504.25 2.581.752 3.232.501.645 1.305.967 2.412.967.924 0 1.647-.374 2.168-1.123.527-.749.791-1.781.791-3.096 0-1.334-.264-2.357-.791-3.066-.521-.716-1.257-1.075-2.207-1.075zm11.126 8.378c.287 0 .564-.019.83-.058a5.92 5.92 0 00.635-.137v1.24c-.176.085-.436.153-.781.205a5.398 5.398 0 01-.918.088c-2.07 0-3.105-1.09-3.105-3.271v-6.367h-1.534v-.782l1.534-.673.683-2.286h.938v2.48h3.105v1.26h-3.105v6.299c0 .645.153 1.14.459 1.485.306.345.726.517 1.259.517zm5.385 1.143h-1.621V96.297h1.621V107zm-1.758-13.603c0-.372.091-.642.273-.811a.949.949 0 01.684-.264c.26 0 .485.088.674.264.189.176.283.446.283.81 0 .365-.094.638-.283.82a.957.957 0 01-.674.265.948.948 0 01-.684-.264c-.182-.183-.273-.456-.273-.82zm14.584 8.242c0 1.744-.44 3.108-1.319 4.091-.879.977-2.093 1.465-3.642 1.465-.957 0-1.807-.224-2.549-.674-.742-.449-1.315-1.093-1.719-1.933-.404-.84-.605-1.823-.605-2.949 0-1.745.436-3.102 1.308-4.073.873-.976 2.084-1.464 3.633-1.464 1.497 0 2.686.498 3.564 1.494.886.996 1.329 2.343 1.329 4.043zm-8.155 0c0 1.367.274 2.409.821 3.125.546.716 1.35 1.074 2.412 1.074 1.061 0 1.865-.355 2.412-1.065.553-.716.83-1.761.83-3.134 0-1.361-.277-2.393-.83-3.096-.547-.71-1.358-1.065-2.432-1.065-1.061 0-1.862.349-2.402 1.045-.541.697-.811 1.735-.811 3.116zm18.48 5.361v-6.924c0-.872-.198-1.523-.595-1.953-.397-.43-1.019-.645-1.866-.645-1.119 0-1.94.303-2.461.909-.52.605-.781 1.605-.781 2.998V107h-1.621V96.297h1.318l.264 1.465h.078a3.28 3.28 0 011.397-1.221c.599-.293 1.266-.44 2.002-.44 1.289 0 2.259.313 2.91.938.651.619.976 1.611.976 2.979V107h-1.621z" fill="#B7B9C3"/><path d="M891.95 81.55l-2.5-2.5-6.95 6.9-6.95-6.9-2.5 2.5 9.45 9.4 9.45-9.4z" fill="#fff"/><rect x="499" y="41.5" width="415" height="87" rx="3.5" stroke="#6A6E79"/></svg>