<svg width="628" height="57" viewBox="0 0 628 57" fill="none" xmlns="http://www.w3.org/2000/svg">
<path d="M17.1572 30.7349C17.1572 31.6372 16.8314 32.3481 16.1797 32.8677C15.5326 33.3872 14.6302 33.647 13.4727 33.647C12.4062 33.647 11.4629 33.4465 10.6426 33.0454V31.0767C11.3171 31.3774 11.8867 31.5894 12.3516 31.7124C12.821 31.8354 13.2493 31.897 13.6367 31.897C14.1016 31.897 14.457 31.8081 14.7031 31.6304C14.9538 31.4526 15.0791 31.1883 15.0791 30.8374C15.0791 30.6414 15.0244 30.4683 14.915 30.3179C14.8057 30.1629 14.6439 30.0148 14.4297 29.8735C14.2201 29.7323 13.7894 29.5067 13.1377 29.1968C12.527 28.9097 12.069 28.634 11.7637 28.3696C11.4583 28.1053 11.2145 27.7977 11.0322 27.4468C10.8499 27.0959 10.7588 26.6857 10.7588 26.2163C10.7588 25.3322 11.0573 24.6372 11.6543 24.1313C12.2559 23.6255 13.0853 23.3726 14.1426 23.3726C14.6621 23.3726 15.1566 23.4341 15.626 23.5571C16.0999 23.6802 16.5944 23.8534 17.1094 24.0767L16.4258 25.7241C15.8926 25.5054 15.4505 25.3527 15.0996 25.2661C14.7533 25.1795 14.4115 25.1362 14.0742 25.1362C13.6732 25.1362 13.3656 25.2297 13.1514 25.4165C12.9372 25.6034 12.8301 25.8472 12.8301 26.1479C12.8301 26.3348 12.8734 26.4989 12.96 26.6401C13.0465 26.7769 13.1833 26.9113 13.3701 27.0435C13.5615 27.1711 14.0104 27.4035 14.7168 27.7407C15.651 28.1873 16.2913 28.6362 16.6377 29.0874C16.984 29.534 17.1572 30.0832 17.1572 30.7349ZM21.9404 31.9858C22.305 31.9858 22.7425 31.9061 23.2529 31.7466V33.2983C22.7334 33.5308 22.0954 33.647 21.3389 33.647C20.5049 33.647 19.8965 33.4373 19.5137 33.0181C19.1354 32.5942 18.9463 31.9608 18.9463 31.1177V27.4331H17.9482V26.5513L19.0967 25.854L19.6982 24.2407H21.0312V25.8677H23.1709V27.4331H21.0312V31.1177C21.0312 31.4139 21.1133 31.6326 21.2773 31.7739C21.4459 31.9152 21.667 31.9858 21.9404 31.9858ZM26.3818 29.6753C26.3818 30.4318 26.5049 31.0037 26.7509 31.3911C27.0016 31.7785 27.4072 31.9722 27.9677 31.9722C28.5237 31.9722 28.9225 31.7808 29.164 31.3979C29.4101 31.0106 29.5332 30.4364 29.5332 29.6753C29.5332 28.9188 29.4101 28.3514 29.164 27.9731C28.9179 27.5949 28.5146 27.4058 27.9541 27.4058C27.3981 27.4058 26.997 27.5949 26.7509 27.9731C26.5049 28.3468 26.3818 28.9142 26.3818 29.6753ZM31.666 29.6753C31.666 30.9194 31.3379 31.8924 30.6816 32.5942C30.0254 33.2961 29.1116 33.647 27.9404 33.647C27.2067 33.647 26.5595 33.4875 25.999 33.1685C25.4384 32.8449 25.0078 32.3823 24.707 31.7808C24.4062 31.1792 24.2558 30.4774 24.2558 29.6753C24.2558 28.4266 24.5817 27.4559 25.2334 26.7632C25.8851 26.0705 26.8011 25.7241 27.9814 25.7241C28.7151 25.7241 29.3623 25.8836 29.9228 26.2026C30.4834 26.5216 30.914 26.9797 31.2148 27.5767C31.5156 28.1737 31.666 28.8732 31.666 29.6753ZM35.3076 29.354L36.2167 28.1919L38.3564 25.8677H40.708L37.6728 29.1831L40.8925 33.5103H38.4863L36.2851 30.4136L35.3896 31.1313V33.5103H33.3046V22.8735H35.3896V27.6177L35.2802 29.354H35.3076ZM45.0673 27.2075C44.6253 27.2075 44.2789 27.3488 44.0283 27.6313C43.7776 27.9093 43.6341 28.3058 43.5976 28.8208H46.5234C46.5143 28.3058 46.3798 27.9093 46.1201 27.6313C45.8603 27.3488 45.5094 27.2075 45.0673 27.2075ZM45.3613 33.647C44.1308 33.647 43.1692 33.3075 42.4765 32.6284C41.7838 31.9494 41.4374 30.9878 41.4374 29.7437C41.4374 28.4631 41.7564 27.4741 42.3945 26.7769C43.037 26.075 43.9234 25.7241 45.0536 25.7241C46.1337 25.7241 46.9745 26.0317 47.5761 26.647C48.1777 27.2622 48.4785 28.1121 48.4785 29.1968V30.2085H43.5497C43.5725 30.8009 43.748 31.2635 44.0761 31.5962C44.4042 31.9289 44.8645 32.0952 45.457 32.0952C45.9173 32.0952 46.3525 32.0474 46.7626 31.9517C47.1728 31.856 47.6012 31.7033 48.0478 31.4937V33.1069C47.6832 33.2892 47.2936 33.4237 46.8788 33.5103C46.4641 33.6014 45.9583 33.647 45.3613 33.647ZM49.7958 32.5327C49.7958 32.1499 49.8984 31.8605 50.1034 31.6646C50.3085 31.4686 50.607 31.3706 50.9989 31.3706C51.3772 31.3706 51.6689 31.4709 51.8739 31.6714C52.0836 31.8719 52.1884 32.159 52.1884 32.5327C52.1884 32.8927 52.0836 33.1776 51.8739 33.3872C51.6643 33.5923 51.3726 33.6948 50.9989 33.6948C50.6161 33.6948 50.3199 33.5946 50.1103 33.394C49.9006 33.189 49.7958 32.9019 49.7958 32.5327ZM49.7958 26.8862C49.7958 26.5034 49.8984 26.214 50.1034 26.0181C50.3085 25.8221 50.607 25.7241 50.9989 25.7241C51.3772 25.7241 51.6689 25.8244 51.8739 26.0249C52.0836 26.2254 52.1884 26.5125 52.1884 26.8862C52.1884 27.2554 52.0813 27.5425 51.8671 27.7476C51.6575 27.9481 51.3681 28.0483 50.9989 28.0483C50.6161 28.0483 50.3199 27.9481 50.1103 27.7476C49.9006 27.547 49.7958 27.2599 49.7958 26.8862ZM64.1815 31.2134H62.6981V33.5103H61.6112V31.2134H56.7509V30.2222L61.495 23.4614H62.6981V30.1812H64.1815V31.2134ZM61.6112 30.1812V26.8589C61.6112 26.2072 61.634 25.4712 61.6796 24.6509H61.6249C61.4061 25.0884 61.2011 25.4507 61.0097 25.7378L57.8856 30.1812H61.6112ZM70.6874 32.5054H70.6259C70.1018 33.2664 69.3179 33.647 68.2743 33.647C67.2945 33.647 66.5311 33.312 65.9842 32.6421C65.4419 31.9722 65.1708 31.0197 65.1708 29.7847C65.1708 28.5496 65.4442 27.5903 65.9911 26.9067C66.538 26.2231 67.299 25.8813 68.2743 25.8813C69.2906 25.8813 70.0699 26.2505 70.6122 26.9888H70.701L70.6532 26.4487L70.6259 25.9224V22.8735H71.7606V33.5103H70.8378L70.6874 32.5054ZM68.4178 32.6968C69.1926 32.6968 69.7531 32.4871 70.0995 32.0679C70.4504 31.644 70.6259 30.9627 70.6259 30.0239V29.7847C70.6259 28.7228 70.4481 27.9663 70.0926 27.5151C69.7417 27.0594 69.1789 26.8315 68.4042 26.8315C67.7388 26.8315 67.2284 27.0913 66.8729 27.6108C66.522 28.1258 66.3466 28.855 66.3466 29.7983C66.3466 30.7554 66.522 31.4777 66.8729 31.9653C67.2238 32.453 67.7388 32.6968 68.4178 32.6968ZM77.576 33.647C77.0884 33.647 76.6418 33.5581 76.2362 33.3804C75.8351 33.1981 75.4979 32.9201 75.2245 32.5464H75.1424C75.1971 32.9839 75.2245 33.3986 75.2245 33.7905V36.8735H74.0897V26.0181H75.0126L75.1698 27.0435H75.2245C75.5161 26.6333 75.8557 26.3371 76.243 26.1548C76.6304 25.9725 77.0747 25.8813 77.576 25.8813C78.5695 25.8813 79.3351 26.2209 79.8729 26.8999C80.4152 27.5789 80.6864 28.5314 80.6864 29.7573C80.6864 30.9878 80.4107 31.9448 79.8592 32.6284C79.3124 33.3075 78.5513 33.647 77.576 33.647ZM77.412 26.8452C76.6463 26.8452 76.0926 27.0571 75.7508 27.481C75.409 27.9048 75.2336 28.5793 75.2245 29.5044V29.7573C75.2245 30.8101 75.3999 31.5643 75.7508 32.02C76.1017 32.4712 76.6646 32.6968 77.4393 32.6968C78.0864 32.6968 78.5923 32.4347 78.9569 31.9106C79.326 31.3866 79.5106 30.6642 79.5106 29.7437C79.5106 28.8094 79.326 28.0939 78.9569 27.5972C78.5923 27.0959 78.0773 26.8452 77.412 26.8452Z" fill="black"/>
<path d="M1 54.5103V2.51025H141.678V12.6073L149 20.1802L141.678 27.2481V54.5103H1Z" stroke="#CCCCCC"/>
<g clip-path="url(#clip0_7211_84622)">
<rect x="204" y="0.510254" width="322" height="56" rx="4" fill="white"/>
<path d="M232 16.177C231.411 16.177 230.851 16.2941 230.342 16.5054C229.831 16.717 229.246 16.4749 229.035 15.9648C228.823 15.4546 229.065 14.8695 229.575 14.658C230.324 14.3477 231.143 14.177 232 14.177H234C234.552 14.177 235 14.6247 235 15.177C235 15.7293 234.552 16.177 234 16.177H232Z" fill="#363545"/>
<path d="M237 15.177C237 14.6247 237.448 14.177 238 14.177H242C242.552 14.177 243 14.6247 243 15.177C243 15.7293 242.552 16.177 242 16.177H238C237.448 16.177 237 15.7293 237 15.177Z" fill="#363545"/>
<path d="M245 15.177C245 14.6247 245.448 14.177 246 14.177H248C248.857 14.177 249.676 14.3477 250.425 14.658C250.935 14.8695 251.177 15.4546 250.965 15.9648C250.754 16.4749 250.169 16.717 249.658 16.5054C249.149 16.2941 248.589 16.177 248 16.177H246C245.448 16.177 245 15.7293 245 15.177Z" fill="#363545"/>
<path d="M227.454 17.5451C227.965 17.7566 228.207 18.3417 227.995 18.8519C227.784 19.3614 227.667 19.9209 227.667 20.5103V22.5103C227.667 23.0626 227.219 23.5103 226.667 23.5103C226.114 23.5103 225.667 23.0626 225.667 22.5103V20.5103C225.667 19.6534 225.837 18.8339 226.148 18.0857C226.359 17.5756 226.944 17.3335 227.454 17.5451Z" fill="#363545"/>
<path d="M252.546 17.5451C253.056 17.3335 253.641 17.5756 253.852 18.0857C254.163 18.8339 254.333 19.6534 254.333 20.5103V22.5103C254.333 23.0626 253.886 23.5103 253.333 23.5103C252.781 23.5103 252.333 23.0626 252.333 22.5103V20.5103C252.333 19.9209 252.216 19.3614 252.005 18.8519C251.793 18.3417 252.035 17.7566 252.546 17.5451Z" fill="#363545"/>
<path d="M226.667 25.5103C227.219 25.5103 227.667 25.9581 227.667 26.5103V30.5103C227.667 31.0626 227.219 31.5103 226.667 31.5103C226.114 31.5103 225.667 31.0626 225.667 30.5103V26.5103C225.667 25.9581 226.114 25.5103 226.667 25.5103Z" fill="#363545"/>
<path d="M253.333 25.5103C253.886 25.5103 254.333 25.9581 254.333 26.5103V30.5103C254.333 31.0626 253.886 31.5103 253.333 31.5103C252.781 31.5103 252.333 31.0626 252.333 30.5103V26.5103C252.333 25.9581 252.781 25.5103 253.333 25.5103Z" fill="#363545"/>
<path d="M226.667 33.5103C227.219 33.5103 227.667 33.9581 227.667 34.5103V36.5103C227.667 37.0997 227.784 37.6593 227.995 38.1688C228.207 38.679 227.965 39.264 227.454 39.4756C226.944 39.6872 226.359 39.4451 226.148 38.9349C225.837 38.1868 225.667 37.3672 225.667 36.5103V34.5103C225.667 33.9581 226.114 33.5103 226.667 33.5103Z" fill="#363545"/>
<path d="M253.333 33.5103C253.886 33.5103 254.333 33.9581 254.333 34.5103V36.5103C254.333 37.3672 254.163 38.1868 253.852 38.9349C253.641 39.4451 253.056 39.6872 252.546 39.4756C252.035 39.264 251.793 38.679 252.005 38.1688C252.216 37.6593 252.333 37.0997 252.333 36.5103V34.5103C252.333 33.9581 252.781 33.5103 253.333 33.5103Z" fill="#363545"/>
<path d="M229.035 41.0559C229.246 40.5458 229.831 40.3037 230.342 40.5152C230.851 40.7265 231.411 40.8437 232 40.8437H234C234.552 40.8437 235 41.2914 235 41.8437C235 42.396 234.552 42.8437 234 42.8437H232C231.143 42.8437 230.324 42.6729 229.575 42.3627C229.065 42.1511 228.823 41.5661 229.035 41.0559Z" fill="#363545"/>
<path d="M250.965 41.0559C251.177 41.5661 250.935 42.1511 250.425 42.3627C249.676 42.6729 248.857 42.8437 248 42.8437H246C245.448 42.8437 245 42.396 245 41.8437C245 41.2914 245.448 40.8437 246 40.8437H248C248.589 40.8437 249.149 40.7265 249.658 40.5152C250.169 40.3037 250.754 40.5458 250.965 41.0559Z" fill="#363545"/>
<path d="M237 41.8437C237 41.2914 237.448 40.8437 238 40.8437H242C242.552 40.8437 243 41.2914 243 41.8437C243 42.396 242.552 42.8437 242 42.8437H238C237.448 42.8437 237 42.396 237 41.8437Z" fill="#363545"/>
<path d="M251.374 18.6317C251.764 18.2411 251.764 17.608 251.374 17.2174C250.983 16.8269 250.35 16.8269 249.96 17.2174L248.631 18.5457C248.241 18.9362 248.241 19.5694 248.631 19.9599C249.022 20.3505 249.655 20.3505 250.045 19.9599L251.374 18.6317Z" fill="#363545"/>
<path d="M247.389 22.6165C247.779 22.226 247.779 21.5928 247.389 21.2023C246.998 20.8118 246.365 20.8118 245.975 21.2023L243.318 23.8588C242.928 24.2494 242.928 24.8825 243.318 25.273C243.709 25.6636 244.342 25.6636 244.732 25.273L247.389 22.6165Z" fill="#363545"/>
<path d="M242.076 27.9296C242.466 27.5391 242.466 26.9059 242.076 26.5154C241.685 26.1249 241.052 26.1249 240.662 26.5154L240 27.177L239.338 26.5154C238.948 26.1249 238.315 26.1249 237.924 26.5154C237.534 26.9059 237.534 27.5391 237.924 27.9296L238.586 28.5912L238.005 29.1719C237.615 29.5625 237.615 30.1956 238.005 30.5862C238.396 30.9767 239.029 30.9767 239.419 30.5862L240 30.0054L240.581 30.5862C240.971 30.9767 241.604 30.9767 241.995 30.5862C242.385 30.1956 242.385 29.5625 241.995 29.1719L241.414 28.5912L242.076 27.9296Z" fill="#363545"/>
<path d="M236.763 33.2427C237.153 32.8522 237.153 32.219 236.763 31.8285C236.372 31.438 235.739 31.438 235.349 31.8285L232.692 34.4851C232.301 34.8756 232.301 35.5088 232.692 35.8993C233.082 36.2898 233.716 36.2898 234.106 35.8993L236.763 33.2427Z" fill="#363545"/>
<path d="M231.45 38.5558C231.84 38.1653 231.84 37.5321 231.45 37.1416C231.059 36.7511 230.426 36.7511 230.035 37.1416L228.707 38.4699C228.317 38.8604 228.317 39.4936 228.707 39.8841C229.098 40.2746 229.731 40.2746 230.121 39.8841L231.45 38.5558Z" fill="#363545"/>
<path d="M249.879 39.8841C250.269 40.2746 250.902 40.2746 251.293 39.8841C251.683 39.4936 251.683 38.8604 251.293 38.4699L249.965 37.1416C249.574 36.7511 248.941 36.7511 248.55 37.1416C248.16 37.5321 248.16 38.1653 248.55 38.5558L249.879 39.8841Z" fill="#363545"/>
<path d="M245.894 35.8993C246.284 36.2898 246.918 36.2898 247.308 35.8993C247.699 35.5088 247.699 34.8756 247.308 34.4851L244.652 31.8285C244.261 31.438 243.628 31.438 243.237 31.8285C242.847 32.219 242.847 32.8522 243.237 33.2427L245.894 35.8993Z" fill="#363545"/>
<path d="M235.268 25.273C235.658 25.6636 236.291 25.6636 236.682 25.273C237.072 24.8825 237.072 24.2494 236.682 23.8588L234.025 21.2023C233.635 20.8118 233.002 20.8118 232.611 21.2023C232.221 21.5928 232.221 22.226 232.611 22.6165L235.268 25.273Z" fill="#363545"/>
<path d="M229.955 19.9599C230.345 20.3505 230.978 20.3505 231.369 19.9599C231.759 19.5694 231.759 18.9362 231.369 18.5457L230.04 17.2174C229.65 16.8269 229.017 16.8269 228.626 17.2174C228.236 17.608 228.236 18.2411 228.626 18.6317L229.955 19.9599Z" fill="#363545"/>
<path d="M236.075 21.6957C236.472 21.5754 236.894 21.5103 237.333 21.5103H238.333C238.886 21.5103 239.333 21.0626 239.333 20.5103C239.333 19.9581 238.886 19.5103 238.333 19.5103H237.333C236.695 19.5103 236.078 19.605 235.495 19.7816C234.966 19.9418 234.667 20.5001 234.828 21.0286C234.988 21.5572 235.546 21.8559 236.075 21.6957Z" fill="#363545"/>
<path d="M241.667 19.5103C241.114 19.5103 240.667 19.9581 240.667 20.5103C240.667 21.0626 241.114 21.5103 241.667 21.5103H242.667C243.106 21.5103 243.528 21.5754 243.925 21.6957C244.454 21.8559 245.012 21.5572 245.172 21.0286C245.333 20.5001 245.034 19.9418 244.505 19.7816C243.922 19.605 243.305 19.5103 242.667 19.5103H241.667Z" fill="#363545"/>
<path d="M233.185 24.5849C233.346 24.0564 233.047 23.4981 232.518 23.3379C231.99 23.1778 231.431 23.4764 231.271 24.005C231.095 24.5881 231 25.2057 231 25.8437V26.8437C231 27.396 231.448 27.8437 232 27.8437C232.552 27.8437 233 27.396 233 26.8437V25.8437C233 25.4044 233.065 24.9821 233.185 24.5849Z" fill="#363545"/>
<path d="M248.729 24.005C248.569 23.4764 248.01 23.1778 247.482 23.3379C246.953 23.4981 246.654 24.0564 246.815 24.5849C246.935 24.9821 247 25.4044 247 25.8437V26.8437C247 27.396 247.448 27.8437 248 27.8437C248.552 27.8437 249 27.396 249 26.8437V25.8437C249 25.2057 248.905 24.5881 248.729 24.005Z" fill="#363545"/>
<path d="M233 30.177C233 29.6247 232.552 29.177 232 29.177C231.448 29.177 231 29.6247 231 30.177V31.177C231 31.8149 231.095 32.4326 231.271 33.0157C231.431 33.5442 231.99 33.8429 232.518 33.6828C233.047 33.5226 233.346 32.9643 233.185 32.4358C233.065 32.0386 233 31.6163 233 31.177V30.177Z" fill="#363545"/>
<path d="M249 30.177C249 29.6247 248.552 29.177 248 29.177C247.448 29.177 247 29.6247 247 30.177V31.177C247 31.6163 246.935 32.0386 246.815 32.4358C246.654 32.9643 246.953 33.5226 247.482 33.6828C248.01 33.8429 248.569 33.5442 248.729 33.0157C248.905 32.4326 249 31.8149 249 31.177V30.177Z" fill="#363545"/>
<path d="M236.075 35.325C235.546 35.1648 234.988 35.4635 234.828 35.992C234.667 36.5206 234.966 37.0789 235.495 37.239C236.078 37.4157 236.695 37.5103 237.333 37.5103H238.333C238.886 37.5103 239.333 37.0626 239.333 36.5103C239.333 35.9581 238.886 35.5103 238.333 35.5103H237.333C236.894 35.5103 236.472 35.4453 236.075 35.325Z" fill="#363545"/>
<path d="M244.505 37.239C245.034 37.0789 245.333 36.5206 245.172 35.992C245.012 35.4635 244.454 35.1648 243.925 35.325C243.528 35.4453 243.106 35.5103 242.667 35.5103H241.667C241.114 35.5103 240.667 35.9581 240.667 36.5103C240.667 37.0626 241.114 37.5103 241.667 37.5103H242.667C243.305 37.5103 243.922 37.4157 244.505 37.239Z" fill="#363545"/>
<path d="M274.993 37.5103H273.167V23.4272H268.193V21.8052H279.967V23.4272H274.993V37.5103ZM284.105 37.5103H282.322V25.7368H284.105V37.5103ZM282.172 22.5464C282.172 22.1382 282.272 21.841 282.473 21.6548C282.673 21.4614 282.924 21.3647 283.225 21.3647C283.511 21.3647 283.758 21.4614 283.966 21.6548C284.174 21.8481 284.277 22.1453 284.277 22.5464C284.277 22.9474 284.174 23.2482 283.966 23.4487C283.758 23.6421 283.511 23.7388 283.225 23.7388C282.924 23.7388 282.673 23.6421 282.473 23.4487C282.272 23.2482 282.172 22.9474 282.172 22.5464ZM291.939 36.2534C292.255 36.2534 292.559 36.2319 292.853 36.189C293.146 36.1388 293.379 36.0887 293.551 36.0386V37.4028C293.357 37.4959 293.071 37.5711 292.691 37.6284C292.319 37.6929 291.982 37.7251 291.682 37.7251C289.404 37.7251 288.266 36.5256 288.266 34.1265V27.1226H286.579V26.2632L288.266 25.522L289.018 23.0083H290.049V25.7368H293.465V27.1226H290.049V34.0513C290.049 34.7603 290.217 35.3045 290.554 35.6841C290.89 36.0636 291.352 36.2534 291.939 36.2534ZM297.947 37.5103H296.164V20.7954H297.947V37.5103ZM306.952 37.7251C305.212 37.7251 303.837 37.1951 302.827 36.1353C301.825 35.0754 301.323 33.6037 301.323 31.7202C301.323 29.8224 301.789 28.3149 302.72 27.1978C303.658 26.0806 304.915 25.522 306.49 25.522C307.965 25.522 309.133 26.009 309.992 26.9829C310.852 27.9497 311.281 29.228 311.281 30.8179V31.9458H303.171C303.207 33.328 303.554 34.3771 304.213 35.0933C304.879 35.8094 305.813 36.1675 307.017 36.1675C308.284 36.1675 309.537 35.9025 310.776 35.3726V36.9624C310.146 37.2345 309.548 37.4279 308.982 37.5425C308.424 37.6642 307.747 37.7251 306.952 37.7251ZM306.469 27.0151C305.523 27.0151 304.768 27.3231 304.202 27.939C303.644 28.5549 303.314 29.4071 303.214 30.4956H309.369C309.369 29.3713 309.118 28.5119 308.617 27.9175C308.116 27.3159 307.4 27.0151 306.469 27.0151Z" fill="#252A2E"/>
<path d="M503.45 25.0603L500.95 22.5603L494 29.4603L487.05 22.5603L484.55 25.0603L494 34.4603L503.45 25.0603Z" fill="#252A2E"/>
</g>
<rect x="206" y="2.51025" width="318" height="52" rx="2" stroke="#0084FF" stroke-width="4"/>
<path d="M565.875 1H574.875V55H565.875" stroke="#4091D2"/>
<path d="M583.842 26.8845C584.67 26.8845 585.329 27.1169 585.817 27.5818C586.309 28.0466 586.555 28.6833 586.555 29.4919C586.555 30.449 586.26 31.1853 585.67 31.7009C585.081 32.2166 584.237 32.4744 583.139 32.4744C582.186 32.4744 581.417 32.3201 580.831 32.0115V30.447C581.139 30.6111 581.499 30.7458 581.909 30.8513C582.319 30.9529 582.708 31.0037 583.075 31.0037C584.18 31.0037 584.733 30.5505 584.733 29.6443C584.733 28.781 584.161 28.3494 583.016 28.3494C582.809 28.3494 582.581 28.3708 582.331 28.4138C582.081 28.4529 581.877 28.4958 581.721 28.5427L581 28.156L581.323 23.7908H585.969V25.3259H582.911L582.752 27.0076L582.958 26.9666C583.196 26.9119 583.491 26.8845 583.842 26.8845ZM587.45 28.7185C587.45 27.0232 587.807 25.7615 588.522 24.9333C589.241 24.1052 590.315 23.6912 591.745 23.6912C592.233 23.6912 592.616 23.7205 592.893 23.7791V25.2263C592.546 25.1482 592.202 25.1091 591.862 25.1091C591.241 25.1091 590.733 25.2029 590.339 25.3904C589.948 25.5779 589.655 25.8552 589.46 26.2224C589.264 26.5896 589.149 27.1111 589.114 27.7869H589.19C589.577 27.1228 590.196 26.7908 591.048 26.7908C591.813 26.7908 592.413 27.031 592.846 27.5115C593.28 27.9919 593.497 28.656 593.497 29.5037C593.497 30.4177 593.239 31.1423 592.723 31.6775C592.208 32.2087 591.493 32.4744 590.579 32.4744C589.946 32.4744 589.393 32.3279 588.921 32.0349C588.452 31.7419 588.089 31.3142 587.831 30.7517C587.577 30.1892 587.45 29.5115 587.45 28.7185ZM590.544 31.0271C590.93 31.0271 591.227 30.8982 591.434 30.6404C591.641 30.3787 591.745 30.0076 591.745 29.5271C591.745 29.1091 591.647 28.781 591.452 28.5427C591.261 28.3005 590.97 28.1794 590.579 28.1794C590.212 28.1794 589.897 28.2986 589.636 28.5369C589.378 28.7751 589.249 29.0525 589.249 29.3689C589.249 29.8337 589.37 30.2263 589.612 30.5466C589.858 30.8669 590.169 31.0271 590.544 31.0271ZM596.823 32.4744C596.054 32.4744 595.448 32.1755 595.007 31.5779C594.569 30.9802 594.351 30.1521 594.351 29.0935C594.351 28.0193 594.573 27.1833 595.019 26.5857C595.468 25.9841 596.085 25.6833 596.87 25.6833C597.694 25.6833 598.323 26.0037 598.757 26.6443H598.815C598.726 26.156 598.681 25.7205 598.681 25.3376V23.24H600.474V32.3572H599.103L598.757 31.5076H598.681C598.274 32.1521 597.655 32.4744 596.823 32.4744ZM597.45 31.0505C597.907 31.0505 598.241 30.9177 598.452 30.6521C598.667 30.3865 598.784 29.9353 598.804 29.2986V29.1052C598.804 28.4021 598.694 27.8982 598.476 27.5935C598.261 27.2888 597.909 27.1365 597.421 27.1365C597.023 27.1365 596.712 27.3064 596.489 27.6462C596.271 27.9822 596.161 28.4724 596.161 29.1169C596.161 29.7615 596.273 30.2458 596.495 30.5701C596.718 30.8904 597.036 31.0505 597.45 31.0505ZM605.868 32.4744C605.099 32.4744 604.495 32.1951 604.058 31.6365H603.964C604.027 32.1833 604.058 32.4998 604.058 32.5857V35.24H602.271V25.8064H603.724L603.976 26.656H604.058C604.476 26.0076 605.095 25.6833 605.915 25.6833C606.689 25.6833 607.294 25.9822 607.732 26.5798C608.169 27.1775 608.388 28.0076 608.388 29.0701C608.388 29.7693 608.284 30.3767 608.077 30.8923C607.874 31.408 607.583 31.8005 607.204 32.0701C606.826 32.3396 606.38 32.4744 605.868 32.4744ZM605.341 27.113C604.9 27.113 604.577 27.2498 604.374 27.5232C604.171 27.7927 604.066 28.24 604.058 28.865V29.0583C604.058 29.7615 604.161 30.2654 604.368 30.5701C604.579 30.8748 604.911 31.0271 605.365 31.0271C606.165 31.0271 606.566 30.3669 606.566 29.0466C606.566 28.4021 606.466 27.9197 606.267 27.5994C606.072 27.2751 605.763 27.113 605.341 27.113Z" fill="#4091D2"/>
<defs>
<clipPath id="clip0_7211_84622">
<rect x="204" y="0.510254" width="322" height="56" rx="4" fill="white"/>
</clipPath>
</defs>
</svg>
