<svg width="516" height="58" viewBox="0 0 516 58" fill="none" xmlns="http://www.w3.org/2000/svg">
<path d="M14.4209 24.8335H12.6338V16.2671H17.5439V17.7554H14.4209V19.9644H17.3271V21.4468H14.4209V24.8335ZM20.4309 21.5464C20.4309 22.1948 20.5364 22.6851 20.7473 23.0171C20.9622 23.3491 21.3098 23.5151 21.7903 23.5151C22.2669 23.5151 22.6087 23.3511 22.8157 23.0229C23.0266 22.6909 23.1321 22.1987 23.1321 21.5464C23.1321 20.8979 23.0266 20.4116 22.8157 20.0874C22.6048 19.7632 22.2591 19.6011 21.7786 19.6011C21.302 19.6011 20.9583 19.7632 20.7473 20.0874C20.5364 20.4077 20.4309 20.894 20.4309 21.5464ZM24.9602 21.5464C24.9602 22.6128 24.679 23.4468 24.1165 24.0483C23.554 24.6499 22.7708 24.9507 21.7669 24.9507C21.138 24.9507 20.5833 24.814 20.1028 24.5405C19.6223 24.2632 19.2532 23.8667 18.9954 23.3511C18.7376 22.8354 18.6087 22.2339 18.6087 21.5464C18.6087 20.4761 18.888 19.644 19.4466 19.0503C20.0051 18.4565 20.7903 18.1597 21.802 18.1597C22.4309 18.1597 22.9856 18.2964 23.4661 18.5698C23.9466 18.8433 24.3157 19.2358 24.5735 19.7476C24.8313 20.2593 24.9602 20.8589 24.9602 21.5464ZM32.4117 24.8335H30.6246V21.0073C30.6246 20.5347 30.5406 20.1812 30.3726 19.9468C30.2046 19.7085 29.9371 19.5894 29.5699 19.5894C29.0699 19.5894 28.7085 19.7573 28.4859 20.0933C28.2632 20.4253 28.1519 20.978 28.1519 21.7515V24.8335H26.3648V18.2827H27.73L27.9703 19.1206H28.0699C28.2691 18.8042 28.5425 18.5659 28.8902 18.4058C29.2417 18.2417 29.6402 18.1597 30.0855 18.1597C30.8472 18.1597 31.4253 18.3667 31.8199 18.7808C32.2144 19.1909 32.4117 19.7847 32.4117 20.562V24.8335ZM36.9393 23.5269C37.2518 23.5269 37.6268 23.4585 38.0643 23.3218V24.6519C37.619 24.8511 37.0721 24.9507 36.4236 24.9507C35.7088 24.9507 35.1873 24.771 34.8592 24.4116C34.535 24.0483 34.3729 23.5054 34.3729 22.7827V19.6245H33.5174V18.8687L34.5018 18.271L35.0174 16.8882H36.16V18.2827H37.994V19.6245H36.16V22.7827C36.16 23.0366 36.2303 23.2241 36.3709 23.3452C36.5154 23.4663 36.7049 23.5269 36.9393 23.5269ZM38.7423 22.3491V20.8843H41.8888V22.3491H38.7423ZM47.6879 22.8882C47.6879 23.5601 47.4535 24.0718 46.9847 24.4233C46.5199 24.7749 45.8226 24.9507 44.8929 24.9507C44.4164 24.9507 44.0101 24.9175 43.6742 24.8511C43.3382 24.7886 43.0238 24.6948 42.7308 24.5698V23.0933C43.0629 23.2495 43.4359 23.3804 43.85 23.4858C44.2679 23.5913 44.6351 23.644 44.9515 23.644C45.6 23.644 45.9242 23.4565 45.9242 23.0815C45.9242 22.9409 45.8812 22.8276 45.7953 22.7417C45.7093 22.6519 45.5609 22.5522 45.35 22.4429C45.139 22.3296 44.8578 22.1987 44.5062 22.0503C44.0023 21.8394 43.6312 21.644 43.3929 21.4644C43.1586 21.2847 42.9867 21.0796 42.8773 20.8491C42.7718 20.6147 42.7191 20.3276 42.7191 19.9878C42.7191 19.4058 42.9437 18.9565 43.3929 18.6401C43.8461 18.3198 44.4867 18.1597 45.3148 18.1597C46.1039 18.1597 46.8714 18.3315 47.6175 18.6753L47.0785 19.9644C46.7504 19.8237 46.4437 19.7085 46.1586 19.6187C45.8734 19.5288 45.5824 19.4839 45.2855 19.4839C44.7582 19.4839 44.4945 19.6265 44.4945 19.9116C44.4945 20.0718 44.5785 20.2104 44.7464 20.3276C44.9183 20.4448 45.2914 20.6187 45.8656 20.8491C46.3773 21.0562 46.7523 21.2495 46.9906 21.4292C47.2289 21.6089 47.4046 21.8159 47.5179 22.0503C47.6312 22.2847 47.6879 22.564 47.6879 22.8882ZM48.9342 16.5894C48.9342 16.0073 49.2584 15.7163 49.9069 15.7163C50.5553 15.7163 50.8795 16.0073 50.8795 16.5894C50.8795 16.8667 50.7975 17.0835 50.6334 17.2397C50.4733 17.3921 50.2311 17.4683 49.9069 17.4683C49.2584 17.4683 48.9342 17.1753 48.9342 16.5894ZM50.7975 24.8335H49.0104V18.2827H50.7975V24.8335ZM57.1649 24.8335H51.9911V23.7788L55.0263 19.6479H52.1728V18.2827H57.0595V19.4429L54.1063 23.4683H57.1649V24.8335ZM61.1066 19.4312C60.7277 19.4312 60.4308 19.5522 60.216 19.7944C60.0011 20.0327 59.8781 20.3726 59.8469 20.814H62.3547C62.3469 20.3726 62.2316 20.0327 62.009 19.7944C61.7863 19.5522 61.4855 19.4312 61.1066 19.4312ZM61.3586 24.9507C60.3039 24.9507 59.4797 24.6597 58.8859 24.0776C58.2922 23.4956 57.9953 22.6714 57.9953 21.605C57.9953 20.5073 58.2687 19.6597 58.8156 19.062C59.3664 18.4604 60.1261 18.1597 61.0949 18.1597C62.0207 18.1597 62.7414 18.4233 63.257 18.9507C63.7726 19.478 64.0304 20.2065 64.0304 21.1362V22.0034H59.8058C59.8254 22.5112 59.9758 22.9077 60.257 23.1929C60.5383 23.478 60.9328 23.6206 61.4406 23.6206C61.8351 23.6206 62.2082 23.5796 62.5597 23.4976C62.9113 23.4155 63.2785 23.2847 63.6613 23.105V24.4878C63.3488 24.644 63.0148 24.7593 62.6594 24.8335C62.3039 24.9116 61.8703 24.9507 61.3586 24.9507ZM65.1596 23.9956C65.1596 23.6675 65.2475 23.4194 65.4233 23.2515C65.5991 23.0835 65.8549 22.9995 66.1909 22.9995C66.5151 22.9995 66.7651 23.0854 66.9409 23.2573C67.1206 23.4292 67.2104 23.6753 67.2104 23.9956C67.2104 24.3042 67.1206 24.5483 66.9409 24.728C66.7612 24.9038 66.5112 24.9917 66.1909 24.9917C65.8627 24.9917 65.6088 24.9058 65.4291 24.7339C65.2495 24.5581 65.1596 24.312 65.1596 23.9956ZM65.1596 19.1558C65.1596 18.8276 65.2475 18.5796 65.4233 18.4116C65.5991 18.2437 65.8549 18.1597 66.1909 18.1597C66.5151 18.1597 66.7651 18.2456 66.9409 18.4175C67.1206 18.5894 67.2104 18.8354 67.2104 19.1558C67.2104 19.4722 67.1186 19.7183 66.935 19.894C66.7553 20.0659 66.5073 20.1519 66.1909 20.1519C65.8627 20.1519 65.6088 20.0659 65.4291 19.894C65.2495 19.7222 65.1596 19.4761 65.1596 19.1558ZM77.0859 24.8335H71.4551V23.9956L73.7109 21.728C74.3984 21.0327 74.8516 20.5366 75.0703 20.2397C75.2891 19.9429 75.4531 19.6538 75.5625 19.3726C75.6719 19.0913 75.7266 18.7886 75.7266 18.4644C75.7266 18.0073 75.5879 17.646 75.3105 17.3804C75.0332 17.1108 74.6484 16.9761 74.1562 16.9761C73.8008 16.9761 73.4629 17.0347 73.1426 17.1519C72.8262 17.269 72.4726 17.4819 72.082 17.7905L71.5664 17.1284C72.3555 16.4722 73.2148 16.144 74.1445 16.144C74.9492 16.144 75.5801 16.3511 76.0371 16.7651C76.4941 17.1753 76.7226 17.728 76.7226 18.4233C76.7226 18.9663 76.5703 19.5034 76.2656 20.0347C75.9609 20.5659 75.3906 21.2378 74.5547 22.0503L72.6797 23.8843V23.9312H77.0859V24.8335ZM83.928 20.5386C83.928 22.019 83.6936 23.1245 83.2249 23.855C82.76 24.5854 82.0471 24.9507 81.0862 24.9507C80.1643 24.9507 79.4632 24.5776 78.9827 23.8315C78.5022 23.0815 78.262 21.9839 78.262 20.5386C78.262 19.0464 78.4944 17.939 78.9592 17.2163C79.4241 16.4937 80.1331 16.1323 81.0862 16.1323C82.0159 16.1323 82.721 16.5093 83.2014 17.2632C83.6858 18.0171 83.928 19.1089 83.928 20.5386ZM79.2464 20.5386C79.2464 21.7847 79.3928 22.6929 79.6858 23.2632C79.9788 23.8296 80.4456 24.1128 81.0862 24.1128C81.7346 24.1128 82.2034 23.8257 82.4924 23.2515C82.7854 22.6733 82.9319 21.769 82.9319 20.5386C82.9319 19.3081 82.7854 18.4077 82.4924 17.8374C82.2034 17.2632 81.7346 16.9761 81.0862 16.9761C80.4456 16.9761 79.9788 17.2593 79.6858 17.8257C79.3928 18.3882 79.2464 19.2925 79.2464 20.5386ZM89.6333 23.0815C89.6333 23.6792 89.4107 24.1401 88.9654 24.4644C88.5201 24.7886 87.8951 24.9507 87.0904 24.9507C86.2388 24.9507 85.5747 24.8159 85.0982 24.5464V23.644C85.4068 23.8003 85.7369 23.9233 86.0884 24.0132C86.4439 24.103 86.7857 24.1479 87.1138 24.1479C87.6216 24.1479 88.0122 24.0679 88.2857 23.9077C88.5591 23.7437 88.6958 23.4956 88.6958 23.1636C88.6958 22.9136 88.5865 22.7007 88.3677 22.5249C88.1529 22.3452 87.731 22.1343 87.1021 21.8921C86.5044 21.6694 86.0787 21.4761 85.8247 21.312C85.5747 21.144 85.3872 20.9546 85.2622 20.7437C85.1412 20.5327 85.0806 20.2808 85.0806 19.9878C85.0806 19.4644 85.2935 19.0522 85.7193 18.7515C86.1451 18.4468 86.729 18.2944 87.4712 18.2944C88.1626 18.2944 88.8384 18.4351 89.4986 18.7163L89.1529 19.5073C88.5083 19.2417 87.9244 19.1089 87.4009 19.1089C86.94 19.1089 86.5923 19.1812 86.3579 19.3257C86.1236 19.4702 86.0064 19.6694 86.0064 19.9233C86.0064 20.0952 86.0494 20.2417 86.1353 20.3628C86.2251 20.4839 86.3677 20.5991 86.563 20.7085C86.7583 20.8179 87.1333 20.9761 87.688 21.1831C88.4497 21.4604 88.9634 21.7397 89.229 22.021C89.4986 22.3022 89.6333 22.6558 89.6333 23.0815ZM94.1375 24.9507C93.7195 24.9507 93.3367 24.8745 92.9891 24.7222C92.6453 24.5659 92.3563 24.3276 92.1219 24.0073H92.0516C92.0984 24.3823 92.1219 24.7378 92.1219 25.0737V27.7163H91.1492V18.4116H91.9402L92.075 19.2905H92.1219C92.3719 18.939 92.6629 18.6851 92.9949 18.5288C93.327 18.3726 93.7078 18.2944 94.1375 18.2944C94.9891 18.2944 95.6453 18.5854 96.1063 19.1675C96.5711 19.7495 96.8035 20.5659 96.8035 21.6167C96.8035 22.6714 96.5672 23.4917 96.0945 24.0776C95.6258 24.6597 94.9734 24.9507 94.1375 24.9507ZM93.9969 19.1206C93.3406 19.1206 92.866 19.3022 92.5731 19.6655C92.2801 20.0288 92.1297 20.6069 92.1219 21.3999V21.6167C92.1219 22.519 92.2723 23.1655 92.5731 23.5562C92.8738 23.9429 93.3563 24.1362 94.0203 24.1362C94.575 24.1362 95.0086 23.9116 95.3211 23.4624C95.6375 23.0132 95.7957 22.394 95.7957 21.605C95.7957 20.8042 95.6375 20.1909 95.3211 19.7651C95.0086 19.3354 94.5672 19.1206 93.9969 19.1206ZM12.6338 36.2671H15.2998C16.5146 36.2671 17.3955 36.4409 17.9424 36.7886C18.4932 37.1323 18.7686 37.6812 18.7686 38.4351C18.7686 38.9468 18.6475 39.3667 18.4053 39.6948C18.167 40.0229 17.8486 40.2202 17.4502 40.2866V40.3452C17.9932 40.4663 18.3838 40.6929 18.6221 41.0249C18.8643 41.3569 18.9854 41.7983 18.9854 42.3491C18.9854 43.1304 18.7021 43.7397 18.1357 44.1772C17.5732 44.6147 16.8076 44.8335 15.8389 44.8335H12.6338V36.2671ZM14.4502 39.6597H15.5049C15.9971 39.6597 16.3525 39.5835 16.5713 39.4312C16.7939 39.2788 16.9053 39.0269 16.9053 38.6753C16.9053 38.3472 16.7842 38.1128 16.542 37.9722C16.3037 37.8276 15.9248 37.7554 15.4053 37.7554H14.4502V39.6597ZM14.4502 41.1011V43.3335H15.6338C16.1338 43.3335 16.5029 43.2378 16.7412 43.0464C16.9795 42.855 17.0986 42.562 17.0986 42.1675C17.0986 41.4565 16.5908 41.1011 15.5752 41.1011H14.4502ZM21.9075 41.5464C21.9075 42.1948 22.013 42.6851 22.2239 43.0171C22.4387 43.3491 22.7864 43.5151 23.2669 43.5151C23.7434 43.5151 24.0852 43.3511 24.2923 43.0229C24.5032 42.6909 24.6087 42.1987 24.6087 41.5464C24.6087 40.8979 24.5032 40.4116 24.2923 40.0874C24.0813 39.7632 23.7356 39.6011 23.2551 39.6011C22.7786 39.6011 22.4348 39.7632 22.2239 40.0874C22.013 40.4077 21.9075 40.894 21.9075 41.5464ZM26.4368 41.5464C26.4368 42.6128 26.1555 43.4468 25.593 44.0483C25.0305 44.6499 24.2473 44.9507 23.2434 44.9507C22.6145 44.9507 22.0598 44.814 21.5794 44.5405C21.0989 44.2632 20.7298 43.8667 20.4719 43.3511C20.2141 42.8354 20.0852 42.2339 20.0852 41.5464C20.0852 40.4761 20.3645 39.644 20.9231 39.0503C21.4817 38.4565 22.2669 38.1597 23.2786 38.1597C23.9075 38.1597 24.4622 38.2964 24.9426 38.5698C25.4231 38.8433 25.7923 39.2358 26.0501 39.7476C26.3079 40.2593 26.4368 40.8589 26.4368 41.5464ZM31.4976 38.1597C31.7398 38.1597 31.941 38.1772 32.1011 38.2124L31.9664 39.8882C31.8218 39.8491 31.646 39.8296 31.439 39.8296C30.8687 39.8296 30.4234 39.9761 30.1031 40.269C29.7867 40.562 29.6285 40.9722 29.6285 41.4995V44.8335H27.8414V38.2827H29.1949L29.4585 39.3843H29.5464C29.7496 39.0171 30.023 38.7222 30.3667 38.4995C30.7144 38.2729 31.0914 38.1597 31.4976 38.1597ZM35.2928 44.9507C34.5233 44.9507 33.9178 44.6519 33.4764 44.0542C33.0389 43.4565 32.8201 42.6284 32.8201 41.5698C32.8201 40.4956 33.0428 39.6597 33.4881 39.062C33.9373 38.4604 34.5545 38.1597 35.3397 38.1597C36.1639 38.1597 36.7928 38.48 37.2264 39.1206H37.285C37.1951 38.6323 37.1502 38.1968 37.1502 37.814V35.7163H38.9432V44.8335H37.5721L37.2264 43.9839H37.1502C36.744 44.6284 36.1248 44.9507 35.2928 44.9507ZM35.9197 43.5269C36.3768 43.5269 36.7108 43.394 36.9217 43.1284C37.1365 42.8628 37.2537 42.4116 37.2733 41.7749V41.5815C37.2733 40.8784 37.1639 40.3745 36.9451 40.0698C36.7303 39.7651 36.3787 39.6128 35.8904 39.6128C35.492 39.6128 35.1815 39.7827 34.9588 40.1226C34.7401 40.4585 34.6307 40.9487 34.6307 41.5933C34.6307 42.2378 34.742 42.7222 34.9647 43.0464C35.1873 43.3667 35.5057 43.5269 35.9197 43.5269ZM43.4532 39.4312C43.0743 39.4312 42.7774 39.5522 42.5626 39.7944C42.3477 40.0327 42.2247 40.3726 42.1934 40.814H44.7013C44.6934 40.3726 44.5782 40.0327 44.3556 39.7944C44.1329 39.5522 43.8321 39.4312 43.4532 39.4312ZM43.7052 44.9507C42.6505 44.9507 41.8263 44.6597 41.2325 44.0776C40.6388 43.4956 40.3419 42.6714 40.3419 41.605C40.3419 40.5073 40.6153 39.6597 41.1622 39.062C41.713 38.4604 42.4727 38.1597 43.4415 38.1597C44.3673 38.1597 45.088 38.4233 45.6036 38.9507C46.1192 39.478 46.377 40.2065 46.377 41.1362V42.0034H42.1524C42.172 42.5112 42.3224 42.9077 42.6036 43.1929C42.8849 43.478 43.2794 43.6206 43.7872 43.6206C44.1817 43.6206 44.5548 43.5796 44.9063 43.4976C45.2579 43.4155 45.6251 43.2847 46.0079 43.105V44.4878C45.6954 44.644 45.3614 44.7593 45.0059 44.8335C44.6505 44.9116 44.2169 44.9507 43.7052 44.9507ZM51.4144 38.1597C51.6566 38.1597 51.8578 38.1772 52.0179 38.2124L51.8832 39.8882C51.7386 39.8491 51.5629 39.8296 51.3558 39.8296C50.7855 39.8296 50.3402 39.9761 50.0199 40.269C49.7035 40.562 49.5453 40.9722 49.5453 41.4995V44.8335H47.7582V38.2827H49.1117L49.3754 39.3843H49.4632C49.6664 39.0171 49.9398 38.7222 50.2836 38.4995C50.6312 38.2729 51.0082 38.1597 51.4144 38.1597ZM52.5553 42.3491V40.8843H55.7018V42.3491H52.5553ZM60.5868 38.1597C60.829 38.1597 61.0302 38.1772 61.1903 38.2124L61.0556 39.8882C60.911 39.8491 60.7353 39.8296 60.5282 39.8296C59.9579 39.8296 59.5126 39.9761 59.1923 40.269C58.8759 40.562 58.7177 40.9722 58.7177 41.4995V44.8335H56.9306V38.2827H58.2841L58.5478 39.3843H58.6356C58.8388 39.0171 59.1122 38.7222 59.456 38.4995C59.8036 38.2729 60.1806 38.1597 60.5868 38.1597ZM66.4679 44.8335L66.1222 43.9429H66.0754C65.7746 44.3218 65.464 44.5854 65.1437 44.7339C64.8273 44.8784 64.4133 44.9507 63.9015 44.9507C63.2726 44.9507 62.7765 44.771 62.4133 44.4116C62.0539 44.0522 61.8742 43.5405 61.8742 42.8765C61.8742 42.1812 62.1164 41.6694 62.6008 41.3413C63.089 41.0093 63.8234 40.8257 64.8039 40.7905L65.9406 40.7554V40.4683C65.9406 39.8042 65.6008 39.4722 64.9211 39.4722C64.3976 39.4722 63.7824 39.6304 63.0754 39.9468L62.4836 38.7397C63.2375 38.3452 64.0734 38.1479 64.9914 38.1479C65.8703 38.1479 66.5441 38.3394 67.0129 38.7222C67.4816 39.105 67.716 39.687 67.716 40.4683V44.8335H66.4679ZM65.9406 41.7983L65.2492 41.8218C64.7297 41.8374 64.3429 41.9312 64.089 42.103C63.8351 42.2749 63.7082 42.5366 63.7082 42.8882C63.7082 43.3921 63.9972 43.644 64.5754 43.644C64.9894 43.644 65.3195 43.5249 65.5656 43.2866C65.8156 43.0483 65.9406 42.7319 65.9406 42.3374V41.7983ZM71.5639 44.9507C70.7944 44.9507 70.1889 44.6519 69.7475 44.0542C69.31 43.4565 69.0913 42.6284 69.0913 41.5698C69.0913 40.4956 69.3139 39.6597 69.7592 39.062C70.2084 38.4604 70.8256 38.1597 71.6108 38.1597C72.435 38.1597 73.0639 38.48 73.4975 39.1206H73.5561C73.4663 38.6323 73.4213 38.1968 73.4213 37.814V35.7163H75.2143V44.8335H73.8432L73.4975 43.9839H73.4213C73.0151 44.6284 72.3959 44.9507 71.5639 44.9507ZM72.1909 43.5269C72.6479 43.5269 72.9819 43.394 73.1928 43.1284C73.4077 42.8628 73.5249 42.4116 73.5444 41.7749V41.5815C73.5444 40.8784 73.435 40.3745 73.2163 40.0698C73.0014 39.7651 72.6499 39.6128 72.1616 39.6128C71.7631 39.6128 71.4526 39.7827 71.2299 40.1226C71.0112 40.4585 70.9018 40.9487 70.9018 41.5933C70.9018 42.2378 71.0131 42.7222 71.2358 43.0464C71.4584 43.3667 71.7768 43.5269 72.1909 43.5269ZM76.9353 36.5894C76.9353 36.0073 77.2595 35.7163 77.9079 35.7163C78.5564 35.7163 78.8806 36.0073 78.8806 36.5894C78.8806 36.8667 78.7986 37.0835 78.6345 37.2397C78.4743 37.3921 78.2321 37.4683 77.9079 37.4683C77.2595 37.4683 76.9353 37.1753 76.9353 36.5894ZM78.7986 44.8335H77.0114V38.2827H78.7986V44.8335ZM85.248 44.8335L85.0078 43.9956H84.9141C84.7226 44.3003 84.4512 44.5366 84.0996 44.7046C83.748 44.8687 83.3476 44.9507 82.8984 44.9507C82.1289 44.9507 81.5488 44.7456 81.1582 44.3354C80.7676 43.9214 80.5723 43.3276 80.5723 42.5542V38.2827H82.3594V42.1089C82.3594 42.5815 82.4434 42.937 82.6113 43.1753C82.7793 43.4097 83.0469 43.5269 83.4141 43.5269C83.9141 43.5269 84.2754 43.3608 84.498 43.0288C84.7207 42.6929 84.832 42.1382 84.832 41.3647V38.2827H86.6191V44.8335H85.248ZM92.9924 42.8882C92.9924 43.5601 92.7581 44.0718 92.2893 44.4233C91.8245 44.7749 91.1272 44.9507 90.1975 44.9507C89.721 44.9507 89.3147 44.9175 88.9788 44.8511C88.6428 44.7886 88.3284 44.6948 88.0354 44.5698V43.0933C88.3674 43.2495 88.7405 43.3804 89.1546 43.4858C89.5725 43.5913 89.9397 43.644 90.2561 43.644C90.9046 43.644 91.2288 43.4565 91.2288 43.0815C91.2288 42.9409 91.1858 42.8276 91.0999 42.7417C91.0139 42.6519 90.8655 42.5522 90.6546 42.4429C90.4436 42.3296 90.1624 42.1987 89.8108 42.0503C89.3069 41.8394 88.9358 41.644 88.6975 41.4644C88.4632 41.2847 88.2913 41.0796 88.1819 40.8491C88.0764 40.6147 88.0237 40.3276 88.0237 39.9878C88.0237 39.4058 88.2483 38.9565 88.6975 38.6401C89.1507 38.3198 89.7913 38.1597 90.6194 38.1597C91.4085 38.1597 92.176 38.3315 92.9221 38.6753L92.3831 39.9644C92.0549 39.8237 91.7483 39.7085 91.4632 39.6187C91.178 39.5288 90.887 39.4839 90.5901 39.4839C90.0628 39.4839 89.7991 39.6265 89.7991 39.9116C89.7991 40.0718 89.8831 40.2104 90.051 40.3276C90.2229 40.4448 90.596 40.6187 91.1702 40.8491C91.6819 41.0562 92.0569 41.2495 92.2952 41.4292C92.5335 41.6089 92.7092 41.8159 92.8225 42.0503C92.9358 42.2847 92.9924 42.564 92.9924 42.8882ZM94.063 43.9956C94.063 43.6675 94.1509 43.4194 94.3267 43.2515C94.5025 43.0835 94.7583 42.9995 95.0943 42.9995C95.4185 42.9995 95.6685 43.0854 95.8443 43.2573C96.024 43.4292 96.1138 43.6753 96.1138 43.9956C96.1138 44.3042 96.024 44.5483 95.8443 44.728C95.6646 44.9038 95.4146 44.9917 95.0943 44.9917C94.7662 44.9917 94.5122 44.9058 94.3326 44.7339C94.1529 44.5581 94.063 44.312 94.063 43.9956ZM94.063 39.1558C94.063 38.8276 94.1509 38.5796 94.3267 38.4116C94.5025 38.2437 94.7583 38.1597 95.0943 38.1597C95.4185 38.1597 95.6685 38.2456 95.8443 38.4175C96.024 38.5894 96.1138 38.8354 96.1138 39.1558C96.1138 39.4722 96.022 39.7183 95.8384 39.894C95.6587 40.0659 95.4107 40.1519 95.0943 40.1519C94.7662 40.1519 94.5122 40.0659 94.3326 39.894C94.1529 39.7222 94.063 39.4761 94.063 39.1558ZM103.962 44.8335H103.013V38.728C103.013 38.2202 103.028 37.7397 103.06 37.2866C102.978 37.3687 102.886 37.4546 102.784 37.5444C102.683 37.6343 102.218 38.0151 101.39 38.687L100.874 38.019L103.142 36.2671H103.962V44.8335ZM112.831 40.5386C112.831 42.019 112.597 43.1245 112.128 43.855C111.663 44.5854 110.951 44.9507 109.99 44.9507C109.068 44.9507 108.367 44.5776 107.886 43.8315C107.406 43.0815 107.165 41.9839 107.165 40.5386C107.165 39.0464 107.398 37.939 107.863 37.2163C108.327 36.4937 109.036 36.1323 109.99 36.1323C110.919 36.1323 111.624 36.5093 112.105 37.2632C112.589 38.0171 112.831 39.1089 112.831 40.5386ZM108.15 40.5386C108.15 41.7847 108.296 42.6929 108.589 43.2632C108.882 43.8296 109.349 44.1128 109.99 44.1128C110.638 44.1128 111.107 43.8257 111.396 43.2515C111.689 42.6733 111.835 41.769 111.835 40.5386C111.835 39.3081 111.689 38.4077 111.396 37.8374C111.107 37.2632 110.638 36.9761 109.99 36.9761C109.349 36.9761 108.882 37.2593 108.589 37.8257C108.296 38.3882 108.15 39.2925 108.15 40.5386ZM119.627 40.5386C119.627 42.019 119.392 43.1245 118.923 43.855C118.459 44.5854 117.746 44.9507 116.785 44.9507C115.863 44.9507 115.162 44.5776 114.681 43.8315C114.201 43.0815 113.961 41.9839 113.961 40.5386C113.961 39.0464 114.193 37.939 114.658 37.2163C115.123 36.4937 115.832 36.1323 116.785 36.1323C117.714 36.1323 118.42 36.5093 118.9 37.2632C119.384 38.0171 119.627 39.1089 119.627 40.5386ZM114.945 40.5386C114.945 41.7847 115.091 42.6929 115.384 43.2632C115.677 43.8296 116.144 44.1128 116.785 44.1128C117.433 44.1128 117.902 43.8257 118.191 43.2515C118.484 42.6733 118.63 41.769 118.63 40.5386C118.63 39.3081 118.484 38.4077 118.191 37.8374C117.902 37.2632 117.433 36.9761 116.785 36.9761C116.144 36.9761 115.677 37.2593 115.384 37.8257C115.091 38.3882 114.945 39.2925 114.945 40.5386ZM125.56 43.9722H125.508C125.058 44.6245 124.387 44.9507 123.492 44.9507C122.652 44.9507 121.998 44.6636 121.529 44.0894C121.064 43.5151 120.832 42.6987 120.832 41.6401C120.832 40.5815 121.066 39.7593 121.535 39.1733C122.004 38.5874 122.656 38.2944 123.492 38.2944C124.363 38.2944 125.031 38.6108 125.496 39.2437H125.572L125.531 38.7808L125.508 38.3296V35.7163H126.48V44.8335H125.689L125.56 43.9722ZM123.615 44.1362C124.279 44.1362 124.76 43.9565 125.057 43.5972C125.357 43.2339 125.508 42.6499 125.508 41.8452V41.6401C125.508 40.73 125.355 40.0815 125.051 39.6948C124.75 39.3042 124.267 39.1089 123.603 39.1089C123.033 39.1089 122.596 39.3315 122.291 39.7769C121.99 40.2183 121.84 40.8433 121.84 41.6519C121.84 42.4722 121.99 43.0913 122.291 43.5093C122.592 43.9272 123.033 44.1362 123.615 44.1362ZM131.465 44.9507C131.047 44.9507 130.664 44.8745 130.317 44.7222C129.973 44.5659 129.684 44.3276 129.449 44.0073H129.379C129.426 44.3823 129.449 44.7378 129.449 45.0737V47.7163H128.477V38.4116H129.268L129.403 39.2905H129.449C129.699 38.939 129.99 38.6851 130.322 38.5288C130.654 38.3726 131.035 38.2944 131.465 38.2944C132.317 38.2944 132.973 38.5854 133.434 39.1675C133.899 39.7495 134.131 40.5659 134.131 41.6167C134.131 42.6714 133.895 43.4917 133.422 44.0776C132.953 44.6597 132.301 44.9507 131.465 44.9507ZM131.324 39.1206C130.668 39.1206 130.194 39.3022 129.901 39.6655C129.608 40.0288 129.457 40.6069 129.449 41.3999V41.6167C129.449 42.519 129.6 43.1655 129.901 43.5562C130.201 43.9429 130.684 44.1362 131.348 44.1362C131.903 44.1362 132.336 43.9116 132.649 43.4624C132.965 43.0132 133.123 42.394 133.123 41.605C133.123 40.8042 132.965 40.1909 132.649 39.7651C132.336 39.3354 131.895 39.1206 131.324 39.1206Z" fill="black"/>
<path d="M1 54.5V3.5H146.396V13.4029L153.963 20.8301L146.396 27.7621V54.5H1Z" stroke="#CCCCCC"/>
<path d="M183.605 26.3574C183.605 26.9954 183.425 27.5173 183.065 27.9229C182.71 28.3285 182.204 28.5996 181.548 28.7363V28.791C182.35 28.8913 182.945 29.1465 183.332 29.5566C183.719 29.9668 183.913 30.5046 183.913 31.1699C183.913 32.1224 183.583 32.8561 182.922 33.3711C182.261 33.8815 181.322 34.1367 180.105 34.1367C179.577 34.1367 179.091 34.0957 178.649 34.0137C178.212 33.9362 177.786 33.7972 177.371 33.5967V32.5166C177.804 32.7308 178.264 32.8949 178.752 33.0088C179.244 33.1182 179.709 33.1729 180.146 33.1729C181.874 33.1729 182.737 32.4961 182.737 31.1426C182.737 29.9303 181.785 29.3242 179.88 29.3242H178.895V28.3467H179.893C180.673 28.3467 181.29 28.1758 181.746 27.834C182.202 27.4876 182.43 27.0091 182.43 26.3984C182.43 25.9108 182.261 25.528 181.924 25.25C181.591 24.972 181.138 24.833 180.563 24.833C180.126 24.833 179.713 24.8923 179.326 25.0107C178.939 25.1292 178.497 25.348 178 25.667L177.426 24.9014C177.836 24.5778 178.307 24.3249 178.841 24.1426C179.378 23.9557 179.944 23.8623 180.536 23.8623C181.507 23.8623 182.261 24.0856 182.799 24.5322C183.336 24.9743 183.605 25.5827 183.605 26.3574ZM191.909 34H185.34V33.0225L187.972 30.377C188.774 29.5658 189.302 28.987 189.557 28.6406C189.813 28.2943 190.004 27.957 190.132 27.6289C190.259 27.3008 190.323 26.9476 190.323 26.5693C190.323 26.0361 190.161 25.6146 189.838 25.3047C189.514 24.9902 189.065 24.833 188.491 24.833C188.076 24.833 187.682 24.9014 187.308 25.0381C186.939 25.1748 186.527 25.4232 186.071 25.7832L185.47 25.0107C186.39 24.2451 187.393 23.8623 188.477 23.8623C189.416 23.8623 190.152 24.1038 190.685 24.5869C191.219 25.0654 191.485 25.7103 191.485 26.5215C191.485 27.1549 191.307 27.7816 190.952 28.4014C190.597 29.0212 189.931 29.805 188.956 30.7529L186.768 32.8926V32.9473H191.909V34ZM198.887 32.9951H198.825C198.301 33.7562 197.517 34.1367 196.473 34.1367C195.494 34.1367 194.73 33.8018 194.183 33.1318C193.641 32.4619 193.37 31.5094 193.37 30.2744C193.37 29.0394 193.643 28.0801 194.19 27.3965C194.737 26.7129 195.498 26.3711 196.473 26.3711C197.49 26.3711 198.269 26.7402 198.811 27.4785H198.9L198.852 26.9385L198.825 26.4121V23.3633H199.96V34H199.037L198.887 32.9951ZM196.617 33.1865C197.392 33.1865 197.952 32.9769 198.299 32.5576C198.65 32.1338 198.825 31.4525 198.825 30.5137V30.2744C198.825 29.2126 198.647 28.4561 198.292 28.0049C197.941 27.5492 197.378 27.3213 196.603 27.3213C195.938 27.3213 195.428 27.5811 195.072 28.1006C194.721 28.6156 194.546 29.3447 194.546 30.2881C194.546 31.2451 194.721 31.9674 195.072 32.4551C195.423 32.9427 195.938 33.1865 196.617 33.1865ZM205.775 34.1367C205.288 34.1367 204.841 34.0479 204.435 33.8701C204.034 33.6878 203.697 33.4098 203.424 33.0361H203.342C203.396 33.4736 203.424 33.8883 203.424 34.2803V37.3633H202.289V26.5078H203.212L203.369 27.5332H203.424C203.715 27.123 204.055 26.8268 204.442 26.6445C204.83 26.4622 205.274 26.3711 205.775 26.3711C206.769 26.3711 207.534 26.7106 208.072 27.3896C208.614 28.0687 208.886 29.0212 208.886 30.2471C208.886 31.4775 208.61 32.4346 208.058 33.1182C207.512 33.7972 206.75 34.1367 205.775 34.1367ZM205.611 27.335C204.845 27.335 204.292 27.5469 203.95 27.9707C203.608 28.3945 203.433 29.069 203.424 29.9941V30.2471C203.424 31.2998 203.599 32.054 203.95 32.5098C204.301 32.9609 204.864 33.1865 205.638 33.1865C206.286 33.1865 206.791 32.9245 207.156 32.4004C207.525 31.8763 207.71 31.154 207.71 30.2334C207.71 29.2992 207.525 28.5837 207.156 28.0869C206.791 27.5856 206.276 27.335 205.611 27.335Z" fill="#E8178A"/>
<path d="M348.638 29H381.63" stroke="#E8178A" stroke-dasharray="2 2"/>
<rect x="221.168" y="0.5" width="180.956" height="57" rx="28.5" stroke="#FF00FF" stroke-dasharray="2 2"/>
<rect x="221.646" y="1" width="180" height="56" rx="28" fill="#0063A3"/>
<g clip-path="url(#clip0_7234_82302)">
<path d="M261.646 16.6665C261.057 16.6665 260.497 16.7836 259.988 16.9949C259.478 17.2065 258.893 16.9644 258.681 16.4543C258.47 15.9441 258.712 15.359 259.222 15.1475C259.97 14.8372 260.789 14.6665 261.646 14.6665H263.646C264.199 14.6665 264.646 15.1142 264.646 15.6665C264.646 16.2188 264.199 16.6665 263.646 16.6665H261.646Z" fill="white"/>
<path d="M266.646 15.6665C266.646 15.1142 267.094 14.6665 267.646 14.6665H271.646C272.199 14.6665 272.646 15.1142 272.646 15.6665C272.646 16.2188 272.199 16.6665 271.646 16.6665H267.646C267.094 16.6665 266.646 16.2188 266.646 15.6665Z" fill="white"/>
<path d="M274.646 15.6665C274.646 15.1142 275.094 14.6665 275.646 14.6665H277.646C278.503 14.6665 279.323 14.8372 280.071 15.1475C280.581 15.359 280.823 15.9441 280.612 16.4543C280.4 16.9644 279.815 17.2065 279.305 16.9949C278.795 16.7836 278.236 16.6665 277.646 16.6665H275.646C275.094 16.6665 274.646 16.2188 274.646 15.6665Z" fill="white"/>
<path d="M257.101 18.0346C257.611 18.2461 257.853 18.8312 257.641 19.3414C257.43 19.8509 257.313 20.4104 257.313 20.9998V22.9998C257.313 23.5521 256.865 23.9998 256.313 23.9998C255.761 23.9998 255.313 23.5521 255.313 22.9998V20.9998C255.313 20.1429 255.484 19.3234 255.794 18.5752C256.006 18.0651 256.591 17.823 257.101 18.0346Z" fill="white"/>
<path d="M282.192 18.0346C282.702 17.823 283.287 18.0651 283.499 18.5752C283.809 19.3234 283.98 20.1429 283.98 20.9998V22.9998C283.98 23.5521 283.532 23.9998 282.98 23.9998C282.427 23.9998 281.98 23.5521 281.98 22.9998V20.9998C281.98 20.4104 281.863 19.8509 281.651 19.3414C281.44 18.8312 281.682 18.2461 282.192 18.0346Z" fill="white"/>
<path d="M256.313 25.9998C256.865 25.9998 257.313 26.4476 257.313 26.9998V30.9998C257.313 31.5521 256.865 31.9998 256.313 31.9998C255.761 31.9998 255.313 31.5521 255.313 30.9998V26.9998C255.313 26.4476 255.761 25.9998 256.313 25.9998Z" fill="white"/>
<path d="M282.98 25.9998C283.532 25.9998 283.98 26.4476 283.98 26.9998V30.9998C283.98 31.5521 283.532 31.9998 282.98 31.9998C282.427 31.9998 281.98 31.5521 281.98 30.9998V26.9998C281.98 26.4476 282.427 25.9998 282.98 25.9998Z" fill="white"/>
<path d="M256.313 33.9998C256.865 33.9998 257.313 34.4476 257.313 34.9998V36.9998C257.313 37.5892 257.43 38.1488 257.641 38.6583C257.853 39.1685 257.611 39.7535 257.101 39.9651C256.591 40.1767 256.006 39.9346 255.794 39.4244C255.484 38.6763 255.313 37.8567 255.313 36.9998V34.9998C255.313 34.4476 255.761 33.9998 256.313 33.9998Z" fill="white"/>
<path d="M282.98 33.9998C283.532 33.9998 283.98 34.4476 283.98 34.9998V36.9998C283.98 37.8567 283.809 38.6763 283.499 39.4244C283.287 39.9346 282.702 40.1767 282.192 39.9651C281.682 39.7535 281.44 39.1685 281.651 38.6583C281.863 38.1488 281.98 37.5892 281.98 36.9998V34.9998C281.98 34.4476 282.427 33.9998 282.98 33.9998Z" fill="white"/>
<path d="M258.681 41.5454C258.893 41.0353 259.478 40.7932 259.988 41.0047C260.497 41.216 261.057 41.3332 261.646 41.3332H263.646C264.199 41.3332 264.646 41.7809 264.646 42.3332C264.646 42.8855 264.199 43.3332 263.646 43.3332H261.646C260.789 43.3332 259.97 43.1624 259.222 42.8522C258.712 42.6406 258.47 42.0556 258.681 41.5454Z" fill="white"/>
<path d="M280.612 41.5454C280.823 42.0556 280.581 42.6406 280.071 42.8522C279.323 43.1624 278.503 43.3332 277.646 43.3332H275.646C275.094 43.3332 274.646 42.8855 274.646 42.3332C274.646 41.7809 275.094 41.3332 275.646 41.3332H277.646C278.236 41.3332 278.795 41.216 279.305 41.0047C279.815 40.7932 280.4 41.0353 280.612 41.5454Z" fill="white"/>
<path d="M266.646 42.3332C266.646 41.7809 267.094 41.3332 267.646 41.3332H271.646C272.199 41.3332 272.646 41.7809 272.646 42.3332C272.646 42.8855 272.199 43.3332 271.646 43.3332H267.646C267.094 43.3332 266.646 42.8855 266.646 42.3332Z" fill="white"/>
<path d="M281.02 19.1212C281.411 18.7306 281.411 18.0975 281.02 17.7069C280.63 17.3164 279.996 17.3164 279.606 17.7069L278.278 19.0352C277.887 19.4257 277.887 20.0589 278.278 20.4494C278.668 20.84 279.301 20.84 279.692 20.4494L281.02 19.1212Z" fill="white"/>
<path d="M277.035 23.106C277.426 22.7155 277.426 22.0823 277.035 21.6918C276.645 21.3013 276.012 21.3013 275.621 21.6918L272.964 24.3483C272.574 24.7389 272.574 25.372 272.964 25.7625C273.355 26.1531 273.988 26.1531 274.379 25.7625L277.035 23.106Z" fill="white"/>
<path d="M271.722 28.4191C272.113 28.0286 272.113 27.3954 271.722 27.0049C271.332 26.6144 270.698 26.6144 270.308 27.0049L269.646 27.6665L268.985 27.0049C268.594 26.6144 267.961 26.6144 267.57 27.0049C267.18 27.3954 267.18 28.0286 267.57 28.4191L268.232 29.0807L267.651 29.6614C267.261 30.052 267.261 30.6851 267.651 31.0757C268.042 31.4662 268.675 31.4662 269.066 31.0757L269.646 30.4949L270.227 31.0757C270.618 31.4662 271.251 31.4662 271.641 31.0757C272.032 30.6851 272.032 30.052 271.641 29.6614L271.061 29.0807L271.722 28.4191Z" fill="white"/>
<path d="M266.409 33.7322C266.8 33.3417 266.8 32.7085 266.409 32.318C266.019 31.9275 265.385 31.9275 264.995 32.318L262.338 34.9746C261.948 35.3651 261.948 35.9983 262.338 36.3888C262.729 36.7793 263.362 36.7793 263.752 36.3888L266.409 33.7322Z" fill="white"/>
<path d="M261.096 39.0453C261.486 38.6548 261.486 38.0216 261.096 37.6311C260.705 37.2406 260.072 37.2406 259.682 37.6311L258.353 38.9594C257.963 39.3499 257.963 39.9831 258.353 40.3736C258.744 40.7641 259.377 40.7641 259.768 40.3736L261.096 39.0453Z" fill="white"/>
<path d="M279.525 40.3736C279.916 40.7641 280.549 40.7641 280.939 40.3736C281.33 39.9831 281.33 39.3499 280.939 38.9594L279.611 37.6311C279.22 37.2406 278.587 37.2406 278.197 37.6311C277.806 38.0216 277.806 38.6548 278.197 39.0453L279.525 40.3736Z" fill="white"/>
<path d="M275.54 36.3888C275.931 36.7793 276.564 36.7793 276.954 36.3888C277.345 35.9983 277.345 35.3651 276.954 34.9746L274.298 32.318C273.907 31.9275 273.274 31.9275 272.884 32.318C272.493 32.7085 272.493 33.3417 272.884 33.7322L275.54 36.3888Z" fill="white"/>
<path d="M264.914 25.7625C265.304 26.1531 265.938 26.1531 266.328 25.7625C266.719 25.372 266.719 24.7389 266.328 24.3483L263.672 21.6918C263.281 21.3013 262.648 21.3013 262.257 21.6918C261.867 22.0823 261.867 22.7155 262.257 23.106L264.914 25.7625Z" fill="white"/>
<path d="M259.601 20.4494C259.991 20.84 260.625 20.84 261.015 20.4494C261.406 20.0589 261.406 19.4257 261.015 19.0352L259.687 17.7069C259.296 17.3164 258.663 17.3164 258.273 17.7069C257.882 18.0975 257.882 18.7306 258.273 19.1212L259.601 20.4494Z" fill="white"/>
<path d="M265.721 22.1852C266.118 22.0649 266.54 21.9998 266.98 21.9998H267.98C268.532 21.9998 268.98 21.5521 268.98 20.9998C268.98 20.4476 268.532 19.9998 267.98 19.9998H266.98C266.342 19.9998 265.724 20.0945 265.141 20.2711C264.612 20.4313 264.314 20.9896 264.474 21.5181C264.634 22.0467 265.192 22.3454 265.721 22.1852Z" fill="white"/>
<path d="M271.313 19.9998C270.761 19.9998 270.313 20.4476 270.313 20.9998C270.313 21.5521 270.761 21.9998 271.313 21.9998H272.313C272.752 21.9998 273.175 22.0649 273.572 22.1852C274.1 22.3454 274.659 22.0467 274.819 21.5181C274.979 20.9896 274.68 20.4313 274.152 20.2711C273.569 20.0945 272.951 19.9998 272.313 19.9998H271.313Z" fill="white"/>
<path d="M262.832 25.0744C262.992 24.5459 262.693 23.9876 262.165 23.8274C261.636 23.6673 261.078 23.9659 260.918 24.4945C260.741 25.0776 260.646 25.6952 260.646 26.3332V27.3332C260.646 27.8855 261.094 28.3332 261.646 28.3332C262.199 28.3332 262.646 27.8855 262.646 27.3332V26.3332C262.646 25.8939 262.711 25.4716 262.832 25.0744Z" fill="white"/>
<path d="M278.375 24.4945C278.215 23.9659 277.657 23.6673 277.128 23.8274C276.599 23.9876 276.301 24.5459 276.461 25.0744C276.581 25.4716 276.646 25.8939 276.646 26.3332V27.3332C276.646 27.8855 277.094 28.3332 277.646 28.3332C278.199 28.3332 278.646 27.8855 278.646 27.3332V26.3332C278.646 25.6952 278.552 25.0776 278.375 24.4945Z" fill="white"/>
<path d="M262.646 30.6665C262.646 30.1142 262.199 29.6665 261.646 29.6665C261.094 29.6665 260.646 30.1142 260.646 30.6665V31.6665C260.646 32.3044 260.741 32.9221 260.918 33.5052C261.078 34.0337 261.636 34.3324 262.165 34.1723C262.693 34.0121 262.992 33.4538 262.832 32.9253C262.711 32.5281 262.646 32.1058 262.646 31.6665V30.6665Z" fill="white"/>
<path d="M278.646 30.6665C278.646 30.1142 278.199 29.6665 277.646 29.6665C277.094 29.6665 276.646 30.1142 276.646 30.6665V31.6665C276.646 32.1058 276.581 32.5281 276.461 32.9253C276.301 33.4538 276.599 34.0121 277.128 34.1723C277.657 34.3324 278.215 34.0337 278.375 33.5052C278.552 32.9221 278.646 32.3044 278.646 31.6665V30.6665Z" fill="white"/>
<path d="M265.721 35.8145C265.192 35.6543 264.634 35.953 264.474 36.4815C264.314 37.0101 264.612 37.5684 265.141 37.7285C265.724 37.9052 266.342 37.9998 266.98 37.9998H267.98C268.532 37.9998 268.98 37.5521 268.98 36.9998C268.98 36.4476 268.532 35.9998 267.98 35.9998H266.98C266.54 35.9998 266.118 35.9348 265.721 35.8145Z" fill="white"/>
<path d="M274.152 37.7285C274.68 37.5684 274.979 37.0101 274.819 36.4815C274.659 35.953 274.1 35.6543 273.572 35.8145C273.175 35.9348 272.752 35.9998 272.313 35.9998H271.313C270.761 35.9998 270.313 36.4476 270.313 36.9998C270.313 37.5521 270.761 37.9998 271.313 37.9998H272.313C272.951 37.9998 273.569 37.9052 274.152 37.7285Z" fill="white"/>
<path d="M307.332 29.7246C307.332 32.0749 306.661 33.875 305.32 35.125C303.986 36.375 302.055 37 299.529 37H295.486V22.7227H299.969C302.299 22.7227 304.109 23.3379 305.398 24.5684C306.688 25.7988 307.332 27.5176 307.332 29.7246ZM304.188 29.8027C304.188 26.7363 302.833 25.2031 300.125 25.2031H298.514V34.5H299.812C302.729 34.5 304.188 32.9342 304.188 29.8027ZM314.828 27.9961C314.197 27.9961 313.702 28.1979 313.344 28.6016C312.986 28.9987 312.781 29.5651 312.729 30.3008H316.908C316.895 29.5651 316.703 28.9987 316.332 28.6016C315.961 28.1979 315.46 27.9961 314.828 27.9961ZM315.248 37.1953C313.49 37.1953 312.117 36.7103 311.127 35.7402C310.137 34.7702 309.643 33.3965 309.643 31.6191C309.643 29.7897 310.098 28.377 311.01 27.3809C311.928 26.3783 313.194 25.877 314.809 25.877C316.352 25.877 317.553 26.3164 318.412 27.1953C319.271 28.0742 319.701 29.2884 319.701 30.8379V32.2832H312.66C312.693 33.1296 312.943 33.7904 313.412 34.2656C313.881 34.7409 314.538 34.9785 315.385 34.9785C316.042 34.9785 316.664 34.9102 317.25 34.7734C317.836 34.6367 318.448 34.4186 319.086 34.1191V36.4238C318.565 36.6842 318.008 36.8763 317.416 37C316.824 37.1302 316.101 37.1953 315.248 37.1953ZM328.408 28.3184H325.83V37H322.852V28.3184H321.211V26.8828L322.852 26.082V25.2812C322.852 24.0378 323.158 23.1296 323.77 22.5566C324.382 21.9837 325.361 21.6973 326.709 21.6973C327.738 21.6973 328.652 21.8503 329.453 22.1562L328.691 24.3438C328.092 24.1549 327.539 24.0605 327.031 24.0605C326.608 24.0605 326.302 24.1875 326.113 24.4414C325.924 24.6888 325.83 25.0078 325.83 25.3984V26.082H328.408V28.3184ZM337.311 37L336.734 35.5156H336.656C336.155 36.1471 335.637 36.5866 335.104 36.834C334.576 37.0749 333.886 37.1953 333.033 37.1953C331.985 37.1953 331.158 36.8958 330.553 36.2969C329.954 35.6979 329.654 34.8451 329.654 33.7383C329.654 32.5794 330.058 31.7266 330.865 31.1797C331.679 30.6263 332.903 30.3203 334.537 30.2617L336.432 30.2031V29.7246C336.432 28.6178 335.865 28.0645 334.732 28.0645C333.86 28.0645 332.835 28.3281 331.656 28.8555L330.67 26.8438C331.926 26.1862 333.32 25.8574 334.85 25.8574C336.314 25.8574 337.438 26.1764 338.219 26.8145C339 27.4525 339.391 28.4225 339.391 29.7246V37H337.311ZM336.432 31.9414L335.279 31.9805C334.413 32.0065 333.769 32.1628 333.346 32.4492C332.923 32.7357 332.711 33.1719 332.711 33.7578C332.711 34.5977 333.193 35.0176 334.156 35.0176C334.846 35.0176 335.396 34.819 335.807 34.4219C336.223 34.0247 336.432 33.4974 336.432 32.8398V31.9414ZM350.451 37L350.051 35.6035H349.895C349.576 36.1113 349.123 36.5052 348.537 36.7852C347.951 37.0586 347.284 37.1953 346.535 37.1953C345.253 37.1953 344.286 36.8535 343.635 36.1699C342.984 35.4798 342.658 34.4902 342.658 33.2012V26.082H345.637V32.459C345.637 33.2467 345.777 33.8392 346.057 34.2363C346.337 34.627 346.783 34.8223 347.395 34.8223C348.228 34.8223 348.83 34.5456 349.201 33.9922C349.572 33.4323 349.758 32.5078 349.758 31.2188V26.082H352.736V37H350.451ZM359.09 37H356.111V21.8047H359.09V37ZM367.074 34.8223C367.595 34.8223 368.22 34.7083 368.949 34.4805V36.6973C368.207 37.0293 367.296 37.1953 366.215 37.1953C365.023 37.1953 364.154 36.8958 363.607 36.2969C363.067 35.6914 362.797 34.7865 362.797 33.582V28.3184H361.371V27.0586L363.012 26.0625L363.871 23.7578H365.775V26.082H368.832V28.3184H365.775V33.582C365.775 34.0052 365.893 34.3177 366.127 34.5195C366.368 34.7214 366.684 34.8223 367.074 34.8223Z" fill="white"/>
</g>
<rect x="369.633" y="1" width="31.9922" height="56" fill="#EB3499" fill-opacity="0.6"/>
<rect x="221.668" y="1" width="32.992" height="56" fill="#EB3499" fill-opacity="0.6"/>
<path d="M369.633 29L401.625 29" stroke="#E8178A" stroke-dasharray="2 2"/>
<path d="M219.669 29L254.66 29" stroke="#E8178A" stroke-dasharray="2 2"/>
<path d="M427.546 28.6909C427.546 29.3289 427.366 29.8507 427.006 30.2563C426.65 30.6619 426.145 30.9331 425.488 31.0698V31.1245C426.29 31.2248 426.885 31.48 427.273 31.8901C427.66 32.3003 427.854 32.8381 427.854 33.5034C427.854 34.4559 427.523 35.1896 426.862 35.7046C426.202 36.215 425.263 36.4702 424.046 36.4702C423.517 36.4702 423.032 36.4292 422.59 36.3472C422.152 36.2697 421.726 36.1307 421.312 35.9302V34.8501C421.745 35.0643 422.205 35.2284 422.692 35.3423C423.185 35.4517 423.65 35.5063 424.087 35.5063C425.814 35.5063 426.678 34.8296 426.678 33.4761C426.678 32.2638 425.725 31.6577 423.82 31.6577H422.836V30.6802H423.834C424.613 30.6802 425.231 30.5093 425.687 30.1675C426.142 29.8211 426.37 29.3426 426.37 28.7319C426.37 28.2443 426.202 27.8615 425.864 27.5835C425.532 27.3055 425.078 27.1665 424.504 27.1665C424.067 27.1665 423.654 27.2257 423.267 27.3442C422.879 27.4627 422.437 27.6815 421.941 28.0005L421.366 27.2349C421.776 26.9113 422.248 26.6584 422.781 26.4761C423.319 26.2892 423.884 26.1958 424.477 26.1958C425.447 26.1958 426.202 26.4191 426.739 26.8657C427.277 27.3078 427.546 27.9162 427.546 28.6909ZM435.85 36.3335H429.28V35.356L431.912 32.7104C432.714 31.8993 433.243 31.3205 433.498 30.9741C433.753 30.6278 433.945 30.2905 434.072 29.9624C434.2 29.6343 434.264 29.2811 434.264 28.9028C434.264 28.3696 434.102 27.9481 433.778 27.6382C433.455 27.3237 433.006 27.1665 432.432 27.1665C432.017 27.1665 431.623 27.2349 431.249 27.3716C430.88 27.5083 430.468 27.7567 430.012 28.1167L429.41 27.3442C430.331 26.5786 431.333 26.1958 432.418 26.1958C433.357 26.1958 434.093 26.4373 434.626 26.9204C435.159 27.3989 435.426 28.0438 435.426 28.855C435.426 29.4884 435.248 30.1151 434.893 30.7349C434.537 31.3547 433.872 32.1385 432.897 33.0864L430.709 35.2261V35.2808H435.85V36.3335ZM442.827 35.3286H442.766C442.242 36.0897 441.458 36.4702 440.414 36.4702C439.434 36.4702 438.671 36.1353 438.124 35.4653C437.582 34.7954 437.311 33.8429 437.311 32.6079C437.311 31.3729 437.584 30.4136 438.131 29.73C438.678 29.0464 439.439 28.7046 440.414 28.7046C441.43 28.7046 442.21 29.0737 442.752 29.812H442.841L442.793 29.272L442.766 28.7456V25.6968H443.9V36.3335H442.978L442.827 35.3286ZM440.558 35.52C441.332 35.52 441.893 35.3104 442.239 34.8911C442.59 34.4673 442.766 33.786 442.766 32.8472V32.6079C442.766 31.5461 442.588 30.7896 442.232 30.3384C441.882 29.8826 441.319 29.6548 440.544 29.6548C439.879 29.6548 439.368 29.9146 439.013 30.4341C438.662 30.9491 438.486 31.6782 438.486 32.6216C438.486 33.5786 438.662 34.3009 439.013 34.7886C439.364 35.2762 439.879 35.52 440.558 35.52ZM449.716 36.4702C449.228 36.4702 448.782 36.3813 448.376 36.2036C447.975 36.0213 447.638 35.7433 447.364 35.3696H447.282C447.337 35.8071 447.364 36.2218 447.364 36.6138V39.6968H446.23V28.8413H447.152L447.31 29.8667H447.364C447.656 29.4565 447.995 29.1603 448.383 28.978C448.77 28.7957 449.215 28.7046 449.716 28.7046C450.709 28.7046 451.475 29.0441 452.013 29.7231C452.555 30.4022 452.826 31.3547 452.826 32.5806C452.826 33.811 452.551 34.7681 451.999 35.4517C451.452 36.1307 450.691 36.4702 449.716 36.4702ZM449.552 29.6685C448.786 29.6685 448.232 29.8804 447.891 30.3042C447.549 30.728 447.373 31.4025 447.364 32.3276V32.5806C447.364 33.6333 447.54 34.3875 447.891 34.8433C448.242 35.2944 448.804 35.52 449.579 35.52C450.226 35.52 450.732 35.258 451.097 34.7339C451.466 34.2098 451.65 33.4875 451.65 32.5669C451.65 31.6326 451.466 30.9172 451.097 30.4204C450.732 29.9191 450.217 29.6685 449.552 29.6685Z" fill="#E8178A"/>
<path d="M453.89 1H462.888V57H453.89" stroke="#4091D2"/>
<path d="M472.604 30.5273C473.432 30.5273 474.09 30.7598 474.578 31.2246C475.07 31.6895 475.316 32.3262 475.316 33.1348C475.316 34.0918 475.021 34.8281 474.432 35.3438C473.842 35.8594 472.998 36.1172 471.9 36.1172C470.947 36.1172 470.178 35.9629 469.592 35.6543V34.0898C469.9 34.2539 470.26 34.3887 470.67 34.4941C471.08 34.5957 471.469 34.6465 471.836 34.6465C472.941 34.6465 473.494 34.1934 473.494 33.2871C473.494 32.4238 472.922 31.9922 471.777 31.9922C471.57 31.9922 471.342 32.0137 471.092 32.0566C470.842 32.0957 470.639 32.1387 470.482 32.1855L469.762 31.7988L470.084 27.4336H474.73V28.9688H471.672L471.514 30.6504L471.719 30.6094C471.957 30.5547 472.252 30.5273 472.604 30.5273ZM476.211 32.3613C476.211 30.666 476.569 29.4043 477.283 28.5762C478.002 27.748 479.076 27.334 480.506 27.334C480.994 27.334 481.377 27.3633 481.655 27.4219V28.8691C481.307 28.791 480.963 28.752 480.623 28.752C480.002 28.752 479.494 28.8457 479.1 29.0332C478.709 29.2207 478.416 29.498 478.221 29.8652C478.026 30.2324 477.91 30.7539 477.875 31.4297H477.951C478.338 30.7656 478.957 30.4336 479.809 30.4336C480.574 30.4336 481.174 30.6738 481.608 31.1543C482.041 31.6348 482.258 32.2988 482.258 33.1465C482.258 34.0605 482 34.7852 481.485 35.3203C480.969 35.8516 480.254 36.1172 479.34 36.1172C478.707 36.1172 478.155 35.9707 477.682 35.6777C477.213 35.3848 476.85 34.957 476.592 34.3945C476.338 33.832 476.211 33.1543 476.211 32.3613ZM479.305 34.6699C479.692 34.6699 479.989 34.541 480.196 34.2832C480.403 34.0215 480.506 33.6504 480.506 33.1699C480.506 32.752 480.408 32.4238 480.213 32.1855C480.022 31.9434 479.731 31.8223 479.34 31.8223C478.973 31.8223 478.658 31.9414 478.397 32.1797C478.139 32.418 478.01 32.6953 478.01 33.0117C478.01 33.4766 478.131 33.8691 478.373 34.1895C478.619 34.5098 478.93 34.6699 479.305 34.6699ZM485.585 36.1172C484.815 36.1172 484.21 35.8184 483.768 35.2207C483.331 34.623 483.112 33.7949 483.112 32.7363C483.112 31.6621 483.335 30.8262 483.78 30.2285C484.229 29.627 484.846 29.3262 485.631 29.3262C486.456 29.3262 487.085 29.6465 487.518 30.2871H487.577C487.487 29.7988 487.442 29.3633 487.442 28.9805V26.8828H489.235V36H487.864L487.518 35.1504H487.442C487.036 35.7949 486.417 36.1172 485.585 36.1172ZM486.211 34.6934C486.668 34.6934 487.002 34.5605 487.213 34.2949C487.428 34.0293 487.545 33.5781 487.565 32.9414V32.748C487.565 32.0449 487.456 31.541 487.237 31.2363C487.022 30.9316 486.67 30.7793 486.182 30.7793C485.784 30.7793 485.473 30.9492 485.251 31.2891C485.032 31.625 484.922 32.1152 484.922 32.7598C484.922 33.4043 485.034 33.8887 485.256 34.2129C485.479 34.5332 485.797 34.6934 486.211 34.6934ZM494.63 36.1172C493.86 36.1172 493.257 35.8379 492.819 35.2793H492.725C492.788 35.8262 492.819 36.1426 492.819 36.2285V38.8828H491.032V29.4492H492.485L492.737 30.2988H492.819C493.237 29.6504 493.856 29.3262 494.677 29.3262C495.45 29.3262 496.055 29.625 496.493 30.2227C496.93 30.8203 497.149 31.6504 497.149 32.7129C497.149 33.4121 497.046 34.0195 496.839 34.5352C496.636 35.0508 496.345 35.4434 495.966 35.7129C495.587 35.9824 495.141 36.1172 494.63 36.1172ZM494.102 30.7559C493.661 30.7559 493.339 30.8926 493.136 31.166C492.932 31.4355 492.827 31.8828 492.819 32.5078V32.7012C492.819 33.4043 492.923 33.9082 493.13 34.2129C493.341 34.5176 493.673 34.6699 494.126 34.6699C494.927 34.6699 495.327 34.0098 495.327 32.6895C495.327 32.0449 495.227 31.5625 495.028 31.2422C494.833 30.918 494.524 30.7559 494.102 30.7559Z" fill="#4091D2"/>
<defs>
<clipPath id="clip0_7234_82302">
<rect width="116" height="32" fill="white" transform="translate(253.646 13)"/>
</clipPath>
</defs>
</svg>
