<svg fill="none" height="56" width="110" xmlns="http://www.w3.org/2000/svg"><g opacity=".4"><rect fill="#da212c" height="56" rx="4" width="110"/><path d="m18.13 21.295h4.889c2.09 0 3.673.293 4.748.88 1.074.588 1.61 1.62 1.61 3.095 0 .594-.096 1.131-.29 1.61-.185.48-.457.875-.816 1.183a2.703 2.703 0 0 1 -1.31.601v.107c.523.108.995.294 1.418.56.422.257.759.636 1.01 1.138.258.494.386 1.153.386 1.976 0 .953-.232 1.77-.698 2.45-.465.68-1.131 1.203-1.998 1.568-.86.358-1.883.537-3.072.537h-5.877zm3.33 6.22h1.934c.967 0 1.637-.15 2.01-.451.372-.308.558-.76.558-1.354 0-.602-.222-1.031-.666-1.29-.437-.264-1.132-.397-2.084-.397h-1.752zm0 2.642v4.093h2.17c1.004 0 1.702-.193 2.096-.58.393-.387.59-.906.59-1.558 0-.386-.085-.727-.257-1.02-.172-.294-.462-.523-.87-.688-.402-.164-.957-.247-1.666-.247h-2.062zm22.466-5.167v12.01h-2.514l-.44-1.536h-.172c-.258.408-.58.741-.967.999a4.203 4.203 0 0 1 -1.278.57 5.706 5.706 0 0 1 -1.45.182c-.86 0-1.608-.15-2.246-.451a3.345 3.345 0 0 1 -1.493-1.429c-.35-.645-.526-1.483-.526-2.514v-7.83h3.276v7.014c0 .86.154 1.507.462 1.944s.799.656 1.472.656c.666 0 1.189-.15 1.568-.452.38-.308.645-.755.795-1.343.158-.594.236-1.317.236-2.17v-5.65zm8.747 9.615c.358 0 .705-.036 1.042-.108.344-.072.684-.161 1.02-.269v2.439a5.989 5.989 0 0 1 -1.31.387 8.333 8.333 0 0 1 -1.697.16c-.717 0-1.361-.114-1.934-.343-.566-.236-1.013-.64-1.343-1.214-.322-.58-.483-1.385-.483-2.417v-5.79h-1.569v-1.386l1.805-1.095.945-2.535h2.095v2.556h3.362v2.46h-3.362v5.79c0 .459.129.802.387 1.032.265.221.612.333 1.042.333zm9.81 0c.359 0 .706-.036 1.042-.108.344-.072.684-.161 1.02-.269v2.439c-.35.157-.787.286-1.31.387a8.334 8.334 0 0 1 -1.697.16c-.716 0-1.36-.114-1.933-.343-.566-.236-1.014-.64-1.343-1.214-.322-.58-.484-1.385-.484-2.417v-5.79h-1.568v-1.386l1.805-1.095.945-2.535h2.095v2.556h3.362v2.46h-3.362v5.79c0 .459.129.802.386 1.032.265.221.613.333 1.042.333zm15.665-3.631c0 1.002-.136 1.89-.408 2.664-.265.773-.655 1.428-1.17 1.965a4.922 4.922 0 0 1 -1.848 1.204c-.716.272-1.526.408-2.428.408a6.452 6.452 0 0 1 -2.331-.408 5.18 5.18 0 0 1 -1.837-1.204c-.516-.537-.917-1.192-1.203-1.965-.28-.774-.42-1.662-.42-2.664 0-1.332.237-2.46.71-3.384s1.146-1.626 2.02-2.106c.873-.48 1.915-.72 3.125-.72 1.125 0 2.12.24 2.987.72.873.48 1.557 1.182 2.052 2.106.5.924.751 2.052.751 3.384zm-8.303 0c0 .787.086 1.45.258 1.987.171.537.44.942.805 1.214s.842.408 1.429.408c.58 0 1.05-.136 1.407-.408.365-.272.63-.677.795-1.214.172-.537.258-1.2.258-1.987 0-.795-.086-1.454-.258-1.977-.165-.53-.43-.927-.795-1.192s-.841-.398-1.429-.398c-.866 0-1.496.297-1.89.892-.387.594-.58 1.486-.58 2.675zm18.082-6.21c1.282 0 2.313.352 3.093 1.053.781.695 1.171 1.812 1.171 3.352v7.831h-3.276v-7.015c0-.859-.158-1.507-.473-1.944-.308-.437-.794-.655-1.46-.655-1.003 0-1.687.34-2.052 1.02-.366.68-.548 1.662-.548 2.944v5.65h-3.276v-12.01h2.502l.44 1.536h.183c.258-.415.577-.752.957-1.01a4.203 4.203 0 0 1 1.278-.569c.473-.121.96-.182 1.46-.182z" fill="#fff"/></g></svg>