<svg width="446" height="50" viewBox="0 0 446 50" fill="none" xmlns="http://www.w3.org/2000/svg">
<path d="M14.8433 19.1367H13.0562V10.5703H17.9663V12.0586H14.8433V14.2676H17.7495V15.75H14.8433V19.1367ZM20.8533 15.8496C20.8533 16.498 20.9588 16.9883 21.1697 17.3203C21.3845 17.6523 21.7322 17.8184 22.2127 17.8184C22.6892 17.8184 23.031 17.6543 23.2381 17.3262C23.449 16.9941 23.5545 16.502 23.5545 15.8496C23.5545 15.2012 23.449 14.7148 23.2381 14.3906C23.0271 14.0664 22.6814 13.9043 22.2009 13.9043C21.7244 13.9043 21.3806 14.0664 21.1697 14.3906C20.9588 14.7109 20.8533 15.1973 20.8533 15.8496ZM25.3826 15.8496C25.3826 16.916 25.1013 17.75 24.5388 18.3516C23.9763 18.9531 23.1931 19.2539 22.1892 19.2539C21.5603 19.2539 21.0056 19.1172 20.5252 18.8438C20.0447 18.5664 19.6756 18.1699 19.4177 17.6543C19.1599 17.1387 19.031 16.5371 19.031 15.8496C19.031 14.7793 19.3103 13.9473 19.8689 13.3535C20.4275 12.7598 21.2127 12.4629 22.2244 12.4629C22.8533 12.4629 23.408 12.5996 23.8884 12.873C24.3689 13.1465 24.7381 13.5391 24.9959 14.0508C25.2537 14.5625 25.3826 15.1621 25.3826 15.8496ZM32.834 19.1367H31.0469V15.3105C31.0469 14.8379 30.9629 14.4844 30.795 14.25C30.627 14.0117 30.3594 13.8926 29.9922 13.8926C29.4922 13.8926 29.1309 14.0605 28.9082 14.3965C28.6856 14.7285 28.5743 15.2812 28.5743 16.0547V19.1367H26.7872V12.5859H28.1524L28.3926 13.4238H28.4922C28.6914 13.1074 28.9649 12.8691 29.3125 12.709C29.6641 12.5449 30.0625 12.4629 30.5079 12.4629C31.2696 12.4629 31.8477 12.6699 32.2422 13.084C32.6368 13.4941 32.834 14.0879 32.834 14.8652V19.1367ZM37.3616 17.8301C37.6741 17.8301 38.0491 17.7617 38.4866 17.625V18.9551C38.0413 19.1543 37.4944 19.2539 36.846 19.2539C36.1312 19.2539 35.6097 19.0742 35.2816 18.7148C34.9573 18.3516 34.7952 17.8086 34.7952 17.0859V13.9277H33.9398V13.1719L34.9241 12.5742L35.4398 11.1914H36.5823V12.5859H38.4163V13.9277H36.5823V17.0859C36.5823 17.3398 36.6527 17.5273 36.7933 17.6484C36.9378 17.7695 37.1273 17.8301 37.3616 17.8301ZM39.1646 16.6523V15.1875H42.3111V16.6523H39.1646ZM48.1102 17.1914C48.1102 17.8633 47.8758 18.375 47.4071 18.7266C46.9422 19.0781 46.245 19.2539 45.3153 19.2539C44.8387 19.2539 44.4325 19.2207 44.0965 19.1543C43.7606 19.0918 43.4462 18.998 43.1532 18.873V17.3965C43.4852 17.5527 43.8583 17.6836 44.2723 17.7891C44.6903 17.8945 45.0575 17.9473 45.3739 17.9473C46.0223 17.9473 46.3465 17.7598 46.3465 17.3848C46.3465 17.2441 46.3036 17.1309 46.2176 17.0449C46.1317 16.9551 45.9833 16.8555 45.7723 16.7461C45.5614 16.6328 45.2801 16.502 44.9286 16.3535C44.4247 16.1426 44.0536 15.9473 43.8153 15.7676C43.5809 15.5879 43.409 15.3828 43.2997 15.1523C43.1942 14.918 43.1415 14.6309 43.1415 14.291C43.1415 13.709 43.3661 13.2598 43.8153 12.9434C44.2684 12.623 44.909 12.4629 45.7372 12.4629C46.5262 12.4629 47.2938 12.6348 48.0399 12.9785L47.5008 14.2676C47.1727 14.127 46.8661 14.0117 46.5809 13.9219C46.2958 13.832 46.0047 13.7871 45.7079 13.7871C45.1805 13.7871 44.9169 13.9297 44.9169 14.2148C44.9169 14.375 45.0008 14.5137 45.1688 14.6309C45.3407 14.748 45.7137 14.9219 46.2879 15.1523C46.7997 15.3594 47.1747 15.5527 47.4129 15.7324C47.6512 15.9121 47.827 16.1191 47.9403 16.3535C48.0536 16.5879 48.1102 16.8672 48.1102 17.1914ZM49.3566 10.8926C49.3566 10.3105 49.6808 10.0195 50.3292 10.0195C50.9777 10.0195 51.3019 10.3105 51.3019 10.8926C51.3019 11.1699 51.2199 11.3867 51.0558 11.543C50.8956 11.6953 50.6535 11.7715 50.3292 11.7715C49.6808 11.7715 49.3566 11.4785 49.3566 10.8926ZM51.2199 19.1367H49.4327V12.5859H51.2199V19.1367ZM57.5873 19.1367H52.4135V18.082L55.4486 13.9512H52.5951V12.5859H57.4818V13.7461L54.5287 17.7715H57.5873V19.1367ZM61.529 13.7344C61.1501 13.7344 60.8532 13.8555 60.6384 14.0977C60.4235 14.3359 60.3005 14.6758 60.2692 15.1172H62.777C62.7692 14.6758 62.654 14.3359 62.4313 14.0977C62.2087 13.8555 61.9079 13.7344 61.529 13.7344ZM61.7809 19.2539C60.7262 19.2539 59.902 18.9629 59.3083 18.3809C58.7145 17.7988 58.4177 16.9746 58.4177 15.9082C58.4177 14.8105 58.6911 13.9629 59.238 13.3652C59.7887 12.7637 60.5485 12.4629 61.5173 12.4629C62.443 12.4629 63.1637 12.7266 63.6794 13.2539C64.195 13.7812 64.4528 14.5098 64.4528 15.4395V16.3066H60.2282C60.2477 16.8145 60.3981 17.2109 60.6794 17.4961C60.9606 17.7812 61.3552 17.9238 61.863 17.9238C62.2575 17.9238 62.6305 17.8828 62.9821 17.8008C63.3337 17.7188 63.7009 17.5879 64.0837 17.4082V18.791C63.7712 18.9473 63.4372 19.0625 63.0817 19.1367C62.7262 19.2148 62.2927 19.2539 61.7809 19.2539ZM65.582 18.2988C65.582 17.9707 65.6699 17.7227 65.8457 17.5547C66.0214 17.3867 66.2773 17.3027 66.6132 17.3027C66.9375 17.3027 67.1875 17.3887 67.3632 17.5605C67.5429 17.7324 67.6328 17.9785 67.6328 18.2988C67.6328 18.6074 67.5429 18.8516 67.3632 19.0312C67.1835 19.207 66.9335 19.2949 66.6132 19.2949C66.2851 19.2949 66.0312 19.209 65.8515 19.0371C65.6718 18.8613 65.582 18.6152 65.582 18.2988ZM65.582 13.459C65.582 13.1309 65.6699 12.8828 65.8457 12.7148C66.0214 12.5469 66.2773 12.4629 66.6132 12.4629C66.9375 12.4629 67.1875 12.5488 67.3632 12.7207C67.5429 12.8926 67.6328 13.1387 67.6328 13.459C67.6328 13.7754 67.541 14.0215 67.3574 14.1973C67.1777 14.3691 66.9296 14.4551 66.6132 14.4551C66.2851 14.4551 66.0312 14.3691 65.8515 14.1973C65.6718 14.0254 65.582 13.7793 65.582 13.459ZM77.5083 19.1367H71.8774V18.2988L74.1333 16.0312C74.8208 15.3359 75.2739 14.8398 75.4927 14.543C75.7114 14.2461 75.8755 13.957 75.9849 13.6758C76.0942 13.3945 76.1489 13.0918 76.1489 12.7676C76.1489 12.3105 76.0102 11.9492 75.7329 11.6836C75.4556 11.4141 75.0708 11.2793 74.5786 11.2793C74.2231 11.2793 73.8852 11.3379 73.5649 11.4551C73.2485 11.5723 72.895 11.7852 72.5044 12.0938L71.9888 11.4316C72.7778 10.7754 73.6372 10.4473 74.5669 10.4473C75.3716 10.4473 76.0024 10.6543 76.4595 11.0684C76.9165 11.4785 77.145 12.0312 77.145 12.7266C77.145 13.2695 76.9927 13.8066 76.688 14.3379C76.3833 14.8691 75.813 15.541 74.977 16.3535L73.102 18.1875V18.2344H77.5083V19.1367ZM84.3504 14.8418C84.3504 16.3223 84.116 17.4277 83.6472 18.1582C83.1824 18.8887 82.4695 19.2539 81.5086 19.2539C80.5867 19.2539 79.8855 18.8809 79.405 18.1348C78.9246 17.3848 78.6843 16.2871 78.6843 14.8418C78.6843 13.3496 78.9168 12.2422 79.3816 11.5195C79.8465 10.7969 80.5554 10.4355 81.5086 10.4355C82.4382 10.4355 83.1433 10.8125 83.6238 11.5664C84.1082 12.3203 84.3504 13.4121 84.3504 14.8418ZM79.6687 14.8418C79.6687 16.0879 79.8152 16.9961 80.1082 17.5664C80.4011 18.1328 80.8679 18.416 81.5086 18.416C82.157 18.416 82.6257 18.1289 82.9148 17.5547C83.2078 16.9766 83.3543 16.0723 83.3543 14.8418C83.3543 13.6113 83.2078 12.7109 82.9148 12.1406C82.6257 11.5664 82.157 11.2793 81.5086 11.2793C80.8679 11.2793 80.4011 11.5625 80.1082 12.1289C79.8152 12.6914 79.6687 13.5957 79.6687 14.8418ZM90.0557 17.3848C90.0557 17.9824 89.833 18.4434 89.3877 18.7676C88.9424 19.0918 88.3174 19.2539 87.5127 19.2539C86.6612 19.2539 85.9971 19.1191 85.5205 18.8496V17.9473C85.8291 18.1035 86.1592 18.2266 86.5108 18.3164C86.8662 18.4062 87.208 18.4512 87.5362 18.4512C88.044 18.4512 88.4346 18.3711 88.708 18.2109C88.9815 18.0469 89.1182 17.7988 89.1182 17.4668C89.1182 17.2168 89.0088 17.0039 88.7901 16.8281C88.5752 16.6484 88.1534 16.4375 87.5245 16.1953C86.9268 15.9727 86.501 15.7793 86.2471 15.6152C85.9971 15.4473 85.8096 15.2578 85.6846 15.0469C85.5635 14.8359 85.503 14.584 85.503 14.291C85.503 13.7676 85.7159 13.3555 86.1416 13.0547C86.5674 12.75 87.1514 12.5977 87.8936 12.5977C88.585 12.5977 89.2608 12.7383 89.9209 13.0195L89.5752 13.8105C88.9307 13.5449 88.3467 13.4121 87.8233 13.4121C87.3623 13.4121 87.0147 13.4844 86.7803 13.6289C86.5459 13.7734 86.4287 13.9727 86.4287 14.2266C86.4287 14.3984 86.4717 14.5449 86.5577 14.666C86.6475 14.7871 86.7901 14.9023 86.9854 15.0117C87.1807 15.1211 87.5557 15.2793 88.1104 15.4863C88.8721 15.7637 89.3858 16.043 89.6514 16.3242C89.9209 16.6055 90.0557 16.959 90.0557 17.3848ZM94.5599 19.2539C94.1419 19.2539 93.7591 19.1777 93.4114 19.0254C93.0677 18.8691 92.7786 18.6309 92.5442 18.3105H92.4739C92.5208 18.6855 92.5442 19.041 92.5442 19.377V22.0195H91.5716V12.7148H92.3626L92.4974 13.5938H92.5442C92.7942 13.2422 93.0853 12.9883 93.4173 12.832C93.7493 12.6758 94.1302 12.5977 94.5599 12.5977C95.4114 12.5977 96.0677 12.8887 96.5286 13.4707C96.9935 14.0527 97.2259 14.8691 97.2259 15.9199C97.2259 16.9746 96.9896 17.7949 96.5169 18.3809C96.0481 18.9629 95.3958 19.2539 94.5599 19.2539ZM94.4192 13.4238C93.763 13.4238 93.2884 13.6055 92.9954 13.9688C92.7024 14.332 92.5521 14.9102 92.5442 15.7031V15.9199C92.5442 16.8223 92.6946 17.4688 92.9954 17.8594C93.2962 18.2461 93.7786 18.4395 94.4427 18.4395C94.9974 18.4395 95.431 18.2148 95.7435 17.7656C96.0599 17.3164 96.2181 16.6973 96.2181 15.9082C96.2181 15.1074 96.0599 14.4941 95.7435 14.0684C95.431 13.6387 94.9896 13.4238 94.4192 13.4238ZM13.0562 30.5703H15.7222C16.937 30.5703 17.8179 30.7441 18.3647 31.0918C18.9155 31.4355 19.1909 31.9844 19.1909 32.7383C19.1909 33.25 19.0698 33.6699 18.8276 33.998C18.5894 34.3262 18.271 34.5234 17.8726 34.5898V34.6484C18.4155 34.7695 18.8062 34.9961 19.0444 35.3281C19.2866 35.6602 19.4077 36.1016 19.4077 36.6523C19.4077 37.4336 19.1245 38.043 18.5581 38.4805C17.9956 38.918 17.23 39.1367 16.2612 39.1367H13.0562V30.5703ZM14.8726 33.9629H15.9272C16.4194 33.9629 16.7749 33.8867 16.9937 33.7344C17.2163 33.582 17.3276 33.3301 17.3276 32.9785C17.3276 32.6504 17.2065 32.416 16.9644 32.2754C16.7261 32.1309 16.3472 32.0586 15.8276 32.0586H14.8726V33.9629ZM14.8726 35.4043V37.6367H16.0562C16.5562 37.6367 16.9253 37.541 17.1636 37.3496C17.4019 37.1582 17.521 36.8652 17.521 36.4707C17.521 35.7598 17.0132 35.4043 15.9976 35.4043H14.8726ZM22.3299 35.8496C22.3299 36.498 22.4353 36.9883 22.6463 37.3203C22.8611 37.6523 23.2088 37.8184 23.6892 37.8184C24.1658 37.8184 24.5076 37.6543 24.7146 37.3262C24.9256 36.9941 25.031 36.502 25.031 35.8496C25.031 35.2012 24.9256 34.7148 24.7146 34.3906C24.5037 34.0664 24.158 33.9043 23.6775 33.9043C23.2009 33.9043 22.8572 34.0664 22.6463 34.3906C22.4353 34.7109 22.3299 35.1973 22.3299 35.8496ZM26.8592 35.8496C26.8592 36.916 26.5779 37.75 26.0154 38.3516C25.4529 38.9531 24.6697 39.2539 23.6658 39.2539C23.0369 39.2539 22.4822 39.1172 22.0017 38.8438C21.5213 38.5664 21.1521 38.1699 20.8943 37.6543C20.6365 37.1387 20.5076 36.5371 20.5076 35.8496C20.5076 34.7793 20.7869 33.9473 21.3455 33.3535C21.9041 32.7598 22.6892 32.4629 23.7009 32.4629C24.3299 32.4629 24.8845 32.5996 25.365 32.873C25.8455 33.1465 26.2146 33.5391 26.4724 34.0508C26.7302 34.5625 26.8592 35.1621 26.8592 35.8496ZM31.92 32.4629C32.1622 32.4629 32.3633 32.4805 32.5235 32.5156L32.3887 34.1914C32.2442 34.1523 32.0684 34.1328 31.8614 34.1328C31.2911 34.1328 30.8457 34.2793 30.5254 34.5723C30.209 34.8652 30.0508 35.2754 30.0508 35.8027V39.1367H28.2637V32.5859H29.6172L29.8809 33.6875H29.9688C30.1719 33.3203 30.4454 33.0254 30.7891 32.8027C31.1368 32.5762 31.5137 32.4629 31.92 32.4629ZM35.7152 39.2539C34.9456 39.2539 34.3402 38.9551 33.8987 38.3574C33.4612 37.7598 33.2425 36.9316 33.2425 35.873C33.2425 34.7988 33.4652 33.9629 33.9105 33.3652C34.3597 32.7637 34.9769 32.4629 35.762 32.4629C36.5862 32.4629 37.2152 32.7832 37.6487 33.4238H37.7073C37.6175 32.9355 37.5726 32.5 37.5726 32.1172V30.0195H39.3655V39.1367H37.9944L37.6487 38.2871H37.5726C37.1663 38.9316 36.5472 39.2539 35.7152 39.2539ZM36.3421 37.8301C36.7991 37.8301 37.1331 37.6973 37.3441 37.4316C37.5589 37.166 37.6761 36.7148 37.6956 36.0781V35.8848C37.6956 35.1816 37.5862 34.6777 37.3675 34.373C37.1527 34.0684 36.8011 33.916 36.3128 33.916C35.9144 33.916 35.6038 34.0859 35.3812 34.4258C35.1624 34.7617 35.053 35.252 35.053 35.8965C35.053 36.541 35.1644 37.0254 35.387 37.3496C35.6097 37.6699 35.928 37.8301 36.3421 37.8301ZM43.8756 33.7344C43.4967 33.7344 43.1998 33.8555 42.9849 34.0977C42.7701 34.3359 42.6471 34.6758 42.6158 35.1172H45.1236C45.1158 34.6758 45.0006 34.3359 44.7779 34.0977C44.5553 33.8555 44.2545 33.7344 43.8756 33.7344ZM44.1275 39.2539C43.0728 39.2539 42.2486 38.9629 41.6549 38.3809C41.0611 37.7988 40.7642 36.9746 40.7642 35.9082C40.7642 34.8105 41.0377 33.9629 41.5846 33.3652C42.1353 32.7637 42.8951 32.4629 43.8639 32.4629C44.7896 32.4629 45.5103 32.7266 46.026 33.2539C46.5416 33.7812 46.7994 34.5098 46.7994 35.4395V36.3066H42.5748C42.5943 36.8145 42.7447 37.2109 43.026 37.4961C43.3072 37.7812 43.7017 37.9238 44.2096 37.9238C44.6041 37.9238 44.9771 37.8828 45.3287 37.8008C45.6803 37.7188 46.0474 37.5879 46.4303 37.4082V38.791C46.1178 38.9473 45.7838 39.0625 45.4283 39.1367C45.0728 39.2148 44.6392 39.2539 44.1275 39.2539ZM51.8368 32.4629C52.079 32.4629 52.2801 32.4805 52.4403 32.5156L52.3055 34.1914C52.161 34.1523 51.9852 34.1328 51.7782 34.1328C51.2079 34.1328 50.7626 34.2793 50.4422 34.5723C50.1258 34.8652 49.9676 35.2754 49.9676 35.8027V39.1367H48.1805V32.5859H49.534L49.7977 33.6875H49.8856C50.0887 33.3203 50.3622 33.0254 50.7059 32.8027C51.0536 32.5762 51.4305 32.4629 51.8368 32.4629ZM52.9777 36.6523V35.1875H56.1242V36.6523H52.9777ZM61.0092 32.4629C61.2514 32.4629 61.4525 32.4805 61.6127 32.5156L61.4779 34.1914C61.3334 34.1523 61.1576 34.1328 60.9506 34.1328C60.3803 34.1328 59.935 34.2793 59.6147 34.5723C59.2982 34.8652 59.14 35.2754 59.14 35.8027V39.1367H57.3529V32.5859H58.7064L58.9701 33.6875H59.058C59.2611 33.3203 59.5346 33.0254 59.8783 32.8027C60.226 32.5762 60.6029 32.4629 61.0092 32.4629ZM66.8903 39.1367L66.5446 38.2461H66.4977C66.1969 38.625 65.8864 38.8887 65.5661 39.0371C65.2497 39.1816 64.8356 39.2539 64.3239 39.2539C63.695 39.2539 63.1989 39.0742 62.8356 38.7148C62.4762 38.3555 62.2966 37.8438 62.2966 37.1797C62.2966 36.4844 62.5387 35.9727 63.0231 35.6445C63.5114 35.3125 64.2458 35.1289 65.2262 35.0938L66.363 35.0586V34.7715C66.363 34.1074 66.0231 33.7754 65.3434 33.7754C64.82 33.7754 64.2048 33.9336 63.4977 34.25L62.9059 33.043C63.6598 32.6484 64.4958 32.4512 65.4137 32.4512C66.2927 32.4512 66.9665 32.6426 67.4352 33.0254C67.904 33.4082 68.1384 33.9902 68.1384 34.7715V39.1367H66.8903ZM66.363 36.1016L65.6716 36.125C65.152 36.1406 64.7653 36.2344 64.5114 36.4062C64.2575 36.5781 64.1305 36.8398 64.1305 37.1914C64.1305 37.6953 64.4196 37.9473 64.9977 37.9473C65.4118 37.9473 65.7419 37.8281 65.988 37.5898C66.238 37.3516 66.363 37.0352 66.363 36.6406V36.1016ZM71.9863 39.2539C71.2167 39.2539 70.6113 38.9551 70.1699 38.3574C69.7324 37.7598 69.5136 36.9316 69.5136 35.873C69.5136 34.7988 69.7363 33.9629 70.1816 33.3652C70.6308 32.7637 71.248 32.4629 72.0332 32.4629C72.8574 32.4629 73.4863 32.7832 73.9199 33.4238H73.9785C73.8886 32.9355 73.8437 32.5 73.8437 32.1172V30.0195H75.6367V39.1367H74.2656L73.9199 38.2871H73.8437C73.4375 38.9316 72.8183 39.2539 71.9863 39.2539ZM72.6132 37.8301C73.0703 37.8301 73.4042 37.6973 73.6152 37.4316C73.83 37.166 73.9472 36.7148 73.9667 36.0781V35.8848C73.9667 35.1816 73.8574 34.6777 73.6386 34.373C73.4238 34.0684 73.0722 33.916 72.5839 33.916C72.1855 33.916 71.875 34.0859 71.6523 34.4258C71.4335 34.7617 71.3242 35.252 71.3242 35.8965C71.3242 36.541 71.4355 37.0254 71.6582 37.3496C71.8808 37.6699 72.1992 37.8301 72.6132 37.8301ZM77.3576 30.8926C77.3576 30.3105 77.6819 30.0195 78.3303 30.0195C78.9787 30.0195 79.3029 30.3105 79.3029 30.8926C79.3029 31.1699 79.2209 31.3867 79.0569 31.543C78.8967 31.6953 78.6545 31.7715 78.3303 31.7715C77.6819 31.7715 77.3576 31.4785 77.3576 30.8926ZM79.2209 39.1367H77.4338V32.5859H79.2209V39.1367ZM85.6704 39.1367L85.4302 38.2988H85.3364C85.145 38.6035 84.8735 38.8398 84.522 39.0078C84.1704 39.1719 83.77 39.2539 83.3208 39.2539C82.5513 39.2539 81.9712 39.0488 81.5806 38.6387C81.1899 38.2246 80.9946 37.6309 80.9946 36.8574V32.5859H82.7817V36.4121C82.7817 36.8848 82.8657 37.2402 83.0337 37.4785C83.2017 37.7129 83.4692 37.8301 83.8364 37.8301C84.3364 37.8301 84.6977 37.6641 84.9204 37.332C85.1431 36.9961 85.2544 36.4414 85.2544 35.668V32.5859H87.0415V39.1367H85.6704ZM93.4148 37.1914C93.4148 37.8633 93.1804 38.375 92.7117 38.7266C92.2468 39.0781 91.5496 39.2539 90.6199 39.2539C90.1433 39.2539 89.7371 39.2207 89.4011 39.1543C89.0652 39.0918 88.7507 38.998 88.4578 38.873V37.3965C88.7898 37.5527 89.1629 37.6836 89.5769 37.7891C89.9949 37.8945 90.3621 37.9473 90.6785 37.9473C91.3269 37.9473 91.6511 37.7598 91.6511 37.3848C91.6511 37.2441 91.6082 37.1309 91.5222 37.0449C91.4363 36.9551 91.2879 36.8555 91.0769 36.7461C90.866 36.6328 90.5847 36.502 90.2332 36.3535C89.7293 36.1426 89.3582 35.9473 89.1199 35.7676C88.8855 35.5879 88.7136 35.3828 88.6043 35.1523C88.4988 34.918 88.4461 34.6309 88.4461 34.291C88.4461 33.709 88.6707 33.2598 89.1199 32.9434C89.573 32.623 90.2136 32.4629 91.0418 32.4629C91.8308 32.4629 92.5984 32.6348 93.3445 32.9785L92.8054 34.2676C92.4773 34.127 92.1707 34.0117 91.8855 33.9219C91.6004 33.832 91.3093 33.7871 91.0125 33.7871C90.4851 33.7871 90.2215 33.9297 90.2215 34.2148C90.2215 34.375 90.3054 34.5137 90.4734 34.6309C90.6453 34.748 91.0183 34.9219 91.5925 35.1523C92.1043 35.3594 92.4793 35.5527 92.7175 35.7324C92.9558 35.9121 93.1316 36.1191 93.2449 36.3535C93.3582 36.5879 93.4148 36.8672 93.4148 37.1914ZM94.4854 38.2988C94.4854 37.9707 94.5733 37.7227 94.7491 37.5547C94.9248 37.3867 95.1807 37.3027 95.5166 37.3027C95.8409 37.3027 96.0909 37.3887 96.2666 37.5605C96.4463 37.7324 96.5362 37.9785 96.5362 38.2988C96.5362 38.6074 96.4463 38.8516 96.2666 39.0312C96.087 39.207 95.837 39.2949 95.5166 39.2949C95.1885 39.2949 94.9346 39.209 94.7549 39.0371C94.5752 38.8613 94.4854 38.6152 94.4854 38.2988ZM94.4854 33.459C94.4854 33.1309 94.5733 32.8828 94.7491 32.7148C94.9248 32.5469 95.1807 32.4629 95.5166 32.4629C95.8409 32.4629 96.0909 32.5488 96.2666 32.7207C96.4463 32.8926 96.5362 33.1387 96.5362 33.459C96.5362 33.7754 96.4444 34.0215 96.2608 34.1973C96.0811 34.3691 95.833 34.4551 95.5166 34.4551C95.1885 34.4551 94.9346 34.3691 94.7549 34.1973C94.5752 34.0254 94.4854 33.7793 94.4854 33.459ZM106.816 37.168H105.545V39.1367H104.613V37.168H100.447V36.3184L104.513 30.5234H105.545V36.2832H106.816V37.168ZM104.613 36.2832V33.4355C104.613 32.877 104.632 32.2461 104.671 31.543H104.625C104.437 31.918 104.261 32.2285 104.097 32.4746L101.42 36.2832H104.613ZM112.392 38.2754H112.34C111.89 38.9277 111.219 39.2539 110.324 39.2539C109.484 39.2539 108.83 38.9668 108.361 38.3926C107.896 37.8184 107.664 37.002 107.664 35.9434C107.664 34.8848 107.898 34.0625 108.367 33.4766C108.836 32.8906 109.488 32.5977 110.324 32.5977C111.195 32.5977 111.863 32.9141 112.328 33.5469H112.404L112.363 33.084L112.34 32.6328V30.0195H113.312V39.1367H112.521L112.392 38.2754ZM110.447 38.4395C111.111 38.4395 111.592 38.2598 111.889 37.9004C112.189 37.5371 112.34 36.9531 112.34 36.1484V35.9434C112.34 35.0332 112.187 34.3848 111.883 33.998C111.582 33.6074 111.099 33.4121 110.435 33.4121C109.865 33.4121 109.428 33.6348 109.123 34.0801C108.822 34.5215 108.672 35.1465 108.672 35.9551C108.672 36.7754 108.822 37.3945 109.123 37.8125C109.424 38.2305 109.865 38.4395 110.447 38.4395ZM118.297 39.2539C117.879 39.2539 117.496 39.1777 117.149 39.0254C116.805 38.8691 116.516 38.6309 116.281 38.3105H116.211C116.258 38.6855 116.281 39.041 116.281 39.377V42.0195H115.309V32.7148H116.1L116.234 33.5938H116.281C116.531 33.2422 116.822 32.9883 117.154 32.832C117.486 32.6758 117.867 32.5977 118.297 32.5977C119.149 32.5977 119.805 32.8887 120.266 33.4707C120.731 34.0527 120.963 34.8691 120.963 35.9199C120.963 36.9746 120.727 37.7949 120.254 38.3809C119.785 38.9629 119.133 39.2539 118.297 39.2539ZM118.156 33.4238C117.5 33.4238 117.026 33.6055 116.733 33.9688C116.44 34.332 116.289 34.9102 116.281 35.7031V35.9199C116.281 36.8223 116.432 37.4688 116.733 37.8594C117.033 38.2461 117.516 38.4395 118.18 38.4395C118.734 38.4395 119.168 38.2148 119.481 37.7656C119.797 37.3164 119.955 36.6973 119.955 35.9082C119.955 35.1074 119.797 34.4941 119.481 34.0684C119.168 33.6387 118.727 33.4238 118.156 33.4238Z" fill="black"/>
<path d="M1 46.4986V1.46924H138.552V10.2128L145.71 16.7705L138.552 22.891V46.4986H1Z" stroke="#D2D2D2"/>
<path d="M158.573 26.6748H157.465V19.5518C157.465 18.9593 157.484 18.3988 157.52 17.8701C157.424 17.9658 157.317 18.0661 157.199 18.1709C157.08 18.2757 156.538 18.7201 155.572 19.5039L154.97 18.7246L157.616 16.6807H158.573V26.6748ZM162.413 22.4023C162.413 20.4382 162.793 18.9707 163.554 18C164.32 17.0247 165.45 16.5371 166.945 16.5371C167.46 16.5371 167.865 16.5804 168.162 16.667V17.6445C167.811 17.5306 167.41 17.4736 166.958 17.4736C165.887 17.4736 165.069 17.8086 164.504 18.4785C163.939 19.1439 163.629 20.1921 163.575 21.623H163.657C164.158 20.8392 164.951 20.4473 166.036 20.4473C166.933 20.4473 167.64 20.7184 168.155 21.2607C168.674 21.8031 168.934 22.5391 168.934 23.4688C168.934 24.5078 168.649 25.3258 168.08 25.9229C167.514 26.5153 166.749 26.8115 165.783 26.8115C164.748 26.8115 163.928 26.4242 163.322 25.6494C162.716 24.8701 162.413 23.7878 162.413 22.4023ZM165.769 25.8477C166.416 25.8477 166.917 25.6449 167.273 25.2393C167.633 24.8291 167.813 24.2389 167.813 23.4688C167.813 22.8079 167.647 22.2884 167.314 21.9102C166.981 21.5319 166.484 21.3428 165.824 21.3428C165.414 21.3428 165.038 21.4271 164.696 21.5957C164.354 21.7643 164.081 21.9967 163.875 22.293C163.675 22.5892 163.575 22.8968 163.575 23.2158C163.575 23.6852 163.666 24.1227 163.848 24.5283C164.03 24.9339 164.288 25.2552 164.621 25.4922C164.958 25.7292 165.341 25.8477 165.769 25.8477ZM175.843 25.6699H175.782C175.258 26.431 174.474 26.8115 173.43 26.8115C172.45 26.8115 171.687 26.4766 171.14 25.8066C170.598 25.1367 170.327 24.1842 170.327 22.9492C170.327 21.7142 170.6 20.7549 171.147 20.0713C171.694 19.3877 172.455 19.0459 173.43 19.0459C174.446 19.0459 175.226 19.415 175.768 20.1533H175.857L175.809 19.6133L175.782 19.0869V16.0381H176.916V26.6748H175.994L175.843 25.6699ZM173.574 25.8613C174.348 25.8613 174.909 25.6517 175.255 25.2324C175.606 24.8086 175.782 24.1273 175.782 23.1885V22.9492C175.782 21.8874 175.604 21.1309 175.248 20.6797C174.898 20.224 174.335 19.9961 173.56 19.9961C172.895 19.9961 172.384 20.2559 172.029 20.7754C171.678 21.2904 171.502 22.0195 171.502 22.9629C171.502 23.9199 171.678 24.6423 172.029 25.1299C172.38 25.6175 172.895 25.8613 173.574 25.8613ZM182.732 26.8115C182.244 26.8115 181.798 26.7227 181.392 26.5449C180.991 26.3626 180.654 26.0846 180.38 25.7109H180.298C180.353 26.1484 180.38 26.5632 180.38 26.9551V30.0381H179.246V19.1826H180.168L180.326 20.208H180.38C180.672 19.7979 181.011 19.5016 181.399 19.3193C181.786 19.137 182.231 19.0459 182.732 19.0459C183.725 19.0459 184.491 19.3854 185.029 20.0645C185.571 20.7435 185.842 21.696 185.842 22.9219C185.842 24.1523 185.566 25.1094 185.015 25.793C184.468 26.472 183.707 26.8115 182.732 26.8115ZM182.568 20.0098C181.802 20.0098 181.248 20.2217 180.907 20.6455C180.565 21.0693 180.389 21.7438 180.38 22.6689V22.9219C180.38 23.9746 180.556 24.7288 180.907 25.1846C181.258 25.6357 181.82 25.8613 182.595 25.8613C183.242 25.8613 183.748 25.5993 184.113 25.0752C184.482 24.5511 184.666 23.8288 184.666 22.9082C184.666 21.974 184.482 21.2585 184.113 20.7617C183.748 20.2604 183.233 20.0098 182.568 20.0098Z" fill="#E8178A"/>
<rect x="192.617" y="1" width="143" height="48" rx="4" fill="#0063A3"/>
<g clip-path="url(#clip0_7234_82552)">
<path d="M216.617 12.6665C216.027 12.6665 215.468 12.7836 214.958 12.9949C214.448 13.2065 213.863 12.9644 213.651 12.4543C213.44 11.9441 213.682 11.359 214.192 11.1475C214.94 10.8372 215.76 10.6665 216.617 10.6665H218.617C219.169 10.6665 219.617 11.1142 219.617 11.6665C219.617 12.2188 219.169 12.6665 218.617 12.6665H216.617Z" fill="white"/>
<path d="M221.617 11.6665C221.617 11.1142 222.064 10.6665 222.617 10.6665H226.617C227.169 10.6665 227.617 11.1142 227.617 11.6665C227.617 12.2188 227.169 12.6665 226.617 12.6665H222.617C222.064 12.6665 221.617 12.2188 221.617 11.6665Z" fill="white"/>
<path d="M229.617 11.6665C229.617 11.1142 230.064 10.6665 230.617 10.6665H232.617C233.473 10.6665 234.293 10.8372 235.041 11.1475C235.551 11.359 235.793 11.9441 235.582 12.4543C235.37 12.9644 234.785 13.2065 234.275 12.9949C233.765 12.7836 233.206 12.6665 232.617 12.6665H230.617C230.064 12.6665 229.617 12.2188 229.617 11.6665Z" fill="white"/>
<path d="M212.071 14.0346C212.581 14.2461 212.823 14.8312 212.612 15.3414C212.4 15.8509 212.283 16.4104 212.283 16.9998V18.9998C212.283 19.5521 211.835 19.9998 211.283 19.9998C210.731 19.9998 210.283 19.5521 210.283 18.9998V16.9998C210.283 16.1429 210.454 15.3234 210.764 14.5752C210.976 14.0651 211.561 13.823 212.071 14.0346Z" fill="white"/>
<path d="M237.162 14.0346C237.672 13.823 238.257 14.0651 238.469 14.5752C238.779 15.3234 238.95 16.1429 238.95 16.9998V18.9998C238.95 19.5521 238.502 19.9998 237.95 19.9998C237.398 19.9998 236.95 19.5521 236.95 18.9998V16.9998C236.95 16.4104 236.833 15.8509 236.621 15.3414C236.41 14.8312 236.652 14.2461 237.162 14.0346Z" fill="white"/>
<path d="M211.283 21.9998C211.835 21.9998 212.283 22.4476 212.283 22.9998V26.9998C212.283 27.5521 211.835 27.9998 211.283 27.9998C210.731 27.9998 210.283 27.5521 210.283 26.9998V22.9998C210.283 22.4476 210.731 21.9998 211.283 21.9998Z" fill="white"/>
<path d="M237.95 21.9998C238.502 21.9998 238.95 22.4476 238.95 22.9998V26.9998C238.95 27.5521 238.502 27.9998 237.95 27.9998C237.398 27.9998 236.95 27.5521 236.95 26.9998V22.9998C236.95 22.4476 237.398 21.9998 237.95 21.9998Z" fill="white"/>
<path d="M211.283 29.9998C211.835 29.9998 212.283 30.4476 212.283 30.9998V32.9998C212.283 33.5892 212.4 34.1488 212.612 34.6583C212.823 35.1685 212.581 35.7535 212.071 35.9651C211.561 36.1767 210.976 35.9346 210.764 35.4244C210.454 34.6763 210.283 33.8567 210.283 32.9998V30.9998C210.283 30.4476 210.731 29.9998 211.283 29.9998Z" fill="white"/>
<path d="M237.95 29.9998C238.502 29.9998 238.95 30.4476 238.95 30.9998V32.9998C238.95 33.8567 238.779 34.6763 238.469 35.4244C238.257 35.9346 237.672 36.1767 237.162 35.9651C236.652 35.7535 236.41 35.1685 236.621 34.6583C236.833 34.1488 236.95 33.5892 236.95 32.9998V30.9998C236.95 30.4476 237.398 29.9998 237.95 29.9998Z" fill="white"/>
<path d="M213.651 37.5454C213.863 37.0353 214.448 36.7932 214.958 37.0047C215.468 37.216 216.027 37.3332 216.617 37.3332H218.617C219.169 37.3332 219.617 37.7809 219.617 38.3332C219.617 38.8855 219.169 39.3332 218.617 39.3332H216.617C215.76 39.3332 214.94 39.1624 214.192 38.8522C213.682 38.6406 213.44 38.0556 213.651 37.5454Z" fill="white"/>
<path d="M235.582 37.5454C235.793 38.0556 235.551 38.6406 235.041 38.8522C234.293 39.1624 233.473 39.3332 232.617 39.3332H230.617C230.064 39.3332 229.617 38.8855 229.617 38.3332C229.617 37.7809 230.064 37.3332 230.617 37.3332H232.617C233.206 37.3332 233.765 37.216 234.275 37.0047C234.785 36.7932 235.37 37.0353 235.582 37.5454Z" fill="white"/>
<path d="M221.617 38.3332C221.617 37.7809 222.064 37.3332 222.617 37.3332H226.617C227.169 37.3332 227.617 37.7809 227.617 38.3332C227.617 38.8855 227.169 39.3332 226.617 39.3332H222.617C222.064 39.3332 221.617 38.8855 221.617 38.3332Z" fill="white"/>
<path d="M235.99 15.1212C236.381 14.7306 236.381 14.0975 235.99 13.7069C235.6 13.3164 234.967 13.3164 234.576 13.7069L233.248 15.0352C232.857 15.4257 232.857 16.0589 233.248 16.4494C233.638 16.84 234.272 16.84 234.662 16.4494L235.99 15.1212Z" fill="white"/>
<path d="M232.005 19.106C232.396 18.7155 232.396 18.0823 232.005 17.6918C231.615 17.3013 230.982 17.3013 230.591 17.6918L227.935 20.3483C227.544 20.7389 227.544 21.372 227.935 21.7625C228.325 22.1531 228.958 22.1531 229.349 21.7625L232.005 19.106Z" fill="white"/>
<path d="M226.692 24.4191C227.083 24.0286 227.083 23.3954 226.692 23.0049C226.302 22.6144 225.669 22.6144 225.278 23.0049L224.617 23.6665L223.955 23.0049C223.564 22.6144 222.931 22.6144 222.541 23.0049C222.15 23.3954 222.15 24.0286 222.541 24.4191L223.202 25.0807L222.622 25.6614C222.231 26.052 222.231 26.6851 222.622 27.0757C223.012 27.4662 223.645 27.4662 224.036 27.0757L224.617 26.4949L225.197 27.0757C225.588 27.4662 226.221 27.4662 226.611 27.0757C227.002 26.6851 227.002 26.052 226.611 25.6614L226.031 25.0807L226.692 24.4191Z" fill="white"/>
<path d="M221.379 29.7322C221.77 29.3417 221.77 28.7085 221.379 28.318C220.989 27.9275 220.356 27.9275 219.965 28.318L217.308 30.9746C216.918 31.3651 216.918 31.9983 217.308 32.3888C217.699 32.7793 218.332 32.7793 218.723 32.3888L221.379 29.7322Z" fill="white"/>
<path d="M216.066 35.0453C216.457 34.6548 216.457 34.0216 216.066 33.6311C215.676 33.2406 215.042 33.2406 214.652 33.6311L213.324 34.9594C212.933 35.3499 212.933 35.9831 213.324 36.3736C213.714 36.7641 214.347 36.7641 214.738 36.3736L216.066 35.0453Z" fill="white"/>
<path d="M234.495 36.3736C234.886 36.7641 235.519 36.7641 235.909 36.3736C236.3 35.9831 236.3 35.3499 235.909 34.9594L234.581 33.6311C234.191 33.2406 233.557 33.2406 233.167 33.6311C232.776 34.0216 232.776 34.6548 233.167 35.0453L234.495 36.3736Z" fill="white"/>
<path d="M230.51 32.3888C230.901 32.7793 231.534 32.7793 231.925 32.3888C232.315 31.9983 232.315 31.3651 231.925 30.9746L229.268 28.318C228.878 27.9275 228.244 27.9275 227.854 28.318C227.463 28.7085 227.463 29.3417 227.854 29.7322L230.51 32.3888Z" fill="white"/>
<path d="M219.884 21.7625C220.275 22.1531 220.908 22.1531 221.298 21.7625C221.689 21.372 221.689 20.7389 221.298 20.3483L218.642 17.6918C218.251 17.3013 217.618 17.3013 217.228 17.6918C216.837 18.0823 216.837 18.7155 217.228 19.106L219.884 21.7625Z" fill="white"/>
<path d="M214.571 16.4494C214.962 16.84 215.595 16.84 215.985 16.4494C216.376 16.0589 216.376 15.4257 215.985 15.0352L214.657 13.7069C214.266 13.3164 213.633 13.3164 213.243 13.7069C212.852 14.0975 212.852 14.7306 213.243 15.1212L214.571 16.4494Z" fill="white"/>
<path d="M220.691 18.1852C221.088 18.0649 221.511 17.9998 221.95 17.9998H222.95C223.502 17.9998 223.95 17.5521 223.95 16.9998C223.95 16.4476 223.502 15.9998 222.95 15.9998H221.95C221.312 15.9998 220.694 16.0945 220.111 16.2711C219.583 16.4313 219.284 16.9896 219.444 17.5181C219.604 18.0467 220.163 18.3454 220.691 18.1852Z" fill="white"/>
<path d="M226.283 15.9998C225.731 15.9998 225.283 16.4476 225.283 16.9998C225.283 17.5521 225.731 17.9998 226.283 17.9998H227.283C227.723 17.9998 228.145 18.0649 228.542 18.1852C229.071 18.3454 229.629 18.0467 229.789 17.5181C229.949 16.9896 229.65 16.4313 229.122 16.2711C228.539 16.0945 227.921 15.9998 227.283 15.9998H226.283Z" fill="white"/>
<path d="M217.802 21.0744C217.962 20.5459 217.663 19.9876 217.135 19.8274C216.606 19.6673 216.048 19.9659 215.888 20.4945C215.711 21.0776 215.617 21.6952 215.617 22.3332V23.3332C215.617 23.8855 216.064 24.3332 216.617 24.3332C217.169 24.3332 217.617 23.8855 217.617 23.3332V22.3332C217.617 21.8939 217.682 21.4716 217.802 21.0744Z" fill="white"/>
<path d="M233.345 20.4945C233.185 19.9659 232.627 19.6673 232.098 19.8274C231.57 19.9876 231.271 20.5459 231.431 21.0744C231.551 21.4716 231.617 21.8939 231.617 22.3332V23.3332C231.617 23.8855 232.064 24.3332 232.617 24.3332C233.169 24.3332 233.617 23.8855 233.617 23.3332V22.3332C233.617 21.6952 233.522 21.0776 233.345 20.4945Z" fill="white"/>
<path d="M217.617 26.6665C217.617 26.1142 217.169 25.6665 216.617 25.6665C216.064 25.6665 215.617 26.1142 215.617 26.6665V27.6665C215.617 28.3044 215.711 28.9221 215.888 29.5052C216.048 30.0337 216.606 30.3324 217.135 30.1723C217.663 30.0121 217.962 29.4538 217.802 28.9253C217.682 28.5281 217.617 28.1058 217.617 27.6665V26.6665Z" fill="white"/>
<path d="M233.617 26.6665C233.617 26.1142 233.169 25.6665 232.617 25.6665C232.064 25.6665 231.617 26.1142 231.617 26.6665V27.6665C231.617 28.1058 231.551 28.5281 231.431 28.9253C231.271 29.4538 231.57 30.0121 232.098 30.1723C232.627 30.3324 233.185 30.0337 233.345 29.5052C233.522 28.9221 233.617 28.3044 233.617 27.6665V26.6665Z" fill="white"/>
<path d="M220.691 31.8145C220.163 31.6543 219.604 31.953 219.444 32.4815C219.284 33.0101 219.583 33.5684 220.111 33.7285C220.694 33.9052 221.312 33.9998 221.95 33.9998H222.95C223.502 33.9998 223.95 33.5521 223.95 32.9998C223.95 32.4476 223.502 31.9998 222.95 31.9998H221.95C221.511 31.9998 221.088 31.9348 220.691 31.8145Z" fill="white"/>
<path d="M229.122 33.7285C229.65 33.5684 229.949 33.0101 229.789 32.4815C229.629 31.953 229.071 31.6543 228.542 31.8145C228.145 31.9348 227.723 31.9998 227.283 31.9998H226.283C225.731 31.9998 225.283 32.4476 225.283 32.9998C225.283 33.5521 225.731 33.9998 226.283 33.9998H227.283C227.921 33.9998 228.539 33.9052 229.122 33.7285Z" fill="white"/>
<path d="M250.542 18.7227H254.986C257.011 18.7227 258.479 19.0124 259.39 19.5918C260.308 20.1647 260.767 21.0794 260.767 22.3359C260.767 23.1888 260.565 23.8887 260.162 24.4355C259.764 24.9824 259.234 25.3112 258.57 25.4219V25.5195C259.475 25.7214 260.126 26.099 260.523 26.6523C260.927 27.2057 261.128 27.9414 261.128 28.8594C261.128 30.1615 260.656 31.1771 259.712 31.9062C258.775 32.6354 257.499 33 255.884 33H250.542V18.7227ZM253.57 24.377H255.328C256.148 24.377 256.74 24.25 257.105 23.9961C257.476 23.7422 257.662 23.3223 257.662 22.7363C257.662 22.1895 257.46 21.7988 257.056 21.5645C256.659 21.3236 256.028 21.2031 255.162 21.2031H253.57V24.377ZM253.57 26.7793V30.5H255.542C256.376 30.5 256.991 30.3405 257.388 30.0215C257.785 29.7025 257.984 29.2142 257.984 28.5566C257.984 27.3717 257.138 26.7793 255.445 26.7793H253.57ZM271.73 33L271.33 31.6035H271.173C270.854 32.1113 270.402 32.5052 269.816 32.7852C269.23 33.0586 268.563 33.1953 267.814 33.1953C266.531 33.1953 265.565 32.8535 264.914 32.1699C264.263 31.4798 263.937 30.4902 263.937 29.2012V22.082H266.916V28.459C266.916 29.2467 267.056 29.8392 267.335 30.2363C267.615 30.627 268.061 30.8223 268.673 30.8223C269.507 30.8223 270.109 30.5456 270.48 29.9922C270.851 29.4323 271.037 28.5078 271.037 27.2188V22.082H274.015V33H271.73ZM281.99 30.8223C282.511 30.8223 283.136 30.7083 283.865 30.4805V32.6973C283.123 33.0293 282.211 33.1953 281.13 33.1953C279.939 33.1953 279.07 32.8958 278.523 32.2969C277.983 31.6914 277.712 30.7865 277.712 29.582V24.3184H276.287V23.0586L277.927 22.0625L278.787 19.7578H280.691V22.082H283.748V24.3184H280.691V29.582C280.691 30.0052 280.808 30.3177 281.042 30.5195C281.283 30.7214 281.599 30.8223 281.99 30.8223ZM290.931 30.8223C291.452 30.8223 292.077 30.7083 292.806 30.4805V32.6973C292.064 33.0293 291.153 33.1953 290.072 33.1953C288.88 33.1953 288.011 32.8958 287.464 32.2969C286.924 31.6914 286.654 30.7865 286.654 29.582V24.3184H285.228V23.0586L286.869 22.0625L287.728 19.7578H289.632V22.082H292.689V24.3184H289.632V29.582C289.632 30.0052 289.75 30.3177 289.984 30.5195C290.225 30.7214 290.541 30.8223 290.931 30.8223ZM297.646 27.5215C297.646 28.6022 297.822 29.4193 298.173 29.9727C298.531 30.526 299.111 30.8027 299.912 30.8027C300.706 30.8027 301.276 30.5293 301.621 29.9824C301.972 29.429 302.148 28.6087 302.148 27.5215C302.148 26.4408 301.972 25.6302 301.621 25.0898C301.269 24.5495 300.693 24.2793 299.892 24.2793C299.098 24.2793 298.525 24.5495 298.173 25.0898C297.822 25.6237 297.646 26.4342 297.646 27.5215ZM305.195 27.5215C305.195 29.2988 304.726 30.6888 303.789 31.6914C302.851 32.694 301.546 33.1953 299.873 33.1953C298.824 33.1953 297.9 32.9674 297.099 32.5117C296.298 32.0495 295.683 31.3887 295.253 30.5293C294.824 29.6699 294.609 28.6673 294.609 27.5215C294.609 25.7376 295.074 24.3509 296.005 23.3613C296.936 22.3717 298.245 21.877 299.931 21.877C300.979 21.877 301.904 22.1048 302.705 22.5605C303.505 23.0163 304.121 23.6706 304.55 24.5234C304.98 25.3763 305.195 26.3757 305.195 27.5215ZM317.984 33H315.005V26.623C315.005 25.8353 314.865 25.2461 314.585 24.8555C314.306 24.4583 313.86 24.2598 313.248 24.2598C312.414 24.2598 311.812 24.5397 311.441 25.0996C311.07 25.653 310.884 26.5742 310.884 27.8633V33H307.906V22.082H310.181L310.582 23.4785H310.748C311.08 22.9512 311.535 22.554 312.115 22.2871C312.701 22.0137 313.365 21.877 314.107 21.877C315.376 21.877 316.34 22.222 316.998 22.9121C317.655 23.5957 317.984 24.5853 317.984 25.8809V33Z" fill="white"/>
</g>
<rect x="193" y="1.46924" width="17" height="47.531" fill="#EB3499" fill-opacity="0.6"/>
<rect x="318" y="1.46924" width="17" height="47.531" fill="#EB3499" fill-opacity="0.6"/>
<rect x="192.5" y="0.969238" width="143" height="48.531" stroke="#FF00FF" stroke-dasharray="2 2"/>
<path d="M192.617 21.0132L209.583 21.0132" stroke="#E8178A" stroke-dasharray="2 2"/>
<path d="M318.365 22.6807H335.331" stroke="#E8178A" stroke-dasharray="2 2"/>
<path d="M357.175 31.4067H356.068V24.2837C356.068 23.6912 356.086 23.1307 356.123 22.6021C356.027 22.6978 355.92 22.798 355.801 22.9028C355.683 23.0076 355.141 23.452 354.174 24.2358L353.573 23.4565L356.218 21.4126H357.175V31.4067ZM361.015 27.1343C361.015 25.1701 361.396 23.7026 362.157 22.7319C362.922 21.7567 364.053 21.269 365.547 21.269C366.062 21.269 366.468 21.3123 366.764 21.3989V22.3765C366.413 22.2625 366.012 22.2056 365.561 22.2056C364.49 22.2056 363.672 22.5405 363.107 23.2104C362.542 23.8758 362.232 24.924 362.177 26.355H362.259C362.761 25.5711 363.554 25.1792 364.638 25.1792C365.536 25.1792 366.242 25.4504 366.757 25.9927C367.277 26.535 367.537 27.271 367.537 28.2007C367.537 29.2397 367.252 30.0578 366.682 30.6548C366.117 31.2472 365.351 31.5435 364.385 31.5435C363.351 31.5435 362.53 31.1561 361.924 30.3813C361.318 29.6021 361.015 28.5197 361.015 27.1343ZM364.372 30.5796C365.019 30.5796 365.52 30.3768 365.876 29.9712C366.236 29.561 366.416 28.9709 366.416 28.2007C366.416 27.5399 366.249 27.0203 365.917 26.6421C365.584 26.2638 365.087 26.0747 364.426 26.0747C364.016 26.0747 363.64 26.159 363.298 26.3276C362.957 26.4963 362.683 26.7287 362.478 27.0249C362.278 27.3211 362.177 27.6287 362.177 27.9478C362.177 28.4172 362.268 28.8547 362.451 29.2603C362.633 29.6659 362.89 29.9871 363.223 30.2241C363.56 30.4611 363.943 30.5796 364.372 30.5796ZM374.446 30.4019H374.384C373.86 31.1629 373.076 31.5435 372.033 31.5435C371.053 31.5435 370.29 31.2085 369.743 30.5386C369.2 29.8687 368.929 28.9162 368.929 27.6812C368.929 26.4461 369.203 25.4868 369.75 24.8032C370.296 24.1196 371.057 23.7778 372.033 23.7778C373.049 23.7778 373.828 24.147 374.371 24.8853H374.459L374.412 24.3452L374.384 23.8188V20.77H375.519V31.4067H374.596L374.446 30.4019ZM372.176 30.5933C372.951 30.5933 373.512 30.3836 373.858 29.9644C374.209 29.5405 374.384 28.8592 374.384 27.9204V27.6812C374.384 26.6193 374.207 25.8628 373.851 25.4116C373.5 24.9559 372.937 24.728 372.163 24.728C371.497 24.728 370.987 24.9878 370.631 25.5073C370.28 26.0223 370.105 26.7515 370.105 27.6948C370.105 28.6519 370.28 29.3742 370.631 29.8618C370.982 30.3494 371.497 30.5933 372.176 30.5933ZM381.334 31.5435C380.847 31.5435 380.4 31.4546 379.995 31.2769C379.594 31.0946 379.256 30.8166 378.983 30.4429H378.901C378.956 30.8804 378.983 31.2951 378.983 31.687V34.77H377.848V23.9146H378.771L378.928 24.9399H378.983C379.275 24.5298 379.614 24.2336 380.001 24.0513C380.389 23.869 380.833 23.7778 381.334 23.7778C382.328 23.7778 383.094 24.1174 383.631 24.7964C384.174 25.4754 384.445 26.4279 384.445 27.6538C384.445 28.8843 384.169 29.8413 383.618 30.5249C383.071 31.2039 382.31 31.5435 381.334 31.5435ZM381.17 24.7417C380.405 24.7417 379.851 24.9536 379.509 25.3774C379.167 25.8013 378.992 26.4757 378.983 27.4009V27.6538C378.983 28.7065 379.158 29.4608 379.509 29.9165C379.86 30.3677 380.423 30.5933 381.198 30.5933C381.845 30.5933 382.351 30.3312 382.715 29.8071C383.084 29.283 383.269 28.5607 383.269 27.6401C383.269 26.7059 383.084 25.9904 382.715 25.4937C382.351 24.9924 381.836 24.7417 381.17 24.7417Z" fill="#E8178A"/>
<path d="M385.231 1.41748H393.777V48.9485H385.231" stroke="#4091D2"/>
<path d="M406.136 28.2939H405.105V30.0693H403.335V28.2939H399.679V27.0342L403.435 21.5029H405.105V26.8877H406.136V28.2939ZM403.335 26.8877V25.4346C403.335 25.1924 403.345 24.8408 403.365 24.3799C403.384 23.9189 403.4 23.6514 403.412 23.5771H403.365C403.22 23.8975 403.046 24.21 402.843 24.5146L401.273 26.8877H403.335ZM409.691 21.3916C410.511 21.3916 411.172 21.5791 411.672 21.9541C412.176 22.3252 412.428 22.8271 412.428 23.46C412.428 23.8975 412.306 24.2881 412.064 24.6318C411.822 24.9717 411.431 25.2764 410.892 25.5459C411.533 25.8896 411.992 26.249 412.269 26.624C412.551 26.9951 412.691 27.4033 412.691 27.8486C412.691 28.5518 412.416 29.1182 411.865 29.5479C411.314 29.9736 410.59 30.1865 409.691 30.1865C408.754 30.1865 408.017 29.9873 407.482 29.5889C406.947 29.1904 406.679 28.626 406.679 27.8955C406.679 27.4072 406.808 26.9736 407.066 26.5947C407.328 26.2158 407.746 25.8818 408.32 25.5928C407.832 25.2842 407.48 24.9541 407.265 24.6025C407.051 24.251 406.943 23.8662 406.943 23.4482C406.943 22.835 407.197 22.3389 407.705 21.96C408.213 21.5811 408.875 21.3916 409.691 21.3916ZM408.355 27.79C408.355 28.126 408.472 28.3877 408.707 28.5752C408.941 28.7627 409.261 28.8564 409.668 28.8564C410.117 28.8564 410.453 28.7607 410.676 28.5693C410.898 28.374 411.01 28.1182 411.01 27.8018C411.01 27.54 410.898 27.2959 410.676 27.0693C410.457 26.8389 410.099 26.5947 409.603 26.3369C408.771 26.7197 408.355 27.2041 408.355 27.79ZM409.679 22.7158C409.371 22.7158 409.121 22.7959 408.929 22.9561C408.742 23.1123 408.648 23.3232 408.648 23.5889C408.648 23.8232 408.722 24.0342 408.871 24.2217C409.023 24.4053 409.297 24.5947 409.691 24.79C410.074 24.6104 410.342 24.4268 410.494 24.2393C410.646 24.0518 410.722 23.835 410.722 23.5889C410.722 23.3193 410.625 23.1064 410.429 22.9502C410.234 22.7939 409.984 22.7158 409.679 22.7158ZM416.053 30.1865C415.283 30.1865 414.678 29.8877 414.236 29.29C413.799 28.6924 413.58 27.8643 413.58 26.8057C413.58 25.7314 413.803 24.8955 414.248 24.2979C414.697 23.6963 415.314 23.3955 416.1 23.3955C416.924 23.3955 417.553 23.7158 417.986 24.3564H418.045C417.955 23.8682 417.91 23.4326 417.91 23.0498V20.9521H419.703V30.0693H418.332L417.986 29.2197H417.91C417.504 29.8643 416.885 30.1865 416.053 30.1865ZM416.68 28.7627C417.137 28.7627 417.471 28.6299 417.682 28.3643C417.897 28.0986 418.014 27.6475 418.033 27.0107V26.8174C418.033 26.1143 417.924 25.6104 417.705 25.3057C417.49 25.001 417.139 24.8486 416.65 24.8486C416.252 24.8486 415.941 25.0186 415.719 25.3584C415.5 25.6943 415.391 26.1846 415.391 26.8291C415.391 27.4736 415.502 27.958 415.725 28.2822C415.947 28.6025 416.266 28.7627 416.68 28.7627ZM425.098 30.1865C424.328 30.1865 423.725 29.9072 423.287 29.3486H423.194C423.256 29.8955 423.287 30.2119 423.287 30.2979V32.9521H421.5V23.5186H422.953L423.205 24.3682H423.287C423.705 23.7197 424.325 23.3955 425.145 23.3955C425.918 23.3955 426.524 23.6943 426.961 24.292C427.399 24.8896 427.617 25.7197 427.617 26.7822C427.617 27.4814 427.514 28.0889 427.307 28.6045C427.104 29.1201 426.813 29.5127 426.434 29.7822C426.055 30.0518 425.61 30.1865 425.098 30.1865ZM424.571 24.8252C424.129 24.8252 423.807 24.9619 423.604 25.2354C423.401 25.5049 423.295 25.9521 423.287 26.5771V26.7705C423.287 27.4736 423.391 27.9775 423.598 28.2822C423.809 28.5869 424.141 28.7393 424.594 28.7393C425.395 28.7393 425.795 28.0791 425.795 26.7588C425.795 26.1143 425.696 25.6318 425.496 25.3115C425.301 24.9873 424.992 24.8252 424.571 24.8252Z" fill="#4091D2"/>
<defs>
<clipPath id="clip0_7234_82552">
<rect width="111" height="32" fill="white" transform="translate(208.617 9)"/>
</clipPath>
</defs>
</svg>
