<svg fill="none" height="96" viewBox="0 0 961 96" width="961" xmlns="http://www.w3.org/2000/svg" xmlns:xlink="http://www.w3.org/1999/xlink"><clipPath id="a"><path d="m354.5 32h105v32h-105z"/></clipPath><clipPath id="b"><path d="m501.5 32h105v32h-105z"/></clipPath><path d="m0 0h961v96h-961z" fill="#e4e4e4"/><rect fill="#454545" height="56" rx="4" width="137" x="338.5" y="20"/><g clip-path="url(#a)" fill="#fff"><path d="m362.5 35.6665c-.59 0-1.149.1171-1.659.3284-.51.2116-1.095-.0305-1.306-.5406-.212-.5102.03-1.0953.54-1.3068.748-.3103 1.568-.481 2.425-.481h2c.552 0 1 .4477 1 1s-.448 1-1 1z"/><path d="m367.5 34.6665c0-.5523.448-1 1-1h4c.552 0 1 .4477 1 1s-.448 1-1 1h-4c-.552 0-1-.4477-1-1z"/><path d="m375.5 34.6665c0-.5523.448-1 1-1h2c.857 0 1.676.1707 2.424.481.511.2115.753.7966.541 1.3068-.211.5101-.797.7522-1.307.5406-.509-.2113-1.069-.3284-1.658-.3284h-2c-.552 0-1-.4477-1-1z"/><path d="m357.954 37.0346c.51.2115.752.7966.541 1.3068-.211.5095-.328 1.069-.328 1.6584v2c0 .5523-.448 1-1 1-.553 0-1-.4477-1-1v-2c0-.8569.17-1.6764.48-2.4246.212-.5101.797-.7522 1.307-.5406z"/><path d="m383.045 37.0346c.511-.2116 1.096.0305 1.307.5406.31.7482.481 1.5677.481 2.4246v2c0 .5523-.448 1-1 1s-1-.4477-1-1v-2c0-.5894-.117-1.1489-.328-1.6584-.212-.5102.03-1.0953.54-1.3068z"/><path d="m357.167 44.9998c.552 0 1 .4478 1 1v4c0 .5523-.448 1-1 1-.553 0-1-.4477-1-1v-4c0-.5522.447-1 1-1z"/><path d="m383.833 44.9998c.552 0 1 .4478 1 1v4c0 .5523-.448 1-1 1s-1-.4477-1-1v-4c0-.5522.448-1 1-1z"/><path d="m357.167 52.9998c.552 0 1 .4478 1 1v2c0 .5894.117 1.149.328 1.6585.211.5102-.031 1.0952-.541 1.3068s-1.095-.0305-1.307-.5407c-.31-.7481-.48-1.5677-.48-2.4246v-2c0-.5522.447-1 1-1z"/><path d="m383.833 52.9998c.552 0 1 .4478 1 1v2c0 .8569-.171 1.6765-.481 2.4246-.211.5102-.796.7523-1.307.5407-.51-.2116-.752-.7966-.54-1.3068.211-.5095.328-1.0691.328-1.6585v-2c0-.5522.448-1 1-1z"/><path d="m359.535 60.5454c.211-.5101.796-.7522 1.306-.5407.51.2113 1.069.3285 1.659.3285h2c.552 0 1 .4477 1 1s-.448 1-1 1h-2c-.857 0-1.677-.1708-2.425-.481-.51-.2116-.752-.7966-.54-1.3068z"/><path d="m381.465 60.5454c.212.5102-.03 1.0952-.541 1.3068-.748.3102-1.567.481-2.424.481h-2c-.552 0-1-.4477-1-1s.448-1 1-1h2c.589 0 1.149-.1172 1.658-.3285.51-.2115 1.096.0306 1.307.5407z"/><path d="m367.5 61.3332c0-.5523.448-1 1-1h4c.552 0 1 .4477 1 1s-.448 1-1 1h-4c-.552 0-1-.4477-1-1z"/><path d="m381.874 38.1212c.39-.3906.39-1.0237 0-1.4143-.391-.3905-1.024-.3905-1.415 0l-1.328 1.3283c-.39.3905-.39 1.0237 0 1.4142.391.3906 1.024.3906 1.414 0z"/><path d="m377.889 42.106c.39-.3905.39-1.0237 0-1.4142-.391-.3905-1.024-.3905-1.414 0l-2.657 2.6565c-.391.3906-.391 1.0237 0 1.4142.391.3906 1.024.3906 1.414 0z"/><path d="m372.576 47.4191c.39-.3905.39-1.0237 0-1.4142-.391-.3905-1.024-.3905-1.415 0l-.661.6616-.662-.6616c-.39-.3905-1.023-.3905-1.414 0s-.391 1.0237 0 1.4142l.662.6616-.581.5807c-.391.3906-.391 1.0237 0 1.4143.39.3905 1.024.3905 1.414 0l.581-.5808.581.5808c.39.3905 1.023.3905 1.414 0 .39-.3906.39-1.0237 0-1.4143l-.581-.5807z"/><path d="m367.263 52.7322c.39-.3905.39-1.0237 0-1.4142-.391-.3905-1.024-.3905-1.415 0l-2.656 2.6566c-.391.3905-.391 1.0237 0 1.4142.39.3905 1.023.3905 1.414 0z"/><path d="m361.949 58.0453c.391-.3905.391-1.0237 0-1.4142-.39-.3905-1.023-.3905-1.414 0l-1.328 1.3283c-.391.3905-.391 1.0237 0 1.4142.39.3905 1.024.3905 1.414 0z"/><path d="m380.379 59.3736c.39.3905 1.023.3905 1.414 0 .39-.3905.39-1.0237 0-1.4142l-1.329-1.3283c-.39-.3905-1.023-.3905-1.414 0-.39.3905-.39 1.0237 0 1.4142z"/><path d="m376.394 55.3888c.39.3905 1.023.3905 1.414 0 .39-.3905.39-1.0237 0-1.4142l-2.657-2.6566c-.39-.3905-1.023-.3905-1.414 0-.39.3905-.39 1.0237 0 1.4142z"/><path d="m365.767 44.7625c.391.3906 1.024.3906 1.415 0 .39-.3905.39-1.0236 0-1.4142l-2.657-2.6565c-.39-.3905-1.024-.3905-1.414 0-.391.3905-.391 1.0237 0 1.4142z"/><path d="m360.454 39.4494c.391.3906 1.024.3906 1.415 0 .39-.3905.39-1.0237 0-1.4142l-1.329-1.3283c-.39-.3905-1.023-.3905-1.414 0-.39.3906-.39 1.0237 0 1.4143z"/><path d="m366.574 41.1852c.398-.1203.82-.1854 1.259-.1854h1c.552 0 1-.4477 1-1 0-.5522-.448-1-1-1h-1c-.638 0-1.255.0947-1.838.2713-.529.1602-.828.7185-.668 1.247.161.5286.719.8273 1.247.6671z"/><path d="m372.167 38.9998c-.553 0-1 .4478-1 1 0 .5523.447 1 1 1h1c.439 0 .861.0651 1.258.1854.529.1602 1.087-.1385 1.247-.6671.16-.5285-.138-1.0868-.667-1.247-.583-.1766-1.201-.2713-1.838-.2713z"/><path d="m363.685 44.0744c.16-.5285-.138-1.0868-.667-1.247-.528-.1601-1.087.1385-1.247.6671-.177.5831-.271 1.2007-.271 1.8387v1c0 .5523.448 1 1 1s1-.4477 1-1v-1c0-.4393.065-.8616.185-1.2588z"/><path d="m379.229 43.4945c-.161-.5286-.719-.8272-1.247-.6671-.529.1602-.828.7185-.668 1.247.121.3972.186.8195.186 1.2588v1c0 .5523.448 1 1 1s1-.4477 1-1v-1c0-.638-.095-1.2556-.271-1.8387z"/><path d="m363.5 49.6665c0-.5523-.448-1-1-1s-1 .4477-1 1v1c0 .6379.094 1.2556.271 1.8387.16.5285.719.8272 1.247.6671.529-.1602.827-.7185.667-1.247-.12-.3972-.185-.8195-.185-1.2588z"/><path d="m379.5 49.6665c0-.5523-.448-1-1-1s-1 .4477-1 1v1c0 .4393-.065.8616-.186 1.2588-.16.5285.139 1.0868.668 1.247.528.1601 1.086-.1386 1.247-.6671.176-.5831.271-1.2008.271-1.8387z"/><path d="m366.574 54.8145c-.528-.1602-1.086.1385-1.247.667-.16.5286.139 1.0869.668 1.247.583.1767 1.2.2713 1.838.2713h1c.552 0 1-.4477 1-1 0-.5522-.448-1-1-1h-1c-.439 0-.861-.065-1.259-.1853z"/><path d="m375.005 56.7285c.529-.1601.827-.7184.667-1.247-.16-.5285-.718-.8272-1.247-.667-.397.1203-.819.1853-1.258.1853h-1c-.553 0-1 .4478-1 1 0 .5523.447 1 1 1h1c.637 0 1.255-.0946 1.838-.2713z"/><path d="m406.227 48.9971c0 2.5924-.53 4.5761-1.59 5.9511-1.053 1.3679-2.571 2.0518-4.555 2.0518h-3.846v-15.7051h4.201c1.826 0 3.247.6768 4.264 2.0303 1.017 1.3463 1.526 3.237 1.526 5.6719zm-2.998.0859c0-3.5091-.966-5.2637-2.9-5.2637h-1.171v10.6241h.946c1.067 0 1.854-.4441 2.363-1.3321.508-.8952.762-2.2379.762-4.0283zm9.79 8.1318c-1.497 0-2.679-.5299-3.545-1.5898-.86-1.0671-1.289-2.5745-1.289-4.5225 0-1.9765.39-3.5198 1.17-4.6298.781-1.1101 1.87-1.6651 3.266-1.6651 1.303 0 2.331.4763 3.083 1.4287.752.9453 1.128 2.2738 1.128 3.9854v1.5254h-5.747c.021 1.067.24 1.8619.655 2.3847.416.5157.989.7735 1.719.7735.931 0 1.883-.2901 2.857-.8701v2.3525c-.916.5514-2.016.8271-3.297.8271zm-.419-10.205c-.409 0-.745.2184-1.01.6552-.265.4297-.419 1.0993-.462 2.0088h2.9c-.014-.8737-.146-1.5361-.397-1.9873-.251-.4511-.595-.6767-1.031-.6767zm11.69.29h-1.977v9.7002h-2.857v-9.7002h-1.386v-1.4287l1.386-.8594v-.9023c0-1.3321.276-2.3203.827-2.9649.552-.6517 1.44-.9775 2.664-.9775.774 0 1.493.1611 2.159.4834l-.752 2.1807c-.358-.1719-.723-.2579-1.095-.2579-.33 0-.57.1289-.72.3868-.15.2578-.226.6552-.226 1.1923v.8809h1.977zm7.372 9.7002-.569-1.6328h-.065c-.422.7018-.859 1.1852-1.31 1.4502s-1.021.3974-1.708.3974c-.881 0-1.576-.3294-2.084-.9882-.502-.6589-.752-1.5756-.752-2.75 0-1.2605.344-2.195 1.031-2.8037.695-.6159 1.73-.9561 3.105-1.0206l1.589-.0644v-.8594c0-1.1172-.483-1.6758-1.45-1.6758-.716 0-1.539.2793-2.47.8379l-.989-1.9765c1.189-.752 2.482-1.128 3.878-1.128 1.268 0 2.231.3653 2.89 1.0957.666.7233.999 1.751.999 3.083v8.0352zm-2.481-2.0195c.522 0 .938-.2328 1.246-.6983.315-.4726.472-1.0993.472-1.8799v-1.0097l-.88.0429c-.652.0359-1.132.2221-1.44.5586-.301.3366-.451.8379-.451 1.5039 0 .9883.351 1.4825 1.053 1.4825zm13.602 2.0195-.354-1.5361h-.151c-.265.5442-.644.9739-1.138 1.289-.487.308-1.046.4619-1.676.4619-1.074 0-1.887-.3652-2.439-1.0957-.551-.7304-.827-1.8226-.827-3.2763v-7.8096h2.89v7.1221c0 .8737.104 1.5325.311 1.9765.208.444.545.6661 1.01.6661.616 0 1.064-.308 1.343-.9239.286-.6159.43-1.6507.43-3.1045v-5.7363h2.889v11.9668zm7.791 0h-2.857v-16.7148h2.857zm6.814-2.2021c.401 0 .834-.1003 1.3-.3008v2.2343c-.466.3223-1.164.4834-2.095.4834-1.039 0-1.808-.3079-2.31-.9238-.501-.623-.752-1.554-.752-2.793v-6.1982h-1.16v-1.2783l1.493-1.0313.731-2.5351h1.826v2.5781h2.17v2.2666h-2.17v6.2949c0 .8021.322 1.2032.967 1.2032z"/></g><rect fill="#fc0" height="56" rx="4" width="137" x="485.5" y="20"/><g clip-path="url(#b)" fill="#000"><path d="m509.5 35.6665c-.59 0-1.149.1171-1.659.3284-.51.2116-1.095-.0305-1.306-.5406-.212-.5102.03-1.0953.54-1.3068.748-.3103 1.568-.481 2.425-.481h2c.552 0 1 .4477 1 1s-.448 1-1 1z"/><path d="m514.5 34.6665c0-.5523.448-1 1-1h4c.552 0 1 .4477 1 1s-.448 1-1 1h-4c-.552 0-1-.4477-1-1z"/><path d="m522.5 34.6665c0-.5523.448-1 1-1h2c.857 0 1.676.1707 2.424.481.511.2115.753.7966.541 1.3068-.211.5101-.797.7522-1.307.5406-.509-.2113-1.069-.3284-1.658-.3284h-2c-.552 0-1-.4477-1-1z"/><path d="m504.954 37.0346c.51.2115.752.7966.541 1.3068-.211.5095-.328 1.069-.328 1.6584v2c0 .5523-.448 1-1 1-.553 0-1-.4477-1-1v-2c0-.8569.17-1.6764.48-2.4246.212-.5101.797-.7522 1.307-.5406z"/><path d="m530.045 37.0346c.511-.2116 1.096.0305 1.307.5406.31.7482.481 1.5677.481 2.4246v2c0 .5523-.448 1-1 1s-1-.4477-1-1v-2c0-.5894-.117-1.1489-.328-1.6584-.212-.5102.03-1.0953.54-1.3068z"/><path d="m504.167 44.9998c.552 0 1 .4478 1 1v4c0 .5523-.448 1-1 1-.553 0-1-.4477-1-1v-4c0-.5522.447-1 1-1z"/><path d="m530.833 44.9998c.552 0 1 .4478 1 1v4c0 .5523-.448 1-1 1s-1-.4477-1-1v-4c0-.5522.448-1 1-1z"/><path d="m504.167 52.9998c.552 0 1 .4478 1 1v2c0 .5894.117 1.149.328 1.6585.211.5102-.031 1.0952-.541 1.3068s-1.095-.0305-1.307-.5407c-.31-.7481-.48-1.5677-.48-2.4246v-2c0-.5522.447-1 1-1z"/><path d="m530.833 52.9998c.552 0 1 .4478 1 1v2c0 .8569-.171 1.6765-.481 2.4246-.211.5102-.796.7523-1.307.5407-.51-.2116-.752-.7966-.54-1.3068.211-.5095.328-1.0691.328-1.6585v-2c0-.5522.448-1 1-1z"/><path d="m506.535 60.5454c.211-.5101.796-.7522 1.306-.5407.51.2113 1.069.3285 1.659.3285h2c.552 0 1 .4477 1 1s-.448 1-1 1h-2c-.857 0-1.677-.1708-2.425-.481-.51-.2116-.752-.7966-.54-1.3068z"/><path d="m528.465 60.5454c.212.5102-.03 1.0952-.541 1.3068-.748.3102-1.567.481-2.424.481h-2c-.552 0-1-.4477-1-1s.448-1 1-1h2c.589 0 1.149-.1172 1.658-.3285.51-.2115 1.096.0306 1.307.5407z"/><path d="m514.5 61.3332c0-.5523.448-1 1-1h4c.552 0 1 .4477 1 1s-.448 1-1 1h-4c-.552 0-1-.4477-1-1z"/><path d="m528.874 38.1212c.39-.3906.39-1.0237 0-1.4143-.391-.3905-1.024-.3905-1.415 0l-1.328 1.3283c-.39.3905-.39 1.0237 0 1.4142.391.3906 1.024.3906 1.414 0z"/><path d="m524.889 42.106c.39-.3905.39-1.0237 0-1.4142-.391-.3905-1.024-.3905-1.414 0l-2.657 2.6565c-.391.3906-.391 1.0237 0 1.4142.391.3906 1.024.3906 1.414 0z"/><path d="m519.576 47.4191c.39-.3905.39-1.0237 0-1.4142-.391-.3905-1.024-.3905-1.415 0l-.661.6616-.662-.6616c-.39-.3905-1.023-.3905-1.414 0s-.391 1.0237 0 1.4142l.662.6616-.581.5807c-.391.3906-.391 1.0237 0 1.4143.39.3905 1.024.3905 1.414 0l.581-.5808.581.5808c.39.3905 1.023.3905 1.414 0 .39-.3906.39-1.0237 0-1.4143l-.581-.5807z"/><path d="m514.263 52.7322c.39-.3905.39-1.0237 0-1.4142-.391-.3905-1.024-.3905-1.415 0l-2.656 2.6566c-.391.3905-.391 1.0237 0 1.4142.39.3905 1.023.3905 1.414 0z"/><path d="m508.949 58.0453c.391-.3905.391-1.0237 0-1.4142-.39-.3905-1.023-.3905-1.414 0l-1.328 1.3283c-.391.3905-.391 1.0237 0 1.4142.39.3905 1.024.3905 1.414 0z"/><path d="m527.379 59.3736c.39.3905 1.023.3905 1.414 0 .39-.3905.39-1.0237 0-1.4142l-1.329-1.3283c-.39-.3905-1.023-.3905-1.414 0-.39.3905-.39 1.0237 0 1.4142z"/><path d="m523.394 55.3888c.39.3905 1.023.3905 1.414 0 .39-.3905.39-1.0237 0-1.4142l-2.657-2.6566c-.39-.3905-1.023-.3905-1.414 0-.39.3905-.39 1.0237 0 1.4142z"/><path d="m512.767 44.7625c.391.3906 1.024.3906 1.415 0 .39-.3905.39-1.0236 0-1.4142l-2.657-2.6565c-.39-.3905-1.024-.3905-1.414 0-.391.3905-.391 1.0237 0 1.4142z"/><path d="m507.454 39.4494c.391.3906 1.024.3906 1.415 0 .39-.3905.39-1.0237 0-1.4142l-1.329-1.3283c-.39-.3905-1.023-.3905-1.414 0-.39.3906-.39 1.0237 0 1.4143z"/><path d="m513.574 41.1852c.398-.1203.82-.1854 1.259-.1854h1c.552 0 1-.4477 1-1 0-.5522-.448-1-1-1h-1c-.638 0-1.255.0947-1.838.2713-.529.1602-.828.7185-.668 1.247.161.5286.719.8273 1.247.6671z"/><path d="m519.167 38.9998c-.553 0-1 .4478-1 1 0 .5523.447 1 1 1h1c.439 0 .861.0651 1.258.1854.529.1602 1.087-.1385 1.247-.6671.16-.5285-.138-1.0868-.667-1.247-.583-.1766-1.201-.2713-1.838-.2713z"/><path d="m510.685 44.0744c.16-.5285-.138-1.0868-.667-1.247-.528-.1601-1.087.1385-1.247.6671-.177.5831-.271 1.2007-.271 1.8387v1c0 .5523.448 1 1 1s1-.4477 1-1v-1c0-.4393.065-.8616.185-1.2588z"/><path d="m526.229 43.4945c-.161-.5286-.719-.8272-1.247-.6671-.529.1602-.828.7185-.668 1.247.121.3972.186.8195.186 1.2588v1c0 .5523.448 1 1 1s1-.4477 1-1v-1c0-.638-.095-1.2556-.271-1.8387z"/><path d="m510.5 49.6665c0-.5523-.448-1-1-1s-1 .4477-1 1v1c0 .6379.094 1.2556.271 1.8387.16.5285.719.8272 1.247.6671.529-.1602.827-.7185.667-1.247-.12-.3972-.185-.8195-.185-1.2588z"/><path d="m526.5 49.6665c0-.5523-.448-1-1-1s-1 .4477-1 1v1c0 .4393-.065.8616-.186 1.2588-.16.5285.139 1.0868.668 1.247.528.1601 1.086-.1386 1.247-.6671.176-.5831.271-1.2008.271-1.8387z"/><path d="m513.574 54.8145c-.528-.1602-1.086.1385-1.247.667-.16.5286.139 1.0869.668 1.247.583.1767 1.2.2713 1.838.2713h1c.552 0 1-.4477 1-1 0-.5522-.448-1-1-1h-1c-.439 0-.861-.065-1.259-.1853z"/><path d="m522.005 56.7285c.529-.1601.827-.7184.667-1.247-.16-.5285-.718-.8272-1.247-.667-.397.1203-.819.1853-1.258.1853h-1c-.553 0-1 .4478-1 1 0 .5523.447 1 1 1h1c.637 0 1.255-.0946 1.838-.2713z"/><path d="m553.227 48.9971c0 2.5924-.53 4.5761-1.59 5.9511-1.053 1.3679-2.571 2.0518-4.555 2.0518h-3.846v-15.7051h4.201c1.826 0 3.247.6768 4.264 2.0303 1.017 1.3463 1.526 3.237 1.526 5.6719zm-2.998.0859c0-3.5091-.966-5.2637-2.9-5.2637h-1.171v10.6241h.946c1.067 0 1.854-.4441 2.363-1.3321.508-.8952.762-2.2379.762-4.0283zm9.79 8.1318c-1.497 0-2.679-.5299-3.545-1.5898-.86-1.0671-1.289-2.5745-1.289-4.5225 0-1.9765.39-3.5198 1.17-4.6298.781-1.1101 1.87-1.6651 3.266-1.6651 1.303 0 2.331.4763 3.083 1.4287.752.9453 1.128 2.2738 1.128 3.9854v1.5254h-5.747c.021 1.067.24 1.8619.655 2.3847.416.5157.989.7735 1.719.7735.931 0 1.883-.2901 2.857-.8701v2.3525c-.916.5514-2.016.8271-3.297.8271zm-.419-10.205c-.409 0-.745.2184-1.01.6552-.265.4297-.419 1.0993-.462 2.0088h2.9c-.014-.8737-.146-1.5361-.397-1.9873-.251-.4511-.595-.6767-1.031-.6767zm11.69.29h-1.977v9.7002h-2.857v-9.7002h-1.386v-1.4287l1.386-.8594v-.9023c0-1.3321.276-2.3203.827-2.9649.552-.6517 1.44-.9775 2.664-.9775.774 0 1.493.1611 2.159.4834l-.752 2.1807c-.358-.1719-.723-.2579-1.095-.2579-.33 0-.57.1289-.72.3868-.15.2578-.226.6552-.226 1.1923v.8809h1.977zm7.372 9.7002-.569-1.6328h-.065c-.422.7018-.859 1.1852-1.31 1.4502s-1.021.3974-1.708.3974c-.881 0-1.576-.3294-2.084-.9882-.502-.6589-.752-1.5756-.752-2.75 0-1.2605.344-2.195 1.031-2.8037.695-.6159 1.73-.9561 3.105-1.0206l1.589-.0644v-.8594c0-1.1172-.483-1.6758-1.45-1.6758-.716 0-1.539.2793-2.47.8379l-.989-1.9765c1.189-.752 2.482-1.128 3.878-1.128 1.268 0 2.231.3653 2.89 1.0957.666.7233.999 1.751.999 3.083v8.0352zm-2.481-2.0195c.522 0 .938-.2328 1.246-.6983.315-.4726.472-1.0993.472-1.8799v-1.0097l-.88.0429c-.652.0359-1.132.2221-1.44.5586-.301.3366-.451.8379-.451 1.5039 0 .9883.351 1.4825 1.053 1.4825zm13.602 2.0195-.354-1.5361h-.151c-.265.5442-.644.9739-1.138 1.289-.487.308-1.046.4619-1.676.4619-1.074 0-1.887-.3652-2.439-1.0957-.551-.7304-.827-1.8226-.827-3.2763v-7.8096h2.89v7.1221c0 .8737.104 1.5325.311 1.9765.208.444.545.6661 1.01.6661.616 0 1.064-.308 1.343-.9239.286-.6159.43-1.6507.43-3.1045v-5.7363h2.889v11.9668zm7.791 0h-2.857v-16.7148h2.857zm6.814-2.2021c.401 0 .834-.1003 1.3-.3008v2.2343c-.466.3223-1.164.4834-2.095.4834-1.039 0-1.808-.3079-2.31-.9238-.501-.623-.752-1.554-.752-2.793v-6.1982h-1.16v-1.2783l1.493-1.0313.731-2.5351h1.826v2.5781h2.17v2.2666h-2.17v6.2949c0 .8021.322 1.2032.967 1.2032z"/></g></svg>