<svg fill="none" height="58" viewBox="0 0 516 58" width="516" xmlns="http://www.w3.org/2000/svg" xmlns:xlink="http://www.w3.org/1999/xlink"><clipPath id="a"><path d="m253.646 13h116v32h-116z"/></clipPath><path d="m14.4209 24.8335h-1.7871v-8.5664h4.9101v1.4883h-3.123v2.209h2.9062v1.4824h-2.9062zm6.01-3.2871c0 .6484.1055 1.1387.3164 1.4707.2149.332.5625.498 1.043.498.4766 0 .8184-.164 1.0254-.4922.2109-.332.3164-.8242.3164-1.4765 0-.6485-.1055-1.1348-.3164-1.459s-.5566-.4863-1.0371-.4863c-.4766 0-.8203.1621-1.0313.4863-.2109.3203-.3164.8066-.3164 1.459zm4.5293 0c0 1.0664-.2812 1.9004-.8437 2.5019-.5625.6016-1.3457.9024-2.3496.9024-.6289 0-1.1836-.1367-1.6641-.4102-.4805-.2773-.8496-.6738-1.1074-1.1894-.2578-.5157-.3867-1.1172-.3867-1.8047 0-1.0703.2793-1.9024.8379-2.4961.5585-.5938 1.3437-.8906 2.3554-.8906.6289 0 1.1836.1367 1.6641.4101.4805.2735.8496.666 1.1074 1.1778.2578.5117.3867 1.1113.3867 1.7988zm7.4515 3.2871h-1.7871v-3.8262c0-.4726-.084-.8261-.252-1.0605-.168-.2383-.4355-.3574-.8027-.3574-.5 0-.8614.1679-1.084.5039-.2227.332-.334.8847-.334 1.6582v3.082h-1.7871v-6.5508h1.3652l.2403.8379h.0996c.1992-.3164.4726-.5547.8203-.7148.3515-.1641.75-.2461 1.1953-.2461.7617 0 1.3398.207 1.7344.6211.3945.4101.5918 1.0039.5918 1.7812zm4.5276-1.3066c.3125 0 .6875-.0684 1.125-.2051v1.3301c-.4453.1992-.9922.2988-1.6407.2988-.7148 0-1.2363-.1797-1.5644-.5391-.3242-.3633-.4863-.9062-.4863-1.6289v-3.1582h-.8555v-.7558l.9844-.5977.5156-1.3828h1.1426v1.3945h1.834v1.3418h-1.834v3.1582c0 .2539.0703.4414.2109.5625.1445.1211.334.1817.5684.1817zm1.803-1.1778v-1.4648h3.1465v1.4648zm8.9456.5391c0 .6719-.2344 1.1836-.7032 1.5351-.4648.3516-1.1621.5274-2.0918.5274-.4765 0-.8828-.0332-1.2187-.0996-.336-.0625-.6504-.1563-.9434-.2813v-1.4765c.3321.1562.7051.2871 1.1192.3925.4179.1055.7851.1582 1.1015.1582.6485 0 .9727-.1875.9727-.5625 0-.1406-.043-.2539-.1289-.3398-.086-.0898-.2344-.1895-.4453-.2988-.211-.1133-.4922-.2442-.8438-.3926-.5039-.2109-.875-.4063-1.1133-.5859-.2343-.1797-.4062-.3848-.5156-.6153-.1055-.2344-.1582-.5215-.1582-.8613 0-.582.2246-1.0313.6738-1.3477.4532-.3203 1.0938-.4804 1.9219-.4804.7891 0 1.5566.1718 2.3027.5156l-.539 1.2891c-.3281-.1407-.6348-.2559-.9199-.3457-.2852-.0899-.5762-.1348-.8731-.1348-.5273 0-.791.1426-.791.4277 0 .1602.084.2988.2519.416.1719.1172.545.2911 1.1192.5215.5117.2071.8867.4004 1.125.5801s.414.3867.5273.6211.17.5137.17.8379zm1.2463-6.2988c0-.5821.3242-.8731.9727-.8731.6484 0 .9726.291.9726.8731 0 .2773-.082.4941-.2461.6503-.1601.1524-.4023.2286-.7265.2286-.6485 0-.9727-.293-.9727-.8789zm1.8633 8.2441h-1.7871v-6.5508h1.7871zm6.3674 0h-5.1738v-1.0547l3.0352-4.1309h-2.8535v-1.3652h4.8867v1.1602l-2.9532 4.0254h3.0586zm3.9417-5.4023c-.3789 0-.6758.121-.8906.3632-.2149.2383-.3379.5782-.3691 1.0196h2.5078c-.0078-.4414-.1231-.7813-.3457-1.0196-.2227-.2422-.5235-.3632-.9024-.3632zm.252 5.5195c-1.0547 0-1.8789-.291-2.4727-.8731-.5937-.582-.8906-1.4062-.8906-2.4726 0-1.0977.2734-1.9453.8203-2.543.5508-.6016 1.3105-.9023 2.2793-.9023.9258 0 1.6465.2636 2.1621.791.5156.5273.7734 1.2558.7734 2.1855v.8672h-4.2246c.0196.5078.17.9043.4512 1.1895.2813.2851.6758.4277 1.1836.4277.3945 0 .7676-.041 1.1191-.123.3516-.0821.7188-.2129 1.1016-.3926v1.3828c-.3125.1562-.6465.2715-1.0019.3457-.3555.0781-.7891.1172-1.3008.1172zm3.801-.9551c0-.3281.0879-.5762.2637-.7441.1758-.168.4316-.252.7676-.252.3242 0 .5742.0859.75.2578.1797.1719.2695.418.2695.7383 0 .3086-.0898.5527-.2695.7324-.1797.1758-.4297.2637-.75.2637-.3282 0-.5821-.0859-.7618-.2578-.1796-.1758-.2695-.4219-.2695-.7383zm0-4.8398c0-.3282.0879-.5762.2637-.7442.1758-.1679.4316-.2519.7676-.2519.3242 0 .5742.0859.75.2578.1797.1719.2695.4179.2695.7383 0 .3164-.0918.5625-.2754.7382-.1797.1719-.4277.2579-.7441.2579-.3282 0-.5821-.086-.7618-.2579-.1796-.1718-.2695-.4179-.2695-.7382zm11.9263 5.6777h-5.6308v-.8379l2.2558-2.2676c.6875-.6953 1.1407-1.1914 1.3594-1.4883.2188-.2968.3828-.5859.4922-.8671.1094-.2813.1641-.584.1641-.9082 0-.4571-.1387-.8184-.4161-1.084-.2773-.2696-.6621-.4043-1.1543-.4043-.3554 0-.6933.0586-1.0136.1758-.3164.1171-.67.33-1.0606.6386l-.5156-.6621c.7891-.6562 1.6484-.9844 2.5781-.9844.8047 0 1.4356.2071 1.8926.6211.457.4102.6855.9629.6855 1.6582 0 .543-.1523 1.0801-.457 1.6114-.3047.5312-.875 1.2031-1.7109 2.0156l-1.875 1.834v.0469h4.4062zm6.8421-4.2949c0 1.4804-.2344 2.5859-.7031 3.3164-.4649.7304-1.1778 1.0957-2.1387 1.0957-.9219 0-1.623-.3731-2.1035-1.1192-.4805-.75-.7207-1.8476-.7207-3.2929 0-1.4922.2324-2.5996.6972-3.3223.4649-.7226 1.1739-1.084 2.127-1.084.9297 0 1.6348.377 2.1152 1.1309.4844.7539.7266 1.8457.7266 3.2754zm-4.6816 0c0 1.2461.1464 2.1543.4394 2.7246.293.5664.7598.8496 1.4004.8496.6484 0 1.1172-.2871 1.4062-.8613.293-.5782.4395-1.4825.4395-2.7129 0-1.2305-.1465-2.1309-.4395-2.7012-.289-.5742-.7578-.8613-1.4062-.8613-.6406 0-1.1074.2832-1.4004.8496-.293.5625-.4394 1.4668-.4394 2.7129zm10.3869 2.5429c0 .5977-.2226 1.0586-.6679 1.3829-.4453.3242-1.0703.4863-1.875.4863-.8516 0-1.5157-.1348-1.9922-.4043v-.9024c.3086.1563.6387.2793.9902.3692.3555.0898.6973.1347 1.0254.1347.5078 0 .8984-.08 1.1719-.2402.2734-.164.4101-.4121.4101-.7441 0-.25-.1093-.4629-.3281-.6387-.2148-.1797-.6367-.3906-1.2656-.6328-.5977-.2227-1.0234-.416-1.2774-.5801-.25-.168-.4375-.3574-.5625-.5683-.121-.211-.1816-.4629-.1816-.7559 0-.5234.2129-.9356.6387-1.2363.4258-.3047 1.0097-.4571 1.7519-.4571.6914 0 1.3672.1407 2.0274.4219l-.3457.791c-.6446-.2656-1.2285-.3984-1.752-.3984-.4609 0-.8086.0723-1.043.2168-.2343.1445-.3515.3437-.3515.5976 0 .1719.043.3184.1289.4395.0898.1211.2324.2363.4277.3457s.5703.2676 1.125.4746c.7617.2773 1.2754.5566 1.541.8379.2696.2812.4043.6348.4043 1.0605zm4.5042 1.8692c-.418 0-.8008-.0762-1.1484-.2285-.3438-.1563-.6328-.3946-.8672-.7149h-.0703c.0468.375.0703.7305.0703 1.0664v2.6426h-.9727v-9.3047h.791l.1348.8789h.0469c.25-.3515.541-.6054.873-.7617.3321-.1562.7129-.2344 1.1426-.2344.8516 0 1.5078.291 1.9688.8731.4648.582.6972 1.3984.6972 2.4492 0 1.0547-.2363 1.875-.709 2.4609-.4687.5821-1.1211.8731-1.957.8731zm-.1406-5.8301c-.6563 0-1.1309.1816-1.4238.5449-.293.3633-.4434.9414-.4512 1.7344v.2168c0 .9023.1504 1.5488.4512 1.9395.3007.3867.7832.58 1.4472.58.5547 0 .9883-.2246 1.3008-.6738.3164-.4492.4746-1.0684.4746-1.8574 0-.8008-.1582-1.4141-.4746-1.8399-.3125-.4297-.7539-.6445-1.3242-.6445zm-81.3631 17.1465h2.666c1.2148 0 2.0957.1738 2.6426.5215.5508.3437.8262.8926.8262 1.6465 0 .5117-.1211.9316-.3633 1.2597-.2383.3281-.5567.5254-.9551.5918v.0586c.543.1211.9336.3477 1.1719.6797.2422.332.3633.7734.3633 1.3242 0 .7813-.2833 1.3906-.8497 1.8281-.5625.4375-1.3281.6563-2.2968.6563h-3.2051zm1.8164 3.3926h1.0547c.4922 0 .8476-.0762 1.0664-.2285.2226-.1524.334-.4043.334-.7559 0-.3281-.1211-.5625-.3633-.7031-.2383-.1446-.6172-.2168-1.1367-.2168h-.9551zm0 1.4414v2.2324h1.1836c.5 0 .8691-.0957 1.1074-.2871s.3574-.4844.3574-.8789c0-.711-.5078-1.0664-1.5234-1.0664zm7.4573.4453c0 .6484.1055 1.1387.3164 1.4707.2148.332.5625.498 1.043.498.4765 0 .8183-.164 1.0254-.4922.2109-.332.3164-.8242.3164-1.4765 0-.6485-.1055-1.1348-.3164-1.459-.211-.3242-.5567-.4863-1.0372-.4863-.4765 0-.8203.1621-1.0312.4863-.2109.3203-.3164.8066-.3164 1.459zm4.5293 0c0 1.0664-.2813 1.9004-.8438 2.5019-.5625.6016-1.3457.9024-2.3496.9024-.6289 0-1.1836-.1367-1.664-.4102-.4805-.2773-.8496-.6738-1.1075-1.1894-.2578-.5157-.3867-1.1172-.3867-1.8047 0-1.0703.2793-1.9024.8379-2.4961.5586-.5938 1.3438-.8906 2.3555-.8906.6289 0 1.1836.1367 1.664.4101.4805.2735.8497.666 1.1075 1.1778.2578.5117.3867 1.1113.3867 1.7988zm5.0608-3.3867c.2422 0 .4434.0175.6035.0527l-.1347 1.6758c-.1446-.0391-.3204-.0586-.5274-.0586-.5703 0-1.0156.1465-1.3359.4394-.3164.293-.4746.7032-.4746 1.2305v3.334h-1.7871v-6.5508h1.3535l.2636 1.1016h.0879c.2032-.3672.4766-.6621.8203-.8848.3477-.2266.7247-.3398 1.1309-.3398zm3.7952 6.791c-.7695 0-1.375-.2988-1.8164-.8965-.4375-.5977-.6563-1.4258-.6563-2.4844 0-1.0742.2227-1.9101.668-2.5078.4492-.6016 1.0664-.9023 1.8516-.9023.8242 0 1.4531.3203 1.8867.9609h.0586c-.0899-.4883-.1348-.9238-.1348-1.3066v-2.0977h1.793v9.1172h-1.3711l-.3457-.8496h-.0762c-.4062.6445-1.0254.9668-1.8574.9668zm.6269-1.4238c.4571 0 .7911-.1329 1.002-.3985.2148-.2656.332-.7168.3516-1.3535v-.1934c0-.7031-.1094-1.207-.3282-1.5117-.2148-.3047-.5664-.457-1.0547-.457-.3984 0-.7089.1699-.9316.5098-.2187.3359-.3281.8261-.3281 1.4707 0 .6445.1113 1.1289.334 1.4531.2226.3203.541.4805.955.4805zm7.5335-4.0957c-.3789 0-.6758.121-.8906.3632-.2149.2383-.3379.5782-.3692 1.0196h2.5079c-.0079-.4414-.1231-.7813-.3457-1.0196-.2227-.2422-.5235-.3632-.9024-.3632zm.252 5.5195c-1.0547 0-1.8789-.291-2.4727-.8731-.5937-.582-.8906-1.4062-.8906-2.4726 0-1.0977.2734-1.9453.8203-2.543.5508-.6016 1.3105-.9023 2.2793-.9023.9258 0 1.6465.2636 2.1621.791.5156.5273.7734 1.2558.7734 2.1855v.8672h-4.2246c.0196.5078.17.9043.4512 1.1895.2813.2851.6758.4277 1.1836.4277.3945 0 .7676-.041 1.1191-.123.3516-.0821.7188-.2129 1.1016-.3926v1.3828c-.3125.1562-.6465.2715-1.002.3457-.3554.0781-.789.1172-1.3007.1172zm7.7092-6.791c.2422 0 .4434.0175.6035.0527l-.1347 1.6758c-.1446-.0391-.3203-.0586-.5274-.0586-.5703 0-1.0156.1465-1.3359.4394-.3164.293-.4746.7032-.4746 1.2305v3.334h-1.7871v-6.5508h1.3535l.2637 1.1016h.0878c.2032-.3672.4766-.6621.8204-.8848.3476-.2266.7246-.3398 1.1308-.3398zm1.1409 4.1894v-1.4648h3.1465v1.4648zm8.0315-4.1894c.2422 0 .4434.0175.6035.0527l-.1347 1.6758c-.1446-.0391-.3203-.0586-.5274-.0586-.5703 0-1.0156.1465-1.3359.4394-.3164.293-.4746.7032-.4746 1.2305v3.334h-1.7871v-6.5508h1.3535l.2637 1.1016h.0878c.2032-.3672.4766-.6621.8204-.8848.3476-.2266.7246-.3398 1.1308-.3398zm5.8811 6.6738-.3457-.8906h-.0468c-.3008.3789-.6114.6425-.9317.791-.3164.1445-.7304.2168-1.2422.2168-.6289 0-1.125-.1797-1.4882-.5391-.3594-.3594-.5391-.8711-.5391-1.5351 0-.6953.2422-1.2071.7266-1.5352.4882-.332 1.2226-.5156 2.2031-.5508l1.1367-.0351v-.2871c0-.6641-.3398-.9961-1.0195-.9961-.5235 0-1.1387.1582-1.8457.4746l-.5918-1.2071c.7539-.3945 1.5898-.5918 2.5078-.5918.8789 0 1.5527.1915 2.0215.5743.4687.3828.7031.9648.7031 1.7461v4.3652zm-.5273-3.0352-.6914.0235c-.5195.0156-.9063.1094-1.1602.2812-.2539.1719-.3808.4336-.3808.7852 0 .5039.289.7558.8672.7558.414 0 .7441-.1191.9902-.3574.25-.2383.375-.5547.375-.9492zm5.6233 3.1524c-.7695 0-1.375-.2988-1.8164-.8965-.4375-.5977-.6562-1.4258-.6562-2.4844 0-1.0742.2226-1.9101.6679-2.5078.4492-.6016 1.0664-.9023 1.8516-.9023.8242 0 1.4531.3203 1.8867.9609h.0586c-.0898-.4883-.1348-.9238-.1348-1.3066v-2.0977h1.793v9.1172h-1.3711l-.3457-.8496h-.0762c-.4062.6445-1.0254.9668-1.8574.9668zm.627-1.4238c.457 0 .791-.1329 1.0019-.3985.2149-.2656.3321-.7168.3516-1.3535v-.1934c0-.7031-.1094-1.207-.3281-1.5117-.2149-.3047-.5664-.457-1.0547-.457-.3985 0-.709.1699-.9317.5098-.2187.3359-.3281.8261-.3281 1.4707 0 .6445.1113 1.1289.334 1.4531.2226.3203.541.4805.9551.4805zm4.7444-6.9375c0-.5821.3242-.8731.9726-.8731.6485 0 .9727.291.9727.8731 0 .2773-.082.4941-.2461.6503-.1602.1524-.4024.2286-.7266.2286-.6484 0-.9726-.293-.9726-.8789zm1.8633 8.2441h-1.7872v-6.5508h1.7872zm6.4494 0-.2402-.8379h-.0937c-.1915.3047-.4629.541-.8145.709-.3516.1641-.752.2461-1.2012.2461-.7695 0-1.3496-.2051-1.7402-.6153-.3906-.414-.5859-1.0078-.5859-1.7812v-4.2715h1.7871v3.8262c0 .4726.084.8281.2519 1.0664.168.2344.4356.3516.8028.3516.5 0 .8613-.1661 1.0839-.4981.2227-.3359.334-.8906.334-1.6641v-3.082h1.7871v6.5508zm7.7444-1.9453c0 .6719-.2343 1.1836-.7031 1.5351-.4648.3516-1.1621.5274-2.0918.5274-.4765 0-.8828-.0332-1.2187-.0996-.336-.0625-.6504-.1563-.9434-.2813v-1.4765c.332.1562.7051.2871 1.1192.3925.4179.1055.7851.1582 1.1015.1582.6485 0 .9727-.1875.9727-.5625 0-.1406-.043-.2539-.1289-.3398-.086-.0898-.2344-.1895-.4453-.2988-.211-.1133-.4922-.2442-.8438-.3926-.5039-.2109-.875-.4063-1.1133-.5859-.2343-.1797-.4062-.3848-.5156-.6153-.1055-.2344-.1582-.5215-.1582-.8613 0-.582.2246-1.0313.6738-1.3477.4532-.3203 1.0938-.4804 1.9219-.4804.7891 0 1.5566.1718 2.3027.5156l-.539 1.2891c-.3282-.1407-.6348-.2559-.9199-.3457-.2852-.0899-.5762-.1348-.8731-.1348-.5273 0-.791.1426-.791.4277 0 .1602.084.2988.2519.416.1719.1172.545.2911 1.1192.5215.5117.2071.8867.4004 1.125.5801s.414.3867.5273.6211.1699.5137.1699.8379zm1.0706 1.1074c0-.3281.0879-.5762.2637-.7441.1758-.168.4316-.252.7676-.252.3242 0 .5742.0859.75.2578.1797.1719.2695.418.2695.7383 0 .3086-.0898.5527-.2695.7324-.1797.1758-.4297.2637-.75.2637-.3281 0-.5821-.0859-.7617-.2578-.1797-.1758-.2696-.4219-.2696-.7383zm0-4.8398c0-.3282.0879-.5762.2637-.7442.1758-.1679.4316-.2519.7676-.2519.3242 0 .5742.0859.75.2578.1797.1719.2695.4179.2695.7383 0 .3164-.0918.5625-.2754.7382-.1797.1719-.4277.2579-.7441.2579-.3281 0-.5821-.086-.7617-.2579-.1797-.1718-.2696-.4179-.2696-.7382zm9.899 5.6777h-.949v-6.1055c0-.5078.015-.9883.047-1.4414-.082.0821-.174.168-.276.2578-.101.0899-.566.4707-1.394 1.1426l-.516-.668 2.268-1.7519h.82zm8.869-4.2949c0 1.4804-.234 2.5859-.703 3.3164-.465.7304-1.177 1.0957-2.138 1.0957-.922 0-1.623-.3731-2.104-1.1192-.48-.75-.721-1.8476-.721-3.2929 0-1.4922.233-2.5996.698-3.3223.464-.7226 1.173-1.084 2.127-1.084.929 0 1.634.377 2.115 1.1309.484.7539.726 1.8457.726 3.2754zm-4.681 0c0 1.2461.146 2.1543.439 2.7246.293.5664.76.8496 1.401.8496.648 0 1.117-.2871 1.406-.8613.293-.5782.439-1.4825.439-2.7129 0-1.2305-.146-2.1309-.439-2.7012-.289-.5742-.758-.8613-1.406-.8613-.641 0-1.108.2832-1.401.8496-.293.5625-.439 1.4668-.439 2.7129zm11.477 0c0 1.4804-.235 2.5859-.704 3.3164-.464.7304-1.177 1.0957-2.138 1.0957-.922 0-1.623-.3731-2.104-1.1192-.48-.75-.72-1.8476-.72-3.2929 0-1.4922.232-2.5996.697-3.3223.465-.7226 1.174-1.084 2.127-1.084.929 0 1.635.377 2.115 1.1309.484.7539.727 1.8457.727 3.2754zm-4.682 0c0 1.2461.146 2.1543.439 2.7246.293.5664.76.8496 1.401.8496.648 0 1.117-.2871 1.406-.8613.293-.5782.439-1.4825.439-2.7129 0-1.2305-.146-2.1309-.439-2.7012-.289-.5742-.758-.8613-1.406-.8613-.641 0-1.108.2832-1.401.8496-.293.5625-.439 1.4668-.439 2.7129zm10.615 3.4336h-.052c-.45.6523-1.121.9785-2.016.9785-.84 0-1.494-.2871-1.963-.8613-.465-.5743-.697-1.3907-.697-2.4493s.234-1.8808.703-2.4668c.469-.5859 1.121-.8789 1.957-.8789.871 0 1.539.3164 2.004.9493h.076l-.041-.4629-.023-.4512v-2.6133h.972v9.1172h-.791zm-1.945.164c.664 0 1.145-.1797 1.442-.539.3-.3633.451-.9473.451-1.752v-.2051c0-.9101-.153-1.5586-.457-1.9453-.301-.3906-.784-.5859-1.448-.5859-.57 0-1.007.2226-1.312.668-.301.4414-.451 1.0664-.451 1.875 0 .8203.15 1.4394.451 1.8574.301.4179.742.6269 1.324.6269zm7.85.8145c-.418 0-.801-.0762-1.148-.2285-.344-.1563-.633-.3946-.868-.7149h-.07c.047.375.07.7305.07 1.0664v2.6426h-.972v-9.3047h.791l.135.8789h.046c.25-.3515.541-.6054.873-.7617.332-.1562.713-.2344 1.143-.2344.852 0 1.508.291 1.969.8731.465.582.697 1.3984.697 2.4492 0 1.0547-.236 1.875-.709 2.4609-.469.5821-1.121.8731-1.957.8731zm-.141-5.8301c-.656 0-1.13.1816-1.423.5449s-.444.9414-.452 1.7344v.2168c0 .9023.151 1.5488.452 1.9395.3.3867.783.58 1.447.58.555 0 .988-.2246 1.301-.6738.316-.4492.474-1.0684.474-1.8574 0-.8008-.158-1.4141-.474-1.8399-.313-.4297-.754-.6445-1.325-.6445z" fill="#000"/><path d="m1 54.5v-51h145.396v9.9029l7.567 7.4272-7.567 6.932v26.7379z" stroke="#ccc"/><path d="m183.605 26.3574c0 .638-.18 1.1599-.54 1.5655-.355.4056-.861.6767-1.517.8134v.0547c.802.1003 1.397.3555 1.784.7656.387.4102.581.948.581 1.6133 0 .9525-.33 1.6862-.991 2.2012-.661.5104-1.6.7656-2.817.7656-.528 0-1.014-.041-1.456-.123-.437-.0775-.863-.2165-1.278-.417v-1.0801c.433.2142.893.3783 1.381.4922.492.1094.957.1641 1.394.1641 1.728 0 2.591-.6768 2.591-2.0303 0-1.2123-.952-1.8184-2.857-1.8184h-.985v-.9775h.998c.78 0 1.397-.1709 1.853-.5127.456-.3464.684-.8249.684-1.4356 0-.4876-.169-.8704-.506-1.1484-.333-.278-.786-.417-1.361-.417-.437 0-.85.0593-1.237.1777-.387.1185-.829.3373-1.326.6563l-.574-.7656c.41-.3236.881-.5765 1.415-.7588.537-.1869 1.103-.2803 1.695-.2803.971 0 1.725.2233 2.263.6699.537.4421.806 1.0505.806 1.8252zm8.304 7.6426h-6.569v-.9775l2.632-2.6455c.802-.8112 1.33-1.39 1.585-1.7364.256-.3463.447-.6836.575-1.0117.127-.3281.191-.6813.191-1.0596 0-.5332-.162-.9547-.485-1.2646-.324-.3145-.773-.4717-1.347-.4717-.415 0-.809.0684-1.183.2051-.369.1367-.781.3851-1.237.7451l-.601-.7725c.92-.7656 1.923-1.1484 3.007-1.1484.939 0 1.675.2415 2.208.7246.534.4785.8 1.1234.8 1.9346 0 .6334-.178 1.2601-.533 1.8799s-1.021 1.4036-1.996 2.3515l-2.188 2.1397v.0547h5.141zm6.978-1.0049h-.062c-.524.7611-1.308 1.1416-2.352 1.1416-.979 0-1.743-.3349-2.29-1.0049-.542-.6699-.813-1.6224-.813-2.8574s.273-2.1943.82-2.8779 1.308-1.0254 2.283-1.0254c1.017 0 1.796.3691 2.338 1.1074h.089l-.048-.54-.027-.5264v-3.0488h1.135v10.6367h-.923zm-2.27.1914c.775 0 1.335-.2096 1.682-.6289.351-.4238.526-1.1051.526-2.0439v-.2393c0-1.0618-.178-1.8183-.533-2.2695-.351-.4557-.914-.6836-1.689-.6836-.665 0-1.175.2598-1.531.7793-.351.515-.526 1.2441-.526 2.1875 0 .957.175 1.6793.526 2.167.351.4876.866.7314 1.545.7314zm9.158.9502c-.487 0-.934-.0888-1.34-.2666-.401-.1823-.738-.4603-1.011-.834h-.082c.054.4375.082.8522.082 1.2442v3.083h-1.135v-10.8555h.923l.157 1.0254h.055c.291-.4102.631-.7064 1.018-.8887.388-.1823.832-.2734 1.333-.2734.994 0 1.759.3395 2.297 1.0185.542.6791.814 1.6316.814 2.8575 0 1.2304-.276 2.1875-.828 2.8711-.546.679-1.308 1.0185-2.283 1.0185zm-.164-6.8017c-.766 0-1.319.2119-1.661.6357s-.517 1.0983-.526 2.0234v.253c0 1.0527.175 1.8069.526 2.2627.351.4511.914.6767 1.688.6767.648 0 1.153-.262 1.518-.7861.369-.5241.554-1.2464.554-2.167 0-.9342-.185-1.6497-.554-2.1465-.365-.5013-.88-.7519-1.545-.7519z" fill="#e8178a"/><path d="m348.638 29h32.992" stroke="#e8178a" stroke-dasharray="2 2"/><rect height="57" rx="28.5" stroke="#f0f" stroke-dasharray="2 2" width="180.956" x="221.168" y=".5"/><rect fill="#0063a3" height="56" rx="28" width="180" x="221.646" y="1"/><g clip-path="url(#a)" fill="#fff"><path d="m261.646 16.6665c-.589 0-1.149.1171-1.658.3284-.51.2116-1.095-.0305-1.307-.5406-.211-.5102.031-1.0953.541-1.3068.748-.3103 1.567-.481 2.424-.481h2c.553 0 1 .4477 1 1s-.447 1-1 1z"/><path d="m266.646 15.6665c0-.5523.448-1 1-1h4c.553 0 1 .4477 1 1s-.447 1-1 1h-4c-.552 0-1-.4477-1-1z"/><path d="m274.646 15.6665c0-.5523.448-1 1-1h2c.857 0 1.677.1707 2.425.481.51.2115.752.7966.541 1.3068-.212.5101-.797.7522-1.307.5406-.51-.2113-1.069-.3284-1.659-.3284h-2c-.552 0-1-.4477-1-1z"/><path d="m257.101 18.0346c.51.2115.752.7966.54 1.3068-.211.5095-.328 1.069-.328 1.6584v2c0 .5523-.448 1-1 1s-1-.4477-1-1v-2c0-.8569.171-1.6764.481-2.4246.212-.5101.797-.7522 1.307-.5406z"/><path d="m282.192 18.0346c.51-.2116 1.095.0305 1.307.5406.31.7482.481 1.5677.481 2.4246v2c0 .5523-.448 1-1 1-.553 0-1-.4477-1-1v-2c0-.5894-.117-1.1489-.329-1.6584-.211-.5102.031-1.0953.541-1.3068z"/><path d="m256.313 25.9998c.552 0 1 .4478 1 1v4c0 .5523-.448 1-1 1s-1-.4477-1-1v-4c0-.5522.448-1 1-1z"/><path d="m282.98 25.9998c.552 0 1 .4478 1 1v4c0 .5523-.448 1-1 1-.553 0-1-.4477-1-1v-4c0-.5522.447-1 1-1z"/><path d="m256.313 33.9998c.552 0 1 .4478 1 1v2c0 .5894.117 1.149.328 1.6585.212.5102-.03 1.0952-.54 1.3068s-1.095-.0305-1.307-.5407c-.31-.7481-.481-1.5677-.481-2.4246v-2c0-.5522.448-1 1-1z"/><path d="m282.98 33.9998c.552 0 1 .4478 1 1v2c0 .8569-.171 1.6765-.481 2.4246-.212.5102-.797.7523-1.307.5407s-.752-.7966-.541-1.3068c.212-.5095.329-1.0691.329-1.6585v-2c0-.5522.447-1 1-1z"/><path d="m258.681 41.5454c.212-.5101.797-.7522 1.307-.5407.509.2113 1.069.3285 1.658.3285h2c.553 0 1 .4477 1 1s-.447 1-1 1h-2c-.857 0-1.676-.1708-2.424-.481-.51-.2116-.752-.7966-.541-1.3068z"/><path d="m280.612 41.5454c.211.5102-.031 1.0952-.541 1.3068-.748.3102-1.568.481-2.425.481h-2c-.552 0-1-.4477-1-1s.448-1 1-1h2c.59 0 1.149-.1172 1.659-.3285.51-.2115 1.095.0306 1.307.5407z"/><path d="m266.646 42.3332c0-.5523.448-1 1-1h4c.553 0 1 .4477 1 1s-.447 1-1 1h-4c-.552 0-1-.4477-1-1z"/><path d="m281.02 19.1212c.391-.3906.391-1.0237 0-1.4143-.39-.3905-1.024-.3905-1.414 0l-1.328 1.3283c-.391.3905-.391 1.0237 0 1.4142.39.3906 1.023.3906 1.414 0z"/><path d="m277.035 23.106c.391-.3905.391-1.0237 0-1.4142-.39-.3905-1.023-.3905-1.414 0l-2.657 2.6565c-.39.3906-.39 1.0237 0 1.4142.391.3906 1.024.3906 1.415 0z"/><path d="m271.722 28.4191c.391-.3905.391-1.0237 0-1.4142-.39-.3905-1.024-.3905-1.414 0l-.662.6616-.661-.6616c-.391-.3905-1.024-.3905-1.415 0-.39.3905-.39 1.0237 0 1.4142l.662.6616-.581.5807c-.39.3906-.39 1.0237 0 1.4143.391.3905 1.024.3905 1.415 0l.58-.5808.581.5808c.391.3905 1.024.3905 1.414 0 .391-.3906.391-1.0237 0-1.4143l-.58-.5807z"/><path d="m266.409 33.7322c.391-.3905.391-1.0237 0-1.4142-.39-.3905-1.024-.3905-1.414 0l-2.657 2.6566c-.39.3905-.39 1.0237 0 1.4142.391.3905 1.024.3905 1.414 0z"/><path d="m261.096 39.0453c.39-.3905.39-1.0237 0-1.4142-.391-.3905-1.024-.3905-1.414 0l-1.329 1.3283c-.39.3905-.39 1.0237 0 1.4142.391.3905 1.024.3905 1.415 0z"/><path d="m279.525 40.3736c.391.3905 1.024.3905 1.414 0 .391-.3905.391-1.0237 0-1.4142l-1.328-1.3283c-.391-.3905-1.024-.3905-1.414 0-.391.3905-.391 1.0237 0 1.4142z"/><path d="m275.54 36.3888c.391.3905 1.024.3905 1.414 0 .391-.3905.391-1.0237 0-1.4142l-2.656-2.6566c-.391-.3905-1.024-.3905-1.414 0-.391.3905-.391 1.0237 0 1.4142z"/><path d="m264.914 25.7625c.39.3906 1.024.3906 1.414 0 .391-.3905.391-1.0236 0-1.4142l-2.656-2.6565c-.391-.3905-1.024-.3905-1.415 0-.39.3905-.39 1.0237 0 1.4142z"/><path d="m259.601 20.4494c.39.3906 1.024.3906 1.414 0 .391-.3905.391-1.0237 0-1.4142l-1.328-1.3283c-.391-.3905-1.024-.3905-1.414 0-.391.3906-.391 1.0237 0 1.4143z"/><path d="m265.721 22.1852c.397-.1203.819-.1854 1.259-.1854h1c.552 0 1-.4477 1-1 0-.5522-.448-1-1-1h-1c-.638 0-1.256.0947-1.839.2713-.529.1602-.827.7185-.667 1.247.16.5286.718.8273 1.247.6671z"/><path d="m271.313 19.9998c-.552 0-1 .4478-1 1 0 .5523.448 1 1 1h1c.439 0 .862.0651 1.259.1854.528.1602 1.087-.1385 1.247-.6671.16-.5285-.139-1.0868-.667-1.247-.583-.1766-1.201-.2713-1.839-.2713z"/><path d="m262.832 25.0744c.16-.5285-.139-1.0868-.667-1.247-.529-.1601-1.087.1385-1.247.6671-.177.5831-.272 1.2007-.272 1.8387v1c0 .5523.448 1 1 1 .553 0 1-.4477 1-1v-1c0-.4393.065-.8616.186-1.2588z"/><path d="m278.375 24.4945c-.16-.5286-.718-.8272-1.247-.6671-.529.1602-.827.7185-.667 1.247.12.3972.185.8195.185 1.2588v1c0 .5523.448 1 1 1 .553 0 1-.4477 1-1v-1c0-.638-.094-1.2556-.271-1.8387z"/><path d="m262.646 30.6665c0-.5523-.447-1-1-1-.552 0-1 .4477-1 1v1c0 .6379.095 1.2556.272 1.8387.16.5285.718.8272 1.247.6671.528-.1602.827-.7185.667-1.247-.121-.3972-.186-.8195-.186-1.2588z"/><path d="m278.646 30.6665c0-.5523-.447-1-1-1-.552 0-1 .4477-1 1v1c0 .4393-.065.8616-.185 1.2588-.16.5285.138 1.0868.667 1.247.529.1601 1.087-.1386 1.247-.6671.177-.5831.271-1.2008.271-1.8387z"/><path d="m265.721 35.8145c-.529-.1602-1.087.1385-1.247.667-.16.5286.138 1.0869.667 1.247.583.1767 1.201.2713 1.839.2713h1c.552 0 1-.4477 1-1 0-.5522-.448-1-1-1h-1c-.44 0-.862-.065-1.259-.1853z"/><path d="m274.152 37.7285c.528-.1601.827-.7184.667-1.247-.16-.5285-.719-.8272-1.247-.667-.397.1203-.82.1853-1.259.1853h-1c-.552 0-1 .4478-1 1 0 .5523.448 1 1 1h1c.638 0 1.256-.0946 1.839-.2713z"/><path d="m307.332 29.7246c0 2.3503-.671 4.1504-2.012 5.4004-1.334 1.25-3.265 1.875-5.791 1.875h-4.043v-14.2773h4.483c2.33 0 4.14.6152 5.429 1.8457 1.29 1.2304 1.934 2.9492 1.934 5.1562zm-3.144.0781c0-3.0664-1.355-4.5996-4.063-4.5996h-1.611v9.2969h1.298c2.917 0 4.376-1.5658 4.376-4.6973zm10.64-1.8066c-.631 0-1.126.2018-1.484.6055-.358.3971-.563.9635-.615 1.6992h4.179c-.013-.7357-.205-1.3021-.576-1.6992-.371-.4037-.872-.6055-1.504-.6055zm.42 9.1992c-1.758 0-3.131-.485-4.121-1.4551-.99-.97-1.484-2.3437-1.484-4.1211 0-1.8294.455-3.2421 1.367-4.2382.918-1.0026 2.184-1.5039 3.799-1.5039 1.543 0 2.744.4394 3.603 1.3183s1.289 2.0931 1.289 3.6426v1.4453h-7.041c.033.8464.283 1.5072.752 1.9824.469.4753 1.126.7129 1.973.7129.657 0 1.279-.0683 1.865-.2051.586-.1367 1.198-.3548 1.836-.6543v2.3047c-.521.2604-1.078.4525-1.67.5762-.592.1302-1.315.1953-2.168.1953zm13.16-8.8769h-2.578v8.6816h-2.978v-8.6816h-1.641v-1.4356l1.641-.8008v-.8008c0-1.2434.306-2.1516.918-2.7246.612-.5729 1.591-.8593 2.939-.8593 1.029 0 1.943.153 2.744.4589l-.762 2.1876c-.599-.1889-1.152-.2833-1.66-.2833-.423 0-.729.127-.918.3809-.189.2474-.283.5664-.283.957v.6836h2.578zm8.903 8.6816-.577-1.4844h-.078c-.501.6315-1.019 1.071-1.552 1.3184-.528.2409-1.218.3613-2.071.3613-1.048 0-1.875-.2995-2.48-.8984-.599-.599-.899-1.4518-.899-2.5586 0-1.1589.404-2.0117 1.211-2.5586.814-.5534 2.038-.8594 3.672-.918l1.895-.0586v-.4785c0-1.1068-.567-1.6601-1.7-1.6601-.872 0-1.897.2636-3.076.791l-.986-2.0117c1.256-.6576 2.65-.9864 4.18-.9864 1.464 0 2.588.319 3.369.9571.781.638 1.172 1.608 1.172 2.9101v7.2754zm-.879-5.0586-1.153.0391c-.866.026-1.51.1823-1.933.4687-.423.2865-.635.7227-.635 1.3086 0 .8399.482 1.2598 1.445 1.2598.69 0 1.24-.1986 1.651-.5957.416-.3972.625-.9245.625-1.5821zm14.019 5.0586-.4-1.3965h-.156c-.319.5078-.772.9017-1.358 1.1817-.586.2734-1.253.4101-2.002.4101-1.282 0-2.249-.3418-2.9-1.0254-.651-.6901-.977-1.6797-.977-2.9687v-7.1192h2.979v6.377c0 .7877.14 1.3802.42 1.7773.28.3907.726.586 1.338.586.833 0 1.435-.2767 1.806-.8301.371-.5599.557-1.4844.557-2.7734v-5.1368h2.978v10.918zm8.639 0h-2.979v-15.1953h2.979zm7.984-2.1777c.521 0 1.146-.114 1.875-.3418v2.2168c-.742.332-1.653.498-2.734.498-1.192 0-2.061-.2995-2.608-.8984-.54-.6055-.81-1.5104-.81-2.7149v-5.2636h-1.426v-1.2598l1.641-.9961.859-2.3047h1.904v2.3242h3.057v2.2364h-3.057v5.2636c0 .4232.118.7357.352.9375.241.2019.557.3028.947.3028z"/></g><path d="m369.633 1h31.992v56h-31.992z" fill="#eb3499" fill-opacity=".6"/><path d="m221.668 1h32.992v56h-32.992z" fill="#eb3499" fill-opacity=".6"/><path d="m369.633 29h31.992" stroke="#e8178a" stroke-dasharray="2 2"/><path d="m219.669 29h34.991" stroke="#e8178a" stroke-dasharray="2 2"/><path d="m427.546 28.6909c0 .638-.18 1.1598-.54 1.5654-.356.4056-.861.6768-1.518.8135v.0547c.802.1003 1.397.3555 1.785.7656.387.4102.581.948.581 1.6133 0 .9525-.331 1.6862-.992 2.2012-.66.5104-1.599.7656-2.816.7656-.529 0-1.014-.041-1.456-.123-.438-.0775-.864-.2165-1.278-.417v-1.0801c.433.2142.893.3783 1.38.4922.493.1094.958.164 1.395.164 1.727 0 2.591-.6767 2.591-2.0302 0-1.2123-.953-1.8184-2.858-1.8184h-.984v-.9775h.998c.779 0 1.397-.1709 1.853-.5127.455-.3464.683-.8249.683-1.4356 0-.4876-.168-.8704-.506-1.1484-.332-.278-.786-.417-1.36-.417-.437 0-.85.0592-1.237.1777-.388.1185-.83.3373-1.326.6563l-.575-.7656c.41-.3236.882-.5765 1.415-.7588.538-.1869 1.103-.2803 1.696-.2803.97 0 1.725.2233 2.262.6699.538.4421.807 1.0505.807 1.8252zm8.304 7.6426h-6.57v-.9775l2.632-2.6456c.802-.8111 1.331-1.3899 1.586-1.7363.255-.3463.447-.6836.574-1.0117.128-.3281.192-.6813.192-1.0596 0-.5332-.162-.9547-.486-1.2646-.323-.3145-.772-.4717-1.346-.4717-.415 0-.809.0684-1.183.2051-.369.1367-.781.3851-1.237.7451l-.602-.7725c.921-.7656 1.923-1.1484 3.008-1.1484.939 0 1.675.2415 2.208.7246.533.4785.8 1.1234.8 1.9346 0 .6334-.178 1.2601-.533 1.8799-.356.6198-1.021 1.4036-1.996 2.3515l-2.188 2.1397v.0547h5.141zm6.977-1.0049h-.061c-.524.7611-1.308 1.1416-2.352 1.1416-.98 0-1.743-.3349-2.29-1.0049-.542-.6699-.813-1.6224-.813-2.8574s.273-2.1943.82-2.8779 1.308-1.0254 2.283-1.0254c1.016 0 1.796.3691 2.338 1.1074h.089l-.048-.54-.027-.5264v-3.0488h1.134v10.6367h-.922zm-2.269.1914c.774 0 1.335-.2096 1.681-.6289.351-.4238.527-1.1051.527-2.0439v-.2393c0-1.0618-.178-1.8183-.534-2.2695-.35-.4558-.913-.6836-1.688-.6836-.665 0-1.176.2598-1.531.7793-.351.515-.527 1.2441-.527 2.1875 0 .957.176 1.6793.527 2.167.351.4876.866.7314 1.545.7314zm9.158.9502c-.488 0-.934-.0889-1.34-.2666-.401-.1823-.738-.4603-1.012-.834h-.082c.055.4375.082.8522.082 1.2442v3.083h-1.134v-10.8555h.922l.158 1.0254h.054c.292-.4102.631-.7064 1.019-.8887.387-.1823.832-.2734 1.333-.2734.993 0 1.759.3395 2.297 1.0185.542.6791.813 1.6316.813 2.8575 0 1.2304-.275 2.1875-.827 2.8711-.547.679-1.308 1.0185-2.283 1.0185zm-.164-6.8017c-.766 0-1.32.2119-1.661.6357-.342.4238-.518 1.0983-.527 2.0234v.253c0 1.0527.176 1.8069.527 2.2627.351.4511.913.6767 1.688.6767.647 0 1.153-.262 1.518-.7861.369-.5241.553-1.2464.553-2.167 0-.9343-.184-1.6497-.553-2.1465-.365-.5013-.88-.7519-1.545-.7519z" fill="#e8178a"/><path d="m453.89 1h8.998v56h-8.998" stroke="#4091d2"/><path d="m472.604 30.5273c.828 0 1.486.2325 1.974.6973.492.4649.738 1.1016.738 1.9102 0 .957-.295 1.6933-.884 2.209-.59.5156-1.434.7734-2.532.7734-.953 0-1.722-.1543-2.308-.4629v-1.5645c.308.1641.668.2989 1.078.4043.41.1016.799.1524 1.166.1524 1.105 0 1.658-.4531 1.658-1.3594 0-.8633-.572-1.2949-1.717-1.2949-.207 0-.435.0215-.685.0644-.25.0391-.453.0821-.61.1289l-.72-.3867.322-4.3652h4.646v1.5352h-3.058l-.158 1.6816.205-.041c.238-.0547.533-.0821.885-.0821zm3.607 1.834c0-1.6953.358-2.957 1.072-3.7851.719-.8282 1.793-1.2422 3.223-1.2422.488 0 .871.0293 1.149.0879v1.4472c-.348-.0781-.692-.1171-1.032-.1171-.621 0-1.129.0937-1.523.2812-.391.1875-.684.4648-.879.832s-.311.8887-.346 1.5645h.076c.387-.6641 1.006-.9961 1.858-.9961.765 0 1.365.2402 1.799.7207.433.4805.65 1.1445.65 1.9922 0 .914-.258 1.6387-.773 2.1738-.516.5313-1.231.7969-2.145.7969-.633 0-1.185-.1465-1.658-.4395-.469-.2929-.832-.7207-1.09-1.2832-.254-.5625-.381-1.2402-.381-2.0332zm3.094 2.3086c.387 0 .684-.1289.891-.3867.207-.2617.31-.6328.31-1.1133 0-.4179-.098-.7461-.293-.9844-.191-.2421-.482-.3632-.873-.3632-.367 0-.682.1191-.943.3574-.258.2383-.387.5156-.387.832 0 .4649.121.8574.363 1.1778.246.3203.557.4804.932.4804zm6.28 1.4473c-.77 0-1.375-.2988-1.817-.8965-.437-.5977-.656-1.4258-.656-2.4844 0-1.0742.223-1.9101.668-2.5078.449-.6015 1.066-.9023 1.851-.9023.825 0 1.454.3203 1.887.9609h.059c-.09-.4883-.135-.9238-.135-1.3066v-2.0977h1.793v9.1172h-1.371l-.346-.8496h-.076c-.406.6445-1.025.9668-1.857.9668zm.626-1.4238c.457 0 .791-.1329 1.002-.3985.215-.2656.332-.7168.352-1.3535v-.1934c0-.7031-.109-1.207-.328-1.5117-.215-.3047-.567-.457-1.055-.457-.398 0-.709.1699-.931.5098-.219.3359-.329.8261-.329 1.4707 0 .6445.112 1.1289.334 1.4531.223.3203.541.4805.955.4805zm8.419 1.4238c-.77 0-1.373-.2793-1.811-.8379h-.094c.063.5469.094.8633.094.9492v2.6543h-1.787v-9.4336h1.453l.252.8496h.082c.418-.6484 1.037-.9726 1.858-.9726.773 0 1.378.2988 1.816.8965.437.5976.656 1.4277.656 2.4902 0 .6992-.103 1.3066-.31 1.8223-.203.5156-.494.9082-.873 1.1777s-.825.4043-1.336.4043zm-.528-5.3613c-.441 0-.763.1367-.966.4101-.204.2695-.309.7168-.317 1.3418v.1934c0 .7031.104 1.207.311 1.5117.211.3047.543.457.996.457.801 0 1.201-.6601 1.201-1.9804 0-.6446-.1-1.127-.299-1.4473-.195-.3242-.504-.4863-.926-.4863z" fill="#4091d2"/></svg>