<svg width="446" height="51" viewBox="0 0 446 51" fill="none" xmlns="http://www.w3.org/2000/svg">
<path d="M14.8433 19.6631H13.0562V11.0967H17.9663V12.585H14.8433V14.7939H17.7495V16.2764H14.8433V19.6631ZM20.8533 16.376C20.8533 17.0244 20.9588 17.5146 21.1697 17.8467C21.3845 18.1787 21.7322 18.3447 22.2127 18.3447C22.6892 18.3447 23.031 18.1807 23.2381 17.8525C23.449 17.5205 23.5545 17.0283 23.5545 16.376C23.5545 15.7275 23.449 15.2412 23.2381 14.917C23.0271 14.5928 22.6814 14.4307 22.2009 14.4307C21.7244 14.4307 21.3806 14.5928 21.1697 14.917C20.9588 15.2373 20.8533 15.7236 20.8533 16.376ZM25.3826 16.376C25.3826 17.4424 25.1013 18.2764 24.5388 18.8779C23.9763 19.4795 23.1931 19.7803 22.1892 19.7803C21.5603 19.7803 21.0056 19.6436 20.5252 19.3701C20.0447 19.0928 19.6756 18.6963 19.4177 18.1807C19.1599 17.665 19.031 17.0635 19.031 16.376C19.031 15.3057 19.3103 14.4736 19.8689 13.8799C20.4275 13.2861 21.2127 12.9893 22.2244 12.9893C22.8533 12.9893 23.408 13.126 23.8884 13.3994C24.3689 13.6729 24.7381 14.0654 24.9959 14.5771C25.2537 15.0889 25.3826 15.6885 25.3826 16.376ZM32.834 19.6631H31.0469V15.8369C31.0469 15.3643 30.9629 15.0107 30.795 14.7764C30.627 14.5381 30.3594 14.4189 29.9922 14.4189C29.4922 14.4189 29.1309 14.5869 28.9082 14.9229C28.6856 15.2549 28.5743 15.8076 28.5743 16.5811V19.6631H26.7872V13.1123H28.1524L28.3926 13.9502H28.4922C28.6914 13.6338 28.9649 13.3955 29.3125 13.2354C29.6641 13.0713 30.0625 12.9893 30.5079 12.9893C31.2696 12.9893 31.8477 13.1963 32.2422 13.6104C32.6368 14.0205 32.834 14.6143 32.834 15.3916V19.6631ZM37.3616 18.3564C37.6741 18.3564 38.0491 18.2881 38.4866 18.1514V19.4814C38.0413 19.6807 37.4944 19.7803 36.846 19.7803C36.1312 19.7803 35.6097 19.6006 35.2816 19.2412C34.9573 18.8779 34.7952 18.335 34.7952 17.6123V14.4541H33.9398V13.6982L34.9241 13.1006L35.4398 11.7178H36.5823V13.1123H38.4163V14.4541H36.5823V17.6123C36.5823 17.8662 36.6527 18.0537 36.7933 18.1748C36.9378 18.2959 37.1273 18.3564 37.3616 18.3564ZM39.1646 17.1787V15.7139H42.3111V17.1787H39.1646ZM48.1102 17.7178C48.1102 18.3896 47.8758 18.9014 47.4071 19.2529C46.9422 19.6045 46.245 19.7803 45.3153 19.7803C44.8387 19.7803 44.4325 19.7471 44.0965 19.6807C43.7606 19.6182 43.4462 19.5244 43.1532 19.3994V17.9229C43.4852 18.0791 43.8583 18.21 44.2723 18.3154C44.6903 18.4209 45.0575 18.4736 45.3739 18.4736C46.0223 18.4736 46.3465 18.2861 46.3465 17.9111C46.3465 17.7705 46.3036 17.6572 46.2176 17.5713C46.1317 17.4814 45.9833 17.3818 45.7723 17.2725C45.5614 17.1592 45.2801 17.0283 44.9286 16.8799C44.4247 16.6689 44.0536 16.4736 43.8153 16.2939C43.5809 16.1143 43.409 15.9092 43.2997 15.6787C43.1942 15.4443 43.1415 15.1572 43.1415 14.8174C43.1415 14.2354 43.3661 13.7861 43.8153 13.4697C44.2684 13.1494 44.909 12.9893 45.7372 12.9893C46.5262 12.9893 47.2938 13.1611 48.0399 13.5049L47.5008 14.7939C47.1727 14.6533 46.8661 14.5381 46.5809 14.4482C46.2958 14.3584 46.0047 14.3135 45.7079 14.3135C45.1805 14.3135 44.9169 14.4561 44.9169 14.7412C44.9169 14.9014 45.0008 15.04 45.1688 15.1572C45.3407 15.2744 45.7137 15.4482 46.2879 15.6787C46.7997 15.8857 47.1747 16.0791 47.4129 16.2588C47.6512 16.4385 47.827 16.6455 47.9403 16.8799C48.0536 17.1143 48.1102 17.3936 48.1102 17.7178ZM49.3566 11.4189C49.3566 10.8369 49.6808 10.5459 50.3292 10.5459C50.9777 10.5459 51.3019 10.8369 51.3019 11.4189C51.3019 11.6963 51.2199 11.9131 51.0558 12.0693C50.8956 12.2217 50.6535 12.2979 50.3292 12.2979C49.6808 12.2979 49.3566 12.0049 49.3566 11.4189ZM51.2199 19.6631H49.4327V13.1123H51.2199V19.6631ZM57.5873 19.6631H52.4135V18.6084L55.4486 14.4775H52.5951V13.1123H57.4818V14.2725L54.5287 18.2979H57.5873V19.6631ZM61.529 14.2607C61.1501 14.2607 60.8532 14.3818 60.6384 14.624C60.4235 14.8623 60.3005 15.2021 60.2692 15.6436H62.777C62.7692 15.2021 62.654 14.8623 62.4313 14.624C62.2087 14.3818 61.9079 14.2607 61.529 14.2607ZM61.7809 19.7803C60.7262 19.7803 59.902 19.4893 59.3083 18.9072C58.7145 18.3252 58.4177 17.501 58.4177 16.4346C58.4177 15.3369 58.6911 14.4893 59.238 13.8916C59.7887 13.29 60.5485 12.9893 61.5173 12.9893C62.443 12.9893 63.1637 13.2529 63.6794 13.7803C64.195 14.3076 64.4528 15.0361 64.4528 15.9658V16.833H60.2282C60.2477 17.3408 60.3981 17.7373 60.6794 18.0225C60.9606 18.3076 61.3552 18.4502 61.863 18.4502C62.2575 18.4502 62.6305 18.4092 62.9821 18.3271C63.3337 18.2451 63.7009 18.1143 64.0837 17.9346V19.3174C63.7712 19.4736 63.4372 19.5889 63.0817 19.6631C62.7262 19.7412 62.2927 19.7803 61.7809 19.7803ZM65.582 18.8252C65.582 18.4971 65.6699 18.249 65.8457 18.0811C66.0214 17.9131 66.2773 17.8291 66.6132 17.8291C66.9375 17.8291 67.1875 17.915 67.3632 18.0869C67.5429 18.2588 67.6328 18.5049 67.6328 18.8252C67.6328 19.1338 67.5429 19.3779 67.3632 19.5576C67.1835 19.7334 66.9335 19.8213 66.6132 19.8213C66.2851 19.8213 66.0312 19.7354 65.8515 19.5635C65.6718 19.3877 65.582 19.1416 65.582 18.8252ZM65.582 13.9854C65.582 13.6572 65.6699 13.4092 65.8457 13.2412C66.0214 13.0732 66.2773 12.9893 66.6132 12.9893C66.9375 12.9893 67.1875 13.0752 67.3632 13.2471C67.5429 13.4189 67.6328 13.665 67.6328 13.9854C67.6328 14.3018 67.541 14.5479 67.3574 14.7236C67.1777 14.8955 66.9296 14.9814 66.6132 14.9814C66.2851 14.9814 66.0312 14.8955 65.8515 14.7236C65.6718 14.5518 65.582 14.3057 65.582 13.9854ZM77.5083 19.6631H71.8774V18.8252L74.1333 16.5576C74.8208 15.8623 75.2739 15.3662 75.4927 15.0693C75.7114 14.7725 75.8755 14.4834 75.9849 14.2021C76.0942 13.9209 76.1489 13.6182 76.1489 13.2939C76.1489 12.8369 76.0102 12.4756 75.7329 12.21C75.4556 11.9404 75.0708 11.8057 74.5786 11.8057C74.2231 11.8057 73.8852 11.8643 73.5649 11.9814C73.2485 12.0986 72.895 12.3115 72.5044 12.6201L71.9888 11.958C72.7778 11.3018 73.6372 10.9736 74.5669 10.9736C75.3716 10.9736 76.0024 11.1807 76.4595 11.5947C76.9165 12.0049 77.145 12.5576 77.145 13.2529C77.145 13.7959 76.9927 14.333 76.688 14.8643C76.3833 15.3955 75.813 16.0674 74.977 16.8799L73.102 18.7139V18.7607H77.5083V19.6631ZM84.3504 15.3682C84.3504 16.8486 84.116 17.9541 83.6472 18.6846C83.1824 19.415 82.4695 19.7803 81.5086 19.7803C80.5867 19.7803 79.8855 19.4072 79.405 18.6611C78.9246 17.9111 78.6843 16.8135 78.6843 15.3682C78.6843 13.876 78.9168 12.7686 79.3816 12.0459C79.8465 11.3232 80.5554 10.9619 81.5086 10.9619C82.4382 10.9619 83.1433 11.3389 83.6238 12.0928C84.1082 12.8467 84.3504 13.9385 84.3504 15.3682ZM79.6687 15.3682C79.6687 16.6143 79.8152 17.5225 80.1082 18.0928C80.4011 18.6592 80.8679 18.9424 81.5086 18.9424C82.157 18.9424 82.6257 18.6553 82.9148 18.0811C83.2078 17.5029 83.3543 16.5986 83.3543 15.3682C83.3543 14.1377 83.2078 13.2373 82.9148 12.667C82.6257 12.0928 82.157 11.8057 81.5086 11.8057C80.8679 11.8057 80.4011 12.0889 80.1082 12.6553C79.8152 13.2178 79.6687 14.1221 79.6687 15.3682ZM90.0557 17.9111C90.0557 18.5088 89.833 18.9697 89.3877 19.2939C88.9424 19.6182 88.3174 19.7803 87.5127 19.7803C86.6612 19.7803 85.9971 19.6455 85.5205 19.376V18.4736C85.8291 18.6299 86.1592 18.7529 86.5108 18.8428C86.8662 18.9326 87.208 18.9775 87.5362 18.9775C88.044 18.9775 88.4346 18.8975 88.708 18.7373C88.9815 18.5732 89.1182 18.3252 89.1182 17.9932C89.1182 17.7432 89.0088 17.5303 88.7901 17.3545C88.5752 17.1748 88.1534 16.9639 87.5245 16.7217C86.9268 16.499 86.501 16.3057 86.2471 16.1416C85.9971 15.9736 85.8096 15.7842 85.6846 15.5732C85.5635 15.3623 85.503 15.1104 85.503 14.8174C85.503 14.2939 85.7159 13.8818 86.1416 13.5811C86.5674 13.2764 87.1514 13.124 87.8936 13.124C88.585 13.124 89.2608 13.2646 89.9209 13.5459L89.5752 14.3369C88.9307 14.0713 88.3467 13.9385 87.8233 13.9385C87.3623 13.9385 87.0147 14.0107 86.7803 14.1553C86.5459 14.2998 86.4287 14.499 86.4287 14.7529C86.4287 14.9248 86.4717 15.0713 86.5577 15.1924C86.6475 15.3135 86.7901 15.4287 86.9854 15.5381C87.1807 15.6475 87.5557 15.8057 88.1104 16.0127C88.8721 16.29 89.3858 16.5693 89.6514 16.8506C89.9209 17.1318 90.0557 17.4854 90.0557 17.9111ZM94.5599 19.7803C94.1419 19.7803 93.7591 19.7041 93.4114 19.5518C93.0677 19.3955 92.7786 19.1572 92.5442 18.8369H92.4739C92.5208 19.2119 92.5442 19.5674 92.5442 19.9033V22.5459H91.5716V13.2412H92.3626L92.4974 14.1201H92.5442C92.7942 13.7686 93.0853 13.5146 93.4173 13.3584C93.7493 13.2021 94.1302 13.124 94.5599 13.124C95.4114 13.124 96.0677 13.415 96.5286 13.9971C96.9935 14.5791 97.2259 15.3955 97.2259 16.4463C97.2259 17.501 96.9896 18.3213 96.5169 18.9072C96.0481 19.4893 95.3958 19.7803 94.5599 19.7803ZM94.4192 13.9502C93.763 13.9502 93.2884 14.1318 92.9954 14.4951C92.7024 14.8584 92.5521 15.4365 92.5442 16.2295V16.4463C92.5442 17.3486 92.6946 17.9951 92.9954 18.3857C93.2962 18.7725 93.7786 18.9658 94.4427 18.9658C94.9974 18.9658 95.431 18.7412 95.7435 18.292C96.0599 17.8428 96.2181 17.2236 96.2181 16.4346C96.2181 15.6338 96.0599 15.0205 95.7435 14.5947C95.431 14.165 94.9896 13.9502 94.4192 13.9502ZM13.0562 31.0967H15.7222C16.937 31.0967 17.8179 31.2705 18.3647 31.6182C18.9155 31.9619 19.1909 32.5107 19.1909 33.2646C19.1909 33.7764 19.0698 34.1963 18.8276 34.5244C18.5894 34.8525 18.271 35.0498 17.8726 35.1162V35.1748C18.4155 35.2959 18.8062 35.5225 19.0444 35.8545C19.2866 36.1865 19.4077 36.6279 19.4077 37.1787C19.4077 37.96 19.1245 38.5693 18.5581 39.0068C17.9956 39.4443 17.23 39.6631 16.2612 39.6631H13.0562V31.0967ZM14.8726 34.4893H15.9272C16.4194 34.4893 16.7749 34.4131 16.9937 34.2607C17.2163 34.1084 17.3276 33.8564 17.3276 33.5049C17.3276 33.1768 17.2065 32.9424 16.9644 32.8018C16.7261 32.6572 16.3472 32.585 15.8276 32.585H14.8726V34.4893ZM14.8726 35.9307V38.1631H16.0562C16.5562 38.1631 16.9253 38.0674 17.1636 37.876C17.4019 37.6846 17.521 37.3916 17.521 36.9971C17.521 36.2861 17.0132 35.9307 15.9976 35.9307H14.8726ZM22.3299 36.376C22.3299 37.0244 22.4353 37.5146 22.6463 37.8467C22.8611 38.1787 23.2088 38.3447 23.6892 38.3447C24.1658 38.3447 24.5076 38.1807 24.7146 37.8525C24.9256 37.5205 25.031 37.0283 25.031 36.376C25.031 35.7275 24.9256 35.2412 24.7146 34.917C24.5037 34.5928 24.158 34.4307 23.6775 34.4307C23.2009 34.4307 22.8572 34.5928 22.6463 34.917C22.4353 35.2373 22.3299 35.7236 22.3299 36.376ZM26.8592 36.376C26.8592 37.4424 26.5779 38.2764 26.0154 38.8779C25.4529 39.4795 24.6697 39.7803 23.6658 39.7803C23.0369 39.7803 22.4822 39.6436 22.0017 39.3701C21.5213 39.0928 21.1521 38.6963 20.8943 38.1807C20.6365 37.665 20.5076 37.0635 20.5076 36.376C20.5076 35.3057 20.7869 34.4736 21.3455 33.8799C21.9041 33.2861 22.6892 32.9893 23.7009 32.9893C24.3299 32.9893 24.8845 33.126 25.365 33.3994C25.8455 33.6729 26.2146 34.0654 26.4724 34.5771C26.7302 35.0889 26.8592 35.6885 26.8592 36.376ZM31.92 32.9893C32.1622 32.9893 32.3633 33.0068 32.5235 33.042L32.3887 34.7178C32.2442 34.6787 32.0684 34.6592 31.8614 34.6592C31.2911 34.6592 30.8457 34.8057 30.5254 35.0986C30.209 35.3916 30.0508 35.8018 30.0508 36.3291V39.6631H28.2637V33.1123H29.6172L29.8809 34.2139H29.9688C30.1719 33.8467 30.4454 33.5518 30.7891 33.3291C31.1368 33.1025 31.5137 32.9893 31.92 32.9893ZM35.7152 39.7803C34.9456 39.7803 34.3402 39.4814 33.8987 38.8838C33.4612 38.2861 33.2425 37.458 33.2425 36.3994C33.2425 35.3252 33.4652 34.4893 33.9105 33.8916C34.3597 33.29 34.9769 32.9893 35.762 32.9893C36.5862 32.9893 37.2152 33.3096 37.6487 33.9502H37.7073C37.6175 33.4619 37.5726 33.0264 37.5726 32.6436V30.5459H39.3655V39.6631H37.9944L37.6487 38.8135H37.5726C37.1663 39.458 36.5472 39.7803 35.7152 39.7803ZM36.3421 38.3564C36.7991 38.3564 37.1331 38.2236 37.3441 37.958C37.5589 37.6924 37.6761 37.2412 37.6956 36.6045V36.4111C37.6956 35.708 37.5862 35.2041 37.3675 34.8994C37.1527 34.5947 36.8011 34.4424 36.3128 34.4424C35.9144 34.4424 35.6038 34.6123 35.3812 34.9521C35.1624 35.2881 35.053 35.7783 35.053 36.4229C35.053 37.0674 35.1644 37.5518 35.387 37.876C35.6097 38.1963 35.928 38.3564 36.3421 38.3564ZM43.8756 34.2607C43.4967 34.2607 43.1998 34.3818 42.9849 34.624C42.7701 34.8623 42.6471 35.2021 42.6158 35.6436H45.1236C45.1158 35.2021 45.0006 34.8623 44.7779 34.624C44.5553 34.3818 44.2545 34.2607 43.8756 34.2607ZM44.1275 39.7803C43.0728 39.7803 42.2486 39.4893 41.6549 38.9072C41.0611 38.3252 40.7642 37.501 40.7642 36.4346C40.7642 35.3369 41.0377 34.4893 41.5846 33.8916C42.1353 33.29 42.8951 32.9893 43.8639 32.9893C44.7896 32.9893 45.5103 33.2529 46.026 33.7803C46.5416 34.3076 46.7994 35.0361 46.7994 35.9658V36.833H42.5748C42.5943 37.3408 42.7447 37.7373 43.026 38.0225C43.3072 38.3076 43.7017 38.4502 44.2096 38.4502C44.6041 38.4502 44.9771 38.4092 45.3287 38.3271C45.6803 38.2451 46.0474 38.1143 46.4303 37.9346V39.3174C46.1178 39.4736 45.7838 39.5889 45.4283 39.6631C45.0728 39.7412 44.6392 39.7803 44.1275 39.7803ZM51.8368 32.9893C52.079 32.9893 52.2801 33.0068 52.4403 33.042L52.3055 34.7178C52.161 34.6787 51.9852 34.6592 51.7782 34.6592C51.2079 34.6592 50.7626 34.8057 50.4422 35.0986C50.1258 35.3916 49.9676 35.8018 49.9676 36.3291V39.6631H48.1805V33.1123H49.534L49.7977 34.2139H49.8856C50.0887 33.8467 50.3622 33.5518 50.7059 33.3291C51.0536 33.1025 51.4305 32.9893 51.8368 32.9893ZM52.9777 37.1787V35.7139H56.1242V37.1787H52.9777ZM61.0092 32.9893C61.2514 32.9893 61.4525 33.0068 61.6127 33.042L61.4779 34.7178C61.3334 34.6787 61.1576 34.6592 60.9506 34.6592C60.3803 34.6592 59.935 34.8057 59.6147 35.0986C59.2982 35.3916 59.14 35.8018 59.14 36.3291V39.6631H57.3529V33.1123H58.7064L58.9701 34.2139H59.058C59.2611 33.8467 59.5346 33.5518 59.8783 33.3291C60.226 33.1025 60.6029 32.9893 61.0092 32.9893ZM66.8903 39.6631L66.5446 38.7725H66.4977C66.1969 39.1514 65.8864 39.415 65.5661 39.5635C65.2497 39.708 64.8356 39.7803 64.3239 39.7803C63.695 39.7803 63.1989 39.6006 62.8356 39.2412C62.4762 38.8818 62.2966 38.3701 62.2966 37.7061C62.2966 37.0107 62.5387 36.499 63.0231 36.1709C63.5114 35.8389 64.2458 35.6553 65.2262 35.6201L66.363 35.585V35.2979C66.363 34.6338 66.0231 34.3018 65.3434 34.3018C64.82 34.3018 64.2048 34.46 63.4977 34.7764L62.9059 33.5693C63.6598 33.1748 64.4958 32.9775 65.4137 32.9775C66.2927 32.9775 66.9665 33.1689 67.4352 33.5518C67.904 33.9346 68.1384 34.5166 68.1384 35.2979V39.6631H66.8903ZM66.363 36.6279L65.6716 36.6514C65.152 36.667 64.7653 36.7607 64.5114 36.9326C64.2575 37.1045 64.1305 37.3662 64.1305 37.7178C64.1305 38.2217 64.4196 38.4736 64.9977 38.4736C65.4118 38.4736 65.7419 38.3545 65.988 38.1162C66.238 37.8779 66.363 37.5615 66.363 37.167V36.6279ZM71.9863 39.7803C71.2167 39.7803 70.6113 39.4814 70.1699 38.8838C69.7324 38.2861 69.5136 37.458 69.5136 36.3994C69.5136 35.3252 69.7363 34.4893 70.1816 33.8916C70.6308 33.29 71.248 32.9893 72.0332 32.9893C72.8574 32.9893 73.4863 33.3096 73.9199 33.9502H73.9785C73.8886 33.4619 73.8437 33.0264 73.8437 32.6436V30.5459H75.6367V39.6631H74.2656L73.9199 38.8135H73.8437C73.4375 39.458 72.8183 39.7803 71.9863 39.7803ZM72.6132 38.3564C73.0703 38.3564 73.4042 38.2236 73.6152 37.958C73.83 37.6924 73.9472 37.2412 73.9667 36.6045V36.4111C73.9667 35.708 73.8574 35.2041 73.6386 34.8994C73.4238 34.5947 73.0722 34.4424 72.5839 34.4424C72.1855 34.4424 71.875 34.6123 71.6523 34.9521C71.4335 35.2881 71.3242 35.7783 71.3242 36.4229C71.3242 37.0674 71.4355 37.5518 71.6582 37.876C71.8808 38.1963 72.1992 38.3564 72.6132 38.3564ZM77.3576 31.4189C77.3576 30.8369 77.6819 30.5459 78.3303 30.5459C78.9787 30.5459 79.3029 30.8369 79.3029 31.4189C79.3029 31.6963 79.2209 31.9131 79.0569 32.0693C78.8967 32.2217 78.6545 32.2979 78.3303 32.2979C77.6819 32.2979 77.3576 32.0049 77.3576 31.4189ZM79.2209 39.6631H77.4338V33.1123H79.2209V39.6631ZM85.6704 39.6631L85.4302 38.8252H85.3364C85.145 39.1299 84.8735 39.3662 84.522 39.5342C84.1704 39.6982 83.77 39.7803 83.3208 39.7803C82.5513 39.7803 81.9712 39.5752 81.5806 39.165C81.1899 38.751 80.9946 38.1572 80.9946 37.3838V33.1123H82.7817V36.9385C82.7817 37.4111 82.8657 37.7666 83.0337 38.0049C83.2017 38.2393 83.4692 38.3564 83.8364 38.3564C84.3364 38.3564 84.6977 38.1904 84.9204 37.8584C85.1431 37.5225 85.2544 36.9678 85.2544 36.1943V33.1123H87.0415V39.6631H85.6704ZM93.4148 37.7178C93.4148 38.3896 93.1804 38.9014 92.7117 39.2529C92.2468 39.6045 91.5496 39.7803 90.6199 39.7803C90.1433 39.7803 89.7371 39.7471 89.4011 39.6807C89.0652 39.6182 88.7507 39.5244 88.4578 39.3994V37.9229C88.7898 38.0791 89.1629 38.21 89.5769 38.3154C89.9949 38.4209 90.3621 38.4736 90.6785 38.4736C91.3269 38.4736 91.6511 38.2861 91.6511 37.9111C91.6511 37.7705 91.6082 37.6572 91.5222 37.5713C91.4363 37.4814 91.2879 37.3818 91.0769 37.2725C90.866 37.1592 90.5847 37.0283 90.2332 36.8799C89.7293 36.6689 89.3582 36.4736 89.1199 36.2939C88.8855 36.1143 88.7136 35.9092 88.6043 35.6787C88.4988 35.4443 88.4461 35.1572 88.4461 34.8174C88.4461 34.2354 88.6707 33.7861 89.1199 33.4697C89.573 33.1494 90.2136 32.9893 91.0418 32.9893C91.8308 32.9893 92.5984 33.1611 93.3445 33.5049L92.8054 34.7939C92.4773 34.6533 92.1707 34.5381 91.8855 34.4482C91.6004 34.3584 91.3093 34.3135 91.0125 34.3135C90.4851 34.3135 90.2215 34.4561 90.2215 34.7412C90.2215 34.9014 90.3054 35.04 90.4734 35.1572C90.6453 35.2744 91.0183 35.4482 91.5925 35.6787C92.1043 35.8857 92.4793 36.0791 92.7175 36.2588C92.9558 36.4385 93.1316 36.6455 93.2449 36.8799C93.3582 37.1143 93.4148 37.3936 93.4148 37.7178ZM94.4854 38.8252C94.4854 38.4971 94.5733 38.249 94.7491 38.0811C94.9248 37.9131 95.1807 37.8291 95.5166 37.8291C95.8409 37.8291 96.0909 37.915 96.2666 38.0869C96.4463 38.2588 96.5362 38.5049 96.5362 38.8252C96.5362 39.1338 96.4463 39.3779 96.2666 39.5576C96.087 39.7334 95.837 39.8213 95.5166 39.8213C95.1885 39.8213 94.9346 39.7354 94.7549 39.5635C94.5752 39.3877 94.4854 39.1416 94.4854 38.8252ZM94.4854 33.9854C94.4854 33.6572 94.5733 33.4092 94.7491 33.2412C94.9248 33.0732 95.1807 32.9893 95.5166 32.9893C95.8409 32.9893 96.0909 33.0752 96.2666 33.2471C96.4463 33.4189 96.5362 33.665 96.5362 33.9854C96.5362 34.3018 96.4444 34.5479 96.2608 34.7236C96.0811 34.8955 95.833 34.9814 95.5166 34.9814C95.1885 34.9814 94.9346 34.8955 94.7549 34.7236C94.5752 34.5518 94.4854 34.3057 94.4854 33.9854ZM106.816 37.6943H105.545V39.6631H104.613V37.6943H100.447V36.8447L104.513 31.0498H105.545V36.8096H106.816V37.6943ZM104.613 36.8096V33.9619C104.613 33.4033 104.632 32.7725 104.671 32.0693H104.625C104.437 32.4443 104.261 32.7549 104.097 33.001L101.42 36.8096H104.613ZM112.392 38.8018H112.34C111.89 39.4541 111.219 39.7803 110.324 39.7803C109.484 39.7803 108.83 39.4932 108.361 38.9189C107.896 38.3447 107.664 37.5283 107.664 36.4697C107.664 35.4111 107.898 34.5889 108.367 34.0029C108.836 33.417 109.488 33.124 110.324 33.124C111.195 33.124 111.863 33.4404 112.328 34.0732H112.404L112.363 33.6104L112.34 33.1592V30.5459H113.312V39.6631H112.521L112.392 38.8018ZM110.447 38.9658C111.111 38.9658 111.592 38.7861 111.889 38.4268C112.189 38.0635 112.34 37.4795 112.34 36.6748V36.4697C112.34 35.5596 112.187 34.9111 111.883 34.5244C111.582 34.1338 111.099 33.9385 110.435 33.9385C109.865 33.9385 109.428 34.1611 109.123 34.6064C108.822 35.0479 108.672 35.6729 108.672 36.4814C108.672 37.3018 108.822 37.9209 109.123 38.3389C109.424 38.7568 109.865 38.9658 110.447 38.9658ZM118.297 39.7803C117.879 39.7803 117.496 39.7041 117.149 39.5518C116.805 39.3955 116.516 39.1572 116.281 38.8369H116.211C116.258 39.2119 116.281 39.5674 116.281 39.9033V42.5459H115.309V33.2412H116.1L116.234 34.1201H116.281C116.531 33.7686 116.822 33.5146 117.154 33.3584C117.486 33.2021 117.867 33.124 118.297 33.124C119.149 33.124 119.805 33.415 120.266 33.9971C120.731 34.5791 120.963 35.3955 120.963 36.4463C120.963 37.501 120.727 38.3213 120.254 38.9072C119.785 39.4893 119.133 39.7803 118.297 39.7803ZM118.156 33.9502C117.5 33.9502 117.026 34.1318 116.733 34.4951C116.44 34.8584 116.289 35.4365 116.281 36.2295V36.4463C116.281 37.3486 116.432 37.9951 116.733 38.3857C117.033 38.7725 117.516 38.9658 118.18 38.9658C118.734 38.9658 119.168 38.7412 119.481 38.292C119.797 37.8428 119.955 37.2236 119.955 36.4346C119.955 35.6338 119.797 35.0205 119.481 34.5947C119.168 34.165 118.727 33.9502 118.156 33.9502Z" fill="white"/>
<path d="M1 47.025V1.99561H138.552V10.7392L145.71 17.2968L138.552 23.4173V47.025H1Z" stroke="white"/>
<path d="M158.573 27.2012H157.465V20.0781C157.465 19.4857 157.484 18.9251 157.52 18.3965C157.424 18.4922 157.317 18.5924 157.199 18.6973C157.08 18.8021 156.538 19.2464 155.572 20.0303L154.97 19.251L157.616 17.207H158.573V27.2012ZM162.413 22.9287C162.413 20.9645 162.793 19.4971 163.554 18.5264C164.32 17.5511 165.45 17.0635 166.945 17.0635C167.46 17.0635 167.865 17.1068 168.162 17.1934V18.1709C167.811 18.057 167.41 18 166.958 18C165.887 18 165.069 18.335 164.504 19.0049C163.939 19.6702 163.629 20.7184 163.575 22.1494H163.657C164.158 21.3656 164.951 20.9736 166.036 20.9736C166.933 20.9736 167.64 21.2448 168.155 21.7871C168.674 22.3294 168.934 23.0654 168.934 23.9951C168.934 25.0342 168.649 25.8522 168.08 26.4492C167.514 27.0417 166.749 27.3379 165.783 27.3379C164.748 27.3379 163.928 26.9505 163.322 26.1758C162.716 25.3965 162.413 24.3141 162.413 22.9287ZM165.769 26.374C166.416 26.374 166.917 26.1712 167.273 25.7656C167.633 25.3555 167.813 24.7653 167.813 23.9951C167.813 23.3343 167.647 22.8148 167.314 22.4365C166.981 22.0583 166.484 21.8691 165.824 21.8691C165.414 21.8691 165.038 21.9535 164.696 22.1221C164.354 22.2907 164.081 22.5231 163.875 22.8193C163.675 23.1156 163.575 23.4232 163.575 23.7422C163.575 24.2116 163.666 24.6491 163.848 25.0547C164.03 25.4603 164.288 25.7816 164.621 26.0186C164.958 26.2555 165.341 26.374 165.769 26.374ZM175.843 26.1963H175.782C175.258 26.9574 174.474 27.3379 173.43 27.3379C172.45 27.3379 171.687 27.0029 171.14 26.333C170.598 25.6631 170.327 24.7106 170.327 23.4756C170.327 22.2406 170.6 21.2812 171.147 20.5977C171.694 19.9141 172.455 19.5723 173.43 19.5723C174.446 19.5723 175.226 19.9414 175.768 20.6797H175.857L175.809 20.1396L175.782 19.6133V16.5645H176.916V27.2012H175.994L175.843 26.1963ZM173.574 26.3877C174.348 26.3877 174.909 26.1781 175.255 25.7588C175.606 25.335 175.782 24.6536 175.782 23.7148V23.4756C175.782 22.4137 175.604 21.6572 175.248 21.2061C174.898 20.7503 174.335 20.5225 173.56 20.5225C172.895 20.5225 172.384 20.7822 172.029 21.3018C171.678 21.8167 171.502 22.5459 171.502 23.4893C171.502 24.4463 171.678 25.1686 172.029 25.6562C172.38 26.1439 172.895 26.3877 173.574 26.3877ZM182.732 27.3379C182.244 27.3379 181.798 27.249 181.392 27.0713C180.991 26.889 180.654 26.611 180.38 26.2373H180.298C180.353 26.6748 180.38 27.0895 180.38 27.4814V30.5645H179.246V19.709H180.168L180.326 20.7344H180.38C180.672 20.3242 181.011 20.028 181.399 19.8457C181.786 19.6634 182.231 19.5723 182.732 19.5723C183.725 19.5723 184.491 19.9118 185.029 20.5908C185.571 21.2699 185.842 22.2223 185.842 23.4482C185.842 24.6787 185.566 25.6357 185.015 26.3193C184.468 26.9984 183.707 27.3379 182.732 27.3379ZM182.568 20.5361C181.802 20.5361 181.248 20.748 180.907 21.1719C180.565 21.5957 180.389 22.2702 180.38 23.1953V23.4482C180.38 24.501 180.556 25.2552 180.907 25.7109C181.258 26.1621 181.82 26.3877 182.595 26.3877C183.242 26.3877 183.748 26.1257 184.113 25.6016C184.482 25.0775 184.666 24.3551 184.666 23.4346C184.666 22.5003 184.482 21.7848 184.113 21.2881C183.748 20.7868 183.233 20.5361 182.568 20.5361Z" fill="#E8178A"/>
<rect x="192.617" y="1.52637" width="143" height="48" rx="4" fill="#019AEB"/>
<g clip-path="url(#clip0_7234_82494)">
<path d="M216.617 13.1929C216.027 13.1929 215.468 13.31 214.958 13.5213C214.448 13.7328 213.863 13.4908 213.651 12.9806C213.44 12.4705 213.682 11.8854 214.192 11.6738C214.94 11.3636 215.76 11.1929 216.617 11.1929H218.617C219.169 11.1929 219.617 11.6406 219.617 12.1929C219.617 12.7452 219.169 13.1929 218.617 13.1929H216.617Z" fill="white"/>
<path d="M221.617 12.1929C221.617 11.6406 222.064 11.1929 222.617 11.1929H226.617C227.169 11.1929 227.617 11.6406 227.617 12.1929C227.617 12.7452 227.169 13.1929 226.617 13.1929H222.617C222.064 13.1929 221.617 12.7452 221.617 12.1929Z" fill="white"/>
<path d="M229.617 12.1929C229.617 11.6406 230.064 11.1929 230.617 11.1929H232.617C233.473 11.1929 234.293 11.3636 235.041 11.6738C235.551 11.8854 235.793 12.4705 235.582 12.9806C235.37 13.4908 234.785 13.7328 234.275 13.5213C233.765 13.31 233.206 13.1929 232.617 13.1929H230.617C230.064 13.1929 229.617 12.7452 229.617 12.1929Z" fill="white"/>
<path d="M212.071 14.5609C212.581 14.7725 212.823 15.3576 212.612 15.8677C212.4 16.3773 212.283 16.9368 212.283 17.5262V19.5262C212.283 20.0785 211.835 20.5262 211.283 20.5262C210.731 20.5262 210.283 20.0785 210.283 19.5262V17.5262C210.283 16.6693 210.454 15.8498 210.764 15.1016C210.976 14.5915 211.561 14.3494 212.071 14.5609Z" fill="white"/>
<path d="M237.162 14.5609C237.672 14.3494 238.257 14.5915 238.469 15.1016C238.779 15.8498 238.95 16.6693 238.95 17.5262V19.5262C238.95 20.0785 238.502 20.5262 237.95 20.5262C237.398 20.5262 236.95 20.0785 236.95 19.5262V17.5262C236.95 16.9368 236.833 16.3773 236.621 15.8677C236.41 15.3576 236.652 14.7725 237.162 14.5609Z" fill="white"/>
<path d="M211.283 22.5262C211.835 22.5262 212.283 22.9739 212.283 23.5262V27.5262C212.283 28.0785 211.835 28.5262 211.283 28.5262C210.731 28.5262 210.283 28.0785 210.283 27.5262V23.5262C210.283 22.9739 210.731 22.5262 211.283 22.5262Z" fill="white"/>
<path d="M237.95 22.5262C238.502 22.5262 238.95 22.9739 238.95 23.5262V27.5262C238.95 28.0785 238.502 28.5262 237.95 28.5262C237.398 28.5262 236.95 28.0785 236.95 27.5262V23.5262C236.95 22.9739 237.398 22.5262 237.95 22.5262Z" fill="white"/>
<path d="M211.283 30.5262C211.835 30.5262 212.283 30.9739 212.283 31.5262V33.5262C212.283 34.1156 212.4 34.6751 212.612 35.1847C212.823 35.6948 212.581 36.2799 212.071 36.4915C211.561 36.703 210.976 36.461 210.764 35.9508C210.454 35.2027 210.283 34.3831 210.283 33.5262V31.5262C210.283 30.9739 210.731 30.5262 211.283 30.5262Z" fill="white"/>
<path d="M237.95 30.5262C238.502 30.5262 238.95 30.9739 238.95 31.5262V33.5262C238.95 34.3831 238.779 35.2027 238.469 35.9508C238.257 36.461 237.672 36.703 237.162 36.4915C236.652 36.2799 236.41 35.6948 236.621 35.1847C236.833 34.6751 236.95 34.1156 236.95 33.5262V31.5262C236.95 30.9739 237.398 30.5262 237.95 30.5262Z" fill="white"/>
<path d="M213.651 38.0718C213.863 37.5616 214.448 37.3196 214.958 37.5311C215.468 37.7424 216.027 37.8595 216.617 37.8595H218.617C219.169 37.8595 219.617 38.3073 219.617 38.8595C219.617 39.4118 219.169 39.8595 218.617 39.8595H216.617C215.76 39.8595 214.94 39.6888 214.192 39.3786C213.682 39.167 213.44 38.5819 213.651 38.0718Z" fill="white"/>
<path d="M235.582 38.0718C235.793 38.5819 235.551 39.167 235.041 39.3786C234.293 39.6888 233.473 39.8595 232.617 39.8595H230.617C230.064 39.8595 229.617 39.4118 229.617 38.8595C229.617 38.3073 230.064 37.8595 230.617 37.8595H232.617C233.206 37.8595 233.765 37.7424 234.275 37.5311C234.785 37.3196 235.37 37.5616 235.582 38.0718Z" fill="white"/>
<path d="M221.617 38.8595C221.617 38.3073 222.064 37.8595 222.617 37.8595H226.617C227.169 37.8595 227.617 38.3073 227.617 38.8595C227.617 39.4118 227.169 39.8595 226.617 39.8595H222.617C222.064 39.8595 221.617 39.4118 221.617 38.8595Z" fill="white"/>
<path d="M235.99 15.6475C236.381 15.257 236.381 14.6238 235.99 14.2333C235.6 13.8428 234.967 13.8428 234.576 14.2333L233.248 15.5616C232.857 15.9521 232.857 16.5853 233.248 16.9758C233.638 17.3663 234.272 17.3663 234.662 16.9758L235.99 15.6475Z" fill="white"/>
<path d="M232.005 19.6324C232.396 19.2418 232.396 18.6087 232.005 18.2181C231.615 17.8276 230.982 17.8276 230.591 18.2181L227.935 20.8747C227.544 21.2652 227.544 21.8984 227.935 22.2889C228.325 22.6794 228.958 22.6794 229.349 22.2889L232.005 19.6324Z" fill="white"/>
<path d="M226.692 24.9455C227.083 24.5549 227.083 23.9218 226.692 23.5313C226.302 23.1407 225.669 23.1407 225.278 23.5313L224.617 24.1929L223.955 23.5313C223.564 23.1407 222.931 23.1407 222.541 23.5313C222.15 23.9218 222.15 24.5549 222.541 24.9455L223.202 25.6071L222.622 26.1878C222.231 26.5783 222.231 27.2115 222.622 27.602C223.012 27.9926 223.645 27.9926 224.036 27.602L224.617 27.0213L225.197 27.602C225.588 27.9926 226.221 27.9926 226.611 27.602C227.002 27.2115 227.002 26.5783 226.611 26.1878L226.031 25.6071L226.692 24.9455Z" fill="white"/>
<path d="M221.379 30.2586C221.77 29.8681 221.77 29.2349 221.379 28.8444C220.989 28.4539 220.356 28.4539 219.965 28.8444L217.308 31.5009C216.918 31.8915 216.918 32.5246 217.308 32.9151C217.699 33.3057 218.332 33.3057 218.723 32.9151L221.379 30.2586Z" fill="white"/>
<path d="M216.066 35.5717C216.457 35.1812 216.457 34.548 216.066 34.1575C215.676 33.767 215.042 33.767 214.652 34.1575L213.324 35.4858C212.933 35.8763 212.933 36.5095 213.324 36.9C213.714 37.2905 214.347 37.2905 214.738 36.9L216.066 35.5717Z" fill="white"/>
<path d="M234.495 36.9C234.886 37.2905 235.519 37.2905 235.909 36.9C236.3 36.5095 236.3 35.8763 235.909 35.4858L234.581 34.1575C234.191 33.767 233.557 33.767 233.167 34.1575C232.776 34.548 232.776 35.1812 233.167 35.5717L234.495 36.9Z" fill="white"/>
<path d="M230.51 32.9151C230.901 33.3057 231.534 33.3057 231.925 32.9151C232.315 32.5246 232.315 31.8915 231.925 31.5009L229.268 28.8444C228.878 28.4538 228.244 28.4538 227.854 28.8444C227.463 29.2349 227.463 29.8681 227.854 30.2586L230.51 32.9151Z" fill="white"/>
<path d="M219.884 22.2889C220.275 22.6794 220.908 22.6794 221.298 22.2889C221.689 21.8984 221.689 21.2652 221.298 20.8747L218.642 18.2181C218.251 17.8276 217.618 17.8276 217.228 18.2181C216.837 18.6087 216.837 19.2418 217.228 19.6324L219.884 22.2889Z" fill="white"/>
<path d="M214.571 16.9758C214.962 17.3663 215.595 17.3663 215.985 16.9758C216.376 16.5853 216.376 15.9521 215.985 15.5616L214.657 14.2333C214.266 13.8428 213.633 13.8428 213.243 14.2333C212.852 14.6238 212.852 15.257 213.243 15.6475L214.571 16.9758Z" fill="white"/>
<path d="M220.691 18.7116C221.088 18.5913 221.511 18.5262 221.95 18.5262H222.95C223.502 18.5262 223.95 18.0785 223.95 17.5262C223.95 16.9739 223.502 16.5262 222.95 16.5262H221.95C221.312 16.5262 220.694 16.6208 220.111 16.7975C219.583 16.9576 219.284 17.5159 219.444 18.0445C219.604 18.5731 220.163 18.8717 220.691 18.7116Z" fill="white"/>
<path d="M226.283 16.5262C225.731 16.5262 225.283 16.9739 225.283 17.5262C225.283 18.0785 225.731 18.5262 226.283 18.5262H227.283C227.723 18.5262 228.145 18.5913 228.542 18.7116C229.071 18.8717 229.629 18.5731 229.789 18.0445C229.949 17.5159 229.65 16.9576 229.122 16.7975C228.539 16.6208 227.921 16.5262 227.283 16.5262H226.283Z" fill="white"/>
<path d="M217.802 21.6008C217.962 21.0722 217.663 20.5139 217.135 20.3538C216.606 20.1936 216.048 20.4923 215.888 21.0209C215.711 21.604 215.617 22.2216 215.617 22.8595V23.8595C215.617 24.4118 216.064 24.8595 216.617 24.8595C217.169 24.8595 217.617 24.4118 217.617 23.8595V22.8595C217.617 22.4202 217.682 21.9979 217.802 21.6008Z" fill="white"/>
<path d="M233.345 21.0209C233.185 20.4923 232.627 20.1937 232.098 20.3538C231.57 20.5139 231.271 21.0722 231.431 21.6008C231.551 21.9979 231.617 22.4202 231.617 22.8595V23.8595C231.617 24.4118 232.064 24.8595 232.617 24.8595C233.169 24.8595 233.617 24.4118 233.617 23.8595V22.8595C233.617 22.2216 233.522 21.604 233.345 21.0209Z" fill="white"/>
<path d="M217.617 27.1929C217.617 26.6406 217.169 26.1929 216.617 26.1929C216.064 26.1929 215.617 26.6406 215.617 27.1929V28.1929C215.617 28.8308 215.711 29.4484 215.888 30.0315C216.048 30.5601 216.606 30.8588 217.135 30.6986C217.663 30.5385 217.962 29.9802 217.802 29.4516C217.682 29.0545 217.617 28.6322 217.617 28.1929V27.1929Z" fill="white"/>
<path d="M233.617 27.1929C233.617 26.6406 233.169 26.1929 232.617 26.1929C232.064 26.1929 231.617 26.6406 231.617 27.1929V28.1929C231.617 28.6322 231.551 29.0545 231.431 29.4516C231.271 29.9802 231.57 30.5385 232.098 30.6986C232.627 30.8588 233.185 30.5601 233.345 30.0315C233.522 29.4484 233.617 28.8308 233.617 28.1929V27.1929Z" fill="white"/>
<path d="M220.691 32.3408C220.163 32.1807 219.604 32.4794 219.444 33.0079C219.284 33.5365 219.583 34.0948 220.111 34.2549C220.694 34.4316 221.312 34.5262 221.95 34.5262H222.95C223.502 34.5262 223.95 34.0785 223.95 33.5262C223.95 32.9739 223.502 32.5262 222.95 32.5262H221.95C221.511 32.5262 221.088 32.4612 220.691 32.3408Z" fill="white"/>
<path d="M229.122 34.2549C229.65 34.0948 229.949 33.5365 229.789 33.0079C229.629 32.4794 229.071 32.1807 228.542 32.3408C228.145 32.4612 227.723 32.5262 227.283 32.5262H226.283C225.731 32.5262 225.283 32.9739 225.283 33.5262C225.283 34.0785 225.731 34.5262 226.283 34.5262H227.283C227.921 34.5262 228.539 34.4316 229.122 34.2549Z" fill="white"/>
<path d="M250.542 19.249H254.986C257.011 19.249 258.479 19.5387 259.39 20.1182C260.308 20.6911 260.767 21.6058 260.767 22.8623C260.767 23.7152 260.565 24.415 260.162 24.9619C259.764 25.5088 259.234 25.8376 258.57 25.9482V26.0459C259.475 26.2477 260.126 26.6253 260.523 27.1787C260.927 27.7321 261.128 28.4678 261.128 29.3857C261.128 30.6878 260.656 31.7035 259.712 32.4326C258.775 33.1618 257.499 33.5264 255.884 33.5264H250.542V19.249ZM253.57 24.9033H255.328C256.148 24.9033 256.74 24.7764 257.105 24.5225C257.476 24.2686 257.662 23.8486 257.662 23.2627C257.662 22.7158 257.46 22.3252 257.056 22.0908C256.659 21.8499 256.028 21.7295 255.162 21.7295H253.57V24.9033ZM253.57 27.3057V31.0264H255.542C256.376 31.0264 256.991 30.8669 257.388 30.5479C257.785 30.2288 257.984 29.7406 257.984 29.083C257.984 27.8981 257.138 27.3057 255.445 27.3057H253.57ZM271.73 33.5264L271.33 32.1299H271.173C270.854 32.6377 270.402 33.0316 269.816 33.3115C269.23 33.585 268.563 33.7217 267.814 33.7217C266.531 33.7217 265.565 33.3799 264.914 32.6963C264.263 32.0062 263.937 31.0166 263.937 29.7275V22.6084H266.916V28.9854C266.916 29.7731 267.056 30.3656 267.335 30.7627C267.615 31.1533 268.061 31.3486 268.673 31.3486C269.507 31.3486 270.109 31.0719 270.48 30.5186C270.851 29.9587 271.037 29.0342 271.037 27.7451V22.6084H274.015V33.5264H271.73ZM281.99 31.3486C282.511 31.3486 283.136 31.2347 283.865 31.0068V33.2236C283.123 33.5557 282.211 33.7217 281.13 33.7217C279.939 33.7217 279.07 33.4222 278.523 32.8232C277.983 32.2178 277.712 31.3128 277.712 30.1084V24.8447H276.287V23.585L277.927 22.5889L278.787 20.2842H280.691V22.6084H283.748V24.8447H280.691V30.1084C280.691 30.5316 280.808 30.8441 281.042 31.0459C281.283 31.2477 281.599 31.3486 281.99 31.3486ZM290.931 31.3486C291.452 31.3486 292.077 31.2347 292.806 31.0068V33.2236C292.064 33.5557 291.153 33.7217 290.072 33.7217C288.88 33.7217 288.011 33.4222 287.464 32.8232C286.924 32.2178 286.654 31.3128 286.654 30.1084V24.8447H285.228V23.585L286.869 22.5889L287.728 20.2842H289.632V22.6084H292.689V24.8447H289.632V30.1084C289.632 30.5316 289.75 30.8441 289.984 31.0459C290.225 31.2477 290.541 31.3486 290.931 31.3486ZM297.646 28.0479C297.646 29.1286 297.822 29.9456 298.173 30.499C298.531 31.0524 299.111 31.3291 299.912 31.3291C300.706 31.3291 301.276 31.0557 301.621 30.5088C301.972 29.9554 302.148 29.1351 302.148 28.0479C302.148 26.9671 301.972 26.1566 301.621 25.6162C301.269 25.0758 300.693 24.8057 299.892 24.8057C299.098 24.8057 298.525 25.0758 298.173 25.6162C297.822 26.1501 297.646 26.9606 297.646 28.0479ZM305.195 28.0479C305.195 29.8252 304.726 31.2152 303.789 32.2178C302.851 33.2204 301.546 33.7217 299.873 33.7217C298.824 33.7217 297.9 33.4938 297.099 33.0381C296.298 32.5758 295.683 31.915 295.253 31.0557C294.824 30.1963 294.609 29.1937 294.609 28.0479C294.609 26.264 295.074 24.8773 296.005 23.8877C296.936 22.8981 298.245 22.4033 299.931 22.4033C300.979 22.4033 301.904 22.6312 302.705 23.0869C303.505 23.5426 304.121 24.1969 304.55 25.0498C304.98 25.9027 305.195 26.902 305.195 28.0479ZM317.984 33.5264H315.005V27.1494C315.005 26.3617 314.865 25.7725 314.585 25.3818C314.306 24.9847 313.86 24.7861 313.248 24.7861C312.414 24.7861 311.812 25.0661 311.441 25.626C311.07 26.1794 310.884 27.1006 310.884 28.3896V33.5264H307.906V22.6084H310.181L310.582 24.0049H310.748C311.08 23.4775 311.535 23.0804 312.115 22.8135C312.701 22.54 313.365 22.4033 314.107 22.4033C315.376 22.4033 316.34 22.7484 316.998 23.4385C317.655 24.1221 317.984 25.1117 317.984 26.4072V33.5264Z" fill="white"/>
</g>
<rect x="193" y="1.99561" width="17" height="47.531" fill="#EB3499" fill-opacity="0.6"/>
<rect x="318" y="1.99561" width="17" height="47.531" fill="#EB3499" fill-opacity="0.6"/>
<rect x="192.5" y="1.49561" width="143" height="48.531" stroke="#FF00FF" stroke-dasharray="2 2"/>
<path d="M192.617 21.5396L209.583 21.5396" stroke="#E8178A" stroke-dasharray="2 2"/>
<path d="M318.365 23.207H335.331" stroke="#E8178A" stroke-dasharray="2 2"/>
<path d="M357.175 31.9331H356.068V24.8101C356.068 24.2176 356.086 23.6571 356.123 23.1284C356.027 23.2241 355.92 23.3244 355.801 23.4292C355.683 23.534 355.141 23.9784 354.174 24.7622L353.573 23.9829L356.218 21.939H357.175V31.9331ZM361.015 27.6606C361.015 25.6965 361.396 24.229 362.157 23.2583C362.922 22.283 364.053 21.7954 365.547 21.7954C366.062 21.7954 366.468 21.8387 366.764 21.9253V22.9028C366.413 22.7889 366.012 22.7319 365.561 22.7319C364.49 22.7319 363.672 23.0669 363.107 23.7368C362.542 24.4022 362.232 25.4504 362.177 26.8813H362.259C362.761 26.0975 363.554 25.7056 364.638 25.7056C365.536 25.7056 366.242 25.9767 366.757 26.519C367.277 27.0614 367.537 27.7974 367.537 28.7271C367.537 29.7661 367.252 30.5841 366.682 31.1812C366.117 31.7736 365.351 32.0698 364.385 32.0698C363.351 32.0698 362.53 31.6825 361.924 30.9077C361.318 30.1284 361.015 29.0461 361.015 27.6606ZM364.372 31.106C365.019 31.106 365.52 30.9032 365.876 30.4976C366.236 30.0874 366.416 29.4972 366.416 28.7271C366.416 28.0662 366.249 27.5467 365.917 27.1685C365.584 26.7902 365.087 26.6011 364.426 26.6011C364.016 26.6011 363.64 26.6854 363.298 26.854C362.957 27.0226 362.683 27.255 362.478 27.5513C362.278 27.8475 362.177 28.1551 362.177 28.4741C362.177 28.9435 362.268 29.381 362.451 29.7866C362.633 30.1922 362.89 30.5135 363.223 30.7505C363.56 30.9875 363.943 31.106 364.372 31.106ZM374.446 30.9282H374.384C373.86 31.6893 373.076 32.0698 372.033 32.0698C371.053 32.0698 370.29 31.7349 369.743 31.0649C369.2 30.395 368.929 29.4425 368.929 28.2075C368.929 26.9725 369.203 26.0132 369.75 25.3296C370.296 24.646 371.057 24.3042 372.033 24.3042C373.049 24.3042 373.828 24.6733 374.371 25.4116H374.459L374.412 24.8716L374.384 24.3452V21.2964H375.519V31.9331H374.596L374.446 30.9282ZM372.176 31.1196C372.951 31.1196 373.512 30.91 373.858 30.4907C374.209 30.0669 374.384 29.3856 374.384 28.4468V28.2075C374.384 27.1457 374.207 26.3892 373.851 25.938C373.5 25.4823 372.937 25.2544 372.163 25.2544C371.497 25.2544 370.987 25.5142 370.631 26.0337C370.28 26.5487 370.105 27.2778 370.105 28.2212C370.105 29.1782 370.28 29.9006 370.631 30.3882C370.982 30.8758 371.497 31.1196 372.176 31.1196ZM381.334 32.0698C380.847 32.0698 380.4 31.981 379.995 31.8032C379.594 31.6209 379.256 31.3429 378.983 30.9692H378.901C378.956 31.4067 378.983 31.8215 378.983 32.2134V35.2964H377.848V24.4409H378.771L378.928 25.4663H378.983C379.275 25.0562 379.614 24.7599 380.001 24.5776C380.389 24.3953 380.833 24.3042 381.334 24.3042C382.328 24.3042 383.094 24.6437 383.631 25.3228C384.174 26.0018 384.445 26.9543 384.445 28.1802C384.445 29.4106 384.169 30.3677 383.618 31.0513C383.071 31.7303 382.31 32.0698 381.334 32.0698ZM381.17 25.2681C380.405 25.2681 379.851 25.48 379.509 25.9038C379.167 26.3276 378.992 27.0021 378.983 27.9272V28.1802C378.983 29.2329 379.158 29.9871 379.509 30.4429C379.86 30.894 380.423 31.1196 381.198 31.1196C381.845 31.1196 382.351 30.8576 382.715 30.3335C383.084 29.8094 383.269 29.0871 383.269 28.1665C383.269 27.2323 383.084 26.5168 382.715 26.02C382.351 25.5187 381.836 25.2681 381.17 25.2681Z" fill="#E8178A"/>
<path d="M385.231 1.94385H393.777V49.4748H385.231" stroke="#4091D2"/>
<path d="M406.136 28.8203H405.105V30.5957H403.335V28.8203H399.679V27.5605L403.435 22.0293H405.105V27.4141H406.136V28.8203ZM403.335 27.4141V25.9609C403.335 25.7188 403.345 25.3672 403.365 24.9062C403.384 24.4453 403.4 24.1777 403.412 24.1035H403.365C403.22 24.4238 403.046 24.7363 402.843 25.041L401.273 27.4141H403.335ZM409.691 21.918C410.511 21.918 411.172 22.1055 411.672 22.4805C412.176 22.8516 412.428 23.3535 412.428 23.9863C412.428 24.4238 412.306 24.8145 412.064 25.1582C411.822 25.498 411.431 25.8027 410.892 26.0723C411.533 26.416 411.992 26.7754 412.269 27.1504C412.551 27.5215 412.691 27.9297 412.691 28.375C412.691 29.0781 412.416 29.6445 411.865 30.0742C411.314 30.5 410.59 30.7129 409.691 30.7129C408.754 30.7129 408.017 30.5137 407.482 30.1152C406.947 29.7168 406.679 29.1523 406.679 28.4219C406.679 27.9336 406.808 27.5 407.066 27.1211C407.328 26.7422 407.746 26.4082 408.32 26.1191C407.832 25.8105 407.48 25.4805 407.265 25.1289C407.051 24.7773 406.943 24.3926 406.943 23.9746C406.943 23.3613 407.197 22.8652 407.705 22.4863C408.213 22.1074 408.875 21.918 409.691 21.918ZM408.355 28.3164C408.355 28.6523 408.472 28.9141 408.707 29.1016C408.941 29.2891 409.261 29.3828 409.668 29.3828C410.117 29.3828 410.453 29.2871 410.676 29.0957C410.898 28.9004 411.01 28.6445 411.01 28.3281C411.01 28.0664 410.898 27.8223 410.676 27.5957C410.457 27.3652 410.099 27.1211 409.603 26.8633C408.771 27.2461 408.355 27.7305 408.355 28.3164ZM409.679 23.2422C409.371 23.2422 409.121 23.3223 408.929 23.4824C408.742 23.6387 408.648 23.8496 408.648 24.1152C408.648 24.3496 408.722 24.5605 408.871 24.748C409.023 24.9316 409.297 25.1211 409.691 25.3164C410.074 25.1367 410.342 24.9531 410.494 24.7656C410.646 24.5781 410.722 24.3613 410.722 24.1152C410.722 23.8457 410.625 23.6328 410.429 23.4766C410.234 23.3203 409.984 23.2422 409.679 23.2422ZM416.053 30.7129C415.283 30.7129 414.678 30.4141 414.236 29.8164C413.799 29.2188 413.58 28.3906 413.58 27.332C413.58 26.2578 413.803 25.4219 414.248 24.8242C414.697 24.2227 415.314 23.9219 416.1 23.9219C416.924 23.9219 417.553 24.2422 417.986 24.8828H418.045C417.955 24.3945 417.91 23.959 417.91 23.5762V21.4785H419.703V30.5957H418.332L417.986 29.7461H417.91C417.504 30.3906 416.885 30.7129 416.053 30.7129ZM416.68 29.2891C417.137 29.2891 417.471 29.1562 417.682 28.8906C417.897 28.625 418.014 28.1738 418.033 27.5371V27.3438C418.033 26.6406 417.924 26.1367 417.705 25.832C417.49 25.5273 417.139 25.375 416.65 25.375C416.252 25.375 415.941 25.5449 415.719 25.8848C415.5 26.2207 415.391 26.7109 415.391 27.3555C415.391 28 415.502 28.4844 415.725 28.8086C415.947 29.1289 416.266 29.2891 416.68 29.2891ZM425.098 30.7129C424.328 30.7129 423.725 30.4336 423.287 29.875H423.194C423.256 30.4219 423.287 30.7383 423.287 30.8242V33.4785H421.5V24.0449H422.953L423.205 24.8945H423.287C423.705 24.2461 424.325 23.9219 425.145 23.9219C425.918 23.9219 426.524 24.2207 426.961 24.8184C427.399 25.416 427.617 26.2461 427.617 27.3086C427.617 28.0078 427.514 28.6152 427.307 29.1309C427.104 29.6465 426.813 30.0391 426.434 30.3086C426.055 30.5781 425.61 30.7129 425.098 30.7129ZM424.571 25.3516C424.129 25.3516 423.807 25.4883 423.604 25.7617C423.401 26.0312 423.295 26.4785 423.287 27.1035V27.2969C423.287 28 423.391 28.5039 423.598 28.8086C423.809 29.1133 424.141 29.2656 424.594 29.2656C425.395 29.2656 425.795 28.6055 425.795 27.2852C425.795 26.6406 425.696 26.1582 425.496 25.8379C425.301 25.5137 424.992 25.3516 424.571 25.3516Z" fill="#4091D2"/>
<defs>
<clipPath id="clip0_7234_82494">
<rect width="111" height="32" fill="white" transform="translate(208.617 9.52637)"/>
</clipPath>
</defs>
</svg>
