<svg width="461" height="58" viewBox="0 0 461 58" fill="none" xmlns="http://www.w3.org/2000/svg"><path d="M14.374 24H12.5869V15.4336H17.4971V16.9219H14.374V19.1309H17.2803V20.6133H14.374V24ZM20.3841 20.7129C20.3841 21.3613 20.4895 21.8516 20.7005 22.1836C20.9153 22.5156 21.263 22.6816 21.7434 22.6816C22.22 22.6816 22.5618 22.5176 22.7688 22.1895C22.9798 21.8574 23.0852 21.3652 23.0852 20.7129C23.0852 20.0645 22.9798 19.5781 22.7688 19.2539C22.5579 18.9297 22.2122 18.7676 21.7317 18.7676C21.2551 18.7676 20.9114 18.9297 20.7005 19.2539C20.4895 19.5742 20.3841 20.0605 20.3841 20.7129ZM24.9134 20.7129C24.9134 21.7793 24.6321 22.6133 24.0696 23.2148C23.5071 23.8164 22.7239 24.1172 21.72 24.1172C21.0911 24.1172 20.5364 23.9805 20.0559 23.707C19.5755 23.4297 19.2063 23.0332 18.9485 22.5176C18.6907 22.002 18.5618 21.4004 18.5618 20.7129C18.5618 19.6426 18.8411 18.8105 19.3997 18.2168C19.9583 17.623 20.7434 17.3262 21.7551 17.3262C22.3841 17.3262 22.9387 17.4629 23.4192 17.7363C23.8997 18.0098 24.2688 18.4023 24.5266 18.9141C24.7844 19.4258 24.9134 20.0254 24.9134 20.7129ZM32.3648 24H30.5777V20.1738C30.5777 19.7012 30.4937 19.3477 30.3257 19.1133C30.1578 18.875 29.8902 18.7559 29.523 18.7559C29.023 18.7559 28.6617 18.9238 28.439 19.2598C28.2164 19.5918 28.105 20.1445 28.105 20.918V24H26.3179V17.4492H27.6831L27.9234 18.2871H28.023C28.2222 17.9707 28.4956 17.7324 28.8433 17.5723C29.1949 17.4082 29.5933 17.3262 30.0386 17.3262C30.8003 17.3262 31.3785 17.5332 31.773 17.9473C32.1675 18.3574 32.3648 18.9512 32.3648 19.7285V24ZM36.8924 22.6934C37.2049 22.6934 37.5799 22.625 38.0174 22.4883V23.8184C37.5721 24.0176 37.0252 24.1172 36.3768 24.1172C35.6619 24.1172 35.1404 23.9375 34.8123 23.5781C34.4881 23.2148 34.326 22.6719 34.326 21.9492V18.791H33.4705V18.0352L34.4549 17.4375L34.9705 16.0547H36.1131V17.4492H37.9471V18.791H36.1131V21.9492C36.1131 22.2031 36.1834 22.3906 36.324 22.5117C36.4686 22.6328 36.658 22.6934 36.8924 22.6934ZM38.6954 21.5156V20.0508H41.8419V21.5156H38.6954ZM47.641 22.0547C47.641 22.7266 47.4066 23.2383 46.9379 23.5898C46.473 23.9414 45.7757 24.1172 44.8461 24.1172C44.3695 24.1172 43.9632 24.084 43.6273 24.0176C43.2914 23.9551 42.9769 23.8613 42.6839 23.7363V22.2598C43.016 22.416 43.389 22.5469 43.8031 22.6523C44.2211 22.7578 44.5882 22.8105 44.9046 22.8105C45.5531 22.8105 45.8773 22.623 45.8773 22.248C45.8773 22.1074 45.8343 21.9941 45.7484 21.9082C45.6625 21.8184 45.514 21.7188 45.3031 21.6094C45.0921 21.4961 44.8109 21.3652 44.4593 21.2168C43.9554 21.0059 43.5843 20.8105 43.3461 20.6309C43.1117 20.4512 42.9398 20.2461 42.8304 20.0156C42.725 19.7812 42.6722 19.4941 42.6722 19.1543C42.6722 18.5723 42.8968 18.123 43.3461 17.8066C43.7992 17.4863 44.4398 17.3262 45.2679 17.3262C46.057 17.3262 46.8246 17.498 47.5707 17.8418L47.0316 19.1309C46.7035 18.9902 46.3968 18.875 46.1117 18.7852C45.8265 18.6953 45.5355 18.6504 45.2386 18.6504C44.7113 18.6504 44.4476 18.793 44.4476 19.0781C44.4476 19.2383 44.5316 19.377 44.6996 19.4941C44.8714 19.6113 45.2445 19.7852 45.8187 20.0156C46.3304 20.2227 46.7054 20.416 46.9437 20.5957C47.182 20.7754 47.3578 20.9824 47.4711 21.2168C47.5843 21.4512 47.641 21.7305 47.641 22.0547ZM48.8873 15.7559C48.8873 15.1738 49.2116 14.8828 49.86 14.8828C50.5084 14.8828 50.8326 15.1738 50.8326 15.7559C50.8326 16.0332 50.7506 16.25 50.5866 16.4062C50.4264 16.5586 50.1842 16.6348 49.86 16.6348C49.2116 16.6348 48.8873 16.3418 48.8873 15.7559ZM50.7506 24H48.9635V17.4492H50.7506V24ZM57.1181 24H51.9442V22.9453L54.9794 18.8145H52.1259V17.4492H57.0126V18.6094L54.0595 22.6348H57.1181V24ZM61.0597 18.5977C60.6808 18.5977 60.384 18.7188 60.1691 18.9609C59.9543 19.1992 59.8312 19.5391 59.8 19.9805H62.3078C62.3 19.5391 62.1847 19.1992 61.9621 18.9609C61.7394 18.7188 61.4386 18.5977 61.0597 18.5977ZM61.3117 24.1172C60.257 24.1172 59.4328 23.8262 58.839 23.2441C58.2453 22.6621 57.9484 21.8379 57.9484 20.7715C57.9484 19.6738 58.2219 18.8262 58.7687 18.2285C59.3195 17.627 60.0793 17.3262 61.048 17.3262C61.9738 17.3262 62.6945 17.5898 63.2101 18.1172C63.7258 18.6445 63.9836 19.373 63.9836 20.3027V21.1699H59.759C59.7785 21.6777 59.9289 22.0742 60.2101 22.3594C60.4914 22.6445 60.8859 22.7871 61.3937 22.7871C61.7883 22.7871 62.1613 22.7461 62.5129 22.6641C62.8644 22.582 63.2316 22.4512 63.6144 22.2715V23.6543C63.3019 23.8105 62.9679 23.9258 62.6125 24C62.257 24.0781 61.8234 24.1172 61.3117 24.1172ZM65.1127 23.1621C65.1127 22.834 65.2006 22.5859 65.3764 22.418C65.5522 22.25 65.8081 22.166 66.144 22.166C66.4682 22.166 66.7182 22.252 66.894 22.4238C67.0737 22.5957 67.1635 22.8418 67.1635 23.1621C67.1635 23.4707 67.0737 23.7148 66.894 23.8945C66.7143 24.0703 66.4643 24.1582 66.144 24.1582C65.8159 24.1582 65.562 24.0723 65.3823 23.9004C65.2026 23.7246 65.1127 23.4785 65.1127 23.1621ZM65.1127 18.3223C65.1127 17.9941 65.2006 17.7461 65.3764 17.5781C65.5522 17.4102 65.8081 17.3262 66.144 17.3262C66.4682 17.3262 66.7182 17.4121 66.894 17.584C67.0737 17.7559 67.1635 18.002 67.1635 18.3223C67.1635 18.6387 67.0717 18.8848 66.8881 19.0605C66.7084 19.2324 66.4604 19.3184 66.144 19.3184C65.8159 19.3184 65.562 19.2324 65.3823 19.0605C65.2026 18.8887 65.1127 18.6426 65.1127 18.3223ZM77.0391 24H71.4082V23.1621L73.6641 20.8945C74.3516 20.1992 74.8047 19.7031 75.0234 19.4062C75.2422 19.1094 75.4062 18.8203 75.5156 18.5391C75.625 18.2578 75.6797 17.9551 75.6797 17.6309C75.6797 17.1738 75.541 16.8125 75.2637 16.5469C74.9863 16.2773 74.6016 16.1426 74.1094 16.1426C73.7539 16.1426 73.416 16.2012 73.0957 16.3184C72.7793 16.4355 72.4258 16.6484 72.0351 16.957L71.5195 16.2949C72.3086 15.6387 73.168 15.3105 74.0976 15.3105C74.9023 15.3105 75.5332 15.5176 75.9902 15.9316C76.4473 16.3418 76.6758 16.8945 76.6758 17.5898C76.6758 18.1328 76.5234 18.6699 76.2187 19.2012C75.9141 19.7324 75.3437 20.4043 74.5078 21.2168L72.6328 23.0508V23.0977H77.0391V24ZM83.8342 24H78.2034V23.1621L80.4592 20.8945C81.1467 20.1992 81.5999 19.7031 81.8186 19.4062C82.0374 19.1094 82.2014 18.8203 82.3108 18.5391C82.4202 18.2578 82.4749 17.9551 82.4749 17.6309C82.4749 17.1738 82.3362 16.8125 82.0589 16.5469C81.7815 16.2773 81.3967 16.1426 80.9046 16.1426C80.5491 16.1426 80.2112 16.2012 79.8909 16.3184C79.5745 16.4355 79.221 16.6484 78.8303 16.957L78.3147 16.2949C79.1038 15.6387 79.9632 15.3105 80.8928 15.3105C81.6975 15.3105 82.3284 15.5176 82.7854 15.9316C83.2424 16.3418 83.471 16.8945 83.471 17.5898C83.471 18.1328 83.3186 18.6699 83.0139 19.2012C82.7092 19.7324 82.1389 20.4043 81.303 21.2168L79.428 23.0508V23.0977H83.8342V24ZM89.5865 22.248C89.5865 22.8457 89.3638 23.3066 88.9185 23.6309C88.4732 23.9551 87.8482 24.1172 87.0435 24.1172C86.1919 24.1172 85.5279 23.9824 85.0513 23.7129V22.8105C85.3599 22.9668 85.69 23.0898 86.0415 23.1797C86.397 23.2695 86.7388 23.3145 87.0669 23.3145C87.5747 23.3145 87.9654 23.2344 88.2388 23.0742C88.5122 22.9102 88.649 22.6621 88.649 22.3301C88.649 22.0801 88.5396 21.8672 88.3208 21.6914C88.106 21.5117 87.6841 21.3008 87.0552 21.0586C86.4576 20.8359 86.0318 20.6426 85.7779 20.4785C85.5279 20.3105 85.3404 20.1211 85.2154 19.9102C85.0943 19.6992 85.0337 19.4473 85.0337 19.1543C85.0337 18.6309 85.2466 18.2188 85.6724 17.918C86.0982 17.6133 86.6822 17.4609 87.4244 17.4609C88.1158 17.4609 88.7915 17.6016 89.4517 17.8828L89.106 18.6738C88.4615 18.4082 87.8775 18.2754 87.354 18.2754C86.8931 18.2754 86.5454 18.3477 86.3111 18.4922C86.0767 18.6367 85.9595 18.8359 85.9595 19.0898C85.9595 19.2617 86.0025 19.4082 86.0884 19.5293C86.1783 19.6504 86.3208 19.7656 86.5162 19.875C86.7115 19.9844 87.0865 20.1426 87.6412 20.3496C88.4029 20.627 88.9165 20.9062 89.1822 21.1875C89.4517 21.4688 89.5865 21.8223 89.5865 22.248ZM94.0906 24.1172C93.6727 24.1172 93.2898 24.041 92.9422 23.8887C92.5984 23.7324 92.3094 23.4941 92.075 23.1738H92.0047C92.0516 23.5488 92.075 23.9043 92.075 24.2402V26.8828H91.1023V17.5781H91.8934L92.0281 18.457H92.075C92.325 18.1055 92.616 17.8516 92.9481 17.6953C93.2801 17.5391 93.6609 17.4609 94.0906 17.4609C94.9422 17.4609 95.5984 17.752 96.0594 18.334C96.5242 18.916 96.7566 19.7324 96.7566 20.7832C96.7566 21.8379 96.5203 22.6582 96.0477 23.2441C95.5789 23.8262 94.9266 24.1172 94.0906 24.1172ZM93.95 18.2871C93.2938 18.2871 92.8191 18.4688 92.5262 18.832C92.2332 19.1953 92.0828 19.7734 92.075 20.5664V20.7832C92.075 21.6855 92.2254 22.332 92.5262 22.7227C92.827 23.1094 93.3094 23.3027 93.9734 23.3027C94.5281 23.3027 94.9617 23.0781 95.2742 22.6289C95.5906 22.1797 95.7488 21.5605 95.7488 20.7715C95.7488 19.9707 95.5906 19.3574 95.2742 18.9316C94.9617 18.502 94.5203 18.2871 93.95 18.2871ZM12.5869 35.4336H15.2529C16.4678 35.4336 17.3486 35.6074 17.8955 35.9551C18.4463 36.2988 18.7217 36.8477 18.7217 37.6016C18.7217 38.1133 18.6006 38.5332 18.3584 38.8613C18.1201 39.1895 17.8018 39.3867 17.4033 39.4531V39.5117C17.9463 39.6328 18.3369 39.8594 18.5752 40.1914C18.8174 40.5234 18.9385 40.9648 18.9385 41.5156C18.9385 42.2969 18.6553 42.9062 18.0889 43.3438C17.5264 43.7812 16.7607 44 15.792 44H12.5869V35.4336ZM14.4033 38.8262H15.458C15.9502 38.8262 16.3057 38.75 16.5244 38.5977C16.7471 38.4453 16.8584 38.1934 16.8584 37.8418C16.8584 37.5137 16.7373 37.2793 16.4951 37.1387C16.2568 36.9941 15.8779 36.9219 15.3584 36.9219H14.4033V38.8262ZM14.4033 40.2676V42.5H15.5869C16.0869 42.5 16.4561 42.4043 16.6943 42.2129C16.9326 42.0215 17.0518 41.7285 17.0518 41.334C17.0518 40.623 16.5439 40.2676 15.5283 40.2676H14.4033ZM21.8606 40.7129C21.8606 41.3613 21.9661 41.8516 22.177 42.1836C22.3919 42.5156 22.7395 42.6816 23.22 42.6816C23.6966 42.6816 24.0384 42.5176 24.2454 42.1895C24.4563 41.8574 24.5618 41.3652 24.5618 40.7129C24.5618 40.0645 24.4563 39.5781 24.2454 39.2539C24.0344 38.9297 23.6887 38.7676 23.2083 38.7676C22.7317 38.7676 22.388 38.9297 22.177 39.2539C21.9661 39.5742 21.8606 40.0605 21.8606 40.7129ZM26.3899 40.7129C26.3899 41.7793 26.1087 42.6133 25.5462 43.2148C24.9837 43.8164 24.2005 44.1172 23.1966 44.1172C22.5676 44.1172 22.013 43.9805 21.5325 43.707C21.052 43.4297 20.6829 43.0332 20.4251 42.5176C20.1673 42.002 20.0384 41.4004 20.0384 40.7129C20.0384 39.6426 20.3176 38.8105 20.8762 38.2168C21.4348 37.623 22.22 37.3262 23.2317 37.3262C23.8606 37.3262 24.4153 37.4629 24.8958 37.7363C25.3762 38.0098 25.7454 38.4023 26.0032 38.9141C26.261 39.4258 26.3899 40.0254 26.3899 40.7129ZM31.4507 37.3262C31.6929 37.3262 31.8941 37.3438 32.0542 37.3789L31.9195 39.0547C31.7749 39.0156 31.5992 38.9961 31.3921 38.9961C30.8218 38.9961 30.3765 39.1426 30.0562 39.4355C29.7398 39.7285 29.5816 40.1387 29.5816 40.666V44H27.7945V37.4492H29.148L29.4117 38.5508H29.4996C29.7027 38.1836 29.9761 37.8887 30.3199 37.666C30.6675 37.4395 31.0445 37.3262 31.4507 37.3262ZM35.2459 44.1172C34.4764 44.1172 33.8709 43.8184 33.4295 43.2207C32.992 42.623 32.7733 41.7949 32.7733 40.7363C32.7733 39.6621 32.9959 38.8262 33.4412 38.2285C33.8904 37.627 34.5076 37.3262 35.2928 37.3262C36.117 37.3262 36.7459 37.6465 37.1795 38.2871H37.2381C37.1483 37.7988 37.1033 37.3633 37.1033 36.9805V34.8828H38.8963V44H37.5252L37.1795 43.1504H37.1033C36.6971 43.7949 36.0779 44.1172 35.2459 44.1172ZM35.8729 42.6934C36.3299 42.6934 36.6639 42.5605 36.8748 42.2949C37.0897 42.0293 37.2069 41.5781 37.2264 40.9414V40.748C37.2264 40.0449 37.117 39.541 36.8983 39.2363C36.6834 38.9316 36.3319 38.7793 35.8436 38.7793C35.4451 38.7793 35.1346 38.9492 34.9119 39.2891C34.6932 39.625 34.5838 40.1152 34.5838 40.7598C34.5838 41.4043 34.6951 41.8887 34.9178 42.2129C35.1404 42.5332 35.4588 42.6934 35.8729 42.6934ZM43.4063 38.5977C43.0274 38.5977 42.7306 38.7188 42.5157 38.9609C42.3009 39.1992 42.1778 39.5391 42.1466 39.9805H44.6544C44.6466 39.5391 44.5313 39.1992 44.3087 38.9609C44.086 38.7188 43.7852 38.5977 43.4063 38.5977ZM43.6583 44.1172C42.6036 44.1172 41.7794 43.8262 41.1856 43.2441C40.5919 42.6621 40.295 41.8379 40.295 40.7715C40.295 39.6738 40.5684 38.8262 41.1153 38.2285C41.6661 37.627 42.4259 37.3262 43.3946 37.3262C44.3204 37.3262 45.0411 37.5898 45.5567 38.1172C46.0724 38.6445 46.3302 39.373 46.3302 40.3027V41.1699H42.1056C42.1251 41.6777 42.2755 42.0742 42.5567 42.3594C42.838 42.6445 43.2325 42.7871 43.7403 42.7871C44.1349 42.7871 44.5079 42.7461 44.8595 42.6641C45.211 42.582 45.5782 42.4512 45.961 42.2715V43.6543C45.6485 43.8105 45.3145 43.9258 44.9591 44C44.6036 44.0781 44.17 44.1172 43.6583 44.1172ZM51.3675 37.3262C51.6097 37.3262 51.8109 37.3438 51.9711 37.3789L51.8363 39.0547C51.6918 39.0156 51.516 38.9961 51.3089 38.9961C50.7386 38.9961 50.2933 39.1426 49.973 39.4355C49.6566 39.7285 49.4984 40.1387 49.4984 40.666V44H47.7113V37.4492H49.0648L49.3285 38.5508H49.4164C49.6195 38.1836 49.8929 37.8887 50.2367 37.666C50.5843 37.4395 50.9613 37.3262 51.3675 37.3262ZM52.5084 41.5156V40.0508H55.6549V41.5156H52.5084ZM60.5399 37.3262C60.7821 37.3262 60.9833 37.3438 61.1435 37.3789L61.0087 39.0547C60.8642 39.0156 60.6884 38.9961 60.4813 38.9961C59.911 38.9961 59.4657 39.1426 59.1454 39.4355C58.829 39.7285 58.6708 40.1387 58.6708 40.666V44H56.8837V37.4492H58.2372L58.5009 38.5508H58.5888C58.7919 38.1836 59.0653 37.8887 59.4091 37.666C59.7567 37.4395 60.1337 37.3262 60.5399 37.3262ZM66.4211 44L66.0754 43.1094H66.0285C65.7277 43.4883 65.4172 43.752 65.0969 43.9004C64.7804 44.0449 64.3664 44.1172 63.8547 44.1172C63.2258 44.1172 62.7297 43.9375 62.3664 43.5781C62.007 43.2188 61.8273 42.707 61.8273 42.043C61.8273 41.3477 62.0695 40.8359 62.5539 40.5078C63.0422 40.1758 63.7765 39.9922 64.757 39.957L65.8937 39.9219V39.6348C65.8937 38.9707 65.5539 38.6387 64.8742 38.6387C64.3508 38.6387 63.7355 38.7969 63.0285 39.1133L62.4367 37.9062C63.1906 37.5117 64.0265 37.3145 64.9445 37.3145C65.8234 37.3145 66.4972 37.5059 66.966 37.8887C67.4347 38.2715 67.6691 38.8535 67.6691 39.6348V44H66.4211ZM65.8937 40.9648L65.2023 40.9883C64.6828 41.0039 64.2961 41.0977 64.0422 41.2695C63.7883 41.4414 63.6613 41.7031 63.6613 42.0547C63.6613 42.5586 63.9504 42.8105 64.5285 42.8105C64.9426 42.8105 65.2726 42.6914 65.5187 42.4531C65.7687 42.2148 65.8937 41.8984 65.8937 41.5039V40.9648ZM71.517 44.1172C70.7475 44.1172 70.142 43.8184 69.7006 43.2207C69.2631 42.623 69.0444 41.7949 69.0444 40.7363C69.0444 39.6621 69.267 38.8262 69.7124 38.2285C70.1616 37.627 70.7788 37.3262 71.5639 37.3262C72.3881 37.3262 73.017 37.6465 73.4506 38.2871H73.5092C73.4194 37.7988 73.3745 37.3633 73.3745 36.9805V34.8828H75.1674V44H73.7963L73.4506 43.1504H73.3745C72.9682 43.7949 72.3491 44.1172 71.517 44.1172ZM72.144 42.6934C72.601 42.6934 72.935 42.5605 73.1459 42.2949C73.3608 42.0293 73.478 41.5781 73.4975 40.9414V40.748C73.4975 40.0449 73.3881 39.541 73.1694 39.2363C72.9545 38.9316 72.603 38.7793 72.1147 38.7793C71.7163 38.7793 71.4057 38.9492 71.1831 39.2891C70.9643 39.625 70.8549 40.1152 70.8549 40.7598C70.8549 41.4043 70.9663 41.8887 71.1889 42.2129C71.4116 42.5332 71.7299 42.6934 72.144 42.6934ZM76.8884 35.7559C76.8884 35.1738 77.2126 34.8828 77.8611 34.8828C78.5095 34.8828 78.8337 35.1738 78.8337 35.7559C78.8337 36.0332 78.7517 36.25 78.5876 36.4062C78.4275 36.5586 78.1853 36.6348 77.8611 36.6348C77.2126 36.6348 76.8884 36.3418 76.8884 35.7559ZM78.7517 44H76.9646V37.4492H78.7517V44ZM85.2012 44L84.9609 43.1621H84.8672C84.6758 43.4668 84.4043 43.7031 84.0527 43.8711C83.7012 44.0352 83.3008 44.1172 82.8516 44.1172C82.082 44.1172 81.5019 43.9121 81.1113 43.502C80.7207 43.0879 80.5254 42.4941 80.5254 41.7207V37.4492H82.3125V41.2754C82.3125 41.748 82.3965 42.1035 82.5644 42.3418C82.7324 42.5762 83 42.6934 83.3672 42.6934C83.8672 42.6934 84.2285 42.5273 84.4512 42.1953C84.6738 41.8594 84.7851 41.3047 84.7851 40.5312V37.4492H86.5723V44H85.2012ZM92.9456 42.0547C92.9456 42.7266 92.7112 43.2383 92.2424 43.5898C91.7776 43.9414 91.0803 44.1172 90.1507 44.1172C89.6741 44.1172 89.2678 44.084 88.9319 44.0176C88.596 43.9551 88.2815 43.8613 87.9885 43.7363V42.2598C88.3206 42.416 88.6936 42.5469 89.1077 42.6523C89.5257 42.7578 89.8928 42.8105 90.2092 42.8105C90.8577 42.8105 91.1819 42.623 91.1819 42.248C91.1819 42.1074 91.1389 41.9941 91.053 41.9082C90.9671 41.8184 90.8186 41.7188 90.6077 41.6094C90.3967 41.4961 90.1155 41.3652 89.7639 41.2168C89.26 41.0059 88.8889 40.8105 88.6507 40.6309C88.4163 40.4512 88.2444 40.2461 88.135 40.0156C88.0296 39.7812 87.9768 39.4941 87.9768 39.1543C87.9768 38.5723 88.2014 38.123 88.6507 37.8066C89.1038 37.4863 89.7444 37.3262 90.5725 37.3262C91.3616 37.3262 92.1292 37.498 92.8753 37.8418L92.3362 39.1309C92.0081 38.9902 91.7014 38.875 91.4163 38.7852C91.1311 38.6953 90.8401 38.6504 90.5432 38.6504C90.0159 38.6504 89.7522 38.793 89.7522 39.0781C89.7522 39.2383 89.8362 39.377 90.0042 39.4941C90.176 39.6113 90.5491 39.7852 91.1233 40.0156C91.635 40.2227 92.01 40.416 92.2483 40.5957C92.4866 40.7754 92.6624 40.9824 92.7757 41.2168C92.8889 41.4512 92.9456 41.7305 92.9456 42.0547ZM94.0162 43.1621C94.0162 42.834 94.104 42.5859 94.2798 42.418C94.4556 42.25 94.7115 42.166 95.0474 42.166C95.3716 42.166 95.6216 42.252 95.7974 42.4238C95.9771 42.5957 96.0669 42.8418 96.0669 43.1621C96.0669 43.4707 95.9771 43.7148 95.7974 43.8945C95.6177 44.0703 95.3677 44.1582 95.0474 44.1582C94.7193 44.1582 94.4654 44.0723 94.2857 43.9004C94.106 43.7246 94.0162 43.4785 94.0162 43.1621ZM94.0162 38.3223C94.0162 37.9941 94.104 37.7461 94.2798 37.5781C94.4556 37.4102 94.7115 37.3262 95.0474 37.3262C95.3716 37.3262 95.6216 37.4121 95.7974 37.584C95.9771 37.7559 96.0669 38.002 96.0669 38.3223C96.0669 38.6387 95.9751 38.8848 95.7915 39.0605C95.6119 39.2324 95.3638 39.3184 95.0474 39.3184C94.7193 39.3184 94.4654 39.2324 94.2857 39.0605C94.106 38.8887 94.0162 38.6426 94.0162 38.3223ZM106.347 42.0312H105.075V44H104.144V42.0312H99.9776V41.1816L104.044 35.3867H105.075V41.1465H106.347V42.0312ZM104.144 41.1465V38.2988C104.144 37.7402 104.163 37.1094 104.202 36.4062H104.155C103.968 36.7812 103.792 37.0918 103.628 37.3379L100.95 41.1465H104.144ZM111.923 43.1387H111.87C111.421 43.791 110.749 44.1172 109.855 44.1172C109.015 44.1172 108.361 43.8301 107.892 43.2559C107.427 42.6816 107.195 41.8652 107.195 40.8066C107.195 39.748 107.429 38.9258 107.898 38.3398C108.367 37.7539 109.019 37.4609 109.855 37.4609C110.726 37.4609 111.394 37.7773 111.859 38.4102H111.935L111.894 37.9473L111.87 37.4961V34.8828H112.843V44H112.052L111.923 43.1387ZM109.978 43.3027C110.642 43.3027 111.122 43.123 111.419 42.7637C111.72 42.4004 111.87 41.8164 111.87 41.0117V40.8066C111.87 39.8965 111.718 39.248 111.413 38.8613C111.113 38.4707 110.63 38.2754 109.966 38.2754C109.396 38.2754 108.958 38.498 108.654 38.9434C108.353 39.3848 108.202 40.0098 108.202 40.8184C108.202 41.6387 108.353 42.2578 108.654 42.6758C108.954 43.0938 109.396 43.3027 109.978 43.3027ZM117.828 44.1172C117.41 44.1172 117.027 44.041 116.679 43.8887C116.336 43.7324 116.047 43.4941 115.812 43.1738H115.742C115.789 43.5488 115.812 43.9043 115.812 44.2402V46.8828H114.839V37.5781H115.63L115.765 38.457H115.812C116.062 38.1055 116.353 37.8516 116.685 37.6953C117.017 37.5391 117.398 37.4609 117.828 37.4609C118.679 37.4609 119.336 37.752 119.797 38.334C120.261 38.916 120.494 39.7324 120.494 40.7832C120.494 41.8379 120.257 42.6582 119.785 43.2441C119.316 43.8262 118.664 44.1172 117.828 44.1172ZM117.687 38.2871C117.031 38.2871 116.556 38.4688 116.263 38.832C115.97 39.1953 115.82 39.7734 115.812 40.5664V40.7832C115.812 41.6855 115.963 42.332 116.263 42.7227C116.564 43.1094 117.047 43.3027 117.711 43.3027C118.265 43.3027 118.699 43.0781 119.011 42.6289C119.328 42.1797 119.486 41.5605 119.486 40.7715C119.486 39.9707 119.328 39.3574 119.011 38.9316C118.699 38.502 118.257 38.2871 117.687 38.2871Z" fill="#000"/><path d="M1 55V3H139.271V13.0971L146.467 20.6699L139.271 27.7379V55H1Z" stroke="#CCC"/><path d="M163.362 34H162.255V26.877C162.255 26.2845 162.273 25.724 162.31 25.1953C162.214 25.291 162.107 25.3913 161.988 25.4961C161.87 25.6009 161.328 26.0452 160.361 26.8291L159.76 26.0498L162.405 24.0059H163.362V34ZM167.202 29.7275C167.202 27.7633 167.583 26.2959 168.344 25.3252C169.109 24.3499 170.24 23.8623 171.734 23.8623C172.249 23.8623 172.655 23.9056 172.951 23.9922V24.9697C172.6 24.8558 172.199 24.7988 171.748 24.7988C170.677 24.7988 169.859 25.1338 169.294 25.8037C168.729 26.4691 168.419 27.5173 168.364 28.9482H168.446C168.948 28.1644 169.741 27.7725 170.825 27.7725C171.723 27.7725 172.429 28.0436 172.944 28.5859C173.464 29.1283 173.724 29.8643 173.724 30.7939C173.724 31.833 173.439 32.651 172.869 33.248C172.304 33.8405 171.539 34.1367 170.572 34.1367C169.538 34.1367 168.718 33.7493 168.111 32.9746C167.505 32.1953 167.202 31.113 167.202 29.7275ZM170.559 33.1729C171.206 33.1729 171.707 32.9701 172.063 32.5645C172.423 32.1543 172.603 31.5641 172.603 30.7939C172.603 30.1331 172.436 29.6136 172.104 29.2354C171.771 28.8571 171.274 28.668 170.613 28.668C170.203 28.668 169.827 28.7523 169.485 28.9209C169.144 29.0895 168.87 29.3219 168.665 29.6182C168.465 29.9144 168.364 30.222 168.364 30.541C168.364 31.0104 168.456 31.4479 168.638 31.8535C168.82 32.2591 169.078 32.5804 169.41 32.8174C169.747 33.0544 170.13 33.1729 170.559 33.1729ZM180.633 32.9951H180.571C180.047 33.7562 179.263 34.1367 178.22 34.1367C177.24 34.1367 176.477 33.8018 175.93 33.1318C175.387 32.4619 175.116 31.5094 175.116 30.2744C175.116 29.0394 175.39 28.0801 175.937 27.3965C176.483 26.7129 177.245 26.3711 178.22 26.3711C179.236 26.3711 180.015 26.7402 180.558 27.4785H180.647L180.599 26.9385L180.571 26.4121V23.3633H181.706V34H180.783L180.633 32.9951ZM178.363 33.1865C179.138 33.1865 179.699 32.9769 180.045 32.5576C180.396 32.1338 180.571 31.4525 180.571 30.5137V30.2744C180.571 29.2126 180.394 28.4561 180.038 28.0049C179.687 27.5492 179.124 27.3213 178.35 27.3213C177.684 27.3213 177.174 27.5811 176.818 28.1006C176.468 28.6156 176.292 29.3447 176.292 30.2881C176.292 31.2451 176.468 31.9674 176.818 32.4551C177.169 32.9427 177.684 33.1865 178.363 33.1865ZM187.522 34.1367C187.034 34.1367 186.587 34.0479 186.182 33.8701C185.781 33.6878 185.443 33.4098 185.17 33.0361H185.088C185.143 33.4736 185.17 33.8883 185.17 34.2803V37.3633H184.035V26.5078H184.958L185.115 27.5332H185.17C185.462 27.123 185.801 26.8268 186.189 26.6445C186.576 26.4622 187.02 26.3711 187.522 26.3711C188.515 26.3711 189.281 26.7106 189.818 27.3896C190.361 28.0687 190.632 29.0212 190.632 30.2471C190.632 31.4775 190.356 32.4346 189.805 33.1182C189.258 33.7972 188.497 34.1367 187.522 34.1367ZM187.357 27.335C186.592 27.335 186.038 27.5469 185.696 27.9707C185.355 28.3945 185.179 29.069 185.17 29.9941V30.2471C185.17 31.2998 185.345 32.054 185.696 32.5098C186.047 32.9609 186.61 33.1865 187.385 33.1865C188.032 33.1865 188.538 32.9245 188.902 32.4004C189.272 31.8763 189.456 31.154 189.456 30.2334C189.456 29.2992 189.272 28.5837 188.902 28.0869C188.538 27.5856 188.023 27.335 187.357 27.335Z" fill="#E8178A"/><rect x="201.407" y="1" width="150" height="56" rx="4" fill="#0063A3"/><g clip-path="url(#clip0_7234_82260)"><path d="M225.407 16.6665C224.818 16.6665 224.258 16.7836 223.749 16.9949C223.238 17.2065 222.653 16.9644 222.442 16.4543C222.23 15.9441 222.472 15.359 222.982 15.1475C223.731 14.8372 224.55 14.6665 225.407 14.6665H227.407C227.959 14.6665 228.407 15.1142 228.407 15.6665C228.407 16.2188 227.959 16.6665 227.407 16.6665H225.407Z" fill="#fff"/><path d="M230.407 15.6665C230.407 15.1142 230.855 14.6665 231.407 14.6665H235.407C235.959 14.6665 236.407 15.1142 236.407 15.6665C236.407 16.2188 235.959 16.6665 235.407 16.6665H231.407C230.855 16.6665 230.407 16.2188 230.407 15.6665Z" fill="#fff"/><path d="M238.407 15.6665C238.407 15.1142 238.855 14.6665 239.407 14.6665H241.407C242.264 14.6665 243.084 14.8372 243.832 15.1475C244.342 15.359 244.584 15.9441 244.372 16.4543C244.161 16.9644 243.576 17.2065 243.066 16.9949C242.556 16.7836 241.996 16.6665 241.407 16.6665H239.407C238.855 16.6665 238.407 16.2188 238.407 15.6665Z" fill="#fff"/><path d="M220.861 18.0346C221.372 18.2461 221.614 18.8312 221.402 19.3414C221.191 19.8509 221.074 20.4104 221.074 20.9998V22.9998C221.074 23.5521 220.626 23.9998 220.074 23.9998C219.521 23.9998 219.074 23.5521 219.074 22.9998V20.9998C219.074 20.1429 219.244 19.3234 219.555 18.5752C219.766 18.0651 220.351 17.823 220.861 18.0346Z" fill="#fff"/><path d="M245.953 18.0346C246.463 17.823 247.048 18.0651 247.259 18.5752C247.57 19.3234 247.74 20.1429 247.74 20.9998V22.9998C247.74 23.5521 247.293 23.9998 246.74 23.9998C246.188 23.9998 245.74 23.5521 245.74 22.9998V20.9998C245.74 20.4104 245.623 19.8509 245.412 19.3414C245.2 18.8312 245.442 18.2461 245.953 18.0346Z" fill="#fff"/><path d="M220.074 25.9998C220.626 25.9998 221.074 26.4476 221.074 26.9998V30.9998C221.074 31.5521 220.626 31.9998 220.074 31.9998C219.521 31.9998 219.074 31.5521 219.074 30.9998V26.9998C219.074 26.4476 219.521 25.9998 220.074 25.9998Z" fill="#fff"/><path d="M246.74 25.9998C247.293 25.9998 247.74 26.4476 247.74 26.9998V30.9998C247.74 31.5521 247.293 31.9998 246.74 31.9998C246.188 31.9998 245.74 31.5521 245.74 30.9998V26.9998C245.74 26.4476 246.188 25.9998 246.74 25.9998Z" fill="#fff"/><path d="M220.074 33.9998C220.626 33.9998 221.074 34.4476 221.074 34.9998V36.9998C221.074 37.5892 221.191 38.1488 221.402 38.6583C221.614 39.1685 221.372 39.7535 220.861 39.9651C220.351 40.1767 219.766 39.9346 219.555 39.4244C219.244 38.6763 219.074 37.8567 219.074 36.9998V34.9998C219.074 34.4476 219.521 33.9998 220.074 33.9998Z" fill="#fff"/><path d="M246.74 33.9998C247.293 33.9998 247.74 34.4476 247.74 34.9998V36.9998C247.74 37.8567 247.57 38.6763 247.259 39.4244C247.048 39.9346 246.463 40.1767 245.953 39.9651C245.442 39.7535 245.2 39.1685 245.412 38.6583C245.623 38.1488 245.74 37.5892 245.74 36.9998V34.9998C245.74 34.4476 246.188 33.9998 246.74 33.9998Z" fill="#fff"/><path d="M222.442 41.5454C222.653 41.0353 223.238 40.7932 223.749 41.0047C224.258 41.216 224.818 41.3332 225.407 41.3332H227.407C227.959 41.3332 228.407 41.7809 228.407 42.3332C228.407 42.8855 227.959 43.3332 227.407 43.3332H225.407C224.55 43.3332 223.731 43.1624 222.982 42.8522C222.472 42.6406 222.23 42.0556 222.442 41.5454Z" fill="#fff"/><path d="M244.372 41.5454C244.584 42.0556 244.342 42.6406 243.832 42.8522C243.084 43.1624 242.264 43.3332 241.407 43.3332H239.407C238.855 43.3332 238.407 42.8855 238.407 42.3332C238.407 41.7809 238.855 41.3332 239.407 41.3332H241.407C241.996 41.3332 242.556 41.216 243.066 41.0047C243.576 40.7932 244.161 41.0353 244.372 41.5454Z" fill="#fff"/><path d="M230.407 42.3332C230.407 41.7809 230.855 41.3332 231.407 41.3332H235.407C235.959 41.3332 236.407 41.7809 236.407 42.3332C236.407 42.8855 235.959 43.3332 235.407 43.3332H231.407C230.855 43.3332 230.407 42.8855 230.407 42.3332Z" fill="#fff"/><path d="M244.781 19.1212C245.171 18.7306 245.171 18.0975 244.781 17.7069C244.39 17.3164 243.757 17.3164 243.367 17.7069L242.038 19.0352C241.648 19.4257 241.648 20.0589 242.038 20.4494C242.429 20.84 243.062 20.84 243.453 20.4494L244.781 19.1212Z" fill="#fff"/><path d="M240.796 23.106C241.187 22.7155 241.187 22.0823 240.796 21.6918C240.405 21.3013 239.772 21.3013 239.382 21.6918L236.725 24.3483C236.335 24.7389 236.335 25.372 236.725 25.7625C237.116 26.1531 237.749 26.1531 238.139 25.7625L240.796 23.106Z" fill="#fff"/><path d="M235.483 28.4191C235.873 28.0286 235.873 27.3954 235.483 27.0049C235.092 26.6144 234.459 26.6144 234.069 27.0049L233.407 27.6665L232.745 27.0049C232.355 26.6144 231.722 26.6144 231.331 27.0049C230.941 27.3954 230.941 28.0286 231.331 28.4191L231.993 29.0807L231.412 29.6614C231.022 30.052 231.022 30.6851 231.412 31.0757C231.803 31.4662 232.436 31.4662 232.826 31.0757L233.407 30.4949L233.988 31.0757C234.378 31.4662 235.011 31.4662 235.402 31.0757C235.793 30.6851 235.793 30.052 235.402 29.6614L234.821 29.0807L235.483 28.4191Z" fill="#fff"/><path d="M230.17 33.7322C230.56 33.3417 230.56 32.7085 230.17 32.318C229.779 31.9275 229.146 31.9275 228.756 32.318L226.099 34.9746C225.708 35.3651 225.708 35.9983 226.099 36.3888C226.49 36.7793 227.123 36.7793 227.513 36.3888L230.17 33.7322Z" fill="#fff"/><path d="M224.857 39.0453C225.247 38.6548 225.247 38.0216 224.857 37.6311C224.466 37.2406 223.833 37.2406 223.442 37.6311L222.114 38.9594C221.724 39.3499 221.724 39.9831 222.114 40.3736C222.505 40.7641 223.138 40.7641 223.528 40.3736L224.857 39.0453Z" fill="#fff"/><path d="M243.286 40.3736C243.676 40.7641 244.309 40.7641 244.7 40.3736C245.09 39.9831 245.09 39.3499 244.7 38.9594L243.372 37.6311C242.981 37.2406 242.348 37.2406 241.957 37.6311C241.567 38.0216 241.567 38.6548 241.957 39.0453L243.286 40.3736Z" fill="#fff"/><path d="M239.301 36.3888C239.691 36.7793 240.325 36.7793 240.715 36.3888C241.106 35.9983 241.106 35.3651 240.715 34.9746L238.059 32.318C237.668 31.9275 237.035 31.9275 236.644 32.318C236.254 32.7085 236.254 33.3417 236.644 33.7322L239.301 36.3888Z" fill="#fff"/><path d="M228.675 25.7625C229.065 26.1531 229.698 26.1531 230.089 25.7625C230.479 25.372 230.479 24.7389 230.089 24.3483L227.432 21.6918C227.042 21.3013 226.409 21.3013 226.018 21.6918C225.628 22.0823 225.628 22.7155 226.018 23.106L228.675 25.7625Z" fill="#fff"/><path d="M223.362 20.4494C223.752 20.84 224.385 20.84 224.776 20.4494C225.166 20.0589 225.166 19.4257 224.776 19.0352L223.448 17.7069C223.057 17.3164 222.424 17.3164 222.033 17.7069C221.643 18.0975 221.643 18.7306 222.033 19.1212L223.362 20.4494Z" fill="#fff"/><path d="M229.482 22.1852C229.879 22.0649 230.301 21.9998 230.74 21.9998H231.74C232.293 21.9998 232.74 21.5521 232.74 20.9998C232.74 20.4476 232.293 19.9998 231.74 19.9998H230.74C230.102 19.9998 229.485 20.0945 228.902 20.2711C228.373 20.4313 228.075 20.9896 228.235 21.5181C228.395 22.0467 228.953 22.3454 229.482 22.1852Z" fill="#fff"/><path d="M235.074 19.9998C234.521 19.9998 234.074 20.4476 234.074 20.9998C234.074 21.5521 234.521 21.9998 235.074 21.9998H236.074C236.513 21.9998 236.935 22.0649 237.332 22.1852C237.861 22.3454 238.419 22.0467 238.579 21.5181C238.74 20.9896 238.441 20.4313 237.912 20.2711C237.329 20.0945 236.712 19.9998 236.074 19.9998H235.074Z" fill="#fff"/><path d="M226.592 25.0744C226.753 24.5459 226.454 23.9876 225.925 23.8274C225.397 23.6673 224.838 23.9659 224.678 24.4945C224.502 25.0776 224.407 25.6952 224.407 26.3332V27.3332C224.407 27.8855 224.855 28.3332 225.407 28.3332C225.959 28.3332 226.407 27.8855 226.407 27.3332V26.3332C226.407 25.8939 226.472 25.4716 226.592 25.0744Z" fill="#fff"/><path d="M242.136 24.4945C241.976 23.9659 241.417 23.6673 240.889 23.8274C240.36 23.9876 240.062 24.5459 240.222 25.0744C240.342 25.4716 240.407 25.8939 240.407 26.3332V27.3332C240.407 27.8855 240.855 28.3332 241.407 28.3332C241.959 28.3332 242.407 27.8855 242.407 27.3332V26.3332C242.407 25.6952 242.312 25.0776 242.136 24.4945Z" fill="#fff"/><path d="M226.407 30.6665C226.407 30.1142 225.959 29.6665 225.407 29.6665C224.855 29.6665 224.407 30.1142 224.407 30.6665V31.6665C224.407 32.3044 224.502 32.9221 224.678 33.5052C224.838 34.0337 225.397 34.3324 225.925 34.1723C226.454 34.0121 226.753 33.4538 226.592 32.9253C226.472 32.5281 226.407 32.1058 226.407 31.6665V30.6665Z" fill="#fff"/><path d="M242.407 30.6665C242.407 30.1142 241.959 29.6665 241.407 29.6665C240.855 29.6665 240.407 30.1142 240.407 30.6665V31.6665C240.407 32.1058 240.342 32.5281 240.222 32.9253C240.062 33.4538 240.36 34.0121 240.889 34.1723C241.417 34.3324 241.976 34.0337 242.136 33.5052C242.312 32.9221 242.407 32.3044 242.407 31.6665V30.6665Z" fill="#fff"/><path d="M229.482 35.8145C228.953 35.6543 228.395 35.953 228.235 36.4815C228.075 37.0101 228.373 37.5684 228.902 37.7285C229.485 37.9052 230.102 37.9998 230.74 37.9998H231.74C232.293 37.9998 232.74 37.5521 232.74 36.9998C232.74 36.4476 232.293 35.9998 231.74 35.9998H230.74C230.301 35.9998 229.879 35.9348 229.482 35.8145Z" fill="#fff"/><path d="M237.912 37.7285C238.441 37.5684 238.74 37.0101 238.579 36.4815C238.419 35.953 237.861 35.6543 237.332 35.8145C236.935 35.9348 236.513 35.9998 236.074 35.9998H235.074C234.521 35.9998 234.074 36.4476 234.074 36.9998C234.074 37.5521 234.521 37.9998 235.074 37.9998H236.074C236.712 37.9998 237.329 37.9052 237.912 37.7285Z" fill="#fff"/><path d="M259.538 22.2949H264.426C266.653 22.2949 268.268 22.6136 269.271 23.251C270.28 23.8812 270.785 24.8874 270.785 26.2695C270.785 27.2077 270.563 27.9775 270.119 28.5791C269.682 29.1807 269.099 29.5423 268.368 29.6641V29.7715C269.364 29.9935 270.08 30.4089 270.517 31.0176C270.961 31.6263 271.183 32.4355 271.183 33.4453C271.183 34.8776 270.663 35.9948 269.625 36.7969C268.594 37.599 267.19 38 265.414 38H259.538V22.2949ZM262.868 28.5146H264.802C265.704 28.5146 266.356 28.375 266.757 28.0957C267.165 27.8164 267.369 27.3545 267.369 26.71C267.369 26.1084 267.147 25.6787 266.703 25.4209C266.266 25.1559 265.572 25.0234 264.619 25.0234H262.868V28.5146ZM262.868 31.1572V35.25H265.038C265.955 35.25 266.632 35.0745 267.068 34.7236C267.505 34.3727 267.724 33.8356 267.724 33.1123C267.724 31.8089 266.793 31.1572 264.931 31.1572H262.868ZM282.819 38L282.379 36.4639H282.207C281.856 37.0225 281.358 37.4557 280.714 37.7637C280.069 38.0645 279.335 38.2148 278.512 38.2148C277.101 38.2148 276.037 37.8389 275.321 37.0869C274.605 36.3278 274.247 35.2393 274.247 33.8213V25.9902H277.523V33.0049C277.523 33.8714 277.677 34.5231 277.985 34.96C278.293 35.3896 278.784 35.6045 279.457 35.6045C280.374 35.6045 281.036 35.3001 281.444 34.6914C281.853 34.0755 282.057 33.0586 282.057 31.6406V25.9902H285.333V38H282.819ZM294.08 35.6045C294.653 35.6045 295.34 35.4792 296.143 35.2285V37.667C295.326 38.0322 294.324 38.2148 293.135 38.2148C291.824 38.2148 290.868 37.8854 290.267 37.2266C289.672 36.5605 289.375 35.5651 289.375 34.2402V28.4502H287.807V27.0645L289.611 25.9688L290.557 23.4336H292.651V25.9902H296.014V28.4502H292.651V34.2402C292.651 34.7057 292.78 35.0495 293.038 35.2715C293.303 35.4935 293.65 35.6045 294.08 35.6045ZM303.891 35.6045C304.464 35.6045 305.151 35.4792 305.953 35.2285V37.667C305.137 38.0322 304.134 38.2148 302.945 38.2148C301.635 38.2148 300.679 37.8854 300.077 37.2266C299.483 36.5605 299.186 35.5651 299.186 34.2402V28.4502H297.617V27.0645L299.422 25.9688L300.367 23.4336H302.462V25.9902H305.824V28.4502H302.462V34.2402C302.462 34.7057 302.591 35.0495 302.849 35.2715C303.114 35.4935 303.461 35.6045 303.891 35.6045ZM311.252 31.9736C311.252 33.1624 311.445 34.0612 311.832 34.6699C312.226 35.2786 312.863 35.583 313.744 35.583C314.618 35.583 315.244 35.2822 315.624 34.6807C316.011 34.0719 316.204 33.1696 316.204 31.9736C316.204 30.7848 316.011 29.8932 315.624 29.2988C315.237 28.7044 314.604 28.4072 313.723 28.4072C312.849 28.4072 312.219 28.7044 311.832 29.2988C311.445 29.8861 311.252 30.7777 311.252 31.9736ZM319.556 31.9736C319.556 33.9287 319.04 35.4577 318.009 36.5605C316.978 37.6634 315.542 38.2148 313.701 38.2148C312.548 38.2148 311.531 37.9642 310.65 37.4629C309.77 36.9544 309.093 36.2275 308.62 35.2822C308.147 34.3369 307.911 33.234 307.911 31.9736C307.911 30.0114 308.423 28.486 309.447 27.3975C310.471 26.3089 311.911 25.7646 313.766 25.7646C314.919 25.7646 315.936 26.0153 316.816 26.5166C317.697 27.0179 318.374 27.7376 318.847 28.6758C319.319 29.6139 319.556 30.7132 319.556 31.9736ZM333.599 38H330.322V30.9854C330.322 30.1188 330.168 29.4707 329.86 29.041C329.552 28.6042 329.062 28.3857 328.389 28.3857C327.472 28.3857 326.81 28.6937 326.401 29.3096C325.993 29.9183 325.789 30.9316 325.789 32.3496V38H322.513V25.9902H325.016L325.456 27.5264H325.639C326.004 26.9463 326.505 26.5094 327.143 26.2158C327.787 25.915 328.518 25.7646 329.334 25.7646C330.73 25.7646 331.79 26.1442 332.514 26.9033C333.237 27.6553 333.599 28.7438 333.599 30.1689V38Z" fill="#fff"/></g><rect x="201.407" y="1" width="16.982" height="56" fill="#EB3499" fill-opacity=".6"/><rect x="335.262" y="1" width="15.983" height="56" fill="#EB3499" fill-opacity=".6"/><rect x="200.907" y=".5" width="150.837" height="57" stroke="#F0F" stroke-dasharray="2 2"/><path d="M201.407 29L218.389 29" stroke="#E8178A" stroke-dasharray="2 2"/><path d="M335.262 29H352.243" stroke="#E8178A" stroke-dasharray="2 2"/><path d="M372.136 34H371.028V26.877C371.028 26.2845 371.046 25.724 371.083 25.1953C370.987 25.291 370.88 25.3913 370.762 25.4961C370.643 25.6009 370.101 26.0452 369.135 26.8291L368.533 26.0498L371.179 24.0059H372.136V34ZM375.975 29.7275C375.975 27.7633 376.356 26.2959 377.117 25.3252C377.883 24.3499 379.013 23.8623 380.508 23.8623C381.023 23.8623 381.428 23.9056 381.724 23.9922V24.9697C381.373 24.8558 380.972 24.7988 380.521 24.7988C379.45 24.7988 378.632 25.1338 378.067 25.8037C377.502 26.4691 377.192 27.5173 377.137 28.9482H377.22C377.721 28.1644 378.514 27.7725 379.598 27.7725C380.496 27.7725 381.203 28.0436 381.718 28.5859C382.237 29.1283 382.497 29.8643 382.497 30.7939C382.497 31.833 382.212 32.651 381.642 33.248C381.077 33.8405 380.312 34.1367 379.345 34.1367C378.311 34.1367 377.491 33.7493 376.885 32.9746C376.278 32.1953 375.975 31.113 375.975 29.7275ZM379.332 33.1729C379.979 33.1729 380.48 32.9701 380.836 32.5645C381.196 32.1543 381.376 31.5641 381.376 30.7939C381.376 30.1331 381.209 29.6136 380.877 29.2354C380.544 28.8571 380.047 28.668 379.386 28.668C378.976 28.668 378.6 28.7523 378.259 28.9209C377.917 29.0895 377.643 29.3219 377.438 29.6182C377.238 29.9144 377.137 30.222 377.137 30.541C377.137 31.0104 377.229 31.4479 377.411 31.8535C377.593 32.2591 377.851 32.5804 378.183 32.8174C378.521 33.0544 378.903 33.1729 379.332 33.1729ZM389.406 32.9951H389.344C388.82 33.7562 388.037 34.1367 386.993 34.1367C386.013 34.1367 385.25 33.8018 384.703 33.1318C384.161 32.4619 383.889 31.5094 383.889 30.2744C383.889 29.0394 384.163 28.0801 384.71 27.3965C385.257 26.7129 386.018 26.3711 386.993 26.3711C388.009 26.3711 388.788 26.7402 389.331 27.4785H389.42L389.372 26.9385L389.344 26.4121V23.3633H390.479V34H389.556L389.406 32.9951ZM387.136 33.1865C387.911 33.1865 388.472 32.9769 388.818 32.5576C389.169 32.1338 389.344 31.4525 389.344 30.5137V30.2744C389.344 29.2126 389.167 28.4561 388.811 28.0049C388.46 27.5492 387.898 27.3213 387.123 27.3213C386.457 27.3213 385.947 27.5811 385.592 28.1006C385.241 28.6156 385.065 29.3447 385.065 30.2881C385.065 31.2451 385.241 31.9674 385.592 32.4551C385.942 32.9427 386.457 33.1865 387.136 33.1865ZM396.295 34.1367C395.807 34.1367 395.36 34.0479 394.955 33.8701C394.554 33.6878 394.217 33.4098 393.943 33.0361H393.861C393.916 33.4736 393.943 33.8883 393.943 34.2803V37.3633H392.808V26.5078H393.731L393.888 27.5332H393.943C394.235 27.123 394.574 26.8268 394.962 26.6445C395.349 26.4622 395.793 26.3711 396.295 26.3711C397.288 26.3711 398.054 26.7106 398.592 27.3896C399.134 28.0687 399.405 29.0212 399.405 30.2471C399.405 31.4775 399.129 32.4346 398.578 33.1182C398.031 33.7972 397.27 34.1367 396.295 34.1367ZM396.131 27.335C395.365 27.335 394.811 27.5469 394.469 27.9707C394.128 28.3945 393.952 29.069 393.943 29.9941V30.2471C393.943 31.2998 394.119 32.054 394.469 32.5098C394.82 32.9609 395.383 33.1865 396.158 33.1865C396.805 33.1865 397.311 32.9245 397.676 32.4004C398.045 31.8763 398.229 31.154 398.229 30.2334C398.229 29.2992 398.045 28.5837 397.676 28.0869C397.311 27.5856 396.796 27.335 396.131 27.335Z" fill="#E8178A"/><path d="M399.691 1H408.682V57H399.691" stroke="#4091D2"/><path d="M417.643 28.5273C418.471 28.5273 419.129 28.7598 419.618 29.2246C420.11 29.6895 420.356 30.3262 420.356 31.1348C420.356 32.0918 420.061 32.8281 419.471 33.3438C418.881 33.8594 418.038 34.1172 416.94 34.1172C415.987 34.1172 415.217 33.9629 414.631 33.6543V32.0898C414.94 32.2539 415.299 32.3887 415.709 32.4941C416.12 32.5957 416.508 32.6465 416.875 32.6465C417.981 32.6465 418.534 32.1934 418.534 31.2871C418.534 30.4238 417.961 29.9922 416.817 29.9922C416.61 29.9922 416.381 30.0137 416.131 30.0566C415.881 30.0957 415.678 30.1387 415.522 30.1855L414.801 29.7988L415.124 25.4336H419.77V26.9688H416.711L416.553 28.6504L416.758 28.6094C416.997 28.5547 417.292 28.5273 417.643 28.5273ZM421.251 30.3613C421.251 28.666 421.608 27.4043 422.323 26.5762C423.042 25.748 424.116 25.334 425.546 25.334C426.034 25.334 426.417 25.3633 426.694 25.4219V26.8691C426.346 26.791 426.003 26.752 425.663 26.752C425.042 26.752 424.534 26.8457 424.139 27.0332C423.749 27.2207 423.456 27.498 423.261 27.8652C423.065 28.2324 422.95 28.7539 422.915 29.4297H422.991C423.378 28.7656 423.997 28.4336 424.848 28.4336C425.614 28.4336 426.214 28.6738 426.647 29.1543C427.081 29.6348 427.298 30.2988 427.298 31.1465C427.298 32.0605 427.04 32.7852 426.524 33.3203C426.009 33.8516 425.294 34.1172 424.38 34.1172C423.747 34.1172 423.194 33.9707 422.721 33.6777C422.253 33.3848 421.889 32.957 421.632 32.3945C421.378 31.832 421.251 31.1543 421.251 30.3613ZM424.345 32.6699C424.731 32.6699 425.028 32.541 425.235 32.2832C425.442 32.0215 425.546 31.6504 425.546 31.1699C425.546 30.752 425.448 30.4238 425.253 30.1855C425.061 29.9434 424.77 29.8223 424.38 29.8223C424.012 29.8223 423.698 29.9414 423.436 30.1797C423.178 30.418 423.05 30.6953 423.05 31.0117C423.05 31.4766 423.171 31.8691 423.413 32.1895C423.659 32.5098 423.97 32.6699 424.345 32.6699ZM430.624 34.1172C429.855 34.1172 429.249 33.8184 428.808 33.2207C428.37 32.623 428.151 31.7949 428.151 30.7363C428.151 29.6621 428.374 28.8262 428.819 28.2285C429.269 27.627 429.886 27.3262 430.671 27.3262C431.495 27.3262 432.124 27.6465 432.558 28.2871H432.616C432.526 27.7988 432.481 27.3633 432.481 26.9805V24.8828H434.274V34H432.903L432.558 33.1504H432.481C432.075 33.7949 431.456 34.1172 430.624 34.1172ZM431.251 32.6934C431.708 32.6934 432.042 32.5605 432.253 32.2949C432.468 32.0293 432.585 31.5781 432.605 30.9414V30.748C432.605 30.0449 432.495 29.541 432.276 29.2363C432.062 28.9316 431.71 28.7793 431.222 28.7793C430.823 28.7793 430.513 28.9492 430.29 29.2891C430.071 29.625 429.962 30.1152 429.962 30.7598C429.962 31.4043 430.073 31.8887 430.296 32.2129C430.519 32.5332 430.837 32.6934 431.251 32.6934ZM439.669 34.1172C438.9 34.1172 438.296 33.8379 437.859 33.2793H437.765C437.827 33.8262 437.859 34.1426 437.859 34.2285V36.8828H436.072V27.4492H437.525L437.777 28.2988H437.859C438.277 27.6504 438.896 27.3262 439.716 27.3262C440.49 27.3262 441.095 27.625 441.533 28.2227C441.97 28.8203 442.189 29.6504 442.189 30.7129C442.189 31.4121 442.085 32.0195 441.878 32.5352C441.675 33.0508 441.384 33.4434 441.005 33.7129C440.626 33.9824 440.181 34.1172 439.669 34.1172ZM439.142 28.7559C438.701 28.7559 438.378 28.8926 438.175 29.166C437.972 29.4355 437.867 29.8828 437.859 30.5078V30.7012C437.859 31.4043 437.962 31.9082 438.169 32.2129C438.38 32.5176 438.712 32.6699 439.165 32.6699C439.966 32.6699 440.367 32.0098 440.367 30.6895C440.367 30.0449 440.267 29.5625 440.068 29.2422C439.872 28.918 439.564 28.7559 439.142 28.7559Z" fill="#4091D2"/><defs><clipPath id="clip0_7234_82260"><rect width="118" height="32" fill="#fff" transform="translate(217.407 13)"/></clipPath></defs></svg>