<svg width="961" height="96" viewBox="0 0 961 96" fill="none" xmlns="http://www.w3.org/2000/svg"><rect width="961" height="96" fill="#4E4E4E"/><rect x="263.5" y="20" width="156" height="56" rx="4" fill="#6B6969"/><g clip-path="url(#clip0_6784_87321)"><path d="M287.5 35.6665C286.911 35.6665 286.351 35.7836 285.842 35.9949C285.332 36.2065 284.747 35.9644 284.535 35.4543C284.324 34.9441 284.566 34.359 285.076 34.1475C285.824 33.8372 286.643 33.6665 287.5 33.6665H289.5C290.053 33.6665 290.5 34.1142 290.5 34.6665C290.5 35.2188 290.053 35.6665 289.5 35.6665H287.5Z" fill="#fff"/><path d="M292.5 34.6665C292.5 34.1142 292.948 33.6665 293.5 33.6665H297.5C298.053 33.6665 298.5 34.1142 298.5 34.6665C298.5 35.2188 298.053 35.6665 297.5 35.6665H293.5C292.948 35.6665 292.5 35.2188 292.5 34.6665Z" fill="#fff"/><path d="M300.5 34.6665C300.5 34.1142 300.948 33.6665 301.5 33.6665H303.5C304.357 33.6665 305.177 33.8372 305.925 34.1475C306.435 34.359 306.677 34.9441 306.466 35.4543C306.254 35.9644 305.669 36.2065 305.159 35.9949C304.649 35.7836 304.09 35.6665 303.5 35.6665H301.5C300.948 35.6665 300.5 35.2188 300.5 34.6665Z" fill="#fff"/><path d="M282.955 37.0346C283.465 37.2461 283.707 37.8312 283.495 38.3414C283.284 38.8509 283.167 39.4104 283.167 39.9998V41.9998C283.167 42.5521 282.719 42.9998 282.167 42.9998C281.615 42.9998 281.167 42.5521 281.167 41.9998V39.9998C281.167 39.1429 281.338 38.3234 281.648 37.5752C281.86 37.0651 282.445 36.823 282.955 37.0346Z" fill="#fff"/><path d="M308.046 37.0346C308.556 36.823 309.141 37.0651 309.353 37.5752C309.663 38.3234 309.834 39.1429 309.834 39.9998V41.9998C309.834 42.5521 309.386 42.9998 308.834 42.9998C308.281 42.9998 307.834 42.5521 307.834 41.9998V39.9998C307.834 39.4104 307.717 38.8509 307.505 38.3414C307.294 37.8312 307.536 37.2461 308.046 37.0346Z" fill="#fff"/><path d="M282.167 44.9998C282.719 44.9998 283.167 45.4476 283.167 45.9998V49.9998C283.167 50.5521 282.719 50.9998 282.167 50.9998C281.615 50.9998 281.167 50.5521 281.167 49.9998V45.9998C281.167 45.4476 281.615 44.9998 282.167 44.9998Z" fill="#fff"/><path d="M308.834 44.9998C309.386 44.9998 309.834 45.4476 309.834 45.9998V49.9998C309.834 50.5521 309.386 50.9998 308.834 50.9998C308.281 50.9998 307.834 50.5521 307.834 49.9998V45.9998C307.834 45.4476 308.281 44.9998 308.834 44.9998Z" fill="#fff"/><path d="M282.167 52.9998C282.719 52.9998 283.167 53.4476 283.167 53.9998V55.9998C283.167 56.5892 283.284 57.1488 283.495 57.6583C283.707 58.1685 283.465 58.7535 282.955 58.9651C282.445 59.1767 281.86 58.9346 281.648 58.4244C281.338 57.6763 281.167 56.8567 281.167 55.9998V53.9998C281.167 53.4476 281.615 52.9998 282.167 52.9998Z" fill="#fff"/><path d="M308.834 52.9998C309.386 52.9998 309.834 53.4476 309.834 53.9998V55.9998C309.834 56.8567 309.663 57.6763 309.353 58.4244C309.141 58.9346 308.556 59.1767 308.046 58.9651C307.536 58.7535 307.294 58.1685 307.505 57.6583C307.717 57.1488 307.834 56.5892 307.834 55.9998V53.9998C307.834 53.4476 308.281 52.9998 308.834 52.9998Z" fill="#fff"/><path d="M284.535 60.5454C284.747 60.0353 285.332 59.7932 285.842 60.0047C286.351 60.216 286.911 60.3332 287.5 60.3332H289.5C290.053 60.3332 290.5 60.7809 290.5 61.3332C290.5 61.8855 290.053 62.3332 289.5 62.3332H287.5C286.643 62.3332 285.824 62.1624 285.076 61.8522C284.566 61.6406 284.324 61.0556 284.535 60.5454Z" fill="#fff"/><path d="M306.466 60.5454C306.677 61.0556 306.435 61.6406 305.925 61.8522C305.177 62.1624 304.357 62.3332 303.5 62.3332H301.5C300.948 62.3332 300.5 61.8855 300.5 61.3332C300.5 60.7809 300.948 60.3332 301.5 60.3332H303.5C304.09 60.3332 304.649 60.216 305.159 60.0047C305.669 59.7932 306.254 60.0353 306.466 60.5454Z" fill="#fff"/><path d="M292.5 61.3332C292.5 60.7809 292.948 60.3332 293.5 60.3332H297.5C298.053 60.3332 298.5 60.7809 298.5 61.3332C298.5 61.8855 298.053 62.3332 297.5 62.3332H293.5C292.948 62.3332 292.5 61.8855 292.5 61.3332Z" fill="#fff"/><path d="M306.874 38.1212C307.265 37.7306 307.265 37.0975 306.874 36.7069C306.484 36.3164 305.85 36.3164 305.46 36.7069L304.132 38.0352C303.741 38.4257 303.741 39.0589 304.132 39.4494C304.522 39.84 305.155 39.84 305.546 39.4494L306.874 38.1212Z" fill="#fff"/><path d="M302.889 42.106C303.28 41.7155 303.28 41.0823 302.889 40.6918C302.499 40.3013 301.866 40.3013 301.475 40.6918L298.818 43.3483C298.428 43.7389 298.428 44.372 298.818 44.7625C299.209 45.1531 299.842 45.1531 300.233 44.7625L302.889 42.106Z" fill="#fff"/><path d="M297.576 47.4191C297.967 47.0286 297.967 46.3954 297.576 46.0049C297.186 45.6144 296.552 45.6144 296.162 46.0049L295.5 46.6665L294.839 46.0049C294.448 45.6144 293.815 45.6144 293.424 46.0049C293.034 46.3954 293.034 47.0286 293.424 47.4191L294.086 48.0807L293.505 48.6614C293.115 49.052 293.115 49.6851 293.505 50.0757C293.896 50.4662 294.529 50.4662 294.92 50.0757L295.5 49.4949L296.081 50.0757C296.472 50.4662 297.105 50.4662 297.495 50.0757C297.886 49.6851 297.886 49.052 297.495 48.6614L296.915 48.0807L297.576 47.4191Z" fill="#fff"/><path d="M292.263 52.7322C292.654 52.3417 292.654 51.7085 292.263 51.318C291.873 50.9275 291.239 50.9275 290.849 51.318L288.192 53.9746C287.802 54.3651 287.802 54.9983 288.192 55.3888C288.583 55.7793 289.216 55.7793 289.606 55.3888L292.263 52.7322Z" fill="#fff"/><path d="M286.95 58.0453C287.34 57.6548 287.34 57.0216 286.95 56.6311C286.559 56.2406 285.926 56.2406 285.536 56.6311L284.207 57.9594C283.817 58.3499 283.817 58.9831 284.207 59.3736C284.598 59.7641 285.231 59.7641 285.622 59.3736L286.95 58.0453Z" fill="#fff"/><path d="M305.379 59.3736C305.77 59.7641 306.403 59.7641 306.793 59.3736C307.184 58.9831 307.184 58.3499 306.793 57.9594L305.465 56.6311C305.074 56.2406 304.441 56.2406 304.051 56.6311C303.66 57.0216 303.66 57.6548 304.051 58.0453L305.379 59.3736Z" fill="#fff"/><path d="M301.394 55.3888C301.785 55.7793 302.418 55.7793 302.808 55.3888C303.199 54.9983 303.199 54.3651 302.808 53.9746L300.152 51.318C299.761 50.9275 299.128 50.9275 298.738 51.318C298.347 51.7085 298.347 52.3417 298.738 52.7322L301.394 55.3888Z" fill="#fff"/><path d="M290.768 44.7625C291.158 45.1531 291.792 45.1531 292.182 44.7625C292.573 44.372 292.573 43.7389 292.182 43.3483L289.526 40.6918C289.135 40.3013 288.502 40.3013 288.111 40.6918C287.721 41.0823 287.721 41.7155 288.111 42.106L290.768 44.7625Z" fill="#fff"/><path d="M285.455 39.4494C285.845 39.84 286.479 39.84 286.869 39.4494C287.26 39.0589 287.26 38.4257 286.869 38.0352L285.541 36.7069C285.15 36.3164 284.517 36.3164 284.127 36.7069C283.736 37.0975 283.736 37.7306 284.127 38.1212L285.455 39.4494Z" fill="#fff"/><path d="M291.575 41.1852C291.972 41.0649 292.394 40.9998 292.834 40.9998H293.834C294.386 40.9998 294.834 40.5521 294.834 39.9998C294.834 39.4476 294.386 38.9998 293.834 38.9998H292.834C292.196 38.9998 291.578 39.0945 290.995 39.2711C290.466 39.4313 290.168 39.9896 290.328 40.5181C290.488 41.0467 291.046 41.3454 291.575 41.1852Z" fill="#fff"/><path d="M297.167 38.9998C296.615 38.9998 296.167 39.4476 296.167 39.9998C296.167 40.5521 296.615 40.9998 297.167 40.9998H298.167C298.606 40.9998 299.029 41.0649 299.426 41.1852C299.954 41.3454 300.513 41.0467 300.673 40.5181C300.833 39.9896 300.534 39.4313 300.006 39.2711C299.423 39.0945 298.805 38.9998 298.167 38.9998H297.167Z" fill="#fff"/><path d="M288.686 44.0744C288.846 43.5459 288.547 42.9876 288.019 42.8274C287.49 42.6673 286.932 42.9659 286.772 43.4945C286.595 44.0776 286.5 44.6952 286.5 45.3332V46.3332C286.5 46.8855 286.948 47.3332 287.5 47.3332C288.053 47.3332 288.5 46.8855 288.5 46.3332V45.3332C288.5 44.8939 288.565 44.4716 288.686 44.0744Z" fill="#fff"/><path d="M304.229 43.4945C304.069 42.9659 303.511 42.6673 302.982 42.8274C302.453 42.9876 302.155 43.5459 302.315 44.0744C302.435 44.4716 302.5 44.8939 302.5 45.3332V46.3332C302.5 46.8855 302.948 47.3332 303.5 47.3332C304.053 47.3332 304.5 46.8855 304.5 46.3332V45.3332C304.5 44.6952 304.406 44.0776 304.229 43.4945Z" fill="#fff"/><path d="M288.5 49.6665C288.5 49.1142 288.053 48.6665 287.5 48.6665C286.948 48.6665 286.5 49.1142 286.5 49.6665V50.6665C286.5 51.3044 286.595 51.9221 286.772 52.5052C286.932 53.0337 287.49 53.3324 288.019 53.1723C288.547 53.0121 288.846 52.4538 288.686 51.9253C288.565 51.5281 288.5 51.1058 288.5 50.6665V49.6665Z" fill="#fff"/><path d="M304.5 49.6665C304.5 49.1142 304.053 48.6665 303.5 48.6665C302.948 48.6665 302.5 49.1142 302.5 49.6665V50.6665C302.5 51.1058 302.435 51.5281 302.315 51.9253C302.155 52.4538 302.453 53.0121 302.982 53.1723C303.511 53.3324 304.069 53.0337 304.229 52.5052C304.406 51.9221 304.5 51.3044 304.5 50.6665V49.6665Z" fill="#fff"/><path d="M291.575 54.8145C291.046 54.6543 290.488 54.953 290.328 55.4815C290.168 56.0101 290.466 56.5684 290.995 56.7285C291.578 56.9052 292.196 56.9998 292.834 56.9998H293.834C294.386 56.9998 294.834 56.5521 294.834 55.9998C294.834 55.4476 294.386 54.9998 293.834 54.9998H292.834C292.394 54.9998 291.972 54.9348 291.575 54.8145Z" fill="#fff"/><path d="M300.006 56.7285C300.534 56.5684 300.833 56.0101 300.673 55.4815C300.513 54.953 299.954 54.6543 299.426 54.8145C299.029 54.9348 298.606 54.9998 298.167 54.9998H297.167C296.615 54.9998 296.167 55.4476 296.167 55.9998C296.167 56.5521 296.615 56.9998 297.167 56.9998H298.167C298.805 56.9998 299.423 56.9052 300.006 56.7285Z" fill="#fff"/><path d="M334.829 48.9971C334.829 51.5824 334.091 53.5625 332.616 54.9375C331.148 56.3125 329.025 57 326.246 57H321.799V41.2949H326.729C329.293 41.2949 331.284 41.9717 332.702 43.3252C334.12 44.6787 334.829 46.5693 334.829 48.9971ZM331.37 49.083C331.37 45.71 329.881 44.0234 326.901 44.0234H325.129V54.25H326.558C329.766 54.25 331.37 52.5277 331.37 49.083ZM343.05 47.0957C342.355 47.0957 341.811 47.3177 341.417 47.7617C341.023 48.1986 340.798 48.8216 340.74 49.6309H345.338C345.324 48.8216 345.112 48.1986 344.704 47.7617C344.296 47.3177 343.744 47.0957 343.05 47.0957ZM343.512 57.2148C341.578 57.2148 340.067 56.6813 338.979 55.6143C337.89 54.5472 337.346 53.0361 337.346 51.0811C337.346 49.0687 337.847 47.5146 338.85 46.4189C339.859 45.3161 341.252 44.7646 343.028 44.7646C344.726 44.7646 346.047 45.248 346.992 46.2148C347.938 47.1816 348.41 48.5173 348.41 50.2217V51.8115H340.665C340.701 52.7425 340.977 53.4694 341.492 53.9922C342.008 54.515 342.731 54.7764 343.662 54.7764C344.385 54.7764 345.069 54.7012 345.714 54.5508C346.358 54.4004 347.032 54.1605 347.733 53.8311V56.3662C347.16 56.6527 346.548 56.8639 345.896 57C345.245 57.1432 344.45 57.2148 343.512 57.2148ZM357.963 47.4502H355.127V57H351.851V47.4502H350.046V45.8711L351.851 44.9902V44.1094C351.851 42.7415 352.187 41.7425 352.86 41.1123C353.534 40.4821 354.611 40.167 356.094 40.167C357.225 40.167 358.231 40.3353 359.112 40.6719L358.274 43.0781C357.616 42.8704 357.007 42.7666 356.448 42.7666C355.983 42.7666 355.646 42.9062 355.438 43.1855C355.231 43.4577 355.127 43.8086 355.127 44.2383V44.9902H357.963V47.4502ZM367.73 57L367.097 55.3672H367.011C366.459 56.0618 365.89 56.5452 365.303 56.8174C364.723 57.0824 363.964 57.2148 363.025 57.2148C361.872 57.2148 360.963 56.8854 360.297 56.2266C359.638 55.5677 359.309 54.6296 359.309 53.4121C359.309 52.1374 359.753 51.1992 360.641 50.5977C361.536 49.9889 362.882 49.6523 364.68 49.5879L366.764 49.5234V48.9971C366.764 47.7796 366.141 47.1709 364.895 47.1709C363.935 47.1709 362.807 47.4609 361.511 48.041L360.426 45.8281C361.808 45.1048 363.34 44.7432 365.023 44.7432C366.635 44.7432 367.87 45.0941 368.729 45.7959C369.589 46.4977 370.019 47.5648 370.019 48.9971V57H367.73ZM366.764 51.4355L365.496 51.4785C364.544 51.5072 363.835 51.679 363.369 51.9941C362.904 52.3092 362.671 52.7891 362.671 53.4336C362.671 54.3574 363.201 54.8193 364.261 54.8193C365.02 54.8193 365.625 54.6009 366.076 54.1641C366.535 53.7272 366.764 53.1471 366.764 52.4238V51.4355ZM382.16 57L381.72 55.4639H381.548C381.197 56.0225 380.699 56.4557 380.055 56.7637C379.41 57.0645 378.676 57.2148 377.853 57.2148C376.442 57.2148 375.378 56.8389 374.662 56.0869C373.946 55.3278 373.588 54.2393 373.588 52.8213V44.9902H376.864V52.0049C376.864 52.8714 377.018 53.5231 377.326 53.96C377.634 54.3896 378.125 54.6045 378.798 54.6045C379.715 54.6045 380.377 54.3001 380.785 53.6914C381.193 53.0755 381.397 52.0586 381.397 50.6406V44.9902H384.674V57H382.16ZM391.638 57H388.361V40.2852H391.638V57ZM400.396 54.6045C400.968 54.6045 401.656 54.4792 402.458 54.2285V56.667C401.642 57.0322 400.639 57.2148 399.45 57.2148C398.14 57.2148 397.184 56.8854 396.582 56.2266C395.988 55.5605 395.69 54.5651 395.69 53.2402V47.4502H394.122V46.0645L395.927 44.9688L396.872 42.4336H398.967V44.9902H402.329V47.4502H398.967V53.2402C398.967 53.7057 399.096 54.0495 399.354 54.2715C399.618 54.4935 399.966 54.6045 400.396 54.6045Z" fill="#fff"/></g><rect x="429.5" y="20" width="156" height="56" rx="4" fill="#FC0"/><g clip-path="url(#clip1_6784_87321)"><path d="M453.5 35.6665C452.911 35.6665 452.351 35.7836 451.842 35.9949C451.332 36.2065 450.747 35.9644 450.535 35.4543C450.324 34.9441 450.566 34.359 451.076 34.1475C451.824 33.8372 452.643 33.6665 453.5 33.6665H455.5C456.053 33.6665 456.5 34.1142 456.5 34.6665C456.5 35.2188 456.053 35.6665 455.5 35.6665H453.5Z" fill="#000"/><path d="M458.5 34.6665C458.5 34.1142 458.948 33.6665 459.5 33.6665H463.5C464.053 33.6665 464.5 34.1142 464.5 34.6665C464.5 35.2188 464.053 35.6665 463.5 35.6665H459.5C458.948 35.6665 458.5 35.2188 458.5 34.6665Z" fill="#000"/><path d="M466.5 34.6665C466.5 34.1142 466.948 33.6665 467.5 33.6665H469.5C470.357 33.6665 471.177 33.8372 471.925 34.1475C472.435 34.359 472.677 34.9441 472.466 35.4543C472.254 35.9644 471.669 36.2065 471.159 35.9949C470.649 35.7836 470.09 35.6665 469.5 35.6665H467.5C466.948 35.6665 466.5 35.2188 466.5 34.6665Z" fill="#000"/><path d="M448.955 37.0346C449.465 37.2461 449.707 37.8312 449.495 38.3414C449.284 38.8509 449.167 39.4104 449.167 39.9998V41.9998C449.167 42.5521 448.719 42.9998 448.167 42.9998C447.615 42.9998 447.167 42.5521 447.167 41.9998V39.9998C447.167 39.1429 447.338 38.3234 447.648 37.5752C447.86 37.0651 448.445 36.823 448.955 37.0346Z" fill="#000"/><path d="M474.046 37.0346C474.556 36.823 475.141 37.0651 475.353 37.5752C475.663 38.3234 475.834 39.1429 475.834 39.9998V41.9998C475.834 42.5521 475.386 42.9998 474.834 42.9998C474.281 42.9998 473.834 42.5521 473.834 41.9998V39.9998C473.834 39.4104 473.717 38.8509 473.505 38.3414C473.294 37.8312 473.536 37.2461 474.046 37.0346Z" fill="#000"/><path d="M448.167 44.9998C448.719 44.9998 449.167 45.4476 449.167 45.9998V49.9998C449.167 50.5521 448.719 50.9998 448.167 50.9998C447.615 50.9998 447.167 50.5521 447.167 49.9998V45.9998C447.167 45.4476 447.615 44.9998 448.167 44.9998Z" fill="#000"/><path d="M474.834 44.9998C475.386 44.9998 475.834 45.4476 475.834 45.9998V49.9998C475.834 50.5521 475.386 50.9998 474.834 50.9998C474.281 50.9998 473.834 50.5521 473.834 49.9998V45.9998C473.834 45.4476 474.281 44.9998 474.834 44.9998Z" fill="#000"/><path d="M448.167 52.9998C448.719 52.9998 449.167 53.4476 449.167 53.9998V55.9998C449.167 56.5892 449.284 57.1488 449.495 57.6583C449.707 58.1685 449.465 58.7535 448.955 58.9651C448.445 59.1767 447.86 58.9346 447.648 58.4244C447.338 57.6763 447.167 56.8567 447.167 55.9998V53.9998C447.167 53.4476 447.615 52.9998 448.167 52.9998Z" fill="#000"/><path d="M474.834 52.9998C475.386 52.9998 475.834 53.4476 475.834 53.9998V55.9998C475.834 56.8567 475.663 57.6763 475.353 58.4244C475.141 58.9346 474.556 59.1767 474.046 58.9651C473.536 58.7535 473.294 58.1685 473.505 57.6583C473.717 57.1488 473.834 56.5892 473.834 55.9998V53.9998C473.834 53.4476 474.281 52.9998 474.834 52.9998Z" fill="#000"/><path d="M450.535 60.5454C450.747 60.0353 451.332 59.7932 451.842 60.0047C452.351 60.216 452.911 60.3332 453.5 60.3332H455.5C456.053 60.3332 456.5 60.7809 456.5 61.3332C456.5 61.8855 456.053 62.3332 455.5 62.3332H453.5C452.643 62.3332 451.824 62.1624 451.076 61.8522C450.566 61.6406 450.324 61.0556 450.535 60.5454Z" fill="#000"/><path d="M472.466 60.5454C472.677 61.0556 472.435 61.6406 471.925 61.8522C471.177 62.1624 470.357 62.3332 469.5 62.3332H467.5C466.948 62.3332 466.5 61.8855 466.5 61.3332C466.5 60.7809 466.948 60.3332 467.5 60.3332H469.5C470.09 60.3332 470.649 60.216 471.159 60.0047C471.669 59.7932 472.254 60.0353 472.466 60.5454Z" fill="#000"/><path d="M458.5 61.3332C458.5 60.7809 458.948 60.3332 459.5 60.3332H463.5C464.053 60.3332 464.5 60.7809 464.5 61.3332C464.5 61.8855 464.053 62.3332 463.5 62.3332H459.5C458.948 62.3332 458.5 61.8855 458.5 61.3332Z" fill="#000"/><path d="M472.874 38.1212C473.265 37.7306 473.265 37.0975 472.874 36.7069C472.484 36.3164 471.85 36.3164 471.46 36.7069L470.132 38.0352C469.741 38.4257 469.741 39.0589 470.132 39.4494C470.522 39.84 471.155 39.84 471.546 39.4494L472.874 38.1212Z" fill="#000"/><path d="M468.889 42.106C469.28 41.7155 469.28 41.0823 468.889 40.6918C468.499 40.3013 467.866 40.3013 467.475 40.6918L464.818 43.3483C464.428 43.7389 464.428 44.372 464.818 44.7625C465.209 45.1531 465.842 45.1531 466.233 44.7625L468.889 42.106Z" fill="#000"/><path d="M463.576 47.4191C463.967 47.0286 463.967 46.3954 463.576 46.0049C463.186 45.6144 462.552 45.6144 462.162 46.0049L461.5 46.6665L460.839 46.0049C460.448 45.6144 459.815 45.6144 459.424 46.0049C459.034 46.3954 459.034 47.0286 459.424 47.4191L460.086 48.0807L459.505 48.6614C459.115 49.052 459.115 49.6851 459.505 50.0757C459.896 50.4662 460.529 50.4662 460.92 50.0757L461.5 49.4949L462.081 50.0757C462.472 50.4662 463.105 50.4662 463.495 50.0757C463.886 49.6851 463.886 49.052 463.495 48.6614L462.915 48.0807L463.576 47.4191Z" fill="#000"/><path d="M458.263 52.7322C458.654 52.3417 458.654 51.7085 458.263 51.318C457.873 50.9275 457.239 50.9275 456.849 51.318L454.192 53.9746C453.802 54.3651 453.802 54.9983 454.192 55.3888C454.583 55.7793 455.216 55.7793 455.606 55.3888L458.263 52.7322Z" fill="#000"/><path d="M452.95 58.0453C453.34 57.6548 453.34 57.0216 452.95 56.6311C452.559 56.2406 451.926 56.2406 451.536 56.6311L450.207 57.9594C449.817 58.3499 449.817 58.9831 450.207 59.3736C450.598 59.7641 451.231 59.7641 451.622 59.3736L452.95 58.0453Z" fill="#000"/><path d="M471.379 59.3736C471.77 59.7641 472.403 59.7641 472.793 59.3736C473.184 58.9831 473.184 58.3499 472.793 57.9594L471.465 56.6311C471.074 56.2406 470.441 56.2406 470.051 56.6311C469.66 57.0216 469.66 57.6548 470.051 58.0453L471.379 59.3736Z" fill="#000"/><path d="M467.394 55.3888C467.785 55.7793 468.418 55.7793 468.808 55.3888C469.199 54.9983 469.199 54.3651 468.808 53.9746L466.152 51.318C465.761 50.9275 465.128 50.9275 464.738 51.318C464.347 51.7085 464.347 52.3417 464.738 52.7322L467.394 55.3888Z" fill="#000"/><path d="M456.768 44.7625C457.158 45.1531 457.792 45.1531 458.182 44.7625C458.573 44.372 458.573 43.7389 458.182 43.3483L455.526 40.6918C455.135 40.3013 454.502 40.3013 454.111 40.6918C453.721 41.0823 453.721 41.7155 454.111 42.106L456.768 44.7625Z" fill="#000"/><path d="M451.455 39.4494C451.845 39.84 452.479 39.84 452.869 39.4494C453.26 39.0589 453.26 38.4257 452.869 38.0352L451.541 36.7069C451.15 36.3164 450.517 36.3164 450.127 36.7069C449.736 37.0975 449.736 37.7306 450.127 38.1212L451.455 39.4494Z" fill="#000"/><path d="M457.575 41.1852C457.972 41.0649 458.394 40.9998 458.834 40.9998H459.834C460.386 40.9998 460.834 40.5521 460.834 39.9998C460.834 39.4476 460.386 38.9998 459.834 38.9998H458.834C458.196 38.9998 457.578 39.0945 456.995 39.2711C456.466 39.4313 456.168 39.9896 456.328 40.5181C456.488 41.0467 457.046 41.3454 457.575 41.1852Z" fill="#000"/><path d="M463.167 38.9998C462.615 38.9998 462.167 39.4476 462.167 39.9998C462.167 40.5521 462.615 40.9998 463.167 40.9998H464.167C464.606 40.9998 465.029 41.0649 465.426 41.1852C465.954 41.3454 466.513 41.0467 466.673 40.5181C466.833 39.9896 466.534 39.4313 466.006 39.2711C465.423 39.0945 464.805 38.9998 464.167 38.9998H463.167Z" fill="#000"/><path d="M454.686 44.0744C454.846 43.5459 454.547 42.9876 454.019 42.8274C453.49 42.6673 452.932 42.9659 452.772 43.4945C452.595 44.0776 452.5 44.6952 452.5 45.3332V46.3332C452.5 46.8855 452.948 47.3332 453.5 47.3332C454.053 47.3332 454.5 46.8855 454.5 46.3332V45.3332C454.5 44.8939 454.565 44.4716 454.686 44.0744Z" fill="#000"/><path d="M470.229 43.4945C470.069 42.9659 469.511 42.6673 468.982 42.8274C468.453 42.9876 468.155 43.5459 468.315 44.0744C468.435 44.4716 468.5 44.8939 468.5 45.3332V46.3332C468.5 46.8855 468.948 47.3332 469.5 47.3332C470.053 47.3332 470.5 46.8855 470.5 46.3332V45.3332C470.5 44.6952 470.406 44.0776 470.229 43.4945Z" fill="#000"/><path d="M454.5 49.6665C454.5 49.1142 454.053 48.6665 453.5 48.6665C452.948 48.6665 452.5 49.1142 452.5 49.6665V50.6665C452.5 51.3044 452.595 51.9221 452.772 52.5052C452.932 53.0337 453.49 53.3324 454.019 53.1723C454.547 53.0121 454.846 52.4538 454.686 51.9253C454.565 51.5281 454.5 51.1058 454.5 50.6665V49.6665Z" fill="#000"/><path d="M470.5 49.6665C470.5 49.1142 470.053 48.6665 469.5 48.6665C468.948 48.6665 468.5 49.1142 468.5 49.6665V50.6665C468.5 51.1058 468.435 51.5281 468.315 51.9253C468.155 52.4538 468.453 53.0121 468.982 53.1723C469.511 53.3324 470.069 53.0337 470.229 52.5052C470.406 51.9221 470.5 51.3044 470.5 50.6665V49.6665Z" fill="#000"/><path d="M457.575 54.8145C457.046 54.6543 456.488 54.953 456.328 55.4815C456.168 56.0101 456.466 56.5684 456.995 56.7285C457.578 56.9052 458.196 56.9998 458.834 56.9998H459.834C460.386 56.9998 460.834 56.5521 460.834 55.9998C460.834 55.4476 460.386 54.9998 459.834 54.9998H458.834C458.394 54.9998 457.972 54.9348 457.575 54.8145Z" fill="#000"/><path d="M466.006 56.7285C466.534 56.5684 466.833 56.0101 466.673 55.4815C466.513 54.953 465.954 54.6543 465.426 54.8145C465.029 54.9348 464.606 54.9998 464.167 54.9998H463.167C462.615 54.9998 462.167 55.4476 462.167 55.9998C462.167 56.5521 462.615 56.9998 463.167 56.9998H464.167C464.805 56.9998 465.423 56.9052 466.006 56.7285Z" fill="#000"/><path d="M500.829 48.9971C500.829 51.5824 500.091 53.5625 498.616 54.9375C497.148 56.3125 495.025 57 492.246 57H487.799V41.2949H492.729C495.293 41.2949 497.284 41.9717 498.702 43.3252C500.12 44.6787 500.829 46.5693 500.829 48.9971ZM497.37 49.083C497.37 45.71 495.881 44.0234 492.901 44.0234H491.129V54.25H492.558C495.766 54.25 497.37 52.5277 497.37 49.083ZM509.05 47.0957C508.355 47.0957 507.811 47.3177 507.417 47.7617C507.023 48.1986 506.798 48.8216 506.74 49.6309H511.338C511.324 48.8216 511.112 48.1986 510.704 47.7617C510.296 47.3177 509.744 47.0957 509.05 47.0957ZM509.512 57.2148C507.578 57.2148 506.067 56.6813 504.979 55.6143C503.89 54.5472 503.346 53.0361 503.346 51.0811C503.346 49.0687 503.847 47.5146 504.85 46.4189C505.859 45.3161 507.252 44.7646 509.028 44.7646C510.726 44.7646 512.047 45.248 512.992 46.2148C513.938 47.1816 514.41 48.5173 514.41 50.2217V51.8115H506.665C506.701 52.7425 506.977 53.4694 507.492 53.9922C508.008 54.515 508.731 54.7764 509.662 54.7764C510.385 54.7764 511.069 54.7012 511.714 54.5508C512.358 54.4004 513.032 54.1605 513.733 53.8311V56.3662C513.16 56.6527 512.548 56.8639 511.896 57C511.245 57.1432 510.45 57.2148 509.512 57.2148ZM523.963 47.4502H521.127V57H517.851V47.4502H516.046V45.8711L517.851 44.9902V44.1094C517.851 42.7415 518.187 41.7425 518.86 41.1123C519.534 40.4821 520.611 40.167 522.094 40.167C523.225 40.167 524.231 40.3353 525.112 40.6719L524.274 43.0781C523.616 42.8704 523.007 42.7666 522.448 42.7666C521.983 42.7666 521.646 42.9062 521.438 43.1855C521.231 43.4577 521.127 43.8086 521.127 44.2383V44.9902H523.963V47.4502ZM533.73 57L533.097 55.3672H533.011C532.459 56.0618 531.89 56.5452 531.303 56.8174C530.723 57.0824 529.964 57.2148 529.025 57.2148C527.872 57.2148 526.963 56.8854 526.297 56.2266C525.638 55.5677 525.309 54.6296 525.309 53.4121C525.309 52.1374 525.753 51.1992 526.641 50.5977C527.536 49.9889 528.882 49.6523 530.68 49.5879L532.764 49.5234V48.9971C532.764 47.7796 532.141 47.1709 530.895 47.1709C529.935 47.1709 528.807 47.4609 527.511 48.041L526.426 45.8281C527.808 45.1048 529.34 44.7432 531.023 44.7432C532.635 44.7432 533.87 45.0941 534.729 45.7959C535.589 46.4977 536.019 47.5648 536.019 48.9971V57H533.73ZM532.764 51.4355L531.496 51.4785C530.544 51.5072 529.835 51.679 529.369 51.9941C528.904 52.3092 528.671 52.7891 528.671 53.4336C528.671 54.3574 529.201 54.8193 530.261 54.8193C531.02 54.8193 531.625 54.6009 532.076 54.1641C532.535 53.7272 532.764 53.1471 532.764 52.4238V51.4355ZM548.16 57L547.72 55.4639H547.548C547.197 56.0225 546.699 56.4557 546.055 56.7637C545.41 57.0645 544.676 57.2148 543.853 57.2148C542.442 57.2148 541.378 56.8389 540.662 56.0869C539.946 55.3278 539.588 54.2393 539.588 52.8213V44.9902H542.864V52.0049C542.864 52.8714 543.018 53.5231 543.326 53.96C543.634 54.3896 544.125 54.6045 544.798 54.6045C545.715 54.6045 546.377 54.3001 546.785 53.6914C547.193 53.0755 547.397 52.0586 547.397 50.6406V44.9902H550.674V57H548.16ZM557.638 57H554.361V40.2852H557.638V57ZM566.396 54.6045C566.968 54.6045 567.656 54.4792 568.458 54.2285V56.667C567.642 57.0322 566.639 57.2148 565.45 57.2148C564.14 57.2148 563.184 56.8854 562.582 56.2266C561.988 55.5605 561.69 54.5651 561.69 53.2402V47.4502H560.122V46.0645L561.927 44.9688L562.872 42.4336H564.967V44.9902H568.329V47.4502H564.967V53.2402C564.967 53.7057 565.096 54.0495 565.354 54.2715C565.618 54.4935 565.966 54.6045 566.396 54.6045Z" fill="#000"/></g><defs><clipPath id="clip0_6784_87321"><rect width="124" height="32" fill="#fff" transform="translate(279.5 32)"/></clipPath><clipPath id="clip1_6784_87321"><rect width="124" height="32" fill="#fff" transform="translate(445.5 32)"/></clipPath></defs></svg>