<svg width="187" height="177" viewBox="0 0 187 177" fill="none" xmlns="http://www.w3.org/2000/svg">
<g filter="url(#filter0_ddd_7253_83274)">
<rect x="7.65625" y="7.07007" width="171.688" height="162.312" rx="2" fill="white"/>
<path d="M21.3876 26.7214C20.5865 26.7214 19.9662 27.0235 19.5267 27.6278C19.0872 28.2275 18.8675 29.0652 18.8675 30.141C18.8675 32.3796 19.7075 33.4989 21.3876 33.4989C22.0926 33.4989 22.9464 33.3226 23.9489 32.9701V34.7555C23.1249 35.0988 22.2048 35.2705 21.1885 35.2705C19.7281 35.2705 18.6112 34.8288 17.8375 33.9452C17.0638 33.0571 16.677 31.7845 16.677 30.1273C16.677 29.0835 16.867 28.1703 17.247 27.3875C17.6269 26.6001 18.1717 25.9981 18.8812 25.5815C19.5954 25.1603 20.4308 24.9497 21.3876 24.9497C22.3627 24.9497 23.3424 25.1855 24.3266 25.657L23.6399 27.3875C23.2645 27.2089 22.8869 27.0533 22.5069 26.9205C22.1269 26.7878 21.7538 26.7214 21.3876 26.7214ZM30.8899 35.1332L30.4847 34.0894H30.4298C30.0773 34.5335 29.7134 34.8425 29.338 35.0164C28.9672 35.1858 28.4819 35.2705 27.8822 35.2705C27.1452 35.2705 26.5638 35.0599 26.1381 34.6388C25.7169 34.2176 25.5063 33.6179 25.5063 32.8397C25.5063 32.0248 25.7901 31.4251 26.3578 31.0406C26.93 30.6515 27.7907 30.4363 28.9397 30.3951L30.2719 30.3539V30.0174C30.2719 29.2392 29.8736 28.8501 29.077 28.8501C28.4636 28.8501 27.7426 29.0355 26.914 29.4063L26.2205 27.9917C27.104 27.5294 28.0836 27.2982 29.1594 27.2982C30.1895 27.2982 30.9791 27.5225 31.5285 27.9711C32.0778 28.4198 32.3525 29.1019 32.3525 30.0174V35.1332H30.8899ZM30.2719 31.5762L29.4616 31.6037C28.8527 31.622 28.3995 31.7318 28.102 31.9333C27.8044 32.1347 27.6556 32.4414 27.6556 32.8534C27.6556 33.444 27.9944 33.7392 28.6719 33.7392C29.1571 33.7392 29.544 33.5996 29.8324 33.3203C30.1254 33.0411 30.2719 32.6703 30.2719 32.2079V31.5762ZM38.8883 27.3119C39.1721 27.3119 39.4079 27.3325 39.5956 27.3737L39.4376 29.3376C39.2682 29.2918 39.0622 29.269 38.8196 29.269C38.1513 29.269 37.6294 29.4406 37.254 29.784C36.8832 30.1273 36.6978 30.608 36.6978 31.226V35.1332H34.6034V27.4561H36.1896L36.4986 28.7471H36.6016C36.8397 28.3168 37.1601 27.9711 37.563 27.7102C37.9704 27.4447 38.4122 27.3119 38.8883 27.3119ZM43.5083 35.2705C42.6064 35.2705 41.8968 34.9203 41.3796 34.2199C40.8668 33.5195 40.6105 32.549 40.6105 31.3084C40.6105 30.0495 40.8714 29.0698 41.3933 28.3694C41.9197 27.6644 42.643 27.3119 43.5632 27.3119C44.5291 27.3119 45.2661 27.6873 45.7743 28.4381H45.843C45.7377 27.8658 45.685 27.3554 45.685 26.9068V24.4485H47.7863V35.1332H46.1794L45.7743 34.1375H45.685C45.2089 34.8928 44.4833 35.2705 43.5083 35.2705ZM44.243 33.6019C44.7786 33.6019 45.17 33.4462 45.4172 33.1349C45.669 32.8237 45.8063 32.2949 45.8292 31.5487V31.3221C45.8292 30.4981 45.701 29.9076 45.4447 29.5505C45.1929 29.1934 44.7809 29.0149 44.2087 29.0149C43.7417 29.0149 43.3778 29.214 43.1168 29.6123C42.8605 30.006 42.7323 30.5805 42.7323 31.3359C42.7323 32.0912 42.8628 32.6589 43.1237 33.0388C43.3847 33.4142 43.7577 33.6019 44.243 33.6019ZM57.8433 35.1332H55.7146V26.8656H52.9885V25.094H60.5694V26.8656H57.8433V35.1332ZM61.9483 25.4716C61.9483 24.7895 62.3283 24.4485 63.0882 24.4485C63.8481 24.4485 64.2281 24.7895 64.2281 25.4716C64.2281 25.7967 64.1319 26.0507 63.9397 26.2338C63.752 26.4124 63.4681 26.5016 63.0882 26.5016C62.3283 26.5016 61.9483 26.1583 61.9483 25.4716ZM64.1319 35.1332H62.0376V27.4561H64.1319V35.1332ZM69.6583 33.6019C70.0245 33.6019 70.464 33.5218 70.9767 33.3616V34.9203C70.4549 35.1538 69.814 35.2705 69.054 35.2705C68.2163 35.2705 67.6051 35.0599 67.2206 34.6388C66.8406 34.213 66.6507 33.5767 66.6507 32.7298V29.0286H65.6481V28.1428L66.8017 27.4424L67.406 25.8218H68.745V27.4561H70.8943V29.0286H68.745V32.7298C68.745 33.0274 68.8274 33.2471 68.9922 33.389C69.1616 33.5309 69.3836 33.6019 69.6583 33.6019ZM74.7178 35.1332H72.6234V24.4485H74.7178V35.1332ZM80.1892 28.802C79.7451 28.802 79.3972 28.9439 79.1454 29.2278C78.8937 29.507 78.7495 29.9053 78.7128 30.4226H81.6518C81.6427 29.9053 81.5076 29.507 81.2467 29.2278C80.9857 28.9439 80.6333 28.802 80.1892 28.802ZM80.4845 35.2705C79.2485 35.2705 78.2825 34.9295 77.5867 34.2474C76.8909 33.5653 76.5429 32.5993 76.5429 31.3496C76.5429 30.0632 76.8634 29.0698 77.5043 28.3694C78.1498 27.6644 79.0402 27.3119 80.1755 27.3119C81.2604 27.3119 82.105 27.6209 82.7093 28.2389C83.3136 28.8569 83.6157 29.7107 83.6157 30.8002V31.8165H78.6648C78.6877 32.4116 78.8639 32.8763 79.1935 33.2105C79.5231 33.5447 79.9855 33.7118 80.5806 33.7118C81.043 33.7118 81.4802 33.6637 81.8922 33.5676C82.3042 33.4714 82.7345 33.3181 83.1831 33.1075V34.728C82.8169 34.9112 82.4255 35.0462 82.0089 35.1332C81.5923 35.2247 81.0842 35.2705 80.4845 35.2705Z" fill="#252A2E"/>
<path d="M21.731 49.9072C21.731 50.6435 21.4639 51.2176 20.9298 51.6296C20.3958 52.0416 19.6709 52.2476 18.7554 52.2476C17.7635 52.2476 17.0005 52.1198 16.4664 51.8642V50.9258C16.8098 51.0707 17.1836 51.1852 17.588 51.2691C17.9924 51.353 18.3929 51.395 18.7897 51.395C19.4382 51.395 19.9265 51.2729 20.2546 51.0288C20.5827 50.7808 20.7467 50.4375 20.7467 49.9988C20.7467 49.7088 20.6876 49.4723 20.5693 49.2892C20.4549 49.1023 20.2603 48.9306 19.9857 48.7742C19.7148 48.6178 19.3009 48.4404 18.7439 48.242C17.9657 47.9635 17.4087 47.6335 17.073 47.252C16.7411 46.8706 16.5752 46.3727 16.5752 45.7585C16.5752 45.1138 16.8174 44.6007 17.3019 44.2192C17.7864 43.8377 18.4273 43.647 19.2246 43.647C20.0562 43.647 20.8211 43.7996 21.5192 44.1048L21.2159 44.9517C20.5255 44.6617 19.854 44.5168 19.2017 44.5168C18.6867 44.5168 18.2842 44.6274 17.9943 44.8487C17.7044 45.0699 17.5594 45.377 17.5594 45.77C17.5594 46.0599 17.6128 46.2983 17.7196 46.4853C17.8264 46.6684 18.0057 46.8381 18.2575 46.9945C18.5131 47.1471 18.9022 47.3169 19.4249 47.5038C20.3023 47.8166 20.905 48.1524 21.2331 48.511C21.565 48.8696 21.731 49.335 21.731 49.9072ZM24.2794 45.8615V49.9301C24.2794 50.4413 24.3958 50.8228 24.6285 51.0746C24.8612 51.3263 25.2255 51.4522 25.7215 51.4522C26.3776 51.4522 26.8564 51.2729 27.1578 50.9143C27.463 50.5557 27.6156 49.9701 27.6156 49.1576V45.8615H28.5655V52.1332H27.7815L27.6442 51.292H27.5927C27.3981 51.601 27.1273 51.8375 26.7801 52.0016C26.4368 52.1656 26.0438 52.2476 25.6013 52.2476C24.8383 52.2476 24.2661 52.0664 23.8846 51.704C23.5069 51.3416 23.3181 50.7617 23.3181 49.9644V45.8615H24.2794ZM33.5917 45.7585C34.4157 45.7585 35.0547 46.0408 35.5087 46.6054C35.9665 47.1662 36.1954 47.9616 36.1954 48.9916C36.1954 50.0216 35.9646 50.8228 35.503 51.395C35.0452 51.9634 34.4081 52.2476 33.5917 52.2476C33.1835 52.2476 32.8097 52.1732 32.4701 52.0245C32.1344 51.8719 31.8521 51.6392 31.6232 51.3263H31.5546L31.3543 52.1332H30.6733V43.2293H31.6232V45.3923C31.6232 45.8768 31.608 46.3117 31.5775 46.697H31.6232C32.0658 46.0713 32.7219 45.7585 33.5917 45.7585ZM33.4544 46.5539C32.8058 46.5539 32.3385 46.7409 32.0524 47.1147C31.7663 47.4848 31.6232 48.1104 31.6232 48.9916C31.6232 49.8729 31.7701 50.5042 32.0639 50.8857C32.3576 51.2634 32.8287 51.4522 33.4773 51.4522C34.0609 51.4522 34.4958 51.2405 34.782 50.817C35.0681 50.3898 35.2111 49.7775 35.2111 48.9802C35.2111 48.1638 35.0681 47.5553 34.782 47.1548C34.4958 46.7542 34.0533 46.5539 33.4544 46.5539ZM37.422 49.4265V48.5567H40.2317V49.4265H37.422ZM43.8388 51.4637C44.0066 51.4637 44.1688 51.4522 44.3252 51.4293C44.4816 51.4026 44.6056 51.3759 44.6971 51.3492V52.076C44.5941 52.1255 44.4415 52.1656 44.2393 52.1961C44.041 52.2305 43.8617 52.2476 43.7014 52.2476C42.4883 52.2476 41.8817 51.6086 41.8817 50.3306V46.5997H40.9833V46.1419L41.8817 45.7471L42.2823 44.4081H42.8316V45.8615H44.6513V46.5997H42.8316V50.2906C42.8316 50.6683 42.9213 50.9582 43.1006 51.1604C43.2799 51.3626 43.526 51.4637 43.8388 51.4637ZM48.6934 52.2476C47.7663 52.2476 47.0339 51.9653 46.496 51.4007C45.9619 50.8361 45.6949 50.0522 45.6949 49.0489C45.6949 48.0379 45.9428 47.2349 46.4388 46.6398C46.9385 46.0446 47.608 45.7471 48.4473 45.7471C49.2332 45.7471 49.855 46.0065 50.3128 46.5253C50.7706 47.0403 50.9994 47.7213 50.9994 48.5682V49.169H46.6791C46.6982 49.9053 46.8832 50.4642 47.2342 50.8457C47.5889 51.2271 48.0868 51.4179 48.7277 51.4179C49.4029 51.4179 50.0705 51.2767 50.7305 50.9944V51.8413C50.3948 51.9863 50.0762 52.0893 49.7749 52.1503C49.4773 52.2152 49.1168 52.2476 48.6934 52.2476ZM48.4359 46.5425C47.9323 46.5425 47.5298 46.7065 47.2284 47.0346C46.9309 47.3627 46.7554 47.8166 46.702 48.3965H49.9809C49.9809 47.7976 49.8474 47.3398 49.5803 47.0232C49.3133 46.7027 48.9318 46.5425 48.4359 46.5425ZM54.2232 48.923L52.043 45.8615H53.1245L54.7782 48.2649L56.4263 45.8615H57.4963L55.3161 48.923L57.6108 52.1332H56.535L54.7782 49.5925L53.0043 52.1332H51.9285L54.2232 48.923ZM60.9718 51.4637C61.1397 51.4637 61.3018 51.4522 61.4582 51.4293C61.6146 51.4026 61.7386 51.3759 61.8302 51.3492V52.076C61.7272 52.1255 61.5746 52.1656 61.3724 52.1961C61.174 52.2305 60.9947 52.2476 60.8345 52.2476C59.6214 52.2476 59.0148 51.6086 59.0148 50.3306V46.5997H58.1164V46.1419L59.0148 45.7471L59.4154 44.4081H59.9647V45.8615H61.7844V46.5997H59.9647V50.2906C59.9647 50.6683 60.0544 50.9582 60.2337 51.1604C60.413 51.3626 60.659 51.4637 60.9718 51.4637Z" fill="#7D808D"/>
<path d="M22.9028 75.8546C22.9028 76.5909 22.6358 77.1651 22.1017 77.5771C21.5676 77.9891 20.8428 78.1951 19.9272 78.1951C18.9354 78.1951 18.1724 78.0673 17.6383 77.8117V76.8732C17.9816 77.0182 18.3555 77.1326 18.7599 77.2166C19.1643 77.3005 19.5648 77.3424 19.9616 77.3424C20.6101 77.3424 21.0984 77.2204 21.4265 76.9762C21.7546 76.7283 21.9186 76.3849 21.9186 75.9462C21.9186 75.6563 21.8595 75.4198 21.7412 75.2366C21.6268 75.0497 21.4322 74.878 21.1575 74.7216C20.8867 74.5652 20.4728 74.3878 19.9158 74.1895C19.1375 73.911 18.5806 73.581 18.2449 73.1995C17.913 72.818 17.747 72.3202 17.747 71.706C17.747 71.0613 17.9893 70.5482 18.4738 70.1667C18.9583 69.7852 19.5991 69.5944 20.3965 69.5944C21.2281 69.5944 21.993 69.747 22.6911 70.0522L22.3878 70.8991C21.6973 70.6092 21.0259 70.4642 20.3736 70.4642C19.8586 70.4642 19.4561 70.5749 19.1662 70.7961C18.8762 71.0174 18.7313 71.3245 18.7313 71.7174C18.7313 72.0073 18.7847 72.2458 18.8915 72.4327C18.9983 72.6158 19.1776 72.7856 19.4294 72.942C19.685 73.0946 20.0741 73.2643 20.5967 73.4513C21.4742 73.7641 22.0769 74.0998 22.405 74.4584C22.7369 74.817 22.9028 75.2824 22.9028 75.8546ZM29.9719 74.9391C29.9719 75.9615 29.7144 76.7607 29.1994 77.3367C28.6844 77.909 27.973 78.1951 27.065 78.1951C26.5042 78.1951 26.0064 78.0635 25.5715 77.8002C25.1366 77.537 24.8009 77.1593 24.5644 76.6672C24.3278 76.1751 24.2096 75.5991 24.2096 74.9391C24.2096 73.9167 24.4652 73.1213 24.9764 72.5529C25.4876 71.9806 26.1971 71.6945 27.1051 71.6945C27.9825 71.6945 28.6787 71.9864 29.1937 72.57C29.7125 73.1537 29.9719 73.9434 29.9719 74.9391ZM25.1938 74.9391C25.1938 75.7402 25.354 76.3506 25.6745 76.7702C25.9949 77.1899 26.4661 77.3997 27.0879 77.3997C27.7097 77.3997 28.1809 77.1918 28.5013 76.7759C28.8256 76.3563 28.9877 75.744 28.9877 74.9391C28.9877 74.1418 28.8256 73.5371 28.5013 73.1251C28.1809 72.7093 27.7059 72.5014 27.0765 72.5014C26.4546 72.5014 25.9854 72.7055 25.6688 73.1137C25.3521 73.5219 25.1938 74.1303 25.1938 74.9391ZM39.7248 78.0806V74.0006C39.7248 73.5009 39.618 73.127 39.4044 72.879C39.1907 72.6273 38.8589 72.5014 38.4087 72.5014C37.8174 72.5014 37.3806 72.6711 37.0983 73.0107C36.816 73.3502 36.6748 73.8728 36.6748 74.5786V78.0806H35.7249V74.0006C35.7249 73.5009 35.6181 73.127 35.4045 72.879C35.1909 72.6273 34.8571 72.5014 34.4031 72.5014C33.808 72.5014 33.3712 72.6807 33.0927 73.0393C32.818 73.3941 32.6807 73.9777 32.6807 74.7903V78.0806H31.7308V71.809H32.5033L32.6578 72.6673H32.7036C32.8829 72.3621 33.1346 72.1237 33.4589 71.952C33.787 71.7804 34.1532 71.6945 34.5576 71.6945C35.538 71.6945 36.1789 72.0493 36.4803 72.7589H36.5261C36.713 72.4308 36.9838 72.1714 37.3386 71.9806C37.6934 71.7899 38.0978 71.6945 38.5518 71.6945C39.2613 71.6945 39.7916 71.8776 40.1426 72.2439C40.4973 72.6063 40.6747 73.188 40.6747 73.9892V78.0806H39.7248ZM45.3748 78.1951C44.4478 78.1951 43.7153 77.9128 43.1774 77.3482C42.6434 76.7836 42.3763 75.9996 42.3763 74.9963C42.3763 73.9854 42.6243 73.1823 43.1202 72.5872C43.62 71.9921 44.2895 71.6945 45.1288 71.6945C45.9146 71.6945 46.5364 71.9539 46.9942 72.4728C47.452 72.9878 47.6809 73.6687 47.6809 74.5156V75.1165H43.3606C43.3796 75.8527 43.5647 76.4116 43.9156 76.7931C44.2704 77.1746 44.7682 77.3653 45.4091 77.3653C46.0844 77.3653 46.752 77.2242 47.412 76.9419V77.7888C47.0762 77.9338 46.7577 78.0368 46.4563 78.0978C46.1588 78.1626 45.7983 78.1951 45.3748 78.1951ZM45.1173 72.4899C44.6137 72.4899 44.2113 72.654 43.9099 72.982C43.6123 73.3101 43.4369 73.7641 43.3834 74.344H46.6623C46.6623 73.745 46.5288 73.2872 46.2618 72.9706C45.9947 72.6502 45.6132 72.4899 45.1173 72.4899ZM54.8951 77.3997C55.5284 77.3997 55.99 77.2299 56.2799 76.8904C56.5699 76.5509 56.7244 75.9786 56.7435 75.1737V74.962C56.7435 74.0845 56.5947 73.4532 56.2971 73.0679C55.9995 72.6826 55.5284 72.4899 54.8837 72.4899C54.3267 72.4899 53.8995 72.7074 53.6019 73.1423C53.3082 73.5734 53.1613 74.1837 53.1613 74.9734C53.1613 75.7631 53.3062 76.3658 53.5962 76.7817C53.8899 77.1937 54.3229 77.3997 54.8951 77.3997ZM54.7521 78.1951C53.9433 78.1951 53.312 77.9109 52.858 77.3424C52.404 76.774 52.177 75.9805 52.177 74.962C52.177 73.9358 52.4059 73.1346 52.8637 72.5586C53.3215 71.9825 53.9586 71.6945 54.775 71.6945C55.6333 71.6945 56.2933 72.0188 56.7549 72.6673H56.8064L56.9437 71.809H57.6934V80.896H56.7435V78.2122C56.7435 77.8308 56.7644 77.5065 56.8064 77.2394H56.732C56.2933 77.8765 55.6333 78.1951 54.7521 78.1951ZM60.6939 71.809V75.8775C60.6939 76.3887 60.8103 76.7702 61.043 77.022C61.2757 77.2738 61.64 77.3997 62.1359 77.3997C62.7921 77.3997 63.2709 77.2204 63.5722 76.8618C63.8774 76.5032 64.03 75.9176 64.03 75.105V71.809H64.9799V78.0806H64.196L64.0586 77.2394H64.0071C63.8126 77.5485 63.5417 77.785 63.1946 77.949C62.8512 78.1131 62.4583 78.1951 62.0158 78.1951C61.2528 78.1951 60.6806 78.0139 60.2991 77.6515C59.9214 77.289 59.7326 76.7092 59.7326 75.9119V71.809H60.6939ZM68.0377 78.0806H67.0878V71.809H68.0377V78.0806ZM67.0077 70.1094C67.0077 69.892 67.0611 69.7337 67.1679 69.6345C67.2747 69.5315 67.4082 69.48 67.5685 69.48C67.7211 69.48 67.8527 69.5315 67.9633 69.6345C68.0739 69.7375 68.1293 69.8958 68.1293 70.1094C68.1293 70.3231 68.0739 70.4833 67.9633 70.5901C67.8527 70.6931 67.7211 70.7446 67.5685 70.7446C67.4082 70.7446 67.2747 70.6931 67.1679 70.5901C67.0611 70.4833 67.0077 70.3231 67.0077 70.1094ZM72.6462 78.1951C71.7383 78.1951 71.0344 77.9166 70.5347 77.3596C70.0388 76.7988 69.7908 76.0072 69.7908 74.9849C69.7908 73.9358 70.0426 73.1251 70.5461 72.5529C71.0535 71.9806 71.7745 71.6945 72.7092 71.6945C73.0105 71.6945 73.3119 71.727 73.6133 71.7918C73.9147 71.8567 74.1512 71.933 74.3229 72.0207L74.031 72.8275C73.8212 72.7436 73.5923 72.6749 73.3443 72.6215C73.0964 72.5643 72.877 72.5357 72.6863 72.5357C71.4121 72.5357 70.775 73.3483 70.775 74.9734C70.775 75.744 70.9295 76.3353 71.2385 76.7473C71.5513 77.1593 72.0129 77.3653 72.6233 77.3653C73.146 77.3653 73.682 77.2528 74.2313 77.0277V77.8689C73.8117 78.0863 73.2833 78.1951 72.6462 78.1951ZM76.7512 74.8704C76.9152 74.6377 77.1651 74.3325 77.5008 73.9548L79.5265 71.809H80.6538L78.1131 74.4813L80.8312 78.0806H79.681L77.4665 75.1165L76.7512 75.7345V78.0806H75.8127V69.1767H76.7512V73.8976C76.7512 74.1074 76.7359 74.4317 76.7054 74.8704H76.7512ZM87.8394 78.1951C86.9124 78.1951 86.1799 77.9128 85.6421 77.3482C85.108 76.7836 84.8409 75.9996 84.8409 74.9963C84.8409 73.9854 85.0889 73.1823 85.5848 72.5872C86.0846 71.9921 86.7541 71.6945 87.5934 71.6945C88.3792 71.6945 89.001 71.9539 89.4588 72.4728C89.9166 72.9878 90.1455 73.6687 90.1455 74.5156V75.1165H85.8252C85.8442 75.8527 86.0293 76.4116 86.3802 76.7931C86.735 77.1746 87.2329 77.3653 87.8738 77.3653C88.549 77.3653 89.2166 77.2242 89.8766 76.9419V77.7888C89.5409 77.9338 89.2223 78.0368 88.9209 78.0978C88.6234 78.1626 88.2629 78.1951 87.8394 78.1951ZM87.5819 72.4899C87.0784 72.4899 86.6759 72.654 86.3745 72.982C86.0769 73.3101 85.9015 73.7641 85.8481 74.344H89.1269C89.1269 73.745 88.9934 73.2872 88.7264 72.9706C88.4593 72.6502 88.0778 72.4899 87.5819 72.4899ZM93.3692 74.8704L91.189 71.809H92.2706L93.9243 74.2123L95.5723 71.809H96.6424L94.4622 74.8704L96.7568 78.0806H95.6811L93.9243 75.5399L92.1504 78.0806H91.0746L93.3692 74.8704ZM101.949 78.0806L101.76 77.1879H101.714C101.402 77.5809 101.089 77.8479 100.776 77.9891C100.467 78.1264 100.08 78.1951 99.6143 78.1951C98.9925 78.1951 98.5042 78.0348 98.1494 77.7144C97.7985 77.3939 97.623 76.9381 97.623 76.3468C97.623 75.0802 98.6358 74.4164 100.662 74.3554L101.726 74.3211V73.932C101.726 73.4398 101.619 73.0774 101.405 72.8447C101.196 72.6082 100.858 72.4899 100.393 72.4899C99.8699 72.4899 99.2786 72.6502 98.6187 72.9706L98.3268 72.2439C98.6358 72.076 98.9734 71.9444 99.3397 71.849C99.7097 71.7537 100.08 71.706 100.45 71.706C101.198 71.706 101.751 71.8719 102.109 72.2038C102.472 72.5357 102.653 73.0679 102.653 73.8003V78.0806H101.949ZM99.8032 77.4111C100.394 77.4111 100.858 77.249 101.194 76.9247C101.533 76.6005 101.703 76.1465 101.703 75.5628V74.9963L100.753 75.0364C99.9977 75.0631 99.4522 75.1813 99.1165 75.3911C98.7846 75.5971 98.6187 75.9195 98.6187 76.3582C98.6187 76.7015 98.7217 76.9629 98.9277 77.1422C99.1375 77.3215 99.4293 77.4111 99.8032 77.4111ZM112.698 78.0806V74.0006C112.698 73.5009 112.591 73.127 112.377 72.879C112.164 72.6273 111.832 72.5014 111.381 72.5014C110.79 72.5014 110.353 72.6711 110.071 73.0107C109.789 73.3502 109.648 73.8728 109.648 74.5786V78.0806H108.698V74.0006C108.698 73.5009 108.591 73.127 108.377 72.879C108.164 72.6273 107.83 72.5014 107.376 72.5014C106.781 72.5014 106.344 72.6807 106.065 73.0393C105.791 73.3941 105.653 73.9777 105.653 74.7903V78.0806H104.704V71.809H105.476L105.631 72.6673H105.676C105.856 72.3621 106.107 72.1237 106.432 71.952C106.76 71.7804 107.126 71.6945 107.53 71.6945C108.511 71.6945 109.152 72.0493 109.453 72.7589H109.499C109.686 72.4308 109.957 72.1714 110.311 71.9806C110.666 71.7899 111.071 71.6945 111.525 71.6945C112.234 71.6945 112.764 71.8776 113.115 72.2439C113.47 72.6063 113.648 73.188 113.648 73.9892V78.0806H112.698ZM118.617 78.1951C118.208 78.1951 117.834 78.1207 117.495 77.9719C117.159 77.8193 116.877 77.5866 116.648 77.2738H116.579C116.625 77.64 116.648 77.9872 116.648 78.3152V80.896H115.698V71.809H116.471L116.602 72.6673H116.648C116.892 72.324 117.176 72.076 117.501 71.9234C117.825 71.7708 118.197 71.6945 118.617 71.6945C119.448 71.6945 120.089 71.9787 120.539 72.5472C120.993 73.1156 121.22 73.9129 121.22 74.9391C121.22 75.9691 120.989 76.7702 120.528 77.3424C120.07 77.9109 119.433 78.1951 118.617 78.1951ZM118.479 72.5014C117.838 72.5014 117.375 72.6788 117.089 73.0335C116.803 73.3883 116.656 73.9529 116.648 74.7274V74.9391C116.648 75.8203 116.795 76.4517 117.089 76.8332C117.382 77.2108 117.854 77.3997 118.502 77.3997C119.044 77.3997 119.467 77.1803 119.772 76.7416C120.081 76.3029 120.236 75.6982 120.236 74.9276C120.236 74.1456 120.081 73.5466 119.772 73.1308C119.467 72.7112 119.036 72.5014 118.479 72.5014ZM123.923 78.0806H122.973V69.1767H123.923V78.0806ZM128.675 78.1951C127.748 78.1951 127.015 77.9128 126.477 77.3482C125.943 76.7836 125.676 75.9996 125.676 74.9963C125.676 73.9854 125.924 73.1823 126.42 72.5872C126.92 71.9921 127.589 71.6945 128.429 71.6945C129.215 71.6945 129.836 71.9539 130.294 72.4728C130.752 72.9878 130.981 73.6687 130.981 74.5156V75.1165H126.661C126.68 75.8527 126.865 76.4116 127.216 76.7931C127.57 77.1746 128.068 77.3653 128.709 77.3653C129.384 77.3653 130.052 77.2242 130.712 76.9419V77.7888C130.376 77.9338 130.058 78.0368 129.756 78.0978C129.459 78.1626 129.098 78.1951 128.675 78.1951ZM128.417 72.4899C127.914 72.4899 127.511 72.654 127.21 72.982C126.912 73.3101 126.737 73.7641 126.683 74.344H129.962C129.962 73.745 129.829 73.2872 129.562 72.9706C129.295 72.6502 128.913 72.4899 128.417 72.4899ZM137.852 77.4111C138.02 77.4111 138.182 77.3997 138.338 77.3768C138.495 77.3501 138.619 77.3234 138.71 77.2967V78.0234C138.607 78.073 138.455 78.1131 138.252 78.1436C138.054 78.1779 137.875 78.1951 137.714 78.1951C136.501 78.1951 135.895 77.5561 135.895 76.2781V72.5472H134.996V72.0894L135.895 71.6945L136.295 70.3555H136.845V71.809H138.664V72.5472H136.845V76.238C136.845 76.6157 136.934 76.9056 137.114 77.1078C137.293 77.31 137.539 77.4111 137.852 77.4111ZM142.706 78.1951C141.779 78.1951 141.047 77.9128 140.509 77.3482C139.975 76.7836 139.708 75.9996 139.708 74.9963C139.708 73.9854 139.956 73.1823 140.452 72.5872C140.951 71.9921 141.621 71.6945 142.46 71.6945C143.246 71.6945 143.868 71.9539 144.326 72.4728C144.784 72.9878 145.012 73.6687 145.012 74.5156V75.1165H140.692C140.711 75.8527 140.896 76.4116 141.247 76.7931C141.602 77.1746 142.1 77.3653 142.741 77.3653C143.416 77.3653 144.084 77.2242 144.743 76.9419V77.7888C144.408 77.9338 144.089 78.0368 143.788 78.0978C143.49 78.1626 143.13 78.1951 142.706 78.1951ZM142.449 72.4899C141.945 72.4899 141.543 72.654 141.241 72.982C140.944 73.3101 140.768 73.7641 140.715 74.344H143.994C143.994 73.745 143.86 73.2872 143.593 72.9706C143.326 72.6502 142.945 72.4899 142.449 72.4899ZM148.236 74.8704L146.056 71.809H147.137L148.791 74.2123L150.439 71.809H151.509L149.329 74.8704L151.624 78.0806H150.548L148.791 75.5399L147.017 78.0806H145.942L148.236 74.8704ZM154.985 77.4111C155.153 77.4111 155.315 77.3997 155.471 77.3768C155.628 77.3501 155.752 77.3234 155.843 77.2967V78.0234C155.74 78.073 155.588 78.1131 155.385 78.1436C155.187 78.1779 155.008 78.1951 154.847 78.1951C153.634 78.1951 153.028 77.5561 153.028 76.2781V72.5472H152.129V72.0894L153.028 71.6945L153.428 70.3555H153.978V71.809H155.797V72.5472H153.978V76.238C153.978 76.6157 154.067 76.9056 154.247 77.1078C154.426 77.31 154.672 77.4111 154.985 77.4111ZM162.348 77.4111C162.516 77.4111 162.678 77.3997 162.834 77.3768C162.991 77.3501 163.115 77.3234 163.206 77.2967V78.0234C163.103 78.073 162.951 78.1131 162.748 78.1436C162.55 78.1779 162.371 78.1951 162.21 78.1951C160.997 78.1951 160.391 77.5561 160.391 76.2781V72.5472H159.492V72.0894L160.391 71.6945L160.791 70.3555H161.341V71.809H163.16V72.5472H161.341V76.238C161.341 76.6157 161.43 76.9056 161.61 77.1078C161.789 77.31 162.035 77.4111 162.348 77.4111ZM169.966 74.9391C169.966 75.9615 169.709 76.7607 169.194 77.3367C168.679 77.909 167.967 78.1951 167.059 78.1951C166.499 78.1951 166.001 78.0635 165.566 77.8002C165.131 77.537 164.795 77.1593 164.559 76.6672C164.322 76.1751 164.204 75.5991 164.204 74.9391C164.204 73.9167 164.46 73.1213 164.971 72.5529C165.482 71.9806 166.191 71.6945 167.099 71.6945C167.977 71.6945 168.673 71.9864 169.188 72.57C169.707 73.1537 169.966 73.9434 169.966 74.9391ZM165.188 74.9391C165.188 75.7402 165.348 76.3506 165.669 76.7702C165.989 77.1899 166.46 77.3997 167.082 77.3997C167.704 77.3997 168.175 77.1918 168.496 76.7759C168.82 76.3563 168.982 75.744 168.982 74.9391C168.982 74.1418 168.82 73.5371 168.496 73.1251C168.175 72.7093 167.7 72.5014 167.071 72.5014C166.449 72.5014 165.98 72.7055 165.663 73.1137C165.346 73.5219 165.188 74.1303 165.188 74.9391ZM20.9572 87.706C21.7813 87.706 22.4203 87.9883 22.8742 88.5529C23.332 89.1137 23.5609 89.9091 23.5609 90.9391C23.5609 91.9691 23.3301 92.7702 22.8685 93.3424C22.4107 93.9109 21.7736 94.1951 20.9572 94.1951C20.5491 94.1951 20.1752 94.1207 19.8357 93.9719C19.5 93.8193 19.2177 93.5866 18.9888 93.2738H18.9201L18.7198 94.0806H18.0389V85.1767H18.9888V87.3397C18.9888 87.8242 18.9735 88.2591 18.943 88.6444H18.9888C19.4313 88.0188 20.0875 87.706 20.9572 87.706ZM20.8199 88.5014C20.1714 88.5014 19.7041 88.6883 19.4179 89.0622C19.1318 89.4322 18.9888 90.0578 18.9888 90.9391C18.9888 91.8203 19.1356 92.4517 19.4294 92.8332C19.7231 93.2108 20.1943 93.3997 20.8428 93.3997C21.4265 93.3997 21.8614 93.1879 22.1475 92.7645C22.4336 92.3372 22.5767 91.7249 22.5767 90.9276C22.5767 90.1112 22.4336 89.5028 22.1475 89.1022C21.8614 88.7017 21.4188 88.5014 20.8199 88.5014ZM26.2067 87.809V91.8775C26.2067 92.3887 26.323 92.7702 26.5557 93.022C26.7884 93.2738 27.1528 93.3997 27.6487 93.3997C28.3048 93.3997 28.7836 93.2204 29.085 92.8618C29.3902 92.5032 29.5428 91.9176 29.5428 91.105V87.809H30.4927V94.0806H29.7087L29.5714 93.2394H29.5199C29.3253 93.5485 29.0545 93.785 28.7073 93.949C28.364 94.1131 27.971 94.1951 27.5285 94.1951C26.7655 94.1951 26.1933 94.0139 25.8118 93.6515C25.4342 93.289 25.2453 92.7092 25.2453 91.9119V87.809H26.2067ZM33.5505 94.0806H32.6006V87.809H33.5505V94.0806ZM32.5204 86.1094C32.5204 85.892 32.5738 85.7337 32.6807 85.6345C32.7875 85.5315 32.921 85.48 33.0812 85.48C33.2338 85.48 33.3654 85.5315 33.4761 85.6345C33.5867 85.7375 33.642 85.8958 33.642 86.1094C33.642 86.3231 33.5867 86.4833 33.4761 86.5901C33.3654 86.6931 33.2338 86.7446 33.0812 86.7446C32.921 86.7446 32.7875 86.6931 32.6807 86.5901C32.5738 86.4833 32.5204 86.3231 32.5204 86.1094ZM36.6025 94.0806H35.6526V85.1767H36.6025V94.0806ZM42.9735 93.2394H42.922C42.4833 93.8765 41.8271 94.1951 40.9535 94.1951C40.1333 94.1951 39.4943 93.9147 39.0366 93.3539C38.5826 92.7931 38.3556 91.9958 38.3556 90.962C38.3556 89.9281 38.5845 89.1251 39.0423 88.5529C39.5001 87.9806 40.1371 87.6945 40.9535 87.6945C41.8042 87.6945 42.4566 88.0035 42.9106 88.6215H42.9849L42.9449 88.1695L42.922 87.7289V85.1767H43.8719V94.0806H43.0994L42.9735 93.2394ZM41.0737 93.3997C41.7222 93.3997 42.1915 93.2242 42.4814 92.8732C42.7751 92.5184 42.922 91.9481 42.922 91.1622V90.962C42.922 90.0731 42.7732 89.4398 42.4757 89.0622C42.1819 88.6807 41.7108 88.4899 41.0623 88.4899C40.5053 88.4899 40.078 88.7074 39.7805 89.1423C39.4867 89.5734 39.3398 90.1837 39.3398 90.9734C39.3398 91.7745 39.4867 92.3792 39.7805 92.7874C40.0742 93.1956 40.5053 93.3997 41.0737 93.3997ZM54.5253 90.9391C54.5253 91.9615 54.2677 92.7607 53.7527 93.3367C53.2377 93.909 52.5263 94.1951 51.6183 94.1951C51.0575 94.1951 50.5597 94.0635 50.1248 93.8002C49.6899 93.537 49.3542 93.1593 49.1177 92.6672C48.8811 92.1751 48.7629 91.5991 48.7629 90.9391C48.7629 89.9167 49.0185 89.1213 49.5297 88.5529C50.0409 87.9806 50.7504 87.6945 51.6584 87.6945C52.5358 87.6945 53.232 87.9864 53.747 88.57C54.2658 89.1537 54.5253 89.9434 54.5253 90.9391ZM49.7471 90.9391C49.7471 91.7402 49.9073 92.3506 50.2278 92.7702C50.5482 93.1899 51.0194 93.3997 51.6412 93.3997C52.263 93.3997 52.7342 93.1918 53.0546 92.7759C53.3789 92.3563 53.541 91.744 53.541 90.9391C53.541 90.1418 53.3789 89.5371 53.0546 89.1251C52.7342 88.7093 52.2592 88.5014 51.6298 88.5014C51.0079 88.5014 50.5387 88.7055 50.2221 89.1137C49.9054 89.5219 49.7471 90.1303 49.7471 90.9391ZM60.5758 94.0806V90.0235C60.5758 89.5123 60.4594 89.1308 60.2267 88.879C59.994 88.6273 59.6297 88.5014 59.1338 88.5014C58.4776 88.5014 57.9969 88.6788 57.6918 89.0335C57.3866 89.3883 57.234 89.9739 57.234 90.7903V94.0806H56.2841V87.809H57.0566L57.2111 88.6673H57.2569C57.4514 88.3583 57.7242 88.1199 58.0751 87.952C58.4261 87.7804 58.8171 87.6945 59.2482 87.6945C60.0036 87.6945 60.572 87.8776 60.9535 88.2439C61.335 88.6063 61.5257 89.188 61.5257 89.9892V94.0806H60.5758ZM68.7285 93.4111C68.8963 93.4111 69.0585 93.3997 69.2149 93.3768C69.3713 93.3501 69.4953 93.3234 69.5868 93.2967V94.0234C69.4838 94.073 69.3312 94.1131 69.1291 94.1436C68.9307 94.1779 68.7514 94.1951 68.5912 94.1951C67.378 94.1951 66.7715 93.5561 66.7715 92.2781V88.5472H65.8731V88.0894L66.7715 87.6945L67.172 86.3555H67.7214V87.809H69.5411V88.5472H67.7214V92.238C67.7214 92.6157 67.811 92.9056 67.9903 93.1078C68.1696 93.31 68.4157 93.4111 68.7285 93.4111ZM75.2254 94.0806V90.0235C75.2254 89.5123 75.109 89.1308 74.8763 88.879C74.6436 88.6273 74.2793 88.5014 73.7834 88.5014C73.1234 88.5014 72.6408 88.6807 72.3356 89.0393C72.0342 89.3979 71.8835 89.9854 71.8835 90.8017V94.0806H70.9336V85.1767H71.8835V87.8719C71.8835 88.1962 71.8683 88.4651 71.8378 88.6788H71.895C72.0819 88.3774 72.3471 88.1409 72.6904 87.9692C73.0375 87.7937 73.4324 87.706 73.8749 87.706C74.6417 87.706 75.2158 87.8891 75.5973 88.2553C75.9826 88.6177 76.1753 89.1957 76.1753 89.9892V94.0806H75.2254ZM80.8696 94.1951C79.9426 94.1951 79.2102 93.9128 78.6723 93.3482C78.1382 92.7836 77.8711 91.9996 77.8711 90.9963C77.8711 89.9854 78.1191 89.1823 78.615 88.5872C79.1148 87.9921 79.7843 87.6945 80.6236 87.6945C81.4094 87.6945 82.0313 87.9539 82.4891 88.4728C82.9468 88.9878 83.1757 89.6687 83.1757 90.5156V91.1165H78.8554C78.8745 91.8527 79.0595 92.4116 79.4104 92.7931C79.7652 93.1746 80.2631 93.3653 80.904 93.3653C81.5792 93.3653 82.2468 93.2242 82.9068 92.9419V93.7888C82.5711 93.9338 82.2525 94.0368 81.9512 94.0978C81.6536 94.1626 81.2931 94.1951 80.8696 94.1951ZM80.6121 88.4899C80.1086 88.4899 79.7061 88.654 79.4047 88.982C79.1072 89.3101 78.9317 89.7641 78.8783 90.344H82.1572C82.1572 89.745 82.0236 89.2872 81.7566 88.9706C81.4896 88.6502 81.1081 88.4899 80.6121 88.4899ZM90.5273 94.1951C89.6194 94.1951 88.9155 93.9166 88.4158 93.3596C87.9198 92.7988 87.6719 92.0072 87.6719 90.9849C87.6719 89.9358 87.9236 89.1251 88.4272 88.5529C88.9346 87.9806 89.6556 87.6945 90.5902 87.6945C90.8916 87.6945 91.193 87.727 91.4944 87.7918C91.7957 87.8567 92.0323 87.933 92.2039 88.0207L91.9121 88.8275C91.7023 88.7436 91.4734 88.6749 91.2254 88.6215C90.9775 88.5643 90.7581 88.5357 90.5674 88.5357C89.2932 88.5357 88.6561 89.3483 88.6561 90.9734C88.6561 91.744 88.8106 92.3353 89.1196 92.7473C89.4324 93.1593 89.894 93.3653 90.5044 93.3653C91.0271 93.3653 91.563 93.2528 92.1124 93.0277V93.8689C91.6927 94.0863 91.1644 94.1951 90.5273 94.1951ZM97.5506 94.0806L97.3618 93.1879H97.316C97.0032 93.5809 96.6904 93.8479 96.3776 93.9891C96.0686 94.1264 95.6814 94.1951 95.2159 94.1951C94.5941 94.1951 94.1058 94.0348 93.751 93.7144C93.4001 93.3939 93.2246 92.9381 93.2246 92.3468C93.2246 91.0802 94.2374 90.4164 96.2631 90.3554L97.3275 90.3211V89.932C97.3275 89.4398 97.2207 89.0774 97.007 88.8447C96.7972 88.6082 96.4596 88.4899 95.9942 88.4899C95.4715 88.4899 94.8802 88.6502 94.2203 88.9706L93.9284 88.2439C94.2374 88.076 94.575 87.9444 94.9413 87.849C95.3113 87.7537 95.6814 87.706 96.0514 87.706C96.7991 87.706 97.3523 87.8719 97.7109 88.2038C98.0733 88.5357 98.2545 89.0679 98.2545 89.8003V94.0806H97.5506ZM95.4048 93.4111C95.9961 93.4111 96.4596 93.249 96.7953 92.9247C97.1348 92.6005 97.3046 92.1465 97.3046 91.5628V90.9963L96.3547 91.0364C95.5993 91.0631 95.0538 91.1813 94.7181 91.3911C94.3862 91.5971 94.2203 91.9195 94.2203 92.3582C94.2203 92.7015 94.3233 92.9629 94.5293 93.1422C94.7391 93.3215 95.0309 93.4111 95.4048 93.4111ZM103.166 87.6945C103.445 87.6945 103.695 87.7174 103.916 87.7632L103.784 88.6444C103.525 88.5872 103.296 88.5586 103.098 88.5586C102.59 88.5586 102.155 88.7646 101.793 89.1766C101.434 89.5886 101.255 90.1017 101.255 90.7159V94.0806H100.305V87.809H101.089L101.198 88.9706H101.244C101.476 88.5624 101.757 88.2477 102.085 88.0264C102.413 87.8052 102.773 87.6945 103.166 87.6945ZM109.446 93.2394H109.394C108.956 93.8765 108.299 94.1951 107.426 94.1951C106.606 94.1951 105.967 93.9147 105.509 93.3539C105.055 92.7931 104.828 91.9958 104.828 90.962C104.828 89.9281 105.057 89.1251 105.514 88.5529C105.972 87.9806 106.609 87.6945 107.426 87.6945C108.276 87.6945 108.929 88.0035 109.383 88.6215H109.457L109.417 88.1695L109.394 87.7289V85.1767H110.344V94.0806H109.572L109.446 93.2394ZM107.546 93.3997C108.194 93.3997 108.664 93.2242 108.954 92.8732C109.247 92.5184 109.394 91.9481 109.394 91.1622V90.962C109.394 90.0731 109.245 89.4398 108.948 89.0622C108.654 88.6807 108.183 88.4899 107.534 88.4899C106.978 88.4899 106.55 88.7074 106.253 89.1423C105.959 89.5734 105.812 90.1837 105.812 90.9734C105.812 91.7745 105.959 92.3792 106.253 92.7874C106.546 93.1956 106.978 93.3997 107.546 93.3997ZM117.61 93.4111C117.778 93.4111 117.94 93.3997 118.096 93.3768C118.253 93.3501 118.377 93.3234 118.468 93.2967V94.0234C118.365 94.073 118.213 94.1131 118.01 94.1436C117.812 94.1779 117.633 94.1951 117.473 94.1951C116.259 94.1951 115.653 93.5561 115.653 92.2781V88.5472H114.754V88.0894L115.653 87.6945L116.053 86.3555H116.603V87.809H118.422V88.5472H116.603V92.238C116.603 92.6157 116.692 92.9056 116.872 93.1078C117.051 93.31 117.297 93.4111 117.61 93.4111ZM120.765 94.0806H119.815V87.809H120.765V94.0806ZM119.735 86.1094C119.735 85.892 119.788 85.7337 119.895 85.6345C120.002 85.5315 120.135 85.48 120.296 85.48C120.448 85.48 120.58 85.5315 120.691 85.6345C120.801 85.7375 120.856 85.8958 120.856 86.1094C120.856 86.3231 120.801 86.4833 120.691 86.5901C120.58 86.6931 120.448 86.7446 120.296 86.7446C120.135 86.7446 120.002 86.6931 119.895 86.5901C119.788 86.4833 119.735 86.3231 119.735 86.1094ZM124.893 93.4111C125.061 93.4111 125.223 93.3997 125.379 93.3768C125.536 93.3501 125.66 93.3234 125.751 93.2967V94.0234C125.648 94.073 125.496 94.1131 125.293 94.1436C125.095 94.1779 124.916 94.1951 124.755 94.1951C123.542 94.1951 122.936 93.5561 122.936 92.2781V88.5472H122.037V88.0894L122.936 87.6945L123.336 86.3555H123.886V87.809H125.705V88.5472H123.886V92.238C123.886 92.6157 123.975 92.9056 124.155 93.1078C124.334 93.31 124.58 93.4111 124.893 93.4111ZM128.048 94.0806H127.098V85.1767H128.048V94.0806ZM132.799 94.1951C131.872 94.1951 131.14 93.9128 130.602 93.3482C130.068 92.7836 129.801 91.9996 129.801 90.9963C129.801 89.9854 130.049 89.1823 130.545 88.5872C131.045 87.9921 131.714 87.6945 132.553 87.6945C133.339 87.6945 133.961 87.9539 134.419 88.4728C134.877 88.9878 135.105 89.6687 135.105 90.5156V91.1165H130.785C130.804 91.8527 130.989 92.4116 131.34 92.7931C131.695 93.1746 132.193 93.3653 132.834 93.3653C133.509 93.3653 134.177 93.2242 134.837 92.9419V93.7888C134.501 93.9338 134.182 94.0368 133.881 94.0978C133.583 94.1626 133.223 94.1951 132.799 94.1951ZM132.542 88.4899C132.038 88.4899 131.636 88.654 131.334 88.982C131.037 89.3101 130.861 89.7641 130.808 90.344H134.087C134.087 89.745 133.953 89.2872 133.686 88.9706C133.419 88.6502 133.038 88.4899 132.542 88.4899ZM143.808 94.0806L143.619 93.1879H143.573C143.26 93.5809 142.947 93.8479 142.634 93.9891C142.325 94.1264 141.938 94.1951 141.473 94.1951C140.851 94.1951 140.363 94.0348 140.008 93.7144C139.657 93.3939 139.481 92.9381 139.481 92.3468C139.481 91.0802 140.494 90.4164 142.52 90.3554L143.584 90.3211V89.932C143.584 89.4398 143.478 89.0774 143.264 88.8447C143.054 88.6082 142.716 88.4899 142.251 88.4899C141.728 88.4899 141.137 88.6502 140.477 88.9706L140.185 88.2439C140.494 88.076 140.832 87.9444 141.198 87.849C141.568 87.7537 141.938 87.706 142.308 87.706C143.056 87.706 143.609 87.8719 143.968 88.2038C144.33 88.5357 144.511 89.0679 144.511 89.8003V94.0806H143.808ZM141.662 93.4111C142.253 93.4111 142.716 93.249 143.052 92.9247C143.392 92.6005 143.561 92.1465 143.561 91.5628V90.9963L142.612 91.0364C141.856 91.0631 141.311 91.1813 140.975 91.3911C140.643 91.5971 140.477 91.9195 140.477 92.3582C140.477 92.7015 140.58 92.9629 140.786 93.1422C140.996 93.3215 141.288 93.4111 141.662 93.4111ZM150.854 94.0806V90.0235C150.854 89.5123 150.737 89.1308 150.505 88.879C150.272 88.6273 149.908 88.5014 149.412 88.5014C148.756 88.5014 148.275 88.6788 147.97 89.0335C147.665 89.3883 147.512 89.9739 147.512 90.7903V94.0806H146.562V87.809H147.335L147.489 88.6673H147.535C147.729 88.3583 148.002 88.1199 148.353 87.952C148.704 87.7804 149.095 87.6945 149.526 87.6945C150.282 87.6945 150.85 87.8776 151.231 88.2439C151.613 88.6063 151.804 89.188 151.804 89.9892V94.0806H150.854ZM158.117 93.2394H158.066C157.627 93.8765 156.971 94.1951 156.097 94.1951C155.277 94.1951 154.638 93.9147 154.18 93.3539C153.727 92.7931 153.5 91.9958 153.5 90.962C153.5 89.9281 153.728 89.1251 154.186 88.5529C154.644 87.9806 155.281 87.6945 156.097 87.6945C156.948 87.6945 157.601 88.0035 158.054 88.6215H158.129L158.089 88.1695L158.066 87.7289V85.1767H159.016V94.0806H158.243L158.117 93.2394ZM156.218 93.3997C156.866 93.3997 157.335 93.2242 157.625 92.8732C157.919 92.5184 158.066 91.9481 158.066 91.1622V90.962C158.066 90.0731 157.917 89.4398 157.62 89.0622C157.326 88.6807 156.855 88.4899 156.206 88.4899C155.649 88.4899 155.222 88.7074 154.924 89.1423C154.631 89.5734 154.484 90.1837 154.484 90.9734C154.484 91.7745 154.631 92.3792 154.924 92.7874C155.218 93.1956 155.649 93.3997 156.218 93.3997ZM26.0329 111.081V107.001C26.0329 106.501 25.9261 106.127 25.7125 105.879C25.4989 105.627 25.167 105.501 24.7168 105.501C24.1255 105.501 23.6887 105.671 23.4064 106.011C23.1241 106.35 22.9829 106.873 22.9829 107.579V111.081H22.033V107.001C22.033 106.501 21.9262 106.127 21.7126 105.879C21.499 105.627 21.1652 105.501 20.7112 105.501C20.1161 105.501 19.6793 105.681 19.4008 106.039C19.1261 106.394 18.9888 106.978 18.9888 107.79V111.081H18.0389V104.809H18.8114L18.9659 105.667H19.0117C19.191 105.362 19.4427 105.124 19.767 104.952C20.0951 104.78 20.4613 104.695 20.8657 104.695C21.8461 104.695 22.487 105.049 22.7884 105.759H22.8342C23.0211 105.431 23.2919 105.171 23.6467 104.981C24.0015 104.79 24.4059 104.695 24.8599 104.695C25.5694 104.695 26.0997 104.878 26.4507 105.244C26.8055 105.606 26.9828 106.188 26.9828 106.989V111.081H26.0329ZM32.8903 111.081L32.7015 110.188H32.6557C32.3429 110.581 32.0301 110.848 31.7173 110.989C31.4082 111.126 31.021 111.195 30.5556 111.195C29.9338 111.195 29.4455 111.035 29.0907 110.714C28.7397 110.394 28.5643 109.938 28.5643 109.347C28.5643 108.08 29.5771 107.416 31.6028 107.355L32.6672 107.321V106.932C32.6672 106.44 32.5603 106.077 32.3467 105.845C32.1369 105.608 31.7993 105.49 31.3339 105.49C30.8112 105.49 30.2199 105.65 29.5599 105.971L29.2681 105.244C29.5771 105.076 29.9147 104.944 30.281 104.849C30.651 104.754 31.021 104.706 31.3911 104.706C32.1388 104.706 32.692 104.872 33.0506 105.204C33.413 105.536 33.5942 106.068 33.5942 106.8V111.081H32.8903ZM30.7445 110.411C31.3358 110.411 31.7993 110.249 32.135 109.925C32.4745 109.6 32.6443 109.146 32.6443 108.563V107.996L31.6944 108.036C30.939 108.063 30.3935 108.181 30.0578 108.391C29.7259 108.597 29.5599 108.92 29.5599 109.358C29.5599 109.702 29.6629 109.963 29.8689 110.142C30.0788 110.321 30.3706 110.411 30.7445 110.411ZM36.5833 107.87C36.7473 107.638 36.9972 107.333 37.3329 106.955L39.3586 104.809H40.4859L37.9452 107.481L40.6633 111.081H39.5131L37.2986 108.116L36.5833 108.734V111.081H35.6448V102.177H36.5833V106.898C36.5833 107.107 36.568 107.432 36.5375 107.87H36.5833ZM44.5394 111.195C43.6123 111.195 42.8799 110.913 42.342 110.348C41.8079 109.784 41.5409 109 41.5409 107.996C41.5409 106.985 41.7888 106.182 42.2848 105.587C42.7845 104.992 43.454 104.695 44.2933 104.695C45.0792 104.695 45.701 104.954 46.1588 105.473C46.6166 105.988 46.8454 106.669 46.8454 107.516V108.116H42.5251C42.5442 108.853 42.7292 109.412 43.0802 109.793C43.435 110.175 43.9328 110.365 44.5737 110.365C45.2489 110.365 45.9165 110.224 46.5765 109.942V110.789C46.2408 110.934 45.9223 111.037 45.6209 111.098C45.3233 111.163 44.9628 111.195 44.5394 111.195ZM44.2819 105.49C43.7783 105.49 43.3758 105.654 43.0744 105.982C42.7769 106.31 42.6014 106.764 42.548 107.344H45.8269C45.8269 106.745 45.6934 106.287 45.4263 105.971C45.1593 105.65 44.7778 105.49 44.2819 105.49ZM52.5833 104.809V108.878C52.5833 109.389 52.6997 109.77 52.9324 110.022C53.1651 110.274 53.5294 110.4 54.0254 110.4C54.6815 110.4 55.1603 110.22 55.4617 109.862C55.7668 109.503 55.9194 108.918 55.9194 108.105V104.809H56.8693V111.081H56.0854L55.948 110.239H55.8965C55.702 110.548 55.4311 110.785 55.084 110.949C54.7406 111.113 54.3477 111.195 53.9052 111.195C53.1422 111.195 52.57 111.014 52.1885 110.651C51.8108 110.289 51.622 109.709 51.622 108.912V104.809H52.5833ZM61.8956 111.195C61.4874 111.195 61.1135 111.121 60.774 110.972C60.4383 110.819 60.156 110.587 59.9271 110.274H59.8584C59.9042 110.64 59.9271 110.987 59.9271 111.315V113.896H58.9772V104.809H59.7497L59.8813 105.667H59.9271C60.1713 105.324 60.4555 105.076 60.7797 104.923C61.104 104.771 61.476 104.695 61.8956 104.695C62.7272 104.695 63.3681 104.979 63.8183 105.547C64.2723 106.116 64.4992 106.913 64.4992 107.939C64.4992 108.969 64.2684 109.77 63.8068 110.342C63.3491 110.911 62.712 111.195 61.8956 111.195ZM61.7583 105.501C61.1174 105.501 60.6539 105.679 60.3677 106.034C60.0816 106.388 59.9347 106.953 59.9271 107.727V107.939C59.9271 108.82 60.074 109.452 60.3677 109.833C60.6615 110.211 61.1326 110.4 61.7811 110.4C62.3229 110.4 62.7463 110.18 63.0515 109.742C63.3605 109.303 63.515 108.698 63.515 107.928C63.515 107.146 63.3605 106.547 63.0515 106.131C62.7463 105.711 62.3152 105.501 61.7583 105.501Z" fill="#6A6E79"/>
<path d="M20.1185 142.589C19.291 142.589 18.637 142.865 18.1563 143.418C17.6791 143.968 17.4405 144.721 17.4405 145.679C17.4405 146.664 17.6705 147.427 18.1306 147.966C18.5941 148.501 19.2533 148.769 20.1082 148.769C20.6335 148.769 21.2326 148.675 21.9056 148.486V149.253C21.3837 149.449 20.7399 149.547 19.9743 149.547C18.8653 149.547 18.0087 149.21 17.4044 148.537C16.8036 147.864 16.5031 146.908 16.5031 145.669C16.5031 144.893 16.6473 144.213 16.9357 143.629C17.2276 143.046 17.6465 142.596 18.1924 142.28C18.7417 141.964 19.3872 141.806 20.1288 141.806C20.9185 141.806 21.6086 141.95 22.1991 142.239L21.8283 142.991C21.2584 142.723 20.6884 142.589 20.1185 142.589ZM26.8909 149.444L26.7209 148.64H26.6797C26.3982 148.994 26.1166 149.234 25.8351 149.361C25.557 149.485 25.2085 149.547 24.7896 149.547C24.23 149.547 23.7905 149.403 23.4712 149.114C23.1553 148.826 22.9974 148.415 22.9974 147.883C22.9974 146.743 23.909 146.146 25.7321 146.091L26.69 146.06V145.71C26.69 145.267 26.5939 144.941 26.4016 144.731C26.2128 144.519 25.9089 144.412 25.49 144.412C25.0197 144.412 24.4875 144.556 23.8935 144.845L23.6308 144.191C23.909 144.04 24.2128 143.921 24.5424 143.835C24.8755 143.75 25.2085 143.707 25.5415 143.707C26.2145 143.707 26.7123 143.856 27.0351 144.155C27.3612 144.453 27.5243 144.932 27.5243 145.592V149.444H26.8909ZM24.9596 148.841C25.4917 148.841 25.9089 148.695 26.211 148.403C26.5166 148.112 26.6694 147.703 26.6694 147.178V146.668L25.8145 146.704C25.1347 146.728 24.6437 146.834 24.3416 147.023C24.0429 147.209 23.8935 147.499 23.8935 147.894C23.8935 148.203 23.9862 148.438 24.1716 148.599C24.3604 148.761 24.6231 148.841 24.9596 148.841ZM31.8658 143.696C32.1165 143.696 32.3414 143.717 32.5405 143.758L32.422 144.551C32.1886 144.5 31.9826 144.474 31.804 144.474C31.3474 144.474 30.956 144.659 30.6298 145.03C30.3071 145.401 30.1457 145.863 30.1457 146.416V149.444H29.2908V143.799H29.9964L30.0942 144.845H30.1354C30.3448 144.477 30.5972 144.194 30.8925 143.995C31.1877 143.796 31.5122 143.696 31.8658 143.696ZM37.4382 148.687H37.3919C36.997 149.26 36.4065 149.547 35.6202 149.547C34.8821 149.547 34.307 149.294 33.895 148.79C33.4864 148.285 33.2821 147.567 33.2821 146.637C33.2821 145.707 33.4881 144.984 33.9001 144.469C34.3121 143.954 34.8855 143.696 35.6202 143.696C36.3859 143.696 36.973 143.974 37.3816 144.531H37.4485L37.4125 144.124L37.3919 143.727V141.43H38.2468V149.444H37.5515L37.4382 148.687ZM35.7284 148.831C36.3121 148.831 36.7344 148.673 36.9953 148.357C37.2597 148.038 37.3919 147.525 37.3919 146.817V146.637C37.3919 145.837 37.258 145.267 36.9902 144.927C36.7258 144.584 36.3018 144.412 35.7181 144.412C35.2168 144.412 34.8323 144.608 34.5645 144.999C34.3001 145.387 34.1679 145.937 34.1679 146.647C34.1679 147.368 34.3001 147.912 34.5645 148.28C34.8288 148.647 35.2168 148.831 35.7284 148.831ZM43.8089 149.444H42.9334V141.914H47.1307V142.692H43.8089V145.447H46.9298V146.225H43.8089V149.444ZM53.1254 146.616C53.1254 147.537 52.8936 148.256 52.4301 148.774C51.9666 149.289 51.3263 149.547 50.5091 149.547C50.0044 149.547 49.5564 149.428 49.165 149.191C48.7736 148.955 48.4714 148.615 48.2585 148.172C48.0457 147.729 47.9392 147.21 47.9392 146.616C47.9392 145.696 48.1693 144.98 48.6293 144.469C49.0894 143.954 49.728 143.696 50.5452 143.696C51.3349 143.696 51.9615 143.959 52.425 144.484C52.8919 145.01 53.1254 145.72 53.1254 146.616ZM48.8251 146.616C48.8251 147.337 48.9693 147.887 49.2577 148.264C49.5461 148.642 49.9701 148.831 50.5297 148.831C51.0894 148.831 51.5134 148.644 51.8018 148.27C52.0936 147.892 52.2396 147.341 52.2396 146.616C52.2396 145.899 52.0936 145.355 51.8018 144.984C51.5134 144.61 51.0859 144.422 50.5194 144.422C49.9598 144.422 49.5375 144.606 49.2525 144.974C48.9675 145.341 48.8251 145.889 48.8251 146.616ZM59.5012 146.616C59.5012 147.537 59.2694 148.256 58.8059 148.774C58.3424 149.289 57.7021 149.547 56.8849 149.547C56.3802 149.547 55.9322 149.428 55.5408 149.191C55.1494 148.955 54.8472 148.615 54.6343 148.172C54.4215 147.729 54.315 147.21 54.315 146.616C54.315 145.696 54.5451 144.98 55.0052 144.469C55.4652 143.954 56.1038 143.696 56.921 143.696C57.7107 143.696 58.3373 143.959 58.8008 144.484C59.2677 145.01 59.5012 145.72 59.5012 146.616ZM55.2009 146.616C55.2009 147.337 55.3451 147.887 55.6335 148.264C55.9219 148.642 56.3459 148.831 56.9055 148.831C57.4652 148.831 57.8892 148.644 58.1776 148.27C58.4694 147.892 58.6154 147.341 58.6154 146.616C58.6154 145.899 58.4694 145.355 58.1776 144.984C57.8892 144.61 57.4617 144.422 56.8952 144.422C56.3356 144.422 55.9133 144.606 55.6283 144.974C55.3433 145.341 55.2009 145.889 55.2009 146.616ZM62.8281 148.841C62.9792 148.841 63.1251 148.831 63.2659 148.81C63.4067 148.786 63.5182 148.762 63.6006 148.738V149.392C63.5079 149.437 63.3706 149.473 63.1886 149.5C63.0101 149.531 62.8487 149.547 62.7045 149.547C61.6127 149.547 61.0668 148.972 61.0668 147.822V144.464H60.2582V144.052L61.0668 143.696L61.4273 142.491H61.9217V143.799H63.5594V144.464H61.9217V147.785C61.9217 148.125 62.0024 148.386 62.1638 148.568C62.3251 148.75 62.5466 148.841 62.8281 148.841ZM67.1181 149.547C66.2838 149.547 65.6246 149.293 65.1405 148.785C64.6598 148.276 64.4195 147.571 64.4195 146.668C64.4195 145.758 64.6427 145.035 65.089 144.5C65.5388 143.964 66.1413 143.696 66.8967 143.696C67.604 143.696 68.1636 143.93 68.5756 144.397C68.9876 144.86 69.1936 145.473 69.1936 146.235V146.776H65.3053C65.3225 147.439 65.489 147.942 65.8049 148.285C66.1242 148.628 66.5722 148.8 67.149 148.8C67.7568 148.8 68.3576 148.673 68.9516 148.419V149.181C68.6494 149.312 68.3627 149.404 68.0915 149.459C67.8237 149.518 67.4993 149.547 67.1181 149.547ZM66.8864 144.412C66.4332 144.412 66.071 144.56 65.7997 144.855C65.5319 145.15 65.374 145.559 65.3259 146.081H68.2769C68.2769 145.542 68.1567 145.13 67.9164 144.845C67.6761 144.556 67.3327 144.412 66.8864 144.412ZM73.2313 143.696C73.4819 143.696 73.7068 143.717 73.906 143.758L73.7875 144.551C73.554 144.5 73.348 144.474 73.1695 144.474C72.7129 144.474 72.3214 144.659 71.9953 145.03C71.6725 145.401 71.5112 145.863 71.5112 146.416V149.444H70.6563V143.799H71.3618L71.4597 144.845H71.5009C71.7103 144.477 71.9627 144.194 72.2579 143.995C72.5532 143.796 72.8777 143.696 73.2313 143.696Z" fill="#6A6E79"/>
<path d="M159.929 149.616H163.601V153.288H159.929V149.616Z" fill="#252A2E"/>
<path d="M159.929 138.6H163.601V142.272H159.929V138.6Z" fill="black"/>
<path d="M159.929 144.108H163.601V147.78H159.929V144.108Z" fill="black"/>
<rect x="6.65625" y="6.07007" width="173.688" height="164.312" rx="3" stroke="#DA212C" stroke-width="2"/>
</g>
<defs>
<filter id="filter0_ddd_7253_83274" x="0.968531" y="0.968314" width="185.063" height="175.688" filterUnits="userSpaceOnUse" color-interpolation-filters="sRGB">
<feFlood flood-opacity="0" result="BackgroundImageFix"/>
<feColorMatrix in="SourceAlpha" type="matrix" values="0 0 0 0 0 0 0 0 0 0 0 0 0 0 0 0 0 0 127 0" result="hardAlpha"/>
<feOffset dy="0.585965"/>
<feGaussianBlur stdDeviation="2.34386"/>
<feColorMatrix type="matrix" values="0 0 0 0 0 0 0 0 0 0 0 0 0 0 0 0 0 0 0.2 0"/>
<feBlend mode="normal" in2="BackgroundImageFix" result="effect1_dropShadow_7253_83274"/>
<feColorMatrix in="SourceAlpha" type="matrix" values="0 0 0 0 0 0 0 0 0 0 0 0 0 0 0 0 0 0 127 0" result="hardAlpha"/>
<feOffset dy="1.75789"/>
<feGaussianBlur stdDeviation="0.878947"/>
<feColorMatrix type="matrix" values="0 0 0 0 0 0 0 0 0 0 0 0 0 0 0 0 0 0 0.12 0"/>
<feBlend mode="normal" in2="effect1_dropShadow_7253_83274" result="effect2_dropShadow_7253_83274"/>
<feColorMatrix in="SourceAlpha" type="matrix" values="0 0 0 0 0 0 0 0 0 0 0 0 0 0 0 0 0 0 127 0" result="hardAlpha"/>
<feOffset dy="1.75789"/>
<feGaussianBlur stdDeviation="1.17193"/>
<feColorMatrix type="matrix" values="0 0 0 0 0 0 0 0 0 0 0 0 0 0 0 0 0 0 0.14 0"/>
<feBlend mode="normal" in2="effect2_dropShadow_7253_83274" result="effect3_dropShadow_7253_83274"/>
<feBlend mode="normal" in="SourceGraphic" in2="effect3_dropShadow_7253_83274" result="shape"/>
</filter>
</defs>
</svg>
