<svg width="177" height="167" viewBox="0 0 177 167" fill="none" xmlns="http://www.w3.org/2000/svg">
<g opacity="0.4" filter="url(#filter0_ddd_7253_83276)">
<rect x="5" y="5" width="167" height="156.453" rx="2.34386" fill="white"/>
<path d="M18.7314 24.6514C17.9302 24.6514 17.3099 24.9535 16.8705 25.5578C16.431 26.1575 16.2113 26.9952 16.2113 28.071C16.2113 30.3096 17.0513 31.4289 18.7314 31.4289C19.4364 31.4289 20.2901 31.2526 21.2927 30.9001V32.6855C20.4687 33.0288 19.5485 33.2005 18.5322 33.2005C17.0719 33.2005 15.9549 32.7587 15.1812 31.8752C14.4076 30.9871 14.0208 29.7145 14.0208 28.0573C14.0208 27.0135 14.2107 26.1003 14.5907 25.3174C14.9707 24.5301 15.5154 23.9281 16.225 23.5115C16.9391 23.0903 17.7746 22.8797 18.7314 22.8797C19.7065 22.8797 20.6861 23.1155 21.6703 23.587L20.9837 25.3174C20.6083 25.1389 20.2306 24.9833 19.8507 24.8505C19.4707 24.7177 19.0976 24.6514 18.7314 24.6514ZM28.2336 33.0632L27.8285 32.0194H27.7735C27.421 32.4635 27.0571 32.7725 26.6817 32.9464C26.3109 33.1158 25.8257 33.2005 25.226 33.2005C24.4889 33.2005 23.9075 32.9899 23.4818 32.5688C23.0606 32.1476 22.8501 31.5479 22.8501 30.7697C22.8501 29.9548 23.1339 29.3551 23.7015 28.9706C24.2738 28.5815 25.1344 28.3663 26.2834 28.3251L27.6156 28.2839V27.9474C27.6156 27.1692 27.2173 26.7801 26.4208 26.7801C25.8074 26.7801 25.0863 26.9655 24.2577 27.3363L23.5642 25.9217C24.4477 25.4594 25.4274 25.2282 26.5032 25.2282C27.5332 25.2282 28.3229 25.4525 28.8722 25.9011C29.4216 26.3498 29.6962 27.0319 29.6962 27.9474V33.0632H28.2336ZM27.6156 29.5062L26.8053 29.5336C26.1965 29.552 25.7433 29.6618 25.4457 29.8633C25.1481 30.0647 24.9994 30.3714 24.9994 30.7834C24.9994 31.3739 25.3381 31.6692 26.0156 31.6692C26.5009 31.6692 26.8877 31.5296 27.1761 31.2503C27.4691 30.9711 27.6156 30.6003 27.6156 30.1379V29.5062ZM36.232 25.2419C36.5159 25.2419 36.7516 25.2625 36.9393 25.3037L36.7814 27.2676C36.612 27.2218 36.406 27.1989 36.1634 27.1989C35.495 27.1989 34.9731 27.3706 34.5977 27.714C34.2269 28.0573 34.0415 28.538 34.0415 29.156V33.0632H31.9472V25.3861H33.5334L33.8424 26.6771H33.9454C34.1834 26.2468 34.5039 25.9011 34.9067 25.6402C35.3142 25.3747 35.7559 25.2419 36.232 25.2419ZM40.852 33.2005C39.9502 33.2005 39.2406 32.8503 38.7233 32.1499C38.2106 31.4495 37.9542 30.479 37.9542 29.2384C37.9542 27.9795 38.2152 26.9998 38.737 26.2994C39.2635 25.5944 39.9868 25.2419 40.9069 25.2419C41.8729 25.2419 42.6099 25.6173 43.118 26.3681H43.1867C43.0814 25.7958 43.0288 25.2854 43.0288 24.8368V22.3785H45.13V33.0632H43.5232L43.118 32.0675H43.0288C42.5527 32.8228 41.8271 33.2005 40.852 33.2005ZM41.5867 31.5319C42.1224 31.5319 42.5138 31.3762 42.761 31.0649C43.0127 30.7536 43.1501 30.2249 43.173 29.4787V29.2521C43.173 28.4281 43.0448 27.8376 42.7884 27.4805C42.5367 27.1234 42.1246 26.9449 41.5524 26.9449C41.0855 26.9449 40.7215 27.144 40.4606 27.5423C40.2042 27.936 40.0761 28.5105 40.0761 29.2658C40.0761 30.0212 40.2065 30.5888 40.4675 30.9688C40.7284 31.3442 41.1015 31.5319 41.5867 31.5319ZM55.1871 33.0632H53.0584V24.7956H50.3323V23.0239H57.9132V24.7956H55.1871V33.0632ZM59.292 23.4016C59.292 22.7195 59.672 22.3785 60.4319 22.3785C61.1919 22.3785 61.5718 22.7195 61.5718 23.4016C61.5718 23.7266 61.4757 23.9807 61.2834 24.1638C61.0957 24.3424 60.8119 24.4316 60.4319 24.4316C59.672 24.4316 59.292 24.0883 59.292 23.4016ZM61.4757 33.0632H59.3813V25.3861H61.4757V33.0632ZM67.0021 31.5319C67.3683 31.5319 67.8078 31.4518 68.3205 31.2915V32.8503C67.7986 33.0838 67.1577 33.2005 66.3978 33.2005C65.56 33.2005 64.9489 32.9899 64.5644 32.5688C64.1844 32.143 63.9944 31.5067 63.9944 30.6598V26.9586H62.9919V26.0728L64.1455 25.3724L64.7498 23.7518H66.0888V25.3861H68.2381V26.9586H66.0888V30.6598C66.0888 30.9574 66.1712 31.1771 66.336 31.319C66.5054 31.4609 66.7274 31.5319 67.0021 31.5319ZM72.0615 33.0632H69.9671V22.3785H72.0615V33.0632ZM77.5329 26.732C77.0889 26.732 76.741 26.8739 76.4892 27.1577C76.2374 27.437 76.0932 27.8353 76.0566 28.3526H78.9956C78.9864 27.8353 78.8514 27.437 78.5904 27.1577C78.3295 26.8739 77.977 26.732 77.5329 26.732ZM77.8282 33.2005C76.5922 33.2005 75.6263 32.8595 74.9304 32.1774C74.2346 31.4953 73.8867 30.5293 73.8867 29.2796C73.8867 27.9932 74.2071 26.9998 74.848 26.2994C75.4935 25.5944 76.3839 25.2419 77.5192 25.2419C78.6042 25.2419 79.4488 25.5509 80.0531 26.1689C80.6573 26.7869 80.9595 27.6407 80.9595 28.7302V29.7465H76.0085C76.0314 30.3416 76.2077 30.8063 76.5373 31.1405C76.8669 31.4747 77.3292 31.6417 77.9244 31.6417C78.3867 31.6417 78.8239 31.5937 79.2359 31.4975C79.6479 31.4014 80.0782 31.2481 80.5269 31.0375V32.658C80.1606 32.8411 79.7692 32.9762 79.3526 33.0632C78.9361 33.1547 78.4279 33.2005 77.8282 33.2005Z" fill="#252A2E"/>
<path d="M19.0747 47.8372C19.0747 48.5735 18.8077 49.1476 18.2736 49.5596C17.7395 49.9716 17.0147 50.1776 16.0991 50.1776C15.1072 50.1776 14.3443 50.0498 13.8102 49.7942V48.8558C14.1535 49.0007 14.5274 49.1152 14.9318 49.1991C15.3361 49.283 15.7367 49.325 16.1334 49.325C16.782 49.325 17.2703 49.2029 17.5984 48.9588C17.9264 48.7108 18.0905 48.3675 18.0905 47.9287C18.0905 47.6388 18.0313 47.4023 17.9131 47.2192C17.7986 47.0323 17.6041 46.8606 17.3294 46.7042C17.0585 46.5478 16.6446 46.3704 16.0877 46.172C15.3094 45.8935 14.7525 45.5635 14.4167 45.182C14.0848 44.8006 13.9189 44.3027 13.9189 43.6885C13.9189 43.0438 14.1611 42.5307 14.6456 42.1492C15.1301 41.7677 15.771 41.577 16.5683 41.577C17.4 41.577 18.1649 41.7296 18.863 42.0348L18.5597 42.8817C17.8692 42.5917 17.1978 42.4468 16.5454 42.4468C16.0304 42.4468 15.628 42.5574 15.338 42.7787C15.0481 42.9999 14.9031 43.307 14.9031 43.7C14.9031 43.9899 14.9565 44.2283 15.0634 44.4152C15.1702 44.5984 15.3495 44.7681 15.6013 44.9245C15.8569 45.0771 16.246 45.2469 16.7686 45.4338C17.646 45.7466 18.2488 46.0823 18.5769 46.4409C18.9088 46.7995 19.0747 47.265 19.0747 47.8372ZM21.6232 43.7915V47.8601C21.6232 48.3713 21.7396 48.7528 21.9723 49.0045C22.205 49.2563 22.5693 49.3822 23.0652 49.3822C23.7214 49.3822 24.2001 49.2029 24.5015 48.8443C24.8067 48.4857 24.9593 47.9001 24.9593 47.0876V43.7915H25.9092V50.0632H25.1253L24.9879 49.222H24.9364C24.7419 49.531 24.471 49.7675 24.1238 49.9316C23.7805 50.0956 23.3876 50.1776 22.9451 50.1776C22.1821 50.1776 21.6098 49.9964 21.2284 49.634C20.8507 49.2716 20.6618 48.6917 20.6618 47.8944V43.7915H21.6232ZM30.9355 43.6885C31.7595 43.6885 32.3985 43.9708 32.8524 44.5354C33.3102 45.0962 33.5391 45.8916 33.5391 46.9216C33.5391 47.9516 33.3083 48.7528 32.8467 49.325C32.3889 49.8934 31.7518 50.1776 30.9355 50.1776C30.5273 50.1776 30.1534 50.1032 29.8139 49.9544C29.4782 49.8019 29.1959 49.5691 28.967 49.2563H28.8983L28.698 50.0632H28.0171V41.1593H28.967V43.3223C28.967 43.8068 28.9517 44.2417 28.9212 44.627H28.967C29.4095 44.0013 30.0657 43.6885 30.9355 43.6885ZM30.7981 44.4839C30.1496 44.4839 29.6823 44.6708 29.3962 45.0447C29.11 45.4147 28.967 46.0404 28.967 46.9216C28.967 47.8029 29.1139 48.4342 29.4076 48.8157C29.7013 49.1934 30.1725 49.3822 30.821 49.3822C31.4047 49.3822 31.8396 49.1705 32.1257 48.747C32.4118 48.3198 32.5549 47.7075 32.5549 46.9102C32.5549 46.0938 32.4118 45.4853 32.1257 45.0848C31.8396 44.6842 31.3971 44.4839 30.7981 44.4839ZM34.7657 47.3565V46.4867H37.5754V47.3565H34.7657ZM41.1825 49.3937C41.3504 49.3937 41.5125 49.3822 41.6689 49.3593C41.8253 49.3326 41.9493 49.3059 42.0409 49.2792V50.0059C41.9379 50.0555 41.7853 50.0956 41.5831 50.1261C41.3847 50.1605 41.2054 50.1776 41.0452 50.1776C39.8321 50.1776 39.2255 49.5386 39.2255 48.2606V44.5297H38.3271V44.0719L39.2255 43.6771L39.6261 42.338H40.1754V43.7915H41.9951V44.5297H40.1754V48.2206C40.1754 48.5983 40.265 48.8882 40.4443 49.0904C40.6236 49.2926 40.8697 49.3937 41.1825 49.3937ZM46.0371 50.1776C45.1101 50.1776 44.3776 49.8953 43.8397 49.3307C43.3057 48.7661 43.0386 47.9822 43.0386 46.9788C43.0386 45.9679 43.2866 45.1649 43.7825 44.5698C44.2823 43.9746 44.9518 43.6771 45.791 43.6771C46.5769 43.6771 47.1987 43.9365 47.6565 44.4553C48.1143 44.9703 48.3432 45.6513 48.3432 46.4982V47.099H44.0229C44.0419 47.8353 44.2269 48.3942 44.5779 48.7757C44.9327 49.1571 45.4305 49.3479 46.0714 49.3479C46.7467 49.3479 47.4143 49.2067 48.0742 48.9244V49.7713C47.7385 49.9163 47.42 50.0193 47.1186 50.0803C46.8211 50.1452 46.4606 50.1776 46.0371 50.1776ZM45.7796 44.4725C45.276 44.4725 44.8736 44.6365 44.5722 44.9646C44.2746 45.2927 44.0991 45.7466 44.0457 46.3265H47.3246C47.3246 45.7276 47.1911 45.2698 46.9241 44.9531C46.657 44.6327 46.2755 44.4725 45.7796 44.4725ZM51.5669 46.853L49.3867 43.7915H50.4682L52.122 46.1949L53.77 43.7915H54.8401L52.6599 46.853L54.9545 50.0632H53.8787L52.122 47.5225L50.3481 50.0632H49.2723L51.5669 46.853ZM58.3156 49.3937C58.4834 49.3937 58.6456 49.3822 58.802 49.3593C58.9584 49.3326 59.0824 49.3059 59.1739 49.2792V50.0059C59.0709 50.0555 58.9183 50.0956 58.7161 50.1261C58.5178 50.1605 58.3385 50.1776 58.1783 50.1776C56.9651 50.1776 56.3586 49.5386 56.3586 48.2606V44.5297H55.4602V44.0719L56.3586 43.6771L56.7591 42.338H57.3085V43.7915H59.1282V44.5297H57.3085V48.2206C57.3085 48.5983 57.3981 48.8882 57.5774 49.0904C57.7567 49.2926 58.0028 49.3937 58.3156 49.3937Z" fill="#7D808D"/>
<path d="M20.2466 73.7846C20.2466 74.5209 19.9795 75.095 19.4455 75.507C18.9114 75.919 18.1865 76.125 17.271 76.125C16.2791 76.125 15.5161 75.9972 14.9821 75.7416V74.8032C15.3254 74.9481 15.6993 75.0626 16.1036 75.1465C16.508 75.2304 16.9086 75.2724 17.3053 75.2724C17.9538 75.2724 18.4421 75.1503 18.7702 74.9062C19.0983 74.6582 19.2623 74.3148 19.2623 73.8761C19.2623 73.5862 19.2032 73.3497 19.085 73.1666C18.9705 72.9796 18.7759 72.808 18.5013 72.6516C18.2304 72.4952 17.8165 72.3178 17.2595 72.1194C16.4813 71.8409 15.9243 71.5109 15.5886 71.1294C15.2567 70.7479 15.0908 70.2501 15.0908 69.6359C15.0908 68.9912 15.333 68.4781 15.8175 68.0966C16.302 67.7151 16.9429 67.5244 17.7402 67.5244C18.5719 67.5244 19.3367 67.677 20.0349 67.9822L19.7316 68.8291C19.0411 68.5391 18.3697 68.3942 17.7173 68.3942C17.2023 68.3942 16.7998 68.5048 16.5099 68.7261C16.22 68.9473 16.075 69.2544 16.075 69.6473C16.075 69.9373 16.1284 70.1757 16.2352 70.3626C16.3421 70.5457 16.5214 70.7155 16.7731 70.8719C17.0287 71.0245 17.4179 71.1943 17.9405 71.3812C18.8179 71.694 19.4207 72.0297 19.7487 72.3883C20.0806 72.7469 20.2466 73.2123 20.2466 73.7846ZM27.3157 72.869C27.3157 73.8914 27.0582 74.6906 26.5432 75.2667C26.0282 75.8389 25.3167 76.125 24.4088 76.125C23.848 76.125 23.3501 75.9934 22.9152 75.7302C22.4803 75.4669 22.1446 75.0893 21.9081 74.5971C21.6716 74.105 21.5533 73.529 21.5533 72.869C21.5533 71.8466 21.8089 71.0512 22.3201 70.4828C22.8313 69.9106 23.5409 69.6245 24.4488 69.6245C25.3262 69.6245 26.0225 69.9163 26.5375 70.5C27.0563 71.0836 27.3157 71.8733 27.3157 72.869ZM22.5376 72.869C22.5376 73.6701 22.6978 74.2805 23.0182 74.7001C23.3387 75.1198 23.8098 75.3296 24.4317 75.3296C25.0535 75.3296 25.5246 75.1217 25.8451 74.7059C26.1693 74.2862 26.3315 73.6739 26.3315 72.869C26.3315 72.0717 26.1693 71.467 25.8451 71.055C25.5246 70.6392 25.0497 70.4313 24.4202 70.4313C23.7984 70.4313 23.3292 70.6354 23.0125 71.0436C22.6959 71.4518 22.5376 72.0603 22.5376 72.869ZM37.0686 76.0106V71.9305C37.0686 71.4308 36.9618 71.0569 36.7481 70.809C36.5345 70.5572 36.2026 70.4313 35.7525 70.4313C35.1611 70.4313 34.7243 70.6011 34.442 70.9406C34.1597 71.2801 34.0186 71.8028 34.0186 72.5085V76.0106H33.0687V71.9305C33.0687 71.4308 32.9619 71.0569 32.7482 70.809C32.5346 70.5572 32.2008 70.4313 31.7468 70.4313C31.1517 70.4313 30.7149 70.6106 30.4364 70.9692C30.1617 71.324 30.0244 71.9077 30.0244 72.7202V76.0106H29.0745V69.7389H29.847L30.0015 70.5973H30.0473C30.2266 70.2921 30.4784 70.0536 30.8026 69.882C31.1307 69.7103 31.497 69.6245 31.9013 69.6245C32.8818 69.6245 33.5227 69.9792 33.824 70.6888H33.8698C34.0567 70.3607 34.3276 70.1013 34.6824 69.9106C35.0372 69.7198 35.4415 69.6245 35.8955 69.6245C36.6051 69.6245 37.1353 69.8076 37.4863 70.1738C37.8411 70.5362 38.0185 71.118 38.0185 71.9191V76.0106H37.0686ZM42.7186 76.125C41.7915 76.125 41.0591 75.8427 40.5212 75.2781C39.9871 74.7135 39.7201 73.9295 39.7201 72.9262C39.7201 71.9153 39.968 71.1123 40.464 70.5171C40.9637 69.922 41.6332 69.6245 42.4725 69.6245C43.2584 69.6245 43.8802 69.8839 44.338 70.4027C44.7958 70.9177 45.0247 71.5987 45.0247 72.4456V73.0464H40.7043C40.7234 73.7827 40.9084 74.3416 41.2594 74.723C41.6142 75.1045 42.112 75.2953 42.7529 75.2953C43.4281 75.2953 44.0957 75.1541 44.7557 74.8718V75.7187C44.42 75.8637 44.1015 75.9667 43.8001 76.0277C43.5025 76.0926 43.142 76.125 42.7186 76.125ZM42.4611 70.4199C41.9575 70.4199 41.555 70.5839 41.2537 70.912C40.9561 71.2401 40.7806 71.694 40.7272 72.2739H44.0061C44.0061 71.675 43.8726 71.2172 43.6055 70.9005C43.3385 70.5801 42.957 70.4199 42.4611 70.4199ZM52.2389 75.3296C52.8722 75.3296 53.3338 75.1598 53.6237 74.8203C53.9136 74.4808 54.0681 73.9086 54.0872 73.1036V72.8919C54.0872 72.0145 53.9384 71.3831 53.6409 70.9978C53.3433 70.6125 52.8722 70.4199 52.2274 70.4199C51.6705 70.4199 51.2432 70.6373 50.9457 71.0722C50.6519 71.5033 50.505 72.1137 50.505 72.9033C50.505 73.693 50.65 74.2958 50.9399 74.7116C51.2337 75.1236 51.6667 75.3296 52.2389 75.3296ZM52.0958 76.125C51.2871 76.125 50.6557 75.8408 50.2017 75.2724C49.7478 74.704 49.5208 73.9105 49.5208 72.8919C49.5208 71.8657 49.7497 71.0646 50.2075 70.4885C50.6653 69.9125 51.3023 69.6245 52.1187 69.6245C52.9771 69.6245 53.637 69.9487 54.0986 70.5973H54.1501L54.2875 69.7389H55.0371V78.8259H54.0872V76.1422C54.0872 75.7607 54.1082 75.4364 54.1501 75.1694H54.0758C53.637 75.8065 52.9771 76.125 52.0958 76.125ZM58.0377 69.7389V73.8075C58.0377 74.3187 58.154 74.7001 58.3867 74.9519C58.6194 75.2037 58.9837 75.3296 59.4797 75.3296C60.1358 75.3296 60.6146 75.1503 60.916 74.7917C61.2212 74.4331 61.3738 73.8475 61.3738 73.035V69.7389H62.3237V76.0106H61.5397L61.4024 75.1694H61.3509C61.1563 75.4784 60.8855 75.7149 60.5383 75.8789C60.195 76.043 59.802 76.125 59.3595 76.125C58.5965 76.125 58.0243 75.9438 57.6428 75.5814C57.2651 75.219 57.0763 74.6391 57.0763 73.8418V69.7389H58.0377ZM65.3814 76.0106H64.4315V69.7389H65.3814V76.0106ZM64.3514 68.0394C64.3514 67.8219 64.4048 67.6636 64.5117 67.5644C64.6185 67.4614 64.752 67.4099 64.9122 67.4099C65.0648 67.4099 65.1964 67.4614 65.3071 67.5644C65.4177 67.6674 65.473 67.8257 65.473 68.0394C65.473 68.253 65.4177 68.4132 65.3071 68.5201C65.1964 68.6231 65.0648 68.6746 64.9122 68.6746C64.752 68.6746 64.6185 68.6231 64.5117 68.5201C64.4048 68.4132 64.3514 68.253 64.3514 68.0394ZM69.99 76.125C69.082 76.125 68.3782 75.8465 67.8784 75.2895C67.3825 74.7288 67.1345 73.9372 67.1345 72.9148C67.1345 71.8657 67.3863 71.055 67.8899 70.4828C68.3973 69.9106 69.1183 69.6245 70.0529 69.6245C70.3543 69.6245 70.6557 69.6569 70.957 69.7217C71.2584 69.7866 71.4949 69.8629 71.6666 69.9506L71.3748 70.7575C71.1649 70.6735 70.9361 70.6049 70.6881 70.5515C70.4401 70.4942 70.2208 70.4656 70.03 70.4656C68.7559 70.4656 68.1188 71.2782 68.1188 72.9033C68.1188 73.6739 68.2733 74.2653 68.5823 74.6773C68.8951 75.0893 69.3567 75.2953 69.9671 75.2953C70.4897 75.2953 71.0257 75.1827 71.575 74.9577V75.7988C71.1554 76.0163 70.6271 76.125 69.99 76.125ZM74.0949 72.8003C74.259 72.5676 74.5088 72.2624 74.8446 71.8848L76.8703 69.7389H77.9975L75.4568 72.4112L78.1749 76.0106H77.0248L74.8102 73.0464L74.0949 73.6644V76.0106H73.1565V67.1066H74.0949V71.8275C74.0949 72.0374 74.0797 72.3616 74.0491 72.8003H74.0949ZM85.1832 76.125C84.2562 76.125 83.5237 75.8427 82.9858 75.2781C82.4517 74.7135 82.1847 73.9295 82.1847 72.9262C82.1847 71.9153 82.4326 71.1123 82.9286 70.5171C83.4283 69.922 84.0978 69.6245 84.9371 69.6245C85.723 69.6245 86.3448 69.8839 86.8026 70.4027C87.2604 70.9177 87.4893 71.5987 87.4893 72.4456V73.0464H83.1689C83.188 73.7827 83.373 74.3416 83.724 74.723C84.0788 75.1045 84.5766 75.2953 85.2175 75.2953C85.8927 75.2953 86.5603 75.1541 87.2203 74.8718V75.7187C86.8846 75.8637 86.5661 75.9667 86.2647 76.0277C85.9671 76.0926 85.6066 76.125 85.1832 76.125ZM84.9257 70.4199C84.4221 70.4199 84.0196 70.5839 83.7183 70.912C83.4207 71.2401 83.2452 71.694 83.1918 72.2739H86.4707C86.4707 71.675 86.3372 71.2172 86.0701 70.9005C85.8031 70.5801 85.4216 70.4199 84.9257 70.4199ZM90.713 72.8003L88.5328 69.7389H89.6143L91.268 72.1423L92.9161 69.7389H93.9861L91.8059 72.8003L94.1006 76.0106H93.0248L91.268 73.4699L89.4941 76.0106H88.4183L90.713 72.8003ZM99.2928 76.0106L99.104 75.1179H99.0582C98.7454 75.5108 98.4325 75.7779 98.1197 75.919C97.8107 76.0563 97.4235 76.125 96.9581 76.125C96.3363 76.125 95.848 75.9648 95.4932 75.6443C95.1422 75.3239 94.9667 74.868 94.9667 74.2767C94.9667 73.0102 95.9796 72.3464 98.0053 72.2853L99.0696 72.251V71.8619C99.0696 71.3698 98.9628 71.0073 98.7492 70.7746C98.5394 70.5381 98.2017 70.4199 97.7363 70.4199C97.2137 70.4199 96.6224 70.5801 95.9624 70.9005L95.6706 70.1738C95.9796 70.0059 96.3172 69.8743 96.6834 69.779C97.0535 69.6836 97.4235 69.6359 97.7935 69.6359C98.5413 69.6359 99.0944 69.8018 99.453 70.1337C99.8154 70.4656 99.9966 70.9978 99.9966 71.7303V76.0106H99.2928ZM97.1469 75.341C97.7382 75.341 98.2017 75.1789 98.5374 74.8547C98.877 74.5304 99.0467 74.0764 99.0467 73.4927V72.9262L98.0968 72.9663C97.3415 72.993 96.796 73.1113 96.4602 73.3211C96.1284 73.5271 95.9624 73.8494 95.9624 74.2881C95.9624 74.6315 96.0654 74.8928 96.2714 75.0721C96.4812 75.2514 96.7731 75.341 97.1469 75.341ZM110.041 76.0106V71.9305C110.041 71.4308 109.935 71.0569 109.721 70.809C109.507 70.5572 109.175 70.4313 108.725 70.4313C108.134 70.4313 107.697 70.6011 107.415 70.9406C107.133 71.2801 106.991 71.8028 106.991 72.5085V76.0106H106.041V71.9305C106.041 71.4308 105.935 71.0569 105.721 70.809C105.507 70.5572 105.174 70.4313 104.72 70.4313C104.124 70.4313 103.688 70.6106 103.409 70.9692C103.135 71.324 102.997 71.9077 102.997 72.7202V76.0106H102.047V69.7389H102.82L102.974 70.5973H103.02C103.199 70.2921 103.451 70.0536 103.775 69.882C104.103 69.7103 104.47 69.6245 104.874 69.6245C105.855 69.6245 106.495 69.9792 106.797 70.6888H106.843C107.03 70.3607 107.3 70.1013 107.655 69.9106C108.01 69.7198 108.414 69.6245 108.868 69.6245C109.578 69.6245 110.108 69.8076 110.459 70.1738C110.814 70.5362 110.991 71.118 110.991 71.9191V76.0106H110.041ZM115.96 76.125C115.552 76.125 115.178 76.0506 114.839 75.9018C114.503 75.7492 114.221 75.5165 113.992 75.2037H113.923C113.969 75.5699 113.992 75.9171 113.992 76.2452V78.8259H113.042V69.7389H113.814L113.946 70.5973H113.992C114.236 70.2539 114.52 70.0059 114.844 69.8533C115.169 69.7008 115.541 69.6245 115.96 69.6245C116.792 69.6245 117.433 69.9087 117.883 70.4771C118.337 71.0455 118.564 71.8428 118.564 72.869C118.564 73.899 118.333 74.7001 117.872 75.2724C117.414 75.8408 116.777 76.125 115.96 76.125ZM115.823 70.4313C115.182 70.4313 114.719 70.6087 114.432 70.9635C114.146 71.3183 113.999 71.8829 113.992 72.6573V72.869C113.992 73.7502 114.139 74.3816 114.432 74.7631C114.726 75.1408 115.197 75.3296 115.846 75.3296C116.388 75.3296 116.811 75.1102 117.116 74.6715C117.425 74.2328 117.58 73.6282 117.58 72.8576C117.58 72.0755 117.425 71.4766 117.116 71.0608C116.811 70.6411 116.38 70.4313 115.823 70.4313ZM121.267 76.0106H120.317V67.1066H121.267V76.0106ZM126.019 76.125C125.091 76.125 124.359 75.8427 123.821 75.2781C123.287 74.7135 123.02 73.9295 123.02 72.9262C123.02 71.9153 123.268 71.1123 123.764 70.5171C124.264 69.922 124.933 69.6245 125.772 69.6245C126.558 69.6245 127.18 69.8839 127.638 70.4027C128.096 70.9177 128.325 71.5987 128.325 72.4456V73.0464H124.004C124.023 73.7827 124.208 74.3416 124.559 74.723C124.914 75.1045 125.412 75.2953 126.053 75.2953C126.728 75.2953 127.396 75.1541 128.056 74.8718V75.7187C127.72 75.8637 127.401 75.9667 127.1 76.0277C126.802 76.0926 126.442 76.125 126.019 76.125ZM125.761 70.4199C125.257 70.4199 124.855 70.5839 124.554 70.912C124.256 71.2401 124.081 71.694 124.027 72.2739H127.306C127.306 71.675 127.173 71.2172 126.905 70.9005C126.638 70.5801 126.257 70.4199 125.761 70.4199ZM135.196 75.341C135.363 75.341 135.525 75.3296 135.682 75.3067C135.838 75.28 135.962 75.2533 136.054 75.2266V75.9533C135.951 76.0029 135.798 76.043 135.596 76.0735C135.398 76.1078 135.218 76.125 135.058 76.125C133.845 76.125 133.238 75.486 133.238 74.208V70.4771H132.34V70.0193L133.238 69.6245L133.639 68.2854H134.188V69.7389H136.008V70.4771H134.188V74.168C134.188 74.5456 134.278 74.8356 134.457 75.0378C134.637 75.24 134.883 75.341 135.196 75.341ZM140.05 76.125C139.123 76.125 138.391 75.8427 137.853 75.2781C137.319 74.7135 137.052 73.9295 137.052 72.9262C137.052 71.9153 137.3 71.1123 137.795 70.5171C138.295 69.922 138.965 69.6245 139.804 69.6245C140.59 69.6245 141.212 69.8839 141.669 70.4027C142.127 70.9177 142.356 71.5987 142.356 72.4456V73.0464H138.036C138.055 73.7827 138.24 74.3416 138.591 74.723C138.946 75.1045 139.444 75.2953 140.084 75.2953C140.76 75.2953 141.427 75.1541 142.087 74.8718V75.7187C141.752 75.8637 141.433 75.9667 141.132 76.0277C140.834 76.0926 140.474 76.125 140.05 76.125ZM139.793 70.4199C139.289 70.4199 138.887 70.5839 138.585 70.912C138.288 71.2401 138.112 71.694 138.059 72.2739H141.338C141.338 71.675 141.204 71.2172 140.937 70.9005C140.67 70.5801 140.289 70.4199 139.793 70.4199ZM145.58 72.8003L143.4 69.7389H144.481L146.135 72.1423L147.783 69.7389H148.853L146.673 72.8003L148.968 76.0106H147.892L146.135 73.4699L144.361 76.0106H143.285L145.58 72.8003ZM152.329 75.341C152.496 75.341 152.659 75.3296 152.815 75.3067C152.971 75.28 153.095 75.2533 153.187 75.2266V75.9533C153.084 76.0029 152.931 76.043 152.729 76.0735C152.531 76.1078 152.351 76.125 152.191 76.125C150.978 76.125 150.372 75.486 150.372 74.208V70.4771H149.473V70.0193L150.372 69.6245L150.772 68.2854H151.321V69.7389H153.141V70.4771H151.321V74.168C151.321 74.5456 151.411 74.8356 151.59 75.0378C151.77 75.24 152.016 75.341 152.329 75.341ZM17.4083 91.341C17.5762 91.341 17.7383 91.3296 17.8947 91.3067C18.0511 91.28 18.1751 91.2533 18.2667 91.2266V91.9533C18.1637 92.0029 18.0111 92.043 17.8089 92.0735C17.6105 92.1078 17.4312 92.125 17.271 92.125C16.0578 92.125 15.4513 91.486 15.4513 90.208V86.4771H14.5529V86.0193L15.4513 85.6245L15.8518 84.2854H16.4012V85.7389H18.2209V86.4771H16.4012V90.168C16.4012 90.5456 16.4908 90.8356 16.6701 91.0378C16.8494 91.24 17.0955 91.341 17.4083 91.341ZM25.0268 88.869C25.0268 89.8914 24.7693 90.6906 24.2543 91.2667C23.7393 91.8389 23.0278 92.125 22.1198 92.125C21.5591 92.125 21.0612 91.9934 20.6263 91.7302C20.1914 91.4669 19.8557 91.0893 19.6192 90.5971C19.3827 90.105 19.2644 89.529 19.2644 88.869C19.2644 87.8466 19.52 87.0512 20.0312 86.4828C20.5424 85.9106 21.252 85.6245 22.1599 85.6245C23.0373 85.6245 23.7335 85.9163 24.2485 86.5C24.7674 87.0836 25.0268 87.8733 25.0268 88.869ZM20.2486 88.869C20.2486 89.6701 20.4089 90.2805 20.7293 90.7001C21.0498 91.1198 21.5209 91.3296 22.1427 91.3296C22.7646 91.3296 23.2357 91.1217 23.5561 90.7059C23.8804 90.2862 24.0425 89.6739 24.0425 88.869C24.0425 88.0717 23.8804 87.467 23.5561 87.055C23.2357 86.6392 22.7607 86.4313 22.1313 86.4313C21.5095 86.4313 21.0402 86.6354 20.7236 87.0436C20.407 87.4518 20.2486 88.0603 20.2486 88.869ZM32.8361 85.6359C33.6601 85.6359 34.2991 85.9182 34.7531 86.4828C35.2109 87.0436 35.4398 87.839 35.4398 88.869C35.4398 89.899 35.209 90.7001 34.7474 91.2724C34.2896 91.8408 33.6525 92.125 32.8361 92.125C32.4279 92.125 32.0541 92.0506 31.7146 91.9018C31.3788 91.7492 31.0965 91.5165 30.8677 91.2037H30.799L30.5987 92.0106H29.9177V83.1066H30.8677V85.2697C30.8677 85.7542 30.8524 86.1891 30.8219 86.5744H30.8677C31.3102 85.9487 31.9663 85.6359 32.8361 85.6359ZM32.6988 86.4313C32.0503 86.4313 31.5829 86.6182 31.2968 86.9921C31.0107 87.3621 30.8677 87.9878 30.8677 88.869C30.8677 89.7502 31.0145 90.3816 31.3083 90.7631C31.602 91.1408 32.0732 91.3296 32.7217 91.3296C33.3054 91.3296 33.7403 91.1179 34.0264 90.6944C34.3125 90.2672 34.4555 89.6549 34.4555 88.8576C34.4555 88.0412 34.3125 87.4327 34.0264 87.0321C33.7403 86.6316 33.2977 86.4313 32.6988 86.4313ZM38.0856 85.7389V89.8075C38.0856 90.3187 38.2019 90.7001 38.4346 90.9519C38.6673 91.2037 39.0316 91.3296 39.5276 91.3296C40.1837 91.3296 40.6625 91.1503 40.9639 90.7917C41.2691 90.4331 41.4217 89.8475 41.4217 89.035V85.7389H42.3716V92.0106H41.5876L41.4503 91.1694H41.3988C41.2042 91.4784 40.9334 91.7149 40.5862 91.8789C40.2429 92.043 39.8499 92.125 39.4074 92.125C38.6444 92.125 38.0722 91.9438 37.6907 91.5814C37.313 91.219 37.1242 90.6391 37.1242 89.8418V85.7389H38.0856ZM45.4293 92.0106H44.4794V85.7389H45.4293V92.0106ZM44.3993 84.0394C44.3993 83.8219 44.4527 83.6636 44.5595 83.5644C44.6664 83.4614 44.7999 83.4099 44.9601 83.4099C45.1127 83.4099 45.2443 83.4614 45.355 83.5644C45.4656 83.6674 45.5209 83.8257 45.5209 84.0394C45.5209 84.253 45.4656 84.4132 45.355 84.5201C45.2443 84.6231 45.1127 84.6746 44.9601 84.6746C44.7999 84.6746 44.6664 84.6231 44.5595 84.5201C44.4527 84.4132 44.3993 84.253 44.3993 84.0394ZM48.4814 92.0106H47.5315V83.1066H48.4814V92.0106ZM54.8524 91.1694H54.8009C54.3622 91.8065 53.706 92.125 52.8324 92.125C52.0122 92.125 51.3732 91.8446 50.9154 91.2838C50.4615 90.723 50.2345 89.9257 50.2345 88.8919C50.2345 87.8581 50.4634 87.055 50.9212 86.4828C51.3789 85.9106 52.016 85.6245 52.8324 85.6245C53.6831 85.6245 54.3355 85.9335 54.7894 86.5515H54.8638L54.8238 86.0994L54.8009 85.6588V83.1066H55.7508V92.0106H54.9783L54.8524 91.1694ZM52.9526 91.3296C53.6011 91.3296 54.0703 91.1541 54.3603 90.8032C54.654 90.4484 54.8009 89.878 54.8009 89.0922V88.8919C54.8009 88.003 54.6521 87.3698 54.3545 86.9921C54.0608 86.6106 53.5897 86.4199 52.9411 86.4199C52.3842 86.4199 51.9569 86.6373 51.6593 87.0722C51.3656 87.5033 51.2187 88.1137 51.2187 88.9033C51.2187 89.7045 51.3656 90.3091 51.6593 90.7173C51.9531 91.1255 52.3842 91.3296 52.9526 91.3296ZM66.4041 88.869C66.4041 89.8914 66.1466 90.6906 65.6316 91.2667C65.1166 91.8389 64.4051 92.125 63.4972 92.125C62.9364 92.125 62.4386 91.9934 62.0037 91.7302C61.5688 91.4669 61.2331 91.0893 60.9965 90.5971C60.76 90.105 60.6418 89.529 60.6418 88.869C60.6418 87.8466 60.8974 87.0512 61.4086 86.4828C61.9197 85.9106 62.6293 85.6245 63.5373 85.6245C64.4147 85.6245 65.1109 85.9163 65.6259 86.5C66.1447 87.0836 66.4041 87.8733 66.4041 88.869ZM61.626 88.869C61.626 89.6701 61.7862 90.2805 62.1067 90.7001C62.4271 91.1198 62.8983 91.3296 63.5201 91.3296C64.1419 91.3296 64.6131 91.1217 64.9335 90.7059C65.2578 90.2862 65.4199 89.6739 65.4199 88.869C65.4199 88.0717 65.2578 87.467 64.9335 87.055C64.6131 86.6392 64.1381 86.4313 63.5086 86.4313C62.8868 86.4313 62.4176 86.6354 62.101 87.0436C61.7843 87.4518 61.626 88.0603 61.626 88.869ZM72.4547 92.0106V87.9534C72.4547 87.4422 72.3383 87.0608 72.1056 86.809C71.8729 86.5572 71.5086 86.4313 71.0127 86.4313C70.3565 86.4313 69.8758 86.6087 69.5706 86.9635C69.2654 87.3183 69.1129 87.9038 69.1129 88.7202V92.0106H68.1629V85.7389H68.9355L69.09 86.5973H69.1357C69.3303 86.2882 69.6031 86.0498 69.954 85.882C70.305 85.7103 70.696 85.6245 71.1271 85.6245C71.8825 85.6245 72.4509 85.8076 72.8324 86.1738C73.2138 86.5362 73.4046 87.118 73.4046 87.9191V92.0106H72.4547ZM80.6074 91.341C80.7752 91.341 80.9374 91.3296 81.0938 91.3067C81.2502 91.28 81.3742 91.2533 81.4657 91.2266V91.9533C81.3627 92.0029 81.2101 92.043 81.0079 92.0735C80.8096 92.1078 80.6303 92.125 80.47 92.125C79.2569 92.125 78.6503 91.486 78.6503 90.208V86.4771H77.7519V86.0193L78.6503 85.6245L79.0509 84.2854H79.6002V85.7389H81.4199V86.4771H79.6002V90.168C79.6002 90.5456 79.6899 90.8356 79.8692 91.0378C80.0485 91.24 80.2946 91.341 80.6074 91.341ZM87.1043 92.0106V87.9534C87.1043 87.4422 86.9879 87.0608 86.7552 86.809C86.5225 86.5572 86.1582 86.4313 85.6622 86.4313C85.0023 86.4313 84.5197 86.6106 84.2145 86.9692C83.9131 87.3278 83.7624 87.9153 83.7624 88.7317V92.0106H82.8125V83.1066H83.7624V85.8018C83.7624 86.1261 83.7472 86.3951 83.7166 86.6087H83.7739C83.9608 86.3073 84.2259 86.0708 84.5693 85.8991C84.9164 85.7236 85.3113 85.6359 85.7538 85.6359C86.5206 85.6359 87.0947 85.819 87.4762 86.1852C87.8615 86.5477 88.0542 87.1256 88.0542 87.9191V92.0106H87.1043ZM92.7485 92.125C91.8215 92.125 91.0891 91.8427 90.5512 91.2781C90.0171 90.7135 89.75 89.9295 89.75 88.9262C89.75 87.9153 89.998 87.1123 90.4939 86.5171C90.9937 85.922 91.6632 85.6245 92.5025 85.6245C93.2883 85.6245 93.9102 85.8839 94.3679 86.4027C94.8257 86.9177 95.0546 87.5987 95.0546 88.4456V89.0464H90.7343C90.7533 89.7827 90.9384 90.3416 91.2893 90.723C91.6441 91.1045 92.142 91.2953 92.7829 91.2953C93.4581 91.2953 94.1257 91.1541 94.7857 90.8718V91.7187C94.45 91.8637 94.1314 91.9667 93.83 92.0277C93.5325 92.0926 93.172 92.125 92.7485 92.125ZM92.491 86.4199C91.9875 86.4199 91.585 86.5839 91.2836 86.912C90.9861 87.2401 90.8106 87.694 90.7572 88.2739H94.036C94.036 87.675 93.9025 87.2172 93.6355 86.9005C93.3684 86.5801 92.987 86.4199 92.491 86.4199ZM102.406 92.125C101.498 92.125 100.794 91.8465 100.295 91.2895C99.7987 90.7288 99.5508 89.9372 99.5508 88.9148C99.5508 87.8657 99.8025 87.055 100.306 86.4828C100.813 85.9106 101.534 85.6245 102.469 85.6245C102.771 85.6245 103.072 85.6569 103.373 85.7217C103.675 85.7866 103.911 85.8629 104.083 85.9506L103.791 86.7575C103.581 86.6735 103.352 86.6049 103.104 86.5515C102.856 86.4942 102.637 86.4656 102.446 86.4656C101.172 86.4656 100.535 87.2782 100.535 88.9033C100.535 89.6739 100.689 90.2653 100.998 90.6773C101.311 91.0893 101.773 91.2953 102.383 91.2953C102.906 91.2953 103.442 91.1827 103.991 90.9577V91.7988C103.572 92.0163 103.043 92.125 102.406 92.125ZM109.43 92.0106L109.241 91.1179H109.195C108.882 91.5108 108.569 91.7779 108.256 91.919C107.947 92.0563 107.56 92.125 107.095 92.125C106.473 92.125 105.985 91.9648 105.63 91.6443C105.279 91.3239 105.103 90.868 105.103 90.2767C105.103 89.0102 106.116 88.3464 108.142 88.2853L109.206 88.251V87.8619C109.206 87.3698 109.1 87.0073 108.886 86.7746C108.676 86.5381 108.338 86.4199 107.873 86.4199C107.35 86.4199 106.759 86.5801 106.099 86.9005L105.807 86.1738C106.116 86.0059 106.454 85.8743 106.82 85.779C107.19 85.6836 107.56 85.6359 107.93 85.6359C108.678 85.6359 109.231 85.8018 109.59 86.1337C109.952 86.4656 110.133 86.9978 110.133 87.7303V92.0106H109.43ZM107.284 91.341C107.875 91.341 108.338 91.1789 108.674 90.8547C109.014 90.5304 109.183 90.0764 109.183 89.4927V88.9262L108.234 88.9663C107.478 88.993 106.933 89.1113 106.597 89.3211C106.265 89.5271 106.099 89.8494 106.099 90.2881C106.099 90.6315 106.202 90.8928 106.408 91.0721C106.618 91.2514 106.91 91.341 107.284 91.341ZM115.045 85.6245C115.324 85.6245 115.574 85.6473 115.795 85.6931L115.663 86.5744C115.404 86.5171 115.175 86.4885 114.977 86.4885C114.469 86.4885 114.034 86.6945 113.672 87.1065C113.313 87.5185 113.134 88.0316 113.134 88.6458V92.0106H112.184V85.7389H112.968L113.077 86.9005H113.122C113.355 86.4923 113.636 86.1776 113.964 85.9564C114.292 85.7351 114.652 85.6245 115.045 85.6245ZM121.325 91.1694H121.273C120.834 91.8065 120.178 92.125 119.305 92.125C118.484 92.125 117.845 91.8446 117.388 91.2838C116.934 90.723 116.707 89.9257 116.707 88.8919C116.707 87.8581 116.936 87.055 117.393 86.4828C117.851 85.9106 118.488 85.6245 119.305 85.6245C120.155 85.6245 120.808 85.9335 121.262 86.5515H121.336L121.296 86.0994L121.273 85.6588V83.1066H122.223V92.0106H121.451L121.325 91.1694ZM119.425 91.3296C120.073 91.3296 120.543 91.1541 120.832 90.8032C121.126 90.4484 121.273 89.878 121.273 89.0922V88.8919C121.273 88.003 121.124 87.3698 120.827 86.9921C120.533 86.6106 120.062 86.4199 119.413 86.4199C118.856 86.4199 118.429 86.6373 118.132 87.0722C117.838 87.5033 117.691 88.1137 117.691 88.9033C117.691 89.7045 117.838 90.3091 118.132 90.7173C118.425 91.1255 118.856 91.3296 119.425 91.3296ZM129.489 91.341C129.657 91.341 129.819 91.3296 129.975 91.3067C130.132 91.28 130.256 91.2533 130.347 91.2266V91.9533C130.244 92.0029 130.092 92.043 129.889 92.0735C129.691 92.1078 129.512 92.125 129.351 92.125C128.138 92.125 127.532 91.486 127.532 90.208V86.4771H126.633V86.0193L127.532 85.6245L127.932 84.2854H128.482V85.7389H130.301V86.4771H128.482V90.168C128.482 90.5456 128.571 90.8356 128.751 91.0378C128.93 91.24 129.176 91.341 129.489 91.341ZM132.644 92.0106H131.694V85.7389H132.644V92.0106ZM131.614 84.0394C131.614 83.8219 131.667 83.6636 131.774 83.5644C131.881 83.4614 132.014 83.4099 132.175 83.4099C132.327 83.4099 132.459 83.4614 132.569 83.5644C132.68 83.6674 132.735 83.8257 132.735 84.0394C132.735 84.253 132.68 84.4132 132.569 84.5201C132.459 84.6231 132.327 84.6746 132.175 84.6746C132.014 84.6746 131.881 84.6231 131.774 84.5201C131.667 84.4132 131.614 84.253 131.614 84.0394ZM136.772 91.341C136.94 91.341 137.102 91.3296 137.258 91.3067C137.414 91.28 137.538 91.2533 137.63 91.2266V91.9533C137.527 92.0029 137.374 92.043 137.172 92.0735C136.974 92.1078 136.795 92.125 136.634 92.125C135.421 92.125 134.815 91.486 134.815 90.208V86.4771H133.916V86.0193L134.815 85.6245L135.215 84.2854H135.765V85.7389H137.584V86.4771H135.765V90.168C135.765 90.5456 135.854 90.8356 136.033 91.0378C136.213 91.24 136.459 91.341 136.772 91.341ZM139.927 92.0106H138.977V83.1066H139.927V92.0106ZM144.678 92.125C143.751 92.125 143.019 91.8427 142.481 91.2781C141.947 90.7135 141.68 89.9295 141.68 88.9262C141.68 87.9153 141.928 87.1123 142.424 86.5171C142.923 85.922 143.593 85.6245 144.432 85.6245C145.218 85.6245 145.84 85.8839 146.298 86.4027C146.755 86.9177 146.984 87.5987 146.984 88.4456V89.0464H142.664C142.683 89.7827 142.868 90.3416 143.219 90.723C143.574 91.1045 144.072 91.2953 144.713 91.2953C145.388 91.2953 146.055 91.1541 146.715 90.8718V91.7187C146.38 91.8637 146.061 91.9667 145.76 92.0277C145.462 92.0926 145.102 92.125 144.678 92.125ZM144.421 86.4199C143.917 86.4199 143.515 86.5839 143.213 86.912C142.916 87.2401 142.74 87.694 142.687 88.2739H145.966C145.966 87.675 145.832 87.2172 145.565 86.9005C145.298 86.5801 144.917 86.4199 144.421 86.4199ZM19.2395 109.011L19.0506 108.118H19.0048C18.692 108.511 18.3792 108.778 18.0664 108.919C17.7574 109.056 17.3702 109.125 16.9048 109.125C16.2829 109.125 15.7946 108.965 15.4398 108.644C15.0889 108.324 14.9134 107.868 14.9134 107.277C14.9134 106.01 15.9262 105.346 17.9519 105.285L19.0163 105.251V104.862C19.0163 104.37 18.9095 104.007 18.6958 103.775C18.486 103.538 18.1484 103.42 17.683 103.42C17.1603 103.42 16.569 103.58 15.9091 103.901L15.6172 103.174C15.9262 103.006 16.2639 102.874 16.6301 102.779C17.0001 102.684 17.3702 102.636 17.7402 102.636C18.4879 102.636 19.0411 102.802 19.3997 103.134C19.7621 103.466 19.9433 103.998 19.9433 104.73V109.011H19.2395ZM17.0936 108.341C17.6849 108.341 18.1484 108.179 18.4841 107.855C18.8236 107.53 18.9934 107.076 18.9934 106.493V105.926L18.0435 105.966C17.2881 105.993 16.7426 106.111 16.4069 106.321C16.075 106.527 15.9091 106.849 15.9091 107.288C15.9091 107.631 16.0121 107.893 16.2181 108.072C16.4279 108.251 16.7197 108.341 17.0936 108.341ZM26.2857 109.011V104.953C26.2857 104.442 26.1693 104.061 25.9366 103.809C25.7039 103.557 25.3396 103.431 24.8437 103.431C24.1875 103.431 23.7068 103.609 23.4016 103.963C23.0964 104.318 22.9439 104.904 22.9439 105.72V109.011H21.9939V102.739H22.7665L22.921 103.597H22.9667C23.1613 103.288 23.4341 103.05 23.785 102.882C24.136 102.71 24.527 102.624 24.9581 102.624C25.7135 102.624 26.2819 102.808 26.6634 103.174C27.0448 103.536 27.2356 104.118 27.2356 104.919V109.011H26.2857ZM33.5494 108.169H33.4979C33.0591 108.806 32.403 109.125 31.5294 109.125C30.7092 109.125 30.0702 108.845 29.6124 108.284C29.1584 107.723 28.9315 106.926 28.9315 105.892C28.9315 104.858 29.1603 104.055 29.6181 103.483C30.0759 102.911 30.713 102.624 31.5294 102.624C32.3801 102.624 33.0324 102.933 33.4864 103.551H33.5608L33.5207 103.099L33.4979 102.659V100.107H34.4478V109.011H33.6753L33.5494 108.169ZM31.6496 108.33C32.2981 108.33 32.7673 108.154 33.0572 107.803C33.351 107.448 33.4979 106.878 33.4979 106.092V105.892C33.4979 105.003 33.3491 104.37 33.0515 103.992C32.7578 103.611 32.2866 103.42 31.6381 103.42C31.0811 103.42 30.6539 103.637 30.3563 104.072C30.0626 104.503 29.9157 105.114 29.9157 105.903C29.9157 106.704 30.0626 107.309 30.3563 107.717C30.6501 108.126 31.0811 108.33 31.6496 108.33ZM47.6819 109.011V104.931C47.6819 104.431 47.5751 104.057 47.3614 103.809C47.1478 103.557 46.8159 103.431 46.3657 103.431C45.7744 103.431 45.3376 103.601 45.0553 103.941C44.773 104.28 44.6319 104.803 44.6319 105.509V109.011H43.682V104.931C43.682 104.431 43.5752 104.057 43.3615 103.809C43.1479 103.557 42.8141 103.431 42.3601 103.431C41.765 103.431 41.3282 103.611 41.0497 103.969C40.775 104.324 40.6377 104.908 40.6377 105.72V109.011H39.6878V102.739H40.4603L40.6148 103.597H40.6606C40.8399 103.292 41.0917 103.054 41.4159 102.882C41.744 102.71 42.1102 102.624 42.5146 102.624C43.495 102.624 44.1359 102.979 44.4373 103.689H44.4831C44.67 103.361 44.9409 103.101 45.2957 102.911C45.6504 102.72 46.0548 102.624 46.5088 102.624C47.2184 102.624 47.7486 102.808 48.0996 103.174C48.4544 103.536 48.6318 104.118 48.6318 104.919V109.011H47.6819ZM54.5393 109.011L54.3504 108.118H54.3046C53.9918 108.511 53.679 108.778 53.3662 108.919C53.0572 109.056 52.67 109.125 52.2046 109.125C51.5827 109.125 51.0944 108.965 50.7396 108.644C50.3887 108.324 50.2132 107.868 50.2132 107.277C50.2132 106.01 51.226 105.346 53.2517 105.285L54.3161 105.251V104.862C54.3161 104.37 54.2093 104.007 53.9956 103.775C53.7858 103.538 53.4482 103.42 52.9828 103.42C52.4602 103.42 51.8689 103.58 51.2089 103.901L50.917 103.174C51.226 103.006 51.5637 102.874 51.9299 102.779C52.2999 102.684 52.67 102.636 53.04 102.636C53.7877 102.636 54.3409 102.802 54.6995 103.134C55.0619 103.466 55.2431 103.998 55.2431 104.73V109.011H54.5393ZM52.3934 108.341C52.9847 108.341 53.4482 108.179 53.7839 107.855C54.1234 107.53 54.2932 107.076 54.2932 106.493V105.926L53.3433 105.966C52.588 105.993 52.0424 106.111 51.7067 106.321C51.3748 106.527 51.2089 106.849 51.2089 107.288C51.2089 107.631 51.3119 107.893 51.5179 108.072C51.7277 108.251 52.0195 108.341 52.3934 108.341ZM58.2322 105.8C58.3963 105.568 58.6461 105.262 58.9818 104.885L61.0075 102.739H62.1348L59.5941 105.411L62.3122 109.011H61.162L58.9475 106.046L58.2322 106.664V109.011H57.2938V100.107H58.2322V104.828C58.2322 105.037 58.217 105.362 58.1864 105.8H58.2322ZM66.1883 109.125C65.2613 109.125 64.5288 108.843 63.9909 108.278C63.4568 107.714 63.1898 106.93 63.1898 105.926C63.1898 104.915 63.4378 104.112 63.9337 103.517C64.4334 102.922 65.103 102.624 65.9422 102.624C66.7281 102.624 67.3499 102.884 67.8077 103.403C68.2655 103.918 68.4944 104.599 68.4944 105.446V106.046H64.174C64.1931 106.783 64.3781 107.342 64.7291 107.723C65.0839 108.105 65.5817 108.295 66.2226 108.295C66.8979 108.295 67.5655 108.154 68.2254 107.872V108.719C67.8897 108.864 67.5712 108.967 67.2698 109.028C66.9722 109.093 66.6117 109.125 66.1883 109.125ZM65.9308 103.42C65.4272 103.42 65.0248 103.584 64.7234 103.912C64.4258 104.24 64.2503 104.694 64.1969 105.274H67.4758C67.4758 104.675 67.3423 104.217 67.0752 103.901C66.8082 103.58 66.4267 103.42 65.9308 103.42ZM74.2323 102.739V106.807C74.2323 107.319 74.3486 107.7 74.5813 107.952C74.814 108.204 75.1784 108.33 75.6743 108.33C76.3304 108.33 76.8092 108.15 77.1106 107.792C77.4158 107.433 77.5684 106.848 77.5684 106.035V102.739H78.5183V109.011H77.7343L77.597 108.169H77.5455C77.3509 108.478 77.0801 108.715 76.7329 108.879C76.3896 109.043 75.9966 109.125 75.5541 109.125C74.7911 109.125 74.2189 108.944 73.8374 108.581C73.4598 108.219 73.2709 107.639 73.2709 106.842V102.739H74.2323ZM83.5445 109.125C83.1363 109.125 82.7625 109.051 82.423 108.902C82.0872 108.749 81.8049 108.517 81.576 108.204H81.5074C81.5532 108.57 81.576 108.917 81.576 109.245V111.826H80.6261V102.739H81.3987L81.5303 103.597H81.576C81.8202 103.254 82.1044 103.006 82.4287 102.853C82.7529 102.701 83.1249 102.624 83.5445 102.624C84.3762 102.624 85.0171 102.909 85.4672 103.477C85.9212 104.045 86.1482 104.843 86.1482 105.869C86.1482 106.899 85.9174 107.7 85.4558 108.272C84.998 108.841 84.3609 109.125 83.5445 109.125ZM83.4072 103.431C82.7663 103.431 82.3028 103.609 82.0167 103.963C81.7306 104.318 81.5837 104.883 81.576 105.657V105.869C81.576 106.75 81.7229 107.382 82.0167 107.763C82.3104 108.141 82.7816 108.33 83.4301 108.33C83.9718 108.33 84.3952 108.11 84.7004 107.672C85.0094 107.233 85.1639 106.628 85.1639 105.858C85.1639 105.076 85.0094 104.477 84.7004 104.061C84.3952 103.641 83.9642 103.431 83.4072 103.431Z" fill="#6A6E79"/>
<path d="M17.4622 134.659C16.6348 134.659 15.9807 134.936 15.5001 135.488C15.0228 136.038 14.7842 136.791 14.7842 137.749C14.7842 138.735 15.0142 139.497 15.4743 140.036C15.9378 140.572 16.597 140.839 17.4519 140.839C17.9773 140.839 18.5764 140.745 19.2493 140.556V141.323C18.7274 141.519 18.0837 141.617 17.318 141.617C16.2091 141.617 15.3524 141.281 14.7481 140.608C14.1473 139.935 13.8469 138.978 13.8469 137.739C13.8469 136.963 13.9911 136.283 14.2795 135.7C14.5713 135.116 14.9902 134.666 15.5361 134.35C16.0855 134.034 16.7309 133.876 17.4725 133.876C18.2622 133.876 18.9523 134.021 19.5429 134.309L19.1721 135.061C18.6021 134.793 18.0322 134.659 17.4622 134.659ZM24.2346 141.514L24.0646 140.711H24.0234C23.7419 141.064 23.4604 141.305 23.1788 141.432C22.9007 141.555 22.5522 141.617 22.1334 141.617C21.5737 141.617 21.1343 141.473 20.8149 141.184C20.4991 140.896 20.3411 140.486 20.3411 139.954C20.3411 138.814 21.2527 138.216 23.0758 138.161L24.0337 138.13V137.78C24.0337 137.337 23.9376 137.011 23.7453 136.802C23.5565 136.589 23.2527 136.482 22.8338 136.482C22.3634 136.482 21.8312 136.627 21.2373 136.915L20.9746 136.261C21.2527 136.11 21.5566 135.991 21.8862 135.906C22.2192 135.82 22.5522 135.777 22.8853 135.777C23.5582 135.777 24.0561 135.926 24.3788 136.225C24.705 136.524 24.8681 137.003 24.8681 137.662V141.514H24.2346ZM22.3033 140.911C22.8355 140.911 23.2527 140.766 23.5548 140.474C23.8604 140.182 24.0131 139.773 24.0131 139.248V138.738L23.1582 138.774C22.4784 138.798 21.9874 138.905 21.6853 139.093C21.3866 139.279 21.2373 139.569 21.2373 139.964C21.2373 140.273 21.33 140.508 21.5154 140.669C21.7042 140.831 21.9668 140.911 22.3033 140.911ZM29.2096 135.767C29.4602 135.767 29.6851 135.787 29.8842 135.828L29.7658 136.621C29.5323 136.57 29.3263 136.544 29.1478 136.544C28.6911 136.544 28.2997 136.73 27.9736 137.1C27.6508 137.471 27.4895 137.933 27.4895 138.486V141.514H26.6345V135.87H27.3401L27.438 136.915H27.4792C27.6886 136.548 27.9409 136.264 28.2362 136.065C28.5315 135.866 28.8559 135.767 29.2096 135.767ZM34.782 140.757H34.7356C34.3408 141.33 33.7502 141.617 32.964 141.617C32.2258 141.617 31.6507 141.365 31.2387 140.86C30.8301 140.355 30.6259 139.638 30.6259 138.707C30.6259 137.777 30.8319 137.054 31.2439 136.539C31.6559 136.024 32.2292 135.767 32.964 135.767C33.7296 135.767 34.3167 136.045 34.7253 136.601H34.7923L34.7562 136.194L34.7356 135.797V133.501H35.5905V141.514H34.8953L34.782 140.757ZM33.0721 140.901C33.6558 140.901 34.0781 140.743 34.3391 140.427C34.6034 140.108 34.7356 139.595 34.7356 138.887V138.707C34.7356 137.907 34.6017 137.337 34.3339 136.997C34.0695 136.654 33.6455 136.482 33.0618 136.482C32.5606 136.482 32.176 136.678 31.9082 137.07C31.6439 137.457 31.5117 138.007 31.5117 138.718C31.5117 139.439 31.6439 139.983 31.9082 140.35C32.1726 140.717 32.5606 140.901 33.0721 140.901ZM41.1526 141.514H40.2771V133.985H44.4744V134.762H41.1526V137.518H44.2736V138.295H41.1526V141.514ZM50.4691 138.687C50.4691 139.607 50.2374 140.326 49.7739 140.845C49.3104 141.36 48.67 141.617 47.8529 141.617C47.3482 141.617 46.9001 141.499 46.5087 141.262C46.1173 141.025 45.8152 140.685 45.6023 140.242C45.3894 139.799 45.283 139.281 45.283 138.687C45.283 137.766 45.513 137.051 45.9731 136.539C46.4332 136.024 47.0718 135.767 47.8889 135.767C48.6786 135.767 49.3052 136.029 49.7687 136.555C50.2357 137.08 50.4691 137.791 50.4691 138.687ZM46.1688 138.687C46.1688 139.408 46.313 139.957 46.6014 140.335C46.8898 140.712 47.3138 140.901 47.8735 140.901C48.4331 140.901 48.8571 140.714 49.1456 140.34C49.4374 139.962 49.5833 139.411 49.5833 138.687C49.5833 137.969 49.4374 137.425 49.1456 137.054C48.8571 136.68 48.4297 136.493 47.8632 136.493C47.3035 136.493 46.8812 136.676 46.5963 137.044C46.3113 137.411 46.1688 137.959 46.1688 138.687ZM56.8449 138.687C56.8449 139.607 56.6132 140.326 56.1497 140.845C55.6862 141.36 55.0458 141.617 54.2287 141.617C53.724 141.617 53.2759 141.499 52.8845 141.262C52.4931 141.025 52.191 140.685 51.9781 140.242C51.7652 139.799 51.6588 139.281 51.6588 138.687C51.6588 137.766 51.8888 137.051 52.3489 136.539C52.809 136.024 53.4476 135.767 54.2647 135.767C55.0544 135.767 55.681 136.029 56.1445 136.555C56.6115 137.08 56.8449 137.791 56.8449 138.687ZM52.5446 138.687C52.5446 139.408 52.6888 139.957 52.9772 140.335C53.2656 140.712 53.6896 140.901 54.2493 140.901C54.8089 140.901 55.2329 140.714 55.5214 140.34C55.8132 139.962 55.9591 139.411 55.9591 138.687C55.9591 137.969 55.8132 137.425 55.5214 137.054C55.2329 136.68 54.8055 136.493 54.239 136.493C53.6793 136.493 53.257 136.676 52.9721 137.044C52.6871 137.411 52.5446 137.959 52.5446 138.687ZM60.1719 140.911C60.3229 140.911 60.4689 140.901 60.6096 140.881C60.7504 140.857 60.862 140.833 60.9444 140.808V141.463C60.8517 141.507 60.7144 141.543 60.5324 141.571C60.3538 141.602 60.1925 141.617 60.0483 141.617C58.9565 141.617 58.4105 141.042 58.4105 139.892V136.534H57.602V136.122L58.4105 135.767L58.7711 134.561H59.2655V135.87H60.9032V136.534H59.2655V139.856C59.2655 140.196 59.3461 140.457 59.5075 140.639C59.6689 140.82 59.8903 140.911 60.1719 140.911ZM64.4619 141.617C63.6276 141.617 62.9684 141.363 62.4843 140.855C62.0036 140.347 61.7633 139.641 61.7633 138.738C61.7633 137.828 61.9864 137.106 62.4328 136.57C62.8825 136.034 63.4851 135.767 64.2404 135.767C64.9477 135.767 65.5074 136 65.9194 136.467C66.3314 136.93 66.5374 137.543 66.5374 138.306V138.846H62.6491C62.6662 139.509 62.8328 140.012 63.1486 140.355C63.4679 140.699 63.916 140.87 64.4928 140.87C65.1005 140.87 65.7013 140.743 66.2953 140.489V141.251C65.9932 141.382 65.7065 141.475 65.4353 141.529C65.1675 141.588 64.843 141.617 64.4619 141.617ZM64.2301 136.482C63.7769 136.482 63.4147 136.63 63.1435 136.925C62.8757 137.221 62.7177 137.629 62.6697 138.151H65.6207C65.6207 137.612 65.5005 137.2 65.2602 136.915C65.0198 136.627 64.6765 136.482 64.2301 136.482ZM70.575 135.767C70.8257 135.767 71.0506 135.787 71.2497 135.828L71.1313 136.621C70.8978 136.57 70.6918 136.544 70.5132 136.544C70.0566 136.544 69.6652 136.73 69.339 137.1C69.0163 137.471 68.8549 137.933 68.8549 138.486V141.514H68V135.87H68.7056L68.8034 136.915H68.8446C69.0541 136.548 69.3064 136.264 69.6017 136.065C69.897 135.866 70.2214 135.767 70.575 135.767Z" fill="#6A6E79"/>
<path d="M152.585 141.686H156.257V145.358H152.585V141.686Z" fill="#252A2E"/>
<path d="M152.585 130.67H156.257V134.342H152.585V130.67Z" fill="black"/>
<path d="M152.585 136.178H156.257V139.85H152.585V136.178Z" fill="black"/>
<rect x="5.29298" y="5.29298" width="166.414" height="155.867" rx="2.05088" stroke="#CBCDD6" stroke-width="0.585965"/>
</g>
<defs>
<filter id="filter0_ddd_7253_83276" x="0.312281" y="0.898246" width="176.375" height="165.828" filterUnits="userSpaceOnUse" color-interpolation-filters="sRGB">
<feFlood flood-opacity="0" result="BackgroundImageFix"/>
<feColorMatrix in="SourceAlpha" type="matrix" values="0 0 0 0 0 0 0 0 0 0 0 0 0 0 0 0 0 0 127 0" result="hardAlpha"/>
<feOffset dy="0.585965"/>
<feGaussianBlur stdDeviation="2.34386"/>
<feColorMatrix type="matrix" values="0 0 0 0 0 0 0 0 0 0 0 0 0 0 0 0 0 0 0.2 0"/>
<feBlend mode="normal" in2="BackgroundImageFix" result="effect1_dropShadow_7253_83276"/>
<feColorMatrix in="SourceAlpha" type="matrix" values="0 0 0 0 0 0 0 0 0 0 0 0 0 0 0 0 0 0 127 0" result="hardAlpha"/>
<feOffset dy="1.75789"/>
<feGaussianBlur stdDeviation="0.878947"/>
<feColorMatrix type="matrix" values="0 0 0 0 0 0 0 0 0 0 0 0 0 0 0 0 0 0 0.12 0"/>
<feBlend mode="normal" in2="effect1_dropShadow_7253_83276" result="effect2_dropShadow_7253_83276"/>
<feColorMatrix in="SourceAlpha" type="matrix" values="0 0 0 0 0 0 0 0 0 0 0 0 0 0 0 0 0 0 127 0" result="hardAlpha"/>
<feOffset dy="1.75789"/>
<feGaussianBlur stdDeviation="1.17193"/>
<feColorMatrix type="matrix" values="0 0 0 0 0 0 0 0 0 0 0 0 0 0 0 0 0 0 0.14 0"/>
<feBlend mode="normal" in2="effect2_dropShadow_7253_83276" result="effect3_dropShadow_7253_83276"/>
<feBlend mode="normal" in="SourceGraphic" in2="effect3_dropShadow_7253_83276" result="shape"/>
</filter>
</defs>
</svg>
