<svg width="180" height="173" viewBox="0 0 180 173" fill="none" xmlns="http://www.w3.org/2000/svg">
<rect x="5" y="5.02979" width="172.688" height="163.312" rx="2.5" fill="#585C65"/>
<path d="M19.2309 25.1812C18.4298 25.1812 17.8095 25.4834 17.37 26.0876C16.9305 26.6873 16.7108 27.5251 16.7108 28.6009C16.7108 30.8394 17.5508 31.9587 19.2309 31.9587C19.9359 31.9587 20.7896 31.7825 21.7922 31.43V33.2153C20.9682 33.5587 20.048 33.7304 19.0317 33.7304C17.5714 33.7304 16.4544 33.2886 15.6808 32.4051C14.9071 31.517 14.5203 30.2443 14.5203 28.5871C14.5203 27.5434 14.7103 26.6301 15.0902 25.8473C15.4702 25.0599 16.0149 24.4579 16.7245 24.0413C17.4387 23.6202 18.2741 23.4096 19.2309 23.4096C20.206 23.4096 21.1856 23.6453 22.1699 24.1169L21.4832 25.8473C21.1078 25.6688 20.7301 25.5131 20.3502 25.3804C19.9702 25.2476 19.5971 25.1812 19.2309 25.1812ZM28.7331 33.593L28.328 32.5493H28.2731C27.9206 32.9933 27.5566 33.3023 27.1812 33.4763C26.8104 33.6457 26.3252 33.7304 25.7255 33.7304C24.9884 33.7304 24.4071 33.5198 23.9813 33.0986C23.5602 32.6774 23.3496 32.0777 23.3496 31.2995C23.3496 30.4847 23.6334 29.885 24.2011 29.5004C24.7733 29.1113 25.6339 28.8961 26.783 28.8549L28.1151 28.8137V28.4773C28.1151 27.699 27.7168 27.3099 26.9203 27.3099C26.3069 27.3099 25.5859 27.4953 24.7573 27.8661L24.0637 26.4516C24.9472 25.9892 25.9269 25.758 27.0027 25.758C28.0327 25.758 28.8224 25.9823 29.3717 26.431C29.9211 26.8796 30.1957 27.5617 30.1957 28.4773V33.593H28.7331ZM28.1151 30.036L27.3048 30.0635C26.696 30.0818 26.2428 30.1917 25.9452 30.3931C25.6477 30.5945 25.4989 30.9012 25.4989 31.3132C25.4989 31.9038 25.8376 32.1991 26.5152 32.1991C27.0004 32.1991 27.3872 32.0594 27.6756 31.7802C27.9686 31.5009 28.1151 31.1301 28.1151 30.6678V30.036ZM36.7315 25.7718C37.0154 25.7718 37.2511 25.7924 37.4388 25.8336L37.2809 27.7975C37.1115 27.7517 36.9055 27.7288 36.6629 27.7288C35.9945 27.7288 35.4726 27.9005 35.0973 28.2438C34.7264 28.5871 34.541 29.0678 34.541 29.6858V33.593H32.4467V25.916H34.0329L34.3419 27.2069H34.4449C34.683 26.7766 35.0034 26.431 35.4063 26.17C35.8137 25.9045 36.2555 25.7718 36.7315 25.7718ZM41.3515 33.7304C40.4497 33.7304 39.7401 33.3801 39.2228 32.6797C38.7101 31.9793 38.4537 31.0088 38.4537 29.7682C38.4537 28.5093 38.7147 27.5297 39.2365 26.8292C39.763 26.1243 40.4863 25.7718 41.4064 25.7718C42.3724 25.7718 43.1094 26.1471 43.6176 26.8979H43.6862C43.5809 26.3257 43.5283 25.8152 43.5283 25.3666V22.9083H45.6295V33.593H44.0227L43.6176 32.5973H43.5283C43.0522 33.3527 42.3266 33.7304 41.3515 33.7304ZM42.0863 32.0617C42.6219 32.0617 43.0133 31.9061 43.2605 31.5948C43.5123 31.2835 43.6496 30.7548 43.6725 30.0086V29.782C43.6725 28.9579 43.5443 28.3674 43.2879 28.0103C43.0362 27.6533 42.6242 27.4747 42.0519 27.4747C41.585 27.4747 41.221 27.6739 40.9601 28.0721C40.7037 28.4658 40.5756 29.0403 40.5756 29.7957C40.5756 30.551 40.706 31.1187 40.967 31.4987C41.2279 31.874 41.601 32.0617 42.0863 32.0617ZM55.6866 33.593H53.5579V25.3254H50.8318V23.5538H58.4127V25.3254H55.6866V33.593ZM59.7916 23.9315C59.7916 23.2494 60.1715 22.9083 60.9314 22.9083C61.6914 22.9083 62.0713 23.2494 62.0713 23.9315C62.0713 24.2565 61.9752 24.5106 61.7829 24.6937C61.5952 24.8722 61.3114 24.9615 60.9314 24.9615C60.1715 24.9615 59.7916 24.6181 59.7916 23.9315ZM61.9752 33.593H59.8808V25.916H61.9752V33.593ZM67.5016 32.0617C67.8678 32.0617 68.3073 31.9816 68.82 31.8214V33.3801C68.2981 33.6136 67.6572 33.7304 66.8973 33.7304C66.0595 33.7304 65.4484 33.5198 65.0639 33.0986C64.6839 32.6729 64.4939 32.0365 64.4939 31.1896V27.4885H63.4914V26.6026L64.645 25.9022L65.2493 24.2817H66.5883V25.916H68.7376V27.4885H66.5883V31.1896C66.5883 31.4872 66.6707 31.7069 66.8355 31.8489C67.0049 31.9908 67.2269 32.0617 67.5016 32.0617ZM72.561 33.593H70.4666V22.9083H72.561V33.593ZM78.0325 27.2618C77.5884 27.2618 77.2405 27.4038 76.9887 27.6876C76.7369 27.9668 76.5927 28.3651 76.5561 28.8824H79.4951C79.4859 28.3651 79.3509 27.9668 79.0899 27.6876C78.829 27.4038 78.4765 27.2618 78.0325 27.2618ZM78.3277 33.7304C77.0917 33.7304 76.1258 33.3893 75.43 32.7072C74.7341 32.0251 74.3862 31.0592 74.3862 29.8094C74.3862 28.523 74.7067 27.5297 75.3476 26.8292C75.993 26.1243 76.8834 25.7718 78.0187 25.7718C79.1037 25.7718 79.9483 26.0808 80.5526 26.6988C81.1568 27.3168 81.459 28.1706 81.459 29.2601V30.2764H76.508C76.5309 30.8715 76.7072 31.3361 77.0368 31.6703C77.3664 32.0045 77.8287 32.1716 78.4239 32.1716C78.8862 32.1716 79.3234 32.1235 79.7354 32.0274C80.1474 31.9313 80.5777 31.7779 81.0264 31.5673V33.1879C80.6601 33.371 80.2687 33.506 79.8522 33.593C79.4356 33.6846 78.9274 33.7304 78.3277 33.7304ZM19.5742 48.367C19.5742 49.1033 19.3072 49.6774 18.7731 50.0895C18.239 50.5015 17.5142 50.7075 16.5986 50.7075C15.6067 50.7075 14.8438 50.5797 14.3097 50.3241V49.3856C14.653 49.5306 15.0269 49.645 15.4313 49.7289C15.8356 49.8129 16.2362 49.8548 16.6329 49.8548C17.2815 49.8548 17.7698 49.7328 18.0979 49.4886C18.4259 49.2406 18.59 48.8973 18.59 48.4586C18.59 48.1687 18.5309 47.9321 18.4126 47.749C18.2981 47.5621 18.1036 47.3904 17.8289 47.234C17.5581 47.0776 17.1441 46.9002 16.5872 46.7018C15.8089 46.4234 15.252 46.0934 14.9163 45.7119C14.5844 45.3304 14.4184 44.8326 14.4184 44.2184C14.4184 43.5736 14.6607 43.0605 15.1451 42.6791C15.6296 42.2976 16.2705 42.1068 17.0678 42.1068C17.8995 42.1068 18.6644 42.2594 19.3625 42.5646L19.0592 43.4115C18.3687 43.1216 17.6973 42.9766 17.045 42.9766C16.5299 42.9766 16.1275 43.0872 15.8375 43.3085C15.5476 43.5298 15.4027 43.8369 15.4027 44.2298C15.4027 44.5197 15.4561 44.7582 15.5629 44.9451C15.6697 45.1282 15.849 45.298 16.1008 45.4544C16.3564 45.607 16.7455 45.7767 17.2681 45.9637C18.1455 46.2765 18.7483 46.6122 19.0764 46.9708C19.4083 47.3294 19.5742 47.7948 19.5742 48.367ZM22.1227 44.3214V48.3899C22.1227 48.9011 22.2391 49.2826 22.4718 49.5344C22.7045 49.7862 23.0688 49.9121 23.5647 49.9121C24.2209 49.9121 24.6997 49.7328 25.001 49.3742C25.3062 49.0156 25.4588 48.43 25.4588 47.6174V44.3214H26.4087V50.593H25.6248L25.4874 49.7518H25.4359C25.2414 50.0608 24.9705 50.2974 24.6234 50.4614C24.28 50.6254 23.8871 50.7075 23.4446 50.7075C22.6816 50.7075 22.1094 50.5263 21.7279 50.1638C21.3502 49.8014 21.1614 49.2216 21.1614 48.4243V44.3214H22.1227ZM31.435 44.2184C32.259 44.2184 32.898 44.5007 33.3519 45.0653C33.8097 45.626 34.0386 46.4215 34.0386 47.4515C34.0386 48.4815 33.8078 49.2826 33.3462 49.8548C32.8884 50.4233 32.2514 50.7075 31.435 50.7075C31.0268 50.7075 30.6529 50.6331 30.3134 50.4843C29.9777 50.3317 29.6954 50.099 29.4665 49.7862H29.3978L29.1975 50.593H28.5166V41.6891H29.4665V43.8521C29.4665 44.3366 29.4512 44.7715 29.4207 45.1568H29.4665C29.909 44.5312 30.5652 44.2184 31.435 44.2184ZM31.2976 45.0138C30.6491 45.0138 30.1818 45.2007 29.8957 45.5745C29.6096 45.9446 29.4665 46.5702 29.4665 47.4515C29.4665 48.3327 29.6134 48.9641 29.9071 49.3456C30.2009 49.7232 30.672 49.9121 31.3205 49.9121C31.9042 49.9121 32.3391 49.7003 32.6252 49.2769C32.9113 48.8496 33.0544 48.2373 33.0544 47.44C33.0544 46.6236 32.9113 46.0152 32.6252 45.6146C32.3391 45.214 31.8966 45.0138 31.2976 45.0138ZM35.2653 47.8864V47.0166H38.0749V47.8864H35.2653ZM41.682 49.9235C41.8499 49.9235 42.012 49.9121 42.1684 49.8892C42.3248 49.8625 42.4488 49.8358 42.5404 49.8091V50.5358C42.4374 50.5854 42.2848 50.6254 42.0826 50.656C41.8842 50.6903 41.7049 50.7075 41.5447 50.7075C40.3316 50.7075 39.725 50.0685 39.725 48.7905V45.0595H38.8266V44.6018L39.725 44.2069L40.1256 42.8679H40.6749V44.3214H42.4946V45.0595H40.6749V48.7504C40.6749 49.1281 40.7646 49.418 40.9439 49.6202C41.1232 49.8224 41.3692 49.9235 41.682 49.9235ZM46.5366 50.7075C45.6096 50.7075 44.8771 50.4252 44.3392 49.8606C43.8052 49.296 43.5381 48.512 43.5381 47.5087C43.5381 46.4977 43.7861 45.6947 44.282 45.0996C44.7818 44.5045 45.4513 44.2069 46.2906 44.2069C47.0764 44.2069 47.6982 44.4663 48.156 44.9852C48.6138 45.5002 48.8427 46.1811 48.8427 47.028V47.6289H44.5224C44.5414 48.3651 44.7265 48.924 45.0774 49.3055C45.4322 49.687 45.9301 49.8777 46.571 49.8777C47.2462 49.8777 47.9138 49.7366 48.5738 49.4543V50.3012C48.2381 50.4461 47.9195 50.5491 47.6181 50.6102C47.3206 50.675 46.9601 50.7075 46.5366 50.7075ZM46.2791 45.0023C45.7755 45.0023 45.3731 45.1664 45.0717 45.4944C44.7741 45.8225 44.5987 46.2765 44.5453 46.8563H47.8241C47.8241 46.2574 47.6906 45.7996 47.4236 45.483C47.1565 45.1625 46.775 45.0023 46.2791 45.0023ZM52.0664 47.3828L49.8862 44.3214H50.9677L52.6215 46.7247L54.2695 44.3214H55.3396L53.1594 47.3828L55.454 50.593H54.3782L52.6215 48.0523L50.8476 50.593H49.7718L52.0664 47.3828ZM58.8151 49.9235C58.983 49.9235 59.1451 49.9121 59.3015 49.8892C59.4579 49.8625 59.5819 49.8358 59.6734 49.8091V50.5358C59.5704 50.5854 59.4178 50.6254 59.2157 50.656C59.0173 50.6903 58.838 50.7075 58.6778 50.7075C57.4646 50.7075 56.8581 50.0685 56.8581 48.7905V45.0595H55.9597V44.6018L56.8581 44.2069L57.2586 42.8679H57.808V44.3214H59.6277V45.0595H57.808V48.7504C57.808 49.1281 57.8976 49.418 58.0769 49.6202C58.2562 49.8224 58.5023 49.9235 58.8151 49.9235Z" fill="white"/>
<path d="M20.7461 74.3143C20.7461 75.0506 20.4791 75.6247 19.945 76.0367C19.4109 76.4487 18.6861 76.6547 17.7705 76.6547C16.7786 76.6547 16.0156 76.5269 15.4816 76.2713V75.3329C15.8249 75.4778 16.1988 75.5923 16.6031 75.6762C17.0075 75.7601 17.4081 75.8021 17.8048 75.8021C18.4534 75.8021 18.9417 75.68 19.2697 75.4359C19.5978 75.1879 19.7619 74.8446 19.7619 74.4059C19.7619 74.1159 19.7027 73.8794 19.5845 73.6963C19.47 73.5094 19.2755 73.3377 19.0008 73.1813C18.7299 73.0249 18.316 72.8475 17.759 72.6491C16.9808 72.3706 16.4238 72.0406 16.0881 71.6591C15.7562 71.2777 15.5903 70.7798 15.5903 70.1656C15.5903 69.5209 15.8325 69.0078 16.317 68.6263C16.8015 68.2448 17.4424 68.0541 18.2397 68.0541C19.0714 68.0541 19.8362 68.2067 20.5344 68.5119L20.2311 69.3588C19.5406 69.0688 18.8692 68.9239 18.2168 68.9239C17.7018 68.9239 17.2994 69.0345 17.0094 69.2558C16.7195 69.477 16.5745 69.7841 16.5745 70.1771C16.5745 70.467 16.6279 70.7054 16.7348 70.8924C16.8416 71.0755 17.0209 71.2452 17.2726 71.4016C17.5282 71.5542 17.9174 71.724 18.44 71.9109C19.3174 72.2238 19.9202 72.5595 20.2483 72.9181C20.5801 73.2767 20.7461 73.7421 20.7461 74.3143ZM27.8152 73.3987C27.8152 74.4211 27.5577 75.2203 27.0427 75.7964C26.5277 76.3686 25.8162 76.6547 24.9083 76.6547C24.3475 76.6547 23.8496 76.5231 23.4148 76.2599C22.9799 75.9967 22.6441 75.619 22.4076 75.1269C22.1711 74.6348 22.0528 74.0587 22.0528 73.3987C22.0528 72.3763 22.3084 71.5809 22.8196 71.0125C23.3308 70.4403 24.0404 70.1542 24.9483 70.1542C25.8258 70.1542 26.522 70.446 27.037 71.0297C27.5558 71.6134 27.8152 72.4031 27.8152 73.3987ZM23.0371 73.3987C23.0371 74.1999 23.1973 74.8102 23.5178 75.2299C23.8382 75.6495 24.3093 75.8593 24.9312 75.8593C25.553 75.8593 26.0241 75.6514 26.3446 75.2356C26.6688 74.816 26.831 74.2037 26.831 73.3987C26.831 72.6014 26.6688 71.9968 26.3446 71.5848C26.0241 71.1689 25.5492 70.961 24.9197 70.961C24.2979 70.961 23.8287 71.1651 23.512 71.5733C23.1954 71.9815 23.0371 72.59 23.0371 73.3987ZM37.5681 76.5403V72.4603C37.5681 71.9605 37.4613 71.5867 37.2476 71.3387C37.034 71.0869 36.7021 70.961 36.252 70.961C35.6607 70.961 35.2239 71.1308 34.9416 71.4703C34.6593 71.8098 34.5181 72.3325 34.5181 73.0382V76.5403H33.5682V72.4603C33.5682 71.9605 33.4614 71.5867 33.2477 71.3387C33.0341 71.0869 32.7003 70.961 32.2463 70.961C31.6512 70.961 31.2144 71.1403 30.9359 71.4989C30.6613 71.8537 30.5239 72.4374 30.5239 73.25V76.5403H29.574V70.2686H30.3465L30.501 71.127H30.5468C30.7261 70.8218 30.9779 70.5834 31.3022 70.4117C31.6302 70.24 31.9965 70.1542 32.4008 70.1542C33.3813 70.1542 34.0222 70.509 34.3235 71.2185H34.3693C34.5562 70.8905 34.8271 70.631 35.1819 70.4403C35.5367 70.2496 35.941 70.1542 36.395 70.1542C37.1046 70.1542 37.6349 70.3373 37.9858 70.7035C38.3406 71.0659 38.518 71.6477 38.518 72.4488V76.5403H37.5681ZM43.2181 76.6547C42.2911 76.6547 41.5586 76.3724 41.0207 75.8078C40.4866 75.2432 40.2196 74.4593 40.2196 73.456C40.2196 72.445 40.4676 71.642 40.9635 71.0469C41.4632 70.4517 42.1327 70.1542 42.972 70.1542C43.7579 70.1542 44.3797 70.4136 44.8375 70.9324C45.2953 71.4474 45.5242 72.1284 45.5242 72.9753V73.5761H41.2038C41.2229 74.3124 41.4079 74.8713 41.7589 75.2528C42.1137 75.6343 42.6115 75.825 43.2524 75.825C43.9276 75.825 44.5952 75.6838 45.2552 75.4015V76.2484C44.9195 76.3934 44.601 76.4964 44.2996 76.5575C44.002 76.6223 43.6415 76.6547 43.2181 76.6547ZM42.9606 70.9496C42.457 70.9496 42.0545 71.1136 41.7532 71.4417C41.4556 71.7698 41.2801 72.2238 41.2267 72.8036H44.5056C44.5056 72.2047 44.3721 71.7469 44.105 71.4303C43.838 71.1098 43.4565 70.9496 42.9606 70.9496ZM52.7384 75.8593C53.3717 75.8593 53.8333 75.6896 54.1232 75.35C54.4131 75.0105 54.5676 74.4383 54.5867 73.6333V73.4216C54.5867 72.5442 54.4379 71.9128 54.1404 71.5275C53.8428 71.1422 53.3717 70.9496 52.727 70.9496C52.17 70.9496 51.7427 71.167 51.4452 71.6019C51.1514 72.033 51.0045 72.6434 51.0045 73.4331C51.0045 74.2227 51.1495 74.8255 51.4394 75.2413C51.7332 75.6533 52.1662 75.8593 52.7384 75.8593ZM52.5953 76.6547C51.7866 76.6547 51.1552 76.3705 50.7013 75.8021C50.2473 75.2337 50.0203 74.4402 50.0203 73.4216C50.0203 72.3954 50.2492 71.5943 50.707 71.0183C51.1648 70.4422 51.8019 70.1542 52.6182 70.1542C53.4766 70.1542 54.1366 70.4784 54.5982 71.127H54.6497L54.787 70.2686H55.5366V79.3557H54.5867V76.6719C54.5867 76.2904 54.6077 75.9661 54.6497 75.6991H54.5753C54.1366 76.3362 53.4766 76.6547 52.5953 76.6547ZM58.5372 70.2686V74.3372C58.5372 74.8484 58.6535 75.2299 58.8862 75.4817C59.1189 75.7334 59.4833 75.8593 59.9792 75.8593C60.6353 75.8593 61.1141 75.68 61.4155 75.3214C61.7207 74.9628 61.8733 74.3772 61.8733 73.5647V70.2686H62.8232V76.5403H62.0392L61.9019 75.6991H61.8504C61.6558 76.0081 61.385 76.2446 61.0378 76.4087C60.6945 76.5727 60.3015 76.6547 59.859 76.6547C59.096 76.6547 58.5238 76.4735 58.1423 76.1111C57.7647 75.7487 57.5758 75.1688 57.5758 74.3715V70.2686H58.5372ZM65.881 76.5403H64.9311V70.2686H65.881V76.5403ZM64.8509 68.5691C64.8509 68.3517 64.9043 68.1933 65.0112 68.0941C65.118 67.9911 65.2515 67.9396 65.4117 67.9396C65.5643 67.9396 65.6959 67.9911 65.8066 68.0941C65.9172 68.1971 65.9725 68.3555 65.9725 68.5691C65.9725 68.7827 65.9172 68.943 65.8066 69.0498C65.6959 69.1528 65.5643 69.2043 65.4117 69.2043C65.2515 69.2043 65.118 69.1528 65.0112 69.0498C64.9043 68.943 64.8509 68.7827 64.8509 68.5691ZM70.4895 76.6547C69.5815 76.6547 68.8777 76.3762 68.3779 75.8193C67.882 75.2585 67.634 74.4669 67.634 73.4445C67.634 72.3954 67.8858 71.5848 68.3894 71.0125C68.8968 70.4403 69.6178 70.1542 70.5524 70.1542C70.8538 70.1542 71.1552 70.1866 71.4566 70.2515C71.7579 70.3163 71.9944 70.3926 72.1661 70.4804L71.8743 71.2872C71.6645 71.2033 71.4356 71.1346 71.1876 71.0812C70.9396 71.024 70.7203 70.9954 70.5295 70.9954C69.2554 70.9954 68.6183 71.8079 68.6183 73.4331C68.6183 74.2037 68.7728 74.795 69.0818 75.207C69.3946 75.619 69.8562 75.825 70.4666 75.825C70.9892 75.825 71.5252 75.7125 72.0746 75.4874V76.3286C71.6549 76.546 71.1266 76.6547 70.4895 76.6547ZM74.5944 73.3301C74.7585 73.0974 75.0084 72.7922 75.3441 72.4145L77.3698 70.2686H78.4971L75.9564 72.9409L78.6744 76.5403H77.5243L75.3097 73.5761L74.5944 74.1941V76.5403H73.656V67.6364H74.5944V72.3573C74.5944 72.5671 74.5792 72.8914 74.5487 73.3301H74.5944ZM85.6827 76.6547C84.7557 76.6547 84.0232 76.3724 83.4853 75.8078C82.9512 75.2432 82.6842 74.4593 82.6842 73.456C82.6842 72.445 82.9322 71.642 83.4281 71.0469C83.9278 70.4517 84.5973 70.1542 85.4366 70.1542C86.2225 70.1542 86.8443 70.4136 87.3021 70.9324C87.7599 71.4474 87.9888 72.1284 87.9888 72.9753V73.5761H83.6684C83.6875 74.3124 83.8725 74.8713 84.2235 75.2528C84.5783 75.6343 85.0761 75.825 85.717 75.825C86.3922 75.825 87.0599 75.6838 87.7198 75.4015V76.2484C87.3841 76.3934 87.0656 76.4964 86.7642 76.5575C86.4666 76.6223 86.1061 76.6547 85.6827 76.6547ZM85.4252 70.9496C84.9216 70.9496 84.5191 71.1136 84.2178 71.4417C83.9202 71.7698 83.7447 72.2238 83.6913 72.8036H86.9702C86.9702 72.2047 86.8367 71.7469 86.5696 71.4303C86.3026 71.1098 85.9211 70.9496 85.4252 70.9496ZM91.2125 73.3301L89.0323 70.2686H90.1138L91.7676 72.672L93.4156 70.2686H94.4857L92.3055 73.3301L94.6001 76.5403H93.5243L91.7676 73.9996L89.9936 76.5403H88.9178L91.2125 73.3301ZM99.7923 76.5403L99.6035 75.6476H99.5577C99.2449 76.0405 98.932 76.3076 98.6192 76.4487C98.3102 76.5861 97.923 76.6547 97.4576 76.6547C96.8358 76.6547 96.3475 76.4945 95.9927 76.1741C95.6417 75.8536 95.4662 75.3977 95.4662 74.8064C95.4662 73.5399 96.4791 72.8761 98.5048 72.8151L99.5691 72.7807V72.3916C99.5691 71.8995 99.4623 71.5371 99.2487 71.3044C99.0389 71.0678 98.7012 70.9496 98.2358 70.9496C97.7132 70.9496 97.1219 71.1098 96.4619 71.4303L96.1701 70.7035C96.4791 70.5357 96.8167 70.4041 97.1829 70.3087C97.553 70.2133 97.923 70.1656 98.2931 70.1656C99.0408 70.1656 99.5939 70.3316 99.9525 70.6635C100.315 70.9954 100.496 71.5275 100.496 72.26V76.5403H99.7923ZM97.6464 75.8708C98.2377 75.8708 98.7012 75.7086 99.037 75.3844C99.3765 75.0601 99.5462 74.6061 99.5462 74.0225V73.456L98.5963 73.496C97.841 73.5227 97.2955 73.641 96.9598 73.8508C96.6279 74.0568 96.4619 74.3792 96.4619 74.8179C96.4619 75.1612 96.5649 75.4225 96.7709 75.6018C96.9807 75.7811 97.2726 75.8708 97.6464 75.8708ZM110.541 76.5403V72.4603C110.541 71.9605 110.434 71.5867 110.22 71.3387C110.007 71.0869 109.675 70.961 109.225 70.961C108.633 70.961 108.197 71.1308 107.914 71.4703C107.632 71.8098 107.491 72.3325 107.491 73.0382V76.5403H106.541V72.4603C106.541 71.9605 106.434 71.5867 106.221 71.3387C106.007 71.0869 105.673 70.961 105.219 70.961C104.624 70.961 104.187 71.1403 103.909 71.4989C103.634 71.8537 103.497 72.4374 103.497 73.25V76.5403H102.547V70.2686H103.319L103.474 71.127H103.52C103.699 70.8218 103.951 70.5834 104.275 70.4117C104.603 70.24 104.969 70.1542 105.374 70.1542C106.354 70.1542 106.995 70.509 107.296 71.2185H107.342C107.529 70.8905 107.8 70.631 108.155 70.4403C108.509 70.2496 108.914 70.1542 109.368 70.1542C110.077 70.1542 110.608 70.3373 110.959 70.7035C111.313 71.0659 111.491 71.6477 111.491 72.4488V76.5403H110.541ZM116.46 76.6547C116.052 76.6547 115.678 76.5803 115.338 76.4316C115.003 76.279 114.72 76.0463 114.491 75.7334H114.423C114.468 76.0997 114.491 76.4468 114.491 76.7749V79.3557H113.541V70.2686H114.314L114.446 71.127H114.491C114.735 70.7836 115.02 70.5357 115.344 70.3831C115.668 70.2305 116.04 70.1542 116.46 70.1542C117.291 70.1542 117.932 70.4384 118.382 71.0068C118.836 71.5752 119.063 72.3725 119.063 73.3987C119.063 74.4287 118.833 75.2299 118.371 75.8021C117.913 76.3705 117.276 76.6547 116.46 76.6547ZM116.322 70.961C115.682 70.961 115.218 71.1384 114.932 71.4932C114.646 71.848 114.499 72.4126 114.491 73.187V73.3987C114.491 74.28 114.638 74.9113 114.932 75.2928C115.226 75.6705 115.697 75.8593 116.345 75.8593C116.887 75.8593 117.311 75.64 117.616 75.2013C117.925 74.7626 118.079 74.1579 118.079 73.3873C118.079 72.6052 117.925 72.0063 117.616 71.5905C117.311 71.1708 116.879 70.961 116.322 70.961ZM121.766 76.5403H120.817V67.6364H121.766V76.5403ZM126.518 76.6547C125.591 76.6547 124.859 76.3724 124.321 75.8078C123.787 75.2432 123.52 74.4593 123.52 73.456C123.52 72.445 123.767 71.642 124.263 71.0469C124.763 70.4517 125.433 70.1542 126.272 70.1542C127.058 70.1542 127.68 70.4136 128.137 70.9324C128.595 71.4474 128.824 72.1284 128.824 72.9753V73.5761H124.504C124.523 74.3124 124.708 74.8713 125.059 75.2528C125.414 75.6343 125.911 75.825 126.552 75.825C127.228 75.825 127.895 75.6838 128.555 75.4015V76.2484C128.219 76.3934 127.901 76.4964 127.6 76.5575C127.302 76.6223 126.941 76.6547 126.518 76.6547ZM126.261 70.9496C125.757 70.9496 125.354 71.1136 125.053 71.4417C124.756 71.7698 124.58 72.2238 124.527 72.8036H127.806C127.806 72.2047 127.672 71.7469 127.405 71.4303C127.138 71.1098 126.756 70.9496 126.261 70.9496ZM135.695 75.8708C135.863 75.8708 136.025 75.8593 136.181 75.8364C136.338 75.8097 136.462 75.783 136.553 75.7563V76.4831C136.45 76.5327 136.298 76.5727 136.096 76.6032C135.897 76.6376 135.718 76.6547 135.558 76.6547C134.345 76.6547 133.738 76.0157 133.738 74.7378V71.0068H132.84V70.549L133.738 70.1542L134.139 68.8152H134.688V70.2686H136.508V71.0068H134.688V74.6977C134.688 75.0754 134.778 75.3653 134.957 75.5675C135.136 75.7697 135.382 75.8708 135.695 75.8708ZM140.55 76.6547C139.623 76.6547 138.89 76.3724 138.352 75.8078C137.818 75.2432 137.551 74.4593 137.551 73.456C137.551 72.445 137.799 71.642 138.295 71.0469C138.795 70.4517 139.464 70.1542 140.304 70.1542C141.089 70.1542 141.711 70.4136 142.169 70.9324C142.627 71.4474 142.856 72.1284 142.856 72.9753V73.5761H138.535C138.554 74.3124 138.739 74.8713 139.09 75.2528C139.445 75.6343 139.943 75.825 140.584 75.825C141.259 75.825 141.927 75.6838 142.587 75.4015V76.2484C142.251 76.3934 141.932 76.4964 141.631 76.5575C141.334 76.6223 140.973 76.6547 140.55 76.6547ZM140.292 70.9496C139.789 70.9496 139.386 71.1136 139.085 71.4417C138.787 71.7698 138.612 72.2238 138.558 72.8036H141.837C141.837 72.2047 141.704 71.7469 141.437 71.4303C141.17 71.1098 140.788 70.9496 140.292 70.9496ZM146.079 73.3301L143.899 70.2686H144.981L146.634 72.672L148.283 70.2686H149.353L147.172 73.3301L149.467 76.5403H148.391L146.634 73.9996L144.861 76.5403H143.785L146.079 73.3301ZM152.828 75.8708C152.996 75.8708 153.158 75.8593 153.314 75.8364C153.471 75.8097 153.595 75.783 153.686 75.7563V76.4831C153.583 76.5327 153.431 76.5727 153.229 76.6032C153.03 76.6376 152.851 76.6547 152.691 76.6547C151.478 76.6547 150.871 76.0157 150.871 74.7378V71.0068H149.973V70.549L150.871 70.1542L151.272 68.8152H151.821V70.2686H153.641V71.0068H151.821V74.6977C151.821 75.0754 151.911 75.3653 152.09 75.5675C152.269 75.7697 152.515 75.8708 152.828 75.8708ZM160.191 75.8708C160.359 75.8708 160.521 75.8593 160.677 75.8364C160.834 75.8097 160.958 75.783 161.049 75.7563V76.4831C160.946 76.5327 160.794 76.5727 160.592 76.6032C160.393 76.6376 160.214 76.6547 160.054 76.6547C158.841 76.6547 158.234 76.0157 158.234 74.7378V71.0068H157.336V70.549L158.234 70.1542L158.635 68.8152H159.184V70.2686H161.004V71.0068H159.184V74.6977C159.184 75.0754 159.274 75.3653 159.453 75.5675C159.632 75.7697 159.878 75.8708 160.191 75.8708ZM167.81 73.3987C167.81 74.4211 167.552 75.2203 167.037 75.7964C166.522 76.3686 165.811 76.6547 164.903 76.6547C164.342 76.6547 163.844 76.5231 163.409 76.2599C162.974 75.9967 162.638 75.619 162.402 75.1269C162.165 74.6348 162.047 74.0587 162.047 73.3987C162.047 72.3763 162.303 71.5809 162.814 71.0125C163.325 70.4403 164.035 70.1542 164.943 70.1542C165.82 70.1542 166.516 70.446 167.031 71.0297C167.55 71.6134 167.81 72.4031 167.81 73.3987ZM163.031 73.3987C163.031 74.1999 163.192 74.8102 163.512 75.2299C163.833 75.6495 164.304 75.8593 164.926 75.8593C165.547 75.8593 166.018 75.6514 166.339 75.2356C166.663 74.816 166.825 74.2037 166.825 73.3987C166.825 72.6014 166.663 71.9968 166.339 71.5848C166.018 71.1689 165.544 70.961 164.914 70.961C164.292 70.961 163.823 71.1651 163.506 71.5733C163.19 71.9815 163.031 72.59 163.031 73.3987ZM18.8005 86.1656C19.6245 86.1656 20.2635 86.4479 20.7175 87.0125C21.1753 87.5733 21.4042 88.3687 21.4042 89.3987C21.4042 90.4287 21.1734 91.2299 20.7118 91.8021C20.254 92.3705 19.6169 92.6547 18.8005 92.6547C18.3923 92.6547 18.0185 92.5803 17.6789 92.4316C17.3432 92.279 17.0609 92.0463 16.832 91.7334H16.7634L16.5631 92.5403H15.8821V83.6364H16.832V85.7994C16.832 86.2839 16.8168 86.7188 16.7863 87.1041H16.832C17.2746 86.4784 17.9307 86.1656 18.8005 86.1656ZM18.6632 86.961C18.0146 86.961 17.5473 87.148 17.2612 87.5218C16.9751 87.8919 16.832 88.5175 16.832 89.3987C16.832 90.28 16.9789 90.9113 17.2726 91.2928C17.5664 91.6705 18.0375 91.8593 18.6861 91.8593C19.2697 91.8593 19.7046 91.6476 19.9907 91.2242C20.2769 90.7969 20.4199 90.1846 20.4199 89.3873C20.4199 88.5709 20.2769 87.9624 19.9907 87.5619C19.7046 87.1613 19.2621 86.961 18.6632 86.961ZM24.0499 86.2686V90.3372C24.0499 90.8484 24.1663 91.2299 24.399 91.4817C24.6317 91.7334 24.996 91.8593 25.492 91.8593C26.1481 91.8593 26.6269 91.68 26.9283 91.3214C27.2334 90.9628 27.386 90.3772 27.386 89.5647V86.2686H28.3359V92.5403H27.552L27.4146 91.6991H27.3631C27.1686 92.0081 26.8977 92.2446 26.5506 92.4087C26.2072 92.5727 25.8143 92.6547 25.3718 92.6547C24.6088 92.6547 24.0366 92.4735 23.6551 92.1111C23.2774 91.7487 23.0886 91.1688 23.0886 90.3715V86.2686H24.0499ZM31.3937 92.5403H30.4438V86.2686H31.3937V92.5403ZM30.3637 84.5691C30.3637 84.3517 30.4171 84.1933 30.5239 84.0941C30.6307 83.9911 30.7643 83.9396 30.9245 83.9396C31.0771 83.9396 31.2087 83.9911 31.3193 84.0941C31.43 84.1971 31.4853 84.3555 31.4853 84.5691C31.4853 84.7827 31.43 84.943 31.3193 85.0498C31.2087 85.1528 31.0771 85.2043 30.9245 85.2043C30.7643 85.2043 30.6307 85.1528 30.5239 85.0498C30.4171 84.943 30.3637 84.7827 30.3637 84.5691ZM34.4458 92.5403H33.4959V83.6364H34.4458V92.5403ZM40.8168 91.6991H40.7653C40.3266 92.3362 39.6704 92.6547 38.7968 92.6547C37.9766 92.6547 37.3376 92.3743 36.8798 91.8135C36.4258 91.2528 36.1989 90.4555 36.1989 89.4216C36.1989 88.3878 36.4278 87.5848 36.8855 87.0125C37.3433 86.4403 37.9804 86.1542 38.7968 86.1542C39.6475 86.1542 40.2998 86.4632 40.7538 87.0812H40.8282L40.7882 86.6291L40.7653 86.1885V83.6364H41.7152V92.5403H40.9427L40.8168 91.6991ZM38.917 91.8593C39.5655 91.8593 40.0347 91.6838 40.3246 91.3329C40.6184 90.9781 40.7653 90.4078 40.7653 89.6219V89.4216C40.7653 88.5328 40.6165 87.8995 40.3189 87.5218C40.0252 87.1403 39.554 86.9496 38.9055 86.9496C38.3485 86.9496 37.9213 87.167 37.6237 87.6019C37.33 88.033 37.1831 88.6434 37.1831 89.4331C37.1831 90.2342 37.33 90.8388 37.6237 91.247C37.9175 91.6552 38.3485 91.8593 38.917 91.8593ZM52.3685 89.3987C52.3685 90.4211 52.111 91.2203 51.596 91.7964C51.081 92.3686 50.3695 92.6547 49.4616 92.6547C48.9008 92.6547 48.403 92.5231 47.9681 92.2599C47.5332 91.9967 47.1974 91.619 46.9609 91.1269C46.7244 90.6348 46.6061 90.0587 46.6061 89.3987C46.6061 88.3763 46.8617 87.5809 47.3729 87.0125C47.8841 86.4403 48.5937 86.1542 49.5016 86.1542C50.3791 86.1542 51.0753 86.446 51.5903 87.0297C52.1091 87.6134 52.3685 88.4031 52.3685 89.3987ZM47.5904 89.3987C47.5904 90.1999 47.7506 90.8102 48.0711 91.2299C48.3915 91.6495 48.8626 91.8593 49.4845 91.8593C50.1063 91.8593 50.5774 91.6514 50.8979 91.2356C51.2221 90.816 51.3843 90.2037 51.3843 89.3987C51.3843 88.6014 51.2221 87.9968 50.8979 87.5848C50.5774 87.1689 50.1025 86.961 49.473 86.961C48.8512 86.961 48.382 87.1651 48.0653 87.5733C47.7487 87.9815 47.5904 88.59 47.5904 89.3987ZM58.4191 92.5403V88.4832C58.4191 87.972 58.3027 87.5905 58.07 87.3387C57.8373 87.0869 57.473 86.961 56.977 86.961C56.3209 86.961 55.8402 87.1384 55.535 87.4932C55.2298 87.848 55.0772 88.4336 55.0772 89.25V92.5403H54.1273V86.2686H54.8998L55.0543 87.127H55.1001C55.2947 86.818 55.5674 86.5795 55.9184 86.4117C56.2694 86.24 56.6604 86.1542 57.0915 86.1542C57.8468 86.1542 58.4152 86.3373 58.7967 86.7035C59.1782 87.0659 59.369 87.6477 59.369 88.4488V92.5403H58.4191ZM66.5718 91.8708C66.7396 91.8708 66.9017 91.8593 67.0582 91.8364C67.2146 91.8097 67.3385 91.783 67.4301 91.7563V92.4831C67.3271 92.5327 67.1745 92.5727 66.9723 92.6032C66.7739 92.6376 66.5946 92.6547 66.4344 92.6547C65.2213 92.6547 64.6147 92.0157 64.6147 90.7378V87.0068H63.7163V86.549L64.6147 86.1542L65.0153 84.8152H65.5646V86.2686H67.3843V87.0068H65.5646V90.6977C65.5646 91.0754 65.6543 91.3653 65.8336 91.5675C66.0129 91.7697 66.2589 91.8708 66.5718 91.8708ZM73.0686 92.5403V88.4832C73.0686 87.972 72.9523 87.5905 72.7196 87.3387C72.4869 87.0869 72.1226 86.961 71.6266 86.961C70.9666 86.961 70.4841 87.1403 70.1789 87.4989C69.8775 87.8575 69.7268 88.445 69.7268 89.2614V92.5403H68.7769V83.6364H69.7268V86.3316C69.7268 86.6558 69.7116 86.9248 69.681 87.1384H69.7383C69.9252 86.837 70.1903 86.6005 70.5337 86.4289C70.8808 86.2534 71.2757 86.1656 71.7182 86.1656C72.485 86.1656 73.0591 86.3487 73.4406 86.715C73.8259 87.0774 74.0185 87.6553 74.0185 88.4488V92.5403H73.0686ZM78.7129 92.6547C77.7859 92.6547 77.0534 92.3724 76.5155 91.8078C75.9815 91.2432 75.7144 90.4593 75.7144 89.456C75.7144 88.445 75.9624 87.642 76.4583 87.0469C76.9581 86.4517 77.6276 86.1542 78.4668 86.1542C79.2527 86.1542 79.8745 86.4136 80.3323 86.9324C80.7901 87.4474 81.019 88.1284 81.019 88.9753V89.5761H76.6986C76.7177 90.3124 76.9027 90.8713 77.2537 91.2528C77.6085 91.6343 78.1063 91.825 78.7472 91.825C79.4225 91.825 80.0901 91.6838 80.75 91.4015V92.2484C80.4143 92.3934 80.0958 92.4964 79.7944 92.5575C79.4969 92.6223 79.1364 92.6547 78.7129 92.6547ZM78.4554 86.9496C77.9518 86.9496 77.5494 87.1136 77.248 87.4417C76.9504 87.7698 76.7749 88.2238 76.7215 88.8036H80.0004C80.0004 88.2047 79.8669 87.7469 79.5999 87.4303C79.3328 87.1098 78.9513 86.9496 78.4554 86.9496ZM88.3706 92.6547C87.4626 92.6547 86.7588 92.3762 86.259 91.8193C85.7631 91.2585 85.5151 90.4669 85.5151 89.4445C85.5151 88.3954 85.7669 87.5848 86.2705 87.0125C86.7779 86.4403 87.4989 86.1542 88.4335 86.1542C88.7349 86.1542 89.0363 86.1866 89.3376 86.2515C89.639 86.3163 89.8755 86.3926 90.0472 86.4804L89.7554 87.2872C89.5455 87.2033 89.3167 87.1346 89.0687 87.0812C88.8207 87.024 88.6014 86.9954 88.4106 86.9954C87.1365 86.9954 86.4994 87.8079 86.4994 89.4331C86.4994 90.2037 86.6539 90.795 86.9629 91.207C87.2757 91.619 87.7373 91.825 88.3477 91.825C88.8703 91.825 89.4063 91.7125 89.9556 91.4874V92.3286C89.536 92.546 89.0076 92.6547 88.3706 92.6547ZM95.3939 92.5403L95.2051 91.6476H95.1593C94.8465 92.0405 94.5336 92.3076 94.2208 92.4487C93.9118 92.5861 93.5246 92.6547 93.0592 92.6547C92.4374 92.6547 91.9491 92.4945 91.5943 92.1741C91.2433 91.8536 91.0678 91.3977 91.0678 90.8064C91.0678 89.5399 92.0807 88.8761 94.1064 88.8151L95.1707 88.7807V88.3916C95.1707 87.8995 95.0639 87.5371 94.8503 87.3044C94.6405 87.0678 94.3028 86.9496 93.8374 86.9496C93.3148 86.9496 92.7235 87.1098 92.0635 87.4303L91.7717 86.7035C92.0807 86.5357 92.4183 86.4041 92.7845 86.3087C93.1546 86.2133 93.5246 86.1656 93.8947 86.1656C94.6424 86.1656 95.1955 86.3316 95.5541 86.6635C95.9165 86.9954 96.0977 87.5275 96.0977 88.26V92.5403H95.3939ZM93.248 91.8708C93.8393 91.8708 94.3028 91.7086 94.6386 91.3844C94.9781 91.0601 95.1478 90.6061 95.1478 90.0225V89.456L94.1979 89.496C93.4426 89.5227 92.8971 89.641 92.5614 89.8508C92.2295 90.0568 92.0635 90.3792 92.0635 90.8179C92.0635 91.1612 92.1665 91.4225 92.3725 91.6018C92.5823 91.7811 92.8742 91.8708 93.248 91.8708ZM101.01 86.1542C101.288 86.1542 101.538 86.1771 101.759 86.2228L101.628 87.1041C101.368 87.0469 101.139 87.0183 100.941 87.0183C100.434 87.0183 99.9986 87.2243 99.6362 87.6363C99.2776 88.0483 99.0983 88.5614 99.0983 89.1756V92.5403H98.1484V86.2686H98.9324L99.0411 87.4303H99.0869C99.3196 87.0221 99.6 86.7073 99.928 86.4861C100.256 86.2648 100.617 86.1542 101.01 86.1542ZM107.289 91.6991H107.237C106.799 92.3362 106.143 92.6547 105.269 92.6547C104.449 92.6547 103.81 92.3743 103.352 91.8135C102.898 91.2528 102.671 90.4555 102.671 89.4216C102.671 88.3878 102.9 87.5848 103.358 87.0125C103.816 86.4403 104.453 86.1542 105.269 86.1542C106.12 86.1542 106.772 86.4632 107.226 87.0812H107.3L107.26 86.6291L107.237 86.1885V83.6364H108.187V92.5403H107.415L107.289 91.6991ZM105.389 91.8593C106.038 91.8593 106.507 91.6838 106.797 91.3329C107.091 90.9781 107.237 90.4078 107.237 89.6219V89.4216C107.237 88.5328 107.089 87.8995 106.791 87.5218C106.497 87.1403 106.026 86.9496 105.378 86.9496C104.821 86.9496 104.393 87.167 104.096 87.6019C103.802 88.033 103.655 88.6434 103.655 89.4331C103.655 90.2342 103.802 90.8388 104.096 91.247C104.39 91.6552 104.821 91.8593 105.389 91.8593ZM115.453 91.8708C115.621 91.8708 115.783 91.8593 115.94 91.8364C116.096 91.8097 116.22 91.783 116.311 91.7563V92.4831C116.208 92.5327 116.056 92.5727 115.854 92.6032C115.655 92.6376 115.476 92.6547 115.316 92.6547C114.103 92.6547 113.496 92.0157 113.496 90.7378V87.0068H112.598V86.549L113.496 86.1542L113.897 84.8152H114.446V86.2686H116.266V87.0068H114.446V90.6977C114.446 91.0754 114.536 91.3653 114.715 91.5675C114.894 91.7697 115.14 91.8708 115.453 91.8708ZM118.608 92.5403H117.658V86.2686H118.608V92.5403ZM117.578 84.5691C117.578 84.3517 117.632 84.1933 117.738 84.0941C117.845 83.9911 117.979 83.9396 118.139 83.9396C118.292 83.9396 118.423 83.9911 118.534 84.0941C118.644 84.1971 118.7 84.3555 118.7 84.5691C118.7 84.7827 118.644 84.943 118.534 85.0498C118.423 85.1528 118.292 85.2043 118.139 85.2043C117.979 85.2043 117.845 85.1528 117.738 85.0498C117.632 84.943 117.578 84.7827 117.578 84.5691ZM122.736 91.8708C122.904 91.8708 123.066 91.8593 123.222 91.8364C123.379 91.8097 123.503 91.783 123.594 91.7563V92.4831C123.491 92.5327 123.339 92.5727 123.137 92.6032C122.938 92.6376 122.759 92.6547 122.599 92.6547C121.386 92.6547 120.779 92.0157 120.779 90.7378V87.0068H119.881V86.549L120.779 86.1542L121.18 84.8152H121.729V86.2686H123.549V87.0068H121.729V90.6977C121.729 91.0754 121.819 91.3653 121.998 91.5675C122.177 91.7697 122.423 91.8708 122.736 91.8708ZM125.891 92.5403H124.941V83.6364H125.891V92.5403ZM130.643 92.6547C129.716 92.6547 128.983 92.3724 128.445 91.8078C127.911 91.2432 127.644 90.4593 127.644 89.456C127.644 88.445 127.892 87.642 128.388 87.0469C128.888 86.4517 129.557 86.1542 130.397 86.1542C131.182 86.1542 131.804 86.4136 132.262 86.9324C132.72 87.4474 132.949 88.1284 132.949 88.9753V89.5761H128.628C128.647 90.3124 128.833 90.8713 129.183 91.2528C129.538 91.6343 130.036 91.825 130.677 91.825C131.352 91.825 132.02 91.6838 132.68 91.4015V92.2484C132.344 92.3934 132.026 92.4964 131.724 92.5575C131.427 92.6223 131.066 92.6547 130.643 92.6547ZM130.385 86.9496C129.882 86.9496 129.479 87.1136 129.178 87.4417C128.88 87.7698 128.705 88.2238 128.651 88.8036H131.93C131.93 88.2047 131.797 87.7469 131.53 87.4303C131.263 87.1098 130.881 86.9496 130.385 86.9496ZM141.651 92.5403L141.462 91.6476H141.416C141.103 92.0405 140.791 92.3076 140.478 92.4487C140.169 92.5861 139.782 92.6547 139.316 92.6547C138.694 92.6547 138.206 92.4945 137.851 92.1741C137.5 91.8536 137.325 91.3977 137.325 90.8064C137.325 89.5399 138.338 88.8761 140.363 88.8151L141.428 88.7807V88.3916C141.428 87.8995 141.321 87.5371 141.107 87.3044C140.897 87.0678 140.56 86.9496 140.094 86.9496C139.572 86.9496 138.98 87.1098 138.32 87.4303L138.029 86.7035C138.338 86.5357 138.675 86.4041 139.041 86.3087C139.411 86.2133 139.782 86.1656 140.152 86.1656C140.899 86.1656 141.452 86.3316 141.811 86.6635C142.173 86.9954 142.355 87.5275 142.355 88.26V92.5403H141.651ZM139.505 91.8708C140.096 91.8708 140.56 91.7086 140.895 91.3844C141.235 91.0601 141.405 90.6061 141.405 90.0225V89.456L140.455 89.496C139.699 89.5227 139.154 89.641 138.818 89.8508C138.486 90.0568 138.32 90.3792 138.32 90.8179C138.32 91.1612 138.423 91.4225 138.629 91.6018C138.839 91.7811 139.131 91.8708 139.505 91.8708ZM148.697 92.5403V88.4832C148.697 87.972 148.581 87.5905 148.348 87.3387C148.115 87.0869 147.751 86.961 147.255 86.961C146.599 86.961 146.118 87.1384 145.813 87.4932C145.508 87.848 145.355 88.4336 145.355 89.25V92.5403H144.405V86.2686H145.178L145.332 87.127H145.378C145.573 86.818 145.845 86.5795 146.196 86.4117C146.547 86.24 146.938 86.1542 147.369 86.1542C148.125 86.1542 148.693 86.3373 149.075 86.7035C149.456 87.0659 149.647 87.6477 149.647 88.4488V92.5403H148.697ZM155.961 91.6991H155.909C155.47 92.3362 154.814 92.6547 153.941 92.6547C153.121 92.6547 152.482 92.3743 152.024 91.8135C151.57 91.2528 151.343 90.4555 151.343 89.4216C151.343 88.3878 151.572 87.5848 152.029 87.0125C152.487 86.4403 153.124 86.1542 153.941 86.1542C154.791 86.1542 155.444 86.4632 155.898 87.0812H155.972L155.932 86.6291L155.909 86.1885V83.6364H156.859V92.5403H156.087L155.961 91.6991ZM154.061 91.8593C154.709 91.8593 155.179 91.6838 155.469 91.3329C155.762 90.9781 155.909 90.4078 155.909 89.6219V89.4216C155.909 88.5328 155.76 87.8995 155.463 87.5218C155.169 87.1403 154.698 86.9496 154.049 86.9496C153.492 86.9496 153.065 87.167 152.768 87.6019C152.474 88.033 152.327 88.6434 152.327 89.4331C152.327 90.2342 152.474 90.8388 152.768 91.247C153.061 91.6552 153.492 91.8593 154.061 91.8593ZM23.8762 109.54V105.46C23.8762 104.961 23.7694 104.587 23.5557 104.339C23.3421 104.087 23.0102 103.961 22.5601 103.961C21.9688 103.961 21.532 104.131 21.2497 104.47C20.9674 104.81 20.8262 105.332 20.8262 106.038V109.54H19.8763V105.46C19.8763 104.961 19.7695 104.587 19.5559 104.339C19.3422 104.087 19.0084 103.961 18.5544 103.961C17.9593 103.961 17.5225 104.14 17.244 104.499C16.9694 104.854 16.832 105.437 16.832 106.25V109.54H15.8821V103.269H16.6546L16.8091 104.127H16.8549C17.0342 103.822 17.286 103.583 17.6103 103.412C17.9383 103.24 18.3046 103.154 18.709 103.154C19.6894 103.154 20.3303 103.509 20.6316 104.219H20.6774C20.8644 103.89 21.1352 103.631 21.49 103.44C21.8448 103.25 22.2492 103.154 22.7031 103.154C23.4127 103.154 23.943 103.337 24.2939 103.704C24.6487 104.066 24.8261 104.648 24.8261 105.449V109.54H23.8762ZM30.7336 109.54L30.5448 108.648H30.499C30.1862 109.041 29.8733 109.308 29.5605 109.449C29.2515 109.586 28.8643 109.655 28.3989 109.655C27.7771 109.655 27.2888 109.495 26.934 109.174C26.583 108.854 26.4075 108.398 26.4075 107.806C26.4075 106.54 27.4204 105.876 29.4461 105.815L30.5104 105.781V105.392C30.5104 104.899 30.4036 104.537 30.19 104.304C29.9802 104.068 29.6425 103.95 29.1771 103.95C28.6545 103.95 28.0632 104.11 27.4032 104.43L27.1114 103.704C27.4204 103.536 27.758 103.404 28.1242 103.309C28.4943 103.213 28.8643 103.166 29.2343 103.166C29.9821 103.166 30.5352 103.332 30.8938 103.663C31.2562 103.995 31.4374 104.528 31.4374 105.26V109.54H30.7336ZM28.5877 108.871C29.179 108.871 29.6425 108.709 29.9782 108.384C30.3178 108.06 30.4875 107.606 30.4875 107.022V106.456L29.5376 106.496C28.7823 106.523 28.2368 106.641 27.901 106.851C27.5692 107.057 27.4032 107.379 27.4032 107.818C27.4032 108.161 27.5062 108.423 27.7122 108.602C27.922 108.781 28.2139 108.871 28.5877 108.871ZM34.4265 106.33C34.5906 106.097 34.8405 105.792 35.1762 105.414L37.2019 103.269H38.3292L35.7885 105.941L38.5066 109.54H37.3564L35.1418 106.576L34.4265 107.194V109.54H33.4881V100.636H34.4265V105.357C34.4265 105.567 34.4113 105.891 34.3808 106.33H34.4265ZM42.3826 109.655C41.4556 109.655 40.7231 109.372 40.1853 108.808C39.6512 108.243 39.3841 107.459 39.3841 106.456C39.3841 105.445 39.6321 104.642 40.128 104.047C40.6278 103.452 41.2973 103.154 42.1366 103.154C42.9224 103.154 43.5442 103.414 44.002 103.932C44.4598 104.447 44.6887 105.128 44.6887 105.975V106.576H40.3684C40.3874 107.312 40.5725 107.871 40.9234 108.253C41.2782 108.634 41.7761 108.825 42.417 108.825C43.0922 108.825 43.7598 108.684 44.4198 108.402V109.248C44.0841 109.393 43.7655 109.496 43.4641 109.557C43.1666 109.622 42.8061 109.655 42.3826 109.655ZM42.1251 103.95C41.6216 103.95 41.2191 104.114 40.9177 104.442C40.6201 104.77 40.4447 105.224 40.3913 105.804H43.6701C43.6701 105.205 43.5366 104.747 43.2696 104.43C43.0025 104.11 42.621 103.95 42.1251 103.95ZM50.4266 103.269V107.337C50.4266 107.848 50.5429 108.23 50.7757 108.482C51.0084 108.733 51.3727 108.859 51.8686 108.859C52.5248 108.859 53.0035 108.68 53.3049 108.321C53.6101 107.963 53.7627 107.377 53.7627 106.565V103.269H54.7126V109.54H53.9286L53.7913 108.699H53.7398C53.5453 109.008 53.2744 109.245 52.9272 109.409C52.5839 109.573 52.191 109.655 51.7484 109.655C50.9855 109.655 50.4132 109.474 50.0318 109.111C49.6541 108.749 49.4652 108.169 49.4652 107.372V103.269H50.4266ZM59.7389 109.655C59.3307 109.655 58.9568 109.58 58.6173 109.432C58.2816 109.279 57.9993 109.046 57.7704 108.733H57.7017C57.7475 109.1 57.7704 109.447 57.7704 109.775V112.356H56.8205V103.269H57.593L57.7246 104.127H57.7704C58.0145 103.784 58.2987 103.536 58.623 103.383C58.9473 103.23 59.3192 103.154 59.7389 103.154C60.5705 103.154 61.2114 103.438 61.6616 104.007C62.1155 104.575 62.3425 105.373 62.3425 106.399C62.3425 107.429 62.1117 108.23 61.6501 108.802C61.1923 109.371 60.5552 109.655 59.7389 109.655ZM59.6015 103.961C58.9606 103.961 58.4971 104.138 58.211 104.493C57.9249 104.848 57.778 105.413 57.7704 106.187V106.399C57.7704 107.28 57.9173 107.911 58.211 108.293C58.5047 108.67 58.9759 108.859 59.6244 108.859C60.1661 108.859 60.5896 108.64 60.8948 108.201C61.2038 107.763 61.3583 107.158 61.3583 106.387C61.3583 105.605 61.2038 105.006 60.8948 104.59C60.5896 104.171 60.1585 103.961 59.6015 103.961Z" fill="white"/>
<path d="M17.9622 141.049C17.1348 141.049 16.4807 141.325 16.0001 141.878C15.5228 142.427 15.2842 143.181 15.2842 144.139C15.2842 145.124 15.5142 145.886 15.9743 146.425C16.4378 146.961 17.097 147.229 17.9519 147.229C18.4773 147.229 19.0764 147.134 19.7493 146.946V147.713C19.2274 147.909 18.5837 148.007 17.818 148.007C16.7091 148.007 15.8524 147.67 15.2481 146.997C14.6473 146.324 14.3469 145.368 14.3469 144.129C14.3469 143.353 14.4911 142.673 14.7795 142.089C15.0713 141.505 15.4902 141.056 16.0361 140.74C16.5855 140.424 17.2309 140.266 17.9725 140.266C18.7622 140.266 19.4523 140.41 20.0429 140.699L19.6721 141.451C19.1021 141.183 18.5322 141.049 17.9622 141.049ZM24.7346 147.904L24.5646 147.1H24.5234C24.2419 147.454 23.9604 147.694 23.6788 147.821C23.4007 147.945 23.0522 148.007 22.6334 148.007C22.0737 148.007 21.6343 147.862 21.3149 147.574C20.9991 147.286 20.8411 146.875 20.8411 146.343C20.8411 145.203 21.7527 144.606 23.5758 144.551L24.5337 144.52V144.17C24.5337 143.727 24.4376 143.401 24.2453 143.191C24.0565 142.978 23.7527 142.872 23.3338 142.872C22.8634 142.872 22.3312 143.016 21.7373 143.305L21.4746 142.65C21.7527 142.499 22.0566 142.381 22.3862 142.295C22.7192 142.209 23.0522 142.166 23.3853 142.166C24.0582 142.166 24.5561 142.316 24.8788 142.614C25.205 142.913 25.3681 143.392 25.3681 144.051V147.904H24.7346ZM22.8033 147.301C23.3355 147.301 23.7527 147.155 24.0548 146.863C24.3604 146.571 24.5131 146.163 24.5131 145.638V145.128L23.6582 145.164C22.9784 145.188 22.4874 145.294 22.1853 145.483C21.8866 145.668 21.7373 145.959 21.7373 146.353C21.7373 146.662 21.83 146.898 22.0154 147.059C22.2042 147.22 22.4668 147.301 22.8033 147.301ZM29.7096 142.156C29.9602 142.156 30.1851 142.177 30.3842 142.218L30.2658 143.011C30.0323 142.959 29.8263 142.934 29.6478 142.934C29.1911 142.934 28.7997 143.119 28.4736 143.49C28.1508 143.861 27.9895 144.323 27.9895 144.875V147.904H27.1345V142.259H27.8401L27.938 143.305H27.9792C28.1886 142.937 28.4409 142.654 28.7362 142.455C29.0315 142.256 29.3559 142.156 29.7096 142.156ZM35.282 147.147H35.2356C34.8408 147.72 34.2502 148.007 33.464 148.007C32.7258 148.007 32.1507 147.754 31.7387 147.25C31.3301 146.745 31.1259 146.027 31.1259 145.097C31.1259 144.166 31.3319 143.444 31.7439 142.929C32.1559 142.414 32.7292 142.156 33.464 142.156C34.2296 142.156 34.8167 142.434 35.2253 142.99H35.2923L35.2562 142.584L35.2356 142.187V139.89H36.0905V147.904H35.3953L35.282 147.147ZM33.5721 147.291C34.1558 147.291 34.5781 147.133 34.8391 146.817C35.1034 146.498 35.2356 145.984 35.2356 145.277V145.097C35.2356 144.297 35.1017 143.727 34.8339 143.387C34.5695 143.044 34.1455 142.872 33.5618 142.872C33.0606 142.872 32.676 143.068 32.4082 143.459C32.1439 143.847 32.0117 144.396 32.0117 145.107C32.0117 145.828 32.1439 146.372 32.4082 146.74C32.6726 147.107 33.0606 147.291 33.5721 147.291ZM41.6526 147.904H40.7771V140.374H44.9744V141.152H41.6526V143.907H44.7736V144.685H41.6526V147.904ZM50.9691 145.076C50.9691 145.996 50.7374 146.716 50.2739 147.234C49.8104 147.749 49.17 148.007 48.3529 148.007C47.8482 148.007 47.4001 147.888 47.0087 147.651C46.6173 147.414 46.3152 147.074 46.1023 146.631C45.8894 146.189 45.783 145.67 45.783 145.076C45.783 144.156 46.013 143.44 46.4731 142.929C46.9332 142.414 47.5718 142.156 48.3889 142.156C49.1786 142.156 49.8052 142.419 50.2687 142.944C50.7357 143.469 50.9691 144.18 50.9691 145.076ZM46.6688 145.076C46.6688 145.797 46.813 146.347 47.1014 146.724C47.3898 147.102 47.8138 147.291 48.3735 147.291C48.9331 147.291 49.3571 147.104 49.6456 146.729C49.9374 146.352 50.0833 145.801 50.0833 145.076C50.0833 144.359 49.9374 143.814 49.6456 143.444C49.3571 143.069 48.9297 142.882 48.3632 142.882C47.8035 142.882 47.3812 143.066 47.0963 143.433C46.8113 143.801 46.6688 144.348 46.6688 145.076ZM57.3449 145.076C57.3449 145.996 57.1132 146.716 56.6497 147.234C56.1862 147.749 55.5458 148.007 54.7287 148.007C54.224 148.007 53.7759 147.888 53.3845 147.651C52.9931 147.414 52.691 147.074 52.4781 146.631C52.2652 146.189 52.1588 145.67 52.1588 145.076C52.1588 144.156 52.3888 143.44 52.8489 142.929C53.309 142.414 53.9476 142.156 54.7647 142.156C55.5544 142.156 56.181 142.419 56.6445 142.944C57.1115 143.469 57.3449 144.18 57.3449 145.076ZM53.0446 145.076C53.0446 145.797 53.1888 146.347 53.4772 146.724C53.7656 147.102 54.1896 147.291 54.7493 147.291C55.3089 147.291 55.7329 147.104 56.0214 146.729C56.3132 146.352 56.4591 145.801 56.4591 145.076C56.4591 144.359 56.3132 143.814 56.0214 143.444C55.7329 143.069 55.3055 142.882 54.739 142.882C54.1793 142.882 53.757 143.066 53.4721 143.433C53.1871 143.801 53.0446 144.348 53.0446 145.076ZM60.6719 147.301C60.8229 147.301 60.9689 147.291 61.1096 147.27C61.2504 147.246 61.362 147.222 61.4444 147.198V147.852C61.3517 147.897 61.2144 147.933 61.0324 147.96C60.8538 147.991 60.6925 148.007 60.5483 148.007C59.4565 148.007 58.9105 147.431 58.9105 146.281V142.923H58.102V142.511L58.9105 142.156L59.2711 140.951H59.7655V142.259H61.4032V142.923H59.7655V146.245C59.7655 146.585 59.8461 146.846 60.0075 147.028C60.1689 147.21 60.3903 147.301 60.6719 147.301ZM64.9619 148.007C64.1276 148.007 63.4684 147.752 62.9843 147.244C62.5036 146.736 62.2633 146.031 62.2633 145.128C62.2633 144.218 62.4864 143.495 62.9328 142.959C63.3825 142.424 63.9851 142.156 64.7404 142.156C65.4477 142.156 66.0074 142.39 66.4194 142.856C66.8314 143.32 67.0374 143.933 67.0374 144.695V145.236H63.1491C63.1662 145.898 63.3328 146.401 63.6486 146.745C63.9679 147.088 64.416 147.26 64.9928 147.26C65.6005 147.26 66.2013 147.133 66.7953 146.879V147.641C66.4932 147.771 66.2065 147.864 65.9353 147.919C65.6675 147.977 65.343 148.007 64.9619 148.007ZM64.7301 142.872C64.2769 142.872 63.9147 143.02 63.6435 143.315C63.3757 143.61 63.2177 144.019 63.1697 144.541H66.1207C66.1207 144.002 66.0005 143.59 65.7602 143.305C65.5198 143.016 65.1765 142.872 64.7301 142.872ZM71.075 142.156C71.3257 142.156 71.5506 142.177 71.7497 142.218L71.6313 143.011C71.3978 142.959 71.1918 142.934 71.0132 142.934C70.5566 142.934 70.1652 143.119 69.839 143.49C69.5163 143.861 69.3549 144.323 69.3549 144.875V147.904H68.5V142.259H69.2056L69.3034 143.305H69.3446C69.5541 142.937 69.8064 142.654 70.1017 142.455C70.397 142.256 70.7214 142.156 71.075 142.156Z" fill="white"/>
<path d="M157.772 148.075H161.445V151.747H157.772V148.075Z" fill="white"/>
<path d="M157.772 137.059H161.445V140.731H157.772V137.059Z" fill="white"/>
<path d="M157.772 142.567H161.445V146.239H157.772V142.567Z" fill="white"/>
<rect x="5" y="5.02979" width="172.688" height="163.312" rx="2.5" stroke="#CBCDD6"/>
<rect x="2.5" y="2.52979" width="175" height="168" rx="6" stroke="#019AEB" stroke-width="4"/>
</svg>
