<svg fill="none" height="177" viewBox="0 0 187 177" width="187" xmlns="http://www.w3.org/2000/svg" xmlns:xlink="http://www.w3.org/1999/xlink"><filter id="a" color-interpolation-filters="sRGB" filterUnits="userSpaceOnUse" height="175.688" width="185.063" x=".969" y=".968"><feFlood flood-opacity="0" result="BackgroundImageFix"/><feColorMatrix in="SourceAlpha" result="hardAlpha" type="matrix" values="0 0 0 0 0 0 0 0 0 0 0 0 0 0 0 0 0 0 127 0"/><feOffset dy=".586"/><feGaussianBlur stdDeviation="2.344"/><feColorMatrix type="matrix" values="0 0 0 0 0 0 0 0 0 0 0 0 0 0 0 0 0 0 0.2 0"/><feBlend in2="BackgroundImageFix" mode="normal" result="effect1_dropShadow_7253_83274"/><feColorMatrix in="SourceAlpha" result="hardAlpha" type="matrix" values="0 0 0 0 0 0 0 0 0 0 0 0 0 0 0 0 0 0 127 0"/><feOffset dy="1.758"/><feGaussianBlur stdDeviation=".879"/><feColorMatrix type="matrix" values="0 0 0 0 0 0 0 0 0 0 0 0 0 0 0 0 0 0 0.12 0"/><feBlend in2="effect1_dropShadow_7253_83274" mode="normal" result="effect2_dropShadow_7253_83274"/><feColorMatrix in="SourceAlpha" result="hardAlpha" type="matrix" values="0 0 0 0 0 0 0 0 0 0 0 0 0 0 0 0 0 0 127 0"/><feOffset dy="1.758"/><feGaussianBlur stdDeviation="1.172"/><feColorMatrix type="matrix" values="0 0 0 0 0 0 0 0 0 0 0 0 0 0 0 0 0 0 0.14 0"/><feBlend in2="effect2_dropShadow_7253_83274" mode="normal" result="effect3_dropShadow_7253_83274"/><feBlend in="SourceGraphic" in2="effect3_dropShadow_7253_83274" mode="normal" result="shape"/></filter><g filter="url(#a)"><rect fill="#fff" height="162.312" rx="2" width="171.688" x="7.656" y="7.07"/><path d="m21.3876 26.7214c-.8011 0-1.4214.3021-1.8609.9064-.4395.5997-.6592 1.4374-.6592 2.5132 0 2.2386.84 3.3579 2.5201 3.3579.705 0 1.5588-.1763 2.5613-.5288v1.7854c-.824.3433-1.7441.515-2.7604.515-1.4604 0-2.5773-.4417-3.351-1.3253-.7737-.8881-1.1605-2.1607-1.1605-3.8179 0-1.0438.19-1.957.57-2.7398.3799-.7874.9247-1.3894 1.6342-1.806.7142-.4212 1.5496-.6318 2.5064-.6318.9751 0 1.9548.2358 2.939.7073l-.6867 1.7305c-.3754-.1786-.753-.3342-1.133-.467-.38-.1327-.7531-.1991-1.1193-.1991zm9.5023 8.4118-.4052-1.0438h-.0549c-.3525.4441-.7164.7531-1.0918.927-.3708.1694-.8561.2541-1.4558.2541-.737 0-1.3184-.2106-1.7441-.6317-.4212-.4212-.6318-1.0209-.6318-1.7991 0-.8149.2838-1.4146.8515-1.7991.5722-.3891 1.4329-.6043 2.5819-.6455l1.3322-.0412v-.3365c0-.7782-.3983-1.1673-1.1949-1.1673-.6134 0-1.3344.1854-2.163.5562l-.6935-1.4146c.8835-.4623 1.8631-.6935 2.9389-.6935 1.0301 0 1.8197.2243 2.3691.6729.5493.4487.824 1.1308.824 2.0463v5.1158zm-.618-3.557-.8103.0275c-.6089.0183-1.0621.1281-1.3596.3296-.2976.2014-.4464.5081-.4464.9201 0 .5906.3388.8858 1.0163.8858.4852 0 .8721-.1396 1.1605-.4189.293-.2792.4395-.65.4395-1.1124zm8.6164-4.2643c.2838 0 .5196.0206.7073.0618l-.158 1.9639c-.1694-.0458-.3754-.0686-.618-.0686-.6683 0-1.1902.1716-1.5656.515-.3708.3433-.5562.824-.5562 1.442v3.9072h-2.0944v-7.6771h1.5862l.309 1.291h.103c.2381-.4303.5585-.776.9614-1.0369.4074-.2655.8492-.3983 1.3253-.3983zm4.62 7.9586c-.9019 0-1.6115-.3502-2.1287-1.0506-.5128-.7004-.7691-1.6709-.7691-2.9115 0-1.2589.2609-2.2386.7828-2.939.5264-.705 1.2497-1.0575 2.1699-1.0575.9659 0 1.7029.3754 2.2111 1.1262h.0687c-.1053-.5723-.158-1.0827-.158-1.5313v-2.4583h2.1013v10.6847h-1.6069l-.4051-.9957h-.0893c-.4761.7553-1.2017 1.133-2.1767 1.133zm.7347-1.6686c.5356 0 .927-.1557 1.1742-.467.2518-.3112.3891-.84.412-1.5862v-.2266c0-.824-.1282-1.4145-.3845-1.7716-.2518-.3571-.6638-.5356-1.236-.5356-.467 0-.8309.1991-1.0919.5974-.2563.3937-.3845.9682-.3845 1.7236 0 .7553.1305 1.323.3914 1.7029.261.3754.634.5631 1.1193.5631zm13.6003 1.5313h-2.1287v-8.2676h-2.7261v-1.7716h7.5809v1.7716h-2.7261zm4.105-9.6616c0-.6821.38-1.0231 1.1399-1.0231s1.1399.341 1.1399 1.0231c0 .3251-.0962.5791-.2884.7622-.1877.1786-.4716.2678-.8515.2678-.7599 0-1.1399-.3433-1.1399-1.03zm2.1836 9.6616h-2.0943v-7.6771h2.0943zm5.5264-1.5313c.3662 0 .8057-.0801 1.3184-.2403v1.5587c-.5218.2335-1.1627.3502-1.9227.3502-.8377 0-1.4489-.2106-1.8334-.6317-.38-.4258-.5699-1.0621-.5699-1.909v-3.7012h-1.0026v-.8858l1.1536-.7004.6043-1.6206h1.339v1.6343h2.1493v1.5725h-2.1493v3.7012c0 .2976.0824.5173.2472.6592.1694.1419.3914.2129.6661.2129zm5.0595 1.5313h-2.0944v-10.6847h2.0944zm5.4714-6.3312c-.4441 0-.792.1419-1.0438.4258-.2517.2792-.3959.6775-.4326 1.1948h2.939c-.0091-.5173-.1442-.9156-.4051-1.1948-.261-.2839-.6134-.4258-1.0575-.4258zm.2953 6.4685c-1.236 0-2.202-.341-2.8978-1.0231s-1.0438-1.6481-1.0438-2.8978c0-1.2864.3205-2.2798.9614-2.9802.6455-.705 1.5359-1.0575 2.6712-1.0575 1.0849 0 1.9295.309 2.5338.927s.9064 1.4718.9064 2.5613v1.0163h-4.9509c.0229.5951.1991 1.0598.5287 1.394s.792.5013 1.3871.5013c.4624 0 .8996-.0481 1.3116-.1442.412-.0962.8423-.2495 1.2909-.4601v1.6205c-.3662.1832-.7576.3182-1.1742.4052-.4166.0915-.9247.1373-1.5244.1373z" fill="#252a2e"/><path d="m21.731 49.9072c0 .7363-.2671 1.3104-.8012 1.7224-.534.412-1.2589.618-2.1744.618-.9919 0-1.7549-.1278-2.289-.3834v-.9384c.3434.1449.7172.2594 1.1216.3433s.8049.1259 1.2017.1259c.6485 0 1.1368-.1221 1.4649-.3662.3281-.248.4921-.5913.4921-1.03 0-.29-.0591-.5265-.1774-.7096-.1144-.1869-.309-.3586-.5836-.515-.2709-.1564-.6848-.3338-1.2418-.5322-.7782-.2785-1.3352-.6085-1.6709-.99-.3319-.3814-.4978-.8793-.4978-1.4935 0-.6447.2422-1.1578.7267-1.5393s1.1254-.5722 1.9227-.5722c.8316 0 1.5965.1526 2.2946.4578l-.3033.8469c-.6904-.29-1.3619-.4349-2.0142-.4349-.515 0-.9175.1106-1.2074.3319-.2899.2212-.4349.5283-.4349.9213 0 .2899.0534.5283.1602.7153.1068.1831.2861.3528.5379.5092.2556.1526.6447.3224 1.1674.5093.8774.3128 1.4801.6486 1.8082 1.0072.3319.3586.4979.824.4979 1.3962zm2.5484-4.0457v4.0686c0 .5112.1164.8927.3491 1.1445.2327.2517.597.3776 1.093.3776.6561 0 1.1349-.1793 1.4363-.5379.3052-.3586.4578-.9442.4578-1.7567v-3.2961h.9499v6.2717h-.784l-.1373-.8412h-.0515c-.1946.309-.4654.5455-.8126.7096-.3433.164-.7363.246-1.1788.246-.763 0-1.3352-.1812-1.7167-.5436-.3777-.3624-.5665-.9423-.5665-1.7396v-4.1029zm9.3123-.103c.824 0 1.463.2823 1.917.8469.4578.5608.6867 1.3562.6867 2.3862s-.2308 1.8312-.6924 2.4034c-.4578.5684-1.0949.8526-1.9113.8526-.4082 0-.782-.0744-1.1216-.2231-.3357-.1526-.618-.3853-.8469-.6982h-.0686l-.2003.8069h-.681v-8.9039h.9499v2.163c0 .4845-.0152.9194-.0457 1.3047h.0457c.4426-.6257 1.0987-.9385 1.9685-.9385zm-.1373.7954c-.6486 0-1.1159.187-1.402.5608-.2861.3701-.4292.9957-.4292 1.8769 0 .8813.1469 1.5126.4407 1.8941.2937.3777.7648.5665 1.4134.5665.5836 0 1.0185-.2117 1.3047-.6352.2861-.4272.4291-1.0395.4291-1.8368 0-.8164-.143-1.4249-.4291-1.8254-.2862-.4006-.7287-.6009-1.3276-.6009zm3.9676 2.8726v-.8698h2.8097v.8698zm6.4168 2.0372c.1678 0 .33-.0115.4864-.0344.1564-.0267.2804-.0534.3719-.0801v.7268c-.103.0495-.2556.0896-.4578.1201-.1983.0344-.3776.0515-.5379.0515-1.2131 0-1.8197-.639-1.8197-1.917v-3.7309h-.8984v-.4578l.8984-.3948.4006-1.339h.5493v1.4534h1.8197v.7382h-1.8197v3.6909c0 .3777.0897.6676.269.8698s.4254.3033.7382.3033zm4.8546.7839c-.9271 0-1.6595-.2823-2.1974-.8469-.5341-.5646-.8011-1.3485-.8011-2.3518 0-1.011.2479-1.814.7439-2.4091.4997-.5952 1.1692-.8927 2.0085-.8927.7859 0 1.4077.2594 1.8655.7782.4578.515.6866 1.196.6866 2.0429v.6008h-4.3203c.0191.7363.2041 1.2952.5551 1.6767.3547.3814.8526.5722 1.4935.5722.6752 0 1.3428-.1412 2.0028-.4235v.8469c-.3357.145-.6543.248-.9556.309-.2976.0649-.6581.0973-1.0815.0973zm-.2575-5.7051c-.5036 0-.9061.164-1.2075.4921-.2975.3281-.473.782-.5264 1.3619h3.2789c0-.5989-.1335-1.0567-.4006-1.3733-.267-.3205-.6485-.4807-1.1444-.4807zm5.7873 2.3805-2.1802-3.0615h1.0815l1.6537 2.4034 1.6481-2.4034h1.07l-2.1802 3.0615 2.2947 3.2102h-1.0758l-1.7568-2.5407-1.7739 2.5407h-1.0758zm6.7486 2.5407c.1679 0 .33-.0115.4864-.0344.1564-.0267.2804-.0534.372-.0801v.7268c-.103.0495-.2556.0896-.4578.1201-.1984.0344-.3777.0515-.5379.0515-1.2131 0-1.8197-.639-1.8197-1.917v-3.7309h-.8984v-.4578l.8984-.3948.4006-1.339h.5493v1.4534h1.8197v.7382h-1.8197v3.6909c0 .3777.0897.6676.269.8698s.4253.3033.7381.3033z" fill="#7d808d"/><path d="m22.9028 75.8546c0 .7363-.267 1.3105-.8011 1.7225s-1.2589.618-2.1745.618c-.9918 0-1.7548-.1278-2.2889-.3834v-.9385c.3433.145.7172.2594 1.1216.3434.4044.0839.8049.1258 1.2017.1258.6485 0 1.1368-.122 1.4649-.3662.3281-.2479.4921-.5913.4921-1.03 0-.2899-.0591-.5264-.1774-.7096-.1144-.1869-.309-.3586-.5837-.515-.2708-.1564-.6847-.3338-1.2417-.5321-.7783-.2785-1.3352-.6085-1.6709-.99-.3319-.3815-.4979-.8793-.4979-1.4935 0-.6447.2423-1.1578.7268-1.5393s1.1253-.5723 1.9227-.5723c.8316 0 1.5965.1526 2.2946.4578l-.3033.8469c-.6905-.2899-1.3619-.4349-2.0142-.4349-.515 0-.9175.1107-1.2074.3319-.29.2213-.4349.5284-.4349.9213 0 .2899.0534.5284.1602.7153.1068.1831.2861.3529.5379.5093.2556.1526.6447.3223 1.1673.5093.8775.3128 1.4802.6485 1.8083 1.0071.3319.3586.4978.824.4978 1.3962zm7.0691-.9155c0 1.0224-.2575 1.8216-.7725 2.3976-.515.5723-1.2264.8584-2.1344.8584-.5608 0-1.0586-.1316-1.4935-.3949-.4349-.2632-.7706-.6409-1.0071-1.133-.2366-.4921-.3548-1.0681-.3548-1.7281 0-1.0224.2556-1.8178.7668-2.3862.5112-.5723 1.2207-.8584 2.1287-.8584.8774 0 1.5736.2919 2.0886.8755.5188.5837.7782 1.3734.7782 2.3691zm-4.7781 0c0 .8011.1602 1.4115.4807 1.8311.3204.4197.7916.6295 1.4134.6295s1.093-.2079 1.4134-.6238c.3243-.4196.4864-1.0319.4864-1.8368 0-.7973-.1621-1.402-.4864-1.814-.3204-.4158-.7954-.6237-1.4248-.6237-.6219 0-1.0911.2041-1.4077.6123-.3167.4082-.475 1.0166-.475 1.8254zm14.531 3.1415v-4.08c0-.4997-.1068-.8736-.3204-1.1216-.2137-.2517-.5455-.3776-.9957-.3776-.5913 0-1.0281.1697-1.3104.5093-.2823.3395-.4235.8621-.4235 1.5679v3.502h-.9499v-4.08c0-.4997-.1068-.8736-.3204-1.1216-.2136-.2517-.5474-.3776-1.0014-.3776-.5951 0-1.0319.1793-1.3104.5379-.2747.3548-.412.9384-.412 1.751v3.2903h-.9499v-6.2716h.7725l.1545.8583h.0458c.1793-.3052.431-.5436.7553-.7153.3281-.1716.6943-.2575 1.0987-.2575.9804 0 1.6213.3548 1.9227 1.0644h.0458c.1869-.3281.4577-.5875.8125-.7783.3548-.1907.7592-.2861 1.2132-.2861.7095 0 1.2398.1831 1.5908.5494.3547.3624.5321.9441.5321 1.7453v4.0914zm5.65.1145c-.927 0-1.6595-.2823-2.1974-.8469-.534-.5646-.8011-1.3486-.8011-2.3519 0-1.0109.248-1.814.7439-2.4091.4998-.5951 1.1693-.8927 2.0086-.8927.7858 0 1.4076.2594 1.8654.7783.4578.515.6867 1.1959.6867 2.0428v.6009h-4.3203c.019.7362.2041 1.2951.555 1.6766.3548.3815.8526.5722 1.4935.5722.6753 0 1.3429-.1411 2.0029-.4234v.8469c-.3358.145-.6543.248-.9557.309-.2975.0648-.658.0973-1.0815.0973zm-.2575-5.7052c-.5036 0-.906.1641-1.2074.4921-.2976.3281-.473.7821-.5265 1.362h3.2789c0-.599-.1335-1.0568-.4005-1.3734-.2671-.3204-.6486-.4807-1.1445-.4807zm9.7778 4.9098c.6333 0 1.0949-.1698 1.3848-.5093.29-.3395.4445-.9118.4636-1.7167v-.2117c0-.8775-.1488-1.5088-.4464-1.8941s-.7687-.578-1.4134-.578c-.557 0-.9842.2175-1.2818.6524-.2937.4311-.4406 1.0414-.4406 1.8311s.1449 1.3924.4349 1.8083c.2937.412.7267.618 1.2989.618zm-.143.7954c-.8088 0-1.4401-.2842-1.8941-.8527-.454-.5684-.681-1.3619-.681-2.3804 0-1.0262.2289-1.8274.6867-2.4034.4578-.5761 1.0949-.8641 1.9113-.8641.8583 0 1.5183.3243 1.9799.9728h.0515l.1373-.8583h.7497v9.087h-.9499v-2.6838c0-.3814.0209-.7057.0629-.9728h-.0744c-.4387.6371-1.0987.9557-1.9799.9557zm5.9418-6.3861v4.0685c0 .5112.1164.8927.3491 1.1445s.597.3777 1.0929.3777c.6562 0 1.135-.1793 1.4363-.5379.3052-.3586.4578-.9442.4578-1.7568v-3.296h.9499v6.2716h-.7839l-.1374-.8412h-.0515c-.1945.3091-.4654.5456-.8125.7096-.3434.1641-.7363.2461-1.1788.2461-.763 0-1.3352-.1812-1.7167-.5436-.3777-.3625-.5665-.9423-.5665-1.7396v-4.1029zm7.3438 6.2716h-.9499v-6.2716h.9499zm-1.03-7.9712c0-.2174.0534-.3757.1602-.4749.1068-.103.2403-.1545.4006-.1545.1526 0 .2842.0515.3948.1545s.166.2613.166.4749c0 .2137-.0554.3739-.166.4807-.1106.103-.2422.1545-.3948.1545-.1603 0-.2938-.0515-.4006-.1545-.1068-.1068-.1602-.267-.1602-.4807zm5.6385 8.0857c-.9079 0-1.6118-.2785-2.1115-.8355-.4959-.5608-.7439-1.3524-.7439-2.3747 0-1.0491.2518-1.8598.7553-2.432.5074-.5723 1.2284-.8584 2.1631-.8584.3013 0 .6027.0325.9041.0973.3014.0649.5379.1412.7096.2289l-.2919.8068c-.2098-.0839-.4387-.1526-.6867-.206-.2479-.0572-.4673-.0858-.658-.0858-1.2742 0-1.9113.8126-1.9113 2.4377 0 .7706.1545 1.3619.4635 1.7739.3128.412.7744.618 1.3848.618.5227 0 1.0587-.1125 1.608-.3376v.8412c-.4196.2174-.948.3262-1.5851.3262zm4.105-3.3247c.164-.2327.4139-.5379.7496-.9156l2.0257-2.1458h1.1273l-2.5407 2.6723 2.7181 3.5993h-1.1502l-2.2145-2.9641-.7153.618v2.3461h-.9385v-8.9039h.9385v4.7209c0 .2098-.0153.5341-.0458.9728zm11.0882 3.3247c-.927 0-1.6595-.2823-2.1973-.8469-.5341-.5646-.8012-1.3486-.8012-2.3519 0-1.0109.248-1.814.7439-2.4091.4998-.5951 1.1693-.8927 2.0086-.8927.7858 0 1.4076.2594 1.8654.7783.4578.515.6867 1.1959.6867 2.0428v.6009h-4.3203c.019.7362.2041 1.2951.555 1.6766.3548.3815.8527.5722 1.4936.5722.6752 0 1.3428-.1411 2.0028-.4234v.8469c-.3357.145-.6543.248-.9557.309-.2975.0648-.658.0973-1.0815.0973zm-.2575-5.7052c-.5035 0-.906.1641-1.2074.4921-.2976.3281-.473.7821-.5264 1.362h3.2788c0-.599-.1335-1.0568-.4005-1.3734-.2671-.3204-.6486-.4807-1.1445-.4807zm5.7873 2.3805-2.1802-3.0614h1.0816l1.6537 2.4033 1.648-2.4033h1.0701l-2.1802 3.0614 2.2946 3.2102h-1.0757l-1.7568-2.5407-1.7739 2.5407h-1.0758zm8.5798 3.2102-.189-.8927h-.046c-.312.393-.625.66-.938.8012-.309.1373-.696.206-1.1617.206-.6218 0-1.1101-.1603-1.4649-.4807-.3509-.3205-.5264-.7763-.5264-1.3676 0-1.2666 1.0128-1.9304 3.039-1.9914l1.064-.0343v-.3891c0-.4922-.107-.8546-.321-1.0873-.209-.2365-.547-.3548-1.012-.3548-.5231 0-1.1144.1603-1.7743.4807l-.2919-.7267c.309-.1679.6466-.2995 1.0129-.3949.37-.0953.7403-.143 1.1103-.143.748 0 1.301.1659 1.659.4978.363.3319.544.8641.544 1.5965v4.2803zm-2.1458-.6695c.5908 0 1.0548-.1621 1.3908-.4864.339-.3242.509-.7782.509-1.3619v-.5665l-.95.0401c-.7553.0267-1.3008.1449-1.6365.3547-.3319.206-.4978.5284-.4978.9671 0 .3433.103.6047.309.784.2098.1793.5016.2689.8755.2689zm12.8948.6695v-4.08c0-.4997-.107-.8736-.321-1.1216-.213-.2517-.545-.3776-.996-.3776-.591 0-1.028.1697-1.31.5093-.282.3395-.423.8621-.423 1.5679v3.502h-.95v-4.08c0-.4997-.107-.8736-.321-1.1216-.213-.2517-.547-.3776-1.001-.3776-.595 0-1.032.1793-1.311.5379-.274.3548-.412.9384-.412 1.751v3.2903h-.949v-6.2716h.772l.155.8583h.045c.18-.3052.431-.5436.756-.7153.328-.1716.694-.2575 1.098-.2575.981 0 1.622.3548 1.923 1.0644h.046c.187-.3281.458-.5875.812-.7783.355-.1907.76-.2861 1.214-.2861.709 0 1.239.1831 1.59.5494.355.3624.533.9441.533 1.7453v4.0914zm5.919.1145c-.409 0-.783-.0744-1.122-.2232-.336-.1526-.618-.3853-.847-.6981h-.069c.046.3662.069.7134.069 1.0414v2.5808h-.95v-9.087h.773l.131.8583h.046c.244-.3433.528-.5913.853-.7439.324-.1526.696-.2289 1.116-.2289.831 0 1.472.2842 1.922.8527.454.5684.681 1.3657.681 2.3919 0 1.03-.231 1.8311-.692 2.4033-.458.5685-1.095.8527-1.911.8527zm-.138-5.6937c-.641 0-1.104.1774-1.39.5321-.286.3548-.433.9194-.441 1.6939v.2117c0 .8812.147 1.5126.441 1.8941.293.3776.765.5665 1.413.5665.542 0 .965-.2194 1.27-.6581.309-.4387.464-1.0434.464-1.814 0-.782-.155-1.381-.464-1.7968-.305-.4196-.736-.6294-1.293-.6294zm5.444 5.5792h-.95v-8.9039h.95zm4.752.1145c-.927 0-1.66-.2823-2.198-.8469-.534-.5646-.801-1.3486-.801-2.3519 0-1.0109.248-1.814.744-2.4091.5-.5951 1.169-.8927 2.009-.8927.786 0 1.407.2594 1.865.7783.458.515.687 1.1959.687 2.0428v.6009h-4.32c.019.7362.204 1.2951.555 1.6766.354.3815.852.5722 1.493.5722.675 0 1.343-.1411 2.003-.4234v.8469c-.336.145-.654.248-.956.309-.297.0648-.658.0973-1.081.0973zm-.258-5.7052c-.503 0-.906.1641-1.207.4921-.298.3281-.473.7821-.527 1.362h3.279c0-.599-.133-1.0568-.4-1.3734-.267-.3204-.649-.4807-1.145-.4807zm9.435 4.9212c.168 0 .33-.0114.486-.0343.157-.0267.281-.0534.372-.0801v.7267c-.103.0496-.255.0897-.458.1202-.198.0343-.377.0515-.538.0515-1.213 0-1.819-.639-1.819-1.917v-3.7309h-.899v-.4578l.899-.3949.4-1.339h.55v1.4535h1.819v.7382h-1.819v3.6908c0 .3777.089.6676.269.8698.179.2022.425.3033.738.3033zm4.854.784c-.927 0-1.659-.2823-2.197-.8469-.534-.5646-.801-1.3486-.801-2.3519 0-1.0109.248-1.814.744-2.4091.499-.5951 1.169-.8927 2.008-.8927.786 0 1.408.2594 1.866.7783.458.515.686 1.1959.686 2.0428v.6009h-4.32c.019.7362.204 1.2951.555 1.6766.355.3815.853.5722 1.494.5722.675 0 1.343-.1411 2.002-.4234v.8469c-.335.145-.654.248-.955.309-.298.0648-.658.0973-1.082.0973zm-.257-5.7052c-.504 0-.906.1641-1.208.4921-.297.3281-.473.7821-.526 1.362h3.279c0-.599-.134-1.0568-.401-1.3734-.267-.3204-.648-.4807-1.144-.4807zm5.787 2.3805-2.18-3.0614h1.081l1.654 2.4033 1.648-2.4033h1.07l-2.18 3.0614 2.295 3.2102h-1.076l-1.757-2.5407-1.774 2.5407h-1.075zm6.749 2.5407c.168 0 .33-.0114.486-.0343.157-.0267.281-.0534.372-.0801v.7267c-.103.0496-.255.0897-.458.1202-.198.0343-.377.0515-.538.0515-1.213 0-1.819-.639-1.819-1.917v-3.7309h-.899v-.4578l.899-.3949.4-1.339h.55v1.4535h1.819v.7382h-1.819v3.6908c0 .3777.089.6676.269.8698.179.2022.425.3033.738.3033zm7.363 0c.168 0 .33-.0114.486-.0343.157-.0267.281-.0534.372-.0801v.7267c-.103.0496-.255.0897-.458.1202-.198.0343-.377.0515-.538.0515-1.213 0-1.819-.639-1.819-1.917v-3.7309h-.899v-.4578l.899-.3949.4-1.339h.55v1.4535h1.819v.7382h-1.819v3.6908c0 .3777.089.6676.269.8698.179.2022.425.3033.738.3033zm7.618-2.472c0 1.0224-.257 1.8216-.772 2.3976-.515.5723-1.227.8584-2.135.8584-.56 0-1.058-.1316-1.493-.3949-.435-.2632-.771-.6409-1.007-1.133-.237-.4921-.355-1.0681-.355-1.7281 0-1.0224.256-1.8178.767-2.3862.511-.5723 1.22-.8584 2.128-.8584.878 0 1.574.2919 2.089.8755.519.5837.778 1.3734.778 2.3691zm-4.778 0c0 .8011.16 1.4115.481 1.8311.32.4197.791.6295 1.413.6295s1.093-.2079 1.414-.6238c.324-.4196.486-1.0319.486-1.8368 0-.7973-.162-1.402-.486-1.814-.321-.4158-.796-.6237-1.425-.6237-.622 0-1.091.2041-1.408.6123s-.475 1.0166-.475 1.8254zm-144.2308 12.7669c.8241 0 1.4631.2823 1.917.8469.4578.5608.6867 1.3562.6867 2.3862s-.2308 1.8311-.6924 2.4033c-.4578.5685-1.0949.8527-1.9113.8527-.4081 0-.782-.0744-1.1215-.2232-.3357-.1526-.618-.3853-.8469-.6981h-.0687l-.2003.8068h-.6809v-8.9039h.9499v2.163c0 .4845-.0153.9194-.0458 1.3047h.0458c.4425-.6256 1.0987-.9384 1.9684-.9384zm-.1373.7954c-.6485 0-1.1158.1869-1.402.5608-.2861.37-.4291.9956-.4291 1.8769 0 .8812.1468 1.5126.4406 1.8941.2937.3776.7649.5665 1.4134.5665.5837 0 1.0186-.2118 1.3047-.6352.2861-.4273.4292-1.0396.4292-1.8369 0-.8164-.1431-1.4248-.4292-1.8254-.2861-.4005-.7287-.6008-1.3276-.6008zm5.3868-.6924v4.0685c0 .5112.1163.8927.349 1.1445s.5971.3777 1.093.3777c.6561 0 1.1349-.1793 1.4363-.5379.3052-.3586.4578-.9442.4578-1.7568v-3.296h.9499v6.2716h-.784l-.1373-.8412h-.0515c-.1946.3091-.4654.5456-.8126.7096-.3433.1641-.7363.2461-1.1788.2461-.763 0-1.3352-.1812-1.7167-.5436-.3776-.3625-.5665-.9423-.5665-1.7396v-4.1029zm7.3438 6.2716h-.9499v-6.2716h.9499zm-1.0301-7.9712c0-.2174.0534-.3757.1603-.4749.1068-.103.2403-.1545.4005-.1545.1526 0 .2842.0515.3949.1545.1106.103.1659.2613.1659.4749 0 .2137-.0553.3739-.1659.4807-.1107.103-.2423.1545-.3949.1545-.1602 0-.2937-.0515-.4005-.1545-.1069-.1068-.1603-.267-.1603-.4807zm4.0821 7.9712h-.9499v-8.9039h.9499zm6.371-.8412h-.0515c-.4387.6371-1.0949.9557-1.9685.9557-.8202 0-1.4592-.2804-1.9169-.8412-.454-.5608-.681-1.3581-.681-2.3919 0-1.0339.2289-1.8369.6867-2.4091.4578-.5723 1.0948-.8584 1.9112-.8584.8507 0 1.5031.309 1.9571.927h.0743l-.04-.452-.0229-.4406v-2.5522h.9499v8.9039h-.7725zm-1.8998.1603c.6485 0 1.1178-.1755 1.4077-.5265.2937-.3548.4406-.9251.4406-1.711v-.2002c0-.8889-.1488-1.5222-.4463-1.8998-.2938-.3815-.7649-.5723-1.4134-.5723-.557 0-.9843.2175-1.2818.6524-.2938.4311-.4407 1.0414-.4407 1.8311 0 .8011.1469 1.4058.4407 1.814.2937.4082.7248.6123 1.2932.6123zm13.4516-2.4606c0 1.0224-.2576 1.8216-.7726 2.3976-.515.5723-1.2264.8584-2.1344.8584-.5608 0-1.0586-.1316-1.4935-.3949-.4349-.2632-.7706-.6409-1.0071-1.133-.2366-.4921-.3548-1.0681-.3548-1.7281 0-1.0224.2556-1.8178.7668-2.3862.5112-.5723 1.2207-.8584 2.1287-.8584.8774 0 1.5736.2919 2.0886.8755.5188.5837.7783 1.3734.7783 2.3691zm-4.7782 0c0 .8011.1602 1.4115.4807 1.8311.3204.4197.7916.6295 1.4134.6295s1.093-.2079 1.4134-.6238c.3243-.4196.4864-1.0319.4864-1.8368 0-.7973-.1621-1.402-.4864-1.814-.3204-.4158-.7954-.6237-1.4248-.6237-.6219 0-1.0911.2041-1.4077.6123-.3167.4082-.475 1.0166-.475 1.8254zm10.8287 3.1415v-4.0571c0-.5112-.1164-.8927-.3491-1.1445-.2327-.2517-.597-.3776-1.0929-.3776-.6562 0-1.1369.1774-1.442.5321-.3052.3548-.4578.9404-.4578 1.7568v3.2903h-.9499v-6.2716h.7725l.1545.8583h.0458c.1945-.309.4673-.5474.8182-.7153.351-.1716.742-.2575 1.1731-.2575.7554 0 1.3238.1831 1.7053.5494.3815.3624.5722.9441.5722 1.7453v4.0914zm8.1527-.6695c.1678 0 .33-.0114.4864-.0343.1564-.0267.2804-.0534.3719-.0801v.7267c-.103.0496-.2556.0897-.4577.1202-.1984.0343-.3777.0515-.5379.0515-1.2132 0-1.8197-.639-1.8197-1.917v-3.7309h-.8984v-.4578l.8984-.3949.4005-1.339h.5494v1.4535h1.8197v.7382h-1.8197v3.6908c0 .3777.0896.6676.2689.8698s.4254.3033.7382.3033zm6.4969.6695v-4.0571c0-.5112-.1164-.8927-.3491-1.1445-.2327-.2517-.597-.3776-1.0929-.3776-.66 0-1.1426.1793-1.4478.5379-.3014.3586-.4521.9461-.4521 1.7624v3.2789h-.9499v-8.9039h.9499v2.6952c0 .3243-.0152.5932-.0457.8069h.0572c.1869-.3014.4521-.5379.7954-.7096.3471-.1755.742-.2632 1.1845-.2632.7668 0 1.3409.1831 1.7224.5493.3853.3624.578.9404.578 1.7339v4.0914zm5.6442.1145c-.927 0-1.6594-.2823-2.1973-.8469-.5341-.5646-.8012-1.3486-.8012-2.3519 0-1.0109.248-1.814.7439-2.4091.4998-.5951 1.1693-.8927 2.0086-.8927.7858 0 1.4077.2594 1.8655.7783.4577.515.6866 1.1959.6866 2.0428v.6009h-4.3203c.0191.7362.2041 1.2951.555 1.6766.3548.3815.8527.5722 1.4936.5722.6752 0 1.3428-.1411 2.0028-.4234v.8469c-.3357.145-.6543.248-.9556.309-.2976.0648-.6581.0973-1.0816.0973zm-.2575-5.7052c-.5035 0-.906.1641-1.2074.4921-.2975.3281-.473.7821-.5264 1.362h3.2789c0-.599-.1336-1.0568-.4006-1.3734-.267-.3204-.6485-.4807-1.1445-.4807zm9.9152 5.7052c-.9079 0-1.6118-.2785-2.1115-.8355-.496-.5608-.7439-1.3524-.7439-2.3747 0-1.0491.2517-1.8598.7553-2.432.5074-.5723 1.2284-.8584 2.163-.8584.3014 0 .6028.0325.9042.0973.3013.0649.5379.1412.7095.2289l-.2918.8068c-.2098-.0839-.4387-.1526-.6867-.206-.2479-.0572-.4673-.0858-.658-.0858-1.2742 0-1.9113.8126-1.9113 2.4377 0 .7706.1545 1.3619.4635 1.7739.3128.412.7744.618 1.3848.618.5227 0 1.0586-.1125 1.608-.3376v.8412c-.4197.2174-.948.3262-1.5851.3262zm7.0233-.1145-.1888-.8927h-.0458c-.3128.393-.6256.66-.9384.8012-.309.1373-.6962.206-1.1617.206-.6218 0-1.1101-.1603-1.4649-.4807-.3509-.3205-.5264-.7763-.5264-1.3676 0-1.2666 1.0128-1.9304 3.0385-1.9914l1.0644-.0343v-.3891c0-.4922-.1068-.8546-.3205-1.0873-.2098-.2365-.5474-.3548-1.0128-.3548-.5227 0-1.114.1603-1.7739.4807l-.2919-.7267c.309-.1679.6466-.2995 1.0129-.3949.37-.0953.7401-.143 1.1101-.143.7477 0 1.3009.1659 1.6595.4978.3624.3319.5436.8641.5436 1.5965v4.2803zm-2.1458-.6695c.5913 0 1.0548-.1621 1.3905-.4864.3395-.3242.5093-.7782.5093-1.3619v-.5665l-.9499.0401c-.7554.0267-1.3009.1449-1.6366.3547-.3319.206-.4978.5284-.4978.9671 0 .3433.103.6047.309.784.2098.1793.5016.2689.8755.2689zm7.7612-5.7166c.279 0 .529.0229.75.0687l-.132.8812c-.259-.0572-.488-.0858-.686-.0858-.508 0-.943.206-1.305.618-.359.412-.538.9251-.538 1.5393v3.3647h-.95v-6.2716h.784l.109 1.1616h.046c.232-.4082.513-.7229.841-.9442.328-.2212.688-.3319 1.081-.3319zm6.28 5.5449h-.052c-.438.6371-1.095.9557-1.968.9557-.82 0-1.459-.2804-1.917-.8412-.454-.5608-.681-1.3581-.681-2.3919 0-1.0339.229-1.8369.686-2.4091.458-.5723 1.095-.8584 1.912-.8584.85 0 1.503.309 1.957.927h.074l-.04-.452-.023-.4406v-2.5522h.95v8.9039h-.772zm-1.9.1603c.648 0 1.118-.1755 1.408-.5265.293-.3548.44-.9251.44-1.711v-.2002c0-.8889-.149-1.5222-.446-1.8998-.294-.3815-.765-.5723-1.414-.5723-.556 0-.984.2175-1.281.6524-.294.4311-.441 1.0414-.441 1.8311 0 .8011.147 1.4058.441 1.814.293.4082.725.6123 1.293.6123zm10.064.0114c.168 0 .33-.0114.486-.0343.157-.0267.281-.0534.372-.0801v.7267c-.103.0496-.255.0897-.458.1202-.198.0343-.377.0515-.537.0515-1.214 0-1.82-.639-1.82-1.917v-3.7309h-.899v-.4578l.899-.3949.4-1.339h.55v1.4535h1.819v.7382h-1.819v3.6908c0 .3777.089.6676.269.8698.179.2022.425.3033.738.3033zm3.155.6695h-.95v-6.2716h.95zm-1.03-7.9712c0-.2174.053-.3757.16-.4749.107-.103.24-.1545.401-.1545.152 0 .284.0515.395.1545.11.103.165.2613.165.4749 0 .2137-.055.3739-.165.4807-.111.103-.243.1545-.395.1545-.161 0-.294-.0515-.401-.1545-.107-.1068-.16-.267-.16-.4807zm5.158 7.3017c.168 0 .33-.0114.486-.0343.157-.0267.281-.0534.372-.0801v.7267c-.103.0496-.255.0897-.458.1202-.198.0343-.377.0515-.538.0515-1.213 0-1.819-.639-1.819-1.917v-3.7309h-.899v-.4578l.899-.3949.4-1.339h.55v1.4535h1.819v.7382h-1.819v3.6908c0 .3777.089.6676.269.8698.179.2022.425.3033.738.3033zm3.155.6695h-.95v-8.9039h.95zm4.751.1145c-.927 0-1.659-.2823-2.197-.8469-.534-.5646-.801-1.3486-.801-2.3519 0-1.0109.248-1.814.744-2.4091.5-.5951 1.169-.8927 2.008-.8927.786 0 1.408.2594 1.866.7783.458.515.686 1.1959.686 2.0428v.6009h-4.32c.019.7362.204 1.2951.555 1.6766.355.3815.853.5722 1.494.5722.675 0 1.343-.1411 2.003-.4234v.8469c-.336.145-.655.248-.956.309-.298.0648-.658.0973-1.082.0973zm-.257-5.7052c-.504 0-.906.1641-1.208.4921-.297.3281-.473.7821-.526 1.362h3.279c0-.599-.134-1.0568-.401-1.3734-.267-.3204-.648-.4807-1.144-.4807zm11.266 5.5907-.189-.8927h-.046c-.313.393-.626.66-.939.8012-.309.1373-.696.206-1.161.206-.622 0-1.11-.1603-1.465-.4807-.351-.3205-.527-.7763-.527-1.3676 0-1.2666 1.013-1.9304 3.039-1.9914l1.064-.0343v-.3891c0-.4922-.106-.8546-.32-1.0873-.21-.2365-.548-.3548-1.013-.3548-.523 0-1.114.1603-1.774.4807l-.292-.7267c.309-.1679.647-.2995 1.013-.3949.37-.0953.74-.143 1.11-.143.748 0 1.301.1659 1.66.4978.362.3319.543.8641.543 1.5965v4.2803zm-2.146-.6695c.591 0 1.054-.1621 1.39-.4864.34-.3242.509-.7782.509-1.3619v-.5665l-.949.0401c-.756.0267-1.301.1449-1.637.3547-.332.206-.498.5284-.498.9671 0 .3433.103.6047.309.784.21.1793.502.2689.876.2689zm9.192.6695v-4.0571c0-.5112-.117-.8927-.349-1.1445-.233-.2517-.597-.3776-1.093-.3776-.656 0-1.137.1774-1.442.5321-.305.3548-.458.9404-.458 1.7568v3.2903h-.95v-6.2716h.773l.154.8583h.046c.194-.309.467-.5474.818-.7153.351-.1716.742-.2575 1.173-.2575.756 0 1.324.1831 1.705.5494.382.3624.573.9441.573 1.7453v4.0914zm7.263-.8412h-.051c-.439.6371-1.095.9557-1.969.9557-.82 0-1.459-.2804-1.917-.8412-.453-.5608-.68-1.3581-.68-2.3919 0-1.0339.228-1.8369.686-2.4091.458-.5723 1.095-.8584 1.911-.8584.851 0 1.504.309 1.957.927h.075l-.04-.452-.023-.4406v-2.5522h.95v8.9039h-.773zm-1.899.1603c.648 0 1.117-.1755 1.407-.5265.294-.3548.441-.9251.441-1.711v-.2002c0-.8889-.149-1.5222-.446-1.8998-.294-.3815-.765-.5723-1.414-.5723-.557 0-.984.2175-1.282.6524-.293.4311-.44 1.0414-.44 1.8311 0 .8011.147 1.4058.44 1.814.294.4082.725.6123 1.294.6123zm-130.1851 17.6813v-4.08c0-.5-.1068-.874-.3204-1.122-.2136-.252-.5455-.378-.9957-.378-.5913 0-1.0281.17-1.3104.51-.2823.339-.4235.862-.4235 1.568v3.502h-.9499v-4.08c0-.5-.1068-.874-.3204-1.122-.2136-.252-.5474-.378-1.0014-.378-.5951 0-1.0319.18-1.3104.538-.2747.355-.412.939-.412 1.751v3.291h-.9499v-6.272h.7725l.1545.858h.0458c.1793-.305.431-.543.7553-.715.3281-.172.6943-.257 1.0987-.257.9804 0 1.6213.354 1.9227 1.064h.0458c.1869-.328.4577-.588.8125-.778.3548-.191.7592-.286 1.2132-.286.7095 0 1.2398.183 1.5908.549.3548.362.5321.944.5321 1.745v4.092zm6.8574 0-.1888-.893h-.0458c-.3128.393-.6256.66-.9384.801-.3091.137-.6963.206-1.1617.206-.6218 0-1.1101-.16-1.4649-.481-.351-.32-.5264-.776-.5264-1.367 0-1.267 1.0128-1.931 3.0385-1.992l1.0644-.034v-.389c0-.492-.1069-.855-.3205-1.087-.2098-.237-.5474-.355-1.0128-.355-.5227 0-1.114.16-1.774.481l-.2918-.727c.309-.168.6466-.3 1.0129-.395.37-.095.74-.143 1.1101-.143.7477 0 1.3009.166 1.6595.498.3624.332.5436.864.5436 1.596v4.281zm-2.1458-.67c.5913 0 1.0548-.162 1.3905-.486.3395-.325.5093-.779.5093-1.362v-.567l-.9499.04c-.7554.027-1.3009.145-1.6366.355-.3319.206-.4979.529-.4979.967 0 .344.103.605.309.784.2099.179.5017.269.8756.269zm5.8388-2.541c.164-.232.4139-.537.7496-.915l2.0257-2.146h1.1273l-2.5407 2.672 2.7181 3.6h-1.1502l-2.2145-2.965-.7153.618v2.347h-.9385v-8.904h.9385v4.721c0 .209-.0153.534-.0458.972zm7.9561 3.325c-.9271 0-1.6595-.282-2.1974-.847-.5341-.564-.8011-1.348-.8011-2.352 0-1.011.2479-1.814.7439-2.409.4997-.595 1.1692-.892 2.0085-.892.7859 0 1.4077.259 1.8655.778.4578.515.6866 1.196.6866 2.043v.6h-4.3203c.0191.737.2041 1.296.5551 1.677.3548.382.8526.572 1.4935.572.6752 0 1.3428-.141 2.0028-.423v.847c-.3357.145-.6542.248-.9556.309-.2976.065-.6581.097-1.0815.097zm-.2575-5.705c-.5036 0-.9061.164-1.2075.492-.2975.328-.473.782-.5264 1.362h3.2789c0-.599-.1335-1.057-.4006-1.373-.267-.321-.6485-.481-1.1444-.481zm8.3014-.681v4.069c0 .511.1164.892.3491 1.144s.597.378 1.093.378c.6561 0 1.1349-.18 1.4363-.538.3051-.359.4577-.944.4577-1.757v-3.296h.9499v6.272h-.7839l-.1374-.842h-.0515c-.1945.309-.4654.546-.8125.71-.3434.164-.7363.246-1.1788.246-.763 0-1.3352-.181-1.7167-.544-.3777-.362-.5665-.942-.5665-1.739v-4.103zm9.3123 6.386c-.4082 0-.7821-.074-1.1216-.223-.3357-.153-.618-.385-.8469-.698h-.0687c.0458.366.0687.713.0687 1.041v2.581h-.9499v-9.087h.7725l.1316.858h.0458c.2442-.343.5284-.591.8526-.744.3243-.152.6963-.228 1.1159-.228.8316 0 1.4725.284 1.9227.852.454.569.6809 1.366.6809 2.392 0 1.03-.2308 1.831-.6924 2.403-.4577.569-1.0948.853-1.9112.853zm-.1373-5.694c-.6409 0-1.1044.178-1.3906.533-.2861.354-.433.919-.4406 1.693v.212c0 .881.1469 1.513.4406 1.894.2938.378.7649.567 1.4134.567.5418 0 .9652-.22 1.2704-.658.309-.439.4635-1.044.4635-1.814 0-.782-.1545-1.381-.4635-1.797-.3052-.42-.7363-.63-1.2932-.63z" fill="#6a6e79"/><path d="m20.1185 142.589c-.8275 0-1.4815.276-1.9622.829-.4772.55-.7158 1.303-.7158 2.261 0 .985.23 1.748.6901 2.287.4635.535 1.1227.803 1.9776.803.5253 0 1.1244-.094 1.7974-.283v.767c-.5219.196-1.1657.294-1.9313.294-1.109 0-1.9656-.337-2.5699-1.01-.6008-.673-.9013-1.629-.9013-2.868 0-.776.1442-1.456.4326-2.04.2919-.583.7108-1.033 1.2567-1.349.5493-.316 1.1948-.474 1.9364-.474.7897 0 1.4798.144 2.0703.433l-.3708.752c-.5699-.268-1.1399-.402-1.7098-.402zm6.7724 6.855-.17-.804h-.0412c-.2815.354-.5631.594-.8446.721-.2781.124-.6266.186-1.0455.186-.5596 0-.9991-.144-1.3184-.433-.3159-.288-.4738-.699-.4738-1.231 0-1.14.9116-1.737 2.7347-1.792l.9579-.031v-.35c0-.443-.0961-.769-.2884-.979-.1888-.212-.4927-.319-.9116-.319-.4703 0-1.0025.144-1.5965.433l-.2627-.654c.2782-.151.582-.27.9116-.356.3331-.085.6661-.128.9991-.128.673 0 1.1708.149 1.4936.448.3261.298.4892.777.4892 1.437v3.852zm-1.9313-.603c.5321 0 .9493-.146 1.2514-.438.3056-.291.4584-.7.4584-1.225v-.51l-.8549.036c-.6798.024-1.1708.13-1.4729.319-.2987.186-.4481.476-.4481.871 0 .309.0927.544.2781.705.1888.162.4515.242.788.242zm6.9062-5.145c.2507 0 .4756.021.6747.062l-.1185.793c-.2334-.051-.4394-.077-.618-.077-.4566 0-.848.185-1.1742.556-.3227.371-.4841.833-.4841 1.386v3.028h-.8549v-5.645h.7056l.0978 1.046h.0412c.2094-.368.4618-.651.7571-.85.2952-.199.6197-.299.9733-.299zm5.5724 4.991h-.0463c-.3949.573-.9854.86-1.7717.86-.7381 0-1.3132-.253-1.7252-.757-.4086-.505-.6129-1.223-.6129-2.153s.206-1.653.618-2.168.9854-.773 1.7201-.773c.7657 0 1.3528.278 1.7614.835h.0669l-.036-.407-.0206-.397v-2.297h.8549v8.014h-.6953zm-1.7098.144c.5837 0 1.006-.158 1.2669-.474.2644-.319.3966-.832.3966-1.54v-.18c0-.8-.1339-1.37-.4017-1.71-.2644-.343-.6884-.515-1.2721-.515-.5013 0-.8858.196-1.1536.587-.2644.388-.3966.938-.3966 1.648 0 .721.1322 1.265.3966 1.633.2643.367.6523.551 1.1639.551zm8.0805.613h-.8755v-7.53h4.1973v.778h-3.3218v2.755h3.1209v.778h-3.1209zm9.3165-2.828c0 .921-.2318 1.64-.6953 2.158-.4635.515-1.1038.773-1.921.773-.5047 0-.9527-.119-1.3441-.356-.3914-.236-.6936-.576-.9065-1.019-.2128-.443-.3193-.962-.3193-1.556 0-.92.2301-1.636.6901-2.147.4601-.515 1.0987-.773 1.9159-.773.7897 0 1.4163.263 1.8798.788.4669.526.7004 1.236.7004 2.132zm-4.3003 0c0 .721.1442 1.271.4326 1.648.2884.378.7124.567 1.272.567.5597 0 .9837-.187 1.2721-.561.2918-.378.4378-.929.4378-1.654 0-.717-.146-1.261-.4378-1.632-.2884-.374-.7159-.562-1.2824-.562-.5596 0-.9819.184-1.2669.552-.285.367-.4274.915-.4274 1.642zm10.6761 0c0 .921-.2318 1.64-.6953 2.158-.4635.515-1.1038.773-1.921.773-.5047 0-.9527-.119-1.3441-.356-.3914-.236-.6936-.576-.9065-1.019-.2128-.443-.3193-.962-.3193-1.556 0-.92.2301-1.636.6902-2.147.46-.515 1.0986-.773 1.9158-.773.7897 0 1.4163.263 1.8798.788.4669.526.7004 1.236.7004 2.132zm-4.3003 0c0 .721.1442 1.271.4326 1.648.2884.378.7124.567 1.272.567.5597 0 .9837-.187 1.2721-.561.2918-.378.4378-.929.4378-1.654 0-.717-.146-1.261-.4378-1.632-.2884-.374-.7159-.562-1.2824-.562-.5596 0-.9819.184-1.2669.552-.285.367-.4274.915-.4274 1.642zm7.6272 2.225c.1511 0 .297-.01.4378-.031.1408-.024.2523-.048.3347-.072v.654c-.0927.045-.23.081-.412.108-.1785.031-.3399.047-.4841.047-1.0918 0-1.6377-.575-1.6377-1.725v-3.358h-.8086v-.412l.8086-.356.3605-1.205h.4944v1.308h1.6377v.665h-1.6377v3.321c0 .34.0807.601.2421.783.1613.182.3828.273.6643.273zm4.29.706c-.8343 0-1.4935-.254-1.9776-.762-.4807-.509-.721-1.214-.721-2.117 0-.91.2232-1.633.6695-2.168.4498-.536 1.0523-.804 1.8077-.804.7073 0 1.2669.234 1.6789.701.412.463.618 1.076.618 1.838v.541h-3.8883c.0172.663.1837 1.166.4996 1.509.3193.343.7673.515 1.3441.515.6078 0 1.2086-.127 1.8026-.381v.762c-.3022.131-.5889.223-.8601.278-.2678.059-.5922.088-.9734.088zm-.2317-5.135c-.4532 0-.8154.148-1.0867.443-.2678.295-.4257.704-.4738 1.226h2.951c0-.539-.1202-.951-.3605-1.236-.2403-.289-.5837-.433-1.03-.433zm6.3449-.716c.2506 0 .4755.021.6747.062l-.1185.793c-.2335-.051-.4395-.077-.618-.077-.4566 0-.8481.185-1.1742.556-.3228.371-.4841.833-.4841 1.386v3.028h-.8549v-5.645h.7055l.0979 1.046h.0412c.2094-.368.4618-.651.757-.85.2953-.199.6198-.299.9734-.299z" fill="#6a6e79"/><path d="m159.929 149.616h3.672v3.672h-3.672z" fill="#252a2e"/><path d="m159.929 138.6h3.672v3.672h-3.672z" fill="#000"/><path d="m159.929 144.108h3.672v3.672h-3.672z" fill="#000"/><rect height="164.312" rx="3" stroke="#da212c" stroke-width="2" width="173.688" x="6.656" y="6.07"/></g></svg>