<svg width="177" height="167" viewBox="0 0 177 167" fill="none" xmlns="http://www.w3.org/2000/svg">
<rect x="1.65625" y="1.07007" width="173.688" height="164.312" rx="3" fill="#585C65"/>
<path d="M16.3876 21.7214C15.5865 21.7214 14.9662 22.0236 14.5267 22.6278C14.0872 23.2275 13.8675 24.0653 13.8675 25.1411C13.8675 27.3796 14.7075 28.4989 16.3876 28.4989C17.0926 28.4989 17.9464 28.3227 18.9489 27.9702V29.7556C18.1249 30.0989 17.2048 30.2706 16.1885 30.2706C14.7281 30.2706 13.6112 29.8288 12.8375 28.9453C12.0638 28.0572 11.677 26.7845 11.677 25.1273C11.677 24.0836 11.867 23.1703 12.247 22.3875C12.6269 21.6001 13.1717 20.9981 13.8812 20.5815C14.5954 20.1604 15.4308 19.9498 16.3876 19.9498C17.3627 19.9498 18.3424 20.1856 19.3266 20.6571L18.6399 22.3875C18.2645 22.209 17.8869 22.0533 17.5069 21.9206C17.1269 21.7878 16.7538 21.7214 16.3876 21.7214ZM25.8899 30.1332L25.4847 29.0895H25.4298C25.0773 29.5335 24.7134 29.8425 24.338 30.0165C23.9672 30.1859 23.4819 30.2706 22.8822 30.2706C22.1452 30.2706 21.5638 30.06 21.1381 29.6388C20.7169 29.2177 20.5063 28.618 20.5063 27.8397C20.5063 27.0249 20.7901 26.4252 21.3578 26.0406C21.93 25.6515 22.7907 25.4364 23.9397 25.3952L25.2719 25.354V25.0175C25.2719 24.2392 24.8736 23.8501 24.077 23.8501C23.4636 23.8501 22.7426 24.0355 21.914 24.4063L21.2205 22.9918C22.104 22.5294 23.0836 22.2982 24.1594 22.2982C25.1895 22.2982 25.9791 22.5225 26.5285 22.9712C27.0778 23.4198 27.3525 24.1019 27.3525 25.0175V30.1332H25.8899ZM25.2719 26.5762L24.4616 26.6037C23.8527 26.622 23.3995 26.7319 23.102 26.9333C22.8044 27.1347 22.6556 27.4415 22.6556 27.8535C22.6556 28.444 22.9944 28.7393 23.6719 28.7393C24.1571 28.7393 24.544 28.5996 24.8324 28.3204C25.1254 28.0411 25.2719 27.6703 25.2719 27.208V26.5762ZM33.8883 22.312C34.1721 22.312 34.4079 22.3326 34.5956 22.3738L34.4376 24.3377C34.2682 24.2919 34.0622 24.269 33.8196 24.269C33.1513 24.269 32.6294 24.4407 32.254 24.784C31.8832 25.1273 31.6978 25.608 31.6978 26.226V30.1332H29.6034V22.4562H31.1896L31.4986 23.7471H31.6016C31.8397 23.3168 32.1601 22.9712 32.563 22.7102C32.9704 22.4447 33.4122 22.312 33.8883 22.312ZM38.5083 30.2706C37.6064 30.2706 36.8968 29.9204 36.3796 29.2199C35.8668 28.5195 35.6105 27.549 35.6105 26.3084C35.6105 25.0495 35.8714 24.0699 36.3933 23.3695C36.9197 22.6645 37.643 22.312 38.5632 22.312C39.5291 22.312 40.2661 22.6874 40.7743 23.4381H40.843C40.7377 22.8659 40.685 22.3555 40.685 21.9068V19.4485H42.7863V30.1332H41.1794L40.7743 29.1375H40.685C40.2089 29.8929 39.4833 30.2706 38.5083 30.2706ZM39.243 28.6019C39.7786 28.6019 40.17 28.4463 40.4172 28.135C40.669 27.8237 40.8063 27.295 40.8292 26.5488V26.3222C40.8292 25.4982 40.701 24.9076 40.4447 24.5505C40.1929 24.1935 39.7809 24.0149 39.2087 24.0149C38.7417 24.0149 38.3778 24.2141 38.1168 24.6123C37.8605 25.006 37.7323 25.5806 37.7323 26.3359C37.7323 27.0912 37.8628 27.6589 38.1237 28.0389C38.3847 28.4142 38.7577 28.6019 39.243 28.6019ZM52.8433 30.1332H50.7146V21.8656H47.9885V20.094H55.5694V21.8656H52.8433V30.1332ZM56.9483 20.4717C56.9483 19.7896 57.3283 19.4485 58.0882 19.4485C58.8481 19.4485 59.2281 19.7896 59.2281 20.4717C59.2281 20.7967 59.1319 21.0508 58.9397 21.2339C58.752 21.4124 58.4681 21.5017 58.0882 21.5017C57.3283 21.5017 56.9483 21.1583 56.9483 20.4717ZM59.1319 30.1332H57.0376V22.4562H59.1319V30.1332ZM64.6583 28.6019C65.0245 28.6019 65.464 28.5218 65.9767 28.3616V29.9204C65.4549 30.1538 64.814 30.2706 64.054 30.2706C63.2163 30.2706 62.6051 30.06 62.2206 29.6388C61.8406 29.2131 61.6507 28.5768 61.6507 27.7299V24.0287H60.6481V23.1428L61.8017 22.4424L62.406 20.8219H63.745V22.4562H65.8943V24.0287H63.745V27.7299C63.745 28.0274 63.8274 28.2472 63.9922 28.3891C64.1616 28.531 64.3836 28.6019 64.6583 28.6019ZM69.7178 30.1332H67.6234V19.4485H69.7178V30.1332ZM75.1892 23.8021C74.7451 23.8021 74.3972 23.944 74.1454 24.2278C73.8937 24.507 73.7495 24.9053 73.7128 25.4226H76.6518C76.6427 24.9053 76.5076 24.507 76.2467 24.2278C75.9857 23.944 75.6333 23.8021 75.1892 23.8021ZM75.4845 30.2706C74.2485 30.2706 73.2825 29.9295 72.5867 29.2474C71.8909 28.5653 71.5429 27.5994 71.5429 26.3496C71.5429 25.0633 71.8634 24.0699 72.5043 23.3695C73.1498 22.6645 74.0402 22.312 75.1755 22.312C76.2604 22.312 77.105 22.621 77.7093 23.239C78.3136 23.857 78.6157 24.7108 78.6157 25.8003V26.8166H73.6648C73.6877 27.4117 73.8639 27.8763 74.1935 28.2105C74.5231 28.5447 74.9855 28.7118 75.5806 28.7118C76.043 28.7118 76.4802 28.6637 76.8922 28.5676C77.3042 28.4715 77.7345 28.3181 78.1831 28.1075V29.7281C77.8169 29.9112 77.4255 30.0462 77.0089 30.1332C76.5923 30.2248 76.0842 30.2706 75.4845 30.2706ZM16.731 44.9072C16.731 45.6435 16.4639 46.2177 15.9298 46.6297C15.3958 47.0417 14.6709 47.2477 13.7554 47.2477C12.7635 47.2477 12.0005 47.1199 11.4664 46.8643V45.9258C11.8098 46.0708 12.1836 46.1852 12.588 46.2692C12.9924 46.3531 13.3929 46.395 13.7897 46.395C14.4382 46.395 14.9265 46.273 15.2546 46.0288C15.5827 45.7809 15.7467 45.4375 15.7467 44.9988C15.7467 44.7089 15.6876 44.4724 15.5693 44.2892C15.4549 44.1023 15.2603 43.9306 14.9857 43.7742C14.7148 43.6178 14.3009 43.4404 13.7439 43.2421C12.9657 42.9636 12.4087 42.6336 12.073 42.2521C11.7411 41.8706 11.5752 41.3728 11.5752 40.7586C11.5752 40.1139 11.8174 39.6008 12.3019 39.2193C12.7864 38.8378 13.4273 38.647 14.2246 38.647C15.0562 38.647 15.8211 38.7996 16.5192 39.1048L16.2159 39.9517C15.5255 39.6618 14.854 39.5168 14.2017 39.5168C13.6867 39.5168 13.2842 39.6275 12.9943 39.8487C12.7044 40.07 12.5594 40.3771 12.5594 40.77C12.5594 41.0599 12.6128 41.2984 12.7196 41.4853C12.8264 41.6684 13.0057 41.8382 13.2575 41.9946C13.5131 42.1472 13.9022 42.3169 14.4249 42.5039C15.3023 42.8167 15.905 43.1524 16.2331 43.511C16.565 43.8696 16.731 44.335 16.731 44.9072ZM19.2794 40.8616V44.9301C19.2794 45.4413 19.3958 45.8228 19.6285 46.0746C19.8612 46.3264 20.2255 46.4523 20.7215 46.4523C21.3776 46.4523 21.8564 46.273 22.1578 45.9144C22.463 45.5558 22.6156 44.9702 22.6156 44.1576V40.8616H23.5655V47.1332H22.7815L22.6442 46.292H22.5927C22.3981 46.6011 22.1273 46.8376 21.7801 47.0016C21.4368 47.1657 21.0438 47.2477 20.6013 47.2477C19.8383 47.2477 19.2661 47.0665 18.8846 46.7041C18.5069 46.3416 18.3181 45.7618 18.3181 44.9645V40.8616H19.2794ZM28.5917 40.7586C29.4157 40.7586 30.0547 41.0409 30.5087 41.6055C30.9665 42.1663 31.1954 42.9617 31.1954 43.9917C31.1954 45.0217 30.9646 45.8228 30.503 46.395C30.0452 46.9635 29.4081 47.2477 28.5917 47.2477C28.1835 47.2477 27.8097 47.1733 27.4701 47.0245C27.1344 46.8719 26.8521 46.6392 26.6232 46.3264H26.5546L26.3543 47.1332H25.6733V38.2293H26.6232V40.3923C26.6232 40.8768 26.608 41.3117 26.5775 41.697H26.6232C27.0658 41.0714 27.7219 40.7586 28.5917 40.7586ZM28.4544 41.554C27.8058 41.554 27.3385 41.7409 27.0524 42.1148C26.7663 42.4848 26.6232 43.1104 26.6232 43.9917C26.6232 44.8729 26.7701 45.5043 27.0639 45.8858C27.3576 46.2634 27.8287 46.4523 28.4773 46.4523C29.0609 46.4523 29.4958 46.2405 29.782 45.8171C30.0681 45.3898 30.2111 44.7775 30.2111 43.9802C30.2111 43.1638 30.0681 42.5554 29.782 42.1548C29.4958 41.7543 29.0533 41.554 28.4544 41.554ZM32.422 44.4266V43.5568H35.2317V44.4266H32.422ZM38.8388 46.4637C39.0066 46.4637 39.1688 46.4523 39.3252 46.4294C39.4816 46.4027 39.6056 46.376 39.6971 46.3493V47.076C39.5941 47.1256 39.4415 47.1657 39.2393 47.1962C39.041 47.2305 38.8617 47.2477 38.7014 47.2477C37.4883 47.2477 36.8817 46.6087 36.8817 45.3307V41.5997H35.9833V41.142L36.8817 40.7471L37.2823 39.4081H37.8316V40.8616H39.6513V41.5997H37.8316V45.2906C37.8316 45.6683 37.9213 45.9582 38.1006 46.1604C38.2799 46.3626 38.526 46.4637 38.8388 46.4637ZM43.6934 47.2477C42.7663 47.2477 42.0339 46.9654 41.496 46.4008C40.9619 45.8362 40.6949 45.0522 40.6949 44.0489C40.6949 43.038 40.9428 42.2349 41.4388 41.6398C41.9385 41.0447 42.608 40.7471 43.4473 40.7471C44.2332 40.7471 44.855 41.0065 45.3128 41.5254C45.7706 42.0404 45.9994 42.7213 45.9994 43.5682V44.1691H41.6791C41.6982 44.9053 41.8832 45.4642 42.2342 45.8457C42.5889 46.2272 43.0868 46.4179 43.7277 46.4179C44.4029 46.4179 45.0705 46.2768 45.7305 45.9945V46.8414C45.3948 46.9864 45.0762 47.0894 44.7749 47.1504C44.4773 47.2152 44.1168 47.2477 43.6934 47.2477ZM43.4359 41.5425C42.9323 41.5425 42.5298 41.7066 42.2284 42.0346C41.9309 42.3627 41.7554 42.8167 41.702 43.3966H44.9809C44.9809 42.7976 44.8474 42.3398 44.5803 42.0232C44.3133 41.7028 43.9318 41.5425 43.4359 41.5425ZM49.2232 43.923L47.043 40.8616H48.1245L49.7782 43.2649L51.4263 40.8616H52.4963L50.3161 43.923L52.6108 47.1332H51.535L49.7782 44.5925L48.0043 47.1332H46.9285L49.2232 43.923ZM55.9718 46.4637C56.1397 46.4637 56.3018 46.4523 56.4582 46.4294C56.6146 46.4027 56.7386 46.376 56.8302 46.3493V47.076C56.7272 47.1256 56.5746 47.1657 56.3724 47.1962C56.174 47.2305 55.9947 47.2477 55.8345 47.2477C54.6214 47.2477 54.0148 46.6087 54.0148 45.3307V41.5997H53.1164V41.142L54.0148 40.7471L54.4154 39.4081H54.9647V40.8616H56.7844V41.5997H54.9647V45.2906C54.9647 45.6683 55.0544 45.9582 55.2337 46.1604C55.413 46.3626 55.659 46.4637 55.9718 46.4637Z" fill="#fff"/>
<path d="M17.9028 70.8546C17.9028 71.5909 17.6358 72.165 17.1017 72.577C16.5676 72.989 15.8428 73.195 14.9272 73.195C13.9354 73.195 13.1724 73.0672 12.6383 72.8116V71.8732C12.9816 72.0182 13.3555 72.1326 13.7599 72.2165C14.1643 72.3005 14.5648 72.3424 14.9616 72.3424C15.6101 72.3424 16.0984 72.2203 16.4265 71.9762C16.7546 71.7282 16.9186 71.3849 16.9186 70.9462C16.9186 70.6562 16.8595 70.4197 16.7412 70.2366C16.6268 70.0497 16.4322 69.878 16.1575 69.7216C15.8867 69.5652 15.4728 69.3878 14.9158 69.1894C14.1375 68.9109 13.5806 68.581 13.2449 68.1995C12.913 67.818 12.747 67.3201 12.747 66.7059C12.747 66.0612 12.9893 65.5481 13.4738 65.1666C13.9583 64.7851 14.5991 64.5944 15.3965 64.5944C16.2281 64.5944 16.993 64.747 17.6911 65.0522L17.3878 65.8991C16.6973 65.6092 16.0259 65.4642 15.3736 65.4642C14.8586 65.4642 14.4561 65.5748 14.1662 65.7961C13.8762 66.0174 13.7313 66.3245 13.7313 66.7174C13.7313 67.0073 13.7847 67.2457 13.8915 67.4327C13.9983 67.6158 14.1776 67.7855 14.4294 67.942C14.685 68.0946 15.0741 68.2643 15.5967 68.4512C16.4742 68.7641 17.0769 69.0998 17.405 69.4584C17.7369 69.817 17.9028 70.2824 17.9028 70.8546ZM24.9719 69.939C24.9719 70.9614 24.7144 71.7606 24.1994 72.3367C23.6844 72.9089 22.973 73.195 22.065 73.195C21.5042 73.195 21.0064 73.0634 20.5715 72.8002C20.1366 72.537 19.8009 72.1593 19.5644 71.6672C19.3278 71.1751 19.2096 70.599 19.2096 69.939C19.2096 68.9167 19.4652 68.1213 19.9764 67.5528C20.4876 66.9806 21.1971 66.6945 22.1051 66.6945C22.9825 66.6945 23.6787 66.9863 24.1937 67.57C24.7125 68.1537 24.9719 68.9434 24.9719 69.939ZM20.1938 69.939C20.1938 70.7402 20.354 71.3505 20.6745 71.7702C20.9949 72.1898 21.4661 72.3996 22.0879 72.3996C22.7097 72.3996 23.1809 72.1917 23.5013 71.7759C23.8256 71.3563 23.9877 70.744 23.9877 69.939C23.9877 69.1417 23.8256 68.5371 23.5013 68.1251C23.1809 67.7093 22.7059 67.5013 22.0765 67.5013C21.4546 67.5013 20.9854 67.7054 20.6688 68.1136C20.3521 68.5218 20.1938 69.1303 20.1938 69.939ZM34.7248 73.0806V69.0006C34.7248 68.5008 34.618 68.127 34.4044 67.879C34.1907 67.6272 33.8589 67.5013 33.4087 67.5013C32.8174 67.5013 32.3806 67.6711 32.0983 68.0106C31.816 68.3502 31.6748 68.8728 31.6748 69.5785V73.0806H30.7249V69.0006C30.7249 68.5008 30.6181 68.127 30.4045 67.879C30.1909 67.6272 29.8571 67.5013 29.4031 67.5013C28.808 67.5013 28.3712 67.6806 28.0927 68.0392C27.818 68.394 27.6807 68.9777 27.6807 69.7903V73.0806H26.7308V66.8089H27.5033L27.6578 67.6673H27.7036C27.8829 67.3621 28.1346 67.1237 28.4589 66.952C28.787 66.7803 29.1532 66.6945 29.5576 66.6945C30.538 66.6945 31.1789 67.0493 31.4803 67.7588H31.5261C31.713 67.4308 31.9838 67.1714 32.3386 66.9806C32.6934 66.7899 33.0978 66.6945 33.5518 66.6945C34.2613 66.6945 34.7916 66.8776 35.1426 67.2438C35.4973 67.6062 35.6747 68.188 35.6747 68.9891V73.0806H34.7248ZM40.3748 73.195C39.4478 73.195 38.7153 72.9127 38.1774 72.3481C37.6434 71.7835 37.3763 70.9996 37.3763 69.9963C37.3763 68.9853 37.6243 68.1823 38.1202 67.5872C38.62 66.9921 39.2895 66.6945 40.1288 66.6945C40.9146 66.6945 41.5364 66.9539 41.9942 67.4727C42.452 67.9877 42.6809 68.6687 42.6809 69.5156V70.1164H38.3606C38.3796 70.8527 38.5647 71.4116 38.9156 71.7931C39.2704 72.1746 39.7682 72.3653 40.4091 72.3653C41.0844 72.3653 41.752 72.2242 42.412 71.9419V72.7888C42.0762 72.9337 41.7577 73.0367 41.4563 73.0978C41.1588 73.1626 40.7983 73.195 40.3748 73.195ZM40.1173 67.4899C39.6137 67.4899 39.2113 67.6539 38.9099 67.982C38.6123 68.3101 38.4369 68.7641 38.3834 69.3439H41.6623C41.6623 68.745 41.5288 68.2872 41.2618 67.9706C40.9947 67.6501 40.6132 67.4899 40.1173 67.4899ZM49.8951 72.3996C50.5284 72.3996 50.99 72.2299 51.2799 71.8904C51.5699 71.5508 51.7244 70.9786 51.7435 70.1737V69.9619C51.7435 69.0845 51.5947 68.4532 51.2971 68.0678C50.9995 67.6825 50.5284 67.4899 49.8837 67.4899C49.3267 67.4899 48.8995 67.7073 48.6019 68.1422C48.3082 68.5733 48.1613 69.1837 48.1613 69.9734C48.1613 70.7631 48.3062 71.3658 48.5962 71.7816C48.8899 72.1936 49.3229 72.3996 49.8951 72.3996ZM49.7521 73.195C48.9433 73.195 48.312 72.9108 47.858 72.3424C47.404 71.774 47.177 70.9805 47.177 69.9619C47.177 68.9357 47.4059 68.1346 47.8637 67.5586C48.3215 66.9825 48.9586 66.6945 49.775 66.6945C50.6333 66.6945 51.2933 67.0188 51.7549 67.6673H51.8064L51.9437 66.8089H52.6934V75.896H51.7435V73.2122C51.7435 72.8307 51.7644 72.5065 51.8064 72.2394H51.732C51.2933 72.8765 50.6333 73.195 49.7521 73.195ZM55.6939 66.8089V70.8775C55.6939 71.3887 55.8103 71.7702 56.043 72.022C56.2757 72.2737 56.64 72.3996 57.1359 72.3996C57.7921 72.3996 58.2709 72.2203 58.5722 71.8617C58.8774 71.5031 59.03 70.9176 59.03 70.105V66.8089H59.9799V73.0806H59.196L59.0586 72.2394H59.0071C58.8126 72.5484 58.5417 72.7849 58.1946 72.949C57.8512 73.113 57.4583 73.195 57.0158 73.195C56.2528 73.195 55.6806 73.0138 55.2991 72.6514C54.9214 72.289 54.7326 71.7091 54.7326 70.9118V66.8089H55.6939ZM63.0377 73.0806H62.0878V66.8089H63.0377V73.0806ZM62.0077 65.1094C62.0077 64.892 62.0611 64.7336 62.1679 64.6345C62.2747 64.5315 62.4082 64.48 62.5685 64.48C62.7211 64.48 62.8527 64.5315 62.9633 64.6345C63.0739 64.7375 63.1293 64.8958 63.1293 65.1094C63.1293 65.323 63.0739 65.4833 62.9633 65.5901C62.8527 65.6931 62.7211 65.7446 62.5685 65.7446C62.4082 65.7446 62.2747 65.6931 62.1679 65.5901C62.0611 65.4833 62.0077 65.323 62.0077 65.1094ZM67.6462 73.195C66.7383 73.195 66.0344 72.9166 65.5347 72.3596C65.0388 71.7988 64.7908 71.0072 64.7908 69.9848C64.7908 68.9357 65.0426 68.1251 65.5461 67.5528C66.0535 66.9806 66.7745 66.6945 67.7092 66.6945C68.0105 66.6945 68.3119 66.7269 68.6133 66.7918C68.9147 66.8566 69.1512 66.9329 69.3229 67.0207L69.031 67.8275C68.8212 67.7436 68.5923 67.6749 68.3443 67.6215C68.0964 67.5643 67.877 67.5357 67.6863 67.5357C66.4121 67.5357 65.775 68.3482 65.775 69.9734C65.775 70.744 65.9295 71.3353 66.2385 71.7473C66.5513 72.1593 67.0129 72.3653 67.6233 72.3653C68.146 72.3653 68.682 72.2528 69.2313 72.0277V72.8689C68.8117 73.0863 68.2833 73.195 67.6462 73.195ZM71.7512 69.8704C71.9152 69.6377 72.1651 69.3325 72.5008 68.9548L74.5265 66.8089H75.6538L73.1131 69.4813L75.8312 73.0806H74.681L72.4665 70.1164L71.7512 70.7344V73.0806H70.8127V64.1767H71.7512V68.8976C71.7512 69.1074 71.7359 69.4317 71.7054 69.8704H71.7512ZM82.8394 73.195C81.9124 73.195 81.1799 72.9127 80.6421 72.3481C80.108 71.7835 79.8409 70.9996 79.8409 69.9963C79.8409 68.9853 80.0889 68.1823 80.5848 67.5872C81.0846 66.9921 81.7541 66.6945 82.5934 66.6945C83.3792 66.6945 84.001 66.9539 84.4588 67.4727C84.9166 67.9877 85.1455 68.6687 85.1455 69.5156V70.1164H80.8252C80.8442 70.8527 81.0293 71.4116 81.3802 71.7931C81.735 72.1746 82.2329 72.3653 82.8738 72.3653C83.549 72.3653 84.2166 72.2242 84.8766 71.9419V72.7888C84.5409 72.9337 84.2223 73.0367 83.9209 73.0978C83.6234 73.1626 83.2629 73.195 82.8394 73.195ZM82.5819 67.4899C82.0784 67.4899 81.6759 67.6539 81.3745 67.982C81.0769 68.3101 80.9015 68.7641 80.8481 69.3439H84.1269C84.1269 68.745 83.9934 68.2872 83.7264 67.9706C83.4593 67.6501 83.0778 67.4899 82.5819 67.4899ZM88.3692 69.8704L86.189 66.8089H87.2706L88.9243 69.2123L90.5723 66.8089H91.6424L89.4622 69.8704L91.7568 73.0806H90.6811L88.9243 70.5399L87.1504 73.0806H86.0746L88.3692 69.8704ZM96.949 73.0806L96.7602 72.1879H96.7144C96.4016 72.5808 96.0888 72.8479 95.776 72.989C95.467 73.1264 95.0798 73.195 94.6143 73.195C93.9925 73.195 93.5042 73.0348 93.1494 72.7144C92.7985 72.3939 92.623 71.938 92.623 71.3467C92.623 70.0802 93.6358 69.4164 95.6615 69.3554L96.7259 69.321V68.9319C96.7259 68.4398 96.6191 68.0774 96.4054 67.8447C96.1956 67.6082 95.858 67.4899 95.3926 67.4899C94.8699 67.4899 94.2786 67.6501 93.6187 67.9706L93.3268 67.2438C93.6358 67.076 93.9734 66.9444 94.3397 66.849C94.7097 66.7536 95.0798 66.7059 95.4498 66.7059C96.1975 66.7059 96.7507 66.8719 97.1093 67.2038C97.4717 67.5357 97.6529 68.0678 97.6529 68.8003V73.0806H96.949ZM94.8032 72.4111C95.3945 72.4111 95.858 72.249 96.1937 71.9247C96.5332 71.6004 96.703 71.1465 96.703 70.5628V69.9963L95.7531 70.0363C94.9977 70.063 94.4522 70.1813 94.1165 70.3911C93.7846 70.5971 93.6187 70.9195 93.6187 71.3582C93.6187 71.7015 93.7217 71.9628 93.9277 72.1421C94.1375 72.3214 94.4293 72.4111 94.8032 72.4111ZM107.698 73.0806V69.0006C107.698 68.5008 107.591 68.127 107.377 67.879C107.164 67.6272 106.832 67.5013 106.381 67.5013C105.79 67.5013 105.353 67.6711 105.071 68.0106C104.789 68.3502 104.648 68.8728 104.648 69.5785V73.0806H103.698V69.0006C103.698 68.5008 103.591 68.127 103.377 67.879C103.164 67.6272 102.83 67.5013 102.376 67.5013C101.781 67.5013 101.344 67.6806 101.065 68.0392C100.791 68.394 100.653 68.9777 100.653 69.7903V73.0806H99.7035V66.8089H100.476L100.631 67.6673H100.676C100.856 67.3621 101.107 67.1237 101.432 66.952C101.76 66.7803 102.126 66.6945 102.53 66.6945C103.511 66.6945 104.152 67.0493 104.453 67.7588H104.499C104.686 67.4308 104.957 67.1714 105.311 66.9806C105.666 66.7899 106.071 66.6945 106.525 66.6945C107.234 66.6945 107.764 66.8776 108.115 67.2438C108.47 67.6062 108.648 68.188 108.648 68.9891V73.0806H107.698ZM113.617 73.195C113.208 73.195 112.834 73.1207 112.495 72.9719C112.159 72.8193 111.877 72.5866 111.648 72.2737H111.579C111.625 72.64 111.648 72.9871 111.648 73.3152V75.896H110.698V66.8089H111.471L111.602 67.6673H111.648C111.892 67.3239 112.176 67.076 112.501 66.9234C112.825 66.7708 113.197 66.6945 113.617 66.6945C114.448 66.6945 115.089 66.9787 115.539 67.5471C115.993 68.1155 116.22 68.9128 116.22 69.939C116.22 70.9691 115.989 71.7702 115.528 72.3424C115.07 72.9108 114.433 73.195 113.617 73.195ZM113.479 67.5013C112.838 67.5013 112.375 67.6787 112.089 68.0335C111.803 68.3883 111.656 68.9529 111.648 69.7273V69.939C111.648 70.8203 111.795 71.4516 112.089 71.8331C112.382 72.2108 112.854 72.3996 113.502 72.3996C114.044 72.3996 114.467 72.1803 114.772 71.7416C115.081 71.3029 115.236 70.6982 115.236 69.9276C115.236 69.1456 115.081 68.5466 114.772 68.1308C114.467 67.7112 114.036 67.5013 113.479 67.5013ZM118.923 73.0806H117.973V64.1767H118.923V73.0806ZM123.675 73.195C122.748 73.195 122.015 72.9127 121.477 72.3481C120.943 71.7835 120.676 70.9996 120.676 69.9963C120.676 68.9853 120.924 68.1823 121.42 67.5872C121.92 66.9921 122.589 66.6945 123.429 66.6945C124.215 66.6945 124.836 66.9539 125.294 67.4727C125.752 67.9877 125.981 68.6687 125.981 69.5156V70.1164H121.661C121.68 70.8527 121.865 71.4116 122.216 71.7931C122.57 72.1746 123.068 72.3653 123.709 72.3653C124.384 72.3653 125.052 72.2242 125.712 71.9419V72.7888C125.376 72.9337 125.058 73.0367 124.756 73.0978C124.459 73.1626 124.098 73.195 123.675 73.195ZM123.417 67.4899C122.914 67.4899 122.511 67.6539 122.21 67.982C121.912 68.3101 121.737 68.7641 121.683 69.3439H124.962C124.962 68.745 124.829 68.2872 124.562 67.9706C124.295 67.6501 123.913 67.4899 123.417 67.4899ZM132.852 72.4111C133.02 72.4111 133.182 72.3996 133.338 72.3768C133.495 72.35 133.619 72.3233 133.71 72.2966V73.0234C133.607 73.073 133.455 73.113 133.252 73.1435C133.054 73.1779 132.875 73.195 132.714 73.195C131.501 73.195 130.895 72.5561 130.895 71.2781V67.5471H129.996V67.0893L130.895 66.6945L131.295 65.3555H131.845V66.8089H133.664V67.5471H131.845V71.238C131.845 71.6157 131.934 71.9056 132.114 72.1078C132.293 72.31 132.539 72.4111 132.852 72.4111ZM137.706 73.195C136.779 73.195 136.047 72.9127 135.509 72.3481C134.975 71.7835 134.708 70.9996 134.708 69.9963C134.708 68.9853 134.956 68.1823 135.452 67.5872C135.951 66.9921 136.621 66.6945 137.46 66.6945C138.246 66.6945 138.868 66.9539 139.326 67.4727C139.784 67.9877 140.012 68.6687 140.012 69.5156V70.1164H135.692C135.711 70.8527 135.896 71.4116 136.247 71.7931C136.602 72.1746 137.1 72.3653 137.741 72.3653C138.416 72.3653 139.084 72.2242 139.743 71.9419V72.7888C139.408 72.9337 139.089 73.0367 138.788 73.0978C138.49 73.1626 138.13 73.195 137.706 73.195ZM137.449 67.4899C136.945 67.4899 136.543 67.6539 136.241 67.982C135.944 68.3101 135.768 68.7641 135.715 69.3439H138.994C138.994 68.745 138.86 68.2872 138.593 67.9706C138.326 67.6501 137.945 67.4899 137.449 67.4899ZM143.236 69.8704L141.056 66.8089H142.137L143.791 69.2123L145.439 66.8089H146.509L144.329 69.8704L146.624 73.0806H145.548L143.791 70.5399L142.017 73.0806H140.942L143.236 69.8704ZM149.985 72.4111C150.153 72.4111 150.315 72.3996 150.471 72.3768C150.628 72.35 150.752 72.3233 150.843 72.2966V73.0234C150.74 73.073 150.588 73.113 150.385 73.1435C150.187 73.1779 150.008 73.195 149.847 73.195C148.634 73.195 148.028 72.5561 148.028 71.2781V67.5471H147.129V67.0893L148.028 66.6945L148.428 65.3555H148.978V66.8089H150.797V67.5471H148.978V71.238C148.978 71.6157 149.067 71.9056 149.247 72.1078C149.426 72.31 149.672 72.4111 149.985 72.4111ZM157.348 72.4111C157.516 72.4111 157.678 72.3996 157.834 72.3768C157.991 72.35 158.115 72.3233 158.206 72.2966V73.0234C158.103 73.073 157.951 73.113 157.748 73.1435C157.55 73.1779 157.371 73.195 157.21 73.195C155.997 73.195 155.391 72.5561 155.391 71.2781V67.5471H154.492V67.0893L155.391 66.6945L155.791 65.3555H156.341V66.8089H158.16V67.5471H156.341V71.238C156.341 71.6157 156.43 71.9056 156.61 72.1078C156.789 72.31 157.035 72.4111 157.348 72.4111ZM164.966 69.939C164.966 70.9614 164.709 71.7606 164.194 72.3367C163.679 72.9089 162.967 73.195 162.059 73.195C161.499 73.195 161.001 73.0634 160.566 72.8002C160.131 72.537 159.795 72.1593 159.559 71.6672C159.322 71.1751 159.204 70.599 159.204 69.939C159.204 68.9167 159.46 68.1213 159.971 67.5528C160.482 66.9806 161.191 66.6945 162.099 66.6945C162.977 66.6945 163.673 66.9863 164.188 67.57C164.707 68.1537 164.966 68.9434 164.966 69.939ZM160.188 69.939C160.188 70.7402 160.348 71.3505 160.669 71.7702C160.989 72.1898 161.46 72.3996 162.082 72.3996C162.704 72.3996 163.175 72.1917 163.496 71.7759C163.82 71.3563 163.982 70.744 163.982 69.939C163.982 69.1417 163.82 68.5371 163.496 68.1251C163.175 67.7093 162.7 67.5013 162.071 67.5013C161.449 67.5013 160.98 67.7054 160.663 68.1136C160.346 68.5218 160.188 69.1303 160.188 69.939ZM15.9572 82.7059C16.7813 82.7059 17.4203 82.9882 17.8742 83.5528C18.332 84.1136 18.5609 84.909 18.5609 85.939C18.5609 86.9691 18.3301 87.7702 17.8685 88.3424C17.4107 88.9108 16.7736 89.195 15.9572 89.195C15.5491 89.195 15.1752 89.1207 14.8357 88.9719C14.5 88.8193 14.2177 88.5866 13.9888 88.2737H13.9201L13.7198 89.0806H13.0389V80.1767H13.9888V82.3397C13.9888 82.8242 13.9735 83.2591 13.943 83.6444H13.9888C14.4313 83.0188 15.0875 82.7059 15.9572 82.7059ZM15.8199 83.5013C15.1714 83.5013 14.7041 83.6883 14.4179 84.0621C14.1318 84.4322 13.9888 85.0578 13.9888 85.939C13.9888 86.8203 14.1356 87.4516 14.4294 87.8331C14.7231 88.2108 15.1943 88.3996 15.8428 88.3996C16.4265 88.3996 16.8614 88.1879 17.1475 87.7645C17.4336 87.3372 17.5767 86.7249 17.5767 85.9276C17.5767 85.1112 17.4336 84.5027 17.1475 84.1022C16.8614 83.7016 16.4188 83.5013 15.8199 83.5013ZM21.2067 82.8089V86.8775C21.2067 87.3887 21.323 87.7702 21.5557 88.022C21.7884 88.2737 22.1528 88.3996 22.6487 88.3996C23.3048 88.3996 23.7836 88.2203 24.085 87.8617C24.3902 87.5031 24.5428 86.9176 24.5428 86.105V82.8089H25.4927V89.0806H24.7087L24.5714 88.2394H24.5199C24.3253 88.5484 24.0545 88.7849 23.7073 88.949C23.364 89.113 22.971 89.195 22.5285 89.195C21.7655 89.195 21.1933 89.0138 20.8118 88.6514C20.4342 88.289 20.2453 87.7091 20.2453 86.9118V82.8089H21.2067ZM28.5505 89.0806H27.6006V82.8089H28.5505V89.0806ZM27.5204 81.1094C27.5204 80.892 27.5738 80.7336 27.6807 80.6345C27.7875 80.5315 27.921 80.48 28.0812 80.48C28.2338 80.48 28.3654 80.5315 28.4761 80.6345C28.5867 80.7375 28.642 80.8958 28.642 81.1094C28.642 81.323 28.5867 81.4833 28.4761 81.5901C28.3654 81.6931 28.2338 81.7446 28.0812 81.7446C27.921 81.7446 27.7875 81.6931 27.6807 81.5901C27.5738 81.4833 27.5204 81.323 27.5204 81.1094ZM31.6025 89.0806H30.6526V80.1767H31.6025V89.0806ZM37.9735 88.2394H37.922C37.4833 88.8765 36.8271 89.195 35.9535 89.195C35.1333 89.195 34.4943 88.9146 34.0366 88.3539C33.5826 87.7931 33.3556 86.9958 33.3556 85.9619C33.3556 84.9281 33.5845 84.1251 34.0423 83.5528C34.5001 82.9806 35.1371 82.6945 35.9535 82.6945C36.8042 82.6945 37.4566 83.0035 37.9106 83.6215H37.9849L37.9449 83.1694L37.922 82.7288V80.1767H38.8719V89.0806H38.0994L37.9735 88.2394ZM36.0737 88.3996C36.7222 88.3996 37.1915 88.2242 37.4814 87.8732C37.7751 87.5184 37.922 86.9481 37.922 86.1622V85.9619C37.922 85.0731 37.7732 84.4398 37.4757 84.0621C37.1819 83.6806 36.7108 83.4899 36.0623 83.4899C35.5053 83.4899 35.078 83.7073 34.7805 84.1422C34.4867 84.5733 34.3398 85.1837 34.3398 85.9734C34.3398 86.7745 34.4867 87.3792 34.7805 87.7874C35.0742 88.1955 35.5053 88.3996 36.0737 88.3996ZM49.5253 85.939C49.5253 86.9614 49.2677 87.7606 48.7527 88.3367C48.2377 88.9089 47.5263 89.195 46.6183 89.195C46.0575 89.195 45.5597 89.0634 45.1248 88.8002C44.6899 88.537 44.3542 88.1593 44.1177 87.6672C43.8811 87.1751 43.7629 86.599 43.7629 85.939C43.7629 84.9167 44.0185 84.1213 44.5297 83.5528C45.0409 82.9806 45.7504 82.6945 46.6584 82.6945C47.5358 82.6945 48.232 82.9863 48.747 83.57C49.2658 84.1537 49.5253 84.9434 49.5253 85.939ZM44.7471 85.939C44.7471 86.7402 44.9073 87.3505 45.2278 87.7702C45.5482 88.1898 46.0194 88.3996 46.6412 88.3996C47.263 88.3996 47.7342 88.1917 48.0546 87.7759C48.3789 87.3563 48.541 86.744 48.541 85.939C48.541 85.1417 48.3789 84.5371 48.0546 84.1251C47.7342 83.7093 47.2592 83.5013 46.6298 83.5013C46.0079 83.5013 45.5387 83.7054 45.2221 84.1136C44.9054 84.5218 44.7471 85.1303 44.7471 85.939ZM55.5758 89.0806V85.0235C55.5758 84.5123 55.4594 84.1308 55.2267 83.879C54.994 83.6272 54.6297 83.5013 54.1338 83.5013C53.4776 83.5013 52.9969 83.6787 52.6918 84.0335C52.3866 84.3883 52.234 84.9739 52.234 85.7903V89.0806H51.2841V82.8089H52.0566L52.2111 83.6673H52.2569C52.4514 83.3583 52.7242 83.1199 53.0751 82.952C53.4261 82.7803 53.8171 82.6945 54.2482 82.6945C55.0036 82.6945 55.572 82.8776 55.9535 83.2438C56.335 83.6062 56.5257 84.188 56.5257 84.9891V89.0806H55.5758ZM63.7285 88.4111C63.8963 88.4111 64.0585 88.3996 64.2149 88.3768C64.3713 88.35 64.4953 88.3233 64.5868 88.2966V89.0234C64.4838 89.073 64.3312 89.113 64.1291 89.1435C63.9307 89.1779 63.7514 89.195 63.5912 89.195C62.378 89.195 61.7715 88.5561 61.7715 87.2781V83.5471H60.8731V83.0893L61.7715 82.6945L62.172 81.3555H62.7214V82.8089H64.5411V83.5471H62.7214V87.238C62.7214 87.6157 62.811 87.9056 62.9903 88.1078C63.1696 88.31 63.4157 88.4111 63.7285 88.4111ZM70.2254 89.0806V85.0235C70.2254 84.5123 70.109 84.1308 69.8763 83.879C69.6436 83.6272 69.2793 83.5013 68.7834 83.5013C68.1234 83.5013 67.6408 83.6806 67.3356 84.0392C67.0342 84.3978 66.8835 84.9853 66.8835 85.8017V89.0806H65.9336V80.1767H66.8835V82.8719C66.8835 83.1962 66.8683 83.4651 66.8378 83.6787H66.895C67.0819 83.3774 67.3471 83.1408 67.6904 82.9692C68.0375 82.7937 68.4324 82.7059 68.8749 82.7059C69.6417 82.7059 70.2158 82.8891 70.5973 83.2553C70.9826 83.6177 71.1753 84.1956 71.1753 84.9891V89.0806H70.2254ZM75.8696 89.195C74.9426 89.195 74.2102 88.9127 73.6723 88.3481C73.1382 87.7835 72.8711 86.9996 72.8711 85.9963C72.8711 84.9853 73.1191 84.1823 73.615 83.5872C74.1148 82.9921 74.7843 82.6945 75.6236 82.6945C76.4094 82.6945 77.0313 82.9539 77.4891 83.4727C77.9468 83.9877 78.1757 84.6687 78.1757 85.5156V86.1164H73.8554C73.8745 86.8527 74.0595 87.4116 74.4104 87.7931C74.7652 88.1746 75.2631 88.3653 75.904 88.3653C76.5792 88.3653 77.2468 88.2242 77.9068 87.9419V88.7888C77.5711 88.9337 77.2525 89.0367 76.9512 89.0978C76.6536 89.1626 76.2931 89.195 75.8696 89.195ZM75.6121 83.4899C75.1086 83.4899 74.7061 83.6539 74.4047 83.982C74.1072 84.3101 73.9317 84.7641 73.8783 85.3439H77.1572C77.1572 84.745 77.0236 84.2872 76.7566 83.9706C76.4896 83.6501 76.1081 83.4899 75.6121 83.4899ZM85.5273 89.195C84.6194 89.195 83.9155 88.9166 83.4158 88.3596C82.9198 87.7988 82.6719 87.0072 82.6719 85.9848C82.6719 84.9357 82.9236 84.1251 83.4272 83.5528C83.9346 82.9806 84.6556 82.6945 85.5902 82.6945C85.8916 82.6945 86.193 82.7269 86.4944 82.7918C86.7957 82.8566 87.0323 82.9329 87.2039 83.0207L86.9121 83.8275C86.7023 83.7436 86.4734 83.6749 86.2254 83.6215C85.9775 83.5643 85.7581 83.5357 85.5674 83.5357C84.2932 83.5357 83.6561 84.3482 83.6561 85.9734C83.6561 86.744 83.8106 87.3353 84.1196 87.7473C84.4324 88.1593 84.894 88.3653 85.5044 88.3653C86.0271 88.3653 86.563 88.2528 87.1124 88.0277V88.8689C86.6927 89.0863 86.1644 89.195 85.5273 89.195ZM92.5506 89.0806L92.3618 88.1879H92.316C92.0032 88.5808 91.6904 88.8479 91.3776 88.989C91.0686 89.1264 90.6814 89.195 90.2159 89.195C89.5941 89.195 89.1058 89.0348 88.751 88.7144C88.4001 88.3939 88.2246 87.938 88.2246 87.3467C88.2246 86.0802 89.2374 85.4164 91.2631 85.3554L92.3275 85.321V84.9319C92.3275 84.4398 92.2207 84.0774 92.007 83.8447C91.7972 83.6082 91.4596 83.4899 90.9942 83.4899C90.4715 83.4899 89.8802 83.6501 89.2203 83.9706L88.9284 83.2438C89.2374 83.076 89.575 82.9444 89.9413 82.849C90.3113 82.7536 90.6814 82.7059 91.0514 82.7059C91.7991 82.7059 92.3523 82.8719 92.7109 83.2038C93.0733 83.5357 93.2545 84.0678 93.2545 84.8003V89.0806H92.5506ZM90.4048 88.4111C90.9961 88.4111 91.4596 88.249 91.7953 87.9247C92.1348 87.6004 92.3046 87.1465 92.3046 86.5628V85.9963L91.3547 86.0363C90.5993 86.063 90.0538 86.1813 89.7181 86.3911C89.3862 86.5971 89.2203 86.9195 89.2203 87.3582C89.2203 87.7015 89.3233 87.9628 89.5293 88.1421C89.7391 88.3214 90.0309 88.4111 90.4048 88.4111ZM98.1663 82.6945C98.4448 82.6945 98.6946 82.7174 98.9159 82.7632L98.7843 83.6444C98.5249 83.5872 98.296 83.5586 98.0976 83.5586C97.5902 83.5586 97.1553 83.7646 96.7929 84.1766C96.4343 84.5886 96.255 85.1017 96.255 85.7159V89.0806H95.3051V82.8089H96.0891L96.1978 83.9706H96.2436C96.4763 83.5624 96.7567 83.2477 97.0848 83.0264C97.4129 82.8051 97.7734 82.6945 98.1663 82.6945ZM104.446 88.2394H104.394C103.956 88.8765 103.299 89.195 102.426 89.195C101.606 89.195 100.967 88.9146 100.509 88.3539C100.055 87.7931 99.8278 86.9958 99.8278 85.9619C99.8278 84.9281 100.057 84.1251 100.514 83.5528C100.972 82.9806 101.609 82.6945 102.426 82.6945C103.276 82.6945 103.929 83.0035 104.383 83.6215H104.457L104.417 83.1694L104.394 82.7288V80.1767H105.344V89.0806H104.572L104.446 88.2394ZM102.546 88.3996C103.194 88.3996 103.664 88.2242 103.954 87.8732C104.247 87.5184 104.394 86.9481 104.394 86.1622V85.9619C104.394 85.0731 104.245 84.4398 103.948 84.0621C103.654 83.6806 103.183 83.4899 102.534 83.4899C101.978 83.4899 101.55 83.7073 101.253 84.1422C100.959 84.5733 100.812 85.1837 100.812 85.9734C100.812 86.7745 100.959 87.3792 101.253 87.7874C101.546 88.1955 101.978 88.3996 102.546 88.3996ZM112.61 88.4111C112.778 88.4111 112.94 88.3996 113.096 88.3768C113.253 88.35 113.377 88.3233 113.468 88.2966V89.0234C113.365 89.073 113.213 89.113 113.01 89.1435C112.812 89.1779 112.633 89.195 112.473 89.195C111.259 89.195 110.653 88.5561 110.653 87.2781V83.5471H109.754V83.0893L110.653 82.6945L111.053 81.3555H111.603V82.8089H113.422V83.5471H111.603V87.238C111.603 87.6157 111.692 87.9056 111.872 88.1078C112.051 88.31 112.297 88.4111 112.61 88.4111ZM115.765 89.0806H114.815V82.8089H115.765V89.0806ZM114.735 81.1094C114.735 80.892 114.788 80.7336 114.895 80.6345C115.002 80.5315 115.135 80.48 115.296 80.48C115.448 80.48 115.58 80.5315 115.691 80.6345C115.801 80.7375 115.856 80.8958 115.856 81.1094C115.856 81.323 115.801 81.4833 115.691 81.5901C115.58 81.6931 115.448 81.7446 115.296 81.7446C115.135 81.7446 115.002 81.6931 114.895 81.5901C114.788 81.4833 114.735 81.323 114.735 81.1094ZM119.893 88.4111C120.061 88.4111 120.223 88.3996 120.379 88.3768C120.536 88.35 120.66 88.3233 120.751 88.2966V89.0234C120.648 89.073 120.496 89.113 120.293 89.1435C120.095 89.1779 119.916 89.195 119.755 89.195C118.542 89.195 117.936 88.5561 117.936 87.2781V83.5471H117.037V83.0893L117.936 82.6945L118.336 81.3555H118.886V82.8089H120.705V83.5471H118.886V87.238C118.886 87.6157 118.975 87.9056 119.155 88.1078C119.334 88.31 119.58 88.4111 119.893 88.4111ZM123.048 89.0806H122.098V80.1767H123.048V89.0806ZM127.799 89.195C126.872 89.195 126.14 88.9127 125.602 88.3481C125.068 87.7835 124.801 86.9996 124.801 85.9963C124.801 84.9853 125.049 84.1823 125.545 83.5872C126.045 82.9921 126.714 82.6945 127.553 82.6945C128.339 82.6945 128.961 82.9539 129.419 83.4727C129.877 83.9877 130.105 84.6687 130.105 85.5156V86.1164H125.785C125.804 86.8527 125.989 87.4116 126.34 87.7931C126.695 88.1746 127.193 88.3653 127.834 88.3653C128.509 88.3653 129.177 88.2242 129.837 87.9419V88.7888C129.501 88.9337 129.182 89.0367 128.881 89.0978C128.583 89.1626 128.223 89.195 127.799 89.195ZM127.542 83.4899C127.038 83.4899 126.636 83.6539 126.334 83.982C126.037 84.3101 125.861 84.7641 125.808 85.3439H129.087C129.087 84.745 128.953 84.2872 128.686 83.9706C128.419 83.6501 128.038 83.4899 127.542 83.4899ZM138.808 89.0806L138.619 88.1879H138.573C138.26 88.5808 137.947 88.8479 137.634 88.989C137.325 89.1264 136.938 89.195 136.473 89.195C135.851 89.195 135.363 89.0348 135.008 88.7144C134.657 88.3939 134.481 87.938 134.481 87.3467C134.481 86.0802 135.494 85.4164 137.52 85.3554L138.584 85.321V84.9319C138.584 84.4398 138.478 84.0774 138.264 83.8447C138.054 83.6082 137.716 83.4899 137.251 83.4899C136.728 83.4899 136.137 83.6501 135.477 83.9706L135.185 83.2438C135.494 83.076 135.832 82.9444 136.198 82.849C136.568 82.7536 136.938 82.7059 137.308 82.7059C138.056 82.7059 138.609 82.8719 138.968 83.2038C139.33 83.5357 139.511 84.0678 139.511 84.8003V89.0806H138.808ZM136.662 88.4111C137.253 88.4111 137.716 88.249 138.052 87.9247C138.392 87.6004 138.561 87.1465 138.561 86.5628V85.9963L137.612 86.0363C136.856 86.063 136.311 86.1813 135.975 86.3911C135.643 86.5971 135.477 86.9195 135.477 87.3582C135.477 87.7015 135.58 87.9628 135.786 88.1421C135.996 88.3214 136.288 88.4111 136.662 88.4111ZM145.854 89.0806V85.0235C145.854 84.5123 145.737 84.1308 145.505 83.879C145.272 83.6272 144.908 83.5013 144.412 83.5013C143.756 83.5013 143.275 83.6787 142.97 84.0335C142.665 84.3883 142.512 84.9739 142.512 85.7903V89.0806H141.562V82.8089H142.335L142.489 83.6673H142.535C142.729 83.3583 143.002 83.1199 143.353 82.952C143.704 82.7803 144.095 82.6945 144.526 82.6945C145.282 82.6945 145.85 82.8776 146.231 83.2438C146.613 83.6062 146.804 84.188 146.804 84.9891V89.0806H145.854ZM153.117 88.2394H153.066C152.627 88.8765 151.971 89.195 151.097 89.195C150.277 89.195 149.638 88.9146 149.18 88.3539C148.727 87.7931 148.5 86.9958 148.5 85.9619C148.5 84.9281 148.728 84.1251 149.186 83.5528C149.644 82.9806 150.281 82.6945 151.097 82.6945C151.948 82.6945 152.601 83.0035 153.054 83.6215H153.129L153.089 83.1694L153.066 82.7288V80.1767H154.016V89.0806H153.243L153.117 88.2394ZM151.218 88.3996C151.866 88.3996 152.335 88.2242 152.625 87.8732C152.919 87.5184 153.066 86.9481 153.066 86.1622V85.9619C153.066 85.0731 152.917 84.4398 152.62 84.0621C152.326 83.6806 151.855 83.4899 151.206 83.4899C150.649 83.4899 150.222 83.7073 149.924 84.1422C149.631 84.5733 149.484 85.1837 149.484 85.9734C149.484 86.7745 149.631 87.3792 149.924 87.7874C150.218 88.1955 150.649 88.3996 151.218 88.3996ZM21.0329 106.081V102.001C21.0329 101.501 20.9261 101.127 20.7125 100.879C20.4989 100.627 20.167 100.501 19.7168 100.501C19.1255 100.501 18.6887 100.671 18.4064 101.011C18.1241 101.35 17.9829 101.873 17.9829 102.579V106.081H17.033V102.001C17.033 101.501 16.9262 101.127 16.7126 100.879C16.499 100.627 16.1652 100.501 15.7112 100.501C15.1161 100.501 14.6793 100.681 14.4008 101.039C14.1261 101.394 13.9888 101.978 13.9888 102.79V106.081H13.0389V99.8089H13.8114L13.9659 100.667H14.0117C14.191 100.362 14.4427 100.124 14.767 99.952C15.0951 99.7803 15.4613 99.6945 15.8657 99.6945C16.8461 99.6945 17.487 100.049 17.7884 100.759H17.8342C18.0211 100.431 18.2919 100.171 18.6467 99.9806C19.0015 99.7899 19.4059 99.6945 19.8599 99.6945C20.5694 99.6945 21.0997 99.8776 21.4507 100.244C21.8055 100.606 21.9828 101.188 21.9828 101.989V106.081H21.0329ZM27.8903 106.081L27.7015 105.188H27.6557C27.3429 105.581 27.0301 105.848 26.7173 105.989C26.4082 106.126 26.021 106.195 25.5556 106.195C24.9338 106.195 24.4455 106.035 24.0907 105.714C23.7397 105.394 23.5643 104.938 23.5643 104.347C23.5643 103.08 24.5771 102.416 26.6028 102.355L27.6672 102.321V101.932C27.6672 101.44 27.5603 101.077 27.3467 100.845C27.1369 100.608 26.7993 100.49 26.3339 100.49C25.8112 100.49 25.2199 100.65 24.5599 100.971L24.2681 100.244C24.5771 100.076 24.9147 99.9444 25.281 99.849C25.651 99.7536 26.021 99.7059 26.3911 99.7059C27.1388 99.7059 27.692 99.8719 28.0506 100.204C28.413 100.536 28.5942 101.068 28.5942 101.8V106.081H27.8903ZM25.7445 105.411C26.3358 105.411 26.7993 105.249 27.135 104.925C27.4745 104.6 27.6443 104.146 27.6443 103.563V102.996L26.6944 103.036C25.939 103.063 25.3935 103.181 25.0578 103.391C24.7259 103.597 24.5599 103.919 24.5599 104.358C24.5599 104.702 24.6629 104.963 24.8689 105.142C25.0788 105.321 25.3706 105.411 25.7445 105.411ZM31.5833 102.87C31.7473 102.638 31.9972 102.332 32.3329 101.955L34.3586 99.8089H35.4859L32.9452 102.481L35.6633 106.081H34.5131L32.2986 103.116L31.5833 103.734V106.081H30.6448V97.1767H31.5833V101.898C31.5833 102.107 31.568 102.432 31.5375 102.87H31.5833ZM39.5394 106.195C38.6123 106.195 37.8799 105.913 37.342 105.348C36.8079 104.784 36.5409 104 36.5409 102.996C36.5409 101.985 36.7888 101.182 37.2848 100.587C37.7845 99.9921 38.454 99.6945 39.2933 99.6945C40.0792 99.6945 40.701 99.9539 41.1588 100.473C41.6166 100.988 41.8454 101.669 41.8454 102.516V103.116H37.5251C37.5442 103.853 37.7292 104.412 38.0802 104.793C38.435 105.175 38.9328 105.365 39.5737 105.365C40.2489 105.365 40.9165 105.224 41.5765 104.942V105.789C41.2408 105.934 40.9223 106.037 40.6209 106.098C40.3233 106.163 39.9628 106.195 39.5394 106.195ZM39.2819 100.49C38.7783 100.49 38.3758 100.654 38.0744 100.982C37.7769 101.31 37.6014 101.764 37.548 102.344H40.8269C40.8269 101.745 40.6934 101.287 40.4263 100.971C40.1593 100.65 39.7778 100.49 39.2819 100.49ZM47.5833 99.8089V103.878C47.5833 104.389 47.6997 104.77 47.9324 105.022C48.1651 105.274 48.5294 105.4 49.0254 105.4C49.6815 105.4 50.1603 105.22 50.4617 104.862C50.7668 104.503 50.9194 103.918 50.9194 103.105V99.8089H51.8693V106.081H51.0854L50.948 105.239H50.8965C50.702 105.548 50.4311 105.785 50.084 105.949C49.7406 106.113 49.3477 106.195 48.9052 106.195C48.1422 106.195 47.57 106.014 47.1885 105.651C46.8108 105.289 46.622 104.709 46.622 103.912V99.8089H47.5833ZM56.8956 106.195C56.4874 106.195 56.1135 106.121 55.774 105.972C55.4383 105.819 55.156 105.587 54.9271 105.274H54.8584C54.9042 105.64 54.9271 105.987 54.9271 106.315V108.896H53.9772V99.8089H54.7497L54.8813 100.667H54.9271C55.1713 100.324 55.4555 100.076 55.7797 99.9234C56.104 99.7708 56.476 99.6945 56.8956 99.6945C57.7272 99.6945 58.3681 99.9787 58.8183 100.547C59.2723 101.116 59.4992 101.913 59.4992 102.939C59.4992 103.969 59.2684 104.77 58.8068 105.342C58.3491 105.911 57.712 106.195 56.8956 106.195ZM56.7583 100.501C56.1174 100.501 55.6539 100.679 55.3677 101.034C55.0816 101.388 54.9347 101.953 54.9271 102.727V102.939C54.9271 103.82 55.074 104.452 55.3677 104.833C55.6615 105.211 56.1326 105.4 56.7811 105.4C57.3229 105.4 57.7463 105.18 58.0515 104.742C58.3605 104.303 58.515 103.698 58.515 102.928C58.515 102.146 58.3605 101.547 58.0515 101.131C57.7463 100.711 57.3152 100.501 56.7583 100.501Z" fill="#fff"/>
<path d="M15.1185 137.589C14.291 137.589 13.637 137.865 13.1563 138.418C12.6791 138.967 12.4405 139.721 12.4405 140.679C12.4405 141.664 12.6705 142.427 13.1306 142.966C13.5941 143.501 14.2533 143.769 15.1082 143.769C15.6335 143.769 16.2326 143.675 16.9056 143.486V144.253C16.3837 144.449 15.7399 144.547 14.9743 144.547C13.8653 144.547 13.0087 144.21 12.4044 143.537C11.8036 142.864 11.5031 141.908 11.5031 140.669C11.5031 139.893 11.6473 139.213 11.9357 138.629C12.2276 138.046 12.6465 137.596 13.1924 137.28C13.7417 136.964 14.3872 136.806 15.1288 136.806C15.9185 136.806 16.6086 136.95 17.1991 137.239L16.8283 137.991C16.2584 137.723 15.6884 137.589 15.1185 137.589ZM21.8909 144.444L21.7209 143.64H21.6797C21.3982 143.994 21.1166 144.234 20.8351 144.361C20.557 144.485 20.2085 144.547 19.7896 144.547C19.23 144.547 18.7905 144.403 18.4712 144.114C18.1553 143.826 17.9974 143.415 17.9974 142.883C17.9974 141.743 18.909 141.146 20.7321 141.091L21.69 141.06V140.71C21.69 140.267 21.5939 139.941 21.4016 139.731C21.2128 139.519 20.9089 139.412 20.49 139.412C20.0197 139.412 19.4875 139.556 18.8935 139.845L18.6308 139.191C18.909 139.04 19.2128 138.921 19.5424 138.835C19.8755 138.749 20.2085 138.707 20.5415 138.707C21.2145 138.707 21.7123 138.856 22.0351 139.155C22.3612 139.453 22.5243 139.932 22.5243 140.591V144.444H21.8909ZM19.9596 143.841C20.4917 143.841 20.9089 143.695 21.211 143.403C21.5166 143.112 21.6694 142.703 21.6694 142.178V141.668L20.8145 141.704C20.1347 141.728 19.6437 141.834 19.3416 142.023C19.0429 142.209 18.8935 142.499 18.8935 142.894C18.8935 143.203 18.9862 143.438 19.1716 143.599C19.3604 143.761 19.6231 143.841 19.9596 143.841ZM26.8658 138.696C27.1165 138.696 27.3414 138.717 27.5405 138.758L27.422 139.551C27.1886 139.5 26.9826 139.474 26.804 139.474C26.3474 139.474 25.956 139.659 25.6298 140.03C25.3071 140.401 25.1457 140.863 25.1457 141.415V144.444H24.2908V138.799H24.9964L25.0942 139.845H25.1354C25.3448 139.477 25.5972 139.194 25.8925 138.995C26.1877 138.796 26.5122 138.696 26.8658 138.696ZM32.4382 143.687H32.3919C31.997 144.26 31.4065 144.547 30.6202 144.547C29.8821 144.547 29.307 144.294 28.895 143.79C28.4864 143.285 28.2821 142.567 28.2821 141.637C28.2821 140.707 28.4881 139.984 28.9001 139.469C29.3121 138.954 29.8855 138.696 30.6202 138.696C31.3859 138.696 31.973 138.974 32.3816 139.531H32.4485L32.4125 139.124L32.3919 138.727V136.43H33.2468V144.444H32.5515L32.4382 143.687ZM30.7284 143.831C31.3121 143.831 31.7344 143.673 31.9953 143.357C32.2597 143.038 32.3919 142.524 32.3919 141.817V141.637C32.3919 140.837 32.258 140.267 31.9902 139.927C31.7258 139.584 31.3018 139.412 30.7181 139.412C30.2168 139.412 29.8323 139.608 29.5645 139.999C29.3001 140.387 29.1679 140.937 29.1679 141.647C29.1679 142.368 29.3001 142.912 29.5645 143.28C29.8288 143.647 30.2168 143.831 30.7284 143.831ZM38.8089 144.444H37.9334V136.914H42.1307V137.692H38.8089V140.447H41.9298V141.225H38.8089V144.444ZM48.1254 141.616C48.1254 142.537 47.8936 143.256 47.4301 143.774C46.9666 144.289 46.3263 144.547 45.5091 144.547C45.0044 144.547 44.5564 144.428 44.165 144.191C43.7736 143.954 43.4714 143.615 43.2585 143.172C43.0457 142.729 42.9392 142.21 42.9392 141.616C42.9392 140.696 43.1693 139.98 43.6293 139.469C44.0894 138.954 44.728 138.696 45.5452 138.696C46.3349 138.696 46.9615 138.959 47.425 139.484C47.8919 140.01 48.1254 140.72 48.1254 141.616ZM43.8251 141.616C43.8251 142.337 43.9693 142.887 44.2577 143.264C44.5461 143.642 44.9701 143.831 45.5297 143.831C46.0894 143.831 46.5134 143.644 46.8018 143.27C47.0936 142.892 47.2396 142.341 47.2396 141.616C47.2396 140.899 47.0936 140.355 46.8018 139.984C46.5134 139.61 46.0859 139.422 45.5194 139.422C44.9598 139.422 44.5375 139.606 44.2525 139.973C43.9675 140.341 43.8251 140.888 43.8251 141.616ZM54.5012 141.616C54.5012 142.537 54.2694 143.256 53.8059 143.774C53.3424 144.289 52.7021 144.547 51.8849 144.547C51.3802 144.547 50.9322 144.428 50.5408 144.191C50.1494 143.954 49.8472 143.615 49.6343 143.172C49.4215 142.729 49.315 142.21 49.315 141.616C49.315 140.696 49.5451 139.98 50.0052 139.469C50.4652 138.954 51.1038 138.696 51.921 138.696C52.7107 138.696 53.3373 138.959 53.8008 139.484C54.2677 140.01 54.5012 140.72 54.5012 141.616ZM50.2009 141.616C50.2009 142.337 50.3451 142.887 50.6335 143.264C50.9219 143.642 51.3459 143.831 51.9055 143.831C52.4652 143.831 52.8892 143.644 53.1776 143.27C53.4694 142.892 53.6154 142.341 53.6154 141.616C53.6154 140.899 53.4694 140.355 53.1776 139.984C52.8892 139.61 52.4617 139.422 51.8952 139.422C51.3356 139.422 50.9133 139.606 50.6283 139.973C50.3433 140.341 50.2009 140.888 50.2009 141.616ZM57.8281 143.841C57.9792 143.841 58.1251 143.831 58.2659 143.81C58.4067 143.786 58.5182 143.762 58.6006 143.738V144.392C58.5079 144.437 58.3706 144.473 58.1886 144.5C58.0101 144.531 57.8487 144.547 57.7045 144.547C56.6127 144.547 56.0668 143.972 56.0668 142.821V139.464H55.2582V139.052L56.0668 138.696L56.4273 137.491H56.9217V138.799H58.5594V139.464H56.9217V142.785C56.9217 143.125 57.0024 143.386 57.1638 143.568C57.3251 143.75 57.5466 143.841 57.8281 143.841ZM62.1181 144.547C61.2838 144.547 60.6246 144.293 60.1405 143.785C59.6598 143.276 59.4195 142.571 59.4195 141.668C59.4195 140.758 59.6427 140.035 60.089 139.5C60.5388 138.964 61.1413 138.696 61.8967 138.696C62.604 138.696 63.1636 138.93 63.5756 139.397C63.9876 139.86 64.1936 140.473 64.1936 141.235V141.776H60.3053C60.3225 142.439 60.489 142.942 60.8049 143.285C61.1242 143.628 61.5722 143.8 62.149 143.8C62.7568 143.8 63.3576 143.673 63.9516 143.419V144.181C63.6494 144.312 63.3627 144.404 63.0915 144.459C62.8237 144.518 62.4993 144.547 62.1181 144.547ZM61.8864 139.412C61.4332 139.412 61.071 139.56 60.7997 139.855C60.5319 140.15 60.374 140.559 60.3259 141.081H63.2769C63.2769 140.542 63.1567 140.13 62.9164 139.845C62.6761 139.556 62.3327 139.412 61.8864 139.412ZM68.2313 138.696C68.4819 138.696 68.7068 138.717 68.906 138.758L68.7875 139.551C68.554 139.5 68.348 139.474 68.1695 139.474C67.7129 139.474 67.3214 139.659 66.9953 140.03C66.6725 140.401 66.5112 140.863 66.5112 141.415V144.444H65.6563V138.799H66.3618L66.4597 139.845H66.5009C66.7103 139.477 66.9627 139.194 67.2579 138.995C67.5532 138.796 67.8777 138.696 68.2313 138.696Z" fill="#fff"/>
<path d="M154.929 144.616H158.601V148.288H154.929V144.616Z" fill="#fff"/>
<path d="M154.929 133.6H158.601V137.272H154.929V133.6Z" fill="#fff"/>
<path d="M154.929 139.108H158.601V142.78H154.929V139.108Z" fill="#fff"/>
<rect x="1.65625" y="1.07007" width="173.688" height="164.312" rx="3" stroke="#217CBB" stroke-width="2"/>
</svg>
