<svg width="982" height="492" viewBox="0 0 982 492" fill="none" xmlns="http://www.w3.org/2000/svg"><rect width="981" height="142.333" transform="translate(0.5 0.666626)" fill="#585C65"/><rect width="244" height="40" transform="translate(1.5 1.66663)" fill="#464B52"/><path d="M18.876 26.6666L18.1514 24.2877H14.5078L13.7832 26.6666H11.5L15.0273 16.6315H17.6182L21.1592 26.6666H18.876ZM17.6455 22.5104C16.9756 20.3548 16.5973 19.1357 16.5107 18.8531C16.4287 18.5706 16.3695 18.3473 16.333 18.1832C16.1826 18.7666 15.752 20.2089 15.041 22.5104H17.6455ZM25.2793 26.8033C22.9004 26.8033 21.7109 25.4977 21.7109 22.8864C21.7109 21.5875 22.0345 20.5963 22.6816 19.9127C23.3288 19.2246 24.2562 18.8805 25.4639 18.8805C26.348 18.8805 27.1409 19.0537 27.8428 19.4L27.2275 21.0133C26.8994 20.8811 26.5941 20.774 26.3115 20.692C26.029 20.6054 25.7464 20.5621 25.4639 20.5621C24.3792 20.5621 23.8369 21.3323 23.8369 22.8727C23.8369 24.3675 24.3792 25.1149 25.4639 25.1149C25.8649 25.1149 26.2363 25.0625 26.5781 24.9576C26.9199 24.8483 27.2617 24.6796 27.6035 24.4518V26.236C27.2663 26.4502 26.9245 26.5983 26.5781 26.6803C26.2363 26.7623 25.8034 26.8033 25.2793 26.8033ZM32.5166 25.1422C32.8812 25.1422 33.3187 25.0625 33.8291 24.903V26.4547C33.3095 26.6871 32.6715 26.8033 31.915 26.8033C31.081 26.8033 30.4726 26.5937 30.0898 26.1744C29.7116 25.7506 29.5224 25.1171 29.5224 24.274V20.5895H28.5244V19.7076L29.6728 19.0104L30.2744 17.3971H31.6074V19.024H33.747V20.5895H31.6074V24.274C31.6074 24.5703 31.6894 24.789 31.8535 24.9303C32.0221 25.0716 32.2431 25.1422 32.5166 25.1422ZM35.208 17.0485C35.208 16.3694 35.5862 16.0299 36.3427 16.0299C37.0992 16.0299 37.4775 16.3694 37.4775 17.0485C37.4775 17.372 37.3818 17.625 37.1904 17.8073C37.0035 17.985 36.721 18.0739 36.3427 18.0739C35.5862 18.0739 35.208 17.7321 35.208 17.0485ZM37.3818 26.6666H35.2968V19.024H37.3818V26.6666ZM41.3105 26.6666L38.3984 19.024H40.579L42.0556 23.3785C42.2197 23.93 42.3222 24.4518 42.3632 24.944H42.4042C42.427 24.5065 42.5296 23.9847 42.7119 23.3785L44.1816 19.024H46.3622L43.4501 26.6666H41.3105ZM50.5439 20.3639C50.1018 20.3639 49.7555 20.5052 49.5048 20.7877C49.2542 21.0657 49.1106 21.4622 49.0741 21.9772H51.9999C51.9908 21.4622 51.8564 21.0657 51.5966 20.7877C51.3368 20.5052 50.9859 20.3639 50.5439 20.3639ZM50.8378 26.8033C49.6073 26.8033 48.6458 26.4638 47.953 25.7848C47.2603 25.1058 46.914 24.1442 46.914 22.9C46.914 21.6194 47.233 20.6305 47.871 19.9332C48.5136 19.2314 49.4 18.8805 50.5302 18.8805C51.6103 18.8805 52.4511 19.1881 53.0527 19.8033C53.6542 20.4186 53.955 21.2685 53.955 22.3531V23.3649H49.0263C49.0491 23.9573 49.2245 24.4199 49.5527 24.7526C49.8808 25.0852 50.3411 25.2516 50.9335 25.2516C51.3938 25.2516 51.829 25.2037 52.2392 25.108C52.6493 25.0123 53.0777 24.8597 53.5243 24.65V26.2633C53.1598 26.4456 52.7701 26.58 52.3554 26.6666C51.9407 26.7578 51.4348 26.8033 50.8378 26.8033Z" fill="#fff"/><rect width="244" height="99.333" transform="translate(1.5 42.6666)" fill="#171C1E"/><g clip-path="url(#clip0_6847_90080)"><path fill-rule="evenodd" clip-rule="evenodd" d="M114.167 80.3333H132.833C134.313 80.3333 135.5 81.5333 135.5 82.9999V101.667C135.5 103.133 134.313 104.333 132.833 104.333H114.167C112.687 104.333 111.5 103.133 111.5 101.667V82.9999C111.5 81.5333 112.687 80.3333 114.167 80.3333ZM114.167 92.3333L120.833 98.9999L132.833 86.9999L130.953 85.1066L120.833 95.2266L116.047 90.4533L114.167 92.3333Z" fill="#019AEB"/><path fill-rule="evenodd" clip-rule="evenodd" d="M114.167 92.3333L120.833 98.9999L132.833 86.9999L130.953 85.1066L120.833 95.2266L116.047 90.4533L114.167 92.3333Z" fill="#fff"/></g><rect width="244" height="40" transform="translate(246.5 1.66663)" fill="#464B52"/><path d="M263.876 26.6666L263.151 24.2877H259.508L258.783 26.6666H256.5L260.027 16.6315H262.618L266.159 26.6666H263.876ZM262.646 22.5104C261.976 20.3548 261.597 19.1357 261.511 18.8531C261.429 18.5706 261.369 18.3473 261.333 18.1832C261.183 18.7666 260.752 20.2089 260.041 22.5104H262.646ZM270.279 26.8033C267.9 26.8033 266.711 25.4977 266.711 22.8864C266.711 21.5875 267.034 20.5963 267.682 19.9127C268.329 19.2246 269.256 18.8805 270.464 18.8805C271.348 18.8805 272.141 19.0537 272.843 19.4L272.228 21.0133C271.899 20.8811 271.594 20.774 271.312 20.692C271.029 20.6054 270.746 20.5621 270.464 20.5621C269.379 20.5621 268.837 21.3323 268.837 22.8727C268.837 24.3675 269.379 25.1149 270.464 25.1149C270.865 25.1149 271.236 25.0625 271.578 24.9576C271.92 24.8483 272.262 24.6796 272.604 24.4518V26.236C272.266 26.4502 271.924 26.5983 271.578 26.6803C271.236 26.7623 270.803 26.8033 270.279 26.8033ZM277.517 25.1422C277.881 25.1422 278.319 25.0625 278.829 24.903V26.4547C278.31 26.6871 277.672 26.8033 276.915 26.8033C276.081 26.8033 275.473 26.5937 275.09 26.1744C274.712 25.7506 274.522 25.1171 274.522 24.274V20.5895H273.524V19.7076L274.673 19.0104L275.274 17.3971H276.607V19.024H278.747V20.5895H276.607V24.274C276.607 24.5703 276.689 24.789 276.853 24.9303C277.022 25.0716 277.243 25.1422 277.517 25.1422ZM280.208 17.0485C280.208 16.3694 280.586 16.0299 281.343 16.0299C282.099 16.0299 282.477 16.3694 282.477 17.0485C282.477 17.372 282.382 17.625 282.19 17.8073C282.004 17.985 281.721 18.0739 281.343 18.0739C280.586 18.0739 280.208 17.7321 280.208 17.0485ZM282.382 26.6666H280.297V19.024H282.382V26.6666ZM286.31 26.6666L283.398 19.024H285.579L287.056 23.3785C287.22 23.93 287.322 24.4518 287.363 24.944H287.404C287.427 24.5065 287.53 23.9847 287.712 23.3785L289.182 19.024H291.362L288.45 26.6666H286.31ZM295.544 20.3639C295.102 20.3639 294.755 20.5052 294.505 20.7877C294.254 21.0657 294.111 21.4622 294.074 21.9772H297C296.991 21.4622 296.856 21.0657 296.597 20.7877C296.337 20.5052 295.986 20.3639 295.544 20.3639ZM295.838 26.8033C294.607 26.8033 293.646 26.4638 292.953 25.7848C292.26 25.1058 291.914 24.1442 291.914 22.9C291.914 21.6194 292.233 20.6305 292.871 19.9332C293.514 19.2314 294.4 18.8805 295.53 18.8805C296.61 18.8805 297.451 19.1881 298.053 19.8033C298.654 20.4186 298.955 21.2685 298.955 22.3531V23.3649H294.026C294.049 23.9573 294.225 24.4199 294.553 24.7526C294.881 25.0852 295.341 25.2516 295.934 25.2516C296.394 25.2516 296.829 25.2037 297.239 25.108C297.649 25.0123 298.078 24.8597 298.524 24.65V26.2633C298.16 26.4456 297.77 26.58 297.355 26.6666C296.941 26.7578 296.435 26.8033 295.838 26.8033ZM306.368 26.6666H304.283V16.6725H310.012V18.4088H306.368V20.986H309.759V22.7155H306.368V26.6666ZM313.38 22.8317C313.38 23.5882 313.503 24.1601 313.749 24.5475C314 24.9349 314.405 25.1285 314.966 25.1285C315.522 25.1285 315.92 24.9371 316.162 24.5543C316.408 24.167 316.531 23.5927 316.531 22.8317C316.531 22.0752 316.408 21.5078 316.162 21.1295C315.916 20.7513 315.513 20.5621 314.952 20.5621C314.396 20.5621 313.995 20.7513 313.749 21.1295C313.503 21.5032 313.38 22.0706 313.38 22.8317ZM318.664 22.8317C318.664 24.0758 318.336 25.0488 317.68 25.7506C317.023 26.4524 316.11 26.8033 314.938 26.8033C314.205 26.8033 313.557 26.6438 312.997 26.3248C312.436 26.0013 312.006 25.5387 311.705 24.9371C311.404 24.3356 311.254 23.6337 311.254 22.8317C311.254 21.583 311.58 20.6123 312.231 19.9196C312.883 19.2268 313.799 18.8805 314.979 18.8805C315.713 18.8805 316.36 19.04 316.921 19.359C317.481 19.678 317.912 20.136 318.213 20.733C318.514 21.33 318.664 22.0296 318.664 22.8317ZM323.406 26.8033C321.027 26.8033 319.838 25.4977 319.838 22.8864C319.838 21.5875 320.161 20.5963 320.808 19.9127C321.456 19.2246 322.383 18.8805 323.591 18.8805C324.475 18.8805 325.268 19.0537 325.97 19.4L325.354 21.0133C325.026 20.8811 324.721 20.774 324.438 20.692C324.156 20.6054 323.873 20.5621 323.591 20.5621C322.506 20.5621 321.964 21.3323 321.964 22.8727C321.964 24.3675 322.506 25.1149 323.591 25.1149C323.992 25.1149 324.363 25.0625 324.705 24.9576C325.047 24.8483 325.389 24.6796 325.73 24.4518V26.236C325.393 26.4502 325.051 26.5983 324.705 26.6803C324.363 26.7623 323.93 26.8033 323.406 26.8033ZM332.838 26.6666L332.557 25.6891H332.448C332.225 26.0446 331.908 26.3203 331.498 26.5162C331.088 26.7076 330.621 26.8033 330.097 26.8033C329.199 26.8033 328.522 26.5641 328.066 26.0856C327.611 25.6025 327.383 24.9098 327.383 24.0074V19.024H329.468V23.4879C329.468 24.0393 329.566 24.4541 329.762 24.7321C329.958 25.0055 330.27 25.1422 330.698 25.1422C331.281 25.1422 331.703 24.9485 331.963 24.5612C332.223 24.1692 332.352 23.5221 332.352 22.6198V19.024H334.437V26.6666H332.838ZM341.873 24.3971C341.873 25.1809 341.599 25.778 341.053 26.1881C340.51 26.5983 339.697 26.8033 338.612 26.8033C338.056 26.8033 337.582 26.7646 337.19 26.6871C336.798 26.6142 336.431 26.5048 336.09 26.359V24.6364C336.477 24.8186 336.912 24.9713 337.395 25.0944C337.883 25.2174 338.311 25.2789 338.68 25.2789C339.437 25.2789 339.815 25.0602 339.815 24.6227C339.815 24.4586 339.765 24.3265 339.665 24.2262C339.565 24.1214 339.391 24.0052 339.145 23.8776C338.899 23.7454 338.571 23.5927 338.161 23.4196C337.573 23.1735 337.14 22.9456 336.862 22.736C336.589 22.5263 336.388 22.2871 336.261 22.0182C336.138 21.7448 336.076 21.4098 336.076 21.0133C336.076 20.3343 336.338 19.8102 336.862 19.441C337.391 19.0673 338.138 18.8805 339.104 18.8805C340.025 18.8805 340.92 19.081 341.791 19.4821L341.162 20.986C340.779 20.8219 340.421 20.6875 340.089 20.5826C339.756 20.4778 339.416 20.4254 339.07 20.4254C338.455 20.4254 338.147 20.5918 338.147 20.9244C338.147 21.1113 338.245 21.2731 338.441 21.4098C338.642 21.5465 339.077 21.7493 339.747 22.0182C340.344 22.2597 340.781 22.4853 341.059 22.6949C341.337 22.9046 341.542 23.1461 341.675 23.4196C341.807 23.693 341.873 24.0188 341.873 24.3971Z" fill="#fff"/><rect width="244" height="99.333" transform="translate(246.5 42.6666)" fill="#171C1E"/><path d="M379.5 75.3333H357.5C354.186 75.3333 351.5 78.0195 351.5 81.3333V103.333C351.5 106.647 354.186 109.333 357.5 109.333H379.5C382.814 109.333 385.5 106.647 385.5 103.333V81.3333C385.5 78.0195 382.814 75.3333 379.5 75.3333Z" stroke="#0084FF" stroke-width="4"/><path fill-rule="evenodd" clip-rule="evenodd" d="M359.167 80.3333H377.833C379.313 80.3333 380.5 81.5333 380.5 82.9999V101.667C380.5 103.133 379.313 104.333 377.833 104.333H359.167C357.687 104.333 356.5 103.133 356.5 101.667V82.9999C356.5 81.5333 357.687 80.3333 359.167 80.3333ZM359.167 92.3333L365.833 98.9999L377.833 86.9999L375.953 85.1066L365.833 95.2266L361.047 90.4533L359.167 92.3333Z" fill="#019AEB"/><path fill-rule="evenodd" clip-rule="evenodd" d="M359.167 92.3333L365.833 98.9999L377.833 86.9999L375.953 85.1066L365.833 95.2266L361.047 90.4533L359.167 92.3333Z" fill="#fff"/><rect width="244" height="40" transform="translate(491.5 1.66663)" fill="#464B52"/><path d="M508.876 26.6666L508.151 24.2877H504.508L503.783 26.6666H501.5L505.027 16.6315H507.618L511.159 26.6666H508.876ZM507.646 22.5104C506.976 20.3548 506.597 19.1357 506.511 18.8531C506.429 18.5706 506.369 18.3473 506.333 18.1832C506.183 18.7666 505.752 20.2089 505.041 22.5104H507.646ZM515.279 26.8033C512.9 26.8033 511.711 25.4977 511.711 22.8864C511.711 21.5875 512.034 20.5963 512.682 19.9127C513.329 19.2246 514.256 18.8805 515.464 18.8805C516.348 18.8805 517.141 19.0537 517.843 19.4L517.228 21.0133C516.899 20.8811 516.594 20.774 516.312 20.692C516.029 20.6054 515.746 20.5621 515.464 20.5621C514.379 20.5621 513.837 21.3323 513.837 22.8727C513.837 24.3675 514.379 25.1149 515.464 25.1149C515.865 25.1149 516.236 25.0625 516.578 24.9576C516.92 24.8483 517.262 24.6796 517.604 24.4518V26.236C517.266 26.4502 516.924 26.5983 516.578 26.6803C516.236 26.7623 515.803 26.8033 515.279 26.8033ZM522.517 25.1422C522.881 25.1422 523.319 25.0625 523.829 24.903V26.4547C523.31 26.6871 522.672 26.8033 521.915 26.8033C521.081 26.8033 520.473 26.5937 520.09 26.1744C519.712 25.7506 519.522 25.1171 519.522 24.274V20.5895H518.524V19.7076L519.673 19.0104L520.274 17.3971H521.607V19.024H523.747V20.5895H521.607V24.274C521.607 24.5703 521.689 24.789 521.853 24.9303C522.022 25.0716 522.243 25.1422 522.517 25.1422ZM525.208 17.0485C525.208 16.3694 525.586 16.0299 526.343 16.0299C527.099 16.0299 527.477 16.3694 527.477 17.0485C527.477 17.372 527.382 17.625 527.19 17.8073C527.004 17.985 526.721 18.0739 526.343 18.0739C525.586 18.0739 525.208 17.7321 525.208 17.0485ZM527.382 26.6666H525.297V19.024H527.382V26.6666ZM531.31 26.6666L528.398 19.024H530.579L532.056 23.3785C532.22 23.93 532.322 24.4518 532.363 24.944H532.404C532.427 24.5065 532.53 23.9847 532.712 23.3785L534.182 19.024H536.362L533.45 26.6666H531.31ZM540.544 20.3639C540.102 20.3639 539.755 20.5052 539.505 20.7877C539.254 21.0657 539.111 21.4622 539.074 21.9772H542C541.991 21.4622 541.856 21.0657 541.597 20.7877C541.337 20.5052 540.986 20.3639 540.544 20.3639ZM540.838 26.8033C539.607 26.8033 538.646 26.4638 537.953 25.7848C537.26 25.1058 536.914 24.1442 536.914 22.9C536.914 21.6194 537.233 20.6305 537.871 19.9332C538.514 19.2314 539.4 18.8805 540.53 18.8805C541.61 18.8805 542.451 19.1881 543.053 19.8033C543.654 20.4186 543.955 21.2685 543.955 22.3531V23.3649H539.026C539.049 23.9573 539.225 24.4199 539.553 24.7526C539.881 25.0852 540.341 25.2516 540.934 25.2516C541.394 25.2516 541.829 25.2037 542.239 25.108C542.649 25.0123 543.078 24.8597 543.524 24.65V26.2633C543.16 26.4456 542.77 26.58 542.355 26.6666C541.941 26.7578 541.435 26.8033 540.838 26.8033ZM551.539 26.8033C550.641 26.8033 549.935 26.4547 549.42 25.7574C548.909 25.0602 548.654 24.094 548.654 22.859C548.654 21.6058 548.914 20.6305 549.433 19.9332C549.958 19.2314 550.678 18.8805 551.594 18.8805C552.555 18.8805 553.289 19.2542 553.795 20.0016H553.863C553.758 19.4319 553.706 18.9238 553.706 18.4772V16.0299H555.798V26.6666H554.198L553.795 25.6754H553.706C553.232 26.4274 552.51 26.8033 551.539 26.8033ZM552.27 25.1422C552.804 25.1422 553.193 24.9873 553.439 24.6774C553.69 24.3675 553.827 23.8411 553.849 23.0983V22.8727C553.849 22.0524 553.722 21.4645 553.467 21.109C553.216 20.7535 552.806 20.5758 552.236 20.5758C551.771 20.5758 551.409 20.774 551.149 21.1705C550.894 21.5625 550.766 22.1344 550.766 22.8864C550.766 23.6383 550.896 24.2034 551.156 24.5817C551.416 24.9554 551.787 25.1422 552.27 25.1422ZM557.806 17.0485C557.806 16.3694 558.184 16.0299 558.94 16.0299C559.697 16.0299 560.075 16.3694 560.075 17.0485C560.075 17.372 559.979 17.625 559.788 17.8073C559.601 17.985 559.319 18.0739 558.94 18.0739C558.184 18.0739 557.806 17.7321 557.806 17.0485ZM559.979 26.6666H557.894V19.024H559.979V26.6666ZM567.422 24.3971C567.422 25.1809 567.148 25.778 566.601 26.1881C566.059 26.5983 565.246 26.8033 564.161 26.8033C563.605 26.8033 563.131 26.7646 562.739 26.6871C562.347 26.6142 561.98 26.5048 561.639 26.359V24.6364C562.026 24.8186 562.461 24.9713 562.944 25.0944C563.432 25.2174 563.86 25.2789 564.229 25.2789C564.986 25.2789 565.364 25.0602 565.364 24.6227C565.364 24.4586 565.314 24.3265 565.214 24.2262C565.113 24.1214 564.94 24.0052 564.694 23.8776C564.448 23.7454 564.12 23.5927 563.71 23.4196C563.122 23.1735 562.689 22.9456 562.411 22.736C562.138 22.5263 561.937 22.2871 561.809 22.0182C561.686 21.7448 561.625 21.4098 561.625 21.0133C561.625 20.3343 561.887 19.8102 562.411 19.441C562.94 19.0673 563.687 18.8805 564.653 18.8805C565.574 18.8805 566.469 19.081 567.34 19.4821L566.711 20.986C566.328 20.8219 565.97 20.6875 565.638 20.5826C565.305 20.4778 564.965 20.4254 564.619 20.4254C564.004 20.4254 563.696 20.5918 563.696 20.9244C563.696 21.1113 563.794 21.2731 563.99 21.4098C564.191 21.5465 564.626 21.7493 565.296 22.0182C565.893 22.2597 566.33 22.4853 566.608 22.6949C566.886 22.9046 567.091 23.1461 567.223 23.4196C567.356 23.693 567.422 24.0188 567.422 24.3971ZM573.818 26.6666L573.415 25.6276H573.36C573.009 26.0696 572.647 26.3772 572.273 26.5504C571.904 26.719 571.421 26.8033 570.824 26.8033C570.09 26.8033 569.512 26.5937 569.088 26.1744C568.668 25.7552 568.459 25.1582 568.459 24.3834C568.459 23.5722 568.741 22.9752 569.306 22.5924C569.876 22.205 570.733 21.9908 571.877 21.9498L573.203 21.9088V21.5739C573.203 20.7991 572.806 20.4117 572.014 20.4117C571.403 20.4117 570.685 20.5963 569.86 20.9655L569.17 19.5573C570.049 19.097 571.025 18.8668 572.096 18.8668C573.121 18.8668 573.907 19.0901 574.454 19.5367C575.001 19.9834 575.274 20.6624 575.274 21.5739V26.6666H573.818ZM573.203 23.1256L572.396 23.153C571.79 23.1712 571.339 23.2806 571.043 23.4811C570.747 23.6816 570.598 23.9869 570.598 24.3971C570.598 24.985 570.936 25.2789 571.61 25.2789C572.093 25.2789 572.478 25.1399 572.765 24.8619C573.057 24.5839 573.203 24.2148 573.203 23.7545V23.1256ZM581.596 18.8805C582.498 18.8805 583.204 19.2337 583.715 19.9401C584.225 20.6419 584.48 21.6058 584.48 22.8317C584.48 24.094 584.216 25.0716 583.687 25.7643C583.163 26.457 582.448 26.8033 581.541 26.8033C580.643 26.8033 579.939 26.4775 579.429 25.8258H579.285L578.936 26.6666H577.344V16.0299H579.429V18.5045C579.429 18.819 579.401 19.3226 579.347 20.0153H579.429C579.916 19.2587 580.638 18.8805 581.596 18.8805ZM580.926 20.5485C580.411 20.5485 580.035 20.708 579.798 21.027C579.561 21.3414 579.438 21.8632 579.429 22.5924V22.818C579.429 23.6383 579.549 24.2262 579.791 24.5817C580.037 24.9371 580.424 25.1149 580.953 25.1149C581.381 25.1149 581.721 24.9189 581.972 24.527C582.227 24.1305 582.354 23.5563 582.354 22.8043C582.354 22.0524 582.227 21.4895 581.972 21.1158C581.716 20.7376 581.368 20.5485 580.926 20.5485ZM588.204 26.6666H586.119V16.0299H588.204V26.6666ZM593.479 20.3639C593.037 20.3639 592.691 20.5052 592.44 20.7877C592.19 21.0657 592.046 21.4622 592.01 21.9772H594.935C594.926 21.4622 594.792 21.0657 594.532 20.7877C594.272 20.5052 593.921 20.3639 593.479 20.3639ZM593.773 26.8033C592.543 26.8033 591.581 26.4638 590.888 25.7848C590.196 25.1058 589.849 24.1442 589.849 22.9C589.849 21.6194 590.168 20.6305 590.806 19.9332C591.449 19.2314 592.335 18.8805 593.466 18.8805C594.546 18.8805 595.387 19.1881 595.988 19.8033C596.59 20.4186 596.89 21.2685 596.89 22.3531V23.3649H591.962C591.984 23.9573 592.16 24.4199 592.488 24.7526C592.816 25.0852 593.276 25.2516 593.869 25.2516C594.329 25.2516 594.764 25.2037 595.175 25.108C595.585 25.0123 596.013 24.8597 596.46 24.65V26.2633C596.095 26.4456 595.706 26.58 595.291 26.6666C594.876 26.7578 594.37 26.8033 593.773 26.8033ZM600.922 26.8033C600.024 26.8033 599.317 26.4547 598.803 25.7574C598.292 25.0602 598.037 24.094 598.037 22.859C598.037 21.6058 598.297 20.6305 598.816 19.9332C599.34 19.2314 600.06 18.8805 600.976 18.8805C601.938 18.8805 602.672 19.2542 603.178 20.0016H603.246C603.141 19.4319 603.089 18.9238 603.089 18.4772V16.0299H605.18V26.6666H603.581L603.178 25.6754H603.089C602.615 26.4274 601.892 26.8033 600.922 26.8033ZM601.653 25.1422C602.186 25.1422 602.576 24.9873 602.822 24.6774C603.073 24.3675 603.209 23.8411 603.232 23.0983V22.8727C603.232 22.0524 603.105 21.4645 602.849 21.109C602.599 20.7535 602.189 20.5758 601.619 20.5758C601.154 20.5758 600.792 20.774 600.532 21.1705C600.277 21.5625 600.149 22.1344 600.149 22.8864C600.149 23.6383 600.279 24.2034 600.539 24.5817C600.799 24.9554 601.17 25.1422 601.653 25.1422Z" fill="#fff"/><rect width="244" height="99.333" transform="translate(491.5 42.6666)" fill="#171C1E"/><g opacity=".4"><path d="M624.5 75.3333H602.5C599.186 75.3333 596.5 78.0195 596.5 81.3333V103.333C596.5 106.647 599.186 109.333 602.5 109.333H624.5C627.814 109.333 630.5 106.647 630.5 103.333V81.3333C630.5 78.0195 627.814 75.3333 624.5 75.3333Z" stroke="#0084FF" stroke-width="4"/><path fill-rule="evenodd" clip-rule="evenodd" d="M604.167 80.3333H622.833C624.313 80.3333 625.5 81.5333 625.5 82.9999V101.667C625.5 103.133 624.313 104.333 622.833 104.333H604.167C602.687 104.333 601.5 103.133 601.5 101.667V82.9999C601.5 81.5333 602.687 80.3333 604.167 80.3333ZM604.167 92.3333L610.833 98.9999L622.833 86.9999L620.953 85.1066L610.833 95.2266L606.047 90.4533L604.167 92.3333Z" fill="#019AEB"/><path fill-rule="evenodd" clip-rule="evenodd" d="M604.167 92.3333L610.833 98.9999L622.833 86.9999L620.953 85.1066L610.833 95.2266L606.047 90.4533L604.167 92.3333Z" fill="#fff"/></g><rect width="244" height="40" transform="translate(736.5 1.66663)" fill="#464B52"/><path d="M753.876 26.6666L753.151 24.2877H749.508L748.783 26.6666H746.5L750.027 16.6315H752.618L756.159 26.6666H753.876ZM752.646 22.5104C751.976 20.3548 751.597 19.1357 751.511 18.8531C751.429 18.5706 751.369 18.3473 751.333 18.1832C751.183 18.7666 750.752 20.2089 750.041 22.5104H752.646ZM760.279 26.8033C757.9 26.8033 756.711 25.4977 756.711 22.8864C756.711 21.5875 757.034 20.5963 757.682 19.9127C758.329 19.2246 759.256 18.8805 760.464 18.8805C761.348 18.8805 762.141 19.0537 762.843 19.4L762.228 21.0133C761.899 20.8811 761.594 20.774 761.312 20.692C761.029 20.6054 760.746 20.5621 760.464 20.5621C759.379 20.5621 758.837 21.3323 758.837 22.8727C758.837 24.3675 759.379 25.1149 760.464 25.1149C760.865 25.1149 761.236 25.0625 761.578 24.9576C761.92 24.8483 762.262 24.6796 762.604 24.4518V26.236C762.266 26.4502 761.924 26.5983 761.578 26.6803C761.236 26.7623 760.803 26.8033 760.279 26.8033ZM767.517 25.1422C767.881 25.1422 768.319 25.0625 768.829 24.903V26.4547C768.31 26.6871 767.672 26.8033 766.915 26.8033C766.081 26.8033 765.473 26.5937 765.09 26.1744C764.712 25.7506 764.522 25.1171 764.522 24.274V20.5895H763.524V19.7076L764.673 19.0104L765.274 17.3971H766.607V19.024H768.747V20.5895H766.607V24.274C766.607 24.5703 766.689 24.789 766.853 24.9303C767.022 25.0716 767.243 25.1422 767.517 25.1422ZM770.208 17.0485C770.208 16.3694 770.586 16.0299 771.343 16.0299C772.099 16.0299 772.477 16.3694 772.477 17.0485C772.477 17.372 772.382 17.625 772.19 17.8073C772.004 17.985 771.721 18.0739 771.343 18.0739C770.586 18.0739 770.208 17.7321 770.208 17.0485ZM772.382 26.6666H770.297V19.024H772.382V26.6666ZM776.31 26.6666L773.398 19.024H775.579L777.056 23.3785C777.22 23.93 777.322 24.4518 777.363 24.944H777.404C777.427 24.5065 777.53 23.9847 777.712 23.3785L779.182 19.024H781.362L778.45 26.6666H776.31ZM785.544 20.3639C785.102 20.3639 784.755 20.5052 784.505 20.7877C784.254 21.0657 784.111 21.4622 784.074 21.9772H787C786.991 21.4622 786.856 21.0657 786.597 20.7877C786.337 20.5052 785.986 20.3639 785.544 20.3639ZM785.838 26.8033C784.607 26.8033 783.646 26.4638 782.953 25.7848C782.26 25.1058 781.914 24.1442 781.914 22.9C781.914 21.6194 782.233 20.6305 782.871 19.9332C783.514 19.2314 784.4 18.8805 785.53 18.8805C786.61 18.8805 787.451 19.1881 788.053 19.8033C788.654 20.4186 788.955 21.2685 788.955 22.3531V23.3649H784.026C784.049 23.9573 784.225 24.4199 784.553 24.7526C784.881 25.0852 785.341 25.2516 785.934 25.2516C786.394 25.2516 786.829 25.2037 787.239 25.108C787.649 25.0123 788.078 24.8597 788.524 24.65V26.2633C788.16 26.4456 787.77 26.58 787.355 26.6666C786.941 26.7578 786.435 26.8033 785.838 26.8033ZM800.039 26.6666H794.283V16.6725H800.039V18.4088H796.402V20.6031H799.786V22.3395H796.402V24.9166H800.039V26.6666ZM806.148 18.8805C806.431 18.8805 806.666 18.901 806.852 18.942L806.695 20.8971C806.527 20.8515 806.321 20.8287 806.08 20.8287C805.415 20.8287 804.895 20.9996 804.521 21.3414C804.152 21.6832 803.968 22.1617 803.968 22.777V26.6666H801.883V19.024H803.462L803.769 20.3092H803.872C804.109 19.8808 804.428 19.5367 804.829 19.277C805.235 19.0127 805.674 18.8805 806.148 18.8805ZM812.422 18.8805C812.704 18.8805 812.939 18.901 813.126 18.942L812.969 20.8971C812.8 20.8515 812.595 20.8287 812.353 20.8287C811.688 20.8287 811.168 20.9996 810.795 21.3414C810.426 21.6832 810.241 22.1617 810.241 22.777V26.6666H808.156V19.024H809.735L810.043 20.3092H810.145C810.382 19.8808 810.701 19.5367 811.102 19.277C811.508 19.0127 811.948 18.8805 812.422 18.8805ZM816.091 22.8317C816.091 23.5882 816.214 24.1601 816.46 24.5475C816.71 24.9349 817.116 25.1285 817.677 25.1285C818.233 25.1285 818.631 24.9371 818.873 24.5543C819.119 24.167 819.242 23.5927 819.242 22.8317C819.242 22.0752 819.119 21.5078 818.873 21.1295C818.627 20.7513 818.223 20.5621 817.663 20.5621C817.107 20.5621 816.706 20.7513 816.46 21.1295C816.214 21.5032 816.091 22.0706 816.091 22.8317ZM821.375 22.8317C821.375 24.0758 821.047 25.0488 820.39 25.7506C819.734 26.4524 818.82 26.8033 817.649 26.8033C816.916 26.8033 816.268 26.6438 815.708 26.3248C815.147 26.0013 814.717 25.5387 814.416 24.9371C814.115 24.3356 813.965 23.6337 813.965 22.8317C813.965 21.583 814.291 20.6123 814.942 19.9196C815.594 19.2268 816.51 18.8805 817.69 18.8805C818.424 18.8805 819.071 19.04 819.632 19.359C820.192 19.678 820.623 20.136 820.924 20.733C821.224 21.33 821.375 22.0296 821.375 22.8317ZM827.279 18.8805C827.562 18.8805 827.796 18.901 827.983 18.942L827.826 20.8971C827.657 20.8515 827.452 20.8287 827.211 20.8287C826.545 20.8287 826.026 20.9996 825.652 21.3414C825.283 21.6832 825.098 22.1617 825.098 22.777V26.6666H823.013V19.024H824.593L824.9 20.3092H825.003C825.24 19.8808 825.559 19.5367 825.96 19.277C826.365 19.0127 826.805 18.8805 827.279 18.8805Z" fill="#fff"/><rect width="244" height="99.333" transform="translate(736.5 42.6666)" fill="#171C1E"/><g clip-path="url(#clip1_6847_90080)"><path fill-rule="evenodd" clip-rule="evenodd" d="M849.167 80.3333H867.833C869.313 80.3333 870.5 81.5333 870.5 82.9999V101.667C870.5 103.133 869.313 104.333 867.833 104.333H849.167C847.687 104.333 846.5 103.133 846.5 101.667V82.9999C846.5 81.5333 847.687 80.3333 849.167 80.3333ZM849.167 92.3333L855.833 98.9999L867.833 86.9999L865.953 85.1066L855.833 95.2266L851.047 90.4533L849.167 92.3333Z" fill="#217CBB"/></g><path d="M869.5 75.3333H847.5C844.186 75.3333 841.5 78.0195 841.5 81.3333V103.333C841.5 106.647 844.186 109.333 847.5 109.333H869.5C872.814 109.333 875.5 106.647 875.5 103.333V81.3333C875.5 78.0195 872.814 75.3333 869.5 75.3333Z" stroke="#B44E2A" stroke-width="4"/><rect width="981" height="142.333" transform="translate(0.5 175)" fill="#6A6E79"/><rect width="244" height="40" transform="translate(1.5 176)" fill="#464B52"/><path d="M21.0498 195.907C21.0498 197.552 20.5804 198.812 19.6416 199.687C18.7074 200.562 17.3561 201 15.5879 201H12.7578V191.006H15.8955C17.527 191.006 18.7939 191.436 19.6963 192.298C20.5986 193.159 21.0498 194.362 21.0498 195.907ZM18.8486 195.962C18.8486 193.815 17.9007 192.742 16.0049 192.742H14.877V199.25H15.7861C17.8278 199.25 18.8486 198.154 18.8486 195.962ZM26.0381 194.697C25.596 194.697 25.2497 194.838 24.999 195.121C24.7484 195.399 24.6048 195.795 24.5683 196.31H27.4941C27.485 195.795 27.3506 195.399 27.0908 195.121C26.831 194.838 26.4801 194.697 26.0381 194.697ZM26.332 201.137C25.1015 201.137 24.14 200.797 23.4473 200.118C22.7545 199.439 22.4082 198.477 22.4082 197.233C22.4082 195.953 22.7272 194.964 23.3652 194.266C24.0078 193.565 24.8942 193.214 26.0244 193.214C27.1045 193.214 27.9453 193.521 28.5469 194.137C29.1484 194.752 29.4492 195.602 29.4492 196.686V197.698H24.5205C24.5433 198.291 24.7187 198.753 25.0469 199.086C25.375 199.418 25.8353 199.585 26.4277 199.585C26.888 199.585 27.3232 199.537 27.7334 199.441C28.1435 199.346 28.5719 199.193 29.0185 198.983V200.597C28.654 200.779 28.2643 200.913 27.8496 201C27.4349 201.091 26.929 201.137 26.332 201.137ZM35.2851 194.923H33.4804V201H31.3955V194.923H30.247V193.918L31.3955 193.357V192.797C31.3955 191.926 31.6097 191.291 32.0381 190.89C32.4664 190.488 33.1523 190.288 34.0957 190.288C34.8157 190.288 35.456 190.395 36.0166 190.609L35.4834 192.141C35.0641 192.008 34.6767 191.942 34.3213 191.942C34.025 191.942 33.8108 192.031 33.6787 192.209C33.5465 192.382 33.4804 192.605 33.4804 192.879V193.357H35.2851V194.923ZM41.2578 201L40.8544 199.961H40.7998C40.4488 200.403 40.0865 200.71 39.7128 200.884C39.3437 201.052 38.8606 201.137 38.2636 201.137C37.5299 201.137 36.9511 200.927 36.5273 200.508C36.108 200.088 35.8984 199.491 35.8984 198.717C35.8984 197.905 36.1809 197.308 36.746 196.926C37.3157 196.538 38.1725 196.324 39.3164 196.283L40.6425 196.242V195.907C40.6425 195.132 40.246 194.745 39.4531 194.745C38.8424 194.745 38.1246 194.93 37.2998 195.299L36.6093 193.891C37.4889 193.43 38.4641 193.2 39.5351 193.2C40.5605 193.2 41.3466 193.423 41.8935 193.87C42.4404 194.317 42.7138 194.996 42.7138 195.907V201H41.2578ZM40.6425 197.459L39.8359 197.486C39.2298 197.504 38.7786 197.614 38.4824 197.814C38.1862 198.015 38.038 198.32 38.038 198.73C38.038 199.318 38.3753 199.612 39.0498 199.612C39.5328 199.612 39.9179 199.473 40.205 199.195C40.4967 198.917 40.6425 198.548 40.6425 198.088V197.459ZM50.1972 201L49.9169 200.022H49.8076C49.5842 200.378 49.2675 200.654 48.8574 200.849C48.4472 201.041 47.9801 201.137 47.456 201.137C46.5582 201.137 45.8814 200.897 45.4257 200.419C44.97 199.936 44.7421 199.243 44.7421 198.341V193.357H46.8271V197.821C46.8271 198.373 46.9251 198.787 47.121 199.065C47.317 199.339 47.6292 199.475 48.0576 199.475C48.6409 199.475 49.0624 199.282 49.3222 198.894C49.582 198.502 49.7119 197.855 49.7119 196.953V193.357H51.7968V201H50.1972ZM55.9853 201H53.9003V190.363H55.9853V201ZM61.3153 199.475C61.6799 199.475 62.1174 199.396 62.6278 199.236V200.788C62.1083 201.02 61.4703 201.137 60.7138 201.137C59.8798 201.137 59.2714 200.927 58.8886 200.508C58.5103 200.084 58.3212 199.45 58.3212 198.607V194.923H57.3231V194.041L58.4716 193.344L59.0731 191.73H60.4062V193.357H62.5458V194.923H60.4062V198.607C60.4062 198.904 60.4882 199.122 60.6522 199.264C60.8209 199.405 61.0419 199.475 61.3153 199.475Z" fill="#fff"/><rect width="244" height="99.333" transform="translate(1.5 217)" fill="#171C1E"/><g clip-path="url(#clip2_6847_90080)"><rect x="113.5" y="256.667" width="20" height="20" fill="#fff"/><path fill-rule="evenodd" clip-rule="evenodd" d="M114.167 254.667H132.833C134.3 254.667 135.5 255.867 135.5 257.333V276C135.5 277.467 134.3 278.667 132.833 278.667H114.167C112.7 278.667 111.5 277.467 111.5 276V257.333C111.5 255.867 112.7 254.667 114.167 254.667ZM132.833 276V257.333H114.167V276H132.833Z" fill="#6A6E79"/></g><rect width="244" height="40" transform="translate(246.5 176)" fill="#464B52"/><path d="M266.05 195.907C266.05 197.552 265.58 198.812 264.642 199.687C263.707 200.562 262.356 201 260.588 201H257.758V191.006H260.896C262.527 191.006 263.794 191.436 264.696 192.298C265.599 193.159 266.05 194.362 266.05 195.907ZM263.849 195.962C263.849 193.815 262.901 192.742 261.005 192.742H259.877V199.25H260.786C262.828 199.25 263.849 198.154 263.849 195.962ZM271.038 194.697C270.596 194.697 270.25 194.838 269.999 195.121C269.748 195.399 269.605 195.795 269.568 196.31H272.494C272.485 195.795 272.351 195.399 272.091 195.121C271.831 194.838 271.48 194.697 271.038 194.697ZM271.332 201.137C270.102 201.137 269.14 200.797 268.447 200.118C267.755 199.439 267.408 198.477 267.408 197.233C267.408 195.953 267.727 194.964 268.365 194.266C269.008 193.565 269.894 193.214 271.024 193.214C272.104 193.214 272.945 193.521 273.547 194.137C274.148 194.752 274.449 195.602 274.449 196.686V197.698H269.52C269.543 198.291 269.719 198.753 270.047 199.086C270.375 199.418 270.835 199.585 271.428 199.585C271.888 199.585 272.323 199.537 272.733 199.441C273.144 199.346 273.572 199.193 274.019 198.983V200.597C273.654 200.779 273.264 200.913 272.85 201C272.435 201.091 271.929 201.137 271.332 201.137ZM280.285 194.923H278.48V201H276.395V194.923H275.247V193.918L276.395 193.357V192.797C276.395 191.926 276.61 191.291 277.038 190.89C277.466 190.488 278.152 190.288 279.096 190.288C279.816 190.288 280.456 190.395 281.017 190.609L280.483 192.141C280.064 192.008 279.677 191.942 279.321 191.942C279.025 191.942 278.811 192.031 278.679 192.209C278.547 192.382 278.48 192.605 278.48 192.879V193.357H280.285V194.923ZM286.258 201L285.854 199.961H285.8C285.449 200.403 285.087 200.71 284.713 200.884C284.344 201.052 283.861 201.137 283.264 201.137C282.53 201.137 281.951 200.927 281.527 200.508C281.108 200.088 280.898 199.491 280.898 198.717C280.898 197.905 281.181 197.308 281.746 196.926C282.316 196.538 283.172 196.324 284.316 196.283L285.643 196.242V195.907C285.643 195.132 285.246 194.745 284.453 194.745C283.842 194.745 283.125 194.93 282.3 195.299L281.609 193.891C282.489 193.43 283.464 193.2 284.535 193.2C285.56 193.2 286.347 193.423 286.894 193.87C287.44 194.317 287.714 194.996 287.714 195.907V201H286.258ZM285.643 197.459L284.836 197.486C284.23 197.504 283.779 197.614 283.482 197.814C283.186 198.015 283.038 198.32 283.038 198.73C283.038 199.318 283.375 199.612 284.05 199.612C284.533 199.612 284.918 199.473 285.205 199.195C285.497 198.917 285.643 198.548 285.643 198.088V197.459ZM295.197 201L294.917 200.022H294.808C294.584 200.378 294.268 200.654 293.857 200.849C293.447 201.041 292.98 201.137 292.456 201.137C291.558 201.137 290.881 200.897 290.426 200.419C289.97 199.936 289.742 199.243 289.742 198.341V193.357H291.827V197.821C291.827 198.373 291.925 198.787 292.121 199.065C292.317 199.339 292.629 199.475 293.058 199.475C293.641 199.475 294.062 199.282 294.322 198.894C294.582 198.502 294.712 197.855 294.712 196.953V193.357H296.797V201H295.197ZM300.985 201H298.9V190.363H300.985V201ZM306.315 199.475C306.68 199.475 307.117 199.396 307.628 199.236V200.788C307.108 201.02 306.47 201.137 305.714 201.137C304.88 201.137 304.271 200.927 303.889 200.508C303.51 200.084 303.321 199.45 303.321 198.607V194.923H302.323V194.041L303.472 193.344L304.073 191.73H305.406V193.357H307.546V194.923H305.406V198.607C305.406 198.904 305.488 199.122 305.652 199.264C305.821 199.405 306.042 199.475 306.315 199.475ZM314.897 201H312.812V191.006H318.541V192.742H314.897V195.319H318.288V197.049H314.897V201ZM321.909 197.165C321.909 197.921 322.032 198.493 322.278 198.881C322.529 199.268 322.934 199.462 323.495 199.462C324.051 199.462 324.45 199.27 324.691 198.888C324.937 198.5 325.06 197.926 325.06 197.165C325.06 196.408 324.937 195.841 324.691 195.463C324.445 195.085 324.042 194.895 323.481 194.895C322.925 194.895 322.524 195.085 322.278 195.463C322.032 195.836 321.909 196.404 321.909 197.165ZM327.193 197.165C327.193 198.409 326.865 199.382 326.209 200.084C325.553 200.786 324.639 201.137 323.468 201.137C322.734 201.137 322.087 200.977 321.526 200.658C320.966 200.335 320.535 199.872 320.234 199.27C319.933 198.669 319.783 197.967 319.783 197.165C319.783 195.916 320.109 194.946 320.761 194.253C321.412 193.56 322.328 193.214 323.509 193.214C324.242 193.214 324.89 193.373 325.45 193.692C326.011 194.011 326.441 194.469 326.742 195.066C327.043 195.663 327.193 196.363 327.193 197.165ZM331.935 201.137C329.556 201.137 328.367 199.831 328.367 197.22C328.367 195.921 328.691 194.93 329.338 194.246C329.985 193.558 330.912 193.214 332.12 193.214C333.004 193.214 333.797 193.387 334.499 193.733L333.884 195.347C333.556 195.214 333.25 195.107 332.968 195.025C332.685 194.939 332.403 194.895 332.12 194.895C331.035 194.895 330.493 195.666 330.493 197.206C330.493 198.701 331.035 199.448 332.12 199.448C332.521 199.448 332.892 199.396 333.234 199.291C333.576 199.182 333.918 199.013 334.26 198.785V200.569C333.922 200.783 333.581 200.932 333.234 201.014C332.892 201.096 332.459 201.137 331.935 201.137ZM341.367 201L341.087 200.022H340.977C340.754 200.378 340.437 200.654 340.027 200.849C339.617 201.041 339.15 201.137 338.626 201.137C337.728 201.137 337.051 200.897 336.596 200.419C336.14 199.936 335.912 199.243 335.912 198.341V193.357H337.997V197.821C337.997 198.373 338.095 198.787 338.291 199.065C338.487 199.339 338.799 199.475 339.227 199.475C339.811 199.475 340.232 199.282 340.492 198.894C340.752 198.502 340.882 197.855 340.882 196.953V193.357H342.967V201H341.367ZM350.402 198.73C350.402 199.514 350.129 200.111 349.582 200.521C349.04 200.932 348.226 201.137 347.141 201.137C346.585 201.137 346.111 201.098 345.72 201.02C345.328 200.947 344.961 200.838 344.619 200.692V198.97C345.006 199.152 345.442 199.305 345.925 199.428C346.412 199.551 346.841 199.612 347.21 199.612C347.966 199.612 348.345 199.393 348.345 198.956C348.345 198.792 348.294 198.66 348.194 198.559C348.094 198.455 347.921 198.338 347.675 198.211C347.429 198.079 347.1 197.926 346.69 197.753C346.102 197.507 345.669 197.279 345.391 197.069C345.118 196.86 344.917 196.62 344.79 196.351C344.667 196.078 344.605 195.743 344.605 195.347C344.605 194.668 344.867 194.143 345.391 193.774C345.92 193.401 346.667 193.214 347.634 193.214C348.554 193.214 349.45 193.414 350.32 193.815L349.691 195.319C349.308 195.155 348.951 195.021 348.618 194.916C348.285 194.811 347.946 194.759 347.599 194.759C346.984 194.759 346.677 194.925 346.677 195.258C346.677 195.445 346.775 195.606 346.971 195.743C347.171 195.88 347.606 196.083 348.276 196.351C348.873 196.593 349.311 196.819 349.589 197.028C349.867 197.238 350.072 197.479 350.204 197.753C350.336 198.026 350.402 198.352 350.402 198.73Z" fill="#fff"/><rect width="244" height="99.333" transform="translate(246.5 217)" fill="#171C1E"/><g clip-path="url(#clip3_6847_90080)"><rect x="358.5" y="256.667" width="20" height="20" fill="#fff"/><path fill-rule="evenodd" clip-rule="evenodd" d="M359.167 254.667H377.833C379.3 254.667 380.5 255.867 380.5 257.333V276C380.5 277.467 379.3 278.667 377.833 278.667H359.167C357.7 278.667 356.5 277.467 356.5 276V257.333C356.5 255.867 357.7 254.667 359.167 254.667ZM377.833 276V257.333H359.167V276H377.833Z" fill="#6A6E79"/></g><path d="M379.5 249.667H357.5C354.186 249.667 351.5 252.353 351.5 255.667V277.667C351.5 280.98 354.186 283.667 357.5 283.667H379.5C382.814 283.667 385.5 280.98 385.5 277.667V255.667C385.5 252.353 382.814 249.667 379.5 249.667Z" stroke="#0084FF" stroke-width="4"/><rect width="244" height="40" transform="translate(491.5 176)" fill="#464B52"/><path d="M511.05 195.907C511.05 197.552 510.58 198.812 509.642 199.687C508.707 200.562 507.356 201 505.588 201H502.758V191.006H505.896C507.527 191.006 508.794 191.436 509.696 192.298C510.599 193.159 511.05 194.362 511.05 195.907ZM508.849 195.962C508.849 193.815 507.901 192.742 506.005 192.742H504.877V199.25H505.786C507.828 199.25 508.849 198.154 508.849 195.962ZM516.038 194.697C515.596 194.697 515.25 194.838 514.999 195.121C514.748 195.399 514.605 195.795 514.568 196.31H517.494C517.485 195.795 517.351 195.399 517.091 195.121C516.831 194.838 516.48 194.697 516.038 194.697ZM516.332 201.137C515.102 201.137 514.14 200.797 513.447 200.118C512.755 199.439 512.408 198.477 512.408 197.233C512.408 195.953 512.727 194.964 513.365 194.266C514.008 193.565 514.894 193.214 516.024 193.214C517.104 193.214 517.945 193.521 518.547 194.137C519.148 194.752 519.449 195.602 519.449 196.686V197.698H514.52C514.543 198.291 514.719 198.753 515.047 199.086C515.375 199.418 515.835 199.585 516.428 199.585C516.888 199.585 517.323 199.537 517.733 199.441C518.144 199.346 518.572 199.193 519.019 198.983V200.597C518.654 200.779 518.264 200.913 517.85 201C517.435 201.091 516.929 201.137 516.332 201.137ZM525.285 194.923H523.48V201H521.395V194.923H520.247V193.918L521.395 193.357V192.797C521.395 191.926 521.61 191.291 522.038 190.89C522.466 190.488 523.152 190.288 524.096 190.288C524.816 190.288 525.456 190.395 526.017 190.609L525.483 192.141C525.064 192.008 524.677 191.942 524.321 191.942C524.025 191.942 523.811 192.031 523.679 192.209C523.547 192.382 523.48 192.605 523.48 192.879V193.357H525.285V194.923ZM531.258 201L530.854 199.961H530.8C530.449 200.403 530.087 200.71 529.713 200.884C529.344 201.052 528.861 201.137 528.264 201.137C527.53 201.137 526.951 200.927 526.527 200.508C526.108 200.088 525.898 199.491 525.898 198.717C525.898 197.905 526.181 197.308 526.746 196.926C527.316 196.538 528.172 196.324 529.316 196.283L530.643 196.242V195.907C530.643 195.132 530.246 194.745 529.453 194.745C528.842 194.745 528.125 194.93 527.3 195.299L526.609 193.891C527.489 193.43 528.464 193.2 529.535 193.2C530.56 193.2 531.347 193.423 531.894 193.87C532.44 194.317 532.714 194.996 532.714 195.907V201H531.258ZM530.643 197.459L529.836 197.486C529.23 197.504 528.779 197.614 528.482 197.814C528.186 198.015 528.038 198.32 528.038 198.73C528.038 199.318 528.375 199.612 529.05 199.612C529.533 199.612 529.918 199.473 530.205 199.195C530.497 198.917 530.643 198.548 530.643 198.088V197.459ZM540.197 201L539.917 200.022H539.808C539.584 200.378 539.268 200.654 538.857 200.849C538.447 201.041 537.98 201.137 537.456 201.137C536.558 201.137 535.881 200.897 535.426 200.419C534.97 199.936 534.742 199.243 534.742 198.341V193.357H536.827V197.821C536.827 198.373 536.925 198.787 537.121 199.065C537.317 199.339 537.629 199.475 538.058 199.475C538.641 199.475 539.062 199.282 539.322 198.894C539.582 198.502 539.712 197.855 539.712 196.953V193.357H541.797V201H540.197ZM545.985 201H543.9V190.363H545.985V201ZM551.315 199.475C551.68 199.475 552.117 199.396 552.628 199.236V200.788C552.108 201.02 551.47 201.137 550.714 201.137C549.88 201.137 549.271 200.927 548.889 200.508C548.51 200.084 548.321 199.45 548.321 198.607V194.923H547.323V194.041L548.472 193.344L549.073 191.73H550.406V193.357H552.546V194.923H550.406V198.607C550.406 198.904 550.488 199.122 550.652 199.264C550.821 199.405 551.042 199.475 551.315 199.475ZM560.068 201.137C559.17 201.137 558.464 200.788 557.949 200.091C557.439 199.393 557.183 198.427 557.183 197.192C557.183 195.939 557.443 194.964 557.963 194.266C558.487 193.565 559.207 193.214 560.123 193.214C561.085 193.214 561.818 193.587 562.324 194.335H562.392C562.288 193.765 562.235 193.257 562.235 192.81V190.363H564.327V201H562.727L562.324 200.009H562.235C561.761 200.761 561.039 201.137 560.068 201.137ZM560.8 199.475C561.333 199.475 561.723 199.321 561.969 199.011C562.219 198.701 562.356 198.174 562.379 197.432V197.206C562.379 196.386 562.251 195.798 561.996 195.442C561.745 195.087 561.335 194.909 560.765 194.909C560.301 194.909 559.938 195.107 559.679 195.504C559.423 195.896 559.296 196.468 559.296 197.22C559.296 197.972 559.426 198.537 559.685 198.915C559.945 199.289 560.317 199.475 560.8 199.475ZM566.335 191.382C566.335 190.703 566.713 190.363 567.47 190.363C568.226 190.363 568.604 190.703 568.604 191.382C568.604 191.705 568.509 191.958 568.317 192.141C568.13 192.318 567.848 192.407 567.47 192.407C566.713 192.407 566.335 192.065 566.335 191.382ZM568.509 201H566.424V193.357H568.509V201ZM575.951 198.73C575.951 199.514 575.678 200.111 575.131 200.521C574.588 200.932 573.775 201.137 572.69 201.137C572.134 201.137 571.66 201.098 571.268 201.02C570.876 200.947 570.51 200.838 570.168 200.692V198.97C570.555 199.152 570.99 199.305 571.473 199.428C571.961 199.551 572.389 199.612 572.759 199.612C573.515 199.612 573.893 199.393 573.893 198.956C573.893 198.792 573.843 198.66 573.743 198.559C573.643 198.455 573.47 198.338 573.223 198.211C572.977 198.079 572.649 197.926 572.239 197.753C571.651 197.507 571.218 197.279 570.94 197.069C570.667 196.86 570.466 196.62 570.339 196.351C570.216 196.078 570.154 195.743 570.154 195.347C570.154 194.668 570.416 194.143 570.94 193.774C571.469 193.401 572.216 193.214 573.182 193.214C574.103 193.214 574.999 193.414 575.869 193.815L575.24 195.319C574.857 195.155 574.5 195.021 574.167 194.916C573.834 194.811 573.495 194.759 573.148 194.759C572.533 194.759 572.225 194.925 572.225 195.258C572.225 195.445 572.323 195.606 572.519 195.743C572.72 195.88 573.155 196.083 573.825 196.351C574.422 196.593 574.86 196.819 575.138 197.028C575.416 197.238 575.621 197.479 575.753 197.753C575.885 198.026 575.951 198.352 575.951 198.73ZM582.347 201L581.944 199.961H581.889C581.539 200.403 581.176 200.71 580.803 200.884C580.433 201.052 579.95 201.137 579.353 201.137C578.62 201.137 578.041 200.927 577.617 200.508C577.198 200.088 576.988 199.491 576.988 198.717C576.988 197.905 577.271 197.308 577.836 196.926C578.405 196.538 579.262 196.324 580.406 196.283L581.732 196.242V195.907C581.732 195.132 581.336 194.745 580.543 194.745C579.932 194.745 579.214 194.93 578.389 195.299L577.699 193.891C578.579 193.43 579.554 193.2 580.625 193.2C581.65 193.2 582.436 193.423 582.983 193.87C583.53 194.317 583.804 194.996 583.804 195.907V201H582.347ZM581.732 197.459L580.926 197.486C580.319 197.504 579.868 197.614 579.572 197.814C579.276 198.015 579.128 198.32 579.128 198.73C579.128 199.318 579.465 199.612 580.139 199.612C580.623 199.612 581.008 199.473 581.295 199.195C581.586 198.917 581.732 198.548 581.732 198.088V197.459ZM590.125 193.214C591.027 193.214 591.734 193.567 592.244 194.273C592.754 194.975 593.01 195.939 593.01 197.165C593.01 198.427 592.745 199.405 592.217 200.098C591.693 200.79 590.977 201.137 590.07 201.137C589.172 201.137 588.468 200.811 587.958 200.159H587.814L587.466 201H585.873V190.363H587.958V192.838C587.958 193.152 587.93 193.656 587.876 194.349H587.958C588.445 193.592 589.168 193.214 590.125 193.214ZM589.455 194.882C588.94 194.882 588.564 195.041 588.327 195.36C588.09 195.675 587.967 196.196 587.958 196.926V197.151C587.958 197.972 588.079 198.559 588.32 198.915C588.566 199.27 588.954 199.448 589.482 199.448C589.911 199.448 590.25 199.252 590.501 198.86C590.756 198.464 590.884 197.89 590.884 197.138C590.884 196.386 590.756 195.823 590.501 195.449C590.246 195.071 589.897 194.882 589.455 194.882ZM596.733 201H594.648V190.363H596.733V201ZM602.009 194.697C601.567 194.697 601.22 194.838 600.97 195.121C600.719 195.399 600.575 195.795 600.539 196.31H603.465C603.456 195.795 603.321 195.399 603.061 195.121C602.802 194.838 602.451 194.697 602.009 194.697ZM602.303 201.137C601.072 201.137 600.11 200.797 599.418 200.118C598.725 199.439 598.379 198.477 598.379 197.233C598.379 195.953 598.698 194.964 599.336 194.266C599.978 193.565 600.865 193.214 601.995 193.214C603.075 193.214 603.916 193.521 604.517 194.137C605.119 194.752 605.42 195.602 605.42 196.686V197.698H600.491C600.514 198.291 600.689 198.753 601.017 199.086C601.345 199.418 601.806 199.585 602.398 199.585C602.859 199.585 603.294 199.537 603.704 199.441C604.114 199.346 604.542 199.193 604.989 198.983V200.597C604.624 200.779 604.235 200.913 603.82 201C603.405 201.091 602.9 201.137 602.303 201.137ZM609.451 201.137C608.553 201.137 607.847 200.788 607.332 200.091C606.821 199.393 606.566 198.427 606.566 197.192C606.566 195.939 606.826 194.964 607.345 194.266C607.87 193.565 608.59 193.214 609.506 193.214C610.467 193.214 611.201 193.587 611.707 194.335H611.775C611.67 193.765 611.618 193.257 611.618 192.81V190.363H613.71V201H612.11L611.707 200.009H611.618C611.144 200.761 610.422 201.137 609.451 201.137ZM610.182 199.475C610.716 199.475 611.105 199.321 611.351 199.011C611.602 198.701 611.739 198.174 611.761 197.432V197.206C611.761 196.386 611.634 195.798 611.379 195.442C611.128 195.087 610.718 194.909 610.148 194.909C609.683 194.909 609.321 195.107 609.061 195.504C608.806 195.896 608.678 196.468 608.678 197.22C608.678 197.972 608.808 198.537 609.068 198.915C609.328 199.289 609.699 199.475 610.182 199.475Z" fill="#fff"/><rect width="244" height="99.333" transform="translate(491.5 217)" fill="#171C1E"/><g opacity=".4"><g clip-path="url(#clip4_6847_90080)"><rect x="603.5" y="256.667" width="20" height="20" fill="#fff"/><path fill-rule="evenodd" clip-rule="evenodd" d="M604.167 254.667H622.833C624.3 254.667 625.5 255.867 625.5 257.333V276C625.5 277.467 624.3 278.667 622.833 278.667H604.167C602.7 278.667 601.5 277.467 601.5 276V257.333C601.5 255.867 602.7 254.667 604.167 254.667ZM622.833 276V257.333H604.167V276H622.833Z" fill="#6A6E79"/></g></g><rect width="244" height="40" transform="translate(736.5 176)" fill="#464B52"/><path d="M756.05 195.907C756.05 197.552 755.58 198.812 754.642 199.687C753.707 200.562 752.356 201 750.588 201H747.758V191.006H750.896C752.527 191.006 753.794 191.436 754.696 192.298C755.599 193.159 756.05 194.362 756.05 195.907ZM753.849 195.962C753.849 193.815 752.901 192.742 751.005 192.742H749.877V199.25H750.786C752.828 199.25 753.849 198.154 753.849 195.962ZM761.038 194.697C760.596 194.697 760.25 194.838 759.999 195.121C759.748 195.399 759.605 195.795 759.568 196.31H762.494C762.485 195.795 762.351 195.399 762.091 195.121C761.831 194.838 761.48 194.697 761.038 194.697ZM761.332 201.137C760.102 201.137 759.14 200.797 758.447 200.118C757.755 199.439 757.408 198.477 757.408 197.233C757.408 195.953 757.727 194.964 758.365 194.266C759.008 193.565 759.894 193.214 761.024 193.214C762.104 193.214 762.945 193.521 763.547 194.137C764.148 194.752 764.449 195.602 764.449 196.686V197.698H759.52C759.543 198.291 759.719 198.753 760.047 199.086C760.375 199.418 760.835 199.585 761.428 199.585C761.888 199.585 762.323 199.537 762.733 199.441C763.144 199.346 763.572 199.193 764.019 198.983V200.597C763.654 200.779 763.264 200.913 762.85 201C762.435 201.091 761.929 201.137 761.332 201.137ZM770.285 194.923H768.48V201H766.395V194.923H765.247V193.918L766.395 193.357V192.797C766.395 191.926 766.61 191.291 767.038 190.89C767.466 190.488 768.152 190.288 769.096 190.288C769.816 190.288 770.456 190.395 771.017 190.609L770.483 192.141C770.064 192.008 769.677 191.942 769.321 191.942C769.025 191.942 768.811 192.031 768.679 192.209C768.547 192.382 768.48 192.605 768.48 192.879V193.357H770.285V194.923ZM776.258 201L775.854 199.961H775.8C775.449 200.403 775.087 200.71 774.713 200.884C774.344 201.052 773.861 201.137 773.264 201.137C772.53 201.137 771.951 200.927 771.527 200.508C771.108 200.088 770.898 199.491 770.898 198.717C770.898 197.905 771.181 197.308 771.746 196.926C772.316 196.538 773.172 196.324 774.316 196.283L775.643 196.242V195.907C775.643 195.132 775.246 194.745 774.453 194.745C773.842 194.745 773.125 194.93 772.3 195.299L771.609 193.891C772.489 193.43 773.464 193.2 774.535 193.2C775.56 193.2 776.347 193.423 776.894 193.87C777.44 194.317 777.714 194.996 777.714 195.907V201H776.258ZM775.643 197.459L774.836 197.486C774.23 197.504 773.779 197.614 773.482 197.814C773.186 198.015 773.038 198.32 773.038 198.73C773.038 199.318 773.375 199.612 774.05 199.612C774.533 199.612 774.918 199.473 775.205 199.195C775.497 198.917 775.643 198.548 775.643 198.088V197.459ZM785.197 201L784.917 200.022H784.808C784.584 200.378 784.268 200.654 783.857 200.849C783.447 201.041 782.98 201.137 782.456 201.137C781.558 201.137 780.881 200.897 780.426 200.419C779.97 199.936 779.742 199.243 779.742 198.341V193.357H781.827V197.821C781.827 198.373 781.925 198.787 782.121 199.065C782.317 199.339 782.629 199.475 783.058 199.475C783.641 199.475 784.062 199.282 784.322 198.894C784.582 198.502 784.712 197.855 784.712 196.953V193.357H786.797V201H785.197ZM790.985 201H788.9V190.363H790.985V201ZM796.315 199.475C796.68 199.475 797.117 199.396 797.628 199.236V200.788C797.108 201.02 796.47 201.137 795.714 201.137C794.88 201.137 794.271 200.927 793.889 200.508C793.51 200.084 793.321 199.45 793.321 198.607V194.923H792.323V194.041L793.472 193.344L794.073 191.73H795.406V193.357H797.546V194.923H795.406V198.607C795.406 198.904 795.488 199.122 795.652 199.264C795.821 199.405 796.042 199.475 796.315 199.475ZM808.568 201H802.812V191.006H808.568V192.742H804.932V194.936H808.315V196.673H804.932V199.25H808.568V201ZM814.678 193.214C814.96 193.214 815.195 193.234 815.382 193.275L815.224 195.23C815.056 195.185 814.851 195.162 814.609 195.162C813.944 195.162 813.424 195.333 813.051 195.675C812.681 196.016 812.497 196.495 812.497 197.11V201H810.412V193.357H811.991L812.299 194.642H812.401C812.638 194.214 812.957 193.87 813.358 193.61C813.764 193.346 814.204 193.214 814.678 193.214ZM820.951 193.214C821.234 193.214 821.468 193.234 821.655 193.275L821.498 195.23C821.329 195.185 821.124 195.162 820.883 195.162C820.217 195.162 819.698 195.333 819.324 195.675C818.955 196.016 818.77 196.495 818.77 197.11V201H816.685V193.357H818.264L818.572 194.642H818.675C818.912 194.214 819.231 193.87 819.632 193.61C820.037 193.346 820.477 193.214 820.951 193.214ZM824.62 197.165C824.62 197.921 824.743 198.493 824.989 198.881C825.24 199.268 825.645 199.462 826.206 199.462C826.762 199.462 827.161 199.27 827.402 198.888C827.648 198.5 827.771 197.926 827.771 197.165C827.771 196.408 827.648 195.841 827.402 195.463C827.156 195.085 826.753 194.895 826.192 194.895C825.636 194.895 825.235 195.085 824.989 195.463C824.743 195.836 824.62 196.404 824.62 197.165ZM829.904 197.165C829.904 198.409 829.576 199.382 828.92 200.084C828.263 200.786 827.35 201.137 826.179 201.137C825.445 201.137 824.798 200.977 824.237 200.658C823.677 200.335 823.246 199.872 822.945 199.27C822.644 198.669 822.494 197.967 822.494 197.165C822.494 195.916 822.82 194.946 823.472 194.253C824.123 193.56 825.039 193.214 826.22 193.214C826.953 193.214 827.6 193.373 828.161 193.692C828.722 194.011 829.152 194.469 829.453 195.066C829.754 195.663 829.904 196.363 829.904 197.165ZM835.808 193.214C836.091 193.214 836.326 193.234 836.513 193.275L836.355 195.23C836.187 195.185 835.982 195.162 835.74 195.162C835.075 195.162 834.555 195.333 834.181 195.675C833.812 196.016 833.628 196.495 833.628 197.11V201H831.543V193.357H833.122L833.429 194.642H833.532C833.769 194.214 834.088 193.87 834.489 193.61C834.895 193.346 835.334 193.214 835.808 193.214Z" fill="#fff"/><rect width="244" height="99.333" transform="translate(736.5 217)" fill="#171C1E"/><g clip-path="url(#clip5_6847_90080)"><rect x="848.5" y="256.667" width="20" height="20" fill="#fff"/><path fill-rule="evenodd" clip-rule="evenodd" d="M849.167 254.667H867.833C869.3 254.667 870.5 255.867 870.5 257.333V276C870.5 277.467 869.3 278.667 867.833 278.667H849.167C847.7 278.667 846.5 277.467 846.5 276V257.333C846.5 255.867 847.7 254.667 849.167 254.667ZM867.833 276V257.333H849.167V276H867.833Z" fill="#6A6E79"/></g><path d="M869.5 249.667H847.5C844.186 249.667 841.5 252.353 841.5 255.667V277.667C841.5 280.98 844.186 283.667 847.5 283.667H869.5C872.814 283.667 875.5 280.98 875.5 277.667V255.667C875.5 252.353 872.814 249.667 869.5 249.667Z" stroke="#B44E2A" stroke-width="4"/><rect width="981" height="142.333" transform="translate(0.5 349.333)" fill="#585C65"/><rect width="244" height="142.333" transform="translate(1.5 349.333)" fill="#6A6E79"/><rect width="244" height="40" transform="translate(1.5 350.333)" fill="#464B52"/><path d="M12.7578 375.333V365.339H14.877V375.333H12.7578ZM24.1992 375.333H22.1142V370.869C22.1142 370.318 22.0163 369.906 21.8203 369.632C21.6243 369.354 21.3122 369.215 20.8838 369.215C20.3004 369.215 19.8789 369.411 19.6191 369.803C19.3594 370.19 19.2295 370.835 19.2295 371.738V375.333H17.1445V367.691H18.7373L19.0176 368.668H19.1338C19.3662 368.299 19.6852 368.021 20.0908 367.834C20.501 367.643 20.9658 367.547 21.4853 367.547C22.374 367.547 23.0485 367.789 23.5088 368.272C23.9691 368.75 24.1992 369.443 24.1992 370.35V375.333ZM28.6816 375.47C27.7838 375.47 27.0774 375.121 26.5625 374.424C26.0521 373.727 25.7968 372.761 25.7968 371.526C25.7968 370.272 26.0566 369.297 26.5761 368.6C27.1002 367.898 27.8203 367.547 28.7363 367.547C29.6979 367.547 30.4316 367.921 30.9375 368.668H31.0058C30.901 368.099 30.8486 367.59 30.8486 367.144V364.697H32.9404V375.333H31.3408L30.9375 374.342H30.8486C30.3746 375.094 29.6523 375.47 28.6816 375.47ZM29.4131 373.809C29.9463 373.809 30.3359 373.654 30.582 373.344C30.8327 373.034 30.9694 372.508 30.9922 371.765V371.539C30.9922 370.719 30.8646 370.131 30.6093 369.776C30.3587 369.42 29.9485 369.242 29.3789 369.242C28.914 369.242 28.5517 369.441 28.292 369.837C28.0368 370.229 27.9091 370.801 27.9091 371.553C27.9091 372.305 28.039 372.87 28.2988 373.248C28.5586 373.622 28.93 373.809 29.4131 373.809ZM38.2021 369.031C37.76 369.031 37.4137 369.172 37.163 369.454C36.9124 369.732 36.7688 370.129 36.7324 370.644H39.6582C39.649 370.129 39.5146 369.732 39.2548 369.454C38.9951 369.172 38.6442 369.031 38.2021 369.031ZM38.496 375.47C37.2656 375.47 36.304 375.13 35.6113 374.451C34.9186 373.772 34.5722 372.811 34.5722 371.567C34.5722 370.286 34.8912 369.297 35.5292 368.6C36.1718 367.898 37.0582 367.547 38.1884 367.547C39.2685 367.547 40.1093 367.855 40.7109 368.47C41.3125 369.085 41.6132 369.935 41.6132 371.02V372.031H36.6845C36.7073 372.624 36.8828 373.087 37.2109 373.419C37.539 373.752 37.9993 373.918 38.5917 373.918C39.052 373.918 39.4873 373.87 39.8974 373.775C40.3076 373.679 40.736 373.526 41.1826 373.317V374.93C40.818 375.112 40.4283 375.247 40.0136 375.333C39.5989 375.424 39.0931 375.47 38.496 375.47ZM46.4443 373.809C46.8089 373.809 47.2464 373.729 47.7568 373.57V375.121C47.2372 375.354 46.5992 375.47 45.8427 375.47C45.0087 375.47 44.4003 375.26 44.0175 374.841C43.6393 374.417 43.4501 373.784 43.4501 372.941V369.256H42.4521V368.374L43.6005 367.677L44.2021 366.064H45.5351V367.691H47.6747V369.256H45.5351V372.941C45.5351 373.237 45.6171 373.456 45.7812 373.597C45.9498 373.738 46.1708 373.809 46.4443 373.809ZM52.3896 369.031C51.9475 369.031 51.6012 369.172 51.3505 369.454C51.0999 369.732 50.9563 370.129 50.9198 370.644H53.8456C53.8365 370.129 53.7021 369.732 53.4423 369.454C53.1825 369.172 52.8316 369.031 52.3896 369.031ZM52.6835 375.47C51.453 375.47 50.4915 375.13 49.7988 374.451C49.106 373.772 48.7597 372.811 48.7597 371.567C48.7597 370.286 49.0787 369.297 49.7167 368.6C50.3593 367.898 51.2457 367.547 52.3759 367.547C53.456 367.547 54.2968 367.855 54.8984 368.47C55.4999 369.085 55.8007 369.935 55.8007 371.02V372.031H50.872C50.8948 372.624 51.0702 373.087 51.3984 373.419C51.7265 373.752 52.1868 373.918 52.7792 373.918C53.2395 373.918 53.6747 373.87 54.0849 373.775C54.495 373.679 54.9234 373.526 55.37 373.317V374.93C55.0055 375.112 54.6158 375.247 54.2011 375.333C53.7864 375.424 53.2805 375.47 52.6835 375.47ZM61.6776 367.547C61.9602 367.547 62.1949 367.568 62.3817 367.609L62.2245 369.564C62.0559 369.518 61.8508 369.495 61.6093 369.495C60.9439 369.495 60.4244 369.666 60.0507 370.008C59.6815 370.35 59.497 370.828 59.497 371.444V375.333H57.412V367.691H58.9911L59.2987 368.976H59.4013C59.6383 368.547 59.9573 368.203 60.3583 367.944C60.7639 367.679 61.2037 367.547 61.6776 367.547ZM70.5282 375.333H68.4432V370.869C68.4432 370.318 68.3498 369.906 68.163 369.632C67.9807 369.354 67.6913 369.215 67.2948 369.215C66.7616 369.215 66.3742 369.411 66.1327 369.803C65.8912 370.195 65.7704 370.84 65.7704 371.738V375.333H63.6854V367.691H65.2782L65.5585 368.668H65.6747C65.8798 368.317 66.176 368.044 66.5634 367.848C66.9507 367.647 67.3951 367.547 67.8964 367.547C69.0403 367.547 69.815 367.921 70.2206 368.668H70.4052C70.6102 368.313 70.911 368.037 71.3075 367.841C71.7085 367.645 72.1597 367.547 72.661 367.547C73.5269 367.547 74.1809 367.77 74.6229 368.217C75.0696 368.659 75.2929 369.37 75.2929 370.35V375.333H73.2011V370.869C73.2011 370.318 73.1076 369.906 72.9208 369.632C72.7385 369.354 72.4491 369.215 72.0526 369.215C71.5422 369.215 71.1594 369.397 70.9042 369.762C70.6535 370.127 70.5282 370.705 70.5282 371.498V375.333ZM77.2665 365.715C77.2665 365.036 77.6447 364.697 78.4012 364.697C79.1578 364.697 79.536 365.036 79.536 365.715C79.536 366.039 79.4403 366.292 79.2489 366.474C79.0621 366.652 78.7795 366.74 78.4012 366.74C77.6447 366.74 77.2665 366.399 77.2665 365.715ZM79.4403 375.333H77.3553V367.691H79.4403V375.333ZM88.6053 375.333H86.5204V370.869C86.5204 370.318 86.4224 369.906 86.2264 369.632C86.0305 369.354 85.7183 369.215 85.2899 369.215C84.7066 369.215 84.285 369.411 84.0253 369.803C83.7655 370.19 83.6356 370.835 83.6356 371.738V375.333H81.5506V367.691H83.1434L83.4237 368.668H83.5399C83.7723 368.299 84.0913 368.021 84.4969 367.834C84.9071 367.643 85.3719 367.547 85.8915 367.547C86.7801 367.547 87.4546 367.789 87.9149 368.272C88.3752 368.75 88.6053 369.443 88.6053 370.35V375.333ZM95.5213 375.333L95.118 374.294H95.0633C94.7124 374.736 94.3501 375.044 93.9764 375.217C93.6073 375.386 93.1242 375.47 92.5272 375.47C91.7935 375.47 91.2147 375.26 90.7909 374.841C90.3716 374.422 90.162 373.825 90.162 373.05C90.162 372.239 90.4445 371.642 91.0096 371.259C91.5793 370.872 92.436 370.657 93.5799 370.616L94.9061 370.575V370.24C94.9061 369.466 94.5096 369.078 93.7166 369.078C93.106 369.078 92.3882 369.263 91.5633 369.632L90.8729 368.224C91.7525 367.764 92.7277 367.533 93.7987 367.533C94.8241 367.533 95.6102 367.757 96.1571 368.203C96.7039 368.65 96.9774 369.329 96.9774 370.24V375.333H95.5213ZM94.9061 371.792L94.0995 371.82C93.4933 371.838 93.0422 371.947 92.7459 372.148C92.4497 372.348 92.3016 372.654 92.3016 373.064C92.3016 373.652 92.6388 373.946 93.3133 373.946C93.7964 373.946 94.1815 373.807 94.4686 373.529C94.7603 373.251 94.9061 372.881 94.9061 372.421V371.792ZM102.266 373.809C102.631 373.809 103.069 373.729 103.579 373.57V375.121C103.059 375.354 102.421 375.47 101.665 375.47C100.831 375.47 100.222 375.26 99.8397 374.841C99.4614 374.417 99.2723 373.784 99.2723 372.941V369.256H98.2742V368.374L99.4227 367.677L100.024 366.064H101.357V367.691H103.497V369.256H101.357V372.941C101.357 373.237 101.439 373.456 101.603 373.597C101.772 373.738 101.993 373.809 102.266 373.809ZM108.212 369.031C107.77 369.031 107.423 369.172 107.173 369.454C106.922 369.732 106.778 370.129 106.742 370.644H109.668C109.659 370.129 109.524 369.732 109.264 369.454C109.005 369.172 108.654 369.031 108.212 369.031ZM108.506 375.47C107.275 375.47 106.314 375.13 105.621 374.451C104.928 373.772 104.582 372.811 104.582 371.567C104.582 370.286 104.901 369.297 105.539 368.6C106.181 367.898 107.068 367.547 108.198 367.547C109.278 367.547 110.119 367.855 110.721 368.47C111.322 369.085 111.623 369.935 111.623 371.02V372.031H106.694C106.717 372.624 106.892 373.087 107.221 373.419C107.549 373.752 108.009 373.918 108.601 373.918C109.062 373.918 109.497 373.87 109.907 373.775C110.317 373.679 110.746 373.526 111.192 373.317V374.93C110.828 375.112 110.438 375.247 110.023 375.333C109.609 375.424 109.103 375.47 108.506 375.47Z" fill="#fff"/><rect width="244" height="99.333" transform="translate(1.5 391.333)" fill="#171C1E"/><rect x="109.5" y="427" width="20" height="20" fill="#fff"/><path fill-rule="evenodd" clip-rule="evenodd" d="M110.167 425H128.833C130.3 425 131.5 426.2 131.5 427.667V446.333C131.5 447.8 130.3 449 128.833 449H110.167C108.7 449 107.5 447.8 107.5 446.333V427.667C107.5 426.2 108.7 425 110.167 425ZM128.833 446.333V427.667H110.167V446.333H128.833Z" fill="#6A6E79"/><path d="M112.833 435.667H126.167V438.333H112.833V435.667Z" fill="#6A6E79"/><rect width="244" height="142.333" transform="translate(246.5 349.333)" fill="#6A6E79"/><rect width="244" height="40" transform="translate(246.5 350.333)" fill="#464B52"/><path d="M257.758 375.333V365.339H259.877V375.333H257.758ZM269.199 375.333H267.114V370.869C267.114 370.318 267.016 369.906 266.82 369.632C266.624 369.354 266.312 369.215 265.884 369.215C265.3 369.215 264.879 369.411 264.619 369.803C264.359 370.19 264.229 370.835 264.229 371.738V375.333H262.145V367.691H263.737L264.018 368.668H264.134C264.366 368.299 264.685 368.021 265.091 367.834C265.501 367.643 265.966 367.547 266.485 367.547C267.374 367.547 268.048 367.789 268.509 368.272C268.969 368.75 269.199 369.443 269.199 370.35V375.333ZM273.682 375.47C272.784 375.47 272.077 375.121 271.562 374.424C271.052 373.727 270.797 372.761 270.797 371.526C270.797 370.272 271.057 369.297 271.576 368.6C272.1 367.898 272.82 367.547 273.736 367.547C274.698 367.547 275.432 367.921 275.937 368.668H276.006C275.901 368.099 275.849 367.59 275.849 367.144V364.697H277.94V375.333H276.341L275.937 374.342H275.849C275.375 375.094 274.652 375.47 273.682 375.47ZM274.413 373.809C274.946 373.809 275.336 373.654 275.582 373.344C275.833 373.034 275.969 372.508 275.992 371.765V371.539C275.992 370.719 275.865 370.131 275.609 369.776C275.359 369.42 274.949 369.242 274.379 369.242C273.914 369.242 273.552 369.441 273.292 369.837C273.037 370.229 272.909 370.801 272.909 371.553C272.909 372.305 273.039 372.87 273.299 373.248C273.559 373.622 273.93 373.809 274.413 373.809ZM283.202 369.031C282.76 369.031 282.414 369.172 282.163 369.454C281.912 369.732 281.769 370.129 281.732 370.644H284.658C284.649 370.129 284.515 369.732 284.255 369.454C283.995 369.172 283.644 369.031 283.202 369.031ZM283.496 375.47C282.266 375.47 281.304 375.13 280.611 374.451C279.919 373.772 279.572 372.811 279.572 371.567C279.572 370.286 279.891 369.297 280.529 368.6C281.172 367.898 282.058 367.547 283.188 367.547C284.269 367.547 285.109 367.855 285.711 368.47C286.312 369.085 286.613 369.935 286.613 371.02V372.031H281.685C281.707 372.624 281.883 373.087 282.211 373.419C282.539 373.752 282.999 373.918 283.592 373.918C284.052 373.918 284.487 373.87 284.897 373.775C285.308 373.679 285.736 373.526 286.183 373.317V374.93C285.818 375.112 285.428 375.247 285.014 375.333C284.599 375.424 284.093 375.47 283.496 375.47ZM291.444 373.809C291.809 373.809 292.246 373.729 292.757 373.57V375.121C292.237 375.354 291.599 375.47 290.843 375.47C290.009 375.47 289.4 375.26 289.018 374.841C288.639 374.417 288.45 373.784 288.45 372.941V369.256H287.452V368.374L288.601 367.677L289.202 366.064H290.535V367.691H292.675V369.256H290.535V372.941C290.535 373.237 290.617 373.456 290.781 373.597C290.95 373.738 291.171 373.809 291.444 373.809ZM297.39 369.031C296.948 369.031 296.601 369.172 296.351 369.454C296.1 369.732 295.956 370.129 295.92 370.644H298.846C298.837 370.129 298.702 369.732 298.442 369.454C298.183 369.172 297.832 369.031 297.39 369.031ZM297.684 375.47C296.453 375.47 295.491 375.13 294.799 374.451C294.106 373.772 293.76 372.811 293.76 371.567C293.76 370.286 294.079 369.297 294.717 368.6C295.359 367.898 296.246 367.547 297.376 367.547C298.456 367.547 299.297 367.855 299.898 368.47C300.5 369.085 300.801 369.935 300.801 371.02V372.031H295.872C295.895 372.624 296.07 373.087 296.398 373.419C296.726 373.752 297.187 373.918 297.779 373.918C298.24 373.918 298.675 373.87 299.085 373.775C299.495 373.679 299.923 373.526 300.37 373.317V374.93C300.005 375.112 299.616 375.247 299.201 375.333C298.786 375.424 298.281 375.47 297.684 375.47ZM306.678 367.547C306.96 367.547 307.195 367.568 307.382 367.609L307.225 369.564C307.056 369.518 306.851 369.495 306.609 369.495C305.944 369.495 305.424 369.666 305.051 370.008C304.682 370.35 304.497 370.828 304.497 371.444V375.333H302.412V367.691H303.991L304.299 368.976H304.401C304.638 368.547 304.957 368.203 305.358 367.944C305.764 367.679 306.204 367.547 306.678 367.547ZM315.528 375.333H313.443V370.869C313.443 370.318 313.35 369.906 313.163 369.632C312.981 369.354 312.691 369.215 312.295 369.215C311.762 369.215 311.374 369.411 311.133 369.803C310.891 370.195 310.77 370.84 310.77 371.738V375.333H308.685V367.691H310.278L310.558 368.668H310.675C310.88 368.317 311.176 368.044 311.563 367.848C311.951 367.647 312.395 367.547 312.896 367.547C314.04 367.547 314.815 367.921 315.221 368.668H315.405C315.61 368.313 315.911 368.037 316.308 367.841C316.709 367.645 317.16 367.547 317.661 367.547C318.527 367.547 319.181 367.77 319.623 368.217C320.07 368.659 320.293 369.37 320.293 370.35V375.333H318.201V370.869C318.201 370.318 318.108 369.906 317.921 369.632C317.738 369.354 317.449 369.215 317.053 369.215C316.542 369.215 316.159 369.397 315.904 369.762C315.654 370.127 315.528 370.705 315.528 371.498V375.333ZM322.266 365.715C322.266 365.036 322.645 364.697 323.401 364.697C324.158 364.697 324.536 365.036 324.536 365.715C324.536 366.039 324.44 366.292 324.249 366.474C324.062 366.652 323.78 366.74 323.401 366.74C322.645 366.74 322.266 366.399 322.266 365.715ZM324.44 375.333H322.355V367.691H324.44V375.333ZM333.605 375.333H331.52V370.869C331.52 370.318 331.422 369.906 331.226 369.632C331.03 369.354 330.718 369.215 330.29 369.215C329.707 369.215 329.285 369.411 329.025 369.803C328.765 370.19 328.636 370.835 328.636 371.738V375.333H326.551V367.691H328.143L328.424 368.668H328.54C328.772 368.299 329.091 368.021 329.497 367.834C329.907 367.643 330.372 367.547 330.891 367.547C331.78 367.547 332.455 367.789 332.915 368.272C333.375 368.75 333.605 369.443 333.605 370.35V375.333ZM340.521 375.333L340.118 374.294H340.063C339.712 374.736 339.35 375.044 338.976 375.217C338.607 375.386 338.124 375.47 337.527 375.47C336.793 375.47 336.215 375.26 335.791 374.841C335.372 374.422 335.162 373.825 335.162 373.05C335.162 372.239 335.445 371.642 336.01 371.259C336.579 370.872 337.436 370.657 338.58 370.616L339.906 370.575V370.24C339.906 369.466 339.51 369.078 338.717 369.078C338.106 369.078 337.388 369.263 336.563 369.632L335.873 368.224C336.752 367.764 337.728 367.533 338.799 367.533C339.824 367.533 340.61 367.757 341.157 368.203C341.704 368.65 341.977 369.329 341.977 370.24V375.333H340.521ZM339.906 371.792L339.099 371.82C338.493 371.838 338.042 371.947 337.746 372.148C337.45 372.348 337.302 372.654 337.302 373.064C337.302 373.652 337.639 373.946 338.313 373.946C338.796 373.946 339.181 373.807 339.469 373.529C339.76 373.251 339.906 372.881 339.906 372.421V371.792ZM347.266 373.809C347.631 373.809 348.069 373.729 348.579 373.57V375.121C348.059 375.354 347.421 375.47 346.665 375.47C345.831 375.47 345.222 375.26 344.84 374.841C344.461 374.417 344.272 373.784 344.272 372.941V369.256H343.274V368.374L344.423 367.677L345.024 366.064H346.357V367.691H348.497V369.256H346.357V372.941C346.357 373.237 346.439 373.456 346.603 373.597C346.772 373.738 346.993 373.809 347.266 373.809ZM353.212 369.031C352.77 369.031 352.423 369.172 352.173 369.454C351.922 369.732 351.778 370.129 351.742 370.644H354.668C354.659 370.129 354.524 369.732 354.264 369.454C354.005 369.172 353.654 369.031 353.212 369.031ZM353.506 375.47C352.275 375.47 351.314 375.13 350.621 374.451C349.928 373.772 349.582 372.811 349.582 371.567C349.582 370.286 349.901 369.297 350.539 368.6C351.181 367.898 352.068 367.547 353.198 367.547C354.278 367.547 355.119 367.855 355.721 368.47C356.322 369.085 356.623 369.935 356.623 371.02V372.031H351.694C351.717 372.624 351.892 373.087 352.221 373.419C352.549 373.752 353.009 373.918 353.601 373.918C354.062 373.918 354.497 373.87 354.907 373.775C355.317 373.679 355.746 373.526 356.192 373.317V374.93C355.828 375.112 355.438 375.247 355.023 375.333C354.609 375.424 354.103 375.47 353.506 375.47ZM364.036 375.333H361.951V365.339H367.679V367.075H364.036V369.653H367.427V371.382H364.036V375.333ZM371.048 371.498C371.048 372.255 371.171 372.827 371.417 373.214C371.667 373.601 372.073 373.795 372.634 373.795C373.19 373.795 373.588 373.604 373.83 373.221C374.076 372.834 374.199 372.259 374.199 371.498C374.199 370.742 374.076 370.174 373.83 369.796C373.584 369.418 373.18 369.229 372.62 369.229C372.064 369.229 371.663 369.418 371.417 369.796C371.171 370.17 371.048 370.737 371.048 371.498ZM376.332 371.498C376.332 372.742 376.004 373.715 375.347 374.417C374.691 375.119 373.777 375.47 372.606 375.47C371.872 375.47 371.225 375.31 370.665 374.991C370.104 374.668 369.674 374.205 369.373 373.604C369.072 373.002 368.922 372.3 368.922 371.498C368.922 370.25 369.247 369.279 369.899 368.586C370.551 367.893 371.467 367.547 372.647 367.547C373.381 367.547 374.028 367.707 374.589 368.026C375.149 368.345 375.58 368.803 375.881 369.4C376.181 369.997 376.332 370.696 376.332 371.498ZM381.074 375.47C378.695 375.47 377.506 374.164 377.506 371.553C377.506 370.254 377.829 369.263 378.476 368.579C379.123 367.891 380.051 367.547 381.259 367.547C382.143 367.547 382.936 367.72 383.637 368.067L383.022 369.68C382.694 369.548 382.389 369.441 382.106 369.359C381.824 369.272 381.541 369.229 381.259 369.229C380.174 369.229 379.632 369.999 379.632 371.539C379.632 373.034 380.174 373.781 381.259 373.781C381.66 373.781 382.031 373.729 382.373 373.624C382.715 373.515 383.056 373.346 383.398 373.118V374.903C383.061 375.117 382.719 375.265 382.373 375.347C382.031 375.429 381.598 375.47 381.074 375.47ZM390.506 375.333L390.225 374.356H390.116C389.893 374.711 389.576 374.987 389.166 375.183C388.756 375.374 388.288 375.47 387.764 375.47C386.867 375.47 386.19 375.231 385.734 374.752C385.278 374.269 385.051 373.576 385.051 372.674V367.691H387.135V372.155C387.135 372.706 387.233 373.121 387.429 373.399C387.625 373.672 387.938 373.809 388.366 373.809C388.949 373.809 389.371 373.615 389.631 373.228C389.89 372.836 390.02 372.189 390.02 371.286V367.691H392.105V375.333H390.506ZM399.541 373.064C399.541 373.848 399.267 374.445 398.72 374.855C398.178 375.265 397.365 375.47 396.28 375.47C395.724 375.47 395.25 375.431 394.858 375.354C394.466 375.281 394.099 375.171 393.758 375.026V373.303C394.145 373.485 394.58 373.638 395.063 373.761C395.551 373.884 395.979 373.946 396.348 373.946C397.105 373.946 397.483 373.727 397.483 373.289C397.483 373.125 397.433 372.993 397.333 372.893C397.232 372.788 397.059 372.672 396.813 372.544C396.567 372.412 396.239 372.259 395.829 372.086C395.241 371.84 394.808 371.612 394.53 371.403C394.257 371.193 394.056 370.954 393.928 370.685C393.805 370.411 393.744 370.076 393.744 369.68C393.744 369.001 394.006 368.477 394.53 368.108C395.059 367.734 395.806 367.547 396.772 367.547C397.693 367.547 398.588 367.748 399.459 368.149L398.83 369.653C398.447 369.489 398.089 369.354 397.757 369.249C397.424 369.144 397.084 369.092 396.738 369.092C396.123 369.092 395.815 369.258 395.815 369.591C395.815 369.778 395.913 369.94 396.109 370.076C396.31 370.213 396.745 370.416 397.415 370.685C398.012 370.926 398.449 371.152 398.727 371.362C399.005 371.571 399.21 371.813 399.342 372.086C399.475 372.36 399.541 372.685 399.541 373.064Z" fill="#fff"/><rect width="244" height="99.333" transform="translate(246.5 391.333)" fill="#171C1E"/><g clip-path="url(#clip6_6847_90080)"><rect x="358" y="431" width="21" height="20" fill="#fff"/><path fill-rule="evenodd" clip-rule="evenodd" d="M359.167 429H377.833C379.3 429 380.5 430.2 380.5 431.667V450.333C380.5 451.8 379.3 453 377.833 453H359.167C357.7 453 356.5 451.8 356.5 450.333V431.667C356.5 430.2 357.7 429 359.167 429ZM377.833 450.333V431.667H359.167V450.333H377.833Z" fill="#6A6E79"/><path d="M361.833 439.667H375.167V442.333H361.833V439.667Z" fill="#6A6E79"/></g><path d="M379.5 424H357.5C354.186 424 351.5 426.686 351.5 430V452C351.5 455.314 354.186 458 357.5 458H379.5C382.814 458 385.5 455.314 385.5 452V430C385.5 426.686 382.814 424 379.5 424Z" stroke="#0084FF" stroke-width="4"/><rect width="244" height="142.333" transform="translate(491.5 349.333)" fill="#6A6E79"/><rect width="244" height="40" transform="translate(491.5 350.333)" fill="#464B52"/><path d="M502.758 375.333V365.339H504.877V375.333H502.758ZM514.199 375.333H512.114V370.869C512.114 370.318 512.016 369.906 511.82 369.632C511.624 369.354 511.312 369.215 510.884 369.215C510.3 369.215 509.879 369.411 509.619 369.803C509.359 370.19 509.229 370.835 509.229 371.738V375.333H507.145V367.691H508.737L509.018 368.668H509.134C509.366 368.299 509.685 368.021 510.091 367.834C510.501 367.643 510.966 367.547 511.485 367.547C512.374 367.547 513.048 367.789 513.509 368.272C513.969 368.75 514.199 369.443 514.199 370.35V375.333ZM518.682 375.47C517.784 375.47 517.077 375.121 516.562 374.424C516.052 373.727 515.797 372.761 515.797 371.526C515.797 370.272 516.057 369.297 516.576 368.6C517.1 367.898 517.82 367.547 518.736 367.547C519.698 367.547 520.432 367.921 520.937 368.668H521.006C520.901 368.099 520.849 367.59 520.849 367.144V364.697H522.94V375.333H521.341L520.937 374.342H520.849C520.375 375.094 519.652 375.47 518.682 375.47ZM519.413 373.809C519.946 373.809 520.336 373.654 520.582 373.344C520.833 373.034 520.969 372.508 520.992 371.765V371.539C520.992 370.719 520.865 370.131 520.609 369.776C520.359 369.42 519.949 369.242 519.379 369.242C518.914 369.242 518.552 369.441 518.292 369.837C518.037 370.229 517.909 370.801 517.909 371.553C517.909 372.305 518.039 372.87 518.299 373.248C518.559 373.622 518.93 373.809 519.413 373.809ZM528.202 369.031C527.76 369.031 527.414 369.172 527.163 369.454C526.912 369.732 526.769 370.129 526.732 370.644H529.658C529.649 370.129 529.515 369.732 529.255 369.454C528.995 369.172 528.644 369.031 528.202 369.031ZM528.496 375.47C527.266 375.47 526.304 375.13 525.611 374.451C524.919 373.772 524.572 372.811 524.572 371.567C524.572 370.286 524.891 369.297 525.529 368.6C526.172 367.898 527.058 367.547 528.188 367.547C529.269 367.547 530.109 367.855 530.711 368.47C531.312 369.085 531.613 369.935 531.613 371.02V372.031H526.685C526.707 372.624 526.883 373.087 527.211 373.419C527.539 373.752 527.999 373.918 528.592 373.918C529.052 373.918 529.487 373.87 529.897 373.775C530.308 373.679 530.736 373.526 531.183 373.317V374.93C530.818 375.112 530.428 375.247 530.014 375.333C529.599 375.424 529.093 375.47 528.496 375.47ZM536.444 373.809C536.809 373.809 537.246 373.729 537.757 373.57V375.121C537.237 375.354 536.599 375.47 535.843 375.47C535.009 375.47 534.4 375.26 534.018 374.841C533.639 374.417 533.45 373.784 533.45 372.941V369.256H532.452V368.374L533.601 367.677L534.202 366.064H535.535V367.691H537.675V369.256H535.535V372.941C535.535 373.237 535.617 373.456 535.781 373.597C535.95 373.738 536.171 373.809 536.444 373.809ZM542.39 369.031C541.948 369.031 541.601 369.172 541.351 369.454C541.1 369.732 540.956 370.129 540.92 370.644H543.846C543.837 370.129 543.702 369.732 543.442 369.454C543.183 369.172 542.832 369.031 542.39 369.031ZM542.684 375.47C541.453 375.47 540.491 375.13 539.799 374.451C539.106 373.772 538.76 372.811 538.76 371.567C538.76 370.286 539.079 369.297 539.717 368.6C540.359 367.898 541.246 367.547 542.376 367.547C543.456 367.547 544.297 367.855 544.898 368.47C545.5 369.085 545.801 369.935 545.801 371.02V372.031H540.872C540.895 372.624 541.07 373.087 541.398 373.419C541.726 373.752 542.187 373.918 542.779 373.918C543.24 373.918 543.675 373.87 544.085 373.775C544.495 373.679 544.923 373.526 545.37 373.317V374.93C545.005 375.112 544.616 375.247 544.201 375.333C543.786 375.424 543.281 375.47 542.684 375.47ZM551.678 367.547C551.96 367.547 552.195 367.568 552.382 367.609L552.225 369.564C552.056 369.518 551.851 369.495 551.609 369.495C550.944 369.495 550.424 369.666 550.051 370.008C549.682 370.35 549.497 370.828 549.497 371.444V375.333H547.412V367.691H548.991L549.299 368.976H549.401C549.638 368.547 549.957 368.203 550.358 367.944C550.764 367.679 551.204 367.547 551.678 367.547ZM560.528 375.333H558.443V370.869C558.443 370.318 558.35 369.906 558.163 369.632C557.981 369.354 557.691 369.215 557.295 369.215C556.762 369.215 556.374 369.411 556.133 369.803C555.891 370.195 555.77 370.84 555.77 371.738V375.333H553.685V367.691H555.278L555.558 368.668H555.675C555.88 368.317 556.176 368.044 556.563 367.848C556.951 367.647 557.395 367.547 557.896 367.547C559.04 367.547 559.815 367.921 560.221 368.668H560.405C560.61 368.313 560.911 368.037 561.308 367.841C561.709 367.645 562.16 367.547 562.661 367.547C563.527 367.547 564.181 367.77 564.623 368.217C565.07 368.659 565.293 369.37 565.293 370.35V375.333H563.201V370.869C563.201 370.318 563.108 369.906 562.921 369.632C562.738 369.354 562.449 369.215 562.053 369.215C561.542 369.215 561.159 369.397 560.904 369.762C560.654 370.127 560.528 370.705 560.528 371.498V375.333ZM567.266 365.715C567.266 365.036 567.645 364.697 568.401 364.697C569.158 364.697 569.536 365.036 569.536 365.715C569.536 366.039 569.44 366.292 569.249 366.474C569.062 366.652 568.78 366.74 568.401 366.74C567.645 366.74 567.266 366.399 567.266 365.715ZM569.44 375.333H567.355V367.691H569.44V375.333ZM578.605 375.333H576.52V370.869C576.52 370.318 576.422 369.906 576.226 369.632C576.03 369.354 575.718 369.215 575.29 369.215C574.707 369.215 574.285 369.411 574.025 369.803C573.765 370.19 573.636 370.835 573.636 371.738V375.333H571.551V367.691H573.143L573.424 368.668H573.54C573.772 368.299 574.091 368.021 574.497 367.834C574.907 367.643 575.372 367.547 575.891 367.547C576.78 367.547 577.455 367.789 577.915 368.272C578.375 368.75 578.605 369.443 578.605 370.35V375.333ZM585.521 375.333L585.118 374.294H585.063C584.712 374.736 584.35 375.044 583.976 375.217C583.607 375.386 583.124 375.47 582.527 375.47C581.793 375.47 581.215 375.26 580.791 374.841C580.372 374.422 580.162 373.825 580.162 373.05C580.162 372.239 580.445 371.642 581.01 371.259C581.579 370.872 582.436 370.657 583.58 370.616L584.906 370.575V370.24C584.906 369.466 584.51 369.078 583.717 369.078C583.106 369.078 582.388 369.263 581.563 369.632L580.873 368.224C581.752 367.764 582.728 367.533 583.799 367.533C584.824 367.533 585.61 367.757 586.157 368.203C586.704 368.65 586.977 369.329 586.977 370.24V375.333H585.521ZM584.906 371.792L584.099 371.82C583.493 371.838 583.042 371.947 582.746 372.148C582.45 372.348 582.302 372.654 582.302 373.064C582.302 373.652 582.639 373.946 583.313 373.946C583.796 373.946 584.181 373.807 584.469 373.529C584.76 373.251 584.906 372.881 584.906 372.421V371.792ZM592.266 373.809C592.631 373.809 593.069 373.729 593.579 373.57V375.121C593.059 375.354 592.421 375.47 591.665 375.47C590.831 375.47 590.222 375.26 589.84 374.841C589.461 374.417 589.272 373.784 589.272 372.941V369.256H588.274V368.374L589.423 367.677L590.024 366.064H591.357V367.691H593.497V369.256H591.357V372.941C591.357 373.237 591.439 373.456 591.603 373.597C591.772 373.738 591.993 373.809 592.266 373.809ZM598.212 369.031C597.77 369.031 597.423 369.172 597.173 369.454C596.922 369.732 596.778 370.129 596.742 370.644H599.668C599.659 370.129 599.524 369.732 599.264 369.454C599.005 369.172 598.654 369.031 598.212 369.031ZM598.506 375.47C597.275 375.47 596.314 375.13 595.621 374.451C594.928 373.772 594.582 372.811 594.582 371.567C594.582 370.286 594.901 369.297 595.539 368.6C596.181 367.898 597.068 367.547 598.198 367.547C599.278 367.547 600.119 367.855 600.721 368.47C601.322 369.085 601.623 369.935 601.623 371.02V372.031H596.694C596.717 372.624 596.892 373.087 597.221 373.419C597.549 373.752 598.009 373.918 598.601 373.918C599.062 373.918 599.497 373.87 599.907 373.775C600.317 373.679 600.746 373.526 601.192 373.317V374.93C600.828 375.112 600.438 375.247 600.023 375.333C599.609 375.424 599.103 375.47 598.506 375.47ZM609.207 375.47C608.309 375.47 607.603 375.121 607.088 374.424C606.577 373.727 606.322 372.761 606.322 371.526C606.322 370.272 606.582 369.297 607.101 368.6C607.625 367.898 608.345 367.547 609.261 367.547C610.223 367.547 610.957 367.921 611.463 368.668H611.531C611.426 368.099 611.374 367.59 611.374 367.144V364.697H613.466V375.333H611.866L611.463 374.342H611.374C610.9 375.094 610.178 375.47 609.207 375.47ZM609.938 373.809C610.471 373.809 610.861 373.654 611.107 373.344C611.358 373.034 611.495 372.508 611.517 371.765V371.539C611.517 370.719 611.39 370.131 611.135 369.776C610.884 369.42 610.474 369.242 609.904 369.242C609.439 369.242 609.077 369.441 608.817 369.837C608.562 370.229 608.434 370.801 608.434 371.553C608.434 372.305 608.564 372.87 608.824 373.248C609.084 373.622 609.455 373.809 609.938 373.809ZM615.473 365.715C615.473 365.036 615.852 364.697 616.608 364.697C617.365 364.697 617.743 365.036 617.743 365.715C617.743 366.039 617.647 366.292 617.456 366.474C617.269 366.652 616.986 366.74 616.608 366.74C615.852 366.74 615.473 366.399 615.473 365.715ZM617.647 375.333H615.562V367.691H617.647V375.333ZM625.09 373.064C625.09 373.848 624.816 374.445 624.269 374.855C623.727 375.265 622.913 375.47 621.829 375.47C621.273 375.47 620.799 375.431 620.407 375.354C620.015 375.281 619.648 375.171 619.306 375.026V373.303C619.694 373.485 620.129 373.638 620.612 373.761C621.1 373.884 621.528 373.946 621.897 373.946C622.654 373.946 623.032 373.727 623.032 373.289C623.032 373.125 622.982 372.993 622.882 372.893C622.781 372.788 622.608 372.672 622.362 372.544C622.116 372.412 621.788 372.259 621.378 372.086C620.79 371.84 620.357 371.612 620.079 371.403C619.805 371.193 619.605 370.954 619.477 370.685C619.354 370.411 619.293 370.076 619.293 369.68C619.293 369.001 619.555 368.477 620.079 368.108C620.607 367.734 621.355 367.547 622.321 367.547C623.242 367.547 624.137 367.748 625.008 368.149L624.379 369.653C623.996 369.489 623.638 369.354 623.305 369.249C622.973 369.144 622.633 369.092 622.287 369.092C621.672 369.092 621.364 369.258 621.364 369.591C621.364 369.778 621.462 369.94 621.658 370.076C621.858 370.213 622.294 370.416 622.964 370.685C623.561 370.926 623.998 371.152 624.276 371.362C624.554 371.571 624.759 371.813 624.891 372.086C625.024 372.36 625.09 372.685 625.09 373.064ZM631.486 375.333L631.083 374.294H631.028C630.677 374.736 630.315 375.044 629.941 375.217C629.572 375.386 629.089 375.47 628.492 375.47C627.758 375.47 627.179 375.26 626.756 374.841C626.336 374.422 626.127 373.825 626.127 373.05C626.127 372.239 626.409 371.642 626.974 371.259C627.544 370.872 628.401 370.657 629.545 370.616L630.871 370.575V370.24C630.871 369.466 630.474 369.078 629.681 369.078C629.071 369.078 628.353 369.263 627.528 369.632L626.838 368.224C627.717 367.764 628.692 367.533 629.763 367.533C630.789 367.533 631.575 367.757 632.122 368.203C632.669 368.65 632.942 369.329 632.942 370.24V375.333H631.486ZM630.871 371.792L630.064 371.82C629.458 371.838 629.007 371.947 628.711 372.148C628.414 372.348 628.266 372.654 628.266 373.064C628.266 373.652 628.604 373.946 629.278 373.946C629.761 373.946 630.146 373.807 630.433 373.529C630.725 373.251 630.871 372.881 630.871 372.421V371.792ZM639.263 367.547C640.166 367.547 640.872 367.9 641.383 368.607C641.893 369.309 642.148 370.272 642.148 371.498C642.148 372.761 641.884 373.738 641.355 374.431C640.831 375.124 640.116 375.47 639.209 375.47C638.311 375.47 637.607 375.144 637.096 374.492H636.953L636.604 375.333H635.011V364.697H637.096V367.171C637.096 367.486 637.069 367.989 637.014 368.682H637.096C637.584 367.925 638.306 367.547 639.263 367.547ZM638.593 369.215C638.079 369.215 637.703 369.375 637.466 369.694C637.229 370.008 637.106 370.53 637.096 371.259V371.485C637.096 372.305 637.217 372.893 637.459 373.248C637.705 373.604 638.092 373.781 638.621 373.781C639.049 373.781 639.389 373.586 639.639 373.194C639.895 372.797 640.022 372.223 640.022 371.471C640.022 370.719 639.895 370.156 639.639 369.782C639.384 369.404 639.036 369.215 638.593 369.215ZM645.872 375.333H643.787V364.697H645.872V375.333ZM651.147 369.031C650.705 369.031 650.359 369.172 650.108 369.454C649.857 369.732 649.714 370.129 649.677 370.644H652.603C652.594 370.129 652.46 369.732 652.2 369.454C651.94 369.172 651.589 369.031 651.147 369.031ZM651.441 375.47C650.211 375.47 649.249 375.13 648.556 374.451C647.864 373.772 647.517 372.811 647.517 371.567C647.517 370.286 647.836 369.297 648.474 368.6C649.117 367.898 650.003 367.547 651.133 367.547C652.214 367.547 653.054 367.855 653.656 368.47C654.258 369.085 654.558 369.935 654.558 371.02V372.031H649.63C649.652 372.624 649.828 373.087 650.156 373.419C650.484 373.752 650.944 373.918 651.537 373.918C651.997 373.918 652.432 373.87 652.842 373.775C653.253 373.679 653.681 373.526 654.128 373.317V374.93C653.763 375.112 653.373 375.247 652.959 375.333C652.544 375.424 652.038 375.47 651.441 375.47ZM658.59 375.47C657.692 375.47 656.985 375.121 656.47 374.424C655.96 373.727 655.705 372.761 655.705 371.526C655.705 370.272 655.965 369.297 656.484 368.6C657.008 367.898 657.728 367.547 658.644 367.547C659.606 367.547 660.34 367.921 660.845 368.668H660.914C660.809 368.099 660.757 367.59 660.757 367.144V364.697H662.848V375.333H661.249L660.845 374.342H660.757C660.283 375.094 659.56 375.47 658.59 375.47ZM659.321 373.809C659.854 373.809 660.244 373.654 660.49 373.344C660.741 373.034 660.877 372.508 660.9 371.765V371.539C660.9 370.719 660.772 370.131 660.517 369.776C660.267 369.42 659.856 369.242 659.287 369.242C658.822 369.242 658.46 369.441 658.2 369.837C657.945 370.229 657.817 370.801 657.817 371.553C657.817 372.305 657.947 372.87 658.207 373.248C658.466 373.622 658.838 373.809 659.321 373.809Z" fill="#fff"/><rect width="244" height="99.333" transform="translate(491.5 391.333)" fill="#171C1E"/><g opacity=".4"><rect x="599.5" y="427" width="20" height="20" fill="#fff"/><path fill-rule="evenodd" clip-rule="evenodd" d="M600.167 425H618.833C620.3 425 621.5 426.2 621.5 427.667V446.333C621.5 447.8 620.3 449 618.833 449H600.167C598.7 449 597.5 447.8 597.5 446.333V427.667C597.5 426.2 598.7 425 600.167 425ZM618.833 446.333V427.667H600.167V446.333H618.833Z" fill="#6A6E79"/><path d="M602.833 435.667H616.167V438.333H602.833V435.667Z" fill="#6A6E79"/></g><rect width="244" height="142.333" transform="translate(736.5 349.333)" fill="#6A6E79"/><rect width="244" height="40" transform="translate(736.5 350.333)" fill="#464B52"/><path d="M747.758 375.333V365.339H749.877V375.333H747.758ZM759.199 375.333H757.114V370.869C757.114 370.318 757.016 369.906 756.82 369.632C756.624 369.354 756.312 369.215 755.884 369.215C755.3 369.215 754.879 369.411 754.619 369.803C754.359 370.19 754.229 370.835 754.229 371.738V375.333H752.145V367.691H753.737L754.018 368.668H754.134C754.366 368.299 754.685 368.021 755.091 367.834C755.501 367.643 755.966 367.547 756.485 367.547C757.374 367.547 758.048 367.789 758.509 368.272C758.969 368.75 759.199 369.443 759.199 370.35V375.333ZM763.682 375.47C762.784 375.47 762.077 375.121 761.562 374.424C761.052 373.727 760.797 372.761 760.797 371.526C760.797 370.272 761.057 369.297 761.576 368.6C762.1 367.898 762.82 367.547 763.736 367.547C764.698 367.547 765.432 367.921 765.937 368.668H766.006C765.901 368.099 765.849 367.59 765.849 367.144V364.697H767.94V375.333H766.341L765.937 374.342H765.849C765.375 375.094 764.652 375.47 763.682 375.47ZM764.413 373.809C764.946 373.809 765.336 373.654 765.582 373.344C765.833 373.034 765.969 372.508 765.992 371.765V371.539C765.992 370.719 765.865 370.131 765.609 369.776C765.359 369.42 764.949 369.242 764.379 369.242C763.914 369.242 763.552 369.441 763.292 369.837C763.037 370.229 762.909 370.801 762.909 371.553C762.909 372.305 763.039 372.87 763.299 373.248C763.559 373.622 763.93 373.809 764.413 373.809ZM773.202 369.031C772.76 369.031 772.414 369.172 772.163 369.454C771.912 369.732 771.769 370.129 771.732 370.644H774.658C774.649 370.129 774.515 369.732 774.255 369.454C773.995 369.172 773.644 369.031 773.202 369.031ZM773.496 375.47C772.266 375.47 771.304 375.13 770.611 374.451C769.919 373.772 769.572 372.811 769.572 371.567C769.572 370.286 769.891 369.297 770.529 368.6C771.172 367.898 772.058 367.547 773.188 367.547C774.269 367.547 775.109 367.855 775.711 368.47C776.312 369.085 776.613 369.935 776.613 371.02V372.031H771.685C771.707 372.624 771.883 373.087 772.211 373.419C772.539 373.752 772.999 373.918 773.592 373.918C774.052 373.918 774.487 373.87 774.897 373.775C775.308 373.679 775.736 373.526 776.183 373.317V374.93C775.818 375.112 775.428 375.247 775.014 375.333C774.599 375.424 774.093 375.47 773.496 375.47ZM781.444 373.809C781.809 373.809 782.246 373.729 782.757 373.57V375.121C782.237 375.354 781.599 375.47 780.843 375.47C780.009 375.47 779.4 375.26 779.018 374.841C778.639 374.417 778.45 373.784 778.45 372.941V369.256H777.452V368.374L778.601 367.677L779.202 366.064H780.535V367.691H782.675V369.256H780.535V372.941C780.535 373.237 780.617 373.456 780.781 373.597C780.95 373.738 781.171 373.809 781.444 373.809ZM787.39 369.031C786.948 369.031 786.601 369.172 786.351 369.454C786.1 369.732 785.956 370.129 785.92 370.644H788.846C788.837 370.129 788.702 369.732 788.442 369.454C788.183 369.172 787.832 369.031 787.39 369.031ZM787.684 375.47C786.453 375.47 785.491 375.13 784.799 374.451C784.106 373.772 783.76 372.811 783.76 371.567C783.76 370.286 784.079 369.297 784.717 368.6C785.359 367.898 786.246 367.547 787.376 367.547C788.456 367.547 789.297 367.855 789.898 368.47C790.5 369.085 790.801 369.935 790.801 371.02V372.031H785.872C785.895 372.624 786.07 373.087 786.398 373.419C786.726 373.752 787.187 373.918 787.779 373.918C788.24 373.918 788.675 373.87 789.085 373.775C789.495 373.679 789.923 373.526 790.37 373.317V374.93C790.005 375.112 789.616 375.247 789.201 375.333C788.786 375.424 788.281 375.47 787.684 375.47ZM796.678 367.547C796.96 367.547 797.195 367.568 797.382 367.609L797.225 369.564C797.056 369.518 796.851 369.495 796.609 369.495C795.944 369.495 795.424 369.666 795.051 370.008C794.682 370.35 794.497 370.828 794.497 371.444V375.333H792.412V367.691H793.991L794.299 368.976H794.401C794.638 368.547 794.957 368.203 795.358 367.944C795.764 367.679 796.204 367.547 796.678 367.547ZM805.528 375.333H803.443V370.869C803.443 370.318 803.35 369.906 803.163 369.632C802.981 369.354 802.691 369.215 802.295 369.215C801.762 369.215 801.374 369.411 801.133 369.803C800.891 370.195 800.77 370.84 800.77 371.738V375.333H798.685V367.691H800.278L800.558 368.668H800.675C800.88 368.317 801.176 368.044 801.563 367.848C801.951 367.647 802.395 367.547 802.896 367.547C804.04 367.547 804.815 367.921 805.221 368.668H805.405C805.61 368.313 805.911 368.037 806.308 367.841C806.709 367.645 807.16 367.547 807.661 367.547C808.527 367.547 809.181 367.77 809.623 368.217C810.07 368.659 810.293 369.37 810.293 370.35V375.333H808.201V370.869C808.201 370.318 808.108 369.906 807.921 369.632C807.738 369.354 807.449 369.215 807.053 369.215C806.542 369.215 806.159 369.397 805.904 369.762C805.654 370.127 805.528 370.705 805.528 371.498V375.333ZM812.266 365.715C812.266 365.036 812.645 364.697 813.401 364.697C814.158 364.697 814.536 365.036 814.536 365.715C814.536 366.039 814.44 366.292 814.249 366.474C814.062 366.652 813.78 366.74 813.401 366.74C812.645 366.74 812.266 366.399 812.266 365.715ZM814.44 375.333H812.355V367.691H814.44V375.333ZM823.605 375.333H821.52V370.869C821.52 370.318 821.422 369.906 821.226 369.632C821.03 369.354 820.718 369.215 820.29 369.215C819.707 369.215 819.285 369.411 819.025 369.803C818.765 370.19 818.636 370.835 818.636 371.738V375.333H816.551V367.691H818.143L818.424 368.668H818.54C818.772 368.299 819.091 368.021 819.497 367.834C819.907 367.643 820.372 367.547 820.891 367.547C821.78 367.547 822.455 367.789 822.915 368.272C823.375 368.75 823.605 369.443 823.605 370.35V375.333ZM830.521 375.333L830.118 374.294H830.063C829.712 374.736 829.35 375.044 828.976 375.217C828.607 375.386 828.124 375.47 827.527 375.47C826.793 375.47 826.215 375.26 825.791 374.841C825.372 374.422 825.162 373.825 825.162 373.05C825.162 372.239 825.445 371.642 826.01 371.259C826.579 370.872 827.436 370.657 828.58 370.616L829.906 370.575V370.24C829.906 369.466 829.51 369.078 828.717 369.078C828.106 369.078 827.388 369.263 826.563 369.632L825.873 368.224C826.752 367.764 827.728 367.533 828.799 367.533C829.824 367.533 830.61 367.757 831.157 368.203C831.704 368.65 831.977 369.329 831.977 370.24V375.333H830.521ZM829.906 371.792L829.099 371.82C828.493 371.838 828.042 371.947 827.746 372.148C827.45 372.348 827.302 372.654 827.302 373.064C827.302 373.652 827.639 373.946 828.313 373.946C828.796 373.946 829.181 373.807 829.469 373.529C829.76 373.251 829.906 372.881 829.906 372.421V371.792ZM837.266 373.809C837.631 373.809 838.069 373.729 838.579 373.57V375.121C838.059 375.354 837.421 375.47 836.665 375.47C835.831 375.47 835.222 375.26 834.84 374.841C834.461 374.417 834.272 373.784 834.272 372.941V369.256H833.274V368.374L834.423 367.677L835.024 366.064H836.357V367.691H838.497V369.256H836.357V372.941C836.357 373.237 836.439 373.456 836.603 373.597C836.772 373.738 836.993 373.809 837.266 373.809ZM843.212 369.031C842.77 369.031 842.423 369.172 842.173 369.454C841.922 369.732 841.778 370.129 841.742 370.644H844.668C844.659 370.129 844.524 369.732 844.264 369.454C844.005 369.172 843.654 369.031 843.212 369.031ZM843.506 375.47C842.275 375.47 841.314 375.13 840.621 374.451C839.928 373.772 839.582 372.811 839.582 371.567C839.582 370.286 839.901 369.297 840.539 368.6C841.181 367.898 842.068 367.547 843.198 367.547C844.278 367.547 845.119 367.855 845.721 368.47C846.322 369.085 846.623 369.935 846.623 371.02V372.031H841.694C841.717 372.624 841.892 373.087 842.221 373.419C842.549 373.752 843.009 373.918 843.601 373.918C844.062 373.918 844.497 373.87 844.907 373.775C845.317 373.679 845.746 373.526 846.192 373.317V374.93C845.828 375.112 845.438 375.247 845.023 375.333C844.609 375.424 844.103 375.47 843.506 375.47ZM857.707 375.333H851.951V365.339H857.707V367.075H854.07V369.27H857.454V371.006H854.07V373.583H857.707V375.333ZM863.816 367.547C864.099 367.547 864.333 367.568 864.52 367.609L864.363 369.564C864.194 369.518 863.989 369.495 863.748 369.495C863.082 369.495 862.563 369.666 862.189 370.008C861.82 370.35 861.636 370.828 861.636 371.444V375.333H859.551V367.691H861.13L861.437 368.976H861.54C861.777 368.547 862.096 368.203 862.497 367.944C862.902 367.679 863.342 367.547 863.816 367.547ZM870.09 367.547C870.372 367.547 870.607 367.568 870.794 367.609L870.636 369.564C870.468 369.518 870.263 369.495 870.021 369.495C869.356 369.495 868.836 369.666 868.463 370.008C868.093 370.35 867.909 370.828 867.909 371.444V375.333H865.824V367.691H867.403L867.711 368.976H867.813C868.05 368.547 868.369 368.203 868.77 367.944C869.176 367.679 869.616 367.547 870.09 367.547ZM873.759 371.498C873.759 372.255 873.882 372.827 874.128 373.214C874.378 373.601 874.784 373.795 875.344 373.795C875.9 373.795 876.299 373.604 876.541 373.221C876.787 372.834 876.91 372.259 876.91 371.498C876.91 370.742 876.787 370.174 876.541 369.796C876.295 369.418 875.891 369.229 875.331 369.229C874.775 369.229 874.374 369.418 874.128 369.796C873.882 370.17 873.759 370.737 873.759 371.498ZM879.043 371.498C879.043 372.742 878.715 373.715 878.058 374.417C877.402 375.119 876.488 375.47 875.317 375.47C874.583 375.47 873.936 375.31 873.376 374.991C872.815 374.668 872.384 374.205 872.084 373.604C871.783 373.002 871.633 372.3 871.633 371.498C871.633 370.25 871.958 369.279 872.61 368.586C873.262 367.893 874.178 367.547 875.358 367.547C876.092 367.547 876.739 367.707 877.3 368.026C877.86 368.345 878.291 368.803 878.592 369.4C878.892 369.997 879.043 370.696 879.043 371.498ZM884.947 367.547C885.23 367.547 885.464 367.568 885.651 367.609L885.494 369.564C885.325 369.518 885.12 369.495 884.879 369.495C884.213 369.495 883.694 369.666 883.32 370.008C882.951 370.35 882.766 370.828 882.766 371.444V375.333H880.681V367.691H882.26L882.568 368.976H882.671C882.908 368.547 883.227 368.203 883.628 367.944C884.033 367.679 884.473 367.547 884.947 367.547Z" fill="#fff"/><rect width="244" height="99.333" transform="translate(736.5 391.333)" fill="#171C1E"/><g clip-path="url(#clip7_6847_90080)"><rect x="848" y="431" width="21" height="20" fill="#fff"/><path fill-rule="evenodd" clip-rule="evenodd" d="M849.167 429H867.833C869.3 429 870.5 430.2 870.5 431.667V450.333C870.5 451.8 869.3 453 867.833 453H849.167C847.7 453 846.5 451.8 846.5 450.333V431.667C846.5 430.2 847.7 429 849.167 429ZM867.833 450.333V431.667H849.167V450.333H867.833Z" fill="#6A6E79"/><path d="M851.833 439.667H865.167V442.333H851.833V439.667Z" fill="#6A6E79"/></g><path d="M869.5 424H847.5C844.186 424 841.5 426.686 841.5 430V452C841.5 455.314 844.186 458 847.5 458H869.5C872.814 458 875.5 455.314 875.5 452V430C875.5 426.686 872.814 424 869.5 424Z" stroke="#B44E2A" stroke-width="4"/><defs><clipPath id="clip0_6847_90080"><rect width="37" height="38" fill="#fff" transform="translate(105 73.3333)"/></clipPath><clipPath id="clip1_6847_90080"><rect width="32" height="32" fill="#fff" transform="translate(842.5 76.3333)"/></clipPath><clipPath id="clip2_6847_90080"><rect width="32" height="32" fill="#fff" transform="translate(107.5 250.667)"/></clipPath><clipPath id="clip3_6847_90080"><rect width="32" height="32" fill="#fff" transform="translate(352.5 250.667)"/></clipPath><clipPath id="clip4_6847_90080"><rect width="32" height="32" fill="#fff" transform="translate(597.5 250.667)"/></clipPath><clipPath id="clip5_6847_90080"><rect width="32" height="32" fill="#fff" transform="translate(842.5 250.667)"/></clipPath><clipPath id="clip6_6847_90080"><rect width="32" height="32" fill="#fff" transform="translate(352.5 425)"/></clipPath><clipPath id="clip7_6847_90080"><rect width="32" height="32" fill="#fff" transform="translate(842.5 425)"/></clipPath></defs></svg>