<svg width="982" height="492" fill="none" xmlns="http://www.w3.org/2000/svg"><path fill="#C4C4C4" d="M.5.667h981V143H.5z"/><path fill="#F1F1F6" d="M1.5 1.667h244v40H1.5z"/><path d="M18.876 26.667l-.725-2.38h-3.643l-.725 2.38H11.5l3.527-10.035h2.591l3.541 10.035h-2.283zm-1.23-4.157a2085.05 2085.05 0 01-1.135-3.657 11.559 11.559 0 01-.178-.67c-.15.584-.581 2.026-1.292 4.328h2.604zm7.633 4.293c-2.379 0-3.568-1.305-3.568-3.916 0-1.3.324-2.29.97-2.974.648-.688 1.575-1.032 2.783-1.032.884 0 1.677.173 2.379.52l-.616 1.612a9.764 9.764 0 00-.916-.32 2.882 2.882 0 00-.847-.13c-1.085 0-1.627.77-1.627 2.31 0 1.495.542 2.242 1.627 2.242.4 0 .772-.052 1.114-.157.342-.11.684-.278 1.026-.506v1.784a3.352 3.352 0 01-1.026.444c-.342.082-.775.123-1.299.123zm7.238-1.66c.364 0 .802-.08 1.312-.24v1.552c-.52.232-1.157.349-1.914.349-.834 0-1.442-.21-1.825-.63-.378-.423-.568-1.057-.568-1.9V20.59h-.998v-.882l1.149-.697.601-1.614h1.333v1.627h2.14v1.566h-2.14v3.684c0 .296.082.515.247.656.168.142.39.212.663.212zm2.691-8.094c0-.68.378-1.019 1.135-1.019.756 0 1.134.34 1.134 1.019 0 .323-.095.576-.287.758-.186.178-.469.267-.847.267-.757 0-1.135-.342-1.135-1.025zm2.174 9.618h-2.085v-7.643h2.085v7.643zm3.928 0l-2.912-7.643h2.181l1.477 4.355c.164.551.266 1.073.307 1.565h.041c.023-.437.126-.96.308-1.565l1.47-4.355h2.18l-2.912 7.643h-2.14zm9.234-6.303c-.442 0-.788.141-1.04.424-.25.278-.393.674-.43 1.19H52c-.01-.516-.144-.912-.403-1.19-.26-.283-.611-.424-1.053-.424zm.294 6.44c-1.23 0-2.192-.34-2.885-1.02-.693-.678-1.039-1.64-1.039-2.884 0-1.28.319-2.27.957-2.967.643-.701 1.529-1.052 2.66-1.052 1.08 0 1.92.307 2.522.922.601.616.902 1.466.902 2.55v1.012h-4.929c.023.592.198 1.055.527 1.388.328.332.788.499 1.38.499.46 0 .896-.048 1.306-.144a6.53 6.53 0 001.285-.458v1.613a4.786 4.786 0 01-1.169.404c-.414.09-.92.136-1.517.136z" fill="#464B52"/><path fill="#fff" d="M1.5 42.667h244V142H1.5z"/><g clip-path="url(#prefix__clip0_5179_85874)" fill-rule="evenodd" clip-rule="evenodd"><path d="M114.167 80.333h18.666c1.48 0 2.667 1.2 2.667 2.667v18.667a2.666 2.666 0 01-2.667 2.666h-18.666c-1.48 0-2.667-1.2-2.667-2.666V83a2.666 2.666 0 012.667-2.667zm0 12L120.833 99l12-12-1.88-1.893-10.12 10.12-4.786-4.774-1.88 1.88z" fill="#217CBB"/><path d="M114.167 92.333L120.833 99l12-12-1.88-1.893-10.12 10.12-4.786-4.774-1.88 1.88z" fill="#fff"/></g><path fill="#F1F1F6" d="M246.5 1.667h244v40h-244z"/><path d="M263.876 26.667l-.725-2.38h-3.643l-.725 2.38H256.5l3.527-10.035h2.591l3.541 10.035h-2.283zm-1.23-4.157c-.67-2.155-1.049-3.374-1.135-3.657a11.206 11.206 0 01-.178-.67c-.15.584-.581 2.026-1.292 4.328h2.605zm7.633 4.293c-2.379 0-3.568-1.305-3.568-3.916 0-1.3.323-2.29.971-2.974.647-.688 1.574-1.032 2.782-1.032.884 0 1.677.173 2.379.52l-.615 1.612a9.916 9.916 0 00-.916-.32 2.89 2.89 0 00-.848-.13c-1.085 0-1.627.77-1.627 2.31 0 1.495.542 2.242 1.627 2.242.401 0 .772-.052 1.114-.157a4.12 4.12 0 001.026-.506v1.784c-.338.214-.68.362-1.026.444-.342.082-.775.123-1.299.123zm7.238-1.66c.364 0 .802-.08 1.312-.24v1.552c-.519.232-1.157.349-1.914.349-.834 0-1.442-.21-1.825-.63-.378-.423-.568-1.057-.568-1.9V20.59h-.998v-.882l1.149-.697.601-1.614h1.333v1.627h2.14v1.566h-2.14v3.684c0 .296.082.515.246.656.169.142.39.212.664.212zm2.691-8.094c0-.68.378-1.019 1.135-1.019.756 0 1.134.34 1.134 1.019 0 .323-.095.576-.287.758-.186.178-.469.267-.847.267-.757 0-1.135-.342-1.135-1.025zm2.174 9.618h-2.085v-7.643h2.085v7.643zm3.928 0l-2.912-7.643h2.181l1.477 4.355a7.77 7.77 0 01.307 1.565h.041c.023-.437.126-.96.308-1.565l1.47-4.355h2.18l-2.912 7.643h-2.14zm9.234-6.303c-.442 0-.789.141-1.039.424-.251.278-.394.674-.431 1.19H297c-.009-.516-.144-.912-.403-1.19-.26-.283-.611-.424-1.053-.424zm.294 6.44c-1.231 0-2.192-.34-2.885-1.02-.693-.678-1.039-1.64-1.039-2.884 0-1.28.319-2.27.957-2.967.643-.701 1.529-1.052 2.659-1.052 1.08 0 1.921.307 2.523.922.601.616.902 1.466.902 2.55v1.012h-4.929c.023.592.199 1.055.527 1.388.328.332.788.499 1.381.499.46 0 .895-.048 1.305-.144.41-.096.839-.248 1.285-.458v1.613a4.775 4.775 0 01-1.169.404c-.414.09-.92.136-1.517.136zm10.53-.137h-2.085v-9.994h5.729v1.736h-3.644v2.577h3.391v1.73h-3.391v3.95zm7.012-3.835c0 .756.123 1.328.369 1.716.251.387.656.58 1.217.58.556 0 .954-.19 1.196-.574.246-.387.369-.961.369-1.722 0-.757-.123-1.324-.369-1.702-.246-.379-.649-.568-1.21-.568-.556 0-.957.19-1.203.568-.246.373-.369.94-.369 1.702zm5.284 0c0 1.244-.328 2.217-.984 2.919-.657.702-1.57 1.052-2.742 1.052-.733 0-1.381-.159-1.941-.478a3.227 3.227 0 01-1.292-1.388c-.301-.601-.451-1.303-.451-2.105 0-1.249.326-2.22.977-2.912.652-.693 1.568-1.04 2.748-1.04.734 0 1.381.16 1.942.48.56.318.991.776 1.292 1.373.301.597.451 1.297.451 2.099zm4.742 3.971c-2.379 0-3.568-1.305-3.568-3.916 0-1.3.323-2.29.97-2.974.648-.688 1.575-1.032 2.783-1.032.884 0 1.677.173 2.379.52l-.616 1.612a9.714 9.714 0 00-.916-.32 2.878 2.878 0 00-.847-.13c-1.085 0-1.627.77-1.627 2.31 0 1.495.542 2.242 1.627 2.242.401 0 .772-.052 1.114-.157.342-.11.684-.278 1.025-.506v1.784a3.352 3.352 0 01-1.025.444c-.342.082-.775.123-1.299.123zm9.432-.136l-.281-.978h-.109a2.22 2.22 0 01-.95.827c-.41.192-.877.288-1.401.288-.898 0-1.575-.24-2.031-.718-.455-.483-.683-1.176-.683-2.078v-4.984h2.085v4.464c0 .552.098.966.294 1.244.196.274.508.41.936.41.583 0 1.005-.193 1.265-.58.26-.393.389-1.04.389-1.942v-3.596h2.085v7.643h-1.599zm9.035-2.27c0 .784-.274 1.381-.82 1.791-.543.41-1.356.616-2.441.616-.556 0-1.03-.04-1.422-.117a5.216 5.216 0 01-1.1-.328v-1.723a7.28 7.28 0 001.305.459c.488.123.916.184 1.285.184.757 0 1.135-.219 1.135-.656a.537.537 0 00-.15-.397c-.1-.104-.274-.22-.52-.348a12.103 12.103 0 00-.984-.458c-.588-.246-1.021-.474-1.299-.684a1.974 1.974 0 01-.601-.718c-.123-.273-.185-.608-.185-1.005 0-.679.262-1.203.786-1.572.529-.373 1.276-.56 2.242-.56.921 0 1.816.2 2.687.601l-.629 1.504a11.643 11.643 0 00-1.073-.403 3.374 3.374 0 00-1.019-.157c-.615 0-.923.166-.923.499 0 .186.098.348.294.485.201.137.636.34 1.306.608.597.242 1.034.467 1.312.677.278.21.483.451.616.725.132.273.198.599.198.977z" fill="#464B52"/><path fill="#fff" d="M246.5 42.667h244V142h-244z"/><path d="M379.5 75.333h-22a6 6 0 00-6 6v22a6 6 0 006 6h22a6 6 0 006-6v-22a6 6 0 00-6-6z" stroke="#0084FF" stroke-width="4"/><path fill-rule="evenodd" clip-rule="evenodd" d="M359.167 80.333h18.666c1.48 0 2.667 1.2 2.667 2.667v18.667a2.666 2.666 0 01-2.667 2.666h-18.666c-1.48 0-2.667-1.2-2.667-2.666V83a2.666 2.666 0 012.667-2.667zm0 12L365.833 99l12-12-1.88-1.893-10.12 10.12-4.786-4.774-1.88 1.88z" fill="#217CBB"/><path fill-rule="evenodd" clip-rule="evenodd" d="M359.167 92.333L365.833 99l12-12-1.88-1.893-10.12 10.12-4.786-4.774-1.88 1.88z" fill="#fff"/><path fill="#F1F1F6" d="M491.5 1.667h244v40h-244z"/><path d="M508.876 26.667l-.725-2.38h-3.643l-.725 2.38H501.5l3.527-10.035h2.591l3.541 10.035h-2.283zm-1.23-4.157c-.67-2.155-1.049-3.374-1.135-3.657a11.206 11.206 0 01-.178-.67c-.15.584-.581 2.026-1.292 4.328h2.605zm7.633 4.293c-2.379 0-3.568-1.305-3.568-3.916 0-1.3.323-2.29.971-2.974.647-.688 1.574-1.032 2.782-1.032.884 0 1.677.173 2.379.52l-.615 1.612a9.916 9.916 0 00-.916-.32 2.89 2.89 0 00-.848-.13c-1.085 0-1.627.77-1.627 2.31 0 1.495.542 2.242 1.627 2.242.401 0 .772-.052 1.114-.157a4.12 4.12 0 001.026-.506v1.784c-.338.214-.68.362-1.026.444-.342.082-.775.123-1.299.123zm7.238-1.66c.364 0 .802-.08 1.312-.24v1.552c-.519.232-1.157.349-1.914.349-.834 0-1.442-.21-1.825-.63-.378-.423-.568-1.057-.568-1.9V20.59h-.998v-.882l1.149-.697.601-1.614h1.333v1.627h2.14v1.566h-2.14v3.684c0 .296.082.515.246.656.169.142.39.212.664.212zm2.691-8.094c0-.68.378-1.019 1.135-1.019.756 0 1.134.34 1.134 1.019 0 .323-.095.576-.287.758-.186.178-.469.267-.847.267-.757 0-1.135-.342-1.135-1.025zm2.174 9.618h-2.085v-7.643h2.085v7.643zm3.928 0l-2.912-7.643h2.181l1.477 4.355a7.77 7.77 0 01.307 1.565h.041c.023-.437.126-.96.308-1.565l1.47-4.355h2.18l-2.912 7.643h-2.14zm9.234-6.303c-.442 0-.789.141-1.039.424-.251.278-.394.674-.431 1.19H542c-.009-.516-.144-.912-.403-1.19-.26-.283-.611-.424-1.053-.424zm.294 6.44c-1.231 0-2.192-.34-2.885-1.02-.693-.678-1.039-1.64-1.039-2.884 0-1.28.319-2.27.957-2.967.643-.701 1.529-1.052 2.659-1.052 1.08 0 1.921.307 2.523.922.601.616.902 1.466.902 2.55v1.012h-4.929c.023.592.199 1.055.527 1.388.328.332.788.499 1.381.499.46 0 .895-.048 1.305-.144.41-.096.839-.248 1.285-.458v1.613a4.775 4.775 0 01-1.169.404c-.414.09-.92.136-1.517.136zm10.701 0c-.898 0-1.604-.35-2.119-1.046-.511-.698-.766-1.664-.766-2.899 0-1.253.26-2.228.779-2.926.525-.701 1.245-1.052 2.161-1.052.961 0 1.695.373 2.201 1.12h.068a8.505 8.505 0 01-.157-1.524V16.03h2.092v10.637h-1.6l-.403-.992h-.089c-.474.752-1.196 1.128-2.167 1.128zm.731-1.662c.534 0 .923-.155 1.169-.465.251-.31.388-.836.41-1.579v-.225c0-.82-.127-1.408-.382-1.764-.251-.355-.661-.533-1.231-.533-.465 0-.827.198-1.087.595-.255.392-.383.963-.383 1.716 0 .751.13 1.316.39 1.695.26.373.631.56 1.114.56zm5.536-8.093c0-.68.378-1.019 1.134-1.019.757 0 1.135.34 1.135 1.019 0 .323-.096.576-.287.758-.187.178-.469.267-.848.267-.756 0-1.134-.342-1.134-1.025zm2.173 9.618h-2.085v-7.643h2.085v7.643zm7.443-2.27c0 .784-.274 1.381-.821 1.791-.542.41-1.355.616-2.44.616-.556 0-1.03-.04-1.422-.117a5.216 5.216 0 01-1.1-.328v-1.723a7.28 7.28 0 001.305.459c.488.123.916.184 1.285.184.757 0 1.135-.219 1.135-.656a.537.537 0 00-.15-.397c-.101-.104-.274-.22-.52-.348a12.103 12.103 0 00-.984-.458c-.588-.246-1.021-.474-1.299-.684a1.987 1.987 0 01-.602-.718c-.123-.273-.184-.608-.184-1.005 0-.679.262-1.203.786-1.572.529-.373 1.276-.56 2.242-.56.921 0 1.816.2 2.687.601l-.629 1.504a11.643 11.643 0 00-1.073-.403 3.374 3.374 0 00-1.019-.157c-.615 0-.923.166-.923.499 0 .186.098.348.294.485.201.137.636.34 1.306.608.597.242 1.034.467 1.312.677.278.21.483.451.615.725.133.273.199.599.199.977zm6.396 2.27l-.403-1.04h-.055c-.351.443-.713.75-1.087.924-.369.168-.852.253-1.449.253-.734 0-1.312-.21-1.736-.63-.42-.419-.629-1.016-.629-1.79 0-.812.282-1.409.847-1.791.57-.388 1.427-.602 2.571-.643l1.326-.041v-.335c0-.775-.397-1.162-1.189-1.162-.611 0-1.329.184-2.154.554l-.69-1.409c.879-.46 1.855-.69 2.926-.69 1.025 0 1.811.223 2.358.67.547.447.82 1.126.82 2.037v5.093h-1.456zm-.615-3.541l-.807.027c-.606.018-1.057.128-1.353.328-.296.2-.445.506-.445.916 0 .588.338.882 1.012.882.483 0 .868-.139 1.155-.417.292-.278.438-.647.438-1.107v-.63zm8.393-4.245c.902 0 1.608.353 2.119 1.06.51.701.765 1.665.765 2.89 0 1.263-.264 2.24-.793 2.933-.524.693-1.239 1.04-2.146 1.04-.898 0-1.602-.326-2.112-.978h-.144l-.349.84h-1.592V16.03h2.085v2.475c0 .314-.028.818-.082 1.51h.082c.487-.756 1.209-1.134 2.167-1.134zm-.67 1.668c-.515 0-.891.16-1.128.478-.237.315-.36.836-.369 1.566v.225c0 .82.12 1.408.362 1.764.246.355.633.533 1.162.533.428 0 .768-.196 1.019-.588.255-.396.382-.97.382-1.723 0-.752-.127-1.314-.382-1.688-.256-.378-.604-.567-1.046-.567zm7.278 6.118h-2.085V16.03h2.085v10.637zm5.275-6.303c-.442 0-.788.141-1.039.424-.25.278-.394.674-.43 1.19h2.925c-.009-.516-.143-.912-.403-1.19-.26-.283-.611-.424-1.053-.424zm.294 6.44c-1.23 0-2.192-.34-2.885-1.02-.692-.678-1.039-1.64-1.039-2.884 0-1.28.319-2.27.957-2.967.643-.701 1.529-1.052 2.66-1.052 1.08 0 1.921.307 2.522.922.602.616.902 1.466.902 2.55v1.012h-4.928c.022.592.198 1.055.526 1.388.328.332.788.499 1.381.499.46 0 .895-.048 1.306-.144a6.54 6.54 0 001.285-.458v1.613a4.79 4.79 0 01-1.169.404c-.415.09-.921.136-1.518.136zm7.149 0c-.898 0-1.605-.35-2.119-1.046-.511-.698-.766-1.664-.766-2.899 0-1.253.26-2.228.779-2.926.524-.701 1.244-1.052 2.16-1.052.962 0 1.696.373 2.202 1.12h.068a8.505 8.505 0 01-.157-1.524V16.03h2.091v10.637h-1.599l-.403-.992h-.089c-.474.752-1.197 1.128-2.167 1.128zm.731-1.662c.533 0 .923-.155 1.169-.465.251-.31.387-.836.41-1.579v-.225c0-.82-.127-1.408-.383-1.764-.25-.355-.66-.533-1.23-.533-.465 0-.827.198-1.087.595-.255.392-.383.963-.383 1.716 0 .751.13 1.316.39 1.695.26.373.631.56 1.114.56z" fill="#464B52"/><path fill="#fff" d="M491.5 42.667h244V142h-244z"/><g opacity=".4"><path d="M624.5 75.333h-22a6 6 0 00-6 6v22a6 6 0 006 6h22a6 6 0 006-6v-22a6 6 0 00-6-6z" stroke="#0084FF" stroke-width="4"/><path fill-rule="evenodd" clip-rule="evenodd" d="M604.167 80.333h18.666c1.48 0 2.667 1.2 2.667 2.667v18.667a2.666 2.666 0 01-2.667 2.666h-18.666c-1.48 0-2.667-1.2-2.667-2.666V83a2.666 2.666 0 012.667-2.667zm0 12L610.833 99l12-12-1.88-1.893-10.12 10.12-4.786-4.774-1.88 1.88z" fill="#217CBB"/><path fill-rule="evenodd" clip-rule="evenodd" d="M604.167 92.333L610.833 99l12-12-1.88-1.893-10.12 10.12-4.786-4.774-1.88 1.88z" fill="#fff"/></g><path fill="#F1F1F6" d="M736.5 1.667h244v40h-244z"/><path d="M753.876 26.667l-.725-2.38h-3.643l-.725 2.38H746.5l3.527-10.035h2.591l3.541 10.035h-2.283zm-1.23-4.157c-.67-2.155-1.049-3.374-1.135-3.657a11.206 11.206 0 01-.178-.67c-.15.584-.581 2.026-1.292 4.328h2.605zm7.633 4.293c-2.379 0-3.568-1.305-3.568-3.916 0-1.3.323-2.29.971-2.974.647-.688 1.574-1.032 2.782-1.032.884 0 1.677.173 2.379.52l-.615 1.612a9.916 9.916 0 00-.916-.32 2.89 2.89 0 00-.848-.13c-1.085 0-1.627.77-1.627 2.31 0 1.495.542 2.242 1.627 2.242.401 0 .772-.052 1.114-.157a4.12 4.12 0 001.026-.506v1.784c-.338.214-.68.362-1.026.444-.342.082-.775.123-1.299.123zm7.238-1.66c.364 0 .802-.08 1.312-.24v1.552c-.519.232-1.157.349-1.914.349-.834 0-1.442-.21-1.825-.63-.378-.423-.568-1.057-.568-1.9V20.59h-.998v-.882l1.149-.697.601-1.614h1.333v1.627h2.14v1.566h-2.14v3.684c0 .296.082.515.246.656.169.142.39.212.664.212zm2.691-8.094c0-.68.378-1.019 1.135-1.019.756 0 1.134.34 1.134 1.019 0 .323-.095.576-.287.758-.186.178-.469.267-.847.267-.757 0-1.135-.342-1.135-1.025zm2.174 9.618h-2.085v-7.643h2.085v7.643zm3.928 0l-2.912-7.643h2.181l1.477 4.355a7.77 7.77 0 01.307 1.565h.041c.023-.437.126-.96.308-1.565l1.47-4.355h2.18l-2.912 7.643h-2.14zm9.234-6.303c-.442 0-.789.141-1.039.424-.251.278-.394.674-.431 1.19H787c-.009-.516-.144-.912-.403-1.19-.26-.283-.611-.424-1.053-.424zm.294 6.44c-1.231 0-2.192-.34-2.885-1.02-.693-.678-1.039-1.64-1.039-2.884 0-1.28.319-2.27.957-2.967.643-.701 1.529-1.052 2.659-1.052 1.08 0 1.921.307 2.523.922.601.616.902 1.466.902 2.55v1.012h-4.929c.023.592.199 1.055.527 1.388.328.332.788.499 1.381.499.46 0 .895-.048 1.305-.144.41-.096.839-.248 1.285-.458v1.613a4.775 4.775 0 01-1.169.404c-.414.09-.92.136-1.517.136zm14.201-.137h-5.756v-9.994h5.756v1.736h-3.637v2.194h3.384v1.737h-3.384v2.577h3.637v1.75zm6.109-7.786c.283 0 .518.02.704.061l-.157 1.955a2.385 2.385 0 00-.615-.068c-.665 0-1.185.17-1.559.513-.369.341-.553.82-.553 1.435v3.89h-2.085v-7.643h1.579l.307 1.285h.103c.237-.428.556-.772.957-1.032a2.37 2.37 0 011.319-.396zm6.274 0c.282 0 .517.02.704.061l-.157 1.955a2.393 2.393 0 00-.616-.068c-.665 0-1.185.17-1.558.513-.369.341-.554.82-.554 1.435v3.89h-2.085v-7.643h1.579l.308 1.285h.102c.237-.428.556-.772.957-1.032a2.373 2.373 0 011.32-.396zm3.669 3.95c0 .757.123 1.33.369 1.717.25.387.656.58 1.217.58.556 0 .954-.19 1.196-.574.246-.387.369-.961.369-1.722 0-.757-.123-1.324-.369-1.702-.246-.379-.65-.568-1.21-.568-.556 0-.957.19-1.203.568-.246.373-.369.94-.369 1.702zm5.284 0c0 1.245-.328 2.218-.985 2.92-.656.702-1.57 1.052-2.741 1.052-.733 0-1.381-.159-1.941-.478a3.227 3.227 0 01-1.292-1.388c-.301-.601-.451-1.303-.451-2.105 0-1.249.326-2.22.977-2.912.652-.693 1.568-1.04 2.748-1.04.734 0 1.381.16 1.942.48.56.318.991.776 1.292 1.373.3.597.451 1.297.451 2.099zm5.904-3.95c.283 0 .517.02.704.061l-.157 1.955a2.39 2.39 0 00-.615-.068c-.666 0-1.185.17-1.559.513-.369.341-.554.82-.554 1.435v3.89h-2.085v-7.643h1.58l.307 1.285h.103c.237-.428.556-.772.957-1.032a2.368 2.368 0 011.319-.396z" fill="#464B52"/><path fill="#fff" d="M736.5 42.667h244V142h-244z"/><g clip-path="url(#prefix__clip1_5179_85874)"><path fill-rule="evenodd" clip-rule="evenodd" d="M849.167 80.333h18.666c1.48 0 2.667 1.2 2.667 2.667v18.667a2.666 2.666 0 01-2.667 2.666h-18.666c-1.48 0-2.667-1.2-2.667-2.666V83a2.666 2.666 0 012.667-2.667zm0 12L855.833 99l12-12-1.88-1.893-10.12 10.12-4.786-4.774-1.88 1.88z" fill="#217CBB"/></g><path d="M869.5 75.333h-22a6 6 0 00-6 6v22a6 6 0 006 6h22a6 6 0 006-6v-22a6 6 0 00-6-6z" stroke="#B44E2A" stroke-width="4"/><path fill="#C4C4C4" d="M.5 175h981v142.333H.5z"/><path fill="#F1F1F6" d="M1.5 176h244v40H1.5z"/><path d="M21.05 195.907c0 1.645-.47 2.905-1.408 3.781-.935.874-2.286 1.312-4.054 1.312h-2.83v-9.994h3.138c1.631 0 2.898.431 3.8 1.292.903.861 1.354 2.064 1.354 3.609zm-2.201.055c0-2.147-.948-3.22-2.844-3.22h-1.128v6.508h.91c2.04 0 3.062-1.096 3.062-3.288zm7.19-1.265c-.443 0-.79.142-1.04.424-.25.278-.394.675-.43 1.19h2.925c-.009-.515-.143-.912-.403-1.19-.26-.282-.61-.424-1.053-.424zm.293 6.44c-1.23 0-2.192-.34-2.885-1.019-.692-.679-1.039-1.64-1.039-2.885 0-1.28.32-2.269.957-2.966.643-.702 1.53-1.053 2.66-1.053 1.08 0 1.92.307 2.522.923.601.615.902 1.465.902 2.55v1.011H24.52c.023.593.199 1.055.527 1.388.328.333.788.499 1.38.499.461 0 .896-.048 1.306-.144.41-.095.839-.248 1.285-.458v1.614a4.819 4.819 0 01-1.168.403c-.415.091-.921.137-1.518.137zm8.953-6.214H33.48V201h-2.084v-6.077h-1.149v-1.005l1.148-.561v-.56c0-.871.215-1.506.643-1.907.428-.401 1.114-.602 2.058-.602.72 0 1.36.107 1.92.321l-.533 1.532a3.863 3.863 0 00-1.162-.199c-.296 0-.51.089-.642.267-.133.173-.199.396-.199.67v.478h1.805v1.566zM41.258 201l-.404-1.039H40.8c-.351.442-.713.75-1.087.923-.37.168-.852.253-1.45.253-.733 0-1.312-.21-1.736-.629-.419-.419-.629-1.016-.629-1.791 0-.811.283-1.408.848-1.791.57-.388 1.426-.602 2.57-.643l1.326-.041v-.335c0-.775-.396-1.162-1.189-1.162-.61 0-1.328.185-2.153.554l-.69-1.408c.879-.461 1.854-.691 2.925-.691 1.026 0 1.812.224 2.359.67.546.447.82 1.126.82 2.037V201h-1.456zm-.616-3.541l-.806.027c-.606.019-1.057.128-1.354.328-.296.201-.444.506-.444.916 0 .588.337.882 1.012.882.483 0 .868-.139 1.155-.417.292-.278.438-.647.438-1.107v-.629zM50.197 201l-.28-.978h-.11c-.223.356-.54.632-.95.828-.41.191-.877.287-1.401.287-.898 0-1.575-.24-2.03-.718-.456-.483-.684-1.176-.684-2.078v-4.984h2.085v4.464c0 .552.098.966.294 1.244.196.274.508.411.937.411.583 0 1.004-.194 1.264-.581.26-.392.39-1.04.39-1.942v-3.596h2.085V201h-1.6zm5.788 0H53.9v-10.637h2.085V201zm5.33-1.524c.365 0 .802-.08 1.313-.24v1.552c-.52.233-1.158.349-1.914.349-.834 0-1.443-.21-1.825-.629-.379-.424-.568-1.057-.568-1.901v-3.684h-.998v-.882l1.149-.697.601-1.614h1.333v1.627h2.14v1.566h-2.14v3.684c0 .297.082.515.246.657.169.141.39.212.663.212z" fill="#464B52"/><path fill="#fff" d="M1.5 217h244v99.333H1.5z"/><g clip-path="url(#prefix__clip2_5179_85874)"><path fill="#fff" d="M113.5 256.667h20v20h-20z"/><path fill-rule="evenodd" clip-rule="evenodd" d="M114.167 254.667h18.666c1.467 0 2.667 1.2 2.667 2.666V276c0 1.467-1.2 2.667-2.667 2.667h-18.666A2.675 2.675 0 01111.5 276v-18.667c0-1.466 1.2-2.666 2.667-2.666zM132.833 276v-18.667h-18.666V276h18.666z" fill="#90939F"/></g><path fill="#F1F1F6" d="M246.5 176h244v40h-244z"/><path d="M266.05 195.907c0 1.645-.47 2.905-1.408 3.781-.935.874-2.286 1.312-4.054 1.312h-2.83v-9.994h3.138c1.631 0 2.898.431 3.8 1.292.903.861 1.354 2.064 1.354 3.609zm-2.201.055c0-2.147-.948-3.22-2.844-3.22h-1.128v6.508h.909c2.042 0 3.063-1.096 3.063-3.288zm7.189-1.265c-.442 0-.788.142-1.039.424-.251.278-.394.675-.431 1.19h2.926c-.009-.515-.143-.912-.403-1.19-.26-.282-.611-.424-1.053-.424zm.294 6.44c-1.23 0-2.192-.34-2.885-1.019-.692-.679-1.039-1.64-1.039-2.885 0-1.28.319-2.269.957-2.966.643-.702 1.529-1.053 2.659-1.053 1.08 0 1.921.307 2.523.923.601.615.902 1.465.902 2.55v1.011h-4.929c.023.593.199 1.055.527 1.388.328.333.788.499 1.381.499.46 0 .895-.048 1.305-.144a6.461 6.461 0 001.286-.458v1.614a4.837 4.837 0 01-1.169.403c-.415.091-.921.137-1.518.137zm8.953-6.214h-1.805V201h-2.085v-6.077h-1.148v-1.005l1.148-.561v-.56c0-.871.215-1.506.643-1.907.428-.401 1.114-.602 2.058-.602.72 0 1.36.107 1.921.321l-.534 1.532a3.858 3.858 0 00-1.162-.199c-.296 0-.51.089-.642.267-.132.173-.199.396-.199.67v.478h1.805v1.566zm5.973 6.077l-.404-1.039h-.054c-.351.442-.713.75-1.087.923-.369.168-.852.253-1.449.253-.734 0-1.313-.21-1.737-.629-.419-.419-.629-1.016-.629-1.791 0-.811.283-1.408.848-1.791.57-.388 1.426-.602 2.57-.643l1.327-.041v-.335c0-.775-.397-1.162-1.19-1.162-.611 0-1.328.185-2.153.554l-.691-1.408c.88-.461 1.855-.691 2.926-.691 1.025 0 1.812.224 2.359.67.546.447.82 1.126.82 2.037V201h-1.456zm-.615-3.541l-.807.027c-.606.019-1.057.128-1.354.328-.296.201-.444.506-.444.916 0 .588.337.882 1.012.882.483 0 .868-.139 1.155-.417.292-.278.438-.647.438-1.107v-.629zm9.554 3.541l-.28-.978h-.109c-.224.356-.54.632-.951.828-.41.191-.877.287-1.401.287-.898 0-1.575-.24-2.03-.718-.456-.483-.684-1.176-.684-2.078v-4.984h2.085v4.464c0 .552.098.966.294 1.244.196.274.508.411.937.411.583 0 1.004-.194 1.264-.581.26-.392.39-1.04.39-1.942v-3.596h2.085V201h-1.6zm5.788 0H298.9v-10.637h2.085V201zm5.33-1.524c.365 0 .802-.08 1.313-.24v1.552c-.52.233-1.158.349-1.914.349-.834 0-1.443-.21-1.825-.629-.379-.424-.568-1.057-.568-1.901v-3.684h-.998v-.882l1.149-.697.601-1.614h1.333v1.627h2.14v1.566h-2.14v3.684c0 .297.082.515.246.657.169.141.39.212.663.212zm8.582 1.524h-2.085v-9.994h5.729v1.736h-3.644v2.577h3.391v1.73h-3.391V201zm7.012-3.835c0 .757.123 1.328.369 1.716.251.387.656.581 1.217.581.556 0 .955-.191 1.196-.574.246-.388.369-.962.369-1.723 0-.756-.123-1.324-.369-1.702-.246-.378-.649-.567-1.21-.567-.556 0-.957.189-1.203.567-.246.374-.369.941-.369 1.702zm5.284 0c0 1.244-.328 2.217-.984 2.919-.656.702-1.57 1.053-2.741 1.053-.734 0-1.381-.16-1.942-.479a3.23 3.23 0 01-1.292-1.387c-.301-.602-.451-1.304-.451-2.106 0-1.249.326-2.219.978-2.912.651-.693 1.567-1.039 2.748-1.039.733 0 1.381.159 1.941.478.561.319.991.777 1.292 1.374.301.597.451 1.297.451 2.099zm4.742 3.972c-2.379 0-3.568-1.306-3.568-3.917 0-1.299.324-2.29.971-2.974.647-.688 1.574-1.032 2.782-1.032.884 0 1.677.173 2.379.519l-.615 1.614a9.831 9.831 0 00-.916-.322 2.9 2.9 0 00-.848-.129c-1.085 0-1.627.77-1.627 2.31 0 1.495.542 2.242 1.627 2.242.401 0 .772-.052 1.114-.157a4.103 4.103 0 001.026-.506v1.784a3.34 3.34 0 01-1.026.445c-.342.082-.775.123-1.299.123zm9.432-.137l-.28-.978h-.11c-.223.356-.54.632-.95.828-.41.191-.877.287-1.401.287-.898 0-1.575-.24-2.03-.718-.456-.483-.684-1.176-.684-2.078v-4.984h2.085v4.464c0 .552.098.966.294 1.244.196.274.508.411.936.411.584 0 1.005-.194 1.265-.581.26-.392.39-1.04.39-1.942v-3.596h2.085V201h-1.6zm9.035-2.27c0 .784-.273 1.381-.82 1.791-.542.411-1.356.616-2.441.616a7.48 7.48 0 01-1.421-.116 5.238 5.238 0 01-1.101-.329v-1.722c.387.182.823.335 1.306.458.487.123.916.184 1.285.184.756 0 1.135-.218 1.135-.656a.536.536 0 00-.151-.396c-.1-.105-.273-.221-.519-.349a12.148 12.148 0 00-.985-.458c-.588-.246-1.021-.474-1.299-.684a1.973 1.973 0 01-.601-.717c-.123-.274-.185-.609-.185-1.005 0-.679.262-1.203.786-1.573.529-.373 1.276-.56 2.243-.56.92 0 1.816.2 2.686.601l-.629 1.504c-.383-.164-.74-.298-1.073-.403a3.366 3.366 0 00-1.019-.157c-.615 0-.922.166-.922.499 0 .187.098.348.294.485.2.137.635.34 1.305.609.597.241 1.035.467 1.313.676.278.21.483.451.615.725.132.273.198.599.198.977z" fill="#464B52"/><path fill="#fff" d="M246.5 217h244v99.333h-244z"/><g clip-path="url(#prefix__clip3_5179_85874)"><path fill="#fff" d="M358.5 256.667h20v20h-20z"/><path fill-rule="evenodd" clip-rule="evenodd" d="M359.167 254.667h18.666c1.467 0 2.667 1.2 2.667 2.666V276c0 1.467-1.2 2.667-2.667 2.667h-18.666A2.675 2.675 0 01356.5 276v-18.667c0-1.466 1.2-2.666 2.667-2.666zM377.833 276v-18.667h-18.666V276h18.666z" fill="#90939F"/></g><path d="M379.5 249.667h-22a6 6 0 00-6 6v22a6 6 0 006 6h22a6 6 0 006-6v-22a6 6 0 00-6-6z" stroke="#0084FF" stroke-width="4"/><path fill="#F1F1F6" d="M491.5 176h244v40h-244z"/><path d="M511.05 195.907c0 1.645-.47 2.905-1.408 3.781-.935.874-2.286 1.312-4.054 1.312h-2.83v-9.994h3.138c1.631 0 2.898.431 3.8 1.292.903.861 1.354 2.064 1.354 3.609zm-2.201.055c0-2.147-.948-3.22-2.844-3.22h-1.128v6.508h.909c2.042 0 3.063-1.096 3.063-3.288zm7.189-1.265c-.442 0-.788.142-1.039.424-.251.278-.394.675-.431 1.19h2.926c-.009-.515-.143-.912-.403-1.19-.26-.282-.611-.424-1.053-.424zm.294 6.44c-1.23 0-2.192-.34-2.885-1.019-.692-.679-1.039-1.64-1.039-2.885 0-1.28.319-2.269.957-2.966.643-.702 1.529-1.053 2.659-1.053 1.08 0 1.921.307 2.523.923.601.615.902 1.465.902 2.55v1.011h-4.929c.023.593.199 1.055.527 1.388.328.333.788.499 1.381.499.46 0 .895-.048 1.305-.144a6.461 6.461 0 001.286-.458v1.614a4.837 4.837 0 01-1.169.403c-.415.091-.921.137-1.518.137zm8.953-6.214h-1.805V201h-2.085v-6.077h-1.148v-1.005l1.148-.561v-.56c0-.871.215-1.506.643-1.907.428-.401 1.114-.602 2.058-.602.72 0 1.36.107 1.921.321l-.534 1.532a3.858 3.858 0 00-1.162-.199c-.296 0-.51.089-.642.267-.132.173-.199.396-.199.67v.478h1.805v1.566zm5.973 6.077l-.404-1.039h-.054c-.351.442-.713.75-1.087.923-.369.168-.852.253-1.449.253-.734 0-1.313-.21-1.737-.629-.419-.419-.629-1.016-.629-1.791 0-.811.283-1.408.848-1.791.57-.388 1.426-.602 2.57-.643l1.327-.041v-.335c0-.775-.397-1.162-1.19-1.162-.611 0-1.328.185-2.153.554l-.691-1.408c.88-.461 1.855-.691 2.926-.691 1.025 0 1.812.224 2.359.67.546.447.82 1.126.82 2.037V201h-1.456zm-.615-3.541l-.807.027c-.606.019-1.057.128-1.354.328-.296.201-.444.506-.444.916 0 .588.337.882 1.012.882.483 0 .868-.139 1.155-.417.292-.278.438-.647.438-1.107v-.629zm9.554 3.541l-.28-.978h-.109c-.224.356-.54.632-.951.828-.41.191-.877.287-1.401.287-.898 0-1.575-.24-2.03-.718-.456-.483-.684-1.176-.684-2.078v-4.984h2.085v4.464c0 .552.098.966.294 1.244.196.274.508.411.937.411.583 0 1.004-.194 1.264-.581.26-.392.39-1.04.39-1.942v-3.596h2.085V201h-1.6zm5.788 0H543.9v-10.637h2.085V201zm5.33-1.524c.365 0 .802-.08 1.313-.24v1.552c-.52.233-1.158.349-1.914.349-.834 0-1.443-.21-1.825-.629-.379-.424-.568-1.057-.568-1.901v-3.684h-.998v-.882l1.149-.697.601-1.614h1.333v1.627h2.14v1.566h-2.14v3.684c0 .297.082.515.246.657.169.141.39.212.663.212zm8.753 1.661c-.898 0-1.604-.349-2.119-1.046-.51-.697-.766-1.664-.766-2.899 0-1.253.26-2.228.78-2.925.524-.702 1.244-1.053 2.16-1.053.962 0 1.695.374 2.201 1.121h.068a8.602 8.602 0 01-.157-1.524v-2.448h2.092V201h-1.6l-.403-.991h-.089c-.474.752-1.196 1.128-2.167 1.128zm.732-1.661c.533 0 .923-.155 1.169-.465.25-.31.387-.837.41-1.579v-.226c0-.82-.128-1.408-.383-1.764-.251-.355-.661-.533-1.231-.533-.464 0-.827.198-1.086.595-.256.392-.383.964-.383 1.716s.13 1.317.389 1.695c.26.374.632.561 1.115.561zm5.535-8.094c0-.679.378-1.019 1.135-1.019.756 0 1.134.34 1.134 1.019 0 .323-.095.576-.287.759-.187.177-.469.266-.847.266-.757 0-1.135-.342-1.135-1.025zm2.174 9.618h-2.085v-7.643h2.085V201zm7.442-2.27c0 .784-.273 1.381-.82 1.791-.543.411-1.356.616-2.441.616-.556 0-1.03-.039-1.422-.116a5.229 5.229 0 01-1.1-.329v-1.722c.387.182.822.335 1.305.458.488.123.916.184 1.286.184.756 0 1.134-.218 1.134-.656a.535.535 0 00-.15-.396c-.1-.105-.273-.221-.52-.349a12.103 12.103 0 00-.984-.458c-.588-.246-1.021-.474-1.299-.684a1.973 1.973 0 01-.601-.717c-.123-.274-.185-.609-.185-1.005 0-.679.262-1.203.786-1.573.529-.373 1.276-.56 2.242-.56.921 0 1.817.2 2.687.601l-.629 1.504c-.383-.164-.74-.298-1.073-.403a3.366 3.366 0 00-1.019-.157c-.615 0-.923.166-.923.499 0 .187.098.348.294.485.201.137.636.34 1.306.609.597.241 1.035.467 1.313.676.278.21.483.451.615.725.132.273.198.599.198.977zm6.396 2.27l-.403-1.039h-.055c-.35.442-.713.75-1.086.923-.37.168-.853.253-1.45.253-.733 0-1.312-.21-1.736-.629-.419-.419-.629-1.016-.629-1.791 0-.811.283-1.408.848-1.791.569-.388 1.426-.602 2.57-.643l1.326-.041v-.335c0-.775-.396-1.162-1.189-1.162-.611 0-1.329.185-2.154.554l-.69-1.408c.88-.461 1.855-.691 2.926-.691 1.025 0 1.811.224 2.358.67.547.447.821 1.126.821 2.037V201h-1.457zm-.615-3.541l-.806.027c-.607.019-1.058.128-1.354.328-.296.201-.444.506-.444.916 0 .588.337.882 1.011.882.484 0 .869-.139 1.156-.417.291-.278.437-.647.437-1.107v-.629zm8.393-4.245c.902 0 1.609.353 2.119 1.059.51.702.766 1.666.766 2.892 0 1.262-.265 2.24-.793 2.933-.524.692-1.24 1.039-2.147 1.039-.898 0-1.602-.326-2.112-.978h-.144l-.348.841h-1.593v-10.637h2.085v2.475c0 .314-.028.818-.082 1.511h.082c.487-.757 1.21-1.135 2.167-1.135zm-.67 1.668c-.515 0-.891.159-1.128.478-.237.315-.36.837-.369 1.566v.225c0 .821.121 1.409.362 1.764.246.356.634.533 1.162.533.429 0 .768-.196 1.019-.588.255-.396.383-.97.383-1.722s-.128-1.315-.383-1.689c-.255-.378-.604-.567-1.046-.567zm7.278 6.118h-2.085v-10.637h2.085V201zm5.276-6.303c-.442 0-.789.142-1.039.424-.251.278-.395.675-.431 1.19h2.926c-.009-.515-.144-.912-.404-1.19-.259-.282-.61-.424-1.052-.424zm.294 6.44c-1.231 0-2.193-.34-2.885-1.019-.693-.679-1.039-1.64-1.039-2.885 0-1.28.319-2.269.957-2.966.642-.702 1.529-1.053 2.659-1.053 1.08 0 1.921.307 2.522.923.602.615.903 1.465.903 2.55v1.011h-4.929c.023.593.198 1.055.526 1.388.328.333.789.499 1.381.499.461 0 .896-.048 1.306-.144.41-.095.838-.248 1.285-.458v1.614a4.823 4.823 0 01-1.169.403c-.415.091-.92.137-1.517.137zm7.148 0c-.898 0-1.604-.349-2.119-1.046-.511-.697-.766-1.664-.766-2.899 0-1.253.26-2.228.779-2.925.525-.702 1.245-1.053 2.161-1.053.961 0 1.695.374 2.201 1.121h.068a8.51 8.51 0 01-.157-1.524v-2.448h2.092V201h-1.6l-.403-.991h-.089c-.474.752-1.196 1.128-2.167 1.128zm.731-1.661c.534 0 .923-.155 1.169-.465.251-.31.388-.837.41-1.579v-.226c0-.82-.127-1.408-.382-1.764-.251-.355-.661-.533-1.231-.533-.465 0-.827.198-1.087.595-.255.392-.383.964-.383 1.716s.13 1.317.39 1.695c.26.374.631.561 1.114.561z" fill="#464B52"/><path fill="#fff" d="M491.5 217h244v99.333h-244z"/><g clip-path="url(#prefix__clip4_5179_85874)" opacity=".4"><path fill-rule="evenodd" clip-rule="evenodd" d="M604.167 254.667h18.666c1.467 0 2.667 1.2 2.667 2.666V276c0 1.467-1.2 2.667-2.667 2.667h-18.666A2.675 2.675 0 01601.5 276v-18.667c0-1.466 1.2-2.666 2.667-2.666zM622.833 276v-18.667h-18.666V276h18.666z" fill="#90939F"/></g><path fill="#F1F1F6" d="M736.5 176h244v40h-244z"/><path d="M756.05 195.907c0 1.645-.47 2.905-1.408 3.781-.935.874-2.286 1.312-4.054 1.312h-2.83v-9.994h3.138c1.631 0 2.898.431 3.8 1.292.903.861 1.354 2.064 1.354 3.609zm-2.201.055c0-2.147-.948-3.22-2.844-3.22h-1.128v6.508h.909c2.042 0 3.063-1.096 3.063-3.288zm7.189-1.265c-.442 0-.788.142-1.039.424-.251.278-.394.675-.431 1.19h2.926c-.009-.515-.143-.912-.403-1.19-.26-.282-.611-.424-1.053-.424zm.294 6.44c-1.23 0-2.192-.34-2.885-1.019-.692-.679-1.039-1.64-1.039-2.885 0-1.28.319-2.269.957-2.966.643-.702 1.529-1.053 2.659-1.053 1.08 0 1.921.307 2.523.923.601.615.902 1.465.902 2.55v1.011h-4.929c.023.593.199 1.055.527 1.388.328.333.788.499 1.381.499.46 0 .895-.048 1.305-.144a6.461 6.461 0 001.286-.458v1.614a4.837 4.837 0 01-1.169.403c-.415.091-.921.137-1.518.137zm8.953-6.214h-1.805V201h-2.085v-6.077h-1.148v-1.005l1.148-.561v-.56c0-.871.215-1.506.643-1.907.428-.401 1.114-.602 2.058-.602.72 0 1.36.107 1.921.321l-.534 1.532a3.858 3.858 0 00-1.162-.199c-.296 0-.51.089-.642.267-.132.173-.199.396-.199.67v.478h1.805v1.566zm5.973 6.077l-.404-1.039h-.054c-.351.442-.713.75-1.087.923-.369.168-.852.253-1.449.253-.734 0-1.313-.21-1.737-.629-.419-.419-.629-1.016-.629-1.791 0-.811.283-1.408.848-1.791.57-.388 1.426-.602 2.57-.643l1.327-.041v-.335c0-.775-.397-1.162-1.19-1.162-.611 0-1.328.185-2.153.554l-.691-1.408c.88-.461 1.855-.691 2.926-.691 1.025 0 1.812.224 2.359.67.546.447.82 1.126.82 2.037V201h-1.456zm-.615-3.541l-.807.027c-.606.019-1.057.128-1.354.328-.296.201-.444.506-.444.916 0 .588.337.882 1.012.882.483 0 .868-.139 1.155-.417.292-.278.438-.647.438-1.107v-.629zm9.554 3.541l-.28-.978h-.109c-.224.356-.54.632-.951.828-.41.191-.877.287-1.401.287-.898 0-1.575-.24-2.03-.718-.456-.483-.684-1.176-.684-2.078v-4.984h2.085v4.464c0 .552.098.966.294 1.244.196.274.508.411.937.411.583 0 1.004-.194 1.264-.581.26-.392.39-1.04.39-1.942v-3.596h2.085V201h-1.6zm5.788 0H788.9v-10.637h2.085V201zm5.33-1.524c.365 0 .802-.08 1.313-.24v1.552c-.52.233-1.158.349-1.914.349-.834 0-1.443-.21-1.825-.629-.379-.424-.568-1.057-.568-1.901v-3.684h-.998v-.882l1.149-.697.601-1.614h1.333v1.627h2.14v1.566h-2.14v3.684c0 .297.082.515.246.657.169.141.39.212.663.212zM808.568 201h-5.756v-9.994h5.756v1.736h-3.636v2.195h3.383v1.736h-3.383v2.577h3.636V201zm6.11-7.786c.282 0 .517.02.704.061l-.158 1.955a2.408 2.408 0 00-.615-.068c-.665 0-1.185.171-1.558.513-.37.342-.554.82-.554 1.435V201h-2.085v-7.643h1.579l.308 1.286h.102c.237-.429.556-.773.957-1.033a2.375 2.375 0 011.32-.396zm6.273 0c.283 0 .517.02.704.061l-.157 1.955a2.419 2.419 0 00-.615-.068c-.666 0-1.185.171-1.559.513-.369.342-.554.82-.554 1.435V201h-2.085v-7.643h1.579l.308 1.286h.103c.237-.429.556-.773.957-1.033a2.37 2.37 0 011.319-.396zm3.669 3.951c0 .757.123 1.328.369 1.716.251.387.656.581 1.217.581.556 0 .955-.191 1.196-.574.246-.388.369-.962.369-1.723 0-.756-.123-1.324-.369-1.702-.246-.378-.649-.567-1.21-.567-.556 0-.957.189-1.203.567-.246.374-.369.941-.369 1.702zm5.284 0c0 1.244-.328 2.217-.984 2.919-.657.702-1.57 1.053-2.741 1.053-.734 0-1.381-.16-1.942-.479a3.23 3.23 0 01-1.292-1.387c-.301-.602-.451-1.304-.451-2.106 0-1.249.326-2.219.978-2.912.651-.693 1.567-1.039 2.748-1.039.733 0 1.38.159 1.941.478.561.319.991.777 1.292 1.374.301.597.451 1.297.451 2.099zm5.904-3.951c.283 0 .518.02.705.061l-.158 1.955a2.408 2.408 0 00-.615-.068c-.665 0-1.185.171-1.559.513-.369.342-.553.82-.553 1.435V201h-2.085v-7.643h1.579l.307 1.286h.103c.237-.429.556-.773.957-1.033a2.372 2.372 0 011.319-.396z" fill="#464B52"/><path fill="#fff" d="M736.5 217h244v99.333h-244z"/><g clip-path="url(#prefix__clip5_5179_85874)"><path fill="#fff" d="M848.5 256.667h20v20h-20z"/><path fill-rule="evenodd" clip-rule="evenodd" d="M849.167 254.667h18.666c1.467 0 2.667 1.2 2.667 2.666V276c0 1.467-1.2 2.667-2.667 2.667h-18.666A2.675 2.675 0 01846.5 276v-18.667c0-1.466 1.2-2.666 2.667-2.666zM867.833 276v-18.667h-18.666V276h18.666z" fill="#90939F"/></g><path d="M869.5 249.667h-22a6 6 0 00-6 6v22a6 6 0 006 6h22a6 6 0 006-6v-22a6 6 0 00-6-6z" stroke="#B44E2A" stroke-width="4"/><path fill="#C4C4C4" d="M.5 349.333h981v142.333H.5z"/><path fill="#F1F1F6" d="M1.5 350.333h244v40H1.5z"/><path d="M12.758 375.333v-9.994h2.119v9.994h-2.12zm11.441 0h-2.085v-4.463c0-.552-.098-.964-.294-1.238-.196-.278-.508-.417-.936-.417-.584 0-1.005.196-1.265.588-.26.387-.39 1.032-.39 1.935v3.595h-2.084v-7.642h1.592l.28.977h.117c.232-.369.551-.647.957-.834.41-.191.875-.287 1.394-.287.889 0 1.564.242 2.024.725.46.478.69 1.171.69 2.078v4.983zm4.483.137c-.898 0-1.605-.349-2.12-1.046-.51-.697-.765-1.663-.765-2.898 0-1.253.26-2.229.78-2.926.523-.702 1.243-1.053 2.16-1.053.96 0 1.695.374 2.2 1.121h.069a8.511 8.511 0 01-.157-1.524v-2.447h2.091v10.636h-1.6l-.402-.991h-.09c-.473.752-1.196 1.128-2.166 1.128zm.731-1.661c.533 0 .923-.155 1.169-.465.25-.31.387-.836.41-1.579v-.226c0-.82-.127-1.408-.383-1.763-.25-.356-.66-.533-1.23-.533-.465 0-.827.198-1.087.594-.255.392-.383.964-.383 1.716s.13 1.317.39 1.695c.26.374.631.561 1.114.561zm8.79-4.778c-.443 0-.79.141-1.04.423-.25.278-.394.675-.43 1.19h2.925c-.009-.515-.143-.912-.403-1.19-.26-.282-.61-.423-1.053-.423zm.293 6.439c-1.23 0-2.192-.339-2.885-1.018-.692-.679-1.039-1.641-1.039-2.885 0-1.281.32-2.27.957-2.967.643-.702 1.53-1.053 2.66-1.053 1.08 0 1.92.308 2.522.923.602.615.902 1.465.902 2.55v1.012h-4.928c.022.592.198 1.055.526 1.387.328.333.788.499 1.38.499.461 0 .896-.048 1.306-.143.41-.096.839-.249 1.286-.458v1.613a4.779 4.779 0 01-1.17.403c-.414.092-.92.137-1.517.137zm7.948-1.661c.365 0 .802-.08 1.313-.239v1.551c-.52.233-1.158.349-1.914.349-.834 0-1.443-.21-1.826-.629-.378-.424-.567-1.057-.567-1.9v-3.685h-.998v-.882l1.148-.697.602-1.613h1.333v1.627h2.14v1.565h-2.14v3.685c0 .296.082.515.246.656.169.141.39.212.663.212zm5.946-4.778c-.443 0-.789.141-1.04.423-.25.278-.394.675-.43 1.19h2.926c-.01-.515-.144-.912-.404-1.19-.26-.282-.61-.423-1.052-.423zm.294 6.439c-1.231 0-2.192-.339-2.885-1.018-.693-.679-1.04-1.641-1.04-2.885 0-1.281.32-2.27.958-2.967.642-.702 1.529-1.053 2.659-1.053 1.08 0 1.92.308 2.522.923.602.615.903 1.465.903 2.55v1.012h-4.929c.023.592.198 1.055.526 1.387.328.333.789.499 1.381.499.46 0 .896-.048 1.306-.143.41-.096.838-.249 1.285-.458v1.613a4.777 4.777 0 01-1.169.403c-.415.092-.92.137-1.517.137zm8.994-7.923c.282 0 .517.021.704.062l-.157 1.955a2.367 2.367 0 00-.616-.069c-.665 0-1.185.171-1.558.513-.37.342-.554.82-.554 1.436v3.889h-2.085v-7.642h1.58l.307 1.285h.102c.237-.428.556-.773.957-1.032a2.365 2.365 0 011.32-.397zm8.85 7.786h-2.085v-4.463c0-.552-.093-.964-.28-1.238-.182-.278-.472-.417-.868-.417-.533 0-.92.196-1.162.588-.242.392-.363 1.037-.363 1.935v3.595h-2.085v-7.642h1.593l.28.977h.117c.205-.351.501-.624.888-.82.388-.2.832-.301 1.333-.301 1.144 0 1.919.374 2.325 1.121h.184a2.07 2.07 0 01.903-.827 3.042 3.042 0 011.353-.294c.866 0 1.52.224 1.962.67.447.442.67 1.153.67 2.133v4.983H73.2v-4.463c0-.552-.093-.964-.28-1.238-.183-.278-.472-.417-.868-.417-.51 0-.894.183-1.149.547-.25.365-.376.943-.376 1.736v3.835zm6.738-9.618c0-.679.379-1.018 1.135-1.018.757 0 1.135.339 1.135 1.018 0 .324-.096.577-.287.759-.187.178-.47.267-.848.267-.756 0-1.135-.342-1.135-1.026zm2.174 9.618h-2.085v-7.642h2.085v7.642zm9.165 0H86.52v-4.463c0-.552-.098-.964-.294-1.238-.195-.278-.508-.417-.936-.417-.583 0-1.005.196-1.265.588-.26.387-.39 1.032-.39 1.935v3.595h-2.084v-7.642h1.592l.28.977h.117c.232-.369.551-.647.957-.834.41-.191.875-.287 1.394-.287.89 0 1.564.242 2.024.725.46.478.69 1.171.69 2.078v4.983zm6.916 0l-.403-1.039h-.055c-.35.442-.713.75-1.087.923-.369.169-.852.253-1.449.253-.734 0-1.312-.21-1.736-.629-.42-.419-.629-1.016-.629-1.791 0-.811.282-1.408.848-1.791.57-.387 1.426-.601 2.57-.642l1.326-.041v-.335c0-.775-.396-1.163-1.19-1.163-.61 0-1.328.185-2.153.554l-.69-1.408c.88-.46 1.855-.69 2.926-.69 1.025 0 1.811.223 2.358.669.547.447.82 1.126.82 2.038v5.092h-1.456zm-.615-3.541l-.806.028c-.607.018-1.058.127-1.354.328-.296.2-.444.506-.444.916 0 .588.337.882 1.011.882.483 0 .868-.139 1.156-.417.291-.278.437-.647.437-1.108v-.629zm7.36 2.017c.365 0 .803-.08 1.313-.239v1.551c-.52.233-1.158.349-1.914.349-.834 0-1.443-.21-1.825-.629-.379-.424-.568-1.057-.568-1.9v-3.685h-.998v-.882l1.149-.697.601-1.613h1.333v1.627h2.14v1.565h-2.14v3.685c0 .296.082.515.246.656.169.141.39.212.663.212zm5.946-4.778c-.442 0-.789.141-1.039.423-.251.278-.395.675-.431 1.19h2.926c-.009-.515-.144-.912-.404-1.19-.259-.282-.61-.423-1.052-.423zm.294 6.439c-1.231 0-2.192-.339-2.885-1.018-.693-.679-1.039-1.641-1.039-2.885 0-1.281.319-2.27.957-2.967.642-.702 1.529-1.053 2.659-1.053 1.08 0 1.921.308 2.523.923.601.615.902 1.465.902 2.55v1.012h-4.929c.023.592.198 1.055.527 1.387.328.333.788.499 1.38.499a5.77 5.77 0 001.306-.143c.41-.096.839-.249 1.285-.458v1.613a4.766 4.766 0 01-1.169.403c-.414.092-.92.137-1.517.137z" fill="#464B52"/><path fill="#fff" d="M1.5 391.333h244v99.333H1.5z"/><g clip-path="url(#prefix__clip6_5179_85874)" fill="#90939F"><path fill-rule="evenodd" clip-rule="evenodd" d="M114.167 429h18.666c1.467 0 2.667 1.2 2.667 2.667v18.666c0 1.467-1.2 2.667-2.667 2.667h-18.666a2.675 2.675 0 01-2.667-2.667v-18.666c0-1.467 1.2-2.667 2.667-2.667zm18.666 21.333v-18.666h-18.666v18.666h18.666z"/><path d="M116.833 439.667h13.334v2.666h-13.334v-2.666z"/></g><path fill="#F1F1F6" d="M246.5 350.333h244v40h-244z"/><path d="M257.758 375.333v-9.994h2.119v9.994h-2.119zm11.441 0h-2.085v-4.463c0-.552-.098-.964-.294-1.238-.196-.278-.508-.417-.936-.417-.584 0-1.005.196-1.265.588-.26.387-.39 1.032-.39 1.935v3.595h-2.084v-7.642h1.592l.281.977h.116c.232-.369.551-.647.957-.834.41-.191.875-.287 1.394-.287.889 0 1.563.242 2.024.725.46.478.69 1.171.69 2.078v4.983zm4.483.137c-.898 0-1.605-.349-2.12-1.046-.51-.697-.765-1.663-.765-2.898 0-1.253.26-2.229.779-2.926.524-.702 1.244-1.053 2.16-1.053.962 0 1.696.374 2.201 1.121h.069a8.491 8.491 0 01-.157-1.524v-2.447h2.091v10.636h-1.599l-.404-.991h-.088c-.474.752-1.197 1.128-2.167 1.128zm.731-1.661c.533 0 .923-.155 1.169-.465.251-.31.387-.836.41-1.579v-.226c0-.82-.127-1.408-.383-1.763-.25-.356-.66-.533-1.23-.533-.465 0-.827.198-1.087.594-.255.392-.383.964-.383 1.716s.13 1.317.39 1.695c.26.374.631.561 1.114.561zm8.789-4.778c-.442 0-.788.141-1.039.423-.251.278-.394.675-.431 1.19h2.926c-.009-.515-.143-.912-.403-1.19-.26-.282-.611-.423-1.053-.423zm.294 6.439c-1.23 0-2.192-.339-2.885-1.018-.692-.679-1.039-1.641-1.039-2.885 0-1.281.319-2.27.957-2.967.643-.702 1.529-1.053 2.659-1.053 1.081 0 1.921.308 2.523.923.601.615.902 1.465.902 2.55v1.012h-4.928c.022.592.198 1.055.526 1.387.328.333.788.499 1.381.499.46 0 .895-.048 1.305-.143a6.59 6.59 0 001.286-.458v1.613a4.795 4.795 0 01-1.169.403c-.415.092-.921.137-1.518.137zm7.948-1.661c.365 0 .802-.08 1.313-.239v1.551c-.52.233-1.158.349-1.914.349-.834 0-1.443-.21-1.825-.629-.379-.424-.568-1.057-.568-1.9v-3.685h-.998v-.882l1.149-.697.601-1.613h1.333v1.627h2.14v1.565h-2.14v3.685c0 .296.082.515.246.656.169.141.39.212.663.212zm5.946-4.778c-.442 0-.789.141-1.039.423-.251.278-.395.675-.431 1.19h2.926c-.009-.515-.144-.912-.404-1.19-.259-.282-.61-.423-1.052-.423zm.294 6.439c-1.231 0-2.193-.339-2.885-1.018-.693-.679-1.039-1.641-1.039-2.885 0-1.281.319-2.27.957-2.967.642-.702 1.529-1.053 2.659-1.053 1.08 0 1.921.308 2.522.923.602.615.903 1.465.903 2.55v1.012h-4.929c.023.592.198 1.055.526 1.387.328.333.789.499 1.381.499a5.77 5.77 0 001.306-.143c.41-.096.838-.249 1.285-.458v1.613a4.78 4.78 0 01-1.169.403c-.415.092-.92.137-1.517.137zm8.994-7.923c.282 0 .517.021.704.062l-.157 1.955a2.373 2.373 0 00-.616-.069c-.665 0-1.185.171-1.558.513-.369.342-.554.82-.554 1.436v3.889h-2.085v-7.642h1.579l.308 1.285h.102c.237-.428.556-.773.957-1.032a2.368 2.368 0 011.32-.397zm8.85 7.786h-2.085v-4.463c0-.552-.093-.964-.28-1.238-.182-.278-.472-.417-.868-.417-.533 0-.921.196-1.162.588-.242.392-.363 1.037-.363 1.935v3.595h-2.085v-7.642h1.593l.28.977h.117c.205-.351.501-.624.888-.82.388-.2.832-.301 1.333-.301 1.144 0 1.919.374 2.325 1.121h.184a2.07 2.07 0 01.903-.827 3.04 3.04 0 011.353-.294c.866 0 1.52.224 1.962.67.447.442.67 1.153.67 2.133v4.983h-2.092v-4.463c0-.552-.093-.964-.28-1.238-.183-.278-.472-.417-.868-.417-.511 0-.894.183-1.149.547-.25.365-.376.943-.376 1.736v3.835zm6.738-9.618c0-.679.379-1.018 1.135-1.018.757 0 1.135.339 1.135 1.018 0 .324-.096.577-.287.759-.187.178-.469.267-.848.267-.756 0-1.135-.342-1.135-1.026zm2.174 9.618h-2.085v-7.642h2.085v7.642zm9.165 0h-2.085v-4.463c0-.552-.098-.964-.294-1.238-.196-.278-.508-.417-.936-.417-.583 0-1.005.196-1.265.588-.26.387-.389 1.032-.389 1.935v3.595h-2.085v-7.642h1.592l.281.977h.116c.232-.369.551-.647.957-.834.41-.191.875-.287 1.394-.287.889 0 1.564.242 2.024.725.46.478.69 1.171.69 2.078v4.983zm6.916 0l-.403-1.039h-.055c-.351.442-.713.75-1.087.923-.369.169-.852.253-1.449.253-.734 0-1.312-.21-1.736-.629-.419-.419-.629-1.016-.629-1.791 0-.811.283-1.408.848-1.791.569-.387 1.426-.601 2.57-.642l1.326-.041v-.335c0-.775-.396-1.163-1.189-1.163-.611 0-1.329.185-2.154.554l-.69-1.408c.879-.46 1.855-.69 2.926-.69 1.025 0 1.811.223 2.358.669.547.447.82 1.126.82 2.038v5.092h-1.456zm-.615-3.541l-.807.028c-.606.018-1.057.127-1.353.328-.296.2-.444.506-.444.916 0 .588.337.882 1.011.882.483 0 .868-.139 1.156-.417.291-.278.437-.647.437-1.108v-.629zm7.36 2.017c.365 0 .803-.08 1.313-.239v1.551c-.52.233-1.158.349-1.914.349-.834 0-1.443-.21-1.825-.629-.379-.424-.568-1.057-.568-1.9v-3.685h-.998v-.882l1.149-.697.601-1.613h1.333v1.627h2.14v1.565h-2.14v3.685c0 .296.082.515.246.656.169.141.39.212.663.212zm5.946-4.778c-.442 0-.789.141-1.039.423-.251.278-.395.675-.431 1.19h2.926c-.009-.515-.144-.912-.404-1.19-.259-.282-.61-.423-1.052-.423zm.294 6.439c-1.231 0-2.192-.339-2.885-1.018-.693-.679-1.039-1.641-1.039-2.885 0-1.281.319-2.27.957-2.967.642-.702 1.529-1.053 2.659-1.053 1.08 0 1.921.308 2.523.923.601.615.902 1.465.902 2.55v1.012h-4.929c.023.592.198 1.055.527 1.387.328.333.788.499 1.38.499a5.77 5.77 0 001.306-.143c.41-.096.839-.249 1.285-.458v1.613a4.766 4.766 0 01-1.169.403c-.414.092-.92.137-1.517.137zm10.53-.137h-2.085v-9.994h5.728v1.737h-3.643v2.577h3.391v1.729h-3.391v3.951zm7.012-3.835c0 .757.123 1.329.369 1.716.25.388.656.581 1.217.581.556 0 .954-.191 1.196-.574.246-.387.369-.962.369-1.723 0-.756-.123-1.323-.369-1.702-.246-.378-.65-.567-1.21-.567-.556 0-.957.189-1.203.567-.246.374-.369.941-.369 1.702zm5.284 0c0 1.245-.328 2.218-.985 2.919-.656.702-1.57 1.053-2.741 1.053-.734 0-1.381-.159-1.941-.478a3.233 3.233 0 01-1.292-1.388c-.301-.602-.451-1.304-.451-2.106 0-1.248.325-2.219.977-2.912.652-.692 1.568-1.039 2.748-1.039.734 0 1.381.16 1.942.479.56.319.991.777 1.292 1.374.3.597.451 1.296.451 2.098zm4.742 3.972c-2.379 0-3.568-1.306-3.568-3.917 0-1.299.323-2.29.97-2.974.647-.688 1.575-1.032 2.783-1.032.884 0 1.677.173 2.378.52l-.615 1.613a9.707 9.707 0 00-.916-.321 2.862 2.862 0 00-.847-.13c-1.085 0-1.627.77-1.627 2.31 0 1.495.542 2.243 1.627 2.243.401 0 .772-.053 1.114-.158a4.127 4.127 0 001.025-.505v1.784a3.356 3.356 0 01-1.025.444c-.342.082-.775.123-1.299.123zm9.432-.137l-.281-.977h-.109c-.223.355-.54.631-.95.827-.41.191-.878.287-1.402.287-.897 0-1.574-.239-2.03-.718-.456-.483-.683-1.175-.683-2.078v-4.983h2.084v4.464c0 .551.098.966.294 1.244.196.273.509.41.937.41.583 0 1.005-.194 1.265-.581.259-.392.389-1.039.389-1.942v-3.595h2.085v7.642h-1.599zm9.035-2.269c0 .784-.274 1.381-.821 1.791-.542.41-1.355.615-2.44.615-.556 0-1.03-.039-1.422-.116a5.21 5.21 0 01-1.1-.328v-1.723c.387.182.822.335 1.305.458.488.123.916.185 1.285.185.757 0 1.135-.219 1.135-.657a.535.535 0 00-.15-.396c-.101-.105-.274-.221-.52-.349a12.103 12.103 0 00-.984-.458c-.588-.246-1.021-.474-1.299-.683a1.989 1.989 0 01-.602-.718c-.123-.274-.184-.608-.184-1.005 0-.679.262-1.203.786-1.572.529-.374 1.276-.561 2.242-.561.921 0 1.816.201 2.687.602l-.629 1.504a11.748 11.748 0 00-1.073-.404 3.402 3.402 0 00-1.019-.157c-.615 0-.923.167-.923.499 0 .187.098.349.294.486.201.136.636.339 1.306.608.597.241 1.034.467 1.312.677.278.209.483.451.615.724.133.274.199.6.199.978z" fill="#464B52"/><path fill="#fff" d="M246.5 391.333h244v99.333h-244z"/><g clip-path="url(#prefix__clip7_5179_85874)" fill="#90939F"><path fill-rule="evenodd" clip-rule="evenodd" d="M359.167 429h18.666c1.467 0 2.667 1.2 2.667 2.667v18.666c0 1.467-1.2 2.667-2.667 2.667h-18.666a2.675 2.675 0 01-2.667-2.667v-18.666c0-1.467 1.2-2.667 2.667-2.667zm18.666 21.333v-18.666h-18.666v18.666h18.666z"/><path d="M361.833 439.667h13.334v2.666h-13.334v-2.666z"/></g><path d="M379.5 424h-22a6 6 0 00-6 6v22a6 6 0 006 6h22a6 6 0 006-6v-22a6 6 0 00-6-6z" stroke="#0084FF" stroke-width="4"/><path fill="#F1F1F6" d="M491.5 350.333h244v40h-244z"/><path d="M502.758 375.333v-9.994h2.119v9.994h-2.119zm11.441 0h-2.085v-4.463c0-.552-.098-.964-.294-1.238-.196-.278-.508-.417-.936-.417-.584 0-1.005.196-1.265.588-.26.387-.39 1.032-.39 1.935v3.595h-2.084v-7.642h1.592l.281.977h.116c.232-.369.551-.647.957-.834.41-.191.875-.287 1.394-.287.889 0 1.563.242 2.024.725.46.478.69 1.171.69 2.078v4.983zm4.483.137c-.898 0-1.605-.349-2.12-1.046-.51-.697-.765-1.663-.765-2.898 0-1.253.26-2.229.779-2.926.524-.702 1.244-1.053 2.16-1.053.962 0 1.696.374 2.201 1.121h.069a8.491 8.491 0 01-.157-1.524v-2.447h2.091v10.636h-1.599l-.404-.991h-.088c-.474.752-1.197 1.128-2.167 1.128zm.731-1.661c.533 0 .923-.155 1.169-.465.251-.31.387-.836.41-1.579v-.226c0-.82-.127-1.408-.383-1.763-.25-.356-.66-.533-1.23-.533-.465 0-.827.198-1.087.594-.255.392-.383.964-.383 1.716s.13 1.317.39 1.695c.26.374.631.561 1.114.561zm8.789-4.778c-.442 0-.788.141-1.039.423-.251.278-.394.675-.431 1.19h2.926c-.009-.515-.143-.912-.403-1.19-.26-.282-.611-.423-1.053-.423zm.294 6.439c-1.23 0-2.192-.339-2.885-1.018-.692-.679-1.039-1.641-1.039-2.885 0-1.281.319-2.27.957-2.967.643-.702 1.529-1.053 2.659-1.053 1.081 0 1.921.308 2.523.923.601.615.902 1.465.902 2.55v1.012h-4.928c.022.592.198 1.055.526 1.387.328.333.788.499 1.381.499.46 0 .895-.048 1.305-.143a6.59 6.59 0 001.286-.458v1.613a4.795 4.795 0 01-1.169.403c-.415.092-.921.137-1.518.137zm7.948-1.661c.365 0 .802-.08 1.313-.239v1.551c-.52.233-1.158.349-1.914.349-.834 0-1.443-.21-1.825-.629-.379-.424-.568-1.057-.568-1.9v-3.685h-.998v-.882l1.149-.697.601-1.613h1.333v1.627h2.14v1.565h-2.14v3.685c0 .296.082.515.246.656.169.141.39.212.663.212zm5.946-4.778c-.442 0-.789.141-1.039.423-.251.278-.395.675-.431 1.19h2.926c-.009-.515-.144-.912-.404-1.19-.259-.282-.61-.423-1.052-.423zm.294 6.439c-1.231 0-2.193-.339-2.885-1.018-.693-.679-1.039-1.641-1.039-2.885 0-1.281.319-2.27.957-2.967.642-.702 1.529-1.053 2.659-1.053 1.08 0 1.921.308 2.522.923.602.615.903 1.465.903 2.55v1.012h-4.929c.023.592.198 1.055.526 1.387.328.333.789.499 1.381.499a5.77 5.77 0 001.306-.143c.41-.096.838-.249 1.285-.458v1.613a4.78 4.78 0 01-1.169.403c-.415.092-.92.137-1.517.137zm8.994-7.923c.282 0 .517.021.704.062l-.157 1.955a2.373 2.373 0 00-.616-.069c-.665 0-1.185.171-1.558.513-.369.342-.554.82-.554 1.436v3.889h-2.085v-7.642h1.579l.308 1.285h.102c.237-.428.556-.773.957-1.032a2.368 2.368 0 011.32-.397zm8.85 7.786h-2.085v-4.463c0-.552-.093-.964-.28-1.238-.182-.278-.472-.417-.868-.417-.533 0-.921.196-1.162.588-.242.392-.363 1.037-.363 1.935v3.595h-2.085v-7.642h1.593l.28.977h.117c.205-.351.501-.624.888-.82.388-.2.832-.301 1.333-.301 1.144 0 1.919.374 2.325 1.121h.184a2.07 2.07 0 01.903-.827 3.04 3.04 0 011.353-.294c.866 0 1.52.224 1.962.67.447.442.67 1.153.67 2.133v4.983h-2.092v-4.463c0-.552-.093-.964-.28-1.238-.183-.278-.472-.417-.868-.417-.511 0-.894.183-1.149.547-.25.365-.376.943-.376 1.736v3.835zm6.738-9.618c0-.679.379-1.018 1.135-1.018.757 0 1.135.339 1.135 1.018 0 .324-.096.577-.287.759-.187.178-.469.267-.848.267-.756 0-1.135-.342-1.135-1.026zm2.174 9.618h-2.085v-7.642h2.085v7.642zm9.165 0h-2.085v-4.463c0-.552-.098-.964-.294-1.238-.196-.278-.508-.417-.936-.417-.583 0-1.005.196-1.265.588-.26.387-.389 1.032-.389 1.935v3.595h-2.085v-7.642h1.592l.281.977h.116c.232-.369.551-.647.957-.834.41-.191.875-.287 1.394-.287.889 0 1.564.242 2.024.725.46.478.69 1.171.69 2.078v4.983zm6.916 0l-.403-1.039h-.055c-.351.442-.713.75-1.087.923-.369.169-.852.253-1.449.253-.734 0-1.312-.21-1.736-.629-.419-.419-.629-1.016-.629-1.791 0-.811.283-1.408.848-1.791.569-.387 1.426-.601 2.57-.642l1.326-.041v-.335c0-.775-.396-1.163-1.189-1.163-.611 0-1.329.185-2.154.554l-.69-1.408c.879-.46 1.855-.69 2.926-.69 1.025 0 1.811.223 2.358.669.547.447.82 1.126.82 2.038v5.092h-1.456zm-.615-3.541l-.807.028c-.606.018-1.057.127-1.353.328-.296.2-.444.506-.444.916 0 .588.337.882 1.011.882.483 0 .868-.139 1.156-.417.291-.278.437-.647.437-1.108v-.629zm7.36 2.017c.365 0 .803-.08 1.313-.239v1.551c-.52.233-1.158.349-1.914.349-.834 0-1.443-.21-1.825-.629-.379-.424-.568-1.057-.568-1.9v-3.685h-.998v-.882l1.149-.697.601-1.613h1.333v1.627h2.14v1.565h-2.14v3.685c0 .296.082.515.246.656.169.141.39.212.663.212zm5.946-4.778c-.442 0-.789.141-1.039.423-.251.278-.395.675-.431 1.19h2.926c-.009-.515-.144-.912-.404-1.19-.259-.282-.61-.423-1.052-.423zm.294 6.439c-1.231 0-2.192-.339-2.885-1.018-.693-.679-1.039-1.641-1.039-2.885 0-1.281.319-2.27.957-2.967.642-.702 1.529-1.053 2.659-1.053 1.08 0 1.921.308 2.523.923.601.615.902 1.465.902 2.55v1.012h-4.929c.023.592.198 1.055.527 1.387.328.333.788.499 1.38.499a5.77 5.77 0 001.306-.143c.41-.096.839-.249 1.285-.458v1.613a4.766 4.766 0 01-1.169.403c-.414.092-.92.137-1.517.137zm10.701 0c-.898 0-1.604-.349-2.119-1.046-.511-.697-.766-1.663-.766-2.898 0-1.253.26-2.229.779-2.926.524-.702 1.244-1.053 2.16-1.053.962 0 1.696.374 2.202 1.121h.068a8.491 8.491 0 01-.157-1.524v-2.447h2.092v10.636h-1.6l-.403-.991h-.089c-.474.752-1.196 1.128-2.167 1.128zm.731-1.661c.533 0 .923-.155 1.169-.465.251-.31.388-.836.41-1.579v-.226c0-.82-.127-1.408-.382-1.763-.251-.356-.661-.533-1.231-.533-.465 0-.827.198-1.087.594-.255.392-.383.964-.383 1.716s.13 1.317.39 1.695c.26.374.631.561 1.114.561zm5.535-8.094c0-.679.379-1.018 1.135-1.018.757 0 1.135.339 1.135 1.018 0 .324-.096.577-.287.759-.187.178-.47.267-.848.267-.756 0-1.135-.342-1.135-1.026zm2.174 9.618h-2.085v-7.642h2.085v7.642zm7.443-2.269c0 .784-.274 1.381-.821 1.791-.542.41-1.356.615-2.44.615-.556 0-1.03-.039-1.422-.116a5.237 5.237 0 01-1.101-.328v-1.723c.388.182.823.335 1.306.458.488.123.916.185 1.285.185.757 0 1.135-.219 1.135-.657a.535.535 0 00-.15-.396c-.101-.105-.274-.221-.52-.349a12.103 12.103 0 00-.984-.458c-.588-.246-1.021-.474-1.299-.683a1.979 1.979 0 01-.602-.718c-.123-.274-.184-.608-.184-1.005 0-.679.262-1.203.786-1.572.528-.374 1.276-.561 2.242-.561.921 0 1.816.201 2.687.602l-.629 1.504a11.651 11.651 0 00-1.074-.404 3.39 3.39 0 00-1.018-.157c-.615 0-.923.167-.923.499 0 .187.098.349.294.486.2.136.636.339 1.306.608.597.241 1.034.467 1.312.677.278.209.483.451.615.724.133.274.199.6.199.978zm6.396 2.269l-.403-1.039h-.055c-.351.442-.713.75-1.087.923-.369.169-.852.253-1.449.253-.734 0-1.313-.21-1.736-.629-.42-.419-.629-1.016-.629-1.791 0-.811.282-1.408.847-1.791.57-.387 1.427-.601 2.571-.642l1.326-.041v-.335c0-.775-.397-1.163-1.19-1.163-.61 0-1.328.185-2.153.554l-.69-1.408c.879-.46 1.854-.69 2.925-.69 1.026 0 1.812.223 2.359.669.547.447.82 1.126.82 2.038v5.092h-1.456zm-.615-3.541l-.807.028c-.606.018-1.057.127-1.353.328-.297.2-.445.506-.445.916 0 .588.338.882 1.012.882.483 0 .868-.139 1.155-.417.292-.278.438-.647.438-1.108v-.629zm8.392-4.245c.903 0 1.609.353 2.12 1.06.51.702.765 1.666.765 2.891 0 1.263-.264 2.24-.793 2.933-.524.693-1.239 1.039-2.146 1.039-.898 0-1.602-.326-2.113-.977h-.143l-.349.84h-1.593v-10.636h2.085v2.474c0 .315-.027.818-.082 1.511h.082c.488-.757 1.21-1.135 2.167-1.135zm-.67 1.668c-.514 0-.89.16-1.127.479-.237.314-.36.836-.37 1.565v.226c0 .82.121 1.408.363 1.763.246.356.633.534 1.162.534.428 0 .768-.196 1.018-.588.256-.397.383-.971.383-1.723 0-.752-.127-1.315-.383-1.688-.255-.379-.603-.568-1.046-.568zm7.279 6.118h-2.085v-10.636h2.085v10.636zm5.275-6.302c-.442 0-.788.141-1.039.423-.251.278-.394.675-.431 1.19h2.926c-.009-.515-.143-.912-.403-1.19-.26-.282-.611-.423-1.053-.423zm.294 6.439c-1.23 0-2.192-.339-2.885-1.018-.692-.679-1.039-1.641-1.039-2.885 0-1.281.319-2.27.957-2.967.643-.702 1.529-1.053 2.659-1.053 1.081 0 1.921.308 2.523.923.602.615.902 1.465.902 2.55v1.012h-4.928c.022.592.198 1.055.526 1.387.328.333.788.499 1.381.499.46 0 .895-.048 1.305-.143a6.59 6.59 0 001.286-.458v1.613a4.795 4.795 0 01-1.169.403c-.415.092-.921.137-1.518.137zm7.149 0c-.898 0-1.605-.349-2.12-1.046-.51-.697-.765-1.663-.765-2.898 0-1.253.26-2.229.779-2.926.524-.702 1.244-1.053 2.16-1.053.962 0 1.696.374 2.201 1.121h.069a8.491 8.491 0 01-.157-1.524v-2.447h2.091v10.636h-1.599l-.404-.991h-.088c-.474.752-1.197 1.128-2.167 1.128zm.731-1.661c.533 0 .923-.155 1.169-.465.251-.31.387-.836.41-1.579v-.226c0-.82-.128-1.408-.383-1.763-.25-.356-.661-.533-1.23-.533-.465 0-.827.198-1.087.594-.255.392-.383.964-.383 1.716s.13 1.317.39 1.695c.259.374.631.561 1.114.561z" fill="#464B52"/><path fill="#fff" d="M491.5 391.333h244v99.333h-244z"/><g clip-path="url(#prefix__clip8_5179_85874)" fill="#90939F" opacity=".4"><path fill-rule="evenodd" clip-rule="evenodd" d="M604.167 429h18.666c1.467 0 2.667 1.2 2.667 2.667v18.666c0 1.467-1.2 2.667-2.667 2.667h-18.666a2.675 2.675 0 01-2.667-2.667v-18.666c0-1.467 1.2-2.667 2.667-2.667zm18.666 21.333v-18.666h-18.666v18.666h18.666z"/><path d="M606.833 439.667h13.334v2.666h-13.334v-2.666z"/></g><path fill="#F1F1F6" d="M736.5 350.333h244v40h-244z"/><path d="M747.758 375.333v-9.994h2.119v9.994h-2.119zm11.441 0h-2.085v-4.463c0-.552-.098-.964-.294-1.238-.196-.278-.508-.417-.936-.417-.584 0-1.005.196-1.265.588-.26.387-.39 1.032-.39 1.935v3.595h-2.084v-7.642h1.592l.281.977h.116c.232-.369.551-.647.957-.834.41-.191.875-.287 1.394-.287.889 0 1.563.242 2.024.725.46.478.69 1.171.69 2.078v4.983zm4.483.137c-.898 0-1.605-.349-2.12-1.046-.51-.697-.765-1.663-.765-2.898 0-1.253.26-2.229.779-2.926.524-.702 1.244-1.053 2.16-1.053.962 0 1.696.374 2.201 1.121h.069a8.491 8.491 0 01-.157-1.524v-2.447h2.091v10.636h-1.599l-.404-.991h-.088c-.474.752-1.197 1.128-2.167 1.128zm.731-1.661c.533 0 .923-.155 1.169-.465.251-.31.387-.836.41-1.579v-.226c0-.82-.127-1.408-.383-1.763-.25-.356-.66-.533-1.23-.533-.465 0-.827.198-1.087.594-.255.392-.383.964-.383 1.716s.13 1.317.39 1.695c.26.374.631.561 1.114.561zm8.789-4.778c-.442 0-.788.141-1.039.423-.251.278-.394.675-.431 1.19h2.926c-.009-.515-.143-.912-.403-1.19-.26-.282-.611-.423-1.053-.423zm.294 6.439c-1.23 0-2.192-.339-2.885-1.018-.692-.679-1.039-1.641-1.039-2.885 0-1.281.319-2.27.957-2.967.643-.702 1.529-1.053 2.659-1.053 1.081 0 1.921.308 2.523.923.601.615.902 1.465.902 2.55v1.012h-4.928c.022.592.198 1.055.526 1.387.328.333.788.499 1.381.499.46 0 .895-.048 1.305-.143a6.59 6.59 0 001.286-.458v1.613a4.795 4.795 0 01-1.169.403c-.415.092-.921.137-1.518.137zm7.948-1.661c.365 0 .802-.08 1.313-.239v1.551c-.52.233-1.158.349-1.914.349-.834 0-1.443-.21-1.825-.629-.379-.424-.568-1.057-.568-1.9v-3.685h-.998v-.882l1.149-.697.601-1.613h1.333v1.627h2.14v1.565h-2.14v3.685c0 .296.082.515.246.656.169.141.39.212.663.212zm5.946-4.778c-.442 0-.789.141-1.039.423-.251.278-.395.675-.431 1.19h2.926c-.009-.515-.144-.912-.404-1.19-.259-.282-.61-.423-1.052-.423zm.294 6.439c-1.231 0-2.193-.339-2.885-1.018-.693-.679-1.039-1.641-1.039-2.885 0-1.281.319-2.27.957-2.967.642-.702 1.529-1.053 2.659-1.053 1.08 0 1.921.308 2.522.923.602.615.903 1.465.903 2.55v1.012h-4.929c.023.592.198 1.055.526 1.387.328.333.789.499 1.381.499a5.77 5.77 0 001.306-.143c.41-.096.838-.249 1.285-.458v1.613a4.78 4.78 0 01-1.169.403c-.415.092-.92.137-1.517.137zm8.994-7.923c.282 0 .517.021.704.062l-.157 1.955a2.373 2.373 0 00-.616-.069c-.665 0-1.185.171-1.558.513-.369.342-.554.82-.554 1.436v3.889h-2.085v-7.642h1.579l.308 1.285h.102c.237-.428.556-.773.957-1.032a2.368 2.368 0 011.32-.397zm8.85 7.786h-2.085v-4.463c0-.552-.093-.964-.28-1.238-.182-.278-.472-.417-.868-.417-.533 0-.921.196-1.162.588-.242.392-.363 1.037-.363 1.935v3.595h-2.085v-7.642h1.593l.28.977h.117c.205-.351.501-.624.888-.82.388-.2.832-.301 1.333-.301 1.144 0 1.919.374 2.325 1.121h.184a2.07 2.07 0 01.903-.827 3.04 3.04 0 011.353-.294c.866 0 1.52.224 1.962.67.447.442.67 1.153.67 2.133v4.983h-2.092v-4.463c0-.552-.093-.964-.28-1.238-.183-.278-.472-.417-.868-.417-.511 0-.894.183-1.149.547-.25.365-.376.943-.376 1.736v3.835zm6.738-9.618c0-.679.379-1.018 1.135-1.018.757 0 1.135.339 1.135 1.018 0 .324-.096.577-.287.759-.187.178-.469.267-.848.267-.756 0-1.135-.342-1.135-1.026zm2.174 9.618h-2.085v-7.642h2.085v7.642zm9.165 0h-2.085v-4.463c0-.552-.098-.964-.294-1.238-.196-.278-.508-.417-.936-.417-.583 0-1.005.196-1.265.588-.26.387-.389 1.032-.389 1.935v3.595h-2.085v-7.642h1.592l.281.977h.116c.232-.369.551-.647.957-.834.41-.191.875-.287 1.394-.287.889 0 1.564.242 2.024.725.46.478.69 1.171.69 2.078v4.983zm6.916 0l-.403-1.039h-.055c-.351.442-.713.75-1.087.923-.369.169-.852.253-1.449.253-.734 0-1.312-.21-1.736-.629-.419-.419-.629-1.016-.629-1.791 0-.811.283-1.408.848-1.791.569-.387 1.426-.601 2.57-.642l1.326-.041v-.335c0-.775-.396-1.163-1.189-1.163-.611 0-1.329.185-2.154.554l-.69-1.408c.879-.46 1.855-.69 2.926-.69 1.025 0 1.811.223 2.358.669.547.447.82 1.126.82 2.038v5.092h-1.456zm-.615-3.541l-.807.028c-.606.018-1.057.127-1.353.328-.296.2-.444.506-.444.916 0 .588.337.882 1.011.882.483 0 .868-.139 1.156-.417.291-.278.437-.647.437-1.108v-.629zm7.36 2.017c.365 0 .803-.08 1.313-.239v1.551c-.52.233-1.158.349-1.914.349-.834 0-1.443-.21-1.825-.629-.379-.424-.568-1.057-.568-1.9v-3.685h-.998v-.882l1.149-.697.601-1.613h1.333v1.627h2.14v1.565h-2.14v3.685c0 .296.082.515.246.656.169.141.39.212.663.212zm5.946-4.778c-.442 0-.789.141-1.039.423-.251.278-.395.675-.431 1.19h2.926c-.009-.515-.144-.912-.404-1.19-.259-.282-.61-.423-1.052-.423zm.294 6.439c-1.231 0-2.192-.339-2.885-1.018-.693-.679-1.039-1.641-1.039-2.885 0-1.281.319-2.27.957-2.967.642-.702 1.529-1.053 2.659-1.053 1.08 0 1.921.308 2.523.923.601.615.902 1.465.902 2.55v1.012h-4.929c.023.592.198 1.055.527 1.387.328.333.788.499 1.38.499a5.77 5.77 0 001.306-.143c.41-.096.839-.249 1.285-.458v1.613a4.766 4.766 0 01-1.169.403c-.414.092-.92.137-1.517.137zm14.201-.137h-5.756v-9.994h5.756v1.737h-3.637v2.194h3.384v1.736h-3.384v2.577h3.637v1.75zm6.109-7.786c.283 0 .517.021.704.062l-.157 1.955a2.37 2.37 0 00-.615-.069c-.666 0-1.185.171-1.559.513-.369.342-.553.82-.553 1.436v3.889h-2.085v-7.642h1.579l.307 1.285h.103c.237-.428.556-.773.957-1.032a2.362 2.362 0 011.319-.397zm6.274 0c.282 0 .517.021.704.062l-.158 1.955a2.36 2.36 0 00-.615-.069c-.665 0-1.185.171-1.558.513-.37.342-.554.82-.554 1.436v3.889h-2.085v-7.642h1.579l.308 1.285h.102c.237-.428.556-.773.957-1.032a2.368 2.368 0 011.32-.397zm3.669 3.951c0 .757.123 1.329.369 1.716.25.388.656.581 1.216.581.556 0 .955-.191 1.197-.574.246-.387.369-.962.369-1.723 0-.756-.123-1.323-.369-1.702-.246-.378-.65-.567-1.21-.567-.556 0-.957.189-1.203.567-.246.374-.369.941-.369 1.702zm5.284 0c0 1.245-.328 2.218-.985 2.919-.656.702-1.57 1.053-2.741 1.053-.734 0-1.381-.159-1.941-.478a3.227 3.227 0 01-1.292-1.388c-.301-.602-.451-1.304-.451-2.106 0-1.248.325-2.219.977-2.912.652-.692 1.568-1.039 2.748-1.039.734 0 1.381.16 1.942.479.56.319.991.777 1.292 1.374.3.597.451 1.296.451 2.098zm5.904-3.951c.283 0 .517.021.704.062l-.157 1.955a2.37 2.37 0 00-.615-.069c-.666 0-1.185.171-1.559.513-.369.342-.554.82-.554 1.436v3.889h-2.085v-7.642h1.579l.308 1.285h.103c.237-.428.556-.773.957-1.032a2.362 2.362 0 011.319-.397z" fill="#464B52"/><path fill="#fff" d="M736.5 391.333h244v99.333h-244z"/><g clip-path="url(#prefix__clip9_5179_85874)" fill="#90939F"><path fill-rule="evenodd" clip-rule="evenodd" d="M849.167 429h18.666c1.467 0 2.667 1.2 2.667 2.667v18.666c0 1.467-1.2 2.667-2.667 2.667h-18.666a2.675 2.675 0 01-2.667-2.667v-18.666c0-1.467 1.2-2.667 2.667-2.667zm18.666 21.333v-18.666h-18.666v18.666h18.666z"/><path d="M851.833 439.667h13.334v2.666h-13.334v-2.666z"/></g><path d="M869.5 424h-22a6 6 0 00-6 6v22a6 6 0 006 6h22a6 6 0 006-6v-22a6 6 0 00-6-6z" stroke="#B44E2A" stroke-width="4"/><defs><clipPath id="prefix__clip0_5179_85874"><path fill="#fff" transform="translate(105 73.333)" d="M0 0h37v38H0z"/></clipPath><clipPath id="prefix__clip1_5179_85874"><path fill="#fff" transform="translate(842.5 76.333)" d="M0 0h32v32H0z"/></clipPath><clipPath id="prefix__clip2_5179_85874"><path fill="#fff" transform="translate(107.5 250.667)" d="M0 0h32v32H0z"/></clipPath><clipPath id="prefix__clip3_5179_85874"><path fill="#fff" transform="translate(352.5 250.667)" d="M0 0h32v32H0z"/></clipPath><clipPath id="prefix__clip4_5179_85874"><path fill="#fff" transform="translate(597.5 250.667)" d="M0 0h32v32H0z"/></clipPath><clipPath id="prefix__clip5_5179_85874"><path fill="#fff" transform="translate(842.5 250.667)" d="M0 0h32v32H0z"/></clipPath><clipPath id="prefix__clip6_5179_85874"><path fill="#fff" transform="translate(107.5 425)" d="M0 0h32v32H0z"/></clipPath><clipPath id="prefix__clip7_5179_85874"><path fill="#fff" transform="translate(352.5 425)" d="M0 0h32v32H0z"/></clipPath><clipPath id="prefix__clip8_5179_85874"><path fill="#fff" transform="translate(597.5 425)" d="M0 0h32v32H0z"/></clipPath><clipPath id="prefix__clip9_5179_85874"><path fill="#fff" transform="translate(842.5 425)" d="M0 0h32v32H0z"/></clipPath></defs></svg>