<svg fill="none" height="58" width="182" xmlns="http://www.w3.org/2000/svg"><path d="m25.469 33.858h-5.989v-1.26l2.15-2.174c.638-.652 1.054-1.103 1.249-1.353.195-.254.336-.489.422-.703.086-.215.129-.438.129-.668 0-.344-.096-.6-.287-.768-.188-.168-.44-.252-.756-.252-.332 0-.655.076-.967.229-.313.152-.639.369-.979.65l-.984-1.166c.422-.36.771-.613 1.049-.762a3.76 3.76 0 0 1 .908-.34 4.549 4.549 0 0 1 1.102-.122c.535 0 1.007.097 1.418.292.41.196.728.47.955.82.226.352.34.755.34 1.208 0 .394-.07.765-.211 1.113a4.17 4.17 0 0 1 -.645 1.06c-.289.364-.8.882-1.535 1.553l-1.102 1.037v.082h3.733zm6.977-1.775h-1.032v1.775h-1.77v-1.775h-3.654v-1.26l3.755-5.532h1.67v5.385h1.032v1.407zm-2.801-1.407v-1.453c0-.242.01-.594.03-1.054.019-.462.034-.73.046-.803h-.047c-.144.32-.318.633-.521.937l-1.57 2.373zm5.934 3.3c-.77 0-1.375-.3-1.817-.897-.437-.598-.656-1.426-.656-2.485 0-1.074.223-1.91.668-2.508.45-.601 1.066-.902 1.852-.902.824 0 1.453.32 1.886.961h.059a7.31 7.31 0 0 1 -.135-1.307v-2.097h1.793v9.117h-1.371l-.346-.85h-.076c-.406.645-1.025.967-1.857.967zm.627-1.425c.457 0 .79-.133 1.002-.398.214-.266.332-.717.351-1.354v-.193c0-.703-.11-1.207-.328-1.512-.215-.304-.566-.457-1.055-.457-.398 0-.709.17-.931.51-.22.336-.328.826-.328 1.47 0 .645.11 1.13.334 1.454.222.32.54.48.955.48zm8.418 1.424c-.77 0-1.373-.28-1.81-.838h-.095c.063.547.094.864.094.95v2.654h-1.787v-9.434h1.453l.252.85h.082c.418-.649 1.037-.973 1.858-.973.773 0 1.379.299 1.816.897.438.597.656 1.427.656 2.49 0 .699-.103 1.306-.31 1.822-.203.516-.494.908-.873 1.178-.38.27-.824.404-1.336.404zm-.528-5.361c-.44 0-.763.136-.966.41-.203.27-.309.717-.317 1.342v.193c0 .703.104 1.207.31 1.512.212.305.544.457.997.457.8 0 1.201-.66 1.201-1.98 0-.645-.1-1.128-.299-1.448-.195-.324-.504-.486-.925-.486z" fill="#4091d2"/><path d="m62 18.116h-9v21.934h9" stroke="#4091d2"/><path clip-rule="evenodd" d="m86.667 17.083h18.666c1.48 0 2.667 1.2 2.667 2.667v18.667a2.666 2.666 0 0 1 -2.667 2.666h-18.666c-1.48 0-2.667-1.2-2.667-2.666v-18.667a2.666 2.666 0 0 1 2.667-2.667zm0 12 6.666 6.667 12-12-1.88-1.893-10.12 10.12-4.786-4.774z" fill="#019aeb" fill-rule="evenodd"/><path clip-rule="evenodd" d="m86.667 29.083 6.666 6.667 12-12-1.88-1.893-10.12 10.12-4.786-4.774z" fill="#fff" fill-rule="evenodd"/><path d="m130 1h9v55.834h-9" stroke="#4091d2"/><path d="m152.598 23.85c.828 0 1.486.231 1.974.696.492.465.739 1.102.739 1.91 0 .958-.295 1.694-.885 2.21-.59.515-1.434.773-2.531.773-.954 0-1.723-.154-2.309-.463v-1.564c.309.164.668.298 1.078.404.41.102.799.152 1.166.152 1.106 0 1.658-.453 1.658-1.36 0-.862-.572-1.294-1.717-1.294-.207 0-.435.021-.685.064-.25.04-.453.082-.609.13l-.721-.387.322-4.366h4.647v1.536h-3.059l-.158 1.681.205-.04a4.03 4.03 0 0 1 .885-.083zm3.607 1.833c0-1.695.358-2.957 1.073-3.785.718-.828 1.793-1.242 3.222-1.242.489 0 .871.03 1.149.088v1.447a4.702 4.702 0 0 0 -1.032-.117c-.621 0-1.128.093-1.523.281a1.89 1.89 0 0 0 -.879.832c-.195.367-.31.889-.346 1.564h.077c.386-.664 1.005-.996 1.857-.996.766 0 1.365.24 1.799.721.433.48.65 1.145.65 1.992 0 .914-.258 1.639-.773 2.174-.516.531-1.231.797-2.145.797-.633 0-1.185-.146-1.658-.44-.469-.293-.832-.72-1.09-1.283-.254-.562-.381-1.24-.381-2.033zm3.094 2.309c.387 0 .684-.13.891-.387.207-.262.31-.633.31-1.113 0-.418-.097-.746-.293-.985-.191-.242-.482-.363-.873-.363-.367 0-.681.12-.943.358-.258.238-.387.515-.387.832 0 .464.121.857.363 1.177.247.32.557.48.932.48zm6.28 1.447c-.77 0-1.375-.299-1.817-.896-.437-.598-.656-1.426-.656-2.485 0-1.074.223-1.91.668-2.508.449-.601 1.066-.902 1.852-.902.824 0 1.453.32 1.886.96h.059a7.294 7.294 0 0 1 -.135-1.306v-2.097h1.793v9.117h-1.371l-.346-.85h-.076c-.406.645-1.025.967-1.857.967zm.627-1.424c.457 0 .791-.133 1.002-.398.214-.266.332-.717.351-1.354v-.193c0-.703-.109-1.207-.328-1.512-.215-.305-.566-.457-1.055-.457-.398 0-.709.17-.931.51-.219.336-.328.826-.328 1.47 0 .645.111 1.13.334 1.454.222.32.541.48.955.48zm8.418 1.424c-.77 0-1.373-.28-1.811-.838h-.093c.062.547.093.863.093.95v2.654h-1.787v-9.435h1.453l.252.85h.082c.418-.649 1.037-.973 1.858-.973.773 0 1.379.299 1.816.896.438.598.656 1.428.656 2.49 0 .7-.103 1.307-.31 1.823-.203.516-.494.908-.873 1.178s-.824.404-1.336.404zm-.527-5.361c-.442 0-.764.136-.967.41-.203.27-.309.717-.317 1.342v.193c0 .703.104 1.207.311 1.512.211.304.543.457.996.457.801 0 1.201-.66 1.201-1.98 0-.645-.099-1.128-.299-1.448-.195-.324-.504-.486-.925-.486z" fill="#4091d2"/></svg>