<svg width="980" height="228" fill="none" xmlns="http://www.w3.org/2000/svg"><path fill="#F1F1F6" d="M.5 0h979v228H.5z"/><g clip-path="url(#prefix__clip0_4850_76535)"><path fill-rule="evenodd" clip-rule="evenodd" d="M60.667 105h18.666c1.48 0 2.667 1.2 2.667 2.667v18.666A2.666 2.666 0 0179.333 129H60.667c-1.48 0-2.667-1.2-2.667-2.667v-18.666A2.666 2.666 0 0160.667 105zm0 12l6.666 6.667 12-12-1.88-1.894-10.12 10.12-4.786-4.773-1.88 1.88z" fill="#0063A3"/><path fill-rule="evenodd" clip-rule="evenodd" d="M60.667 117l6.666 6.667 12-12-1.88-1.894-10.12 10.12-4.786-4.773-1.88 1.88z" fill="#fff"/><path d="M98.66 126v-15.705h1.825v14.051h6.929V126h-8.755zm18.651 0l-.355-1.676h-.086c-.587.738-1.174 1.239-1.762 1.504-.58.258-1.307.387-2.18.387-1.168 0-2.084-.301-2.75-.903-.659-.601-.989-1.457-.989-2.567 0-2.377 1.902-3.624 5.705-3.738l1.998-.065v-.73c0-.924-.201-1.604-.602-2.041-.394-.444-1.028-.666-1.901-.666-.981 0-2.091.301-3.33.902l-.548-1.364a8.409 8.409 0 011.901-.741 8.323 8.323 0 012.084-.269c1.404 0 2.442.312 3.115.935.681.623 1.021 1.622 1.021 2.997V126h-1.321zm-4.029-1.257c1.11 0 1.98-.304 2.611-.913.637-.609.956-1.461.956-2.557v-1.063l-1.784.075c-1.418.05-2.442.272-3.072.666-.623.387-.934.992-.934 1.816 0 .644.193 1.135.58 1.471.394.337.941.505 1.643.505zm14.763-10.71c1.547 0 2.746.53 3.599 1.59.859 1.053 1.289 2.546 1.289 4.48 0 1.933-.434 3.437-1.3 4.511-.86 1.067-2.056 1.601-3.588 1.601a5.2 5.2 0 01-2.106-.419 3.995 3.995 0 01-1.589-1.311h-.129l-.376 1.515h-1.279v-16.715h1.784v4.061c0 .909-.029 1.726-.086 2.449h.086c.83-1.175 2.062-1.762 3.695-1.762zm-.258 1.493c-1.217 0-2.095.351-2.632 1.053-.537.695-.805 1.869-.805 3.524 0 1.654.275 2.839.827 3.555.551.709 1.436 1.064 2.653 1.064 1.096 0 1.912-.398 2.449-1.193.537-.802.806-1.951.806-3.448 0-1.532-.269-2.675-.806-3.427-.537-.752-1.368-1.128-2.492-1.128zm13.495 10.689c-1.74 0-3.115-.53-4.125-1.59-1.002-1.06-1.504-2.532-1.504-4.415 0-1.898.466-3.405 1.397-4.522.938-1.118 2.195-1.676 3.77-1.676 1.476 0 2.643.487 3.502 1.461.86.966 1.289 2.245 1.289 3.835v1.128h-8.11c.036 1.382.383 2.431 1.042 3.147.666.716 1.601 1.074 2.804 1.074 1.267 0 2.521-.265 3.759-.795v1.59a9.077 9.077 0 01-1.794.58c-.558.122-1.235.183-2.03.183zm-.483-10.71c-.945 0-1.701.308-2.267.924-.558.616-.888 1.468-.988 2.556h6.155c0-1.124-.25-1.983-.752-2.578-.501-.601-1.217-.902-2.148-.902zM150.695 126h-1.783v-16.715h1.783V126z" fill="#252A2E"/></g><g clip-path="url(#prefix__clip1_4850_76535)"><path fill-rule="evenodd" clip-rule="evenodd" d="M264.167 100.649h18.666c1.48 0 2.667 1.2 2.667 2.666v18.667a2.666 2.666 0 01-2.667 2.667h-18.666c-1.48 0-2.667-1.2-2.667-2.667v-18.667a2.666 2.666 0 012.667-2.666zm0 12l6.666 6.666 12-12-1.88-1.893-10.12 10.12-4.786-4.773-1.88 1.88z" fill="#217CBB"/><path fill-rule="evenodd" clip-rule="evenodd" d="M264.167 101.6h18.666c1.48 0 2.667 1.2 2.667 2.667v18.666a2.666 2.666 0 01-2.667 2.667h-18.666c-1.48 0-2.667-1.2-2.667-2.667v-18.666a2.666 2.666 0 012.667-2.667zm0 12l6.666 6.667 12-12-1.88-1.894-10.12 10.12-4.786-4.773-1.88 1.88z" fill="#217CBB"/><path d="M262.5 95.649a6 6 0 00-6 6v22a6 6 0 006 6h22a6 6 0 006-6v-22a6 6 0 00-6-6h-22z" stroke="#0084FF" stroke-width="4"/><path d="M309.659 123v-15.705h1.826v14.051h6.929V123h-8.755zm18.652 0l-.355-1.676h-.086c-.587.738-1.174 1.239-1.762 1.504-.58.258-1.307.387-2.18.387-1.168 0-2.084-.301-2.75-.903-.659-.601-.989-1.457-.989-2.567 0-2.377 1.902-3.624 5.705-3.738l1.998-.065v-.73c0-.924-.201-1.604-.602-2.041-.394-.444-1.028-.666-1.901-.666-.981 0-2.091.301-3.33.902l-.548-1.364a8.409 8.409 0 011.901-.741 8.323 8.323 0 012.084-.269c1.404 0 2.442.312 3.115.935.681.623 1.021 1.622 1.021 2.997V123h-1.321zm-4.029-1.257c1.11 0 1.98-.304 2.611-.913.637-.609.956-1.461.956-2.557v-1.063l-1.784.075c-1.418.05-2.442.272-3.072.666-.623.387-.934.992-.934 1.816 0 .644.193 1.135.58 1.471.394.337.941.505 1.643.505zm14.763-10.71c1.547 0 2.746.53 3.599 1.59.859 1.053 1.289 2.546 1.289 4.48 0 1.933-.434 3.437-1.3 4.511-.86 1.067-2.056 1.601-3.588 1.601a5.2 5.2 0 01-2.106-.419 3.995 3.995 0 01-1.589-1.311h-.129l-.376 1.515h-1.279v-16.715h1.784v4.061c0 .909-.029 1.726-.086 2.449h.086c.83-1.175 2.062-1.762 3.695-1.762zm-.258 1.493c-1.217 0-2.095.351-2.632 1.053-.537.695-.805 1.869-.805 3.524 0 1.654.275 2.839.827 3.555.551.709 1.436 1.064 2.653 1.064 1.096 0 1.912-.398 2.449-1.193.537-.802.806-1.951.806-3.448 0-1.532-.269-2.675-.806-3.427-.537-.752-1.368-1.128-2.492-1.128zm13.495 10.689c-1.74 0-3.115-.53-4.125-1.59-1.002-1.06-1.504-2.532-1.504-4.415 0-1.898.466-3.405 1.397-4.522.938-1.118 2.195-1.676 3.77-1.676 1.476 0 2.643.487 3.502 1.461.86.966 1.289 2.245 1.289 3.835v1.128h-8.11c.036 1.382.383 2.431 1.042 3.147.666.716 1.601 1.074 2.804 1.074 1.267 0 2.521-.265 3.759-.795v1.59a9.077 9.077 0 01-1.794.58c-.558.122-1.235.183-2.03.183zm-.483-10.71c-.945 0-1.701.308-2.267.924-.558.616-.888 1.468-.988 2.556h6.155c0-1.124-.25-1.983-.752-2.578-.501-.601-1.217-.902-2.148-.902zM361.695 123h-1.783v-16.715h1.783V123z" fill="#252A2E"/></g><g clip-path="url(#prefix__clip2_4850_76535)" opacity=".5"><path fill-rule="evenodd" clip-rule="evenodd" d="M413.167 102h18.666c1.48 0 2.667 1.2 2.667 2.667v18.666a2.666 2.666 0 01-2.667 2.667h-18.666c-1.48 0-2.667-1.2-2.667-2.667v-18.666a2.666 2.666 0 012.667-2.667zm0 12l6.666 6.667 12-12-1.88-1.894-10.12 10.12-4.786-4.773-1.88 1.88z" fill="#217CBB"/><path d="M448.659 123v-15.705h1.826v14.051h6.929V123h-8.755zm18.652 0l-.355-1.676h-.086c-.587.738-1.174 1.239-1.762 1.504-.58.258-1.307.387-2.18.387-1.168 0-2.084-.301-2.75-.903-.659-.601-.989-1.457-.989-2.567 0-2.377 1.902-3.624 5.705-3.738l1.998-.065v-.73c0-.924-.201-1.604-.602-2.041-.394-.444-1.028-.666-1.901-.666-.981 0-2.091.301-3.33.902l-.548-1.364a8.409 8.409 0 011.901-.741 8.323 8.323 0 012.084-.269c1.404 0 2.442.312 3.115.935.681.623 1.021 1.622 1.021 2.997V123h-1.321zm-4.029-1.257c1.11 0 1.98-.304 2.611-.913.637-.609.956-1.461.956-2.557v-1.063l-1.784.075c-1.418.05-2.442.272-3.072.666-.623.387-.934.992-.934 1.816 0 .644.193 1.135.58 1.471.394.337.941.505 1.643.505zm14.763-10.71c1.547 0 2.746.53 3.599 1.59.859 1.053 1.289 2.546 1.289 4.48 0 1.933-.434 3.437-1.3 4.511-.86 1.067-2.056 1.601-3.588 1.601a5.2 5.2 0 01-2.106-.419 3.995 3.995 0 01-1.589-1.311h-.129l-.376 1.515h-1.279v-16.715h1.784v4.061c0 .909-.029 1.726-.086 2.449h.086c.83-1.175 2.062-1.762 3.695-1.762zm-.258 1.493c-1.217 0-2.095.351-2.632 1.053-.537.695-.805 1.869-.805 3.524 0 1.654.275 2.839.827 3.555.551.709 1.436 1.064 2.653 1.064 1.096 0 1.912-.398 2.449-1.193.537-.802.806-1.951.806-3.448 0-1.532-.269-2.675-.806-3.427-.537-.752-1.368-1.128-2.492-1.128zm13.495 10.689c-1.74 0-3.115-.53-4.125-1.59-1.002-1.06-1.504-2.532-1.504-4.415 0-1.898.466-3.405 1.397-4.522.938-1.118 2.195-1.676 3.77-1.676 1.476 0 2.643.487 3.502 1.461.86.966 1.289 2.245 1.289 3.835v1.128h-8.11c.036 1.382.383 2.431 1.042 3.147.666.716 1.601 1.074 2.804 1.074 1.267 0 2.521-.265 3.759-.795v1.59a9.077 9.077 0 01-1.794.58c-.558.122-1.235.183-2.03.183zm-.483-10.71c-.945 0-1.701.308-2.267.924-.558.616-.888 1.468-.988 2.556h6.155c0-1.124-.25-1.983-.752-2.578-.501-.601-1.217-.902-2.148-.902zM500.695 123h-1.783v-16.715h1.783V123z" fill="#252A2E"/></g><g clip-path="url(#prefix__clip3_4850_76535)"><path fill="#fff" d="M583.5 104h20v20h-20z"/><path fill-rule="evenodd" clip-rule="evenodd" d="M584.167 102h18.666c1.467 0 2.667 1.2 2.667 2.667v18.666c0 1.467-1.2 2.667-2.667 2.667h-18.666a2.675 2.675 0 01-2.667-2.667v-18.666c0-1.467 1.2-2.667 2.667-2.667zm18.666 21.333v-18.666h-18.666v18.666h18.666z" fill="#90939F"/><path d="M631.659 123v-15.705h1.826v14.051h6.929V123h-8.755zm18.652 0l-.355-1.676h-.086c-.587.738-1.174 1.239-1.762 1.504-.58.258-1.307.387-2.18.387-1.168 0-2.084-.301-2.75-.903-.659-.601-.989-1.457-.989-2.567 0-2.377 1.902-3.624 5.705-3.738l1.998-.065v-.73c0-.924-.201-1.604-.602-2.041-.394-.444-1.028-.666-1.901-.666-.981 0-2.091.301-3.33.902l-.548-1.364a8.409 8.409 0 011.901-.741 8.323 8.323 0 012.084-.269c1.404 0 2.442.312 3.115.935.681.623 1.021 1.622 1.021 2.997V123h-1.321zm-4.029-1.257c1.11 0 1.98-.304 2.611-.913.637-.609.956-1.461.956-2.557v-1.063l-1.784.075c-1.418.05-2.442.272-3.072.666-.623.387-.934.992-.934 1.816 0 .644.193 1.135.58 1.471.394.337.941.505 1.643.505zm14.763-10.71c1.547 0 2.746.53 3.599 1.59.859 1.053 1.289 2.546 1.289 4.48 0 1.933-.434 3.437-1.3 4.511-.86 1.067-2.056 1.601-3.588 1.601a5.2 5.2 0 01-2.106-.419 3.995 3.995 0 01-1.589-1.311h-.129l-.376 1.515h-1.279v-16.715h1.784v4.061c0 .909-.029 1.726-.086 2.449h.086c.83-1.175 2.062-1.762 3.695-1.762zm-.258 1.493c-1.217 0-2.095.351-2.632 1.053-.537.695-.805 1.869-.805 3.524 0 1.654.275 2.839.827 3.555.551.709 1.436 1.064 2.653 1.064 1.096 0 1.912-.398 2.449-1.193.537-.802.806-1.951.806-3.448 0-1.532-.269-2.675-.806-3.427-.537-.752-1.368-1.128-2.492-1.128zm13.495 10.689c-1.74 0-3.115-.53-4.125-1.59-1.002-1.06-1.504-2.532-1.504-4.415 0-1.898.466-3.405 1.397-4.522.938-1.118 2.195-1.676 3.77-1.676 1.476 0 2.643.487 3.502 1.461.86.966 1.289 2.245 1.289 3.835v1.128h-8.11c.036 1.382.383 2.431 1.042 3.147.666.716 1.601 1.074 2.804 1.074 1.267 0 2.521-.265 3.759-.795v1.59a9.077 9.077 0 01-1.794.58c-.558.122-1.235.183-2.03.183zm-.483-10.71c-.945 0-1.701.308-2.267.924-.558.616-.888 1.468-.988 2.556h6.155c0-1.124-.25-1.983-.752-2.578-.501-.601-1.217-.902-2.148-.902zM683.695 123h-1.783v-16.715h1.783V123z" fill="#464B52"/></g><g clip-path="url(#prefix__clip4_4850_76535)"><path fill="#fff" d="M720.5 104.5h20v20h-20z"/><path fill-rule="evenodd" clip-rule="evenodd" d="M721.167 102h18.666c1.467 0 2.667 1.2 2.667 2.667v18.666c0 1.467-1.2 2.667-2.667 2.667h-18.666a2.675 2.675 0 01-2.667-2.667v-18.666c0-1.467 1.2-2.667 2.667-2.667zm18.666 21.333v-18.666h-18.666v18.666h18.666z" fill="#90939F"/><path d="M719.5 97a6 6 0 00-6 6v22a6 6 0 006 6h22a6 6 0 006-6v-22a6 6 0 00-6-6h-22z" stroke="#B44E2A" stroke-width="4"/><path d="M766.659 123v-15.705h1.826v14.051h6.929V123h-8.755zm18.652 0l-.355-1.676h-.086c-.587.738-1.174 1.239-1.762 1.504-.58.258-1.307.387-2.18.387-1.168 0-2.084-.301-2.75-.903-.659-.601-.989-1.457-.989-2.567 0-2.377 1.902-3.624 5.705-3.738l1.998-.065v-.73c0-.924-.201-1.604-.602-2.041-.394-.444-1.028-.666-1.901-.666-.981 0-2.091.301-3.33.902l-.548-1.364a8.409 8.409 0 011.901-.741 8.323 8.323 0 012.084-.269c1.404 0 2.442.312 3.115.935.681.623 1.021 1.622 1.021 2.997V123h-1.321zm-4.029-1.257c1.11 0 1.98-.304 2.611-.913.637-.609.956-1.461.956-2.557v-1.063l-1.784.075c-1.418.05-2.442.272-3.072.666-.623.387-.934.992-.934 1.816 0 .644.193 1.135.58 1.471.394.337.941.505 1.643.505zm14.763-10.71c1.547 0 2.746.53 3.599 1.59.859 1.053 1.289 2.546 1.289 4.48 0 1.933-.434 3.437-1.3 4.511-.86 1.067-2.056 1.601-3.588 1.601a5.2 5.2 0 01-2.106-.419 3.995 3.995 0 01-1.589-1.311h-.129l-.376 1.515h-1.279v-16.715h1.784v4.061c0 .909-.029 1.726-.086 2.449h.086c.83-1.175 2.062-1.762 3.695-1.762zm-.258 1.493c-1.217 0-2.095.351-2.632 1.053-.537.695-.805 1.869-.805 3.524 0 1.654.275 2.839.827 3.555.551.709 1.436 1.064 2.653 1.064 1.096 0 1.912-.398 2.449-1.193.537-.802.806-1.951.806-3.448 0-1.532-.269-2.675-.806-3.427-.537-.752-1.368-1.128-2.492-1.128zm13.495 10.689c-1.74 0-3.115-.53-4.125-1.59-1.002-1.06-1.504-2.532-1.504-4.415 0-1.898.466-3.405 1.397-4.522.938-1.118 2.195-1.676 3.77-1.676 1.476 0 2.643.487 3.502 1.461.86.966 1.289 2.245 1.289 3.835v1.128h-8.11c.036 1.382.383 2.431 1.042 3.147.666.716 1.601 1.074 2.804 1.074 1.267 0 2.521-.265 3.759-.795v1.59a9.077 9.077 0 01-1.794.58c-.558.122-1.235.183-2.03.183zm-.483-10.71c-.945 0-1.701.308-2.267.924-.558.616-.888 1.468-.988 2.556h6.155c0-1.124-.25-1.983-.752-2.578-.501-.601-1.217-.902-2.148-.902zM818.695 123h-1.783v-16.715h1.783V123z" fill="#464B52"/></g><g clip-path="url(#prefix__clip5_4850_76535)" opacity=".3"><path fill-rule="evenodd" clip-rule="evenodd" d="M854.167 102h18.666c1.467 0 2.667 1.2 2.667 2.667v18.666c0 1.467-1.2 2.667-2.667 2.667h-18.666a2.675 2.675 0 01-2.667-2.667v-18.666c0-1.467 1.2-2.667 2.667-2.667zm18.666 21.333v-18.666h-18.666v18.666h18.666z" fill="#90939F"/><path d="M889.659 123v-15.705h1.826v14.051h6.929V123h-8.755zm18.652 0l-.355-1.676h-.086c-.587.738-1.174 1.239-1.762 1.504-.58.258-1.307.387-2.18.387-1.168 0-2.084-.301-2.75-.903-.659-.601-.989-1.457-.989-2.567 0-2.377 1.902-3.624 5.705-3.738l1.998-.065v-.73c0-.924-.201-1.604-.602-2.041-.394-.444-1.028-.666-1.901-.666-.981 0-2.091.301-3.33.902l-.548-1.364a8.409 8.409 0 011.901-.741 8.323 8.323 0 012.084-.269c1.404 0 2.442.312 3.115.935.681.623 1.021 1.622 1.021 2.997V123h-1.321zm-4.029-1.257c1.11 0 1.98-.304 2.611-.913.637-.609.956-1.461.956-2.557v-1.063l-1.784.075c-1.418.05-2.442.272-3.072.666-.623.387-.934.992-.934 1.816 0 .644.193 1.135.58 1.471.394.337.941.505 1.643.505zm14.763-10.71c1.547 0 2.746.53 3.599 1.59.859 1.053 1.289 2.546 1.289 4.48 0 1.933-.434 3.437-1.3 4.511-.86 1.067-2.056 1.601-3.588 1.601a5.2 5.2 0 01-2.106-.419 3.995 3.995 0 01-1.589-1.311h-.129l-.376 1.515h-1.279v-16.715h1.784v4.061c0 .909-.029 1.726-.086 2.449h.086c.83-1.175 2.062-1.762 3.695-1.762zm-.258 1.493c-1.217 0-2.095.351-2.632 1.053-.537.695-.805 1.869-.805 3.524 0 1.654.275 2.839.827 3.555.551.709 1.436 1.064 2.653 1.064 1.096 0 1.912-.398 2.449-1.193.537-.802.806-1.951.806-3.448 0-1.532-.269-2.675-.806-3.427-.537-.752-1.368-1.128-2.492-1.128zm13.495 10.689c-1.74 0-3.115-.53-4.125-1.59-1.002-1.06-1.504-2.532-1.504-4.415 0-1.898.466-3.405 1.397-4.522.938-1.118 2.195-1.676 3.77-1.676 1.476 0 2.643.487 3.502 1.461.86.966 1.289 2.245 1.289 3.835v1.128h-8.11c.036 1.382.383 2.431 1.042 3.147.666.716 1.601 1.074 2.804 1.074 1.267 0 2.521-.265 3.759-.795v1.59a9.077 9.077 0 01-1.794.58c-.558.122-1.235.183-2.03.183zm-.483-10.71c-.945 0-1.701.308-2.267.924-.558.616-.888 1.468-.988 2.556h6.155c0-1.124-.25-1.983-.752-2.578-.501-.601-1.217-.902-2.148-.902zm9.982 7.938l.161.247a26.262 26.262 0 01-.805 2.493 34.869 34.869 0 01-1.096 2.653h-1.343c.194-.745.405-1.665.634-2.761.236-1.096.401-1.973.494-2.632h1.955zm-2.18-8.067c0-.967.426-1.45 1.278-1.45.881 0 1.321.483 1.321 1.45 0 .465-.118.824-.354 1.074-.237.251-.559.376-.967.376-.415 0-.734-.125-.956-.376-.215-.25-.322-.609-.322-1.074z" fill="#252A2E"/></g><defs><clipPath id="prefix__clip0_4850_76535"><path fill="#fff" transform="translate(51.5 98)" d="M0 0h102v38H0z"/></clipPath><clipPath id="prefix__clip1_4850_76535"><path fill="#fff" transform="translate(222.5 94)" d="M0 0h142v40H0z"/></clipPath><clipPath id="prefix__clip2_4850_76535"><path fill="#fff" transform="translate(406.5 98)" d="M0 0h97v32H0z"/></clipPath><clipPath id="prefix__clip3_4850_76535"><path fill="#fff" transform="translate(577.5 98)" d="M0 0h109v32H0z"/></clipPath><clipPath id="prefix__clip4_4850_76535"><path fill="#fff" transform="translate(712.5 94.5)" d="M0 0h109v39H0z"/></clipPath><clipPath id="prefix__clip5_4850_76535"><path fill="#fff" transform="translate(847.5 98)" d="M0 0h97v32H0z"/></clipPath></defs></svg>