<svg width="981" height="243" viewBox="0 0 981 243" fill="none" xmlns="http://www.w3.org/2000/svg"><rect width="980" height="242.667" transform="translate(0.5)" fill="#585C65"/><rect width="99" height="242.667" transform="translate(1.5)" fill="#585C65"/><rect width="99" height="40" transform="translate(1.5 1)" fill="#464B52"/><path d="M18.6572 23.2246C18.6572 24.127 18.3314 24.8379 17.6797 25.3574C17.0326 25.877 16.1302 26.1367 14.9727 26.1367C13.9062 26.1367 12.9629 25.9362 12.1426 25.5352V23.5664C12.8171 23.8672 13.3867 24.0791 13.8516 24.2021C14.321 24.3252 14.7493 24.3867 15.1367 24.3867C15.6016 24.3867 15.957 24.2979 16.2031 24.1201C16.4538 23.9424 16.5791 23.6781 16.5791 23.3271C16.5791 23.1312 16.5244 22.958 16.415 22.8076C16.3057 22.6527 16.1439 22.5046 15.9297 22.3633C15.7201 22.222 15.2894 21.9964 14.6377 21.6865C14.027 21.3994 13.569 21.1237 13.2637 20.8594C12.9583 20.5951 12.7145 20.2874 12.5322 19.9365C12.3499 19.5856 12.2588 19.1755 12.2588 18.7061C12.2588 17.8219 12.5573 17.127 13.1543 16.6211C13.7559 16.1152 14.5853 15.8623 15.6426 15.8623C16.1621 15.8623 16.6566 15.9238 17.126 16.0469C17.5999 16.1699 18.0944 16.3431 18.6094 16.5664L17.9258 18.2139C17.3926 17.9951 16.9505 17.8424 16.5996 17.7559C16.2533 17.6693 15.9115 17.626 15.5742 17.626C15.1732 17.626 14.8656 17.7194 14.6514 17.9062C14.4372 18.0931 14.3301 18.3369 14.3301 18.6377C14.3301 18.8245 14.3734 18.9886 14.46 19.1299C14.5465 19.2666 14.6833 19.401 14.8701 19.5332C15.0615 19.6608 15.5104 19.8932 16.2168 20.2305C17.151 20.6771 17.7913 21.126 18.1377 21.5771C18.484 22.0238 18.6572 22.5729 18.6572 23.2246ZM23.4404 24.4756C23.805 24.4756 24.2425 24.3958 24.7529 24.2363V25.7881C24.2334 26.0205 23.5954 26.1367 22.8389 26.1367C22.0049 26.1367 21.3965 25.9271 21.0137 25.5078C20.6354 25.084 20.4463 24.4505 20.4463 23.6074V19.9229H19.4482V19.041L20.5967 18.3438L21.1982 16.7305H22.5312V18.3574H24.6709V19.9229H22.5312V23.6074C22.5312 23.9036 22.6133 24.1224 22.7773 24.2637C22.9459 24.4049 23.167 24.4756 23.4404 24.4756ZM31.0742 26L30.6709 24.9609H30.6162C30.2653 25.403 29.903 25.7106 29.5293 25.8838C29.1601 26.0524 28.6771 26.1367 28.08 26.1367C27.3463 26.1367 26.7675 25.9271 26.3437 25.5078C25.9244 25.0885 25.7148 24.4915 25.7148 23.7168C25.7148 22.9056 25.9974 22.3086 26.5625 21.9258C27.1321 21.5384 27.9889 21.3242 29.1328 21.2832L30.459 21.2422V20.9072C30.459 20.1325 30.0625 19.7451 29.2695 19.7451C28.6588 19.7451 27.941 19.9297 27.1162 20.2988L26.4257 18.8906C27.3053 18.4303 28.2806 18.2002 29.3515 18.2002C30.3769 18.2002 31.1631 18.4235 31.7099 18.8701C32.2568 19.3167 32.5302 19.9958 32.5302 20.9072V26H31.0742ZM30.459 22.459L29.6523 22.4863C29.0462 22.5046 28.595 22.6139 28.2988 22.8145C28.0026 23.015 27.8545 23.3203 27.8545 23.7305C27.8545 24.3184 28.1917 24.6123 28.8662 24.6123C29.3493 24.6123 29.7343 24.4733 30.0215 24.1953C30.3131 23.9173 30.459 23.5482 30.459 23.0879V22.459ZM37.8193 24.4756C38.1839 24.4756 38.6214 24.3958 39.1318 24.2363V25.7881C38.6123 26.0205 37.9742 26.1367 37.2177 26.1367C36.3837 26.1367 35.7753 25.9271 35.3925 25.5078C35.0143 25.084 34.8251 24.4505 34.8251 23.6074V19.9229H33.8271V19.041L34.9755 18.3438L35.5771 16.7305H36.9101V18.3574H39.0498V19.9229H36.9101V23.6074C36.9101 23.9036 36.9921 24.1224 37.1562 24.2637C37.3248 24.4049 37.5459 24.4756 37.8193 24.4756ZM43.7646 19.6973C43.3225 19.6973 42.9762 19.8385 42.7255 20.1211C42.4749 20.3991 42.3313 20.7956 42.2949 21.3105H45.2206C45.2115 20.7956 45.0771 20.3991 44.8173 20.1211C44.5576 19.8385 44.2066 19.6973 43.7646 19.6973ZM44.0585 26.1367C42.8281 26.1367 41.8665 25.7972 41.1738 25.1182C40.4811 24.4391 40.1347 23.4775 40.1347 22.2334C40.1347 20.9528 40.4537 19.9639 41.0917 19.2666C41.7343 18.5648 42.6207 18.2139 43.7509 18.2139C44.831 18.2139 45.6718 18.5215 46.2734 19.1367C46.8749 19.752 47.1757 20.6019 47.1757 21.6865V22.6982H42.247C42.2698 23.2907 42.4452 23.7533 42.7734 24.0859C43.1015 24.4186 43.5618 24.585 44.1542 24.585C44.6145 24.585 45.0497 24.5371 45.4599 24.4414C45.8701 24.3457 46.2984 24.193 46.7451 23.9834V25.5967C46.3805 25.779 45.9908 25.9134 45.5761 26C45.1614 26.0911 44.6555 26.1367 44.0585 26.1367Z" fill="#fff"/><rect width="99" height="99.333" transform="translate(1.5 42)" fill="#171C1E"/><path d="M21.0498 91.5739C21.0498 93.219 20.5804 94.4791 19.6416 95.3541C18.7074 96.2291 17.3561 96.6666 15.5879 96.6666H12.7578V86.6725H15.8955C17.527 86.6725 18.7939 87.1031 19.6963 87.9645C20.5986 88.8258 21.0498 90.0289 21.0498 91.5739ZM18.8486 91.6285C18.8486 89.4821 17.9007 88.4088 16.0049 88.4088H14.877V94.9166H15.7861C17.8278 94.9166 18.8486 93.8206 18.8486 91.6285ZM26.0381 90.3639C25.596 90.3639 25.2497 90.5052 24.999 90.7877C24.7484 91.0657 24.6048 91.4622 24.5683 91.9772H27.4941C27.485 91.4622 27.3506 91.0657 27.0908 90.7877C26.831 90.5052 26.4801 90.3639 26.0381 90.3639ZM26.332 96.8033C25.1015 96.8033 24.14 96.4638 23.4473 95.7848C22.7545 95.1058 22.4082 94.1442 22.4082 92.9C22.4082 91.6194 22.7272 90.6305 23.3652 89.9332C24.0078 89.2314 24.8942 88.8805 26.0244 88.8805C27.1045 88.8805 27.9453 89.1881 28.5469 89.8033C29.1484 90.4186 29.4492 91.2685 29.4492 92.3531V93.3649H24.5205C24.5433 93.9573 24.7187 94.4199 25.0469 94.7526C25.375 95.0852 25.8353 95.2516 26.4277 95.2516C26.888 95.2516 27.3232 95.2037 27.7334 95.108C28.1435 95.0123 28.5719 94.8597 29.0185 94.65V96.2633C28.654 96.4456 28.2643 96.58 27.8496 96.6666C27.4349 96.7578 26.929 96.8033 26.332 96.8033ZM35.2851 90.5895H33.4804V96.6666H31.3955V90.5895H30.247V89.5846L31.3955 89.024V88.4635C31.3955 87.5931 31.6097 86.9573 32.0381 86.5563C32.4664 86.1552 33.1523 85.9547 34.0957 85.9547C34.8157 85.9547 35.456 86.0618 36.0166 86.276L35.4834 87.8073C35.0641 87.6751 34.6767 87.609 34.3213 87.609C34.025 87.609 33.8108 87.6979 33.6787 87.8756C33.5465 88.0488 33.4804 88.2721 33.4804 88.5455V89.024H35.2851V90.5895ZM41.2578 96.6666L40.8544 95.6276H40.7998C40.4488 96.0696 40.0865 96.3772 39.7128 96.5504C39.3437 96.719 38.8606 96.8033 38.2636 96.8033C37.5299 96.8033 36.9511 96.5937 36.5273 96.1744C36.108 95.7552 35.8984 95.1582 35.8984 94.3834C35.8984 93.5722 36.1809 92.9752 36.746 92.5924C37.3157 92.205 38.1725 91.9908 39.3164 91.9498L40.6425 91.9088V91.5739C40.6425 90.7991 40.246 90.4117 39.4531 90.4117C38.8424 90.4117 38.1246 90.5963 37.2998 90.9655L36.6093 89.5573C37.4889 89.097 38.4641 88.8668 39.5351 88.8668C40.5605 88.8668 41.3466 89.0901 41.8935 89.5367C42.4404 89.9834 42.7138 90.6624 42.7138 91.5739V96.6666H41.2578ZM40.6425 93.1256L39.8359 93.153C39.2298 93.1712 38.7786 93.2806 38.4824 93.4811C38.1862 93.6816 38.038 93.9869 38.038 94.3971C38.038 94.985 38.3753 95.2789 39.0498 95.2789C39.5328 95.2789 39.9179 95.1399 40.205 94.8619C40.4967 94.5839 40.6425 94.2148 40.6425 93.7545V93.1256ZM50.1972 96.6666L49.9169 95.6891H49.8076C49.5842 96.0446 49.2675 96.3203 48.8574 96.5162C48.4472 96.7076 47.9801 96.8033 47.456 96.8033C46.5582 96.8033 45.8814 96.5641 45.4257 96.0856C44.97 95.6025 44.7421 94.9098 44.7421 94.0074V89.024H46.8271V93.4879C46.8271 94.0393 46.9251 94.4541 47.121 94.7321C47.317 95.0055 47.6292 95.1422 48.0576 95.1422C48.6409 95.1422 49.0624 94.9485 49.3222 94.5612C49.582 94.1692 49.7119 93.5221 49.7119 92.6198V89.024H51.7968V96.6666H50.1972ZM55.9853 96.6666H53.9003V86.0299H55.9853V96.6666ZM61.3153 95.1422C61.6799 95.1422 62.1174 95.0625 62.6278 94.903V96.4547C62.1083 96.6871 61.4703 96.8033 60.7138 96.8033C59.8798 96.8033 59.2714 96.5937 58.8886 96.1744C58.5103 95.7506 58.3212 95.1171 58.3212 94.274V90.5895H57.3231V89.7076L58.4716 89.0104L59.0731 87.3971H60.4062V89.024H62.5458V90.5895H60.4062V94.274C60.4062 94.5703 60.4882 94.789 60.6522 94.9303C60.8209 95.0716 61.0419 95.1422 61.3153 95.1422Z" fill="#fff"/><rect width="99" height="99.333" transform="translate(1.5 142.333)" fill="#171C1E"/><path d="M14.8428 197H12.7578V187.006H18.4863V188.742H14.8428V191.319H18.2334V193.049H14.8428V197ZM21.8545 193.165C21.8545 193.922 21.9775 194.493 22.2236 194.881C22.4743 195.268 22.8799 195.462 23.4404 195.462C23.9964 195.462 24.3952 195.271 24.6367 194.888C24.8828 194.5 25.0058 193.926 25.0058 193.165C25.0058 192.409 24.8828 191.841 24.6367 191.463C24.3906 191.085 23.9873 190.896 23.4267 190.896C22.8708 190.896 22.4697 191.085 22.2236 191.463C21.9775 191.837 21.8545 192.404 21.8545 193.165ZM27.1387 193.165C27.1387 194.409 26.8105 195.382 26.1543 196.084C25.498 196.786 24.5843 197.137 23.4131 197.137C22.6793 197.137 22.0322 196.977 21.4717 196.658C20.9111 196.335 20.4805 195.872 20.1797 195.271C19.8789 194.669 19.7285 193.967 19.7285 193.165C19.7285 191.916 20.0543 190.946 20.706 190.253C21.3577 189.56 22.2737 189.214 23.4541 189.214C24.1878 189.214 24.8349 189.373 25.3955 189.692C25.956 190.011 26.3867 190.469 26.6875 191.066C26.9883 191.663 27.1387 192.363 27.1387 193.165ZM31.8808 197.137C29.5019 197.137 28.3125 195.831 28.3125 193.22C28.3125 191.921 28.636 190.93 29.2832 190.246C29.9303 189.558 30.8577 189.214 32.0654 189.214C32.9495 189.214 33.7425 189.387 34.4443 189.733L33.8291 191.347C33.5009 191.215 33.1956 191.107 32.9131 191.025C32.6305 190.939 32.348 190.896 32.0654 190.896C30.9808 190.896 30.4384 191.666 30.4384 193.206C30.4384 194.701 30.9808 195.448 32.0654 195.448C32.4664 195.448 32.8379 195.396 33.1797 195.291C33.5215 195.182 33.8633 195.013 34.205 194.785V196.569C33.8678 196.784 33.526 196.932 33.1797 197.014C32.8379 197.096 32.4049 197.137 31.8808 197.137ZM41.3125 197L41.0322 196.022H40.9228C40.6995 196.378 40.3828 196.654 39.9726 196.85C39.5625 197.041 39.0953 197.137 38.5712 197.137C37.6735 197.137 36.9967 196.897 36.541 196.419C36.0852 195.936 35.8574 195.243 35.8574 194.341V189.357H37.9423V193.821C37.9423 194.373 38.0403 194.787 38.2363 195.065C38.4322 195.339 38.7444 195.476 39.1728 195.476C39.7561 195.476 40.1777 195.282 40.4375 194.895C40.6972 194.503 40.8271 193.855 40.8271 192.953V189.357H42.9121V197H41.3125ZM50.3476 194.73C50.3476 195.514 50.0742 196.111 49.5273 196.521C48.985 196.932 48.1715 197.137 47.0869 197.137C46.5309 197.137 46.0569 197.098 45.665 197.021C45.2731 196.948 44.9062 196.838 44.5644 196.692V194.97C44.9518 195.152 45.387 195.305 45.8701 195.428C46.3577 195.551 46.7861 195.612 47.1552 195.612C47.9117 195.612 48.29 195.394 48.29 194.956C48.29 194.792 48.2398 194.66 48.1396 194.56C48.0393 194.455 47.8661 194.339 47.6201 194.211C47.374 194.079 47.0458 193.926 46.6357 193.753C46.0478 193.507 45.6148 193.279 45.3369 193.069C45.0634 192.86 44.8629 192.62 44.7353 192.352C44.6122 192.078 44.5507 191.743 44.5507 191.347C44.5507 190.668 44.8128 190.144 45.3369 189.774C45.8655 189.401 46.6129 189.214 47.579 189.214C48.4996 189.214 49.3951 189.414 50.2656 189.815L49.6367 191.319C49.2538 191.155 48.8961 191.021 48.5634 190.916C48.2307 190.811 47.8912 190.759 47.5449 190.759C46.9296 190.759 46.622 190.925 46.622 191.258C46.622 191.445 46.72 191.606 46.916 191.743C47.1165 191.88 47.5517 192.083 48.2216 192.352C48.8186 192.593 49.2561 192.819 49.5341 193.028C49.8121 193.238 50.0172 193.479 50.1494 193.753C50.2815 194.026 50.3476 194.352 50.3476 194.73Z" fill="#fff"/><rect width="677" height="40" transform="translate(101.5 1)" fill="#464B52"/><path d="M118.514 26H112.758V16.0059H118.514V17.7422H114.877V19.9365H118.261V21.6729H114.877V24.25H118.514V26ZM121.923 22.0967L119.462 18.3574H121.827L123.311 20.791L124.808 18.3574H127.173L124.685 22.0967L127.289 26H124.917L123.311 23.3818L121.697 26H119.332L121.923 22.0967ZM133.221 26L132.817 24.9609H132.763C132.412 25.403 132.049 25.7106 131.676 25.8838C131.307 26.0524 130.824 26.1367 130.227 26.1367C129.493 26.1367 128.914 25.9271 128.49 25.5078C128.071 25.0885 127.861 24.4915 127.861 23.7168C127.861 22.9056 128.144 22.3086 128.709 21.9258C129.279 21.5384 130.135 21.3242 131.279 21.2832L132.605 21.2422V20.9072C132.605 20.1325 132.209 19.7451 131.416 19.7451C130.805 19.7451 130.088 19.9297 129.263 20.2988L128.572 18.8906C129.452 18.4303 130.427 18.2002 131.498 18.2002C132.523 18.2002 133.31 18.4235 133.856 18.8701C134.403 19.3167 134.677 19.9958 134.677 20.9072V26H133.221ZM132.605 22.459L131.799 22.4863C131.193 22.5046 130.742 22.6139 130.445 22.8145C130.149 23.015 130.001 23.3203 130.001 23.7305C130.001 24.3184 130.338 24.6123 131.013 24.6123C131.496 24.6123 131.881 24.4733 132.168 24.1953C132.46 23.9173 132.605 23.5482 132.605 23.0879V22.459ZM143.589 26H141.504V21.5361C141.504 20.9847 141.41 20.5723 141.224 20.2988C141.041 20.0208 140.752 19.8818 140.355 19.8818C139.822 19.8818 139.435 20.0778 139.193 20.4697C138.952 20.8617 138.831 21.5065 138.831 22.4043V26H136.746V18.3574H138.339L138.619 19.335H138.735C138.94 18.984 139.237 18.7106 139.624 18.5146C140.011 18.3141 140.456 18.2139 140.957 18.2139C142.101 18.2139 142.876 18.5876 143.281 19.335H143.466C143.671 18.9795 143.972 18.7038 144.368 18.5078C144.769 18.3118 145.22 18.2139 145.722 18.2139C146.588 18.2139 147.241 18.4372 147.684 18.8838C148.13 19.3258 148.353 20.0368 148.353 21.0166V26H146.262V21.5361C146.262 20.9847 146.168 20.5723 145.981 20.2988C145.799 20.0208 145.51 19.8818 145.113 19.8818C144.603 19.8818 144.22 20.0641 143.965 20.4287C143.714 20.7933 143.589 21.3721 143.589 22.165V26ZM154.613 26.1367C153.715 26.1367 153.011 25.8109 152.501 25.1592H152.392C152.464 25.7972 152.501 26.1663 152.501 26.2666V29.3633H150.416V18.3574H152.111L152.405 19.3486H152.501C152.989 18.5921 153.711 18.2139 154.668 18.2139C155.57 18.2139 156.277 18.5625 156.787 19.2598C157.297 19.957 157.553 20.9255 157.553 22.165C157.553 22.9808 157.432 23.6895 157.19 24.291C156.953 24.8926 156.614 25.3506 156.172 25.665C155.73 25.9795 155.21 26.1367 154.613 26.1367ZM153.998 19.8818C153.483 19.8818 153.107 20.0413 152.87 20.3604C152.633 20.6748 152.51 21.1966 152.501 21.9258V22.1514C152.501 22.9717 152.622 23.5596 152.863 23.915C153.109 24.2705 153.497 24.4482 154.025 24.4482C154.96 24.4482 155.427 23.6781 155.427 22.1377C155.427 21.3857 155.31 20.8229 155.078 20.4492C154.85 20.071 154.49 19.8818 153.998 19.8818ZM161.276 26H159.191V15.3633H161.276V26ZM166.552 19.6973C166.11 19.6973 165.763 19.8385 165.513 20.1211C165.262 20.3991 165.118 20.7956 165.082 21.3105H168.008C167.999 20.7956 167.864 20.3991 167.604 20.1211C167.345 19.8385 166.994 19.6973 166.552 19.6973ZM166.846 26.1367C165.615 26.1367 164.654 25.7972 163.961 25.1182C163.268 24.4391 162.922 23.4775 162.922 22.2334C162.922 20.9528 163.241 19.9639 163.879 19.2666C164.521 18.5648 165.408 18.2139 166.538 18.2139C167.618 18.2139 168.459 18.5215 169.06 19.1367C169.662 19.752 169.963 20.6019 169.963 21.6865V22.6982H165.034C165.057 23.2907 165.232 23.7533 165.56 24.0859C165.889 24.4186 166.349 24.585 166.941 24.585C167.402 24.585 167.837 24.5371 168.247 24.4414C168.657 24.3457 169.086 24.193 169.532 23.9834V25.5967C169.168 25.779 168.778 25.9134 168.363 26C167.948 26.0911 167.443 26.1367 166.846 26.1367Z" fill="#fff"/><rect width="677" height="99.333" transform="translate(101.5 42)" fill="#171C1E"/><path d="M362.469 96.3702H356.48V95.1105L358.631 92.9366C359.268 92.2843 359.684 91.8331 359.879 91.5831C360.074 91.3292 360.215 91.0948 360.301 90.88C360.387 90.6652 360.43 90.4425 360.43 90.212C360.43 89.8683 360.334 89.6124 360.143 89.4445C359.955 89.2765 359.703 89.1925 359.387 89.1925C359.055 89.1925 358.732 89.2687 358.42 89.421C358.107 89.5734 357.781 89.7902 357.441 90.0714L356.457 88.9054C356.879 88.546 357.229 88.2921 357.506 88.1437C357.783 87.9952 358.086 87.882 358.414 87.8038C358.742 87.7218 359.109 87.6808 359.516 87.6808C360.051 87.6808 360.523 87.7784 360.934 87.9738C361.344 88.1691 361.662 88.4425 361.889 88.7941C362.115 89.1456 362.229 89.548 362.229 90.0011C362.229 90.3956 362.158 90.7667 362.018 91.1144C361.881 91.4581 361.666 91.8116 361.373 92.1749C361.084 92.5382 360.572 93.0558 359.838 93.7277L358.736 94.7648V94.8468H362.469V96.3702ZM369.446 94.5948H368.414V96.3702H366.645V94.5948H362.989V93.3351L366.744 87.8038H368.414V93.1886H369.446V94.5948ZM366.645 93.1886V91.7355C366.645 91.4933 366.655 91.1417 366.674 90.6808C366.694 90.2198 366.709 89.9523 366.721 89.8781H366.674C366.53 90.1984 366.356 90.5109 366.153 90.8156L364.582 93.1886H366.645ZM372.579 96.4874C371.809 96.4874 371.204 96.1886 370.762 95.5909C370.325 94.9933 370.106 94.1652 370.106 93.1066C370.106 92.0323 370.329 91.1964 370.774 90.5988C371.223 89.9972 371.84 89.6964 372.626 89.6964C373.45 89.6964 374.079 90.0167 374.512 90.6573H374.571C374.481 90.1691 374.436 89.7335 374.436 89.3507V87.2531H376.229V96.3702H374.858L374.512 95.5206H374.436C374.03 96.1652 373.411 96.4874 372.579 96.4874ZM373.206 95.0636C373.663 95.0636 373.997 94.9308 374.208 94.6652C374.422 94.3995 374.54 93.9484 374.559 93.3116V93.1183C374.559 92.4152 374.45 91.9113 374.231 91.6066C374.016 91.3019 373.665 91.1495 373.176 91.1495C372.778 91.1495 372.467 91.3195 372.245 91.6593C372.026 91.9952 371.917 92.4855 371.917 93.13C371.917 93.7745 372.028 94.2589 372.251 94.5831C372.473 94.9034 372.792 95.0636 373.206 95.0636ZM381.624 96.4874C380.854 96.4874 380.251 96.2081 379.813 95.6495H379.72C379.782 96.1964 379.813 96.5128 379.813 96.5988V99.2531H378.026V89.8195H379.479L379.731 90.6691H379.813C380.231 90.0206 380.85 89.6964 381.671 89.6964C382.444 89.6964 383.05 89.9952 383.487 90.5929C383.925 91.1906 384.143 92.0206 384.143 93.0831C384.143 93.7823 384.04 94.3898 383.833 94.9054C383.63 95.421 383.339 95.8136 382.96 96.0831C382.581 96.3527 382.136 96.4874 381.624 96.4874ZM381.097 91.1261C380.655 91.1261 380.333 91.2628 380.13 91.5363C379.927 91.8058 379.821 92.2531 379.813 92.8781V93.0714C379.813 93.7745 379.917 94.2784 380.124 94.5831C380.335 94.8878 380.667 95.0402 381.12 95.0402C381.921 95.0402 382.321 94.38 382.321 93.0597C382.321 92.4152 382.222 91.9327 382.022 91.6124C381.827 91.2882 381.518 91.1261 381.097 91.1261Z" fill="#4091D2"/><path d="M399 80.6666H390V102.667H399" stroke="#4091D2"/><g clip-path="url(#clip0_6847_90046)"><path fill-rule="evenodd" clip-rule="evenodd" d="M423.667 79.6666H442.333C443.813 79.6666 445 80.8666 445 82.3333V101C445 102.467 443.813 103.667 442.333 103.667H423.667C422.187 103.667 421 102.467 421 101V82.3333C421 80.8666 422.187 79.6666 423.667 79.6666ZM423.667 91.6666L430.333 98.3333L442.333 86.3333L440.453 84.44L430.333 94.56L425.547 89.7866L423.667 91.6666Z" fill="#019AEB"/><path fill-rule="evenodd" clip-rule="evenodd" d="M423.667 91.6666L430.333 98.3333L442.333 86.3333L440.453 84.44L430.333 94.56L425.547 89.7866L423.667 91.6666Z" fill="#fff"/></g><path d="M467 77H476V108H467" stroke="#4091D2"/><path d="M492.135 87.72C492.135 88.2551 491.973 88.7102 491.648 89.0852C491.324 89.4602 490.869 89.718 490.283 89.8586V89.8938C490.975 89.9797 491.498 90.1907 491.854 90.5266C492.209 90.8586 492.387 91.3079 492.387 91.8743C492.387 92.6985 492.088 93.3411 491.49 93.802C490.893 94.259 490.039 94.4875 488.93 94.4875C488 94.4875 487.176 94.3333 486.457 94.0247V92.4836C486.789 92.6516 487.154 92.7883 487.553 92.8938C487.951 92.9993 488.346 93.052 488.736 93.052C489.334 93.052 489.775 92.9504 490.061 92.7473C490.346 92.5442 490.488 92.218 490.488 91.7688C490.488 91.3665 490.324 91.0813 489.996 90.9133C489.668 90.7454 489.145 90.6614 488.426 90.6614H487.775V89.2727H488.438C489.102 89.2727 489.586 89.1868 489.891 89.0149C490.199 88.8391 490.354 88.5403 490.354 88.1184C490.354 87.47 489.947 87.1458 489.135 87.1458C488.854 87.1458 488.566 87.1926 488.273 87.2864C487.984 87.3801 487.662 87.5422 487.307 87.7727L486.469 86.5247C487.25 85.9622 488.182 85.6809 489.264 85.6809C490.15 85.6809 490.85 85.8606 491.361 86.22C491.877 86.5793 492.135 87.0793 492.135 87.72ZM499.252 94.3704H493.264V93.1106L495.414 90.9368C496.051 90.2844 496.467 89.8333 496.662 89.5833C496.858 89.3293 496.998 89.095 497.084 88.8801C497.17 88.6653 497.213 88.4426 497.213 88.2122C497.213 87.8684 497.117 87.6125 496.926 87.4446C496.739 87.2766 496.487 87.1926 496.17 87.1926C495.838 87.1926 495.516 87.2688 495.203 87.4211C494.891 87.5735 494.565 87.7903 494.225 88.0715L493.24 86.9055C493.662 86.5461 494.012 86.2922 494.289 86.1438C494.567 85.9954 494.869 85.8821 495.198 85.804C495.526 85.7219 495.893 85.6809 496.299 85.6809C496.834 85.6809 497.307 85.7786 497.717 85.9739C498.127 86.1692 498.446 86.4426 498.672 86.7942C498.899 87.1458 499.012 87.5481 499.012 88.0012C499.012 88.3958 498.942 88.7668 498.801 89.1145C498.664 89.4583 498.449 89.8118 498.157 90.175C497.867 90.5383 497.356 91.0559 496.621 91.7278L495.52 92.7649V92.8469H499.252V94.3704ZM502.579 94.4875C501.809 94.4875 501.204 94.1887 500.762 93.5911C500.325 92.9934 500.106 92.1653 500.106 91.1067C500.106 90.0325 500.329 89.1965 500.774 88.5989C501.223 87.9973 501.84 87.6965 502.626 87.6965C503.45 87.6965 504.079 88.0168 504.512 88.6575H504.571C504.481 88.1692 504.436 87.7336 504.436 87.3508V85.2532H506.229V94.3704H504.858L504.512 93.5208H504.436C504.03 94.1653 503.411 94.4875 502.579 94.4875ZM503.206 93.0637C503.663 93.0637 503.997 92.9309 504.208 92.6653C504.422 92.3997 504.54 91.9485 504.559 91.3118V91.1184C504.559 90.4153 504.45 89.9114 504.231 89.6067C504.016 89.302 503.665 89.1497 503.176 89.1497C502.778 89.1497 502.467 89.3196 502.245 89.6594C502.026 89.9954 501.917 90.4856 501.917 91.1301C501.917 91.7747 502.028 92.259 502.251 92.5833C502.473 92.9036 502.792 93.0637 503.206 93.0637ZM511.624 94.4875C510.854 94.4875 510.251 94.2083 509.813 93.6497H509.72C509.782 94.1965 509.813 94.5129 509.813 94.5989V97.2532H508.026V87.8196H509.479L509.731 88.6692H509.813C510.231 88.0208 510.85 87.6965 511.671 87.6965C512.444 87.6965 513.05 87.9954 513.487 88.593C513.925 89.1907 514.143 90.0208 514.143 91.0833C514.143 91.7825 514.04 92.3899 513.833 92.9055C513.63 93.4211 513.339 93.8137 512.96 94.0833C512.581 94.3528 512.136 94.4875 511.624 94.4875ZM511.097 89.1262C510.655 89.1262 510.333 89.2629 510.13 89.5364C509.927 89.8059 509.821 90.2532 509.813 90.8782V91.0715C509.813 91.7747 509.917 92.2786 510.124 92.5833C510.335 92.8879 510.667 93.0403 511.12 93.0403C511.921 93.0403 512.321 92.3801 512.321 91.0598C512.321 90.4153 512.222 89.9329 512.022 89.6125C511.827 89.2883 511.518 89.1262 511.097 89.1262Z" fill="#4091D2"/><rect width="677" height="99.333" transform="translate(101.5 142.333)" fill="#171C1E"/><path d="M309.365 196.704H307.578V188.137H312.488V189.626H309.365V191.835H312.271V193.317H309.365V196.704ZM315.375 193.417C315.375 194.065 315.481 194.555 315.692 194.887C315.907 195.219 316.254 195.385 316.735 195.385C317.211 195.385 317.553 195.221 317.76 194.893C317.971 194.561 318.076 194.069 318.076 193.417C318.076 192.768 317.971 192.282 317.76 191.958C317.549 191.633 317.203 191.471 316.723 191.471C316.246 191.471 315.903 191.633 315.692 191.958C315.481 192.278 315.375 192.764 315.375 193.417ZM319.905 193.417C319.905 194.483 319.623 195.317 319.061 195.919C318.498 196.52 317.715 196.821 316.711 196.821C316.082 196.821 315.528 196.684 315.047 196.411C314.567 196.133 314.198 195.737 313.94 195.221C313.682 194.706 313.553 194.104 313.553 193.417C313.553 192.346 313.832 191.514 314.391 190.921C314.949 190.327 315.735 190.03 316.746 190.03C317.375 190.03 317.93 190.167 318.41 190.44C318.891 190.714 319.26 191.106 319.518 191.618C319.776 192.13 319.905 192.729 319.905 193.417ZM323.969 196.821C321.93 196.821 320.911 195.702 320.911 193.464C320.911 192.35 321.188 191.501 321.743 190.915C322.297 190.325 323.092 190.03 324.127 190.03C324.885 190.03 325.565 190.178 326.167 190.475L325.639 191.858C325.358 191.745 325.096 191.653 324.854 191.583C324.612 191.508 324.37 191.471 324.127 191.471C323.198 191.471 322.733 192.131 322.733 193.452C322.733 194.733 323.198 195.374 324.127 195.374C324.471 195.374 324.79 195.329 325.083 195.239C325.376 195.145 325.668 195.001 325.961 194.805V196.335C325.672 196.518 325.379 196.645 325.083 196.715C324.79 196.786 324.418 196.821 323.969 196.821ZM332.054 196.704L331.813 195.866H331.72C331.528 196.171 331.257 196.407 330.905 196.575C330.554 196.739 330.153 196.821 329.704 196.821C328.934 196.821 328.354 196.616 327.964 196.206C327.573 195.792 327.378 195.198 327.378 194.424V190.153H329.165V193.979C329.165 194.452 329.249 194.807 329.417 195.046C329.585 195.28 329.852 195.397 330.22 195.397C330.72 195.397 331.081 195.231 331.304 194.899C331.526 194.563 331.638 194.008 331.638 193.235V190.153H333.425V196.704H332.054ZM339.798 194.758C339.798 195.43 339.564 195.942 339.095 196.294C338.63 196.645 337.933 196.821 337.003 196.821C336.526 196.821 336.12 196.788 335.784 196.721C335.448 196.659 335.134 196.565 334.841 196.44V194.964C335.173 195.12 335.546 195.251 335.96 195.356C336.378 195.462 336.745 195.514 337.062 195.514C337.71 195.514 338.034 195.327 338.034 194.952C338.034 194.811 337.991 194.698 337.905 194.612C337.819 194.522 337.671 194.422 337.46 194.313C337.249 194.2 336.968 194.069 336.616 193.921C336.112 193.71 335.741 193.514 335.503 193.335C335.269 193.155 335.097 192.95 334.987 192.719C334.882 192.485 334.829 192.198 334.829 191.858C334.829 191.276 335.054 190.827 335.503 190.51C335.956 190.19 336.597 190.03 337.425 190.03C338.214 190.03 338.982 190.202 339.728 190.546L339.189 191.835C338.86 191.694 338.554 191.579 338.269 191.489C337.983 191.399 337.692 191.354 337.396 191.354C336.868 191.354 336.605 191.497 336.605 191.782C336.605 191.942 336.689 192.081 336.857 192.198C337.028 192.315 337.401 192.489 337.976 192.719C338.487 192.926 338.862 193.12 339.101 193.299C339.339 193.479 339.515 193.686 339.628 193.921C339.741 194.155 339.798 194.434 339.798 194.758ZM348.736 194.758C348.736 195.43 348.502 195.942 348.033 196.294C347.568 196.645 346.871 196.821 345.941 196.821C345.464 196.821 345.058 196.788 344.722 196.721C344.386 196.659 344.072 196.565 343.779 196.44V194.964C344.111 195.12 344.484 195.251 344.898 195.356C345.316 195.462 345.683 195.514 346 195.514C346.648 195.514 346.972 195.327 346.972 194.952C346.972 194.811 346.929 194.698 346.843 194.612C346.757 194.522 346.609 194.422 346.398 194.313C346.187 194.2 345.906 194.069 345.554 193.921C345.05 193.71 344.679 193.514 344.441 193.335C344.207 193.155 344.035 192.95 343.925 192.719C343.82 192.485 343.767 192.198 343.767 191.858C343.767 191.276 343.992 190.827 344.441 190.51C344.894 190.19 345.535 190.03 346.363 190.03C347.152 190.03 347.92 190.202 348.666 190.546L348.127 191.835C347.798 191.694 347.492 191.579 347.207 191.489C346.922 191.399 346.631 191.354 346.334 191.354C345.806 191.354 345.543 191.497 345.543 191.782C345.543 191.942 345.627 192.081 345.795 192.198C345.966 192.315 346.339 192.489 346.914 192.719C347.425 192.926 347.8 193.12 348.039 193.299C348.277 193.479 348.453 193.686 348.566 193.921C348.679 194.155 348.736 194.434 348.736 194.758ZM352.818 195.397C353.131 195.397 353.506 195.329 353.943 195.192V196.522C353.498 196.721 352.951 196.821 352.303 196.821C351.588 196.821 351.066 196.641 350.738 196.282C350.414 195.919 350.252 195.376 350.252 194.653V191.495H349.396V190.739L350.381 190.141L350.896 188.758H352.039V190.153H353.873V191.495H352.039V194.653C352.039 194.907 352.109 195.094 352.25 195.215C352.394 195.337 352.584 195.397 352.818 195.397ZM356.625 193.417C356.625 194.065 356.731 194.555 356.942 194.887C357.156 195.219 357.504 195.385 357.985 195.385C358.461 195.385 358.803 195.221 359.01 194.893C359.221 194.561 359.326 194.069 359.326 193.417C359.326 192.768 359.221 192.282 359.01 191.958C358.799 191.633 358.453 191.471 357.973 191.471C357.496 191.471 357.153 191.633 356.942 191.958C356.731 192.278 356.625 192.764 356.625 193.417ZM361.154 193.417C361.154 194.483 360.873 195.317 360.311 195.919C359.748 196.52 358.965 196.821 357.961 196.821C357.332 196.821 356.778 196.684 356.297 196.411C355.817 196.133 355.447 195.737 355.19 195.221C354.932 194.706 354.803 194.104 354.803 193.417C354.803 192.346 355.082 191.514 355.641 190.921C356.199 190.327 356.985 190.03 357.996 190.03C358.625 190.03 359.18 190.167 359.66 190.44C360.141 190.714 360.51 191.106 360.768 191.618C361.026 192.13 361.154 192.729 361.154 193.417ZM364.276 193.141L365.055 192.145L366.889 190.153H368.905L366.303 192.995L369.063 196.704H367L365.114 194.049L364.346 194.665V196.704H362.559V187.587H364.346V191.653L364.252 193.141H364.276ZM372.641 191.301C372.262 191.301 371.966 191.422 371.751 191.665C371.536 191.903 371.413 192.243 371.382 192.684H373.889C373.882 192.243 373.766 191.903 373.544 191.665C373.321 191.422 373.02 191.301 372.641 191.301ZM372.893 196.821C371.839 196.821 371.014 196.53 370.421 195.948C369.827 195.366 369.53 194.542 369.53 193.475C369.53 192.378 369.803 191.53 370.35 190.932C370.901 190.331 371.661 190.03 372.63 190.03C373.555 190.03 374.276 190.294 374.792 190.821C375.307 191.348 375.565 192.077 375.565 193.006V193.874H371.341C371.36 194.381 371.51 194.778 371.792 195.063C372.073 195.348 372.467 195.491 372.975 195.491C373.37 195.491 373.743 195.45 374.094 195.368C374.446 195.286 374.813 195.155 375.196 194.975V196.358C374.884 196.514 374.55 196.63 374.194 196.704C373.839 196.782 373.405 196.821 372.893 196.821ZM388.72 194.735H387.449V196.704H386.517V194.735H382.351V193.885L386.418 188.09H387.449V193.85H388.72V194.735ZM386.517 193.85V191.003C386.517 190.444 386.537 189.813 386.576 189.11H386.529C386.341 189.485 386.166 189.796 386.002 190.042L383.324 193.85H386.517ZM394.297 195.842H394.244C393.795 196.495 393.123 196.821 392.228 196.821C391.388 196.821 390.734 196.534 390.265 195.96C389.801 195.385 389.568 194.569 389.568 193.51C389.568 192.452 389.803 191.63 390.271 191.044C390.74 190.458 391.392 190.165 392.228 190.165C393.099 190.165 393.767 190.481 394.232 191.114H394.308L394.267 190.651L394.244 190.2V187.587H395.217V196.704H394.426L394.297 195.842ZM392.351 196.006C393.015 196.006 393.496 195.827 393.793 195.467C394.094 195.104 394.244 194.52 394.244 193.715V193.51C394.244 192.6 394.092 191.952 393.787 191.565C393.486 191.174 393.004 190.979 392.34 190.979C391.769 190.979 391.332 191.202 391.027 191.647C390.726 192.089 390.576 192.714 390.576 193.522C390.576 194.342 390.726 194.962 391.027 195.38C391.328 195.797 391.769 196.006 392.351 196.006ZM400.201 196.821C399.783 196.821 399.4 196.745 399.053 196.592C398.709 196.436 398.42 196.198 398.186 195.878H398.115C398.162 196.253 398.186 196.608 398.186 196.944V199.587H397.213V190.282H398.004L398.139 191.161H398.186C398.436 190.809 398.727 190.555 399.059 190.399C399.391 190.243 399.772 190.165 400.201 190.165C401.053 190.165 401.709 190.456 402.17 191.038C402.635 191.62 402.867 192.436 402.867 193.487C402.867 194.542 402.631 195.362 402.158 195.948C401.69 196.53 401.037 196.821 400.201 196.821ZM400.061 190.991C399.404 190.991 398.93 191.172 398.637 191.536C398.344 191.899 398.193 192.477 398.186 193.27V193.487C398.186 194.389 398.336 195.036 398.637 195.426C398.938 195.813 399.42 196.006 400.084 196.006C400.639 196.006 401.072 195.782 401.385 195.333C401.701 194.883 401.859 194.264 401.859 193.475C401.859 192.674 401.701 192.061 401.385 191.635C401.072 191.206 400.631 190.991 400.061 190.991Z" fill="#fff"/><path d="M295.5 215V169H433.327V177.932L440.5 184.631L433.327 190.884V215H295.5Z" stroke="#CCC"/><path d="M485.5 175H463.5C460.186 175 457.5 177.686 457.5 181V203C457.5 206.314 460.186 209 463.5 209H485.5C488.814 209 491.5 206.314 491.5 203V181C491.5 177.686 488.814 175 485.5 175Z" stroke="#0084FF" stroke-width="4"/><path fill-rule="evenodd" clip-rule="evenodd" d="M465.167 180H483.833C485.313 180 486.5 181.2 486.5 182.667V201.333C486.5 202.8 485.313 204 483.833 204H465.167C463.687 204 462.5 202.8 462.5 201.333V182.667C462.5 181.2 463.687 180 465.167 180ZM465.167 192L471.833 198.667L483.833 186.667L481.953 184.773L471.833 194.893L467.047 190.12L465.167 192Z" fill="#019AEB"/><path fill-rule="evenodd" clip-rule="evenodd" d="M465.167 192L471.833 198.667L483.833 186.667L481.953 184.773L471.833 194.893L467.047 190.12L465.167 192Z" fill="#fff"/><path d="M508.5 173H517.5V211H508.5" stroke="#4091D2"/><path d="M533.635 187.086C533.635 187.621 533.473 188.076 533.148 188.451C532.824 188.826 532.369 189.084 531.783 189.224V189.26C532.475 189.345 532.998 189.556 533.354 189.892C533.709 190.224 533.887 190.674 533.887 191.24C533.887 192.064 533.588 192.707 532.99 193.168C532.393 193.625 531.539 193.853 530.43 193.853C529.5 193.853 528.676 193.699 527.957 193.39V191.849C528.289 192.017 528.654 192.154 529.053 192.26C529.451 192.365 529.846 192.418 530.236 192.418C530.834 192.418 531.275 192.316 531.561 192.113C531.846 191.91 531.988 191.584 531.988 191.135C531.988 190.732 531.824 190.447 531.496 190.279C531.168 190.111 530.645 190.027 529.926 190.027H529.275V188.638H529.938C530.602 188.638 531.086 188.552 531.391 188.381C531.699 188.205 531.854 187.906 531.854 187.484C531.854 186.836 531.447 186.511 530.635 186.511C530.354 186.511 530.066 186.558 529.773 186.652C529.484 186.746 529.162 186.908 528.807 187.138L527.969 185.89C528.75 185.328 529.682 185.047 530.764 185.047C531.65 185.047 532.35 185.226 532.861 185.586C533.377 185.945 533.635 186.445 533.635 187.086ZM540.705 189.453C540.705 190.949 540.459 192.056 539.967 192.775C539.479 193.494 538.725 193.853 537.705 193.853C536.717 193.853 535.971 193.482 535.467 192.74C534.967 191.998 534.717 190.902 534.717 189.453C534.717 187.941 534.961 186.828 535.449 186.113C535.938 185.394 536.69 185.035 537.705 185.035C538.694 185.035 539.44 185.41 539.944 186.16C540.451 186.91 540.705 188.008 540.705 189.453ZM536.516 189.453C536.516 190.504 536.606 191.258 536.785 191.715C536.969 192.168 537.276 192.394 537.705 192.394C538.127 192.394 538.432 192.164 538.619 191.703C538.807 191.242 538.901 190.492 538.901 189.453C538.901 188.402 538.805 187.648 538.614 187.191C538.426 186.73 538.123 186.5 537.705 186.5C537.28 186.5 536.975 186.73 536.791 187.191C536.608 187.648 536.516 188.402 536.516 189.453ZM544.079 193.853C543.309 193.853 542.704 193.554 542.262 192.957C541.825 192.359 541.606 191.531 541.606 190.472C541.606 189.398 541.829 188.562 542.274 187.965C542.723 187.363 543.34 187.062 544.126 187.062C544.95 187.062 545.579 187.383 546.012 188.023H546.071C545.981 187.535 545.936 187.099 545.936 186.717V184.619H547.729V193.736H546.358L546.012 192.886H545.936C545.53 193.531 544.911 193.853 544.079 193.853ZM544.706 192.429C545.163 192.429 545.497 192.297 545.708 192.031C545.922 191.765 546.04 191.314 546.059 190.677V190.484C546.059 189.781 545.95 189.277 545.731 188.972C545.516 188.668 545.165 188.515 544.676 188.515C544.278 188.515 543.967 188.685 543.745 189.025C543.526 189.361 543.417 189.851 543.417 190.496C543.417 191.14 543.528 191.625 543.751 191.949C543.973 192.269 544.292 192.429 544.706 192.429ZM553.124 193.853C552.354 193.853 551.751 193.574 551.313 193.015H551.22C551.282 193.562 551.313 193.879 551.313 193.965V196.619H549.526V187.185H550.979L551.231 188.035H551.313C551.731 187.386 552.35 187.062 553.171 187.062C553.944 187.062 554.55 187.361 554.987 187.959C555.425 188.556 555.643 189.386 555.643 190.449C555.643 191.148 555.54 191.756 555.333 192.271C555.13 192.787 554.839 193.179 554.46 193.449C554.081 193.719 553.636 193.853 553.124 193.853ZM552.597 188.492C552.155 188.492 551.833 188.629 551.63 188.902C551.427 189.172 551.321 189.619 551.313 190.244V190.437C551.313 191.14 551.417 191.644 551.624 191.949C551.835 192.254 552.167 192.406 552.62 192.406C553.421 192.406 553.821 191.746 553.821 190.426C553.821 189.781 553.722 189.299 553.522 188.978C553.327 188.654 553.018 188.492 552.597 188.492Z" fill="#4091D2"/><rect width="78" height="242.667" transform="translate(779.5)" fill="#585C65"/><rect width="78" height="40" transform="translate(779.5 1)" fill="#464B52"/><path d="M798.947 26H796.835V21.6865H792.877V26H790.758V16.0059H792.877V19.9229H796.835V16.0059H798.947V26ZM804.394 19.6973C803.951 19.6973 803.605 19.8385 803.354 20.1211C803.104 20.3991 802.96 20.7956 802.924 21.3105H805.85C805.84 20.7956 805.706 20.3991 805.446 20.1211C805.187 19.8385 804.836 19.6973 804.394 19.6973ZM804.687 26.1367C803.457 26.1367 802.495 25.7972 801.803 25.1182C801.11 24.4391 800.764 23.4775 800.764 22.2334C800.764 20.9528 801.083 19.9639 801.721 19.2666C802.363 18.5648 803.25 18.2139 804.38 18.2139C805.46 18.2139 806.301 18.5215 806.902 19.1367C807.504 19.752 807.805 20.6019 807.805 21.6865V22.6982H802.876C802.899 23.2907 803.074 23.7533 803.402 24.0859C803.73 24.4186 804.191 24.585 804.783 24.585C805.243 24.585 805.679 24.5371 806.089 24.4414C806.499 24.3457 806.927 24.193 807.374 23.9834V25.5967C807.009 25.779 806.62 25.9134 806.205 26C805.79 26.0911 805.284 26.1367 804.687 26.1367ZM809.327 16.3818C809.327 15.7028 809.705 15.3633 810.462 15.3633C811.218 15.3633 811.597 15.7028 811.597 16.3818C811.597 16.7054 811.501 16.9583 811.31 17.1406C811.123 17.3184 810.84 17.4072 810.462 17.4072C809.705 17.4072 809.327 17.0654 809.327 16.3818ZM811.501 26H809.416V18.3574H811.501V26ZM820.263 18.3574V19.417L819.066 19.7246C819.285 20.0664 819.394 20.4492 819.394 20.873C819.394 21.6934 819.107 22.3337 818.533 22.7939C817.963 23.2497 817.171 23.4775 816.154 23.4775L815.778 23.457L815.471 23.4229C815.256 23.5869 815.149 23.7692 815.149 23.9697C815.149 24.2705 815.532 24.4209 816.298 24.4209H817.597C818.435 24.4209 819.073 24.6009 819.511 24.9609C819.953 25.321 820.174 25.8496 820.174 26.5469C820.174 27.4401 819.8 28.1328 819.053 28.625C818.31 29.1172 817.241 29.3633 815.847 29.3633C814.78 29.3633 813.964 29.1764 813.399 28.8027C812.839 28.4336 812.559 27.9141 812.559 27.2441C812.559 26.7839 812.702 26.3988 812.989 26.0889C813.276 25.779 813.698 25.5579 814.254 25.4258C814.04 25.3346 813.853 25.1865 813.693 24.9814C813.534 24.7718 813.454 24.5508 813.454 24.3184C813.454 24.0267 813.538 23.7852 813.707 23.5938C813.876 23.3978 814.119 23.2064 814.438 23.0195C814.037 22.8464 813.718 22.5684 813.481 22.1855C813.249 21.8027 813.133 21.3516 813.133 20.832C813.133 19.998 813.404 19.3532 813.946 18.8975C814.489 18.4417 815.263 18.2139 816.27 18.2139C816.485 18.2139 816.738 18.2344 817.029 18.2754C817.325 18.3118 817.515 18.3392 817.597 18.3574H820.263ZM814.363 27.0801C814.363 27.3672 814.5 27.5928 814.773 27.7568C815.051 27.9209 815.439 28.0029 815.935 28.0029C816.683 28.0029 817.269 27.9004 817.692 27.6953C818.116 27.4902 818.328 27.21 818.328 26.8545C818.328 26.5674 818.203 26.3691 817.952 26.2598C817.701 26.1504 817.314 26.0957 816.79 26.0957H815.71C815.327 26.0957 815.006 26.1846 814.746 26.3623C814.491 26.5446 814.363 26.7839 814.363 27.0801ZM815.122 20.8594C815.122 21.2741 815.215 21.6022 815.402 21.8438C815.594 22.0853 815.883 22.2061 816.27 22.2061C816.662 22.2061 816.949 22.0853 817.132 21.8438C817.314 21.6022 817.405 21.2741 817.405 20.8594C817.405 19.9388 817.027 19.4785 816.27 19.4785C815.505 19.4785 815.122 19.9388 815.122 20.8594ZM828.498 26H826.413V21.5361C826.413 20.4333 826.003 19.8818 825.183 19.8818C824.599 19.8818 824.178 20.0801 823.918 20.4766C823.658 20.873 823.528 21.5156 823.528 22.4043V26H821.443V15.3633H823.528V17.5303C823.528 17.6989 823.512 18.0954 823.48 18.7197L823.433 19.335H823.542C824.007 18.5876 824.745 18.2139 825.757 18.2139C826.655 18.2139 827.336 18.4554 827.801 18.9385C828.266 19.4215 828.498 20.1143 828.498 21.0166V26ZM833.78 24.4756C834.145 24.4756 834.582 24.3958 835.093 24.2363V25.7881C834.573 26.0205 833.935 26.1367 833.179 26.1367C832.345 26.1367 831.736 25.9271 831.353 25.5078C830.975 25.084 830.786 24.4505 830.786 23.6074V19.9229H829.788V19.041L830.936 18.3438L831.538 16.7305H832.871V18.3574H835.011V19.9229H832.871V23.6074C832.871 23.9036 832.953 24.1224 833.117 24.2637C833.286 24.4049 833.507 24.4756 833.78 24.4756Z" fill="#fff"/><rect width="78" height="99.333" transform="translate(779.5 42)" fill="#171C1E"/><path d="M793.308 90.5621C794.36 90.5621 795.188 90.8242 795.789 91.3483C796.395 91.8678 796.698 92.581 796.698 93.4879C796.698 94.5224 796.368 95.3336 795.707 95.9215C795.051 96.5094 794.144 96.8033 792.986 96.8033C791.861 96.8033 791.002 96.6233 790.409 96.2633V95.1696C790.728 95.3746 791.125 95.5364 791.599 95.6549C792.073 95.7688 792.54 95.8258 793 95.8258C793.802 95.8258 794.424 95.6367 794.866 95.2584C795.313 94.8802 795.536 94.3333 795.536 93.6178C795.536 92.2233 794.682 91.526 792.973 91.526C792.54 91.526 791.961 91.5921 791.236 91.7242L790.648 91.3483L791.024 86.6725H795.994V87.7184H791.995L791.742 90.7194C792.266 90.6145 792.788 90.5621 793.308 90.5621ZM798.228 92.3942C798.228 90.43 798.608 88.9625 799.369 87.9918C800.135 87.0166 801.265 86.5289 802.76 86.5289C803.275 86.5289 803.68 86.5722 803.977 86.6588V87.6364C803.626 87.5224 803.225 87.4655 802.773 87.4655C801.702 87.4655 800.884 87.8004 800.319 88.4703C799.754 89.1357 799.444 90.1839 799.39 91.6149H799.472C799.973 90.831 800.766 90.4391 801.851 90.4391C802.748 90.4391 803.455 90.7102 803.97 91.2526C804.489 91.7949 804.749 92.5309 804.749 93.4606C804.749 94.4996 804.464 95.3177 803.895 95.9147C803.329 96.5071 802.564 96.8033 801.598 96.8033C800.563 96.8033 799.743 96.416 799.137 95.6412C798.531 94.8619 798.228 93.7796 798.228 92.3942ZM801.584 95.8395C802.231 95.8395 802.732 95.6367 803.088 95.2311C803.448 94.8209 803.628 94.2308 803.628 93.4606C803.628 92.7998 803.462 92.2802 803.129 91.902C802.796 91.5237 802.299 91.3346 801.639 91.3346C801.228 91.3346 800.853 91.4189 800.511 91.5875C800.169 91.7561 799.895 91.9886 799.69 92.2848C799.49 92.581 799.39 92.8886 799.39 93.2076C799.39 93.677 799.481 94.1145 799.663 94.5201C799.845 94.9257 800.103 95.247 800.436 95.484C800.773 95.721 801.156 95.8395 801.584 95.8395ZM811.658 95.6617H811.597C811.073 96.4228 810.289 96.8033 809.245 96.8033C808.265 96.8033 807.502 96.4684 806.955 95.7985C806.413 95.1285 806.142 94.1761 806.142 92.941C806.142 91.706 806.415 90.7467 806.962 90.0631C807.509 89.3795 808.27 89.0377 809.245 89.0377C810.261 89.0377 811.041 89.4069 811.583 90.1451H811.672L811.624 89.6051L811.597 89.0787V86.0299H812.731V96.6666H811.809L811.658 95.6617ZM809.389 95.8531C810.163 95.8531 810.724 95.6435 811.07 95.2242C811.421 94.8004 811.597 94.1191 811.597 93.1803V92.941C811.597 91.8792 811.419 91.1227 811.063 90.6715C810.713 90.2158 810.15 89.9879 809.375 89.9879C808.71 89.9879 808.199 90.2477 807.844 90.7672C807.493 91.2822 807.317 92.0114 807.317 92.9547C807.317 93.9117 807.493 94.6341 807.844 95.1217C808.195 95.6093 808.71 95.8531 809.389 95.8531ZM818.547 96.8033C818.059 96.8033 817.613 96.7145 817.207 96.5367C816.806 96.3545 816.469 96.0765 816.195 95.7028H816.113C816.168 96.1403 816.195 96.555 816.195 96.9469V100.03H815.06V89.1744H815.983L816.141 90.1998H816.195C816.487 89.7897 816.826 89.4934 817.214 89.3112C817.601 89.1289 818.046 89.0377 818.547 89.0377C819.54 89.0377 820.306 89.3772 820.844 90.0563C821.386 90.7353 821.657 91.6878 821.657 92.9137C821.657 94.1442 821.381 95.1012 820.83 95.7848C820.283 96.4638 819.522 96.8033 818.547 96.8033ZM818.383 90.0016C817.617 90.0016 817.063 90.2135 816.722 90.6373C816.38 91.0612 816.204 91.7356 816.195 92.6608V92.9137C816.195 93.9664 816.371 94.7207 816.722 95.1764C817.073 95.6276 817.635 95.8531 818.41 95.8531C819.057 95.8531 819.563 95.5911 819.928 95.067C820.297 94.5429 820.481 93.8206 820.481 92.9C820.481 91.9658 820.297 91.2503 819.928 90.7535C819.563 90.2522 819.048 90.0016 818.383 90.0016Z" fill="#fff"/><rect width="78" height="99.333" transform="translate(779.5 142.333)" fill="#171C1E"/><path d="M793.308 190.896C794.36 190.896 795.188 191.158 795.789 191.682C796.395 192.201 796.698 192.914 796.698 193.821C796.698 194.856 796.368 195.667 795.707 196.255C795.051 196.843 794.144 197.137 792.986 197.137C791.861 197.137 791.002 196.957 790.409 196.597V195.503C790.728 195.708 791.125 195.87 791.599 195.988C792.073 196.102 792.54 196.159 793 196.159C793.802 196.159 794.424 195.97 794.866 195.592C795.313 195.214 795.536 194.667 795.536 193.951C795.536 192.557 794.682 191.859 792.973 191.859C792.54 191.859 791.961 191.925 791.236 192.058L790.648 191.682L791.024 187.006H795.994V188.052H791.995L791.742 191.053C792.266 190.948 792.788 190.896 793.308 190.896ZM798.228 192.728C798.228 190.763 798.608 189.296 799.369 188.325C800.135 187.35 801.265 186.862 802.76 186.862C803.275 186.862 803.68 186.906 803.977 186.992V187.97C803.626 187.856 803.225 187.799 802.773 187.799C801.702 187.799 800.884 188.134 800.319 188.804C799.754 189.469 799.444 190.517 799.39 191.948H799.472C799.973 191.164 800.766 190.772 801.851 190.772C802.748 190.772 803.455 191.044 803.97 191.586C804.489 192.128 804.749 192.864 804.749 193.794C804.749 194.833 804.464 195.651 803.895 196.248C803.329 196.84 802.564 197.137 801.598 197.137C800.563 197.137 799.743 196.749 799.137 195.975C798.531 195.195 798.228 194.113 798.228 192.728ZM801.584 196.173C802.231 196.173 802.732 195.97 803.088 195.564C803.448 195.154 803.628 194.564 803.628 193.794C803.628 193.133 803.462 192.614 803.129 192.235C802.796 191.857 802.299 191.668 801.639 191.668C801.228 191.668 800.853 191.752 800.511 191.921C800.169 192.09 799.895 192.322 799.69 192.618C799.49 192.914 799.39 193.222 799.39 193.541C799.39 194.01 799.481 194.448 799.663 194.854C799.845 195.259 800.103 195.58 800.436 195.817C800.773 196.054 801.156 196.173 801.584 196.173ZM811.658 195.995H811.597C811.073 196.756 810.289 197.137 809.245 197.137C808.265 197.137 807.502 196.802 806.955 196.132C806.413 195.462 806.142 194.509 806.142 193.274C806.142 192.039 806.415 191.08 806.962 190.396C807.509 189.713 808.27 189.371 809.245 189.371C810.261 189.371 811.041 189.74 811.583 190.479H811.672L811.624 189.938L811.597 189.412V186.363H812.731V197H811.809L811.658 195.995ZM809.389 196.187C810.163 196.187 810.724 195.977 811.07 195.558C811.421 195.134 811.597 194.452 811.597 193.514V193.274C811.597 192.213 811.419 191.456 811.063 191.005C810.713 190.549 810.15 190.321 809.375 190.321C808.71 190.321 808.199 190.581 807.844 191.101C807.493 191.616 807.317 192.345 807.317 193.288C807.317 194.245 807.493 194.967 807.844 195.455C808.195 195.943 808.71 196.187 809.389 196.187ZM818.547 197.137C818.059 197.137 817.613 197.048 817.207 196.87C816.806 196.688 816.469 196.41 816.195 196.036H816.113C816.168 196.474 816.195 196.888 816.195 197.28V200.363H815.06V189.508H815.983L816.141 190.533H816.195C816.487 190.123 816.826 189.827 817.214 189.645C817.601 189.462 818.046 189.371 818.547 189.371C819.54 189.371 820.306 189.711 820.844 190.39C821.386 191.069 821.657 192.021 821.657 193.247C821.657 194.478 821.381 195.435 820.83 196.118C820.283 196.797 819.522 197.137 818.547 197.137ZM818.383 190.335C817.617 190.335 817.063 190.547 816.722 190.971C816.38 191.395 816.204 192.069 816.195 192.994V193.247C816.195 194.3 816.371 195.054 816.722 195.51C817.073 195.961 817.635 196.187 818.41 196.187C819.057 196.187 819.563 195.924 819.928 195.4C820.297 194.876 820.481 194.154 820.481 193.233C820.481 192.299 820.297 191.584 819.928 191.087C819.563 190.586 819.048 190.335 818.383 190.335Z" fill="#fff"/><rect width="121" height="242.667" transform="translate(858.5)" fill="#585C65"/><rect width="121" height="40" transform="translate(858.5 1)" fill="#464B52"/><path d="M877.893 16.0059V22.4727C877.893 23.2109 877.726 23.8581 877.394 24.4141C877.065 24.9701 876.589 25.3962 875.965 25.6924C875.34 25.9886 874.602 26.1367 873.75 26.1367C872.465 26.1367 871.467 25.8086 870.756 25.1523C870.045 24.4915 869.689 23.5892 869.689 22.4453V16.0059H871.802V22.124C871.802 22.8942 871.957 23.4593 872.267 23.8193C872.576 24.1794 873.089 24.3594 873.805 24.3594C874.497 24.3594 874.999 24.1794 875.309 23.8193C875.623 23.4548 875.78 22.8851 875.78 22.1104V16.0059H877.893ZM885.424 23.7305C885.424 24.5143 885.15 25.1113 884.604 25.5215C884.061 25.9316 883.248 26.1367 882.163 26.1367C881.607 26.1367 881.133 26.098 880.741 26.0205C880.349 25.9476 879.982 25.8382 879.641 25.6924V23.9697C880.028 24.152 880.463 24.3047 880.946 24.4277C881.434 24.5508 881.862 24.6123 882.231 24.6123C882.988 24.6123 883.366 24.3936 883.366 23.9561C883.366 23.792 883.316 23.6598 883.216 23.5596C883.116 23.4548 882.942 23.3385 882.696 23.2109C882.45 23.0788 882.122 22.9261 881.712 22.7529C881.124 22.5068 880.691 22.279 880.413 22.0693C880.14 21.8597 879.939 21.6204 879.812 21.3516C879.688 21.0781 879.627 20.7432 879.627 20.3467C879.627 19.6676 879.889 19.1436 880.413 18.7744C880.942 18.4007 881.689 18.2139 882.655 18.2139C883.576 18.2139 884.471 18.4144 885.342 18.8154L884.713 20.3193C884.33 20.1553 883.972 20.0208 883.64 19.916C883.307 19.8112 882.967 19.7588 882.621 19.7588C882.006 19.7588 881.698 19.9251 881.698 20.2578C881.698 20.4447 881.796 20.6064 881.992 20.7432C882.193 20.8799 882.628 21.0827 883.298 21.3516C883.895 21.5931 884.332 21.8187 884.61 22.0283C884.888 22.238 885.093 22.4795 885.226 22.7529C885.358 23.0264 885.424 23.3522 885.424 23.7305ZM890.132 19.6973C889.69 19.6973 889.343 19.8385 889.093 20.1211C888.842 20.3991 888.699 20.7956 888.662 21.3105H891.588C891.579 20.7956 891.444 20.3991 891.185 20.1211C890.925 19.8385 890.574 19.6973 890.132 19.6973ZM890.426 26.1367C889.195 26.1367 888.234 25.7972 887.541 25.1182C886.848 24.4391 886.502 23.4775 886.502 22.2334C886.502 20.9528 886.821 19.9639 887.459 19.2666C888.102 18.5648 888.988 18.2139 890.118 18.2139C891.198 18.2139 892.039 18.5215 892.641 19.1367C893.242 19.752 893.543 20.6019 893.543 21.6865V22.6982H888.614C888.637 23.2907 888.812 23.7533 889.141 24.0859C889.469 24.4186 889.929 24.585 890.521 24.585C890.982 24.585 891.417 24.5371 891.827 24.4414C892.237 24.3457 892.666 24.193 893.112 23.9834V25.5967C892.748 25.779 892.358 25.9134 891.943 26C891.529 26.0911 891.023 26.1367 890.426 26.1367ZM903.116 17.626C902.319 17.626 901.701 17.9268 901.264 18.5283C900.826 19.1253 900.607 19.9593 900.607 21.0303C900.607 23.2588 901.444 24.373 903.116 24.373C903.818 24.373 904.668 24.1976 905.666 23.8467V25.624C904.846 25.9658 903.93 26.1367 902.918 26.1367C901.464 26.1367 900.352 25.6969 899.582 24.8174C898.812 23.9333 898.427 22.6663 898.427 21.0166C898.427 19.9775 898.616 19.0684 898.994 18.2891C899.372 17.5052 899.915 16.9059 900.621 16.4912C901.332 16.0719 902.164 15.8623 903.116 15.8623C904.087 15.8623 905.062 16.097 906.042 16.5664L905.358 18.2891C904.985 18.1113 904.609 17.9564 904.23 17.8242C903.852 17.6921 903.481 17.626 903.116 17.626ZM912.404 26L912.001 24.9609H911.946C911.595 25.403 911.233 25.7106 910.859 25.8838C910.49 26.0524 910.007 26.1367 909.41 26.1367C908.676 26.1367 908.098 25.9271 907.674 25.5078C907.254 25.0885 907.045 24.4915 907.045 23.7168C907.045 22.9056 907.327 22.3086 907.893 21.9258C908.462 21.5384 909.319 21.3242 910.463 21.2832L911.789 21.2422V20.9072C911.789 20.1325 911.393 19.7451 910.6 19.7451C909.989 19.7451 909.271 19.9297 908.446 20.2988L907.756 18.8906C908.635 18.4303 909.611 18.2002 910.682 18.2002C911.707 18.2002 912.493 18.4235 913.04 18.8701C913.587 19.3167 913.86 19.9958 913.86 20.9072V26H912.404ZM911.789 22.459L910.982 22.4863C910.376 22.5046 909.925 22.6139 909.629 22.8145C909.333 23.015 909.184 23.3203 909.184 23.7305C909.184 24.3184 909.522 24.6123 910.196 24.6123C910.679 24.6123 911.064 24.4733 911.351 24.1953C911.643 23.9173 911.789 23.5482 911.789 23.0879V22.459ZM921.262 23.7305C921.262 24.5143 920.988 25.1113 920.441 25.5215C919.899 25.9316 919.086 26.1367 918.001 26.1367C917.445 26.1367 916.971 26.098 916.579 26.0205C916.187 25.9476 915.82 25.8382 915.478 25.6924V23.9697C915.866 24.152 916.301 24.3047 916.784 24.4277C917.272 24.5508 917.7 24.6123 918.069 24.6123C918.826 24.6123 919.204 24.3936 919.204 23.9561C919.204 23.792 919.154 23.6598 919.054 23.5596C918.953 23.4548 918.78 23.3385 918.534 23.2109C918.288 23.0788 917.96 22.9261 917.55 22.7529C916.962 22.5068 916.529 22.279 916.251 22.0693C915.977 21.8597 915.777 21.6204 915.649 21.3516C915.526 21.0781 915.465 20.7432 915.465 20.3467C915.465 19.6676 915.727 19.1436 916.251 18.7744C916.78 18.4007 917.527 18.2139 918.493 18.2139C919.414 18.2139 920.309 18.4144 921.18 18.8154L920.551 20.3193C920.168 20.1553 919.81 20.0208 919.477 19.916C919.145 19.8112 918.805 19.7588 918.459 19.7588C917.844 19.7588 917.536 19.9251 917.536 20.2578C917.536 20.4447 917.634 20.6064 917.83 20.7432C918.031 20.8799 918.466 21.0827 919.136 21.3516C919.733 21.5931 920.17 21.8187 920.448 22.0283C920.726 22.238 920.931 22.4795 921.063 22.7529C921.196 23.0264 921.262 23.3522 921.262 23.7305ZM925.97 19.6973C925.528 19.6973 925.181 19.8385 924.931 20.1211C924.68 20.3991 924.536 20.7956 924.5 21.3105H927.426C927.417 20.7956 927.282 20.3991 927.022 20.1211C926.763 19.8385 926.412 19.6973 925.97 19.6973ZM926.264 26.1367C925.033 26.1367 924.072 25.7972 923.379 25.1182C922.686 24.4391 922.34 23.4775 922.34 22.2334C922.34 20.9528 922.659 19.9639 923.297 19.2666C923.939 18.5648 924.826 18.2139 925.956 18.2139C927.036 18.2139 927.877 18.5215 928.478 19.1367C929.08 19.752 929.381 20.6019 929.381 21.6865V22.6982H924.452C924.475 23.2907 924.65 23.7533 924.978 24.0859C925.307 24.4186 925.767 24.585 926.359 24.585C926.82 24.585 927.255 24.5371 927.665 24.4414C928.075 24.3457 928.503 24.193 928.95 23.9834V25.5967C928.586 25.779 928.196 25.9134 927.781 26C927.366 26.0911 926.861 26.1367 926.264 26.1367Z" fill="#fff"/><rect width="121" height="99.333" transform="translate(858.5 42)" fill="#171C1E"/><path d="M869.874 96.6666V86.6725H871.036V95.6139H875.445V96.6666H869.874ZM878.027 96.6666H876.893V89.1744H878.027V96.6666ZM876.797 87.1442C876.797 86.8844 876.861 86.6953 876.988 86.5768C877.116 86.4537 877.275 86.3922 877.467 86.3922C877.649 86.3922 877.806 86.4537 877.938 86.5768C878.071 86.6998 878.137 86.889 878.137 87.1442C878.137 87.3994 878.071 87.5908 877.938 87.7184C877.806 87.8414 877.649 87.903 877.467 87.903C877.275 87.903 877.116 87.8414 876.988 87.7184C876.861 87.5908 876.797 87.3994 876.797 87.1442ZM885.183 94.6227C885.183 95.3199 884.923 95.8577 884.403 96.236C883.884 96.6142 883.155 96.8033 882.216 96.8033C881.222 96.8033 880.448 96.6461 879.892 96.3317V95.2789C880.252 95.4612 880.637 95.6048 881.047 95.7096C881.462 95.8144 881.86 95.8668 882.243 95.8668C882.836 95.8668 883.291 95.7734 883.61 95.5865C883.929 95.3951 884.089 95.1058 884.089 94.7184C884.089 94.4267 883.961 94.1783 883.706 93.9733C883.455 93.7636 882.963 93.5175 882.229 93.235C881.532 92.9752 881.035 92.7496 880.739 92.5582C880.448 92.3623 880.229 92.1412 880.083 91.8951C879.942 91.649 879.871 91.3551 879.871 91.0133C879.871 90.4026 880.119 89.9218 880.616 89.5709C881.113 89.2155 881.794 89.0377 882.66 89.0377C883.467 89.0377 884.255 89.2018 885.025 89.5299L884.622 90.4528C883.87 90.1429 883.189 89.9879 882.578 89.9879C882.04 89.9879 881.635 90.0722 881.361 90.2408C881.088 90.4095 880.951 90.6419 880.951 90.9381C880.951 91.1386 881.001 91.3095 881.102 91.4508C881.206 91.5921 881.373 91.7265 881.601 91.8541C881.828 91.9817 882.266 92.1663 882.913 92.4078C883.802 92.7314 884.401 93.0573 884.711 93.3854C885.025 93.7135 885.183 94.1259 885.183 94.6227ZM889.371 95.8668C889.572 95.8668 889.765 95.8531 889.952 95.8258C890.139 95.7939 890.287 95.762 890.396 95.7301V96.5983C890.273 96.6575 890.091 96.7054 889.85 96.7418C889.613 96.7828 889.398 96.8033 889.207 96.8033C887.758 96.8033 887.033 96.04 887.033 94.5133V90.0563H885.96V89.5094L887.033 89.0377L887.512 87.4381H888.168V89.1744H890.342V90.0563H888.168V94.4655C888.168 94.9166 888.275 95.263 888.489 95.5045C888.703 95.7461 888.997 95.8668 889.371 95.8668Z" fill="#fff"/><rect width="121" height="99.333" transform="translate(858.5 142.333)" fill="#171C1E"/><path d="M875.445 187H869.874V177.006H875.445V178.038H871.036V181.258H875.179V182.283H871.036V185.961H875.445V187ZM879.217 183.165L876.612 179.508H877.904L879.88 182.379L881.849 179.508H883.127L880.522 183.165L883.264 187H881.978L879.88 183.965L877.761 187H876.476L879.217 183.165ZM887.09 186.2C887.29 186.2 887.484 186.187 887.671 186.159C887.858 186.127 888.006 186.095 888.115 186.063V186.932C887.992 186.991 887.81 187.039 887.568 187.075C887.331 187.116 887.117 187.137 886.926 187.137C885.477 187.137 884.752 186.373 884.752 184.847V180.39H883.679V179.843L884.752 179.371L885.23 177.771H885.887V179.508H888.061V180.39H885.887V184.799C885.887 185.25 885.994 185.596 886.208 185.838C886.422 186.079 886.716 186.2 887.09 186.2ZM892.7 187.137C891.593 187.137 890.718 186.799 890.075 186.125C889.437 185.451 889.118 184.514 889.118 183.315C889.118 182.108 889.414 181.148 890.007 180.438C890.604 179.727 891.404 179.371 892.406 179.371C893.345 179.371 894.088 179.681 894.635 180.301C895.182 180.916 895.455 181.729 895.455 182.741V183.459H890.294C890.317 184.339 890.538 185.006 890.957 185.462C891.381 185.918 891.976 186.146 892.741 186.146C893.548 186.146 894.345 185.977 895.134 185.64V186.651C894.733 186.825 894.352 186.948 893.992 187.021C893.637 187.098 893.206 187.137 892.7 187.137ZM892.393 180.321C891.791 180.321 891.31 180.517 890.95 180.909C890.595 181.301 890.385 181.843 890.321 182.536H894.238C894.238 181.821 894.079 181.274 893.76 180.896C893.441 180.513 892.985 180.321 892.393 180.321ZM900.73 179.371C901.063 179.371 901.362 179.398 901.626 179.453L901.469 180.506C901.159 180.438 900.885 180.403 900.648 180.403C900.042 180.403 899.523 180.649 899.09 181.142C898.661 181.634 898.447 182.247 898.447 182.98V187H897.312V179.508H898.249L898.379 180.896H898.434C898.712 180.408 899.046 180.032 899.438 179.768C899.83 179.503 900.261 179.371 900.73 179.371ZM908.07 187V182.153C908.07 181.543 907.931 181.087 907.653 180.786C907.375 180.485 906.94 180.335 906.348 180.335C905.564 180.335 904.99 180.547 904.625 180.971C904.26 181.395 904.078 182.094 904.078 183.069V187H902.943V179.508H903.866L904.051 180.533H904.105C904.338 180.164 904.664 179.879 905.083 179.679C905.502 179.474 905.969 179.371 906.484 179.371C907.387 179.371 908.066 179.59 908.521 180.027C908.977 180.46 909.205 181.155 909.205 182.112V187H908.07ZM916.066 187L915.841 185.934H915.786C915.412 186.403 915.039 186.722 914.665 186.891C914.296 187.055 913.833 187.137 913.277 187.137C912.534 187.137 911.951 186.945 911.527 186.562C911.108 186.18 910.898 185.635 910.898 184.929C910.898 183.416 912.108 182.623 914.528 182.55L915.8 182.509V182.044C915.8 181.456 915.672 181.023 915.417 180.745C915.166 180.463 914.763 180.321 914.207 180.321C913.583 180.321 912.876 180.513 912.088 180.896L911.739 180.027C912.108 179.827 912.512 179.67 912.949 179.556C913.391 179.442 913.833 179.385 914.275 179.385C915.169 179.385 915.829 179.583 916.258 179.979C916.691 180.376 916.907 181.012 916.907 181.887V187H916.066ZM913.503 186.2C914.209 186.2 914.763 186.007 915.164 185.619C915.57 185.232 915.772 184.689 915.772 183.992V183.315L914.638 183.363C913.735 183.395 913.084 183.536 912.683 183.787C912.286 184.033 912.088 184.418 912.088 184.942C912.088 185.353 912.211 185.665 912.457 185.879C912.708 186.093 913.056 186.2 913.503 186.2ZM920.303 187H919.168V176.363H920.303V187ZM872.697 207.137C871.613 207.137 870.772 206.804 870.175 206.139C869.582 205.469 869.286 204.523 869.286 203.302C869.286 202.049 869.587 201.08 870.188 200.396C870.795 199.713 871.656 199.371 872.772 199.371C873.132 199.371 873.493 199.41 873.853 199.487C874.213 199.565 874.495 199.656 874.7 199.761L874.352 200.725C874.101 200.624 873.827 200.542 873.531 200.479C873.235 200.41 872.973 200.376 872.745 200.376C871.223 200.376 870.462 201.347 870.462 203.288C870.462 204.209 870.646 204.915 871.016 205.407C871.389 205.899 871.941 206.146 872.67 206.146C873.294 206.146 873.935 206.011 874.591 205.742V206.747C874.09 207.007 873.458 207.137 872.697 207.137ZM882.758 203.247C882.758 204.468 882.45 205.423 881.835 206.111C881.22 206.795 880.37 207.137 879.285 207.137C878.615 207.137 878.02 206.979 877.501 206.665C876.981 206.351 876.58 205.899 876.298 205.312C876.015 204.724 875.874 204.035 875.874 203.247C875.874 202.026 876.179 201.076 876.79 200.396C877.401 199.713 878.248 199.371 879.333 199.371C880.381 199.371 881.213 199.72 881.828 200.417C882.448 201.114 882.758 202.058 882.758 203.247ZM877.05 203.247C877.05 204.204 877.241 204.933 877.624 205.435C878.007 205.936 878.57 206.187 879.312 206.187C880.055 206.187 880.618 205.938 881.001 205.441C881.388 204.94 881.582 204.209 881.582 203.247C881.582 202.295 881.388 201.572 881.001 201.08C880.618 200.583 880.051 200.335 879.299 200.335C878.556 200.335 877.995 200.579 877.617 201.066C877.239 201.554 877.05 202.281 877.05 203.247ZM889.797 207V202.153C889.797 201.543 889.658 201.087 889.38 200.786C889.102 200.485 888.667 200.335 888.074 200.335C887.29 200.335 886.716 200.547 886.352 200.971C885.987 201.395 885.805 202.094 885.805 203.069V207H884.67V199.508H885.593L885.777 200.533H885.832C886.064 200.164 886.39 199.879 886.81 199.679C887.229 199.474 887.696 199.371 888.211 199.371C889.113 199.371 889.792 199.59 890.248 200.027C890.704 200.46 890.932 201.155 890.932 202.112V207H889.797ZM895.605 206.2C895.806 206.2 896 206.187 896.186 206.159C896.373 206.127 896.521 206.095 896.631 206.063V206.932C896.508 206.991 896.325 207.039 896.084 207.075C895.847 207.116 895.633 207.137 895.441 207.137C893.992 207.137 893.268 206.373 893.268 204.847V200.39H892.194V199.843L893.268 199.371L893.746 197.771H894.402V199.508H896.576V200.39H894.402V204.799C894.402 205.25 894.509 205.596 894.724 205.838C894.938 206.079 895.232 206.2 895.605 206.2ZM901.469 199.371C901.801 199.371 902.1 199.398 902.364 199.453L902.207 200.506C901.897 200.438 901.624 200.403 901.387 200.403C900.781 200.403 900.261 200.649 899.828 201.142C899.4 201.634 899.185 202.247 899.185 202.98V207H898.051V199.508H898.987L899.117 200.896H899.172C899.45 200.408 899.785 200.032 900.177 199.768C900.569 199.503 900.999 199.371 901.469 199.371ZM910.148 203.247C910.148 204.468 909.841 205.423 909.226 206.111C908.61 206.795 907.76 207.137 906.676 207.137C906.006 207.137 905.411 206.979 904.892 206.665C904.372 206.351 903.971 205.899 903.688 205.312C903.406 204.724 903.265 204.035 903.265 203.247C903.265 202.026 903.57 201.076 904.181 200.396C904.791 199.713 905.639 199.371 906.724 199.371C907.772 199.371 908.603 199.72 909.219 200.417C909.838 201.114 910.148 202.058 910.148 203.247ZM904.44 203.247C904.44 204.204 904.632 204.933 905.015 205.435C905.397 205.936 905.96 206.187 906.703 206.187C907.446 206.187 908.009 205.938 908.392 205.441C908.779 204.94 908.973 204.209 908.973 203.247C908.973 202.295 908.779 201.572 908.392 201.08C908.009 200.583 907.441 200.335 906.689 200.335C905.947 200.335 905.386 200.579 905.008 201.066C904.629 201.554 904.44 202.281 904.44 203.247ZM913.195 207H912.06V196.363H913.195V207Z" fill="#fff"/><defs><clipPath id="clip0_6847_90046"><rect width="37" height="38" fill="#fff" transform="translate(414.5 72.6666)"/></clipPath></defs></svg>