<svg fill="none" height="58" viewBox="0 0 182 58" width="182" xmlns="http://www.w3.org/2000/svg"><path d="m25.4688 33.6912h-5.9883v-1.2598l2.1504-2.1738c.6367-.6524 1.0527-1.1035 1.248-1.3535.1953-.254.3359-.4883.4219-.7032.0859-.2148.1289-.4375.1289-.6679 0-.3438-.0957-.5997-.2871-.7676-.1875-.168-.4395-.252-.7559-.252-.332 0-.6543.0762-.9668.2285-.3125.1524-.6387.3692-.9785.6504l-.9844-1.166c.4219-.3594.7715-.6133 1.0489-.7617.2773-.1484.58-.2617.9082-.3398.3281-.0821.6953-.1231 1.1015-.1231.5352 0 1.0078.0977 1.418.293s.7285.4687.9551.8203c.2265.3516.3398.7539.3398 1.207 0 .3946-.0703.7656-.2109 1.1133-.1367.3438-.3516.6973-.6446 1.0605-.289.3633-.8007.8809-1.5351 1.5528l-1.1016 1.0371v.082h3.7325zm6.9768-1.7754h-1.0313v1.7754h-1.7695v-1.7754h-3.6563v-1.2598l3.7559-5.5312h1.6699v5.3847h1.0313zm-2.8008-1.4063v-1.4531c0-.2422.0098-.5938.0293-1.0547s.0351-.7285.0469-.8027h-.0469c-.1445.3203-.3184.6328-.5215.9375l-1.5703 2.373zm5.9339 3.2988c-.7696 0-1.375-.2988-1.8165-.8964-.4375-.5977-.6562-1.4258-.6562-2.4844 0-1.0742.2227-1.9102.668-2.5078.4492-.6016 1.0664-.9024 1.8515-.9024.8242 0 1.4532.3203 1.8867.961h.0586c-.0898-.4883-.1347-.9239-.1347-1.3067v-2.0976h1.7929v9.1172h-1.371l-.3458-.8496h-.0761c-.4063.6445-1.0254.9667-1.8574.9667zm.6269-1.4238c.457 0 .791-.1328 1.002-.3984.2148-.2656.332-.7168.3515-1.3535v-.1934c0-.7031-.1094-1.207-.3281-1.5117-.2148-.3047-.5664-.457-1.0547-.457-.3984 0-.709.1699-.9316.5097-.2188.336-.3282.8262-.3282 1.4707 0 .6446.1114 1.1289.334 1.4532.2227.3203.541.4804.9551.4804zm8.4182 1.4238c-.7695 0-1.373-.2792-1.8105-.8378h-.0938c.0625.5468.0938.8632.0938.9492v2.6543h-1.7871v-9.4336h1.4531l.252.8496h.082c.418-.6484 1.0371-.9727 1.8574-.9727.7735 0 1.3789.2989 1.8164.8965.4375.5977.6563 1.4278.6563 2.4903 0 .6992-.1035 1.3066-.3106 1.8222-.2031.5156-.4941.9082-.873 1.1778-.3789.2695-.8242.4042-1.336.4042zm-.5273-5.3613c-.4414 0-.7637.1367-.9668.4102-.2031.2695-.3086.7168-.3164 1.3418v.1933c0 .7032.1035 1.2071.3105 1.5118.211.3046.543.457.9961.457.8008 0 1.2012-.6602 1.2012-1.9805 0-.6445-.0996-1.1269-.2988-1.4473-.1953-.3242-.5039-.4863-.9258-.4863z" fill="#4091d2"/><path d="m62 17.949h-9v21.9347h9" stroke="#4091d2"/><path clip-rule="evenodd" d="m86.6667 16.9165h18.6663c1.48 0 2.667 1.2 2.667 2.6667v18.6666c0 1.4667-1.187 2.6667-2.667 2.6667h-18.6663c-1.48 0-2.6667-1.2-2.6667-2.6667v-18.6666c0-1.4667 1.1867-2.6667 2.6667-2.6667zm0 12 6.6666 6.6667 11.9997-12-1.88-1.8934-10.1197 10.12-4.7866-4.7733z" fill="#0063a3" fill-rule="evenodd"/><path clip-rule="evenodd" d="m86.6667 28.9165 6.6666 6.6667 11.9997-12-1.88-1.8934-10.1197 10.12-4.7866-4.7733z" fill="#fff" fill-rule="evenodd"/><path d="m130 .833252h9v55.833748h-9" stroke="#4091d2"/><path d="m152.598 23.6824c.828 0 1.486.2324 1.974.6972.492.4649.739 1.1016.739 1.9102 0 .957-.295 1.6934-.885 2.209s-1.434.7734-2.531.7734c-.954 0-1.723-.1543-2.309-.4629v-1.5644c.309.164.668.2988 1.078.4043.41.1015.799.1523 1.166.1523 1.106 0 1.658-.4531 1.658-1.3594 0-.8632-.572-1.2949-1.717-1.2949-.207 0-.435.0215-.685.0645-.25.039-.453.082-.609.1289l-.721-.3867.322-4.3653h4.647v1.5352h-3.059l-.158 1.6816.205-.041c.238-.0547.533-.082.885-.082zm3.607 1.834c0-1.6954.358-2.9571 1.073-3.7852.718-.8281 1.793-1.2422 3.222-1.2422.489 0 .871.0293 1.149.0879v1.4473c-.348-.0782-.692-.1172-1.032-.1172-.621 0-1.128.0937-1.523.2812-.391.1875-.684.4649-.879.8321s-.31.8886-.346 1.5644h.077c.386-.664 1.005-.9961 1.857-.9961.766 0 1.365.2403 1.799.7207.433.4805.65 1.1446.65 1.9922 0 .9141-.258 1.6387-.773 2.1738-.516.5313-1.231.7969-2.145.7969-.633 0-1.185-.1465-1.658-.4394-.469-.293-.832-.7207-1.09-1.2832-.254-.5625-.381-1.2403-.381-2.0332zm3.094 2.3086c.387 0 .684-.129.891-.3868.207-.2617.31-.6328.31-1.1132 0-.418-.097-.7461-.293-.9844-.191-.2422-.482-.3633-.873-.3633-.367 0-.681.1191-.943.3574-.258.2383-.387.5156-.387.832 0 .4649.121.8575.363 1.1778.247.3203.557.4805.932.4805zm6.28 1.4472c-.77 0-1.375-.2988-1.817-.8965-.437-.5976-.656-1.4257-.656-2.4843 0-1.0743.223-1.9102.668-2.5079.449-.6015 1.066-.9023 1.852-.9023.824 0 1.453.3203 1.886.9609h.059c-.09-.4882-.135-.9238-.135-1.3066v-2.0977h1.793v9.1172h-1.371l-.346-.8496h-.076c-.406.6446-1.025.9668-1.857.9668zm.627-1.4238c.457 0 .791-.1328 1.002-.3984.214-.2657.332-.7168.351-1.3536v-.1933c0-.7031-.109-1.2071-.328-1.5117-.215-.3047-.566-.4571-1.055-.4571-.398 0-.709.1699-.931.5098-.219.3359-.328.8262-.328 1.4707s.111 1.1289.334 1.4531c.222.3203.541.4805.955.4805zm8.418 1.4238c-.77 0-1.373-.2793-1.811-.8379h-.093c.062.5469.093.8633.093.9492v2.6543h-1.787v-9.4336h1.453l.252.8497h.082c.418-.6485 1.037-.9727 1.858-.9727.773 0 1.379.2988 1.816.8965.438.5976.656 1.4277.656 2.4902 0 .6992-.103 1.3067-.31 1.8223-.203.5156-.494.9082-.873 1.1777-.379.2696-.824.4043-1.336.4043zm-.527-5.3613c-.442 0-.764.1367-.967.4101-.203.2696-.309.7168-.317 1.3418v.1934c0 .7031.104 1.207.311 1.5117.211.3047.543.4571.996.4571.801 0 1.201-.6602 1.201-1.9805 0-.6445-.099-1.127-.299-1.4473-.195-.3242-.504-.4863-.925-.4863z" fill="#4091d2"/></svg>