<svg fill="none" height="56" viewBox="0 0 56 56" width="56" xmlns="http://www.w3.org/2000/svg" xmlns:xlink="http://www.w3.org/1999/xlink"><clipPath id="a"><path d="m10 10h36v36h-36z"/></clipPath><g clip-path="url(#a)" clip-rule="evenodd" fill-rule="evenodd"><path d="m18 10c-4.4183 0-8 3.5817-8 8v20c0 4.4183 3.5817 8 8 8h20c4.4183 0 8-3.5817 8-8v-20c0-4.4183-3.5817-8-8-8zm19.3333 3h-18.6666c-3.1466 0-5.6667 2.5529-5.6667 5.6667v18.6666c0 3.1138 2.5201 5.6667 5.6667 5.6667h18.6666c3.1466 0 5.6667-2.5529 5.6667-5.6667v-18.6666c0-3.1138-2.5201-5.6667-5.6667-5.6667zm-18.6666 3h18.6666c1.48 0 2.6667 1.2 2.6667 2.6667v18.6666c0 1.4667-1.1867 2.6667-2.6667 2.6667h-18.6666c-1.48 0-2.6667-1.2-2.6667-2.6667v-18.6666c0-1.4667 1.1867-2.6667 2.6667-2.6667z" fill="#0084ff"/><path d="m18.6667 16h18.6666c1.48 0 2.6667 1.2 2.6667 2.6667v18.6666c0 1.4667-1.1867 2.6667-2.6667 2.6667h-18.6666c-1.48 0-2.6667-1.2-2.6667-2.6667v-18.6666c0-1.4667 1.1867-2.6667 2.6667-2.6667zm0 12 6.6666 6.6667 12-12-1.88-1.8934-10.12 10.12-4.7866-4.7733z" fill="#019aeb"/><path d="m18.6667 28 6.6666 6.6667 12-12-1.88-1.8934-10.12 10.12-4.7866-4.7733z" fill="#fff"/></g></svg>