<svg width="954" height="143" viewBox="0 0 954 143" fill="none" xmlns="http://www.w3.org/2000/svg"><rect width="954" height="142.333" fill="#585C65"/><rect width="99" height="142.333" transform="translate(1)" fill="#585C65"/><rect width="99" height="40" transform="translate(1 1)" fill="#464B52"/><path d="M18.1572 23.2246C18.1572 24.127 17.8314 24.8379 17.1797 25.3574C16.5326 25.877 15.6302 26.1367 14.4727 26.1367C13.4062 26.1367 12.4629 25.9362 11.6426 25.5352V23.5664C12.3171 23.8672 12.8867 24.0791 13.3516 24.2021C13.821 24.3252 14.2493 24.3867 14.6367 24.3867C15.1016 24.3867 15.457 24.2979 15.7031 24.1201C15.9538 23.9424 16.0791 23.6781 16.0791 23.3271C16.0791 23.1312 16.0244 22.958 15.915 22.8076C15.8057 22.6527 15.6439 22.5046 15.4297 22.3633C15.2201 22.222 14.7894 21.9964 14.1377 21.6865C13.527 21.3994 13.069 21.1237 12.7637 20.8594C12.4583 20.5951 12.2145 20.2874 12.0322 19.9365C11.8499 19.5856 11.7588 19.1755 11.7588 18.7061C11.7588 17.8219 12.0573 17.127 12.6543 16.6211C13.2559 16.1152 14.0853 15.8623 15.1426 15.8623C15.6621 15.8623 16.1566 15.9238 16.626 16.0469C17.0999 16.1699 17.5944 16.3431 18.1094 16.5664L17.4258 18.2139C16.8926 17.9951 16.4505 17.8424 16.0996 17.7559C15.7533 17.6693 15.4115 17.626 15.0742 17.626C14.6732 17.626 14.3656 17.7194 14.1514 17.9062C13.9372 18.0931 13.8301 18.3369 13.8301 18.6377C13.8301 18.8245 13.8734 18.9886 13.96 19.1299C14.0465 19.2666 14.1833 19.401 14.3701 19.5332C14.5615 19.6608 15.0104 19.8932 15.7168 20.2305C16.651 20.6771 17.2913 21.126 17.6377 21.5771C17.984 22.0238 18.1572 22.5729 18.1572 23.2246ZM22.9404 24.4756C23.305 24.4756 23.7425 24.3958 24.2529 24.2363V25.7881C23.7334 26.0205 23.0954 26.1367 22.3389 26.1367C21.5049 26.1367 20.8965 25.9271 20.5137 25.5078C20.1354 25.084 19.9463 24.4505 19.9463 23.6074V19.9229H18.9482V19.041L20.0967 18.3438L20.6982 16.7305H22.0312V18.3574H24.1709V19.9229H22.0312V23.6074C22.0312 23.9036 22.1133 24.1224 22.2773 24.2637C22.4459 24.4049 22.667 24.4756 22.9404 24.4756ZM30.5742 26L30.1709 24.9609H30.1162C29.7653 25.403 29.403 25.7106 29.0293 25.8838C28.6601 26.0524 28.1771 26.1367 27.58 26.1367C26.8463 26.1367 26.2675 25.9271 25.8437 25.5078C25.4244 25.0885 25.2148 24.4915 25.2148 23.7168C25.2148 22.9056 25.4974 22.3086 26.0625 21.9258C26.6321 21.5384 27.4889 21.3242 28.6328 21.2832L29.959 21.2422V20.9072C29.959 20.1325 29.5625 19.7451 28.7695 19.7451C28.1588 19.7451 27.441 19.9297 26.6162 20.2988L25.9257 18.8906C26.8053 18.4303 27.7806 18.2002 28.8515 18.2002C29.8769 18.2002 30.6631 18.4235 31.2099 18.8701C31.7568 19.3167 32.0302 19.9958 32.0302 20.9072V26H30.5742ZM29.959 22.459L29.1523 22.4863C28.5462 22.5046 28.095 22.6139 27.7988 22.8145C27.5026 23.015 27.3545 23.3203 27.3545 23.7305C27.3545 24.3184 27.6917 24.6123 28.3662 24.6123C28.8493 24.6123 29.2343 24.4733 29.5215 24.1953C29.8131 23.9173 29.959 23.5482 29.959 23.0879V22.459ZM37.3193 24.4756C37.6839 24.4756 38.1214 24.3958 38.6318 24.2363V25.7881C38.1123 26.0205 37.4742 26.1367 36.7177 26.1367C35.8837 26.1367 35.2753 25.9271 34.8925 25.5078C34.5143 25.084 34.3251 24.4505 34.3251 23.6074V19.9229H33.3271V19.041L34.4755 18.3438L35.0771 16.7305H36.4101V18.3574H38.5498V19.9229H36.4101V23.6074C36.4101 23.9036 36.4921 24.1224 36.6562 24.2637C36.8248 24.4049 37.0459 24.4756 37.3193 24.4756ZM43.2646 19.6973C42.8225 19.6973 42.4762 19.8385 42.2255 20.1211C41.9749 20.3991 41.8313 20.7956 41.7949 21.3105H44.7206C44.7115 20.7956 44.5771 20.3991 44.3173 20.1211C44.0576 19.8385 43.7066 19.6973 43.2646 19.6973ZM43.5585 26.1367C42.3281 26.1367 41.3665 25.7972 40.6738 25.1182C39.9811 24.4391 39.6347 23.4775 39.6347 22.2334C39.6347 20.9528 39.9537 19.9639 40.5917 19.2666C41.2343 18.5648 42.1207 18.2139 43.2509 18.2139C44.331 18.2139 45.1718 18.5215 45.7734 19.1367C46.3749 19.752 46.6757 20.6019 46.6757 21.6865V22.6982H41.747C41.7698 23.2907 41.9452 23.7533 42.2734 24.0859C42.6015 24.4186 43.0618 24.585 43.6542 24.585C44.1145 24.585 44.5497 24.5371 44.9599 24.4414C45.3701 24.3457 45.7984 24.193 46.2451 23.9834V25.5967C45.8805 25.779 45.4908 25.9134 45.0761 26C44.6614 26.0911 44.1555 26.1367 43.5585 26.1367Z" fill="#fff"/><rect width="99" height="99.333" transform="translate(1 42)" fill="#171C1E"/><path d="M20.5498 91.5739C20.5498 93.2191 20.0804 94.4792 19.1416 95.3542C18.2074 96.2292 16.8561 96.6667 15.0879 96.6667H12.2578V86.6725H15.3955C17.027 86.6725 18.2939 87.1032 19.1963 87.9645C20.0986 88.8258 20.5498 90.029 20.5498 91.5739ZM18.3486 91.6286C18.3486 89.4821 17.4007 88.4089 15.5049 88.4089H14.377V94.9167H15.2861C17.3278 94.9167 18.3486 93.8206 18.3486 91.6286ZM25.5381 90.3639C25.096 90.3639 24.7497 90.5052 24.499 90.7878C24.2484 91.0658 24.1048 91.4622 24.0683 91.9772H26.9941C26.985 91.4622 26.8506 91.0658 26.5908 90.7878C26.331 90.5052 25.9801 90.3639 25.5381 90.3639ZM25.832 96.8034C24.6015 96.8034 23.64 96.4639 22.9473 95.7848C22.2545 95.1058 21.9082 94.1442 21.9082 92.9001C21.9082 91.6195 22.2272 90.6305 22.8652 89.9333C23.5078 89.2314 24.3942 88.8805 25.5244 88.8805C26.6045 88.8805 27.4453 89.1882 28.0469 89.8034C28.6484 90.4186 28.9492 91.2686 28.9492 92.3532V93.3649H24.0205C24.0433 93.9574 24.2187 94.4199 24.5469 94.7526C24.875 95.0853 25.3353 95.2516 25.9277 95.2516C26.388 95.2516 26.8232 95.2038 27.2334 95.1081C27.6435 95.0124 28.0719 94.8597 28.5185 94.6501V96.2633C28.154 96.4456 27.7643 96.5801 27.3496 96.6667C26.9349 96.7578 26.429 96.8034 25.832 96.8034ZM34.7851 90.5895H32.9804V96.6667H30.8955V90.5895H29.747V89.5846L30.8955 89.0241V88.4635C30.8955 87.5931 31.1097 86.9574 31.5381 86.5563C31.9664 86.1553 32.6523 85.9548 33.5957 85.9548C34.3157 85.9548 34.956 86.0619 35.5166 86.276L34.9834 87.8073C34.5641 87.6751 34.1767 87.6091 33.8213 87.6091C33.525 87.6091 33.3108 87.6979 33.1787 87.8757C33.0465 88.0488 32.9804 88.2721 32.9804 88.5456V89.0241H34.7851V90.5895ZM40.7578 96.6667L40.3544 95.6276H40.2998C39.9488 96.0697 39.5865 96.3773 39.2128 96.5505C38.8437 96.7191 38.3606 96.8034 37.7636 96.8034C37.0299 96.8034 36.4511 96.5938 36.0273 96.1745C35.608 95.7552 35.3984 95.1582 35.3984 94.3835C35.3984 93.5723 35.6809 92.9753 36.246 92.5924C36.8157 92.2051 37.6725 91.9909 38.8164 91.9499L40.1425 91.9089V91.5739C40.1425 90.7992 39.746 90.4118 38.9531 90.4118C38.3424 90.4118 37.6246 90.5964 36.7998 90.9655L36.1093 89.5573C36.9889 89.097 37.9641 88.8669 39.0351 88.8669C40.0605 88.8669 40.8466 89.0902 41.3935 89.5368C41.9404 89.9834 42.2138 90.6624 42.2138 91.5739V96.6667H40.7578ZM40.1425 93.1257L39.3359 93.153C38.7298 93.1712 38.2786 93.2806 37.9824 93.4811C37.6862 93.6816 37.538 93.987 37.538 94.3971C37.538 94.985 37.8753 95.279 38.5498 95.279C39.0328 95.279 39.4179 95.14 39.705 94.862C39.9967 94.584 40.1425 94.2148 40.1425 93.7546V93.1257ZM49.6972 96.6667L49.4169 95.6891H49.3076C49.0842 96.0446 48.7675 96.3203 48.3574 96.5163C47.9472 96.7077 47.4801 96.8034 46.956 96.8034C46.0582 96.8034 45.3814 96.5641 44.9257 96.0856C44.47 95.6025 44.2421 94.9098 44.2421 94.0075V89.0241H46.3271V93.488C46.3271 94.0394 46.4251 94.4541 46.621 94.7321C46.817 95.0055 47.1292 95.1423 47.5576 95.1423C48.1409 95.1423 48.5624 94.9486 48.8222 94.5612C49.082 94.1693 49.2119 93.5221 49.2119 92.6198V89.0241H51.2968V96.6667H49.6972ZM55.4853 96.6667H53.4003V86.0299H55.4853V96.6667ZM60.8153 95.1423C61.1799 95.1423 61.6174 95.0625 62.1278 94.903V96.4548C61.6083 96.6872 60.9703 96.8034 60.2138 96.8034C59.3798 96.8034 58.7714 96.5938 58.3886 96.1745C58.0103 95.7507 57.8212 95.1172 57.8212 94.2741V90.5895H56.8231V89.7077L57.9716 89.0104L58.5731 87.3971H59.9062V89.0241H62.0458V90.5895H59.9062V94.2741C59.9062 94.5703 59.9882 94.7891 60.1522 94.9303C60.3209 95.0716 60.5419 95.1423 60.8153 95.1423Z" fill="#fff"/><rect width="677" height="40" transform="translate(101 1)" fill="#464B52"/><path d="M118.014 26H112.258V16.0059H118.014V17.7422H114.377V19.9365H117.761V21.6729H114.377V24.25H118.014V26ZM121.423 22.0967L118.962 18.3574H121.327L122.811 20.791L124.308 18.3574H126.673L124.185 22.0967L126.789 26H124.417L122.811 23.3818L121.197 26H118.832L121.423 22.0967ZM132.721 26L132.317 24.9609H132.263C131.912 25.403 131.549 25.7106 131.176 25.8838C130.807 26.0524 130.324 26.1367 129.727 26.1367C128.993 26.1367 128.414 25.9271 127.99 25.5078C127.571 25.0885 127.361 24.4915 127.361 23.7168C127.361 22.9056 127.644 22.3086 128.209 21.9258C128.779 21.5384 129.635 21.3242 130.779 21.2832L132.105 21.2422V20.9072C132.105 20.1325 131.709 19.7451 130.916 19.7451C130.305 19.7451 129.588 19.9297 128.763 20.2988L128.072 18.8906C128.952 18.4303 129.927 18.2002 130.998 18.2002C132.023 18.2002 132.81 18.4235 133.356 18.8701C133.903 19.3167 134.177 19.9958 134.177 20.9072V26H132.721ZM132.105 22.459L131.299 22.4863C130.693 22.5046 130.242 22.6139 129.945 22.8145C129.649 23.015 129.501 23.3203 129.501 23.7305C129.501 24.3184 129.838 24.6123 130.513 24.6123C130.996 24.6123 131.381 24.4733 131.668 24.1953C131.96 23.9173 132.105 23.5482 132.105 23.0879V22.459ZM143.089 26H141.004V21.5361C141.004 20.9847 140.91 20.5723 140.724 20.2988C140.541 20.0208 140.252 19.8818 139.855 19.8818C139.322 19.8818 138.935 20.0778 138.693 20.4697C138.452 20.8617 138.331 21.5065 138.331 22.4043V26H136.246V18.3574H137.839L138.119 19.335H138.235C138.44 18.984 138.737 18.7106 139.124 18.5146C139.511 18.3141 139.956 18.2139 140.457 18.2139C141.601 18.2139 142.376 18.5876 142.781 19.335H142.966C143.171 18.9795 143.472 18.7038 143.868 18.5078C144.269 18.3118 144.72 18.2139 145.222 18.2139C146.088 18.2139 146.741 18.4372 147.184 18.8838C147.63 19.3258 147.853 20.0368 147.853 21.0166V26H145.762V21.5361C145.762 20.9847 145.668 20.5723 145.481 20.2988C145.299 20.0208 145.01 19.8818 144.613 19.8818C144.103 19.8818 143.72 20.0641 143.465 20.4287C143.214 20.7933 143.089 21.3721 143.089 22.165V26ZM154.113 26.1367C153.215 26.1367 152.511 25.8109 152.001 25.1592H151.892C151.964 25.7972 152.001 26.1663 152.001 26.2666V29.3633H149.916V18.3574H151.611L151.905 19.3486H152.001C152.489 18.5921 153.211 18.2139 154.168 18.2139C155.07 18.2139 155.777 18.5625 156.287 19.2598C156.797 19.957 157.053 20.9255 157.053 22.165C157.053 22.9808 156.932 23.6895 156.69 24.291C156.453 24.8926 156.114 25.3506 155.672 25.665C155.23 25.9795 154.71 26.1367 154.113 26.1367ZM153.498 19.8818C152.983 19.8818 152.607 20.0413 152.37 20.3604C152.133 20.6748 152.01 21.1966 152.001 21.9258V22.1514C152.001 22.9717 152.122 23.5596 152.363 23.915C152.609 24.2705 152.997 24.4482 153.525 24.4482C154.46 24.4482 154.927 23.6781 154.927 22.1377C154.927 21.3857 154.81 20.8229 154.578 20.4492C154.35 20.071 153.99 19.8818 153.498 19.8818ZM160.776 26H158.691V15.3633H160.776V26ZM166.052 19.6973C165.61 19.6973 165.263 19.8385 165.013 20.1211C164.762 20.3991 164.618 20.7956 164.582 21.3105H167.508C167.499 20.7956 167.364 20.3991 167.104 20.1211C166.845 19.8385 166.494 19.6973 166.052 19.6973ZM166.346 26.1367C165.115 26.1367 164.154 25.7972 163.461 25.1182C162.768 24.4391 162.422 23.4775 162.422 22.2334C162.422 20.9528 162.741 19.9639 163.379 19.2666C164.021 18.5648 164.908 18.2139 166.038 18.2139C167.118 18.2139 167.959 18.5215 168.56 19.1367C169.162 19.752 169.463 20.6019 169.463 21.6865V22.6982H164.534C164.557 23.2907 164.732 23.7533 165.06 24.0859C165.389 24.4186 165.849 24.585 166.441 24.585C166.902 24.585 167.337 24.5371 167.747 24.4414C168.157 24.3457 168.586 24.193 169.032 23.9834V25.5967C168.668 25.779 168.278 25.9134 167.863 26C167.448 26.0911 166.943 26.1367 166.346 26.1367Z" fill="#fff"/><rect width="677" height="99.333" transform="translate(101 42)" fill="#171C1E"/><path d="M218.865 86.6667H217.078V78.1003H221.988V79.5885H218.865V81.7975H221.771V83.2799H218.865V86.6667ZM224.875 83.3796C224.875 84.028 224.981 84.5182 225.192 84.8503C225.407 85.1823 225.754 85.3483 226.235 85.3483C226.711 85.3483 227.053 85.1842 227.26 84.8561C227.471 84.5241 227.576 84.0319 227.576 83.3796C227.576 82.7311 227.471 82.2448 227.26 81.9206C227.049 81.5964 226.703 81.4342 226.223 81.4342C225.746 81.4342 225.403 81.5964 225.192 81.9206C224.981 82.2409 224.875 82.7272 224.875 83.3796ZM229.405 83.3796C229.405 84.446 229.123 85.2799 228.561 85.8815C227.998 86.4831 227.215 86.7839 226.211 86.7839C225.582 86.7839 225.028 86.6471 224.547 86.3737C224.067 86.0964 223.698 85.6999 223.44 85.1842C223.182 84.6686 223.053 84.0671 223.053 83.3796C223.053 82.3092 223.332 81.4772 223.891 80.8835C224.449 80.2897 225.235 79.9928 226.246 79.9928C226.875 79.9928 227.43 80.1296 227.91 80.403C228.391 80.6764 228.76 81.069 229.018 81.5807C229.276 82.0924 229.405 82.6921 229.405 83.3796ZM236.856 86.6667H235.069V82.8405C235.069 82.3678 234.985 82.0143 234.817 81.7799C234.649 81.5417 234.381 81.4225 234.014 81.4225C233.514 81.4225 233.153 81.5905 232.93 81.9264C232.708 82.2585 232.596 82.8112 232.596 83.5846V86.6667H230.809V80.1159H232.174L232.415 80.9538H232.514C232.713 80.6374 232.987 80.3991 233.335 80.2389C233.686 80.0749 234.085 79.9928 234.53 79.9928C235.292 79.9928 235.87 80.1999 236.264 80.6139C236.659 81.0241 236.856 81.6178 236.856 82.3952V86.6667ZM241.384 85.36C241.696 85.36 242.071 85.2917 242.509 85.1549V86.485C242.063 86.6842 241.516 86.7839 240.868 86.7839C240.153 86.7839 239.632 86.6042 239.304 86.2448C238.979 85.8815 238.817 85.3385 238.817 84.6159V81.4577H237.962V80.7018L238.946 80.1042L239.462 78.7214H240.604V80.1159H242.438V81.4577H240.604V84.6159C240.604 84.8698 240.675 85.0573 240.815 85.1784C240.96 85.2995 241.149 85.36 241.384 85.36ZM243.187 84.1823V82.7174H246.333V84.1823H243.187ZM252.132 84.7214C252.132 85.3932 251.898 85.9049 251.429 86.2565C250.964 86.6081 250.267 86.7839 249.337 86.7839C248.861 86.7839 248.454 86.7507 248.119 86.6842C247.783 86.6217 247.468 86.528 247.175 86.403V84.9264C247.507 85.0827 247.88 85.2135 248.294 85.319C248.712 85.4245 249.079 85.4772 249.396 85.4772C250.044 85.4772 250.369 85.2897 250.369 84.9147C250.369 84.7741 250.326 84.6608 250.24 84.5749C250.154 84.485 250.005 84.3854 249.794 84.276C249.583 84.1628 249.302 84.0319 248.951 83.8835C248.447 83.6725 248.076 83.4772 247.837 83.2975C247.603 83.1178 247.431 82.9128 247.322 82.6823C247.216 82.4479 247.163 82.1608 247.163 81.821C247.163 81.2389 247.388 80.7897 247.837 80.4733C248.29 80.153 248.931 79.9928 249.759 79.9928C250.548 79.9928 251.316 80.1647 252.062 80.5085L251.523 81.7975C251.195 81.6569 250.888 81.5417 250.603 81.4518C250.318 81.362 250.027 81.3171 249.73 81.3171C249.202 81.3171 248.939 81.4596 248.939 81.7448C248.939 81.9049 249.023 82.0436 249.191 82.1608C249.363 82.278 249.736 82.4518 250.31 82.6823C250.822 82.8893 251.197 83.0827 251.435 83.2624C251.673 83.4421 251.849 83.6491 251.962 83.8835C252.076 84.1178 252.132 84.3971 252.132 84.7214ZM253.379 78.4225C253.379 77.8405 253.703 77.5495 254.351 77.5495C255 77.5495 255.324 77.8405 255.324 78.4225C255.324 78.6999 255.242 78.9167 255.078 79.0729C254.918 79.2253 254.675 79.3014 254.351 79.3014C253.703 79.3014 253.379 79.0085 253.379 78.4225ZM255.242 86.6667H253.455V80.1159H255.242V86.6667ZM261.609 86.6667H256.435V85.612L259.471 81.4811H256.617V80.1159H261.504V81.276L258.551 85.3014H261.609V86.6667ZM265.551 81.2643C265.172 81.2643 264.875 81.3854 264.66 81.6276C264.445 81.8659 264.322 82.2057 264.291 82.6471H266.799C266.791 82.2057 266.676 81.8659 266.453 81.6276C266.231 81.3854 265.93 81.2643 265.551 81.2643ZM265.803 86.7839C264.748 86.7839 263.924 86.4928 263.33 85.9108C262.736 85.3288 262.44 84.5046 262.44 83.4382C262.44 82.3405 262.713 81.4928 263.26 80.8952C263.811 80.2936 264.57 79.9928 265.539 79.9928C266.465 79.9928 267.186 80.2565 267.701 80.7839C268.217 81.3112 268.475 82.0397 268.475 82.9694V83.8366H264.25C264.27 84.3444 264.42 84.7409 264.701 85.026C264.983 85.3112 265.377 85.4538 265.885 85.4538C266.279 85.4538 266.653 85.4128 267.004 85.3307C267.356 85.2487 267.723 85.1178 268.106 84.9382V86.321C267.793 86.4772 267.459 86.5924 267.104 86.6667C266.748 86.7448 266.315 86.7839 265.803 86.7839ZM269.604 85.8288C269.604 85.5007 269.692 85.2526 269.868 85.0846C270.043 84.9167 270.299 84.8327 270.635 84.8327C270.959 84.8327 271.209 84.9186 271.385 85.0905C271.565 85.2624 271.655 85.5085 271.655 85.8288C271.655 86.1374 271.565 86.3815 271.385 86.5612C271.206 86.737 270.956 86.8249 270.635 86.8249C270.307 86.8249 270.053 86.7389 269.873 86.5671C269.694 86.3913 269.604 86.1452 269.604 85.8288ZM269.604 80.9889C269.604 80.6608 269.692 80.4128 269.868 80.2448C270.043 80.0768 270.299 79.9928 270.635 79.9928C270.959 79.9928 271.209 80.0788 271.385 80.2507C271.565 80.4225 271.655 80.6686 271.655 80.9889C271.655 81.3053 271.563 81.5514 271.379 81.7272C271.2 81.8991 270.952 81.985 270.635 81.985C270.307 81.985 270.053 81.8991 269.873 81.7272C269.694 81.5553 269.604 81.3092 269.604 80.9889ZM281.53 86.6667H275.899V85.8288L278.155 83.5612C278.843 82.8659 279.296 82.3698 279.515 82.0729C279.733 81.776 279.897 81.487 280.007 81.2057C280.116 80.9245 280.171 80.6217 280.171 80.2975C280.171 79.8405 280.032 79.4792 279.755 79.2135C279.478 78.944 279.093 78.8092 278.601 78.8092C278.245 78.8092 277.907 78.8678 277.587 78.985C277.271 79.1022 276.917 79.3151 276.526 79.6237L276.011 78.9616C276.8 78.3053 277.659 77.9772 278.589 77.9772C279.394 77.9772 280.024 78.1842 280.481 78.5983C280.938 79.0085 281.167 79.5612 281.167 80.2565C281.167 80.7995 281.015 81.3366 280.71 81.8678C280.405 82.3991 279.835 83.071 278.999 83.8835L277.124 85.7174V85.7643H281.53V86.6667ZM288.325 86.6667H282.695V85.8288L284.95 83.5612C285.638 82.8659 286.091 82.3698 286.31 82.0729C286.529 81.776 286.693 81.487 286.802 81.2057C286.911 80.9245 286.966 80.6217 286.966 80.2975C286.966 79.8405 286.827 79.4792 286.55 79.2135C286.273 78.944 285.888 78.8092 285.396 78.8092C285.04 78.8092 284.702 78.8678 284.382 78.985C284.066 79.1022 283.712 79.3151 283.322 79.6237L282.806 78.9616C283.595 78.3053 284.454 77.9772 285.384 77.9772C286.189 77.9772 286.82 78.1842 287.277 78.5983C287.734 79.0085 287.962 79.5612 287.962 80.2565C287.962 80.7995 287.81 81.3366 287.505 81.8678C287.2 82.3991 286.63 83.071 285.794 83.8835L283.919 85.7174V85.7643H288.325V86.6667ZM294.078 84.9147C294.078 85.5124 293.855 85.9733 293.41 86.2975C292.964 86.6217 292.339 86.7839 291.535 86.7839C290.683 86.7839 290.019 86.6491 289.543 86.3796V85.4772C289.851 85.6335 290.181 85.7565 290.533 85.8464C290.888 85.9362 291.23 85.9811 291.558 85.9811C292.066 85.9811 292.457 85.901 292.73 85.7409C293.003 85.5768 293.14 85.3288 293.14 84.9967C293.14 84.7467 293.031 84.5339 292.812 84.3581C292.597 84.1784 292.175 83.9674 291.546 83.7253C290.949 83.5026 290.523 83.3092 290.269 83.1452C290.019 82.9772 289.832 82.7878 289.707 82.5768C289.585 82.3659 289.525 82.1139 289.525 81.821C289.525 81.2975 289.738 80.8854 290.164 80.5846C290.589 80.2799 291.173 80.1276 291.916 80.1276C292.607 80.1276 293.283 80.2682 293.943 80.5495L293.597 81.3405C292.953 81.0749 292.369 80.9421 291.845 80.9421C291.384 80.9421 291.037 81.0143 290.802 81.1589C290.568 81.3034 290.451 81.5026 290.451 81.7565C290.451 81.9284 290.494 82.0749 290.58 82.196C290.669 82.3171 290.812 82.4323 291.007 82.5417C291.203 82.651 291.578 82.8092 292.132 83.0163C292.894 83.2936 293.408 83.5729 293.673 83.8542C293.943 84.1354 294.078 84.4889 294.078 84.9147ZM298.582 86.7839C298.164 86.7839 297.781 86.7077 297.433 86.5553C297.09 86.3991 296.801 86.1608 296.566 85.8405H296.496C296.543 86.2155 296.566 86.571 296.566 86.9069V89.5495H295.594V80.2448H296.385L296.519 81.1237H296.566C296.816 80.7721 297.107 80.5182 297.439 80.362C297.771 80.2057 298.152 80.1276 298.582 80.1276C299.433 80.1276 300.09 80.4186 300.551 81.0007C301.015 81.5827 301.248 82.3991 301.248 83.4499C301.248 84.5046 301.012 85.3249 300.539 85.9108C300.07 86.4928 299.418 86.7839 298.582 86.7839ZM298.441 80.9538C297.785 80.9538 297.31 81.1354 297.017 81.4987C296.724 81.862 296.574 82.4401 296.566 83.2331V83.4499C296.566 84.3522 296.717 84.9987 297.017 85.3893C297.318 85.776 297.801 85.9694 298.465 85.9694C299.019 85.9694 299.453 85.7448 299.765 85.2956C300.082 84.8464 300.24 84.2272 300.24 83.4382C300.24 82.6374 300.082 82.0241 299.765 81.5983C299.453 81.1686 299.012 80.9538 298.441 80.9538ZM217.078 98.1003H219.744C220.959 98.1003 221.84 98.2741 222.387 98.6217C222.938 98.9655 223.213 99.5143 223.213 100.268C223.213 100.78 223.092 101.2 222.85 101.528C222.611 101.856 222.293 102.053 221.895 102.12V102.178C222.438 102.299 222.828 102.526 223.066 102.858C223.309 103.19 223.43 103.632 223.43 104.182C223.43 104.964 223.146 105.573 222.58 106.01C222.018 106.448 221.252 106.667 220.283 106.667H217.078V98.1003ZM218.895 101.493H219.949C220.441 101.493 220.797 101.417 221.016 101.264C221.238 101.112 221.35 100.86 221.35 100.508C221.35 100.18 221.229 99.946 220.986 99.8053C220.748 99.6608 220.369 99.5885 219.85 99.5885H218.895V101.493ZM218.895 102.934V105.167H220.078C220.578 105.167 220.947 105.071 221.186 104.88C221.424 104.688 221.543 104.395 221.543 104.001C221.543 103.29 221.035 102.934 220.02 102.934H218.895ZM226.352 103.38C226.352 104.028 226.457 104.518 226.668 104.85C226.883 105.182 227.231 105.348 227.711 105.348C228.188 105.348 228.53 105.184 228.737 104.856C228.948 104.524 229.053 104.032 229.053 103.38C229.053 102.731 228.948 102.245 228.737 101.921C228.526 101.596 228.18 101.434 227.699 101.434C227.223 101.434 226.879 101.596 226.668 101.921C226.457 102.241 226.352 102.727 226.352 103.38ZM230.881 103.38C230.881 104.446 230.6 105.28 230.037 105.882C229.475 106.483 228.692 106.784 227.688 106.784C227.059 106.784 226.504 106.647 226.024 106.374C225.543 106.096 225.174 105.7 224.916 105.184C224.658 104.669 224.53 104.067 224.53 103.38C224.53 102.309 224.809 101.477 225.367 100.883C225.926 100.29 226.711 99.9928 227.723 99.9928C228.352 99.9928 228.907 100.13 229.387 100.403C229.867 100.676 230.237 101.069 230.494 101.581C230.752 102.092 230.881 102.692 230.881 103.38ZM235.942 99.9928C236.184 99.9928 236.385 100.01 236.545 100.046L236.411 101.721C236.266 101.682 236.09 101.663 235.883 101.663C235.313 101.663 234.868 101.809 234.547 102.102C234.231 102.395 234.073 102.805 234.073 103.333V106.667H232.286V100.116H233.639L233.903 101.217H233.991C234.194 100.85 234.467 100.555 234.811 100.333C235.159 100.106 235.536 99.9928 235.942 99.9928ZM239.737 106.784C238.968 106.784 238.362 106.485 237.921 105.887C237.483 105.29 237.264 104.462 237.264 103.403C237.264 102.329 237.487 101.493 237.932 100.895C238.382 100.294 238.999 99.9928 239.784 99.9928C240.608 99.9928 241.237 100.313 241.671 100.954H241.729C241.639 100.465 241.595 100.03 241.595 99.6471V97.5495H243.388V106.667H242.016L241.671 105.817H241.595C241.188 106.462 240.569 106.784 239.737 106.784ZM240.364 105.36C240.821 105.36 241.155 105.227 241.366 104.962C241.581 104.696 241.698 104.245 241.718 103.608V103.415C241.718 102.712 241.608 102.208 241.389 101.903C241.175 101.598 240.823 101.446 240.335 101.446C239.936 101.446 239.626 101.616 239.403 101.956C239.184 102.292 239.075 102.782 239.075 103.426C239.075 104.071 239.186 104.555 239.409 104.88C239.632 105.2 239.95 105.36 240.364 105.36ZM247.898 101.264C247.519 101.264 247.222 101.385 247.007 101.628C246.792 101.866 246.669 102.206 246.638 102.647H249.146C249.138 102.206 249.023 101.866 248.8 101.628C248.577 101.385 248.276 101.264 247.898 101.264ZM248.149 106.784C247.095 106.784 246.271 106.493 245.677 105.911C245.083 105.329 244.786 104.505 244.786 103.438C244.786 102.34 245.06 101.493 245.607 100.895C246.157 100.294 246.917 99.9928 247.886 99.9928C248.812 99.9928 249.532 100.257 250.048 100.784C250.564 101.311 250.821 102.04 250.821 102.969V103.837H246.597C246.616 104.344 246.767 104.741 247.048 105.026C247.329 105.311 247.724 105.454 248.232 105.454C248.626 105.454 248.999 105.413 249.351 105.331C249.702 105.249 250.069 105.118 250.452 104.938V106.321C250.14 106.477 249.806 106.592 249.45 106.667C249.095 106.745 248.661 106.784 248.149 106.784ZM255.859 99.9928C256.101 99.9928 256.302 100.01 256.462 100.046L256.327 101.721C256.183 101.682 256.007 101.663 255.8 101.663C255.23 101.663 254.785 101.809 254.464 102.102C254.148 102.395 253.99 102.805 253.99 103.333V106.667H252.202V100.116H253.556L253.82 101.217H253.908C254.111 100.85 254.384 100.555 254.728 100.333C255.076 100.106 255.452 99.9928 255.859 99.9928ZM257 104.182V102.717H260.146V104.182H257ZM265.031 99.9928C265.273 99.9928 265.475 100.01 265.635 100.046L265.5 101.721C265.355 101.682 265.18 101.663 264.973 101.663C264.402 101.663 263.957 101.809 263.637 102.102C263.32 102.395 263.162 102.805 263.162 103.333V106.667H261.375V100.116H262.728L262.992 101.217H263.08C263.283 100.85 263.557 100.555 263.9 100.333C264.248 100.106 264.625 99.9928 265.031 99.9928ZM270.912 106.667L270.567 105.776H270.52C270.219 106.155 269.908 106.419 269.588 106.567C269.272 106.712 268.858 106.784 268.346 106.784C267.717 106.784 267.221 106.604 266.858 106.245C266.498 105.885 266.319 105.374 266.319 104.71C266.319 104.014 266.561 103.503 267.045 103.174C267.533 102.842 268.268 102.659 269.248 102.624L270.385 102.589V102.301C270.385 101.637 270.045 101.305 269.365 101.305C268.842 101.305 268.227 101.464 267.52 101.78L266.928 100.573C267.682 100.178 268.518 99.9811 269.436 99.9811C270.315 99.9811 270.988 100.173 271.457 100.555C271.926 100.938 272.16 101.52 272.16 102.301V106.667H270.912ZM270.385 103.632L269.694 103.655C269.174 103.671 268.787 103.764 268.533 103.936C268.279 104.108 268.153 104.37 268.153 104.721C268.153 105.225 268.442 105.477 269.02 105.477C269.434 105.477 269.764 105.358 270.01 105.12C270.26 104.882 270.385 104.565 270.385 104.171V103.632ZM276.008 106.784C275.239 106.784 274.633 106.485 274.192 105.887C273.754 105.29 273.536 104.462 273.536 103.403C273.536 102.329 273.758 101.493 274.204 100.895C274.653 100.294 275.27 99.9928 276.055 99.9928C276.879 99.9928 277.508 100.313 277.942 100.954H278C277.911 100.465 277.866 100.03 277.866 99.6471V97.5495H279.659V106.667H278.288L277.942 105.817H277.866C277.459 106.462 276.84 106.784 276.008 106.784ZM276.635 105.36C277.092 105.36 277.426 105.227 277.637 104.962C277.852 104.696 277.969 104.245 277.989 103.608V103.415C277.989 102.712 277.879 102.208 277.661 101.903C277.446 101.598 277.094 101.446 276.606 101.446C276.207 101.446 275.897 101.616 275.674 101.956C275.456 102.292 275.346 102.782 275.346 103.426C275.346 104.071 275.457 104.555 275.68 104.88C275.903 105.2 276.221 105.36 276.635 105.36ZM281.38 98.4225C281.38 97.8405 281.704 97.5495 282.352 97.5495C283.001 97.5495 283.325 97.8405 283.325 98.4225C283.325 98.6999 283.243 98.9167 283.079 99.0729C282.919 99.2253 282.676 99.3014 282.352 99.3014C281.704 99.3014 281.38 99.0085 281.38 98.4225ZM283.243 106.667H281.456V100.116H283.243V106.667ZM289.692 106.667L289.452 105.829H289.358C289.167 106.133 288.896 106.37 288.544 106.538C288.192 106.702 287.792 106.784 287.343 106.784C286.573 106.784 285.993 106.579 285.603 106.169C285.212 105.755 285.017 105.161 285.017 104.387V100.116H286.804V103.942C286.804 104.415 286.888 104.77 287.056 105.008C287.224 105.243 287.491 105.36 287.858 105.36C288.358 105.36 288.72 105.194 288.942 104.862C289.165 104.526 289.276 103.971 289.276 103.198V100.116H291.063V106.667H289.692ZM297.437 104.721C297.437 105.393 297.202 105.905 296.734 106.257C296.269 106.608 295.572 106.784 294.642 106.784C294.165 106.784 293.759 106.751 293.423 106.684C293.087 106.622 292.773 106.528 292.48 106.403V104.926C292.812 105.083 293.185 105.214 293.599 105.319C294.017 105.424 294.384 105.477 294.7 105.477C295.349 105.477 295.673 105.29 295.673 104.915C295.673 104.774 295.63 104.661 295.544 104.575C295.458 104.485 295.31 104.385 295.099 104.276C294.888 104.163 294.607 104.032 294.255 103.883C293.751 103.673 293.38 103.477 293.142 103.298C292.907 103.118 292.736 102.913 292.626 102.682C292.521 102.448 292.468 102.161 292.468 101.821C292.468 101.239 292.693 100.79 293.142 100.473C293.595 100.153 294.236 99.9928 295.064 99.9928C295.853 99.9928 296.62 100.165 297.366 100.508L296.827 101.798C296.499 101.657 296.193 101.542 295.907 101.452C295.622 101.362 295.331 101.317 295.034 101.317C294.507 101.317 294.243 101.46 294.243 101.745C294.243 101.905 294.327 102.044 294.495 102.161C294.667 102.278 295.04 102.452 295.615 102.682C296.126 102.889 296.501 103.083 296.74 103.262C296.978 103.442 297.154 103.649 297.267 103.883C297.38 104.118 297.437 104.397 297.437 104.721ZM298.507 105.829C298.507 105.501 298.595 105.253 298.771 105.085C298.947 104.917 299.203 104.833 299.539 104.833C299.863 104.833 300.113 104.919 300.289 105.09C300.468 105.262 300.558 105.508 300.558 105.829C300.558 106.137 300.468 106.382 300.289 106.561C300.109 106.737 299.859 106.825 299.539 106.825C299.21 106.825 298.957 106.739 298.777 106.567C298.597 106.391 298.507 106.145 298.507 105.829ZM298.507 100.989C298.507 100.661 298.595 100.413 298.771 100.245C298.947 100.077 299.203 99.9928 299.539 99.9928C299.863 99.9928 300.113 100.079 300.289 100.251C300.468 100.423 300.558 100.669 300.558 100.989C300.558 101.305 300.466 101.551 300.283 101.727C300.103 101.899 299.855 101.985 299.539 101.985C299.21 101.985 298.957 101.899 298.777 101.727C298.597 101.555 298.507 101.309 298.507 100.989ZM308.406 106.667H307.457V100.561C307.457 100.053 307.473 99.5729 307.504 99.1198C307.422 99.2018 307.33 99.2878 307.229 99.3776C307.127 99.4674 306.662 99.8483 305.834 100.52L305.318 99.8522L307.586 98.1003H308.406V106.667ZM317.276 102.372C317.276 103.852 317.041 104.958 316.573 105.688C316.108 106.419 315.395 106.784 314.434 106.784C313.512 106.784 312.811 106.411 312.33 105.665C311.85 104.915 311.61 103.817 311.61 102.372C311.61 100.88 311.842 99.7721 312.307 99.0495C312.772 98.3268 313.481 97.9655 314.434 97.9655C315.364 97.9655 316.069 98.3424 316.549 99.0964C317.034 99.8503 317.276 100.942 317.276 102.372ZM312.594 102.372C312.594 103.618 312.741 104.526 313.034 105.096C313.327 105.663 313.793 105.946 314.434 105.946C315.082 105.946 315.551 105.659 315.84 105.085C316.133 104.507 316.28 103.602 316.28 102.372C316.28 101.141 316.133 100.241 315.84 99.6706C315.551 99.0964 315.082 98.8092 314.434 98.8092C313.793 98.8092 313.327 99.0924 313.034 99.6589C312.741 100.221 312.594 101.126 312.594 102.372ZM324.071 102.372C324.071 103.852 323.837 104.958 323.368 105.688C322.903 106.419 322.19 106.784 321.229 106.784C320.307 106.784 319.606 106.411 319.126 105.665C318.645 104.915 318.405 103.817 318.405 102.372C318.405 100.88 318.637 99.7721 319.102 99.0495C319.567 98.3268 320.276 97.9655 321.229 97.9655C322.159 97.9655 322.864 98.3424 323.344 99.0964C323.829 99.8503 324.071 100.942 324.071 102.372ZM319.389 102.372C319.389 103.618 319.536 104.526 319.829 105.096C320.122 105.663 320.589 105.946 321.229 105.946C321.878 105.946 322.346 105.659 322.635 105.085C322.928 104.507 323.075 103.602 323.075 102.372C323.075 101.141 322.928 100.241 322.635 99.6706C322.346 99.0964 321.878 98.8092 321.229 98.8092C320.589 98.8092 320.122 99.0924 319.829 99.6589C319.536 100.221 319.389 101.126 319.389 102.372ZM330.005 105.805H329.952C329.503 106.458 328.831 106.784 327.936 106.784C327.097 106.784 326.442 106.497 325.974 105.923C325.509 105.348 325.276 104.532 325.276 103.473C325.276 102.415 325.511 101.592 325.979 101.007C326.448 100.421 327.1 100.128 327.936 100.128C328.808 100.128 329.475 100.444 329.94 101.077H330.017L329.975 100.614L329.952 100.163V97.5495H330.925V106.667H330.134L330.005 105.805ZM328.059 105.969C328.724 105.969 329.204 105.79 329.501 105.43C329.802 105.067 329.952 104.483 329.952 103.678V103.473C329.952 102.563 329.8 101.915 329.495 101.528C329.194 101.137 328.712 100.942 328.048 100.942C327.477 100.942 327.04 101.165 326.735 101.61C326.434 102.051 326.284 102.676 326.284 103.485C326.284 104.305 326.434 104.924 326.735 105.342C327.036 105.76 327.477 105.969 328.059 105.969ZM335.909 106.784C335.491 106.784 335.109 106.708 334.761 106.555C334.417 106.399 334.128 106.161 333.894 105.84H333.823C333.87 106.215 333.894 106.571 333.894 106.907V109.549H332.921V100.245H333.712L333.847 101.124H333.894C334.144 100.772 334.435 100.518 334.767 100.362C335.099 100.206 335.48 100.128 335.909 100.128C336.761 100.128 337.417 100.419 337.878 101.001C338.343 101.583 338.575 102.399 338.575 103.45C338.575 104.505 338.339 105.325 337.866 105.911C337.398 106.493 336.745 106.784 335.909 106.784ZM335.769 100.954C335.112 100.954 334.638 101.135 334.345 101.499C334.052 101.862 333.902 102.44 333.894 103.233V103.45C333.894 104.352 334.044 104.999 334.345 105.389C334.646 105.776 335.128 105.969 335.792 105.969C336.347 105.969 336.78 105.745 337.093 105.296C337.409 104.846 337.568 104.227 337.568 103.438C337.568 102.637 337.409 102.024 337.093 101.598C336.78 101.169 336.339 100.954 335.769 100.954Z" fill="#fff"/><path d="M205 118.667V64.6667H342.827V75.1521L350 83.0162L342.827 90.356V118.667H205Z" stroke="#CCC"/><path d="M363.944 96.6667H362.837V89.5436C362.837 88.9512 362.855 88.3906 362.892 87.862C362.796 87.9577 362.689 88.0579 362.57 88.1628C362.452 88.2676 361.91 88.7119 360.943 89.4958L360.342 88.7165L362.987 86.6725H363.944V96.6667ZM367.784 92.3942C367.784 90.43 368.165 88.9626 368.926 87.9919C369.691 87.0166 370.822 86.529 372.316 86.529C372.831 86.529 373.237 86.5723 373.533 86.6589V87.6364C373.182 87.5225 372.781 87.4655 372.33 87.4655C371.259 87.4655 370.441 87.8005 369.876 88.4704C369.311 89.1357 369.001 90.1839 368.946 91.6149H369.028C369.53 90.8311 370.323 90.4391 371.407 90.4391C372.305 90.4391 373.011 90.7103 373.526 91.2526C374.046 91.7949 374.306 92.5309 374.306 93.4606C374.306 94.4997 374.021 95.3177 373.451 95.9147C372.886 96.5072 372.12 96.8034 371.154 96.8034C370.12 96.8034 369.3 96.416 368.693 95.6413C368.087 94.862 367.784 93.7796 367.784 92.3942ZM371.141 95.8395C371.788 95.8395 372.289 95.6367 372.645 95.2311C373.005 94.821 373.185 94.2308 373.185 93.4606C373.185 92.7998 373.018 92.2803 372.686 91.902C372.353 91.5238 371.856 91.3346 371.195 91.3346C370.785 91.3346 370.409 91.4189 370.067 91.5876C369.726 91.7562 369.452 91.9886 369.247 92.2848C369.047 92.5811 368.946 92.8887 368.946 93.2077C368.946 93.6771 369.037 94.1146 369.22 94.5202C369.402 94.9258 369.66 95.2471 369.992 95.4841C370.329 95.721 370.712 95.8395 371.141 95.8395ZM381.215 95.6618H381.153C380.629 96.4229 379.845 96.8034 378.802 96.8034C377.822 96.8034 377.059 96.4684 376.512 95.7985C375.969 95.1286 375.698 94.1761 375.698 92.9411C375.698 91.7061 375.972 90.7467 376.519 90.0632C377.065 89.3796 377.827 89.0378 378.802 89.0378C379.818 89.0378 380.597 89.4069 381.14 90.1452H381.229L381.181 89.6051L381.153 89.0788V86.0299H382.288V96.6667H381.365L381.215 95.6618ZM378.945 95.8532C379.72 95.8532 380.281 95.6436 380.627 95.2243C380.978 94.8005 381.153 94.1191 381.153 93.1803V92.9411C381.153 91.8792 380.976 91.1227 380.62 90.6716C380.269 90.2158 379.706 89.988 378.932 89.988C378.266 89.988 377.756 90.2477 377.4 90.7673C377.049 91.2822 376.874 92.0114 376.874 92.9548C376.874 93.9118 377.049 94.6341 377.4 95.1217C377.751 95.6094 378.266 95.8532 378.945 95.8532ZM388.104 96.8034C387.616 96.8034 387.169 96.7145 386.764 96.5368C386.363 96.3545 386.025 96.0765 385.752 95.7028H385.67C385.725 96.1403 385.752 96.555 385.752 96.9469V100.03H384.617V89.1745H385.54L385.697 90.1999H385.752C386.044 89.7897 386.383 89.4935 386.771 89.3112C387.158 89.1289 387.602 89.0378 388.104 89.0378C389.097 89.0378 389.863 89.3773 390.4 90.0563C390.943 90.7354 391.214 91.6878 391.214 92.9137C391.214 94.1442 390.938 95.1012 390.387 95.7848C389.84 96.4639 389.079 96.8034 388.104 96.8034ZM387.939 90.0016C387.174 90.0016 386.62 90.2135 386.278 90.6374C385.937 91.0612 385.761 91.7357 385.752 92.6608V92.9137C385.752 93.9665 385.927 94.7207 386.278 95.1764C386.629 95.6276 387.192 95.8532 387.967 95.8532C388.614 95.8532 389.12 95.5911 389.484 95.0671C389.854 94.543 390.038 93.8206 390.038 92.9001C390.038 91.9658 389.854 91.2503 389.484 90.7536C389.12 90.2523 388.605 90.0016 387.939 90.0016Z" fill="#E8178A"/><rect x="398" y="76.708" width="155" height="48" rx="24" fill="#0063A3"/><g clip-path="url(#clip0_6848_90562)"><path d="M422 88.375C421.41 88.375 420.851 88.4921 420.341 88.7034C419.831 88.915 419.246 88.6729 419.035 88.1628C418.823 87.6526 419.065 87.0675 419.575 86.856C420.323 86.5457 421.143 86.375 422 86.375H424C424.552 86.375 425 86.8227 425 87.375C425 87.9273 424.552 88.375 424 88.375H422Z" fill="#fff"/><path d="M427 87.375C427 86.8227 427.448 86.375 428 86.375H432C432.552 86.375 433 86.8227 433 87.375C433 87.9273 432.552 88.375 432 88.375H428C427.448 88.375 427 87.9273 427 87.375Z" fill="#fff"/><path d="M435 87.375C435 86.8227 435.448 86.375 436 86.375H438C438.857 86.375 439.676 86.5457 440.424 86.856C440.935 87.0675 441.177 87.6526 440.965 88.1628C440.754 88.6729 440.168 88.915 439.658 88.7034C439.149 88.4921 438.589 88.375 438 88.375H436C435.448 88.375 435 87.9273 435 87.375Z" fill="#fff"/><path d="M417.454 89.7431C417.964 89.9546 418.206 90.5397 417.995 91.0499C417.784 91.5594 417.667 92.1189 417.667 92.7083V94.7083C417.667 95.2606 417.219 95.7083 416.667 95.7083C416.114 95.7083 415.667 95.2606 415.667 94.7083V92.7083C415.667 91.8514 415.837 91.0319 416.147 90.2837C416.359 89.7736 416.944 89.5315 417.454 89.7431Z" fill="#fff"/><path d="M442.545 89.7431C443.056 89.5315 443.641 89.7736 443.852 90.2838C444.162 91.0319 444.333 91.8514 444.333 92.7083V94.7083C444.333 95.2606 443.885 95.7083 443.333 95.7083C442.781 95.7083 442.333 95.2606 442.333 94.7083V92.7083C442.333 92.1189 442.216 91.5594 442.005 91.0499C441.793 90.5397 442.035 89.9546 442.545 89.7431Z" fill="#fff"/><path d="M416.667 97.7083C417.219 97.7083 417.667 98.1561 417.667 98.7083V102.708C417.667 103.261 417.219 103.708 416.667 103.708C416.114 103.708 415.667 103.261 415.667 102.708V98.7083C415.667 98.1561 416.114 97.7083 416.667 97.7083Z" fill="#fff"/><path d="M443.333 97.7083C443.885 97.7083 444.333 98.1561 444.333 98.7083V102.708C444.333 103.261 443.885 103.708 443.333 103.708C442.781 103.708 442.333 103.261 442.333 102.708V98.7083C442.333 98.1561 442.781 97.7083 443.333 97.7083Z" fill="#fff"/><path d="M416.667 105.708C417.219 105.708 417.667 106.156 417.667 106.708V108.708C417.667 109.298 417.784 109.857 417.995 110.367C418.206 110.877 417.964 111.462 417.454 111.674C416.944 111.885 416.359 111.643 416.147 111.133C415.837 110.385 415.667 109.565 415.667 108.708V106.708C415.667 106.156 416.114 105.708 416.667 105.708Z" fill="#fff"/><path d="M443.333 105.708C443.885 105.708 444.333 106.156 444.333 106.708V108.708C444.333 109.565 444.162 110.385 443.852 111.133C443.641 111.643 443.056 111.885 442.545 111.674C442.035 111.462 441.793 110.877 442.005 110.367C442.216 109.857 442.333 109.298 442.333 108.708V106.708C442.333 106.156 442.781 105.708 443.333 105.708Z" fill="#fff"/><path d="M419.035 113.254C419.246 112.744 419.831 112.502 420.341 112.713C420.851 112.925 421.41 113.042 422 113.042H424C424.552 113.042 425 113.489 425 114.042C425 114.594 424.552 115.042 424 115.042H422C421.143 115.042 420.323 114.871 419.575 114.561C419.065 114.349 418.823 113.764 419.035 113.254Z" fill="#fff"/><path d="M440.965 113.254C441.177 113.764 440.935 114.349 440.424 114.561C439.676 114.871 438.857 115.042 438 115.042H436C435.448 115.042 435 114.594 435 114.042C435 113.489 435.448 113.042 436 113.042H438C438.589 113.042 439.149 112.925 439.658 112.713C440.168 112.502 440.754 112.744 440.965 113.254Z" fill="#fff"/><path d="M427 114.042C427 113.489 427.448 113.042 428 113.042H432C432.552 113.042 433 113.489 433 114.042C433 114.594 432.552 115.042 432 115.042H428C427.448 115.042 427 114.594 427 114.042Z" fill="#fff"/><path d="M441.374 90.8297C441.764 90.4391 441.764 89.806 441.374 89.4154C440.983 89.0249 440.35 89.0249 439.959 89.4154L438.631 90.7437C438.241 91.1342 438.241 91.7674 438.631 92.1579C439.022 92.5485 439.655 92.5485 440.045 92.1579L441.374 90.8297Z" fill="#fff"/><path d="M437.389 94.8145C437.779 94.424 437.779 93.7908 437.389 93.4003C436.998 93.0098 436.365 93.0098 435.975 93.4003L433.318 96.0568C432.927 96.4474 432.927 97.0805 433.318 97.4711C433.709 97.8616 434.342 97.8616 434.732 97.4711L437.389 94.8145Z" fill="#fff"/><path d="M432.076 100.128C432.466 99.7371 432.466 99.1039 432.076 98.7134C431.685 98.3229 431.052 98.3229 430.661 98.7134L430 99.375L429.338 98.7134C428.948 98.3229 428.315 98.3229 427.924 98.7134C427.533 99.1039 427.533 99.7371 427.924 100.128L428.586 100.789L428.005 101.37C427.614 101.76 427.614 102.394 428.005 102.784C428.395 103.175 429.029 103.175 429.419 102.784L430 102.203L430.581 102.784C430.971 103.175 431.604 103.175 431.995 102.784C432.385 102.394 432.385 101.76 431.995 101.37L431.414 100.789L432.076 100.128Z" fill="#fff"/><path d="M426.763 105.441C427.153 105.05 427.153 104.417 426.763 104.027C426.372 103.636 425.739 103.636 425.348 104.027L422.692 106.683C422.301 107.074 422.301 107.707 422.692 108.097C423.082 108.488 423.715 108.488 424.106 108.097L426.763 105.441Z" fill="#fff"/><path d="M421.449 110.754C421.84 110.363 421.84 109.73 421.449 109.34C421.059 108.949 420.426 108.949 420.035 109.34L418.707 110.668C418.316 111.058 418.316 111.692 418.707 112.082C419.097 112.473 419.731 112.473 420.121 112.082L421.449 110.754Z" fill="#fff"/><path d="M439.879 112.082C440.269 112.473 440.902 112.473 441.293 112.082C441.683 111.692 441.683 111.058 441.293 110.668L439.964 109.34C439.574 108.949 438.941 108.949 438.55 109.34C438.16 109.73 438.16 110.363 438.55 110.754L439.879 112.082Z" fill="#fff"/><path d="M435.894 108.097C436.284 108.488 436.917 108.488 437.308 108.097C437.698 107.707 437.698 107.074 437.308 106.683L434.651 104.027C434.261 103.636 433.628 103.636 433.237 104.027C432.847 104.417 432.847 105.05 433.237 105.441L435.894 108.097Z" fill="#fff"/><path d="M425.267 97.471C425.658 97.8616 426.291 97.8616 426.682 97.471C427.072 97.0805 427.072 96.4474 426.682 96.0568L424.025 93.4003C423.635 93.0098 423.001 93.0098 422.611 93.4003C422.22 93.7908 422.22 94.424 422.611 94.8145L425.267 97.471Z" fill="#fff"/><path d="M419.954 92.1579C420.345 92.5485 420.978 92.5485 421.369 92.1579C421.759 91.7674 421.759 91.1342 421.369 90.7437L420.04 89.4154C419.65 89.0249 419.017 89.0249 418.626 89.4154C418.236 89.806 418.236 90.4391 418.626 90.8297L419.954 92.1579Z" fill="#fff"/><path d="M426.074 93.8937C426.472 93.7734 426.894 93.7083 427.333 93.7083H428.333C428.885 93.7083 429.333 93.2606 429.333 92.7083C429.333 92.1561 428.885 91.7083 428.333 91.7083H427.333C426.695 91.7083 426.078 91.803 425.495 91.9796C424.966 92.1398 424.667 92.6981 424.827 93.2266C424.988 93.7552 425.546 94.0539 426.074 93.8937Z" fill="#fff"/><path d="M431.667 91.7083C431.114 91.7083 430.667 92.1561 430.667 92.7083C430.667 93.2606 431.114 93.7083 431.667 93.7083H432.667C433.106 93.7083 433.528 93.7734 433.925 93.8937C434.454 94.0539 435.012 93.7552 435.172 93.2266C435.332 92.6981 435.034 92.1398 434.505 91.9796C433.922 91.803 433.304 91.7083 432.667 91.7083H431.667Z" fill="#fff"/><path d="M423.185 96.7829C423.345 96.2544 423.047 95.6961 422.518 95.5359C421.99 95.3758 421.431 95.6744 421.271 96.203C421.094 96.7861 421 97.4037 421 98.0417V99.0417C421 99.594 421.448 100.042 422 100.042C422.552 100.042 423 99.594 423 99.0417V98.0417C423 97.6024 423.065 97.1801 423.185 96.7829Z" fill="#fff"/><path d="M438.729 96.203C438.568 95.6744 438.01 95.3758 437.482 95.5359C436.953 95.6961 436.654 96.2544 436.814 96.7829C436.935 97.1801 437 97.6024 437 98.0417V99.0417C437 99.594 437.448 100.042 438 100.042C438.552 100.042 439 99.594 439 99.0417V98.0417C439 97.4038 438.905 96.7861 438.729 96.203Z" fill="#fff"/><path d="M423 102.375C423 101.823 422.552 101.375 422 101.375C421.448 101.375 421 101.823 421 102.375V103.375C421 104.013 421.094 104.631 421.271 105.214C421.431 105.742 421.99 106.041 422.518 105.881C423.047 105.721 423.345 105.162 423.185 104.634C423.065 104.237 423 103.814 423 103.375V102.375Z" fill="#fff"/><path d="M439 102.375C439 101.823 438.552 101.375 438 101.375C437.448 101.375 437 101.823 437 102.375V103.375C437 103.814 436.935 104.237 436.814 104.634C436.654 105.162 436.953 105.721 437.482 105.881C438.01 106.041 438.568 105.742 438.729 105.214C438.905 104.631 439 104.013 439 103.375V102.375Z" fill="#fff"/><path d="M426.074 107.523C425.546 107.363 424.988 107.661 424.827 108.19C424.667 108.719 424.966 109.277 425.495 109.437C426.078 109.614 426.695 109.708 427.333 109.708H428.333C428.885 109.708 429.333 109.261 429.333 108.708C429.333 108.156 428.885 107.708 428.333 107.708H427.333C426.894 107.708 426.472 107.643 426.074 107.523Z" fill="#fff"/><path d="M434.505 109.437C435.034 109.277 435.332 108.719 435.172 108.19C435.012 107.661 434.454 107.363 433.925 107.523C433.528 107.643 433.106 107.708 432.667 107.708H431.667C431.114 107.708 430.667 108.156 430.667 108.708C430.667 109.261 431.114 109.708 431.667 109.708H432.667C433.304 109.708 433.922 109.614 434.505 109.437Z" fill="#fff"/><path d="M469.129 101.705C469.129 104.291 468.391 106.271 466.916 107.646C465.448 109.021 463.325 109.708 460.546 109.708H456.099V94.0033H461.029C463.593 94.0033 465.584 94.68 467.002 96.0335C468.42 97.3871 469.129 99.2777 469.129 101.705ZM465.67 101.791C465.67 98.4183 464.181 96.7318 461.201 96.7318H459.429V106.958H460.858C464.066 106.958 465.67 105.236 465.67 101.791ZM477.25 99.804C476.555 99.804 476.011 100.026 475.617 100.47C475.223 100.907 474.998 101.53 474.94 102.339H479.538C479.524 101.53 479.312 100.907 478.904 100.47C478.496 100.026 477.944 99.804 477.25 99.804ZM477.712 109.923C475.778 109.923 474.267 109.39 473.179 108.323C472.09 107.256 471.546 105.744 471.546 103.789C471.546 101.777 472.047 100.223 473.05 99.1273C474.059 98.0244 475.452 97.473 477.228 97.473C478.926 97.473 480.247 97.9564 481.192 98.9232C482.137 99.89 482.61 101.226 482.61 102.93V104.52H474.865C474.901 105.451 475.177 106.178 475.692 106.701C476.208 107.223 476.931 107.485 477.862 107.485C478.585 107.485 479.269 107.41 479.914 107.259C480.558 107.109 481.232 106.869 481.933 106.539V109.075C481.36 109.361 480.748 109.572 480.096 109.708C479.445 109.852 478.65 109.923 477.712 109.923ZM492.063 100.159H489.227V109.708H485.951V100.159H484.146V98.5794L485.951 97.6986V96.8177C485.951 95.4499 486.287 94.4509 486.96 93.8206C487.634 93.1904 488.711 92.8753 490.194 92.8753C491.325 92.8753 492.331 93.0436 493.212 93.3802L492.374 95.7865C491.716 95.5788 491.107 95.4749 490.548 95.4749C490.083 95.4749 489.746 95.6146 489.538 95.8939C489.331 96.166 489.227 96.5169 489.227 96.9466V97.6986H492.063V100.159ZM501.73 109.708L501.097 108.076H501.011C500.459 108.77 499.89 109.254 499.303 109.526C498.723 109.791 497.964 109.923 497.025 109.923C495.872 109.923 494.963 109.594 494.297 108.935C493.638 108.276 493.309 107.338 493.309 106.12C493.309 104.846 493.753 103.908 494.641 103.306C495.536 102.697 496.882 102.361 498.68 102.296L500.764 102.232V101.705C500.764 100.488 500.141 99.8792 498.895 99.8792C497.935 99.8792 496.807 100.169 495.511 100.749L494.426 98.5365C495.808 97.8132 497.34 97.4515 499.023 97.4515C500.635 97.4515 501.87 97.8024 502.729 98.5042C503.589 99.2061 504.019 100.273 504.019 101.705V109.708H501.73ZM500.764 104.144L499.496 104.187C498.544 104.216 497.835 104.387 497.369 104.702C496.904 105.018 496.671 105.497 496.671 106.142C496.671 107.066 497.201 107.528 498.261 107.528C499.02 107.528 499.625 107.309 500.076 106.872C500.535 106.436 500.764 105.855 500.764 105.132V104.144ZM516.06 109.708L515.62 108.172H515.448C515.097 108.731 514.599 109.164 513.955 109.472C513.31 109.773 512.576 109.923 511.753 109.923C510.342 109.923 509.278 109.547 508.562 108.795C507.846 108.036 507.488 106.948 507.488 105.53V97.6986H510.764V104.713C510.764 105.58 510.918 106.231 511.226 106.668C511.534 107.098 512.025 107.313 512.698 107.313C513.615 107.313 514.277 107.008 514.685 106.4C515.093 105.784 515.297 104.767 515.297 103.349V97.6986H518.574V109.708H516.06ZM525.438 109.708H522.161V92.9935H525.438V109.708ZM534.096 107.313C534.668 107.313 535.356 107.188 536.158 106.937V109.375C535.342 109.741 534.339 109.923 533.15 109.923C531.84 109.923 530.884 109.594 530.282 108.935C529.688 108.269 529.39 107.273 529.39 105.949V100.159H527.822V98.7728L529.627 97.6771L530.572 95.1419H532.667V97.6986H536.029V100.159H532.667V105.949C532.667 106.414 532.796 106.758 533.054 106.98C533.318 107.202 533.666 107.313 534.096 107.313Z" fill="#fff"/></g><rect x="398" y="76.708" width="16" height="48" fill="#EB3499" fill-opacity=".6"/><rect x="537" y="76.708" width="16" height="48" fill="#EB3499" fill-opacity=".6"/><rect x="447" y="76.708" width="8" height="48" fill="#EB3499" fill-opacity=".6"/><rect x="397.5" y="76.708" width="156" height="48" rx="24" stroke="#F0F" stroke-dasharray="2 2"/><path d="M447.977 59.4873C448.888 59.4873 449.61 59.6992 450.144 60.123C450.677 60.5469 450.943 61.1325 450.943 61.8799C450.943 62.3721 450.791 62.821 450.485 63.2266C450.18 63.6322 449.692 64.0013 449.022 64.334C449.834 64.7214 450.41 65.1292 450.752 65.5576C451.094 65.9814 451.265 66.4736 451.265 67.0342C451.265 67.8636 450.975 68.5267 450.397 69.0234C449.818 69.5156 449.025 69.7617 448.018 69.7617C446.951 69.7617 446.131 69.5293 445.557 69.0644C444.982 68.595 444.695 67.932 444.695 67.0752C444.695 65.9313 445.393 65.0404 446.787 64.4023C446.158 64.0469 445.707 63.6641 445.434 63.2539C445.16 62.8392 445.023 62.3766 445.023 61.8662C445.023 61.1416 445.29 60.5651 445.823 60.1367C446.361 59.7038 447.079 59.4873 447.977 59.4873ZM445.816 67.1025C445.816 67.6494 446.006 68.0755 446.384 68.3809C446.767 68.6862 447.302 68.8389 447.99 68.8389C448.669 68.8389 449.198 68.6794 449.576 68.3603C449.954 68.0413 450.144 67.6038 450.144 67.0478C450.144 66.6058 449.966 66.2139 449.61 65.8721C449.255 65.5257 448.635 65.1908 447.751 64.8672C447.072 65.1589 446.58 65.4824 446.274 65.8379C445.969 66.1888 445.816 66.6103 445.816 67.1025ZM447.963 60.4102C447.393 60.4102 446.947 60.5469 446.623 60.8203C446.3 61.0937 446.138 61.4583 446.138 61.9141C446.138 62.3333 446.272 62.6934 446.541 62.9941C446.81 63.2949 447.307 63.5957 448.031 63.8965C448.683 63.623 449.143 63.3291 449.412 63.0146C449.686 62.7002 449.822 62.3333 449.822 61.9141C449.822 61.4538 449.656 61.0892 449.323 60.8203C448.995 60.5469 448.542 60.4102 447.963 60.4102ZM458.215 68.6201H458.153C457.629 69.3812 456.845 69.7617 455.802 69.7617C454.822 69.7617 454.059 69.4268 453.512 68.7568C452.969 68.0869 452.698 67.1344 452.698 65.8994C452.698 64.6644 452.972 63.7051 453.519 63.0215C454.065 62.3379 454.827 61.9961 455.802 61.9961C456.818 61.9961 457.597 62.3652 458.14 63.1035H458.229L458.181 62.5635L458.153 62.0371V58.9883H459.288V69.625H458.365L458.215 68.6201ZM455.945 68.8115C456.72 68.8115 457.281 68.6019 457.627 68.1826C457.978 67.7588 458.153 67.0775 458.153 66.1387V65.8994C458.153 64.8376 457.976 64.0811 457.62 63.6299C457.269 63.1741 456.706 62.9463 455.932 62.9463C455.266 62.9463 454.756 63.2061 454.4 63.7256C454.049 64.2406 453.874 64.9697 453.874 65.9131C453.874 66.8701 454.049 67.5924 454.4 68.0801C454.751 68.5677 455.266 68.8115 455.945 68.8115ZM465.104 69.7617C464.616 69.7617 464.169 69.6728 463.764 69.4951C463.363 69.3128 463.025 69.0348 462.752 68.6611H462.67C462.725 69.0986 462.752 69.5133 462.752 69.9053V72.9883H461.617V62.1328H462.54L462.697 63.1582H462.752C463.044 62.748 463.383 62.4518 463.771 62.2695C464.158 62.0872 464.602 61.9961 465.104 61.9961C466.097 61.9961 466.863 62.3356 467.4 63.0146C467.943 63.6937 468.214 64.6462 468.214 65.8721C468.214 67.1025 467.938 68.0596 467.387 68.7432C466.84 69.4222 466.079 69.7617 465.104 69.7617ZM464.939 62.96C464.174 62.96 463.62 63.1719 463.278 63.5957C462.937 64.0195 462.761 64.694 462.752 65.6191V65.8721C462.752 66.9248 462.927 67.679 463.278 68.1348C463.629 68.5859 464.192 68.8115 464.967 68.8115C465.614 68.8115 466.12 68.5495 466.484 68.0254C466.854 67.5013 467.038 66.779 467.038 65.8584C467.038 64.9241 466.854 64.2087 466.484 63.7119C466.12 63.2106 465.605 62.96 464.939 62.96Z" fill="#E8178A"/><path d="M563.944 96.6667H562.837V89.5436C562.837 88.9512 562.855 88.3906 562.892 87.862C562.796 87.9577 562.689 88.0579 562.57 88.1628C562.452 88.2676 561.91 88.7119 560.943 89.4958L560.342 88.7165L562.987 86.6725H563.944V96.6667ZM567.784 92.3942C567.784 90.43 568.165 88.9626 568.926 87.9919C569.691 87.0166 570.822 86.529 572.316 86.529C572.831 86.529 573.237 86.5723 573.533 86.6589V87.6364C573.182 87.5225 572.781 87.4655 572.33 87.4655C571.259 87.4655 570.441 87.8005 569.876 88.4704C569.311 89.1357 569.001 90.1839 568.946 91.6149H569.028C569.53 90.8311 570.323 90.4391 571.407 90.4391C572.305 90.4391 573.011 90.7103 573.526 91.2526C574.046 91.7949 574.306 92.5309 574.306 93.4606C574.306 94.4997 574.021 95.3177 573.451 95.9147C572.886 96.5072 572.12 96.8034 571.154 96.8034C570.12 96.8034 569.3 96.416 568.693 95.6413C568.087 94.862 567.784 93.7796 567.784 92.3942ZM571.141 95.8395C571.788 95.8395 572.289 95.6367 572.645 95.2311C573.005 94.821 573.185 94.2308 573.185 93.4606C573.185 92.7998 573.018 92.2803 572.686 91.902C572.353 91.5238 571.856 91.3346 571.195 91.3346C570.785 91.3346 570.409 91.4189 570.067 91.5876C569.726 91.7562 569.452 91.9886 569.247 92.2848C569.047 92.5811 568.946 92.8887 568.946 93.2077C568.946 93.6771 569.037 94.1146 569.22 94.5202C569.402 94.9258 569.66 95.2471 569.992 95.4841C570.329 95.721 570.712 95.8395 571.141 95.8395ZM581.215 95.6618H581.153C580.629 96.4229 579.845 96.8034 578.802 96.8034C577.822 96.8034 577.059 96.4684 576.512 95.7985C575.969 95.1286 575.698 94.1761 575.698 92.9411C575.698 91.7061 575.972 90.7467 576.519 90.0632C577.065 89.3796 577.827 89.0378 578.802 89.0378C579.818 89.0378 580.597 89.4069 581.14 90.1452H581.229L581.181 89.6051L581.153 89.0788V86.0299H582.288V96.6667H581.365L581.215 95.6618ZM578.945 95.8532C579.72 95.8532 580.281 95.6436 580.627 95.2243C580.978 94.8005 581.153 94.1191 581.153 93.1803V92.9411C581.153 91.8792 580.976 91.1227 580.62 90.6716C580.269 90.2158 579.706 89.988 578.932 89.988C578.266 89.988 577.756 90.2477 577.4 90.7673C577.049 91.2822 576.874 92.0114 576.874 92.9548C576.874 93.9118 577.049 94.6341 577.4 95.1217C577.751 95.6094 578.266 95.8532 578.945 95.8532ZM588.104 96.8034C587.616 96.8034 587.169 96.7145 586.764 96.5368C586.363 96.3545 586.025 96.0765 585.752 95.7028H585.67C585.725 96.1403 585.752 96.555 585.752 96.9469V100.03H584.617V89.1745H585.54L585.697 90.1999H585.752C586.044 89.7897 586.383 89.4935 586.771 89.3112C587.158 89.1289 587.602 89.0378 588.104 89.0378C589.097 89.0378 589.863 89.3773 590.4 90.0563C590.943 90.7354 591.214 91.6878 591.214 92.9137C591.214 94.1442 590.938 95.1012 590.387 95.7848C589.84 96.4639 589.079 96.8034 588.104 96.8034ZM587.939 90.0016C587.174 90.0016 586.62 90.2135 586.278 90.6374C585.937 91.0612 585.761 91.7357 585.752 92.6608V92.9137C585.752 93.9665 585.927 94.7207 586.278 95.1764C586.629 95.6276 587.192 95.8532 587.967 95.8532C588.614 95.8532 589.12 95.5911 589.484 95.0671C589.854 94.543 590.038 93.8206 590.038 92.9001C590.038 91.9658 589.854 91.2503 589.484 90.7536C589.12 90.2523 588.605 90.0016 587.939 90.0016Z" fill="#E8178A"/><path d="M598 72.6666H607V110.667H598" stroke="#4091D2"/><path d="M623.662 91.6273H622.631V93.4027H620.861V91.6273H617.205V90.3676L620.961 84.8363H622.631V90.2211H623.662V91.6273ZM620.861 90.2211V88.7679C620.861 88.5258 620.871 88.1742 620.891 87.7133C620.91 87.2523 620.926 86.9847 620.938 86.9105H620.891C620.746 87.2308 620.572 87.5433 620.369 87.848L618.799 90.2211H620.861ZM630.205 89.1195C630.205 90.6156 629.959 91.723 629.467 92.4418C628.979 93.1605 628.225 93.5199 627.205 93.5199C626.217 93.5199 625.471 93.1488 624.967 92.4066C624.467 91.6644 624.217 90.5687 624.217 89.1195C624.217 87.6078 624.461 86.4945 624.949 85.7797C625.438 85.0609 626.19 84.7015 627.205 84.7015C628.194 84.7015 628.94 85.0765 629.444 85.8265C629.951 86.5765 630.205 87.6742 630.205 89.1195ZM626.016 89.1195C626.016 90.1703 626.106 90.9242 626.285 91.3812C626.469 91.8344 626.776 92.0609 627.205 92.0609C627.627 92.0609 627.932 91.8304 628.119 91.3695C628.307 90.9086 628.401 90.1586 628.401 89.1195C628.401 88.0687 628.305 87.3148 628.114 86.8578C627.926 86.3969 627.623 86.1664 627.205 86.1664C626.78 86.1664 626.475 86.3969 626.291 86.8578C626.108 87.3148 626.016 88.0687 626.016 89.1195ZM633.579 93.5199C632.809 93.5199 632.204 93.2211 631.762 92.6234C631.325 92.0258 631.106 91.1976 631.106 90.139C631.106 89.0648 631.329 88.2289 631.774 87.6312C632.223 87.0297 632.84 86.7289 633.626 86.7289C634.45 86.7289 635.079 87.0492 635.512 87.6898H635.571C635.481 87.2015 635.436 86.766 635.436 86.3832V84.2855H637.229V93.4027H635.858L635.512 92.5531H635.436C635.03 93.1976 634.411 93.5199 633.579 93.5199ZM634.206 92.0961C634.663 92.0961 634.997 91.9633 635.208 91.6976C635.422 91.432 635.54 90.9808 635.559 90.3441V90.1508C635.559 89.4476 635.45 88.9437 635.231 88.639C635.016 88.3344 634.665 88.182 634.176 88.182C633.778 88.182 633.467 88.3519 633.245 88.6918C633.026 89.0277 632.917 89.5179 632.917 90.1625C632.917 90.807 633.028 91.2914 633.251 91.6156C633.473 91.9359 633.792 92.0961 634.206 92.0961ZM642.624 93.5199C641.854 93.5199 641.251 93.2406 640.813 92.682H640.72C640.782 93.2289 640.813 93.5453 640.813 93.6312V96.2855H639.026V86.8519H640.479L640.731 87.7015H640.813C641.231 87.0531 641.85 86.7289 642.671 86.7289C643.444 86.7289 644.05 87.0277 644.487 87.6254C644.925 88.223 645.143 89.0531 645.143 90.1156C645.143 90.8148 645.04 91.4222 644.833 91.9379C644.63 92.4535 644.339 92.8461 643.96 93.1156C643.581 93.3851 643.136 93.5199 642.624 93.5199ZM642.097 88.1586C641.655 88.1586 641.333 88.2953 641.13 88.5687C640.927 88.8383 640.821 89.2855 640.813 89.9105V90.1039C640.813 90.807 640.917 91.3109 641.124 91.6156C641.335 91.9203 641.667 92.0726 642.12 92.0726C642.921 92.0726 643.321 91.4125 643.321 90.0922C643.321 89.4476 643.222 88.9652 643.022 88.6449C642.827 88.3207 642.518 88.1586 642.097 88.1586Z" fill="#4091D2"/><rect width="174" height="142.333" transform="translate(779)" fill="#585C65"/><rect width="174" height="40" transform="translate(779 1)" fill="#464B52"/><path d="M798.447 26H796.335V21.6865H792.377V26H790.258V16.0059H792.377V19.9229H796.335V16.0059H798.447V26ZM803.894 19.6973C803.451 19.6973 803.105 19.8385 802.854 20.1211C802.604 20.3991 802.46 20.7956 802.424 21.3105H805.35C805.34 20.7956 805.206 20.3991 804.946 20.1211C804.687 19.8385 804.336 19.6973 803.894 19.6973ZM804.187 26.1367C802.957 26.1367 801.995 25.7972 801.303 25.1182C800.61 24.4391 800.264 23.4775 800.264 22.2334C800.264 20.9528 800.583 19.9639 801.221 19.2666C801.863 18.5648 802.75 18.2139 803.88 18.2139C804.96 18.2139 805.801 18.5215 806.402 19.1367C807.004 19.752 807.305 20.6019 807.305 21.6865V22.6982H802.376C802.399 23.2907 802.574 23.7533 802.902 24.0859C803.23 24.4186 803.691 24.585 804.283 24.585C804.743 24.585 805.179 24.5371 805.589 24.4414C805.999 24.3457 806.427 24.193 806.874 23.9834V25.5967C806.509 25.779 806.12 25.9134 805.705 26C805.29 26.0911 804.784 26.1367 804.187 26.1367ZM808.827 16.3818C808.827 15.7028 809.205 15.3633 809.962 15.3633C810.718 15.3633 811.097 15.7028 811.097 16.3818C811.097 16.7054 811.001 16.9583 810.81 17.1406C810.623 17.3184 810.34 17.4072 809.962 17.4072C809.205 17.4072 808.827 17.0654 808.827 16.3818ZM811.001 26H808.916V18.3574H811.001V26ZM819.763 18.3574V19.417L818.566 19.7246C818.785 20.0664 818.894 20.4492 818.894 20.873C818.894 21.6934 818.607 22.3337 818.033 22.7939C817.463 23.2497 816.671 23.4775 815.654 23.4775L815.278 23.457L814.971 23.4229C814.756 23.5869 814.649 23.7692 814.649 23.9697C814.649 24.2705 815.032 24.4209 815.798 24.4209H817.097C817.935 24.4209 818.573 24.6009 819.011 24.9609C819.453 25.321 819.674 25.8496 819.674 26.5469C819.674 27.4401 819.3 28.1328 818.553 28.625C817.81 29.1172 816.741 29.3633 815.347 29.3633C814.28 29.3633 813.464 29.1764 812.899 28.8027C812.339 28.4336 812.059 27.9141 812.059 27.2441C812.059 26.7839 812.202 26.3988 812.489 26.0889C812.776 25.779 813.198 25.5579 813.754 25.4258C813.54 25.3346 813.353 25.1865 813.193 24.9814C813.034 24.7718 812.954 24.5508 812.954 24.3184C812.954 24.0267 813.038 23.7852 813.207 23.5938C813.376 23.3978 813.619 23.2064 813.938 23.0195C813.537 22.8464 813.218 22.5684 812.981 22.1855C812.749 21.8027 812.633 21.3516 812.633 20.832C812.633 19.998 812.904 19.3532 813.446 18.8975C813.989 18.4417 814.763 18.2139 815.77 18.2139C815.985 18.2139 816.238 18.2344 816.529 18.2754C816.825 18.3118 817.015 18.3392 817.097 18.3574H819.763ZM813.863 27.0801C813.863 27.3672 814 27.5928 814.273 27.7568C814.551 27.9209 814.939 28.0029 815.435 28.0029C816.183 28.0029 816.769 27.9004 817.192 27.6953C817.616 27.4902 817.828 27.21 817.828 26.8545C817.828 26.5674 817.703 26.3691 817.452 26.2598C817.201 26.1504 816.814 26.0957 816.29 26.0957H815.21C814.827 26.0957 814.506 26.1846 814.246 26.3623C813.991 26.5446 813.863 26.7839 813.863 27.0801ZM814.622 20.8594C814.622 21.2741 814.715 21.6022 814.902 21.8438C815.094 22.0853 815.383 22.2061 815.77 22.2061C816.162 22.2061 816.449 22.0853 816.632 21.8438C816.814 21.6022 816.905 21.2741 816.905 20.8594C816.905 19.9388 816.527 19.4785 815.77 19.4785C815.005 19.4785 814.622 19.9388 814.622 20.8594ZM827.998 26H825.913V21.5361C825.913 20.4333 825.503 19.8818 824.683 19.8818C824.099 19.8818 823.678 20.0801 823.418 20.4766C823.158 20.873 823.028 21.5156 823.028 22.4043V26H820.943V15.3633H823.028V17.5303C823.028 17.6989 823.012 18.0954 822.98 18.7197L822.933 19.335H823.042C823.507 18.5876 824.245 18.2139 825.257 18.2139C826.155 18.2139 826.836 18.4554 827.301 18.9385C827.766 19.4215 827.998 20.1143 827.998 21.0166V26ZM833.28 24.4756C833.645 24.4756 834.082 24.3958 834.593 24.2363V25.7881C834.073 26.0205 833.435 26.1367 832.679 26.1367C831.845 26.1367 831.236 25.9271 830.853 25.5078C830.475 25.084 830.286 24.4505 830.286 23.6074V19.9229H829.288V19.041L830.436 18.3438L831.038 16.7305H832.371V18.3574H834.511V19.9229H832.371V23.6074C832.371 23.9036 832.453 24.1224 832.617 24.2637C832.786 24.4049 833.007 24.4756 833.28 24.4756Z" fill="#fff"/><rect width="174" height="99.333" transform="translate(779 42)" fill="#171C1E"/><path d="M796.725 94.3698H795.241V96.6667H794.154V94.3698H789.294V93.3786L794.038 86.6178H795.241V93.3376H796.725V94.3698ZM794.154 93.3376V90.0153C794.154 89.3636 794.177 88.6276 794.223 87.8073H794.168C793.949 88.2448 793.744 88.6071 793.553 88.8942L790.429 93.3376H794.154ZM800.92 86.529C801.831 86.529 802.554 86.7409 803.087 87.1647C803.62 87.5885 803.887 88.1742 803.887 88.9216C803.887 89.4137 803.734 89.8626 803.429 90.2682C803.123 90.6738 802.636 91.043 801.966 91.3757C802.777 91.763 803.353 92.1709 803.695 92.5993C804.037 93.0231 804.208 93.5153 804.208 94.0758C804.208 94.9053 803.919 95.5684 803.34 96.0651C802.761 96.5573 801.968 96.8034 800.961 96.8034C799.895 96.8034 799.074 96.571 798.5 96.1061C797.926 95.6367 797.639 94.9736 797.639 94.1169C797.639 92.973 798.336 92.082 799.73 91.444C799.102 91.0885 798.65 90.7057 798.377 90.2956C798.103 89.8809 797.967 89.4183 797.967 88.9079C797.967 88.1833 798.233 87.6068 798.767 87.1784C799.304 86.7454 800.022 86.529 800.92 86.529ZM798.76 94.1442C798.76 94.6911 798.949 95.1172 799.327 95.4225C799.71 95.7279 800.245 95.8805 800.934 95.8805C801.613 95.8805 802.141 95.721 802.52 95.402C802.898 95.083 803.087 94.6455 803.087 94.0895C803.087 93.6475 802.909 93.2555 802.554 92.9137C802.198 92.5674 801.578 92.2324 800.694 91.9089C800.015 92.2005 799.523 92.5241 799.218 92.8796C798.912 93.2305 798.76 93.652 798.76 94.1442ZM800.906 87.4518C800.337 87.4518 799.89 87.5885 799.566 87.862C799.243 88.1354 799.081 88.5 799.081 88.9557C799.081 89.375 799.215 89.735 799.484 90.0358C799.753 90.3366 800.25 90.6374 800.975 90.9382C801.626 90.6647 802.087 90.3708 802.355 90.0563C802.629 89.7419 802.766 89.375 802.766 88.9557C802.766 88.4954 802.599 88.1309 802.267 87.862C801.938 87.5885 801.485 87.4518 800.906 87.4518ZM811.158 95.6618H811.097C810.573 96.4229 809.789 96.8034 808.745 96.8034C807.765 96.8034 807.002 96.4684 806.455 95.7985C805.913 95.1286 805.642 94.1761 805.642 92.9411C805.642 91.7061 805.915 90.7467 806.462 90.0632C807.009 89.3796 807.77 89.0378 808.745 89.0378C809.761 89.0378 810.541 89.4069 811.083 90.1452H811.172L811.124 89.6051L811.097 89.0788V86.0299H812.231V96.6667H811.309L811.158 95.6618ZM808.889 95.8532C809.663 95.8532 810.224 95.6436 810.57 95.2243C810.921 94.8005 811.097 94.1191 811.097 93.1803V92.9411C811.097 91.8792 810.919 91.1227 810.563 90.6716C810.213 90.2158 809.65 89.988 808.875 89.988C808.21 89.988 807.699 90.2477 807.344 90.7673C806.993 91.2822 806.817 92.0114 806.817 92.9548C806.817 93.9118 806.993 94.6341 807.344 95.1217C807.695 95.6094 808.21 95.8532 808.889 95.8532ZM818.047 96.8034C817.559 96.8034 817.113 96.7145 816.707 96.5368C816.306 96.3545 815.969 96.0765 815.695 95.7028H815.613C815.668 96.1403 815.695 96.555 815.695 96.9469V100.03H814.56V89.1745H815.483L815.641 90.1999H815.695C815.987 89.7897 816.326 89.4935 816.714 89.3112C817.101 89.1289 817.546 89.0378 818.047 89.0378C819.04 89.0378 819.806 89.3773 820.344 90.0563C820.886 90.7354 821.157 91.6878 821.157 92.9137C821.157 94.1442 820.881 95.1012 820.33 95.7848C819.783 96.4639 819.022 96.8034 818.047 96.8034ZM817.883 90.0016C817.117 90.0016 816.563 90.2135 816.222 90.6374C815.88 91.0612 815.704 91.7357 815.695 92.6608V92.9137C815.695 93.9665 815.871 94.7207 816.222 95.1764C816.573 95.6276 817.135 95.8532 817.91 95.8532C818.557 95.8532 819.063 95.5911 819.428 95.0671C819.797 94.543 819.981 93.8206 819.981 92.9001C819.981 91.9658 819.797 91.2503 819.428 90.7536C819.063 90.2523 818.548 90.0016 817.883 90.0016Z" fill="#fff"/><defs><clipPath id="clip0_6848_90562"><rect width="123" height="32" fill="#fff" transform="translate(414 84.7083)"/></clipPath></defs></svg>