<svg width="388" height="67" viewBox="0 0 388 67" fill="none" xmlns="http://www.w3.org/2000/svg">
<path d="M14.8652 28.0315H13.0781V19.4651H17.9883V20.9534H14.8652V23.1624H17.7715V24.6448H14.8652V28.0315ZM20.8753 24.7444C20.8753 25.3928 20.9807 25.8831 21.1917 26.2151C21.4065 26.5471 21.7542 26.7131 22.2346 26.7131C22.7112 26.7131 23.053 26.5491 23.26 26.2209C23.471 25.8889 23.5764 25.3967 23.5764 24.7444C23.5764 24.0959 23.471 23.6096 23.26 23.2854C23.0491 22.9612 22.7034 22.7991 22.2229 22.7991C21.7464 22.7991 21.4026 22.9612 21.1917 23.2854C20.9807 23.6057 20.8753 24.092 20.8753 24.7444ZM25.4046 24.7444C25.4046 25.8108 25.1233 26.6448 24.5608 27.2463C23.9983 27.8479 23.2151 28.1487 22.2112 28.1487C21.5823 28.1487 21.0276 28.012 20.5471 27.7385C20.0667 27.4612 19.6975 27.0647 19.4397 26.5491C19.1819 26.0334 19.053 25.4319 19.053 24.7444C19.053 23.6741 19.3323 22.842 19.8909 22.2483C20.4495 21.6545 21.2346 21.3577 22.2464 21.3577C22.8753 21.3577 23.43 21.4944 23.9104 21.7678C24.3909 22.0413 24.76 22.4338 25.0178 22.9456C25.2757 23.4573 25.4046 24.0569 25.4046 24.7444ZM32.856 28.0315H31.0689V24.2053C31.0689 23.7327 30.9849 23.3792 30.8169 23.1448C30.649 22.9065 30.3814 22.7874 30.0142 22.7874C29.5142 22.7874 29.1529 22.9553 28.9302 23.2913C28.7076 23.6233 28.5962 24.176 28.5962 24.9495V28.0315H26.8091V21.4807H28.1744L28.4146 22.3186H28.5142C28.7134 22.0022 28.9869 21.7639 29.3345 21.6038C29.6861 21.4397 30.0845 21.3577 30.5298 21.3577C31.2915 21.3577 31.8697 21.5647 32.2642 21.9788C32.6587 22.3889 32.856 22.9827 32.856 23.76V28.0315ZM37.3836 26.7249C37.6961 26.7249 38.0711 26.6565 38.5086 26.5198V27.8499C38.0633 28.0491 37.5164 28.1487 36.868 28.1487C36.1531 28.1487 35.6317 27.969 35.3035 27.6096C34.9793 27.2463 34.8172 26.7034 34.8172 25.9807V22.8225H33.9617V22.0667L34.9461 21.469L35.4617 20.0862H36.6043V21.4807H38.4383V22.8225H36.6043V25.9807C36.6043 26.2346 36.6746 26.4221 36.8153 26.5432C36.9598 26.6643 37.1492 26.7249 37.3836 26.7249ZM39.1866 25.5471V24.0823H42.3331V25.5471H39.1866ZM48.1322 26.0862C48.1322 26.7581 47.8978 27.2698 47.4291 27.6213C46.9642 27.9729 46.267 28.1487 45.3373 28.1487C44.8607 28.1487 44.4545 28.1155 44.1185 28.0491C43.7826 27.9866 43.4681 27.8928 43.1752 27.7678V26.2913C43.5072 26.4475 43.8802 26.5784 44.2943 26.6838C44.7123 26.7893 45.0795 26.842 45.3959 26.842C46.0443 26.842 46.3685 26.6545 46.3685 26.2795C46.3685 26.1389 46.3255 26.0256 46.2396 25.9397C46.1537 25.8499 46.0052 25.7502 45.7943 25.6409C45.5834 25.5276 45.3021 25.3967 44.9505 25.2483C44.4466 25.0374 44.0755 24.842 43.8373 24.6624C43.6029 24.4827 43.431 24.2776 43.3216 24.0471C43.2162 23.8127 43.1634 23.5256 43.1634 23.1858C43.1634 22.6038 43.388 22.1545 43.8373 21.8381C44.2904 21.5178 44.931 21.3577 45.7591 21.3577C46.5482 21.3577 47.3158 21.5295 48.0619 21.8733L47.5228 23.1624C47.1947 23.0217 46.888 22.9065 46.6029 22.8167C46.3177 22.7268 46.0267 22.6819 45.7298 22.6819C45.2025 22.6819 44.9388 22.8245 44.9388 23.1096C44.9388 23.2698 45.0228 23.4084 45.1908 23.5256C45.3627 23.6428 45.7357 23.8167 46.3099 24.0471C46.8216 24.2542 47.1966 24.4475 47.4349 24.6272C47.6732 24.8069 47.849 25.0139 47.9623 25.2483C48.0755 25.4827 48.1322 25.762 48.1322 26.0862ZM49.3785 19.7874C49.3785 19.2053 49.7028 18.9143 50.3512 18.9143C50.9996 18.9143 51.3239 19.2053 51.3239 19.7874C51.3239 20.0647 51.2418 20.2815 51.0778 20.4377C50.9176 20.5901 50.6754 20.6663 50.3512 20.6663C49.7028 20.6663 49.3785 20.3733 49.3785 19.7874ZM51.2418 28.0315H49.4547V21.4807H51.2418V28.0315ZM57.6093 28.0315H52.4355V26.9768L55.4706 22.8459H52.6171V21.4807H57.5038V22.6409L54.5507 26.6663H57.6093V28.0315ZM61.551 22.6292C61.172 22.6292 60.8752 22.7502 60.6603 22.9924C60.4455 23.2307 60.3224 23.5706 60.2912 24.012H62.799C62.7912 23.5706 62.676 23.2307 62.4533 22.9924C62.2306 22.7502 61.9299 22.6292 61.551 22.6292ZM61.8029 28.1487C60.7482 28.1487 59.924 27.8577 59.3302 27.2756C58.7365 26.6936 58.4396 25.8694 58.4396 24.803C58.4396 23.7053 58.7131 22.8577 59.2599 22.26C59.8107 21.6584 60.5705 21.3577 61.5392 21.3577C62.465 21.3577 63.1857 21.6213 63.7013 22.1487C64.217 22.676 64.4748 23.4045 64.4748 24.3342V25.2014H60.2502C60.2697 25.7092 60.4201 26.1057 60.7013 26.3909C60.9826 26.676 61.3771 26.8186 61.8849 26.8186C62.2795 26.8186 62.6525 26.7776 63.0041 26.6956C63.3556 26.6135 63.7228 26.4827 64.1056 26.303V27.6858C63.7931 27.842 63.4592 27.9573 63.1037 28.0315C62.7482 28.1096 62.3146 28.1487 61.8029 28.1487ZM65.604 27.1936C65.604 26.8655 65.6918 26.6174 65.8676 26.4495C66.0434 26.2815 66.2993 26.1975 66.6352 26.1975C66.9594 26.1975 67.2094 26.2834 67.3852 26.4553C67.5649 26.6272 67.6547 26.8733 67.6547 27.1936C67.6547 27.5022 67.5649 27.7463 67.3852 27.926C67.2055 28.1018 66.9555 28.1897 66.6352 28.1897C66.3071 28.1897 66.0532 28.1038 65.8735 27.9319C65.6938 27.7561 65.604 27.51 65.604 27.1936ZM65.604 22.3538C65.604 22.0256 65.6918 21.7776 65.8676 21.6096C66.0434 21.4417 66.2993 21.3577 66.6352 21.3577C66.9594 21.3577 67.2094 21.4436 67.3852 21.6155C67.5649 21.7874 67.6547 22.0334 67.6547 22.3538C67.6547 22.6702 67.5629 22.9163 67.3793 23.092C67.1997 23.2639 66.9516 23.3499 66.6352 23.3499C66.3071 23.3499 66.0532 23.2639 65.8735 23.092C65.6938 22.9202 65.604 22.6741 65.604 22.3538ZM77.5303 28.0315H71.8994V27.1936L74.1553 24.926C74.8428 24.2307 75.2959 23.7346 75.5146 23.4377C75.7334 23.1409 75.8975 22.8518 76.0068 22.5706C76.1162 22.2893 76.1709 21.9866 76.1709 21.6624C76.1709 21.2053 76.0322 20.844 75.7549 20.5784C75.4775 20.3088 75.0928 20.1741 74.6006 20.1741C74.2451 20.1741 73.9072 20.2327 73.5869 20.3499C73.2705 20.467 72.917 20.6799 72.5264 20.9885L72.0107 20.3264C72.7998 19.6702 73.6592 19.342 74.5889 19.342C75.3935 19.342 76.0244 19.5491 76.4814 19.9631C76.9385 20.3733 77.167 20.926 77.167 21.6213C77.167 22.1643 77.0146 22.7014 76.71 23.2327C76.4053 23.7639 75.835 24.4358 74.999 25.2483L73.124 27.0823V27.1292H77.5303V28.0315ZM84.3255 28.0315H78.6946V27.1936L80.9505 24.926C81.638 24.2307 82.0911 23.7346 82.3098 23.4377C82.5286 23.1409 82.6926 22.8518 82.802 22.5706C82.9114 22.2893 82.9661 21.9866 82.9661 21.6624C82.9661 21.2053 82.8274 20.844 82.5501 20.5784C82.2727 20.3088 81.888 20.1741 81.3958 20.1741C81.0403 20.1741 80.7024 20.2327 80.3821 20.3499C80.0657 20.467 79.7122 20.6799 79.3215 20.9885L78.8059 20.3264C79.595 19.6702 80.4544 19.342 81.384 19.342C82.1887 19.342 82.8196 19.5491 83.2766 19.9631C83.7337 20.3733 83.9622 20.926 83.9622 21.6213C83.9622 22.1643 83.8098 22.7014 83.5051 23.2327C83.2005 23.7639 82.6301 24.4358 81.7942 25.2483L79.9192 27.0823V27.1292H84.3255V28.0315ZM90.0777 26.2795C90.0777 26.8772 89.855 27.3381 89.4097 27.6624C88.9644 27.9866 88.3394 28.1487 87.5347 28.1487C86.6831 28.1487 86.0191 28.0139 85.5425 27.7444V26.842C85.8511 26.9983 86.1812 27.1213 86.5328 27.2112C86.8882 27.301 87.23 27.3459 87.5581 27.3459C88.066 27.3459 88.4566 27.2659 88.73 27.1057C89.0035 26.9417 89.1402 26.6936 89.1402 26.3616C89.1402 26.1116 89.0308 25.8987 88.812 25.7229C88.5972 25.5432 88.1753 25.3323 87.5464 25.0901C86.9488 24.8674 86.523 24.6741 86.2691 24.51C86.0191 24.342 85.8316 24.1526 85.7066 23.9417C85.5855 23.7307 85.5249 23.4788 85.5249 23.1858C85.5249 22.6624 85.7378 22.2502 86.1636 21.9495C86.5894 21.6448 87.1734 21.4924 87.9156 21.4924C88.607 21.4924 89.2828 21.6331 89.9429 21.9143L89.5972 22.7053C88.9527 22.4397 88.3687 22.3069 87.8453 22.3069C87.3843 22.3069 87.0367 22.3792 86.8023 22.5237C86.5679 22.6682 86.4507 22.8674 86.4507 23.1213C86.4507 23.2932 86.4937 23.4397 86.5796 23.5608C86.6695 23.6819 86.812 23.7971 87.0074 23.9065C87.2027 24.0159 87.5777 24.1741 88.1324 24.3811C88.8941 24.6584 89.4078 24.9377 89.6734 25.219C89.9429 25.5002 90.0777 25.8538 90.0777 26.2795ZM94.5818 28.1487C94.1639 28.1487 93.7811 28.0725 93.4334 27.9202C93.0897 27.7639 92.8006 27.5256 92.5662 27.2053H92.4959C92.5428 27.5803 92.5662 27.9358 92.5662 28.2717V30.9143H91.5936V21.6096H92.3846L92.5193 22.4885H92.5662C92.8162 22.137 93.1072 21.8831 93.4393 21.7268C93.7713 21.5706 94.1522 21.4924 94.5818 21.4924C95.4334 21.4924 96.0897 21.7834 96.5506 22.3655C97.0154 22.9475 97.2479 23.7639 97.2479 24.8147C97.2479 25.8694 97.0115 26.6897 96.5389 27.2756C96.0701 27.8577 95.4178 28.1487 94.5818 28.1487ZM94.4412 22.3186C93.785 22.3186 93.3104 22.5002 93.0174 22.8635C92.7244 23.2268 92.574 23.8049 92.5662 24.5979V24.8147C92.5662 25.717 92.7166 26.3635 93.0174 26.7542C93.3182 27.1409 93.8006 27.3342 94.4647 27.3342C95.0193 27.3342 95.4529 27.1096 95.7654 26.6604C96.0818 26.2112 96.24 25.592 96.24 24.803C96.24 24.0022 96.0818 23.3889 95.7654 22.9631C95.4529 22.5334 95.0115 22.3186 94.4412 22.3186ZM13.0781 39.4651H15.7441C16.959 39.4651 17.8398 39.6389 18.3867 39.9866C18.9375 40.3303 19.2129 40.8792 19.2129 41.6331C19.2129 42.1448 19.0918 42.5647 18.8496 42.8928C18.6113 43.2209 18.293 43.4182 17.8945 43.4846V43.5432C18.4375 43.6643 18.8281 43.8909 19.0664 44.2229C19.3086 44.5549 19.4297 44.9963 19.4297 45.5471C19.4297 46.3284 19.1465 46.9377 18.5801 47.3752C18.0176 47.8127 17.252 48.0315 16.2832 48.0315H13.0781V39.4651ZM14.8945 42.8577H15.9492C16.4414 42.8577 16.7969 42.7815 17.0156 42.6292C17.2383 42.4768 17.3496 42.2249 17.3496 41.8733C17.3496 41.5452 17.2285 41.3108 16.9863 41.1702C16.748 41.0256 16.3691 40.9534 15.8496 40.9534H14.8945V42.8577ZM14.8945 44.2991V46.5315H16.0781C16.5781 46.5315 16.9473 46.4358 17.1855 46.2444C17.4238 46.053 17.543 45.76 17.543 45.3655C17.543 44.6545 17.0352 44.2991 16.0195 44.2991H14.8945ZM22.3518 44.7444C22.3518 45.3928 22.4573 45.8831 22.6682 46.2151C22.8831 46.5471 23.2307 46.7131 23.7112 46.7131C24.1878 46.7131 24.5296 46.5491 24.7366 46.2209C24.9475 45.8889 25.053 45.3967 25.053 44.7444C25.053 44.0959 24.9475 43.6096 24.7366 43.2854C24.5257 42.9612 24.18 42.7991 23.6995 42.7991C23.2229 42.7991 22.8792 42.9612 22.6682 43.2854C22.4573 43.6057 22.3518 44.092 22.3518 44.7444ZM26.8811 44.7444C26.8811 45.8108 26.5999 46.6448 26.0374 47.2463C25.4749 47.8479 24.6917 48.1487 23.6878 48.1487C23.0589 48.1487 22.5042 48.012 22.0237 47.7385C21.5432 47.4612 21.1741 47.0647 20.9163 46.5491C20.6585 46.0334 20.5296 45.4319 20.5296 44.7444C20.5296 43.6741 20.8089 42.842 21.3675 42.2483C21.926 41.6545 22.7112 41.3577 23.7229 41.3577C24.3518 41.3577 24.9065 41.4944 25.387 41.7678C25.8675 42.0413 26.2366 42.4338 26.4944 42.9456C26.7522 43.4573 26.8811 44.0569 26.8811 44.7444ZM31.9419 41.3577C32.1841 41.3577 32.3853 41.3752 32.5455 41.4104L32.4107 43.0862C32.2662 43.0471 32.0904 43.0276 31.8833 43.0276C31.313 43.0276 30.8677 43.1741 30.5474 43.467C30.231 43.76 30.0728 44.1702 30.0728 44.6975V48.0315H28.2857V41.4807H29.6392L29.9029 42.5823H29.9908C30.1939 42.2151 30.4673 41.9202 30.8111 41.6975C31.1587 41.4709 31.5357 41.3577 31.9419 41.3577ZM35.7371 48.1487C34.9676 48.1487 34.3621 47.8499 33.9207 47.2522C33.4832 46.6545 33.2645 45.8264 33.2645 44.7678C33.2645 43.6936 33.4871 42.8577 33.9324 42.26C34.3817 41.6584 34.9988 41.3577 35.784 41.3577C36.6082 41.3577 37.2371 41.678 37.6707 42.3186H37.7293C37.6395 41.8303 37.5945 41.3948 37.5945 41.012V38.9143H39.3875V48.0315H38.0164L37.6707 47.1819H37.5945C37.1883 47.8264 36.5692 48.1487 35.7371 48.1487ZM36.3641 46.7249C36.8211 46.7249 37.1551 46.592 37.366 46.3264C37.5809 46.0608 37.6981 45.6096 37.7176 44.9729V44.7795C37.7176 44.0764 37.6082 43.5725 37.3895 43.2678C37.1746 42.9631 36.8231 42.8108 36.3348 42.8108C35.9363 42.8108 35.6258 42.9807 35.4031 43.3206C35.1844 43.6565 35.075 44.1467 35.075 44.7913C35.075 45.4358 35.1863 45.9202 35.409 46.2444C35.6317 46.5647 35.95 46.7249 36.3641 46.7249ZM43.8975 42.6292C43.5186 42.6292 43.2218 42.7502 43.0069 42.9924C42.7921 43.2307 42.669 43.5706 42.6378 44.012H45.1456C45.1378 43.5706 45.0225 43.2307 44.7999 42.9924C44.5772 42.7502 44.2765 42.6292 43.8975 42.6292ZM44.1495 48.1487C43.0948 48.1487 42.2706 47.8577 41.6768 47.2756C41.0831 46.6936 40.7862 45.8694 40.7862 44.803C40.7862 43.7053 41.0597 42.8577 41.6065 42.26C42.1573 41.6584 42.9171 41.3577 43.8858 41.3577C44.8116 41.3577 45.5323 41.6213 46.0479 42.1487C46.5636 42.676 46.8214 43.4045 46.8214 44.3342V45.2014H42.5968C42.6163 45.7092 42.7667 46.1057 43.0479 46.3909C43.3292 46.676 43.7237 46.8186 44.2315 46.8186C44.6261 46.8186 44.9991 46.7776 45.3507 46.6956C45.7022 46.6135 46.0694 46.4827 46.4522 46.303V47.6858C46.1397 47.842 45.8057 47.9573 45.4503 48.0315C45.0948 48.1096 44.6612 48.1487 44.1495 48.1487ZM51.8587 41.3577C52.1009 41.3577 52.3021 41.3752 52.4623 41.4104L52.3275 43.0862C52.183 43.0471 52.0072 43.0276 51.8002 43.0276C51.2298 43.0276 50.7845 43.1741 50.4642 43.467C50.1478 43.76 49.9896 44.1702 49.9896 44.6975V48.0315H48.2025V41.4807H49.556L49.8197 42.5823H49.9076C50.1107 42.2151 50.3841 41.9202 50.7279 41.6975C51.0755 41.4709 51.4525 41.3577 51.8587 41.3577ZM52.9996 45.5471V44.0823H56.1461V45.5471H52.9996ZM61.0312 41.3577C61.2733 41.3577 61.4745 41.3752 61.6347 41.4104L61.4999 43.0862C61.3554 43.0471 61.1796 43.0276 60.9726 43.0276C60.4022 43.0276 59.9569 43.1741 59.6366 43.467C59.3202 43.76 59.162 44.1702 59.162 44.6975V48.0315H57.3749V41.4807H58.7284L58.9921 42.5823H59.08C59.2831 42.2151 59.5565 41.9202 59.9003 41.6975C60.248 41.4709 60.6249 41.3577 61.0312 41.3577ZM66.9123 48.0315L66.5666 47.1409H66.5197C66.2189 47.5198 65.9084 47.7834 65.5881 47.9319C65.2717 48.0764 64.8576 48.1487 64.3459 48.1487C63.717 48.1487 63.2209 47.969 62.8576 47.6096C62.4982 47.2502 62.3185 46.7385 62.3185 46.0745C62.3185 45.3792 62.5607 44.8674 63.0451 44.5393C63.5334 44.2073 64.2677 44.0237 65.2482 43.9885L66.3849 43.9534V43.6663C66.3849 43.0022 66.0451 42.6702 65.3654 42.6702C64.842 42.6702 64.2267 42.8284 63.5197 43.1448L62.9279 41.9377C63.6818 41.5432 64.5177 41.3459 65.4357 41.3459C66.3146 41.3459 66.9885 41.5374 67.4572 41.9202C67.926 42.303 68.1603 42.885 68.1603 43.6663V48.0315H66.9123ZM66.3849 44.9963L65.6935 45.0198C65.174 45.0354 64.7873 45.1292 64.5334 45.301C64.2795 45.4729 64.1525 45.7346 64.1525 46.0862C64.1525 46.5901 64.4416 46.842 65.0197 46.842C65.4338 46.842 65.7638 46.7229 66.0099 46.4846C66.2599 46.2463 66.3849 45.9299 66.3849 45.5354V44.9963ZM72.0083 48.1487C71.2387 48.1487 70.6333 47.8499 70.1918 47.2522C69.7543 46.6545 69.5356 45.8264 69.5356 44.7678C69.5356 43.6936 69.7583 42.8577 70.2036 42.26C70.6528 41.6584 71.27 41.3577 72.0551 41.3577C72.8793 41.3577 73.5083 41.678 73.9418 42.3186H74.0004C73.9106 41.8303 73.8657 41.3948 73.8657 41.012V38.9143H75.6586V48.0315H74.2875L73.9418 47.1819H73.8657C73.4594 47.8264 72.8403 48.1487 72.0083 48.1487ZM72.6352 46.7249C73.0922 46.7249 73.4262 46.592 73.6372 46.3264C73.852 46.0608 73.9692 45.6096 73.9887 44.9729V44.7795C73.9887 44.0764 73.8793 43.5725 73.6606 43.2678C73.4458 42.9631 73.0942 42.8108 72.6059 42.8108C72.2075 42.8108 71.8969 42.9807 71.6743 43.3206C71.4555 43.6565 71.3461 44.1467 71.3461 44.7913C71.3461 45.4358 71.4575 45.9202 71.6801 46.2444C71.9028 46.5647 72.2211 46.7249 72.6352 46.7249ZM77.3796 39.7874C77.3796 39.2053 77.7038 38.9143 78.3523 38.9143C79.0007 38.9143 79.3249 39.2053 79.3249 39.7874C79.3249 40.0647 79.2429 40.2815 79.0788 40.4377C78.9187 40.5901 78.6765 40.6663 78.3523 40.6663C77.7038 40.6663 77.3796 40.3733 77.3796 39.7874ZM79.2429 48.0315H77.4558V41.4807H79.2429V48.0315ZM85.6924 48.0315L85.4521 47.1936H85.3584C85.167 47.4983 84.8955 47.7346 84.5439 47.9026C84.1924 48.0667 83.792 48.1487 83.3428 48.1487C82.5732 48.1487 81.9932 47.9436 81.6025 47.5334C81.2119 47.1194 81.0166 46.5256 81.0166 45.7522V41.4807H82.8037V45.3069C82.8037 45.7795 82.8877 46.135 83.0557 46.3733C83.2236 46.6077 83.4912 46.7249 83.8584 46.7249C84.3584 46.7249 84.7197 46.5588 84.9424 46.2268C85.165 45.8909 85.2764 45.3362 85.2764 44.5627V41.4807H87.0635V48.0315H85.6924ZM93.4368 46.0862C93.4368 46.7581 93.2024 47.2698 92.7337 47.6213C92.2688 47.9729 91.5715 48.1487 90.6419 48.1487C90.1653 48.1487 89.759 48.1155 89.4231 48.0491C89.0872 47.9866 88.7727 47.8928 88.4798 47.7678V46.2913C88.8118 46.4475 89.1848 46.5784 89.5989 46.6838C90.0169 46.7893 90.384 46.842 90.7005 46.842C91.3489 46.842 91.6731 46.6545 91.6731 46.2795C91.6731 46.1389 91.6301 46.0256 91.5442 45.9397C91.4583 45.8499 91.3098 45.7502 91.0989 45.6409C90.888 45.5276 90.6067 45.3967 90.2551 45.2483C89.7512 45.0374 89.3801 44.842 89.1419 44.6624C88.9075 44.4827 88.7356 44.2776 88.6262 44.0471C88.5208 43.8127 88.468 43.5256 88.468 43.1858C88.468 42.6038 88.6926 42.1545 89.1419 41.8381C89.595 41.5178 90.2356 41.3577 91.0637 41.3577C91.8528 41.3577 92.6204 41.5295 93.3665 41.8733L92.8274 43.1624C92.4993 43.0217 92.1926 42.9065 91.9075 42.8167C91.6223 42.7268 91.3313 42.6819 91.0344 42.6819C90.5071 42.6819 90.2434 42.8245 90.2434 43.1096C90.2434 43.2698 90.3274 43.4084 90.4954 43.5256C90.6673 43.6428 91.0403 43.8167 91.6145 44.0471C92.1262 44.2542 92.5012 44.4475 92.7395 44.6272C92.9778 44.8069 93.1536 45.0139 93.2669 45.2483C93.3801 45.4827 93.4368 45.762 93.4368 46.0862ZM94.5074 47.1936C94.5074 46.8655 94.5953 46.6174 94.771 46.4495C94.9468 46.2815 95.2027 46.1975 95.5386 46.1975C95.8628 46.1975 96.1128 46.2834 96.2886 46.4553C96.4683 46.6272 96.5581 46.8733 96.5581 47.1936C96.5581 47.5022 96.4683 47.7463 96.2886 47.926C96.1089 48.1018 95.8589 48.1897 95.5386 48.1897C95.2105 48.1897 94.9566 48.1038 94.7769 47.9319C94.5972 47.7561 94.5074 47.51 94.5074 47.1936ZM94.5074 42.3538C94.5074 42.0256 94.5953 41.7776 94.771 41.6096C94.9468 41.4417 95.2027 41.3577 95.5386 41.3577C95.8628 41.3577 96.1128 41.4436 96.2886 41.6155C96.4683 41.7874 96.5581 42.0334 96.5581 42.3538C96.5581 42.6702 96.4663 42.9163 96.2828 43.092C96.1031 43.2639 95.855 43.3499 95.5386 43.3499C95.2105 43.3499 94.9566 43.2639 94.7769 43.092C94.5972 42.9202 94.5074 42.6741 94.5074 42.3538ZM104.406 48.0315H103.457V41.926C103.457 41.4182 103.473 40.9377 103.504 40.4846C103.422 40.5667 103.33 40.6526 103.229 40.7424C103.127 40.8323 102.662 41.2131 101.834 41.885L101.318 41.217L103.586 39.4651H104.406V48.0315ZM113.276 43.7366C113.276 45.217 113.041 46.3225 112.573 47.053C112.108 47.7834 111.395 48.1487 110.434 48.1487C109.512 48.1487 108.811 47.7756 108.33 47.0295C107.85 46.2795 107.61 45.1819 107.61 43.7366C107.61 42.2444 107.842 41.137 108.307 40.4143C108.772 39.6917 109.481 39.3303 110.434 39.3303C111.364 39.3303 112.069 39.7073 112.549 40.4612C113.034 41.2151 113.276 42.3069 113.276 43.7366ZM108.594 43.7366C108.594 44.9827 108.741 45.8909 109.034 46.4612C109.327 47.0276 109.793 47.3108 110.434 47.3108C111.082 47.3108 111.551 47.0237 111.84 46.4495C112.133 45.8713 112.28 44.967 112.28 43.7366C112.28 42.5061 112.133 41.6057 111.84 41.0354C111.551 40.4612 111.082 40.1741 110.434 40.1741C109.793 40.1741 109.327 40.4573 109.034 41.0237C108.741 41.5862 108.594 42.4905 108.594 43.7366ZM120.071 43.7366C120.071 45.217 119.837 46.3225 119.368 47.053C118.903 47.7834 118.19 48.1487 117.229 48.1487C116.307 48.1487 115.606 47.7756 115.126 47.0295C114.645 46.2795 114.405 45.1819 114.405 43.7366C114.405 42.2444 114.637 41.137 115.102 40.4143C115.567 39.6917 116.276 39.3303 117.229 39.3303C118.159 39.3303 118.864 39.7073 119.344 40.4612C119.829 41.2151 120.071 42.3069 120.071 43.7366ZM115.389 43.7366C115.389 44.9827 115.536 45.8909 115.829 46.4612C116.122 47.0276 116.589 47.3108 117.229 47.3108C117.878 47.3108 118.346 47.0237 118.635 46.4495C118.928 45.8713 119.075 44.967 119.075 43.7366C119.075 42.5061 118.928 41.6057 118.635 41.0354C118.346 40.4612 117.878 40.1741 117.229 40.1741C116.589 40.1741 116.122 40.4573 115.829 41.0237C115.536 41.5862 115.389 42.4905 115.389 43.7366ZM126.005 47.1702H125.952C125.503 47.8225 124.831 48.1487 123.936 48.1487C123.097 48.1487 122.442 47.8616 121.974 47.2874C121.509 46.7131 121.276 45.8967 121.276 44.8381C121.276 43.7795 121.511 42.9573 121.979 42.3713C122.448 41.7854 123.1 41.4924 123.936 41.4924C124.808 41.4924 125.475 41.8088 125.94 42.4417H126.017L125.975 41.9788L125.952 41.5276V38.9143H126.925V48.0315H126.134L126.005 47.1702ZM124.059 47.3342C124.724 47.3342 125.204 47.1545 125.501 46.7952C125.802 46.4319 125.952 45.8479 125.952 45.0432V44.8381C125.952 43.928 125.8 43.2795 125.495 42.8928C125.194 42.5022 124.712 42.3069 124.048 42.3069C123.477 42.3069 123.04 42.5295 122.735 42.9749C122.434 43.4163 122.284 44.0413 122.284 44.8499C122.284 45.6702 122.434 46.2893 122.735 46.7073C123.036 47.1252 123.477 47.3342 124.059 47.3342ZM131.909 48.1487C131.491 48.1487 131.109 48.0725 130.761 47.9202C130.417 47.7639 130.128 47.5256 129.894 47.2053H129.823C129.87 47.5803 129.894 47.9358 129.894 48.2717V50.9143H128.921V41.6096H129.712L129.847 42.4885H129.894C130.144 42.137 130.435 41.8831 130.767 41.7268C131.099 41.5706 131.48 41.4924 131.909 41.4924C132.761 41.4924 133.417 41.7834 133.878 42.3655C134.343 42.9475 134.575 43.7639 134.575 44.8147C134.575 45.8694 134.339 46.6897 133.866 47.2756C133.398 47.8577 132.745 48.1487 131.909 48.1487ZM131.769 42.3186C131.112 42.3186 130.638 42.5002 130.345 42.8635C130.052 43.2268 129.902 43.8049 129.894 44.5979V44.8147C129.894 45.717 130.044 46.3635 130.345 46.7542C130.646 47.1409 131.128 47.3342 131.792 47.3342C132.347 47.3342 132.78 47.1096 133.093 46.6604C133.409 46.2112 133.568 45.592 133.568 44.803C133.568 44.0022 133.409 43.3889 133.093 42.9631C132.78 42.5334 132.339 42.3186 131.769 42.3186Z" fill="#000"/>
<path d="M1 59.9659V6.034H138.827V16.5062L146 24.3604L138.827 31.6909V59.9659H1Z" stroke="#CCCCCC"/>
<path d="M159.944 38.0126H158.837V30.8895C158.837 30.2971 158.855 29.7365 158.892 29.2079C158.796 29.3036 158.689 29.4038 158.57 29.5087C158.452 29.6135 157.91 30.0578 156.943 30.8417L156.342 30.0624L158.987 28.0184H159.944V38.0126ZM163.784 33.7401C163.784 31.7759 164.165 30.3085 164.926 29.3378C165.691 28.3625 166.822 27.8749 168.316 27.8749C168.831 27.8749 169.237 27.9182 169.533 28.0048V28.9823C169.182 28.8684 168.781 28.8114 168.33 28.8114C167.259 28.8114 166.441 29.1464 165.876 29.8163C165.311 30.4816 165.001 31.5298 164.946 32.9608H165.028C165.53 32.177 166.323 31.785 167.407 31.785C168.305 31.785 169.011 32.0562 169.526 32.5985C170.046 33.1408 170.306 33.8768 170.306 34.8065C170.306 35.8456 170.021 36.6636 169.451 37.2606C168.886 37.8531 168.12 38.1493 167.154 38.1493C166.12 38.1493 165.3 37.7619 164.693 36.9872C164.087 36.2079 163.784 35.1255 163.784 33.7401ZM167.141 37.1854C167.788 37.1854 168.289 36.9826 168.645 36.577C169.005 36.1669 169.185 35.5767 169.185 34.8065C169.185 34.1457 169.018 33.6262 168.686 33.2479C168.353 32.8697 167.856 32.6805 167.195 32.6805C166.785 32.6805 166.409 32.7649 166.067 32.9335C165.726 33.1021 165.452 33.3345 165.247 33.6307C165.047 33.927 164.946 34.2346 164.946 34.5536C164.946 35.023 165.037 35.4605 165.22 35.8661C165.402 36.2717 165.66 36.593 165.992 36.83C166.329 37.0669 166.712 37.1854 167.141 37.1854ZM177.215 37.0077H177.153C176.629 37.7688 175.845 38.1493 174.802 38.1493C173.822 38.1493 173.059 37.8143 172.512 37.1444C171.969 36.4745 171.698 35.522 171.698 34.287C171.698 33.052 171.972 32.0927 172.519 31.4091C173.065 30.7255 173.827 30.3837 174.802 30.3837C175.818 30.3837 176.597 30.7528 177.14 31.4911H177.229L177.181 30.951L177.153 30.4247V27.3759H178.288V38.0126H177.365L177.215 37.0077ZM174.945 37.1991C175.72 37.1991 176.281 36.9895 176.627 36.5702C176.978 36.1464 177.153 35.465 177.153 34.5262V34.287C177.153 33.2251 176.976 32.4686 176.62 32.0175C176.269 31.5617 175.706 31.3339 174.932 31.3339C174.266 31.3339 173.756 31.5936 173.4 32.1132C173.049 32.6281 172.874 33.3573 172.874 34.3007C172.874 35.2577 173.049 35.98 173.4 36.4677C173.751 36.9553 174.266 37.1991 174.945 37.1991ZM184.104 38.1493C183.616 38.1493 183.169 38.0604 182.764 37.8827C182.363 37.7004 182.025 37.4224 181.752 37.0487H181.67C181.725 37.4862 181.752 37.9009 181.752 38.2928V41.3759H180.617V30.5204H181.54L181.697 31.5458H181.752C182.044 31.1356 182.383 30.8394 182.771 30.6571C183.158 30.4748 183.602 30.3837 184.104 30.3837C185.097 30.3837 185.863 30.7232 186.4 31.4022C186.943 32.0813 187.214 33.0337 187.214 34.2596C187.214 35.4901 186.938 36.4471 186.387 37.1307C185.84 37.8098 185.079 38.1493 184.104 38.1493ZM183.939 31.3475C183.174 31.3475 182.62 31.5594 182.278 31.9833C181.937 32.4071 181.761 33.0816 181.752 34.0067V34.2596C181.752 35.3124 181.927 36.0666 182.278 36.5223C182.629 36.9735 183.192 37.1991 183.967 37.1991C184.614 37.1991 185.12 36.9371 185.484 36.413C185.854 35.8889 186.038 35.1665 186.038 34.246C186.038 33.3117 185.854 32.5962 185.484 32.0995C185.12 31.5982 184.605 31.3475 183.939 31.3475Z" fill="#E8178A"/>
<rect x="194" y="18.0605" width="155" height="48" rx="24" fill="#0063A3"/>
<g clip-path="url(#clip0_7259_87777)">
<path d="M218 29.7272C217.411 29.7272 216.851 29.8444 216.342 30.0557C215.831 30.2672 215.246 30.0251 215.035 29.515C214.823 29.0048 215.065 28.4198 215.575 28.2082C216.324 27.898 217.143 27.7272 218 27.7272H220C220.552 27.7272 221 28.1749 221 28.7272C221 29.2795 220.552 29.7272 220 29.7272H218Z" fill="#fff"/>
<path d="M223 28.7272C223 28.1749 223.448 27.7272 224 27.7272H228C228.552 27.7272 229 28.1749 229 28.7272C229 29.2795 228.552 29.7272 228 29.7272H224C223.448 29.7272 223 29.2795 223 28.7272Z" fill="#fff"/>
<path d="M231 28.7272C231 28.1749 231.448 27.7272 232 27.7272H234C234.857 27.7272 235.677 27.898 236.425 28.2082C236.935 28.4198 237.177 29.0048 236.965 29.515C236.754 30.0251 236.169 30.2672 235.659 30.0557C235.149 29.8444 234.589 29.7272 234 29.7272H232C231.448 29.7272 231 29.2795 231 28.7272Z" fill="#fff"/>
<path d="M213.454 31.0953C213.965 31.3069 214.207 31.8919 213.995 32.4021C213.784 32.9116 213.667 33.4712 213.667 34.0606V36.0606C213.667 36.6129 213.219 37.0606 212.667 37.0606C212.114 37.0606 211.667 36.6129 211.667 36.0606V34.0606C211.667 33.2037 211.837 32.3841 212.148 31.636C212.359 31.1258 212.944 30.8838 213.454 31.0953Z" fill="#fff"/>
<path d="M238.546 31.0953C239.056 30.8838 239.641 31.1258 239.852 31.636C240.163 32.3841 240.333 33.2037 240.333 34.0606V36.0606C240.333 36.6129 239.886 37.0606 239.333 37.0606C238.781 37.0606 238.333 36.6129 238.333 36.0606V34.0606C238.333 33.4712 238.216 32.9116 238.005 32.4021C237.793 31.8919 238.036 31.3069 238.546 31.0953Z" fill="#fff"/>
<path d="M212.667 39.0606C213.219 39.0606 213.667 39.5083 213.667 40.0606V44.0606C213.667 44.6129 213.219 45.0606 212.667 45.0606C212.114 45.0606 211.667 44.6129 211.667 44.0606V40.0606C211.667 39.5083 212.114 39.0606 212.667 39.0606Z" fill="#fff"/>
<path d="M239.333 39.0606C239.886 39.0606 240.333 39.5083 240.333 40.0606V44.0606C240.333 44.6129 239.886 45.0606 239.333 45.0606C238.781 45.0606 238.333 44.6129 238.333 44.0606V40.0606C238.333 39.5083 238.781 39.0606 239.333 39.0606Z" fill="#fff"/>
<path d="M212.667 47.0606C213.219 47.0606 213.667 47.5083 213.667 48.0606V50.0606C213.667 50.65 213.784 51.2095 213.995 51.719C214.207 52.2292 213.965 52.8143 213.454 53.0258C212.944 53.2374 212.359 52.9953 212.148 52.4852C211.837 51.737 211.667 50.9175 211.667 50.0606V48.0606C211.667 47.5083 212.114 47.0606 212.667 47.0606Z" fill="#fff"/>
<path d="M239.333 47.0606C239.886 47.0606 240.333 47.5083 240.333 48.0606V50.0606C240.333 50.9175 240.163 51.737 239.852 52.4852C239.641 52.9953 239.056 53.2374 238.546 53.0258C238.036 52.8143 237.793 52.2292 238.005 51.7191C238.216 51.2095 238.333 50.65 238.333 50.0606V48.0606C238.333 47.5083 238.781 47.0606 239.333 47.0606Z" fill="#fff"/>
<path d="M215.035 54.6062C215.246 54.096 215.831 53.8539 216.342 54.0655C216.851 54.2768 217.411 54.3939 218 54.3939H220C220.552 54.3939 221 54.8416 221 55.3939C221 55.9462 220.552 56.3939 220 56.3939H218C217.143 56.3939 216.324 56.2232 215.575 55.9129C215.065 55.7014 214.823 55.1163 215.035 54.6062Z" fill="#fff"/>
<path d="M236.965 54.6062C237.177 55.1163 236.935 55.7014 236.425 55.9129C235.677 56.2232 234.857 56.3939 234 56.3939H232C231.448 56.3939 231 55.9462 231 55.3939C231 54.8416 231.448 54.3939 232 54.3939H234C234.589 54.3939 235.149 54.2768 235.659 54.0655C236.169 53.8539 236.754 54.096 236.965 54.6062Z" fill="#fff"/>
<path d="M223 55.3939C223 54.8416 223.448 54.3939 224 54.3939H228C228.552 54.3939 229 54.8416 229 55.3939C229 55.9462 228.552 56.3939 228 56.3939H224C223.448 56.3939 223 55.9462 223 55.3939Z" fill="#fff"/>
<path d="M237.374 32.1819C237.764 31.7914 237.764 31.1582 237.374 30.7677C236.983 30.3771 236.35 30.3771 235.96 30.7677L234.631 32.096C234.241 32.4865 234.241 33.1196 234.631 33.5102C235.022 33.9007 235.655 33.9007 236.046 33.5102L237.374 32.1819Z" fill="#fff"/>
<path d="M233.389 36.1667C233.78 35.7762 233.78 35.143 233.389 34.7525C232.998 34.362 232.365 34.362 231.975 34.7525L229.318 37.4091C228.928 37.7996 228.928 38.4328 229.318 38.8233C229.709 39.2138 230.342 39.2138 230.732 38.8233L233.389 36.1667Z" fill="#fff"/>
<path d="M228.076 41.4798C228.466 41.0893 228.466 40.4561 228.076 40.0656C227.685 39.6751 227.052 39.6751 226.662 40.0656L226 40.7272L225.338 40.0656C224.948 39.6751 224.315 39.6751 223.924 40.0656C223.534 40.4561 223.534 41.0893 223.924 41.4798L224.586 42.1414L224.005 42.7222C223.615 43.1127 223.615 43.7459 224.005 44.1364C224.396 44.5269 225.029 44.5269 225.419 44.1364L226 43.5557L226.581 44.1364C226.971 44.5269 227.605 44.5269 227.995 44.1364C228.386 43.7459 228.386 43.1127 227.995 42.7222L227.414 42.1414L228.076 41.4798Z" fill="#fff"/>
<path d="M222.763 46.793C223.153 46.4024 223.153 45.7693 222.763 45.3787C222.372 44.9882 221.739 44.9882 221.349 45.3787L218.692 48.0353C218.301 48.4258 218.301 49.059 218.692 49.4495C219.083 49.84 219.716 49.84 220.106 49.4495L222.763 46.793Z" fill="#fff"/>
<path d="M217.45 52.1061C217.84 51.7155 217.84 51.0824 217.45 50.6918C217.059 50.3013 216.426 50.3013 216.035 50.6918L214.707 52.0201C214.317 52.4107 214.317 53.0438 214.707 53.4343C215.098 53.8249 215.731 53.8249 216.121 53.4343L217.45 52.1061Z" fill="#fff"/>
<path d="M235.879 53.4343C236.269 53.8249 236.902 53.8249 237.293 53.4343C237.684 53.0438 237.684 52.4107 237.293 52.0201L235.965 50.6918C235.574 50.3013 234.941 50.3013 234.55 50.6918C234.16 51.0824 234.16 51.7155 234.55 52.1061L235.879 53.4343Z" fill="#fff"/>
<path d="M231.894 49.4495C232.284 49.84 232.918 49.84 233.308 49.4495C233.699 49.059 233.699 48.4258 233.308 48.0353L230.652 45.3787C230.261 44.9882 229.628 44.9882 229.237 45.3787C228.847 45.7693 228.847 46.4024 229.237 46.793L231.894 49.4495Z" fill="#fff"/>
<path d="M221.268 38.8233C221.658 39.2138 222.291 39.2138 222.682 38.8233C223.072 38.4328 223.072 37.7996 222.682 37.4091L220.025 34.7525C219.635 34.362 219.002 34.362 218.611 34.7525C218.221 35.143 218.221 35.7762 218.611 36.1667L221.268 38.8233Z" fill="#fff"/>
<path d="M215.955 33.5102C216.345 33.9007 216.978 33.9007 217.369 33.5102C217.759 33.1196 217.759 32.4865 217.369 32.096L216.041 30.7677C215.65 30.3772 215.017 30.3772 214.626 30.7677C214.236 31.1582 214.236 31.7914 214.626 32.1819L215.955 33.5102Z" fill="#fff"/>
<path d="M222.075 35.2459C222.472 35.1256 222.894 35.0606 223.333 35.0606H224.333C224.886 35.0606 225.333 34.6129 225.333 34.0606C225.333 33.5083 224.886 33.0606 224.333 33.0606H223.333C222.695 33.0606 222.078 33.1552 221.495 33.3319C220.966 33.492 220.668 34.0503 220.828 34.5789C220.988 35.1074 221.546 35.4061 222.075 35.2459Z" fill="#fff"/>
<path d="M227.667 33.0606C227.114 33.0606 226.667 33.5083 226.667 34.0606C226.667 34.6129 227.114 35.0606 227.667 35.0606H228.667C229.106 35.0606 229.528 35.1256 229.926 35.2459C230.454 35.4061 231.012 35.1074 231.172 34.5789C231.333 34.0503 231.034 33.492 230.505 33.3319C229.922 33.1552 229.305 33.0606 228.667 33.0606H227.667Z" fill="#fff"/>
<path d="M219.185 38.1351C219.346 37.6066 219.047 37.0483 218.518 36.8882C217.99 36.728 217.432 37.0267 217.271 37.5552C217.095 38.1384 217 38.756 217 39.3939V40.3939C217 40.9462 217.448 41.3939 218 41.3939C218.552 41.3939 219 40.9462 219 40.3939V39.3939C219 38.9546 219.065 38.5323 219.185 38.1351Z" fill="#fff"/>
<path d="M234.729 37.5552C234.569 37.0267 234.01 36.728 233.482 36.8882C232.953 37.0483 232.655 37.6066 232.815 38.1351C232.935 38.5323 233 38.9546 233 39.3939V40.3939C233 40.9462 233.448 41.3939 234 41.3939C234.552 41.3939 235 40.9462 235 40.3939V39.3939C235 38.756 234.905 38.1384 234.729 37.5552Z" fill="#fff"/>
<path d="M219 43.7272C219 43.175 218.552 42.7272 218 42.7272C217.448 42.7272 217 43.175 217 43.7272V44.7272C217 45.3652 217.095 45.9828 217.271 46.5659C217.432 47.0945 217.99 47.3931 218.518 47.233C219.047 47.0728 219.346 46.5145 219.185 45.986C219.065 45.5888 219 45.1665 219 44.7272V43.7272Z" fill="#fff"/>
<path d="M235 43.7272C235 43.175 234.552 42.7272 234 42.7272C233.448 42.7272 233 43.175 233 43.7272V44.7272C233 45.1665 232.935 45.5888 232.815 45.986C232.655 46.5145 232.953 47.0728 233.482 47.233C234.01 47.3931 234.569 47.0945 234.729 46.5659C234.905 45.9828 235 45.3652 235 44.7272V43.7272Z" fill="#fff"/>
<path d="M222.075 48.8752C221.546 48.7151 220.988 49.0137 220.828 49.5423C220.668 50.0708 220.966 50.6291 221.495 50.7893C222.078 50.9659 222.695 51.0606 223.333 51.0606H224.333C224.886 51.0606 225.333 50.6129 225.333 50.0606C225.333 49.5083 224.886 49.0606 224.333 49.0606H223.333C222.894 49.0606 222.472 48.9955 222.075 48.8752Z" fill="#fff"/>
<path d="M230.505 50.7893C231.034 50.6291 231.333 50.0708 231.172 49.5423C231.012 49.0137 230.454 48.7151 229.926 48.8752C229.528 48.9955 229.106 49.0606 228.667 49.0606H227.667C227.114 49.0606 226.667 49.5083 226.667 50.0606C226.667 50.6129 227.114 51.0606 227.667 51.0606H228.667C229.305 51.0606 229.922 50.9659 230.505 50.7893Z" fill="#fff"/>
<path d="M265.129 43.0576C265.129 45.6429 264.391 47.623 262.916 48.998C261.448 50.373 259.325 51.0605 256.546 51.0605H252.099V35.3555H257.029C259.593 35.3555 261.584 36.0322 263.002 37.3857C264.42 38.7393 265.129 40.6299 265.129 43.0576ZM261.67 43.1436C261.67 39.7705 260.181 38.084 257.201 38.084H255.429V48.3105H256.858C260.066 48.3105 261.67 46.5882 261.67 43.1436ZM273.25 41.1562C272.555 41.1562 272.011 41.3783 271.617 41.8223C271.223 42.2591 270.998 42.8822 270.94 43.6914H275.538C275.524 42.8822 275.312 42.2591 274.904 41.8223C274.496 41.3783 273.944 41.1562 273.25 41.1562ZM273.712 51.2754C271.778 51.2754 270.267 50.7419 269.179 49.6748C268.09 48.6077 267.546 47.0967 267.546 45.1416C267.546 43.1292 268.047 41.5752 269.05 40.4795C270.059 39.3766 271.452 38.8252 273.228 38.8252C274.926 38.8252 276.247 39.3086 277.192 40.2754C278.137 41.2422 278.61 42.5778 278.61 44.2822V45.8721H270.865C270.901 46.8031 271.177 47.5299 271.692 48.0527C272.208 48.5755 272.931 48.8369 273.862 48.8369C274.585 48.8369 275.269 48.7617 275.914 48.6113C276.558 48.4609 277.232 48.221 277.933 47.8916V50.4268C277.36 50.7132 276.748 50.9245 276.096 51.0605C275.445 51.2038 274.65 51.2754 273.712 51.2754ZM288.063 41.5107H285.227V51.0605H281.951V41.5107H280.146V39.9316L281.951 39.0508V38.1699C281.951 36.8021 282.287 35.8031 282.96 35.1729C283.634 34.5426 284.711 34.2275 286.194 34.2275C287.325 34.2275 288.331 34.3958 289.212 34.7324L288.374 37.1387C287.716 36.931 287.107 36.8271 286.548 36.8271C286.083 36.8271 285.746 36.9668 285.538 37.2461C285.331 37.5182 285.227 37.8691 285.227 38.2988V39.0508H288.063V41.5107ZM297.73 51.0605L297.097 49.4277H297.011C296.459 50.1224 295.89 50.6058 295.303 50.8779C294.723 51.1429 293.964 51.2754 293.025 51.2754C291.872 51.2754 290.963 50.946 290.297 50.2871C289.638 49.6283 289.309 48.6901 289.309 47.4727C289.309 46.1979 289.753 45.2598 290.641 44.6582C291.536 44.0495 292.882 43.7129 294.68 43.6484L296.764 43.584V43.0576C296.764 41.8402 296.141 41.2314 294.895 41.2314C293.935 41.2314 292.807 41.5215 291.511 42.1016L290.426 39.8887C291.808 39.1654 293.34 38.8037 295.023 38.8037C296.635 38.8037 297.87 39.1546 298.729 39.8564C299.589 40.5583 300.019 41.6253 300.019 43.0576V51.0605H297.73ZM296.764 45.4961L295.496 45.5391C294.544 45.5677 293.835 45.7396 293.369 46.0547C292.904 46.3698 292.671 46.8496 292.671 47.4941C292.671 48.418 293.201 48.8799 294.261 48.8799C295.02 48.8799 295.625 48.6615 296.076 48.2246C296.535 47.7878 296.764 47.2077 296.764 46.4844V45.4961ZM312.06 51.0605L311.62 49.5244H311.448C311.097 50.083 310.599 50.5163 309.955 50.8242C309.31 51.125 308.576 51.2754 307.753 51.2754C306.342 51.2754 305.278 50.8994 304.562 50.1475C303.846 49.3883 303.488 48.2998 303.488 46.8818V39.0508H306.764V46.0654C306.764 46.932 306.918 47.5837 307.226 48.0205C307.534 48.4502 308.025 48.665 308.698 48.665C309.615 48.665 310.277 48.3607 310.685 47.752C311.093 47.1361 311.297 46.1191 311.297 44.7012V39.0508H314.574V51.0605H312.06ZM321.438 51.0605H318.161V34.3457H321.438V51.0605ZM330.096 48.665C330.668 48.665 331.356 48.5397 332.158 48.2891V50.7275C331.342 51.0928 330.339 51.2754 329.15 51.2754C327.84 51.2754 326.884 50.946 326.282 50.2871C325.688 49.6211 325.39 48.6257 325.39 47.3008V41.5107H323.822V40.125L325.627 39.0293L326.572 36.4941H328.667V39.0508H332.029V41.5107H328.667V47.3008C328.667 47.7663 328.796 48.11 329.054 48.332C329.318 48.554 329.666 48.665 330.096 48.665Z" fill="#fff"/>
</g>
<rect x="194" y="18.0605" width="16" height="47.9395" fill="#EB3499" fill-opacity="0.6"/>
<rect x="333" y="18.0605" width="16" height="47.9395" fill="#EB3499" fill-opacity="0.6"/>
<rect x="243" y="18.0605" width="8" height="47.9395" fill="#EB3499" fill-opacity="0.6"/>
<rect x="193.5" y="18.0599" width="156" height="47.9407" rx="23.9704" stroke="#FF00FF" stroke-dasharray="2 2"/>
<path d="M243.977 0.862305C244.888 0.862305 245.61 1.07422 246.144 1.49805C246.677 1.92188 246.943 2.50749 246.943 3.25488C246.943 3.74707 246.791 4.19596 246.485 4.60156C246.18 5.00716 245.692 5.3763 245.022 5.70898C245.834 6.09635 246.41 6.50423 246.752 6.93262C247.094 7.35645 247.265 7.84863 247.265 8.40918C247.265 9.23861 246.975 9.90169 246.397 10.3984C245.818 10.8906 245.025 11.1367 244.018 11.1367C242.951 11.1367 242.131 10.9043 241.557 10.4395C240.982 9.97005 240.695 9.30697 240.695 8.4502C240.695 7.30632 241.393 6.41536 242.787 5.77734C242.158 5.42188 241.707 5.03906 241.434 4.62891C241.16 4.21419 241.023 3.75163 241.023 3.24121C241.023 2.5166 241.29 1.9401 241.823 1.51172C242.361 1.07878 243.079 0.862305 243.977 0.862305ZM241.816 8.47754C241.816 9.02441 242.006 9.45052 242.384 9.75586C242.767 10.0612 243.302 10.2139 243.99 10.2139C244.669 10.2139 245.198 10.0544 245.576 9.73535C245.954 9.41634 246.144 8.97884 246.144 8.42285C246.144 7.98079 245.966 7.58887 245.61 7.24707C245.255 6.90072 244.635 6.56576 243.751 6.24219C243.072 6.53385 242.58 6.85742 242.274 7.21289C241.969 7.5638 241.816 7.98535 241.816 8.47754ZM243.963 1.78516C243.393 1.78516 242.947 1.92188 242.623 2.19531C242.3 2.46875 242.138 2.83333 242.138 3.28906C242.138 3.70833 242.272 4.06836 242.541 4.36914C242.81 4.66992 243.307 4.9707 244.031 5.27148C244.683 4.99805 245.143 4.7041 245.412 4.38965C245.686 4.0752 245.822 3.70833 245.822 3.28906C245.822 2.82878 245.656 2.46419 245.323 2.19531C244.995 1.92188 244.542 1.78516 243.963 1.78516ZM254.215 9.99512H254.153C253.629 10.7562 252.845 11.1367 251.802 11.1367C250.822 11.1367 250.059 10.8018 249.512 10.1318C248.969 9.46191 248.698 8.50944 248.698 7.27441C248.698 6.03939 248.972 5.08008 249.519 4.39648C250.065 3.71289 250.827 3.37109 251.802 3.37109C252.818 3.37109 253.597 3.74023 254.14 4.47852H254.229L254.181 3.93848L254.153 3.41211V0.363281H255.288V11H254.365L254.215 9.99512ZM251.945 10.1865C252.72 10.1865 253.281 9.97689 253.627 9.55762C253.978 9.13379 254.153 8.45247 254.153 7.51367V7.27441C254.153 6.21257 253.976 5.45605 253.62 5.00488C253.269 4.54915 252.706 4.32129 251.932 4.32129C251.266 4.32129 250.756 4.58105 250.4 5.10059C250.049 5.61556 249.874 6.34473 249.874 7.28809C249.874 8.24512 250.049 8.96745 250.4 9.45508C250.751 9.94271 251.266 10.1865 251.945 10.1865ZM261.104 11.1367C260.616 11.1367 260.169 11.0479 259.764 10.8701C259.363 10.6878 259.025 10.4098 258.752 10.0361H258.67C258.725 10.4736 258.752 10.8883 258.752 11.2803V14.3633H257.617V3.50781H258.54L258.697 4.5332H258.752C259.044 4.12305 259.383 3.82682 259.771 3.64453C260.158 3.46224 260.602 3.37109 261.104 3.37109C262.097 3.37109 262.863 3.71061 263.4 4.38965C263.943 5.06868 264.214 6.02116 264.214 7.24707C264.214 8.47754 263.938 9.43457 263.387 10.1182C262.84 10.7972 262.079 11.1367 261.104 11.1367ZM260.939 4.33496C260.174 4.33496 259.62 4.54688 259.278 4.9707C258.937 5.39453 258.761 6.06901 258.752 6.99414V7.24707C258.752 8.2998 258.927 9.05404 259.278 9.50977C259.629 9.96094 260.192 10.1865 260.967 10.1865C261.614 10.1865 262.12 9.92448 262.484 9.40039C262.854 8.8763 263.038 8.15397 263.038 7.2334C263.038 6.29915 262.854 5.58366 262.484 5.08691C262.12 4.58561 261.605 4.33496 260.939 4.33496Z" fill="#E8178A"/>
<path d="M359.944 38.0126H358.837V30.8895C358.837 30.2971 358.855 29.7365 358.892 29.2079C358.796 29.3036 358.689 29.4038 358.57 29.5087C358.452 29.6135 357.91 30.0578 356.943 30.8417L356.342 30.0624L358.987 28.0184H359.944V38.0126ZM363.784 33.7401C363.784 31.7759 364.165 30.3085 364.926 29.3378C365.691 28.3625 366.822 27.8749 368.316 27.8749C368.831 27.8749 369.237 27.9182 369.533 28.0048V28.9823C369.182 28.8684 368.781 28.8114 368.33 28.8114C367.259 28.8114 366.441 29.1464 365.876 29.8163C365.311 30.4816 365.001 31.5298 364.946 32.9608H365.028C365.53 32.177 366.323 31.785 367.407 31.785C368.305 31.785 369.011 32.0562 369.526 32.5985C370.046 33.1408 370.306 33.8768 370.306 34.8065C370.306 35.8456 370.021 36.6636 369.451 37.2606C368.886 37.8531 368.12 38.1493 367.154 38.1493C366.12 38.1493 365.3 37.7619 364.693 36.9872C364.087 36.2079 363.784 35.1255 363.784 33.7401ZM367.141 37.1854C367.788 37.1854 368.289 36.9826 368.645 36.577C369.005 36.1669 369.185 35.5767 369.185 34.8065C369.185 34.1457 369.018 33.6262 368.686 33.2479C368.353 32.8697 367.856 32.6805 367.195 32.6805C366.785 32.6805 366.409 32.7649 366.067 32.9335C365.726 33.1021 365.452 33.3345 365.247 33.6307C365.047 33.927 364.946 34.2346 364.946 34.5536C364.946 35.023 365.037 35.4605 365.22 35.8661C365.402 36.2717 365.66 36.593 365.992 36.83C366.329 37.0669 366.712 37.1854 367.141 37.1854ZM377.215 37.0077H377.153C376.629 37.7688 375.845 38.1493 374.802 38.1493C373.822 38.1493 373.059 37.8143 372.512 37.1444C371.969 36.4745 371.698 35.522 371.698 34.287C371.698 33.052 371.972 32.0927 372.519 31.4091C373.065 30.7255 373.827 30.3837 374.802 30.3837C375.818 30.3837 376.597 30.7528 377.14 31.4911H377.229L377.181 30.951L377.153 30.4247V27.3759H378.288V38.0126H377.365L377.215 37.0077ZM374.945 37.1991C375.72 37.1991 376.281 36.9895 376.627 36.5702C376.978 36.1464 377.153 35.465 377.153 34.5262V34.287C377.153 33.2251 376.976 32.4686 376.62 32.0175C376.269 31.5617 375.706 31.3339 374.932 31.3339C374.266 31.3339 373.756 31.5936 373.4 32.1132C373.049 32.6281 372.874 33.3573 372.874 34.3007C372.874 35.2577 373.049 35.98 373.4 36.4677C373.751 36.9553 374.266 37.1991 374.945 37.1991ZM384.104 38.1493C383.616 38.1493 383.169 38.0604 382.764 37.8827C382.363 37.7004 382.025 37.4224 381.752 37.0487H381.67C381.725 37.4862 381.752 37.9009 381.752 38.2928V41.3759H380.617V30.5204H381.54L381.697 31.5458H381.752C382.044 31.1356 382.383 30.8394 382.771 30.6571C383.158 30.4748 383.602 30.3837 384.104 30.3837C385.097 30.3837 385.863 30.7232 386.4 31.4022C386.943 32.0813 387.214 33.0337 387.214 34.2596C387.214 35.4901 386.938 36.4471 386.387 37.1307C385.84 37.8098 385.079 38.1493 384.104 38.1493ZM383.939 31.3475C383.174 31.3475 382.62 31.5594 382.278 31.9833C381.937 32.4071 381.761 33.0816 381.752 34.0067V34.2596C381.752 35.3124 381.927 36.0666 382.278 36.5223C382.629 36.9735 383.192 37.1991 383.967 37.1991C384.614 37.1991 385.12 36.9371 385.484 36.413C385.854 35.8889 386.038 35.1665 386.038 34.246C386.038 33.3117 385.854 32.5962 385.484 32.0995C385.12 31.5982 384.605 31.3475 383.939 31.3475Z" fill="#E8178A"/>
<defs>
<clipPath id="clip0_7259_87777">
<rect width="123" height="32" fill="#fff" transform="translate(210 26.0605)"/>
</clipPath>
</defs>
</svg>
