<svg width="180" height="58" fill="none" xmlns="http://www.w3.org/2000/svg"><path fill="#019AEB" d="M.5.5h179v57H.5z"/><path d="M19.148 38V22.295h1.827v14.072h6.971V38h-8.798zm13.26-11.773V38h-1.784V26.227h1.783zm-.87-4.405c.293 0 .543.097.751.29.215.187.322.48.322.881 0 .394-.107.688-.322.881-.208.193-.458.29-.752.29-.308 0-.566-.097-.773-.29-.2-.193-.301-.487-.301-.88 0-.402.1-.695.3-.882.208-.193.466-.29.774-.29zm12.517 12.955c0 .752-.19 1.386-.57 1.902-.372.508-.91.891-1.611 1.15-.695.257-1.525.386-2.492.386-.824 0-1.536-.065-2.138-.194a6.188 6.188 0 01-1.579-.547V35.83c.48.236 1.053.451 1.719.645.666.193 1.346.29 2.04.29 1.018 0 1.755-.165 2.214-.495.458-.329.687-.777.687-1.342 0-.322-.093-.605-.28-.849-.178-.25-.483-.49-.912-.72-.43-.236-1.024-.494-1.783-.773a20.588 20.588 0 01-1.956-.849c-.544-.286-.966-.633-1.267-1.042-.294-.408-.44-.938-.44-1.59 0-.995.4-1.758 1.203-2.288.809-.537 1.869-.805 3.18-.805.708 0 1.37.071 1.987.215a9.155 9.155 0 011.74.558l-.602 1.429a11.037 11.037 0 00-1.557-.526 6.682 6.682 0 00-1.687-.215c-.823 0-1.457.136-1.901.408-.437.272-.655.644-.655 1.117 0 .365.1.666.3.902.208.237.537.459.989.666.45.208 1.045.452 1.783.73.737.273 1.375.556 1.912.85.537.286.949.637 1.235 1.052.294.408.44.935.44 1.58zm6.92 1.977c.294 0 .595-.025.903-.075a4.13 4.13 0 00.752-.183v1.386c-.208.093-.498.172-.87.236a6.18 6.18 0 01-1.075.097 4.32 4.32 0 01-1.697-.322c-.508-.222-.916-.595-1.224-1.118-.301-.522-.452-1.246-.452-2.17v-6.982h-1.675v-.87l1.686-.698.71-2.557h1.073v2.729h3.449v1.396h-3.449v6.929c0 .737.169 1.289.505 1.654.344.365.799.548 1.365.548zm21.49-14.46L66.827 38H64.99l-5.64-15.705h1.913l3.674 10.345c.15.415.282.813.397 1.192a22.365 22.365 0 01.57 2.116 23.344 23.344 0 01.569-2.127 34.6 34.6 0 01.408-1.214l3.652-10.312h1.934zm6.546 3.74c1.403 0 2.445.314 3.126.945.68.63 1.02 1.636 1.02 3.018V38h-1.3l-.343-1.74h-.086a6.53 6.53 0 01-1.031 1.085A3.834 3.834 0 0179.15 38c-.465.143-1.038.215-1.718.215-.716 0-1.354-.126-1.913-.376a2.977 2.977 0 01-1.31-1.139c-.315-.508-.473-1.153-.473-1.933 0-1.175.466-2.077 1.397-2.707.93-.63 2.349-.974 4.254-1.032l2.03-.086v-.72c0-1.016-.218-1.729-.655-2.137-.437-.408-1.053-.612-1.848-.612-.616 0-1.203.09-1.762.268-.558.18-1.088.39-1.59.634l-.547-1.354a9.817 9.817 0 011.826-.698 7.98 7.98 0 012.17-.29zm2.385 6.165l-1.794.075c-1.469.058-2.503.298-3.105.72-.602.423-.902 1.02-.902 1.794 0 .673.204 1.171.612 1.493.408.322.949.484 1.622.484 1.046 0 1.902-.29 2.568-.87.665-.58.998-1.45.998-2.61v-1.086zM88.874 38h-1.794V21.285h1.794V38zm13.742-11.773V38h-1.461l-.258-1.654h-.096a3.431 3.431 0 01-.946 1.031c-.386.28-.823.487-1.31.623-.48.143-.992.215-1.536.215-.931 0-1.712-.15-2.342-.451a3.035 3.035 0 01-1.429-1.397c-.315-.63-.472-1.44-.472-2.427v-7.713h1.804v7.583c0 .982.222 1.716.666 2.203.444.48 1.121.72 2.03.72.874 0 1.569-.165 2.085-.495.522-.33.898-.813 1.127-1.45.23-.644.344-1.432.344-2.363v-6.198h1.794zm8.554-.215c1.003 0 1.862.222 2.578.666.716.444 1.264 1.067 1.644 1.869.379.795.569 1.726.569 2.793v1.106h-8.132c.022 1.383.365 2.435 1.031 3.159.666.723 1.604 1.085 2.815 1.085.745 0 1.403-.069 1.976-.205a10.908 10.908 0 001.784-.601v1.568a8.697 8.697 0 01-1.773.58c-.58.122-1.267.183-2.062.183-1.132 0-2.12-.23-2.965-.688-.838-.465-1.49-1.145-1.955-2.04-.466-.896-.699-1.992-.699-3.288 0-1.267.212-2.363.634-3.287.43-.93 1.031-1.647 1.805-2.148.78-.502 1.697-.752 2.75-.752zm-.022 1.46c-.952 0-1.711.312-2.277.935-.566.623-.902 1.493-1.01 2.61h6.231c-.007-.701-.118-1.317-.333-1.847-.208-.537-.527-.953-.956-1.246-.43-.301-.981-.451-1.655-.451z" fill="#fff"/><path stroke="#CBCDD6" d="M.5.5h179v57H.5z"/></svg>