<svg width="177" height="59" fill="none" xmlns="http://www.w3.org/2000/svg"><path fill="#252A2E" d="M1.75 1.75h173.5v55.5H1.75z"/><path fill="#019AEB" fill-opacity=".2" d="M1.75 1.75h173.5v55.5H1.75z"/><path d="M21.16 38.5V22.795h1.825v14.05h6.93V38.5h-8.756zm13.193 0H32.57V26.727h1.783V38.5zM32.42 23.536c0-.408.1-.705.3-.892.201-.193.452-.29.753-.29.286 0 .533.097.74.29.209.194.312.491.312.892s-.103.702-.311.902c-.208.194-.455.29-.741.29-.301 0-.552-.096-.752-.29-.2-.2-.301-.5-.301-.902zm13.56 11.752c0 1.096-.409 1.94-1.225 2.535-.817.595-1.962.892-3.438.892-1.56 0-2.778-.247-3.652-.741v-1.655a8.86 8.86 0 001.816.677 7.668 7.668 0 001.88.247c.93 0 1.647-.147 2.148-.44.501-.301.752-.756.752-1.364 0-.459-.2-.85-.602-1.171-.394-.33-1.167-.717-2.32-1.16-1.096-.409-1.876-.763-2.342-1.064-.458-.308-.802-.655-1.031-1.042-.222-.387-.333-.849-.333-1.386 0-.96.39-1.715 1.17-2.266.781-.559 1.852-.838 3.213-.838 1.267 0 2.506.258 3.716.773l-.633 1.45c-1.182-.487-2.253-.73-3.212-.73-.845 0-1.483.132-1.912.397-.43.265-.645.63-.645 1.096 0 .315.079.584.236.806.165.222.426.433.785.634.358.2 1.045.49 2.062.87 1.397.508 2.338 1.02 2.825 1.536.494.515.742 1.163.742 1.944zm6.963 1.955c.316 0 .62-.021.913-.064.294-.05.527-.1.699-.15v1.364c-.194.093-.48.168-.86.225a5.979 5.979 0 01-1.01.097c-2.277 0-3.416-1.2-3.416-3.599v-7.004h-1.686v-.86l1.687-.74.752-2.514h1.03v2.729h3.417v1.385h-3.416v6.929c0 .709.168 1.253.505 1.633.336.38.798.57 1.385.57zm19.428-14.448h1.966L68.676 38.5H66.87l-5.629-15.705h1.934l3.61 10.162c.415 1.167.744 2.302.987 3.405.258-1.16.595-2.316 1.01-3.47l3.588-10.097zM83.73 38.5l-.355-1.676h-.086c-.587.738-1.174 1.24-1.762 1.504-.58.258-1.307.387-2.18.387-1.168 0-2.084-.3-2.75-.903-.66-.601-.989-1.457-.989-2.567 0-2.377 1.902-3.624 5.704-3.738l1.999-.065v-.73c0-.924-.201-1.604-.602-2.041-.394-.444-1.028-.666-1.901-.666-.981 0-2.091.3-3.33.902l-.548-1.364a8.4 8.4 0 011.901-.741 8.318 8.318 0 012.084-.269c1.404 0 2.442.312 3.115.935.68.623 1.02 1.622 1.02 2.997V38.5h-1.32zM79.7 37.243c1.11 0 1.98-.304 2.61-.913.638-.609.957-1.46.957-2.557V32.71l-1.784.075c-1.418.05-2.442.272-3.072.666-.623.387-.934.992-.934 1.816 0 .644.193 1.135.58 1.471.394.337.941.505 1.643.505zM90.768 38.5h-1.784V21.785h1.784V38.5zm5.707-11.773v7.637c0 .96.218 1.676.655 2.149.437.472 1.12.709 2.052.709 1.231 0 2.13-.337 2.696-1.01.573-.673.859-1.773.859-3.298v-6.187h1.784V38.5h-1.472l-.258-1.58h-.097a3.543 3.543 0 01-1.525 1.333c-.645.308-1.382.462-2.213.462-1.432 0-2.507-.34-3.223-1.02-.709-.681-1.063-1.77-1.063-3.266v-7.702h1.805zm17.061 11.988c-1.74 0-3.115-.53-4.125-1.59-1.002-1.06-1.504-2.532-1.504-4.415 0-1.898.466-3.405 1.397-4.523.938-1.117 2.195-1.675 3.77-1.675 1.475 0 2.643.487 3.502 1.46.86.967 1.289 2.246 1.289 3.836v1.127h-8.11c.036 1.383.383 2.432 1.042 3.148.666.716 1.6 1.074 2.804 1.074 1.267 0 2.52-.265 3.759-.795v1.59a9.104 9.104 0 01-1.794.58c-.558.122-1.235.183-2.03.183zm-.483-10.71c-.946 0-1.701.308-2.267.924-.558.616-.888 1.468-.988 2.556h6.155c0-1.124-.251-1.983-.752-2.578-.501-.601-1.217-.902-2.148-.902z" fill="#fff"/><path stroke="#019AEB" stroke-width="2.5" d="M1.75 1.75h173.5v55.5H1.75z"/></svg>