<svg width="1088" height="471" viewBox="0 0 1088 471" fill="none" xmlns="http://www.w3.org/2000/svg">
<rect width="1087" height="471" transform="translate(0.5)" fill="#F1F1F6"/>
<path d="M256 241V165.5H469.869V175.985L481 183.85L469.869 191.189V241H256Z" fill="white" stroke="#CCCCCC"/>
<path d="M275.865 188.5H274.078V179.934H278.988V181.422H275.865V183.631H278.771V185.113H275.865V188.5ZM281.875 185.213C281.875 185.861 281.981 186.352 282.192 186.684C282.407 187.016 282.754 187.182 283.235 187.182C283.711 187.182 284.053 187.018 284.26 186.689C284.471 186.357 284.576 185.865 284.576 185.213C284.576 184.564 284.471 184.078 284.26 183.754C284.049 183.43 283.703 183.268 283.223 183.268C282.746 183.268 282.403 183.43 282.192 183.754C281.981 184.074 281.875 184.561 281.875 185.213ZM286.405 185.213C286.405 186.279 286.123 187.113 285.561 187.715C284.998 188.316 284.215 188.617 283.211 188.617C282.582 188.617 282.028 188.48 281.547 188.207C281.067 187.93 280.698 187.533 280.44 187.018C280.182 186.502 280.053 185.9 280.053 185.213C280.053 184.143 280.332 183.311 280.891 182.717C281.449 182.123 282.235 181.826 283.246 181.826C283.875 181.826 284.43 181.963 284.91 182.236C285.391 182.51 285.76 182.902 286.018 183.414C286.276 183.926 286.405 184.525 286.405 185.213ZM293.856 188.5H292.069V184.674C292.069 184.201 291.985 183.848 291.817 183.613C291.649 183.375 291.381 183.256 291.014 183.256C290.514 183.256 290.153 183.424 289.93 183.76C289.708 184.092 289.596 184.645 289.596 185.418V188.5H287.809V181.949H289.174L289.415 182.787H289.514C289.713 182.471 289.987 182.232 290.335 182.072C290.686 181.908 291.085 181.826 291.53 181.826C292.292 181.826 292.87 182.033 293.264 182.447C293.659 182.857 293.856 183.451 293.856 184.229V188.5ZM298.384 187.193C298.696 187.193 299.071 187.125 299.509 186.988V188.318C299.063 188.518 298.516 188.617 297.868 188.617C297.153 188.617 296.632 188.438 296.304 188.078C295.979 187.715 295.817 187.172 295.817 186.449V183.291H294.962V182.535L295.946 181.938L296.462 180.555H297.604V181.949H299.438V183.291H297.604V186.449C297.604 186.703 297.675 186.891 297.815 187.012C297.96 187.133 298.149 187.193 298.384 187.193ZM300.187 186.016V184.551H303.333V186.016H300.187ZM309.132 186.555C309.132 187.227 308.898 187.738 308.429 188.09C307.964 188.441 307.267 188.617 306.337 188.617C305.861 188.617 305.454 188.584 305.119 188.518C304.783 188.455 304.468 188.361 304.175 188.236V186.76C304.507 186.916 304.88 187.047 305.294 187.152C305.712 187.258 306.079 187.311 306.396 187.311C307.044 187.311 307.369 187.123 307.369 186.748C307.369 186.607 307.326 186.494 307.24 186.408C307.154 186.318 307.005 186.219 306.794 186.109C306.583 185.996 306.302 185.865 305.951 185.717C305.447 185.506 305.076 185.311 304.837 185.131C304.603 184.951 304.431 184.746 304.322 184.516C304.216 184.281 304.163 183.994 304.163 183.654C304.163 183.072 304.388 182.623 304.837 182.307C305.29 181.986 305.931 181.826 306.759 181.826C307.548 181.826 308.316 181.998 309.062 182.342L308.523 183.631C308.195 183.49 307.888 183.375 307.603 183.285C307.318 183.195 307.027 183.15 306.73 183.15C306.202 183.15 305.939 183.293 305.939 183.578C305.939 183.738 306.023 183.877 306.191 183.994C306.363 184.111 306.736 184.285 307.31 184.516C307.822 184.723 308.197 184.916 308.435 185.096C308.673 185.275 308.849 185.482 308.962 185.717C309.076 185.951 309.132 186.23 309.132 186.555ZM310.379 180.256C310.379 179.674 310.703 179.383 311.351 179.383C312 179.383 312.324 179.674 312.324 180.256C312.324 180.533 312.242 180.75 312.078 180.906C311.918 181.059 311.675 181.135 311.351 181.135C310.703 181.135 310.379 180.842 310.379 180.256ZM312.242 188.5H310.455V181.949H312.242V188.5ZM318.609 188.5H313.435V187.445L316.471 183.314H313.617V181.949H318.504V183.109L315.551 187.135H318.609V188.5ZM322.551 183.098C322.172 183.098 321.875 183.219 321.66 183.461C321.445 183.699 321.322 184.039 321.291 184.48H323.799C323.791 184.039 323.676 183.699 323.453 183.461C323.231 183.219 322.93 183.098 322.551 183.098ZM322.803 188.617C321.748 188.617 320.924 188.326 320.33 187.744C319.736 187.162 319.44 186.338 319.44 185.271C319.44 184.174 319.713 183.326 320.26 182.729C320.811 182.127 321.57 181.826 322.539 181.826C323.465 181.826 324.186 182.09 324.701 182.617C325.217 183.145 325.475 183.873 325.475 184.803V185.67H321.25C321.27 186.178 321.42 186.574 321.701 186.859C321.983 187.145 322.377 187.287 322.885 187.287C323.279 187.287 323.653 187.246 324.004 187.164C324.356 187.082 324.723 186.951 325.106 186.771V188.154C324.793 188.311 324.459 188.426 324.104 188.5C323.748 188.578 323.315 188.617 322.803 188.617ZM326.604 187.662C326.604 187.334 326.692 187.086 326.868 186.918C327.043 186.75 327.299 186.666 327.635 186.666C327.959 186.666 328.209 186.752 328.385 186.924C328.565 187.096 328.655 187.342 328.655 187.662C328.655 187.971 328.565 188.215 328.385 188.395C328.206 188.57 327.956 188.658 327.635 188.658C327.307 188.658 327.053 188.572 326.873 188.4C326.694 188.225 326.604 187.979 326.604 187.662ZM326.604 182.822C326.604 182.494 326.692 182.246 326.868 182.078C327.043 181.91 327.299 181.826 327.635 181.826C327.959 181.826 328.209 181.912 328.385 182.084C328.565 182.256 328.655 182.502 328.655 182.822C328.655 183.139 328.563 183.385 328.379 183.561C328.2 183.732 327.952 183.818 327.635 183.818C327.307 183.818 327.053 183.732 326.873 183.561C326.694 183.389 326.604 183.143 326.604 182.822ZM338.53 188.5H332.899V187.662L335.155 185.395C335.843 184.699 336.296 184.203 336.515 183.906C336.733 183.609 336.897 183.32 337.007 183.039C337.116 182.758 337.171 182.455 337.171 182.131C337.171 181.674 337.032 181.312 336.755 181.047C336.478 180.777 336.093 180.643 335.601 180.643C335.245 180.643 334.907 180.701 334.587 180.818C334.271 180.936 333.917 181.148 333.526 181.457L333.011 180.795C333.8 180.139 334.659 179.811 335.589 179.811C336.394 179.811 337.024 180.018 337.481 180.432C337.938 180.842 338.167 181.395 338.167 182.09C338.167 182.633 338.015 183.17 337.71 183.701C337.405 184.232 336.835 184.904 335.999 185.717L334.124 187.551V187.598H338.53V188.5ZM345.325 188.5H339.695V187.662L341.95 185.395C342.638 184.699 343.091 184.203 343.31 183.906C343.529 183.609 343.693 183.32 343.802 183.039C343.911 182.758 343.966 182.455 343.966 182.131C343.966 181.674 343.827 181.312 343.55 181.047C343.273 180.777 342.888 180.643 342.396 180.643C342.04 180.643 341.702 180.701 341.382 180.818C341.066 180.936 340.712 181.148 340.322 181.457L339.806 180.795C340.595 180.139 341.454 179.811 342.384 179.811C343.189 179.811 343.82 180.018 344.277 180.432C344.734 180.842 344.962 181.395 344.962 182.09C344.962 182.633 344.81 183.17 344.505 183.701C344.2 184.232 343.63 184.904 342.794 185.717L340.919 187.551V187.598H345.325V188.5ZM351.078 186.748C351.078 187.346 350.855 187.807 350.41 188.131C349.964 188.455 349.339 188.617 348.535 188.617C347.683 188.617 347.019 188.482 346.543 188.213V187.311C346.851 187.467 347.181 187.59 347.533 187.68C347.888 187.77 348.23 187.814 348.558 187.814C349.066 187.814 349.457 187.734 349.73 187.574C350.003 187.41 350.14 187.162 350.14 186.83C350.14 186.58 350.031 186.367 349.812 186.191C349.597 186.012 349.175 185.801 348.546 185.559C347.949 185.336 347.523 185.143 347.269 184.979C347.019 184.811 346.832 184.621 346.707 184.41C346.585 184.199 346.525 183.947 346.525 183.654C346.525 183.131 346.738 182.719 347.164 182.418C347.589 182.113 348.173 181.961 348.916 181.961C349.607 181.961 350.283 182.102 350.943 182.383L350.597 183.174C349.953 182.908 349.369 182.775 348.845 182.775C348.384 182.775 348.037 182.848 347.802 182.992C347.568 183.137 347.451 183.336 347.451 183.59C347.451 183.762 347.494 183.908 347.58 184.029C347.669 184.15 347.812 184.266 348.007 184.375C348.203 184.484 348.578 184.643 349.132 184.85C349.894 185.127 350.408 185.406 350.673 185.688C350.943 185.969 351.078 186.322 351.078 186.748ZM355.582 188.617C355.164 188.617 354.781 188.541 354.433 188.389C354.09 188.232 353.801 187.994 353.566 187.674H353.496C353.543 188.049 353.566 188.404 353.566 188.74V191.383H352.594V182.078H353.385L353.519 182.957H353.566C353.816 182.605 354.107 182.352 354.439 182.195C354.771 182.039 355.152 181.961 355.582 181.961C356.433 181.961 357.09 182.252 357.551 182.834C358.015 183.416 358.248 184.232 358.248 185.283C358.248 186.338 358.012 187.158 357.539 187.744C357.07 188.326 356.418 188.617 355.582 188.617ZM355.441 182.787C354.785 182.787 354.31 182.969 354.017 183.332C353.724 183.695 353.574 184.273 353.566 185.066V185.283C353.566 186.186 353.717 186.832 354.017 187.223C354.318 187.609 354.801 187.803 355.465 187.803C356.019 187.803 356.453 187.578 356.765 187.129C357.082 186.68 357.24 186.061 357.24 185.271C357.24 184.471 357.082 183.857 356.765 183.432C356.453 183.002 356.012 182.787 355.441 182.787ZM274.078 199.934H276.744C277.959 199.934 278.84 200.107 279.387 200.455C279.938 200.799 280.213 201.348 280.213 202.102C280.213 202.613 280.092 203.033 279.85 203.361C279.611 203.689 279.293 203.887 278.895 203.953V204.012C279.438 204.133 279.828 204.359 280.066 204.691C280.309 205.023 280.43 205.465 280.43 206.016C280.43 206.797 280.146 207.406 279.58 207.844C279.018 208.281 278.252 208.5 277.283 208.5H274.078V199.934ZM275.895 203.326H276.949C277.441 203.326 277.797 203.25 278.016 203.098C278.238 202.945 278.35 202.693 278.35 202.342C278.35 202.014 278.229 201.779 277.986 201.639C277.748 201.494 277.369 201.422 276.85 201.422H275.895V203.326ZM275.895 204.768V207H277.078C277.578 207 277.947 206.904 278.186 206.713C278.424 206.521 278.543 206.229 278.543 205.834C278.543 205.123 278.035 204.768 277.02 204.768H275.895ZM283.352 205.213C283.352 205.861 283.457 206.352 283.668 206.684C283.883 207.016 284.231 207.182 284.711 207.182C285.188 207.182 285.53 207.018 285.737 206.689C285.948 206.357 286.053 205.865 286.053 205.213C286.053 204.564 285.948 204.078 285.737 203.754C285.526 203.43 285.18 203.268 284.699 203.268C284.223 203.268 283.879 203.43 283.668 203.754C283.457 204.074 283.352 204.561 283.352 205.213ZM287.881 205.213C287.881 206.279 287.6 207.113 287.037 207.715C286.475 208.316 285.692 208.617 284.688 208.617C284.059 208.617 283.504 208.48 283.024 208.207C282.543 207.93 282.174 207.533 281.916 207.018C281.658 206.502 281.53 205.9 281.53 205.213C281.53 204.143 281.809 203.311 282.367 202.717C282.926 202.123 283.711 201.826 284.723 201.826C285.352 201.826 285.907 201.963 286.387 202.236C286.867 202.51 287.237 202.902 287.494 203.414C287.752 203.926 287.881 204.525 287.881 205.213ZM292.942 201.826C293.184 201.826 293.385 201.844 293.545 201.879L293.411 203.555C293.266 203.516 293.09 203.496 292.883 203.496C292.313 203.496 291.868 203.643 291.547 203.936C291.231 204.229 291.073 204.639 291.073 205.166V208.5H289.286V201.949H290.639L290.903 203.051H290.991C291.194 202.684 291.467 202.389 291.811 202.166C292.159 201.939 292.536 201.826 292.942 201.826ZM296.737 208.617C295.968 208.617 295.362 208.318 294.921 207.721C294.483 207.123 294.264 206.295 294.264 205.236C294.264 204.162 294.487 203.326 294.932 202.729C295.382 202.127 295.999 201.826 296.784 201.826C297.608 201.826 298.237 202.146 298.671 202.787H298.729C298.639 202.299 298.595 201.863 298.595 201.48V199.383H300.388V208.5H299.016L298.671 207.65H298.595C298.188 208.295 297.569 208.617 296.737 208.617ZM297.364 207.193C297.821 207.193 298.155 207.061 298.366 206.795C298.581 206.529 298.698 206.078 298.718 205.441V205.248C298.718 204.545 298.608 204.041 298.389 203.736C298.175 203.432 297.823 203.279 297.335 203.279C296.936 203.279 296.626 203.449 296.403 203.789C296.184 204.125 296.075 204.615 296.075 205.26C296.075 205.904 296.186 206.389 296.409 206.713C296.632 207.033 296.95 207.193 297.364 207.193ZM304.898 203.098C304.519 203.098 304.222 203.219 304.007 203.461C303.792 203.699 303.669 204.039 303.638 204.48H306.146C306.138 204.039 306.023 203.699 305.8 203.461C305.577 203.219 305.276 203.098 304.898 203.098ZM305.149 208.617C304.095 208.617 303.271 208.326 302.677 207.744C302.083 207.162 301.786 206.338 301.786 205.271C301.786 204.174 302.06 203.326 302.607 202.729C303.157 202.127 303.917 201.826 304.886 201.826C305.812 201.826 306.532 202.09 307.048 202.617C307.564 203.145 307.821 203.873 307.821 204.803V205.67H303.597C303.616 206.178 303.767 206.574 304.048 206.859C304.329 207.145 304.724 207.287 305.232 207.287C305.626 207.287 305.999 207.246 306.351 207.164C306.702 207.082 307.069 206.951 307.452 206.771V208.154C307.14 208.311 306.806 208.426 306.45 208.5C306.095 208.578 305.661 208.617 305.149 208.617ZM312.859 201.826C313.101 201.826 313.302 201.844 313.462 201.879L313.327 203.555C313.183 203.516 313.007 203.496 312.8 203.496C312.23 203.496 311.785 203.643 311.464 203.936C311.148 204.229 310.99 204.639 310.99 205.166V208.5H309.202V201.949H310.556L310.82 203.051H310.908C311.111 202.684 311.384 202.389 311.728 202.166C312.076 201.939 312.452 201.826 312.859 201.826ZM314 206.016V204.551H317.146V206.016H314ZM322.031 201.826C322.273 201.826 322.475 201.844 322.635 201.879L322.5 203.555C322.355 203.516 322.18 203.496 321.973 203.496C321.402 203.496 320.957 203.643 320.637 203.936C320.32 204.229 320.162 204.639 320.162 205.166V208.5H318.375V201.949H319.728L319.992 203.051H320.08C320.283 202.684 320.557 202.389 320.9 202.166C321.248 201.939 321.625 201.826 322.031 201.826ZM327.912 208.5L327.567 207.609H327.52C327.219 207.988 326.908 208.252 326.588 208.4C326.272 208.545 325.858 208.617 325.346 208.617C324.717 208.617 324.221 208.438 323.858 208.078C323.498 207.719 323.319 207.207 323.319 206.543C323.319 205.848 323.561 205.336 324.045 205.008C324.533 204.676 325.268 204.492 326.248 204.457L327.385 204.422V204.135C327.385 203.471 327.045 203.139 326.365 203.139C325.842 203.139 325.227 203.297 324.52 203.613L323.928 202.406C324.682 202.012 325.518 201.814 326.436 201.814C327.315 201.814 327.988 202.006 328.457 202.389C328.926 202.771 329.16 203.354 329.16 204.135V208.5H327.912ZM327.385 205.465L326.694 205.488C326.174 205.504 325.787 205.598 325.533 205.77C325.279 205.941 325.153 206.203 325.153 206.555C325.153 207.059 325.442 207.311 326.02 207.311C326.434 207.311 326.764 207.191 327.01 206.953C327.26 206.715 327.385 206.398 327.385 206.004V205.465ZM333.008 208.617C332.239 208.617 331.633 208.318 331.192 207.721C330.754 207.123 330.536 206.295 330.536 205.236C330.536 204.162 330.758 203.326 331.204 202.729C331.653 202.127 332.27 201.826 333.055 201.826C333.879 201.826 334.508 202.146 334.942 202.787H335C334.911 202.299 334.866 201.863 334.866 201.48V199.383H336.659V208.5H335.288L334.942 207.65H334.866C334.459 208.295 333.84 208.617 333.008 208.617ZM333.635 207.193C334.092 207.193 334.426 207.061 334.637 206.795C334.852 206.529 334.969 206.078 334.989 205.441V205.248C334.989 204.545 334.879 204.041 334.661 203.736C334.446 203.432 334.094 203.279 333.606 203.279C333.207 203.279 332.897 203.449 332.674 203.789C332.456 204.125 332.346 204.615 332.346 205.26C332.346 205.904 332.457 206.389 332.68 206.713C332.903 207.033 333.221 207.193 333.635 207.193ZM338.38 200.256C338.38 199.674 338.704 199.383 339.352 199.383C340.001 199.383 340.325 199.674 340.325 200.256C340.325 200.533 340.243 200.75 340.079 200.906C339.919 201.059 339.676 201.135 339.352 201.135C338.704 201.135 338.38 200.842 338.38 200.256ZM340.243 208.5H338.456V201.949H340.243V208.5ZM346.692 208.5L346.452 207.662H346.358C346.167 207.967 345.896 208.203 345.544 208.371C345.192 208.535 344.792 208.617 344.343 208.617C343.573 208.617 342.993 208.412 342.603 208.002C342.212 207.588 342.017 206.994 342.017 206.221V201.949H343.804V205.775C343.804 206.248 343.888 206.604 344.056 206.842C344.224 207.076 344.491 207.193 344.858 207.193C345.358 207.193 345.72 207.027 345.942 206.695C346.165 206.359 346.276 205.805 346.276 205.031V201.949H348.063V208.5H346.692ZM354.437 206.555C354.437 207.227 354.202 207.738 353.734 208.09C353.269 208.441 352.572 208.617 351.642 208.617C351.165 208.617 350.759 208.584 350.423 208.518C350.087 208.455 349.773 208.361 349.48 208.236V206.76C349.812 206.916 350.185 207.047 350.599 207.152C351.017 207.258 351.384 207.311 351.7 207.311C352.349 207.311 352.673 207.123 352.673 206.748C352.673 206.607 352.63 206.494 352.544 206.408C352.458 206.318 352.31 206.219 352.099 206.109C351.888 205.996 351.607 205.865 351.255 205.717C350.751 205.506 350.38 205.311 350.142 205.131C349.907 204.951 349.736 204.746 349.626 204.516C349.521 204.281 349.468 203.994 349.468 203.654C349.468 203.072 349.693 202.623 350.142 202.307C350.595 201.986 351.236 201.826 352.064 201.826C352.853 201.826 353.62 201.998 354.366 202.342L353.827 203.631C353.499 203.49 353.193 203.375 352.907 203.285C352.622 203.195 352.331 203.15 352.034 203.15C351.507 203.15 351.243 203.293 351.243 203.578C351.243 203.738 351.327 203.877 351.495 203.994C351.667 204.111 352.04 204.285 352.615 204.516C353.126 204.723 353.501 204.916 353.74 205.096C353.978 205.275 354.154 205.482 354.267 205.717C354.38 205.951 354.437 206.23 354.437 206.555ZM355.507 207.662C355.507 207.334 355.595 207.086 355.771 206.918C355.947 206.75 356.203 206.666 356.539 206.666C356.863 206.666 357.113 206.752 357.289 206.924C357.468 207.096 357.558 207.342 357.558 207.662C357.558 207.971 357.468 208.215 357.289 208.395C357.109 208.57 356.859 208.658 356.539 208.658C356.21 208.658 355.957 208.572 355.777 208.4C355.597 208.225 355.507 207.979 355.507 207.662ZM355.507 202.822C355.507 202.494 355.595 202.246 355.771 202.078C355.947 201.91 356.203 201.826 356.539 201.826C356.863 201.826 357.113 201.912 357.289 202.084C357.468 202.256 357.558 202.502 357.558 202.822C357.558 203.139 357.466 203.385 357.283 203.561C357.103 203.732 356.855 203.818 356.539 203.818C356.21 203.818 355.957 203.732 355.777 203.561C355.597 203.389 355.507 203.143 355.507 202.822ZM367.434 208.5H361.803V207.662L364.059 205.395C364.746 204.699 365.199 204.203 365.418 203.906C365.637 203.609 365.801 203.32 365.91 203.039C366.02 202.758 366.074 202.455 366.074 202.131C366.074 201.674 365.936 201.312 365.658 201.047C365.381 200.777 364.996 200.643 364.504 200.643C364.149 200.643 363.811 200.701 363.49 200.818C363.174 200.936 362.82 201.148 362.43 201.457L361.914 200.795C362.703 200.139 363.563 199.811 364.492 199.811C365.297 199.811 365.928 200.018 366.385 200.432C366.842 200.842 367.07 201.395 367.07 202.09C367.07 202.633 366.918 203.17 366.613 203.701C366.309 204.232 365.738 204.904 364.902 205.717L363.027 207.551V207.598H367.434V208.5ZM373.414 207.639H373.362C372.912 208.291 372.241 208.617 371.346 208.617C370.506 208.617 369.852 208.33 369.383 207.756C368.918 207.182 368.686 206.365 368.686 205.307C368.686 204.248 368.92 203.426 369.389 202.84C369.858 202.254 370.51 201.961 371.346 201.961C372.217 201.961 372.885 202.277 373.35 202.91H373.426L373.385 202.447L373.362 201.996V199.383H374.334V208.5H373.543L373.414 207.639ZM371.469 207.803C372.133 207.803 372.614 207.623 372.91 207.264C373.211 206.9 373.362 206.316 373.362 205.512V205.307C373.362 204.396 373.209 203.748 372.905 203.361C372.604 202.971 372.121 202.775 371.457 202.775C370.887 202.775 370.45 202.998 370.145 203.443C369.844 203.885 369.694 204.51 369.694 205.318C369.694 206.139 369.844 206.758 370.145 207.176C370.446 207.594 370.887 207.803 371.469 207.803ZM379.319 208.617C378.901 208.617 378.518 208.541 378.171 208.389C377.827 208.232 377.538 207.994 377.303 207.674H377.233C377.28 208.049 377.303 208.404 377.303 208.74V211.383H376.331V202.078H377.122L377.256 202.957H377.303C377.553 202.605 377.844 202.352 378.176 202.195C378.508 202.039 378.889 201.961 379.319 201.961C380.171 201.961 380.827 202.252 381.288 202.834C381.753 203.416 381.985 204.232 381.985 205.283C381.985 206.338 381.749 207.158 381.276 207.744C380.807 208.326 380.155 208.617 379.319 208.617ZM379.178 202.787C378.522 202.787 378.047 202.969 377.755 203.332C377.462 203.695 377.311 204.273 377.303 205.066V205.283C377.303 206.186 377.454 206.832 377.755 207.223C378.055 207.609 378.538 207.803 379.202 207.803C379.756 207.803 380.19 207.578 380.503 207.129C380.819 206.68 380.977 206.061 380.977 205.271C380.977 204.471 380.819 203.857 380.503 203.432C380.19 203.002 379.749 202.787 379.178 202.787ZM279.135 226.121C279.135 226.895 278.855 227.504 278.297 227.949C277.742 228.395 276.969 228.617 275.977 228.617C275.062 228.617 274.254 228.445 273.551 228.102V226.414C274.129 226.672 274.617 226.854 275.016 226.959C275.418 227.064 275.785 227.117 276.117 227.117C276.516 227.117 276.82 227.041 277.031 226.889C277.246 226.736 277.354 226.51 277.354 226.209C277.354 226.041 277.307 225.893 277.213 225.764C277.119 225.631 276.98 225.504 276.797 225.383C276.617 225.262 276.248 225.068 275.689 224.803C275.166 224.557 274.773 224.32 274.512 224.094C274.25 223.867 274.041 223.604 273.885 223.303C273.729 223.002 273.65 222.65 273.65 222.248C273.65 221.49 273.906 220.895 274.418 220.461C274.934 220.027 275.645 219.811 276.551 219.811C276.996 219.811 277.42 219.863 277.822 219.969C278.229 220.074 278.652 220.223 279.094 220.414L278.508 221.826C278.051 221.639 277.672 221.508 277.371 221.434C277.074 221.359 276.781 221.322 276.492 221.322C276.148 221.322 275.885 221.402 275.701 221.562C275.518 221.723 275.426 221.932 275.426 222.189C275.426 222.35 275.463 222.49 275.537 222.611C275.611 222.729 275.729 222.844 275.889 222.957C276.053 223.066 276.438 223.266 277.043 223.555C277.844 223.938 278.393 224.322 278.689 224.709C278.986 225.092 279.135 225.562 279.135 226.121ZM283.235 227.193C283.547 227.193 283.922 227.125 284.36 226.988V228.318C283.914 228.518 283.367 228.617 282.719 228.617C282.004 228.617 281.483 228.438 281.155 228.078C280.83 227.715 280.668 227.172 280.668 226.449V223.291H279.813V222.535L280.797 221.938L281.313 220.555H282.455V221.949H284.289V223.291H282.455V226.449C282.455 226.703 282.526 226.891 282.666 227.012C282.811 227.133 283 227.193 283.235 227.193ZM287.042 225.213C287.042 225.861 287.147 226.352 287.358 226.684C287.573 227.016 287.92 227.182 288.401 227.182C288.877 227.182 289.219 227.018 289.426 226.689C289.637 226.357 289.743 225.865 289.743 225.213C289.743 224.564 289.637 224.078 289.426 223.754C289.215 223.43 288.87 223.268 288.389 223.268C287.913 223.268 287.569 223.43 287.358 223.754C287.147 224.074 287.042 224.561 287.042 225.213ZM291.571 225.213C291.571 226.279 291.29 227.113 290.727 227.715C290.165 228.316 289.381 228.617 288.377 228.617C287.749 228.617 287.194 228.48 286.713 228.207C286.233 227.93 285.864 227.533 285.606 227.018C285.348 226.502 285.219 225.9 285.219 225.213C285.219 224.143 285.499 223.311 286.057 222.717C286.616 222.123 287.401 221.826 288.413 221.826C289.042 221.826 289.596 221.963 290.077 222.236C290.557 222.51 290.926 222.902 291.184 223.414C291.442 223.926 291.571 224.525 291.571 225.213ZM294.692 224.938L295.472 223.941L297.305 221.949H299.321L296.72 224.791L299.479 228.5H297.417L295.53 225.846L294.763 226.461V228.5H292.975V219.383H294.763V223.449L294.669 224.938H294.692ZM303.058 223.098C302.679 223.098 302.382 223.219 302.167 223.461C301.952 223.699 301.829 224.039 301.798 224.48H304.306C304.298 224.039 304.183 223.699 303.96 223.461C303.737 223.219 303.437 223.098 303.058 223.098ZM303.31 228.617C302.255 228.617 301.431 228.326 300.837 227.744C300.243 227.162 299.946 226.338 299.946 225.271C299.946 224.174 300.22 223.326 300.767 222.729C301.317 222.127 302.077 221.826 303.046 221.826C303.972 221.826 304.692 222.09 305.208 222.617C305.724 223.145 305.982 223.873 305.982 224.803V225.67H301.757C301.776 226.178 301.927 226.574 302.208 226.859C302.489 227.145 302.884 227.287 303.392 227.287C303.786 227.287 304.159 227.246 304.511 227.164C304.862 227.082 305.23 226.951 305.612 226.771V228.154C305.3 228.311 304.966 228.426 304.61 228.5C304.255 228.578 303.821 228.617 303.31 228.617ZM307.111 227.662C307.111 227.334 307.199 227.086 307.374 226.918C307.55 226.75 307.806 226.666 308.142 226.666C308.466 226.666 308.716 226.752 308.892 226.924C309.072 227.096 309.161 227.342 309.161 227.662C309.161 227.971 309.072 228.215 308.892 228.395C308.712 228.57 308.462 228.658 308.142 228.658C307.814 228.658 307.56 228.572 307.38 228.4C307.201 228.225 307.111 227.979 307.111 227.662ZM307.111 222.822C307.111 222.494 307.199 222.246 307.374 222.078C307.55 221.91 307.806 221.826 308.142 221.826C308.466 221.826 308.716 221.912 308.892 222.084C309.072 222.256 309.161 222.502 309.161 222.822C309.161 223.139 309.07 223.385 308.886 223.561C308.706 223.732 308.458 223.818 308.142 223.818C307.814 223.818 307.56 223.732 307.38 223.561C307.201 223.389 307.111 223.143 307.111 222.822ZM319.037 228.5H313.406V227.662L315.662 225.395C316.35 224.699 316.803 224.203 317.021 223.906C317.24 223.609 317.404 223.32 317.514 223.039C317.623 222.758 317.678 222.455 317.678 222.131C317.678 221.674 317.539 221.312 317.262 221.047C316.984 220.777 316.6 220.643 316.107 220.643C315.752 220.643 315.414 220.701 315.094 220.818C314.777 220.936 314.424 221.148 314.033 221.457L313.517 220.795C314.307 220.139 315.166 219.811 316.096 219.811C316.9 219.811 317.531 220.018 317.988 220.432C318.445 220.842 318.674 221.395 318.674 222.09C318.674 222.633 318.521 223.17 318.217 223.701C317.912 224.232 317.342 224.904 316.506 225.717L314.631 227.551V227.598H319.037V228.5ZM320.506 227.879C320.506 227.617 320.565 227.42 320.682 227.287C320.803 227.15 320.975 227.082 321.197 227.082C321.424 227.082 321.6 227.15 321.725 227.287C321.854 227.42 321.918 227.617 321.918 227.879C321.918 228.133 321.854 228.328 321.725 228.465C321.596 228.602 321.42 228.67 321.197 228.67C320.998 228.67 320.832 228.609 320.699 228.488C320.57 228.363 320.506 228.16 320.506 227.879ZM326.006 223.268C326.909 223.268 327.618 223.492 328.133 223.941C328.653 224.387 328.913 224.998 328.913 225.775C328.913 226.662 328.629 227.357 328.063 227.861C327.5 228.365 326.723 228.617 325.731 228.617C324.766 228.617 324.03 228.463 323.522 228.154V227.217C323.795 227.393 324.135 227.531 324.541 227.633C324.948 227.73 325.348 227.779 325.743 227.779C326.43 227.779 326.963 227.617 327.342 227.293C327.725 226.969 327.916 226.5 327.916 225.887C327.916 224.691 327.184 224.094 325.719 224.094C325.348 224.094 324.852 224.15 324.231 224.264L323.727 223.941L324.049 219.934H328.309V220.83H324.881L324.665 223.402C325.114 223.312 325.561 223.268 326.006 223.268ZM334.94 227.639H334.887C334.438 228.291 333.766 228.617 332.872 228.617C332.032 228.617 331.378 228.33 330.909 227.756C330.444 227.182 330.212 226.365 330.212 225.307C330.212 224.248 330.446 223.426 330.915 222.84C331.384 222.254 332.036 221.961 332.872 221.961C333.743 221.961 334.411 222.277 334.876 222.91H334.952L334.911 222.447L334.887 221.996V219.383H335.86V228.5H335.069L334.94 227.639ZM332.995 227.803C333.659 227.803 334.139 227.623 334.436 227.264C334.737 226.9 334.887 226.316 334.887 225.512V225.307C334.887 224.396 334.735 223.748 334.43 223.361C334.13 222.971 333.647 222.775 332.983 222.775C332.413 222.775 331.975 222.998 331.671 223.443C331.37 223.885 331.219 224.51 331.219 225.318C331.219 226.139 331.37 226.758 331.671 227.176C331.971 227.594 332.413 227.803 332.995 227.803ZM340.845 228.617C340.427 228.617 340.044 228.541 339.696 228.389C339.353 228.232 339.063 227.994 338.829 227.674H338.759C338.806 228.049 338.829 228.404 338.829 228.74V231.383H337.856V222.078H338.647L338.782 222.957H338.829C339.079 222.605 339.37 222.352 339.702 222.195C340.034 222.039 340.415 221.961 340.845 221.961C341.696 221.961 342.353 222.252 342.813 222.834C343.278 223.416 343.511 224.232 343.511 225.283C343.511 226.338 343.274 227.158 342.802 227.744C342.333 228.326 341.681 228.617 340.845 228.617ZM340.704 222.787C340.048 222.787 339.573 222.969 339.28 223.332C338.987 223.695 338.837 224.273 338.829 225.066V225.283C338.829 226.186 338.979 226.832 339.28 227.223C339.581 227.609 340.063 227.803 340.728 227.803C341.282 227.803 341.716 227.578 342.028 227.129C342.345 226.68 342.503 226.061 342.503 225.271C342.503 224.471 342.345 223.857 342.028 223.432C341.716 223.002 341.274 222.787 340.704 222.787Z" fill="black"/>
<g filter="url(#filter0_ddd_5682_91448)">
<g clip-path="url(#clip0_5682_91448)">
<rect x="508" y="83.5" width="264" height="300" rx="2" fill="white"/>
<rect x="518" y="93.5" width="232" height="56" fill="white"/>
<path d="M536.159 130.5V114.795H537.985V128.846H544.914V130.5H536.159ZM549.354 130.5H547.57V118.727H549.354V130.5ZM547.42 115.536C547.42 115.128 547.52 114.831 547.721 114.645C547.921 114.451 548.172 114.354 548.473 114.354C548.759 114.354 549.006 114.451 549.214 114.645C549.422 114.838 549.525 115.135 549.525 115.536C549.525 115.937 549.422 116.238 549.214 116.438C549.006 116.632 548.759 116.729 548.473 116.729C548.172 116.729 547.921 116.632 547.721 116.438C547.52 116.238 547.42 115.937 547.42 115.536ZM560.979 127.288C560.979 128.384 560.571 129.229 559.755 129.823C558.938 130.418 557.793 130.715 556.317 130.715C554.756 130.715 553.539 130.468 552.665 129.974V128.319C553.231 128.606 553.836 128.831 554.48 128.996C555.132 129.161 555.759 129.243 556.36 129.243C557.291 129.243 558.007 129.096 558.509 128.803C559.01 128.502 559.261 128.047 559.261 127.438C559.261 126.98 559.06 126.59 558.659 126.268C558.265 125.938 557.492 125.551 556.339 125.107C555.243 124.699 554.463 124.345 553.997 124.044C553.539 123.736 553.195 123.389 552.966 123.002C552.744 122.615 552.633 122.153 552.633 121.616C552.633 120.657 553.023 119.901 553.804 119.35C554.584 118.791 555.655 118.512 557.016 118.512C558.283 118.512 559.522 118.77 560.732 119.285L560.099 120.735C558.917 120.248 557.846 120.005 556.887 120.005C556.042 120.005 555.404 120.137 554.975 120.402C554.545 120.667 554.33 121.033 554.33 121.498C554.33 121.813 554.409 122.082 554.566 122.304C554.731 122.526 554.993 122.737 555.351 122.938C555.709 123.138 556.396 123.428 557.413 123.808C558.81 124.316 559.751 124.828 560.238 125.344C560.732 125.859 560.979 126.507 560.979 127.288ZM567.943 129.243C568.258 129.243 568.563 129.222 568.856 129.179C569.15 129.129 569.383 129.078 569.555 129.028V130.393C569.361 130.486 569.075 130.561 568.695 130.618C568.323 130.683 567.986 130.715 567.686 130.715C565.408 130.715 564.27 129.515 564.27 127.116V120.112H562.583V119.253L564.27 118.512L565.021 115.998H566.053V118.727H569.469V120.112H566.053V127.041C566.053 127.75 566.221 128.294 566.558 128.674C566.894 129.053 567.356 129.243 567.943 129.243ZM587.371 114.795H589.337L583.676 130.5H581.871L576.242 114.795H578.176L581.785 124.957C582.201 126.124 582.53 127.259 582.773 128.362C583.031 127.202 583.368 126.046 583.783 124.893L587.371 114.795ZM598.729 130.5L598.374 128.824H598.288C597.701 129.562 597.114 130.063 596.526 130.328C595.946 130.586 595.219 130.715 594.346 130.715C593.178 130.715 592.262 130.414 591.596 129.812C590.937 129.211 590.607 128.355 590.607 127.245C590.607 124.868 592.509 123.621 596.312 123.507L598.31 123.442V122.712C598.31 121.788 598.109 121.108 597.708 120.671C597.314 120.227 596.68 120.005 595.807 120.005C594.826 120.005 593.715 120.306 592.477 120.907L591.929 119.543C592.509 119.228 593.143 118.981 593.83 118.802C594.525 118.623 595.219 118.533 595.914 118.533C597.318 118.533 598.356 118.845 599.029 119.468C599.71 120.091 600.05 121.09 600.05 122.465V130.5H598.729ZM594.7 129.243C595.81 129.243 596.68 128.939 597.311 128.33C597.948 127.721 598.267 126.869 598.267 125.773V124.71L596.483 124.785C595.065 124.835 594.041 125.057 593.411 125.451C592.788 125.838 592.477 126.443 592.477 127.267C592.477 127.911 592.67 128.402 593.057 128.738C593.451 129.075 593.998 129.243 594.7 129.243ZM605.768 130.5H603.984V113.785H605.768V130.5ZM611.475 118.727V126.364C611.475 127.324 611.693 128.04 612.13 128.513C612.567 128.985 613.251 129.222 614.182 129.222C615.413 129.222 616.312 128.885 616.878 128.212C617.451 127.539 617.737 126.439 617.737 124.914V118.727H619.521V130.5H618.049L617.791 128.921H617.694C617.329 129.501 616.821 129.945 616.169 130.253C615.524 130.561 614.787 130.715 613.956 130.715C612.524 130.715 611.45 130.375 610.733 129.694C610.024 129.014 609.67 127.925 609.67 126.429V118.727H611.475ZM628.536 130.715C626.796 130.715 625.421 130.185 624.411 129.125C623.409 128.065 622.907 126.593 622.907 124.71C622.907 122.812 623.373 121.305 624.304 120.188C625.242 119.07 626.499 118.512 628.074 118.512C629.549 118.512 630.717 118.999 631.576 119.973C632.436 120.939 632.865 122.218 632.865 123.808V124.936H624.755C624.791 126.318 625.138 127.367 625.797 128.083C626.463 128.799 627.397 129.157 628.601 129.157C629.868 129.157 631.121 128.892 632.36 128.362V129.952C631.73 130.224 631.132 130.418 630.566 130.532C630.008 130.654 629.331 130.715 628.536 130.715ZM628.053 120.005C627.107 120.005 626.352 120.313 625.786 120.929C625.228 121.545 624.898 122.397 624.798 123.485H630.953C630.953 122.361 630.702 121.502 630.201 120.907C629.7 120.306 628.984 120.005 628.053 120.005Z" fill="#363545"/>
<rect x="518" y="93.5" width="232" height="56" stroke="#FF00FF" stroke-dasharray="2 2"/>
<rect x="519.25" y="152.75" width="229.5" height="53.5" fill="#DCEDF9"/>
<path d="M536.159 188.5V172.795H537.985V186.846H544.914V188.5H536.159ZM549.354 188.5H547.57V176.727H549.354V188.5ZM547.42 173.536C547.42 173.128 547.52 172.831 547.721 172.645C547.921 172.451 548.172 172.354 548.473 172.354C548.759 172.354 549.006 172.451 549.214 172.645C549.422 172.838 549.525 173.135 549.525 173.536C549.525 173.937 549.422 174.238 549.214 174.438C549.006 174.632 548.759 174.729 548.473 174.729C548.172 174.729 547.921 174.632 547.721 174.438C547.52 174.238 547.42 173.937 547.42 173.536ZM560.979 185.288C560.979 186.384 560.571 187.229 559.755 187.823C558.938 188.418 557.793 188.715 556.317 188.715C554.756 188.715 553.539 188.468 552.665 187.974V186.319C553.231 186.606 553.836 186.831 554.48 186.996C555.132 187.161 555.759 187.243 556.36 187.243C557.291 187.243 558.007 187.096 558.509 186.803C559.01 186.502 559.261 186.047 559.261 185.438C559.261 184.98 559.06 184.59 558.659 184.268C558.265 183.938 557.492 183.551 556.339 183.107C555.243 182.699 554.463 182.345 553.997 182.044C553.539 181.736 553.195 181.389 552.966 181.002C552.744 180.615 552.633 180.153 552.633 179.616C552.633 178.657 553.023 177.901 553.804 177.35C554.584 176.791 555.655 176.512 557.016 176.512C558.283 176.512 559.522 176.77 560.732 177.285L560.099 178.735C558.917 178.248 557.846 178.005 556.887 178.005C556.042 178.005 555.404 178.137 554.975 178.402C554.545 178.667 554.33 179.033 554.33 179.498C554.33 179.813 554.409 180.082 554.566 180.304C554.731 180.526 554.993 180.737 555.351 180.938C555.709 181.138 556.396 181.428 557.413 181.808C558.81 182.316 559.751 182.828 560.238 183.344C560.732 183.859 560.979 184.507 560.979 185.288ZM567.943 187.243C568.258 187.243 568.563 187.222 568.856 187.179C569.15 187.129 569.383 187.078 569.555 187.028V188.393C569.361 188.486 569.075 188.561 568.695 188.618C568.323 188.683 567.986 188.715 567.686 188.715C565.408 188.715 564.27 187.515 564.27 185.116V178.112H562.583V177.253L564.27 176.512L565.021 173.998H566.053V176.727H569.469V178.112H566.053V185.041C566.053 185.75 566.221 186.294 566.558 186.674C566.894 187.053 567.356 187.243 567.943 187.243ZM587.371 172.795H589.337L583.676 188.5H581.871L576.242 172.795H578.176L581.785 182.957C582.201 184.124 582.53 185.259 582.773 186.362C583.031 185.202 583.368 184.046 583.783 182.893L587.371 172.795ZM598.729 188.5L598.374 186.824H598.288C597.701 187.562 597.114 188.063 596.526 188.328C595.946 188.586 595.219 188.715 594.346 188.715C593.178 188.715 592.262 188.414 591.596 187.812C590.937 187.211 590.607 186.355 590.607 185.245C590.607 182.868 592.509 181.621 596.312 181.507L598.31 181.442V180.712C598.31 179.788 598.109 179.108 597.708 178.671C597.314 178.227 596.68 178.005 595.807 178.005C594.826 178.005 593.715 178.306 592.477 178.907L591.929 177.543C592.509 177.228 593.143 176.981 593.83 176.802C594.525 176.623 595.219 176.533 595.914 176.533C597.318 176.533 598.356 176.845 599.029 177.468C599.71 178.091 600.05 179.09 600.05 180.465V188.5H598.729ZM594.7 187.243C595.81 187.243 596.68 186.939 597.311 186.33C597.948 185.721 598.267 184.869 598.267 183.773V182.71L596.483 182.785C595.065 182.835 594.041 183.057 593.411 183.451C592.788 183.838 592.477 184.443 592.477 185.267C592.477 185.911 592.67 186.402 593.057 186.738C593.451 187.075 593.998 187.243 594.7 187.243ZM605.768 188.5H603.984V171.785H605.768V188.5ZM611.475 176.727V184.364C611.475 185.324 611.693 186.04 612.13 186.513C612.567 186.985 613.251 187.222 614.182 187.222C615.413 187.222 616.312 186.885 616.878 186.212C617.451 185.539 617.737 184.439 617.737 182.914V176.727H619.521V188.5H618.049L617.791 186.921H617.694C617.329 187.501 616.821 187.945 616.169 188.253C615.524 188.561 614.787 188.715 613.956 188.715C612.524 188.715 611.45 188.375 610.733 187.694C610.024 187.014 609.67 185.925 609.67 184.429V176.727H611.475ZM628.536 188.715C626.796 188.715 625.421 188.185 624.411 187.125C623.409 186.065 622.907 184.593 622.907 182.71C622.907 180.812 623.373 179.305 624.304 178.188C625.242 177.07 626.499 176.512 628.074 176.512C629.549 176.512 630.717 176.999 631.576 177.973C632.436 178.939 632.865 180.218 632.865 181.808V182.936H624.755C624.791 184.318 625.138 185.367 625.797 186.083C626.463 186.799 627.397 187.157 628.601 187.157C629.868 187.157 631.121 186.892 632.36 186.362V187.952C631.73 188.224 631.132 188.418 630.566 188.532C630.008 188.654 629.331 188.715 628.536 188.715ZM628.053 178.005C627.107 178.005 626.352 178.313 625.786 178.929C625.228 179.545 624.898 180.397 624.798 181.485H630.953C630.953 180.361 630.702 179.502 630.201 178.907C629.7 178.306 628.984 178.005 628.053 178.005Z" fill="#353A40"/>
<rect x="519.25" y="152.75" width="229.5" height="53.5" stroke="#217CBB" stroke-width="2.5"/>
<rect width="232" height="56" transform="translate(518 209.5)" fill="white"/>
<path d="M536.159 246.5V230.795H537.985V244.846H544.914V246.5H536.159ZM549.354 246.5H547.57V234.727H549.354V246.5ZM547.42 231.536C547.42 231.128 547.52 230.831 547.721 230.645C547.921 230.451 548.172 230.354 548.473 230.354C548.759 230.354 549.006 230.451 549.214 230.645C549.422 230.838 549.525 231.135 549.525 231.536C549.525 231.937 549.422 232.238 549.214 232.438C549.006 232.632 548.759 232.729 548.473 232.729C548.172 232.729 547.921 232.632 547.721 232.438C547.52 232.238 547.42 231.937 547.42 231.536ZM560.979 243.288C560.979 244.384 560.571 245.229 559.755 245.823C558.938 246.418 557.793 246.715 556.317 246.715C554.756 246.715 553.539 246.468 552.665 245.974V244.319C553.231 244.606 553.836 244.831 554.48 244.996C555.132 245.161 555.759 245.243 556.36 245.243C557.291 245.243 558.007 245.096 558.509 244.803C559.01 244.502 559.261 244.047 559.261 243.438C559.261 242.98 559.06 242.59 558.659 242.268C558.265 241.938 557.492 241.551 556.339 241.107C555.243 240.699 554.463 240.345 553.997 240.044C553.539 239.736 553.195 239.389 552.966 239.002C552.744 238.615 552.633 238.153 552.633 237.616C552.633 236.657 553.023 235.901 553.804 235.35C554.584 234.791 555.655 234.512 557.016 234.512C558.283 234.512 559.522 234.77 560.732 235.285L560.099 236.735C558.917 236.248 557.846 236.005 556.887 236.005C556.042 236.005 555.404 236.137 554.975 236.402C554.545 236.667 554.33 237.033 554.33 237.498C554.33 237.813 554.409 238.082 554.566 238.304C554.731 238.526 554.993 238.737 555.351 238.938C555.709 239.138 556.396 239.428 557.413 239.808C558.81 240.316 559.751 240.828 560.238 241.344C560.732 241.859 560.979 242.507 560.979 243.288ZM567.943 245.243C568.258 245.243 568.563 245.222 568.856 245.179C569.15 245.129 569.383 245.078 569.555 245.028V246.393C569.361 246.486 569.075 246.561 568.695 246.618C568.323 246.683 567.986 246.715 567.686 246.715C565.408 246.715 564.27 245.515 564.27 243.116V236.112H562.583V235.253L564.27 234.512L565.021 231.998H566.053V234.727H569.469V236.112H566.053V243.041C566.053 243.75 566.221 244.294 566.558 244.674C566.894 245.053 567.356 245.243 567.943 245.243ZM587.371 230.795H589.337L583.676 246.5H581.871L576.242 230.795H578.176L581.785 240.957C582.201 242.124 582.53 243.259 582.773 244.362C583.031 243.202 583.368 242.046 583.783 240.893L587.371 230.795ZM598.729 246.5L598.374 244.824H598.288C597.701 245.562 597.114 246.063 596.526 246.328C595.946 246.586 595.219 246.715 594.346 246.715C593.178 246.715 592.262 246.414 591.596 245.812C590.937 245.211 590.607 244.355 590.607 243.245C590.607 240.868 592.509 239.621 596.312 239.507L598.31 239.442V238.712C598.31 237.788 598.109 237.108 597.708 236.671C597.314 236.227 596.68 236.005 595.807 236.005C594.826 236.005 593.715 236.306 592.477 236.907L591.929 235.543C592.509 235.228 593.143 234.981 593.83 234.802C594.525 234.623 595.219 234.533 595.914 234.533C597.318 234.533 598.356 234.845 599.029 235.468C599.71 236.091 600.05 237.09 600.05 238.465V246.5H598.729ZM594.7 245.243C595.81 245.243 596.68 244.939 597.311 244.33C597.948 243.721 598.267 242.869 598.267 241.773V240.71L596.483 240.785C595.065 240.835 594.041 241.057 593.411 241.451C592.788 241.838 592.477 242.443 592.477 243.267C592.477 243.911 592.67 244.402 593.057 244.738C593.451 245.075 593.998 245.243 594.7 245.243ZM605.768 246.5H603.984V229.785H605.768V246.5ZM611.475 234.727V242.364C611.475 243.324 611.693 244.04 612.13 244.513C612.567 244.985 613.251 245.222 614.182 245.222C615.413 245.222 616.312 244.885 616.878 244.212C617.451 243.539 617.737 242.439 617.737 240.914V234.727H619.521V246.5H618.049L617.791 244.921H617.694C617.329 245.501 616.821 245.945 616.169 246.253C615.524 246.561 614.787 246.715 613.956 246.715C612.524 246.715 611.45 246.375 610.733 245.694C610.024 245.014 609.67 243.925 609.67 242.429V234.727H611.475ZM628.536 246.715C626.796 246.715 625.421 246.185 624.411 245.125C623.409 244.065 622.907 242.593 622.907 240.71C622.907 238.812 623.373 237.305 624.304 236.188C625.242 235.07 626.499 234.512 628.074 234.512C629.549 234.512 630.717 234.999 631.576 235.973C632.436 236.939 632.865 238.218 632.865 239.808V240.936H624.755C624.791 242.318 625.138 243.367 625.797 244.083C626.463 244.799 627.397 245.157 628.601 245.157C629.868 245.157 631.121 244.892 632.36 244.362V245.952C631.73 246.224 631.132 246.418 630.566 246.532C630.008 246.654 629.331 246.715 628.536 246.715ZM628.053 236.005C627.107 236.005 626.352 236.313 625.786 236.929C625.228 237.545 624.898 238.397 624.798 239.485H630.953C630.953 238.361 630.702 237.502 630.201 236.907C629.7 236.306 628.984 236.005 628.053 236.005Z" fill="#363545"/>
<g opacity="0.3">
<rect width="232" height="56" transform="translate(518 267.5)" fill="white"/>
<path d="M536.159 304.5V288.795H537.985V302.846H544.914V304.5H536.159ZM549.354 304.5H547.57V292.727H549.354V304.5ZM547.42 289.536C547.42 289.128 547.52 288.831 547.721 288.645C547.921 288.451 548.172 288.354 548.473 288.354C548.759 288.354 549.006 288.451 549.214 288.645C549.422 288.838 549.525 289.135 549.525 289.536C549.525 289.937 549.422 290.238 549.214 290.438C549.006 290.632 548.759 290.729 548.473 290.729C548.172 290.729 547.921 290.632 547.721 290.438C547.52 290.238 547.42 289.937 547.42 289.536ZM560.979 301.288C560.979 302.384 560.571 303.229 559.755 303.823C558.938 304.418 557.793 304.715 556.317 304.715C554.756 304.715 553.539 304.468 552.665 303.974V302.319C553.231 302.606 553.836 302.831 554.48 302.996C555.132 303.161 555.759 303.243 556.36 303.243C557.291 303.243 558.007 303.096 558.509 302.803C559.01 302.502 559.261 302.047 559.261 301.438C559.261 300.98 559.06 300.59 558.659 300.268C558.265 299.938 557.492 299.551 556.339 299.107C555.243 298.699 554.463 298.345 553.997 298.044C553.539 297.736 553.195 297.389 552.966 297.002C552.744 296.615 552.633 296.153 552.633 295.616C552.633 294.657 553.023 293.901 553.804 293.35C554.584 292.791 555.655 292.512 557.016 292.512C558.283 292.512 559.522 292.77 560.732 293.285L560.099 294.735C558.917 294.248 557.846 294.005 556.887 294.005C556.042 294.005 555.404 294.137 554.975 294.402C554.545 294.667 554.33 295.033 554.33 295.498C554.33 295.813 554.409 296.082 554.566 296.304C554.731 296.526 554.993 296.737 555.351 296.938C555.709 297.138 556.396 297.428 557.413 297.808C558.81 298.316 559.751 298.828 560.238 299.344C560.732 299.859 560.979 300.507 560.979 301.288ZM567.943 303.243C568.258 303.243 568.563 303.222 568.856 303.179C569.15 303.129 569.383 303.078 569.555 303.028V304.393C569.361 304.486 569.075 304.561 568.695 304.618C568.323 304.683 567.986 304.715 567.686 304.715C565.408 304.715 564.27 303.515 564.27 301.116V294.112H562.583V293.253L564.27 292.512L565.021 289.998H566.053V292.727H569.469V294.112H566.053V301.041C566.053 301.75 566.221 302.294 566.558 302.674C566.894 303.053 567.356 303.243 567.943 303.243ZM587.371 288.795H589.337L583.676 304.5H581.871L576.242 288.795H578.176L581.785 298.957C582.201 300.124 582.53 301.259 582.773 302.362C583.031 301.202 583.368 300.046 583.783 298.893L587.371 288.795ZM598.729 304.5L598.374 302.824H598.288C597.701 303.562 597.114 304.063 596.526 304.328C595.946 304.586 595.219 304.715 594.346 304.715C593.178 304.715 592.262 304.414 591.596 303.812C590.937 303.211 590.607 302.355 590.607 301.245C590.607 298.868 592.509 297.621 596.312 297.507L598.31 297.442V296.712C598.31 295.788 598.109 295.108 597.708 294.671C597.314 294.227 596.68 294.005 595.807 294.005C594.826 294.005 593.715 294.306 592.477 294.907L591.929 293.543C592.509 293.228 593.143 292.981 593.83 292.802C594.525 292.623 595.219 292.533 595.914 292.533C597.318 292.533 598.356 292.845 599.029 293.468C599.71 294.091 600.05 295.09 600.05 296.465V304.5H598.729ZM594.7 303.243C595.81 303.243 596.68 302.939 597.311 302.33C597.948 301.721 598.267 300.869 598.267 299.773V298.71L596.483 298.785C595.065 298.835 594.041 299.057 593.411 299.451C592.788 299.838 592.477 300.443 592.477 301.267C592.477 301.911 592.67 302.402 593.057 302.738C593.451 303.075 593.998 303.243 594.7 303.243ZM605.768 304.5H603.984V287.785H605.768V304.5ZM611.475 292.727V300.364C611.475 301.324 611.693 302.04 612.13 302.513C612.567 302.985 613.251 303.222 614.182 303.222C615.413 303.222 616.312 302.885 616.878 302.212C617.451 301.539 617.737 300.439 617.737 298.914V292.727H619.521V304.5H618.049L617.791 302.921H617.694C617.329 303.501 616.821 303.945 616.169 304.253C615.524 304.561 614.787 304.715 613.956 304.715C612.524 304.715 611.45 304.375 610.733 303.694C610.024 303.014 609.67 301.925 609.67 300.429V292.727H611.475ZM628.536 304.715C626.796 304.715 625.421 304.185 624.411 303.125C623.409 302.065 622.907 300.593 622.907 298.71C622.907 296.812 623.373 295.305 624.304 294.188C625.242 293.07 626.499 292.512 628.074 292.512C629.549 292.512 630.717 292.999 631.576 293.973C632.436 294.939 632.865 296.218 632.865 297.808V298.936H624.755C624.791 300.318 625.138 301.367 625.797 302.083C626.463 302.799 627.397 303.157 628.601 303.157C629.868 303.157 631.121 302.892 632.36 302.362V303.952C631.73 304.224 631.132 304.418 630.566 304.532C630.008 304.654 629.331 304.715 628.536 304.715ZM628.053 294.005C627.107 294.005 626.352 294.313 625.786 294.929C625.228 295.545 624.898 296.397 624.798 297.485H630.953C630.953 296.361 630.702 295.502 630.201 294.907C629.7 294.306 628.984 294.005 628.053 294.005Z" fill="#363545"/>
</g>
<rect width="232" height="56" transform="translate(518 325.5)" fill="white"/>
<path d="M536.159 362.5V346.795H537.985V360.846H544.914V362.5H536.159ZM549.354 362.5H547.57V350.727H549.354V362.5ZM547.42 347.536C547.42 347.128 547.52 346.831 547.721 346.645C547.921 346.451 548.172 346.354 548.473 346.354C548.759 346.354 549.006 346.451 549.214 346.645C549.422 346.838 549.525 347.135 549.525 347.536C549.525 347.937 549.422 348.238 549.214 348.438C549.006 348.632 548.759 348.729 548.473 348.729C548.172 348.729 547.921 348.632 547.721 348.438C547.52 348.238 547.42 347.937 547.42 347.536ZM560.979 359.288C560.979 360.384 560.571 361.229 559.755 361.823C558.938 362.418 557.793 362.715 556.317 362.715C554.756 362.715 553.539 362.468 552.665 361.974V360.319C553.231 360.606 553.836 360.831 554.48 360.996C555.132 361.161 555.759 361.243 556.36 361.243C557.291 361.243 558.007 361.096 558.509 360.803C559.01 360.502 559.261 360.047 559.261 359.438C559.261 358.98 559.06 358.59 558.659 358.268C558.265 357.938 557.492 357.551 556.339 357.107C555.243 356.699 554.463 356.345 553.997 356.044C553.539 355.736 553.195 355.389 552.966 355.002C552.744 354.615 552.633 354.153 552.633 353.616C552.633 352.657 553.023 351.901 553.804 351.35C554.584 350.791 555.655 350.512 557.016 350.512C558.283 350.512 559.522 350.77 560.732 351.285L560.099 352.735C558.917 352.248 557.846 352.005 556.887 352.005C556.042 352.005 555.404 352.137 554.975 352.402C554.545 352.667 554.33 353.033 554.33 353.498C554.33 353.813 554.409 354.082 554.566 354.304C554.731 354.526 554.993 354.737 555.351 354.938C555.709 355.138 556.396 355.428 557.413 355.808C558.81 356.316 559.751 356.828 560.238 357.344C560.732 357.859 560.979 358.507 560.979 359.288ZM567.943 361.243C568.258 361.243 568.563 361.222 568.856 361.179C569.15 361.129 569.383 361.078 569.555 361.028V362.393C569.361 362.486 569.075 362.561 568.695 362.618C568.323 362.683 567.986 362.715 567.686 362.715C565.408 362.715 564.27 361.515 564.27 359.116V352.112H562.583V351.253L564.27 350.512L565.021 347.998H566.053V350.727H569.469V352.112H566.053V359.041C566.053 359.75 566.221 360.294 566.558 360.674C566.894 361.053 567.356 361.243 567.943 361.243ZM587.371 346.795H589.337L583.676 362.5H581.871L576.242 346.795H578.176L581.785 356.957C582.201 358.124 582.53 359.259 582.773 360.362C583.031 359.202 583.368 358.046 583.783 356.893L587.371 346.795ZM598.729 362.5L598.374 360.824H598.288C597.701 361.562 597.114 362.063 596.526 362.328C595.946 362.586 595.219 362.715 594.346 362.715C593.178 362.715 592.262 362.414 591.596 361.812C590.937 361.211 590.607 360.355 590.607 359.245C590.607 356.868 592.509 355.621 596.312 355.507L598.31 355.442V354.712C598.31 353.788 598.109 353.108 597.708 352.671C597.314 352.227 596.68 352.005 595.807 352.005C594.826 352.005 593.715 352.306 592.477 352.907L591.929 351.543C592.509 351.228 593.143 350.981 593.83 350.802C594.525 350.623 595.219 350.533 595.914 350.533C597.318 350.533 598.356 350.845 599.029 351.468C599.71 352.091 600.05 353.09 600.05 354.465V362.5H598.729ZM594.7 361.243C595.81 361.243 596.68 360.939 597.311 360.33C597.948 359.721 598.267 358.869 598.267 357.773V356.71L596.483 356.785C595.065 356.835 594.041 357.057 593.411 357.451C592.788 357.838 592.477 358.443 592.477 359.267C592.477 359.911 592.67 360.402 593.057 360.738C593.451 361.075 593.998 361.243 594.7 361.243ZM605.768 362.5H603.984V345.785H605.768V362.5ZM611.475 350.727V358.364C611.475 359.324 611.693 360.04 612.13 360.513C612.567 360.985 613.251 361.222 614.182 361.222C615.413 361.222 616.312 360.885 616.878 360.212C617.451 359.539 617.737 358.439 617.737 356.914V350.727H619.521V362.5H618.049L617.791 360.921H617.694C617.329 361.501 616.821 361.945 616.169 362.253C615.524 362.561 614.787 362.715 613.956 362.715C612.524 362.715 611.45 362.375 610.733 361.694C610.024 361.014 609.67 359.925 609.67 358.429V350.727H611.475ZM628.536 362.715C626.796 362.715 625.421 362.185 624.411 361.125C623.409 360.065 622.907 358.593 622.907 356.71C622.907 354.812 623.373 353.305 624.304 352.188C625.242 351.07 626.499 350.512 628.074 350.512C629.549 350.512 630.717 350.999 631.576 351.973C632.436 352.939 632.865 354.218 632.865 355.808V356.936H624.755C624.791 358.318 625.138 359.367 625.797 360.083C626.463 360.799 627.397 361.157 628.601 361.157C629.868 361.157 631.121 360.892 632.36 360.362V361.952C631.73 362.224 631.132 362.418 630.566 362.532C630.008 362.654 629.331 362.715 628.536 362.715ZM628.053 352.005C627.107 352.005 626.352 352.313 625.786 352.929C625.228 353.545 624.898 354.397 624.798 355.485H630.953C630.953 354.361 630.702 353.502 630.201 352.907C629.7 352.306 628.984 352.005 628.053 352.005Z" fill="#363545"/>
<rect width="8" height="280" transform="translate(762 93.5)" fill="white"/>
<rect x="762" y="95.5" width="8" height="64" rx="4" fill="#90939F"/>
</g>
<rect x="507" y="82.5" width="266" height="302" rx="3" stroke="#217CBB" stroke-width="2"/>
</g>
<rect x="508" y="83.5" width="9" height="303" fill="#FF00FF" fill-opacity="0.25"/>
<rect x="752" y="83.5" width="8" height="303" fill="#FF00FF" fill-opacity="0.25"/>
<rect x="772" y="375.5" width="8.00001" height="264" transform="rotate(90 772 375.5)" fill="#FF00FF" fill-opacity="0.25"/>
<rect x="772" y="83.5" width="10" height="260" transform="rotate(90 772 83.5)" fill="#FF00FF" fill-opacity="0.25"/>
<rect x="760" y="83.5" width="12" height="303" fill="#FF00FF" fill-opacity="0.6"/>
<path d="M751.281 67.1719C751.281 66.7298 751.203 66.3379 751.048 65.9961C750.893 65.6497 750.681 65.3604 750.412 65.1279C750.134 64.891 749.809 64.7132 749.435 64.5947C749.066 64.4717 748.662 64.4102 748.225 64.4102C747.783 64.4102 747.375 64.4717 747.001 64.5947C746.632 64.7132 746.315 64.891 746.051 65.1279C745.782 65.3649 745.57 65.6543 745.415 65.9961C745.265 66.3379 745.19 66.7298 745.19 67.1719C745.19 67.418 745.224 67.6527 745.292 67.876C745.361 68.0993 745.456 68.3044 745.579 68.4912C745.698 68.6735 745.841 68.8398 746.01 68.9902C746.183 69.1406 746.375 69.2682 746.584 69.373C746.338 69.487 746.115 69.626 745.914 69.79C745.718 69.9495 745.55 70.1296 745.409 70.3301C745.267 70.5397 745.158 70.7676 745.08 71.0137C745.008 71.2598 744.971 71.5195 744.971 71.793C744.971 72.2578 745.053 72.668 745.217 73.0234C745.386 73.3743 745.618 73.6683 745.914 73.9053C746.206 74.1468 746.55 74.3291 746.947 74.4521C747.348 74.5752 747.781 74.6367 748.245 74.6367C748.701 74.6367 749.125 74.5752 749.517 74.4521C749.913 74.3291 750.26 74.1468 750.556 73.9053C750.848 73.6683 751.078 73.3721 751.246 73.0166C751.415 72.6611 751.499 72.2533 751.499 71.793C751.499 71.4694 751.447 71.1686 751.342 70.8906C751.237 70.6126 751.091 70.3643 750.905 70.1455C750.772 69.9814 750.618 69.8379 750.44 69.7148C750.267 69.5872 750.078 69.4756 749.872 69.3799C750.046 69.2933 750.203 69.193 750.344 69.0791C750.485 68.9652 750.611 68.8421 750.72 68.71C750.898 68.5049 751.035 68.2725 751.13 68.0127C751.23 67.7529 751.281 67.4727 751.281 67.1719ZM749.866 71.7041C749.866 71.9593 749.825 72.1872 749.743 72.3877C749.661 72.5837 749.551 72.7523 749.414 72.8936C749.269 73.0303 749.095 73.1351 748.895 73.208C748.699 73.2809 748.482 73.3174 748.245 73.3174C747.995 73.3174 747.769 73.2832 747.569 73.2148C747.373 73.1419 747.204 73.0394 747.063 72.9072C746.917 72.7705 746.805 72.6019 746.728 72.4014C746.65 72.1963 746.612 71.9661 746.612 71.7109C746.612 71.4603 746.648 71.2347 746.721 71.0342C746.799 70.8291 746.908 70.6514 747.049 70.501C747.19 70.3597 747.359 70.2503 747.555 70.1729C747.756 70.0954 747.981 70.0566 748.232 70.0566C748.473 70.0566 748.694 70.0954 748.895 70.1729C749.095 70.2503 749.269 70.3597 749.414 70.501C749.556 70.6514 749.665 70.8291 749.743 71.0342C749.825 71.2347 749.866 71.458 749.866 71.7041ZM749.654 67.2334C749.654 67.4567 749.619 67.6618 749.551 67.8486C749.483 68.0309 749.387 68.1859 749.264 68.3135C749.141 68.4456 748.993 68.5482 748.82 68.6211C748.647 68.694 748.453 68.7305 748.239 68.7305C748.024 68.7305 747.831 68.694 747.658 68.6211C747.484 68.5482 747.336 68.4456 747.213 68.3135C747.086 68.1859 746.99 68.0309 746.926 67.8486C746.862 67.6618 746.83 67.4567 746.83 67.2334C746.83 67.0055 746.862 66.7982 746.926 66.6113C746.99 66.4245 747.081 66.2673 747.2 66.1396C747.323 66.012 747.468 65.9141 747.637 65.8457C747.81 65.7728 748.004 65.7363 748.218 65.7363C748.437 65.7363 748.633 65.7728 748.806 65.8457C748.979 65.9186 749.13 66.0189 749.257 66.1465C749.38 66.2832 749.476 66.4427 749.544 66.625C749.617 66.8073 749.654 67.0101 749.654 67.2334ZM753.137 70.7471V70.8906C753.137 71.4238 753.205 71.9206 753.342 72.3809C753.479 72.8366 753.672 73.2308 753.923 73.5635C754.174 73.9007 754.479 74.165 754.839 74.3564C755.199 74.5433 755.604 74.6367 756.056 74.6367C756.484 74.6367 756.862 74.5592 757.19 74.4043C757.519 74.2448 757.801 74.0192 758.038 73.7275L758.113 74.5H759.597V64H757.963V67.7939C757.726 67.5296 757.452 67.3268 757.143 67.1855C756.837 67.0397 756.479 66.9668 756.069 66.9668C755.614 66.9668 755.203 67.0602 754.839 67.2471C754.479 67.4294 754.174 67.6868 753.923 68.0195C753.668 68.3522 753.472 68.751 753.335 69.2158C753.203 69.6761 753.137 70.1865 753.137 70.7471ZM754.771 70.8906V70.7471C754.771 70.4144 754.802 70.1022 754.866 69.8105C754.93 69.5143 755.033 69.2546 755.174 69.0312C755.306 68.8079 755.479 68.6325 755.693 68.5049C755.912 68.3773 756.174 68.3135 756.479 68.3135C756.844 68.3135 757.145 68.3955 757.382 68.5596C757.623 68.7191 757.817 68.9355 757.963 69.209V72.3877C757.817 72.6657 757.623 72.8867 757.382 73.0508C757.14 73.2103 756.835 73.29 756.466 73.29C756.165 73.29 755.908 73.2285 755.693 73.1055C755.479 72.9779 755.304 72.8024 755.167 72.5791C755.03 72.3649 754.93 72.112 754.866 71.8203C754.802 71.5286 754.771 71.2188 754.771 70.8906ZM761.637 77.3438H763.271V73.8301C763.358 73.9258 763.451 74.0146 763.551 74.0967C763.652 74.1787 763.756 74.2516 763.866 74.3154C764.053 74.4202 764.256 74.5 764.474 74.5547C764.698 74.6094 764.941 74.6367 765.206 74.6367C765.671 74.6367 766.083 74.541 766.443 74.3496C766.803 74.1582 767.106 73.8939 767.352 73.5566C767.598 73.224 767.783 72.8275 767.906 72.3672C768.034 71.9069 768.097 71.4102 768.097 70.877V70.7334C768.097 70.1774 768.034 69.6693 767.906 69.209C767.778 68.7441 767.594 68.3454 767.352 68.0127C767.106 67.68 766.801 67.4225 766.436 67.2402C766.076 67.0579 765.659 66.9668 765.185 66.9668C764.944 66.9668 764.716 66.9941 764.502 67.0488C764.287 67.099 764.091 67.1719 763.914 67.2676C763.777 67.3405 763.649 67.4271 763.531 67.5273C763.412 67.6276 763.303 67.7393 763.203 67.8623L763.141 67.1035H761.637V77.3438ZM766.464 70.7334V70.877C766.464 71.2051 766.432 71.5173 766.368 71.8135C766.304 72.1051 766.201 72.3649 766.06 72.5928C765.923 72.8161 765.746 72.9938 765.527 73.126C765.313 73.2536 765.053 73.3174 764.748 73.3174C764.561 73.3174 764.39 73.2969 764.235 73.2559C764.08 73.2103 763.941 73.151 763.818 73.0781C763.7 73.0007 763.595 72.9095 763.504 72.8047C763.412 72.6999 763.335 72.5837 763.271 72.4561V69.168C763.344 69.0312 763.428 68.9082 763.524 68.7988C763.624 68.6895 763.741 68.5983 763.873 68.5254C763.987 68.457 764.117 68.4046 764.262 68.3682C764.408 68.3317 764.565 68.3135 764.734 68.3135C765.039 68.3135 765.301 68.3773 765.52 68.5049C765.739 68.6325 765.919 68.8057 766.06 69.0244C766.197 69.2432 766.297 69.5007 766.361 69.7969C766.429 70.0885 766.464 70.4007 766.464 70.7334Z" fill="#E8178A"/>
<path d="M515.281 59.1719C515.281 58.7298 515.203 58.3379 515.048 57.9961C514.893 57.6497 514.681 57.3604 514.412 57.1279C514.134 56.891 513.809 56.7132 513.435 56.5947C513.066 56.4717 512.662 56.4102 512.225 56.4102C511.783 56.4102 511.375 56.4717 511.001 56.5947C510.632 56.7132 510.315 56.891 510.051 57.1279C509.782 57.3649 509.57 57.6543 509.415 57.9961C509.265 58.3379 509.19 58.7298 509.19 59.1719C509.19 59.418 509.224 59.6527 509.292 59.876C509.361 60.0993 509.456 60.3044 509.579 60.4912C509.698 60.6735 509.841 60.8398 510.01 60.9902C510.183 61.1406 510.375 61.2682 510.584 61.373C510.338 61.487 510.115 61.626 509.914 61.79C509.718 61.9495 509.55 62.1296 509.409 62.3301C509.267 62.5397 509.158 62.7676 509.08 63.0137C509.008 63.2598 508.971 63.5195 508.971 63.793C508.971 64.2578 509.053 64.668 509.217 65.0234C509.386 65.3743 509.618 65.6683 509.914 65.9053C510.206 66.1468 510.55 66.3291 510.947 66.4521C511.348 66.5752 511.781 66.6367 512.245 66.6367C512.701 66.6367 513.125 66.5752 513.517 66.4521C513.913 66.3291 514.26 66.1468 514.556 65.9053C514.848 65.6683 515.078 65.3721 515.246 65.0166C515.415 64.6611 515.499 64.2533 515.499 63.793C515.499 63.4694 515.447 63.1686 515.342 62.8906C515.237 62.6126 515.091 62.3643 514.905 62.1455C514.772 61.9814 514.618 61.8379 514.44 61.7148C514.267 61.5872 514.078 61.4756 513.872 61.3799C514.046 61.2933 514.203 61.193 514.344 61.0791C514.485 60.9652 514.611 60.8421 514.72 60.71C514.898 60.5049 515.035 60.2725 515.13 60.0127C515.23 59.7529 515.281 59.4727 515.281 59.1719ZM513.866 63.7041C513.866 63.9593 513.825 64.1872 513.743 64.3877C513.661 64.5837 513.551 64.7523 513.414 64.8936C513.269 65.0303 513.095 65.1351 512.895 65.208C512.699 65.2809 512.482 65.3174 512.245 65.3174C511.995 65.3174 511.769 65.2832 511.569 65.2148C511.373 65.1419 511.204 65.0394 511.063 64.9072C510.917 64.7705 510.805 64.6019 510.728 64.4014C510.65 64.1963 510.612 63.9661 510.612 63.7109C510.612 63.4603 510.648 63.2347 510.721 63.0342C510.799 62.8291 510.908 62.6514 511.049 62.501C511.19 62.3597 511.359 62.2503 511.555 62.1729C511.756 62.0954 511.981 62.0566 512.232 62.0566C512.473 62.0566 512.694 62.0954 512.895 62.1729C513.095 62.2503 513.269 62.3597 513.414 62.501C513.556 62.6514 513.665 62.8291 513.743 63.0342C513.825 63.2347 513.866 63.458 513.866 63.7041ZM513.654 59.2334C513.654 59.4567 513.619 59.6618 513.551 59.8486C513.483 60.0309 513.387 60.1859 513.264 60.3135C513.141 60.4456 512.993 60.5482 512.82 60.6211C512.647 60.694 512.453 60.7305 512.239 60.7305C512.024 60.7305 511.831 60.694 511.658 60.6211C511.484 60.5482 511.336 60.4456 511.213 60.3135C511.086 60.1859 510.99 60.0309 510.926 59.8486C510.862 59.6618 510.83 59.4567 510.83 59.2334C510.83 59.0055 510.862 58.7982 510.926 58.6113C510.99 58.4245 511.081 58.2673 511.2 58.1396C511.323 58.012 511.468 57.9141 511.637 57.8457C511.81 57.7728 512.004 57.7363 512.218 57.7363C512.437 57.7363 512.633 57.7728 512.806 57.8457C512.979 57.9186 513.13 58.0189 513.257 58.1465C513.38 58.2832 513.476 58.4427 513.544 58.625C513.617 58.8073 513.654 59.0101 513.654 59.2334ZM517.137 62.7471V62.8906C517.137 63.4238 517.205 63.9206 517.342 64.3809C517.479 64.8366 517.672 65.2308 517.923 65.5635C518.174 65.9007 518.479 66.165 518.839 66.3564C519.199 66.5433 519.604 66.6367 520.056 66.6367C520.484 66.6367 520.862 66.5592 521.19 66.4043C521.519 66.2448 521.801 66.0192 522.038 65.7275L522.113 66.5H523.597V56H521.963V59.7939C521.726 59.5296 521.452 59.3268 521.143 59.1855C520.837 59.0397 520.479 58.9668 520.069 58.9668C519.614 58.9668 519.203 59.0602 518.839 59.2471C518.479 59.4294 518.174 59.6868 517.923 60.0195C517.668 60.3522 517.472 60.751 517.335 61.2158C517.203 61.6761 517.137 62.1865 517.137 62.7471ZM518.771 62.8906V62.7471C518.771 62.4144 518.802 62.1022 518.866 61.8105C518.93 61.5143 519.033 61.2546 519.174 61.0312C519.306 60.8079 519.479 60.6325 519.693 60.5049C519.912 60.3773 520.174 60.3135 520.479 60.3135C520.844 60.3135 521.145 60.3955 521.382 60.5596C521.623 60.7191 521.817 60.9355 521.963 61.209V64.3877C521.817 64.6657 521.623 64.8867 521.382 65.0508C521.14 65.2103 520.835 65.29 520.466 65.29C520.165 65.29 519.908 65.2285 519.693 65.1055C519.479 64.9779 519.304 64.8024 519.167 64.5791C519.03 64.3649 518.93 64.112 518.866 63.8203C518.802 63.5286 518.771 63.2188 518.771 62.8906ZM525.637 69.3438H527.271V65.8301C527.358 65.9258 527.451 66.0146 527.551 66.0967C527.652 66.1787 527.756 66.2516 527.866 66.3154C528.053 66.4202 528.256 66.5 528.474 66.5547C528.698 66.6094 528.941 66.6367 529.206 66.6367C529.671 66.6367 530.083 66.541 530.443 66.3496C530.803 66.1582 531.106 65.8939 531.352 65.5566C531.598 65.224 531.783 64.8275 531.906 64.3672C532.034 63.9069 532.097 63.4102 532.097 62.877V62.7334C532.097 62.1774 532.034 61.6693 531.906 61.209C531.778 60.7441 531.594 60.3454 531.352 60.0127C531.106 59.68 530.801 59.4225 530.436 59.2402C530.076 59.0579 529.659 58.9668 529.185 58.9668C528.944 58.9668 528.716 58.9941 528.502 59.0488C528.287 59.099 528.091 59.1719 527.914 59.2676C527.777 59.3405 527.649 59.4271 527.531 59.5273C527.412 59.6276 527.303 59.7393 527.203 59.8623L527.141 59.1035H525.637V69.3438ZM530.464 62.7334V62.877C530.464 63.2051 530.432 63.5173 530.368 63.8135C530.304 64.1051 530.201 64.3649 530.06 64.5928C529.923 64.8161 529.746 64.9938 529.527 65.126C529.313 65.2536 529.053 65.3174 528.748 65.3174C528.561 65.3174 528.39 65.2969 528.235 65.2559C528.08 65.2103 527.941 65.151 527.818 65.0781C527.7 65.0007 527.595 64.9095 527.504 64.8047C527.412 64.6999 527.335 64.5837 527.271 64.4561V61.168C527.344 61.0312 527.428 60.9082 527.524 60.7988C527.624 60.6895 527.741 60.5983 527.873 60.5254C527.987 60.457 528.117 60.4046 528.262 60.3682C528.408 60.3317 528.565 60.3135 528.734 60.3135C529.039 60.3135 529.301 60.3773 529.52 60.5049C529.739 60.6325 529.919 60.8057 530.06 61.0244C530.197 61.2432 530.297 61.5007 530.361 61.7969C530.429 62.0885 530.464 62.4007 530.464 62.7334Z" fill="#E8178A"/>
<path d="M476.281 376.172C476.281 375.73 476.203 375.338 476.048 374.996C475.893 374.65 475.681 374.36 475.412 374.128C475.134 373.891 474.809 373.713 474.435 373.595C474.066 373.472 473.662 373.41 473.225 373.41C472.783 373.41 472.375 373.472 472.001 373.595C471.632 373.713 471.315 373.891 471.051 374.128C470.782 374.365 470.57 374.654 470.415 374.996C470.265 375.338 470.19 375.73 470.19 376.172C470.19 376.418 470.224 376.653 470.292 376.876C470.361 377.099 470.456 377.304 470.579 377.491C470.698 377.674 470.841 377.84 471.01 377.99C471.183 378.141 471.375 378.268 471.584 378.373C471.338 378.487 471.115 378.626 470.914 378.79C470.718 378.95 470.55 379.13 470.409 379.33C470.267 379.54 470.158 379.768 470.08 380.014C470.008 380.26 469.971 380.52 469.971 380.793C469.971 381.258 470.053 381.668 470.217 382.023C470.386 382.374 470.618 382.668 470.914 382.905C471.206 383.147 471.55 383.329 471.947 383.452C472.348 383.575 472.781 383.637 473.245 383.637C473.701 383.637 474.125 383.575 474.517 383.452C474.913 383.329 475.26 383.147 475.556 382.905C475.848 382.668 476.078 382.372 476.246 382.017C476.415 381.661 476.499 381.253 476.499 380.793C476.499 380.469 476.447 380.169 476.342 379.891C476.237 379.613 476.091 379.364 475.905 379.146C475.772 378.981 475.618 378.838 475.44 378.715C475.267 378.587 475.078 378.476 474.872 378.38C475.046 378.293 475.203 378.193 475.344 378.079C475.485 377.965 475.611 377.842 475.72 377.71C475.898 377.505 476.035 377.272 476.13 377.013C476.23 376.753 476.281 376.473 476.281 376.172ZM474.866 380.704C474.866 380.959 474.825 381.187 474.743 381.388C474.661 381.584 474.551 381.752 474.414 381.894C474.269 382.03 474.095 382.135 473.895 382.208C473.699 382.281 473.482 382.317 473.245 382.317C472.995 382.317 472.769 382.283 472.569 382.215C472.373 382.142 472.204 382.039 472.063 381.907C471.917 381.771 471.805 381.602 471.728 381.401C471.65 381.196 471.612 380.966 471.612 380.711C471.612 380.46 471.648 380.235 471.721 380.034C471.799 379.829 471.908 379.651 472.049 379.501C472.19 379.36 472.359 379.25 472.555 379.173C472.756 379.095 472.981 379.057 473.232 379.057C473.473 379.057 473.694 379.095 473.895 379.173C474.095 379.25 474.269 379.36 474.414 379.501C474.556 379.651 474.665 379.829 474.743 380.034C474.825 380.235 474.866 380.458 474.866 380.704ZM474.654 376.233C474.654 376.457 474.619 376.662 474.551 376.849C474.483 377.031 474.387 377.186 474.264 377.313C474.141 377.446 473.993 377.548 473.82 377.621C473.647 377.694 473.453 377.73 473.239 377.73C473.024 377.73 472.831 377.694 472.658 377.621C472.484 377.548 472.336 377.446 472.213 377.313C472.086 377.186 471.99 377.031 471.926 376.849C471.862 376.662 471.83 376.457 471.83 376.233C471.83 376.006 471.862 375.798 471.926 375.611C471.99 375.424 472.081 375.267 472.2 375.14C472.323 375.012 472.468 374.914 472.637 374.846C472.81 374.773 473.004 374.736 473.218 374.736C473.437 374.736 473.633 374.773 473.806 374.846C473.979 374.919 474.13 375.019 474.257 375.146C474.38 375.283 474.476 375.443 474.544 375.625C474.617 375.807 474.654 376.01 474.654 376.233ZM478.137 379.747V379.891C478.137 380.424 478.205 380.921 478.342 381.381C478.479 381.837 478.672 382.231 478.923 382.563C479.174 382.901 479.479 383.165 479.839 383.356C480.199 383.543 480.604 383.637 481.056 383.637C481.484 383.637 481.862 383.559 482.19 383.404C482.519 383.245 482.801 383.019 483.038 382.728L483.113 383.5H484.597V373H482.963V376.794C482.726 376.53 482.452 376.327 482.143 376.186C481.837 376.04 481.479 375.967 481.069 375.967C480.614 375.967 480.203 376.06 479.839 376.247C479.479 376.429 479.174 376.687 478.923 377.02C478.668 377.352 478.472 377.751 478.335 378.216C478.203 378.676 478.137 379.187 478.137 379.747ZM479.771 379.891V379.747C479.771 379.414 479.802 379.102 479.866 378.811C479.93 378.514 480.033 378.255 480.174 378.031C480.306 377.808 480.479 377.632 480.693 377.505C480.912 377.377 481.174 377.313 481.479 377.313C481.844 377.313 482.145 377.396 482.382 377.56C482.623 377.719 482.817 377.936 482.963 378.209V381.388C482.817 381.666 482.623 381.887 482.382 382.051C482.14 382.21 481.835 382.29 481.466 382.29C481.165 382.29 480.908 382.229 480.693 382.105C480.479 381.978 480.304 381.802 480.167 381.579C480.03 381.365 479.93 381.112 479.866 380.82C479.802 380.529 479.771 380.219 479.771 379.891ZM486.637 386.344H488.271V382.83C488.358 382.926 488.451 383.015 488.551 383.097C488.652 383.179 488.756 383.252 488.866 383.315C489.053 383.42 489.256 383.5 489.474 383.555C489.698 383.609 489.941 383.637 490.206 383.637C490.671 383.637 491.083 383.541 491.443 383.35C491.803 383.158 492.106 382.894 492.352 382.557C492.598 382.224 492.783 381.827 492.906 381.367C493.034 380.907 493.097 380.41 493.097 379.877V379.733C493.097 379.177 493.034 378.669 492.906 378.209C492.778 377.744 492.594 377.345 492.352 377.013C492.106 376.68 491.801 376.423 491.436 376.24C491.076 376.058 490.659 375.967 490.185 375.967C489.944 375.967 489.716 375.994 489.502 376.049C489.287 376.099 489.091 376.172 488.914 376.268C488.777 376.34 488.649 376.427 488.531 376.527C488.412 376.628 488.303 376.739 488.203 376.862L488.141 376.104H486.637V386.344ZM491.464 379.733V379.877C491.464 380.205 491.432 380.517 491.368 380.813C491.304 381.105 491.201 381.365 491.06 381.593C490.923 381.816 490.746 381.994 490.527 382.126C490.313 382.254 490.053 382.317 489.748 382.317C489.561 382.317 489.39 382.297 489.235 382.256C489.08 382.21 488.941 382.151 488.818 382.078C488.7 382.001 488.595 381.91 488.504 381.805C488.412 381.7 488.335 381.584 488.271 381.456V378.168C488.344 378.031 488.428 377.908 488.524 377.799C488.624 377.689 488.741 377.598 488.873 377.525C488.987 377.457 489.117 377.405 489.262 377.368C489.408 377.332 489.565 377.313 489.734 377.313C490.039 377.313 490.301 377.377 490.52 377.505C490.739 377.632 490.919 377.806 491.06 378.024C491.197 378.243 491.297 378.501 491.361 378.797C491.429 379.089 491.464 379.401 491.464 379.733Z" fill="#E8178A"/>
<path d="M476.281 86.1719C476.281 85.7298 476.203 85.3379 476.048 84.9961C475.893 84.6497 475.681 84.3604 475.412 84.1279C475.134 83.891 474.809 83.7132 474.435 83.5947C474.066 83.4717 473.662 83.4102 473.225 83.4102C472.783 83.4102 472.375 83.4717 472.001 83.5947C471.632 83.7132 471.315 83.891 471.051 84.1279C470.782 84.3649 470.57 84.6543 470.415 84.9961C470.265 85.3379 470.19 85.7298 470.19 86.1719C470.19 86.418 470.224 86.6527 470.292 86.876C470.361 87.0993 470.456 87.3044 470.579 87.4912C470.698 87.6735 470.841 87.8398 471.01 87.9902C471.183 88.1406 471.375 88.2682 471.584 88.373C471.338 88.487 471.115 88.626 470.914 88.79C470.718 88.9495 470.55 89.1296 470.409 89.3301C470.267 89.5397 470.158 89.7676 470.08 90.0137C470.008 90.2598 469.971 90.5195 469.971 90.793C469.971 91.2578 470.053 91.668 470.217 92.0234C470.386 92.3743 470.618 92.6683 470.914 92.9053C471.206 93.1468 471.55 93.3291 471.947 93.4521C472.348 93.5752 472.781 93.6367 473.245 93.6367C473.701 93.6367 474.125 93.5752 474.517 93.4521C474.913 93.3291 475.26 93.1468 475.556 92.9053C475.848 92.6683 476.078 92.3721 476.246 92.0166C476.415 91.6611 476.499 91.2533 476.499 90.793C476.499 90.4694 476.447 90.1686 476.342 89.8906C476.237 89.6126 476.091 89.3643 475.905 89.1455C475.772 88.9814 475.618 88.8379 475.44 88.7148C475.267 88.5872 475.078 88.4756 474.872 88.3799C475.046 88.2933 475.203 88.193 475.344 88.0791C475.485 87.9652 475.611 87.8421 475.72 87.71C475.898 87.5049 476.035 87.2725 476.13 87.0127C476.23 86.7529 476.281 86.4727 476.281 86.1719ZM474.866 90.7041C474.866 90.9593 474.825 91.1872 474.743 91.3877C474.661 91.5837 474.551 91.7523 474.414 91.8936C474.269 92.0303 474.095 92.1351 473.895 92.208C473.699 92.2809 473.482 92.3174 473.245 92.3174C472.995 92.3174 472.769 92.2832 472.569 92.2148C472.373 92.1419 472.204 92.0394 472.063 91.9072C471.917 91.7705 471.805 91.6019 471.728 91.4014C471.65 91.1963 471.612 90.9661 471.612 90.7109C471.612 90.4603 471.648 90.2347 471.721 90.0342C471.799 89.8291 471.908 89.6514 472.049 89.501C472.19 89.3597 472.359 89.2503 472.555 89.1729C472.756 89.0954 472.981 89.0566 473.232 89.0566C473.473 89.0566 473.694 89.0954 473.895 89.1729C474.095 89.2503 474.269 89.3597 474.414 89.501C474.556 89.6514 474.665 89.8291 474.743 90.0342C474.825 90.2347 474.866 90.458 474.866 90.7041ZM474.654 86.2334C474.654 86.4567 474.619 86.6618 474.551 86.8486C474.483 87.0309 474.387 87.1859 474.264 87.3135C474.141 87.4456 473.993 87.5482 473.82 87.6211C473.647 87.694 473.453 87.7305 473.239 87.7305C473.024 87.7305 472.831 87.694 472.658 87.6211C472.484 87.5482 472.336 87.4456 472.213 87.3135C472.086 87.1859 471.99 87.0309 471.926 86.8486C471.862 86.6618 471.83 86.4567 471.83 86.2334C471.83 86.0055 471.862 85.7982 471.926 85.6113C471.99 85.4245 472.081 85.2673 472.2 85.1396C472.323 85.012 472.468 84.9141 472.637 84.8457C472.81 84.7728 473.004 84.7363 473.218 84.7363C473.437 84.7363 473.633 84.7728 473.806 84.8457C473.979 84.9186 474.13 85.0189 474.257 85.1465C474.38 85.2832 474.476 85.4427 474.544 85.625C474.617 85.8073 474.654 86.0101 474.654 86.2334ZM478.137 89.7471V89.8906C478.137 90.4238 478.205 90.9206 478.342 91.3809C478.479 91.8366 478.672 92.2308 478.923 92.5635C479.174 92.9007 479.479 93.165 479.839 93.3564C480.199 93.5433 480.604 93.6367 481.056 93.6367C481.484 93.6367 481.862 93.5592 482.19 93.4043C482.519 93.2448 482.801 93.0192 483.038 92.7275L483.113 93.5H484.597V83H482.963V86.7939C482.726 86.5296 482.452 86.3268 482.143 86.1855C481.837 86.0397 481.479 85.9668 481.069 85.9668C480.614 85.9668 480.203 86.0602 479.839 86.2471C479.479 86.4294 479.174 86.6868 478.923 87.0195C478.668 87.3522 478.472 87.751 478.335 88.2158C478.203 88.6761 478.137 89.1865 478.137 89.7471ZM479.771 89.8906V89.7471C479.771 89.4144 479.802 89.1022 479.866 88.8105C479.93 88.5143 480.033 88.2546 480.174 88.0312C480.306 87.8079 480.479 87.6325 480.693 87.5049C480.912 87.3773 481.174 87.3135 481.479 87.3135C481.844 87.3135 482.145 87.3955 482.382 87.5596C482.623 87.7191 482.817 87.9355 482.963 88.209V91.3877C482.817 91.6657 482.623 91.8867 482.382 92.0508C482.14 92.2103 481.835 92.29 481.466 92.29C481.165 92.29 480.908 92.2285 480.693 92.1055C480.479 91.9779 480.304 91.8024 480.167 91.5791C480.03 91.3649 479.93 91.112 479.866 90.8203C479.802 90.5286 479.771 90.2188 479.771 89.8906ZM486.637 96.3438H488.271V92.8301C488.358 92.9258 488.451 93.0146 488.551 93.0967C488.652 93.1787 488.756 93.2516 488.866 93.3154C489.053 93.4202 489.256 93.5 489.474 93.5547C489.698 93.6094 489.941 93.6367 490.206 93.6367C490.671 93.6367 491.083 93.541 491.443 93.3496C491.803 93.1582 492.106 92.8939 492.352 92.5566C492.598 92.224 492.783 91.8275 492.906 91.3672C493.034 90.9069 493.097 90.4102 493.097 89.877V89.7334C493.097 89.1774 493.034 88.6693 492.906 88.209C492.778 87.7441 492.594 87.3454 492.352 87.0127C492.106 86.68 491.801 86.4225 491.436 86.2402C491.076 86.0579 490.659 85.9668 490.185 85.9668C489.944 85.9668 489.716 85.9941 489.502 86.0488C489.287 86.099 489.091 86.1719 488.914 86.2676C488.777 86.3405 488.649 86.4271 488.531 86.5273C488.412 86.6276 488.303 86.7393 488.203 86.8623L488.141 86.1035H486.637V96.3438ZM491.464 89.7334V89.877C491.464 90.2051 491.432 90.5173 491.368 90.8135C491.304 91.1051 491.201 91.3649 491.06 91.5928C490.923 91.8161 490.746 91.9938 490.527 92.126C490.313 92.2536 490.053 92.3174 489.748 92.3174C489.561 92.3174 489.39 92.2969 489.235 92.2559C489.08 92.2103 488.941 92.151 488.818 92.0781C488.7 92.0007 488.595 91.9095 488.504 91.8047C488.412 91.6999 488.335 91.5837 488.271 91.4561V88.168C488.344 88.0312 488.428 87.9082 488.524 87.7988C488.624 87.6895 488.741 87.5983 488.873 87.5254C488.987 87.457 489.117 87.4046 489.262 87.3682C489.408 87.3317 489.565 87.3135 489.734 87.3135C490.039 87.3135 490.301 87.3773 490.52 87.5049C490.739 87.6325 490.919 87.8057 491.06 88.0244C491.197 88.2432 491.297 88.5007 491.361 88.7969C491.429 89.0885 491.464 89.4007 491.464 89.7334Z" fill="#E8178A"/>
<path d="M756.876 414.5V404.547H756.773L752.679 406.064V407.507L755.229 406.57V414.5H756.876ZM767.058 414.5V413.181H762.424L764.638 410.815C764.93 410.506 765.199 410.205 765.445 409.913C765.696 409.621 765.912 409.332 766.094 409.045C766.272 408.758 766.411 408.468 766.511 408.177C766.616 407.881 766.669 407.575 766.669 407.261C766.669 406.841 766.6 406.459 766.464 406.112C766.327 405.761 766.129 405.461 765.869 405.21C765.605 404.959 765.279 404.763 764.891 404.622C764.508 404.481 764.073 404.41 763.586 404.41C763.066 404.41 762.594 404.494 762.171 404.663C761.751 404.832 761.396 405.06 761.104 405.347C760.808 405.634 760.58 405.971 760.421 406.358C760.261 406.741 760.181 407.149 760.181 407.582H761.822C761.822 407.295 761.858 407.04 761.931 406.816C762.004 406.589 762.114 406.395 762.259 406.235C762.401 406.085 762.578 405.969 762.793 405.887C763.007 405.805 763.26 405.764 763.551 405.764C763.779 405.764 763.984 405.802 764.167 405.88C764.354 405.957 764.513 406.064 764.645 406.201C764.777 406.338 764.878 406.502 764.946 406.693C765.014 406.885 765.049 407.097 765.049 407.329C765.049 407.502 765.023 407.675 764.973 407.849C764.928 408.017 764.85 408.2 764.741 408.396C764.627 408.591 764.479 408.808 764.297 409.045C764.114 409.277 763.889 409.542 763.62 409.838L760.38 413.365V414.5H767.058ZM768.771 410.747V410.891C768.771 411.424 768.839 411.921 768.976 412.381C769.113 412.837 769.306 413.231 769.557 413.563C769.808 413.901 770.113 414.165 770.473 414.356C770.833 414.543 771.239 414.637 771.69 414.637C772.118 414.637 772.496 414.559 772.825 414.404C773.153 414.245 773.435 414.019 773.672 413.728L773.747 414.5H775.231V404H773.597V407.794C773.36 407.53 773.087 407.327 772.777 407.186C772.471 407.04 772.114 406.967 771.703 406.967C771.248 406.967 770.838 407.06 770.473 407.247C770.113 407.429 769.808 407.687 769.557 408.02C769.302 408.352 769.106 408.751 768.969 409.216C768.837 409.676 768.771 410.187 768.771 410.747ZM770.405 410.891V410.747C770.405 410.414 770.437 410.102 770.5 409.811C770.564 409.514 770.667 409.255 770.808 409.031C770.94 408.808 771.113 408.632 771.327 408.505C771.546 408.377 771.808 408.313 772.114 408.313C772.478 408.313 772.779 408.396 773.016 408.56C773.257 408.719 773.451 408.936 773.597 409.209V412.388C773.451 412.666 773.257 412.887 773.016 413.051C772.774 413.21 772.469 413.29 772.1 413.29C771.799 413.29 771.542 413.229 771.327 413.105C771.113 412.978 770.938 412.802 770.801 412.579C770.664 412.365 770.564 412.112 770.5 411.82C770.437 411.529 770.405 411.219 770.405 410.891ZM777.271 417.344H778.905V413.83C778.992 413.926 779.085 414.015 779.186 414.097C779.286 414.179 779.391 414.252 779.5 414.315C779.687 414.42 779.89 414.5 780.108 414.555C780.332 414.609 780.575 414.637 780.84 414.637C781.305 414.637 781.717 414.541 782.077 414.35C782.437 414.158 782.74 413.894 782.986 413.557C783.232 413.224 783.417 412.827 783.54 412.367C783.668 411.907 783.731 411.41 783.731 410.877V410.733C783.731 410.177 783.668 409.669 783.54 409.209C783.412 408.744 783.228 408.345 782.986 408.013C782.74 407.68 782.435 407.423 782.07 407.24C781.71 407.058 781.293 406.967 780.819 406.967C780.578 406.967 780.35 406.994 780.136 407.049C779.922 407.099 779.726 407.172 779.548 407.268C779.411 407.34 779.283 407.427 779.165 407.527C779.047 407.628 778.937 407.739 778.837 407.862L778.775 407.104H777.271V417.344ZM782.098 410.733V410.877C782.098 411.205 782.066 411.517 782.002 411.813C781.938 412.105 781.836 412.365 781.694 412.593C781.558 412.816 781.38 412.994 781.161 413.126C780.947 413.254 780.687 413.317 780.382 413.317C780.195 413.317 780.024 413.297 779.869 413.256C779.714 413.21 779.575 413.151 779.452 413.078C779.334 413.001 779.229 412.91 779.138 412.805C779.047 412.7 778.969 412.584 778.905 412.456V409.168C778.978 409.031 779.062 408.908 779.158 408.799C779.258 408.689 779.375 408.598 779.507 408.525C779.621 408.457 779.751 408.405 779.896 408.368C780.042 408.332 780.2 408.313 780.368 408.313C780.673 408.313 780.936 408.377 781.154 408.505C781.373 408.632 781.553 408.806 781.694 409.024C781.831 409.243 781.931 409.501 781.995 409.797C782.063 410.089 782.098 410.401 782.098 410.733Z" fill="#E8178A"/>
<path d="M780 93.5H789V149.5H780" stroke="#4091D2"/>
<path d="M802.598 116.954C803.426 116.954 804.084 117.187 804.572 117.651C805.064 118.116 805.311 118.753 805.311 119.562C805.311 120.519 805.016 121.255 804.426 121.771C803.836 122.286 802.992 122.544 801.895 122.544C800.941 122.544 800.172 122.39 799.586 122.081V120.517C799.895 120.681 800.254 120.815 800.664 120.921C801.074 121.022 801.463 121.073 801.83 121.073C802.936 121.073 803.488 120.62 803.488 119.714C803.488 118.851 802.916 118.419 801.771 118.419C801.564 118.419 801.336 118.44 801.086 118.483C800.836 118.522 800.633 118.565 800.477 118.612L799.756 118.226L800.078 113.86H804.725V115.396H801.666L801.508 117.077L801.713 117.036C801.951 116.981 802.246 116.954 802.598 116.954ZM806.205 118.788C806.205 117.093 806.563 115.831 807.278 115.003C807.996 114.175 809.071 113.761 810.5 113.761C810.989 113.761 811.371 113.79 811.649 113.849V115.296C811.301 115.218 810.957 115.179 810.617 115.179C809.996 115.179 809.489 115.272 809.094 115.46C808.703 115.647 808.41 115.925 808.215 116.292C808.02 116.659 807.905 117.181 807.869 117.856H807.946C808.332 117.192 808.951 116.86 809.803 116.86C810.569 116.86 811.168 117.101 811.602 117.581C812.035 118.062 812.252 118.726 812.252 119.573C812.252 120.487 811.994 121.212 811.479 121.747C810.963 122.278 810.248 122.544 809.334 122.544C808.701 122.544 808.149 122.397 807.676 122.104C807.207 121.812 806.844 121.384 806.586 120.821C806.332 120.259 806.205 119.581 806.205 118.788ZM809.299 121.097C809.686 121.097 809.983 120.968 810.19 120.71C810.397 120.448 810.5 120.077 810.5 119.597C810.5 119.179 810.403 118.851 810.207 118.612C810.016 118.37 809.725 118.249 809.334 118.249C808.967 118.249 808.653 118.368 808.391 118.606C808.133 118.845 808.004 119.122 808.004 119.438C808.004 119.903 808.125 120.296 808.367 120.616C808.614 120.937 808.924 121.097 809.299 121.097ZM815.579 122.544C814.809 122.544 814.204 122.245 813.762 121.647C813.325 121.05 813.106 120.222 813.106 119.163C813.106 118.089 813.329 117.253 813.774 116.655C814.223 116.054 814.84 115.753 815.626 115.753C816.45 115.753 817.079 116.073 817.512 116.714H817.571C817.481 116.226 817.436 115.79 817.436 115.407V113.31H819.229V122.427H817.858L817.512 121.577H817.436C817.03 122.222 816.411 122.544 815.579 122.544ZM816.206 121.12C816.663 121.12 816.997 120.987 817.208 120.722C817.422 120.456 817.54 120.005 817.559 119.368V119.175C817.559 118.472 817.45 117.968 817.231 117.663C817.016 117.358 816.665 117.206 816.176 117.206C815.778 117.206 815.467 117.376 815.245 117.716C815.026 118.052 814.917 118.542 814.917 119.187C814.917 119.831 815.028 120.315 815.251 120.64C815.473 120.96 815.792 121.12 816.206 121.12ZM824.624 122.544C823.854 122.544 823.251 122.265 822.813 121.706H822.72C822.782 122.253 822.813 122.569 822.813 122.655V125.31H821.026V115.876H822.479L822.731 116.726H822.813C823.231 116.077 823.85 115.753 824.671 115.753C825.444 115.753 826.05 116.052 826.487 116.649C826.925 117.247 827.143 118.077 827.143 119.14C827.143 119.839 827.04 120.446 826.833 120.962C826.63 121.478 826.339 121.87 825.96 122.14C825.581 122.409 825.136 122.544 824.624 122.544ZM824.097 117.183C823.655 117.183 823.333 117.319 823.13 117.593C822.927 117.862 822.821 118.31 822.813 118.935V119.128C822.813 119.831 822.917 120.335 823.124 120.64C823.335 120.944 823.667 121.097 824.12 121.097C824.921 121.097 825.321 120.437 825.321 119.116C825.321 118.472 825.222 117.989 825.022 117.669C824.827 117.345 824.518 117.183 824.097 117.183Z" fill="#4091D2"/>
<defs>
<filter id="filter0_ddd_5682_91448" x="496" y="72.5" width="288" height="324" filterUnits="userSpaceOnUse" color-interpolation-filters="sRGB">
<feFlood flood-opacity="0" result="BackgroundImageFix"/>
<feColorMatrix in="SourceAlpha" type="matrix" values="0 0 0 0 0 0 0 0 0 0 0 0 0 0 0 0 0 0 127 0" result="hardAlpha"/>
<feOffset dy="2"/>
<feGaussianBlur stdDeviation="2"/>
<feColorMatrix type="matrix" values="0 0 0 0 0 0 0 0 0 0 0 0 0 0 0 0 0 0 0.2 0"/>
<feBlend mode="normal" in2="BackgroundImageFix" result="effect1_dropShadow_5682_91448"/>
<feColorMatrix in="SourceAlpha" type="matrix" values="0 0 0 0 0 0 0 0 0 0 0 0 0 0 0 0 0 0 127 0" result="hardAlpha"/>
<feOffset dy="1"/>
<feGaussianBlur stdDeviation="5"/>
<feColorMatrix type="matrix" values="0 0 0 0 0 0 0 0 0 0 0 0 0 0 0 0 0 0 0.12 0"/>
<feBlend mode="normal" in2="effect1_dropShadow_5682_91448" result="effect2_dropShadow_5682_91448"/>
<feColorMatrix in="SourceAlpha" type="matrix" values="0 0 0 0 0 0 0 0 0 0 0 0 0 0 0 0 0 0 127 0" result="hardAlpha"/>
<feOffset dy="4"/>
<feGaussianBlur stdDeviation="2.5"/>
<feColorMatrix type="matrix" values="0 0 0 0 0 0 0 0 0 0 0 0 0 0 0 0 0 0 0.14 0"/>
<feBlend mode="normal" in2="effect2_dropShadow_5682_91448" result="effect3_dropShadow_5682_91448"/>
<feBlend mode="normal" in="SourceGraphic" in2="effect3_dropShadow_5682_91448" result="shape"/>
</filter>
<clipPath id="clip0_5682_91448">
<rect x="508" y="83.5" width="264" height="300" rx="2" fill="white"/>
</clipPath>
</defs>
</svg>
