<svg width="1088" height="471" fill="none" xmlns="http://www.w3.org/2000/svg"><path fill="#F1F1F6" d="M.5 0h1087v471H.5z"/><path d="M256 241v-75.5h213.869v10.485L481 183.85l-11.131 7.339V241H256z" fill="#fff" stroke="#CCC"/><path d="M275.865 188.5h-1.787v-8.566h4.91v1.488h-3.123v2.209h2.906v1.482h-2.906v3.387zm6.01-3.287c0 .648.106 1.139.317 1.471.215.332.562.498 1.043.498.476 0 .818-.164 1.025-.493.211-.332.316-.824.316-1.476 0-.649-.105-1.135-.316-1.459-.211-.324-.557-.486-1.037-.486-.477 0-.82.162-1.031.486-.211.32-.317.807-.317 1.459zm4.53 0c0 1.066-.282 1.9-.844 2.502-.563.601-1.346.902-2.35.902-.629 0-1.183-.137-1.664-.41a2.77 2.77 0 01-1.107-1.189c-.258-.516-.387-1.118-.387-1.805 0-1.07.279-1.902.838-2.496.558-.594 1.344-.891 2.355-.891.629 0 1.184.137 1.664.41.481.274.85.666 1.108 1.178.258.512.387 1.111.387 1.799zm7.451 3.287h-1.787v-3.826c0-.473-.084-.826-.252-1.061-.168-.238-.436-.357-.803-.357-.5 0-.861.168-1.084.504-.222.332-.334.885-.334 1.658v3.082h-1.787v-6.551h1.365l.241.838h.099c.199-.316.473-.555.821-.715.351-.164.75-.246 1.195-.246.762 0 1.34.207 1.734.621.395.41.592 1.004.592 1.782v4.271zm4.528-1.307c.312 0 .687-.068 1.125-.205v1.33c-.446.2-.993.299-1.641.299-.715 0-1.236-.179-1.564-.539-.325-.363-.487-.906-.487-1.629v-3.158h-.855v-.756l.984-.597.516-1.383h1.142v1.394h1.834v1.342h-1.834v3.158c0 .254.071.442.211.563.145.121.334.181.569.181zm1.803-1.177v-1.465h3.146v1.465h-3.146zm8.945.539c0 .672-.234 1.183-.703 1.535-.465.351-1.162.527-2.092.527-.476 0-.883-.033-1.218-.099a4.524 4.524 0 01-.944-.282v-1.476c.332.156.705.287 1.119.392.418.106.785.159 1.102.159.648 0 .973-.188.973-.563a.46.46 0 00-.129-.34c-.086-.09-.235-.189-.446-.299a10.423 10.423 0 00-.843-.392c-.504-.211-.875-.406-1.114-.586a1.698 1.698 0 01-.515-.615c-.106-.235-.159-.522-.159-.862 0-.582.225-1.031.674-1.347.453-.321 1.094-.481 1.922-.481.789 0 1.557.172 2.303.516l-.539 1.289a9.865 9.865 0 00-.92-.346 2.882 2.882 0 00-.873-.135c-.528 0-.791.143-.791.428 0 .16.084.299.252.416.172.117.545.291 1.119.522.512.207.887.4 1.125.58.238.179.414.386.527.621.114.234.17.513.17.838zm1.247-6.299c0-.582.324-.873.972-.873.649 0 .973.291.973.873 0 .277-.082.494-.246.65-.16.153-.403.229-.727.229-.648 0-.972-.293-.972-.879zm1.863 8.244h-1.787v-6.551h1.787v6.551zm6.367 0h-5.174v-1.055l3.036-4.131h-2.854v-1.365h4.887v1.16l-2.953 4.026h3.058v1.365zm3.942-5.402c-.379 0-.676.121-.891.363-.215.238-.338.578-.369 1.019h2.508c-.008-.441-.123-.781-.346-1.019-.222-.242-.523-.363-.902-.363zm.252 5.519c-1.055 0-1.879-.291-2.473-.873-.594-.582-.89-1.406-.89-2.473 0-1.097.273-1.945.82-2.542.551-.602 1.31-.903 2.279-.903.926 0 1.647.264 2.162.791.516.528.774 1.256.774 2.186v.867h-4.225c.02.508.17.904.451 1.189.282.286.676.428 1.184.428.394 0 .768-.041 1.119-.123a5.578 5.578 0 001.102-.393v1.383a4.081 4.081 0 01-1.002.346 6.178 6.178 0 01-1.301.117zm3.801-.955c0-.328.088-.576.264-.744.175-.168.431-.252.767-.252.324 0 .574.086.75.258.18.172.27.418.27.738 0 .309-.09.553-.27.733-.179.175-.429.263-.75.263-.328 0-.582-.086-.762-.258-.179-.175-.269-.421-.269-.738zm0-4.84c0-.328.088-.576.264-.744.175-.168.431-.252.767-.252.324 0 .574.086.75.258.18.172.27.418.27.738 0 .317-.092.563-.276.739-.179.171-.427.257-.744.257-.328 0-.582-.086-.762-.257-.179-.172-.269-.418-.269-.739zm11.926 5.678h-5.631v-.838l2.256-2.267c.688-.696 1.141-1.192 1.36-1.489.218-.297.382-.586.492-.867a2.49 2.49 0 00.164-.908c0-.457-.139-.819-.416-1.084-.277-.27-.662-.404-1.154-.404a2.93 2.93 0 00-1.014.175c-.316.118-.67.33-1.061.639l-.515-.662c.789-.656 1.648-.984 2.578-.984.805 0 1.435.207 1.892.621.457.41.686.963.686 1.658 0 .543-.152 1.08-.457 1.611-.305.531-.875 1.203-1.711 2.016l-1.875 1.834v.047h4.406v.902zm6.795 0h-5.63v-.838l2.255-2.267c.688-.696 1.141-1.192 1.36-1.489a3.78 3.78 0 00.492-.867 2.49 2.49 0 00.164-.908c0-.457-.139-.819-.416-1.084-.277-.27-.662-.404-1.154-.404a2.93 2.93 0 00-1.014.175c-.316.118-.67.33-1.06.639l-.516-.662c.789-.656 1.648-.984 2.578-.984.805 0 1.436.207 1.893.621.457.41.685.963.685 1.658 0 .543-.152 1.08-.457 1.611-.305.531-.875 1.203-1.711 2.016l-1.875 1.834v.047h4.406v.902zm5.753-1.752c0 .598-.223 1.059-.668 1.383-.446.324-1.071.486-1.875.486-.852 0-1.516-.135-1.992-.404v-.902c.308.156.638.279.99.369.355.09.697.134 1.025.134.508 0 .899-.08 1.172-.24.273-.164.41-.412.41-.744 0-.25-.109-.463-.328-.639-.215-.179-.637-.39-1.266-.632-.597-.223-1.023-.416-1.277-.58a1.807 1.807 0 01-.562-.569 1.485 1.485 0 01-.182-.756c0-.523.213-.935.639-1.236.425-.305 1.009-.457 1.752-.457a5.13 5.13 0 012.027.422l-.346.791c-.644-.266-1.228-.399-1.752-.399-.461 0-.808.073-1.043.217-.234.145-.351.344-.351.598 0 .172.043.318.129.439.089.121.232.237.427.346.196.109.571.268 1.125.475.762.277 1.276.556 1.541.838.27.281.405.634.405 1.06zm4.504 1.869a2.84 2.84 0 01-1.149-.228 2.2 2.2 0 01-.867-.715h-.07c.047.375.07.73.07 1.066v2.643h-.972v-9.305h.791l.134.879h.047c.25-.352.541-.605.873-.762a2.658 2.658 0 011.143-.234c.851 0 1.508.291 1.969.873.464.582.697 1.398.697 2.449 0 1.055-.236 1.875-.709 2.461-.469.582-1.121.873-1.957.873zm-.141-5.83c-.656 0-1.131.182-1.424.545-.293.363-.443.941-.451 1.734v.217c0 .903.151 1.549.451 1.94.301.386.784.58 1.448.58.554 0 .988-.225 1.3-.674.317-.449.475-1.068.475-1.858 0-.8-.158-1.414-.475-1.839-.312-.43-.753-.645-1.324-.645zm-81.363 17.147h2.666c1.215 0 2.096.173 2.643.521.551.344.826.893.826 1.647 0 .511-.121.931-.363 1.259a1.43 1.43 0 01-.955.592v.059c.543.121.933.347 1.171.679.243.332.364.774.364 1.325 0 .781-.284 1.39-.85 1.828-.562.437-1.328.656-2.297.656h-3.205v-8.566zm1.817 3.392h1.054c.492 0 .848-.076 1.067-.228.222-.153.334-.405.334-.756 0-.328-.121-.563-.364-.703-.238-.145-.617-.217-1.136-.217h-.955v1.904zm0 1.442V207h1.183c.5 0 .869-.096 1.108-.287.238-.192.357-.484.357-.879 0-.711-.508-1.066-1.523-1.066h-1.125zm7.457.445c0 .648.105 1.139.316 1.471.215.332.563.498 1.043.498.477 0 .819-.164 1.026-.493.211-.332.316-.824.316-1.476 0-.649-.105-1.135-.316-1.459-.211-.324-.557-.486-1.038-.486-.476 0-.82.162-1.031.486-.211.32-.316.807-.316 1.459zm4.529 0c0 1.066-.281 1.9-.844 2.502-.562.601-1.345.902-2.349.902-.629 0-1.184-.137-1.664-.41a2.767 2.767 0 01-1.108-1.189c-.258-.516-.386-1.118-.386-1.805 0-1.07.279-1.902.837-2.496.559-.594 1.344-.891 2.356-.891.629 0 1.184.137 1.664.41.48.274.85.666 1.107 1.178.258.512.387 1.111.387 1.799zm5.061-3.387c.242 0 .443.018.603.053l-.134 1.676a2.057 2.057 0 00-.528-.059c-.57 0-1.015.147-1.336.44-.316.293-.474.703-.474 1.23v3.334h-1.787v-6.551h1.353l.264 1.102h.088c.203-.367.476-.662.82-.885a2.03 2.03 0 011.131-.34zm3.795 6.791c-.769 0-1.375-.299-1.816-.896-.438-.598-.657-1.426-.657-2.485 0-1.074.223-1.91.668-2.507.45-.602 1.067-.903 1.852-.903.824 0 1.453.32 1.887.961h.058a7.284 7.284 0 01-.134-1.307v-2.097h1.793v9.117h-1.372l-.345-.85h-.076c-.407.645-1.026.967-1.858.967zm.627-1.424c.457 0 .791-.132 1.002-.398.215-.266.332-.717.352-1.354v-.193c0-.703-.11-1.207-.329-1.512-.214-.304-.566-.457-1.054-.457-.399 0-.709.17-.932.51-.219.336-.328.826-.328 1.471 0 .644.111 1.129.334 1.453.223.32.541.48.955.48zm7.534-4.095c-.379 0-.676.121-.891.363-.215.238-.338.578-.369 1.019h2.508c-.008-.441-.123-.781-.346-1.019-.223-.242-.524-.363-.902-.363zm.251 5.519c-1.054 0-1.878-.291-2.472-.873-.594-.582-.891-1.406-.891-2.473 0-1.097.274-1.945.821-2.542.55-.602 1.31-.903 2.279-.903.926 0 1.646.264 2.162.791.516.528.773 1.256.773 2.186v.867h-4.224c.019.508.17.904.451 1.189.281.286.676.428 1.184.428a4.92 4.92 0 001.119-.123 5.593 5.593 0 001.101-.393v1.383a4.053 4.053 0 01-1.002.346 6.171 6.171 0 01-1.301.117zm7.71-6.791c.242 0 .443.018.603.053l-.135 1.676a2.043 2.043 0 00-.527-.059c-.57 0-1.015.147-1.336.44-.316.293-.474.703-.474 1.23v3.334h-1.788v-6.551h1.354l.264 1.102h.088c.203-.367.476-.662.82-.885.348-.227.724-.34 1.131-.34zm1.141 4.19v-1.465h3.146v1.465H314zm8.031-4.19c.242 0 .444.018.604.053l-.135 1.676a2.048 2.048 0 00-.527-.059c-.571 0-1.016.147-1.336.44-.317.293-.475.703-.475 1.23v3.334h-1.787v-6.551h1.353l.264 1.102h.088c.203-.367.477-.662.82-.885a2.03 2.03 0 011.131-.34zm5.881 6.674l-.345-.891h-.047c-.301.379-.612.643-.932.791-.316.145-.73.217-1.242.217-.629 0-1.125-.179-1.488-.539-.36-.359-.539-.871-.539-1.535 0-.695.242-1.207.726-1.535.488-.332 1.223-.516 2.203-.551l1.137-.035v-.287c0-.664-.34-.996-1.02-.996-.523 0-1.138.158-1.845.474l-.592-1.207c.754-.394 1.59-.592 2.508-.592.879 0 1.552.192 2.021.575.469.382.703.965.703 1.746v4.365h-1.248zm-.527-3.035l-.691.023c-.52.016-.907.11-1.161.282-.254.171-.38.433-.38.785 0 .504.289.756.867.756.414 0 .744-.12.99-.358.25-.238.375-.555.375-.949v-.539zm5.623 3.152c-.769 0-1.375-.299-1.816-.896-.438-.598-.656-1.426-.656-2.485 0-1.074.222-1.91.668-2.507.449-.602 1.066-.903 1.851-.903.824 0 1.453.32 1.887.961H335a7.377 7.377 0 01-.134-1.307v-2.097h1.793v9.117h-1.371l-.346-.85h-.076c-.407.645-1.026.967-1.858.967zm.627-1.424c.457 0 .791-.132 1.002-.398.215-.266.332-.717.352-1.354v-.193c0-.703-.11-1.207-.328-1.512-.215-.304-.567-.457-1.055-.457-.399 0-.709.17-.932.51-.218.336-.328.826-.328 1.471 0 .644.111 1.129.334 1.453.223.32.541.48.955.48zm4.745-6.937c0-.582.324-.873.972-.873.649 0 .973.291.973.873 0 .277-.082.494-.246.65-.16.153-.403.229-.727.229-.648 0-.972-.293-.972-.879zm1.863 8.244h-1.787v-6.551h1.787v6.551zm6.449 0l-.24-.838h-.094a1.896 1.896 0 01-.814.709 2.811 2.811 0 01-1.201.246c-.77 0-1.35-.205-1.74-.615-.391-.414-.586-1.008-.586-1.781v-4.272h1.787v3.826c0 .473.084.829.252 1.067.168.234.435.351.802.351.5 0 .862-.166 1.084-.498.223-.336.334-.89.334-1.664v-3.082h1.787v6.551h-1.371zm7.745-1.945c0 .672-.235 1.183-.703 1.535-.465.351-1.162.527-2.092.527-.477 0-.883-.033-1.219-.099a4.515 4.515 0 01-.943-.282v-1.476c.332.156.705.287 1.119.392.418.106.785.159 1.101.159.649 0 .973-.188.973-.563a.46.46 0 00-.129-.34c-.086-.09-.234-.189-.445-.299a10.307 10.307 0 00-.844-.392c-.504-.211-.875-.406-1.113-.586a1.701 1.701 0 01-.516-.615c-.105-.235-.158-.522-.158-.862 0-.582.225-1.031.674-1.347.453-.321 1.094-.481 1.922-.481a5.44 5.44 0 012.302.516l-.539 1.289a9.76 9.76 0 00-.92-.346 2.882 2.882 0 00-.873-.135c-.527 0-.791.143-.791.428 0 .16.084.299.252.416.172.117.545.291 1.12.522.511.207.886.4 1.125.58.238.179.414.386.527.621.113.234.17.513.17.838zm1.07 1.107c0-.328.088-.576.264-.744.176-.168.432-.252.768-.252.324 0 .574.086.75.258.179.172.269.418.269.738 0 .309-.09.553-.269.733-.18.175-.43.263-.75.263-.329 0-.582-.086-.762-.258-.18-.175-.27-.421-.27-.738zm0-4.84c0-.328.088-.576.264-.744.176-.168.432-.252.768-.252.324 0 .574.086.75.258.179.172.269.418.269.738 0 .317-.092.563-.275.739-.18.171-.428.257-.744.257-.329 0-.582-.086-.762-.257-.18-.172-.27-.418-.27-.739zm11.927 5.678h-5.631v-.838l2.256-2.267c.687-.696 1.14-1.192 1.359-1.489a3.78 3.78 0 00.492-.867 2.47 2.47 0 00.164-.908c0-.457-.138-.819-.416-1.084-.277-.27-.662-.404-1.154-.404-.355 0-.693.058-1.014.175-.316.118-.67.33-1.06.639l-.516-.662c.789-.656 1.649-.984 2.578-.984.805 0 1.436.207 1.893.621.457.41.685.963.685 1.658 0 .543-.152 1.08-.457 1.611-.304.531-.875 1.203-1.711 2.016l-1.875 1.834v.047h4.407v.902zm5.98-.861h-.052c-.45.652-1.121.978-2.016.978-.84 0-1.494-.287-1.963-.861-.465-.574-.697-1.391-.697-2.449 0-1.059.234-1.881.703-2.467.469-.586 1.121-.879 1.957-.879.871 0 1.539.316 2.004.949h.076l-.041-.463-.023-.451v-2.613h.972v9.117h-.791l-.129-.861zm-1.945.164c.664 0 1.145-.18 1.441-.539.301-.364.452-.948.452-1.752v-.205c0-.911-.153-1.559-.457-1.946-.301-.39-.784-.586-1.448-.586-.57 0-1.007.223-1.312.668-.301.442-.451 1.067-.451 1.875 0 .821.15 1.44.451 1.858.301.418.742.627 1.324.627zm7.85.814c-.418 0-.801-.076-1.148-.228a2.197 2.197 0 01-.868-.715h-.07c.047.375.07.73.07 1.066v2.643h-.972v-9.305h.791l.134.879h.047c.25-.352.541-.605.873-.762a2.658 2.658 0 011.143-.234c.852 0 1.508.291 1.969.873.465.582.697 1.398.697 2.449 0 1.055-.236 1.875-.709 2.461-.469.582-1.121.873-1.957.873zm-.141-5.83c-.656 0-1.131.182-1.423.545-.293.363-.444.941-.452 1.734v.217c0 .903.151 1.549.452 1.94.3.386.783.58 1.447.58.554 0 .988-.225 1.301-.674.316-.449.474-1.068.474-1.858 0-.8-.158-1.414-.474-1.839-.313-.43-.754-.645-1.325-.645zm-100.043 23.334c0 .774-.28 1.383-.838 1.828-.555.446-1.328.668-2.32.668-.915 0-1.723-.172-2.426-.515v-1.688c.578.258 1.066.44 1.465.545.402.105.769.158 1.101.158.399 0 .703-.076.914-.228.215-.153.323-.379.323-.68a.735.735 0 00-.141-.445 1.542 1.542 0 00-.416-.381c-.18-.121-.549-.315-1.108-.58-.523-.246-.916-.483-1.177-.709a2.656 2.656 0 01-.627-.791 2.263 2.263 0 01-.235-1.055c0-.758.256-1.353.768-1.787.516-.434 1.227-.65 2.133-.65.445 0 .869.052 1.271.158.407.105.83.254 1.272.445l-.586 1.412a8.51 8.51 0 00-1.137-.392 3.58 3.58 0 00-.879-.112c-.344 0-.607.08-.791.24a.796.796 0 00-.275.627.79.79 0 00.111.422c.074.118.192.233.352.346.164.109.549.309 1.154.598.801.383 1.35.767 1.646 1.154.297.383.446.853.446 1.412zm4.1 1.072c.312 0 .687-.068 1.125-.205v1.33c-.446.2-.993.299-1.641.299-.715 0-1.236-.179-1.564-.539-.325-.363-.487-.906-.487-1.629v-3.158h-.855v-.756l.984-.597.516-1.383h1.142v1.394h1.834v1.342h-1.834v3.158c0 .254.071.442.211.563.145.121.334.181.569.181zm3.807-1.98c0 .648.105 1.139.316 1.471.215.332.562.498 1.043.498.476 0 .818-.164 1.025-.493.211-.332.317-.824.317-1.476 0-.649-.106-1.135-.317-1.459-.211-.324-.556-.486-1.037-.486-.476 0-.82.162-1.031.486-.211.32-.316.807-.316 1.459zm4.529 0c0 1.066-.281 1.9-.844 2.502-.562.601-1.346.902-2.35.902-.628 0-1.183-.137-1.664-.41a2.77 2.77 0 01-1.107-1.189c-.258-.516-.387-1.118-.387-1.805 0-1.07.28-1.902.838-2.496.559-.594 1.344-.891 2.356-.891.629 0 1.183.137 1.664.41.48.274.849.666 1.107 1.178.258.512.387 1.111.387 1.799zm3.121-.275l.78-.997 1.833-1.992h2.016l-2.601 2.842 2.759 3.709h-2.062l-1.887-2.654-.767.615v2.039h-1.788v-9.117h1.788v4.066l-.094 1.489h.023zm8.366-1.84c-.379 0-.676.121-.891.363-.215.238-.338.578-.369 1.019h2.508c-.008-.441-.123-.781-.346-1.019-.223-.242-.523-.363-.902-.363zm.252 5.519c-1.055 0-1.879-.291-2.473-.873-.594-.582-.891-1.406-.891-2.473 0-1.097.274-1.945.821-2.542.55-.602 1.31-.903 2.279-.903.926 0 1.646.264 2.162.791.516.528.774 1.256.774 2.186v.867h-4.225c.019.508.17.904.451 1.189.281.286.676.428 1.184.428a4.92 4.92 0 001.119-.123 5.57 5.57 0 001.101-.393v1.383a4.053 4.053 0 01-1.002.346 6.167 6.167 0 01-1.3.117zm3.801-.955c0-.328.088-.576.263-.744.176-.168.432-.252.768-.252.324 0 .574.086.75.258.18.172.269.418.269.738 0 .309-.089.553-.269.733-.18.175-.43.263-.75.263-.328 0-.582-.086-.762-.258-.179-.175-.269-.421-.269-.738zm0-4.84c0-.328.088-.576.263-.744.176-.168.432-.252.768-.252.324 0 .574.086.75.258.18.172.269.418.269.738 0 .317-.091.563-.275.739-.18.171-.428.257-.744.257-.328 0-.582-.086-.762-.257-.179-.172-.269-.418-.269-.739zm11.926 5.678h-5.631v-.838l2.256-2.267c.688-.696 1.141-1.192 1.359-1.489.219-.297.383-.586.493-.867a2.49 2.49 0 00.164-.908c0-.457-.139-.819-.416-1.084-.278-.27-.662-.404-1.155-.404-.355 0-.693.058-1.013.175-.317.118-.67.33-1.061.639l-.516-.662c.79-.656 1.649-.984 2.579-.984.804 0 1.435.207 1.892.621.457.41.686.963.686 1.658 0 .543-.153 1.08-.457 1.611-.305.531-.875 1.203-1.711 2.016l-1.875 1.834v.047h4.406v.902zm1.469-.621c0-.262.059-.459.176-.592.121-.137.293-.205.515-.205.227 0 .403.068.528.205.129.133.193.33.193.592 0 .254-.064.449-.193.586-.129.137-.305.205-.528.205a.713.713 0 01-.498-.182c-.129-.125-.193-.328-.193-.609zm5.5-4.611c.903 0 1.612.224 2.127.673.52.446.78 1.057.78 1.834 0 .887-.284 1.582-.85 2.086-.563.504-1.34.756-2.332.756-.965 0-1.701-.154-2.209-.463v-.937c.273.176.613.314 1.019.416a5.17 5.17 0 001.202.146c.687 0 1.22-.162 1.599-.486.383-.324.574-.793.574-1.406 0-1.196-.732-1.793-2.197-1.793-.371 0-.867.056-1.488.17l-.504-.323.322-4.007h4.26v.896h-3.428l-.216 2.572c.449-.09.896-.134 1.341-.134zm8.934 4.371h-.053c-.449.652-1.121.978-2.015.978-.84 0-1.494-.287-1.963-.861-.465-.574-.697-1.391-.697-2.449 0-1.059.234-1.881.703-2.467.469-.586 1.121-.879 1.957-.879.871 0 1.539.316 2.004.949h.076l-.041-.463-.024-.451v-2.613h.973v9.117h-.791l-.129-.861zm-1.945.164c.664 0 1.144-.18 1.441-.539.301-.364.451-.948.451-1.752v-.205c0-.911-.152-1.559-.457-1.946-.3-.39-.783-.586-1.447-.586-.57 0-1.008.223-1.312.668-.301.442-.452 1.067-.452 1.875 0 .821.151 1.44.452 1.858.3.418.742.627 1.324.627zm7.85.814a2.84 2.84 0 01-1.149-.228 2.194 2.194 0 01-.867-.715h-.07c.047.375.07.73.07 1.066v2.643h-.973v-9.305h.791l.135.879h.047c.25-.352.541-.605.873-.762a2.658 2.658 0 011.143-.234c.851 0 1.508.291 1.968.873.465.582.698 1.398.698 2.449 0 1.055-.237 1.875-.709 2.461-.469.582-1.121.873-1.957.873zm-.141-5.83c-.656 0-1.131.182-1.424.545-.293.363-.443.941-.451 1.734v.217c0 .903.15 1.549.451 1.94.301.386.783.58 1.448.58.554 0 .988-.225 1.3-.674.317-.449.475-1.068.475-1.858 0-.8-.158-1.414-.475-1.839-.312-.43-.754-.645-1.324-.645z" fill="#000"/><g filter="url(#prefix__filter0_ddd_5682_91448)"><g clip-path="url(#prefix__clip0_5682_91448)"><rect x="508" y="83.5" width="264" height="300" rx="2" fill="#fff"/><path fill="#fff" d="M518 93.5h232v56H518z"/><path d="M536.159 130.5v-15.705h1.826v14.051h6.929v1.654h-8.755zm13.195 0h-1.784v-11.773h1.784V130.5zm-1.934-14.964c0-.408.1-.705.301-.891.2-.194.451-.291.752-.291.286 0 .533.097.741.291.208.193.311.49.311.891s-.103.702-.311.902a1.05 1.05 0 01-.741.291c-.301 0-.552-.097-.752-.291-.201-.2-.301-.501-.301-.902zm13.559 11.752c0 1.096-.408 1.941-1.224 2.535-.817.595-1.962.892-3.438.892-1.561 0-2.778-.247-3.652-.741v-1.655a8.861 8.861 0 001.815.677 7.66 7.66 0 001.88.247c.931 0 1.647-.147 2.149-.44.501-.301.752-.756.752-1.365 0-.458-.201-.848-.602-1.17-.394-.33-1.167-.717-2.32-1.161-1.096-.408-1.876-.762-2.342-1.063-.458-.308-.802-.655-1.031-1.042-.222-.387-.333-.849-.333-1.386 0-.959.39-1.715 1.171-2.266.78-.559 1.851-.838 3.212-.838 1.267 0 2.506.258 3.716.773l-.633 1.45c-1.182-.487-2.253-.73-3.212-.73-.845 0-1.483.132-1.912.397-.43.265-.645.631-.645 1.096 0 .315.079.584.236.806.165.222.427.433.785.634.358.2 1.045.49 2.062.87 1.397.508 2.338 1.02 2.825 1.536.494.515.741 1.163.741 1.944zm6.964 1.955c.315 0 .62-.021.913-.064.294-.05.527-.101.699-.151v1.365c-.194.093-.48.168-.86.225a5.916 5.916 0 01-1.009.097c-2.278 0-3.416-1.2-3.416-3.599v-7.004h-1.687v-.859l1.687-.741.751-2.514h1.032v2.729h3.416v1.385h-3.416v6.929c0 .709.168 1.253.505 1.633.336.379.798.569 1.385.569zm19.428-14.448h1.966l-5.661 15.705h-1.805l-5.629-15.705h1.934l3.609 10.162c.416 1.167.745 2.302.988 3.405.258-1.16.595-2.316 1.01-3.469l3.588-10.098zm11.358 15.705l-.355-1.676h-.086c-.587.738-1.174 1.239-1.762 1.504-.58.258-1.307.387-2.18.387-1.168 0-2.084-.301-2.75-.903-.659-.601-.989-1.457-.989-2.567 0-2.377 1.902-3.624 5.705-3.738l1.998-.065v-.73c0-.924-.201-1.604-.602-2.041-.394-.444-1.028-.666-1.901-.666-.981 0-2.092.301-3.33.902l-.548-1.364a8.409 8.409 0 011.901-.741 8.323 8.323 0 012.084-.269c1.404 0 2.442.312 3.115.935.681.623 1.021 1.622 1.021 2.997v8.035h-1.321zm-4.029-1.257c1.11 0 1.98-.304 2.611-.913.637-.609.956-1.461.956-2.557v-1.063l-1.784.075c-1.418.05-2.442.272-3.072.666-.623.387-.934.992-.934 1.816 0 .644.193 1.135.58 1.471.394.337.941.505 1.643.505zm11.068 1.257h-1.784v-16.715h1.784V130.5zm5.707-11.773v7.637c0 .96.218 1.676.655 2.149.437.472 1.121.709 2.052.709 1.231 0 2.13-.337 2.696-1.01.573-.673.859-1.773.859-3.298v-6.187h1.784V130.5h-1.472l-.258-1.579h-.097a3.545 3.545 0 01-1.525 1.332c-.645.308-1.382.462-2.213.462-1.432 0-2.506-.34-3.223-1.021-.709-.68-1.063-1.769-1.063-3.265v-7.702h1.805zm17.061 11.988c-1.74 0-3.115-.53-4.125-1.59-1.002-1.06-1.504-2.532-1.504-4.415 0-1.898.466-3.405 1.397-4.522.938-1.118 2.195-1.676 3.77-1.676 1.475 0 2.643.487 3.502 1.461.86.966 1.289 2.245 1.289 3.835v1.128h-8.11c.036 1.382.383 2.431 1.042 3.147.666.716 1.6 1.074 2.804 1.074 1.267 0 2.52-.265 3.759-.795v1.59a9.077 9.077 0 01-1.794.58c-.558.122-1.235.183-2.03.183zm-.483-10.71c-.946 0-1.701.308-2.267.924-.558.616-.888 1.468-.988 2.556h6.155c0-1.124-.251-1.983-.752-2.578-.501-.601-1.217-.902-2.148-.902z" fill="#363545"/><path stroke="#F0F" stroke-dasharray="2 2" d="M518 93.5h232v56H518z"/><path fill="#DCEDF9" d="M519.25 152.75h229.5v53.5h-229.5z"/><path d="M536.159 188.5v-15.705h1.826v14.051h6.929v1.654h-8.755zm13.195 0h-1.784v-11.773h1.784V188.5zm-1.934-14.964c0-.408.1-.705.301-.891.2-.194.451-.291.752-.291.286 0 .533.097.741.291.208.193.311.49.311.891s-.103.702-.311.902a1.05 1.05 0 01-.741.291c-.301 0-.552-.097-.752-.291-.201-.2-.301-.501-.301-.902zm13.559 11.752c0 1.096-.408 1.941-1.224 2.535-.817.595-1.962.892-3.438.892-1.561 0-2.778-.247-3.652-.741v-1.655a8.861 8.861 0 001.815.677 7.66 7.66 0 001.88.247c.931 0 1.647-.147 2.149-.44.501-.301.752-.756.752-1.365 0-.458-.201-.848-.602-1.17-.394-.33-1.167-.717-2.32-1.161-1.096-.408-1.876-.762-2.342-1.063-.458-.308-.802-.655-1.031-1.042-.222-.387-.333-.849-.333-1.386 0-.959.39-1.715 1.171-2.266.78-.559 1.851-.838 3.212-.838 1.267 0 2.506.258 3.716.773l-.633 1.45c-1.182-.487-2.253-.73-3.212-.73-.845 0-1.483.132-1.912.397-.43.265-.645.631-.645 1.096 0 .315.079.584.236.806.165.222.427.433.785.634.358.2 1.045.49 2.062.87 1.397.508 2.338 1.02 2.825 1.536.494.515.741 1.163.741 1.944zm6.964 1.955c.315 0 .62-.021.913-.064.294-.05.527-.101.699-.151v1.365c-.194.093-.48.168-.86.225a5.916 5.916 0 01-1.009.097c-2.278 0-3.416-1.2-3.416-3.599v-7.004h-1.687v-.859l1.687-.741.751-2.514h1.032v2.729h3.416v1.385h-3.416v6.929c0 .709.168 1.253.505 1.633.336.379.798.569 1.385.569zm19.428-14.448h1.966l-5.661 15.705h-1.805l-5.629-15.705h1.934l3.609 10.162c.416 1.167.745 2.302.988 3.405.258-1.16.595-2.316 1.01-3.469l3.588-10.098zm11.358 15.705l-.355-1.676h-.086c-.587.738-1.174 1.239-1.762 1.504-.58.258-1.307.387-2.18.387-1.168 0-2.084-.301-2.75-.903-.659-.601-.989-1.457-.989-2.567 0-2.377 1.902-3.624 5.705-3.738l1.998-.065v-.73c0-.924-.201-1.604-.602-2.041-.394-.444-1.028-.666-1.901-.666-.981 0-2.092.301-3.33.902l-.548-1.364a8.409 8.409 0 011.901-.741 8.323 8.323 0 012.084-.269c1.404 0 2.442.312 3.115.935.681.623 1.021 1.622 1.021 2.997v8.035h-1.321zm-4.029-1.257c1.11 0 1.98-.304 2.611-.913.637-.609.956-1.461.956-2.557v-1.063l-1.784.075c-1.418.05-2.442.272-3.072.666-.623.387-.934.992-.934 1.816 0 .644.193 1.135.58 1.471.394.337.941.505 1.643.505zm11.068 1.257h-1.784v-16.715h1.784V188.5zm5.707-11.773v7.637c0 .96.218 1.676.655 2.149.437.472 1.121.709 2.052.709 1.231 0 2.13-.337 2.696-1.01.573-.673.859-1.773.859-3.298v-6.187h1.784V188.5h-1.472l-.258-1.579h-.097a3.545 3.545 0 01-1.525 1.332c-.645.308-1.382.462-2.213.462-1.432 0-2.506-.34-3.223-1.021-.709-.68-1.063-1.769-1.063-3.265v-7.702h1.805zm17.061 11.988c-1.74 0-3.115-.53-4.125-1.59-1.002-1.06-1.504-2.532-1.504-4.415 0-1.898.466-3.405 1.397-4.522.938-1.118 2.195-1.676 3.77-1.676 1.475 0 2.643.487 3.502 1.461.86.966 1.289 2.245 1.289 3.835v1.128h-8.11c.036 1.382.383 2.431 1.042 3.147.666.716 1.6 1.074 2.804 1.074 1.267 0 2.52-.265 3.759-.795v1.59a9.077 9.077 0 01-1.794.58c-.558.122-1.235.183-2.03.183zm-.483-10.71c-.946 0-1.701.308-2.267.924-.558.616-.888 1.468-.988 2.556h6.155c0-1.124-.251-1.983-.752-2.578-.501-.601-1.217-.902-2.148-.902z" fill="#353A40"/><path stroke="#217CBB" stroke-width="2.5" d="M519.25 152.75h229.5v53.5h-229.5z"/><path fill="#fff" d="M518 209.5h232v56H518z"/><path d="M536.159 246.5v-15.705h1.826v14.051h6.929v1.654h-8.755zm13.195 0h-1.784v-11.773h1.784V246.5zm-1.934-14.964c0-.408.1-.705.301-.891.2-.194.451-.291.752-.291.286 0 .533.097.741.291.208.193.311.49.311.891s-.103.702-.311.902a1.05 1.05 0 01-.741.291c-.301 0-.552-.097-.752-.291-.201-.2-.301-.501-.301-.902zm13.559 11.752c0 1.096-.408 1.941-1.224 2.535-.817.595-1.962.892-3.438.892-1.561 0-2.778-.247-3.652-.741v-1.655a8.861 8.861 0 001.815.677 7.66 7.66 0 001.88.247c.931 0 1.647-.147 2.149-.44.501-.301.752-.756.752-1.365 0-.458-.201-.848-.602-1.17-.394-.33-1.167-.717-2.32-1.161-1.096-.408-1.876-.762-2.342-1.063-.458-.308-.802-.655-1.031-1.042-.222-.387-.333-.849-.333-1.386 0-.959.39-1.715 1.171-2.266.78-.559 1.851-.838 3.212-.838 1.267 0 2.506.258 3.716.773l-.633 1.45c-1.182-.487-2.253-.73-3.212-.73-.845 0-1.483.132-1.912.397-.43.265-.645.631-.645 1.096 0 .315.079.584.236.806.165.222.427.433.785.634.358.2 1.045.49 2.062.87 1.397.508 2.338 1.02 2.825 1.536.494.515.741 1.163.741 1.944zm6.964 1.955c.315 0 .62-.021.913-.064.294-.05.527-.101.699-.151v1.365c-.194.093-.48.168-.86.225a5.916 5.916 0 01-1.009.097c-2.278 0-3.416-1.2-3.416-3.599v-7.004h-1.687v-.859l1.687-.741.751-2.514h1.032v2.729h3.416v1.385h-3.416v6.929c0 .709.168 1.253.505 1.633.336.379.798.569 1.385.569zm19.428-14.448h1.966l-5.661 15.705h-1.805l-5.629-15.705h1.934l3.609 10.162c.416 1.167.745 2.302.988 3.405.258-1.16.595-2.316 1.01-3.469l3.588-10.098zm11.358 15.705l-.355-1.676h-.086c-.587.738-1.174 1.239-1.762 1.504-.58.258-1.307.387-2.18.387-1.168 0-2.084-.301-2.75-.903-.659-.601-.989-1.457-.989-2.567 0-2.377 1.902-3.624 5.705-3.738l1.998-.065v-.73c0-.924-.201-1.604-.602-2.041-.394-.444-1.028-.666-1.901-.666-.981 0-2.092.301-3.33.902l-.548-1.364a8.409 8.409 0 011.901-.741 8.323 8.323 0 012.084-.269c1.404 0 2.442.312 3.115.935.681.623 1.021 1.622 1.021 2.997v8.035h-1.321zm-4.029-1.257c1.11 0 1.98-.304 2.611-.913.637-.609.956-1.461.956-2.557v-1.063l-1.784.075c-1.418.05-2.442.272-3.072.666-.623.387-.934.992-.934 1.816 0 .644.193 1.135.58 1.471.394.337.941.505 1.643.505zm11.068 1.257h-1.784v-16.715h1.784V246.5zm5.707-11.773v7.637c0 .96.218 1.676.655 2.149.437.472 1.121.709 2.052.709 1.231 0 2.13-.337 2.696-1.01.573-.673.859-1.773.859-3.298v-6.187h1.784V246.5h-1.472l-.258-1.579h-.097a3.545 3.545 0 01-1.525 1.332c-.645.308-1.382.462-2.213.462-1.432 0-2.506-.34-3.223-1.021-.709-.68-1.063-1.769-1.063-3.265v-7.702h1.805zm17.061 11.988c-1.74 0-3.115-.53-4.125-1.59-1.002-1.06-1.504-2.532-1.504-4.415 0-1.898.466-3.405 1.397-4.522.938-1.118 2.195-1.676 3.77-1.676 1.475 0 2.643.487 3.502 1.461.86.966 1.289 2.245 1.289 3.835v1.128h-8.11c.036 1.382.383 2.431 1.042 3.147.666.716 1.6 1.074 2.804 1.074 1.267 0 2.52-.265 3.759-.795v1.59a9.077 9.077 0 01-1.794.58c-.558.122-1.235.183-2.03.183zm-.483-10.71c-.946 0-1.701.308-2.267.924-.558.616-.888 1.468-.988 2.556h6.155c0-1.124-.251-1.983-.752-2.578-.501-.601-1.217-.902-2.148-.902z" fill="#363545"/><g opacity=".3"><path fill="#fff" d="M518 267.5h232v56H518z"/><path d="M536.159 304.5v-15.705h1.826v14.051h6.929v1.654h-8.755zm13.195 0h-1.784v-11.773h1.784V304.5zm-1.934-14.964c0-.408.1-.705.301-.891.2-.194.451-.291.752-.291.286 0 .533.097.741.291.208.193.311.49.311.891s-.103.702-.311.902a1.05 1.05 0 01-.741.291c-.301 0-.552-.097-.752-.291-.201-.2-.301-.501-.301-.902zm13.559 11.752c0 1.096-.408 1.941-1.224 2.535-.817.595-1.962.892-3.438.892-1.561 0-2.778-.247-3.652-.741v-1.655a8.861 8.861 0 001.815.677 7.66 7.66 0 001.88.247c.931 0 1.647-.147 2.149-.44.501-.301.752-.756.752-1.365 0-.458-.201-.848-.602-1.17-.394-.33-1.167-.717-2.32-1.161-1.096-.408-1.876-.762-2.342-1.063-.458-.308-.802-.655-1.031-1.042-.222-.387-.333-.849-.333-1.386 0-.959.39-1.715 1.171-2.266.78-.559 1.851-.838 3.212-.838 1.267 0 2.506.258 3.716.773l-.633 1.45c-1.182-.487-2.253-.73-3.212-.73-.845 0-1.483.132-1.912.397-.43.265-.645.631-.645 1.096 0 .315.079.584.236.806.165.222.427.433.785.634.358.2 1.045.49 2.062.87 1.397.508 2.338 1.02 2.825 1.536.494.515.741 1.163.741 1.944zm6.964 1.955c.315 0 .62-.021.913-.064.294-.05.527-.101.699-.151v1.365c-.194.093-.48.168-.86.225a5.916 5.916 0 01-1.009.097c-2.278 0-3.416-1.2-3.416-3.599v-7.004h-1.687v-.859l1.687-.741.751-2.514h1.032v2.729h3.416v1.385h-3.416v6.929c0 .709.168 1.253.505 1.633.336.379.798.569 1.385.569zm19.428-14.448h1.966l-5.661 15.705h-1.805l-5.629-15.705h1.934l3.609 10.162c.416 1.167.745 2.302.988 3.405.258-1.16.595-2.316 1.01-3.469l3.588-10.098zm11.358 15.705l-.355-1.676h-.086c-.587.738-1.174 1.239-1.762 1.504-.58.258-1.307.387-2.18.387-1.168 0-2.084-.301-2.75-.903-.659-.601-.989-1.457-.989-2.567 0-2.377 1.902-3.624 5.705-3.738l1.998-.065v-.73c0-.924-.201-1.604-.602-2.041-.394-.444-1.028-.666-1.901-.666-.981 0-2.092.301-3.33.902l-.548-1.364a8.409 8.409 0 011.901-.741 8.323 8.323 0 012.084-.269c1.404 0 2.442.312 3.115.935.681.623 1.021 1.622 1.021 2.997v8.035h-1.321zm-4.029-1.257c1.11 0 1.98-.304 2.611-.913.637-.609.956-1.461.956-2.557v-1.063l-1.784.075c-1.418.05-2.442.272-3.072.666-.623.387-.934.992-.934 1.816 0 .644.193 1.135.58 1.471.394.337.941.505 1.643.505zm11.068 1.257h-1.784v-16.715h1.784V304.5zm5.707-11.773v7.637c0 .96.218 1.676.655 2.149.437.472 1.121.709 2.052.709 1.231 0 2.13-.337 2.696-1.01.573-.673.859-1.773.859-3.298v-6.187h1.784V304.5h-1.472l-.258-1.579h-.097a3.545 3.545 0 01-1.525 1.332c-.645.308-1.382.462-2.213.462-1.432 0-2.506-.34-3.223-1.021-.709-.68-1.063-1.769-1.063-3.265v-7.702h1.805zm17.061 11.988c-1.74 0-3.115-.53-4.125-1.59-1.002-1.06-1.504-2.532-1.504-4.415 0-1.898.466-3.405 1.397-4.522.938-1.118 2.195-1.676 3.77-1.676 1.475 0 2.643.487 3.502 1.461.86.966 1.289 2.245 1.289 3.835v1.128h-8.11c.036 1.382.383 2.431 1.042 3.147.666.716 1.6 1.074 2.804 1.074 1.267 0 2.52-.265 3.759-.795v1.59a9.077 9.077 0 01-1.794.58c-.558.122-1.235.183-2.03.183zm-.483-10.71c-.946 0-1.701.308-2.267.924-.558.616-.888 1.468-.988 2.556h6.155c0-1.124-.251-1.983-.752-2.578-.501-.601-1.217-.902-2.148-.902z" fill="#363545"/></g><path fill="#fff" d="M518 325.5h232v56H518z"/><path d="M536.159 362.5v-15.705h1.826v14.051h6.929v1.654h-8.755zm13.195 0h-1.784v-11.773h1.784V362.5zm-1.934-14.964c0-.408.1-.705.301-.891.2-.194.451-.291.752-.291.286 0 .533.097.741.291.208.193.311.49.311.891s-.103.702-.311.902a1.05 1.05 0 01-.741.291c-.301 0-.552-.097-.752-.291-.201-.2-.301-.501-.301-.902zm13.559 11.752c0 1.096-.408 1.941-1.224 2.535-.817.595-1.962.892-3.438.892-1.561 0-2.778-.247-3.652-.741v-1.655a8.861 8.861 0 001.815.677 7.66 7.66 0 001.88.247c.931 0 1.647-.147 2.149-.44.501-.301.752-.756.752-1.365 0-.458-.201-.848-.602-1.17-.394-.33-1.167-.717-2.32-1.161-1.096-.408-1.876-.762-2.342-1.063-.458-.308-.802-.655-1.031-1.042-.222-.387-.333-.849-.333-1.386 0-.959.39-1.715 1.171-2.266.78-.559 1.851-.838 3.212-.838 1.267 0 2.506.258 3.716.773l-.633 1.45c-1.182-.487-2.253-.73-3.212-.73-.845 0-1.483.132-1.912.397-.43.265-.645.631-.645 1.096 0 .315.079.584.236.806.165.222.427.433.785.634.358.2 1.045.49 2.062.87 1.397.508 2.338 1.02 2.825 1.536.494.515.741 1.163.741 1.944zm6.964 1.955c.315 0 .62-.021.913-.064.294-.05.527-.101.699-.151v1.365c-.194.093-.48.168-.86.225a5.916 5.916 0 01-1.009.097c-2.278 0-3.416-1.2-3.416-3.599v-7.004h-1.687v-.859l1.687-.741.751-2.514h1.032v2.729h3.416v1.385h-3.416v6.929c0 .709.168 1.253.505 1.633.336.379.798.569 1.385.569zm19.428-14.448h1.966l-5.661 15.705h-1.805l-5.629-15.705h1.934l3.609 10.162c.416 1.167.745 2.302.988 3.405.258-1.16.595-2.316 1.01-3.469l3.588-10.098zm11.358 15.705l-.355-1.676h-.086c-.587.738-1.174 1.239-1.762 1.504-.58.258-1.307.387-2.18.387-1.168 0-2.084-.301-2.75-.903-.659-.601-.989-1.457-.989-2.567 0-2.377 1.902-3.624 5.705-3.738l1.998-.065v-.73c0-.924-.201-1.604-.602-2.041-.394-.444-1.028-.666-1.901-.666-.981 0-2.092.301-3.33.902l-.548-1.364a8.409 8.409 0 011.901-.741 8.323 8.323 0 012.084-.269c1.404 0 2.442.312 3.115.935.681.623 1.021 1.622 1.021 2.997v8.035h-1.321zm-4.029-1.257c1.11 0 1.98-.304 2.611-.913.637-.609.956-1.461.956-2.557v-1.063l-1.784.075c-1.418.05-2.442.272-3.072.666-.623.387-.934.992-.934 1.816 0 .644.193 1.135.58 1.471.394.337.941.505 1.643.505zm11.068 1.257h-1.784v-16.715h1.784V362.5zm5.707-11.773v7.637c0 .96.218 1.676.655 2.149.437.472 1.121.709 2.052.709 1.231 0 2.13-.337 2.696-1.01.573-.673.859-1.773.859-3.298v-6.187h1.784V362.5h-1.472l-.258-1.579h-.097a3.545 3.545 0 01-1.525 1.332c-.645.308-1.382.462-2.213.462-1.432 0-2.506-.34-3.223-1.021-.709-.68-1.063-1.769-1.063-3.265v-7.702h1.805zm17.061 11.988c-1.74 0-3.115-.53-4.125-1.59-1.002-1.06-1.504-2.532-1.504-4.415 0-1.898.466-3.405 1.397-4.522.938-1.118 2.195-1.676 3.77-1.676 1.475 0 2.643.487 3.502 1.461.86.966 1.289 2.245 1.289 3.835v1.128h-8.11c.036 1.382.383 2.431 1.042 3.147.666.716 1.6 1.074 2.804 1.074 1.267 0 2.52-.265 3.759-.795v1.59a9.077 9.077 0 01-1.794.58c-.558.122-1.235.183-2.03.183zm-.483-10.71c-.946 0-1.701.308-2.267.924-.558.616-.888 1.468-.988 2.556h6.155c0-1.124-.251-1.983-.752-2.578-.501-.601-1.217-.902-2.148-.902z" fill="#363545"/><path fill="#fff" d="M762 93.5h8v280h-8z"/><rect x="762" y="95.5" width="8" height="64" rx="4" fill="#90939F"/></g><rect x="507" y="82.5" width="266" height="302" rx="3" stroke="#217CBB" stroke-width="2"/></g><path fill="#F0F" fill-opacity=".25" d="M508 83.5h9v303h-9zM752 83.5h8v303h-8z"/><path fill="#F0F" fill-opacity=".25" d="M772 375.5v8H508v-8zM772 83.5v10H512v-10z"/><path fill="#F0F" fill-opacity=".6" d="M760 83.5h12v303h-12z"/><path d="M751.281 67.172a2.82 2.82 0 00-.233-1.176 2.453 2.453 0 00-.636-.868 2.782 2.782 0 00-.977-.533 3.809 3.809 0 00-1.21-.185c-.442 0-.85.062-1.224.185a2.586 2.586 0 00-.95.533 2.537 2.537 0 00-.636.868 2.9 2.9 0 00-.225 1.176 2.404 2.404 0 00.82 1.818c.173.15.365.278.574.383a3.147 3.147 0 00-.67.417c-.196.16-.364.34-.505.54-.142.21-.251.438-.329.684a2.762 2.762 0 00-.109.779c0 .465.082.875.246 1.23.169.351.401.645.697.882.292.242.636.424 1.033.547.401.123.834.185 1.298.185.456 0 .88-.062 1.272-.185a3.061 3.061 0 001.039-.547c.292-.237.522-.533.69-.888.169-.356.253-.764.253-1.224a2.51 2.51 0 00-.594-1.648 2.219 2.219 0 00-.465-.43 3.284 3.284 0 00-.568-.335 2.569 2.569 0 00.848-.67c.178-.205.315-.438.41-.697.1-.26.151-.54.151-.841zm-1.415 4.532c0 .255-.041.483-.123.684a1.612 1.612 0 01-.329.506 1.493 1.493 0 01-.519.314c-.196.073-.413.11-.65.11-.25 0-.476-.035-.676-.103a1.49 1.49 0 01-.506-.308 1.34 1.34 0 01-.335-.506 1.93 1.93 0 01-.116-.69c0-.25.036-.476.109-.677.078-.205.187-.383.328-.533.141-.141.31-.25.506-.328.201-.078.426-.116.677-.116.241 0 .462.038.663.116.2.077.374.187.519.328.142.15.251.328.329.533.082.2.123.424.123.67zm-.212-4.47c0 .223-.035.428-.103.615a1.33 1.33 0 01-.731.772c-.173.073-.367.11-.581.11a1.48 1.48 0 01-.581-.11 1.27 1.27 0 01-.445-.307 1.223 1.223 0 01-.287-.465 1.888 1.888 0 01-.096-.616c0-.228.032-.435.096-.622s.155-.344.274-.471a1.25 1.25 0 01.437-.294c.173-.073.367-.11.581-.11.219 0 .415.037.588.11.173.073.324.173.451.3.123.137.219.297.287.479.073.182.11.385.11.608zm3.483 3.513v.144c0 .533.068 1.03.205 1.49.137.456.33.85.581 1.183.251.337.556.601.916.792a2.6 2.6 0 001.217.28c.428 0 .806-.077 1.134-.232.329-.16.611-.385.848-.676l.075.772h1.484V64h-1.634v3.794a2.48 2.48 0 00-.82-.608 2.472 2.472 0 00-1.074-.22c-.455 0-.866.094-1.23.281-.36.182-.665.44-.916.772a3.634 3.634 0 00-.588 1.197c-.132.46-.198.97-.198 1.531zm1.634.144v-.144c0-.333.031-.645.095-.936.064-.297.167-.556.308-.78.132-.223.305-.399.519-.526.219-.128.481-.191.786-.191.365 0 .666.082.903.246.241.16.435.376.581.649v3.179c-.146.278-.34.499-.581.663-.242.16-.547.239-.916.239a1.53 1.53 0 01-.773-.184 1.534 1.534 0 01-.526-.527 2.318 2.318 0 01-.301-.759 4.33 4.33 0 01-.095-.93zm6.866 6.453h1.634V73.83a2.444 2.444 0 00.595.485c.187.105.39.185.608.24.224.054.467.082.732.082.465 0 .877-.096 1.237-.287.36-.192.663-.456.909-.793.246-.333.431-.73.554-1.19.128-.46.191-.957.191-1.49v-.144c0-.556-.063-1.064-.191-1.524a3.668 3.668 0 00-.554-1.196 2.533 2.533 0 00-.916-.773c-.36-.182-.777-.273-1.251-.273-.241 0-.469.027-.683.082-.215.05-.411.123-.588.219-.137.073-.265.16-.383.26-.119.1-.228.211-.328.334l-.062-.758h-1.504v10.24zm4.827-6.61v.143c0 .328-.032.64-.096.937a2.48 2.48 0 01-.308.779 1.57 1.57 0 01-.533.533 1.496 1.496 0 01-.779.191c-.187 0-.358-.02-.513-.061a1.824 1.824 0 01-.417-.178 1.512 1.512 0 01-.314-.273 1.637 1.637 0 01-.233-.349v-3.288c.073-.137.157-.26.253-.37.1-.109.217-.2.349-.273.114-.068.244-.12.389-.157a1.94 1.94 0 01.472-.054c.305 0 .567.063.786.19.219.128.399.302.54.52.137.22.237.477.301.773.068.291.103.604.103.936zM515.281 59.172a2.82 2.82 0 00-.233-1.176 2.453 2.453 0 00-.636-.868 2.782 2.782 0 00-.977-.533 3.809 3.809 0 00-1.21-.185c-.442 0-.85.062-1.224.185a2.586 2.586 0 00-.95.533 2.537 2.537 0 00-.636.868 2.9 2.9 0 00-.225 1.176 2.404 2.404 0 00.82 1.818c.173.15.365.278.574.383a3.147 3.147 0 00-.67.417c-.196.16-.364.34-.505.54-.142.21-.251.438-.329.684a2.762 2.762 0 00-.109.779c0 .465.082.875.246 1.23.169.351.401.645.697.882.292.242.636.424 1.033.547.401.123.834.185 1.298.185.456 0 .88-.062 1.272-.185a3.061 3.061 0 001.039-.547c.292-.237.522-.533.69-.888.169-.356.253-.764.253-1.224a2.51 2.51 0 00-.594-1.648 2.219 2.219 0 00-.465-.43 3.284 3.284 0 00-.568-.335 2.569 2.569 0 00.848-.67c.178-.205.315-.438.41-.697.1-.26.151-.54.151-.841zm-1.415 4.532c0 .255-.041.483-.123.684a1.612 1.612 0 01-.329.506 1.493 1.493 0 01-.519.314c-.196.073-.413.11-.65.11-.25 0-.476-.035-.676-.103a1.49 1.49 0 01-.506-.308 1.34 1.34 0 01-.335-.506 1.93 1.93 0 01-.116-.69c0-.25.036-.476.109-.677.078-.205.187-.383.328-.533.141-.141.31-.25.506-.328.201-.078.426-.116.677-.116.241 0 .462.038.663.116.2.077.374.187.519.328.142.15.251.328.329.533.082.2.123.424.123.67zm-.212-4.47c0 .223-.035.428-.103.615a1.33 1.33 0 01-.731.772c-.173.073-.367.11-.581.11a1.48 1.48 0 01-.581-.11 1.27 1.27 0 01-.445-.308 1.223 1.223 0 01-.287-.464 1.888 1.888 0 01-.096-.616c0-.227.032-.435.096-.622.064-.186.155-.344.274-.471a1.25 1.25 0 01.437-.294c.173-.073.367-.11.581-.11.219 0 .415.037.588.11.173.073.324.173.451.3.123.137.219.297.287.479.073.182.11.385.11.608zm3.483 3.513v.144c0 .533.068 1.03.205 1.49.137.456.33.85.581 1.183.251.337.556.601.916.792a2.6 2.6 0 001.217.28c.428 0 .806-.077 1.134-.232.329-.16.611-.385.848-.676l.075.772h1.484V56h-1.634v3.794a2.48 2.48 0 00-.82-.608 2.472 2.472 0 00-1.074-.22c-.455 0-.866.094-1.23.281-.36.182-.665.44-.916.773a3.634 3.634 0 00-.588 1.196c-.132.46-.198.97-.198 1.531zm1.634.144v-.144c0-.333.031-.645.095-.937.064-.296.167-.555.308-.779.132-.223.305-.398.519-.526.219-.128.481-.192.786-.192.365 0 .666.082.903.247.241.16.435.375.581.649v3.179c-.146.278-.34.499-.581.663-.242.16-.547.239-.916.239a1.53 1.53 0 01-.773-.184 1.534 1.534 0 01-.526-.527 2.318 2.318 0 01-.301-.759 4.33 4.33 0 01-.095-.93zm6.866 6.453h1.634V65.83a2.444 2.444 0 00.595.485c.187.105.39.185.608.24.224.054.467.082.732.082.465 0 .877-.096 1.237-.287.36-.192.663-.456.909-.793.246-.333.431-.73.554-1.19.128-.46.191-.957.191-1.49v-.144c0-.556-.063-1.064-.191-1.524a3.668 3.668 0 00-.554-1.196 2.533 2.533 0 00-.916-.773c-.36-.182-.777-.273-1.251-.273-.241 0-.469.027-.683.082-.215.05-.411.123-.588.219-.137.072-.265.16-.383.26-.119.1-.228.211-.328.334l-.062-.759h-1.504v10.24zm4.827-6.61v.143c0 .328-.032.64-.096.936a2.48 2.48 0 01-.308.78 1.57 1.57 0 01-.533.533 1.496 1.496 0 01-.779.191c-.187 0-.358-.02-.513-.061a1.824 1.824 0 01-.417-.178 1.512 1.512 0 01-.314-.273 1.637 1.637 0 01-.233-.349v-3.288c.073-.137.157-.26.253-.37.1-.108.217-.2.349-.273.114-.068.244-.12.389-.157a1.94 1.94 0 01.472-.055c.305 0 .567.064.786.192.219.127.399.3.54.52.137.218.237.476.301.772.068.292.103.604.103.936zM476.281 376.172c0-.442-.078-.834-.233-1.176a2.452 2.452 0 00-.636-.868 2.772 2.772 0 00-.977-.533 3.809 3.809 0 00-1.21-.185c-.442 0-.85.062-1.224.185a2.577 2.577 0 00-.95.533 2.535 2.535 0 00-.636.868c-.15.342-.225.734-.225 1.176a2.402 2.402 0 00.82 1.818c.173.151.365.278.574.383a3.147 3.147 0 00-.67.417c-.196.16-.364.34-.505.54-.142.21-.251.438-.329.684a2.762 2.762 0 00-.109.779c0 .465.082.875.246 1.23.169.351.401.645.697.882.292.242.636.424 1.033.547.401.123.834.185 1.298.185.456 0 .88-.062 1.272-.185a3.053 3.053 0 001.039-.547c.292-.237.522-.533.69-.888.169-.356.253-.764.253-1.224a2.5 2.5 0 00-.594-1.647 2.194 2.194 0 00-.465-.431 3.278 3.278 0 00-.568-.335 2.586 2.586 0 00.848-.67c.178-.205.315-.438.41-.697.1-.26.151-.54.151-.841zm-1.415 4.532c0 .255-.041.483-.123.684a1.62 1.62 0 01-.329.506 1.504 1.504 0 01-.519.314 1.85 1.85 0 01-.65.109c-.25 0-.476-.034-.676-.102a1.495 1.495 0 01-.506-.308 1.331 1.331 0 01-.335-.506 1.928 1.928 0 01-.116-.69c0-.251.036-.476.109-.677.078-.205.187-.383.328-.533.141-.141.31-.251.506-.328.201-.078.426-.116.677-.116.241 0 .462.038.663.116.2.077.374.187.519.328.142.15.251.328.329.533.082.201.123.424.123.67zm-.212-4.471c0 .224-.035.429-.103.616a1.324 1.324 0 01-.731.772 1.482 1.482 0 01-.581.109c-.215 0-.408-.036-.581-.109a1.26 1.26 0 01-.445-.308 1.218 1.218 0 01-.287-.464 1.89 1.89 0 01-.096-.616c0-.227.032-.435.096-.622s.155-.344.274-.471a1.24 1.24 0 01.437-.294c.173-.073.367-.11.581-.11a1.5 1.5 0 01.588.11c.173.073.324.173.451.3.123.137.219.297.287.479.073.182.11.385.11.608zm3.483 3.514v.144a5.2 5.2 0 00.205 1.49c.137.456.33.85.581 1.182.251.338.556.602.916.793.36.187.765.281 1.217.281.428 0 .806-.078 1.134-.233.329-.159.611-.385.848-.676l.075.772h1.484V373h-1.634v3.794a2.478 2.478 0 00-.82-.608 2.47 2.47 0 00-1.074-.219c-.455 0-.866.093-1.23.28-.36.182-.665.44-.916.773a3.623 3.623 0 00-.588 1.196c-.132.46-.198.971-.198 1.531zm1.634.144v-.144c0-.333.031-.645.095-.936.064-.297.167-.556.308-.78a1.47 1.47 0 01.519-.526c.219-.128.481-.192.786-.192.365 0 .666.083.903.247.241.159.435.376.581.649v3.179c-.146.278-.34.499-.581.663-.242.159-.547.239-.916.239a1.52 1.52 0 01-.773-.185 1.53 1.53 0 01-.526-.526 2.314 2.314 0 01-.301-.759 4.32 4.32 0 01-.095-.929zm6.866 6.453h1.634v-3.514c.087.096.18.185.28.267.101.082.205.155.315.218.187.105.39.185.608.24.224.054.467.082.732.082.465 0 .877-.096 1.237-.287.36-.192.663-.456.909-.793.246-.333.431-.73.554-1.19.128-.46.191-.957.191-1.49v-.144c0-.556-.063-1.064-.191-1.524a3.658 3.658 0 00-.554-1.196 2.538 2.538 0 00-.916-.773c-.36-.182-.777-.273-1.251-.273-.241 0-.469.027-.683.082a2.337 2.337 0 00-.971.478 2.535 2.535 0 00-.328.335l-.062-.758h-1.504v10.24zm4.827-6.611v.144c0 .328-.032.64-.096.936a2.48 2.48 0 01-.308.78 1.571 1.571 0 01-.533.533c-.214.128-.474.191-.779.191-.187 0-.358-.02-.513-.061a1.838 1.838 0 01-.417-.178 1.493 1.493 0 01-.314-.273 1.635 1.635 0 01-.233-.349v-3.288c.073-.137.157-.26.253-.369.1-.11.217-.201.349-.274a1.46 1.46 0 01.389-.157c.146-.036.303-.055.472-.055.305 0 .567.064.786.192.219.127.399.301.54.519.137.219.237.477.301.773.068.292.103.604.103.936zM476.281 86.172a2.82 2.82 0 00-.233-1.176 2.453 2.453 0 00-.636-.868 2.782 2.782 0 00-.977-.533 3.809 3.809 0 00-1.21-.185c-.442 0-.85.062-1.224.185a2.586 2.586 0 00-.95.533 2.537 2.537 0 00-.636.868 2.9 2.9 0 00-.225 1.176 2.404 2.404 0 00.82 1.818c.173.15.365.278.574.383a3.147 3.147 0 00-.67.417c-.196.16-.364.34-.505.54-.142.21-.251.438-.329.684a2.762 2.762 0 00-.109.779c0 .465.082.875.246 1.23.169.351.401.645.697.882.292.242.636.424 1.033.547.401.123.834.185 1.298.185.456 0 .88-.062 1.272-.185a3.061 3.061 0 001.039-.547c.292-.237.522-.533.69-.888.169-.356.253-.764.253-1.224a2.51 2.51 0 00-.594-1.648 2.219 2.219 0 00-.465-.43 3.284 3.284 0 00-.568-.335 2.569 2.569 0 00.848-.67c.178-.205.315-.438.41-.697.1-.26.151-.54.151-.841zm-1.415 4.532c0 .255-.041.483-.123.684a1.612 1.612 0 01-.329.506 1.493 1.493 0 01-.519.314c-.196.073-.413.11-.65.11-.25 0-.476-.035-.676-.103a1.49 1.49 0 01-.506-.308 1.34 1.34 0 01-.335-.506 1.93 1.93 0 01-.116-.69c0-.25.036-.476.109-.677.078-.205.187-.383.328-.533.141-.141.31-.25.506-.328.201-.078.426-.116.677-.116.241 0 .462.038.663.116.2.077.374.187.519.328.142.15.251.328.329.533.082.2.123.424.123.67zm-.212-4.47c0 .223-.035.428-.103.615a1.33 1.33 0 01-.731.772c-.173.073-.367.11-.581.11a1.48 1.48 0 01-.581-.11 1.27 1.27 0 01-.445-.307 1.223 1.223 0 01-.287-.465 1.888 1.888 0 01-.096-.616c0-.228.032-.435.096-.622s.155-.344.274-.471a1.25 1.25 0 01.437-.294c.173-.073.367-.11.581-.11.219 0 .415.037.588.11.173.073.324.173.451.3.123.137.219.297.287.479.073.182.11.385.11.608zm3.483 3.513v.144c0 .533.068 1.03.205 1.49.137.456.33.85.581 1.183.251.337.556.601.916.792a2.6 2.6 0 001.217.28c.428 0 .806-.077 1.134-.232.329-.16.611-.385.848-.676l.075.772h1.484V83h-1.634v3.794a2.48 2.48 0 00-.82-.608 2.472 2.472 0 00-1.074-.22c-.455 0-.866.094-1.23.281-.36.182-.665.44-.916.772a3.634 3.634 0 00-.588 1.197c-.132.46-.198.97-.198 1.531zm1.634.144v-.144c0-.333.031-.645.095-.936.064-.297.167-.556.308-.78.132-.223.305-.399.519-.526.219-.128.481-.191.786-.191.365 0 .666.082.903.246.241.16.435.376.581.649v3.179c-.146.278-.34.499-.581.663-.242.16-.547.239-.916.239a1.53 1.53 0 01-.773-.184 1.534 1.534 0 01-.526-.527 2.318 2.318 0 01-.301-.759 4.33 4.33 0 01-.095-.93zm6.866 6.453h1.634V92.83a2.444 2.444 0 00.595.485c.187.105.39.185.608.24.224.054.467.082.732.082.465 0 .877-.096 1.237-.287.36-.192.663-.456.909-.793.246-.333.431-.73.554-1.19.128-.46.191-.957.191-1.49v-.144c0-.556-.063-1.064-.191-1.524a3.668 3.668 0 00-.554-1.196 2.533 2.533 0 00-.916-.773c-.36-.182-.777-.273-1.251-.273-.241 0-.469.027-.683.082-.215.05-.411.123-.588.219-.137.073-.265.16-.383.26-.119.1-.228.211-.328.334l-.062-.758h-1.504v10.24zm4.827-6.61v.143c0 .328-.032.64-.096.937a2.48 2.48 0 01-.308.779 1.57 1.57 0 01-.533.533 1.496 1.496 0 01-.779.191c-.187 0-.358-.02-.513-.061a1.824 1.824 0 01-.417-.178 1.512 1.512 0 01-.314-.273 1.637 1.637 0 01-.233-.349v-3.288c.073-.137.157-.26.253-.37.1-.109.217-.2.349-.273.114-.068.244-.12.389-.157a1.94 1.94 0 01.472-.054c.305 0 .567.063.786.19.219.128.399.302.54.52.137.22.237.477.301.773.068.291.103.604.103.936zM756.876 414.5v-9.953h-.103l-4.094 1.517v1.443l2.55-.937v7.93h1.647zm10.182 0v-1.319h-4.634l2.214-2.366c.292-.309.561-.61.807-.902.251-.292.467-.581.649-.868.178-.287.317-.577.417-.868.105-.296.158-.602.158-.916 0-.42-.069-.802-.205-1.149a2.497 2.497 0 00-.595-.902 2.771 2.771 0 00-.978-.588 3.76 3.76 0 00-1.305-.212c-.52 0-.992.084-1.415.253-.42.169-.775.397-1.067.684a2.96 2.96 0 00-.683 1.011c-.16.383-.24.791-.24 1.224h1.641c0-.287.036-.542.109-.766.073-.227.183-.421.328-.581.142-.15.319-.266.534-.348.214-.082.467-.123.758-.123.228 0 .433.038.616.116a1.355 1.355 0 01.779.813 1.894 1.894 0 01.027 1.156 2.451 2.451 0 01-.232.547 6.335 6.335 0 01-.444.649c-.183.232-.408.497-.677.793l-3.24 3.527v1.135h6.678zm1.713-3.753v.144a5.2 5.2 0 00.205 1.49c.137.456.33.85.581 1.182.251.338.556.602.916.793.36.187.766.281 1.217.281.428 0 .806-.078 1.135-.233.328-.159.61-.385.847-.676l.075.772h1.484V404h-1.634v3.794a2.468 2.468 0 00-.82-.608 2.466 2.466 0 00-1.074-.219c-.455 0-.865.093-1.23.28-.36.182-.665.44-.916.773a3.623 3.623 0 00-.588 1.196c-.132.46-.198.971-.198 1.531zm1.634.144v-.144c0-.333.032-.645.095-.936.064-.297.167-.556.308-.78a1.47 1.47 0 01.519-.526c.219-.128.481-.192.787-.192.364 0 .665.083.902.247.241.159.435.376.581.649v3.179c-.146.278-.34.499-.581.663-.242.159-.547.239-.916.239a1.52 1.52 0 01-.773-.185 1.53 1.53 0 01-.526-.526 2.314 2.314 0 01-.301-.759 4.385 4.385 0 01-.095-.929zm6.866 6.453h1.634v-3.514a2.534 2.534 0 00.595.485c.187.105.39.185.608.24.224.054.467.082.732.082.465 0 .877-.096 1.237-.287.36-.192.663-.456.909-.793.246-.333.431-.73.554-1.19.128-.46.191-.957.191-1.49v-.144c0-.556-.063-1.064-.191-1.524a3.658 3.658 0 00-.554-1.196 2.538 2.538 0 00-.916-.773c-.36-.182-.777-.273-1.251-.273-.241 0-.469.027-.683.082-.214.05-.41.123-.588.219a2.112 2.112 0 00-.383.259 2.599 2.599 0 00-.328.335l-.062-.758h-1.504v10.24zm4.827-6.611v.144c0 .328-.032.64-.096.936a2.457 2.457 0 01-.308.78 1.562 1.562 0 01-.533.533c-.214.128-.474.191-.779.191-.187 0-.358-.02-.513-.061a1.838 1.838 0 01-.417-.178 1.493 1.493 0 01-.314-.273 1.673 1.673 0 01-.233-.349v-3.288c.073-.137.157-.26.253-.369.1-.11.217-.201.349-.274a1.46 1.46 0 01.389-.157 1.97 1.97 0 01.472-.055c.305 0 .568.064.786.192.219.127.399.301.54.519.137.219.237.477.301.773.068.292.103.604.103.936z" fill="#E8178A"/><path d="M780 93.5h9v56h-9" stroke="#4091D2"/><path d="M802.598 116.954c.828 0 1.486.233 1.974.697.492.465.739 1.102.739 1.911 0 .957-.295 1.693-.885 2.209-.59.515-1.434.773-2.531.773-.954 0-1.723-.154-2.309-.463v-1.564c.309.164.668.298 1.078.404.41.101.799.152 1.166.152 1.106 0 1.658-.453 1.658-1.359 0-.863-.572-1.295-1.717-1.295-.207 0-.435.021-.685.064a4.68 4.68 0 00-.609.129l-.721-.386.322-4.366h4.647v1.536h-3.059l-.158 1.681.205-.041c.238-.055.533-.082.885-.082zm3.607 1.834c0-1.695.358-2.957 1.073-3.785.718-.828 1.793-1.242 3.222-1.242.489 0 .871.029 1.149.088v1.447a4.708 4.708 0 00-1.032-.117c-.621 0-1.128.093-1.523.281a1.889 1.889 0 00-.879.832c-.195.367-.31.889-.346 1.564h.077c.386-.664 1.005-.996 1.857-.996.766 0 1.365.241 1.799.721.433.481.65 1.145.65 1.992 0 .914-.258 1.639-.773 2.174-.516.531-1.231.797-2.145.797-.633 0-1.185-.147-1.658-.44-.469-.292-.832-.72-1.09-1.283-.254-.562-.381-1.24-.381-2.033zm3.094 2.309c.387 0 .684-.129.891-.387.207-.262.31-.633.31-1.113 0-.418-.097-.746-.293-.985-.191-.242-.482-.363-.873-.363-.367 0-.681.119-.943.357-.258.239-.387.516-.387.832 0 .465.121.858.363 1.178.247.321.557.481.932.481zm6.28 1.447c-.77 0-1.375-.299-1.817-.897-.437-.597-.656-1.425-.656-2.484 0-1.074.223-1.91.668-2.508.449-.601 1.066-.902 1.852-.902.824 0 1.453.32 1.886.961h.059a7.293 7.293 0 01-.135-1.307v-2.097h1.793v9.117h-1.371l-.346-.85h-.076c-.406.645-1.025.967-1.857.967zm.627-1.424c.457 0 .791-.133 1.002-.398.214-.266.332-.717.351-1.354v-.193c0-.703-.109-1.207-.328-1.512-.215-.305-.566-.457-1.055-.457-.398 0-.709.17-.931.51-.219.336-.328.826-.328 1.471 0 .644.111 1.128.334 1.453.222.32.541.48.955.48zm8.418 1.424c-.77 0-1.373-.279-1.811-.838h-.093c.062.547.093.863.093.949v2.655h-1.787v-9.434h1.453l.252.85h.082c.418-.649 1.037-.973 1.858-.973.773 0 1.379.299 1.816.896.438.598.656 1.428.656 2.491 0 .699-.103 1.306-.31 1.822-.203.516-.494.908-.873 1.178-.379.269-.824.404-1.336.404zm-.527-5.361c-.442 0-.764.136-.967.41-.203.269-.309.717-.317 1.342v.193c0 .703.104 1.207.311 1.512.211.304.543.457.996.457.801 0 1.201-.66 1.201-1.981 0-.644-.099-1.127-.299-1.447-.195-.324-.504-.486-.925-.486z" fill="#4091D2"/><defs><clipPath id="prefix__clip0_5682_91448"><rect x="508" y="83.5" width="264" height="300" rx="2" fill="#fff"/></clipPath><filter id="prefix__filter0_ddd_5682_91448" x="496" y="72.5" width="288" height="324" filterUnits="userSpaceOnUse" color-interpolation-filters="sRGB"><feFlood flood-opacity="0" result="BackgroundImageFix"/><feColorMatrix in="SourceAlpha" values="0 0 0 0 0 0 0 0 0 0 0 0 0 0 0 0 0 0 127 0" result="hardAlpha"/><feOffset dy="2"/><feGaussianBlur stdDeviation="2"/><feColorMatrix values="0 0 0 0 0 0 0 0 0 0 0 0 0 0 0 0 0 0 0.2 0"/><feBlend in2="BackgroundImageFix" result="effect1_dropShadow_5682_91448"/><feColorMatrix in="SourceAlpha" values="0 0 0 0 0 0 0 0 0 0 0 0 0 0 0 0 0 0 127 0" result="hardAlpha"/><feOffset dy="1"/><feGaussianBlur stdDeviation="5"/><feColorMatrix values="0 0 0 0 0 0 0 0 0 0 0 0 0 0 0 0 0 0 0.12 0"/><feBlend in2="effect1_dropShadow_5682_91448" result="effect2_dropShadow_5682_91448"/><feColorMatrix in="SourceAlpha" values="0 0 0 0 0 0 0 0 0 0 0 0 0 0 0 0 0 0 127 0" result="hardAlpha"/><feOffset dy="4"/><feGaussianBlur stdDeviation="2.5"/><feColorMatrix values="0 0 0 0 0 0 0 0 0 0 0 0 0 0 0 0 0 0 0.14 0"/><feBlend in2="effect2_dropShadow_5682_91448" result="effect3_dropShadow_5682_91448"/><feBlend in="SourceGraphic" in2="effect3_dropShadow_5682_91448" result="shape"/></filter></defs></svg>