<svg width="468" height="95" viewBox="0 0 468 95" fill="none" xmlns="http://www.w3.org/2000/svg"><rect x="2" y="2.667" width="464" height="52" rx="2" fill="#000"/><path d="M22.9717 37.6666H21.1348V23.5729H16.1934V21.9615H27.8916V23.5729H22.9717V37.6666ZM34.7803 25.6783C35.7829 25.6783 36.6423 25.9003 37.3584 26.3444C38.0745 26.7884 38.6224 27.4114 39.002 28.2135C39.3815 29.0084 39.5713 29.9394 39.5713 31.0065V32.1129H31.4395C31.4609 33.4951 31.8047 34.5478 32.4707 35.2711C33.1367 35.9944 34.0749 36.3561 35.2852 36.3561C36.0299 36.3561 36.6888 36.288 37.2617 36.152C37.8346 36.0159 38.429 35.8154 39.0449 35.5504V37.1188C38.4505 37.3837 37.8597 37.5771 37.2725 37.6989C36.6924 37.8206 36.0049 37.8815 35.21 37.8815C34.0785 37.8815 33.0902 37.6523 32.2451 37.194C31.4072 36.7285 30.7555 36.0481 30.29 35.153C29.8245 34.2578 29.5918 33.1621 29.5918 31.8658C29.5918 30.5983 29.8031 29.5026 30.2256 28.5787C30.6553 27.6477 31.2568 26.9316 32.0303 26.4303C32.8109 25.929 33.7275 25.6783 34.7803 25.6783ZM34.7588 27.1393C33.8063 27.1393 33.0472 27.4508 32.4814 28.0739C31.9157 28.6969 31.5791 29.567 31.4717 30.6842H37.7021C37.695 29.9824 37.584 29.3665 37.3691 28.8365C37.1615 28.2994 36.8428 27.8841 36.4131 27.5905C35.9834 27.2897 35.432 27.1393 34.7588 27.1393ZM45.6543 31.6403L41.583 25.8932H43.624L46.7285 30.4264L49.8223 25.8932H51.8418L47.7705 31.6403L52.0674 37.6666H50.0264L46.7285 32.8649L43.4092 37.6666H41.3896L45.6543 31.6403ZM58.4189 36.4205C58.7126 36.4205 59.0133 36.3955 59.3213 36.3453C59.6292 36.2952 59.8799 36.2343 60.0732 36.1627V37.5485C59.8656 37.6416 59.5755 37.7203 59.2031 37.7848C58.8379 37.8492 58.4798 37.8815 58.1289 37.8815C57.5059 37.8815 56.9401 37.774 56.4316 37.5592C55.9232 37.3372 55.515 36.9648 55.207 36.442C54.9062 35.9192 54.7559 35.1959 54.7559 34.2721V27.2897H53.0801V26.4196L54.7666 25.7213L55.4756 23.1647H56.5498V25.8932H59.998V27.2897H56.5498V34.2184C56.5498 34.956 56.7181 35.5074 57.0547 35.8727C57.3984 36.2379 57.8532 36.4205 58.4189 36.4205ZM68.9414 37.6666V21.9615H70.7676V37.6666H68.9414ZM80.6426 25.6783C82.0391 25.6783 83.0954 26.0221 83.8115 26.7096C84.5277 27.3899 84.8857 28.4856 84.8857 29.9967V37.6666H83.124V30.1149C83.124 29.1337 82.8984 28.3997 82.4473 27.9127C82.0033 27.4257 81.3193 27.1823 80.3955 27.1823C79.0921 27.1823 78.1755 27.5511 77.6455 28.2887C77.1156 29.0263 76.8506 30.097 76.8506 31.5006V37.6666H75.0674V25.8932H76.5068L76.7754 27.5905H76.8721C77.1227 27.1751 77.4414 26.8278 77.8281 26.5485C78.2148 26.262 78.6481 26.0472 79.1279 25.9039C79.6077 25.7535 80.1126 25.6783 80.6426 25.6783ZM94.3418 25.6783C95.8099 25.6783 96.9808 26.1832 97.8545 27.193C98.7282 28.2028 99.165 29.721 99.165 31.7477C99.165 33.0869 98.9645 34.2112 98.5635 35.1207C98.1624 36.0302 97.5967 36.7177 96.8662 37.1832C96.1429 37.6487 95.2871 37.8815 94.2988 37.8815C93.6758 37.8815 93.1279 37.7991 92.6553 37.6344C92.1826 37.4697 91.778 37.2477 91.4414 36.9684C91.1048 36.6891 90.8255 36.3847 90.6035 36.0553H90.4746C90.4961 36.3346 90.5212 36.6712 90.5498 37.0651C90.5856 37.4589 90.6035 37.8027 90.6035 38.0963V42.9303H88.8096V25.8932H90.2812L90.5176 27.6334H90.6035C90.8327 27.2753 91.112 26.9495 91.4414 26.6559C91.7708 26.3551 92.1719 26.1188 92.6445 25.9469C93.1243 25.7679 93.6901 25.6783 94.3418 25.6783ZM94.0303 27.1823C93.2139 27.1823 92.555 27.3398 92.0537 27.6549C91.5596 27.97 91.1979 28.4427 90.9688 29.0729C90.7396 29.6959 90.6178 30.4801 90.6035 31.4254V31.7692C90.6035 32.7646 90.7109 33.6061 90.9258 34.2936C91.1478 34.9811 91.5094 35.5039 92.0107 35.8619C92.5192 36.22 93.1995 36.399 94.0518 36.399C94.7822 36.399 95.391 36.2021 95.8779 35.8082C96.3649 35.4143 96.7266 34.8665 96.9629 34.1647C97.2064 33.4557 97.3281 32.6429 97.3281 31.7262C97.3281 30.3369 97.056 29.234 96.5117 28.4176C95.9746 27.594 95.1475 27.1823 94.0303 27.1823ZM112.252 25.8932V37.6666H110.791L110.533 36.0123H110.437C110.193 36.4205 109.878 36.7643 109.491 37.0436C109.104 37.3229 108.668 37.5306 108.181 37.6666C107.701 37.8099 107.189 37.8815 106.645 37.8815C105.714 37.8815 104.933 37.7311 104.303 37.4303C103.673 37.1295 103.196 36.664 102.874 36.0338C102.559 35.4036 102.401 34.5944 102.401 33.6061V25.8932H104.206V33.4772C104.206 34.4583 104.428 35.1923 104.872 35.6793C105.316 36.1591 105.993 36.399 106.902 36.399C107.776 36.399 108.471 36.2343 108.986 35.9049C109.509 35.5755 109.885 35.0921 110.114 34.4547C110.343 33.8102 110.458 33.0224 110.458 32.0914V25.8932H112.252ZM120.075 36.4205C120.369 36.4205 120.67 36.3955 120.978 36.3453C121.285 36.2952 121.536 36.2343 121.729 36.1627V37.5485C121.522 37.6416 121.232 37.7203 120.859 37.7848C120.494 37.8492 120.136 37.8815 119.785 37.8815C119.162 37.8815 118.596 37.774 118.088 37.5592C117.579 37.3372 117.171 36.9648 116.863 36.442C116.562 35.9192 116.412 35.1959 116.412 34.2721V27.2897H114.736V26.4196L116.423 25.7213L117.132 23.1647H118.206V25.8932H121.654V27.2897H118.206V34.2184C118.206 34.956 118.374 35.5074 118.711 35.8727C119.055 36.2379 119.509 36.4205 120.075 36.4205Z" fill="#fff"/><rect x="2" y="2.667" width="464" height="52" rx="2" stroke="#DA212C" stroke-width="4"/><g clip-path="url(#clip0_7345_83056)"><path d="M25.3875 66.7229H7.5C5.025 66.7229 3 68.7479 3 71.2229V89.1667C3 91.6417 5.025 93.6667 7.5 93.6667H25.3875C27.8625 93.6667 29.8875 91.6417 29.8875 89.1667V71.2229C29.8875 68.7479 27.9187 66.7229 25.3875 66.7229Z" fill="#DA212C"/><path d="M25.3875 68.6917C26.7937 68.6917 27.9187 69.8167 27.9187 71.2229V89.1667C27.9187 90.5729 26.7937 91.6979 25.3875 91.6979H7.5C6.09375 91.6979 4.96875 90.5729 4.96875 89.1667V71.2229C4.96875 69.8167 6.09375 68.6917 7.5 68.6917H25.3875ZM25.3875 66.7229H7.5C5.025 66.7229 3 68.7479 3 71.2229V89.1667C3 91.6417 5.025 93.6667 7.5 93.6667H25.3875C27.8625 93.6667 29.8875 91.6417 29.8875 89.1667V71.2229C29.8875 68.7479 27.9187 66.7229 25.3875 66.7229Z" fill="#9B1118"/><path d="M21.4499 83.5416L17.9624 80.1104L21.5062 76.6229L19.9874 75.1041L16.4999 78.6479L13.0124 75.1041L11.4937 76.6229L15.0374 80.1104L11.6062 83.5416L13.0687 85.0604L16.4999 81.6291L19.9312 85.0604L21.4499 83.5416Z" fill="#fff"/></g><path d="M39.1484 88.6666V72.9615H40.9746V88.6666H39.1484ZM50.8496 76.6783C52.2461 76.6783 53.3024 77.0221 54.0186 77.7096C54.7347 78.3899 55.0928 79.4856 55.0928 80.9967V88.6666H53.3311V81.1149C53.3311 80.1337 53.1055 79.3997 52.6543 78.9127C52.2103 78.4257 51.5264 78.1823 50.6025 78.1823C49.2992 78.1823 48.3825 78.5511 47.8525 79.2887C47.3226 80.0263 47.0576 81.097 47.0576 82.5006V88.6666H45.2744V76.8932H46.7139L46.9824 78.5905H47.0791C47.3298 78.1751 47.6484 77.8278 48.0352 77.5485C48.4219 77.262 48.8551 77.0472 49.335 76.9039C49.8148 76.7535 50.3197 76.6783 50.8496 76.6783ZM61.6055 88.6666L57.1367 76.8932H59.0488L61.6377 84.0153C61.8167 84.5022 61.9993 85.0393 62.1855 85.6266C62.3717 86.2138 62.5007 86.6865 62.5723 87.0446H62.6475C62.7334 86.6865 62.8766 86.2138 63.0771 85.6266C63.2777 85.0322 63.4603 84.4951 63.625 84.0153L66.2139 76.8932H68.126L63.6465 88.6666H61.6055ZM74.6709 76.6998C76.0745 76.6998 77.1165 77.0149 77.7969 77.6451C78.4772 78.2753 78.8174 79.2815 78.8174 80.6637V88.6666H77.5176L77.1738 86.9264H77.0879C76.7585 87.3561 76.4147 87.7177 76.0566 88.0114C75.6986 88.2978 75.2832 88.5162 74.8105 88.6666C74.3451 88.8099 73.7721 88.8815 73.0918 88.8815C72.3757 88.8815 71.7383 88.7561 71.1797 88.5055C70.6283 88.2548 70.1914 87.8753 69.8691 87.3668C69.554 86.8584 69.3965 86.2138 69.3965 85.4332C69.3965 84.2587 69.862 83.3564 70.793 82.7262C71.724 82.096 73.1419 81.7522 75.0469 81.6949L77.0771 81.609V80.8893C77.0771 79.8724 76.8587 79.1598 76.4219 78.7516C75.985 78.3434 75.3691 78.1393 74.5742 78.1393C73.9583 78.1393 73.3711 78.2288 72.8125 78.4078C72.2539 78.5869 71.724 78.7981 71.2227 79.0416L70.6748 77.6881C71.2048 77.416 71.8135 77.1832 72.501 76.9899C73.1885 76.7965 73.9118 76.6998 74.6709 76.6998ZM77.0557 82.8658L75.2617 82.941C73.7936 82.9983 72.7588 83.2382 72.1572 83.6608C71.5557 84.0833 71.2549 84.6813 71.2549 85.4547C71.2549 86.1279 71.459 86.6256 71.8672 86.9479C72.2754 87.2701 72.8161 87.4313 73.4893 87.4313C74.5348 87.4313 75.3906 87.1412 76.0566 86.5612C76.7227 85.9811 77.0557 85.111 77.0557 83.9508V82.8658ZM84.5352 88.6666H82.7412V71.9518H84.5352V88.6666ZM90.3389 76.8932V88.6666H88.5557V76.8932H90.3389ZM89.4688 72.4889C89.7624 72.4889 90.013 72.5856 90.2207 72.7789C90.4355 72.9651 90.543 73.2587 90.543 73.6598C90.543 74.0537 90.4355 74.3473 90.2207 74.5406C90.013 74.734 89.7624 74.8307 89.4688 74.8307C89.1608 74.8307 88.903 74.734 88.6953 74.5406C88.4948 74.3473 88.3945 74.0537 88.3945 73.6598C88.3945 73.2587 88.4948 72.9651 88.6953 72.7789C88.903 72.5856 89.1608 72.4889 89.4688 72.4889ZM98.5596 88.8815C97.07 88.8815 95.8883 88.373 95.0146 87.3561C94.1481 86.3392 93.7148 84.8281 93.7148 82.8229C93.7148 80.7962 94.1589 79.2672 95.0469 78.236C95.9349 77.1976 97.1165 76.6783 98.5918 76.6783C99.2148 76.6783 99.7591 76.7607 100.225 76.9254C100.69 77.0901 101.091 77.3121 101.428 77.5914C101.764 77.8636 102.047 78.1751 102.276 78.526H102.405C102.377 78.304 102.348 77.9996 102.319 77.6129C102.291 77.2262 102.276 76.9111 102.276 76.6676V71.9518H104.06V88.6666H102.62L102.352 86.9908H102.276C102.054 87.3418 101.771 87.6604 101.428 87.9469C101.091 88.2334 100.687 88.4625 100.214 88.6344C99.7484 88.7991 99.1969 88.8815 98.5596 88.8815ZM98.8389 87.399C100.099 87.399 100.991 87.041 101.514 86.3248C102.036 85.6087 102.298 84.5452 102.298 83.1344V82.8121C102.298 81.3154 102.047 80.166 101.546 79.3639C101.052 78.5618 100.149 78.1608 98.8389 78.1608C97.7432 78.1608 96.9232 78.5833 96.3789 79.4283C95.8346 80.2662 95.5625 81.4121 95.5625 82.8658C95.5625 84.3125 95.8311 85.4296 96.3682 86.2174C96.9124 87.0052 97.736 87.399 98.8389 87.399ZM116.15 88.6666H114.324V72.9615H123.068V74.5729H116.15V80.3307H122.649V81.9313H116.15V88.6666ZM130.204 76.6783C131.207 76.6783 132.066 76.9003 132.782 77.3444C133.498 77.7884 134.046 78.4114 134.426 79.2135C134.805 80.0084 134.995 80.9394 134.995 82.0065V83.1129H126.863C126.885 84.4951 127.229 85.5478 127.895 86.2711C128.561 86.9944 129.499 87.3561 130.709 87.3561C131.454 87.3561 132.113 87.288 132.686 87.152C133.258 87.0159 133.853 86.8154 134.469 86.5504V88.1188C133.874 88.3837 133.284 88.5771 132.696 88.6989C132.116 88.8206 131.429 88.8815 130.634 88.8815C129.502 88.8815 128.514 88.6523 127.669 88.194C126.831 87.7285 126.179 87.0481 125.714 86.153C125.248 85.2578 125.016 84.1621 125.016 82.8658C125.016 81.5983 125.227 80.5026 125.649 79.5787C126.079 78.6477 126.681 77.9316 127.454 77.4303C128.235 76.929 129.151 76.6783 130.204 76.6783ZM130.183 78.1393C129.23 78.1393 128.471 78.4508 127.905 79.0739C127.34 79.6969 127.003 80.567 126.896 81.6842H133.126C133.119 80.9824 133.008 80.3665 132.793 79.8365C132.585 79.2994 132.267 78.8841 131.837 78.5905C131.407 78.2897 130.856 78.1393 130.183 78.1393ZM142.808 76.6783C143.81 76.6783 144.67 76.9003 145.386 77.3444C146.102 77.7884 146.65 78.4114 147.029 79.2135C147.409 80.0084 147.599 80.9394 147.599 82.0065V83.1129H139.467C139.488 84.4951 139.832 85.5478 140.498 86.2711C141.164 86.9944 142.102 87.3561 143.312 87.3561C144.057 87.3561 144.716 87.288 145.289 87.152C145.862 87.0159 146.456 86.8154 147.072 86.5504V88.1188C146.478 88.3837 145.887 88.5771 145.3 88.6989C144.72 88.8206 144.032 88.8815 143.237 88.8815C142.106 88.8815 141.118 88.6523 140.272 88.194C139.435 87.7285 138.783 87.0481 138.317 86.153C137.852 85.2578 137.619 84.1621 137.619 82.8658C137.619 81.5983 137.83 80.5026 138.253 79.5787C138.683 78.6477 139.284 77.9316 140.058 77.4303C140.838 76.929 141.755 76.6783 142.808 76.6783ZM142.786 78.1393C141.834 78.1393 141.075 78.4508 140.509 79.0739C139.943 79.6969 139.606 80.567 139.499 81.6842H145.729C145.722 80.9824 145.611 80.3665 145.396 79.8365C145.189 79.2994 144.87 78.8841 144.44 78.5905C144.011 78.2897 143.459 78.1393 142.786 78.1393ZM155.067 88.8815C153.578 88.8815 152.396 88.373 151.522 87.3561C150.656 86.3392 150.223 84.8281 150.223 82.8229C150.223 80.7962 150.667 79.2672 151.555 78.236C152.443 77.1976 153.624 76.6783 155.1 76.6783C155.723 76.6783 156.267 76.7607 156.732 76.9254C157.198 77.0901 157.599 77.3121 157.936 77.5914C158.272 77.8636 158.555 78.1751 158.784 78.526H158.913C158.884 78.304 158.856 77.9996 158.827 77.6129C158.799 77.2262 158.784 76.9111 158.784 76.6676V71.9518H160.567V88.6666H159.128L158.859 86.9908H158.784C158.562 87.3418 158.279 87.6604 157.936 87.9469C157.599 88.2334 157.194 88.4625 156.722 88.6344C156.256 88.7991 155.705 88.8815 155.067 88.8815ZM155.347 87.399C156.607 87.399 157.499 87.041 158.021 86.3248C158.544 85.6087 158.806 84.5452 158.806 83.1344V82.8121C158.806 81.3154 158.555 80.166 158.054 79.3639C157.56 78.5618 156.657 78.1608 155.347 78.1608C154.251 78.1608 153.431 78.5833 152.887 79.4283C152.342 80.2662 152.07 81.4121 152.07 82.8658C152.07 84.3125 152.339 85.4296 152.876 86.2174C153.42 87.0052 154.244 87.399 155.347 87.399ZM166.382 71.9518V76.1305C166.382 76.6103 166.368 77.0758 166.339 77.527C166.317 77.9781 166.299 78.3291 166.285 78.5797H166.382C166.704 78.0498 167.17 77.6022 167.778 77.2369C168.387 76.8717 169.164 76.6891 170.109 76.6891C171.585 76.6891 172.759 77.2011 173.633 78.2252C174.514 79.2421 174.954 80.7568 174.954 82.7692C174.954 84.094 174.754 85.2112 174.353 86.1207C173.951 87.0302 173.386 87.7177 172.655 88.1832C171.925 88.6487 171.062 88.8815 170.066 88.8815C169.135 88.8815 168.369 88.7096 167.768 88.3658C167.173 88.0149 166.715 87.5888 166.393 87.0875H166.253L165.888 88.6666H164.599V71.9518H166.382ZM169.819 78.1823C168.967 78.1823 168.29 78.3505 167.789 78.6871C167.288 79.0166 166.926 79.5179 166.704 80.191C166.489 80.8571 166.382 81.7021 166.382 82.7262V82.8229C166.382 84.3053 166.629 85.4404 167.123 86.2281C167.617 87.0087 168.516 87.399 169.819 87.399C170.915 87.399 171.735 86.998 172.279 86.1959C172.831 85.3938 173.106 84.248 173.106 82.7584C173.106 81.2402 172.834 80.0979 172.29 79.3317C171.753 78.5654 170.929 78.1823 169.819 78.1823ZM182.724 76.6998C184.127 76.6998 185.169 77.0149 185.85 77.6451C186.53 78.2753 186.87 79.2815 186.87 80.6637V88.6666H185.57L185.227 86.9264H185.141C184.811 87.3561 184.467 87.7177 184.109 88.0114C183.751 88.2978 183.336 88.5162 182.863 88.6666C182.398 88.8099 181.825 88.8815 181.145 88.8815C180.428 88.8815 179.791 88.7561 179.232 88.5055C178.681 88.2548 178.244 87.8753 177.922 87.3668C177.607 86.8584 177.449 86.2138 177.449 85.4332C177.449 84.2587 177.915 83.3564 178.846 82.7262C179.777 82.096 181.195 81.7522 183.1 81.6949L185.13 81.609V80.8893C185.13 79.8724 184.911 79.1598 184.475 78.7516C184.038 78.3434 183.422 78.1393 182.627 78.1393C182.011 78.1393 181.424 78.2288 180.865 78.4078C180.307 78.5869 179.777 78.7981 179.275 79.0416L178.728 77.6881C179.257 77.416 179.866 77.1832 180.554 76.9899C181.241 76.7965 181.965 76.6998 182.724 76.6998ZM185.108 82.8658L183.314 82.941C181.846 82.9983 180.812 83.2382 180.21 83.6608C179.608 84.0833 179.308 84.6813 179.308 85.4547C179.308 86.1279 179.512 86.6256 179.92 86.9479C180.328 87.2701 180.869 87.4313 181.542 87.4313C182.588 87.4313 183.443 87.1412 184.109 86.5612C184.775 85.9811 185.108 85.111 185.108 83.9508V82.8658ZM195.51 88.8815C194.45 88.8815 193.515 88.663 192.706 88.2262C191.897 87.7893 191.267 87.1233 190.815 86.2281C190.364 85.333 190.139 84.205 190.139 82.8444C190.139 81.4192 190.375 80.2555 190.848 79.3531C191.327 78.4436 191.986 77.7705 192.824 77.3336C193.662 76.8968 194.615 76.6783 195.682 76.6783C196.269 76.6783 196.835 76.7392 197.379 76.861C197.93 76.9755 198.382 77.1224 198.732 77.3014L198.195 78.7946C197.837 78.6513 197.422 78.5224 196.949 78.4078C196.484 78.2933 196.047 78.236 195.639 78.236C194.822 78.236 194.142 78.4114 193.598 78.7623C193.061 79.1132 192.656 79.6289 192.384 80.3092C192.119 80.9895 191.986 81.8274 191.986 82.8229C191.986 83.7753 192.115 84.5882 192.373 85.2614C192.638 85.9345 193.028 86.4502 193.544 86.8082C194.067 87.1591 194.718 87.3346 195.499 87.3346C196.122 87.3346 196.684 87.2701 197.186 87.1412C197.687 87.0052 198.142 86.8476 198.55 86.6686V88.2584C198.156 88.4589 197.715 88.6129 197.229 88.7203C196.749 88.8278 196.176 88.8815 195.51 88.8815ZM203.365 71.9518V80.6315C203.365 80.9179 203.354 81.2688 203.333 81.6842C203.312 82.0924 203.294 82.4541 203.279 82.7692H203.354C203.505 82.583 203.723 82.3073 204.01 81.942C204.303 81.5768 204.55 81.2832 204.751 81.0612L208.661 76.8932H210.756L206.019 81.9205L211.1 88.6666H208.951L204.794 83.0914L203.365 84.402V88.6666H201.593V71.9518H203.365Z" fill="#252A2E"/><defs><clipPath id="clip0_7345_83056"><rect width="27" height="27" fill="#fff" transform="translate(3 66.6666)"/></clipPath></defs></svg>