<svg width="468" height="94" fill="none" xmlns="http://www.w3.org/2000/svg"><rect x="1" y="1" width="466" height="54" rx="3" fill="#fff"/><path d="M22.972 37h-1.837V22.906h-4.942v-1.611h11.699v1.611h-4.92V37zM34.78 25.012c1.003 0 1.862.222 2.578.666.717.444 1.264 1.067 1.644 1.869.38.795.57 1.726.57 2.793v1.106h-8.133c.022 1.382.366 2.435 1.032 3.159.666.723 1.604 1.085 2.814 1.085.745 0 1.404-.069 1.977-.205a10.9 10.9 0 001.783-.601v1.568a8.676 8.676 0 01-1.773.58c-.58.122-1.267.183-2.062.183-1.132 0-2.12-.23-2.965-.688-.838-.465-1.49-1.145-1.955-2.04-.465-.896-.698-1.992-.698-3.288 0-1.267.211-2.363.634-3.287.43-.93 1.03-1.647 1.804-2.148.78-.502 1.697-.752 2.75-.752zm-.021 1.46c-.953 0-1.712.312-2.278.935-.565.623-.902 1.493-1.01 2.61h6.231c-.007-.701-.118-1.317-.333-1.847-.208-.537-.526-.953-.956-1.246-.43-.301-.981-.451-1.654-.451zm10.895 4.502l-4.071-5.747h2.041l3.104 4.533 3.094-4.533h2.02l-4.072 5.747L52.067 37h-2.04l-3.299-4.802L43.41 37h-2.02l4.265-6.026zm12.765 4.78c.294 0 .594-.025.902-.075.308-.05.559-.111.752-.183v1.386c-.207.093-.498.172-.87.236a6.179 6.179 0 01-1.074.097 4.32 4.32 0 01-1.697-.322c-.509-.222-.917-.595-1.225-1.118-.3-.522-.451-1.246-.451-2.17v-6.982H53.08v-.87l1.687-.698.709-2.557h1.074v2.729h3.448v1.396H56.55v6.929c0 .737.168 1.289.505 1.654.343.365.798.548 1.364.548zM68.94 37V21.295h1.827V37H68.94zm11.702-11.988c1.396 0 2.452.343 3.168 1.031.717.68 1.075 1.776 1.075 3.287V37h-1.762v-7.552c0-.98-.226-1.715-.677-2.202-.444-.487-1.128-.73-2.052-.73-1.303 0-2.22.368-2.75 1.106-.53.738-.794 1.808-.794 3.212V37h-1.784V25.227h1.44l.268 1.697h.097c.25-.415.57-.763.956-1.042.387-.287.82-.502 1.3-.645.48-.15.985-.225 1.515-.225zm13.699 0c1.468 0 2.639.505 3.513 1.514.873 1.01 1.31 2.528 1.31 4.555 0 1.34-.2 2.464-.602 3.373-.4.91-.966 1.597-1.697 2.063-.723.465-1.579.698-2.567.698-.623 0-1.171-.083-1.644-.247a3.878 3.878 0 01-1.214-.666 4.347 4.347 0 01-.838-.913h-.128l.075 1.01c.036.393.053.737.053 1.03v4.835H88.81V25.227h1.471l.237 1.74h.085c.23-.358.509-.684.838-.978.33-.3.73-.537 1.203-.709.48-.179 1.046-.268 1.698-.268zm-.312 1.504c-.816 0-1.475.157-1.976.472-.494.315-.856.788-1.085 1.418-.23.623-.351 1.408-.365 2.353v.343c0 .996.107 1.838.322 2.525.222.688.583 1.21 1.085 1.568.508.358 1.189.537 2.04.537.731 0 1.34-.197 1.827-.59.487-.394.849-.942 1.085-1.644.243-.709.365-1.522.365-2.438 0-1.39-.272-2.493-.816-3.309-.537-.824-1.365-1.235-2.482-1.235zm18.222-1.29V37h-1.461l-.258-1.654h-.096a3.427 3.427 0 01-.946 1.031c-.387.28-.823.487-1.31.623-.48.143-.992.215-1.536.215-.931 0-1.712-.15-2.342-.451a3.036 3.036 0 01-1.429-1.397c-.315-.63-.473-1.44-.473-2.427v-7.713h1.805v7.583c0 .982.222 1.716.666 2.203.444.48 1.121.72 2.03.72.874 0 1.569-.165 2.084-.495.523-.33.899-.813 1.128-1.45.229-.644.344-1.432.344-2.363v-6.198h1.794zm7.823 10.528c.294 0 .595-.025.903-.075.307-.05.558-.111.751-.183v1.386c-.207.093-.497.172-.87.236a6.174 6.174 0 01-1.074.097 4.317 4.317 0 01-1.697-.322c-.509-.222-.917-.595-1.225-1.118-.301-.522-.451-1.246-.451-2.17v-6.982h-1.676v-.87l1.687-.698.709-2.557h1.074v2.729h3.448v1.396h-3.448v6.929c0 .737.168 1.289.505 1.654.344.365.798.548 1.364.548z" fill="#252A2E"/><rect x="1" y="1" width="466" height="54" rx="3" stroke="#353A40" stroke-width="2"/><g clip-path="url(#prefix__clip0_7345_83009)"><path d="M3.844 79.5a12.6 12.6 0 1125.2 0 12.6 12.6 0 01-25.2 0z" fill="#00CC2A"/><path d="M16.444 68.025A11.451 11.451 0 0127.919 79.5a11.451 11.451 0 01-11.475 11.475c-6.356 0-11.531-5.119-11.531-11.475s5.175-11.475 11.53-11.475zm0-1.969c-7.481 0-13.5 6.019-13.5 13.444 0 7.425 6.019 13.444 13.444 13.444 7.425 0 13.5-6.02 13.5-13.444 0-7.425-6.02-13.444-13.444-13.444z" fill="#227B30"/><path d="M22.238 76.969l-1.35-1.406-6.188 6.13-2.475-2.474-1.406 1.35L14.7 84.45l1.406-1.35 6.132-6.131z" fill="#fff"/></g><path d="M48.129 72.295h1.966L44.434 88h-1.805L37 72.295h1.934l3.609 10.162c.415 1.167.745 2.302.988 3.405a28.45 28.45 0 011.01-3.47l3.588-10.097zM59.486 88l-.354-1.676h-.086c-.587.738-1.175 1.24-1.762 1.504-.58.258-1.307.387-2.18.387-1.168 0-2.084-.3-2.75-.903-.66-.601-.989-1.457-.989-2.567 0-2.377 1.902-3.624 5.704-3.738l1.998-.065v-.73c0-.924-.2-1.604-.601-2.041-.394-.444-1.028-.666-1.901-.666-.982 0-2.092.3-3.33.902l-.548-1.364a8.4 8.4 0 011.9-.741 8.318 8.318 0 012.085-.269c1.404 0 2.442.312 3.115.935.68.623 1.02 1.622 1.02 2.997V88h-1.32zm-4.028-1.257c1.11 0 1.98-.304 2.61-.913.638-.609.956-1.46.956-2.557V82.21l-1.783.075c-1.418.05-2.442.272-3.072.666-.623.387-.935.992-.935 1.816 0 .644.194 1.135.58 1.471.394.337.942.505 1.644.505zM66.525 88h-1.783V71.285h1.783V88zm5.815 0h-1.783V76.227h1.783V88zm-1.934-14.964c0-.408.1-.705.301-.892.2-.193.451-.29.752-.29.286 0 .534.097.741.29.208.194.312.491.312.892s-.104.702-.312.903c-.207.193-.455.29-.741.29-.3 0-.551-.097-.752-.29-.2-.201-.3-.502-.3-.903zm13.979 13.385h-.097c-.823 1.196-2.055 1.794-3.695 1.794-1.54 0-2.74-.526-3.599-1.58-.852-1.052-1.278-2.549-1.278-4.49 0-1.94.43-3.448 1.289-4.522.86-1.074 2.055-1.611 3.588-1.611 1.597 0 2.821.58 3.674 1.74h.14l-.076-.849-.043-.827v-4.79h1.783V88h-1.45l-.236-1.58zm-3.567.3c1.218 0 2.099-.329 2.643-.988.551-.666.827-1.736.827-3.212v-.376c0-1.668-.28-2.857-.838-3.566-.551-.716-1.436-1.074-2.653-1.074-1.046 0-1.848.408-2.406 1.225-.552.809-.828 1.955-.828 3.437 0 1.504.276 2.639.828 3.405.551.766 1.36 1.15 2.427 1.15zM98.173 88h-1.826V72.295h8.755v1.622h-6.93v5.747h6.511v1.622h-6.51V88zm14.494.215c-1.74 0-3.115-.53-4.125-1.59-1.003-1.06-1.504-2.532-1.504-4.415 0-1.898.466-3.405 1.397-4.522.938-1.118 2.195-1.676 3.77-1.676 1.475 0 2.643.487 3.502 1.46.859.968 1.289 2.246 1.289 3.836v1.127h-8.11c.036 1.383.383 2.432 1.042 3.148.666.716 1.6 1.074 2.803 1.074 1.268 0 2.521-.265 3.76-.795v1.59a9.104 9.104 0 01-1.794.58c-.558.122-1.235.183-2.03.183zm-.483-10.71c-.946 0-1.701.308-2.267.924-.559.616-.888 1.468-.988 2.556h6.155c0-1.124-.251-1.983-.752-2.578-.501-.601-1.217-.902-2.148-.902zm13.087 10.71c-1.741 0-3.116-.53-4.125-1.59-1.003-1.06-1.504-2.532-1.504-4.415 0-1.898.465-3.405 1.396-4.522.938-1.118 2.195-1.676 3.771-1.676 1.475 0 2.642.487 3.502 1.46.859.968 1.289 2.246 1.289 3.836v1.127h-8.111c.036 1.383.383 2.432 1.042 3.148.666.716 1.601 1.074 2.804 1.074 1.268 0 2.521-.265 3.76-.795v1.59a9.104 9.104 0 01-1.794.58c-.559.122-1.236.183-2.03.183zm-.484-10.71c-.945 0-1.701.308-2.266.924-.559.616-.889 1.468-.989 2.556h6.156c0-1.124-.251-1.983-.752-2.578-.502-.601-1.218-.902-2.149-.902zm16.127 8.916h-.097c-.823 1.196-2.055 1.794-3.695 1.794-1.54 0-2.739-.526-3.599-1.58-.852-1.052-1.278-2.549-1.278-4.49 0-1.94.43-3.448 1.289-4.522.86-1.074 2.056-1.611 3.588-1.611 1.597 0 2.822.58 3.674 1.74h.14l-.076-.849-.043-.827v-4.79h1.784V88h-1.451l-.236-1.58zm-3.566.3c1.217 0 2.098-.329 2.642-.988.552-.666.827-1.736.827-3.212v-.376c0-1.668-.279-2.857-.838-3.566-.551-.716-1.435-1.074-2.653-1.074-1.045 0-1.847.408-2.406 1.225-.552.809-.827 1.955-.827 3.437 0 1.504.275 2.639.827 3.405.551.766 1.361 1.15 2.428 1.15zm14.773-10.688c1.547 0 2.747.53 3.599 1.59.859 1.053 1.289 2.546 1.289 4.48 0 1.933-.433 3.437-1.3 4.511-.859 1.067-2.055 1.6-3.588 1.6-.766 0-1.468-.139-2.105-.418a3.992 3.992 0 01-1.59-1.31h-.129L147.921 88h-1.278V71.285h1.783v4.06c0 .91-.029 1.727-.086 2.45h.086c.831-1.175 2.062-1.762 3.695-1.762zm-.258 1.493c-1.217 0-2.094.351-2.632 1.053-.537.695-.805 1.87-.805 3.524s.275 2.84.827 3.555c.551.71 1.436 1.064 2.653 1.064 1.096 0 1.912-.398 2.449-1.193.538-.802.806-1.951.806-3.448 0-1.532-.268-2.675-.806-3.427-.537-.752-1.367-1.128-2.492-1.128zM167.625 88l-.354-1.676h-.086c-.588.738-1.175 1.24-1.762 1.504-.58.258-1.307.387-2.181.387-1.167 0-2.084-.3-2.75-.903-.659-.601-.988-1.457-.988-2.567 0-2.377 1.901-3.624 5.704-3.738l1.998-.065v-.73c0-.924-.2-1.604-.602-2.041-.393-.444-1.027-.666-1.901-.666-.981 0-2.091.3-3.33.902l-.548-1.364a8.394 8.394 0 011.902-.741 8.312 8.312 0 012.084-.269c1.403 0 2.442.312 3.115.935.68.623 1.02 1.622 1.02 2.997V88h-1.321zm-4.028-1.257c1.11 0 1.98-.304 2.61-.913.637-.609.956-1.46.956-2.557V82.21l-1.783.075c-1.418.05-2.442.272-3.072.666-.623.387-.935.992-.935 1.816 0 .644.193 1.135.58 1.471.394.337.942.505 1.644.505zm13.989 1.472c-1.704 0-3.026-.523-3.964-1.569-.931-1.052-1.396-2.538-1.396-4.457 0-1.97.472-3.492 1.418-4.566.952-1.074 2.306-1.611 4.06-1.611.566 0 1.132.06 1.697.182.566.122 1.01.265 1.332.43l-.547 1.515a7.998 7.998 0 00-1.29-.387 5.564 5.564 0 00-1.235-.161c-2.392 0-3.588 1.525-3.588 4.576 0 1.447.29 2.557.87 3.33.588.773 1.454 1.16 2.6 1.16.981 0 1.987-.211 3.019-.634v1.58c-.788.408-1.78.612-2.976.612zm7.791-6.241c.308-.437.777-1.01 1.407-1.72l3.803-4.027h2.116l-4.769 5.016L193.036 88h-2.159l-4.157-5.564-1.343 1.16V88h-1.762V71.285h1.762v8.862c0 .394-.029 1.003-.086 1.827h.086z" fill="#000"/><defs><clipPath id="prefix__clip0_7345_83009"><path fill="#fff" transform="translate(3 66)" d="M0 0h27v27H0z"/></clipPath></defs></svg>