<svg width="702" height="58" viewBox="0 0 702 58" fill="none" xmlns="http://www.w3.org/2000/svg">
<path d="M14.6982 25.666H12.9111V17.0996H17.8213V18.5879H14.6982V20.7969H17.6045V22.2793H14.6982V25.666ZM20.7083 22.3789C20.7083 23.0273 20.8137 23.5176 21.0247 23.8496C21.2395 24.1816 21.5872 24.3477 22.0676 24.3477C22.5442 24.3477 22.886 24.1836 23.093 23.8555C23.304 23.5234 23.4094 23.0312 23.4094 22.3789C23.4094 21.7305 23.304 21.2441 23.093 20.9199C22.8821 20.5957 22.5364 20.4336 22.0559 20.4336C21.5794 20.4336 21.2356 20.5957 21.0247 20.9199C20.8137 21.2402 20.7083 21.7266 20.7083 22.3789ZM25.2376 22.3789C25.2376 23.4453 24.9563 24.2793 24.3938 24.8809C23.8313 25.4824 23.0481 25.7832 22.0442 25.7832C21.4153 25.7832 20.8606 25.6465 20.3801 25.373C19.8997 25.0957 19.5305 24.6992 19.2727 24.1836C19.0149 23.668 18.886 23.0664 18.886 22.3789C18.886 21.3086 19.1653 20.4766 19.7239 19.8828C20.2825 19.2891 21.0676 18.9922 22.0794 18.9922C22.7083 18.9922 23.263 19.1289 23.7434 19.4023C24.2239 19.6758 24.593 20.0684 24.8509 20.5801C25.1087 21.0918 25.2376 21.6914 25.2376 22.3789ZM32.689 25.666H30.9019V21.8398C30.9019 21.3672 30.8179 21.0137 30.6499 20.7793C30.482 20.541 30.2144 20.4219 29.8472 20.4219C29.3472 20.4219 28.9859 20.5898 28.7632 20.9258C28.5406 21.2578 28.4292 21.8105 28.4292 22.584V25.666H26.6421V19.1152H28.0074L28.2476 19.9531H28.3472C28.5464 19.6367 28.8199 19.3984 29.1675 19.2383C29.5191 19.0742 29.9175 18.9922 30.3628 18.9922C31.1246 18.9922 31.7027 19.1992 32.0972 19.6133C32.4917 20.0234 32.689 20.6172 32.689 21.3945V25.666ZM37.2166 24.3594C37.5291 24.3594 37.9041 24.291 38.3416 24.1543V25.4844C37.8963 25.6836 37.3494 25.7832 36.701 25.7832C35.9861 25.7832 35.4647 25.6035 35.1365 25.2441C34.8123 24.8809 34.6502 24.3379 34.6502 23.6152V20.457H33.7947V19.7012L34.7791 19.1035L35.2947 17.7207H36.4373V19.1152H38.2713V20.457H36.4373V23.6152C36.4373 23.8691 36.5076 24.0566 36.6483 24.1777C36.7928 24.2988 36.9822 24.3594 37.2166 24.3594ZM39.0196 23.1816V21.7168H42.1661V23.1816H39.0196ZM47.9652 23.7207C47.9652 24.3926 47.7308 24.9043 47.2621 25.2559C46.7972 25.6074 46.1 25.7832 45.1703 25.7832C44.6937 25.7832 44.2875 25.75 43.9515 25.6836C43.6156 25.6211 43.3011 25.5273 43.0082 25.4023V23.9258C43.3402 24.082 43.7132 24.2129 44.1273 24.3184C44.5453 24.4238 44.9125 24.4766 45.2289 24.4766C45.8773 24.4766 46.2015 24.2891 46.2015 23.9141C46.2015 23.7734 46.1586 23.6602 46.0726 23.5742C45.9867 23.4844 45.8382 23.3848 45.6273 23.2754C45.4164 23.1621 45.1351 23.0312 44.7836 22.8828C44.2796 22.6719 43.9086 22.4766 43.6703 22.2969C43.4359 22.1172 43.264 21.9121 43.1546 21.6816C43.0492 21.4473 42.9964 21.1602 42.9964 20.8203C42.9964 20.2383 43.2211 19.7891 43.6703 19.4727C44.1234 19.1523 44.764 18.9922 45.5921 18.9922C46.3812 18.9922 47.1488 19.1641 47.8949 19.5078L47.3558 20.7969C47.0277 20.6562 46.7211 20.541 46.4359 20.4512C46.1507 20.3613 45.8597 20.3164 45.5629 20.3164C45.0355 20.3164 44.7718 20.459 44.7718 20.7441C44.7718 20.9043 44.8558 21.043 45.0238 21.1602C45.1957 21.2773 45.5687 21.4512 46.1429 21.6816C46.6546 21.8887 47.0296 22.082 47.2679 22.2617C47.5062 22.4414 47.682 22.6484 47.7953 22.8828C47.9086 23.1172 47.9652 23.3965 47.9652 23.7207ZM49.2116 17.4219C49.2116 16.8398 49.5358 16.5488 50.1842 16.5488C50.8326 16.5488 51.1569 16.8398 51.1569 17.4219C51.1569 17.6992 51.0748 17.916 50.9108 18.0723C50.7506 18.2246 50.5084 18.3008 50.1842 18.3008C49.5358 18.3008 49.2116 18.0078 49.2116 17.4219ZM51.0748 25.666H49.2877V19.1152H51.0748V25.666ZM57.4423 25.666H52.2685V24.6113L55.3036 20.4805H52.4501V19.1152H57.3368V20.2754L54.3837 24.3008H57.4423V25.666ZM61.384 20.2637C61.0051 20.2637 60.7082 20.3848 60.4933 20.627C60.2785 20.8652 60.1554 21.2051 60.1242 21.6465H62.632C62.6242 21.2051 62.509 20.8652 62.2863 20.627C62.0636 20.3848 61.7629 20.2637 61.384 20.2637ZM61.6359 25.7832C60.5812 25.7832 59.757 25.4922 59.1633 24.9102C58.5695 24.3281 58.2726 23.5039 58.2726 22.4375C58.2726 21.3398 58.5461 20.4922 59.0929 19.8945C59.6437 19.293 60.4035 18.9922 61.3722 18.9922C62.298 18.9922 63.0187 19.2559 63.5344 19.7832C64.05 20.3105 64.3078 21.0391 64.3078 21.9688V22.8359H60.0832C60.1027 23.3438 60.2531 23.7402 60.5344 24.0254C60.8156 24.3105 61.2101 24.4531 61.7179 24.4531C62.1125 24.4531 62.4855 24.4121 62.8371 24.3301C63.1886 24.248 63.5558 24.1172 63.9386 23.9375V25.3203C63.6261 25.4766 63.2922 25.5918 62.9367 25.666C62.5812 25.7441 62.1476 25.7832 61.6359 25.7832ZM65.437 24.8281C65.437 24.5 65.5249 24.252 65.7006 24.084C65.8764 23.916 66.1323 23.832 66.4682 23.832C66.7924 23.832 67.0424 23.918 67.2182 24.0898C67.3979 24.2617 67.4877 24.5078 67.4877 24.8281C67.4877 25.1367 67.3979 25.3809 67.2182 25.5605C67.0385 25.7363 66.7885 25.8242 66.4682 25.8242C66.1401 25.8242 65.8862 25.7383 65.7065 25.5664C65.5268 25.3906 65.437 25.1445 65.437 24.8281ZM65.437 19.9883C65.437 19.6602 65.5249 19.4121 65.7006 19.2441C65.8764 19.0762 66.1323 18.9922 66.4682 18.9922C66.7924 18.9922 67.0424 19.0781 67.2182 19.25C67.3979 19.4219 67.4877 19.668 67.4877 19.9883C67.4877 20.3047 67.3959 20.5508 67.2124 20.7266C67.0327 20.8984 66.7846 20.9844 66.4682 20.9844C66.1401 20.9844 65.8862 20.8984 65.7065 20.7266C65.5268 20.5547 65.437 20.3086 65.437 19.9883ZM77.3633 25.666H71.7324V24.8281L73.9883 22.5605C74.6758 21.8652 75.1289 21.3691 75.3476 21.0723C75.5664 20.7754 75.7305 20.4863 75.8398 20.2051C75.9492 19.9238 76.0039 19.6211 76.0039 19.2969C76.0039 18.8398 75.8652 18.4785 75.5879 18.2129C75.3105 17.9434 74.9258 17.8086 74.4336 17.8086C74.0781 17.8086 73.7402 17.8672 73.4199 17.9844C73.1035 18.1016 72.75 18.3145 72.3594 18.623L71.8437 17.9609C72.6328 17.3047 73.4922 16.9766 74.4219 16.9766C75.2266 16.9766 75.8574 17.1836 76.3144 17.5977C76.7715 18.0078 77 18.5605 77 19.2559C77 19.7988 76.8476 20.3359 76.543 20.8672C76.2383 21.3984 75.668 22.0703 74.832 22.8828L72.957 24.7168V24.7637H77.3633V25.666ZM84.1585 25.666H78.5276V24.8281L80.7835 22.5605C81.471 21.8652 81.9241 21.3691 82.1428 21.0723C82.3616 20.7754 82.5257 20.4863 82.635 20.2051C82.7444 19.9238 82.7991 19.6211 82.7991 19.2969C82.7991 18.8398 82.6604 18.4785 82.3831 18.2129C82.1057 17.9434 81.721 17.8086 81.2288 17.8086C80.8733 17.8086 80.5354 17.8672 80.2151 17.9844C79.8987 18.1016 79.5452 18.3145 79.1546 18.623L78.6389 17.9609C79.428 17.3047 80.2874 16.9766 81.2171 16.9766C82.0217 16.9766 82.6526 17.1836 83.1096 17.5977C83.5667 18.0078 83.7952 18.5605 83.7952 19.2559C83.7952 19.7988 83.6428 20.3359 83.3382 20.8672C83.0335 21.3984 82.4632 22.0703 81.6272 22.8828L79.7522 24.7168V24.7637H84.1585V25.666ZM89.9107 23.9141C89.9107 24.5117 89.688 24.9727 89.2427 25.2969C88.7974 25.6211 88.1724 25.7832 87.3677 25.7832C86.5162 25.7832 85.8521 25.6484 85.3755 25.3789V24.4766C85.6841 24.6328 86.0142 24.7559 86.3658 24.8457C86.7212 24.9355 87.063 24.9805 87.3912 24.9805C87.899 24.9805 88.2896 24.9004 88.563 24.7402C88.8365 24.5762 88.9732 24.3281 88.9732 23.9961C88.9732 23.7461 88.8638 23.5332 88.6451 23.3574C88.4302 23.1777 88.0083 22.9668 87.3794 22.7246C86.7818 22.502 86.356 22.3086 86.1021 22.1445C85.8521 21.9766 85.6646 21.7871 85.5396 21.5762C85.4185 21.3652 85.3579 21.1133 85.3579 20.8203C85.3579 20.2969 85.5708 19.8848 85.9966 19.584C86.4224 19.2793 87.0064 19.127 87.7486 19.127C88.44 19.127 89.1158 19.2676 89.7759 19.5488L89.4302 20.3398C88.7857 20.0742 88.2017 19.9414 87.6783 19.9414C87.2173 19.9414 86.8697 20.0137 86.6353 20.1582C86.4009 20.3027 86.2837 20.502 86.2837 20.7559C86.2837 20.9277 86.3267 21.0742 86.4126 21.1953C86.5025 21.3164 86.6451 21.4316 86.8404 21.541C87.0357 21.6504 87.4107 21.8086 87.9654 22.0156C88.7271 22.293 89.2408 22.5723 89.5064 22.8535C89.7759 23.1348 89.9107 23.4883 89.9107 23.9141ZM94.4148 25.7832C93.9969 25.7832 93.6141 25.707 93.2664 25.5547C92.9227 25.3984 92.6336 25.1602 92.3992 24.8398H92.3289C92.3758 25.2148 92.3992 25.5703 92.3992 25.9062V28.5488H91.4266V19.2441H92.2176L92.3523 20.123H92.3992C92.6492 19.7715 92.9402 19.5176 93.2723 19.3613C93.6043 19.2051 93.9852 19.127 94.4148 19.127C95.2664 19.127 95.9227 19.418 96.3836 20C96.8484 20.582 97.0809 21.3984 97.0809 22.4492C97.0809 23.5039 96.8445 24.3242 96.3719 24.9102C95.9031 25.4922 95.2508 25.7832 94.4148 25.7832ZM94.2742 19.9531C93.618 19.9531 93.1434 20.1348 92.8504 20.498C92.5574 20.8613 92.407 21.4395 92.3992 22.2324V22.4492C92.3992 23.3516 92.5496 23.998 92.8504 24.3887C93.1512 24.7754 93.6336 24.9688 94.2977 24.9688C94.8523 24.9688 95.2859 24.7441 95.5984 24.2949C95.9148 23.8457 96.0731 23.2266 96.0731 22.4375C96.0731 21.6367 95.9148 21.0234 95.5984 20.5977C95.2859 20.168 94.8445 19.9531 94.2742 19.9531ZM12.9111 37.0996H15.5771C16.792 37.0996 17.6729 37.2734 18.2197 37.6211C18.7705 37.9648 19.0459 38.5137 19.0459 39.2676C19.0459 39.7793 18.9248 40.1992 18.6826 40.5273C18.4443 40.8555 18.126 41.0527 17.7275 41.1191V41.1777C18.2705 41.2988 18.6611 41.5254 18.8994 41.8574C19.1416 42.1895 19.2627 42.6309 19.2627 43.1816C19.2627 43.9629 18.9795 44.5723 18.4131 45.0098C17.8506 45.4473 17.085 45.666 16.1162 45.666H12.9111V37.0996ZM14.7275 40.4922H15.7822C16.2744 40.4922 16.6299 40.416 16.8486 40.2637C17.0713 40.1113 17.1826 39.8594 17.1826 39.5078C17.1826 39.1797 17.0615 38.9453 16.8193 38.8047C16.5811 38.6602 16.2021 38.5879 15.6826 38.5879H14.7275V40.4922ZM14.7275 41.9336V44.166H15.9111C16.4111 44.166 16.7803 44.0703 17.0186 43.8789C17.2568 43.6875 17.376 43.3945 17.376 43C17.376 42.2891 16.8682 41.9336 15.8525 41.9336H14.7275ZM22.1848 42.3789C22.1848 43.0273 22.2903 43.5176 22.5012 43.8496C22.7161 44.1816 23.0637 44.3477 23.5442 44.3477C24.0208 44.3477 24.3626 44.1836 24.5696 43.8555C24.7805 43.5234 24.886 43.0312 24.886 42.3789C24.886 41.7305 24.7805 41.2441 24.5696 40.9199C24.3587 40.5957 24.013 40.4336 23.5325 40.4336C23.0559 40.4336 22.7122 40.5957 22.5012 40.9199C22.2903 41.2402 22.1848 41.7266 22.1848 42.3789ZM26.7141 42.3789C26.7141 43.4453 26.4329 44.2793 25.8704 44.8809C25.3079 45.4824 24.5247 45.7832 23.5208 45.7832C22.8919 45.7832 22.3372 45.6465 21.8567 45.373C21.3762 45.0957 21.0071 44.6992 20.7493 44.1836C20.4915 43.668 20.3626 43.0664 20.3626 42.3789C20.3626 41.3086 20.6419 40.4766 21.2005 39.8828C21.7591 39.2891 22.5442 38.9922 23.5559 38.9922C24.1848 38.9922 24.7395 39.1289 25.22 39.4023C25.7005 39.6758 26.0696 40.0684 26.3274 40.5801C26.5852 41.0918 26.7141 41.6914 26.7141 42.3789ZM31.7749 38.9922C32.0171 38.9922 32.2183 39.0098 32.3785 39.0449L32.2437 40.7207C32.0992 40.6816 31.9234 40.6621 31.7164 40.6621C31.146 40.6621 30.7007 40.8086 30.3804 41.1016C30.064 41.3945 29.9058 41.8047 29.9058 42.332V45.666H28.1187V39.1152H29.4722L29.7359 40.2168H29.8238C30.0269 39.8496 30.3003 39.5547 30.6441 39.332C30.9917 39.1055 31.3687 38.9922 31.7749 38.9922ZM35.5701 45.7832C34.8006 45.7832 34.1951 45.4844 33.7537 44.8867C33.3162 44.2891 33.0975 43.4609 33.0975 42.4023C33.0975 41.3281 33.3201 40.4922 33.7654 39.8945C34.2147 39.293 34.8319 38.9922 35.617 38.9922C36.4412 38.9922 37.0701 39.3125 37.5037 39.9531H37.5623C37.4725 39.4648 37.4276 39.0293 37.4276 38.6465V36.5488H39.2205V45.666H37.8494L37.5037 44.8164H37.4276C37.0213 45.4609 36.4022 45.7832 35.5701 45.7832ZM36.1971 44.3594C36.6541 44.3594 36.9881 44.2266 37.199 43.9609C37.4139 43.6953 37.5311 43.2441 37.5506 42.6074V42.4141C37.5506 41.7109 37.4412 41.207 37.2225 40.9023C37.0076 40.5977 36.6561 40.4453 36.1678 40.4453C35.7694 40.4453 35.4588 40.6152 35.2361 40.9551C35.0174 41.291 34.908 41.7812 34.908 42.4258C34.908 43.0703 35.0194 43.5547 35.242 43.8789C35.4647 44.1992 35.783 44.3594 36.1971 44.3594ZM43.7306 40.2637C43.3516 40.2637 43.0548 40.3848 42.8399 40.627C42.6251 40.8652 42.502 41.2051 42.4708 41.6465H44.9786C44.9708 41.2051 44.8556 40.8652 44.6329 40.627C44.4102 40.3848 44.1095 40.2637 43.7306 40.2637ZM43.9825 45.7832C42.9278 45.7832 42.1036 45.4922 41.5099 44.9102C40.9161 44.3281 40.6192 43.5039 40.6192 42.4375C40.6192 41.3398 40.8927 40.4922 41.4395 39.8945C41.9903 39.293 42.7501 38.9922 43.7188 38.9922C44.6446 38.9922 45.3653 39.2559 45.8809 39.7832C46.3966 40.3105 46.6544 41.0391 46.6544 41.9688V42.8359H42.4298C42.4493 43.3438 42.5997 43.7402 42.8809 44.0254C43.1622 44.3105 43.5567 44.4531 44.0645 44.4531C44.4591 44.4531 44.8321 44.4121 45.1837 44.3301C45.5352 44.248 45.9024 44.1172 46.2852 43.9375V45.3203C45.9727 45.4766 45.6388 45.5918 45.2833 45.666C44.9278 45.7441 44.4942 45.7832 43.9825 45.7832ZM51.6918 38.9922C51.9339 38.9922 52.1351 39.0098 52.2953 39.0449L52.1605 40.7207C52.016 40.6816 51.8402 40.6621 51.6332 40.6621C51.0629 40.6621 50.6175 40.8086 50.2972 41.1016C49.9808 41.3945 49.8226 41.8047 49.8226 42.332V45.666H48.0355V39.1152H49.389L49.6527 40.2168H49.7406C49.9437 39.8496 50.2171 39.5547 50.5609 39.332C50.9086 39.1055 51.2855 38.9922 51.6918 38.9922ZM52.8326 43.1816V41.7168H55.9791V43.1816H52.8326ZM60.8642 38.9922C61.1063 38.9922 61.3075 39.0098 61.4677 39.0449L61.3329 40.7207C61.1884 40.6816 61.0126 40.6621 60.8056 40.6621C60.2353 40.6621 59.7899 40.8086 59.4696 41.1016C59.1532 41.3945 58.995 41.8047 58.995 42.332V45.666H57.2079V39.1152H58.5614L58.8251 40.2168H58.913C59.1161 39.8496 59.3896 39.5547 59.7333 39.332C60.081 39.1055 60.4579 38.9922 60.8642 38.9922ZM66.7453 45.666L66.3996 44.7754H66.3527C66.0519 45.1543 65.7414 45.418 65.4211 45.5664C65.1047 45.7109 64.6906 45.7832 64.1789 45.7832C63.55 45.7832 63.0539 45.6035 62.6906 45.2441C62.3312 44.8848 62.1515 44.373 62.1515 43.709C62.1515 43.0137 62.3937 42.502 62.8781 42.1738C63.3664 41.8418 64.1008 41.6582 65.0812 41.623L66.2179 41.5879V41.3008C66.2179 40.6367 65.8781 40.3047 65.1984 40.3047C64.675 40.3047 64.0597 40.4629 63.3527 40.7793L62.7609 39.5723C63.5148 39.1777 64.3508 38.9805 65.2687 38.9805C66.1476 38.9805 66.8215 39.1719 67.2902 39.5547C67.759 39.9375 67.9933 40.5195 67.9933 41.3008V45.666H66.7453ZM66.2179 42.6309L65.5265 42.6543C65.007 42.6699 64.6203 42.7637 64.3664 42.9355C64.1125 43.1074 63.9855 43.3691 63.9855 43.7207C63.9855 44.2246 64.2746 44.4766 64.8527 44.4766C65.2668 44.4766 65.5969 44.3574 65.8429 44.1191C66.0929 43.8809 66.2179 43.5645 66.2179 43.1699V42.6309ZM71.8413 45.7832C71.0717 45.7832 70.4663 45.4844 70.0249 44.8867C69.5874 44.2891 69.3686 43.4609 69.3686 42.4023C69.3686 41.3281 69.5913 40.4922 70.0366 39.8945C70.4858 39.293 71.103 38.9922 71.8881 38.9922C72.7124 38.9922 73.3413 39.3125 73.7749 39.9531H73.8334C73.7436 39.4648 73.6987 39.0293 73.6987 38.6465V36.5488H75.4916V45.666H74.1206L73.7749 44.8164H73.6987C73.2924 45.4609 72.6733 45.7832 71.8413 45.7832ZM72.4682 44.3594C72.9252 44.3594 73.2592 44.2266 73.4702 43.9609C73.685 43.6953 73.8022 43.2441 73.8217 42.6074V42.4141C73.8217 41.7109 73.7124 41.207 73.4936 40.9023C73.2788 40.5977 72.9272 40.4453 72.4389 40.4453C72.0405 40.4453 71.7299 40.6152 71.5073 40.9551C71.2885 41.291 71.1791 41.7812 71.1791 42.4258C71.1791 43.0703 71.2905 43.5547 71.5131 43.8789C71.7358 44.1992 72.0541 44.3594 72.4682 44.3594ZM77.2126 37.4219C77.2126 36.8398 77.5368 36.5488 78.1853 36.5488C78.8337 36.5488 79.1579 36.8398 79.1579 37.4219C79.1579 37.6992 79.0759 37.916 78.9118 38.0723C78.7517 38.2246 78.5095 38.3008 78.1853 38.3008C77.5368 38.3008 77.2126 38.0078 77.2126 37.4219ZM79.0759 45.666H77.2888V39.1152H79.0759V45.666ZM85.5254 45.666L85.2851 44.8281H85.1914C85 45.1328 84.7285 45.3691 84.3769 45.5371C84.0254 45.7012 83.625 45.7832 83.1758 45.7832C82.4062 45.7832 81.8262 45.5781 81.4355 45.168C81.0449 44.7539 80.8496 44.1602 80.8496 43.3867V39.1152H82.6367V42.9414C82.6367 43.4141 82.7207 43.7695 82.8887 44.0078C83.0566 44.2422 83.3242 44.3594 83.6914 44.3594C84.1914 44.3594 84.5527 44.1934 84.7754 43.8613C84.998 43.5254 85.1094 42.9707 85.1094 42.1973V39.1152H86.8965V45.666H85.5254ZM93.2698 43.7207C93.2698 44.3926 93.0354 44.9043 92.5667 45.2559C92.1018 45.6074 91.4046 45.7832 90.4749 45.7832C89.9983 45.7832 89.5921 45.75 89.2561 45.6836C88.9202 45.6211 88.6057 45.5273 88.3128 45.4023V43.9258C88.6448 44.082 89.0178 44.2129 89.4319 44.3184C89.8499 44.4238 90.2171 44.4766 90.5335 44.4766C91.1819 44.4766 91.5061 44.2891 91.5061 43.9141C91.5061 43.7734 91.4632 43.6602 91.3772 43.5742C91.2913 43.4844 91.1428 43.3848 90.9319 43.2754C90.721 43.1621 90.4397 43.0312 90.0882 42.8828C89.5842 42.6719 89.2132 42.4766 88.9749 42.2969C88.7405 42.1172 88.5686 41.9121 88.4592 41.6816C88.3538 41.4473 88.301 41.1602 88.301 40.8203C88.301 40.2383 88.5257 39.7891 88.9749 39.4727C89.428 39.1523 90.0686 38.9922 90.8967 38.9922C91.6858 38.9922 92.4534 39.1641 93.1995 39.5078L92.6604 40.7969C92.3323 40.6562 92.0257 40.541 91.7405 40.4512C91.4553 40.3613 91.1643 40.3164 90.8674 40.3164C90.3401 40.3164 90.0764 40.459 90.0764 40.7441C90.0764 40.9043 90.1604 41.043 90.3284 41.1602C90.5003 41.2773 90.8733 41.4512 91.4475 41.6816C91.9592 41.8887 92.3342 42.082 92.5725 42.2617C92.8108 42.4414 92.9866 42.6484 93.0999 42.8828C93.2132 43.1172 93.2698 43.3965 93.2698 43.7207ZM94.3404 44.8281C94.3404 44.5 94.4283 44.252 94.604 44.084C94.7798 43.916 95.0357 43.832 95.3716 43.832C95.6958 43.832 95.9458 43.918 96.1216 44.0898C96.3013 44.2617 96.3912 44.5078 96.3912 44.8281C96.3912 45.1367 96.3013 45.3809 96.1216 45.5605C95.9419 45.7363 95.6919 45.8242 95.3716 45.8242C95.0435 45.8242 94.7896 45.7383 94.6099 45.5664C94.4302 45.3906 94.3404 45.1445 94.3404 44.8281ZM94.3404 39.9883C94.3404 39.6602 94.4283 39.4121 94.604 39.2441C94.7798 39.0762 95.0357 38.9922 95.3716 38.9922C95.6958 38.9922 95.9458 39.0781 96.1216 39.25C96.3013 39.4219 96.3912 39.668 96.3912 39.9883C96.3912 40.3047 96.2994 40.5508 96.1158 40.7266C95.9361 40.8984 95.688 40.9844 95.3716 40.9844C95.0435 40.9844 94.7896 40.8984 94.6099 40.7266C94.4302 40.5547 94.3404 40.3086 94.3404 39.9883ZM106.671 43.6973H105.399V45.666H104.468V43.6973H100.302V42.8477L104.368 37.0527H105.399V42.8125H106.671V43.6973ZM104.468 42.8125V39.9648C104.468 39.4062 104.487 38.7754 104.526 38.0723H104.48C104.292 38.4473 104.116 38.7578 103.952 39.0039L101.274 42.8125H104.468ZM112.247 44.8047H112.195C111.745 45.457 111.074 45.7832 110.179 45.7832C109.339 45.7832 108.685 45.4961 108.216 44.9219C107.751 44.3477 107.519 43.5312 107.519 42.4727C107.519 41.4141 107.753 40.5918 108.222 40.0059C108.691 39.4199 109.343 39.127 110.179 39.127C111.05 39.127 111.718 39.4434 112.183 40.0762H112.259L112.218 39.6133L112.195 39.1621V36.5488H113.167V45.666H112.376L112.247 44.8047ZM110.302 44.9688C110.966 44.9688 111.447 44.7891 111.744 44.4297C112.044 44.0664 112.195 43.4824 112.195 42.6777V42.4727C112.195 41.5625 112.042 40.9141 111.738 40.5273C111.437 40.1367 110.954 39.9414 110.29 39.9414C109.72 39.9414 109.283 40.1641 108.978 40.6094C108.677 41.0508 108.527 41.6758 108.527 42.4844C108.527 43.3047 108.677 43.9238 108.978 44.3418C109.279 44.7598 109.72 44.9688 110.302 44.9688ZM118.152 45.7832C117.734 45.7832 117.351 45.707 117.004 45.5547C116.66 45.3984 116.371 45.1602 116.136 44.8398H116.066C116.113 45.2148 116.136 45.5703 116.136 45.9062V48.5488H115.164V39.2441H115.955L116.089 40.123H116.136C116.386 39.7715 116.677 39.5176 117.009 39.3613C117.341 39.2051 117.722 39.127 118.152 39.127C119.004 39.127 119.66 39.418 120.121 40C120.586 40.582 120.818 41.3984 120.818 42.4492C120.818 43.5039 120.582 44.3242 120.109 44.9102C119.64 45.4922 118.988 45.7832 118.152 45.7832ZM118.011 39.9531C117.355 39.9531 116.88 40.1348 116.588 40.498C116.295 40.8613 116.144 41.4395 116.136 42.2324V42.4492C116.136 43.3516 116.287 43.998 116.588 44.3887C116.888 44.7754 117.371 44.9688 118.035 44.9688C118.589 44.9688 119.023 44.7441 119.336 44.2949C119.652 43.8457 119.81 43.2266 119.81 42.4375C119.81 41.6367 119.652 41.0234 119.336 40.5977C119.023 40.168 118.582 39.9531 118.011 39.9531Z" fill="black"/>
<path d="M1 55V3H139.777V13.0971L147 20.6699L139.777 27.7379V55H1Z" stroke="#CCC"/>
<path d="M173.777 34H172.67V26.877C172.67 26.2845 172.688 25.724 172.725 25.1953C172.629 25.291 172.522 25.3913 172.403 25.4961C172.285 25.6009 171.743 26.0452 170.776 26.8291L170.175 26.0498L172.82 24.0059H173.777V34ZM177.617 29.7275C177.617 27.7633 177.998 26.2959 178.759 25.3252C179.524 24.3499 180.655 23.8623 182.149 23.8623C182.664 23.8623 183.07 23.9056 183.366 23.9922V24.9697C183.015 24.8558 182.614 24.7988 182.163 24.7988C181.092 24.7988 180.274 25.1338 179.709 25.8037C179.144 26.4691 178.834 27.5173 178.779 28.9482H178.861C179.363 28.1644 180.156 27.7725 181.24 27.7725C182.138 27.7725 182.844 28.0436 183.359 28.5859C183.879 29.1283 184.139 29.8643 184.139 30.7939C184.139 31.833 183.854 32.651 183.284 33.248C182.719 33.8405 181.953 34.1367 180.987 34.1367C179.953 34.1367 179.133 33.7493 178.526 32.9746C177.92 32.1953 177.617 31.113 177.617 29.7275ZM180.974 33.1729C181.621 33.1729 182.122 32.9701 182.478 32.5645C182.838 32.1543 183.018 31.5641 183.018 30.7939C183.018 30.1331 182.851 29.6136 182.519 29.2354C182.186 28.8571 181.689 28.668 181.028 28.668C180.618 28.668 180.242 28.7523 179.9 28.9209C179.559 29.0895 179.285 29.3219 179.08 29.6182C178.88 29.9144 178.779 30.222 178.779 30.541C178.779 31.0104 178.87 31.4479 179.053 31.8535C179.235 32.2591 179.493 32.5804 179.825 32.8174C180.162 33.0544 180.545 33.1729 180.974 33.1729ZM191.048 32.9951H190.986C190.462 33.7562 189.678 34.1367 188.635 34.1367C187.655 34.1367 186.892 33.8018 186.345 33.1318C185.802 32.4619 185.531 31.5094 185.531 30.2744C185.531 29.0394 185.805 28.0801 186.352 27.3965C186.898 26.7129 187.66 26.3711 188.635 26.3711C189.651 26.3711 190.43 26.7402 190.973 27.4785H191.062L191.014 26.9385L190.986 26.4121V23.3633H192.121V34H191.198L191.048 32.9951ZM188.778 33.1865C189.553 33.1865 190.114 32.9769 190.46 32.5576C190.811 32.1338 190.986 31.4525 190.986 30.5137V30.2744C190.986 29.2126 190.809 28.4561 190.453 28.0049C190.102 27.5492 189.539 27.3213 188.765 27.3213C188.099 27.3213 187.589 27.5811 187.233 28.1006C186.883 28.6156 186.707 29.3447 186.707 30.2881C186.707 31.2451 186.883 31.9674 187.233 32.4551C187.584 32.9427 188.099 33.1865 188.778 33.1865ZM197.937 34.1367C197.449 34.1367 197.002 34.0479 196.597 33.8701C196.196 33.6878 195.858 33.4098 195.585 33.0361H195.503C195.558 33.4736 195.585 33.8883 195.585 34.2803V37.3633H194.45V26.5078H195.373L195.53 27.5332H195.585C195.877 27.123 196.216 26.8268 196.604 26.6445C196.991 26.4622 197.435 26.3711 197.937 26.3711C198.93 26.3711 199.696 26.7106 200.233 27.3896C200.776 28.0687 201.047 29.0212 201.047 30.2471C201.047 31.4775 200.771 32.4346 200.22 33.1182C199.673 33.7972 198.912 34.1367 197.937 34.1367ZM197.772 27.335C197.007 27.335 196.453 27.5469 196.111 27.9707C195.77 28.3945 195.594 29.069 195.585 29.9941V30.2471C195.585 31.2998 195.76 32.054 196.111 32.5098C196.462 32.9609 197.025 33.1865 197.8 33.1865C198.447 33.1865 198.953 32.9245 199.317 32.4004C199.687 31.8763 199.871 31.154 199.871 30.2334C199.871 29.2992 199.687 28.5837 199.317 28.0869C198.953 27.5856 198.438 27.335 197.772 27.335Z" fill="#E8178A"/>
<rect x="212.833" y="2" width="372" height="54" rx="3" fill="white"/>
<path d="M234.805 38H232.968V23.9062H228.026V22.2949H239.725V23.9062H234.805V38ZM246.613 26.0117C247.616 26.0117 248.475 26.2337 249.191 26.6777C249.908 27.1217 250.455 27.7448 250.835 28.5469C251.215 29.3418 251.404 30.2728 251.404 31.3398V32.4463H243.272C243.294 33.8285 243.638 34.8812 244.304 35.6045C244.97 36.3278 245.908 36.6895 247.118 36.6895C247.863 36.6895 248.522 36.6214 249.095 36.4854C249.668 36.3493 250.262 36.1488 250.878 35.8838V37.4521C250.284 37.7171 249.693 37.9105 249.105 38.0322C248.525 38.154 247.838 38.2148 247.043 38.2148C245.911 38.2148 244.923 37.9857 244.078 37.5273C243.24 37.0618 242.589 36.3815 242.123 35.4863C241.658 34.5911 241.425 33.4954 241.425 32.1992C241.425 30.9316 241.636 29.8359 242.059 28.9121C242.488 27.9811 243.09 27.265 243.863 26.7637C244.644 26.2624 245.561 26.0117 246.613 26.0117ZM246.592 27.4727C245.639 27.4727 244.88 27.7842 244.314 28.4072C243.749 29.0303 243.412 29.9004 243.305 31.0176H249.535C249.528 30.3158 249.417 29.6999 249.202 29.1699C248.994 28.6328 248.676 28.2174 248.246 27.9238C247.816 27.623 247.265 27.4727 246.592 27.4727ZM257.487 31.9736L253.416 26.2266H255.457L258.562 30.7598L261.655 26.2266H263.675L259.604 31.9736L263.9 38H261.859L258.562 33.1982L255.242 38H253.223L257.487 31.9736ZM270.252 36.7539C270.546 36.7539 270.846 36.7288 271.154 36.6787C271.462 36.6286 271.713 36.5677 271.906 36.4961V37.8818C271.699 37.9749 271.409 38.0537 271.036 38.1182C270.671 38.1826 270.313 38.2148 269.962 38.2148C269.339 38.2148 268.773 38.1074 268.265 37.8926C267.756 37.6706 267.348 37.2982 267.04 36.7754C266.739 36.2526 266.589 35.5293 266.589 34.6055V27.623H264.913V26.7529L266.6 26.0547L267.309 23.498H268.383V26.2266H271.831V27.623H268.383V34.5518C268.383 35.2894 268.551 35.8408 268.888 36.2061C269.231 36.5713 269.686 36.7539 270.252 36.7539ZM280.774 38V22.2949H282.601V38H280.774ZM292.476 26.0117C293.872 26.0117 294.928 26.3555 295.645 27.043C296.361 27.7233 296.719 28.819 296.719 30.3301V38H294.957V30.4482C294.957 29.4671 294.731 28.7331 294.28 28.2461C293.836 27.7591 293.152 27.5156 292.229 27.5156C290.925 27.5156 290.008 27.8844 289.479 28.6221C288.949 29.3597 288.684 30.4303 288.684 31.834V38H286.9V26.2266H288.34L288.608 27.9238H288.705C288.956 27.5085 289.274 27.1611 289.661 26.8818C290.048 26.5954 290.481 26.3805 290.961 26.2373C291.441 26.0869 291.946 26.0117 292.476 26.0117ZM306.175 26.0117C307.643 26.0117 308.814 26.5166 309.688 27.5264C310.561 28.5361 310.998 30.0544 310.998 32.0811C310.998 33.4202 310.798 34.5446 310.396 35.4541C309.995 36.3636 309.43 37.0511 308.699 37.5166C307.976 37.9821 307.12 38.2148 306.132 38.2148C305.509 38.2148 304.961 38.1325 304.488 37.9678C304.016 37.8031 303.611 37.5811 303.274 37.3018C302.938 37.0225 302.659 36.7181 302.437 36.3887H302.308C302.329 36.668 302.354 37.0046 302.383 37.3984C302.419 37.7923 302.437 38.1361 302.437 38.4297V43.2637H300.643V26.2266H302.114L302.351 27.9668H302.437C302.666 27.6087 302.945 27.2829 303.274 26.9893C303.604 26.6885 304.005 26.4521 304.478 26.2803C304.957 26.1012 305.523 26.0117 306.175 26.0117ZM305.863 27.5156C305.047 27.5156 304.388 27.6732 303.887 27.9883C303.393 28.3034 303.031 28.776 302.802 29.4062C302.573 30.0293 302.451 30.8135 302.437 31.7588V32.1025C302.437 33.098 302.544 33.9395 302.759 34.627C302.981 35.3145 303.342 35.8372 303.844 36.1953C304.352 36.5534 305.033 36.7324 305.885 36.7324C306.615 36.7324 307.224 36.5355 307.711 36.1416C308.198 35.7477 308.56 35.1999 308.796 34.498C309.039 33.7891 309.161 32.9762 309.161 32.0596C309.161 30.6702 308.889 29.5674 308.345 28.751C307.808 27.9274 306.98 27.5156 305.863 27.5156ZM324.085 26.2266V38H322.624L322.366 36.3457H322.27C322.026 36.7539 321.711 37.0977 321.324 37.377C320.938 37.6562 320.501 37.8639 320.014 38C319.534 38.1432 319.022 38.2148 318.478 38.2148C317.547 38.2148 316.766 38.0645 316.136 37.7637C315.506 37.4629 315.029 36.9974 314.707 36.3672C314.392 35.737 314.234 34.9277 314.234 33.9395V26.2266H316.039V33.8105C316.039 34.7917 316.261 35.5257 316.705 36.0127C317.149 36.4925 317.826 36.7324 318.735 36.7324C319.609 36.7324 320.304 36.5677 320.819 36.2383C321.342 35.9089 321.718 35.4255 321.947 34.7881C322.176 34.1436 322.291 33.3558 322.291 32.4248V26.2266H324.085ZM331.908 36.7539C332.202 36.7539 332.503 36.7288 332.811 36.6787C333.118 36.6286 333.369 36.5677 333.562 36.4961V37.8818C333.355 37.9749 333.065 38.0537 332.692 38.1182C332.327 38.1826 331.969 38.2148 331.618 38.2148C330.995 38.2148 330.429 38.1074 329.921 37.8926C329.412 37.6706 329.004 37.2982 328.696 36.7754C328.396 36.2526 328.245 35.5293 328.245 34.6055V27.623H326.569V26.7529L328.256 26.0547L328.965 23.498H330.039V26.2266H333.487V27.623H330.039V34.5518C330.039 35.2894 330.207 35.8408 330.544 36.2061C330.888 36.5713 331.342 36.7539 331.908 36.7539Z" fill="#90939F"/>
<rect x="212.833" y="2" width="372" height="54" rx="3" stroke="#353A40" stroke-width="2"/>
<rect x="211.833" y="1" width="16" height="54" fill="#EB3499" fill-opacity="0.4"/>
<rect x="569.833" y="2" width="16" height="54" fill="#EB3499" fill-opacity="0.4"/>
<rect x="211.333" y="0.5" width="375" height="57" stroke="#FF00FF" stroke-dasharray="2 2"/>
<path d="M610.777 31.3333H609.67V24.2102C609.67 23.6178 609.688 23.0572 609.725 22.5286C609.629 22.6243 609.522 22.7245 609.403 22.8293C609.285 22.9342 608.743 23.3785 607.776 24.1624L607.175 23.3831L609.82 21.3391H610.777V31.3333ZM614.617 27.0608C614.617 25.0966 614.998 23.6292 615.759 22.6584C616.524 21.6832 617.655 21.1956 619.149 21.1956C619.664 21.1956 620.07 21.2389 620.366 21.3254V22.303C620.015 22.189 619.614 22.1321 619.163 22.1321C618.092 22.1321 617.274 22.467 616.709 23.137C616.144 23.8023 615.834 24.8505 615.779 26.2815H615.861C616.363 25.4976 617.156 25.1057 618.24 25.1057C619.138 25.1057 619.844 25.3769 620.359 25.9192C620.879 26.4615 621.139 27.1975 621.139 28.1272C621.139 29.1663 620.854 29.9843 620.284 30.5813C619.719 31.1737 618.953 31.47 617.987 31.47C616.953 31.47 616.133 31.0826 615.526 30.3079C614.92 29.5286 614.617 28.4462 614.617 27.0608ZM617.974 30.5061C618.621 30.5061 619.122 30.3033 619.478 29.8977C619.838 29.4875 620.018 28.8974 620.018 28.1272C620.018 27.4664 619.851 26.9469 619.519 26.5686C619.186 26.1903 618.689 26.0012 618.028 26.0012C617.618 26.0012 617.242 26.0855 616.9 26.2542C616.559 26.4228 616.285 26.6552 616.08 26.9514C615.88 27.2476 615.779 27.5553 615.779 27.8743C615.779 28.3437 615.87 28.7812 616.053 29.1868C616.235 29.5924 616.493 29.9137 616.825 30.1506C617.162 30.3876 617.545 30.5061 617.974 30.5061ZM628.048 30.3284H627.986C627.462 31.0894 626.678 31.47 625.635 31.47C624.655 31.47 623.892 31.135 623.345 30.4651C622.802 29.7952 622.531 28.8427 622.531 27.6077C622.531 26.3726 622.805 25.4133 623.352 24.7297C623.898 24.0461 624.66 23.7043 625.635 23.7043C626.651 23.7043 627.43 24.0735 627.973 24.8118H628.062L628.014 24.2717L627.986 23.7454V20.6965H629.121V31.3333H628.198L628.048 30.3284ZM625.778 30.5198C626.553 30.5198 627.114 30.3101 627.46 29.8909C627.811 29.467 627.986 28.7857 627.986 27.8469V27.6077C627.986 26.5458 627.809 25.7893 627.453 25.3381C627.102 24.8824 626.539 24.6545 625.765 24.6545C625.099 24.6545 624.589 24.9143 624.233 25.4338C623.883 25.9488 623.707 26.678 623.707 27.6213C623.707 28.5784 623.883 29.3007 624.233 29.7883C624.584 30.276 625.099 30.5198 625.778 30.5198ZM634.937 31.47C634.449 31.47 634.002 31.3811 633.597 31.2034C633.196 31.0211 632.858 30.7431 632.585 30.3694H632.503C632.558 30.8069 632.585 31.2216 632.585 31.6135V34.6965H631.45V23.8411H632.373L632.53 24.8665H632.585C632.877 24.4563 633.216 24.1601 633.604 23.9778C633.991 23.7955 634.435 23.7043 634.937 23.7043C635.93 23.7043 636.696 24.0439 637.233 24.7229C637.776 25.4019 638.047 26.3544 638.047 27.5803C638.047 28.8108 637.771 29.7678 637.22 30.4514C636.673 31.1305 635.912 31.47 634.937 31.47ZM634.772 24.6682C634.007 24.6682 633.453 24.8801 633.111 25.304C632.77 25.7278 632.594 26.4023 632.585 27.3274V27.5803C632.585 28.6331 632.76 29.3873 633.111 29.843C633.462 30.2942 634.025 30.5198 634.8 30.5198C635.447 30.5198 635.953 30.2577 636.317 29.7336C636.687 29.2096 636.871 28.4872 636.871 27.5667C636.871 26.6324 636.687 25.9169 636.317 25.4202C635.953 24.9189 635.438 24.6682 634.772 24.6682Z" fill="#E8178A"/>
<path d="M639 1H648V57H639" stroke="#4091D2"/>
<path d="M657.841 26.1941C658.669 26.1941 659.328 26.4265 659.816 26.8914C660.308 27.3562 660.554 27.9929 660.554 28.8015C660.554 29.7585 660.259 30.4949 659.669 31.0105C659.08 31.5261 658.236 31.7839 657.138 31.7839C656.185 31.7839 655.416 31.6296 654.83 31.321V29.7566C655.138 29.9207 655.498 30.0554 655.908 30.1609C656.318 30.2625 656.707 30.3132 657.074 30.3132C658.179 30.3132 658.732 29.8601 658.732 28.9539C658.732 28.0906 658.16 27.6589 657.015 27.6589C656.808 27.6589 656.58 27.6804 656.33 27.7234C656.08 27.7625 655.876 27.8054 655.72 27.8523L655 27.4656L655.322 23.1003H659.968V24.6355H656.91L656.751 26.3171L656.957 26.2761C657.195 26.2214 657.49 26.1941 657.841 26.1941ZM661.449 28.0281C661.449 26.3328 661.806 25.071 662.521 24.2429C663.24 23.4148 664.314 23.0007 665.744 23.0007C666.232 23.0007 666.615 23.03 666.892 23.0886V24.5359C666.545 24.4578 666.201 24.4187 665.861 24.4187C665.24 24.4187 664.732 24.5125 664.338 24.7C663.947 24.8875 663.654 25.1648 663.459 25.532C663.263 25.8992 663.148 26.4207 663.113 27.0964H663.189C663.576 26.4324 664.195 26.1003 665.047 26.1003C665.812 26.1003 666.412 26.3406 666.845 26.821C667.279 27.3015 667.496 27.9656 667.496 28.8132C667.496 29.7273 667.238 30.4519 666.722 30.9871C666.207 31.5183 665.492 31.7839 664.578 31.7839C663.945 31.7839 663.392 31.6375 662.92 31.3445C662.451 31.0515 662.088 30.6238 661.83 30.0613C661.576 29.4988 661.449 28.821 661.449 28.0281ZM664.543 30.3367C664.929 30.3367 665.226 30.2078 665.433 29.95C665.64 29.6882 665.744 29.3171 665.744 28.8367C665.744 28.4187 665.646 28.0906 665.451 27.8523C665.26 27.6101 664.969 27.489 664.578 27.489C664.211 27.489 663.896 27.6082 663.635 27.8464C663.377 28.0847 663.248 28.3621 663.248 28.6785C663.248 29.1433 663.369 29.5359 663.611 29.8562C663.857 30.1765 664.168 30.3367 664.543 30.3367ZM670.822 31.7839C670.053 31.7839 669.447 31.4851 669.006 30.8875C668.568 30.2898 668.35 29.4617 668.35 28.4031C668.35 27.3289 668.572 26.4929 669.018 25.8953C669.467 25.2937 670.084 24.9929 670.869 24.9929C671.693 24.9929 672.322 25.3132 672.756 25.9539H672.814C672.725 25.4656 672.68 25.03 672.68 24.6472V22.5496H674.473V31.6667H673.102L672.756 30.8171H672.68C672.273 31.4617 671.654 31.7839 670.822 31.7839ZM671.449 30.3601C671.906 30.3601 672.24 30.2273 672.451 29.9617C672.666 29.696 672.783 29.2449 672.803 28.6082V28.4148C672.803 27.7117 672.693 27.2078 672.475 26.9031C672.26 26.5984 671.908 26.446 671.42 26.446C671.022 26.446 670.711 26.616 670.488 26.9558C670.27 27.2917 670.16 27.782 670.16 28.4265C670.16 29.071 670.272 29.5554 670.494 29.8796C670.717 30.2 671.035 30.3601 671.449 30.3601ZM679.867 31.7839C679.098 31.7839 678.494 31.5046 678.057 30.946H677.963C678.026 31.4929 678.057 31.8093 678.057 31.8953V34.5496H676.27V25.116H677.723L677.975 25.9656H678.057C678.475 25.3171 679.094 24.9929 679.914 24.9929C680.688 24.9929 681.293 25.2917 681.731 25.8894C682.168 26.4871 682.387 27.3171 682.387 28.3796C682.387 29.0789 682.284 29.6863 682.076 30.2019C681.873 30.7175 681.582 31.1101 681.203 31.3796C680.825 31.6492 680.379 31.7839 679.867 31.7839ZM679.34 26.4226C678.899 26.4226 678.576 26.5593 678.373 26.8328C678.17 27.1023 678.065 27.5496 678.057 28.1746V28.3679C678.057 29.071 678.16 29.575 678.367 29.8796C678.578 30.1843 678.91 30.3367 679.364 30.3367C680.164 30.3367 680.565 29.6765 680.565 28.3562C680.565 27.7117 680.465 27.2292 680.266 26.9089C680.071 26.5847 679.762 26.4226 679.34 26.4226Z" fill="#4091D2"/>
</svg>
