<svg width="468" height="95" viewBox="0 0 468 95" fill="none" xmlns="http://www.w3.org/2000/svg">
<rect x="1" y="1.66663" width="466" height="54" rx="3" fill="black"/>
<path d="M22.9717 37.6666H21.1348V23.5729H16.1934V21.9615H27.8916V23.5729H22.9717V37.6666ZM34.7803 25.6783C35.7829 25.6783 36.6423 25.9003 37.3584 26.3444C38.0745 26.7884 38.6224 27.4114 39.002 28.2135C39.3815 29.0084 39.5713 29.9394 39.5713 31.0065V32.1129H31.4395C31.4609 33.4951 31.8047 34.5478 32.4707 35.2711C33.1367 35.9944 34.0749 36.3561 35.2852 36.3561C36.0299 36.3561 36.6888 36.288 37.2617 36.152C37.8346 36.0159 38.429 35.8154 39.0449 35.5504V37.1188C38.4505 37.3837 37.8597 37.5771 37.2725 37.6989C36.6924 37.8206 36.0049 37.8815 35.21 37.8815C34.0785 37.8815 33.0902 37.6523 32.2451 37.194C31.4072 36.7285 30.7555 36.0481 30.29 35.153C29.8245 34.2578 29.5918 33.1621 29.5918 31.8658C29.5918 30.5983 29.8031 29.5026 30.2256 28.5787C30.6553 27.6477 31.2568 26.9316 32.0303 26.4303C32.8109 25.929 33.7275 25.6783 34.7803 25.6783ZM34.7588 27.1393C33.8063 27.1393 33.0472 27.4508 32.4814 28.0739C31.9157 28.6969 31.5791 29.567 31.4717 30.6842H37.7021C37.695 29.9824 37.584 29.3665 37.3691 28.8365C37.1615 28.2994 36.8428 27.8841 36.4131 27.5905C35.9834 27.2897 35.432 27.1393 34.7588 27.1393ZM45.6543 31.6403L41.583 25.8932H43.624L46.7285 30.4264L49.8223 25.8932H51.8418L47.7705 31.6403L52.0674 37.6666H50.0264L46.7285 32.8649L43.4092 37.6666H41.3896L45.6543 31.6403ZM58.4189 36.4205C58.7126 36.4205 59.0133 36.3955 59.3213 36.3453C59.6292 36.2952 59.8799 36.2343 60.0732 36.1627V37.5485C59.8656 37.6416 59.5755 37.7203 59.2031 37.7848C58.8379 37.8492 58.4798 37.8815 58.1289 37.8815C57.5059 37.8815 56.9401 37.774 56.4316 37.5592C55.9232 37.3372 55.515 36.9648 55.207 36.442C54.9062 35.9192 54.7559 35.1959 54.7559 34.2721V27.2897H53.0801V26.4196L54.7666 25.7213L55.4756 23.1647H56.5498V25.8932H59.998V27.2897H56.5498V34.2184C56.5498 34.956 56.7181 35.5074 57.0547 35.8727C57.3984 36.2379 57.8532 36.4205 58.4189 36.4205ZM68.9414 37.6666V21.9615H70.7676V37.6666H68.9414ZM80.6426 25.6783C82.0391 25.6783 83.0954 26.0221 83.8115 26.7096C84.5277 27.3899 84.8857 28.4856 84.8857 29.9967V37.6666H83.124V30.1149C83.124 29.1337 82.8984 28.3997 82.4473 27.9127C82.0033 27.4257 81.3193 27.1823 80.3955 27.1823C79.0921 27.1823 78.1755 27.5511 77.6455 28.2887C77.1156 29.0263 76.8506 30.097 76.8506 31.5006V37.6666H75.0674V25.8932H76.5068L76.7754 27.5905H76.8721C77.1227 27.1751 77.4414 26.8278 77.8281 26.5485C78.2148 26.262 78.6481 26.0472 79.1279 25.9039C79.6077 25.7535 80.1126 25.6783 80.6426 25.6783ZM94.3418 25.6783C95.8099 25.6783 96.9808 26.1832 97.8545 27.193C98.7282 28.2028 99.165 29.721 99.165 31.7477C99.165 33.0869 98.9645 34.2112 98.5635 35.1207C98.1624 36.0302 97.5967 36.7177 96.8662 37.1832C96.1429 37.6487 95.2871 37.8815 94.2988 37.8815C93.6758 37.8815 93.1279 37.7991 92.6553 37.6344C92.1826 37.4697 91.778 37.2477 91.4414 36.9684C91.1048 36.6891 90.8255 36.3847 90.6035 36.0553H90.4746C90.4961 36.3346 90.5212 36.6712 90.5498 37.0651C90.5856 37.4589 90.6035 37.8027 90.6035 38.0963V42.9303H88.8096V25.8932H90.2812L90.5176 27.6334H90.6035C90.8327 27.2753 91.112 26.9495 91.4414 26.6559C91.7708 26.3551 92.1719 26.1188 92.6445 25.9469C93.1243 25.7679 93.6901 25.6783 94.3418 25.6783ZM94.0303 27.1823C93.2139 27.1823 92.555 27.3398 92.0537 27.6549C91.5596 27.97 91.1979 28.4427 90.9688 29.0729C90.7396 29.6959 90.6178 30.4801 90.6035 31.4254V31.7692C90.6035 32.7646 90.7109 33.6061 90.9258 34.2936C91.1478 34.9811 91.5094 35.5039 92.0107 35.8619C92.5192 36.22 93.1995 36.399 94.0518 36.399C94.7822 36.399 95.391 36.2021 95.8779 35.8082C96.3649 35.4143 96.7266 34.8665 96.9629 34.1647C97.2064 33.4557 97.3281 32.6429 97.3281 31.7262C97.3281 30.3369 97.056 29.234 96.5117 28.4176C95.9746 27.594 95.1475 27.1823 94.0303 27.1823ZM112.252 25.8932V37.6666H110.791L110.533 36.0123H110.437C110.193 36.4205 109.878 36.7643 109.491 37.0436C109.104 37.3229 108.668 37.5306 108.181 37.6666C107.701 37.8099 107.189 37.8815 106.645 37.8815C105.714 37.8815 104.933 37.7311 104.303 37.4303C103.673 37.1295 103.196 36.664 102.874 36.0338C102.559 35.4036 102.401 34.5944 102.401 33.6061V25.8932H104.206V33.4772C104.206 34.4583 104.428 35.1923 104.872 35.6793C105.316 36.1591 105.993 36.399 106.902 36.399C107.776 36.399 108.471 36.2343 108.986 35.9049C109.509 35.5755 109.885 35.0921 110.114 34.4547C110.343 33.8102 110.458 33.0224 110.458 32.0914V25.8932H112.252ZM120.075 36.4205C120.369 36.4205 120.67 36.3955 120.978 36.3453C121.285 36.2952 121.536 36.2343 121.729 36.1627V37.5485C121.522 37.6416 121.232 37.7203 120.859 37.7848C120.494 37.8492 120.136 37.8815 119.785 37.8815C119.162 37.8815 118.596 37.774 118.088 37.5592C117.579 37.3372 117.171 36.9648 116.863 36.442C116.562 35.9192 116.412 35.1959 116.412 34.2721V27.2897H114.736V26.4196L116.423 25.7213L117.132 23.1647H118.206V25.8932H121.654V27.2897H118.206V34.2184C118.206 34.956 118.374 35.5074 118.711 35.8727C119.055 36.2379 119.509 36.4205 120.075 36.4205Z" fill="white"/>
<rect x="1" y="1.66663" width="466" height="54" rx="3" stroke="#353A40" stroke-width="2"/>
<g clip-path="url(#clip0_7345_83050)">
<path d="M3.84375 80.1666C3.84375 78.5119 4.16966 76.8735 4.80287 75.3448C5.43608 73.8161 6.36419 72.4271 7.5342 71.257C8.70422 70.087 10.0932 69.1589 11.6219 68.5257C13.1506 67.8925 14.7891 67.5666 16.4437 67.5666C18.0984 67.5666 19.7369 67.8925 21.2656 68.5257C22.7943 69.1589 24.1833 70.087 25.3533 71.257C26.5233 72.4271 27.4514 73.8161 28.0846 75.3448C28.7178 76.8735 29.0437 78.5119 29.0437 80.1666C29.0437 81.8212 28.7178 83.4597 28.0846 84.9884C27.4514 86.5171 26.5233 87.9061 25.3533 89.0761C24.1833 90.2462 22.7943 91.1743 21.2656 91.8075C19.7369 92.4407 18.0984 92.7666 16.4437 92.7666C14.7891 92.7666 13.1506 92.4407 11.6219 91.8075C10.0932 91.1743 8.70422 90.2462 7.5342 89.0761C6.36419 87.9061 5.43608 86.5171 4.80287 84.9884C4.16966 83.4597 3.84375 81.8212 3.84375 80.1666" fill="#00CC2A"/>
<path d="M16.4438 68.6916C22.8001 68.6916 27.9188 73.8103 27.9188 80.1666C27.9188 86.5228 22.8001 91.6416 16.4438 91.6416C10.0876 91.6416 4.9126 86.5228 4.9126 80.1666C4.9126 73.8103 10.0876 68.6916 16.4438 68.6916ZM16.4438 66.7228C8.9626 66.7228 2.94385 72.7416 2.94385 80.1666C2.94385 87.5916 8.9626 93.6103 16.3876 93.6103C23.8126 93.6103 29.8876 87.5916 29.8876 80.1666C29.8876 72.7416 23.8688 66.7228 16.4438 66.7228Z" fill="#227B30"/>
<path d="M22.2376 77.6354L20.8876 76.2291L14.7001 82.3604L12.2251 79.8854L10.8188 81.2354L14.7001 85.1166L16.1063 83.7666L22.2376 77.6354Z" fill="white"/>
</g>
<path d="M50.1162 72.9615L44.4766 88.6666H42.6396L37 72.9615H38.9121L42.5859 83.3063C42.7363 83.7216 42.8688 84.1191 42.9834 84.4987C43.1051 84.8782 43.2126 85.2434 43.3057 85.5944C43.3988 85.9453 43.4811 86.2854 43.5527 86.6149C43.6243 86.2854 43.7067 85.9453 43.7998 85.5944C43.8929 85.2363 44.0003 84.8675 44.1221 84.4879C44.2438 84.1012 44.3799 83.6966 44.5303 83.274L48.1826 72.9615H50.1162ZM56.6611 76.6998C58.0648 76.6998 59.1068 77.0149 59.7871 77.6451C60.4674 78.2753 60.8076 79.2815 60.8076 80.6637V88.6666H59.5078L59.1641 86.9264H59.0781C58.7487 87.3561 58.4049 87.7177 58.0469 88.0114C57.6888 88.2978 57.2734 88.5162 56.8008 88.6666C56.3353 88.8099 55.7624 88.8815 55.082 88.8815C54.3659 88.8815 53.7285 88.7561 53.1699 88.5055C52.6185 88.2548 52.1816 87.8753 51.8594 87.3668C51.5443 86.8584 51.3867 86.2138 51.3867 85.4332C51.3867 84.2587 51.8522 83.3564 52.7832 82.7262C53.7142 82.096 55.1322 81.7522 57.0371 81.6949L59.0674 81.609V80.8893C59.0674 79.8724 58.849 79.1598 58.4121 78.7516C57.9753 78.3434 57.3594 78.1393 56.5645 78.1393C55.9486 78.1393 55.3613 78.2288 54.8027 78.4078C54.2441 78.5869 53.7142 78.7981 53.2129 79.0416L52.665 77.6881C53.195 77.416 53.8037 77.1832 54.4912 76.9899C55.1787 76.7965 55.902 76.6998 56.6611 76.6998ZM59.0459 82.8658L57.252 82.941C55.7839 82.9983 54.749 83.2382 54.1475 83.6608C53.5459 84.0833 53.2451 84.6813 53.2451 85.4547C53.2451 86.1279 53.4492 86.6256 53.8574 86.9479C54.2656 87.2701 54.8063 87.4313 55.4795 87.4313C56.5251 87.4313 57.3809 87.1412 58.0469 86.5612C58.7129 85.9811 59.0459 85.111 59.0459 83.9508V82.8658ZM66.5254 88.6666H64.7314V71.9518H66.5254V88.6666ZM72.3291 76.8932V88.6666H70.5459V76.8932H72.3291ZM71.459 72.4889C71.7526 72.4889 72.0033 72.5856 72.2109 72.7789C72.4258 72.9651 72.5332 73.2587 72.5332 73.6598C72.5332 74.0537 72.4258 74.3473 72.2109 74.5406C72.0033 74.734 71.7526 74.8307 71.459 74.8307C71.151 74.8307 70.8932 74.734 70.6855 74.5406C70.485 74.3473 70.3848 74.0537 70.3848 73.6598C70.3848 73.2587 70.485 72.9651 70.6855 72.7789C70.8932 72.5856 71.151 72.4889 71.459 72.4889ZM80.5498 88.8815C79.0602 88.8815 77.8786 88.373 77.0049 87.3561C76.1383 86.3392 75.7051 84.8281 75.7051 82.8229C75.7051 80.7962 76.1491 79.2672 77.0371 78.236C77.9251 77.1976 79.1068 76.6783 80.582 76.6783C81.2051 76.6783 81.7493 76.7607 82.2148 76.9254C82.6803 77.0901 83.0814 77.3121 83.418 77.5914C83.7546 77.8636 84.0374 78.1751 84.2666 78.526H84.3955C84.3669 78.304 84.3382 77.9996 84.3096 77.6129C84.2809 77.2262 84.2666 76.9111 84.2666 76.6676V71.9518H86.0498V88.6666H84.6104L84.3418 86.9908H84.2666C84.0446 87.3418 83.7617 87.6604 83.418 87.9469C83.0814 88.2334 82.6768 88.4625 82.2041 88.6344C81.7386 88.7991 81.1872 88.8815 80.5498 88.8815ZM80.8291 87.399C82.0895 87.399 82.9811 87.041 83.5039 86.3248C84.0267 85.6087 84.2881 84.5452 84.2881 83.1344V82.8121C84.2881 81.3154 84.0374 80.166 83.5361 79.3639C83.042 78.5618 82.1396 78.1608 80.8291 78.1608C79.7334 78.1608 78.9134 78.5833 78.3691 79.4283C77.8249 80.2662 77.5527 81.4121 77.5527 82.8658C77.5527 84.3125 77.8213 85.4296 78.3584 86.2174C78.9027 87.0052 79.7262 87.399 80.8291 87.399ZM98.1406 88.6666H96.3145V72.9615H105.059V74.5729H98.1406V80.3307H104.64V81.9313H98.1406V88.6666ZM112.194 76.6783C113.197 76.6783 114.056 76.9003 114.772 77.3444C115.489 77.7884 116.036 78.4114 116.416 79.2135C116.796 80.0084 116.985 80.9394 116.985 82.0065V83.1129H108.854C108.875 84.4951 109.219 85.5478 109.885 86.2711C110.551 86.9944 111.489 87.3561 112.699 87.3561C113.444 87.3561 114.103 87.288 114.676 87.152C115.249 87.0159 115.843 86.8154 116.459 86.5504V88.1188C115.865 88.3837 115.274 88.5771 114.687 88.6989C114.106 88.8206 113.419 88.8815 112.624 88.8815C111.493 88.8815 110.504 88.6523 109.659 88.194C108.821 87.7285 108.17 87.0481 107.704 86.153C107.239 85.2578 107.006 84.1621 107.006 82.8658C107.006 81.5983 107.217 80.5026 107.64 79.5787C108.069 78.6477 108.671 77.9316 109.444 77.4303C110.225 76.929 111.142 76.6783 112.194 76.6783ZM112.173 78.1393C111.22 78.1393 110.461 78.4508 109.896 79.0739C109.33 79.6969 108.993 80.567 108.886 81.6842H115.116C115.109 80.9824 114.998 80.3665 114.783 79.8365C114.576 79.2994 114.257 78.8841 113.827 78.5905C113.397 78.2897 112.846 78.1393 112.173 78.1393ZM124.798 76.6783C125.8 76.6783 126.66 76.9003 127.376 77.3444C128.092 77.7884 128.64 78.4114 129.02 79.2135C129.399 80.0084 129.589 80.9394 129.589 82.0065V83.1129H121.457C121.479 84.4951 121.822 85.5478 122.488 86.2711C123.154 86.9944 124.092 87.3561 125.303 87.3561C126.048 87.3561 126.706 87.288 127.279 87.152C127.852 87.0159 128.447 86.8154 129.062 86.5504V88.1188C128.468 88.3837 127.877 88.5771 127.29 88.6989C126.71 88.8206 126.022 88.8815 125.228 88.8815C124.096 88.8815 123.108 88.6523 122.263 88.194C121.425 87.7285 120.773 87.0481 120.308 86.153C119.842 85.2578 119.609 84.1621 119.609 82.8658C119.609 81.5983 119.821 80.5026 120.243 79.5787C120.673 78.6477 121.274 77.9316 122.048 77.4303C122.828 76.929 123.745 76.6783 124.798 76.6783ZM124.776 78.1393C123.824 78.1393 123.065 78.4508 122.499 79.0739C121.933 79.6969 121.597 80.567 121.489 81.6842H127.72C127.713 80.9824 127.602 80.3665 127.387 79.8365C127.179 79.2994 126.86 78.8841 126.431 78.5905C126.001 78.2897 125.45 78.1393 124.776 78.1393ZM137.058 88.8815C135.568 88.8815 134.386 88.373 133.513 87.3561C132.646 86.3392 132.213 84.8281 132.213 82.8229C132.213 80.7962 132.657 79.2672 133.545 78.236C134.433 77.1976 135.615 76.6783 137.09 76.6783C137.713 76.6783 138.257 76.7607 138.723 76.9254C139.188 77.0901 139.589 77.3121 139.926 77.5914C140.262 77.8636 140.545 78.1751 140.774 78.526H140.903C140.875 78.304 140.846 77.9996 140.817 77.6129C140.789 77.2262 140.774 76.9111 140.774 76.6676V71.9518H142.558V88.6666H141.118L140.85 86.9908H140.774C140.552 87.3418 140.27 87.6604 139.926 87.9469C139.589 88.2334 139.185 88.4625 138.712 88.6344C138.246 88.7991 137.695 88.8815 137.058 88.8815ZM137.337 87.399C138.597 87.399 139.489 87.041 140.012 86.3248C140.535 85.6087 140.796 84.5452 140.796 83.1344V82.8121C140.796 81.3154 140.545 80.166 140.044 79.3639C139.55 78.5618 138.647 78.1608 137.337 78.1608C136.241 78.1608 135.421 78.5833 134.877 79.4283C134.333 80.2662 134.061 81.4121 134.061 82.8658C134.061 84.3125 134.329 85.4296 134.866 86.2174C135.41 87.0052 136.234 87.399 137.337 87.399ZM148.372 71.9518V76.1305C148.372 76.6103 148.358 77.0758 148.329 77.527C148.308 77.9781 148.29 78.3291 148.275 78.5797H148.372C148.694 78.0498 149.16 77.6022 149.769 77.2369C150.377 76.8717 151.154 76.6891 152.1 76.6891C153.575 76.6891 154.749 77.2011 155.623 78.2252C156.504 79.2421 156.944 80.7568 156.944 82.7692C156.944 84.094 156.744 85.2112 156.343 86.1207C155.942 87.0302 155.376 87.7177 154.646 88.1832C153.915 88.6487 153.052 88.8815 152.057 88.8815C151.126 88.8815 150.359 88.7096 149.758 88.3658C149.163 88.0149 148.705 87.5888 148.383 87.0875H148.243L147.878 88.6666H146.589V71.9518H148.372ZM151.81 78.1823C150.957 78.1823 150.281 78.3505 149.779 78.6871C149.278 79.0166 148.916 79.5179 148.694 80.191C148.479 80.8571 148.372 81.7021 148.372 82.7262V82.8229C148.372 84.3053 148.619 85.4404 149.113 86.2281C149.607 87.0087 150.506 87.399 151.81 87.399C152.905 87.399 153.725 86.998 154.27 86.1959C154.821 85.3938 155.097 84.248 155.097 82.7584C155.097 81.2402 154.825 80.0979 154.28 79.3317C153.743 78.5654 152.92 78.1823 151.81 78.1823ZM164.714 76.6998C166.118 76.6998 167.16 77.0149 167.84 77.6451C168.52 78.2753 168.86 79.2815 168.86 80.6637V88.6666H167.561L167.217 86.9264H167.131C166.801 87.3561 166.458 87.7177 166.1 88.0114C165.742 88.2978 165.326 88.5162 164.854 88.6666C164.388 88.8099 163.815 88.8815 163.135 88.8815C162.419 88.8815 161.781 88.7561 161.223 88.5055C160.671 88.2548 160.234 87.8753 159.912 87.3668C159.597 86.8584 159.439 86.2138 159.439 85.4332C159.439 84.2587 159.905 83.3564 160.836 82.7262C161.767 82.096 163.185 81.7522 165.09 81.6949L167.12 81.609V80.8893C167.12 79.8724 166.902 79.1598 166.465 78.7516C166.028 78.3434 165.412 78.1393 164.617 78.1393C164.001 78.1393 163.414 78.2288 162.855 78.4078C162.297 78.5869 161.767 78.7981 161.266 79.0416L160.718 77.6881C161.248 77.416 161.856 77.1832 162.544 76.9899C163.231 76.7965 163.955 76.6998 164.714 76.6998ZM167.099 82.8658L165.305 82.941C163.837 82.9983 162.802 83.2382 162.2 83.6608C161.599 84.0833 161.298 84.6813 161.298 85.4547C161.298 86.1279 161.502 86.6256 161.91 86.9479C162.318 87.2701 162.859 87.4313 163.532 87.4313C164.578 87.4313 165.434 87.1412 166.1 86.5612C166.766 85.9811 167.099 85.111 167.099 83.9508V82.8658ZM177.5 88.8815C176.44 88.8815 175.506 88.663 174.696 88.2262C173.887 87.7893 173.257 87.1233 172.806 86.2281C172.354 85.333 172.129 84.205 172.129 82.8444C172.129 81.4192 172.365 80.2555 172.838 79.3531C173.318 78.4436 173.977 77.7705 174.814 77.3336C175.652 76.8968 176.605 76.6783 177.672 76.6783C178.259 76.6783 178.825 76.7392 179.369 76.861C179.921 76.9755 180.372 77.1224 180.723 77.3014L180.186 78.7946C179.827 78.6513 179.412 78.5224 178.939 78.4078C178.474 78.2933 178.037 78.236 177.629 78.236C176.812 78.236 176.132 78.4114 175.588 78.7623C175.051 79.1132 174.646 79.6289 174.374 80.3092C174.109 80.9895 173.977 81.8274 173.977 82.8229C173.977 83.7753 174.105 84.5882 174.363 85.2614C174.628 85.9345 175.019 86.4502 175.534 86.8082C176.057 87.1591 176.709 87.3346 177.489 87.3346C178.112 87.3346 178.674 87.2701 179.176 87.1412C179.677 87.0052 180.132 86.8476 180.54 86.6686V88.2584C180.146 88.4589 179.706 88.6129 179.219 88.7203C178.739 88.8278 178.166 88.8815 177.5 88.8815ZM185.355 71.9518V80.6315C185.355 80.9179 185.345 81.2688 185.323 81.6842C185.302 82.0924 185.284 82.4541 185.27 82.7692H185.345C185.495 82.583 185.714 82.3073 186 81.942C186.294 81.5768 186.541 81.2832 186.741 81.0612L190.651 76.8932H192.746L188.009 81.9205L193.09 88.6666H190.941L186.784 83.0914L185.355 84.402V88.6666H183.583V71.9518H185.355Z" fill="black"/>
<defs>
<clipPath id="clip0_7345_83050">
<rect width="27" height="27" fill="white" transform="translate(3 66.6666)"/>
</clipPath>
</defs>
</svg>
