<svg width="468" height="94" fill="none" xmlns="http://www.w3.org/2000/svg"><rect x="1" y="1" width="466" height="54" rx="3" fill="#fff"/><path d="M22.972 37h-1.837V22.906h-4.942v-1.611h11.699v1.611h-4.92V37zM34.78 25.012c1.003 0 1.862.222 2.578.666.717.444 1.264 1.067 1.644 1.869.38.795.57 1.726.57 2.793v1.106h-8.133c.022 1.382.366 2.435 1.032 3.159.666.723 1.604 1.085 2.814 1.085.745 0 1.404-.069 1.977-.205a10.9 10.9 0 001.783-.601v1.568a8.676 8.676 0 01-1.773.58c-.58.122-1.267.183-2.062.183-1.132 0-2.12-.23-2.965-.688-.838-.465-1.49-1.145-1.955-2.04-.465-.896-.698-1.992-.698-3.288 0-1.267.211-2.363.634-3.287.43-.93 1.03-1.647 1.804-2.148.78-.502 1.697-.752 2.75-.752zm-.021 1.46c-.953 0-1.712.312-2.278.935-.565.623-.902 1.493-1.01 2.61h6.231c-.007-.701-.118-1.317-.333-1.847-.208-.537-.526-.953-.956-1.246-.43-.301-.981-.451-1.654-.451zm10.895 4.502l-4.071-5.747h2.041l3.104 4.533 3.094-4.533h2.02l-4.072 5.747L52.067 37h-2.04l-3.299-4.802L43.41 37h-2.02l4.265-6.026zm12.765 4.78c.294 0 .594-.025.902-.075.308-.05.559-.111.752-.183v1.386c-.207.093-.498.172-.87.236a6.179 6.179 0 01-1.074.097 4.32 4.32 0 01-1.697-.322c-.509-.222-.917-.595-1.225-1.118-.3-.522-.451-1.246-.451-2.17v-6.982H53.08v-.87l1.687-.698.709-2.557h1.074v2.729h3.448v1.396H56.55v6.929c0 .737.168 1.289.505 1.654.343.365.798.548 1.364.548zM68.94 37V21.295h1.827V37H68.94zm11.702-11.988c1.396 0 2.452.343 3.168 1.031.717.68 1.075 1.776 1.075 3.287V37h-1.762v-7.552c0-.98-.226-1.715-.677-2.202-.444-.487-1.128-.73-2.052-.73-1.303 0-2.22.368-2.75 1.106-.53.738-.794 1.808-.794 3.212V37h-1.784V25.227h1.44l.268 1.697h.097c.25-.415.57-.763.956-1.042.387-.287.82-.502 1.3-.645.48-.15.985-.225 1.515-.225zm13.699 0c1.468 0 2.639.505 3.513 1.514.873 1.01 1.31 2.528 1.31 4.555 0 1.34-.2 2.464-.602 3.373-.4.91-.966 1.597-1.697 2.063-.723.465-1.579.698-2.567.698-.623 0-1.171-.083-1.644-.247a3.878 3.878 0 01-1.214-.666 4.347 4.347 0 01-.838-.913h-.128l.075 1.01c.036.393.053.737.053 1.03v4.835H88.81V25.227h1.471l.237 1.74h.085c.23-.358.509-.684.838-.978.33-.3.73-.537 1.203-.709.48-.179 1.046-.268 1.698-.268zm-.312 1.504c-.816 0-1.475.157-1.976.472-.494.315-.856.788-1.085 1.418-.23.623-.351 1.408-.365 2.353v.343c0 .996.107 1.838.322 2.525.222.688.583 1.21 1.085 1.568.508.358 1.189.537 2.04.537.731 0 1.34-.197 1.827-.59.487-.394.849-.942 1.085-1.644.243-.709.365-1.522.365-2.438 0-1.39-.272-2.493-.816-3.309-.537-.824-1.365-1.235-2.482-1.235zm18.222-1.29V37h-1.461l-.258-1.654h-.096a3.427 3.427 0 01-.946 1.031c-.387.28-.823.487-1.31.623-.48.143-.992.215-1.536.215-.931 0-1.712-.15-2.342-.451a3.036 3.036 0 01-1.429-1.397c-.315-.63-.473-1.44-.473-2.427v-7.713h1.805v7.583c0 .982.222 1.716.666 2.203.444.48 1.121.72 2.03.72.874 0 1.569-.165 2.084-.495.523-.33.899-.813 1.128-1.45.229-.644.344-1.432.344-2.363v-6.198h1.794zm7.823 10.528c.294 0 .595-.025.903-.075.307-.05.558-.111.751-.183v1.386c-.207.093-.497.172-.87.236a6.174 6.174 0 01-1.074.097 4.317 4.317 0 01-1.697-.322c-.509-.222-.917-.595-1.225-1.118-.301-.522-.451-1.246-.451-2.17v-6.982h-1.676v-.87l1.687-.698.709-2.557h1.074v2.729h3.448v1.396h-3.448v6.929c0 .737.168 1.289.505 1.654.344.365.798.548 1.364.548z" fill="#252A2E"/><rect x="1" y="1" width="466" height="54" rx="3" stroke="#353A40" stroke-width="2"/><g clip-path="url(#prefix__clip0_7345_82999)"><path d="M5.138 79.5c0 1.566.294 3.117.865 4.564a11.98 11.98 0 002.463 3.868 11.343 11.343 0 003.686 2.585c1.379.6 2.856.908 4.348.908s2.97-.308 4.348-.908a11.343 11.343 0 003.687-2.585 11.98 11.98 0 002.463-3.868 12.44 12.44 0 00.865-4.564 12.44 12.44 0 00-.865-4.564 11.98 11.98 0 00-2.463-3.868 11.343 11.343 0 00-3.687-2.585 10.898 10.898 0 00-4.348-.908c-1.492 0-2.97.308-4.348.908a11.343 11.343 0 00-3.686 2.585 11.98 11.98 0 00-2.463 3.868 12.439 12.439 0 00-.865 4.564z" fill="#019AEB"/><path d="M16.5 68.588c6.019 0 10.912 4.893 10.912 10.912 0 6.019-4.893 10.912-10.912 10.912-6.019 0-10.913-4.893-10.913-10.912 0-6.019 4.894-10.912 10.913-10.912zm0-1.913c-7.088 0-12.825 5.737-12.825 12.825 0 7.088 5.737 12.825 12.825 12.825 7.087 0 12.825-5.737 12.825-12.825 0-7.088-5.738-12.825-12.825-12.825z" fill="#0E416C"/><path d="M17.737 83.269h.9v1.687h-4.275V83.27h1.294V79.33h-1.294v-1.743h3.375v5.68zm-2.193-6.75h2.193v-2.475h-2.193v2.475z" fill="#fff"/></g><path d="M51.083 88h-1.826v-7.39h-8.272V88H39.16V72.295h1.826v6.682h8.272v-6.682h1.826V88zm9.273.215c-1.74 0-3.115-.53-4.125-1.59-1.002-1.06-1.504-2.532-1.504-4.415 0-1.898.466-3.405 1.397-4.522.938-1.118 2.195-1.676 3.77-1.676 1.476 0 2.643.487 3.503 1.46.859.968 1.289 2.246 1.289 3.836v1.127h-8.11c.035 1.383.382 2.432 1.041 3.148.666.716 1.6 1.074 2.804 1.074 1.267 0 2.52-.265 3.76-.795v1.59a9.113 9.113 0 01-1.794.58c-.559.122-1.236.183-2.03.183zm-.483-10.71c-.945 0-1.7.308-2.267.924-.558.616-.888 1.468-.988 2.556h6.155c0-1.124-.25-1.983-.752-2.578-.5-.601-1.217-.902-2.148-.902zM69.769 88h-1.783V71.285h1.783V88zm9.51.215a5.19 5.19 0 01-2.105-.42 4.002 4.002 0 01-1.59-1.31h-.129c.086.688.129 1.34.129 1.955v4.845h-1.783V76.227h1.45l.247 1.61h.086c.458-.644.992-1.11 1.6-1.396.61-.286 1.308-.43 2.095-.43 1.562 0 2.765.534 3.61 1.601.852 1.067 1.278 2.564 1.278 4.49 0 1.934-.433 3.438-1.3 4.512-.86 1.067-2.055 1.6-3.588 1.6zm-.257-10.689c-1.204 0-2.074.333-2.61 1-.538.665-.814 1.725-.828 3.18v.397c0 1.654.276 2.84.827 3.555.552.71 1.436 1.064 2.653 1.064 1.017 0 1.812-.412 2.385-1.236.58-.823.87-1.958.87-3.405 0-1.468-.29-2.592-.87-3.373-.573-.788-1.382-1.182-2.427-1.182zm13.495 10.689c-1.74 0-3.116-.53-4.125-1.59-1.003-1.06-1.504-2.532-1.504-4.415 0-1.898.465-3.405 1.396-4.522.938-1.118 2.195-1.676 3.77-1.676 1.476 0 2.643.487 3.503 1.46.859.968 1.289 2.246 1.289 3.836v1.127h-8.11c.035 1.383.382 2.432 1.041 3.148.666.716 1.6 1.074 2.804 1.074 1.268 0 2.52-.265 3.76-.795v1.59a9.114 9.114 0 01-1.794.58c-.559.122-1.236.183-2.03.183zm-.484-10.71c-.945 0-1.7.308-2.266.924-.559.616-.888 1.468-.989 2.556h6.156c0-1.124-.251-1.983-.752-2.578-.502-.601-1.218-.902-2.149-.902zm13.485-1.493c.522 0 .991.043 1.407.129l-.247 1.654a6.078 6.078 0 00-1.289-.161c-.953 0-1.769.386-2.45 1.16-.673.773-1.009 1.737-1.009 2.89V88h-1.784V76.227h1.472l.204 2.18h.086c.437-.766.963-1.357 1.579-1.772a3.556 3.556 0 012.031-.623zM120.444 88h-1.826V73.917h-4.973v-1.622h11.773v1.622h-4.974V88zm12.303.215c-1.74 0-3.115-.53-4.125-1.59-1.003-1.06-1.504-2.532-1.504-4.415 0-1.898.466-3.405 1.397-4.522.938-1.118 2.195-1.676 3.77-1.676 1.475 0 2.643.487 3.502 1.46.859.968 1.289 2.246 1.289 3.836v1.127h-8.11c.036 1.383.383 2.432 1.042 3.148.666.716 1.6 1.074 2.804 1.074 1.267 0 2.52-.265 3.759-.795v1.59a9.104 9.104 0 01-1.794.58c-.558.122-1.235.183-2.03.183zm-.483-10.71c-.946 0-1.701.308-2.267.924-.559.616-.888 1.468-.988 2.556h6.155c0-1.124-.251-1.983-.752-2.578-.501-.601-1.217-.902-2.148-.902zm10.949 4.469l-4.093-5.747h2.03l3.105 4.511 3.094-4.511h2.008l-4.092 5.747L149.572 88h-2.019l-3.298-4.77-3.33 4.77h-2.02l4.308-6.026zm12.754 4.77a6.3 6.3 0 00.913-.065c.294-.05.526-.1.698-.15v1.364c-.193.093-.48.168-.859.225a5.985 5.985 0 01-1.01.097c-2.277 0-3.416-1.2-3.416-3.599v-7.004h-1.687v-.86l1.687-.74.752-2.514h1.031v2.729h3.416v1.385h-3.416v6.929c0 .709.168 1.253.505 1.633.337.38.799.57 1.386.57z" fill="#000"/><defs><clipPath id="prefix__clip0_7345_82999"><path fill="#fff" transform="translate(3 66)" d="M0 0h27v27H0z"/></clipPath></defs></svg>