<svg width="468" height="95" fill="none" xmlns="http://www.w3.org/2000/svg"><rect x="1" y="1.667" width="466" height="54" rx="3" fill="#000"/><path d="M22.972 37.666h-1.837V23.573h-4.942V21.96h11.699v1.612h-4.92v14.093zM34.78 25.678c1.003 0 1.862.222 2.578.666.717.444 1.264 1.067 1.644 1.87.38.794.57 1.725.57 2.792v1.107h-8.133c.022 1.382.366 2.435 1.032 3.158.666.723 1.604 1.085 2.814 1.085.745 0 1.404-.068 1.977-.204a10.9 10.9 0 001.783-.602v1.569a8.682 8.682 0 01-1.773.58c-.58.122-1.267.182-2.062.182-1.132 0-2.12-.229-2.965-.687-.838-.466-1.49-1.146-1.955-2.041-.465-.895-.698-1.991-.698-3.287 0-1.268.211-2.364.634-3.287.43-.931 1.03-1.648 1.804-2.149.78-.501 1.697-.752 2.75-.752zm-.021 1.461c-.953 0-1.712.312-2.278.935-.565.623-.902 1.493-1.01 2.61h6.231c-.007-.702-.118-1.318-.333-1.848-.208-.537-.526-.952-.956-1.246-.43-.3-.981-.45-1.654-.45zm10.895 4.501l-4.071-5.747h2.041l3.104 4.533 3.094-4.533h2.02L47.77 31.64l4.297 6.026h-2.04l-3.299-4.801-3.319 4.801h-2.02l4.265-6.026zm12.765 4.78c.294 0 .594-.025.902-.075.308-.05.559-.11.752-.182v1.385c-.207.093-.498.172-.87.237a6.179 6.179 0 01-1.074.096 4.32 4.32 0 01-1.697-.322c-.509-.222-.917-.594-1.225-1.117-.3-.523-.451-1.246-.451-2.17V27.29H53.08v-.87l1.687-.699.709-2.556h1.074v2.728h3.448v1.397H56.55v6.928c0 .738.168 1.29.505 1.655.343.365.798.547 1.364.547zm10.522 1.246V21.962h1.827v15.706H68.94zm11.702-11.988c1.396 0 2.452.344 3.168 1.031.717.68 1.075 1.776 1.075 3.288v7.67h-1.762v-7.552c0-.981-.226-1.715-.677-2.202-.444-.487-1.128-.73-2.052-.73-1.303 0-2.22.368-2.75 1.106-.53.737-.794 1.808-.794 3.211v6.166h-1.784V25.893h1.44l.268 1.697h.097c.25-.415.57-.762.956-1.042.387-.286.82-.501 1.3-.644.48-.15.985-.226 1.515-.226zm13.699 0c1.468 0 2.639.505 3.513 1.515.873 1.01 1.31 2.528 1.31 4.555 0 1.339-.2 2.463-.602 3.373-.4.91-.966 1.597-1.697 2.062-.723.466-1.579.698-2.567.698-.623 0-1.171-.082-1.644-.247a3.878 3.878 0 01-1.214-.666 4.347 4.347 0 01-.838-.913h-.128l.075 1.01c.036.394.053.738.053 1.031v4.834H88.81V25.893h1.471l.237 1.74h.085c.23-.358.509-.684.838-.977.33-.301.73-.537 1.203-.71.48-.178 1.046-.268 1.698-.268zm-.312 1.504c-.816 0-1.475.158-1.976.473-.494.315-.856.787-1.085 1.418-.23.623-.351 1.407-.365 2.352v.344c0 .995.107 1.837.322 2.525.222.687.583 1.21 1.085 1.568.508.358 1.189.537 2.04.537.731 0 1.34-.197 1.827-.59.487-.395.849-.943 1.085-1.644.243-.71.365-1.522.365-2.439 0-1.39-.272-2.492-.816-3.308-.537-.824-1.365-1.236-2.482-1.236zm18.222-1.289v11.773h-1.461l-.258-1.654h-.096a3.427 3.427 0 01-.946 1.032c-.387.279-.823.486-1.31.623-.48.143-.992.214-1.536.214-.931 0-1.712-.15-2.342-.45a3.036 3.036 0 01-1.429-1.397c-.315-.63-.473-1.44-.473-2.428v-7.713h1.805v7.584c0 .981.222 1.715.666 2.202.444.48 1.121.72 2.03.72.874 0 1.569-.165 2.084-.494.523-.33.899-.813 1.128-1.45.229-.645.344-1.433.344-2.364v-6.198h1.794zm7.823 10.527c.294 0 .595-.025.903-.075.307-.05.558-.11.751-.182v1.385c-.207.093-.497.172-.87.237a6.174 6.174 0 01-1.074.096 4.317 4.317 0 01-1.697-.322c-.509-.222-.917-.594-1.225-1.117-.301-.523-.451-1.246-.451-2.17V27.29h-1.676v-.87l1.687-.699.709-2.556h1.074v2.728h3.448v1.397h-3.448v6.928c0 .738.168 1.29.505 1.655.344.365.798.547 1.364.547z" fill="#fff"/><rect x="1" y="1.667" width="466" height="54" rx="3" stroke="#353A40" stroke-width="2"/><path d="M5.138 80.166c0 1.567.294 3.117.865 4.564a11.98 11.98 0 002.463 3.869 11.343 11.343 0 003.686 2.585c1.379.599 2.856.907 4.348.907s2.97-.308 4.348-.907a11.343 11.343 0 003.687-2.585 11.98 11.98 0 002.463-3.869 12.44 12.44 0 00.865-4.564 12.44 12.44 0 00-.865-4.563 11.98 11.98 0 00-2.463-3.869 11.343 11.343 0 00-3.687-2.585 10.898 10.898 0 00-4.348-.907c-1.492 0-2.97.308-4.348.907a11.343 11.343 0 00-3.686 2.585 11.98 11.98 0 00-2.463 3.869 12.439 12.439 0 00-.865 4.564z" fill="#019AEB"/><path d="M16.5 69.254c6.019 0 10.912 4.894 10.912 10.913 0 6.018-4.893 10.912-10.912 10.912-6.019 0-10.913-4.894-10.913-10.912 0-6.02 4.894-10.913 10.913-10.913zm0-1.912c-7.088 0-12.825 5.737-12.825 12.825 0 7.087 5.737 12.825 12.825 12.825 7.087 0 12.825-5.738 12.825-12.825 0-7.088-5.738-12.825-12.825-12.825z" fill="#0E416C"/><path d="M17.737 83.935h.9v1.688h-4.275v-1.688h1.294v-3.937h-1.294v-1.744h3.375v5.681zm-2.193-6.75h2.193V74.71h-2.193v2.475zM51.083 88.666h-1.826v-7.39h-8.272v7.39H39.16V72.962h1.826v6.682h8.272v-6.682h1.826v15.706zm9.273.215c-1.74 0-3.115-.53-4.125-1.59-1.002-1.06-1.504-2.531-1.504-4.415 0-1.897.466-3.405 1.397-4.522.938-1.117 2.195-1.676 3.77-1.676 1.476 0 2.643.487 3.503 1.461.859.967 1.289 2.245 1.289 3.835v1.128h-8.11c.035 1.382.382 2.431 1.041 3.147.666.717 1.6 1.075 2.804 1.075 1.267 0 2.52-.265 3.76-.795v1.59a9.118 9.118 0 01-1.794.58c-.559.121-1.236.182-2.03.182zm-.483-10.71c-.945 0-1.7.308-2.267.924-.558.616-.888 1.468-.988 2.557h6.155c0-1.124-.25-1.984-.752-2.578-.5-.602-1.217-.903-2.148-.903zm9.896 10.495h-1.783V71.953h1.783v16.715zm9.51.215a5.19 5.19 0 01-2.105-.419 4.002 4.002 0 01-1.59-1.31h-.129c.086.687.129 1.339.129 1.955v4.845h-1.783V76.893h1.45l.247 1.611h.086c.458-.644.992-1.11 1.6-1.396.61-.287 1.308-.43 2.095-.43 1.562 0 2.765.534 3.61 1.6.852 1.068 1.278 2.565 1.278 4.491 0 1.934-.433 3.438-1.3 4.512-.86 1.067-2.055 1.6-3.588 1.6zm-.257-10.688c-1.204 0-2.074.333-2.61.999-.538.666-.814 1.726-.828 3.18v.397c0 1.654.276 2.84.827 3.556.552.709 1.436 1.063 2.653 1.063 1.017 0 1.812-.412 2.385-1.235.58-.824.87-1.959.87-3.405 0-1.469-.29-2.593-.87-3.374-.573-.787-1.382-1.181-2.427-1.181zM92.517 88.88c-1.74 0-3.116-.53-4.125-1.59-1.003-1.06-1.504-2.531-1.504-4.415 0-1.897.465-3.405 1.396-4.522.938-1.117 2.195-1.676 3.77-1.676 1.476 0 2.643.487 3.503 1.461.859.967 1.289 2.245 1.289 3.835v1.128h-8.11c.035 1.382.382 2.431 1.041 3.147.666.717 1.6 1.075 2.804 1.075 1.268 0 2.52-.265 3.76-.795v1.59a9.12 9.12 0 01-1.794.58c-.559.121-1.236.182-2.03.182zm-.484-10.71c-.945 0-1.7.308-2.266.924-.559.616-.888 1.468-.989 2.557h6.156c0-1.124-.251-1.984-.752-2.578-.502-.602-1.218-.903-2.149-.903zm13.485-1.493c.522 0 .991.043 1.407.13l-.247 1.653a6.078 6.078 0 00-1.289-.16c-.953 0-1.769.386-2.45 1.16-.673.773-1.009 1.736-1.009 2.89v6.316h-1.784V76.892h1.472l.204 2.18h.086c.437-.765.963-1.356 1.579-1.772a3.556 3.556 0 012.031-.623zm14.926 11.989h-1.826V74.582h-4.973v-1.622h11.773v1.623h-4.974v14.082zm12.303.214c-1.74 0-3.115-.53-4.125-1.59-1.003-1.06-1.504-2.531-1.504-4.415 0-1.897.466-3.405 1.397-4.522.938-1.117 2.195-1.676 3.77-1.676 1.475 0 2.643.487 3.502 1.461.859.967 1.289 2.245 1.289 3.835v1.128h-8.11c.036 1.382.383 2.431 1.042 3.147.666.717 1.6 1.075 2.804 1.075 1.267 0 2.52-.265 3.759-.795v1.59a9.11 9.11 0 01-1.794.58c-.558.121-1.235.182-2.03.182zm-.483-10.71c-.946 0-1.701.308-2.267.924-.559.616-.888 1.468-.988 2.557h6.155c0-1.124-.251-1.984-.752-2.578-.501-.602-1.217-.903-2.148-.903zm10.949 4.47l-4.093-5.748h2.03l3.105 4.512 3.094-4.512h2.008l-4.092 5.747 4.307 6.026h-2.019l-3.298-4.769-3.33 4.77h-2.02l4.308-6.027zm12.754 4.769a6.3 6.3 0 00.913-.065c.294-.05.526-.1.698-.15v1.364c-.193.093-.48.168-.859.226a5.985 5.985 0 01-1.01.096c-2.277 0-3.416-1.2-3.416-3.598v-7.004h-1.687v-.86l1.687-.74.752-2.514h1.031v2.728h3.416v1.386h-3.416v6.928c0 .71.168 1.254.505 1.633.337.38.799.57 1.386.57z" fill="#fff"/></svg>