<svg fill="none" height="265" width="1090" xmlns="http://www.w3.org/2000/svg"><path d="m0 0h1090v265h-1090z" fill="#353a40"/><path d="m32.5 73h171v120h-171z" fill="#00fe00"/><path d="m53.695 92.8c0 .644-.159 1.198-.475 1.663-.312.465-.762.82-1.35 1.068-.584.247-1.282.371-2.093.371-.396 0-.774-.022-1.135-.067a7.83 7.83 0 0 1 -1.024-.192 5.565 5.565 0 0 1 -.868-.32v-1.676c.44.192.932.368 1.476.526.544.154 1.098.23 1.662.23.46 0 .841-.059 1.143-.178.306-.123.534-.296.683-.52a1.42 1.42 0 0 0 .222-.793 1.29 1.29 0 0 0 -.26-.816c-.173-.223-.435-.426-.786-.609a13.179 13.179 0 0 0 -1.306-.6 8.857 8.857 0 0 1 -1.024-.49 4.167 4.167 0 0 1 -.86-.646 2.79 2.79 0 0 1 -.602-.876c-.143-.34-.215-.742-.215-1.201 0-.614.146-1.138.438-1.574.297-.435.712-.769 1.246-1.001.54-.233 1.168-.349 1.885-.349.569 0 1.103.06 1.603.178.504.119.999.287 1.484.505l-.564 1.432a10.037 10.037 0 0 0 -1.299-.438 5.013 5.013 0 0 0 -1.276-.163c-.376 0-.695.057-.957.17a1.34 1.34 0 0 0 -.601.483c-.134.203-.2.445-.2.727 0 .316.076.584.23.801.158.213.4.408.727.586.331.178.757.376 1.276.594a9.219 9.219 0 0 1 1.521.779c.42.272.742.599.965.98.222.375.334.848.334 1.417zm9.074-5.26v8.214h-1.372l-.238-1.106h-.096a2.367 2.367 0 0 1 -.66.705c-.268.183-.565.32-.891.408a3.71 3.71 0 0 1 -1.032.141c-.618 0-1.147-.104-1.587-.311a2.205 2.205 0 0 1 -1.002-.98c-.233-.44-.349-1.009-.349-1.707v-5.364h1.751v5.038c0 .638.129 1.115.386 1.432.262.317.668.475 1.217.475.53 0 .95-.109 1.261-.326.312-.218.532-.54.66-.965.134-.425.201-.947.201-1.566v-4.088zm5.81 8.362c-.777 0-1.45-.15-2.018-.452-.57-.302-1.007-.765-1.314-1.388-.306-.623-.46-1.415-.46-2.374 0-1 .169-1.816.505-2.449s.801-1.1 1.395-1.402c.598-.302 1.284-.453 2.055-.453.49 0 .933.05 1.328.148.401.094.74.21 1.017.35l-.52 1.394a7.56 7.56 0 0 0 -.927-.311 3.553 3.553 0 0 0 -.913-.127c-.48 0-.88.107-1.202.32-.316.212-.554.529-.712.95-.153.42-.23.942-.23 1.565 0 .603.08 1.113.237 1.528.159.41.394.723.705.935.312.208.695.312 1.15.312.45 0 .854-.054 1.21-.163.356-.11.692-.25 1.009-.423v1.513c-.312.178-.646.31-1.002.394-.356.089-.794.133-1.313.133zm7.553 0c-.776 0-1.449-.15-2.018-.452s-1.006-.765-1.313-1.388-.46-1.415-.46-2.374c0-1 .168-1.816.504-2.449.337-.633.802-1.1 1.395-1.402.599-.302 1.284-.453 2.056-.453.49 0 .932.05 1.328.148.4.094.74.21 1.016.35l-.52 1.394a7.56 7.56 0 0 0 -.927-.311 3.553 3.553 0 0 0 -.912-.127c-.48 0-.88.107-1.202.32-.317.212-.554.529-.712.95-.154.42-.23.942-.23 1.565 0 .603.079 1.113.237 1.528.158.41.393.723.705.935.311.208.695.312 1.15.312.45 0 .853-.054 1.21-.163.356-.11.692-.25 1.008-.423v1.513c-.311.178-.645.31-1.001.394-.356.089-.794.133-1.314.133zm7.517-8.518c.732 0 1.36.151 1.884.453.525.301.928.73 1.21 1.283.282.554.423 1.217.423 1.989v.935h-5.483c.02.796.232 1.41.638 1.84.41.43.984.645 1.721.645.524 0 .994-.049 1.41-.148.42-.104.853-.255 1.298-.453v1.418c-.41.193-.828.334-1.254.423-.425.089-.935.133-1.528.133-.806 0-1.516-.156-2.13-.467a3.42 3.42 0 0 1 -1.432-1.41c-.341-.623-.512-1.398-.512-2.323 0-.92.156-1.701.468-2.344.311-.643.75-1.133 1.313-1.47.564-.336 1.222-.504 1.974-.504zm0 1.313c-.55 0-.995.178-1.336.535-.336.356-.534.878-.593 1.565h3.74a2.876 2.876 0 0 0 -.209-1.09 1.582 1.582 0 0 0 -.593-.742c-.262-.178-.599-.268-1.01-.268zm11.004 4.712c0 .54-.132.994-.394 1.365s-.645.653-1.15.846c-.5.188-1.113.282-1.84.282a7.581 7.581 0 0 1 -1.484-.126 5.083 5.083 0 0 1 -1.165-.371v-1.506c.39.183.829.341 1.313.475.49.133.953.2 1.388.2.574 0 .987-.089 1.24-.267a.856.856 0 0 0 .377-.727.77.77 0 0 0 -.155-.475c-.1-.144-.287-.29-.564-.438a10.798 10.798 0 0 0 -1.202-.549c-.52-.208-.957-.415-1.314-.623-.356-.208-.625-.458-.808-.75-.183-.297-.275-.675-.275-1.135 0-.727.287-1.279.86-1.654.58-.381 1.344-.572 2.294-.572.504 0 .979.052 1.424.156.45.099.89.245 1.321.438l-.55 1.313a8.206 8.206 0 0 0 -1.12-.4 4.01 4.01 0 0 0 -1.135-.164c-.45 0-.794.07-1.031.208-.233.138-.349.336-.349.593a.73.73 0 0 0 .17.49c.115.134.31.267.587.4.282.134.673.3 1.172.498.49.188.913.386 1.27.594.36.202.637.452.83.749s.29.68.29 1.15zm7.405 0c0 .54-.131.994-.394 1.365-.262.371-.645.653-1.15.846-.499.188-1.113.282-1.84.282a7.58 7.58 0 0 1 -1.484-.126 5.081 5.081 0 0 1 -1.165-.371v-1.506c.391.183.829.341 1.313.475.49.133.953.2 1.388.2.574 0 .987-.089 1.24-.267a.858.858 0 0 0 .378-.727.77.77 0 0 0 -.156-.475c-.099-.144-.287-.29-.564-.438a10.792 10.792 0 0 0 -1.202-.549c-.52-.208-.957-.415-1.313-.623-.357-.208-.626-.458-.81-.75-.182-.297-.274-.675-.274-1.135 0-.727.287-1.279.86-1.654.58-.381 1.344-.572 2.294-.572.504 0 .979.052 1.424.156.45.099.891.245 1.321.438l-.549 1.313a8.244 8.244 0 0 0 -1.12-.4 4.016 4.016 0 0 0 -1.136-.164c-.45 0-.794.07-1.031.208-.233.138-.349.336-.349.593a.73.73 0 0 0 .17.49c.115.134.31.267.587.4.282.134.673.3 1.172.498.49.188.913.386 1.269.594.361.202.638.452.831.749s.29.68.29 1.15zm3.636-.395c0-.546.052-1.08.156-1.601.107-.52.27-1.017.488-1.49a5.95 5.95 0 0 1 .825-1.308h1.001a6.845 6.845 0 0 0 -1.054 2.066 7.778 7.778 0 0 0 -.196 3.862c.105.508.261.996.469 1.465.209.472.466.914.772 1.328h-.992a5.761 5.761 0 0 1 -.825-1.28 6.548 6.548 0 0 1 -.488-1.464 7.938 7.938 0 0 1 -.156-1.578zm7.832.796c0 .424-.104.788-.313 1.094-.205.306-.501.54-.888.703-.385.163-.843.244-1.377.244a6.09 6.09 0 0 1 -.747-.043 5.12 5.12 0 0 1 -.674-.128 3.663 3.663 0 0 1 -.572-.21v-1.103c.29.127.614.243.972.347.358.1.723.151 1.094.151.303 0 .553-.039.752-.117a.943.943 0 0 0 .449-.342.932.932 0 0 0 .147-.522.848.848 0 0 0 -.171-.537 1.555 1.555 0 0 0 -.518-.4 8.649 8.649 0 0 0 -.859-.396 5.805 5.805 0 0 1 -.674-.323 2.735 2.735 0 0 1 -.567-.424 1.84 1.84 0 0 1 -.395-.577 2.038 2.038 0 0 1 -.142-.79c0-.404.096-.75.288-1.036.196-.286.469-.506.821-.659.355-.153.768-.23 1.24-.23.374 0 .726.04 1.055.118.332.078.657.189.976.332l-.371.942a6.623 6.623 0 0 0 -.854-.288 3.309 3.309 0 0 0 -.84-.107c-.248 0-.458.037-.63.112a.884.884 0 0 0 -.396.317.857.857 0 0 0 -.131.479c0 .208.05.384.151.527.104.14.264.269.478.386.219.117.499.247.84.39a6.03 6.03 0 0 1 1.001.513c.277.18.489.394.635.645.147.247.22.558.22.932zm4.033-3.564c.641 0 1.156.234 1.543.703.391.469.586 1.166.586 2.09 0 .612-.091 1.128-.274 1.548-.179.416-.431.732-.756.947a2.012 2.012 0 0 1 -1.128.317c-.274 0-.511-.035-.713-.107a1.777 1.777 0 0 1 -.518-.278 1.997 1.997 0 0 1 -.361-.381h-.068c.016.13.03.275.043.434.017.157.025.3.025.43v2.202h-1.152v-7.801h.937l.161.747h.054c.101-.153.223-.295.366-.425.147-.13.322-.233.527-.308a2.07 2.07 0 0 1 .728-.117zm-.308.938c-.315 0-.569.063-.761.19a1.06 1.06 0 0 0 -.415.561c-.085.251-.131.565-.137.943v.16c0 .401.041.742.122 1.021.085.277.223.489.415.635.195.143.459.215.791.215.28 0 .511-.076.693-.23.186-.152.324-.37.415-.654.092-.283.137-.617.137-1 0-.583-.104-1.036-.312-1.358-.205-.322-.521-.484-.948-.484zm5.918-.938c.482 0 .896.1 1.241.298s.61.48.795.844c.186.365.279.801.279 1.31v.614h-3.609c.013.525.153.928.42 1.211.27.284.648.425 1.133.425.345 0 .654-.032.928-.097.277-.069.561-.168.854-.298v.932c-.27.127-.545.22-.825.278-.28.06-.615.088-1.006.088-.53 0-.997-.102-1.401-.307a2.247 2.247 0 0 1 -.942-.928c-.225-.41-.337-.92-.337-1.528 0-.606.102-1.12.307-1.543s.493-.746.864-.967c.372-.221.805-.332 1.299-.332zm0 .864c-.361 0-.654.117-.879.352-.221.234-.351.578-.39 1.03h2.461a1.905 1.905 0 0 0 -.137-.718 1.043 1.043 0 0 0 -.391-.488c-.172-.117-.393-.176-.664-.176zm5.786 4.741c-.511 0-.953-.099-1.328-.297a1.998 1.998 0 0 1 -.864-.913c-.202-.41-.303-.931-.303-1.563 0-.657.111-1.195.332-1.611a2.12 2.12 0 0 1 .918-.923 2.967 2.967 0 0 1 1.353-.298c.322 0 .613.032.874.098.264.062.487.138.669.23l-.342.917a5.006 5.006 0 0 0 -.61-.205 2.347 2.347 0 0 0 -.601-.083c-.316 0-.579.07-.791.21-.208.14-.364.348-.469.625-.101.277-.151.62-.151 1.03 0 .397.052.733.156 1.006.104.27.259.475.464.615.205.137.457.205.757.205.296 0 .561-.035.796-.107a3.53 3.53 0 0 0 .664-.278v.996a2.465 2.465 0 0 1 -.659.258 3.631 3.631 0 0 1 -.865.088zm3.941-5.502v5.405h-1.148v-5.406h1.148zm-.567-2.07c.176 0 .328.046.455.14.13.095.195.258.195.49 0 .227-.065.39-.195.487a.742.742 0 0 1 -.455.142.754.754 0 0 1 -.463-.142c-.124-.097-.186-.26-.186-.488 0-.231.062-.394.186-.488a.754.754 0 0 1 .463-.142zm4.332 1.967c.683 0 1.199.151 1.547.454.352.303.528.775.528 1.416v3.638h-.816l-.219-.767h-.039a2.784 2.784 0 0 1 -.474.484 1.66 1.66 0 0 1 -.567.283c-.211.065-.47.097-.776.097-.322 0-.61-.058-.864-.175a1.377 1.377 0 0 1 -.601-.547c-.146-.244-.219-.554-.219-.928 0-.557.206-.975.62-1.255.416-.28 1.045-.434 1.884-.464l.938-.034v-.283c0-.374-.088-.641-.264-.8-.172-.16-.416-.24-.732-.24-.27 0-.532.039-.786.117a5.488 5.488 0 0 0 -.742.288l-.372-.81c.264-.14.564-.254.899-.342.338-.088.69-.132 1.055-.132zm.937 2.925-.698.024c-.573.02-.975.117-1.206.293a.859.859 0 0 0 -.347.723c0 .267.08.462.239.586.16.12.37.18.63.18.397 0 .726-.112.987-.337.263-.227.395-.561.395-1v-.47zm3.897 2.583h-1.153v-7.598h1.153zm4.142-3.293a9.54 9.54 0 0 1 -.187 1.898 7.708 7.708 0 0 1 -.58 1.758 6.533 6.533 0 0 1 -.997 1.535h-1.183a8.323 8.323 0 0 0 .926-1.594c.25-.566.437-1.154.562-1.763a9.162 9.162 0 0 0 -.006-3.72 8.75 8.75 0 0 0 -.562-1.782 8.012 8.012 0 0 0 -.932-1.606h1.195c.407.48.739 1.004.997 1.57.261.567.455 1.163.58 1.788.125.62.187 1.26.187 1.916zm-93.385 71.48a9.38 9.38 0 0 1 -.162 1.83c-.104.535-.27.989-.496 1.362a2.306 2.306 0 0 1 -.889.854c-.365.196-.808.294-1.327.294-.65 0-1.187-.171-1.61-.513-.424-.347-.737-.843-.94-1.489-.205-.651-.307-1.43-.307-2.338s.093-1.685.277-2.331c.189-.65.493-1.149.912-1.495.42-.346.975-.519 1.668-.519.654 0 1.193.173 1.616.519.427.343.742.839.946 1.489.208.646.312 1.426.312 2.337zm-4.363 0c0 .712.046 1.307.138 1.784.097.477.254.834.474 1.073.219.235.511.352.877.352.365 0 .658-.117.877-.352.22-.235.377-.591.473-1.068.1-.477.15-1.073.15-1.789 0-.708-.048-1.3-.144-1.777s-.254-.835-.473-1.074c-.22-.242-.514-.363-.883-.363-.37 0-.664.121-.883.363-.216.239-.371.597-.468 1.074-.092.477-.138 1.069-.138 1.777zm11.338 0c0 .681-.054 1.291-.162 1.83-.104.535-.27.989-.496 1.362a2.306 2.306 0 0 1 -.89.854c-.365.196-.807.294-1.326.294-.65 0-1.187-.171-1.61-.513-.424-.347-.737-.843-.941-1.489-.204-.651-.306-1.43-.306-2.338s.092-1.685.277-2.331c.188-.65.492-1.149.912-1.495s.975-.519 1.668-.519c.654 0 1.192.173 1.615.519.427.343.743.839.947 1.489.208.646.312 1.426.312 2.337zm-4.363 0c0 .712.046 1.307.138 1.784.096.477.254.834.473 1.073.22.235.512.352.878.352.365 0 .657-.117.877-.352s.377-.591.473-1.068c.1-.477.15-1.073.15-1.789 0-.708-.048-1.3-.144-1.777s-.254-.835-.474-1.074c-.219-.242-.513-.363-.882-.363-.37 0-.664.121-.883.363-.216.239-.372.597-.468 1.074-.092.477-.138 1.069-.138 1.777zm7.575 4.225h-1.374v-8.437h4.767v1.165h-3.393v2.632h3.174v1.16h-3.174zm9.917 0h-4.778v-8.437h4.778v1.165h-3.393v2.291h3.18v1.16h-3.18v2.649h3.394v1.172zm7.171-4.225a9.38 9.38 0 0 1 -.161 1.83c-.104.535-.27.989-.496 1.362a2.306 2.306 0 0 1 -.89.854c-.365.196-.807.294-1.327.294-.65 0-1.187-.171-1.61-.513-.423-.347-.736-.843-.94-1.489-.204-.651-.306-1.43-.306-2.338s.092-1.685.277-2.331c.188-.65.492-1.149.912-1.495.419-.346.975-.519 1.667-.519.654 0 1.193.173 1.616.519.427.343.743.839.947 1.489.208.646.311 1.426.311 2.337zm-4.362 0c0 .712.046 1.307.138 1.784.096.477.254.834.473 1.073.22.235.512.352.877.352.366 0 .658-.117.878-.352.219-.235.377-.591.473-1.068.1-.477.15-1.073.15-1.789 0-.708-.048-1.3-.144-1.777-.097-.477-.254-.835-.474-1.074-.219-.242-.513-.363-.883-.363-.369 0-.663.121-.883.363-.215.239-.37.597-.467 1.074-.092.477-.138 1.069-.138 1.777zm11.337 0c0 .681-.054 1.291-.161 1.83-.104.535-.27.989-.497 1.362a2.306 2.306 0 0 1 -.888.854c-.366.196-.808.294-1.328.294-.65 0-1.187-.171-1.61-.513-.423-.347-.737-.843-.94-1.489-.204-.651-.306-1.43-.306-2.338s.092-1.685.276-2.331c.189-.65.493-1.149.912-1.495.42-.346.976-.519 1.668-.519.654 0 1.193.173 1.616.519.427.343.743.839.947 1.489.207.646.311 1.426.311 2.337zm-4.363 0c0 .712.046 1.307.139 1.784.096.477.254.834.473 1.073.22.235.512.352.877.352.366 0 .658-.117.877-.352.22-.235.377-.591.474-1.068.1-.477.15-1.073.15-1.789 0-.708-.049-1.3-.145-1.777s-.254-.835-.473-1.074c-.22-.242-.513-.363-.883-.363s-.663.121-.883.363c-.215.239-.371.597-.467 1.074-.093.477-.139 1.069-.139 1.777z" fill="#252a2e"/><path d="m203.5 73h171v120h-171z" fill="#019aeb"/><path d="m218.432 95.754v-10.848h1.781v10.848zm8.748-8.37c.925 0 1.645.24 2.159.72.52.475.78 1.239.78 2.293v5.357h-1.744v-5.03c0-.639-.131-1.116-.393-1.433-.263-.322-.668-.482-1.217-.482-.797 0-1.351.245-1.662.734-.307.49-.46 1.2-.46 2.13v4.08h-1.744v-8.213h1.358l.245 1.113h.096c.178-.287.398-.522.661-.705.267-.188.563-.329.89-.423a3.757 3.757 0 0 1 1.031-.14zm9.483 1.484h-1.996v6.886h-1.744v-6.886h-1.343v-.838l1.343-.512v-.572c0-.697.109-1.251.327-1.662.222-.41.539-.705.95-.883.415-.183.91-.274 1.483-.274.376 0 .72.032 1.032.096.311.06.574.129.786.208l-.452 1.32a5.76 5.76 0 0 0 -.564-.148 2.887 2.887 0 0 0 -.668-.074c-.396 0-.688.124-.876.371-.183.247-.274.609-.274 1.083v.557h1.996zm8.674 2.76c0 .683-.089 1.289-.267 1.818-.178.53-.438.977-.779 1.343a3.439 3.439 0 0 1 -1.232.831 4.428 4.428 0 0 1 -1.625.282 4.14 4.14 0 0 1 -1.551-.282 3.533 3.533 0 0 1 -1.224-.83 3.815 3.815 0 0 1 -.794-1.344c-.188-.53-.282-1.135-.282-1.818 0-.905.156-1.672.467-2.3a3.331 3.331 0 0 1 1.351-1.447c.584-.331 1.279-.497 2.085-.497.757 0 1.424.166 2.003.497a3.43 3.43 0 0 1 1.358 1.447c.327.633.49 1.4.49 2.3zm-5.958 0c0 .599.071 1.11.215 1.536.148.426.376.752.682.98.307.222.703.334 1.188.334.484 0 .88-.112 1.187-.334.306-.228.532-.554.675-.98.143-.425.215-.937.215-1.536 0-.598-.072-1.105-.215-1.52-.143-.421-.369-.74-.675-.958-.307-.223-.705-.334-1.195-.334-.722 0-1.249.243-1.58.727-.332.485-.497 1.18-.497 2.085zm12.524-6.722-4.043 10.848h-1.633l4.044-10.848zm3.317 10.848h-1.766v-10.848h6.129v1.499h-4.363v3.383h4.081v1.492h-4.081zm13.43-4.126c0 .683-.089 1.289-.267 1.818-.178.53-.438.977-.779 1.343a3.43 3.43 0 0 1 -1.232.831c-.48.188-1.021.282-1.625.282a4.131 4.131 0 0 1 -1.55-.282 3.537 3.537 0 0 1 -1.225-.83 3.815 3.815 0 0 1 -.794-1.344c-.188-.53-.282-1.135-.282-1.818 0-.905.156-1.672.468-2.3a3.33 3.33 0 0 1 1.35-1.447c.584-.331 1.279-.497 2.085-.497.757 0 1.425.166 2.004.497a3.433 3.433 0 0 1 1.357 1.447c.327.633.49 1.4.49 2.3zm-5.958 0c0 .599.072 1.11.215 1.536.149.426.376.752.683.98.306.222.702.334 1.187.334s.88-.112 1.187-.334c.307-.228.532-.554.675-.98.144-.425.216-.937.216-1.536 0-.598-.072-1.105-.216-1.52-.143-.421-.368-.74-.675-.958-.307-.223-.705-.334-1.194-.334-.723 0-1.249.243-1.581.727-.331.485-.497 1.18-.497 2.085zm11.271 4.274c-.777 0-1.45-.15-2.018-.452-.569-.302-1.007-.765-1.314-1.388-.306-.623-.46-1.415-.46-2.374 0-1 .168-1.816.505-2.449.336-.633.801-1.1 1.395-1.402.598-.302 1.283-.453 2.055-.453.49 0 .932.05 1.328.148.401.094.74.21 1.017.35l-.52 1.394a7.542 7.542 0 0 0 -.927-.311 3.557 3.557 0 0 0 -.913-.127c-.48 0-.88.107-1.202.32-.316.212-.554.529-.712.95-.153.42-.23.942-.23 1.565 0 .603.079 1.113.237 1.528.159.41.394.723.705.935.312.208.695.312 1.15.312.45 0 .854-.054 1.21-.163.356-.11.692-.25 1.009-.423v1.513c-.312.178-.646.31-1.002.394-.356.089-.794.133-1.313.133zm11.404-8.362v8.214h-1.372l-.238-1.106h-.096a2.368 2.368 0 0 1 -.661.705c-.267.183-.564.32-.89.408a3.71 3.71 0 0 1 -1.031.141c-.619 0-1.148-.104-1.588-.311a2.2 2.2 0 0 1 -1.002-.98c-.233-.44-.349-1.009-.349-1.707v-5.364h1.751v5.038c0 .638.129 1.115.386 1.432.262.317.668.475 1.217.475.529 0 .95-.109 1.261-.326.312-.218.532-.54.661-.965.133-.425.2-.947.2-1.566v-4.088zm8.021 5.87c0 .538-.131.993-.393 1.364s-.646.653-1.15.846c-.5.188-1.113.282-1.84.282a7.576 7.576 0 0 1 -1.484-.126 5.074 5.074 0 0 1 -1.165-.371v-1.506c.391.183.828.341 1.313.475.49.133.952.2 1.388.2.573 0 .986-.089 1.239-.267a.856.856 0 0 0 .378-.727.77.77 0 0 0 -.156-.475c-.099-.144-.287-.29-.564-.438a10.72 10.72 0 0 0 -1.202-.549 10.03 10.03 0 0 1 -1.313-.623c-.356-.208-.626-.458-.809-.75-.183-.297-.274-.675-.274-1.135 0-.727.287-1.279.86-1.654.579-.381 1.343-.572 2.293-.572.505 0 .98.052 1.425.156.45.099.89.245 1.321.438l-.549 1.313a8.208 8.208 0 0 0 -1.121-.4 4.008 4.008 0 0 0 -1.135-.164c-.45 0-.794.07-1.032.208a.655.655 0 0 0 -.348.593c0 .193.057.357.17.49.114.134.31.267.587.4.282.134.672.3 1.172.498.49.188.913.386 1.269.594.361.202.638.452.831.749s.289.68.289 1.15zm-70.725 70.568-.375 1.962h1.633v.733h-1.777l-.491 2.493h-.779l.491-2.493h-1.76l-.474 2.493h-.767l.456-2.493h-1.512v-.733h1.656l.387-1.962h-1.605v-.722h1.737l.479-2.527h.791l-.479 2.527h1.772l.479-2.527h.761l-.479 2.527h1.53v.722zm-2.92 1.962h1.76l.381-1.962h-1.76zm11.081-1.004c0 .684-.052 1.296-.156 1.835-.104.538-.267.994-.49 1.368a2.316 2.316 0 0 1 -.866.854c-.354.192-.779.288-1.276.288-.627 0-1.146-.171-1.558-.513-.408-.343-.713-.837-.917-1.484-.2-.65-.3-1.433-.3-2.348 0-.901.09-1.674.271-2.32.184-.651.481-1.149.889-1.495.407-.35.946-.525 1.615-.525.635 0 1.159.173 1.57.519.412.343.718.839.918 1.489.2.646.3 1.424.3 2.332zm-4.6 0c0 .784.06 1.439.179 1.962.12.523.312.915.577 1.177.27.258.622.387 1.056.387.435 0 .785-.129 1.051-.387.269-.258.463-.648.583-1.171.123-.524.184-1.18.184-1.968 0-.774-.059-1.42-.179-1.939-.119-.524-.311-.916-.577-1.178-.265-.265-.619-.398-1.062-.398-.442 0-.796.133-1.061.398-.266.262-.458.654-.578 1.178-.115.519-.173 1.165-.173 1.939zm9.373 4.23h-.935v-5.979-.583l.012-.45c.007-.139.017-.279.028-.421a4.68 4.68 0 0 1 -.334.317l-.387.317-.964.774-.502-.652 2.286-1.76h.796zm8.755-4.842c0 .512-.037 1.01-.11 1.495-.069.484-.19.936-.363 1.356-.169.419-.4.787-.693 1.102-.292.316-.66.564-1.102.744-.439.177-.964.266-1.575.266-.166 0-.354-.012-.566-.035a2.903 2.903 0 0 1 -.519-.086v-.831c.142.05.309.09.502.121.192.027.381.04.565.04.72 0 1.285-.154 1.697-.461.412-.312.708-.733.889-1.264.18-.535.282-1.135.305-1.801h-.069a2.16 2.16 0 0 1 -1.131.889 2.835 2.835 0 0 1 -.929.138c-.489 0-.916-.1-1.281-.3-.362-.2-.645-.49-.849-.871-.2-.381-.3-.841-.3-1.379 0-.581.11-1.083.329-1.507a2.38 2.38 0 0 1 .935-.986c.4-.231.872-.347 1.414-.347.416 0 .797.079 1.143.237s.646.394.9.71c.258.311.456.698.594 1.16.143.461.214.998.214 1.61zm-2.851-2.903c-.512 0-.927.167-1.246.502-.316.335-.474.839-.474 1.512 0 .558.137.999.41 1.322s.695.484 1.264.484c.392 0 .731-.078 1.016-.236.288-.158.509-.358.663-.6.158-.243.237-.491.237-.745s-.039-.512-.115-.773a2.371 2.371 0 0 0 -.341-.722 1.76 1.76 0 0 0 -.583-.536 1.602 1.602 0 0 0 -.831-.208zm9.956 7.745-1.039-2.678h-3.382l-1.033 2.678h-.993l3.301-8.472h.883l3.278 8.472zm-1.334-3.549-.986-2.661a44.783 44.783 0 0 0 -.116-.34l-.156-.491c-.053-.169-.098-.306-.132-.41-.039.158-.081.316-.127.474-.043.153-.085.298-.127.432l-.11.335-1.004 2.661zm8.236 3.549h-4.697v-8.437h4.697v.865h-3.716v2.73h3.503v.854h-3.503v3.122h3.716zm1.888-8.437h2.389c1.054 0 1.847.157 2.378.473.531.315.796.852.796 1.61 0 .327-.063.621-.19.883a1.644 1.644 0 0 1 -.543.64c-.238.17-.533.287-.883.352v.058c.369.058.696.164.981.318.285.153.508.369.67.646.161.277.242.629.242 1.056 0 .519-.121.958-.364 1.316a2.217 2.217 0 0 1 -1.015.814c-.439.18-.958.271-1.558.271h-2.903zm.981 3.618h1.616c.735 0 1.242-.121 1.523-.364.285-.242.427-.596.427-1.061 0-.481-.169-.828-.508-1.039-.334-.212-.869-.318-1.604-.318h-1.454zm0 .825v3.157h1.754c.75 0 1.281-.146 1.593-.439.312-.296.467-.694.467-1.194 0-.32-.071-.593-.213-.82-.139-.227-.366-.4-.681-.519-.312-.123-.729-.185-1.252-.185z" fill="#fff"/><path d="m374.5 73h170v120h-170z" fill="#ff8b00"/><path d="m396.155 95.754-1.061-3.013h-4.148l-1.061 3.013h-1.877l4.036-10.893h1.974l4.029 10.893zm-1.521-4.541-1.032-2.968c-.039-.129-.096-.31-.17-.542a78.693 78.693 0 0 1 -.409-1.343c-.049.203-.111.43-.185.683-.069.247-.139.48-.208.697l-.148.505-1.039 2.968zm6.418 4.54h-1.751v-11.544h1.751v11.546zm5.765-8.369c.732 0 1.36.151 1.885.453.524.301.927.73 1.209 1.283.282.554.423 1.217.423 1.989v.935h-5.483c.02.796.232 1.41.638 1.84.41.43.984.645 1.721.645.525 0 .995-.049 1.41-.148a7.84 7.84 0 0 0 1.299-.453v1.418a5.69 5.69 0 0 1 -1.254.423c-.426.089-.935.133-1.529.133-.806 0-1.516-.156-2.129-.467a3.415 3.415 0 0 1 -1.432-1.41c-.342-.623-.512-1.398-.512-2.323 0-.92.155-1.701.467-2.344s.749-1.133 1.313-1.47c.564-.336 1.222-.504 1.974-.504zm0 1.313c-.549 0-.994.178-1.336.535-.336.356-.534.878-.593 1.565h3.74a2.887 2.887 0 0 0 -.208-1.09 1.585 1.585 0 0 0 -.594-.742c-.262-.178-.598-.268-1.009-.268zm9.646-1.313a5.033 5.033 0 0 1 .875.082l-.163 1.632a2.2 2.2 0 0 0 -.386-.067 4.068 4.068 0 0 0 -.4-.022c-.312 0-.609.052-.891.156a2.1 2.1 0 0 0 -1.261 1.224 2.836 2.836 0 0 0 -.186 1.069v4.296h-1.751v-8.214h1.366l.237 1.447h.082c.163-.292.366-.56.608-.801.242-.243.52-.436.831-.58a2.419 2.419 0 0 1 1.039-.222zm5.454 7.108c.227 0 .452-.02.675-.059a5.44 5.44 0 0 0 .608-.156v1.321a3.654 3.654 0 0 1 -.749.215c-.307.06-.626.09-.957.09-.465 0-.883-.078-1.254-.23a1.832 1.832 0 0 1 -.883-.81c-.218-.38-.327-.907-.327-1.58v-4.415h-1.12v-.779l1.202-.616.571-1.758h1.098v1.825h2.352v1.328h-2.352v4.393c0 .415.104.724.312.927s.482.304.824.304zm11.463-9.586-4.044 10.848h-1.632l4.044-10.848zm18.328 0-2.835 10.848h-1.944l-1.81-6.5a20.472 20.472 0 0 1 -.149-.564c-.054-.218-.109-.44-.163-.668l-.134-.623a16.114 16.114 0 0 1 -.074-.445c-.01.104-.032.25-.067.438-.034.188-.076.395-.126.623-.044.222-.094.445-.148.668-.054.217-.104.41-.148.578l-1.781 6.493h-1.937l-2.827-10.848h1.788l1.566 6.359c.049.203.099.423.148.66.055.233.104.468.149.705a21.04 21.04 0 0 1 .23 1.306c.025-.188.057-.396.096-.623.04-.233.082-.468.126-.705.05-.243.099-.475.149-.698.054-.222.109-.423.163-.6l1.766-6.404h1.736l1.803 6.425c.055.183.107.389.156.616a23.516 23.516 0 0 1 .386 1.989 26.38 26.38 0 0 1 .527-2.671l1.558-6.36h1.796zm4.578 2.478c1.038 0 1.822.23 2.352.69.534.46.801 1.177.801 2.152v5.528h-1.239l-.334-1.165h-.059a4.269 4.269 0 0 1 -.72.734 2.508 2.508 0 0 1 -.861.43c-.321.1-.715.15-1.18.15-.489 0-.927-.09-1.313-.268a2.082 2.082 0 0 1 -.912-.831c-.223-.371-.334-.84-.334-1.41 0-.846.314-1.481.942-1.907.633-.425 1.588-.66 2.864-.705l1.425-.051v-.43c0-.57-.134-.975-.401-1.218-.262-.242-.633-.363-1.113-.363-.411 0-.809.06-1.195.178a8.458 8.458 0 0 0 -1.127.438l-.564-1.232c.4-.213.855-.386 1.365-.52a6.35 6.35 0 0 1 1.603-.2zm1.424 4.445-1.061.037c-.87.03-1.481.178-1.833.445-.351.267-.526.633-.526 1.098 0 .406.121.703.363.89.243.183.562.275.957.275.604 0 1.103-.17 1.499-.512.401-.346.601-.853.601-1.521zm8.333-4.445a4.995 4.995 0 0 1 .875.082l-.163 1.632a2.2 2.2 0 0 0 -.386-.067 4.068 4.068 0 0 0 -.4-.022c-.312 0-.609.052-.891.156a2.056 2.056 0 0 0 -.749.46 2.087 2.087 0 0 0 -.512.764 2.836 2.836 0 0 0 -.186 1.069v4.296h-1.751v-8.214h1.365l.238 1.447h.082c.163-.292.366-.56.608-.801.242-.243.519-.436.831-.58a2.419 2.419 0 0 1 1.039-.222zm6.678 0c.925 0 1.644.24 2.159.72.519.475.779 1.239.779 2.293v5.357h-1.744v-5.03c0-.639-.131-1.116-.393-1.433-.262-.322-.668-.482-1.217-.482-.796 0-1.35.245-1.662.734-.307.49-.46 1.2-.46 2.13v4.08h-1.744v-8.213h1.358l.245 1.113h.097c.178-.287.398-.522.66-.705.267-.188.564-.329.89-.423a3.77 3.77 0 0 1 1.032-.14zm7.123.156v8.214h-1.744v-8.214zm-.861-3.146c.267 0 .497.072.69.215.198.144.297.39.297.742 0 .346-.099.594-.297.742a1.125 1.125 0 0 1 -.69.215c-.277 0-.512-.072-.705-.215-.188-.148-.282-.396-.282-.742 0-.351.094-.599.282-.742.193-.143.428-.215.705-.215zm7.643 2.99c.925 0 1.644.24 2.159.72.519.475.779 1.239.779 2.293v5.357h-1.744v-5.03c0-.639-.131-1.116-.393-1.433-.262-.322-.668-.482-1.217-.482-.796 0-1.35.245-1.662.734-.307.49-.46 1.2-.46 2.13v4.08h-1.744v-8.213h1.358l.245 1.113h.096a2.39 2.39 0 0 1 .661-.705c.267-.188.564-.329.89-.423a3.765 3.765 0 0 1 1.032-.14zm7.724 12.02c-1.113 0-1.967-.2-2.56-.6-.594-.401-.891-.963-.891-1.685 0-.504.159-.932.475-1.284.317-.346.77-.586 1.358-.72a1.525 1.525 0 0 1 -.579-.46 1.155 1.155 0 0 1 -.237-.704c0-.307.087-.57.26-.787s.433-.428.779-.63a2.26 2.26 0 0 1 -1.039-.89c-.257-.416-.386-.904-.386-1.463 0-.593.126-1.098.379-1.513.252-.42.62-.74 1.105-.957.485-.223 1.071-.334 1.759-.334.148 0 .309.01.482.03.178.014.341.034.49.059.153.02.269.042.348.067h2.842v.971l-1.395.26c.134.188.24.403.319.646.08.237.119.497.119.779 0 .85-.294 1.52-.883 2.01-.584.485-1.39.728-2.419.728a8.333 8.333 0 0 1 -.72-.06 1.35 1.35 0 0 0 -.408.364.723.723 0 0 0 -.141.438c0 .133.047.242.141.326.094.08.233.139.416.178.188.04.415.06.683.06h1.417c.9 0 1.588.19 2.062.571.475.38.713.94.713 1.677 0 .935-.386 1.655-1.158 2.16-.771.509-1.882.763-3.331.763zm.067-1.224c.608 0 1.12-.06 1.535-.178.416-.119.73-.29.943-.512.212-.218.319-.477.319-.779 0-.267-.067-.472-.2-.616-.134-.143-.334-.242-.602-.297a5.087 5.087 0 0 0 -.994-.081h-1.291c-.321 0-.606.05-.853.148-.247.104-.44.252-.579.445-.133.193-.2.426-.2.698 0 .376.165.665.497.868.336.203.811.304 1.425.304zm.341-6.396c.509 0 .888-.138 1.135-.415.247-.282.371-.678.371-1.188 0-.554-.129-.97-.386-1.246-.252-.277-.628-.416-1.128-.416-.489 0-.863.141-1.12.423-.252.282-.378.7-.378 1.254 0 .5.126.89.378 1.173.257.277.633.415 1.128.415zm-101.037 71.349-.323 1.651h1.558v.964h-1.743l-.467 2.418h-1.028l.474-2.418h-1.443l-.456 2.418h-1.004l.444-2.418h-1.443v-.964h1.628l.329-1.651h-1.53v-.963h1.703l.462-2.436h1.027l-.462 2.436h1.454l.468-2.436h.998l-.461 2.436h1.454v.963zm-2.788 1.651h1.443l.329-1.651h-1.448zm7.408 3.382h-1.373v-8.437h4.766v1.165h-3.393v2.632h3.174v1.16h-3.174zm6.513 0h-1.373v-8.437h4.766v1.165h-3.393v2.632h3.174v1.16h-3.174zm7.408-8.553c.488 0 .929.077 1.321.231.393.15.704.375.935.675s.346.672.346 1.114a1.8 1.8 0 0 1 -.213.894 2.224 2.224 0 0 1 -.566.67 4.506 4.506 0 0 1 -.802.502 5.4 5.4 0 0 1 .912.56c.281.208.506.452.675.733.173.281.26.61.26.987 0 .473-.121.883-.364 1.229a2.323 2.323 0 0 1 -.998.796c-.427.185-.925.277-1.495.277-.612 0-1.133-.09-1.564-.271s-.758-.439-.981-.773c-.223-.339-.335-.743-.335-1.212 0-.389.077-.726.231-1.01.154-.285.36-.531.618-.739.261-.208.548-.383.86-.525a4.692 4.692 0 0 1 -.728-.531 2.39 2.39 0 0 1 -.525-.687 2.047 2.047 0 0 1 -.19-.906c0-.438.117-.806.352-1.102.235-.3.548-.527.941-.681a3.587 3.587 0 0 1 1.31-.231zm-1.576 6.36c0 .369.131.673.393.912.261.238.652.357 1.171.357.516 0 .908-.117 1.177-.352.27-.234.404-.544.404-.929 0-.246-.069-.463-.207-.652a1.94 1.94 0 0 0 -.549-.502 5.501 5.501 0 0 0 -.756-.415l-.184-.076c-.3.127-.558.272-.774.433a1.853 1.853 0 0 0 -.502.537c-.115.2-.173.429-.173.687zm1.564-5.315c-.373 0-.681.092-.923.277-.239.18-.358.442-.358.785 0 .242.058.45.173.623.119.173.279.323.479.45.2.123.421.238.664.346.234-.104.446-.217.635-.34.192-.127.344-.277.455-.45.116-.177.174-.389.174-.635 0-.339-.122-.599-.364-.779-.239-.185-.55-.277-.935-.277zm4.718-.929h2.511c1.089 0 1.91.157 2.464.473.554.315.831.86.831 1.633 0 .323-.058.616-.173.877a1.623 1.623 0 0 1 -.491.641 1.819 1.819 0 0 1 -.796.334v.058c.327.058.617.16.871.306.258.146.46.356.606.629.15.273.225.627.225 1.062 0 .515-.123.954-.369 1.316-.242.361-.591.636-1.045.825-.45.189-.984.283-1.604.283h-3.03zm1.385 3.479h1.328c.627 0 1.062-.102 1.304-.305.242-.204.364-.503.364-.895 0-.4-.145-.689-.433-.866-.285-.177-.739-.265-1.362-.265h-1.201zm0 1.12v2.678h1.46c.647 0 1.101-.125 1.362-.375.262-.25.393-.589.393-1.016 0-.262-.06-.489-.179-.681-.115-.192-.306-.341-.571-.444-.266-.108-.624-.162-1.074-.162zm11.754-.387c0 .681-.054 1.291-.162 1.83-.104.535-.269.989-.496 1.362a2.31 2.31 0 0 1 -.889.854c-.366.196-.808.294-1.327.294-.651 0-1.187-.171-1.611-.513-.423-.347-.736-.843-.94-1.489-.204-.651-.306-1.43-.306-2.338s.092-1.685.277-2.331c.188-.65.492-1.149.912-1.495.419-.346.975-.519 1.668-.519.654 0 1.192.173 1.615.519.427.343.743.839.947 1.489.208.646.312 1.426.312 2.337zm-4.363 0c0 .712.046 1.307.138 1.784.096.477.254.834.473 1.073.22.235.512.352.878.352.365 0 .657-.117.877-.352.219-.235.377-.591.473-1.068.1-.477.15-1.073.15-1.789 0-.708-.048-1.3-.144-1.777s-.254-.835-.474-1.074c-.219-.242-.513-.363-.882-.363-.37 0-.664.121-.883.363-.216.239-.372.597-.468 1.074-.092.477-.138 1.069-.138 1.777zm11.337 0c0 .681-.054 1.291-.161 1.83-.104.535-.27.989-.497 1.362a2.308 2.308 0 0 1 -.888.854c-.366.196-.808.294-1.328.294-.65 0-1.187-.171-1.61-.513-.423-.347-.737-.843-.941-1.489-.203-.651-.305-1.43-.305-2.338s.092-1.685.277-2.331c.188-.65.492-1.149.911-1.495.42-.346.976-.519 1.668-.519.654 0 1.193.173 1.616.519.427.343.743.839.947 1.489.207.646.311 1.426.311 2.337zm-4.363 0c0 .712.046 1.307.139 1.784.096.477.254.834.473 1.073.219.235.512.352.877.352.366 0 .658-.117.877-.352.22-.235.377-.591.474-1.068.1-.477.15-1.073.15-1.789 0-.708-.048-1.3-.145-1.777-.096-.477-.253-.835-.473-1.074-.219-.242-.513-.363-.883-.363-.369 0-.663.121-.883.363-.215.239-.371.597-.467 1.074-.093.477-.139 1.069-.139 1.777z" fill="#fff"/><path d="m544.5 73h170v120h-170z" fill="#da212c"/><path d="m565.576 95.754h-6.144v-10.848h6.144v1.499h-4.363v2.945h4.088v1.492h-4.088v3.406h4.363zm6.329-8.37a5.016 5.016 0 0 1 .876.082l-.164 1.632a2.204 2.204 0 0 0 -.385-.067 4.087 4.087 0 0 0 -.401-.022c-.312 0-.609.052-.891.156a2.1 2.1 0 0 0 -1.261 1.224 2.837 2.837 0 0 0 -.185 1.069v4.296h-1.752v-8.214h1.366l.237 1.447h.082c.163-.292.366-.56.608-.801a2.87 2.87 0 0 1 .831-.58 2.419 2.419 0 0 1 1.039-.222zm6.559 0a4.999 4.999 0 0 1 .876.082l-.163 1.632a2.217 2.217 0 0 0 -.386-.067 4.087 4.087 0 0 0 -.401-.022 2.55 2.55 0 0 0 -.89.156 2.112 2.112 0 0 0 -1.262 1.224 2.857 2.857 0 0 0 -.185 1.069v4.296h-1.751v-8.214h1.365l.237 1.447h.082c.163-.292.366-.56.608-.801a2.87 2.87 0 0 1 .831-.58 2.419 2.419 0 0 1 1.039-.222zm9.668 4.244c0 .683-.089 1.289-.267 1.818-.178.53-.438.977-.779 1.343a3.43 3.43 0 0 1 -1.232.831c-.479.188-1.021.282-1.624.282a4.14 4.14 0 0 1 -1.551-.282 3.546 3.546 0 0 1 -1.225-.83 3.813 3.813 0 0 1 -.793-1.344c-.188-.53-.282-1.135-.282-1.818 0-.905.155-1.672.467-2.3a3.335 3.335 0 0 1 1.35-1.447c.584-.331 1.279-.497 2.085-.497.757 0 1.425.166 2.004.497.579.332 1.031.814 1.358 1.447.326.633.489 1.4.489 2.3zm-5.958 0c0 .599.072 1.11.215 1.536.149.426.376.752.683.98.307.222.702.334 1.187.334s.881-.112 1.187-.334c.307-.228.532-.554.676-.98.143-.425.215-.937.215-1.536 0-.598-.072-1.105-.215-1.52-.144-.421-.369-.74-.676-.958-.306-.223-.705-.334-1.194-.334-.722 0-1.249.243-1.581.727-.331.485-.497 1.18-.497 2.085zm12.124-4.244a4.999 4.999 0 0 1 .876.082l-.163 1.632a2.217 2.217 0 0 0 -.386-.067 4.087 4.087 0 0 0 -.401-.022 2.55 2.55 0 0 0 -.89.156 2.112 2.112 0 0 0 -1.262 1.224 2.857 2.857 0 0 0 -.185 1.069v4.296h-1.751v-8.214h1.365l.237 1.447h.082c.163-.292.366-.56.609-.801.242-.243.519-.436.831-.58a2.411 2.411 0 0 1 1.038-.222zm-30.577 75.749-.323 1.651h1.558v.964h-1.743l-.467 2.418h-1.028l.474-2.418h-1.443l-.456 2.418h-1.004l.444-2.418h-1.443v-.964h1.628l.329-1.651h-1.53v-.963h1.703l.462-2.436h1.027l-.462 2.436h1.454l.468-2.436h.998l-.461 2.436h1.454v.963zm-2.788 1.651h1.443l.329-1.651h-1.448zm12.885-.918c0 .951-.177 1.745-.531 2.384a3.403 3.403 0 0 1 -1.541 1.437c-.673.319-1.485.479-2.435.479h-2.344v-8.437h2.597c.874 0 1.628.157 2.263.473a3.33 3.33 0 0 1 1.471 1.391c.347.611.52 1.369.52 2.273zm-1.443.041c0-.693-.11-1.262-.329-1.708a2.1 2.1 0 0 0 -.958-.993c-.419-.219-.937-.329-1.552-.329h-1.183v6.129h.981c1.019 0 1.781-.26 2.285-.779.504-.52.756-1.293.756-2.32zm8.7 4.259-.825-2.343h-3.226l-.825 2.343h-1.46l3.139-8.472h1.535l3.134 8.472zm-1.183-3.532-.802-2.309-.133-.421-.173-.56a56.542 56.542 0 0 1 -.144-.484c-.039.157-.087.334-.144.531-.054.192-.108.373-.162.542l-.115.392-.808 2.309zm9.116 3.532h-5.713v-1.022l2.187-2.216a27.44 27.44 0 0 0 1.044-1.114 3.88 3.88 0 0 0 .606-.894c.135-.281.202-.587.202-.918 0-.408-.117-.715-.352-.923-.234-.212-.544-.317-.929-.317-.365 0-.704.073-1.016.219a4.706 4.706 0 0 0 -.958.612l-.744-.895c.235-.2.485-.383.75-.548.27-.166.57-.296.901-.393.33-.1.707-.15 1.131-.15.534 0 .996.096 1.385.289.388.188.686.452.894.791.212.338.318.732.318 1.183 0 .454-.091.873-.272 1.258-.18.384-.438.765-.773 1.142-.335.374-.733.779-1.195 1.218l-1.46 1.425v.064h3.994zm5.249 0h-1.362v-5.431c0-.181.002-.361.006-.542l.011-.531c.008-.173.018-.339.029-.497-.08.089-.181.185-.3.289-.115.104-.238.212-.369.323l-.97.774-.681-.86 2.505-1.962h1.131zm8.7 0h-5.713v-1.022l2.187-2.216c.423-.431.772-.802 1.045-1.114.273-.315.475-.613.606-.894.134-.281.202-.587.202-.918 0-.408-.118-.715-.352-.923-.235-.212-.545-.317-.929-.317-.366 0-.704.073-1.016.219a4.679 4.679 0 0 0 -.958.612l-.745-.895c.235-.2.485-.383.751-.548.269-.166.569-.296.9-.393.331-.1.708-.15 1.131-.15.535 0 .997.096 1.385.289.389.188.687.452.895.791.211.338.317.732.317 1.183 0 .454-.09.873-.271 1.258a4.843 4.843 0 0 1 -.774 1.142c-.334.374-.732.779-1.194 1.218l-1.46 1.425v.064h3.993zm5.434-7.381c-.404 0-.765.073-1.085.219a2.18 2.18 0 0 0 -.802.635 2.865 2.865 0 0 0 -.502.998 4.636 4.636 0 0 0 -.173 1.316c0 .654.092 1.218.277 1.691.185.469.465.831.842 1.085.377.25.855.375 1.432.375.357 0 .706-.035 1.044-.104a9.13 9.13 0 0 0 1.051-.283v1.178a5.473 5.473 0 0 1 -1.039.294c-.35.061-.754.092-1.212.092-.862 0-1.578-.179-2.147-.537a3.266 3.266 0 0 1 -1.27-1.512c-.277-.65-.415-1.412-.415-2.285 0-.639.088-1.223.265-1.754s.435-.989.774-1.374a3.344 3.344 0 0 1 1.252-.894c.5-.212 1.071-.318 1.714-.318.423 0 .839.048 1.247.145.411.092.792.225 1.142.398l-.485 1.142a7.148 7.148 0 0 0 -.917-.357 3.3 3.3 0 0 0 -.993-.15z" fill="#fff"/><path d="m714.5 73h172v120h-172z" fill="#df4eb2"/><path d="m736.155 95.754-1.061-3.013h-4.148l-1.061 3.013h-1.877l4.036-10.893h1.974l4.029 10.893zm-1.521-4.541-1.032-2.968a130.964 130.964 0 0 1 -.579-1.885c-.049.203-.111.43-.185.683-.069.247-.139.48-.208.697l-.148.505-1.039 2.968zm6.544 4.54-3.124-8.213h1.848l1.691 4.823c.109.307.208.638.297.994s.151.656.186.898h.059c.035-.252.101-.554.2-.905.099-.356.201-.685.305-.987l1.691-4.823h1.84l-3.123 8.214h-1.87zm13.512-4.125c0 .683-.089 1.289-.268 1.818a3.63 3.63 0 0 1 -.779 1.343 3.435 3.435 0 0 1 -1.231.831 4.428 4.428 0 0 1 -1.625.282 4.14 4.14 0 0 1 -1.551-.282 3.533 3.533 0 0 1 -1.224-.83 3.8 3.8 0 0 1 -.794-1.344c-.188-.53-.282-1.135-.282-1.818 0-.905.156-1.672.467-2.3a3.331 3.331 0 0 1 1.351-1.447c.583-.331 1.278-.497 2.085-.497.756 0 1.424.166 2.003.497.579.332 1.031.814 1.358 1.447.326.633.49 1.4.49 2.3zm-5.959 0c0 .599.072 1.11.216 1.536.148.426.375.752.682.98.307.222.703.334 1.187.334.485 0 .881-.112 1.188-.334.306-.228.531-.554.675-.98.143-.425.215-.937.215-1.536 0-.598-.072-1.105-.215-1.52-.144-.421-.369-.74-.675-.958-.307-.223-.705-.334-1.195-.334-.722 0-1.249.243-1.581.727-.331.485-.497 1.18-.497 2.085zm9.706-4.088v8.214h-1.744v-8.214zm-.861-3.146c.267 0 .497.072.69.215.198.144.297.39.297.742 0 .346-.099.594-.297.742a1.125 1.125 0 0 1 -.69.215c-.277 0-.512-.072-.705-.215-.188-.148-.282-.396-.282-.742 0-.351.094-.599.282-.742.193-.143.428-.215.705-.215zm6.121 11.508c-.979 0-1.766-.356-2.359-1.068-.589-.718-.883-1.774-.883-3.169 0-1.41.299-2.475.898-3.198.603-.722 1.397-1.083 2.381-1.083.416 0 .78.057 1.091.17.312.11.579.258.801.446.228.188.421.398.579.63h.082a16.238 16.238 0 0 1 -.089-.66 7.95 7.95 0 0 1 -.045-.808v-2.954h1.751v11.546h-1.365l-.311-1.12h-.075a2.752 2.752 0 0 1 -.564.645 2.607 2.607 0 0 1 -.801.453c-.307.113-.67.17-1.091.17zm.49-1.417c.747 0 1.274-.215 1.58-.646.307-.43.465-1.075.475-1.936v-.23c0-.92-.148-1.625-.445-2.115-.297-.495-.838-.742-1.625-.742-.628 0-1.108.255-1.439.764-.327.505-.49 1.21-.49 2.115s.163 1.598.49 2.078c.331.475.816.712 1.454.712zm9.438-7.1c1.039 0 1.823.23 2.352.69.535.46.802 1.176.802 2.15v5.529h-1.24l-.333-1.165h-.06a4.229 4.229 0 0 1 -.719.734 2.526 2.526 0 0 1 -.861.43c-.322.1-.715.15-1.18.15-.49 0-.927-.09-1.313-.268a2.09 2.09 0 0 1 -.913-.831c-.223-.371-.334-.84-.334-1.41 0-.846.314-1.481.942-1.907.634-.425 1.588-.66 2.865-.705l1.424-.051v-.43c0-.57-.133-.975-.4-1.218-.263-.242-.634-.363-1.113-.363-.411 0-.809.06-1.195.178a8.419 8.419 0 0 0 -1.128.438l-.564-1.232a6.336 6.336 0 0 1 1.365-.52 6.356 6.356 0 0 1 1.603-.2zm1.425 4.444-1.061.037c-.871.03-1.482.178-1.833.445s-.527.633-.527 1.098c0 .406.121.703.364.89.242.183.561.275.957.275.603 0 1.103-.17 1.499-.512.4-.346.601-.853.601-1.521zm8.451-4.445c.925 0 1.645.24 2.159.72.52.475.779 1.239.779 2.293v5.357h-1.743v-5.03c0-.639-.131-1.116-.394-1.433-.262-.322-.667-.482-1.216-.482-.797 0-1.351.245-1.663.734-.306.49-.46 1.2-.46 2.13v4.08h-1.743v-8.213h1.358l.244 1.113h.097c.178-.287.398-.522.66-.705.267-.188.564-.329.891-.423a3.757 3.757 0 0 1 1.031-.14zm8.689 8.518c-.777 0-1.45-.15-2.018-.452-.569-.302-1.007-.765-1.314-1.388-.306-.623-.46-1.415-.46-2.374 0-1 .168-1.816.505-2.449.336-.633.801-1.1 1.395-1.402.598-.302 1.283-.453 2.055-.453.49 0 .932.05 1.328.148.401.094.74.21 1.017.35l-.52 1.394a7.542 7.542 0 0 0 -.927-.311 3.557 3.557 0 0 0 -.913-.127c-.48 0-.88.107-1.202.32-.316.212-.554.529-.712.95-.154.42-.23.942-.23 1.565 0 .603.079 1.113.237 1.528.159.41.394.723.705.935.312.208.695.312 1.15.312.45 0 .854-.054 1.21-.163.356-.11.692-.25 1.009-.423v1.513c-.312.178-.646.31-1.002.394-.356.089-.794.133-1.313.133zm7.516-8.518c.732 0 1.36.151 1.885.453.524.301.927.73 1.209 1.283.282.554.423 1.217.423 1.989v.935h-5.483c.02.796.232 1.41.638 1.84.411.43.984.645 1.721.645.525 0 .995-.049 1.41-.148a7.84 7.84 0 0 0 1.299-.453v1.418a5.69 5.69 0 0 1 -1.254.423c-.426.089-.935.133-1.529.133-.806 0-1.516-.156-2.129-.467a3.415 3.415 0 0 1 -1.432-1.41c-.342-.623-.512-1.398-.512-2.323 0-.92.155-1.701.467-2.344s.75-1.133 1.313-1.47c.564-.336 1.222-.504 1.974-.504zm0 1.313c-.549 0-.994.178-1.335.535-.337.356-.535.878-.594 1.565h3.74a2.887 2.887 0 0 0 -.208-1.09 1.585 1.585 0 0 0 -.594-.742c-.262-.178-.598-.268-1.009-.268zm16.458 7.057h-7.799v-1.225l5.521-8.11h-5.35v-1.513h7.479v1.217l-5.52 8.117h5.669zm9-4.126c0 .683-.089 1.289-.267 1.818-.178.53-.438.977-.779 1.343a3.439 3.439 0 0 1 -1.232.831 4.428 4.428 0 0 1 -1.625.282 4.14 4.14 0 0 1 -1.551-.282 3.533 3.533 0 0 1 -1.224-.83 3.815 3.815 0 0 1 -.794-1.344c-.188-.53-.282-1.135-.282-1.818 0-.905.156-1.672.468-2.3a3.323 3.323 0 0 1 1.35-1.447c.584-.331 1.279-.497 2.085-.497.757 0 1.425.166 2.003.497a3.43 3.43 0 0 1 1.358 1.447c.327.633.49 1.4.49 2.3zm-5.958 0c0 .599.071 1.11.215 1.536.148.426.376.752.682.98.307.222.703.334 1.188.334.484 0 .88-.112 1.187-.334.307-.228.532-.554.675-.98.144-.425.215-.937.215-1.536 0-.598-.071-1.105-.215-1.52-.143-.421-.368-.74-.675-.958-.307-.223-.705-.334-1.195-.334-.722 0-1.249.243-1.58.727-.332.485-.497 1.18-.497 2.085zm12.243-4.244c.925 0 1.644.24 2.159.72.519.475.779 1.239.779 2.293v5.357h-1.744v-5.03c0-.639-.131-1.116-.393-1.433-.262-.322-.668-.482-1.217-.482-.796 0-1.35.245-1.662.734-.307.49-.46 1.2-.46 2.13v4.08h-1.744v-8.213h1.358l.245 1.113h.096c.178-.287.399-.522.661-.705.267-.188.564-.329.89-.423a3.765 3.765 0 0 1 1.032-.14zm8.651 0c.732 0 1.36.151 1.885.453.524.301.927.73 1.209 1.283.282.554.423 1.217.423 1.989v.935h-5.483c.02.796.232 1.41.638 1.84.411.43.984.645 1.721.645.525 0 .995-.049 1.41-.148a7.84 7.84 0 0 0 1.299-.453v1.418a5.69 5.69 0 0 1 -1.254.423c-.426.089-.935.133-1.529.133-.806 0-1.516-.156-2.129-.467a3.415 3.415 0 0 1 -1.432-1.41c-.342-.623-.512-1.398-.512-2.323 0-.92.155-1.701.467-2.344s.75-1.133 1.313-1.47c.564-.336 1.222-.504 1.974-.504zm0 1.313c-.549 0-.994.178-1.335.535-.337.356-.535.878-.594 1.565h3.74a2.887 2.887 0 0 0 -.208-1.09 1.585 1.585 0 0 0 -.594-.742c-.262-.178-.598-.268-1.009-.268zm-104.134 75.169c0 .951-.177 1.745-.531 2.384a3.403 3.403 0 0 1 -1.541 1.437c-.673.319-1.485.479-2.435.479h-2.343v-8.437h2.597c.873 0 1.627.157 2.262.473a3.33 3.33 0 0 1 1.471 1.391c.347.611.52 1.369.52 2.273zm-1.443.041c0-.693-.11-1.262-.329-1.708a2.1 2.1 0 0 0 -.958-.993c-.419-.219-.937-.329-1.552-.329h-1.183v6.129h.981c1.019 0 1.781-.26 2.285-.779.504-.52.756-1.293.756-2.32zm4.845 4.259h-1.373v-8.437h4.767v1.165h-3.394v2.632h3.174v1.16h-3.174zm10.582-1.853h-1.143v1.853h-1.339v-1.853h-3.837v-1.027l3.855-5.581h1.321v5.483h1.143zm-2.482-1.125v-2.095c0-.173.002-.348.006-.525l.023-.52.023-.455.018-.352h-.047a7.025 7.025 0 0 1 -.525.934l-2.077 3.013zm8.793 2.978h-4.779v-8.437h4.779v1.165h-3.393v2.291h3.179v1.16h-3.179v2.649h3.393zm2.035-8.437h2.51c1.089 0 1.91.157 2.464.473.554.315.831.86.831 1.633 0 .323-.057.616-.173.877a1.62 1.62 0 0 1 -.49.641 1.823 1.823 0 0 1 -.797.334v.058c.327.058.618.16.872.306.257.146.459.356.606.629.15.273.225.627.225 1.062 0 .515-.123.954-.37 1.316-.242.361-.59.636-1.044.825-.45.189-.985.283-1.605.283h-3.029zm1.385 3.479h1.327c.627 0 1.062-.102 1.304-.305.243-.204.364-.503.364-.895 0-.4-.144-.689-.433-.866-.285-.177-.739-.265-1.362-.265h-1.2zm0 1.12v2.678h1.46c.646 0 1.1-.125 1.362-.375.261-.25.392-.589.392-1.016 0-.262-.059-.489-.179-.681-.115-.192-.306-.341-.571-.444-.266-.108-.623-.162-1.074-.162zm11.753 3.838h-5.714v-1.022l2.188-2.216a27.44 27.44 0 0 0 1.044-1.114c.273-.315.475-.613.606-.894.135-.281.202-.587.202-.918 0-.408-.117-.715-.352-.923-.235-.212-.544-.317-.929-.317-.365 0-.704.073-1.016.219a4.706 4.706 0 0 0 -.958.612l-.744-.895c.235-.2.485-.383.75-.548.269-.166.57-.296.9-.393.331-.1.708-.15 1.132-.15.534 0 .996.096 1.385.289.388.188.686.452.894.791.212.338.317.732.317 1.183 0 .454-.09.873-.271 1.258a4.838 4.838 0 0 1 -.773 1.142c-.335.374-.733.779-1.195 1.218l-1.46 1.425v.064h3.994z" fill="#fff"/><path d="m885.5 72h172v120h-172z" fill="#000"/><path d="m900.432 83.906h3.228c1.4 0 2.456.203 3.168.608.712.406 1.069 1.106 1.069 2.1 0 .416-.075.792-.223 1.128a2.077 2.077 0 0 1 -.631.824 2.344 2.344 0 0 1 -1.024.43v.074a3.42 3.42 0 0 1 1.121.393c.331.188.591.458.779.81.193.35.289.806.289 1.364 0 .663-.158 1.227-.475 1.692-.311.465-.759.819-1.343 1.061-.578.243-1.266.364-2.062.364h-3.896zm1.781 4.474h1.707c.806 0 1.365-.131 1.676-.393.312-.262.468-.646.468-1.15 0-.515-.186-.886-.557-1.113-.366-.228-.949-.342-1.751-.342h-1.543zm0 1.44v3.442h1.877c.831 0 1.415-.16 1.751-.482.337-.321.505-.757.505-1.306 0-.336-.077-.628-.23-.875-.149-.248-.393-.438-.735-.572-.341-.138-.801-.207-1.38-.207zm9.809 4.934h-1.751v-11.546h1.751zm5.713-8.37c1.039 0 1.823.23 2.353.69.534.46.801 1.177.801 2.152v5.528h-1.239l-.334-1.165h-.06a4.229 4.229 0 0 1 -.719.734 2.517 2.517 0 0 1 -.861.43c-.321.1-.715.15-1.18.15-.489 0-.927-.09-1.313-.268a2.09 2.09 0 0 1 -.913-.831c-.222-.371-.334-.84-.334-1.41 0-.846.315-1.481.943-1.907.633-.425 1.588-.66 2.864-.705l1.424-.051v-.43c0-.57-.133-.975-.4-1.218-.262-.242-.633-.363-1.113-.363-.411 0-.809.06-1.195.178a8.419 8.419 0 0 0 -1.128.438l-.564-1.232a6.325 6.325 0 0 1 1.366-.52 6.343 6.343 0 0 1 1.602-.2zm1.425 4.445-1.061.037c-.871.03-1.482.178-1.833.445s-.527.633-.527 1.098c0 .406.122.703.364.89.242.183.561.275.957.275.604 0 1.103-.17 1.499-.512.401-.346.601-.853.601-1.521zm7.479 4.073c-.776 0-1.449-.15-2.018-.452s-1.007-.765-1.313-1.388c-.307-.623-.46-1.415-.46-2.374 0-1 .168-1.816.504-2.449.337-.633.802-1.1 1.395-1.402.599-.302 1.284-.453 2.056-.453.489 0 .932.05 1.328.148.4.094.739.21 1.016.35l-.519 1.394a7.557 7.557 0 0 0 -.928-.311 3.543 3.543 0 0 0 -.912-.127c-.48 0-.881.107-1.202.32-.317.212-.554.529-.713.95-.153.42-.23.942-.23 1.565 0 .603.079 1.113.238 1.528.158.41.393.723.705.935.311.208.695.312 1.15.312.45 0 .853-.054 1.209-.163a5.35 5.35 0 0 0 1.009-.423v1.513c-.311.178-.645.31-1.001.394-.357.089-.794.133-1.314.133zm5.988-11.694v5.58c0 .252-.01.53-.03.831-.019.297-.039.576-.059.839h.037c.129-.174.282-.376.46-.609a8.82 8.82 0 0 1 .52-.608l2.508-2.701h2.003l-3.287 3.532 3.502 4.682h-2.048l-2.626-3.606-.98.838v2.768h-1.744v-11.546zm-27.906 78.925-.323 1.651h1.558v.964h-1.743l-.467 2.418h-1.028l.474-2.418h-1.443l-.456 2.418h-1.004l.444-2.418h-1.443v-.964h1.628l.329-1.651h-1.53v-.963h1.703l.462-2.436h1.027l-.462 2.436h1.454l.468-2.436h.998l-.461 2.436h1.454v.963zm-2.788 1.651h1.443l.329-1.651h-1.448zm11.171-.843c0 .681-.054 1.291-.162 1.83-.104.535-.269.989-.496 1.362a2.304 2.304 0 0 1 -.889.854c-.365.196-.808.294-1.327.294-.65 0-1.187-.171-1.61-.513-.424-.347-.737-.843-.941-1.489-.204-.651-.306-1.43-.306-2.338s.092-1.685.277-2.331c.189-.65.493-1.149.912-1.495s.975-.519 1.668-.519c.654 0 1.192.173 1.616.519.427.343.742.839.946 1.489.208.646.312 1.426.312 2.337zm-4.363 0c0 .712.046 1.307.138 1.784.097.477.254.834.474 1.073.219.235.511.352.877.352.365 0 .658-.117.877-.352s.377-.591.473-1.068c.1-.477.15-1.073.15-1.789 0-.708-.048-1.3-.144-1.777s-.254-.835-.473-1.074c-.22-.242-.514-.363-.883-.363-.37 0-.664.121-.883.363-.216.239-.371.597-.468 1.074-.092.477-.138 1.069-.138 1.777zm11.337 0c0 .681-.053 1.291-.161 1.83-.104.535-.269.989-.496 1.362a2.31 2.31 0 0 1 -.889.854c-.366.196-.808.294-1.328.294-.65 0-1.186-.171-1.61-.513-.423-.347-.736-.843-.94-1.489-.204-.651-.306-1.43-.306-2.338s.092-1.685.277-2.331c.188-.65.492-1.149.912-1.495.419-.346.975-.519 1.667-.519.655 0 1.193.173 1.616.519.427.343.743.839.947 1.489.208.646.311 1.426.311 2.337zm-4.362 0c0 .712.046 1.307.138 1.784.096.477.254.834.473 1.073.22.235.512.352.877.352.366 0 .658-.117.878-.352.219-.235.377-.591.473-1.068.1-.477.15-1.073.15-1.789 0-.708-.048-1.3-.144-1.777-.097-.477-.254-.835-.474-1.074-.219-.242-.513-.363-.883-.363-.369 0-.663.121-.883.363-.215.239-.371.597-.467 1.074-.092.477-.138 1.069-.138 1.777zm11.337 0c0 .681-.054 1.291-.161 1.83-.104.535-.27.989-.497 1.362a2.308 2.308 0 0 1 -.888.854c-.366.196-.808.294-1.328.294-.65 0-1.187-.171-1.61-.513-.423-.347-.737-.843-.941-1.489-.204-.651-.305-1.43-.305-2.338s.092-1.685.277-2.331c.188-.65.492-1.149.911-1.495.42-.346.976-.519 1.668-.519.654 0 1.193.173 1.616.519.427.343.743.839.947 1.489.207.646.311 1.426.311 2.337zm-4.363 0c0 .712.046 1.307.139 1.784.096.477.254.834.473 1.073.219.235.512.352.877.352.366 0 .658-.117.877-.352.22-.235.377-.591.474-1.068.1-.477.15-1.073.15-1.789 0-.708-.048-1.3-.145-1.777-.096-.477-.254-.835-.473-1.074-.219-.242-.513-.363-.883-.363-.369 0-.663.121-.883.363-.215.239-.371.597-.467 1.074-.093.477-.139 1.069-.139 1.777zm11.338 0c0 .681-.054 1.291-.162 1.83-.104.535-.269.989-.496 1.362a2.304 2.304 0 0 1 -.889.854c-.365.196-.808.294-1.327.294-.65 0-1.187-.171-1.61-.513-.423-.347-.737-.843-.941-1.489-.204-.651-.306-1.43-.306-2.338s.093-1.685.277-2.331c.189-.65.493-1.149.912-1.495s.975-.519 1.668-.519c.654 0 1.193.173 1.616.519.427.343.742.839.946 1.489.208.646.312 1.426.312 2.337zm-4.363 0c0 .712.046 1.307.138 1.784.097.477.254.834.474 1.073.219.235.511.352.877.352.365 0 .658-.117.877-.352s.377-.591.473-1.068c.1-.477.15-1.073.15-1.789 0-.708-.048-1.3-.144-1.777s-.254-.835-.473-1.074c-.219-.242-.514-.363-.883-.363s-.664.121-.883.363c-.216.239-.371.597-.468 1.074-.092.477-.138 1.069-.138 1.777zm11.338 0c0 .681-.054 1.291-.162 1.83-.104.535-.269.989-.496 1.362a2.31 2.31 0 0 1 -.889.854c-.366.196-.808.294-1.327.294-.651 0-1.187-.171-1.611-.513-.423-.347-.736-.843-.94-1.489-.204-.651-.306-1.43-.306-2.338s.092-1.685.277-2.331c.188-.65.492-1.149.912-1.495.419-.346.975-.519 1.668-.519.654 0 1.192.173 1.616.519.427.343.742.839.946 1.489.208.646.312 1.426.312 2.337zm-4.363 0c0 .712.046 1.307.138 1.784.096.477.254.834.473 1.073.22.235.512.352.878.352.365 0 .658-.117.877-.352s.377-.591.473-1.068c.1-.477.15-1.073.15-1.789 0-.708-.048-1.3-.144-1.777s-.254-.835-.473-1.074c-.22-.242-.514-.363-.883-.363-.37 0-.664.121-.883.363-.216.239-.372.597-.468 1.074-.092.477-.138 1.069-.138 1.777zm11.337 0c0 .681-.054 1.291-.161 1.83-.104.535-.27.989-.497 1.362a2.308 2.308 0 0 1 -.888.854c-.366.196-.808.294-1.328.294-.65 0-1.187-.171-1.61-.513-.423-.347-.737-.843-.94-1.489-.204-.651-.306-1.43-.306-2.338s.092-1.685.277-2.331c.188-.65.492-1.149.911-1.495.42-.346.976-.519 1.668-.519.654 0 1.193.173 1.616.519.427.343.743.839.947 1.489.207.646.311 1.426.311 2.337zm-4.363 0c0 .712.047 1.307.139 1.784.096.477.254.834.473 1.073.219.235.512.352.877.352.366 0 .658-.117.878-.352.219-.235.377-.591.473-1.068.1-.477.15-1.073.15-1.789 0-.708-.048-1.3-.144-1.777-.097-.477-.254-.835-.474-1.074-.219-.242-.513-.363-.883-.363-.369 0-.663.121-.883.363-.215.239-.371.597-.467 1.074-.092.477-.139 1.069-.139 1.777z" fill="#fff"/></svg>