<svg width="1090" height="265" fill="none" xmlns="http://www.w3.org/2000/svg"><path fill="#302F2F" d="M0 0h1090v265H0z"/><path fill="#00FE00" d="M96.5 72.4h179.55v120.2H96.5z"/><path d="M117.695 92.2c0 .643-.159 1.197-.475 1.662-.312.465-.762.821-1.351 1.069-.583.247-1.281.37-2.092.37-.396 0-.774-.022-1.135-.066a7.818 7.818 0 01-1.024-.193 5.545 5.545 0 01-.868-.32v-1.676c.44.193.932.368 1.476.527.544.153 1.098.23 1.662.23.46 0 .841-.06 1.143-.178.307-.124.534-.297.682-.52.149-.227.223-.492.223-.794 0-.321-.086-.593-.26-.816-.173-.222-.435-.425-.786-.608a13.159 13.159 0 00-1.306-.601 8.85 8.85 0 01-1.024-.49 4.175 4.175 0 01-.861-.645 2.804 2.804 0 01-.601-.876c-.143-.341-.215-.742-.215-1.202 0-.613.146-1.138.438-1.573.297-.435.712-.77 1.246-1.002.54-.232 1.168-.349 1.885-.349.569 0 1.103.06 1.603.179a8.22 8.22 0 011.484.504l-.564 1.432a10.018 10.018 0 00-1.299-.438 5.014 5.014 0 00-1.276-.163c-.376 0-.695.057-.957.17a1.339 1.339 0 00-.601.483c-.134.203-.2.445-.2.727 0 .317.076.584.23.802.158.212.4.408.727.586.331.178.757.376 1.276.593a9.166 9.166 0 011.521.78c.421.272.742.598.965.979.222.376.334.848.334 1.417zm9.074-5.26v8.213h-1.373l-.237-1.105h-.096a2.382 2.382 0 01-.661.705 2.927 2.927 0 01-.89.408c-.327.094-.67.14-1.032.14-.618 0-1.147-.103-1.587-.311a2.2 2.2 0 01-1.002-.98c-.233-.44-.349-1.009-.349-1.706v-5.365h1.751v5.039c0 .638.129 1.115.386 1.432.262.316.668.475 1.217.475.529 0 .95-.11 1.261-.327.312-.218.532-.54.661-.965.133-.425.2-.947.2-1.565v-4.089h1.751zm5.81 8.362c-.777 0-1.449-.151-2.018-.453-.569-.302-1.007-.764-1.314-1.388-.306-.623-.46-1.414-.46-2.374 0-1 .169-1.815.505-2.448.336-.634.801-1.101 1.395-1.403.598-.302 1.284-.452 2.055-.452.49 0 .933.05 1.328.148.401.094.74.21 1.017.349l-.52 1.395a7.486 7.486 0 00-.927-.312 3.556 3.556 0 00-.913-.126c-.479 0-.88.106-1.202.319-.316.213-.554.53-.712.95-.153.42-.23.942-.23 1.565 0 .604.079 1.113.237 1.529.159.41.394.722.705.935.312.207.695.311 1.15.311.451 0 .854-.054 1.21-.163.356-.109.692-.25 1.009-.423v1.514c-.312.178-.646.309-1.002.393-.356.09-.794.134-1.313.134zm7.553 0c-.776 0-1.449-.151-2.018-.453-.569-.302-1.006-.764-1.313-1.388-.307-.623-.46-1.414-.46-2.374 0-1 .168-1.815.504-2.448.337-.634.802-1.101 1.395-1.403.599-.302 1.284-.452 2.056-.452.489 0 .932.05 1.328.148.4.094.739.21 1.016.349l-.519 1.395a7.557 7.557 0 00-.928-.312 3.543 3.543 0 00-.912-.126c-.48 0-.881.106-1.202.319-.317.213-.554.53-.713.95-.153.42-.23.942-.23 1.565 0 .604.08 1.113.238 1.529.158.41.393.722.705.935.311.207.695.311 1.15.311.45 0 .853-.054 1.209-.163a5.35 5.35 0 001.009-.423v1.514c-.311.178-.645.309-1.001.393-.356.09-.794.134-1.314.134zm7.517-8.518c.732 0 1.36.15 1.884.452.525.302.928.73 1.21 1.284.282.554.423 1.217.423 1.988v.935h-5.483c.019.797.232 1.41.638 1.84.41.43.984.646 1.721.646.524 0 .994-.05 1.41-.148a7.84 7.84 0 001.298-.453v1.417c-.41.193-.828.334-1.254.423a7.565 7.565 0 01-1.528.134c-.806 0-1.516-.156-2.13-.468a3.426 3.426 0 01-1.432-1.41c-.341-.623-.512-1.397-.512-2.322 0-.92.156-1.702.468-2.345.311-.643.749-1.133 1.313-1.469.564-.336 1.222-.504 1.974-.504zm0 1.313c-.549 0-.994.178-1.336.534-.336.356-.534.878-.593 1.566h3.739a2.87 2.87 0 00-.208-1.091 1.578 1.578 0 00-.593-.742c-.262-.178-.599-.267-1.009-.267zm11.004 4.712c0 .539-.132.994-.394 1.365-.262.37-.645.653-1.15.846-.499.188-1.113.282-1.84.282a7.583 7.583 0 01-1.484-.127 5.074 5.074 0 01-1.165-.37v-1.507c.391.183.829.342 1.313.475.49.134.953.2 1.388.2.574 0 .987-.088 1.239-.267a.857.857 0 00.379-.727.77.77 0 00-.156-.475c-.099-.143-.287-.289-.564-.437a10.788 10.788 0 00-1.202-.55c-.52-.207-.957-.415-1.314-.623-.356-.208-.625-.457-.808-.75-.183-.296-.275-.674-.275-1.134 0-.728.287-1.28.861-1.655.579-.381 1.343-.571 2.293-.571.504 0 .979.051 1.424.155.45.1.891.245 1.321.438l-.549 1.314a8.222 8.222 0 00-1.121-.401 4.011 4.011 0 00-1.135-.163c-.45 0-.794.069-1.031.207-.233.139-.349.337-.349.594 0 .193.057.356.171.49.114.133.309.267.586.4.282.134.673.3 1.172.498.49.187.913.385 1.269.593.361.203.638.453.831.75.193.296.29.68.29 1.15zm7.405 0c0 .539-.131.994-.394 1.365-.262.37-.645.653-1.15.846-.499.188-1.113.282-1.84.282a7.583 7.583 0 01-1.484-.127 5.09 5.09 0 01-1.165-.37v-1.507c.391.183.829.342 1.314.475.489.134.952.2 1.387.2.574 0 .987-.088 1.239-.267a.857.857 0 00.379-.727.77.77 0 00-.156-.475c-.099-.143-.287-.289-.564-.437a10.788 10.788 0 00-1.202-.55 9.967 9.967 0 01-1.313-.623c-.357-.208-.626-.457-.809-.75-.183-.296-.275-.674-.275-1.134 0-.728.287-1.28.861-1.655.579-.381 1.343-.571 2.293-.571.504 0 .979.051 1.424.155.45.1.891.245 1.321.438l-.549 1.314a8.258 8.258 0 00-1.12-.401 4.018 4.018 0 00-1.136-.163c-.45 0-.794.069-1.031.207-.233.139-.349.337-.349.594 0 .193.057.356.171.49.114.133.309.267.586.4.282.134.673.3 1.172.498.49.187.913.385 1.269.593.361.203.638.453.831.75.193.296.29.68.29 1.15zm3.636-.395c0-.547.052-1.08.156-1.602.107-.52.27-1.017.488-1.489a5.95 5.95 0 01.825-1.308h1.001a6.844 6.844 0 00-1.054 2.065 7.778 7.778 0 00-.196 3.862c.105.508.261.996.469 1.465.209.472.466.915.772 1.328h-.992a5.763 5.763 0 01-.825-1.279 6.547 6.547 0 01-.488-1.465 7.937 7.937 0 01-.156-1.577zm7.832.796c0 .423-.104.788-.313 1.094-.205.306-.501.54-.888.703-.385.162-.843.244-1.377.244a6.09 6.09 0 01-.747-.044 5.12 5.12 0 01-.674-.127 3.673 3.673 0 01-.572-.21v-1.104c.29.127.614.243.972.347.358.101.723.152 1.094.152.303 0 .553-.04.752-.118a.943.943 0 00.449-.341.932.932 0 00.147-.523.848.848 0 00-.171-.537 1.557 1.557 0 00-.518-.4 8.672 8.672 0 00-.859-.396 5.804 5.804 0 01-.674-.322 2.738 2.738 0 01-.567-.425 1.841 1.841 0 01-.395-.576 2.038 2.038 0 01-.142-.791c0-.404.096-.749.288-1.035.196-.287.469-.507.821-.66.355-.153.768-.229 1.24-.229.374 0 .726.04 1.055.117.332.078.657.189.976.332l-.371.943a6.638 6.638 0 00-.854-.288 3.304 3.304 0 00-.84-.108c-.248 0-.458.038-.63.112a.886.886 0 00-.396.318.857.857 0 00-.131.478c0 .209.05.385.151.528.104.14.264.268.478.385.219.118.499.248.84.391a6.03 6.03 0 011.001.513c.277.179.489.394.635.644.147.248.22.559.22.933zm4.033-3.565c.641 0 1.156.235 1.543.704.391.468.586 1.165.586 2.09 0 .611-.091 1.127-.274 1.547-.179.417-.431.733-.756.947a2.012 2.012 0 01-1.128.318c-.274 0-.511-.036-.713-.108a1.777 1.777 0 01-.518-.278 2 2 0 01-.361-.38h-.068c.016.13.03.274.043.434.017.156.025.3.025.43v2.202h-1.152v-7.803h.937l.161.747h.054c.101-.153.223-.294.366-.425.147-.13.322-.232.527-.307.209-.079.451-.118.728-.118zm-.308.938c-.315 0-.569.063-.761.19a1.06 1.06 0 00-.415.562c-.085.25-.131.565-.137.942v.161c0 .4.041.741.122 1.02.085.278.223.49.415.636.195.143.459.215.791.215.28 0 .511-.077.693-.23.186-.153.324-.371.415-.654.092-.284.137-.617.137-1.001 0-.583-.104-1.035-.312-1.358-.205-.322-.521-.483-.948-.483zm5.918-.938c.482 0 .896.1 1.241.298.345.199.61.48.795.845.186.365.279.8.279 1.309v.615h-3.609c.013.524.153.928.42 1.21.27.284.648.426 1.133.426.345 0 .654-.033.928-.098.277-.068.561-.168.854-.298v.933c-.27.127-.545.22-.825.278-.28.059-.615.088-1.006.088-.53 0-.997-.103-1.401-.308a2.247 2.247 0 01-.942-.927c-.225-.41-.337-.92-.337-1.529 0-.605.102-1.12.307-1.543.205-.423.493-.745.864-.966.372-.222.805-.333 1.299-.333zm0 .865c-.361 0-.654.117-.879.351-.221.235-.351.578-.39 1.03h2.461a1.905 1.905 0 00-.137-.717 1.042 1.042 0 00-.391-.489c-.172-.117-.393-.175-.664-.175zm5.786 4.74c-.511 0-.953-.098-1.328-.297a1.999 1.999 0 01-.864-.913c-.202-.41-.303-.931-.303-1.563 0-.657.111-1.194.332-1.61a2.12 2.12 0 01.918-.924 2.966 2.966 0 011.353-.298c.322 0 .613.033.874.098.264.062.487.138.669.23l-.342.918a5.006 5.006 0 00-.61-.206 2.342 2.342 0 00-.601-.082c-.316 0-.579.07-.791.21-.208.14-.364.348-.469.624-.101.277-.151.62-.151 1.03 0 .398.052.733.156 1.007.104.27.259.475.464.615.205.136.457.205.757.205.296 0 .561-.036.796-.108.234-.071.456-.164.664-.278v.996a2.462 2.462 0 01-.659.259 3.631 3.631 0 01-.865.088zm3.941-5.502v5.405h-1.148v-5.405h1.148zm-.567-2.07c.176 0 .328.047.455.141.13.095.195.257.195.489 0 .227-.065.39-.195.488a.742.742 0 01-.455.141.754.754 0 01-.463-.141c-.124-.098-.186-.26-.186-.488 0-.232.062-.394.186-.489a.754.754 0 01.463-.141zm4.332 1.967c.683 0 1.199.152 1.547.455.352.302.528.774.528 1.416v3.637h-.816l-.219-.766h-.039a2.784 2.784 0 01-.474.483 1.66 1.66 0 01-.567.283c-.211.065-.47.098-.776.098a2.04 2.04 0 01-.864-.176 1.377 1.377 0 01-.601-.547c-.146-.244-.219-.553-.219-.928 0-.556.206-.974.62-1.254.416-.28 1.045-.435 1.884-.464l.938-.034v-.284c0-.374-.088-.64-.264-.8-.172-.16-.416-.24-.732-.24-.27 0-.532.04-.786.117a5.515 5.515 0 00-.742.289l-.372-.81c.264-.14.564-.255.899-.343.338-.088.69-.132 1.055-.132zm.937 2.925l-.698.025c-.573.02-.975.117-1.206.293a.86.86 0 00-.347.722c0 .267.08.463.239.586.16.12.37.18.63.18.397 0 .726-.111.987-.336.263-.228.395-.562.395-1.001v-.469zm3.897 2.583h-1.153v-7.597h1.153v7.597zm4.142-3.293a9.54 9.54 0 01-.187 1.899 7.705 7.705 0 01-.58 1.757 6.536 6.536 0 01-.997 1.536h-1.183a8.32 8.32 0 00.926-1.594c.25-.567.437-1.154.562-1.764a9.162 9.162 0 00-.006-3.72 8.748 8.748 0 00-.562-1.782 8.009 8.009 0 00-.932-1.605h1.195c.407.48.739 1.004.997 1.57.261.567.455 1.162.58 1.787.125.621.187 1.26.187 1.916zM116.252 163.341c0 .681-.054 1.291-.162 1.829-.104.535-.269.989-.496 1.362a2.296 2.296 0 01-.889.854c-.365.197-.808.295-1.327.295-.65 0-1.187-.171-1.61-.514-.423-.346-.737-.842-.941-1.489-.204-.65-.306-1.429-.306-2.337 0-.908.093-1.685.277-2.332.189-.65.493-1.148.912-1.494.419-.347.975-.52 1.668-.52.654 0 1.193.173 1.616.52.427.342.742.838.946 1.489.208.646.312 1.425.312 2.337zm-4.363 0c0 .712.046 1.306.138 1.783.097.477.254.835.474 1.074.219.234.511.352.877.352.365 0 .658-.118.877-.352.219-.235.377-.591.473-1.068.1-.477.15-1.073.15-1.789 0-.708-.048-1.3-.144-1.778-.096-.477-.254-.834-.473-1.073-.219-.242-.514-.364-.883-.364s-.664.122-.883.364c-.216.239-.371.596-.468 1.073-.092.478-.138 1.07-.138 1.778zm11.338 0c0 .681-.054 1.291-.162 1.829-.104.535-.269.989-.496 1.362a2.303 2.303 0 01-.889.854c-.366.197-.808.295-1.327.295-.651 0-1.187-.171-1.611-.514-.423-.346-.736-.842-.94-1.489-.204-.65-.306-1.429-.306-2.337 0-.908.092-1.685.277-2.332.188-.65.492-1.148.912-1.494.419-.347.975-.52 1.668-.52.654 0 1.192.173 1.615.52.428.342.743.838.947 1.489.208.646.312 1.425.312 2.337zm-4.363 0c0 .712.046 1.306.138 1.783.096.477.254.835.473 1.074.22.234.512.352.878.352.365 0 .657-.118.877-.352.219-.235.377-.591.473-1.068.1-.477.15-1.073.15-1.789 0-.708-.048-1.3-.144-1.778-.096-.477-.254-.834-.473-1.073-.22-.242-.514-.364-.883-.364-.37 0-.664.122-.883.364-.216.239-.372.596-.468 1.073-.092.478-.138 1.07-.138 1.778zm7.575 4.224h-1.374v-8.437h4.767v1.166h-3.393v2.631h3.174v1.16h-3.174v3.48zm9.918 0h-4.779v-8.437h4.779v1.166h-3.394v2.291h3.18v1.16h-3.18v2.649h3.394v1.171zm7.17-4.224a9.35 9.35 0 01-.161 1.829c-.104.535-.269.989-.496 1.362a2.303 2.303 0 01-.889.854c-.366.197-.808.295-1.328.295-.65 0-1.186-.171-1.61-.514-.423-.346-.736-.842-.94-1.489-.204-.65-.306-1.429-.306-2.337 0-.908.092-1.685.277-2.332.188-.65.492-1.148.912-1.494.419-.347.975-.52 1.667-.52.655 0 1.193.173 1.616.52.427.342.743.838.947 1.489.208.646.311 1.425.311 2.337zm-4.362 0c0 .712.046 1.306.138 1.783.096.477.254.835.473 1.074.22.234.512.352.877.352.366 0 .658-.118.878-.352.219-.235.377-.591.473-1.068.1-.477.15-1.073.15-1.789 0-.708-.048-1.3-.144-1.778-.097-.477-.254-.834-.474-1.073-.219-.242-.513-.364-.883-.364-.369 0-.663.122-.883.364-.215.239-.371.596-.467 1.073-.092.478-.138 1.07-.138 1.778zm11.337 0c0 .681-.054 1.291-.161 1.829-.104.535-.27.989-.497 1.362a2.3 2.3 0 01-.888.854c-.366.197-.808.295-1.328.295-.65 0-1.187-.171-1.61-.514-.423-.346-.737-.842-.941-1.489-.204-.65-.305-1.429-.305-2.337 0-.908.092-1.685.277-2.332.188-.65.492-1.148.911-1.494.42-.347.976-.52 1.668-.52.654 0 1.193.173 1.616.52.427.342.743.838.947 1.489.207.646.311 1.425.311 2.337zm-4.363 0c0 .712.046 1.306.139 1.783.096.477.254.835.473 1.074.219.234.512.352.877.352.366 0 .658-.118.877-.352.22-.235.377-.591.474-1.068.1-.477.15-1.073.15-1.789 0-.708-.048-1.3-.145-1.778-.096-.477-.254-.834-.473-1.073-.219-.242-.513-.364-.883-.364-.369 0-.663.122-.883.364-.215.239-.371.596-.467 1.073-.093.478-.139 1.07-.139 1.778z" fill="#252A2E"/><path fill="#019AEB" d="M276.05 72.4H455.6v120.2H276.05z"/><path d="M290.982 95.153V84.305h1.781v10.848h-1.781zm8.749-8.37c.925 0 1.644.24 2.159.72.519.475.779 1.24.779 2.293v5.357h-1.744v-5.03c0-.639-.131-1.116-.393-1.433-.262-.321-.668-.482-1.217-.482-.796 0-1.35.245-1.662.735-.307.49-.46 1.2-.46 2.13v4.08h-1.744V86.94h1.358l.245 1.113h.096a2.39 2.39 0 01.661-.705c.267-.188.564-.328.89-.422a3.765 3.765 0 011.032-.141zm9.482 1.485h-1.996v6.885h-1.743v-6.885h-1.343v-.839l1.343-.512v-.571c0-.698.108-1.252.326-1.662.223-.41.539-.705.95-.883.415-.183.91-.275 1.484-.275.376 0 .72.032 1.031.097.312.06.574.128.787.207l-.453 1.321a5.731 5.731 0 00-.564-.148 2.88 2.88 0 00-.668-.074c-.395 0-.687.123-.875.37-.183.248-.275.609-.275 1.084v.556h1.996v1.329zm8.674 2.76c0 .682-.089 1.288-.267 1.818-.178.529-.438.977-.779 1.343a3.43 3.43 0 01-1.232.83c-.48.189-1.021.283-1.625.283a4.14 4.14 0 01-1.551-.282 3.542 3.542 0 01-1.224-.831 3.815 3.815 0 01-.794-1.343c-.188-.53-.282-1.136-.282-1.818 0-.905.156-1.672.468-2.3a3.324 3.324 0 011.35-1.447c.584-.332 1.279-.497 2.085-.497.757 0 1.425.165 2.004.497a3.434 3.434 0 011.357 1.447c.327.633.49 1.4.49 2.3zm-5.958 0c0 .598.072 1.11.215 1.536.148.425.376.752.683.98.306.222.702.333 1.187.333.485 0 .88-.111 1.187-.334.307-.227.532-.554.675-.98.144-.425.215-.937.215-1.535 0-.599-.071-1.106-.215-1.521-.143-.42-.368-.74-.675-.958-.307-.222-.705-.333-1.195-.333-.722 0-1.249.242-1.58.727-.331.485-.497 1.18-.497 2.085zm12.525-6.723l-4.044 10.848h-1.633l4.044-10.848h1.633zm3.316 10.848h-1.766V84.305h6.129v1.5h-4.363v3.383h4.081v1.491h-4.081v4.474zm13.43-4.125c0 .682-.089 1.288-.267 1.818a3.63 3.63 0 01-.779 1.343 3.435 3.435 0 01-1.231.83 4.428 4.428 0 01-1.625.283 4.14 4.14 0 01-1.551-.282 3.533 3.533 0 01-1.224-.831 3.8 3.8 0 01-.794-1.343c-.188-.53-.282-1.136-.282-1.818 0-.905.155-1.672.467-2.3a3.332 3.332 0 011.351-1.447c.583-.332 1.278-.497 2.085-.497.756 0 1.424.165 2.003.497.579.331 1.031.813 1.358 1.447.326.633.489 1.4.489 2.3zm-5.958 0c0 .598.072 1.11.215 1.536.149.425.376.752.683.98.307.222.702.333 1.187.333.485 0 .881-.111 1.187-.334.307-.227.532-.554.676-.98.143-.425.215-.937.215-1.535 0-.599-.072-1.106-.215-1.521-.144-.42-.369-.74-.676-.958-.306-.222-.704-.333-1.194-.333-.722 0-1.249.242-1.581.727-.331.485-.497 1.18-.497 2.085zm11.271 4.274c-.777 0-1.449-.151-2.018-.453-.569-.302-1.007-.764-1.313-1.388-.307-.623-.46-1.414-.46-2.374 0-1 .168-1.815.504-2.448.336-.634.801-1.101 1.395-1.403.599-.302 1.284-.452 2.055-.452.49 0 .933.05 1.329.148.4.094.739.21 1.016.349l-.519 1.395a7.557 7.557 0 00-.928-.312 3.549 3.549 0 00-.912-.126c-.48 0-.881.106-1.203.319-.316.213-.554.53-.712.95-.153.42-.23.942-.23 1.565 0 .604.079 1.113.238 1.529.158.41.393.722.704.935.312.207.695.311 1.151.311.45 0 .853-.054 1.209-.163a5.35 5.35 0 001.009-.423v1.514c-.312.178-.645.309-1.002.393-.356.09-.794.134-1.313.134zm11.405-8.363v8.214h-1.373l-.238-1.105h-.096a2.366 2.366 0 01-.66.705 2.932 2.932 0 01-.891.408c-.326.094-.67.14-1.031.14-.619 0-1.148-.103-1.588-.311a2.21 2.21 0 01-1.002-.98c-.232-.44-.348-1.009-.348-1.706v-5.365h1.751v5.039c0 .638.128 1.115.385 1.432.263.316.668.475 1.217.475.53 0 .95-.11 1.262-.327.311-.218.531-.54.66-.965.134-.425.2-.947.2-1.565v-4.089h1.752zm8.02 5.87c0 .539-.131.994-.393 1.365-.262.37-.645.653-1.15.846-.5.188-1.113.282-1.84.282a7.576 7.576 0 01-1.484-.127 5.074 5.074 0 01-1.165-.37v-1.507c.391.183.829.342 1.313.475.49.134.953.2 1.388.2.574 0 .987-.088 1.239-.267a.856.856 0 00.378-.727.775.775 0 00-.155-.475c-.099-.143-.287-.289-.564-.437a10.788 10.788 0 00-1.202-.55c-.52-.207-.957-.415-1.314-.623-.356-.208-.625-.457-.808-.75-.183-.296-.275-.674-.275-1.134 0-.728.287-1.28.861-1.655.579-.381 1.343-.571 2.293-.571.504 0 .979.051 1.424.155.45.1.891.245 1.321.438l-.549 1.314a8.222 8.222 0 00-1.121-.401 4.011 4.011 0 00-1.135-.163c-.45 0-.794.069-1.031.207-.233.139-.349.337-.349.594 0 .193.057.356.171.49.113.133.309.267.586.4.282.134.673.3 1.172.498.49.187.913.385 1.269.593.361.203.638.453.831.75.193.296.289.68.289 1.15zM295.219 163.377l-.381 1.962h1.634v.745H294.7l-.485 2.481h-.791l.485-2.481h-1.748l-.474 2.481h-.784l.461-2.481h-1.512v-.745h1.656l.393-1.962h-1.599v-.733h1.726l.473-2.516h.802l-.473 2.516h1.76l.485-2.516h.773l-.484 2.516h1.523v.733h-1.668zm-2.92 1.962h1.749l.381-1.962h-1.749l-.381 1.962zm11.087-1.004c0 1.458-.231 2.547-.693 3.267-.458.719-1.16 1.079-2.106 1.079-.908 0-1.599-.368-2.072-1.103-.473-.738-.71-1.819-.71-3.243 0-1.47.229-2.56.687-3.272.458-.712 1.156-1.068 2.095-1.068.915 0 1.61.372 2.083 1.114.477.743.716 1.818.716 3.226zm-4.611 0c0 1.227.144 2.122.432 2.684.289.558.749.836 1.38.836.638 0 1.1-.282 1.385-.848.288-.569.433-1.46.433-2.672 0-1.212-.145-2.099-.433-2.66-.285-.566-.747-.849-1.385-.849-.631 0-1.091.279-1.38.837-.288.554-.432 1.445-.432 2.672zm9.349 4.23h-.935v-6.013c0-.5.016-.973.046-1.42a5.36 5.36 0 01-.271.254c-.1.089-.558.464-1.373 1.126l-.508-.658 2.233-1.726h.808v8.437zm8.778-4.836c0 3.301-1.277 4.952-3.832 4.952-.446 0-.8-.039-1.062-.116v-.825c.308.1.658.15 1.051.15.923 0 1.62-.285 2.089-.854.473-.573.731-1.45.773-2.632h-.069c-.212.32-.492.564-.843.733-.35.166-.744.248-1.183.248-.746 0-1.339-.223-1.777-.669-.439-.446-.658-1.07-.658-1.87 0-.877.244-1.569.733-2.077.492-.508 1.139-.762 1.939-.762.573 0 1.073.148 1.5.444.431.293.762.722.993 1.287.231.562.346 1.226.346 1.991zm-2.839-2.903c-.55 0-.975.177-1.275.531-.301.354-.451.847-.451 1.478 0 .554.139.99.416 1.31.277.315.698.473 1.264.473.35 0 .671-.071.964-.214.296-.142.529-.336.698-.582a1.35 1.35 0 00.254-.774c0-.404-.079-.777-.237-1.119a1.94 1.94 0 00-.664-.808 1.643 1.643 0 00-.969-.295zm9.961 7.739l-1.05-2.683h-3.382l-1.039 2.683h-.992l3.335-8.472h.826l3.318 8.472h-1.016zm-1.356-3.566l-.981-2.614a14.106 14.106 0 01-.393-1.218c-.084.369-.205.775-.363 1.218l-.993 2.614h2.73zm8.253 3.566h-4.703v-8.437h4.703V161h-3.722v2.718h3.497v.865h-3.497v3.105h3.722v.877zm1.893-8.437h2.384c1.119 0 1.929.167 2.429.502.501.335.751.864.751 1.587 0 .5-.141.914-.422 1.241-.277.323-.683.533-1.217.629v.058c1.281.219 1.921.892 1.921 2.02 0 .754-.255 1.342-.767 1.766-.508.423-1.22.634-2.135.634h-2.944v-8.437zm.981 3.613h1.616c.693 0 1.191-.108 1.495-.323.304-.22.456-.587.456-1.103 0-.473-.169-.813-.508-1.021-.339-.212-.877-.318-1.616-.318h-1.443v2.765zm0 .831v3.157h1.761c.681 0 1.192-.131 1.535-.393.346-.265.519-.679.519-1.241 0-.523-.177-.908-.531-1.154-.35-.246-.885-.369-1.604-.369h-1.68z" fill="#fff"/><path fill="#FF8B00" d="M455.601 72.4H634.4v120.2H455.601z"/><path d="M477.255 95.153l-1.061-3.012h-4.148l-1.061 3.012h-1.877l4.037-10.892h1.973l4.029 10.892h-1.892zm-1.521-4.54l-1.031-2.969-.171-.541a130.964 130.964 0 01-.408-1.343c-.049.203-.111.43-.185.682-.07.248-.139.48-.208.698l-.149.504-1.038 2.968h3.19zm6.418 4.54h-1.751V83.608h1.751v11.545zm5.766-8.37c.732 0 1.36.151 1.884.453.525.302.928.73 1.21 1.284.282.554.423 1.217.423 1.988v.935h-5.484c.02.797.233 1.41.638 1.84.411.43.985.646 1.722.646.524 0 .994-.05 1.41-.148a7.84 7.84 0 001.298-.453v1.417c-.41.193-.828.334-1.254.423a7.565 7.565 0 01-1.528.134c-.807 0-1.516-.156-2.13-.468a3.42 3.42 0 01-1.432-1.41c-.341-.623-.512-1.397-.512-2.322 0-.92.156-1.702.468-2.345.311-.643.749-1.133 1.313-1.469.564-.336 1.222-.504 1.974-.504zm0 1.314c-.549 0-.995.178-1.336.534-.336.356-.534.878-.594 1.566h3.74a2.87 2.87 0 00-.208-1.091 1.578 1.578 0 00-.593-.742c-.262-.178-.599-.267-1.009-.267zm9.646-1.313a4.995 4.995 0 01.875.081l-.163 1.633a2.217 2.217 0 00-.386-.067 4.07 4.07 0 00-.401-.022c-.311 0-.608.051-.89.155a2.056 2.056 0 00-.749.46 2.087 2.087 0 00-.512.765 2.836 2.836 0 00-.186 1.068v4.296h-1.751V86.94h1.365l.238 1.447h.081c.164-.292.366-.559.609-.801.242-.242.519-.435.831-.579a2.416 2.416 0 011.039-.222zm5.453 7.108c.228 0 .453-.02.675-.06.223-.044.426-.096.609-.155v1.32a3.646 3.646 0 01-.75.216c-.306.059-.625.089-.957.089-.465 0-.883-.077-1.254-.23a1.836 1.836 0 01-.883-.81c-.217-.38-.326-.907-.326-1.58v-4.414h-1.121v-.78l1.202-.615.572-1.759h1.098v1.825h2.352v1.329h-2.352v4.392c0 .416.104.725.312.928.207.203.482.304.823.304zm11.464-9.587l-4.044 10.848h-1.632l4.044-10.848h1.632zm18.327 0l-2.834 10.848h-1.944l-1.811-6.5a47.116 47.116 0 01-.311-1.232c-.05-.227-.094-.435-.134-.623a12.917 12.917 0 01-.074-.445c-.01.104-.032.25-.067.438s-.077.396-.126.623a17.75 17.75 0 01-.297 1.247l-1.781 6.492h-1.936l-2.827-10.848h1.788l1.566 6.36c.049.202.098.422.148.66.054.232.104.467.148.704a21.138 21.138 0 01.23 1.306 34.003 34.003 0 01.223-1.328c.049-.242.099-.475.148-.697.055-.223.109-.423.164-.601l1.766-6.404h1.736l1.803 6.426c.054.183.106.388.156.616a24.287 24.287 0 01.385 1.988c.035-.242.08-.519.134-.83.054-.312.116-.629.186-.95.069-.322.138-.619.207-.89l1.558-6.36h1.796zm4.578 2.479c1.039 0 1.823.23 2.352.69.535.46.802 1.177.802 2.151v5.528h-1.239l-.334-1.165h-.06a4.23 4.23 0 01-.719.735 2.526 2.526 0 01-.861.43c-.322.1-.715.149-1.18.149-.49 0-.927-.09-1.313-.268a2.089 2.089 0 01-.913-.83c-.223-.371-.334-.841-.334-1.41 0-.846.314-1.482.943-1.907.633-.426 1.587-.66 2.864-.705l1.424-.052v-.43c0-.57-.133-.975-.4-1.217-.263-.243-.634-.364-1.113-.364-.411 0-.809.06-1.195.178a8.432 8.432 0 00-1.128.438l-.564-1.232a6.341 6.341 0 011.365-.52 6.36 6.36 0 011.603-.2zm1.425 4.444l-1.061.037c-.871.03-1.482.178-1.833.445-.351.268-.527.634-.527 1.099 0 .405.121.702.364.89.242.183.561.275.957.275.603 0 1.103-.171 1.499-.513.4-.346.601-.853.601-1.52v-.713zm8.332-4.444a4.999 4.999 0 01.876.081l-.163 1.633a2.217 2.217 0 00-.386-.067 4.087 4.087 0 00-.401-.022c-.311 0-.608.051-.89.155a2.112 2.112 0 00-1.262 1.224 2.857 2.857 0 00-.185 1.07v4.295h-1.751V86.94h1.365l.237 1.447h.082c.163-.292.366-.559.609-.801.242-.242.519-.435.831-.579a2.411 2.411 0 011.038-.222zm6.678 0c.925 0 1.645.24 2.159.72.52.474.78 1.239.78 2.292v5.357h-1.744v-5.03c0-.639-.131-1.116-.393-1.433-.263-.321-.668-.482-1.217-.482-.797 0-1.351.245-1.662.735-.307.49-.46 1.2-.46 2.13v4.08h-1.744V86.94h1.358l.245 1.113h.096c.178-.287.398-.522.661-.705.267-.188.563-.328.89-.422a3.757 3.757 0 011.031-.141zm7.123.155v8.214h-1.743V86.94h1.743zm-.86-3.146c.267 0 .497.072.69.216.198.143.297.39.297.742 0 .346-.099.593-.297.742a1.124 1.124 0 01-.69.215c-.277 0-.512-.072-.705-.215-.188-.149-.282-.396-.282-.742 0-.352.094-.599.282-.742.193-.144.428-.216.705-.216zm7.642 2.99c.925 0 1.645.24 2.159.72.52.475.779 1.24.779 2.293v5.357h-1.743v-5.03c0-.639-.131-1.116-.393-1.433-.263-.321-.668-.482-1.217-.482-.797 0-1.351.245-1.662.735-.307.49-.46 1.2-.46 2.13v4.08h-1.744V86.94h1.358l.245 1.113h.096c.178-.287.398-.522.66-.705.268-.188.564-.328.891-.422a3.757 3.757 0 011.031-.141zm7.724 12.02c-1.113 0-1.966-.2-2.56-.6-.593-.4-.89-.962-.89-1.684 0-.505.158-.933.475-1.284.317-.346.769-.586 1.358-.72a1.51 1.51 0 01-.579-.46 1.155 1.155 0 01-.237-.705c0-.306.086-.569.259-.786.173-.218.433-.428.779-.631a2.262 2.262 0 01-1.038-.89c-.258-.416-.386-.903-.386-1.462 0-.594.126-1.098.378-1.514.252-.42.621-.74 1.106-.957.485-.222 1.071-.334 1.758-.334.149 0 .309.01.483.03.178.015.341.035.489.06.154.019.27.041.349.066h2.842v.972l-1.395.26a2.455 2.455 0 01.438 1.425c0 .85-.295 1.52-.883 2.01-.584.485-1.39.727-2.419.727a8.3 8.3 0 01-.72-.06c-.178.11-.314.23-.408.364a.723.723 0 00-.141.438c0 .134.047.243.141.327.094.079.232.138.416.178.187.04.415.06.682.06h1.417c.901 0 1.588.19 2.063.57.475.381.712.94.712 1.677 0 .935-.385 1.655-1.157 2.16-.772.51-1.882.764-3.332.764zm.067-1.223c.609 0 1.121-.06 1.536-.178.416-.12.73-.29.942-.513.213-.217.319-.477.319-.779 0-.267-.066-.472-.2-.615-.133-.144-.334-.243-.601-.297a5.087 5.087 0 00-.994-.082h-1.291c-.322 0-.606.05-.854.149-.247.103-.44.252-.578.445a1.192 1.192 0 00-.201.697c0 .376.166.666.497.868.337.203.812.305 1.425.305zm.341-6.396c.51 0 .888-.139 1.136-.416.247-.282.371-.678.371-1.187 0-.554-.129-.97-.386-1.247-.252-.277-.628-.415-1.128-.415-.49 0-.863.14-1.12.423-.253.282-.379.7-.379 1.254 0 .5.126.89.379 1.172.257.277.633.416 1.127.416zM474.821 162.533l-.323 1.651h1.558v.963h-1.742l-.468 2.418h-1.027l.473-2.418h-1.443l-.456 2.418h-1.004l.445-2.418h-1.443v-.963h1.627l.329-1.651h-1.529v-.964h1.702l.462-2.435h1.027l-.461 2.435h1.454l.467-2.435h.999l-.462 2.435h1.454v.964h-1.639zm-2.787 1.651h1.443l.329-1.651h-1.449l-.323 1.651zm7.408 3.381h-1.374v-8.437h4.767v1.166h-3.393v2.631h3.174v1.16h-3.174v3.48zm6.513 0h-1.374v-8.437h4.767v1.166h-3.393v2.631h3.174v1.16h-3.174v3.48zm7.407-8.552c.489 0 .929.077 1.322.23.392.151.704.376.935.676.231.3.346.671.346 1.114 0 .342-.071.64-.214.894a2.217 2.217 0 01-.565.669 4.546 4.546 0 01-.802.503c.331.161.634.348.911.559.281.208.506.452.676.733.173.281.259.61.259.987 0 .473-.121.883-.363 1.229a2.334 2.334 0 01-.999.797c-.427.184-.925.277-1.494.277-.612 0-1.133-.091-1.564-.271-.431-.181-.758-.439-.981-.774-.223-.338-.335-.742-.335-1.212 0-.388.077-.725.231-1.01.154-.284.36-.531.617-.738.262-.208.549-.383.86-.526a4.614 4.614 0 01-.727-.53 2.403 2.403 0 01-.525-.687 2.053 2.053 0 01-.191-.906c0-.439.118-.806.352-1.103.235-.3.549-.527.941-.681.396-.153.833-.23 1.31-.23zm-1.575 6.359c0 .37.131.674.392.912.262.239.652.358 1.172.358.515 0 .908-.117 1.177-.352s.404-.544.404-.929c0-.246-.069-.464-.208-.652a1.908 1.908 0 00-.548-.502 5.612 5.612 0 00-.756-.416l-.185-.075c-.3.127-.558.271-.773.433a1.826 1.826 0 00-.502.537c-.116.2-.173.429-.173.686zm1.564-5.315c-.374 0-.681.093-.924.277-.238.181-.358.443-.358.785 0 .242.058.45.174.623.119.173.279.324.479.45.2.124.421.239.663.347.235-.104.447-.218.635-.341.192-.127.344-.277.456-.45.115-.177.173-.388.173-.635 0-.338-.121-.598-.363-.779-.239-.184-.551-.277-.935-.277zm4.718-.929h2.51c1.089 0 1.911.158 2.465.473.554.316.831.86.831 1.634 0 .323-.058.615-.174.877a1.617 1.617 0 01-.49.64 1.824 1.824 0 01-.797.335v.058c.328.057.618.159.872.306.258.146.46.355.606.629.15.273.225.627.225 1.062 0 .515-.123.954-.369 1.315-.243.362-.591.637-1.045.826-.45.188-.985.282-1.604.282h-3.03v-8.437zm1.385 3.48h1.327c.627 0 1.062-.102 1.305-.306.242-.204.363-.502.363-.894 0-.4-.144-.689-.433-.866-.284-.177-.738-.265-1.362-.265h-1.2v2.331zm0 1.12v2.677h1.46c.646 0 1.1-.125 1.362-.375s.392-.588.392-1.015c0-.262-.059-.489-.178-.681-.116-.193-.306-.341-.572-.445-.265-.108-.623-.161-1.073-.161h-1.391zm11.753-.387c0 .681-.054 1.291-.162 1.829-.103.535-.269.989-.496 1.362a2.296 2.296 0 01-.889.854c-.365.197-.807.295-1.327.295-.65 0-1.187-.171-1.61-.514-.423-.346-.737-.842-.941-1.489-.204-.65-.306-1.429-.306-2.337 0-.908.093-1.685.277-2.332.189-.65.493-1.148.912-1.494.42-.347.976-.52 1.668-.52.654 0 1.193.173 1.616.52.427.342.743.838.946 1.489.208.646.312 1.425.312 2.337zm-4.363 0c0 .712.046 1.306.139 1.783.096.477.254.835.473 1.074.219.234.512.352.877.352.366 0 .658-.118.877-.352.22-.235.377-.591.474-1.068.1-.477.15-1.073.15-1.789 0-.708-.049-1.3-.145-1.778-.096-.477-.254-.834-.473-1.073-.219-.242-.514-.364-.883-.364s-.664.122-.883.364c-.215.239-.371.596-.467 1.073-.093.478-.139 1.07-.139 1.778zm11.338 0c0 .681-.054 1.291-.162 1.829-.104.535-.269.989-.496 1.362a2.296 2.296 0 01-.889.854c-.365.197-.808.295-1.327.295-.65 0-1.187-.171-1.61-.514-.424-.346-.737-.842-.941-1.489-.204-.65-.306-1.429-.306-2.337 0-.908.092-1.685.277-2.332.189-.65.493-1.148.912-1.494.419-.347.975-.52 1.668-.52.654 0 1.193.173 1.616.52.427.342.742.838.946 1.489.208.646.312 1.425.312 2.337zm-4.363 0c0 .712.046 1.306.138 1.783.097.477.254.835.474 1.074.219.234.511.352.877.352.365 0 .658-.118.877-.352.219-.235.377-.591.473-1.068.1-.477.15-1.073.15-1.789 0-.708-.048-1.3-.144-1.778-.096-.477-.254-.834-.473-1.073-.22-.242-.514-.364-.883-.364-.37 0-.664.122-.883.364-.216.239-.371.596-.468 1.073-.092.478-.138 1.07-.138 1.778z" fill="#fff"/><path fill="#DA212C" d="M634.4 72.4h178.799v120.2H634.4z"/><path d="M655.476 95.153h-6.144V84.305h6.144v1.5h-4.363v2.945h4.088v1.491h-4.088v3.406h4.363v1.506zm6.329-8.37a4.995 4.995 0 01.875.082l-.163 1.633a2.2 2.2 0 00-.386-.067 4.068 4.068 0 00-.4-.022c-.312 0-.609.051-.891.155a2.056 2.056 0 00-.749.46 2.087 2.087 0 00-.512.765 2.836 2.836 0 00-.186 1.068v4.296h-1.751V86.94h1.365l.238 1.447h.081c.164-.292.367-.559.609-.801s.519-.435.831-.579a2.419 2.419 0 011.039-.222zm6.559 0a5.033 5.033 0 01.875.082l-.163 1.633a2.2 2.2 0 00-.386-.067 4.068 4.068 0 00-.4-.022c-.312 0-.609.051-.891.155a2.1 2.1 0 00-1.261 1.224 2.836 2.836 0 00-.186 1.07v4.295h-1.751V86.94h1.366l.237 1.447h.082a3.65 3.65 0 01.608-.801c.242-.242.52-.435.831-.579a2.419 2.419 0 011.039-.222zm9.668 4.245c0 .682-.089 1.288-.267 1.818-.178.529-.438.977-.779 1.343a3.43 3.43 0 01-1.232.83c-.48.189-1.021.283-1.625.283a4.14 4.14 0 01-1.551-.282 3.542 3.542 0 01-1.224-.831 3.815 3.815 0 01-.794-1.343c-.188-.53-.282-1.136-.282-1.818 0-.905.156-1.672.468-2.3a3.324 3.324 0 011.35-1.447c.584-.332 1.279-.497 2.085-.497.757 0 1.425.165 2.004.497a3.434 3.434 0 011.357 1.447c.327.633.49 1.4.49 2.3zm-5.958 0c0 .598.072 1.11.215 1.536.148.425.376.752.683.98.306.222.702.333 1.187.333.485 0 .88-.111 1.187-.334.307-.227.532-.554.675-.98.144-.425.215-.937.215-1.535 0-.599-.071-1.106-.215-1.521-.143-.42-.368-.74-.675-.958-.307-.222-.705-.333-1.195-.333-.722 0-1.249.242-1.58.727-.331.485-.497 1.18-.497 2.085zm12.124-4.244a5.016 5.016 0 01.876.081l-.164 1.633a2.2 2.2 0 00-.386-.067 4.052 4.052 0 00-.4-.022c-.312 0-.609.051-.891.155a2.1 2.1 0 00-1.261 1.224 2.837 2.837 0 00-.185 1.07v4.295h-1.752V86.94h1.366l.237 1.447h.082a3.65 3.65 0 01.608-.801 2.87 2.87 0 01.831-.579 2.419 2.419 0 011.039-.222zM653.621 162.533l-.324 1.651h1.559v.963h-1.743l-.468 2.418h-1.027l.473-2.418h-1.443l-.455 2.418h-1.005l.445-2.418h-1.443v-.963h1.627l.329-1.651h-1.529v-.964h1.703l.461-2.435h1.027l-.461 2.435h1.454l.468-2.435h.998l-.462 2.435h1.455v.964h-1.639zm-2.788 1.651h1.443l.329-1.651h-1.449l-.323 1.651zm12.884-.918c0 .95-.177 1.745-.531 2.383a3.396 3.396 0 01-1.54 1.437c-.674.32-1.485.479-2.436.479h-2.343v-8.437h2.597c.874 0 1.628.158 2.262.473a3.344 3.344 0 011.472 1.391c.346.612.519 1.37.519 2.274zm-1.442.04c0-.692-.11-1.262-.329-1.708a2.114 2.114 0 00-.958-.993c-.42-.219-.937-.328-1.553-.328h-1.183v6.128h.981c1.02 0 1.782-.259 2.286-.779.504-.519.756-1.292.756-2.32zm8.7 4.259l-.825-2.343h-3.226l-.826 2.343h-1.46l3.14-8.472h1.535l3.134 8.472h-1.472zm-1.183-3.532l-.802-2.308-.133-.421-.173-.56a46.698 46.698 0 01-.144-.485c-.039.158-.087.335-.145.531-.054.193-.107.373-.161.543l-.116.392-.808 2.308h2.482zm9.116 3.532h-5.714v-1.021l2.188-2.216a27.44 27.44 0 001.044-1.114c.273-.316.475-.614.606-.895.135-.28.202-.586.202-.917 0-.408-.117-.716-.352-.924-.235-.211-.544-.317-.929-.317-.366 0-.704.073-1.016.219a4.766 4.766 0 00-.958.612l-.744-.894c.234-.2.484-.383.75-.549.269-.165.569-.296.9-.392.331-.1.708-.15 1.131-.15.535 0 .997.096 1.385.288.389.189.687.452.895.791.211.339.317.733.317 1.183 0 .454-.09.873-.271 1.258a4.852 4.852 0 01-.773 1.143c-.335.373-.733.779-1.195 1.218l-1.46 1.425v.064h3.994v1.188zm5.249 0h-1.362v-5.43a82.13 82.13 0 01.017-1.074c.008-.173.017-.338.029-.496a3.703 3.703 0 01-.3.289c-.116.103-.239.211-.369.323l-.97.773-.681-.86 2.505-1.962h1.131v8.437zm8.7 0h-5.713v-1.021l2.187-2.216c.423-.431.771-.802 1.045-1.114a3.93 3.93 0 00.605-.895c.135-.28.202-.586.202-.917 0-.408-.117-.716-.352-.924-.234-.211-.544-.317-.929-.317a2.36 2.36 0 00-1.015.219 4.738 4.738 0 00-.958.612l-.745-.894c.235-.2.485-.383.75-.549.27-.165.57-.296.901-.392.331-.1.708-.15 1.131-.15.535 0 .996.096 1.385.288.388.189.687.452.894.791.212.339.318.733.318 1.183 0 .454-.091.873-.272 1.258-.18.385-.438.766-.773 1.143-.335.373-.733.779-1.194 1.218l-1.461 1.425v.064h3.994v1.188zm5.434-7.381a2.58 2.58 0 00-1.085.219 2.182 2.182 0 00-.802.635c-.22.273-.387.606-.502.999a4.593 4.593 0 00-.173 1.315c0 .655.092 1.218.277 1.691.184.47.465.831.842 1.085.377.25.854.375 1.431.375.358 0 .706-.034 1.045-.103a9.54 9.54 0 001.05-.283v1.177a5.29 5.29 0 01-1.039.294c-.35.062-.754.093-1.211.093-.862 0-1.578-.179-2.147-.537a3.276 3.276 0 01-1.27-1.512c-.277-.65-.415-1.412-.415-2.285 0-.639.088-1.224.265-1.755.177-.531.435-.988.773-1.373a3.35 3.35 0 011.253-.895c.5-.211 1.071-.317 1.714-.317.423 0 .838.048 1.246.144.412.092.793.225 1.143.398l-.485 1.143a7.152 7.152 0 00-.917-.358 3.31 3.31 0 00-.993-.15z" fill="#fff"/><path fill="#DF4EB2" d="M813.198 72.4H993.5v120.2H813.198z"/><path d="M834.853 95.153l-1.061-3.012h-4.148l-1.061 3.012h-1.877l4.036-10.892h1.974l4.029 10.892h-1.892zm-1.521-4.54l-1.031-2.969-.171-.541-.223-.72a97.775 97.775 0 01-.185-.623c-.05.203-.111.43-.186.682-.069.248-.138.48-.207.698l-.149.504-1.039 2.968h3.191zm6.544 4.54l-3.123-8.214h1.847l1.692 4.823c.109.307.208.638.297.995.089.356.151.655.185.897h.06c.034-.252.101-.554.2-.905.099-.356.2-.685.304-.987l1.692-4.823h1.84l-3.124 8.214h-1.87zm13.512-4.125c0 .682-.089 1.288-.267 1.818-.178.529-.438.977-.779 1.343a3.43 3.43 0 01-1.232.83c-.48.189-1.021.283-1.625.283a4.14 4.14 0 01-1.551-.282 3.533 3.533 0 01-1.224-.831 3.815 3.815 0 01-.794-1.343c-.188-.53-.282-1.136-.282-1.818 0-.905.156-1.672.468-2.3a3.324 3.324 0 011.35-1.447c.584-.332 1.279-.497 2.085-.497.757 0 1.425.165 2.003.497a3.43 3.43 0 011.358 1.447c.327.633.49 1.4.49 2.3zm-5.958 0c0 .598.072 1.11.215 1.536.148.425.376.752.683.98.306.222.702.333 1.187.333.485 0 .88-.111 1.187-.334.307-.227.532-.554.675-.98.144-.425.215-.937.215-1.535 0-.599-.071-1.106-.215-1.521-.143-.42-.368-.74-.675-.958-.307-.222-.705-.333-1.195-.333-.722 0-1.249.242-1.58.727-.331.485-.497 1.18-.497 2.085zm9.705-4.089v8.214h-1.744V86.94h1.744zm-.861-3.146c.268 0 .498.072.69.216.198.143.297.39.297.742 0 .346-.099.593-.297.742a1.12 1.12 0 01-.69.215c-.277 0-.512-.072-.704-.215-.188-.149-.282-.396-.282-.742 0-.352.094-.599.282-.742.192-.144.427-.216.704-.216zm6.122 11.509c-.98 0-1.766-.357-2.36-1.069-.588-.717-.883-1.773-.883-3.168 0-1.41.3-2.476.898-3.198.604-.722 1.398-1.083 2.382-1.083.415 0 .779.056 1.091.17.311.11.578.258.801.446.228.187.42.398.579.63h.081a20.825 20.825 0 01-.089-.66 8.232 8.232 0 01-.044-.809v-2.953h1.751v11.545h-1.365l-.312-1.12h-.074a2.633 2.633 0 01-1.365 1.098 3.14 3.14 0 01-1.091.17zm.49-1.418c.746 0 1.273-.215 1.58-.645.307-.43.465-1.076.475-1.937v-.23c0-.92-.149-1.625-.445-2.114-.297-.495-.839-.742-1.625-.742-.629 0-1.108.254-1.44.764-.326.504-.489 1.21-.489 2.115 0 .905.163 1.597.489 2.077.332.475.816.713 1.455.713zm9.438-7.1c1.038 0 1.823.23 2.352.69.534.46.801 1.177.801 2.151v5.528h-1.239l-.334-1.165h-.059a4.27 4.27 0 01-.72.735 2.508 2.508 0 01-.861.43c-.321.1-.714.149-1.179.149-.49 0-.928-.09-1.314-.268a2.081 2.081 0 01-.912-.83c-.223-.371-.334-.841-.334-1.41 0-.846.314-1.482.942-1.907.633-.426 1.588-.66 2.864-.705l1.425-.052v-.43c0-.57-.134-.975-.401-1.217-.262-.243-.633-.364-1.113-.364-.411 0-.809.06-1.195.178a8.471 8.471 0 00-1.127.438l-.564-1.232c.4-.212.855-.385 1.365-.52a6.355 6.355 0 011.603-.2zm1.424 4.444l-1.061.037c-.87.03-1.481.178-1.832.445-.352.268-.527.634-.527 1.099 0 .405.121.702.363.89.243.183.562.275.957.275.604 0 1.104-.171 1.499-.513.401-.346.601-.853.601-1.52v-.713zm8.452-4.444c.925 0 1.644.24 2.159.72.519.474.779 1.239.779 2.292v5.357h-1.744v-5.03c0-.639-.131-1.116-.393-1.433-.262-.321-.668-.482-1.217-.482-.796 0-1.35.245-1.662.735-.307.49-.46 1.2-.46 2.13v4.08h-1.744V86.94h1.358l.245 1.113h.096a2.39 2.39 0 01.661-.705c.267-.188.564-.328.89-.422a3.765 3.765 0 011.032-.141zm8.688 8.518c-.776 0-1.449-.151-2.018-.453-.569-.302-1.007-.764-1.313-1.388-.307-.623-.46-1.414-.46-2.374 0-1 .168-1.815.504-2.448.337-.634.802-1.101 1.395-1.403.599-.302 1.284-.452 2.056-.452.489 0 .932.05 1.328.148.4.094.739.21 1.016.349l-.519 1.395a7.557 7.557 0 00-.928-.312 3.543 3.543 0 00-.912-.126c-.48 0-.881.106-1.202.319-.317.213-.554.53-.713.95-.153.42-.23.942-.23 1.565 0 .604.079 1.113.238 1.529.158.41.393.722.705.935.311.207.695.311 1.15.311.45 0 .853-.054 1.209-.163a5.35 5.35 0 001.009-.423v1.514c-.311.178-.645.309-1.001.393-.357.09-.794.134-1.314.134zm7.517-8.518c.732 0 1.36.15 1.884.452.525.302.928.73 1.21 1.284.282.554.423 1.217.423 1.988v.935h-5.484c.02.797.233 1.41.639 1.84.41.43.984.646 1.721.646.524 0 .994-.05 1.41-.148a7.84 7.84 0 001.298-.453v1.417c-.41.193-.828.334-1.254.423a7.565 7.565 0 01-1.528.134c-.807 0-1.516-.156-2.13-.468a3.42 3.42 0 01-1.432-1.41c-.341-.623-.512-1.397-.512-2.322 0-.92.156-1.702.468-2.345.311-.643.749-1.133 1.313-1.469.564-.336 1.222-.504 1.974-.504zm0 1.313c-.549 0-.995.178-1.336.534-.336.356-.534.878-.594 1.566h3.74a2.87 2.87 0 00-.208-1.091 1.578 1.578 0 00-.593-.742c-.262-.178-.599-.267-1.009-.267zm16.457 7.056h-7.798V93.93l5.52-8.11h-5.35v-1.514h7.48v1.217l-5.521 8.118h5.669v1.513zm9-4.125c0 .682-.089 1.288-.267 1.818-.178.529-.438.977-.779 1.343a3.43 3.43 0 01-1.232.83c-.479.189-1.021.283-1.624.283a4.14 4.14 0 01-1.551-.282 3.546 3.546 0 01-1.225-.831 3.813 3.813 0 01-.793-1.343c-.188-.53-.282-1.136-.282-1.818 0-.905.155-1.672.467-2.3a3.335 3.335 0 011.35-1.447c.584-.332 1.279-.497 2.085-.497.757 0 1.425.165 2.004.497.579.331 1.031.813 1.358 1.447.326.633.489 1.4.489 2.3zm-5.958 0c0 .598.072 1.11.215 1.536.149.425.376.752.683.98.307.222.702.333 1.187.333.485 0 .881-.111 1.187-.334.307-.227.532-.554.676-.98.143-.425.215-.937.215-1.535 0-.599-.072-1.106-.215-1.521-.144-.42-.369-.74-.676-.958-.306-.222-.705-.333-1.194-.333-.722 0-1.249.242-1.581.727-.331.485-.497 1.18-.497 2.085zm12.243-4.244c.925 0 1.645.24 2.159.72.52.474.779 1.239.779 2.292v5.357h-1.743v-5.03c0-.639-.131-1.116-.394-1.433-.262-.321-.667-.482-1.216-.482-.797 0-1.351.245-1.663.735-.306.49-.46 1.2-.46 2.13v4.08h-1.743V86.94h1.358l.244 1.113h.097c.178-.287.398-.522.66-.705a2.95 2.95 0 01.891-.422 3.757 3.757 0 011.031-.141zm8.652 0c.732 0 1.36.15 1.884.452.525.302.928.73 1.21 1.284.282.554.423 1.217.423 1.988v.935h-5.484c.02.797.233 1.41.638 1.84.411.43.985.646 1.722.646.524 0 .994-.05 1.41-.148a7.84 7.84 0 001.298-.453v1.417c-.41.193-.828.334-1.254.423a7.565 7.565 0 01-1.528.134c-.807 0-1.516-.156-2.13-.468a3.42 3.42 0 01-1.432-1.41c-.341-.623-.512-1.397-.512-2.322 0-.92.156-1.702.468-2.345.311-.643.749-1.133 1.313-1.469.564-.336 1.222-.504 1.974-.504zm0 1.313c-.549 0-.995.178-1.336.534-.336.356-.534.878-.594 1.566h3.74a2.87 2.87 0 00-.208-1.091 1.578 1.578 0 00-.593-.742c-.262-.178-.599-.267-1.009-.267zM834.664 163.266c0 .95-.177 1.745-.531 2.383a3.401 3.401 0 01-1.54 1.437c-.674.32-1.486.479-2.436.479h-2.343v-8.437h2.597c.873 0 1.627.158 2.262.473a3.344 3.344 0 011.472 1.391c.346.612.519 1.37.519 2.274zm-1.442.04c0-.692-.11-1.262-.329-1.708a2.114 2.114 0 00-.958-.993c-.42-.219-.937-.328-1.553-.328h-1.183v6.128h.981c1.02 0 1.782-.259 2.286-.779.504-.519.756-1.292.756-2.32zm4.845 4.259h-1.374v-8.437h4.767v1.166h-3.393v2.631h3.174v1.16h-3.174v3.48zm10.581-1.852h-1.142v1.852h-1.339v-1.852h-3.838v-1.027l3.855-5.581h1.322v5.482h1.142v1.126zm-2.481-1.126v-2.094c0-.174.002-.349.006-.526a54.069 54.069 0 01.046-.975l.017-.352h-.046a7.219 7.219 0 01-.525.935l-2.078 3.012h2.58zm8.792 2.978h-4.778v-8.437h4.778v1.166h-3.393v2.291h3.18v1.16h-3.18v2.649h3.393v1.171zm2.035-8.437h2.511c1.088 0 1.91.158 2.464.473.554.316.831.86.831 1.634 0 .323-.058.615-.173.877a1.62 1.62 0 01-.491.64 1.82 1.82 0 01-.796.335v.058c.327.057.617.159.871.306.258.146.46.355.606.629.15.273.225.627.225 1.062 0 .515-.123.954-.369 1.315-.243.362-.591.637-1.045.826-.45.188-.985.282-1.604.282h-3.03v-8.437zm1.385 3.48h1.328c.627 0 1.061-.102 1.304-.306.242-.204.363-.502.363-.894 0-.4-.144-.689-.432-.866-.285-.177-.739-.265-1.362-.265h-1.201v2.331zm0 1.12v2.677h1.46c.647 0 1.101-.125 1.362-.375.262-.25.393-.588.393-1.015 0-.262-.06-.489-.179-.681-.116-.193-.306-.341-.572-.445-.265-.108-.623-.161-1.073-.161h-1.391zm11.753 3.837h-5.713v-1.021l2.187-2.216c.423-.431.772-.802 1.045-1.114.273-.316.475-.614.606-.895.134-.28.202-.586.202-.917 0-.408-.118-.716-.352-.924-.235-.211-.545-.317-.929-.317-.366 0-.705.073-1.016.219a4.766 4.766 0 00-.958.612l-.745-.894c.235-.2.485-.383.751-.549.269-.165.569-.296.9-.392.331-.1.708-.15 1.131-.15.535 0 .997.096 1.385.288.389.189.687.452.895.791.211.339.317.733.317 1.183 0 .454-.09.873-.271 1.258a4.828 4.828 0 01-.774 1.143c-.334.373-.732.779-1.194 1.218l-1.46 1.425v.064h3.993v1.188z" fill="#fff"/></svg>