<svg width="1090" height="265" fill="none" xmlns="http://www.w3.org/2000/svg"><path fill="#F1F1F6" d="M0 0h1090v265H0z"/><path fill="#00FE00" d="M103 132.988h167v60H103z"/><path d="M124.195 152.788c0 .643-.159 1.197-.475 1.662-.312.465-.762.821-1.351 1.069-.583.247-1.281.371-2.092.371-.396 0-.774-.023-1.135-.067a7.918 7.918 0 01-1.024-.193 5.505 5.505 0 01-.868-.319v-1.677c.44.193.932.369 1.476.527a6.11 6.11 0 001.662.23c.46 0 .841-.06 1.143-.178.307-.124.534-.297.683-.52.148-.227.222-.492.222-.794a1.29 1.29 0 00-.259-.816c-.174-.222-.436-.425-.787-.608a13.228 13.228 0 00-1.306-.601 9.015 9.015 0 01-1.024-.49 4.21 4.21 0 01-.861-.645 2.817 2.817 0 01-.601-.876c-.143-.341-.215-.742-.215-1.202 0-.613.146-1.138.438-1.573.297-.435.712-.769 1.247-1.002.539-.232 1.167-.348 1.884-.348.569 0 1.103.059 1.603.178.504.118.999.287 1.484.504l-.564 1.432a10.075 10.075 0 00-1.298-.438 5.058 5.058 0 00-1.277-.163c-.376 0-.695.057-.957.171a1.343 1.343 0 00-.601.482c-.133.203-.2.445-.2.727 0 .317.076.584.23.802.158.212.4.408.727.586.331.178.757.376 1.276.593a9.15 9.15 0 011.521.78c.421.272.742.598.965.979.222.376.334.848.334 1.417zm9.074-5.261v8.214h-1.372l-.238-1.105h-.096a2.368 2.368 0 01-.661.705 2.924 2.924 0 01-.89.408 3.71 3.71 0 01-1.031.141c-.619 0-1.148-.104-1.588-.312a2.207 2.207 0 01-1.002-.979c-.232-.441-.349-1.01-.349-1.707v-5.365h1.751v5.039c0 .638.129 1.115.386 1.432.262.316.668.474 1.217.474.529 0 .95-.108 1.261-.326.312-.218.532-.539.661-.965.133-.425.2-.947.2-1.565v-4.089h1.751zm5.81 8.363c-.777 0-1.449-.151-2.018-.453-.569-.302-1.007-.764-1.313-1.387-.307-.624-.461-1.415-.461-2.375 0-.999.169-1.815.505-2.448.336-.634.801-1.101 1.395-1.403.599-.302 1.284-.452 2.055-.452.49 0 .933.049 1.328.148.401.094.74.21 1.017.349l-.519 1.395a7.492 7.492 0 00-.928-.312 3.555 3.555 0 00-.913-.126c-.479 0-.88.106-1.202.319-.316.213-.554.529-.712.95-.153.42-.23.942-.23 1.565 0 .604.079 1.113.238 1.529.158.41.393.722.704.935.312.207.695.311 1.151.311.45 0 .853-.054 1.209-.163.356-.109.692-.25 1.009-.423v1.514a3.734 3.734 0 01-1.002.393c-.356.089-.794.134-1.313.134zm7.554 0c-.777 0-1.45-.151-2.019-.453-.569-.302-1.006-.764-1.313-1.387-.307-.624-.46-1.415-.46-2.375 0-.999.168-1.815.505-2.448.336-.634.801-1.101 1.394-1.403.599-.302 1.284-.452 2.056-.452.489 0 .932.049 1.328.148.401.094.739.21 1.016.349l-.519 1.395a7.533 7.533 0 00-.927-.312 3.56 3.56 0 00-.913-.126c-.48 0-.881.106-1.202.319-.317.213-.554.529-.712.95-.154.42-.23.942-.23 1.565 0 .604.079 1.113.237 1.529.158.41.393.722.705.935.312.207.695.311 1.15.311.45 0 .853-.054 1.209-.163a5.38 5.38 0 001.01-.423v1.514a3.748 3.748 0 01-1.002.393c-.356.089-.794.134-1.313.134zm7.516-8.518c.732 0 1.36.15 1.885.452.524.302.927.73 1.209 1.284.282.554.423 1.217.423 1.988v.935h-5.483c.019.797.232 1.41.638 1.84.41.431.984.646 1.721.646.525 0 .994-.049 1.41-.148.42-.104.853-.255 1.298-.453v1.417a5.65 5.65 0 01-1.254.423 7.556 7.556 0 01-1.528.134c-.806 0-1.516-.156-2.13-.468a3.419 3.419 0 01-1.432-1.41c-.341-.623-.512-1.397-.512-2.322 0-.92.156-1.702.468-2.345.312-.643.749-1.132 1.313-1.469.564-.336 1.222-.504 1.974-.504zm0 1.313c-.549 0-.994.178-1.336.534-.336.356-.534.878-.593 1.566h3.739a2.89 2.89 0 00-.207-1.091 1.583 1.583 0 00-.594-.742c-.262-.178-.599-.267-1.009-.267zm11.004 4.712c0 .539-.131.994-.394 1.365-.262.371-.645.653-1.15.846-.499.188-1.113.282-1.84.282a7.592 7.592 0 01-1.484-.126 5.144 5.144 0 01-1.165-.371v-1.507c.391.183.829.342 1.314.475.489.134.952.201 1.387.201.574 0 .987-.09 1.239-.268a.857.857 0 00.379-.727.772.772 0 00-.156-.475c-.099-.143-.287-.289-.564-.437a10.556 10.556 0 00-1.202-.549 9.962 9.962 0 01-1.313-.624c-.357-.208-.626-.457-.809-.749-.183-.297-.275-.675-.275-1.135 0-.728.287-1.279.861-1.655.579-.381 1.343-.571 2.293-.571.504 0 .979.052 1.424.155.45.099.891.245 1.321.438l-.549 1.314a8.12 8.12 0 00-1.12-.401 4.01 4.01 0 00-1.136-.163c-.45 0-.794.069-1.031.207-.233.139-.349.337-.349.594a.73.73 0 00.171.49c.114.133.309.267.586.4.282.134.673.3 1.172.497.49.188.913.386 1.269.594.361.203.638.453.831.749.193.297.29.681.29 1.151zm7.405 0c0 .539-.131.994-.394 1.365-.262.371-.645.653-1.15.846-.499.188-1.113.282-1.84.282a7.592 7.592 0 01-1.484-.126 5.144 5.144 0 01-1.165-.371v-1.507c.391.183.829.342 1.314.475.489.134.952.201 1.387.201.574 0 .987-.09 1.239-.268a.854.854 0 00.379-.727.772.772 0 00-.156-.475c-.099-.143-.287-.289-.564-.437a10.556 10.556 0 00-1.202-.549 10.024 10.024 0 01-1.313-.624c-.357-.208-.626-.457-.809-.749-.183-.297-.275-.675-.275-1.135 0-.728.287-1.279.861-1.655.579-.381 1.343-.571 2.293-.571.504 0 .979.052 1.424.155.451.099.891.245 1.321.438l-.549 1.314a8.12 8.12 0 00-1.12-.401 4.01 4.01 0 00-1.136-.163c-.45 0-.794.069-1.031.207-.232.139-.349.337-.349.594a.73.73 0 00.171.49c.114.133.309.267.586.4.282.134.673.3 1.172.497.49.188.913.386 1.269.594.361.203.638.453.831.749.193.297.29.681.29 1.151zm4.986-.395c0-.547.052-1.081.156-1.602.107-.52.27-1.017.488-1.489.218-.472.493-.908.825-1.308h1.001a6.836 6.836 0 00-1.054 2.065 7.776 7.776 0 00-.196 3.862 7.13 7.13 0 001.241 2.793h-.992a5.752 5.752 0 01-.825-1.279 6.55 6.55 0 01-.488-1.465 7.935 7.935 0 01-.156-1.577zm7.832.796c0 .423-.105.788-.313 1.094-.205.306-.501.54-.889.703-.384.163-.843.244-1.376.244a6.18 6.18 0 01-.748-.044 5.151 5.151 0 01-.673-.127 3.746 3.746 0 01-.572-.21v-1.103c.29.127.614.242.972.346.358.101.723.152 1.094.152.302 0 .553-.039.752-.118a.943.943 0 00.449-.341.933.933 0 00.146-.523.855.855 0 00-.17-.537 1.556 1.556 0 00-.518-.4 8.593 8.593 0 00-.859-.396 5.803 5.803 0 01-.674-.322 2.746 2.746 0 01-.567-.425 1.83 1.83 0 01-.395-.576 2.02 2.02 0 01-.142-.791c0-.404.096-.749.288-1.035.196-.287.469-.506.821-.659.354-.153.768-.23 1.24-.23.374 0 .726.039 1.055.117.332.078.657.189.976.332l-.371.943a6.458 6.458 0 00-.854-.288 3.291 3.291 0 00-.84-.108c-.248 0-.458.038-.63.112a.88.88 0 00-.396.318.848.848 0 00-.132.478c0 .209.051.384.152.528.104.14.263.268.478.385.218.118.498.248.84.391a6.06 6.06 0 011.001.513c.277.179.488.394.635.644.146.248.22.559.22.933zm4.033-3.565c.641 0 1.155.235 1.543.704.39.468.586 1.165.586 2.089 0 .612-.091 1.128-.274 1.548-.179.417-.431.733-.757.948a2.01 2.01 0 01-1.127.317c-.274 0-.512-.036-.713-.107a1.786 1.786 0 01-.518-.279 1.955 1.955 0 01-.361-.381h-.069c.017.131.031.275.044.435.017.156.025.299.025.43v2.202h-1.153v-7.803h.938l.161.747h.054c.101-.153.223-.295.366-.425.146-.13.322-.232.527-.307.209-.078.451-.118.728-.118zm-.308.938c-.316 0-.569.063-.761.19a1.067 1.067 0 00-.416.562c-.084.251-.13.565-.136.942v.161c0 .401.04.741.122 1.021.084.277.223.488.415.635.195.143.459.215.791.215.28 0 .511-.077.693-.23.186-.153.324-.371.415-.654.091-.283.137-.617.137-1.001 0-.583-.104-1.035-.313-1.358-.205-.322-.52-.483-.947-.483zm5.918-.938c.482 0 .895.1 1.24.298.345.199.611.48.796.845.186.365.279.801.279 1.309v.615h-3.609c.013.524.153.928.42 1.211.27.283.648.425 1.133.425.345 0 .654-.033.928-.098.276-.068.561-.168.854-.298v.933c-.27.127-.545.219-.825.278-.28.059-.615.088-1.006.088-.53 0-.998-.103-1.401-.308a2.246 2.246 0 01-.943-.927c-.224-.411-.337-.92-.337-1.529 0-.605.103-1.12.308-1.543.205-.423.493-.745.864-.967.371-.221.804-.332 1.299-.332zm0 .865c-.361 0-.654.117-.879.351-.221.235-.351.578-.39 1.031h2.461a1.902 1.902 0 00-.137-.718 1.045 1.045 0 00-.391-.489c-.172-.117-.394-.175-.664-.175zm5.786 4.741c-.511 0-.953-.099-1.328-.298a1.996 1.996 0 01-.864-.913c-.202-.41-.303-.931-.303-1.563 0-.657.111-1.194.332-1.611a2.12 2.12 0 01.918-.923 2.973 2.973 0 011.353-.298c.322 0 .613.033.874.098.263.062.486.138.669.23l-.342.918a5.027 5.027 0 00-.61-.206 2.36 2.36 0 00-.601-.083c-.316 0-.579.07-.791.21-.208.14-.365.349-.469.625-.101.277-.151.621-.151 1.031 0 .397.052.732.156 1.006.104.27.259.475.464.615.205.137.457.205.757.205.296 0 .561-.036.796-.108.234-.071.455-.164.664-.278v.996a2.46 2.46 0 01-.659.259 3.61 3.61 0 01-.865.088zm3.941-5.503v5.405h-1.148v-5.405h1.148zm-.567-2.07c.176 0 .327.047.454.141.131.095.196.257.196.489 0 .227-.065.39-.196.488a.741.741 0 01-.454.141.759.759 0 01-.464-.141c-.123-.098-.185-.261-.185-.488 0-.232.062-.394.185-.489a.759.759 0 01.464-.141zm4.331 1.967c.684 0 1.2.152 1.548.455.352.302.528.774.528 1.416v3.637h-.816l-.22-.766h-.039c-.153.195-.31.356-.473.483a1.66 1.66 0 01-.567.283c-.211.065-.47.098-.776.098-.322 0-.61-.059-.864-.176a1.375 1.375 0 01-.601-.547c-.146-.244-.22-.553-.22-.927 0-.557.207-.975.621-1.255.416-.28 1.044-.435 1.884-.464l.938-.034v-.284c0-.374-.088-.641-.264-.8-.172-.16-.417-.24-.732-.24-.27 0-.533.039-.786.118a5.539 5.539 0 00-.743.288l-.371-.811c.264-.14.563-.254.899-.342a4.17 4.17 0 011.054-.132zm.938 2.925l-.698.025c-.573.019-.975.117-1.206.293a.854.854 0 00-.347.722c0 .267.08.463.239.586.16.121.37.181.63.181.397 0 .726-.112.986-.337.264-.228.396-.562.396-1.001v-.469zm3.896 2.583h-1.152v-7.597h1.152v7.597zm3.589-2.744c0 .54-.052 1.068-.156 1.582a6.391 6.391 0 01-.483 1.465 5.47 5.47 0 01-.83 1.279h-.987a6.95 6.95 0 00.772-1.328c.208-.472.364-.962.468-1.47a7.647 7.647 0 00-.004-3.1 7.392 7.392 0 00-.469-1.485 6.666 6.666 0 00-.777-1.337h.997c.338.4.615.836.83 1.308.218.472.379.969.483 1.489.104.518.156 1.05.156 1.597zM122.221 170.155l-.323 1.65h1.558v.964h-1.743l-.467 2.418h-1.028l.474-2.418h-1.443l-.456 2.418h-1.004l.444-2.418h-1.443v-.964h1.628l.329-1.65h-1.529v-.964h1.702l.462-2.435h1.027l-.462 2.435h1.455l.467-2.435h.998l-.461 2.435h1.454v.964h-1.639zm-2.787 1.65h1.442l.329-1.65h-1.448l-.323 1.65zm11.17-.842c0 .681-.054 1.291-.162 1.829-.104.535-.269.989-.496 1.362a2.304 2.304 0 01-.889.854c-.365.197-.808.295-1.327.295-.65 0-1.187-.172-1.61-.514-.423-.346-.737-.842-.941-1.489-.204-.65-.306-1.429-.306-2.337 0-.908.093-1.685.277-2.332.189-.65.493-1.148.912-1.494.419-.347.975-.52 1.668-.52.654 0 1.193.173 1.616.52.427.342.742.838.946 1.489.208.646.312 1.425.312 2.337zm-4.363 0c0 .712.046 1.306.138 1.783.097.477.254.835.474 1.074.219.234.511.352.877.352.365 0 .658-.118.877-.352.219-.235.377-.591.473-1.068.1-.477.15-1.074.15-1.789 0-.708-.048-1.301-.144-1.778-.096-.477-.254-.834-.473-1.073-.219-.242-.514-.364-.883-.364s-.664.122-.883.364c-.216.239-.371.596-.468 1.073-.092.477-.138 1.07-.138 1.778zm11.338 0c0 .681-.054 1.291-.162 1.829-.104.535-.269.989-.496 1.362a2.31 2.31 0 01-.889.854c-.366.197-.808.295-1.327.295-.651 0-1.187-.172-1.611-.514-.423-.346-.736-.842-.94-1.489-.204-.65-.306-1.429-.306-2.337 0-.908.092-1.685.277-2.332.188-.65.492-1.148.912-1.494.419-.347.975-.52 1.668-.52.654 0 1.192.173 1.616.52.427.342.742.838.946 1.489.208.646.312 1.425.312 2.337zm-4.363 0c0 .712.046 1.306.138 1.783.096.477.254.835.473 1.074.22.234.512.352.878.352.365 0 .658-.118.877-.352.219-.235.377-.591.473-1.068.1-.477.15-1.074.15-1.789 0-.708-.048-1.301-.144-1.778-.096-.477-.254-.834-.473-1.073-.22-.242-.514-.364-.883-.364-.37 0-.664.122-.883.364-.216.239-.372.596-.468 1.073-.092.477-.138 1.07-.138 1.778zm7.575 4.224h-1.374v-8.437h4.767v1.166h-3.393v2.631h3.174v1.16h-3.174v3.48zm9.918 0h-4.779v-8.437h4.779v1.166h-3.394v2.291h3.18v1.16h-3.18v2.649h3.394v1.171zm7.17-4.224a9.35 9.35 0 01-.161 1.829c-.104.535-.269.989-.496 1.362a2.31 2.31 0 01-.889.854c-.366.197-.808.295-1.328.295-.65 0-1.186-.172-1.61-.514-.423-.346-.736-.842-.94-1.489-.204-.65-.306-1.429-.306-2.337 0-.908.092-1.685.277-2.332.188-.65.492-1.148.912-1.494.419-.347.975-.52 1.667-.52.655 0 1.193.173 1.616.52.427.342.743.838.947 1.489.208.646.311 1.425.311 2.337zm-4.362 0c0 .712.046 1.306.138 1.783.096.477.254.835.473 1.074.22.234.512.352.877.352.366 0 .658-.118.878-.352.219-.235.377-.591.473-1.068.1-.477.15-1.074.15-1.789 0-.708-.048-1.301-.144-1.778-.096-.477-.254-.834-.474-1.073-.219-.242-.513-.364-.883-.364-.369 0-.663.122-.882.364-.216.239-.372.596-.468 1.073-.092.477-.138 1.07-.138 1.778zm11.337 0c0 .681-.054 1.291-.161 1.829-.104.535-.27.989-.497 1.362a2.308 2.308 0 01-.888.854c-.366.197-.808.295-1.328.295-.65 0-1.187-.172-1.61-.514-.423-.346-.737-.842-.941-1.489-.204-.65-.305-1.429-.305-2.337 0-.908.092-1.685.277-2.332.188-.65.492-1.148.911-1.494.42-.347.976-.52 1.668-.52.654 0 1.193.173 1.616.52.427.342.743.838.947 1.489.207.646.311 1.425.311 2.337zm-4.363 0c0 .712.046 1.306.139 1.783.096.477.254.835.473 1.074.219.234.512.352.877.352.366 0 .658-.118.877-.352.22-.235.377-.591.474-1.068.1-.477.15-1.074.15-1.789 0-.708-.048-1.301-.145-1.778-.096-.477-.254-.834-.473-1.073-.219-.242-.513-.364-.883-.364-.369 0-.663.122-.883.364-.215.239-.371.596-.467 1.073-.093.477-.139 1.07-.139 1.778z" fill="#252A2E"/><path fill="#00D22F" d="M103 72.013h167v61H103z"/><path d="M124.195 91.813c0 .643-.159 1.197-.475 1.662-.312.465-.762.821-1.351 1.069-.583.247-1.281.37-2.092.37-.396 0-.774-.022-1.135-.066a7.835 7.835 0 01-1.024-.193 5.545 5.545 0 01-.868-.32V92.66c.44.193.932.368 1.476.527.544.153 1.098.23 1.662.23.46 0 .841-.06 1.143-.178.307-.124.534-.297.682-.52.149-.227.223-.492.223-.794 0-.321-.086-.593-.26-.816-.173-.222-.435-.425-.786-.608a13.159 13.159 0 00-1.306-.601 8.85 8.85 0 01-1.024-.49 4.175 4.175 0 01-.861-.646 2.802 2.802 0 01-.601-.875c-.143-.341-.215-.742-.215-1.202 0-.613.146-1.138.438-1.573.297-.435.712-.77 1.246-1.002.54-.232 1.168-.349 1.885-.349.569 0 1.103.06 1.603.179a8.22 8.22 0 011.484.504l-.564 1.432a10.003 10.003 0 00-1.299-.438 5.014 5.014 0 00-1.276-.163c-.376 0-.695.057-.957.17a1.339 1.339 0 00-.601.483c-.134.203-.2.445-.2.727 0 .317.076.584.23.802.158.212.4.408.727.586.331.178.757.376 1.276.593a9.166 9.166 0 011.521.78c.421.272.742.598.965.979.222.376.334.848.334 1.417zm9.074-5.26v8.213h-1.373l-.237-1.105h-.096a2.382 2.382 0 01-.661.705 2.927 2.927 0 01-.89.408c-.327.094-.67.14-1.032.14-.618 0-1.147-.103-1.587-.311a2.2 2.2 0 01-1.002-.98c-.233-.44-.349-1.008-.349-1.706v-5.365h1.751v5.038c0 .639.129 1.116.386 1.433.262.316.668.474 1.217.474.529 0 .95-.108 1.261-.326.312-.218.532-.54.661-.965.133-.425.2-.947.2-1.565v-4.089h1.751zm5.81 8.362c-.777 0-1.449-.151-2.018-.453-.569-.302-1.007-.764-1.314-1.388-.306-.623-.46-1.414-.46-2.374 0-1 .169-1.815.505-2.448.336-.634.801-1.101 1.395-1.403.598-.302 1.284-.452 2.055-.452.49 0 .933.05 1.328.148.401.094.74.21 1.017.349l-.52 1.395a7.486 7.486 0 00-.927-.312 3.556 3.556 0 00-.913-.126c-.479 0-.88.106-1.202.319-.316.213-.554.53-.712.95-.153.42-.23.942-.23 1.565 0 .604.079 1.113.237 1.529.159.41.394.722.705.935.312.207.695.311 1.15.311.451 0 .854-.054 1.21-.163.356-.109.692-.25 1.009-.423v1.514c-.312.178-.646.309-1.002.393-.356.09-.794.134-1.313.134zm7.553 0c-.776 0-1.449-.151-2.018-.453-.569-.302-1.006-.764-1.313-1.388-.307-.623-.46-1.414-.46-2.374 0-1 .168-1.815.504-2.448.337-.634.802-1.101 1.395-1.403.599-.302 1.284-.452 2.056-.452.489 0 .932.05 1.328.148.4.094.739.21 1.016.349l-.519 1.395a7.557 7.557 0 00-.928-.312 3.543 3.543 0 00-.912-.126c-.48 0-.881.106-1.202.319-.317.213-.554.53-.713.95-.153.42-.23.942-.23 1.565 0 .604.08 1.113.238 1.529.158.41.393.722.705.935.311.207.695.311 1.15.311.45 0 .853-.054 1.209-.163a5.35 5.35 0 001.009-.423v1.514c-.311.178-.645.309-1.001.393-.356.09-.794.134-1.314.134zm7.517-8.518c.732 0 1.36.15 1.884.452.525.302.928.73 1.21 1.284.282.554.423 1.217.423 1.988v.935h-5.483c.019.797.232 1.41.638 1.84.41.43.984.646 1.721.646.524 0 .994-.05 1.41-.148a7.84 7.84 0 001.298-.453v1.417c-.41.193-.828.334-1.254.423a7.566 7.566 0 01-1.528.134c-.806 0-1.516-.156-2.13-.468a3.426 3.426 0 01-1.432-1.41c-.341-.623-.512-1.397-.512-2.322 0-.92.156-1.702.468-2.345.311-.643.749-1.133 1.313-1.469.564-.336 1.222-.504 1.974-.504zm0 1.313c-.549 0-.994.178-1.336.534-.336.356-.534.878-.593 1.566h3.739a2.869 2.869 0 00-.208-1.091 1.578 1.578 0 00-.593-.742c-.262-.178-.599-.267-1.009-.267zm11.004 4.712c0 .539-.132.994-.394 1.365-.262.37-.645.653-1.15.846-.499.188-1.113.282-1.84.282a7.584 7.584 0 01-1.484-.127 5.074 5.074 0 01-1.165-.37V92.91c.391.183.829.342 1.313.475.49.134.953.2 1.388.2.574 0 .987-.089 1.239-.267a.857.857 0 00.379-.727.77.77 0 00-.156-.475c-.099-.143-.287-.289-.564-.437a10.788 10.788 0 00-1.202-.55c-.52-.207-.957-.415-1.314-.623-.356-.208-.625-.457-.808-.75-.183-.296-.275-.674-.275-1.134 0-.728.287-1.28.861-1.655.579-.381 1.343-.571 2.293-.571.504 0 .979.051 1.424.155.45.1.891.245 1.321.438l-.549 1.314a8.222 8.222 0 00-1.121-.401 4.011 4.011 0 00-1.135-.163c-.45 0-.794.069-1.031.207-.233.139-.349.337-.349.594 0 .193.057.356.171.49.114.133.309.267.586.4.282.134.673.3 1.172.498.49.187.913.385 1.269.593.361.203.638.453.831.75.193.296.29.68.29 1.15zm7.405 0c0 .539-.131.994-.394 1.365-.262.37-.645.653-1.15.846-.499.188-1.113.282-1.84.282a7.584 7.584 0 01-1.484-.127 5.09 5.09 0 01-1.165-.37V92.91c.391.183.829.342 1.314.475.489.134.952.2 1.387.2.574 0 .987-.089 1.239-.267a.857.857 0 00.379-.727.77.77 0 00-.156-.475c-.099-.143-.287-.289-.564-.437a10.788 10.788 0 00-1.202-.55 9.967 9.967 0 01-1.313-.623c-.357-.208-.626-.457-.809-.75-.183-.296-.275-.674-.275-1.134 0-.728.287-1.28.861-1.655.579-.381 1.343-.571 2.293-.571.504 0 .979.051 1.424.155.45.1.891.245 1.321.438l-.549 1.314a8.258 8.258 0 00-1.12-.401 4.018 4.018 0 00-1.136-.163c-.45 0-.794.069-1.031.207-.233.139-.349.337-.349.594 0 .193.057.356.171.49.114.133.309.267.586.4.282.134.673.3 1.172.498.49.187.913.385 1.269.593.361.203.638.453.831.75.193.296.29.68.29 1.15z" fill="#fff"/><path d="M122.221 108.146l-.323 1.65h1.558v.964h-1.743l-.467 2.418h-1.028l.474-2.418h-1.443l-.456 2.418h-1.004l.444-2.418h-1.443v-.964h1.628l.329-1.65h-1.53v-.964h1.703l.462-2.435h1.027l-.462 2.435h1.454l.468-2.435h.998l-.461 2.435h1.454v.964h-1.639zm-2.788 1.65h1.443l.329-1.65h-1.448l-.324 1.65zm11.171-.842c0 .681-.054 1.291-.162 1.829-.104.535-.269.989-.496 1.362a2.304 2.304 0 01-.889.854c-.365.197-.808.295-1.327.295-.65 0-1.187-.171-1.61-.514-.424-.346-.737-.842-.941-1.489-.204-.65-.306-1.429-.306-2.337 0-.908.092-1.685.277-2.332.189-.65.493-1.148.912-1.494.419-.347.975-.52 1.668-.52.654 0 1.192.173 1.616.52.427.342.742.838.946 1.489.208.646.312 1.425.312 2.337zm-4.363 0c0 .712.046 1.306.138 1.783.097.477.254.835.474 1.074.219.234.511.352.877.352.365 0 .658-.118.877-.352.219-.235.377-.591.473-1.068.1-.477.15-1.073.15-1.789 0-.708-.048-1.3-.144-1.778-.096-.477-.254-.834-.473-1.073-.22-.242-.514-.364-.883-.364-.37 0-.664.122-.883.364-.216.239-.371.596-.468 1.073-.092.478-.138 1.07-.138 1.778zm11.337 0a9.35 9.35 0 01-.161 1.829c-.104.535-.269.989-.496 1.362a2.31 2.31 0 01-.889.854c-.366.197-.808.295-1.328.295-.65 0-1.186-.171-1.61-.514-.423-.346-.736-.842-.94-1.489-.204-.65-.306-1.429-.306-2.337 0-.908.092-1.685.277-2.332.188-.65.492-1.148.912-1.494.419-.347.975-.52 1.667-.52.655 0 1.193.173 1.616.52.427.342.743.838.947 1.489.208.646.311 1.425.311 2.337zm-4.362 0c0 .712.046 1.306.138 1.783.096.477.254.835.473 1.074.22.234.512.352.877.352.366 0 .658-.118.878-.352.219-.235.377-.591.473-1.068.1-.477.15-1.073.15-1.789 0-.708-.048-1.3-.144-1.778-.096-.477-.254-.834-.474-1.073-.219-.242-.513-.364-.883-.364-.369 0-.663.122-.882.364-.216.239-.372.596-.468 1.073-.092.478-.138 1.07-.138 1.778zm13.051-.075c0 .95-.177 1.745-.531 2.383a3.399 3.399 0 01-1.541 1.437c-.673.32-1.485.479-2.435.479h-2.343v-8.437h2.597c.873 0 1.627.158 2.262.473a3.344 3.344 0 011.472 1.391c.346.612.519 1.37.519 2.274zm-1.443.04c0-.692-.109-1.262-.329-1.708a2.104 2.104 0 00-.958-.993c-.419-.219-.936-.329-1.552-.329h-1.183v6.129h.981c1.02 0 1.781-.259 2.285-.779.504-.519.756-1.292.756-2.32zm8.608 4.259h-5.713v-1.021l2.187-2.216c.423-.431.772-.802 1.045-1.114.273-.316.475-.614.606-.895.134-.28.202-.586.202-.917 0-.408-.118-.716-.352-.924-.235-.211-.545-.317-.929-.317-.366 0-.704.073-1.016.219a4.766 4.766 0 00-.958.612l-.745-.894c.235-.2.485-.383.751-.549.269-.165.569-.296.9-.392.331-.1.708-.15 1.131-.15.535 0 .997.096 1.385.288.389.189.687.452.895.791.211.339.317.733.317 1.183 0 .454-.09.873-.271 1.258a4.828 4.828 0 01-.774 1.143c-.334.373-.732.779-1.194 1.218l-1.46 1.425v.063h3.993v1.189zm6.975 0h-5.713v-1.021l2.187-2.216c.423-.431.771-.802 1.045-1.114a3.93 3.93 0 00.605-.895c.135-.28.202-.586.202-.917 0-.408-.117-.716-.352-.924-.234-.211-.544-.317-.929-.317a2.36 2.36 0 00-1.015.219 4.738 4.738 0 00-.958.612l-.745-.894c.235-.2.485-.383.75-.549.27-.165.57-.296.901-.392.331-.1.708-.15 1.131-.15.535 0 .996.096 1.385.288.388.189.687.452.894.791.212.339.318.733.318 1.183 0 .454-.091.873-.271 1.258a4.828 4.828 0 01-.774 1.143c-.335.373-.733.779-1.194 1.218l-1.46 1.425v.063h3.993v1.189zm3.212 0h-1.373v-8.437h4.766v1.166h-3.393v2.631h3.174v1.16h-3.174v3.48z" fill="#FEE"/><path fill="#00FE00" d="M103.5 72.4h179.55v120.2H103.5z"/><path d="M124.695 92.2c0 .643-.159 1.197-.475 1.662-.312.465-.762.821-1.351 1.069-.583.247-1.281.37-2.092.37-.396 0-.774-.022-1.135-.066a7.818 7.818 0 01-1.024-.193 5.545 5.545 0 01-.868-.32v-1.676c.44.193.932.368 1.476.527.544.153 1.098.23 1.662.23.46 0 .841-.06 1.143-.178.307-.124.534-.297.682-.52.149-.227.223-.492.223-.794 0-.321-.086-.593-.26-.816-.173-.222-.435-.425-.786-.608a13.182 13.182 0 00-1.306-.601 8.833 8.833 0 01-1.024-.49 4.175 4.175 0 01-.861-.645 2.804 2.804 0 01-.601-.876c-.143-.341-.215-.742-.215-1.202 0-.613.146-1.138.438-1.573.297-.435.712-.77 1.246-1.002.54-.232 1.168-.349 1.885-.349.569 0 1.103.06 1.603.179a8.22 8.22 0 011.484.504l-.564 1.432a10.018 10.018 0 00-1.299-.438 5.014 5.014 0 00-1.276-.163c-.376 0-.695.057-.957.17a1.337 1.337 0 00-.601.483c-.134.203-.2.445-.2.727 0 .317.076.584.23.802.158.212.4.408.727.586.331.178.757.376 1.276.593a9.182 9.182 0 011.521.78c.421.272.742.598.965.979.222.376.334.848.334 1.417zm9.074-5.26v8.213h-1.373l-.237-1.105h-.096a2.38 2.38 0 01-.661.705c-.267.183-.564.319-.89.408-.327.094-.67.14-1.032.14-.618 0-1.147-.103-1.587-.311a2.2 2.2 0 01-1.002-.98c-.233-.44-.349-1.009-.349-1.706v-5.365h1.751v5.039c0 .638.129 1.115.386 1.432.262.316.668.475 1.217.475.529 0 .95-.11 1.261-.327.312-.218.532-.54.661-.965.133-.425.2-.947.2-1.565v-4.089h1.751zm5.81 8.362c-.777 0-1.449-.151-2.018-.453-.569-.302-1.007-.764-1.314-1.388-.306-.623-.46-1.414-.46-2.374 0-1 .169-1.815.505-2.448.336-.634.801-1.101 1.395-1.403.598-.302 1.284-.452 2.055-.452.49 0 .933.05 1.328.148.401.094.74.21 1.017.349l-.52 1.395a7.47 7.47 0 00-.927-.312 3.557 3.557 0 00-.913-.126c-.479 0-.88.106-1.202.319-.316.213-.554.53-.712.95-.153.42-.23.942-.23 1.565 0 .604.079 1.113.237 1.529.159.41.394.722.705.935.312.207.695.311 1.15.311.451 0 .854-.054 1.21-.163.356-.109.692-.25 1.009-.423v1.514c-.312.178-.646.309-1.002.393-.356.09-.794.134-1.313.134zm7.553 0c-.776 0-1.449-.151-2.018-.453-.569-.302-1.006-.764-1.313-1.388-.307-.623-.46-1.414-.46-2.374 0-1 .168-1.815.504-2.448.337-.634.802-1.101 1.395-1.403.599-.302 1.284-.452 2.056-.452.489 0 .932.05 1.328.148.4.094.739.21 1.016.349l-.519 1.395a7.54 7.54 0 00-.928-.312 3.543 3.543 0 00-.912-.126c-.48 0-.881.106-1.202.319-.317.213-.554.53-.713.95-.153.42-.23.942-.23 1.565 0 .604.08 1.113.238 1.529.158.41.393.722.705.935.311.207.695.311 1.15.311.45 0 .853-.054 1.209-.163a5.35 5.35 0 001.009-.423v1.514c-.311.178-.645.309-1.001.393-.356.09-.794.134-1.314.134zm7.517-8.518c.732 0 1.36.15 1.884.452.525.302.928.73 1.21 1.284.282.554.423 1.217.423 1.988v.935h-5.483c.019.797.232 1.41.638 1.84.41.43.984.646 1.721.646.524 0 .994-.05 1.41-.148a7.84 7.84 0 001.298-.453v1.417c-.41.193-.828.334-1.254.423-.425.09-.935.134-1.528.134-.806 0-1.516-.156-2.13-.468a3.426 3.426 0 01-1.432-1.41c-.341-.623-.512-1.397-.512-2.322 0-.92.156-1.702.468-2.345.311-.643.749-1.133 1.313-1.469.564-.336 1.222-.504 1.974-.504zm0 1.313c-.549 0-.994.178-1.336.534-.336.356-.534.878-.593 1.566h3.739a2.87 2.87 0 00-.208-1.091 1.578 1.578 0 00-.593-.742c-.262-.178-.599-.267-1.009-.267zm11.004 4.712c0 .539-.132.994-.394 1.365-.262.37-.645.653-1.15.846-.499.188-1.113.282-1.84.282a7.583 7.583 0 01-1.484-.127 5.074 5.074 0 01-1.165-.37v-1.507c.391.183.829.342 1.313.475.49.134.953.2 1.388.2.574 0 .987-.088 1.239-.267a.857.857 0 00.379-.727.77.77 0 00-.156-.475c-.099-.143-.287-.289-.564-.437a10.788 10.788 0 00-1.202-.55c-.52-.207-.957-.415-1.314-.623-.356-.208-.625-.457-.808-.75-.183-.296-.275-.674-.275-1.134 0-.728.287-1.28.861-1.655.579-.38 1.343-.571 2.293-.571.504 0 .979.052 1.424.155.45.1.891.245 1.321.438l-.549 1.314a8.208 8.208 0 00-1.121-.401 4.008 4.008 0 00-1.135-.163c-.45 0-.794.069-1.031.207-.233.139-.349.337-.349.594 0 .193.057.356.171.49.114.133.309.267.586.4.282.134.673.3 1.172.498.49.188.913.385 1.269.593.361.203.638.453.831.75.193.296.29.68.29 1.15zm7.405 0c0 .539-.131.994-.394 1.365-.262.37-.645.653-1.15.846-.499.188-1.113.282-1.84.282a7.583 7.583 0 01-1.484-.127 5.09 5.09 0 01-1.165-.37v-1.507c.391.183.829.342 1.314.475.489.134.952.2 1.387.2.574 0 .987-.088 1.239-.267a.857.857 0 00.379-.727.77.77 0 00-.156-.475c-.099-.143-.287-.289-.564-.437a10.788 10.788 0 00-1.202-.55 9.954 9.954 0 01-1.313-.623c-.357-.208-.626-.457-.809-.75-.183-.296-.275-.674-.275-1.134 0-.728.287-1.28.861-1.655.579-.38 1.343-.571 2.293-.571.504 0 .979.052 1.424.155.45.1.891.245 1.321.438l-.549 1.314a8.244 8.244 0 00-1.12-.401 4.015 4.015 0 00-1.136-.163c-.45 0-.794.069-1.031.207-.233.139-.349.337-.349.594 0 .193.057.356.171.49.114.133.309.267.586.4.282.134.673.3 1.172.498.49.188.913.385 1.269.593.361.203.638.453.831.75.193.296.29.68.29 1.15zm3.636-.395c0-.547.052-1.08.156-1.602.107-.52.27-1.017.488-1.489a5.95 5.95 0 01.825-1.308h1.001a6.844 6.844 0 00-1.054 2.065 7.778 7.778 0 00-.196 3.862c.105.508.261.996.469 1.465.209.472.466.915.772 1.328h-.992a5.763 5.763 0 01-.825-1.279 6.548 6.548 0 01-.488-1.465 7.939 7.939 0 01-.156-1.577zm7.832.796c0 .423-.104.788-.313 1.094-.205.306-.501.54-.888.703-.385.163-.843.244-1.377.244a6.09 6.09 0 01-.747-.044 5.12 5.12 0 01-.674-.127 3.663 3.663 0 01-.572-.21v-1.103c.29.127.614.242.972.346.358.101.723.152 1.094.152.303 0 .553-.04.752-.118a.943.943 0 00.449-.341.932.932 0 00.147-.523.848.848 0 00-.171-.537 1.556 1.556 0 00-.518-.4 8.67 8.67 0 00-.859-.396 5.804 5.804 0 01-.674-.322 2.738 2.738 0 01-.567-.425 1.84 1.84 0 01-.395-.576 2.038 2.038 0 01-.142-.791c0-.404.096-.749.288-1.035.196-.287.469-.506.821-.66.355-.152.768-.229 1.24-.229.374 0 .726.04 1.055.117.332.078.657.19.976.332l-.371.943a6.623 6.623 0 00-.854-.288 3.309 3.309 0 00-.84-.108c-.248 0-.458.038-.63.112a.885.885 0 00-.396.318.857.857 0 00-.131.478c0 .209.05.385.151.528.104.14.264.268.478.385.219.118.499.248.84.391a6.03 6.03 0 011.001.513c.277.179.489.394.635.644.147.248.22.559.22.933zm4.033-3.564c.641 0 1.156.234 1.543.703.391.468.586 1.165.586 2.09 0 .611-.091 1.127-.274 1.547-.179.417-.431.733-.756.947a2.012 2.012 0 01-1.128.318c-.274 0-.511-.036-.713-.108a1.777 1.777 0 01-.518-.278 2 2 0 01-.361-.38h-.068c.016.13.03.274.043.434.017.156.025.3.025.43v2.202h-1.152v-7.803h.937l.161.747h.054c.101-.153.223-.294.366-.425.147-.13.322-.232.527-.307.209-.079.451-.118.728-.118zm-.308.937c-.315 0-.569.063-.761.19a1.06 1.06 0 00-.415.562c-.085.25-.131.565-.137.942v.161c0 .4.041.741.122 1.02.085.278.223.49.415.636.195.143.459.215.791.215.28 0 .511-.077.693-.23.186-.153.324-.371.415-.654.092-.283.137-.617.137-1.001 0-.583-.104-1.035-.312-1.358-.205-.322-.521-.483-.948-.483zm5.918-.938c.482 0 .896.1 1.241.298.345.199.61.48.795.845.186.365.279.8.279 1.309v.615h-3.609c.013.524.153.928.42 1.21.27.284.648.426 1.133.426.345 0 .654-.033.928-.098.277-.068.561-.168.854-.298v.933c-.27.127-.545.22-.825.278-.28.059-.615.088-1.006.088-.53 0-.997-.103-1.401-.308a2.247 2.247 0 01-.942-.927c-.225-.41-.337-.92-.337-1.529 0-.605.102-1.12.307-1.543.205-.423.493-.745.864-.966.372-.222.805-.332 1.299-.332zm0 .865c-.361 0-.654.117-.879.351-.221.235-.351.578-.39 1.03h2.461a1.905 1.905 0 00-.137-.717 1.042 1.042 0 00-.391-.489c-.172-.117-.393-.175-.664-.175zm5.786 4.74c-.511 0-.953-.098-1.328-.297a1.999 1.999 0 01-.864-.913c-.202-.41-.303-.931-.303-1.563 0-.657.111-1.194.332-1.61a2.12 2.12 0 01.918-.924 2.966 2.966 0 011.353-.297c.322 0 .613.032.874.097.264.062.487.139.669.23l-.342.918a5.006 5.006 0 00-.61-.206 2.347 2.347 0 00-.601-.082c-.316 0-.579.07-.791.21-.208.14-.364.348-.469.624-.101.277-.151.62-.151 1.03 0 .398.052.733.156 1.007.104.27.259.475.464.615.205.136.457.205.757.205.296 0 .561-.036.796-.108a3.53 3.53 0 00.664-.278v.996a2.465 2.465 0 01-.659.259 3.631 3.631 0 01-.865.088zm3.941-5.502v5.405h-1.148v-5.405h1.148zm-.567-2.07c.176 0 .328.047.455.141.13.095.195.257.195.489 0 .227-.065.39-.195.488a.742.742 0 01-.455.141.754.754 0 01-.463-.141c-.124-.098-.186-.26-.186-.488 0-.232.062-.394.186-.489a.754.754 0 01.463-.141zm4.332 1.968c.683 0 1.199.15 1.547.454.352.302.528.774.528 1.416v3.637h-.816l-.219-.766h-.039a2.784 2.784 0 01-.474.483 1.66 1.66 0 01-.567.283c-.211.065-.47.098-.776.098a2.04 2.04 0 01-.864-.176 1.377 1.377 0 01-.601-.547c-.146-.244-.219-.553-.219-.928 0-.556.206-.974.62-1.254.416-.28 1.045-.435 1.884-.464l.938-.034v-.284c0-.374-.088-.64-.264-.8-.172-.16-.416-.24-.732-.24-.27 0-.532.04-.786.118a5.5 5.5 0 00-.742.288l-.372-.81c.264-.14.564-.255.899-.343.338-.088.69-.132 1.055-.132zm.937 2.924l-.698.025c-.573.02-.975.117-1.206.293a.86.86 0 00-.347.722c0 .267.08.463.239.586.16.12.37.18.63.18.397 0 .726-.111.987-.336.263-.228.395-.562.395-1.001v-.469zm3.897 2.583h-1.153v-7.597h1.153v7.597zm4.142-3.293a9.54 9.54 0 01-.187 1.899 7.707 7.707 0 01-.58 1.758 6.535 6.535 0 01-.997 1.535h-1.183a8.323 8.323 0 00.926-1.594c.25-.566.437-1.154.562-1.764a9.162 9.162 0 00-.006-3.72 8.748 8.748 0 00-.562-1.782 8.012 8.012 0 00-.932-1.605h1.195c.407.48.739 1.004.997 1.57.261.567.455 1.162.58 1.787.125.621.187 1.26.187 1.916zM122.721 162.533l-.323 1.651h1.558v.963h-1.743l-.467 2.418h-1.028l.474-2.418h-1.443l-.456 2.418h-1.004l.444-2.418h-1.443v-.963h1.628l.329-1.651h-1.53v-.964h1.703l.462-2.435h1.027l-.462 2.435h1.454l.468-2.435h.998l-.461 2.435h1.454v.964h-1.639zm-2.788 1.651h1.443l.329-1.651h-1.448l-.324 1.651zm11.171-.843c0 .681-.054 1.291-.162 1.829-.104.535-.269.989-.496 1.362a2.296 2.296 0 01-.889.854c-.365.197-.808.295-1.327.295-.65 0-1.187-.171-1.61-.514-.424-.346-.737-.842-.941-1.489-.204-.65-.306-1.429-.306-2.337 0-.908.092-1.685.277-2.332.189-.65.493-1.148.912-1.494.419-.347.975-.52 1.668-.52.654 0 1.192.173 1.616.52.427.342.742.838.946 1.489.208.646.312 1.425.312 2.337zm-4.363 0c0 .712.046 1.306.138 1.783.097.477.254.835.474 1.074.219.234.511.352.877.352.365 0 .658-.118.877-.352.219-.235.377-.591.473-1.068.1-.477.15-1.073.15-1.789 0-.708-.048-1.3-.144-1.778-.096-.477-.254-.834-.473-1.073-.22-.242-.514-.364-.883-.364-.37 0-.664.122-.883.364-.216.239-.371.596-.468 1.073-.092.478-.138 1.07-.138 1.778zm11.337 0a9.35 9.35 0 01-.161 1.829c-.104.535-.269.989-.496 1.362a2.303 2.303 0 01-.889.854c-.366.197-.808.295-1.328.295-.65 0-1.186-.171-1.61-.514-.423-.346-.736-.842-.94-1.489-.204-.65-.306-1.429-.306-2.337 0-.908.092-1.685.277-2.332.188-.65.492-1.148.912-1.494.419-.347.975-.52 1.667-.52.655 0 1.193.173 1.616.52.427.342.743.838.947 1.489.208.646.311 1.425.311 2.337zm-4.362 0c0 .712.046 1.306.138 1.783.096.477.254.835.473 1.074.22.234.512.352.877.352.366 0 .658-.118.878-.352.219-.235.377-.591.473-1.068.1-.477.15-1.073.15-1.789 0-.708-.048-1.3-.144-1.778-.096-.477-.254-.834-.474-1.073-.219-.242-.513-.364-.883-.364-.369 0-.663.122-.882.364-.216.239-.372.596-.468 1.073-.092.478-.138 1.07-.138 1.778zm7.574 4.224h-1.373v-8.437h4.767v1.166h-3.394v2.631h3.175v1.16h-3.175v3.48zm9.918 0h-4.778v-8.437h4.778v1.166h-3.393v2.291h3.18v1.16h-3.18v2.649h3.393v1.171zm7.171-4.224c0 .681-.054 1.291-.161 1.829-.104.535-.27.989-.497 1.362a2.3 2.3 0 01-.888.854c-.366.197-.808.295-1.328.295-.65 0-1.187-.171-1.61-.514-.423-.346-.737-.842-.94-1.489-.204-.65-.306-1.429-.306-2.337 0-.908.092-1.685.277-2.332.188-.65.492-1.148.912-1.494.419-.347.975-.52 1.667-.52.654 0 1.193.173 1.616.52.427.342.743.838.947 1.489.207.646.311 1.425.311 2.337zm-4.363 0c0 .712.047 1.306.139 1.783.096.477.254.835.473 1.074.219.234.512.352.877.352.366 0 .658-.118.878-.352.219-.235.377-.591.473-1.068.1-.477.15-1.073.15-1.789 0-.708-.048-1.3-.144-1.778-.097-.477-.254-.834-.474-1.073-.219-.242-.513-.364-.883-.364-.369 0-.663.122-.883.364-.215.239-.371.596-.467 1.073-.092.478-.139 1.07-.139 1.778zm11.338 0c0 .681-.054 1.291-.162 1.829-.103.535-.269.989-.496 1.362a2.296 2.296 0 01-.889.854c-.365.197-.808.295-1.327.295-.65 0-1.187-.171-1.61-.514-.423-.346-.737-.842-.941-1.489-.204-.65-.306-1.429-.306-2.337 0-.908.093-1.685.277-2.332.189-.65.493-1.148.912-1.494.42-.347.976-.52 1.668-.52.654 0 1.193.173 1.616.52.427.342.743.838.946 1.489.208.646.312 1.425.312 2.337zm-4.363 0c0 .712.046 1.306.139 1.783.096.477.254.835.473 1.074.219.234.512.352.877.352.366 0 .658-.118.877-.352.22-.235.377-.591.474-1.068.1-.477.15-1.073.15-1.789 0-.708-.049-1.3-.145-1.778-.096-.477-.254-.834-.473-1.073-.219-.242-.514-.364-.883-.364s-.664.122-.883.364c-.215.239-.371.596-.467 1.073-.093.478-.139 1.07-.139 1.778z" fill="#252A2E"/><path fill="#019AEB" d="M269.55 72.687H449.1v120.2H269.55z"/><path d="M284.482 95.44V84.593h1.781V95.44h-1.781zm8.748-8.37c.925 0 1.645.24 2.16.72.519.475.779 1.24.779 2.293v5.357h-1.744v-5.03c0-.638-.131-1.116-.393-1.432-.262-.322-.668-.483-1.217-.483-.796 0-1.351.245-1.662.735-.307.49-.46 1.2-.46 2.13v4.08h-1.744v-8.213h1.358l.245 1.112h.096c.178-.286.399-.521.661-.704.267-.188.564-.33.89-.423a3.757 3.757 0 011.031-.141zm9.483 1.485h-1.996v6.885h-1.744v-6.885h-1.343v-.839l1.343-.512v-.571c0-.697.109-1.251.327-1.662.223-.41.539-.705.95-.883.415-.183.91-.275 1.484-.275.376 0 .719.032 1.031.097.312.06.574.129.787.208l-.453 1.32a5.703 5.703 0 00-.564-.148 2.875 2.875 0 00-.668-.074c-.396 0-.687.123-.875.37-.183.248-.275.61-.275 1.084v.557h1.996v1.328zm8.674 2.76c0 .683-.089 1.288-.267 1.818-.178.53-.438.977-.779 1.343a3.439 3.439 0 01-1.232.83c-.48.189-1.021.283-1.625.283a4.14 4.14 0 01-1.551-.282 3.533 3.533 0 01-1.224-.831 3.814 3.814 0 01-.794-1.343c-.188-.53-.282-1.135-.282-1.818 0-.905.156-1.672.468-2.3a3.323 3.323 0 011.35-1.447c.584-.332 1.279-.497 2.085-.497.757 0 1.425.165 2.003.497a3.43 3.43 0 011.358 1.447c.327.633.49 1.4.49 2.3zm-5.958 0c0 .599.071 1.11.215 1.536.148.425.376.752.683.98.306.222.702.333 1.187.333.485 0 .88-.111 1.187-.334.307-.227.532-.554.675-.98.144-.425.215-.936.215-1.535 0-.599-.071-1.106-.215-1.521-.143-.42-.368-.74-.675-.957-.307-.223-.705-.334-1.195-.334-.722 0-1.249.242-1.58.727-.332.485-.497 1.18-.497 2.085zm12.525-6.722L313.91 95.44h-1.633l4.044-10.847h1.633zm3.316 10.847h-1.766V84.593h6.129v1.498h-4.363v3.384h4.081v1.491h-4.081v4.474zm13.43-4.125c0 .683-.089 1.288-.267 1.818-.178.53-.438.977-.779 1.343a3.43 3.43 0 01-1.232.83c-.479.189-1.021.283-1.625.283-.563 0-1.08-.094-1.55-.282a3.546 3.546 0 01-1.225-.831 3.814 3.814 0 01-.794-1.343c-.187-.53-.281-1.135-.281-1.818 0-.905.155-1.672.467-2.3a3.335 3.335 0 011.35-1.447c.584-.332 1.279-.497 2.085-.497.757 0 1.425.165 2.004.497.579.331 1.031.814 1.358 1.447.326.633.489 1.4.489 2.3zm-5.958 0c0 .599.072 1.11.215 1.536.149.425.376.752.683.98.307.222.702.333 1.187.333.485 0 .881-.111 1.187-.334.307-.227.532-.554.676-.98.143-.425.215-.936.215-1.535 0-.599-.072-1.106-.215-1.521-.144-.42-.369-.74-.676-.957-.306-.223-.705-.334-1.194-.334-.722 0-1.249.242-1.581.727-.331.485-.497 1.18-.497 2.085zm11.271 4.274c-.777 0-1.449-.151-2.018-.453-.569-.302-1.007-.764-1.314-1.387-.306-.624-.46-1.415-.46-2.375 0-.999.169-1.815.505-2.448.336-.633.801-1.1 1.395-1.403.598-.301 1.284-.452 2.055-.452.49 0 .933.05 1.328.148.401.094.74.21 1.017.349l-.519 1.395a7.574 7.574 0 00-.928-.312 3.557 3.557 0 00-.913-.126c-.479 0-.88.106-1.202.32-.316.212-.554.528-.712.949-.153.42-.23.942-.23 1.565 0 .604.079 1.113.237 1.529.159.41.394.722.705.935.312.208.695.312 1.15.312.451 0 .854-.055 1.21-.164.356-.109.692-.25 1.009-.423v1.514c-.312.178-.646.31-1.002.393-.356.09-.794.134-1.313.134zm11.404-8.362v8.213h-1.372l-.238-1.105h-.096a2.354 2.354 0 01-.661.705c-.267.183-.563.319-.89.408-.326.094-.67.14-1.031.14-.619 0-1.148-.103-1.588-.31a2.21 2.21 0 01-1.002-.98c-.232-.44-.349-1.01-.349-1.707v-5.364h1.751v5.038c0 .638.129 1.115.386 1.432.262.316.668.475 1.217.475.529 0 .95-.11 1.262-.327.311-.218.531-.54.66-.965.134-.425.2-.947.2-1.565v-4.088h1.751zm8.021 5.869c0 .539-.131.994-.393 1.365s-.645.653-1.15.846c-.5.188-1.113.282-1.84.282a7.576 7.576 0 01-1.484-.126 5.084 5.084 0 01-1.165-.371v-1.507c.391.183.828.342 1.313.475.49.134.952.2 1.388.2.574 0 .987-.088 1.239-.267a.856.856 0 00.378-.727.77.77 0 00-.156-.475c-.098-.143-.286-.289-.563-.437a10.806 10.806 0 00-1.202-.55 9.986 9.986 0 01-1.314-.623c-.356-.207-.626-.457-.809-.749-.183-.297-.274-.675-.274-1.135 0-.727.287-1.279.861-1.655.578-.38 1.343-.571 2.292-.571.505 0 .98.052 1.425.156.45.099.89.244 1.321.437l-.549 1.314a8.209 8.209 0 00-1.121-.401 4.011 4.011 0 00-1.135-.163c-.45 0-.794.069-1.031.207-.233.139-.349.337-.349.594 0 .193.057.356.171.49.113.133.309.267.586.4.282.134.672.3 1.172.498.49.188.913.386 1.269.593.361.203.638.453.831.75.193.296.289.68.289 1.15zM288.719 163.664l-.381 1.962h1.633v.745H288.2l-.485 2.481h-.791l.485-2.481h-1.749l-.473 2.481h-.785l.462-2.481h-1.512v-.745h1.656l.393-1.962h-1.599v-.733h1.726l.473-2.516h.802l-.473 2.516h1.76l.485-2.516h.773l-.485 2.516h1.524v.733h-1.668zm-2.92 1.962h1.749l.38-1.962h-1.748l-.381 1.962zm11.087-1.004c0 1.458-.231 2.547-.693 3.267-.458.719-1.16 1.079-2.106 1.079-.908 0-1.599-.368-2.072-1.102-.473-.739-.71-1.82-.71-3.244 0-1.469.229-2.56.687-3.272.458-.712 1.156-1.068 2.095-1.068.915 0 1.61.372 2.083 1.114.477.743.716 1.818.716 3.226zm-4.611 0c0 1.228.144 2.122.432 2.684.289.558.749.837 1.38.837.638 0 1.1-.283 1.385-.849.288-.569.432-1.46.432-2.672 0-1.212-.144-2.098-.432-2.66-.285-.566-.747-.849-1.385-.849-.631 0-1.091.279-1.38.837-.288.554-.432 1.445-.432 2.672zm9.349 4.23h-.935v-6.013c0-.5.015-.973.046-1.42a5.825 5.825 0 01-.271.254c-.1.089-.558.464-1.373 1.126l-.508-.658 2.233-1.726h.808v8.437zm8.778-4.836c0 3.301-1.277 4.952-3.832 4.952-.446 0-.8-.039-1.062-.116v-.825c.308.1.658.15 1.051.15.923 0 1.619-.284 2.089-.854.473-.573.731-1.45.773-2.631h-.069a2.077 2.077 0 01-.843.732c-.35.166-.744.249-1.183.249-.746 0-1.339-.224-1.777-.67-.439-.446-.658-1.069-.658-1.87 0-.877.244-1.569.733-2.077.492-.508 1.139-.762 1.939-.762.573 0 1.073.148 1.5.444.431.293.762.722.993 1.287.231.562.346 1.226.346 1.991zm-2.839-2.903c-.55 0-.975.177-1.276.531-.3.354-.45.847-.45 1.478 0 .554.139.99.416 1.31.277.315.698.473 1.264.473.35 0 .671-.071.963-.213a1.75 1.75 0 00.699-.583 1.35 1.35 0 00.254-.774c0-.404-.079-.777-.237-1.119a1.94 1.94 0 00-.664-.808 1.65 1.65 0 00-.969-.295zm9.961 7.739l-1.05-2.683h-3.382l-1.039 2.683h-.992l3.335-8.471h.825l3.319 8.471h-1.016zm-1.356-3.566l-.981-2.614a14.106 14.106 0 01-.393-1.218c-.084.369-.205.775-.363 1.218l-.993 2.614h2.73zm8.253 3.566h-4.704v-8.437h4.704v.872h-3.722v2.718h3.497v.865h-3.497v3.105h3.722v.877zm1.893-8.437h2.384c1.119 0 1.929.168 2.429.502.5.335.75.864.75 1.587 0 .5-.14.914-.421 1.241-.277.323-.683.533-1.217.629v.058c1.281.219 1.921.892 1.921 2.02 0 .754-.256 1.342-.767 1.766-.508.423-1.22.634-2.136.634h-2.943v-8.437zm.981 3.613h1.616c.693 0 1.191-.108 1.495-.323.304-.22.456-.587.456-1.103 0-.473-.17-.813-.508-1.021-.339-.212-.877-.317-1.616-.317h-1.443v2.764zm0 .831v3.157h1.76c.681 0 1.193-.131 1.536-.393.346-.265.519-.679.519-1.241 0-.523-.177-.908-.531-1.154-.35-.246-.885-.369-1.604-.369h-1.68z" fill="#fff"/><path fill="#FF8B00" d="M449.1 72.687h178.799v120.2H449.1z"/><path d="M470.755 95.44l-1.061-3.012h-4.148l-1.061 3.012h-1.877l4.036-10.892h1.974l4.029 10.892h-1.892zm-1.521-4.54l-1.031-2.969a92.35 92.35 0 00-.171-.541l-.223-.72a97.555 97.555 0 01-.185-.623c-.05.203-.112.43-.186.682-.069.248-.138.48-.207.698l-.149.504-1.039 2.968h3.191zm6.418 4.54h-1.751V83.895h1.751V95.44zm5.765-8.37c.732 0 1.361.152 1.885.453.524.302.928.73 1.209 1.284.282.554.423 1.217.423 1.989v.934h-5.483c.02.797.233 1.41.638 1.84.411.43.985.646 1.722.646a6.1 6.1 0 001.409-.148 7.808 7.808 0 001.299-.453v1.417a5.69 5.69 0 01-1.254.423c-.425.09-.935.134-1.529.134-.806 0-1.516-.156-2.129-.468a3.415 3.415 0 01-1.432-1.41c-.341-.623-.512-1.397-.512-2.322 0-.92.156-1.701.467-2.345.312-.643.75-1.132 1.314-1.469.564-.336 1.222-.504 1.973-.504zm0 1.314c-.549 0-.994.178-1.335.534-.337.356-.534.878-.594 1.566h3.74a2.869 2.869 0 00-.208-1.09 1.58 1.58 0 00-.594-.743c-.262-.178-.598-.267-1.009-.267zm9.646-1.313a5.035 5.035 0 01.876.081l-.163 1.633a2.218 2.218 0 00-.386-.067 4.059 4.059 0 00-.401-.022 2.55 2.55 0 00-.89.156 2.112 2.112 0 00-1.262 1.224 2.857 2.857 0 00-.185 1.068v4.296h-1.751v-8.213h1.365l.237 1.446h.082c.163-.291.366-.558.608-.8a2.87 2.87 0 01.831-.58 2.419 2.419 0 011.039-.222zm5.454 7.108c.227 0 .453-.02.675-.06.223-.044.426-.096.609-.155v1.32a3.652 3.652 0 01-.75.216c-.307.06-.626.089-.957.089-.465 0-.883-.077-1.254-.23a1.836 1.836 0 01-.883-.809c-.218-.38-.326-.908-.326-1.58v-4.415h-1.121v-.78l1.202-.615.572-1.759h1.098v1.826h2.352v1.328h-2.352v4.392c0 .416.104.725.311.928.208.203.483.304.824.304zm11.464-9.587l-4.044 10.848h-1.633l4.044-10.847h1.633zm18.327 0l-2.835 10.848h-1.944l-1.81-6.5a17.684 17.684 0 01-.148-.563 66.72 66.72 0 01-.164-.668l-.133-.623c-.035-.193-.06-.342-.074-.446-.01.104-.033.25-.067.438-.035.188-.077.396-.126.623a15.99 15.99 0 01-.149.668c-.054.218-.104.41-.148.579l-1.781 6.492h-1.937l-2.826-10.847h1.788l1.565 6.358c.05.203.099.423.149.66.054.233.104.468.148.706a21.143 21.143 0 01.23 1.306 33.994 33.994 0 01.223-1.328c.049-.243.099-.475.148-.698.055-.223.109-.423.163-.601l1.766-6.403h1.737l1.803 6.425c.054.183.106.388.155.616a23.537 23.537 0 01.29 1.388c.039.222.072.422.096.6a26.949 26.949 0 01.527-2.67l1.558-6.36h1.796zm4.578 2.479c1.039 0 1.823.23 2.352.69.534.46.801 1.177.801 2.152v5.527H532.8l-.334-1.165h-.059a4.197 4.197 0 01-.72.735 2.51 2.51 0 01-.86.43c-.322.1-.715.149-1.18.149-.49 0-.928-.09-1.314-.267a2.087 2.087 0 01-.912-.831c-.223-.371-.334-.841-.334-1.41 0-.846.314-1.482.942-1.907.633-.425 1.588-.66 2.864-.705l1.425-.052v-.43c0-.57-.134-.975-.401-1.217-.262-.242-.633-.364-1.113-.364-.41 0-.808.06-1.194.178a8.419 8.419 0 00-1.128.438l-.564-1.232a6.336 6.336 0 011.365-.519 6.356 6.356 0 011.603-.2zm1.425 4.444l-1.061.037c-.871.03-1.482.178-1.833.446-.351.267-.527.633-.527 1.098 0 .405.121.702.364.89.242.183.561.275.957.275.603 0 1.103-.171 1.499-.512.4-.347.601-.854.601-1.521v-.713zm8.332-4.444a5.035 5.035 0 01.876.081l-.164 1.633a2.188 2.188 0 00-.385-.067 4.059 4.059 0 00-.401-.022c-.312 0-.609.052-.89.156a2.099 2.099 0 00-1.262 1.224 2.837 2.837 0 00-.185 1.068v4.296h-1.751v-8.213h1.365l.237 1.446h.082c.163-.291.366-.558.608-.8a2.87 2.87 0 01.831-.58 2.419 2.419 0 011.039-.222zm6.678 0c.925 0 1.645.24 2.159.72.52.474.779 1.239.779 2.292v5.357h-1.743v-5.03c0-.638-.131-1.116-.394-1.432-.262-.322-.667-.483-1.216-.483-.797 0-1.351.245-1.663.735-.306.49-.46 1.2-.46 2.13v4.08h-1.743v-8.213h1.358l.244 1.112h.097c.178-.286.398-.521.66-.704.267-.188.564-.33.891-.423a3.757 3.757 0 011.031-.141zm7.123.156v8.213H552.7v-8.213h1.744zm-.861-3.147c.268 0 .498.072.691.216.197.143.296.39.296.742 0 .346-.099.593-.296.742a1.126 1.126 0 01-.691.215c-.277 0-.512-.072-.704-.215-.188-.149-.282-.396-.282-.742 0-.352.094-.599.282-.742.192-.144.427-.216.704-.216zm7.643 2.99c.925 0 1.645.24 2.159.72.52.475.779 1.24.779 2.293v5.357h-1.743v-5.03c0-.638-.132-1.116-.394-1.432-.262-.322-.667-.483-1.217-.483-.796 0-1.35.245-1.662.735-.306.49-.46 1.2-.46 2.13v4.08h-1.743v-8.213h1.358l.244 1.112h.097c.178-.286.398-.521.66-.704.267-.188.564-.33.891-.423a3.757 3.757 0 011.031-.141zm7.724 12.021c-1.113 0-1.966-.2-2.56-.601-.593-.4-.89-.962-.89-1.684 0-.505.158-.933.475-1.284.316-.346.769-.586 1.358-.72a1.51 1.51 0 01-.579-.46 1.156 1.156 0 01-.238-.705c0-.306.087-.569.26-.786.173-.218.433-.428.779-.63a2.27 2.27 0 01-1.039-.891c-.257-.416-.385-.903-.385-1.462 0-.593.126-1.098.378-1.514.252-.42.621-.74 1.106-.957.484-.222 1.07-.334 1.758-.334.148 0 .309.01.482.03.178.015.342.035.49.06.153.02.27.041.349.066h2.842v.972l-1.395.26a2.455 2.455 0 01.437 1.425c0 .85-.294 1.52-.883 2.01-.583.485-1.39.727-2.418.727a8.307 8.307 0 01-.72-.059c-.178.109-.314.23-.408.364a.723.723 0 00-.141.437c0 .134.047.243.141.327.094.079.232.138.415.178.188.04.416.06.683.06h1.417c.9 0 1.588.19 2.063.57.475.382.712.94.712 1.678 0 .934-.386 1.654-1.157 2.159-.772.51-1.883.764-3.332.764zm.067-1.224c.608 0 1.12-.06 1.536-.178.415-.12.729-.29.942-.512.213-.218.319-.478.319-.78 0-.267-.067-.472-.2-.615-.134-.144-.334-.243-.601-.297a5.094 5.094 0 00-.994-.082h-1.292c-.321 0-.605.05-.853.149-.247.104-.44.252-.579.445-.133.193-.2.425-.2.697 0 .376.166.666.497.868.337.203.811.305 1.425.305zm.341-6.396c.51 0 .888-.139 1.135-.416.248-.282.371-.678.371-1.187 0-.554-.128-.97-.385-1.246-.253-.278-.629-.416-1.128-.416-.49 0-.863.141-1.121.423-.252.282-.378.7-.378 1.254 0 .5.126.89.378 1.172.258.277.634.416 1.128.416zM468.321 162.82l-.323 1.651h1.558v.963h-1.743l-.467 2.418h-1.027l.473-2.418h-1.443l-.456 2.418h-1.004l.444-2.418h-1.442v-.963h1.627l.329-1.651h-1.529v-.964h1.702l.462-2.435h1.027l-.462 2.435h1.455l.467-2.435h.999l-.462 2.435h1.454v.964h-1.639zm-2.787 1.651h1.443l.329-1.651h-1.449l-.323 1.651zm7.407 3.381h-1.373v-8.437h4.767v1.166h-3.394v2.632h3.174v1.16h-3.174v3.479zm6.513 0h-1.373v-8.437h4.767v1.166h-3.394v2.632h3.174v1.16h-3.174v3.479zm7.408-8.552c.489 0 .929.077 1.322.231.392.15.704.375.934.675.231.3.347.671.347 1.114 0 .342-.071.64-.214.894a2.233 2.233 0 01-.565.67 4.573 4.573 0 01-.803.502c.331.161.635.348.912.559.281.208.506.453.675.733.174.281.26.61.26.987 0 .473-.121.883-.363 1.229a2.334 2.334 0 01-.999.797c-.427.185-.925.277-1.495.277-.611 0-1.133-.091-1.563-.271-.431-.181-.758-.439-.982-.774-.223-.338-.334-.742-.334-1.212 0-.388.077-.725.231-1.01a2.41 2.41 0 01.617-.738c.262-.208.548-.383.86-.525a4.683 4.683 0 01-.727-.531 2.372 2.372 0 01-.525-.687 2.053 2.053 0 01-.191-.906c0-.439.118-.806.352-1.102.235-.301.548-.528.941-.681a3.587 3.587 0 011.31-.231zm-1.576 6.359c0 .37.131.674.393.912.262.239.652.358 1.171.358.516 0 .908-.117 1.178-.352.269-.235.404-.544.404-.929 0-.246-.07-.464-.208-.652a1.922 1.922 0 00-.548-.502 5.612 5.612 0 00-.756-.416l-.185-.075c-.3.127-.558.271-.773.433a1.826 1.826 0 00-.502.537c-.116.2-.174.429-.174.686zm1.564-5.315c-.373 0-.681.093-.923.277-.238.181-.358.443-.358.785 0 .243.058.45.173.623.12.174.279.324.479.451.2.123.422.238.664.346a4.5 4.5 0 00.635-.341c.192-.127.344-.277.456-.45.115-.177.173-.388.173-.635 0-.338-.121-.598-.364-.779-.238-.184-.55-.277-.935-.277zm4.719-.929h2.51c1.089 0 1.91.158 2.464.473.554.316.831.86.831 1.634 0 .323-.057.615-.173.877a1.61 1.61 0 01-.49.64 1.824 1.824 0 01-.797.335v.058c.327.058.618.159.872.306.257.146.459.356.606.629.15.273.225.627.225 1.062 0 .515-.123.954-.37 1.315-.242.362-.59.637-1.044.826-.45.188-.985.282-1.605.282h-3.029v-8.437zm1.385 3.48h1.327c.627 0 1.062-.102 1.304-.306.243-.204.364-.502.364-.894 0-.4-.144-.689-.433-.866-.285-.177-.739-.265-1.362-.265h-1.2v2.331zm0 1.12v2.677h1.46c.646 0 1.1-.125 1.362-.375.261-.25.392-.588.392-1.015 0-.262-.059-.489-.179-.681-.115-.193-.306-.341-.571-.445-.266-.107-.623-.161-1.073-.161h-1.391zm11.753-.387c0 .681-.054 1.291-.162 1.829-.104.535-.269.989-.496 1.362a2.306 2.306 0 01-.889.855c-.365.196-.808.294-1.327.294-.65 0-1.187-.171-1.61-.514-.423-.346-.737-.842-.941-1.489-.204-.65-.306-1.429-.306-2.337 0-.908.093-1.685.277-2.331.189-.651.493-1.149.912-1.495.419-.346.975-.52 1.668-.52.654 0 1.193.174 1.616.52.427.342.742.839.946 1.489.208.646.312 1.425.312 2.337zm-4.363 0c0 .712.046 1.306.138 1.783.097.477.254.835.474 1.074.219.234.511.352.877.352.365 0 .658-.118.877-.352.219-.235.377-.591.473-1.068.1-.477.15-1.073.15-1.789 0-.708-.048-1.3-.144-1.777-.096-.478-.254-.835-.473-1.074-.219-.242-.514-.363-.883-.363s-.664.121-.883.363c-.216.239-.371.596-.468 1.074-.092.477-.138 1.069-.138 1.777zm11.338 0c0 .681-.054 1.291-.162 1.829-.104.535-.269.989-.496 1.362a2.313 2.313 0 01-.889.855c-.366.196-.808.294-1.327.294-.651 0-1.187-.171-1.611-.514-.423-.346-.736-.842-.94-1.489-.204-.65-.306-1.429-.306-2.337 0-.908.092-1.685.277-2.331.188-.651.492-1.149.912-1.495.419-.346.975-.52 1.668-.52.654 0 1.192.174 1.615.52.428.342.743.839.947 1.489.208.646.312 1.425.312 2.337zm-4.363 0c0 .712.046 1.306.138 1.783.096.477.254.835.473 1.074.22.234.512.352.878.352.365 0 .657-.118.877-.352.219-.235.377-.591.473-1.068.1-.477.15-1.073.15-1.789 0-.708-.048-1.3-.144-1.777-.096-.478-.254-.835-.473-1.074-.22-.242-.514-.363-.883-.363-.37 0-.664.121-.883.363-.216.239-.372.596-.468 1.074-.092.477-.138 1.069-.138 1.777z" fill="#fff"/><path fill="#DA212C" d="M627.899 72.687h178.799v120.2H627.899z"/><path d="M648.975 95.44h-6.143V84.593h6.143v1.498h-4.363v2.946h4.089v1.491h-4.089v3.406h4.363v1.506zm6.329-8.37a5.035 5.035 0 01.876.082l-.163 1.633a2.218 2.218 0 00-.386-.067 4.043 4.043 0 00-.401-.022c-.311 0-.608.052-.89.156a2.097 2.097 0 00-1.261 1.224 2.836 2.836 0 00-.186 1.068v4.296h-1.751v-8.213h1.365l.238 1.446h.081c.163-.291.366-.558.609-.8.242-.243.519-.436.831-.58a2.414 2.414 0 011.038-.222zm6.56 0a5.032 5.032 0 01.875.082l-.163 1.633a2.201 2.201 0 00-.386-.067 4.043 4.043 0 00-.401-.022c-.311 0-.608.052-.89.156a2.055 2.055 0 00-.749.46 2.087 2.087 0 00-.512.764 2.836 2.836 0 00-.186 1.068v4.296h-1.751v-8.213h1.365l.238 1.446h.081c.164-.291.366-.558.609-.8.242-.243.519-.436.831-.58a2.416 2.416 0 011.039-.222zm9.668 4.245c0 .683-.089 1.288-.267 1.818-.178.53-.438.977-.779 1.343a3.439 3.439 0 01-1.232.83 4.428 4.428 0 01-1.625.283 4.14 4.14 0 01-1.551-.282 3.533 3.533 0 01-1.224-.831 3.814 3.814 0 01-.794-1.343c-.188-.53-.282-1.135-.282-1.818 0-.905.156-1.672.467-2.3a3.331 3.331 0 011.351-1.447c.584-.332 1.279-.497 2.085-.497.757 0 1.425.165 2.003.497a3.43 3.43 0 011.358 1.447c.327.633.49 1.4.49 2.3zm-5.958 0c0 .599.071 1.11.215 1.536.148.425.376.752.682.98.307.222.703.333 1.188.333.484 0 .88-.111 1.187-.334.307-.227.532-.554.675-.98.143-.425.215-.936.215-1.535 0-.599-.072-1.106-.215-1.521-.143-.42-.368-.74-.675-.957-.307-.223-.705-.334-1.195-.334-.722 0-1.249.242-1.58.727-.332.485-.497 1.18-.497 2.085zm12.124-4.244a5.032 5.032 0 01.875.081l-.163 1.633a2.201 2.201 0 00-.386-.067 4.04 4.04 0 00-.4-.022c-.312 0-.609.052-.891.156a2.055 2.055 0 00-.749.46 2.087 2.087 0 00-.512.764 2.836 2.836 0 00-.186 1.068v4.296h-1.751v-8.213h1.365l.238 1.446h.082c.163-.291.366-.558.608-.8.242-.243.519-.436.831-.58a2.419 2.419 0 011.039-.222zM647.12 162.82l-.323 1.651h1.558v.963h-1.743l-.467 2.418h-1.027l.473-2.418h-1.443l-.456 2.418h-1.004l.445-2.418h-1.443v-.963h1.627l.329-1.651h-1.529v-.964h1.702l.462-2.435h1.027l-.461 2.435h1.454l.467-2.435h.999l-.462 2.435h1.454v.964h-1.639zm-2.787 1.651h1.443l.329-1.651h-1.449l-.323 1.651zm12.884-.918c0 .95-.177 1.745-.531 2.383a3.399 3.399 0 01-1.541 1.437c-.673.32-1.485.479-2.435.479h-2.343v-8.437h2.597c.873 0 1.627.158 2.262.473a3.344 3.344 0 011.472 1.391c.346.612.519 1.37.519 2.274zm-1.443.04c0-.692-.109-1.262-.329-1.708a2.098 2.098 0 00-.958-.992c-.419-.22-.936-.329-1.552-.329h-1.183v6.128h.981c1.02 0 1.781-.259 2.285-.779.504-.519.756-1.292.756-2.32zm8.701 4.259l-.826-2.343h-3.226l-.825 2.343h-1.46l3.14-8.471h1.535l3.133 8.471h-1.471zm-1.183-3.531l-.803-2.309c-.03-.1-.075-.24-.132-.421a53.606 53.606 0 01-.173-.56l-.145-.485a10.75 10.75 0 01-.144.531c-.054.193-.108.373-.162.543l-.115.392-.808 2.309h2.482zm9.115 3.531h-5.713v-1.021l2.187-2.216c.423-.431.772-.802 1.045-1.114.273-.315.475-.614.606-.894.134-.281.202-.587.202-.918 0-.408-.118-.716-.352-.923-.235-.212-.545-.318-.929-.318-.366 0-.704.073-1.016.219a4.766 4.766 0 00-.958.612l-.745-.894c.235-.2.485-.383.751-.549.269-.165.569-.296.9-.392.331-.1.708-.15 1.131-.15.535 0 .997.096 1.385.289.389.188.687.452.895.79.211.339.317.733.317 1.183 0 .454-.09.874-.271 1.258a4.828 4.828 0 01-.774 1.143c-.334.373-.732.779-1.194 1.218l-1.46 1.425v.064h3.993v1.188zm5.25 0h-1.362v-5.43a32.766 32.766 0 01.017-1.074c.008-.173.017-.338.029-.496a3.703 3.703 0 01-.3.289c-.116.104-.239.211-.37.323l-.969.773-.681-.86 2.504-1.962h1.132v8.437zm8.7 0h-5.714v-1.021l2.188-2.216a27.44 27.44 0 001.044-1.114c.273-.315.475-.614.606-.894.135-.281.202-.587.202-.918 0-.408-.117-.716-.352-.923-.235-.212-.544-.318-.929-.318-.365 0-.704.073-1.016.219a4.794 4.794 0 00-.958.612l-.744-.894c.235-.2.485-.383.75-.549a3.68 3.68 0 01.9-.392c.331-.1.708-.15 1.132-.15.534 0 .996.096 1.385.289.388.188.686.452.894.79.212.339.317.733.317 1.183 0 .454-.09.874-.271 1.258a4.822 4.822 0 01-.773 1.143c-.335.373-.733.779-1.195 1.218l-1.46 1.425v.064h3.994v1.188zm5.434-7.381c-.404 0-.766.073-1.085.22a2.169 2.169 0 00-.802.634c-.22.274-.387.606-.503.999a4.63 4.63 0 00-.173 1.316c0 .654.093 1.217.277 1.691.185.469.466.831.843 1.084.377.251.854.376 1.431.376.358 0 .706-.035 1.045-.104a9.6 9.6 0 001.05-.283v1.177a5.383 5.383 0 01-1.039.295c-.35.061-.754.092-1.212.092-.862 0-1.577-.179-2.147-.537a3.28 3.28 0 01-1.269-1.512c-.277-.65-.416-1.412-.416-2.285 0-.639.089-1.224.266-1.755.177-.531.435-.988.773-1.373a3.354 3.354 0 011.252-.895c.501-.211 1.072-.317 1.714-.317.424 0 .839.048 1.247.144.412.093.793.225 1.143.398l-.485 1.143a7.166 7.166 0 00-.918-.358c-.319-.1-.65-.15-.992-.15z" fill="#fff"/><path fill="#DF4EB2" d="M806.698 72.687H987v120.2H806.698z"/><path d="M828.353 95.44l-1.061-3.012h-4.148l-1.061 3.012h-1.877l4.036-10.892h1.974l4.029 10.892h-1.892zm-1.521-4.54l-1.031-2.969a92.35 92.35 0 00-.171-.541l-.223-.72a97.555 97.555 0 01-.185-.623c-.05.203-.112.43-.186.682-.069.248-.138.48-.207.698l-.149.504-1.039 2.968h3.191zm6.544 4.54l-3.124-8.213h1.848l1.692 4.822c.109.307.208.639.297.995s.15.655.185.898h.059a6.94 6.94 0 01.201-.906c.099-.356.2-.685.304-.987l1.692-4.822h1.84l-3.124 8.213h-1.87zm13.512-4.125c0 .683-.089 1.288-.267 1.818-.178.53-.438.977-.779 1.343a3.439 3.439 0 01-1.232.83c-.48.189-1.021.283-1.625.283a4.14 4.14 0 01-1.551-.282 3.533 3.533 0 01-1.224-.831 3.814 3.814 0 01-.794-1.343c-.188-.53-.282-1.135-.282-1.818 0-.905.156-1.672.468-2.3a3.323 3.323 0 011.35-1.447c.584-.332 1.279-.497 2.085-.497.757 0 1.425.165 2.003.497a3.43 3.43 0 011.358 1.447c.327.633.49 1.4.49 2.3zm-5.958 0c0 .599.071 1.11.215 1.536.148.425.376.752.683.98.306.222.702.333 1.187.333.485 0 .88-.111 1.187-.334.307-.227.532-.554.675-.98.144-.425.215-.936.215-1.535 0-.599-.071-1.106-.215-1.521-.143-.42-.368-.74-.675-.957-.307-.223-.705-.334-1.195-.334-.722 0-1.249.242-1.58.727-.332.485-.497 1.18-.497 2.085zm9.705-4.088v8.213h-1.744v-8.213h1.744zm-.861-3.147c.267 0 .497.072.69.216.198.143.297.39.297.742 0 .346-.099.593-.297.742a1.125 1.125 0 01-.69.215c-.277 0-.512-.072-.705-.215-.188-.149-.282-.396-.282-.742 0-.352.094-.599.282-.742.193-.144.428-.216.705-.216zm6.122 11.509c-.98 0-1.766-.356-2.36-1.069-.588-.717-.883-1.773-.883-3.168 0-1.41.299-2.476.898-3.198.604-.722 1.397-1.083 2.382-1.083.415 0 .779.057 1.091.17.311.11.578.258.801.446.227.188.42.398.579.63h.081a20.88 20.88 0 01-.089-.66 8.229 8.229 0 01-.044-.809v-2.953h1.751V95.44h-1.365l-.312-1.12h-.074a2.624 2.624 0 01-1.366 1.098c-.306.114-.67.17-1.09.17zm.489-1.417c.747 0 1.274-.216 1.581-.646.307-.43.465-1.076.475-1.936v-.23c0-.92-.149-1.626-.445-2.115-.297-.495-.839-.742-1.625-.742-.629 0-1.108.254-1.44.764-.326.505-.49 1.21-.49 2.115 0 .905.164 1.597.49 2.077.332.475.816.713 1.454.713zm9.439-7.101c1.038 0 1.822.23 2.352.69.534.46.801 1.177.801 2.152v5.527h-1.239l-.334-1.165h-.059a4.269 4.269 0 01-.72.735 2.507 2.507 0 01-.861.43c-.321.1-.715.149-1.18.149a3.1 3.1 0 01-1.313-.267 2.09 2.09 0 01-.913-.831c-.222-.371-.333-.841-.333-1.41 0-.846.314-1.482.942-1.907.633-.425 1.588-.66 2.864-.705l1.425-.052v-.43c0-.57-.134-.975-.401-1.217-.262-.242-.633-.364-1.113-.364-.411 0-.809.06-1.195.178a8.406 8.406 0 00-1.127.438l-.564-1.232c.4-.212.855-.385 1.365-.519a6.35 6.35 0 011.603-.2zm1.424 4.444l-1.061.037c-.87.03-1.481.178-1.833.446-.351.267-.526.633-.526 1.098 0 .405.121.702.363.89.243.183.562.275.957.275.604 0 1.103-.171 1.499-.512.401-.347.601-.854.601-1.521v-.713zm8.451-4.444c.925 0 1.645.24 2.16.72.519.474.779 1.239.779 2.292v5.357h-1.744v-5.03c0-.638-.131-1.116-.393-1.432-.262-.322-.668-.483-1.217-.483-.796 0-1.35.245-1.662.735-.307.49-.46 1.2-.46 2.13v4.08h-1.744v-8.213h1.358l.245 1.112h.096c.178-.286.399-.521.661-.704.267-.188.564-.33.89-.423a3.763 3.763 0 011.031-.141zm8.689 8.518c-.776 0-1.449-.151-2.018-.453-.569-.302-1.007-.764-1.313-1.387-.307-.624-.46-1.415-.46-2.375 0-.999.168-1.815.504-2.448.337-.633.802-1.1 1.395-1.403.599-.301 1.284-.452 2.055-.452.49 0 .933.05 1.329.148.4.094.739.21 1.016.349l-.519 1.395a7.574 7.574 0 00-.928-.312 3.55 3.55 0 00-.912-.126c-.48 0-.881.106-1.202.32-.317.212-.554.528-.713.949-.153.42-.23.942-.23 1.565 0 .604.079 1.113.238 1.529.158.41.393.722.705.935.311.208.695.312 1.15.312.45 0 .853-.055 1.209-.164a5.35 5.35 0 001.009-.423v1.514c-.311.178-.645.31-1.002.393-.356.09-.793.134-1.313.134zm7.517-8.518c.732 0 1.36.15 1.884.452.525.302.928.73 1.21 1.284.282.554.423 1.217.423 1.989v.934h-5.484c.02.797.233 1.41.638 1.84.411.43.985.646 1.722.646.524 0 .994-.05 1.41-.148a7.83 7.83 0 001.298-.453v1.417a5.673 5.673 0 01-1.254.423c-.425.09-.935.134-1.528.134-.807 0-1.517-.156-2.13-.468a3.42 3.42 0 01-1.432-1.41c-.341-.623-.512-1.397-.512-2.322 0-.92.156-1.701.468-2.345.311-.643.749-1.132 1.313-1.469.564-.336 1.222-.504 1.974-.504zm0 1.313c-.55 0-.995.178-1.336.534-.336.356-.534.878-.594 1.566h3.74a2.869 2.869 0 00-.208-1.09 1.578 1.578 0 00-.593-.743c-.263-.178-.599-.267-1.009-.267zm16.457 7.056h-7.798v-1.224l5.52-8.11h-5.35v-1.513h7.48v1.216l-5.521 8.118h5.669v1.513zm9-4.125c0 .683-.089 1.288-.267 1.818-.178.53-.438.977-.779 1.343a3.43 3.43 0 01-1.232.83c-.479.189-1.021.283-1.625.283-.564 0-1.08-.094-1.55-.282a3.546 3.546 0 01-1.225-.831 3.814 3.814 0 01-.794-1.343c-.188-.53-.282-1.135-.282-1.818 0-.905.156-1.672.468-2.3a3.329 3.329 0 011.35-1.447c.584-.332 1.279-.497 2.085-.497.757 0 1.425.165 2.004.497.578.331 1.031.814 1.358 1.447.326.633.489 1.4.489 2.3zm-5.958 0c0 .599.072 1.11.215 1.536.149.425.376.752.683.98.307.222.702.333 1.187.333.485 0 .881-.111 1.187-.334.307-.227.532-.554.675-.98.144-.425.216-.936.216-1.535 0-.599-.072-1.106-.216-1.521-.143-.42-.368-.74-.675-.957-.306-.223-.705-.334-1.194-.334-.723 0-1.249.242-1.581.727-.331.485-.497 1.18-.497 2.085zm12.243-4.244c.925 0 1.645.24 2.159.72.52.474.779 1.239.779 2.292v5.357h-1.743v-5.03c0-.638-.132-1.116-.394-1.432-.262-.322-.668-.483-1.217-.483-.796 0-1.35.245-1.662.735-.306.49-.46 1.2-.46 2.13v4.08h-1.743v-8.213h1.357l.245 1.112h.097c.178-.286.398-.521.66-.704.267-.188.564-.33.891-.423a3.757 3.757 0 011.031-.141zm8.652 0c.732 0 1.36.15 1.884.452.525.302.928.73 1.21 1.284.282.554.423 1.217.423 1.989v.934h-5.484c.02.797.233 1.41.638 1.84.411.43.985.646 1.722.646.524 0 .994-.05 1.41-.148a7.83 7.83 0 001.298-.453v1.417a5.673 5.673 0 01-1.254.423c-.425.09-.935.134-1.528.134-.807 0-1.517-.156-2.13-.468a3.42 3.42 0 01-1.432-1.41c-.341-.623-.512-1.397-.512-2.322 0-.92.156-1.701.468-2.345.311-.643.749-1.132 1.313-1.469.564-.336 1.222-.504 1.974-.504zm0 1.313c-.55 0-.995.178-1.336.534-.336.356-.534.878-.594 1.566h3.74a2.869 2.869 0 00-.208-1.09 1.578 1.578 0 00-.593-.743c-.263-.178-.599-.267-1.009-.267zM828.164 163.553c0 .95-.177 1.745-.531 2.383a3.399 3.399 0 01-1.541 1.437c-.673.32-1.485.479-2.435.479h-2.343v-8.437h2.597c.873 0 1.627.158 2.262.473a3.344 3.344 0 011.472 1.391c.346.612.519 1.37.519 2.274zm-1.443.04c0-.692-.109-1.262-.329-1.708a2.098 2.098 0 00-.958-.992c-.419-.22-.936-.329-1.552-.329h-1.183v6.128h.981c1.02 0 1.781-.259 2.285-.779.504-.519.756-1.292.756-2.32zm4.846 4.259h-1.374v-8.437h4.767v1.166h-3.393v2.632h3.174v1.16h-3.174v3.479zM842.148 166h-1.142v1.852h-1.339V166h-3.838v-1.027l3.855-5.581h1.322v5.483h1.142V166zm-2.481-1.125v-2.095c0-.173.002-.348.005-.525a130.548 130.548 0 01.047-.976l.017-.352h-.046a8.542 8.542 0 01-.243.473 6.78 6.78 0 01-.282.462l-2.078 3.013h2.58zm8.792 2.977h-4.778v-8.437h4.778v1.166h-3.393v2.291h3.18v1.16h-3.18v2.649h3.393v1.171zm2.035-8.437h2.51c1.089 0 1.911.158 2.465.473.554.316.831.86.831 1.634 0 .323-.058.615-.173.877a1.621 1.621 0 01-.491.64 1.82 1.82 0 01-.796.335v.058c.327.058.617.159.871.306.258.146.46.356.606.629.15.273.225.627.225 1.062 0 .515-.123.954-.369 1.315-.243.362-.591.637-1.045.826-.45.188-.985.282-1.604.282h-3.03v-8.437zm1.385 3.48h1.327c.628 0 1.062-.102 1.305-.306.242-.204.363-.502.363-.894 0-.4-.144-.689-.433-.866-.284-.177-.738-.265-1.362-.265h-1.2v2.331zm0 1.12v2.677h1.46c.646 0 1.1-.125 1.362-.375s.393-.588.393-1.015c0-.262-.06-.489-.179-.681-.116-.193-.306-.341-.572-.445-.265-.107-.623-.161-1.073-.161h-1.391zm11.753 3.837h-5.713v-1.021l2.187-2.216c.423-.431.771-.802 1.045-1.114.273-.315.475-.614.606-.894.134-.281.202-.587.202-.918 0-.408-.118-.716-.352-.923-.235-.212-.545-.318-.93-.318a2.36 2.36 0 00-1.015.219 4.766 4.766 0 00-.958.612l-.745-.894c.235-.2.485-.383.751-.549.269-.165.569-.296.9-.392.331-.1.708-.15 1.131-.15.535 0 .996.096 1.385.289.389.188.687.452.894.79.212.339.318.733.318 1.183 0 .454-.091.874-.271 1.258a4.828 4.828 0 01-.774 1.143c-.334.373-.733.779-1.194 1.218l-1.46 1.425v.064h3.993v1.188z" fill="#fff"/></svg>