<svg width="552" height="62" viewBox="0 0 552 62" fill="none" xmlns="http://www.w3.org/2000/svg">
<g clip-path="url(#clip0_7345_86943)">
<rect width="552" height="62" rx="6" fill="#E0E1E9"/>
<path d="M31.0068 31.9971C31.0068 33.766 30.6667 35.2448 29.9863 36.4336C29.3132 37.6152 28.3356 38.5068 27.0537 39.1084C25.7718 39.7028 24.2285 40 22.4238 40H17.9766V24.2949H22.9072C24.5544 24.2949 25.9831 24.5885 27.1934 25.1758C28.4036 25.7559 29.3418 26.6188 30.0078 27.7646C30.6738 28.9033 31.0068 30.3141 31.0068 31.9971ZM27.5479 32.083C27.5479 30.9229 27.376 29.9704 27.0322 29.2256C26.6956 28.4736 26.1943 27.9186 25.5283 27.5605C24.8695 27.2025 24.0531 27.0234 23.0791 27.0234H21.3066V37.25H22.7354C24.361 37.25 25.5677 36.8167 26.3555 35.9502C27.1504 35.0837 27.5479 33.7946 27.5479 32.083ZM39.1061 27.7646C40.2161 27.7646 41.1721 27.9795 41.9742 28.4092C42.7763 28.8317 43.3958 29.4476 43.8326 30.2568C44.2695 31.0661 44.4879 32.0544 44.4879 33.2217V34.8115H36.7428C36.7786 35.7354 37.0543 36.4622 37.5699 36.9922C38.0927 37.515 38.816 37.7764 39.7398 37.7764C40.5061 37.7764 41.2079 37.6976 41.8453 37.54C42.4827 37.3825 43.138 37.1462 43.8111 36.8311V39.3662C43.2167 39.6598 42.5937 39.8747 41.942 40.0107C41.2975 40.1468 40.5133 40.2148 39.5895 40.2148C38.3863 40.2148 37.3193 39.9928 36.3883 39.5488C35.4645 39.1048 34.7376 38.4281 34.2076 37.5186C33.6848 36.609 33.4234 35.4632 33.4234 34.0811C33.4234 32.6774 33.6598 31.5101 34.1324 30.5791C34.6122 29.641 35.2783 28.9391 36.1305 28.4736C36.9827 28.001 37.9745 27.7646 39.1061 27.7646ZM39.1275 30.0957C38.4902 30.0957 37.9602 30.2998 37.5377 30.708C37.1223 31.1162 36.8824 31.7572 36.818 32.6309H41.4156C41.4085 32.1439 41.3189 31.7106 41.1471 31.3311C40.9824 30.9515 40.7317 30.6507 40.3951 30.4287C40.0657 30.2067 39.6432 30.0957 39.1275 30.0957ZM53.9406 30.4502H51.1047V40H47.8283V30.4502H46.0236V28.8711L47.8283 27.9902V27.1094C47.8283 26.0853 48.0002 25.2904 48.3439 24.7246C48.6949 24.1517 49.1854 23.7507 49.8156 23.5215C50.453 23.2852 51.2049 23.167 52.0715 23.167C52.7089 23.167 53.2889 23.2207 53.8117 23.3281C54.3345 23.4284 54.7606 23.543 55.09 23.6719L54.2521 26.0781C54.0015 25.9993 53.7294 25.9277 53.4357 25.8633C53.1421 25.7988 52.8055 25.7666 52.426 25.7666C51.9676 25.7666 51.6311 25.9062 51.4162 26.1855C51.2085 26.4577 51.1047 26.8086 51.1047 27.2383V27.9902H53.9406V30.4502ZM60.9012 27.7432C62.5125 27.7432 63.7479 28.0941 64.6072 28.7959C65.4666 29.4977 65.8963 30.5648 65.8963 31.9971V40H63.6082L62.9744 38.3672H62.8885C62.5447 38.7969 62.1938 39.1478 61.8357 39.4199C61.4777 39.6921 61.0659 39.8926 60.6004 40.0215C60.1349 40.1504 59.5691 40.2148 58.9031 40.2148C58.1941 40.2148 57.5568 40.0788 56.991 39.8066C56.4324 39.5345 55.992 39.1191 55.6697 38.5605C55.3475 37.9948 55.1863 37.2786 55.1863 36.4121C55.1863 35.1374 55.6339 34.1992 56.5291 33.5977C57.4243 32.9889 58.7671 32.6523 60.5574 32.5879L62.6414 32.5234V31.9971C62.6414 31.3669 62.4767 30.9049 62.1473 30.6113C61.8178 30.3177 61.3595 30.1709 60.7723 30.1709C60.1922 30.1709 59.6229 30.2533 59.0643 30.418C58.5057 30.5827 57.9471 30.7904 57.3885 31.041L56.3035 28.8281C56.9409 28.4915 57.6535 28.2266 58.4412 28.0332C59.2361 27.8398 60.0561 27.7432 60.9012 27.7432ZM62.6414 34.4355L61.3738 34.4785C60.3139 34.5072 59.5763 34.6969 59.1609 35.0479C58.7527 35.3988 58.5486 35.8607 58.5486 36.4336C58.5486 36.9349 58.6954 37.293 58.9891 37.5078C59.2827 37.7155 59.6658 37.8193 60.1385 37.8193C60.8403 37.8193 61.4311 37.6117 61.9109 37.1963C62.3979 36.7809 62.6414 36.1901 62.6414 35.4238V34.4355ZM80.4516 27.9902V40H77.9379L77.4975 38.4639H77.3256C77.0678 38.8721 76.7455 39.2051 76.3588 39.4629C75.9721 39.7207 75.546 39.9105 75.0805 40.0322C74.615 40.154 74.1316 40.2148 73.6303 40.2148C72.7709 40.2148 72.0225 40.0645 71.3852 39.7637C70.7478 39.4557 70.2501 38.9795 69.892 38.335C69.5411 37.6904 69.3656 36.8525 69.3656 35.8213V27.9902H72.642V35.0049C72.642 35.8643 72.796 36.5124 73.1039 36.9492C73.4118 37.3861 73.9024 37.6045 74.5756 37.6045C75.2416 37.6045 75.7644 37.4541 76.1439 37.1533C76.5235 36.8454 76.7885 36.3978 76.9389 35.8105C77.0964 35.2161 77.1752 34.4928 77.1752 33.6406V27.9902H80.4516ZM87.3154 40H84.0391V23.2852H87.3154V40ZM95.9732 37.6045C96.3313 37.6045 96.6786 37.5687 97.0152 37.4971C97.359 37.4255 97.6992 37.3359 98.0357 37.2285V39.667C97.6848 39.8245 97.248 39.9535 96.7252 40.0537C96.2096 40.1611 95.6438 40.2148 95.0279 40.2148C94.3118 40.2148 93.6673 40.1003 93.0943 39.8711C92.5286 39.6348 92.081 39.2301 91.7516 38.6572C91.4293 38.0771 91.2682 37.2715 91.2682 36.2402V30.4502H89.6998V29.0645L91.5045 27.9688L92.4498 25.4336H94.5445V27.9902H97.9068V30.4502H94.5445V36.2402C94.5445 36.6986 94.6734 37.0423 94.9313 37.2715C95.1962 37.4935 95.5436 37.6045 95.9732 37.6045ZM106.251 34.4219V32.6875H112.063V34.4219H106.251ZM132.062 39.9766L129.777 32.5C129.676 32.1797 129.578 31.8672 129.484 31.5625C129.398 31.25 129.316 30.9531 129.238 30.6719C129.168 30.3828 129.102 30.1172 129.039 29.875C128.984 29.625 128.938 29.4102 128.898 29.2305H128.816C128.785 29.4102 128.742 29.625 128.688 29.875C128.633 30.1172 128.566 30.3828 128.488 30.6719C128.418 30.9609 128.34 31.2656 128.254 31.5859C128.168 31.8984 128.07 32.2148 127.961 32.5352L125.57 39.9766H123.379L119.84 27.1328H121.855L123.707 34.2227C123.832 34.6914 123.949 35.1562 124.059 35.6172C124.176 36.0703 124.273 36.5 124.352 36.9062C124.438 37.3047 124.5 37.6523 124.539 37.9492H124.633C124.68 37.7539 124.73 37.5195 124.785 37.2461C124.848 36.9727 124.914 36.6836 124.984 36.3789C125.062 36.0664 125.145 35.7578 125.23 35.4531C125.316 35.1406 125.402 34.8477 125.488 34.5742L127.855 27.1328H129.953L132.238 34.5625C132.355 34.9375 132.469 35.3281 132.578 35.7344C132.695 36.1406 132.801 36.5352 132.895 36.918C132.988 37.293 133.055 37.6289 133.094 37.9258H133.188C133.219 37.6602 133.277 37.332 133.363 36.9414C133.449 36.5508 133.547 36.1211 133.656 35.6523C133.773 35.1836 133.895 34.707 134.02 34.2227L135.895 27.1328H137.875L134.324 39.9766H132.062ZM146.205 26.9219C146.463 26.9219 146.732 26.9375 147.013 26.9688C147.295 26.9922 147.545 27.0273 147.763 27.0742L147.517 28.8789C147.306 28.8242 147.072 28.7812 146.814 28.75C146.556 28.7188 146.314 28.7031 146.088 28.7031C145.572 28.7031 145.084 28.8086 144.623 29.0195C144.17 29.2227 143.771 29.5195 143.427 29.9102C143.084 30.293 142.814 30.7578 142.619 31.3047C142.423 31.8438 142.326 32.4453 142.326 33.1094V40H140.369V27.1562H141.986L142.197 29.5234H142.279C142.545 29.0469 142.865 28.6133 143.24 28.2227C143.615 27.8242 144.048 27.5078 144.541 27.2734C145.041 27.0391 145.595 26.9219 146.205 26.9219ZM152.284 27.1562V40H150.339V27.1562H152.284ZM151.335 22.3516C151.655 22.3516 151.929 22.457 152.155 22.668C152.39 22.8711 152.507 23.1914 152.507 23.6289C152.507 24.0586 152.39 24.3789 152.155 24.5898C151.929 24.8008 151.655 24.9062 151.335 24.9062C150.999 24.9062 150.718 24.8008 150.491 24.5898C150.273 24.3789 150.163 24.0586 150.163 23.6289C150.163 23.1914 150.273 22.8711 150.491 22.668C150.718 22.457 150.999 22.3516 151.335 22.3516ZM160.708 38.6406C161.028 38.6406 161.356 38.6133 161.692 38.5586C162.028 38.5039 162.302 38.4375 162.512 38.3594V39.8711C162.286 39.9727 161.97 40.0586 161.563 40.1289C161.165 40.1992 160.774 40.2344 160.391 40.2344C159.712 40.2344 159.095 40.1172 158.54 39.8828C157.985 39.6406 157.54 39.2344 157.204 38.6641C156.876 38.0938 156.712 37.3047 156.712 36.2969V28.6797H154.884V27.7305L156.723 26.9688L157.497 24.1797H158.669V27.1562H162.43V28.6797H158.669V36.2383C158.669 37.043 158.852 37.6445 159.22 38.043C159.595 38.4414 160.091 38.6406 160.708 38.6406ZM170.209 26.9219C171.303 26.9219 172.241 27.1641 173.022 27.6484C173.803 28.1328 174.401 28.8125 174.815 29.6875C175.229 30.5547 175.436 31.5703 175.436 32.7344V33.9414H166.565C166.588 35.4492 166.963 36.5977 167.69 37.3867C168.416 38.1758 169.44 38.5703 170.76 38.5703C171.573 38.5703 172.291 38.4961 172.916 38.3477C173.541 38.1992 174.19 37.9805 174.862 37.6914V39.4023C174.213 39.6914 173.569 39.9023 172.928 40.0352C172.295 40.168 171.545 40.2344 170.678 40.2344C169.444 40.2344 168.366 39.9844 167.444 39.4844C166.53 38.9766 165.819 38.2344 165.311 37.2578C164.803 36.2812 164.549 35.0859 164.549 33.6719C164.549 32.2891 164.78 31.0938 165.241 30.0859C165.709 29.0703 166.366 28.2891 167.209 27.7422C168.061 27.1953 169.061 26.9219 170.209 26.9219ZM170.186 28.5156C169.147 28.5156 168.319 28.8555 167.702 29.5352C167.084 30.2148 166.717 31.1641 166.6 32.3828H173.397C173.389 31.6172 173.268 30.9453 173.034 30.3672C172.807 29.7812 172.459 29.3281 171.991 29.0078C171.522 28.6797 170.92 28.5156 170.186 28.5156ZM193.584 36.4844C193.584 37.3047 193.377 37.9961 192.962 38.5586C192.556 39.1133 191.97 39.5312 191.205 39.8125C190.447 40.0938 189.541 40.2344 188.486 40.2344C187.587 40.2344 186.81 40.1641 186.154 40.0234C185.498 39.8828 184.923 39.6836 184.431 39.4258V37.6328C184.955 37.8906 185.58 38.125 186.306 38.3359C187.033 38.5469 187.775 38.6523 188.533 38.6523C189.642 38.6523 190.447 38.4727 190.947 38.1133C191.447 37.7539 191.697 37.2656 191.697 36.6484C191.697 36.2969 191.595 35.9883 191.392 35.7227C191.197 35.4492 190.865 35.1875 190.396 34.9375C189.927 34.6797 189.279 34.3984 188.451 34.0938C187.63 33.7812 186.92 33.4727 186.318 33.168C185.724 32.8555 185.263 32.4766 184.935 32.0312C184.615 31.5859 184.455 31.0078 184.455 30.2969C184.455 29.2109 184.892 28.3789 185.767 27.8008C186.65 27.2148 187.806 26.9219 189.236 26.9219C190.009 26.9219 190.732 27 191.404 27.1562C192.084 27.3047 192.716 27.5078 193.302 27.7656L192.646 29.3242C192.115 29.0977 191.548 28.9062 190.947 28.75C190.345 28.5938 189.732 28.5156 189.107 28.5156C188.209 28.5156 187.517 28.6641 187.033 28.9609C186.556 29.2578 186.318 29.6641 186.318 30.1797C186.318 30.5781 186.427 30.9062 186.646 31.1641C186.873 31.4219 187.232 31.6641 187.724 31.8906C188.216 32.1172 188.865 32.3828 189.67 32.6875C190.474 32.9844 191.17 33.293 191.755 33.6133C192.341 33.9258 192.791 34.3086 193.103 34.7617C193.423 35.207 193.584 35.7812 193.584 36.4844ZM207.937 33.5547C207.937 34.6094 207.8 35.5508 207.527 36.3789C207.253 37.207 206.859 37.9062 206.343 38.4766C205.827 39.0469 205.202 39.4844 204.468 39.7891C203.741 40.0859 202.917 40.2344 201.995 40.2344C201.136 40.2344 200.347 40.0859 199.628 39.7891C198.917 39.4844 198.3 39.0469 197.777 38.4766C197.261 37.9062 196.859 37.207 196.57 36.3789C196.288 35.5508 196.148 34.6094 196.148 33.5547C196.148 32.1484 196.386 30.9531 196.863 29.9688C197.339 28.9766 198.019 28.2227 198.902 27.707C199.792 27.1836 200.851 26.9219 202.077 26.9219C203.249 26.9219 204.273 27.1836 205.148 27.707C206.03 28.2305 206.714 28.9883 207.198 29.9805C207.691 30.9648 207.937 32.1562 207.937 33.5547ZM198.163 33.5547C198.163 34.5859 198.3 35.4805 198.573 36.2383C198.847 36.9961 199.269 37.582 199.839 37.9961C200.409 38.4102 201.144 38.6172 202.042 38.6172C202.933 38.6172 203.663 38.4102 204.234 37.9961C204.812 37.582 205.238 36.9961 205.511 36.2383C205.784 35.4805 205.921 34.5859 205.921 33.5547C205.921 32.5312 205.784 31.6484 205.511 30.9062C205.238 30.1562 204.816 29.5781 204.245 29.1719C203.675 28.7656 202.937 28.5625 202.03 28.5625C200.695 28.5625 199.714 29.0039 199.089 29.8867C198.472 30.7695 198.163 31.9922 198.163 33.5547ZM225.395 26.9219C226.809 26.9219 227.876 27.293 228.595 28.0352C229.313 28.7695 229.673 29.9531 229.673 31.5859V40H227.751V31.6797C227.751 30.6406 227.524 29.8633 227.071 29.3477C226.626 28.8242 225.962 28.5625 225.079 28.5625C223.837 28.5625 222.934 28.9219 222.372 29.6406C221.809 30.3594 221.528 31.418 221.528 32.8164V40H219.595V31.6797C219.595 30.9844 219.493 30.4062 219.29 29.9453C219.095 29.4844 218.798 29.1406 218.399 28.9141C218.009 28.6797 217.512 28.5625 216.911 28.5625C216.059 28.5625 215.376 28.7383 214.86 29.0898C214.345 29.4414 213.97 29.9648 213.735 30.6602C213.509 31.3477 213.395 32.1953 213.395 33.2031V40H211.45V27.1562H213.02L213.313 28.9727H213.419C213.677 28.5273 214.001 28.1523 214.391 27.8477C214.782 27.543 215.22 27.3125 215.704 27.1562C216.188 27 216.704 26.9219 217.251 26.9219C218.227 26.9219 219.044 27.1055 219.7 27.4727C220.364 27.832 220.845 28.3828 221.141 29.125H221.247C221.669 28.3828 222.247 27.832 222.981 27.4727C223.716 27.1055 224.52 26.9219 225.395 26.9219ZM238.764 26.9219C239.858 26.9219 240.795 27.1641 241.577 27.6484C242.358 28.1328 242.955 28.8125 243.37 29.6875C243.784 30.5547 243.991 31.5703 243.991 32.7344V33.9414H235.12C235.143 35.4492 235.518 36.5977 236.245 37.3867C236.971 38.1758 237.995 38.5703 239.315 38.5703C240.127 38.5703 240.846 38.4961 241.471 38.3477C242.096 38.1992 242.745 37.9805 243.416 37.6914V39.4023C242.768 39.6914 242.123 39.9023 241.483 40.0352C240.85 40.168 240.1 40.2344 239.233 40.2344C237.998 40.2344 236.92 39.9844 235.998 39.4844C235.084 38.9766 234.373 38.2344 233.866 37.2578C233.358 36.2812 233.104 35.0859 233.104 33.6719C233.104 32.2891 233.334 31.0938 233.795 30.0859C234.264 29.0703 234.92 28.2891 235.764 27.7422C236.616 27.1953 237.616 26.9219 238.764 26.9219ZM238.741 28.5156C237.702 28.5156 236.873 28.8555 236.256 29.5352C235.639 30.2148 235.272 31.1641 235.155 32.3828H241.952C241.944 31.6172 241.823 30.9453 241.588 30.3672C241.362 29.7812 241.014 29.3281 240.545 29.0078C240.077 28.6797 239.475 28.5156 238.741 28.5156ZM264.435 27.1562V40H262.841L262.56 38.1953H262.455C262.189 38.6406 261.845 39.0156 261.423 39.3203C261.002 39.625 260.525 39.8516 259.994 40C259.47 40.1562 258.912 40.2344 258.318 40.2344C257.302 40.2344 256.451 40.0703 255.763 39.7422C255.076 39.4141 254.556 38.9062 254.205 38.2188C253.861 37.5312 253.689 36.6484 253.689 35.5703V27.1562H255.658V35.4297C255.658 36.5 255.9 37.3008 256.384 37.832C256.869 38.3555 257.607 38.6172 258.599 38.6172C259.552 38.6172 260.31 38.4375 260.873 38.0781C261.443 37.7188 261.853 37.1914 262.103 36.4961C262.353 35.793 262.478 34.9336 262.478 33.918V27.1562H264.435ZM277.007 36.4844C277.007 37.3047 276.8 37.9961 276.386 38.5586C275.98 39.1133 275.394 39.5312 274.628 39.8125C273.87 40.0938 272.964 40.2344 271.909 40.2344C271.011 40.2344 270.234 40.1641 269.577 40.0234C268.921 39.8828 268.347 39.6836 267.855 39.4258V37.6328C268.378 37.8906 269.003 38.125 269.73 38.3359C270.456 38.5469 271.198 38.6523 271.956 38.6523C273.066 38.6523 273.87 38.4727 274.37 38.1133C274.87 37.7539 275.12 37.2656 275.12 36.6484C275.12 36.2969 275.019 35.9883 274.816 35.7227C274.62 35.4492 274.288 35.1875 273.82 34.9375C273.351 34.6797 272.702 34.3984 271.874 34.0938C271.054 33.7812 270.343 33.4727 269.741 33.168C269.148 32.8555 268.687 32.4766 268.359 32.0312C268.038 31.5859 267.878 31.0078 267.878 30.2969C267.878 29.2109 268.316 28.3789 269.191 27.8008C270.073 27.2148 271.23 26.9219 272.659 26.9219C273.433 26.9219 274.155 27 274.827 27.1562C275.507 27.3047 276.14 27.5078 276.726 27.7656L276.07 29.3242C275.538 29.0977 274.972 28.9062 274.37 28.75C273.769 28.5938 273.155 28.5156 272.53 28.5156C271.632 28.5156 270.941 28.6641 270.456 28.9609C269.98 29.2578 269.741 29.6641 269.741 30.1797C269.741 30.5781 269.851 30.9062 270.07 31.1641C270.296 31.4219 270.655 31.6641 271.148 31.8906C271.64 32.1172 272.288 32.3828 273.093 32.6875C273.898 32.9844 274.593 33.293 275.179 33.6133C275.765 33.9258 276.214 34.3086 276.527 34.7617C276.847 35.207 277.007 35.7812 277.007 36.4844ZM285.231 26.9219C286.325 26.9219 287.263 27.1641 288.044 27.6484C288.825 28.1328 289.423 28.8125 289.837 29.6875C290.251 30.5547 290.458 31.5703 290.458 32.7344V33.9414H281.587C281.61 35.4492 281.985 36.5977 282.712 37.3867C283.438 38.1758 284.462 38.5703 285.782 38.5703C286.595 38.5703 287.313 38.4961 287.938 38.3477C288.563 38.1992 289.212 37.9805 289.884 37.6914V39.4023C289.235 39.6914 288.591 39.9023 287.95 40.0352C287.317 40.168 286.567 40.2344 285.7 40.2344C284.466 40.2344 283.388 39.9844 282.466 39.4844C281.552 38.9766 280.841 38.2344 280.333 37.2578C279.825 36.2812 279.571 35.0859 279.571 33.6719C279.571 32.2891 279.802 31.0938 280.263 30.0859C280.731 29.0703 281.388 28.2891 282.231 27.7422C283.083 27.1953 284.083 26.9219 285.231 26.9219ZM285.208 28.5156C284.169 28.5156 283.341 28.8555 282.723 29.5352C282.106 30.2148 281.739 31.1641 281.622 32.3828H288.419C288.411 31.6172 288.29 30.9453 288.055 30.3672C287.829 29.7812 287.481 29.3281 287.013 29.0078C286.544 28.6797 285.942 28.5156 285.208 28.5156ZM299.631 28.6797H296.432V40H294.487V28.6797H292.213V27.7422L294.487 27.0977V26.2422C294.487 25.1641 294.647 24.2891 294.967 23.6172C295.288 22.9375 295.752 22.4375 296.362 22.1172C296.971 21.7969 297.713 21.6367 298.588 21.6367C299.08 21.6367 299.53 21.6797 299.936 21.7656C300.35 21.8516 300.713 21.9492 301.026 22.0586L300.522 23.5938C300.256 23.5078 299.955 23.4297 299.62 23.3594C299.291 23.2812 298.955 23.2422 298.612 23.2422C297.87 23.2422 297.319 23.4844 296.959 23.9688C296.608 24.4453 296.432 25.1953 296.432 26.2188V27.1562H299.631V28.6797ZM312.754 27.1562V40H311.16L310.879 38.1953H310.773C310.508 38.6406 310.164 39.0156 309.742 39.3203C309.32 39.625 308.844 39.8516 308.312 40C307.789 40.1562 307.23 40.2344 306.637 40.2344C305.621 40.2344 304.77 40.0703 304.082 39.7422C303.395 39.4141 302.875 38.9062 302.523 38.2188C302.18 37.5312 302.008 36.6484 302.008 35.5703V27.1562H303.977V35.4297C303.977 36.5 304.219 37.3008 304.703 37.832C305.188 38.3555 305.926 38.6172 306.918 38.6172C307.871 38.6172 308.629 38.4375 309.191 38.0781C309.762 37.7188 310.172 37.1914 310.422 36.4961C310.672 35.793 310.797 34.9336 310.797 33.918V27.1562H312.754ZM318.974 40H317.017V21.7656H318.974V40ZM333.77 38.6406C334.091 38.6406 334.419 38.6133 334.755 38.5586C335.091 38.5039 335.364 38.4375 335.575 38.3594V39.8711C335.348 39.9727 335.032 40.0586 334.626 40.1289C334.227 40.1992 333.837 40.2344 333.454 40.2344C332.774 40.2344 332.157 40.1172 331.602 39.8828C331.048 39.6406 330.602 39.2344 330.266 38.6641C329.938 38.0938 329.774 37.3047 329.774 36.2969V28.6797H327.946V27.7305L329.786 26.9688L330.559 24.1797H331.731V27.1562H335.493V28.6797H331.731V36.2383C331.731 37.043 331.915 37.6445 332.282 38.043C332.657 38.4414 333.153 38.6406 333.77 38.6406ZM343.272 26.9219C344.366 26.9219 345.303 27.1641 346.084 27.6484C346.866 28.1328 347.463 28.8125 347.877 29.6875C348.291 30.5547 348.498 31.5703 348.498 32.7344V33.9414H339.627C339.651 35.4492 340.026 36.5977 340.752 37.3867C341.479 38.1758 342.502 38.5703 343.823 38.5703C344.635 38.5703 345.354 38.4961 345.979 38.3477C346.604 38.1992 347.252 37.9805 347.924 37.6914V39.4023C347.276 39.6914 346.631 39.9023 345.991 40.0352C345.358 40.168 344.608 40.2344 343.741 40.2344C342.506 40.2344 341.428 39.9844 340.506 39.4844C339.592 38.9766 338.881 38.2344 338.373 37.2578C337.866 36.2812 337.612 35.0859 337.612 33.6719C337.612 32.2891 337.842 31.0938 338.303 30.0859C338.772 29.0703 339.428 28.2891 340.272 27.7422C341.123 27.1953 342.123 26.9219 343.272 26.9219ZM343.248 28.5156C342.209 28.5156 341.381 28.8555 340.764 29.5352C340.147 30.2148 339.78 31.1641 339.663 32.3828H346.459C346.452 31.6172 346.33 30.9453 346.096 30.3672C345.87 29.7812 345.522 29.3281 345.053 29.0078C344.584 28.6797 343.983 28.5156 343.248 28.5156ZM355.012 33.4258L350.57 27.1562H352.797L356.184 32.1016L359.559 27.1562H361.762L357.32 33.4258L362.008 40H359.781L356.184 34.7617L352.562 40H350.359L355.012 33.4258ZM368.814 38.6406C369.134 38.6406 369.462 38.6133 369.798 38.5586C370.134 38.5039 370.408 38.4375 370.619 38.3594V39.8711C370.392 39.9727 370.076 40.0586 369.67 40.1289C369.271 40.1992 368.88 40.2344 368.498 40.2344C367.818 40.2344 367.201 40.1172 366.646 39.8828C366.091 39.6406 365.646 39.2344 365.31 38.6641C364.982 38.0938 364.818 37.3047 364.818 36.2969V28.6797H362.99V27.7305L364.83 26.9688L365.603 24.1797H366.775V27.1562H370.537V28.6797H366.775V36.2383C366.775 37.043 366.959 37.6445 367.326 38.043C367.701 38.4414 368.197 38.6406 368.814 38.6406Z" fill="#252A2E"/>
</g>
<defs>
<clipPath id="clip0_7345_86943">
<rect width="552" height="62" rx="6" fill="white"/>
</clipPath>
</defs>
</svg>
