<svg width="552" height="64" viewBox="0 0 552 64" fill="none" xmlns="http://www.w3.org/2000/svg">
<g clip-path="url(#clip0_7345_86940)">
<rect width="552" height="64" rx="6" fill="#DCEDF9"/>
<path d="M18.771 32C18.771 34.03 19.152 36.0401 19.8922 37.9156C20.6324 39.7911 21.7173 41.4952 23.0851 42.9307C24.4528 44.3661 26.0765 45.5047 27.8636 46.2816C29.6506 47.0585 31.5659 47.4583 33.5002 47.4583C35.4344 47.4583 37.3497 47.0585 39.1368 46.2816C40.9238 45.5047 42.5475 44.3661 43.9153 42.9307C45.283 41.4952 46.3679 39.7911 47.1081 37.9156C47.8483 36.0401 48.2293 34.03 48.2293 32C48.2293 29.9699 47.8483 27.9598 47.1081 26.0843C46.3679 24.2088 45.283 22.5047 43.9153 21.0693C42.5475 19.6338 40.9238 18.4952 39.1368 17.7183C37.3497 16.9415 35.4344 16.5416 33.5002 16.5416C31.5659 16.5416 29.6506 16.9415 27.8636 17.7183C26.0765 18.4952 24.4528 19.6338 23.0851 21.0693C21.7173 22.5047 20.6324 24.2088 19.8922 26.0843C19.152 27.9598 18.771 29.9699 18.771 32V32Z" fill="#019AEB"/>
<path d="M33.5 17.8542C41.3021 17.8542 47.6458 24.1979 47.6458 32C47.6458 39.8021 41.3021 46.1458 33.5 46.1458C25.6979 46.1458 19.3542 39.8021 19.3542 32C19.3542 24.1979 25.6979 17.8542 33.5 17.8542ZM33.5 15.375C24.3125 15.375 16.875 22.8125 16.875 32C16.875 41.1875 24.3125 48.625 33.5 48.625C42.6875 48.625 50.125 41.1875 50.125 32C50.125 22.8125 42.6875 15.375 33.5 15.375Z" fill="#0E416C"/>
<path d="M35.104 36.8855H36.2707V39.073H30.729V36.8855H32.4061V31.7813H30.729V29.5209H35.104V36.8855V36.8855ZM32.2603 28.1355H35.104V24.9271H32.2603V28.1355Z" fill="white"/>
<path d="M73.9717 41H72.1348V26.9062H67.1934V25.2949H78.8916V26.9062H73.9717V41ZM83.0303 29.2266V41H81.2471V29.2266H83.0303ZM82.1602 24.8223C82.4538 24.8223 82.7044 24.9189 82.9121 25.1123C83.127 25.2985 83.2344 25.5921 83.2344 25.9932C83.2344 26.387 83.127 26.6807 82.9121 26.874C82.7044 27.0674 82.4538 27.1641 82.1602 27.1641C81.8522 27.1641 81.5944 27.0674 81.3867 26.874C81.1862 26.6807 81.0859 26.387 81.0859 25.9932C81.0859 25.5921 81.1862 25.2985 81.3867 25.1123C81.5944 24.9189 81.8522 24.8223 82.1602 24.8223ZM92.5938 29.0117C94.0618 29.0117 95.2327 29.5166 96.1064 30.5264C96.9801 31.5361 97.417 33.0544 97.417 35.0811C97.417 36.4202 97.2165 37.5446 96.8154 38.4541C96.4144 39.3636 95.8486 40.0511 95.1182 40.5166C94.3949 40.9821 93.5391 41.2148 92.5508 41.2148C91.9277 41.2148 91.3799 41.1325 90.9072 40.9678C90.4346 40.8031 90.0299 40.5811 89.6934 40.3018C89.3568 40.0225 89.0775 39.7181 88.8555 39.3887H88.7266C88.748 39.668 88.7731 40.0046 88.8018 40.3984C88.8376 40.7923 88.8555 41.1361 88.8555 41.4297V46.2637H87.0615V29.2266H88.5332L88.7695 30.9668H88.8555C89.0846 30.6087 89.3639 30.2829 89.6934 29.9893C90.0228 29.6885 90.4238 29.4521 90.8965 29.2803C91.3763 29.1012 91.9421 29.0117 92.5938 29.0117ZM92.2822 30.5156C91.4658 30.5156 90.807 30.6732 90.3057 30.9883C89.8115 31.3034 89.4499 31.776 89.2207 32.4062C88.9915 33.0293 88.8698 33.8135 88.8555 34.7588V35.1025C88.8555 36.098 88.9629 36.9395 89.1777 37.627C89.3997 38.3145 89.7614 38.8372 90.2627 39.1953C90.7712 39.5534 91.4515 39.7324 92.3037 39.7324C93.0342 39.7324 93.6429 39.5355 94.1299 39.1416C94.6169 38.7477 94.9785 38.1999 95.2148 37.498C95.4583 36.7891 95.5801 35.9762 95.5801 35.0596C95.5801 33.6702 95.3079 32.5674 94.7637 31.751C94.2266 30.9274 93.3994 30.5156 92.2822 30.5156ZM116.898 35.0918C116.898 36.0586 116.773 36.9215 116.522 37.6807C116.272 38.4398 115.91 39.0807 115.438 39.6035C114.965 40.1263 114.392 40.5273 113.719 40.8066C113.053 41.0788 112.297 41.2148 111.452 41.2148C110.664 41.2148 109.941 41.0788 109.282 40.8066C108.631 40.5273 108.065 40.1263 107.585 39.6035C107.112 39.0807 106.743 38.4398 106.479 37.6807C106.221 36.9215 106.092 36.0586 106.092 35.0918C106.092 33.8027 106.31 32.707 106.747 31.8047C107.184 30.8952 107.807 30.2041 108.616 29.7314C109.433 29.2516 110.403 29.0117 111.527 29.0117C112.602 29.0117 113.54 29.2516 114.342 29.7314C115.151 30.2113 115.778 30.9059 116.222 31.8154C116.673 32.7178 116.898 33.8099 116.898 35.0918ZM107.939 35.0918C107.939 36.0371 108.065 36.8571 108.315 37.5518C108.566 38.2464 108.953 38.7835 109.476 39.1631C109.998 39.5426 110.672 39.7324 111.495 39.7324C112.312 39.7324 112.981 39.5426 113.504 39.1631C114.034 38.7835 114.424 38.2464 114.675 37.5518C114.925 36.8571 115.051 36.0371 115.051 35.0918C115.051 34.1536 114.925 33.3444 114.675 32.6641C114.424 31.9766 114.037 31.4466 113.515 31.0742C112.992 30.7018 112.315 30.5156 111.484 30.5156C110.26 30.5156 109.361 30.9202 108.788 31.7295C108.222 32.5387 107.939 33.6595 107.939 35.0918ZM125.581 29.0117C125.817 29.0117 126.064 29.026 126.322 29.0547C126.58 29.0762 126.809 29.1084 127.01 29.1514L126.784 30.8057C126.591 30.7555 126.376 30.7161 126.14 30.6875C125.903 30.6589 125.681 30.6445 125.474 30.6445C125.001 30.6445 124.553 30.7412 124.131 30.9346C123.715 31.1208 123.35 31.3929 123.035 31.751C122.72 32.1019 122.473 32.528 122.294 33.0293C122.115 33.5234 122.025 34.0749 122.025 34.6836V41H120.231V29.2266H121.714L121.907 31.3965H121.982C122.226 30.9596 122.52 30.5622 122.863 30.2041C123.207 29.8389 123.604 29.5488 124.056 29.334C124.514 29.1191 125.022 29.0117 125.581 29.0117ZM135.717 41V25.2949H137.543V41H135.717ZM147.418 29.0117C148.814 29.0117 149.871 29.3555 150.587 30.043C151.303 30.7233 151.661 31.819 151.661 33.3301V41H149.899V33.4482C149.899 32.4671 149.674 31.7331 149.223 31.2461C148.779 30.7591 148.095 30.5156 147.171 30.5156C145.868 30.5156 144.951 30.8844 144.421 31.6221C143.891 32.3597 143.626 33.4303 143.626 34.834V41H141.843V29.2266H143.282L143.551 30.9238H143.647C143.898 30.5085 144.217 30.1611 144.604 29.8818C144.99 29.5954 145.424 29.3805 145.903 29.2373C146.383 29.0869 146.888 29.0117 147.418 29.0117ZM160.827 30.623H157.895V41H156.111V30.623H154.027V29.7637L156.111 29.1729V28.3887C156.111 27.4004 156.258 26.5983 156.552 25.9824C156.845 25.3594 157.271 24.901 157.83 24.6074C158.389 24.3138 159.069 24.167 159.871 24.167C160.322 24.167 160.734 24.2064 161.106 24.2852C161.486 24.3639 161.819 24.4535 162.105 24.5537L161.644 25.9609C161.4 25.8822 161.124 25.8105 160.816 25.7461C160.516 25.6745 160.208 25.6387 159.893 25.6387C159.212 25.6387 158.707 25.8607 158.378 26.3047C158.056 26.7415 157.895 27.429 157.895 28.3672V29.2266H160.827V30.623ZM173.398 35.0918C173.398 36.0586 173.273 36.9215 173.022 37.6807C172.772 38.4398 172.41 39.0807 171.938 39.6035C171.465 40.1263 170.892 40.5273 170.219 40.8066C169.553 41.0788 168.797 41.2148 167.952 41.2148C167.164 41.2148 166.441 41.0788 165.782 40.8066C165.131 40.5273 164.565 40.1263 164.085 39.6035C163.612 39.0807 163.243 38.4398 162.979 37.6807C162.721 36.9215 162.592 36.0586 162.592 35.0918C162.592 33.8027 162.81 32.707 163.247 31.8047C163.684 30.8952 164.307 30.2041 165.116 29.7314C165.933 29.2516 166.903 29.0117 168.027 29.0117C169.102 29.0117 170.04 29.2516 170.842 29.7314C171.651 30.2113 172.278 30.9059 172.722 31.8154C173.173 32.7178 173.398 33.8099 173.398 35.0918ZM164.439 35.0918C164.439 36.0371 164.565 36.8571 164.815 37.5518C165.066 38.2464 165.453 38.7835 165.976 39.1631C166.498 39.5426 167.172 39.7324 167.995 39.7324C168.812 39.7324 169.481 39.5426 170.004 39.1631C170.534 38.7835 170.924 38.2464 171.175 37.5518C171.425 36.8571 171.551 36.0371 171.551 35.0918C171.551 34.1536 171.425 33.3444 171.175 32.6641C170.924 31.9766 170.537 31.4466 170.015 31.0742C169.492 30.7018 168.815 30.5156 167.984 30.5156C166.76 30.5156 165.861 30.9202 165.288 31.7295C164.722 32.5387 164.439 33.6595 164.439 35.0918ZM181.697 35.8867V34.2969H187.025V35.8867H181.697ZM205.583 40.9785L203.488 34.125C203.395 33.8314 203.306 33.5449 203.22 33.2656C203.141 32.9792 203.066 32.707 202.994 32.4492C202.93 32.1842 202.869 31.9408 202.812 31.7188C202.761 31.4896 202.718 31.2926 202.683 31.1279H202.607C202.579 31.2926 202.539 31.4896 202.489 31.7188C202.439 31.9408 202.378 32.1842 202.307 32.4492C202.242 32.7142 202.171 32.9935 202.092 33.2871C202.013 33.5736 201.924 33.8636 201.823 34.1572L199.632 40.9785H197.623L194.379 29.2051H196.227L197.924 35.7041C198.038 36.1338 198.146 36.5599 198.246 36.9824C198.354 37.3978 198.443 37.7917 198.515 38.1641C198.593 38.5293 198.651 38.848 198.687 39.1201H198.772C198.815 38.9411 198.862 38.7262 198.912 38.4756C198.969 38.2249 199.03 37.96 199.095 37.6807C199.166 37.3942 199.242 37.1113 199.32 36.832C199.399 36.5456 199.478 36.277 199.557 36.0264L201.727 29.2051H203.649L205.744 36.0156C205.852 36.3594 205.955 36.7174 206.056 37.0898C206.163 37.4622 206.26 37.8239 206.346 38.1748C206.432 38.5186 206.493 38.8265 206.528 39.0986H206.614C206.643 38.8551 206.697 38.5544 206.775 38.1963C206.854 37.8382 206.944 37.4443 207.044 37.0146C207.151 36.585 207.262 36.1481 207.377 35.7041L209.096 29.2051H210.911L207.656 40.9785H205.583ZM218.659 29.0117C218.896 29.0117 219.143 29.026 219.4 29.0547C219.658 29.0762 219.887 29.1084 220.088 29.1514L219.862 30.8057C219.669 30.7555 219.454 30.7161 219.218 30.6875C218.981 30.6589 218.759 30.6445 218.552 30.6445C218.079 30.6445 217.632 30.7412 217.209 30.9346C216.794 31.1208 216.428 31.3929 216.113 31.751C215.798 32.1019 215.551 32.528 215.372 33.0293C215.193 33.5234 215.104 34.0749 215.104 34.6836V41H213.31V29.2266H214.792L214.985 31.3965H215.061C215.304 30.9596 215.598 30.5622 215.941 30.2041C216.285 29.8389 216.683 29.5488 217.134 29.334C217.592 29.1191 218.101 29.0117 218.659 29.0117ZM224.345 29.2266V41H222.562V29.2266H224.345ZM223.475 24.8223C223.768 24.8223 224.019 24.9189 224.227 25.1123C224.441 25.2985 224.549 25.5921 224.549 25.9932C224.549 26.387 224.441 26.6807 224.227 26.874C224.019 27.0674 223.768 27.1641 223.475 27.1641C223.167 27.1641 222.909 27.0674 222.701 26.874C222.501 26.6807 222.4 26.387 222.4 25.9932C222.4 25.5921 222.501 25.2985 222.701 25.1123C222.909 24.9189 223.167 24.8223 223.475 24.8223ZM232.179 39.7539C232.472 39.7539 232.773 39.7288 233.081 39.6787C233.389 39.6286 233.64 39.5677 233.833 39.4961V40.8818C233.625 40.9749 233.335 41.0537 232.963 41.1182C232.598 41.1826 232.24 41.2148 231.889 41.2148C231.266 41.2148 230.7 41.1074 230.191 40.8926C229.683 40.6706 229.275 40.2982 228.967 39.7754C228.666 39.2526 228.516 38.5293 228.516 37.6055V30.623H226.84V29.7529L228.526 29.0547L229.235 26.498H230.31V29.2266H233.758V30.623H230.31V37.5518C230.31 38.2894 230.478 38.8408 230.814 39.2061C231.158 39.5713 231.613 39.7539 232.179 39.7539ZM241.001 29.0117C242.004 29.0117 242.863 29.2337 243.579 29.6777C244.295 30.1217 244.843 30.7448 245.223 31.5469C245.602 32.3418 245.792 33.2728 245.792 34.3398V35.4463H237.66C237.682 36.8285 238.025 37.8812 238.691 38.6045C239.357 39.3278 240.296 39.6895 241.506 39.6895C242.251 39.6895 242.91 39.6214 243.482 39.4854C244.055 39.3493 244.65 39.1488 245.266 38.8838V40.4521C244.671 40.7171 244.08 40.9105 243.493 41.0322C242.913 41.154 242.226 41.2148 241.431 41.2148C240.299 41.2148 239.311 40.9857 238.466 40.5273C237.628 40.0618 236.976 39.3815 236.511 38.4863C236.045 37.5911 235.812 36.4954 235.812 35.1992C235.812 33.9316 236.024 32.8359 236.446 31.9121C236.876 30.9811 237.478 30.265 238.251 29.7637C239.032 29.2624 239.948 29.0117 241.001 29.0117ZM240.979 30.4727C240.027 30.4727 239.268 30.7842 238.702 31.4072C238.136 32.0303 237.8 32.9004 237.692 34.0176H243.923C243.916 33.3158 243.805 32.6999 243.59 32.1699C243.382 31.6328 243.063 31.2174 242.634 30.9238C242.204 30.623 241.653 30.4727 240.979 30.4727ZM262.652 37.7773C262.652 38.5293 262.463 39.1631 262.083 39.6787C261.711 40.1872 261.174 40.5703 260.472 40.8281C259.777 41.0859 258.946 41.2148 257.979 41.2148C257.156 41.2148 256.443 41.1504 255.842 41.0215C255.24 40.8926 254.714 40.71 254.263 40.4736V38.8301C254.743 39.0664 255.315 39.2812 255.981 39.4746C256.647 39.668 257.328 39.7646 258.022 39.7646C259.039 39.7646 259.777 39.5999 260.235 39.2705C260.694 38.9411 260.923 38.4935 260.923 37.9277C260.923 37.6055 260.83 37.3226 260.644 37.0791C260.465 36.8285 260.16 36.5885 259.73 36.3594C259.301 36.123 258.706 35.8652 257.947 35.5859C257.195 35.2995 256.544 35.0166 255.992 34.7373C255.448 34.4508 255.025 34.1035 254.725 33.6953C254.431 33.2871 254.284 32.7572 254.284 32.1055C254.284 31.11 254.685 30.3473 255.487 29.8174C256.297 29.2803 257.356 29.0117 258.667 29.0117C259.376 29.0117 260.038 29.0833 260.654 29.2266C261.277 29.3626 261.857 29.5488 262.395 29.7852L261.793 31.2139C261.306 31.0062 260.787 30.8307 260.235 30.6875C259.684 30.5443 259.122 30.4727 258.549 30.4727C257.725 30.4727 257.091 30.6087 256.647 30.8809C256.211 31.153 255.992 31.5254 255.992 31.998C255.992 32.3633 256.092 32.6641 256.293 32.9004C256.501 33.1367 256.83 33.3587 257.281 33.5664C257.732 33.7741 258.327 34.0176 259.064 34.2969C259.802 34.569 260.439 34.8519 260.977 35.1455C261.514 35.432 261.925 35.7829 262.212 36.1982C262.506 36.6064 262.652 37.1328 262.652 37.7773ZM275.922 35.0918C275.922 36.0586 275.797 36.9215 275.546 37.6807C275.295 38.4398 274.934 39.0807 274.461 39.6035C273.988 40.1263 273.415 40.5273 272.742 40.8066C272.076 41.0788 271.321 41.2148 270.476 41.2148C269.688 41.2148 268.965 41.0788 268.306 40.8066C267.654 40.5273 267.088 40.1263 266.608 39.6035C266.136 39.0807 265.767 38.4398 265.502 37.6807C265.244 36.9215 265.115 36.0586 265.115 35.0918C265.115 33.8027 265.334 32.707 265.771 31.8047C266.207 30.8952 266.83 30.2041 267.64 29.7314C268.456 29.2516 269.426 29.0117 270.551 29.0117C271.625 29.0117 272.563 29.2516 273.365 29.7314C274.174 30.2113 274.801 30.9059 275.245 31.8154C275.696 32.7178 275.922 33.8099 275.922 35.0918ZM266.963 35.0918C266.963 36.0371 267.088 36.8571 267.339 37.5518C267.59 38.2464 267.976 38.7835 268.499 39.1631C269.022 39.5426 269.695 39.7324 270.519 39.7324C271.335 39.7324 272.005 39.5426 272.527 39.1631C273.057 38.7835 273.448 38.2464 273.698 37.5518C273.949 36.8571 274.074 36.0371 274.074 35.0918C274.074 34.1536 273.949 33.3444 273.698 32.6641C273.448 31.9766 273.061 31.4466 272.538 31.0742C272.015 30.7018 271.339 30.5156 270.508 30.5156C269.283 30.5156 268.384 30.9202 267.812 31.7295C267.246 32.5387 266.963 33.6595 266.963 35.0918ZM292.038 29.0117C293.334 29.0117 294.312 29.3519 294.971 30.0322C295.63 30.7054 295.959 31.7904 295.959 33.2871V41H294.197V33.373C294.197 32.4206 293.99 31.708 293.574 31.2354C293.166 30.7555 292.557 30.5156 291.748 30.5156C290.609 30.5156 289.782 30.8451 289.267 31.5039C288.751 32.1628 288.493 33.1331 288.493 34.415V41H286.721V33.373C286.721 32.7357 286.628 32.2057 286.441 31.7832C286.262 31.3607 285.99 31.0456 285.625 30.8379C285.267 30.623 284.812 30.5156 284.261 30.5156C283.48 30.5156 282.854 30.6768 282.381 30.999C281.908 31.3213 281.564 31.8011 281.35 32.4385C281.142 33.0687 281.038 33.8457 281.038 34.7695V41H279.255V29.2266H280.694L280.963 30.8916H281.06C281.296 30.4834 281.593 30.1396 281.951 29.8604C282.309 29.5811 282.71 29.3698 283.154 29.2266C283.598 29.0833 284.071 29.0117 284.572 29.0117C285.467 29.0117 286.216 29.18 286.817 29.5166C287.426 29.846 287.867 30.3509 288.139 31.0312H288.235C288.622 30.3509 289.152 29.846 289.825 29.5166C290.498 29.18 291.236 29.0117 292.038 29.0117ZM304.405 29.0117C305.408 29.0117 306.267 29.2337 306.983 29.6777C307.7 30.1217 308.247 30.7448 308.627 31.5469C309.007 32.3418 309.196 33.2728 309.196 34.3398V35.4463H301.064C301.086 36.8285 301.43 37.8812 302.096 38.6045C302.762 39.3278 303.7 39.6895 304.91 39.6895C305.655 39.6895 306.314 39.6214 306.887 39.4854C307.46 39.3493 308.054 39.1488 308.67 38.8838V40.4521C308.076 40.7171 307.485 40.9105 306.897 41.0322C306.317 41.154 305.63 41.2148 304.835 41.2148C303.703 41.2148 302.715 40.9857 301.87 40.5273C301.032 40.0618 300.381 39.3815 299.915 38.4863C299.45 37.5911 299.217 36.4954 299.217 35.1992C299.217 33.9316 299.428 32.8359 299.851 31.9121C300.28 30.9811 300.882 30.265 301.655 29.7637C302.436 29.2624 303.353 29.0117 304.405 29.0117ZM304.384 30.4727C303.431 30.4727 302.672 30.7842 302.106 31.4072C301.541 32.0303 301.204 32.9004 301.097 34.0176H307.327C307.32 33.3158 307.209 32.6999 306.994 32.1699C306.786 31.6328 306.468 31.2174 306.038 30.9238C305.608 30.623 305.057 30.4727 304.384 30.4727ZM328.162 29.2266V41H326.701L326.443 39.3457H326.347C326.103 39.7539 325.788 40.0977 325.401 40.377C325.015 40.6562 324.578 40.8639 324.091 41C323.611 41.1432 323.099 41.2148 322.555 41.2148C321.624 41.2148 320.843 41.0645 320.213 40.7637C319.583 40.4629 319.106 39.9974 318.784 39.3672C318.469 38.737 318.312 37.9277 318.312 36.9395V29.2266H320.116V36.8105C320.116 37.7917 320.338 38.5257 320.782 39.0127C321.226 39.4925 321.903 39.7324 322.812 39.7324C323.686 39.7324 324.381 39.5677 324.896 39.2383C325.419 38.9089 325.795 38.4255 326.024 37.7881C326.254 37.1436 326.368 36.3558 326.368 35.4248V29.2266H328.162ZM339.799 37.7773C339.799 38.5293 339.609 39.1631 339.229 39.6787C338.857 40.1872 338.32 40.5703 337.618 40.8281C336.924 41.0859 336.093 41.2148 335.126 41.2148C334.302 41.2148 333.59 41.1504 332.988 41.0215C332.387 40.8926 331.86 40.71 331.409 40.4736V38.8301C331.889 39.0664 332.462 39.2812 333.128 39.4746C333.794 39.668 334.474 39.7646 335.169 39.7646C336.186 39.7646 336.924 39.5999 337.382 39.2705C337.84 38.9411 338.069 38.4935 338.069 37.9277C338.069 37.6055 337.976 37.3226 337.79 37.0791C337.611 36.8285 337.307 36.5885 336.877 36.3594C336.447 36.123 335.853 35.8652 335.094 35.5859C334.342 35.2995 333.69 35.0166 333.139 34.7373C332.594 34.4508 332.172 34.1035 331.871 33.6953C331.577 33.2871 331.431 32.7572 331.431 32.1055C331.431 31.11 331.832 30.3473 332.634 29.8174C333.443 29.2803 334.503 29.0117 335.813 29.0117C336.522 29.0117 337.185 29.0833 337.801 29.2266C338.424 29.3626 339.004 29.5488 339.541 29.7852L338.939 31.2139C338.452 31.0062 337.933 30.8307 337.382 30.6875C336.83 30.5443 336.268 30.4727 335.695 30.4727C334.872 30.4727 334.238 30.6087 333.794 30.8809C333.357 31.153 333.139 31.5254 333.139 31.998C333.139 32.3633 333.239 32.6641 333.439 32.9004C333.647 33.1367 333.977 33.3587 334.428 33.5664C334.879 33.7741 335.473 34.0176 336.211 34.2969C336.949 34.569 337.586 34.8519 338.123 35.1455C338.66 35.432 339.072 35.7829 339.358 36.1982C339.652 36.6064 339.799 37.1328 339.799 37.7773ZM347.45 29.0117C348.453 29.0117 349.312 29.2337 350.028 29.6777C350.744 30.1217 351.292 30.7448 351.672 31.5469C352.051 32.3418 352.241 33.2728 352.241 34.3398V35.4463H344.109C344.131 36.8285 344.475 37.8812 345.141 38.6045C345.807 39.3278 346.745 39.6895 347.955 39.6895C348.7 39.6895 349.359 39.6214 349.932 39.4854C350.505 39.3493 351.099 39.1488 351.715 38.8838V40.4521C351.12 40.7171 350.53 40.9105 349.942 41.0322C349.362 41.154 348.675 41.2148 347.88 41.2148C346.748 41.2148 345.76 40.9857 344.915 40.5273C344.077 40.0618 343.425 39.3815 342.96 38.4863C342.494 37.5911 342.262 36.4954 342.262 35.1992C342.262 33.9316 342.473 32.8359 342.896 31.9121C343.325 30.9811 343.927 30.265 344.7 29.7637C345.481 29.2624 346.397 29.0117 347.45 29.0117ZM347.429 30.4727C346.476 30.4727 345.717 30.7842 345.151 31.4072C344.586 32.0303 344.249 32.9004 344.142 34.0176H350.372C350.365 33.3158 350.254 32.6999 350.039 32.1699C349.831 31.6328 349.513 31.2174 349.083 30.9238C348.653 30.623 348.102 30.4727 347.429 30.4727ZM360.763 30.623H357.83V41H356.047V30.623H353.963V29.7637L356.047 29.1729V28.3887C356.047 27.4004 356.194 26.5983 356.487 25.9824C356.781 25.3594 357.207 24.901 357.766 24.6074C358.324 24.3138 359.005 24.167 359.807 24.167C360.258 24.167 360.67 24.2064 361.042 24.2852C361.422 24.3639 361.755 24.4535 362.041 24.5537L361.579 25.9609C361.336 25.8822 361.06 25.8105 360.752 25.7461C360.451 25.6745 360.143 25.6387 359.828 25.6387C359.148 25.6387 358.643 25.8607 358.313 26.3047C357.991 26.7415 357.83 27.429 357.83 28.3672V29.2266H360.763V30.623ZM372.904 29.2266V41H371.443L371.186 39.3457H371.089C370.845 39.7539 370.53 40.0977 370.144 40.377C369.757 40.6562 369.32 40.8639 368.833 41C368.353 41.1432 367.841 41.2148 367.297 41.2148C366.366 41.2148 365.585 41.0645 364.955 40.7637C364.325 40.4629 363.849 39.9974 363.526 39.3672C363.211 38.737 363.054 37.9277 363.054 36.9395V29.2266H364.858V36.8105C364.858 37.7917 365.08 38.5257 365.524 39.0127C365.968 39.4925 366.645 39.7324 367.555 39.7324C368.428 39.7324 369.123 39.5677 369.639 39.2383C370.161 38.9089 370.537 38.4255 370.767 37.7881C370.996 37.1436 371.11 36.3558 371.11 35.4248V29.2266H372.904ZM378.719 41H376.925V24.2852H378.719V41ZM392.507 39.7539C392.8 39.7539 393.101 39.7288 393.409 39.6787C393.717 39.6286 393.968 39.5677 394.161 39.4961V40.8818C393.953 40.9749 393.663 41.0537 393.291 41.1182C392.926 41.1826 392.568 41.2148 392.217 41.2148C391.594 41.2148 391.028 41.1074 390.52 40.8926C390.011 40.6706 389.603 40.2982 389.295 39.7754C388.994 39.2526 388.844 38.5293 388.844 37.6055V30.623H387.168V29.7529L388.854 29.0547L389.563 26.498H390.638V29.2266H394.086V30.623H390.638V37.5518C390.638 38.2894 390.806 38.8408 391.143 39.2061C391.486 39.5713 391.941 39.7539 392.507 39.7539ZM401.329 29.0117C402.332 29.0117 403.191 29.2337 403.907 29.6777C404.623 30.1217 405.171 30.7448 405.551 31.5469C405.93 32.3418 406.12 33.2728 406.12 34.3398V35.4463H397.988C398.01 36.8285 398.354 37.8812 399.02 38.6045C399.686 39.3278 400.624 39.6895 401.834 39.6895C402.579 39.6895 403.238 39.6214 403.811 39.4854C404.383 39.3493 404.978 39.1488 405.594 38.8838V40.4521C404.999 40.7171 404.409 40.9105 403.821 41.0322C403.241 41.154 402.554 41.2148 401.759 41.2148C400.627 41.2148 399.639 40.9857 398.794 40.5273C397.956 40.0618 397.304 39.3815 396.839 38.4863C396.373 37.5911 396.141 36.4954 396.141 35.1992C396.141 33.9316 396.352 32.8359 396.774 31.9121C397.204 30.9811 397.806 30.265 398.579 29.7637C399.36 29.2624 400.276 29.0117 401.329 29.0117ZM401.308 30.4727C400.355 30.4727 399.596 30.7842 399.03 31.4072C398.465 32.0303 398.128 32.9004 398.021 34.0176H404.251C404.244 33.3158 404.133 32.6999 403.918 32.1699C403.71 31.6328 403.392 31.2174 402.962 30.9238C402.532 30.623 401.981 30.4727 401.308 30.4727ZM412.203 34.9736L408.132 29.2266H410.173L413.277 33.7598L416.371 29.2266H418.391L414.319 34.9736L418.616 41H416.575L413.277 36.1982L409.958 41H407.938L412.203 34.9736ZM424.968 39.7539C425.261 39.7539 425.562 39.7288 425.87 39.6787C426.178 39.6286 426.429 39.5677 426.622 39.4961V40.8818C426.414 40.9749 426.124 41.0537 425.752 41.1182C425.387 41.1826 425.029 41.2148 424.678 41.2148C424.055 41.2148 423.489 41.1074 422.98 40.8926C422.472 40.6706 422.064 40.2982 421.756 39.7754C421.455 39.2526 421.305 38.5293 421.305 37.6055V30.623H419.629V29.7529L421.315 29.0547L422.024 26.498H423.099V29.2266H426.547V30.623H423.099V37.5518C423.099 38.2894 423.267 38.8408 423.604 39.2061C423.947 39.5713 424.402 39.7539 424.968 39.7539Z" fill="#252A2E"/>
</g>
<rect x="0.5" y="0.5" width="551" height="63" rx="5.5" stroke="#217CBB"/>
<defs>
<clipPath id="clip0_7345_86940">
<rect width="552" height="64" rx="6" fill="white"/>
</clipPath>
</defs>
</svg>
