<svg fill="none" height="50" viewBox="0 0 657 50" width="657" xmlns="http://www.w3.org/2000/svg" xmlns:xlink="http://www.w3.org/1999/xlink"><clipPath id="a"><rect height="48" rx="6" width="367" x="193" y="1"/></clipPath><clipPath id="b"><path d="m209 9h31v31h-31z"/></clipPath><path d="m14.8652 19.7777h-1.7871v-8.5664h4.9102v1.4883h-3.1231v2.209h2.9063v1.4824h-2.9063zm10.5394-3.2871c0 .5469-.0743 1.0313-.2227 1.4531-.1445.4219-.3574.7793-.6387 1.0723-.2773.2891-.6132.5078-1.0078.6562-.3906.1485-.832.2227-1.3242.2227-.4609 0-.8848-.0742-1.2715-.2227-.3828-.1484-.7168-.3671-1.0019-.6562-.2813-.293-.5-.6504-.6563-1.0723-.1523-.4218-.2285-.9062-.2285-1.4531 0-.7266.1289-1.3418.3867-1.8457s.625-.8867 1.1016-1.1484c.4765-.2618 1.0449-.3926 1.7051-.3926.6132 0 1.1562.1308 1.6289.3926.4765.2617.8496.6445 1.1191 1.1484.2734.5039.4102 1.1191.4102 1.8457zm-4.5293 0c0 .4297.0468.791.1406 1.084.0937.293.2402.5137.4394.6621.1993.1484.459.2227.7793.2227.3164 0 .5723-.0743.7676-.2227.1992-.1484.3438-.3691.4336-.6621.0938-.293.1406-.6543.1406-1.084 0-.4336-.0468-.793-.1406-1.0781-.0898-.2891-.2344-.5059-.4336-.6504s-.459-.2168-.7793-.2168c-.4726 0-.8164.1621-1.0312.4863-.211.3242-.3164.8106-.3164 1.459zm9.6545-3.3867c.6992 0 1.2617.1914 1.6875.5742.4258.3789.6387.9883.6387 1.8281v4.2715h-1.7871v-3.8262c0-.4687-.0859-.8222-.2578-1.0605-.168-.2383-.4336-.3574-.7969-.3574-.5469 0-.9199.1855-1.1191.5566-.1993.3711-.2989.9063-.2989 1.6055v3.082h-1.7871v-6.5508h1.3653l.2402.8379h.0996c.1406-.2265.3145-.4101.5215-.5508.2109-.1406.4433-.2441.6973-.3105.2578-.0664.5234-.0996.7968-.0996zm6.8538 5.3672c.1953 0 .3848-.0196.5684-.0586.1875-.0391.373-.0879.5566-.1465v1.3301c-.1914.0859-.4297.1562-.7148.2109-.2813.0586-.5899.0879-.9258.0879-.3906 0-.7422-.0625-1.0547-.1875-.3086-.1289-.5527-.3496-.7324-.6621-.1758-.3164-.2637-.7559-.2637-1.3184v-3.1582h-.8555v-.7558l.9844-.5977.5156-1.3828h1.1426v1.3945h1.834v1.3418h-1.834v3.1582c0 .25.0703.4375.211.5625.1445.1211.3339.1817.5683.1817zm1.803-1.1778v-1.4648h3.1465v1.4648zm8.9456.5391c0 .4453-.1055.8223-.3164 1.1309-.2071.3046-.5176.5371-.9317.6972-.414.1563-.9296.2344-1.5468.2344-.4571 0-.8496-.0293-1.1778-.0879-.3242-.0586-.6523-.1562-.9843-.293v-1.4765c.3554.1601.7363.2929 1.1425.3984.4102.1016.7696.1524 1.0782.1524.3476 0 .5957-.0508.7441-.1524.1523-.1055.2285-.2422.2285-.4101 0-.1094-.0312-.2071-.0937-.293-.0586-.0899-.1875-.1895-.3868-.2988-.1992-.1133-.5117-.2598-.9375-.4395-.4101-.1719-.748-.3457-1.0136-.5215-.2617-.1758-.4571-.3828-.586-.6211-.125-.2422-.1875-.5488-.1875-.9199 0-.6055.2344-1.0605.7032-1.3652.4726-.3086 1.1035-.4629 1.8925-.4629.4063 0 .793.041 1.1602.123.3711.0821.7519.2129 1.1426.3926l-.5391 1.2891c-.3242-.1407-.6308-.2559-.9199-.3457-.2852-.0899-.5762-.1348-.8731-.1348-.2617 0-.4589.0352-.5918.1055-.1328.0703-.1992.1777-.1992.3222 0 .1055.0332.1993.0996.2813.0703.082.2032.1738.3985.2754.1992.0976.4902.2246.873.3808.3711.1524.6934.3125.9668.4805.2735.1641.4844.3691.6328.6152.1485.2422.2227.5567.2227.9434zm3.1096-4.6055v6.5508h-1.7871v-6.5508zm-.8906-2.5664c.2656 0 .4941.0625.6856.1875.1914.1211.2871.3496.2871.6856 0 .332-.0957.5625-.2871.6914-.1915.125-.42.1875-.6856.1875-.2695 0-.5-.0625-.6914-.1875-.1875-.1289-.2813-.3594-.2813-.6914 0-.336.0938-.5645.2813-.6856.1914-.125.4219-.1875.6914-.1875zm7.2581 9.1172h-5.1738v-1.0547l3.0351-4.1308h-2.8535v-1.3653h4.8867v1.1602l-2.9531 4.0254h3.0586zm3.9299-6.6738c.6055 0 1.127.1172 1.5645.3515.4375.2305.7754.5665 1.0137 1.0079.2382.4414.3574.9804.3574 1.6171v.8672h-4.2246c.0195.5039.1699.9004.4511 1.1895.2852.2851.6797.4277 1.1836.4277.418 0 .8008-.0429 1.1485-.1289.3476-.0859.7051-.2148 1.0722-.3867v1.3828c-.3242.1602-.664.2774-1.0195.3516-.3516.0742-.7793.1113-1.2832.1113-.6562 0-1.2383-.1211-1.7461-.3633-.5039-.2422-.9004-.6113-1.1894-1.1074-.2852-.4961-.4278-1.1211-.4278-1.875 0-.7656.1289-1.4023.3867-1.9102.2618-.5117.625-.8945 1.0899-1.1484.4648-.2578 1.0058-.3867 1.623-.3867zm.0118 1.2715c-.3477 0-.6368.1113-.8672.334-.2266.2226-.3575.5722-.3926 1.0488h2.5078c-.0039-.2656-.0527-.502-.1465-.709-.0898-.207-.2265-.3711-.4101-.4922-.1797-.1211-.4102-.1816-.6914-.1816zm4.053 4.5644c0-.3672.0996-.625.2988-.7734.2031-.1485.4472-.2227.7324-.2227.2773 0 .5156.0742.7148.2227.2032.1484.3047.4062.3047.7734 0 .3516-.1015.6055-.3047.7617-.1992.1563-.4375.2344-.7148.2344-.2852 0-.5293-.0781-.7324-.2344-.1992-.1562-.2988-.4101-.2988-.7617zm0-4.8398c0-.3672.0996-.625.2988-.7735.2031-.1484.4472-.2226.7324-.2226.2773 0 .5156.0742.7148.2226.2032.1485.3047.4063.3047.7735 0 .3554-.1015.6113-.3047.7676-.1992.1523-.4375.2285-.7148.2285-.2852 0-.5293-.0762-.7324-.2285-.1992-.1563-.2988-.4122-.2988-.7676zm9.9224 5.6777h-.9493v-6.0703c0-.2305 0-.4277 0-.5918.0039-.168.0079-.3203.0118-.457.0078-.1407.0175-.2832.0293-.4278-.1211.125-.2344.2325-.3399.3223-.1055.0859-.2363.1934-.3926.3223l-.9785.7851-.5097-.6621 2.3203-1.7871h.8086zm6.0041-8.6894c.4961 0 .9356.0781 1.3184.2343.3828.1563.6816.3868.8965.6914.2187.3008.3281.6719.3281 1.1133 0 .3477-.0762.6524-.2285.9141-.1485.2578-.3496.4844-.6035.6797-.2539.1914-.5352.3633-.8438.5156.3672.168.6973.3574.9903.5684.2968.2109.5312.4589.7031.7441s.2578.623.2578 1.0137c0 .4804-.1172.8965-.3516 1.248-.2304.3477-.5547.6152-.9726.8027-.418.1875-.9082.2813-1.4707.2813-.6055 0-1.1211-.0898-1.5469-.2695-.4219-.1836-.7441-.4453-.9668-.7852-.2188-.3437-.3281-.7558-.3281-1.2363 0-.3945.084-.7363.2519-1.0254.168-.293.3907-.5449.668-.7559.2773-.2109.5801-.3886.9082-.5332-.2852-.1562-.5469-.334-.7852-.5332-.2343-.1992-.4218-.4316-.5625-.6972-.1367-.2696-.205-.5821-.205-.9375 0-.4336.1093-.8008.3281-1.1016.2226-.3047.5254-.5352.9082-.6914.3867-.1602.8223-.2402 1.3066-.2402zm-1.8632 6.5214c0 .4375.1542.7989.4628 1.084.3086.2813.7754.4219 1.4004.4219.5938 0 1.0528-.1406 1.377-.4219.3242-.2851.4863-.6582.4863-1.1191 0-.2852-.0742-.5352-.2226-.75-.1485-.2188-.3594-.4141-.6329-.586-.2734-.1718-.5957-.3281-.9668-.4687l-.2109-.0762c-.3594.1485-.666.3145-.9199.4981-.25.1797-.4414.3847-.5742.6152s-.1992.4981-.1992.8027zm1.8515-5.7246c-.4609 0-.8379.1114-1.1308.334-.293.2188-.4395.5352-.4395.9492 0 .2969.0703.5489.2109.7559.1446.2031.3399.3789.586.5273.2461.1446.5215.2793.8261.4043.2969-.125.5606-.2617.7911-.4101.2304-.1524.4121-.3321.5449-.5391s.1992-.4551.1992-.7441c0-.4141-.1465-.7305-.4394-.9492-.2891-.2188-.6719-.3282-1.1485-.3282zm8.5647 6.1348c0 .4102-.1035.7559-.3105 1.0371-.2031.2774-.4961.4863-.8789.627-.3789.1406-.8321.2109-1.3594.2109-.4492 0-.8379-.0352-1.166-.1055s-.6152-.1699-.8613-.2988v-.8965c.2617.1289.5742.2461.9375.3516.3632.1054.7343.1582 1.1132.1582.5547 0 .9571-.0899 1.2071-.2695.25-.1797.375-.4239.375-.7325 0-.1758-.0508-.33-.1524-.4629-.0976-.1367-.2636-.2675-.498-.3925-.2344-.1289-.5586-.2696-.9727-.4219-.4101-.1563-.7656-.3106-1.0664-.4629-.2969-.1563-.5273-.3457-.6914-.5684-.1601-.2226-.2402-.5117-.2402-.8672 0-.5429.2187-.9589.6562-1.248.4414-.293 1.0196-.4395 1.7344-.4395.3867 0 .7481.0391 1.084.1172.3398.0743.6562.1758.9492.3047l-.3281.7793c-.2656-.1133-.5488-.209-.8496-.2871s-.6074-.1172-.9199-.1172c-.4493 0-.795.0742-1.0372.2227-.2382.1484-.3574.3515-.3574.6094 0 .1992.0547.3632.1641.4921.1133.1289.293.25.539.3633.2461.1133.5704.2461.9727.3985.4023.1484.75.3027 1.043.4629.2929.1562.5175.3476.6738.5742.1602.2226.2402.5097.2402.8613zm4.5101-4.7813c.8007 0 1.4394.2754 1.916.8262.4765.5508.7148 1.3789.7148 2.4844 0 .7305-.1094 1.3437-.3281 1.8398-.2188.4961-.5274.8711-.9258 1.125-.3945.2539-.8613.3809-1.4004.3809-.3398 0-.6387-.0449-.8965-.1348-.2578-.0898-.4785-.2109-.6621-.3632-.1836-.1524-.3359-.3184-.457-.4981h-.0703c.0117.1523.0254.3359.041.5508.0195.2148.0293.4023.0293.5625v2.6367h-.9785v-9.293h.8027l.1289.9493h.0469c.125-.1954.2773-.3731.457-.5332.1797-.1641.3985-.293.6563-.3868.2617-.0976.5703-.1465.9258-.1465zm-.17.8204c-.4453 0-.8047.0859-1.0781.2578-.2695.1718-.4668.4297-.5918.7734-.125.3399-.1914.7676-.1992 1.2832v.1875c0 .543.0586 1.002.1758 1.377.1211.375.3183.6601.5918.8554.2773.1953.6484.293 1.1133.293.3984 0 .7304-.1074.996-.3223.2657-.2148.4629-.5136.5918-.8964.1329-.3868.1993-.8301.1993-1.3301 0-.7578-.1485-1.3594-.4453-1.8047-.293-.4492-.7442-.6738-1.3536-.6738zm-81.3455 17.1523h2.666c1.1407 0 2.0039.1602 2.5899.4805.5859.3203.8789.8828.8789 1.6875 0 .3242-.0527.6172-.1582.8789-.1016.2617-.25.4765-.4453.6445s-.4336.2774-.7149.3281v.0586c.2852.0586.543.1602.7735.3047.2304.1406.414.3477.5508.6211.1406.2695.2109.6289.2109 1.0781 0 .5196-.127.9649-.3809 1.336s-.6172.6562-1.0898.8554c-.4688.1954-1.0274.293-1.6758.293h-3.2051zm1.8164 3.3926h1.0547c.5274 0 .8926-.082 1.0957-.2461.2031-.168.3047-.4141.3047-.7383 0-.3281-.1211-.5625-.3633-.7031-.2383-.1445-.6172-.2168-1.1367-.2168h-.9551zm0 1.4414v2.2324h1.1836c.5469 0 .9278-.1055 1.1426-.3164s.3223-.4941.3223-.8496c0-.2109-.0469-.3965-.1407-.5566-.0937-.1602-.2519-.2852-.4746-.375-.2187-.0899-.5215-.1348-.9082-.1348zm11.9866.4453c0 .5469-.0742 1.0313-.2226 1.4531-.1446.4219-.3575.7793-.6387 1.0723-.2773.2891-.6133.5078-1.0078.6562-.3906.1485-.832.2227-1.3242.2227-.461 0-.8848-.0742-1.2715-.2227-.3828-.1484-.7168-.3671-1.002-.6562-.2812-.293-.5-.6504-.6562-1.0723-.1524-.4218-.2285-.9062-.2285-1.4531 0-.7266.1289-1.3418.3867-1.8457s.625-.8867 1.1015-1.1484c.4766-.2618 1.045-.3926 1.7051-.3926.6133 0 1.1563.1308 1.6289.3926.4766.2617.8496.6445 1.1192 1.1484.2734.5039.4101 1.1191.4101 1.8457zm-4.5293 0c0 .4297.0469.791.1407 1.084.0937.293.2402.5137.4394.6621s.459.2227.7793.2227c.3164 0 .5723-.0743.7676-.2227.1992-.1484.3437-.3691.4336-.6621.0937-.293.1406-.6543.1406-1.084 0-.4336-.0469-.793-.1406-1.0781-.0899-.2891-.2344-.5059-.4336-.6504s-.459-.2168-.7793-.2168c-.4727 0-.8164.1621-1.0313.4863-.2109.3242-.3164.8106-.3164 1.459zm9.5901-3.3867c.0899 0 .1934.0058.3106.0176.1211.0078.2187.0195.293.0351l-.1348 1.6758c-.0586-.0195-.1426-.0332-.252-.041-.1054-.0117-.1972-.0176-.2754-.0176-.2304 0-.455.0293-.6738.0879-.2148.0586-.4082.1543-.5801.2871-.1718.1289-.3086.3008-.4101.5156-.0977.211-.1465.4707-.1465.7793v3.334h-1.7871v-6.5508h1.3535l.2637 1.1016h.0879c.1289-.2227.289-.4258.4804-.6094.1953-.1875.416-.3359.6621-.4453.25-.1133.5196-.1699.8086-.1699zm3.7952 6.791c-.7304 0-1.3261-.2852-1.7871-.8555-.457-.5742-.6855-1.416-.6855-2.5254 0-1.1211.2324-1.9687.6972-2.5429.4649-.5782 1.0723-.8672 1.8223-.8672.3125 0 .5879.043.8262.1289s.4433.2012.6152.3457c.1758.1445.3242.3066.4453.4863h.0586c-.0234-.125-.0527-.3086-.0879-.5508-.0312-.2461-.0469-.498-.0469-.7558v-2.0977h1.793v9.1172h-1.3711l-.3457-.8496h-.0762c-.1132.1797-.2558.3438-.4277.4922-.168.1445-.3691.2598-.6035.3457s-.5098.1289-.8262.1289zm.627-1.4238c.4883 0 .832-.1446 1.0312-.4336.2032-.293.3106-.7324.3223-1.3184v-.1933c0-.6368-.0977-1.1231-.293-1.459-.1953-.3399-.5586-.5098-1.0898-.5098-.3945 0-.7031.1699-.9258.5098-.2227.3398-.334.8301-.334 1.4707s.1113 1.123.334 1.4472c.2266.3243.5449.4864.9551.4864zm7.5217-5.3672c.6055 0 1.127.1172 1.5645.3515.4375.2305.7754.5665 1.0137 1.0079.2382.4414.3574.9804.3574 1.6171v.8672h-4.2246c.0195.5039.1699.9004.4511 1.1895.2852.2851.6797.4277 1.1836.4277.418 0 .8008-.0429 1.1485-.1289.3476-.0859.705-.2148 1.0722-.3867v1.3828c-.3242.1602-.664.2774-1.0195.3516-.3516.0742-.7793.1113-1.2832.1113-.6563 0-1.2383-.1211-1.7461-.3633-.5039-.2422-.9004-.6113-1.1894-1.1074-.2852-.4961-.4278-1.1211-.4278-1.875 0-.7656.1289-1.4023.3867-1.9102.2618-.5117.625-.8945 1.0899-1.1484.4648-.2578 1.0058-.3867 1.623-.3867zm.0117 1.2715c-.3476 0-.6367.1113-.8671.334-.2266.2226-.3575.5722-.3926 1.0488h2.5078c-.0039-.2656-.0527-.502-.1465-.709-.0898-.207-.2266-.3711-.4101-.4922-.1797-.1211-.4102-.1816-.6915-.1816zm7.9612-1.2715c.0899 0 .1934.0058.3106.0176.1211.0078.2187.0195.293.0351l-.1348 1.6758c-.0586-.0195-.1426-.0332-.252-.041-.1054-.0117-.1972-.0176-.2753-.0176-.2305 0-.4551.0293-.6739.0879-.2148.0586-.4082.1543-.5801.2871-.1718.1289-.3085.3008-.4101.5156-.0977.211-.1465.4707-.1465.7793v3.334h-1.7871v-6.5508h1.3535l.2637 1.1016h.0879c.1289-.2227.289-.4258.4804-.6094.1954-.1875.4161-.3359.6622-.4453.25-.1133.5195-.1699.8085-.1699zm1.1409 4.1894v-1.4648h3.1465v1.4648zm8.0316-4.1894c.0898 0 .1933.0058.3105.0176.1211.0078.2188.0195.293.0351l-.1348 1.6758c-.0586-.0195-.1426-.0332-.2519-.041-.1055-.0117-.1973-.0176-.2754-.0176-.2305 0-.4551.0293-.6739.0879-.2148.0586-.4082.1543-.58.2871-.1719.1289-.3086.3008-.4102.5156-.0977.211-.1465.4707-.1465.7793v3.334h-1.7871v-6.5508h1.3535l.2637 1.1016h.0879c.1289-.2227.289-.4258.4805-.6094.1953-.1875.416-.3359.6621-.4453.25-.1133.5195-.1699.8086-.1699zm4.4045-.0117c.8789 0 1.5528.1914 2.0215.5742.4688.3828.7031.9648.7031 1.7461v4.3652h-1.248l-.3457-.8906h-.0469c-.1875.2344-.3789.4258-.5742.5742s-.4199.2578-.6738.3281c-.254.0703-.5625.1055-.9258.1055-.3867 0-.7344-.0742-1.043-.2227-.3047-.1484-.5449-.375-.7207-.6796-.1758-.3086-.2637-.6993-.2637-1.1719 0-.6953.2442-1.2071.7325-1.5352.4882-.332 1.2207-.5156 2.1972-.5508l1.1367-.0351v-.2871c0-.3438-.0898-.5957-.2695-.7559-.1797-.1601-.4297-.2402-.75-.2402-.3164 0-.6269.0449-.9316.1347-.3047.0899-.6094.2032-.9141.3399l-.5918-1.207c.3477-.1836.7363-.3282 1.166-.4336.4336-.1055.8809-.1582 1.3418-.1582zm.9492 3.6504-.6914.0234c-.5781.0156-.9804.1191-1.207.3105-.2227.1914-.334.4434-.334.7559 0 .2734.0801.4687.2402.5859.1602.1133.3692.17.627.17.3828 0 .7051-.1133.9668-.3399.2656-.2265.3984-.5488.3984-.9668zm5.6234 3.1523c-.7305 0-1.3262-.2852-1.7872-.8555-.457-.5742-.6855-1.416-.6855-2.5254 0-1.1211.2324-1.9687.6973-2.5429.4648-.5782 1.0722-.8672 1.8222-.8672.3125 0 .5879.043.8262.1289s.4434.2012.6152.3457c.1758.1445.3243.3066.4453.4863h.0586c-.0234-.125-.0527-.3086-.0879-.5508-.0312-.2461-.0468-.498-.0468-.7558v-2.0977h1.7929v9.1172h-1.3711l-.3457-.8496h-.0761c-.1133.1797-.2559.3438-.4278.4922-.1679.1445-.3691.2598-.6035.3457s-.5097.1289-.8261.1289zm.6269-1.4238c.4883 0 .832-.1446 1.0313-.4336.2031-.293.3105-.7324.3222-1.3184v-.1933c0-.6368-.0976-1.1231-.2929-1.459-.1954-.3399-.5586-.5098-1.0899-.5098-.3945 0-.7031.1699-.9258.5098-.2226.3398-.334.8301-.334 1.4707s.1114 1.123.334 1.4472c.2266.3243.5449.4864.9551.4864zm6.6077-5.2442v6.5508h-1.7871v-6.5508zm-.8906-2.5664c.2656 0 .4941.0625.6855.1875.1914.1211.2871.3496.2871.6856 0 .332-.0957.5625-.2871.6914-.1914.125-.4199.1875-.6855.1875-.2696 0-.5-.0625-.6914-.1875-.1875-.1289-.2813-.3594-.2813-.6914 0-.336.0938-.5645.2813-.6856.1914-.125.4218-.1875.6914-.1875zm8.7112 2.5664v6.5508h-1.3711l-.2403-.8379h-.0937c-.1406.2227-.3164.4043-.5274.5449-.2109.1407-.4433.2442-.6972.3106s-.5176.0996-.791.0996c-.4688 0-.877-.082-1.2246-.2461-.3477-.168-.6192-.4277-.8145-.7793-.1914-.3516-.2871-.8086-.2871-1.3711v-4.2715h1.7871v3.8262c0 .4688.084.8223.252 1.0605.1679.2383.4355.3575.8027.3575.3633 0 .6484-.0821.8555-.2461.207-.168.3515-.4121.4336-.7324.0859-.3243.1289-.7188.1289-1.1836v-3.0821zm6.3733 4.6055c0 .4453-.1055.8223-.3164 1.1309-.2071.3046-.5176.5371-.9317.6972-.414.1563-.9297.2344-1.5468.2344-.4571 0-.8496-.0293-1.1778-.0879-.3242-.0586-.6523-.1562-.9843-.293v-1.4765c.3554.1601.7363.2929 1.1425.3984.4102.1016.7696.1524 1.0782.1524.3476 0 .5957-.0508.7441-.1524.1523-.1055.2285-.2422.2285-.4101 0-.1094-.0312-.2071-.0937-.293-.0586-.0899-.1875-.1895-.3868-.2988-.1992-.1133-.5117-.2598-.9375-.4395-.4101-.1719-.748-.3457-1.0136-.5215-.2617-.1758-.4571-.3828-.586-.6211-.125-.2422-.1875-.5488-.1875-.9199 0-.6055.2344-1.0605.7032-1.3652.4726-.3086 1.1035-.4629 1.8925-.4629.4063 0 .793.041 1.1602.123.3711.0821.7519.2129 1.1426.3926l-.5391 1.2891c-.3242-.1407-.6309-.2559-.9199-.3457-.2852-.0899-.5762-.1348-.8731-.1348-.2617 0-.4589.0352-.5918.1055-.1328.0703-.1992.1777-.1992.3222 0 .1055.0332.1993.0996.2813.0703.082.2032.1738.3985.2754.1992.0976.4902.2246.873.3808.3711.1524.6934.3125.9668.4805.2735.1641.4844.3691.6328.6152.1485.2422.2227.5567.2227.9434zm1.0706 1.1074c0-.3672.0996-.625.2988-.7734.2031-.1485.4473-.2227.7324-.2227.2774 0 .5156.0742.7149.2227.2031.1484.3046.4062.3046.7734 0 .3516-.1015.6055-.3046.7617-.1993.1563-.4375.2344-.7149.2344-.2851 0-.5293-.0781-.7324-.2344-.1992-.1562-.2988-.4101-.2988-.7617zm0-4.8398c0-.3672.0996-.625.2988-.7735.2031-.1484.4473-.2226.7324-.2226.2774 0 .5156.0742.7149.2226.2031.1485.3046.4063.3046.7735 0 .3554-.1015.6113-.3046.7676-.1993.1523-.4375.2285-.7149.2285-.2851 0-.5293-.0762-.7324-.2285-.1992-.1563-.2988-.4122-.2988-.7676zm6.3896 2.0156c0-.5156.035-1.0195.105-1.5117.074-.4922.197-.9492.369-1.3711.172-.4258.406-.7988.703-1.1192.297-.3203.666-.5703 1.108-.75.445-.1835.978-.2753 1.599-.2753.176 0 .366.0097.569.0293.203.0156.371.0429.504.082v.8379c-.145-.0508-.311-.0879-.498-.1114-.184-.0234-.37-.0351-.557-.0351-.727 0-1.299.1582-1.717.4746-.414.3164-.713.7461-.896 1.2891-.184.539-.289 1.1464-.317 1.8222h.065c.121-.1953.275-.3711.463-.5273.187-.1602.414-.2871.679-.3809.27-.0937.582-.1406.938-.1406.5 0 .935.1016 1.306.3047.375.2031.664.498.868.8848.207.3867.31.8554.31 1.4062 0 .5898-.109 1.0996-.328 1.5293s-.531.7617-.938.9961c-.402.2305-.882.3457-1.441.3457-.418 0-.803-.0801-1.154-.2402-.352-.1602-.658-.3985-.92-.7149-.258-.3164-.459-.709-.604-1.1777-.144-.4727-.216-1.0215-.216-1.6465zm2.882 2.959c.532 0 .957-.1699 1.278-.5098.32-.3398.48-.8535.48-1.541 0-.5625-.142-1.0078-.428-1.3359-.285-.3282-.714-.4922-1.289-.4922-.39 0-.73.082-1.019.2461-.289.1601-.514.3633-.674.6093-.16.2461-.24.4961-.24.75 0 .2579.037.5196.111.7852.078.2656.195.5117.352.7383.156.2265.353.4082.591.5449.239.1367.518.2051.838.2051zm6.544.8203c-.813 0-1.457-.2773-1.934-.832-.473-.5547-.709-1.3789-.709-2.4727 0-1.1055.242-1.9394.727-2.5019.484-.5664 1.128-.8497 1.933-.8497.34 0 .637.045.891.1348.254.0899.472.211.656.3633.184.1484.338.3184.463.5098h.07c-.015-.1211-.031-.2871-.047-.4981-.015-.2109-.023-.3828-.023-.5156v-2.5723h.973v9.1172h-.786l-.146-.9141h-.041c-.121.1915-.275.3653-.463.5215-.184.1563-.404.2813-.662.375-.254.0899-.555.1348-.902.1348zm.152-.8086c.687 0 1.174-.1953 1.459-.5859.285-.3907.428-.9707.428-1.7403v-.1757c0-.8165-.137-1.4434-.41-1.8809-.27-.4375-.762-.6563-1.477-.6563-.598 0-1.045.2305-1.342.6914-.297.4571-.445 1.0821-.445 1.875 0 .7891.146 1.3985.439 1.8282.297.4297.746.6445 1.348.6445zm7.856-5.8477c.8 0 1.439.2754 1.916.8262.476.5508.715 1.3789.715 2.4844 0 .7305-.11 1.3437-.329 1.8398-.218.4961-.527.8711-.925 1.125-.395.2539-.862.3809-1.401.3809-.34 0-.638-.0449-.896-.1348-.258-.0898-.479-.2109-.662-.3632-.184-.1524-.336-.3184-.457-.4981h-.071c.012.1523.026.3359.041.5508.02.2148.03.4023.03.5625v2.6367h-.979v-9.293h.803l.129.9493h.047c.125-.1954.277-.3731.457-.5332.179-.1641.398-.293.656-.3868.262-.0976.57-.1465.926-.1465zm-.17.8204c-.446 0-.805.0859-1.078.2578-.27.1718-.467.4297-.592.7734-.125.3399-.192.7676-.199 1.2832v.1875c0 .543.058 1.002.175 1.377.122.375.319.6601.592.8554.278.1953.649.293 1.113.293.399 0 .731-.1074.997-.3223.265-.2148.462-.5136.591-.8964.133-.3868.2-.8301.2-1.3301 0-.7578-.149-1.3594-.446-1.8047-.293-.4492-.744-.6738-1.353-.6738z" fill="#000"/><path d="m1 49v-48h137.827v9.3204l7.173 6.9903-7.173 6.5243v25.165z" stroke="#ccc"/><path d="m160.189 34h-1.108v-7.123c0-.5925.018-1.153.055-1.6817-.096.0957-.203.196-.321.3008-.119.1048-.661.5491-1.627 1.333l-.602-.7793 2.645-2.0439h.958zm3.839-4.2725c0-1.9642.381-3.4316 1.142-4.4023.766-.9753 1.896-1.4629 3.391-1.4629.515 0 .92.0433 1.216.1299v.9775c-.351-.1139-.752-.1709-1.203-.1709-1.071 0-1.889.335-2.454 1.0049-.565.6654-.875 1.7136-.93 3.1445h.082c.502-.7838 1.295-1.1757 2.379-1.1757.898 0 1.605.2711 2.12.8134.519.5424.779 1.2784.779 2.208 0 1.0391-.285 1.8571-.855 2.4541-.565.5925-1.33.8887-2.297.8887-1.034 0-1.854-.3874-2.46-1.1621-.607-.7793-.91-1.8616-.91-3.2471zm3.357 3.4454c.647 0 1.148-.2028 1.504-.6084.36-.4102.54-1.0004.54-1.7706 0-.6608-.167-1.1803-.499-1.5585-.333-.3783-.83-.5674-1.491-.5674-.41 0-.786.0843-1.127.2529-.342.1686-.616.401-.821.6973-.2.2962-.301.6038-.301.9228 0 .4694.092.9069.274 1.3125s.44.7269.772.9639c.338.237.72.3555 1.149.3555zm8.461.9638c-.488 0-.935-.0888-1.34-.2666-.401-.1823-.738-.4603-1.012-.834h-.082c.055.4375.082.8522.082 1.2442v3.083h-1.135v-10.8555h.923l.157 1.0254h.055c.292-.4102.631-.7064 1.019-.8887.387-.1823.831-.2734 1.333-.2734.993 0 1.759.3395 2.297 1.0185.542.6791.813 1.6316.813 2.8575 0 1.2304-.276 2.1875-.827 2.8711-.547.679-1.308 1.0185-2.283 1.0185zm-.164-6.8017c-.766 0-1.32.2119-1.661.6357-.342.4238-.518 1.0983-.527 2.0234v.253c0 1.0527.176 1.8069.527 2.2627.35.4511.913.6767 1.688.6767.647 0 1.153-.262 1.518-.7861.369-.5241.553-1.2464.553-2.167 0-.9342-.184-1.6497-.553-2.1465-.365-.5013-.88-.7519-1.545-.7519zm6.984 2.83-2.604-3.6572h1.292l1.975 2.8711 1.969-2.8711h1.278l-2.604 3.6572 2.741 3.835h-1.285l-2.099-3.0352-2.119 3.0352h-1.285z" fill="#e8178a"/><path d="m192.5.5h368v49h-368z" stroke="#f0f" stroke-dasharray="2 2"/><g clip-path="url(#a)"><rect fill="#dcedf9" height="48" rx="6" width="367" x="193" y="1"/><g clip-path="url(#b)"><path d="m211.454 24.5c0 1.798.338 3.5784.993 5.2396.656 1.6611 1.617 3.1705 2.828 4.4419 1.212 1.2714 2.65 2.2799 4.233 2.968 1.582.688 3.279 1.0422 4.992 1.0422s3.41-.3542 4.992-1.0422c1.583-.6881 3.021-1.6966 4.233-2.968 1.211-1.2714 2.172-2.7808 2.828-4.4419.655-1.6612.993-3.4416.993-5.2396s-.338-3.5784-.993-5.2396c-.656-1.6611-1.617-3.1705-2.828-4.4419-1.212-1.2713-2.65-2.2799-4.233-2.9679-1.582-.6881-3.279-1.0423-4.992-1.0423s-3.41.3542-4.992 1.0423c-1.583.688-3.021 1.6966-4.233 2.9679-1.211 1.2714-2.172 2.7808-2.828 4.4419-.655 1.6612-.993 3.4416-.993 5.2396z" fill="#019aeb"/><path d="m224.5 11.9709c6.91 0 12.529 5.6187 12.529 12.5291s-5.619 12.5292-12.529 12.5292c-6.911 0-12.529-5.6188-12.529-12.5292s5.618-12.5291 12.529-12.5291zm0-2.19588c-8.138 0-14.725 6.58748-14.725 14.72498s6.587 14.725 14.725 14.725c8.137 0 14.725-6.5875 14.725-14.725s-6.588-14.72498-14.725-14.72498z" fill="#0e416c"/><path d="m225.921 28.827h1.033v1.9375h-4.908v-1.9375h1.485v-4.5208h-1.485v-2.0021h3.875zm-2.519-7.75h2.519v-2.8416h-2.519z" fill="#fff"/></g><path d="m259.704 32h-1.503v-11.5312h-4.043v-1.3184h9.571v1.3184h-4.025zm7.207-9.6328v9.6328h-1.459v-9.6328zm-.712-3.6035c.24 0 .446.0791.615.2373.176.1523.264.3926.264.7207 0 .3222-.088.5625-.264.7207-.169.1582-.375.2373-.615.2373-.252 0-.463-.0791-.633-.2373-.164-.1582-.246-.3985-.246-.7207 0-.3281.082-.5684.246-.7207.17-.1582.381-.2373.633-.2373zm8.332 3.4277c1.201 0 2.159.4131 2.874 1.2393.715.8261 1.073 2.0683 1.073 3.7265 0 1.0957-.165 2.0157-.493 2.7598s-.791 1.3066-1.388 1.6875c-.592.3809-1.292.5713-2.101.5713-.51 0-.958-.0674-1.345-.2022-.386-.1347-.717-.3164-.993-.5449-.275-.2285-.504-.4775-.685-.7471h-.106c.018.2286.038.5039.062.8262.029.3223.044.6035.044.8438v3.955h-1.468v-13.9394h1.204l.193 1.4238h.071c.187-.293.416-.5596.685-.7998.27-.2461.598-.4394.985-.5801.392-.1465.855-.2197 1.388-.2197zm-.255 1.2305c-.668 0-1.207.1289-1.617.3867-.404.2578-.7.6445-.888 1.1602-.187.5097-.287 1.1513-.298 1.9248v.2812c0 .8145.088 1.5029.263 2.0654.182.5625.478.9903.888 1.2832.416.293.973.4395 1.67.4395.598 0 1.096-.1611 1.494-.4834.399-.3223.694-.7705.888-1.3447.199-.5801.299-1.2452.299-1.9952 0-1.1367-.223-2.039-.668-2.707-.44-.6738-1.117-1.0107-2.031-1.0107zm19.732 3.7441c0 .791-.103 1.4971-.308 2.1182s-.501 1.1455-.888 1.5732c-.386.4278-.855.7559-1.406.9844-.545.2227-1.163.334-1.854.334-.645 0-1.237-.1113-1.776-.334-.533-.2285-.996-.5566-1.388-.9844-.387-.4277-.689-.9521-.906-1.5732-.211-.6211-.316-1.3272-.316-2.1182 0-1.0547.179-1.9512.536-2.6894.358-.7442.867-1.3096 1.529-1.6963.668-.3926 1.462-.5889 2.382-.5889.879 0 1.647.1963 2.303.5889.662.3926 1.175.9609 1.538 1.7051.369.7382.554 1.6318.554 2.6806zm-7.33 0c0 .7735.102 1.4444.307 2.0127.205.5684.522 1.0078.95 1.3184.427.3105.978.4658 1.652.4658.668 0 1.216-.1553 1.643-.4658.434-.3106.753-.75.958-1.3184.206-.5683.308-1.2392.308-2.0127 0-.7676-.102-1.4297-.308-1.9863-.205-.5625-.521-.9961-.949-1.3008-.427-.3047-.981-.457-1.661-.457-1.002 0-1.737.331-2.206.9931-.463.6621-.694 1.5791-.694 2.751zm14.229-4.9746c.194 0 .396.0117.607.0352.211.0175.398.0439.562.0791l-.184 1.3535c-.159-.041-.334-.0733-.528-.0967-.193-.0234-.375-.0352-.545-.0352-.386 0-.753.0791-1.098.2373-.34.1524-.639.375-.897.668-.258.2871-.46.6358-.606 1.0459-.147.4043-.22.8555-.22 1.3535v5.168h-1.468v-9.6328h1.213l.158 1.7754h.062c.199-.3574.439-.6826.721-.9756.281-.2988.606-.5361.975-.7119.375-.1758.791-.2637 1.248-.2637zm7.884 9.8086v-12.8496h1.494v12.8496zm9.369-9.8086c1.143 0 2.007.2813 2.593.8438.586.5566.879 1.4531.879 2.6894v6.2754h-1.442v-6.1787c0-.8027-.184-1.4033-.553-1.8018-.364-.3984-.923-.5976-1.679-.5976-1.066 0-1.816.3017-2.25.9052-.434.6036-.65 1.4795-.65 2.628v5.0449h-1.459v-9.6328h1.177l.22 1.3887h.079c.205-.3399.466-.6241.782-.8526.317-.2344.671-.4101 1.064-.5273.392-.1231.806-.1846 1.239-.1846zm10.767 1.3184h-2.4v8.4902h-1.459v-8.4902h-1.705v-.7032l1.705-.4834v-.6416c0-.8086.12-1.4648.361-1.9687.24-.5098.589-.8848 1.046-1.125s1.013-.3604 1.67-.3604c.369 0 .706.0323 1.01.0967.311.0645.583.1377.818.2197l-.378 1.1514c-.199-.0644-.425-.123-.677-.1758-.246-.0586-.498-.0879-.756-.0879-.557 0-.97.1817-1.239.545-.264.3574-.396.9199-.396 1.6875v.7031h2.4zm10.081 3.6562c0 .791-.103 1.4971-.308 2.1182s-.501 1.1455-.888 1.5732c-.386.4278-.855.7559-1.406.9844-.545.2227-1.163.334-1.854.334-.645 0-1.237-.1113-1.776-.334-.533-.2285-.996-.5566-1.388-.9844-.387-.4277-.689-.9521-.906-1.5732-.211-.6211-.316-1.3272-.316-2.1182 0-1.0547.179-1.9512.536-2.6894.358-.7442.867-1.3096 1.529-1.6963.668-.3926 1.462-.5889 2.382-.5889.879 0 1.647.1963 2.303.5889.662.3926 1.175.9609 1.538 1.7051.369.7382.554 1.6318.554 2.6806zm-7.33 0c0 .7735.102 1.4444.307 2.0127.205.5684.522 1.0078.95 1.3184.427.3105.978.4658 1.652.4658.668 0 1.216-.1553 1.643-.4658.434-.3106.753-.75.958-1.3184.206-.5683.308-1.2392.308-2.0127 0-.7676-.102-1.4297-.308-1.9863-.205-.5625-.521-.9961-.949-1.3008-.427-.3047-.981-.457-1.661-.457-1.002 0-1.737.331-2.206.9931-.463.6621-.694 1.5791-.694 2.751zm13.711.6504v-1.3008h4.359v1.3008zm19.133 4.166-1.713-5.6074c-.077-.2402-.15-.4746-.22-.7031-.065-.2344-.126-.4571-.185-.668-.052-.2168-.102-.416-.149-.5977-.041-.1874-.076-.3486-.106-.4833h-.061c-.024.1347-.056.2959-.097.4833-.041.1817-.091.3809-.149.5977-.053.2168-.112.4453-.176.6856-.064.2343-.138.4716-.22.7119l-1.793 5.581h-1.643l-2.655-9.6328h1.512l1.389 5.3174c.094.3516.182.7002.264 1.0459.087.3398.161.6621.219.9668.065.2988.112.5596.141.7822h.07c.035-.1465.073-.3223.114-.5273.047-.2051.097-.4219.15-.6504.058-.2344.12-.4658.184-.6944.065-.2343.129-.4541.194-.6591l1.775-5.5811h1.573l1.714 5.5723c.088.2812.173.5742.255.8789.088.3047.167.6006.237.8877.071.2812.121.5332.15.7558h.07c.024-.1992.068-.4453.132-.7382.064-.293.138-.6153.22-.9668.088-.3516.178-.709.272-1.0723l1.406-5.3174h1.486l-2.663 9.6328zm10.495-9.791c.193 0 .395.0117.606.0352.211.0175.398.0439.563.0791l-.185 1.3535c-.158-.041-.334-.0733-.527-.0967-.194-.0234-.375-.0352-.545-.0352-.387 0-.753.0791-1.099.2373-.34.1524-.639.375-.896.668-.258.2871-.46.6358-.607 1.0459-.146.4043-.22.8555-.22 1.3535v5.168h-1.467v-9.6328h1.213l.158 1.7754h.061c.199-.3574.44-.6826.721-.9756.281-.2988.606-.5361.976-.7119.375-.1758.791-.2637 1.248-.2637zm4.447.1758v9.6328h-1.459v-9.6328zm-.712-3.6035c.24 0 .445.0791.615.2373.176.1523.264.3926.264.7207 0 .3222-.088.5625-.264.7207-.17.1582-.375.2373-.615.2373-.252 0-.463-.0791-.633-.2373-.164-.1582-.246-.3985-.246-.7207 0-.3281.082-.5684.246-.7207.17-.1582.381-.2373.633-.2373zm6.917 12.2168c.24 0 .486-.0205.738-.0616.252-.041.457-.0908.615-.1494v1.1338c-.169.0762-.407.1406-.711.1934-.299.0527-.592.0791-.879.0791-.51 0-.973-.0879-1.389-.2637-.416-.1816-.75-.4863-1.002-.9141-.246-.4277-.369-1.0195-.369-1.7753v-5.7129h-1.371v-.7119l1.38-.5713.58-2.0918h.879v2.2324h2.821v1.1426h-2.821v5.6689c0 .6035.137 1.0547.413 1.3535.281.2989.653.4483 1.116.4483zm7.014-8.7891c.82 0 1.523.1816 2.109.5449s1.034.8731 1.345 1.5293c.31.6504.466 1.4121.466 2.2852v.9053h-6.654c.018 1.1308.299 1.9921.844 2.5839s1.312.8877 2.303.8877c.609 0 1.148-.0556 1.617-.167.469-.1113.955-.2753 1.459-.4921v1.2832c-.486.2168-.97.375-1.45.4746-.475.0996-1.037.1494-1.688.1494-.926 0-1.734-.1875-2.426-.5625-.685-.3809-1.218-.9375-1.599-1.6699-.381-.7325-.571-1.6289-.571-2.6895 0-1.0371.172-1.9336.518-2.6894.352-.7618.844-1.3477 1.477-1.7579.638-.4101 1.388-.6152 2.25-.6152zm-.018 1.1953c-.779 0-1.4.2549-1.863.7647-.463.5097-.739 1.2216-.826 2.1357h5.097c-.006-.5742-.096-1.0781-.272-1.5117-.17-.4395-.431-.7793-.782-1.0195-.352-.2461-.803-.3692-1.354-.3692zm17.323 5.9766c0 .6152-.155 1.1338-.466 1.5556-.304.4161-.744.7295-1.318.9405-.568.2109-1.248.3164-2.039.3164-.674 0-1.257-.0528-1.749-.1582-.492-.1055-.923-.2549-1.292-.4483v-1.3447c.393.1934.861.3692 1.406.5274s1.102.2373 1.67.2373c.832 0 1.436-.1348 1.811-.4043.375-.2696.562-.6358.562-1.0987 0-.2636-.076-.4951-.228-.6943-.147-.2051-.396-.4014-.747-.5889-.352-.1933-.838-.4043-1.459-.6328-.616-.2344-1.149-.4658-1.6-.6943-.445-.2344-.791-.5186-1.037-.8526-.24-.3339-.36-.7675-.36-1.3007 0-.8145.328-1.4385.984-1.8721.662-.4395 1.529-.6592 2.602-.6592.58 0 1.122.0586 1.626.1758.509.1113.984.2637 1.423.457l-.492 1.169c-.398-.17-.823-.3135-1.274-.4307s-.911-.1758-1.38-.1758c-.674 0-1.193.1113-1.556.334-.357.2227-.536.5273-.536.9141 0 .2988.082.5449.246.7382.17.1934.44.375.809.545.369.1699.855.3691 1.459.5976.603.2227 1.125.4541 1.564.6944.44.2343.777.5214 1.011.8613.24.334.36.7646.36 1.292zm10.653-2.1973c0 .791-.103 1.4971-.308 2.1182s-.501 1.1455-.888 1.5732c-.386.4278-.855.7559-1.406.9844-.545.2227-1.163.334-1.854.334-.645 0-1.237-.1113-1.776-.334-.533-.2285-.996-.5566-1.388-.9844-.387-.4277-.689-.9521-.906-1.5732-.211-.6211-.316-1.3272-.316-2.1182 0-1.0547.179-1.9512.536-2.6894.357-.7442.867-1.3096 1.529-1.6963.668-.3926 1.462-.5889 2.382-.5889.879 0 1.647.1963 2.303.5889.662.3926 1.175.9609 1.538 1.7051.369.7382.554 1.6318.554 2.6806zm-7.33 0c0 .7735.102 1.4444.307 2.0127.205.5684.522 1.0078.949 1.3184.428.3105.979.4658 1.653.4658.668 0 1.216-.1553 1.643-.4658.434-.3106.753-.75.958-1.3184.205-.5683.308-1.2392.308-2.0127 0-.7676-.103-1.4297-.308-1.9863-.205-.5625-.521-.9961-.949-1.3008s-.981-.457-1.661-.457c-1.002 0-1.737.331-2.206.9931-.463.6621-.694 1.5791-.694 2.751zm20.311-4.9746c1.061 0 1.86.2783 2.399.835.54.5507.809 1.4384.809 2.6631v6.3105h-1.441v-6.2402c0-.7793-.17-1.3623-.51-1.7491-.334-.3925-.832-.5888-1.494-.5888-.932 0-1.609.2695-2.031.8086-.421.539-.632 1.333-.632 2.3818v5.3877h-1.451v-6.2402c0-.5215-.076-.9551-.228-1.3008-.147-.3457-.369-.6035-.668-.7735-.293-.1757-.665-.2636-1.116-.2636-.639 0-1.152.1318-1.538.3955-.387.2637-.668.6562-.844 1.1777-.17.5156-.255 1.1514-.255 1.9072v5.0977h-1.459v-9.6328h1.178l.22 1.3623h.079c.193-.334.436-.6152.729-.8438.293-.2285.621-.4013.985-.5185.363-.1172.75-.1758 1.16-.1758.732 0 1.344.1377 1.837.4131.498.2695.858.6826 1.081 1.2393h.079c.316-.5567.75-.9698 1.301-1.2393.55-.2754 1.154-.4131 1.81-.4131zm9.914 0c.82 0 1.524.1816 2.11.5449.585.3633 1.034.8731 1.344 1.5293.311.6504.466 1.4121.466 2.2852v.9053h-6.653c.017 1.1308.299 1.9921.843 2.5839.545.5918 1.313.8877 2.303.8877.61 0 1.149-.0556 1.617-.167.469-.1113.955-.2753 1.459-.4921v1.2832c-.486.2168-.969.375-1.45.4746-.474.0996-1.037.1494-1.687.1494-.926 0-1.735-.1875-2.426-.5625-.686-.3809-1.219-.9375-1.6-1.6699-.381-.7325-.571-1.6289-.571-2.6895 0-1.0371.173-1.9336.519-2.6894.351-.7618.843-1.3477 1.476-1.7579.639-.4101 1.389-.6152 2.25-.6152zm-.017 1.1953c-.78 0-1.401.2549-1.864.7647-.463.5097-.738 1.2216-.826 2.1357h5.098c-.006-.5742-.097-1.0781-.273-1.5117-.17-.4395-.43-.7793-.782-1.0195-.351-.2461-.803-.3692-1.353-.3692zm19.045-1.0195v9.6328h-1.195l-.211-1.3535h-.079c-.199.334-.457.6152-.773.8437-.317.2286-.674.3985-1.073.5098-.392.1172-.811.1758-1.256.1758-.762 0-1.401-.1231-1.916-.3692-.516-.2461-.906-.6269-1.169-1.1425-.258-.5157-.387-1.1778-.387-1.9864v-6.3105h1.476v6.2051c0 .8027.182 1.4033.545 1.8017.364.3926.917.5889 1.662.5889.714 0 1.283-.1348 1.705-.4043.427-.2695.735-.665.922-1.1865.188-.5274.282-1.1719.282-1.9336v-5.0713zm9.317 6.9961c0 .6152-.155 1.1338-.466 1.5556-.305.4161-.744.7295-1.318.9405-.569.2109-1.248.3164-2.039.3164-.674 0-1.257-.0528-1.749-.1582-.493-.1055-.923-.2549-1.292-.4483v-1.3447c.392.1934.861.3692 1.406.5274s1.101.2373 1.67.2373c.832 0 1.435-.1348 1.81-.4043.375-.2696.563-.6358.563-1.0987 0-.2636-.076-.4951-.229-.6943-.146-.2051-.395-.4014-.747-.5889-.351-.1933-.838-.4043-1.459-.6328-.615-.2344-1.148-.4658-1.599-.6943-.446-.2344-.791-.5186-1.037-.8526-.241-.3339-.361-.7675-.361-1.3007 0-.8145.328-1.4385.985-1.8721.662-.4395 1.529-.6592 2.601-.6592.58 0 1.122.0586 1.626.1758.51.1113.984.2637 1.424.457l-.492 1.169c-.399-.17-.824-.3135-1.275-.4307s-.911-.1758-1.38-.1758c-.673 0-1.192.1113-1.555.334-.358.2227-.536.5273-.536.9141 0 .2988.082.5449.246.7382.17.1934.439.375.808.545.369.1699.856.3691 1.459.5976.604.2227 1.125.4541 1.565.6944.439.2343.776.5214 1.011.8613.24.334.36.7646.36 1.292zm6.056-7.1719c.82 0 1.523.1816 2.109.5449s1.034.8731 1.345 1.5293c.31.6504.465 1.4121.465 2.2852v.9053h-6.653c.018 1.1308.299 1.9921.844 2.5839s1.312.8877 2.303.8877c.609 0 1.148-.0556 1.617-.167.469-.1113.955-.2753 1.459-.4921v1.2832c-.487.2168-.97.375-1.45.4746-.475.0996-1.038.1494-1.688.1494-.926 0-1.734-.1875-2.426-.5625-.685-.3809-1.218-.9375-1.599-1.6699-.381-.7325-.572-1.6289-.572-2.6895 0-1.0371.173-1.9336.519-2.6894.352-.7618.844-1.3477 1.477-1.7579.638-.4101 1.388-.6152 2.25-.6152zm-.018 1.1953c-.779 0-1.4.2549-1.863.7647-.463.5097-.739 1.2216-.827 2.1357h5.098c-.006-.5742-.097-1.0781-.272-1.5117-.17-.4395-.431-.7793-.783-1.0195-.351-.2461-.802-.3692-1.353-.3692zm10.705.1231h-2.399v8.4902h-1.459v-8.4902h-1.705v-.7032l1.705-.4834v-.6416c0-.8086.12-1.4648.36-1.9687.24-.5098.589-.8848 1.046-1.125s1.014-.3604 1.67-.3604c.369 0 .706.0323 1.011.0967.31.0645.583.1377.817.2197l-.378 1.1514c-.199-.0644-.425-.123-.677-.1758-.246-.0586-.498-.0879-.756-.0879-.556 0-.969.1817-1.239.545-.264.3574-.395.9199-.395 1.6875v.7031h2.399zm9.73-1.1426v9.6328h-1.196l-.211-1.3535h-.079c-.199.334-.457.6152-.773.8437-.317.2286-.674.3985-1.073.5098-.392.1172-.811.1758-1.256.1758-.762 0-1.401-.1231-1.916-.3692-.516-.2461-.906-.6269-1.169-1.1425-.258-.5157-.387-1.1778-.387-1.9864v-6.3105h1.477v6.2051c0 .8027.181 1.4033.544 1.8017.364.3926.917.5889 1.662.5889.714 0 1.283-.1348 1.705-.4043.427-.2695.735-.665.922-1.1865.188-.5274.282-1.1719.282-1.9336v-5.0713zm4.552 9.6328h-1.468v-13.6758h1.468zm10.872-1.0195c.241 0 .487-.0205.739-.0616.252-.041.457-.0908.615-.1494v1.1338c-.17.0762-.407.1406-.712.1934-.299.0527-.592.0791-.879.0791-.51 0-.973-.0879-1.389-.2637-.416-.1816-.75-.4863-1.002-.9141-.246-.4277-.369-1.0195-.369-1.7753v-5.7129h-1.371v-.7119l1.38-.5713.58-2.0918h.879v2.2324h2.821v1.1426h-2.821v5.6689c0 .6035.138 1.0547.413 1.3535.281.2989.653.4483 1.116.4483zm7.014-8.7891c.82 0 1.523.1816 2.109.5449s1.035.8731 1.345 1.5293c.311.6504.466 1.4121.466 2.2852v.9053h-6.653c.017 1.1308.298 1.9921.843 2.5839s1.313.8877 2.303.8877c.609 0 1.149-.0556 1.617-.167.469-.1113.955-.2753 1.459-.4921v1.2832c-.486.2168-.969.375-1.45.4746-.475.0996-1.037.1494-1.687.1494-.926 0-1.735-.1875-2.426-.5625-.686-.3809-1.219-.9375-1.6-1.6699-.381-.7325-.571-1.6289-.571-2.6895 0-1.0371.173-1.9336.518-2.6894.352-.7618.844-1.3477 1.477-1.7579.639-.4101 1.389-.6152 2.25-.6152zm-.018 1.1953c-.779 0-1.4.2549-1.863.7647-.463.5097-.738 1.2216-.826 2.1357h5.098c-.006-.5742-.097-1.0781-.273-1.5117-.17-.4395-.431-.7793-.782-1.0195-.352-.2461-.803-.3692-1.354-.3692zm8.71 3.6826-3.331-4.7021h1.67l2.54 3.709 2.532-3.709h1.652l-3.331 4.7021 3.515 4.9307h-1.669l-2.699-3.9287-2.716 3.9287h-1.652zm10.24 3.9112c.24 0 .486-.0205.738-.0616.252-.041.457-.0908.615-.1494v1.1338c-.17.0762-.407.1406-.712.1934-.299.0527-.592.0791-.879.0791-.509 0-.972-.0879-1.388-.2637-.416-.1816-.75-.4863-1.002-.9141-.246-.4277-.369-1.0195-.369-1.7753v-5.7129h-1.372v-.7119l1.38-.5713.58-2.0918h.879v2.2324h2.822v1.1426h-2.822v5.6689c0 .6035.138 1.0547.413 1.3535.282.2989.654.4483 1.117.4483z" fill="#252a2e"/></g><rect height="47" rx="5.5" stroke="#217cbb" width="366" x="193.5" y="1.5"/><path d="m193 1h13v48h-13z" fill="#eb3499" fill-opacity=".6"/><path d="m547 1h13v48h-13z" fill="#eb3499" fill-opacity=".6"/><path d="m547.002 30h12.998" stroke="#e8178a" stroke-dasharray="2 2"/><path d="m193 30h12.998" stroke="#e8178a" stroke-dasharray="2 2"/><path d="m571.055 34h-1.108v-7.123c0-.5925.019-1.153.055-1.6817-.096.0957-.203.196-.321.3008-.119.1048-.661.5491-1.627 1.333l-.602-.7793 2.646-2.0439h.957zm3.84-4.2725c0-1.9642.38-3.4316 1.141-4.4023.766-.9753 1.896-1.4629 3.391-1.4629.515 0 .92.0433 1.217.1299v.9775c-.351-.1139-.752-.1709-1.204-.1709-1.071 0-1.889.335-2.454 1.0049-.565.6654-.875 1.7136-.929 3.1445h.082c.501-.7838 1.294-1.1757 2.379-1.1757.897 0 1.604.2711 2.119.8134.519.5424.779 1.2784.779 2.208 0 1.0391-.285 1.8571-.854 2.4541-.566.5925-1.331.8887-2.297.8887-1.035 0-1.855-.3874-2.461-1.1621-.606-.7793-.909-1.8616-.909-3.2471zm3.356 3.4454c.647 0 1.148-.2028 1.504-.6084.36-.4102.54-1.0004.54-1.7706 0-.6608-.166-1.1803-.499-1.5585-.333-.3783-.83-.5674-1.49-.5674-.41 0-.786.0843-1.128.2529s-.615.401-.821.6973c-.2.2962-.3.6038-.3.9228 0 .4694.091.9069.273 1.3125s.44.7269.773.9639c.337.237.72.3555 1.148.3555zm8.461.9638c-.488 0-.934-.0888-1.34-.2666-.401-.1823-.738-.4603-1.012-.834h-.082c.055.4375.082.8522.082 1.2442v3.083h-1.134v-10.8555h.922l.158 1.0254h.054c.292-.4102.632-.7064 1.019-.8887s.832-.2734 1.333-.2734c.993 0 1.759.3395 2.297 1.0185.542.6791.813 1.6316.813 2.8575 0 1.2304-.275 2.1875-.827 2.8711-.547.679-1.308 1.0185-2.283 1.0185zm-.164-6.8017c-.766 0-1.319.2119-1.661.6357s-.518 1.0983-.527 2.0234v.253c0 1.0527.176 1.8069.527 2.2627.351.4511.913.6767 1.688.6767.647 0 1.153-.262 1.518-.7861.369-.5241.553-1.2464.553-2.167 0-.9342-.184-1.6497-.553-2.1465-.365-.5013-.88-.7519-1.545-.7519zm6.984 2.83-2.604-3.6572h1.292l1.975 2.8711 1.969-2.8711h1.278l-2.604 3.6572 2.741 3.835h-1.285l-2.099-3.0352-2.119 3.0352h-1.285z" fill="#e8178a"/><path d="m595.609 1.5h8.563v47h-8.563" stroke="#4091d2"/><path d="m616.543 32.2246h-1.031v1.7754h-1.77v-1.7754h-3.656v-1.2598l3.756-5.5312h1.67v5.3848h1.031zm-2.801-1.4062v-1.4532c0-.2422.01-.5937.029-1.0547.02-.4609.036-.7285.047-.8027h-.047c-.144.3203-.318.6328-.521.9375l-1.57 2.3731zm6.356-5.4961c.82 0 1.48.1875 1.98.5625.504.3711.756.873.756 1.5058 0 .4375-.121.8282-.363 1.1719-.242.3398-.633.6445-1.172.9141.641.3437 1.1.7031 1.377 1.0781.281.3711.422.7793.422 1.2246 0 .7031-.275 1.2695-.826 1.6992-.551.4258-1.276.6387-2.174.6387-.938 0-1.674-.1992-2.209-.5977-.535-.3984-.803-.9629-.803-1.6933 0-.4883.129-.9219.387-1.3008.262-.3789.68-.7129 1.254-1.002-.488-.3086-.84-.6386-1.055-.9902s-.322-.7363-.322-1.1543c0-.6133.254-1.1094.762-1.4883.507-.3789 1.17-.5683 1.986-.5683zm-1.336 6.3984c0 .3359.117.5977.352.7852.234.1875.554.2812.96.2812.45 0 .786-.0957 1.008-.2871.223-.1953.334-.4512.334-.7676 0-.2617-.111-.5058-.334-.7324-.218-.2305-.576-.4746-1.072-.7324-.832.3828-1.248.8672-1.248 1.4531zm1.324-5.0742c-.308 0-.558.0801-.75.2402-.187.1563-.281.3672-.281.6328 0 .2344.074.4453.223.6328.152.1836.425.3731.82.5684.383-.1797.65-.3633.803-.5508.152-.1875.228-.4043.228-.6504 0-.2695-.097-.4824-.293-.6386-.195-.1563-.445-.2344-.75-.2344zm7.897 7.4707c-.77 0-1.373-.2793-1.811-.8379h-.093c.062.5469.093.8633.093.9492v2.6543h-1.787v-9.4336h1.453l.252.8496h.082c.418-.6484 1.038-.9726 1.858-.9726.773 0 1.379.2988 1.816.8965.438.5976.656 1.4277.656 2.4902 0 .6992-.103 1.3066-.31 1.8223-.203.5156-.494.9082-.873 1.1777s-.824.4043-1.336.4043zm-.527-5.3613c-.442 0-.764.1367-.967.4101-.203.2695-.309.7168-.317 1.3418v.1934c0 .7031.104 1.207.311 1.5117.211.3047.543.457.996.457.801 0 1.201-.6601 1.201-1.9804 0-.6446-.099-1.127-.299-1.4473-.195-.3242-.504-.4863-.925-.4863zm5.793 1.8984-2.11-3.2051h2.028l1.271 2.086 1.284-2.086h2.027l-2.133 3.2051 2.232 3.3457h-2.033l-1.377-2.2441-1.383 2.2441h-2.027z" fill="#4091d2"/></svg>