<svg width="711" height="58" viewBox="0 0 711 58" fill="none" xmlns="http://www.w3.org/2000/svg"><path d="M14.3853 24H12.5981V15.4336H17.5083V16.9219H14.3853V19.1309H17.2915V20.6133H14.3853V24ZM20.3953 20.7129C20.3953 21.3613 20.5008 21.8516 20.7117 22.1836C20.9265 22.5156 21.2742 22.6816 21.7547 22.6816C22.2312 22.6816 22.573 22.5176 22.7801 22.1895C22.991 21.8574 23.0965 21.3652 23.0965 20.7129C23.0965 20.0645 22.991 19.5781 22.7801 19.2539C22.5691 18.9297 22.2234 18.7676 21.7429 18.7676C21.2664 18.7676 20.9226 18.9297 20.7117 19.2539C20.5008 19.5742 20.3953 20.0605 20.3953 20.7129ZM24.9246 20.7129C24.9246 21.7793 24.6433 22.6133 24.0808 23.2148C23.5183 23.8164 22.7351 24.1172 21.7312 24.1172C21.1023 24.1172 20.5476 23.9805 20.0672 23.707C19.5867 23.4297 19.2176 23.0332 18.9597 22.5176C18.7019 22.002 18.573 21.4004 18.573 20.7129C18.573 19.6426 18.8523 18.8105 19.4109 18.2168C19.9695 17.623 20.7547 17.3262 21.7664 17.3262C22.3953 17.3262 22.95 17.4629 23.4304 17.7363C23.9109 18.0098 24.2801 18.4023 24.5379 18.9141C24.7957 19.4258 24.9246 20.0254 24.9246 20.7129ZM32.376 24H30.5889V20.1738C30.5889 19.7012 30.5049 19.3477 30.337 19.1133C30.169 18.875 29.9014 18.7559 29.5342 18.7559C29.0342 18.7559 28.6729 18.9238 28.4502 19.2598C28.2276 19.5918 28.1163 20.1445 28.1163 20.918V24H26.3291V17.4492H27.6944L27.9346 18.2871H28.0342C28.2334 17.9707 28.5069 17.7324 28.8545 17.5723C29.2061 17.4082 29.6045 17.3262 30.0498 17.3262C30.8116 17.3262 31.3897 17.5332 31.7842 17.9473C32.1788 18.3574 32.376 18.9512 32.376 19.7285V24ZM36.9036 22.6934C37.2161 22.6934 37.5911 22.625 38.0286 22.4883V23.8184C37.5833 24.0176 37.0364 24.1172 36.388 24.1172C35.6732 24.1172 35.1517 23.9375 34.8236 23.5781C34.4993 23.2148 34.3372 22.6719 34.3372 21.9492V18.791H33.4818V18.0352L34.4661 17.4375L34.9818 16.0547H36.1243V17.4492H37.9583V18.791H36.1243V21.9492C36.1243 22.2031 36.1946 22.3906 36.3353 22.5117C36.4798 22.6328 36.6693 22.6934 36.9036 22.6934ZM38.7066 21.5156V20.0508H41.8531V21.5156H38.7066ZM47.6522 22.0547C47.6522 22.7266 47.4178 23.2383 46.9491 23.5898C46.4842 23.9414 45.787 24.1172 44.8573 24.1172C44.3807 24.1172 43.9745 24.084 43.6385 24.0176C43.3026 23.9551 42.9881 23.8613 42.6952 23.7363V22.2598C43.0272 22.416 43.4003 22.5469 43.8143 22.6523C44.2323 22.7578 44.5995 22.8105 44.9159 22.8105C45.5643 22.8105 45.8885 22.623 45.8885 22.248C45.8885 22.1074 45.8456 21.9941 45.7596 21.9082C45.6737 21.8184 45.5253 21.7188 45.3143 21.6094C45.1034 21.4961 44.8221 21.3652 44.4706 21.2168C43.9667 21.0059 43.5956 20.8105 43.3573 20.6309C43.1229 20.4512 42.951 20.2461 42.8417 20.0156C42.7362 19.7812 42.6835 19.4941 42.6835 19.1543C42.6835 18.5723 42.9081 18.123 43.3573 17.8066C43.8104 17.4863 44.451 17.3262 45.2792 17.3262C46.0682 17.3262 46.8358 17.498 47.5819 17.8418L47.0428 19.1309C46.7147 18.9902 46.4081 18.875 46.1229 18.7852C45.8378 18.6953 45.5467 18.6504 45.2499 18.6504C44.7225 18.6504 44.4588 18.793 44.4588 19.0781C44.4588 19.2383 44.5428 19.377 44.7108 19.4941C44.8827 19.6113 45.2557 19.7852 45.8299 20.0156C46.3417 20.2227 46.7167 20.416 46.9549 20.5957C47.1932 20.7754 47.369 20.9824 47.4823 21.2168C47.5956 21.4512 47.6522 21.7305 47.6522 22.0547ZM48.8986 15.7559C48.8986 15.1738 49.2228 14.8828 49.8712 14.8828C50.5197 14.8828 50.8439 15.1738 50.8439 15.7559C50.8439 16.0332 50.7618 16.25 50.5978 16.4062C50.4376 16.5586 50.1954 16.6348 49.8712 16.6348C49.2228 16.6348 48.8986 16.3418 48.8986 15.7559ZM50.7618 24H48.9747V17.4492H50.7618V24ZM57.1293 24H51.9555V22.9453L54.9906 18.8145H52.1371V17.4492H57.0238V18.6094L54.0707 22.6348H57.1293V24ZM61.071 18.5977C60.6921 18.5977 60.3952 18.7188 60.1803 18.9609C59.9655 19.1992 59.8425 19.5391 59.8112 19.9805H62.319C62.3112 19.5391 62.196 19.1992 61.9733 18.9609C61.7507 18.7188 61.4499 18.5977 61.071 18.5977ZM61.3229 24.1172C60.2682 24.1172 59.444 23.8262 58.8503 23.2441C58.2565 22.6621 57.9596 21.8379 57.9596 20.7715C57.9596 19.6738 58.2331 18.8262 58.78 18.2285C59.3307 17.627 60.0905 17.3262 61.0593 17.3262C61.985 17.3262 62.7057 17.5898 63.2214 18.1172C63.737 18.6445 63.9948 19.373 63.9948 20.3027V21.1699H59.7702C59.7897 21.6777 59.9401 22.0742 60.2214 22.3594C60.5026 22.6445 60.8971 22.7871 61.405 22.7871C61.7995 22.7871 62.1725 22.7461 62.5241 22.6641C62.8757 22.582 63.2428 22.4512 63.6257 22.2715V23.6543C63.3132 23.8105 62.9792 23.9258 62.6237 24C62.2682 24.0781 61.8346 24.1172 61.3229 24.1172ZM65.124 23.1621C65.124 22.834 65.2119 22.5859 65.3876 22.418C65.5634 22.25 65.8193 22.166 66.1552 22.166C66.4794 22.166 66.7294 22.252 66.9052 22.4238C67.0849 22.5957 67.1748 22.8418 67.1748 23.1621C67.1748 23.4707 67.0849 23.7148 66.9052 23.8945C66.7255 24.0703 66.4755 24.1582 66.1552 24.1582C65.8271 24.1582 65.5732 24.0723 65.3935 23.9004C65.2138 23.7246 65.124 23.4785 65.124 23.1621ZM65.124 18.3223C65.124 17.9941 65.2119 17.7461 65.3876 17.5781C65.5634 17.4102 65.8193 17.3262 66.1552 17.3262C66.4794 17.3262 66.7294 17.4121 66.9052 17.584C67.0849 17.7559 67.1748 18.002 67.1748 18.3223C67.1748 18.6387 67.083 18.8848 66.8994 19.0605C66.7197 19.2324 66.4716 19.3184 66.1552 19.3184C65.8271 19.3184 65.5732 19.2324 65.3935 19.0605C65.2138 18.8887 65.124 18.6426 65.124 18.3223ZM77.0503 24H71.4194V23.1621L73.6753 20.8945C74.3628 20.1992 74.8159 19.7031 75.0347 19.4062C75.2534 19.1094 75.4175 18.8203 75.5268 18.5391C75.6362 18.2578 75.6909 17.9551 75.6909 17.6309C75.6909 17.1738 75.5522 16.8125 75.2749 16.5469C74.9976 16.2773 74.6128 16.1426 74.1206 16.1426C73.7651 16.1426 73.4272 16.2012 73.1069 16.3184C72.7905 16.4355 72.437 16.6484 72.0464 16.957L71.5308 16.2949C72.3198 15.6387 73.1792 15.3105 74.1089 15.3105C74.9136 15.3105 75.5444 15.5176 76.0015 15.9316C76.4585 16.3418 76.687 16.8945 76.687 17.5898C76.687 18.1328 76.5347 18.6699 76.23 19.2012C75.9253 19.7324 75.355 20.4043 74.519 21.2168L72.644 23.0508V23.0977H77.0503V24ZM83.8923 19.7051C83.8923 21.1855 83.658 22.291 83.1892 23.0215C82.7244 23.752 82.0115 24.1172 81.0506 24.1172C80.1287 24.1172 79.4275 23.7441 78.947 22.998C78.4666 22.248 78.2263 21.1504 78.2263 19.7051C78.2263 18.2129 78.4588 17.1055 78.9236 16.3828C79.3884 15.6602 80.0974 15.2988 81.0506 15.2988C81.9802 15.2988 82.6853 15.6758 83.1658 16.4297C83.6502 17.1836 83.8923 18.2754 83.8923 19.7051ZM79.2107 19.7051C79.2107 20.9512 79.3572 21.8594 79.6502 22.4297C79.9431 22.9961 80.4099 23.2793 81.0506 23.2793C81.699 23.2793 82.1677 22.9922 82.4568 22.418C82.7498 21.8398 82.8963 20.9355 82.8963 19.7051C82.8963 18.4746 82.7498 17.5742 82.4568 17.0039C82.1677 16.4297 81.699 16.1426 81.0506 16.1426C80.4099 16.1426 79.9431 16.4258 79.6502 16.9922C79.3572 17.5547 79.2107 18.459 79.2107 19.7051ZM89.5977 22.248C89.5977 22.8457 89.375 23.3066 88.9297 23.6309C88.4844 23.9551 87.8594 24.1172 87.0547 24.1172C86.2032 24.1172 85.5391 23.9824 85.0625 23.7129V22.8105C85.3711 22.9668 85.7012 23.0898 86.0528 23.1797C86.4082 23.2695 86.75 23.3145 87.0782 23.3145C87.586 23.3145 87.9766 23.2344 88.25 23.0742C88.5235 22.9102 88.6602 22.6621 88.6602 22.3301C88.6602 22.0801 88.5508 21.8672 88.3321 21.6914C88.1172 21.5117 87.6954 21.3008 87.0664 21.0586C86.4688 20.8359 86.043 20.6426 85.7891 20.4785C85.5391 20.3105 85.3516 20.1211 85.2266 19.9102C85.1055 19.6992 85.045 19.4473 85.045 19.1543C85.045 18.6309 85.2579 18.2188 85.6836 17.918C86.1094 17.6133 86.6934 17.4609 87.4356 17.4609C88.127 17.4609 88.8028 17.6016 89.4629 17.8828L89.1172 18.6738C88.4727 18.4082 87.8887 18.2754 87.3653 18.2754C86.9043 18.2754 86.5567 18.3477 86.3223 18.4922C86.0879 18.6367 85.9707 18.8359 85.9707 19.0898C85.9707 19.2617 86.0137 19.4082 86.0996 19.5293C86.1895 19.6504 86.3321 19.7656 86.5274 19.875C86.7227 19.9844 87.0977 20.1426 87.6524 20.3496C88.4141 20.627 88.9278 20.9062 89.1934 21.1875C89.4629 21.4688 89.5977 21.8223 89.5977 22.248ZM94.1019 24.1172C93.6839 24.1172 93.3011 24.041 92.9534 23.8887C92.6097 23.7324 92.3206 23.4941 92.0862 23.1738H92.0159C92.0628 23.5488 92.0862 23.9043 92.0862 24.2402V26.8828H91.1136V17.5781H91.9046L92.0394 18.457H92.0862C92.3362 18.1055 92.6273 17.8516 92.9593 17.6953C93.2913 17.5391 93.6722 17.4609 94.1019 17.4609C94.9534 17.4609 95.6097 17.752 96.0706 18.334C96.5355 18.916 96.7679 19.7324 96.7679 20.7832C96.7679 21.8379 96.5315 22.6582 96.0589 23.2441C95.5901 23.8262 94.9378 24.1172 94.1019 24.1172ZM93.9612 18.2871C93.305 18.2871 92.8304 18.4688 92.5374 18.832C92.2444 19.1953 92.094 19.7734 92.0862 20.5664V20.7832C92.0862 21.6855 92.2366 22.332 92.5374 22.7227C92.8382 23.1094 93.3206 23.3027 93.9847 23.3027C94.5394 23.3027 94.973 23.0781 95.2855 22.6289C95.6019 22.1797 95.7601 21.5605 95.7601 20.7715C95.7601 19.9707 95.6019 19.3574 95.2855 18.9316C94.973 18.502 94.5315 18.2871 93.9612 18.2871ZM12.5981 35.4336H15.2642C16.479 35.4336 17.3599 35.6074 17.9067 35.9551C18.4575 36.2988 18.7329 36.8477 18.7329 37.6016C18.7329 38.1133 18.6118 38.5332 18.3696 38.8613C18.1313 39.1895 17.813 39.3867 17.4146 39.4531V39.5117C17.9575 39.6328 18.3481 39.8594 18.5864 40.1914C18.8286 40.5234 18.9497 40.9648 18.9497 41.5156C18.9497 42.2969 18.6665 42.9062 18.1001 43.3438C17.5376 43.7812 16.772 44 15.8032 44H12.5981V35.4336ZM14.4146 38.8262H15.4692C15.9614 38.8262 16.3169 38.75 16.5356 38.5977C16.7583 38.4453 16.8696 38.1934 16.8696 37.8418C16.8696 37.5137 16.7485 37.2793 16.5063 37.1387C16.2681 36.9941 15.8892 36.9219 15.3696 36.9219H14.4146V38.8262ZM14.4146 40.2676V42.5H15.5981C16.0981 42.5 16.4673 42.4043 16.7056 42.2129C16.9438 42.0215 17.063 41.7285 17.063 41.334C17.063 40.623 16.5552 40.2676 15.5396 40.2676H14.4146ZM21.8718 40.7129C21.8718 41.3613 21.9773 41.8516 22.1883 42.1836C22.4031 42.5156 22.7508 42.6816 23.2312 42.6816C23.7078 42.6816 24.0496 42.5176 24.2566 42.1895C24.4676 41.8574 24.573 41.3652 24.573 40.7129C24.573 40.0645 24.4676 39.5781 24.2566 39.2539C24.0457 38.9297 23.7 38.7676 23.2195 38.7676C22.7429 38.7676 22.3992 38.9297 22.1883 39.2539C21.9773 39.5742 21.8718 40.0605 21.8718 40.7129ZM26.4011 40.7129C26.4011 41.7793 26.1199 42.6133 25.5574 43.2148C24.9949 43.8164 24.2117 44.1172 23.2078 44.1172C22.5789 44.1172 22.0242 43.9805 21.5437 43.707C21.0633 43.4297 20.6941 43.0332 20.4363 42.5176C20.1785 42.002 20.0496 41.4004 20.0496 40.7129C20.0496 39.6426 20.3289 38.8105 20.8875 38.2168C21.4461 37.623 22.2312 37.3262 23.2429 37.3262C23.8718 37.3262 24.4265 37.4629 24.907 37.7363C25.3875 38.0098 25.7566 38.4023 26.0144 38.9141C26.2722 39.4258 26.4011 40.0254 26.4011 40.7129ZM31.462 37.3262C31.7041 37.3262 31.9053 37.3438 32.0655 37.3789L31.9307 39.0547C31.7862 39.0156 31.6104 38.9961 31.4034 38.9961C30.8331 38.9961 30.3877 39.1426 30.0674 39.4355C29.751 39.7285 29.5928 40.1387 29.5928 40.666V44H27.8057V37.4492H29.1592L29.4229 38.5508H29.5108C29.7139 38.1836 29.9873 37.8887 30.3311 37.666C30.6788 37.4395 31.0557 37.3262 31.462 37.3262ZM35.2571 44.1172C34.4876 44.1172 33.8821 43.8184 33.4407 43.2207C33.0032 42.623 32.7845 41.7949 32.7845 40.7363C32.7845 39.6621 33.0071 38.8262 33.4525 38.2285C33.9017 37.627 34.5189 37.3262 35.304 37.3262C36.1282 37.3262 36.7571 37.6465 37.1907 38.2871H37.2493C37.1595 37.7988 37.1146 37.3633 37.1146 36.9805V34.8828H38.9075V44H37.5364L37.1907 43.1504H37.1146C36.7083 43.7949 36.0892 44.1172 35.2571 44.1172ZM35.8841 42.6934C36.3411 42.6934 36.6751 42.5605 36.8861 42.2949C37.1009 42.0293 37.2181 41.5781 37.2376 40.9414V40.748C37.2376 40.0449 37.1282 39.541 36.9095 39.2363C36.6946 38.9316 36.3431 38.7793 35.8548 38.7793C35.4564 38.7793 35.1458 38.9492 34.9232 39.2891C34.7044 39.625 34.595 40.1152 34.595 40.7598C34.595 41.4043 34.7064 41.8887 34.929 42.2129C35.1517 42.5332 35.47 42.6934 35.8841 42.6934ZM43.4176 38.5977C43.0387 38.5977 42.7418 38.7188 42.5269 38.9609C42.3121 39.1992 42.1891 39.5391 42.1578 39.9805H44.6656C44.6578 39.5391 44.5426 39.1992 44.3199 38.9609C44.0973 38.7188 43.7965 38.5977 43.4176 38.5977ZM43.6695 44.1172C42.6148 44.1172 41.7906 43.8262 41.1969 43.2441C40.6031 42.6621 40.3062 41.8379 40.3062 40.7715C40.3062 39.6738 40.5797 38.8262 41.1266 38.2285C41.6773 37.627 42.4371 37.3262 43.4058 37.3262C44.3316 37.3262 45.0523 37.5898 45.568 38.1172C46.0836 38.6445 46.3414 39.373 46.3414 40.3027V41.1699H42.1168C42.1363 41.6777 42.2867 42.0742 42.568 42.3594C42.8492 42.6445 43.2437 42.7871 43.7516 42.7871C44.1461 42.7871 44.5191 42.7461 44.8707 42.6641C45.2223 42.582 45.5894 42.4512 45.9723 42.2715V43.6543C45.6598 43.8105 45.3258 43.9258 44.9703 44C44.6148 44.0781 44.1812 44.1172 43.6695 44.1172ZM51.3788 37.3262C51.621 37.3262 51.8221 37.3438 51.9823 37.3789L51.8475 39.0547C51.703 39.0156 51.5272 38.9961 51.3202 38.9961C50.7499 38.9961 50.3046 39.1426 49.9842 39.4355C49.6678 39.7285 49.5096 40.1387 49.5096 40.666V44H47.7225V37.4492H49.076L49.3397 38.5508H49.4276C49.6307 38.1836 49.9042 37.8887 50.2479 37.666C50.5956 37.4395 50.9725 37.3262 51.3788 37.3262ZM52.5197 41.5156V40.0508H55.6661V41.5156H52.5197ZM60.5512 37.3262C60.7934 37.3262 60.9945 37.3438 61.1547 37.3789L61.0199 39.0547C60.8754 39.0156 60.6996 38.9961 60.4926 38.9961C59.9223 38.9961 59.477 39.1426 59.1566 39.4355C58.8402 39.7285 58.682 40.1387 58.682 40.666V44H56.8949V37.4492H58.2484L58.5121 38.5508H58.6C58.8031 38.1836 59.0766 37.8887 59.4203 37.666C59.768 37.4395 60.1449 37.3262 60.5512 37.3262ZM66.4323 44L66.0866 43.1094H66.0397C65.7389 43.4883 65.4284 43.752 65.1081 43.9004C64.7917 44.0449 64.3776 44.1172 63.8659 44.1172C63.237 44.1172 62.7409 43.9375 62.3776 43.5781C62.0182 43.2188 61.8386 42.707 61.8386 42.043C61.8386 41.3477 62.0807 40.8359 62.5651 40.5078C63.0534 40.1758 63.7878 39.9922 64.7682 39.957L65.905 39.9219V39.6348C65.905 38.9707 65.5651 38.6387 64.8854 38.6387C64.362 38.6387 63.7468 38.7969 63.0397 39.1133L62.4479 37.9062C63.2018 37.5117 64.0378 37.3145 64.9557 37.3145C65.8346 37.3145 66.5085 37.5059 66.9772 37.8887C67.446 38.2715 67.6803 38.8535 67.6803 39.6348V44H66.4323ZM65.905 40.9648L65.2136 40.9883C64.694 41.0039 64.3073 41.0977 64.0534 41.2695C63.7995 41.4414 63.6725 41.7031 63.6725 42.0547C63.6725 42.5586 63.9616 42.8105 64.5397 42.8105C64.9538 42.8105 65.2839 42.6914 65.53 42.4531C65.78 42.2148 65.905 41.8984 65.905 41.5039V40.9648ZM71.5283 44.1172C70.7587 44.1172 70.1533 43.8184 69.7119 43.2207C69.2744 42.623 69.0556 41.7949 69.0556 40.7363C69.0556 39.6621 69.2783 38.8262 69.7236 38.2285C70.1728 37.627 70.79 37.3262 71.5751 37.3262C72.3994 37.3262 73.0283 37.6465 73.4619 38.2871H73.5205C73.4306 37.7988 73.3857 37.3633 73.3857 36.9805V34.8828H75.1787V44H73.8076L73.4619 43.1504H73.3857C72.9794 43.7949 72.3603 44.1172 71.5283 44.1172ZM72.1552 42.6934C72.6123 42.6934 72.9462 42.5605 73.1572 42.2949C73.372 42.0293 73.4892 41.5781 73.5087 40.9414V40.748C73.5087 40.0449 73.3994 39.541 73.1806 39.2363C72.9658 38.9316 72.6142 38.7793 72.1259 38.7793C71.7275 38.7793 71.4169 38.9492 71.1943 39.2891C70.9755 39.625 70.8662 40.1152 70.8662 40.7598C70.8662 41.4043 70.9775 41.8887 71.2001 42.2129C71.4228 42.5332 71.7412 42.6934 72.1552 42.6934ZM76.8996 35.7559C76.8996 35.1738 77.2238 34.8828 77.8723 34.8828C78.5207 34.8828 78.8449 35.1738 78.8449 35.7559C78.8449 36.0332 78.7629 36.25 78.5988 36.4062C78.4387 36.5586 78.1965 36.6348 77.8723 36.6348C77.2238 36.6348 76.8996 36.3418 76.8996 35.7559ZM78.7629 44H76.9758V37.4492H78.7629V44ZM85.2124 44L84.9722 43.1621H84.8784C84.687 43.4668 84.4155 43.7031 84.064 43.8711C83.7124 44.0352 83.312 44.1172 82.8628 44.1172C82.0933 44.1172 81.5132 43.9121 81.1226 43.502C80.7319 43.0879 80.5366 42.4941 80.5366 41.7207V37.4492H82.3237V41.2754C82.3237 41.748 82.4077 42.1035 82.5757 42.3418C82.7436 42.5762 83.0112 42.6934 83.3784 42.6934C83.8784 42.6934 84.2397 42.5273 84.4624 42.1953C84.6851 41.8594 84.7964 41.3047 84.7964 40.5312V37.4492H86.5835V44H85.2124ZM92.9568 42.0547C92.9568 42.7266 92.7224 43.2383 92.2537 43.5898C91.7888 43.9414 91.0916 44.1172 90.1619 44.1172C89.6853 44.1172 89.2791 44.084 88.9431 44.0176C88.6072 43.9551 88.2927 43.8613 87.9998 43.7363V42.2598C88.3318 42.416 88.7048 42.5469 89.1189 42.6523C89.5369 42.7578 89.9041 42.8105 90.2205 42.8105C90.8689 42.8105 91.1931 42.623 91.1931 42.248C91.1931 42.1074 91.1502 41.9941 91.0642 41.9082C90.9783 41.8184 90.8298 41.7188 90.6189 41.6094C90.408 41.4961 90.1267 41.3652 89.7752 41.2168C89.2713 41.0059 88.9002 40.8105 88.6619 40.6309C88.4275 40.4512 88.2556 40.2461 88.1463 40.0156C88.0408 39.7812 87.9881 39.4941 87.9881 39.1543C87.9881 38.5723 88.2127 38.123 88.6619 37.8066C89.115 37.4863 89.7556 37.3262 90.5838 37.3262C91.3728 37.3262 92.1404 37.498 92.8865 37.8418L92.3474 39.1309C92.0193 38.9902 91.7127 38.875 91.4275 38.7852C91.1423 38.6953 90.8513 38.6504 90.5545 38.6504C90.0271 38.6504 89.7634 38.793 89.7634 39.0781C89.7634 39.2383 89.8474 39.377 90.0154 39.4941C90.1873 39.6113 90.5603 39.7852 91.1345 40.0156C91.6463 40.2227 92.0213 40.416 92.2595 40.5957C92.4978 40.7754 92.6736 40.9824 92.7869 41.2168C92.9002 41.4512 92.9568 41.7305 92.9568 42.0547ZM94.0274 43.1621C94.0274 42.834 94.1153 42.5859 94.2911 42.418C94.4668 42.25 94.7227 42.166 95.0586 42.166C95.3829 42.166 95.6329 42.252 95.8086 42.4238C95.9883 42.5957 96.0782 42.8418 96.0782 43.1621C96.0782 43.4707 95.9883 43.7148 95.8086 43.8945C95.6289 44.0703 95.3789 44.1582 95.0586 44.1582C94.7305 44.1582 94.4766 44.0723 94.2969 43.9004C94.1172 43.7246 94.0274 43.4785 94.0274 43.1621ZM94.0274 38.3223C94.0274 37.9941 94.1153 37.7461 94.2911 37.5781C94.4668 37.4102 94.7227 37.3262 95.0586 37.3262C95.3829 37.3262 95.6329 37.4121 95.8086 37.584C95.9883 37.7559 96.0782 38.002 96.0782 38.3223C96.0782 38.6387 95.9864 38.8848 95.8028 39.0605C95.6231 39.2324 95.375 39.3184 95.0586 39.3184C94.7305 39.3184 94.4766 39.2324 94.2969 39.0605C94.1172 38.8887 94.0274 38.6426 94.0274 38.3223ZM100.422 40.3379C100.422 38.6543 100.749 37.3965 101.401 36.5645C102.057 35.7285 103.026 35.3105 104.307 35.3105C104.749 35.3105 105.096 35.3477 105.35 35.4219V36.2598C105.049 36.1621 104.706 36.1133 104.319 36.1133C103.401 36.1133 102.7 36.4004 102.215 36.9746C101.731 37.5449 101.465 38.4434 101.419 39.6699H101.489C101.919 38.998 102.598 38.6621 103.528 38.6621C104.297 38.6621 104.903 38.8945 105.344 39.3594C105.79 39.8242 106.012 40.4551 106.012 41.252C106.012 42.1426 105.768 42.8438 105.28 43.3555C104.795 43.8633 104.139 44.1172 103.311 44.1172C102.424 44.1172 101.721 43.7852 101.202 43.1211C100.682 42.4531 100.422 41.5254 100.422 40.3379ZM103.299 43.291C103.854 43.291 104.284 43.1172 104.588 42.7695C104.897 42.418 105.051 41.9121 105.051 41.252C105.051 40.6855 104.909 40.2402 104.624 39.916C104.338 39.5918 103.913 39.4297 103.346 39.4297C102.995 39.4297 102.672 39.502 102.379 39.6465C102.087 39.791 101.852 39.9902 101.676 40.2441C101.504 40.498 101.419 40.7617 101.419 41.0352C101.419 41.4375 101.497 41.8125 101.653 42.1602C101.809 42.5078 102.03 42.7832 102.315 42.9863C102.604 43.1895 102.932 43.291 103.299 43.291ZM111.934 43.1387H111.882C111.432 43.791 110.761 44.1172 109.866 44.1172C109.026 44.1172 108.372 43.8301 107.903 43.2559C107.438 42.6816 107.206 41.8652 107.206 40.8066C107.206 39.748 107.44 38.9258 107.909 38.3398C108.378 37.7539 109.03 37.4609 109.866 37.4609C110.737 37.4609 111.405 37.7773 111.87 38.4102H111.946L111.905 37.9473L111.882 37.4961V34.8828H112.854V44H112.063L111.934 43.1387ZM109.989 43.3027C110.653 43.3027 111.134 43.123 111.431 42.7637C111.731 42.4004 111.882 41.8164 111.882 41.0117V40.8066C111.882 39.8965 111.729 39.248 111.425 38.8613C111.124 38.4707 110.641 38.2754 109.977 38.2754C109.407 38.2754 108.97 38.498 108.665 38.9434C108.364 39.3848 108.214 40.0098 108.214 40.8184C108.214 41.6387 108.364 42.2578 108.665 42.6758C108.966 43.0938 109.407 43.3027 109.989 43.3027ZM117.839 44.1172C117.421 44.1172 117.038 44.041 116.691 43.8887C116.347 43.7324 116.058 43.4941 115.823 43.1738H115.753C115.8 43.5488 115.823 43.9043 115.823 44.2402V46.8828H114.851V37.5781H115.642L115.776 38.457H115.823C116.073 38.1055 116.364 37.8516 116.696 37.6953C117.028 37.5391 117.409 37.4609 117.839 37.4609C118.691 37.4609 119.347 37.752 119.808 38.334C120.273 38.916 120.505 39.7324 120.505 40.7832C120.505 41.8379 120.269 42.6582 119.796 43.2441C119.327 43.8262 118.675 44.1172 117.839 44.1172ZM117.698 38.2871C117.042 38.2871 116.568 38.4688 116.275 38.832C115.982 39.1953 115.831 39.7734 115.823 40.5664V40.7832C115.823 41.6855 115.974 42.332 116.275 42.7227C116.575 43.1094 117.058 43.3027 117.722 43.3027C118.276 43.3027 118.71 43.0781 119.023 42.6289C119.339 42.1797 119.497 41.5605 119.497 40.7715C119.497 39.9707 119.339 39.3574 119.023 38.9316C118.71 38.502 118.269 38.2871 117.698 38.2871Z" fill="#000"/><path d="M1 55V3H139.421V13.0971L146.625 20.6699L139.421 27.7379V55H1Z" stroke="#CCC"/><path d="M164.814 34H163.706V26.877C163.706 26.2845 163.724 25.724 163.761 25.1953C163.665 25.291 163.558 25.3913 163.44 25.4961C163.321 25.6009 162.779 26.0452 161.813 26.8291L161.211 26.0498L163.856 24.0059H164.814V34ZM168.653 29.7275C168.653 27.7633 169.034 26.2959 169.795 25.3252C170.561 24.3499 171.691 23.8623 173.186 23.8623C173.701 23.8623 174.106 23.9056 174.402 23.9922V24.9697C174.051 24.8558 173.65 24.7988 173.199 24.7988C172.128 24.7988 171.31 25.1338 170.745 25.8037C170.18 26.4691 169.87 27.5173 169.815 28.9482H169.897C170.399 28.1644 171.192 27.7725 172.276 27.7725C173.174 27.7725 173.881 28.0436 174.396 28.5859C174.915 29.1283 175.175 29.8643 175.175 30.7939C175.175 31.833 174.89 32.651 174.32 33.248C173.755 33.8405 172.99 34.1367 172.023 34.1367C170.989 34.1367 170.169 33.7493 169.563 32.9746C168.956 32.1953 168.653 31.113 168.653 29.7275ZM172.01 33.1729C172.657 33.1729 173.158 32.9701 173.514 32.5645C173.874 32.1543 174.054 31.5641 174.054 30.7939C174.054 30.1331 173.887 29.6136 173.555 29.2354C173.222 28.8571 172.725 28.668 172.064 28.668C171.654 28.668 171.278 28.7523 170.937 28.9209C170.595 29.0895 170.321 29.3219 170.116 29.6182C169.916 29.9144 169.815 30.222 169.815 30.541C169.815 31.0104 169.907 31.4479 170.089 31.8535C170.271 32.2591 170.529 32.5804 170.861 32.8174C171.199 33.0544 171.581 33.1729 172.01 33.1729ZM180.471 34.1367C179.983 34.1367 179.536 34.0479 179.131 33.8701C178.73 33.6878 178.393 33.4098 178.119 33.0361H178.037C178.092 33.4736 178.119 33.8883 178.119 34.2803V37.3633H176.984V26.5078H177.907L178.064 27.5332H178.119C178.411 27.123 178.75 26.8268 179.138 26.6445C179.525 26.4622 179.969 26.3711 180.471 26.3711C181.464 26.3711 182.23 26.7106 182.768 27.3896C183.31 28.0687 183.581 29.0212 183.581 30.2471C183.581 31.4775 183.305 32.4346 182.754 33.1182C182.207 33.7972 181.446 34.1367 180.471 34.1367ZM180.307 27.335C179.541 27.335 178.987 27.5469 178.646 27.9707C178.304 28.3945 178.128 29.069 178.119 29.9941V30.2471C178.119 31.2998 178.295 32.054 178.646 32.5098C178.996 32.9609 179.559 33.1865 180.334 33.1865C180.981 33.1865 181.487 32.9245 181.852 32.4004C182.221 31.8763 182.405 31.154 182.405 30.2334C182.405 29.2992 182.221 28.5837 181.852 28.0869C181.487 27.5856 180.972 27.335 180.307 27.335ZM187.291 30.165L184.687 26.5078H185.979L187.954 29.3789L189.923 26.5078H191.201L188.597 30.165L191.338 34H190.053L187.954 30.9648L185.835 34H184.55L187.291 30.165Z" fill="#E8178A"/><rect x="201.125" y="1.5" width="409" height="55" stroke="#F0F" stroke-dasharray="2 2"/><g clip-path="url(#clip0_7345_87069)"><rect x="201.5" y="2" width="408" height="54" rx="6" fill="#DCEDF9"/><path d="M219.954 31C219.954 32.798 220.292 34.5784 220.947 36.2396C221.603 37.9007 222.564 39.4101 223.775 40.6815C224.987 41.9529 226.425 42.9614 228.008 43.6495C229.59 44.3375 231.287 44.6917 233 44.6917C234.713 44.6917 236.41 44.3375 237.992 43.6495C239.575 42.9614 241.013 41.9529 242.225 40.6815C243.436 39.4101 244.397 37.9007 245.053 36.2396C245.708 34.5784 246.046 32.798 246.046 31C246.046 29.202 245.708 27.4216 245.053 25.7604C244.397 24.0993 243.436 22.5899 242.225 21.3185C241.013 20.0472 239.575 19.0386 237.992 18.3506C236.41 17.6625 234.713 17.3083 233 17.3083C231.287 17.3083 229.59 17.6625 228.008 18.3506C226.425 19.0386 224.987 20.0472 223.775 21.3185C222.564 22.5899 221.603 24.0993 220.947 25.7604C220.292 27.4216 219.954 29.202 219.954 31V31Z" fill="#019AEB"/><path d="M233 18.4709C239.91 18.4709 245.529 24.0896 245.529 31C245.529 37.9104 239.91 43.5292 233 43.5292C226.089 43.5292 220.471 37.9104 220.471 31C220.471 24.0896 226.089 18.4709 233 18.4709ZM233 16.275C224.862 16.275 218.275 22.8625 218.275 31C218.275 39.1375 224.862 45.725 233 45.725C241.137 45.725 247.725 39.1375 247.725 31C247.725 22.8625 241.137 16.275 233 16.275Z" fill="#0E416C"/><path d="M234.421 35.327H235.454V37.2645H230.546V35.327H232.031V30.8062H230.546V28.8041H234.421V35.327V35.327ZM231.902 27.577H234.421V24.7354H231.902V27.577Z" fill="#fff"/><path d="M270.838 37H269.168V24.1875H264.676V22.7227H275.311V24.1875H270.838V37ZM278.996 26.2969V37H277.375V26.2969H278.996ZM278.205 22.293C278.472 22.293 278.699 22.3809 278.888 22.5566C279.084 22.7259 279.181 22.9928 279.181 23.3574C279.181 23.7155 279.084 23.9824 278.888 24.1582C278.699 24.334 278.472 24.4219 278.205 24.4219C277.925 24.4219 277.69 24.334 277.502 24.1582C277.319 23.9824 277.228 23.7155 277.228 23.3574C277.228 22.9928 277.319 22.7259 277.502 22.5566C277.69 22.3809 277.925 22.293 278.205 22.293ZM287.612 26.1016C288.947 26.1016 290.012 26.5605 290.806 27.4785C291.6 28.3965 291.997 29.7767 291.997 31.6191C291.997 32.8366 291.815 33.8587 291.45 34.6855C291.086 35.5124 290.571 36.1374 289.907 36.5605C289.25 36.9837 288.472 37.1953 287.573 37.1953C287.007 37.1953 286.509 37.1204 286.079 36.9707C285.65 36.821 285.282 36.6191 284.976 36.3652C284.67 36.1113 284.416 35.8346 284.214 35.5352H284.097C284.116 35.7891 284.139 36.0951 284.165 36.4531C284.198 36.8112 284.214 37.1237 284.214 37.3906V41.7852H282.583V26.2969H283.921L284.136 27.8789H284.214C284.422 27.5534 284.676 27.2572 284.976 26.9902C285.275 26.7168 285.64 26.502 286.07 26.3457C286.506 26.1829 287.02 26.1016 287.612 26.1016ZM287.329 27.4688C286.587 27.4688 285.988 27.612 285.532 27.8984C285.083 28.1849 284.754 28.6146 284.546 29.1875C284.338 29.7539 284.227 30.4668 284.214 31.3262V31.6387C284.214 32.5436 284.312 33.3086 284.507 33.9336C284.709 34.5586 285.038 35.0339 285.493 35.3594C285.956 35.6849 286.574 35.8477 287.349 35.8477C288.013 35.8477 288.566 35.6686 289.009 35.3105C289.452 34.9525 289.78 34.4544 289.995 33.8164C290.217 33.1719 290.327 32.4329 290.327 31.5996C290.327 30.3366 290.08 29.334 289.585 28.5918C289.097 27.8431 288.345 27.4688 287.329 27.4688ZM309.553 31.6289C309.553 32.5078 309.439 33.2923 309.211 33.9824C308.983 34.6725 308.655 35.2552 308.225 35.7305C307.795 36.2057 307.274 36.5703 306.662 36.8242C306.057 37.0716 305.37 37.1953 304.602 37.1953C303.886 37.1953 303.228 37.0716 302.629 36.8242C302.037 36.5703 301.523 36.2057 301.086 35.7305C300.657 35.2552 300.321 34.6725 300.08 33.9824C299.846 33.2923 299.729 32.5078 299.729 31.6289C299.729 30.457 299.927 29.4609 300.325 28.6406C300.722 27.8138 301.288 27.1855 302.024 26.7559C302.766 26.3197 303.648 26.1016 304.67 26.1016C305.647 26.1016 306.5 26.3197 307.229 26.7559C307.965 27.1921 308.534 27.8236 308.938 28.6504C309.348 29.4707 309.553 30.4635 309.553 31.6289ZM301.409 31.6289C301.409 32.4883 301.523 33.2337 301.75 33.8652C301.978 34.4967 302.33 34.985 302.805 35.3301C303.28 35.6751 303.892 35.8477 304.641 35.8477C305.383 35.8477 305.992 35.6751 306.467 35.3301C306.949 34.985 307.304 34.4967 307.532 33.8652C307.76 33.2337 307.873 32.4883 307.873 31.6289C307.873 30.776 307.76 30.0404 307.532 29.4219C307.304 28.7969 306.952 28.3151 306.477 27.9766C306.002 27.638 305.386 27.4688 304.631 27.4688C303.518 27.4688 302.701 27.8366 302.18 28.5723C301.666 29.3079 301.409 30.3268 301.409 31.6289ZM317.369 26.1016C317.584 26.1016 317.809 26.1146 318.043 26.1406C318.277 26.1602 318.486 26.1895 318.668 26.2285L318.463 27.7324C318.287 27.6868 318.092 27.651 317.877 27.625C317.662 27.599 317.46 27.5859 317.271 27.5859C316.842 27.5859 316.435 27.6738 316.051 27.8496C315.673 28.0189 315.341 28.2663 315.055 28.5918C314.768 28.9108 314.544 29.2982 314.381 29.7539C314.218 30.2031 314.137 30.7044 314.137 31.2578V37H312.506V26.2969H313.854L314.029 28.2695H314.098C314.319 27.8724 314.586 27.5111 314.898 27.1855C315.211 26.8535 315.572 26.5898 315.982 26.3945C316.399 26.1992 316.861 26.1016 317.369 26.1016ZM326.429 37V22.7227H328.089V37H326.429ZM336.989 26.1016C338.259 26.1016 339.219 26.4141 339.87 27.0391C340.521 27.6576 340.846 28.6536 340.846 30.0273V37H339.245V30.1348C339.245 29.2428 339.04 28.5755 338.63 28.1328C338.226 27.6901 337.604 27.4688 336.764 27.4688C335.58 27.4688 334.746 27.804 334.264 28.4746C333.783 29.1452 333.542 30.1185 333.542 31.3945V37H331.921V26.2969H333.229L333.473 27.8398H333.561C333.789 27.4622 334.079 27.1465 334.43 26.8926C334.782 26.6322 335.176 26.4368 335.612 26.3066C336.048 26.1699 336.507 26.1016 336.989 26.1016ZM349.102 27.5664H346.436V37H344.815V27.5664H342.92V26.7852L344.815 26.248V25.5352C344.815 24.6367 344.948 23.9076 345.215 23.3477C345.482 22.7812 345.87 22.3646 346.377 22.0977C346.885 21.8307 347.504 21.6973 348.233 21.6973C348.643 21.6973 349.017 21.7331 349.356 21.8047C349.701 21.8763 350.004 21.9577 350.264 22.0488L349.844 23.3281C349.623 23.2565 349.372 23.1914 349.092 23.1328C348.819 23.0677 348.539 23.0352 348.252 23.0352C347.634 23.0352 347.175 23.237 346.875 23.6406C346.582 24.0378 346.436 24.6628 346.436 25.5156V26.2969H349.102V27.5664ZM360.453 31.6289C360.453 32.5078 360.339 33.2923 360.111 33.9824C359.883 34.6725 359.555 35.2552 359.125 35.7305C358.695 36.2057 358.174 36.5703 357.562 36.8242C356.957 37.0716 356.27 37.1953 355.502 37.1953C354.786 37.1953 354.128 37.0716 353.529 36.8242C352.937 36.5703 352.423 36.2057 351.986 35.7305C351.557 35.2552 351.221 34.6725 350.98 33.9824C350.746 33.2923 350.629 32.5078 350.629 31.6289C350.629 30.457 350.827 29.4609 351.225 28.6406C351.622 27.8138 352.188 27.1855 352.924 26.7559C353.666 26.3197 354.548 26.1016 355.57 26.1016C356.547 26.1016 357.4 26.3197 358.129 26.7559C358.865 27.1921 359.434 27.8236 359.838 28.6504C360.248 29.4707 360.453 30.4635 360.453 31.6289ZM352.309 31.6289C352.309 32.4883 352.423 33.2337 352.65 33.8652C352.878 34.4967 353.23 34.985 353.705 35.3301C354.18 35.6751 354.792 35.8477 355.541 35.8477C356.283 35.8477 356.892 35.6751 357.367 35.3301C357.849 34.985 358.204 34.4967 358.432 33.8652C358.66 33.2337 358.773 32.4883 358.773 31.6289C358.773 30.776 358.66 30.0404 358.432 29.4219C358.204 28.7969 357.852 28.3151 357.377 27.9766C356.902 27.638 356.286 27.4688 355.531 27.4688C354.418 27.4688 353.601 27.8366 353.08 28.5723C352.566 29.3079 352.309 30.3268 352.309 31.6289ZM367.843 32.3516V30.9062H372.687V32.3516H367.843ZM389.403 36.9805L387.498 30.75C387.414 30.4831 387.332 30.2227 387.254 29.9688C387.183 29.7083 387.114 29.4609 387.049 29.2266C386.991 28.9857 386.935 28.7643 386.883 28.5625C386.838 28.3542 386.799 28.1751 386.766 28.0254H386.698C386.672 28.1751 386.636 28.3542 386.59 28.5625C386.545 28.7643 386.489 28.9857 386.424 29.2266C386.366 29.4674 386.301 29.7214 386.229 29.9883C386.157 30.2487 386.076 30.5124 385.985 30.7793L383.993 36.9805H382.166L379.217 26.2773H380.897L382.44 32.1855C382.544 32.5762 382.642 32.9635 382.733 33.3477C382.83 33.7253 382.912 34.0833 382.977 34.4219C383.049 34.7539 383.101 35.0436 383.133 35.291H383.211C383.25 35.1283 383.293 34.9329 383.338 34.7051C383.39 34.4772 383.446 34.2363 383.504 33.9824C383.569 33.722 383.638 33.4648 383.709 33.2109C383.781 32.9505 383.853 32.7064 383.924 32.4785L385.897 26.2773H387.645L389.549 32.4688C389.647 32.7812 389.741 33.1068 389.832 33.4453C389.93 33.7839 390.018 34.1126 390.096 34.4316C390.174 34.7441 390.23 35.0241 390.262 35.2715H390.34C390.366 35.0501 390.415 34.7767 390.487 34.4512C390.558 34.1257 390.64 33.7676 390.731 33.377C390.829 32.9863 390.929 32.5892 391.034 32.1855L392.596 26.2773H394.246L391.287 36.9805H389.403ZM401.213 26.1016C401.428 26.1016 401.652 26.1146 401.887 26.1406C402.121 26.1602 402.329 26.1895 402.512 26.2285L402.307 27.7324C402.131 27.6868 401.936 27.651 401.721 27.625C401.506 27.599 401.304 27.5859 401.115 27.5859C400.686 27.5859 400.279 27.6738 399.895 27.8496C399.517 28.0189 399.185 28.2663 398.898 28.5918C398.612 28.9108 398.387 29.2982 398.225 29.7539C398.062 30.2031 397.98 30.7044 397.98 31.2578V37H396.35V26.2969H397.697L397.873 28.2695H397.941C398.163 27.8724 398.43 27.5111 398.742 27.1855C399.055 26.8535 399.416 26.5898 399.826 26.3945C400.243 26.1992 400.705 26.1016 401.213 26.1016ZM406.304 26.2969V37H404.683V26.2969H406.304ZM405.513 22.293C405.78 22.293 406.008 22.3809 406.197 22.5566C406.392 22.7259 406.49 22.9928 406.49 23.3574C406.49 23.7155 406.392 23.9824 406.197 24.1582C406.008 24.334 405.78 24.4219 405.513 24.4219C405.233 24.4219 404.999 24.334 404.81 24.1582C404.628 23.9824 404.537 23.7155 404.537 23.3574C404.537 22.9928 404.628 22.7259 404.81 22.5566C404.999 22.3809 405.233 22.293 405.513 22.293ZM413.349 35.8672C413.616 35.8672 413.889 35.8444 414.169 35.7988C414.449 35.7533 414.677 35.6979 414.853 35.6328V36.8926C414.664 36.9772 414.4 37.0488 414.062 37.1074C413.73 37.166 413.404 37.1953 413.085 37.1953C412.519 37.1953 412.004 37.0977 411.542 36.9023C411.08 36.7005 410.709 36.362 410.429 35.8867C410.155 35.4115 410.019 34.7539 410.019 33.9141V27.5664H408.495V26.7754L410.029 26.1406L410.673 23.8164H411.65V26.2969H414.784V27.5664H411.65V33.8652C411.65 34.5358 411.803 35.0371 412.109 35.3691C412.421 35.7012 412.835 35.8672 413.349 35.8672ZM421.292 26.1016C422.203 26.1016 422.985 26.3034 423.636 26.707C424.287 27.1107 424.785 27.6771 425.13 28.4062C425.475 29.1289 425.647 29.9753 425.647 30.9453V31.9512H418.255C418.274 33.2077 418.587 34.1647 419.192 34.8223C419.798 35.4798 420.651 35.8086 421.751 35.8086C422.428 35.8086 423.027 35.7467 423.548 35.623C424.068 35.4993 424.609 35.3171 425.169 35.0762V36.502C424.628 36.7428 424.091 36.9186 423.557 37.0293C423.03 37.14 422.405 37.1953 421.682 37.1953C420.654 37.1953 419.755 36.987 418.987 36.5703C418.225 36.1471 417.633 35.5286 417.21 34.7148C416.787 33.901 416.575 32.9049 416.575 31.7266C416.575 30.5742 416.767 29.5781 417.151 28.7383C417.542 27.8919 418.089 27.2409 418.792 26.7852C419.501 26.3294 420.335 26.1016 421.292 26.1016ZM421.272 27.4297C420.406 27.4297 419.716 27.7129 419.202 28.2793C418.688 28.8457 418.382 29.6367 418.284 30.6523H423.948C423.942 30.0143 423.841 29.4544 423.645 28.9727C423.457 28.4844 423.167 28.1068 422.776 27.8398C422.386 27.5664 421.884 27.4297 421.272 27.4297ZM440.82 34.0703C440.82 34.7539 440.648 35.3301 440.303 35.7988C439.964 36.2611 439.476 36.6094 438.838 36.8438C438.206 37.0781 437.451 37.1953 436.572 37.1953C435.824 37.1953 435.176 37.1367 434.629 37.0195C434.082 36.9023 433.604 36.7363 433.193 36.5215V35.0273C433.63 35.2422 434.15 35.4375 434.756 35.6133C435.361 35.7891 435.98 35.877 436.611 35.877C437.536 35.877 438.206 35.7272 438.623 35.4277C439.04 35.1283 439.248 34.7214 439.248 34.207C439.248 33.9141 439.163 33.6569 438.994 33.4355C438.831 33.2077 438.555 32.9896 438.164 32.7812C437.773 32.5664 437.233 32.332 436.543 32.0781C435.859 31.8177 435.267 31.5605 434.766 31.3066C434.271 31.0462 433.887 30.7305 433.613 30.3594C433.346 29.9883 433.213 29.5065 433.213 28.9141C433.213 28.0091 433.577 27.3158 434.307 26.834C435.042 26.3457 436.006 26.1016 437.197 26.1016C437.842 26.1016 438.444 26.1667 439.004 26.2969C439.57 26.4206 440.098 26.5898 440.586 26.8047L440.039 28.1035C439.596 27.9147 439.124 27.7552 438.623 27.625C438.122 27.4948 437.611 27.4297 437.09 27.4297C436.341 27.4297 435.765 27.5534 435.361 27.8008C434.964 28.0482 434.766 28.3867 434.766 28.8164C434.766 29.1484 434.857 29.4219 435.039 29.6367C435.228 29.8516 435.527 30.0534 435.938 30.2422C436.348 30.431 436.888 30.6523 437.559 30.9062C438.229 31.1536 438.809 31.4108 439.297 31.6777C439.785 31.9382 440.16 32.2572 440.42 32.6348C440.687 33.0059 440.82 33.4844 440.82 34.0703ZM452.806 31.6289C452.806 32.5078 452.692 33.2923 452.464 33.9824C452.237 34.6725 451.908 35.2552 451.478 35.7305C451.048 36.2057 450.528 36.5703 449.916 36.8242C449.31 37.0716 448.623 37.1953 447.855 37.1953C447.139 37.1953 446.481 37.0716 445.882 36.8242C445.29 36.5703 444.776 36.2057 444.339 35.7305C443.91 35.2552 443.574 34.6725 443.334 33.9824C443.099 33.2923 442.982 32.5078 442.982 31.6289C442.982 30.457 443.181 29.4609 443.578 28.6406C443.975 27.8138 444.541 27.1855 445.277 26.7559C446.019 26.3197 446.901 26.1016 447.923 26.1016C448.9 26.1016 449.753 26.3197 450.482 26.7559C451.218 27.1921 451.787 27.8236 452.191 28.6504C452.601 29.4707 452.806 30.4635 452.806 31.6289ZM444.662 31.6289C444.662 32.4883 444.776 33.2337 445.004 33.8652C445.231 34.4967 445.583 34.985 446.058 35.3301C446.533 35.6751 447.145 35.8477 447.894 35.8477C448.636 35.8477 449.245 35.6751 449.72 35.3301C450.202 34.985 450.557 34.4967 450.785 33.8652C451.013 33.2337 451.127 32.4883 451.127 31.6289C451.127 30.776 451.013 30.0404 450.785 29.4219C450.557 28.7969 450.205 28.3151 449.73 27.9766C449.255 27.638 448.64 27.4688 447.884 27.4688C446.771 27.4688 445.954 27.8366 445.433 28.5723C444.919 29.3079 444.662 30.3268 444.662 31.6289ZM467.38 26.1016C468.558 26.1016 469.447 26.4108 470.046 27.0293C470.645 27.6413 470.945 28.6276 470.945 29.9883V37H469.343V30.0664C469.343 29.2005 469.154 28.5527 468.777 28.123C468.405 27.6868 467.852 27.4688 467.116 27.4688C466.081 27.4688 465.329 27.7682 464.861 28.3672C464.392 28.9661 464.157 29.8483 464.157 31.0137V37H462.546V30.0664C462.546 29.487 462.461 29.0052 462.292 28.6211C462.129 28.237 461.882 27.9505 461.55 27.7617C461.224 27.5664 460.811 27.4688 460.31 27.4688C459.6 27.4688 459.03 27.6152 458.601 27.9082C458.171 28.2012 457.859 28.6374 457.663 29.2168C457.474 29.7897 457.38 30.4961 457.38 31.3359V37H455.759V26.2969H457.068L457.312 27.8105H457.4C457.614 27.4395 457.885 27.127 458.21 26.873C458.536 26.6191 458.9 26.4271 459.304 26.2969C459.708 26.1667 460.137 26.1016 460.593 26.1016C461.407 26.1016 462.087 26.2546 462.634 26.5605C463.187 26.86 463.588 27.319 463.835 27.9375H463.923C464.275 27.319 464.756 26.86 465.368 26.5605C465.98 26.2546 466.651 26.1016 467.38 26.1016ZM478.546 26.1016C479.457 26.1016 480.238 26.3034 480.889 26.707C481.54 27.1107 482.039 27.6771 482.384 28.4062C482.729 29.1289 482.901 29.9753 482.901 30.9453V31.9512H475.509C475.528 33.2077 475.841 34.1647 476.446 34.8223C477.052 35.4798 477.904 35.8086 479.005 35.8086C479.682 35.8086 480.281 35.7467 480.802 35.623C481.322 35.4993 481.863 35.3171 482.423 35.0762V36.502C481.882 36.7428 481.345 36.9186 480.811 37.0293C480.284 37.14 479.659 37.1953 478.936 37.1953C477.908 37.1953 477.009 36.987 476.241 36.5703C475.479 36.1471 474.887 35.5286 474.464 34.7148C474.04 33.901 473.829 32.9049 473.829 31.7266C473.829 30.5742 474.021 29.5781 474.405 28.7383C474.796 27.8919 475.343 27.2409 476.046 26.7852C476.755 26.3294 477.589 26.1016 478.546 26.1016ZM478.526 27.4297C477.66 27.4297 476.97 27.7129 476.456 28.2793C475.942 28.8457 475.636 29.6367 475.538 30.6523H481.202C481.195 30.0143 481.095 29.4544 480.899 28.9727C480.71 28.4844 480.421 28.1068 480.03 27.8398C479.639 27.5664 479.138 27.4297 478.526 27.4297ZM499.988 26.2969V37H498.66L498.426 35.4961H498.338C498.117 35.8672 497.83 36.1797 497.479 36.4336C497.127 36.6875 496.73 36.8763 496.287 37C495.851 37.1302 495.385 37.1953 494.891 37.1953C494.044 37.1953 493.335 37.0586 492.762 36.7852C492.189 36.5117 491.756 36.0885 491.463 35.5156C491.176 34.9427 491.033 34.207 491.033 33.3086V26.2969H492.674V33.1914C492.674 34.0833 492.876 34.7507 493.279 35.1934C493.683 35.6296 494.298 35.8477 495.125 35.8477C495.919 35.8477 496.551 35.6979 497.02 35.3984C497.495 35.099 497.837 34.6595 498.045 34.0801C498.253 33.4941 498.357 32.778 498.357 31.9316V26.2969H499.988ZM510.49 34.0703C510.49 34.7539 510.317 35.3301 509.972 35.7988C509.634 36.2611 509.145 36.6094 508.507 36.8438C507.876 37.0781 507.121 37.1953 506.242 37.1953C505.493 37.1953 504.845 37.1367 504.298 37.0195C503.752 36.9023 503.273 36.7363 502.863 36.5215V35.0273C503.299 35.2422 503.82 35.4375 504.425 35.6133C505.031 35.7891 505.649 35.877 506.281 35.877C507.205 35.877 507.876 35.7272 508.293 35.4277C508.709 35.1283 508.918 34.7214 508.918 34.207C508.918 33.9141 508.833 33.6569 508.664 33.4355C508.501 33.2077 508.224 32.9896 507.834 32.7812C507.443 32.5664 506.903 32.332 506.212 32.0781C505.529 31.8177 504.936 31.5605 504.435 31.3066C503.94 31.0462 503.556 30.7305 503.283 30.3594C503.016 29.9883 502.882 29.5065 502.882 28.9141C502.882 28.0091 503.247 27.3158 503.976 26.834C504.712 26.3457 505.675 26.1016 506.867 26.1016C507.511 26.1016 508.114 26.1667 508.673 26.2969C509.24 26.4206 509.767 26.5898 510.255 26.8047L509.709 28.1035C509.266 27.9147 508.794 27.7552 508.293 27.625C507.791 27.4948 507.28 27.4297 506.759 27.4297C506.011 27.4297 505.434 27.5534 505.031 27.8008C504.634 28.0482 504.435 28.3867 504.435 28.8164C504.435 29.1484 504.526 29.4219 504.709 29.6367C504.897 29.8516 505.197 30.0534 505.607 30.2422C506.017 30.431 506.558 30.6523 507.228 30.9062C507.899 31.1536 508.478 31.4108 508.966 31.6777C509.455 31.9382 509.829 32.2572 510.089 32.6348C510.356 33.0059 510.49 33.4844 510.49 34.0703ZM517.368 26.1016C518.28 26.1016 519.061 26.3034 519.712 26.707C520.363 27.1107 520.861 27.6771 521.206 28.4062C521.551 29.1289 521.724 29.9753 521.724 30.9453V31.9512H514.331C514.351 33.2077 514.663 34.1647 515.269 34.8223C515.874 35.4798 516.727 35.8086 517.827 35.8086C518.504 35.8086 519.103 35.7467 519.624 35.623C520.145 35.4993 520.685 35.3171 521.245 35.0762V36.502C520.705 36.7428 520.168 36.9186 519.634 37.0293C519.107 37.14 518.482 37.1953 517.759 37.1953C516.73 37.1953 515.832 36.987 515.064 36.5703C514.302 36.1471 513.71 35.5286 513.286 34.7148C512.863 33.901 512.652 32.9049 512.652 31.7266C512.652 30.5742 512.844 29.5781 513.228 28.7383C513.618 27.8919 514.165 27.2409 514.868 26.7852C515.578 26.3294 516.411 26.1016 517.368 26.1016ZM517.349 27.4297C516.483 27.4297 515.793 27.7129 515.279 28.2793C514.764 28.8457 514.458 29.6367 514.361 30.6523H520.025C520.018 30.0143 519.917 29.4544 519.722 28.9727C519.533 28.4844 519.243 28.1068 518.853 27.8398C518.462 27.5664 517.961 27.4297 517.349 27.4297ZM529.393 27.5664H526.727V37H525.106V27.5664H523.212V26.7852L525.106 26.248V25.5352C525.106 24.6367 525.24 23.9076 525.507 23.3477C525.774 22.7812 526.161 22.3646 526.669 22.0977C527.177 21.8307 527.795 21.6973 528.524 21.6973C528.934 21.6973 529.309 21.7331 529.647 21.8047C529.992 21.8763 530.295 21.9577 530.555 22.0488L530.136 23.3281C529.914 23.2565 529.664 23.1914 529.384 23.1328C529.11 23.0677 528.83 23.0352 528.544 23.0352C527.925 23.0352 527.466 23.237 527.167 23.6406C526.874 24.0378 526.727 24.6628 526.727 25.5156V26.2969H529.393V27.5664ZM540.354 26.2969V37H539.026L538.791 35.4961H538.704C538.482 35.8672 538.196 36.1797 537.844 36.4336C537.493 36.6875 537.095 36.8763 536.653 37C536.217 37.1302 535.751 37.1953 535.256 37.1953C534.41 37.1953 533.7 37.0586 533.127 36.7852C532.554 36.5117 532.121 36.0885 531.829 35.5156C531.542 34.9427 531.399 34.207 531.399 33.3086V26.2969H533.039V33.1914C533.039 34.0833 533.241 34.7507 533.645 35.1934C534.049 35.6296 534.664 35.8477 535.491 35.8477C536.285 35.8477 536.916 35.6979 537.385 35.3984C537.86 35.099 538.202 34.6595 538.411 34.0801C538.619 33.4941 538.723 32.778 538.723 31.9316V26.2969H540.354ZM545.562 37H543.932V21.8047H545.562V37ZM557.943 35.8672C558.209 35.8672 558.483 35.8444 558.763 35.7988C559.043 35.7533 559.271 35.6979 559.446 35.6328V36.8926C559.258 36.9772 558.994 37.0488 558.655 37.1074C558.323 37.166 557.998 37.1953 557.679 37.1953C557.112 37.1953 556.598 37.0977 556.136 36.9023C555.674 36.7005 555.303 36.362 555.023 35.8867C554.749 35.4115 554.612 34.7539 554.612 33.9141V27.5664H553.089V26.7754L554.622 26.1406L555.267 23.8164H556.243V26.2969H559.378V27.5664H556.243V33.8652C556.243 34.5358 556.396 35.0371 556.702 35.3691C557.015 35.7012 557.428 35.8672 557.943 35.8672ZM565.886 26.1016C566.797 26.1016 567.578 26.3034 568.229 26.707C568.88 27.1107 569.378 27.6771 569.723 28.4062C570.069 29.1289 570.241 29.9753 570.241 30.9453V31.9512H562.848C562.868 33.2077 563.18 34.1647 563.786 34.8223C564.391 35.4798 565.244 35.8086 566.345 35.8086C567.022 35.8086 567.621 35.7467 568.141 35.623C568.662 35.4993 569.203 35.3171 569.763 35.0762V36.502C569.222 36.7428 568.685 36.9186 568.151 37.0293C567.624 37.14 566.999 37.1953 566.276 37.1953C565.248 37.1953 564.349 36.987 563.581 36.5703C562.819 36.1471 562.227 35.5286 561.804 34.7148C561.38 33.901 561.169 32.9049 561.169 31.7266C561.169 30.5742 561.361 29.5781 561.745 28.7383C562.136 27.8919 562.682 27.2409 563.386 26.7852C564.095 26.3294 564.929 26.1016 565.886 26.1016ZM565.866 27.4297C565 27.4297 564.31 27.7129 563.796 28.2793C563.281 28.8457 562.975 29.6367 562.878 30.6523H568.542C568.535 30.0143 568.434 29.4544 568.239 28.9727C568.05 28.4844 567.761 28.1068 567.37 27.8398C566.979 27.5664 566.478 27.4297 565.866 27.4297ZM575.694 31.5215L571.993 26.2969H573.848L576.67 30.418L579.483 26.2969H581.319L577.618 31.5215L581.524 37H579.668L576.67 32.6348L573.653 37H571.817L575.694 31.5215ZM587.221 35.8672C587.488 35.8672 587.761 35.8444 588.041 35.7988C588.321 35.7533 588.549 35.6979 588.725 35.6328V36.8926C588.536 36.9772 588.272 37.0488 587.934 37.1074C587.602 37.166 587.276 37.1953 586.957 37.1953C586.391 37.1953 585.876 37.0977 585.414 36.9023C584.952 36.7005 584.581 36.362 584.301 35.8867C584.027 35.4115 583.891 34.7539 583.891 33.9141V27.5664H582.367V26.7754L583.9 26.1406L584.545 23.8164H585.521V26.2969H588.656V27.5664H585.521V33.8652C585.521 34.5358 585.674 35.0371 585.98 35.3691C586.293 35.7012 586.706 35.8672 587.221 35.8672Z" fill="#252A2E"/></g><rect x="202" y="2.5" width="407" height="53" rx="5.5" stroke="#217CBB"/><rect x="201.625" y="2" width="12.998" height="54" fill="#EB3499" fill-opacity=".6"/><rect x="596.625" y="2" width="12.998" height="54" fill="#EB3499" fill-opacity=".6"/><path d="M596.625 29L609.623 29" stroke="#E8178A" stroke-dasharray="2 2"/><path d="M201.625 29L214.623 29" stroke="#E8178A" stroke-dasharray="2 2"/><path d="M624.944 34H623.836V26.877C623.836 26.2845 623.855 25.724 623.891 25.1953C623.795 25.291 623.688 25.3913 623.57 25.4961C623.451 25.6009 622.909 26.0452 621.943 26.8291L621.341 26.0498L623.987 24.0059H624.944V34ZM628.784 29.7275C628.784 27.7633 629.164 26.2959 629.925 25.3252C630.691 24.3499 631.821 23.8623 633.316 23.8623C633.831 23.8623 634.236 23.9056 634.533 23.9922V24.9697C634.182 24.8558 633.781 24.7988 633.33 24.7988C632.259 24.7988 631.441 25.1338 630.875 25.8037C630.31 26.4691 630 27.5173 629.946 28.9482H630.028C630.529 28.1644 631.322 27.7725 632.407 27.7725C633.304 27.7725 634.011 28.0436 634.526 28.5859C635.045 29.1283 635.305 29.8643 635.305 30.7939C635.305 31.833 635.02 32.651 634.451 33.248C633.886 33.8405 633.12 34.1367 632.154 34.1367C631.119 34.1367 630.299 33.7493 629.693 32.9746C629.087 32.1953 628.784 31.113 628.784 29.7275ZM632.14 33.1729C632.787 33.1729 633.289 32.9701 633.644 32.5645C634.004 32.1543 634.184 31.5641 634.184 30.7939C634.184 30.1331 634.018 29.6136 633.685 29.2354C633.352 28.8571 632.856 28.668 632.195 28.668C631.785 28.668 631.409 28.7523 631.067 28.9209C630.725 29.0895 630.452 29.3219 630.247 29.6182C630.046 29.9144 629.946 30.222 629.946 30.541C629.946 31.0104 630.037 31.4479 630.219 31.8535C630.401 32.2591 630.659 32.5804 630.992 32.8174C631.329 33.0544 631.712 33.1729 632.14 33.1729ZM640.601 34.1367C640.113 34.1367 639.667 34.0479 639.261 33.8701C638.86 33.6878 638.523 33.4098 638.249 33.0361H638.167C638.222 33.4736 638.249 33.8883 638.249 34.2803V37.3633H637.115V26.5078H638.038L638.195 27.5332H638.249C638.541 27.123 638.881 26.8268 639.268 26.6445C639.655 26.4622 640.1 26.3711 640.601 26.3711C641.594 26.3711 642.36 26.7106 642.898 27.3896C643.44 28.0687 643.711 29.0212 643.711 30.2471C643.711 31.4775 643.436 32.4346 642.884 33.1182C642.337 33.7972 641.576 34.1367 640.601 34.1367ZM640.437 27.335C639.671 27.335 639.118 27.5469 638.776 27.9707C638.434 28.3945 638.259 29.069 638.249 29.9941V30.2471C638.249 31.2998 638.425 32.054 638.776 32.5098C639.127 32.9609 639.69 33.1865 640.464 33.1865C641.111 33.1865 641.617 32.9245 641.982 32.4004C642.351 31.8763 642.536 31.154 642.536 30.2334C642.536 29.2992 642.351 28.5837 641.982 28.0869C641.617 27.5856 641.102 27.335 640.437 27.335ZM647.421 30.165L644.817 26.5078H646.109L648.084 29.3789L650.053 26.5078H651.331L648.727 30.165L651.468 34H650.183L648.084 30.9648L645.965 34H644.68L647.421 30.165Z" fill="#E8178A"/><path d="M649.5 1H658.5V57H649.5" stroke="#4091D2"/><path d="M667.467 28.5273C668.295 28.5273 668.954 28.7598 669.442 29.2246C669.934 29.6895 670.18 30.3262 670.18 31.1348C670.18 32.0918 669.885 32.8281 669.295 33.3438C668.706 33.8594 667.862 34.1172 666.764 34.1172C665.811 34.1172 665.042 33.9629 664.456 33.6543V32.0898C664.764 32.2539 665.124 32.3887 665.534 32.4941C665.944 32.5957 666.333 32.6465 666.7 32.6465C667.805 32.6465 668.358 32.1934 668.358 31.2871C668.358 30.4238 667.786 29.9922 666.641 29.9922C666.434 29.9922 666.206 30.0137 665.956 30.0566C665.706 30.0957 665.502 30.1387 665.346 30.1855L664.625 29.7988L664.948 25.4336H669.594V26.9688H666.536L666.377 28.6504L666.583 28.6094C666.821 28.5547 667.116 28.5273 667.467 28.5273ZM671.075 30.3613C671.075 28.666 671.432 27.4043 672.147 26.5762C672.866 25.748 673.94 25.334 675.37 25.334C675.858 25.334 676.241 25.3633 676.518 25.4219V26.8691C676.171 26.791 675.827 26.752 675.487 26.752C674.866 26.752 674.358 26.8457 673.964 27.0332C673.573 27.2207 673.28 27.498 673.085 27.8652C672.889 28.2324 672.774 28.7539 672.739 29.4297H672.815C673.202 28.7656 673.821 28.4336 674.673 28.4336C675.438 28.4336 676.038 28.6738 676.471 29.1543C676.905 29.6348 677.122 30.2988 677.122 31.1465C677.122 32.0605 676.864 32.7852 676.348 33.3203C675.833 33.8516 675.118 34.1172 674.204 34.1172C673.571 34.1172 673.018 33.9707 672.546 33.6777C672.077 33.3848 671.714 32.957 671.456 32.3945C671.202 31.832 671.075 31.1543 671.075 30.3613ZM674.169 32.6699C674.555 32.6699 674.852 32.541 675.059 32.2832C675.266 32.0215 675.37 31.6504 675.37 31.1699C675.37 30.752 675.272 30.4238 675.077 30.1855C674.886 29.9434 674.595 29.8223 674.204 29.8223C673.837 29.8223 673.522 29.9414 673.261 30.1797C673.003 30.418 672.874 30.6953 672.874 31.0117C672.874 31.4766 672.995 31.8691 673.237 32.1895C673.483 32.5098 673.794 32.6699 674.169 32.6699ZM681.972 34.1172C681.202 34.1172 680.599 33.8379 680.161 33.2793H680.067C680.13 33.8262 680.161 34.1426 680.161 34.2285V36.8828H678.374V27.4492H679.827L680.079 28.2988H680.161C680.579 27.6504 681.198 27.3262 682.019 27.3262C682.792 27.3262 683.398 27.625 683.835 28.2227C684.273 28.8203 684.491 29.6504 684.491 30.7129C684.491 31.4121 684.388 32.0195 684.181 32.5352C683.978 33.0508 683.687 33.4434 683.308 33.7129C682.929 33.9824 682.483 34.1172 681.972 34.1172ZM681.444 28.7559C681.003 28.7559 680.681 28.8926 680.478 29.166C680.274 29.4355 680.169 29.8828 680.161 30.5078V30.7012C680.161 31.4043 680.265 31.9082 680.472 32.2129C680.683 32.5176 681.015 32.6699 681.468 32.6699C682.269 32.6699 682.669 32.0098 682.669 30.6895C682.669 30.0449 682.569 29.5625 682.37 29.2422C682.175 28.918 681.866 28.7559 681.444 28.7559ZM687.238 30.6543L685.128 27.4492H687.156L688.427 29.5352L689.71 27.4492H691.738L689.605 30.6543L691.837 34H689.804L688.427 31.7559L687.044 34H685.017L687.238 30.6543Z" fill="#4091D2"/><defs><clipPath id="clip0_7345_87069"><rect x="201.5" y="2" width="408" height="54" rx="6" fill="#fff"/></clipPath></defs></svg>