<svg width="1087" height="353" fill="none" xmlns="http://www.w3.org/2000/svg"><path fill="#F1F1F6" d="M0 0h1087v353H0z"/><path d="M236.5 38.964a6 6 0 016-6h602a6 6 0 016 6v52a6 6 0 01-6 6h-602a6 6 0 01-6-6v-52z" fill="#DCEDF9"/><path d="M255.271 64.963c0 2.03.381 4.04 1.121 5.916a15.524 15.524 0 003.193 5.015 14.71 14.71 0 004.779 3.351A14.126 14.126 0 00270 80.422c1.934 0 3.85-.4 5.637-1.177a14.695 14.695 0 004.778-3.35 15.524 15.524 0 003.193-5.016 16.129 16.129 0 001.121-5.916c0-2.03-.381-4.04-1.121-5.915a15.522 15.522 0 00-3.193-5.015 14.694 14.694 0 00-4.778-3.351A14.132 14.132 0 00270 49.505c-1.934 0-3.849.4-5.636 1.177a14.709 14.709 0 00-4.779 3.35 15.522 15.522 0 00-3.193 5.016 16.13 16.13 0 00-1.121 5.915z" fill="#019AEB"/><path d="M270 50.818c7.802 0 14.146 6.343 14.146 14.145 0 7.803-6.344 14.146-14.146 14.146-7.802 0-14.146-6.343-14.146-14.145 0-7.803 6.344-14.146 14.146-14.146zm0-2.48c-9.188 0-16.625 7.438-16.625 16.625 0 9.188 7.437 16.626 16.625 16.626 9.188 0 16.625-7.438 16.625-16.626 0-9.187-7.437-16.624-16.625-16.624z" fill="#0E416C"/><path d="M271.604 69.849h1.167v2.187h-5.542V69.85h1.677v-5.104h-1.677v-2.26h4.375v7.364zm-2.844-8.75h2.844V57.89h-2.844v3.208z" fill="#fff"/><path d="M310.493 73.963h-1.826V59.881h-4.974v-1.623h11.774v1.622h-4.974v14.083zm9.112 0h-1.783V62.19h1.783v11.773zM317.672 59c0-.409.1-.706.301-.892.2-.193.451-.29.752-.29.286 0 .533.097.741.29.208.193.311.49.311.892 0 .4-.103.702-.311.902-.208.193-.455.29-.741.29a1.04 1.04 0 01-.752-.29c-.201-.2-.301-.501-.301-.902zm11.443 15.178c-.766 0-1.468-.14-2.105-.419a4.006 4.006 0 01-1.59-1.31h-.129c.086.687.129 1.339.129 1.955v4.845h-1.783V62.19h1.45l.247 1.611h.086c.458-.644.992-1.11 1.601-1.396.608-.287 1.306-.43 2.094-.43 1.561 0 2.765.534 3.61 1.6.852 1.068 1.278 2.565 1.278 4.491 0 1.934-.433 3.438-1.3 4.512-.859 1.067-2.055 1.6-3.588 1.6zm-.258-10.688c-1.203 0-2.073.333-2.61.999-.537.666-.813 1.726-.827 3.18v.397c0 1.654.276 2.84.827 3.556.552.709 1.436 1.063 2.653 1.063 1.017 0 1.812-.412 2.385-1.235.58-.824.87-1.959.87-3.405 0-1.469-.29-2.593-.87-3.374-.573-.787-1.382-1.181-2.428-1.181zm24.649 4.576c0 1.92-.484 3.42-1.45 4.501-.967 1.074-2.303 1.611-4.007 1.611-1.053 0-1.987-.247-2.804-.74-.816-.495-1.446-1.204-1.891-2.128-.444-.924-.666-2.005-.666-3.244 0-1.92.48-3.412 1.44-4.48.96-1.074 2.292-1.61 3.996-1.61 1.647 0 2.954.547 3.921 1.643.974 1.096 1.461 2.578 1.461 4.447zm-8.97 0c0 1.504.301 2.65.902 3.438.602.787 1.486 1.181 2.654 1.181 1.167 0 2.052-.39 2.653-1.17.609-.788.913-1.938.913-3.449 0-1.497-.304-2.632-.913-3.405-.601-.78-1.493-1.171-2.675-1.171-1.167 0-2.048.383-2.642 1.15-.595.766-.892 1.908-.892 3.426zm17.728-6.09c.522 0 .992.042 1.407.128l-.247 1.654a6.078 6.078 0 00-1.289-.16c-.953 0-1.769.386-2.449 1.16-.674.773-1.01 1.736-1.01 2.89v6.316h-1.783V62.19h1.471l.204 2.18h.086c.437-.766.964-1.356 1.579-1.772a3.556 3.556 0 012.031-.623zm10.092 11.987V58.258h1.827v15.705h-1.827zm14.183 0v-7.616c0-.96-.218-1.675-.655-2.148-.437-.473-1.121-.71-2.052-.71-1.232 0-2.134.334-2.707 1-.573.666-.859 1.765-.859 3.298v6.176h-1.784V62.19h1.451l.29 1.611h.086a3.603 3.603 0 011.536-1.342c.659-.323 1.393-.484 2.202-.484 1.418 0 2.485.344 3.201 1.032.716.68 1.074 1.772 1.074 3.276v7.68h-1.783zm11.014-10.387h-2.997v10.387h-1.784V63.576h-2.105v-.806l2.105-.644v-.656c0-2.893 1.264-4.34 3.792-4.34.624 0 1.354.126 2.192.377l-.462 1.428c-.688-.222-1.275-.333-1.762-.333-.673 0-1.171.226-1.493.677-.322.444-.483 1.16-.483 2.148v.763h2.997v1.386zm12.56 4.49c0 1.92-.483 3.42-1.45 4.501-.967 1.074-2.302 1.611-4.007 1.611-1.052 0-1.987-.247-2.803-.74-.817-.495-1.447-1.204-1.891-2.128-.444-.924-.666-2.005-.666-3.244 0-1.92.48-3.412 1.439-4.48.96-1.074 2.292-1.61 3.996-1.61 1.648 0 2.955.547 3.921 1.643.974 1.096 1.461 2.578 1.461 4.447zm-8.969 0c0 1.504.3 2.65.902 3.438.601.787 1.486 1.181 2.653 1.181 1.168 0 2.052-.39 2.654-1.17.608-.788.913-1.938.913-3.449 0-1.497-.305-2.632-.913-3.405-.602-.78-1.494-1.171-2.675-1.171-1.168 0-2.048.383-2.643 1.15-.594.766-.891 1.908-.891 3.426zm17.333.816V67.25h5.274v1.632h-5.274zm23.907 5.081l-2.159-6.907c-.136-.422-.391-1.382-.763-2.879h-.086c-.286 1.254-.537 2.22-.752 2.9l-2.224 6.886h-2.062l-3.212-11.773h1.869c.759 2.958 1.336 5.21 1.73 6.757.401 1.547.63 2.589.687 3.126h.086c.079-.408.204-.935.376-1.58.179-.65.333-1.166.462-1.546l2.159-6.757h1.934l2.105 6.757c.401 1.232.673 2.266.817 3.104h.086c.028-.257.103-.655.225-1.192.129-.537.877-3.427 2.245-8.669h1.848L444.5 73.963h-2.116zm13.13-11.988c.522 0 .992.043 1.407.13l-.247 1.653a6.078 6.078 0 00-1.289-.16c-.953 0-1.769.386-2.449 1.16-.674.773-1.01 1.736-1.01 2.89v6.316h-1.783V62.19h1.471l.204 2.18h.086c.437-.766.964-1.356 1.579-1.772a3.556 3.556 0 012.031-.623zm5.642 11.988h-1.783V62.19h1.783v11.773zM459.223 59c0-.409.1-.706.3-.892.201-.193.452-.29.752-.29.287 0 .534.097.742.29.207.193.311.49.311.892 0 .4-.104.702-.311.902-.208.193-.455.29-.742.29-.3 0-.551-.097-.752-.29-.2-.2-.3-.501-.3-.902zm9.767 13.707c.315 0 .62-.022.913-.065.294-.05.527-.1.699-.15v1.364c-.194.093-.48.168-.86.226a5.975 5.975 0 01-1.01.096c-2.277 0-3.416-1.2-3.416-3.598v-7.004h-1.686v-.86l1.686-.74.752-2.514h1.032v2.728h3.416v1.386H467.1v6.928c0 .71.168 1.254.504 1.633.337.38.799.57 1.386.57zm9.198 1.471c-1.74 0-3.115-.53-4.125-1.59-1.002-1.06-1.503-2.531-1.503-4.414 0-1.898.465-3.406 1.396-4.523.938-1.117 2.195-1.676 3.771-1.676 1.475 0 2.642.487 3.502 1.461.859.967 1.289 2.245 1.289 3.835V68.4h-8.111c.036 1.382.383 2.431 1.042 3.147.666.717 1.601 1.075 2.804 1.075 1.268 0 2.521-.265 3.76-.795v1.59a9.125 9.125 0 01-1.794.58c-.559.122-1.236.182-2.031.182zm-.483-10.71c-.945 0-1.701.308-2.267.924-.558.616-.888 1.468-.988 2.557h6.155c0-1.124-.25-1.984-.751-2.578-.502-.602-1.218-.903-2.149-.903zm21.673 7.284c0 1.095-.408 1.94-1.225 2.535-.816.594-1.962.891-3.437.891-1.561 0-2.779-.247-3.653-.74v-1.655a8.86 8.86 0 001.816.677 7.668 7.668 0 001.88.247c.931 0 1.647-.147 2.148-.44.502-.301.752-.756.752-1.365 0-.458-.2-.849-.601-1.17-.394-.33-1.168-.717-2.321-1.161-1.095-.408-1.876-.763-2.341-1.064-.459-.308-.803-.655-1.032-1.041-.222-.387-.333-.85-.333-1.386 0-.96.391-1.715 1.171-2.267.781-.559 1.851-.838 3.212-.838 1.268 0 2.507.258 3.717.774l-.634 1.45c-1.182-.487-2.252-.73-3.212-.73-.845 0-1.482.132-1.912.397-.43.265-.644.63-.644 1.096 0 .315.078.583.236.805.165.222.426.434.784.634.358.2 1.046.49 2.063.87 1.396.509 2.338 1.02 2.825 1.536.494.516.741 1.164.741 1.945zm13.323-2.686c0 1.92-.483 3.42-1.45 4.501-.967 1.074-2.302 1.611-4.007 1.611-1.053 0-1.987-.247-2.804-.74-.816-.495-1.446-1.204-1.89-2.128-.444-.924-.666-2.005-.666-3.244 0-1.92.48-3.412 1.439-4.48.96-1.074 2.292-1.61 3.996-1.61 1.647 0 2.954.547 3.921 1.643.974 1.096 1.461 2.578 1.461 4.447zm-8.97 0c0 1.504.301 2.65.903 3.438.601.787 1.486 1.181 2.653 1.181s2.052-.39 2.653-1.17c.609-.788.914-1.938.914-3.449 0-1.497-.305-2.632-.914-3.405-.601-.78-1.493-1.171-2.674-1.171-1.168 0-2.049.383-2.643 1.15-.594.766-.892 1.908-.892 3.426zm27.364 5.897v-7.659c0-.938-.201-1.64-.602-2.105-.401-.473-1.024-.71-1.869-.71-1.11 0-1.93.32-2.46.957s-.795 1.618-.795 2.943v6.575h-1.783v-7.66c0-.938-.201-1.64-.602-2.105-.401-.473-1.027-.71-1.88-.71-1.117 0-1.937.338-2.459 1.01-.516.667-.774 1.762-.774 3.288v6.176h-1.783V62.19h1.45l.29 1.611h.086a3.514 3.514 0 011.418-1.342c.616-.323 1.303-.484 2.063-.484 1.84 0 3.043.666 3.609 1.998h.086a3.754 3.754 0 011.525-1.46c.666-.359 1.425-.538 2.278-.538 1.332 0 2.327.344 2.986 1.032.666.68.999 1.772.999 3.276v7.68h-1.783zm10.691.215c-1.74 0-3.115-.53-4.125-1.59-1.002-1.06-1.504-2.531-1.504-4.414 0-1.898.466-3.406 1.397-4.523.938-1.117 2.195-1.676 3.77-1.676 1.475 0 2.643.487 3.502 1.461.86.967 1.289 2.245 1.289 3.835V68.4h-8.11c.036 1.382.383 2.431 1.042 3.147.666.717 1.6 1.075 2.804 1.075 1.267 0 2.52-.265 3.759-.795v1.59a9.104 9.104 0 01-1.794.58c-.558.122-1.235.182-2.03.182zm-.483-10.71c-.946 0-1.701.308-2.267.924-.558.616-.888 1.468-.988 2.557h6.155c0-1.124-.251-1.984-.752-2.578-.501-.602-1.217-.903-2.148-.903zm15.754-1.278v7.638c0 .96.218 1.675.655 2.148.437.473 1.121.71 2.052.71 1.231 0 2.13-.337 2.696-1.01.573-.674.859-1.773.859-3.298V62.19h1.784v11.773h-1.472l-.258-1.579h-.097a3.543 3.543 0 01-1.525 1.332c-.645.308-1.382.462-2.213.462-1.432 0-2.506-.34-3.223-1.02-.709-.68-1.063-1.769-1.063-3.266V62.19h1.805zm19.682 8.562c0 1.095-.408 1.94-1.224 2.535-.817.594-1.963.891-3.438.891-1.561 0-2.778-.247-3.652-.74v-1.655a8.872 8.872 0 001.815.677 7.674 7.674 0 001.88.247c.931 0 1.647-.147 2.149-.44.501-.301.752-.756.752-1.365 0-.458-.201-.849-.602-1.17-.394-.33-1.167-.717-2.32-1.161-1.096-.408-1.877-.763-2.342-1.064-.458-.308-.802-.655-1.031-1.041-.222-.387-.333-.85-.333-1.386 0-.96.39-1.715 1.17-2.267.781-.559 1.852-.838 3.212-.838 1.268 0 2.507.258 3.717.774l-.634 1.45c-1.181-.487-2.252-.73-3.212-.73-.845 0-1.482.132-1.912.397-.429.265-.644.63-.644 1.096 0 .315.079.583.236.805.165.222.426.434.784.634.358.2 1.046.49 2.063.87 1.396.509 2.338 1.02 2.825 1.536.494.516.741 1.164.741 1.945zm8.135 3.426c-1.74 0-3.115-.53-4.125-1.59-1.003-1.06-1.504-2.531-1.504-4.414 0-1.898.466-3.406 1.397-4.523.938-1.117 2.195-1.676 3.77-1.676 1.475 0 2.643.487 3.502 1.461.859.967 1.289 2.245 1.289 3.835V68.4h-8.11c.036 1.382.383 2.431 1.042 3.147.666.717 1.6 1.075 2.803 1.075 1.268 0 2.521-.265 3.76-.795v1.59a9.104 9.104 0 01-1.794.58c-.558.122-1.235.182-2.03.182zm-.483-10.71c-.946 0-1.701.308-2.267.924-.559.616-.888 1.468-.988 2.557h6.155c0-1.124-.251-1.984-.752-2.578-.501-.602-1.217-.903-2.148-.903zm13.42.108h-2.998v10.387h-1.783V63.576h-2.105v-.806l2.105-.644v-.656c0-2.893 1.264-4.34 3.792-4.34.623 0 1.354.126 2.192.377l-.462 1.428c-.688-.222-1.275-.333-1.762-.333-.673 0-1.171.226-1.493.677-.322.444-.484 1.16-.484 2.148v.763h2.998v1.386zm4.074-1.386v7.638c0 .96.218 1.675.655 2.148.437.473 1.121.71 2.052.71 1.232 0 2.13-.337 2.696-1.01.573-.674.859-1.773.859-3.298V62.19h1.784v11.773h-1.472l-.258-1.579h-.097a3.543 3.543 0 01-1.525 1.332c-.644.308-1.382.462-2.213.462-1.432 0-2.506-.34-3.222-1.02-.709-.68-1.064-1.769-1.064-3.266V62.19h1.805zm13.871 11.773h-1.783V57.25h1.783v16.714zm13.799-1.256a6.3 6.3 0 00.913-.065c.293-.05.526-.1.698-.15v1.364c-.193.093-.48.168-.859.226a5.985 5.985 0 01-1.01.096c-2.277 0-3.416-1.2-3.416-3.598v-7.004h-1.687v-.86l1.687-.74.752-2.514h1.031v2.728h3.416v1.386h-3.416v6.928c0 .71.168 1.254.505 1.633.337.38.798.57 1.386.57zm9.198 1.471c-1.74 0-3.115-.53-4.125-1.59-1.003-1.06-1.504-2.531-1.504-4.414 0-1.898.466-3.406 1.397-4.523.938-1.117 2.194-1.676 3.77-1.676 1.475 0 2.643.487 3.502 1.461.859.967 1.289 2.245 1.289 3.835V68.4h-8.11c.035 1.382.383 2.431 1.042 3.147.666.717 1.6 1.075 2.803 1.075 1.268 0 2.521-.265 3.76-.795v1.59a9.104 9.104 0 01-1.794.58c-.558.122-1.235.182-2.03.182zm-.483-10.71c-.946 0-1.701.308-2.267.924-.559.616-.888 1.468-.988 2.557h6.155c0-1.124-.251-1.984-.752-2.578-.501-.602-1.217-.903-2.148-.903zm10.949 4.47l-4.093-5.748h2.03l3.105 4.512 3.093-4.512h2.009l-4.092 5.747 4.307 6.026h-2.019l-3.298-4.769-3.33 4.77h-2.02l4.308-6.027zm12.754 4.769a6.3 6.3 0 00.913-.065c.293-.05.526-.1.698-.15v1.364c-.193.093-.48.168-.859.226a5.985 5.985 0 01-1.01.096c-2.277 0-3.416-1.2-3.416-3.598v-7.004h-1.687v-.86l1.687-.74.752-2.514h1.031v2.728h3.416v1.386h-3.416v6.928c0 .71.168 1.254.505 1.633.337.38.798.57 1.386.57z" fill="#252A2E"/><path d="M242.5 33.964h602v-2h-602v2zm607 5v52h2v-52h-2zm-5 57h-602v2h602v-2zm-607-5v-52h-2v52h2zm5 5a5 5 0 01-5-5h-2a7 7 0 007 7v-2zm607-5a5 5 0 01-5 5v2a7 7 0 007-7h-2zm-5-57a5 5 0 015 5h2a7 7 0 00-7-7v2zm-602-2a7 7 0 00-7 7h2a5 5 0 015-5v-2z" fill="#019AEB"/><path d="M236.5 113.988a6 6 0 016-6h602a6 6 0 016 6v52a6 6 0 01-6 6h-602a6 6 0 01-6-6v-52z" fill="#FBDBB4"/><g clip-path="url(#prefix__clip0_4866_85002)"><path d="M281.156 155.592h-22.312c-3.281 0-5.979-2.698-5.979-5.979 0-1.021.291-2.042.802-2.99l11.156-19.25c1.677-2.843 5.323-3.864 8.167-2.187.875.51 1.677 1.239 2.187 2.187l11.156 19.323c1.678 2.844.657 6.49-2.187 8.167-.948.51-1.969.729-2.99.729z" fill="#FF8B00"/><path d="M281.156 155.592h-22.312c-3.281 0-5.979-2.698-5.979-5.979 0-1.021.291-2.042.802-2.99l11.156-19.25c1.677-2.843 5.323-3.864 8.167-2.187.875.51 1.677 1.239 2.187 2.187l11.156 19.323c1.678 2.844.657 6.49-2.187 8.167-.948.51-1.969.729-2.99.729zM270 126.571a3.738 3.738 0 00-3.281 1.896l-11.156 19.323c-1.021 1.823-.438 4.156 1.385 5.177.583.365 1.24.51 1.896.51h22.312a3.766 3.766 0 003.792-3.791c0-.656-.146-1.313-.51-1.896l-11.157-19.396c-.656-1.167-1.895-1.823-3.281-1.823z" fill="#B24225"/><path d="M268.031 133.425h3.5v10.865h-3.5v-10.865zM268.031 146.259h3.5v3.354h-3.5v-3.354z" fill="#fff"/></g><path d="M319.366 148.988h-1.804l-3.169-10.517a32.952 32.952 0 01-.505-1.761c-.187-.709-.283-1.136-.29-1.279-.158.946-.409 1.98-.752 3.105l-3.073 10.452h-1.804l-4.179-15.705h1.934l2.481 9.7c.344 1.361.594 2.592.752 3.695.193-1.31.48-2.592.859-3.845l2.815-9.55h1.933l2.955 9.636a29.54 29.54 0 01.87 3.759c.136-1.017.394-2.256.773-3.717l2.471-9.678h1.933l-4.2 15.705zm13.882 0l-.354-1.676h-.086c-.588.738-1.175 1.239-1.762 1.504-.58.258-1.307.387-2.181.387-1.167 0-2.084-.301-2.75-.903-.659-.601-.988-1.457-.988-2.567 0-2.378 1.901-3.624 5.704-3.738l1.998-.065v-.73c0-.924-.2-1.604-.601-2.041-.394-.444-1.028-.666-1.902-.666-.981 0-2.091.301-3.33.902l-.548-1.364a8.399 8.399 0 011.902-.741 8.317 8.317 0 012.084-.269c1.403 0 2.442.312 3.115.935.68.623 1.02 1.622 1.02 2.997v8.035h-1.321zm-4.028-1.257c1.11 0 1.98-.304 2.61-.913.637-.609.956-1.461.956-2.557v-1.063l-1.783.075c-1.418.05-2.442.272-3.072.666-.623.387-.935.992-.935 1.815 0 .645.193 1.136.58 1.472.394.337.942.505 1.644.505zM343.875 137c.523 0 .992.043 1.407.128l-.247 1.655a6.039 6.039 0 00-1.289-.161c-.952 0-1.769.386-2.449 1.16-.673.773-1.01 1.736-1.01 2.889v6.317h-1.783v-11.774h1.472l.204 2.181h.086c.436-.766.963-1.357 1.579-1.772a3.549 3.549 0 012.03-.623zm11.916 11.988v-7.616c0-.96-.218-1.676-.655-2.149-.437-.472-1.121-.709-2.052-.709-1.232 0-2.134.333-2.707.999-.573.666-.859 1.766-.859 3.298v6.177h-1.784v-11.774h1.451l.29 1.612h.086a3.603 3.603 0 011.536-1.343c.659-.322 1.393-.483 2.202-.483 1.418 0 2.485.343 3.201 1.031.716.68 1.074 1.772 1.074 3.276v7.681h-1.783zm7.49 0h-1.783v-11.774h1.783v11.774zm-1.933-14.964c0-.408.1-.705.3-.892.201-.193.452-.29.752-.29.287 0 .534.097.742.29.207.194.311.491.311.892s-.104.702-.311.902a1.05 1.05 0 01-.742.29c-.3 0-.551-.096-.752-.29-.2-.2-.3-.501-.3-.902zm14.021 14.964v-7.616c0-.96-.218-1.676-.655-2.149-.437-.472-1.121-.709-2.052-.709-1.232 0-2.134.333-2.707.999-.573.666-.859 1.766-.859 3.298v6.177h-1.784v-11.774h1.451l.29 1.612h.086a3.603 3.603 0 011.536-1.343c.659-.322 1.393-.483 2.202-.483 1.418 0 2.485.343 3.201 1.031.716.68 1.074 1.772 1.074 3.276v7.681h-1.783zm15.343-11.774v1.128l-2.181.258c.201.251.38.58.537.988a3.7 3.7 0 01.237 1.365c0 1.153-.394 2.073-1.182 2.76-.788.688-1.869 1.032-3.244 1.032-.351 0-.68-.029-.988-.086-.759.401-1.139.906-1.139 1.514 0 .323.132.563.397.72.265.151.72.226 1.365.226h2.084c1.274 0 2.252.268 2.932.805.688.537 1.032 1.318 1.032 2.342 0 1.304-.523 2.295-1.569 2.976-1.045.687-2.571 1.031-4.576 1.031-1.54 0-2.729-.286-3.566-.859-.831-.573-1.247-1.383-1.247-2.428 0-.716.23-1.336.688-1.858.458-.523 1.103-.878 1.934-1.064a1.9 1.9 0 01-.763-.634 1.693 1.693 0 01-.301-.999 1.9 1.9 0 01.344-1.128c.229-.322.591-.634 1.085-.934-.609-.251-1.107-.677-1.493-1.279-.38-.601-.57-1.289-.57-2.062 0-1.289.387-2.281 1.16-2.976.774-.702 1.87-1.052 3.288-1.052.615 0 1.17.071 1.665.214h4.071zm-9.389 13.75c0 .638.269 1.121.806 1.451.537.329 1.307.494 2.309.494 1.497 0 2.604-.226 3.32-.677.723-.444 1.085-1.049 1.085-1.815 0-.638-.197-1.082-.591-1.332-.394-.244-1.135-.366-2.224-.366h-2.137c-.81 0-1.44.194-1.891.58-.451.387-.677.942-.677 1.665zm.967-9.979c0 .823.233 1.447.698 1.869.466.423 1.114.634 1.945.634 1.74 0 2.61-.845 2.61-2.535 0-1.769-.881-2.654-2.643-2.654-.838 0-1.482.226-1.933.677-.451.451-.677 1.121-.677 2.009zm16.065 2.922v-1.633h5.275v1.633h-5.275zm23.908 5.081l-2.159-6.907c-.137-.423-.391-1.383-.763-2.879h-.086c-.287 1.253-.537 2.22-.752 2.9l-2.224 6.886h-2.062l-3.212-11.774h1.869c.759 2.958 1.336 5.21 1.73 6.757.401 1.547.63 2.589.687 3.126h.086c.079-.408.204-.934.376-1.579.179-.652.333-1.167.462-1.547l2.159-6.757h1.934l2.105 6.757c.401 1.232.673 2.267.816 3.105h.086c.029-.258.104-.656.226-1.193.129-.537.877-3.426 2.245-8.669h1.848l-3.255 11.774h-2.116zM435.393 137c.522 0 .991.043 1.407.128l-.247 1.655a6.039 6.039 0 00-1.289-.161c-.953 0-1.769.386-2.45 1.16-.673.773-1.009 1.736-1.009 2.889v6.317h-1.784v-11.774h1.472l.204 2.181h.086c.437-.766.963-1.357 1.579-1.772a3.552 3.552 0 012.031-.623zm5.642 11.988h-1.783v-11.774h1.783v11.774zm-1.933-14.964c0-.408.1-.705.3-.892.201-.193.452-.29.752-.29.287 0 .534.097.742.29.207.194.311.491.311.892s-.104.702-.311.902a1.05 1.05 0 01-.742.29c-.3 0-.551-.096-.752-.29-.2-.2-.3-.501-.3-.902zm9.767 13.707c.315 0 .62-.021.913-.064.294-.051.527-.101.698-.151v1.364c-.193.094-.479.169-.859.226a6.02 6.02 0 01-1.01.097c-2.277 0-3.416-1.2-3.416-3.599V138.6h-1.686v-.859l1.686-.741.752-2.514h1.032v2.728h3.416v1.386h-3.416v6.929c0 .709.168 1.253.504 1.633.337.379.799.569 1.386.569zm9.198 1.472c-1.74 0-3.115-.53-4.125-1.59-1.002-1.06-1.504-2.532-1.504-4.415 0-1.898.466-3.405 1.397-4.523.938-1.117 2.195-1.675 3.77-1.675 1.476 0 2.643.487 3.502 1.461.86.966 1.289 2.245 1.289 3.834v1.128h-8.11c.036 1.383.383 2.432 1.042 3.148.666.716 1.601 1.074 2.804 1.074 1.267 0 2.521-.265 3.76-.795v1.59a9.186 9.186 0 01-1.794.58c-.559.122-1.236.183-2.031.183zm-.483-10.71c-.945 0-1.701.308-2.267.924-.558.615-.888 1.468-.988 2.556h6.155c0-1.124-.25-1.984-.752-2.578-.501-.601-1.217-.902-2.148-.902zm21.673 7.283c0 1.096-.408 1.941-1.225 2.535-.816.594-1.962.892-3.437.892-1.561 0-2.779-.247-3.653-.742v-1.654a8.848 8.848 0 001.816.677 7.653 7.653 0 001.88.247c.931 0 1.647-.147 2.148-.44.501-.301.752-.756.752-1.365 0-.458-.2-.848-.601-1.171-.394-.329-1.168-.716-2.321-1.16-1.095-.408-1.876-.762-2.342-1.063-.458-.308-.802-.655-1.031-1.042-.222-.387-.333-.849-.333-1.386 0-.96.39-1.715 1.171-2.267.781-.558 1.851-.837 3.212-.837 1.268 0 2.506.257 3.717.773l-.634 1.45c-1.182-.487-2.252-.73-3.212-.73-.845 0-1.482.132-1.912.397-.43.265-.645.63-.645 1.096 0 .315.079.584.237.806.164.222.426.433.784.633.358.201 1.046.491 2.062.87 1.397.509 2.339 1.021 2.826 1.537.494.515.741 1.163.741 1.944zm13.323-2.686c0 1.92-.483 3.42-1.45 4.501-.967 1.075-2.303 1.612-4.007 1.612-1.053 0-1.987-.247-2.804-.742-.816-.494-1.446-1.203-1.89-2.126-.444-.924-.666-2.006-.666-3.245 0-1.919.48-3.412 1.439-4.479.96-1.074 2.292-1.611 3.996-1.611 1.647 0 2.954.547 3.921 1.643.974 1.096 1.461 2.578 1.461 4.447zm-8.97 0c0 1.504.301 2.65.903 3.438.601.788 1.486 1.182 2.653 1.182s2.052-.391 2.653-1.171c.609-.788.913-1.938.913-3.449 0-1.496-.304-2.631-.913-3.405-.601-.78-1.493-1.171-2.674-1.171-1.168 0-2.049.383-2.643 1.15-.594.766-.892 1.908-.892 3.426zm27.364 5.898v-7.659c0-.938-.201-1.64-.602-2.106-.401-.472-1.024-.709-1.869-.709-1.11 0-1.93.319-2.46.956-.53.638-.795 1.619-.795 2.944v6.574h-1.783v-7.659c0-.938-.201-1.64-.602-2.106-.401-.472-1.027-.709-1.88-.709-1.117 0-1.937.337-2.46 1.01-.515.666-.773 1.762-.773 3.287v6.177h-1.783v-11.774h1.45l.29 1.612h.086a3.512 3.512 0 011.418-1.343c.616-.322 1.303-.483 2.062-.483 1.841 0 3.044.666 3.61 1.998h.086a3.753 3.753 0 011.525-1.461c.666-.358 1.425-.537 2.277-.537 1.333 0 2.328.343 2.987 1.031.666.68.999 1.772.999 3.276v7.681h-1.783zm10.691.215c-1.74 0-3.115-.53-4.125-1.59-1.003-1.06-1.504-2.532-1.504-4.415 0-1.898.466-3.405 1.397-4.523.938-1.117 2.195-1.675 3.77-1.675 1.475 0 2.643.487 3.502 1.461.859.966 1.289 2.245 1.289 3.834v1.128h-8.11c.036 1.383.383 2.432 1.042 3.148.666.716 1.6 1.074 2.803 1.074 1.268 0 2.521-.265 3.76-.795v1.59a9.143 9.143 0 01-1.794.58c-.558.122-1.235.183-2.03.183zm-.483-10.71c-.946 0-1.701.308-2.267.924-.559.615-.888 1.468-.988 2.556h6.155c0-1.124-.251-1.984-.752-2.578-.501-.601-1.217-.902-2.148-.902zm15.754-1.279v7.638c0 .96.218 1.676.655 2.149.437.472 1.121.709 2.052.709 1.231 0 2.13-.337 2.696-1.01.573-.673.859-1.773.859-3.298v-6.188h1.783v11.774h-1.471l-.258-1.579h-.097a3.545 3.545 0 01-1.525 1.332c-.645.308-1.382.462-2.213.462-1.432 0-2.507-.34-3.223-1.021-.709-.68-1.063-1.769-1.063-3.265v-7.703h1.805zm19.682 8.562c0 1.096-.408 1.941-1.224 2.535-.817.594-1.963.892-3.438.892-1.561 0-2.779-.247-3.652-.742v-1.654a8.84 8.84 0 001.815.677 7.653 7.653 0 001.88.247c.931 0 1.647-.147 2.148-.44.502-.301.752-.756.752-1.365 0-.458-.2-.848-.601-1.171-.394-.329-1.167-.716-2.32-1.16-1.096-.408-1.877-.762-2.342-1.063-.459-.308-.802-.655-1.032-1.042-.222-.387-.333-.849-.333-1.386 0-.96.391-1.715 1.171-2.267.781-.558 1.852-.837 3.212-.837a9.39 9.39 0 013.717.773l-.634 1.45c-1.181-.487-2.252-.73-3.212-.73-.845 0-1.482.132-1.912.397-.429.265-.644.63-.644 1.096 0 .315.079.584.236.806.165.222.426.433.784.633.358.201 1.046.491 2.063.87 1.396.509 2.338 1.021 2.825 1.537.494.515.741 1.163.741 1.944zm8.135 3.427c-1.74 0-3.115-.53-4.125-1.59-1.003-1.06-1.504-2.532-1.504-4.415 0-1.898.466-3.405 1.397-4.523.938-1.117 2.194-1.675 3.77-1.675 1.475 0 2.643.487 3.502 1.461.859.966 1.289 2.245 1.289 3.834v1.128h-8.11c.035 1.383.383 2.432 1.042 3.148.666.716 1.6 1.074 2.803 1.074 1.268 0 2.521-.265 3.76-.795v1.59a9.143 9.143 0 01-1.794.58c-.558.122-1.235.183-2.03.183zm-.483-10.71c-.946 0-1.701.308-2.267.924-.559.615-.888 1.468-.988 2.556h6.155c0-1.124-.251-1.984-.752-2.578-.501-.601-1.217-.902-2.148-.902zm13.419.107h-2.997v10.388h-1.783V138.6h-2.105v-.806l2.105-.644v-.655c0-2.894 1.264-4.34 3.792-4.34.623 0 1.354.125 2.192.376l-.462 1.429c-.688-.222-1.275-.333-1.762-.333-.673 0-1.171.225-1.493.676-.322.444-.484 1.16-.484 2.149v.762h2.997v1.386zm4.075-1.386v7.638c0 .96.218 1.676.655 2.149.437.472 1.121.709 2.052.709 1.231 0 2.13-.337 2.696-1.01.573-.673.859-1.773.859-3.298v-6.188h1.784v11.774h-1.472l-.258-1.579h-.097a3.545 3.545 0 01-1.525 1.332c-.645.308-1.382.462-2.213.462-1.432 0-2.506-.34-3.223-1.021-.709-.68-1.063-1.769-1.063-3.265v-7.703h1.805zm13.871 11.774h-1.783v-16.715h1.783v16.715zm13.799-1.257c.315 0 .619-.021.913-.064.293-.051.526-.101.698-.151v1.364c-.193.094-.48.169-.859.226a6.03 6.03 0 01-1.01.097c-2.278 0-3.416-1.2-3.416-3.599V138.6h-1.687v-.859l1.687-.741.752-2.514h1.031v2.728h3.416v1.386h-3.416v6.929c0 .709.168 1.253.505 1.633.336.379.798.569 1.386.569zm9.198 1.472c-1.74 0-3.115-.53-4.125-1.59-1.003-1.06-1.504-2.532-1.504-4.415 0-1.898.465-3.405 1.396-4.523.939-1.117 2.195-1.675 3.771-1.675 1.475 0 2.642.487 3.502 1.461.859.966 1.289 2.245 1.289 3.834v1.128h-8.11c.035 1.383.383 2.432 1.042 3.148.666.716 1.6 1.074 2.803 1.074 1.268 0 2.521-.265 3.76-.795v1.59a9.143 9.143 0 01-1.794.58c-.558.122-1.235.183-2.03.183zm-.484-10.71c-.945 0-1.7.308-2.266.924-.559.615-.888 1.468-.988 2.556h6.155c0-1.124-.251-1.984-.752-2.578-.501-.601-1.218-.902-2.149-.902zm10.95 4.468l-4.093-5.747h2.03l3.105 4.512 3.093-4.512h2.009l-4.093 5.747 4.308 6.027h-2.019l-3.298-4.77-3.33 4.77h-2.02l4.308-6.027zm12.754 4.77c.315 0 .619-.021.913-.064.293-.051.526-.101.698-.151v1.364c-.193.094-.48.169-.859.226a6.03 6.03 0 01-1.01.097c-2.278 0-3.416-1.2-3.416-3.599V138.6h-1.687v-.859l1.687-.741.752-2.514h1.031v2.728h3.416v1.386h-3.416v6.929c0 .709.168 1.253.505 1.633.336.379.798.569 1.386.569z" fill="#252A2E"/><path d="M242.5 108.988h602v-2h-602v2zm607 5v52h2v-52h-2zm-5 57h-602v2h602v-2zm-607-5v-52h-2v52h2zm5 5a5 5 0 01-5-5h-2a7 7 0 007 7v-2zm607-5a5 5 0 01-5 5v2a7 7 0 007-7h-2zm-5-57a5 5 0 015 5h2a7 7 0 00-7-7v2zm-602-2a7 7 0 00-7 7h2a5 5 0 015-5v-2z" fill="#FF8B00"/><path d="M236.5 189.012a6 6 0 016-6h602a6 6 0 016 6v52a6 6 0 01-6 6h-602a6 6 0 01-6-6v-52z" fill="#FBD4D7"/><g clip-path="url(#prefix__clip1_4866_85002)"><path d="M281.521 197.585h-23.188c-3.208 0-5.833 2.625-5.833 5.833v23.261c0 3.208 2.625 5.833 5.833 5.833h23.188c3.208 0 5.833-2.625 5.833-5.833v-23.261a5.804 5.804 0 00-5.833-5.833z" fill="#DA212C"/><path d="M281.521 200.137a3.267 3.267 0 013.281 3.281v23.261a3.267 3.267 0 01-3.281 3.281h-23.188a3.267 3.267 0 01-3.281-3.281v-23.261a3.267 3.267 0 013.281-3.281h23.188zm0-2.552h-23.188c-3.208 0-5.833 2.625-5.833 5.833v23.261c0 3.208 2.625 5.833 5.833 5.833h23.188c3.208 0 5.833-2.625 5.833-5.833v-23.261a5.804 5.804 0 00-5.833-5.833z" fill="#7C070C"/><path d="M276.417 219.387l-4.521-4.448 4.593-4.521-1.968-1.968-4.521 4.593-4.521-4.593-1.969 1.968 4.594 4.521-4.448 4.448 1.896 1.969 4.448-4.448 4.448 4.448 1.969-1.969z" fill="#fff"/></g><path d="M315.531 224.012l-1.955-4.995h-6.295l-1.933 4.995H303.5l6.209-15.769h1.536l6.177 15.769h-1.891zm-2.524-6.638l-1.826-4.867a25.95 25.95 0 01-.731-2.266 20.15 20.15 0 01-.677 2.266l-1.847 4.867h5.081zm8.339 6.638h-1.784v-16.715h1.784v16.715zm9.005.215c-1.741 0-3.116-.53-4.125-1.59-1.003-1.06-1.504-2.531-1.504-4.415 0-1.898.465-3.405 1.396-4.522.938-1.117 2.195-1.676 3.771-1.676 1.475 0 2.642.487 3.502 1.461.859.967 1.289 2.245 1.289 3.835v1.128h-8.111c.036 1.382.383 2.431 1.042 3.147.666.716 1.601 1.074 2.804 1.074 1.268 0 2.521-.265 3.76-.794v1.589a9.077 9.077 0 01-1.794.58c-.559.122-1.235.183-2.03.183zm-.484-10.71c-.945 0-1.701.308-2.266.924-.559.616-.888 1.468-.989 2.557h6.156c0-1.125-.251-1.984-.752-2.579-.502-.601-1.218-.902-2.149-.902zm13.485-1.493c.522 0 .991.043 1.407.129l-.247 1.654a6.103 6.103 0 00-1.289-.161c-.953 0-1.769.387-2.45 1.16-.673.774-1.009 1.737-1.009 2.89v6.316h-1.784v-11.773h1.472l.204 2.18h.086c.437-.766.963-1.357 1.579-1.772a3.56 3.56 0 012.031-.623zm7.662 10.731c.315 0 .619-.021.913-.064.293-.05.526-.1.698-.15v1.364c-.193.093-.48.168-.859.225a5.926 5.926 0 01-1.01.097c-2.277 0-3.416-1.199-3.416-3.599v-7.003h-1.687v-.86l1.687-.741.752-2.514h1.031v2.729h3.416v1.386h-3.416v6.928c0 .709.168 1.253.505 1.633.337.38.798.569 1.386.569zm9.201-3.824v-1.633h5.274v1.633h-5.274zm23.907 5.081l-2.159-6.907c-.136-.423-.39-1.382-.763-2.879h-.086c-.286 1.253-.537 2.22-.752 2.9l-2.223 6.886h-2.063l-3.212-11.773h1.869c.76 2.957 1.336 5.21 1.73 6.757.401 1.546.63 2.588.687 3.126h.086c.079-.409.204-.935.376-1.58.179-.651.333-1.167.462-1.546l2.159-6.757h1.934l2.105 6.757c.402 1.231.674 2.266.817 3.104h.086c.028-.258.104-.655.225-1.192.129-.537.878-3.427 2.246-8.669h1.847l-3.255 11.773h-2.116zm13.13-11.988c.523 0 .992.043 1.407.129l-.247 1.654a6.103 6.103 0 00-1.289-.161c-.952 0-1.769.387-2.449 1.16-.673.774-1.01 1.737-1.01 2.89v6.316h-1.783v-11.773h1.472l.204 2.18h.086c.436-.766.963-1.357 1.579-1.772a3.556 3.556 0 012.03-.623zm5.643 11.988h-1.784v-11.773h1.784v11.773zm-1.934-14.964c0-.408.1-.705.301-.891.2-.194.451-.29.752-.29.286 0 .533.096.741.29.208.193.311.49.311.891s-.103.702-.311.903c-.208.193-.455.29-.741.29a1.04 1.04 0 01-.752-.29c-.201-.201-.301-.502-.301-.903zm9.768 13.707c.315 0 .619-.021.913-.064.293-.05.526-.1.698-.15v1.364c-.194.093-.48.168-.86.225a5.916 5.916 0 01-1.009.097c-2.278 0-3.416-1.199-3.416-3.599v-7.003h-1.687v-.86l1.687-.741.752-2.514h1.031v2.729h3.416v1.386h-3.416v6.928c0 .709.168 1.253.505 1.633.336.38.798.569 1.386.569zm9.198 1.472c-1.74 0-3.115-.53-4.125-1.59-1.003-1.06-1.504-2.531-1.504-4.415 0-1.898.465-3.405 1.396-4.522.938-1.117 2.195-1.676 3.771-1.676 1.475 0 2.642.487 3.502 1.461.859.967 1.289 2.245 1.289 3.835v1.128h-8.11c.035 1.382.383 2.431 1.042 3.147.666.716 1.6 1.074 2.803 1.074 1.268 0 2.521-.265 3.76-.794v1.589a9.077 9.077 0 01-1.794.58c-.559.122-1.235.183-2.03.183zm-.484-10.71c-.945 0-1.7.308-2.266.924-.559.616-.888 1.468-.989 2.557h6.156c0-1.125-.251-1.984-.752-2.579-.502-.601-1.218-.902-2.149-.902zm21.673 7.283c0 1.096-.408 1.941-1.224 2.535-.817.595-1.963.892-3.438.892-1.561 0-2.779-.247-3.652-.741v-1.654a8.859 8.859 0 001.815.676 7.66 7.66 0 001.88.247c.931 0 1.647-.146 2.149-.44.501-.301.751-.756.751-1.364 0-.459-.2-.849-.601-1.171-.394-.33-1.167-.716-2.32-1.16-1.096-.409-1.877-.763-2.342-1.064-.459-.308-.802-.655-1.031-1.042-.222-.387-.333-.848-.333-1.386 0-.959.39-1.715 1.17-2.266.781-.559 1.852-.838 3.212-.838 1.268 0 2.507.258 3.717.773l-.634 1.451c-1.181-.487-2.252-.731-3.212-.731-.845 0-1.482.133-1.912.398-.429.265-.644.63-.644 1.095 0 .315.079.584.236.806.165.222.426.433.784.634.358.2 1.046.49 2.063.87 1.396.508 2.338 1.02 2.825 1.536.494.516.741 1.164.741 1.944zm13.323-2.685c0 1.919-.483 3.419-1.45 4.501-.967 1.074-2.302 1.611-4.007 1.611-1.052 0-1.987-.247-2.803-.741-.817-.494-1.447-1.203-1.891-2.127-.444-.924-.666-2.005-.666-3.244 0-1.92.48-3.413 1.44-4.48.959-1.074 2.291-1.611 3.996-1.611 1.647 0 2.954.548 3.921 1.643.973 1.096 1.46 2.579 1.46 4.448zm-8.969 0c0 1.504.301 2.649.902 3.437.602.788 1.486 1.182 2.653 1.182 1.168 0 2.052-.39 2.654-1.171.608-.788.913-1.937.913-3.448 0-1.497-.305-2.632-.913-3.406-.602-.78-1.493-1.17-2.675-1.17-1.167 0-2.048.383-2.643 1.149-.594.766-.891 1.909-.891 3.427zm27.363 5.897v-7.659c0-.938-.201-1.64-.602-2.105-.401-.473-1.024-.709-1.869-.709-1.11 0-1.93.318-2.46.956-.53.637-.795 1.618-.795 2.943v6.574h-1.783v-7.659c0-.938-.2-1.64-.601-2.105-.401-.473-1.028-.709-1.88-.709-1.117 0-1.937.336-2.46 1.009-.516.666-.774 1.762-.774 3.287v6.177h-1.783v-11.773h1.45l.29 1.611h.086c.337-.573.81-1.02 1.418-1.343.616-.322 1.304-.483 2.063-.483 1.84 0 3.043.666 3.609 1.998h.086c.351-.616.86-1.103 1.526-1.461.666-.358 1.425-.537 2.277-.537 1.332 0 2.327.344 2.986 1.031.666.681.999 1.773.999 3.277v7.68h-1.783zm10.691.215c-1.74 0-3.115-.53-4.125-1.59-1.002-1.06-1.503-2.531-1.503-4.415 0-1.898.465-3.405 1.396-4.522.938-1.117 2.195-1.676 3.77-1.676 1.476 0 2.643.487 3.502 1.461.86.967 1.29 2.245 1.29 3.835v1.128h-8.111c.036 1.382.383 2.431 1.042 3.147.666.716 1.601 1.074 2.804 1.074 1.267 0 2.521-.265 3.76-.794v1.589a9.12 9.12 0 01-1.794.58c-.559.122-1.236.183-2.031.183zm-.483-10.71c-.945 0-1.701.308-2.267.924-.558.616-.888 1.468-.988 2.557h6.155c0-1.125-.25-1.984-.752-2.579-.501-.601-1.217-.902-2.148-.902zm15.754-1.278v7.637c0 .96.218 1.676.655 2.149.437.473 1.121.709 2.052.709 1.232 0 2.13-.337 2.696-1.01.573-.673.86-1.772.86-3.298v-6.187h1.783v11.773h-1.472l-.258-1.579h-.096a3.553 3.553 0 01-1.526 1.332c-.644.308-1.382.462-2.213.462-1.432 0-2.506-.34-3.222-1.02-.709-.681-1.064-1.769-1.064-3.266v-7.702h1.805zm19.683 8.561c0 1.096-.409 1.941-1.225 2.535-.816.595-1.962.892-3.438.892-1.561 0-2.778-.247-3.652-.741v-1.654a8.846 8.846 0 001.816.676 7.645 7.645 0 001.879.247c.931 0 1.648-.146 2.149-.44.501-.301.752-.756.752-1.364 0-.459-.201-.849-.602-1.171-.394-.33-1.167-.716-2.32-1.16-1.096-.409-1.876-.763-2.342-1.064-.458-.308-.802-.655-1.031-1.042-.222-.387-.333-.848-.333-1.386 0-.959.39-1.715 1.171-2.266.78-.559 1.851-.838 3.212-.838 1.267 0 2.506.258 3.716.773l-.633 1.451c-1.182-.487-2.253-.731-3.212-.731-.845 0-1.483.133-1.912.398-.43.265-.645.63-.645 1.095 0 .315.079.584.236.806.165.222.427.433.785.634.358.2 1.045.49 2.062.87 1.397.508 2.338 1.02 2.825 1.536.494.516.742 1.164.742 1.944zm8.134 3.427c-1.74 0-3.115-.53-4.125-1.59-1.002-1.06-1.504-2.531-1.504-4.415 0-1.898.466-3.405 1.397-4.522.938-1.117 2.195-1.676 3.77-1.676 1.476 0 2.643.487 3.502 1.461.86.967 1.289 2.245 1.289 3.835v1.128h-8.11c.036 1.382.383 2.431 1.042 3.147.666.716 1.601 1.074 2.804 1.074 1.267 0 2.521-.265 3.76-.794v1.589a9.12 9.12 0 01-1.794.58c-.559.122-1.236.183-2.031.183zm-.483-10.71c-.945 0-1.701.308-2.267.924-.558.616-.888 1.468-.988 2.557h6.155c0-1.125-.25-1.984-.752-2.579-.501-.601-1.217-.902-2.148-.902zm13.42.108h-2.997v10.387h-1.783v-10.387h-2.106v-.806l2.106-.645v-.655c0-2.893 1.264-4.34 3.792-4.34.623 0 1.353.126 2.191.376l-.462 1.429c-.687-.222-1.275-.333-1.762-.333-.673 0-1.171.225-1.493.677-.322.444-.483 1.16-.483 2.148v.763h2.997v1.386zm4.074-1.386v7.637c0 .96.218 1.676.655 2.149.437.473 1.121.709 2.052.709 1.232 0 2.131-.337 2.696-1.01.573-.673.86-1.772.86-3.298v-6.187h1.783v11.773h-1.472l-.258-1.579h-.096a3.547 3.547 0 01-1.526 1.332c-.644.308-1.382.462-2.213.462-1.432 0-2.506-.34-3.222-1.02-.709-.681-1.064-1.769-1.064-3.266v-7.702h1.805zm13.871 11.773h-1.783v-16.715h1.783v16.715zm13.799-1.257c.315 0 .619-.021.913-.064.294-.05.526-.1.698-.15v1.364c-.193.093-.48.168-.859.225a5.917 5.917 0 01-1.01.097c-2.277 0-3.416-1.199-3.416-3.599v-7.003h-1.686v-.86l1.686-.741.752-2.514h1.031v2.729h3.416v1.386h-3.416v6.928c0 .709.169 1.253.505 1.633.337.38.799.569 1.386.569zm9.198 1.472c-1.74 0-3.115-.53-4.125-1.59-1.002-1.06-1.504-2.531-1.504-4.415 0-1.898.466-3.405 1.397-4.522.938-1.117 2.195-1.676 3.77-1.676 1.476 0 2.643.487 3.502 1.461.86.967 1.289 2.245 1.289 3.835v1.128h-8.11c.036 1.382.383 2.431 1.042 3.147.666.716 1.601 1.074 2.804 1.074 1.267 0 2.52-.265 3.759-.794v1.589a9.077 9.077 0 01-1.794.58c-.558.122-1.235.183-2.03.183zm-.483-10.71c-.946 0-1.701.308-2.267.924-.558.616-.888 1.468-.988 2.557h6.155c0-1.125-.25-1.984-.752-2.579-.501-.601-1.217-.902-2.148-.902zm10.949 4.469l-4.093-5.747h2.031l3.104 4.511 3.094-4.511h2.009l-4.093 5.747 4.307 6.026h-2.019l-3.298-4.769-3.33 4.769h-2.02l4.308-6.026zm12.754 4.769c.315 0 .619-.021.913-.064.294-.05.526-.1.698-.15v1.364c-.193.093-.48.168-.859.225a5.926 5.926 0 01-1.01.097c-2.277 0-3.416-1.199-3.416-3.599v-7.003h-1.686v-.86l1.686-.741.752-2.514h1.031v2.729h3.416v1.386h-3.416v6.928c0 .709.169 1.253.505 1.633.337.38.799.569 1.386.569z" fill="#252A2E"/><path d="M242.5 184.012h602v-2h-602v2zm607 5v52h2v-52h-2zm-5 57h-602v2h602v-2zm-607-5v-52h-2v52h2zm5 5a5 5 0 01-5-5h-2a7 7 0 007 7v-2zm607-5a5 5 0 01-5 5v2a7 7 0 007-7h-2zm-5-57a5 5 0 015 5h2a7 7 0 00-7-7v2zm-602-2a7 7 0 00-7 7h2a5 5 0 015-5v-2z" fill="#DA212C"/><path d="M236.5 264.037a6 6 0 016-6.001h602a6 6 0 016 6v50a6 6 0 01-6 6h-602a6 6 0 01-6-6v-49.999z" fill="#E0E1E9"/><path d="M267.507 290.034c0 2.585-.738 4.565-2.213 5.94-1.468 1.375-3.592 2.062-6.37 2.062h-4.447v-15.705h4.93c2.564 0 4.555.677 5.973 2.031 1.418 1.353 2.127 3.244 2.127 5.672zm-3.459.086c0-3.374-1.49-5.06-4.469-5.06h-1.772v10.226h1.428c3.209 0 4.813-1.722 4.813-5.166zm11.58-1.988c-.695 0-1.239.222-1.633.666-.394.437-.62 1.06-.677 1.869h4.598c-.015-.809-.226-1.432-.634-1.869-.408-.444-.96-.666-1.654-.666zm.461 10.119c-1.933 0-3.444-.533-4.533-1.6-1.088-1.067-1.633-2.578-1.633-4.533 0-2.013.502-3.567 1.504-4.663 1.01-1.102 2.403-1.654 4.179-1.654 1.697 0 3.019.484 3.964 1.45.945.967 1.418 2.303 1.418 4.007v1.59h-7.745c.036.931.311 1.658.827 2.181.516.522 1.239.784 2.17.784a8.98 8.98 0 002.052-.226c.644-.15 1.317-.39 2.019-.719v2.535a7.541 7.541 0 01-1.837.633c-.651.144-1.446.215-2.385.215zm14.352-9.764h-2.836v9.549h-3.277v-9.549h-1.804v-1.579l1.804-.881v-.881c0-1.368.337-2.367 1.01-2.997.673-.63 1.751-.946 3.233-.946 1.132 0 2.138.169 3.019.505l-.838 2.407c-.659-.208-1.267-.312-1.826-.312-.466 0-.802.14-1.01.419-.207.272-.311.623-.311 1.053v.752h2.836v2.46zm9.667 9.549l-.634-1.632h-.086c-.551.694-1.12 1.178-1.708 1.45-.58.265-1.339.397-2.277.397-1.153 0-2.062-.329-2.728-.988-.659-.659-.989-1.597-.989-2.814 0-1.275.444-2.213 1.332-2.815.896-.609 2.242-.945 4.039-1.01l2.084-.064v-.526c0-1.218-.623-1.827-1.869-1.827-.959 0-2.087.29-3.384.871l-1.084-2.213c1.382-.724 2.914-1.085 4.597-1.085 1.612 0 2.847.351 3.706 1.052.86.702 1.289 1.769 1.289 3.202v8.002h-2.288zm-.967-5.564l-1.267.043c-.953.029-1.662.201-2.127.516-.466.315-.698.795-.698 1.439 0 .924.53 1.386 1.589 1.386.76 0 1.365-.219 1.816-.655.458-.437.687-1.017.687-1.741v-.988zm15.297 5.564l-.441-1.536h-.171c-.351.559-.849.992-1.494 1.3-.644.301-1.378.451-2.202.451-1.411 0-2.474-.376-3.19-1.128-.716-.759-1.074-1.847-1.074-3.265v-7.831h3.276v7.014c0 .867.154 1.519.462 1.955.308.43.798.645 1.472.645.916 0 1.579-.304 1.987-.913.408-.616.612-1.633.612-3.051v-5.65h3.277v12.009h-2.514zm9.377 0h-3.276v-16.714h3.276v16.714zm8.658-2.395c.573 0 1.261-.125 2.063-.376v2.438c-.817.366-1.819.548-3.008.548-1.311 0-2.267-.329-2.868-.988-.595-.666-.892-1.661-.892-2.986v-5.79H326.2v-1.386l1.804-1.096.946-2.535h2.095v2.557h3.362v2.46h-3.362v5.79c0 .465.128.809.386 1.031.265.222.613.333 1.042.333zm10.301-3.147v-1.782h5.754v1.782h-5.754zm25.835 5.542l-2.355-7.535c-.149-.461-.426-1.507-.832-3.14h-.094c-.312 1.367-.586 2.422-.82 3.164l-2.426 7.511h-2.25l-3.504-12.843h2.039c.828 3.226 1.457 5.683 1.887 7.371.437 1.687.687 2.824.75 3.41h.094c.086-.445.222-1.02.41-1.723.195-.711.363-1.273.504-1.687l2.355-7.371h2.11l2.296 7.371c.438 1.344.735 2.472.891 3.387h.094c.031-.282.113-.715.246-1.301.141-.586.957-3.739 2.449-9.457h2.016l-3.551 12.843h-2.309zm14.201-13.078c.57 0 1.082.047 1.535.141l-.269 1.805c-.531-.118-1-.176-1.406-.176-1.04 0-1.93.422-2.672 1.266-.735.843-1.102 1.894-1.102 3.152v6.89h-1.945v-12.843h1.605l.223 2.379h.094c.476-.836 1.05-1.481 1.722-1.934a3.88 3.88 0 012.215-.68zm6.033 13.078h-1.945v-12.843h1.945v12.843zm-2.109-16.324c0-.445.109-.769.328-.972.218-.211.492-.317.82-.317.313 0 .582.106.809.317.226.211.339.535.339.972 0 .438-.113.766-.339.985a1.146 1.146 0 01-.809.316c-.328 0-.602-.105-.82-.316-.219-.219-.328-.547-.328-.985zm10.532 14.953c.344 0 .676-.023.996-.07.321-.055.575-.109.762-.164v1.488c-.211.102-.523.184-.937.246a6.464 6.464 0 01-1.102.106c-2.484 0-3.726-1.309-3.726-3.926v-7.641h-1.84v-.937l1.84-.809.82-2.742h1.125v2.977h3.726v1.511h-3.726v7.559c0 .773.183 1.367.551 1.781.367.414.871.621 1.511.621zm9.912 1.606c-1.898 0-3.398-.578-4.5-1.735-1.094-1.156-1.64-2.761-1.64-4.816 0-2.07.507-3.715 1.523-4.934 1.023-1.218 2.394-1.828 4.113-1.828 1.61 0 2.883.532 3.821 1.594.937 1.055 1.406 2.449 1.406 4.184v1.23h-8.848c.039 1.508.418 2.653 1.137 3.434.726.781 1.746 1.172 3.058 1.172 1.383 0 2.75-.289 4.102-.868v1.735a9.931 9.931 0 01-1.957.633c-.609.132-1.348.199-2.215.199zm-.527-11.684c-1.031 0-1.856.336-2.473 1.008-.609.672-.969 1.602-1.078 2.789h6.715c0-1.226-.274-2.164-.82-2.812-.547-.657-1.329-.985-2.344-.985zm23.397 7.946c0 1.195-.445 2.117-1.336 2.765-.89.649-2.14.973-3.75.973-1.703 0-3.031-.27-3.984-.809v-1.804a9.696 9.696 0 001.981.738c.711.18 1.394.269 2.05.269 1.016 0 1.797-.16 2.344-.48.547-.328.82-.824.82-1.488 0-.5-.218-.926-.656-1.278-.43-.359-1.273-.781-2.531-1.265-1.195-.446-2.047-.832-2.555-1.16-.5-.336-.875-.715-1.125-1.137-.242-.422-.363-.926-.363-1.512 0-1.047.426-1.871 1.277-2.473.852-.609 2.02-.914 3.504-.914 1.383 0 2.735.282 4.055.844l-.692 1.582c-1.289-.531-2.457-.797-3.503-.797-.922 0-1.618.145-2.086.434-.469.289-.703.687-.703 1.195 0 .344.085.637.257.879.18.242.465.473.856.691.39.219 1.14.536 2.25.95 1.523.554 2.551 1.113 3.082 1.675.539.563.808 1.27.808 2.122zm14.412-2.93c0 2.094-.527 3.73-1.582 4.91-1.055 1.172-2.512 1.758-4.371 1.758-1.148 0-2.168-.27-3.059-.809-.89-.539-1.578-1.312-2.062-2.32-.484-1.008-.727-2.188-.727-3.539 0-2.094.524-3.723 1.571-4.887 1.047-1.172 2.5-1.758 4.359-1.758 1.797 0 3.223.598 4.277 1.793 1.063 1.196 1.594 2.813 1.594 4.852zm-9.785 0c0 1.641.328 2.891.984 3.75.657.859 1.621 1.289 2.895 1.289 1.273 0 2.238-.426 2.894-1.277.665-.86.997-2.114.997-3.762 0-1.633-.332-2.871-.997-3.715-.656-.852-1.628-1.277-2.918-1.277-1.273 0-2.234.418-2.882 1.254-.649.836-.973 2.082-.973 3.738zm29.728 6.433v-8.355c0-1.023-.219-1.789-.656-2.297-.438-.515-1.117-.773-2.039-.773-1.211 0-2.106.347-2.684 1.043-.578.695-.867 1.765-.867 3.211v7.171h-1.945v-8.355c0-1.023-.219-1.789-.657-2.297-.437-.515-1.121-.773-2.05-.773-1.219 0-2.114.367-2.684 1.101-.562.727-.844 1.922-.844 3.586v6.738h-1.945v-12.843h1.582l.316 1.758h.094a3.828 3.828 0 011.547-1.465c.672-.352 1.422-.528 2.25-.528 2.008 0 3.32.727 3.938 2.18h.093c.383-.672.938-1.203 1.664-1.594.727-.39 1.555-.586 2.485-.586 1.453 0 2.539.375 3.258 1.125.726.743 1.089 1.934 1.089 3.575v8.378h-1.945zm11.541.235c-1.899 0-3.399-.578-4.5-1.735-1.094-1.156-1.641-2.761-1.641-4.816 0-2.07.508-3.715 1.524-4.934 1.023-1.218 2.394-1.828 4.113-1.828 1.609 0 2.883.532 3.82 1.594.938 1.055 1.406 2.449 1.406 4.184v1.23h-8.847c.039 1.508.418 2.653 1.136 3.434.727.781 1.747 1.172 3.059 1.172 1.383 0 2.75-.289 4.102-.868v1.735a9.952 9.952 0 01-1.957.633c-.61.132-1.348.199-2.215.199zm-.528-11.684c-1.031 0-1.855.336-2.472 1.008-.61.672-.969 1.602-1.078 2.789h6.714c0-1.226-.273-2.164-.82-2.812-.547-.657-1.328-.985-2.344-.985zm16.941-1.394v8.332c0 1.047.238 1.828.715 2.344.476.515 1.223.773 2.238.773 1.344 0 2.324-.367 2.942-1.102.625-.734.937-1.933.937-3.597v-6.75h1.945v12.843h-1.605l-.281-1.722h-.106a3.867 3.867 0 01-1.664 1.453c-.703.336-1.508.504-2.414.504-1.562 0-2.734-.371-3.516-1.113-.773-.743-1.16-1.93-1.16-3.563v-8.402h1.969zm21.349 9.34c0 1.195-.445 2.117-1.336 2.765-.89.649-2.14.973-3.75.973-1.703 0-3.031-.27-3.984-.809v-1.804a9.71 9.71 0 001.98.738c.711.18 1.395.269 2.051.269 1.016 0 1.797-.16 2.344-.48.547-.328.82-.824.82-1.488 0-.5-.218-.926-.656-1.278-.43-.359-1.273-.781-2.531-1.265-1.196-.446-2.047-.832-2.555-1.16-.5-.336-.875-.715-1.125-1.137-.242-.422-.363-.926-.363-1.512 0-1.047.426-1.871 1.277-2.473.852-.609 2.02-.914 3.504-.914 1.383 0 2.734.282 4.055.844l-.692 1.582c-1.289-.531-2.457-.797-3.504-.797-.921 0-1.617.145-2.086.434-.468.289-.703.687-.703 1.195 0 .344.086.637.258.879.18.242.465.473.856.691.39.219 1.14.536 2.25.95 1.523.554 2.55 1.113 3.082 1.675.539.563.808 1.27.808 2.122zm8.752 3.738c-1.899 0-3.399-.578-4.5-1.735-1.094-1.156-1.641-2.761-1.641-4.816 0-2.07.508-3.715 1.524-4.934 1.023-1.218 2.394-1.828 4.113-1.828 1.609 0 2.883.532 3.82 1.594.938 1.055 1.406 2.449 1.406 4.184v1.23h-8.847c.039 1.508.418 2.653 1.137 3.434.726.781 1.746 1.172 3.058 1.172 1.383 0 2.75-.289 4.102-.868v1.735a9.952 9.952 0 01-1.957.633c-.61.132-1.348.199-2.215.199zm-.528-11.684c-1.031 0-1.855.336-2.472 1.008-.61.672-.969 1.602-1.078 2.789h6.715c0-1.226-.274-2.164-.821-2.812-.547-.657-1.328-.985-2.344-.985zm14.518.117h-3.27v11.332h-1.945v-11.332h-2.297v-.878l2.297-.704v-.714c0-3.157 1.379-4.735 4.137-4.735.679 0 1.476.137 2.39.41l-.504 1.559c-.75-.242-1.39-.363-1.922-.363-.734 0-1.277.246-1.629.738-.351.484-.527 1.266-.527 2.344v.832h3.27v1.511zm4.322-1.511v8.332c0 1.047.238 1.828.714 2.344.477.515 1.223.773 2.239.773 1.343 0 2.324-.367 2.941-1.102.625-.734.938-1.933.938-3.597v-6.75h1.945v12.843h-1.606l-.281-1.722h-.105a3.872 3.872 0 01-1.664 1.453c-.703.336-1.508.504-2.414.504-1.563 0-2.735-.371-3.516-1.113-.773-.743-1.16-1.93-1.16-3.563v-8.402h1.969zm15.009 12.843h-1.945v-18.234h1.945v18.234zm14.808-1.371c.343 0 .676-.023.996-.07.32-.055.574-.109.762-.164v1.488c-.211.102-.524.184-.938.246a6.445 6.445 0 01-1.102.106c-2.484 0-3.726-1.309-3.726-3.926v-7.641h-1.84v-.937l1.84-.809.82-2.742h1.125v2.977h3.727v1.511h-3.727v7.559c0 .773.184 1.367.551 1.781.367.414.871.621 1.512.621zm9.911 1.606c-1.898 0-3.398-.578-4.5-1.735-1.093-1.156-1.64-2.761-1.64-4.816 0-2.07.508-3.715 1.523-4.934 1.024-1.218 2.395-1.828 4.114-1.828 1.609 0 2.882.532 3.82 1.594.937 1.055 1.406 2.449 1.406 4.184v1.23h-8.848c.04 1.508.418 2.653 1.137 3.434.727.781 1.746 1.172 3.059 1.172 1.383 0 2.75-.289 4.101-.868v1.735a9.931 9.931 0 01-1.957.633c-.609.132-1.347.199-2.215.199zm-.527-11.684c-1.031 0-1.855.336-2.473 1.008-.609.672-.968 1.602-1.078 2.789h6.715c0-1.226-.273-2.164-.82-2.812-.547-.657-1.328-.985-2.344-.985zm11.822 4.875l-4.465-6.269h2.215l3.387 4.922 3.375-4.922h2.191l-4.465 6.269 4.699 6.574h-2.203l-3.597-5.203-3.633 5.203h-2.203l4.699-6.574zm13.791 5.203c.343 0 .675-.023.996-.07.32-.055.574-.109.761-.164v1.488c-.211.102-.523.184-.937.246a6.455 6.455 0 01-1.102.106c-2.484 0-3.726-1.309-3.726-3.926v-7.641h-1.84v-.937l1.84-.809.82-2.742h1.125v2.977h3.727v1.511h-3.727v7.559c0 .773.184 1.367.551 1.781.367.414.871.621 1.512.621z" fill="#252A2E"/><defs><clipPath id="prefix__clip0_4866_85002"><path fill="#fff" transform="translate(252.5 122.488)" d="M0 0h35v35H0z"/></clipPath><clipPath id="prefix__clip1_4866_85002"><path fill="#fff" transform="translate(252.5 197.512)" d="M0 0h35v35H0z"/></clipPath></defs></svg>