<svg fill="none" height="62" viewBox="0 0 552 62" width="552" xmlns="http://www.w3.org/2000/svg" xmlns:xlink="http://www.w3.org/1999/xlink"><clipPath id="a"><rect height="62" rx="6" width="552"/></clipPath><g clip-path="url(#a)"><rect fill="#e0e1e9" height="62" rx="6" width="552"/><path d="m31.0068 31.9971c0 1.7689-.3401 3.2477-1.0205 4.4365-.6731 1.1816-1.6507 2.0732-2.9326 2.6748-1.2819.5944-2.8252.8916-4.6299.8916h-4.4472v-15.7051h4.9306c1.6472 0 3.0759.2936 4.2862.8809 1.2102.5801 2.1484 1.443 2.8144 2.5888.666 1.1387.999 2.5495.999 4.2325zm-3.4589.0859c0-1.1601-.1719-2.1126-.5157-2.8574-.3366-.752-.8379-1.307-1.5039-1.6651-.6588-.358-1.4752-.5371-2.4492-.5371h-1.7725v10.2266h1.4288c1.6256 0 2.8323-.4333 3.6201-1.2998.7949-.8665 1.1924-2.1556 1.1924-3.8672zm11.5582-4.3184c1.11 0 2.066.2149 2.8681.6446.8021.4225 1.4216 1.0384 1.8584 1.8476.4369.8093.6553 1.7976.6553 2.9649v1.5898h-7.7451c.0358.9239.3115 1.6507.8271 2.1807.5228.5228 1.2461.7842 2.1699.7842.7663 0 1.4681-.0788 2.1055-.2364.6374-.1575 1.2927-.3938 1.9658-.7089v2.5351c-.5944.2936-1.2174.5085-1.8691.6445-.6445.1361-1.4287.2041-2.3525.2041-1.2032 0-2.2702-.222-3.2012-.666-.9238-.444-1.6507-1.1207-2.1807-2.0302-.5228-.9096-.7842-2.0554-.7842-3.4375 0-1.4037.2364-2.571.709-3.502.4798-.9381 1.1459-1.64 1.9981-2.1055.8522-.4726 1.844-.709 2.9756-.709zm.0214 2.3311c-.6373 0-1.1673.2041-1.5898.6123-.4154.4082-.6553 1.0492-.7197 1.9229h4.5976c-.0071-.487-.0967-.9203-.2685-1.2998-.1647-.3796-.4154-.6804-.752-.9024-.3294-.222-.7519-.333-1.2676-.333zm14.8131.3545h-2.8359v9.5498h-3.2764v-9.5498h-1.8047v-1.5791l1.8047-.8809v-.8808c0-1.0241.1719-1.819.5156-2.3848.351-.5729.8415-.9739 1.4717-1.2031.6374-.2363 1.3893-.3545 2.2559-.3545.6374 0 1.2174.0537 1.7402.1611.5228.1003.9489.2149 1.2783.3438l-.8379 2.4062c-.2506-.0788-.5227-.1504-.8164-.2148-.2936-.0645-.6302-.0967-1.0097-.0967-.4584 0-.7949.1396-1.0098.4189-.2077.2722-.3115.6231-.3115 1.0528v.7519h2.8359zm6.9606-2.707c1.6113 0 2.8467.3509 3.706 1.0527.8594.7018 1.2891 1.7689 1.2891 3.2012v8.0029h-2.2881l-.6338-1.6328h-.0859c-.3438.4297-.6947.7806-1.0528 1.0527-.358.2722-.7698.4727-1.2353.6016s-1.0313.1933-1.6973.1933c-.709 0-1.3463-.136-1.9121-.4082-.5586-.2721-.999-.6875-1.3213-1.2461-.3222-.5657-.4834-1.2819-.4834-2.1484 0-1.2747.4476-2.2129 1.3428-2.8144.8952-.6088 2.238-.9454 4.0283-1.0098l2.084-.0645v-.5263c0-.6302-.1647-1.0922-.4941-1.3858-.3295-.2936-.7878-.4404-1.375-.4404-.5801 0-1.1494.0824-1.708.2471s-1.1172.3724-1.6758.623l-1.085-2.2129c.6374-.3366 1.35-.6015 2.1377-.7949.7949-.1934 1.6149-.29 2.46-.29zm1.7402 6.6923-1.2676.043c-1.0599.0287-1.7975.2184-2.2129.5694-.4082.3509-.6123.8128-.6123 1.3857 0 .5013.1468.8594.4405 1.0742.2936.2077.6767.3115 1.1494.3115.7018 0 1.2926-.2076 1.7724-.623.487-.4154.7305-1.0062.7305-1.7725zm17.8102-6.4453v12.0098h-2.5137l-.4404-1.5361h-.1719c-.2578.4082-.5801.7412-.9668.999s-.8128.4476-1.2783.5693c-.4655.1218-.9489.1826-1.4502.1826-.8594 0-1.6078-.1503-2.2451-.4511-.6374-.308-1.1351-.7842-1.4932-1.4287-.3509-.6446-.5264-1.4825-.5264-2.5137v-7.8311h3.2764v7.0147c0 .8594.154 1.5075.4619 1.9443.3079.4369.7985.6553 1.4717.6553.666 0 1.1888-.1504 1.5683-.4512.3796-.3079.6446-.7555.795-1.3428.1575-.5944.2363-1.3177.2363-2.1699v-5.6504zm6.8638 12.0098h-3.2763v-16.7148h3.2763zm8.6578-2.3955c.3581 0 .7054-.0358 1.042-.1074.3438-.0716.684-.1612 1.0205-.2686v2.4385c-.3509.1575-.7877.2865-1.3105.3867-.5156.1074-1.0814.1611-1.6973.1611-.7161 0-1.3606-.1145-1.9336-.3437-.5657-.2363-1.0133-.641-1.3427-1.2139-.3223-.5801-.4834-1.3857-.4834-2.417v-5.79h-1.5684v-1.3857l1.8047-1.0957.9453-2.5352h2.0947v2.5566h3.3623v2.46h-3.3623v5.79c0 .4584.1289.8021.3868 1.0313.2649.222.6123.333 1.0419.333zm10.2778-3.1826v-1.7344h5.812v1.7344zm25.811 5.5547-2.285-7.4766c-.101-.3203-.199-.6328-.293-.9375-.086-.3125-.168-.6094-.246-.8906-.07-.2891-.136-.5547-.199-.7969-.055-.25-.101-.4648-.141-.6445h-.082c-.031.1797-.074.3945-.128.6445-.055.2422-.122.5078-.2.7969-.07.289-.148.5937-.234.914-.086.3125-.184.6289-.293.9493l-2.391 7.4414h-2.191l-3.539-12.8438h2.015l1.852 7.0899c.125.4687.242.9335.352 1.3945.117.4531.214.8828.293 1.289.086.3985.148.7461.187 1.043h.094c.047-.1953.097-.4297.152-.7031.063-.2734.129-.5625.199-.8672.078-.3125.161-.6211.246-.9258.086-.3125.172-.6054.258-.8789l2.367-7.4414h2.098l2.285 7.4297c.117.375.231.7656.34 1.1719.117.4062.223.8008.317 1.1836.093.375.16.7109.199 1.0078h.094c.031-.2656.089-.5938.175-.9844s.184-.8203.293-1.2891c.117-.4687.239-.9453.364-1.4296l1.875-7.0899h1.98l-3.551 12.8438zm14.143-13.0547c.258 0 .527.0156.808.0469.282.0234.532.0585.75.1054l-.246 1.8047c-.211-.0547-.445-.0977-.703-.1289s-.5-.0469-.726-.0469c-.516 0-1.004.1055-1.465.3164-.453.2032-.852.5-1.196.8907-.343.3828-.613.8476-.808 1.3945-.196.5391-.293 1.1406-.293 1.8047v6.8906h-1.957v-12.8438h1.617l.211 2.3672h.082c.266-.4765.586-.9101.961-1.3007.375-.3985.808-.7149 1.301-.9493.5-.2343 1.054-.3515 1.664-.3515zm6.079.2343v12.8438h-1.945v-12.8438zm-.949-4.8046c.32 0 .594.1054.82.3164.235.2031.352.5234.352.9609 0 .4297-.117.75-.352.9609-.226.211-.5.3164-.82.3164-.336 0-.617-.1054-.844-.3164-.218-.2109-.328-.5312-.328-.9609 0-.4375.11-.7578.328-.9609.227-.211.508-.3164.844-.3164zm9.373 16.289c.32 0 .648-.0273.984-.082s.61-.1211.82-.1992v1.5117c-.226.1016-.542.1875-.949.2578-.398.0703-.789.1055-1.172.1055-.679 0-1.296-.1172-1.851-.3516-.555-.2422-1-.6484-1.336-1.2187-.328-.5703-.492-1.3594-.492-2.3672v-7.6172h-1.828v-.9492l1.839-.7617.774-2.7891h1.172v2.9765h3.761v1.5235h-3.761v7.5586c0 .8047.183 1.4062.551 1.8047.375.3984.871.5976 1.488.5976zm9.501-11.7187c1.094 0 2.032.2422 2.813.7265.781.4844 1.379 1.1641 1.793 2.0391.414.8672.621 1.8828.621 3.0469v1.207h-8.871c.023 1.5078.398 2.6563 1.125 3.4453.726.7891 1.75 1.1836 3.07 1.1836.813 0 1.531-.0742 2.156-.2226.625-.1485 1.274-.3672 1.946-.6563v1.7109c-.649.2891-1.293.5-1.934.6329-.633.1328-1.383.1992-2.25.1992-1.234 0-2.312-.25-3.234-.75-.914-.5078-1.625-1.25-2.133-2.2266s-.762-2.1719-.762-3.5859c0-1.3828.231-2.5781.692-3.586.468-1.0156 1.125-1.7968 1.968-2.3437.852-.5469 1.852-.8203 3-.8203zm-.023 1.5937c-1.039 0-1.867.3399-2.484 1.0196-.618.6796-.985 1.6289-1.102 2.8476h6.797c-.008-.7656-.129-1.4375-.363-2.0156-.227-.586-.575-1.0391-1.043-1.3594-.469-.3281-1.071-.4922-1.805-.4922zm23.398 7.9688c0 .8203-.207 1.5117-.622 2.0742-.406.5547-.992.9726-1.757 1.2539-.758.2813-1.664.4219-2.719.4219-.899 0-1.676-.0703-2.332-.211-.656-.1406-1.231-.3398-1.723-.5976v-1.793c.524.2578 1.149.4922 1.875.7031.727.211 1.469.3164 2.227.3164 1.109 0 1.914-.1796 2.414-.539s.75-.8477.75-1.4649c0-.3515-.102-.6601-.305-.9257-.195-.2735-.527-.5352-.996-.7852-.469-.2578-1.117-.5391-1.945-.8437-.821-.3126-1.531-.6211-2.133-.9258-.594-.3125-1.055-.6914-1.383-1.1368-.32-.4453-.48-1.0234-.48-1.7343 0-1.086.437-1.918 1.312-2.4961.883-.586 2.039-.8789 3.469-.8789.773 0 1.496.0781 2.168.2343.68.1485 1.312.3516 1.898.6094l-.656 1.5586c-.531-.2265-1.098-.418-1.699-.5742-.602-.1562-1.215-.2344-1.84-.2344-.898 0-1.59.1485-2.074.4453-.477.2969-.715.7032-.715 1.2188 0 .3984.109.7265.328.9844.227.2578.586.5 1.078.7265.492.2266 1.141.4922 1.946.7969.804.2969 1.5.6055 2.085.9258.586.3125 1.036.6953 1.348 1.1484.32.4453.481 1.0195.481 1.7227zm14.353-2.9297c0 1.0547-.137 1.9961-.41 2.8242-.274.8281-.668 1.5273-1.184 2.0977-.516.5703-1.141 1.0078-1.875 1.3125-.727.2968-1.551.4453-2.473.4453-.859 0-1.648-.1485-2.367-.4453-.711-.3047-1.328-.7422-1.851-1.3125-.516-.5704-.918-1.2696-1.207-2.0977-.282-.8281-.422-1.7695-.422-2.8242 0-1.4063.238-2.6016.715-3.5859.476-.9922 1.156-1.7461 2.039-2.2618.89-.5234 1.949-.7851 3.175-.7851 1.172 0 2.196.2617 3.071.7851.882.5235 1.566 1.2813 2.05 2.2735.493.9843.739 2.1757.739 3.5742zm-9.774 0c0 1.0312.137 1.9258.41 2.6836.274.7578.696 1.3437 1.266 1.7578s1.305.6211 2.203.6211c.891 0 1.621-.207 2.192-.6211.578-.4141 1.004-1 1.277-1.7578s.41-1.6524.41-2.6836c0-1.0235-.137-1.9063-.41-2.6485-.273-.75-.695-1.3281-1.266-1.7343-.57-.4063-1.308-.6094-2.215-.6094-1.335 0-2.316.4414-2.941 1.3242-.617.8828-.926 2.1055-.926 3.668zm27.232-6.6328c1.414 0 2.481.3711 3.2 1.1133.718.7343 1.078 1.9179 1.078 3.5507v8.4141h-1.922v-8.3203c0-1.0391-.227-1.8164-.68-2.332-.445-.5235-1.109-.7852-1.992-.7852-1.242 0-2.145.3594-2.707 1.0781-.563.7188-.844 1.7774-.844 3.1758v7.1836h-1.933v-8.3203c0-.6953-.102-1.2735-.305-1.7344-.195-.4609-.492-.8047-.891-1.0312-.39-.2344-.887-.3516-1.488-.3516-.852 0-1.535.1758-2.051.5273-.515.3516-.89.875-1.125 1.5704-.226.6875-.34 1.5351-.34 2.5429v6.7969h-1.945v-12.8438h1.57l.293 1.8165h.106c.258-.4454.582-.8204.972-1.125.391-.3047.829-.5352 1.313-.6915.484-.1562 1-.2343 1.547-.2343.976 0 1.793.1836 2.449.5508.664.3593 1.145.9101 1.441 1.6523h.106c.422-.7422 1-1.293 1.734-1.6523.735-.3672 1.539-.5508 2.414-.5508zm13.369 0c1.094 0 2.031.2422 2.813.7265.781.4844 1.378 1.1641 1.793 2.0391.414.8672.621 1.8828.621 3.0469v1.207h-8.871c.023 1.5078.398 2.6563 1.125 3.4453.726.7891 1.75 1.1836 3.07 1.1836.812 0 1.531-.0742 2.156-.2226.625-.1485 1.274-.3672 1.945-.6563v1.7109c-.648.2891-1.293.5-1.933.6329-.633.1328-1.383.1992-2.25.1992-1.235 0-2.313-.25-3.235-.75-.914-.5078-1.625-1.25-2.132-2.2266-.508-.9766-.762-2.1719-.762-3.5859 0-1.3828.23-2.5781.691-3.586.469-1.0156 1.125-1.7968 1.969-2.3437.852-.5469 1.852-.8203 3-.8203zm-.023 1.5937c-1.039 0-1.868.3399-2.485 1.0196-.617.6796-.984 1.6289-1.101 2.8476h6.797c-.008-.7656-.129-1.4375-.364-2.0156-.226-.586-.574-1.0391-1.043-1.3594-.468-.3281-1.07-.4922-1.804-.4922zm25.694-1.3594v12.8438h-1.594l-.281-1.8047h-.105c-.266.4453-.61.8203-1.032 1.125-.421.3047-.898.5313-1.429.6797-.524.1562-1.082.2344-1.676.2344-1.016 0-1.867-.1641-2.555-.4922-.687-.3281-1.207-.836-1.558-1.5234-.344-.6876-.516-1.5704-.516-2.6485v-8.4141h1.969v8.2735c0 1.0703.242 1.8711.726 2.4023.485.5235 1.223.7852 2.215.7852.953 0 1.711-.1797 2.274-.5391.57-.3593.98-.8867 1.23-1.582.25-.7031.375-1.5625.375-2.5781v-6.7618zm12.572 9.3282c0 .8203-.207 1.5117-.621 2.0742-.406.5547-.992.9726-1.758 1.2539-.758.2813-1.664.4219-2.719.4219-.898 0-1.675-.0703-2.332-.211-.656-.1406-1.23-.3398-1.722-.5976v-1.793c.523.2578 1.148.4922 1.875.7031.726.211 1.468.3164 2.226.3164 1.11 0 1.914-.1796 2.414-.539s.75-.8477.75-1.4649c0-.3515-.101-.6601-.304-.9257-.196-.2735-.528-.5352-.996-.7852-.469-.2578-1.118-.5391-1.946-.8437-.82-.3126-1.531-.6211-2.133-.9258-.593-.3125-1.054-.6914-1.382-1.1368-.321-.4453-.481-1.0234-.481-1.7343 0-1.086.438-1.918 1.313-2.4961.882-.586 2.039-.8789 3.468-.8789.774 0 1.496.0781 2.168.2343.68.1485 1.313.3516 1.899.6094l-.656 1.5586c-.532-.2265-1.098-.418-1.7-.5742-.601-.1562-1.215-.2344-1.84-.2344-.898 0-1.589.1485-2.074.4453-.476.2969-.715.7032-.715 1.2188 0 .3984.11.7265.329.9844.226.2578.585.5 1.078.7265.492.2266 1.14.4922 1.945.7969.805.2969 1.5.6055 2.086.9258.586.3125 1.035.6953 1.348 1.1484.32.4453.48 1.0195.48 1.7227zm8.224-9.5625c1.094 0 2.032.2422 2.813.7265.781.4844 1.379 1.1641 1.793 2.0391.414.8672.621 1.8828.621 3.0469v1.207h-8.871c.023 1.5078.398 2.6563 1.125 3.4453.726.7891 1.75 1.1836 3.07 1.1836.813 0 1.531-.0742 2.156-.2226.625-.1485 1.274-.3672 1.946-.6563v1.7109c-.649.2891-1.293.5-1.934.6329-.633.1328-1.383.1992-2.25.1992-1.234 0-2.312-.25-3.234-.75-.914-.5078-1.625-1.25-2.133-2.2266s-.762-2.1719-.762-3.5859c0-1.3828.231-2.5781.692-3.586.468-1.0156 1.125-1.7968 1.968-2.3437.852-.5469 1.852-.8203 3-.8203zm-.023 1.5937c-1.039 0-1.867.3399-2.485 1.0196-.617.6796-.984 1.6289-1.101 2.8476h6.797c-.008-.7656-.129-1.4375-.364-2.0156-.226-.586-.574-1.0391-1.042-1.3594-.469-.3281-1.071-.4922-1.805-.4922zm14.423.1641h-3.199v11.3203h-1.945v-11.3203h-2.274v-.9375l2.274-.6445v-.8555c0-1.0781.16-1.9531.48-2.625.321-.6797.785-1.1797 1.395-1.5.609-.3203 1.351-.4805 2.226-.4805.492 0 .942.043 1.348.1289.414.086.777.1836 1.09.293l-.504 1.5352c-.266-.086-.567-.1641-.902-.2344-.329-.0782-.665-.1172-1.008-.1172-.742 0-1.293.2422-1.653.7266-.351.4765-.527 1.2265-.527 2.25v.9374h3.199zm13.123-1.5235v12.8438h-1.594l-.281-1.8047h-.106c-.265.4453-.609.8203-1.031 1.125s-.898.5313-1.43.6797c-.523.1562-1.082.2344-1.675.2344-1.016 0-1.867-.1641-2.555-.4922-.687-.3281-1.207-.836-1.559-1.5234-.343-.6876-.515-1.5704-.515-2.6485v-8.4141h1.969v8.2735c0 1.0703.242 1.8711.726 2.4023.485.5235 1.223.7852 2.215.7852.953 0 1.711-.1797 2.273-.5391.571-.3593.981-.8867 1.231-1.582.25-.7031.375-1.5625.375-2.5781v-6.7618zm6.22 12.8438h-1.957v-18.2344h1.957zm14.796-1.3594c.321 0 .649-.0273.985-.082s.609-.1211.82-.1992v1.5117c-.227.1016-.543.1875-.949.2578-.399.0703-.789.1055-1.172.1055-.68 0-1.297-.1172-1.852-.3516-.554-.2422-1-.6484-1.336-1.2187-.328-.5703-.492-1.3594-.492-2.3672v-7.6172h-1.828v-.9492l1.84-.7617.773-2.7891h1.172v2.9765h3.762v1.5235h-3.762v7.5586c0 .8047.184 1.4062.551 1.8047.375.3984.871.5976 1.488.5976zm9.502-11.7187c1.094 0 2.031.2422 2.812.7265.782.4844 1.379 1.1641 1.793 2.0391.414.8672.621 1.8828.621 3.0469v1.207h-8.871c.024 1.5078.399 2.6563 1.125 3.4453.727.7891 1.75 1.1836 3.071 1.1836.812 0 1.531-.0742 2.156-.2226.625-.1485 1.273-.3672 1.945-.6563v1.7109c-.648.2891-1.293.5-1.933.6329-.633.1328-1.383.1992-2.25.1992-1.235 0-2.313-.25-3.235-.75-.914-.5078-1.625-1.25-2.133-2.2266-.507-.9766-.761-2.1719-.761-3.5859 0-1.3828.23-2.5781.691-3.586.469-1.0156 1.125-1.7968 1.969-2.3437.851-.5469 1.851-.8203 3-.8203zm-.024 1.5937c-1.039 0-1.867.3399-2.484 1.0196-.617.6796-.984 1.6289-1.101 2.8476h6.796c-.007-.7656-.129-1.4375-.363-2.0156-.226-.586-.574-1.0391-1.043-1.3594-.469-.3281-1.07-.4922-1.805-.4922zm11.764 4.9102-4.442-6.2696h2.227l3.387 4.9454 3.375-4.9454h2.203l-4.442 6.2696 4.688 6.5742h-2.227l-3.597-5.2383-3.622 5.2383h-2.203zm13.802 5.2148c.32 0 .648-.0273.984-.082s.61-.1211.821-.1992v1.5117c-.227.1016-.543.1875-.949.2578-.399.0703-.79.1055-1.172.1055-.68 0-1.297-.1172-1.852-.3516-.555-.2422-1-.6484-1.336-1.2187-.328-.5703-.492-1.3594-.492-2.3672v-7.6172h-1.828v-.9492l1.84-.7617.773-2.7891h1.172v2.9765h3.762v1.5235h-3.762v7.5586c0 .8047.184 1.4062.551 1.8047.375.3984.871.5976 1.488.5976z" fill="#252a2e"/></g></svg>