<svg fill="none" height="66" width="720" xmlns="http://www.w3.org/2000/svg" xmlns:xlink="http://www.w3.org/1999/xlink"><clipPath id="a"><rect height="64" rx="6" width="408" x="211.833" y="1.333"/></clipPath><path d="m14.698 29.833h-1.787v-8.567h4.91v1.489h-3.123v2.209h2.907v1.482h-2.907zm10.54-3.287c0 .547-.075 1.03-.223 1.453-.145.422-.358.78-.639 1.072-.277.29-.613.508-1.008.656-.39.149-.832.223-1.324.223-.46 0-.885-.074-1.271-.223a2.825 2.825 0 0 1 -1.002-.656c-.282-.293-.5-.65-.657-1.072-.152-.422-.228-.906-.228-1.453 0-.727.129-1.342.387-1.846a2.653 2.653 0 0 1 1.101-1.148c.477-.262 1.045-.393 1.705-.393.614 0 1.157.13 1.63.393.476.261.849.644 1.118 1.148.274.504.41 1.12.41 1.846zm-4.53 0c0 .43.047.79.14 1.084.095.293.241.513.44.662.2.148.46.222.78.222.316 0 .572-.074.767-.222.2-.149.344-.37.434-.662.094-.293.14-.655.14-1.084 0-.434-.046-.793-.14-1.078-.09-.29-.235-.506-.434-.65-.199-.145-.459-.218-.78-.218-.472 0-.816.162-1.03.487-.211.324-.317.81-.317 1.459zm9.655-3.387c.7 0 1.262.191 1.687.574.426.38.639.988.639 1.828v4.272h-1.787v-3.826c0-.47-.086-.823-.258-1.061-.168-.238-.433-.357-.797-.357-.547 0-.92.185-1.119.556-.2.371-.299.907-.299 1.606v3.082h-1.787v-6.551h1.365l.24.838h.1c.14-.227.315-.41.522-.55.21-.142.443-.245.697-.311.258-.067.523-.1.797-.1zm6.854 5.367c.195 0 .384-.02.568-.058a5.54 5.54 0 0 0 .557-.147v1.33c-.192.086-.43.156-.715.211-.282.059-.59.088-.926.088-.39 0-.742-.063-1.055-.188a1.501 1.501 0 0 1 -.732-.662c-.176-.316-.264-.756-.264-1.318v-3.158h-.855v-.756l.984-.598.516-1.383h1.142v1.395h1.834v1.342h-1.834v3.158c0 .25.07.438.211.563.145.12.334.181.569.181zm1.803-1.178v-1.464h3.146v1.464zm8.945.54c0 .445-.105.822-.316 1.13-.207.305-.518.537-.932.698-.414.156-.93.234-1.547.234-.457 0-.85-.03-1.178-.088a4.852 4.852 0 0 1 -.984-.293v-1.476c.356.16.736.293 1.143.398.41.102.77.152 1.078.152.348 0 .596-.05.744-.152a.48.48 0 0 0 .229-.41.486.486 0 0 0 -.094-.293c-.059-.09-.188-.19-.387-.299-.2-.113-.512-.26-.937-.44a6.192 6.192 0 0 1 -1.014-.52 1.767 1.767 0 0 1 -.586-.622c-.125-.242-.188-.549-.188-.92 0-.605.235-1.06.704-1.365.472-.309 1.103-.463 1.892-.463.406 0 .793.041 1.16.123.371.082.752.213 1.143.393l-.54 1.289a9.161 9.161 0 0 0 -.92-.346 2.89 2.89 0 0 0 -.872-.135c-.262 0-.46.035-.592.106a.343.343 0 0 0 -.2.322c0 .105.034.2.1.281.07.082.204.174.399.276.2.097.49.224.873.38.371.153.693.313.967.48.273.165.484.37.633.616.148.242.222.557.222.944zm3.11-4.606v6.55h-1.787v-6.55zm-.89-2.566c.265 0 .493.062.685.187.191.121.287.35.287.686 0 .332-.096.562-.287.691-.192.125-.42.188-.686.188-.27 0-.5-.063-.691-.188-.188-.129-.281-.36-.281-.691 0-.336.093-.565.28-.686.192-.125.423-.187.692-.187zm7.257 9.117h-5.172v-1.055l3.035-4.13h-2.855v-1.366h4.887v1.16l-2.953 4.026h3.058zm3.93-6.674c.606 0 1.127.117 1.565.352.437.23.775.566 1.013 1.007.239.442.358.98.358 1.617v.868h-4.225c.02.504.17.9.451 1.19.285.284.68.427 1.184.427.418 0 .8-.043 1.148-.129a5.846 5.846 0 0 0 1.073-.387v1.383c-.325.16-.664.277-1.02.352a6.32 6.32 0 0 1 -1.283.111c-.656 0-1.238-.121-1.746-.363a2.712 2.712 0 0 1 -1.19-1.108c-.285-.496-.427-1.12-.427-1.875 0-.765.128-1.402.386-1.91.262-.512.625-.894 1.09-1.148.465-.258 1.006-.387 1.623-.387zm.012 1.271c-.348 0-.637.112-.867.334-.227.223-.358.573-.393 1.05h2.508a1.765 1.765 0 0 0 -.146-.71 1.1 1.1 0 0 0 -.41-.492c-.18-.121-.41-.182-.692-.182zm4.053 4.565c0-.367.1-.625.299-.774.203-.148.447-.222.732-.222.278 0 .516.074.715.222.203.149.305.407.305.774 0 .351-.102.605-.305.762-.2.156-.437.234-.715.234-.285 0-.53-.078-.732-.234-.2-.157-.299-.41-.299-.762zm0-4.84c0-.367.1-.625.299-.773.203-.149.447-.223.732-.223.278 0 .516.074.715.223.203.148.305.406.305.773 0 .355-.102.611-.305.768-.2.152-.437.228-.715.228-.285 0-.53-.076-.732-.228-.2-.157-.299-.412-.299-.768zm11.915 5.678h-5.614v-.815l2.291-2.326c.426-.43.784-.812 1.073-1.148a4.33 4.33 0 0 0 .667-.99c.153-.329.229-.688.229-1.079 0-.484-.145-.853-.434-1.107-.285-.258-.662-.387-1.13-.387-.41 0-.774.07-1.09.211-.317.14-.64.34-.973.598l-.521-.656c.226-.192.472-.362.738-.51.27-.149.556-.266.861-.352.309-.086.637-.129.985-.129.527 0 .982.092 1.365.276.383.183.678.445.885.785.21.34.316.744.316 1.213 0 .453-.09.875-.27 1.265-.18.387-.431.772-.755 1.155-.325.379-.703.78-1.137 1.207l-1.863 1.856v.041h4.377v.89zm7.222-1.987h-1.283v1.987h-.949v-1.987h-4.142v-.82l4.078-5.806h1.013v5.748h1.284v.878zm-2.232-.878v-2.801c0-.215.002-.409.006-.58.004-.176.01-.338.017-.487.008-.152.014-.297.018-.433.008-.137.014-.272.018-.405h-.047c-.074.157-.16.323-.258.498-.094.172-.19.327-.287.463l-2.643 3.745zm7.575 1.107c0 .41-.104.756-.311 1.037-.203.277-.496.486-.879.627-.379.14-.832.211-1.36.211a5.63 5.63 0 0 1 -1.165-.105 3.376 3.376 0 0 1 -.862-.3v-.896c.262.13.575.246.938.352.363.105.734.158 1.113.158.555 0 .957-.09 1.207-.27a.855.855 0 0 0 .375-.732.74.74 0 0 0 -.152-.463c-.098-.137-.264-.267-.498-.392a7.398 7.398 0 0 0 -.973-.422c-.41-.157-.765-.31-1.066-.463a1.99 1.99 0 0 1 -.692-.569c-.16-.222-.24-.511-.24-.867 0-.543.219-.959.656-1.248.442-.293 1.02-.44 1.735-.44.386 0 .748.04 1.084.118a5 5 0 0 1 .949.305l-.328.779a6.015 6.015 0 0 0 -.85-.287 3.64 3.64 0 0 0 -.92-.117c-.449 0-.795.074-1.037.222-.238.149-.357.352-.357.61 0 .199.054.363.164.492.113.129.293.25.539.363s.57.246.973.399c.402.148.75.302 1.043.462.292.157.517.348.673.575.16.222.24.51.24.861zm4.51-4.781c.8 0 1.439.275 1.916.826.476.55.714 1.379.714 2.484 0 .73-.109 1.344-.328 1.84-.218.496-.527.871-.925 1.125-.395.254-.862.381-1.4.381-.34 0-.64-.045-.897-.135a2.118 2.118 0 0 1 -.663-.363 2.371 2.371 0 0 1 -.456-.498h-.07c.01.152.025.336.04.55.02.215.03.403.03.563v2.637h-.979v-9.294h.803l.129.95h.047c.124-.196.277-.374.456-.534.18-.164.399-.293.657-.387.261-.098.57-.146.926-.146zm-.17.82c-.446 0-.805.086-1.079.258-.269.172-.466.43-.591.773-.125.34-.192.768-.2 1.284v.187c0 .543.06 1.002.176 1.377.121.375.319.66.592.855.277.196.648.293 1.113.293.399 0 .73-.107.996-.322s.463-.514.592-.896c.133-.387.2-.83.2-1.33 0-.758-.149-1.36-.446-1.805-.293-.45-.744-.674-1.353-.674zm-81.347 17.152h2.666c1.14 0 2.004.16 2.59.48.586.321.879.884.879 1.688 0 .325-.053.617-.158.88-.102.261-.25.476-.446.644a1.475 1.475 0 0 1 -.715.328v.058c.286.06.543.16.774.305.23.14.414.348.55.621.141.27.212.63.212 1.078 0 .52-.127.965-.381 1.336s-.617.657-1.09.856c-.469.195-1.027.293-1.676.293h-3.205zm1.816 3.393h1.055c.528 0 .893-.082 1.096-.246.203-.168.305-.414.305-.738 0-.329-.122-.563-.364-.704-.238-.144-.617-.216-1.136-.216h-.956zm0 1.441v2.233h1.184c.547 0 .928-.106 1.143-.317.215-.21.322-.494.322-.85 0-.21-.047-.396-.14-.556-.094-.16-.253-.285-.475-.375-.219-.09-.522-.135-.909-.135zm11.987.446c0 .547-.074 1.03-.223 1.453-.144.422-.357.78-.638 1.072-.277.29-.614.508-1.008.656-.39.149-.832.223-1.324.223a3.52 3.52 0 0 1 -1.272-.223 2.826 2.826 0 0 1 -1.002-.656c-.28-.293-.5-.65-.656-1.072-.152-.422-.228-.907-.228-1.453 0-.727.128-1.342.386-1.846a2.653 2.653 0 0 1 1.102-1.149c.476-.261 1.045-.392 1.705-.392.613 0 1.156.13 1.629.392.476.262.85.645 1.119 1.149.273.504.41 1.12.41 1.846zm-4.53 0c0 .43.048.79.142 1.084.093.293.24.513.439.662.2.148.459.222.78.222.316 0 .571-.074.767-.222.199-.149.343-.37.433-.662.094-.293.141-.655.141-1.084 0-.434-.047-.793-.14-1.078-.09-.29-.235-.506-.434-.65-.2-.145-.46-.218-.78-.218-.472 0-.816.163-1.03.487-.212.324-.317.81-.317 1.459zm9.59-3.387c.09 0 .194.006.312.017.12.008.218.02.293.036l-.135 1.675a1.078 1.078 0 0 0 -.252-.04 2.598 2.598 0 0 0 -.95.07 1.647 1.647 0 0 0 -.58.287c-.171.129-.308.3-.41.515-.097.211-.146.471-.146.78v3.334h-1.787v-6.551h1.353l.264 1.102h.088c.129-.223.289-.426.48-.61.196-.187.416-.336.662-.445.25-.113.52-.17.809-.17zm3.796 6.791c-.73 0-1.326-.285-1.787-.856-.457-.574-.686-1.416-.686-2.525 0-1.121.233-1.969.698-2.543.465-.578 1.072-.867 1.822-.867.313 0 .588.043.826.129.239.086.444.201.615.346.176.144.325.306.446.486h.058a14.833 14.833 0 0 1 -.088-.55 6.006 6.006 0 0 1 -.046-.757v-2.097h1.793v9.117h-1.372l-.345-.85h-.076c-.114.18-.256.344-.428.492-.168.145-.37.26-.604.346s-.51.129-.826.129zm.627-1.424c.488 0 .832-.144 1.031-.434.203-.292.31-.732.323-1.318v-.193c0-.637-.098-1.123-.293-1.46-.196-.339-.559-.509-1.09-.509-.395 0-.703.17-.926.51s-.334.83-.334 1.47c0 .641.111 1.124.334 1.448.227.324.545.486.955.486zm7.522-5.367c.605 0 1.127.117 1.564.352.438.23.776.566 1.014 1.007.238.442.357.98.357 1.617v.868h-4.223c.02.504.17.9.45 1.19.286.284.68.427 1.184.427.419 0 .801-.043 1.149-.129a5.846 5.846 0 0 0 1.072-.387v1.383c-.324.16-.664.277-1.02.352a6.32 6.32 0 0 1 -1.282.111c-.657 0-1.239-.121-1.747-.363a2.712 2.712 0 0 1 -1.189-1.108c-.285-.496-.428-1.12-.428-1.875 0-.765.13-1.402.387-1.91.262-.512.625-.894 1.09-1.148.465-.258 1.006-.387 1.623-.387zm.012 1.271c-.348 0-.637.112-.868.334-.226.223-.357.573-.392 1.05h2.508a1.765 1.765 0 0 0 -.147-.71 1.1 1.1 0 0 0 -.41-.492c-.18-.121-.41-.182-.691-.182zm7.96-1.271c.09 0 .194.006.311.017.121.008.22.02.293.036l-.135 1.675a1.078 1.078 0 0 0 -.251-.04 2.598 2.598 0 0 0 -.95.07 1.646 1.646 0 0 0 -.58.287c-.172.129-.308.3-.41.515-.098.211-.146.471-.146.78v3.334h-1.788v-6.551h1.354l.264 1.102h.088c.129-.223.289-.426.48-.61.195-.187.416-.336.662-.445.25-.113.52-.17.809-.17zm1.142 4.19v-1.465h3.146v1.464h-3.146zm8.031-4.19c.09 0 .194.006.31.017.122.008.22.02.294.036l-.135 1.675a1.078 1.078 0 0 0 -.252-.04 2.598 2.598 0 0 0 -.95.07 1.646 1.646 0 0 0 -.58.287c-.171.129-.308.3-.41.515-.097.211-.146.471-.146.78v3.334h-1.787v-6.551h1.353l.264 1.102h.088c.129-.223.29-.426.48-.61.196-.187.416-.336.663-.445.25-.113.52-.17.808-.17zm4.405-.012c.879 0 1.552.192 2.021.574.469.383.703.965.703 1.747v4.365h-1.248l-.345-.89h-.047a3.322 3.322 0 0 1 -.575.573 1.97 1.97 0 0 1 -.673.328c-.254.07-.563.106-.926.106-.387 0-.735-.074-1.043-.223a1.656 1.656 0 0 1 -.72-.68c-.177-.308-.264-.699-.264-1.171 0-.696.244-1.207.732-1.535.488-.333 1.22-.516 2.197-.551l1.137-.035v-.288c0-.343-.09-.595-.27-.755s-.43-.24-.75-.24c-.316 0-.626.044-.931.134s-.61.203-.914.34l-.592-1.207a5.083 5.083 0 0 1 1.166-.434 5.66 5.66 0 0 1 1.342-.158zm.949 3.65-.692.024c-.578.016-.98.12-1.206.31a.948.948 0 0 0 -.334.757c0 .273.08.468.24.585.16.114.369.17.627.17.383 0 .705-.113.967-.34.265-.226.398-.548.398-.966zm5.623 3.153c-.73 0-1.326-.285-1.787-.856-.457-.574-.685-1.416-.685-2.525 0-1.121.232-1.969.697-2.543.465-.578 1.072-.867 1.822-.867.313 0 .588.043.826.129a2 2 0 0 1 .615.346c.176.144.325.306.446.486h.058a14.664 14.664 0 0 1 -.087-.55 5.987 5.987 0 0 1 -.047-.757v-2.097h1.793v9.117h-1.371l-.346-.85h-.076c-.114.18-.256.344-.428.492-.168.145-.37.26-.604.346s-.51.129-.826.129zm.627-1.424c.489 0 .832-.144 1.031-.434.204-.292.311-.732.323-1.318v-.193c0-.637-.098-1.123-.293-1.46-.196-.339-.559-.509-1.09-.509-.395 0-.703.17-.926.51s-.334.83-.334 1.47c0 .641.111 1.124.334 1.448.227.324.545.486.955.486zm6.608-5.244v6.55h-1.787v-6.55zm-.89-2.566c.265 0 .493.062.685.187.191.121.287.35.287.686 0 .332-.096.562-.287.691-.192.125-.42.188-.686.188-.27 0-.5-.063-.691-.188-.188-.129-.281-.36-.281-.691 0-.336.093-.565.28-.686.192-.125.423-.187.692-.187zm8.71 2.566v6.55h-1.37l-.24-.837h-.095c-.14.223-.316.404-.527.545-.21.14-.443.244-.697.31-.254.067-.518.1-.791.1-.469 0-.877-.082-1.225-.246a1.825 1.825 0 0 1 -.814-.78c-.192-.351-.287-.808-.287-1.37v-4.272h1.787v3.826c0 .469.084.822.252 1.06.168.239.435.358.802.358.364 0 .649-.082.856-.246.207-.168.351-.412.434-.732.085-.325.128-.72.128-1.184v-3.082h1.788zm6.374 4.606c0 .445-.106.822-.317 1.13-.207.305-.517.537-.931.698-.414.156-.93.234-1.547.234-.457 0-.85-.03-1.178-.088a4.852 4.852 0 0 1 -.984-.293v-1.477c.355.16.736.294 1.142.399.41.102.77.152 1.079.152.347 0 .595-.05.744-.152a.48.48 0 0 0 .228-.41.486.486 0 0 0 -.094-.293c-.058-.09-.187-.19-.386-.299-.2-.113-.512-.26-.938-.44a6.192 6.192 0 0 1 -1.013-.52 1.766 1.766 0 0 1 -.587-.622c-.124-.242-.187-.549-.187-.92 0-.605.234-1.06.703-1.365.473-.309 1.104-.463 1.893-.463.406 0 .793.041 1.16.123.371.082.752.213 1.142.393l-.539 1.289a9.161 9.161 0 0 0 -.92-.346 2.89 2.89 0 0 0 -.873-.135c-.261 0-.459.035-.591.106a.343.343 0 0 0 -.2.322c0 .105.034.2.1.281.07.082.203.174.398.276.2.097.49.224.874.38.37.153.693.313.966.48.274.165.485.37.633.616.149.242.223.557.223.944zm1.07 1.107c0-.367.1-.625.3-.774.202-.148.447-.222.732-.222.277 0 .515.074.715.222.203.149.304.407.304.774 0 .351-.101.605-.305.762-.199.156-.437.234-.714.234-.285 0-.53-.078-.733-.234-.199-.157-.299-.41-.299-.762zm0-4.84c0-.367.1-.625.3-.773.202-.149.447-.223.732-.223.277 0 .515.074.715.223.203.148.304.406.304.773 0 .355-.101.611-.305.768-.199.152-.437.228-.714.228-.285 0-.53-.076-.733-.228-.199-.157-.299-.413-.299-.768zm6.39 2.016c0-.516.035-1.02.105-1.512a5.97 5.97 0 0 1 .369-1.371c.172-.426.406-.799.703-1.12.297-.32.666-.57 1.108-.75.445-.183.978-.275 1.599-.275.176 0 .366.01.569.03.203.015.371.043.504.082v.837a2.418 2.418 0 0 0 -.498-.11 4.415 4.415 0 0 0 -.557-.036c-.727 0-1.299.158-1.717.475-.414.316-.713.746-.896 1.289a6.46 6.46 0 0 0 -.317 1.822h.065c.121-.195.275-.371.463-.527.187-.16.414-.288.679-.381.27-.094.582-.14.938-.14.5 0 .935.1 1.306.304.375.203.664.498.868.885.207.386.31.855.31 1.406 0 .59-.109 1.1-.328 1.53-.219.429-.531.76-.937.995-.403.23-.883.346-1.442.346-.418 0-.803-.08-1.154-.24a2.566 2.566 0 0 1 -.92-.715 3.458 3.458 0 0 1 -.604-1.178c-.144-.473-.216-1.021-.216-1.646zm2.882 2.959c.532 0 .957-.17 1.278-.51.32-.34.48-.854.48-1.541 0-.563-.142-1.008-.428-1.336-.285-.328-.714-.492-1.289-.492-.39 0-.73.082-1.019.246-.289.16-.514.363-.674.61-.16.245-.24.495-.24.75 0 .257.037.519.111.784.078.266.195.512.352.739.156.226.353.408.591.545.239.136.518.205.838.205zm6.544.82c-.813 0-1.457-.277-1.934-.832-.473-.555-.709-1.379-.709-2.473 0-1.105.242-1.94.727-2.502.484-.566 1.129-.85 1.933-.85.34 0 .637.046.891.136a2.193 2.193 0 0 1 1.119.873h.07a11.007 11.007 0 0 1 -.07-1.014v-2.572h.973v9.117h-.786l-.146-.914h-.041a2.221 2.221 0 0 1 -1.125.896c-.254.09-.555.135-.902.135zm.152-.809c.687 0 1.174-.195 1.459-.586.285-.39.428-.97.428-1.74v-.176c0-.816-.137-1.443-.41-1.88-.27-.438-.762-.657-1.477-.657-.598 0-1.045.23-1.342.692-.297.457-.445 1.082-.445 1.875 0 .789.146 1.398.439 1.828.297.43.746.644 1.348.644zm7.856-5.847c.8 0 1.439.275 1.916.826.476.55.715 1.379.715 2.484 0 .73-.11 1.344-.329 1.84-.218.496-.527.871-.925 1.125-.395.254-.862.381-1.401.381a2.72 2.72 0 0 1 -.896-.135 2.108 2.108 0 0 1 -.662-.363 2.358 2.358 0 0 1 -.457-.498h-.071l.041.55c.02.215.03.403.03.563v2.637h-.979v-9.294h.803l.129.95h.047c.125-.196.277-.374.457-.534.179-.164.398-.293.656-.387.262-.097.57-.146.926-.146zm-.17.82c-.446 0-.805.086-1.078.258-.27.172-.467.43-.592.773-.125.34-.192.768-.199 1.283v.188c0 .543.058 1.002.175 1.377.122.375.319.66.592.855.278.196.649.293 1.113.293.399 0 .731-.107.997-.322.265-.215.462-.514.591-.896.133-.387.2-.83.2-1.33 0-.758-.149-1.36-.446-1.805-.293-.45-.744-.674-1.353-.674z" fill="#fff"/><path d="m1 59.167v-52h138.777v10.097l7.223 7.573-7.223 7.068v27.262z" stroke="#fff"/><path d="m175.022 38.167h-1.108v-7.123c0-.593.018-1.153.055-1.682a7.668 7.668 0 0 1 -.321.3c-.119.106-.661.55-1.627 1.334l-.602-.78 2.646-2.043h.957zm3.839-4.273c0-1.964.381-3.431 1.142-4.402.766-.975 1.896-1.463 3.391-1.463.515 0 .92.043 1.216.13v.978a3.89 3.89 0 0 0 -1.203-.171c-1.071 0-1.889.334-2.454 1.005-.565.665-.875 1.713-.93 3.144h.083c.501-.784 1.294-1.176 2.378-1.176.898 0 1.605.271 2.12.814.519.542.779 1.278.779 2.208 0 1.039-.285 1.857-.855 2.454-.565.592-1.33.889-2.297.889-1.034 0-1.854-.388-2.46-1.163-.607-.779-.91-1.861-.91-3.247zm3.357 3.446c.647 0 1.148-.203 1.504-.609.36-.41.54-1 .54-1.77 0-.661-.167-1.18-.499-1.559-.333-.378-.83-.567-1.491-.567-.41 0-.786.084-1.127.253a2.115 2.115 0 0 0 -.821.697c-.2.296-.301.604-.301.923 0 .47.092.907.274 1.312.182.406.44.727.772.964.338.237.72.356 1.149.356zm8.461.963a3.3 3.3 0 0 1 -1.34-.266 2.551 2.551 0 0 1 -1.012-.834h-.082c.055.437.082.852.082 1.244v3.083h-1.135v-10.855h.923l.157 1.025h.055c.292-.41.631-.706 1.019-.889.387-.182.831-.273 1.333-.273.993 0 1.759.34 2.297 1.018.542.68.813 1.632.813 2.858 0 1.23-.276 2.187-.827 2.87-.547.68-1.308 1.02-2.283 1.02zm-.164-6.801c-.766 0-1.32.212-1.661.636-.342.423-.518 1.098-.527 2.023v.253c0 1.053.176 1.807.527 2.262.35.452.913.677 1.688.677.647 0 1.153-.262 1.518-.786.369-.524.553-1.246.553-2.167 0-.934-.184-1.65-.553-2.146-.365-.502-.88-.752-1.545-.752zm6.984 2.83-2.604-3.657h1.292l1.975 2.87 1.969-2.87h1.278l-2.604 3.657 2.741 3.835h-1.285l-2.099-3.035-2.119 3.035h-1.285z" fill="#e8178a"/><path d="m211.5 1.333h409v64h-409z" stroke="#f0f" stroke-dasharray="2 2"/><g clip-path="url(#a)"><rect fill="#217cbb" fill-opacity=".4" height="64" rx="6" width="408" x="211.833" y="1.333"/><path d="m230.604 33.333c0 2.03.38 4.04 1.121 5.916a15.522 15.522 0 0 0 3.193 5.015 14.694 14.694 0 0 0 4.778 3.351 14.128 14.128 0 0 0 5.637 1.177c1.934 0 3.849-.4 5.636-1.177a14.709 14.709 0 0 0 4.779-3.351 15.539 15.539 0 0 0 3.193-5.015 16.13 16.13 0 0 0 1.121-5.916c0-2.03-.381-4.04-1.121-5.915a15.54 15.54 0 0 0 -3.193-5.015 14.708 14.708 0 0 0 -4.779-3.351 14.126 14.126 0 0 0 -5.636-1.177c-1.935 0-3.85.4-5.637 1.177a14.694 14.694 0 0 0 -4.778 3.35 15.524 15.524 0 0 0 -3.193 5.016 16.108 16.108 0 0 0 -1.121 5.915z" fill="#019aeb"/><path d="m245.333 19.188c7.802 0 14.146 6.343 14.146 14.145 0 7.803-6.344 14.146-14.146 14.146s-14.146-6.343-14.146-14.146c0-7.802 6.344-14.145 14.146-14.145zm0-2.48c-9.187 0-16.625 7.438-16.625 16.625 0 9.188 7.438 16.625 16.625 16.625 9.188 0 16.625-7.437 16.625-16.625 0-9.187-7.437-16.625-16.625-16.625z" fill="#0e416c"/><path d="m246.938 38.219h1.166v2.187h-5.542v-2.186h1.678v-5.104h-1.678v-2.26h4.376v7.364zm-2.844-8.75h2.844v-3.209h-2.844zm41.732 12.864h-1.826v-14.083h-4.974v-1.622h11.774v1.622h-4.974zm9.112 0h-1.783v-11.773h1.783zm-1.933-14.963c0-.409.1-.706.301-.892.2-.194.451-.29.752-.29.286 0 .533.097.741.29s.311.49.311.891-.103.702-.311.903c-.208.193-.455.29-.741.29a1.04 1.04 0 0 1 -.752-.29c-.201-.2-.301-.502-.301-.902zm11.443 15.178c-.766 0-1.468-.14-2.105-.419a4.005 4.005 0 0 1 -1.59-1.31h-.129c.086.687.129 1.339.129 1.955v4.844h-1.783v-17.058h1.45l.247 1.611h.086c.458-.644.992-1.11 1.601-1.396.608-.287 1.306-.43 2.094-.43 1.561 0 2.765.534 3.61 1.6.852 1.068 1.278 2.565 1.278 4.49 0 1.934-.433 3.438-1.3 4.513-.859 1.067-2.055 1.6-3.588 1.6zm-.258-10.688c-1.203 0-2.073.333-2.61.999s-.813 1.726-.827 3.18v.397c0 1.654.276 2.84.827 3.556.552.709 1.436 1.063 2.653 1.063 1.017 0 1.812-.412 2.385-1.235.58-.824.87-1.959.87-3.406 0-1.468-.29-2.592-.87-3.373-.573-.787-1.382-1.181-2.428-1.181zm24.649 4.576c0 1.92-.484 3.42-1.45 4.5-.967 1.075-2.303 1.612-4.007 1.612-1.053 0-1.987-.247-2.804-.741-.816-.494-1.446-1.203-1.89-2.127-.445-.924-.667-2.005-.667-3.244 0-1.92.48-3.413 1.44-4.48.96-1.074 2.292-1.61 3.996-1.61 1.647 0 2.954.547 3.921 1.643.974 1.095 1.461 2.578 1.461 4.447zm-8.97 0c0 1.504.301 2.65.902 3.437.602.788 1.486 1.182 2.654 1.182 1.167 0 2.052-.39 2.653-1.17.609-.789.913-1.938.913-3.45 0-1.496-.304-2.63-.913-3.404-.601-.781-1.493-1.171-2.675-1.171-1.167 0-2.048.383-2.642 1.15-.595.765-.892 1.908-.892 3.426zm17.728-6.09c.522 0 .992.042 1.407.128l-.247 1.654a6.078 6.078 0 0 0 -1.289-.16c-.953 0-1.769.386-2.449 1.16-.674.773-1.01 1.736-1.01 2.889v6.316h-1.783v-11.773h1.471l.204 2.18h.086c.437-.766.964-1.357 1.579-1.772a3.557 3.557 0 0 1 2.031-.623zm10.092 11.987v-15.705h1.827v15.705zm14.183 0v-7.616c0-.96-.218-1.676-.655-2.148-.437-.473-1.121-.71-2.052-.71-1.232 0-2.134.334-2.707 1s-.859 1.765-.859 3.298v6.176h-1.784v-11.773h1.451l.29 1.611h.086a3.603 3.603 0 0 1 1.536-1.343c.659-.322 1.393-.483 2.202-.483 1.418 0 2.485.344 3.201 1.031.716.68 1.074 1.773 1.074 3.277v7.68zm11.014-10.387h-2.997v10.387h-1.784v-10.387h-2.105v-.806l2.105-.645v-.655c0-2.893 1.264-4.34 3.792-4.34.624 0 1.354.126 2.192.376l-.462 1.43c-.688-.223-1.275-.334-1.762-.334-.673 0-1.171.226-1.493.677-.322.444-.483 1.16-.483 2.148v.763h2.997zm12.56 4.49c0 1.92-.483 3.42-1.45 4.5-.967 1.075-2.302 1.612-4.007 1.612-1.052 0-1.987-.247-2.803-.741-.817-.494-1.447-1.203-1.891-2.127s-.666-2.005-.666-3.244c0-1.92.48-3.413 1.439-4.48.96-1.074 2.292-1.61 3.996-1.61 1.648 0 2.955.547 3.921 1.643.974 1.095 1.461 2.578 1.461 4.447zm-8.969 0c0 1.504.3 2.65.902 3.437.601.788 1.486 1.182 2.653 1.182 1.168 0 2.052-.39 2.654-1.17.608-.789.913-1.938.913-3.45 0-1.496-.305-2.63-.913-3.404-.602-.781-1.494-1.171-2.675-1.171-1.168 0-2.048.383-2.643 1.15-.594.765-.891 1.908-.891 3.426zm17.333.816v-1.632h5.274v1.633h-5.274zm23.907 5.081-2.159-6.907c-.136-.422-.391-1.382-.763-2.879h-.086c-.286 1.254-.537 2.22-.752 2.9l-2.224 6.886h-2.062l-3.212-11.773h1.869c.759 2.958 1.336 5.21 1.73 6.757.401 1.547.63 2.589.687 3.126h.086c.079-.408.204-.935.376-1.58.179-.651.333-1.167.462-1.546l2.159-6.757h1.934l2.105 6.757c.401 1.231.673 2.266.817 3.104h.086c.028-.258.103-.655.225-1.192.129-.537.877-3.427 2.245-8.67h1.848l-3.255 11.774zm13.13-11.988c.522 0 .992.043 1.407.129l-.247 1.654a6.078 6.078 0 0 0 -1.289-.16c-.953 0-1.769.386-2.449 1.16-.674.773-1.01 1.736-1.01 2.889v6.316h-1.783v-11.773h1.471l.204 2.18h.086c.437-.766.964-1.357 1.579-1.772a3.557 3.557 0 0 1 2.031-.623zm5.642 11.988h-1.783v-11.773h1.783zm-1.933-14.963c0-.409.1-.706.3-.892.201-.194.452-.29.752-.29.287 0 .534.097.742.29.207.193.311.49.311.891s-.104.702-.311.903c-.208.193-.455.29-.742.29-.3 0-.551-.097-.752-.29-.2-.2-.3-.502-.3-.902zm9.767 13.707c.315 0 .62-.022.913-.065.294-.05.527-.1.699-.15v1.364c-.194.093-.48.168-.86.226a5.966 5.966 0 0 1 -1.01.096c-2.277 0-3.416-1.2-3.416-3.598v-7.004h-1.686v-.86l1.686-.74.752-2.515h1.032v2.729h3.416v1.386h-3.416v6.928c0 .71.168 1.254.505 1.633.336.38.798.57 1.385.57zm9.198 1.471c-1.74 0-3.115-.53-4.125-1.59-1.002-1.06-1.503-2.531-1.503-4.415 0-1.898.465-3.405 1.396-4.522.938-1.117 2.195-1.676 3.771-1.676 1.475 0 2.642.487 3.502 1.461.859.967 1.289 2.245 1.289 3.835v1.128h-8.111c.036 1.382.383 2.431 1.042 3.147.666.717 1.601 1.075 2.804 1.075 1.268 0 2.521-.265 3.76-.795v1.59a9.125 9.125 0 0 1 -1.794.58c-.559.121-1.236.182-2.031.182zm-.483-10.71c-.945 0-1.701.308-2.267.924-.558.616-.888 1.468-.988 2.557h6.155c0-1.125-.25-1.984-.751-2.578-.502-.602-1.218-.903-2.149-.903zm21.673 7.283c0 1.096-.408 1.941-1.225 2.536-.816.594-1.962.891-3.437.891-1.561 0-2.779-.247-3.653-.741v-1.654a8.86 8.86 0 0 0 1.816.677 7.668 7.668 0 0 0 1.88.247c.931 0 1.647-.147 2.148-.44.502-.302.752-.756.752-1.365 0-.459-.2-.849-.601-1.171-.394-.33-1.168-.716-2.321-1.16-1.095-.408-1.876-.763-2.341-1.064-.459-.308-.803-.655-1.032-1.042-.222-.386-.333-.848-.333-1.385 0-.96.391-1.716 1.171-2.267.781-.559 1.851-.838 3.212-.838 1.268 0 2.507.258 3.717.774l-.634 1.45c-1.182-.487-2.252-.73-3.212-.73-.845 0-1.482.132-1.912.397s-.644.63-.644 1.095c0 .316.078.584.236.806.165.222.426.433.784.634.358.2 1.046.49 2.063.87 1.396.509 2.338 1.02 2.825 1.536.494.516.741 1.164.741 1.944zm13.323-2.685c0 1.92-.483 3.42-1.45 4.5-.967 1.075-2.302 1.612-4.007 1.612-1.053 0-1.987-.247-2.804-.741-.816-.494-1.446-1.203-1.89-2.127s-.666-2.005-.666-3.244c0-1.92.48-3.413 1.439-4.48.96-1.074 2.292-1.61 3.996-1.61 1.647 0 2.954.547 3.921 1.643.974 1.095 1.461 2.578 1.461 4.447zm-8.97 0c0 1.504.301 2.65.903 3.437.601.788 1.486 1.182 2.653 1.182s2.052-.39 2.653-1.17c.609-.789.914-1.938.914-3.45 0-1.496-.305-2.63-.914-3.404-.601-.781-1.493-1.171-2.674-1.171-1.168 0-2.049.383-2.643 1.15-.594.765-.892 1.908-.892 3.426zm27.364 5.897v-7.659c0-.938-.201-1.64-.602-2.105-.401-.473-1.024-.71-1.869-.71-1.11 0-1.93.32-2.46.957s-.795 1.618-.795 2.943v6.574h-1.783v-7.659c0-.938-.201-1.64-.602-2.105-.401-.473-1.027-.71-1.879-.71-1.118 0-1.938.337-2.46 1.01-.516.666-.774 1.762-.774 3.288v6.176h-1.783v-11.773h1.45l.29 1.611h.086a3.514 3.514 0 0 1 1.418-1.343c.616-.322 1.303-.483 2.063-.483 1.84 0 3.043.666 3.609 1.998h.086a3.754 3.754 0 0 1 1.525-1.46c.666-.359 1.425-.538 2.278-.538 1.332 0 2.327.344 2.986 1.031.666.68.999 1.773.999 3.277v7.68zm10.691.215c-1.74 0-3.115-.53-4.125-1.59-1.002-1.06-1.504-2.531-1.504-4.415 0-1.898.466-3.405 1.397-4.522.938-1.117 2.195-1.676 3.77-1.676 1.475 0 2.643.487 3.502 1.461.86.967 1.289 2.245 1.289 3.835v1.128h-8.11c.036 1.382.383 2.431 1.042 3.147.666.717 1.6 1.075 2.804 1.075 1.267 0 2.52-.265 3.759-.795v1.59a9.104 9.104 0 0 1 -1.794.58c-.558.121-1.235.182-2.03.182zm-.483-10.71c-.946 0-1.701.308-2.267.924-.558.616-.888 1.468-.988 2.557h6.155c0-1.125-.251-1.984-.752-2.578-.501-.602-1.217-.903-2.148-.903zm15.754-1.278v7.638c0 .96.218 1.675.655 2.148s1.121.71 2.052.71c1.231 0 2.13-.337 2.696-1.01.573-.674.859-1.773.859-3.299v-6.187h1.784v11.773h-1.472l-.258-1.579h-.097a3.543 3.543 0 0 1 -1.525 1.332c-.645.308-1.382.462-2.213.462-1.432 0-2.506-.34-3.223-1.02-.709-.68-1.063-1.77-1.063-3.266v-7.702zm19.682 8.561c0 1.096-.408 1.941-1.224 2.536-.817.594-1.963.891-3.438.891-1.561 0-2.778-.247-3.652-.741v-1.654a8.872 8.872 0 0 0 1.815.677 7.674 7.674 0 0 0 1.88.247c.931 0 1.647-.147 2.149-.44.501-.302.752-.756.752-1.365 0-.459-.201-.849-.602-1.171-.394-.33-1.167-.716-2.32-1.16-1.096-.408-1.877-.763-2.342-1.064-.458-.308-.802-.655-1.031-1.042-.222-.386-.333-.848-.333-1.385 0-.96.39-1.716 1.17-2.267.781-.559 1.852-.838 3.212-.838 1.268 0 2.507.258 3.717.774l-.634 1.45c-1.181-.487-2.252-.73-3.212-.73-.845 0-1.482.132-1.912.397-.429.265-.644.63-.644 1.095 0 .316.079.584.236.806.165.222.426.433.784.634.358.2 1.046.49 2.063.87 1.396.509 2.338 1.02 2.825 1.536.494.516.741 1.164.741 1.944zm8.135 3.427c-1.74 0-3.115-.53-4.125-1.59-1.003-1.06-1.504-2.531-1.504-4.415 0-1.898.466-3.405 1.397-4.522.938-1.117 2.195-1.676 3.77-1.676 1.475 0 2.643.487 3.502 1.461.859.967 1.289 2.245 1.289 3.835v1.128h-8.11c.036 1.382.383 2.431 1.042 3.147.666.717 1.6 1.075 2.803 1.075 1.268 0 2.521-.265 3.76-.795v1.59a9.104 9.104 0 0 1 -1.794.58c-.558.121-1.235.182-2.03.182zm-.483-10.71c-.946 0-1.701.308-2.267.924-.559.616-.888 1.468-.988 2.557h6.155c0-1.125-.251-1.984-.752-2.578-.501-.602-1.217-.903-2.148-.903z" fill="#fff"/></g><rect height="63" rx="5.5" stroke="#019aeb" width="407" x="212.333" y="1.833"/><path d="m212 1h13v64h-13zm395 .833h13v63h-13z" fill="#eb3499" fill-opacity=".6"/><path d="m606.833 28.333h12.998m-407.998 0h12.998" stroke="#e8178a" stroke-dasharray="2 2"/><path d="m635.319 38.167h-1.108v-7.123c0-.593.019-1.153.055-1.682a7.668 7.668 0 0 1 -.321.3c-.119.106-.661.55-1.627 1.334l-.602-.78 2.646-2.043h.957zm3.84-4.273c0-1.964.38-3.431 1.141-4.402.766-.975 1.896-1.463 3.391-1.463.515 0 .92.043 1.217.13v.978a3.89 3.89 0 0 0 -1.203-.171c-1.071 0-1.889.334-2.455 1.005-.565.665-.875 1.713-.929 3.144h.082c.501-.784 1.294-1.176 2.379-1.176.897 0 1.604.271 2.119.814.519.542.779 1.278.779 2.208 0 1.039-.285 1.857-.854 2.454-.565.592-1.331.889-2.297.889-1.035 0-1.855-.388-2.461-1.163-.606-.779-.909-1.861-.909-3.247zm3.356 3.446c.647 0 1.149-.203 1.504-.609.36-.41.54-1 .54-1.77 0-.661-.166-1.18-.499-1.559-.333-.378-.829-.567-1.49-.567-.41 0-.786.084-1.128.253a2.112 2.112 0 0 0 -.82.697 1.62 1.62 0 0 0 -.301.923c0 .47.091.907.273 1.312.182.406.44.727.773.964.337.237.72.356 1.148.356zm8.461.963c-.488 0-.934-.088-1.34-.266a2.551 2.551 0 0 1 -1.012-.834h-.082c.055.437.082.852.082 1.244v3.083h-1.134v-10.855h.923l.157 1.025h.054c.292-.41.632-.706 1.019-.889.387-.182.832-.273 1.333-.273.993 0 1.759.34 2.297 1.018.542.68.813 1.632.813 2.858 0 1.23-.275 2.187-.827 2.87-.547.68-1.308 1.02-2.283 1.02zm-.164-6.801c-.766 0-1.319.212-1.661.636-.342.423-.517 1.098-.527 2.023v.253c0 1.053.176 1.807.527 2.262.351.452.914.677 1.688.677.647 0 1.153-.262 1.518-.786.369-.524.554-1.246.554-2.167 0-.934-.185-1.65-.554-2.146-.365-.502-.88-.752-1.545-.752zm6.984 2.83-2.604-3.657h1.292l1.975 2.87 1.969-2.87h1.278l-2.604 3.657 2.741 3.835h-1.285l-2.099-3.035-2.119 3.035h-1.285z" fill="#e8178a"/><path d="m658 1.667h9v63h-9" stroke="#4091d2"/><path d="m673.167 34.528c0-1.695.357-2.957 1.072-3.785.719-.828 1.793-1.242 3.222-1.242.489 0 .872.029 1.149.088v1.447a4.7 4.7 0 0 0 -1.031-.117c-.621 0-1.129.093-1.524.281a1.9 1.9 0 0 0 -.879.832c-.195.367-.31.889-.345 1.564h.076c.386-.664 1.006-.996 1.857-.996.766 0 1.365.24 1.799.721.434.48.65 1.145.65 1.992 0 .914-.257 1.639-.773 2.174-.516.531-1.231.797-2.145.797-.632 0-1.185-.146-1.658-.44-.469-.293-.832-.72-1.09-1.283-.254-.562-.38-1.24-.38-2.033zm3.093 2.309c.387 0 .684-.13.891-.387.207-.262.31-.633.31-1.113 0-.418-.097-.746-.293-.985-.191-.242-.482-.363-.873-.363-.367 0-.681.12-.943.357-.258.239-.387.516-.387.833 0 .464.121.857.364 1.177.246.32.556.48.931.48zm9.93-.446h-1.031v1.776h-1.77v-1.777h-3.656v-1.26l3.756-5.53h1.67v5.384h1.031v1.406zm-2.801-1.406v-1.453c0-.242.01-.594.03-1.055.019-.46.035-.728.047-.802h-.047c-.145.32-.319.632-.522.937l-1.57 2.373zm7.458 3.299c-.77 0-1.373-.28-1.811-.838h-.094c.063.547.094.863.094.95v2.654h-1.787v-9.434h1.453l.252.85h.082c.418-.649 1.037-.973 1.858-.973.773 0 1.379.299 1.816.896.438.598.656 1.428.656 2.49 0 .7-.103 1.307-.31 1.823-.203.516-.494.908-.873 1.178s-.825.404-1.336.404zm-.528-5.361c-.441 0-.763.136-.966.41-.204.27-.309.717-.317 1.342v.193c0 .703.104 1.207.311 1.512.211.304.543.457.996.457.801 0 1.201-.66 1.201-1.98 0-.645-.1-1.128-.299-1.448-.195-.324-.504-.486-.926-.486zm5.794 1.898-2.11-3.205h2.028l1.271 2.086 1.283-2.086h2.028l-2.133 3.205 2.232 3.346h-2.033l-1.377-2.244-1.383 2.244h-2.027z" fill="#4091d2"/></svg>