<svg fill="none" height="401" viewBox="0 0 833 401" width="833" xmlns="http://www.w3.org/2000/svg"><path d="m0 0h833v401h-833z" fill="#c4c4c4"/><path d="m1 1h104v40h-104z" fill="#464b52"/><path d="m18.1572 23.2246c0 .9024-.3258 1.6133-.9775 2.1328-.6471.5196-1.5495.7793-2.707.7793-1.0665 0-2.0098-.2005-2.8301-.6015v-1.9688c.6745.3008 1.2441.5127 1.709.6357.4694.1231.8977.1846 1.2851.1846.4649 0 .8203-.0888 1.0664-.2666.2507-.1777.376-.442.376-.793 0-.1959-.0547-.3691-.1641-.5195-.1093-.1549-.2711-.303-.4853-.4443-.2096-.1413-.6403-.3669-1.292-.6768-.6107-.2871-1.0687-.5628-1.374-.8271-.3054-.2643-.5492-.572-.7315-.9229s-.2734-.761-.2734-1.2304c0-.8842.2985-1.5791.8955-2.085.6016-.5059 1.431-.7588 2.4883-.7588.5195 0 1.014.0615 1.4834.1846.4739.123.9684.2962 1.4834.5195l-.6836 1.6475c-.5332-.2188-.9753-.3715-1.3262-.458-.3463-.0866-.6881-.1299-1.0254-.1299-.401 0-.7086.0934-.9228.2802-.2142.1869-.3213.4307-.3213.7315 0 .1868.0433.3509.1299.4922.0865.1367.2233.2711.4101.4033.1914.1276.6403.36 1.3467.6973.9342.4466 1.5745.8955 1.9209 1.3466.3463.4467.5195.9958.5195 1.6475zm4.7832 1.251c.3646 0 .8021-.0798 1.3125-.2393v1.5518c-.5195.2324-1.1575.3486-1.914.3486-.834 0-1.4424-.2096-1.8252-.6289-.3783-.4238-.5674-1.0573-.5674-1.9004v-3.6845h-.9981v-.8819l1.1485-.6972.6015-1.6133h1.333v1.6269h2.1397v1.5655h-2.1397v3.6845c0 .2962.0821.515.2461.6563.1686.1412.3897.2119.6631.2119zm7.6338 1.5244-.4033-1.0391h-.0547c-.3509.4421-.7132.7497-1.0869.9229-.3692.1686-.8522.2529-1.4493.2529-.7337 0-1.3125-.2096-1.7363-.6289-.4193-.4193-.6289-1.0163-.6289-1.791 0-.8112.2826-1.4082.8477-1.791.5696-.3874 1.4264-.6016 2.5703-.6426l1.3262-.041v-.335c0-.7747-.3965-1.1621-1.1895-1.1621-.6107 0-1.3285.1846-2.1533.5537l-.6905-1.4082c.8796-.4603 1.8549-.6904 2.9258-.6904 1.0254 0 1.8116.2233 2.3584.6699.5469.4466.8203 1.1257.8203 2.0371v5.0928zm-.6152-3.541-.8067.0273c-.6061.0183-1.0573.1276-1.3535.3282-.2962.2005-.4443.5058-.4443.916 0 .5879.3372.8818 1.0117.8818.4831 0 .8681-.139 1.1553-.417.2916-.278.4375-.6471.4375-1.1074zm7.3603 2.0166c.3646 0 .8021-.0798 1.3125-.2393v1.5518c-.5195.2324-1.1576.3486-1.9141.3486-.834 0-1.4424-.2096-1.8252-.6289-.3782-.4238-.5674-1.0573-.5674-1.9004v-3.6845h-.998v-.8819l1.1484-.6972.6016-1.6133h1.333v1.6269h2.1397v1.5655h-2.1397v3.6845c0 .2962.082.515.2461.6563.1686.1412.3897.2119.6631.2119zm5.9453-4.7783c-.4421 0-.7884.1412-1.0391.4238-.2506.278-.3942.6745-.4306 1.1894h2.9257c-.0091-.5149-.1435-.9114-.4033-1.1894-.2597-.2826-.6107-.4238-1.0527-.4238zm.2939 6.4394c-1.2304 0-2.192-.3395-2.8847-1.0185-.6927-.6791-1.0391-1.6407-1.0391-2.8848 0-1.2806.319-2.2695.957-2.9668.6426-.7018 1.529-1.0527 2.6592-1.0527 1.0801 0 1.9209.3076 2.5225.9228.6015.6153.9023 1.4652.9023 2.5498v1.0117h-4.9287c.0228.5925.1982 1.0551.5264 1.3877.3281.3327.7884.4991 1.3808.4991.4603 0 .8955-.0479 1.3057-.1436s.8385-.2484 1.2852-.458v1.6133c-.3646.1823-.7543.3167-1.169.4033-.4147.0911-.9206.1367-1.5176.1367z" fill="#fff"/><path d="m1 42h104v88.75h-104z" fill="#171c1e"/><path d="m36.7569 86.2822c0 1.6452-.4694 2.9053-1.4082 3.7803-.9343.875-2.2855 1.3125-4.0537 1.3125h-2.8301v-9.9941h3.1377c1.6315 0 2.8984.4306 3.8008 1.292.9023.8613 1.3535 2.0644 1.3535 3.6093zm-2.2012.0547c0-2.1465-.9479-3.2197-2.8437-3.2197h-1.128v6.5078h.9092c2.0417 0 3.0625-1.096 3.0625-3.2881zm7.1894-1.2646c-.442 0-.7884.1412-1.039.4238-.2507.278-.3942.6745-.4307 1.1894h2.9258c-.0091-.5149-.1436-.9114-.4033-1.1894-.2598-.2826-.6107-.4238-1.0528-.4238zm.294 6.4394c-1.2305 0-2.1921-.3395-2.8848-1.0185-.6927-.6791-1.039-1.6407-1.039-2.8848 0-1.2806.319-2.2695.957-2.9668.6426-.7018 1.529-1.0527 2.6592-1.0527 1.0801 0 1.9209.3076 2.5224.9228.6016.6153.9024 1.4652.9024 2.5498v1.0117h-4.9287c.0228.5925.1982 1.0551.5263 1.3877.3282.3327.7885.4991 1.3809.4991.4603 0 .8955-.0479 1.3057-.1436.4101-.0957.8385-.2484 1.2851-.458v1.6133c-.3646.1823-.7542.3167-1.1689.4033-.4147.0911-.9206.1367-1.5176.1367zm8.9531-6.2138h-1.8047v6.0771h-2.0849v-6.0771h-1.1485v-1.0049l1.1485-.5606v-.5605c0-.8705.2141-1.5062.6425-1.9073.4284-.401 1.1143-.6015 2.0577-.6015.72 0 1.3603.1071 1.9208.3213l-.5332 1.5312c-.4192-.1321-.8066-.1982-1.1621-.1982-.2962 0-.5104.0888-.6425.2666-.1322.1732-.1983.3965-.1983.6699v.4785h1.8047zm5.9726 6.0771-.4033-1.0391h-.0547c-.3509.4421-.7132.7497-1.0869.9229-.3691.1686-.8522.2529-1.4492.2529-.7337 0-1.3125-.2096-1.7363-.6289-.4193-.4193-.6289-1.0163-.6289-1.791 0-.8112.2825-1.4082.8476-1.791.5697-.3874 1.4265-.6016 2.5703-.6426l1.3262-.041v-.335c0-.7747-.3965-1.1621-1.1894-1.1621-.6107 0-1.3285.1846-2.1534.5537l-.6904-1.4082c.8796-.4603 1.8548-.6904 2.9258-.6904 1.0254 0 1.8115.2233 2.3584.6699s.8203 1.1257.8203 2.0371v5.0928zm-.6152-3.541-.8066.0273c-.6062.0183-1.0573.1276-1.3535.3282-.2963.2005-.4444.5058-.4444.916 0 .5879.3373.8818 1.0117.8818.4831 0 .8682-.139 1.1553-.417.2917-.278.4375-.6471.4375-1.1074zm9.5547 3.541-.2803-.9775h-.1094c-.2233.3554-.54.6311-.9502.8271-.4101.1914-.8772.2871-1.4013.2871-.8978 0-1.5746-.2392-2.0303-.7178-.4557-.483-.6836-1.1757-.6836-2.0781v-4.9834h2.085v4.4639c0 .5514.0979.9661.2939 1.2441.196.2735.5081.4102.9365.4102.5834 0 1.0049-.1937 1.2647-.5811.2597-.3919.3896-1.039.3896-1.9414v-3.5957h2.085v7.6426zm5.7881 0h-2.085v-10.6367h2.085zm5.33-1.5244c.3646 0 .8021-.0798 1.3125-.2393v1.5518c-.5195.2324-1.1575.3486-1.914.3486-.834 0-1.4424-.2096-1.8252-.6289-.3783-.4238-.5674-1.0573-.5674-1.9004v-3.6845h-.9981v-.8819l1.1485-.6972.6015-1.6133h1.333v1.6269h2.1397v1.5655h-2.1397v3.6845c0 .2962.0821.515.2461.6563.1686.1412.3897.2119.6631.2119z" fill="#fff"/><path d="m1 131.75h104v88.75h-104z" fill="#171c1e"/><path d="m29.3946 175.834h.6972c.6517 0 1.1394-.128 1.4629-.383.3236-.26.4854-.636.4854-1.128 0-.497-.1367-.863-.4102-1.1-.2688-.237-.6927-.356-1.2715-.356h-.9638zm4.7851-1.586c0 1.076-.3372 1.898-1.0117 2.468-.6699.569-1.6247.854-2.8642.854h-.9092v3.555h-2.1192v-9.994h3.1924c1.2123 0 2.1328.262 2.7617.786.6335.52.9502 1.297.9502 2.331zm5.9043-.909c.2826 0 .5173.02.7041.061l-.1572 1.955c-.1686-.045-.3737-.068-.6152-.068-.6654 0-1.1849.171-1.5586.513-.3692.342-.5537.82-.5537 1.435v3.89h-2.085v-7.643h1.5791l.3076 1.286h.1025c.237-.429.556-.773.9571-1.033.4056-.264.8454-.396 1.3193-.396zm5.1729 1.483c-.4421 0-.7885.142-1.0391.424-.2507.278-.3942.675-.4307 1.19h2.9258c-.0091-.515-.1435-.912-.4033-1.19-.2598-.282-.6107-.424-1.0527-.424zm.2939 6.44c-1.2305 0-2.1921-.34-2.8848-1.019s-1.039-1.64-1.039-2.885c0-1.28.319-2.269.957-2.966.6426-.702 1.529-1.053 2.6592-1.053 1.0801 0 1.9209.307 2.5224.923.6016.615.9024 1.465.9024 2.55v1.011h-4.9287c.0228.593.1982 1.055.5263 1.388.3282.333.7885.499 1.3809.499.4603 0 .8955-.048 1.3057-.144.4101-.095.8385-.248 1.2851-.458v1.614c-.3646.182-.7542.316-1.1689.403-.4147.091-.9206.137-1.5176.137zm10.0605-2.407c0 .784-.2734 1.381-.8203 1.791-.5423.411-1.3558.616-2.4404.616-.556 0-1.03-.039-1.4219-.116-.3919-.073-.7588-.183-1.1006-.329v-1.722c.3874.182.8226.335 1.3057.458.4876.123.916.184 1.2851.184.7566 0 1.1348-.218 1.1348-.656 0-.164-.0501-.296-.1504-.396-.1002-.105-.2734-.221-.5195-.349-.2461-.132-.5742-.285-.9844-.458-.5879-.246-1.0208-.474-1.2988-.684-.2735-.209-.474-.449-.6016-.717-.123-.274-.1845-.609-.1845-1.005 0-.679.262-1.203.7861-1.573.5286-.373 1.276-.56 2.2422-.56.9205 0 1.8161.2 2.6865.601l-.6289 1.504c-.3828-.164-.7406-.298-1.0733-.403-.3326-.105-.6722-.157-1.0185-.157-.6152 0-.9229.166-.9229.499 0 .187.098.348.294.485.2005.137.6357.34 1.3057.609.597.241 1.0345.467 1.3125.676.2779.21.483.451.6152.725.1321.273.1982.599.1982.977zm6.875 0c0 .784-.2734 1.381-.8203 1.791-.5423.411-1.3558.616-2.4404.616-.556 0-1.03-.039-1.4219-.116-.3919-.073-.7588-.183-1.1006-.329v-1.722c.3874.182.8226.335 1.3057.458.4876.123.916.184 1.2851.184.7565 0 1.1348-.218 1.1348-.656 0-.164-.0501-.296-.1504-.396-.1003-.105-.2734-.221-.5195-.349-.2461-.132-.5742-.285-.9844-.458-.5879-.246-1.0208-.474-1.2988-.684-.2735-.209-.474-.449-.6016-.717-.123-.274-.1846-.609-.1846-1.005 0-.679.2621-1.203.7862-1.573.5286-.373 1.276-.56 2.2422-.56.9205 0 1.816.2 2.6865.601l-.6289 1.504c-.3828-.164-.7406-.298-1.0733-.403-.3326-.105-.6722-.157-1.0185-.157-.6153 0-.9229.166-.9229.499 0 .187.098.348.294.485.2005.137.6357.34 1.3056.609.597.241 1.0345.467 1.3125.676.278.21.4831.451.6153.725.1321.273.1982.599.1982.977zm4.708-4.033c-.4421 0-.7884.142-1.0391.424-.2506.278-.3942.675-.4306 1.19h2.9258c-.0092-.515-.1436-.912-.4034-1.19-.2597-.282-.6106-.424-1.0527-.424zm.294 6.44c-1.2305 0-2.1921-.34-2.8848-1.019s-1.0391-1.64-1.0391-2.885c0-1.28.319-2.269.9571-2.966.6425-.702 1.5289-1.053 2.6591-1.053 1.0801 0 1.9209.307 2.5225.923.6016.615.9023 1.465.9023 2.55v1.011h-4.9287c.0228.593.1983 1.055.5264 1.388s.7884.499 1.3809.499c.4602 0 .8955-.048 1.3056-.144.4102-.095.8386-.248 1.2852-.458v1.614c-.3646.182-.7543.316-1.169.403-.4147.091-.9205.137-1.5175.137zm7.1484 0c-.8978 0-1.6042-.349-2.1192-1.046-.5104-.697-.7656-1.664-.7656-2.899 0-1.253.2598-2.228.7793-2.925.5241-.702 1.2441-1.053 2.1602-1.053.9615 0 1.6953.374 2.2011 1.121h.0684c-.1048-.57-.1572-1.078-.1572-1.524v-2.448h2.0918v10.637h-1.5996l-.4034-.991h-.0888c-.474.752-1.1963 1.128-2.167 1.128zm.7314-1.661c.5332 0 .9229-.155 1.169-.465.2506-.31.3873-.837.4101-1.579v-.226c0-.82-.1276-1.408-.3828-1.764-.2506-.355-.6608-.533-1.2305-.533-.4648 0-.8271.198-1.0869.595-.2552.392-.3828.964-.3828 1.716s.1299 1.317.3897 1.695c.2597.374.6311.561 1.1142.561z" fill="#fff"/><path d="m1 221.5h104v88.75h-104z" fill="#171c1e"/><path d="m36.6524 270.875h-2.085v-9.994h5.7285v1.736h-3.6435v2.577h3.3906v1.73h-3.3906zm7.0117-3.835c0 .757.123 1.328.3691 1.716.2507.387.6563.581 1.2168.581.556 0 .9548-.191 1.1963-.574.2461-.388.3691-.962.3691-1.723 0-.756-.123-1.324-.3691-1.702s-.6494-.567-1.21-.567c-.5559 0-.957.189-1.2031.567-.2461.374-.3691.941-.3691 1.702zm5.2842 0c0 1.244-.3282 2.217-.9844 2.919-.6563.702-1.57 1.053-2.7412 1.053-.7338 0-1.3809-.16-1.9414-.479-.5606-.323-.9912-.786-1.292-1.387-.3008-.602-.4512-1.304-.4512-2.106 0-1.249.3258-2.219.9775-2.912s1.5677-1.039 2.7481-1.039c.7337 0 1.3808.159 1.9414.478.5605.319.9912.777 1.292 1.374s.4512 1.297.4512 2.099zm4.7421 3.972c-2.3789 0-3.5683-1.306-3.5683-3.917 0-1.299.3235-2.29.9707-2.974.6471-.688 1.5745-1.032 2.7822-1.032.8841 0 1.6771.173 2.3789.519l-.6152 1.614c-.3282-.132-.6335-.24-.916-.322-.2826-.086-.5651-.129-.8477-.129-1.0846 0-1.627.77-1.627 2.31 0 1.495.5424 2.242 1.627 2.242.401 0 .7725-.052 1.1143-.157.3418-.109.6836-.278 1.0253-.506v1.784c-.3372.215-.679.363-1.0253.445-.3418.082-.7748.123-1.2989.123zm9.4317-.137-.2803-.978h-.1094c-.2233.356-.54.632-.9502.828-.4101.191-.8773.287-1.4014.287-.8977 0-1.5745-.24-2.0302-.718-.4558-.483-.6836-1.176-.6836-2.078v-4.984h2.0849v4.464c0 .552.098.966.294 1.244.1959.274.5081.411.9365.411.5833 0 1.0049-.194 1.2647-.581.2597-.392.3896-1.04.3896-1.942v-3.596h2.085v7.643zm9.0351-2.27c0 .784-.2734 1.381-.8203 1.791-.5423.411-1.3558.616-2.4404.616-.556 0-1.03-.039-1.4219-.116-.3919-.073-.7588-.183-1.1006-.329v-1.722c.3874.182.8226.335 1.3057.458.4876.123.916.184 1.2851.184.7565 0 1.1348-.218 1.1348-.656 0-.164-.0502-.296-.1504-.396-.1003-.105-.2734-.221-.5195-.349-.2461-.132-.5743-.285-.9844-.458-.5879-.246-1.0209-.474-1.2988-.684-.2735-.209-.474-.449-.6016-.717-.1231-.274-.1846-.609-.1846-1.005 0-.679.2621-1.203.7862-1.573.5286-.373 1.276-.56 2.2421-.56.9206 0 1.8161.2 2.6866.601l-.6289 1.504c-.3829-.164-.7406-.298-1.0733-.403s-.6722-.157-1.0185-.157c-.6153 0-.9229.166-.9229.499 0 .187.098.348.294.485.2005.137.6357.34 1.3056.609.597.241 1.0345.467 1.3125.676.278.21.4831.451.6153.725.1321.273.1982.599.1982.977z" fill="#fff"/><path d="m1 311.25h104v88.75h-104z" fill="#171c1e"/><path d="m32.6768 355.532c0 1.645-.4694 2.906-1.4082 3.78-.9342.876-2.2855 1.313-4.0537 1.313h-2.8301v-9.994h3.1377c1.6315 0 2.8985.431 3.8008 1.292s1.3535 2.064 1.3535 3.609zm-2.2012.055c0-2.147-.9479-3.22-2.8437-3.22h-1.1279v6.508h.9091c2.0417 0 3.0625-1.096 3.0625-3.288zm3.9356-4.58c0-.679.3782-1.019 1.1347-1.019s1.1348.34 1.1348 1.019c0 .323-.0957.576-.2871.759-.1869.177-.4694.266-.8477.266-.7565 0-1.1347-.342-1.1347-1.025zm2.1738 9.618h-2.085v-7.643h2.085zm7.4424-2.27c0 .784-.2735 1.381-.8203 1.791-.5424.411-1.3558.616-2.4405.616-.556 0-1.0299-.039-1.4219-.116-.3919-.073-.7587-.183-1.1005-.329v-1.722c.3873.182.8226.335 1.3056.458.4877.123.916.184 1.2852.184.7565 0 1.1347-.218 1.1347-.656 0-.164-.0501-.296-.1503-.396-.1003-.105-.2735-.221-.5196-.349-.2461-.132-.5742-.285-.9843-.458-.5879-.246-1.0209-.474-1.2989-.684-.2734-.209-.4739-.449-.6015-.717-.1231-.274-.1846-.609-.1846-1.005 0-.679.262-1.203.7861-1.573.5287-.373 1.2761-.56 2.2422-.56.9206 0 1.8161.2 2.6865.601l-.6289 1.504c-.3828-.164-.7405-.298-1.0732-.403s-.6722-.157-1.0186-.157c-.6152 0-.9228.166-.9228.499 0 .187.098.348.2939.485.2005.137.6358.34 1.3057.609.597.241 1.0345.467 1.3125.676.278.21.4831.451.6152.725.1322.273.1983.599.1983.977zm6.3964 2.27-.4033-1.039h-.0547c-.3509.442-.7132.75-1.0869.923-.3691.168-.8522.253-1.4492.253-.7337 0-1.3125-.21-1.7363-.629-.4193-.419-.6289-1.016-.6289-1.791 0-.811.2825-1.408.8476-1.791.5697-.388 1.4264-.602 2.5703-.643l1.3262-.041v-.335c0-.775-.3965-1.162-1.1895-1.162-.6106 0-1.3284.185-2.1533.554l-.6904-1.408c.8796-.461 1.8548-.691 2.9258-.691 1.0254 0 1.8115.224 2.3584.67.5469.447.8203 1.126.8203 2.037v5.093zm-.6152-3.541-.8066.027c-.6062.019-1.0573.128-1.3536.328-.2962.201-.4443.506-.4443.916 0 .588.3372.882 1.0117.882.4831 0 .8682-.139 1.1553-.417.2917-.278.4375-.647.4375-1.107zm8.3926-4.245c.9023 0 1.6087.353 2.1191 1.059.5104.702.7656 1.666.7656 2.892 0 1.262-.2643 2.24-.7929 2.933-.5241.692-1.2396 1.039-2.1465 1.039-.8978 0-1.6019-.326-2.1123-.978h-.1436l-.3486.841h-1.5928v-10.637h2.085v2.475c0 .314-.0274.818-.0821 1.511h.0821c.4876-.757 1.2099-1.135 2.167-1.135zm-.67 1.668c-.5149 0-.8909.159-1.1279.478-.237.315-.36.837-.3691 1.566v.225c0 .821.1207 1.409.3623 1.764.2461.356.6334.533 1.1621.533.4284 0 .7679-.196 1.0185-.588.2552-.396.3829-.97.3829-1.722s-.1277-1.315-.3829-1.689c-.2552-.378-.6038-.567-1.0459-.567zm7.2783 6.118h-2.0849v-10.637h2.0849zm5.2754-6.303c-.442 0-.7884.142-1.039.424-.2507.278-.3942.675-.4307 1.19h2.9258c-.0091-.515-.1436-.912-.4033-1.19-.2598-.282-.6107-.424-1.0528-.424zm.294 6.44c-1.2305 0-2.1921-.34-2.8848-1.019s-1.0391-1.64-1.0391-2.885c0-1.28.3191-2.269.9571-2.966.6425-.702 1.5289-1.053 2.6592-1.053 1.08 0 1.9208.307 2.5224.923.6016.615.9024 1.465.9024 2.55v1.011h-4.9288c.0228.593.1983 1.055.5264 1.388s.7884.499 1.3809.499c.4603 0 .8955-.048 1.3056-.144.4102-.095.8386-.248 1.2852-.458v1.614c-.3646.182-.7542.316-1.169.403-.4147.091-.9205.137-1.5175.137zm7.1484 0c-.8978 0-1.6042-.349-2.1192-1.046-.5104-.697-.7656-1.664-.7656-2.899 0-1.253.2598-2.228.7793-2.925.5241-.702 1.2442-1.053 2.1602-1.053.9616 0 1.6953.374 2.2011 1.121h.0684c-.1048-.57-.1572-1.078-.1572-1.524v-2.448h2.0918v10.637h-1.5996l-.4034-.991h-.0888c-.474.752-1.1963 1.128-2.167 1.128zm.7314-1.661c.5332 0 .9229-.155 1.169-.465.2506-.31.3874-.837.4101-1.579v-.226c0-.82-.1276-1.408-.3828-1.764-.2506-.355-.6608-.533-1.2304-.533-.4649 0-.8272.198-1.087.595-.2552.392-.3828.964-.3828 1.716s.1299 1.317.3897 1.695c.2597.374.6312.561 1.1142.561z" fill="#fff"/><path d="m106 1h362.5v40h-362.5z" fill="#464b52"/><path d="m121.113 26h-2.119v-8.2305h-2.714v-1.7636h7.547v1.7636h-2.714zm8.27-7.7861c.282 0 .517.0205.704.0615l-.157 1.9551c-.169-.0456-.374-.0684-.616-.0684-.665 0-1.184.1709-1.558.5127-.369.3418-.554.8203-.554 1.4356v3.8896h-2.085v-7.6426h1.579l.308 1.2852h.102c.237-.4284.556-.7725.957-1.0322.406-.2644.846-.3965 1.32-.3965zm1.919-1.8321c0-.679.378-1.0185 1.134-1.0185.757 0 1.135.3395 1.135 1.0185 0 .3236-.095.5765-.287.7588-.187.1778-.469.2666-.848.2666-.756 0-1.134-.3418-1.134-1.0254zm2.174 9.6182h-2.085v-7.6426h2.085zm8.953 0h-2.085v-4.4639c0-.5514-.094-.9638-.281-1.2373-.182-.278-.471-.417-.868-.417-.533 0-.92.196-1.162.5879-.241.392-.362 1.0368-.362 1.9346v3.5957h-2.085v-7.6426h1.593l.28.9776h.116c.205-.351.501-.6244.889-.8204.387-.2005.832-.3007 1.333-.3007 1.144 0 1.918.3737 2.324 1.1211h.185c.205-.3555.505-.6312.902-.8272.401-.196.852-.2939 1.353-.2939.866 0 1.52.2233 1.962.6699.447.442.67 1.153.67 2.1328v4.9834h-2.091v-4.4639c0-.5514-.094-.9638-.281-1.2373-.182-.278-.471-.417-.868-.417-.51 0-.893.1823-1.148.5469-.251.3646-.376.9434-.376 1.7363zm11.079-7.7861c.902 0 1.608.3532 2.119 1.0595.51.7019.766 1.6657.766 2.8916 0 1.2624-.265 2.2399-.793 2.9327-.525.6927-1.24 1.039-2.147 1.039-.898 0-1.602-.3258-2.112-.9775h-.144l-.348.8408h-1.593v-10.6367h2.085v2.4746c0 .3144-.028.818-.082 1.5107h.082c.487-.7565 1.21-1.1347 2.167-1.1347zm-.67 1.6679c-.515 0-.891.1595-1.128.4786-.237.3144-.36.8362-.369 1.5654v.2256c0 .8203.121 1.4082.362 1.7636.246.3555.634.5332 1.162.5332.429 0 .768-.1959 1.019-.5878.255-.3965.383-.9708.383-1.7227 0-.752-.128-1.3148-.383-1.6885-.255-.3782-.604-.5674-1.046-.5674zm7.278 6.1182h-2.085v-10.6367h2.085zm5.276-6.3027c-.443 0-.789.1412-1.04.4238-.25.278-.394.6745-.43 1.1894h2.926c-.01-.5149-.144-.9114-.404-1.1894-.26-.2826-.61-.4238-1.052-.4238zm.293 6.4394c-1.23 0-2.192-.3395-2.884-1.0185-.693-.6791-1.039-1.6407-1.039-2.8848 0-1.2806.319-2.2695.957-2.9668.642-.7018 1.529-1.0527 2.659-1.0527 1.08 0 1.921.3076 2.522.9228.602.6153.903 1.4652.903 2.5498v1.0117h-4.929c.023.5925.198 1.0551.526 1.3877.328.3327.789.4991 1.381.4991.46 0 .896-.0479 1.306-.1436s.838-.2484 1.285-.458v1.6133c-.365.1823-.754.3167-1.169.4033-.415.0911-.921.1367-1.518.1367zm12.24-5.749h3.965v5.1816c-.643.2097-1.249.3555-1.819.4375-.565.0866-1.144.1299-1.736.1299-1.509 0-2.662-.442-3.459-1.3262-.793-.8886-1.19-2.1624-1.19-3.8212 0-1.6133.461-2.8711 1.381-3.7735.925-.9023 2.206-1.3535 3.842-1.3535 1.025 0 2.014.2051 2.967.6152l-.704 1.6954c-.729-.3646-1.488-.5469-2.277-.5469-.916 0-1.649.3076-2.201.9228-.551.6153-.827 1.4424-.827 2.4815 0 1.0846.221 1.914.663 2.4883.447.5696 1.094.8544 1.942.8544.442 0 .891-.0455 1.346-.1367v-2.0849h-1.893zm10.368-2.1738c.282 0 .517.0205.704.0615l-.157 1.9551c-.169-.0456-.374-.0684-.616-.0684-.665 0-1.184.1709-1.558.5127-.369.3418-.554.8203-.554 1.4356v3.8896h-2.085v-7.6426h1.579l.308 1.2852h.102c.237-.4284.556-.7725.957-1.0322.406-.2644.846-.3965 1.32-.3965zm6.861 7.7861-.403-1.0391h-.055c-.351.4421-.713.7497-1.087.9229-.369.1686-.852.2529-1.449.2529-.734 0-1.312-.2096-1.736-.6289-.42-.4193-.629-1.0163-.629-1.791 0-.8112.282-1.4082.847-1.791.57-.3874 1.427-.6016 2.571-.6426l1.326-.041v-.335c0-.7747-.397-1.1621-1.19-1.1621-.61 0-1.328.1846-2.153.5537l-.69-1.4082c.879-.4603 1.855-.6904 2.925-.6904 1.026 0 1.812.2233 2.359.6699s.82 1.1257.82 2.0371v5.0928zm-.615-3.541-.807.0273c-.606.0183-1.057.1276-1.353.3282-.296.2005-.445.5058-.445.916 0 .5879.338.8818 1.012.8818.483 0 .868-.139 1.155-.417.292-.278.438-.6471.438-1.1074zm3.047-4.1016h2.283l1.442 4.2998c.123.3737.208.8158.253 1.3262h.041c.05-.4694.148-.9115.294-1.3262l1.415-4.2998h2.236l-3.234 8.6201c-.296.7976-.72 1.3946-1.271 1.7911-.547.3964-1.187.5947-1.921.5947-.36 0-.713-.0388-1.06-.1162v-1.6543c.251.0592.524.0888.821.0888.369 0 .69-.1139.963-.3418.278-.2233.495-.5628.65-1.0185l.123-.376z" fill="#fff"/><path d="m106 42h362.5v88.75h-362.5z" fill="#171c1e"/><path d="m148.75 54.875h277v63h-277z" fill="#171c1e"/><path clip-rule="evenodd" d="m279.25 81.0417v-2.6667h24v2.6667zm0 6.6666h24v-2.6666h-24zm0 6.6667h24v-2.6667h-24z" fill="#fff" fill-rule="evenodd"/><path d="m148.75 54.875h277v63h-277z" stroke="#6a6e79"/><path d="m106 131.75h362.5v88.75h-362.5z" fill="#171c1e"/><path d="m148.75 144.625h277v63h-277z" fill="#171c1e"/><rect fill="#0e416c" height="56" rx="4" width="56" x="263.25" y="148.125"/><rect fill="#464b52" height="56" rx="2" width="56" x="263.25" y="148.125"/><path clip-rule="evenodd" d="m279.25 170.792v-2.667h24v2.667zm0 6.666h24v-2.666h-24zm0 6.667h24v-2.667h-24z" fill="#fff" fill-rule="evenodd"/><path d="m148.75 144.625h277v63h-277z" stroke="#6a6e79"/><path d="m106 221.5h362.5v88.75h-362.5z" fill="#171c1e"/><path d="m148.75 234.375h277v63h-277z" fill="#171c1e"/><path clip-rule="evenodd" d="m279.25 260.542v-2.667h24v2.667zm0 6.666h24v-2.666h-24zm0 6.667h24v-2.667h-24z" fill="#fff" fill-rule="evenodd"/><rect height="56" rx="2" stroke="#009ad9" stroke-width="8" width="56" x="263.25" y="237.875"/><path d="m148.75 234.375h277v63h-277z" stroke="#6a6e79"/><path d="m106 311.25h362.5v88.75h-362.5z" fill="#171c1e"/><path d="m148.75 324.125h277v63h-277z" fill="#171c1e"/><path clip-rule="evenodd" d="m279.25 350.292v-2.667h24v2.667zm0 6.666h24v-2.666h-24zm0 6.667h24v-2.667h-24z" fill="#fff" fill-rule="evenodd" opacity=".4"/><path d="m148.75 324.125h277v63h-277z" stroke="#6a6e79"/><path d="m469.5 1h362.5v40h-362.5z" fill="#464b52"/><path d="m482.877 20.4424h.684c.669 0 1.164-.1117 1.483-.335s.478-.5742.478-1.0527c0-.474-.164-.8112-.492-1.0117-.323-.2006-.827-.3008-1.51-.3008h-.643zm0 1.7226v3.835h-2.119v-9.9941h2.912c1.358 0 2.363.2483 3.015.7451.651.4922.977 1.2418.977 2.249 0 .5879-.162 1.112-.485 1.5723-.324.4557-.782.8134-1.374 1.0732 1.504 2.2468 2.483 3.6983 2.939 4.3545h-2.351l-2.386-3.835zm10.04-2.4677c-.442 0-.788.1412-1.039.4238-.251.278-.394.6745-.431 1.1894h2.926c-.009-.5149-.144-.9114-.403-1.1894-.26-.2826-.611-.4238-1.053-.4238zm.294 6.4394c-1.231 0-2.192-.3395-2.885-1.0185-.693-.6791-1.039-1.6407-1.039-2.8848 0-1.2806.319-2.2695.957-2.9668.643-.7018 1.529-1.0527 2.659-1.0527 1.08 0 1.921.3076 2.523.9228.601.6153.902 1.4652.902 2.5498v1.0117h-4.929c.023.5925.199 1.0551.527 1.3877.328.3327.788.4991 1.381.4991.46 0 .895-.0479 1.305-.1436s.839-.2484 1.285-.458v1.6133c-.364.1823-.754.3167-1.168.4033-.415.0911-.921.1367-1.518.1367zm6.547-.1367-2.912-7.6426h2.18l1.477 4.3545c.164.5514.267 1.0733.308 1.5654h.041c.022-.4375.125-.9593.307-1.5654l1.47-4.3545h2.181l-2.913 7.6426zm9.233-6.3027c-.442 0-.788.1412-1.039.4238-.251.278-.394.6745-.431 1.1894h2.926c-.009-.5149-.143-.9114-.403-1.1894-.26-.2826-.611-.4238-1.053-.4238zm.294 6.4394c-1.23 0-2.192-.3395-2.885-1.0185-.692-.6791-1.039-1.6407-1.039-2.8848 0-1.2806.319-2.2695.957-2.9668.643-.7018 1.529-1.0527 2.659-1.0527 1.081 0 1.921.3076 2.523.9228.602.6153.902 1.4652.902 2.5498v1.0117h-4.928c.022.5925.198 1.0551.526 1.3877.328.3327.788.4991 1.381.4991.46 0 .895-.0479 1.305-.1436.411-.0957.839-.2484 1.286-.458v1.6133c-.365.1823-.755.3167-1.169.4033-.415.0911-.921.1367-1.518.1367zm8.994-7.9228c.283 0 .517.0205.704.0615l-.157 1.9551c-.169-.0456-.374-.0684-.615-.0684-.665 0-1.185.1709-1.559.5127-.369.3418-.553.8203-.553 1.4356v3.8896h-2.085v-7.6426h1.579l.307 1.2852h.103c.237-.4284.556-.7725.957-1.0322.405-.2644.845-.3965 1.319-.3965zm7.34 5.5166c0 .7838-.273 1.3808-.82 1.791-.543.4101-1.356.6152-2.441.6152-.556 0-1.03-.0387-1.422-.1162-.391-.0729-.758-.1823-1.1-.3281v-1.7227c.387.1823.822.335 1.306.458.487.1231.916.1846 1.285.1846.756 0 1.134-.2187 1.134-.6562 0-.1641-.05-.2963-.15-.3965-.1-.1048-.273-.2211-.519-.3487-.247-.1321-.575-.2848-.985-.458-.588-.2461-1.021-.4739-1.299-.6836-.273-.2096-.474-.4489-.601-.7177-.123-.2735-.185-.6084-.185-1.0049 0-.6791.262-1.2031.786-1.5723.529-.3737 1.276-.5605 2.243-.5605.92 0 1.816.2005 2.686.6015l-.629 1.5039c-.383-.164-.74-.2985-1.073-.4033s-.672-.1572-1.019-.1572c-.615 0-.923.1663-.923.499 0 .1869.098.3486.294.4854.201.1367.636.3395 1.306.6084.597.2415 1.035.4671 1.313.6767.278.2097.483.4512.615.7246.132.2735.198.5993.198.9776zm4.708-4.0332c-.442 0-.788.1412-1.039.4238-.251.278-.394.6745-.431 1.1894h2.926c-.009-.5149-.143-.9114-.403-1.1894-.26-.2826-.611-.4238-1.053-.4238zm.294 6.4394c-1.23 0-2.192-.3395-2.885-1.0185-.692-.6791-1.039-1.6407-1.039-2.8848 0-1.2806.319-2.2695.957-2.9668.643-.7018 1.529-1.0527 2.659-1.0527 1.08 0 1.921.3076 2.523.9228.601.6153.902 1.4652.902 2.5498v1.0117h-4.929c.023.5925.199 1.0551.527 1.3877.328.3327.788.4991 1.381.4991.46 0 .895-.0479 1.305-.1436.411-.0957.839-.2484 1.286-.458v1.6133c-.365.1823-.755.3167-1.169.4033-.415.0911-.921.1367-1.518.1367zm7.148 0c-.897 0-1.604-.3486-2.119-1.0459-.51-.6972-.765-1.6634-.765-2.8984 0-1.2533.259-2.2285.779-2.9258.524-.7018 1.244-1.0527 2.16-1.0527.962 0 1.695.3737 2.201 1.1211h.069c-.105-.5697-.158-1.0778-.158-1.5245v-2.4472h2.092v10.6367h-1.599l-.404-.9912h-.089c-.474.7519-1.196 1.1279-2.167 1.1279zm.732-1.6611c.533 0 .923-.155 1.169-.4649.25-.3099.387-.8362.41-1.5791v-.2255c0-.8204-.128-1.4082-.383-1.7637-.25-.3555-.661-.5332-1.23-.5332-.465 0-.827.1982-1.087.5947-.255.3919-.383.9639-.383 1.7158 0 .752.13 1.3171.39 1.6953.259.3737.631.5606 1.114.5606z" fill="#fff"/><path d="m469.5 42h362.5v88.75h-362.5z" fill="#171c1e"/><path d="m512.25 54.875h277v63h-277z" fill="#0e416c"/><path clip-rule="evenodd" d="m642.75 81.0417v-2.6667h24v2.6667zm0 6.6666h24v-2.6666h-24zm0 6.6667h24v-2.6667h-24z" fill="#fff" fill-rule="evenodd"/><path d="m512.25 54.875h277v63h-277z" stroke="#6a6e79"/><path d="m469.5 131.75h362.5v88.75h-362.5z" fill="#171c1e"/><path d="m512.25 144.625h277v63h-277z" fill="#0e416c"/><rect fill="#0e416c" height="56" rx="4" width="56" x="626.75" y="148.125"/><rect fill="#062c4b" height="56" rx="2" width="56" x="626.75" y="148.125"/><path clip-rule="evenodd" d="m642.75 170.792v-2.667h24v2.667zm0 6.666h24v-2.666h-24zm0 6.667h24v-2.667h-24z" fill="#fff" fill-rule="evenodd"/><path d="m512.25 144.625h277v63h-277z" stroke="#6a6e79"/><path d="m469.5 221.5h362.5v88.75h-362.5z" fill="#171c1e"/><path d="m512.25 234.375h277v63h-277z" fill="#0e416c"/><path clip-rule="evenodd" d="m642.75 260.542v-2.667h24v2.667zm0 6.666h24v-2.666h-24zm0 6.667h24v-2.667h-24z" fill="#fff" fill-rule="evenodd"/><rect height="56" rx="2" stroke="#009ad9" stroke-width="8" width="56" x="626.75" y="237.875"/><path d="m512.25 234.375h277v63h-277z" stroke="#6a6e79"/><path d="m469.5 311.25h362.5v88.75h-362.5z" fill="#171c1e"/><path d="m512.25 324.125h277v63h-277z" fill="#0e416c"/><path clip-rule="evenodd" d="m642.75 350.292v-2.667h24v2.667zm0 6.666h24v-2.666h-24zm0 6.667h24v-2.667h-24z" fill="#fff" fill-rule="evenodd" opacity=".4"/><path d="m512.25 324.125h277v63h-277z" stroke="#6a6e79"/></svg>