<svg fill="none" height="401" width="834" xmlns="http://www.w3.org/2000/svg"><path d="m.5 0h833v401h-833z" fill="#c4c4c4"/><path d="m1.5 1h104v40h-104z" fill="#f1f1f6"/><path d="m18.657 23.225c0 .902-.326 1.613-.977 2.132-.647.52-1.55.78-2.707.78-1.067 0-2.01-.2-2.83-.602v-1.969c.674.301 1.244.513 1.709.636.469.123.897.185 1.285.185.465 0 .82-.09 1.066-.267.25-.178.376-.442.376-.793a.86.86 0 0 0 -.164-.52 1.79 1.79 0 0 0 -.485-.444c-.21-.141-.64-.367-1.292-.677-.611-.287-1.069-.562-1.374-.827a3.105 3.105 0 0 1 -.732-.923c-.182-.35-.273-.76-.273-1.23 0-.884.298-1.579.895-2.085.602-.506 1.431-.759 2.489-.759.52 0 1.014.062 1.483.185.474.123.968.296 1.483.52l-.683 1.647a9.891 9.891 0 0 0 -1.326-.458 4.215 4.215 0 0 0 -1.026-.13c-.4 0-.708.093-.923.28a.925.925 0 0 0 -.32.732c0 .186.042.35.129.492.086.137.223.271.41.403.192.128.64.36 1.347.697.934.447 1.574.896 1.92 1.347.347.447.52.996.52 1.648zm4.783 1.25c.365 0 .802-.08 1.313-.239v1.552c-.52.232-1.158.349-1.914.349-.834 0-1.442-.21-1.825-.63-.379-.423-.568-1.056-.568-1.9v-3.684h-.998v-.882l1.149-.697.601-1.614h1.333v1.627h2.14v1.566h-2.14v3.684c0 .297.082.515.246.657.169.14.39.212.663.212zm7.634 1.525-.403-1.04h-.055c-.35.443-.713.75-1.087.924-.369.168-.852.253-1.449.253-.734 0-1.313-.21-1.736-.63-.42-.419-.63-1.016-.63-1.79 0-.811.283-1.408.849-1.791.57-.388 1.426-.602 2.57-.643l1.326-.04v-.336c0-.774-.396-1.162-1.19-1.162-.61 0-1.328.185-2.153.554l-.69-1.408c.88-.46 1.855-.69 2.926-.69 1.025 0 1.811.223 2.358.67.547.446.82 1.125.82 2.036v5.093zm-.615-3.541-.807.027c-.606.019-1.057.128-1.353.328-.296.201-.444.506-.444.916 0 .588.337.882 1.011.882.483 0 .868-.139 1.155-.417.292-.278.438-.647.438-1.107zm7.36 2.017c.365 0 .802-.08 1.313-.24v1.552c-.52.232-1.158.349-1.914.349-.834 0-1.443-.21-1.826-.63-.378-.423-.567-1.056-.567-1.9v-3.684h-.998v-.882l1.148-.697.602-1.614h1.333v1.627h2.14v1.566h-2.14v3.684c0 .297.082.515.246.657.169.14.39.212.663.212zm5.946-4.779c-.443 0-.789.142-1.04.424-.25.278-.394.675-.43 1.19h2.926c-.01-.515-.144-.912-.404-1.19-.26-.282-.61-.424-1.052-.424zm.294 6.44c-1.23 0-2.192-.34-2.885-1.019s-1.04-1.64-1.04-2.885c0-1.28.32-2.27.958-2.966.642-.702 1.529-1.053 2.659-1.053 1.08 0 1.92.308 2.522.923s.903 1.465.903 2.55v1.011h-4.929c.023.593.198 1.055.526 1.388s.789.499 1.381.499c.46 0 .896-.048 1.306-.144.41-.095.838-.248 1.285-.458v1.614a4.792 4.792 0 0 1 -1.169.403c-.415.091-.92.137-1.517.137z" fill="#464b52"/><path d="m1.5 42h104v88.75h-104z" fill="#fff"/><path d="m37.257 86.282c0 1.645-.47 2.906-1.408 3.78-.935.876-2.286 1.313-4.054 1.313h-2.83v-9.994h3.138c1.631 0 2.898.43 3.8 1.292.903.861 1.354 2.064 1.354 3.61zm-2.201.055c0-2.147-.948-3.22-2.844-3.22h-1.128v6.508h.91c2.04 0 3.062-1.096 3.062-3.288zm7.19-1.265c-.443 0-.79.141-1.04.424-.25.278-.394.675-.43 1.19h2.924c-.009-.515-.143-.912-.403-1.19-.26-.282-.61-.424-1.053-.424zm.293 6.44c-1.23 0-2.192-.34-2.885-1.019-.692-.679-1.039-1.64-1.039-2.885 0-1.28.32-2.27.957-2.966.643-.702 1.53-1.053 2.66-1.053 1.08 0 1.92.308 2.522.923s.902 1.465.902 2.55v1.011h-4.928c.022.593.198 1.055.526 1.388s.788.499 1.38.499c.461 0 .896-.048 1.306-.144.41-.095.839-.248 1.286-.458v1.614a4.791 4.791 0 0 1 -1.17.403c-.414.091-.92.137-1.517.137zm8.953-6.214h-1.804v6.077h-2.085v-6.077h-1.149v-1.005l1.149-.56v-.561c0-.87.214-1.506.642-1.907s1.114-.602 2.058-.602c.72 0 1.36.107 1.92.321l-.533 1.532a3.887 3.887 0 0 0 -1.162-.199c-.296 0-.51.09-.642.267-.132.173-.199.397-.199.67v.478h1.805zm5.973 6.077-.404-1.04h-.054c-.351.443-.713.75-1.087.924-.37.168-.852.253-1.45.253-.733 0-1.312-.21-1.736-.63-.419-.419-.629-1.016-.629-1.79 0-.811.283-1.408.848-1.791.57-.388 1.427-.602 2.57-.643l1.327-.04v-.336c0-.775-.397-1.162-1.19-1.162-.61 0-1.328.185-2.153.554l-.69-1.408c.879-.46 1.854-.69 2.925-.69 1.026 0 1.812.223 2.359.67.547.446.82 1.125.82 2.036v5.093zm-.615-3.541-.807.027c-.606.019-1.057.128-1.353.328-.297.201-.445.506-.445.917 0 .587.337.881 1.012.881.483 0 .868-.139 1.155-.417.292-.278.438-.647.438-1.107zm9.554 3.541-.28-.978h-.11c-.223.356-.54.632-.95.828-.41.191-.877.287-1.4.287-.899 0-1.575-.24-2.031-.718-.456-.483-.684-1.176-.684-2.078v-4.984h2.085v4.464c0 .552.098.966.294 1.244.196.274.508.41.937.41.583 0 1.004-.193 1.264-.58.26-.392.39-1.04.39-1.942v-3.596h2.085v7.643zm5.788 0h-2.085v-10.637h2.085zm5.33-1.524c.365 0 .802-.08 1.313-.24v1.552c-.52.233-1.158.349-1.914.349-.834 0-1.443-.21-1.825-.63-.379-.423-.568-1.056-.568-1.9v-3.684h-.998v-.882l1.149-.697.601-1.613h1.333v1.626h2.14v1.566h-2.14v3.684c0 .297.082.515.246.657.169.14.39.212.663.212z" fill="#000"/><path d="m1.5 131.75h104v88.75h-104z" fill="#fff"/><path d="m29.895 175.834h.697c.652 0 1.14-.128 1.463-.383.323-.26.485-.636.485-1.128 0-.497-.137-.863-.41-1.1-.269-.237-.693-.356-1.272-.356h-.963zm4.785-1.586c0 1.076-.337 1.898-1.012 2.468-.67.569-1.625.854-2.864.854h-.91v3.555h-2.119v-9.994h3.193c1.212 0 2.133.262 2.762.786.633.52.95 1.297.95 2.331zm5.904-.909c.283 0 .517.02.704.061l-.157 1.955a2.415 2.415 0 0 0 -.615-.068c-.666 0-1.185.171-1.559.513-.37.342-.554.82-.554 1.435v3.89h-2.085v-7.643h1.58l.307 1.286h.103c.237-.429.556-.773.957-1.033a2.372 2.372 0 0 1 1.319-.396zm5.173 1.483c-.442 0-.789.142-1.04.424-.25.278-.393.675-.43 1.19h2.926c-.01-.515-.144-.912-.403-1.19-.26-.282-.611-.424-1.053-.424zm.294 6.44c-1.23 0-2.192-.34-2.885-1.019s-1.039-1.64-1.039-2.885c0-1.28.319-2.269.957-2.966.643-.702 1.529-1.053 2.66-1.053 1.08 0 1.92.307 2.522.923.601.615.902 1.465.902 2.55v1.011h-4.929c.023.593.199 1.055.527 1.388s.788.499 1.38.499c.46 0 .896-.048 1.306-.144.41-.095.839-.248 1.285-.458v1.614a4.82 4.82 0 0 1 -1.169.403c-.414.091-.92.137-1.517.137zm10.06-2.407c0 .784-.273 1.381-.82 1.791-.542.411-1.356.616-2.44.616-.556 0-1.03-.039-1.422-.116a5.232 5.232 0 0 1 -1.1-.329v-1.722c.386.182.822.335 1.305.458a5.34 5.34 0 0 0 1.285.184c.757 0 1.135-.218 1.135-.656a.534.534 0 0 0 -.15-.396c-.1-.105-.274-.221-.52-.349a12.105 12.105 0 0 0 -.985-.458c-.587-.246-1.02-.474-1.298-.684a1.976 1.976 0 0 1 -.602-.717c-.123-.274-.184-.609-.184-1.005 0-.679.262-1.203.786-1.573.528-.373 1.276-.56 2.242-.56.92 0 1.816.2 2.686.601l-.629 1.504a11.63 11.63 0 0 0 -1.073-.403 3.364 3.364 0 0 0 -1.018-.157c-.616 0-.923.166-.923.499 0 .187.098.348.294.485.2.137.635.34 1.305.609.597.241 1.035.467 1.313.676.278.21.483.451.615.725.132.273.198.599.198.977zm6.875 0c0 .784-.273 1.381-.82 1.791-.542.411-1.356.616-2.44.616-.556 0-1.03-.039-1.422-.116a5.232 5.232 0 0 1 -1.1-.329v-1.722c.386.182.822.335 1.305.458a5.34 5.34 0 0 0 1.285.184c.756 0 1.135-.218 1.135-.656a.534.534 0 0 0 -.15-.396c-.101-.105-.274-.221-.52-.349a12.105 12.105 0 0 0 -.985-.458c-.587-.246-1.02-.474-1.298-.684a1.976 1.976 0 0 1 -.602-.717c-.123-.274-.185-.609-.185-1.005 0-.679.263-1.203.787-1.573.528-.373 1.276-.56 2.242-.56.92 0 1.816.2 2.686.601l-.629 1.504a11.63 11.63 0 0 0 -1.073-.403 3.364 3.364 0 0 0 -1.018-.157c-.616 0-.923.166-.923.499 0 .187.098.348.294.485.2.137.635.34 1.305.609.597.241 1.035.467 1.313.676.278.21.483.451.615.725.132.273.198.599.198.977zm4.708-4.033c-.442 0-.788.142-1.039.424-.25.278-.394.675-.43 1.19h2.925c-.009-.515-.143-.912-.403-1.19-.26-.282-.61-.424-1.053-.424zm.294 6.44c-1.23 0-2.192-.34-2.885-1.019-.692-.679-1.039-1.64-1.039-2.885 0-1.28.32-2.269.958-2.966.642-.702 1.528-1.053 2.659-1.053 1.08 0 1.92.307 2.522.923.602.615.902 1.465.902 2.55v1.011h-4.928c.022.593.198 1.055.526 1.388s.788.499 1.381.499c.46 0 .895-.048 1.306-.144.41-.095.838-.248 1.285-.458v1.614a4.821 4.821 0 0 1 -1.17.403c-.414.091-.92.137-1.517.137zm7.149 0c-.898 0-1.605-.349-2.12-1.046-.51-.697-.765-1.664-.765-2.899 0-1.253.26-2.228.78-2.925.523-.702 1.243-1.053 2.16-1.053.96 0 1.695.374 2.2 1.121h.069a8.53 8.53 0 0 1 -.157-1.524v-2.448h2.091v10.637h-1.6l-.403-.991h-.088c-.474.752-1.197 1.128-2.167 1.128zm.731-1.661c.533 0 .923-.155 1.17-.465.25-.31.386-.837.41-1.579v-.226c0-.82-.128-1.408-.384-1.764-.25-.355-.66-.533-1.23-.533-.465 0-.827.198-1.087.595-.255.392-.383.964-.383 1.716s.13 1.317.39 1.695c.26.374.631.561 1.114.561z" fill="#000"/><path d="m1.5 221.5h104v88.75h-104z" fill="#fff"/><path d="m37.152 270.875h-2.085v-9.994h5.729v1.736h-3.644v2.577h3.391v1.73h-3.39v3.951zm7.012-3.835c0 .757.123 1.328.37 1.716.25.387.656.581 1.216.581.556 0 .955-.191 1.196-.574.246-.388.37-.962.37-1.723 0-.756-.124-1.324-.37-1.702s-.65-.567-1.21-.567c-.556 0-.957.189-1.203.567-.246.374-.369.941-.369 1.702zm5.284 0c0 1.244-.328 2.217-.984 2.919s-1.57 1.053-2.741 1.053c-.734 0-1.381-.16-1.942-.479a3.226 3.226 0 0 1 -1.292-1.387c-.3-.602-.45-1.304-.45-2.106 0-1.249.325-2.219.977-2.912.651-.693 1.567-1.039 2.748-1.039.733 0 1.38.159 1.941.478.56.319.991.777 1.292 1.374.3.597.451 1.297.451 2.099zm4.742 3.972c-2.378 0-3.568-1.306-3.568-3.917 0-1.299.324-2.29.97-2.974.648-.688 1.575-1.032 2.783-1.032.884 0 1.677.173 2.379.519l-.615 1.614a9.8 9.8 0 0 0 -.916-.322 2.898 2.898 0 0 0 -.848-.129c-1.085 0-1.627.77-1.627 2.31 0 1.495.542 2.242 1.627 2.242.401 0 .773-.052 1.114-.157a4.097 4.097 0 0 0 1.026-.506v1.784a3.335 3.335 0 0 1 -1.026.445c-.341.082-.774.123-1.299.123zm9.432-.137-.28-.978h-.11a2.22 2.22 0 0 1 -.95.828c-.41.191-.877.287-1.401.287-.898 0-1.575-.24-2.03-.718-.456-.483-.684-1.176-.684-2.078v-4.984h2.085v4.464c0 .552.098.966.294 1.244.196.274.508.411.936.411.584 0 1.005-.194 1.265-.581.26-.392.39-1.04.39-1.942v-3.596h2.085v7.643zm9.035-2.27c0 .784-.273 1.381-.82 1.791-.542.411-1.356.616-2.44.616-.556 0-1.03-.039-1.422-.116a5.232 5.232 0 0 1 -1.101-.329v-1.722c.387.182.823.335 1.306.458a5.34 5.34 0 0 0 1.285.184c.756 0 1.135-.218 1.135-.656a.535.535 0 0 0 -.15-.396c-.101-.105-.274-.221-.52-.349a12.121 12.121 0 0 0 -.985-.458c-.588-.246-1.02-.474-1.298-.684a1.976 1.976 0 0 1 -.602-.717c-.123-.274-.185-.609-.185-1.005 0-.679.262-1.203.787-1.573.528-.373 1.275-.56 2.242-.56.92 0 1.816.2 2.686.601l-.629 1.504a11.64 11.64 0 0 0 -1.073-.403 3.364 3.364 0 0 0 -1.019-.157c-.615 0-.922.166-.922.499 0 .187.098.348.294.485.2.137.635.34 1.305.609.597.241 1.035.467 1.313.676.278.21.483.451.615.725.132.273.198.599.198.977z" fill="#000"/><path d="m1.5 311.25h104v88.75h-104z" fill="#fff"/><path d="m33.177 355.532c0 1.645-.47 2.906-1.408 3.78-.935.876-2.286 1.313-4.054 1.313h-2.83v-9.994h3.137c1.632 0 2.899.431 3.801 1.292.903.861 1.354 2.064 1.354 3.609zm-2.201.055c0-2.147-.948-3.22-2.844-3.22h-1.128v6.508h.91c2.04 0 3.062-1.096 3.062-3.288zm3.935-4.58c0-.679.378-1.019 1.135-1.019.756 0 1.135.34 1.135 1.019 0 .323-.096.576-.287.759-.187.177-.47.266-.848.266-.757 0-1.135-.342-1.135-1.025zm2.174 9.618h-2.085v-7.643h2.085zm7.442-2.27c0 .784-.273 1.381-.82 1.791-.542.411-1.356.616-2.44.616-.556 0-1.03-.039-1.422-.116a5.232 5.232 0 0 1 -1.1-.329v-1.722a7.31 7.31 0 0 0 1.305.458 5.34 5.34 0 0 0 1.285.184c.757 0 1.135-.218 1.135-.656a.535.535 0 0 0 -.15-.396c-.1-.105-.274-.221-.52-.349a12.117 12.117 0 0 0 -.984-.458c-.588-.246-1.021-.474-1.3-.684a1.977 1.977 0 0 1 -.6-.717c-.124-.274-.185-.609-.185-1.005 0-.679.261-1.203.786-1.573.528-.373 1.276-.56 2.242-.56.92 0 1.816.2 2.686.601l-.629 1.504c-.382-.164-.74-.298-1.073-.403a3.364 3.364 0 0 0 -1.018-.157c-.616 0-.923.166-.923.499 0 .187.098.348.294.485.2.137.636.34 1.305.609.597.241 1.035.467 1.313.676a2 2 0 0 1 .615.725c.132.273.198.599.198.977zm6.397 2.27-.404-1.039h-.054c-.351.442-.713.75-1.087.923-.37.168-.852.253-1.45.253-.733 0-1.312-.21-1.736-.629-.419-.419-.628-1.016-.628-1.791 0-.811.282-1.408.847-1.791.57-.388 1.427-.602 2.57-.643l1.327-.041v-.335c0-.775-.397-1.162-1.19-1.162-.61 0-1.328.185-2.153.554l-.69-1.408c.879-.461 1.854-.691 2.925-.691 1.026 0 1.812.224 2.359.67.546.447.82 1.126.82 2.037v5.093zm-.615-3.541-.807.027c-.606.019-1.057.128-1.354.328-.296.201-.444.506-.444.916 0 .588.337.882 1.012.882.483 0 .868-.139 1.155-.417.292-.278.438-.647.438-1.107zm8.392-4.245c.902 0 1.609.353 2.12 1.059.51.702.765 1.666.765 2.892 0 1.262-.264 2.24-.793 2.933-.524.692-1.24 1.039-2.146 1.039-.898 0-1.602-.326-2.113-.978h-.143l-.349.841h-1.593v-10.637h2.085v2.475c0 .314-.027.818-.082 1.511h.082c.488-.757 1.21-1.135 2.167-1.135zm-.67 1.668c-.515 0-.89.159-1.128.478-.237.315-.36.837-.369 1.566v.225c0 .821.12 1.409.363 1.764.246.356.633.533 1.162.533.428 0 .768-.196 1.018-.588.255-.396.383-.97.383-1.722s-.128-1.315-.383-1.689c-.255-.378-.604-.567-1.046-.567zm7.279 6.118h-2.085v-10.637h2.084v10.637zm5.275-6.303c-.442 0-.788.142-1.04.424-.25.278-.393.675-.43 1.19h2.926c-.01-.515-.144-.912-.403-1.19-.26-.282-.611-.424-1.053-.424zm.294 6.44c-1.23 0-2.192-.34-2.885-1.019s-1.039-1.64-1.039-2.885c0-1.28.32-2.269.957-2.966.643-.702 1.529-1.053 2.66-1.053 1.08 0 1.92.307 2.522.923.601.615.902 1.465.902 2.55v1.011h-4.929c.023.593.199 1.055.527 1.388s.788.499 1.38.499c.46 0 .896-.048 1.306-.144.41-.095.839-.248 1.285-.458v1.614a4.82 4.82 0 0 1 -1.169.403c-.414.091-.92.137-1.517.137zm7.148 0c-.898 0-1.604-.349-2.119-1.046-.51-.697-.766-1.664-.766-2.899 0-1.253.26-2.228.78-2.925.524-.702 1.244-1.053 2.16-1.053.962 0 1.695.374 2.201 1.121h.069a8.53 8.53 0 0 1 -.158-1.524v-2.448h2.092v10.637h-1.6l-.403-.991h-.089c-.474.752-1.196 1.128-2.167 1.128zm.732-1.661c.533 0 .923-.155 1.169-.465.25-.31.387-.837.41-1.579v-.226c0-.82-.128-1.408-.383-1.764-.25-.355-.66-.533-1.23-.533-.465 0-.828.198-1.087.595-.256.392-.383.964-.383 1.716s.13 1.317.39 1.695c.26.374.63.561 1.114.561z" fill="#000"/><path d="m106.5 1h362.5v40h-362.5z" fill="#f1f1f6"/><path d="m121.613 26h-2.119v-8.23h-2.714v-1.764h7.547v1.764h-2.714zm8.27-7.786c.282 0 .517.02.704.061l-.157 1.956a2.393 2.393 0 0 0 -.616-.069c-.665 0-1.184.171-1.558.513-.369.342-.554.82-.554 1.435v3.89h-2.085v-7.643h1.579l.308 1.286h.102c.237-.429.556-.773.957-1.033a2.372 2.372 0 0 1 1.32-.396zm1.919-1.832c0-.68.378-1.019 1.134-1.019.757 0 1.135.34 1.135 1.019 0 .323-.095.576-.287.759-.187.177-.469.266-.848.266-.756 0-1.134-.342-1.134-1.025zm2.174 9.618h-2.085v-7.643h2.085zm8.953 0h-2.085v-4.464c0-.551-.094-.964-.281-1.237-.182-.278-.471-.417-.868-.417-.533 0-.92.196-1.162.588-.241.392-.362 1.037-.362 1.934v3.596h-2.085v-7.643h1.593l.28.978h.116c.205-.351.501-.624.889-.82.387-.2.832-.301 1.333-.301 1.144 0 1.918.374 2.324 1.121h.185c.205-.355.505-.631.902-.827a3.04 3.04 0 0 1 1.353-.294c.866 0 1.52.223 1.962.67.447.442.67 1.153.67 2.133v4.983h-2.091v-4.464c0-.551-.094-.964-.281-1.237-.182-.278-.471-.417-.868-.417-.51 0-.893.182-1.148.547-.251.364-.376.943-.376 1.736zm11.079-7.786c.902 0 1.608.353 2.119 1.06.51.701.766 1.665.766 2.891 0 1.262-.265 2.24-.793 2.933-.525.692-1.24 1.039-2.147 1.039-.898 0-1.602-.326-2.112-.978h-.144l-.348.841h-1.593v-10.637h2.085v2.475c0 .314-.028.818-.082 1.51h.082c.487-.756 1.21-1.134 2.167-1.134zm-.67 1.668c-.515 0-.891.16-1.128.478-.237.315-.36.837-.369 1.566v.225c0 .82.121 1.409.362 1.764.246.355.634.533 1.162.533.429 0 .768-.196 1.019-.588.255-.396.383-.97.383-1.722s-.128-1.315-.383-1.689c-.255-.378-.604-.567-1.046-.567zm7.278 6.118h-2.085v-10.637h2.085zm5.276-6.303c-.443 0-.789.142-1.04.424-.25.278-.394.675-.43 1.19h2.926c-.01-.515-.144-.912-.404-1.19-.26-.282-.61-.424-1.052-.424zm.293 6.44c-1.23 0-2.192-.34-2.884-1.019-.693-.679-1.039-1.64-1.039-2.885 0-1.28.319-2.27.957-2.966.642-.702 1.529-1.053 2.659-1.053 1.08 0 1.921.308 2.522.923.602.615.903 1.465.903 2.55v1.011h-4.929c.023.593.198 1.055.526 1.388s.789.499 1.381.499c.46 0 .896-.048 1.306-.144.41-.095.838-.248 1.285-.458v1.614a4.794 4.794 0 0 1 -1.169.403c-.415.091-.921.137-1.518.137zm12.24-5.75h3.965v5.182c-.643.21-1.249.356-1.819.438-.565.086-1.144.13-1.736.13-1.509 0-2.662-.442-3.459-1.326-.793-.89-1.19-2.163-1.19-3.822 0-1.613.461-2.87 1.381-3.773.925-.902 2.206-1.354 3.842-1.354 1.025 0 2.014.205 2.967.615l-.704 1.696a5.029 5.029 0 0 0 -2.277-.547c-.916 0-1.649.308-2.201.923-.551.615-.827 1.442-.827 2.481 0 1.085.221 1.914.663 2.489.447.57 1.094.854 1.942.854.442 0 .891-.046 1.346-.137v-2.085h-1.893v-1.763zm10.368-2.173c.282 0 .517.02.704.061l-.157 1.956a2.393 2.393 0 0 0 -.616-.069c-.665 0-1.184.171-1.558.513-.369.342-.554.82-.554 1.435v3.89h-2.085v-7.643h1.579l.308 1.286h.102c.237-.429.556-.773.957-1.033a2.372 2.372 0 0 1 1.32-.396zm6.861 7.786-.403-1.04h-.055c-.351.443-.713.75-1.087.924-.369.168-.852.253-1.449.253-.734 0-1.312-.21-1.736-.63-.42-.419-.629-1.016-.629-1.79 0-.811.282-1.408.847-1.791.57-.388 1.427-.602 2.571-.643l1.326-.04v-.336c0-.774-.397-1.162-1.19-1.162-.61 0-1.328.185-2.153.554l-.69-1.408c.879-.46 1.855-.69 2.925-.69 1.026 0 1.812.223 2.359.67.547.446.82 1.125.82 2.036v5.093zm-.615-3.541-.807.027c-.606.019-1.057.128-1.353.328-.296.201-.445.506-.445.916 0 .588.338.882 1.012.882.483 0 .868-.139 1.155-.417.292-.278.438-.647.438-1.107zm3.047-4.102h2.283l1.442 4.3c.123.374.208.816.253 1.326h.041c.05-.469.148-.911.294-1.326l1.415-4.3h2.236l-3.234 8.62c-.296.798-.72 1.395-1.271 1.792-.547.396-1.187.594-1.921.594-.36 0-.713-.038-1.06-.116v-1.654c.251.059.524.089.821.089.369 0 .69-.114.963-.342.278-.224.495-.563.65-1.019l.123-.376z" fill="#464b52"/><path d="m106.5 42h362.5v88.75h-362.5z" fill="#fff"/><path d="m149.25 54.875h277v63h-277z" fill="#fff"/><path clip-rule="evenodd" d="m279.75 81.042v-2.667h24v2.667zm0 6.666h24v-2.666h-24zm0 6.667h24v-2.667h-24z" fill="#252a2e" fill-rule="evenodd"/><path d="m149.25 54.875h277v63h-277z" stroke="#a3a6b1"/><path d="m106.5 131.75h362.5v88.75h-362.5z" fill="#fff"/><path d="m149.25 144.625h277v63h-277z" fill="#fff"/><path d="m263.75 152.125a4 4 0 0 1 4-4h48a4 4 0 0 1 4 4v48a4 4 0 0 1 -4 4h-48a4 4 0 0 1 -4-4z" fill="#0e416c"/><rect fill="#b7b9c3" height="56" rx="2" width="56" x="263.75" y="148.125"/><path clip-rule="evenodd" d="m279.75 170.792v-2.667h24v2.667zm0 6.666h24v-2.666h-24zm0 6.667h24v-2.667h-24z" fill="#252a2e" fill-rule="evenodd"/><path d="m149.25 144.625h277v63h-277z" stroke="#b7b9c3"/><path d="m106.5 221.5h362.5v88.75h-362.5z" fill="#fff"/><path d="m149.25 234.375h277v63h-277z" fill="#fff"/><path clip-rule="evenodd" d="m279.75 260.542v-2.667h24v2.667zm0 6.666h24v-2.666h-24zm0 6.667h24v-2.667h-24z" fill="#252a2e" fill-rule="evenodd"/><path d="m265.75 241.875h52v-8h-52zm50-2v52h8v-52zm2 50h-52v8h52zm-50 2v-52h-8v52zm-2-2a2 2 0 0 1 2 2h-8a6 6 0 0 0 6 6zm50 2a2 2 0 0 1 2-2v8a6 6 0 0 0 6-6zm2-50a2 2 0 0 1 -2-2h8a6 6 0 0 0 -6-6zm-52-8a6 6 0 0 0 -6 6h8a2 2 0 0 1 -2 2z" fill="#009ad9"/><path d="m149.25 234.375h277v63h-277z" stroke="#b7b9c3"/><path d="m106.5 311.25h362.5v88.75h-362.5z" fill="#fff"/><path d="m149.25 324.125h277v63h-277z" fill="#fff"/><path clip-rule="evenodd" d="m279.75 350.292v-2.667h24v2.667zm0 6.666h24v-2.666h-24zm0 6.667h24v-2.667h-24z" fill="#252a2e" fill-rule="evenodd" opacity=".4"/><path d="m149.25 324.125h277v63h-277z" stroke="#b7b9c3"/><path d="m470 1h362.5v40h-362.5z" fill="#f1f1f6"/><path d="m483.377 20.442h.684c.669 0 1.164-.111 1.483-.335.319-.223.478-.574.478-1.052 0-.474-.164-.811-.492-1.012-.323-.2-.827-.3-1.51-.3h-.643v2.7zm0 1.723v3.835h-2.119v-9.994h2.912c1.358 0 2.363.248 3.015.745.651.492.977 1.242.977 2.249a2.67 2.67 0 0 1 -.485 1.572c-.324.456-.782.814-1.374 1.073a402.294 402.294 0 0 0 2.939 4.355h-2.351l-2.386-3.835zm10.04-2.468c-.442 0-.788.142-1.039.424-.251.278-.394.675-.431 1.19h2.926c-.009-.515-.144-.912-.403-1.19-.26-.282-.611-.424-1.053-.424zm.294 6.44c-1.231 0-2.192-.34-2.885-1.019s-1.039-1.64-1.039-2.885c0-1.28.319-2.27.957-2.966.643-.702 1.529-1.053 2.659-1.053 1.08 0 1.921.308 2.523.923.601.615.902 1.465.902 2.55v1.011h-4.929c.023.593.199 1.055.527 1.388s.788.499 1.381.499c.46 0 .895-.048 1.305-.144.41-.095.839-.248 1.285-.458v1.614a4.786 4.786 0 0 1 -1.168.403c-.415.091-.921.137-1.518.137zm6.547-.137-2.912-7.643h2.18l1.477 4.355c.164.551.267 1.073.308 1.565h.041c.022-.437.125-.959.307-1.565l1.47-4.355h2.181l-2.913 7.643zm9.233-6.303c-.442 0-.788.142-1.039.424-.251.278-.394.675-.431 1.19h2.926c-.009-.515-.143-.912-.403-1.19-.26-.282-.611-.424-1.053-.424zm.294 6.44c-1.23 0-2.192-.34-2.885-1.019-.692-.679-1.039-1.64-1.039-2.885 0-1.28.319-2.27.957-2.966.643-.702 1.529-1.053 2.659-1.053 1.081 0 1.921.308 2.523.923s.902 1.465.902 2.55v1.011h-4.928c.022.593.198 1.055.526 1.388s.788.499 1.381.499c.46 0 .895-.048 1.305-.144a6.531 6.531 0 0 0 1.286-.458v1.614a4.808 4.808 0 0 1 -1.169.403c-.415.091-.921.137-1.518.137zm8.994-7.923c.283 0 .517.02.704.061l-.157 1.956a2.39 2.39 0 0 0 -.615-.069c-.665 0-1.185.171-1.559.513-.369.342-.553.82-.553 1.435v3.89h-2.085v-7.643h1.579l.307 1.286h.103c.237-.429.556-.773.957-1.033a2.367 2.367 0 0 1 1.319-.396zm7.34 5.517c0 .783-.273 1.38-.82 1.79-.543.41-1.356.616-2.441.616-.556 0-1.03-.039-1.422-.117a5.251 5.251 0 0 1 -1.1-.328v-1.722c.387.182.822.335 1.306.458.487.123.916.184 1.285.184.756 0 1.134-.218 1.134-.656a.537.537 0 0 0 -.15-.396c-.1-.105-.273-.221-.519-.35a12.347 12.347 0 0 0 -.985-.457c-.588-.246-1.021-.474-1.299-.684a1.973 1.973 0 0 1 -.601-.717c-.123-.274-.185-.609-.185-1.005 0-.68.262-1.203.786-1.573.529-.373 1.276-.56 2.243-.56.92 0 1.816.2 2.686.601l-.629 1.504c-.383-.164-.74-.298-1.073-.403a3.372 3.372 0 0 0 -1.019-.157c-.615 0-.923.166-.923.499 0 .187.098.348.294.485.201.137.636.34 1.306.609.597.241 1.035.467 1.313.676a2 2 0 0 1 .615.725c.132.273.198.6.198.977zm4.708-4.034c-.442 0-.788.142-1.039.424-.251.278-.394.675-.431 1.19h2.926c-.009-.515-.143-.912-.403-1.19-.26-.282-.611-.424-1.053-.424zm.294 6.44c-1.23 0-2.192-.34-2.885-1.019-.692-.679-1.039-1.64-1.039-2.885 0-1.28.319-2.27.957-2.966.643-.702 1.529-1.053 2.659-1.053 1.08 0 1.921.308 2.523.923.601.615.902 1.465.902 2.55v1.011h-4.929c.023.593.199 1.055.527 1.388s.788.499 1.381.499c.46 0 .895-.048 1.305-.144a6.531 6.531 0 0 0 1.286-.458v1.614a4.808 4.808 0 0 1 -1.169.403c-.415.091-.921.137-1.518.137zm7.148 0c-.897 0-1.604-.349-2.119-1.046-.51-.697-.765-1.664-.765-2.899 0-1.253.259-2.228.779-2.925.524-.702 1.244-1.053 2.16-1.053.962 0 1.695.374 2.201 1.121h.069a8.514 8.514 0 0 1 -.158-1.524v-2.448h2.092v10.637h-1.599l-.404-.991h-.089c-.474.752-1.196 1.128-2.167 1.128zm.732-1.661c.533 0 .923-.155 1.169-.465.25-.31.387-.837.41-1.58v-.225c0-.82-.128-1.408-.383-1.764-.25-.355-.661-.533-1.23-.533-.465 0-.827.198-1.087.595-.255.392-.383.964-.383 1.716s.13 1.317.39 1.695c.259.374.631.56 1.114.56z" fill="#50545b"/><path d="m470 42h362.5v88.75h-362.5z" fill="#fff"/><path d="m512.75 54.875h277v63h-277z" fill="#0e416c"/><path clip-rule="evenodd" d="m643.25 81.042v-2.667h24v2.667zm0 6.666h24v-2.666h-24zm0 6.667h24v-2.667h-24z" fill="#fff" fill-rule="evenodd"/><path d="m512.75 54.875h277v63h-277z" stroke="#a3a6b1"/><path d="m470 131.75h362.5v88.75h-362.5z" fill="#fff"/><path d="m512.75 144.625h277v63h-277z" fill="#0e416c"/><path d="m627.25 152.125a4 4 0 0 1 4-4h48a4 4 0 0 1 4 4v48a4 4 0 0 1 -4 4h-48a4 4 0 0 1 -4-4z" fill="#0e416c"/><rect fill="#062c4b" height="56" rx="2" width="56" x="627.25" y="148.125"/><path clip-rule="evenodd" d="m643.25 170.792v-2.667h24v2.667zm0 6.666h24v-2.666h-24zm0 6.667h24v-2.667h-24z" fill="#fff" fill-rule="evenodd"/><path d="m512.75 144.625h277v63h-277z" stroke="#b7b9c3"/><path d="m470 221.5h362.5v88.75h-362.5z" fill="#fff"/><path d="m512.75 234.375h277v63h-277z" fill="#0e416c"/><path clip-rule="evenodd" d="m643.25 260.542v-2.667h24v2.667zm0 6.666h24v-2.666h-24zm0 6.667h24v-2.667h-24z" fill="#fff" fill-rule="evenodd"/><path d="m629.25 241.875h52v-8h-52zm50-2v52h8v-52zm2 50h-52v8h52zm-50 2v-52h-8v52zm-2-2a2 2 0 0 1 2 2h-8a6 6 0 0 0 6 6zm50 2a2 2 0 0 1 2-2v8a6 6 0 0 0 6-6zm2-50a2 2 0 0 1 -2-2h8a6 6 0 0 0 -6-6zm-52-8a6 6 0 0 0 -6 6h8a2 2 0 0 1 -2 2z" fill="#009ad9"/><path d="m512.75 234.375h277v63h-277z" stroke="#b7b9c3"/><path d="m470 311.25h362.5v88.75h-362.5z" fill="#fff"/><path d="m512.75 324.125h277v63h-277z" fill="#0e416c"/><path clip-rule="evenodd" d="m643.25 350.292v-2.667h24v2.667zm0 6.666h24v-2.666h-24zm0 6.667h24v-2.667h-24z" fill="#fff" fill-rule="evenodd" opacity=".4"/><path d="m512.75 324.125h277v63h-277z" stroke="#b7b9c3"/></svg>