<svg width="1088" height="230" viewBox="0 0 1088 230" fill="none" xmlns="http://www.w3.org/2000/svg"><rect width="1087" height="230" transform="translate(0.5)" fill="#F1F1F6"/><rect width="1088" height="60" transform="translate(0 45)" fill="#0E416C"/><path d="M38.75 77.0813C38.75 77.0813 38.75 77.0813 38.75 82.9396C38.75 88.5667 30.6667 91.0333 30 91.2646V88.3354C31.6667 88.0271 32.0833 85.175 32.0833 83.9417V76.85H38.5C38.6667 77.0042 38.75 77.0813 38.75 77.0813Z" fill="#fff"/><path d="M36.0833 58.9667C36.0833 58.9667 36.0833 61.5875 36 62.5125C35.6667 64.6708 34.4167 66.5208 32.6667 67.3687V75.5396C36.5833 75.7708 38 76.3875 38.5 76.7729H31.3333H30V65.9812H30.0833C32.1667 65.9812 33.6667 63.7458 33.6667 61.6646V60.7396H30V58.7354H35.8333C36 58.7354 36.0833 58.8896 36.0833 58.9667Z" fill="#fff"/><path d="M27.9168 76.85H21.5835C22.0835 76.4646 23.5002 75.8479 27.4168 75.6167V67.3687C25.6668 66.5208 24.4168 64.6708 24.0835 62.5125C23.9168 61.6646 24.0002 58.9667 24.0002 58.9667C24.0002 58.8125 24.1668 58.7354 24.3335 58.7354H30.1668V60.7396H26.5002V61.7417C26.5002 63.7458 28.0002 66.0583 30.0835 66.0583H30.0002V76.9271V88.4125C28.3335 88.1042 27.9168 85.0979 27.9168 84.0187V76.85Z" fill="#fff"/><path d="M21.4998 76.85H27.8332V83.9417C27.8332 85.0208 28.3332 88.0271 29.9165 88.3354V91.2646C29.2498 91.1104 21.1665 88.5667 21.1665 82.9396C21.1665 77.0813 21.1665 77.0813 21.1665 77.0813C21.1665 77.0813 21.3332 77.0042 21.4998 76.85Z" fill="#fff"/><path d="M66.9932 83.5H65.167V69.417H60.1934V67.7949H71.9668V69.417H66.9932V83.5ZM79.4434 71.5117C79.9661 71.5117 80.4352 71.5547 80.8506 71.6406L80.6035 73.2949C80.1165 73.1875 79.6868 73.1338 79.3145 73.1338C78.362 73.1338 77.5456 73.5205 76.8652 74.2939C76.1921 75.0674 75.8555 76.0306 75.8555 77.1836V83.5H74.0723V71.7266H75.5439L75.748 73.9072H75.834C76.2708 73.141 76.7972 72.5501 77.4131 72.1348C78.029 71.7194 78.7057 71.5117 79.4434 71.5117ZM84.8359 83.5H83.0527V71.7266H84.8359V83.5ZM82.9023 68.5361C82.9023 68.1279 83.0026 67.8307 83.2031 67.6445C83.4036 67.4512 83.6543 67.3545 83.9551 67.3545C84.2415 67.3545 84.4886 67.4512 84.6963 67.6445C84.904 67.8379 85.0078 68.1351 85.0078 68.5361C85.0078 68.9372 84.904 69.238 84.6963 69.4385C84.4886 69.6318 84.2415 69.7285 83.9551 69.7285C83.6543 69.7285 83.4036 69.6318 83.2031 69.4385C83.0026 69.238 82.9023 68.9372 82.9023 68.5361ZM103.624 83.5V75.8408C103.624 74.9027 103.424 74.2008 103.022 73.7354C102.621 73.2627 101.998 73.0264 101.153 73.0264C100.043 73.0264 99.2233 73.3451 98.6934 73.9824C98.1634 74.6198 97.8984 75.6009 97.8984 76.9258V83.5H96.1152V75.8408C96.1152 74.9027 95.9147 74.2008 95.5137 73.7354C95.1126 73.2627 94.486 73.0264 93.6338 73.0264C92.5166 73.0264 91.6966 73.363 91.1738 74.0361C90.6582 74.7021 90.4004 75.7979 90.4004 77.3232V83.5H88.6172V71.7266H90.0674L90.3574 73.3379H90.4434C90.7799 72.765 91.2526 72.3174 91.8613 71.9951C92.4772 71.6729 93.1647 71.5117 93.9238 71.5117C95.7643 71.5117 96.9674 72.1777 97.5332 73.5098H97.6191C97.9701 72.8939 98.4785 72.4069 99.1445 72.0488C99.8105 71.6908 100.57 71.5117 101.422 71.5117C102.754 71.5117 103.749 71.8555 104.408 72.543C105.074 73.2233 105.407 74.3154 105.407 75.8193V83.5H103.624ZM114.57 71.5332C116.117 71.5332 117.317 72.0632 118.169 73.123C119.028 74.1758 119.458 75.6689 119.458 77.6025C119.458 79.5361 119.025 81.04 118.158 82.1143C117.299 83.1813 116.103 83.7148 114.57 83.7148C113.804 83.7148 113.102 83.5752 112.465 83.2959C111.835 83.0094 111.305 82.5726 110.875 81.9854H110.746L110.37 83.5H109.092V66.7852H110.875V70.8457C110.875 71.7552 110.846 72.5716 110.789 73.2949H110.875C111.706 72.1204 112.938 71.5332 114.57 71.5332ZM114.312 73.0264C113.095 73.0264 112.218 73.3773 111.681 74.0791C111.144 74.7738 110.875 75.9482 110.875 77.6025C110.875 79.2568 111.151 80.4421 111.702 81.1582C112.254 81.8672 113.138 82.2217 114.355 82.2217C115.451 82.2217 116.268 81.8242 116.805 81.0293C117.342 80.2272 117.61 79.0778 117.61 77.5811C117.61 76.0485 117.342 74.9062 116.805 74.1543C116.268 73.4023 115.437 73.0264 114.312 73.0264ZM124.367 83.5H122.584V66.7852H124.367V83.5ZM133.122 83.7148C131.382 83.7148 130.007 83.1849 128.997 82.125C127.994 81.0651 127.493 79.5934 127.493 77.71C127.493 75.8122 127.959 74.3047 128.89 73.1875C129.828 72.0703 131.085 71.5117 132.66 71.5117C134.135 71.5117 135.303 71.9987 136.162 72.9727C137.021 73.9395 137.451 75.2178 137.451 76.8076V77.9355H129.341C129.377 79.3177 129.724 80.3669 130.383 81.083C131.049 81.7992 131.983 82.1572 133.187 82.1572C134.454 82.1572 135.707 81.8923 136.946 81.3623V82.9521C136.316 83.2243 135.718 83.4176 135.152 83.5322C134.594 83.654 133.917 83.7148 133.122 83.7148ZM132.639 73.0049C131.693 73.0049 130.938 73.3128 130.372 73.9287C129.813 74.5446 129.484 75.3968 129.384 76.4854H135.539C135.539 75.361 135.288 74.5016 134.787 73.9072C134.286 73.3057 133.57 73.0049 132.639 73.0049ZM155.24 83.5H146.485V67.7949H155.24V69.417H148.312V74.4766H154.821V76.0879H148.312V81.8672H155.24V83.5ZM165.703 83.5L165.349 81.8242H165.263C164.675 82.5618 164.088 83.0632 163.501 83.3281C162.921 83.5859 162.194 83.7148 161.32 83.7148C160.153 83.7148 159.236 83.4141 158.57 82.8125C157.911 82.2109 157.582 81.3551 157.582 80.2451C157.582 77.8675 159.483 76.6214 163.286 76.5068L165.284 76.4424V75.7119C165.284 74.7881 165.084 74.1077 164.683 73.6709C164.289 73.2269 163.655 73.0049 162.781 73.0049C161.8 73.0049 160.69 73.3057 159.451 73.9072L158.903 72.543C159.483 72.2279 160.117 71.9808 160.805 71.8018C161.499 71.6227 162.194 71.5332 162.889 71.5332C164.292 71.5332 165.331 71.8447 166.004 72.4678C166.684 73.0908 167.024 74.0898 167.024 75.4648V83.5H165.703ZM161.675 82.2432C162.785 82.2432 163.655 81.9388 164.285 81.3301C164.923 80.7214 165.241 79.8691 165.241 78.7734V77.71L163.458 77.7852C162.04 77.8353 161.016 78.0573 160.386 78.4512C159.763 78.8379 159.451 79.443 159.451 80.2666C159.451 80.9111 159.645 81.4017 160.031 81.7383C160.425 82.0749 160.973 82.2432 161.675 82.2432ZM176.08 71.5117C176.603 71.5117 177.072 71.5547 177.487 71.6406L177.24 73.2949C176.753 73.1875 176.324 73.1338 175.951 73.1338C174.999 73.1338 174.182 73.5205 173.502 74.2939C172.829 75.0674 172.492 76.0306 172.492 77.1836V83.5H170.709V71.7266H172.181L172.385 73.9072H172.471C172.908 73.141 173.434 72.5501 174.05 72.1348C174.666 71.7194 175.342 71.5117 176.08 71.5117ZM183.492 82.2432C183.807 82.2432 184.112 82.2217 184.405 82.1787C184.699 82.1286 184.932 82.0785 185.104 82.0283V83.3926C184.91 83.4857 184.624 83.5609 184.244 83.6182C183.872 83.6826 183.535 83.7148 183.234 83.7148C180.957 83.7148 179.818 82.5153 179.818 80.1162V73.1123H178.132V72.2529L179.818 71.5117L180.57 68.998H181.602V71.7266H185.018V73.1123H181.602V80.041C181.602 80.75 181.77 81.2943 182.106 81.6738C182.443 82.0534 182.905 82.2432 183.492 82.2432ZM195.523 83.5V75.8838C195.523 74.9242 195.305 74.208 194.868 73.7354C194.431 73.2627 193.747 73.0264 192.816 73.0264C191.577 73.0264 190.672 73.363 190.099 74.0361C189.533 74.7093 189.25 75.8122 189.25 77.3447V83.5H187.467V66.7852H189.25V71.8447C189.25 72.4535 189.221 72.9583 189.164 73.3594H189.271C189.622 72.7936 190.12 72.3496 190.765 72.0273C191.416 71.6979 192.158 71.5332 192.988 71.5332C194.428 71.5332 195.506 71.877 196.222 72.5645C196.945 73.2448 197.307 74.3298 197.307 75.8193V83.5H195.523ZM210.595 83.5L208.436 76.5928C208.299 76.1702 208.045 75.2106 207.673 73.7139H207.587C207.3 74.9671 207.05 75.9339 206.835 76.6143L204.611 83.5H202.549L199.337 71.7266H201.206C201.965 74.6842 202.542 76.9365 202.936 78.4834C203.337 80.0303 203.566 81.0723 203.623 81.6094H203.709C203.788 81.2012 203.913 80.6748 204.085 80.0303C204.264 79.3786 204.418 78.863 204.547 78.4834L206.706 71.7266H208.64L210.745 78.4834C211.146 79.7152 211.418 80.75 211.562 81.5879H211.647C211.676 81.3301 211.751 80.9326 211.873 80.3955C212.002 79.8584 212.75 76.9688 214.118 71.7266H215.966L212.711 83.5H210.595ZM228.266 77.6025C228.266 79.5218 227.782 81.0221 226.815 82.1035C225.849 83.1777 224.513 83.7148 222.809 83.7148C221.756 83.7148 220.821 83.4678 220.005 82.9736C219.188 82.4795 218.558 81.7705 218.114 80.8467C217.67 79.9229 217.448 78.8415 217.448 77.6025C217.448 75.6833 217.928 74.1901 218.888 73.123C219.847 72.0488 221.179 71.5117 222.884 71.5117C224.531 71.5117 225.838 72.0596 226.805 73.1553C227.779 74.251 228.266 75.7334 228.266 77.6025ZM219.296 77.6025C219.296 79.1064 219.597 80.2523 220.198 81.04C220.8 81.8278 221.684 82.2217 222.852 82.2217C224.019 82.2217 224.903 81.8314 225.505 81.0508C226.114 80.263 226.418 79.1136 226.418 77.6025C226.418 76.1058 226.114 74.9707 225.505 74.1973C224.903 73.4167 224.012 73.0264 222.83 73.0264C221.663 73.0264 220.782 73.4095 220.188 74.1758C219.593 74.9421 219.296 76.0843 219.296 77.6025ZM236.773 71.5117C237.296 71.5117 237.765 71.5547 238.181 71.6406L237.934 73.2949C237.447 73.1875 237.017 73.1338 236.645 73.1338C235.692 73.1338 234.876 73.5205 234.195 74.2939C233.522 75.0674 233.186 76.0306 233.186 77.1836V83.5H231.402V71.7266H232.874L233.078 73.9072H233.164C233.601 73.141 234.127 72.5501 234.743 72.1348C235.359 71.7194 236.036 71.5117 236.773 71.5117ZM242.145 77.4736C242.452 77.0368 242.922 76.4639 243.552 75.7549L247.354 71.7266H249.471L244.701 76.7432L249.804 83.5H247.645L243.487 77.9355L242.145 79.0957V83.5H240.383V66.7852H242.145V75.6475C242.145 76.0413 242.116 76.6501 242.059 77.4736H242.145ZM259.536 80.2881C259.536 81.3838 259.128 82.2288 258.312 82.8232C257.495 83.4176 256.349 83.7148 254.874 83.7148C253.313 83.7148 252.095 83.4678 251.222 82.9736V81.3193C251.787 81.6058 252.393 81.8314 253.037 81.9961C253.689 82.1608 254.315 82.2432 254.917 82.2432C255.848 82.2432 256.564 82.0964 257.065 81.8027C257.567 81.502 257.817 81.0472 257.817 80.4385C257.817 79.9801 257.617 79.5898 257.216 79.2676C256.822 78.9382 256.049 78.5514 254.896 78.1074C253.8 77.6992 253.019 77.3447 252.554 77.0439C252.095 76.736 251.752 76.3887 251.522 76.002C251.3 75.6152 251.189 75.1533 251.189 74.6162C251.189 73.6566 251.58 72.901 252.36 72.3496C253.141 71.791 254.212 71.5117 255.572 71.5117C256.84 71.5117 258.079 71.7695 259.289 72.2852L258.655 73.7354C257.474 73.2484 256.403 73.0049 255.443 73.0049C254.598 73.0049 253.961 73.1374 253.531 73.4023C253.102 73.6673 252.887 74.0326 252.887 74.498C252.887 74.8132 252.965 75.0817 253.123 75.3037C253.288 75.5257 253.549 75.737 253.907 75.9375C254.265 76.138 254.953 76.4281 255.97 76.8076C257.366 77.3161 258.308 77.8281 258.795 78.3438C259.289 78.8594 259.536 79.5075 259.536 80.2881Z" fill="#fff"/><g clip-path="url(#clip0_6735_86078)"><path d="M1049.58 80.8436H1056.43V87.6873H1049.58V80.8436Z" fill="#fff"/><path d="M1056.43 60.3127H1049.58V67.1564H1056.43V60.3127Z" fill="#fff"/><path d="M1056.43 70.5818H1049.58V77.4255H1056.43V70.5818Z" fill="#fff"/></g><path d="M989.095 72.8527H990.935C991.138 73.3255 991.604 73.58 991.815 73.58H997.727V61.4564L997 61.2164C995.698 61.2164 994.782 61.42 994.244 61.6527C994.229 62.5036 994.222 65.3909 994.927 67.5218L994.477 67.6964C994.44 67.6091 993.575 65.5873 993.175 62.6418C993.073 62.8455 993.029 62.9982 993.029 62.9982C989.575 65.0927 989.32 69.0491 989.32 69.0491C989.32 69.0491 988.797 69.6309 988.717 69.8491C988.637 70.0673 988.578 71.8418 988.578 71.8418C988.52 72.7218 989.095 72.8527 989.095 72.8527Z" fill="#fff"/><path d="M1002.19 73.5873C1002.4 73.5873 1002.87 73.3327 1003.07 72.86H1004.91C1004.91 72.86 1005.48 72.7218 1005.43 71.8491C1005.43 71.8491 1005.37 70.0818 1005.29 69.8564C1005.21 69.6382 1004.69 69.0564 1004.69 69.0564C1004.69 69.0564 1004.43 65.1073 1000.98 63.0055C1000.98 63.0055 1000.93 62.8527 1000.83 62.6491C1000.43 65.5946 999.567 67.6164 999.531 67.7036L999.08 67.5291C999.786 65.3982 999.778 62.5036 999.764 61.66C999.226 61.4273 998.309 61.2236 997.007 61.2236V73.5946H1002.19V73.5873Z" fill="#fff"/><path d="M995.902 82.8236C993.895 82.9473 992.011 78.0018 991.197 75.4855C991.124 75.3182 991.08 75.1436 991.08 75.1436L989.269 75.1509C989.786 76.9255 990.666 79.4709 991.858 81.4855L991.655 81.5873C991.197 81.8127 990.651 82.0236 990.077 82.2491C987.604 83.1946 982.746 83.7546 982.746 88.3073V89.7836H997V82.8236H995.902Z" fill="#fff"/><path d="M1011.26 88.3073C1011.26 83.7546 1006.4 83.1946 1003.93 82.2491C1003.36 82.0309 1002.81 81.82 1002.35 81.5873L1002.04 81.4273C1003.26 79.42 1004.23 76.9036 1004.74 75.1436H1002.96C1002.96 75.1436 1002.9 75.2818 1002.8 75.5291C1001.87 78.2055 999.742 82.94 998.106 82.8164H996.273V89.7764H1011.26V88.3073Z" fill="#fff"/><g clip-path="url(#clip1_6735_86078)"><path d="M937.211 89.9146C939.218 89.9146 940.84 88.2855 940.84 86.2855H933.582C933.582 88.2927 935.203 89.9146 937.211 89.9146Z" fill="#fff"/><path d="M935.225 66.7364C935.225 66.8455 935.269 66.9327 935.284 67.0345C932.331 67.8782 930.156 70.5691 930.156 73.7909V77.3545C930.156 81.2527 925.953 84.4091 925.953 84.4091H937.211V64.7436C936.113 64.7436 935.225 65.6382 935.225 66.7364Z" fill="#fff"/><path d="M944.265 77.3546V73.7909C944.265 70.5691 942.091 67.8782 939.138 67.0346C939.152 66.9327 939.196 66.8382 939.196 66.7364C939.196 65.6382 938.309 64.7509 937.211 64.7509L936.2 65.0273V84.4091H948.476C948.469 84.4091 944.265 81.2455 944.265 77.3546Z" fill="#fff"/></g><g clip-path="url(#clip2_6735_86078)"><path fill-rule="evenodd" clip-rule="evenodd" d="M875.218 68.9436C871.603 68.9436 868.323 70.4127 865.953 72.7909L864.083 70.9218C866.934 68.0709 870.876 66.3036 875.218 66.3036C879.56 66.3036 883.502 68.0709 886.353 70.9218L884.483 72.7909C882.113 70.4127 878.833 68.9436 875.218 68.9436Z" fill="#fff" fill-opacity=".3"/><path fill-rule="evenodd" clip-rule="evenodd" d="M887.56 69.7073L889.429 67.8382C885.786 64.1945 880.76 61.94 875.218 61.94C869.676 61.94 864.644 64.1945 861.007 67.8382L862.876 69.7073C866.04 66.5436 870.404 64.5873 875.218 64.5873C880.033 64.5873 884.396 66.5436 887.56 69.7073Z" fill="#fff" fill-opacity=".3"/><path fill-rule="evenodd" clip-rule="evenodd" d="M881.407 75.86L883.277 73.9909C881.211 71.9255 878.36 70.6455 875.218 70.6455C872.077 70.6455 869.226 71.9255 867.16 73.9909L869.029 75.86C870.615 74.2746 872.804 73.2927 875.218 73.2927C877.633 73.2927 879.822 74.2746 881.407 75.86Z" fill="#fff"/><path fill-rule="evenodd" clip-rule="evenodd" d="M878.331 78.9364L880.2 77.0673C878.92 75.7873 877.16 75.0018 875.218 75.0018C873.276 75.0018 871.509 75.7945 870.236 77.0673L872.105 78.9364C872.905 78.1364 874.004 77.6418 875.218 77.6418C876.433 77.6418 877.538 78.1436 878.331 78.9364Z" fill="#fff"/><path fill-rule="evenodd" clip-rule="evenodd" d="M886.971 84.1509H863.465C862.513 84.1509 861.734 84.9291 861.734 85.8818V86.1073C861.734 87.06 862.513 87.8382 863.465 87.8382H886.971C887.923 87.8382 888.702 87.06 888.702 86.1073V85.8818C888.702 84.9291 887.923 84.1509 886.971 84.1509Z" fill="#fff"/><path d="M875.218 83.0964C876.222 83.0964 877.036 82.2823 877.036 81.2782C877.036 80.274 876.222 79.46 875.218 79.46C874.214 79.46 873.4 80.274 873.4 81.2782C873.4 82.2823 874.214 83.0964 875.218 83.0964Z" fill="#fff"/></g><g clip-path="url(#clip3_6735_86078)"><path fill-rule="evenodd" clip-rule="evenodd" d="M831.589 85.8564V86.1109C831.589 87.1582 830.731 88.0164 829.683 88.0164H803.836C802.789 88.0164 801.931 87.1582 801.931 86.1109V85.8564C801.931 84.8091 802.789 83.9509 803.836 83.9509H829.691C830.731 83.9509 831.589 84.8091 831.589 85.8564Z" fill="#fff"/><path d="M807.945 79.0127H804.549V82.4091H807.945V79.0127Z" fill="#fff"/><path d="M813.167 74.9109H809.771V82.4091H813.167V74.9109Z" fill="#fff"/><path d="M818.396 70.8018H815V82.4091H818.396V70.8018Z" fill="#fff"/><path d="M823.618 66.6927H820.222V82.4091H823.618V66.6927Z" fill="#fff" fill-opacity=".3"/><path d="M828.84 62.5836H825.443V82.4091H828.84V62.5836Z" fill="#fff" fill-opacity=".3"/></g><rect width="1088" height="60" transform="translate(0 125)" fill="#000"/><path d="M38.75 157.081C38.75 157.081 38.75 157.081 38.75 162.94C38.75 168.567 30.6667 171.033 30 171.265V168.335C31.6667 168.027 32.0833 165.175 32.0833 163.942V156.85H38.5C38.6667 157.004 38.75 157.081 38.75 157.081Z" fill="#fff"/><path d="M36.0833 138.967C36.0833 138.967 36.0833 141.587 36 142.512C35.6667 144.671 34.4167 146.521 32.6667 147.369V155.54C36.5833 155.771 38 156.387 38.5 156.773H31.3333H30V145.981H30.0833C32.1667 145.981 33.6667 143.746 33.6667 141.665V140.74H30V138.735H35.8333C36 138.735 36.0833 138.89 36.0833 138.967Z" fill="#fff"/><path d="M27.9168 156.85H21.5835C22.0835 156.465 23.5002 155.848 27.4168 155.617V147.369C25.6668 146.521 24.4168 144.671 24.0835 142.512C23.9168 141.665 24.0002 138.967 24.0002 138.967C24.0002 138.812 24.1668 138.735 24.3335 138.735H30.1668V140.74H26.5002V141.742C26.5002 143.746 28.0002 146.058 30.0835 146.058H30.0002V156.927V168.412C28.3335 168.104 27.9168 165.098 27.9168 164.019V156.85Z" fill="#fff"/><path d="M21.4998 156.85H27.8332V163.942C27.8332 165.021 28.3332 168.027 29.9165 168.335V171.265C29.2498 171.11 21.1665 168.567 21.1665 162.94C21.1665 157.081 21.1665 157.081 21.1665 157.081C21.1665 157.081 21.3332 157.004 21.4998 156.85Z" fill="#fff"/><path d="M68.8838 149.202C67.1579 149.202 65.7936 149.779 64.791 150.932C63.7956 152.077 63.2979 153.649 63.2979 155.647C63.2979 157.703 63.7777 159.293 64.7373 160.417C65.7041 161.534 67.0791 162.093 68.8623 162.093C69.958 162.093 71.2077 161.896 72.6113 161.502V163.103C71.5228 163.511 70.18 163.715 68.583 163.715C66.2699 163.715 64.4831 163.013 63.2227 161.609C61.9694 160.206 61.3428 158.211 61.3428 155.626C61.3428 154.007 61.6436 152.59 62.2451 151.372C62.8538 150.155 63.7275 149.216 64.8662 148.558C66.012 147.899 67.3584 147.569 68.9053 147.569C70.5524 147.569 71.9919 147.87 73.2236 148.472L72.4502 150.04C71.2614 149.481 70.0726 149.202 68.8838 149.202ZM83.0098 163.5L82.6553 161.824H82.5693C81.9821 162.562 81.3949 163.063 80.8076 163.328C80.2275 163.586 79.5007 163.715 78.627 163.715C77.4596 163.715 76.543 163.414 75.877 162.812C75.2181 162.211 74.8887 161.355 74.8887 160.245C74.8887 157.868 76.79 156.621 80.5928 156.507L82.5908 156.442V155.712C82.5908 154.788 82.3903 154.108 81.9893 153.671C81.5954 153.227 80.9616 153.005 80.0879 153.005C79.1068 153.005 77.9967 153.306 76.7578 153.907L76.21 152.543C76.79 152.228 77.4238 151.981 78.1113 151.802C78.806 151.623 79.5007 151.533 80.1953 151.533C81.599 151.533 82.6374 151.845 83.3105 152.468C83.9909 153.091 84.3311 154.09 84.3311 155.465V163.5H83.0098ZM78.9814 162.243C80.0915 162.243 80.9616 161.939 81.5918 161.33C82.2292 160.721 82.5479 159.869 82.5479 158.773V157.71L80.7646 157.785C79.3467 157.835 78.3226 158.057 77.6924 158.451C77.0693 158.838 76.7578 159.443 76.7578 160.267C76.7578 160.911 76.9512 161.402 77.3379 161.738C77.7318 162.075 78.2796 162.243 78.9814 162.243ZM91.8184 162.243C92.1335 162.243 92.4378 162.222 92.7314 162.179C93.0251 162.129 93.2578 162.078 93.4297 162.028V163.393C93.2363 163.486 92.9499 163.561 92.5703 163.618C92.1979 163.683 91.8613 163.715 91.5605 163.715C89.2832 163.715 88.1445 162.515 88.1445 160.116V153.112H86.458V152.253L88.1445 151.512L88.8965 148.998H89.9277V151.727H93.3438V153.112H89.9277V160.041C89.9277 160.75 90.096 161.294 90.4326 161.674C90.7692 162.053 91.2311 162.243 91.8184 162.243ZM108.684 155.271H114.022V162.909C113.192 163.174 112.347 163.375 111.487 163.511C110.628 163.647 109.632 163.715 108.501 163.715C106.123 163.715 104.272 163.009 102.947 161.599C101.622 160.181 100.96 158.197 100.96 155.647C100.96 154.015 101.286 152.586 101.938 151.361C102.596 150.13 103.542 149.191 104.773 148.547C106.005 147.895 107.448 147.569 109.103 147.569C110.778 147.569 112.34 147.877 113.786 148.493L113.077 150.104C111.659 149.503 110.295 149.202 108.984 149.202C107.072 149.202 105.579 149.771 104.505 150.91C103.431 152.049 102.894 153.628 102.894 155.647C102.894 157.767 103.409 159.375 104.44 160.471C105.479 161.566 107.001 162.114 109.006 162.114C110.094 162.114 111.158 161.989 112.196 161.738V156.904H108.684V155.271ZM122.906 151.512C123.429 151.512 123.898 151.555 124.313 151.641L124.066 153.295C123.579 153.188 123.15 153.134 122.777 153.134C121.825 153.134 121.008 153.521 120.328 154.294C119.655 155.067 119.318 156.031 119.318 157.184V163.5H117.535V151.727H119.007L119.211 153.907H119.297C119.734 153.141 120.26 152.55 120.876 152.135C121.492 151.719 122.169 151.512 122.906 151.512ZM133.756 163.5L133.401 161.824H133.315C132.728 162.562 132.141 163.063 131.554 163.328C130.974 163.586 130.247 163.715 129.373 163.715C128.206 163.715 127.289 163.414 126.623 162.812C125.964 162.211 125.635 161.355 125.635 160.245C125.635 157.868 127.536 156.621 131.339 156.507L133.337 156.442V155.712C133.337 154.788 133.136 154.108 132.735 153.671C132.341 153.227 131.708 153.005 130.834 153.005C129.853 153.005 128.743 153.306 127.504 153.907L126.956 152.543C127.536 152.228 128.17 151.981 128.857 151.802C129.552 151.623 130.247 151.533 130.941 151.533C132.345 151.533 133.383 151.845 134.057 152.468C134.737 153.091 135.077 154.09 135.077 155.465V163.5H133.756ZM129.728 162.243C130.838 162.243 131.708 161.939 132.338 161.33C132.975 160.721 133.294 159.869 133.294 158.773V157.71L131.511 157.785C130.093 157.835 129.069 158.057 128.438 158.451C127.815 158.838 127.504 159.443 127.504 160.267C127.504 160.911 127.697 161.402 128.084 161.738C128.478 162.075 129.026 162.243 129.728 162.243ZM146.775 161.921H146.679C145.855 163.117 144.623 163.715 142.983 163.715C141.444 163.715 140.244 163.188 139.385 162.136C138.533 161.083 138.106 159.586 138.106 157.646C138.106 155.705 138.536 154.197 139.396 153.123C140.255 152.049 141.451 151.512 142.983 151.512C144.58 151.512 145.805 152.092 146.657 153.252H146.797L146.722 152.403L146.679 151.576V146.785H148.462V163.5H147.012L146.775 161.921ZM143.209 162.222C144.426 162.222 145.307 161.892 145.852 161.233C146.403 160.567 146.679 159.497 146.679 158.021V157.646C146.679 155.977 146.399 154.788 145.841 154.079C145.289 153.363 144.405 153.005 143.188 153.005C142.142 153.005 141.34 153.413 140.781 154.229C140.23 155.039 139.954 156.185 139.954 157.667C139.954 159.171 140.23 160.306 140.781 161.072C141.333 161.839 142.142 162.222 143.209 162.222ZM157.228 163.715C155.487 163.715 154.112 163.185 153.103 162.125C152.1 161.065 151.599 159.593 151.599 157.71C151.599 155.812 152.064 154.305 152.995 153.188C153.933 152.07 155.19 151.512 156.766 151.512C158.241 151.512 159.408 151.999 160.268 152.973C161.127 153.939 161.557 155.218 161.557 156.808V157.936H153.446C153.482 159.318 153.829 160.367 154.488 161.083C155.154 161.799 156.089 162.157 157.292 162.157C158.56 162.157 159.813 161.892 161.052 161.362V162.952C160.422 163.224 159.824 163.418 159.258 163.532C158.699 163.654 158.022 163.715 157.228 163.715ZM156.744 153.005C155.799 153.005 155.043 153.313 154.478 153.929C153.919 154.545 153.59 155.397 153.489 156.485H159.645C159.645 155.361 159.394 154.502 158.893 153.907C158.391 153.306 157.675 153.005 156.744 153.005Z" fill="#fff"/><g clip-path="url(#clip4_6735_86078)"><path d="M1049.58 160.844H1056.43V167.687H1049.58V160.844Z" fill="#fff"/><path d="M1056.43 140.313H1049.58V147.156H1056.43V140.313Z" fill="#fff"/><path d="M1056.43 150.582H1049.58V157.425H1056.43V150.582Z" fill="#fff"/></g><path d="M989.095 152.853H990.935C991.138 153.325 991.604 153.58 991.815 153.58H997.727V141.456L997 141.216C995.698 141.216 994.782 141.42 994.244 141.653C994.229 142.504 994.222 145.391 994.927 147.522L994.477 147.696C994.44 147.609 993.575 145.587 993.175 142.642C993.073 142.845 993.029 142.998 993.029 142.998C989.575 145.093 989.32 149.049 989.32 149.049C989.32 149.049 988.797 149.631 988.717 149.849C988.637 150.067 988.578 151.842 988.578 151.842C988.52 152.722 989.095 152.853 989.095 152.853Z" fill="#fff"/><path d="M1002.19 153.587C1002.4 153.587 1002.87 153.333 1003.07 152.86H1004.91C1004.91 152.86 1005.48 152.722 1005.43 151.849C1005.43 151.849 1005.37 150.082 1005.29 149.856C1005.21 149.638 1004.69 149.056 1004.69 149.056C1004.69 149.056 1004.43 145.107 1000.98 143.005C1000.98 143.005 1000.93 142.853 1000.83 142.649C1000.43 145.595 999.567 147.616 999.531 147.704L999.08 147.529C999.786 145.398 999.778 142.504 999.764 141.66C999.226 141.427 998.309 141.224 997.007 141.224V153.595H1002.19V153.587Z" fill="#fff"/><path d="M995.902 162.824C993.895 162.947 992.011 158.002 991.197 155.485C991.124 155.318 991.08 155.144 991.08 155.144L989.269 155.151C989.786 156.925 990.666 159.471 991.858 161.485L991.655 161.587C991.197 161.813 990.651 162.024 990.077 162.249C987.604 163.195 982.746 163.755 982.746 168.307V169.784H997V162.824H995.902Z" fill="#fff"/><path d="M1011.26 168.307C1011.26 163.755 1006.4 163.195 1003.93 162.249C1003.36 162.031 1002.81 161.82 1002.35 161.587L1002.04 161.427C1003.26 159.42 1004.23 156.904 1004.74 155.144H1002.96C1002.96 155.144 1002.9 155.282 1002.8 155.529C1001.87 158.205 999.742 162.94 998.106 162.816H996.273V169.776H1011.26V168.307Z" fill="#fff"/><g clip-path="url(#clip5_6735_86078)"><path d="M937.211 169.915C939.218 169.915 940.84 168.285 940.84 166.285H933.582C933.582 168.293 935.203 169.915 937.211 169.915Z" fill="#fff"/><path d="M935.225 146.736C935.225 146.845 935.269 146.933 935.284 147.035C932.331 147.878 930.156 150.569 930.156 153.791V157.355C930.156 161.253 925.953 164.409 925.953 164.409H937.211V144.744C936.113 144.744 935.225 145.638 935.225 146.736Z" fill="#fff"/><path d="M944.265 157.355V153.791C944.265 150.569 942.091 147.878 939.138 147.035C939.152 146.933 939.196 146.838 939.196 146.736C939.196 145.638 938.309 144.751 937.211 144.751L936.2 145.027V164.409H948.476C948.469 164.409 944.265 161.245 944.265 157.355Z" fill="#fff"/></g><g clip-path="url(#clip6_6735_86078)"><path fill-rule="evenodd" clip-rule="evenodd" d="M875.218 148.944C871.603 148.944 868.323 150.413 865.953 152.791L864.083 150.922C866.934 148.071 870.876 146.304 875.218 146.304C879.56 146.304 883.502 148.071 886.353 150.922L884.483 152.791C882.113 150.413 878.833 148.944 875.218 148.944Z" fill="#fff" fill-opacity=".3"/><path fill-rule="evenodd" clip-rule="evenodd" d="M887.56 149.707L889.429 147.838C885.786 144.195 880.76 141.94 875.218 141.94C869.676 141.94 864.644 144.195 861.007 147.838L862.876 149.707C866.04 146.544 870.404 144.587 875.218 144.587C880.033 144.587 884.396 146.544 887.56 149.707Z" fill="#fff" fill-opacity=".3"/><path fill-rule="evenodd" clip-rule="evenodd" d="M881.407 155.86L883.277 153.991C881.211 151.925 878.36 150.645 875.218 150.645C872.077 150.645 869.226 151.925 867.16 153.991L869.029 155.86C870.615 154.275 872.804 153.293 875.218 153.293C877.633 153.293 879.822 154.275 881.407 155.86Z" fill="#fff"/><path fill-rule="evenodd" clip-rule="evenodd" d="M878.331 158.936L880.2 157.067C878.92 155.787 877.16 155.002 875.218 155.002C873.276 155.002 871.509 155.795 870.236 157.067L872.105 158.936C872.905 158.136 874.004 157.642 875.218 157.642C876.433 157.642 877.538 158.144 878.331 158.936Z" fill="#fff"/><path fill-rule="evenodd" clip-rule="evenodd" d="M886.971 164.151H863.465C862.513 164.151 861.734 164.929 861.734 165.882V166.107C861.734 167.06 862.513 167.838 863.465 167.838H886.971C887.923 167.838 888.702 167.06 888.702 166.107V165.882C888.702 164.929 887.923 164.151 886.971 164.151Z" fill="#fff"/><path d="M875.218 163.096C876.222 163.096 877.036 162.282 877.036 161.278C877.036 160.274 876.222 159.46 875.218 159.46C874.214 159.46 873.4 160.274 873.4 161.278C873.4 162.282 874.214 163.096 875.218 163.096Z" fill="#fff"/></g><g clip-path="url(#clip7_6735_86078)"><path fill-rule="evenodd" clip-rule="evenodd" d="M831.589 165.856V166.111C831.589 167.158 830.731 168.016 829.683 168.016H803.836C802.789 168.016 801.931 167.158 801.931 166.111V165.856C801.931 164.809 802.789 163.951 803.836 163.951H829.691C830.731 163.951 831.589 164.809 831.589 165.856Z" fill="#fff"/><path d="M807.945 159.013H804.549V162.409H807.945V159.013Z" fill="#fff"/><path d="M813.167 154.911H809.771V162.409H813.167V154.911Z" fill="#fff"/><path d="M818.396 150.802H815V162.409H818.396V150.802Z" fill="#fff"/><path d="M823.618 146.693H820.222V162.409H823.618V146.693Z" fill="#fff" fill-opacity=".3"/><path d="M828.84 142.584H825.443V162.409H828.84V142.584Z" fill="#fff" fill-opacity=".3"/></g><defs><clipPath id="clip0_6735_86078"><rect width="8" height="28" fill="#fff" transform="translate(1049 60)"/></clipPath><clipPath id="clip1_6735_86078"><rect width="23" height="26" fill="#fff" transform="translate(926 64.5)"/></clipPath><clipPath id="clip2_6735_86078"><rect width="29" height="27" fill="#fff" transform="translate(861 61.5)"/></clipPath><clipPath id="clip3_6735_86078"><rect width="31" height="26" fill="#fff" transform="translate(801 62.5)"/></clipPath><clipPath id="clip4_6735_86078"><rect width="8" height="28" fill="#fff" transform="translate(1049 140)"/></clipPath><clipPath id="clip5_6735_86078"><rect width="23" height="26" fill="#fff" transform="translate(926 144.5)"/></clipPath><clipPath id="clip6_6735_86078"><rect width="29" height="27" fill="#fff" transform="translate(861 141.5)"/></clipPath><clipPath id="clip7_6735_86078"><rect width="31" height="26" fill="#fff" transform="translate(801 142.5)"/></clipPath></defs></svg>