<svg width="1087" height="388" fill="none" xmlns="http://www.w3.org/2000/svg"><path fill="#353A40" d="M0 0h1087v388H0z"/><g clip-path="url(#prefix__clip0_6901_95596)"><path fill="#252A2E" d="M256.25 31.468h574.5v325.064h-574.5z"/><g clip-path="url(#prefix__clip1_6901_95596)"><path fill="#fff" d="M256.25 31.468h574.5v37.064h-574.5z"/><path fill="#0E416C" d="M256.25 31.468h574.5v37.064h-574.5z"/><g clip-path="url(#prefix__clip2_6901_95596)"><path d="M268.854 54.449h11.942v-1.327h-11.942v1.327zm0-3.317h11.942v-1.327h-11.942v1.327zm0-4.644v1.327h11.942v-1.327h-11.942z" fill="#fff"/></g><path d="M300.312 44.76a2 2 0 00-.768.152.463.463 0 01-.355-.855 2.93 2.93 0 011.123-.223h.925a.463.463 0 110 .926h-.925zM302.626 44.297c0-.255.207-.463.463-.463h1.851a.463.463 0 110 .926h-1.851a.463.463 0 01-.463-.463zM306.328 44.297c0-.255.208-.463.463-.463h.926c.397 0 .776.08 1.122.223a.463.463 0 01-.354.855 2 2 0 00-.768-.152h-.926a.463.463 0 01-.463-.463zM298.208 45.393a.463.463 0 01.25.605 1.994 1.994 0 00-.152.768v.925a.463.463 0 11-.926 0v-.925c0-.397.079-.776.223-1.123a.463.463 0 01.605-.25zM309.821 45.393a.463.463 0 01.605.25c.143.347.222.726.222 1.123v.925a.463.463 0 11-.925 0v-.925c0-.273-.055-.532-.152-.768a.463.463 0 01.25-.605zM297.843 49.08c.256 0 .463.207.463.463v1.85a.463.463 0 11-.926 0v-1.85c0-.256.208-.463.463-.463zM310.185 49.08c.256 0 .463.207.463.463v1.85a.463.463 0 11-.925 0v-1.85c0-.256.207-.463.462-.463zM297.843 52.782c.256 0 .463.208.463.463v.926c0 .273.054.532.152.767a.463.463 0 11-.855.355 2.916 2.916 0 01-.223-1.122v-.926c0-.255.208-.463.463-.463zM310.185 52.782c.256 0 .463.208.463.463v.926c0 .397-.079.776-.222 1.122a.463.463 0 01-.855-.355c.097-.235.152-.494.152-.767v-.926c0-.255.207-.463.462-.463zM298.939 56.275a.463.463 0 01.605-.25 2 2 0 00.768.152h.925a.463.463 0 110 .925h-.925a2.93 2.93 0 01-1.123-.222.463.463 0 01-.25-.605zM309.089 56.275a.463.463 0 01-.25.605 2.92 2.92 0 01-1.122.222h-.926a.463.463 0 010-.925h.926a2 2 0 00.768-.152.462.462 0 01.604.25zM302.626 56.64c0-.256.207-.463.463-.463h1.851a.463.463 0 110 .925h-1.851a.463.463 0 01-.463-.463zM309.278 45.896a.462.462 0 10-.654-.654l-.615.614a.462.462 0 10.655.655l.614-.615zM307.434 47.74a.462.462 0 10-.654-.654l-1.23 1.23a.462.462 0 10.655.654l1.229-1.23zM304.975 50.2a.462.462 0 10-.654-.655l-.307.306-.306-.306a.462.462 0 10-.654.654l.306.307-.269.269a.462.462 0 10.655.654l.268-.269.269.269a.463.463 0 00.655-.654l-.269-.27.306-.306zM302.516 52.659a.462.462 0 10-.655-.655l-1.229 1.23a.462.462 0 10.654.654l1.23-1.23zM300.057 55.118a.462.462 0 10-.655-.655l-.614.615a.462.462 0 10.654.654l.615-.614zM308.587 55.732a.462.462 0 10.654-.654l-.615-.615a.462.462 0 10-.654.655l.615.614zM306.742 53.888a.463.463 0 00.655-.654l-1.23-1.23a.462.462 0 10-.654.655l1.229 1.23zM301.824 48.97a.463.463 0 00.655-.655l-1.23-1.23a.463.463 0 00-.655.655l1.23 1.23zM299.365 46.51a.462.462 0 10.654-.654l-.614-.614a.463.463 0 00-.655.654l.615.615zM302.198 47.314c.183-.056.379-.086.582-.086h.463a.463.463 0 100-.925h-.463c-.295 0-.581.044-.851.125a.463.463 0 10.269.886zM304.786 46.303a.463.463 0 100 .925h.463c.203 0 .398.03.582.086a.462.462 0 10.269-.886 2.935 2.935 0 00-.851-.125h-.463zM300.86 48.651a.463.463 0 10-.886-.268c-.081.27-.125.556-.125.851v.463a.463.463 0 10.925 0v-.463c0-.203.031-.399.086-.583zM308.054 48.383a.462.462 0 10-.886.268c.056.184.086.38.086.583v.463a.463.463 0 10.926 0v-.463c0-.295-.044-.581-.126-.851zM300.774 51.24a.463.463 0 10-.925 0v.462c0 .296.044.582.125.852a.464.464 0 00.886-.269 2.03 2.03 0 01-.086-.582v-.463zM308.18 51.24a.463.463 0 10-.926 0v.462c0 .204-.03.4-.086.583a.463.463 0 00.886.269c.082-.27.126-.556.126-.852v-.462zM302.198 53.622a.464.464 0 00-.269.886c.27.082.556.126.851.126h.463a.463.463 0 100-.926h-.463c-.203 0-.399-.03-.582-.086zM306.1 54.508a.463.463 0 00-.269-.886 2.004 2.004 0 01-.582.086h-.463a.463.463 0 100 .926h.463c.295 0 .581-.044.851-.126z" fill="#fff"/></g><path fill="#6A6E79" d="M266.864 79.147h553.271v132.016H266.864z"/><path fill="#fff" d="M267.528 79.81h551.945v43.121H267.528z"/><path d="M279.574 106.871V96.452h1.212v9.321h4.596v1.098h-5.808zm8.754 0h-1.183v-7.81h1.183v7.81zm-1.283-9.927c0-.271.066-.468.199-.592a.691.691 0 01.499-.192c.19 0 .354.064.492.192.138.129.207.326.207.592 0 .266-.069.465-.207.598a.698.698 0 01-.492.193.691.691 0 01-.499-.193c-.133-.133-.199-.332-.199-.598zm8.995 7.796c0 .727-.271 1.287-.812 1.682-.542.394-1.302.591-2.281.591-1.035 0-1.843-.164-2.423-.491v-1.098c.376.19.777.34 1.205.449.432.109.848.164 1.247.164.617 0 1.093-.097 1.425-.292.333-.2.499-.501.499-.905 0-.304-.133-.563-.399-.777-.261-.219-.775-.475-1.539-.77-.727-.27-1.245-.506-1.554-.705a2.2 2.2 0 01-.684-.691 1.821 1.821 0 01-.221-.92c0-.636.259-1.138.777-1.503.518-.371 1.228-.556 2.131-.556.84 0 1.662.17 2.465.513l-.42.962c-.784-.323-1.494-.485-2.131-.485-.561 0-.983.088-1.268.264-.286.176-.428.418-.428.727 0 .209.052.387.157.534.109.148.282.288.52.421.238.133.694.325 1.368.577.927.337 1.551.677 1.874 1.019.328.342.492.772.492 1.29zm4.62 1.297c.209 0 .411-.014.606-.043.194-.033.349-.066.463-.1v.905a2.08 2.08 0 01-.57.15 3.943 3.943 0 01-.67.064c-1.511 0-2.266-.796-2.266-2.387V99.98h-1.119v-.57l1.119-.492.499-1.668h.684v1.81h2.266v.92h-2.266v4.596c0 .47.111.831.335 1.083.223.252.529.378.919.378zm6.938.834V96.452h1.211v10.419h-1.211zm6.586-.834c.209 0 .411-.014.606-.043.195-.033.349-.066.463-.1v.905a2.08 2.08 0 01-.57.15c-.247.043-.47.064-.67.064-1.51 0-2.266-.796-2.266-2.387V99.98h-1.119v-.57l1.119-.492.499-1.668h.684v1.81h2.266v.92h-2.266v4.596c0 .47.112.831.335 1.083.223.252.53.378.919.378zm6.102.976c-1.154 0-2.066-.351-2.736-1.054-.665-.704-.998-1.68-.998-2.929 0-1.259.309-2.259.927-3.001.622-.74 1.456-1.111 2.501-1.111.979 0 1.753.323 2.323.969.57.641.855 1.489.855 2.544v.748h-5.38c.024.917.254 1.613.691 2.088.442.475 1.062.713 1.86.713.841 0 1.673-.176 2.494-.527v1.054a6 6 0 01-1.19.385c-.37.081-.819.121-1.347.121zm-.32-7.105c-.627 0-1.129.205-1.504.613-.37.409-.589.974-.656 1.696h4.084c0-.746-.166-1.316-.499-1.71-.333-.399-.808-.599-1.425-.599zm15.338 6.963v-5.081c0-.623-.133-1.088-.4-1.397-.266-.314-.679-.47-1.24-.47-.736 0-1.28.211-1.631.634-.352.423-.528 1.074-.528 1.952v4.362h-1.183v-5.081c0-.623-.133-1.088-.399-1.397-.266-.314-.682-.47-1.247-.47-.741 0-1.285.223-1.632.669-.342.442-.513 1.169-.513 2.181v4.098h-1.183v-7.81h.962l.193 1.068h.057c.223-.38.536-.677.94-.89.409-.214.865-.321 1.368-.321 1.221 0 2.02.442 2.395 1.325h.057c.233-.408.57-.731 1.012-.969.442-.237.945-.356 1.511-.356.883 0 1.544.228 1.981.684.442.451.663 1.176.663 2.173v5.096h-1.183z" fill="#252A2E"/><g clip-path="url(#prefix__clip3_6901_95596)"><path fill-rule="evenodd" clip-rule="evenodd" d="M789.141 93.41h12.899c1.013 0 1.843.796 1.843 1.77v12.382c0 .973-.83 1.769-1.843 1.769h-12.899c-1.014 0-1.843-.796-1.843-1.769V95.179c0-.973.829-1.769 1.843-1.769zm12.899 14.152V95.179h-12.899v12.383h12.899z" fill="#90939F"/></g><path fill="#464B52" d="M267.528 123.594h551.945v43.121H267.528z"/><path d="M279.574 150.54v-10.418h1.212v9.321h4.596v1.097h-5.808zm8.754 0h-1.183v-7.81h1.183v7.81zm-1.283-9.926c0-.271.066-.468.199-.592a.692.692 0 01.499-.192c.19 0 .354.064.492.192s.207.325.207.592c0 .266-.069.465-.207.598a.7.7 0 01-.492.193.693.693 0 01-.499-.193c-.133-.133-.199-.332-.199-.598zm8.995 7.796c0 .727-.271 1.287-.812 1.682-.542.394-1.302.591-2.281.591-1.035 0-1.843-.164-2.423-.492v-1.097c.376.19.777.34 1.205.449.432.109.848.164 1.247.164.617 0 1.093-.098 1.425-.292.333-.2.499-.502.499-.906 0-.304-.133-.563-.399-.776-.261-.219-.775-.475-1.539-.77-.727-.271-1.245-.506-1.554-.705a2.202 2.202 0 01-.684-.692 1.818 1.818 0 01-.221-.919c0-.637.259-1.138.777-1.504.518-.37 1.228-.555 2.131-.555.84 0 1.662.171 2.465.513l-.42.962c-.784-.323-1.494-.485-2.131-.485-.561 0-.983.088-1.268.264-.286.176-.428.418-.428.727 0 .209.052.387.157.534.109.147.282.288.52.421.238.133.694.325 1.368.577.927.337 1.551.677 1.874 1.019.328.342.492.772.492 1.29zm4.62 1.297c.209 0 .411-.015.606-.043.194-.033.349-.067.463-.1v.905a2.08 2.08 0 01-.57.15 3.943 3.943 0 01-.67.064c-1.511 0-2.266-.796-2.266-2.387v-4.647h-1.119v-.57l1.119-.491.499-1.668h.684v1.81h2.266v.919h-2.266v4.597c0 .47.111.831.335 1.083.223.252.529.378.919.378zm6.938.833v-10.418h1.211v10.418h-1.211zm6.586-.833c.209 0 .411-.015.606-.043.195-.033.349-.067.463-.1v.905a2.08 2.08 0 01-.57.15c-.247.043-.47.064-.67.064-1.51 0-2.266-.796-2.266-2.387v-4.647h-1.119v-.57l1.119-.491.499-1.668h.684v1.81h2.266v.919h-2.266v4.597c0 .47.112.831.335 1.083.223.252.53.378.919.378zm6.102.976c-1.154 0-2.066-.352-2.736-1.055-.665-.703-.998-1.679-.998-2.929 0-1.259.309-2.259.927-3 .622-.741 1.456-1.111 2.501-1.111.979 0 1.753.323 2.323.969.57.641.855 1.489.855 2.544v.748h-5.38c.024.917.254 1.613.691 2.088.442.475 1.062.713 1.86.713a6.28 6.28 0 002.494-.528v1.055a6 6 0 01-1.19.385c-.37.081-.819.121-1.347.121zm-.32-7.105c-.627 0-1.129.204-1.504.613-.37.408-.589.974-.656 1.696h4.084c0-.746-.166-1.316-.499-1.71-.333-.399-.808-.599-1.425-.599zm15.338 6.962v-5.081c0-.622-.133-1.088-.4-1.396-.266-.314-.679-.471-1.24-.471-.736 0-1.28.212-1.631.635-.352.422-.528 1.073-.528 1.952v4.361h-1.183v-5.081c0-.622-.133-1.088-.399-1.396-.266-.314-.682-.471-1.247-.471-.741 0-1.285.224-1.632.67-.342.442-.513 1.169-.513 2.181v4.097h-1.183v-7.81h.962l.193 1.069h.057c.223-.38.536-.677.94-.891.409-.214.865-.32 1.368-.32 1.221 0 2.02.441 2.395 1.325h.057c.233-.409.57-.732 1.012-.969.442-.238.945-.356 1.511-.356.883 0 1.544.228 1.981.684.442.451.663 1.175.663 2.173v5.095h-1.183z" fill="#fff"/><g clip-path="url(#prefix__clip4_6901_95596)"><path fill-rule="evenodd" clip-rule="evenodd" d="M789.141 137.194h12.899c1.013 0 1.843.796 1.843 1.769v12.383c0 .973-.83 1.77-1.843 1.77h-12.899c-1.014 0-1.843-.797-1.843-1.77v-12.383c0-.973.829-1.769 1.843-1.769zm12.899 14.152v-12.383h-12.899v12.383h12.899z" fill="#90939F"/></g><path fill="#464B52" d="M267.528 167.379h551.945V210.5H267.528z"/><path d="M279.574 194.325v-10.419h1.212v9.321h4.596v1.098h-5.808zm8.754 0h-1.183v-7.811h1.183v7.811zm-1.283-9.927c0-.271.066-.468.199-.592a.692.692 0 01.499-.192c.19 0 .354.064.492.192s.207.326.207.592c0 .266-.069.465-.207.598a.7.7 0 01-.492.193.693.693 0 01-.499-.193c-.133-.133-.199-.332-.199-.598zm8.995 7.796c0 .727-.271 1.287-.812 1.682-.542.394-1.302.591-2.281.591-1.035 0-1.843-.164-2.423-.492v-1.097c.376.19.777.34 1.205.449.432.109.848.164 1.247.164.617 0 1.093-.098 1.425-.292.333-.2.499-.502.499-.905 0-.305-.133-.563-.399-.777-.261-.219-.775-.475-1.539-.77-.727-.271-1.245-.506-1.554-.705a2.202 2.202 0 01-.684-.692 1.818 1.818 0 01-.221-.919c0-.637.259-1.138.777-1.504.518-.37 1.228-.555 2.131-.555.84 0 1.662.171 2.465.513l-.42.962c-.784-.323-1.494-.485-2.131-.485-.561 0-.983.088-1.268.264-.286.176-.428.418-.428.727 0 .209.052.387.157.534.109.147.282.288.52.421.238.133.694.325 1.368.577.927.337 1.551.677 1.874 1.019.328.342.492.772.492 1.29zm4.62 1.297c.209 0 .411-.015.606-.043.194-.033.349-.067.463-.1v.905a2.08 2.08 0 01-.57.15 3.943 3.943 0 01-.67.064c-1.511 0-2.266-.796-2.266-2.387v-4.647h-1.119v-.57l1.119-.491.499-1.668h.684v1.81h2.266v.919h-2.266v4.597c0 .47.111.831.335 1.083.223.252.529.378.919.378zm6.938.834v-10.419h1.211v10.419h-1.211zm6.586-.834c.209 0 .411-.015.606-.043.195-.033.349-.067.463-.1v.905a2.08 2.08 0 01-.57.15c-.247.043-.47.064-.67.064-1.51 0-2.266-.796-2.266-2.387v-4.647h-1.119v-.57l1.119-.491.499-1.668h.684v1.81h2.266v.919h-2.266v4.597c0 .47.112.831.335 1.083.223.252.53.378.919.378zm6.102.976c-1.154 0-2.066-.352-2.736-1.055-.665-.703-.998-1.679-.998-2.929 0-1.259.309-2.259.927-3 .622-.741 1.456-1.111 2.501-1.111.979 0 1.753.323 2.323.969.57.641.855 1.489.855 2.544v.748h-5.38c.024.917.254 1.613.691 2.088.442.475 1.062.713 1.86.713a6.28 6.28 0 002.494-.528v1.055a6 6 0 01-1.19.385c-.37.081-.819.121-1.347.121zm-.32-7.105c-.627 0-1.129.204-1.504.613-.37.409-.589.974-.656 1.696h4.084c0-.746-.166-1.316-.499-1.71-.333-.399-.808-.599-1.425-.599zm15.338 6.963v-5.082c0-.622-.133-1.087-.4-1.396-.266-.314-.679-.471-1.24-.471-.736 0-1.28.212-1.631.635-.352.422-.528 1.073-.528 1.952v4.362h-1.183v-5.082c0-.622-.133-1.087-.399-1.396-.266-.314-.682-.471-1.247-.471-.741 0-1.285.224-1.632.67-.342.442-.513 1.169-.513 2.181v4.098h-1.183v-7.811h.962l.193 1.069h.057c.223-.38.536-.677.94-.891.409-.214.865-.32 1.368-.32 1.221 0 2.02.441 2.395 1.325h.057c.233-.409.57-.732 1.012-.969.442-.238.945-.356 1.511-.356.883 0 1.544.228 1.981.684.442.451.663 1.176.663 2.173v5.096h-1.183z" fill="#fff"/><g clip-path="url(#prefix__clip5_6901_95596)"><path fill-rule="evenodd" clip-rule="evenodd" d="M789.141 180.978h12.899c1.013 0 1.843.796 1.843 1.769v12.384c0 .973-.83 1.769-1.843 1.769h-12.899c-1.014 0-1.843-.796-1.843-1.769v-12.384c0-.973.829-1.769 1.843-1.769zm12.899 14.153v-12.384h-12.899v12.384h12.899z" fill="#90939F"/></g><g filter="url(#prefix__filter0_d_6901_95596)"><rect x="263" y="74" width="563" height="54.97" rx="4.149" fill="#000" shape-rendering="crispEdges"/><g clip-path="url(#prefix__clip6_6901_95596)"><path d="M287.313 89.143a12.317 12.317 0 0112.342 12.342 12.316 12.316 0 01-12.342 12.342c-6.837 0-12.403-5.505-12.403-12.342 0-6.837 5.566-12.342 12.403-12.342zm0-2.118c-8.047 0-14.521 6.474-14.521 14.46 0 7.986 6.474 14.46 14.46 14.46 7.986 0 14.521-6.474 14.521-14.46 0-7.986-6.474-14.46-14.46-14.46z" fill="#00CC2A"/><path d="M293.544 98.762l-1.452-1.512-6.655 6.594-2.662-2.662-1.512 1.452 4.174 4.175 1.513-1.452 6.594-6.595z" fill="#fff"/></g><path d="M317.602 104.312c0 .869-.313 1.554-.941 2.054-.623.5-1.492.75-2.607.75-1.027 0-1.936-.193-2.726-.579v-1.896c.65.29 1.199.494 1.646.612.452.119.865.178 1.238.178.448 0 .79-.086 1.027-.257.241-.171.362-.425.362-.763a.832.832 0 00-.158-.501 1.723 1.723 0 00-.467-.428c-.202-.136-.617-.353-1.245-.651-.588-.277-1.029-.542-1.323-.797a2.987 2.987 0 01-.704-.889c-.176-.338-.264-.733-.264-1.185 0-.851.288-1.52.863-2.008.579-.487 1.378-.73 2.396-.73.5 0 .977.059 1.429.177.456.119.932.285 1.428.5l-.658 1.587a9.576 9.576 0 00-1.277-.441 4.07 4.07 0 00-.988-.125c-.386 0-.682.09-.889.27a.89.89 0 00-.309.704c0 .18.042.338.125.474.084.132.215.261.395.389.185.123.617.346 1.297.671.9.43 1.517.863 1.85 1.297.334.43.5.959.5 1.587zm6.879 2.673l-.27-.942h-.105c-.215.343-.52.608-.915.797a3.162 3.162 0 01-1.35.276c-.865 0-1.516-.23-1.955-.691-.439-.465-.659-1.132-.659-2.001v-4.8h2.008v4.299c0 .532.095.931.283 1.199.189.263.49.395.902.395.562 0 .968-.187 1.218-.56.251-.377.376-1.001.376-1.87v-3.463h2.008v7.361h-1.541zm6.714.131c-2.291 0-3.437-1.257-3.437-3.772 0-1.251.312-2.205.935-2.864.624-.663 1.517-.994 2.68-.994.851 0 1.615.167 2.291.5l-.593 1.554a9.453 9.453 0 00-.882-.309 2.751 2.751 0 00-.816-.125c-1.045 0-1.567.741-1.567 2.225 0 1.44.522 2.159 1.567 2.159.386 0 .744-.05 1.073-.151.329-.105.658-.268.987-.487v1.718a3.232 3.232 0 01-.987.428c-.329.079-.746.118-1.251.118zm7.017 0c-2.291 0-3.437-1.257-3.437-3.772 0-1.251.312-2.205.935-2.864.623-.663 1.517-.994 2.68-.994.851 0 1.615.167 2.291.5l-.593 1.554a9.453 9.453 0 00-.882-.309 2.751 2.751 0 00-.816-.125c-1.045 0-1.567.741-1.567 2.225 0 1.44.522 2.159 1.567 2.159.386 0 .744-.05 1.073-.151.329-.105.658-.268.987-.487v1.718a3.232 3.232 0 01-.987.428c-.329.079-.746.118-1.251.118zm7.076-6.201c-.426 0-.759.136-1.001.408-.241.268-.379.65-.414 1.145h2.817c-.008-.495-.138-.877-.388-1.145-.25-.272-.588-.408-1.014-.408zm.283 6.201c-1.185 0-2.111-.327-2.778-.98-.667-.654-1.001-1.581-1.001-2.779 0-1.233.307-2.185.922-2.857.619-.676 1.472-1.014 2.561-1.014 1.04 0 1.85.296 2.429.889.58.592.869 1.411.869 2.456v.974h-4.747c.022.571.191 1.016.507 1.336.316.321.76.481 1.33.481a5.53 5.53 0 001.258-.138 6.266 6.266 0 001.237-.441v1.553a4.62 4.62 0 01-1.125.389c-.4.088-.887.131-1.462.131zm9.848-2.317c0 .755-.263 1.33-.79 1.725-.522.395-1.306.592-2.35.592-.536 0-.992-.037-1.37-.111a5.121 5.121 0 01-1.06-.316v-1.66a7.01 7.01 0 001.258.442c.469.118.882.177 1.237.177.729 0 1.093-.21 1.093-.632a.516.516 0 00-.145-.382c-.096-.1-.263-.212-.5-.335a11.18 11.18 0 00-.948-.441c-.566-.237-.983-.457-1.251-.659a1.907 1.907 0 01-.579-.691c-.119-.263-.178-.586-.178-.968 0-.654.252-1.158.757-1.514.509-.36 1.229-.54 2.16-.54.886 0 1.749.193 2.587.579l-.606 1.449a11.242 11.242 0 00-1.033-.389 3.25 3.25 0 00-.981-.151c-.593 0-.889.16-.889.481 0 .18.094.335.283.467.193.132.612.327 1.257.586.575.233.997.45 1.264.652.268.202.466.434.593.698.127.263.191.577.191.941zm6.78 0c0 .755-.264 1.33-.79 1.725-.523.395-1.306.592-2.351.592-.535 0-.992-.037-1.369-.111a5.121 5.121 0 01-1.06-.316v-1.66c.373.176.792.323 1.257.442.47.118.883.177 1.238.177.729 0 1.093-.21 1.093-.632a.516.516 0 00-.145-.382c-.096-.1-.263-.212-.5-.335a11.18 11.18 0 00-.948-.441c-.566-.237-.983-.457-1.251-.659a1.907 1.907 0 01-.579-.691c-.119-.263-.178-.586-.178-.968 0-.654.252-1.158.757-1.514.509-.36 1.229-.54 2.159-.54.887 0 1.749.193 2.588.579l-.606 1.449a11.147 11.147 0 00-1.034-.389 3.24 3.24 0 00-.981-.151c-.592 0-.888.16-.888.481 0 .18.094.335.283.467.193.132.612.327 1.257.586.575.233.997.45 1.264.652.268.202.465.434.593.698.127.263.191.577.191.941zm13.921 2.186h-2.593l-4.188-7.282h-.059c.084 1.286.125 2.204.125 2.752v4.53h-1.823V97.36h2.574l4.18 7.209h.046a59.358 59.358 0 01-.098-2.654V97.36h1.836v9.625zm3.949-3.694c0 .729.119 1.28.356 1.653.241.373.632.56 1.172.56.535 0 .919-.185 1.152-.554.237-.373.355-.926.355-1.659 0-.728-.118-1.275-.355-1.639-.237-.364-.626-.546-1.165-.546-.536 0-.922.182-1.159.546-.237.36-.356.906-.356 1.639zm5.089 0c0 1.199-.316 2.136-.948 2.812-.632.676-1.512 1.013-2.64 1.013-.706 0-1.329-.153-1.869-.46a3.111 3.111 0 01-1.245-1.337c-.289-.579-.434-1.255-.434-2.028 0-1.202.314-2.137.941-2.804.628-.667 1.51-1 2.647-1 .707 0 1.33.153 1.87.46.54.307.954.748 1.244 1.323.29.575.434 1.249.434 2.021zm4.838 2.226c.351 0 .773-.077 1.264-.231v1.495c-.5.224-1.115.335-1.843.335-.803 0-1.389-.201-1.758-.605-.364-.408-.546-1.018-.546-1.83v-3.549h-.962v-.849l1.106-.672.58-1.553h1.284v1.566h2.06v1.508h-2.06v3.549c0 .285.079.496.237.632.162.136.375.204.638.204zm2.751-7.795c0-.654.364-.981 1.093-.981.728 0 1.093.327 1.093.98 0 .312-.093.556-.277.731-.18.172-.452.257-.816.257-.729 0-1.093-.329-1.093-.987zm2.093 9.263h-2.008v-7.36h2.008v7.36zm6.26-5.853h-1.738v5.853h-2.008v-5.853h-1.106v-.968l1.106-.54v-.54c0-.838.206-1.45.619-1.836.413-.386 1.073-.58 1.982-.58.693 0 1.31.103 1.85.31l-.514 1.475a3.744 3.744 0 00-1.119-.191c-.285 0-.492.085-.619.256-.127.167-.191.382-.191.645v.461h1.738v1.508zm1.151-3.41c0-.654.364-.981 1.093-.981s1.093.327 1.093.98c0 .312-.092.556-.277.731-.18.172-.452.257-.816.257-.729 0-1.093-.329-1.093-.987zm2.094 9.263h-2.008v-7.36h2.008v7.36zm5.18.131c-2.291 0-3.437-1.257-3.437-3.772 0-1.251.312-2.205.935-2.864.623-.663 1.516-.994 2.679-.994.852 0 1.616.167 2.292.5l-.593 1.554a9.453 9.453 0 00-.882-.309 2.753 2.753 0 00-.817-.125c-1.044 0-1.566.741-1.566 2.225 0 1.44.522 2.159 1.566 2.159.387 0 .744-.05 1.074-.151.329-.105.658-.268.987-.487v1.718a3.243 3.243 0 01-.987.428c-.33.079-.747.118-1.251.118zm8.702-.131l-.388-1.001h-.053c-.338.426-.687.722-1.047.889-.355.162-.821.243-1.396.243-.706 0-1.264-.201-1.672-.605-.404-.404-.606-.979-.606-1.725 0-.781.273-1.356.817-1.725.548-.373 1.374-.579 2.475-.619l1.277-.039v-.323c0-.746-.381-1.119-1.145-1.119-.588 0-1.28.178-2.074.533l-.665-1.356c.847-.443 1.786-.665 2.818-.665.987 0 1.745.215 2.271.645.527.43.79 1.084.79 1.962v4.905h-1.402zm-.593-3.41l-.776.026c-.584.017-1.019.123-1.304.316-.285.193-.428.487-.428.882 0 .566.325.849.974.849.466 0 .837-.134 1.113-.401.281-.268.421-.623.421-1.067v-.605zm7.248 1.942c.351 0 .772-.077 1.264-.231v1.495c-.501.224-1.115.335-1.844.335-.803 0-1.389-.201-1.757-.605-.365-.408-.547-1.018-.547-1.83v-3.549h-.961v-.849l1.106-.672.579-1.553h1.284v1.566h2.061v1.508h-2.061v3.549c0 .285.079.496.237.632.162.136.375.204.639.204zm2.75-7.795c0-.654.365-.981 1.093-.981.729 0 1.093.327 1.093.98 0 .312-.092.556-.276.731-.18.172-.452.257-.817.257-.728 0-1.093-.329-1.093-.987zm2.094 9.263h-2.008v-7.36h2.008v7.36zm3.791-3.694c0 .729.118 1.28.355 1.653.242.373.632.56 1.172.56.536 0 .92-.185 1.152-.554.237-.373.356-.926.356-1.659 0-.728-.119-1.275-.356-1.639-.237-.364-.625-.546-1.165-.546-.535 0-.922.182-1.159.546-.237.36-.355.906-.355 1.639zm5.089 0c0 1.199-.316 2.136-.948 2.812-.632.676-1.512 1.013-2.64 1.013-.707 0-1.33-.153-1.87-.46a3.11 3.11 0 01-1.244-1.337c-.29-.579-.435-1.255-.435-2.028 0-1.202.314-2.137.942-2.804.627-.667 1.51-1 2.646-1 .707 0 1.33.153 1.87.46.54.307.955.748 1.244 1.323.29.575.435 1.249.435 2.021zm8.531 3.694h-2.008v-4.299c0-.531-.094-.929-.283-1.192-.189-.268-.489-.401-.902-.401-.562 0-.968.188-1.218.566-.25.373-.375.994-.375 1.863v3.463h-2.008v-7.36h1.534l.27.941h.112a2.1 2.1 0 01.921-.803 3.141 3.141 0 011.343-.277c.856 0 1.506.233 1.949.698.443.461.665 1.128.665 2.001v4.8zM801.346 92.41a9.076 9.076 0 10.043 18.152 9.076 9.076 0 00-.043-18.152zm5.567 12.373l-2.268 2.248-3.299-3.298-3.277 3.298-2.269-2.248 3.299-3.298-3.299-3.298 2.269-2.248 3.277 3.277 3.299-3.277 2.268 2.248-3.298 3.298 3.298 3.298z" fill="#fff"/><rect x="263.519" y="74.519" width="561.963" height="53.932" rx="3.63" stroke="#585C65" stroke-width="1.037" shape-rendering="crispEdges"/></g></g><path stroke="#90939F" stroke-width=".663" d="M256.582 31.8h573.837v324.4H256.582z"/><defs><clipPath id="prefix__clip0_6901_95596"><path fill="#fff" d="M256.25 31.468h574.5v325.064h-574.5z"/></clipPath><clipPath id="prefix__clip1_6901_95596"><path fill="#fff" transform="translate(256.25 31.468)" d="M0 0h574.5v37.064H0z"/></clipPath><clipPath id="prefix__clip2_6901_95596"><path fill="#fff" transform="translate(266.864 42.508)" d="M0 0h15.921v15.921H0z"/></clipPath><clipPath id="prefix__clip3_6901_95596"><path fill="#fff" transform="translate(783.317 88.766)" d="M0 0h24.546v25.209H0z"/></clipPath><clipPath id="prefix__clip4_6901_95596"><path fill="#fff" transform="translate(783.317 132.55)" d="M0 0h24.546v25.209H0z"/></clipPath><clipPath id="prefix__clip5_6901_95596"><path fill="#fff" transform="translate(783.317 176.334)" d="M0 0h24.546v25.209H0z"/></clipPath><clipPath id="prefix__clip6_6901_95596"><path fill="#fff" transform="translate(272.853 86.965)" d="M0 0h29.041v29.041H0z"/></clipPath><filter id="prefix__filter0_d_6901_95596" x="260.926" y="74" width="567.149" height="59.118" filterUnits="userSpaceOnUse" color-interpolation-filters="sRGB"><feFlood flood-opacity="0" result="BackgroundImageFix"/><feColorMatrix in="SourceAlpha" values="0 0 0 0 0 0 0 0 0 0 0 0 0 0 0 0 0 0 127 0" result="hardAlpha"/><feOffset dy="2.074"/><feGaussianBlur stdDeviation="1.037"/><feComposite in2="hardAlpha" operator="out"/><feColorMatrix values="0 0 0 0 0 0 0 0 0 0 0 0 0 0 0 0 0 0 0.25 0"/><feBlend in2="BackgroundImageFix" result="effect1_dropShadow_6901_95596"/><feBlend in="SourceGraphic" in2="effect1_dropShadow_6901_95596" result="shape"/></filter></defs></svg>