<svg fill="none" height="389" viewBox="0 0 1087 389" width="1087" xmlns="http://www.w3.org/2000/svg" xmlns:xlink="http://www.w3.org/1999/xlink"><filter id="a" color-interpolation-filters="sRGB" filterUnits="userSpaceOnUse" height="59.118" width="567.149" x="260.926" y="74.468"><feFlood flood-opacity="0" result="BackgroundImageFix"/><feColorMatrix in="SourceAlpha" result="hardAlpha" type="matrix" values="0 0 0 0 0 0 0 0 0 0 0 0 0 0 0 0 0 0 127 0"/><feOffset dy="2.074"/><feGaussianBlur stdDeviation="1.037"/><feComposite in2="hardAlpha" operator="out"/><feColorMatrix type="matrix" values="0 0 0 0 0 0 0 0 0 0 0 0 0 0 0 0 0 0 0.25 0"/><feBlend in2="BackgroundImageFix" mode="normal" result="effect1_dropShadow_4899_80650"/><feBlend in="SourceGraphic" in2="effect1_dropShadow_4899_80650" mode="normal" result="shape"/></filter><clipPath id="b"><path d="m256.25 31.936h574.5v325.064h-574.5z"/></clipPath><clipPath id="c"><path d="m256.25 31.936h574.5v37.064h-574.5z"/></clipPath><clipPath id="d"><path d="m266.864 42.9753h15.921v15.921h-15.921z"/></clipPath><clipPath id="e"><path d="m783.317 89.234h24.546v25.209h-24.546z"/></clipPath><clipPath id="f"><path d="m783.317 133.018h24.546v25.209h-24.546z"/></clipPath><clipPath id="g"><path d="m783.317 176.802h24.546v25.209h-24.546z"/></clipPath><clipPath id="h"><path d="m783.981 221.913h24.546v25.209h-24.546z"/></clipPath><clipPath id="i"><path d="m272.853 87.4323h29.041v29.041h-29.041z"/></clipPath><path d="m0 .467773h1087v388h-1087z" fill="#f1f1f6"/><g clip-path="url(#b)"><path d="m256.25 31.936h574.5v325.064h-574.5z" fill="#f1f1f6"/><g clip-path="url(#c)"><path d="m0 0h574.5v37.064h-574.5z" fill="#fff" transform="translate(256.25 31.936)"/><path d="m256.25 31.936h574.5v37.064h-574.5z" fill="#0e416c"/><g clip-path="url(#d)"><path d="m268.854 54.9164h11.942v-1.3268h-11.942zm0-3.3169h11.942v-1.3268h-11.942zm0-4.6438v1.3268h11.942v-1.3268z" fill="#fff"/></g><g fill="#fff"><path d="m300.312 45.2277c-.273 0-.532.0542-.768.152-.236.0979-.507-.0141-.605-.2502s.014-.5069.251-.6048c.346-.1436.725-.2226 1.122-.2226h.925c.256 0 .463.2072.463.4628s-.207.4628-.463.4628z"/><path d="m302.626 44.7649c0-.2556.207-.4628.463-.4628h1.851c.256 0 .463.2072.463.4628s-.207.4628-.463.4628h-1.851c-.256 0-.463-.2072-.463-.4628z"/><path d="m306.329 44.7649c0-.2556.207-.4628.462-.4628h.926c.397 0 .776.079 1.122.2226.236.0979.348.3687.251.6048-.098.2361-.369.3481-.605.2502-.236-.0978-.495-.152-.768-.152h-.926c-.255 0-.462-.2072-.462-.4628z"/><path d="m298.208 45.8609c.236.0979.348.3687.25.6048-.098.2359-.152.4948-.152.7676v.9257c0 .2556-.207.4628-.463.4628-.255 0-.463-.2072-.463-.4628v-.9257c0-.3966.08-.7759.223-1.1221.098-.2362.369-.3482.605-.2503z"/><path d="m309.821 45.8609c.236-.0979.507.0141.605.2503.143.3462.222.7255.222 1.1221v.9257c0 .2556-.207.4628-.462.4628-.256 0-.463-.2072-.463-.4628v-.9257c0-.2728-.054-.5317-.152-.7676-.098-.2361.014-.5069.25-.6048z"/><path d="m297.843 49.5475c.256 0 .463.2072.463.4628v1.8514c0 .2556-.207.4628-.463.4628-.255 0-.463-.2072-.463-.4628v-1.8514c0-.2556.208-.4628.463-.4628z"/><path d="m310.186 49.5475c.255 0 .462.2072.462.4628v1.8514c0 .2556-.207.4628-.462.4628-.256 0-.463-.2072-.463-.4628v-1.8514c0-.2556.207-.4628.463-.4628z"/><path d="m297.843 53.2502c.256 0 .463.2072.463.4628v.9257c0 .2728.054.5317.152.7676.098.2361-.014.5069-.25.6048s-.507-.0141-.605-.2502c-.143-.3463-.223-.7256-.223-1.1222v-.9257c0-.2556.208-.4628.463-.4628z"/><path d="m310.186 53.2502c.255 0 .462.2072.462.4628v.9257c0 .3966-.079.7759-.222 1.1222-.098.2361-.369.3481-.605.2502s-.348-.3687-.25-.6048c.098-.2359.152-.4948.152-.7676v-.9257c0-.2556.207-.4628.463-.4628z"/><path d="m298.939 56.7425c.098-.2361.369-.3481.605-.2502.236.0978.495.152.768.152h.925c.256 0 .463.2072.463.4628s-.207.4629-.463.4629h-.925c-.397 0-.776-.0791-1.122-.2226-.237-.098-.349-.3687-.251-.6049z"/><path d="m309.09 56.7425c.097.2362-.015.5069-.251.6049-.346.1435-.725.2226-1.122.2226h-.926c-.255 0-.462-.2073-.462-.4629s.207-.4628.462-.4628h.926c.273 0 .532-.0542.768-.152.236-.0979.507.0141.605.2502z"/><path d="m302.626 57.1071c0-.2556.207-.4628.463-.4628h1.851c.256 0 .463.2072.463.4628s-.207.4629-.463.4629h-1.851c-.256 0-.463-.2073-.463-.4629z"/><path d="m309.279 46.3638c.18-.1807.18-.4738 0-.6545-.181-.1808-.474-.1808-.655 0l-.615.6148c-.18.1807-.18.4738 0 .6545.181.1807.474.1807.655 0z"/><path d="m307.434 48.2081c.181-.1807.181-.4738 0-.6545-.18-.1808-.474-.1808-.654 0l-1.23 1.2295c-.181.1808-.181.4738 0 .6546.181.1807.474.1807.655 0z"/><path d="m304.975 50.6672c.181-.1807.181-.4738 0-.6545-.181-.1808-.474-.1808-.654 0l-.307.3062-.306-.3062c-.181-.1808-.474-.1808-.654 0-.181.1807-.181.4738 0 .6545l.306.3062-.269.2688c-.181.1808-.181.4738 0 .6546.181.1807.474.1807.655 0l.268-.2688.269.2688c.181.1807.474.1807.655 0 .181-.1808.181-.4738 0-.6546l-.269-.2688z"/><path d="m302.516 53.1263c.181-.1807.181-.4738 0-.6545-.181-.1808-.474-.1808-.654 0l-1.23 1.2295c-.181.1808-.181.4738 0 .6546.181.1807.474.1807.655 0z"/><path d="m300.057 55.5854c.181-.1807.181-.4738 0-.6545-.181-.1808-.474-.1808-.655 0l-.614.6147c-.181.1808-.181.4738 0 .6546.18.1807.474.1807.654 0z"/><path d="m308.587 56.2002c.18.1807.473.1807.654 0 .181-.1808.181-.4738 0-.6546l-.615-.6147c-.18-.1808-.473-.1808-.654 0-.181.1807-.181.4738 0 .6545z"/><path d="m306.742 54.3559c.181.1807.474.1807.655 0 .181-.1808.181-.4738 0-.6546l-1.23-1.2295c-.18-.1808-.473-.1808-.654 0-.181.1807-.181.4738 0 .6545z"/><path d="m301.824 49.4377c.181.1807.474.1807.655 0 .18-.1808.18-.4738 0-.6546l-1.23-1.2295c-.181-.1808-.474-.1808-.654 0-.181.1807-.181.4738 0 .6545z"/><path d="m299.365 46.9786c.181.1807.474.1807.655 0 .18-.1807.18-.4738 0-.6545l-.615-.6148c-.181-.1808-.474-.1808-.655 0-.18.1807-.18.4738 0 .6545z"/><path d="m302.198 47.782c.183-.0557.379-.0858.582-.0858h.463c.256 0 .463-.2072.463-.4629 0-.2556-.207-.4628-.463-.4628h-.463c-.295 0-.581.0438-.851.1256-.244.0741-.383.3325-.309.5771.075.2447.333.3829.578.3088z"/><path d="m304.786 46.7705c-.256 0-.463.2072-.463.4628 0 .2557.207.4629.463.4629h.463c.203 0 .398.0301.582.0858.245.0741.503-.0641.577-.3088.075-.2446-.064-.503-.308-.5771-.27-.0818-.556-.1256-.851-.1256z"/><path d="m300.86 49.1192c.075-.2446-.064-.503-.308-.5772-.245-.0741-.503.0642-.577.3088-.082.2699-.126.5557-.126.851v.4628c0 .2556.207.4629.463.4629.255 0 .463-.2073.463-.4629v-.4628c0-.2033.03-.3988.085-.5826z"/><path d="m308.054 48.8508c-.074-.2446-.332-.3829-.577-.3088-.244.0742-.383.3326-.309.5772.056.1838.086.3793.086.5826v.4628c0 .2556.207.4629.463.4629s.463-.2073.463-.4629v-.4628c0-.2953-.044-.5811-.126-.851z"/><path d="m300.775 51.7074c0-.2556-.208-.4628-.463-.4628-.256 0-.463.2072-.463.4628v.4628c0 .2953.044.5811.126.851.074.2447.332.3829.577.3088.244-.0741.383-.3325.308-.5772-.055-.1838-.085-.3792-.085-.5826z"/><path d="m308.18 51.7074c0-.2556-.207-.4628-.463-.4628s-.463.2072-.463.4628v.4628c0 .2034-.03.3988-.086.5826-.074.2447.065.5031.309.5772.245.0741.503-.0641.577-.3088.082-.2699.126-.5557.126-.851z"/><path d="m302.198 54.09c-.245-.0741-.503.0642-.578.3088-.074.2446.065.503.309.5772.27.0817.556.1255.851.1255h.463c.256 0 .463-.2072.463-.4628s-.207-.4629-.463-.4629h-.463c-.203 0-.399-.0301-.582-.0858z"/><path d="m306.1 54.976c.244-.0742.383-.3326.308-.5772-.074-.2446-.332-.3829-.577-.3088-.184.0557-.379.0858-.582.0858h-.463c-.256 0-.463.2073-.463.4629s.207.4628.463.4628h.463c.295 0 .581-.0438.851-.1255z"/></g></g><path d="m0 0h553.271v132.016h-553.271z" fill="#cbcbcb" transform="translate(266.864 79.6148)"/><path d="m0 0h551.945v43.121h-551.945z" fill="#fff" transform="translate(267.528 80.2782)"/><path d="m279.574 107.339v-10.4192h1.212v9.3212h4.596v1.098zm8.754 0h-1.183v-7.8109h1.183zm-1.283-9.9275c0-.2708.066-.4679.199-.5914.133-.1283.3-.1924.499-.1924.19 0 .354.0641.492.1924.138.1282.207.3254.207.5914 0 .2661-.069.4656-.207.5987-.138.1282-.302.1924-.492.1924-.199 0-.366-.0642-.499-.1924-.133-.1331-.199-.3326-.199-.5987zm8.995 7.7965c0 .727-.271 1.287-.812 1.682-.542.394-1.302.591-2.281.591-1.035 0-1.843-.164-2.423-.492v-1.097c.376.19.777.34 1.205.449.432.109.848.164 1.247.164.617 0 1.093-.098 1.425-.292.333-.2.499-.502.499-.905 0-.305-.133-.563-.399-.777-.261-.219-.775-.475-1.539-.77-.727-.271-1.245-.506-1.554-.705-.304-.205-.532-.435-.684-.692-.147-.256-.221-.563-.221-.919 0-.637.259-1.138.777-1.5036.518-.3706 1.228-.5559 2.131-.5559.84 0 1.662.1711 2.465.5131l-.42.9624c-.784-.323-1.494-.485-2.131-.485-.561 0-.983.088-1.268.264-.286.176-.428.418-.428.727 0 .209.052.387.157.534.109.147.282.288.52.421s.694.325 1.368.577c.927.337 1.551.677 1.874 1.019.328.342.492.772.492 1.29zm4.62 1.297c.209 0 .411-.015.606-.043.194-.033.349-.067.463-.1v.905c-.128.062-.318.112-.57.15-.247.043-.471.064-.67.064-1.511 0-2.266-.796-2.266-2.387v-4.647h-1.119v-.5697l1.119-.4918.499-1.6675h.684v1.8101h2.266v.9189h-2.266v4.597c0 .47.111.831.335 1.083.223.252.529.378.919.378zm6.938.834v-10.4192h1.211v10.4192zm6.586-.834c.209 0 .411-.015.606-.043.195-.033.349-.067.463-.1v.905c-.128.062-.318.112-.57.15-.247.043-.47.064-.67.064-1.51 0-2.266-.796-2.266-2.387v-4.647h-1.119v-.5697l1.119-.4918.499-1.6675h.684v1.8101h2.266v.9189h-2.266v4.597c0 .47.112.831.335 1.083s.53.378.919.378zm6.102.976c-1.154 0-2.066-.352-2.736-1.055-.665-.703-.998-1.679-.998-2.929 0-1.259.309-2.259.927-3 .622-.7409 1.456-1.1115 2.501-1.1115.979 0 1.753.3231 2.323.9695.57.641.855 1.489.855 2.544v.748h-5.38c.024.917.254 1.613.691 2.088.442.475 1.062.713 1.86.713.841 0 1.673-.176 2.494-.528v1.055c-.418.181-.814.309-1.19.385-.37.081-.819.121-1.347.121zm-.32-7.105c-.627 0-1.129.204-1.504.613-.37.409-.589.974-.656 1.696h4.084c0-.746-.166-1.316-.499-1.71-.333-.399-.808-.599-1.425-.599zm15.338 6.963v-5.082c0-.622-.133-1.088-.4-1.396-.266-.314-.679-.471-1.24-.471-.736 0-1.28.212-1.631.635-.352.422-.528 1.073-.528 1.952v4.362h-1.183v-5.082c0-.622-.133-1.088-.399-1.396-.266-.314-.682-.471-1.247-.471-.741 0-1.285.224-1.632.67-.342.442-.513 1.169-.513 2.181v4.098h-1.183v-7.8109h.962l.193 1.0689h.057c.223-.38.536-.677.94-.8908.409-.2138.865-.3207 1.368-.3207 1.221 0 2.02.4419 2.395 1.3255h.057c.233-.409.57-.7316 1.012-.9691.442-.2376.945-.3564 1.511-.3564.883 0 1.544.2281 1.981.6845.442.451.663 1.176.663 2.173v5.096z" fill="#252a2e"/><g clip-path="url(#e)"><path clip-rule="evenodd" d="m789.14 93.8778h12.9c1.013 0 1.843.7961 1.843 1.769v12.3832c0 .973-.83 1.769-1.843 1.769h-12.9c-1.013 0-1.842-.796-1.842-1.769v-12.3832c0-.9729.829-1.769 1.842-1.769zm12.9 14.1522v-12.3832h-12.9v12.3832z" fill="#90939f" fill-rule="evenodd"/></g><path d="m0 0h551.945v43.121h-551.945z" fill="#fff" transform="translate(267.528 124.062)"/><path d="m279.574 151.008v-10.418h1.212v9.321h4.596v1.097zm8.754 0h-1.183v-7.81h1.183zm-1.283-9.927c0-.271.066-.468.199-.591.133-.128.3-.193.499-.193.19 0 .354.065.492.193s.207.325.207.591-.069.466-.207.599c-.138.128-.302.192-.492.192-.199 0-.366-.064-.499-.192-.133-.133-.199-.333-.199-.599zm8.995 7.796c0 .727-.271 1.288-.812 1.682-.542.395-1.302.592-2.281.592-1.035 0-1.843-.164-2.423-.492v-1.097c.376.19.777.339 1.205.449.432.109.848.163 1.247.163.617 0 1.093-.097 1.425-.292.333-.199.499-.501.499-.905 0-.304-.133-.563-.399-.777-.261-.218-.775-.475-1.539-.769-.727-.271-1.245-.506-1.554-.706-.304-.204-.532-.434-.684-.691-.147-.256-.221-.563-.221-.919 0-.637.259-1.138.777-1.504.518-.37 1.228-.556 2.131-.556.84 0 1.662.171 2.465.513l-.42.962c-.784-.323-1.494-.484-2.131-.484-.561 0-.983.088-1.268.264-.286.175-.428.418-.428.726 0 .209.052.388.157.535.109.147.282.287.52.42s.694.326 1.368.578c.927.337 1.551.677 1.874 1.019.328.342.492.772.492 1.289zm4.62 1.297c.209 0 .411-.014.606-.042.194-.034.349-.067.463-.1v.905c-.128.062-.318.112-.57.15-.247.042-.471.064-.67.064-1.511 0-2.266-.796-2.266-2.388v-4.646h-1.119v-.57l1.119-.492.499-1.667h.684v1.81h2.266v.919h-2.266v4.597c0 .47.111.831.335 1.083.223.252.529.377.919.377zm6.938.834v-10.418h1.211v10.418zm6.586-.834c.209 0 .411-.014.606-.042.195-.034.349-.067.463-.1v.905c-.128.062-.318.112-.57.15-.247.042-.47.064-.67.064-1.51 0-2.266-.796-2.266-2.388v-4.646h-1.119v-.57l1.119-.492.499-1.667h.684v1.81h2.266v.919h-2.266v4.597c0 .47.112.831.335 1.083s.53.377.919.377zm6.102.977c-1.154 0-2.066-.352-2.736-1.055-.665-.703-.998-1.679-.998-2.929 0-1.259.309-2.259.927-3 .622-.741 1.456-1.112 2.501-1.112.979 0 1.753.323 2.323.969.57.642.855 1.49.855 2.545v.748h-5.38c.024.917.254 1.613.691 2.088.442.475 1.062.712 1.86.712.841 0 1.673-.175 2.494-.527v1.055c-.418.18-.814.309-1.19.385-.37.08-.819.121-1.347.121zm-.32-7.105c-.627 0-1.129.204-1.504.613-.37.408-.589.974-.656 1.696h4.084c0-.746-.166-1.316-.499-1.711-.333-.399-.808-.598-1.425-.598zm15.338 6.962v-5.081c0-.622-.133-1.088-.4-1.397-.266-.313-.679-.47-1.24-.47-.736 0-1.28.211-1.631.634-.352.423-.528 1.074-.528 1.953v4.361h-1.183v-5.081c0-.622-.133-1.088-.399-1.397-.266-.313-.682-.47-1.247-.47-.741 0-1.285.223-1.632.67-.342.442-.513 1.169-.513 2.181v4.097h-1.183v-7.81h.962l.193 1.069h.057c.223-.38.536-.677.94-.891.409-.214.865-.321 1.368-.321 1.221 0 2.02.442 2.395 1.326h.057c.233-.409.57-.732 1.012-.969.442-.238.945-.357 1.511-.357.883 0 1.544.228 1.981.684.442.452.663 1.176.663 2.174v5.095z" fill="#252a2e"/><g clip-path="url(#f)"><path clip-rule="evenodd" d="m789.14 137.662h12.9c1.013 0 1.843.796 1.843 1.769v12.383c0 .973-.83 1.769-1.843 1.769h-12.9c-1.013 0-1.842-.796-1.842-1.769v-12.383c0-.973.829-1.769 1.842-1.769zm12.9 14.152v-12.383h-12.9v12.383z" fill="#90939f" fill-rule="evenodd"/></g><path d="m0 0h551.945v43.121h-551.945z" fill="#fff" transform="translate(267.528 167.846)"/><path d="m279.574 194.792v-10.418h1.212v9.321h4.596v1.097zm8.754 0h-1.183v-7.81h1.183zm-1.283-9.927c0-.27.066-.468.199-.591.133-.128.3-.193.499-.193.19 0 .354.065.492.193s.207.325.207.591-.069.466-.207.599c-.138.128-.302.192-.492.192-.199 0-.366-.064-.499-.192-.133-.133-.199-.333-.199-.599zm8.995 7.797c0 .726-.271 1.287-.812 1.681-.542.395-1.302.592-2.281.592-1.035 0-1.843-.164-2.423-.492v-1.097c.376.19.777.339 1.205.449.432.109.848.164 1.247.164.617 0 1.093-.098 1.425-.293.333-.199.499-.501.499-.905 0-.304-.133-.563-.399-.776-.261-.219-.775-.476-1.539-.77-.727-.271-1.245-.506-1.554-.706-.304-.204-.532-.434-.684-.691-.147-.256-.221-.563-.221-.919 0-.637.259-1.138.777-1.504.518-.37 1.228-.556 2.131-.556.84 0 1.662.171 2.465.513l-.42.962c-.784-.323-1.494-.484-2.131-.484-.561 0-.983.088-1.268.264-.286.175-.428.418-.428.726 0 .209.052.388.157.535.109.147.282.287.52.42s.694.326 1.368.578c.927.337 1.551.677 1.874 1.019.328.342.492.772.492 1.29zm4.62 1.297c.209 0 .411-.015.606-.043.194-.033.349-.067.463-.1v.905c-.128.062-.318.112-.57.15-.247.042-.471.064-.67.064-1.511 0-2.266-.796-2.266-2.387v-4.647h-1.119v-.57l1.119-.492.499-1.667h.684v1.81h2.266v.919h-2.266v4.597c0 .47.111.831.335 1.083.223.252.529.378.919.378zm6.938.833v-10.418h1.211v10.418zm6.586-.833c.209 0 .411-.015.606-.043.195-.033.349-.067.463-.1v.905c-.128.062-.318.112-.57.15-.247.042-.47.064-.67.064-1.51 0-2.266-.796-2.266-2.387v-4.647h-1.119v-.57l1.119-.492.499-1.667h.684v1.81h2.266v.919h-2.266v4.597c0 .47.112.831.335 1.083s.53.378.919.378zm6.102.976c-1.154 0-2.066-.352-2.736-1.055-.665-.703-.998-1.679-.998-2.929 0-1.259.309-2.259.927-3 .622-.741 1.456-1.112 2.501-1.112.979 0 1.753.323 2.323.97.57.641.855 1.489.855 2.544v.748h-5.38c.024.917.254 1.613.691 2.088.442.475 1.062.713 1.86.713.841 0 1.673-.176 2.494-.528v1.055c-.418.18-.814.309-1.19.385-.37.08-.819.121-1.347.121zm-.32-7.105c-.627 0-1.129.204-1.504.613-.37.408-.589.974-.656 1.696h4.084c0-.746-.166-1.316-.499-1.71-.333-.4-.808-.599-1.425-.599zm15.338 6.962v-5.081c0-.622-.133-1.088-.4-1.397-.266-.313-.679-.47-1.24-.47-.736 0-1.28.212-1.631.634-.352.423-.528 1.074-.528 1.953v4.361h-1.183v-5.081c0-.622-.133-1.088-.399-1.397-.266-.313-.682-.47-1.247-.47-.741 0-1.285.223-1.632.67-.342.442-.513 1.169-.513 2.181v4.097h-1.183v-7.81h.962l.193 1.069h.057c.223-.38.536-.677.94-.891.409-.214.865-.321 1.368-.321 1.221 0 2.02.442 2.395 1.326h.057c.233-.409.57-.732 1.012-.969.442-.238.945-.357 1.511-.357.883 0 1.544.228 1.981.684.442.452.663 1.176.663 2.174v5.095z" fill="#252a2e"/><g clip-path="url(#g)"><path clip-rule="evenodd" d="m789.14 181.446h12.9c1.013 0 1.843.796 1.843 1.769v12.383c0 .973-.83 1.769-1.843 1.769h-12.9c-1.013 0-1.842-.796-1.842-1.769v-12.383c0-.973.829-1.769 1.842-1.769zm12.9 14.152v-12.383h-12.9v12.383z" fill="#90939f" fill-rule="evenodd"/></g><path d="m0 0h553.271v43.121h-553.271z" fill="#fff" transform="translate(266.864 212.957)"/><path d="m278.911 240.018v-10.419h1.211v9.321h4.597v1.098zm8.753 0h-1.183v-7.811h1.183zm-1.283-9.927c0-.271.067-.468.2-.592.133-.128.299-.192.499-.192.19 0 .354.064.491.192.138.128.207.326.207.592s-.069.465-.207.598c-.137.128-.301.193-.491.193-.2 0-.366-.065-.499-.193-.133-.133-.2-.332-.2-.598zm8.996 7.796c0 .727-.271 1.287-.813 1.682-.541.394-1.301.591-2.28.591-1.036 0-1.843-.164-2.423-.492v-1.097c.375.19.777.34 1.204.449.433.109.848.164 1.247.164.618 0 1.093-.098 1.426-.292.332-.2.498-.502.498-.905 0-.305-.133-.563-.399-.777-.261-.219-.774-.475-1.539-.77-.727-.271-1.245-.506-1.553-.705-.304-.205-.533-.435-.685-.692-.147-.256-.22-.563-.22-.919 0-.637.258-1.138.776-1.504.518-.37 1.228-.555 2.131-.555.841 0 1.663.171 2.466.513l-.421.962c-.784-.323-1.494-.485-2.13-.485-.561 0-.984.088-1.269.264s-.427.418-.427.727c0 .209.052.387.156.534.11.147.283.288.521.421.237.133.693.325 1.368.577.926.337 1.551.677 1.874 1.019.328.342.492.772.492 1.29zm4.619 1.297c.21 0 .411-.015.606-.043.195-.033.349-.067.463-.1v.905c-.128.062-.318.112-.57.15-.247.043-.47.064-.67.064-1.51 0-2.266-.796-2.266-2.387v-4.647h-1.119v-.57l1.119-.491.499-1.668h.684v1.81h2.266v.919h-2.266v4.597c0 .47.112.831.335 1.083s.53.378.919.378zm6.938.834v-10.419h1.212v10.419zm6.587-.834c.209 0 .411-.015.606-.043.194-.033.349-.067.463-.1v.905c-.128.062-.318.112-.57.15-.247.043-.471.064-.67.064-1.511 0-2.266-.796-2.266-2.387v-4.647h-1.119v-.57l1.119-.491.499-1.668h.684v1.81h2.266v.919h-2.266v4.597c0 .47.111.831.335 1.083.223.252.529.378.919.378zm6.102.976c-1.154 0-2.067-.352-2.737-1.055-.665-.703-.997-1.679-.997-2.929 0-1.259.309-2.259.926-3 .623-.741 1.456-1.111 2.502-1.111.978 0 1.753.323 2.323.969.57.641.855 1.489.855 2.544v.748h-5.38c.023.917.254 1.613.691 2.088.442.475 1.062.713 1.86.713.841 0 1.672-.176 2.494-.528v1.055c-.418.181-.815.309-1.19.385-.371.081-.82.121-1.347.121zm-.321-7.105c-.627 0-1.128.204-1.503.613-.371.409-.589.974-.656 1.696h4.083c0-.746-.166-1.316-.498-1.71-.333-.399-.808-.599-1.426-.599zm15.338 6.963v-5.082c0-.622-.133-1.087-.399-1.396-.266-.314-.679-.471-1.24-.471-.736 0-1.28.212-1.632.635-.351.422-.527 1.073-.527 1.952v4.362h-1.183v-5.082c0-.622-.133-1.087-.399-1.396-.266-.314-.682-.471-1.247-.471-.742 0-1.285.224-1.632.67-.342.442-.513 1.169-.513 2.181v4.098h-1.183v-7.811h.962l.192 1.069h.057c.223-.38.537-.677.941-.891.408-.214.864-.32 1.368-.32 1.221 0 2.019.441 2.394 1.325h.057c.233-.409.571-.732 1.012-.969.442-.238.946-.356 1.511-.356.884 0 1.544.228 1.981.684.442.451.663 1.176.663 2.173v5.096z" fill="#252a2e"/><g clip-path="url(#h)"><path clip-rule="evenodd" d="m789.804 226.557h12.899c1.014 0 1.843.796 1.843 1.769v12.383c0 .973-.829 1.769-1.843 1.769h-12.899c-1.014 0-1.843-.796-1.843-1.769v-12.383c0-.973.829-1.769 1.843-1.769zm12.899 14.152v-12.383h-12.899v12.383z" fill="#90939f" fill-rule="evenodd"/></g><g filter="url(#a)"><rect fill="#000" height="54.97" rx="4.149" shape-rendering="crispEdges" width="563" x="263" y="74.468"/><g clip-path="url(#i)"><path d="m287.313 89.6103c6.836 0 12.342 5.5056 12.342 12.3427 0 6.836-5.506 12.342-12.342 12.342-6.837 0-12.403-5.506-12.403-12.342 0-6.8371 5.566-12.3427 12.403-12.3427zm0-2.1175c-8.047 0-14.52 6.4736-14.52 14.4602 0 7.986 6.473 14.459 14.459 14.459s14.521-6.473 14.521-14.459c0-7.9866-6.474-14.4602-14.46-14.4602z" fill="#00cc2a"/><path d="m293.544 99.23-1.452-1.5125-6.655 6.5945-2.662-2.662-1.512 1.452 4.174 4.175 1.513-1.452z" fill="#fff"/></g><path d="m317.602 104.78c0 .869-.313 1.553-.941 2.054-.623.5-1.492.75-2.607.75-1.027 0-1.936-.193-2.726-.579v-1.896c.65.29 1.199.494 1.646.612.452.119.865.178 1.238.178.448 0 .79-.086 1.027-.257.241-.171.362-.426.362-.764 0-.188-.053-.355-.158-.5-.105-.149-.261-.292-.467-.428-.202-.136-.617-.353-1.245-.652-.588-.276-1.029-.542-1.323-.796-.294-.255-.529-.551-.704-.889-.176-.338-.264-.733-.264-1.185 0-.8515.288-1.5209.863-2.0081.579-.4871 1.378-.7307 2.396-.7307.5 0 .977.0592 1.429.1777.456.1185.932.2853 1.428.5004l-.658 1.5866c-.514-.2107-.939-.3577-1.277-.4411-.334-.0834-.663-.1251-.988-.1251-.386 0-.682.09-.889.27-.206.1799-.309.4143-.309.7043 0 .18.042.338.125.474.084.132.215.261.395.389.185.122.617.346 1.297.671.9.43 1.517.863 1.85 1.297.334.43.5.959.5 1.587zm6.879 2.673-.27-.942h-.105c-.215.342-.52.608-.915.797-.395.184-.845.276-1.35.276-.865 0-1.516-.23-1.955-.691-.439-.465-.659-1.132-.659-2.001v-4.8h2.008v4.299c0 .531.095.931.283 1.198.189.264.49.395.902.395.562 0 .968-.186 1.218-.559.251-.378.376-1.001.376-1.87v-3.463h2.008v7.361zm6.714.131c-2.291 0-3.437-1.257-3.437-3.772 0-1.251.312-2.206.935-2.864.624-.663 1.517-.9941 2.68-.9941.851 0 1.615.1671 2.291.5001l-.593 1.554c-.316-.127-.61-.23-.882-.309-.272-.084-.544-.126-.816-.126-1.045 0-1.567.742-1.567 2.226 0 1.439.522 2.159 1.567 2.159.386 0 .744-.05 1.073-.151.329-.106.658-.268.987-.487v1.718c-.324.206-.654.349-.987.428-.329.079-.746.118-1.251.118zm7.017 0c-2.291 0-3.437-1.257-3.437-3.772 0-1.251.312-2.206.935-2.864.623-.663 1.517-.9941 2.68-.9941.851 0 1.615.1671 2.291.5001l-.593 1.554c-.316-.127-.61-.23-.882-.309-.272-.084-.544-.126-.816-.126-1.045 0-1.567.742-1.567 2.226 0 1.439.522 2.159 1.567 2.159.386 0 .744-.05 1.073-.151.329-.106.658-.268.987-.487v1.718c-.324.206-.654.349-.987.428-.329.079-.746.118-1.251.118zm7.076-6.201c-.426 0-.759.136-1.001.408-.241.267-.379.649-.414 1.145h2.817c-.008-.496-.138-.878-.388-1.145-.25-.272-.588-.408-1.014-.408zm.283 6.201c-1.185 0-2.111-.327-2.778-.981s-1.001-1.58-1.001-2.778c0-1.233.307-2.186.922-2.857.619-.676 1.472-1.0141 2.561-1.0141 1.04 0 1.85.2961 2.429.8891.58.592.869 1.411.869 2.455v.975h-4.747c.022.57.191 1.016.507 1.336.316.321.76.481 1.33.481.444 0 .863-.046 1.258-.138.395-.093.807-.24 1.237-.442v1.554c-.351.176-.726.305-1.125.389-.4.087-.887.131-1.462.131zm9.848-2.317c0 .755-.263 1.33-.79 1.725-.522.395-1.306.592-2.35.592-.536 0-.992-.037-1.37-.112-.377-.07-.731-.175-1.06-.316v-1.659c.373.176.792.323 1.258.441.469.119.882.178 1.237.178.729 0 1.093-.211 1.093-.632 0-.158-.048-.285-.145-.382-.096-.101-.263-.213-.5-.336-.237-.127-.553-.274-.948-.441-.566-.237-.983-.456-1.251-.658-.263-.202-.456-.432-.579-.691-.119-.264-.178-.586-.178-.968 0-.654.252-1.159.757-1.514.509-.36 1.229-.5401 2.16-.5401.886 0 1.749.1931 2.587.5791l-.606 1.449c-.369-.158-.713-.288-1.033-.389-.321-.101-.648-.151-.981-.151-.593 0-.889.16-.889.48 0 .18.094.336.283.468.193.131.612.327 1.257.586.575.232.997.45 1.264.652.268.201.466.434.593.697.127.264.191.578.191.942zm6.78 0c0 .755-.264 1.33-.79 1.725-.523.395-1.306.592-2.351.592-.535 0-.992-.037-1.369-.112-.377-.07-.731-.175-1.06-.316v-1.659c.373.176.792.323 1.257.441.47.119.883.178 1.238.178.729 0 1.093-.211 1.093-.632 0-.158-.048-.285-.145-.382-.096-.101-.263-.213-.5-.336-.237-.127-.553-.274-.948-.441-.566-.237-.983-.456-1.251-.658-.263-.202-.456-.432-.579-.691-.119-.264-.178-.586-.178-.968 0-.654.252-1.159.757-1.514.509-.36 1.229-.5401 2.159-.5401.887 0 1.749.1931 2.588.5791l-.606 1.449c-.369-.158-.713-.288-1.034-.389-.32-.101-.647-.151-.981-.151-.592 0-.888.16-.888.48 0 .18.094.336.283.468.193.131.612.327 1.257.586.575.232.997.45 1.264.652.268.201.465.434.593.697.127.264.191.578.191.942zm13.921 2.186h-2.593l-4.188-7.282h-.059c.084 1.286.125 2.203.125 2.752v4.53h-1.823v-9.6256h2.574l4.18 7.2086h.046c-.065-1.25-.098-2.135-.098-2.653v-4.5556h1.836zm3.949-3.694c0 .729.119 1.28.356 1.653.241.373.632.559 1.172.559.535 0 .919-.184 1.152-.553.237-.373.355-.926.355-1.659 0-.728-.118-1.275-.355-1.639s-.626-.547-1.165-.547c-.536 0-.922.183-1.159.547-.237.36-.356.906-.356 1.639zm5.089 0c0 1.198-.316 2.135-.948 2.811s-1.512 1.014-2.64 1.014c-.706 0-1.329-.153-1.869-.461-.54-.311-.955-.757-1.245-1.336-.289-.579-.434-1.255-.434-2.028 0-1.202.314-2.137.941-2.804.628-.668 1.51-1.0011 2.647-1.0011.707 0 1.33.1541 1.87.4611s.954.748 1.244 1.323.434 1.249.434 2.021zm4.838 2.225c.351 0 .773-.076 1.264-.23v1.494c-.5.224-1.115.336-1.843.336-.803 0-1.389-.202-1.758-.605-.364-.409-.546-1.019-.546-1.831v-3.548h-.962v-.849l1.106-.672.58-1.5537h1.284v1.5667h2.06v1.508h-2.06v3.548c0 .286.079.496.237.632.162.136.375.204.638.204zm2.751-7.7945c0-.6539.364-.9809 1.093-.9809.728 0 1.093.327 1.093.9809 0 .3116-.093.5552-.277.7308-.18.1712-.452.2568-.816.2568-.729 0-1.093-.3292-1.093-.9876zm2.093 9.2635h-2.008v-7.361h2.008zm6.26-5.853h-1.738v5.853h-2.008v-5.853h-1.106v-.968l1.106-.54v-.5397c0-.8383.206-1.4506.619-1.8368s1.073-.5793 1.982-.5793c.693 0 1.31.1031 1.85.3094l-.514 1.4747c-.404-.1273-.777-.1909-1.119-.1909-.285 0-.492.0856-.619.2567-.127.1668-.191.3819-.191.6452v.4607h1.738zm1.151-3.4105c0-.6539.364-.9809 1.093-.9809s1.093.327 1.093.9809c0 .3116-.092.5552-.277.7308-.18.1712-.452.2568-.816.2568-.729 0-1.093-.3292-1.093-.9876zm2.094 9.2635h-2.008v-7.361h2.008zm5.18.131c-2.291 0-3.437-1.257-3.437-3.772 0-1.251.312-2.206.935-2.864.623-.663 1.516-.9941 2.679-.9941.852 0 1.616.1671 2.292.5001l-.593 1.554c-.316-.127-.61-.23-.882-.309-.272-.084-.544-.126-.817-.126-1.044 0-1.566.742-1.566 2.226 0 1.439.522 2.159 1.566 2.159.387 0 .744-.05 1.074-.151.329-.106.658-.268.987-.487v1.718c-.325.206-.654.349-.987.428-.33.079-.747.118-1.251.118zm8.702-.131-.388-1.001h-.053c-.338.426-.687.722-1.047.889-.355.162-.821.243-1.396.243-.706 0-1.264-.202-1.672-.605-.404-.404-.606-.979-.606-1.725 0-.782.273-1.357.817-1.725.548-.373 1.374-.58 2.475-.619l1.277-.04v-.322c0-.746-.381-1.119-1.145-1.119-.588 0-1.28.177-2.074.533l-.665-1.356c.847-.444 1.786-.6653 2.818-.6653.987 0 1.745.2153 2.271.6453.527.43.79 1.084.79 1.962v4.905zm-.593-3.411-.776.027c-.584.017-1.019.123-1.304.316s-.428.487-.428.882c0 .566.325.849.974.849.466 0 .837-.134 1.113-.401.281-.268.421-.624.421-1.067zm7.248 1.942c.351 0 .772-.076 1.264-.23v1.494c-.501.224-1.115.336-1.844.336-.803 0-1.389-.202-1.757-.605-.365-.409-.547-1.019-.547-1.831v-3.548h-.961v-.849l1.106-.672.579-1.5537h1.284v1.5667h2.061v1.508h-2.061v3.548c0 .286.079.496.237.632.162.136.375.204.639.204zm2.75-7.7945c0-.6539.365-.9809 1.093-.9809.729 0 1.093.327 1.093.9809 0 .3116-.092.5552-.276.7308-.18.1712-.452.2568-.817.2568-.728 0-1.093-.3292-1.093-.9876zm2.094 9.2635h-2.008v-7.361h2.008zm3.791-3.694c0 .729.118 1.28.355 1.653.242.373.632.559 1.172.559.536 0 .92-.184 1.152-.553.237-.373.356-.926.356-1.659 0-.728-.119-1.275-.356-1.639s-.625-.547-1.165-.547c-.535 0-.922.183-1.159.547-.237.36-.355.906-.355 1.639zm5.089 0c0 1.198-.316 2.135-.948 2.811s-1.512 1.014-2.64 1.014c-.707 0-1.33-.153-1.87-.461-.54-.311-.954-.757-1.244-1.336s-.435-1.255-.435-2.028c0-1.202.314-2.137.942-2.804.627-.668 1.51-1.0011 2.646-1.0011.707 0 1.33.1541 1.87.4611s.955.748 1.244 1.323c.29.575.435 1.249.435 2.021zm8.531 3.694h-2.008v-4.299c0-.532-.094-.929-.283-1.192-.189-.268-.489-.402-.902-.402-.562 0-.968.189-1.218.566-.25.374-.375.995-.375 1.864v3.463h-2.008v-7.361h1.534l.27.942h.112c.223-.356.531-.624.921-.804.395-.184.843-.2761 1.343-.2761.856 0 1.506.2331 1.949.6981.443.461.665 1.128.665 2.001z" fill="#fff"/><path d="m801.346 92.8774c-1.794.0042-3.546.54-5.036 1.5397-1.489.9997-2.649 2.4185-3.333 4.0771-.684 1.6588-.86 3.4828-.508 5.2418.353 1.759 1.219 3.374 2.489 4.641s2.887 2.129 4.647 2.478c1.759.348 3.583.167 5.24-.52 1.657-.688 3.073-1.851 4.07-3.343.996-1.492 1.528-3.245 1.528-5.039 0-1.194-.236-2.3758-.693-3.4782-.458-1.1024-1.128-2.1038-1.973-2.9468-.845-.8429-1.848-1.511-2.951-1.9658-1.104-.4548-2.286-.6875-3.48-.6848zm5.567 12.3736-2.268 2.248-3.299-3.299-3.277 3.299-2.269-2.248 3.299-3.298-3.299-3.2985 2.269-2.2478 3.277 3.2771 3.299-3.2771 2.268 2.2478-3.298 3.2985z" fill="#fff"/><rect height="53.932" rx="3.63" shape-rendering="crispEdges" stroke="#585c65" stroke-width="1.037" width="561.963" x="263.519" y="74.986"/></g></g><path d="m256.582 32.268h573.837v324.4h-573.837z" stroke="#90939f" stroke-width=".663"/></svg>