<svg fill="none" height="138" viewBox="0 0 590 138" width="590" xmlns="http://www.w3.org/2000/svg" xmlns:xlink="http://www.w3.org/1999/xlink"><filter id="a" color-interpolation-filters="sRGB" filterUnits="userSpaceOnUse" height="137.097" width="588.292" x=".854" y="0"><feFlood flood-opacity="0" result="BackgroundImageFix"/><feColorMatrix in="SourceAlpha" result="hardAlpha" type="matrix" values="0 0 0 0 0 0 0 0 0 0 0 0 0 0 0 0 0 0 127 0"/><feOffset dy="3.146"/><feGaussianBlur stdDeviation="1.573"/><feComposite in2="hardAlpha" operator="out"/><feColorMatrix type="matrix" values="0 0 0 0 0 0 0 0 0 0 0 0 0 0 0 0 0 0 0.25 0"/><feBlend in2="BackgroundImageFix" mode="normal" result="effect1_dropShadow_7362_83633"/><feBlend in="SourceGraphic" in2="effect1_dropShadow_7362_83633" mode="normal" result="shape"/></filter><linearGradient id="b" gradientUnits="userSpaceOnUse" x1="63.773" x2="41.751" y1="30.673" y2="30.673"><stop offset="0" stop-color="#0191d9"/><stop offset="1" stop-color="#0191d9" stop-opacity="0"/></linearGradient><g filter="url(#a)"><rect fill="#000" height="130.805" rx="6.292" shape-rendering="crispEdges" width="582" x="4"/><circle cx="24.449" cy="24.381" fill="#1e1e1e" r="4.719"/><circle cx="24.449" cy="24.381" fill="#1e1e1e" r="4.719"/><path clip-rule="evenodd" d="m41.7514 22.8332c-10.4109 0-18.8506 8.4397-18.8506 18.8505 0 10.4109 8.4397 18.8505 18.8506 18.8505 10.4108 0 18.8505-8.4396 18.8505-18.8505 0-10.4108-8.4397-18.8505-18.8505-18.8505zm-22.0217 18.8505c0-12.1622 9.8595-22.0216 22.0217-22.0216s22.0216 9.8594 22.0216 22.0216-9.8594 22.0216-22.0216 22.0216-22.0217-9.8594-22.0217-22.0216z" fill="#fff" fill-rule="evenodd"/><path clip-rule="evenodd" d="m60.6018 41.6837c0-10.4108-8.4396-18.8505-18.8505-18.8505v-3.1711c12.1622 0 22.0216 9.8594 22.0216 22.0216z" fill="url(#b)" fill-rule="evenodd"/><path clip-rule="evenodd" d="m60.6018 41.6837c0-10.4108-8.4396-18.8505-18.8505-18.8505v-3.1711c12.1622 0 22.0216 9.8594 22.0216 22.0216z" fill="#0191d9" fill-rule="evenodd"/><g fill="#fff"><path d="m36.2458 38.0135v5.5055h-5.5054v-5.5055z"/><path d="m52.7622 38.0135v5.5055h-5.5054v-5.5055z"/><path d="m44.5042 38.0135v5.5055h-5.5055v-5.5055z"/><path d="m78.1939 48.527v-14.5976h3.0952v12.0415h5.9209v2.5561zm21.585-5.6014c0 .9319-.1264 1.7573-.3794 2.4762-.2463.7189-.6091 1.3279-1.0883 1.8272-.4726.4925-1.0451.8653-1.7174 1.1183-.6656.2529-1.4178.3794-2.2565.3794-.7855 0-1.5077-.1265-2.1667-.3794-.6523-.253-1.2215-.6258-1.7074-1.1183-.4792-.4993-.852-1.1083-1.1183-1.8272-.2596-.7189-.3894-1.5443-.3894-2.4762 0-1.2381.2197-2.2865.659-3.1452s1.0651-1.511 1.8771-1.957c.8121-.446 1.7806-.669 2.9056-.669 1.045 0 1.9703.223 2.7757.669.8121.446 1.4478 1.0983 1.9071 1.957.466.8587.6989 1.9071.6989 3.1452zm-7.7181 0c0 .7322.0798 1.3479.2396 1.8471.1598.4993.4094.8754.7489 1.1283.3394.2529.7821.3794 1.3279.3794.5392 0 .9752-.1265 1.308-.3794.3395-.2529.5858-.629.7389-1.1283.1597-.4992.2396-1.1149.2396-1.8471 0-.7389-.0799-1.3513-.2396-1.8372-.1531-.4926-.3994-.862-.7389-1.1083s-.7821-.3695-1.328-.3695c-.8054 0-1.3912.2763-1.7573.8288-.3594.5525-.5391 1.3812-.5391 2.4862zm14.9252-5.7912c1.498 0 2.646.3262 3.445.9785.799.6524 1.198 1.6442 1.198 2.9755v7.4386h-2.127l-.589-1.5177h-.08c-.319.3994-.645.7256-.978.9785s-.716.4393-1.149.5591c-.432.1199-.958.1798-1.577.1798-.659 0-1.252-.1265-1.777-.3794-.52-.253-.929-.6391-1.229-1.1583-.299-.5258-.449-1.1915-.449-1.9969 0-1.1849.416-2.0569 1.248-2.616.832-.5658 2.08-.8787 3.745-.9386l1.937-.0599v-.4892c0-.5858-.154-1.0151-.46-1.288-.306-.273-.732-.4094-1.278-.4094-.539 0-1.068.0765-1.587.2296-.52.1531-1.039.3462-1.558.5791l-1.008-2.0568c.592-.3129 1.254-.5591 1.987-.7389.738-.1797 1.501-.2696 2.286-.2696zm1.618 6.2205-1.179.0399c-.985.0267-1.67.2031-2.056.5292-.38.3262-.57.7555-.57 1.2881 0 .4659.137.7987.41.9984.273.1931.629.2896 1.068.2896.652 0 1.202-.1931 1.648-.5791.452-.3861.679-.9353.679-1.6475zm9.823 5.3718c-1.245 0-2.26-.486-3.046-1.4578-.778-.9785-1.168-2.413-1.168-4.3034 0-1.9104.396-3.3549 1.188-4.3334.792-.9851 1.827-1.4777 3.106-1.4777.532 0 1.001.0732 1.407.2197.406.1464.756.3428 1.049.5891.299.2463.552.5225.759.8287h.099c-.039-.213-.089-.5259-.149-.9386-.054-.4193-.08-.8487-.08-1.288v-3.5745h3.055v15.5362h-2.336l-.589-1.4478h-.13c-.193.3062-.436.5858-.729.8387-.286.2463-.629.4427-1.029.5891-.399.1465-.868.2197-1.407.2197zm1.068-2.4263c.832 0 1.418-.2463 1.757-.7389.346-.4992.53-1.2481.549-2.2465v-.3295c0-1.085-.166-1.9138-.499-2.4862-.333-.5791-.952-.8687-1.857-.8687-.672 0-1.198.2896-1.577.8687-.38.5791-.57 1.4145-.57 2.5061 0 1.0917.19 1.9138.57 2.4663.386.5524.928.8287 1.627.8287zm11.501-8.9363v11.1629h-3.046v-11.1629zm-1.518-4.3733c.453 0 .842.1065 1.168.3195.326.2064.489.5958.489 1.1682 0 .5658-.163.9585-.489 1.1782-.326.213-.715.3195-1.168.3195-.459 0-.852-.1065-1.178-.3195-.32-.2197-.48-.6124-.48-1.1782 0-.5724.16-.9618.48-1.1682.326-.213.719-.3195 1.178-.3195zm11.181 4.1636c1.191 0 2.15.3262 2.875.9785.726.6457 1.089 1.6841 1.089 3.1152v7.2789h-3.046v-6.52c0-.7988-.146-1.4012-.439-1.8073-.286-.406-.739-.609-1.358-.609-.932 0-1.567.3162-1.907.9485-.339.6324-.509 1.5443-.509 2.7358v5.252h-3.045v-11.1629h2.326l.409 1.4278h.17c.24-.3861.536-.6989.889-.9386.359-.2396.755-.416 1.188-.5291.439-.1132.892-.1698 1.358-.1698zm10.482 16.285c-1.558 0-2.749-.2729-3.575-.8187-.818-.5392-1.228-1.298-1.228-2.2765 0-.6723.21-1.2348.629-1.6874.42-.4527 1.035-.7755 1.848-.9685-.313-.1332-.586-.3495-.819-.649-.233-.3062-.35-.6291-.35-.9686 0-.426.123-.7788.37-1.0583.246-.2863.602-.5658 1.068-.8387-.586-.253-1.052-.659-1.398-1.2182-.339-.5591-.509-1.2181-.509-1.9769 0-.8121.176-1.5011.529-2.0669.36-.5724.879-1.0084 1.558-1.308.685-.2995 1.518-.4493 2.496-.4493.206 0 .446.0133.719.04.273.0266.522.0565.749.0898.233.0333.389.0599.469.0799h3.894v1.5476l-1.747.4493c.16.2463.279.5092.359.7888s.12.5758.12.8887c0 1.1981-.419 2.1334-1.258 2.8057-.832.6656-1.99.9984-3.475.9984-.353-.0199-.685-.0466-.998-.0799-.153.1199-.27.2463-.35.3795-.08.1331-.119.2729-.119.4193 0 .1465.059.2696.179.3695.127.0931.313.1664.559.2196.253.0466.566.0699.939.0699h1.897c1.225 0 2.157.2629 2.796.7888.645.5259.968 1.298.968 2.3165 0 1.3046-.546 2.3164-1.637 3.0353-1.085.7189-2.646 1.0783-4.683 1.0783zm.13-1.9869c.725 0 1.348-.0699 1.867-.2097.526-.1331.928-.3262 1.208-.5791.28-.2463.419-.5425.419-.8886 0-.2796-.083-.5026-.249-.669-.16-.1598-.406-.2729-.739-.3395-.326-.0666-.746-.0998-1.258-.0998h-1.578c-.372 0-.709.0599-1.008.1797-.293.1198-.526.2862-.699.4992-.173.2197-.26.4726-.26.7589 0 .4193.2.7488.599.9884.406.2397.972.3595 1.698.3595zm.489-8.467c.572 0 .992-.1764 1.258-.5292s.399-.8321.399-1.4378c0-.6723-.139-1.1749-.419-1.5077-.273-.3395-.686-.5092-1.238-.5092-.559 0-.978.1697-1.258.5092-.28.3328-.419.8354-.419 1.5077 0 .6057.136 1.085.409 1.4378.28.3528.702.5292 1.268.5292zm26.416 5.5415h-3.934l-6.35-11.0431h-.09c.026.4593.05.9219.07 1.3879.02.4659.04.9319.06 1.3978.019.4593.039.922.059 1.3879v6.8695h-2.765v-14.5976h3.904l6.34 10.9332h.07c-.013-.4526-.03-.902-.05-1.3479-.02-.446-.04-.892-.06-1.338-.013-.446-.027-.892-.04-1.3379v-6.9094h2.786zm13.707-5.6014c0 .9319-.127 1.7573-.379 2.4762-.247.7189-.61 1.3279-1.089 1.8272-.472.4925-1.045.8653-1.717 1.1183-.666.2529-1.418.3794-2.257.3794-.785 0-1.507-.1265-2.166-.3794-.653-.253-1.222-.6258-1.708-1.1183-.479-.4993-.852-1.1083-1.118-1.8272-.26-.7189-.389-1.5443-.389-2.4762 0-1.2381.219-2.2865.659-3.1452.439-.8587 1.065-1.511 1.877-1.957s1.78-.669 2.905-.669c1.045 0 1.971.223 2.776.669.812.446 1.448 1.0983 1.907 1.957.466.8587.699 1.9071.699 3.1452zm-7.718 0c0 .7322.08 1.3479.239 1.8471.16.4993.41.8754.749 1.1283.34.2529.782.3794 1.328.3794.539 0 .975-.1265 1.308-.3794.34-.2529.586-.629.739-1.1283.16-.4992.24-1.1149.24-1.8471 0-.7389-.08-1.3513-.24-1.8372-.153-.4926-.399-.862-.739-1.1083-.339-.2463-.782-.3695-1.328-.3695-.805 0-1.391.2763-1.757.8288-.359.5525-.539 1.3812-.539 2.4862zm15.055 3.3748c.333 0 .656-.0333.968-.0999.32-.0665.636-.1497.949-.2496v2.2666c-.326.1464-.732.2662-1.218.3594-.479.0998-1.005.1498-1.578.1498-.665 0-1.265-.1065-1.797-.3195-.526-.2197-.942-.5958-1.248-1.1283-.3-.5392-.449-1.288-.449-2.2466v-5.3817h-1.458v-1.288l1.677-1.0185.879-2.3564h1.947v2.3764h3.125v2.2865h-3.125v5.3817c0 .426.12.7456.359.9586.247.2063.569.3095.969.3095zm7.347-8.9363v11.1629h-3.046v-11.1629zm-1.518-4.3733c.453 0 .842.1065 1.168.3195.326.2064.49.5958.49 1.1682 0 .5658-.164.9585-.49 1.1782-.326.213-.715.3195-1.168.3195-.459 0-.852-.1065-1.178-.3195-.32-.2197-.479-.6124-.479-1.1782 0-.5724.159-.9618.479-1.1682.326-.213.719-.3195 1.178-.3195zm11.011 6.6598h-2.636v8.8764h-3.045v-8.8764h-1.677v-1.4678l1.677-.8187v-.8188c0-.9518.16-1.6907.479-2.2166.326-.5325.782-.9052 1.368-1.1182.593-.2197 1.292-.3295 2.097-.3295.592 0 1.132.0499 1.618.1497.485.0932.882.1997 1.188.3195l-.779 2.2366c-.233-.0732-.486-.1398-.759-.1997s-.586-.0898-.938-.0898c-.427 0-.739.1298-.939.3894-.193.2529-.29.5791-.29.9785v.6989h2.636zm4.921-2.2865v11.1629h-3.045v-11.1629zm-1.518-4.3733c.453 0 .842.1065 1.168.3195.327.2064.49.5958.49 1.1682 0 .5658-.163.9585-.49 1.1782-.326.213-.715.3195-1.168.3195-.459 0-.852-.1065-1.178-.3195-.319-.2197-.479-.6124-.479-1.1782 0-.5724.16-.9618.479-1.1682.326-.213.719-.3195 1.178-.3195zm9.374 15.7359c-1.105 0-2.047-.1997-2.826-.5991-.778-.4061-1.371-1.0318-1.777-1.8771-.406-.8454-.609-1.9271-.609-3.2451 0-1.3645.23-2.4762.689-3.3348.466-.8654 1.108-1.5011 1.927-1.9071.825-.4061 1.781-.6091 2.866-.6091.772 0 1.437.0766 1.997.2297.565.1464 1.058.3228 1.477.5292l-.898 2.3563c-.48-.193-.926-.3494-1.338-.4692-.413-.1265-.826-.1898-1.238-.1898-.533 0-.976.1265-1.328.3795-.353.2463-.616.619-.789 1.1183-.173.4992-.26 1.1249-.26 1.8771 0 .7388.093 1.3512.28 1.8372.186.4859.456.8487.809 1.0883.352.233.782.3495 1.288.3495.632 0 1.194-.0833 1.687-.2497.493-.173.972-.4127 1.438-.7189v2.606c-.466.2929-.955.5026-1.468.6291-.506.1331-1.148.1997-1.927.1997zm10.682-11.5923c1.498 0 2.646.3262 3.445.9785.798.6524 1.198 1.6442 1.198 2.9755v7.4386h-2.127l-.589-1.5177h-.08c-.32.3994-.646.7256-.978.9785-.333.2529-.716.4393-1.149.5591-.432.1199-.958.1798-1.577.1798-.659 0-1.252-.1265-1.778-.3794-.519-.253-.928-.6391-1.228-1.1583-.299-.5258-.449-1.1915-.449-1.9969 0-1.1849.416-2.0569 1.248-2.616.832-.5658 2.08-.8787 3.744-.9386l1.937-.0599v-.4892c0-.5858-.153-1.0151-.459-1.288-.306-.273-.732-.4094-1.278-.4094-.539 0-1.068.0765-1.588.2296-.519.1531-1.038.3462-1.557.5791l-1.009-2.0568c.593-.3129 1.255-.5591 1.987-.7389.739-.1797 1.501-.2696 2.287-.2696zm1.617 6.2205-1.178.0399c-.985.0267-1.671.2031-2.057.5292-.379.3262-.569.7555-.569 1.2881 0 .4659.137.7987.41.9984.272.1931.629.2896 1.068.2896.652 0 1.201-.1931 1.647-.5791.453-.3861.679-.9353.679-1.6475zm10.992 2.9455c.332 0 .655-.0333.968-.0999.32-.0665.636-.1497.949-.2496v2.2666c-.326.1464-.732.2662-1.218.3594-.48.0998-1.006.1498-1.578.1498-.666 0-1.265-.1065-1.797-.3195-.526-.2197-.942-.5958-1.248-1.1283-.3-.5392-.45-1.288-.45-2.2466v-5.3817h-1.457v-1.288l1.677-1.0185.879-2.3564h1.947v2.3764h3.125v2.2865h-3.125v5.3817c0 .426.12.7456.359.9586.246.2063.569.3095.969.3095zm7.347-8.9363v11.1629h-3.046v-11.1629zm-1.518-4.3733c.453 0 .842.1065 1.168.3195.326.2064.489.5958.489 1.1682 0 .5658-.163.9585-.489 1.1782-.326.213-.715.3195-1.168.3195-.459 0-.852-.1065-1.178-.3195-.32-.2197-.48-.6124-.48-1.1782 0-.5724.16-.9618.48-1.1682.326-.213.719-.3195 1.178-.3195zm14.985 9.9348c0 .9319-.126 1.7573-.379 2.4762-.247.7189-.609 1.3279-1.089 1.8272-.472.4925-1.045.8653-1.717 1.1183-.666.2529-1.418.3794-2.257.3794-.785 0-1.507-.1265-2.166-.3794-.653-.253-1.222-.6258-1.708-1.1183-.479-.4993-.852-1.1083-1.118-1.8272-.26-.7189-.389-1.5443-.389-2.4762 0-1.2381.219-2.2865.659-3.1452.439-.8587 1.065-1.511 1.877-1.957s1.78-.669 2.905-.669c1.045 0 1.971.223 2.776.669.812.446 1.448 1.0983 1.907 1.957.466.8587.699 1.9071.699 3.1452zm-7.718 0c0 .7322.08 1.3479.24 1.8471.159.4993.409.8754.748 1.1283.34.2529.783.3794 1.328.3794.54 0 .976-.1265 1.308-.3794.34-.2529.586-.629.739-1.1283.16-.4992.24-1.1149.24-1.8471 0-.7389-.08-1.3513-.24-1.8372-.153-.4926-.399-.862-.739-1.1083-.339-.2463-.782-.3695-1.328-.3695-.805 0-1.391.2763-1.757.8288-.359.5525-.539 1.3812-.539 2.4862zm16.692-5.7712c1.192 0 2.15.3262 2.876.9785.726.6457 1.088 1.6841 1.088 3.1152v7.2789h-3.045v-6.52c0-.7988-.146-1.4012-.439-1.8073-.287-.406-.739-.609-1.358-.609-.932 0-1.568.3162-1.907.9485-.34.6324-.509 1.5443-.509 2.7358v5.252h-3.046v-11.1629h2.327l.409 1.4278h.17c.239-.3861.536-.6989.888-.9386.36-.2396.756-.416 1.189-.5291.439-.1132.892-.1698 1.357-.1698z"/><path d="m77.7392 80.2783v-10.106h1.1751v9.0553h4.4862v1.0507zm13.7558-3.8018c0 .6221-.0806 1.1774-.2419 1.6659-.1613.4884-.394.9009-.6982 1.2373-.3041.3364-.6728.5945-1.106.7742-.4285.1751-.9147.2627-1.4585.2627-.5069 0-.9724-.0876-1.3963-.2627-.4194-.1797-.7834-.4378-1.0922-.7742-.3042-.3364-.5415-.7489-.712-1.2373-.1659-.4885-.2488-1.0438-.2488-1.6659 0-.8295.1405-1.5346.4216-2.1153.2811-.5852.6821-1.0299 1.2028-1.3341.5253-.3087 1.1498-.4631 1.8733-.4631.6912 0 1.2949.1544 1.811.4631.5208.3088.924.7558 1.2097 1.3411.2904.5806.4355 1.2834.4355 2.1083zm-5.765 0c0 .6083.0807 1.1359.2419 1.5829.1613.447.4102.7926.7466 1.0369.3364.2442.7696.3663 1.2995.3663.5254 0 .9563-.1221 1.2927-.3663.341-.2443.5921-.5899.7534-1.0369s.242-.9746.242-1.5829c0-.6037-.0807-1.1245-.242-1.5623-.1613-.4424-.4101-.7834-.7465-1.023s-.7719-.3595-1.3065-.3595c-.788 0-1.3663.2604-1.735.7812-.3641.5207-.5461 1.2419-.5461 2.1636zm11.1913-3.9125c.1521 0 .3111.0092.477.0276.1659.0139.3133.0346.4424.0623l-.1452 1.0645c-.1244-.0323-.2627-.0576-.4147-.0761-.1521-.0184-.295-.0276-.4286-.0276-.3042 0-.5922.0622-.8641.1866-.2673.1198-.5023.295-.705.5254-.2028.2258-.3618.5-.477.8226-.1152.3179-.1728.6728-.1728 1.0645v4.0645h-1.1544v-7.5761h.9539l.1244 1.3964h.0484c.1567-.2811.3457-.5369.5669-.7673.2212-.235.4769-.4217.7672-.5599.295-.1383.6222-.2074.9816-.2074zm5.2677 0c.645 0 1.198.1429 1.659.4286.46.2857.813.6866 1.057 1.2027.244.5116.367 1.1106.367 1.7973v.712h-5.233c.014.8894.235 1.5668.663 2.0322.429.4655 1.033.6982 1.812.6982.479 0 .903-.0438 1.271-.1313.369-.0876.752-.2166 1.148-.3871v1.0092c-.383.1705-.763.2949-1.141.3733-.373.0783-.815.1175-1.327.1175-.728 0-1.364-.1475-1.908-.4424-.539-.2996-.9583-.7374-1.2578-1.3134s-.4493-1.2811-.4493-2.1152c0-.8157.1359-1.5208.4078-2.1152.2765-.5991.6636-1.06 1.1613-1.3825.502-.3226 1.092-.4839 1.77-.4839zm-.014.9401c-.613 0-1.102.2005-1.466.6014s-.58.9608-.649 1.6797h4.009c-.005-.4516-.076-.8479-.214-1.1889-.134-.3457-.339-.6129-.616-.8019-.276-.1935-.631-.2903-1.064-.2903zm13.272-.9401c.834 0 1.463.2189 1.887.6567.424.4332.636 1.1313.636 2.0945v4.9631h-1.134v-4.9078c0-.6129-.133-1.0715-.401-1.3756-.262-.3088-.654-.4632-1.175-.4632-.733 0-1.265.212-1.597.636-.331.424-.497 1.0484-.497 1.8733v4.2373h-1.141v-4.9078c0-.4102-.06-.7512-.18-1.0231-.115-.2719-.29-.4746-.525-.6083-.23-.1382-.523-.2074-.878-.2074-.502 0-.905.1037-1.21.3111-.304.2074-.525.5161-.663.9263-.134.4055-.201.9055-.201 1.5v4.0092h-1.147v-7.5761h.926l.173 1.0715h.062c.152-.2627.344-.4839.574-.6636s.488-.3157.774-.4079c.286-.0921.59-.1382.913-.1382.576 0 1.057.1083 1.444.3249.392.212.675.5368.851.9746h.062c.249-.4378.59-.7626 1.023-.9746.433-.2166.908-.3249 1.424-.3249zm9.705.1382v7.5761h-1.148v-7.5761zm-.56-2.8341c.189 0 .35.0622.484.1867.138.1198.207.3087.207.5668 0 .2534-.069.4424-.207.5668-.134.1244-.295.1866-.484.1866-.198 0-.364-.0622-.498-.1866-.129-.1244-.193-.3134-.193-.5668 0-.2581.064-.447.193-.5668.134-.1245.3-.1867.498-.1867zm6.553 2.6959c.945 0 1.698.3249 2.26.9747.563.6497.844 1.6267.844 2.9308 0 .8618-.129 1.5853-.387 2.1706-.258.5852-.623 1.0276-1.093 1.3272-.465.2995-1.016.4493-1.652.4493-.401 0-.753-.053-1.057-.159s-.565-.2489-.781-.4286c-.217-.1797-.397-.3756-.54-.5876h-.082c.013.1798.029.3964.048.6498.023.2535.034.4747.034.6636v3.1106h-1.154v-10.9632h.947l.152 1.1199h.055c.148-.2305.328-.4401.54-.6291.212-.1935.47-.3456.774-.4562.309-.1152.673-.1728 1.092-.1728zm-.2.9677c-.526 0-.95.1014-1.272.3042-.318.2028-.551.5069-.699.9124-.147.401-.225.9056-.235 1.5139v.2212c0 .6405.07 1.182.208 1.6244.143.4424.375.7788.698 1.0092.327.2304.765.3456 1.313.3456.47 0 .862-.1267 1.175-.3801.314-.2535.547-.606.699-1.0576.156-.4563.235-.9793.235-1.5692 0-.894-.175-1.6037-.526-2.129-.345-.53-.878-.795-1.596-.795zm10.209 4.6729c0 .4839-.122.8917-.366 1.2235-.24.3272-.585.5737-1.037.7396-.447.1659-.982.2489-1.604.2489-.53 0-.988-.0415-1.375-.1245-.387-.0829-.726-.2004-1.016-.3525v-1.0576c.308.1521.677.2903 1.106.4147.428.1245.866.1867 1.313.1867.654 0 1.129-.106 1.424-.318s.442-.5.442-.864c0-.2074-.06-.3895-.179-.5461-.116-.1613-.311-.3157-.588-.4632-.276-.152-.659-.3179-1.147-.4977-.484-.1843-.904-.3663-1.258-.5461-.351-.1843-.623-.4078-.816-.6705-.189-.2626-.284-.6037-.284-1.023 0-.6406.259-1.1314.775-1.4724.52-.3456 1.202-.5184 2.046-.5184.456 0 .882.0461 1.279.1382.4.0876.774.2074 1.119.3595l-.387.9194c-.313-.1337-.647-.2466-1.002-.3388-.355-.0921-.717-.1382-1.085-.1382-.53 0-.938.0875-1.224.2627-.281.1751-.421.4147-.421.7189 0 .235.064.4285.193.5806.134.1521.346.2949.636.4286.29.1336.673.2903 1.147.47.475.1751.885.3572 1.231.5461.346.1844.611.4102.795.6774.189.2627.283.6014.283 1.0162zm8.102-5.5024v7.5761h-.94l-.166-1.0645h-.063c-.156.2627-.359.4839-.608.6636s-.53.3134-.843.4009c-.309.0922-.638.1383-.989.1383-.599 0-1.101-.0968-1.507-.2904-.405-.1935-.712-.493-.919-.8986-.203-.4055-.304-.9262-.304-1.5622v-4.9632h1.161v4.8803c0 .6313.143 1.1036.429 1.417.286.3088.721.4631 1.306.4631.562 0 1.009-.1059 1.341-.3179.337-.212.579-.5231.726-.9332.148-.4148.221-.9217.221-1.5208v-3.9885zm10.652-.1382c.834 0 1.463.2189 1.887.6567.424.4332.636 1.1313.636 2.0945v4.9631h-1.134v-4.9078c0-.6129-.133-1.0715-.401-1.3756-.262-.3088-.654-.4632-1.175-.4632-.733 0-1.265.212-1.597.636-.331.424-.497 1.0484-.497 1.8733v4.2373h-1.141v-4.9078c0-.4102-.06-.7512-.18-1.0231-.115-.2719-.29-.4746-.525-.6083-.23-.1382-.523-.2074-.878-.2074-.502 0-.905.1037-1.209.3111-.305.2074-.526.5161-.664.9263-.134.4055-.201.9055-.201 1.5v4.0092h-1.147v-7.5761h.926l.173 1.0715h.062c.152-.2627.344-.4839.574-.6636s.488-.3157.774-.4079c.286-.0921.59-.1382.913-.1382.576 0 1.057.1083 1.444.3249.392.212.675.5368.851.9746h.062c.249-.4378.59-.7626 1.023-.9746.433-.2166.908-.3249 1.424-.3249zm11.253 7.8526c-.958 0-1.719-.3272-2.281-.9816-.557-.6544-.836-1.6267-.836-2.9171 0-1.3041.286-2.288.857-2.9516.571-.6682 1.332-1.0023 2.281-1.0023.401 0 .751.053 1.051.159.299.106.557.2488.774.4286.217.1751.399.3755.546.6013h.083c-.018-.1428-.037-.3387-.055-.5875-.019-.2489-.028-.4516-.028-.6083v-3.0346h1.148v10.7558h-.927l-.173-1.0783h-.048c-.143.2258-.325.4309-.546.6152-.217.1843-.477.3318-.781.4424-.3.106-.655.159-1.065.159zm.18-.954c.811 0 1.385-.2304 1.721-.6912.337-.4608.505-1.1452.505-2.053v-.2074c0-.9631-.161-1.7028-.484-2.2189-.318-.5161-.899-.7742-1.742-.7742-.705 0-1.233.2719-1.583.8157-.35.5392-.525 1.2765-.525 2.212 0 .9309.173 1.6498.518 2.1567.35.5069.88.7603 1.59.7603zm12.325-2.9861c0 .6221-.081 1.1774-.242 1.6659-.161.4884-.394.9009-.698 1.2373s-.673.5945-1.106.7742c-.429.1751-.915.2627-1.459.2627-.507 0-.972-.0876-1.396-.2627-.419-.1797-.783-.4378-1.092-.7742-.304-.3364-.542-.7489-.712-1.2373-.166-.4885-.249-1.0438-.249-1.6659 0-.8295.141-1.5346.422-2.1153.281-.5852.682-1.0299 1.202-1.3341.526-.3087 1.15-.4631 1.874-.4631.691 0 1.295.1544 1.811.4631.521.3088.924.7558 1.21 1.3411.29.5806.435 1.2834.435 2.1083zm-5.765 0c0 .6083.081 1.1359.242 1.5829s.41.7926.746 1.0369c.337.2442.77.3663 1.3.3663.525 0 .956-.1221 1.293-.3663.341-.2443.592-.5899.753-1.0369s.242-.9746.242-1.5829c0-.6037-.081-1.1245-.242-1.5623-.161-.4424-.41-.7834-.746-1.023-.337-.2396-.772-.3595-1.307-.3595-.788 0-1.366.2604-1.735.7812-.364.5207-.546 1.2419-.546 2.1636zm8.903 3.8018h-1.154v-10.7558h1.154zm8.959-3.8018c0 .6221-.081 1.1774-.242 1.6659-.161.4884-.394.9009-.698 1.2373s-.673.5945-1.106.7742c-.429.1751-.915.2627-1.459.2627-.507 0-.972-.0876-1.396-.2627-.419-.1797-.784-.4378-1.092-.7742-.304-.3364-.542-.7489-.712-1.2373-.166-.4885-.249-1.0438-.249-1.6659 0-.8295.14-1.5346.422-2.1153.281-.5852.682-1.0299 1.202-1.3341.526-.3087 1.15-.4631 1.874-.4631.691 0 1.295.1544 1.811.4631.52.3088.924.7558 1.209 1.3411.291.5806.436 1.2834.436 2.1083zm-5.765 0c0 .6083.08 1.1359.242 1.5829.161.447.41.7926.746 1.0369.337.2442.77.3663 1.3.3663.525 0 .956-.1221 1.293-.3663.341-.2443.592-.5899.753-1.0369s.242-.9746.242-1.5829c0-.6037-.081-1.1245-.242-1.5623-.161-.4424-.41-.7834-.747-1.023-.336-.2396-.771-.3595-1.306-.3595-.788 0-1.366.2604-1.735.7812-.364.5207-.546 1.2419-.546 2.1636zm11.191-3.9125c.152 0 .311.0092.477.0276.166.0139.313.0346.442.0623l-.145 1.0645c-.124-.0323-.262-.0576-.414-.0761-.152-.0184-.295-.0276-.429-.0276-.304 0-.592.0622-.864.1866-.267.1198-.502.295-.705.5254-.203.2258-.362.5-.477.8226-.115.3179-.173.6728-.173 1.0645v4.0645h-1.154v-7.5761h.954l.124 1.3964h.048c.157-.2811.346-.5369.567-.7673.221-.235.477-.4217.768-.5599.294-.1383.622-.2074.981-.2074zm10.929 5.6406c0 .4839-.122.8917-.367 1.2235-.239.3272-.585.5737-1.036.7396-.447.1659-.982.2489-1.604.2489-.53 0-.989-.0415-1.376-.1245-.387-.0829-.726-.2004-1.016-.3525v-1.0576c.309.1521.678.2903 1.106.4147.429.1245.866.1867 1.313.1867.655 0 1.13-.106 1.424-.318.295-.212.443-.5.443-.864 0-.2074-.06-.3895-.18-.5461-.115-.1613-.311-.3157-.587-.4632-.277-.152-.659-.3179-1.148-.4977-.484-.1843-.903-.3663-1.258-.5461-.35-.1843-.622-.4078-.816-.6705-.189-.2626-.283-.6037-.283-1.023 0-.6406.258-1.1314.774-1.4724.521-.3456 1.203-.5184 2.046-.5184.456 0 .883.0461 1.279.1382.401.0876.774.2074 1.12.3595l-.387.9194c-.314-.1337-.648-.2466-1.003-.3388-.354-.0921-.716-.1382-1.085-.1382-.53 0-.938.0875-1.223.2627-.281.1751-.422.4147-.422.7189 0 .235.065.4285.194.5806.133.1521.345.2949.636.4286.29.1336.672.2903 1.147.47.475.1751.885.3572 1.23.5461.346.1844.611.4102.795.6774.189.2627.284.6014.284 1.0162zm2.993-5.5024v7.5761h-1.148v-7.5761zm-.56-2.8341c.189 0 .35.0622.484.1867.138.1198.207.3087.207.5668 0 .2534-.069.4424-.207.5668-.134.1244-.295.1866-.484.1866-.198 0-.364-.0622-.498-.1866-.129-.1244-.193-.3134-.193-.5668 0-.2581.064-.447.193-.5668.134-.1245.3-.1867.498-.1867zm5.44 9.6084c.189 0 .383-.0162.581-.0484.198-.0323.359-.0714.484-.1175v.8917c-.134.0599-.321.1106-.56.1521-.235.0414-.466.0622-.692.0622-.4 0-.765-.0692-1.092-.2074-.327-.1429-.59-.3825-.788-.7189-.193-.3364-.29-.8018-.29-1.3963v-4.4931h-1.078v-.5599l1.085-.4494.456-1.6451h.691v1.7557h2.219v.8987h-2.219v4.4585c0 .4747.109.8295.325 1.0645.221.2351.514.3526.878.3526zm9.111-6.8987c.903 0 1.573.2028 2.011.6083s.657 1.053.657 1.9424v5.1498h-.836l-.222-1.1198h-.055c-.212.2765-.433.5092-.664.6982-.23.1843-.497.3248-.801.4216-.3.0922-.669.1383-1.106.1383-.461 0-.871-.0807-1.231-.242-.355-.1613-.636-.4055-.843-.7327-.203-.3272-.304-.7419-.304-1.2442 0-.7558.299-1.3364.898-1.742.599-.4055 1.512-.6267 2.738-.6636l1.306-.0553v-.4631c0-.6544-.14-1.1129-.422-1.3756-.281-.2627-.677-.394-1.188-.394-.397 0-.775.0576-1.134.1728-.36.1152-.701.2512-1.023.4078l-.353-.8709c.341-.1751.733-.3249 1.175-.4493.443-.1245.908-.1867 1.397-.1867zm1.534 3.9678-1.154.0484c-.945.0368-1.611.1912-1.998.4631s-.58.6567-.58 1.1544c0 .4332.131.7534.394.9608.262.2074.61.3111 1.043.3111.673 0 1.224-.1867 1.652-.5599.429-.3733.643-.9332.643-1.6798zm11.724-3.9816c.834 0 1.463.2189 1.887.6567.424.4332.636 1.1313.636 2.0945v4.9631h-1.134v-4.9078c0-.6129-.133-1.0715-.401-1.3756-.262-.3088-.654-.4632-1.175-.4632-.732 0-1.265.212-1.597.636-.331.424-.497 1.0484-.497 1.8733v4.2373h-1.141v-4.9078c0-.4102-.06-.7512-.18-1.0231-.115-.2719-.29-.4746-.525-.6083-.23-.1382-.523-.2074-.878-.2074-.502 0-.905.1037-1.209.3111-.305.2074-.526.5161-.664.9263-.134.4055-.201.9055-.201 1.5v4.0092h-1.147v-7.5761h.926l.173 1.0715h.062c.152-.2627.344-.4839.574-.6636s.489-.3157.774-.4079c.286-.0921.59-.1382.913-.1382.576 0 1.057.1083 1.444.3249.392.212.676.5368.851.9746h.062c.249-.4378.59-.7626 1.023-.9746.433-.2166.908-.3249 1.424-.3249zm7.797 0c.645 0 1.198.1429 1.659.4286s.814.6866 1.058 1.2027c.244.5116.366 1.1106.366 1.7973v.712h-5.233c.014.8894.235 1.5668.664 2.0322.429.4655 1.032.6982 1.811.6982.479 0 .903-.0438 1.272-.1313.369-.0876.751-.2166 1.147-.3871v1.0092c-.382.1705-.762.2949-1.14.3733-.373.0783-.816.1175-1.327.1175-.728 0-1.364-.1475-1.908-.4424-.539-.2996-.959-.7374-1.258-1.3134-.3-.576-.45-1.2811-.45-2.1152 0-.8157.136-1.5208.408-2.1152.277-.5991.664-1.06 1.162-1.3825.502-.3226 1.092-.4839 1.769-.4839zm-.014.9401c-.613 0-1.101.2005-1.465.6014s-.581.9608-.65 1.6797h4.009c-.004-.4516-.076-.8479-.214-1.1889-.134-.3457-.339-.6129-.615-.8019-.277-.1935-.631-.2903-1.065-.2903zm7.493 5.9724c.189 0 .383-.0162.581-.0484.198-.0323.36-.0714.484-.1175v.8917c-.134.0599-.32.1106-.56.1521-.235.0414-.465.0622-.691.0622-.401 0-.765-.0692-1.092-.2074-.328-.1429-.59-.3825-.788-.7189-.194-.3364-.291-.8018-.291-1.3963v-4.4931h-1.078v-.5599l1.085-.4494.456-1.6451h.692v1.7557h2.219v.8987h-2.219v4.4585c0 .4747.108.8295.325 1.0645.221.2351.513.3526.877.3526zm3.913-.8433.09.1589c-.083.3364-.189.6959-.318 1.0784-.125.3825-.263.765-.415 1.1475-.147.3871-.297.7488-.449 1.0852h-.857c.096-.3687.191-.7581.283-1.1682.092-.4055.175-.8065.249-1.2028.078-.4009.14-.7673.186-1.099zm9.062 1.7834c-.682 0-1.283-.1406-1.804-.4217s-.926-.7097-1.217-1.2857c-.29-.5761-.435-1.3019-.435-2.1774 0-.9171.152-1.666.456-2.2466.309-.5853.733-1.0184 1.272-1.2995.539-.2812 1.152-.4217 1.839-.4217.378 0 .742.0392 1.092.1175.355.0737.645.1682.871.2834l-.346.9609c-.23-.0922-.497-.1752-.802-.2489-.299-.0737-.58-.1106-.843-.1106-.525 0-.963.1129-1.313.3387-.346.2258-.606.5576-.781.9954-.171.4378-.256.977-.256 1.6175 0 .6129.083 1.136.249 1.5692.17.4331.421.7649.753.9954.337.2258.756.3387 1.258.3387.401 0 .763-.0415 1.086-.1245.322-.0875.615-.1889.877-.3041v1.023c-.253.1291-.536.2282-.85.2973-.309.0691-.677.1037-1.106.1037zm10.286-3.9401c0 .6221-.081 1.1774-.242 1.6659-.161.4884-.394.9009-.698 1.2373s-.673.5945-1.106.7742c-.429.1751-.915.2627-1.459.2627-.507 0-.972-.0876-1.396-.2627-.419-.1797-.783-.4378-1.092-.7742-.304-.3364-.542-.7489-.712-1.2373-.166-.4885-.249-1.0438-.249-1.6659 0-.8295.141-1.5346.422-2.1153.281-.5852.682-1.0299 1.202-1.3341.526-.3087 1.15-.4631 1.874-.4631.691 0 1.295.1544 1.811.4631.52.3088.924.7558 1.209 1.3411.291.5806.436 1.2834.436 2.1083zm-5.765 0c0 .6083.081 1.1359.242 1.5829s.41.7926.746 1.0369c.337.2442.77.3663 1.3.3663.525 0 .956-.1221 1.293-.3663.341-.2443.592-.5899.753-1.0369s.242-.9746.242-1.5829c0-.6037-.081-1.1245-.242-1.5623-.161-.4424-.41-.7834-.747-1.023-.336-.2396-.771-.3595-1.306-.3595-.788 0-1.366.2604-1.735.7812-.364.5207-.546 1.2419-.546 2.1636zm11.336-3.9125c.899 0 1.579.2212 2.04.6636.46.4378.691 1.1429.691 2.1152v4.9355h-1.134v-4.8595c0-.6313-.145-1.1036-.435-1.417-.286-.3134-.726-.4701-1.321-.4701-.838 0-1.428.2374-1.769.712-.341.4747-.512 1.1636-.512 2.0669v3.9677h-1.147v-7.5761h.926l.173 1.0922h.062c.161-.2673.366-.4908.615-.6705.249-.1843.528-.3226.837-.4147.308-.0968.633-.1452.974-.1452zm9.996 5.6406c0 .4839-.122.8917-.367 1.2235-.239.3272-.585.5737-1.036.7396-.447.1659-.982.2489-1.604.2489-.53 0-.989-.0415-1.376-.1245-.387-.0829-.725-.2004-1.016-.3525v-1.0576c.309.1521.678.2903 1.106.4147.429.1245.867.1867 1.314.1867.654 0 1.129-.106 1.424-.318.294-.212.442-.5.442-.864 0-.2074-.06-.3895-.18-.5461-.115-.1613-.311-.3157-.587-.4632-.277-.152-.659-.3179-1.148-.4977-.484-.1843-.903-.3663-1.258-.5461-.35-.1843-.622-.4078-.816-.6705-.189-.2626-.283-.6037-.283-1.023 0-.6406.258-1.1314.774-1.4724.521-.3456 1.203-.5184 2.046-.5184.457 0 .883.0461 1.279.1382.401.0876.774.2074 1.12.3595l-.387.9194c-.314-.1337-.648-.2466-1.002-.3388-.355-.0921-.717-.1382-1.086-.1382-.53 0-.938.0875-1.223.2627-.281.1751-.422.4147-.422.7189 0 .235.065.4285.194.5806.133.1521.345.2949.636.4286.29.1336.672.2903 1.147.47.475.1751.885.3572 1.23.5461.346.1844.611.4102.795.6774.189.2627.284.6014.284 1.0162zm4.763-5.6406c.645 0 1.198.1429 1.659.4286.46.2857.813.6866 1.057 1.2027.244.5116.367 1.1106.367 1.7973v.712h-5.233c.014.8894.235 1.5668.663 2.0322.429.4655 1.033.6982 1.811.6982.48 0 .904-.0438 1.272-.1313.369-.0876.751-.2166 1.148-.3871v1.0092c-.383.1705-.763.2949-1.141.3733-.373.0783-.815.1175-1.327.1175-.728 0-1.364-.1475-1.908-.4424-.539-.2996-.958-.7374-1.258-1.3134-.299-.576-.449-1.2811-.449-2.1152 0-.8157.136-1.5208.408-2.1152.276-.5991.663-1.06 1.161-1.3825.502-.3226 1.092-.4839 1.77-.4839zm-.014.9401c-.613 0-1.102.2005-1.466.6014s-.58.9608-.65 1.6797h4.01c-.005-.4516-.076-.8479-.215-1.1889-.133-.3457-.338-.6129-.615-.8019-.276-.1935-.631-.2903-1.064-.2903zm8.08 6.9125c-.682 0-1.283-.1406-1.804-.4217s-.926-.7097-1.216-1.2857c-.291-.5761-.436-1.3019-.436-2.1774 0-.9171.152-1.666.456-2.2466.309-.5853.733-1.0184 1.272-1.2995.539-.2812 1.152-.4217 1.839-.4217.378 0 .742.0392 1.092.1175.355.0737.645.1682.871.2834l-.345.9609c-.231-.0922-.498-.1752-.802-.2489-.3-.0737-.581-.1106-.844-.1106-.525 0-.963.1129-1.313.3387-.346.2258-.606.5576-.781.9954-.171.4378-.256.977-.256 1.6175 0 .6129.083 1.136.249 1.5692.17.4331.422.7649.753.9954.337.2258.756.3387 1.258.3387.401 0 .763-.0415 1.086-.1245.322-.0875.615-.1889.878-.3041v1.023c-.254.1291-.537.2282-.851.2973-.308.0691-.677.1037-1.106.1037zm6.201-.9401c.189 0 .382-.0162.581-.0484.198-.0323.359-.0714.483-.1175v.8917c-.133.0599-.32.1106-.559.1521-.236.0414-.466.0622-.692.0622-.401 0-.765-.0692-1.092-.2074-.327-.1429-.59-.3825-.788-.7189-.193-.3364-.29-.8018-.29-1.3963v-4.4931h-1.079v-.5599l1.086-.4494.456-1.6451h.691v1.7557h2.219v.8987h-2.219v4.4585c0 .4747.108.8295.325 1.0645.221.2351.514.3526.878.3526zm5.516-6.9125c.645 0 1.198.1429 1.659.4286s.813.6866 1.058 1.2027c.244.5116.366 1.1106.366 1.7973v.712h-5.233c.014.8894.235 1.5668.664 2.0322.428.4655 1.032.6982 1.811.6982.479 0 .903-.0438 1.272-.1313.368-.0876.751-.2166 1.147-.3871v1.0092c-.382.1705-.762.2949-1.14.3733-.374.0783-.816.1175-1.327.1175-.729 0-1.365-.1475-1.908-.4424-.539-.2996-.959-.7374-1.258-1.3134-.3-.576-.45-1.2811-.45-2.1152 0-.8157.136-1.5208.408-2.1152.277-.5991.664-1.06 1.161-1.3825.503-.3226 1.093-.4839 1.77-.4839zm-.014.9401c-.613 0-1.101.2005-1.465.6014s-.581.9608-.65 1.6797h4.009c-.004-.4516-.076-.8479-.214-1.1889-.134-.3457-.339-.6129-.615-.8019-.277-.1935-.632-.2903-1.065-.2903zm7.493 5.9724c.189 0 .383-.0162.581-.0484.198-.0323.359-.0714.484-.1175v.8917c-.134.0599-.32.1106-.56.1521-.235.0414-.465.0622-.691.0622-.401 0-.765-.0692-1.092-.2074-.328-.1429-.59-.3825-.788-.7189-.194-.3364-.291-.8018-.291-1.3963v-4.4931h-1.078v-.5599l1.085-.4494.456-1.6451h.692v1.7557h2.218v.8987h-2.218v4.4585c0 .4747.108.8295.324 1.0645.222.2351.514.3526.878.3526zm8.855-6.7743v7.5761h-.94l-.166-1.0645h-.062c-.157.2627-.359.4839-.608.6636s-.53.3134-.844.4009c-.308.0922-.638.1383-.988.1383-.599 0-1.101-.0968-1.507-.2904-.406-.1935-.712-.493-.919-.8986-.203-.4055-.305-.9262-.305-1.5622v-4.9632h1.162v4.8803c0 .6313.143 1.1036.428 1.417.286.3088.722.4631 1.307.4631.562 0 1.009-.1059 1.341-.3179.336-.212.578-.5231.726-.9332.147-.4148.221-.9217.221-1.5208v-3.9885zm5.869-.1382c.152 0 .311.0092.477.0276.166.0139.313.0346.442.0623l-.145 1.0645c-.124-.0323-.263-.0576-.415-.0761-.152-.0184-.295-.0276-.428-.0276-.304 0-.592.0622-.864.1866-.268.1198-.503.295-.705.5254-.203.2258-.362.5-.477.8226-.116.3179-.173.6728-.173 1.0645v4.0645h-1.154v-7.5761h.953l.125 1.3964h.048c.157-.2811.346-.5369.567-.7673.221-.235.477-.4217.767-.5599.295-.1383.622-.2074.982-.2074zm8.862.0138c.903 0 1.573.2028 2.011.6083s.657 1.053.657 1.9424v5.1498h-.836l-.222-1.1198h-.055c-.212.2765-.433.5092-.664.6982-.23.1843-.497.3248-.801.4216-.3.0922-.669.1383-1.106.1383-.461 0-.871-.0807-1.231-.242-.355-.1613-.636-.4055-.843-.7327-.203-.3272-.304-.7419-.304-1.2442 0-.7558.299-1.3364.898-1.742.599-.4055 1.512-.6267 2.738-.6636l1.306-.0553v-.4631c0-.6544-.14-1.1129-.422-1.3756-.281-.2627-.677-.394-1.188-.394-.397 0-.775.0576-1.134.1728-.36.1152-.701.2512-1.023.4078l-.353-.8709c.341-.1751.733-.3249 1.175-.4493.443-.1245.908-.1867 1.397-.1867zm1.534 3.9678-1.154.0484c-.945.0368-1.611.1912-1.998.4631s-.58.6567-.58 1.1544c0 .4332.131.7534.394.9608.262.2074.61.3111 1.043.3111.673 0 1.224-.1867 1.652-.5599.429-.3733.643-.9332.643-1.6798zm6.194 3.871c-.959 0-1.719-.3272-2.281-.9816-.558-.6544-.837-1.6267-.837-2.9171 0-1.3041.286-2.288.858-2.9516.571-.6682 1.331-1.0023 2.281-1.0023.401 0 .751.053 1.05.159.3.106.558.2488.775.4286.216.1751.398.3755.546.6013h.083c-.019-.1428-.037-.3387-.056-.5875-.018-.2489-.027-.4516-.027-.6083v-3.0346h1.147v10.7558h-.926l-.173-1.0783h-.048c-.143.2258-.325.4309-.546.6152-.217.1843-.477.3318-.782.4424-.299.106-.654.159-1.064.159zm.18-.954c.811 0 1.384-.2304 1.721-.6912.336-.4608.504-1.1452.504-2.053v-.2074c0-.9631-.161-1.7028-.483-2.2189-.318-.5161-.899-.7742-1.742-.7742-.705 0-1.233.2719-1.583.8157-.351.5392-.526 1.2765-.526 2.212 0 .9309.173 1.6498.519 2.1567.35.5069.88.7603 1.59.7603zm6.94-6.7604v7.5761h-1.148v-7.5761zm-.56-2.8341c.189 0 .35.0622.484.1867.138.1198.207.3087.207.5668 0 .2534-.069.4424-.207.5668-.134.1244-.295.1866-.484.1866-.198 0-.364-.0622-.498-.1866-.129-.1244-.193-.3134-.193-.5668 0-.2581.064-.447.193-.5668.134-.1245.3-.1867.498-.1867zm6.553 2.6959c.945 0 1.698.3249 2.26.9747.562.6497.844 1.6267.844 2.9308 0 .8618-.129 1.5853-.388 2.1706-.258.5852-.622 1.0276-1.092 1.3272-.465.2995-1.016.4493-1.652.4493-.401 0-.753-.053-1.057-.159-.305-.106-.565-.2489-.782-.4286-.216-.1797-.396-.3756-.539-.5876h-.083c.014.1798.03.3964.049.6498.023.2535.034.4747.034.6636v3.1106h-1.154v-10.9632h.947l.152 1.1199h.055c.148-.2305.327-.4401.539-.6291.212-.1935.471-.3456.775-.4562.308-.1152.672-.1728 1.092-.1728zm-.201.9677c-.525 0-.949.1014-1.272.3042-.317.2028-.55.5069-.698.9124-.147.401-.225.9056-.235 1.5139v.2212c0 .6405.069 1.182.208 1.6244.143.4424.375.7788.698 1.0092.327.2304.765.3456 1.313.3456.47 0 .862-.1267 1.175-.3801.314-.2535.546-.606.698-1.0576.157-.4563.236-.9793.236-1.5692 0-.894-.176-1.6037-.526-2.129-.345-.53-.878-.795-1.597-.795zm6.457-.8295v7.5761h-1.148v-7.5761zm-.56-2.8341c.189 0 .35.0622.484.1867.138.1198.207.3087.207.5668 0 .2534-.069.4424-.207.5668-.134.1244-.295.1866-.484.1866-.198 0-.364-.0622-.498-.1866-.129-.1244-.194-.3134-.194-.5668 0-.2581.065-.447.194-.5668.134-.1245.3-.1867.498-.1867zm7.894 8.3365c0 .4839-.122.8917-.367 1.2235-.239.3272-.585.5737-1.036.7396-.447.1659-.982.2489-1.604.2489-.53 0-.989-.0415-1.376-.1245-.387-.0829-.726-.2004-1.016-.3525v-1.0576c.309.1521.678.2903 1.106.4147.429.1245.866.1867 1.313.1867.655 0 1.13-.106 1.424-.318.295-.212.443-.5.443-.864 0-.2074-.06-.3895-.18-.5461-.115-.1613-.311-.3157-.587-.4632-.277-.152-.659-.3179-1.148-.4977-.484-.1843-.903-.3663-1.258-.5461-.35-.1843-.622-.4078-.816-.6705-.189-.2626-.283-.6037-.283-1.023 0-.6406.258-1.1314.774-1.4724.521-.3456 1.203-.5184 2.046-.5184.456 0 .883.0461 1.279.1382.401.0876.774.2074 1.12.3595l-.387.9194c-.314-.1337-.648-.2466-1.003-.3388-.354-.0921-.716-.1382-1.085-.1382-.53 0-.938.0875-1.223.2627-.281.1751-.422.4147-.422.7189 0 .235.065.4285.194.5806.133.1521.345.2949.636.4286.29.1336.672.2903 1.147.47.475.1751.885.3572 1.23.5461.346.1844.611.4102.795.6774.189.2627.284.6014.284 1.0162zm4.88 2.212c-.682 0-1.283-.1406-1.804-.4217s-.926-.7097-1.217-1.2857c-.29-.5761-.435-1.3019-.435-2.1774 0-.9171.152-1.666.456-2.2466.309-.5853.733-1.0184 1.272-1.2995.539-.2812 1.152-.4217 1.839-.4217.377 0 .742.0392 1.092.1175.355.0737.645.1682.871.2834l-.346.9609c-.23-.0922-.498-.1752-.802-.2489-.299-.0737-.58-.1106-.843-.1106-.525 0-.963.1129-1.313.3387-.346.2258-.606.5576-.782.9954-.17.4378-.255.977-.255 1.6175 0 .6129.083 1.136.249 1.5692.17.4331.421.7649.753.9954.336.2258.756.3387 1.258.3387.401 0 .763-.0415 1.085-.1245.323-.0875.616-.1889.878-.3041v1.023c-.253.1291-.537.2282-.85.2973-.309.0691-.677.1037-1.106.1037zm4.901-7.7144v7.5761h-1.148v-7.5761zm-.56-2.8341c.189 0 .35.0622.484.1867.138.1198.207.3087.207.5668 0 .2534-.069.4424-.207.5668-.134.1244-.295.1866-.484.1866-.198 0-.364-.0622-.498-.1866-.129-.1244-.193-.3134-.193-.5668 0-.2581.064-.447.193-.5668.134-.1245.3-.1867.498-.1867zm6.581 2.6959c.898 0 1.578.2212 2.039.6636.461.4378.691 1.1429.691 2.1152v4.9355h-1.134v-4.8595c0-.6313-.145-1.1036-.435-1.417-.286-.3134-.726-.4701-1.32-.4701-.839 0-1.429.2374-1.77.712-.341.4747-.511 1.1636-.511 2.0669v3.9677h-1.148v-7.5761h.926l.173 1.0922h.062c.162-.2673.367-.4908.616-.6705.248-.1843.527-.3226.836-.4147.309-.0968.634-.1452.975-.1452zm7.209 11.1153c-.995 0-1.762-.1867-2.301-.56-.54-.3686-.809-.8871-.809-1.5553 0-.4746.15-.8801.449-1.2166.304-.3364.724-.5599 1.258-.6705-.198-.0921-.368-.2304-.511-.4147-.139-.1843-.208-.3963-.208-.636 0-.2765.076-.5184.228-.7258.157-.212.394-.4147.712-.6083-.396-.1613-.718-.4332-.967-.8156-.245-.3871-.367-.8365-.367-1.348 0-.5438.113-1.0069.339-1.3894.226-.3871.553-.682.982-.8848.428-.2027.947-.3041 1.555-.3041.134 0 .267.0069.401.0207.138.0092.269.0254.394.0484.124.0184.233.0415.325.0691h2.599v.7397l-1.397.1728c.139.1797.254.3963.346.6497.092.2535.138.5346.138.8434 0 .7557-.255 1.3571-.767 1.8041-.511.4424-1.214.6636-2.108.6636-.212 0-.429-.0184-.65-.0553-.226.1244-.399.2627-.518.4148-.116.152-.173.3272-.173.5253 0 .1475.044.265.131.3525.092.0876.224.1521.394.1936.171.0369.376.0553.615.0553h1.334c.825 0 1.457.1728 1.894.5184.443.3457.664.8503.664 1.5139 0 .8387-.341 1.4815-1.023 1.9285-.682.4471-1.668.6706-2.959.6706zm.035-.8987c.627 0 1.145-.0645 1.555-.1935.415-.1244.724-.3065.927-.5461.207-.235.311-.5161.311-.8433 0-.3042-.069-.5346-.208-.6913-.138-.152-.341-.2534-.608-.3041-.267-.0553-.595-.083-.982-.083h-1.313c-.341 0-.638.053-.892.159-.253.106-.449.2627-.587.4701-.134.2073-.201.4654-.201.7742 0 .4101.173.7212.519.9332.345.2165.838.3248 1.479.3248zm.297-6.0553c.549 0 .961-.1382 1.238-.4147.276-.2765.414-.6798.414-1.2097 0-.5668-.14-.9908-.421-1.2719-.281-.2857-.696-.4286-1.245-.4286-.525 0-.93.1475-1.216.4424-.281.2903-.422.7166-.422 1.2788 0 .5161.143.9125.429 1.189.285.2765.693.4147 1.223.4147zm11.834-4.1613c.646 0 1.199.1429 1.659.4286.461.2857.814.6866 1.058 1.2027.244.5116.366 1.1106.366 1.7973v.712h-5.232c.013.8894.235 1.5668.663 2.0322.429.4655 1.032.6982 1.811.6982.48 0 .904-.0438 1.272-.1313.369-.0876.751-.2166 1.148-.3871v1.0092c-.383.1705-.763.2949-1.141.3733-.373.0783-.816.1175-1.327.1175-.728 0-1.364-.1475-1.908-.4424-.539-.2996-.958-.7374-1.258-1.3134s-.449-1.2811-.449-2.1152c0-.8157.136-1.5208.407-2.1152.277-.5991.664-1.06 1.162-1.3825.502-.3226 1.092-.4839 1.769-.4839zm-.013.9401c-.613 0-1.102.2005-1.466.6014s-.581.9608-.65 1.6797h4.01c-.005-.4516-.076-.8479-.215-1.1889-.133-.3457-.338-.6129-.615-.8019-.276-.1935-.631-.2903-1.064-.2903zm6.2 6.7742h-1.154v-10.7558h1.154zm3.574-7.5761v7.5761h-1.148v-7.5761zm-.56-2.8341c.189 0 .35.0622.484.1867.138.1198.207.3087.207.5668 0 .2534-.069.4424-.207.5668-.134.1244-.295.1866-.484.1866-.198 0-.364-.0622-.498-.1866-.129-.1244-.193-.3134-.193-.5668 0-.2581.064-.447.193-.5668.134-.1245.3-.1867.498-.1867zm5.44 9.6084c.189 0 .383-.0162.581-.0484.198-.0323.359-.0714.484-.1175v.8917c-.134.0599-.321.1106-.56.1521-.235.0414-.466.0622-.692.0622-.401 0-.765-.0692-1.092-.2074-.327-.1429-.59-.3825-.788-.7189-.193-.3364-.29-.8018-.29-1.3963v-4.4931h-1.078v-.5599l1.085-.4494.456-1.6451h.691v1.7557h2.219v.8987h-2.219v4.4585c0 .4747.109.8295.325 1.0645.221.2351.514.3526.878.3526zm2.426.0829c0-.3226.079-.5507.235-.6843.157-.1383.348-.2074.574-.2074.235 0 .433.0691.595.2074.161.1336.241.3617.241.6843 0 .318-.08.5507-.241.6982-.162.1428-.36.2143-.595.2143-.226 0-.417-.0715-.574-.2143-.156-.1475-.235-.3802-.235-.6982zm14.081.7189-1.244-3.2074h-4.051l-1.237 3.2074h-1.189l3.954-10.1475h1.057l3.927 10.1475zm-1.597-4.2512-1.182-3.1866c-.027-.083-.074-.2189-.138-.4078-.06-.189-.122-.3848-.187-.5876-.064-.2028-.117-.3664-.159-.4908-.046.189-.096.3779-.152.5668-.05.1844-.101.3572-.152.5185-.051.1567-.094.2903-.131.4009l-1.203 3.1866zm6.961-3.4631c.645 0 1.198.1429 1.659.4286s.813.6866 1.058 1.2027c.244.5116.366 1.1106.366 1.7973v.712h-5.233c.014.8894.235 1.5668.664 2.0322.428.4655 1.032.6982 1.811.6982.479 0 .903-.0438 1.272-.1313.369-.0876.751-.2166 1.147-.3871v1.0092c-.382.1705-.762.2949-1.14.3733-.373.0783-.816.1175-1.327.1175-.729 0-1.364-.1475-1.908-.4424-.539-.2996-.959-.7374-1.258-1.3134-.3-.576-.45-1.2811-.45-2.1152 0-.8157.136-1.5208.408-2.1152.277-.5991.664-1.06 1.162-1.3825.502-.3226 1.092-.4839 1.769-.4839zm-.014.9401c-.613 0-1.101.2005-1.465.6014s-.581.9608-.65 1.6797h4.009c-.004-.4516-.076-.8479-.214-1.1889-.134-.3457-.339-.6129-.615-.8019-.277-.1935-.632-.2903-1.065-.2903zm8.634-.9401c.899 0 1.578.2212 2.039.6636.461.4378.691 1.1429.691 2.1152v4.9355h-1.133v-4.8595c0-.6313-.145-1.1036-.436-1.417-.285-.3134-.726-.4701-1.32-.4701-.839 0-1.429.2374-1.77.712-.341.4747-.511 1.1636-.511 2.0669v3.9677h-1.148v-7.5761h.927l.172 1.0922h.063c.161-.2673.366-.4908.615-.6705.249-.1843.528-.3226.836-.4147.309-.0968.634-.1452.975-.1452zm8.012 0c.645 0 1.198.1429 1.659.4286.46.2857.813.6866 1.057 1.2027.244.5116.366 1.1106.366 1.7973v.712h-5.232c.014.8894.235 1.5668.663 2.0322.429.4655 1.033.6982 1.811.6982.48 0 .904-.0438 1.272-.1313.369-.0876.751-.2166 1.148-.3871v1.0092c-.383.1705-.763.2949-1.141.3733-.373.0783-.815.1175-1.327.1175-.728 0-1.364-.1475-1.908-.4424-.539-.2996-.958-.7374-1.258-1.3134-.299-.576-.449-1.2811-.449-2.1152 0-.8157.136-1.5208.408-2.1152.276-.5991.663-1.06 1.161-1.3825.502-.3226 1.092-.4839 1.77-.4839zm-.014.9401c-.613 0-1.102.2005-1.466.6014s-.58.9608-.65 1.6797h4.01c-.005-.4516-.076-.8479-.215-1.1889-.133-.3457-.338-.6129-.615-.8019-.276-.1935-.631-.2903-1.064-.2903zm7.88-.9263c.903 0 1.574.2028 2.011.6083.438.4055.657 1.053.657 1.9424v5.1498h-.836l-.221-1.1198h-.056c-.212.2765-.433.5092-.663.6982-.231.1843-.498.3248-.802.4216-.3.0922-.668.1383-1.106.1383-.461 0-.871-.0807-1.231-.242-.354-.1613-.636-.4055-.843-.7327-.203-.3272-.304-.7419-.304-1.2442 0-.7558.299-1.3364.899-1.742.599-.4055 1.511-.6267 2.737-.6636l1.306-.0553v-.4631c0-.6544-.14-1.1129-.421-1.3756s-.678-.394-1.189-.394c-.397 0-.774.0576-1.134.1728-.359.1152-.7.2512-1.023.4078l-.353-.8709c.342-.1751.733-.3249 1.176-.4493.442-.1245.907-.1867 1.396-.1867zm1.535 3.9678-1.155.0484c-.945.0368-1.61.1912-1.998.4631-.387.2719-.58.6567-.58 1.1544 0 .4332.131.7534.394.9608.262.2074.61.3111 1.044.3111.672 0 1.223-.1867 1.652-.5599.428-.3733.643-.9332.643-1.6798zm7.085-3.9816c.898 0 1.578.2212 2.039.6636.461.4378.691 1.1429.691 2.1152v4.9355h-1.133v-4.8595c0-.6313-.146-1.1036-.436-1.417-.286-.3134-.726-.4701-1.32-.4701-.839 0-1.429.2374-1.77.712-.341.4747-.511 1.1636-.511 2.0669v3.9677h-1.148v-7.5761h.926l.173 1.0922h.063c.161-.2673.366-.4908.615-.6705.249-.1843.527-.3226.836-.4147.309-.0968.634-.1452.975-.1452zm-412.5922 26.7143h-1.1544v-10.7558h1.1544zm8.682-7.5761v7.5761h-.9401l-.1659-1.0645h-.0622c-.1567.2627-.3594.4839-.6083.6636-.2488.1797-.5299.3134-.8433.4009-.3088.0922-.6383.1383-.9885.1383-.5991 0-1.1014-.0968-1.5069-.2904-.4055-.1935-.712-.493-.9194-.8986-.2027-.4055-.3041-.9262-.3041-1.5622v-4.9632h1.1613v4.8803c0 .6313.1428 1.1036.4286 1.417.2857.3088.7212.4631 1.3064.4631.5622 0 1.0092-.1059 1.341-.3179.3364-.212.5784-.5231.7258-.9332.1475-.4148.2212-.9217.2212-1.5208v-3.9885zm5.4609 7.7144c-.682 0-1.2834-.1406-1.8042-.4217-.5207-.2811-.9262-.7097-1.2166-1.2857-.2903-.5761-.4355-1.3019-.4355-2.1774 0-.9171.1521-1.666.4563-2.2466.3087-.5853.7327-1.0184 1.2719-1.2995.5391-.2812 1.152-.4217 1.8387-.4217.3779 0 .7419.0392 1.0922.1175.3548.0737.6451.1682.8709.2834l-.3456.9609c-.2304-.0922-.4977-.1752-.8018-.2489-.2996-.0737-.5807-.1106-.8434-.1106-.5253 0-.9631.1129-1.3133.3387-.3457.2258-.606.5576-.7811.9954-.1706.4378-.2558.977-.2558 1.6175 0 .6129.0829 1.136.2488 1.5692.1706.4331.4217.7649.7535.9954.3364.2258.7558.3387 1.2581.3387.4009 0 .7627-.0415 1.0852-.1245.3226-.0875.6152-.1889.8779-.3041v1.023c-.2534.1291-.5368.2282-.8502.2973-.3088.0691-.6774.1037-1.106.1037zm6.2005-.9401c.1889 0 .3825-.0162.5806-.0484.1982-.0323.3592-.0714.4842-.1175v.8917c-.1339.0599-.3206.1106-.5602.1521-.235.0414-.4654.0622-.6913.0622-.4009 0-.7649-.0692-1.0921-.2074-.3272-.1429-.5899-.3825-.788-.7189-.1936-.3364-.2904-.8018-.2904-1.3963v-4.4931h-1.0783v-.5599l1.0852-.4494.4563-1.6451h.6912v1.7557h2.2186v.8987h-2.2186v4.4585c0 .4747.1083.8295.3249 1.0645.2212.2351.5138.3526.8779.3526zm8.8548-6.7743v7.5761h-.94l-.166-1.0645h-.062c-.157.2627-.36.4839-.608.6636-.249.1797-.53.3134-.844.4009-.309.0922-.638.1383-.988.1383-.599 0-1.102-.0968-1.507-.2904-.406-.1935-.712-.493-.92-.8986-.202-.4055-.304-.9262-.304-1.5622v-4.9632h1.162v4.8803c0 .6313.142 1.1036.428 1.417.286.3088.721.4631 1.307.4631.562 0 1.009-.1059 1.341-.3179.336-.212.578-.5231.725-.9332.148-.4148.222-.9217.222-1.5208v-3.9885zm7.327 5.5024c0 .4839-.122.8917-.366 1.2235-.24.3272-.585.5737-1.037.7396-.447.1659-.982.2489-1.604.2489-.53 0-.988-.0415-1.375-.1245-.387-.0829-.726-.2004-1.016-.3525v-1.0576c.308.1521.677.2903 1.106.4147.428.1245.866.1867 1.313.1867.654 0 1.129-.106 1.424-.318s.442-.5.442-.864c0-.2074-.06-.3895-.179-.5461-.116-.1613-.311-.3157-.588-.4632-.276-.152-.659-.3179-1.147-.4977-.484-.1843-.904-.3663-1.258-.5461-.351-.1843-.623-.4078-.816-.6705-.189-.2626-.284-.6037-.284-1.023 0-.6406.259-1.1314.775-1.4724.52-.3456 1.202-.5184 2.046-.5184.456 0 .882.0461 1.279.1382.4.0876.774.2074 1.119.3595l-.387.9194c-.313-.1337-.647-.2466-1.002-.3388-.355-.0921-.717-.1382-1.085-.1382-.53 0-.938.0875-1.224.2627-.281.1751-.421.4147-.421.7189 0 .235.064.4285.193.5806.134.1521.346.2949.636.4286.29.1336.673.2903 1.148.47.474.1751.884.3572 1.23.5461.346.1844.611.4102.795.6774.189.2627.283.6014.283 1.0162zm8.357-5.6268c.904 0 1.574.2028 2.012.6083s.657 1.053.657 1.9424v5.1498h-.837l-.221-1.1198h-.055c-.212.2765-.433.5092-.664.6982-.23.1843-.498.3248-.802.4216-.299.0922-.668.1383-1.106.1383-.46 0-.871-.0807-1.23-.242-.355-.1613-.636-.4055-.843-.7327-.203-.3272-.305-.7419-.305-1.2442 0-.7558.3-1.3364.899-1.742.599-.4055 1.512-.6267 2.737-.6636l1.307-.0553v-.4631c0-.6544-.141-1.1129-.422-1.3756s-.677-.394-1.189-.394c-.396 0-.774.0576-1.133.1728-.36.1152-.701.2512-1.023.4078l-.353-.8709c.341-.1751.733-.3249 1.175-.4493.443-.1245.908-.1867 1.396-.1867zm1.535 3.9678-1.154.0484c-.945.0368-1.611.1912-1.998.4631s-.581.6567-.581 1.1544c0 .4332.132.7534.394.9608.263.2074.611.3111 1.044.3111.673 0 1.224-.1867 1.652-.5599.429-.3733.643-.9332.643-1.6798zm6.94-3.9816c.152 0 .311.0092.477.0276.166.0139.314.0346.443.0623l-.146 1.0645c-.124-.0323-.262-.0576-.414-.0761-.152-.0184-.295-.0276-.429-.0276-.304 0-.592.0622-.864.1866-.267.1198-.502.295-.705.5254-.203.2258-.362.5-.477.8226-.115.3179-.173.6728-.173 1.0645v4.0645h-1.154v-7.5761h.954l.124 1.3964h.049c.156-.2811.345-.5369.566-.7673.222-.235.477-.4217.768-.5599.295-.1383.622-.2074.981-.2074zm5.385 7.8526c-.682 0-1.283-.1406-1.804-.4217s-.926-.7097-1.217-1.2857c-.29-.5761-.435-1.3019-.435-2.1774 0-.9171.152-1.666.456-2.2466.309-.5853.733-1.0184 1.272-1.2995.539-.2812 1.152-.4217 1.839-.4217.377 0 .742.0392 1.092.1175.355.0737.645.1682.871.2834l-.346.9609c-.23-.0922-.498-.1752-.802-.2489-.299-.0737-.58-.1106-.843-.1106-.525 0-.963.1129-1.313.3387-.346.2258-.606.5576-.782.9954-.17.4378-.255.977-.255 1.6175 0 .6129.083 1.136.249 1.5692.17.4331.421.7649.753.9954.336.2258.756.3387 1.258.3387.401 0 .763-.0415 1.085-.1245.323-.0875.616-.1889.878-.3041v1.023c-.253.1291-.537.2282-.85.2973-.309.0691-.677.1037-1.106.1037zm10.009-7.7144v7.5761h-.94l-.166-1.0645h-.062c-.157.2627-.359.4839-.608.6636s-.53.3134-.844.4009c-.308.0922-.638.1383-.988.1383-.599 0-1.101-.0968-1.507-.2904-.405-.1935-.712-.493-.919-.8986-.203-.4055-.304-.9262-.304-1.5622v-4.9632h1.161v4.8803c0 .6313.143 1.1036.428 1.417.286.3088.722.4631 1.307.4631.562 0 1.009-.1059 1.341-.3179.336-.212.578-.5231.726-.9332.147-.4148.221-.9217.221-1.5208v-3.9885zm11.005 5.5024c0 .4839-.122.8917-.366 1.2235-.24.3272-.586.5737-1.037.7396-.447.1659-.982.2489-1.604.2489-.53 0-.988-.0415-1.376-.1245-.387-.0829-.725-.2004-1.016-.3525v-1.0576c.309.1521.678.2903 1.106.4147.429.1245.867.1867 1.314.1867.654 0 1.129-.106 1.424-.318s.442-.5.442-.864c0-.2074-.06-.3895-.18-.5461-.115-.1613-.311-.3157-.587-.4632-.277-.152-.659-.3179-1.148-.4977-.484-.1843-.903-.3663-1.258-.5461-.35-.1843-.622-.4078-.815-.6705-.189-.2626-.284-.6037-.284-1.023 0-.6406.258-1.1314.774-1.4724.521-.3456 1.203-.5184 2.046-.5184.457 0 .883.0461 1.279.1382.401.0876.774.2074 1.12.3595l-.387.9194c-.313-.1337-.648-.2466-1.002-.3388-.355-.0921-.717-.1382-1.086-.1382-.53 0-.937.0875-1.223.2627-.281.1751-.422.4147-.422.7189 0 .235.065.4285.194.5806.133.1521.345.2949.636.4286.29.1336.673.2903 1.147.47.475.1751.885.3572 1.231.5461.345.1844.61.4102.795.6774.188.2627.283.6014.283 1.0162zm4.68-5.6268c.903 0 1.573.2028 2.011.6083s.657 1.053.657 1.9424v5.1498h-.837l-.221-1.1198h-.055c-.212.2765-.433.5092-.664.6982-.23.1843-.497.3248-.801.4216-.3.0922-.669.1383-1.106.1383-.461 0-.871-.0807-1.231-.242-.355-.1613-.636-.4055-.843-.7327-.203-.3272-.304-.7419-.304-1.2442 0-.7558.299-1.3364.898-1.742.599-.4055 1.512-.6267 2.738-.6636l1.306-.0553v-.4631c0-.6544-.14-1.1129-.422-1.3756-.281-.2627-.677-.394-1.189-.394-.396 0-.774.0576-1.133.1728-.36.1152-.701.2512-1.023.4078l-.353-.8709c.341-.1751.733-.3249 1.175-.4493.443-.1245.908-.1867 1.397-.1867zm1.534 3.9678-1.154.0484c-.945.0368-1.611.1912-1.998.4631s-.58.6567-.58 1.1544c0 .4332.131.7534.394.9608.262.2074.61.3111 1.043.3111.673 0 1.224-.1867 1.652-.5599.429-.3733.643-.9332.643-1.6798zm7.058-3.9816c.945 0 1.698.3249 2.26.9747.562.6497.844 1.6267.844 2.9308 0 .8618-.129 1.5853-.387 2.1706-.259.5852-.623 1.0276-1.093 1.3272-.465.2995-1.016.4493-1.652.4493-.401 0-.753-.053-1.057-.159-.305-.106-.565-.2489-.781-.4286-.217-.1797-.397-.3756-.54-.5876h-.083c.014.1798.03.3964.049.6498.023.2535.034.4747.034.6636v3.1102h-1.154v-10.9628h.947l.152 1.1199h.055c.148-.2305.328-.4401.54-.6291.212-.1935.47-.3456.774-.4562.308-.1152.673-.1728 1.092-.1728zm-.201.9677c-.525 0-.949.1014-1.271.3042-.318.2028-.551.5069-.699.9124-.147.401-.225.9056-.235 1.5139v.2212c0 .6405.069 1.182.208 1.6244.143.4424.375.7788.698 1.0092.327.2304.765.3456 1.313.3456.47 0 .862-.1267 1.175-.3801.314-.2535.546-.606.699-1.0576.156-.4563.235-.9793.235-1.5692 0-.894-.176-1.6037-.526-2.129-.345-.53-.878-.795-1.597-.795zm6.457-.8295v7.5761h-1.148v-7.5761zm-.56-2.8341c.189 0 .35.0622.484.1867.138.1198.207.3087.207.5668 0 .2534-.069.4424-.207.5668-.134.1244-.295.1866-.484.1866-.198 0-.364-.0622-.498-.1866-.129-.1244-.193-.3134-.193-.5668 0-.2581.064-.447.193-.5668.134-.1245.3-.1867.498-.1867zm5.91 2.6959c.645 0 1.198.1429 1.659.4286s.813.6866 1.058 1.2027c.244.5116.366 1.1106.366 1.7973v.712h-5.233c.014.8894.235 1.5668.664 2.0322.428.4655 1.032.6982 1.811.6982.479 0 .903-.0438 1.272-.1313.368-.0876.751-.2166 1.147-.3871v1.0092c-.382.1705-.762.2949-1.14.3733-.374.0783-.816.1175-1.328.1175-.728 0-1.364-.1475-1.907-.4424-.54-.2996-.959-.7374-1.258-1.3134-.3-.576-.45-1.2811-.45-2.1152 0-.8157.136-1.5208.408-2.1152.277-.5991.664-1.06 1.161-1.3825.503-.3226 1.093-.4839 1.77-.4839zm-.014.9401c-.613 0-1.101.2005-1.465.6014s-.581.9608-.65 1.6797h4.009c-.004-.4516-.076-.8479-.214-1.1889-.134-.3457-.339-.6129-.615-.8019-.277-.1935-.632-.2903-1.065-.2903zm8.634-.9401c.898 0 1.578.2212 2.039.6636.461.4378.691 1.1429.691 2.1152v4.9355h-1.133v-4.8595c0-.6313-.146-1.1036-.436-1.417-.286-.3134-.726-.4701-1.32-.4701-.839 0-1.429.2374-1.77.712-.341.4747-.511 1.1636-.511 2.0669v3.9677h-1.148v-7.5761h.927l.172 1.0922h.063c.161-.2673.366-.4908.615-.6705.249-.1843.527-.3226.836-.4147.309-.0968.634-.1452.975-.1452zm6.408 6.0692.09.1589c-.083.3364-.189.6959-.318 1.0784-.125.3825-.263.765-.415 1.1475-.148.387-.297.749-.449 1.085h-.858c.097-.368.192-.758.284-1.168.092-.4055.175-.8065.249-1.2028.078-.4009.14-.7673.186-1.099zm10.928-.4286c0 .4839-.122.8917-.366 1.2235-.24.3272-.585.5737-1.037.7396-.447.1659-.981.2489-1.604.2489-.53 0-.988-.0415-1.375-.1245-.387-.0829-.726-.2004-1.016-.3525v-1.0576c.308.1521.677.2903 1.106.4147.428.1245.866.1867 1.313.1867.654 0 1.129-.106 1.424-.318s.442-.5.442-.864c0-.2074-.06-.3895-.179-.5461-.116-.1613-.311-.3157-.588-.4632-.276-.152-.659-.3179-1.147-.4977-.484-.1843-.904-.3663-1.258-.5461-.351-.1843-.623-.4078-.816-.6705-.189-.2626-.284-.6037-.284-1.023 0-.6406.259-1.1314.775-1.4724.52-.3456 1.202-.5184 2.046-.5184.456 0 .882.0461 1.279.1382.401.0876.774.2074 1.119.3595l-.387.9194c-.313-.1337-.647-.2466-1.002-.3388-.355-.0921-.717-.1382-1.085-.1382-.53 0-.938.0875-1.224.2627-.281.1751-.421.4147-.421.7189 0 .235.064.4285.193.5806.134.1521.346.2949.636.4286.29.1336.673.2903 1.148.47.474.1751.884.3572 1.23.5461.346.1844.611.4102.795.6774.189.2627.283.6014.283 1.0162zm4.763-5.6406c.645 0 1.198.1429 1.659.4286s.813.6866 1.058 1.2027c.244.5116.366 1.1106.366 1.7973v.712h-5.233c.014.8894.235 1.5668.664 2.0322.428.4655 1.032.6982 1.811.6982.479 0 .903-.0438 1.272-.1313.368-.0876.751-.2166 1.147-.3871v1.0092c-.382.1705-.762.2949-1.14.3733-.374.0783-.816.1175-1.328.1175-.728 0-1.364-.1475-1.907-.4424-.54-.2996-.959-.7374-1.258-1.3134-.3-.576-.45-1.2811-.45-2.1152 0-.8157.136-1.5208.408-2.1152.277-.5991.664-1.06 1.161-1.3825.503-.3226 1.093-.4839 1.77-.4839zm-.014.9401c-.613 0-1.101.2005-1.465.6014s-.581.9608-.65 1.6797h4.009c-.004-.4516-.076-.8479-.214-1.1889-.134-.3457-.339-.6129-.615-.8019-.277-.1935-.632-.2903-1.065-.2903zm7.742 6.9125c-.958 0-1.719-.3272-2.281-.9816-.558-.6544-.836-1.6267-.836-2.9171 0-1.3041.285-2.288.857-2.9516.571-.6682 1.332-1.0023 2.281-1.0023.401 0 .751.053 1.051.159.299.106.557.2488.774.4286.216.1751.398.3755.546.6013h.083c-.019-.1428-.037-.3387-.055-.5875-.019-.2489-.028-.4516-.028-.6083v-3.0346h1.147v10.7558h-.926l-.173-1.0783h-.048c-.143.2258-.325.4309-.546.6152-.217.1843-.477.3318-.781.4424-.3.106-.655.159-1.065.159zm.18-.954c.811 0 1.385-.2304 1.721-.6912s.505-1.1452.505-2.053v-.2074c0-.9631-.162-1.7028-.484-2.2189-.318-.5161-.899-.7742-1.742-.7742-.705 0-1.233.2719-1.583.8157-.35.5392-.525 1.2765-.525 2.212 0 .9309.172 1.6498.518 2.1567.35.5069.88.7603 1.59.7603zm12.387-6.8986c.645 0 1.198.1429 1.659.4286s.813.6866 1.058 1.2027c.244.5116.366 1.1106.366 1.7973v.712h-5.233c.014.8894.235 1.5668.664 2.0322.428.4655 1.032.6982 1.811.6982.479 0 .903-.0438 1.272-.1313.368-.0876.751-.2166 1.147-.3871v1.0092c-.382.1705-.762.2949-1.14.3733-.374.0783-.816.1175-1.327.1175-.729 0-1.365-.1475-1.908-.4424-.539-.2996-.959-.7374-1.258-1.3134-.3-.576-.45-1.2811-.45-2.1152 0-.8157.136-1.5208.408-2.1152.277-.5991.664-1.06 1.161-1.3825.503-.3226 1.093-.4839 1.77-.4839zm-.014.9401c-.613 0-1.101.2005-1.465.6014s-.581.9608-.65 1.6797h4.009c-.004-.4516-.076-.8479-.214-1.1889-.134-.3457-.339-.6129-.615-.8019-.277-.1935-.632-.2903-1.065-.2903zm6.201 6.7742h-1.155v-10.7558h1.155zm5.343-7.7143c.645 0 1.198.1429 1.659.4286s.813.6866 1.058 1.2027c.244.5116.366 1.1106.366 1.7973v.712h-5.233c.014.8894.235 1.5668.664 2.0322.428.4655 1.032.6982 1.811.6982.479 0 .903-.0438 1.272-.1313.369-.0876.751-.2166 1.147-.3871v1.0092c-.382.1705-.762.2949-1.14.3733-.374.0783-.816.1175-1.327.1175-.729 0-1.365-.1475-1.908-.4424-.539-.2996-.959-.7374-1.258-1.3134-.3-.576-.45-1.2811-.45-2.1152 0-.8157.136-1.5208.408-2.1152.277-.5991.664-1.06 1.161-1.3825.503-.3226 1.093-.4839 1.77-.4839zm-.014.9401c-.613 0-1.101.2005-1.465.6014s-.581.9608-.65 1.6797h4.009c-.004-.4516-.076-.8479-.214-1.1889-.134-.3457-.339-.6129-.615-.8019-.277-.1935-.632-.2903-1.065-.2903zm13.272-.9401c.834 0 1.463.2189 1.887.6567.424.4332.636 1.1313.636 2.0945v4.9631h-1.133v-4.9078c0-.6129-.134-1.0715-.401-1.3756-.263-.3088-.655-.4632-1.175-.4632-.733 0-1.265.212-1.597.636s-.498 1.0484-.498 1.8733v4.2373h-1.14v-4.9078c0-.4102-.06-.7512-.18-1.0231-.115-.2719-.291-.4746-.526-.6083-.23-.1382-.523-.2074-.877-.2074-.503 0-.906.1037-1.21.3111s-.525.5161-.664.9263c-.133.4055-.2.9055-.2 1.5v4.0092h-1.148v-7.5761h.927l.172 1.0715h.063c.152-.2627.343-.4839.573-.6636.231-.1797.489-.3157.775-.4079.285-.0921.589-.1382.912-.1382.576 0 1.058.1083 1.445.3249.391.212.675.5368.85.9746h.062c.249-.4378.59-.7626 1.023-.9746.433-.2166.908-.3249 1.424-.3249zm7.797 0c.646 0 1.199.1429 1.659.4286.461.2857.814.6866 1.058 1.2027.244.5116.366 1.1106.366 1.7973v.712h-5.232c.014.8894.235 1.5668.663 2.0322.429.4655 1.033.6982 1.811.6982.48 0 .904-.0438 1.272-.1313.369-.0876.751-.2166 1.148-.3871v1.0092c-.383.1705-.763.2949-1.141.3733-.373.0783-.816.1175-1.327.1175-.728 0-1.364-.1475-1.908-.4424-.539-.2996-.958-.7374-1.258-1.3134-.299-.576-.449-1.2811-.449-2.1152 0-.8157.136-1.5208.408-2.1152.276-.5991.663-1.06 1.161-1.3825.502-.3226 1.092-.4839 1.769-.4839zm-.013.9401c-.613 0-1.102.2005-1.466.6014s-.58.9608-.65 1.6797h4.01c-.005-.4516-.076-.8479-.215-1.1889-.133-.3457-.338-.6129-.615-.8019-.276-.1935-.631-.2903-1.064-.2903zm8.633-.9401c.899 0 1.579.2212 2.04.6636.46.4378.691 1.1429.691 2.1152v4.9355h-1.134v-4.8595c0-.6313-.145-1.1036-.435-1.417-.286-.3134-.726-.4701-1.321-.4701-.838 0-1.428.2374-1.769.712-.341.4747-.512 1.1636-.512 2.0669v3.9677h-1.147v-7.5761h.926l.173 1.0922h.062c.161-.2673.366-.4908.615-.6705.249-.1843.528-.3226.837-.4147.308-.0968.633-.1452.974-.1452zm7.542 6.9125c.189 0 .382-.0162.58-.0484.199-.0323.36-.0714.484-.1175v.8917c-.133.0599-.32.1106-.56.1521-.235.0414-.465.0622-.691.0622-.401 0-.765-.0692-1.092-.2074-.327-.1429-.59-.3825-.788-.7189-.194-.3364-.29-.8018-.29-1.3963v-4.4931h-1.079v-.5599l1.086-.4494.456-1.6451h.691v1.7557h2.219v.8987h-2.219v4.4585c0 .4747.108.8295.325 1.0645.221.2351.514.3526.878.3526zm8.855-6.7743v7.5761h-.94l-.166-1.0645h-.062c-.157.2627-.36.4839-.609.6636s-.53.3134-.843.4009c-.309.0922-.638.1383-.989.1383-.599 0-1.101-.0968-1.507-.2904-.405-.1935-.711-.493-.919-.8986-.203-.4055-.304-.9262-.304-1.5622v-4.9632h1.161v4.8803c0 .6313.143 1.1036.429 1.417.286.3088.721.4631 1.306.4631.563 0 1.01-.1059 1.341-.3179.337-.212.579-.5231.726-.9332.148-.4148.221-.9217.221-1.5208v-3.9885zm10.652-.1382c.834 0 1.463.2189 1.887.6567.424.4332.636 1.1313.636 2.0945v4.9631h-1.134v-4.9078c0-.6129-.133-1.0715-.401-1.3756-.262-.3088-.654-.4632-1.175-.4632-.733 0-1.265.212-1.597.636-.331.424-.497 1.0484-.497 1.8733v4.2373h-1.141v-4.9078c0-.4102-.06-.7512-.18-1.0231-.115-.2719-.29-.4746-.525-.6083-.23-.1382-.523-.2074-.878-.2074-.502 0-.905.1037-1.209.3111-.305.2074-.526.5161-.664.9263-.134.4055-.201.9055-.201 1.5v4.0092h-1.147v-7.5761h.926l.173 1.0715h.062c.152-.2627.344-.4839.574-.6636s.489-.3157.774-.4079c.286-.0921.59-.1382.913-.1382.576 0 1.057.1083 1.444.3249.392.212.676.5368.851.9746h.062c.249-.4378.59-.7626 1.023-.9746.433-.2166.908-.3249 1.424-.3249zm11.253 7.8526c-.958 0-1.719-.3272-2.281-.9816-.557-.6544-.836-1.6267-.836-2.9171 0-1.3041.286-2.288.857-2.9516.571-.6682 1.332-1.0023 2.281-1.0023.401 0 .751.053 1.051.159.299.106.557.2488.774.4286.217.1751.399.3755.546.6013h.083c-.018-.1428-.037-.3387-.055-.5875-.019-.2489-.028-.4516-.028-.6083v-3.0346h1.148v10.7558h-.927l-.173-1.0783h-.048c-.143.2258-.325.4309-.546.6152-.217.1843-.477.3318-.781.4424-.3.106-.654.159-1.065.159zm.18-.954c.811 0 1.385-.2304 1.721-.6912.337-.4608.505-1.1452.505-2.053v-.2074c0-.9631-.161-1.7028-.484-2.2189-.318-.5161-.899-.7742-1.742-.7742-.705 0-1.233.2719-1.583.8157-.35.5392-.525 1.2765-.525 2.212 0 .9309.173 1.6498.518 2.1567.35.5069.88.7603 1.59.7603zm12.325-2.9861c0 .6221-.081 1.1774-.242 1.6659-.161.4884-.394.9009-.698 1.2373s-.673.5945-1.106.7742c-.429.1751-.915.2627-1.459.2627-.506 0-.972-.0876-1.396-.2627-.419-.1797-.783-.4378-1.092-.7742-.304-.3364-.542-.7489-.712-1.2373-.166-.4885-.249-1.0438-.249-1.6659 0-.8295.141-1.5346.422-2.1153.281-.5852.682-1.0299 1.203-1.3341.525-.3087 1.149-.4631 1.873-.4631.691 0 1.295.1544 1.811.4631.521.3088.924.7558 1.21 1.3411.29.5806.435 1.2834.435 2.1083zm-5.765 0c0 .6083.081 1.1359.242 1.5829s.41.7926.747 1.0369c.336.2442.769.3663 1.299.3663.525 0 .956-.1221 1.293-.3663.341-.2443.592-.5899.753-1.0369s.242-.9746.242-1.5829c0-.6037-.081-1.1245-.242-1.5623-.161-.4424-.41-.7834-.746-1.023-.337-.2396-.772-.3595-1.307-.3595-.788 0-1.366.2604-1.735.7812-.364.5207-.546 1.2419-.546 2.1636zm8.903 3.8018h-1.154v-10.7558h1.154zm8.959-3.8018c0 .6221-.081 1.1774-.242 1.6659-.161.4884-.394.9009-.698 1.2373s-.673.5945-1.106.7742c-.429.1751-.915.2627-1.459.2627-.507 0-.972-.0876-1.396-.2627-.419-.1797-.783-.4378-1.092-.7742-.304-.3364-.542-.7489-.712-1.2373-.166-.4885-.249-1.0438-.249-1.6659 0-.8295.14-1.5346.422-2.1153.281-.5852.682-1.0299 1.202-1.3341.526-.3087 1.15-.4631 1.874-.4631.691 0 1.295.1544 1.811.4631.52.3088.924.7558 1.209 1.3411.291.5806.436 1.2834.436 2.1083zm-5.765 0c0 .6083.081 1.1359.242 1.5829s.41.7926.746 1.0369c.337.2442.77.3663 1.3.3663.525 0 .956-.1221 1.293-.3663.341-.2443.592-.5899.753-1.0369s.242-.9746.242-1.5829c0-.6037-.081-1.1245-.242-1.5623-.161-.4424-.41-.7834-.747-1.023-.336-.2396-.771-.3595-1.306-.3595-.788 0-1.366.2604-1.735.7812-.364.5207-.546 1.2419-.546 2.1636zm11.191-3.9125c.152 0 .311.0092.477.0276.166.0139.314.0346.443.0623l-.146 1.0645c-.124-.0323-.262-.0576-.414-.0761-.152-.0184-.295-.0276-.429-.0276-.304 0-.592.0622-.864.1866-.267.1198-.502.295-.705.5254-.203.2258-.362.5-.477.8226-.115.3179-.173.6728-.173 1.0645v4.0645h-1.154v-7.5761h.954l.124 1.3964h.048c.157-.2811.346-.5369.567-.7673.222-.235.477-.4217.768-.5599.295-.1383.622-.2074.981-.2074zm7.694 7.7143-2.876-7.5761h1.231l1.665 4.583c.116.3134.233.659.353 1.0369s.203.682.249.9124h.048c.056-.2304.148-.5345.277-.9124.129-.3825.246-.7281.352-1.0369l1.666-4.583h1.231l-2.883 7.5761zm8.329-7.7143c.645 0 1.198.1429 1.659.4286s.814.6866 1.058 1.2027c.244.5116.366 1.1106.366 1.7973v.712h-5.232c.013.8894.235 1.5668.663 2.0322.429.4655 1.032.6982 1.811.6982.479 0 .903-.0438 1.272-.1313.369-.0876.751-.2166 1.148-.3871v1.0092c-.383.1705-.763.2949-1.141.3733-.373.0783-.816.1175-1.327.1175-.728 0-1.364-.1475-1.908-.4424-.539-.2996-.959-.7374-1.258-1.3134-.3-.576-.449-1.2811-.449-2.1152 0-.8157.136-1.5208.407-2.1152.277-.5991.664-1.06 1.162-1.3825.502-.3226 1.092-.4839 1.769-.4839zm-.014.9401c-.612 0-1.101.2005-1.465.6014s-.581.9608-.65 1.6797h4.01c-.005-.4516-.077-.8479-.215-1.1889-.133-.3457-.338-.6129-.615-.8019-.276-.1935-.631-.2903-1.065-.2903zm6.194-3.9816v3.2143c0 .1843-.005.371-.014.5599-.009.1843-.025.3549-.048.5115h.076c.157-.2672.355-.4907.594-.6705.245-.1843.521-.3226.83-.4147.309-.0968.636-.1452.981-.1452.609 0 1.116.0968 1.521.2903.41.1936.717.4931.92.8987.207.4055.311.9308.311 1.576v4.9355h-1.134v-4.8595c0-.6313-.145-1.1036-.436-1.417-.285-.3134-.725-.4701-1.32-.4701-.562 0-1.011.1083-1.348.3249-.332.212-.571.5254-.719.9401-.143.4148-.214.9217-.214 1.5208v3.9608h-1.147v-10.7558zm8.682 3.1797v7.5761h-1.147v-7.5761zm-.56-2.8341c.189 0 .35.0622.484.1867.138.1198.207.3087.207.5668 0 .2534-.069.4424-.207.5668-.134.1244-.295.1866-.484.1866-.198 0-.364-.0622-.497-.1866-.13-.1244-.194-.3134-.194-.5668 0-.2581.064-.447.194-.5668.133-.1245.299-.1867.497-.1867zm6.028 10.5485c-.682 0-1.284-.1406-1.804-.4217-.521-.2811-.927-.7097-1.217-1.2857-.29-.5761-.435-1.3019-.435-2.1774 0-.9171.152-1.666.456-2.2466.309-.5853.733-1.0184 1.272-1.2995.539-.2812 1.152-.4217 1.838-.4217.378 0 .742.0392 1.093.1175.355.0737.645.1682.871.2834l-.346.9609c-.23-.0922-.498-.1752-.802-.2489-.299-.0737-.58-.1106-.843-.1106-.526 0-.963.1129-1.314.3387-.345.2258-.606.5576-.781.9954-.17.4378-.255.977-.255 1.6175 0 .6129.083 1.136.248 1.5692.171.4331.422.7649.754.9954.336.2258.756.3387 1.258.3387.401 0 .763-.0415 1.085-.1245.323-.0875.615-.1889.878-.3041v1.023c-.253.1291-.537.2282-.85.2973-.309.0691-.678.1037-1.106.1037zm10.009-7.7144v7.5761h-.94l-.166-1.0645h-.062c-.157.2627-.359.4839-.608.6636s-.53.3134-.844.4009c-.308.0922-.638.1383-.988.1383-.599 0-1.102-.0968-1.507-.2904-.406-.1935-.712-.493-.919-.8986-.203-.4055-.305-.9262-.305-1.5622v-4.9632h1.162v4.8803c0 .6313.143 1.1036.428 1.417.286.3088.721.4631 1.307.4631.562 0 1.009-.1059 1.341-.3179.336-.212.578-.5231.726-.9332.147-.4148.221-.9217.221-1.5208v-3.9885zm3.581 7.5761h-1.155v-10.7558h1.155z"/></g><rect height="130.019" rx="5.899" shape-rendering="crispEdges" stroke="#585c65" stroke-width=".786" width="581.214" x="4.393" y=".393"/></g></svg>