<svg width="961" height="185" viewBox="0 0 961 185" fill="none" xmlns="http://www.w3.org/2000/svg">
<rect width="961" height="184" transform="translate(0 0.467773)" fill="#F1F1F6"/>
<g filter="url(#filter0_ddd_4867_82274)">
<rect x="110.5" y="39.4678" width="740" height="106" rx="8" fill="black"/>
<g clip-path="url(#clip0_4867_82274)">
<path d="M157.383 68.6678C170.567 68.6678 181.183 79.2845 181.183 92.4678C181.183 105.651 170.567 116.268 157.383 116.268C144.2 116.268 133.467 105.651 133.467 92.4678C133.467 79.2845 144.2 68.6678 157.383 68.6678ZM157.383 64.5845C141.867 64.5845 129.383 77.0678 129.383 92.4678C129.383 107.868 141.867 120.351 157.267 120.351C172.667 120.351 185.267 107.868 185.267 92.4678C185.267 77.0678 172.783 64.5845 157.383 64.5845Z" fill="#00CC2A"/>
<path d="M169.4 87.2177L166.6 84.301L153.767 97.0177L148.633 91.8844L145.717 94.6844L153.767 102.734L156.683 99.9344L169.4 87.2177Z" fill="white"/>
</g>
<path d="M215.792 97.3135C215.792 98.9893 215.187 100.31 213.977 101.274C212.775 102.239 211.099 102.722 208.949 102.722C206.969 102.722 205.217 102.349 203.693 101.604V97.9482C204.946 98.5068 206.004 98.9004 206.867 99.1289C207.739 99.3574 208.535 99.4717 209.254 99.4717C210.117 99.4717 210.777 99.3066 211.234 98.9766C211.7 98.6465 211.933 98.1556 211.933 97.5039C211.933 97.14 211.831 96.8184 211.628 96.5391C211.425 96.2513 211.124 95.9762 210.727 95.7139C210.337 95.4515 209.537 95.0326 208.327 94.457C207.193 93.9238 206.342 93.4118 205.775 92.9209C205.208 92.43 204.756 91.8587 204.417 91.207C204.078 90.5553 203.909 89.7936 203.909 88.9219C203.909 87.2799 204.464 85.9893 205.572 85.0498C206.689 84.1104 208.23 83.6406 210.193 83.6406C211.158 83.6406 212.076 83.7549 212.948 83.9834C213.828 84.2119 214.747 84.5335 215.703 84.9482L214.434 88.0078C213.443 87.6016 212.622 87.318 211.971 87.1572C211.327 86.9964 210.693 86.916 210.066 86.916C209.322 86.916 208.75 87.0895 208.353 87.4365C207.955 87.7835 207.756 88.2363 207.756 88.7949C207.756 89.1419 207.836 89.4466 207.997 89.709C208.158 89.9629 208.412 90.2126 208.759 90.458C209.114 90.695 209.948 91.1266 211.26 91.7529C212.995 92.5824 214.184 93.416 214.827 94.2539C215.47 95.0833 215.792 96.1032 215.792 97.3135ZM229.056 102.468L228.536 100.652H228.333C227.918 101.312 227.33 101.825 226.568 102.188C225.806 102.544 224.939 102.722 223.965 102.722C222.298 102.722 221.041 102.277 220.195 101.389C219.349 100.492 218.925 99.2051 218.925 97.5293V88.2744H222.797V96.5645C222.797 97.5885 222.979 98.3587 223.343 98.875C223.707 99.3828 224.287 99.6367 225.083 99.6367C226.166 99.6367 226.949 99.277 227.431 98.5576C227.914 97.8298 228.155 96.6279 228.155 94.9521V88.2744H232.027V102.468H229.056ZM242.003 102.722C237.585 102.722 235.376 100.297 235.376 95.4473C235.376 93.0352 235.977 91.1943 237.179 89.9248C238.381 88.6468 240.103 88.0078 242.346 88.0078C243.988 88.0078 245.46 88.3294 246.764 88.9727L245.621 91.9688C245.012 91.7233 244.445 91.5244 243.92 91.3721C243.395 91.2113 242.871 91.1309 242.346 91.1309C240.332 91.1309 239.324 92.5612 239.324 95.4219C239.324 98.1979 240.332 99.5859 242.346 99.5859C243.091 99.5859 243.78 99.4886 244.415 99.2939C245.05 99.0908 245.685 98.7777 246.32 98.3545V101.668C245.693 102.066 245.058 102.341 244.415 102.493C243.78 102.646 242.976 102.722 242.003 102.722ZM255.534 102.722C251.116 102.722 248.907 100.297 248.907 95.4473C248.907 93.0352 249.508 91.1943 250.71 89.9248C251.912 88.6468 253.634 88.0078 255.877 88.0078C257.519 88.0078 258.991 88.3294 260.295 88.9727L259.152 91.9688C258.543 91.7233 257.976 91.5244 257.451 91.3721C256.926 91.2113 256.401 91.1309 255.877 91.1309C253.862 91.1309 252.855 92.5612 252.855 95.4219C252.855 98.1979 253.862 99.5859 255.877 99.5859C256.622 99.5859 257.311 99.4886 257.946 99.2939C258.581 99.0908 259.216 98.7777 259.85 98.3545V101.668C259.224 102.066 258.589 102.341 257.946 102.493C257.311 102.646 256.507 102.722 255.534 102.722ZM269.179 90.7627C268.358 90.7627 267.715 91.0251 267.249 91.5498C266.784 92.0661 266.517 92.8024 266.45 93.7588H271.883C271.866 92.8024 271.617 92.0661 271.134 91.5498C270.652 91.0251 270 90.7627 269.179 90.7627ZM269.725 102.722C267.44 102.722 265.654 102.091 264.368 100.83C263.081 99.569 262.438 97.7832 262.438 95.4727C262.438 93.0944 263.03 91.2578 264.215 89.9629C265.409 88.6595 267.055 88.0078 269.154 88.0078C271.16 88.0078 272.721 88.5791 273.838 89.7217C274.955 90.8643 275.514 92.4427 275.514 94.457V96.3359H266.361C266.403 97.4362 266.729 98.2952 267.338 98.9131C267.948 99.5309 268.802 99.8398 269.903 99.8398C270.758 99.8398 271.566 99.751 272.328 99.5732C273.089 99.3955 273.885 99.112 274.714 98.7227V101.719C274.037 102.057 273.314 102.307 272.543 102.468C271.773 102.637 270.834 102.722 269.725 102.722ZM288.715 98.2529C288.715 99.7087 288.207 100.817 287.191 101.579C286.184 102.341 284.674 102.722 282.659 102.722C281.627 102.722 280.746 102.65 280.019 102.506C279.291 102.37 278.609 102.167 277.975 101.896V98.6973C278.694 99.0358 279.502 99.3193 280.399 99.5479C281.305 99.7764 282.101 99.8906 282.786 99.8906C284.191 99.8906 284.894 99.4844 284.894 98.6719C284.894 98.3672 284.8 98.1217 284.614 97.9355C284.428 97.7409 284.106 97.5251 283.649 97.2881C283.192 97.0426 282.583 96.7591 281.821 96.4375C280.729 95.9805 279.925 95.5573 279.409 95.168C278.901 94.7786 278.529 94.3343 278.292 93.835C278.063 93.3271 277.949 92.7051 277.949 91.9688C277.949 90.7077 278.436 89.7344 279.409 89.0488C280.391 88.3548 281.779 88.0078 283.573 88.0078C285.283 88.0078 286.946 88.3802 288.562 89.125L287.395 91.918C286.684 91.6133 286.019 91.3636 285.401 91.1689C284.784 90.9743 284.153 90.877 283.51 90.877C282.367 90.877 281.796 91.1859 281.796 91.8037C281.796 92.1507 281.978 92.4512 282.342 92.7051C282.714 92.959 283.522 93.3356 284.767 93.835C285.875 94.2835 286.688 94.7025 287.204 95.0918C287.72 95.4811 288.101 95.9297 288.347 96.4375C288.592 96.9453 288.715 97.5505 288.715 98.2529ZM301.789 98.2529C301.789 99.7087 301.281 100.817 300.265 101.579C299.258 102.341 297.747 102.722 295.733 102.722C294.7 102.722 293.82 102.65 293.092 102.506C292.365 102.37 291.683 102.167 291.048 101.896V98.6973C291.768 99.0358 292.576 99.3193 293.473 99.5479C294.379 99.7764 295.174 99.8906 295.86 99.8906C297.265 99.8906 297.967 99.4844 297.967 98.6719C297.967 98.3672 297.874 98.1217 297.688 97.9355C297.502 97.7409 297.18 97.5251 296.723 97.2881C296.266 97.0426 295.657 96.7591 294.895 96.4375C293.803 95.9805 292.999 95.5573 292.483 95.168C291.975 94.7786 291.603 94.3343 291.366 93.835C291.137 93.3271 291.023 92.7051 291.023 91.9688C291.023 90.7077 291.51 89.7344 292.483 89.0488C293.465 88.3548 294.853 88.0078 296.647 88.0078C298.357 88.0078 300.02 88.3802 301.636 89.125L300.468 91.918C299.757 91.6133 299.093 91.3636 298.475 91.1689C297.857 90.9743 297.227 90.877 296.584 90.877C295.441 90.877 294.87 91.1859 294.87 91.8037C294.87 92.1507 295.052 92.4512 295.416 92.7051C295.788 92.959 296.596 93.3356 297.84 93.835C298.949 94.2835 299.762 94.7025 300.278 95.0918C300.794 95.4811 301.175 95.9297 301.421 96.4375C301.666 96.9453 301.789 97.5505 301.789 98.2529ZM328.635 102.468H323.633L315.558 88.4268H315.444C315.605 90.9066 315.685 92.6755 315.685 93.7334V102.468H312.169V83.9072H317.133L325.194 97.8086H325.283C325.156 95.3965 325.093 93.6911 325.093 92.6924V83.9072H328.635V102.468ZM336.249 95.3457C336.249 96.7507 336.478 97.8128 336.935 98.5322C337.4 99.2516 338.154 99.6113 339.195 99.6113C340.227 99.6113 340.968 99.2559 341.416 98.5449C341.873 97.8255 342.102 96.7591 342.102 95.3457C342.102 93.9408 341.873 92.887 341.416 92.1846C340.959 91.4821 340.21 91.1309 339.169 91.1309C338.137 91.1309 337.392 91.4821 336.935 92.1846C336.478 92.8786 336.249 93.9323 336.249 95.3457ZM346.063 95.3457C346.063 97.6562 345.454 99.4632 344.235 100.767C343.016 102.07 341.319 102.722 339.144 102.722C337.781 102.722 336.579 102.425 335.538 101.833C334.497 101.232 333.698 100.373 333.139 99.2559C332.58 98.1387 332.301 96.8353 332.301 95.3457C332.301 93.0267 332.906 91.224 334.117 89.9375C335.327 88.651 337.028 88.0078 339.22 88.0078C340.583 88.0078 341.785 88.304 342.826 88.8965C343.867 89.4889 344.666 90.3395 345.225 91.4482C345.784 92.557 346.063 93.8561 346.063 95.3457ZM355.392 99.6367C356.069 99.6367 356.881 99.4886 357.829 99.1924V102.074C356.864 102.506 355.679 102.722 354.274 102.722C352.726 102.722 351.596 102.332 350.885 101.554C350.182 100.767 349.831 99.5902 349.831 98.0244V91.1816H347.978V89.5439L350.11 88.249L351.228 85.2529H353.703V88.2744H357.677V91.1816H353.703V98.0244C353.703 98.5745 353.855 98.9808 354.16 99.2432C354.473 99.5055 354.884 99.6367 355.392 99.6367ZM360.696 84.6055C360.696 83.3444 361.398 82.7139 362.803 82.7139C364.208 82.7139 364.911 83.3444 364.911 84.6055C364.911 85.2064 364.733 85.6761 364.378 86.0146C364.031 86.3447 363.506 86.5098 362.803 86.5098C361.398 86.5098 360.696 85.875 360.696 84.6055ZM364.733 102.468H360.861V88.2744H364.733V102.468ZM376.804 91.1816H373.452V102.468H369.58V91.1816H367.447V89.3154L369.58 88.2744V87.2334C369.58 85.6169 369.978 84.4362 370.774 83.6914C371.569 82.9466 372.843 82.5742 374.595 82.5742C375.932 82.5742 377.121 82.7731 378.162 83.1709L377.172 86.0146C376.393 85.7692 375.674 85.6465 375.014 85.6465C374.464 85.6465 374.066 85.8115 373.821 86.1416C373.575 86.4632 373.452 86.8779 373.452 87.3857V88.2744H376.804V91.1816ZM379.023 84.6055C379.023 83.3444 379.726 82.7139 381.131 82.7139C382.536 82.7139 383.238 83.3444 383.238 84.6055C383.238 85.2064 383.06 85.6761 382.705 86.0146C382.358 86.3447 381.833 86.5098 381.131 86.5098C379.726 86.5098 379.023 85.875 379.023 84.6055ZM383.06 102.468H379.188V88.2744H383.06V102.468ZM393.049 102.722C388.631 102.722 386.422 100.297 386.422 95.4473C386.422 93.0352 387.023 91.1943 388.225 89.9248C389.427 88.6468 391.149 88.0078 393.392 88.0078C395.034 88.0078 396.507 88.3294 397.81 88.9727L396.667 91.9688C396.058 91.7233 395.491 91.5244 394.966 91.3721C394.441 91.2113 393.917 91.1309 393.392 91.1309C391.378 91.1309 390.371 92.5612 390.371 95.4219C390.371 98.1979 391.378 99.5859 393.392 99.5859C394.137 99.5859 394.827 99.4886 395.461 99.2939C396.096 99.0908 396.731 98.7777 397.366 98.3545V101.668C396.739 102.066 396.105 102.341 395.461 102.493C394.827 102.646 394.023 102.722 393.049 102.722ZM409.83 102.468L409.081 100.538H408.979C408.328 101.359 407.655 101.93 406.961 102.252C406.275 102.565 405.378 102.722 404.27 102.722C402.907 102.722 401.832 102.332 401.045 101.554C400.266 100.775 399.877 99.6663 399.877 98.2275C399.877 96.721 400.402 95.6123 401.451 94.9014C402.509 94.182 404.1 93.7842 406.225 93.708L408.688 93.6318V93.0098C408.688 91.571 407.951 90.8516 406.479 90.8516C405.344 90.8516 404.011 91.1943 402.479 91.8799L401.197 89.2646C402.831 88.4098 404.642 87.9824 406.631 87.9824C408.535 87.9824 409.995 88.3971 411.011 89.2266C412.026 90.056 412.534 91.3171 412.534 93.0098V102.468H409.83ZM408.688 95.8916L407.189 95.9424C406.064 95.9762 405.226 96.1794 404.676 96.5518C404.126 96.9242 403.851 97.4912 403.851 98.2529C403.851 99.3447 404.477 99.8906 405.729 99.8906C406.627 99.8906 407.342 99.6325 407.875 99.1162C408.417 98.5999 408.688 97.9144 408.688 97.0596V95.8916ZM422.663 99.6367C423.34 99.6367 424.152 99.4886 425.1 99.1924V102.074C424.135 102.506 422.95 102.722 421.546 102.722C419.997 102.722 418.867 102.332 418.156 101.554C417.453 100.767 417.102 99.5902 417.102 98.0244V91.1816H415.249V89.5439L417.381 88.249L418.499 85.2529H420.974V88.2744H424.948V91.1816H420.974V98.0244C420.974 98.5745 421.127 98.9808 421.431 99.2432C421.744 99.5055 422.155 99.6367 422.663 99.6367ZM427.967 84.6055C427.967 83.3444 428.669 82.7139 430.074 82.7139C431.479 82.7139 432.182 83.3444 432.182 84.6055C432.182 85.2064 432.004 85.6761 431.649 86.0146C431.302 86.3447 430.777 86.5098 430.074 86.5098C428.669 86.5098 427.967 85.875 427.967 84.6055ZM432.004 102.468H428.132V88.2744H432.004V102.468ZM439.314 95.3457C439.314 96.7507 439.543 97.8128 440 98.5322C440.465 99.2516 441.219 99.6113 442.26 99.6113C443.292 99.6113 444.033 99.2559 444.481 98.5449C444.938 97.8255 445.167 96.7591 445.167 95.3457C445.167 93.9408 444.938 92.887 444.481 92.1846C444.024 91.4821 443.275 91.1309 442.234 91.1309C441.202 91.1309 440.457 91.4821 440 92.1846C439.543 92.8786 439.314 93.9323 439.314 95.3457ZM449.128 95.3457C449.128 97.6562 448.518 99.4632 447.3 100.767C446.081 102.07 444.384 102.722 442.209 102.722C440.846 102.722 439.644 102.425 438.603 101.833C437.562 101.232 436.762 100.373 436.204 99.2559C435.645 98.1387 435.366 96.8353 435.366 95.3457C435.366 93.0267 435.971 91.224 437.181 89.9375C438.392 88.651 440.093 88.0078 442.285 88.0078C443.648 88.0078 444.849 88.304 445.89 88.8965C446.931 89.4889 447.731 90.3395 448.29 91.4482C448.848 92.557 449.128 93.8561 449.128 95.3457ZM465.579 102.468H461.706V94.1777C461.706 93.1536 461.524 92.3877 461.161 91.8799C460.797 91.3636 460.217 91.1055 459.421 91.1055C458.338 91.1055 457.555 91.4694 457.073 92.1973C456.59 92.9167 456.349 94.1143 456.349 95.79V102.468H452.477V88.2744H455.435L455.955 90.0898H456.171C456.603 89.4043 457.195 88.888 457.949 88.541C458.71 88.1855 459.574 88.0078 460.538 88.0078C462.189 88.0078 463.441 88.4564 464.296 89.3535C465.151 90.2422 465.579 91.5286 465.579 93.2129V102.468Z" fill="white"/>
<path d="M802.96 74.9678C799.5 74.9758 796.121 76.009 793.248 77.9368C790.376 79.8646 788.139 82.6005 786.821 85.7989C785.502 88.9973 785.161 92.5147 785.841 95.9067C786.521 99.2987 788.191 102.413 790.64 104.856C793.089 107.3 796.207 108.963 799.601 109.634C802.994 110.306 806.511 109.957 809.706 108.632C812.902 107.306 815.632 105.063 817.554 102.186C819.475 99.3091 820.5 95.9273 820.5 92.4679C820.5 90.1663 820.046 87.8873 819.164 85.7615C818.282 83.6356 816.989 81.7046 815.36 80.0791C813.731 78.4535 811.797 77.1653 809.669 76.2883C807.541 75.4112 805.261 74.9625 802.96 74.9678ZM813.694 98.8277L809.32 103.162L802.96 96.8022L796.64 103.162L792.265 98.8277L798.625 92.4679L792.265 86.1079L796.64 81.7733L802.96 88.0928L809.32 81.7733L813.694 86.1079L807.334 92.4679L813.694 98.8277Z" fill="white"/>
<rect x="111.5" y="40.4678" width="738" height="104" rx="7" stroke="#585C65" stroke-width="2"/>
</g>
<defs>
<filter id="filter0_ddd_4867_82274" x="92.5" y="25.4678" width="776" height="144" filterUnits="userSpaceOnUse" color-interpolation-filters="sRGB">
<feFlood flood-opacity="0" result="BackgroundImageFix"/>
<feColorMatrix in="SourceAlpha" type="matrix" values="0 0 0 0 0 0 0 0 0 0 0 0 0 0 0 0 0 0 127 0" result="hardAlpha"/>
<feOffset dy="4"/>
<feGaussianBlur stdDeviation="9"/>
<feColorMatrix type="matrix" values="0 0 0 0 0 0 0 0 0 0 0 0 0 0 0 0 0 0 0.12 0"/>
<feBlend mode="normal" in2="BackgroundImageFix" result="effect1_dropShadow_4867_82274"/>
<feColorMatrix in="SourceAlpha" type="matrix" values="0 0 0 0 0 0 0 0 0 0 0 0 0 0 0 0 0 0 127 0" result="hardAlpha"/>
<feOffset dy="10"/>
<feGaussianBlur stdDeviation="7"/>
<feColorMatrix type="matrix" values="0 0 0 0 0 0 0 0 0 0 0 0 0 0 0 0 0 0 0.14 0"/>
<feBlend mode="normal" in2="effect1_dropShadow_4867_82274" result="effect2_dropShadow_4867_82274"/>
<feColorMatrix in="SourceAlpha" type="matrix" values="0 0 0 0 0 0 0 0 0 0 0 0 0 0 0 0 0 0 127 0" result="hardAlpha"/>
<feOffset dy="6"/>
<feGaussianBlur stdDeviation="3"/>
<feColorMatrix type="matrix" values="0 0 0 0 0 0 0 0 0 0 0 0 0 0 0 0 0 0 0.2 0"/>
<feBlend mode="normal" in2="effect2_dropShadow_4867_82274" result="effect3_dropShadow_4867_82274"/>
<feBlend mode="normal" in="SourceGraphic" in2="effect3_dropShadow_4867_82274" result="shape"/>
</filter>
<clipPath id="clip0_4867_82274">
<rect width="56" height="56" fill="white" transform="translate(129.5 64.4678)"/>
</clipPath>
</defs>
</svg>
