<svg fill="none" height="64" viewBox="0 0 697 64" width="697" xmlns="http://www.w3.org/2000/svg" xmlns:xlink="http://www.w3.org/1999/xlink"><filter id="a" color-interpolation-filters="sRGB" filterUnits="userSpaceOnUse" height="62.376" width="470.22" x="154.226" y="1"><feFlood flood-opacity="0" result="BackgroundImageFix"/><feColorMatrix in="SourceAlpha" result="hardAlpha" type="matrix" values="0 0 0 0 0 0 0 0 0 0 0 0 0 0 0 0 0 0 127 0"/><feOffset dy="2.399"/><feGaussianBlur stdDeviation="1.2"/><feComposite in2="hardAlpha" operator="out"/><feColorMatrix type="matrix" values="0 0 0 0 0 0 0 0 0 0 0 0 0 0 0 0 0 0 0.25 0"/><feBlend in2="BackgroundImageFix" mode="normal" result="effect1_dropShadow_7363_83824"/><feBlend in="SourceGraphic" in2="effect1_dropShadow_7363_83824" mode="normal" result="shape"/></filter><clipPath id="b"><path d="m168.021 12.9954h33.587v33.587h-33.587z"/></clipPath><path d="m13.5981 23.7891v-8.5664h1.8165v8.5664zm6.4202.1171c-2.039 0-3.0586-1.1191-3.0586-3.3574 0-1.1133.2774-1.9629.8321-2.5488.5547-.5898 1.3496-.8848 2.3847-.8848.7578 0 1.4375.1485 2.0391.4453l-.5273 1.3829c-.2813-.1133-.543-.2051-.7852-.2754-.2422-.0742-.4844-.1114-.7266-.1114-.9297 0-1.3945.6602-1.3945 1.9805 0 1.2813.4648 1.9219 1.3945 1.9219.3438 0 .6621-.0449.9551-.1348.293-.0937.586-.2383.8789-.4336v1.5293c-.289.1836-.582.3106-.8789.3809-.293.0703-.664.1054-1.1133.1054zm4.8675-3.4042c0 .6484.1055 1.1386.3164 1.4707.2148.332.5625.498 1.043.498.4765 0 .8183-.1641 1.0254-.4922.2109-.332.3164-.8242.3164-1.4765 0-.6485-.1055-1.1348-.3164-1.459-.211-.3242-.5567-.4864-1.0372-.4864-.4765 0-.8203.1622-1.0312.4864-.2109.3203-.3164.8066-.3164 1.459zm4.5293 0c0 1.0664-.2813 1.9003-.8438 2.5019s-1.3457.9023-2.3496.9023c-.6289 0-1.1836-.1367-1.664-.4101-.4805-.2773-.8496-.6738-1.1075-1.1895-.2578-.5156-.3867-1.1171-.3867-1.8046 0-1.0704.2793-1.9024.8379-2.4961.5586-.5938 1.3438-.8907 2.3555-.8907.6289 0 1.1836.1368 1.664.4102.4805.2734.8497.666 1.1075 1.1777s.3867 1.1114.3867 1.7989zm7.4514 3.2871h-1.7871v-3.8262c0-.4727-.084-.8262-.2519-1.0606-.168-.2382-.4356-.3574-.8028-.3574-.5 0-.8613.168-1.084.5039-.2226.3321-.3339.8848-.3339 1.6582v3.0821h-1.7872v-6.5508h1.3653l.2402.8379h.0996c.1992-.3164.4727-.5547.8203-.7149.3516-.164.75-.2461 1.1953-.2461.7618 0 1.3399.2071 1.7344.6211.3946.4102.5918 1.0039.5918 1.7813zm6.6002 0h-1.7871v-9.1172h1.7871zm4.5217-5.4024c-.3789 0-.6758.1211-.8906.3633-.2149.2383-.3379.5781-.3692 1.0195h2.5079c-.0079-.4414-.1231-.7812-.3457-1.0195-.2227-.2422-.5235-.3633-.9024-.3633zm.252 5.5195c-1.0547 0-1.8789-.291-2.4727-.873-.5937-.582-.8906-1.4062-.8906-2.4727 0-1.0976.2734-1.9453.8203-2.5429.5508-.6016 1.3105-.9024 2.2793-.9024.9258 0 1.6465.2637 2.1621.791.5156.5274.7734 1.2559.7734 2.1856v.8672h-4.2246c.0196.5078.17.9043.4512 1.1894.2813.2852.6758.4278 1.1836.4278.3945 0 .7676-.041 1.1191-.1231.3516-.082.7188-.2129 1.1016-.3926v1.3829c-.3125.1562-.6465.2714-1.002.3457-.3554.0781-.789.1171-1.3007.1171zm7.6741-5.3261h-1.5469v5.209h-1.7871v-5.209h-.9844v-.8613l.9844-.4805v-.4805c0-.7461.1836-1.291.5508-1.6348.3671-.3437.955-.5156 1.7636-.5156.6172 0 1.166.0918 1.6465.2754l-.457 1.3125c-.3594-.1133-.6914-.1699-.9961-.1699-.2539 0-.4375.0762-.5508.2285-.1133.1484-.1699.3399-.1699.5742v.4102h1.5469zm3.719 3.9023c.3125 0 .6875-.0683 1.125-.2051v1.3301c-.4453.1992-.9922.2988-1.6407.2988-.7148 0-1.2363-.1796-1.5644-.539-.3242-.3633-.4863-.9063-.4863-1.6289v-3.1582h-.8555v-.7559l.9844-.5976.5156-1.3828h1.1426v1.3945h1.834v1.3418h-1.834v3.1582c0 .2539.0703.4414.2109.5625.1445.1211.334.1816.5684.1816zm2.1311.4688c0-.3282.0879-.5762.2637-.7442.1758-.1679.4316-.2519.7675-.2519.3243 0 .5743.0859.75.2578.1797.1719.2696.418.2696.7383 0 .3086-.0899.5527-.2696.7324-.1796.1758-.4296.2637-.75.2637-.3281 0-.582-.086-.7617-.2578-.1797-.1758-.2695-.4219-.2695-.7383zm0-4.8399c0-.3281.0879-.5761.2637-.7441s.4316-.252.7675-.252c.3243 0 .5743.086.75.2578.1797.1719.2696.418.2696.7383 0 .3164-.0918.5625-.2754.7383-.1797.1719-.4277.2578-.7442.2578-.3281 0-.582-.0859-.7617-.2578s-.2695-.418-.2695-.7383zm8.9732.4453c.9023 0 1.6113.2246 2.1269.6739.5196.4453.7793 1.0566.7793 1.834 0 .8867-.2832 1.582-.8496 2.0859-.5625.5039-1.3398.7558-2.332.7558-.9648 0-1.7012-.1542-2.209-.4628v-.9375c.2734.1757.6133.3144 1.0195.416.4063.0976.8067.1465 1.2012.1465.6875 0 1.2207-.1622 1.5996-.4864.3828-.3242.5742-.7929.5742-1.4062 0-1.1953-.7324-1.793-2.1972-1.793-.3711 0-.8672.0567-1.4883.1699l-.5039-.3222.3223-4.0078h4.2597v.8964h-3.4277l-.2168 2.5723c.4492-.0898.8965-.1348 1.3418-.1348zm4.217 1.5704c0-1.6836.3262-2.9415.9786-3.7735.6562-.8359 1.625-1.2539 2.9062-1.2539.4414 0 .7891.0371 1.043.1113v.8379c-.3008-.0976-.6445-.1465-1.0313-.1465-.9179 0-1.6191.2872-2.1035.8614-.4844.5703-.75 1.4687-.7969 2.6953h.0704c.4296-.6719 1.1093-1.0078 2.039-1.0078.7695 0 1.375.2324 1.8164.6972.4453.4649.668 1.0957.668 1.8926 0 .8906-.2441 1.5918-.7324 2.1035-.4844.5078-1.1407.7617-1.9688.7617-.8867 0-1.5898-.332-2.1094-.996-.5195-.668-.7793-1.5957-.7793-2.7832zm2.877 2.9531c.5547 0 .9844-.1739 1.2891-.5215.3086-.3516.4629-.8574.4629-1.5176 0-.5664-.1426-1.0117-.4278-1.3359-.2851-.3242-.7109-.4863-1.2773-.4863-.3516 0-.6739.0722-.9668.2167-.293.1446-.5274.3438-.7031.5977-.1719.2539-.2579.5176-.2579.791 0 .4024.0782.7774.2344 1.125.1563.3477.377.6231.6621.8262.2891.2031.6172.3047.9844.3047zm8.635-.1524h-.0527c-.4492.6524-1.1211.9785-2.0156.9785-.8399 0-1.4942-.2871-1.9629-.8613-.4649-.5742-.6973-1.3906-.6973-2.4492s.2344-1.8809.7031-2.4668c.4688-.5859 1.1211-.8789 1.9571-.8789.8711 0 1.539.3164 2.0039.9492h.0762l-.0411-.4629-.0234-.4511v-2.6133h.9727v9.1172h-.7911zm-1.9453.1641c.6641 0 1.1446-.1797 1.4414-.5391.3008-.3632.4512-.9472.4512-1.7519v-.2051c0-.9102-.1523-1.5586-.457-1.9453-.3008-.3906-.7832-.5859-1.4473-.5859-.5703 0-1.0078.2226-1.3125.6679-.3008.4414-.4512 1.0664-.4512 1.875 0 .8203.1504 1.4395.4512 1.8574.3008.418.7422.627 1.3242.627zm7.8499.8144c-.418 0-.8008-.0761-1.1484-.2285-.3438-.1562-.6329-.3945-.8672-.7148h-.0703c.0468.375.0703.7305.0703 1.0664v2.6426h-.9727v-9.3047h.791l.1348.8789h.0469c.25-.3516.541-.6055.873-.7617.332-.1563.7129-.2344 1.1426-.2344.8516 0 1.5078.291 1.9687.873.4649.5821.6973 1.3985.6973 2.4493 0 1.0547-.2363 1.875-.709 2.4609-.4687.582-1.1211.873-1.957.873zm-.1406-5.83c-.6563 0-1.1309.1816-1.4239.5449-.2929.3633-.4433.9414-.4511 1.7344v.2168c0 .9023.1504 1.5488.4511 1.9394.3008.3867.7832.5801 1.4473.5801.5547 0 .9883-.2246 1.3008-.6738.3164-.4492.4746-1.0684.4746-1.8575 0-.8007-.1582-1.414-.4746-1.8398-.3125-.4297-.7539-.6445-1.3242-.6445zm-78.6327 25.7129v-8.5664h1.8165v8.5664zm6.4202.1171c-2.039 0-3.0586-1.1191-3.0586-3.3574 0-1.1133.2774-1.9629.8321-2.5488.5547-.5898 1.3496-.8848 2.3847-.8848.7578 0 1.4375.1485 2.0391.4453l-.5273 1.3829c-.2813-.1133-.543-.2051-.7852-.2754-.2422-.0742-.4844-.1114-.7266-.1114-.9297 0-1.3945.6602-1.3945 1.9805 0 1.2813.4648 1.9219 1.3945 1.9219.3438 0 .6621-.0449.9551-.1348.293-.0937.586-.2383.8789-.4336v1.5293c-.289.1836-.582.3106-.8789.3809-.293.0703-.664.1054-1.1133.1054zm4.8675-3.4042c0 .6484.1055 1.1386.3164 1.4707.2148.332.5625.498 1.043.498.4765 0 .8183-.1641 1.0254-.4922.2109-.332.3164-.8242.3164-1.4765 0-.6485-.1055-1.1348-.3164-1.459-.211-.3242-.5567-.4864-1.0372-.4864-.4765 0-.8203.1622-1.0312.4864-.2109.3203-.3164.8066-.3164 1.459zm4.5293 0c0 1.0664-.2813 1.9003-.8438 2.5019s-1.3457.9023-2.3496.9023c-.6289 0-1.1836-.1367-1.664-.4101-.4805-.2773-.8496-.6738-1.1075-1.1895-.2578-.5156-.3867-1.1171-.3867-1.8046 0-1.0704.2793-1.9024.8379-2.4961.5586-.5938 1.3438-.8907 2.3555-.8907.6289 0 1.1836.1368 1.664.4102.4805.2734.8497.666 1.1075 1.1777s.3867 1.1114.3867 1.7989zm7.4514 3.2871h-1.7871v-3.8262c0-.4727-.084-.8262-.2519-1.0606-.168-.2382-.4356-.3574-.8028-.3574-.5 0-.8613.168-1.084.5039-.2226.3321-.3339.8848-.3339 1.6582v3.0821h-1.7872v-6.5508h1.3653l.2402.8379h.0996c.1992-.3164.4727-.5547.8203-.7149.3516-.164.75-.2461 1.1953-.2461.7618 0 1.3399.2071 1.7344.6211.3946.4102.5918 1.0039.5918 1.7813zm6.7701-4.7637h.5859c.5742 0 .9981-.0957 1.2715-.2871s.4102-.4922.4102-.9024c0-.4062-.1407-.6953-.4219-.8671-.2774-.1719-.709-.2579-1.2949-.2579h-.5508zm0 1.4766v3.2871h-1.8164v-8.5664h2.4961c1.164 0 2.0254.2128 2.584.6386.5585.4219.8378 1.0645.8378 1.9278 0 .5039-.1386.9531-.416 1.3476-.2773.3906-.6699.6973-1.1777.9199 1.2891 1.9258 2.1289 3.17 2.5195 3.7325h-2.0156l-2.0449-3.2871zm5.8167-4.9571c0-.582.3242-.873.9726-.873s.9727.291.9727.873c0 .2774-.0821.4942-.2461.6504-.1602.1524-.4024.2285-.7266.2285-.6484 0-.9726-.2929-.9726-.8789zm1.8632 8.2442h-1.7871v-6.5508h1.7871zm7.5101-6.5508v.9082l-1.0254.2637c.1875.2929.2812.621.2812.9843 0 .7032-.2461 1.252-.7383 1.6465-.4882.3906-1.1679.586-2.039.586l-.3223-.0176-.2637-.0293c-.1836.1406-.2753.2969-.2753.4687 0 .2578.3281.3867.9843.3867h1.1133c.7188 0 1.2656.1543 1.6406.4629.3789.3086.5684.7618.5684 1.3594 0 .7656-.3203 1.3594-.9609 1.7813-.6368.4218-1.5528.6328-2.7481.6328-.9141 0-1.6133-.1602-2.0976-.4805-.4805-.3164-.7208-.7617-.7208-1.3359 0-.3946.1231-.7246.3692-.9903.2461-.2656.6074-.455 1.084-.5683-.1836-.0781-.3438-.2051-.4805-.3809-.1367-.1797-.2051-.3691-.2051-.5683 0-.25.0723-.4571.2168-.6211.1446-.168.3535-.3321.627-.4922-.3438-.1485-.6172-.3867-.8203-.7149-.1993-.3281-.2989-.7148-.2989-1.1601 0-.7149.2325-1.2676.6973-1.6582.4648-.3907 1.1289-.586 1.9922-.586.1836 0 .4004.0176.6504.0528.2539.0312.416.0547.4863.0703zm-5.0567 7.4765c0 .2461.1172.4395.3516.5801.2383.1406.5703.211.9961.211.6406 0 1.1426-.0879 1.5058-.2637.3633-.1758.545-.416.545-.7207 0-.2461-.1075-.416-.3223-.5098-.2148-.0937-.5469-.1406-.9961-.1406h-.9258c-.3281 0-.6035.0762-.8262.2285-.2187.1563-.3281.3613-.3281.6152zm.6504-5.332c0 .3555.0801.6367.2402.8438.1641.207.4122.3105.7442.3105.3359 0 .582-.1035.7383-.3105.1562-.2071.2343-.4883.2343-.8438 0-.789-.3242-1.1836-.9726-1.1836-.6563 0-.9844.3946-.9844 1.1836zm11.4651 4.4063h-1.7871v-3.8262c0-.9453-.3515-1.418-1.0547-1.418-.5 0-.8613.1699-1.084.5098-.2226.3398-.3339.8906-.3339 1.6523v3.0821h-1.7871v-9.1172h1.7871v1.8574c0 .1445-.0137.4844-.0411 1.0195l-.041.5274h.0938c.3984-.6407 1.0312-.961 1.8984-.961.7695 0 1.3535.2071 1.752.6211.3984.4141.5976 1.0078.5976 1.7813zm4.5276-1.3067c.3125 0 .6875-.0683 1.125-.2051v1.3301c-.4453.1992-.9922.2988-1.6406.2988-.7148 0-1.2363-.1796-1.5644-.539-.3243-.3633-.4864-.9063-.4864-1.6289v-3.1582h-.8554v-.7559l.9843-.5976.5157-1.3828h1.1425v1.3945h1.834v1.3418h-1.834v3.1582c0 .2539.0704.4414.211.5625.1445.1211.334.1816.5683.1816zm2.1312.4688c0-.3282.0878-.5762.2636-.7442.1758-.1679.4317-.2519.7676-.2519.3242 0 .5742.0859.75.2578.1797.1719.2695.418.2695.7383 0 .3086-.0898.5527-.2695.7324-.1797.1758-.4297.2637-.75.2637-.3281 0-.582-.086-.7617-.2578-.1797-.1758-.2695-.4219-.2695-.7383zm0-4.8399c0-.3281.0878-.5761.2636-.7441s.4317-.252.7676-.252c.3242 0 .5742.086.75.2578.1797.1719.2695.418.2695.7383 0 .3164-.0918.5625-.2754.7383-.1796.1719-.4277.2578-.7441.2578-.3281 0-.582-.0859-.7617-.2578s-.2695-.418-.2695-.7383zm12.3306 3.709h-1.2715v1.9688h-.9317v-1.9688h-4.166v-.8496l4.0664-5.7949h1.0313v5.7597h1.2715zm-2.2032-.8848v-2.8476c0-.5586.0196-1.1895.0586-1.8926h-.0468c-.1875.375-.3633.6856-.5274.9317l-2.6777 3.8085zm5.7991-5.8359c.7813 0 1.4004.1816 1.8575.5449.457.3633.6855.8653.6855 1.5059 0 .4219-.1308.8066-.3926 1.1543-.2617.3476-.6797.6641-1.2539.9492.6953.332 1.1895.6816 1.4824 1.0488.293.3633.4395.7852.4395 1.2657 0 .7109-.248 1.2793-.7441 1.705-.4961.4219-1.1758.6328-2.0391.6328-.9141 0-1.6172-.1992-2.1094-.5976-.4922-.4024-.7383-.9707-.7383-1.7051 0-.9805.5977-1.7441 1.793-2.291-.5391-.3047-.9258-.6328-1.1601-.9844-.2344-.3554-.3516-.7519-.3516-1.1894 0-.6211.2285-1.1153.6855-1.4825.461-.371 1.0762-.5566 1.8457-.5566zm-1.8515 6.5274c0 .4687.1621.8339.4863 1.0957.3281.2617.7871.3925 1.377.3925.582 0 1.0351-.1367 1.3593-.4101.3243-.2735.4864-.6485.4864-1.125 0-.3789-.1524-.7149-.4571-1.0078-.3047-.2969-.8359-.584-1.5937-.8614-.582.25-1.0039.5274-1.2656.8321-.2618.3008-.3926.6621-.3926 1.084zm1.8398-5.7364c-.4883 0-.8711.1172-1.1484.3516-.2774.2344-.416.5469-.416.9375 0 .3594.1152.668.3457.9258.2304.2578.6562.5156 1.2773.7734.5586-.2344.9531-.4863 1.1836-.7559.2344-.2695.3516-.5839.3516-.9433 0-.3945-.1426-.707-.4278-.9375-.2812-.2344-.6699-.3516-1.166-.3516zm8.7874 7.0371h-.0527c-.4493.6524-1.1211.9785-2.0157.9785-.8398 0-1.4941-.2871-1.9629-.8613-.4648-.5742-.6972-1.3906-.6972-2.4492s.2344-1.8809.7031-2.4668c.4688-.5859 1.1211-.8789 1.957-.8789.8711 0 1.5391.3164 2.0039.9492h.0762l-.041-.4629-.0234-.4511v-2.6133h.9726v9.1172h-.791zm-1.9453.1641c.664 0 1.1445-.1797 1.4414-.5391.3008-.3632.4512-.9472.4512-1.7519v-.2051c0-.9102-.1524-1.5586-.4571-1.9453-.3008-.3906-.7832-.5859-1.4472-.5859-.5704 0-1.0079.2226-1.3125.6679-.3008.4414-.4512 1.0664-.4512 1.875 0 .8203.1504 1.4395.4512 1.8574.3007.418.7421.627 1.3242.627zm7.8499.8144c-.418 0-.801-.0761-1.148-.2285-.344-.1562-.633-.3945-.868-.7148h-.07c.047.375.07.7305.07 1.0664v2.6426h-.972v-9.3047h.791l.134.8789h.047c.25-.3516.541-.6055.873-.7617.332-.1563.713-.2344 1.143-.2344.852 0 1.508.291 1.969.873.465.5821.697 1.3985.697 2.4493 0 1.0547-.236 1.875-.709 2.4609-.469.582-1.121.873-1.957.873zm-.141-5.83c-.656 0-1.131.1816-1.423.5449-.293.3633-.444.9414-.452 1.7344v.2168c0 .9023.151 1.5488.452 1.9394.3.3867.783.5801 1.447.5801.554 0 .988-.2246 1.301-.6738.316-.4492.474-1.0684.474-1.8575 0-.8007-.158-1.414-.474-1.8398-.313-.4297-.754-.6445-1.325-.6445z" fill="#000"/><path d="m1 55.7891v-52.00004h138.421v10.09714l7.204 7.5728-7.204 7.0679v27.2622z" stroke="#ccc"/><g filter="url(#a)"><rect fill="#000" height="57.578" rx="4.798" shape-rendering="crispEdges" width="465.422" x="156.625" y="1"/><g clip-path="url(#b)"><path d="m184.744 15.5142c7.907 0 14.275 6.3676 14.275 14.2746s-6.368 14.2745-14.275 14.2745-14.344-6.3675-14.344-14.2745 6.437-14.2746 14.344-14.2746zm0-2.449c-9.306 0-16.793 7.4871-16.793 16.7236s7.487 16.7236 16.723 16.7236c9.237 0 16.794-7.4871 16.794-16.7236s-7.487-16.7236-16.724-16.7236z" fill="#00cc2a"/><path d="m191.951 26.64-1.679-1.7494-7.697 7.6271-3.079-3.0788-1.749 1.6793 4.828 4.8282 1.749-1.6794z" fill="#fff"/></g><path d="m224.84 30.1164c0 1.2538-.241 2.3021-.723 3.1447-.477.8376-1.17 1.4696-2.079 1.896-.909.4213-2.002.632-3.282.632h-3.152v-11.1321h3.495c1.168 0 2.18.2081 3.038.6244.858.4111 1.523 1.0228 1.995 1.835.472.8071.708 1.8071.708 3zm-2.452.0609c0-.8223-.121-1.4974-.365-2.0254-.239-.533-.594-.9264-1.066-1.1802-.467-.2538-1.046-.3807-1.736-.3807h-1.257v7.2488h1.013c1.152 0 2.008-.3071 2.566-.9213.564-.6142.845-1.528.845-2.7412zm8.177-3.0609c.786 0 1.464.1523 2.033.4569.568.2995 1.007.736 1.317 1.3096s.464 1.2741.464 2.1016v1.1269h-5.489c.025.6548.22 1.17.586 1.5457.37.3705.883.5558 1.538.5558.543 0 1.041-.0558 1.492-.1675.452-.1117.917-.2792 1.394-.5025v1.7969c-.422.2081-.863.3604-1.325.4569-.457.0964-1.013.1446-1.668.1446-.852 0-1.609-.1573-2.269-.472-.655-.3148-1.17-.7945-1.545-1.4391-.371-.6447-.556-1.4569-.556-2.4366 0-.9949.167-1.8224.502-2.4823.34-.6649.812-1.1624 1.417-1.4924.604-.335 1.307-.5025 2.109-.5025zm.015 1.6523c-.452 0-.828.1447-1.127.434-.294.2894-.464.7437-.51 1.363h3.259c-.005-.3452-.069-.6523-.191-.9214-.116-.269-.294-.4822-.533-.6396-.233-.1573-.533-.236-.898-.236zm11.717 4.4924c0 .5787-.137 1.0686-.411 1.4696-.269.3959-.673.698-1.211.9061-.538.203-1.208.3045-2.01.3045-.594 0-1.104-.038-1.531-.1142-.421-.0761-.847-.203-1.279-.3807v-1.9188c.462.2081.957.3807 1.485.5178.533.132 1 .198 1.401.198.452 0 .774-.066.967-.198.198-.1371.297-.3147.297-.533 0-.1421-.041-.269-.122-.3807-.076-.1168-.244-.2462-.502-.3883-.259-.1473-.665-.3376-1.219-.5711-.533-.2234-.972-.4493-1.317-.6777-.34-.2284-.594-.4975-.761-.8071-.163-.3147-.244-.7132-.244-1.1954 0-.7869.305-1.3782.914-1.7742.614-.401 1.434-.6015 2.459-.6015.528 0 1.031.0533 1.508.1599.482.1066.977.2767 1.484.5102l-.7 1.6751c-.421-.1827-.82-.3325-1.195-.4492-.371-.1168-.749-.1752-1.135-.1752-.34 0-.596.0457-.769.1371s-.259.231-.259.4188c0 .137.043.2589.13.3655.091.1066.263.2258.517.3578.259.1269.637.2919 1.135.495.482.1979.901.406 1.256.6243.356.2132.63.4797.823.7995.192.3147.289.7234.289 1.2259zm4.224-5.9848v8.5128h-2.322v-8.5128zm-1.157-3.3351c.345 0 .642.0813.891.2437.249.1574.373.4543.373.8909 0 .4315-.124.7309-.373.8985-.249.1624-.546.2436-.891.2436-.35 0-.65-.0812-.898-.2436-.244-.1676-.366-.467-.366-.8985 0-.4366.122-.7335.366-.8909.248-.1624.548-.2437.898-.2437zm6.181 15.5941c-1.187 0-2.096-.2081-2.726-.6244-.624-.4112-.936-.9898-.936-1.736 0-.5127.16-.9417.48-1.2869.319-.3451.789-.5913 1.408-.7385-.238-.1016-.446-.2665-.624-.495-.178-.2335-.267-.4797-.267-.7385 0-.3249.094-.594.282-.8072.188-.2182.46-.4314.815-.6396-.447-.1929-.802-.5025-1.066-.9289-.259-.4264-.388-.9289-.388-1.5076 0-.6193.134-1.1447.403-1.5762.274-.4365.67-.769 1.188-.9975.523-.2284 1.157-.3426 1.903-.3426.158 0 .341.0102.549.0305s.398.0431.571.0685c.177.0254.297.0457.358.0609h2.969v1.1802l-1.332.3427c.122.1878.213.3883.274.6015s.091.4391.091.6777c0 .9137-.32 1.6269-.959 2.1396-.635.5076-1.518.7614-2.65.7614-.269-.0152-.523-.0355-.761-.0609-.117.0914-.206.1878-.267.2893s-.091.2081-.091.3198.045.2056.137.2818c.096.071.238.1269.426.1675.193.0355.432.0533.716.0533h1.447c.934 0 1.644.2005 2.132.6015.492.401.738.9898.738 1.7665 0 .9949-.416 1.7665-1.249 2.3147-.827.5483-2.017.8224-3.571.8224zm.099-1.5153c.554 0 1.028-.0533 1.424-.1599.401-.1015.708-.2487.922-.4416.213-.1878.319-.4137.319-.6777 0-.2132-.063-.3832-.19-.5101-.122-.1218-.31-.2081-.563-.2589-.249-.0508-.569-.0761-.96-.0761h-1.203c-.284 0-.54.0456-.769.137-.223.0914-.401.2183-.533.3807-.132.1675-.198.3604-.198.5787 0 .3198.152.5711.457.7538.31.1828.741.2741 1.294.2741zm.373-6.4569c.437 0 .757-.1345.96-.4035.203-.2691.304-.6345.304-1.0965 0-.5127-.106-.8959-.319-1.1497-.208-.2589-.523-.3884-.945-.3884-.426 0-.746.1295-.959.3884-.213.2538-.32.637-.32 1.1497 0 .462.104.8274.312 1.0965.214.269.536.4035.967.4035zm10.781-4.4467c.909 0 1.64.2487 2.193.7462.553.4924.83 1.2843.83 2.3757v5.5508h-2.323v-4.9722c0-.6091-.111-1.0685-.335-1.3781-.218-.3097-.563-.4645-1.035-.4645-.711 0-1.196.2411-1.454.7233-.259.4823-.389 1.1777-.389 2.0864v4.0051h-2.322v-8.5128h1.774l.312 1.0888h.13c.182-.2944.408-.533.677-.7157.274-.1827.576-.3173.906-.4036.335-.0863.681-.1294 1.036-.1294zm11.967 8.6727h-2.323v-11.8479h2.323zm10.27-4.2716c0 .7106-.096 1.3401-.289 1.8883-.188.5482-.465 1.0127-.83 1.3934-.361.3756-.797.6599-1.31.8528-.508.1929-1.081.2893-1.721.2893-.599 0-1.15-.0964-1.652-.2893-.498-.1929-.932-.4772-1.302-.8528-.366-.3807-.65-.8452-.853-1.3934-.198-.5482-.297-1.1777-.297-1.8883 0-.9442.168-1.7437.503-2.3985.335-.6549.812-1.1523 1.431-1.4924s1.358-.5102 2.216-.5102c.797 0 1.502.1701 2.117.5102.619.3401 1.104.8375 1.454 1.4924.355.6548.533 1.4543.533 2.3985zm-5.886 0c0 .5583.061 1.0279.183 1.4086s.312.6675.571.8604.596.2894 1.013.2894c.411 0 .743-.0965.997-.2894.259-.1929.447-.4797.564-.8604.121-.3807.182-.8503.182-1.4086 0-.5635-.061-1.0305-.182-1.4011-.117-.3756-.305-.6573-.564-.8452-.259-.1878-.596-.2817-1.013-.2817-.614 0-1.06.2107-1.34.632-.274.4213-.411 1.0533-.411 1.896zm11.382-4.4163c1.142 0 2.018.2487 2.627.7462.609.4974.914 1.2538.914 2.269v5.6727h-1.622l-.449-1.1574h-.061c-.244.3046-.493.5533-.746.7462-.254.1929-.546.335-.876.4264s-.731.137-1.203.137c-.503 0-.954-.0964-1.356-.2893-.395-.1929-.708-.4873-.936-.8833-.228-.401-.343-.9086-.343-1.5228 0-.9036.318-1.5685.952-1.9949.635-.4315 1.586-.6701 2.855-.7158l1.478-.0457v-.3731c0-.4467-.117-.7741-.351-.9822-.233-.2081-.558-.3122-.974-.3122-.411 0-.815.0584-1.211.1751-.396.1168-.792.264-1.188.4417l-.769-1.5686c.452-.2386.957-.4264 1.515-.5634.564-.1371 1.145-.2056 1.744-.2056zm1.234 4.7437-.899.0304c-.751.0203-1.274.1548-1.568.4036-.29.2487-.434.5761-.434.9822 0 .3554.104.6092.312.7615.208.1472.479.2208.814.2208.498 0 .917-.1472 1.257-.4417.345-.2944.518-.7132.518-1.2563zm7.491 4.0964c-.95 0-1.724-.3705-2.323-1.1116-.594-.7462-.891-1.8402-.891-3.2818 0-1.4569.302-2.5584.907-3.3046.604-.7513 1.393-1.1269 2.368-1.1269.406 0 .764.0558 1.073.1675.31.1117.576.2614.8.4493.228.1878.421.3984.578.6319h.076c-.03-.1624-.068-.401-.114-.7157-.04-.3198-.061-.6472-.061-.9822v-2.726h2.33v11.8479h-1.781l-.45-1.1041h-.099c-.147.2335-.332.4467-.555.6396-.219.1878-.48.3376-.785.4492-.304.1117-.662.1675-1.073.1675zm.814-1.8502c.635 0 1.082-.1878 1.34-.5635.264-.3807.404-.9518.419-1.7132v-.2513c0-.8274-.127-1.4594-.38-1.8959-.254-.4416-.726-.6625-1.417-.6625-.512 0-.913.2209-1.203.6625-.289.4416-.434 1.0787-.434 1.9112s.145 1.4594.434 1.8807c.295.4213.708.632 1.241.632zm8.771-6.8148v8.5128h-2.323v-8.5128zm-1.158-3.3351c.345 0 .642.0813.891.2437.249.1574.373.4543.373.8909 0 .4315-.124.7309-.373.8985-.249.1624-.546.2436-.891.2436-.35 0-.65-.0812-.898-.2436-.244-.1676-.366-.467-.366-.8985 0-.4366.122-.7335.366-.8909.248-.1624.548-.2437.898-.2437zm8.527 3.1752c.908 0 1.639.2487 2.193.7462.553.4924.83 1.2843.83 2.3757v5.5508h-2.323v-4.9722c0-.6091-.111-1.0685-.335-1.3781-.218-.3097-.563-.4645-1.035-.4645-.711 0-1.196.2411-1.455.7233-.258.4823-.388 1.1777-.388 2.0864v4.0051h-2.322v-8.5128h1.774l.312 1.0888h.13c.182-.2944.408-.533.677-.7157.274-.1827.576-.3173.906-.4036.335-.0863.68-.1294 1.036-.1294zm7.993 12.4189c-1.187 0-2.096-.2081-2.726-.6244-.624-.4112-.936-.9898-.936-1.736 0-.5127.16-.9417.48-1.2869.319-.3451.789-.5913 1.408-.7385-.238-.1016-.446-.2665-.624-.495-.178-.2335-.267-.4797-.267-.7385 0-.3249.094-.594.282-.8072.188-.2182.46-.4314.815-.6396-.447-.1929-.802-.5025-1.066-.9289-.259-.4264-.388-.9289-.388-1.5076 0-.6193.134-1.1447.403-1.5762.274-.4365.67-.769 1.188-.9975.523-.2284 1.157-.3426 1.903-.3426.158 0 .341.0102.549.0305s.398.0431.571.0685c.177.0254.297.0457.358.0609h2.969v1.1802l-1.332.3427c.122.1878.213.3883.274.6015s.091.4391.091.6777c0 .9137-.32 1.6269-.959 2.1396-.635.5076-1.518.7614-2.65.7614-.269-.0152-.523-.0355-.761-.0609-.117.0914-.206.1878-.267.2893s-.091.2081-.091.3198.045.2056.137.2818c.096.071.238.1269.426.1675.193.0355.432.0533.716.0533h1.447c.934 0 1.644.2005 2.132.6015.492.401.738.9898.738 1.7665 0 .9949-.416 1.7665-1.249 2.3147-.827.5483-2.017.8224-3.571.8224zm.099-1.5153c.554 0 1.028-.0533 1.424-.1599.401-.1015.708-.2487.922-.4416.213-.1878.319-.4137.319-.6777 0-.2132-.063-.3832-.19-.5101-.122-.1218-.31-.2081-.563-.2589-.249-.0508-.569-.0761-.96-.0761h-1.203c-.284 0-.54.0456-.769.137-.223.0914-.401.2183-.533.3807-.132.1675-.198.3604-.198.5787 0 .3198.152.5711.457.7538.31.1828.741.2741 1.294.2741zm.373-6.4569c.437 0 .757-.1345.96-.4035.203-.2691.304-.6345.304-1.0965 0-.5127-.106-.8959-.319-1.1497-.208-.2589-.523-.3884-.945-.3884-.426 0-.746.1295-.959.3884-.213.2538-.32.637-.32 1.1497 0 .462.104.8274.312 1.0965.214.269.536.4035.967.4035zm13.543 4.3782c-.842 0-1.56-.1522-2.154-.4568-.594-.3097-1.046-.7868-1.356-1.4315-.309-.6447-.464-1.4695-.464-2.4746 0-1.0406.175-1.8884.525-2.5432.356-.6599.845-1.1447 1.47-1.4543.629-.3097 1.358-.4645 2.185-.4645.589 0 1.097.0584 1.523.1751.431.1117.807.2462 1.127.4036l-.685 1.797c-.366-.1473-.706-.2665-1.021-.3579-.314-.0965-.629-.1447-.944-.1447-.406 0-.744.0965-1.013.2894-.269.1878-.469.472-.601.8528-.132.3807-.198.8578-.198 1.4314 0 .5635.071 1.0305.213 1.4011.142.3705.348.6472.617.8299.269.1777.596.2665.982.2665.482 0 .911-.0634 1.287-.1903.376-.132.741-.3148 1.096-.5483v1.9874c-.355.2233-.728.3832-1.119.4797-.386.1015-.876.1522-1.47.1522zm12.395-4.4238c0 .7106-.096 1.3401-.289 1.8883-.188.5482-.465 1.0127-.83 1.3934-.361.3756-.797.6599-1.31.8528-.507.1929-1.081.2893-1.721.2893-.599 0-1.149-.0964-1.652-.2893-.497-.1929-.931-.4772-1.302-.8528-.366-.3807-.65-.8452-.853-1.3934-.198-.5482-.297-1.1777-.297-1.8883 0-.9442.168-1.7437.503-2.3985.335-.6549.812-1.1523 1.431-1.4924.62-.3401 1.358-.5102 2.216-.5102.797 0 1.503.1701 2.117.5102.619.3401 1.104.8375 1.454 1.4924.355.6548.533 1.4543.533 2.3985zm-5.886 0c0 .5583.061 1.0279.183 1.4086s.312.6675.571.8604.597.2894 1.013.2894c.411 0 .743-.0965.997-.2894.259-.1929.447-.4797.564-.8604.122-.3807.182-.8503.182-1.4086 0-.5635-.06-1.0305-.182-1.4011-.117-.3756-.305-.6573-.564-.8452-.259-.1878-.596-.2817-1.012-.2817-.615 0-1.061.2107-1.341.632-.274.4213-.411 1.0533-.411 1.896zm17.892-4.4011c.965 0 1.693.2487 2.186.7462.497.4924.746 1.2843.746 2.3757v5.5508h-2.33v-4.9722c0-.6091-.104-1.0685-.312-1.3781-.208-.3097-.531-.4645-.967-.4645-.614 0-1.051.2208-1.31.6624-.259.4366-.388 1.0635-.388 1.8808v4.2716h-2.323v-4.9722c0-.4061-.045-.7462-.137-1.0203-.091-.2741-.231-.4797-.418-.6167-.188-.1371-.429-.2056-.724-.2056-.431 0-.771.1091-1.02.3274-.244.2132-.419.5305-.525.9518-.102.4162-.153.9264-.153 1.5305v4.0051h-2.322v-8.5128h1.774l.312 1.0888h.13c.172-.2944.388-.533.647-.7157.264-.1827.553-.3173.868-.4036s.634-.1294.959-.1294c.625 0 1.153.1015 1.584.3046.437.203.772.5177 1.005.9441h.206c.254-.4365.611-.7538 1.073-.9517.467-.198.947-.297 1.439-.297zm10.149 0c.959 0 1.733.3731 2.322 1.1193.594.7462.891 1.8401.891 3.2818 0 .9644-.14 1.7766-.419 2.4365-.279.6548-.665 1.1498-1.157 1.4848s-1.058.5025-1.698.5025c-.411 0-.764-.0507-1.058-.1522-.295-.1066-.546-.2412-.754-.4036-.208-.1675-.389-.3452-.541-.533h-.122c.041.2031.071.4112.092.6244.02.2132.03.4213.03.6243v3.4341h-2.322v-12.259h1.888l.328 1.1041h.106c.152-.2285.338-.4391.556-.632s.48-.3452.784-.4569c.31-.1167.668-.1751 1.074-.1751zm-.746 1.8579c-.406 0-.729.0837-.967.2513-.239.1675-.414.4187-.526.7538-.106.335-.165.7589-.175 1.2716v.2512c0 .5483.051 1.0127.152 1.3934.107.3808.282.6701.526.8681.249.1979.589.2969 1.02.2969.355 0 .647-.099.876-.2969.228-.198.398-.4873.51-.8681.117-.3858.175-.8553.175-1.4086 0-.8325-.129-1.4594-.388-1.8807-.259-.4214-.66-.632-1.203-.632zm8.29 6.8148h-2.322v-11.8479h2.322zm6.045-8.6727c.786 0 1.464.1523 2.033.4569.568.2995 1.007.736 1.317 1.3096.309.5736.464 1.2741.464 2.1016v1.1269h-5.49c.026.6548.221 1.17.587 1.5457.37.3705.883.5558 1.538.5558.543 0 1.04-.0558 1.492-.1675s.916-.2792 1.394-.5025v1.7969c-.422.2081-.863.3604-1.325.4569-.457.0964-1.013.1446-1.668.1446-.853 0-1.609-.1573-2.269-.472-.655-.3148-1.17-.7945-1.546-1.4391-.37-.6447-.555-1.4569-.555-2.4366 0-.9949.167-1.8224.502-2.4823.34-.6649.812-1.1624 1.416-1.4924.604-.335 1.307-.5025 2.11-.5025zm.015 1.6523c-.452 0-.828.1447-1.127.434-.295.2894-.465.7437-.51 1.363h3.259c-.006-.3452-.069-.6523-.191-.9214-.117-.269-.294-.4822-.533-.6396-.233-.1573-.533-.236-.898-.236zm9.364 5.3224c.254 0 .5-.0254.738-.0762.244-.0507.485-.1142.724-.1903v1.7284c-.249.1117-.559.2031-.929.2741-.366.0762-.767.1142-1.203.1142-.508 0-.965-.0812-1.371-.2436-.401-.1675-.718-.4543-.952-.8604-.228-.4112-.342-.9823-.342-1.7132v-4.1041h-1.112v-.9823l1.279-.7766.67-1.797h1.485v1.8122h2.383v1.7437h-2.383v4.1041c0 .3248.092.5685.274.7309.188.1574.434.2361.739.2361zm6.79-6.9747c.787 0 1.465.1523 2.033.4569.569.2995 1.008.736 1.318 1.3096.309.5736.464 1.2741.464 2.1016v1.1269h-5.49c.026.6548.221 1.17.587 1.5457.37.3705.883.5558 1.538.5558.543 0 1.04-.0558 1.492-.1675s.916-.2792 1.393-.5025v1.7969c-.421.2081-.862.3604-1.324.4569-.457.0964-1.013.1446-1.668.1446-.853 0-1.609-.1573-2.269-.472-.655-.3148-1.17-.7945-1.546-1.4391-.37-.6447-.556-1.4569-.556-2.4366 0-.9949.168-1.8224.503-2.4823.34-.6649.812-1.1624 1.416-1.4924.604-.335 1.307-.5025 2.109-.5025zm.016 1.6523c-.452 0-.828.1447-1.127.434-.295.2894-.465.7437-.51 1.363h3.258c-.005-.3452-.068-.6523-.19-.9214-.117-.269-.294-.4822-.533-.6396-.233-.1573-.533-.236-.898-.236z" fill="#fff"/><path d="m593.534 19.2928c-2.075.0048-4.102.6244-5.825 1.7807-1.723 1.1562-3.064 2.7971-3.855 4.7154s-.995 4.028-.587 6.0624c.407 2.0344 1.409 3.9023 2.878 5.3677 1.469 1.4655 3.339 2.4628 5.374 2.8658s4.145.1937 6.061-.6014c1.917-.7951 3.554-2.1404 4.707-3.8659 1.152-1.7255 1.767-3.7539 1.767-5.8287 0-1.3804-.272-2.7473-.801-4.0223s-1.305-2.4332-2.282-3.4082c-.977-.9749-2.137-1.7475-3.413-2.2736-1.276-.526-2.644-.7951-4.024-.7919zm6.438 14.3104-2.624 2.5997-3.814-3.8145-3.791 3.8145-2.624-2.5997 3.815-3.8144-3.815-3.8146 2.624-2.5997 3.791 3.7902 3.814-3.7902 2.624 2.5997-3.814 3.8146z" fill="#fff"/><rect height="56.378" rx="4.198" shape-rendering="crispEdges" stroke="#585c65" stroke-width="1.2" width="464.222" x="157.225" y="1.6"/></g><path d="m168.321 13.295h33.587v32.987h-33.587z" fill="#871359" stroke="#fff" stroke-dasharray="1.2 1.2" stroke-width=".6"/><path d="m580.963 15.694h28.189v27.684h-28.189z" fill="#871359" stroke="#fff" stroke-dasharray="1.2 1.2" stroke-width=".6"/><path d="m179.794 31.0305.783.1927c.052-.0492.105-.0943.16-.1353.057-.0437.12-.082.188-.1148.066-.03.141-.0546.226-.0738.087-.0191.19-.0287.307-.0287.178 0 .334.0301.468.0902.134.0574.246.1394.336.246s.157.2324.201.3772c.046.1422.069.2993.069.4715 0 .1777-.019.3431-.057.4961-.038.1504-.096.2788-.172.3854-.082.1094-.183.1941-.304.2542-.12.0602-.262.0902-.426.0902-.279 0-.508-.0779-.689-.2337-.177-.1558-.284-.3799-.32-.6724h-.955c.017.2761.081.5207.193.7339.115.2105.261.3868.439.5289.177.1449.381.2542.61.328.23.0711.471.1066.722.1066.331 0 .618-.0519.861-.1558.243-.1038.444-.246.603-.4264.161-.1804.28-.3908.356-.6314.08-.2432.119-.5015.119-.7749 0-.3088-.041-.5863-.123-.8323-.082-.2487-.199-.4605-.352-.6355-.156-.1722-.346-.3047-.57-.3977-.222-.0929-.473-.1394-.755-.1394-.207 0-.392.026-.553.0779-.159.052-.287.1066-.385.164l.155-1.4309h2.395v-.8692h-3.211zm7.739-3.0381h-.115c-.465 0-.878.0725-1.238.2173-.361.1449-.665.3526-.911.6232-.289.3144-.497.6902-.623 1.1275-.123.4346-.184.8925-.184 1.3735v.4059c0 .3198.046.6246.139.9143.093.287.23.5371.41.7503.169.205.377.3677.623.4879.246.1203.526.1804.841.1804.306 0 .578-.0519.816-.1558.24-.1066.444-.2528.611-.4387.164-.1831.288-.3977.373-.6437.087-.2487.131-.5152.131-.7995 0-.2596-.034-.5097-.103-.7503-.065-.2405-.169-.4537-.311-.6396-.14-.1858-.317-.3334-.533-.4428-.213-.1093-.465-.164-.755-.164-.136 0-.266.0164-.389.0492-.123.0301-.235.0711-.336.123-.107.0547-.204.1176-.291.1886-.088.0684-.164.1394-.23.2132.022-.2542.078-.492.168-.7134.093-.2214.223-.4113.39-.5699.164-.1585.364-.2815.602-.369.241-.0902.524-.1353.849-.1353h.066zm-1.071 2.8413c.159 0 .298.0328.419.0984.123.0629.225.1504.307.2624.082.1121.144.2433.185.3936.043.1476.065.3048.065.4715 0 .175-.022.3376-.065.4879-.044.1476-.108.2761-.193.3854-.085.1066-.187.1914-.308.2542-.12.0602-.257.0902-.41.0902-.139 0-.27-.0314-.393-.0943-.123-.0628-.231-.1544-.324-.2747-.093-.1202-.167-.2706-.221-.451-.052-.1804-.078-.3895-.078-.6273v-.3034c.043-.1011.098-.1927.164-.2747.065-.082.139-.1544.221-.2173.09-.0628.189-.112.295-.1476.107-.0355.219-.0533.336-.0533z" fill="#fff"/><path d="m585.761 20.492h18.593v18.593h-18.593z" fill="#cd4095" stroke="#fff" stroke-dasharray="1.2 1.2" stroke-width=".6"/><path d="m592.93 29.5631v.7708h.586c.17 0 .323.0205.459.0615.14.0383.259.0971.357.1763.099.082.174.1845.226.3075s.078.2706.078.4428c0 .1531-.024.2898-.07.41-.044.1176-.108.216-.193.2952-.087.0848-.195.149-.324.1927-.125.041-.268.0615-.426.0615-.148 0-.283-.0218-.406-.0656-.12-.0437-.224-.1052-.312-.1845-.09-.0765-.16-.1694-.209-.2788-.046-.112-.069-.2337-.069-.3649h-.98c0 .2788.053.5235.16.7339.109.2078.254.3827.434.5248.181.1422.39.2488.627.3198.238.0711.486.1066.743.1066.284 0 .548-.0382.791-.1148.246-.0792.459-.194.639-.3444.178-.1476.318-.3293.419-.5453.104-.2186.155-.4674.155-.7462 0-.1503-.017-.2952-.053-.4346-.035-.1421-.093-.2747-.172-.3977-.079-.1202-.182-.2282-.308-.3239-.123-.0984-.273-.1776-.451-.2378.151-.0683.282-.1517.394-.2501s.205-.2036.279-.3157c.074-.1148.128-.2337.164-.3567.038-.123.057-.246.057-.369 0-.2788-.046-.5234-.139-.7339-.093-.2104-.224-.3881-.394-.533-.166-.1421-.369-.2487-.607-.3198-.235-.0738-.493-.1107-.774-.1107-.277 0-.531.041-.763.123-.23.082-.429.1955-.599.3403-.169.1476-.302.3212-.397.5207-.096.1996-.144.4182-.144.656h.98c0-.1284.023-.2446.07-.3485.049-.1038.116-.1927.201-.2665.082-.0738.179-.1298.291-.1681.115-.041.239-.0615.373-.0615.15 0 .283.0205.398.0615.117.041.214.0984.291.1722.076.0793.134.175.172.287.041.1121.061.2392.061.3813 0 .1312-.022.2542-.065.369-.041.1121-.101.2064-.181.2829-.084.0875-.192.1558-.324.205-.131.0465-.284.0697-.459.0697zm7.722 3.4276v-.7913h-2.779l1.328-1.4186c.175-.1858.336-.3662.484-.5412.15-.1749.28-.3485.389-.5207.107-.1722.19-.3457.25-.5207.063-.1776.095-.3608.095-.5494 0-.2514-.041-.481-.123-.6888-.082-.2104-.201-.3908-.357-.5412-.159-.1503-.354-.2678-.586-.3526-.23-.0847-.491-.1271-.783-.1271-.312 0-.595.0506-.849.1517-.252.1012-.465.2378-.64.41-.177.1722-.314.3745-.41.6068-.095.2296-.143.4743-.143.7339h.984c0-.1722.022-.3252.065-.4592.044-.1366.11-.2528.197-.3485.085-.0902.192-.1599.32-.2091s.28-.0738.455-.0738c.137 0 .26.0233.369.0697.112.0465.208.1107.287.1927s.139.1804.18.2952.062.2419.062.3813c0 .1039-.015.2078-.045.3116-.027.1012-.074.2105-.14.328-.068.1176-.157.2474-.266.3895-.109.1394-.245.298-.406.4756l-1.943 2.1156v.6806z" fill="#fff"/><path d="m594.096 10.7676v-3.84168h-1.009l-2.579 4.03438.025.6027h2.583v1.3325h.98v-1.3325h.75v-.7954zm-2.587 0 1.492-2.31649.115-.2132v2.52969zm8.038-2.26729c0-.26513-.047-.5002-.14-.7052-.093-.20773-.22-.3813-.381-.5207-.167-.14213-.362-.24873-.586-.31979-.222-.0738-.464-.1107-.726-.1107-.265 0-.51.0369-.734.1107-.221.07106-.411.17766-.57.31979-.161.14214-.288.3157-.381.5207-.09.205-.135.44007-.135.7052 0 .1476.02.28837.061.4223.041.13394.099.25694.172.369.071.10934.158.2091.259.2993.104.0902.218.16674.344.2296-.148.06833-.281.1517-.402.25009-.117.0957-.218.2036-.303.3239-.085.1257-.15.2624-.197.41-.044.1476-.066.3034-.066.4674 0 .2788.05.5248.148.738.101.2105.241.3868.418.5289.175.1449.382.2542.619.328.241.0738.501.1107.779.1107.274 0 .528-.0369.763-.1107.238-.0738.446-.1831.623-.328.175-.1421.313-.3198.414-.533s.152-.4578.152-.7339c0-.1941-.031-.3745-.094-.5412s-.151-.3157-.263-.4469c-.079-.0984-.172-.1845-.279-.2583-.103-.07652-.217-.14349-.34-.20089.104-.05193.198-.11206.283-.1804.085-.06833.16-.14213.226-.2214.106-.123.188-.2624.246-.4182.06-.1558.09-.3239.09-.5043zm-.849 2.71829c0 .1531-.025.2897-.074.41-.049.1175-.115.2187-.197.3034-.087.082-.191.1449-.311.1886-.118.0437-.247.0656-.39.0656-.15 0-.285-.0205-.406-.0615-.117-.0437-.218-.1052-.303-.1845-.087-.082-.154-.1831-.201-.3034-.046-.123-.07-.261-.07-.4141 0-.1503.022-.2856.066-.4059.047-.123.112-.2296.197-.3198.085-.0847.186-.1503.303-.1968.121-.0465.256-.0697.406-.0697.145 0 .278.0232.398.0697s.224.1121.311.1968c.085.0902.151.1968.197.3198.049.1203.074.2542.074.4018zm-.127-2.68139c0 .13394-.021.25694-.062.369-.041.10934-.098.20227-.172.2788-.074.07927-.162.14077-.266.1845-.104.04374-.22.0656-.349.0656-.128 0-.244-.02186-.348-.0656-.104-.04373-.193-.10523-.267-.1845-.076-.07653-.134-.16946-.172-.2788-.038-.11206-.057-.23506-.057-.369 0-.13666.019-.26103.057-.3731.038-.11206.093-.20636.164-.2829.074-.07653.161-.1353.262-.1763.104-.04373.221-.0656.349-.0656.131 0 .249.02187.353.0656.103.04374.194.10387.27.1804.074.082.131.17767.172.287.044.10934.066.23097.066.3649z" fill="#cd4095"/><path d="m636 1h8.563v58.5h-8.563" stroke="#4091d2"/><path d="m655.229 34.8032h-1.811v-4.957c0-.1367.002-.3047.006-.5039.004-.2031.01-.4102.017-.6211.008-.2149.016-.4082.024-.5801-.043.0508-.131.1387-.264.2637-.129.1211-.25.2305-.363.3281l-.984.791-.874-1.0898 2.76-2.1973h1.489zm8.26-4.2832c0 .6914-.055 1.3086-.165 1.8516-.105.543-.277 1.0039-.515 1.3828-.235.3789-.543.668-.926.8672s-.848.2988-1.394.2988c-.688 0-1.252-.1738-1.694-.5215-.441-.3515-.767-.8554-.978-1.5117-.211-.6601-.317-1.4492-.317-2.3672 0-.9258.096-1.7168.287-2.373.196-.6602.512-1.166.95-1.5176.437-.3516 1.021-.5273 1.752-.5273.683 0 1.246.1757 1.687.5273.445.3477.775.8516.99 1.5117.215.6563.323 1.4492.323 2.3789zm-4.19 0c0 .6524.035 1.1973.106 1.6348.074.4336.197.7598.369.9785.172.2188.41.3281.715.3281.3 0 .537-.1074.709-.3222.175-.2188.3-.545.375-.9786.074-.4375.111-.9843.111-1.6406 0-.6523-.037-1.1972-.111-1.6347-.075-.4375-.2-.7657-.375-.9844-.172-.2227-.409-.334-.709-.334-.305 0-.543.1113-.715.334-.172.2187-.295.5469-.369.9844-.071.4375-.106.9824-.106 1.6347zm4.985.6446c0-.4922.035-.9786.105-1.459.074-.4844.201-.9395.381-1.3653.18-.4297.432-.8086.756-1.1367.324-.332.736-.5918 1.236-.7793.5-.1914 1.106-.2871 1.817-.2871.168 0 .363.0078.586.0234.226.0118.414.0332.562.0645v1.4473c-.156-.0352-.324-.0625-.504-.0821-.176-.0234-.351-.0351-.527-.0351-.711 0-1.262.1133-1.653.3398-.386.2266-.66.541-.82.9434-.156.3984-.248.8633-.275 1.3945h.076c.109-.1914.246-.3613.41-.5098.168-.1484.371-.2656.609-.3515.239-.0899.518-.1348.838-.1348.5 0 .934.1074 1.301.3223.367.2109.651.5176.85.9199s.299.8926.299 1.4707c0 .6172-.12 1.1484-.358 1.5938-.238.4453-.576.7871-1.013 1.0253-.434.2344-.95.3516-1.547.3516-.438 0-.846-.0742-1.225-.2226-.379-.1524-.711-.3829-.996-.6915-.285-.3085-.508-.6972-.668-1.166-.16-.4726-.24-1.0312-.24-1.6757zm3.093 2.3085c.356 0 .645-.121.868-.3632.222-.2422.334-.6211.334-1.1368 0-.4179-.098-.746-.293-.9843-.192-.2422-.483-.3633-.873-.3633-.266 0-.5.0605-.703.1816-.2.1172-.354.2676-.463.4512-.11.1797-.164.3652-.164.5566 0 .1993.027.3965.082.5918.054.1954.136.3731.246.5332.109.1602.244.2891.404.3868.164.0976.352.1464.562.1464zm6.292 1.4473c-.731 0-1.326-.2851-1.787-.8555-.457-.5742-.686-1.416-.686-2.5253 0-1.1211.233-1.9688.697-2.543.465-.5781 1.073-.8672 1.823-.8672.312 0 .588.043.826.1289s.443.2012.615.3457c.176.1445.324.3066.445.4863h.059c-.023-.125-.053-.3086-.088-.5507-.031-.2461-.047-.4981-.047-.7559v-2.0977h1.793v9.1172h-1.371l-.346-.8496h-.076c-.113.1797-.256.3438-.428.4922-.168.1445-.369.2598-.603.3457s-.51.1289-.826.1289zm.627-1.4238c.488 0 .832-.1445 1.031-.4336.203-.293.311-.7324.322-1.3184v-.1933c0-.6367-.097-1.1231-.293-1.459-.195-.3399-.558-.5098-1.09-.5098-.394 0-.703.1699-.925.5098-.223.3398-.334.8301-.334 1.4707s.111 1.123.334 1.4473c.226.3242.545.4863.955.4863zm8.465-5.3672c.738 0 1.334.2871 1.787.8613.457.5742.685 1.416.685 2.5254 0 .7422-.107 1.3672-.322 1.875-.215.5039-.512.8848-.89 1.1426-.379.2578-.815.3867-1.307.3867-.316 0-.588-.0391-.815-.1172-.226-.082-.419-.1855-.58-.3105-.16-.1289-.298-.2656-.416-.4102h-.093c.031.1563.054.3164.07.4805s.023.3242.023.4805v2.6425h-1.787v-9.4336h1.453l.252.8497h.082c.118-.1758.26-.3379.428-.4864.168-.1484.369-.2656.604-.3515.238-.0899.513-.1348.826-.1348zm-.574 1.4297c-.313 0-.561.0644-.745.1933-.183.1289-.318.3223-.404.5801-.082.2578-.127.584-.135.9785v.1934c0 .4219.039.7793.118 1.0723.082.2929.216.5156.404.6679.191.1524.453.2285.785.2285.273 0 .498-.0761.674-.2285.176-.1523.307-.375.392-.6679.09-.2969.135-.6582.135-1.084 0-.6406-.099-1.1231-.299-1.4473-.199-.3242-.507-.4863-.925-.4863z" fill="#4091d2"/></svg>