<svg width="1087" height="389" viewBox="0 0 1087 389" fill="none" xmlns="http://www.w3.org/2000/svg"><rect width="1087" height="388" transform="translate(0 0.467773)" fill="#F1F1F6"/><g clip-path="url(#clip0_4930_80491)"><rect x="256.25" y="31.936" width="574.5" height="325.064" fill="#F1F1F6"/><g clip-path="url(#clip1_4930_80491)"><rect width="574.5" height="37.064" transform="translate(256.25 31.936)" fill="#fff"/><rect x="256.25" y="31.936" width="574.5" height="37.064" fill="#0E416C"/><g clip-path="url(#clip2_4930_80491)"><path d="M268.854 54.9164H280.796V53.5896H268.854V54.9164ZM268.854 51.5994H280.796V50.2726H268.854V51.5994ZM268.854 46.9557V48.2824H280.796V46.9557H268.854Z" fill="#fff"/></g><path d="M300.312 45.2277C300.039 45.2277 299.78 45.282 299.544 45.3798C299.308 45.4777 299.037 45.3656 298.939 45.1295C298.841 44.8934 298.953 44.6226 299.189 44.5247C299.536 44.3811 299.915 44.3021 300.312 44.3021H301.237C301.493 44.3021 301.7 44.5093 301.7 44.7649C301.7 45.0205 301.493 45.2277 301.237 45.2277H300.312Z" fill="#fff"/><path d="M302.626 44.7649C302.626 44.5093 302.833 44.3021 303.089 44.3021H304.94C305.196 44.3021 305.403 44.5093 305.403 44.7649C305.403 45.0205 305.196 45.2277 304.94 45.2277H303.089C302.833 45.2277 302.626 45.0205 302.626 44.7649Z" fill="#fff"/><path d="M306.328 44.7649C306.328 44.5093 306.536 44.3021 306.791 44.3021H307.717C308.114 44.3021 308.493 44.3811 308.839 44.5247C309.075 44.6226 309.187 44.8934 309.089 45.1295C308.991 45.3656 308.721 45.4777 308.485 45.3798C308.249 45.282 307.99 45.2277 307.717 45.2277H306.791C306.536 45.2277 306.328 45.0205 306.328 44.7649Z" fill="#fff"/><path d="M298.208 45.8609C298.444 45.9589 298.556 46.2296 298.458 46.4658C298.36 46.7016 298.306 46.9606 298.306 47.2334V48.159C298.306 48.4146 298.099 48.6219 297.843 48.6219C297.588 48.6219 297.38 48.4146 297.38 48.159V47.2334C297.38 46.8368 297.459 46.4574 297.603 46.1112C297.701 45.8751 297.972 45.763 298.208 45.8609Z" fill="#fff"/><path d="M309.821 45.8609C310.057 45.763 310.328 45.8751 310.426 46.1112C310.569 46.4574 310.648 46.8368 310.648 47.2334V48.159C310.648 48.4146 310.441 48.6219 310.185 48.6219C309.93 48.6219 309.723 48.4146 309.723 48.159V47.2334C309.723 46.9606 309.668 46.7016 309.571 46.4658C309.473 46.2296 309.585 45.9589 309.821 45.8609Z" fill="#fff"/><path d="M297.843 49.5475C298.099 49.5475 298.306 49.7547 298.306 50.0104V51.8617C298.306 52.1173 298.099 52.3245 297.843 52.3245C297.588 52.3245 297.38 52.1173 297.38 51.8617V50.0104C297.38 49.7547 297.588 49.5475 297.843 49.5475Z" fill="#fff"/><path d="M310.185 49.5475C310.441 49.5475 310.648 49.7547 310.648 50.0104V51.8617C310.648 52.1173 310.441 52.3245 310.185 52.3245C309.93 52.3245 309.723 52.1173 309.723 51.8617V50.0104C309.723 49.7547 309.93 49.5475 310.185 49.5475Z" fill="#fff"/><path d="M297.843 53.2502C298.099 53.2502 298.306 53.4574 298.306 53.713V54.6387C298.306 54.9115 298.36 55.1705 298.458 55.4063C298.556 55.6424 298.444 55.9132 298.208 56.0111C297.972 56.109 297.701 55.997 297.603 55.7609C297.459 55.4146 297.38 55.0353 297.38 54.6387V53.713C297.38 53.4574 297.588 53.2502 297.843 53.2502Z" fill="#fff"/><path d="M310.185 53.2502C310.441 53.2502 310.648 53.4574 310.648 53.713V54.6387C310.648 55.0353 310.569 55.4146 310.426 55.7609C310.328 55.997 310.057 56.109 309.821 56.0111C309.585 55.9132 309.473 55.6424 309.571 55.4063C309.668 55.1705 309.723 54.9115 309.723 54.6387V53.713C309.723 53.4574 309.93 53.2502 310.185 53.2502Z" fill="#fff"/><path d="M298.939 56.7425C299.037 56.5064 299.308 56.3944 299.544 56.4923C299.78 56.5901 300.039 56.6443 300.312 56.6443H301.237C301.493 56.6443 301.7 56.8515 301.7 57.1071C301.7 57.3628 301.493 57.57 301.237 57.57H300.312C299.915 57.57 299.536 57.491 299.189 57.3474C298.953 57.2495 298.841 56.9787 298.939 56.7425Z" fill="#fff"/><path d="M309.089 56.7425C309.187 56.9787 309.075 57.2495 308.839 57.3474C308.493 57.491 308.114 57.57 307.717 57.57H306.791C306.536 57.57 306.328 57.3628 306.328 57.1071C306.328 56.8515 306.536 56.6443 306.791 56.6443H307.717C307.99 56.6443 308.249 56.5901 308.485 56.4923C308.721 56.3944 308.991 56.5064 309.089 56.7425Z" fill="#fff"/><path d="M302.626 57.1071C302.626 56.8515 302.833 56.6443 303.089 56.6443H304.94C305.196 56.6443 305.403 56.8515 305.403 57.1071C305.403 57.3628 305.196 57.57 304.94 57.57H303.089C302.833 57.57 302.626 57.3628 302.626 57.1071Z" fill="#fff"/><path d="M309.278 46.3638C309.459 46.1831 309.459 45.89 309.278 45.7093C309.098 45.5285 308.805 45.5285 308.624 45.7093L308.009 46.3241C307.828 46.5048 307.828 46.7979 308.009 46.9786C308.19 47.1594 308.483 47.1594 308.664 46.9786L309.278 46.3638Z" fill="#fff"/><path d="M307.434 48.2082C307.615 48.0274 307.615 47.7344 307.434 47.5536C307.253 47.3729 306.96 47.3729 306.78 47.5536L305.55 48.7832C305.369 48.9639 305.369 49.257 305.55 49.4377C305.731 49.6184 306.024 49.6184 306.205 49.4377L307.434 48.2082Z" fill="#fff"/><path d="M304.975 50.6672C305.156 50.4865 305.156 50.1934 304.975 50.0127C304.794 49.832 304.501 49.832 304.321 50.0127L304.014 50.3189L303.708 50.0127C303.527 49.832 303.234 49.832 303.054 50.0127C302.873 50.1934 302.873 50.4865 303.054 50.6672L303.36 50.9735L303.091 51.2422C302.91 51.423 302.91 51.716 303.091 51.8968C303.272 52.0775 303.565 52.0775 303.746 51.8968L304.014 51.628L304.283 51.8968C304.464 52.0775 304.757 52.0775 304.938 51.8968C305.118 51.716 305.118 51.423 304.938 51.2422L304.669 50.9735L304.975 50.6672Z" fill="#fff"/><path d="M302.516 53.1263C302.697 52.9456 302.697 52.6525 302.516 52.4718C302.335 52.291 302.042 52.291 301.861 52.4718L300.632 53.7013C300.451 53.8821 300.451 54.1751 300.632 54.3559C300.813 54.5366 301.106 54.5366 301.286 54.3559L302.516 53.1263Z" fill="#fff"/><path d="M300.057 55.5854C300.238 55.4047 300.238 55.1116 300.057 54.9309C299.876 54.7501 299.583 54.7501 299.402 54.9309L298.788 55.5456C298.607 55.7264 298.607 56.0194 298.788 56.2002C298.968 56.3809 299.261 56.3809 299.442 56.2002L300.057 55.5854Z" fill="#fff"/><path d="M308.587 56.2002C308.767 56.3809 309.06 56.3809 309.241 56.2002C309.422 56.0194 309.422 55.7264 309.241 55.5456L308.626 54.9309C308.446 54.7501 308.152 54.7501 307.972 54.9309C307.791 55.1116 307.791 55.4047 307.972 55.5854L308.587 56.2002Z" fill="#fff"/><path d="M306.742 54.3559C306.923 54.5366 307.216 54.5366 307.397 54.3559C307.577 54.1751 307.577 53.8821 307.397 53.7013L306.167 52.4718C305.986 52.291 305.693 52.291 305.513 52.4718C305.332 52.6525 305.332 52.9456 305.513 53.1263L306.742 54.3559Z" fill="#fff"/><path d="M301.824 49.4377C302.005 49.6184 302.298 49.6184 302.479 49.4377C302.659 49.257 302.659 48.9639 302.479 48.7832L301.249 47.5536C301.068 47.3729 300.775 47.3729 300.594 47.5536C300.414 47.7344 300.414 48.0274 300.594 48.2082L301.824 49.4377Z" fill="#fff"/><path d="M299.365 46.9786C299.546 47.1594 299.839 47.1594 300.019 46.9786C300.2 46.7979 300.2 46.5048 300.019 46.3241L299.405 45.7093C299.224 45.5285 298.931 45.5285 298.75 45.7093C298.569 45.89 298.569 46.1831 298.75 46.3638L299.365 46.9786Z" fill="#fff"/><path d="M302.198 47.782C302.381 47.7263 302.577 47.6962 302.78 47.6962H303.243C303.499 47.6962 303.706 47.489 303.706 47.2334C303.706 46.9777 303.499 46.7705 303.243 46.7705H302.78C302.485 46.7705 302.199 46.8143 301.929 46.8961C301.684 46.9702 301.546 47.2286 301.62 47.4732C301.694 47.7179 301.953 47.8561 302.198 47.782Z" fill="#fff"/><path d="M304.786 46.7705C304.53 46.7705 304.323 46.9777 304.323 47.2334C304.323 47.489 304.53 47.6962 304.786 47.6962H305.249C305.452 47.6962 305.647 47.7263 305.831 47.782C306.076 47.8561 306.334 47.7179 306.408 47.4732C306.482 47.2286 306.344 46.9702 306.1 46.8961C305.83 46.8143 305.544 46.7705 305.249 46.7705H304.786Z" fill="#fff"/><path d="M300.86 49.1192C300.934 48.8746 300.796 48.6162 300.552 48.5421C300.307 48.4679 300.049 48.6062 299.974 48.8508C299.893 49.1207 299.849 49.4066 299.849 49.7018V50.1646C299.849 50.4203 300.056 50.6275 300.312 50.6275C300.567 50.6275 300.774 50.4203 300.774 50.1646V49.7018C300.774 49.4985 300.805 49.303 300.86 49.1192Z" fill="#fff"/><path d="M308.054 48.8508C307.98 48.6062 307.722 48.4679 307.477 48.5421C307.232 48.6162 307.094 48.8746 307.168 49.1192C307.224 49.303 307.254 49.4985 307.254 49.7018V50.1646C307.254 50.4203 307.461 50.6275 307.717 50.6275C307.973 50.6275 308.18 50.4203 308.18 50.1646V49.7018C308.18 49.4066 308.136 49.1207 308.054 48.8508Z" fill="#fff"/><path d="M300.774 51.7074C300.774 51.4518 300.567 51.2446 300.312 51.2446C300.056 51.2446 299.849 51.4518 299.849 51.7074V52.1703C299.849 52.4655 299.893 52.7514 299.974 53.0212C300.049 53.2659 300.307 53.4041 300.552 53.33C300.796 53.2559 300.934 52.9975 300.86 52.7528C300.805 52.569 300.774 52.3736 300.774 52.1703V51.7074Z" fill="#fff"/><path d="M308.18 51.7074C308.18 51.4518 307.973 51.2446 307.717 51.2446C307.461 51.2446 307.254 51.4518 307.254 51.7074V52.1703C307.254 52.3736 307.224 52.569 307.168 52.7528C307.094 52.9975 307.232 53.2559 307.477 53.33C307.722 53.4041 307.98 53.2659 308.054 53.0212C308.136 52.7514 308.18 52.4655 308.18 52.1703V51.7074Z" fill="#fff"/><path d="M302.198 54.0901C301.953 54.0159 301.694 54.1542 301.62 54.3988C301.546 54.6434 301.684 54.9018 301.929 54.976C302.199 55.0577 302.485 55.1015 302.78 55.1015H303.243C303.499 55.1015 303.706 54.8943 303.706 54.6387C303.706 54.3831 303.499 54.1759 303.243 54.1759H302.78C302.577 54.1759 302.381 54.1458 302.198 54.0901Z" fill="#fff"/><path d="M306.1 54.976C306.344 54.9018 306.482 54.6434 306.408 54.3988C306.334 54.1542 306.076 54.0159 305.831 54.0901C305.647 54.1458 305.452 54.1759 305.249 54.1759H304.786C304.53 54.1759 304.323 54.3831 304.323 54.6387C304.323 54.8943 304.53 55.1015 304.786 55.1015H305.249C305.544 55.1015 305.83 55.0577 306.1 54.976Z" fill="#fff"/></g><rect width="553.271" height="132.016" transform="translate(266.864 79.6148)" fill="#CBCBCB"/><rect width="551.945" height="43.121" transform="translate(267.528 80.2782)" fill="#fff"/><path d="M279.574 107.338V96.9198H280.786V106.241H285.382V107.338H279.574ZM288.328 107.338H287.145V99.528H288.328V107.338ZM287.045 97.4115C287.045 97.1407 287.111 96.9436 287.244 96.82C287.377 96.6918 287.544 96.6276 287.743 96.6276C287.933 96.6276 288.097 96.6918 288.235 96.82C288.373 96.9483 288.442 97.1455 288.442 97.4115C288.442 97.6776 288.373 97.8771 288.235 98.0101C288.097 98.1384 287.933 98.2026 287.743 98.2026C287.544 98.2026 287.377 98.1384 287.244 98.0101C287.111 97.8771 287.045 97.6776 287.045 97.4115ZM296.04 105.208C296.04 105.935 295.769 106.495 295.228 106.89C294.686 107.284 293.926 107.481 292.947 107.481C291.912 107.481 291.104 107.317 290.524 106.989V105.892C290.9 106.082 291.301 106.232 291.729 106.341C292.161 106.45 292.577 106.505 292.976 106.505C293.593 106.505 294.069 106.407 294.401 106.213C294.734 106.013 294.9 105.711 294.9 105.307C294.9 105.003 294.767 104.745 294.501 104.531C294.24 104.312 293.726 104.056 292.962 103.761C292.235 103.49 291.717 103.255 291.408 103.056C291.104 102.851 290.876 102.621 290.724 102.364C290.577 102.108 290.503 101.801 290.503 101.445C290.503 100.808 290.762 100.307 291.28 99.9414C291.798 99.5708 292.508 99.3855 293.411 99.3855C294.251 99.3855 295.073 99.5566 295.876 99.8986L295.456 100.861C294.672 100.538 293.962 100.376 293.325 100.376C292.764 100.376 292.342 100.464 292.057 100.64C291.771 100.816 291.629 101.058 291.629 101.367C291.629 101.576 291.681 101.754 291.786 101.901C291.895 102.048 292.068 102.189 292.306 102.322C292.544 102.455 293 102.647 293.674 102.899C294.601 103.236 295.225 103.576 295.548 103.918C295.876 104.26 296.04 104.69 296.04 105.208ZM300.66 106.505C300.869 106.505 301.071 106.49 301.266 106.462C301.46 106.429 301.615 106.395 301.729 106.362V107.267C301.601 107.329 301.411 107.379 301.159 107.417C300.912 107.46 300.688 107.481 300.489 107.481C298.978 107.481 298.223 106.685 298.223 105.094V100.447H297.104V99.8772L298.223 99.3855L298.722 97.718H299.406V99.528H301.672V100.447H299.406V105.044C299.406 105.514 299.517 105.875 299.741 106.127C299.964 106.379 300.27 106.505 300.66 106.505ZM307.598 107.338V96.9198H308.809V107.338H307.598ZM314.184 106.505C314.393 106.505 314.595 106.49 314.79 106.462C314.985 106.429 315.139 106.395 315.253 106.362V107.267C315.125 107.329 314.935 107.379 314.683 107.417C314.436 107.46 314.213 107.481 314.013 107.481C312.503 107.481 311.747 106.685 311.747 105.094V100.447H310.628V99.8772L311.747 99.3855L312.246 97.718H312.93V99.528H315.196V100.447H312.93V105.044C312.93 105.514 313.042 105.875 313.265 106.127C313.488 106.379 313.795 106.505 314.184 106.505ZM320.286 107.481C319.132 107.481 318.22 107.129 317.55 106.426C316.885 105.723 316.552 104.747 316.552 103.497C316.552 102.238 316.861 101.238 317.479 100.497C318.101 99.7561 318.935 99.3855 319.98 99.3855C320.959 99.3855 321.733 99.7086 322.303 100.355C322.873 100.996 323.158 101.844 323.158 102.899V103.647H317.778C317.802 104.564 318.032 105.26 318.469 105.735C318.911 106.21 319.531 106.448 320.329 106.448C321.17 106.448 322.002 106.272 322.823 105.92V106.975C322.405 107.156 322.009 107.284 321.633 107.36C321.263 107.441 320.814 107.481 320.286 107.481ZM319.966 100.376C319.339 100.376 318.837 100.58 318.462 100.989C318.092 101.398 317.873 101.963 317.806 102.685H321.89C321.89 101.939 321.724 101.369 321.391 100.975C321.058 100.576 320.583 100.376 319.966 100.376ZM335.304 107.338V102.257C335.304 101.635 335.171 101.169 334.904 100.861C334.638 100.547 334.225 100.39 333.664 100.39C332.928 100.39 332.384 100.602 332.033 101.025C331.681 101.447 331.505 102.098 331.505 102.977V107.338H330.322V102.257C330.322 101.635 330.189 101.169 329.923 100.861C329.657 100.547 329.241 100.39 328.676 100.39C327.935 100.39 327.391 100.614 327.044 101.06C326.702 101.502 326.531 102.229 326.531 103.241V107.338H325.348V99.528H326.31L326.503 100.597H326.56C326.783 100.217 327.096 99.92 327.5 99.7062C327.909 99.4924 328.365 99.3855 328.868 99.3855C330.089 99.3855 330.888 99.8274 331.263 100.711H331.32C331.553 100.302 331.89 99.9794 332.332 99.7418C332.774 99.5043 333.277 99.3855 333.843 99.3855C334.726 99.3855 335.387 99.6136 335.824 100.07C336.266 100.521 336.487 101.245 336.487 102.243V107.338H335.304Z" fill="#252A2E"/><g clip-path="url(#clip3_4930_80491)"><rect x="789.288" y="95.204" width="13.268" height="13.268" fill="#fff"/><rect x="787.961" y="95.204" width="13.268" height="13.268" fill="#fff"/><path fill-rule="evenodd" clip-rule="evenodd" d="M789.205 93.8777H801.976C802.979 93.8777 803.8 94.6738 803.8 95.6468V108.03C803.8 109.003 802.979 109.799 801.976 109.799H789.205C788.202 109.799 787.381 109.003 787.381 108.03V95.6468C787.381 94.6738 788.202 93.8777 789.205 93.8777ZM801.976 108.03V95.6468H789.205V108.03H801.976Z" fill="#90939F"/><path fill-rule="evenodd" clip-rule="evenodd" d="M789.141 93.8777H802.04C803.053 93.8777 803.883 94.6738 803.883 95.6468V108.03C803.883 109.003 803.053 109.799 802.04 109.799H789.141C788.127 109.799 787.298 109.003 787.298 108.03V95.6468C787.298 94.6738 788.127 93.8777 789.141 93.8777ZM802.04 108.03V95.6468H789.141V108.03H802.04Z" fill="#90939F"/></g><rect width="551.945" height="43.121" transform="translate(267.528 124.062)" fill="#fff"/><path d="M279.574 151.008V140.59H280.786V149.911H285.382V151.008H279.574ZM288.328 151.008H287.145V143.198H288.328V151.008ZM287.045 141.081C287.045 140.81 287.111 140.613 287.244 140.49C287.377 140.362 287.544 140.297 287.743 140.297C287.933 140.297 288.097 140.362 288.235 140.49C288.373 140.618 288.442 140.815 288.442 141.081C288.442 141.347 288.373 141.547 288.235 141.68C288.097 141.808 287.933 141.872 287.743 141.872C287.544 141.872 287.377 141.808 287.244 141.68C287.111 141.547 287.045 141.347 287.045 141.081ZM296.04 148.877C296.04 149.604 295.769 150.165 295.228 150.559C294.686 150.954 293.926 151.151 292.947 151.151C291.912 151.151 291.104 150.987 290.524 150.659V149.562C290.9 149.752 291.301 149.901 291.729 150.011C292.161 150.12 292.577 150.174 292.976 150.174C293.593 150.174 294.069 150.077 294.401 149.882C294.734 149.683 294.9 149.381 294.9 148.977C294.9 148.673 294.767 148.414 294.501 148.2C294.24 147.982 293.726 147.725 292.962 147.431C292.235 147.16 291.717 146.925 291.408 146.725C291.104 146.521 290.876 146.291 290.724 146.034C290.577 145.778 290.503 145.471 290.503 145.115C290.503 144.478 290.762 143.977 291.28 143.611C291.798 143.241 292.508 143.055 293.411 143.055C294.251 143.055 295.073 143.226 295.876 143.568L295.456 144.53C294.672 144.207 293.962 144.046 293.325 144.046C292.764 144.046 292.342 144.134 292.057 144.31C291.771 144.485 291.629 144.728 291.629 145.036C291.629 145.245 291.681 145.424 291.786 145.571C291.895 145.718 292.068 145.858 292.306 145.991C292.544 146.124 293 146.317 293.674 146.569C294.601 146.906 295.225 147.246 295.548 147.588C295.876 147.93 296.04 148.36 296.04 148.877ZM300.66 150.174C300.869 150.174 301.071 150.16 301.266 150.132C301.46 150.098 301.615 150.065 301.729 150.032V150.937C301.601 150.999 301.411 151.049 301.159 151.087C300.912 151.129 300.688 151.151 300.489 151.151C298.978 151.151 298.223 150.355 298.223 148.763V144.117H297.104V143.547L298.223 143.055L298.722 141.388H299.406V143.198H301.672V144.117H299.406V148.714C299.406 149.184 299.517 149.545 299.741 149.797C299.964 150.049 300.27 150.174 300.66 150.174ZM307.598 151.008V140.59H308.809V151.008H307.598ZM314.184 150.174C314.393 150.174 314.595 150.16 314.79 150.132C314.985 150.098 315.139 150.065 315.253 150.032V150.937C315.125 150.999 314.935 151.049 314.683 151.087C314.436 151.129 314.213 151.151 314.013 151.151C312.503 151.151 311.747 150.355 311.747 148.763V144.117H310.628V143.547L311.747 143.055L312.246 141.388H312.93V143.198H315.196V144.117H312.93V148.714C312.93 149.184 313.042 149.545 313.265 149.797C313.488 150.049 313.795 150.174 314.184 150.174ZM320.286 151.151C319.132 151.151 318.22 150.799 317.55 150.096C316.885 149.393 316.552 148.417 316.552 147.167C316.552 145.908 316.861 144.908 317.479 144.167C318.101 143.426 318.935 143.055 319.98 143.055C320.959 143.055 321.733 143.378 322.303 144.024C322.873 144.666 323.158 145.514 323.158 146.569V147.317H317.778C317.802 148.234 318.032 148.93 318.469 149.405C318.911 149.88 319.531 150.117 320.329 150.117C321.17 150.117 322.002 149.942 322.823 149.59V150.645C322.405 150.825 322.009 150.954 321.633 151.03C321.263 151.11 320.814 151.151 320.286 151.151ZM319.966 144.046C319.339 144.046 318.837 144.25 318.462 144.659C318.092 145.067 317.873 145.633 317.806 146.355H321.89C321.89 145.609 321.724 145.039 321.391 144.644C321.058 144.245 320.583 144.046 319.966 144.046ZM335.304 151.008V145.927C335.304 145.305 335.171 144.839 334.904 144.53C334.638 144.217 334.225 144.06 333.664 144.06C332.928 144.06 332.384 144.271 332.033 144.694C331.681 145.117 331.505 145.768 331.505 146.647V151.008H330.322V145.927C330.322 145.305 330.189 144.839 329.923 144.53C329.657 144.217 329.241 144.06 328.676 144.06C327.935 144.06 327.391 144.283 327.044 144.73C326.702 145.172 326.531 145.899 326.531 146.911V151.008H325.348V143.198H326.31L326.503 144.267H326.56C326.783 143.887 327.096 143.59 327.5 143.376C327.909 143.162 328.365 143.055 328.868 143.055C330.089 143.055 330.888 143.497 331.263 144.381H331.32C331.553 143.972 331.89 143.649 332.332 143.412C332.774 143.174 333.277 143.055 333.843 143.055C334.726 143.055 335.387 143.283 335.824 143.739C336.266 144.191 336.487 144.915 336.487 145.913V151.008H335.304Z" fill="#252A2E"/><g clip-path="url(#clip4_4930_80491)"><rect x="789.288" y="138.989" width="13.268" height="13.268" fill="#fff"/><rect x="787.961" y="138.989" width="13.268" height="13.268" fill="#fff"/><path fill-rule="evenodd" clip-rule="evenodd" d="M789.205 137.662H801.976C802.979 137.662 803.8 138.458 803.8 139.431V151.814C803.8 152.787 802.979 153.583 801.976 153.583H789.205C788.202 153.583 787.381 152.787 787.381 151.814V139.431C787.381 138.458 788.202 137.662 789.205 137.662ZM801.976 151.814V139.431H789.205V151.814H801.976Z" fill="#90939F"/><path fill-rule="evenodd" clip-rule="evenodd" d="M789.141 137.662H802.04C803.053 137.662 803.883 138.458 803.883 139.431V151.814C803.883 152.787 803.053 153.583 802.04 153.583H789.141C788.127 153.583 787.298 152.787 787.298 151.814V139.431C787.298 138.458 788.127 137.662 789.141 137.662ZM802.04 151.814V139.431H789.141V151.814H802.04Z" fill="#90939F"/></g><rect width="551.945" height="43.121" transform="translate(267.528 167.846)" fill="#fff"/><path d="M279.574 194.792V184.374H280.786V193.695H285.382V194.792H279.574ZM288.328 194.792H287.145V186.982H288.328V194.792ZM287.045 184.865C287.045 184.595 287.111 184.397 287.244 184.274C287.377 184.146 287.544 184.081 287.743 184.081C287.933 184.081 288.097 184.146 288.235 184.274C288.373 184.402 288.442 184.599 288.442 184.865C288.442 185.131 288.373 185.331 288.235 185.464C288.097 185.592 287.933 185.656 287.743 185.656C287.544 185.656 287.377 185.592 287.244 185.464C287.111 185.331 287.045 185.131 287.045 184.865ZM296.04 192.662C296.04 193.388 295.769 193.949 295.228 194.343C294.686 194.738 293.926 194.935 292.947 194.935C291.912 194.935 291.104 194.771 290.524 194.443V193.346C290.9 193.536 291.301 193.685 291.729 193.795C292.161 193.904 292.577 193.959 292.976 193.959C293.593 193.959 294.069 193.861 294.401 193.666C294.734 193.467 294.9 193.165 294.9 192.761C294.9 192.457 294.767 192.198 294.501 191.985C294.24 191.766 293.726 191.509 292.962 191.215C292.235 190.944 291.717 190.709 291.408 190.509C291.104 190.305 290.876 190.075 290.724 189.818C290.577 189.562 290.503 189.255 290.503 188.899C290.503 188.262 290.762 187.761 291.28 187.395C291.798 187.025 292.508 186.839 293.411 186.839C294.251 186.839 295.073 187.01 295.876 187.352L295.456 188.314C294.672 187.991 293.962 187.83 293.325 187.83C292.764 187.83 292.342 187.918 292.057 188.094C291.771 188.269 291.629 188.512 291.629 188.82C291.629 189.029 291.681 189.208 291.786 189.355C291.895 189.502 292.068 189.642 292.306 189.775C292.544 189.908 293 190.101 293.674 190.353C294.601 190.69 295.225 191.03 295.548 191.372C295.876 191.714 296.04 192.144 296.04 192.662ZM300.66 193.959C300.869 193.959 301.071 193.944 301.266 193.916C301.46 193.883 301.615 193.849 301.729 193.816V194.721C301.601 194.783 301.411 194.833 301.159 194.871C300.912 194.913 300.688 194.935 300.489 194.935C298.978 194.935 298.223 194.139 298.223 192.548V187.901H297.104V187.331L298.223 186.839L298.722 185.172H299.406V186.982H301.672V187.901H299.406V192.498C299.406 192.968 299.517 193.329 299.741 193.581C299.964 193.833 300.27 193.959 300.66 193.959ZM307.598 194.792V184.374H308.809V194.792H307.598ZM314.184 193.959C314.393 193.959 314.595 193.944 314.79 193.916C314.985 193.883 315.139 193.849 315.253 193.816V194.721C315.125 194.783 314.935 194.833 314.683 194.871C314.436 194.913 314.213 194.935 314.013 194.935C312.503 194.935 311.747 194.139 311.747 192.548V187.901H310.628V187.331L311.747 186.839L312.246 185.172H312.93V186.982H315.196V187.901H312.93V192.498C312.93 192.968 313.042 193.329 313.265 193.581C313.488 193.833 313.795 193.959 314.184 193.959ZM320.286 194.935C319.132 194.935 318.22 194.583 317.55 193.88C316.885 193.177 316.552 192.201 316.552 190.951C316.552 189.692 316.861 188.692 317.479 187.951C318.101 187.21 318.935 186.839 319.98 186.839C320.959 186.839 321.733 187.162 322.303 187.809C322.873 188.45 323.158 189.298 323.158 190.353V191.101H317.778C317.802 192.018 318.032 192.714 318.469 193.189C318.911 193.664 319.531 193.902 320.329 193.902C321.17 193.902 322.002 193.726 322.823 193.374V194.429C322.405 194.609 322.009 194.738 321.633 194.814C321.263 194.894 320.814 194.935 320.286 194.935ZM319.966 187.83C319.339 187.83 318.837 188.034 318.462 188.443C318.092 188.851 317.873 189.417 317.806 190.139H321.89C321.89 189.393 321.724 188.823 321.391 188.429C321.058 188.029 320.583 187.83 319.966 187.83ZM335.304 194.792V189.711C335.304 189.089 335.171 188.623 334.904 188.314C334.638 188.001 334.225 187.844 333.664 187.844C332.928 187.844 332.384 188.056 332.033 188.478C331.681 188.901 331.505 189.552 331.505 190.431V194.792H330.322V189.711C330.322 189.089 330.189 188.623 329.923 188.314C329.657 188.001 329.241 187.844 328.676 187.844C327.935 187.844 327.391 188.067 327.044 188.514C326.702 188.956 326.531 189.683 326.531 190.695V194.792H325.348V186.982H326.31L326.503 188.051H326.56C326.783 187.671 327.096 187.374 327.5 187.16C327.909 186.946 328.365 186.839 328.868 186.839C330.089 186.839 330.888 187.281 331.263 188.165H331.32C331.553 187.756 331.89 187.433 332.332 187.196C332.774 186.958 333.277 186.839 333.843 186.839C334.726 186.839 335.387 187.067 335.824 187.523C336.266 187.975 336.487 188.699 336.487 189.697V194.792H335.304Z" fill="#252A2E"/><g clip-path="url(#clip5_4930_80491)"><rect x="789.288" y="182.773" width="13.268" height="13.268" fill="#fff"/><rect x="787.961" y="182.773" width="13.268" height="13.268" fill="#fff"/><path fill-rule="evenodd" clip-rule="evenodd" d="M789.205 181.446H801.976C802.979 181.446 803.8 182.242 803.8 183.215V195.598C803.8 196.571 802.979 197.367 801.976 197.367H789.205C788.202 197.367 787.381 196.571 787.381 195.598V183.215C787.381 182.242 788.202 181.446 789.205 181.446ZM801.976 195.598V183.215H789.205V195.598H801.976Z" fill="#90939F"/><path fill-rule="evenodd" clip-rule="evenodd" d="M789.141 181.446H802.04C803.053 181.446 803.883 182.242 803.883 183.215V195.598C803.883 196.571 803.053 197.367 802.04 197.367H789.141C788.127 197.367 787.298 196.571 787.298 195.598V183.215C787.298 182.242 788.127 181.446 789.141 181.446ZM802.04 195.598V183.215H789.141V195.598H802.04Z" fill="#90939F"/></g><rect width="553.271" height="43.121" transform="translate(266.864 212.957)" fill="#fff"/><path d="M278.911 240.018V229.599H280.122V238.92H284.719V240.018H278.911ZM287.664 240.018H286.481V232.207H287.664V240.018ZM286.381 230.091C286.381 229.82 286.448 229.623 286.581 229.499C286.714 229.371 286.88 229.307 287.08 229.307C287.27 229.307 287.434 229.371 287.571 229.499C287.709 229.627 287.778 229.825 287.778 230.091C287.778 230.357 287.709 230.556 287.571 230.689C287.434 230.817 287.27 230.882 287.08 230.882C286.88 230.882 286.714 230.817 286.581 230.689C286.448 230.556 286.381 230.357 286.381 230.091ZM295.377 237.887C295.377 238.614 295.106 239.174 294.564 239.569C294.023 239.963 293.262 240.16 292.284 240.16C291.248 240.16 290.44 239.996 289.861 239.668V238.571C290.236 238.761 290.638 238.911 291.065 239.02C291.497 239.129 291.913 239.184 292.312 239.184C292.93 239.184 293.405 239.086 293.738 238.892C294.07 238.692 294.236 238.39 294.236 237.987C294.236 237.682 294.103 237.424 293.837 237.21C293.576 236.991 293.063 236.735 292.298 236.44C291.571 236.169 291.053 235.934 290.744 235.735C290.44 235.53 290.212 235.3 290.06 235.043C289.913 234.787 289.839 234.48 289.839 234.124C289.839 233.487 290.098 232.986 290.616 232.62C291.134 232.25 291.844 232.065 292.747 232.065C293.588 232.065 294.41 232.236 295.213 232.578L294.792 233.54C294.008 233.217 293.298 233.055 292.661 233.055C292.101 233.055 291.678 233.143 291.393 233.319C291.108 233.495 290.965 233.737 290.965 234.046C290.965 234.255 291.018 234.433 291.122 234.58C291.231 234.727 291.405 234.868 291.642 235.001C291.88 235.134 292.336 235.326 293.011 235.578C293.937 235.915 294.562 236.255 294.885 236.597C295.213 236.939 295.377 237.369 295.377 237.887ZM299.996 239.184C300.205 239.184 300.407 239.169 300.602 239.141C300.797 239.108 300.951 239.074 301.065 239.041V239.946C300.937 240.008 300.747 240.058 300.495 240.096C300.248 240.139 300.025 240.16 299.825 240.16C298.315 240.16 297.559 239.364 297.559 237.773V233.126H296.44V232.556L297.559 232.065L298.058 230.397H298.742V232.207H301.008V233.126H298.742V237.723C298.742 238.193 298.854 238.554 299.077 238.806C299.3 239.058 299.607 239.184 299.996 239.184ZM306.934 240.018V229.599H308.146V240.018H306.934ZM313.521 239.184C313.73 239.184 313.932 239.169 314.127 239.141C314.321 239.108 314.476 239.074 314.59 239.041V239.946C314.461 240.008 314.271 240.058 314.02 240.096C313.773 240.139 313.549 240.16 313.35 240.16C311.839 240.16 311.084 239.364 311.084 237.773V233.126H309.965V232.556L311.084 232.065L311.582 230.397H312.267V232.207H314.533V233.126H312.267V237.723C312.267 238.193 312.378 238.554 312.602 238.806C312.825 239.058 313.131 239.184 313.521 239.184ZM319.623 240.16C318.468 240.16 317.556 239.808 316.886 239.105C316.221 238.402 315.889 237.426 315.889 236.176C315.889 234.917 316.198 233.917 316.815 233.176C317.437 232.435 318.271 232.065 319.316 232.065C320.295 232.065 321.07 232.388 321.64 233.034C322.21 233.675 322.495 234.523 322.495 235.578V236.326H317.114C317.138 237.243 317.369 237.939 317.806 238.414C318.248 238.889 318.867 239.127 319.666 239.127C320.507 239.127 321.338 238.951 322.16 238.599V239.654C321.742 239.835 321.345 239.963 320.97 240.039C320.599 240.12 320.15 240.16 319.623 240.16ZM319.302 233.055C318.675 233.055 318.174 233.259 317.799 233.668C317.428 234.077 317.209 234.642 317.143 235.364H321.226C321.226 234.618 321.06 234.048 320.727 233.654C320.395 233.255 319.92 233.055 319.302 233.055ZM334.64 240.018V234.936C334.64 234.314 334.507 233.849 334.241 233.54C333.975 233.226 333.562 233.069 333.001 233.069C332.265 233.069 331.721 233.281 331.369 233.704C331.017 234.126 330.842 234.777 330.842 235.656V240.018H329.659V234.936C329.659 234.314 329.526 233.849 329.26 233.54C328.994 233.226 328.578 233.069 328.012 233.069C327.271 233.069 326.727 233.293 326.381 233.739C326.039 234.181 325.867 234.908 325.867 235.92V240.018H324.685V232.207H325.647L325.839 233.276H325.896C326.119 232.896 326.433 232.599 326.837 232.385C327.245 232.171 327.701 232.065 328.205 232.065C329.426 232.065 330.224 232.506 330.599 233.39H330.656C330.889 232.981 331.226 232.658 331.668 232.421C332.11 232.183 332.614 232.065 333.179 232.065C334.063 232.065 334.723 232.293 335.16 232.749C335.602 233.2 335.823 233.925 335.823 234.922V240.018H334.64Z" fill="#252A2E"/><g clip-path="url(#clip6_4930_80491)"><rect x="789.951" y="227.884" width="13.268" height="13.268" fill="#fff"/><rect x="788.624" y="227.884" width="13.268" height="13.268" fill="#fff"/><path fill-rule="evenodd" clip-rule="evenodd" d="M789.868 226.557H802.639C803.642 226.557 804.463 227.353 804.463 228.326V240.709C804.463 241.682 803.642 242.478 802.639 242.478H789.868C788.865 242.478 788.044 241.682 788.044 240.709V228.326C788.044 227.353 788.865 226.557 789.868 226.557ZM802.639 240.709V228.326H789.868V240.709H802.639Z" fill="#90939F"/><path fill-rule="evenodd" clip-rule="evenodd" d="M789.804 226.557H802.703C803.717 226.557 804.546 227.353 804.546 228.326V240.709C804.546 241.682 803.717 242.478 802.703 242.478H789.804C788.79 242.478 787.961 241.682 787.961 240.709V228.326C787.961 227.353 788.79 226.557 789.804 226.557ZM802.703 240.709V228.326H789.804V240.709H802.703Z" fill="#90939F"/></g><g filter="url(#filter0_ddd_4930_80491)"><path d="M263 76.5166C263 74.5744 264.574 73 266.517 73H821.483C823.426 73 825 74.5744 825 76.5166V144.266C825 146.208 823.426 147.782 821.483 147.782H266.517C264.574 147.782 263 146.208 263 144.266V76.5166Z" fill="#000"/><g clip-path="url(#clip7_4930_80491)"><path d="M294.4 85.8356C295.682 85.8356 296.708 86.8613 296.708 88.1434V104.503C296.708 105.785 295.682 106.811 294.4 106.811H278.092C276.81 106.811 275.784 105.785 275.784 104.503V88.1434C275.784 86.8613 276.81 85.8356 278.092 85.8356H294.4ZM294.4 84.0407H278.092C275.835 84.0407 273.989 85.8869 273.989 88.1434V104.503C273.989 106.759 275.835 108.606 278.092 108.606H294.4C296.657 108.606 298.503 106.759 298.503 104.503V88.1434C298.503 85.8869 296.708 84.0407 294.4 84.0407Z" fill="#DA212C"/><path d="M290.811 99.3746L287.631 96.2462L290.862 93.0666L289.477 91.682L286.298 94.9129L283.118 91.682L281.733 93.0666L284.964 96.2462L281.836 99.3746L283.169 100.759L286.298 97.6309L289.426 100.759L290.811 99.3746Z" fill="#fff"/></g><path d="M313.123 99.3852H308.424V91.2264H313.123V92.6439H310.154V94.4352H312.916V95.8527H310.154V97.9565H313.123V99.3852ZM318.245 93.0289C318.475 93.0289 318.667 93.0457 318.819 93.0791L318.691 94.6752C318.553 94.638 318.386 94.6194 318.189 94.6194C317.646 94.6194 317.221 94.7589 316.916 95.0379C316.615 95.3169 316.464 95.7076 316.464 96.2098V99.3852H314.762V93.1461H316.051L316.303 94.1952H316.386C316.58 93.8455 316.84 93.5646 317.167 93.3526C317.499 93.1368 317.858 93.0289 318.245 93.0289ZM323.5 93.0289C323.731 93.0289 323.923 93.0457 324.075 93.0791L323.947 94.6752C323.809 94.638 323.642 94.6194 323.445 94.6194C322.901 94.6194 322.477 94.7589 322.172 95.0379C321.871 95.3169 321.72 95.7076 321.72 96.2098V99.3852H320.018V93.1461H321.307L321.558 94.1952H321.642C321.836 93.8455 322.096 93.5646 322.423 93.3526C322.754 93.1368 323.113 93.0289 323.5 93.0289ZM326.63 96.2545C326.63 96.8721 326.731 97.339 326.931 97.6552C327.136 97.9714 327.467 98.1295 327.925 98.1295C328.379 98.1295 328.704 97.9733 328.901 97.6608C329.102 97.3445 329.203 96.8758 329.203 96.2545C329.203 95.6369 329.102 95.1737 328.901 94.8649C328.7 94.5561 328.371 94.4017 327.914 94.4017C327.46 94.4017 327.132 94.5561 326.931 94.8649C326.731 95.17 326.63 95.6332 326.63 96.2545ZM330.944 96.2545C330.944 97.2701 330.676 98.0644 330.14 98.6374C329.604 99.2103 328.859 99.4968 327.902 99.4968C327.303 99.4968 326.775 99.3666 326.318 99.1061C325.86 98.842 325.508 98.4644 325.263 97.9733C325.017 97.4822 324.894 96.9093 324.894 96.2545C324.894 95.2351 325.161 94.4427 325.693 93.8772C326.225 93.3117 326.972 93.0289 327.936 93.0289C328.535 93.0289 329.063 93.1591 329.521 93.4196C329.978 93.68 330.33 94.0539 330.576 94.5412C330.821 95.0286 330.944 95.5997 330.944 96.2545ZM335.898 93.0289C336.129 93.0289 336.321 93.0457 336.473 93.0791L336.345 94.6752C336.207 94.638 336.04 94.6194 335.843 94.6194C335.299 94.6194 334.875 94.7589 334.57 95.0379C334.269 95.3169 334.118 95.7076 334.118 96.2098V99.3852H332.416V93.1461H333.705L333.956 94.1952H334.04C334.233 93.8455 334.494 93.5646 334.821 93.3526C335.152 93.1368 335.511 93.0289 335.898 93.0289ZM342.571 95.0658H343.14C343.672 95.0658 344.07 94.9616 344.334 94.7533C344.598 94.5412 344.73 94.2343 344.73 93.8325C344.73 93.427 344.619 93.1275 344.395 92.934C344.176 92.7406 343.83 92.6439 343.357 92.6439H342.571V95.0658ZM346.477 93.7711C346.477 94.6491 346.202 95.3207 345.651 95.7857C345.104 96.2508 344.325 96.4833 343.313 96.4833H342.571V99.3852H340.841V91.2264H343.447C344.436 91.2264 345.188 91.4403 345.701 91.8682C346.218 92.2923 346.477 92.9266 346.477 93.7711ZM351.431 93.0289C351.662 93.0289 351.854 93.0457 352.006 93.0791L351.878 94.6752C351.74 94.638 351.573 94.6194 351.376 94.6194C350.833 94.6194 350.408 94.7589 350.103 95.0379C349.802 95.3169 349.651 95.7076 349.651 96.2098V99.3852H347.949V93.1461H349.238L349.489 94.1952H349.573C349.767 93.8455 350.027 93.5646 350.354 93.3526C350.686 93.1368 351.045 93.0289 351.431 93.0289ZM354.561 96.2545C354.561 96.8721 354.662 97.339 354.863 97.6552C355.067 97.9714 355.398 98.1295 355.856 98.1295C356.31 98.1295 356.635 97.9733 356.832 97.6608C357.033 97.3445 357.134 96.8758 357.134 96.2545C357.134 95.6369 357.033 95.1737 356.832 94.8649C356.632 94.5561 356.302 94.4017 355.845 94.4017C355.391 94.4017 355.063 94.5561 354.863 94.8649C354.662 95.17 354.561 95.6332 354.561 96.2545ZM358.875 96.2545C358.875 97.2701 358.607 98.0644 358.071 98.6374C357.536 99.2103 356.79 99.4968 355.834 99.4968C355.235 99.4968 354.706 99.3666 354.249 99.1061C353.791 98.842 353.439 98.4644 353.194 97.9733C352.948 97.4822 352.826 96.9093 352.826 96.2545C352.826 95.2351 353.092 94.4427 353.624 93.8772C354.156 93.3117 354.903 93.0289 355.867 93.0289C356.466 93.0289 356.994 93.1591 357.452 93.4196C357.909 93.68 358.261 94.0539 358.507 94.5412C358.752 95.0286 358.875 95.5997 358.875 96.2545ZM365.933 99.3852H364.231V95.7411C364.231 95.2909 364.155 94.9542 364.002 94.731C363.854 94.504 363.617 94.3906 363.294 94.3906C362.858 94.3906 362.542 94.5505 362.345 94.8705C362.148 95.1904 362.049 95.7169 362.049 96.4498V99.3852H360.347V93.1461H361.647L361.876 93.9441H361.971C362.139 93.6577 362.38 93.4344 362.697 93.2745C363.013 93.1108 363.376 93.0289 363.785 93.0289C364.719 93.0289 365.351 93.334 365.682 93.9441H365.833C366 93.6539 366.246 93.4289 366.569 93.2689C366.897 93.1089 367.265 93.0289 367.674 93.0289C368.381 93.0289 368.915 93.2112 369.276 93.5758C369.641 93.9367 369.823 94.5171 369.823 95.3169V99.3852H368.115V95.7411C368.115 95.2909 368.039 94.9542 367.886 94.731C367.738 94.504 367.501 94.3906 367.178 94.3906C366.761 94.3906 366.449 94.5394 366.24 94.837C366.036 95.1346 365.933 95.6071 365.933 96.2545V99.3852ZM375.068 99.4968C374.335 99.4968 373.76 99.2308 373.343 98.6988H373.254C373.313 99.2196 373.343 99.521 373.343 99.6028V102.131H371.641V93.1461H373.025L373.265 93.9553H373.343C373.741 93.3377 374.331 93.0289 375.112 93.0289C375.849 93.0289 376.426 93.3135 376.842 93.8827C377.259 94.452 377.467 95.2425 377.467 96.2545C377.467 96.9204 377.369 97.4989 377.171 97.99C376.978 98.4811 376.701 98.855 376.34 99.1117C375.979 99.3684 375.555 99.4968 375.068 99.4968ZM374.565 94.3906C374.145 94.3906 373.838 94.5208 373.645 94.7812C373.451 95.0379 373.351 95.4639 373.343 96.0592V96.2433C373.343 96.913 373.442 97.3929 373.639 97.6831C373.84 97.9733 374.156 98.1184 374.588 98.1184C375.35 98.1184 375.732 97.4896 375.732 96.2321C375.732 95.6183 375.637 95.1588 375.447 94.8538C375.261 94.545 374.967 94.3906 374.565 94.3906ZM381.568 98.1407C381.866 98.1407 382.223 98.0756 382.639 97.9454V99.2122C382.215 99.4019 381.694 99.4968 381.077 99.4968C380.396 99.4968 379.899 99.3256 379.587 98.9834C379.278 98.6374 379.124 98.1202 379.124 97.432V94.4241H378.309V93.7042L379.246 93.1349L379.738 91.8179H380.826V93.1461H382.572V94.4241H380.826V97.432C380.826 97.6738 380.893 97.8524 381.027 97.9677C381.164 98.083 381.345 98.1407 381.568 98.1407Z" fill="#fff"/><path d="M726.095 113.935C726.095 112.964 726.882 112.177 727.854 112.177H812.252C813.223 112.177 814.01 112.964 814.01 113.935V135.035C814.01 136.006 813.223 136.793 812.252 136.793H727.854C726.882 136.793 726.095 136.006 726.095 135.035V113.935Z" fill="#0063A3"/><g clip-path="url(#clip8_4930_80491)"><path d="M749.653 128.851L748.686 127.884L747.749 126.946L746.782 125.979L745.844 125.042L746.225 124.631L746.635 124.221L747.045 123.84L747.456 123.43L747.983 123.987L748.54 124.514L749.097 125.071L749.653 125.628L751.031 124.25L752.408 122.873L753.785 121.496L755.133 120.118L755.544 120.529L755.954 120.939L756.364 121.32L756.745 121.73L754.987 123.518L753.199 125.305L751.412 127.064L749.653 128.851Z" fill="#fff"/><path d="M767.331 127.985L766.831 126.342H764.314L763.813 127.985H762.236L764.673 121.053H766.462L768.908 127.985H767.331ZM766.481 125.114C766.018 123.625 765.757 122.783 765.697 122.588C765.641 122.392 765.6 122.238 765.575 122.125C765.471 122.528 765.173 123.524 764.682 125.114H766.481ZM771.922 128.079C770.279 128.079 769.457 127.177 769.457 125.374C769.457 124.476 769.681 123.792 770.128 123.319C770.575 122.844 771.215 122.606 772.05 122.606C772.66 122.606 773.208 122.726 773.693 122.965L773.268 124.08C773.041 123.988 772.83 123.914 772.635 123.858C772.44 123.798 772.245 123.768 772.05 123.768C771.3 123.768 770.926 124.3 770.926 125.364C770.926 126.397 771.3 126.913 772.05 126.913C772.327 126.913 772.583 126.877 772.819 126.804C773.055 126.729 773.292 126.612 773.528 126.455V127.687C773.295 127.835 773.059 127.938 772.819 127.994C772.583 128.051 772.284 128.079 771.922 128.079ZM777.009 128.079C775.366 128.079 774.544 127.177 774.544 125.374C774.544 124.476 774.768 123.792 775.215 123.319C775.662 122.844 776.302 122.606 777.137 122.606C777.747 122.606 778.295 122.726 778.78 122.965L778.355 124.08C778.128 123.988 777.917 123.914 777.722 123.858C777.527 123.798 777.332 123.768 777.137 123.768C776.387 123.768 776.013 124.3 776.013 125.364C776.013 126.397 776.387 126.913 777.137 126.913C777.414 126.913 777.67 126.877 777.906 126.804C778.142 126.729 778.378 126.612 778.615 126.455V127.687C778.382 127.835 778.146 127.938 777.906 127.994C777.67 128.051 777.371 128.079 777.009 128.079ZM782.138 123.631C781.833 123.631 781.594 123.729 781.421 123.924C781.248 124.116 781.148 124.39 781.123 124.746H783.144C783.138 124.39 783.045 124.116 782.866 123.924C782.686 123.729 782.444 123.631 782.138 123.631ZM782.342 128.079C781.492 128.079 780.827 127.845 780.349 127.376C779.87 126.907 779.631 126.242 779.631 125.383C779.631 124.498 779.851 123.815 780.292 123.334C780.736 122.849 781.348 122.606 782.129 122.606C782.875 122.606 783.456 122.819 783.871 123.244C784.287 123.669 784.495 124.256 784.495 125.005V125.704H781.09C781.106 126.113 781.227 126.433 781.454 126.663C781.68 126.892 781.998 127.007 782.408 127.007C782.726 127.007 783.026 126.974 783.31 126.908C783.593 126.842 783.889 126.737 784.197 126.592V127.706C783.945 127.832 783.676 127.925 783.39 127.985C783.103 128.048 782.754 128.079 782.342 128.079ZM788.675 128.079C788.055 128.079 787.569 127.854 787.216 127.404H787.14C787.191 127.845 787.216 128.1 787.216 128.169V130.308H785.776V122.706H786.947L787.15 123.39H787.216C787.553 122.868 788.052 122.606 788.713 122.606C789.336 122.606 789.824 122.847 790.177 123.329C790.529 123.811 790.705 124.479 790.705 125.336C790.705 125.899 790.622 126.389 790.455 126.804C790.292 127.22 790.057 127.536 789.752 127.753C789.446 127.971 789.087 128.079 788.675 128.079ZM788.25 123.759C787.894 123.759 787.635 123.869 787.471 124.089C787.307 124.306 787.222 124.667 787.216 125.17V125.326C787.216 125.893 787.299 126.299 787.466 126.545C787.636 126.79 787.904 126.913 788.269 126.913C788.914 126.913 789.237 126.381 789.237 125.317C789.237 124.797 789.157 124.409 788.996 124.151C788.839 123.889 788.59 123.759 788.25 123.759ZM794.229 126.932C794.481 126.932 794.783 126.877 795.136 126.767V127.838C794.777 127.999 794.336 128.079 793.814 128.079C793.238 128.079 792.818 127.934 792.553 127.645C792.292 127.352 792.161 126.914 792.161 126.332V123.787H791.472V123.178L792.265 122.696L792.681 121.582H793.601V122.706H795.079V123.787H793.601V126.332C793.601 126.537 793.658 126.688 793.771 126.785C793.888 126.883 794.041 126.932 794.229 126.932Z" fill="#fff"/></g><path d="M266.517 73.8792H821.483V72.1208H266.517V73.8792ZM824.121 76.5166V144.266H825.879V76.5166H824.121ZM821.483 146.903H266.517V148.661H821.483V146.903ZM263.879 144.266V76.5166H262.121V144.266H263.879ZM266.517 146.903C265.06 146.903 263.879 145.722 263.879 144.266H262.121C262.121 146.693 264.089 148.661 266.517 148.661V146.903ZM824.121 144.266C824.121 145.722 822.94 146.903 821.483 146.903V148.661C823.911 148.661 825.879 146.693 825.879 144.266H824.121ZM821.483 73.8792C822.94 73.8792 824.121 75.06 824.121 76.5166H825.879C825.879 74.0889 823.911 72.1208 821.483 72.1208V73.8792ZM266.517 72.1208C264.089 72.1208 262.121 74.0889 262.121 76.5166H263.879C263.879 75.06 265.06 73.8792 266.517 73.8792V72.1208Z" fill="#585C65"/></g></g><rect x="256.582" y="32.268" width="573.837" height="324.4" stroke="#90939F" stroke-width=".663"/><defs><filter id="filter0_ddd_4930_80491" x="255.088" y="66.846" width="577.825" height="91.486" filterUnits="userSpaceOnUse" color-interpolation-filters="sRGB"><feFlood flood-opacity="0" result="BackgroundImageFix"/><feColorMatrix in="SourceAlpha" type="matrix" values="0 0 0 0 0 0 0 0 0 0 0 0 0 0 0 0 0 0 127 0" result="hardAlpha"/><feOffset dy="1.758"/><feGaussianBlur stdDeviation="3.956"/><feColorMatrix type="matrix" values="0 0 0 0 0 0 0 0 0 0 0 0 0 0 0 0 0 0 0.12 0"/><feBlend mode="normal" in2="BackgroundImageFix" result="effect1_dropShadow_4930_80491"/><feColorMatrix in="SourceAlpha" type="matrix" values="0 0 0 0 0 0 0 0 0 0 0 0 0 0 0 0 0 0 127 0" result="hardAlpha"/><feOffset dy="4.396"/><feGaussianBlur stdDeviation="3.077"/><feColorMatrix type="matrix" values="0 0 0 0 0 0 0 0 0 0 0 0 0 0 0 0 0 0 0.14 0"/><feBlend mode="normal" in2="effect1_dropShadow_4930_80491" result="effect2_dropShadow_4930_80491"/><feColorMatrix in="SourceAlpha" type="matrix" values="0 0 0 0 0 0 0 0 0 0 0 0 0 0 0 0 0 0 127 0" result="hardAlpha"/><feOffset dy="2.637"/><feGaussianBlur stdDeviation="1.319"/><feColorMatrix type="matrix" values="0 0 0 0 0 0 0 0 0 0 0 0 0 0 0 0 0 0 0.2 0"/><feBlend mode="normal" in2="effect2_dropShadow_4930_80491" result="effect3_dropShadow_4930_80491"/><feBlend mode="normal" in="SourceGraphic" in2="effect3_dropShadow_4930_80491" result="shape"/></filter><clipPath id="clip0_4930_80491"><rect x="256.25" y="31.936" width="574.5" height="325.064" fill="#fff"/></clipPath><clipPath id="clip1_4930_80491"><rect width="574.5" height="37.064" fill="#fff" transform="translate(256.25 31.936)"/></clipPath><clipPath id="clip2_4930_80491"><rect width="15.921" height="15.921" fill="#fff" transform="translate(266.864 42.9753)"/></clipPath><clipPath id="clip3_4930_80491"><rect width="24.546" height="25.209" fill="#fff" transform="translate(783.317 89.234)"/></clipPath><clipPath id="clip4_4930_80491"><rect width="24.546" height="25.209" fill="#fff" transform="translate(783.317 133.018)"/></clipPath><clipPath id="clip5_4930_80491"><rect width="24.546" height="25.209" fill="#fff" transform="translate(783.317 176.802)"/></clipPath><clipPath id="clip6_4930_80491"><rect width="24.546" height="25.209" fill="#fff" transform="translate(783.98 221.913)"/></clipPath><clipPath id="clip7_4930_80491"><rect width="24.616" height="24.616" fill="#fff" transform="translate(273.989 83.9894)"/></clipPath><clipPath id="clip8_4930_80491"><rect width="51.583" height="14.066" fill="#fff" transform="translate(744.261 117.452)"/></clipPath></defs></svg>