<svg width="1051" height="312" viewBox="0 0 1051 312" fill="none" xmlns="http://www.w3.org/2000/svg">
<rect width="1051" height="312" fill="#353A40"/>
<g filter="url(#filter0_ddd_6886_95579)">
<rect x="95" y="40.5" width="861" height="231" rx="8" fill="#000"/>
<path d="M165.85 118.467H130.15C124.9 118.467 120.583 114.15 120.583 108.9C120.583 107.267 121.05 105.633 121.866 104.117L139.716 73.3167C142.4 68.7667 148.233 67.1334 152.783 69.8167C154.183 70.6334 155.466 71.8001 156.283 73.3167L174.133 104.233C176.816 108.783 175.183 114.617 170.633 117.3C169.116 118.117 167.483 118.467 165.85 118.467ZM148 72.0334C145.783 72.0334 143.8 73.2001 142.75 75.0667L124.9 105.983C123.266 108.9 124.2 112.633 127.116 114.267C128.05 114.85 129.1 115.083 130.15 115.083H165.85C169.233 115.083 171.916 112.4 171.916 109.017C171.916 107.967 171.683 106.917 171.1 105.983L153.25 74.9501C152.2 73.0834 150.216 72.0334 148 72.0334Z" fill="#FF8B00"/>
<path d="M144.85 83H150.45V100.383H144.85V83Z" fill="#fff"/>
<path d="M144.85 103.533H150.45V108.9H144.85V103.533Z" fill="#fff"/>
<path d="M216.414 101.5H211.933L209.419 91.75C209.326 91.403 209.165 90.6878 208.937 89.6045C208.716 88.5127 208.59 87.7806 208.556 87.4082C208.505 87.8652 208.378 88.6016 208.175 89.6172C207.972 90.6243 207.815 91.3438 207.705 91.7754L205.204 101.5H200.735L196 82.9395H199.872L202.246 93.0703C202.661 94.9408 202.961 96.5615 203.147 97.9326C203.198 97.4502 203.312 96.7054 203.49 95.6982C203.676 94.6826 203.85 93.8955 204.011 93.3369L206.715 82.9395H210.435L213.139 93.3369C213.257 93.8024 213.405 94.5133 213.583 95.4697C213.761 96.4261 213.896 97.2471 213.989 97.9326C214.074 97.2725 214.209 96.4515 214.396 95.4697C214.582 94.4795 214.751 93.6797 214.903 93.0703L217.265 82.9395H221.137L216.414 101.5ZM232.332 101.5L231.583 99.5703H231.481C230.829 100.391 230.157 100.963 229.462 101.284C228.777 101.597 227.88 101.754 226.771 101.754C225.408 101.754 224.334 101.365 223.546 100.586C222.768 99.8073 222.379 98.6986 222.379 97.2598C222.379 95.7533 222.903 94.6445 223.953 93.9336C225.011 93.2142 226.602 92.8164 228.726 92.7402L231.189 92.6641V92.042C231.189 90.6032 230.453 89.8838 228.98 89.8838C227.846 89.8838 226.513 90.2266 224.981 90.9121L223.699 88.2969C225.332 87.4421 227.143 87.0146 229.132 87.0146C231.037 87.0146 232.497 87.4294 233.512 88.2588C234.528 89.0882 235.036 90.3493 235.036 92.042V101.5H232.332ZM231.189 94.9238L229.691 94.9746C228.565 95.0085 227.727 95.2116 227.177 95.584C226.627 95.9564 226.352 96.5234 226.352 97.2852C226.352 98.377 226.978 98.9229 228.231 98.9229C229.128 98.9229 229.843 98.6647 230.377 98.1484C230.918 97.6322 231.189 96.9466 231.189 96.0918V94.9238ZM247.107 87.04C247.631 87.04 248.067 87.0781 248.414 87.1543L248.122 90.7852C247.809 90.7005 247.428 90.6582 246.98 90.6582C245.744 90.6582 244.779 90.9756 244.085 91.6104C243.4 92.2451 243.057 93.1338 243.057 94.2764V101.5H239.185V87.3066H242.117L242.689 89.6934H242.879C243.319 88.8978 243.912 88.2588 244.656 87.7764C245.41 87.2855 246.226 87.04 247.107 87.04ZM264.243 101.5H260.371V93.21C260.371 92.1859 260.189 91.4199 259.825 90.9121C259.461 90.3958 258.881 90.1377 258.086 90.1377C257.002 90.1377 256.22 90.5016 255.737 91.2295C255.255 91.9489 255.013 93.1465 255.013 94.8223V101.5H251.141V87.3066H254.099L254.62 89.1221H254.836C255.267 88.4365 255.86 87.9202 256.613 87.5732C257.375 87.2178 258.238 87.04 259.203 87.04C260.853 87.04 262.106 87.4886 262.961 88.3857C263.816 89.2744 264.243 90.5609 264.243 92.2451V101.5ZM268.214 83.6377C268.214 82.3766 268.917 81.7461 270.322 81.7461C271.727 81.7461 272.429 82.3766 272.429 83.6377C272.429 84.2386 272.251 84.7083 271.896 85.0469C271.549 85.377 271.024 85.542 270.322 85.542C268.917 85.542 268.214 84.9072 268.214 83.6377ZM272.251 101.5H268.379V87.3066H272.251V101.5ZM289.578 101.5H285.706V93.21C285.706 92.1859 285.524 91.4199 285.16 90.9121C284.796 90.3958 284.216 90.1377 283.421 90.1377C282.338 90.1377 281.555 90.5016 281.072 91.2295C280.59 91.9489 280.349 93.1465 280.349 94.8223V101.5H276.477V87.3066H279.435L279.955 89.1221H280.171C280.603 88.4365 281.195 87.9202 281.948 87.5732C282.71 87.2178 283.573 87.04 284.538 87.04C286.188 87.04 287.441 87.4886 288.296 88.3857C289.151 89.2744 289.578 90.5609 289.578 92.2451V101.5ZM306.067 87.3066V89.2744L303.845 89.8457C304.252 90.4805 304.455 91.1914 304.455 91.9785C304.455 93.502 303.921 94.6911 302.855 95.5459C301.797 96.3923 300.324 96.8154 298.437 96.8154L297.739 96.7773L297.168 96.7139C296.77 97.0186 296.571 97.3571 296.571 97.7295C296.571 98.2881 297.282 98.5674 298.704 98.5674H301.116C302.673 98.5674 303.858 98.9017 304.671 99.5703C305.491 100.239 305.902 101.221 305.902 102.516C305.902 104.174 305.208 105.461 303.82 106.375C302.44 107.289 300.456 107.746 297.866 107.746C295.885 107.746 294.37 107.399 293.321 106.705C292.28 106.02 291.759 105.055 291.759 103.811C291.759 102.956 292.026 102.241 292.559 101.665C293.092 101.09 293.875 100.679 294.908 100.434C294.51 100.264 294.163 99.9893 293.867 99.6084C293.571 99.2191 293.422 98.8086 293.422 98.377C293.422 97.8353 293.579 97.3867 293.892 97.0312C294.205 96.6673 294.658 96.3118 295.251 95.9648C294.506 95.6432 293.913 95.127 293.473 94.416C293.042 93.7051 292.826 92.8672 292.826 91.9023C292.826 90.3535 293.329 89.1559 294.337 88.3096C295.344 87.4632 296.782 87.04 298.653 87.04C299.051 87.04 299.52 87.0781 300.062 87.1543C300.612 87.222 300.963 87.2728 301.116 87.3066H306.067ZM295.111 103.506C295.111 104.039 295.365 104.458 295.873 104.763C296.389 105.067 297.108 105.22 298.031 105.22C299.419 105.22 300.506 105.029 301.294 104.648C302.081 104.268 302.474 103.747 302.474 103.087C302.474 102.554 302.241 102.186 301.776 101.982C301.31 101.779 300.591 101.678 299.618 101.678H297.612C296.901 101.678 296.304 101.843 295.822 102.173C295.348 102.511 295.111 102.956 295.111 103.506ZM296.52 91.9531C296.52 92.7233 296.694 93.3327 297.041 93.7812C297.396 94.2298 297.934 94.4541 298.653 94.4541C299.381 94.4541 299.914 94.2298 300.253 93.7812C300.591 93.3327 300.76 92.7233 300.76 91.9531C300.76 90.2435 300.058 89.3887 298.653 89.3887C297.231 89.3887 296.52 90.2435 296.52 91.9531ZM326.614 91.6738H327.909C329.119 91.6738 330.024 91.4368 330.625 90.9629C331.226 90.4805 331.527 89.7822 331.527 88.8682C331.527 87.9456 331.273 87.2643 330.765 86.8242C330.266 86.3841 329.479 86.1641 328.404 86.1641H326.614V91.6738ZM335.5 88.7285C335.5 90.7259 334.874 92.2536 333.621 93.3115C332.377 94.3695 330.604 94.8984 328.302 94.8984H326.614V101.5H322.678V82.9395H328.607C330.858 82.9395 332.568 83.4261 333.736 84.3994C334.912 85.3643 335.5 86.8073 335.5 88.7285ZM346.771 87.04C347.296 87.04 347.732 87.0781 348.079 87.1543L347.787 90.7852C347.474 90.7005 347.093 90.6582 346.645 90.6582C345.409 90.6582 344.444 90.9756 343.75 91.6104C343.064 92.2451 342.722 93.1338 342.722 94.2764V101.5H338.85V87.3066H341.782L342.354 89.6934H342.544C342.984 88.8978 343.576 88.2588 344.321 87.7764C345.075 87.2855 345.891 87.04 346.771 87.04ZM353.891 94.3779C353.891 95.7829 354.12 96.8451 354.577 97.5645C355.042 98.2839 355.796 98.6436 356.837 98.6436C357.869 98.6436 358.61 98.2881 359.058 97.5771C359.515 96.8577 359.744 95.7913 359.744 94.3779C359.744 92.973 359.515 91.9193 359.058 91.2168C358.601 90.5143 357.852 90.1631 356.811 90.1631C355.779 90.1631 355.034 90.5143 354.577 91.2168C354.12 91.9108 353.891 92.9645 353.891 94.3779ZM363.705 94.3779C363.705 96.6885 363.095 98.4954 361.877 99.7988C360.658 101.102 358.961 101.754 356.786 101.754C355.423 101.754 354.221 101.458 353.18 100.865C352.139 100.264 351.339 99.4053 350.781 98.2881C350.222 97.1709 349.943 95.8675 349.943 94.3779C349.943 92.0589 350.548 90.2562 351.758 88.9697C352.969 87.6833 354.67 87.04 356.862 87.04C358.225 87.04 359.426 87.3363 360.467 87.9287C361.508 88.5212 362.308 89.3717 362.867 90.4805C363.425 91.5892 363.705 92.8883 363.705 94.3779ZM379.762 101.5H375.89V93.21C375.89 92.1859 375.716 91.4199 375.369 90.9121C375.031 90.3958 374.493 90.1377 373.757 90.1377C372.767 90.1377 372.047 90.5016 371.599 91.2295C371.15 91.9574 370.926 93.1549 370.926 94.8223V101.5H367.054V87.3066H370.012L370.532 89.1221H370.748C371.129 88.4704 371.679 87.9626 372.399 87.5986C373.118 87.2262 373.943 87.04 374.874 87.04C376.999 87.04 378.437 87.734 379.191 89.1221H379.533C379.914 88.4619 380.473 87.9499 381.209 87.5859C381.954 87.222 382.792 87.04 383.723 87.04C385.331 87.04 386.545 87.4548 387.366 88.2842C388.196 89.1051 388.611 90.4255 388.611 92.2451V101.5H384.726V93.21C384.726 92.1859 384.552 91.4199 384.205 90.9121C383.867 90.3958 383.329 90.1377 382.593 90.1377C381.645 90.1377 380.934 90.4762 380.46 91.1533C379.995 91.8304 379.762 92.9053 379.762 94.3779V101.5ZM400.542 101.754C398.874 101.754 397.567 101.149 396.619 99.9385H396.416C396.551 101.123 396.619 101.809 396.619 101.995V107.746H392.747V87.3066H395.895L396.441 89.1475H396.619C397.525 87.7425 398.866 87.04 400.643 87.04C402.319 87.04 403.631 87.6875 404.579 88.9824C405.527 90.2773 406.001 92.0758 406.001 94.3779C406.001 95.8929 405.776 97.209 405.328 98.3262C404.888 99.4434 404.257 100.294 403.436 100.878C402.615 101.462 401.651 101.754 400.542 101.754ZM399.399 90.1377C398.443 90.1377 397.745 90.4339 397.304 91.0264C396.864 91.6104 396.636 92.5794 396.619 93.9336V94.3525C396.619 95.876 396.843 96.9678 397.292 97.6279C397.749 98.2881 398.468 98.6182 399.45 98.6182C401.185 98.6182 402.053 97.1878 402.053 94.3271C402.053 92.9307 401.837 91.8854 401.405 91.1914C400.982 90.4889 400.313 90.1377 399.399 90.1377ZM415.329 98.6689C416.007 98.6689 416.819 98.5208 417.767 98.2246V101.106C416.802 101.538 415.617 101.754 414.212 101.754C412.663 101.754 411.534 101.365 410.823 100.586C410.12 99.7988 409.769 98.6224 409.769 97.0566V90.2139H407.915V88.5762L410.048 87.2812L411.165 84.2852H413.641V87.3066H417.615V90.2139H413.641V97.0566C413.641 97.6068 413.793 98.013 414.098 98.2754C414.411 98.5378 414.822 98.6689 415.329 98.6689Z" fill="#fff"/>
<path d="M197.767 135.5V122.65H199.261V134.146H204.93V135.5H197.767ZM215.213 130.675C215.213 132.245 214.817 133.473 214.026 134.357C213.235 135.236 212.143 135.676 210.748 135.676C209.887 135.676 209.122 135.474 208.454 135.069C207.786 134.665 207.271 134.085 206.907 133.329C206.544 132.573 206.362 131.688 206.362 130.675C206.362 129.104 206.755 127.883 207.54 127.01C208.325 126.131 209.415 125.691 210.81 125.691C212.157 125.691 213.227 126.14 214.018 127.036C214.814 127.933 215.213 129.146 215.213 130.675ZM207.874 130.675C207.874 131.905 208.12 132.843 208.612 133.487C209.104 134.132 209.828 134.454 210.783 134.454C211.738 134.454 212.462 134.135 212.954 133.496C213.452 132.852 213.701 131.911 213.701 130.675C213.701 129.45 213.452 128.521 212.954 127.889C212.462 127.25 211.732 126.931 210.766 126.931C209.811 126.931 209.09 127.244 208.604 127.871C208.117 128.498 207.874 129.433 207.874 130.675ZM222.174 125.691C222.602 125.691 222.985 125.727 223.325 125.797L223.123 127.15C222.725 127.062 222.373 127.019 222.068 127.019C221.289 127.019 220.621 127.335 220.064 127.968C219.514 128.601 219.238 129.389 219.238 130.332V135.5H217.779V125.867H218.983L219.15 127.651H219.221C219.578 127.024 220.009 126.541 220.513 126.201C221.017 125.861 221.57 125.691 222.174 125.691ZM229.196 135.676C227.772 135.676 226.647 135.242 225.821 134.375C225.001 133.508 224.591 132.304 224.591 130.763C224.591 129.21 224.972 127.977 225.733 127.062C226.501 126.148 227.529 125.691 228.818 125.691C230.025 125.691 230.98 126.09 231.684 126.887C232.387 127.678 232.738 128.724 232.738 130.024V130.947H226.103C226.132 132.078 226.416 132.937 226.955 133.522C227.5 134.108 228.265 134.401 229.249 134.401C230.286 134.401 231.312 134.185 232.325 133.751V135.052C231.81 135.274 231.32 135.433 230.857 135.526C230.4 135.626 229.847 135.676 229.196 135.676ZM228.801 126.913C228.027 126.913 227.409 127.165 226.946 127.669C226.489 128.173 226.22 128.87 226.138 129.761H231.174C231.174 128.841 230.969 128.138 230.559 127.651C230.148 127.159 229.562 126.913 228.801 126.913ZM247.513 135.5V129.233C247.513 128.466 247.349 127.892 247.021 127.511C246.692 127.124 246.183 126.931 245.491 126.931C244.583 126.931 243.912 127.191 243.479 127.713C243.045 128.234 242.828 129.037 242.828 130.121V135.5H241.369V129.233C241.369 128.466 241.205 127.892 240.877 127.511C240.549 127.124 240.036 126.931 239.339 126.931C238.425 126.931 237.754 127.206 237.326 127.757C236.904 128.302 236.693 129.198 236.693 130.446V135.5H235.234V125.867H236.421L236.658 127.186H236.729C237.004 126.717 237.391 126.351 237.889 126.087C238.393 125.823 238.955 125.691 239.576 125.691C241.082 125.691 242.066 126.236 242.529 127.326H242.6C242.887 126.822 243.303 126.424 243.848 126.131C244.393 125.838 245.014 125.691 245.711 125.691C246.801 125.691 247.615 125.973 248.154 126.535C248.699 127.092 248.972 127.985 248.972 129.216V135.5H247.513ZM258.121 135.5H256.662V125.867H258.121V135.5ZM256.539 123.257C256.539 122.923 256.621 122.68 256.785 122.527C256.949 122.369 257.154 122.29 257.4 122.29C257.635 122.29 257.837 122.369 258.007 122.527C258.177 122.686 258.262 122.929 258.262 123.257C258.262 123.585 258.177 123.831 258.007 123.995C257.837 124.153 257.635 124.232 257.4 124.232C257.154 124.232 256.949 124.153 256.785 123.995C256.621 123.831 256.539 123.585 256.539 123.257ZM265.697 135.676C265.07 135.676 264.496 135.562 263.975 135.333C263.459 135.099 263.025 134.741 262.674 134.261H262.568C262.639 134.823 262.674 135.356 262.674 135.86V139.824H261.215V125.867H262.401L262.604 127.186H262.674C263.049 126.658 263.485 126.277 263.983 126.043C264.481 125.809 265.053 125.691 265.697 125.691C266.975 125.691 267.959 126.128 268.65 127.001C269.348 127.874 269.696 129.099 269.696 130.675C269.696 132.257 269.342 133.487 268.633 134.366C267.93 135.239 266.951 135.676 265.697 135.676ZM265.486 126.931C264.502 126.931 263.79 127.203 263.351 127.748C262.911 128.293 262.686 129.16 262.674 130.35V130.675C262.674 132.028 262.899 132.998 263.351 133.584C263.802 134.164 264.525 134.454 265.521 134.454C266.354 134.454 267.004 134.117 267.473 133.443C267.947 132.77 268.185 131.841 268.185 130.657C268.185 129.456 267.947 128.536 267.473 127.897C267.004 127.253 266.342 126.931 265.486 126.931ZM278.468 132.872C278.468 133.769 278.134 134.46 277.466 134.946C276.798 135.433 275.86 135.676 274.653 135.676C273.376 135.676 272.38 135.474 271.665 135.069V133.716C272.128 133.95 272.623 134.135 273.15 134.27C273.684 134.404 274.196 134.472 274.688 134.472C275.45 134.472 276.036 134.352 276.446 134.111C276.856 133.865 277.062 133.493 277.062 132.995C277.062 132.62 276.897 132.301 276.569 132.037C276.247 131.768 275.614 131.451 274.671 131.088C273.774 130.754 273.136 130.464 272.755 130.218C272.38 129.966 272.099 129.682 271.911 129.365C271.729 129.049 271.639 128.671 271.639 128.231C271.639 127.446 271.958 126.828 272.597 126.377C273.235 125.92 274.111 125.691 275.225 125.691C276.262 125.691 277.275 125.902 278.266 126.324L277.747 127.511C276.78 127.112 275.904 126.913 275.119 126.913C274.428 126.913 273.906 127.021 273.555 127.238C273.203 127.455 273.027 127.754 273.027 128.135C273.027 128.393 273.092 128.612 273.221 128.794C273.355 128.976 273.569 129.148 273.862 129.312C274.155 129.477 274.718 129.714 275.55 130.024C276.692 130.44 277.463 130.859 277.861 131.281C278.266 131.703 278.468 132.233 278.468 132.872ZM282.221 125.867V132.116C282.221 132.901 282.399 133.487 282.757 133.874C283.114 134.261 283.674 134.454 284.436 134.454C285.443 134.454 286.179 134.179 286.642 133.628C287.11 133.077 287.345 132.178 287.345 130.93V125.867H288.804V135.5H287.6L287.389 134.208H287.31C287.011 134.683 286.595 135.046 286.062 135.298C285.534 135.55 284.931 135.676 284.251 135.676C283.079 135.676 282.2 135.397 281.614 134.841C281.034 134.284 280.744 133.394 280.744 132.169V125.867H282.221ZM304.185 135.5V129.233C304.185 128.466 304.021 127.892 303.692 127.511C303.364 127.124 302.854 126.931 302.163 126.931C301.255 126.931 300.584 127.191 300.15 127.713C299.717 128.234 299.5 129.037 299.5 130.121V135.5H298.041V129.233C298.041 128.466 297.877 127.892 297.549 127.511C297.221 127.124 296.708 126.931 296.011 126.931C295.097 126.931 294.426 127.206 293.998 127.757C293.576 128.302 293.365 129.198 293.365 130.446V135.5H291.906V125.867H293.093L293.33 127.186H293.4C293.676 126.717 294.062 126.351 294.561 126.087C295.064 125.823 295.627 125.691 296.248 125.691C297.754 125.691 298.738 126.236 299.201 127.326H299.271C299.559 126.822 299.975 126.424 300.52 126.131C301.064 125.838 301.686 125.691 302.383 125.691C303.473 125.691 304.287 125.973 304.826 126.535C305.371 127.092 305.644 127.985 305.644 129.216V135.5H304.185ZM319.891 134.208H319.812C319.138 135.187 318.13 135.676 316.788 135.676C315.528 135.676 314.547 135.245 313.844 134.384C313.146 133.522 312.798 132.298 312.798 130.71C312.798 129.122 313.149 127.889 313.853 127.01C314.556 126.131 315.534 125.691 316.788 125.691C318.095 125.691 319.097 126.166 319.794 127.115H319.908L319.847 126.421L319.812 125.744V121.824H321.271V135.5H320.084L319.891 134.208ZM316.973 134.454C317.969 134.454 318.689 134.185 319.135 133.646C319.586 133.101 319.812 132.225 319.812 131.018V130.71C319.812 129.345 319.583 128.372 319.126 127.792C318.675 127.206 317.951 126.913 316.955 126.913C316.1 126.913 315.443 127.247 314.986 127.915C314.535 128.577 314.31 129.515 314.31 130.728C314.31 131.958 314.535 132.887 314.986 133.514C315.438 134.141 316.1 134.454 316.973 134.454ZM332.688 130.675C332.688 132.245 332.292 133.473 331.501 134.357C330.71 135.236 329.617 135.676 328.223 135.676C327.361 135.676 326.597 135.474 325.929 135.069C325.261 134.665 324.745 134.085 324.382 133.329C324.019 132.573 323.837 131.688 323.837 130.675C323.837 129.104 324.229 127.883 325.015 127.01C325.8 126.131 326.89 125.691 328.284 125.691C329.632 125.691 330.701 126.14 331.492 127.036C332.289 127.933 332.688 129.146 332.688 130.675ZM325.349 130.675C325.349 131.905 325.595 132.843 326.087 133.487C326.579 134.132 327.303 134.454 328.258 134.454C329.213 134.454 329.937 134.135 330.429 133.496C330.927 132.852 331.176 131.911 331.176 130.675C331.176 129.45 330.927 128.521 330.429 127.889C329.937 127.25 329.207 126.931 328.24 126.931C327.285 126.931 326.564 127.244 326.078 127.871C325.592 128.498 325.349 129.433 325.349 130.675ZM336.713 135.5H335.254V121.824H336.713V135.5ZM348.121 130.675C348.121 132.245 347.726 133.473 346.935 134.357C346.144 135.236 345.051 135.676 343.656 135.676C342.795 135.676 342.03 135.474 341.362 135.069C340.694 134.665 340.179 134.085 339.815 133.329C339.452 132.573 339.271 131.688 339.271 130.675C339.271 129.104 339.663 127.883 340.448 127.01C341.233 126.131 342.323 125.691 343.718 125.691C345.065 125.691 346.135 126.14 346.926 127.036C347.723 127.933 348.121 129.146 348.121 130.675ZM340.782 130.675C340.782 131.905 341.028 132.843 341.521 133.487C342.013 134.132 342.736 134.454 343.691 134.454C344.646 134.454 345.37 134.135 345.862 133.496C346.36 132.852 346.609 131.911 346.609 130.675C346.609 129.45 346.36 128.521 345.862 127.889C345.37 127.25 344.641 126.931 343.674 126.931C342.719 126.931 341.998 127.244 341.512 127.871C341.025 128.498 340.782 129.433 340.782 130.675ZM355.082 125.691C355.51 125.691 355.894 125.727 356.233 125.797L356.031 127.15C355.633 127.062 355.281 127.019 354.977 127.019C354.197 127.019 353.529 127.335 352.973 127.968C352.422 128.601 352.146 129.389 352.146 130.332V135.5H350.688V125.867H351.892L352.059 127.651H352.129C352.486 127.024 352.917 126.541 353.421 126.201C353.925 125.861 354.479 125.691 355.082 125.691ZM368.925 132.872C368.925 133.769 368.591 134.46 367.923 134.946C367.255 135.433 366.317 135.676 365.11 135.676C363.833 135.676 362.837 135.474 362.122 135.069V133.716C362.585 133.95 363.08 134.135 363.607 134.27C364.141 134.404 364.653 134.472 365.146 134.472C365.907 134.472 366.493 134.352 366.903 134.111C367.313 133.865 367.519 133.493 367.519 132.995C367.519 132.62 367.354 132.301 367.026 132.037C366.704 131.768 366.071 131.451 365.128 131.088C364.231 130.754 363.593 130.464 363.212 130.218C362.837 129.966 362.556 129.682 362.368 129.365C362.187 129.049 362.096 128.671 362.096 128.231C362.096 127.446 362.415 126.828 363.054 126.377C363.692 125.92 364.568 125.691 365.682 125.691C366.719 125.691 367.732 125.902 368.723 126.324L368.204 127.511C367.237 127.112 366.361 126.913 365.576 126.913C364.885 126.913 364.363 127.021 364.012 127.238C363.66 127.455 363.484 127.754 363.484 128.135C363.484 128.393 363.549 128.612 363.678 128.794C363.812 128.976 364.026 129.148 364.319 129.312C364.612 129.477 365.175 129.714 366.007 130.024C367.149 130.44 367.92 130.859 368.318 131.281C368.723 131.703 368.925 132.233 368.925 132.872ZM372.766 135.5H371.307V125.867H372.766V135.5ZM371.184 123.257C371.184 122.923 371.266 122.68 371.43 122.527C371.594 122.369 371.799 122.29 372.045 122.29C372.279 122.29 372.481 122.369 372.651 122.527C372.821 122.686 372.906 122.929 372.906 123.257C372.906 123.585 372.821 123.831 372.651 123.995C372.481 124.153 372.279 124.232 372.045 124.232C371.799 124.232 371.594 124.153 371.43 123.995C371.266 123.831 371.184 123.585 371.184 123.257ZM378.971 134.472C379.229 134.472 379.478 134.454 379.718 134.419C379.958 134.378 380.148 134.337 380.289 134.296V135.412C380.131 135.488 379.896 135.55 379.586 135.597C379.281 135.649 379.006 135.676 378.76 135.676C376.896 135.676 375.965 134.694 375.965 132.731V127.001H374.585V126.298L375.965 125.691L376.58 123.635H377.424V125.867H380.219V127.001H377.424V132.67C377.424 133.25 377.562 133.695 377.837 134.006C378.112 134.316 378.49 134.472 378.971 134.472ZM392.822 135.5L392.532 134.129H392.462C391.981 134.732 391.501 135.143 391.021 135.359C390.546 135.57 389.951 135.676 389.236 135.676C388.281 135.676 387.531 135.43 386.986 134.938C386.447 134.445 386.178 133.745 386.178 132.837C386.178 130.892 387.733 129.872 390.845 129.778L392.479 129.726V129.128C392.479 128.372 392.315 127.815 391.987 127.458C391.665 127.095 391.146 126.913 390.432 126.913C389.629 126.913 388.721 127.159 387.707 127.651L387.259 126.535C387.733 126.277 388.252 126.075 388.814 125.929C389.383 125.782 389.951 125.709 390.52 125.709C391.668 125.709 392.518 125.964 393.068 126.474C393.625 126.983 393.903 127.801 393.903 128.926V135.5H392.822ZM389.526 134.472C390.435 134.472 391.146 134.223 391.662 133.725C392.184 133.227 392.444 132.529 392.444 131.633V130.763L390.985 130.824C389.825 130.865 388.987 131.047 388.472 131.369C387.962 131.686 387.707 132.181 387.707 132.854C387.707 133.382 387.865 133.783 388.182 134.059C388.504 134.334 388.952 134.472 389.526 134.472ZM409.196 135.5V129.233C409.196 128.466 409.032 127.892 408.704 127.511C408.376 127.124 407.866 126.931 407.175 126.931C406.267 126.931 405.596 127.191 405.162 127.713C404.729 128.234 404.512 129.037 404.512 130.121V135.5H403.053V129.233C403.053 128.466 402.889 127.892 402.561 127.511C402.232 127.124 401.72 126.931 401.022 126.931C400.108 126.931 399.438 127.206 399.01 127.757C398.588 128.302 398.377 129.198 398.377 130.446V135.5H396.918V125.867H398.104L398.342 127.186H398.412C398.688 126.717 399.074 126.351 399.572 126.087C400.076 125.823 400.639 125.691 401.26 125.691C402.766 125.691 403.75 126.236 404.213 127.326H404.283C404.57 126.822 404.986 126.424 405.531 126.131C406.076 125.838 406.697 125.691 407.395 125.691C408.484 125.691 409.299 125.973 409.838 126.535C410.383 127.092 410.655 127.985 410.655 129.216V135.5H409.196ZM417.739 135.676C416.315 135.676 415.19 135.242 414.364 134.375C413.544 133.508 413.134 132.304 413.134 130.763C413.134 129.21 413.515 127.977 414.276 127.062C415.044 126.148 416.072 125.691 417.361 125.691C418.568 125.691 419.523 126.09 420.227 126.887C420.93 127.678 421.281 128.724 421.281 130.024V130.947H414.646C414.675 132.078 414.959 132.937 415.498 133.522C416.043 134.108 416.808 134.401 417.792 134.401C418.829 134.401 419.854 134.185 420.868 133.751V135.052C420.353 135.274 419.863 135.433 419.4 135.526C418.943 135.626 418.39 135.676 417.739 135.676ZM417.344 126.913C416.57 126.913 415.952 127.165 415.489 127.669C415.032 128.173 414.763 128.87 414.681 129.761H419.717C419.717 128.841 419.512 128.138 419.102 127.651C418.691 127.159 418.105 126.913 417.344 126.913ZM426.889 134.472C427.146 134.472 427.396 134.454 427.636 134.419C427.876 134.378 428.066 134.337 428.207 134.296V135.412C428.049 135.488 427.814 135.55 427.504 135.597C427.199 135.649 426.924 135.676 426.678 135.676C424.814 135.676 423.883 134.694 423.883 132.731V127.001H422.503V126.298L423.883 125.691L424.498 123.635H425.342V125.867H428.137V127.001H425.342V132.67C425.342 133.25 425.479 133.695 425.755 134.006C426.03 134.316 426.408 134.472 426.889 134.472ZM431.67 133.408L431.802 133.61C431.649 134.196 431.43 134.876 431.143 135.649C430.855 136.429 430.557 137.152 430.246 137.82H429.147C429.306 137.211 429.479 136.458 429.666 135.562C429.859 134.665 429.994 133.947 430.07 133.408H431.67ZM443.078 135.676C441.684 135.676 440.603 135.248 439.835 134.393C439.073 133.531 438.692 132.315 438.692 130.745C438.692 129.134 439.079 127.889 439.853 127.01C440.632 126.131 441.739 125.691 443.175 125.691C443.638 125.691 444.101 125.741 444.563 125.841C445.026 125.94 445.39 126.058 445.653 126.192L445.205 127.432C444.883 127.303 444.531 127.197 444.15 127.115C443.77 127.027 443.433 126.983 443.14 126.983C441.183 126.983 440.204 128.231 440.204 130.728C440.204 131.911 440.441 132.819 440.916 133.452C441.396 134.085 442.105 134.401 443.043 134.401C443.846 134.401 444.669 134.229 445.513 133.883V135.175C444.868 135.509 444.057 135.676 443.078 135.676ZM456.121 130.675C456.121 132.245 455.726 133.473 454.935 134.357C454.144 135.236 453.051 135.676 451.656 135.676C450.795 135.676 450.03 135.474 449.362 135.069C448.694 134.665 448.179 134.085 447.815 133.329C447.452 132.573 447.271 131.688 447.271 130.675C447.271 129.104 447.663 127.883 448.448 127.01C449.233 126.131 450.323 125.691 451.718 125.691C453.065 125.691 454.135 126.14 454.926 127.036C455.723 127.933 456.121 129.146 456.121 130.675ZM448.782 130.675C448.782 131.905 449.028 132.843 449.521 133.487C450.013 134.132 450.736 134.454 451.691 134.454C452.646 134.454 453.37 134.135 453.862 133.496C454.36 132.852 454.609 131.911 454.609 130.675C454.609 129.45 454.36 128.521 453.862 127.889C453.37 127.25 452.641 126.931 451.674 126.931C450.719 126.931 449.998 127.244 449.512 127.871C449.025 128.498 448.782 129.433 448.782 130.675ZM465.279 135.5V129.269C465.279 128.483 465.101 127.897 464.743 127.511C464.386 127.124 463.826 126.931 463.064 126.931C462.057 126.931 461.318 127.203 460.85 127.748C460.381 128.293 460.146 129.192 460.146 130.446V135.5H458.688V125.867H459.874L460.111 127.186H460.182C460.48 126.711 460.899 126.345 461.438 126.087C461.978 125.823 462.578 125.691 463.24 125.691C464.4 125.691 465.273 125.973 465.859 126.535C466.445 127.092 466.738 127.985 466.738 129.216V135.5H465.279ZM475.958 132.872C475.958 133.769 475.624 134.46 474.956 134.946C474.288 135.433 473.351 135.676 472.144 135.676C470.866 135.676 469.87 135.474 469.155 135.069V133.716C469.618 133.95 470.113 134.135 470.641 134.27C471.174 134.404 471.687 134.472 472.179 134.472C472.94 134.472 473.526 134.352 473.937 134.111C474.347 133.865 474.552 133.493 474.552 132.995C474.552 132.62 474.388 132.301 474.06 132.037C473.737 131.768 473.104 131.451 472.161 131.088C471.265 130.754 470.626 130.464 470.245 130.218C469.87 129.966 469.589 129.682 469.401 129.365C469.22 129.049 469.129 128.671 469.129 128.231C469.129 127.446 469.448 126.828 470.087 126.377C470.726 125.92 471.602 125.691 472.715 125.691C473.752 125.691 474.766 125.902 475.756 126.324L475.237 127.511C474.271 127.112 473.395 126.913 472.609 126.913C471.918 126.913 471.396 127.021 471.045 127.238C470.693 127.455 470.518 127.754 470.518 128.135C470.518 128.393 470.582 128.612 470.711 128.794C470.846 128.976 471.06 129.148 471.353 129.312C471.646 129.477 472.208 129.714 473.04 130.024C474.183 130.44 474.953 130.859 475.352 131.281C475.756 131.703 475.958 132.233 475.958 132.872ZM482.409 135.676C480.985 135.676 479.86 135.242 479.034 134.375C478.214 133.508 477.804 132.304 477.804 130.763C477.804 129.21 478.185 127.977 478.946 127.062C479.714 126.148 480.742 125.691 482.031 125.691C483.238 125.691 484.193 126.09 484.896 126.887C485.6 127.678 485.951 128.724 485.951 130.024V130.947H479.315C479.345 132.078 479.629 132.937 480.168 133.522C480.713 134.108 481.478 134.401 482.462 134.401C483.499 134.401 484.524 134.185 485.538 133.751V135.052C485.022 135.274 484.533 135.433 484.07 135.526C483.613 135.626 483.06 135.676 482.409 135.676ZM482.014 126.913C481.24 126.913 480.622 127.165 480.159 127.669C479.702 128.173 479.433 128.87 479.351 129.761H484.387C484.387 128.841 484.182 128.138 483.771 127.651C483.361 127.159 482.775 126.913 482.014 126.913ZM492.297 135.676C490.902 135.676 489.821 135.248 489.054 134.393C488.292 133.531 487.911 132.315 487.911 130.745C487.911 129.134 488.298 127.889 489.071 127.01C489.851 126.131 490.958 125.691 492.394 125.691C492.856 125.691 493.319 125.741 493.782 125.841C494.245 125.94 494.608 126.058 494.872 126.192L494.424 127.432C494.102 127.303 493.75 127.197 493.369 127.115C492.988 127.027 492.651 126.983 492.358 126.983C490.401 126.983 489.423 128.231 489.423 130.728C489.423 131.911 489.66 132.819 490.135 133.452C490.615 134.085 491.324 134.401 492.262 134.401C493.064 134.401 493.888 134.229 494.731 133.883V135.175C494.087 135.509 493.275 135.676 492.297 135.676ZM500.137 134.472C500.395 134.472 500.644 134.454 500.884 134.419C501.124 134.378 501.314 134.337 501.455 134.296V135.412C501.297 135.488 501.062 135.55 500.752 135.597C500.447 135.649 500.172 135.676 499.926 135.676C498.062 135.676 497.131 134.694 497.131 132.731V127.001H495.751V126.298L497.131 125.691L497.746 123.635H498.59V125.867H501.385V127.001H498.59V132.67C498.59 133.25 498.728 133.695 499.003 134.006C499.278 134.316 499.656 134.472 500.137 134.472ZM507.458 135.676C506.034 135.676 504.909 135.242 504.083 134.375C503.263 133.508 502.853 132.304 502.853 130.763C502.853 129.21 503.233 127.977 503.995 127.062C504.763 126.148 505.791 125.691 507.08 125.691C508.287 125.691 509.242 126.09 509.945 126.887C510.648 127.678 511 128.724 511 130.024V130.947H504.364C504.394 132.078 504.678 132.937 505.217 133.522C505.762 134.108 506.526 134.401 507.511 134.401C508.548 134.401 509.573 134.185 510.587 133.751V135.052C510.071 135.274 509.582 135.433 509.119 135.526C508.662 135.626 508.108 135.676 507.458 135.676ZM507.062 126.913C506.289 126.913 505.671 127.165 505.208 127.669C504.751 128.173 504.481 128.87 504.399 129.761H509.436C509.436 128.841 509.23 128.138 508.82 127.651C508.41 127.159 507.824 126.913 507.062 126.913ZM516.607 134.472C516.865 134.472 517.114 134.454 517.354 134.419C517.595 134.378 517.785 134.337 517.926 134.296V135.412C517.768 135.488 517.533 135.55 517.223 135.597C516.918 135.649 516.643 135.676 516.396 135.676C514.533 135.676 513.602 134.694 513.602 132.731V127.001H512.222V126.298L513.602 125.691L514.217 123.635H515.061V125.867H517.855V127.001H515.061V132.67C515.061 133.25 515.198 133.695 515.474 134.006C515.749 134.316 516.127 134.472 516.607 134.472ZM521.23 125.867V132.116C521.23 132.901 521.409 133.487 521.767 133.874C522.124 134.261 522.684 134.454 523.445 134.454C524.453 134.454 525.188 134.179 525.651 133.628C526.12 133.077 526.354 132.178 526.354 130.93V125.867H527.813V135.5H526.609L526.398 134.208H526.319C526.021 134.683 525.604 135.046 525.071 135.298C524.544 135.55 523.94 135.676 523.261 135.676C522.089 135.676 521.21 135.397 520.624 134.841C520.044 134.284 519.754 133.394 519.754 132.169V125.867H521.23ZM535.311 125.691C535.738 125.691 536.122 125.727 536.462 125.797L536.26 127.15C535.861 127.062 535.51 127.019 535.205 127.019C534.426 127.019 533.758 127.335 533.201 127.968C532.65 128.601 532.375 129.389 532.375 130.332V135.5H530.916V125.867H532.12L532.287 127.651H532.357C532.715 127.024 533.146 126.541 533.649 126.201C534.153 125.861 534.707 125.691 535.311 125.691ZM548.863 135.5L548.573 134.129H548.503C548.022 134.732 547.542 135.143 547.062 135.359C546.587 135.57 545.992 135.676 545.277 135.676C544.322 135.676 543.572 135.43 543.027 134.938C542.488 134.445 542.219 133.745 542.219 132.837C542.219 130.892 543.774 129.872 546.886 129.778L548.521 129.726V129.128C548.521 128.372 548.356 127.815 548.028 127.458C547.706 127.095 547.188 126.913 546.473 126.913C545.67 126.913 544.762 127.159 543.748 127.651L543.3 126.535C543.774 126.277 544.293 126.075 544.855 125.929C545.424 125.782 545.992 125.709 546.561 125.709C547.709 125.709 548.559 125.964 549.109 126.474C549.666 126.983 549.944 127.801 549.944 128.926V135.5H548.863ZM545.567 134.472C546.476 134.472 547.188 134.223 547.703 133.725C548.225 133.227 548.485 132.529 548.485 131.633V130.763L547.026 130.824C545.866 130.865 545.028 131.047 544.513 131.369C544.003 131.686 543.748 132.181 543.748 132.854C543.748 133.382 543.906 133.783 544.223 134.059C544.545 134.334 544.993 134.472 545.567 134.472ZM559.516 134.208H559.437C558.763 135.187 557.755 135.676 556.413 135.676C555.153 135.676 554.172 135.245 553.469 134.384C552.771 133.522 552.423 132.298 552.423 130.71C552.423 129.122 552.774 127.889 553.478 127.01C554.181 126.131 555.159 125.691 556.413 125.691C557.72 125.691 558.722 126.166 559.419 127.115H559.533L559.472 126.421L559.437 125.744V121.824H560.896V135.5H559.709L559.516 134.208ZM556.598 134.454C557.594 134.454 558.314 134.185 558.76 133.646C559.211 133.101 559.437 132.225 559.437 131.018V130.71C559.437 129.345 559.208 128.372 558.751 127.792C558.3 127.206 557.576 126.913 556.58 126.913C555.725 126.913 555.068 127.247 554.611 127.915C554.16 128.577 553.935 129.515 553.935 130.728C553.935 131.958 554.16 132.887 554.611 133.514C555.062 134.141 555.725 134.454 556.598 134.454ZM565.457 135.5H563.998V125.867H565.457V135.5ZM563.875 123.257C563.875 122.923 563.957 122.68 564.121 122.527C564.285 122.369 564.49 122.29 564.736 122.29C564.971 122.29 565.173 122.369 565.343 122.527C565.513 122.686 565.598 122.929 565.598 123.257C565.598 123.585 565.513 123.831 565.343 123.995C565.173 124.153 564.971 124.232 564.736 124.232C564.49 124.232 564.285 124.153 564.121 123.995C563.957 123.831 563.875 123.585 563.875 123.257ZM573.033 135.676C572.406 135.676 571.832 135.562 571.311 135.333C570.795 135.099 570.361 134.741 570.01 134.261H569.904C569.975 134.823 570.01 135.356 570.01 135.86V139.824H568.551V125.867H569.737L569.939 127.186H570.01C570.385 126.658 570.821 126.277 571.319 126.043C571.817 125.809 572.389 125.691 573.033 125.691C574.311 125.691 575.295 126.128 575.986 127.001C576.684 127.874 577.032 129.099 577.032 130.675C577.032 132.257 576.678 133.487 575.969 134.366C575.266 135.239 574.287 135.676 573.033 135.676ZM572.822 126.931C571.838 126.931 571.126 127.203 570.687 127.748C570.247 128.293 570.021 129.16 570.01 130.35V130.675C570.01 132.028 570.235 132.998 570.687 133.584C571.138 134.164 571.861 134.454 572.857 134.454C573.689 134.454 574.34 134.117 574.809 133.443C575.283 132.77 575.521 131.841 575.521 130.657C575.521 129.456 575.283 128.536 574.809 127.897C574.34 127.253 573.678 126.931 572.822 126.931ZM581.049 135.5H579.59V125.867H581.049V135.5ZM579.467 123.257C579.467 122.923 579.549 122.68 579.713 122.527C579.877 122.369 580.082 122.29 580.328 122.29C580.562 122.29 580.765 122.369 580.935 122.527C581.104 122.686 581.189 122.929 581.189 123.257C581.189 123.585 581.104 123.831 580.935 123.995C580.765 124.153 580.562 124.232 580.328 124.232C580.082 124.232 579.877 124.153 579.713 123.995C579.549 123.831 579.467 123.585 579.467 123.257ZM590.356 132.872C590.356 133.769 590.022 134.46 589.354 134.946C588.687 135.433 587.749 135.676 586.542 135.676C585.265 135.676 584.269 135.474 583.554 135.069V133.716C584.017 133.95 584.512 134.135 585.039 134.27C585.572 134.404 586.085 134.472 586.577 134.472C587.339 134.472 587.925 134.352 588.335 134.111C588.745 133.865 588.95 133.493 588.95 132.995C588.95 132.62 588.786 132.301 588.458 132.037C588.136 131.768 587.503 131.451 586.56 131.088C585.663 130.754 585.024 130.464 584.644 130.218C584.269 129.966 583.987 129.682 583.8 129.365C583.618 129.049 583.527 128.671 583.527 128.231C583.527 127.446 583.847 126.828 584.485 126.377C585.124 125.92 586 125.691 587.113 125.691C588.15 125.691 589.164 125.902 590.154 126.324L589.636 127.511C588.669 127.112 587.793 126.913 587.008 126.913C586.316 126.913 585.795 127.021 585.443 127.238C585.092 127.455 584.916 127.754 584.916 128.135C584.916 128.393 584.98 128.612 585.109 128.794C585.244 128.976 585.458 129.148 585.751 129.312C586.044 129.477 586.606 129.714 587.438 130.024C588.581 130.44 589.352 130.859 589.75 131.281C590.154 131.703 590.356 132.233 590.356 132.872ZM596.588 135.676C595.193 135.676 594.112 135.248 593.345 134.393C592.583 133.531 592.202 132.315 592.202 130.745C592.202 129.134 592.589 127.889 593.362 127.01C594.142 126.131 595.249 125.691 596.685 125.691C597.147 125.691 597.61 125.741 598.073 125.841C598.536 125.94 598.899 126.058 599.163 126.192L598.715 127.432C598.393 127.303 598.041 127.197 597.66 127.115C597.279 127.027 596.942 126.983 596.649 126.983C594.692 126.983 593.714 128.231 593.714 130.728C593.714 131.911 593.951 132.819 594.426 133.452C594.906 134.085 595.615 134.401 596.553 134.401C597.355 134.401 598.179 134.229 599.022 133.883V135.175C598.378 135.509 597.566 135.676 596.588 135.676ZM602.775 135.5H601.316V125.867H602.775V135.5ZM601.193 123.257C601.193 122.923 601.275 122.68 601.439 122.527C601.604 122.369 601.809 122.29 602.055 122.29C602.289 122.29 602.491 122.369 602.661 122.527C602.831 122.686 602.916 122.929 602.916 123.257C602.916 123.585 602.831 123.831 602.661 123.995C602.491 124.153 602.289 124.232 602.055 124.232C601.809 124.232 601.604 124.153 601.439 123.995C601.275 123.831 601.193 123.585 601.193 123.257ZM612.461 135.5V129.269C612.461 128.483 612.282 127.897 611.925 127.511C611.567 127.124 611.008 126.931 610.246 126.931C609.238 126.931 608.5 127.203 608.031 127.748C607.562 128.293 607.328 129.192 607.328 130.446V135.5H605.869V125.867H607.056L607.293 127.186H607.363C607.662 126.711 608.081 126.345 608.62 126.087C609.159 125.823 609.76 125.691 610.422 125.691C611.582 125.691 612.455 125.973 613.041 126.535C613.627 127.092 613.92 127.985 613.92 129.216V135.5H612.461ZM624.81 125.867V126.79L623.025 127.001C623.189 127.206 623.336 127.476 623.465 127.81C623.594 128.138 623.658 128.51 623.658 128.926C623.658 129.869 623.336 130.622 622.691 131.185C622.047 131.747 621.162 132.028 620.037 132.028C619.75 132.028 619.48 132.005 619.229 131.958C618.607 132.286 618.297 132.699 618.297 133.197C618.297 133.461 618.405 133.657 618.622 133.786C618.839 133.909 619.211 133.971 619.738 133.971H621.443C622.486 133.971 623.286 134.19 623.843 134.63C624.405 135.069 624.687 135.708 624.687 136.546C624.687 137.612 624.259 138.424 623.403 138.98C622.548 139.543 621.3 139.824 619.659 139.824C618.399 139.824 617.427 139.59 616.741 139.121C616.062 138.652 615.722 137.99 615.722 137.135C615.722 136.549 615.909 136.042 616.284 135.614C616.659 135.187 617.187 134.896 617.866 134.744C617.62 134.633 617.412 134.46 617.242 134.226C617.078 133.991 616.996 133.719 616.996 133.408C616.996 133.057 617.09 132.749 617.277 132.485C617.465 132.222 617.761 131.967 618.165 131.721C617.667 131.516 617.26 131.167 616.943 130.675C616.633 130.183 616.478 129.62 616.478 128.987C616.478 127.933 616.794 127.121 617.427 126.553C618.06 125.979 618.956 125.691 620.116 125.691C620.62 125.691 621.074 125.75 621.479 125.867H624.81ZM617.128 137.117C617.128 137.639 617.348 138.034 617.787 138.304C618.227 138.573 618.856 138.708 619.677 138.708C620.901 138.708 621.807 138.523 622.393 138.154C622.984 137.791 623.28 137.296 623.28 136.669C623.28 136.147 623.119 135.784 622.797 135.579C622.475 135.38 621.868 135.28 620.978 135.28H619.229C618.566 135.28 618.051 135.438 617.682 135.755C617.312 136.071 617.128 136.525 617.128 137.117ZM617.919 128.952C617.919 129.626 618.109 130.136 618.49 130.481C618.871 130.827 619.401 131 620.081 131C621.505 131 622.217 130.309 622.217 128.926C622.217 127.479 621.496 126.755 620.055 126.755C619.369 126.755 618.842 126.939 618.473 127.309C618.104 127.678 617.919 128.226 617.919 128.952ZM635.532 135.676C634.108 135.676 632.983 135.242 632.157 134.375C631.337 133.508 630.927 132.304 630.927 130.763C630.927 129.21 631.308 127.977 632.069 127.062C632.837 126.148 633.865 125.691 635.154 125.691C636.361 125.691 637.316 126.09 638.02 126.887C638.723 127.678 639.074 128.724 639.074 130.024V130.947H632.438C632.468 132.078 632.752 132.937 633.291 133.522C633.836 134.108 634.601 134.401 635.585 134.401C636.622 134.401 637.647 134.185 638.661 133.751V135.052C638.146 135.274 637.656 135.433 637.193 135.526C636.736 135.626 636.183 135.676 635.532 135.676ZM635.137 126.913C634.363 126.913 633.745 127.165 633.282 127.669C632.825 128.173 632.556 128.87 632.474 129.761H637.51C637.51 128.841 637.305 128.138 636.895 127.651C636.484 127.159 635.898 126.913 635.137 126.913ZM643.029 135.5H641.57V121.824H643.029V135.5ZM647.582 135.5H646.123V125.867H647.582V135.5ZM646 123.257C646 122.923 646.082 122.68 646.246 122.527C646.41 122.369 646.615 122.29 646.861 122.29C647.096 122.29 647.298 122.369 647.468 122.527C647.638 122.686 647.723 122.929 647.723 123.257C647.723 123.585 647.638 123.831 647.468 123.995C647.298 124.153 647.096 124.232 646.861 124.232C646.615 124.232 646.41 124.153 646.246 123.995C646.082 123.831 646 123.585 646 123.257ZM653.787 134.472C654.045 134.472 654.294 134.454 654.534 134.419C654.774 134.378 654.965 134.337 655.105 134.296V135.412C654.947 135.488 654.713 135.55 654.402 135.597C654.098 135.649 653.822 135.676 653.576 135.676C651.713 135.676 650.781 134.694 650.781 132.731V127.001H649.401V126.298L650.781 125.691L651.396 123.635H652.24V125.867H655.035V127.001H652.24V132.67C652.24 133.25 652.378 133.695 652.653 134.006C652.929 134.316 653.307 134.472 653.787 134.472ZM656.828 134.568C656.828 134.176 656.916 133.88 657.092 133.681C657.273 133.476 657.531 133.373 657.865 133.373C658.205 133.373 658.469 133.476 658.656 133.681C658.85 133.88 658.946 134.176 658.946 134.568C658.946 134.949 658.85 135.242 658.656 135.447C658.463 135.652 658.199 135.755 657.865 135.755C657.566 135.755 657.317 135.664 657.118 135.482C656.925 135.295 656.828 134.99 656.828 134.568ZM674.811 135.5L673.211 131.413H668.061L666.479 135.5H664.967L670.047 122.598H671.304L676.357 135.5H674.811ZM672.745 130.068L671.251 126.087C671.058 125.583 670.858 124.965 670.653 124.232C670.524 124.795 670.34 125.413 670.1 126.087L668.588 130.068H672.745ZM681.974 135.676C680.55 135.676 679.425 135.242 678.599 134.375C677.778 133.508 677.368 132.304 677.368 130.763C677.368 129.21 677.749 127.977 678.511 127.062C679.278 126.148 680.307 125.691 681.596 125.691C682.803 125.691 683.758 126.09 684.461 126.887C685.164 127.678 685.516 128.724 685.516 130.024V130.947H678.88C678.909 132.078 679.193 132.937 679.732 133.522C680.277 134.108 681.042 134.401 682.026 134.401C683.063 134.401 684.089 134.185 685.103 133.751V135.052C684.587 135.274 684.098 135.433 683.635 135.526C683.178 135.626 682.624 135.676 681.974 135.676ZM681.578 126.913C680.805 126.913 680.187 127.165 679.724 127.669C679.267 128.173 678.997 128.87 678.915 129.761H683.951C683.951 128.841 683.746 128.138 683.336 127.651C682.926 127.159 682.34 126.913 681.578 126.913ZM694.604 135.5V129.269C694.604 128.483 694.425 127.897 694.067 127.511C693.71 127.124 693.15 126.931 692.389 126.931C691.381 126.931 690.643 127.203 690.174 127.748C689.705 128.293 689.471 129.192 689.471 130.446V135.5H688.012V125.867H689.198L689.436 127.186H689.506C689.805 126.711 690.224 126.345 690.763 126.087C691.302 125.823 691.902 125.691 692.564 125.691C693.725 125.691 694.598 125.973 695.184 126.535C695.77 127.092 696.062 127.985 696.062 129.216V135.5H694.604ZM703.138 135.676C701.714 135.676 700.589 135.242 699.763 134.375C698.942 133.508 698.532 132.304 698.532 130.763C698.532 129.21 698.913 127.977 699.675 127.062C700.442 126.148 701.471 125.691 702.76 125.691C703.967 125.691 704.922 126.09 705.625 126.887C706.328 127.678 706.68 128.724 706.68 130.024V130.947H700.044C700.073 132.078 700.357 132.937 700.896 133.522C701.441 134.108 702.206 134.401 703.19 134.401C704.228 134.401 705.253 134.185 706.267 133.751V135.052C705.751 135.274 705.262 135.433 704.799 135.526C704.342 135.626 703.788 135.676 703.138 135.676ZM702.742 126.913C701.969 126.913 701.351 127.165 700.888 127.669C700.431 128.173 700.161 128.87 700.079 129.761H705.115C705.115 128.841 704.91 128.138 704.5 127.651C704.09 127.159 703.504 126.913 702.742 126.913ZM715.1 135.5L714.81 134.129H714.739C714.259 134.732 713.778 135.143 713.298 135.359C712.823 135.57 712.229 135.676 711.514 135.676C710.559 135.676 709.809 135.43 709.264 134.938C708.725 134.445 708.455 133.745 708.455 132.837C708.455 130.892 710.011 129.872 713.122 129.778L714.757 129.726V129.128C714.757 128.372 714.593 127.815 714.265 127.458C713.942 127.095 713.424 126.913 712.709 126.913C711.906 126.913 710.998 127.159 709.984 127.651L709.536 126.535C710.011 126.277 710.529 126.075 711.092 125.929C711.66 125.782 712.229 125.709 712.797 125.709C713.945 125.709 714.795 125.964 715.346 126.474C715.902 126.983 716.181 127.801 716.181 128.926V135.5H715.1ZM711.804 134.472C712.712 134.472 713.424 134.223 713.939 133.725C714.461 133.227 714.722 132.529 714.722 131.633V130.763L713.263 130.824C712.103 130.865 711.265 131.047 710.749 131.369C710.239 131.686 709.984 132.181 709.984 132.854C709.984 133.382 710.143 133.783 710.459 134.059C710.781 134.334 711.229 134.472 711.804 134.472ZM725.787 135.5V129.269C725.787 128.483 725.608 127.897 725.251 127.511C724.894 127.124 724.334 126.931 723.572 126.931C722.564 126.931 721.826 127.203 721.357 127.748C720.889 128.293 720.654 129.192 720.654 130.446V135.5H719.195V125.867H720.382L720.619 127.186H720.689C720.988 126.711 721.407 126.345 721.946 126.087C722.485 125.823 723.086 125.691 723.748 125.691C724.908 125.691 725.781 125.973 726.367 126.535C726.953 127.092 727.246 127.985 727.246 129.216V135.5H725.787ZM736.387 135.5H734.928V121.824H736.387V135.5ZM740.852 125.867V132.116C740.852 132.901 741.03 133.487 741.388 133.874C741.745 134.261 742.305 134.454 743.066 134.454C744.074 134.454 744.81 134.179 745.272 133.628C745.741 133.077 745.976 132.178 745.976 130.93V125.867H747.435V135.5H746.23L746.02 134.208H745.94C745.642 134.683 745.226 135.046 744.692 135.298C744.165 135.55 743.562 135.676 742.882 135.676C741.71 135.676 740.831 135.397 740.245 134.841C739.665 134.284 739.375 133.394 739.375 132.169V125.867H740.852ZM754.387 135.676C752.992 135.676 751.911 135.248 751.144 134.393C750.382 133.531 750.001 132.315 750.001 130.745C750.001 129.134 750.388 127.889 751.161 127.01C751.94 126.131 753.048 125.691 754.483 125.691C754.946 125.691 755.409 125.741 755.872 125.841C756.335 125.94 756.698 126.058 756.962 126.192L756.514 127.432C756.191 127.303 755.84 127.197 755.459 127.115C755.078 127.027 754.741 126.983 754.448 126.983C752.491 126.983 751.513 128.231 751.513 130.728C751.513 131.911 751.75 132.819 752.225 133.452C752.705 134.085 753.414 134.401 754.352 134.401C755.154 134.401 755.978 134.229 756.821 133.883V135.175C756.177 135.509 755.365 135.676 754.387 135.676ZM762.227 134.472C762.484 134.472 762.733 134.454 762.974 134.419C763.214 134.378 763.404 134.337 763.545 134.296V135.412C763.387 135.488 763.152 135.55 762.842 135.597C762.537 135.649 762.262 135.676 762.016 135.676C760.152 135.676 759.221 134.694 759.221 132.731V127.001H757.841V126.298L759.221 125.691L759.836 123.635H760.68V125.867H763.475V127.001H760.68V132.67C760.68 133.25 760.817 133.695 761.093 134.006C761.368 134.316 761.746 134.472 762.227 134.472ZM766.85 125.867V132.116C766.85 132.901 767.028 133.487 767.386 133.874C767.743 134.261 768.303 134.454 769.064 134.454C770.072 134.454 770.808 134.179 771.271 133.628C771.739 133.077 771.974 132.178 771.974 130.93V125.867H773.433V135.5H772.229L772.018 134.208H771.938C771.64 134.683 771.224 135.046 770.69 135.298C770.163 135.55 769.56 135.676 768.88 135.676C767.708 135.676 766.829 135.397 766.243 134.841C765.663 134.284 765.373 133.394 765.373 132.169V125.867H766.85ZM782.749 132.872C782.749 133.769 782.415 134.46 781.747 134.946C781.079 135.433 780.142 135.676 778.935 135.676C777.657 135.676 776.661 135.474 775.946 135.069V133.716C776.409 133.95 776.904 134.135 777.432 134.27C777.965 134.404 778.478 134.472 778.97 134.472C779.731 134.472 780.317 134.352 780.728 134.111C781.138 133.865 781.343 133.493 781.343 132.995C781.343 132.62 781.179 132.301 780.851 132.037C780.528 131.768 779.896 131.451 778.952 131.088C778.056 130.754 777.417 130.464 777.036 130.218C776.661 129.966 776.38 129.682 776.192 129.365C776.011 129.049 775.92 128.671 775.92 128.231C775.92 127.446 776.239 126.828 776.878 126.377C777.517 125.92 778.393 125.691 779.506 125.691C780.543 125.691 781.557 125.902 782.547 126.324L782.028 127.511C781.062 127.112 780.186 126.913 779.4 126.913C778.709 126.913 778.188 127.021 777.836 127.238C777.484 127.455 777.309 127.754 777.309 128.135C777.309 128.393 777.373 128.612 777.502 128.794C777.637 128.976 777.851 129.148 778.144 129.312C778.437 129.477 778.999 129.714 779.831 130.024C780.974 130.44 781.744 130.859 782.143 131.281C782.547 131.703 782.749 132.233 782.749 132.872ZM795.73 135.5L795.44 134.129H795.37C794.89 134.732 794.409 135.143 793.929 135.359C793.454 135.57 792.859 135.676 792.145 135.676C791.189 135.676 790.439 135.43 789.895 134.938C789.355 134.445 789.086 133.745 789.086 132.837C789.086 130.892 790.642 129.872 793.753 129.778L795.388 129.726V129.128C795.388 128.372 795.224 127.815 794.896 127.458C794.573 127.095 794.055 126.913 793.34 126.913C792.537 126.913 791.629 127.159 790.615 127.651L790.167 126.535C790.642 126.277 791.16 126.075 791.723 125.929C792.291 125.782 792.859 125.709 793.428 125.709C794.576 125.709 795.426 125.964 795.977 126.474C796.533 126.983 796.812 127.801 796.812 128.926V135.5H795.73ZM792.435 134.472C793.343 134.472 794.055 134.223 794.57 133.725C795.092 133.227 795.353 132.529 795.353 131.633V130.763L793.894 130.824C792.733 130.865 791.896 131.047 791.38 131.369C790.87 131.686 790.615 132.181 790.615 132.854C790.615 133.382 790.773 133.783 791.09 134.059C791.412 134.334 791.86 134.472 792.435 134.472ZM804.221 125.691C804.648 125.691 805.032 125.727 805.372 125.797L805.17 127.15C804.771 127.062 804.42 127.019 804.115 127.019C803.336 127.019 802.668 127.335 802.111 127.968C801.561 128.601 801.285 129.389 801.285 130.332V135.5H799.826V125.867H801.03L801.197 127.651H801.268C801.625 127.024 802.056 126.541 802.56 126.201C803.063 125.861 803.617 125.691 804.221 125.691ZM811.023 135.676C809.629 135.676 808.548 135.248 807.78 134.393C807.019 133.531 806.638 132.315 806.638 130.745C806.638 129.134 807.024 127.889 807.798 127.01C808.577 126.131 809.685 125.691 811.12 125.691C811.583 125.691 812.046 125.741 812.509 125.841C812.972 125.94 813.335 126.058 813.599 126.192L813.15 127.432C812.828 127.303 812.477 127.197 812.096 127.115C811.715 127.027 811.378 126.983 811.085 126.983C809.128 126.983 808.149 128.231 808.149 130.728C808.149 131.911 808.387 132.819 808.861 133.452C809.342 134.085 810.051 134.401 810.988 134.401C811.791 134.401 812.614 134.229 813.458 133.883V135.175C812.813 135.509 812.002 135.676 811.023 135.676ZM817.123 125.867V132.116C817.123 132.901 817.302 133.487 817.659 133.874C818.017 134.261 818.576 134.454 819.338 134.454C820.346 134.454 821.081 134.179 821.544 133.628C822.013 133.077 822.247 132.178 822.247 130.93V125.867H823.706V135.5H822.502L822.291 134.208H822.212C821.913 134.683 821.497 135.046 820.964 135.298C820.437 135.55 819.833 135.676 819.153 135.676C817.981 135.676 817.103 135.397 816.517 134.841C815.937 134.284 815.646 133.394 815.646 132.169V125.867H817.123ZM837.698 132.872C837.698 133.769 837.364 134.46 836.696 134.946C836.028 135.433 835.091 135.676 833.884 135.676C832.606 135.676 831.61 135.474 830.896 135.069V133.716C831.358 133.95 831.854 134.135 832.381 134.27C832.914 134.404 833.427 134.472 833.919 134.472C834.681 134.472 835.267 134.352 835.677 134.111C836.087 133.865 836.292 133.493 836.292 132.995C836.292 132.62 836.128 132.301 835.8 132.037C835.478 131.768 834.845 131.451 833.901 131.088C833.005 130.754 832.366 130.464 831.985 130.218C831.61 129.966 831.329 129.682 831.142 129.365C830.96 129.049 830.869 128.671 830.869 128.231C830.869 127.446 831.188 126.828 831.827 126.377C832.466 125.92 833.342 125.691 834.455 125.691C835.492 125.691 836.506 125.902 837.496 126.324L836.978 127.511C836.011 127.112 835.135 126.913 834.35 126.913C833.658 126.913 833.137 127.021 832.785 127.238C832.434 127.455 832.258 127.754 832.258 128.135C832.258 128.393 832.322 128.612 832.451 128.794C832.586 128.976 832.8 129.148 833.093 129.312C833.386 129.477 833.948 129.714 834.78 130.024C835.923 130.44 836.693 130.859 837.092 131.281C837.496 131.703 837.698 132.233 837.698 132.872ZM846.004 135.5L845.714 134.129H845.644C845.163 134.732 844.683 135.143 844.202 135.359C843.728 135.57 843.133 135.676 842.418 135.676C841.463 135.676 840.713 135.43 840.168 134.938C839.629 134.445 839.359 133.745 839.359 132.837C839.359 130.892 840.915 129.872 844.026 129.778L845.661 129.726V129.128C845.661 128.372 845.497 127.815 845.169 127.458C844.847 127.095 844.328 126.913 843.613 126.913C842.811 126.913 841.902 127.159 840.889 127.651L840.44 126.535C840.915 126.277 841.434 126.075 841.996 125.929C842.564 125.782 843.133 125.709 843.701 125.709C844.85 125.709 845.699 125.964 846.25 126.474C846.807 126.983 847.085 127.801 847.085 128.926V135.5H846.004ZM842.708 134.472C843.616 134.472 844.328 134.223 844.844 133.725C845.365 133.227 845.626 132.529 845.626 131.633V130.763L844.167 130.824C843.007 130.865 842.169 131.047 841.653 131.369C841.144 131.686 840.889 132.181 840.889 132.854C840.889 133.382 841.047 133.783 841.363 134.059C841.686 134.334 842.134 134.472 842.708 134.472ZM854.582 135.676C853.955 135.676 853.381 135.562 852.859 135.333C852.344 135.099 851.91 134.741 851.559 134.261H851.453C851.523 134.823 851.559 135.356 851.559 135.86V139.824H850.1V125.867H851.286L851.488 127.186H851.559C851.934 126.658 852.37 126.277 852.868 126.043C853.366 125.809 853.938 125.691 854.582 125.691C855.859 125.691 856.844 126.128 857.535 127.001C858.232 127.874 858.581 129.099 858.581 130.675C858.581 132.257 858.227 133.487 857.518 134.366C856.814 135.239 855.836 135.676 854.582 135.676ZM854.371 126.931C853.387 126.931 852.675 127.203 852.235 127.748C851.796 128.293 851.57 129.16 851.559 130.35V130.675C851.559 132.028 851.784 132.998 852.235 133.584C852.687 134.164 853.41 134.454 854.406 134.454C855.238 134.454 855.889 134.117 856.357 133.443C856.832 132.77 857.069 131.841 857.069 130.657C857.069 129.456 856.832 128.536 856.357 127.897C855.889 127.253 855.227 126.931 854.371 126.931ZM862.598 135.5H861.139V125.867H862.598V135.5ZM861.016 123.257C861.016 122.923 861.098 122.68 861.262 122.527C861.426 122.369 861.631 122.29 861.877 122.29C862.111 122.29 862.313 122.369 862.483 122.527C862.653 122.686 862.738 122.929 862.738 123.257C862.738 123.585 862.653 123.831 862.483 123.995C862.313 124.153 862.111 124.232 861.877 124.232C861.631 124.232 861.426 124.153 861.262 123.995C861.098 123.831 861.016 123.585 861.016 123.257ZM869.761 135.676C868.337 135.676 867.212 135.242 866.386 134.375C865.565 133.508 865.155 132.304 865.155 130.763C865.155 129.21 865.536 127.977 866.298 127.062C867.065 126.148 868.094 125.691 869.383 125.691C870.59 125.691 871.545 126.09 872.248 126.887C872.951 127.678 873.303 128.724 873.303 130.024V130.947H866.667C866.696 132.078 866.98 132.937 867.52 133.522C868.064 134.108 868.829 134.401 869.813 134.401C870.851 134.401 871.876 134.185 872.89 133.751V135.052C872.374 135.274 871.885 135.433 871.422 135.526C870.965 135.626 870.411 135.676 869.761 135.676ZM869.365 126.913C868.592 126.913 867.974 127.165 867.511 127.669C867.054 128.173 866.784 128.87 866.702 129.761H871.738C871.738 128.841 871.533 128.138 871.123 127.651C870.713 127.159 870.127 126.913 869.365 126.913ZM882.391 135.5V129.269C882.391 128.483 882.212 127.897 881.854 127.511C881.497 127.124 880.938 126.931 880.176 126.931C879.168 126.931 878.43 127.203 877.961 127.748C877.492 128.293 877.258 129.192 877.258 130.446V135.5H875.799V125.867H876.985L877.223 127.186H877.293C877.592 126.711 878.011 126.345 878.55 126.087C879.089 125.823 879.689 125.691 880.352 125.691C881.512 125.691 882.385 125.973 882.971 126.535C883.557 127.092 883.85 127.985 883.85 129.216V135.5H882.391ZM888.385 133.408L888.517 133.61C888.364 134.196 888.145 134.876 887.857 135.649C887.57 136.429 887.271 137.152 886.961 137.82H885.862C886.021 137.211 886.193 136.458 886.381 135.562C886.574 134.665 886.709 133.947 886.785 133.408H888.385ZM902.157 132.872C902.157 133.769 901.823 134.46 901.155 134.946C900.487 135.433 899.55 135.676 898.343 135.676C897.065 135.676 896.069 135.474 895.354 135.069V133.716C895.817 133.95 896.312 134.135 896.84 134.27C897.373 134.404 897.886 134.472 898.378 134.472C899.14 134.472 899.726 134.352 900.136 134.111C900.546 133.865 900.751 133.493 900.751 132.995C900.751 132.62 900.587 132.301 900.259 132.037C899.937 131.768 899.304 131.451 898.36 131.088C897.464 130.754 896.825 130.464 896.444 130.218C896.069 129.966 895.788 129.682 895.601 129.365C895.419 129.049 895.328 128.671 895.328 128.231C895.328 127.446 895.647 126.828 896.286 126.377C896.925 125.92 897.801 125.691 898.914 125.691C899.951 125.691 900.965 125.902 901.955 126.324L901.437 127.511C900.47 127.112 899.594 126.913 898.809 126.913C898.117 126.913 897.596 127.021 897.244 127.238C896.893 127.455 896.717 127.754 896.717 128.135C896.717 128.393 896.781 128.612 896.91 128.794C897.045 128.976 897.259 129.148 897.552 129.312C897.845 129.477 898.407 129.714 899.239 130.024C900.382 130.44 901.152 130.859 901.551 131.281C901.955 131.703 902.157 132.233 902.157 132.872ZM908.608 135.676C907.185 135.676 906.06 135.242 905.233 134.375C904.413 133.508 904.003 132.304 904.003 130.763C904.003 129.21 904.384 127.977 905.146 127.062C905.913 126.148 906.941 125.691 908.23 125.691C909.438 125.691 910.393 126.09 911.096 126.887C911.799 127.678 912.15 128.724 912.15 130.024V130.947H905.515C905.544 132.078 905.828 132.937 906.367 133.522C906.912 134.108 907.677 134.401 908.661 134.401C909.698 134.401 910.724 134.185 911.737 133.751V135.052C911.222 135.274 910.732 135.433 910.27 135.526C909.812 135.626 909.259 135.676 908.608 135.676ZM908.213 126.913C907.439 126.913 906.821 127.165 906.358 127.669C905.901 128.173 905.632 128.87 905.55 129.761H910.586C910.586 128.841 910.381 128.138 909.971 127.651C909.561 127.159 908.975 126.913 908.213 126.913ZM921.203 134.208H921.124C920.45 135.187 919.442 135.676 918.101 135.676C916.841 135.676 915.859 135.245 915.156 134.384C914.459 133.522 914.11 132.298 914.11 130.71C914.11 129.122 914.462 127.889 915.165 127.01C915.868 126.131 916.847 125.691 918.101 125.691C919.407 125.691 920.409 126.166 921.106 127.115H921.221L921.159 126.421L921.124 125.744V121.824H922.583V135.5H921.396L921.203 134.208ZM918.285 134.454C919.281 134.454 920.002 134.185 920.447 133.646C920.898 133.101 921.124 132.225 921.124 131.018V130.71C921.124 129.345 920.896 128.372 920.438 127.792C919.987 127.206 919.264 126.913 918.268 126.913C917.412 126.913 916.756 127.247 916.299 127.915C915.848 128.577 915.622 129.515 915.622 130.728C915.622 131.958 915.848 132.887 916.299 133.514C916.75 134.141 917.412 134.454 918.285 134.454ZM201.616 159.676C200.192 159.676 199.067 159.242 198.241 158.375C197.421 157.508 197.011 156.304 197.011 154.763C197.011 153.21 197.392 151.977 198.153 151.062C198.921 150.148 199.949 149.691 201.238 149.691C202.445 149.691 203.4 150.09 204.104 150.887C204.807 151.678 205.158 152.724 205.158 154.024V154.947H198.522C198.552 156.078 198.836 156.937 199.375 157.522C199.92 158.108 200.685 158.401 201.669 158.401C202.706 158.401 203.731 158.185 204.745 157.751V159.052C204.229 159.274 203.74 159.433 203.277 159.526C202.82 159.626 202.267 159.676 201.616 159.676ZM201.221 150.913C200.447 150.913 199.829 151.165 199.366 151.669C198.909 152.173 198.64 152.87 198.558 153.761H203.594C203.594 152.841 203.389 152.138 202.979 151.651C202.568 151.159 201.982 150.913 201.221 150.913ZM209.113 159.5H207.654V145.824H209.113V159.5ZM216.276 159.676C214.853 159.676 213.728 159.242 212.901 158.375C212.081 157.508 211.671 156.304 211.671 154.763C211.671 153.21 212.052 151.977 212.813 151.062C213.581 150.148 214.609 149.691 215.898 149.691C217.105 149.691 218.061 150.09 218.764 150.887C219.467 151.678 219.818 152.724 219.818 154.024V154.947H213.183C213.212 156.078 213.496 156.937 214.035 157.522C214.58 158.108 215.345 158.401 216.329 158.401C217.366 158.401 218.392 158.185 219.405 157.751V159.052C218.89 159.274 218.4 159.433 217.938 159.526C217.48 159.626 216.927 159.676 216.276 159.676ZM215.881 150.913C215.107 150.913 214.489 151.165 214.026 151.669C213.569 152.173 213.3 152.87 213.218 153.761H218.254C218.254 152.841 218.049 152.138 217.639 151.651C217.229 151.159 216.643 150.913 215.881 150.913ZM234.593 159.5V153.233C234.593 152.466 234.429 151.892 234.101 151.511C233.772 151.124 233.263 150.931 232.571 150.931C231.663 150.931 230.992 151.191 230.559 151.713C230.125 152.234 229.908 153.037 229.908 154.121V159.5H228.449V153.233C228.449 152.466 228.285 151.892 227.957 151.511C227.629 151.124 227.116 150.931 226.419 150.931C225.505 150.931 224.834 151.206 224.406 151.757C223.984 152.302 223.773 153.198 223.773 154.446V159.5H222.314V149.867H223.501L223.738 151.186H223.809C224.084 150.717 224.471 150.351 224.969 150.087C225.473 149.823 226.035 149.691 226.656 149.691C228.162 149.691 229.146 150.236 229.609 151.326H229.68C229.967 150.822 230.383 150.424 230.928 150.131C231.473 149.838 232.094 149.691 232.791 149.691C233.881 149.691 234.695 149.973 235.234 150.535C235.779 151.092 236.052 151.985 236.052 153.216V159.5H234.593ZM243.136 159.676C241.712 159.676 240.587 159.242 239.761 158.375C238.94 157.508 238.53 156.304 238.53 154.763C238.53 153.21 238.911 151.977 239.673 151.062C240.44 150.148 241.469 149.691 242.758 149.691C243.965 149.691 244.92 150.09 245.623 150.887C246.326 151.678 246.678 152.724 246.678 154.024V154.947H240.042C240.071 156.078 240.355 156.937 240.895 157.522C241.439 158.108 242.204 158.401 243.188 158.401C244.226 158.401 245.251 158.185 246.265 157.751V159.052C245.749 159.274 245.26 159.433 244.797 159.526C244.34 159.626 243.786 159.676 243.136 159.676ZM242.74 150.913C241.967 150.913 241.349 151.165 240.886 151.669C240.429 152.173 240.159 152.87 240.077 153.761H245.113C245.113 152.841 244.908 152.138 244.498 151.651C244.088 151.159 243.502 150.913 242.74 150.913ZM255.766 159.5V153.269C255.766 152.483 255.587 151.897 255.229 151.511C254.872 151.124 254.312 150.931 253.551 150.931C252.543 150.931 251.805 151.203 251.336 151.748C250.867 152.293 250.633 153.192 250.633 154.446V159.5H249.174V149.867H250.36L250.598 151.186H250.668C250.967 150.711 251.386 150.345 251.925 150.087C252.464 149.823 253.064 149.691 253.727 149.691C254.887 149.691 255.76 149.973 256.346 150.535C256.932 151.092 257.225 151.985 257.225 153.216V159.5H255.766ZM263.342 158.472C263.6 158.472 263.849 158.454 264.089 158.419C264.329 158.378 264.52 158.337 264.66 158.296V159.412C264.502 159.488 264.268 159.55 263.957 159.597C263.652 159.649 263.377 159.676 263.131 159.676C261.268 159.676 260.336 158.694 260.336 156.731V151.001H258.956V150.298L260.336 149.691L260.951 147.635H261.795V149.867H264.59V151.001H261.795V156.67C261.795 157.25 261.933 157.695 262.208 158.006C262.483 158.316 262.861 158.472 263.342 158.472ZM267.965 149.867V156.116C267.965 156.901 268.144 157.487 268.501 157.874C268.858 158.261 269.418 158.454 270.18 158.454C271.188 158.454 271.923 158.179 272.386 157.628C272.854 157.077 273.089 156.178 273.089 154.93V149.867H274.548V159.5H273.344L273.133 158.208H273.054C272.755 158.683 272.339 159.046 271.806 159.298C271.278 159.55 270.675 159.676 269.995 159.676C268.823 159.676 267.944 159.397 267.358 158.841C266.778 158.284 266.488 157.394 266.488 156.169V149.867H267.965ZM289.929 159.5V153.233C289.929 152.466 289.765 151.892 289.437 151.511C289.108 151.124 288.599 150.931 287.907 150.931C286.999 150.931 286.328 151.191 285.895 151.713C285.461 152.234 285.244 153.037 285.244 154.121V159.5H283.785V153.233C283.785 152.466 283.621 151.892 283.293 151.511C282.965 151.124 282.452 150.931 281.755 150.931C280.841 150.931 280.17 151.206 279.742 151.757C279.32 152.302 279.109 153.198 279.109 154.446V159.5H277.65V149.867H278.837L279.074 151.186H279.145C279.42 150.717 279.807 150.351 280.305 150.087C280.809 149.823 281.371 149.691 281.992 149.691C283.498 149.691 284.482 150.236 284.945 151.326H285.016C285.303 150.822 285.719 150.424 286.264 150.131C286.809 149.838 287.43 149.691 288.127 149.691C289.217 149.691 290.031 149.973 290.57 150.535C291.115 151.092 291.388 151.985 291.388 153.216V159.5H289.929ZM305.635 158.208H305.556C304.882 159.187 303.874 159.676 302.532 159.676C301.272 159.676 300.291 159.245 299.588 158.384C298.891 157.522 298.542 156.298 298.542 154.71C298.542 153.122 298.894 151.889 299.597 151.01C300.3 150.131 301.278 149.691 302.532 149.691C303.839 149.691 304.841 150.166 305.538 151.115H305.652L305.591 150.421L305.556 149.744V145.824H307.015V159.5H305.828L305.635 158.208ZM302.717 158.454C303.713 158.454 304.434 158.185 304.879 157.646C305.33 157.101 305.556 156.225 305.556 155.018V154.71C305.556 153.345 305.327 152.372 304.87 151.792C304.419 151.206 303.695 150.913 302.699 150.913C301.844 150.913 301.188 151.247 300.73 151.915C300.279 152.577 300.054 153.515 300.054 154.728C300.054 155.958 300.279 156.887 300.73 157.514C301.182 158.141 301.844 158.454 302.717 158.454ZM318.432 154.675C318.432 156.245 318.036 157.473 317.245 158.357C316.454 159.236 315.361 159.676 313.967 159.676C313.105 159.676 312.341 159.474 311.673 159.069C311.005 158.665 310.489 158.085 310.126 157.329C309.763 156.573 309.581 155.688 309.581 154.675C309.581 153.104 309.974 151.883 310.759 151.01C311.544 150.131 312.634 149.691 314.028 149.691C315.376 149.691 316.445 150.14 317.236 151.036C318.033 151.933 318.432 153.146 318.432 154.675ZM311.093 154.675C311.093 155.905 311.339 156.843 311.831 157.487C312.323 158.132 313.047 158.454 314.002 158.454C314.957 158.454 315.681 158.135 316.173 157.496C316.671 156.852 316.92 155.911 316.92 154.675C316.92 153.45 316.671 152.521 316.173 151.889C315.681 151.25 314.951 150.931 313.984 150.931C313.029 150.931 312.309 151.244 311.822 151.871C311.336 152.498 311.093 153.433 311.093 154.675ZM322.457 159.5H320.998V145.824H322.457V159.5ZM333.865 154.675C333.865 156.245 333.47 157.473 332.679 158.357C331.888 159.236 330.795 159.676 329.4 159.676C328.539 159.676 327.774 159.474 327.106 159.069C326.438 158.665 325.923 158.085 325.56 157.329C325.196 156.573 325.015 155.688 325.015 154.675C325.015 153.104 325.407 151.883 326.192 151.01C326.978 150.131 328.067 149.691 329.462 149.691C330.81 149.691 331.879 150.14 332.67 151.036C333.467 151.933 333.865 153.146 333.865 154.675ZM326.526 154.675C326.526 155.905 326.772 156.843 327.265 157.487C327.757 158.132 328.48 158.454 329.436 158.454C330.391 158.454 331.114 158.135 331.606 157.496C332.104 156.852 332.354 155.911 332.354 154.675C332.354 153.45 332.104 152.521 331.606 151.889C331.114 151.25 330.385 150.931 329.418 150.931C328.463 150.931 327.742 151.244 327.256 151.871C326.77 152.498 326.526 153.433 326.526 154.675ZM340.826 149.691C341.254 149.691 341.638 149.727 341.978 149.797L341.775 151.15C341.377 151.062 341.025 151.019 340.721 151.019C339.941 151.019 339.273 151.335 338.717 151.968C338.166 152.601 337.891 153.389 337.891 154.332V159.5H336.432V149.867H337.636L337.803 151.651H337.873C338.23 151.024 338.661 150.541 339.165 150.201C339.669 149.861 340.223 149.691 340.826 149.691ZM350.564 159.5L346.908 149.867H348.473L350.547 155.58C351.016 156.916 351.291 157.783 351.373 158.182H351.443C351.508 157.871 351.71 157.229 352.05 156.257C352.396 155.278 353.166 153.148 354.361 149.867H355.926L352.27 159.5H350.564ZM361.542 159.676C360.118 159.676 358.993 159.242 358.167 158.375C357.347 157.508 356.937 156.304 356.937 154.763C356.937 153.21 357.317 151.977 358.079 151.062C358.847 150.148 359.875 149.691 361.164 149.691C362.371 149.691 363.326 150.09 364.029 150.887C364.732 151.678 365.084 152.724 365.084 154.024V154.947H358.448C358.478 156.078 358.762 156.937 359.301 157.522C359.846 158.108 360.61 158.401 361.595 158.401C362.632 158.401 363.657 158.185 364.671 157.751V159.052C364.155 159.274 363.666 159.433 363.203 159.526C362.746 159.626 362.192 159.676 361.542 159.676ZM361.146 150.913C360.373 150.913 359.755 151.165 359.292 151.669C358.835 152.173 358.565 152.87 358.483 153.761H363.52C363.52 152.841 363.314 152.138 362.904 151.651C362.494 151.159 361.908 150.913 361.146 150.913ZM374.172 159.5V153.269C374.172 152.483 373.993 151.897 373.636 151.511C373.278 151.124 372.719 150.931 371.957 150.931C370.943 150.931 370.202 151.206 369.733 151.757C369.271 152.308 369.039 153.21 369.039 154.464V159.5H367.58V145.824H369.039V149.964C369.039 150.462 369.016 150.875 368.969 151.203H369.057C369.344 150.74 369.751 150.377 370.278 150.113C370.812 149.844 371.418 149.709 372.098 149.709C373.275 149.709 374.157 149.99 374.743 150.553C375.335 151.109 375.631 151.997 375.631 153.216V159.5H374.172ZM380.096 159.5H378.637V149.867H380.096V159.5ZM378.514 147.257C378.514 146.923 378.596 146.68 378.76 146.527C378.924 146.369 379.129 146.29 379.375 146.29C379.609 146.29 379.812 146.369 379.981 146.527C380.151 146.686 380.236 146.929 380.236 147.257C380.236 147.585 380.151 147.831 379.981 147.995C379.812 148.153 379.609 148.232 379.375 148.232C379.129 148.232 378.924 148.153 378.76 147.995C378.596 147.831 378.514 147.585 378.514 147.257ZM387.039 159.676C385.645 159.676 384.563 159.248 383.796 158.393C383.034 157.531 382.653 156.315 382.653 154.745C382.653 153.134 383.04 151.889 383.813 151.01C384.593 150.131 385.7 149.691 387.136 149.691C387.599 149.691 388.062 149.741 388.524 149.841C388.987 149.94 389.351 150.058 389.614 150.192L389.166 151.432C388.844 151.303 388.492 151.197 388.111 151.115C387.73 151.027 387.394 150.983 387.101 150.983C385.144 150.983 384.165 152.231 384.165 154.728C384.165 155.911 384.402 156.819 384.877 157.452C385.357 158.085 386.066 158.401 387.004 158.401C387.807 158.401 388.63 158.229 389.474 157.883V159.175C388.829 159.509 388.018 159.676 387.039 159.676ZM393.139 149.867V156.116C393.139 156.901 393.317 157.487 393.675 157.874C394.032 158.261 394.592 158.454 395.354 158.454C396.361 158.454 397.097 158.179 397.56 157.628C398.028 157.077 398.263 156.178 398.263 154.93V149.867H399.722V159.5H398.518L398.307 158.208H398.228C397.929 158.683 397.513 159.046 396.979 159.298C396.452 159.55 395.849 159.676 395.169 159.676C393.997 159.676 393.118 159.397 392.532 158.841C391.952 158.284 391.662 157.394 391.662 156.169V149.867H393.139ZM404.283 159.5H402.824V145.824H404.283V159.5Z" fill="#fff"/>
<rect x="515" y="190.5" width="200" height="56" rx="4" fill="#585C65"/>
<g clip-path="url(#clip0_6886_95579)">
<path d="M584.033 212.1L579.9 207.967L573.5 214.367L567.1 207.967L562.967 212.1L569.367 218.5L562.967 224.9L567.1 229.033L573.5 222.633L579.9 229.033L584.033 224.9L577.633 218.5L584.033 212.1Z" fill="#fff"/>
<path d="M606.606 214.341C605.353 214.341 604.383 214.813 603.695 215.759C603.008 216.697 602.664 218.007 602.664 219.69C602.664 223.192 603.978 224.943 606.606 224.943C607.709 224.943 609.045 224.668 610.613 224.116V226.909C609.324 227.446 607.885 227.715 606.295 227.715C604.01 227.715 602.263 227.024 601.053 225.642C599.842 224.252 599.237 222.261 599.237 219.669C599.237 218.036 599.535 216.607 600.129 215.383C600.723 214.151 601.576 213.209 602.686 212.558C603.803 211.899 605.11 211.569 606.606 211.569C608.132 211.569 609.664 211.938 611.204 212.676L610.13 215.383C609.543 215.104 608.952 214.86 608.357 214.652C607.763 214.445 607.179 214.341 606.606 214.341ZM621.584 227.5L620.95 225.867H620.864C620.313 226.562 619.743 227.045 619.156 227.317C618.576 227.582 617.817 227.715 616.879 227.715C615.726 227.715 614.816 227.385 614.15 226.727C613.492 226.068 613.162 225.13 613.162 223.912C613.162 222.637 613.606 221.699 614.494 221.098C615.389 220.489 616.736 220.152 618.533 220.088L620.617 220.023V219.497C620.617 218.28 619.994 217.671 618.748 217.671C617.788 217.671 616.66 217.961 615.364 218.541L614.279 216.328C615.661 215.605 617.194 215.243 618.877 215.243C620.488 215.243 621.724 215.594 622.583 216.296C623.442 216.998 623.872 218.065 623.872 219.497V227.5H621.584ZM620.617 221.936L619.35 221.979C618.397 222.007 617.688 222.179 617.223 222.494C616.757 222.809 616.524 223.289 616.524 223.934C616.524 224.857 617.054 225.319 618.114 225.319C618.873 225.319 619.479 225.101 619.93 224.664C620.388 224.227 620.617 223.647 620.617 222.924V221.936ZM638.592 227.5H635.315V220.485C635.315 219.619 635.161 218.971 634.854 218.541C634.546 218.104 634.055 217.886 633.382 217.886C632.465 217.886 631.803 218.194 631.395 218.81C630.986 219.418 630.782 220.432 630.782 221.85V227.5H627.506V215.49H630.009L630.449 217.026H630.632C630.997 216.446 631.498 216.009 632.136 215.716C632.78 215.415 633.511 215.265 634.327 215.265C635.724 215.265 636.784 215.644 637.507 216.403C638.23 217.155 638.592 218.244 638.592 219.669V227.5ZM647.092 227.715C643.354 227.715 641.484 225.663 641.484 221.56C641.484 219.519 641.993 217.961 643.01 216.887C644.027 215.805 645.484 215.265 647.382 215.265C648.771 215.265 650.017 215.537 651.12 216.081L650.153 218.616C649.638 218.409 649.158 218.24 648.714 218.111C648.27 217.975 647.826 217.907 647.382 217.907C645.677 217.907 644.825 219.118 644.825 221.538C644.825 223.887 645.677 225.062 647.382 225.062C648.012 225.062 648.596 224.979 649.133 224.814C649.67 224.643 650.207 224.378 650.744 224.02V226.823C650.214 227.16 649.677 227.393 649.133 227.521C648.596 227.65 647.915 227.715 647.092 227.715ZM658.761 217.596C658.066 217.596 657.522 217.818 657.128 218.262C656.734 218.699 656.508 219.322 656.451 220.131H661.049C661.035 219.322 660.823 218.699 660.415 218.262C660.007 217.818 659.455 217.596 658.761 217.596ZM659.223 227.715C657.289 227.715 655.778 227.181 654.689 226.114C653.601 225.047 653.057 223.536 653.057 221.581C653.057 219.569 653.558 218.015 654.561 216.919C655.57 215.816 656.963 215.265 658.739 215.265C660.437 215.265 661.758 215.748 662.703 216.715C663.648 217.682 664.121 219.017 664.121 220.722V222.312H656.376C656.412 223.243 656.688 223.969 657.203 224.492C657.719 225.015 658.442 225.276 659.373 225.276C660.096 225.276 660.78 225.201 661.425 225.051C662.069 224.9 662.743 224.66 663.444 224.331V226.866C662.871 227.153 662.259 227.364 661.607 227.5C660.956 227.643 660.161 227.715 659.223 227.715ZM670.312 227.5H667.035V210.785H670.312V227.5Z" fill="#fff"/>
</g>
<rect x="731" y="190.5" width="200" height="56" rx="4" fill="#0063A3"/>
<g clip-path="url(#clip1_6886_95579)">
<path d="M785.267 228.433L783.067 226.233L780.933 224.1L778.733 221.9L776.6 219.767L777.467 218.833L778.4 217.9L779.333 217.033L780.267 216.1L781.467 217.367L782.733 218.567L784 219.833L785.267 221.1L788.4 217.967L791.533 214.833L794.667 211.7L797.733 208.567L798.667 209.5L799.6 210.433L800.533 211.3L801.4 212.233L797.4 216.3L793.333 220.367L789.267 224.367L785.267 228.433Z" fill="#fff"/>
<path d="M824.809 227.5L823.67 223.762H817.944L816.806 227.5H813.218L818.761 211.73H822.832L828.396 227.5H824.809ZM822.875 220.969C821.822 217.581 821.228 215.666 821.092 215.222C820.963 214.778 820.87 214.427 820.812 214.169C820.576 215.086 819.899 217.352 818.782 220.969H822.875ZM835.253 227.715C831.515 227.715 829.646 225.663 829.646 221.56C829.646 219.519 830.154 217.961 831.171 216.887C832.188 215.805 833.645 215.265 835.543 215.265C836.932 215.265 838.178 215.537 839.281 216.081L838.314 218.616C837.799 218.409 837.319 218.24 836.875 218.111C836.431 217.975 835.987 217.907 835.543 217.907C833.839 217.907 832.986 219.118 832.986 221.538C832.986 223.887 833.839 225.062 835.543 225.062C836.173 225.062 836.757 224.979 837.294 224.814C837.831 224.643 838.368 224.378 838.905 224.02V226.823C838.375 227.16 837.838 227.393 837.294 227.521C836.757 227.65 836.076 227.715 835.253 227.715ZM846.825 227.715C843.087 227.715 841.218 225.663 841.218 221.56C841.218 219.519 841.726 217.961 842.743 216.887C843.76 215.805 845.217 215.265 847.115 215.265C848.505 215.265 849.751 215.537 850.854 216.081L849.887 218.616C849.371 218.409 848.891 218.24 848.447 218.111C848.003 217.975 847.559 217.907 847.115 217.907C845.411 217.907 844.559 219.118 844.559 221.538C844.559 223.887 845.411 225.062 847.115 225.062C847.745 225.062 848.329 224.979 848.866 224.814C849.403 224.643 849.94 224.378 850.478 224.02V226.823C849.948 227.16 849.41 227.393 848.866 227.521C848.329 227.65 847.649 227.715 846.825 227.715ZM858.494 217.596C857.799 217.596 857.255 217.818 856.861 218.262C856.467 218.699 856.242 219.322 856.185 220.131H860.782C860.768 219.322 860.557 218.699 860.148 218.262C859.74 217.818 859.189 217.596 858.494 217.596ZM858.956 227.715C857.022 227.715 855.511 227.181 854.423 226.114C853.334 225.047 852.79 223.536 852.79 221.581C852.79 219.569 853.291 218.015 854.294 216.919C855.304 215.816 856.697 215.265 858.473 215.265C860.17 215.265 861.491 215.748 862.437 216.715C863.382 217.682 863.854 219.017 863.854 220.722V222.312H856.109C856.145 223.243 856.421 223.969 856.937 224.492C857.452 225.015 858.175 225.276 859.106 225.276C859.83 225.276 860.514 225.201 861.158 225.051C861.803 224.9 862.476 224.66 863.178 224.331V226.866C862.605 227.153 861.993 227.364 861.341 227.5C860.689 227.643 859.894 227.715 858.956 227.715ZM873.364 227.715C871.953 227.715 870.847 227.203 870.045 226.179H869.873C869.988 227.181 870.045 227.761 870.045 227.919V232.785H866.769V215.49H869.433L869.895 217.048H870.045C870.811 215.859 871.946 215.265 873.45 215.265C874.868 215.265 875.978 215.812 876.78 216.908C877.582 218.004 877.983 219.526 877.983 221.474C877.983 222.756 877.794 223.869 877.414 224.814C877.042 225.76 876.508 226.479 875.813 226.974C875.119 227.468 874.302 227.715 873.364 227.715ZM872.397 217.886C871.588 217.886 870.997 218.136 870.625 218.638C870.253 219.132 870.059 219.952 870.045 221.098V221.452C870.045 222.741 870.235 223.665 870.614 224.224C871.001 224.782 871.61 225.062 872.44 225.062C873.909 225.062 874.643 223.851 874.643 221.431C874.643 220.249 874.46 219.365 874.095 218.777C873.737 218.183 873.171 217.886 872.397 217.886ZM886 225.104C886.573 225.104 887.26 224.979 888.062 224.729V227.167C887.246 227.532 886.243 227.715 885.055 227.715C883.744 227.715 882.788 227.385 882.187 226.727C881.592 226.061 881.295 225.065 881.295 223.74V217.95H879.727V216.564L881.531 215.469L882.477 212.934H884.571V215.49H887.934V217.95H884.571V223.74C884.571 224.206 884.7 224.549 884.958 224.771C885.223 224.993 885.57 225.104 886 225.104Z" fill="#fff"/>
</g>
<rect x="96" y="41.5" width="859" height="229" rx="7" stroke="#585C65" stroke-width="2"/>
</g>
<defs>
<filter id="filter0_ddd_6886_95579" x="77" y="26.5" width="897" height="269" filterUnits="userSpaceOnUse" color-interpolation-filters="sRGB">
<feFlood flood-opacity="0" result="BackgroundImageFix"/>
<feColorMatrix in="SourceAlpha" type="matrix" values="0 0 0 0 0 0 0 0 0 0 0 0 0 0 0 0 0 0 127 0" result="hardAlpha"/>
<feOffset dy="4"/>
<feGaussianBlur stdDeviation="9"/>
<feColorMatrix type="matrix" values="0 0 0 0 0 0 0 0 0 0 0 0 0 0 0 0 0 0 0.12 0"/>
<feBlend mode="normal" in2="BackgroundImageFix" result="effect1_dropShadow_6886_95579"/>
<feColorMatrix in="SourceAlpha" type="matrix" values="0 0 0 0 0 0 0 0 0 0 0 0 0 0 0 0 0 0 127 0" result="hardAlpha"/>
<feOffset dy="10"/>
<feGaussianBlur stdDeviation="7"/>
<feColorMatrix type="matrix" values="0 0 0 0 0 0 0 0 0 0 0 0 0 0 0 0 0 0 0.14 0"/>
<feBlend mode="normal" in2="effect1_dropShadow_6886_95579" result="effect2_dropShadow_6886_95579"/>
<feColorMatrix in="SourceAlpha" type="matrix" values="0 0 0 0 0 0 0 0 0 0 0 0 0 0 0 0 0 0 127 0" result="hardAlpha"/>
<feOffset dy="6"/>
<feGaussianBlur stdDeviation="3"/>
<feColorMatrix type="matrix" values="0 0 0 0 0 0 0 0 0 0 0 0 0 0 0 0 0 0 0.2 0"/>
<feBlend mode="normal" in2="effect2_dropShadow_6886_95579" result="effect3_dropShadow_6886_95579"/>
<feBlend mode="normal" in="SourceGraphic" in2="effect3_dropShadow_6886_95579" result="shape"/>
</filter>
<clipPath id="clip0_6886_95579">
<rect width="115" height="32" fill="#fff" transform="translate(557.5 202.5)"/>
</clipPath>
<clipPath id="clip1_6886_95579">
<rect width="116" height="32" fill="#fff" transform="translate(773 202.5)"/>
</clipPath>
</defs>
</svg>
