<svg width="1087" height="370" fill="none" xmlns="http://www.w3.org/2000/svg"><path fill="#353A40" d="M0 .322h1087v369.16H0z"/><g clip-path="url(#prefix__clip0_6886_96836)"><path fill="#202020" d="M256.25 22.37h574.5v325.065h-574.5z"/><g clip-path="url(#prefix__clip1_6886_96836)"><path fill="#fff" d="M256.25 22.37h574.5v37.064h-574.5z"/><path fill="#000" d="M256.25 22.37h574.5v37.064h-574.5z"/><path d="M268.854 45.35h11.942v-1.326h-11.942v1.327zm0-3.316h11.942v-1.327h-11.942v1.327zm0-4.644v1.327h11.942V37.39h-11.942zM300.312 35.662c-.273 0-.532.054-.767.152a.463.463 0 11-.355-.855 2.924 2.924 0 011.122-.223h.926a.463.463 0 010 .926h-.926zM302.626 35.2c0-.256.208-.464.463-.464h1.851a.463.463 0 110 .926h-1.851a.463.463 0 01-.463-.463zM306.329 35.2c0-.256.207-.464.463-.464h.925c.397 0 .776.08 1.123.223a.463.463 0 11-.355.855 2 2 0 00-.768-.152h-.925a.463.463 0 01-.463-.463zM298.208 36.295a.464.464 0 01.251.605 1.995 1.995 0 00-.152.768v.925a.463.463 0 01-.926 0v-.925c0-.397.079-.776.222-1.123a.463.463 0 01.605-.25zM309.821 36.295a.463.463 0 01.605.25c.144.347.223.726.223 1.123v.925a.463.463 0 11-.926 0v-.925c0-.273-.054-.532-.152-.768a.463.463 0 01.25-.605zM297.844 39.982c.255 0 .463.207.463.463v1.851a.463.463 0 01-.926 0v-1.851c0-.256.207-.463.463-.463zM310.186 39.982c.256 0 .463.207.463.463v1.851a.463.463 0 11-.926 0v-1.851c0-.256.207-.463.463-.463zM297.844 43.685c.255 0 .463.207.463.462v.926c0 .273.054.532.152.768a.464.464 0 01-.856.354 2.935 2.935 0 01-.222-1.122v-.926c0-.255.207-.462.463-.462zM310.186 43.685c.256 0 .463.207.463.462v.926c0 .397-.079.776-.223 1.122a.463.463 0 01-.855-.354c.098-.236.152-.495.152-.768v-.926c0-.255.207-.462.463-.462zM298.94 47.177a.463.463 0 01.605-.25c.235.098.494.152.767.152h.926a.463.463 0 010 .925h-.926c-.396 0-.776-.079-1.122-.222a.463.463 0 01-.25-.605zM309.09 47.177a.463.463 0 01-.25.605 2.93 2.93 0 01-1.123.222h-.925a.463.463 0 110-.925h.925a2 2 0 00.768-.152.463.463 0 01.605.25zM302.626 47.541c0-.255.208-.462.463-.462h1.851a.463.463 0 110 .925h-1.851a.463.463 0 01-.463-.462zM309.279 36.798a.462.462 0 10-.655-.654l-.614.614a.462.462 0 10.654.655l.615-.615zM307.435 38.642a.464.464 0 00-.655-.654l-1.229 1.23a.462.462 0 10.654.654l1.23-1.23zM304.976 41.102a.464.464 0 00-.655-.655l-.306.306-.306-.306a.463.463 0 00-.655.655l.306.306-.269.269a.463.463 0 00.655.655l.269-.27.269.27a.462.462 0 10.654-.655l-.269-.27.307-.305zM302.516 43.56a.462.462 0 10-.654-.654l-1.23 1.23a.464.464 0 00.655.654l1.229-1.23zM300.057 46.02a.462.462 0 10-.654-.655l-.615.615a.462.462 0 10.655.655l.614-.615zM308.587 46.635a.463.463 0 00.655-.655l-.615-.615a.463.463 0 00-.655.655l.615.615zM306.743 44.79a.462.462 0 10.654-.654l-1.229-1.23a.463.463 0 00-.655.655l1.23 1.23zM301.825 39.872a.462.462 0 10.654-.654l-1.229-1.23a.463.463 0 00-.655.654l1.23 1.23zM299.365 37.413a.463.463 0 00.655-.655l-.615-.614a.462.462 0 10-.654.654l.614.615zM302.198 38.216c.184-.055.379-.085.583-.085h.462a.463.463 0 100-.926h-.462c-.296 0-.582.044-.851.126a.463.463 0 10.268.885zM304.786 37.205a.463.463 0 000 .926h.463c.203 0 .399.03.583.085a.463.463 0 00.268-.886 2.932 2.932 0 00-.851-.125h-.463zM300.861 39.554a.463.463 0 10-.886-.269c-.082.27-.126.556-.126.851v.463a.463.463 0 00.926 0v-.463c0-.203.03-.399.086-.582zM308.055 39.285a.463.463 0 00-.886.269c.056.183.086.379.086.582v.463a.462.462 0 10.925 0v-.463c0-.295-.043-.58-.125-.85zM300.775 42.142a.463.463 0 10-.926 0v.463c0 .295.044.58.126.85a.462.462 0 10.886-.268 1.995 1.995 0 01-.086-.582v-.463zM308.18 42.142a.463.463 0 10-.925 0v.463c0 .203-.03.398-.086.582a.463.463 0 10.886.269c.082-.27.125-.556.125-.851v-.463zM302.198 44.524a.463.463 0 10-.268.886c.269.082.555.126.851.126h.462a.463.463 0 100-.926h-.462c-.204 0-.399-.03-.583-.086zM306.1 45.41a.463.463 0 10-.268-.886 2.01 2.01 0 01-.583.086h-.463a.463.463 0 000 .926h.463c.295 0 .581-.044.851-.126z" fill="#fff"/></g><path fill="#fff" d="M267.277 67.663h551.945v43.121H267.277z"/><path d="M279.324 94.724V84.305h1.211v9.321h4.597v1.098h-5.808zm8.753 0h-1.183v-7.81h1.183v7.81zm-1.283-9.927c0-.271.067-.468.2-.592a.69.69 0 01.499-.192c.19 0 .354.064.491.192.138.129.207.326.207.592 0 .266-.069.465-.207.598a.694.694 0 01-.491.193.69.69 0 01-.499-.193c-.133-.133-.2-.332-.2-.598zm8.996 7.796c0 .727-.271 1.287-.813 1.682-.541.394-1.301.591-2.28.591-1.036 0-1.843-.164-2.423-.492v-1.097c.375.19.777.34 1.204.449.433.11.848.164 1.247.164.618 0 1.093-.097 1.426-.292.332-.2.498-.501.498-.905 0-.304-.133-.563-.399-.777-.261-.219-.774-.475-1.539-.77-.727-.27-1.245-.506-1.553-.705a2.202 2.202 0 01-.685-.692c-.147-.256-.22-.563-.22-.919 0-.636.258-1.138.776-1.504.518-.37 1.228-.555 2.131-.555.841 0 1.663.17 2.466.513l-.421.962c-.784-.323-1.494-.485-2.13-.485-.561 0-.984.088-1.269.264-.285.176-.428.418-.428.727 0 .209.053.387.157.534.11.147.283.288.52.42.238.134.694.326 1.369.578.926.337 1.551.677 1.874 1.019.328.342.492.772.492 1.29zm4.619 1.297c.209 0 .411-.014.606-.043.195-.033.349-.066.463-.1v.905a2.094 2.094 0 01-.57.15c-.247.043-.47.064-.67.064-1.51 0-2.266-.796-2.266-2.387v-4.647h-1.119v-.57l1.119-.491.499-1.668h.684v1.81h2.266v.92h-2.266v4.596c0 .47.112.831.335 1.083.223.252.53.378.919.378zm6.938.834V84.305h1.212v10.419h-1.212zm6.587-.834c.209 0 .411-.014.606-.043.194-.033.349-.066.463-.1v.905a2.094 2.094 0 01-.57.15 3.965 3.965 0 01-.67.064c-1.511 0-2.266-.796-2.266-2.387v-4.647h-1.119v-.57l1.119-.491.499-1.668h.684v1.81h2.266v.92h-2.266v4.596c0 .47.111.831.335 1.083.223.252.529.378.919.378zm6.102.976c-1.154 0-2.067-.351-2.737-1.055-.665-.703-.997-1.679-.997-2.928 0-1.26.309-2.26.926-3 .623-.742 1.456-1.112 2.502-1.112.978 0 1.753.323 2.323.969.57.641.855 1.49.855 2.544v.748h-5.38c.023.917.254 1.613.691 2.088.442.475 1.062.713 1.86.713a6.29 6.29 0 002.494-.528v1.055c-.418.18-.815.309-1.19.385a6.43 6.43 0 01-1.347.121zm-.321-7.105c-.627 0-1.128.205-1.503.613-.371.409-.589.974-.656 1.696h4.083c0-.746-.166-1.316-.498-1.71-.333-.4-.808-.599-1.426-.599zm15.338 6.963v-5.081c0-.623-.133-1.088-.399-1.397-.266-.314-.679-.47-1.24-.47-.736 0-1.28.21-1.632.634-.351.422-.527 1.073-.527 1.952v4.362h-1.183v-5.081c0-.623-.133-1.088-.399-1.397-.266-.314-.682-.47-1.247-.47-.742 0-1.286.223-1.632.67-.342.441-.513 1.168-.513 2.18v4.098h-1.183v-7.81h.962l.192 1.068h.057c.223-.38.537-.677.941-.89.408-.214.864-.321 1.368-.321 1.221 0 2.019.442 2.394 1.325h.057a2.497 2.497 0 011.012-.969c.442-.238.946-.356 1.511-.356.884 0 1.544.228 1.981.684.442.451.663 1.176.663 2.173v5.096h-1.183z" fill="#252A2E"/><g clip-path="url(#prefix__clip2_6886_96836)"><path fill="#fff" d="M789.038 82.59h13.268v13.268h-13.268z"/><path fill="#fff" d="M787.71 82.59h13.268v13.268H787.71z"/><path fill-rule="evenodd" clip-rule="evenodd" d="M788.955 81.263h12.77c1.003 0 1.824.796 1.824 1.769v12.383c0 .973-.821 1.77-1.824 1.77h-12.77c-1.004 0-1.825-.797-1.825-1.77V83.032c0-.973.821-1.77 1.825-1.77zm12.77 14.152V83.032h-12.77v12.383h12.77z" fill="#90939F"/><path fill-rule="evenodd" clip-rule="evenodd" d="M788.89 81.263h12.899c1.014 0 1.843.796 1.843 1.769v12.383c0 .973-.829 1.77-1.843 1.77H788.89c-1.013 0-1.843-.797-1.843-1.77V83.032c0-.973.83-1.77 1.843-1.77zm12.899 14.152V83.032H788.89v12.383h12.899z" fill="#90939F"/></g><path fill="#484848" d="M267.277 111.448h551.945v43.121H267.277z"/><path d="M279.324 138.394v-10.419h1.211v9.321h4.597v1.098h-5.808zm8.753 0h-1.183v-7.811h1.183v7.811zm-1.283-9.927c0-.271.067-.468.2-.592a.69.69 0 01.499-.192c.19 0 .354.064.491.192.138.128.207.326.207.592 0 .266-.069.465-.207.598a.696.696 0 01-.491.193.691.691 0 01-.499-.193c-.133-.133-.2-.332-.2-.598zm8.996 7.796c0 .727-.271 1.287-.813 1.682-.541.394-1.301.591-2.28.591-1.036 0-1.843-.164-2.423-.492v-1.097c.375.19.777.34 1.204.449.433.109.848.164 1.247.164.618 0 1.093-.098 1.426-.292.332-.2.498-.502.498-.905 0-.305-.133-.563-.399-.777-.261-.219-.774-.475-1.539-.77-.727-.271-1.245-.506-1.553-.705a2.206 2.206 0 01-.685-.692c-.147-.256-.22-.563-.22-.919 0-.637.258-1.138.776-1.504.518-.37 1.228-.555 2.131-.555.841 0 1.663.171 2.466.513l-.421.962c-.784-.323-1.494-.485-2.13-.485-.561 0-.984.088-1.269.264-.285.176-.428.418-.428.727 0 .209.053.387.157.534.11.147.283.288.52.421.238.133.694.325 1.369.577.926.337 1.551.677 1.874 1.019.328.342.492.772.492 1.29zm4.619 1.297c.209 0 .411-.014.606-.043.195-.033.349-.066.463-.1v.905a2.08 2.08 0 01-.57.15c-.247.043-.47.064-.67.064-1.51 0-2.266-.796-2.266-2.387v-4.647h-1.119v-.57l1.119-.491.499-1.668h.684v1.81h2.266v.919h-2.266v4.597c0 .47.112.831.335 1.083.223.252.53.378.919.378zm6.938.834v-10.419h1.212v10.419h-1.212zm6.587-.834c.209 0 .411-.014.606-.043.194-.033.349-.066.463-.1v.905a2.08 2.08 0 01-.57.15 3.943 3.943 0 01-.67.064c-1.511 0-2.266-.796-2.266-2.387v-4.647h-1.119v-.57l1.119-.491.499-1.668h.684v1.81h2.266v.919h-2.266v4.597c0 .47.111.831.335 1.083.223.252.529.378.919.378zm6.102.976c-1.154 0-2.067-.351-2.737-1.055-.665-.703-.997-1.679-.997-2.929 0-1.259.309-2.259.926-3 .623-.741 1.456-1.111 2.502-1.111.978 0 1.753.323 2.323.969.57.641.855 1.489.855 2.544v.748h-5.38c.023.917.254 1.613.691 2.088.442.475 1.062.713 1.86.713.841 0 1.672-.176 2.494-.528v1.055a6.021 6.021 0 01-1.19.385c-.371.081-.82.121-1.347.121zm-.321-7.105c-.627 0-1.128.204-1.503.613-.371.409-.589.974-.656 1.696h4.083c0-.746-.166-1.316-.498-1.71-.333-.399-.808-.599-1.426-.599zm15.338 6.963v-5.082c0-.622-.133-1.087-.399-1.396-.266-.314-.679-.471-1.24-.471-.736 0-1.28.212-1.632.635-.351.422-.527 1.073-.527 1.952v4.362h-1.183v-5.082c0-.622-.133-1.087-.399-1.396-.266-.314-.682-.471-1.247-.471-.742 0-1.286.224-1.632.67-.342.442-.513 1.169-.513 2.181v4.098h-1.183v-7.811h.962l.192 1.069h.057a2.33 2.33 0 01.941-.891 2.9 2.9 0 011.368-.32c1.221 0 2.019.441 2.394 1.325h.057a2.497 2.497 0 011.012-.969c.442-.238.946-.356 1.511-.356.884 0 1.544.228 1.981.684.442.451.663 1.176.663 2.173v5.096h-1.183z" fill="#252A2E"/><g clip-path="url(#prefix__clip3_6886_96836)"><path fill="#fff" d="M789.038 126.374h13.268v13.268h-13.268z"/><path fill="#fff" d="M787.71 126.374h13.268v13.268H787.71z"/><path fill-rule="evenodd" clip-rule="evenodd" d="M788.955 125.047h12.77c1.003 0 1.824.796 1.824 1.769V139.2c0 .973-.821 1.769-1.824 1.769h-12.77c-1.004 0-1.825-.796-1.825-1.769v-12.384c0-.973.821-1.769 1.825-1.769zm12.77 14.153v-12.384h-12.77V139.2h12.77z" fill="#90939F"/><path fill-rule="evenodd" clip-rule="evenodd" d="M788.89 125.047h12.899c1.014 0 1.843.796 1.843 1.769V139.2c0 .973-.829 1.769-1.843 1.769H788.89c-1.013 0-1.843-.796-1.843-1.769v-12.384c0-.973.83-1.769 1.843-1.769zm12.899 14.153v-12.384H788.89V139.2h12.899z" fill="#90939F"/></g><path fill="#484848" d="M267.277 155.231h551.945v43.121H267.277z"/><path d="M279.324 182.177v-10.418h1.211v9.321h4.597v1.097h-5.808zm8.753 0h-1.183v-7.81h1.183v7.81zm-1.283-9.926c0-.271.067-.468.2-.592a.69.69 0 01.499-.192c.19 0 .354.064.491.192.138.128.207.325.207.592 0 .266-.069.465-.207.598a.696.696 0 01-.491.193.691.691 0 01-.499-.193c-.133-.133-.2-.332-.2-.598zm8.996 7.796c0 .727-.271 1.287-.813 1.682-.541.394-1.301.591-2.28.591-1.036 0-1.843-.164-2.423-.492v-1.097c.375.19.777.34 1.204.449.433.109.848.164 1.247.164.618 0 1.093-.098 1.426-.292.332-.2.498-.502.498-.906 0-.304-.133-.562-.399-.776-.261-.219-.774-.475-1.539-.77-.727-.271-1.245-.506-1.553-.705a2.206 2.206 0 01-.685-.692c-.147-.256-.22-.563-.22-.919 0-.637.258-1.138.776-1.504.518-.37 1.228-.555 2.131-.555.841 0 1.663.171 2.466.513l-.421.962c-.784-.323-1.494-.485-2.13-.485-.561 0-.984.088-1.269.264-.285.176-.428.418-.428.727 0 .209.053.387.157.534.11.147.283.288.52.421.238.133.694.325 1.369.577.926.337 1.551.677 1.874 1.019.328.342.492.772.492 1.29zm4.619 1.297c.209 0 .411-.015.606-.043.195-.033.349-.067.463-.1v.905a2.08 2.08 0 01-.57.15c-.247.043-.47.064-.67.064-1.51 0-2.266-.796-2.266-2.387v-4.647h-1.119v-.57l1.119-.491.499-1.668h.684v1.81h2.266v.919h-2.266v4.597c0 .47.112.831.335 1.083.223.252.53.378.919.378zm6.938.833v-10.418h1.212v10.418h-1.212zm6.587-.833c.209 0 .411-.015.606-.043.194-.033.349-.067.463-.1v.905a2.08 2.08 0 01-.57.15 3.943 3.943 0 01-.67.064c-1.511 0-2.266-.796-2.266-2.387v-4.647h-1.119v-.57l1.119-.491.499-1.668h.684v1.81h2.266v.919h-2.266v4.597c0 .47.111.831.335 1.083.223.252.529.378.919.378zm6.102.976c-1.154 0-2.067-.352-2.737-1.055-.665-.703-.997-1.679-.997-2.929 0-1.259.309-2.259.926-3 .623-.741 1.456-1.111 2.502-1.111.978 0 1.753.323 2.323.969.57.641.855 1.489.855 2.544v.748h-5.38c.023.917.254 1.613.691 2.088.442.475 1.062.713 1.86.713.841 0 1.672-.176 2.494-.528v1.055a6.021 6.021 0 01-1.19.385c-.371.081-.82.121-1.347.121zm-.321-7.105c-.627 0-1.128.204-1.503.613-.371.409-.589.974-.656 1.696h4.083c0-.746-.166-1.316-.498-1.71-.333-.399-.808-.599-1.426-.599zm15.338 6.962v-5.081c0-.622-.133-1.088-.399-1.396-.266-.314-.679-.471-1.24-.471-.736 0-1.28.212-1.632.635-.351.422-.527 1.073-.527 1.952v4.361h-1.183v-5.081c0-.622-.133-1.088-.399-1.396-.266-.314-.682-.471-1.247-.471-.742 0-1.286.224-1.632.67-.342.442-.513 1.169-.513 2.181v4.097h-1.183v-7.81h.962l.192 1.069h.057a2.33 2.33 0 01.941-.891 2.9 2.9 0 011.368-.32c1.221 0 2.019.441 2.394 1.325h.057a2.49 2.49 0 011.012-.969c.442-.238.946-.356 1.511-.356.884 0 1.544.228 1.981.684.442.451.663 1.175.663 2.173v5.095h-1.183z" fill="#fff"/><g clip-path="url(#prefix__clip4_6886_96836)"><path fill="#fff" d="M789.038 170.158h13.268v13.268h-13.268z"/><path fill="#fff" d="M787.71 170.158h13.268v13.268H787.71z"/><path fill-rule="evenodd" clip-rule="evenodd" d="M788.955 168.831h12.77c1.003 0 1.824.796 1.824 1.769v12.383c0 .973-.821 1.77-1.824 1.77h-12.77c-1.004 0-1.825-.797-1.825-1.77V170.6c0-.973.821-1.769 1.825-1.769zm12.77 14.152V170.6h-12.77v12.383h12.77z" fill="#90939F"/><path fill-rule="evenodd" clip-rule="evenodd" d="M788.89 168.831h12.899c1.014 0 1.843.796 1.843 1.769v12.383c0 .973-.829 1.77-1.843 1.77H788.89c-1.013 0-1.843-.797-1.843-1.77V170.6c0-.973.83-1.769 1.843-1.769zm12.899 14.152V170.6H788.89v12.383h12.899z" fill="#90939F"/></g><path fill="#484848" d="M266.614 200.342h553.271v43.121H266.614z"/><path d="M278.661 227.403v-10.419h1.211v9.321h4.597v1.098h-5.808zm8.753 0h-1.183v-7.811h1.183v7.811zm-1.283-9.927c0-.271.067-.468.2-.592a.69.69 0 01.499-.192c.19 0 .354.064.491.192.138.128.207.326.207.592 0 .266-.069.465-.207.598a.691.691 0 01-.491.193.687.687 0 01-.499-.193c-.133-.133-.2-.332-.2-.598zm8.996 7.796c0 .727-.271 1.287-.813 1.682-.541.394-1.302.591-2.28.591-1.036 0-1.844-.164-2.423-.492v-1.097c.375.19.777.34 1.204.449.432.109.848.164 1.247.164.618 0 1.093-.098 1.426-.292.332-.2.498-.502.498-.905 0-.304-.133-.563-.399-.777-.261-.219-.774-.475-1.539-.77-.727-.271-1.245-.506-1.554-.705a2.202 2.202 0 01-.684-.692 1.818 1.818 0 01-.221-.919c0-.636.259-1.138.777-1.504.518-.37 1.228-.555 2.131-.555.841 0 1.663.171 2.466.513l-.421.962c-.784-.323-1.494-.485-2.131-.485-.56 0-.983.088-1.268.264-.285.176-.428.418-.428.727 0 .209.053.387.157.534.109.147.283.288.52.421.238.133.694.325 1.369.577.926.337 1.551.677 1.874 1.019.328.342.492.772.492 1.29zm4.619 1.297c.209 0 .411-.014.606-.043.195-.033.349-.066.463-.1v.905a2.08 2.08 0 01-.57.15c-.247.043-.47.064-.67.064-1.51 0-2.266-.796-2.266-2.387v-4.647h-1.119v-.57l1.119-.491.499-1.668h.684v1.81h2.266v.919h-2.266v4.597c0 .47.112.831.335 1.083.223.252.53.378.919.378zm6.938.834v-10.419h1.212v10.419h-1.212zm6.587-.834c.209 0 .411-.014.606-.043.194-.033.349-.066.463-.1v.905a2.102 2.102 0 01-.57.15 3.943 3.943 0 01-.67.064c-1.511 0-2.266-.796-2.266-2.387v-4.647h-1.119v-.57l1.119-.491.498-1.668h.685v1.81h2.266v.919h-2.266v4.597c0 .47.111.831.335 1.083.223.252.529.378.919.378zm6.102.976c-1.155 0-2.067-.351-2.737-1.055-.665-.703-.997-1.679-.997-2.928 0-1.259.309-2.26.926-3.001.622-.741 1.456-1.111 2.501-1.111.979 0 1.754.323 2.324.969.57.641.855 1.489.855 2.544v.748h-5.381c.024.917.255 1.613.692 2.088.442.475 1.061.713 1.86.713.841 0 1.672-.176 2.494-.528v1.055a6.021 6.021 0 01-1.19.385c-.371.081-.82.121-1.347.121zm-.321-7.105c-.627 0-1.128.204-1.503.613-.371.409-.59.974-.656 1.696h4.083c0-.746-.166-1.316-.499-1.71-.332-.399-.807-.599-1.425-.599zm15.338 6.963v-5.081c0-.623-.133-1.088-.399-1.397-.266-.314-.679-.471-1.24-.471-.736 0-1.28.212-1.632.635-.352.423-.527 1.073-.527 1.952v4.362h-1.183v-5.081c0-.623-.133-1.088-.399-1.397-.266-.314-.682-.471-1.248-.471-.741 0-1.285.224-1.631.67-.342.442-.514 1.169-.514 2.181v4.098h-1.182v-7.811h.962l.192 1.069h.057a2.33 2.33 0 01.941-.891c.408-.213.864-.32 1.368-.32 1.221 0 2.019.441 2.394 1.325h.057a2.49 2.49 0 011.012-.969c.442-.238.946-.356 1.511-.356.884 0 1.544.228 1.981.684.442.451.663 1.176.663 2.173v5.096h-1.183z" fill="#fff"/><g clip-path="url(#prefix__clip5_6886_96836)"><path fill="#fff" d="M789.701 215.269h13.268v13.268h-13.268z"/><path fill="#fff" d="M788.374 215.269h13.268v13.268h-13.268z"/><path fill-rule="evenodd" clip-rule="evenodd" d="M789.618 213.942h12.771c1.003 0 1.824.796 1.824 1.769v12.383c0 .973-.821 1.769-1.824 1.769h-12.771c-1.003 0-1.824-.796-1.824-1.769v-12.383c0-.973.821-1.769 1.824-1.769zm12.771 14.152v-12.383h-12.771v12.383h12.771z" fill="#90939F"/><path fill-rule="evenodd" clip-rule="evenodd" d="M789.554 213.942h12.899c1.014 0 1.843.796 1.843 1.769v12.383c0 .973-.829 1.769-1.843 1.769h-12.899c-1.014 0-1.843-.796-1.843-1.769v-12.383c0-.973.829-1.769 1.843-1.769zm12.899 14.152v-12.383h-12.899v12.383h12.899z" fill="#90939F"/></g><g filter="url(#prefix__filter0_ddd_6886_96836)"><rect x="262" y="63.434" width="563" height="88.938" rx="3.407" fill="#000"/><g clip-path="url(#prefix__clip6_6886_96836)"><path d="M292.174 96.64H276.97c-2.236 0-4.074-1.838-4.074-4.074 0-.696.198-1.392.546-2.038l7.602-13.117c1.143-1.938 3.627-2.634 5.565-1.49.596.347 1.143.844 1.491 1.49l7.602 13.167c1.143 1.938.447 4.422-1.491 5.565a4.255 4.255 0 01-2.037.497zm-7.602-19.776c-.944 0-1.789.497-2.236 1.292l-7.602 13.167c-.696 1.243-.298 2.833.944 3.528a2.41 2.41 0 001.292.348h15.204a2.566 2.566 0 002.584-2.584c0-.447-.099-.894-.348-1.292l-7.602-13.216c-.447-.796-1.292-1.243-2.236-1.243z" fill="#FF8B00"/><path d="M283.23 81.535h2.385v7.403h-2.385v-7.403zM283.23 90.28h2.385v2.285h-2.385V90.28z" fill="#fff"/></g><path d="M313.71 88.896h-1.909l-1.07-4.152c-.04-.148-.108-.453-.206-.914a10.621 10.621 0 01-.162-.936 12.88 12.88 0 01-.162.941c-.087.43-.153.736-.2.92l-1.065 4.141h-1.904l-2.016-7.905h1.649l1.011 4.315c.176.797.304 1.487.384 2.07.021-.205.07-.522.146-.95.079-.433.153-.769.221-1.007l1.152-4.428h1.584l1.152 4.428c.05.199.113.502.189.909.076.407.133.757.173 1.049.036-.281.094-.631.173-1.05.079-.42.152-.761.216-1.021l1.006-4.315h1.649l-2.011 7.905zm6.779 0l-.319-.822h-.043c-.278.35-.564.593-.86.73-.292.134-.674.2-1.146.2-.581 0-1.038-.166-1.374-.497-.331-.332-.497-.804-.497-1.417 0-.641.224-1.114.67-1.416.451-.307 1.129-.476 2.033-.509l1.049-.032v-.265c0-.613-.313-.92-.94-.92-.483 0-1.051.147-1.704.439l-.546-1.114c.696-.364 1.467-.546 2.314-.546.812 0 1.433.176 1.866.53.432.353.649.89.649 1.611v4.028h-1.152zm-.487-2.8l-.638.021c-.479.014-.836.1-1.07.26-.234.158-.352.4-.352.724 0 .465.267.698.801.698.382 0 .686-.11.913-.33.231-.22.346-.512.346-.876v-.498zm6.78-3.358c.223 0 .409.016.556.048l-.124 1.547a1.887 1.887 0 00-.487-.054c-.526 0-.937.135-1.232.405-.292.27-.438.649-.438 1.136v3.076h-1.649v-6.045h1.249l.243 1.017h.081c.188-.34.44-.611.757-.817a1.877 1.877 0 011.044-.313zm7.298 6.158h-1.649v-3.53c0-.437-.078-.763-.233-.98-.155-.22-.402-.329-.741-.329-.461 0-.794.155-1 .465-.205.306-.308.816-.308 1.53v2.844H328.5v-6.045h1.26l.221.773h.092c.184-.291.436-.511.757-.66a2.58 2.58 0 011.103-.226c.703 0 1.237.19 1.601.573.364.378.546.926.546 1.643v3.942zm1.691-7.607c0-.537.299-.806.898-.806.598 0 .897.269.897.806 0 .256-.075.456-.227.6-.148.14-.371.21-.67.21-.599 0-.898-.27-.898-.81zm1.72 7.607h-1.65v-6.045h1.65v6.045zm7.379 0h-1.649v-3.53c0-.437-.078-.763-.233-.98-.155-.22-.402-.329-.74-.329-.462 0-.795.155-1.001.465-.205.306-.308.816-.308 1.53v2.844h-1.649v-6.045h1.26l.221.773h.092c.184-.291.437-.511.757-.66a2.58 2.58 0 011.103-.226c.703 0 1.237.19 1.601.573.364.378.546.926.546 1.643v3.942zm7.022-6.045v.838l-.946.244c.173.27.26.573.26.908 0 .649-.227 1.155-.682 1.52-.45.36-1.077.54-1.881.54l-.298-.016-.243-.027c-.169.13-.254.274-.254.432 0 .238.303.357.908.357h1.028c.663 0 1.168.142 1.514.427.349.285.524.703.524 1.255 0 .706-.296 1.254-.887 1.643-.587.39-1.432.584-2.535.584-.844 0-1.489-.147-1.936-.443a1.395 1.395 0 01-.665-1.233c0-.364.113-.668.34-.914.228-.245.561-.42 1.001-.524a1.114 1.114 0 01-.444-.351.853.853 0 01-.189-.525c0-.23.067-.422.2-.573.134-.155.326-.306.579-.454a1.636 1.636 0 01-.757-.66c-.184-.303-.276-.66-.276-1.07 0-.66.214-1.17.643-1.53.429-.361 1.042-.541 1.839-.541.169 0 .369.016.6.048.234.03.384.05.449.065h2.108zm-4.666 6.9c0 .227.108.405.325.535.22.13.526.194.919.194.591 0 1.054-.08 1.389-.243.336-.162.503-.384.503-.665 0-.227-.099-.384-.297-.47-.198-.087-.505-.13-.919-.13h-.855c-.302 0-.557.07-.762.21a.667.667 0 00-.303.568zm.6-4.92c0 .327.074.587.222.778.151.19.38.286.687.286.31 0 .537-.095.681-.286.144-.191.216-.45.216-.779 0-.728-.299-1.092-.897-1.092-.606 0-.909.364-.909 1.092zm12.817-.12h.552c.515 0 .901-.1 1.157-.303.256-.205.383-.502.383-.892 0-.393-.108-.683-.324-.87-.213-.188-.548-.281-1.006-.281h-.762v2.346zm3.785-1.254c0 .85-.267 1.501-.8 1.952-.53.45-1.285.676-2.266.676h-.719v2.811h-1.676v-7.905h2.525c.959 0 1.687.208 2.184.622.501.411.752 1.026.752 1.844zm4.8-.72c.224 0 .409.017.557.05l-.124 1.546a1.898 1.898 0 00-.487-.054c-.526 0-.937.135-1.233.405-.292.27-.438.649-.438 1.136v3.076h-1.649v-6.045h1.249l.244 1.017h.081c.187-.34.439-.611.757-.817.32-.209.668-.313 1.043-.313zm3.032 3.126c0 .598.098 1.05.292 1.357.199.306.519.46.963.46.439 0 .755-.152.946-.455.195-.306.292-.76.292-1.362 0-.599-.097-1.047-.292-1.346-.195-.3-.514-.45-.957-.45-.44 0-.757.15-.952.45-.194.295-.292.744-.292 1.346zm4.18 0c0 .984-.26 1.754-.779 2.309-.519.555-1.242.832-2.168.832-.58 0-1.092-.126-1.535-.378a2.55 2.55 0 01-1.022-1.098c-.238-.476-.357-1.03-.357-1.665 0-.988.258-1.755.773-2.303s1.24-.822 2.174-.822c.58 0 1.092.126 1.535.378a2.53 2.53 0 011.022 1.087c.238.472.357 1.025.357 1.66zm6.838 3.033h-1.649v-3.53c0-.437-.074-.763-.221-.98-.144-.22-.373-.329-.687-.329-.422 0-.728.155-.919.465-.191.31-.287.82-.287 1.53v2.844h-1.649v-6.045h1.26l.222.773h.092c.162-.277.396-.493.703-.648a2.257 2.257 0 011.054-.238c.905 0 1.517.295 1.838.886h.146c.162-.28.4-.499.714-.654a2.405 2.405 0 011.07-.232c.685 0 1.203.176 1.552.53.353.35.53.912.53 1.686v3.942h-1.654v-3.53c0-.437-.074-.763-.222-.98-.144-.22-.373-.329-.687-.329-.404 0-.706.144-.908.433-.198.288-.298.746-.298 1.373v3.033zm8.85.108c-.71 0-1.267-.258-1.67-.773h-.087c.058.505.087.797.087.876v2.45h-1.649V82.85h1.341l.232.784h.076c.385-.598.957-.897 1.714-.897.713 0 1.272.275 1.676.827.404.552.605 1.317.605 2.298 0 .645-.095 1.206-.286 1.681-.188.476-.456.838-.806 1.087-.349.249-.76.373-1.233.373zm-.486-4.947c-.407 0-.705.126-.892.379-.188.248-.285.66-.292 1.238v.178c0 .649.095 1.114.286 1.395.195.281.501.422.919.422.739 0 1.109-.61 1.109-1.828 0-.594-.092-1.04-.276-1.335-.18-.3-.465-.449-.854-.449zm6.784 3.633c.289 0 .635-.063 1.039-.189v1.227c-.411.184-.916.276-1.514.276-.66 0-1.141-.166-1.444-.497-.299-.335-.449-.836-.449-1.503v-2.915h-.789v-.697l.908-.551.476-1.277h1.054v1.287h1.693v1.238h-1.693v2.915c0 .234.065.407.195.519.133.112.308.167.524.167zM305.768 103.802V98.33h.636v4.896h2.415v.576h-3.051zm7.43-2.055c0 .669-.168 1.192-.505 1.569-.337.374-.802.561-1.396.561a1.85 1.85 0 01-.977-.258 1.702 1.702 0 01-.659-.741c-.155-.322-.232-.699-.232-1.131 0-.668.167-1.189.501-1.561.335-.374.799-.561 1.393-.561.574 0 1.029.19 1.366.573.34.381.509.898.509 1.549zm-3.125 0c0 .524.104.924.314 1.198.21.275.518.412.925.412.406 0 .715-.136.924-.408.212-.275.318-.675.318-1.202 0-.521-.106-.917-.318-1.186-.209-.272-.52-.408-.932-.408-.407 0-.714.133-.921.4-.207.267-.31.665-.31 1.194zm6.09-2.122c.182 0 .345.015.49.045l-.086.576a2.143 2.143 0 00-.449-.056c-.332 0-.616.135-.854.404-.234.27-.351.606-.351 1.007v2.201h-.622V99.7h.513l.071.76h.03c.152-.267.336-.473.55-.618a1.24 1.24 0 01.708-.217zm2.991 4.252c-.607 0-1.086-.184-1.438-.554-.349-.369-.524-.882-.524-1.538 0-.662.162-1.187.487-1.576.327-.39.765-.584 1.314-.584.514 0 .921.17 1.22.509.299.337.449.782.449 1.336v.393h-2.826c.013.482.134.848.363 1.097.232.25.558.374.977.374.442 0 .879-.092 1.31-.277v.554a3.165 3.165 0 01-.625.203c-.195.042-.43.063-.707.063zm-.169-3.732c-.329 0-.592.108-.79.322-.194.215-.309.512-.344.891h2.145c0-.392-.087-.691-.262-.898-.175-.21-.424-.315-.749-.315zm7.97 3.657v-2.669c0-.326-.07-.571-.21-.733-.14-.165-.357-.247-.651-.247-.387 0-.673.111-.858.333-.184.222-.277.564-.277 1.026v2.29h-.621v-2.669c0-.326-.07-.571-.21-.733-.139-.165-.358-.247-.655-.247-.389 0-.675.117-.857.352-.18.232-.269.613-.269 1.145v2.152h-.622V99.7h.506l.101.561h.03c.117-.199.282-.355.494-.468.214-.112.454-.168.718-.168.642 0 1.061.232 1.258.696h.03c.122-.214.3-.384.532-.509.232-.125.496-.187.793-.187.464 0 .811.12 1.041.36.232.236.348.617.348 1.141v2.676h-.621zm4.518 0h-.622V99.7h.622v4.102zm-.674-5.214c0-.142.035-.246.105-.31a.36.36 0 01.262-.102c.099 0 .186.034.258.101.072.068.108.171.108.311 0 .14-.036.245-.108.315a.366.366 0 01-.258.1.36.36 0 01-.262-.1c-.07-.07-.105-.175-.105-.315zm3.9 5.289c-.267 0-.511-.048-.733-.146-.22-.1-.405-.252-.554-.456h-.045c.03.239.045.466.045.681v1.688h-.622V99.7h.505l.087.561h.03a1.44 1.44 0 01.557-.486c.212-.1.456-.15.73-.15.544 0 .963.186 1.258.558.297.372.445.893.445 1.564 0 .674-.151 1.198-.453 1.572-.299.372-.716.558-1.25.558zm-.09-3.724c-.419 0-.722.116-.909.348-.187.232-.283.601-.288 1.108v.138c0 .577.096.99.288 1.239.192.247.5.371.924.371a.956.956 0 00.831-.431c.202-.287.304-.682.304-1.186 0-.512-.102-.903-.304-1.175-.199-.275-.481-.412-.846-.412zm5.529 2.53c0 .382-.142.676-.427.884-.284.207-.683.31-1.198.31-.544 0-.968-.086-1.272-.258v-.577c.197.1.408.179.632.236.227.058.446.086.655.086.325 0 .574-.051.749-.153a.517.517 0 00.262-.475c0-.16-.07-.296-.209-.408-.138-.115-.407-.25-.809-.405-.382-.142-.654-.265-.816-.37a1.156 1.156 0 01-.359-.363.95.95 0 01-.116-.483c0-.335.136-.598.408-.79.272-.195.645-.292 1.119-.292.442 0 .873.09 1.295.27l-.221.505c-.412-.17-.785-.255-1.119-.255-.295 0-.517.046-.666.139a.427.427 0 00-.225.382.47.47 0 00.082.28.856.856 0 00.274.221c.124.07.364.171.718.303.487.178.815.356.985.536a.938.938 0 01.258.677zm1.598-2.983v2.661c0 .335.076.584.229.749.152.165.39.247.715.247.429 0 .742-.117.939-.352.2-.235.3-.618.3-1.149V99.7h.621v4.102h-.513l-.09-.55h-.033a1.24 1.24 0 01-.532.464 1.754 1.754 0 01-.771.161c-.499 0-.873-.118-1.123-.355-.247-.237-.37-.617-.37-1.138V99.7h.628zm9.355 4.102v-2.669c0-.326-.07-.571-.21-.733-.14-.165-.357-.247-.651-.247-.387 0-.673.111-.857.333-.185.222-.277.564-.277 1.026v2.29h-.622v-2.669c0-.326-.07-.571-.209-.733-.14-.165-.359-.247-.656-.247-.389 0-.675.117-.857.352-.179.232-.269.613-.269 1.145v2.152h-.622V99.7h.506l.101.561h.03c.117-.199.282-.355.494-.468.214-.112.454-.168.719-.168.641 0 1.06.232 1.257.696h.03c.122-.214.3-.384.532-.509.232-.125.496-.187.793-.187.464 0 .811.12 1.041.36.232.236.348.617.348 1.141v2.676h-.621zm6.689-.55h-.034c-.287.417-.716.625-1.288.625-.536 0-.954-.183-1.254-.55-.297-.367-.445-.888-.445-1.565 0-.676.15-1.201.449-1.576.3-.374.716-.561 1.25-.561.557 0 .984.202 1.281.606h.048l-.026-.295-.015-.289v-1.669h.621v5.824h-.505l-.082-.55zm-1.243.105c.424 0 .731-.115.921-.344.192-.233.288-.606.288-1.12v-.131c0-.581-.097-.995-.292-1.242-.192-.25-.5-.375-.924-.375-.365 0-.644.143-.839.427-.192.282-.288.681-.288 1.198 0 .524.096.919.288 1.186.192.267.474.401.846.401zm6.693-1.61c0 .669-.169 1.192-.506 1.569-.336.374-.802.561-1.396.561-.367 0-.692-.086-.977-.258a1.7 1.7 0 01-.658-.741c-.155-.322-.233-.699-.233-1.131 0-.668.168-1.189.502-1.561.334-.374.799-.561 1.392-.561.574 0 1.03.19 1.367.573.339.381.509.898.509 1.549zm-3.126 0c0 .524.105.924.315 1.198.209.275.517.412.924.412.407 0 .715-.136.925-.408.212-.275.318-.675.318-1.202 0-.521-.106-.917-.318-1.186-.21-.272-.52-.408-.932-.408-.407 0-.714.133-.921.4-.207.267-.311.665-.311 1.194zm4.84 2.055h-.621v-5.824h.621v5.824zm4.859-2.055c0 .669-.169 1.192-.505 1.569-.337.374-.803.561-1.397.561-.366 0-.692-.086-.977-.258a1.7 1.7 0 01-.658-.741c-.155-.322-.233-.699-.233-1.131 0-.668.168-1.189.502-1.561.334-.374.799-.561 1.393-.561.573 0 1.029.19 1.366.573.339.381.509.898.509 1.549zm-3.126 0c0 .524.105.924.315 1.198.209.275.518.412.924.412.407 0 .715-.136.925-.408.212-.275.318-.675.318-1.202 0-.521-.106-.917-.318-1.186-.21-.272-.52-.408-.932-.408-.407 0-.714.133-.921.4-.207.267-.311.665-.311 1.194zm6.09-2.122c.183 0 .346.015.491.045l-.086.576a2.15 2.15 0 00-.449-.056c-.332 0-.617.135-.854.404-.234.27-.352.606-.352 1.007v2.201h-.621V99.7h.513l.071.76h.03c.152-.267.335-.473.55-.618.215-.145.45-.217.707-.217zm5.896 3.058c0 .382-.142.676-.427.884-.284.207-.683.31-1.198.31-.544 0-.968-.086-1.272-.258v-.577c.197.1.408.179.632.236.227.058.446.086.655.086.325 0 .574-.051.749-.153a.517.517 0 00.262-.475c0-.16-.07-.296-.21-.408-.137-.115-.406-.25-.808-.405-.382-.142-.654-.265-.816-.37a1.156 1.156 0 01-.359-.363.95.95 0 01-.116-.483c0-.335.136-.598.408-.79.272-.195.645-.292 1.119-.292.441 0 .873.09 1.295.27l-.221.505c-.412-.17-.785-.255-1.119-.255-.295 0-.517.046-.666.139a.427.427 0 00-.225.382.47.47 0 00.082.28.856.856 0 00.274.221c.124.07.364.171.718.303.487.178.815.356.985.536a.938.938 0 01.258.677zm1.636 1.119h-.622V99.7h.622v4.102zm-.674-5.214c0-.142.035-.246.105-.31a.362.362 0 01.262-.102c.1 0 .186.034.258.101.073.068.109.171.109.311 0 .14-.036.245-.109.315a.364.364 0 01-.258.1.362.362 0 01-.262-.1c-.07-.07-.105-.175-.105-.315zm3.316 4.776c.11 0 .216-.007.319-.022.102-.018.183-.035.243-.052v.475a1.112 1.112 0 01-.299.079c-.13.022-.248.033-.352.033-.794 0-1.191-.418-1.191-1.254v-2.44h-.587v-.3l.587-.258.262-.876h.36v.95h1.19v.484h-1.19v2.414c0 .247.058.437.176.569a.611.611 0 00.482.198zm5.9.438l-.124-.584h-.03c-.204.257-.409.432-.614.524-.202.09-.455.135-.759.135-.407 0-.727-.105-.959-.314-.229-.21-.344-.508-.344-.895 0-.828.662-1.263 1.988-1.302l.696-.023v-.254c0-.322-.07-.559-.21-.712-.137-.154-.358-.232-.662-.232-.342 0-.729.105-1.161.315l-.191-.476c.202-.11.423-.196.663-.258.242-.062.484-.094.726-.094.489 0 .851.109 1.086.326.237.217.355.565.355 1.044v2.8h-.46zm-1.404-.438c.387 0 .69-.106.91-.318.222-.212.333-.509.333-.891v-.37l-.622.026c-.494.017-.85.095-1.07.232-.217.135-.326.346-.326.633 0 .224.068.395.202.512.138.118.329.176.573.176zm8.377.438v-2.669c0-.326-.07-.571-.209-.733-.14-.165-.357-.247-.652-.247-.386 0-.672.111-.857.333-.184.222-.277.564-.277 1.026v2.29h-.621v-2.669c0-.326-.07-.571-.21-.733-.14-.165-.358-.247-.655-.247-.389 0-.675.117-.857.352-.18.232-.27.613-.27 1.145v2.152h-.621V99.7h.505l.102.561h.029c.118-.199.282-.355.495-.468.214-.112.454-.168.718-.168.642 0 1.061.232 1.258.696h.03a1.31 1.31 0 01.531-.509c.233-.125.497-.187.794-.187.464 0 .811.12 1.041.36.232.236.348.617.348 1.141v2.676h-.622zm3.639.075c-.607 0-1.086-.184-1.438-.554-.349-.369-.524-.882-.524-1.538 0-.662.163-1.187.487-1.576.327-.39.765-.584 1.314-.584.514 0 .921.17 1.22.509.3.337.449.782.449 1.336v.393h-2.826c.013.482.134.848.363 1.097.232.25.558.374.977.374.442 0 .879-.092 1.31-.277v.554a3.165 3.165 0 01-.625.203c-.194.042-.43.063-.707.063zm-.169-3.732c-.329 0-.592.108-.79.322-.194.215-.309.512-.344.891h2.145c0-.392-.087-.691-.262-.898-.175-.21-.424-.315-.749-.315zm4.065 3.219c.11 0 .216-.007.319-.022.102-.018.183-.035.243-.052v.475a1.11 1.11 0 01-.3.079 2.114 2.114 0 01-.351.033c-.794 0-1.191-.418-1.191-1.254v-2.44h-.587v-.3l.587-.258.262-.876h.36v.95h1.19v.484h-1.19v2.414c0 .247.058.437.176.569a.611.611 0 00.482.198zm2.037-.453l.056.087a9.327 9.327 0 01-.281.868c-.122.332-.249.64-.382.925h-.468c.068-.26.141-.581.221-.962.083-.382.14-.688.172-.918h.682zm4.858.966c-.594 0-1.054-.182-1.381-.546-.324-.367-.486-.885-.486-1.554 0-.686.164-1.216.494-1.591.332-.374.803-.561 1.415-.561.197 0 .394.021.591.064.197.042.352.092.464.15l-.191.527a2.783 2.783 0 00-.449-.135 1.967 1.967 0 00-.43-.056c-.834 0-1.251.532-1.251 1.595 0 .504.101.891.304 1.16.204.27.506.404.905.404.342 0 .693-.073 1.052-.22v.55c-.274.142-.62.213-1.037.213zm5.555-2.13c0 .669-.168 1.192-.505 1.569-.337.374-.802.561-1.396.561a1.85 1.85 0 01-.977-.258 1.702 1.702 0 01-.659-.741c-.155-.322-.232-.699-.232-1.131 0-.668.167-1.189.501-1.561.335-.374.799-.561 1.393-.561.574 0 1.029.19 1.366.573.34.381.509.898.509 1.549zm-3.125 0c0 .524.105.924.314 1.198.21.275.518.412.925.412.406 0 .715-.136.924-.408.212-.275.318-.675.318-1.202 0-.521-.106-.917-.318-1.186-.209-.272-.52-.408-.932-.408-.407 0-.713.133-.921.4-.207.267-.31.665-.31 1.194zm7.026 2.055v-2.654c0-.334-.076-.583-.229-.748-.152-.165-.39-.247-.715-.247-.429 0-.743.116-.943.348-.2.232-.299.615-.299 1.149v2.152h-.622V99.7h.506l.101.561h.03c.127-.202.305-.358.535-.468.23-.112.485-.168.767-.168.494 0 .866.12 1.116.36.249.236.374.617.374 1.141v2.676h-.621zm4.548-1.119c0 .382-.143.676-.427.884-.285.207-.684.31-1.198.31-.544 0-.968-.086-1.273-.258v-.577c.198.1.408.179.633.236.227.058.445.086.655.086.325 0 .574-.051.749-.153a.519.519 0 00.262-.475c0-.16-.07-.296-.21-.408-.137-.115-.407-.25-.808-.405-.382-.142-.654-.265-.816-.37a1.17 1.17 0 01-.36-.363.96.96 0 01-.116-.483c0-.335.136-.598.408-.79.272-.195.645-.292 1.119-.292.442 0 .874.09 1.296.27l-.221.505c-.412-.17-.785-.255-1.119-.255-.295 0-.517.046-.667.139a.428.428 0 00-.224.382.47.47 0 00.082.28.84.84 0 00.273.221c.125.07.365.171.719.303.487.178.815.356.984.536a.935.935 0 01.259.677zm2.747 1.194c-.606 0-1.085-.184-1.437-.554-.35-.369-.524-.882-.524-1.538 0-.662.162-1.187.486-1.576.327-.39.765-.584 1.314-.584.514 0 .921.17 1.221.509.299.337.449.782.449 1.336v.393h-2.826c.012.482.133.848.363 1.097.232.25.557.374.977.374.441 0 .878-.092 1.31-.277v.554c-.22.095-.428.163-.625.203a3.416 3.416 0 01-.708.063zm-.168-3.732c-.33 0-.593.108-.79.322-.195.215-.31.512-.344.891h2.144c0-.392-.087-.691-.262-.898-.174-.21-.424-.315-.748-.315zm4.379 3.732c-.594 0-1.054-.182-1.381-.546-.324-.367-.487-.885-.487-1.554 0-.686.165-1.216.495-1.591.331-.374.803-.561 1.414-.561.198 0 .395.021.592.064.197.042.352.092.464.15l-.191.527a2.783 2.783 0 00-.449-.135 1.968 1.968 0 00-.431-.056c-.833 0-1.25.532-1.25 1.595 0 .504.101.891.303 1.16.205.27.507.404.906.404.342 0 .693-.073 1.052-.22v.55c-.274.142-.62.213-1.037.213zm3.339-.513c.11 0 .216-.007.318-.022.103-.018.184-.035.244-.052v.475a1.121 1.121 0 01-.3.079c-.13.022-.247.033-.352.033-.793 0-1.19-.418-1.19-1.254v-2.44h-.588v-.3l.588-.258.262-.876h.359v.95h1.191v.484h-1.191v2.414c0 .247.059.437.176.569a.615.615 0 00.483.198zm3.118.513c-.606 0-1.085-.184-1.437-.554-.349-.369-.524-.882-.524-1.538 0-.662.162-1.187.486-1.576.327-.39.765-.584 1.314-.584.514 0 .921.17 1.221.509.299.337.449.782.449 1.336v.393h-2.826c.012.482.133.848.363 1.097.232.25.558.374.977.374.441 0 .878-.092 1.31-.277v.554c-.22.095-.428.163-.625.203a3.416 3.416 0 01-.708.063zm-.168-3.732c-.33 0-.593.108-.79.322-.195.215-.309.512-.344.891h2.145c0-.392-.088-.691-.263-.898-.174-.21-.424-.315-.748-.315zm4.065 3.219c.11 0 .216-.007.318-.022.102-.018.184-.035.243-.052v.475a1.112 1.112 0 01-.299.079c-.13.022-.247.033-.352.033-.793 0-1.19-.418-1.19-1.254v-2.44h-.588v-.3l.588-.258.262-.876h.359v.95h1.19v.484h-1.19v2.414c0 .247.059.437.176.569a.612.612 0 00.483.198zm1.969-3.664v2.661c0 .335.076.584.228.749.152.165.391.247.715.247.429 0 .743-.117.94-.352.199-.235.299-.618.299-1.149V99.7h.622v4.102h-.513l-.09-.55h-.034a1.232 1.232 0 01-.531.464 1.76 1.76 0 01-.771.161c-.5 0-.874-.118-1.123-.355-.247-.237-.371-.617-.371-1.138V99.7h.629zm5.996-.075c.183 0 .346.015.491.045l-.086.576a2.15 2.15 0 00-.449-.056c-.332 0-.617.135-.854.404-.234.27-.352.606-.352 1.007v2.201h-.621V99.7h.513l.071.76h.03c.152-.267.335-.473.55-.618.215-.145.45-.217.707-.217zm5.773 4.177l-.124-.584h-.03c-.205.257-.409.432-.614.524-.202.09-.455.135-.76.135-.406 0-.726-.105-.958-.314-.23-.21-.344-.508-.344-.895 0-.828.662-1.263 1.987-1.302l.697-.023v-.254c0-.322-.07-.559-.21-.712-.137-.154-.358-.232-.663-.232-.342 0-.728.105-1.16.315l-.191-.476c.202-.11.423-.196.663-.258.242-.062.484-.094.726-.094.489 0 .851.109 1.085.326.237.217.356.565.356 1.044v2.8h-.46zm-1.404-.438c.387 0 .69-.106.909-.318.222-.212.334-.509.334-.891v-.37l-.622.026c-.494.017-.851.095-1.07.232-.217.135-.326.346-.326.633 0 .224.067.395.202.512.137.118.328.176.573.176zm5.94-.112h-.033c-.287.417-.717.625-1.288.625-.537 0-.955-.183-1.254-.55-.297-.367-.446-.888-.446-1.565 0-.676.15-1.201.45-1.576.299-.374.716-.561 1.25-.561.556 0 .983.202 1.28.606h.049l-.026-.295-.015-.289v-1.669h.621v5.824h-.505l-.083-.55zm-1.242.105c.424 0 .731-.115.92-.344.192-.233.289-.606.289-1.12v-.131c0-.581-.098-.995-.292-1.242-.193-.25-.501-.375-.925-.375-.364 0-.644.143-.838.427-.193.282-.289.681-.289 1.198 0 .524.096.919.289 1.186.192.267.474.401.846.401zm3.773.445h-.622V99.7h.622v4.102zm-.674-5.214c0-.142.035-.246.105-.31a.362.362 0 01.262-.102c.1 0 .186.034.258.101.072.068.109.171.109.311 0 .14-.037.245-.109.315a.364.364 0 01-.258.1.362.362 0 01-.262-.1c-.07-.07-.105-.175-.105-.315zm3.9 5.289c-.267 0-.511-.048-.733-.146-.22-.1-.405-.252-.554-.456h-.045c.03.239.045.466.045.681v1.688h-.622V99.7h.506l.086.561h.03a1.44 1.44 0 01.557-.486c.212-.1.456-.15.73-.15.544 0 .964.186 1.258.558.297.372.445.893.445 1.564 0 .674-.151 1.198-.452 1.572-.3.372-.717.558-1.251.558zm-.09-3.724c-.419 0-.722.116-.909.348-.187.232-.283.601-.288 1.108v.138c0 .577.096.99.288 1.239.192.247.5.371.924.371a.956.956 0 00.831-.431c.203-.287.304-.682.304-1.186 0-.512-.101-.903-.304-1.175-.199-.275-.481-.412-.846-.412zm3.504 3.649h-.621V99.7h.621v4.102zm-.674-5.214c0-.142.035-.246.105-.31a.362.362 0 01.262-.102c.1 0 .186.034.258.101.073.068.109.171.109.311 0 .14-.036.245-.109.315a.364.364 0 01-.258.1.362.362 0 01-.262-.1c-.07-.07-.105-.175-.105-.315zm4.638 4.095c0 .382-.142.676-.427.884-.284.207-.683.31-1.197.31-.544 0-.969-.086-1.273-.258v-.577c.197.1.408.179.633.236.227.058.445.086.655.086.324 0 .574-.051.748-.153a.517.517 0 00.262-.475c0-.16-.07-.296-.209-.408-.138-.115-.407-.25-.809-.405-.382-.142-.654-.265-.816-.37a1.167 1.167 0 01-.359-.363.95.95 0 01-.116-.483c0-.335.136-.598.408-.79.272-.195.645-.292 1.119-.292.442 0 .873.09 1.295.27l-.221.505c-.412-.17-.785-.255-1.119-.255-.294 0-.517.046-.666.139a.427.427 0 00-.225.382c0 .109.028.203.082.28a.856.856 0 00.274.221c.124.07.364.171.718.303.487.178.815.356.985.536a.938.938 0 01.258.677zm2.654 1.194c-.594 0-1.054-.182-1.381-.546-.325-.367-.487-.885-.487-1.554 0-.686.165-1.216.494-1.591.332-.374.804-.561 1.415-.561.197 0 .395.021.592.064.197.042.352.092.464.15l-.191.527a2.783 2.783 0 00-.449-.135 1.968 1.968 0 00-.431-.056c-.833 0-1.25.532-1.25 1.595 0 .504.101.891.303 1.16.205.27.507.404.906.404.342 0 .693-.073 1.052-.22v.55c-.275.142-.62.213-1.037.213zm2.635-.075h-.621V99.7h.621v4.102zm-.673-5.214c0-.142.034-.246.104-.31a.364.364 0 01.262-.102c.1 0 .186.034.259.101.072.068.108.171.108.311 0 .14-.036.245-.108.315a.369.369 0 01-.259.1.364.364 0 01-.262-.1c-.07-.07-.104-.175-.104-.315zm4.798 5.214v-2.654c0-.334-.076-.583-.228-.748-.152-.165-.391-.247-.715-.247-.429 0-.744.116-.943.348-.2.232-.3.615-.3 1.149v2.152h-.621V99.7h.505l.101.561h.03c.127-.202.306-.358.535-.468.23-.112.486-.168.768-.168.494 0 .866.12 1.115.36.25.236.375.617.375 1.141v2.676h-.622zm5.259-4.102v.393l-.759.09a1.324 1.324 0 01.269.819c0 .402-.137.723-.412.962-.274.24-.651.36-1.13.36-.122 0-.237-.01-.344-.03-.265.14-.397.316-.397.528a.27.27 0 00.138.25c.093.053.251.079.476.079h.726c.444 0 .785.094 1.022.281.239.187.359.459.359.816 0 .454-.182.8-.546 1.037-.365.239-.896.359-1.595.359-.537 0-.951-.1-1.243-.299a.97.97 0 01-.434-.846c0-.25.08-.466.24-.648.159-.182.384-.306.673-.371a.665.665 0 01-.265-.22.593.593 0 01-.105-.349c0-.149.04-.28.12-.393.079-.112.205-.22.378-.325a1.125 1.125 0 01-.521-.446 1.317 1.317 0 01-.198-.718c0-.45.135-.795.404-1.037.27-.245.652-.367 1.146-.367.214 0 .408.025.58.075h1.418zm-3.271 4.791c0 .222.093.391.281.505.187.115.455.173.804.173.522 0 .908-.079 1.157-.236.252-.155.378-.366.378-.633 0-.222-.068-.377-.206-.464-.137-.085-.395-.127-.775-.127h-.744c-.282 0-.502.067-.659.202-.157.135-.236.328-.236.58zm.337-3.477c0 .287.081.504.243.651.162.147.388.221.678.221.606 0 .909-.295.909-.884 0-.616-.307-.924-.921-.924-.292 0-.516.078-.673.236-.158.157-.236.39-.236.7zm7.501 2.863c-.606 0-1.085-.184-1.437-.554-.35-.369-.524-.882-.524-1.538 0-.662.162-1.187.486-1.576.327-.39.765-.584 1.314-.584.514 0 .921.17 1.22.509.3.337.45.782.45 1.336v.393h-2.826c.012.482.133.848.363 1.097.232.25.557.374.977.374.441 0 .878-.092 1.31-.277v.554c-.22.095-.428.163-.625.203a3.416 3.416 0 01-.708.063zm-.168-3.732c-.33 0-.593.108-.79.322-.195.215-.31.512-.344.891h2.144c0-.392-.087-.691-.262-.898-.174-.21-.424-.315-.748-.315zm3.361 3.657h-.621v-5.824h.621v5.824zm1.939 0h-.621V99.7h.621v4.102zm-.674-5.214c0-.142.035-.246.105-.31a.362.362 0 01.262-.102c.1 0 .186.034.258.101.073.068.109.171.109.311 0 .14-.036.245-.109.315a.364.364 0 01-.258.1.362.362 0 01-.262-.1c-.07-.07-.105-.175-.105-.315zm3.317 4.776c.11 0 .216-.007.318-.022.102-.018.183-.035.243-.052v.475a1.112 1.112 0 01-.299.079c-.13.022-.247.033-.352.033-.794 0-1.19-.418-1.19-1.254v-2.44h-.588v-.3l.588-.258.262-.876h.359v.95h1.19v.484h-1.19v2.414c0 .247.059.437.176.569a.612.612 0 00.483.198zm1.295.042c0-.168.037-.294.112-.378.078-.088.187-.131.33-.131.144 0 .257.043.337.131.082.084.123.21.123.378 0 .162-.041.287-.123.374a.444.444 0 01-.337.131.457.457 0 01-.319-.116c-.082-.08-.123-.21-.123-.389zm7.659.396l-.682-1.74h-2.193l-.674 1.74h-.644l2.164-5.495h.535l2.152 5.495h-.658zm-.88-2.313l-.636-1.696a8.743 8.743 0 01-.255-.79c-.055.24-.134.503-.236.79l-.644 1.696h1.771zm3.93 2.388c-.606 0-1.085-.184-1.437-.554-.35-.369-.524-.882-.524-1.538 0-.662.162-1.187.486-1.576.327-.39.765-.584 1.314-.584.514 0 .921.17 1.221.509.299.337.449.782.449 1.336v.393h-2.826c.012.482.133.848.363 1.097.232.25.557.374.977.374.441 0 .878-.092 1.31-.277v.554c-.22.095-.428.163-.625.203a3.416 3.416 0 01-.708.063zm-.168-3.732c-.33 0-.593.108-.79.322-.195.215-.309.512-.344.891h2.144c0-.392-.087-.691-.262-.898-.174-.21-.424-.315-.748-.315zm5.547 3.657v-2.654c0-.334-.076-.583-.228-.748-.152-.165-.391-.247-.715-.247-.429 0-.744.116-.943.348-.2.232-.3.615-.3 1.149v2.152h-.621V99.7h.505l.101.561h.03c.127-.202.306-.358.535-.468.23-.112.486-.168.768-.168.494 0 .866.12 1.115.36.25.236.375.617.375 1.141v2.676h-.622zm3.635.075c-.607 0-1.086-.184-1.438-.554-.349-.369-.524-.882-.524-1.538 0-.662.163-1.187.487-1.576.327-.39.765-.584 1.314-.584.514 0 .921.17 1.22.509.3.337.449.782.449 1.336v.393h-2.826c.013.482.134.848.363 1.097.232.25.558.374.977.374.442 0 .879-.092 1.31-.277v.554a3.165 3.165 0 01-.625.203c-.194.042-.43.063-.707.063zm-.169-3.732c-.329 0-.592.108-.789.322-.195.215-.31.512-.345.891h2.145c0-.392-.087-.691-.262-.898-.175-.21-.424-.315-.749-.315zm5.263 3.657l-.123-.584h-.03c-.205.257-.409.432-.614.524-.202.09-.455.135-.76.135-.407 0-.726-.105-.958-.314-.23-.21-.345-.508-.345-.895 0-.828.663-1.263 1.988-1.302l.696-.023v-.254c0-.322-.07-.559-.209-.712-.138-.154-.358-.232-.663-.232-.342 0-.728.105-1.16.315l-.191-.476a2.932 2.932 0 011.389-.352c.489 0 .851.109 1.085.326.237.217.356.565.356 1.044v2.8h-.461zm-1.403-.438c.386 0 .69-.106.909-.318.222-.212.333-.509.333-.891v-.37l-.621.026c-.494.017-.851.095-1.071.232-.217.135-.325.346-.325.633 0 .224.067.395.202.512.137.118.328.176.573.176zm5.955.438v-2.654c0-.334-.076-.583-.228-.748-.153-.165-.391-.247-.715-.247-.429 0-.744.116-.944.348-.199.232-.299.615-.299 1.149v2.152h-.621V99.7h.505l.101.561h.03c.127-.202.306-.358.535-.468.23-.112.486-.168.768-.168.494 0 .866.12 1.115.36.25.236.374.617.374 1.141v2.676h-.621zm4.514 0h-.621v-5.824h.621v5.824zm1.902-4.102v2.661c0 .335.076.584.228.749.152.165.391.247.715.247.429 0 .743-.117.94-.352.199-.235.299-.618.299-1.149V99.7h.622v4.102h-.513l-.09-.55h-.034a1.232 1.232 0 01-.531.464 1.76 1.76 0 01-.771.161c-.5 0-.874-.118-1.123-.355-.247-.237-.371-.617-.371-1.138V99.7h.629zm5.764 4.177c-.594 0-1.054-.182-1.381-.546-.324-.367-.486-.885-.486-1.554 0-.686.164-1.216.494-1.591.332-.374.803-.561 1.415-.561.197 0 .394.021.591.064.197.042.352.092.464.15l-.191.527a2.783 2.783 0 00-.449-.135 1.967 1.967 0 00-.43-.056c-.834 0-1.251.532-1.251 1.595 0 .504.101.891.304 1.16.204.27.506.404.905.404.342 0 .693-.073 1.052-.22v.55c-.274.142-.62.213-1.037.213zm3.339-.513c.11 0 .216-.007.319-.022.102-.018.183-.035.243-.052v.475a1.121 1.121 0 01-.3.079 2.114 2.114 0 01-.351.033c-.794 0-1.191-.418-1.191-1.254v-2.44h-.588v-.3l.588-.258.262-.876h.36v.95h1.19v.484h-1.19v2.414c0 .247.058.437.175.569a.615.615 0 00.483.198zm1.969-3.664v2.661c0 .335.076.584.229.749.152.165.39.247.715.247.429 0 .742-.117.939-.352.2-.235.3-.618.3-1.149V99.7h.621v4.102h-.513l-.09-.55h-.033a1.24 1.24 0 01-.532.464 1.76 1.76 0 01-.771.161c-.499 0-.873-.118-1.123-.355-.247-.237-.371-.617-.371-1.138V99.7h.629zm6.772 2.983c0 .382-.143.676-.427.884-.284.207-.684.31-1.198.31-.544 0-.968-.086-1.273-.258v-.577c.198.1.408.179.633.236.227.058.446.086.655.086.325 0 .574-.051.749-.153a.519.519 0 00.262-.475c0-.16-.07-.296-.21-.408-.137-.115-.407-.25-.808-.405-.382-.142-.654-.265-.816-.37a1.17 1.17 0 01-.36-.363.96.96 0 01-.116-.483c0-.335.136-.598.408-.79.272-.195.645-.292 1.119-.292.442 0 .874.09 1.296.27l-.221.505c-.412-.17-.785-.255-1.119-.255-.295 0-.517.046-.667.139a.428.428 0 00-.224.382.47.47 0 00.082.28.85.85 0 00.273.221c.125.07.365.171.719.303.487.178.815.356.984.536a.935.935 0 01.259.677zm5.528 1.119l-.123-.584h-.03c-.205.257-.409.432-.614.524-.202.09-.455.135-.76.135-.407 0-.726-.105-.958-.314-.23-.21-.344-.508-.344-.895 0-.828.662-1.263 1.987-1.302l.696-.023v-.254c0-.322-.069-.559-.209-.712-.137-.154-.358-.232-.663-.232-.342 0-.728.105-1.16.315l-.191-.476c.202-.11.423-.196.663-.258.242-.062.484-.094.726-.094.489 0 .851.109 1.085.326.237.217.356.565.356 1.044v2.8h-.461zm-1.403-.438c.387 0 .69-.106.909-.318.222-.212.333-.509.333-.891v-.37l-.621.026c-.494.017-.851.095-1.07.232-.218.135-.326.346-.326.633 0 .224.067.395.202.512.137.118.328.176.573.176zm5.019-3.739c.183 0 .346.015.491.045l-.086.576a2.152 2.152 0 00-.45-.056c-.331 0-.616.135-.853.404-.235.27-.352.606-.352 1.007v2.201h-.621V99.7h.513l.071.76h.03c.152-.267.335-.473.55-.618.214-.145.45-.217.707-.217zm2.898 4.252c-.594 0-1.055-.182-1.382-.546-.324-.367-.486-.885-.486-1.554 0-.686.164-1.216.494-1.591.332-.374.803-.561 1.415-.561.197 0 .394.021.591.064.197.042.352.092.464.15l-.191.527a2.783 2.783 0 00-.449-.135 1.96 1.96 0 00-.43-.056c-.834 0-1.25.532-1.25 1.595 0 .504.101.891.303 1.16.204.27.506.404.906.404.341 0 .692-.073 1.051-.22v.55c-.274.142-.62.213-1.036.213zm2.597-4.177v2.661c0 .335.076.584.229.749.152.165.39.247.715.247.429 0 .742-.117.939-.352.2-.235.3-.618.3-1.149V99.7h.621v4.102h-.513l-.09-.55h-.033a1.24 1.24 0 01-.532.464 1.754 1.754 0 01-.771.161c-.499 0-.873-.118-1.123-.355-.247-.237-.37-.617-.37-1.138V99.7h.628zm8.763 2.983c0 .382-.142.676-.427.884-.284.207-.683.31-1.197.31-.544 0-.969-.086-1.273-.258v-.577c.197.1.408.179.633.236.227.058.445.086.655.086.324 0 .574-.051.748-.153a.517.517 0 00.262-.475c0-.16-.07-.296-.209-.408-.138-.115-.407-.25-.809-.405-.382-.142-.654-.265-.816-.37a1.167 1.167 0 01-.359-.363.95.95 0 01-.116-.483c0-.335.136-.598.408-.79.272-.195.645-.292 1.119-.292.442 0 .873.09 1.295.27l-.221.505c-.412-.17-.785-.255-1.119-.255-.294 0-.517.046-.666.139a.427.427 0 00-.225.382c0 .109.028.203.082.28a.856.856 0 00.274.221c.125.07.364.171.718.303.487.178.815.356.985.536a.938.938 0 01.258.677zm3.538 1.119l-.124-.584h-.03c-.205.257-.409.432-.614.524-.202.09-.455.135-.76.135-.406 0-.726-.105-.958-.314-.23-.21-.344-.508-.344-.895 0-.828.662-1.263 1.987-1.302l.697-.023v-.254c0-.322-.07-.559-.21-.712-.137-.154-.358-.232-.663-.232-.342 0-.728.105-1.16.315l-.191-.476c.202-.11.423-.196.663-.258.242-.062.484-.094.726-.094.489 0 .851.109 1.085.326.237.217.356.565.356 1.044v2.8h-.46zm-1.404-.438c.387 0 .69-.106.909-.318.223-.212.334-.509.334-.891v-.37l-.622.026c-.494.017-.851.095-1.07.232-.217.135-.326.346-.326.633 0 .224.067.395.202.512.137.118.328.176.573.176zm5.057.513c-.267 0-.512-.048-.734-.146a1.405 1.405 0 01-.554-.456h-.045c.03.239.045.466.045.681v1.688h-.621V99.7h.505l.086.561h.03a1.45 1.45 0 01.558-.486c.212-.1.455-.15.73-.15.544 0 .963.186 1.258.558.297.372.445.893.445 1.564 0 .674-.151 1.198-.453 1.572-.299.372-.716.558-1.25.558zm-.09-3.724c-.419 0-.722.116-.91.348-.187.232-.283.601-.288 1.108v.138c0 .577.096.99.288 1.239.193.247.501.371.925.371a.958.958 0 00.831-.431c.202-.287.303-.682.303-1.186 0-.512-.101-.903-.303-1.175-.2-.275-.482-.412-.846-.412zm3.504 3.649h-.622V99.7h.622v4.102zm-.674-5.214c0-.142.035-.246.105-.31a.362.362 0 01.262-.102c.1 0 .186.034.258.101.072.068.109.171.109.311 0 .14-.037.245-.109.315a.364.364 0 01-.258.1.362.362 0 01-.262-.1c-.07-.07-.105-.175-.105-.315zm3.724 5.289c-.606 0-1.085-.184-1.437-.554-.349-.369-.524-.882-.524-1.538 0-.662.162-1.187.487-1.576.326-.39.764-.584 1.313-.584.514 0 .921.17 1.221.509.299.337.449.782.449 1.336v.393h-2.826c.012.482.133.848.363 1.097.232.25.558.374.977.374.442 0 .878-.092 1.31-.277v.554c-.22.095-.428.163-.625.203a3.416 3.416 0 01-.708.063zm-.168-3.732c-.329 0-.593.108-.79.322-.195.215-.309.512-.344.891h2.145c0-.392-.088-.691-.262-.898-.175-.21-.425-.315-.749-.315zm5.547 3.657v-2.654c0-.334-.076-.583-.228-.748-.152-.165-.391-.247-.715-.247-.429 0-.744.116-.943.348-.2.232-.3.615-.3 1.149v2.152h-.621V99.7h.505l.101.561h.03a1.26 1.26 0 01.536-.468 1.72 1.72 0 01.767-.168c.494 0 .866.12 1.115.36.25.236.375.617.375 1.141v2.676h-.622zm2.553-.891l.056.087a9.29 9.29 0 01-.28.868c-.123.332-.25.64-.382.925h-.468c.067-.26.141-.581.221-.962.082-.382.14-.688.172-.918h.681zm5.866-.228c0 .382-.142.676-.427.884-.284.207-.684.31-1.198.31-.544 0-.968-.086-1.272-.258v-.577c.197.1.408.179.632.236.227.058.446.086.655.086.325 0 .574-.051.749-.153a.517.517 0 00.262-.475c0-.16-.07-.296-.21-.408-.137-.115-.406-.25-.808-.405-.382-.142-.654-.265-.816-.37a1.17 1.17 0 01-.36-.363.96.96 0 01-.116-.483c0-.335.136-.598.408-.79.272-.195.645-.292 1.12-.292.441 0 .873.09 1.295.27l-.221.505c-.412-.17-.785-.255-1.119-.255-.295 0-.517.046-.667.139a.428.428 0 00-.224.382.47.47 0 00.082.28.862.862 0 00.273.221c.125.07.365.171.719.303.487.178.815.356.985.536a.938.938 0 01.258.677zm2.747 1.194c-.606 0-1.085-.184-1.437-.554-.349-.369-.524-.882-.524-1.538 0-.662.162-1.187.486-1.576.327-.39.765-.584 1.314-.584.514 0 .921.17 1.221.509.299.337.449.782.449 1.336v.393h-2.826c.012.482.133.848.363 1.097.232.25.558.374.977.374.441 0 .878-.092 1.31-.277v.554c-.22.095-.428.163-.625.203a3.416 3.416 0 01-.708.063zm-.168-3.732c-.33 0-.593.108-.79.322-.195.215-.309.512-.344.891h2.145c0-.392-.088-.691-.262-.898-.175-.21-.425-.315-.749-.315zm5.532 3.107h-.033c-.287.417-.717.625-1.288.625-.537 0-.955-.183-1.254-.55-.297-.367-.445-.888-.445-1.565 0-.676.149-1.201.449-1.576.299-.374.716-.561 1.25-.561.556 0 .983.202 1.28.606h.049l-.026-.295-.015-.289v-1.669h.621v5.824h-.505l-.083-.55zm-1.242.105c.424 0 .731-.115.92-.344.193-.233.289-.606.289-1.12v-.131c0-.581-.098-.995-.292-1.242-.193-.25-.501-.375-.925-.375-.364 0-.644.143-.838.427-.193.282-.289.681-.289 1.198 0 .524.096.919.289 1.186.192.267.474.401.846.401zm6.876.52c-.607 0-1.086-.184-1.438-.554-.349-.369-.524-.882-.524-1.538 0-.662.163-1.187.487-1.576.327-.39.765-.584 1.314-.584.514 0 .921.17 1.22.509.3.337.449.782.449 1.336v.393h-2.826c.013.482.134.848.363 1.097.232.25.558.374.977.374.442 0 .879-.092 1.31-.277v.554a3.165 3.165 0 01-.625.203c-.194.042-.43.063-.707.063zm-.169-3.732c-.329 0-.592.108-.789.322-.195.215-.31.512-.345.891h2.145c0-.392-.087-.691-.262-.898-.175-.21-.424-.315-.749-.315zm3.362 3.657h-.622v-5.824h.622v5.824zm3.05.075c-.606 0-1.085-.184-1.437-.554-.349-.369-.524-.882-.524-1.538 0-.662.162-1.187.487-1.576.327-.39.765-.584 1.314-.584.514 0 .92.17 1.22.509.299.337.449.782.449 1.336v.393h-2.826c.012.482.133.848.363 1.097.232.25.558.374.977.374.442 0 .878-.092 1.31-.277v.554c-.22.095-.428.163-.625.203a3.416 3.416 0 01-.708.063zm-.168-3.732c-.329 0-.593.108-.79.322-.194.215-.309.512-.344.891h2.145c0-.392-.088-.691-.262-.898-.175-.21-.425-.315-.749-.315zm7.969 3.657v-2.669c0-.326-.07-.571-.209-.733-.14-.165-.357-.247-.652-.247-.386 0-.672.111-.857.333-.184.222-.277.564-.277 1.026v2.29h-.621v-2.669c0-.326-.07-.571-.21-.733-.14-.165-.358-.247-.655-.247-.389 0-.675.117-.857.352-.18.232-.27.613-.27 1.145v2.152h-.621V99.7h.505l.101.561h.03c.118-.199.282-.355.494-.468a1.53 1.53 0 01.719-.168c.642 0 1.061.232 1.258.696h.03a1.31 1.31 0 01.531-.509 1.65 1.65 0 01.794-.187c.464 0 .811.12 1.041.36.232.236.348.617.348 1.141v2.676h-.622zm3.639.075c-.607 0-1.086-.184-1.438-.554-.349-.369-.524-.882-.524-1.538 0-.662.162-1.187.487-1.576.327-.39.765-.584 1.314-.584.514 0 .921.17 1.22.509.299.337.449.782.449 1.336v.393h-2.826c.013.482.134.848.363 1.097.232.25.558.374.977.374.442 0 .879-.092 1.31-.277v.554a3.165 3.165 0 01-.625.203c-.195.042-.43.063-.707.063zm-.169-3.732c-.329 0-.592.108-.79.322-.194.215-.309.512-.344.891h2.145c0-.392-.087-.691-.262-.898-.175-.21-.424-.315-.749-.315zm5.548 3.657v-2.654c0-.334-.076-.583-.229-.748-.152-.165-.39-.247-.715-.247-.429 0-.743.116-.943.348-.2.232-.299.615-.299 1.149v2.152h-.622V99.7h.506l.101.561h.03c.127-.202.305-.358.535-.468a1.72 1.72 0 01.767-.168c.494 0 .866.12 1.116.36.249.236.374.617.374 1.141v2.676h-.621zm3.226-.438c.11 0 .216-.007.318-.022.103-.018.184-.035.244-.052v.475a1.121 1.121 0 01-.3.079 2.116 2.116 0 01-.352.033c-.793 0-1.19-.418-1.19-1.254v-2.44h-.588v-.3l.588-.258.262-.876h.359v.95h1.191v.484h-1.191v2.414c0 .247.059.437.176.569a.615.615 0 00.483.198zm1.969-3.664v2.661c0 .335.076.584.229.749.152.165.39.247.714.247.43 0 .743-.117.94-.352.2-.235.299-.618.299-1.149V99.7h.622v4.102h-.513l-.09-.55h-.033a1.24 1.24 0 01-.532.464 1.76 1.76 0 01-.771.161c-.499 0-.874-.118-1.123-.355-.247-.237-.371-.617-.371-1.138V99.7h.629zm9.354 4.102v-2.669c0-.326-.069-.571-.209-.733-.14-.165-.357-.247-.651-.247-.387 0-.673.111-.858.333-.184.222-.277.564-.277 1.026v2.29h-.621v-2.669c0-.326-.07-.571-.21-.733-.139-.165-.358-.247-.655-.247-.389 0-.675.117-.857.352-.18.232-.269.613-.269 1.145v2.152h-.622V99.7h.506l.101.561h.03c.117-.199.282-.355.494-.468.214-.112.454-.168.718-.168.642 0 1.061.232 1.258.696h.03c.122-.214.299-.384.532-.509.232-.125.496-.187.793-.187.464 0 .811.12 1.041.36.232.236.348.617.348 1.141v2.676h-.622zm6.69-.55h-.034c-.287.417-.716.625-1.288.625-.536 0-.954-.183-1.254-.55-.297-.367-.445-.888-.445-1.565 0-.676.15-1.201.449-1.576.299-.374.716-.561 1.25-.561.557 0 .983.202 1.28.606h.049l-.026-.295-.015-.289v-1.669h.621v5.824h-.505l-.082-.55zm-1.243.105c.424 0 .731-.115.921-.344.192-.233.288-.606.288-1.12v-.131c0-.581-.097-.995-.292-1.242-.192-.25-.5-.375-.925-.375-.364 0-.643.143-.838.427-.192.282-.288.681-.288 1.198 0 .524.096.919.288 1.186.192.267.474.401.846.401zm6.693-1.61c0 .669-.169 1.192-.506 1.569-.337.374-.802.561-1.396.561-.367 0-.692-.086-.977-.258a1.708 1.708 0 01-.659-.741 2.595 2.595 0 01-.232-1.131c0-.668.167-1.189.502-1.561.334-.374.798-.561 1.392-.561.574 0 1.03.19 1.367.573.339.381.509.898.509 1.549zm-3.126 0c0 .524.105.924.315 1.198.209.275.517.412.924.412.407 0 .715-.136.925-.408.212-.275.318-.675.318-1.202 0-.521-.106-.917-.318-1.186-.21-.272-.521-.408-.932-.408-.407 0-.714.133-.921.4-.207.267-.311.665-.311 1.194zm4.84 2.055h-.621v-5.824h.621v5.824zm4.859-2.055c0 .669-.169 1.192-.506 1.569-.337.374-.802.561-1.396.561-.367 0-.692-.086-.977-.258a1.708 1.708 0 01-.659-.741 2.595 2.595 0 01-.232-1.131c0-.668.167-1.189.502-1.561.334-.374.798-.561 1.392-.561.574 0 1.03.19 1.367.573.339.381.509.898.509 1.549zm-3.126 0c0 .524.105.924.315 1.198.209.275.517.412.924.412.407 0 .715-.136.925-.408.212-.275.318-.675.318-1.202 0-.521-.106-.917-.318-1.186-.21-.272-.521-.408-.932-.408-.407 0-.714.133-.921.4-.207.267-.311.665-.311 1.194zm6.09-2.122c.182 0 .346.015.491.045l-.086.576a2.152 2.152 0 00-.45-.056c-.332 0-.616.135-.853.404-.235.27-.352.606-.352 1.007v2.201h-.621V99.7h.513l.071.76h.03c.152-.267.335-.473.55-.618.214-.145.45-.217.707-.217zm4.148 4.177l-1.557-4.102h.666l.883 2.433c.2.569.317.938.352 1.108h.03c.028-.132.114-.406.258-.82.148-.417.476-1.324.985-2.721h.666l-1.557 4.102h-.726zm4.675.075c-.606 0-1.086-.184-1.437-.554-.35-.369-.524-.882-.524-1.538 0-.662.162-1.187.486-1.576.327-.39.765-.584 1.314-.584.514 0 .921.17 1.22.509.3.337.45.782.45 1.336v.393h-2.827c.013.482.134.848.363 1.097.233.25.558.374.977.374.442 0 .879-.092 1.311-.277v.554c-.22.095-.428.163-.626.203-.194.042-.43.063-.707.063zm-.168-3.732c-.33 0-.593.108-.79.322-.195.215-.31.512-.345.891h2.145c0-.392-.087-.691-.262-.898-.174-.21-.424-.315-.748-.315zm5.547 3.657v-2.654c0-.334-.076-.583-.228-.748-.153-.165-.391-.247-.715-.247-.432 0-.748.117-.947.352-.197.234-.296.618-.296 1.153v2.144h-.621v-5.824h.621v1.763c0 .212-.01.388-.03.528h.037c.123-.197.296-.352.521-.464.227-.115.485-.173.775-.173.501 0 .877.12 1.126.36.252.237.378.615.378 1.134v2.676h-.621zm2.523 0h-.621V99.7h.621v4.102zm-.674-5.214c0-.142.035-.246.105-.31a.362.362 0 01.262-.102c.1 0 .186.034.258.101.073.068.109.171.109.311 0 .14-.036.245-.109.315a.364.364 0 01-.258.1.362.362 0 01-.262-.1c-.07-.07-.105-.175-.105-.315zm3.631 5.289c-.594 0-1.054-.182-1.381-.546-.325-.367-.487-.885-.487-1.554 0-.686.165-1.216.494-1.591.332-.374.804-.561 1.415-.561.197 0 .394.021.592.064.197.042.352.092.464.15l-.191.527a2.783 2.783 0 00-.449-.135 1.968 1.968 0 00-.431-.056c-.833 0-1.25.532-1.25 1.595 0 .504.101.891.303 1.16.205.27.507.404.906.404.342 0 .693-.073 1.052-.22v.55c-.275.142-.62.213-1.037.213zm2.598-4.177v2.661c0 .335.076.584.228.749.152.165.391.247.715.247.429 0 .742-.117.94-.352.199-.235.299-.618.299-1.149V99.7h.621v4.102h-.512l-.09-.55h-.034a1.232 1.232 0 01-.531.464 1.762 1.762 0 01-.772.161c-.499 0-.873-.118-1.122-.355-.248-.237-.371-.617-.371-1.138V99.7h.629zm4.746 4.102h-.621v-5.824h.621v5.824z" fill="#fff"/><rect x="637.182" y="117.875" width="85.178" height="23.85" rx="1.704" fill="#454545"/><g clip-path="url(#prefix__clip7_6886_96836)" fill="#fff"><path d="M666.553 127.075l-1.76-1.761-2.726 2.726-2.726-2.726-1.76 1.761 2.726 2.726-2.726 2.725 1.76 1.761 2.726-2.726 2.726 2.726 1.76-1.761-2.726-2.725 2.726-2.726zM676.196 128.196c-.533 0-.947.201-1.239.604-.293.4-.44.958-.44 1.674 0 1.492.56 2.238 1.679 2.238.47 0 1.039-.118 1.707-.353v1.19c-.549.229-1.162.343-1.839.343-.973 0-1.717-.294-2.233-.883-.515-.592-.773-1.44-.773-2.544 0-.695.127-1.304.38-1.825a2.725 2.725 0 011.089-1.203c.475-.281 1.032-.421 1.669-.421.65 0 1.303.157 1.959.471l-.458 1.153a7.462 7.462 0 00-.755-.311 2.24 2.24 0 00-.746-.133zm6.379 5.605l-.27-.696h-.036c-.235.296-.478.502-.728.618-.247.113-.57.169-.97.169-.491 0-.878-.14-1.162-.421-.28-.28-.421-.68-.421-1.199 0-.542.19-.942.568-1.198.381-.259.954-.403 1.72-.43l.888-.028v-.224c0-.518-.266-.778-.797-.778-.408 0-.889.124-1.441.371l-.462-.942a4.15 4.15 0 011.958-.463c.687 0 1.213.15 1.579.449.366.299.549.753.549 1.363v3.409h-.975zm-.411-2.37l-.54.018c-.406.012-.708.085-.906.22-.198.134-.298.338-.298.613 0 .393.226.59.678.59.323 0 .581-.093.773-.279.195-.186.293-.433.293-.741v-.421zm7.655 2.37h-1.396v-2.988c0-.369-.065-.645-.196-.828-.131-.186-.34-.279-.627-.279-.391 0-.673.131-.846.393-.174.26-.261.691-.261 1.295v2.407h-1.396v-5.115h1.066l.188.654h.078a1.46 1.46 0 01.64-.558c.275-.128.586-.192.934-.192.594 0 1.046.161 1.354.485.308.32.462.783.462 1.39v3.336zm3.62.091c-1.592 0-2.388-.874-2.388-2.621 0-.87.216-1.533.649-1.991.433-.46 1.054-.69 1.862-.69.592 0 1.123.115 1.593.347l-.412 1.08a6.726 6.726 0 00-.613-.215 1.93 1.93 0 00-.568-.087c-.726 0-1.088.515-1.088 1.546 0 1.001.362 1.501 1.088 1.501.269 0 .517-.035.746-.105.229-.073.458-.186.686-.339v1.194a2.223 2.223 0 01-.686.298 3.81 3.81 0 01-.869.082zm4.97-4.31c-.296 0-.528.095-.696.284-.168.186-.264.451-.288.796h1.958c-.006-.345-.096-.61-.27-.796-.174-.189-.409-.284-.704-.284zm.196 4.31c-.823 0-1.467-.227-1.93-.682-.464-.454-.696-1.098-.696-1.93 0-.857.214-1.519.641-1.986.43-.47 1.023-.704 1.779-.704.723 0 1.286.205 1.689.617.402.412.604.981.604 1.707v.677h-3.299c.015.396.133.706.352.929.22.222.528.334.924.334a3.837 3.837 0 001.734-.403v1.08a3.2 3.2 0 01-.782.27 4.82 4.82 0 01-1.016.091zm4.723-.091h-1.395v-7.119h1.395v7.119z"/></g><rect x="729.175" y="117.875" width="85.178" height="23.85" rx="1.704" fill="#FC0"/><g clip-path="url(#prefix__clip8_6886_96836)" fill="#000"><path d="M751.971 134.031l-.937-.937-.908-.909-.937-.936-.909-.909.369-.398.398-.397.397-.369.398-.398.511.54.539.511.54.539.539.54 1.335-1.335 1.334-1.334 1.335-1.335 1.306-1.334.397.397.398.398.397.369.369.398-1.703 1.732-1.732 1.731-1.732 1.704-1.704 1.732zM769.127 133.801l-.485-1.593h-2.438l-.485 1.593h-1.528l2.36-6.717h1.734l2.37 6.717h-1.528zm-.823-2.782a1159.05 1159.05 0 01-.76-2.448 8.07 8.07 0 01-.119-.448c-.101.39-.389 1.356-.865 2.896h1.744zm5.271 2.873c-1.592 0-2.388-.874-2.388-2.621 0-.87.217-1.533.65-1.991.433-.46 1.053-.69 1.862-.69.591 0 1.122.115 1.592.347l-.412 1.08a6.726 6.726 0 00-.613-.215 1.924 1.924 0 00-.567-.087c-.726 0-1.089.515-1.089 1.546 0 1.001.363 1.501 1.089 1.501.268 0 .517-.035.745-.105.229-.073.458-.186.687-.339v1.194a2.238 2.238 0 01-.687.298 3.804 3.804 0 01-.869.082zm4.929 0c-1.592 0-2.388-.874-2.388-2.621 0-.87.216-1.533.649-1.991.433-.46 1.054-.69 1.862-.69.592 0 1.123.115 1.592.347l-.411 1.08a6.726 6.726 0 00-.613-.215 1.935 1.935 0 00-.568-.087c-.726 0-1.089.515-1.089 1.546 0 1.001.363 1.501 1.089 1.501.269 0 .517-.035.746-.105.229-.073.457-.186.686-.339v1.194a2.223 2.223 0 01-.686.298 3.816 3.816 0 01-.869.082zm4.969-4.31c-.295 0-.527.095-.695.284-.168.186-.264.451-.288.796h1.958c-.006-.345-.096-.61-.27-.796-.174-.189-.409-.284-.705-.284zm.197 4.31c-.823 0-1.467-.227-1.93-.682-.464-.454-.696-1.098-.696-1.93 0-.857.214-1.519.641-1.986.43-.47 1.023-.704 1.779-.704.723 0 1.286.205 1.688.617.403.412.604.981.604 1.707v.677h-3.298c.015.396.132.706.352.929.22.222.528.334.924.334a3.837 3.837 0 001.734-.403v1.08a3.214 3.214 0 01-.782.27 4.82 4.82 0 01-1.016.091zm6.137 0c-.601 0-1.073-.218-1.414-.654h-.073c.048.427.073.674.073.741v2.072h-1.396v-7.365h1.135l.197.663h.064c.326-.506.81-.759 1.45-.759.604 0 1.077.233 1.418.7.342.466.513 1.114.513 1.944 0 .546-.081 1.02-.243 1.423-.158.402-.386.709-.681.919a1.75 1.75 0 01-1.043.316zm-.412-4.186c-.345 0-.597.107-.755.32-.159.211-.241.56-.247 1.048v.151c0 .549.081.942.242 1.18.165.238.424.357.778.357.625 0 .938-.515.938-1.546 0-.504-.078-.88-.233-1.13-.153-.254-.394-.38-.723-.38zm5.793 3.074c.244 0 .537-.053.878-.16v1.039c-.347.155-.774.233-1.281.233-.558 0-.965-.14-1.221-.421-.253-.284-.38-.707-.38-1.272v-2.466h-.668v-.59l.769-.466.402-1.08h.893v1.089h1.431v1.047h-1.431v2.466c0 .199.054.345.164.439a.667.667 0 00.444.142z"/></g><rect x="262.426" y="63.86" width="562.148" height="88.087" rx="2.981" stroke="#585C65" stroke-width=".852"/></g></g><defs><clipPath id="prefix__clip0_6886_96836"><path fill="#fff" transform="translate(256.25 22.37)" d="M0 0h574.5v325.064H0z"/></clipPath><clipPath id="prefix__clip1_6886_96836"><path fill="#fff" transform="translate(256.25 22.37)" d="M0 0h574.5v37.064H0z"/></clipPath><clipPath id="prefix__clip2_6886_96836"><path fill="#fff" transform="translate(783.067 76.62)" d="M0 0h24.546v25.209H0z"/></clipPath><clipPath id="prefix__clip3_6886_96836"><path fill="#fff" transform="translate(783.067 120.403)" d="M0 0h24.546v25.209H0z"/></clipPath><clipPath id="prefix__clip4_6886_96836"><path fill="#fff" transform="translate(783.067 164.187)" d="M0 0h24.546v25.209H0z"/></clipPath><clipPath id="prefix__clip5_6886_96836"><path fill="#fff" transform="translate(783.73 209.298)" d="M0 0h24.546v25.209H0z"/></clipPath><clipPath id="prefix__clip6_6886_96836"><path fill="#fff" transform="translate(272.647 74.082)" d="M0 0h23.85v23.85H0z"/></clipPath><clipPath id="prefix__clip7_6886_96836"><path fill="#fff" transform="translate(655.253 122.986)" d="M0 0h49.036v13.629H0z"/></clipPath><clipPath id="prefix__clip8_6886_96836"><path fill="#fff" transform="translate(746.746 122.986)" d="M0 0h50.036v13.629H0z"/></clipPath><filter id="prefix__filter0_ddd_6886_96836" x="254.334" y="57.472" width="578.332" height="105.122" filterUnits="userSpaceOnUse" color-interpolation-filters="sRGB"><feFlood flood-opacity="0" result="BackgroundImageFix"/><feColorMatrix in="SourceAlpha" values="0 0 0 0 0 0 0 0 0 0 0 0 0 0 0 0 0 0 127 0" result="hardAlpha"/><feOffset dy="1.704"/><feGaussianBlur stdDeviation="3.833"/><feColorMatrix values="0 0 0 0 0 0 0 0 0 0 0 0 0 0 0 0 0 0 0.12 0"/><feBlend in2="BackgroundImageFix" result="effect1_dropShadow_6886_96836"/><feColorMatrix in="SourceAlpha" values="0 0 0 0 0 0 0 0 0 0 0 0 0 0 0 0 0 0 127 0" result="hardAlpha"/><feOffset dy="4.259"/><feGaussianBlur stdDeviation="2.981"/><feColorMatrix values="0 0 0 0 0 0 0 0 0 0 0 0 0 0 0 0 0 0 0.14 0"/><feBlend in2="effect1_dropShadow_6886_96836" result="effect2_dropShadow_6886_96836"/><feColorMatrix in="SourceAlpha" values="0 0 0 0 0 0 0 0 0 0 0 0 0 0 0 0 0 0 127 0" result="hardAlpha"/><feOffset dy="2.555"/><feGaussianBlur stdDeviation="1.278"/><feColorMatrix values="0 0 0 0 0 0 0 0 0 0 0 0 0 0 0 0 0 0 0.2 0"/><feBlend in2="effect2_dropShadow_6886_96836" result="effect3_dropShadow_6886_96836"/><feBlend in="SourceGraphic" in2="effect3_dropShadow_6886_96836" result="shape"/></filter></defs></svg>