<svg fill="none" height="313" width="1051" xmlns="http://www.w3.org/2000/svg" xmlns:xlink="http://www.w3.org/1999/xlink"><clipPath id="a"><path d="m0 0h115v32h-115z" transform="translate(557.5 202.968)"/></clipPath><clipPath id="b"><path d="m0 0h116v32h-116z" transform="translate(773 202.968)"/></clipPath><filter id="c" color-interpolation-filters="sRGB" filterUnits="userSpaceOnUse" height="269" width="897" x="77" y="26.968"><feFlood flood-opacity="0" result="BackgroundImageFix"/><feColorMatrix in="SourceAlpha" result="hardAlpha" values="0 0 0 0 0 0 0 0 0 0 0 0 0 0 0 0 0 0 127 0"/><feOffset dy="4"/><feGaussianBlur stdDeviation="9"/><feColorMatrix values="0 0 0 0 0 0 0 0 0 0 0 0 0 0 0 0 0 0 0.12 0"/><feBlend in2="BackgroundImageFix" result="effect1_dropShadow_4868_83635"/><feColorMatrix in="SourceAlpha" result="hardAlpha" values="0 0 0 0 0 0 0 0 0 0 0 0 0 0 0 0 0 0 127 0"/><feOffset dy="10"/><feGaussianBlur stdDeviation="7"/><feColorMatrix values="0 0 0 0 0 0 0 0 0 0 0 0 0 0 0 0 0 0 0.14 0"/><feBlend in2="effect1_dropShadow_4868_83635" result="effect2_dropShadow_4868_83635"/><feColorMatrix in="SourceAlpha" result="hardAlpha" values="0 0 0 0 0 0 0 0 0 0 0 0 0 0 0 0 0 0 127 0"/><feOffset dy="6"/><feGaussianBlur stdDeviation="3"/><feColorMatrix values="0 0 0 0 0 0 0 0 0 0 0 0 0 0 0 0 0 0 0.2 0"/><feBlend in2="effect2_dropShadow_4868_83635" result="effect3_dropShadow_4868_83635"/><feBlend in="SourceGraphic" in2="effect3_dropShadow_4868_83635" result="shape"/></filter><path d="m0 .468h1051v312h-1051z" fill="#f1f1f6"/><g filter="url(#c)"><path d="m95 48.968a8 8 0 0 1 8-8h845a8 8 0 0 1 8 8v215a8 8 0 0 1 -8 8h-845a8 8 0 0 1 -8-8z" fill="#000"/><path d="m165.85 118.935h-35.7c-5.25 0-9.567-4.317-9.567-9.567 0-1.633.467-3.267 1.284-4.783l17.85-30.8c2.683-4.55 8.516-6.184 13.066-3.5 1.4.816 2.684 1.983 3.5 3.5l17.85 30.916c2.684 4.55 1.05 10.384-3.5 13.067-1.516.817-3.15 1.167-4.783 1.167zm-17.85-46.434c-2.217 0-4.2 1.167-5.25 3.033l-17.85 30.917c-1.633 2.917-.7 6.65 2.217 8.284.933.583 1.983.816 3.033.816h35.7a6.025 6.025 0 0 0 6.067-6.066c0-1.05-.234-2.1-.817-3.034l-17.85-31.033c-1.05-1.868-3.033-2.918-5.25-2.918z" fill="#ff8b00"/><path d="m144.85 83.468h5.6v17.383h-5.6zm0 20.533h5.6v5.367h-5.6zm71.564-2.033h-4.481l-2.514-9.75a50.788 50.788 0 0 1 -.482-2.146c-.221-1.091-.347-1.824-.381-2.196-.051.457-.178 1.193-.381 2.209a49.511 49.511 0 0 1 -.47 2.158l-2.501 9.725h-4.469l-4.735-18.56h3.872l2.374 10.13c.415 1.87.715 3.491.901 4.862.051-.482.165-1.227.343-2.234.186-1.016.36-1.803.521-2.361l2.704-10.398h3.72l2.704 10.398c.118.465.266 1.176.444 2.132.178.957.313 1.778.406 2.463.085-.66.22-1.48.407-2.463.186-.99.355-1.79.507-2.399l2.362-10.13h3.872zm15.918 0-.749-1.93h-.102c-.652.821-1.324 1.392-2.019 1.714-.685.313-1.582.47-2.691.47-1.363 0-2.437-.39-3.225-1.168-.778-.779-1.167-1.888-1.167-3.326 0-1.507.524-2.616 1.574-3.327 1.058-.719 2.649-1.117 4.773-1.193l2.463-.076v-.622c0-1.439-.736-2.158-2.209-2.158-1.134 0-2.467.342-3.999 1.028l-1.282-2.615c1.633-.855 3.444-1.283 5.433-1.283 1.905 0 3.365.415 4.38 1.245 1.016.829 1.524 2.09 1.524 3.783v9.458zm-1.143-6.576-1.498.05c-1.126.034-1.964.237-2.514.61-.55.372-.825.94-.825 1.7 0 1.093.626 1.639 1.879 1.639.897 0 1.612-.259 2.146-.775.541-.516.812-1.202.812-2.056zm15.918-7.884c.524 0 .96.038 1.307.114l-.292 3.63a4.435 4.435 0 0 0 -1.142-.126c-1.236 0-2.201.317-2.895.952-.685.635-1.028 1.524-1.028 2.666v7.224h-3.872v-14.194h2.932l.572 2.387h.19a5.308 5.308 0 0 1 1.777-1.917 4.404 4.404 0 0 1 2.451-.736zm17.136 14.46h-3.872v-8.29c0-1.024-.182-1.79-.546-2.298-.364-.516-.944-.774-1.739-.774-1.084 0-1.866.363-2.349 1.091-.482.72-.724 1.917-.724 3.593v6.678h-3.872v-14.194h2.958l.521 1.816h.216a4.056 4.056 0 0 1 1.777-1.549c.762-.355 1.625-.533 2.59-.533 1.65 0 2.903.448 3.758 1.346.855.888 1.282 2.175 1.282 3.859zm3.971-17.862c0-1.262.703-1.892 2.108-1.892s2.107.63 2.107 1.892c0 .6-.178 1.07-.533 1.409-.347.33-.872.495-1.574.495-1.405 0-2.108-.635-2.108-1.904zm4.037 17.862h-3.872v-14.194h3.872zm17.327 0h-3.872v-8.29c0-1.024-.182-1.79-.546-2.298-.364-.516-.944-.774-1.739-.774-1.083 0-1.866.363-2.349 1.091-.482.72-.723 1.917-.723 3.593v6.678h-3.872v-14.194h2.958l.52 1.816h.216a4.061 4.061 0 0 1 1.777-1.549c.762-.355 1.625-.533 2.59-.533 1.65 0 2.903.448 3.758 1.346.855.888 1.282 2.175 1.282 3.859zm16.489-14.194v1.968l-2.222.572c.407.634.61 1.345.61 2.132 0 1.524-.534 2.713-1.6 3.568-1.058.846-2.531 1.27-4.418 1.27l-.698-.039-.571-.063c-.398.304-.597.643-.597 1.015 0 .559.711.838 2.133.838h2.412c1.557 0 2.742.335 3.555 1.003.82.669 1.231 1.65 1.231 2.945 0 1.659-.694 2.946-2.082 3.86-1.38.914-3.364 1.371-5.954 1.371-1.981 0-3.496-.347-4.545-1.041-1.041-.686-1.562-1.651-1.562-2.895 0-.854.267-1.57.8-2.145.533-.576 1.316-.986 2.349-1.232a2.603 2.603 0 0 1 -1.041-.825c-.296-.39-.445-.8-.445-1.231 0-.542.157-.99.47-1.346.313-.364.766-.72 1.359-1.066a3.845 3.845 0 0 1 -1.778-1.55c-.431-.71-.647-1.548-.647-2.513 0-1.549.503-2.746 1.511-3.593 1.007-.846 2.445-1.27 4.316-1.27.398 0 .867.039 1.409.115.55.068.901.119 1.054.152zm-10.956 16.2c0 .533.254.952.762 1.256.516.305 1.235.458 2.158.458 1.388 0 2.475-.191 3.263-.572.787-.381 1.18-.901 1.18-1.561 0-.534-.233-.902-.698-1.105-.466-.203-1.185-.304-2.158-.304h-2.006c-.711 0-1.308.165-1.79.495-.474.338-.711.783-.711 1.333zm1.409-11.553c0 .77.174 1.38.521 1.828.355.449.893.673 1.612.673.728 0 1.261-.224 1.6-.673.338-.448.507-1.058.507-1.828 0-1.71-.702-2.565-2.107-2.565-1.422 0-2.133.855-2.133 2.565zm30.094-.28h1.295c1.21 0 2.115-.236 2.716-.71.601-.483.902-1.181.902-2.095 0-.923-.254-1.604-.762-2.044-.499-.44-1.286-.66-2.361-.66h-1.79v5.51zm8.886-2.945c0 1.998-.626 3.525-1.879 4.583-1.244 1.058-3.017 1.587-5.319 1.587h-1.688v6.602h-3.936v-18.56h5.929c2.251 0 3.961.486 5.129 1.46 1.176.964 1.764 2.407 1.764 4.328zm11.271-1.688c.525 0 .961.038 1.308.114l-.292 3.63a4.435 4.435 0 0 0 -1.142-.126c-1.236 0-2.201.317-2.895.952-.686.635-1.028 1.524-1.028 2.666v7.224h-3.872v-14.194h2.932l.572 2.387h.19a5.3 5.3 0 0 1 1.777-1.917 4.404 4.404 0 0 1 2.45-.736zm7.12 7.338c0 1.405.229 2.467.686 3.186.465.72 1.219 1.08 2.26 1.08 1.032 0 1.773-.356 2.221-1.067.457-.72.686-1.786.686-3.2 0-1.404-.229-2.458-.686-3.16-.457-.703-1.206-1.054-2.247-1.054-1.032 0-1.777.351-2.234 1.054-.457.694-.686 1.747-.686 3.16zm9.814 0c0 2.31-.61 4.117-1.828 5.421-1.219 1.303-2.916 1.955-5.091 1.955-1.363 0-2.565-.297-3.606-.889-1.041-.601-1.841-1.46-2.399-2.577-.559-1.117-.838-2.42-.838-3.91 0-2.32.605-4.122 1.815-5.409 1.211-1.286 2.912-1.93 5.104-1.93 1.363 0 2.564.297 3.605.89 1.041.592 1.841 1.442 2.4 2.551.558 1.109.838 2.408.838 3.898zm16.057 7.122h-3.872v-8.29c0-1.024-.174-1.79-.521-2.298-.338-.516-.876-.774-1.612-.774-.99 0-1.71.363-2.158 1.091-.449.728-.673 1.926-.673 3.593v6.678h-3.872v-14.194h2.958l.52 1.816h.216c.381-.652.931-1.16 1.651-1.524.719-.372 1.544-.558 2.475-.558 2.125 0 3.563.694 4.317 2.082h.342c.381-.66.94-1.172 1.676-1.536.745-.364 1.583-.546 2.514-.546 1.608 0 2.822.415 3.643 1.244.83.82 1.245 2.141 1.245 3.96v9.256h-3.885v-8.29c0-1.024-.174-1.79-.521-2.298-.338-.516-.876-.774-1.612-.774-.948 0-1.659.338-2.133 1.015-.465.677-.698 1.752-.698 3.225zm20.78.254c-1.668 0-2.975-.605-3.923-1.816h-.203c.135 1.185.203 1.871.203 2.057v5.751h-3.872v-20.44h3.148l.546 1.841h.178c.906-1.405 2.247-2.107 4.024-2.107 1.676 0 2.988.647 3.936 1.942s1.422 3.094 1.422 5.396c0 1.515-.225 2.83-.673 3.948-.44 1.117-1.071 1.968-1.892 2.552s-1.785.876-2.894.876zm-1.143-11.616c-.956 0-1.654.296-2.095.888-.44.584-.668 1.553-.685 2.907v.42c0 1.523.224 2.615.673 3.275.457.66 1.176.99 2.158.99 1.735 0 2.603-1.43 2.603-4.291 0-1.397-.216-2.442-.648-3.136-.423-.702-1.092-1.053-2.006-1.053zm15.93 8.53c.678 0 1.49-.147 2.438-.444v2.882c-.965.432-2.15.648-3.555.648-1.549 0-2.678-.39-3.389-1.168-.703-.787-1.054-1.964-1.054-3.53v-6.842h-1.854v-1.638l2.133-1.295 1.117-2.996h2.476v3.021h3.974v2.908h-3.974v6.842c0 .55.152.957.457 1.22.313.261.724.393 1.231.393zm-217.562 36.832v-12.85h1.494v11.496h5.669v1.354zm17.446-4.825c0 1.57-.396 2.797-1.187 3.682-.791.879-1.883 1.319-3.278 1.319-.861 0-1.626-.203-2.294-.607s-1.183-.984-1.547-1.74c-.363-.756-.545-1.641-.545-2.654 0-1.571.393-2.792 1.178-3.665.785-.879 1.875-1.319 3.27-1.319 1.347 0 2.417.448 3.208 1.345.796.896 1.195 2.109 1.195 3.639zm-7.339 0c0 1.23.246 2.168.738 2.812.492.645 1.216.967 2.171.967s1.679-.319 2.171-.958c.498-.645.747-1.585.747-2.821 0-1.225-.249-2.154-.747-2.787-.492-.638-1.222-.958-2.188-.958-.955 0-1.676.314-2.162.941-.487.627-.73 1.561-.73 2.804zm14.3-4.984c.428 0 .811.035 1.151.106l-.202 1.353a4.961 4.961 0 0 0 -1.055-.132c-.779 0-1.447.317-2.004.95-.55.632-.826 1.42-.826 2.364v5.168h-1.459v-9.633h1.204l.167 1.784h.071c.357-.627.788-1.11 1.292-1.45a2.906 2.906 0 0 1 1.661-.51zm7.022 9.985c-1.424 0-2.549-.434-3.375-1.301-.82-.867-1.23-2.072-1.23-3.613 0-1.552.381-2.786 1.142-3.7.768-.914 1.796-1.371 3.085-1.371 1.207 0 2.162.399 2.866 1.195.703.792 1.054 1.837 1.054 3.138v.923h-6.635c.029 1.131.313 1.989.852 2.575.545.586 1.31.879 2.294.879a7.766 7.766 0 0 0 3.076-.65v1.301a7.501 7.501 0 0 1 -1.468.474c-.457.1-1.01.15-1.661.15zm-.395-8.763c-.774 0-1.392.252-1.855.756-.457.504-.726 1.201-.808 2.092h5.036c0-.92-.205-1.624-.615-2.11-.411-.492-.997-.738-1.758-.738zm18.712 8.587v-6.267c0-.767-.164-1.342-.492-1.722-.329-.387-.838-.581-1.53-.581-.908 0-1.579.261-2.012.783-.434.521-.651 1.324-.651 2.408v5.379h-1.459v-6.267c0-.767-.164-1.342-.492-1.722-.328-.387-.841-.581-1.538-.581-.914 0-1.585.276-2.013.827-.422.545-.633 1.441-.633 2.689v5.054h-1.459v-9.633h1.187l.237 1.318h.071a2.87 2.87 0 0 1 1.16-1.098 3.579 3.579 0 0 1 1.687-.396c1.506 0 2.49.545 2.953 1.635h.071a3.07 3.07 0 0 1 1.248-1.195c.545-.293 1.166-.44 1.863-.44 1.09 0 1.904.281 2.443.844.545.557.818 1.45.818 2.681v6.284zm10.608 0h-1.459v-9.633h1.459zm-1.582-12.243c0-.334.082-.578.246-.73a.851.851 0 0 1 .615-.237.86.86 0 0 1 .607.237c.17.158.255.401.255.73 0 .328-.085.574-.255.738a.86.86 0 0 1 -.607.237.851.851 0 0 1 -.615-.237c-.164-.164-.246-.41-.246-.738zm9.158 12.419a4.25 4.25 0 0 1 -1.722-.343 3.277 3.277 0 0 1 -1.301-1.072h-.106c.071.562.106 1.095.106 1.599v3.964h-1.459v-13.957h1.186l.203 1.318h.07c.375-.527.811-.908 1.309-1.142.498-.235 1.07-.352 1.714-.352 1.278 0 2.262.437 2.953 1.31.698.873 1.046 2.097 1.046 3.674 0 1.582-.354 2.812-1.063 3.691-.703.873-1.682 1.31-2.936 1.31zm-.211-8.746c-.984 0-1.696.273-2.135.818-.44.545-.665 1.412-.677 2.601v.326c0 1.353.225 2.323.677 2.909.451.58 1.174.87 2.17.87.833 0 1.483-.337 1.952-1.011.474-.674.712-1.602.712-2.786 0-1.201-.238-2.121-.712-2.76-.469-.644-1.131-.967-1.987-.967zm12.982 5.942c0 .896-.334 1.588-1.002 2.074s-1.606.73-2.813.73c-1.277 0-2.273-.203-2.988-.607v-1.353c.463.234.958.419 1.485.553a6.267 6.267 0 0 0 1.538.202c.762 0 1.348-.12 1.758-.36.41-.246.616-.618.616-1.116 0-.375-.165-.694-.493-.958-.322-.27-.955-.586-1.898-.949-.897-.334-1.535-.624-1.916-.87-.375-.252-.656-.537-.844-.853-.182-.316-.272-.694-.272-1.134 0-.785.319-1.403.958-1.854.638-.457 1.514-.686 2.628-.686a7.69 7.69 0 0 1 3.041.633l-.519 1.187c-.967-.399-1.843-.598-2.628-.598-.691 0-1.213.108-1.564.325-.352.217-.528.516-.528.897 0 .257.065.477.194.659.134.181.348.354.641.518s.856.402 1.688.712c1.142.416 1.913.835 2.311 1.257.405.422.607.952.607 1.591zm3.753-7.005v6.249c0 .785.178 1.371.536 1.758.357.387.917.58 1.679.58 1.007 0 1.743-.276 2.206-.826.468-.551.703-1.45.703-2.699v-5.062h1.459v9.633h-1.204l-.211-1.292h-.079a2.91 2.91 0 0 1 -1.248 1.09c-.528.252-1.131.378-1.811.378-1.172 0-2.051-.279-2.637-.835-.58-.557-.87-1.448-.87-2.672v-6.302zm21.964 9.633v-6.267c0-.767-.164-1.342-.493-1.722-.328-.387-.838-.581-1.529-.581-.908 0-1.579.261-2.013.783-.433.521-.65 1.324-.65 2.408v5.379h-1.459v-6.267c0-.767-.164-1.342-.492-1.722-.328-.387-.841-.581-1.538-.581-.914 0-1.585.276-2.013.827-.422.545-.633 1.441-.633 2.689v5.054h-1.459v-9.633h1.187l.237 1.318h.07a2.873 2.873 0 0 1 1.161-1.098 3.576 3.576 0 0 1 1.687-.396c1.506 0 2.49.545 2.953 1.635h.07a3.078 3.078 0 0 1 1.249-1.195c.544-.293 1.166-.44 1.863-.44 1.09 0 1.904.281 2.443.844.545.557.818 1.45.818 2.681v6.284zm15.706-1.292h-.079c-.674.978-1.682 1.468-3.024 1.468-1.26 0-2.241-.431-2.944-1.292-.698-.862-1.046-2.086-1.046-3.674s.351-2.822 1.055-3.7c.703-.879 1.681-1.319 2.935-1.319 1.307 0 2.309.475 3.006 1.424h.114l-.061-.694-.035-.677v-3.92h1.459v13.676h-1.187zm-2.918.246c.996 0 1.716-.27 2.162-.809.451-.545.677-1.421.677-2.628v-.307c0-1.366-.229-2.338-.686-2.918-.451-.586-1.175-.879-2.171-.879-.855 0-1.512.334-1.969 1.002-.451.662-.676 1.599-.676 2.812 0 1.231.225 2.159.676 2.786.452.627 1.114.941 1.987.941zm15.715-3.779c0 1.57-.396 2.797-1.187 3.682-.791.879-1.884 1.319-3.278 1.319-.862 0-1.626-.203-2.294-.607s-1.184-.984-1.547-1.74-.545-1.641-.545-2.654c0-1.571.392-2.792 1.178-3.665.785-.879 1.875-1.319 3.269-1.319 1.348 0 2.417.448 3.208 1.345.797.896 1.196 2.109 1.196 3.639zm-7.339 0c0 1.23.246 2.168.738 2.812.492.645 1.216.967 2.171.967s1.679-.319 2.171-.958c.498-.645.747-1.585.747-2.821 0-1.225-.249-2.154-.747-2.787-.492-.638-1.222-.958-2.189-.958-.955 0-1.676.314-2.162.941s-.729 1.561-.729 2.804zm11.364 4.825h-1.459v-13.676h1.459zm11.408-4.825c0 1.57-.395 2.797-1.186 3.682-.791.879-1.884 1.319-3.279 1.319-.861 0-1.626-.203-2.294-.607s-1.183-.984-1.547-1.74c-.363-.756-.544-1.641-.544-2.654 0-1.571.392-2.792 1.177-3.665.785-.879 1.875-1.319 3.27-1.319 1.347 0 2.417.448 3.208 1.345.797.896 1.195 2.109 1.195 3.639zm-7.339 0c0 1.23.246 2.168.739 2.812.492.645 1.215.967 2.17.967s1.679-.319 2.171-.958c.498-.645.747-1.585.747-2.821 0-1.225-.249-2.154-.747-2.787-.492-.638-1.221-.958-2.188-.958-.955 0-1.676.314-2.162.941-.487.627-.73 1.561-.73 2.804zm14.3-4.984c.428 0 .812.035 1.151.106l-.202 1.353a4.96 4.96 0 0 0 -1.054-.132c-.78 0-1.448.317-2.004.95-.551.632-.827 1.42-.827 2.364v5.168h-1.458v-9.633h1.204l.167 1.784h.07c.357-.627.788-1.11 1.292-1.45a2.908 2.908 0 0 1 1.661-.51zm13.843 7.181c0 .896-.334 1.588-1.002 2.074s-1.606.73-2.813.73c-1.277 0-2.273-.203-2.988-.607v-1.353c.463.234.958.419 1.485.553a6.268 6.268 0 0 0 1.539.202c.761 0 1.347-.12 1.757-.36.41-.246.616-.618.616-1.116 0-.375-.165-.694-.493-.958-.322-.27-.955-.586-1.898-.949-.897-.334-1.535-.624-1.916-.87-.375-.252-.656-.537-.844-.853-.181-.316-.272-.694-.272-1.134 0-.785.319-1.403.958-1.854.638-.457 1.514-.686 2.628-.686a7.69 7.69 0 0 1 3.041.633l-.519 1.187c-.967-.399-1.843-.598-2.628-.598-.691 0-1.213.108-1.564.325-.352.217-.528.516-.528.897 0 .257.065.477.194.659.134.181.348.354.641.518s.856.402 1.688.712c1.142.416 1.913.835 2.311 1.257.405.422.607.952.607 1.591zm3.841 2.628h-1.459v-9.633h1.459zm-1.582-12.243c0-.334.082-.578.246-.73a.851.851 0 0 1 .615-.237.86.86 0 0 1 .606.237c.17.158.255.401.255.73 0 .328-.085.574-.255.738a.86.86 0 0 1 -.606.237.851.851 0 0 1 -.615-.237c-.164-.164-.246-.41-.246-.738zm7.787 11.214c.258 0 .507-.017.747-.052.24-.041.43-.082.571-.123v1.116c-.158.076-.393.138-.703.184a4.87 4.87 0 0 1 -.826.08c-1.864 0-2.795-.982-2.795-2.945v-5.73h-1.38v-.703l1.38-.607.615-2.056h.844v2.232h2.795v1.134h-2.795v5.669c0 .58.138 1.025.413 1.336.275.31.653.465 1.134.465zm13.851 1.029-.29-1.371h-.07c-.481.603-.961 1.013-1.441 1.23-.475.211-1.07.317-1.785.317-.955 0-1.705-.247-2.25-.739-.539-.492-.808-1.192-.808-2.1 0-1.946 1.555-2.965 4.667-3.059l1.634-.053v-.597c0-.756-.164-1.313-.492-1.67-.322-.364-.841-.545-1.555-.545-.803 0-1.711.246-2.725.738l-.448-1.116c.474-.258.993-.46 1.555-.607a6.836 6.836 0 0 1 1.706-.219c1.148 0 1.998.255 2.548.764.557.51.835 1.328.835 2.453v6.574zm-3.296-1.029c.909 0 1.62-.249 2.136-.747.522-.498.782-1.195.782-2.091v-.871l-1.459.062c-1.16.041-1.998.223-2.513.545-.51.316-.765.811-.765 1.485 0 .528.158.929.475 1.204.322.276.77.413 1.344.413zm19.67 1.029v-6.267c0-.767-.164-1.342-.492-1.722-.328-.387-.838-.581-1.529-.581-.908 0-1.579.261-2.013.783-.433.521-.65 1.324-.65 2.408v5.379h-1.459v-6.267c0-.767-.164-1.342-.492-1.722-.329-.387-.841-.581-1.539-.581-.914 0-1.584.276-2.012.827-.422.545-.633 1.441-.633 2.689v5.054h-1.459v-9.633h1.186l.238 1.318h.07a2.877 2.877 0 0 1 1.16-1.098 3.583 3.583 0 0 1 1.688-.396c1.506 0 2.49.545 2.953 1.635h.07a3.07 3.07 0 0 1 1.248-1.195c.545-.293 1.166-.44 1.864-.44 1.089 0 1.904.281 2.443.844.545.557.817 1.45.817 2.681v6.284zm8.543.176c-1.424 0-2.549-.434-3.375-1.301-.82-.867-1.23-2.072-1.23-3.613 0-1.552.381-2.786 1.142-3.7.768-.914 1.796-1.371 3.085-1.371 1.207 0 2.162.399 2.866 1.195.703.792 1.054 1.837 1.054 3.138v.923h-6.635c.029 1.131.313 1.989.852 2.575.545.586 1.31.879 2.294.879a7.77 7.77 0 0 0 3.076-.65v1.301a7.501 7.501 0 0 1 -1.468.474c-.457.1-1.01.15-1.661.15zm-.395-8.763c-.774 0-1.392.252-1.855.756-.457.504-.726 1.201-.808 2.092h5.036c0-.92-.205-1.624-.615-2.11-.411-.492-.997-.738-1.758-.738zm9.545 7.558c.257 0 .507-.017.747-.052.24-.041.43-.082.571-.123v1.116c-.158.076-.393.138-.703.184a4.87 4.87 0 0 1 -.826.08c-1.864 0-2.795-.982-2.795-2.945v-5.73h-1.38v-.703l1.38-.607.615-2.056h.844v2.232h2.795v1.134h-2.795v5.669c0 .58.137 1.025.413 1.336.275.31.653.465 1.134.465zm4.781-1.063.132.202a21.751 21.751 0 0 1 -.659 2.039 28.886 28.886 0 0 1 -.897 2.171h-1.099c.159-.609.332-1.362.519-2.259.193-.896.328-1.614.404-2.153zm11.408 2.268c-1.394 0-2.475-.428-3.243-1.284-.762-.861-1.143-2.077-1.143-3.647 0-1.611.387-2.857 1.161-3.735.779-.879 1.886-1.319 3.322-1.319.463 0 .926.05 1.388.15.463.099.827.216 1.09.351l-.448 1.239a6.634 6.634 0 0 0 -1.055-.316 4.542 4.542 0 0 0 -1.01-.132c-1.957 0-2.936 1.248-2.936 3.744 0 1.184.237 2.092.712 2.725.48.633 1.189.949 2.127.949.803 0 1.626-.173 2.47-.518v1.292c-.645.334-1.456.501-2.435.501zm13.043-5.001c0 1.57-.395 2.797-1.186 3.682-.791.879-1.884 1.319-3.279 1.319-.861 0-1.626-.203-2.294-.607s-1.183-.984-1.547-1.74c-.363-.756-.544-1.641-.544-2.654 0-1.571.392-2.792 1.177-3.665.785-.879 1.875-1.319 3.27-1.319 1.347 0 2.417.448 3.208 1.345.797.896 1.195 2.109 1.195 3.639zm-7.339 0c0 1.23.246 2.168.739 2.812.492.645 1.215.967 2.17.967s1.679-.319 2.171-.958c.498-.645.747-1.585.747-2.821 0-1.225-.249-2.154-.747-2.787-.492-.638-1.221-.958-2.188-.958-.955 0-1.676.314-2.162.941-.487.627-.73 1.561-.73 2.804zm16.497 4.825v-6.232c0-.785-.178-1.371-.536-1.757-.357-.387-.917-.581-1.679-.581-1.007 0-1.746.273-2.214.818-.469.545-.704 1.444-.704 2.698v5.054h-1.458v-9.633h1.186l.237 1.318h.071a2.94 2.94 0 0 1 1.256-1.098 4.046 4.046 0 0 1 1.802-.396c1.16 0 2.033.281 2.619.844.586.557.879 1.45.879 2.681v6.284zm10.679-2.628c0 .896-.334 1.588-1.002 2.074s-1.605.73-2.812.73c-1.278 0-2.274-.203-2.989-.607v-1.353a7.22 7.22 0 0 0 1.486.553 6.26 6.26 0 0 0 1.538.202c.761 0 1.347-.12 1.758-.36.41-.246.615-.618.615-1.116 0-.375-.164-.694-.492-.958-.323-.27-.956-.586-1.899-.949-.896-.334-1.535-.624-1.916-.87-.375-.252-.656-.537-.844-.853-.181-.316-.272-.694-.272-1.134 0-.785.319-1.403.958-1.854.639-.457 1.515-.686 2.628-.686 1.037 0 2.051.211 3.041.633l-.519 1.187c-.966-.399-1.842-.598-2.628-.598-.691 0-1.213.108-1.564.325-.352.217-.527.516-.527.897 0 .257.064.477.193.659.135.181.349.354.642.518s.855.402 1.687.712c1.143.416 1.913.835 2.312 1.257.404.422.606.952.606 1.591zm6.451 2.804c-1.424 0-2.549-.434-3.375-1.301-.82-.867-1.23-2.072-1.23-3.613 0-1.552.381-2.786 1.142-3.7.768-.914 1.796-1.371 3.085-1.371 1.207 0 2.162.399 2.865 1.195.704.792 1.055 1.837 1.055 3.138v.923h-6.636c.03 1.131.314 1.989.853 2.575.545.586 1.31.879 2.294.879a7.77 7.77 0 0 0 3.076-.65v1.301a7.523 7.523 0 0 1 -1.468.474c-.457.1-1.01.15-1.661.15zm-.395-8.763c-.774 0-1.392.252-1.855.756-.457.504-.726 1.201-.808 2.092h5.036c0-.92-.205-1.624-.616-2.11-.41-.492-.996-.738-1.757-.738zm10.283 8.763c-1.395 0-2.476-.428-3.243-1.284-.762-.861-1.143-2.077-1.143-3.647 0-1.611.387-2.857 1.16-3.735.78-.879 1.887-1.319 3.323-1.319.462 0 .925.05 1.388.15.463.099.826.216 1.09.351l-.448 1.239a6.634 6.634 0 0 0 -1.055-.316 4.558 4.558 0 0 0 -1.011-.132c-1.957 0-2.935 1.248-2.935 3.744 0 1.184.237 2.092.712 2.725.48.633 1.189.949 2.127.949.802 0 1.626-.173 2.469-.518v1.292c-.644.334-1.456.501-2.434.501zm7.84-1.205c.258 0 .507-.017.747-.052.24-.041.43-.082.571-.123v1.116c-.158.076-.393.138-.703.184a4.87 4.87 0 0 1 -.826.08c-1.864 0-2.795-.982-2.795-2.945v-5.73h-1.38v-.703l1.38-.607.615-2.056h.844v2.232h2.795v1.134h-2.795v5.669c0 .58.138 1.025.413 1.336.275.31.653.465 1.134.465zm7.321 1.205c-1.424 0-2.549-.434-3.375-1.301-.82-.867-1.23-2.072-1.23-3.613 0-1.552.38-2.786 1.142-3.7.768-.914 1.796-1.371 3.085-1.371 1.207 0 2.162.399 2.865 1.195.703.792 1.055 1.837 1.055 3.138v.923h-6.636c.03 1.131.314 1.989.853 2.575.545.586 1.309.879 2.294.879a7.77 7.77 0 0 0 3.076-.65v1.301a7.523 7.523 0 0 1 -1.468.474c-.457.1-1.011.15-1.661.15zm-.396-8.763c-.773 0-1.391.252-1.854.756-.457.504-.727 1.201-.809 2.092h5.037c0-.92-.206-1.624-.616-2.11-.41-.492-.996-.738-1.758-.738zm9.545 7.558c.258 0 .507-.017.747-.052.241-.041.431-.082.572-.123v1.116c-.158.076-.393.138-.703.184-.305.053-.58.08-.827.08-1.863 0-2.794-.982-2.794-2.945v-5.73h-1.38v-.703l1.38-.607.615-2.056h.844v2.232h2.794v1.134h-2.794v5.669c0 .58.137 1.025.413 1.336.275.31.653.465 1.133.465zm4.623-8.604v6.249c0 .785.179 1.371.537 1.758.357.387.917.58 1.678.58 1.008 0 1.743-.276 2.206-.826.469-.551.703-1.45.703-2.699v-5.062h1.459v9.633h-1.204l-.211-1.292h-.079a2.904 2.904 0 0 1 -1.248 1.09c-.527.252-1.131.378-1.81.378-1.172 0-2.051-.279-2.637-.835-.58-.557-.87-1.448-.87-2.672v-6.302zm14.081-.176c.427 0 .811.035 1.151.106l-.202 1.353a4.969 4.969 0 0 0 -1.055-.132c-.779 0-1.447.317-2.004.95-.551.632-.826 1.42-.826 2.364v5.168h-1.459v-9.633h1.204l.167 1.784h.07c.358-.627.789-1.11 1.292-1.45a2.91 2.91 0 0 1 1.662-.51zm13.552 9.809-.29-1.371h-.07c-.481.603-.961 1.013-1.441 1.23-.475.211-1.07.317-1.785.317-.955 0-1.705-.247-2.25-.739-.539-.492-.808-1.192-.808-2.1 0-1.946 1.555-2.965 4.667-3.059l1.635-.053v-.597c0-.756-.165-1.313-.493-1.67-.322-.364-.84-.545-1.555-.545-.803 0-1.711.246-2.725.738l-.448-1.116c.474-.258.993-.46 1.555-.607a6.836 6.836 0 0 1 1.706-.219c1.148 0 1.998.255 2.548.764.557.51.835 1.328.835 2.453v6.574zm-3.296-1.029c.909 0 1.621-.249 2.136-.747.522-.498.782-1.195.782-2.091v-.871l-1.459.062c-1.16.041-1.998.223-2.513.545-.51.316-.765.811-.765 1.485 0 .528.158.929.475 1.204.322.276.77.413 1.344.413zm13.949-.263h-.079c-.674.978-1.682 1.468-3.024 1.468-1.26 0-2.241-.431-2.944-1.292-.698-.862-1.046-2.086-1.046-3.674s.351-2.822 1.055-3.7c.703-.879 1.681-1.319 2.935-1.319 1.307 0 2.309.475 3.006 1.424h.114l-.061-.694-.035-.677v-3.92h1.459v13.676h-1.187zm-2.918.246c.996 0 1.716-.27 2.162-.809.451-.545.677-1.421.677-2.628v-.307c0-1.366-.229-2.338-.686-2.918-.451-.586-1.175-.879-2.171-.879-.855 0-1.512.334-1.969 1.002-.451.662-.676 1.599-.676 2.812 0 1.231.225 2.159.676 2.786s1.114.941 1.987.941zm8.859 1.046h-1.459v-9.633h1.459zm-1.582-12.243c0-.334.082-.578.246-.73a.851.851 0 0 1 .615-.237.86.86 0 0 1 .607.237c.17.158.255.401.255.73 0 .328-.085.574-.255.738a.86.86 0 0 1 -.607.237.851.851 0 0 1 -.615-.237c-.164-.164-.246-.41-.246-.738zm9.158 12.419a4.25 4.25 0 0 1 -1.722-.343 3.277 3.277 0 0 1 -1.301-1.072h-.106c.071.562.106 1.095.106 1.599v3.964h-1.459v-13.957h1.186l.202 1.318h.071c.375-.527.811-.908 1.309-1.142.498-.235 1.07-.352 1.714-.352 1.278 0 2.262.437 2.953 1.31.698.873 1.046 2.097 1.046 3.674 0 1.582-.354 2.812-1.063 3.691-.703.873-1.682 1.31-2.936 1.31zm-.211-8.746c-.984 0-1.696.273-2.135.818-.44.545-.666 1.412-.677 2.601v.326c0 1.353.225 2.323.677 2.909.451.58 1.174.87 2.17.87.832 0 1.483-.337 1.952-1.011.474-.674.712-1.602.712-2.786 0-1.201-.238-2.121-.712-2.76-.469-.644-1.131-.967-1.987-.967zm8.227 8.57h-1.459v-9.633h1.459zm-1.582-12.243c0-.334.082-.578.246-.73a.851.851 0 0 1 .615-.237c.234 0 .437.079.607.237.169.158.254.401.254.73 0 .328-.085.574-.254.738a.862.862 0 0 1 -.607.237.851.851 0 0 1 -.615-.237c-.164-.164-.246-.41-.246-.738zm10.889 9.615c0 .896-.334 1.588-1.002 2.074-.667.486-1.605.73-2.812.73-1.277 0-2.273-.203-2.988-.607v-1.353c.463.234.958.419 1.485.553a6.26 6.26 0 0 0 1.538.202c.762 0 1.348-.12 1.758-.36.41-.246.615-.618.615-1.116 0-.375-.164-.694-.492-.958-.322-.27-.955-.586-1.898-.949-.897-.334-1.536-.624-1.916-.87-.375-.252-.657-.537-.844-.853-.182-.316-.273-.694-.273-1.134 0-.785.32-1.403.958-1.854.639-.457 1.515-.686 2.628-.686 1.037 0 2.051.211 3.041.633l-.518 1.187c-.967-.399-1.843-.598-2.628-.598-.692 0-1.213.108-1.565.325-.351.217-.527.516-.527.897 0 .257.064.477.193.659.135.181.349.354.642.518s.855.402 1.687.712c1.143.416 1.914.835 2.312 1.257.404.422.606.952.606 1.591zm6.232 2.804c-1.395 0-2.476-.428-3.243-1.284-.762-.861-1.143-2.077-1.143-3.647 0-1.611.387-2.857 1.16-3.735.78-.879 1.887-1.319 3.323-1.319.462 0 .925.05 1.388.15.463.099.826.216 1.09.351l-.448 1.239a6.634 6.634 0 0 0 -1.055-.316 4.558 4.558 0 0 0 -1.011-.132c-1.957 0-2.935 1.248-2.935 3.744 0 1.184.237 2.092.712 2.725.48.633 1.189.949 2.127.949.802 0 1.626-.173 2.469-.518v1.292c-.644.334-1.456.501-2.434.501zm6.187-.176h-1.459v-9.633h1.459zm-1.582-12.243c0-.334.082-.578.246-.73a.855.855 0 0 1 .616-.237.86.86 0 0 1 .606.237c.17.158.255.401.255.73 0 .328-.085.574-.255.738a.86.86 0 0 1 -.606.237.855.855 0 0 1 -.616-.237c-.164-.164-.246-.41-.246-.738zm11.268 12.243v-6.232c0-.785-.179-1.371-.536-1.757-.358-.387-.917-.581-1.679-.581-1.008 0-1.746.273-2.215.818s-.703 1.444-.703 2.698v5.054h-1.459v-9.633h1.187l.237 1.318h.07a2.95 2.95 0 0 1 1.257-1.098 4.043 4.043 0 0 1 1.802-.396c1.16 0 2.033.281 2.619.844.586.557.879 1.45.879 2.681v6.284zm12.349-9.633v.923l-1.785.211c.164.205.311.474.44.808.129.328.193.701.193 1.117 0 .943-.322 1.696-.967 2.258-.644.563-1.529.844-2.654.844-.287 0-.557-.023-.808-.07-.622.328-.932.741-.932 1.239 0 .264.108.46.325.589.217.123.589.184 1.116.184h1.705c1.043 0 1.843.22 2.4.66.562.439.844 1.078.844 1.916 0 1.066-.428 1.878-1.284 2.434-.855.563-2.103.844-3.744.844-1.26 0-2.232-.234-2.918-.703-.679-.469-1.019-1.131-1.019-1.986 0-.586.187-1.093.562-1.521s.903-.718 1.582-.87a1.552 1.552 0 0 1 -.624-.519 1.387 1.387 0 0 1 -.246-.817c0-.352.094-.659.281-.923.188-.264.484-.518.888-.765-.498-.205-.905-.553-1.222-1.045-.31-.493-.465-1.055-.465-1.688 0-1.055.316-1.866.949-2.434.633-.575 1.529-.862 2.689-.862.504 0 .958.059 1.363.176zm-7.682 11.25c0 .521.22.917.659 1.186.44.27 1.069.405 1.89.405 1.224 0 2.13-.185 2.716-.554.591-.363.887-.858.887-1.485 0-.522-.161-.885-.483-1.09-.322-.199-.929-.299-1.819-.299h-1.749c-.663 0-1.178.158-1.547.475-.37.316-.554.77-.554 1.362zm.791-8.165c0 .674.19 1.184.571 1.529.381.346.911.519 1.591.519 1.424 0 2.136-.692 2.136-2.074 0-1.448-.721-2.171-2.162-2.171-.686 0-1.213.184-1.582.553-.369.37-.554.917-.554 1.644zm17.613 6.724c-1.424 0-2.549-.434-3.375-1.301-.82-.867-1.23-2.072-1.23-3.613 0-1.552.381-2.786 1.142-3.7.768-.914 1.796-1.371 3.085-1.371 1.207 0 2.162.399 2.866 1.195.703.792 1.054 1.837 1.054 3.138v.923h-6.636c.03 1.131.314 1.989.853 2.575.545.586 1.31.879 2.294.879a7.77 7.77 0 0 0 3.076-.65v1.301a7.501 7.501 0 0 1 -1.468.474c-.457.1-1.01.15-1.661.15zm-.395-8.763c-.774 0-1.392.252-1.855.756-.457.504-.726 1.201-.808 2.092h5.036c0-.92-.205-1.624-.615-2.11-.411-.492-.997-.738-1.758-.738zm7.892 8.587h-1.459v-13.676h1.459zm4.553 0h-1.459v-9.633h1.459zm-1.582-12.243c0-.334.082-.578.246-.73a.851.851 0 0 1 .615-.237.86.86 0 0 1 .607.237c.17.158.255.401.255.73 0 .328-.085.574-.255.738a.86.86 0 0 1 -.607.237.851.851 0 0 1 -.615-.237c-.164-.164-.246-.41-.246-.738zm7.787 11.214c.258 0 .507-.017.747-.052a5.32 5.32 0 0 0 .571-.123v1.116c-.158.076-.392.138-.703.184a4.86 4.86 0 0 1 -.826.08c-1.863 0-2.795-.982-2.795-2.945v-5.73h-1.38v-.703l1.38-.607.615-2.056h.844v2.232h2.795v1.134h-2.795v5.669c0 .58.138 1.025.413 1.336.276.31.654.465 1.134.465zm3.041.097c0-.392.088-.688.264-.888.181-.205.439-.307.773-.307.34 0 .604.102.791.307.194.2.29.496.29.888 0 .381-.096.674-.29.879-.193.205-.457.308-.791.308-.299 0-.548-.091-.747-.273-.193-.187-.29-.492-.29-.914zm17.983.932-1.6-4.087h-5.15l-1.582 4.087h-1.512l5.08-12.903h1.257l5.053 12.903zm-2.066-5.432-1.494-3.981a21.374 21.374 0 0 1 -.598-1.855 16.694 16.694 0 0 1 -.553 1.855l-1.512 3.981zm9.229 5.608c-1.424 0-2.549-.434-3.375-1.301-.821-.867-1.231-2.072-1.231-3.613 0-1.552.381-2.786 1.143-3.7.767-.914 1.796-1.371 3.085-1.371 1.207 0 2.162.399 2.865 1.195.703.792 1.055 1.837 1.055 3.138v.923h-6.636c.029 1.131.313 1.989.852 2.575.545.586 1.31.879 2.294.879a7.774 7.774 0 0 0 3.077-.65v1.301a7.523 7.523 0 0 1 -1.468.474c-.457.1-1.011.15-1.661.15zm-.396-8.763c-.773 0-1.391.252-1.854.756-.457.504-.727 1.201-.809 2.092h5.036c0-.92-.205-1.624-.615-2.11-.41-.492-.996-.738-1.758-.738zm13.026 8.587v-6.232c0-.785-.179-1.371-.537-1.757-.357-.387-.917-.581-1.678-.581-1.008 0-1.746.273-2.215.818s-.703 1.444-.703 2.698v5.054h-1.459v-9.633h1.186l.238 1.318h.07a2.95 2.95 0 0 1 1.257-1.098 4.038 4.038 0 0 1 1.801-.396c1.161 0 2.034.281 2.62.844.586.557.878 1.45.878 2.681v6.284zm8.534.176c-1.424 0-2.549-.434-3.375-1.301-.821-.867-1.231-2.072-1.231-3.613 0-1.552.381-2.786 1.143-3.7.767-.914 1.796-1.371 3.085-1.371 1.207 0 2.162.399 2.865 1.195.703.792 1.055 1.837 1.055 3.138v.923h-6.636c.029 1.131.313 1.989.852 2.575.545.586 1.31.879 2.294.879a7.77 7.77 0 0 0 3.077-.65v1.301a7.523 7.523 0 0 1 -1.468.474c-.457.1-1.011.15-1.661.15zm-.396-8.763c-.773 0-1.391.252-1.854.756-.457.504-.727 1.201-.809 2.092h5.036c0-.92-.205-1.624-.615-2.11-.41-.492-.996-.738-1.758-.738zm12.358 8.587-.29-1.371h-.071c-.48.603-.961 1.013-1.441 1.23-.475.211-1.069.317-1.784.317-.955 0-1.705-.247-2.25-.739-.539-.492-.809-1.192-.809-2.1 0-1.946 1.556-2.965 4.667-3.059l1.635-.053v-.597c0-.756-.164-1.313-.492-1.67-.323-.364-.841-.545-1.556-.545-.803 0-1.711.246-2.725.738l-.448-1.116a6.89 6.89 0 0 1 1.556-.607 6.829 6.829 0 0 1 1.705-.219c1.148 0 1.998.255 2.549.764.556.51.835 1.328.835 2.453v6.574zm-3.296-1.029c.908 0 1.62-.249 2.135-.747.522-.498.783-1.195.783-2.091v-.871l-1.459.062c-1.16.041-1.998.223-2.514.545-.51.316-.765.811-.765 1.485 0 .528.159.929.475 1.204.322.276.77.413 1.345.413zm13.983 1.029v-6.232c0-.785-.179-1.371-.536-1.757-.357-.387-.917-.581-1.679-.581-1.008 0-1.746.273-2.215.818-.468.545-.703 1.444-.703 2.698v5.054h-1.459v-9.633h1.187l.237 1.318h.07a2.95 2.95 0 0 1 1.257-1.098 4.043 4.043 0 0 1 1.802-.396c1.16 0 2.033.281 2.619.844.586.557.879 1.45.879 2.681v6.284zm10.6 0h-1.459v-13.676h1.459zm4.465-9.633v6.249c0 .785.178 1.371.536 1.758.357.387.917.58 1.678.58 1.008 0 1.744-.276 2.206-.826.469-.551.704-1.45.704-2.699v-5.062h1.459v9.633h-1.205l-.21-1.292h-.08a2.898 2.898 0 0 1 -1.248 1.09c-.527.252-1.13.378-1.81.378-1.172 0-2.051-.279-2.637-.835-.58-.557-.87-1.448-.87-2.672v-6.302zm13.535 9.809c-1.395 0-2.476-.428-3.243-1.284-.762-.861-1.143-2.077-1.143-3.647 0-1.611.387-2.857 1.16-3.735.779-.879 1.887-1.319 3.322-1.319.463 0 .926.05 1.389.15.463.099.826.216 1.09.351l-.448 1.239a6.666 6.666 0 0 0 -1.055-.316 4.558 4.558 0 0 0 -1.011-.132c-1.957 0-2.935 1.248-2.935 3.744 0 1.184.237 2.092.712 2.725.48.633 1.189.949 2.127.949.802 0 1.626-.173 2.469-.518v1.292c-.644.334-1.456.501-2.434.501zm7.84-1.205c.257 0 .506-.017.747-.052.24-.041.43-.082.571-.123v1.116c-.158.076-.393.138-.703.184a4.87 4.87 0 0 1 -.826.08c-1.864 0-2.795-.982-2.795-2.945v-5.73h-1.38v-.703l1.38-.607.615-2.056h.844v2.232h2.795v1.134h-2.795v5.669c0 .58.137 1.025.413 1.336.275.31.653.465 1.134.465zm4.623-8.604v6.249c0 .785.178 1.371.536 1.758.357.387.917.58 1.678.58 1.008 0 1.744-.276 2.207-.826.468-.551.703-1.45.703-2.699v-5.062h1.459v9.633h-1.204l-.211-1.292h-.08a2.898 2.898 0 0 1 -1.248 1.09c-.527.252-1.13.378-1.81.378-1.172 0-2.051-.279-2.637-.835-.58-.557-.87-1.448-.87-2.672v-6.302zm15.899 7.005c0 .896-.334 1.588-1.002 2.074s-1.605.73-2.812.73c-1.278 0-2.274-.203-2.989-.607v-1.353a7.22 7.22 0 0 0 1.486.553 6.26 6.26 0 0 0 1.538.202c.761 0 1.347-.12 1.758-.36.41-.246.615-.618.615-1.116 0-.375-.164-.694-.492-.958-.323-.27-.955-.586-1.899-.949-.896-.334-1.535-.624-1.916-.87-.375-.252-.656-.537-.844-.853-.181-.316-.272-.694-.272-1.134 0-.785.319-1.403.958-1.854.639-.457 1.515-.686 2.628-.686 1.037 0 2.051.211 3.041.633l-.519 1.187c-.966-.399-1.842-.598-2.628-.598-.691 0-1.212.108-1.564.325s-.527.516-.527.897c0 .257.064.477.193.659.135.181.349.354.642.518s.855.402 1.687.712c1.143.416 1.913.835 2.312 1.257.404.422.606.952.606 1.591zm12.981 2.628-.29-1.371h-.07c-.48.603-.961 1.013-1.441 1.23-.475.211-1.07.317-1.784.317-.956 0-1.706-.247-2.25-.739-.54-.492-.809-1.192-.809-2.1 0-1.946 1.556-2.965 4.667-3.059l1.635-.053v-.597c0-.756-.164-1.313-.492-1.67-.323-.364-.841-.545-1.556-.545-.803 0-1.711.246-2.725.738l-.448-1.116a6.89 6.89 0 0 1 1.556-.607 6.823 6.823 0 0 1 1.705-.219c1.148 0 1.998.255 2.549.764.556.51.835 1.328.835 2.453v6.574zm-3.295-1.029c.908 0 1.62-.249 2.135-.747.522-.498.783-1.195.783-2.091v-.871l-1.459.062c-1.161.041-1.998.223-2.514.545-.51.316-.765.811-.765 1.485 0 .528.158.929.475 1.204.322.276.77.413 1.345.413zm11.786-8.78c.427 0 .811.035 1.151.106l-.202 1.353a4.969 4.969 0 0 0 -1.055-.132c-.779 0-1.447.317-2.004.95-.55.632-.826 1.42-.826 2.364v5.168h-1.459v-9.633h1.204l.167 1.784h.071c.357-.627.788-1.11 1.292-1.45a2.904 2.904 0 0 1 1.661-.51zm6.802 9.985c-1.394 0-2.475-.428-3.243-1.284-.761-.861-1.142-2.077-1.142-3.647 0-1.611.386-2.857 1.16-3.735.779-.879 1.887-1.319 3.322-1.319.463 0 .926.05 1.389.15.463.099.826.216 1.09.351l-.449 1.239a6.621 6.621 0 0 0 -1.054-.316 4.558 4.558 0 0 0 -1.011-.132c-1.957 0-2.936 1.248-2.936 3.744 0 1.184.238 2.092.712 2.725.481.633 1.19.949 2.127.949.803 0 1.626-.173 2.47-.518v1.292c-.645.334-1.456.501-2.435.501zm6.1-9.809v6.249c0 .785.179 1.371.536 1.758.358.387.917.58 1.679.58 1.008 0 1.743-.276 2.206-.826.469-.551.703-1.45.703-2.699v-5.062h1.459v9.633h-1.204l-.211-1.292h-.079a2.91 2.91 0 0 1 -1.248 1.09c-.527.252-1.131.378-1.811.378-1.172 0-2.05-.279-2.636-.835-.58-.557-.871-1.448-.871-2.672v-6.302zm20.575 7.005c0 .896-.334 1.588-1.002 2.074s-1.605.73-2.812.73c-1.278 0-2.274-.203-2.988-.607v-1.353c.462.234.958.419 1.485.553a6.26 6.26 0 0 0 1.538.202c.762 0 1.348-.12 1.758-.36.41-.246.615-.618.615-1.116 0-.375-.164-.694-.492-.958-.322-.27-.955-.586-1.899-.949-.896-.334-1.535-.624-1.916-.87-.375-.252-.656-.537-.843-.853-.182-.316-.273-.694-.273-1.134 0-.785.319-1.403.958-1.854.639-.457 1.515-.686 2.628-.686 1.037 0 2.051.211 3.041.633l-.518 1.187c-.967-.399-1.843-.598-2.628-.598-.692 0-1.213.108-1.565.325-.351.217-.527.516-.527.897 0 .257.064.477.193.659.135.181.349.354.642.518s.855.402 1.687.712c1.143.416 1.913.835 2.312 1.257.404.422.606.952.606 1.591zm8.306 2.628-.29-1.371h-.07c-.481.603-.961 1.013-1.442 1.23-.474.211-1.069.317-1.784.317-.955 0-1.705-.247-2.25-.739-.539-.492-.809-1.192-.809-2.1 0-1.946 1.556-2.965 4.667-3.059l1.635-.053v-.597c0-.756-.164-1.313-.492-1.67-.322-.364-.841-.545-1.556-.545-.802 0-1.711.246-2.724.738l-.449-1.116a6.91 6.91 0 0 1 1.556-.607 6.829 6.829 0 0 1 1.705-.219c1.149 0 1.998.255 2.549.764.557.51.835 1.328.835 2.453v6.574zm-3.296-1.029c.908 0 1.62-.249 2.136-.747.521-.498.782-1.195.782-2.091v-.871l-1.459.062c-1.16.041-1.998.223-2.514.545-.509.316-.764.811-.764 1.485 0 .528.158.929.474 1.204.323.276.771.413 1.345.413zm11.874 1.205a4.258 4.258 0 0 1 -1.723-.343 3.28 3.28 0 0 1 -1.3-1.072h-.106c.07.562.106 1.095.106 1.599v3.964h-1.459v-13.957h1.186l.202 1.318h.071c.375-.527.811-.908 1.309-1.142.498-.235 1.07-.352 1.714-.352 1.277 0 2.262.437 2.953 1.31.697.873 1.046 2.097 1.046 3.674 0 1.582-.354 2.812-1.063 3.691-.704.873-1.682 1.31-2.936 1.31zm-.211-8.746c-.984 0-1.696.273-2.136.818-.439.545-.665 1.412-.676 2.601v.326c0 1.353.225 2.323.676 2.909.452.58 1.175.87 2.171.87.832 0 1.483-.337 1.951-1.011.475-.674.712-1.602.712-2.786 0-1.201-.237-2.121-.712-2.76-.468-.644-1.13-.967-1.986-.967zm8.227 8.57h-1.459v-9.633h1.459zm-1.582-12.243c0-.334.082-.578.246-.73a.851.851 0 0 1 .615-.237.86.86 0 0 1 .606.237c.17.158.255.401.255.73 0 .328-.085.574-.255.738a.86.86 0 0 1 -.606.237.851.851 0 0 1 -.615-.237c-.164-.164-.246-.41-.246-.738zm8.745 12.419c-1.424 0-2.549-.434-3.375-1.301-.821-.867-1.231-2.072-1.231-3.613 0-1.552.381-2.786 1.143-3.7.767-.914 1.796-1.371 3.085-1.371 1.207 0 2.162.399 2.865 1.195.703.792 1.055 1.837 1.055 3.138v.923h-6.636c.029 1.131.313 1.989.853 2.575.544.586 1.309.879 2.293.879a7.77 7.77 0 0 0 3.077-.65v1.301a7.523 7.523 0 0 1 -1.468.474c-.457.1-1.011.15-1.661.15zm-.396-8.763c-.773 0-1.391.252-1.854.756-.457.504-.727 1.201-.809 2.092h5.036c0-.92-.205-1.624-.615-2.11-.41-.492-.996-.738-1.758-.738zm13.026 8.587v-6.232c0-.785-.179-1.371-.537-1.757-.357-.387-.916-.581-1.678-.581-1.008 0-1.746.273-2.215.818s-.703 1.444-.703 2.698v5.054h-1.459v-9.633h1.186l.238 1.318h.07a2.95 2.95 0 0 1 1.257-1.098 4.04 4.04 0 0 1 1.802-.396c1.16 0 2.033.281 2.619.844.586.557.879 1.45.879 2.681v6.284zm5.994-2.092.132.202a21.495 21.495 0 0 1 -.66 2.039 28.893 28.893 0 0 1 -.896 2.171h-1.099c.159-.609.331-1.362.519-2.259.193-.896.328-1.614.404-2.153zm13.772-.536c0 .896-.334 1.588-1.002 2.074s-1.605.73-2.812.73c-1.278 0-2.274-.203-2.989-.607v-1.353a7.22 7.22 0 0 0 1.486.553 6.26 6.26 0 0 0 1.538.202c.762 0 1.348-.12 1.758-.36.41-.246.615-.618.615-1.116 0-.375-.164-.694-.492-.958-.322-.27-.955-.586-1.899-.949-.896-.334-1.535-.624-1.916-.87-.375-.252-.656-.537-.843-.853-.182-.316-.273-.694-.273-1.134 0-.785.319-1.403.958-1.854.639-.457 1.515-.686 2.628-.686 1.037 0 2.051.211 3.041.633l-.518 1.187c-.967-.399-1.843-.598-2.628-.598-.692 0-1.213.108-1.565.325-.351.217-.527.516-.527.897 0 .257.064.477.193.659.135.181.349.354.642.518s.855.402 1.687.712c1.143.416 1.913.835 2.312 1.257.404.422.606.952.606 1.591zm6.451 2.804c-1.423 0-2.548-.434-3.375-1.301-.82-.867-1.23-2.072-1.23-3.613 0-1.552.381-2.786 1.143-3.7.767-.914 1.795-1.371 3.084-1.371 1.208 0 2.163.399 2.866 1.195.703.792 1.054 1.837 1.054 3.138v.923h-6.635c.029 1.131.313 1.989.852 2.575.545.586 1.31.879 2.294.879a7.766 7.766 0 0 0 3.076-.65v1.301a7.515 7.515 0 0 1 -1.467.474c-.458.1-1.011.15-1.662.15zm-.395-8.763c-.774 0-1.392.252-1.855.756-.457.504-.726 1.201-.808 2.092h5.036c0-.92-.205-1.624-.615-2.11-.41-.492-.996-.738-1.758-.738zm12.99 7.295h-.079c-.674.978-1.682 1.468-3.023 1.468-1.26 0-2.242-.431-2.945-1.292-.697-.862-1.046-2.086-1.046-3.674s.352-2.822 1.055-3.7c.703-.879 1.682-1.319 2.936-1.319 1.306 0 2.308.475 3.005 1.424h.115l-.062-.694-.035-.677v-3.92h1.459v13.676h-1.187zm-2.918.246c.996 0 1.717-.27 2.162-.809.451-.545.677-1.421.677-2.628v-.307c0-1.366-.228-2.338-.686-2.918-.451-.586-1.174-.879-2.17-.879-.856 0-1.512.334-1.969 1.002-.451.662-.677 1.599-.677 2.812 0 1.231.226 2.159.677 2.786s1.113.941 1.986.941zm-716.669 25.222c-1.424 0-2.549-.434-3.375-1.301-.82-.867-1.23-2.072-1.23-3.613 0-1.552.381-2.786 1.142-3.7.768-.914 1.796-1.371 3.085-1.371 1.207 0 2.162.399 2.866 1.195.703.792 1.054 1.837 1.054 3.138v.923h-6.636c.03 1.131.314 1.989.853 2.575.545.586 1.31.879 2.294.879a7.77 7.77 0 0 0 3.076-.65v1.301a7.523 7.523 0 0 1 -1.468.474c-.457.1-1.01.15-1.661.15zm-.395-8.763c-.774 0-1.392.252-1.855.756-.457.504-.726 1.201-.808 2.092h5.036c0-.92-.205-1.624-.615-2.11-.411-.492-.997-.738-1.758-.738zm7.892 8.587h-1.459v-13.676h1.459zm7.163.176c-1.423 0-2.548-.434-3.375-1.301-.82-.867-1.23-2.072-1.23-3.613 0-1.552.381-2.786 1.142-3.7.768-.914 1.796-1.371 3.085-1.371 1.207 0 2.163.399 2.866 1.195.703.792 1.054 1.837 1.054 3.138v.923h-6.635c.029 1.131.313 1.989.852 2.575.545.586 1.31.879 2.294.879a7.766 7.766 0 0 0 3.076-.65v1.301a7.515 7.515 0 0 1 -1.467.474c-.458.1-1.011.15-1.662.15zm-.395-8.763c-.774 0-1.392.252-1.855.756-.457.504-.726 1.201-.808 2.092h5.036c0-.92-.205-1.624-.615-2.11-.41-.492-.996-.738-1.758-.738zm18.712 8.587v-6.267c0-.767-.164-1.342-.492-1.722-.329-.387-.838-.581-1.53-.581-.908 0-1.579.261-2.012.783-.434.521-.651 1.324-.651 2.408v5.379h-1.459v-6.267c0-.767-.164-1.342-.492-1.722-.328-.387-.841-.581-1.538-.581-.914 0-1.585.276-2.013.827-.422.545-.633 1.441-.633 2.689v5.054h-1.459v-9.633h1.187l.237 1.318h.071a2.87 2.87 0 0 1 1.16-1.098 3.579 3.579 0 0 1 1.687-.396c1.506 0 2.49.545 2.953 1.635h.071a3.07 3.07 0 0 1 1.248-1.195c.545-.293 1.166-.44 1.863-.44 1.09 0 1.904.281 2.443.844.545.557.818 1.45.818 2.681v6.284zm8.543.176c-1.424 0-2.549-.434-3.375-1.301-.821-.867-1.231-2.072-1.231-3.613 0-1.552.381-2.786 1.143-3.7.767-.914 1.796-1.371 3.085-1.371 1.207 0 2.162.399 2.865 1.195.703.792 1.055 1.837 1.055 3.138v.923h-6.636c.029 1.131.313 1.989.853 2.575.544.586 1.309.879 2.293.879a7.77 7.77 0 0 0 3.077-.65v1.301a7.523 7.523 0 0 1 -1.468.474c-.457.1-1.011.15-1.661.15zm-.396-8.763c-.773 0-1.391.252-1.854.756-.457.504-.727 1.201-.809 2.092h5.036c0-.92-.205-1.624-.615-2.11-.41-.492-.996-.738-1.758-.738zm13.026 8.587v-6.232c0-.785-.179-1.371-.537-1.757-.357-.387-.917-.581-1.678-.581-1.008 0-1.746.273-2.215.818s-.703 1.444-.703 2.698v5.054h-1.459v-9.633h1.186l.238 1.318h.07a2.95 2.95 0 0 1 1.257-1.098 4.04 4.04 0 0 1 1.802-.396c1.16 0 2.033.281 2.619.844.586.557.879 1.45.879 2.681v6.284zm7.576-1.029c.258 0 .507-.017.747-.052a5.32 5.32 0 0 0 .571-.123v1.116c-.158.076-.392.138-.703.184a4.87 4.87 0 0 1 -.826.08c-1.863 0-2.795-.982-2.795-2.945v-5.73h-1.38v-.703l1.38-.607.615-2.056h.844v2.232h2.795v1.134h-2.795v5.669c0 .58.138 1.025.413 1.336.275.31.653.465 1.134.465zm4.623-8.604v6.249c0 .785.179 1.371.536 1.758s.917.58 1.679.58c1.008 0 1.743-.276 2.206-.826.468-.551.703-1.45.703-2.699v-5.062h1.459v9.633h-1.204l-.211-1.292h-.079a2.91 2.91 0 0 1 -1.248 1.09c-.528.252-1.131.378-1.811.378-1.172 0-2.051-.279-2.637-.835-.58-.557-.87-1.448-.87-2.672v-6.302zm21.964 9.633v-6.267c0-.767-.164-1.342-.492-1.722-.329-.387-.838-.581-1.53-.581-.908 0-1.579.261-2.012.783-.434.521-.651 1.324-.651 2.408v5.379h-1.459v-6.267c0-.767-.164-1.342-.492-1.722-.328-.387-.841-.581-1.538-.581-.914 0-1.585.276-2.013.827-.422.545-.633 1.441-.633 2.689v5.054h-1.459v-9.633h1.187l.237 1.318h.071a2.87 2.87 0 0 1 1.16-1.098 3.579 3.579 0 0 1 1.687-.396c1.506 0 2.49.545 2.953 1.635h.071a3.07 3.07 0 0 1 1.248-1.195c.545-.293 1.166-.44 1.863-.44 1.09 0 1.904.281 2.443.844.545.557.818 1.45.818 2.681v6.284zm15.706-1.292h-.079c-.674.978-1.682 1.468-3.024 1.468-1.26 0-2.241-.431-2.944-1.292-.697-.862-1.046-2.086-1.046-3.674s.352-2.822 1.055-3.7c.703-.879 1.681-1.319 2.935-1.319 1.307 0 2.309.475 3.006 1.424h.114l-.061-.694-.035-.677v-3.92h1.459v13.676h-1.187zm-2.918.246c.996 0 1.717-.27 2.162-.809.451-.545.677-1.421.677-2.628v-.307c0-1.366-.229-2.338-.686-2.918-.451-.586-1.175-.879-2.171-.879-.855 0-1.511.334-1.969 1.002-.451.662-.676 1.599-.676 2.812 0 1.231.225 2.159.676 2.786.452.627 1.114.941 1.987.941zm15.715-3.779c0 1.57-.396 2.797-1.187 3.682-.791.879-1.884 1.319-3.278 1.319-.862 0-1.626-.203-2.294-.607s-1.184-.984-1.547-1.74-.545-1.641-.545-2.654c0-1.571.393-2.792 1.178-3.665.785-.879 1.875-1.319 3.269-1.319 1.348 0 2.417.448 3.208 1.345.797.896 1.196 2.109 1.196 3.639zm-7.339 0c0 1.23.246 2.168.738 2.812.492.645 1.216.967 2.171.967s1.679-.319 2.171-.958c.498-.645.747-1.585.747-2.821 0-1.225-.249-2.154-.747-2.787-.492-.638-1.222-.958-2.189-.958-.955 0-1.675.314-2.162.941-.486.627-.729 1.561-.729 2.804zm11.364 4.825h-1.459v-13.676h1.459zm11.408-4.825c0 1.57-.395 2.797-1.186 3.682-.791.879-1.884 1.319-3.279 1.319-.861 0-1.626-.203-2.294-.607s-1.183-.984-1.546-1.74c-.364-.756-.545-1.641-.545-2.654 0-1.571.392-2.792 1.177-3.665.786-.879 1.875-1.319 3.27-1.319 1.348 0 2.417.448 3.208 1.345.797.896 1.195 2.109 1.195 3.639zm-7.339 0c0 1.23.246 2.168.739 2.812.492.645 1.215.967 2.171.967.955 0 1.678-.319 2.17-.958.498-.645.748-1.585.748-2.821 0-1.225-.25-2.154-.748-2.787-.492-.638-1.221-.958-2.188-.958-.955 0-1.676.314-2.162.941s-.73 1.561-.73 2.804zm14.3-4.984c.428 0 .812.035 1.152.106l-.203 1.353a4.96 4.96 0 0 0 -1.054-.132c-.78 0-1.448.317-2.004.95-.551.632-.826 1.42-.826 2.364v5.168h-1.459v-9.633h1.204l.167 1.784h.07c.357-.627.788-1.11 1.292-1.45a2.908 2.908 0 0 1 1.661-.51zm9.738 9.809-3.656-9.633h1.565l2.074 5.713c.469 1.336.744 2.203.826 2.601h.07c.065-.31.267-.952.607-1.924.346-.979 1.116-3.109 2.311-6.39h1.565l-3.656 9.633zm10.978.176c-1.424 0-2.549-.434-3.375-1.301-.82-.867-1.23-2.072-1.23-3.613 0-1.552.38-2.786 1.142-3.7.768-.914 1.796-1.371 3.085-1.371 1.207 0 2.162.399 2.865 1.195.703.792 1.055 1.837 1.055 3.138v.923h-6.636c.03 1.131.314 1.989.853 2.575.545.586 1.309.879 2.294.879a7.77 7.77 0 0 0 3.076-.65v1.301a7.523 7.523 0 0 1 -1.468.474c-.457.1-1.011.15-1.661.15zm-.396-8.763c-.773 0-1.391.252-1.854.756-.457.504-.727 1.201-.809 2.092h5.037c0-.92-.206-1.624-.616-2.11-.41-.492-.996-.738-1.758-.738zm13.026 8.587v-6.232c0-.785-.179-1.371-.536-1.757-.358-.387-.917-.581-1.679-.581-1.014 0-1.755.276-2.224.827-.462.55-.694 1.453-.694 2.707v5.036h-1.459v-13.676h1.459v4.14c0 .498-.023.911-.07 1.239h.088a2.953 2.953 0 0 1 1.221-1.09c.534-.269 1.14-.404 1.82-.404 1.177 0 2.059.281 2.645.844.592.556.888 1.444.888 2.663v6.284zm5.924 0h-1.459v-9.633h1.459zm-1.582-12.243c0-.334.082-.578.246-.73a.851.851 0 0 1 .615-.237c.234 0 .437.079.606.237.17.158.255.401.255.73 0 .328-.085.574-.255.738a.858.858 0 0 1 -.606.237.851.851 0 0 1 -.615-.237c-.164-.164-.246-.41-.246-.738zm8.525 12.419c-1.394 0-2.476-.428-3.243-1.284-.762-.861-1.143-2.077-1.143-3.647 0-1.611.387-2.857 1.16-3.735.78-.879 1.887-1.319 3.323-1.319.463 0 .926.05 1.388.15.463.099.827.216 1.09.351l-.448 1.239a6.634 6.634 0 0 0 -1.055-.316 4.55 4.55 0 0 0 -1.01-.132c-1.957 0-2.936 1.248-2.936 3.744 0 1.184.237 2.092.712 2.725.48.633 1.189.949 2.127.949.803 0 1.626-.173 2.47-.518v1.292c-.645.334-1.456.501-2.435.501zm6.1-9.809v6.249c0 .785.178 1.371.536 1.758.357.387.917.58 1.679.58 1.007 0 1.743-.276 2.206-.826.468-.551.703-1.45.703-2.699v-5.062h1.459v9.633h-1.204l-.211-1.292h-.079a2.907 2.907 0 0 1 -1.249 1.09c-.527.252-1.13.378-1.81.378-1.172 0-2.051-.279-2.637-.835-.58-.557-.87-1.448-.87-2.672v-6.302zm11.144 9.633h-1.459v-13.676h1.459z" fill="#fff"/><path d="m515 194.968a4 4 0 0 1 4-4h192a4 4 0 0 1 4 4v48a4 4 0 0 1 -4 4h-192a4 4 0 0 1 -4-4z" fill="#585c65"/><g clip-path="url(#a)" fill="#fff"><path d="m584.033 212.568-4.133-4.134-6.4 6.4-6.4-6.4-4.133 4.134 6.4 6.4-6.4 6.4 4.133 4.133 6.4-6.4 6.4 6.4 4.133-4.133-6.4-6.4zm22.573 2.241c-1.253 0-2.223.472-2.911 1.418-.687.938-1.031 2.248-1.031 3.931 0 3.502 1.314 5.253 3.942 5.253 1.103 0 2.439-.276 4.007-.827v2.793c-1.289.537-2.728.806-4.318.806-2.285 0-4.032-.691-5.242-2.074-1.211-1.389-1.816-3.38-1.816-5.972 0-1.633.298-3.062.892-4.286.594-1.232 1.447-2.174 2.557-2.826 1.117-.658 2.424-.988 3.92-.988 1.526 0 3.058.369 4.598 1.107l-1.074 2.707a17.623 17.623 0 0 0 -1.773-.731 5.277 5.277 0 0 0 -1.751-.311zm14.978 13.159-.634-1.633h-.086c-.551.695-1.121 1.178-1.708 1.45-.58.265-1.339.398-2.277.398-1.153 0-2.063-.33-2.729-.989-.658-.659-.988-1.597-.988-2.814 0-1.275.444-2.213 1.332-2.815.895-.608 2.242-.945 4.039-1.009l2.084-.065v-.526c0-1.218-.623-1.826-1.869-1.826-.96 0-2.088.29-3.384.87l-1.085-2.213c1.382-.723 2.915-1.085 4.598-1.085 1.611 0 2.847.351 3.706 1.053.859.701 1.289 1.769 1.289 3.201v8.003zm-.967-5.565-1.267.043c-.953.029-1.662.201-2.127.516-.466.315-.699.795-.699 1.439 0 .924.53 1.386 1.59 1.386.759 0 1.365-.218 1.816-.655.458-.437.687-1.017.687-1.74zm17.975 5.565h-3.277v-7.015c0-.866-.154-1.515-.461-1.944-.308-.437-.799-.655-1.472-.655-.917 0-1.579.307-1.987.923-.409.609-.613 1.622-.613 3.04v5.651h-3.276v-12.01h2.503l.44 1.536h.183a3.425 3.425 0 0 1 1.504-1.31c.644-.301 1.375-.452 2.191-.452 1.397 0 2.457.38 3.18 1.139.723.752 1.085 1.841 1.085 3.266zm8.5.215c-3.738 0-5.608-2.052-5.608-6.156 0-2.041.509-3.598 1.526-4.673 1.017-1.081 2.474-1.622 4.372-1.622 1.389 0 2.635.273 3.738.817l-.967 2.535a15.17 15.17 0 0 0 -1.439-.505 4.527 4.527 0 0 0 -1.332-.204c-1.705 0-2.557 1.21-2.557 3.631 0 2.349.852 3.523 2.557 3.523.63 0 1.214-.082 1.751-.247a6.473 6.473 0 0 0 1.611-.795v2.804a5.263 5.263 0 0 1 -1.611.698c-.537.129-1.218.194-2.041.194zm11.669-10.12c-.695 0-1.239.222-1.633.666-.394.437-.62 1.06-.677 1.87h4.598c-.014-.81-.226-1.433-.634-1.87-.408-.444-.96-.666-1.654-.666zm.462 10.12c-1.934 0-3.445-.534-4.534-1.601-1.088-1.067-1.632-2.578-1.632-4.533 0-2.013.501-3.567 1.504-4.662 1.009-1.103 2.402-1.655 4.178-1.655 1.698 0 3.019.484 3.964 1.451.945.966 1.418 2.302 1.418 4.006v1.59h-7.745c.036.931.312 1.658.827 2.181.516.523 1.239.784 2.17.784.723 0 1.407-.075 2.052-.225a10.325 10.325 0 0 0 2.019-.72v2.535a7.543 7.543 0 0 1 -1.837.634c-.651.143-1.446.215-2.384.215zm11.089-.215h-3.277v-16.715h3.277z"/></g><path d="m731 194.968a4 4 0 0 1 4-4h192a4 4 0 0 1 4 4v48a4 4 0 0 1 -4 4h-192a4 4 0 0 1 -4-4z" fill="#0063a3"/><g clip-path="url(#b)" fill="#fff"><path d="m785.267 228.901-2.2-2.2-2.134-2.133-2.2-2.2-2.133-2.134.867-.933.933-.933.933-.867.934-.933 1.2 1.266 1.266 1.2 1.267 1.267 1.267 1.267 3.133-3.134 3.133-3.133 3.134-3.133 3.066-3.134.934.934.933.933.933.867.867.933-4 4.067-4.067 4.066-4.066 4zm39.542-.933-1.139-3.739h-5.726l-1.138 3.739h-3.588l5.543-15.77h4.071l5.564 15.77zm-1.934-6.531a2845.426 2845.426 0 0 1 -1.783-5.748 18.669 18.669 0 0 1 -.28-1.052c-.236.916-.913 3.183-2.03 6.8zm12.378 6.746c-3.738 0-5.607-2.052-5.607-6.156 0-2.041.508-3.598 1.525-4.673 1.017-1.081 2.474-1.622 4.372-1.622 1.389 0 2.635.273 3.738.817l-.967 2.535a15.17 15.17 0 0 0 -1.439-.505 4.527 4.527 0 0 0 -1.332-.204c-1.704 0-2.557 1.21-2.557 3.631 0 2.349.853 3.523 2.557 3.523.63 0 1.214-.082 1.751-.247a6.473 6.473 0 0 0 1.611-.795v2.804a5.263 5.263 0 0 1 -1.611.698c-.537.129-1.218.194-2.041.194zm11.572 0c-3.738 0-5.607-2.052-5.607-6.156 0-2.041.508-3.598 1.525-4.673 1.017-1.081 2.474-1.622 4.372-1.622 1.39 0 2.636.273 3.739.817l-.967 2.535a15.28 15.28 0 0 0 -1.44-.505 4.527 4.527 0 0 0 -1.332-.204c-1.704 0-2.556 1.21-2.556 3.631 0 2.349.852 3.523 2.556 3.523.63 0 1.214-.082 1.751-.247a6.496 6.496 0 0 0 1.612-.795v2.804a5.268 5.268 0 0 1 -1.612.698c-.537.129-1.217.194-2.041.194zm11.669-10.12c-.695 0-1.239.222-1.633.666-.394.437-.619 1.06-.676 1.87h4.597c-.014-.81-.225-1.433-.634-1.87-.408-.444-.959-.666-1.654-.666zm.462 10.12c-1.934 0-3.445-.534-4.533-1.601-1.089-1.067-1.633-2.578-1.633-4.533 0-2.013.501-3.567 1.504-4.662 1.01-1.103 2.403-1.655 4.179-1.655 1.697 0 3.018.484 3.964 1.451.945.966 1.417 2.302 1.417 4.006v1.59h-7.745c.036.931.312 1.658.828 2.181.515.523 1.238.784 2.169.784.724 0 1.408-.075 2.052-.225a10.332 10.332 0 0 0 2.02-.72v2.535a7.543 7.543 0 0 1 -1.837.634c-.652.143-1.447.215-2.385.215zm14.408 0c-1.411 0-2.517-.512-3.319-1.537h-.172c.115 1.003.172 1.583.172 1.741v4.866h-3.276v-17.295h2.664l.462 1.558h.15c.766-1.189 1.901-1.784 3.405-1.784 1.418 0 2.528.548 3.33 1.644s1.203 2.617 1.203 4.565c0 1.282-.189 2.396-.569 3.341-.372.946-.906 1.665-1.601 2.159-.694.495-1.511.742-2.449.742zm-.967-9.829c-.809 0-1.4.25-1.772.751-.372.495-.566 1.315-.58 2.46v.355c0 1.289.19 2.213.569 2.771.387.559.996.838 1.826.838 1.469 0 2.203-1.21 2.203-3.631 0-1.181-.183-2.066-.548-2.653-.358-.594-.924-.891-1.698-.891zm13.603 7.218c.573 0 1.26-.125 2.062-.376v2.439c-.816.365-1.819.548-3.007.548-1.311 0-2.267-.33-2.868-.989-.595-.666-.892-1.661-.892-2.986v-5.79h-1.568v-1.386l1.804-1.095.946-2.536h2.094v2.557h3.363v2.46h-3.363v5.79c0 .466.129.809.387 1.031.265.222.612.333 1.042.333z"/></g><path d="m103 42.968h845v-4h-845zm851 6v215h4v-215zm-6 221h-845v4h845zm-851-6v-215h-4v215zm6 6a6 6 0 0 1 -6-6h-4c0 5.523 4.477 10 10 10zm851-6a6 6 0 0 1 -6 6v4c5.523 0 10-4.477 10-10zm-6-221a6 6 0 0 1 6 6h4c0-5.523-4.477-10-10-10zm-845-4c-5.523 0-10 4.477-10 10h4a6 6 0 0 1 6-6z" fill="#585c65"/></g></svg>