<svg width="1087" height="370" fill="none" xmlns="http://www.w3.org/2000/svg"><path fill="#F4F4F8" d="M0 .629h1087v369.16H0z"/><g clip-path="url(#prefix__clip0_6765_86649)"><path fill="#E5E5E5" d="M256.25 22.677h574.5v325.064h-574.5z"/><g clip-path="url(#prefix__clip1_6765_86649)"><path fill="#fff" d="M256.25 22.677h574.5v37.064h-574.5z"/><path fill="#000" d="M256.25 22.677h574.5v37.064h-574.5z"/><g clip-path="url(#prefix__clip2_6765_86649)"><path d="M268.854 45.658h11.942V44.33h-11.942v1.327zm0-3.317h11.942v-1.327h-11.942v1.327zm0-4.644v1.327h11.942v-1.327h-11.942z" fill="#fff"/></g><path d="M300.312 35.97a2 2 0 00-.768.151.463.463 0 01-.355-.855 2.93 2.93 0 011.123-.223h.925a.463.463 0 110 .926h-.925zM302.626 35.506c0-.255.207-.463.463-.463h1.851a.463.463 0 110 .926h-1.851a.463.463 0 01-.463-.463zM306.328 35.506c0-.255.208-.463.463-.463h.926c.397 0 .776.08 1.122.223a.463.463 0 01-.354.855 2 2 0 00-.768-.152h-.926a.463.463 0 01-.463-.463zM298.208 36.602a.463.463 0 01.25.605 1.994 1.994 0 00-.152.768v.925a.463.463 0 11-.926 0v-.925c0-.397.079-.776.223-1.123a.463.463 0 01.605-.25zM309.821 36.602a.463.463 0 01.605.25c.143.347.222.726.222 1.123v.925a.463.463 0 11-.925 0v-.925c0-.273-.055-.532-.152-.768a.463.463 0 01.25-.605zM297.843 40.289c.256 0 .463.207.463.463v1.851a.463.463 0 11-.926 0v-1.851c0-.256.208-.463.463-.463zM310.185 40.289c.256 0 .463.207.463.463v1.851a.463.463 0 11-.925 0v-1.851c0-.256.207-.463.462-.463zM297.843 43.992c.256 0 .463.207.463.462v.926c0 .273.054.532.152.768a.463.463 0 11-.855.354 2.917 2.917 0 01-.223-1.122v-.926c0-.255.208-.462.463-.462zM310.185 43.992c.256 0 .463.207.463.462v.926c0 .397-.079.776-.222 1.122a.463.463 0 01-.855-.354c.097-.236.152-.495.152-.768v-.926c0-.255.207-.462.462-.462zM298.939 47.484a.463.463 0 01.605-.25 2 2 0 00.768.152h.925a.463.463 0 110 .925h-.925a2.93 2.93 0 01-1.123-.222.463.463 0 01-.25-.605zM309.089 47.484a.463.463 0 01-.25.605 2.92 2.92 0 01-1.122.222h-.926a.463.463 0 010-.925h.926a2 2 0 00.768-.152.462.462 0 01.604.25zM302.626 47.849c0-.256.207-.463.463-.463h1.851a.463.463 0 110 .925h-1.851a.463.463 0 01-.463-.462zM309.278 37.105a.462.462 0 10-.654-.654l-.615.614a.462.462 0 10.655.655l.614-.615zM307.434 38.95a.462.462 0 10-.654-.655l-1.23 1.23a.462.462 0 10.655.654l1.229-1.23zM304.975 41.409a.462.462 0 10-.654-.655l-.307.306-.306-.306a.462.462 0 10-.654.655l.306.306-.269.269a.462.462 0 10.655.654l.268-.269.269.27a.463.463 0 00.655-.655l-.269-.27.306-.305zM302.516 43.868a.462.462 0 10-.655-.655l-1.229 1.23a.462.462 0 10.654.654l1.23-1.23zM300.057 46.327a.462.462 0 10-.655-.655l-.614.615a.462.462 0 10.654.654l.615-.614zM308.587 46.941a.462.462 0 10.654-.654l-.615-.615a.462.462 0 10-.654.655l.615.614zM306.742 45.097a.463.463 0 00.655-.654l-1.23-1.23a.462.462 0 10-.654.655l1.229 1.23zM301.824 40.179a.463.463 0 00.655-.654l-1.23-1.23a.463.463 0 00-.655.654l1.23 1.23zM299.365 37.72a.462.462 0 10.654-.655l-.614-.614a.463.463 0 00-.655.654l.615.615zM302.198 38.523c.183-.055.379-.086.582-.086h.463a.463.463 0 100-.925h-.463c-.295 0-.581.044-.851.125a.463.463 0 10.269.886zM304.786 37.512a.463.463 0 100 .925h.463c.203 0 .398.03.582.086a.462.462 0 00.269-.886 2.932 2.932 0 00-.851-.125h-.463zM300.86 39.86a.463.463 0 10-.886-.268c-.081.27-.125.556-.125.851v.463a.463.463 0 10.925 0v-.463c0-.203.031-.399.086-.582zM308.054 39.592a.462.462 0 10-.886.269c.056.183.086.379.086.582v.463a.463.463 0 10.926 0v-.463c0-.295-.044-.581-.126-.85zM300.774 42.449a.462.462 0 10-.925 0v.463c0 .295.044.58.125.85a.464.464 0 00.886-.268 2.03 2.03 0 01-.086-.582v-.463zM308.18 42.449a.463.463 0 10-.926 0v.463c0 .203-.03.398-.086.582a.463.463 0 00.886.269c.082-.27.126-.556.126-.851v-.463zM302.198 44.831a.464.464 0 00-.269.886c.27.082.556.126.851.126h.463a.463.463 0 100-.926h-.463c-.203 0-.399-.03-.582-.086zM306.1 45.717a.463.463 0 00-.269-.886 2.004 2.004 0 01-.582.086h-.463a.463.463 0 100 .926h.463c.295 0 .581-.044.851-.126z" fill="#fff"/></g><path fill="#CBCBCB" d="M266.864 70.356h553.271v132.016H266.864z"/><path fill="#fff" d="M267.528 71.02h551.945v43.12H267.528z"/><path d="M279.574 98.08V87.66h1.212v9.321h4.596v1.098h-5.808zm8.754 0h-1.183v-7.81h1.183v7.81zm-1.283-9.927c0-.27.066-.468.199-.592a.691.691 0 01.499-.192c.19 0 .354.064.492.192.138.129.207.326.207.592 0 .266-.069.465-.207.598a.698.698 0 01-.492.193.691.691 0 01-.499-.193c-.133-.133-.199-.332-.199-.598zm8.995 7.796c0 .727-.271 1.288-.812 1.682-.542.394-1.302.591-2.281.591-1.035 0-1.843-.163-2.423-.491v-1.098c.376.19.777.34 1.205.45.432.108.848.163 1.247.163.617 0 1.093-.097 1.425-.292.333-.2.499-.501.499-.905 0-.304-.133-.563-.399-.777-.261-.219-.775-.475-1.539-.77-.727-.27-1.245-.505-1.554-.705a2.198 2.198 0 01-.684-.691 1.82 1.82 0 01-.221-.92c0-.636.259-1.138.777-1.503.518-.37 1.228-.556 2.131-.556.84 0 1.662.17 2.465.513l-.42.962c-.784-.323-1.494-.485-2.131-.485-.561 0-.983.088-1.268.264-.286.176-.428.418-.428.727 0 .209.052.387.157.534.109.148.282.288.52.42.238.134.694.326 1.368.578.927.338 1.551.677 1.874 1.02.328.341.492.771.492 1.29zm4.62 1.297c.209 0 .411-.014.606-.043.194-.033.349-.066.463-.1v.906a2.094 2.094 0 01-.57.15 3.965 3.965 0 01-.67.063c-1.511 0-2.266-.795-2.266-2.387v-4.646h-1.119v-.57l1.119-.492.499-1.668h.684v1.81h2.266v.92h-2.266v4.596c0 .47.111.832.335 1.083.223.252.529.378.919.378zm6.938.834V87.66h1.211V98.08h-1.211zm6.586-.834c.209 0 .411-.014.606-.043.195-.033.349-.066.463-.1v.906a2.094 2.094 0 01-.57.15c-.247.042-.47.063-.67.063-1.51 0-2.266-.795-2.266-2.387v-4.646h-1.119v-.57l1.119-.492.499-1.668h.684v1.81h2.266v.92h-2.266v4.596c0 .47.112.832.335 1.083.223.252.53.378.919.378zm6.102.976c-1.154 0-2.066-.351-2.736-1.054-.665-.704-.998-1.68-.998-2.93 0-1.258.309-2.258.927-3 .622-.74 1.456-1.111 2.501-1.111.979 0 1.753.323 2.323.969.57.641.855 1.49.855 2.544v.748h-5.38c.024.917.254 1.613.691 2.088.442.475 1.062.713 1.86.713.841 0 1.673-.176 2.494-.527v1.054c-.418.18-.814.31-1.19.385-.37.081-.819.121-1.347.121zm-.32-7.105c-.627 0-1.129.205-1.504.613-.37.409-.589.974-.656 1.696h4.084c0-.746-.166-1.316-.499-1.71-.333-.399-.808-.599-1.425-.599zm15.338 6.963v-5.081c0-.623-.133-1.088-.4-1.397-.266-.314-.679-.47-1.24-.47-.736 0-1.28.211-1.631.634-.352.423-.528 1.074-.528 1.953v4.36h-1.183V93c0-.623-.133-1.088-.399-1.397-.266-.314-.682-.47-1.247-.47-.741 0-1.285.223-1.632.67-.342.441-.513 1.168-.513 2.18v4.098h-1.183v-7.81h.962l.193 1.068h.057c.223-.38.536-.677.94-.89.409-.214.865-.321 1.368-.321 1.221 0 2.02.442 2.395 1.325h.057a2.49 2.49 0 011.012-.969c.442-.237.945-.356 1.511-.356.883 0 1.544.228 1.981.684.442.451.663 1.176.663 2.173v5.096h-1.183z" fill="#252A2E"/><g clip-path="url(#prefix__clip3_6765_86649)"><path fill="#fff" d="M789.288 85.946h13.268v13.268h-13.268z"/><path fill="#fff" d="M787.961 85.946h13.268v13.268h-13.268z"/><path fill-rule="evenodd" clip-rule="evenodd" d="M789.205 84.62h12.771c1.003 0 1.824.795 1.824 1.768v12.383c0 .974-.821 1.77-1.824 1.77h-12.771c-1.003 0-1.824-.796-1.824-1.77V86.389c0-.973.821-1.769 1.824-1.769zm12.771 14.151V86.389h-12.771v12.383h12.771z" fill="#90939F"/><path fill-rule="evenodd" clip-rule="evenodd" d="M789.141 84.62h12.899c1.013 0 1.843.795 1.843 1.768v12.383c0 .974-.83 1.77-1.843 1.77h-12.899c-1.014 0-1.843-.796-1.843-1.77V86.389c0-.973.829-1.769 1.843-1.769zM802.04 98.77V86.389h-12.899v12.383h12.899z" fill="#90939F"/></g><path fill="#fff" d="M267.528 114.804h551.945v43.121H267.528z"/><path d="M279.574 141.75v-10.419h1.212v9.321h4.596v1.098h-5.808zm8.754 0h-1.183v-7.811h1.183v7.811zm-1.283-9.927c0-.271.066-.468.199-.592a.692.692 0 01.499-.192c.19 0 .354.064.492.192s.207.326.207.592c0 .266-.069.465-.207.598a.696.696 0 01-.492.193.689.689 0 01-.499-.193c-.133-.133-.199-.332-.199-.598zm8.995 7.796c0 .727-.271 1.287-.812 1.682-.542.394-1.302.591-2.281.591-1.035 0-1.843-.164-2.423-.492v-1.097c.376.19.777.34 1.205.449.432.109.848.164 1.247.164.617 0 1.093-.098 1.425-.292.333-.2.499-.502.499-.905 0-.304-.133-.563-.399-.777-.261-.219-.775-.475-1.539-.77-.727-.271-1.245-.506-1.554-.705a2.202 2.202 0 01-.684-.692 1.818 1.818 0 01-.221-.919c0-.636.259-1.138.777-1.503.518-.371 1.228-.556 2.131-.556.84 0 1.662.171 2.465.513l-.42.962c-.784-.323-1.494-.485-2.131-.485-.561 0-.983.088-1.268.264-.286.176-.428.418-.428.727 0 .209.052.387.157.534.109.148.282.288.52.421.238.133.694.325 1.368.577.927.337 1.551.677 1.874 1.019.328.342.492.772.492 1.29zm4.62 1.297c.209 0 .411-.014.606-.043.194-.033.349-.066.463-.1v.905a2.08 2.08 0 01-.57.15 3.943 3.943 0 01-.67.064c-1.511 0-2.266-.796-2.266-2.387v-4.647h-1.119v-.57l1.119-.491.499-1.668h.684v1.81h2.266v.919h-2.266v4.597c0 .47.111.831.335 1.083.223.252.529.378.919.378zm6.938.834v-10.419h1.211v10.419h-1.211zm6.586-.834c.209 0 .411-.014.606-.043.195-.033.349-.066.463-.1v.905a2.08 2.08 0 01-.57.15c-.247.043-.47.064-.67.064-1.51 0-2.266-.796-2.266-2.387v-4.647h-1.119v-.57l1.119-.491.499-1.668h.684v1.81h2.266v.919h-2.266v4.597c0 .47.112.831.335 1.083.223.252.53.378.919.378zm6.102.976c-1.154 0-2.066-.351-2.736-1.055-.665-.703-.998-1.679-.998-2.928 0-1.259.309-2.259.927-3.001.622-.741 1.456-1.111 2.501-1.111.979 0 1.753.323 2.323.969.57.641.855 1.489.855 2.544v.748h-5.38c.024.917.254 1.613.691 2.088.442.475 1.062.713 1.86.713a6.28 6.28 0 002.494-.528v1.055a6 6 0 01-1.19.385c-.37.081-.819.121-1.347.121zm-.32-7.105c-.627 0-1.129.205-1.504.613-.37.409-.589.974-.656 1.696h4.084c0-.746-.166-1.316-.499-1.71-.333-.399-.808-.599-1.425-.599zm15.338 6.963v-5.081c0-.623-.133-1.088-.4-1.397-.266-.314-.679-.471-1.24-.471-.736 0-1.28.212-1.631.635-.352.423-.528 1.073-.528 1.952v4.362h-1.183v-5.081c0-.623-.133-1.088-.399-1.397-.266-.314-.682-.471-1.247-.471-.741 0-1.285.224-1.632.67-.342.442-.513 1.169-.513 2.181v4.098h-1.183v-7.811h.962l.193 1.069h.057c.223-.38.536-.677.94-.891.409-.213.865-.32 1.368-.32 1.221 0 2.02.442 2.395 1.325h.057c.233-.408.57-.731 1.012-.969.442-.238.945-.356 1.511-.356.883 0 1.544.228 1.981.684.442.451.663 1.176.663 2.173v5.096h-1.183z" fill="#252A2E"/><g clip-path="url(#prefix__clip4_6765_86649)"><path fill="#fff" d="M789.288 129.73h13.268v13.268h-13.268z"/><path fill="#fff" d="M787.961 129.73h13.268v13.268h-13.268z"/><path fill-rule="evenodd" clip-rule="evenodd" d="M789.205 128.403h12.771c1.003 0 1.824.796 1.824 1.769v12.384c0 .973-.821 1.769-1.824 1.769h-12.771c-1.003 0-1.824-.796-1.824-1.769v-12.384c0-.973.821-1.769 1.824-1.769zm12.771 14.153v-12.384h-12.771v12.384h12.771z" fill="#90939F"/><path fill-rule="evenodd" clip-rule="evenodd" d="M789.141 128.403h12.899c1.013 0 1.843.796 1.843 1.769v12.384c0 .973-.83 1.769-1.843 1.769h-12.899c-1.014 0-1.843-.796-1.843-1.769v-12.384c0-.973.829-1.769 1.843-1.769zm12.899 14.153v-12.384h-12.899v12.384h12.899z" fill="#90939F"/></g><path fill="#fff" d="M267.528 158.588h551.945v43.121H267.528z"/><path d="M279.574 185.534v-10.419h1.212v9.321h4.596v1.098h-5.808zm8.754 0h-1.183v-7.811h1.183v7.811zm-1.283-9.927c0-.271.066-.468.199-.592a.692.692 0 01.499-.192c.19 0 .354.064.492.192.138.129.207.326.207.592 0 .266-.069.465-.207.598a.696.696 0 01-.492.193.689.689 0 01-.499-.193c-.133-.133-.199-.332-.199-.598zm8.995 7.796c0 .727-.271 1.287-.812 1.682-.542.394-1.302.591-2.281.591-1.035 0-1.843-.164-2.423-.491v-1.098c.376.19.777.34 1.205.449.432.109.848.164 1.247.164.617 0 1.093-.097 1.425-.292.333-.2.499-.501.499-.905 0-.304-.133-.563-.399-.777-.261-.219-.775-.475-1.539-.77-.727-.271-1.245-.506-1.554-.705a2.21 2.21 0 01-.684-.691 1.821 1.821 0 01-.221-.92c0-.636.259-1.138.777-1.503.518-.371 1.228-.556 2.131-.556.84 0 1.662.171 2.465.513l-.42.962c-.784-.323-1.494-.485-2.131-.485-.561 0-.983.088-1.268.264-.286.176-.428.418-.428.727 0 .209.052.387.157.534.109.148.282.288.52.421.238.133.694.325 1.368.577.927.337 1.551.677 1.874 1.019.328.342.492.772.492 1.29zm4.62 1.297c.209 0 .411-.014.606-.043.194-.033.349-.066.463-.1v.905a2.08 2.08 0 01-.57.15 3.943 3.943 0 01-.67.064c-1.511 0-2.266-.796-2.266-2.387v-4.646h-1.119v-.571l1.119-.491.499-1.668h.684v1.81h2.266v.92h-2.266v4.596c0 .47.111.831.335 1.083.223.252.529.378.919.378zm6.938.834v-10.419h1.211v10.419h-1.211zm6.586-.834c.209 0 .411-.014.606-.043.195-.033.349-.066.463-.1v.905a2.08 2.08 0 01-.57.15c-.247.043-.47.064-.67.064-1.51 0-2.266-.796-2.266-2.387v-4.646h-1.119v-.571l1.119-.491.499-1.668h.684v1.81h2.266v.92h-2.266v4.596c0 .47.112.831.335 1.083.223.252.53.378.919.378zm6.102.976c-1.154 0-2.066-.351-2.736-1.054-.665-.704-.998-1.68-.998-2.929 0-1.259.309-2.259.927-3.001.622-.741 1.456-1.111 2.501-1.111.979 0 1.753.323 2.323.969.57.641.855 1.489.855 2.544v.748h-5.38c.024.917.254 1.613.691 2.088.442.475 1.062.713 1.86.713.841 0 1.673-.176 2.494-.527v1.054a6 6 0 01-1.19.385c-.37.081-.819.121-1.347.121zm-.32-7.105c-.627 0-1.129.205-1.504.613-.37.409-.589.974-.656 1.696h4.084c0-.746-.166-1.316-.499-1.71-.333-.399-.808-.599-1.425-.599zm15.338 6.963v-5.081c0-.623-.133-1.088-.4-1.397-.266-.314-.679-.47-1.24-.47-.736 0-1.28.211-1.631.634-.352.423-.528 1.073-.528 1.952v4.362h-1.183v-5.081c0-.623-.133-1.088-.399-1.397-.266-.314-.682-.47-1.247-.47-.741 0-1.285.223-1.632.669-.342.442-.513 1.169-.513 2.181v4.098h-1.183v-7.811h.962l.193 1.069h.057c.223-.38.536-.677.94-.891.409-.213.865-.32 1.368-.32 1.221 0 2.02.442 2.395 1.325h.057c.233-.408.57-.731 1.012-.969.442-.238.945-.356 1.511-.356.883 0 1.544.228 1.981.684.442.451.663 1.176.663 2.173v5.096h-1.183z" fill="#252A2E"/><g clip-path="url(#prefix__clip5_6765_86649)"><path fill="#fff" d="M789.288 173.514h13.268v13.268h-13.268z"/><path fill="#fff" d="M787.961 173.514h13.268v13.268h-13.268z"/><path fill-rule="evenodd" clip-rule="evenodd" d="M789.205 172.187h12.771c1.003 0 1.824.796 1.824 1.769v12.384c0 .973-.821 1.769-1.824 1.769h-12.771c-1.003 0-1.824-.796-1.824-1.769v-12.384c0-.973.821-1.769 1.824-1.769zm12.771 14.153v-12.384h-12.771v12.384h12.771z" fill="#90939F"/><path fill-rule="evenodd" clip-rule="evenodd" d="M789.141 172.187h12.899c1.013 0 1.843.796 1.843 1.769v12.384c0 .973-.83 1.769-1.843 1.769h-12.899c-1.014 0-1.843-.796-1.843-1.769v-12.384c0-.973.829-1.769 1.843-1.769zm12.899 14.153v-12.384h-12.899v12.384h12.899z" fill="#90939F"/></g><path fill="#fff" d="M266.864 203.698h553.271v43.121H266.864z"/><path d="M278.911 230.759V220.34h1.211v9.321h4.597v1.098h-5.808zm8.753 0h-1.183v-7.811h1.183v7.811zm-1.283-9.927c0-.271.067-.468.2-.592a.69.69 0 01.499-.192c.19 0 .354.064.491.192.138.129.207.326.207.592 0 .266-.069.465-.207.599a.695.695 0 01-.491.192.69.69 0 01-.499-.192c-.133-.134-.2-.333-.2-.599zm8.996 7.796c0 .727-.271 1.288-.813 1.682-.541.394-1.302.591-2.28.591-1.036 0-1.844-.164-2.423-.491v-1.098c.375.19.777.34 1.204.449.432.109.848.164 1.247.164.618 0 1.093-.097 1.426-.292.332-.2.498-.501.498-.905 0-.304-.133-.563-.399-.777-.261-.218-.774-.475-1.539-.77-.727-.27-1.245-.506-1.554-.705a2.2 2.2 0 01-.684-.691 1.821 1.821 0 01-.221-.92c0-.636.259-1.137.777-1.503.518-.371 1.228-.556 2.131-.556.841 0 1.663.171 2.466.513l-.421.962c-.784-.323-1.494-.485-2.131-.485-.56 0-.983.088-1.268.264-.285.176-.428.418-.428.727 0 .209.053.387.157.534.109.148.283.288.52.421.238.133.694.325 1.369.577.926.337 1.551.677 1.874 1.019.328.342.492.772.492 1.29zm4.619 1.297c.209 0 .411-.014.606-.043.195-.033.349-.066.463-.099v.905a2.123 2.123 0 01-.57.149c-.247.043-.47.064-.67.064-1.51 0-2.266-.795-2.266-2.387v-4.646h-1.119v-.57l1.119-.492.499-1.668h.684v1.81h2.266v.92h-2.266v4.596c0 .471.112.832.335 1.083.223.252.53.378.919.378zm6.938.834V220.34h1.212v10.419h-1.212zm6.587-.834c.209 0 .411-.014.606-.043.194-.033.349-.066.463-.099v.905a2.145 2.145 0 01-.57.149 3.943 3.943 0 01-.67.064c-1.511 0-2.266-.795-2.266-2.387v-4.646h-1.119v-.57l1.119-.492.498-1.668h.685v1.81h2.266v.92h-2.266v4.596c0 .471.111.832.335 1.083.223.252.529.378.919.378zm6.102.976c-1.155 0-2.067-.351-2.737-1.054-.665-.703-.997-1.68-.997-2.929 0-1.259.309-2.259.926-3 .622-.742 1.456-1.112 2.501-1.112.979 0 1.754.323 2.324.969.57.641.855 1.489.855 2.544v.748h-5.381c.024.917.255 1.613.692 2.088.442.476 1.061.713 1.86.713a6.3 6.3 0 002.494-.527v1.054a6.021 6.021 0 01-1.19.385c-.371.081-.82.121-1.347.121zm-.321-7.105c-.627 0-1.128.205-1.503.613-.371.409-.59.974-.656 1.696h4.083c0-.746-.166-1.316-.499-1.71-.332-.399-.807-.599-1.425-.599zm15.338 6.963v-5.081c0-.623-.133-1.088-.399-1.397-.266-.314-.679-.47-1.24-.47-.736 0-1.28.211-1.632.634-.352.423-.527 1.074-.527 1.953v4.361h-1.183v-5.081c0-.623-.133-1.088-.399-1.397-.266-.314-.682-.47-1.248-.47-.741 0-1.285.223-1.631.67-.342.441-.514 1.168-.514 2.18v4.098h-1.182v-7.811h.962l.192 1.069h.057c.223-.38.537-.677.941-.89a2.9 2.9 0 011.368-.321c1.221 0 2.019.442 2.394 1.325h.057c.233-.408.57-.731 1.012-.969.442-.237.946-.356 1.511-.356.884 0 1.544.228 1.981.684.442.451.663 1.176.663 2.174v5.095h-1.183z" fill="#252A2E"/><g clip-path="url(#prefix__clip6_6765_86649)"><path fill="#fff" d="M789.951 218.625h13.268v13.268h-13.268z"/><path fill="#fff" d="M788.624 218.625h13.268v13.268h-13.268z"/><path fill-rule="evenodd" clip-rule="evenodd" d="M789.868 217.298h12.771c1.003 0 1.824.796 1.824 1.769v12.384c0 .973-.821 1.769-1.824 1.769h-12.771c-1.003 0-1.824-.796-1.824-1.769v-12.384c0-.973.821-1.769 1.824-1.769zm12.771 14.153v-12.384h-12.771v12.384h12.771z" fill="#90939F"/><path fill-rule="evenodd" clip-rule="evenodd" d="M789.804 217.298h12.899c1.014 0 1.843.796 1.843 1.769v12.384c0 .973-.829 1.769-1.843 1.769h-12.899c-1.014 0-1.843-.796-1.843-1.769v-12.384c0-.973.829-1.769 1.843-1.769zm12.899 14.153v-12.384h-12.899v12.384h12.899z" fill="#90939F"/></g><g filter="url(#prefix__filter0_ddd_6765_86649)"><rect x="262" y="63.741" width="563" height="88.938" rx="3.407" fill="#000"/><g clip-path="url(#prefix__clip7_6765_86649)"><path d="M292.175 96.947H276.97c-2.236 0-4.074-1.839-4.074-4.075 0-.695.199-1.39.547-2.037l7.602-13.117c1.143-1.938 3.627-2.634 5.565-1.49.596.347 1.143.844 1.49 1.49l7.603 13.167c1.142 1.938.447 4.422-1.491 5.565a4.258 4.258 0 01-2.037.497zm-7.602-19.776c-.945 0-1.789.497-2.236 1.292l-7.603 13.167c-.695 1.242-.298 2.832.944 3.528a2.41 2.41 0 001.292.348h15.205a2.565 2.565 0 002.583-2.584 2.41 2.41 0 00-.347-1.292l-7.603-13.217c-.447-.795-1.291-1.242-2.235-1.242z" fill="#FF8B00"/><path d="M283.231 81.842h2.385v7.403h-2.385v-7.403zM283.231 90.587h2.385v2.285h-2.385v-2.285z" fill="#fff"/></g><path d="M313.709 89.203h-1.908l-1.071-4.153a22.679 22.679 0 01-.205-.913 10.621 10.621 0 01-.162-.936c-.022.195-.076.509-.163.941-.086.43-.153.736-.2.92l-1.065 4.14h-1.903l-2.017-7.904h1.649l1.011 4.315c.177.796.305 1.487.384 2.07.022-.205.07-.522.146-.951.079-.433.153-.768.222-1.006l1.152-4.428h1.584l1.151 4.428a23.745 23.745 0 01.363 1.957c.036-.28.093-.63.173-1.048.079-.422.151-.763.216-1.022l1.006-4.315h1.649l-2.012 7.905zm6.78 0l-.319-.822h-.044c-.277.35-.564.593-.859.73-.292.133-.674.2-1.147.2-.58 0-1.038-.166-1.373-.497-.332-.332-.497-.804-.497-1.417 0-.642.223-1.114.67-1.416.451-.307 1.128-.476 2.033-.509l1.049-.032v-.265c0-.613-.314-.92-.941-.92-.483 0-1.051.147-1.703.439l-.546-1.114c.696-.364 1.467-.546 2.314-.546.811 0 1.433.176 1.865.53.433.353.649.89.649 1.61v4.029h-1.151zm-.487-2.8l-.638.02c-.48.015-.836.102-1.071.26-.234.159-.351.4-.351.725 0 .465.267.697.8.697.382 0 .687-.11.914-.33.231-.22.346-.511.346-.875v-.498zm6.779-3.358c.224 0 .409.016.557.048l-.124 1.547a1.893 1.893 0 00-.487-.055c-.526 0-.937.136-1.233.406-.292.27-.438.649-.438 1.135v3.077h-1.649v-6.045h1.249l.243 1.017h.082c.187-.34.439-.611.757-.817.32-.209.668-.313 1.043-.313zm7.298 6.158h-1.649v-3.53c0-.437-.077-.763-.232-.98-.155-.22-.402-.33-.741-.33-.461 0-.795.156-1 .466-.206.306-.308.816-.308 1.53v2.844h-1.65v-6.045h1.26l.222.773h.092c.184-.292.436-.512.757-.66a2.577 2.577 0 011.103-.226c.703 0 1.236.19 1.6.573.364.378.546.926.546 1.643v3.942zm1.692-7.608c0-.537.299-.805.897-.805.599 0 .898.268.898.805 0 .256-.076.457-.227.6-.148.141-.372.212-.671.212-.598 0-.897-.27-.897-.811zm1.719 7.608h-1.649v-6.045h1.649v6.045zm7.379 0h-1.649v-3.53c0-.437-.077-.763-.232-.98-.155-.22-.402-.33-.741-.33-.461 0-.795.156-1 .466-.206.306-.308.816-.308 1.53v2.844h-1.649v-6.045h1.259l.222.773h.092c.184-.292.436-.512.757-.66a2.577 2.577 0 011.103-.226c.703 0 1.236.19 1.6.573.364.378.546.926.546 1.643v3.942zm7.023-6.045v.838l-.946.244c.173.27.259.573.259.908 0 .649-.227 1.155-.681 1.52-.451.36-1.078.54-1.882.54l-.297-.016-.243-.027c-.17.13-.254.273-.254.432 0 .238.302.357.908.357h1.027c.663 0 1.168.142 1.514.427.35.285.525.703.525 1.254 0 .707-.296 1.255-.887 1.644-.588.39-1.433.584-2.536.584-.843 0-1.489-.148-1.936-.443a1.395 1.395 0 01-.665-1.233c0-.364.114-.669.341-.914.227-.245.56-.42 1-.524a1.113 1.113 0 01-.443-.352.853.853 0 01-.189-.524c0-.23.066-.422.2-.573.133-.155.326-.307.578-.454a1.642 1.642 0 01-.757-.66c-.184-.303-.275-.66-.275-1.07 0-.66.214-1.17.643-1.53.429-.361 1.042-.541 1.838-.541.17 0 .37.016.6.048.235.029.384.05.449.065h2.109zm-4.666 6.9c0 .226.108.405.324.534.22.13.526.195.919.195.591 0 1.055-.081 1.39-.243.335-.162.503-.384.503-.665 0-.227-.099-.384-.298-.47-.198-.087-.504-.13-.919-.13h-.854c-.303 0-.557.07-.762.21a.667.667 0 00-.303.568zm.6-4.921c0 .328.074.588.222.779.151.19.38.286.686.286.31 0 .537-.095.682-.286.144-.191.216-.451.216-.779 0-.728-.299-1.092-.898-1.092-.605 0-.908.364-.908 1.092zm12.817-.119h.551c.515 0 .901-.1 1.157-.303.256-.205.384-.503.384-.892 0-.393-.108-.683-.324-.87-.213-.188-.548-.282-1.006-.282h-.762v2.347zm3.784-1.254c0 .85-.266 1.501-.8 1.952-.53.45-1.285.675-2.265.675h-.719v2.812h-1.677v-7.905h2.525c.959 0 1.687.207 2.185.622.501.41.751 1.025.751 1.844zm4.801-.72c.223 0 .409.017.557.05l-.125 1.546a1.88 1.88 0 00-.486-.055c-.527 0-.938.136-1.233.406-.292.27-.438.649-.438 1.135v3.077h-1.649v-6.045h1.249l.243 1.017h.081c.188-.34.44-.611.757-.817a1.877 1.877 0 011.044-.313zm3.032 3.126c0 .598.097 1.05.292 1.357.198.306.519.46.962.46.44 0 .755-.152.946-.455.195-.306.292-.76.292-1.362 0-.599-.097-1.047-.292-1.347-.194-.299-.513-.448-.957-.448-.439 0-.757.15-.951.448-.195.296-.292.745-.292 1.347zm4.179 0c0 .984-.259 1.753-.778 2.308-.519.556-1.242.833-2.168.833-.581 0-1.093-.126-1.536-.378a2.556 2.556 0 01-1.022-1.098c-.238-.476-.357-1.03-.357-1.665 0-.988.258-1.756.773-2.304.516-.547 1.24-.821 2.174-.821.58 0 1.092.126 1.536.378.443.252.784.615 1.021 1.087.238.472.357 1.025.357 1.66zm6.839 3.033h-1.649v-3.53c0-.437-.074-.763-.222-.98-.144-.22-.373-.33-.686-.33-.422 0-.729.156-.92.466-.191.31-.286.82-.286 1.53v2.844h-1.649v-6.045h1.26l.221.773h.092c.162-.277.397-.494.703-.648a2.26 2.26 0 011.054-.238c.905 0 1.518.295 1.839.886h.146c.162-.28.4-.499.713-.654a2.41 2.41 0 011.071-.232c.685 0 1.202.176 1.552.53.353.35.53.911.53 1.686v3.942h-1.655v-3.53c0-.437-.074-.763-.222-.98-.144-.22-.373-.33-.686-.33-.404 0-.707.145-.909.433-.198.289-.297.746-.297 1.374v3.033zm8.85.108c-.71 0-1.267-.258-1.671-.773h-.086c.057.505.086.797.086.876v2.45h-1.649v-8.706h1.341l.233.784h.075c.386-.598.957-.897 1.714-.897.714 0 1.273.275 1.676.827.404.551.606 1.317.606 2.298 0 .645-.096 1.205-.287 1.681-.187.476-.456.838-.805 1.087-.35.249-.761.373-1.233.373zm-.487-4.947c-.407 0-.704.126-.892.378-.187.249-.285.662-.292 1.239v.178c0 .649.096 1.114.287 1.395.194.281.501.422.919.422.739 0 1.108-.61 1.108-1.828 0-.595-.092-1.04-.275-1.335-.181-.3-.465-.45-.855-.45zm6.785 3.633c.288 0 .634-.063 1.038-.189v1.227c-.411.184-.915.276-1.514.276-.659 0-1.141-.166-1.443-.497-.3-.336-.449-.837-.449-1.503v-2.915h-.79V83.7l.909-.552.476-1.276h1.054v1.287h1.692v1.238h-1.692v2.915c0 .234.065.407.194.519a.793.793 0 00.525.167zM305.768 104.109v-5.472h.636v4.896h2.414v.576h-3.05zm7.43-2.055c0 .669-.169 1.192-.506 1.569-.336.374-.802.561-1.396.561-.367 0-.692-.086-.977-.258a1.708 1.708 0 01-.659-.741 2.595 2.595 0 01-.232-1.131c0-.669.168-1.189.502-1.561.334-.374.799-.561 1.392-.561.574 0 1.03.191 1.367.572.339.382.509.899.509 1.55zm-3.126 0c0 .524.105.923.315 1.198.209.275.517.412.924.412.407 0 .715-.136.925-.408.212-.275.318-.675.318-1.202 0-.521-.106-.917-.318-1.186-.21-.272-.521-.408-.932-.408-.407 0-.714.133-.921.4-.207.267-.311.665-.311 1.194zm6.09-2.122c.183 0 .346.015.491.045l-.086.576a2.152 2.152 0 00-.45-.056c-.331 0-.616.135-.853.404-.235.27-.352.605-.352 1.007v2.201h-.621v-4.102h.513l.071.76h.03a1.8 1.8 0 01.55-.618c.215-.145.45-.217.707-.217zm2.991 4.252c-.606 0-1.085-.185-1.437-.554-.35-.369-.524-.882-.524-1.538 0-.662.162-1.187.486-1.576.327-.39.765-.584 1.314-.584.514 0 .921.169 1.221.509.299.337.449.782.449 1.336v.393h-2.826c.012.482.133.847.363 1.097.232.25.557.374.977.374.441 0 .878-.092 1.31-.277v.554a3.18 3.18 0 01-.625.202 3.342 3.342 0 01-.708.064zm-.168-3.732c-.33 0-.593.107-.79.322-.195.215-.31.512-.344.891h2.144c0-.392-.087-.691-.262-.898-.174-.21-.424-.315-.748-.315zm7.969 3.657v-2.669c0-.327-.07-.571-.21-.733-.139-.165-.356-.247-.651-.247-.387 0-.672.111-.857.333-.185.222-.277.564-.277 1.025v2.291h-.621v-2.669c0-.327-.07-.571-.21-.733-.14-.165-.358-.247-.655-.247-.389 0-.675.117-.857.351-.18.233-.27.614-.27 1.146v2.152h-.621v-4.102h.505l.101.561h.03c.117-.2.282-.355.494-.468a1.53 1.53 0 01.719-.168c.641 0 1.06.232 1.258.696h.03c.122-.215.299-.384.531-.509a1.65 1.65 0 01.794-.187c.464 0 .811.12 1.04.359.232.237.348.618.348 1.142v2.676h-.621zm4.518 0h-.621v-4.102h.621v4.102zm-.674-5.214c0-.142.035-.246.105-.31a.363.363 0 01.262-.102c.1 0 .186.034.258.101.073.068.109.171.109.31 0 .14-.036.245-.109.315a.364.364 0 01-.258.101.362.362 0 01-.262-.1c-.07-.07-.105-.175-.105-.315zm3.901 5.289c-.267 0-.512-.049-.734-.146-.22-.1-.404-.252-.554-.457h-.045c.03.24.045.467.045.682v1.688h-.621v-5.944h.505l.086.561h.03c.16-.224.346-.387.558-.486.212-.1.455-.15.73-.15.544 0 .963.186 1.257.558.297.371.446.893.446 1.564 0 .674-.151 1.198-.453 1.572-.3.372-.716.558-1.25.558zm-.09-3.724c-.419 0-.723.116-.91.348-.187.232-.283.601-.288 1.108v.138c0 .577.096.99.288 1.239.192.247.501.371.925.371a.958.958 0 00.831-.431c.202-.287.303-.682.303-1.186 0-.512-.101-.904-.303-1.176-.2-.274-.482-.411-.846-.411zm5.529 2.53c0 .382-.143.676-.427.883-.285.207-.684.311-1.198.311-.544 0-.968-.086-1.273-.258v-.577c.197.1.408.179.633.236.227.058.445.086.655.086.324 0 .574-.051.749-.153a.52.52 0 00.262-.476.509.509 0 00-.21-.408c-.137-.114-.407-.249-.809-.404-.381-.142-.653-.266-.816-.37a1.17 1.17 0 01-.359-.364.953.953 0 01-.116-.482c0-.335.136-.598.408-.79.272-.195.645-.292 1.119-.292.442 0 .874.09 1.295.269l-.22.506c-.412-.17-.785-.255-1.12-.255-.294 0-.516.046-.666.139a.426.426 0 00-.224.381c0 .11.027.204.082.281a.853.853 0 00.273.221c.125.07.364.171.719.303.486.177.815.356.984.535.172.18.259.406.259.678zm1.598-2.983v2.661c0 .334.076.584.228.749.152.164.391.247.715.247.429 0 .743-.118.94-.352.199-.235.299-.618.299-1.149v-2.156h.622v4.102h-.513l-.09-.55h-.034a1.232 1.232 0 01-.531.464 1.775 1.775 0 01-.771.161c-.5 0-.874-.118-1.123-.356-.247-.237-.371-.616-.371-1.137v-2.684h.629zm9.354 4.102v-2.669c0-.327-.07-.571-.209-.733-.14-.165-.357-.247-.652-.247-.387 0-.672.111-.857.333-.185.222-.277.564-.277 1.025v2.291h-.621v-2.669c0-.327-.07-.571-.21-.733-.14-.165-.358-.247-.655-.247-.389 0-.675.117-.857.351-.18.233-.27.614-.27 1.146v2.152h-.621v-4.102h.505l.101.561h.03c.118-.2.282-.355.494-.468.215-.112.455-.168.719-.168.641 0 1.061.232 1.258.696h.03c.122-.215.299-.384.531-.509a1.65 1.65 0 01.794-.187c.464 0 .811.12 1.04.359.232.237.349.618.349 1.142v2.676h-.622zm6.689-.55h-.033c-.287.417-.717.625-1.288.625-.537 0-.955-.183-1.254-.55-.297-.367-.446-.889-.446-1.565 0-.676.15-1.201.45-1.576.299-.374.716-.561 1.25-.561.556 0 .983.202 1.28.606h.049l-.026-.296-.015-.288v-1.67h.621v5.825h-.505l-.083-.55zm-1.242.105c.424 0 .731-.115.92-.345.192-.232.289-.605.289-1.119v-.131c0-.581-.098-.996-.292-1.243-.193-.249-.501-.374-.925-.374-.364 0-.644.142-.838.427-.193.282-.289.681-.289 1.198 0 .524.096.919.289 1.186.192.267.474.401.846.401zm6.692-1.61c0 .669-.168 1.192-.505 1.569-.337.374-.802.561-1.396.561a1.85 1.85 0 01-.977-.258 1.702 1.702 0 01-.659-.741c-.155-.322-.232-.699-.232-1.131 0-.669.167-1.189.502-1.561.334-.374.798-.561 1.392-.561.574 0 1.029.191 1.366.572.34.382.509.899.509 1.55zm-3.125 0c0 .524.105.923.314 1.198.21.275.518.412.925.412.407 0 .715-.136.924-.408.212-.275.319-.675.319-1.202 0-.521-.107-.917-.319-1.186-.209-.272-.52-.408-.932-.408-.406 0-.713.133-.921.4-.207.267-.31.665-.31 1.194zm4.84 2.055h-.622v-5.824h.622v5.824zm4.858-2.055c0 .669-.168 1.192-.505 1.569-.337.374-.802.561-1.396.561a1.85 1.85 0 01-.977-.258 1.702 1.702 0 01-.659-.741c-.155-.322-.232-.699-.232-1.131 0-.669.167-1.189.502-1.561.334-.374.798-.561 1.392-.561.574 0 1.029.191 1.366.572.34.382.509.899.509 1.55zm-3.125 0c0 .524.105.923.314 1.198.21.275.518.412.925.412.407 0 .715-.136.924-.408.213-.275.319-.675.319-1.202 0-.521-.106-.917-.319-1.186-.209-.272-.52-.408-.932-.408-.406 0-.713.133-.92.4-.208.267-.311.665-.311 1.194zm6.09-2.122c.182 0 .346.015.49.045l-.086.576a2.135 2.135 0 00-.449-.056c-.332 0-.616.135-.853.404-.235.27-.352.605-.352 1.007v2.201h-.622v-4.102h.513l.071.76h.03c.153-.267.336-.473.551-.618.214-.145.45-.217.707-.217zm5.896 3.058c0 .382-.143.676-.427.883-.285.207-.684.311-1.198.311-.544 0-.968-.086-1.273-.258v-.577c.197.1.408.179.633.236.227.058.445.086.655.086.324 0 .574-.051.749-.153a.52.52 0 00.262-.476.509.509 0 00-.21-.408c-.137-.114-.407-.249-.809-.404-.381-.142-.653-.266-.816-.37a1.17 1.17 0 01-.359-.364.953.953 0 01-.116-.482c0-.335.136-.598.408-.79.272-.195.645-.292 1.119-.292.442 0 .874.09 1.295.269l-.22.506c-.412-.17-.785-.255-1.12-.255-.294 0-.516.046-.666.139a.427.427 0 00-.225.381c0 .11.028.204.083.281a.853.853 0 00.273.221c.125.07.364.171.719.303.486.177.815.356.984.535.172.18.259.406.259.678zm1.635 1.119h-.621v-4.102h.621v4.102zm-.673-5.214c0-.142.034-.246.104-.31a.364.364 0 01.262-.102c.1 0 .186.034.259.101.072.068.108.171.108.31 0 .14-.036.245-.108.315a.369.369 0 01-.259.101.364.364 0 01-.262-.1c-.07-.07-.104-.175-.104-.315zm3.316 4.776c.11 0 .216-.007.318-.022.102-.018.184-.035.243-.053v.476a1.117 1.117 0 01-.299.078c-.13.023-.247.034-.352.034-.793 0-1.19-.418-1.19-1.254v-2.44h-.588v-.3l.588-.258.262-.876h.359v.951h1.191v.483h-1.191v2.414c0 .247.059.437.176.569a.612.612 0 00.483.198zm5.899.438l-.123-.584h-.03c-.205.257-.409.432-.614.524-.202.09-.455.135-.76.135-.407 0-.726-.105-.958-.314-.23-.21-.345-.508-.345-.895 0-.828.663-1.263 1.988-1.303l.696-.022v-.255c0-.322-.07-.559-.209-.711-.138-.155-.358-.232-.663-.232-.342 0-.729.105-1.16.315l-.191-.476c.202-.11.423-.196.662-.258a2.9 2.9 0 01.727-.094c.489 0 .851.109 1.085.326.237.217.356.565.356 1.044v2.8h-.461zm-1.403-.438c.386 0 .69-.106.909-.318.222-.212.333-.509.333-.891v-.37l-.621.026c-.494.017-.851.095-1.071.232-.217.135-.325.346-.325.632 0 .225.067.396.202.513.137.118.328.176.573.176zm8.377.438v-2.669c0-.327-.07-.571-.21-.733-.139-.165-.357-.247-.651-.247-.387 0-.673.111-.857.333-.185.222-.277.564-.277 1.025v2.291h-.622v-2.669c0-.327-.069-.571-.209-.733-.14-.165-.358-.247-.655-.247-.39 0-.675.117-.857.351-.18.233-.27.614-.27 1.146v2.152h-.621v-4.102h.505l.101.561h.03c.117-.2.282-.355.494-.468a1.53 1.53 0 01.719-.168c.641 0 1.06.232 1.257.696h.03c.123-.215.3-.384.532-.509a1.65 1.65 0 01.794-.187c.464 0 .811.12 1.04.359.232.237.348.618.348 1.142v2.676h-.621zm3.638.075c-.606 0-1.085-.185-1.437-.554-.35-.369-.524-.882-.524-1.538 0-.662.162-1.187.486-1.576.327-.39.765-.584 1.314-.584.514 0 .921.169 1.221.509.299.337.449.782.449 1.336v.393h-2.826c.012.482.133.847.363 1.097.232.25.557.374.977.374.441 0 .878-.092 1.31-.277v.554a3.18 3.18 0 01-.625.202 3.342 3.342 0 01-.708.064zm-.168-3.732c-.33 0-.593.107-.79.322-.195.215-.309.512-.344.891h2.144c0-.392-.087-.691-.262-.898-.174-.21-.424-.315-.748-.315zm4.065 3.219c.11 0 .216-.007.318-.022.102-.018.184-.035.243-.053v.476a1.117 1.117 0 01-.299.078c-.13.023-.247.034-.352.034-.793 0-1.19-.418-1.19-1.254v-2.44h-.588v-.3l.588-.258.262-.876h.359v.951h1.19v.483h-1.19v2.414c0 .247.059.437.176.569a.612.612 0 00.483.198zm2.036-.453l.056.086a9.3 9.3 0 01-.28.869c-.123.332-.25.64-.382.924h-.468c.067-.259.141-.58.221-.962.082-.381.14-.687.172-.917h.681zm4.859.966c-.594 0-1.054-.182-1.381-.546-.325-.367-.487-.885-.487-1.554 0-.686.165-1.216.494-1.591.332-.374.804-.561 1.415-.561.197 0 .394.021.591.063.198.043.352.093.465.15l-.191.528a2.814 2.814 0 00-.449-.135 1.976 1.976 0 00-.431-.056c-.833 0-1.25.532-1.25 1.595 0 .504.101.891.303 1.16.205.27.507.404.906.404.342 0 .692-.073 1.052-.221v.551c-.275.142-.62.213-1.037.213zm5.555-2.13c0 .669-.169 1.192-.506 1.569-.336.374-.802.561-1.396.561-.367 0-.692-.086-.977-.258a1.708 1.708 0 01-.659-.741 2.595 2.595 0 01-.232-1.131c0-.669.168-1.189.502-1.561.334-.374.799-.561 1.392-.561.574 0 1.03.191 1.367.572.339.382.509.899.509 1.55zm-3.126 0c0 .524.105.923.315 1.198.209.275.517.412.924.412.407 0 .715-.136.925-.408.212-.275.318-.675.318-1.202 0-.521-.106-.917-.318-1.186-.21-.272-.521-.408-.932-.408-.407 0-.714.133-.921.4-.207.267-.311.665-.311 1.194zm7.026 2.055v-2.654c0-.334-.076-.584-.228-.748-.152-.165-.391-.247-.715-.247-.429 0-.744.116-.943.348-.2.232-.3.615-.3 1.149v2.152h-.621v-4.102h.505l.101.561h.03a1.26 1.26 0 01.535-.468 1.73 1.73 0 01.768-.168c.494 0 .866.12 1.115.359.25.237.375.618.375 1.142v2.676h-.622zm4.548-1.119c0 .382-.142.676-.427.883-.284.207-.683.311-1.197.311-.544 0-.969-.086-1.273-.258v-.577c.197.1.408.179.633.236.227.058.445.086.655.086.324 0 .574-.051.748-.153a.519.519 0 00.262-.476.51.51 0 00-.209-.408c-.138-.114-.407-.249-.809-.404-.382-.142-.654-.266-.816-.37a1.159 1.159 0 01-.359-.364.943.943 0 01-.116-.482c0-.335.136-.598.408-.79.272-.195.645-.292 1.119-.292.442 0 .873.09 1.295.269l-.221.506c-.412-.17-.785-.255-1.119-.255-.294 0-.517.046-.666.139a.427.427 0 00-.225.381c0 .11.028.204.083.281a.853.853 0 00.273.221c.125.07.364.171.718.303.487.177.815.356.985.535.172.18.258.406.258.678zm2.748 1.194c-.607 0-1.086-.185-1.438-.554-.349-.369-.524-.882-.524-1.538 0-.662.162-1.187.487-1.576.327-.39.765-.584 1.314-.584.514 0 .921.169 1.22.509.299.337.449.782.449 1.336v.393h-2.826c.013.482.134.847.363 1.097.232.25.558.374.977.374.442 0 .879-.092 1.31-.277v.554a3.159 3.159 0 01-.625.202c-.194.043-.43.064-.707.064zm-.169-3.732c-.329 0-.592.107-.79.322-.194.215-.309.512-.344.891h2.145c0-.392-.087-.691-.262-.898-.175-.21-.424-.315-.749-.315zm4.38 3.732c-.594 0-1.055-.182-1.381-.546-.325-.367-.487-.885-.487-1.554 0-.686.165-1.216.494-1.591.332-.374.804-.561 1.415-.561.197 0 .394.021.591.063.198.043.352.093.465.15l-.191.528a2.796 2.796 0 00-.45-.135 1.96 1.96 0 00-.43-.056c-.833 0-1.25.532-1.25 1.595 0 .504.101.891.303 1.16.205.27.507.404.906.404.342 0 .692-.073 1.052-.221v.551c-.275.142-.62.213-1.037.213zm3.339-.513c.11 0 .216-.007.318-.022a2.27 2.27 0 00.243-.053v.476a1.117 1.117 0 01-.299.078c-.13.023-.247.034-.352.034-.794 0-1.19-.418-1.19-1.254v-2.44h-.588v-.3l.588-.258.262-.876h.359v.951h1.19v.483h-1.19v2.414c0 .247.059.437.176.569a.612.612 0 00.483.198zm3.118.513c-.607 0-1.086-.185-1.438-.554-.349-.369-.524-.882-.524-1.538 0-.662.163-1.187.487-1.576.327-.39.765-.584 1.314-.584.514 0 .921.169 1.22.509.3.337.449.782.449 1.336v.393h-2.826c.013.482.134.847.363 1.097.232.25.558.374.977.374.442 0 .879-.092 1.31-.277v.554a3.159 3.159 0 01-.625.202c-.194.043-.43.064-.707.064zm-.169-3.732c-.329 0-.592.107-.789.322-.195.215-.31.512-.345.891h2.145c0-.392-.087-.691-.262-.898-.175-.21-.424-.315-.749-.315zm4.065 3.219c.11 0 .216-.007.319-.022a2.27 2.27 0 00.243-.053v.476a1.116 1.116 0 01-.3.078 2.02 2.02 0 01-.351.034c-.794 0-1.191-.418-1.191-1.254v-2.44h-.587v-.3l.587-.258.262-.876h.36v.951h1.19v.483h-1.19v2.414c0 .247.058.437.176.569a.611.611 0 00.482.198zm1.969-3.664v2.661c0 .334.077.584.229.749.152.164.39.247.715.247.429 0 .742-.118.939-.352.2-.235.3-.618.3-1.149v-2.156h.621v4.102h-.513l-.09-.55h-.033a1.24 1.24 0 01-.532.464 1.768 1.768 0 01-.771.161c-.499 0-.873-.118-1.123-.356-.247-.237-.37-.616-.37-1.137v-2.684h.628zm5.997-.075c.182 0 .346.015.49.045l-.086.576a2.135 2.135 0 00-.449-.056c-.332 0-.616.135-.853.404-.235.27-.352.605-.352 1.007v2.201h-.622v-4.102h.513l.071.76h.03c.153-.267.336-.473.551-.618.214-.145.45-.217.707-.217zm5.772 4.177l-.124-.584h-.029c-.205.257-.41.432-.614.524-.202.09-.456.135-.76.135-.407 0-.726-.105-.958-.314-.23-.21-.345-.508-.345-.895 0-.828.663-1.263 1.988-1.303l.696-.022v-.255c0-.322-.07-.559-.21-.711-.137-.155-.358-.232-.662-.232-.342 0-.729.105-1.161.315l-.19-.476c.202-.11.423-.196.662-.258.242-.063.484-.094.726-.094.489 0 .851.109 1.086.326.237.217.355.565.355 1.044v2.8h-.46zm-1.404-.438c.387 0 .69-.106.91-.318.222-.212.333-.509.333-.891v-.37l-.621.026c-.494.017-.851.095-1.071.232-.217.135-.326.346-.326.632 0 .225.068.396.203.513.137.118.328.176.572.176zm5.941-.112h-.034c-.287.417-.716.625-1.288.625-.536 0-.954-.183-1.254-.55-.297-.367-.445-.889-.445-1.565 0-.676.15-1.201.449-1.576.3-.374.716-.561 1.25-.561.557 0 .984.202 1.281.606h.048l-.026-.296-.015-.288v-1.67h.621v5.825h-.505l-.082-.55zm-1.243.105c.424 0 .731-.115.921-.345.192-.232.288-.605.288-1.119v-.131c0-.581-.097-.996-.292-1.243-.192-.249-.5-.374-.924-.374-.365 0-.644.142-.839.427-.192.282-.288.681-.288 1.198 0 .524.096.919.288 1.186.192.267.474.401.846.401zm3.773.445h-.621v-4.102h.621v4.102zm-.674-5.214c0-.142.035-.246.105-.31a.363.363 0 01.262-.102c.1 0 .186.034.259.101.072.068.108.171.108.31 0 .14-.036.245-.108.315a.369.369 0 01-.259.101.362.362 0 01-.262-.1c-.07-.07-.105-.175-.105-.315zm3.901 5.289c-.267 0-.512-.049-.734-.146a1.4 1.4 0 01-.554-.457h-.045c.03.24.045.467.045.682v1.688h-.621v-5.944h.505l.086.561h.03c.16-.224.346-.387.558-.486.212-.1.455-.15.73-.15.544 0 .963.186 1.258.558.296.371.445.893.445 1.564 0 .674-.151 1.198-.453 1.572-.299.372-.716.558-1.25.558zm-.09-3.724c-.419 0-.722.116-.91.348-.187.232-.283.601-.288 1.108v.138c0 .577.096.99.288 1.239.193.247.501.371.925.371a.958.958 0 00.831-.431c.202-.287.303-.682.303-1.186 0-.512-.101-.904-.303-1.176-.2-.274-.482-.411-.846-.411zm3.504 3.649h-.622v-4.102h.622v4.102zm-.674-5.214c0-.142.035-.246.105-.31a.363.363 0 01.262-.102c.099 0 .186.034.258.101.072.068.108.171.108.31 0 .14-.036.245-.108.315a.366.366 0 01-.258.101.362.362 0 01-.262-.1c-.07-.07-.105-.175-.105-.315zm4.638 4.095c0 .382-.143.676-.427.883-.285.207-.684.311-1.198.311-.544 0-.968-.086-1.273-.258v-.577c.198.1.408.179.633.236.227.058.445.086.655.086.324 0 .574-.051.749-.153a.52.52 0 00.262-.476.509.509 0 00-.21-.408c-.137-.114-.407-.249-.808-.404-.382-.142-.654-.266-.816-.37a1.162 1.162 0 01-.36-.364.953.953 0 01-.116-.482c0-.335.136-.598.408-.79.272-.195.645-.292 1.119-.292.442 0 .874.09 1.296.269l-.221.506c-.412-.17-.785-.255-1.12-.255-.294 0-.516.046-.666.139a.426.426 0 00-.224.381c0 .11.027.204.082.281a.853.853 0 00.273.221c.125.07.365.171.719.303.487.177.815.356.984.535.173.18.259.406.259.678zm2.654 1.194c-.594 0-1.055-.182-1.382-.546-.324-.367-.486-.885-.486-1.554 0-.686.164-1.216.494-1.591.332-.374.803-.561 1.415-.561.197 0 .394.021.591.063.197.043.352.093.464.15l-.191.528a2.783 2.783 0 00-.449-.135 1.96 1.96 0 00-.43-.056c-.834 0-1.25.532-1.25 1.595 0 .504.101.891.303 1.16.204.27.506.404.906.404.341 0 .692-.073 1.051-.221v.551c-.274.142-.62.213-1.036.213zm2.635-.075h-.622v-4.102h.622v4.102zm-.674-5.214c0-.142.035-.246.105-.31a.363.363 0 01.262-.102c.1 0 .186.034.258.101.072.068.109.171.109.31 0 .14-.037.245-.109.315a.364.364 0 01-.258.101.362.362 0 01-.262-.1c-.07-.07-.105-.175-.105-.315zm4.799 5.214v-2.654c0-.334-.076-.584-.229-.748-.152-.165-.39-.247-.715-.247-.429 0-.743.116-.943.348-.199.232-.299.615-.299 1.149v2.152h-.622v-4.102h.506l.101.561h.03c.127-.202.305-.358.535-.468.23-.112.485-.168.767-.168.494 0 .866.12 1.116.359.249.237.374.618.374 1.142v2.676h-.621zm5.259-4.102v.393l-.76.09c.07.087.132.202.187.344.055.14.083.298.083.475 0 .402-.138.723-.412.962-.275.24-.651.36-1.131.36-.122 0-.237-.01-.344-.03-.264.139-.397.315-.397.527 0 .113.046.196.139.251.092.053.251.079.475.079h.726c.445 0 .785.093 1.022.281.24.187.36.459.36.816 0 .454-.183.799-.547 1.036-.364.24-.896.36-1.595.36-.536 0-.95-.1-1.242-.3-.29-.199-.434-.481-.434-.846 0-.249.079-.465.239-.647.16-.182.384-.306.674-.371a.656.656 0 01-.266-.221.587.587 0 01-.105-.348c0-.149.04-.28.12-.393.08-.112.206-.221.378-.325a1.122 1.122 0 01-.52-.446 1.32 1.32 0 01-.199-.719c0-.449.135-.794.405-1.036.269-.245.651-.367 1.145-.367.215 0 .408.025.58.075h1.419zm-3.272 4.791c0 .222.094.39.281.505.187.115.456.172.805.172.522 0 .907-.078 1.157-.235.252-.155.378-.366.378-.633 0-.222-.069-.377-.206-.464-.137-.085-.396-.127-.775-.127h-.745c-.282 0-.502.067-.659.202-.157.134-.236.328-.236.58zm.337-3.477c0 .286.081.504.244.651.162.147.388.221.677.221.607 0 .91-.295.91-.884 0-.616-.307-.924-.921-.924-.292 0-.517.078-.674.236-.157.157-.236.39-.236.7zm7.502 2.863c-.607 0-1.086-.185-1.438-.554-.349-.369-.524-.882-.524-1.538 0-.662.162-1.187.487-1.576.327-.39.765-.584 1.314-.584.514 0 .921.169 1.22.509.299.337.449.782.449 1.336v.393h-2.826c.013.482.134.847.363 1.097.232.25.558.374.977.374.442 0 .879-.092 1.31-.277v.554a3.159 3.159 0 01-.625.202c-.195.043-.43.064-.707.064zm-.169-3.732c-.329 0-.592.107-.79.322-.194.215-.309.512-.344.891h2.145c0-.392-.087-.691-.262-.898-.175-.21-.424-.315-.749-.315zm3.362 3.657h-.622v-5.824h.622v5.824zm1.939 0h-.622v-4.102h.622v4.102zm-.674-5.214c0-.142.035-.246.105-.31a.363.363 0 01.262-.102c.099 0 .186.034.258.101.072.068.108.171.108.31 0 .14-.036.245-.108.315a.366.366 0 01-.258.101.362.362 0 01-.262-.1c-.07-.07-.105-.175-.105-.315zm3.316 4.776c.11 0 .216-.007.318-.022.103-.018.184-.035.244-.053v.476a1.127 1.127 0 01-.3.078 2.023 2.023 0 01-.352.034c-.793 0-1.19-.418-1.19-1.254v-2.44h-.588v-.3l.588-.258.262-.876h.359v.951h1.191v.483h-1.191v2.414c0 .247.059.437.176.569a.615.615 0 00.483.198zm1.295.041c0-.167.038-.293.113-.378a.417.417 0 01.329-.131c.145 0 .257.044.337.131.082.085.124.211.124.378 0 .163-.042.287-.124.375a.442.442 0 01-.337.131.456.456 0 01-.318-.116c-.082-.08-.124-.21-.124-.39zm7.659.397l-.681-1.74h-2.194l-.674 1.74h-.643l2.163-5.495h.535l2.153 5.495h-.659zm-.88-2.313l-.636-1.696a9.398 9.398 0 01-.255-.79c-.054.24-.133.503-.235.79l-.644 1.696h1.77zm3.931 2.388c-.607 0-1.086-.185-1.438-.554-.349-.369-.524-.882-.524-1.538 0-.662.162-1.187.487-1.576.327-.39.765-.584 1.314-.584.514 0 .921.169 1.22.509.3.337.449.782.449 1.336v.393h-2.826c.013.482.134.847.363 1.097.232.25.558.374.977.374.442 0 .879-.092 1.31-.277v.554a3.159 3.159 0 01-.625.202c-.194.043-.43.064-.707.064zm-.169-3.732c-.329 0-.592.107-.79.322-.194.215-.309.512-.344.891h2.145c0-.392-.087-.691-.262-.898-.175-.21-.424-.315-.749-.315zm5.548 3.657v-2.654c0-.334-.076-.584-.229-.748-.152-.165-.39-.247-.715-.247-.429 0-.743.116-.943.348-.199.232-.299.615-.299 1.149v2.152h-.622v-4.102h.506l.101.561h.03c.127-.202.305-.358.535-.468.23-.112.485-.168.767-.168.494 0 .866.12 1.116.359.249.237.374.618.374 1.142v2.676h-.621zm3.634.075c-.606 0-1.085-.185-1.437-.554-.349-.369-.524-.882-.524-1.538 0-.662.162-1.187.487-1.576.326-.39.764-.584 1.313-.584.514 0 .921.169 1.221.509.299.337.449.782.449 1.336v.393h-2.826c.012.482.133.847.363 1.097.232.25.558.374.977.374.442 0 .878-.092 1.31-.277v.554a3.18 3.18 0 01-.625.202 3.342 3.342 0 01-.708.064zm-.168-3.732c-.329 0-.593.107-.79.322-.195.215-.309.512-.344.891h2.145c0-.392-.088-.691-.262-.898-.175-.21-.425-.315-.749-.315zm5.263 3.657l-.124-.584h-.03c-.204.257-.409.432-.614.524-.202.09-.455.135-.759.135-.407 0-.727-.105-.959-.314-.229-.21-.344-.508-.344-.895 0-.828.663-1.263 1.988-1.303l.696-.022v-.255c0-.322-.07-.559-.21-.711-.137-.155-.358-.232-.662-.232-.342 0-.729.105-1.161.315l-.191-.476c.203-.11.423-.196.663-.258.242-.063.484-.094.726-.094.489 0 .851.109 1.086.326.237.217.355.565.355 1.044v2.8h-.46zm-1.404-.438c.387 0 .69-.106.91-.318.222-.212.333-.509.333-.891v-.37l-.621.026c-.495.017-.851.095-1.071.232-.217.135-.326.346-.326.632 0 .225.068.396.202.513.138.118.329.176.573.176zm5.956.438v-2.654c0-.334-.077-.584-.229-.748-.152-.165-.39-.247-.715-.247-.429 0-.743.116-.943.348-.2.232-.299.615-.299 1.149v2.152h-.622v-4.102h.506l.101.561h.03c.127-.202.305-.358.535-.468.229-.112.485-.168.767-.168.494 0 .866.12 1.116.359.249.237.374.618.374 1.142v2.676h-.621zm4.514 0h-.621v-5.824h.621v5.824zm1.901-4.102v2.661c0 .334.077.584.229.749.152.164.39.247.715.247.429 0 .742-.118.939-.352.2-.235.3-.618.3-1.149v-2.156h.621v4.102h-.513l-.09-.55h-.033a1.24 1.24 0 01-.532.464 1.768 1.768 0 01-.771.161c-.499 0-.873-.118-1.123-.356-.247-.237-.37-.616-.37-1.137v-2.684h.628zm5.765 4.177c-.594 0-1.054-.182-1.381-.546-.325-.367-.487-.885-.487-1.554 0-.686.165-1.216.494-1.591.332-.374.804-.561 1.415-.561.197 0 .394.021.592.063.197.043.351.093.464.15l-.191.528a2.783 2.783 0 00-.449-.135 1.976 1.976 0 00-.431-.056c-.833 0-1.25.532-1.25 1.595 0 .504.101.891.303 1.16.205.27.507.404.906.404.342 0 .692-.073 1.052-.221v.551c-.275.142-.62.213-1.037.213zm3.339-.513c.11 0 .216-.007.318-.022a2.27 2.27 0 00.243-.053v.476a1.117 1.117 0 01-.299.078c-.13.023-.247.034-.352.034-.794 0-1.19-.418-1.19-1.254v-2.44h-.588v-.3l.588-.258.262-.876h.359v.951h1.19v.483h-1.19v2.414c0 .247.059.437.176.569a.612.612 0 00.483.198zm1.969-3.664v2.661c0 .334.076.584.228.749.152.164.391.247.715.247.429 0 .742-.118.94-.352.199-.235.299-.618.299-1.149v-2.156h.621v4.102h-.512l-.09-.55h-.034a1.232 1.232 0 01-.531.464 1.776 1.776 0 01-.772.161c-.499 0-.873-.118-1.122-.356-.248-.237-.371-.616-.371-1.137v-2.684h.629zm6.771 2.983c0 .382-.142.676-.426.883-.285.207-.684.311-1.198.311-.544 0-.969-.086-1.273-.258v-.577c.197.1.408.179.633.236.227.058.445.086.655.086.324 0 .574-.051.748-.153a.519.519 0 00.262-.476.51.51 0 00-.209-.408c-.138-.114-.407-.249-.809-.404-.382-.142-.654-.266-.816-.37a1.159 1.159 0 01-.359-.364.943.943 0 01-.116-.482c0-.335.136-.598.408-.79.272-.195.645-.292 1.119-.292.442 0 .873.09 1.295.269l-.221.506c-.411-.17-.785-.255-1.119-.255-.294 0-.516.046-.666.139a.427.427 0 00-.225.381c0 .11.028.204.083.281a.853.853 0 00.273.221c.125.07.364.171.718.303.487.177.815.356.985.535.172.18.258.406.258.678zm5.529 1.119l-.124-.584h-.03c-.204.257-.409.432-.613.524-.203.09-.456.135-.76.135-.407 0-.726-.105-.959-.314-.229-.21-.344-.508-.344-.895 0-.828.663-1.263 1.988-1.303l.696-.022v-.255c0-.322-.07-.559-.21-.711-.137-.155-.358-.232-.662-.232-.342 0-.729.105-1.161.315l-.191-.476c.203-.11.423-.196.663-.258.242-.063.484-.094.726-.094.489 0 .851.109 1.086.326.237.217.355.565.355 1.044v2.8h-.46zm-1.404-.438c.387 0 .69-.106.91-.318.222-.212.333-.509.333-.891v-.37l-.621.026c-.495.017-.851.095-1.071.232-.217.135-.326.346-.326.632 0 .225.068.396.203.513.137.118.328.176.572.176zm5.02-3.74c.182 0 .345.016.49.046l-.086.576a2.143 2.143 0 00-.449-.056c-.332 0-.616.135-.854.404-.234.27-.351.605-.351 1.007v2.201h-.622v-4.102h.513l.071.76h.03a1.81 1.81 0 01.55-.618 1.24 1.24 0 01.708-.217zm2.897 4.253c-.594 0-1.054-.182-1.381-.546-.325-.367-.487-.885-.487-1.554 0-.686.165-1.216.494-1.591.332-.374.804-.561 1.415-.561.197 0 .395.021.592.063.197.043.352.093.464.15l-.191.528a2.783 2.783 0 00-.449-.135 1.968 1.968 0 00-.431-.056c-.833 0-1.25.532-1.25 1.595 0 .504.101.891.303 1.16.205.27.507.404.906.404.342 0 .693-.073 1.052-.221v.551c-.275.142-.62.213-1.037.213zm2.598-4.177v2.661c0 .334.076.584.228.749.152.164.391.247.715.247.429 0 .743-.118.94-.352.199-.235.299-.618.299-1.149v-2.156h.622v4.102h-.513l-.09-.55h-.034a1.232 1.232 0 01-.531.464 1.775 1.775 0 01-.771.161c-.5 0-.874-.118-1.123-.356-.247-.237-.371-.616-.371-1.137v-2.684h.629zm8.763 2.983c0 .382-.143.676-.427.883-.285.207-.684.311-1.198.311-.544 0-.968-.086-1.273-.258v-.577c.198.1.408.179.633.236.227.058.446.086.655.086.325 0 .574-.051.749-.153a.52.52 0 00.262-.476.509.509 0 00-.21-.408c-.137-.114-.407-.249-.808-.404-.382-.142-.654-.266-.816-.37a1.162 1.162 0 01-.36-.364.953.953 0 01-.116-.482c0-.335.136-.598.408-.79.272-.195.645-.292 1.119-.292.442 0 .874.09 1.296.269l-.221.506c-.412-.17-.785-.255-1.119-.255-.295 0-.517.046-.667.139a.428.428 0 00-.224.381c0 .11.027.204.082.281a.853.853 0 00.273.221c.125.07.365.171.719.303.487.177.815.356.984.535.173.18.259.406.259.678zm3.537 1.119l-.123-.584h-.03c-.205.257-.41.432-.614.524-.202.09-.456.135-.76.135-.407 0-.726-.105-.958-.314-.23-.21-.345-.508-.345-.895 0-.828.663-1.263 1.988-1.303l.696-.022v-.255c0-.322-.07-.559-.21-.711-.137-.155-.358-.232-.662-.232-.342 0-.729.105-1.161.315l-.19-.476c.202-.11.423-.196.662-.258.242-.063.484-.094.726-.094.489 0 .851.109 1.086.326.237.217.355.565.355 1.044v2.8h-.46zm-1.404-.438c.387 0 .69-.106.91-.318.222-.212.333-.509.333-.891v-.37l-.621.026c-.494.017-.851.095-1.071.232-.217.135-.326.346-.326.632 0 .225.068.396.203.513.137.118.328.176.572.176zm5.057.513a1.81 1.81 0 01-.733-.146c-.22-.1-.405-.252-.554-.457h-.045c.03.24.045.467.045.682v1.688h-.622v-5.944h.506l.086.561h.03c.159-.224.345-.387.557-.486.213-.1.456-.15.73-.15.544 0 .964.186 1.258.558.297.371.446.893.446 1.564 0 .674-.151 1.198-.453 1.572-.3.372-.717.558-1.251.558zm-.089-3.724c-.42 0-.723.116-.91.348-.187.232-.283.601-.288 1.108v.138c0 .577.096.99.288 1.239.192.247.5.371.925.371a.958.958 0 00.831-.431c.202-.287.303-.682.303-1.186 0-.512-.101-.904-.303-1.176-.2-.274-.482-.411-.846-.411zm3.503 3.649h-.621v-4.102h.621v4.102zm-.674-5.214c0-.142.035-.246.105-.31a.363.363 0 01.262-.102c.1 0 .186.034.259.101.072.068.108.171.108.31 0 .14-.036.245-.108.315a.369.369 0 01-.259.101.362.362 0 01-.262-.1c-.07-.07-.105-.175-.105-.315zm3.725 5.289c-.607 0-1.086-.185-1.438-.554-.349-.369-.524-.882-.524-1.538 0-.662.163-1.187.487-1.576.327-.39.765-.584 1.314-.584.514 0 .921.169 1.22.509.3.337.449.782.449 1.336v.393h-2.826c.013.482.134.847.363 1.097.232.25.558.374.977.374.442 0 .879-.092 1.31-.277v.554a3.159 3.159 0 01-.625.202c-.194.043-.43.064-.707.064zm-.169-3.732c-.329 0-.592.107-.789.322-.195.215-.31.512-.345.891h2.145c0-.392-.087-.691-.262-.898-.175-.21-.424-.315-.749-.315zm5.548 3.657v-2.654c0-.334-.076-.584-.228-.748-.153-.165-.391-.247-.715-.247-.43 0-.744.116-.944.348-.199.232-.299.615-.299 1.149v2.152h-.622v-4.102h.506l.101.561h.03c.127-.202.305-.358.535-.468.23-.112.485-.168.767-.168.495 0 .866.12 1.116.359.249.237.374.618.374 1.142v2.676h-.621zm2.553-.891l.056.086c-.065.25-.159.539-.281.869-.122.332-.249.64-.382.924h-.468c.068-.259.141-.58.221-.962.083-.381.14-.687.172-.917h.682zm5.865-.228c0 .382-.142.676-.426.883-.285.207-.684.311-1.198.311-.544 0-.968-.086-1.273-.258v-.577c.197.1.408.179.633.236.227.058.445.086.655.086.324 0 .574-.051.748-.153a.519.519 0 00.262-.476.508.508 0 00-.209-.408c-.137-.114-.407-.249-.809-.404-.382-.142-.654-.266-.816-.37a1.17 1.17 0 01-.359-.364.953.953 0 01-.116-.482c0-.335.136-.598.408-.79.272-.195.645-.292 1.119-.292.442 0 .873.09 1.295.269l-.221.506c-.411-.17-.784-.255-1.119-.255-.294 0-.516.046-.666.139a.427.427 0 00-.225.381c0 .11.028.204.083.281a.853.853 0 00.273.221c.125.07.364.171.719.303.486.177.814.356.984.535.172.18.258.406.258.678zm2.748 1.194c-.607 0-1.086-.185-1.438-.554-.349-.369-.524-.882-.524-1.538 0-.662.163-1.187.487-1.576.327-.39.765-.584 1.314-.584.514 0 .921.169 1.22.509.3.337.449.782.449 1.336v.393h-2.826c.013.482.134.847.363 1.097.232.25.558.374.977.374.442 0 .879-.092 1.31-.277v.554a3.159 3.159 0 01-.625.202c-.194.043-.43.064-.707.064zm-.169-3.732c-.329 0-.592.107-.789.322-.195.215-.31.512-.345.891h2.145c0-.392-.087-.691-.262-.898-.175-.21-.424-.315-.749-.315zm5.533 3.107h-.034c-.287.417-.716.625-1.288.625-.536 0-.954-.183-1.254-.55-.296-.367-.445-.889-.445-1.565 0-.676.15-1.201.449-1.576.3-.374.716-.561 1.25-.561.557 0 .984.202 1.281.606h.048l-.026-.296-.015-.288v-1.67h.621v5.825h-.505l-.082-.55zm-1.243.105c.424 0 .731-.115.921-.345.192-.232.288-.605.288-1.119v-.131c0-.581-.097-.996-.292-1.243-.192-.249-.5-.374-.924-.374-.365 0-.644.142-.839.427-.192.282-.288.681-.288 1.198 0 .524.096.919.288 1.186.192.267.474.401.846.401zm6.876.52c-.606 0-1.085-.185-1.437-.554-.349-.369-.524-.882-.524-1.538 0-.662.162-1.187.487-1.576.326-.39.764-.584 1.313-.584.514 0 .921.169 1.221.509.299.337.449.782.449 1.336v.393h-2.826c.012.482.133.847.363 1.097.232.25.558.374.977.374.441 0 .878-.092 1.31-.277v.554a3.18 3.18 0 01-.625.202 3.342 3.342 0 01-.708.064zm-.168-3.732c-.33 0-.593.107-.79.322-.195.215-.309.512-.344.891h2.145c0-.392-.088-.691-.262-.898-.175-.21-.425-.315-.749-.315zm3.361 3.657h-.621v-5.824h.621v5.824zm3.051.075c-.606 0-1.086-.185-1.437-.554-.35-.369-.524-.882-.524-1.538 0-.662.162-1.187.486-1.576.327-.39.765-.584 1.314-.584.514 0 .921.169 1.22.509.3.337.449.782.449 1.336v.393h-2.826c.013.482.134.847.363 1.097.233.25.558.374.977.374.442 0 .879-.092 1.311-.277v.554c-.22.095-.428.162-.626.202-.194.043-.43.064-.707.064zm-.168-3.732c-.33 0-.593.107-.79.322-.195.215-.31.512-.345.891h2.145c0-.392-.087-.691-.262-.898-.175-.21-.424-.315-.748-.315zm7.969 3.657v-2.669c0-.327-.07-.571-.21-.733-.14-.165-.357-.247-.651-.247-.387 0-.673.111-.857.333-.185.222-.277.564-.277 1.025v2.291h-.622v-2.669c0-.327-.07-.571-.209-.733-.14-.165-.358-.247-.655-.247-.39 0-.675.117-.858.351-.179.233-.269.614-.269 1.146v2.152h-.621v-4.102h.505l.101.561h.03c.117-.2.282-.355.494-.468a1.53 1.53 0 01.719-.168c.641 0 1.06.232 1.257.696h.03c.123-.215.3-.384.532-.509.232-.125.496-.187.793-.187.465 0 .811.12 1.041.359.232.237.348.618.348 1.142v2.676h-.621zm3.638.075c-.606 0-1.085-.185-1.437-.554-.35-.369-.524-.882-.524-1.538 0-.662.162-1.187.486-1.576.327-.39.765-.584 1.314-.584.514 0 .921.169 1.221.509.299.337.449.782.449 1.336v.393h-2.826c.012.482.133.847.363 1.097.232.25.557.374.977.374.441 0 .878-.092 1.31-.277v.554a3.18 3.18 0 01-.625.202 3.342 3.342 0 01-.708.064zm-.168-3.732c-.33 0-.593.107-.79.322-.195.215-.31.512-.344.891h2.144c0-.392-.087-.691-.262-.898-.174-.21-.424-.315-.748-.315zm5.547 3.657v-2.654c0-.334-.076-.584-.228-.748-.152-.165-.391-.247-.715-.247-.429 0-.744.116-.943.348-.2.232-.3.615-.3 1.149v2.152h-.621v-4.102h.505l.101.561h.03a1.26 1.26 0 01.535-.468 1.73 1.73 0 01.768-.168c.494 0 .866.12 1.115.359.25.237.375.618.375 1.142v2.676h-.622zm3.227-.438c.11 0 .216-.007.318-.022a2.27 2.27 0 00.243-.053v.476a1.117 1.117 0 01-.299.078c-.13.023-.247.034-.352.034-.794 0-1.19-.418-1.19-1.254v-2.44h-.588v-.3l.588-.258.262-.876h.359v.951h1.19v.483h-1.19v2.414c0 .247.059.437.176.569a.612.612 0 00.483.198zm1.969-3.664v2.661c0 .334.076.584.228.749.152.164.391.247.715.247.429 0 .742-.118.94-.352.199-.235.299-.618.299-1.149v-2.156h.621v4.102h-.512l-.09-.55h-.034a1.23 1.23 0 01-.532.464 1.768 1.768 0 01-.771.161c-.499 0-.873-.118-1.123-.356-.247-.237-.37-.616-.37-1.137v-2.684h.629zm9.354 4.102v-2.669c0-.327-.07-.571-.21-.733-.139-.165-.356-.247-.651-.247-.387 0-.672.111-.857.333-.185.222-.277.564-.277 1.025v2.291h-.622v-2.669c0-.327-.069-.571-.209-.733-.14-.165-.358-.247-.655-.247-.389 0-.675.117-.857.351-.18.233-.27.614-.27 1.146v2.152h-.621v-4.102h.505l.101.561h.03c.117-.2.282-.355.494-.468a1.53 1.53 0 01.719-.168c.641 0 1.06.232 1.258.696h.03c.122-.215.299-.384.531-.509a1.65 1.65 0 01.794-.187c.464 0 .811.12 1.04.359.232.237.348.618.348 1.142v2.676h-.621zm6.689-.55h-.034c-.287.417-.716.625-1.287.625-.537 0-.955-.183-1.254-.55-.297-.367-.446-.889-.446-1.565 0-.676.15-1.201.449-1.576.3-.374.717-.561 1.251-.561.556 0 .983.202 1.28.606h.049l-.027-.296-.015-.288v-1.67h.622v5.825h-.506l-.082-.55zm-1.243.105c.425 0 .731-.115.921-.345.192-.232.288-.605.288-1.119v-.131c0-.581-.097-.996-.292-1.243-.192-.249-.5-.374-.924-.374-.364 0-.644.142-.839.427-.192.282-.288.681-.288 1.198 0 .524.096.919.288 1.186.193.267.475.401.846.401zm6.693-1.61c0 .669-.168 1.192-.505 1.569-.337.374-.802.561-1.396.561a1.85 1.85 0 01-.977-.258 1.702 1.702 0 01-.659-.741c-.155-.322-.232-.699-.232-1.131 0-.669.167-1.189.501-1.561.335-.374.799-.561 1.393-.561.574 0 1.029.191 1.366.572.339.382.509.899.509 1.55zm-3.125 0c0 .524.104.923.314 1.198.21.275.518.412.925.412.406 0 .715-.136.924-.408.212-.275.318-.675.318-1.202 0-.521-.106-.917-.318-1.186-.209-.272-.52-.408-.932-.408-.407 0-.714.133-.921.4-.207.267-.31.665-.31 1.194zm4.84 2.055h-.622v-5.824h.622v5.824zm4.858-2.055c0 .669-.168 1.192-.505 1.569-.337.374-.802.561-1.396.561a1.85 1.85 0 01-.977-.258 1.702 1.702 0 01-.659-.741c-.155-.322-.232-.699-.232-1.131 0-.669.167-1.189.501-1.561.335-.374.799-.561 1.393-.561.574 0 1.029.191 1.366.572.34.382.509.899.509 1.55zm-3.125 0c0 .524.104.923.314 1.198.21.275.518.412.925.412.406 0 .715-.136.924-.408.212-.275.318-.675.318-1.202 0-.521-.106-.917-.318-1.186-.209-.272-.52-.408-.932-.408-.407 0-.714.133-.921.4-.207.267-.31.665-.31 1.194zm6.09-2.122c.182 0 .345.015.49.045l-.086.576a2.143 2.143 0 00-.449-.056c-.332 0-.616.135-.854.404-.234.27-.351.605-.351 1.007v2.201h-.622v-4.102h.513l.071.76h.03a1.81 1.81 0 01.55-.618 1.24 1.24 0 01.708-.217zm4.147 4.177l-1.557-4.102h.666l.884 2.433c.199.569.317.938.352 1.108h.03c.027-.133.113-.406.258-.82.147-.417.475-1.324.984-2.721h.667l-1.558 4.102h-.726zm4.676.075c-.607 0-1.086-.185-1.438-.554-.349-.369-.524-.882-.524-1.538 0-.662.162-1.187.487-1.576.327-.39.765-.584 1.314-.584.514 0 .92.169 1.22.509.299.337.449.782.449 1.336v.393h-2.826c.012.482.133.847.363 1.097.232.25.558.374.977.374.442 0 .878-.092 1.31-.277v.554a3.159 3.159 0 01-.625.202c-.195.043-.43.064-.707.064zm-.169-3.732c-.329 0-.593.107-.79.322-.194.215-.309.512-.344.891h2.145c0-.392-.088-.691-.262-.898-.175-.21-.425-.315-.749-.315zm5.548 3.657v-2.654c0-.334-.077-.584-.229-.748-.152-.165-.39-.247-.715-.247-.431 0-.747.117-.947.351-.197.235-.296.619-.296 1.153v2.145h-.621v-5.824h.621v1.763c0 .212-.009.388-.029.528h.037c.122-.198.296-.352.52-.465.227-.114.486-.172.775-.172.502 0 .877.12 1.127.36.252.237.378.615.378 1.134v2.676h-.621zm2.522 0h-.621v-4.102h.621v4.102zm-.673-5.214c0-.142.035-.246.104-.31a.364.364 0 01.262-.102c.1 0 .186.034.259.101.072.068.108.171.108.31 0 .14-.036.245-.108.315a.369.369 0 01-.259.101.364.364 0 01-.262-.1c-.069-.07-.104-.175-.104-.315zm3.631 5.289c-.594 0-1.055-.182-1.382-.546-.324-.367-.486-.885-.486-1.554 0-.686.164-1.216.494-1.591.332-.374.803-.561 1.415-.561.197 0 .394.021.591.063.197.043.352.093.464.15l-.191.528a2.783 2.783 0 00-.449-.135 1.96 1.96 0 00-.43-.056c-.834 0-1.25.532-1.25 1.595 0 .504.101.891.303 1.16.204.27.506.404.906.404.341 0 .692-.073 1.051-.221v.551c-.274.142-.62.213-1.036.213zm2.597-4.177v2.661c0 .334.076.584.229.749.152.164.39.247.715.247.429 0 .742-.118.939-.352.2-.235.3-.618.3-1.149v-2.156h.621v4.102h-.513l-.09-.55h-.033a1.24 1.24 0 01-.532.464 1.771 1.771 0 01-.771.161c-.499 0-.873-.118-1.123-.356-.247-.237-.371-.616-.371-1.137v-2.684h.629zm4.747 4.102h-.622v-5.824h.622v5.824z" fill="#fff"/><rect x="637.181" y="118.182" width="85.178" height="23.85" rx="1.704" fill="#454545"/><g clip-path="url(#prefix__clip8_6765_86649)" fill="#fff"><path d="M666.553 127.382l-1.761-1.761-2.725 2.726-2.726-2.726-1.76 1.761 2.725 2.725-2.725 2.726 1.76 1.76 2.726-2.725 2.725 2.725 1.761-1.76-2.726-2.726 2.726-2.725zM676.195 128.503c-.533 0-.947.201-1.239.604-.293.399-.44.958-.44 1.674 0 1.492.56 2.238 1.679 2.238.47 0 1.039-.118 1.707-.353v1.19a4.752 4.752 0 01-1.839.343c-.973 0-1.717-.294-2.233-.883-.515-.592-.773-1.44-.773-2.544 0-.695.127-1.304.38-1.825a2.725 2.725 0 011.089-1.203c.475-.281 1.032-.421 1.669-.421.65 0 1.303.157 1.959.471l-.458 1.153a7.462 7.462 0 00-.755-.311 2.24 2.24 0 00-.746-.133zm6.379 5.604l-.27-.695h-.036c-.235.296-.478.502-.728.618-.247.112-.57.169-.97.169-.491 0-.878-.14-1.162-.421-.28-.281-.421-.68-.421-1.199 0-.543.19-.942.568-1.198.381-.26.954-.403 1.72-.43l.888-.028v-.224c0-.519-.266-.778-.797-.778-.408 0-.889.124-1.441.371l-.462-.943a4.161 4.161 0 011.958-.462c.687 0 1.213.15 1.579.449.366.299.549.753.549 1.363v3.408h-.975zm-.411-2.369l-.54.018c-.406.012-.708.085-.906.219-.198.135-.298.339-.298.613 0 .394.226.591.678.591.323 0 .581-.093.773-.279.195-.186.293-.434.293-.742v-.42zm7.655 2.369h-1.396v-2.987c0-.369-.065-.645-.196-.828-.131-.186-.34-.279-.627-.279-.39 0-.673.131-.846.393-.174.259-.261.691-.261 1.295v2.406h-1.396v-5.115h1.066l.188.655h.078a1.46 1.46 0 01.64-.558c.275-.129.586-.193.934-.193.594 0 1.046.162 1.354.485.308.321.462.784.462 1.391v3.335zm3.62.092c-1.592 0-2.388-.874-2.388-2.622 0-.869.216-1.532.649-1.99.433-.46 1.054-.691 1.862-.691.592 0 1.123.116 1.593.348l-.412 1.08a6.435 6.435 0 00-.613-.215 1.925 1.925 0 00-.568-.087c-.725 0-1.088.515-1.088 1.546 0 1.001.363 1.501 1.088 1.501.269 0 .517-.035.746-.105.229-.074.458-.186.686-.339v1.194a2.247 2.247 0 01-.686.298 3.867 3.867 0 01-.869.082zm4.97-4.31c-.296 0-.528.095-.696.284-.168.186-.264.451-.288.796h1.958c-.006-.345-.096-.61-.27-.796-.174-.189-.409-.284-.704-.284zm.196 4.31c-.823 0-1.467-.227-1.93-.682-.464-.454-.696-1.098-.696-1.93 0-.858.214-1.519.641-1.986.43-.47 1.023-.705 1.779-.705.723 0 1.286.206 1.689.618.402.412.604.981.604 1.707v.677h-3.299c.015.396.133.706.352.928.22.223.528.334.924.334.308 0 .6-.032.874-.096.275-.064.561-.166.86-.306v1.079a3.2 3.2 0 01-.782.27 4.813 4.813 0 01-1.016.092zm4.723-.092h-1.395v-7.118h1.395v7.118z"/></g><rect x="729.174" y="118.182" width="85.178" height="23.85" rx="1.704" fill="#FC0"/><g clip-path="url(#prefix__clip9_6765_86649)" fill="#000"><path d="M751.97 134.338l-.937-.937-.909-.909-.937-.937-.908-.908.369-.398.397-.397.398-.369.397-.398.511.54.54.511.539.539.54.54 1.334-1.335 1.335-1.334 1.334-1.335 1.306-1.334.398.397.397.398.398.369.369.397-1.704 1.732-1.732 1.732-1.732 1.704-1.703 1.732zM769.127 134.107l-.485-1.592h-2.439l-.485 1.592h-1.528l2.361-6.716h1.734l2.37 6.716h-1.528zm-.824-2.781l-.759-2.448a7.263 7.263 0 01-.119-.448c-.101.39-.389 1.355-.865 2.896h1.743zm5.272 2.873c-1.592 0-2.388-.874-2.388-2.622 0-.869.216-1.532.649-1.99.433-.46 1.054-.691 1.862-.691.592 0 1.123.116 1.592.348l-.411 1.08a6.435 6.435 0 00-.613-.215 1.935 1.935 0 00-.568-.087c-.726 0-1.089.515-1.089 1.546 0 1.001.363 1.501 1.089 1.501.269 0 .517-.035.746-.105.229-.074.457-.186.686-.339v1.194a2.257 2.257 0 01-.686.298 3.874 3.874 0 01-.869.082zm4.928 0c-1.592 0-2.388-.874-2.388-2.622 0-.869.217-1.532.65-1.99.433-.46 1.054-.691 1.862-.691a3.55 3.55 0 011.592.348l-.412 1.08a6.34 6.34 0 00-.613-.215 1.924 1.924 0 00-.567-.087c-.726 0-1.089.515-1.089 1.546 0 1.001.363 1.501 1.089 1.501.268 0 .517-.035.745-.105.229-.074.458-.186.687-.339v1.194a2.263 2.263 0 01-.687.298 3.861 3.861 0 01-.869.082zm4.97-4.31c-.296 0-.528.095-.695.284-.168.186-.264.451-.289.796h1.958c-.006-.345-.096-.61-.269-.796-.174-.189-.409-.284-.705-.284zm.197 4.31c-.824 0-1.467-.227-1.931-.682-.464-.454-.695-1.098-.695-1.93 0-.858.213-1.519.64-1.986.43-.47 1.023-.705 1.78-.705.723 0 1.285.206 1.688.618.403.412.604.981.604 1.707v.677h-3.299c.016.396.133.706.353.928.219.223.527.334.924.334.308 0 .599-.032.874-.096.274-.064.561-.166.86-.306v1.079a3.207 3.207 0 01-.783.27 4.803 4.803 0 01-1.015.092zm6.136 0c-.601 0-1.072-.218-1.414-.654h-.073c.049.427.073.674.073.741v2.072h-1.395v-7.366h1.135l.196.664h.064c.327-.506.81-.76 1.451-.76.604 0 1.076.234 1.418.7.341.467.512 1.115.512 1.945 0 .546-.081 1.02-.242 1.423-.159.402-.386.709-.682.919a1.748 1.748 0 01-1.043.316zm-.412-4.186c-.344 0-.596.106-.755.32-.158.21-.241.56-.247 1.048v.151c0 .549.081.942.243 1.18.165.238.424.357.778.357.625 0 .937-.516.937-1.547 0-.503-.077-.879-.233-1.13-.152-.253-.393-.379-.723-.379zm5.793 3.074c.244 0 .537-.053.879-.16v1.039c-.348.155-.775.233-1.281.233-.558 0-.965-.14-1.222-.421-.253-.284-.379-.708-.379-1.272v-2.466h-.668v-.59l.768-.467.403-1.079h.892v1.088h1.432v1.048h-1.432v2.466c0 .198.055.345.165.439.113.095.26.142.443.142z"/></g><rect x="262.426" y="64.167" width="562.148" height="88.087" rx="2.981" stroke="#585C65" stroke-width=".852"/></g></g><defs><clipPath id="prefix__clip0_6765_86649"><path fill="#fff" transform="translate(256.25 22.677)" d="M0 0h574.5v325.064H0z"/></clipPath><clipPath id="prefix__clip1_6765_86649"><path fill="#fff" transform="translate(256.25 22.677)" d="M0 0h574.5v37.064H0z"/></clipPath><clipPath id="prefix__clip2_6765_86649"><path fill="#fff" transform="translate(266.864 33.717)" d="M0 0h15.921v15.921H0z"/></clipPath><clipPath id="prefix__clip3_6765_86649"><path fill="#fff" transform="translate(783.317 79.975)" d="M0 0h24.546v25.209H0z"/></clipPath><clipPath id="prefix__clip4_6765_86649"><path fill="#fff" transform="translate(783.317 123.759)" d="M0 0h24.546v25.209H0z"/></clipPath><clipPath id="prefix__clip5_6765_86649"><path fill="#fff" transform="translate(783.317 167.544)" d="M0 0h24.546v25.209H0z"/></clipPath><clipPath id="prefix__clip6_6765_86649"><path fill="#fff" transform="translate(783.98 212.654)" d="M0 0h24.546v25.209H0z"/></clipPath><clipPath id="prefix__clip7_6765_86649"><path fill="#fff" transform="translate(272.647 74.389)" d="M0 0h23.85v23.85H0z"/></clipPath><clipPath id="prefix__clip8_6765_86649"><path fill="#fff" transform="translate(655.252 123.293)" d="M0 0h49.036v13.629H0z"/></clipPath><clipPath id="prefix__clip9_6765_86649"><path fill="#fff" transform="translate(746.746 123.293)" d="M0 0h50.036v13.629H0z"/></clipPath><filter id="prefix__filter0_ddd_6765_86649" x="254.334" y="57.779" width="578.332" height="105.122" filterUnits="userSpaceOnUse" color-interpolation-filters="sRGB"><feFlood flood-opacity="0" result="BackgroundImageFix"/><feColorMatrix in="SourceAlpha" values="0 0 0 0 0 0 0 0 0 0 0 0 0 0 0 0 0 0 127 0" result="hardAlpha"/><feOffset dy="1.704"/><feGaussianBlur stdDeviation="3.833"/><feColorMatrix values="0 0 0 0 0 0 0 0 0 0 0 0 0 0 0 0 0 0 0.12 0"/><feBlend in2="BackgroundImageFix" result="effect1_dropShadow_6765_86649"/><feColorMatrix in="SourceAlpha" values="0 0 0 0 0 0 0 0 0 0 0 0 0 0 0 0 0 0 127 0" result="hardAlpha"/><feOffset dy="4.259"/><feGaussianBlur stdDeviation="2.981"/><feColorMatrix values="0 0 0 0 0 0 0 0 0 0 0 0 0 0 0 0 0 0 0.14 0"/><feBlend in2="effect1_dropShadow_6765_86649" result="effect2_dropShadow_6765_86649"/><feColorMatrix in="SourceAlpha" values="0 0 0 0 0 0 0 0 0 0 0 0 0 0 0 0 0 0 127 0" result="hardAlpha"/><feOffset dy="2.555"/><feGaussianBlur stdDeviation="1.278"/><feColorMatrix values="0 0 0 0 0 0 0 0 0 0 0 0 0 0 0 0 0 0 0.2 0"/><feBlend in2="effect2_dropShadow_6765_86649" result="effect3_dropShadow_6765_86649"/><feBlend in="SourceGraphic" in2="effect3_dropShadow_6765_86649" result="shape"/></filter></defs></svg>