<svg width="1088" height="158" fill="none" xmlns="http://www.w3.org/2000/svg"><path fill="#F1F1F6" d="M.5 0h1087v158H.5z"/><path fill-rule="evenodd" clip-rule="evenodd" d="M498.25 46.5c0-7.59 6.16-13.75 13.75-13.75s13.75 6.16 13.75 13.75-6.16 13.75-13.75 13.75-13.75-6.16-13.75-13.75zm2.75 0c0 6.078 4.922 11 11 11 6.077 0 11-4.922 11-11s-4.923-11-11-11c-6.078 0-11 4.922-11 11z" fill="#90939F"/><g clip-path="url(#prefix__clip0_5579_88328)"><path d="M541.659 55V39.295h1.826v14.05h6.929V55h-8.755zm18.652 0l-.355-1.676h-.086c-.587.738-1.174 1.24-1.762 1.504-.58.258-1.307.387-2.18.387-1.168 0-2.084-.3-2.75-.903-.659-.601-.989-1.457-.989-2.567 0-2.377 1.902-3.624 5.705-3.738l1.998-.065v-.73c0-.924-.201-1.604-.602-2.041-.394-.444-1.028-.666-1.901-.666-.981 0-2.091.3-3.33.902l-.548-1.364a8.405 8.405 0 011.901-.741 8.318 8.318 0 012.084-.269c1.404 0 2.442.312 3.115.935.681.623 1.021 1.622 1.021 2.997V55h-1.321zm-4.029-1.257c1.11 0 1.98-.304 2.611-.913.637-.609.956-1.46.956-2.557V49.21l-1.784.075c-1.418.05-2.442.272-3.072.666-.623.387-.934.992-.934 1.816 0 .644.193 1.135.58 1.471.394.337.941.505 1.643.505zm14.763-10.71c1.547 0 2.746.53 3.599 1.59.859 1.053 1.289 2.546 1.289 4.48 0 1.933-.434 3.437-1.3 4.511-.86 1.067-2.056 1.6-3.588 1.6-.766 0-1.468-.139-2.106-.418a3.996 3.996 0 01-1.589-1.31h-.129L566.845 55h-1.279V38.285h1.784v4.06c0 .91-.029 1.727-.086 2.45h.086c.83-1.175 2.062-1.762 3.695-1.762zm-.258 1.493c-1.217 0-2.095.351-2.632 1.053-.537.695-.805 1.87-.805 3.523 0 1.655.275 2.84.827 3.556.551.71 1.436 1.064 2.653 1.064 1.096 0 1.912-.398 2.449-1.193.537-.802.806-1.951.806-3.448 0-1.533-.269-2.675-.806-3.427-.537-.752-1.368-1.128-2.492-1.128zm13.495 10.689c-1.74 0-3.115-.53-4.125-1.59-1.002-1.06-1.504-2.532-1.504-4.415 0-1.898.466-3.405 1.397-4.523.938-1.117 2.195-1.675 3.77-1.675 1.476 0 2.643.487 3.502 1.46.86.968 1.289 2.246 1.289 3.836v1.127h-8.11c.036 1.383.383 2.432 1.042 3.148.666.716 1.601 1.074 2.804 1.074 1.267 0 2.521-.265 3.759-.795v1.59a9.104 9.104 0 01-1.794.58c-.558.122-1.235.183-2.03.183zm-.483-10.71c-.945 0-1.701.308-2.267.924-.558.616-.888 1.468-.988 2.556h6.155c0-1.124-.25-1.983-.752-2.578-.501-.601-1.217-.902-2.148-.902zM593.695 55h-1.783V38.285h1.783V55z" fill="#464B52"/></g><g clip-path="url(#prefix__clip1_5579_88328)"><path fill-rule="evenodd" clip-rule="evenodd" d="M511.5 98.667c-7.36 0-13.333 5.973-13.333 13.333s5.973 13.333 13.333 13.333 13.333-5.973 13.333-13.333-5.973-13.333-13.333-13.333zm0 6.666a6.67 6.67 0 00-6.667 6.667 6.67 6.67 0 006.667 6.667 6.67 6.67 0 006.667-6.667 6.67 6.67 0 00-6.667-6.667zM500.833 112c0 5.893 4.774 10.667 10.667 10.667s10.667-4.774 10.667-10.667-4.774-10.667-10.667-10.667-10.667 4.774-10.667 10.667z" fill="#217CBB"/><path d="M537.659 121v-15.705h1.826v14.051h6.929V121h-8.755zm18.652 0l-.355-1.676h-.086c-.587.738-1.174 1.239-1.762 1.504-.58.258-1.307.387-2.18.387-1.168 0-2.084-.301-2.75-.903-.659-.601-.989-1.457-.989-2.567 0-2.377 1.902-3.624 5.705-3.738l1.998-.065v-.73c0-.924-.201-1.604-.602-2.041-.394-.444-1.028-.666-1.901-.666-.981 0-2.091.301-3.33.902l-.548-1.364a8.409 8.409 0 011.901-.741 8.323 8.323 0 012.084-.269c1.404 0 2.442.312 3.115.935.681.623 1.021 1.622 1.021 2.997V121h-1.321zm-4.029-1.257c1.11 0 1.98-.304 2.611-.913.637-.609.956-1.461.956-2.557v-1.063l-1.784.075c-1.418.05-2.442.272-3.072.666-.623.387-.934.992-.934 1.816 0 .644.193 1.135.58 1.471.394.337.941.505 1.643.505zm14.763-10.71c1.547 0 2.746.53 3.599 1.59.859 1.053 1.289 2.546 1.289 4.48 0 1.933-.434 3.437-1.3 4.511-.86 1.067-2.056 1.601-3.588 1.601a5.2 5.2 0 01-2.106-.419 3.995 3.995 0 01-1.589-1.311h-.129l-.376 1.515h-1.279v-16.715h1.784v4.061c0 .909-.029 1.726-.086 2.449h.086c.83-1.175 2.062-1.762 3.695-1.762zm-.258 1.493c-1.217 0-2.095.351-2.632 1.053-.537.695-.805 1.869-.805 3.524 0 1.654.275 2.839.827 3.555.551.709 1.436 1.064 2.653 1.064 1.096 0 1.912-.398 2.449-1.193.537-.802.806-1.951.806-3.448 0-1.532-.269-2.675-.806-3.427-.537-.752-1.368-1.128-2.492-1.128zm13.495 10.689c-1.74 0-3.115-.53-4.125-1.59-1.002-1.06-1.504-2.532-1.504-4.415 0-1.898.466-3.405 1.397-4.522.938-1.118 2.195-1.676 3.77-1.676 1.476 0 2.643.487 3.502 1.461.86.966 1.289 2.245 1.289 3.835v1.128h-8.11c.036 1.382.383 2.431 1.042 3.147.666.716 1.601 1.074 2.804 1.074 1.267 0 2.521-.265 3.759-.795v1.59a9.077 9.077 0 01-1.794.58c-.558.122-1.235.183-2.03.183zm-.483-10.71c-.945 0-1.701.308-2.267.924-.558.616-.888 1.468-.988 2.556h6.155c0-1.124-.25-1.983-.752-2.578-.501-.601-1.217-.902-2.148-.902zM589.695 121h-1.783v-16.715h1.783V121z" fill="#353A40"/></g><defs><clipPath id="prefix__clip0_5579_88328"><path fill="#fff" transform="translate(539.5 32)" d="M0 0h57v28H0z"/></clipPath><clipPath id="prefix__clip1_5579_88328"><path fill="#fff" transform="translate(495.5 96)" d="M0 0h97v32H0z"/></clipPath></defs></svg>