<svg fill="none" height="56" viewBox="0 0 56 56" width="56" xmlns="http://www.w3.org/2000/svg"><path clip-rule="evenodd" d="m14.75 27.5c0-7.59 6.16-13.75 13.75-13.75s13.75 6.16 13.75 13.75-6.16 13.75-13.75 13.75-13.75-6.16-13.75-13.75zm2.75 0c0 6.0775 4.9225 11 11 11s11-4.9225 11-11-4.9225-11-11-11-11 4.9225-11 11z" fill="#90939f" fill-rule="evenodd"/><path d="m47 27.5c0 10.5285-8.3174 19-18.5 19s-18.5-8.4715-18.5-19 8.3174-19 18.5-19 18.5 8.4715 18.5 19z" stroke="#019aeb" stroke-width="3"/></svg>