<svg fill="none" height="143" viewBox="0 0 1088 143" width="1088" xmlns="http://www.w3.org/2000/svg"><path d="m0 0h1088v142.333h-1088z" fill="#6a6e79"/><path d="m1 0h99v142.333h-99z" fill="#6a6e79"/><path d="m1 1h99v40h-99z" fill="#464b52"/><path d="m18.1572 23.2246c0 .9024-.3258 1.6133-.9775 2.1328-.6471.5196-1.5495.7793-2.707.7793-1.0665 0-2.0098-.2005-2.8301-.6015v-1.9688c.6745.3008 1.2441.5127 1.709.6357.4694.1231.8977.1846 1.2851.1846.4649 0 .8203-.0888 1.0664-.2666.2507-.1777.376-.442.376-.793 0-.1959-.0547-.3691-.1641-.5195-.1093-.1549-.2711-.303-.4853-.4443-.2096-.1413-.6403-.3669-1.292-.6768-.6107-.2871-1.0687-.5628-1.374-.8271-.3054-.2643-.5492-.572-.7315-.9229s-.2734-.761-.2734-1.2304c0-.8842.2985-1.5791.8955-2.085.6016-.5059 1.431-.7588 2.4883-.7588.5195 0 1.014.0615 1.4834.1846.4739.123.9684.2962 1.4834.5195l-.6836 1.6475c-.5332-.2188-.9753-.3715-1.3262-.458-.3463-.0866-.6881-.1299-1.0254-.1299-.401 0-.7086.0934-.9228.2802-.2142.1869-.3213.4307-.3213.7315 0 .1868.0433.3509.1299.4922.0865.1367.2233.2711.4101.4033.1914.1276.6403.36 1.3467.6973.9342.4466 1.5745.8955 1.9209 1.3466.3463.4467.5195.9958.5195 1.6475zm4.7832 1.251c.3646 0 .8021-.0798 1.3125-.2393v1.5518c-.5195.2324-1.1575.3486-1.914.3486-.834 0-1.4424-.2096-1.8252-.6289-.3783-.4238-.5674-1.0573-.5674-1.9004v-3.6845h-.9981v-.8819l1.1485-.6972.6015-1.6133h1.333v1.6269h2.1397v1.5655h-2.1397v3.6845c0 .2962.0821.515.2461.6563.1686.1412.3897.2119.6631.2119zm7.6338 1.5244-.4033-1.0391h-.0547c-.3509.4421-.7132.7497-1.0869.9229-.3692.1686-.8522.2529-1.4493.2529-.7337 0-1.3125-.2096-1.7363-.6289-.4193-.4193-.6289-1.0163-.6289-1.791 0-.8112.2826-1.4082.8477-1.791.5696-.3874 1.4264-.6016 2.5703-.6426l1.3262-.041v-.335c0-.7747-.3965-1.1621-1.1895-1.1621-.6107 0-1.3285.1846-2.1533.5537l-.6905-1.4082c.8796-.4603 1.8549-.6904 2.9258-.6904 1.0254 0 1.8116.2233 2.3584.6699.5469.4466.8203 1.1257.8203 2.0371v5.0928zm-.6152-3.541-.8067.0273c-.6061.0183-1.0573.1276-1.3535.3282-.2962.2005-.4443.5058-.4443.916 0 .5879.3372.8818 1.0117.8818.4831 0 .8681-.139 1.1553-.417.2916-.278.4375-.6471.4375-1.1074zm7.3603 2.0166c.3646 0 .8021-.0798 1.3125-.2393v1.5518c-.5195.2324-1.1576.3486-1.9141.3486-.834 0-1.4424-.2096-1.8252-.6289-.3782-.4238-.5674-1.0573-.5674-1.9004v-3.6845h-.998v-.8819l1.1484-.6972.6016-1.6133h1.333v1.6269h2.1397v1.5655h-2.1397v3.6845c0 .2962.082.515.2461.6563.1686.1412.3897.2119.6631.2119zm5.9453-4.7783c-.4421 0-.7884.1412-1.0391.4238-.2506.278-.3942.6745-.4306 1.1894h2.9257c-.0091-.5149-.1435-.9114-.4033-1.1894-.2597-.2826-.6107-.4238-1.0527-.4238zm.2939 6.4394c-1.2304 0-2.192-.3395-2.8847-1.0185-.6927-.6791-1.0391-1.6407-1.0391-2.8848 0-1.2806.319-2.2695.957-2.9668.6426-.7018 1.529-1.0527 2.6592-1.0527 1.0801 0 1.9209.3076 2.5225.9228.6015.6153.9023 1.4652.9023 2.5498v1.0117h-4.9287c.0228.5925.1982 1.0551.5264 1.3877.3281.3327.7884.4991 1.3808.4991.4603 0 .8955-.0479 1.3057-.1436s.8385-.2484 1.2852-.458v1.6133c-.3646.1823-.7543.3167-1.169.4033-.4147.0911-.9206.1367-1.5176.1367z" fill="#fff"/><path d="m1 42h99v99.333h-99z" fill="#171c1e"/><path d="m18.1572 93.8913c0 .9023-.3258 1.6132-.9775 2.1328-.6471.5195-1.5495.7793-2.707.7793-1.0665 0-2.0098-.2005-2.8301-.6016v-1.9687c.6745.3007 1.2441.5127 1.709.6357.4694.1231.8977.1846 1.2851.1846.4649 0 .8203-.0889 1.0664-.2666.2507-.1778.376-.4421.376-.793 0-.196-.0547-.3691-.1641-.5195-.1093-.155-.2711-.3031-.4853-.4444-.2096-.1412-.6403-.3668-1.292-.6767-.6107-.2871-1.0687-.5628-1.374-.8272-.3054-.2643-.5492-.5719-.7315-.9228s-.2734-.7611-.2734-1.2305c0-.8841.2985-1.5791.8955-2.0849.6016-.5059 1.431-.7588 2.4883-.7588.5195 0 1.014.0615 1.4834.1845.4739.1231.9684.2963 1.4834.5196l-.6836 1.6474c-.5332-.2187-.9753-.3714-1.3262-.458-.3463-.0866-.6881-.1299-1.0254-.1299-.401 0-.7086.0935-.9228.2803-.2142.1869-.3213.4307-.3213.7315 0 .1868.0433.3509.1299.4921.0865.1368.2233.2712.4101.4034.1914.1276.6403.36 1.3467.6972.9342.4466 1.5745.8955 1.9209 1.3467.3463.4466.5195.9958.5195 1.6475zm8.4063 2.7754h-2.085v-4.4639c0-.5514-.0934-.9639-.2803-1.2373-.1823-.278-.4717-.417-.8681-.417-.5332 0-.9206.196-1.1621.5879-.2416.3919-.3624 1.0368-.3624 1.9346v3.5957h-2.0849v-7.6426h1.5928l.2802.9775h.1162c.2051-.3509.5013-.6243.8887-.8203.3874-.2005.8317-.3008 1.333-.3008 1.1439 0 1.9186.3737 2.3242 1.1211h.1846c.2051-.3555.5059-.6312.9024-.8271.401-.196.8522-.294 1.3535-.294.8659 0 1.5198.2233 1.9619.6699.4466.4421.6699 1.153.6699 2.1329v4.9834h-2.0918v-4.4639c0-.5514-.0934-.9639-.2803-1.2373-.1823-.278-.4716-.417-.8681-.417-.5104 0-.8933.1823-1.1485.5469-.2506.3646-.3759.9433-.3759 1.7363zm11.6806 0-.4033-1.0391h-.0547c-.3509.4421-.7132.7497-1.0869.9228-.3692.1687-.8522.253-1.4492.253-.7338 0-1.3125-.2097-1.7364-.6289-.4192-.4193-.6289-1.0163-.6289-1.791 0-.8112.2826-1.4082.8477-1.7911.5697-.3873 1.4264-.6015 2.5703-.6425l1.3262-.0411v-.3349c0-.7748-.3965-1.1621-1.1895-1.1621-.6107 0-1.3284.1845-2.1533.5537l-.6904-1.4082c.8795-.4603 1.8548-.6904 2.9258-.6904 1.0253 0 1.8115.2233 2.3584.6699.5468.4466.8203 1.1256.8203 2.0371v5.0928zm-.6152-3.5411-.8067.0274c-.6061.0182-1.0573.1276-1.3535.3281s-.4443.5059-.4443.916c0 .5879.3372.8819 1.0117.8819.4831 0 .8682-.139 1.1553-.417.2916-.278.4375-.6472.4375-1.1075zm6.2255 3.5411h-2.0849v-10.6368h2.0849zm4.1953 0h-2.0849v-10.6368h2.0849z" fill="#fff"/><path d="m101 1h760v40h-760z" fill="#464b52"/><path d="m118.014 26h-5.756v-9.9941h5.756v1.7363h-3.637v2.1943h3.384v1.7364h-3.384v2.5771h3.637zm3.409-3.9033-2.461-3.7393h2.365l1.484 2.4336 1.497-2.4336h2.365l-2.488 3.7393 2.604 3.9033h-2.372l-1.606-2.6182-1.614 2.6182h-2.365zm11.298 3.9033-.404-1.0391h-.054c-.351.4421-.714.7497-1.087.9229-.369.1686-.852.2529-1.449.2529-.734 0-1.313-.2096-1.737-.6289-.419-.4193-.629-1.0163-.629-1.791 0-.8112.283-1.4082.848-1.791.57-.3874 1.426-.6016 2.57-.6426l1.326-.041v-.335c0-.7747-.396-1.1621-1.189-1.1621-.611 0-1.328.1846-2.153.5537l-.691-1.4082c.88-.4603 1.855-.6904 2.926-.6904 1.025 0 1.812.2233 2.358.6699.547.4466.821 1.1257.821 2.0371v5.0928zm-.616-3.541-.806.0273c-.606.0183-1.057.1276-1.354.3282-.296.2005-.444.5058-.444.916 0 .5879.337.8818 1.012.8818.483 0 .868-.139 1.155-.417.292-.278.437-.6471.437-1.1074zm10.984 3.541h-2.085v-4.4639c0-.5514-.094-.9638-.28-1.2373-.183-.278-.472-.417-.869-.417-.533 0-.92.196-1.162.5879-.241.392-.362 1.0368-.362 1.9346v3.5957h-2.085v-7.6426h1.593l.28.9776h.116c.205-.351.502-.6244.889-.8204.387-.2005.832-.3007 1.333-.3007 1.144 0 1.919.3737 2.324 1.1211h.185c.205-.3555.506-.6312.902-.8272.401-.196.852-.2939 1.354-.2939.866 0 1.519.2233 1.962.6699.446.442.669 1.153.669 2.1328v4.9834h-2.091v-4.4639c0-.5514-.094-.9638-.281-1.2373-.182-.278-.471-.417-.868-.417-.51 0-.893.1823-1.148.5469-.251.3646-.376.9434-.376 1.7363zm11.024.1367c-.898 0-1.602-.3258-2.112-.9775h-.109c.072.638.109 1.0071.109 1.1074v3.0967h-2.085v-11.0059h1.695l.294.9912h.096c.488-.7565 1.21-1.1347 2.167-1.1347.902 0 1.609.3486 2.119 1.0459.51.6972.766 1.6657.766 2.9052 0 .8158-.121 1.5245-.363 2.126-.237.6016-.576 1.0596-1.018 1.374-.442.3145-.962.4717-1.559.4717zm-.615-6.2549c-.515 0-.891.1595-1.128.4786-.237.3144-.36.8362-.369 1.5654v.2256c0 .8203.121 1.4082.362 1.7636.246.3555.634.5332 1.162.5332.935 0 1.402-.7701 1.402-2.3105 0-.752-.117-1.3148-.349-1.6885-.228-.3782-.588-.5674-1.08-.5674zm7.278 6.1182h-2.085v-10.6367h2.085zm5.276-6.3027c-.442 0-.789.1412-1.039.4238-.251.278-.395.6745-.431 1.1894h2.926c-.009-.5149-.144-.9114-.404-1.1894-.259-.2826-.61-.4238-1.052-.4238zm.294 6.4394c-1.231 0-2.192-.3395-2.885-1.0185-.693-.6791-1.039-1.6407-1.039-2.8848 0-1.2806.319-2.2695.957-2.9668.642-.7018 1.529-1.0527 2.659-1.0527 1.08 0 1.921.3076 2.522.9228.602.6153.903 1.4652.903 2.5498v1.0117h-4.929c.023.5925.198 1.0551.526 1.3877.329.3327.789.4991 1.381.4991.461 0 .896-.0479 1.306-.1436s.839-.2484 1.285-.458v1.6133c-.364.1823-.754.3167-1.169.4033-.415.0911-.92.1367-1.517.1367z" fill="#fff"/><path d="m101 42h760v99.333h-760z" fill="#171c1e"/><path d="m432.312 70.6667h-9v42.0003h9" stroke="#4091d2"/><path d="m392.35 98.8913h-1.032v1.7757h-1.769v-1.7757h-3.656v-1.2598l3.755-5.5312h1.67v5.3847h1.032zm-2.801-1.4063v-1.4531c0-.2422.01-.5938.029-1.0547.02-.4609.035-.7285.047-.8027h-.047c-.144.3203-.318.6328-.521.9375l-1.571 2.373zm9.391 3.182h-5.989v-1.2601l2.151-2.1738c.637-.6524 1.053-1.1036 1.248-1.3536.195-.2539.336-.4882.422-.7031.086-.2148.129-.4375.129-.6679 0-.3438-.096-.5997-.287-.7676-.188-.168-.44-.252-.756-.252-.332 0-.655.0762-.967.2285-.313.1524-.639.3692-.979.6504l-.984-1.166c.422-.3594.771-.6133 1.049-.7617.277-.1484.58-.2617.908-.3398.328-.0821.695-.1231 1.102-.1231.535 0 1.007.0977 1.418.293.41.1953.728.4687.955.8203.226.3515.339.7539.339 1.207 0 .3945-.07.7656-.21 1.1133-.137.3437-.352.6973-.645 1.0605-.289.3633-.801.8809-1.535 1.5528l-1.102 1.0371v.082h3.733zm3.326.117c-.769 0-1.375-.299-1.816-.8966-.438-.5977-.657-1.4258-.657-2.4844 0-1.0742.223-1.9102.668-2.5078.45-.6016 1.067-.9024 1.852-.9024.824 0 1.453.3203 1.887.961h.058c-.09-.4883-.134-.9239-.134-1.3067v-2.0976h1.793v9.1175h-1.372l-.345-.85h-.076c-.407.645-1.026.967-1.858.967zm.627-1.424c.457 0 .791-.1328 1.002-.3984.215-.2656.332-.7168.352-1.3535v-.1934c0-.7031-.11-1.207-.329-1.5117-.214-.3047-.566-.457-1.054-.457-.399 0-.709.1699-.932.5097-.219.336-.328.8262-.328 1.4707 0 .6446.111 1.1289.334 1.4531.223.3204.541.4805.955.4805zm8.418 1.424c-.769 0-1.373-.279-1.81-.838h-.094c.063.547.094.863.094.949v2.654h-1.787v-9.4331h1.453l.252.8496h.082c.418-.6485 1.037-.9727 1.857-.9727.774 0 1.379.2989 1.817.8965.437.5977.656 1.4277.656 2.4902 0 .6993-.104 1.3067-.311 1.8223-.203.5156-.494.9082-.873 1.1782-.379.269-.824.404-1.336.404zm-.527-5.3615c-.441 0-.764.1367-.967.4102-.203.2695-.308.7168-.316 1.3418v.1933c0 .7032.103 1.2071.31 1.5117.211.3047.543.4571.996.4571.801 0 1.202-.6602 1.202-1.9805 0-.6445-.1-1.1269-.299-1.4473-.196-.3242-.504-.4863-.926-.4863z" fill="#4091d2"/><path clip-rule="evenodd" d="m466.312 78.3333c-7.36 0-13.333 5.9733-13.333 13.3333s5.973 13.3334 13.333 13.3334 13.334-5.9734 13.334-13.3334-5.974-13.3333-13.334-13.3333zm0 6.6667c-3.68 0-6.666 2.9866-6.666 6.6666s2.986 6.6667 6.666 6.6667 6.667-2.9867 6.667-6.6667-2.987-6.6666-6.667-6.6666zm-10.666 6.6666c0 5.8934 4.773 10.6664 10.666 10.6664 5.894 0 10.667-4.773 10.667-10.6664 0-5.8933-4.773-10.6666-10.667-10.6666-5.893 0-10.666 4.7733-10.666 10.6666z" fill="#019aeb" fill-rule="evenodd"/><circle cx="466.312" cy="91.667" r="19" stroke="#0084ff" stroke-width="3"/><path d="m500.312 78h9v27h-9" stroke="#4091d2"/><path d="m525.781 93.6774h-5.988v-1.2598l2.15-2.1738c.637-.6524 1.053-1.1035 1.248-1.3535.196-.2539.336-.4883.422-.7032.086-.2148.129-.4375.129-.6679 0-.3438-.096-.5996-.287-.7676-.187-.168-.439-.252-.756-.252-.332 0-.654.0762-.967.2285-.312.1524-.638.3692-.978.6504l-.984-1.166c.421-.3594.771-.6133 1.048-.7617.278-.1484.58-.2617.909-.3398.328-.0821.695-.1231 1.101-.1231.535 0 1.008.0977 1.418.293s.729.4687.955.8203c.227.3516.34.7539.34 1.207 0 .3946-.07.7657-.211 1.1133-.137.3438-.351.6973-.644 1.0606-.29.3632-.801.8808-1.536 1.5527l-1.101 1.0371v.082h3.732zm.737-3.6387c0-1.6953.357-2.957 1.072-3.7852.719-.8281 1.793-1.2421 3.223-1.2421.488 0 .871.0292 1.148.0878v1.4473c-.347-.0781-.691-.1172-1.031-.1172-.621 0-1.129.0938-1.523.2813-.391.1875-.684.4648-.879.832-.196.3672-.311.8887-.346 1.5645h.076c.387-.6641 1.006-.9961 1.857-.9961.766 0 1.366.2402 1.799.7207.434.4804.651 1.1445.651 1.9922 0 .914-.258 1.6386-.774 2.1738-.515.5312-1.23.7969-2.144.7969-.633 0-1.186-.1465-1.658-.4395-.469-.293-.832-.7207-1.09-1.2832-.254-.5625-.381-1.2402-.381-2.0332zm3.094 2.3086c.386 0 .683-.1289.89-.3867.207-.2617.311-.6328.311-1.1133 0-.418-.098-.7461-.293-.9844-.192-.2422-.483-.3633-.873-.3633-.367 0-.682.1192-.944.3575-.257.2382-.386.5156-.386.832 0 .4648.121.8574.363 1.1777.246.3203.557.4805.932.4805zm6.279 1.4473c-.769 0-1.375-.2989-1.816-.8965-.438-.5977-.657-1.4258-.657-2.4844 0-1.0742.223-1.9102.668-2.5078.45-.6016 1.067-.9024 1.852-.9024.824 0 1.453.3204 1.887.961h.058c-.09-.4883-.134-.9239-.134-1.3067v-2.0976h1.793v9.1172h-1.372l-.345-.8496h-.076c-.407.6445-1.026.9668-1.858.9668zm.627-1.4239c.457 0 .791-.1328 1.002-.3984.215-.2656.332-.7168.352-1.3535v-.1934c0-.7031-.11-1.207-.329-1.5117-.214-.3047-.566-.457-1.054-.457-.399 0-.709.1699-.932.5097-.219.336-.328.8262-.328 1.4707 0 .6446.111 1.1289.334 1.4532.223.3203.541.4804.955.4804zm8.418 1.4239c-.769 0-1.373-.2793-1.81-.8379h-.094c.063.5468.094.8632.094.9492v2.6543h-1.787v-9.4336h1.453l.252.8496h.082c.418-.6484 1.037-.9727 1.857-.9727.774 0 1.379.2989 1.817.8965.437.5977.656 1.4278.656 2.4903 0 .6992-.104 1.3066-.311 1.8222-.203.5156-.494.9082-.873 1.1778-.379.2695-.824.4043-1.336.4043zm-.527-5.3614c-.441 0-.764.1367-.967.4102-.203.2695-.308.7168-.316 1.3418v.1933c0 .7032.103 1.2071.31 1.5118.211.3046.543.457.996.457.801 0 1.202-.6602 1.202-1.9805 0-.6445-.1-1.1269-.299-1.4472-.196-.3243-.504-.4864-.926-.4864z" fill="#4091d2"/><path d="m862 0h88v142.333h-88z" fill="#6a6e79"/><path d="m862 1h88v40h-88z" fill="#464b52"/><path d="m881.447 26h-2.112v-4.3135h-3.958v4.3135h-2.119v-9.9941h2.119v3.917h3.958v-3.917h2.112zm5.447-6.3027c-.443 0-.789.1412-1.04.4238-.25.278-.394.6745-.43 1.1894h2.926c-.01-.5149-.144-.9114-.404-1.1894-.259-.2826-.61-.4238-1.052-.4238zm.293 6.4394c-1.23 0-2.192-.3395-2.884-1.0185-.693-.6791-1.039-1.6407-1.039-2.8848 0-1.2806.319-2.2695.957-2.9668.642-.7018 1.529-1.0527 2.659-1.0527 1.08 0 1.921.3076 2.522.9228.602.6153.903 1.4652.903 2.5498v1.0117h-4.929c.023.5925.198 1.0551.526 1.3877.328.3327.789.4991 1.381.4991.46 0 .896-.0479 1.306-.1436s.838-.2484 1.285-.458v1.6133c-.365.1823-.754.3167-1.169.4033-.415.0911-.921.1367-1.518.1367zm4.64-9.7549c0-.679.378-1.0185 1.135-1.0185.756 0 1.135.3395 1.135 1.0185 0 .3236-.096.5765-.287.7588-.187.1778-.47.2666-.848.2666-.757 0-1.135-.3418-1.135-1.0254zm2.174 9.6182h-2.085v-7.6426h2.085zm8.762-7.6426v1.0596l-1.197.3076c.219.3418.328.7246.328 1.1484 0 .8204-.287 1.4607-.861 1.9209-.57.4558-1.362.6836-2.379.6836l-.376-.0205-.307-.0341c-.215.164-.322.3463-.322.5468 0 .3008.383.4512 1.149.4512h1.299c.838 0 1.476.18 1.914.54.442.3601.663.8887.663 1.586 0 .8932-.374 1.5859-1.121 2.0781-.743.4922-1.812.7383-3.206.7383-1.067 0-1.883-.1869-2.448-.5606-.56-.3691-.84-.8886-.84-1.5586 0-.4602.143-.8453.43-1.1552s.709-.531 1.265-.6631c-.214-.0912-.401-.2393-.561-.4444-.159-.2096-.239-.4306-.239-.663 0-.2917.084-.5332.253-.7246.169-.196.412-.3874.731-.5743-.401-.1731-.72-.4511-.957-.834-.232-.3828-.348-.8339-.348-1.3535 0-.834.271-1.4788.813-1.9345.543-.4558 1.317-.6836 2.324-.6836.215 0 .468.0205.759.0615.296.0364.486.0638.568.082zm-5.9 8.7227c0 .2871.137.5127.41.6767.278.1641.666.2461 1.162.2461.748 0 1.334-.1025 1.757-.3076.424-.2051.636-.4853.636-.8408 0-.2871-.125-.4854-.376-.5947-.251-.1094-.638-.1641-1.162-.1641h-1.08c-.383 0-.704.0889-.964.2666-.255.1823-.383.4216-.383.7178zm.759-6.2207c0 .4147.093.7428.28.9844.192.2415.481.3623.868.3623.392 0 .679-.1208.862-.3623.182-.2416.273-.5697.273-.9844 0-.9206-.378-1.3809-1.135-1.3809-.765 0-1.148.4603-1.148 1.3809zm13.376 5.1406h-2.085v-4.4639c0-1.1028-.41-1.6543-1.23-1.6543-.584 0-1.005.1983-1.265.5948-.26.3964-.39 1.039-.39 1.9277v3.5957h-2.085v-10.6367h2.085v2.167c0 .1686-.016.5651-.048 1.1894l-.047.6153h.109c.465-.7474 1.203-1.1211 2.215-1.1211.898 0 1.579.2415 2.044.7246.465.483.697 1.1758.697 2.0781zm5.282-1.5244c.365 0 .802-.0798 1.313-.2393v1.5518c-.52.2324-1.158.3486-1.914.3486-.834 0-1.443-.2096-1.826-.6289-.378-.4238-.567-1.0573-.567-1.9004v-3.6845h-.998v-.8819l1.148-.6972.602-1.6133h1.333v1.6269h2.14v1.5655h-2.14v3.6845c0 .2962.082.515.246.6563.169.1412.39.2119.663.2119z" fill="#fff"/><path d="m862 42h88v99.333h-88z" fill="#171c1e"/><path d="m875.808 90.5622c1.052 0 1.88.262 2.481.7861.606.5195.909 1.2327.909 2.1396 0 1.0346-.33 1.8457-.991 2.4336-.656.5879-1.563.8819-2.721.8819-1.125 0-1.984-.18-2.577-.5401v-1.0937c.319.2051.716.3668 1.19.4853.474.114.941.1709 1.401.1709.802 0 1.424-.1891 1.866-.5673.447-.3783.67-.9252.67-1.6407 0-1.3945-.854-2.0918-2.563-2.0918-.433 0-1.012.0661-1.737.1983l-.588-.376.376-4.6758h4.97v1.0459h-3.999l-.253 3.001c.524-.1048 1.046-.1572 1.566-.1572zm4.92 1.832c0-1.9642.38-3.4316 1.141-4.4023.766-.9753 1.896-1.4629 3.391-1.4629.515 0 .92.0433 1.217.1298v.9776c-.351-.1139-.752-.1709-1.204-.1709-1.071 0-1.889.3349-2.454 1.0049-.565.6653-.875 1.7135-.929 3.1445h.082c.501-.7839 1.294-1.1758 2.379-1.1758.897 0 1.604.2712 2.119.8135.519.5423.779 1.2783.779 2.208 0 1.0391-.285 1.8571-.854 2.4541-.566.5925-1.331.8887-2.297.8887-1.035 0-1.855-.3874-2.461-1.1621-.606-.7793-.909-1.8617-.909-3.2471zm3.356 3.4453c.647 0 1.148-.2028 1.504-.6084.36-.4101.54-1.0003.54-1.7705 0-.6608-.166-1.1803-.499-1.5586-.333-.3782-.83-.5674-1.49-.5674-.411 0-.786.0843-1.128.253-.342.1686-.616.401-.821.6972-.2.2962-.3.6039-.3.9229 0 .4694.091.9069.273 1.3125s.44.7269.773.9638c.337.237.72.3555 1.148.3555zm10.074-.1777h-.061c-.524.761-1.308 1.1416-2.352 1.1416-.98 0-1.743-.335-2.29-1.0049-.542-.6699-.813-1.6224-.813-2.8574 0-1.2351.273-2.1944.82-2.878s1.308-1.0253 2.283-1.0253c1.016 0 1.796.3691 2.338 1.1074h.089l-.048-.5401-.027-.5263v-3.0489h1.134v10.6368h-.922zm-2.269.1914c.774 0 1.335-.2097 1.681-.6289.351-.4239.527-1.1052.527-2.044v-.2392c0-1.0619-.178-1.8184-.534-2.2696-.35-.4557-.913-.6836-1.688-.6836-.665 0-1.176.2598-1.531.7793-.351.515-.527 1.2442-.527 2.1875 0 .9571.176 1.6794.527 2.167.351.4877.866.7315 1.545.7315zm9.158.9502c-.488 0-.934-.0889-1.34-.2666-.401-.1823-.738-.4603-1.012-.834h-.082c.055.4375.082.8522.082 1.2441v3.0831h-1.135v-10.8555h.923l.158 1.0254h.054c.292-.4102.631-.7064 1.019-.8887.387-.1823.832-.2734 1.333-.2734.993 0 1.759.3395 2.297 1.0185.542.679.813 1.6315.813 2.8574 0 1.2305-.276 2.1875-.827 2.8711-.547.6791-1.308 1.0186-2.283 1.0186zm-.164-6.8018c-.766 0-1.32.2119-1.661.6358-.342.4238-.518 1.0983-.527 2.0234v.2529c0 1.0528.176 1.807.527 2.2627.351.4512.913.6768 1.688.6768.647 0 1.153-.2621 1.518-.7862.369-.524.553-1.2464.553-2.1669 0-.9343-.184-1.6498-.553-2.1465-.365-.5013-.88-.752-1.545-.752z" fill="#fff"/><path d="m951 0h136v142.333h-136z" fill="#6a6e79"/><path d="m951 1h136v40h-136z" fill="#464b52"/><path d="m970.393 16.0059v6.4668c0 .7382-.167 1.3854-.499 1.9414-.329.556-.805.9821-1.429 1.2783-.625.2962-1.363.4443-2.215.4443-1.285 0-2.283-.3281-2.994-.9844-.711-.6608-1.067-1.5631-1.067-2.707v-6.4394h2.113v6.1181c0 .7702.155 1.3353.465 1.6953.309.3601.822.5401 1.538.5401.692 0 1.194-.18 1.504-.5401.314-.3645.471-.9342.471-1.7089v-6.1045zm7.531 7.7246c0 .7838-.274 1.3808-.82 1.791-.543.4101-1.356.6152-2.441.6152-.556 0-1.03-.0387-1.422-.1162-.392-.0729-.759-.1823-1.1-.3281v-1.7227c.387.1823.822.335 1.305.458.488.1231.916.1846 1.285.1846.757 0 1.135-.2187 1.135-.6562 0-.1641-.05-.2963-.15-.3965-.1-.1048-.274-.2211-.52-.3487-.246-.1321-.574-.2848-.984-.458-.588-.2461-1.021-.4739-1.299-.6836-.273-.2096-.474-.4489-.601-.7177-.124-.2735-.185-.6084-.185-1.0049 0-.6791.262-1.2031.786-1.5723.529-.3737 1.276-.5605 2.242-.5605.921 0 1.816.2005 2.687.6015l-.629 1.5039c-.383-.164-.741-.2985-1.073-.4033-.333-.1048-.673-.1572-1.019-.1572-.615 0-.923.1663-.923.499 0 .1869.098.3486.294.4854.201.1367.636.3395 1.306.6084.597.2415 1.034.4671 1.312.6767.278.2097.483.4512.616.7246.132.2735.198.5993.198.9776zm4.708-4.0332c-.442 0-.789.1412-1.039.4238-.251.278-.394.6745-.431 1.1894h2.926c-.009-.5149-.144-.9114-.403-1.1894-.26-.2826-.611-.4238-1.053-.4238zm.294 6.4394c-1.231 0-2.192-.3395-2.885-1.0185-.693-.6791-1.039-1.6407-1.039-2.8848 0-1.2806.319-2.2695.957-2.9668.643-.7018 1.529-1.0527 2.659-1.0527 1.08 0 1.921.3076 2.523.9228.601.6153.902 1.4652.902 2.5498v1.0117h-4.929c.023.5925.198 1.0551.527 1.3877.328.3327.788.4991 1.38.4991.461 0 .896-.0479 1.306-.1436s.839-.2484 1.285-.458v1.6133c-.364.1823-.754.3167-1.169.4033-.414.0911-.92.1367-1.517.1367zm12.69-8.5107c-.797 0-1.415.3008-1.852.9023-.438.597-.657 1.431-.657 2.502 0 2.2285.837 3.3427 2.509 3.3427.702 0 1.552-.1754 2.55-.5263v1.7773c-.82.3418-1.736.5127-2.748.5127-1.454 0-2.566-.4398-3.336-1.3193-.77-.8841-1.155-2.1511-1.155-3.8008 0-1.0391.189-1.9482.567-2.7275.378-.7839.921-1.3832 1.627-1.7979.711-.4193 1.543-.6289 2.495-.6289.971 0 1.946.2347 2.926.7041l-.684 1.7227c-.373-.1778-.749-.3327-1.128-.4649-.378-.1321-.749-.1982-1.114-.1982zm9.284 8.374-.4-1.0391h-.05c-.35.4421-.72.7497-1.09.9229-.37.1686-.85.2529-1.45.2529-.73 0-1.31-.2096-1.74-.6289-.416-.4193-.625-1.0163-.625-1.791 0-.8112.282-1.4082.845-1.791.57-.3874 1.43-.6016 2.57-.6426l1.33-.041v-.335c0-.7747-.4-1.1621-1.19-1.1621-.61 0-1.33.1846-2.15.5537l-.69-1.4082c.88-.4603 1.85-.6904 2.92-.6904 1.03 0 1.81.2233 2.36.6699s.82 1.1257.82 2.0371v5.0928zm-.61-3.541-.81.0273c-.6.0183-1.05.1276-1.35.3282-.3.2005-.45.5058-.45.916 0 .5879.34.8818 1.02.8818.48 0 .86-.139 1.15-.417s.44-.6471.44-1.1074zm9.47 1.2715c0 .7838-.27 1.3808-.82 1.791-.54.4101-1.35.6152-2.44.6152-.56 0-1.03-.0387-1.42-.1162-.39-.0729-.76-.1823-1.1-.3281v-1.7227c.39.1823.82.335 1.3.458.49.1231.92.1846 1.29.1846.76 0 1.13-.2187 1.13-.6562 0-.1641-.05-.2963-.15-.3965-.1-.1048-.27-.2211-.52-.3487-.24-.1321-.57-.2848-.98-.458-.59-.2461-1.02-.4739-1.3-.6836-.27-.2096-.47-.4489-.6-.7177-.12-.2735-.19-.6084-.19-1.0049 0-.6791.27-1.2031.79-1.5723.53-.3737 1.28-.5605 2.24-.5605.92 0 1.82.2005 2.69.6015l-.63 1.5039c-.38-.164-.74-.2985-1.07-.4033-.34-.1048-.67-.1572-1.02-.1572-.62 0-.92.1663-.92.499 0 .1869.09.3486.29.4854.2.1367.64.3395 1.31.6084.59.2415 1.03.4671 1.31.6767.28.2097.48.4512.61.7246.14.2735.2.5993.2.9776zm4.71-4.0332c-.44 0-.79.1412-1.04.4238-.25.278-.39.6745-.43 1.1894h2.93c-.01-.5149-.15-.9114-.41-1.1894-.26-.2826-.61-.4238-1.05-.4238zm.29 6.4394c-1.23 0-2.19-.3395-2.88-1.0185-.69-.6791-1.04-1.6407-1.04-2.8848 0-1.2806.32-2.2695.96-2.9668.64-.7018 1.53-1.0527 2.66-1.0527 1.08 0 1.92.3076 2.52.9228.6.6153.9 1.4652.9 2.5498v1.0117h-4.93c.02.5925.2 1.0551.53 1.3877.33.3327.79.4991 1.38.4991.46 0 .89-.0479 1.3-.1436.42-.0957.84-.2484 1.29-.458v1.6133c-.36.1823-.75.3167-1.17.4033-.41.0911-.92.1367-1.52.1367z" fill="#fff"/><path d="m951 42h136v99.333h-136z" fill="#171c1e"/><path d="m962.374 96.6667v-9.9942h1.162v8.9414h4.409v1.0528zm8.153 0h-1.134v-7.4922h1.134zm-1.23-9.5225c0-.2598.064-.4489.191-.5674.128-.123.287-.1846.479-.1846.182 0 .339.0616.471.1846.133.1231.199.3122.199.5674s-.066.4466-.199.5742c-.132.1231-.289.1846-.471.1846-.192 0-.351-.0615-.479-.1846-.127-.1276-.191-.319-.191-.5742zm8.386 7.4785c0 .6973-.26 1.235-.78 1.6133-.519.3782-1.248.5674-2.187.5674-.994 0-1.768-.1573-2.324-.4717v-1.0527c.36.1823.745.3258 1.155.4306.415.1048.813.1573 1.196.1573.593 0 1.048-.0935 1.367-.2803.319-.1914.479-.4808.479-.8682 0-.2917-.128-.54-.383-.7451-.251-.2096-.743-.4557-1.477-.7383-.697-.2597-1.194-.4853-1.49-.6767-.291-.196-.51-.417-.656-.6631-.141-.2461-.212-.5401-.212-.8819 0-.6106.248-1.0914.745-1.4423.497-.3555 1.178-.5332 2.044-.5332.807 0 1.595.164 2.365.4921l-.403.9229c-.752-.3099-1.433-.4649-2.044-.4649-.538 0-.943.0844-1.217.253-.273.1686-.41.401-.41.6972 0 .2006.05.3715.151.5127.104.1413.271.2758.499.4034.227.1276.665.3121 1.312.5537.889.3235 1.488.6494 1.798.9775.314.3281.472.7406.472 1.2373zm4.188 1.2442c.201 0 .394-.0137.581-.0411.187-.0319.335-.0638.444-.0957v.8682c-.123.0592-.305.1071-.546.1436-.237.041-.452.0615-.643.0615-1.449 0-2.174-.7634-2.174-2.2901v-4.457h-1.073v-.5469l1.073-.4716.479-1.5997h.656v1.7364h2.174v.8818h-2.174v4.4092c0 .4512.107.7975.321 1.039.214.2416.508.3624.882.3624z" fill="#fff"/></svg>