<svg width="475" height="61" viewBox="0 0 475 61" fill="none" xmlns="http://www.w3.org/2000/svg">
<rect width="199" height="16" transform="translate(206 25)" fill="#171C1E"/>
<rect x="214" y="29" width="141" height="8" rx="4" fill="#A3A6B1"/>
<path d="M415 25H424V41H415" stroke="#4091D2"/>
<path d="M433.957 38H432.146V33.043L432.164 32.2285L432.193 31.3379C431.893 31.6387 431.684 31.8359 431.566 31.9297L430.582 32.7207L429.709 31.6309L432.469 29.4336H433.957V38ZM436.205 34.3613C436.205 32.666 436.563 31.4043 437.278 30.5762C437.996 29.748 439.071 29.334 440.5 29.334C440.989 29.334 441.371 29.3633 441.649 29.4219V30.8691C441.301 30.791 440.957 30.752 440.617 30.752C439.996 30.752 439.489 30.8457 439.094 31.0332C438.703 31.2207 438.41 31.498 438.215 31.8652C438.02 32.2324 437.905 32.7539 437.869 33.4297H437.946C438.332 32.7656 438.951 32.4336 439.803 32.4336C440.569 32.4336 441.168 32.6738 441.602 33.1543C442.035 33.6348 442.252 34.2988 442.252 35.1465C442.252 36.0605 441.994 36.7852 441.479 37.3203C440.963 37.8516 440.248 38.1172 439.334 38.1172C438.701 38.1172 438.149 37.9707 437.676 37.6777C437.207 37.3848 436.844 36.957 436.586 36.3945C436.332 35.832 436.205 35.1543 436.205 34.3613ZM439.299 36.6699C439.686 36.6699 439.983 36.541 440.19 36.2832C440.397 36.0215 440.5 35.6504 440.5 35.1699C440.5 34.752 440.403 34.4238 440.207 34.1855C440.016 33.9434 439.725 33.8223 439.334 33.8223C438.967 33.8223 438.653 33.9414 438.391 34.1797C438.133 34.418 438.004 34.6953 438.004 35.0117C438.004 35.4766 438.125 35.8691 438.367 36.1895C438.614 36.5098 438.924 36.6699 439.299 36.6699ZM445.579 38.1172C444.809 38.1172 444.204 37.8184 443.762 37.2207C443.325 36.623 443.106 35.7949 443.106 34.7363C443.106 33.6621 443.329 32.8262 443.774 32.2285C444.223 31.627 444.84 31.3262 445.626 31.3262C446.45 31.3262 447.079 31.6465 447.512 32.2871H447.571C447.481 31.7988 447.436 31.3633 447.436 30.9805V28.8828H449.229V38H447.858L447.512 37.1504H447.436C447.03 37.7949 446.411 38.1172 445.579 38.1172ZM446.206 36.6934C446.663 36.6934 446.997 36.5605 447.208 36.2949C447.422 36.0293 447.54 35.5781 447.559 34.9414V34.748C447.559 34.0449 447.45 33.541 447.231 33.2363C447.016 32.9316 446.665 32.7793 446.176 32.7793C445.778 32.7793 445.467 32.9492 445.245 33.2891C445.026 33.625 444.917 34.1152 444.917 34.7598C444.917 35.4043 445.028 35.8887 445.251 36.2129C445.473 36.5332 445.792 36.6934 446.206 36.6934ZM454.624 38.1172C453.854 38.1172 453.251 37.8379 452.813 37.2793H452.72C452.782 37.8262 452.813 38.1426 452.813 38.2285V40.8828H451.026V31.4492H452.479L452.731 32.2988H452.813C453.231 31.6504 453.85 31.3262 454.671 31.3262C455.444 31.3262 456.05 31.625 456.487 32.2227C456.925 32.8203 457.143 33.6504 457.143 34.7129C457.143 35.4121 457.04 36.0195 456.833 36.5352C456.63 37.0508 456.339 37.4434 455.96 37.7129C455.581 37.9824 455.136 38.1172 454.624 38.1172ZM454.097 32.7559C453.655 32.7559 453.333 32.8926 453.13 33.166C452.927 33.4355 452.821 33.8828 452.813 34.5078V34.7012C452.813 35.4043 452.917 35.9082 453.124 36.2129C453.335 36.5176 453.667 36.6699 454.12 36.6699C454.921 36.6699 455.321 36.0098 455.321 34.6895C455.321 34.0449 455.222 33.5625 455.022 33.2422C454.827 32.918 454.518 32.7559 454.097 32.7559Z" fill="#4091D2"/>
<path d="M203 30H191V38H203" stroke="#4091D2"/>
<path d="M160.434 29.3223C161.254 29.3223 161.914 29.5098 162.414 29.8848C162.918 30.2559 163.17 30.7578 163.17 31.3906C163.17 31.8281 163.049 32.2188 162.807 32.5625C162.564 32.9023 162.174 33.207 161.635 33.4766C162.275 33.8203 162.734 34.1797 163.012 34.5547C163.293 34.9258 163.434 35.334 163.434 35.7793C163.434 36.4824 163.158 37.0488 162.607 37.4785C162.057 37.9043 161.332 38.1172 160.434 38.1172C159.496 38.1172 158.76 37.918 158.225 37.5195C157.689 37.1211 157.422 36.5566 157.422 35.8262C157.422 35.3379 157.551 34.9043 157.809 34.5254C158.07 34.1465 158.488 33.8125 159.062 33.5234C158.574 33.2148 158.223 32.8848 158.008 32.5332C157.793 32.1816 157.686 31.7969 157.686 31.3789C157.686 30.7656 157.939 30.2695 158.447 29.8906C158.955 29.5117 159.617 29.3223 160.434 29.3223ZM159.098 35.7207C159.098 36.0566 159.215 36.3184 159.449 36.5059C159.684 36.6934 160.004 36.7871 160.41 36.7871C160.859 36.7871 161.195 36.6914 161.418 36.5C161.641 36.3047 161.752 36.0488 161.752 35.7324C161.752 35.4707 161.641 35.2266 161.418 35C161.199 34.7695 160.842 34.5254 160.346 34.2676C159.514 34.6504 159.098 35.1348 159.098 35.7207ZM160.422 30.6465C160.113 30.6465 159.863 30.7266 159.672 30.8867C159.484 31.043 159.391 31.2539 159.391 31.5195C159.391 31.7539 159.465 31.9648 159.613 32.1523C159.766 32.3359 160.039 32.5254 160.434 32.7207C160.816 32.541 161.084 32.3574 161.236 32.1699C161.389 31.9824 161.465 31.7656 161.465 31.5195C161.465 31.25 161.367 31.0371 161.172 30.8809C160.977 30.7246 160.727 30.6465 160.422 30.6465ZM169.84 38.1172C169.071 38.1172 168.465 37.8184 168.024 37.2207C167.586 36.623 167.368 35.7949 167.368 34.7363C167.368 33.6621 167.59 32.8262 168.036 32.2285C168.485 31.627 169.102 31.3262 169.887 31.3262C170.711 31.3262 171.34 31.6465 171.774 32.2871H171.833C171.743 31.7988 171.698 31.3633 171.698 30.9805V28.8828H173.491V38H172.12L171.774 37.1504H171.698C171.292 37.7949 170.672 38.1172 169.84 38.1172ZM170.467 36.6934C170.924 36.6934 171.258 36.5605 171.469 36.2949C171.684 36.0293 171.801 35.5781 171.821 34.9414V34.748C171.821 34.0449 171.711 33.541 171.493 33.2363C171.278 32.9316 170.926 32.7793 170.438 32.7793C170.04 32.7793 169.729 32.9492 169.506 33.2891C169.288 33.625 169.178 34.1152 169.178 34.7598C169.178 35.4043 169.29 35.8887 169.512 36.2129C169.735 36.5332 170.053 36.6934 170.467 36.6934ZM178.886 38.1172C178.116 38.1172 177.513 37.8379 177.075 37.2793H176.981C177.044 37.8262 177.075 38.1426 177.075 38.2285V40.8828H175.288V31.4492H176.741L176.993 32.2988H177.075C177.493 31.6504 178.112 31.3262 178.932 31.3262C179.706 31.3262 180.311 31.625 180.749 32.2227C181.186 32.8203 181.405 33.6504 181.405 34.7129C181.405 35.4121 181.302 36.0195 181.095 36.5352C180.891 37.0508 180.6 37.4434 180.222 37.7129C179.843 37.9824 179.397 38.1172 178.886 38.1172ZM178.358 32.7559C177.917 32.7559 177.595 32.8926 177.391 33.166C177.188 33.4355 177.083 33.8828 177.075 34.5078V34.7012C177.075 35.4043 177.179 35.9082 177.386 36.2129C177.597 36.5176 177.929 36.6699 178.382 36.6699C179.182 36.6699 179.583 36.0098 179.583 34.6895C179.583 34.0449 179.483 33.5625 179.284 33.2422C179.089 32.918 178.78 32.7559 178.358 32.7559Z" fill="#4091D2"/>
<rect x="206" y="24" width="8" height="19" fill="#FFB3FF" fill-opacity="0.4"/>
<path d="M203.281 5.67188C203.281 5.22982 203.203 4.83789 203.048 4.49609C202.893 4.14974 202.681 3.86035 202.412 3.62793C202.134 3.39095 201.809 3.21322 201.435 3.09473C201.066 2.97168 200.662 2.91016 200.225 2.91016C199.783 2.91016 199.375 2.97168 199.001 3.09473C198.632 3.21322 198.315 3.39095 198.051 3.62793C197.782 3.86491 197.57 4.1543 197.415 4.49609C197.265 4.83789 197.19 5.22982 197.19 5.67188C197.19 5.91797 197.224 6.15267 197.292 6.37598C197.361 6.59928 197.456 6.80436 197.579 6.99121C197.698 7.1735 197.841 7.33984 198.01 7.49023C198.183 7.64062 198.375 7.76823 198.584 7.87305C198.338 7.98698 198.115 8.12598 197.914 8.29004C197.718 8.44954 197.55 8.62956 197.409 8.83008C197.267 9.03971 197.158 9.26758 197.08 9.51367C197.008 9.75977 196.971 10.0195 196.971 10.293C196.971 10.7578 197.053 11.168 197.217 11.5234C197.386 11.8743 197.618 12.1683 197.914 12.4053C198.206 12.6468 198.55 12.8291 198.947 12.9521C199.348 13.0752 199.781 13.1367 200.245 13.1367C200.701 13.1367 201.125 13.0752 201.517 12.9521C201.913 12.8291 202.26 12.6468 202.556 12.4053C202.848 12.1683 203.078 11.8721 203.246 11.5166C203.415 11.1611 203.499 10.7533 203.499 10.293C203.499 9.9694 203.447 9.66862 203.342 9.39062C203.237 9.11263 203.091 8.86426 202.905 8.64551C202.772 8.48145 202.618 8.33789 202.44 8.21484C202.267 8.08724 202.078 7.97559 201.872 7.87988C202.046 7.79329 202.203 7.69303 202.344 7.5791C202.485 7.46517 202.611 7.34212 202.72 7.20996C202.898 7.00488 203.035 6.77246 203.13 6.5127C203.23 6.25293 203.281 5.97266 203.281 5.67188ZM201.866 10.2041C201.866 10.4593 201.825 10.6872 201.743 10.8877C201.661 11.0837 201.551 11.2523 201.414 11.3936C201.269 11.5303 201.095 11.6351 200.895 11.708C200.699 11.7809 200.482 11.8174 200.245 11.8174C199.995 11.8174 199.769 11.7832 199.569 11.7148C199.373 11.6419 199.204 11.5394 199.063 11.4072C198.917 11.2705 198.805 11.1019 198.728 10.9014C198.65 10.6963 198.612 10.4661 198.612 10.2109C198.612 9.96029 198.648 9.7347 198.721 9.53418C198.799 9.3291 198.908 9.15137 199.049 9.00098C199.19 8.8597 199.359 8.75033 199.555 8.67285C199.756 8.59538 199.981 8.55664 200.232 8.55664C200.473 8.55664 200.694 8.59538 200.895 8.67285C201.095 8.75033 201.269 8.8597 201.414 9.00098C201.556 9.15137 201.665 9.3291 201.743 9.53418C201.825 9.7347 201.866 9.95801 201.866 10.2041ZM201.654 5.7334C201.654 5.95671 201.619 6.16178 201.551 6.34863C201.483 6.53092 201.387 6.68587 201.264 6.81348C201.141 6.94564 200.993 7.04818 200.82 7.12109C200.647 7.19401 200.453 7.23047 200.239 7.23047C200.024 7.23047 199.831 7.19401 199.658 7.12109C199.484 7.04818 199.336 6.94564 199.213 6.81348C199.086 6.68587 198.99 6.53092 198.926 6.34863C198.862 6.16178 198.83 5.95671 198.83 5.7334C198.83 5.50553 198.862 5.29818 198.926 5.11133C198.99 4.92448 199.081 4.76725 199.2 4.63965C199.323 4.51204 199.468 4.41406 199.637 4.3457C199.81 4.27279 200.004 4.23633 200.218 4.23633C200.437 4.23633 200.633 4.27279 200.806 4.3457C200.979 4.41862 201.13 4.51888 201.257 4.64648C201.38 4.7832 201.476 4.94271 201.544 5.125C201.617 5.30729 201.654 5.51009 201.654 5.7334ZM205.137 9.24707V9.39062C205.137 9.92383 205.205 10.4206 205.342 10.8809C205.479 11.3366 205.672 11.7308 205.923 12.0635C206.174 12.4007 206.479 12.665 206.839 12.8564C207.199 13.0433 207.604 13.1367 208.056 13.1367C208.484 13.1367 208.862 13.0592 209.19 12.9043C209.519 12.7448 209.801 12.5192 210.038 12.2275L210.113 13H211.597V2.5H209.963V6.29395C209.726 6.02962 209.452 5.82682 209.143 5.68555C208.837 5.53971 208.479 5.4668 208.069 5.4668C207.614 5.4668 207.203 5.56022 206.839 5.74707C206.479 5.92936 206.174 6.18685 205.923 6.51953C205.668 6.85221 205.472 7.25098 205.335 7.71582C205.203 8.17611 205.137 8.68652 205.137 9.24707ZM206.771 9.39062V9.24707C206.771 8.91439 206.802 8.60221 206.866 8.31055C206.93 8.01432 207.033 7.75456 207.174 7.53125C207.306 7.30794 207.479 7.13249 207.693 7.00488C207.912 6.87728 208.174 6.81348 208.479 6.81348C208.844 6.81348 209.145 6.89551 209.382 7.05957C209.623 7.21908 209.817 7.43555 209.963 7.70898V10.8877C209.817 11.1657 209.623 11.3867 209.382 11.5508C209.14 11.7103 208.835 11.79 208.466 11.79C208.165 11.79 207.908 11.7285 207.693 11.6055C207.479 11.4779 207.304 11.3024 207.167 11.0791C207.03 10.8649 206.93 10.612 206.866 10.3203C206.802 10.0286 206.771 9.71875 206.771 9.39062ZM213.637 15.8438H215.271V12.3301C215.358 12.4258 215.451 12.5146 215.551 12.5967C215.652 12.6787 215.756 12.7516 215.866 12.8154C216.053 12.9202 216.256 13 216.474 13.0547C216.698 13.1094 216.941 13.1367 217.206 13.1367C217.671 13.1367 218.083 13.041 218.443 12.8496C218.803 12.6582 219.106 12.3939 219.352 12.0566C219.598 11.724 219.783 11.3275 219.906 10.8672C220.034 10.4069 220.097 9.91016 220.097 9.37695V9.2334C220.097 8.67741 220.034 8.16927 219.906 7.70898C219.778 7.24414 219.594 6.84538 219.352 6.5127C219.106 6.18001 218.801 5.92253 218.436 5.74023C218.076 5.55794 217.659 5.4668 217.185 5.4668C216.944 5.4668 216.716 5.49414 216.502 5.54883C216.287 5.59896 216.091 5.67188 215.914 5.76758C215.777 5.84049 215.649 5.92708 215.531 6.02734C215.412 6.1276 215.303 6.23926 215.203 6.3623L215.141 5.60352H213.637V15.8438ZM218.464 9.2334V9.37695C218.464 9.70508 218.432 10.0173 218.368 10.3135C218.304 10.6051 218.201 10.8649 218.06 11.0928C217.923 11.3161 217.746 11.4938 217.527 11.626C217.313 11.7536 217.053 11.8174 216.748 11.8174C216.561 11.8174 216.39 11.7969 216.235 11.7559C216.08 11.7103 215.941 11.651 215.818 11.5781C215.7 11.5007 215.595 11.4095 215.504 11.3047C215.412 11.1999 215.335 11.0837 215.271 10.9561V7.66797C215.344 7.53125 215.428 7.4082 215.524 7.29883C215.624 7.18945 215.741 7.09831 215.873 7.02539C215.987 6.95703 216.117 6.90462 216.262 6.86816C216.408 6.83171 216.565 6.81348 216.734 6.81348C217.039 6.81348 217.301 6.87728 217.52 7.00488C217.739 7.13249 217.919 7.30566 218.06 7.52441C218.197 7.74316 218.297 8.00065 218.361 8.29688C218.429 8.58854 218.464 8.90072 218.464 9.2334Z" fill="#E8178A"/>
<path d="M11.0781 28.4336H13.7441C14.959 28.4336 15.8398 28.6074 16.3867 28.9551C16.9375 29.2988 17.2129 29.8477 17.2129 30.6016C17.2129 31.1133 17.0918 31.5332 16.8496 31.8613C16.6113 32.1895 16.293 32.3867 15.8945 32.4531V32.5117C16.4375 32.6328 16.8281 32.8594 17.0664 33.1914C17.3086 33.5234 17.4297 33.9648 17.4297 34.5156C17.4297 35.2969 17.1465 35.9062 16.5801 36.3438C16.0176 36.7812 15.252 37 14.2832 37H11.0781V28.4336ZM12.8945 31.8262H13.9492C14.4414 31.8262 14.7969 31.75 15.0156 31.5977C15.2383 31.4453 15.3496 31.1934 15.3496 30.8418C15.3496 30.5137 15.2285 30.2793 14.9863 30.1387C14.748 29.9941 14.3691 29.9219 13.8496 29.9219H12.8945V31.8262ZM12.8945 33.2676V35.5H14.0781C14.5781 35.5 14.9473 35.4043 15.1855 35.2129C15.4238 35.0215 15.543 34.7285 15.543 34.334C15.543 33.623 15.0352 33.2676 14.0195 33.2676H12.8945ZM20.3518 33.7129C20.3518 34.3613 20.4573 34.8516 20.6682 35.1836C20.8831 35.5156 21.2307 35.6816 21.7112 35.6816C22.1878 35.6816 22.5296 35.5176 22.7366 35.1895C22.9475 34.8574 23.053 34.3652 23.053 33.7129C23.053 33.0645 22.9475 32.5781 22.7366 32.2539C22.5257 31.9297 22.18 31.7676 21.6995 31.7676C21.2229 31.7676 20.8792 31.9297 20.6682 32.2539C20.4573 32.5742 20.3518 33.0605 20.3518 33.7129ZM24.8811 33.7129C24.8811 34.7793 24.5999 35.6133 24.0374 36.2148C23.4749 36.8164 22.6917 37.1172 21.6878 37.1172C21.0589 37.1172 20.5042 36.9805 20.0237 36.707C19.5432 36.4297 19.1741 36.0332 18.9163 35.5176C18.6585 35.002 18.5296 34.4004 18.5296 33.7129C18.5296 32.6426 18.8089 31.8105 19.3675 31.2168C19.926 30.623 20.7112 30.3262 21.7229 30.3262C22.3518 30.3262 22.9065 30.4629 23.387 30.7363C23.8675 31.0098 24.2366 31.4023 24.4944 31.9141C24.7522 32.4258 24.8811 33.0254 24.8811 33.7129ZM29.9419 30.3262C30.1841 30.3262 30.3853 30.3438 30.5455 30.3789L30.4107 32.0547C30.2662 32.0156 30.0904 31.9961 29.8833 31.9961C29.313 31.9961 28.8677 32.1426 28.5474 32.4355C28.231 32.7285 28.0728 33.1387 28.0728 33.666V37H26.2857V30.4492H27.6392L27.9029 31.5508H27.9908C28.1939 31.1836 28.4673 30.8887 28.8111 30.666C29.1587 30.4395 29.5357 30.3262 29.9419 30.3262ZM33.7371 37.1172C32.9676 37.1172 32.3621 36.8184 31.9207 36.2207C31.4832 35.623 31.2645 34.7949 31.2645 33.7363C31.2645 32.6621 31.4871 31.8262 31.9324 31.2285C32.3817 30.627 32.9988 30.3262 33.784 30.3262C34.6082 30.3262 35.2371 30.6465 35.6707 31.2871H35.7293C35.6395 30.7988 35.5945 30.3633 35.5945 29.9805V27.8828H37.3875V37H36.0164L35.6707 36.1504H35.5945C35.1883 36.7949 34.5692 37.1172 33.7371 37.1172ZM34.3641 35.6934C34.8211 35.6934 35.1551 35.5605 35.366 35.2949C35.5809 35.0293 35.6981 34.5781 35.7176 33.9414V33.748C35.7176 33.0449 35.6082 32.541 35.3895 32.2363C35.1746 31.9316 34.8231 31.7793 34.3348 31.7793C33.9363 31.7793 33.6258 31.9492 33.4031 32.2891C33.1844 32.625 33.075 33.1152 33.075 33.7598C33.075 34.4043 33.1863 34.8887 33.409 35.2129C33.6317 35.5332 33.95 35.6934 34.3641 35.6934ZM41.8975 31.5977C41.5186 31.5977 41.2218 31.7188 41.0069 31.9609C40.7921 32.1992 40.669 32.5391 40.6378 32.9805H43.1456C43.1378 32.5391 43.0225 32.1992 42.7999 31.9609C42.5772 31.7188 42.2765 31.5977 41.8975 31.5977ZM42.1495 37.1172C41.0948 37.1172 40.2706 36.8262 39.6768 36.2441C39.0831 35.6621 38.7862 34.8379 38.7862 33.7715C38.7862 32.6738 39.0597 31.8262 39.6065 31.2285C40.1573 30.627 40.9171 30.3262 41.8858 30.3262C42.8116 30.3262 43.5323 30.5898 44.0479 31.1172C44.5636 31.6445 44.8214 32.373 44.8214 33.3027V34.1699H40.5968C40.6163 34.6777 40.7667 35.0742 41.0479 35.3594C41.3292 35.6445 41.7237 35.7871 42.2315 35.7871C42.6261 35.7871 42.9991 35.7461 43.3507 35.6641C43.7022 35.582 44.0694 35.4512 44.4522 35.2715V36.6543C44.1397 36.8105 43.8057 36.9258 43.4503 37C43.0948 37.0781 42.6612 37.1172 42.1495 37.1172ZM49.8587 30.3262C50.1009 30.3262 50.3021 30.3438 50.4623 30.3789L50.3275 32.0547C50.183 32.0156 50.0072 31.9961 49.8002 31.9961C49.2298 31.9961 48.7845 32.1426 48.4642 32.4355C48.1478 32.7285 47.9896 33.1387 47.9896 33.666V37H46.2025V30.4492H47.556L47.8197 31.5508H47.9076C48.1107 31.1836 48.3841 30.8887 48.7279 30.666C49.0755 30.4395 49.4525 30.3262 49.8587 30.3262ZM50.9996 34.5156V33.0508H54.1461V34.5156H50.9996ZM59.0312 30.3262C59.2733 30.3262 59.4745 30.3438 59.6347 30.3789L59.4999 32.0547C59.3554 32.0156 59.1796 31.9961 58.9726 31.9961C58.4022 31.9961 57.9569 32.1426 57.6366 32.4355C57.3202 32.7285 57.162 33.1387 57.162 33.666V37H55.3749V30.4492H56.7284L56.9921 31.5508H57.08C57.2831 31.1836 57.5565 30.8887 57.9003 30.666C58.248 30.4395 58.6249 30.3262 59.0312 30.3262ZM64.9123 37L64.5666 36.1094H64.5197C64.2189 36.4883 63.9084 36.752 63.5881 36.9004C63.2717 37.0449 62.8576 37.1172 62.3459 37.1172C61.717 37.1172 61.2209 36.9375 60.8576 36.5781C60.4982 36.2188 60.3185 35.707 60.3185 35.043C60.3185 34.3477 60.5607 33.8359 61.0451 33.5078C61.5334 33.1758 62.2677 32.9922 63.2482 32.957L64.3849 32.9219V32.6348C64.3849 31.9707 64.0451 31.6387 63.3654 31.6387C62.842 31.6387 62.2267 31.7969 61.5197 32.1133L60.9279 30.9062C61.6818 30.5117 62.5177 30.3145 63.4357 30.3145C64.3146 30.3145 64.9885 30.5059 65.4572 30.8887C65.926 31.2715 66.1603 31.8535 66.1603 32.6348V37H64.9123ZM64.3849 33.9648L63.6935 33.9883C63.174 34.0039 62.7873 34.0977 62.5334 34.2695C62.2795 34.4414 62.1525 34.7031 62.1525 35.0547C62.1525 35.5586 62.4416 35.8105 63.0197 35.8105C63.4338 35.8105 63.7638 35.6914 64.0099 35.4531C64.2599 35.2148 64.3849 34.8984 64.3849 34.5039V33.9648ZM70.0083 37.1172C69.2387 37.1172 68.6333 36.8184 68.1918 36.2207C67.7543 35.623 67.5356 34.7949 67.5356 33.7363C67.5356 32.6621 67.7583 31.8262 68.2036 31.2285C68.6528 30.627 69.27 30.3262 70.0551 30.3262C70.8793 30.3262 71.5083 30.6465 71.9418 31.2871H72.0004C71.9106 30.7988 71.8657 30.3633 71.8657 29.9805V27.8828H73.6586V37H72.2875L71.9418 36.1504H71.8657C71.4594 36.7949 70.8403 37.1172 70.0083 37.1172ZM70.6352 35.6934C71.0922 35.6934 71.4262 35.5605 71.6372 35.2949C71.852 35.0293 71.9692 34.5781 71.9887 33.9414V33.748C71.9887 33.0449 71.8793 32.541 71.6606 32.2363C71.4458 31.9316 71.0942 31.7793 70.6059 31.7793C70.2075 31.7793 69.8969 31.9492 69.6743 32.2891C69.4555 32.625 69.3461 33.1152 69.3461 33.7598C69.3461 34.4043 69.4575 34.8887 69.6801 35.2129C69.9028 35.5332 70.2211 35.6934 70.6352 35.6934ZM75.3796 28.7559C75.3796 28.1738 75.7038 27.8828 76.3523 27.8828C77.0007 27.8828 77.3249 28.1738 77.3249 28.7559C77.3249 29.0332 77.2429 29.25 77.0788 29.4062C76.9187 29.5586 76.6765 29.6348 76.3523 29.6348C75.7038 29.6348 75.3796 29.3418 75.3796 28.7559ZM77.2429 37H75.4558V30.4492H77.2429V37ZM83.6924 37L83.4521 36.1621H83.3584C83.167 36.4668 82.8955 36.7031 82.5439 36.8711C82.1924 37.0352 81.792 37.1172 81.3428 37.1172C80.5732 37.1172 79.9932 36.9121 79.6025 36.502C79.2119 36.0879 79.0166 35.4941 79.0166 34.7207V30.4492H80.8037V34.2754C80.8037 34.748 80.8877 35.1035 81.0557 35.3418C81.2236 35.5762 81.4912 35.6934 81.8584 35.6934C82.3584 35.6934 82.7197 35.5273 82.9424 35.1953C83.165 34.8594 83.2764 34.3047 83.2764 33.5312V30.4492H85.0635V37H83.6924ZM91.4368 35.0547C91.4368 35.7266 91.2024 36.2383 90.7337 36.5898C90.2688 36.9414 89.5715 37.1172 88.6419 37.1172C88.1653 37.1172 87.759 37.084 87.4231 37.0176C87.0872 36.9551 86.7727 36.8613 86.4798 36.7363V35.2598C86.8118 35.416 87.1848 35.5469 87.5989 35.6523C88.0169 35.7578 88.384 35.8105 88.7005 35.8105C89.3489 35.8105 89.6731 35.623 89.6731 35.248C89.6731 35.1074 89.6301 34.9941 89.5442 34.9082C89.4583 34.8184 89.3098 34.7188 89.0989 34.6094C88.888 34.4961 88.6067 34.3652 88.2551 34.2168C87.7512 34.0059 87.3801 33.8105 87.1419 33.6309C86.9075 33.4512 86.7356 33.2461 86.6262 33.0156C86.5208 32.7812 86.468 32.4941 86.468 32.1543C86.468 31.5723 86.6926 31.123 87.1419 30.8066C87.595 30.4863 88.2356 30.3262 89.0637 30.3262C89.8528 30.3262 90.6204 30.498 91.3665 30.8418L90.8274 32.1309C90.4993 31.9902 90.1926 31.875 89.9075 31.7852C89.6223 31.6953 89.3313 31.6504 89.0344 31.6504C88.5071 31.6504 88.2434 31.793 88.2434 32.0781C88.2434 32.2383 88.3274 32.377 88.4954 32.4941C88.6673 32.6113 89.0403 32.7852 89.6145 33.0156C90.1262 33.2227 90.5012 33.416 90.7395 33.5957C90.9778 33.7754 91.1536 33.9824 91.2669 34.2168C91.3801 34.4512 91.4368 34.7305 91.4368 35.0547ZM92.5074 36.1621C92.5074 35.834 92.5953 35.5859 92.771 35.418C92.9468 35.25 93.2027 35.166 93.5386 35.166C93.8628 35.166 94.1128 35.252 94.2886 35.4238C94.4683 35.5957 94.5581 35.8418 94.5581 36.1621C94.5581 36.4707 94.4683 36.7148 94.2886 36.8945C94.1089 37.0703 93.8589 37.1582 93.5386 37.1582C93.2105 37.1582 92.9566 37.0723 92.7769 36.9004C92.5972 36.7246 92.5074 36.4785 92.5074 36.1621ZM92.5074 31.3223C92.5074 30.9941 92.5953 30.7461 92.771 30.5781C92.9468 30.4102 93.2027 30.3262 93.5386 30.3262C93.8628 30.3262 94.1128 30.4121 94.2886 30.584C94.4683 30.7559 94.5581 31.002 94.5581 31.3223C94.5581 31.6387 94.4663 31.8848 94.2828 32.0605C94.1031 32.2324 93.855 32.3184 93.5386 32.3184C93.2105 32.3184 92.9566 32.2324 92.7769 32.0605C92.5972 31.8887 92.5074 31.6426 92.5074 31.3223ZM104.111 30.4492C104.111 30.9961 103.957 31.4434 103.649 31.791C103.344 32.1387 102.91 32.3711 102.348 32.4883V32.5352C103.035 32.6211 103.545 32.8398 103.877 33.1914C104.209 33.543 104.375 34.0039 104.375 34.5742C104.375 35.3906 104.092 36.0195 103.525 36.4609C102.959 36.8984 102.154 37.1172 101.111 37.1172C100.658 37.1172 100.242 37.082 99.8634 37.0117C99.4884 36.9453 99.1231 36.8262 98.7677 36.6543V35.7285C99.1387 35.9121 99.5333 36.0527 99.9512 36.1504C100.373 36.2441 100.772 36.291 101.147 36.291C102.627 36.291 103.367 35.7109 103.367 34.5508C103.367 33.5117 102.551 32.9922 100.918 32.9922H100.074V32.1543H100.93C101.598 32.1543 102.127 32.0078 102.518 31.7148C102.908 31.418 103.104 31.0078 103.104 30.4844C103.104 30.0664 102.959 29.7383 102.67 29.5C102.385 29.2617 101.996 29.1426 101.504 29.1426C101.129 29.1426 100.775 29.1934 100.443 29.2949C100.111 29.3965 99.7325 29.584 99.3067 29.8574L98.8145 29.2012C99.1661 28.9238 99.5704 28.707 100.027 28.5508C100.488 28.3906 100.973 28.3105 101.481 28.3105C102.313 28.3105 102.959 28.502 103.42 28.8848C103.881 29.2637 104.111 29.7852 104.111 30.4492ZM111.276 32.7051C111.276 34.1855 111.041 35.291 110.573 36.0215C110.108 36.752 109.395 37.1172 108.434 37.1172C107.512 37.1172 106.811 36.7441 106.33 35.998C105.85 35.248 105.61 34.1504 105.61 32.7051C105.61 31.2129 105.842 30.1055 106.307 29.3828C106.772 28.6602 107.481 28.2988 108.434 28.2988C109.364 28.2988 110.069 28.6758 110.549 29.4297C111.034 30.1836 111.276 31.2754 111.276 32.7051ZM106.594 32.7051C106.594 33.9512 106.741 34.8594 107.034 35.4297C107.327 35.9961 107.793 36.2793 108.434 36.2793C109.082 36.2793 109.551 35.9922 109.84 35.418C110.133 34.8398 110.28 33.9355 110.28 32.7051C110.28 31.4746 110.133 30.5742 109.84 30.0039C109.551 29.4297 109.082 29.1426 108.434 29.1426C107.793 29.1426 107.327 29.4258 107.034 29.9922C106.741 30.5547 106.594 31.459 106.594 32.7051ZM117.21 36.1387H117.157C116.708 36.791 116.036 37.1172 115.141 37.1172C114.301 37.1172 113.647 36.8301 113.178 36.2559C112.714 35.6816 112.481 34.8652 112.481 33.8066C112.481 32.748 112.715 31.9258 113.184 31.3398C113.653 30.7539 114.305 30.4609 115.141 30.4609C116.012 30.4609 116.68 30.7773 117.145 31.4102H117.221L117.18 30.9473L117.157 30.4961V27.8828H118.13V37H117.339L117.21 36.1387ZM115.264 36.3027C115.928 36.3027 116.409 36.123 116.706 35.7637C117.006 35.4004 117.157 34.8164 117.157 34.0117V33.8066C117.157 32.8965 117.005 32.248 116.7 31.8613C116.399 31.4707 115.917 31.2754 115.253 31.2754C114.682 31.2754 114.245 31.498 113.94 31.9434C113.639 32.3848 113.489 33.0098 113.489 33.8184C113.489 34.6387 113.639 35.2578 113.94 35.6758C114.241 36.0938 114.682 36.3027 115.264 36.3027ZM123.114 37.1172C122.696 37.1172 122.313 37.041 121.966 36.8887C121.622 36.7324 121.333 36.4941 121.099 36.1738H121.028C121.075 36.5488 121.099 36.9043 121.099 37.2402V39.8828H120.126V30.5781H120.917L121.052 31.457H121.099C121.349 31.1055 121.64 30.8516 121.972 30.6953C122.304 30.5391 122.684 30.4609 123.114 30.4609C123.966 30.4609 124.622 30.752 125.083 31.334C125.548 31.916 125.78 32.7324 125.78 33.7832C125.78 34.8379 125.544 35.6582 125.071 36.2441C124.602 36.8262 123.95 37.1172 123.114 37.1172ZM122.974 31.2871C122.317 31.2871 121.843 31.4688 121.55 31.832C121.257 32.1953 121.106 32.7734 121.099 33.5664V33.7832C121.099 34.6855 121.249 35.332 121.55 35.7227C121.85 36.1094 122.333 36.3027 122.997 36.3027C123.552 36.3027 123.985 36.0781 124.298 35.6289C124.614 35.1797 124.772 34.5605 124.772 33.7715C124.772 32.9707 124.614 32.3574 124.298 31.9316C123.985 31.502 123.544 31.2871 122.974 31.2871Z" fill="white"/>
<path d="M1 60V8H139.421V18.0971L146.625 25.6699L139.421 32.7379V60H1Z" stroke="white"/>
</svg>
