<svg fill="none" height="275" viewBox="0 0 1088 275" width="1088" xmlns="http://www.w3.org/2000/svg"><path d="m.5 0h1087v275h-1087z" fill="#f1f1f6"/><path d="m492 38.5h16v198h-16z" fill="#e0e1e9"/><rect fill="#464b52" height="144" rx="4" width="8" x="496" y="42.5"/><rect fill="#e0e1e9" height="233" rx="4" width="48" x="548" y="21"/><path d="m548 25c0-2.2091 1.791-4 4-4h40c2.209 0 4 1.7909 4 4v44h-48z" fill="#353a40"/><path d="m581.95 53.15-9.9-16.3-10 16.25z" fill="#fff"/><rect fill="#464b52" height="79" rx="4" width="8" x="568" y="73"/><path d="m548 206h48v44c0 2.209-1.791 4-4 4h-40c-2.209 0-4-1.791-4-4z" fill="#353a40"/><path d="m562.05 221.85 9.9 16.3 10-16.25z" fill="#fff"/></svg>