<svg fill="none" height="75" viewBox="0 0 756 75" width="756" xmlns="http://www.w3.org/2000/svg" xmlns:xlink="http://www.w3.org/1999/xlink"><clipPath id="a"><rect height="56" rx="28" width="434" x="207" y="8.667"/></clipPath><path d="m14.8652 22h-1.7871v-8.5664h4.9102v1.4883h-3.1231v2.209h2.9063v1.4824h-2.9063zm10.5394-3.2871c0 .5469-.0743 1.0312-.2227 1.4531-.1445.4219-.3574.7793-.6387 1.0723-.2773.289-.6132.5078-1.0078.6562-.3906.1485-.832.2227-1.3242.2227-.4609 0-.8848-.0742-1.2715-.2227-.3828-.1484-.7168-.3672-1.0019-.6562-.2813-.293-.5-.6504-.6563-1.0723-.1523-.4219-.2285-.9062-.2285-1.4531 0-.7266.1289-1.3418.3867-1.8457s.625-.8867 1.1016-1.1484c.4765-.2618 1.0449-.3926 1.7051-.3926.6132 0 1.1562.1308 1.6289.3926.4765.2617.8496.6445 1.1191 1.1484.2734.5039.4102 1.1191.4102 1.8457zm-4.5293 0c0 .4297.0468.791.1406 1.084.0937.2929.2402.5136.4394.6621.1993.1484.459.2226.7793.2226.3164 0 .5723-.0742.7676-.2226.1992-.1485.3438-.3692.4336-.6621.0938-.293.1406-.6543.1406-1.084 0-.4336-.0468-.793-.1406-1.0781-.0898-.2891-.2344-.5059-.4336-.6504-.1992-.1446-.459-.2168-.7793-.2168-.4726 0-.8164.1621-1.0312.4863-.211.3242-.3164.8106-.3164 1.459zm9.6545-3.3867c.6992 0 1.2617.1914 1.6875.5742.4258.3789.6387.9883.6387 1.8281v4.2715h-1.7871v-3.8262c0-.4687-.0859-.8222-.2578-1.0605-.168-.2383-.4336-.3574-.7969-.3574-.5469 0-.9199.1855-1.1191.5566-.1993.3711-.2989.9063-.2989 1.6055v3.082h-1.7871v-6.5508h1.3653l.2402.8379h.0996c.1406-.2266.3145-.4101.5215-.5508.2109-.1406.4433-.2441.6973-.3105.2578-.0664.5234-.0996.7968-.0996zm6.8538 5.3672c.1953 0 .3848-.0196.5684-.0586.1875-.0391.373-.0879.5566-.1465v1.3301c-.1914.0859-.4297.1562-.7148.2109-.2813.0586-.5899.0879-.9258.0879-.3906 0-.7422-.0625-1.0547-.1875-.3086-.1289-.5527-.3496-.7324-.6621-.1758-.3164-.2637-.7559-.2637-1.3184v-3.1582h-.8555v-.7558l.9844-.5977.5156-1.3828h1.1426v1.3945h1.834v1.3418h-1.834v3.1582c0 .25.0703.4375.211.5625.1445.1211.3339.1817.5683.1817zm6.9534-.6387c0 .4453-.1055.8223-.3164 1.1308-.207.3047-.5176.5372-.9316.6973-.4141.1563-.9297.2344-1.5469.2344-.4571 0-.8496-.0293-1.1778-.0879-.3242-.0586-.6523-.1563-.9843-.293v-1.4765c.3554.1601.7363.2929 1.1425.3984.4102.1016.7696.1523 1.0782.1523.3476 0 .5957-.0507.7441-.1523.1524-.1055.2285-.2422.2285-.4102 0-.1093-.0312-.207-.0937-.2929-.0586-.0899-.1875-.1895-.3867-.2989-.1993-.1132-.5118-.2597-.9375-.4394-.4102-.1719-.7481-.3457-1.0137-.5215-.2617-.1758-.457-.3828-.586-.6211-.125-.2422-.1875-.5488-.1875-.9199 0-.6055.2344-1.0605.7032-1.3652.4726-.3086 1.1035-.4629 1.8926-.4629.4062 0 .7929.041 1.1601.123.3711.082.752.2129 1.1426.3926l-.5391 1.2891c-.3242-.1407-.6308-.2559-.9199-.3457-.2852-.0899-.5762-.1348-.873-.1348-.2618 0-.459.0351-.5918.1055-.1329.0703-.1993.1777-.1993.3222 0 .1055.0332.1992.0996.2813.0704.082.2032.1738.3985.2754.1992.0976.4902.2246.873.3808.3711.1524.6934.3125.9668.4805.2735.1641.4844.3691.6328.6152.1485.2422.2227.5567.2227.9434zm1.0706 1.1074c0-.3672.0996-.625.2988-.7734.2031-.1485.4473-.2227.7324-.2227.2774 0 .5157.0742.7149.2227.2031.1484.3047.4062.3047.7734 0 .3516-.1016.6055-.3047.7617-.1992.1563-.4375.2344-.7149.2344-.2851 0-.5293-.0781-.7324-.2344-.1992-.1562-.2988-.4101-.2988-.7617zm0-4.8398c0-.3672.0996-.625.2988-.7735.2031-.1484.4473-.2226.7324-.2226.2774 0 .5157.0742.7149.2226.2031.1485.3047.4063.3047.7735 0 .3554-.1016.6113-.3047.7675-.1992.1524-.4375.2286-.7149.2286-.2851 0-.5293-.0762-.7324-.2286-.1992-.1562-.2988-.4121-.2988-.7675zm11.9146 5.6777h-5.6133v-.8145l2.291-2.3261c.4258-.4297.7832-.8125 1.0723-1.1485.2929-.3359.5156-.666.6679-.9902.1524-.3281.2286-.6875.2286-1.0781 0-.4844-.1446-.8535-.4336-1.1074-.2852-.2579-.6621-.3868-1.1309-.3868-.4102 0-.7734.0704-1.0898.211s-.6407.3398-.9727.5976l-.5215-.6562c.2266-.1914.4727-.3613.7383-.5098.2695-.1484.5566-.2656.8613-.3515.3086-.086.6367-.129.9844-.129.5273 0 .9824.0918 1.3652.2754s.6778.4453.8848.7852c.2109.3398.3164.7441.3164 1.2129 0 .4531-.0898.875-.2695 1.2656-.1797.3867-.4317.7715-.7559 1.1543-.3242.3789-.7031.7813-1.1367 1.207l-1.8633 1.8575v.041h4.377zm6.842-4.2949c0 .6953-.0527 1.3164-.1582 1.8633-.1054.5468-.2715 1.0097-.498 1.3886-.2266.3789-.5195.668-.8789.8672-.3594.1953-.791.293-1.2949.293-.6368 0-1.1641-.1738-1.5821-.5215-.414-.3477-.7246-.8496-.9316-1.5059-.2031-.6601-.3047-1.455-.3047-2.3847 0-.9141.0918-1.6992.2754-2.3555.1875-.6601.4883-1.166.9023-1.5176.4141-.3554.961-.5332 1.6407-.5332.6445 0 1.1757.1758 1.5937.5274.418.3476.7285.8515.9316 1.5117.2032.6562.3047 1.4453.3047 2.3672zm-4.6699 0c0 .7969.0606 1.4609.1817 1.9922.121.5312.3164.9297.5859 1.1953.2734.2617.6308.3926 1.0723.3926.4414 0 .7968-.1309 1.0664-.3926.2734-.2617.4707-.6582.5918-1.1895.125-.5312.1875-1.1972.1875-1.998 0-.7852-.0606-1.4414-.1817-1.9688-.1211-.5312-.3164-.9297-.5859-1.1953-.2696-.2695-.6289-.4043-1.0781-.4043-.4493 0-.8086.1348-1.0782.4043-.2695.2656-.4648.6641-.5859 1.1953-.1172.5274-.1758 1.1836-.1758 1.9688zm10.3929 2.5371c0 .4101-.1036.7558-.3106 1.0371-.2031.2773-.4961.4863-.8789.6269-.3789.1407-.832.211-1.3594.211-.4492 0-.8379-.0352-1.166-.1055s-.6152-.1699-.8613-.2988v-.8965c.2617.1289.5742.2461.9375.3516.3633.1054.7344.1582 1.1133.1582.5547 0 .957-.0899 1.207-.2696.25-.1796.375-.4238.375-.7324 0-.1758-.0508-.3301-.1523-.4629-.0977-.1367-.2637-.2675-.4981-.3925-.2344-.129-.5586-.2696-.9726-.4219-.4102-.1563-.7657-.3106-1.0665-.4629-.2968-.1563-.5273-.3457-.6914-.5684-.1601-.2226-.2402-.5117-.2402-.8672 0-.5429.2188-.9589.6563-1.248.4414-.293 1.0195-.4395 1.7343-.4395.3867 0 .7481.0391 1.084.1172.3399.0742.6563.1758.9492.3047l-.3281.7793c-.2656-.1133-.5488-.209-.8496-.2871s-.6074-.1172-.9199-.1172c-.4492 0-.7949.0742-1.0371.2227-.2383.1484-.3575.3515-.3575.6093 0 .1993.0547.3633.1641.4922.1133.1289.293.25.5391.3633s.5703.2461.9726.3985c.4024.1484.75.3027 1.043.4628.293.1563.5176.3477.6738.5743.1602.2226.2403.5097.2403.8613zm4.51-4.7813c.8008 0 1.4394.2754 1.916.8262s.7148 1.3789.7148 2.4844c0 .7305-.1093 1.3437-.3281 1.8398-.2187.4961-.5273.8711-.9258 1.125-.3945.2539-.8613.3809-1.4004.3809-.3398 0-.6386-.0449-.8964-.1348-.2578-.0898-.4786-.2109-.6621-.3633-.1836-.1523-.336-.3183-.4571-.498h-.0703c.0117.1523.0254.3359.041.5508.0196.2148.0293.4023.0293.5625v2.6367h-.9785v-9.293h.8027l.1289.9492h.0469c.125-.1953.2774-.373.4571-.5332.1796-.164.3984-.2929.6562-.3867.2617-.0976.5703-.1465.9258-.1465zm-.1699.8203c-.4453 0-.8047.086-1.0782.2579-.2695.1718-.4668.4297-.5918.7734-.125.3398-.1914.7676-.1992 1.2832v.1875c0 .543.0586 1.002.1758 1.377.1211.375.3184.6601.5918.8554.2773.1953.6484.293 1.1133.293.3984 0 .7305-.1074.9961-.3223.2656-.2148.4629-.5136.5918-.8965.1328-.3867.1992-.83.1992-1.33 0-.7578-.1484-1.3594-.4453-1.8047-.293-.4492-.7442-.6739-1.3535-.6739zm-61.1492 17.1524h2.666c1.1407 0 2.0039.1602 2.5899.4805.5859.3203.8789.8828.8789 1.6875 0 .3242-.0527.6172-.1582.8789-.1016.2617-.25.4765-.4453.6445s-.4336.2773-.7149.3281v.0586c.2852.0586.543.1602.7735.3047.2304.1406.414.3477.5508.6211.1406.2695.2109.6289.2109 1.0781 0 .5196-.127.9649-.3809 1.336s-.6172.6562-1.0898.8554c-.4688.1953-1.0274.293-1.6758.293h-3.2051zm1.8164 3.3926h1.0547c.5274 0 .8926-.0821 1.0957-.2461.2031-.168.3047-.4141.3047-.7383 0-.3281-.1211-.5625-.3633-.7031-.2383-.1446-.6172-.2168-1.1367-.2168h-.9551zm0 1.4414v2.2324h1.1836c.5469 0 .9278-.1055 1.1426-.3164s.3223-.4941.3223-.8496c0-.211-.0469-.3965-.1407-.5567-.0937-.1601-.2519-.2851-.4746-.375-.2187-.0898-.5215-.1347-.9082-.1347zm11.9866.4453c0 .5469-.0742 1.0312-.2226 1.4531-.1446.4219-.3575.7793-.6387 1.0723-.2773.289-.6133.5078-1.0078.6562-.3906.1485-.832.2227-1.3242.2227-.461 0-.8848-.0742-1.2715-.2227-.3828-.1484-.7168-.3672-1.002-.6562-.2812-.293-.5-.6504-.6562-1.0723-.1524-.4219-.2285-.9062-.2285-1.4531 0-.7266.1289-1.3418.3867-1.8457s.625-.8867 1.1015-1.1484c.4766-.2618 1.045-.3926 1.7051-.3926.6133 0 1.1563.1308 1.6289.3926.4766.2617.8496.6445 1.1192 1.1484.2734.5039.4101 1.1191.4101 1.8457zm-4.5293 0c0 .4297.0469.791.1407 1.084.0937.2929.2402.5136.4394.6621.1992.1484.459.2226.7793.2226.3164 0 .5723-.0742.7676-.2226.1992-.1485.3437-.3692.4336-.6621.0937-.293.1406-.6543.1406-1.084 0-.4336-.0469-.793-.1406-1.0781-.0899-.2891-.2344-.5059-.4336-.6504-.1992-.1446-.459-.2168-.7793-.2168-.4727 0-.8164.1621-1.0313.4863-.2109.3242-.3164.8106-.3164 1.459zm9.5901-3.3867c.0899 0 .1934.0058.3106.0176.1211.0078.2187.0195.293.0351l-.1348 1.6758c-.0586-.0195-.1426-.0332-.252-.041-.1054-.0117-.1972-.0176-.2754-.0176-.2304 0-.455.0293-.6738.0879-.2148.0586-.4082.1543-.5801.2871-.1718.1289-.3086.3008-.4101.5156-.0977.211-.1465.4707-.1465.7793v3.334h-1.7871v-6.5508h1.3535l.2637 1.1016h.0879c.1289-.2227.289-.4258.4804-.6094.1953-.1875.416-.3359.6621-.4453.25-.1133.5196-.1699.8086-.1699zm3.7952 6.791c-.7304 0-1.3261-.2852-1.7871-.8555-.457-.5742-.6855-1.416-.6855-2.5254 0-1.1211.2324-1.9687.6972-2.5429.4649-.5782 1.0723-.8672 1.8223-.8672.3125 0 .5879.0429.8262.1289.2383.0859.4433.2011.6152.3457.1758.1445.3242.3066.4453.4863h.0586c-.0234-.125-.0527-.3086-.0879-.5508-.0312-.2461-.0469-.498-.0469-.7558v-2.0977h1.793v9.1172h-1.3711l-.3457-.8496h-.0762c-.1132.1797-.2558.3437-.4277.4922-.168.1445-.3691.2597-.6035.3457-.2344.0859-.5098.1289-.8262.1289zm.627-1.4238c.4883 0 .832-.1446 1.0312-.4336.2032-.293.3106-.7325.3223-1.3184v-.1934c0-.6367-.0977-1.123-.293-1.4589-.1953-.3399-.5586-.5098-1.0898-.5098-.3945 0-.7031.1699-.9258.5098-.2227.3398-.334.83-.334 1.4707 0 .6406.1113 1.123.334 1.4472.2266.3242.5449.4864.9551.4864zm7.5217-5.3672c.6055 0 1.127.1172 1.5645.3515.4375.2305.7754.5664 1.0137 1.0078.2382.4415.3574.9805.3574 1.6172v.8672h-4.2246c.0195.5039.1699.9004.4511 1.1895.2852.2851.6797.4277 1.1836.4277.418 0 .8008-.043 1.1485-.1289.3476-.0859.705-.2148 1.0722-.3867v1.3828c-.3242.1602-.664.2773-1.0195.3516-.3516.0742-.7793.1113-1.2832.1113-.6563 0-1.2383-.1211-1.7461-.3633-.5039-.2422-.9004-.6113-1.1894-1.1074-.2852-.4961-.4278-1.1211-.4278-1.875 0-.7656.1289-1.4024.3867-1.9102.2618-.5117.625-.8945 1.0899-1.1484.4648-.2578 1.0058-.3867 1.623-.3867zm.0117 1.2715c-.3476 0-.6367.1113-.8671.3339-.2266.2227-.3575.5723-.3926 1.0489h2.5078c-.0039-.2657-.0527-.502-.1465-.709-.0898-.207-.2266-.3711-.4101-.4922-.1797-.1211-.4102-.1816-.6915-.1816zm7.9612-1.2715c.0899 0 .1934.0058.3106.0176.1211.0078.2187.0195.293.0351l-.1348 1.6758c-.0586-.0195-.1426-.0332-.252-.041-.1054-.0117-.1972-.0176-.2753-.0176-.2305 0-.4551.0293-.6739.0879-.2148.0586-.4082.1543-.5801.2871-.1718.1289-.3085.3008-.4101.5156-.0977.211-.1465.4707-.1465.7793v3.334h-1.7871v-6.5508h1.3535l.2637 1.1016h.0879c.1289-.2227.289-.4258.4804-.6094.1954-.1875.4161-.3359.6622-.4453.25-.1133.5195-.1699.8085-.1699zm1.1409 4.1894v-1.4648h3.1465v1.4648zm8.0316-4.1894c.0898 0 .1933.0058.3105.0176.1211.0078.2188.0195.293.0351l-.1348 1.6758c-.0586-.0195-.1426-.0332-.2519-.041-.1055-.0117-.1973-.0176-.2754-.0176-.2305 0-.4551.0293-.6739.0879-.2148.0586-.4082.1543-.58.2871-.1719.1289-.3086.3008-.4102.5156-.0977.211-.1465.4707-.1465.7793v3.334h-1.7871v-6.5508h1.3535l.2637 1.1016h.0879c.1289-.2227.289-.4258.4805-.6094.1953-.1875.416-.3359.6621-.4453.25-.1133.5195-.1699.8086-.1699zm4.4045-.0117c.8789 0 1.5528.1914 2.0215.5742.4688.3828.7031.9648.7031 1.7461v4.3652h-1.248l-.3457-.8906h-.0469c-.1875.2344-.3789.4258-.5742.5742s-.4199.2578-.6738.3281c-.254.0703-.5625.1055-.9258.1055-.3867 0-.7344-.0742-1.043-.2227-.3047-.1484-.5449-.375-.7207-.6797-.1758-.3086-.2637-.6992-.2637-1.1718 0-.6953.2442-1.2071.7325-1.5352.4882-.332 1.2207-.5156 2.1972-.5508l1.1367-.0351v-.2871c0-.3438-.0898-.5957-.2695-.7559-.1797-.1601-.4297-.2402-.75-.2402-.3164 0-.6269.0449-.9316.1347-.3047.0899-.6094.2032-.9141.3399l-.5918-1.2071c.3477-.1835.7363-.3281 1.166-.4335.4336-.1055.8809-.1582 1.3418-.1582zm.9492 3.6503-.6914.0235c-.5781.0156-.9804.1191-1.207.3105-.2227.1914-.334.4434-.334.7559 0 .2734.0801.4687.2402.5859.1602.1133.3692.1699.627.1699.3828 0 .7051-.1132.9668-.3398.2656-.2266.3984-.5488.3984-.9668zm5.6234 3.1524c-.7305 0-1.3262-.2852-1.7872-.8555-.457-.5742-.6855-1.416-.6855-2.5254 0-1.1211.2324-1.9687.6973-2.5429.4648-.5782 1.0722-.8672 1.8222-.8672.3125 0 .5879.0429.8262.1289.2383.0859.4434.2011.6152.3457.1758.1445.3243.3066.4453.4863h.0586c-.0234-.125-.0527-.3086-.0879-.5508-.0312-.2461-.0468-.498-.0468-.7558v-2.0977h1.7929v9.1172h-1.3711l-.3457-.8496h-.0761c-.1133.1797-.2559.3437-.4278.4922-.1679.1445-.3691.2597-.6035.3457-.2344.0859-.5097.1289-.8261.1289zm.6269-1.4238c.4883 0 .832-.1446 1.0313-.4336.2031-.293.3105-.7325.3222-1.3184v-.1934c0-.6367-.0976-1.123-.2929-1.4589-.1954-.3399-.5586-.5098-1.0899-.5098-.3945 0-.7031.1699-.9258.5098-.2226.3398-.334.83-.334 1.4707 0 .6406.1114 1.123.334 1.4472.2266.3242.5449.4864.9551.4864zm6.6077-5.2442v6.5508h-1.7871v-6.5508zm-.8906-2.5664c.2656 0 .4941.0625.6855.1875.1914.1211.2871.3496.2871.6856 0 .332-.0957.5625-.2871.6914-.1914.125-.4199.1875-.6855.1875-.2696 0-.5-.0625-.6914-.1875-.1875-.1289-.2813-.3594-.2813-.6914 0-.336.0938-.5645.2813-.6856.1914-.125.4218-.1875.6914-.1875zm8.7112 2.5664v6.5508h-1.3711l-.2403-.8379h-.0937c-.1406.2227-.3164.4043-.5274.5449-.2109.1407-.4433.2442-.6972.3106s-.5176.0996-.791.0996c-.4688 0-.877-.082-1.2246-.2461-.3477-.168-.6192-.4277-.8145-.7793-.1914-.3516-.2871-.8086-.2871-1.3711v-4.2715h1.7871v3.8262c0 .4687.084.8223.252 1.0605.1679.2383.4355.3575.8027.3575.3633 0 .6484-.0821.8555-.2461.207-.168.3515-.4121.4336-.7325.0859-.3242.1289-.7187.1289-1.1836v-3.082zm6.3733 4.6055c0 .4453-.1055.8223-.3164 1.1308-.2071.3047-.5176.5372-.9317.6973-.414.1563-.9297.2344-1.5468.2344-.4571 0-.8496-.0293-1.1778-.0879-.3242-.0586-.6523-.1563-.9843-.293v-1.4765c.3554.1601.7363.2929 1.1425.3984.4102.1016.7696.1523 1.0782.1523.3476 0 .5957-.0507.7441-.1523.1523-.1055.2285-.2422.2285-.4102 0-.1093-.0312-.207-.0937-.2929-.0586-.0899-.1875-.1895-.3868-.2989-.1992-.1132-.5117-.2597-.9375-.4394-.4101-.1719-.748-.3457-1.0136-.5215-.2617-.1758-.4571-.3828-.586-.6211-.125-.2422-.1875-.5488-.1875-.9199 0-.6055.2344-1.0605.7032-1.3652.4726-.3086 1.1035-.4629 1.8925-.4629.4063 0 .793.041 1.1602.123.3711.082.7519.2129 1.1426.3926l-.5391 1.2891c-.3242-.1407-.6309-.2559-.9199-.3457-.2852-.0899-.5762-.1348-.8731-.1348-.2617 0-.4589.0351-.5918.1055-.1328.0703-.1992.1777-.1992.3222 0 .1055.0332.1992.0996.2813.0703.082.2032.1738.3985.2754.1992.0976.4902.2246.873.3808.3711.1524.6934.3125.9668.4805.2735.1641.4844.3691.6328.6152.1485.2422.2227.5567.2227.9434zm1.0706 1.1074c0-.3672.0996-.625.2988-.7734.2031-.1485.4473-.2227.7324-.2227.2774 0 .5156.0742.7149.2227.2031.1484.3046.4062.3046.7734 0 .3516-.1015.6055-.3046.7617-.1993.1563-.4375.2344-.7149.2344-.2851 0-.5293-.0781-.7324-.2344-.1992-.1562-.2988-.4101-.2988-.7617zm0-4.8398c0-.3672.0996-.625.2988-.7735.2031-.1484.4473-.2226.7324-.2226.2774 0 .5156.0742.7149.2226.2031.1485.3046.4063.3046.7735 0 .3554-.1015.6113-.3046.7675-.1993.1524-.4375.2286-.7149.2286-.2851 0-.5293-.0762-.7324-.2286-.1992-.1562-.2988-.4121-.2988-.7675zm11.5986-.8907c0 .3829-.075.7149-.223.9961-.149.2813-.356.5118-.621.6914-.266.1758-.578.2989-.938.3692v.0469c.68.0859 1.19.3046 1.53.6562.343.3516.515.8125.515 1.3828 0 .4961-.117.9356-.351 1.3184-.231.3828-.586.6836-1.067.9023-.476.2149-1.088.3223-1.834.3223-.453 0-.873-.0371-1.26-.1113-.382-.0704-.75-.1895-1.101-.3575v-.914c.355.1758.742.3144 1.16.416.418.0976.822.1465 1.213.1465.781 0 1.346-.1543 1.693-.4629.348-.3125.522-.7383.522-1.2774 0-.3711-.098-.6699-.293-.8964-.192-.2305-.469-.3985-.832-.504-.36-.1093-.793-.164-1.301-.164h-.855v-.832h.861c.465 0 .859-.0684 1.183-.2051.325-.1367.571-.3281.739-.5742.172-.25.258-.545.258-.8848 0-.4336-.145-.7676-.434-1.002-.289-.2382-.682-.3574-1.178-.3574-.304 0-.582.0313-.832.0938s-.484.1484-.703.2578-.437.2363-.656.3808l-.492-.6679c.312-.2422.693-.4512 1.142-.627s.959-.2637 1.53-.2637c.875 0 1.531.1993 1.968.5977.438.3984.657.9063.657 1.5234zm7.158 2.2735c0 .6953-.053 1.3164-.158 1.8633-.106.5468-.272 1.0097-.498 1.3886-.227.3789-.52.668-.879.8672-.36.1953-.791.293-1.295.293-.637 0-1.164-.1738-1.582-.5215-.414-.3477-.725-.8496-.932-1.5059-.203-.6601-.304-1.455-.304-2.3847 0-.9141.091-1.6992.275-2.3555.187-.6601.488-1.166.902-1.5176.414-.3554.961-.5332 1.641-.5332.644 0 1.176.1758 1.594.5274.418.3476.728.8515.931 1.5117.203.6562.305 1.4453.305 2.3672zm-4.67 0c0 .7969.061 1.4609.182 1.9922.121.5312.316.9297.586 1.1953.273.2617.631.3926 1.072.3926s.797-.1309 1.066-.3926c.274-.2617.471-.6582.592-1.1895.125-.5312.188-1.1972.188-1.998 0-.7852-.061-1.4414-.182-1.9688-.121-.5312-.316-.9297-.586-1.1953-.269-.2695-.629-.4043-1.078-.4043s-.809.1348-1.078.4043c-.27.2656-.465.6641-.586 1.1953-.117.5274-.176 1.1836-.176 1.9688zm8.524 4.4121c-.813 0-1.457-.2774-1.934-.832-.472-.5547-.709-1.379-.709-2.4727 0-1.1055.242-1.9395.727-2.502.484-.5664 1.129-.8496 1.933-.8496.34 0 .637.045.891.1348s.473.2109.656.3633c.184.1484.338.3183.463.5098h.07c-.015-.1211-.031-.2872-.046-.4981-.016-.2109-.024-.3828-.024-.5156v-2.5723h.973v9.1172h-.785l-.147-.9141h-.041c-.121.1914-.275.3653-.463.5215-.183.1563-.404.2813-.662.375-.254.0899-.555.1348-.902.1348zm.152-.8086c.688 0 1.174-.1953 1.459-.5859.285-.3907.428-.9707.428-1.7403v-.1758c0-.8164-.137-1.4433-.41-1.8808-.27-.4375-.762-.6563-1.477-.6563-.598 0-1.045.2305-1.342.6914-.297.4571-.445 1.0821-.445 1.875 0 .7891.147 1.3985.439 1.8282.297.4297.747.6445 1.348.6445zm7.856-5.8477c.801 0 1.439.2754 1.916.8262.476.5508.715 1.3789.715 2.4844 0 .7305-.11 1.3437-.328 1.8398-.219.4961-.528.8711-.926 1.125-.395.2539-.861.3809-1.401.3809-.339 0-.638-.0449-.896-.1348-.258-.0898-.479-.2109-.662-.3633-.184-.1523-.336-.3183-.457-.498h-.07c.011.1523.025.3359.041.5508.019.2148.029.4023.029.5625v2.6367h-.979v-9.293h.803l.129.9492h.047c.125-.1953.277-.373.457-.5332.18-.164.398-.2929.656-.3867.262-.0976.57-.1465.926-.1465zm-.17.8203c-.445 0-.805.086-1.078.2579-.27.1718-.467.4297-.592.7734-.125.3398-.191.7676-.199 1.2832v.1875c0 .543.058 1.002.176 1.377.121.375.318.6601.591.8554.278.1953.649.293 1.114.293.398 0 .73-.1074.996-.3223.265-.2148.463-.5136.592-.8965.132-.3867.199-.83.199-1.33 0-.7578-.149-1.3594-.446-1.8047-.292-.4492-.744-.6739-1.353-.6739zm-103.776 23.3399c0 .5078-.1231.9492-.3692 1.3242s-.6055.6641-1.0781.8672c-.4688.2031-1.0391.3047-1.711.3047-.2968 0-.5878-.0195-.873-.0586-.2812-.0391-.5527-.0957-.8145-.1699-.2578-.0782-.5039-.1739-.7382-.2871v-1.6875c.4062.1797.8281.3418 1.2656.4863s.8711.2168 1.3008.2168c.2968 0 .5351-.0391.7148-.1172.1836-.0781.3164-.1855.3985-.3223.082-.1367.123-.2929.123-.4687 0-.2149-.0723-.3985-.2168-.5508s-.3437-.2949-.5977-.4277c-.25-.1328-.5332-.2754-.8496-.4278-.1992-.0937-.416-.207-.6504-.3398-.2343-.1367-.457-.3027-.6679-.4981-.211-.1953-.3848-.4316-.5215-.7089-.1328-.2813-.1992-.6172-.1992-1.0079 0-.5117.1172-.9492.3515-1.3125.2344-.3632.5684-.6406 1.002-.832.4375-.1953.9531-.293 1.5469-.293.4453 0 .8691.0528 1.2715.1583.4062.1015.83.25 1.2714.4453l-.5859 1.4121c-.3945-.1602-.748-.2832-1.0605-.3692-.3125-.0898-.6309-.1347-.9551-.1347-.2266 0-.4199.0371-.5801.1113-.1602.0703-.2813.1719-.3633.3047-.082.1289-.123.2793-.123.4512 0 .2031.0586.375.1757.5156.1211.1367.3008.2695.5391.3984.2422.1289.543.2793.9024.4512.4375.207.8105.4238 1.1191.6504.3125.2226.5527.4863.7207.791.168.3008.252.6758.252 1.125zm4.0998 1.0723c.1953 0 .3848-.0196.5684-.0586.1875-.0391.373-.0879.5566-.1465v1.3301c-.1914.0859-.4297.1562-.7148.2109-.2813.0586-.5899.0879-.9258.0879-.3906 0-.7422-.0625-1.0547-.1875-.3086-.1289-.5527-.3496-.7324-.6621-.1758-.3164-.2637-.7559-.2637-1.3184v-3.1582h-.8554v-.7558l.9843-.5977.5157-1.3828h1.1425v1.3945h1.834v1.3418h-1.834v3.1582c0 .25.0703.4375.211.5625.1445.1211.334.1817.5683.1817zm8.3362-1.9805c0 .5469-.0742 1.0312-.2226 1.4531-.1446.4219-.3574.7793-.6387 1.0723-.2773.289-.6133.5078-1.0078.6562-.3906.1485-.832.2227-1.3242.2227-.461 0-.8848-.0742-1.2715-.2227-.3828-.1484-.7168-.3672-1.002-.6562-.2812-.293-.5-.6504-.6562-1.0723-.1524-.4219-.2285-.9062-.2285-1.4531 0-.7266.1289-1.3418.3867-1.8457s.625-.8867 1.1016-1.1484c.4765-.2618 1.0449-.3926 1.705-.3926.6133 0 1.1563.1308 1.6289.3926.4766.2617.8496.6445 1.1192 1.1484.2734.5039.4101 1.1191.4101 1.8457zm-4.5293 0c0 .4297.0469.791.1407 1.084.0937.2929.2402.5136.4394.6621.1992.1484.459.2226.7793.2226.3164 0 .5723-.0742.7676-.2226.1992-.1485.3437-.3692.4336-.6621.0937-.293.1406-.6543.1406-1.084 0-.4336-.0469-.793-.1406-1.0781-.0899-.2891-.2344-.5059-.4336-.6504-.1992-.1446-.459-.2168-.7793-.2168-.4727 0-.8164.1621-1.0313.4863-.2109.3242-.3164.8106-.3164 1.459zm7.721-5.8301v4.0781c0 .2461-.0098.4922-.0293.7383s-.041.4922-.0644.7383h.0234c.1211-.1719.2441-.3418.3691-.5098.1289-.1679.2657-.33.4102-.4863l1.834-1.9922h2.0156l-2.6016 2.8418 2.7598 3.709h-2.0625l-1.8867-2.6543-.7676.6152v2.0391h-1.7871v-9.1172zm8.2835 2.4434c.6054 0 1.1269.1172 1.5644.3515.4375.2305.7754.5664 1.0137 1.0078.2383.4415.3574.9805.3574 1.6172v.8672h-4.2246c.0195.5039.1699.9004.4512 1.1895.2851.2851.6797.4277 1.1836.4277.4179 0 .8008-.043 1.1484-.1289.3477-.0859.7051-.2148 1.0723-.3867v1.3828c-.3242.1602-.6641.2773-1.0196.3516-.3515.0742-.7793.1113-1.2832.1113-.6562 0-1.2382-.1211-1.7461-.3633-.5039-.2422-.9003-.6113-1.1894-1.1074-.2852-.4961-.4277-1.1211-.4277-1.875 0-.7656.1289-1.4024.3867-1.9102.2617-.5117.625-.8945 1.0898-1.1484.4649-.2578 1.0059-.3867 1.6231-.3867zm.0117 1.2715c-.3477 0-.6367.1113-.8672.3339-.2266.2227-.3574.5723-.3926 1.0489h2.5078c-.0039-.2657-.0527-.502-.1464-.709-.0899-.207-.2266-.3711-.4102-.4922-.1797-.1211-.4102-.1816-.6914-.1816zm4.053 4.5644c0-.3672.0996-.625.2988-.7734.2031-.1485.4473-.2227.7324-.2227.2774 0 .5157.0742.7149.2227.2031.1484.3047.4062.3047.7734 0 .3516-.1016.6055-.3047.7617-.1992.1563-.4375.2344-.7149.2344-.2851 0-.5293-.0781-.7324-.2344-.1992-.1562-.2988-.4101-.2988-.7617zm0-4.8398c0-.3672.0996-.625.2988-.7735.2031-.1484.4473-.2226.7324-.2226.2774 0 .5157.0742.7149.2226.2031.1485.3047.4063.3047.7735 0 .3554-.1016.6113-.3047.7675-.1992.1524-.4375.2286-.7149.2286-.2851 0-.5293-.0762-.7324-.2286-.1992-.1562-.2988-.4121-.2988-.7675zm11.9146 5.6777h-5.6133v-.8145l2.291-2.3261c.4258-.4297.7832-.8125 1.0723-1.1485.293-.3359.5156-.666.668-.9902.1523-.3281.2285-.6875.2285-1.0781 0-.4844-.1446-.8535-.4336-1.1074-.2852-.2579-.6621-.3868-1.1309-.3868-.4101 0-.7734.0704-1.0898.211s-.6407.3398-.9727.5976l-.5215-.6562c.2266-.1914.4727-.3613.7383-.5098.2695-.1484.5567-.2656.8613-.3515.3086-.086.6368-.129.9844-.129.5274 0 .9824.0918 1.3652.2754.3829.1836.6778.4453.8848.7852.211.3398.3164.7441.3164 1.2129 0 .4531-.0898.875-.2695 1.2656-.1797.3867-.4317.7715-.7559 1.1543-.3242.3789-.7031.7813-1.1367 1.207l-1.8633 1.8575v.041h4.377zm3.9006.1172c-.8125 0-1.457-.2774-1.9336-.832-.4726-.5547-.7089-1.379-.7089-2.4727 0-1.1055.2422-1.9395.7265-2.502.4844-.5664 1.1289-.8496 1.9336-.8496.3399 0 .6367.045.8906.1348.254.0898.4727.2109.6563.3633.1836.1484.3379.3183.4629.5098h.0703c-.0156-.1211-.0313-.2872-.0469-.4981s-.0234-.3828-.0234-.5156v-2.5723h.9726v9.1172h-.7851l-.1465-.9141h-.041c-.1211.1914-.2754.3653-.4629.5215-.1836.1563-.4043.2813-.6621.375-.2539.0899-.5547.1348-.9024.1348zm.1524-.8086c.6875 0 1.1738-.1953 1.459-.5859.2851-.3907.4277-.9707.4277-1.7403v-.1758c0-.8164-.1367-1.4433-.4102-1.8808-.2695-.4375-.7617-.6563-1.4765-.6563-.5977 0-1.0449.2305-1.3418.6914-.2969.4571-.4453 1.0821-.4453 1.875 0 .7891.1465 1.3985.4394 1.8282.2969.4297.7461.6445 1.3477.6445zm7.8557-5.8477c.8008 0 1.4395.2754 1.916.8262.4766.5508.7149 1.3789.7149 2.4844 0 .7305-.1094 1.3437-.3281 1.8398-.2188.4961-.5274.8711-.9258 1.125-.3946.2539-.8614.3809-1.4004.3809-.3399 0-.6387-.0449-.8965-.1348-.2578-.0898-.4785-.2109-.6621-.3633-.1836-.1523-.336-.3183-.457-.498h-.0704c.0118.1523.0254.3359.0411.5508.0195.2148.0293.4023.0293.5625v2.6367h-.9786v-9.293h.8028l.1289.9492h.0469c.125-.1953.2773-.373.457-.5332.1797-.164.3984-.2929.6562-.3867.2618-.0976.5703-.1465.9258-.1465zm-.1699.8203c-.4453 0-.8047.086-1.0781.2579-.2696.1718-.4668.4297-.5918.7734-.125.3398-.1914.7676-.1992 1.2832v.1875c0 .543.0585 1.002.1757 1.377.1211.375.3184.6601.5918.8554.2774.1953.6485.293 1.1133.293.3985 0 .7305-.1074.9961-.3223.2656-.2148.4629-.5136.5918-.8965.1328-.3867.1992-.83.1992-1.33 0-.7578-.1484-1.3594-.4453-1.8047-.293-.4492-.7441-.6739-1.3535-.6739z" fill="#fff"/><path d="m1 74v-73h141.371v14.1748l6.629 10.631-6.629 9.9224v38.2718z" stroke="#fff"/><path d="m497 6.667h16v60h-16z" fill="#f0f" fill-opacity=".3"/><path d="m480 6.667h16v60h-16z" fill="#f0f" fill-opacity=".3"/><path d="m680.296 9.99994h9v53.99996h-9" stroke="#4091d2"/><path d="m701.894 35.5273c.828 0 1.486.2324 1.975.6972.492.4649.738 1.1016.738 1.9102 0 .957-.295 1.6934-.885 2.209s-1.433.7734-2.531.7734c-.953 0-1.723-.1543-2.309-.4629v-1.5644c.309.164.668.2988 1.078.4043.411.1015.799.1523 1.166.1523 1.106 0 1.659-.4531 1.659-1.3594 0-.8632-.573-1.2949-1.717-1.2949-.207 0-.436.0215-.686.0645-.25.039-.453.082-.609.1289l-.721-.3867.323-4.3653h4.646v1.5352h-3.059l-.158 1.6816.205-.041c.239-.0547.533-.082.885-.082zm3.608 1.834c0-1.6953.357-2.9571 1.072-3.7852.719-.8281 1.793-1.2422 3.223-1.2422.488 0 .871.0293 1.148.0879v1.4473c-.348-.0781-.691-.1172-1.031-.1172-.621 0-1.129.0937-1.524.2812-.39.1875-.683.4649-.879.8321-.195.3672-.31.8886-.345 1.5644h.076c.387-.664 1.006-.9961 1.857-.9961.766 0 1.366.2403 1.799.7207.434.4805.651 1.1446.651 1.9922 0 .9141-.258 1.6387-.774 2.1739-.515.5312-1.23.7968-2.144.7968-.633 0-1.186-.1465-1.659-.4394-.468-.293-.832-.7207-1.089-1.2832-.254-.5625-.381-1.2403-.381-2.0332zm3.093 2.3086c.387 0 .684-.1289.891-.3868.207-.2617.311-.6328.311-1.1132 0-.418-.098-.7461-.293-.9844-.192-.2422-.483-.3633-.873-.3633-.368 0-.682.1191-.944.3574-.258.2383-.386.5157-.386.8321 0 .4648.121.8574.363 1.1777.246.3203.556.4805.931.4805zm6.28 1.4472c-.769 0-1.375-.2988-1.816-.8965-.438-.5976-.657-1.4257-.657-2.4843 0-1.0743.223-1.9102.668-2.5078.45-.6016 1.067-.9024 1.852-.9024.824 0 1.453.3203 1.887.9609h.058c-.09-.4882-.135-.9238-.135-1.3066v-2.0976h1.793v9.1171h-1.371l-.345-.8496h-.077c-.406.6446-1.025.9668-1.857.9668zm.627-1.4238c.457 0 .791-.1328 1.002-.3984.215-.2657.332-.7168.352-1.3536v-.1933c0-.7031-.11-1.207-.329-1.5117-.214-.3047-.566-.4571-1.054-.4571-.399 0-.709.17-.932.5098-.219.3359-.328.8262-.328 1.4707s.111 1.1289.334 1.4531c.223.3203.541.4805.955.4805zm8.418 1.4238c-.769 0-1.373-.2793-1.81-.8379h-.094c.062.5469.094.8633.094.9493v2.6543h-1.787v-9.4336h1.453l.252.8496h.082c.418-.6485 1.037-.9727 1.857-.9727.774 0 1.379.2988 1.817.8965.437.5977.656 1.4277.656 2.4902 0 .6992-.104 1.3067-.311 1.8223-.203.5156-.494.9082-.873 1.1777-.379.2696-.824.4043-1.336.4043zm-.527-5.3613c-.442 0-.764.1367-.967.4102-.203.2695-.309.7168-.316 1.3418v.1933c0 .7031.103 1.207.31 1.5117.211.3047.543.4571.996.4571.801 0 1.201-.6602 1.201-1.9805 0-.6445-.099-1.127-.298-1.4473-.196-.3242-.504-.4863-.926-.4863z" fill="#4091d2"/><path d="m625 6.667h16v60h-16z" fill="#f0f" fill-opacity=".3"/><path d="m653.888 41.6666h-1.108v-7.123c0-.5925.019-1.153.055-1.6817-.096.0957-.203.196-.321.3008-.119.1048-.661.5492-1.627 1.333l-.602-.7793 2.646-2.0439h.957zm3.84-4.2724c0-1.9642.38-3.4317 1.141-4.4024.766-.9752 1.896-1.4629 3.391-1.4629.515 0 .92.0433 1.217.1299v.9776c-.351-.114-.752-.1709-1.204-.1709-1.071 0-1.889.3349-2.454 1.0048-.565.6654-.875 1.7136-.929 3.1446h.082c.501-.7839 1.294-1.1758 2.379-1.1758.897 0 1.604.2711 2.119.8135.519.5423.779 1.2783.779 2.208 0 1.039-.285 1.8571-.854 2.4541-.566.5924-1.331.8886-2.297.8886-1.035 0-1.855-.3873-2.461-1.1621-.606-.7793-.909-1.8616-.909-3.247zm3.356 3.4453c.647 0 1.148-.2028 1.504-.6084.36-.4102.54-1.0003.54-1.7705 0-.6608-.166-1.1804-.499-1.5586-.333-.3783-.83-.5674-1.49-.5674-.411 0-.786.0843-1.128.2529s-.616.4011-.821.6973c-.2.2962-.3.6038-.3.9228 0 .4694.091.9069.273 1.3125s.44.7269.773.9639c.337.237.72.3555 1.148.3555zm10.074-.1778h-.061c-.524.7611-1.308 1.1416-2.352 1.1416-.98 0-1.743-.3349-2.29-1.0048-.542-.67-.813-1.6224-.813-2.8575 0-1.235.273-2.1943.82-2.8779s1.308-1.0254 2.283-1.0254c1.016 0 1.796.3692 2.338 1.1074h.089l-.048-.54-.027-.5264v-3.0488h1.134v10.6367h-.922zm-2.269.1914c.774 0 1.335-.2096 1.681-.6289.351-.4238.527-1.1051.527-2.0439v-.2393c0-1.0618-.178-1.8183-.534-2.2695-.35-.4557-.913-.6836-1.688-.6836-.665 0-1.176.2598-1.531.7793-.351.515-.527 1.2442-.527 2.1875 0 .957.176 1.6794.527 2.167s.866.7314 1.545.7314zm9.158.9502c-.488 0-.934-.0888-1.34-.2666-.401-.1822-.738-.4602-1.012-.8339h-.082c.055.4375.082.8522.082 1.2441v3.083h-1.135v-10.8555h.923l.158 1.0254h.054c.292-.4101.631-.7064 1.019-.8886.387-.1823.832-.2735 1.333-.2735.993 0 1.759.3395 2.297 1.0186.542.679.813 1.6315.813 2.8574 0 1.2305-.276 2.1875-.827 2.8711-.547.679-1.308 1.0185-2.283 1.0185zm-.164-6.8017c-.766 0-1.32.2119-1.661.6357-.342.4239-.518 1.0983-.527 2.0235v.2529c0 1.0527.176 1.807.527 2.2627.351.4512.913.6767 1.688.6767.647 0 1.153-.262 1.518-.7861.369-.5241.553-1.2464.553-2.167 0-.9342-.184-1.6497-.553-2.1465-.365-.5013-.88-.7519-1.545-.7519z" fill="#e8178a"/><path d="m159.888 43.6666h-1.108v-7.123c0-.5925.019-1.153.055-1.6817-.096.0957-.203.196-.321.3008-.119.1048-.661.5492-1.627 1.333l-.602-.7793 2.646-2.0439h.957zm3.84-4.2724c0-1.9642.38-3.4317 1.141-4.4024.766-.9752 1.896-1.4629 3.391-1.4629.515 0 .92.0433 1.217.1299v.9776c-.351-.114-.752-.1709-1.204-.1709-1.071 0-1.889.3349-2.454 1.0048-.565.6654-.875 1.7136-.929 3.1446h.082c.501-.7839 1.294-1.1758 2.379-1.1758.897 0 1.604.2711 2.119.8135.519.5423.779 1.2783.779 2.208 0 1.039-.285 1.8571-.854 2.4541-.566.5924-1.331.8886-2.297.8886-1.035 0-1.855-.3873-2.461-1.1621-.606-.7793-.909-1.8616-.909-3.247zm3.356 3.4453c.647 0 1.148-.2028 1.504-.6084.36-.4102.54-1.0003.54-1.7705 0-.6608-.166-1.1804-.499-1.5586-.333-.3783-.83-.5674-1.49-.5674-.411 0-.786.0843-1.128.2529s-.616.4011-.821.6973c-.2.2962-.3.6038-.3.9228 0 .4694.091.9069.273 1.3125s.44.7269.773.9639c.337.237.72.3555 1.148.3555zm10.074-.1778h-.061c-.524.7611-1.308 1.1416-2.352 1.1416-.98 0-1.743-.3349-2.29-1.0048-.542-.67-.813-1.6224-.813-2.8575 0-1.235.273-2.1943.82-2.8779s1.308-1.0254 2.283-1.0254c1.016 0 1.796.3692 2.338 1.1074h.089l-.048-.54-.027-.5264v-3.0488h1.134v10.6367h-.922zm-2.269.1914c.774 0 1.335-.2096 1.681-.6289.351-.4238.527-1.1051.527-2.0439v-.2393c0-1.0618-.178-1.8183-.534-2.2695-.35-.4557-.913-.6836-1.688-.6836-.665 0-1.176.2598-1.531.7793-.351.515-.527 1.2442-.527 2.1875 0 .957.176 1.6794.527 2.167s.866.7314 1.545.7314zm9.158.9502c-.488 0-.934-.0888-1.34-.2666-.401-.1822-.738-.4602-1.012-.8339h-.082c.055.4375.082.8522.082 1.2441v3.083h-1.135v-10.8555h.923l.158 1.0254h.054c.292-.4101.631-.7064 1.019-.8886.387-.1823.832-.2735 1.333-.2735.993 0 1.759.3395 2.297 1.0186.542.679.813 1.6315.813 2.8574 0 1.2305-.276 2.1875-.827 2.8711-.547.679-1.308 1.0185-2.283 1.0185zm-.164-6.8017c-.766 0-1.32.2119-1.661.6357-.342.4239-.518 1.0983-.527 2.0235v.2529c0 1.0527.176 1.807.527 2.2627.351.4512.913.6767 1.688.6767.647 0 1.153-.262 1.518-.7861.369-.5241.553-1.2464.553-2.167 0-.9342-.184-1.6497-.553-2.1465-.365-.5013-.88-.7519-1.545-.7519z" fill="#e8178a"/><g fill="#f0f" fill-opacity=".3"><path d="m204 8.667h16v60h-16z"/><path d="m333 6.667h16v60h-16z"/><path d="m350 6.667h16v60h-16z"/></g><rect height="59" rx="29.5" stroke="#f0f" stroke-dasharray="2 2" width="439" x="204.5" y="7.167"/><g clip-path="url(#a)"><rect fill="#6a6e79" height="57" rx="28.5" width="141.667" x="206.5" y="8.167"/><path d="m257.444 45.6666h-3.277v-15.7051h9.002v2.7286h-5.725v4.0498h5.328v2.7177h-5.328zm12.066-12.0097v12.0097h-3.276v-12.0097zm-1.633-4.7051c.487 0 .906.1146 1.257.3437.351.222.527.641.527 1.2569 0 .6087-.176 1.0312-.527 1.2675-.351.2292-.77.3438-1.257.3438-.494 0-.916-.1146-1.267-.3438-.344-.2363-.516-.6588-.516-1.2675 0-.6159.172-1.0349.516-1.2569.351-.2291.773-.3437 1.267-.3437zm12.035 4.4795c.164 0 .354.0107.569.0322.222.0143.401.0358.537.0645l-.247 3.0722c-.107-.0358-.261-.0609-.462-.0752-.193-.0215-.362-.0322-.505-.0322-.422 0-.834.0537-1.235.1611-.394.1075-.749.2829-1.064.5264-.315.2363-.565.5514-.752.9453-.179.3867-.268.863-.268 1.4287v6.1123h-3.277v-12.0097h2.482l.483 2.0195h.161c.237-.4082.53-.7806.881-1.1172.358-.3437.763-.6159 1.214-.8164.459-.2077.953-.3115 1.483-.3115zm11.916 8.6689c0 .8164-.194 1.5075-.58 2.0733-.38.5586-.949.9847-1.708 1.2783-.76.2864-1.705.4297-2.836.4297-.838 0-1.558-.0537-2.16-.1612-.594-.1074-1.196-.2864-1.804-.5371v-2.707c.651.2936 1.35.5371 2.094.7305.752.1862 1.411.2793 1.977.2793.637 0 1.092-.0931 1.364-.2793.28-.1934.419-.444.419-.752 0-.2005-.057-.3795-.172-.5371-.107-.1647-.343-.3473-.709-.5478-.365-.2077-.938-.4763-1.718-.8057-.752-.3151-1.372-.6338-1.859-.9561-.48-.3222-.838-.7018-1.074-1.1386-.229-.4441-.344-1.0062-.344-1.6866 0-1.11.43-1.9443 1.289-2.5029.867-.5657 2.023-.8486 3.47-.8486.745 0 1.454.0752 2.127.2256.68.1504 1.379.3903 2.095.7197l-.989 2.3633c-.594-.2578-1.156-.4691-1.686-.6338-.523-.1647-1.056-.2471-1.601-.2471-.479 0-.841.0645-1.085.1934-.243.1289-.365.3258-.365.5908 0 .1933.061.3652.183.5156.129.1504.372.3187.73.5049.365.179.899.4118 1.601.6982.68.2793 1.271.573 1.772.8809.502.3008.888.6768 1.16 1.1279.273.444.409 1.0205.409 1.7295zm7.866 1.1709c.358 0 .705-.0358 1.042-.1074.344-.0716.684-.1611 1.02-.2686v2.4385c-.351.1576-.787.2865-1.31.3867-.516.1075-1.082.1612-1.697.1612-.717 0-1.361-.1146-1.934-.3438-.566-.2363-1.013-.6409-1.343-1.2138-.322-.5801-.483-1.3858-.483-2.417v-5.7901h-1.569v-1.3857l1.805-1.0957.945-2.5352h2.095v2.5567h3.362v2.4599h-3.362v5.7901c0 .4583.129.802.387 1.0312.265.222.612.333 1.042.333z" fill="#fff"/><rect height="57" rx="28.5" stroke="#6a6e79" width="141.667" x="206.5" y="8.167"/><path d="m393.402 41.3053c0 .931-.225 1.7402-.676 2.4277-.452.6875-1.11 1.2175-1.977 1.5899-.859.3724-1.905.5586-3.137.5586-.544 0-1.077-.0358-1.6-.1075-.516-.0716-1.014-.1754-1.493-.3115-.473-.1432-.924-.3187-1.354-.5263v-3.0938c.745.3294 1.518.6266 2.32.8916s1.597.3975 2.385.3975c.544 0 .981-.0716 1.311-.2149.336-.1432.58-.3401.73-.5908.151-.2506.226-.5371.226-.8594 0-.3938-.133-.7304-.398-1.0097s-.63-.5407-1.095-.7842c-.459-.2435-.978-.5049-1.558-.7842-.365-.1719-.763-.3796-1.192-.623-.43-.2507-.838-.5551-1.225-.9131-.387-.3581-.705-.7914-.956-1.2998-.244-.5157-.365-1.1315-.365-1.8477 0-.9381.214-1.7402.644-2.4062.43-.6661 1.042-1.1745 1.837-1.5254.802-.3581 1.747-.5371 2.836-.5371.816 0 1.593.0966 2.331.29.745.1862 1.522.4583 2.331.8164l-1.074 2.5889c-.723-.2936-1.371-.5192-1.944-.6768-.573-.1647-1.157-.2471-1.751-.2471-.416 0-.77.0681-1.064.2041-.293.129-.515.3152-.666.5586-.15.2364-.225.5121-.225.8272 0 .3724.107.6875.322.9453.222.2507.551.4941.988.7305.444.2363.996.512 1.654.8271.802.3796 1.486.777 2.052 1.1924.573.4082 1.013.8916 1.321 1.4502.308.5514.462 1.2389.462 2.0625zm7.791-7.874c1.11 0 2.066.2148 2.869.6445.802.4225 1.421 1.0384 1.858 1.8477.437.8092.655 1.7975.655 2.9648v1.5898h-7.745c.036.9239.312 1.6508.827 2.1807.523.5228 1.246.7842 2.17.7842.766 0 1.468-.0788 2.106-.2363.637-.1576 1.292-.3939 1.965-.709v2.5351c-.594.2937-1.217.5085-1.869.6446-.644.136-1.428.2041-2.352.2041-1.203 0-2.27-.222-3.201-.666-.924-.4441-1.651-1.1208-2.181-2.0303-.523-.9095-.784-2.0554-.784-3.4375 0-1.4037.236-2.571.709-3.502.48-.9381 1.146-1.6399 1.998-2.1054.852-.4727 1.844-.709 2.975-.709zm.022 2.331c-.638 0-1.167.2041-1.59.6123-.415.4082-.655 1.0492-.72 1.9229h4.598c-.007-.487-.097-.9203-.269-1.2998-.164-.3796-.415-.6804-.752-.9024-.329-.222-.752-.333-1.267-.333zm13.151 10.1192c-1.189 0-2.202-.2149-3.04-.6446-.838-.4368-1.475-1.11-1.912-2.0195s-.655-2.0732-.655-3.4912c0-1.4681.247-2.6641.741-3.5879.501-.931 1.192-1.6149 2.073-2.0518.888-.4368 1.916-.6552 3.083-.6552.831 0 1.547.0823 2.149.247.608.1576 1.138.3474 1.59.5694l-.967 2.5351c-.516-.2076-.996-.3759-1.44-.5048-.444-.1361-.888-.2041-1.332-.2041-.573 0-1.049.136-1.428.4082-.38.2649-.663.666-.849 1.2031s-.279 1.2103-.279 2.0195c0 .7949.1 1.4538.3 1.9766.201.5228.491.9131.871 1.1709.379.2506.841.3759 1.385.3759.681 0 1.286-.0895 1.816-.2685.53-.1862 1.045-.444 1.547-.7734v2.8037c-.502.3151-1.028.5407-1.58.6767-.544.1433-1.235.2149-2.073.2149zm17.61-6.2412c0 1.0026-.136 1.8906-.409 2.664-.265.7735-.655 1.4287-1.171 1.9658-.508.53-1.124.931-1.847 1.2032-.716.2721-1.526.4082-2.428.4082-.845 0-1.622-.1361-2.331-.4082-.702-.2722-1.314-.6732-1.837-1.2032-.515-.5371-.917-1.1923-1.203-1.9658-.279-.7734-.419-1.6614-.419-2.664 0-1.3321.236-2.46.709-3.3838.473-.9239 1.146-1.6257 2.02-2.1055.873-.4798 1.915-.7197 3.126-.7197 1.124 0 2.119.2399 2.986.7197.874.4798 1.557 1.1816 2.052 2.1055.501.9238.752 2.0517.752 3.3838zm-8.304 0c0 .7877.086 1.4502.258 1.9873s.44.9417.805 1.2138c.366.2722.842.4082 1.429.4082.58 0 1.049-.136 1.407-.4082.366-.2721.63-.6767.795-1.2138.172-.5371.258-1.1996.258-1.9873 0-.795-.086-1.4538-.258-1.9766-.165-.53-.429-.9274-.795-1.1924-.365-.265-.841-.3974-1.428-.3974-.867 0-1.497.2972-1.891.8916-.387.5944-.58 1.486-.58 2.6748zm18.082-6.209c1.282 0 2.313.3509 3.094 1.0527.78.6947 1.171 1.8119 1.171 3.3516v7.831h-3.277v-7.0146c0-.8594-.157-1.5075-.472-1.9444-.308-.4368-.795-.6552-1.461-.6552-1.003 0-1.687.3401-2.052 1.0205-.365.6803-.548 1.6614-.548 2.9433v5.6504h-3.276v-12.0097h2.503l.44 1.5361h.183c.257-.4154.576-.752.956-1.0098.386-.2578.812-.4476 1.278-.5693.473-.1218.96-.1826 1.461-.1826zm11.69 12.4502c-1.339 0-2.431-.5228-3.276-1.5684-.838-1.0527-1.257-2.596-1.257-4.6299 0-2.0553.426-3.6093 1.278-4.6621.853-1.0599 1.966-1.5898 3.341-1.5898.573 0 1.078.0788 1.515.2363.437.1576.813.3688 1.128.6338.322.265.594.5622.816.8916h.108c-.043-.2292-.097-.5658-.161-1.0098-.058-.4511-.086-.9131-.086-1.3857v-3.8457h3.287v16.7148h-2.514l-.634-1.5576h-.139c-.208.3294-.469.6302-.785.9024-.308.2649-.676.4762-1.106.6337-.43.1576-.935.2364-1.515.2364zm1.15-2.6104c.895 0 1.525-.265 1.89-.7949.373-.5371.57-1.3428.591-2.417v-.3545c0-1.1673-.179-2.0589-.537-2.6748-.358-.623-1.024-.9346-1.998-.9346-.723 0-1.289.3116-1.697.9346-.408.6231-.613 1.5218-.613 2.6963s.205 2.0589.613 2.6533c.415.5944.999.8916 1.751.8916z" fill="#fff"/><path d="m496.833 24.667v24" stroke="#90939f"/><path d="m549.284 45.6666h-3.33v-12.9336h-4.265v-2.7715h11.86v2.7715h-4.265zm9.95-16.7148v3.4053c0 .5944-.021 1.1601-.064 1.6972-.036.5371-.065.9167-.086 1.1387h.172c.258-.4154.562-.752.913-1.0098.358-.2578.752-.4476 1.182-.5693.429-.1218.891-.1826 1.385-.1826.867 0 1.622.1539 2.267.4619.644.3008 1.146.777 1.504 1.4287.358.6445.537 1.4824.537 2.5137v7.831h-3.276v-7.0146c0-.8594-.158-1.5075-.473-1.9444-.315-.4368-.802-.6552-1.461-.6552s-1.178.1539-1.558.4619c-.379.3008-.648.7484-.805 1.3428-.158.5872-.237 1.3069-.237 2.1591v5.6504h-3.276v-16.7148zm14.709 4.7051v12.0097h-3.276v-12.0097zm-1.632-4.7051c.487 0 .905.1146 1.256.3437.351.222.527.641.527 1.2569 0 .6087-.176 1.0312-.527 1.2675-.351.2292-.769.3438-1.256.3438-.495 0-.917-.1146-1.268-.3438-.344-.2363-.516-.6588-.516-1.2675 0-.6159.172-1.0349.516-1.2569.351-.2291.773-.3437 1.268-.3437zm12.034 4.4795c.164 0 .354.0107.569.0322.222.0143.401.0358.537.0645l-.247 3.0722c-.107-.0358-.261-.0609-.462-.0752-.193-.0215-.361-.0322-.505-.0322-.422 0-.834.0537-1.235.1611-.394.1075-.748.2829-1.064.5264-.315.2363-.565.5514-.751.9453-.18.3867-.269.863-.269 1.4287v6.1123h-3.276v-12.0097h2.481l.483 2.0195h.162c.236-.4082.53-.7806.88-1.1172.359-.3437.763-.6159 1.214-.8164.459-.2077.953-.3115 1.483-.3115zm7.34 12.4502c-1.34 0-2.432-.5228-3.277-1.5684-.838-1.0527-1.257-2.596-1.257-4.6299 0-2.0553.426-3.6093 1.279-4.6621.852-1.0599 1.966-1.5898 3.341-1.5898.572 0 1.077.0788 1.514.2363.437.1576.813.3688 1.128.6338.322.265.594.5622.816.8916h.108c-.043-.2292-.097-.5658-.161-1.0098-.058-.4511-.086-.9131-.086-1.3857v-3.8457h3.287v16.7148h-2.514l-.634-1.5576h-.139c-.208.3294-.469.6302-.784.9024-.308.2649-.677.4762-1.107.6337-.429.1576-.934.2364-1.514.2364zm1.149-2.6104c.895 0 1.525-.265 1.891-.7949.372-.5371.569-1.3428.59-2.417v-.3545c0-1.1673-.179-2.0589-.537-2.6748-.358-.623-1.024-.9346-1.998-.9346-.723 0-1.289.3116-1.697.9346-.408.6231-.612 1.5218-.612 2.6963s.204 2.0589.612 2.6533c.415.5944.999.8916 1.751.8916z" fill="#fff"/></g><rect height="58" rx="29" stroke="#6a6e79" stroke-width="2" width="436" x="206" y="7.667"/></svg>