<svg width="743" height="87" viewBox="0 0 743 87" fill="none" xmlns="http://www.w3.org/2000/svg"><rect x="481" y="28.5" width="12" height="57" fill="#F0F" fill-opacity=".3"/><path d="M11.8536 29.517H14.5196C15.7344 29.517 16.6153 29.6908 17.1622 30.0385C17.7129 30.3822 17.9883 30.931 17.9883 31.6849C17.9883 32.1967 17.8672 32.6166 17.625 32.9447C17.3868 33.2728 17.0684 33.4701 16.67 33.5365V33.5951C17.2129 33.7162 17.6036 33.9427 17.8418 34.2748C18.084 34.6068 18.2051 35.0482 18.2051 35.599C18.2051 36.3802 17.9219 36.9896 17.3555 37.4271C16.793 37.8646 16.0274 38.0834 15.0586 38.0834H11.8536V29.517ZM13.67 32.9095H14.7247C15.2168 32.9095 15.5723 32.8334 15.7911 32.681C16.0137 32.5287 16.125 32.2767 16.125 31.9252C16.125 31.597 16.0039 31.3627 15.7618 31.222C15.5235 31.0775 15.1446 31.0052 14.625 31.0052H13.67V32.9095ZM13.67 34.351V36.5834H14.8536C15.3536 36.5834 15.7227 36.4877 15.961 36.2963C16.1993 36.1049 16.3184 35.8119 16.3184 35.4174C16.3184 34.7064 15.8106 34.351 14.795 34.351H13.67ZM21.1273 34.7963C21.1273 35.4447 21.2327 35.9349 21.4437 36.267C21.6585 36.599 22.0062 36.765 22.4866 36.765C22.9632 36.765 23.305 36.601 23.512 36.2728C23.723 35.9408 23.8284 35.4486 23.8284 34.7963C23.8284 34.1478 23.723 33.6615 23.512 33.3373C23.3011 33.0131 22.9554 32.851 22.4749 32.851C21.9984 32.851 21.6546 33.0131 21.4437 33.3373C21.2327 33.6576 21.1273 34.1439 21.1273 34.7963ZM25.6566 34.7963C25.6566 35.8627 25.3753 36.6967 24.8128 37.2982C24.2503 37.8998 23.4671 38.2006 22.4632 38.2006C21.8343 38.2006 21.2796 38.0638 20.7991 37.7904C20.3187 37.5131 19.9495 37.1166 19.6917 36.601C19.4339 36.0853 19.305 35.4838 19.305 34.7963C19.305 33.726 19.5843 32.8939 20.1429 32.3002C20.7015 31.7064 21.4866 31.4095 22.4984 31.4095C23.1273 31.4095 23.6819 31.5463 24.1624 31.8197C24.6429 32.0931 25.012 32.4857 25.2698 32.9974C25.5277 33.5092 25.6566 34.1088 25.6566 34.7963ZM30.7174 31.4095C30.9596 31.4095 31.1607 31.4271 31.3209 31.4623L31.1861 33.1381C31.0416 33.099 30.8658 33.0795 30.6588 33.0795C30.0885 33.0795 29.6432 33.226 29.3228 33.5189C29.0064 33.8119 28.8482 34.222 28.8482 34.7494V38.0834H27.0611V31.5326H28.4146L28.6783 32.6342H28.7662C28.9693 32.267 29.2428 31.972 29.5865 31.7494C29.9342 31.5228 30.3111 31.4095 30.7174 31.4095ZM34.5126 38.2006C33.743 38.2006 33.1376 37.9017 32.6962 37.3041C32.2587 36.7064 32.0399 35.8783 32.0399 34.8197C32.0399 33.7455 32.2626 32.9095 32.7079 32.3119C33.1571 31.7103 33.7743 31.4095 34.5594 31.4095C35.3837 31.4095 36.0126 31.7299 36.4462 32.3705H36.5047C36.4149 31.8822 36.37 31.4467 36.37 31.0638V28.9662H38.1629V38.0834H36.7919L36.4462 37.2338H36.37C35.9637 37.8783 35.3446 38.2006 34.5126 38.2006ZM35.1395 36.7767C35.5965 36.7767 35.9305 36.6439 36.1415 36.3783C36.3563 36.1127 36.4735 35.6615 36.493 35.0248V34.8314C36.493 34.1283 36.3837 33.6244 36.1649 33.3197C35.9501 33.015 35.5985 32.8627 35.1102 32.8627C34.7118 32.8627 34.4012 33.0326 34.1786 33.3724C33.9598 33.7084 33.8504 34.1986 33.8504 34.8431C33.8504 35.4877 33.9618 35.972 34.1844 36.2963C34.4071 36.6166 34.7254 36.7767 35.1395 36.7767ZM42.673 32.681C42.2941 32.681 41.9972 32.8021 41.7824 33.0443C41.5675 33.2826 41.4445 33.6224 41.4132 34.0638H43.921C43.9132 33.6224 43.798 33.2826 43.5753 33.0443C43.3527 32.8021 43.0519 32.681 42.673 32.681ZM42.9249 38.2006C41.8702 38.2006 41.046 37.9095 40.4523 37.3275C39.8585 36.7455 39.5617 35.9213 39.5617 34.8549C39.5617 33.7572 39.8351 32.9095 40.382 32.3119C40.9327 31.7103 41.6925 31.4095 42.6613 31.4095C43.587 31.4095 44.3077 31.6732 44.8234 32.2006C45.339 32.7279 45.5968 33.4564 45.5968 34.3861V35.2533H41.3722C41.3917 35.7611 41.5421 36.1576 41.8234 36.4427C42.1046 36.7279 42.4992 36.8705 43.007 36.8705C43.4015 36.8705 43.7745 36.8295 44.1261 36.7474C44.4777 36.6654 44.8449 36.5345 45.2277 36.3549V37.7377C44.9152 37.8939 44.5812 38.0092 44.2257 38.0834C43.8702 38.1615 43.4367 38.2006 42.9249 38.2006ZM50.6342 31.4095C50.8764 31.4095 51.0775 31.4271 51.2377 31.4623L51.1029 33.1381C50.9584 33.099 50.7826 33.0795 50.5756 33.0795C50.0053 33.0795 49.56 33.226 49.2397 33.5189C48.9232 33.8119 48.765 34.222 48.765 34.7494V38.0834H46.9779V31.5326H48.3314L48.5951 32.6342H48.683C48.8861 32.267 49.1596 31.972 49.5033 31.7494C49.851 31.5228 50.2279 31.4095 50.6342 31.4095ZM51.7751 35.599V34.1342H54.9216V35.599H51.7751ZM59.8066 31.4095C60.0488 31.4095 60.25 31.4271 60.4101 31.4623L60.2753 33.1381C60.1308 33.099 59.955 33.0795 59.748 33.0795C59.1777 33.0795 58.7324 33.226 58.4121 33.5189C58.0957 33.8119 57.9375 34.222 57.9375 34.7494V38.0834H56.1503V31.5326H57.5039L57.7675 32.6342H57.8554C58.0585 32.267 58.332 31.972 58.6757 31.7494C59.0234 31.5228 59.4003 31.4095 59.8066 31.4095ZM65.6877 38.0834L65.342 37.1927H65.2951C64.9944 37.5717 64.6838 37.8353 64.3635 37.9838C64.0471 38.1283 63.633 38.2006 63.1213 38.2006C62.4924 38.2006 61.9963 38.0209 61.633 37.6615C61.2737 37.3021 61.094 36.7904 61.094 36.1263C61.094 35.431 61.3362 34.9193 61.8205 34.5912C62.3088 34.2592 63.0432 34.0756 64.0237 34.0404L65.1604 34.0052V33.7181C65.1604 33.0541 64.8205 32.722 64.1408 32.722C63.6174 32.722 63.0022 32.8802 62.2951 33.1967L61.7033 31.9896C62.4572 31.5951 63.2932 31.3978 64.2112 31.3978C65.0901 31.3978 65.7639 31.5892 66.2326 31.972C66.7014 32.3549 66.9358 32.9369 66.9358 33.7181V38.0834H65.6877ZM65.1604 35.0482L64.469 35.0717C63.9494 35.0873 63.5627 35.181 63.3088 35.3529C63.0549 35.5248 62.9279 35.7865 62.9279 36.1381C62.9279 36.642 63.217 36.8939 63.7951 36.8939C64.2092 36.8939 64.5393 36.7748 64.7854 36.5365C65.0354 36.2982 65.1604 35.9818 65.1604 35.5873V35.0482ZM70.7837 38.2006C70.0142 38.2006 69.4087 37.9017 68.9673 37.3041C68.5298 36.7064 68.311 35.8783 68.311 34.8197C68.311 33.7455 68.5337 32.9095 68.979 32.3119C69.4282 31.7103 70.0454 31.4095 70.8306 31.4095C71.6548 31.4095 72.2837 31.7299 72.7173 32.3705H72.7759C72.686 31.8822 72.6411 31.4467 72.6411 31.0638V28.9662H74.4341V38.0834H73.063L72.7173 37.2338H72.6411C72.2349 37.8783 71.6157 38.2006 70.7837 38.2006ZM71.4106 36.7767C71.8677 36.7767 72.2017 36.6439 72.4126 36.3783C72.6274 36.1127 72.7446 35.6615 72.7642 35.0248V34.8314C72.7642 34.1283 72.6548 33.6244 72.436 33.3197C72.2212 33.015 71.8696 32.8627 71.3813 32.8627C70.9829 32.8627 70.6724 33.0326 70.4497 33.3724C70.2309 33.7084 70.1216 34.1986 70.1216 34.8431C70.1216 35.4877 70.2329 35.972 70.4556 36.2963C70.6782 36.6166 70.9966 36.7767 71.4106 36.7767ZM76.155 29.8392C76.155 29.2572 76.4793 28.9662 77.1277 28.9662C77.7761 28.9662 78.1004 29.2572 78.1004 29.8392C78.1004 30.1166 78.0183 30.3334 77.8543 30.4896C77.6941 30.642 77.4519 30.7181 77.1277 30.7181C76.4793 30.7181 76.155 30.4252 76.155 29.8392ZM78.0183 38.0834H76.2312V31.5326H78.0183V38.0834ZM84.4678 38.0834L84.2276 37.2455H84.1338C83.9424 37.5502 83.6709 37.7865 83.3194 37.9545C82.9678 38.1185 82.5674 38.2006 82.1182 38.2006C81.3487 38.2006 80.7686 37.9955 80.378 37.5853C79.9873 37.1713 79.792 36.5775 79.792 35.8041V31.5326H81.5791V35.3588C81.5791 35.8314 81.6631 36.1869 81.8311 36.4252C81.9991 36.6595 82.2666 36.7767 82.6338 36.7767C83.1338 36.7767 83.4952 36.6107 83.7178 36.2787C83.9405 35.9427 84.0518 35.3881 84.0518 34.6146V31.5326H85.8389V38.0834H84.4678ZM92.2122 36.1381C92.2122 36.8099 91.9778 37.3217 91.5091 37.6732C91.0442 38.0248 90.347 38.2006 89.4173 38.2006C88.9407 38.2006 88.5345 38.1674 88.1985 38.101C87.8626 38.0385 87.5481 37.9447 87.2552 37.8197V36.3431C87.5872 36.4994 87.9603 36.6302 88.3743 36.7357C88.7923 36.8412 89.1595 36.8939 89.4759 36.8939C90.1243 36.8939 90.4485 36.7064 90.4485 36.3314C90.4485 36.1908 90.4056 36.0775 90.3196 35.9916C90.2337 35.9017 90.0853 35.8021 89.8743 35.6927C89.6634 35.5795 89.3821 35.4486 89.0306 35.3002C88.5267 35.0892 88.1556 34.8939 87.9173 34.7142C87.6829 34.5345 87.511 34.3295 87.4017 34.099C87.2962 33.8646 87.2435 33.5775 87.2435 33.2377C87.2435 32.6556 87.4681 32.2064 87.9173 31.89C88.3704 31.5697 89.011 31.4095 89.8392 31.4095C90.6282 31.4095 91.3958 31.5814 92.1419 31.9252L91.6028 33.2142C91.2747 33.0736 90.9681 32.9584 90.6829 32.8685C90.3978 32.7787 90.1067 32.7338 89.8099 32.7338C89.2825 32.7338 89.0189 32.8763 89.0189 33.1615C89.0189 33.3217 89.1028 33.4603 89.2708 33.5775C89.4427 33.6947 89.8157 33.8685 90.3899 34.099C90.9017 34.306 91.2767 34.4994 91.5149 34.6791C91.7532 34.8588 91.929 35.0658 92.0423 35.3002C92.1556 35.5345 92.2122 35.8138 92.2122 36.1381ZM93.2828 37.2455C93.2828 36.9174 93.3707 36.6693 93.5465 36.5013C93.7222 36.3334 93.9781 36.2494 94.314 36.2494C94.6383 36.2494 94.8883 36.3353 95.064 36.5072C95.2437 36.6791 95.3336 36.9252 95.3336 37.2455C95.3336 37.5541 95.2437 37.7982 95.064 37.9779C94.8844 38.1537 94.6344 38.2416 94.314 38.2416C93.9859 38.2416 93.732 38.1556 93.5523 37.9838C93.3726 37.808 93.2828 37.5619 93.2828 37.2455ZM93.2828 32.4056C93.2828 32.0775 93.3707 31.8295 93.5465 31.6615C93.7222 31.4935 93.9781 31.4095 94.314 31.4095C94.6383 31.4095 94.8883 31.4955 95.064 31.6674C95.2437 31.8392 95.3336 32.0853 95.3336 32.4056C95.3336 32.722 95.2418 32.9681 95.0582 33.1439C94.8785 33.3158 94.6304 33.4017 94.314 33.4017C93.9859 33.4017 93.732 33.3158 93.5523 33.1439C93.3726 32.972 93.2828 32.726 93.2828 32.4056ZM102.414 29.3939C103.195 29.3939 103.815 29.5756 104.272 29.9388C104.729 30.3021 104.957 30.8041 104.957 31.4447C104.957 31.8666 104.826 32.2513 104.565 32.599C104.303 32.9467 103.885 33.2631 103.311 33.5482C104.006 33.8802 104.5 34.2299 104.793 34.597C105.086 34.9603 105.233 35.3822 105.233 35.8627C105.233 36.5736 104.984 37.142 104.488 37.5677C103.992 37.9896 103.313 38.2006 102.449 38.2006C101.535 38.2006 100.832 38.0013 100.34 37.6029C99.8478 37.2006 99.6017 36.6322 99.6017 35.8978C99.6017 34.9174 100.199 34.1537 101.395 33.6068C100.856 33.3021 100.469 32.974 100.234 32.6224C100 32.267 99.8829 31.8705 99.8829 31.433C99.8829 30.8119 100.111 30.3177 100.568 29.9506C101.029 29.5795 101.645 29.3939 102.414 29.3939ZM100.563 35.9213C100.563 36.39 100.725 36.7552 101.049 37.017C101.377 37.2787 101.836 37.4095 102.426 37.4095C103.008 37.4095 103.461 37.2728 103.785 36.9994C104.109 36.726 104.272 36.351 104.272 35.8744C104.272 35.4955 104.119 35.1595 103.815 34.8666C103.51 34.5697 102.979 34.2826 102.221 34.0052C101.639 34.2552 101.217 34.5326 100.955 34.8373C100.693 35.1381 100.563 35.4994 100.563 35.9213ZM102.402 30.1849C101.914 30.1849 101.531 30.3021 101.254 30.5365C100.977 30.7709 100.838 31.0834 100.838 31.474C100.838 31.8334 100.953 32.142 101.184 32.3998C101.414 32.6576 101.84 32.9154 102.461 33.1732C103.02 32.9388 103.414 32.6869 103.645 32.4174C103.879 32.1478 103.996 31.8334 103.996 31.474C103.996 31.0795 103.854 30.767 103.568 30.5365C103.287 30.3021 102.899 30.1849 102.402 30.1849ZM111.19 37.222H111.137C110.688 37.8744 110.016 38.2006 109.121 38.2006C108.282 38.2006 107.627 37.9135 107.159 37.3392C106.694 36.765 106.461 35.9486 106.461 34.89C106.461 33.8314 106.696 33.0092 107.164 32.4232C107.633 31.8373 108.286 31.5443 109.121 31.5443C109.993 31.5443 110.661 31.8607 111.125 32.4935H111.202L111.161 32.0306L111.137 31.5795V28.9662H112.11V38.0834H111.319L111.19 37.222ZM109.245 37.3861C109.909 37.3861 110.389 37.2064 110.686 36.847C110.987 36.4838 111.137 35.8998 111.137 35.0951V34.89C111.137 33.9799 110.985 33.3314 110.68 32.9447C110.379 32.5541 109.897 32.3588 109.233 32.3588C108.662 32.3588 108.225 32.5814 107.92 33.0267C107.62 33.4681 107.469 34.0931 107.469 34.9017C107.469 35.722 107.62 36.3412 107.92 36.7592C108.221 37.1771 108.662 37.3861 109.245 37.3861ZM117.094 38.2006C116.676 38.2006 116.294 38.1244 115.946 37.972C115.602 37.8158 115.313 37.5775 115.079 37.2572H115.008C115.055 37.6322 115.079 37.9877 115.079 38.3236V40.9662H114.106V31.6615H114.897L115.032 32.5404H115.079C115.329 32.1888 115.62 31.9349 115.952 31.7787C116.284 31.6224 116.665 31.5443 117.094 31.5443C117.946 31.5443 118.602 31.8353 119.063 32.4174C119.528 32.9994 119.76 33.8158 119.76 34.8666C119.76 35.9213 119.524 36.7416 119.051 37.3275C118.583 37.9095 117.93 38.2006 117.094 38.2006ZM116.954 32.3705C116.298 32.3705 115.823 32.5521 115.53 32.9154C115.237 33.2787 115.087 33.8568 115.079 34.6498V34.8666C115.079 35.7689 115.229 36.4154 115.53 36.806C115.831 37.1927 116.313 37.3861 116.977 37.3861C117.532 37.3861 117.965 37.1615 118.278 36.7123C118.594 36.2631 118.753 35.6439 118.753 34.8549C118.753 34.0541 118.594 33.4408 118.278 33.015C117.965 32.5853 117.524 32.3705 116.954 32.3705ZM16.9102 55.7045C16.9102 56.4779 16.6309 57.0873 16.0723 57.5326C15.5176 57.9779 14.7442 58.2006 13.752 58.2006C12.8379 58.2006 12.0293 58.0287 11.3262 57.6849V55.9974C11.9043 56.2552 12.3926 56.4369 12.7911 56.5424C13.1934 56.6478 13.5606 56.7006 13.8926 56.7006C14.2911 56.7006 14.5957 56.6244 14.8067 56.472C15.0215 56.3197 15.1289 56.0931 15.1289 55.7924C15.1289 55.6244 15.0821 55.476 14.9883 55.347C14.8946 55.2142 14.7559 55.0873 14.5723 54.9662C14.3926 54.8451 14.0235 54.6517 13.4649 54.3861C12.9414 54.14 12.5489 53.9037 12.2872 53.6771C12.0254 53.4506 11.8164 53.1869 11.6602 52.8861C11.5039 52.5853 11.4258 52.2338 11.4258 51.8314C11.4258 51.0736 11.6817 50.4779 12.1934 50.0443C12.709 49.6107 13.42 49.3939 14.3262 49.3939C14.7715 49.3939 15.1954 49.4467 15.5977 49.5521C16.0039 49.6576 16.4278 49.806 16.8692 49.9974L16.2832 51.4095C15.8262 51.222 15.4473 51.0912 15.1465 51.017C14.8497 50.9427 14.5567 50.9056 14.2676 50.9056C13.9239 50.9056 13.6602 50.9857 13.4766 51.1459C13.293 51.306 13.2012 51.515 13.2012 51.7728C13.2012 51.933 13.2383 52.0736 13.3125 52.1947C13.3868 52.3119 13.5039 52.4271 13.6641 52.5404C13.8282 52.6498 14.2129 52.849 14.8184 53.1381C15.6192 53.5209 16.168 53.9056 16.4649 54.2924C16.7618 54.6752 16.9102 55.1459 16.9102 55.7045ZM21.0101 56.7767C21.3226 56.7767 21.6976 56.7084 22.1351 56.5717V57.9017C21.6898 58.101 21.1429 58.2006 20.4944 58.2006C19.7796 58.2006 19.2581 58.0209 18.93 57.6615C18.6058 57.2982 18.4437 56.7552 18.4437 56.0326V52.8744H17.5882V52.1185L18.5726 51.5209L19.0882 50.1381H20.2308V51.5326H22.0648V52.8744H20.2308V56.0326C20.2308 56.2865 20.3011 56.474 20.4417 56.5951C20.5862 56.7162 20.7757 56.7767 21.0101 56.7767ZM24.817 54.7963C24.817 55.4447 24.9224 55.9349 25.1334 56.267C25.3482 56.599 25.6959 56.765 26.1764 56.765C26.6529 56.765 26.9947 56.601 27.2017 56.2728C27.4127 55.9408 27.5182 55.4486 27.5182 54.7963C27.5182 54.1478 27.4127 53.6615 27.2017 53.3373C26.9908 53.0131 26.6451 52.851 26.1646 52.851C25.6881 52.851 25.3443 53.0131 25.1334 53.3373C24.9224 53.6576 24.817 54.1439 24.817 54.7963ZM29.3463 54.7963C29.3463 55.8627 29.065 56.6967 28.5025 57.2982C27.94 57.8998 27.1568 58.2006 26.1529 58.2006C25.524 58.2006 24.9693 58.0638 24.4889 57.7904C24.0084 57.5131 23.6392 57.1166 23.3814 56.601C23.1236 56.0853 22.9947 55.4838 22.9947 54.7963C22.9947 53.726 23.274 52.8939 23.8326 52.3002C24.3912 51.7064 25.1764 51.4095 26.1881 51.4095C26.817 51.4095 27.3717 51.5463 27.8521 51.8197C28.3326 52.0931 28.7017 52.4857 28.9596 52.9974C29.2174 53.5092 29.3463 54.1088 29.3463 54.7963ZM32.4676 54.5209L33.2469 53.5248L35.0809 51.5326H37.0965L34.495 54.3744L37.2547 58.0834H35.1922L33.3055 55.4291L32.5379 56.0443V58.0834H30.7508V48.9662H32.5379V53.0326L32.4442 54.5209H32.4676ZM40.8331 52.681C40.4542 52.681 40.1574 52.8021 39.9425 53.0443C39.7277 53.2826 39.6046 53.6224 39.5734 54.0638H42.0812C42.0734 53.6224 41.9581 53.2826 41.7355 53.0443C41.5128 52.8021 41.212 52.681 40.8331 52.681ZM41.0851 58.2006C40.0304 58.2006 39.2062 57.9095 38.6124 57.3275C38.0187 56.7455 37.7218 55.9213 37.7218 54.8549C37.7218 53.7572 37.9952 52.9095 38.5421 52.3119C39.0929 51.7103 39.8527 51.4095 40.8214 51.4095C41.7472 51.4095 42.4679 51.6732 42.9835 52.2006C43.4992 52.7279 43.757 53.4564 43.757 54.3861V55.2533H39.5324C39.5519 55.7611 39.7023 56.1576 39.9835 56.4427C40.2648 56.7279 40.6593 56.8705 41.1671 56.8705C41.5617 56.8705 41.9347 56.8295 42.2863 56.7474C42.6378 56.6654 43.005 56.5345 43.3878 56.3549V57.7377C43.0753 57.8939 42.7413 58.0092 42.3859 58.0834C42.0304 58.1615 41.5968 58.2006 41.0851 58.2006ZM44.8861 57.2455C44.8861 56.9174 44.974 56.6693 45.1498 56.5013C45.3256 56.3334 45.5814 56.2494 45.9174 56.2494C46.2416 56.2494 46.4916 56.3353 46.6674 56.5072C46.8471 56.6791 46.9369 56.9252 46.9369 57.2455C46.9369 57.5541 46.8471 57.7982 46.6674 57.9779C46.4877 58.1537 46.2377 58.2416 45.9174 58.2416C45.5893 58.2416 45.3354 58.1556 45.1557 57.9838C44.976 57.808 44.8861 57.5619 44.8861 57.2455ZM44.8861 52.4056C44.8861 52.0775 44.974 51.8295 45.1498 51.6615C45.3256 51.4935 45.5814 51.4095 45.9174 51.4095C46.2416 51.4095 46.4916 51.4955 46.6674 51.6674C46.8471 51.8392 46.9369 52.0853 46.9369 52.4056C46.9369 52.722 46.8451 52.9681 46.6615 53.1439C46.4818 53.3158 46.2338 53.4017 45.9174 53.4017C45.5893 53.4017 45.3354 53.3158 45.1557 53.1439C44.976 52.972 44.8861 52.726 44.8861 52.4056ZM56.8125 58.0834H51.1816V57.2455L53.4375 54.9779C54.125 54.2826 54.5781 53.7865 54.7968 53.4896C55.0156 53.1927 55.1796 52.9037 55.289 52.6224C55.3984 52.3412 55.4531 52.0385 55.4531 51.7142C55.4531 51.2572 55.3144 50.8959 55.0371 50.6302C54.7597 50.3607 54.375 50.226 53.8828 50.226C53.5273 50.226 53.1894 50.2845 52.8691 50.4017C52.5527 50.5189 52.1992 50.7318 51.8085 51.0404L51.2929 50.3783C52.082 49.722 52.9414 49.3939 53.871 49.3939C54.6757 49.3939 55.3066 49.601 55.7636 50.015C56.2207 50.4252 56.4492 50.9779 56.4492 51.6732C56.4492 52.2162 56.2968 52.7533 55.9921 53.2845C55.6875 53.8158 55.1171 54.4877 54.2812 55.3002L52.4062 57.1342V57.181H56.8125V58.0834ZM62.7932 57.222H62.7404C62.2912 57.8744 61.6194 58.2006 60.7248 58.2006C59.885 58.2006 59.2307 57.9135 58.7619 57.3392C58.2971 56.765 58.0647 55.9486 58.0647 54.89C58.0647 53.8314 58.299 53.0092 58.7678 52.4232C59.2365 51.8373 59.8889 51.5443 60.7248 51.5443C61.5959 51.5443 62.2639 51.8607 62.7287 52.4935H62.8049L62.7639 52.0306L62.7404 51.5795V48.9662H63.7131V58.0834H62.9221L62.7932 57.222ZM60.8479 57.3861C61.5119 57.3861 61.9924 57.2064 62.2893 56.847C62.5901 56.4838 62.7404 55.8998 62.7404 55.0951V54.89C62.7404 53.9799 62.5881 53.3314 62.2834 52.9447C61.9826 52.5541 61.5002 52.3588 60.8362 52.3588C60.2658 52.3588 59.8283 52.5814 59.5237 53.0267C59.2229 53.4681 59.0725 54.0931 59.0725 54.9017C59.0725 55.722 59.2229 56.3412 59.5237 56.7592C59.8244 57.1771 60.2658 57.3861 60.8479 57.3861ZM68.6977 58.2006C68.2798 58.2006 67.897 58.1244 67.5493 57.972C67.2056 57.8158 66.9165 57.5775 66.6821 57.2572H66.6118C66.6587 57.6322 66.6821 57.9877 66.6821 58.3236V60.9662H65.7095V51.6615H66.5005L66.6352 52.5404H66.6821C66.9321 52.1888 67.2231 51.9349 67.5552 51.7787C67.8872 51.6224 68.2681 51.5443 68.6977 51.5443C69.5493 51.5443 70.2056 51.8353 70.6665 52.4174C71.1313 52.9994 71.3638 53.8158 71.3638 54.8666C71.3638 55.9213 71.1274 56.7416 70.6548 57.3275C70.186 57.9095 69.5337 58.2006 68.6977 58.2006ZM68.5571 52.3705C67.9009 52.3705 67.4263 52.5521 67.1333 52.9154C66.8403 53.2787 66.6899 53.8568 66.6821 54.6498V54.8666C66.6821 55.7689 66.8325 56.4154 67.1333 56.806C67.4341 57.1927 67.9165 57.3861 68.5806 57.3861C69.1352 57.3861 69.5688 57.1615 69.8813 56.7123C70.1977 56.2631 70.3559 55.6439 70.3559 54.8549C70.3559 54.0541 70.1977 53.4408 69.8813 53.015C69.5688 52.5853 69.1274 52.3705 68.5571 52.3705Z" fill="#000"/><path d="M1 80.4167V7.41675H143.104V21.5915L150.5 32.2226L143.104 42.1449V80.4167H1Z" stroke="#CCC"/><g clip-path="url(#clip0_7380_86098)"><rect x="198" y="28.5" width="138" height="57" rx="6.5" fill="#353A40"/><path d="M259.5 44.6667C258.91 44.6667 258.351 44.7838 257.841 44.9951C257.331 45.2067 256.746 44.9646 256.535 44.4544C256.323 43.9443 256.565 43.3592 257.075 43.1477C257.823 42.8374 258.643 42.6667 259.5 42.6667H261.5C262.052 42.6667 262.5 43.1144 262.5 43.6667C262.5 44.219 262.052 44.6667 261.5 44.6667H259.5Z" fill="#fff"/><path d="M264.5 43.6667C264.5 43.1144 264.948 42.6667 265.5 42.6667H269.5C270.052 42.6667 270.5 43.1144 270.5 43.6667C270.5 44.219 270.052 44.6667 269.5 44.6667H265.5C264.948 44.6667 264.5 44.219 264.5 43.6667Z" fill="#fff"/><path d="M272.5 43.6667C272.5 43.1144 272.948 42.6667 273.5 42.6667H275.5C276.357 42.6667 277.176 42.8374 277.924 43.1477C278.435 43.3592 278.677 43.9443 278.465 44.4544C278.254 44.9646 277.668 45.2067 277.158 44.9951C276.649 44.7838 276.089 44.6667 275.5 44.6667H273.5C272.948 44.6667 272.5 44.219 272.5 43.6667Z" fill="#fff"/><path d="M254.954 46.0348C255.464 46.2463 255.706 46.8314 255.495 47.3415C255.284 47.8511 255.167 48.4106 255.167 49V51C255.167 51.5523 254.719 52 254.167 52C253.614 52 253.167 51.5523 253.167 51V49C253.167 48.1431 253.337 47.3236 253.647 46.5754C253.859 46.0653 254.444 45.8232 254.954 46.0348Z" fill="#fff"/><path d="M280.045 46.0348C280.556 45.8232 281.141 46.0653 281.352 46.5754C281.662 47.3236 281.833 48.1431 281.833 49V51C281.833 51.5523 281.385 52 280.833 52C280.281 52 279.833 51.5523 279.833 51V49C279.833 48.4106 279.716 47.8511 279.505 47.3415C279.293 46.8314 279.535 46.2463 280.045 46.0348Z" fill="#fff"/><path d="M254.167 54C254.719 54 255.167 54.4477 255.167 55V59C255.167 59.5523 254.719 60 254.167 60C253.614 60 253.167 59.5523 253.167 59V55C253.167 54.4477 253.614 54 254.167 54Z" fill="#fff"/><path d="M280.833 54C281.385 54 281.833 54.4477 281.833 55V59C281.833 59.5523 281.385 60 280.833 60C280.281 60 279.833 59.5523 279.833 59V55C279.833 54.4477 280.281 54 280.833 54Z" fill="#fff"/><path d="M254.167 62C254.719 62 255.167 62.4477 255.167 63V65C255.167 65.5894 255.284 66.149 255.495 66.6585C255.706 67.1687 255.464 67.7537 254.954 67.9653C254.444 68.1768 253.859 67.9348 253.647 67.4246C253.337 66.6765 253.167 65.8569 253.167 65V63C253.167 62.4477 253.614 62 254.167 62Z" fill="#fff"/><path d="M280.833 62C281.385 62 281.833 62.4477 281.833 63V65C281.833 65.8569 281.662 66.6765 281.352 67.4246C281.141 67.9348 280.556 68.1768 280.045 67.9653C279.535 67.7537 279.293 67.1687 279.505 66.6585C279.716 66.149 279.833 65.5894 279.833 65V63C279.833 62.4477 280.281 62 280.833 62Z" fill="#fff"/><path d="M256.535 69.5456C256.746 69.0354 257.331 68.7934 257.841 69.0049C258.351 69.2162 258.91 69.3334 259.5 69.3334H261.5C262.052 69.3334 262.5 69.7811 262.5 70.3334C262.5 70.8856 262.052 71.3334 261.5 71.3334H259.5C258.643 71.3334 257.823 71.1626 257.075 70.8524C256.565 70.6408 256.323 70.0558 256.535 69.5456Z" fill="#fff"/><path d="M278.465 69.5456C278.677 70.0558 278.435 70.6408 277.924 70.8524C277.176 71.1626 276.357 71.3334 275.5 71.3334H273.5C272.948 71.3334 272.5 70.8856 272.5 70.3334C272.5 69.7811 272.948 69.3334 273.5 69.3334H275.5C276.089 69.3334 276.649 69.2162 277.158 69.0049C277.668 68.7934 278.254 69.0354 278.465 69.5456Z" fill="#fff"/><path d="M264.5 70.3334C264.5 69.7811 264.948 69.3334 265.5 69.3334H269.5C270.052 69.3334 270.5 69.7811 270.5 70.3334C270.5 70.8856 270.052 71.3334 269.5 71.3334H265.5C264.948 71.3334 264.5 70.8856 264.5 70.3334Z" fill="#fff"/><path d="M278.874 47.1213C279.264 46.7308 279.264 46.0977 278.874 45.7071C278.483 45.3166 277.85 45.3166 277.459 45.7071L276.131 47.0354C275.741 47.4259 275.741 48.0591 276.131 48.4496C276.522 48.8401 277.155 48.8401 277.545 48.4496L278.874 47.1213Z" fill="#fff"/><path d="M274.889 51.1062C275.279 50.7157 275.279 50.0825 274.889 49.692C274.498 49.3014 273.865 49.3014 273.475 49.692L270.818 52.3485C270.427 52.739 270.427 53.3722 270.818 53.7627C271.209 54.1533 271.842 54.1533 272.232 53.7627L274.889 51.1062Z" fill="#fff"/><path d="M269.576 56.4193C269.966 56.0288 269.966 55.3956 269.576 55.0051C269.185 54.6146 268.552 54.6146 268.161 55.0051L267.5 55.6667L266.838 55.0051C266.448 54.6146 265.815 54.6146 265.424 55.0051C265.033 55.3956 265.033 56.0288 265.424 56.4193L266.086 57.0809L265.505 57.6616C265.114 58.0522 265.114 58.6853 265.505 59.0758C265.895 59.4664 266.529 59.4664 266.919 59.0758L267.5 58.4951L268.081 59.0758C268.471 59.4664 269.104 59.4664 269.495 59.0758C269.885 58.6853 269.885 58.0522 269.495 57.6616L268.914 57.0809L269.576 56.4193Z" fill="#fff"/><path d="M264.263 61.7324C264.653 61.3419 264.653 60.7087 264.263 60.3182C263.872 59.9277 263.239 59.9277 262.848 60.3182L260.192 62.9747C259.801 63.3653 259.801 63.9984 260.192 64.389C260.582 64.7795 261.215 64.7795 261.606 64.389L264.263 61.7324Z" fill="#fff"/><path d="M258.949 67.0455C259.34 66.655 259.34 66.0218 258.949 65.6313C258.559 65.2408 257.926 65.2408 257.535 65.6313L256.207 66.9596C255.816 67.3501 255.816 67.9833 256.207 68.3738C256.597 68.7643 257.231 68.7643 257.621 68.3738L258.949 67.0455Z" fill="#fff"/><path d="M277.379 68.3738C277.769 68.7643 278.402 68.7643 278.793 68.3738C279.183 67.9833 279.183 67.3501 278.793 66.9596L277.464 65.6313C277.074 65.2408 276.441 65.2408 276.05 65.6313C275.66 66.0218 275.66 66.655 276.05 67.0455L277.379 68.3738Z" fill="#fff"/><path d="M273.394 64.389C273.784 64.7795 274.417 64.7795 274.808 64.389C275.198 63.9984 275.198 63.3653 274.808 62.9747L272.151 60.3182C271.761 59.9277 271.128 59.9277 270.737 60.3182C270.347 60.7087 270.347 61.3419 270.737 61.7324L273.394 64.389Z" fill="#fff"/><path d="M262.767 53.7627C263.158 54.1533 263.791 54.1533 264.182 53.7627C264.572 53.3722 264.572 52.739 264.182 52.3485L261.525 49.692C261.135 49.3014 260.501 49.3014 260.111 49.692C259.72 50.0825 259.72 50.7157 260.111 51.1062L262.767 53.7627Z" fill="#fff"/><path d="M257.454 48.4496C257.845 48.8401 258.478 48.8401 258.869 48.4496C259.259 48.0591 259.259 47.4259 258.869 47.0354L257.54 45.7071C257.15 45.3166 256.517 45.3166 256.126 45.7071C255.736 46.0977 255.736 46.7308 256.126 47.1213L257.454 48.4496Z" fill="#fff"/><path d="M263.574 50.1854C263.972 50.0651 264.394 50 264.833 50H265.833C266.385 50 266.833 49.5523 266.833 49C266.833 48.4477 266.385 48 265.833 48H264.833C264.195 48 263.578 48.0947 262.995 48.2713C262.466 48.4315 262.167 48.9898 262.327 49.5183C262.488 50.0469 263.046 50.3455 263.574 50.1854Z" fill="#fff"/><path d="M269.167 48C268.614 48 268.167 48.4477 268.167 49C268.167 49.5523 268.614 50 269.167 50H270.167C270.606 50 271.028 50.0651 271.425 50.1854C271.954 50.3455 272.512 50.0469 272.672 49.5183C272.832 48.9898 272.534 48.4315 272.005 48.2713C271.422 48.0947 270.804 48 270.167 48H269.167Z" fill="#fff"/><path d="M260.685 53.0746C260.845 52.546 260.547 51.9877 260.018 51.8276C259.49 51.6675 258.931 51.9661 258.771 52.4947C258.594 53.0778 258.5 53.6954 258.5 54.3334V55.3334C258.5 55.8856 258.948 56.3334 259.5 56.3334C260.052 56.3334 260.5 55.8856 260.5 55.3334V54.3334C260.5 53.894 260.565 53.4717 260.685 53.0746Z" fill="#fff"/><path d="M276.229 52.4947C276.068 51.9661 275.51 51.6675 274.982 51.8276C274.453 51.9877 274.154 52.546 274.314 53.0746C274.435 53.4717 274.5 53.894 274.5 54.3334V55.3334C274.5 55.8856 274.948 56.3334 275.5 56.3334C276.052 56.3334 276.5 55.8856 276.5 55.3334V54.3334C276.5 53.6954 276.405 53.0778 276.229 52.4947Z" fill="#fff"/><path d="M260.5 58.6667C260.5 58.1144 260.052 57.6667 259.5 57.6667C258.948 57.6667 258.5 58.1144 258.5 58.6667V59.6667C258.5 60.3046 258.594 60.9222 258.771 61.5054C258.931 62.0339 259.49 62.3326 260.018 62.1724C260.547 62.0123 260.845 61.454 260.685 60.9254C260.565 60.5283 260.5 60.106 260.5 59.6667V58.6667Z" fill="#fff"/><path d="M276.5 58.6667C276.5 58.1144 276.052 57.6667 275.5 57.6667C274.948 57.6667 274.5 58.1144 274.5 58.6667V59.6667C274.5 60.106 274.435 60.5283 274.314 60.9254C274.154 61.454 274.453 62.0123 274.982 62.1724C275.51 62.3326 276.068 62.0339 276.229 61.5054C276.405 60.9222 276.5 60.3046 276.5 59.6667V58.6667Z" fill="#fff"/><path d="M263.574 63.8146C263.046 63.6545 262.488 63.9532 262.327 64.4817C262.167 65.0103 262.466 65.5686 262.995 65.7287C263.578 65.9054 264.195 66 264.833 66H265.833C266.385 66 266.833 65.5523 266.833 65C266.833 64.4477 266.385 64 265.833 64H264.833C264.394 64 263.972 63.935 263.574 63.8146Z" fill="#fff"/><path d="M272.005 65.7287C272.534 65.5686 272.832 65.0103 272.672 64.4817C272.512 63.9532 271.954 63.6545 271.425 63.8146C271.028 63.935 270.606 64 270.167 64H269.167C268.614 64 268.167 64.4477 268.167 65C268.167 65.5523 268.614 66 269.167 66H270.167C270.804 66 271.422 65.9054 272.005 65.7287Z" fill="#fff"/><rect x="198" y="28.5" width="138" height="57" rx="6.5" stroke="#353A40"/><path d="M400.5 44.6667C399.91 44.6667 399.351 44.7838 398.841 44.9951C398.331 45.2067 397.746 44.9646 397.535 44.4544C397.323 43.9443 397.565 43.3592 398.075 43.1477C398.823 42.8374 399.643 42.6667 400.5 42.6667H402.5C403.052 42.6667 403.5 43.1144 403.5 43.6667C403.5 44.219 403.052 44.6667 402.5 44.6667H400.5Z" fill="#353A40"/><path d="M405.5 43.6667C405.5 43.1144 405.948 42.6667 406.5 42.6667H410.5C411.052 42.6667 411.5 43.1144 411.5 43.6667C411.5 44.219 411.052 44.6667 410.5 44.6667H406.5C405.948 44.6667 405.5 44.219 405.5 43.6667Z" fill="#353A40"/><path d="M413.5 43.6667C413.5 43.1144 413.948 42.6667 414.5 42.6667H416.5C417.357 42.6667 418.176 42.8374 418.924 43.1477C419.435 43.3592 419.677 43.9443 419.465 44.4544C419.254 44.9646 418.668 45.2067 418.158 44.9951C417.649 44.7838 417.089 44.6667 416.5 44.6667H414.5C413.948 44.6667 413.5 44.219 413.5 43.6667Z" fill="#353A40"/><path d="M395.954 46.0348C396.464 46.2463 396.706 46.8314 396.495 47.3415C396.284 47.8511 396.167 48.4106 396.167 49V51C396.167 51.5523 395.719 52 395.167 52C394.614 52 394.167 51.5523 394.167 51V49C394.167 48.1431 394.337 47.3236 394.647 46.5754C394.859 46.0653 395.444 45.8232 395.954 46.0348Z" fill="#353A40"/><path d="M421.045 46.0348C421.556 45.8232 422.141 46.0653 422.352 46.5754C422.662 47.3236 422.833 48.1431 422.833 49V51C422.833 51.5523 422.385 52 421.833 52C421.281 52 420.833 51.5523 420.833 51V49C420.833 48.4106 420.716 47.8511 420.505 47.3415C420.293 46.8314 420.535 46.2463 421.045 46.0348Z" fill="#353A40"/><path d="M395.167 54C395.719 54 396.167 54.4477 396.167 55V59C396.167 59.5523 395.719 60 395.167 60C394.614 60 394.167 59.5523 394.167 59V55C394.167 54.4477 394.614 54 395.167 54Z" fill="#353A40"/><path d="M421.833 54C422.385 54 422.833 54.4477 422.833 55V59C422.833 59.5523 422.385 60 421.833 60C421.281 60 420.833 59.5523 420.833 59V55C420.833 54.4477 421.281 54 421.833 54Z" fill="#353A40"/><path d="M395.167 62C395.719 62 396.167 62.4477 396.167 63V65C396.167 65.5894 396.284 66.149 396.495 66.6585C396.706 67.1687 396.464 67.7537 395.954 67.9653C395.444 68.1768 394.859 67.9348 394.647 67.4246C394.337 66.6765 394.167 65.8569 394.167 65V63C394.167 62.4477 394.614 62 395.167 62Z" fill="#353A40"/><path d="M421.833 62C422.385 62 422.833 62.4477 422.833 63V65C422.833 65.8569 422.662 66.6765 422.352 67.4246C422.141 67.9348 421.556 68.1768 421.045 67.9653C420.535 67.7537 420.293 67.1687 420.505 66.6585C420.716 66.149 420.833 65.5894 420.833 65V63C420.833 62.4477 421.281 62 421.833 62Z" fill="#353A40"/><path d="M397.535 69.5456C397.746 69.0354 398.331 68.7934 398.841 69.0049C399.351 69.2162 399.91 69.3334 400.5 69.3334H402.5C403.052 69.3334 403.5 69.7811 403.5 70.3334C403.5 70.8856 403.052 71.3334 402.5 71.3334H400.5C399.643 71.3334 398.823 71.1626 398.075 70.8524C397.565 70.6408 397.323 70.0558 397.535 69.5456Z" fill="#353A40"/><path d="M419.465 69.5456C419.677 70.0558 419.435 70.6408 418.924 70.8524C418.176 71.1626 417.357 71.3334 416.5 71.3334H414.5C413.948 71.3334 413.5 70.8856 413.5 70.3334C413.5 69.7811 413.948 69.3334 414.5 69.3334H416.5C417.089 69.3334 417.649 69.2162 418.158 69.0049C418.668 68.7934 419.254 69.0354 419.465 69.5456Z" fill="#353A40"/><path d="M405.5 70.3334C405.5 69.7811 405.948 69.3334 406.5 69.3334H410.5C411.052 69.3334 411.5 69.7811 411.5 70.3334C411.5 70.8856 411.052 71.3334 410.5 71.3334H406.5C405.948 71.3334 405.5 70.8856 405.5 70.3334Z" fill="#353A40"/><path d="M419.874 47.1213C420.264 46.7308 420.264 46.0977 419.874 45.7071C419.483 45.3166 418.85 45.3166 418.459 45.7071L417.131 47.0354C416.741 47.4259 416.741 48.0591 417.131 48.4496C417.522 48.8401 418.155 48.8401 418.545 48.4496L419.874 47.1213Z" fill="#353A40"/><path d="M415.889 51.1062C416.279 50.7157 416.279 50.0825 415.889 49.692C415.498 49.3014 414.865 49.3014 414.475 49.692L411.818 52.3485C411.427 52.739 411.427 53.3722 411.818 53.7627C412.209 54.1533 412.842 54.1533 413.232 53.7627L415.889 51.1062Z" fill="#353A40"/><path d="M410.576 56.4193C410.966 56.0288 410.966 55.3956 410.576 55.0051C410.185 54.6146 409.552 54.6146 409.161 55.0051L408.5 55.6667L407.838 55.0051C407.448 54.6146 406.815 54.6146 406.424 55.0051C406.033 55.3956 406.033 56.0288 406.424 56.4193L407.086 57.0809L406.505 57.6616C406.114 58.0522 406.114 58.6853 406.505 59.0758C406.895 59.4664 407.529 59.4664 407.919 59.0758L408.5 58.4951L409.081 59.0758C409.471 59.4664 410.104 59.4664 410.495 59.0758C410.885 58.6853 410.885 58.0522 410.495 57.6616L409.914 57.0809L410.576 56.4193Z" fill="#353A40"/><path d="M405.263 61.7324C405.653 61.3419 405.653 60.7087 405.263 60.3182C404.872 59.9277 404.239 59.9277 403.848 60.3182L401.192 62.9747C400.801 63.3653 400.801 63.9984 401.192 64.389C401.582 64.7795 402.215 64.7795 402.606 64.389L405.263 61.7324Z" fill="#353A40"/><path d="M399.949 67.0455C400.34 66.655 400.34 66.0218 399.949 65.6313C399.559 65.2408 398.926 65.2408 398.535 65.6313L397.207 66.9596C396.816 67.3501 396.816 67.9833 397.207 68.3738C397.597 68.7643 398.231 68.7643 398.621 68.3738L399.949 67.0455Z" fill="#353A40"/><path d="M418.379 68.3738C418.769 68.7643 419.402 68.7643 419.793 68.3738C420.183 67.9833 420.183 67.3501 419.793 66.9596L418.464 65.6313C418.074 65.2408 417.441 65.2408 417.05 65.6313C416.66 66.0218 416.66 66.655 417.05 67.0455L418.379 68.3738Z" fill="#353A40"/><path d="M414.394 64.389C414.784 64.7795 415.417 64.7795 415.808 64.389C416.198 63.9984 416.198 63.3653 415.808 62.9747L413.151 60.3182C412.761 59.9277 412.128 59.9277 411.737 60.3182C411.347 60.7087 411.347 61.3419 411.737 61.7324L414.394 64.389Z" fill="#353A40"/><path d="M403.767 53.7627C404.158 54.1533 404.791 54.1533 405.182 53.7627C405.572 53.3722 405.572 52.739 405.182 52.3485L402.525 49.692C402.135 49.3014 401.501 49.3014 401.111 49.692C400.72 50.0825 400.72 50.7157 401.111 51.1062L403.767 53.7627Z" fill="#353A40"/><path d="M398.454 48.4496C398.845 48.8401 399.478 48.8401 399.869 48.4496C400.259 48.0591 400.259 47.4259 399.869 47.0354L398.54 45.7071C398.15 45.3166 397.517 45.3166 397.126 45.7071C396.736 46.0977 396.736 46.7308 397.126 47.1213L398.454 48.4496Z" fill="#353A40"/><path d="M404.574 50.1854C404.972 50.0651 405.394 50 405.833 50H406.833C407.385 50 407.833 49.5523 407.833 49C407.833 48.4477 407.385 48 406.833 48H405.833C405.195 48 404.578 48.0947 403.995 48.2713C403.466 48.4315 403.167 48.9898 403.327 49.5183C403.488 50.0469 404.046 50.3455 404.574 50.1854Z" fill="#353A40"/><path d="M410.167 48C409.614 48 409.167 48.4477 409.167 49C409.167 49.5523 409.614 50 410.167 50H411.167C411.606 50 412.028 50.0651 412.425 50.1854C412.954 50.3455 413.512 50.0469 413.672 49.5183C413.832 48.9898 413.534 48.4315 413.005 48.2713C412.422 48.0947 411.804 48 411.167 48H410.167Z" fill="#353A40"/><path d="M401.685 53.0746C401.845 52.546 401.547 51.9877 401.018 51.8276C400.49 51.6675 399.931 51.9661 399.771 52.4947C399.594 53.0778 399.5 53.6954 399.5 54.3334V55.3334C399.5 55.8856 399.948 56.3334 400.5 56.3334C401.052 56.3334 401.5 55.8856 401.5 55.3334V54.3334C401.5 53.894 401.565 53.4717 401.685 53.0746Z" fill="#353A40"/><path d="M417.229 52.4947C417.068 51.9661 416.51 51.6675 415.982 51.8276C415.453 51.9877 415.154 52.546 415.314 53.0746C415.435 53.4717 415.5 53.894 415.5 54.3334V55.3334C415.5 55.8856 415.948 56.3334 416.5 56.3334C417.052 56.3334 417.5 55.8856 417.5 55.3334V54.3334C417.5 53.6954 417.405 53.0778 417.229 52.4947Z" fill="#353A40"/><path d="M401.5 58.6667C401.5 58.1144 401.052 57.6667 400.5 57.6667C399.948 57.6667 399.5 58.1144 399.5 58.6667V59.6667C399.5 60.3046 399.594 60.9222 399.771 61.5054C399.931 62.0339 400.49 62.3326 401.018 62.1724C401.547 62.0123 401.845 61.454 401.685 60.9254C401.565 60.5283 401.5 60.106 401.5 59.6667V58.6667Z" fill="#353A40"/><path d="M417.5 58.6667C417.5 58.1144 417.052 57.6667 416.5 57.6667C415.948 57.6667 415.5 58.1144 415.5 58.6667V59.6667C415.5 60.106 415.435 60.5283 415.314 60.9254C415.154 61.454 415.453 62.0123 415.982 62.1724C416.51 62.3326 417.068 62.0339 417.229 61.5054C417.405 60.9222 417.5 60.3046 417.5 59.6667V58.6667Z" fill="#353A40"/><path d="M404.574 63.8146C404.046 63.6545 403.488 63.9532 403.327 64.4817C403.167 65.0103 403.466 65.5686 403.995 65.7287C404.578 65.9054 405.195 66 405.833 66H406.833C407.385 66 407.833 65.5523 407.833 65C407.833 64.4477 407.385 64 406.833 64H405.833C405.394 64 404.972 63.935 404.574 63.8146Z" fill="#353A40"/><path d="M413.005 65.7287C413.534 65.5686 413.832 65.0103 413.672 64.4817C413.512 63.9532 412.954 63.6545 412.425 63.8146C412.028 63.935 411.606 64 411.167 64H410.167C409.614 64 409.167 64.4477 409.167 65C409.167 65.5523 409.614 66 410.167 66H411.167C411.804 66 412.422 65.9054 413.005 65.7287Z" fill="#353A40"/><line x1="481" y1="45" x2="481" y2="69" stroke="#90939F"/><path d="M545.5 44.6667C544.91 44.6667 544.351 44.7838 543.841 44.9951C543.331 45.2067 542.746 44.9646 542.535 44.4544C542.323 43.9443 542.565 43.3592 543.075 43.1477C543.823 42.8374 544.643 42.6667 545.5 42.6667H547.5C548.052 42.6667 548.5 43.1144 548.5 43.6667C548.5 44.219 548.052 44.6667 547.5 44.6667H545.5Z" fill="#353A40"/><path d="M550.5 43.6667C550.5 43.1144 550.948 42.6667 551.5 42.6667H555.5C556.052 42.6667 556.5 43.1144 556.5 43.6667C556.5 44.219 556.052 44.6667 555.5 44.6667H551.5C550.948 44.6667 550.5 44.219 550.5 43.6667Z" fill="#353A40"/><path d="M558.5 43.6667C558.5 43.1144 558.948 42.6667 559.5 42.6667H561.5C562.357 42.6667 563.176 42.8374 563.924 43.1477C564.435 43.3592 564.677 43.9443 564.465 44.4544C564.254 44.9646 563.668 45.2067 563.158 44.9951C562.649 44.7838 562.089 44.6667 561.5 44.6667H559.5C558.948 44.6667 558.5 44.219 558.5 43.6667Z" fill="#353A40"/><path d="M540.954 46.0348C541.464 46.2463 541.706 46.8314 541.495 47.3415C541.284 47.8511 541.167 48.4106 541.167 49V51C541.167 51.5523 540.719 52 540.167 52C539.614 52 539.167 51.5523 539.167 51V49C539.167 48.1431 539.337 47.3236 539.647 46.5754C539.859 46.0653 540.444 45.8232 540.954 46.0348Z" fill="#353A40"/><path d="M566.045 46.0348C566.556 45.8232 567.141 46.0653 567.352 46.5754C567.662 47.3236 567.833 48.1431 567.833 49V51C567.833 51.5523 567.385 52 566.833 52C566.281 52 565.833 51.5523 565.833 51V49C565.833 48.4106 565.716 47.8511 565.505 47.3415C565.293 46.8314 565.535 46.2463 566.045 46.0348Z" fill="#353A40"/><path d="M540.167 54C540.719 54 541.167 54.4477 541.167 55V59C541.167 59.5523 540.719 60 540.167 60C539.614 60 539.167 59.5523 539.167 59V55C539.167 54.4477 539.614 54 540.167 54Z" fill="#353A40"/><path d="M566.833 54C567.385 54 567.833 54.4477 567.833 55V59C567.833 59.5523 567.385 60 566.833 60C566.281 60 565.833 59.5523 565.833 59V55C565.833 54.4477 566.281 54 566.833 54Z" fill="#353A40"/><path d="M540.167 62C540.719 62 541.167 62.4477 541.167 63V65C541.167 65.5894 541.284 66.149 541.495 66.6585C541.706 67.1687 541.464 67.7537 540.954 67.9653C540.444 68.1768 539.859 67.9348 539.647 67.4246C539.337 66.6765 539.167 65.8569 539.167 65V63C539.167 62.4477 539.614 62 540.167 62Z" fill="#353A40"/><path d="M566.833 62C567.385 62 567.833 62.4477 567.833 63V65C567.833 65.8569 567.662 66.6765 567.352 67.4246C567.141 67.9348 566.556 68.1768 566.045 67.9653C565.535 67.7537 565.293 67.1687 565.505 66.6585C565.716 66.149 565.833 65.5894 565.833 65V63C565.833 62.4477 566.281 62 566.833 62Z" fill="#353A40"/><path d="M542.535 69.5456C542.746 69.0354 543.331 68.7934 543.841 69.0049C544.351 69.2162 544.91 69.3334 545.5 69.3334H547.5C548.052 69.3334 548.5 69.7811 548.5 70.3334C548.5 70.8856 548.052 71.3334 547.5 71.3334H545.5C544.643 71.3334 543.823 71.1626 543.075 70.8524C542.565 70.6408 542.323 70.0558 542.535 69.5456Z" fill="#353A40"/><path d="M564.465 69.5456C564.677 70.0558 564.435 70.6408 563.924 70.8524C563.176 71.1626 562.357 71.3334 561.5 71.3334H559.5C558.948 71.3334 558.5 70.8856 558.5 70.3334C558.5 69.7811 558.948 69.3334 559.5 69.3334H561.5C562.089 69.3334 562.649 69.2162 563.158 69.0049C563.668 68.7934 564.254 69.0354 564.465 69.5456Z" fill="#353A40"/><path d="M550.5 70.3334C550.5 69.7811 550.948 69.3334 551.5 69.3334H555.5C556.052 69.3334 556.5 69.7811 556.5 70.3334C556.5 70.8856 556.052 71.3334 555.5 71.3334H551.5C550.948 71.3334 550.5 70.8856 550.5 70.3334Z" fill="#353A40"/><path d="M564.874 47.1213C565.264 46.7308 565.264 46.0977 564.874 45.7071C564.483 45.3166 563.85 45.3166 563.459 45.7071L562.131 47.0354C561.741 47.4259 561.741 48.0591 562.131 48.4496C562.522 48.8401 563.155 48.8401 563.545 48.4496L564.874 47.1213Z" fill="#353A40"/><path d="M560.889 51.1062C561.279 50.7157 561.279 50.0825 560.889 49.692C560.498 49.3014 559.865 49.3014 559.475 49.692L556.818 52.3485C556.427 52.739 556.427 53.3722 556.818 53.7627C557.209 54.1533 557.842 54.1533 558.232 53.7627L560.889 51.1062Z" fill="#353A40"/><path d="M555.576 56.4193C555.966 56.0288 555.966 55.3956 555.576 55.0051C555.185 54.6146 554.552 54.6146 554.161 55.0051L553.5 55.6667L552.838 55.0051C552.448 54.6146 551.815 54.6146 551.424 55.0051C551.033 55.3956 551.033 56.0288 551.424 56.4193L552.086 57.0809L551.505 57.6616C551.114 58.0522 551.114 58.6853 551.505 59.0758C551.895 59.4664 552.529 59.4664 552.919 59.0758L553.5 58.4951L554.081 59.0758C554.471 59.4664 555.104 59.4664 555.495 59.0758C555.885 58.6853 555.885 58.0522 555.495 57.6616L554.914 57.0809L555.576 56.4193Z" fill="#353A40"/><path d="M550.263 61.7324C550.653 61.3419 550.653 60.7087 550.263 60.3182C549.872 59.9277 549.239 59.9277 548.848 60.3182L546.192 62.9747C545.801 63.3653 545.801 63.9984 546.192 64.389C546.582 64.7795 547.215 64.7795 547.606 64.389L550.263 61.7324Z" fill="#353A40"/><path d="M544.949 67.0455C545.34 66.655 545.34 66.0218 544.949 65.6313C544.559 65.2408 543.926 65.2408 543.535 65.6313L542.207 66.9596C541.816 67.3501 541.816 67.9833 542.207 68.3738C542.597 68.7643 543.231 68.7643 543.621 68.3738L544.949 67.0455Z" fill="#353A40"/><path d="M563.379 68.3738C563.769 68.7643 564.402 68.7643 564.793 68.3738C565.183 67.9833 565.183 67.3501 564.793 66.9596L563.464 65.6313C563.074 65.2408 562.441 65.2408 562.05 65.6313C561.66 66.0218 561.66 66.655 562.05 67.0455L563.379 68.3738Z" fill="#353A40"/><path d="M559.394 64.389C559.784 64.7795 560.417 64.7795 560.808 64.389C561.198 63.9984 561.198 63.3653 560.808 62.9747L558.151 60.3182C557.761 59.9277 557.128 59.9277 556.737 60.3182C556.347 60.7087 556.347 61.3419 556.737 61.7324L559.394 64.389Z" fill="#353A40"/><path d="M548.767 53.7627C549.158 54.1533 549.791 54.1533 550.182 53.7627C550.572 53.3722 550.572 52.739 550.182 52.3485L547.525 49.692C547.135 49.3014 546.501 49.3014 546.111 49.692C545.72 50.0825 545.72 50.7157 546.111 51.1062L548.767 53.7627Z" fill="#353A40"/><path d="M543.454 48.4496C543.845 48.8401 544.478 48.8401 544.869 48.4496C545.259 48.0591 545.259 47.4259 544.869 47.0354L543.54 45.7071C543.15 45.3166 542.517 45.3166 542.126 45.7071C541.736 46.0977 541.736 46.7308 542.126 47.1213L543.454 48.4496Z" fill="#353A40"/><path d="M549.574 50.1854C549.972 50.0651 550.394 50 550.833 50H551.833C552.385 50 552.833 49.5523 552.833 49C552.833 48.4477 552.385 48 551.833 48H550.833C550.195 48 549.578 48.0947 548.995 48.2713C548.466 48.4315 548.167 48.9898 548.327 49.5183C548.488 50.0469 549.046 50.3455 549.574 50.1854Z" fill="#353A40"/><path d="M555.167 48C554.614 48 554.167 48.4477 554.167 49C554.167 49.5523 554.614 50 555.167 50H556.167C556.606 50 557.028 50.0651 557.425 50.1854C557.954 50.3455 558.512 50.0469 558.672 49.5183C558.832 48.9898 558.534 48.4315 558.005 48.2713C557.422 48.0947 556.804 48 556.167 48H555.167Z" fill="#353A40"/><path d="M546.685 53.0746C546.845 52.546 546.547 51.9877 546.018 51.8276C545.49 51.6675 544.931 51.9661 544.771 52.4947C544.594 53.0778 544.5 53.6954 544.5 54.3334V55.3334C544.5 55.8856 544.948 56.3334 545.5 56.3334C546.052 56.3334 546.5 55.8856 546.5 55.3334V54.3334C546.5 53.894 546.565 53.4717 546.685 53.0746Z" fill="#353A40"/><path d="M562.229 52.4947C562.068 51.9661 561.51 51.6675 560.982 51.8276C560.453 51.9877 560.154 52.546 560.314 53.0746C560.435 53.4717 560.5 53.894 560.5 54.3334V55.3334C560.5 55.8856 560.948 56.3334 561.5 56.3334C562.052 56.3334 562.5 55.8856 562.5 55.3334V54.3334C562.5 53.6954 562.405 53.0778 562.229 52.4947Z" fill="#353A40"/><path d="M546.5 58.6667C546.5 58.1144 546.052 57.6667 545.5 57.6667C544.948 57.6667 544.5 58.1144 544.5 58.6667V59.6667C544.5 60.3046 544.594 60.9222 544.771 61.5054C544.931 62.0339 545.49 62.3326 546.018 62.1724C546.547 62.0123 546.845 61.454 546.685 60.9254C546.565 60.5283 546.5 60.106 546.5 59.6667V58.6667Z" fill="#353A40"/><path d="M562.5 58.6667C562.5 58.1144 562.052 57.6667 561.5 57.6667C560.948 57.6667 560.5 58.1144 560.5 58.6667V59.6667C560.5 60.106 560.435 60.5283 560.314 60.9254C560.154 61.454 560.453 62.0123 560.982 62.1724C561.51 62.3326 562.068 62.0339 562.229 61.5054C562.405 60.9222 562.5 60.3046 562.5 59.6667V58.6667Z" fill="#353A40"/><path d="M549.574 63.8146C549.046 63.6545 548.488 63.9532 548.327 64.4817C548.167 65.0103 548.466 65.5686 548.995 65.7287C549.578 65.9054 550.195 66 550.833 66H551.833C552.385 66 552.833 65.5523 552.833 65C552.833 64.4477 552.385 64 551.833 64H550.833C550.394 64 549.972 63.935 549.574 63.8146Z" fill="#353A40"/><path d="M558.005 65.7287C558.534 65.5686 558.832 65.0103 558.672 64.4817C558.512 63.9532 557.954 63.6545 557.425 63.8146C557.028 63.935 556.606 64 556.167 64H555.167C554.614 64 554.167 64.4477 554.167 65C554.167 65.5523 554.614 66 555.167 66H556.167C556.804 66 557.422 65.9054 558.005 65.7287Z" fill="#353A40"/></g><rect x="197.5" y="28" width="425" height="58" rx="9" stroke="#353A40" stroke-width="2"/><path d="M634.444 63H633.337V55.877C633.337 55.2845 633.355 54.724 633.392 54.1953C633.296 54.291 633.189 54.3913 633.07 54.4961C632.952 54.6009 632.41 55.0452 631.443 55.8291L630.842 55.0498L633.487 53.0059H634.444V63ZM644.737 63H638.168V62.0225L640.8 59.377C641.602 58.5658 642.131 57.987 642.386 57.6406C642.641 57.2943 642.832 56.957 642.96 56.6289C643.088 56.3008 643.151 55.9476 643.151 55.5693C643.151 55.0361 642.99 54.6146 642.666 54.3047C642.342 53.9902 641.894 53.833 641.319 53.833C640.905 53.833 640.51 53.9014 640.137 54.0381C639.768 54.1748 639.355 54.4232 638.899 54.7832L638.298 54.0107C639.218 53.2451 640.221 52.8623 641.306 52.8623C642.244 52.8623 642.98 53.1038 643.514 53.5869C644.047 54.0654 644.314 54.7103 644.314 55.5215C644.314 56.1549 644.136 56.7816 643.78 57.4014C643.425 58.0212 642.759 58.805 641.784 59.7529L639.597 61.8926V61.9473H644.737V63ZM651.715 61.9951H651.653C651.129 62.7562 650.345 63.1367 649.302 63.1367C648.322 63.1367 647.559 62.8018 647.012 62.1318C646.469 61.4619 646.198 60.5094 646.198 59.2744C646.198 58.0394 646.472 57.0801 647.019 56.3965C647.565 55.7129 648.327 55.3711 649.302 55.3711C650.318 55.3711 651.097 55.7402 651.64 56.4785H651.729L651.681 55.9385L651.653 55.4121V52.3633H652.788V63H651.865L651.715 61.9951ZM649.445 62.1865C650.22 62.1865 650.781 61.9769 651.127 61.5576C651.478 61.1338 651.653 60.4525 651.653 59.5137V59.2744C651.653 58.2126 651.476 57.4561 651.12 57.0049C650.769 56.5492 650.206 56.3213 649.432 56.3213C648.766 56.3213 648.256 56.5811 647.9 57.1006C647.549 57.6156 647.374 58.3447 647.374 59.2881C647.374 60.2451 647.549 60.9674 647.9 61.4551C648.251 61.9427 648.766 62.1865 649.445 62.1865ZM658.604 63.1367C658.116 63.1367 657.669 63.0479 657.264 62.8701C656.863 62.6878 656.525 62.4098 656.252 62.0361H656.17C656.225 62.4736 656.252 62.8883 656.252 63.2803V66.3633H655.117V55.5078H656.04L656.197 56.5332H656.252C656.544 56.123 656.883 55.8268 657.271 55.6445C657.658 55.4622 658.102 55.3711 658.604 55.3711C659.597 55.3711 660.363 55.7106 660.9 56.3896C661.443 57.0687 661.714 58.0212 661.714 59.2471C661.714 60.4775 661.438 61.4346 660.887 62.1182C660.34 62.7972 659.579 63.1367 658.604 63.1367ZM658.439 56.335C657.674 56.335 657.12 56.5469 656.778 56.9707C656.437 57.3945 656.261 58.069 656.252 58.9941V59.2471C656.252 60.2998 656.427 61.054 656.778 61.5098C657.129 61.9609 657.692 62.1865 658.467 62.1865C659.114 62.1865 659.62 61.9245 659.984 61.4004C660.354 60.8763 660.538 60.154 660.538 59.2334C660.538 58.2992 660.354 57.5837 659.984 57.0869C659.62 56.5856 659.105 56.335 658.439 56.335Z" fill="#E8178A"/><path d="M538.781 17.7031H537.298V20H536.211V17.7031H531.351V16.7119L536.095 9.95117H537.298V16.6709H538.781V17.7031ZM536.211 16.6709V13.3486C536.211 12.6969 536.234 11.9609 536.279 11.1406H536.225C536.006 11.5781 535.801 11.9404 535.609 12.2275L532.485 16.6709H536.211ZM542.977 9.8623C543.888 9.8623 544.61 10.0742 545.144 10.498C545.677 10.9219 545.943 11.5075 545.943 12.2549C545.943 12.7471 545.791 13.196 545.485 13.6016C545.18 14.0072 544.692 14.3763 544.022 14.709C544.834 15.0964 545.41 15.5042 545.752 15.9326C546.094 16.3564 546.265 16.8486 546.265 17.4092C546.265 18.2386 545.975 18.9017 545.397 19.3984C544.818 19.8906 544.025 20.1367 543.018 20.1367C541.951 20.1367 541.131 19.9043 540.557 19.4395C539.982 18.9701 539.695 18.307 539.695 17.4502C539.695 16.3063 540.393 15.4154 541.787 14.7773C541.158 14.4219 540.707 14.0391 540.434 13.6289C540.16 13.2142 540.023 12.7516 540.023 12.2412C540.023 11.5166 540.29 10.9401 540.823 10.5117C541.361 10.0788 542.079 9.8623 542.977 9.8623ZM540.816 17.4775C540.816 18.0244 541.006 18.4505 541.384 18.7559C541.767 19.0612 542.302 19.2139 542.99 19.2139C543.669 19.2139 544.198 19.0544 544.576 18.7354C544.954 18.4163 545.144 17.9788 545.144 17.4229C545.144 16.9808 544.966 16.5889 544.61 16.2471C544.255 15.9007 543.635 15.5658 542.751 15.2422C542.072 15.5339 541.58 15.8574 541.274 16.2129C540.969 16.5638 540.816 16.9854 540.816 17.4775ZM542.963 10.7852C542.393 10.7852 541.947 10.9219 541.623 11.1953C541.3 11.4688 541.138 11.8333 541.138 12.2891C541.138 12.7083 541.272 13.0684 541.541 13.3691C541.81 13.6699 542.307 13.9707 543.031 14.2715C543.683 13.998 544.143 13.7041 544.412 13.3896C544.686 13.0752 544.822 12.7083 544.822 12.2891C544.822 11.8288 544.656 11.4642 544.323 11.1953C543.995 10.9219 543.542 10.7852 542.963 10.7852ZM553.215 18.9951H553.153C552.629 19.7562 551.845 20.1367 550.802 20.1367C549.822 20.1367 549.059 19.8018 548.512 19.1318C547.969 18.4619 547.698 17.5094 547.698 16.2744C547.698 15.0394 547.972 14.0801 548.519 13.3965C549.065 12.7129 549.827 12.3711 550.802 12.3711C551.818 12.3711 552.597 12.7402 553.14 13.4785H553.229L553.181 12.9385L553.153 12.4121V9.36328H554.288V20H553.365L553.215 18.9951ZM550.945 19.1865C551.72 19.1865 552.281 18.9769 552.627 18.5576C552.978 18.1338 553.153 17.4525 553.153 16.5137V16.2744C553.153 15.2126 552.976 14.4561 552.62 14.0049C552.269 13.5492 551.706 13.3213 550.932 13.3213C550.266 13.3213 549.756 13.5811 549.4 14.1006C549.049 14.6156 548.874 15.3447 548.874 16.2881C548.874 17.2451 549.049 17.9674 549.4 18.4551C549.751 18.9427 550.266 19.1865 550.945 19.1865ZM560.104 20.1367C559.616 20.1367 559.169 20.0479 558.764 19.8701C558.363 19.6878 558.025 19.4098 557.752 19.0361H557.67C557.725 19.4736 557.752 19.8883 557.752 20.2803V23.3633H556.617V12.5078H557.54L557.697 13.5332H557.752C558.044 13.123 558.383 12.8268 558.771 12.6445C559.158 12.4622 559.602 12.3711 560.104 12.3711C561.097 12.3711 561.863 12.7106 562.4 13.3896C562.943 14.0687 563.214 15.0212 563.214 16.2471C563.214 17.4775 562.938 18.4346 562.387 19.1182C561.84 19.7972 561.079 20.1367 560.104 20.1367ZM559.939 13.335C559.174 13.335 558.62 13.5469 558.278 13.9707C557.937 14.3945 557.761 15.069 557.752 15.9941V16.2471C557.752 17.2998 557.927 18.054 558.278 18.5098C558.629 18.9609 559.192 19.1865 559.967 19.1865C560.614 19.1865 561.12 18.9245 561.484 18.4004C561.854 17.8763 562.038 17.154 562.038 16.2334C562.038 15.2992 561.854 14.5837 561.484 14.0869C561.12 13.5856 560.605 13.335 559.939 13.335Z" fill="#E8178A"/><path d="M402.781 16.7031H401.298V19H400.211V16.7031H395.351V15.7119L400.095 8.95117H401.298V15.6709H402.781V16.7031ZM400.211 15.6709V12.3486C400.211 11.6969 400.234 10.9609 400.279 10.1406H400.225C400.006 10.5781 399.801 10.9404 399.609 11.2275L396.485 15.6709H400.211ZM406.977 8.8623C407.888 8.8623 408.61 9.07422 409.144 9.49805C409.677 9.92188 409.943 10.5075 409.943 11.2549C409.943 11.7471 409.791 12.196 409.485 12.6016C409.18 13.0072 408.692 13.3763 408.022 13.709C408.834 14.0964 409.41 14.5042 409.752 14.9326C410.094 15.3564 410.265 15.8486 410.265 16.4092C410.265 17.2386 409.975 17.9017 409.397 18.3984C408.818 18.8906 408.025 19.1367 407.018 19.1367C405.951 19.1367 405.131 18.9043 404.557 18.4395C403.982 17.9701 403.695 17.307 403.695 16.4502C403.695 15.3063 404.393 14.4154 405.787 13.7773C405.158 13.4219 404.707 13.0391 404.434 12.6289C404.16 12.2142 404.023 11.7516 404.023 11.2412C404.023 10.5166 404.29 9.9401 404.823 9.51172C405.361 9.07878 406.079 8.8623 406.977 8.8623ZM404.816 16.4775C404.816 17.0244 405.006 17.4505 405.384 17.7559C405.767 18.0612 406.302 18.2139 406.99 18.2139C407.669 18.2139 408.198 18.0544 408.576 17.7354C408.954 17.4163 409.144 16.9788 409.144 16.4229C409.144 15.9808 408.966 15.5889 408.61 15.2471C408.255 14.9007 407.635 14.5658 406.751 14.2422C406.072 14.5339 405.58 14.8574 405.274 15.2129C404.969 15.5638 404.816 15.9854 404.816 16.4775ZM406.963 9.78516C406.393 9.78516 405.947 9.92188 405.623 10.1953C405.3 10.4688 405.138 10.8333 405.138 11.2891C405.138 11.7083 405.272 12.0684 405.541 12.3691C405.81 12.6699 406.307 12.9707 407.031 13.2715C407.683 12.998 408.143 12.7041 408.412 12.3896C408.686 12.0752 408.822 11.7083 408.822 11.2891C408.822 10.8288 408.656 10.4642 408.323 10.1953C407.995 9.92188 407.542 9.78516 406.963 9.78516ZM417.215 17.9951H417.153C416.629 18.7562 415.845 19.1367 414.802 19.1367C413.822 19.1367 413.059 18.8018 412.512 18.1318C411.969 17.4619 411.698 16.5094 411.698 15.2744C411.698 14.0394 411.972 13.0801 412.519 12.3965C413.065 11.7129 413.827 11.3711 414.802 11.3711C415.818 11.3711 416.597 11.7402 417.14 12.4785H417.229L417.181 11.9385L417.153 11.4121V8.36328H418.288V19H417.365L417.215 17.9951ZM414.945 18.1865C415.72 18.1865 416.281 17.9769 416.627 17.5576C416.978 17.1338 417.153 16.4525 417.153 15.5137V15.2744C417.153 14.2126 416.976 13.4561 416.62 13.0049C416.269 12.5492 415.706 12.3213 414.932 12.3213C414.266 12.3213 413.756 12.5811 413.4 13.1006C413.049 13.6156 412.874 14.3447 412.874 15.2881C412.874 16.2451 413.049 16.9674 413.4 17.4551C413.751 17.9427 414.266 18.1865 414.945 18.1865ZM424.104 19.1367C423.616 19.1367 423.169 19.0479 422.764 18.8701C422.363 18.6878 422.025 18.4098 421.752 18.0361H421.67C421.725 18.4736 421.752 18.8883 421.752 19.2803V22.3633H420.617V11.5078H421.54L421.697 12.5332H421.752C422.044 12.123 422.383 11.8268 422.771 11.6445C423.158 11.4622 423.602 11.3711 424.104 11.3711C425.097 11.3711 425.863 11.7106 426.4 12.3896C426.943 13.0687 427.214 14.0212 427.214 15.2471C427.214 16.4775 426.938 17.4346 426.387 18.1182C425.84 18.7972 425.079 19.1367 424.104 19.1367ZM423.939 12.335C423.174 12.335 422.62 12.5469 422.278 12.9707C421.937 13.3945 421.761 14.069 421.752 14.9941V15.2471C421.752 16.2998 421.927 17.054 422.278 17.5098C422.629 17.9609 423.192 18.1865 423.967 18.1865C424.614 18.1865 425.12 17.9245 425.484 17.4004C425.854 16.8763 426.038 16.154 426.038 15.2334C426.038 14.2992 425.854 13.5837 425.484 13.0869C425.12 12.5856 424.605 12.335 423.939 12.335Z" fill="#E8178A"/><path d="M257.781 13.2031H256.298V15.5H255.211V13.2031H250.351V12.2119L255.095 5.45117H256.298V12.1709H257.781V13.2031ZM255.211 12.1709V8.84863C255.211 8.19694 255.234 7.46094 255.279 6.64062H255.225C255.006 7.07812 254.801 7.44043 254.609 7.72754L251.485 12.1709H255.211ZM261.977 5.3623C262.888 5.3623 263.61 5.57422 264.144 5.99805C264.677 6.42188 264.943 7.00749 264.943 7.75488C264.943 8.24707 264.791 8.69596 264.485 9.10156C264.18 9.50716 263.692 9.8763 263.022 10.209C263.834 10.5964 264.41 11.0042 264.752 11.4326C265.094 11.8564 265.265 12.3486 265.265 12.9092C265.265 13.7386 264.975 14.4017 264.397 14.8984C263.818 15.3906 263.025 15.6367 262.018 15.6367C260.951 15.6367 260.131 15.4043 259.557 14.9395C258.982 14.4701 258.695 13.807 258.695 12.9502C258.695 11.8063 259.393 10.9154 260.787 10.2773C260.158 9.92188 259.707 9.53906 259.434 9.12891C259.16 8.71419 259.023 8.25163 259.023 7.74121C259.023 7.0166 259.29 6.4401 259.823 6.01172C260.361 5.57878 261.079 5.3623 261.977 5.3623ZM259.816 12.9775C259.816 13.5244 260.006 13.9505 260.384 14.2559C260.767 14.5612 261.302 14.7139 261.99 14.7139C262.669 14.7139 263.198 14.5544 263.576 14.2354C263.954 13.9163 264.144 13.4788 264.144 12.9229C264.144 12.4808 263.966 12.0889 263.61 11.7471C263.255 11.4007 262.635 11.0658 261.751 10.7422C261.072 11.0339 260.58 11.3574 260.274 11.7129C259.969 12.0638 259.816 12.4854 259.816 12.9775ZM261.963 6.28516C261.393 6.28516 260.947 6.42188 260.623 6.69531C260.3 6.96875 260.138 7.33333 260.138 7.78906C260.138 8.20833 260.272 8.56836 260.541 8.86914C260.81 9.16992 261.307 9.4707 262.031 9.77148C262.683 9.49805 263.143 9.2041 263.412 8.88965C263.686 8.5752 263.822 8.20833 263.822 7.78906C263.822 7.32878 263.656 6.96419 263.323 6.69531C262.995 6.42188 262.542 6.28516 261.963 6.28516ZM272.215 14.4951H272.153C271.629 15.2562 270.845 15.6367 269.802 15.6367C268.822 15.6367 268.059 15.3018 267.512 14.6318C266.969 13.9619 266.698 13.0094 266.698 11.7744C266.698 10.5394 266.972 9.58008 267.519 8.89648C268.065 8.21289 268.827 7.87109 269.802 7.87109C270.818 7.87109 271.597 8.24023 272.14 8.97852H272.229L272.181 8.43848L272.153 7.91211V4.86328H273.288V15.5H272.365L272.215 14.4951ZM269.945 14.6865C270.72 14.6865 271.281 14.4769 271.627 14.0576C271.978 13.6338 272.153 12.9525 272.153 12.0137V11.7744C272.153 10.7126 271.976 9.95605 271.62 9.50488C271.269 9.04915 270.706 8.82129 269.932 8.82129C269.266 8.82129 268.756 9.08105 268.4 9.60059C268.049 10.1156 267.874 10.8447 267.874 11.7881C267.874 12.7451 268.049 13.4674 268.4 13.9551C268.751 14.4427 269.266 14.6865 269.945 14.6865ZM279.104 15.6367C278.616 15.6367 278.169 15.5479 277.764 15.3701C277.363 15.1878 277.025 14.9098 276.752 14.5361H276.67C276.725 14.9736 276.752 15.3883 276.752 15.7803V18.8633H275.617V8.00781H276.54L276.697 9.0332H276.752C277.044 8.62305 277.383 8.32682 277.771 8.14453C278.158 7.96224 278.602 7.87109 279.104 7.87109C280.097 7.87109 280.863 8.21061 281.4 8.88965C281.943 9.56868 282.214 10.5212 282.214 11.7471C282.214 12.9775 281.938 13.9346 281.387 14.6182C280.84 15.2972 280.079 15.6367 279.104 15.6367ZM278.939 8.83496C278.174 8.83496 277.62 9.04688 277.278 9.4707C276.937 9.89453 276.761 10.569 276.752 11.4941V11.7471C276.752 12.7998 276.927 13.554 277.278 14.0098C277.629 14.4609 278.192 14.6865 278.967 14.6865C279.614 14.6865 280.12 14.4245 280.484 13.9004C280.854 13.3763 281.038 12.654 281.038 11.7334C281.038 10.7992 280.854 10.0837 280.484 9.58691C280.12 9.08561 279.605 8.83496 278.939 8.83496Z" fill="#E8178A"/><path d="M163.444 63H162.337V55.877C162.337 55.2845 162.355 54.724 162.392 54.1953C162.296 54.291 162.189 54.3913 162.07 54.4961C161.952 54.6009 161.41 55.0452 160.443 55.8291L159.842 55.0498L162.487 53.0059H163.444V63ZM173.737 63H167.168V62.0225L169.8 59.377C170.602 58.5658 171.131 57.987 171.386 57.6406C171.641 57.2943 171.832 56.957 171.96 56.6289C172.088 56.3008 172.151 55.9476 172.151 55.5693C172.151 55.0361 171.99 54.6146 171.666 54.3047C171.342 53.9902 170.894 53.833 170.319 53.833C169.905 53.833 169.51 53.9014 169.137 54.0381C168.768 54.1748 168.355 54.4232 167.899 54.7832L167.298 54.0107C168.218 53.2451 169.221 52.8623 170.306 52.8623C171.244 52.8623 171.98 53.1038 172.514 53.5869C173.047 54.0654 173.314 54.7103 173.314 55.5215C173.314 56.1549 173.136 56.7816 172.78 57.4014C172.425 58.0212 171.759 58.805 170.784 59.7529L168.597 61.8926V61.9473H173.737V63ZM180.715 61.9951H180.653C180.129 62.7562 179.345 63.1367 178.302 63.1367C177.322 63.1367 176.559 62.8018 176.012 62.1318C175.469 61.4619 175.198 60.5094 175.198 59.2744C175.198 58.0394 175.472 57.0801 176.019 56.3965C176.565 55.7129 177.327 55.3711 178.302 55.3711C179.318 55.3711 180.097 55.7402 180.64 56.4785H180.729L180.681 55.9385L180.653 55.4121V52.3633H181.788V63H180.865L180.715 61.9951ZM178.445 62.1865C179.22 62.1865 179.781 61.9769 180.127 61.5576C180.478 61.1338 180.653 60.4525 180.653 59.5137V59.2744C180.653 58.2126 180.476 57.4561 180.12 57.0049C179.769 56.5492 179.206 56.3213 178.432 56.3213C177.766 56.3213 177.256 56.5811 176.9 57.1006C176.549 57.6156 176.374 58.3447 176.374 59.2881C176.374 60.2451 176.549 60.9674 176.9 61.4551C177.251 61.9427 177.766 62.1865 178.445 62.1865ZM187.604 63.1367C187.116 63.1367 186.669 63.0479 186.264 62.8701C185.863 62.6878 185.525 62.4098 185.252 62.0361H185.17C185.225 62.4736 185.252 62.8883 185.252 63.2803V66.3633H184.117V55.5078H185.04L185.197 56.5332H185.252C185.544 56.123 185.883 55.8268 186.271 55.6445C186.658 55.4622 187.102 55.3711 187.604 55.3711C188.597 55.3711 189.363 55.7106 189.9 56.3896C190.443 57.0687 190.714 58.0212 190.714 59.2471C190.714 60.4775 190.438 61.4346 189.887 62.1182C189.34 62.7972 188.579 63.1367 187.604 63.1367ZM187.439 56.335C186.674 56.335 186.12 56.5469 185.778 56.9707C185.437 57.3945 185.261 58.069 185.252 58.9941V59.2471C185.252 60.2998 185.427 61.054 185.778 61.5098C186.129 61.9609 186.692 62.1865 187.467 62.1865C188.114 62.1865 188.62 61.9245 188.984 61.4004C189.354 60.8763 189.538 60.154 189.538 59.2334C189.538 58.2992 189.354 57.5837 188.984 57.0869C188.62 56.5856 188.105 56.335 187.439 56.335Z" fill="#E8178A"/><rect x="197.5" y="27" width="12" height="60" fill="#F0F" fill-opacity=".3"/><rect x="325.5" y="27" width="12" height="60" fill="#F0F" fill-opacity=".3"/><rect x="337.5" y="27" width="12" height="60" fill="#F0F" fill-opacity=".3"/><rect x="529" y="33" width="48" height="48" fill="#F0F" fill-opacity=".3"/><rect x="384" y="33" width="48" height="48" fill="#F0F" fill-opacity=".3"/><rect x="243" y="33" width="48" height="48" fill="#F0F" fill-opacity=".3"/><rect x="468" y="28.5" width="12" height="57" fill="#F0F" fill-opacity=".3"/><rect x="609.5" y="27" width="12" height="60" fill="#F0F" fill-opacity=".3"/><path d="M666.796 30.0833H675.796V84.0833H666.796" stroke="#4091D2"/><path d="M688.394 55.6107C689.222 55.6107 689.88 55.8431 690.369 56.3079C690.861 56.7728 691.107 57.4095 691.107 58.2181C691.107 59.1751 690.812 59.9114 690.222 60.4271C689.632 60.9427 688.789 61.2005 687.691 61.2005C686.738 61.2005 685.968 61.0462 685.382 60.7376V59.1732C685.691 59.3372 686.05 59.472 686.46 59.5775C686.871 59.679 687.259 59.7298 687.626 59.7298C688.732 59.7298 689.285 59.2767 689.285 58.3704C689.285 57.5071 688.712 57.0755 687.568 57.0755C687.361 57.0755 687.132 57.097 686.882 57.14C686.632 57.179 686.429 57.222 686.273 57.2689L685.552 56.8821L685.875 52.5169H690.521V54.0521H687.462L687.304 55.7337L687.509 55.6927C687.748 55.638 688.042 55.6107 688.394 55.6107ZM692.002 57.4446C692.002 55.7493 692.359 54.4876 693.074 53.6595C693.793 52.8314 694.867 52.4173 696.297 52.4173C696.785 52.4173 697.168 52.4466 697.445 52.5052V53.9525C697.097 53.8743 696.754 53.8353 696.414 53.8353C695.793 53.8353 695.285 53.929 694.89 54.1165C694.5 54.304 694.207 54.5814 694.011 54.9485C693.816 55.3157 693.701 55.8372 693.666 56.513H693.742C694.129 55.8489 694.748 55.5169 695.599 55.5169C696.365 55.5169 696.965 55.7571 697.398 56.2376C697.832 56.7181 698.049 57.3821 698.049 58.2298C698.049 59.1439 697.791 59.8685 697.275 60.4036C696.76 60.9349 696.045 61.2005 695.131 61.2005C694.498 61.2005 693.945 61.054 693.472 60.761C693.004 60.4681 692.64 60.0403 692.383 59.4778C692.129 58.9153 692.002 58.2376 692.002 57.4446ZM695.095 59.7532C695.482 59.7532 695.779 59.6243 695.986 59.3665C696.193 59.1048 696.297 58.7337 696.297 58.2532C696.297 57.8353 696.199 57.5071 696.004 57.2689C695.812 57.0267 695.521 56.9056 695.131 56.9056C694.763 56.9056 694.449 57.0247 694.187 57.263C693.929 57.5013 693.801 57.7786 693.801 58.095C693.801 58.5599 693.922 58.9525 694.164 59.2728C694.41 59.5931 694.72 59.7532 695.095 59.7532ZM701.375 61.2005C700.606 61.2005 700 60.9017 699.559 60.304C699.121 59.7064 698.902 58.8782 698.902 57.8196C698.902 56.7454 699.125 55.9095 699.57 55.3118C700.02 54.7103 700.637 54.4095 701.422 54.4095C702.246 54.4095 702.875 54.7298 703.309 55.3704H703.367C703.277 54.8821 703.232 54.4466 703.232 54.0638V51.9661H705.025V61.0833H703.654L703.309 60.2337H703.232C702.826 60.8782 702.207 61.2005 701.375 61.2005ZM702.002 59.7767C702.459 59.7767 702.793 59.6439 703.004 59.3782C703.219 59.1126 703.336 58.6614 703.356 58.0247V57.8314C703.356 57.1282 703.246 56.6243 703.027 56.3196C702.813 56.015 702.461 55.8626 701.973 55.8626C701.574 55.8626 701.264 56.0325 701.041 56.3724C700.822 56.7083 700.713 57.1985 700.713 57.8431C700.713 58.4876 700.824 58.972 701.047 59.2962C701.27 59.6165 701.588 59.7767 702.002 59.7767ZM710.42 61.2005C709.651 61.2005 709.047 60.9212 708.61 60.3626H708.516C708.578 60.9095 708.61 61.2259 708.61 61.3118V63.9661H706.823V54.5325H708.276L708.528 55.3821H708.61C709.028 54.7337 709.647 54.4095 710.467 54.4095C711.241 54.4095 711.846 54.7083 712.284 55.306C712.721 55.9036 712.94 56.7337 712.94 57.7962C712.94 58.4954 712.836 59.1028 712.629 59.6185C712.426 60.1341 712.135 60.5267 711.756 60.7962C711.377 61.0657 710.932 61.2005 710.42 61.2005ZM709.893 55.8392C709.451 55.8392 709.129 55.9759 708.926 56.2493C708.723 56.5189 708.617 56.9661 708.61 57.5911V57.7845C708.61 58.4876 708.713 58.9915 708.92 59.2962C709.131 59.6009 709.463 59.7532 709.916 59.7532C710.717 59.7532 711.117 59.0931 711.117 57.7728C711.117 57.1282 711.018 56.6458 710.819 56.3255C710.623 56.0013 710.315 55.8392 709.893 55.8392Z" fill="#4091D2"/><defs><clipPath id="clip0_7380_86098"><rect x="198.5" y="29" width="423" height="56" rx="8" fill="#fff"/></clipPath></defs></svg>