<svg fill="none" height="56" viewBox="0 0 429 56" width="429" xmlns="http://www.w3.org/2000/svg" xmlns:xlink="http://www.w3.org/1999/xlink"><clipPath id="a"><rect height="51" rx="8" width="423" x="4" y="2.5"/></clipPath><g clip-path="url(#a)"><rect fill="#0063a3" height="53" rx="6.5" width="138" x="3.5" y="1.5"/><rect fill="#0063a3" height="52" rx="6" width="137" x="4" y="2"/><path d="m52.6104 37h-3.2764v-15.7051h9.0019v2.7285h-5.7255v4.0498h5.3281v2.7178h-5.3281zm12.0664-12.0098v12.0098h-3.2764v-12.0098zm-1.6329-4.705c.487 0 .906.1145 1.2569.3437.3509.222.5263.641.5263 1.2568 0 .6088-.1754 1.0313-.5263 1.2676-.3509.2292-.7699.3438-1.2569.3438-.4941 0-.9166-.1146-1.2675-.3438-.3438-.2363-.5157-.6588-.5157-1.2676 0-.6158.1719-1.0348.5157-1.2568.3509-.2292.7734-.3437 1.2675-.3437zm12.0342 4.4794c.1647 0 .3545.0108.5694.0323.222.0143.401.0358.5371.0644l-.2471 3.0723c-.1074-.0358-.2614-.0609-.4619-.0752-.1934-.0215-.3617-.0322-.5049-.0322-.4225 0-.8343.0537-1.2353.1611-.3939.1074-.7484.2829-1.0635.5264-.3151.2363-.5658.5514-.752.9453-.179.3867-.2685.8629-.2685 1.4287v6.1123h-3.2764v-12.0098h2.4814l.4834 2.0196h.1612c.2363-.4082.5299-.7806.8808-1.1172.3581-.3438.7627-.6159 1.2139-.8164.4583-.2077.9525-.3116 1.4824-.3116zm11.916 8.669c0 .8164-.1933 1.5075-.58 2.0732-.3796.5586-.9489.9847-1.708 1.2784-.7592.2864-1.7045.4296-2.836.4296-.8379 0-1.5576-.0537-2.1592-.1611-.5944-.1074-1.1959-.2864-1.8047-.5371v-2.707c.6517.2936 1.35.5371 2.0948.7304.7519.1862 1.4108.2793 1.9765.2793.6374 0 1.0922-.0931 1.3643-.2793.2793-.1933.4189-.444.4189-.7519 0-.2005-.0572-.3796-.1718-.5371-.1075-.1647-.3438-.3474-.709-.5479-.3653-.2077-.9382-.4762-1.7188-.8056-.7519-.3151-1.3714-.6338-1.8584-.9561-.4798-.3223-.8379-.7018-1.0742-1.1387-.2292-.444-.3437-1.0062-.3437-1.6865 0-1.11.4297-1.9443 1.289-2.5029.8666-.5658 2.0231-.8487 3.4698-.8487.7447 0 1.4537.0752 2.1269.2256.6803.1504 1.3786.3903 2.0947.7198l-.9882 2.3632c-.5944-.2578-1.1566-.469-1.6866-.6337-.5228-.1648-1.0563-.2471-1.6006-.2471-.4798 0-.8414.0644-1.0849.1933s-.3653.3259-.3653.5909c0 .1933.0609.3652.1827.5156.1289.1504.3724.3187.7304.5049.3653.179.8988.4118 1.6006.6982.6804.2793 1.2712.5729 1.7725.8809.5013.3008.888.6767 1.1601 1.1279.2722.444.4082 1.0205.4082 1.7295zm7.8663 1.1709c.358 0 .7054-.0358 1.0419-.1074.3438-.0716.684-.1612 1.0206-.2686v2.4385c-.351.1575-.7878.2865-1.3106.3867-.5156.1074-1.0814.1611-1.6973.1611-.7161 0-1.3606-.1145-1.9336-.3437-.5657-.2363-1.0133-.641-1.3427-1.2139-.3223-.5801-.4834-1.3857-.4834-2.417v-5.79h-1.5684v-1.3857l1.8047-1.0957.9453-2.5352h2.0947v2.5566h3.3623v2.46h-3.3623v5.79c0 .4584.1289.8021.3868 1.0313.2649.222.6123.333 1.042.333z" fill="#fff"/><rect height="53" rx="6.5" stroke="#0063a3" width="138" x="3.5" y="1.5"/><path d="m184.902 32.6387c0 .931-.225 1.7402-.676 2.4277-.452.6875-1.11 1.2175-1.977 1.5898-.859.3724-1.905.5586-3.137.5586-.544 0-1.077-.0358-1.6-.1074-.516-.0716-1.014-.1754-1.493-.3115-.473-.1432-.924-.3187-1.354-.5264v-3.0937c.745.3294 1.518.6266 2.32.8916s1.597.3974 2.385.3974c.544 0 .981-.0716 1.311-.2148.336-.1432.58-.3402.73-.5908.151-.2507.226-.5371.226-.8594 0-.3939-.133-.7305-.398-1.0098s-.63-.5407-1.095-.7841c-.459-.2435-.978-.5049-1.558-.7842-.365-.1719-.763-.3796-1.192-.6231-.43-.2506-.838-.555-1.225-.9131-.387-.358-.705-.7913-.956-1.2998-.244-.5156-.365-1.1315-.365-1.8476 0-.9382.214-1.7402.644-2.4063.43-.666 1.042-1.1744 1.837-1.5254.802-.358 1.747-.5371 2.836-.5371.816 0 1.593.0967 2.331.2901.745.1862 1.522.4583 2.331.8164l-1.074 2.5888c-.723-.2936-1.371-.5192-1.944-.6767-.573-.1647-1.157-.2471-1.751-.2471-.416 0-.77.0681-1.064.2041-.293.1289-.515.3151-.666.5586-.15.2363-.225.5121-.225.8272 0 .3724.107.6875.322.9453.222.2506.551.4941.988.7304.444.2364.996.5121 1.654.8272.802.3796 1.486.777 2.052 1.1924.573.4082 1.013.8916 1.321 1.4502.308.5514.462 1.2389.462 2.0625zm7.791-7.8741c1.11 0 2.066.2149 2.869.6446.802.4225 1.421 1.0384 1.858 1.8476.437.8093.655 1.7976.655 2.9649v1.5898h-7.745c.036.9239.312 1.6507.827 2.1807.523.5228 1.246.7842 2.17.7842.766 0 1.468-.0788 2.106-.2364.637-.1575 1.292-.3938 1.965-.7089v2.5351c-.594.2936-1.217.5085-1.869.6445-.644.1361-1.428.2041-2.352.2041-1.203 0-2.27-.222-3.201-.666-.924-.444-1.651-1.1207-2.181-2.0302-.523-.9096-.784-2.0554-.784-3.4375 0-1.4037.236-2.571.709-3.502.48-.9381 1.146-1.64 1.998-2.1055.852-.4726 1.844-.709 2.975-.709zm.022 2.3311c-.638 0-1.167.2041-1.59.6123-.415.4082-.655 1.0492-.72 1.9229h4.598c-.007-.487-.097-.9203-.269-1.2998-.164-.3796-.415-.6804-.752-.9024-.329-.222-.752-.333-1.267-.333zm13.151 10.1191c-1.189 0-2.202-.2148-3.04-.6445-.838-.4368-1.475-1.11-1.912-2.0195s-.655-2.0733-.655-3.4912c0-1.4681.247-2.6641.741-3.5879.501-.931 1.192-1.6149 2.073-2.0518.888-.4368 1.916-.6553 3.083-.6553.831 0 1.547.0824 2.149.2471.608.1576 1.138.3473 1.59.5694l-.967 2.5351c-.516-.2077-.996-.376-1.44-.5049-.444-.136-.888-.2041-1.332-.2041-.573 0-1.049.1361-1.428.4082-.38.265-.663.666-.849 1.2032-.186.5371-.279 1.2102-.279 2.0195 0 .7949.1 1.4538.3 1.9765.201.5228.491.9131.871 1.1709.379.2507.841.376 1.385.376.681 0 1.286-.0895 1.816-.2685.53-.1862 1.045-.444 1.547-.7735v2.8037c-.502.3151-1.028.5407-1.58.6768-.544.1432-1.235.2148-2.073.2148zm17.61-6.2412c0 1.0026-.136 1.8907-.409 2.6641-.265.7734-.655 1.4287-1.171 1.9658-.508.53-1.124.931-1.847 1.2031-.716.2722-1.526.4082-2.428.4082-.845 0-1.622-.136-2.331-.4082-.702-.2721-1.314-.6731-1.837-1.2031-.515-.5371-.917-1.1924-1.203-1.9658-.279-.7734-.419-1.6615-.419-2.6641 0-1.332.236-2.4599.709-3.3838.473-.9238 1.146-1.6256 2.02-2.1054.873-.4798 1.915-.7198 3.126-.7198 1.124 0 2.119.24 2.986.7198.874.4798 1.557 1.1816 2.052 2.1054.501.9239.752 2.0518.752 3.3838zm-8.304 0c0 .7878.086 1.4502.258 1.9873s.44.9418.805 1.2139c.366.2721.842.4082 1.429.4082.58 0 1.049-.1361 1.407-.4082.366-.2721.63-.6768.795-1.2139.172-.5371.258-1.1995.258-1.9873 0-.7949-.086-1.4537-.258-1.9765-.165-.53-.429-.9274-.795-1.1924-.365-.265-.841-.3975-1.428-.3975-.867 0-1.497.2972-1.891.8916-.387.5944-.58 1.486-.58 2.6748zm18.082-6.209c1.282 0 2.313.351 3.094 1.0528.78.6946 1.171 1.8118 1.171 3.3515v7.8311h-3.277v-7.0146c0-.8594-.157-1.5075-.472-1.9444-.308-.4368-.795-.6553-1.461-.6553-1.003 0-1.687.3402-2.052 1.0205-.365.6804-.548 1.6615-.548 2.9434v5.6504h-3.276v-12.0098h2.503l.44 1.5362h.183c.257-.4154.576-.752.956-1.0098.386-.2578.812-.4476 1.278-.5693.473-.1218.96-.1827 1.461-.1827zm11.69 12.4502c-1.339 0-2.431-.5227-3.276-1.5683-.838-1.0527-1.257-2.596-1.257-4.6299 0-2.0553.426-3.6094 1.278-4.6621.853-1.0599 1.966-1.5899 3.341-1.5899.573 0 1.078.0788 1.515.2364.437.1575.813.3688 1.128.6338.322.2649.594.5621.816.8916h.108c-.043-.2292-.097-.5658-.161-1.0098-.058-.4512-.086-.9131-.086-1.3857v-3.8457h3.287v16.7148h-2.514l-.634-1.5576h-.139c-.208.3294-.469.6302-.785.9023-.308.265-.676.4763-1.106.6338-.43.1576-.935.2363-1.515.2363zm1.15-2.6103c.895 0 1.525-.265 1.89-.7949.373-.5371.57-1.3428.591-2.417v-.3545c0-1.1673-.179-2.0589-.537-2.6748-.358-.6231-1.024-.9346-1.998-.9346-.723 0-1.289.3115-1.697.9346-.408.623-.613 1.5218-.613 2.6963 0 1.1744.205 2.0589.613 2.6533.415.5944.999.8916 1.751.8916z" fill="#353a40"/><path d="m286.5 16v24" stroke="#0063a3"/><path d="m337.117 37h-3.33v-12.9336h-4.265v-2.7715h11.86v2.7715h-4.265zm9.95-16.7148v3.4052c0 .5944-.021 1.1602-.064 1.6973-.036.5371-.065.9167-.086 1.1387h.172c.258-.4154.562-.752.913-1.0098.358-.2578.752-.4476 1.182-.5693.429-.1218.891-.1827 1.385-.1827.867 0 1.622.154 2.267.462.644.3007 1.146.777 1.504 1.4287.358.6445.537 1.4824.537 2.5136v7.8311h-3.276v-7.0146c0-.8594-.158-1.5075-.473-1.9444-.315-.4368-.802-.6553-1.461-.6553s-1.178.154-1.558.462c-.379.3007-.648.7483-.805 1.3427-.158.5873-.237 1.307-.237 2.1592v5.6504h-3.276v-16.7148zm14.709 4.705v12.0098h-3.276v-12.0098zm-1.632-4.705c.487 0 .905.1145 1.256.3437.351.222.527.641.527 1.2568 0 .6088-.176 1.0313-.527 1.2676-.351.2292-.769.3438-1.256.3438-.495 0-.917-.1146-1.268-.3438-.344-.2363-.516-.6588-.516-1.2676 0-.6158.172-1.0348.516-1.2568.351-.2292.773-.3437 1.268-.3437zm12.034 4.4794c.164 0 .354.0108.569.0323.222.0143.401.0358.537.0644l-.247 3.0723c-.107-.0358-.261-.0609-.462-.0752-.193-.0215-.361-.0322-.505-.0322-.422 0-.834.0537-1.235.1611-.394.1074-.748.2829-1.064.5264-.315.2363-.565.5514-.751.9453-.18.3867-.269.8629-.269 1.4287v6.1123h-3.276v-12.0098h2.481l.483 2.0196h.162c.236-.4082.53-.7806.88-1.1172.359-.3438.763-.6159 1.214-.8164.459-.2077.953-.3116 1.483-.3116zm7.34 12.4502c-1.34 0-2.432-.5227-3.277-1.5683-.838-1.0527-1.257-2.596-1.257-4.6299 0-2.0553.426-3.6094 1.279-4.6621.852-1.0599 1.966-1.5899 3.341-1.5899.572 0 1.077.0788 1.514.2364.437.1575.813.3688 1.128.6338.322.2649.594.5621.816.8916h.108c-.043-.2292-.097-.5658-.161-1.0098-.058-.4512-.086-.9131-.086-1.3857v-3.8457h3.287v16.7148h-2.514l-.634-1.5576h-.139c-.208.3294-.469.6302-.784.9023-.308.265-.677.4763-1.107.6338-.429.1576-.934.2363-1.514.2363zm1.149-2.6103c.895 0 1.525-.265 1.891-.7949.372-.5371.569-1.3428.59-2.417v-.3545c0-1.1673-.179-2.0589-.537-2.6748-.358-.6231-1.024-.9346-1.998-.9346-.723 0-1.289.3115-1.697.9346-.408.623-.612 1.5218-.612 2.6963 0 1.1744.204 2.0589.612 2.6533.415.5944.999.8916 1.751.8916z" fill="#353a40"/></g><rect height="53" rx="9" stroke="#0063a3" stroke-width="2" width="425" x="3" y="1.5"/><path d="m2 8c0-3.31371 2.68629-6 6-6h127c3.314 0 6 2.68629 6 6v40c0 3.3137-2.686 6-6 6h-127c-3.31371 0-6-2.6863-6-6z" stroke="#019aeb" stroke-width="3"/><path d="m9 4h125c2.761 0 5 2.23858 5 5v38c0 2.7614-2.239 5-5 5h-125c-2.76142 0-5-2.2386-5-5v-38c0-2.76142 2.23858-5 5-5z" stroke="#fff" stroke-width="2"/></svg>