<?xml version="1.0" encoding="utf-8"?>
<!-- Generator: Adobe Illustrator 27.0.0, SVG Export Plug-In . SVG Version: 6.00 Build 0)  -->
<svg version="1.1" id="Layer_1" xmlns="http://www.w3.org/2000/svg" xmlns:xlink="http://www.w3.org/1999/xlink" x="0px" y="0px"
	 viewBox="0 0 619 81" style="enable-background:new 0 0 619 81;" xml:space="preserve">
<style type="text/css">
	.st0{fill:#FFFFFF;}
	.st1{fill:none;stroke:#FFFFFF;}
	.st2{fill:#A3A6B1;}
	.st3{fill:#019AEB;}
	.st4{fill:#FFFFFF;stroke:#217CBB;stroke-width:4;}
	.st5{fill:none;stroke:#40A3FF;stroke-width:4;}
	.st6{fill:none;stroke:#6A6E79;stroke-width:2;}
	.st7{fill:none;stroke:#4091D2;}
	.st8{fill:#4091D2;}
	.st9{fill:#FF00FF;fill-opacity:0.2;}
	.st10{fill:#E8178A;}
</style>
<path class="st0" d="M14.6,35.2h-1.8v-8.6h4.9v1.5h-3.1v2.2h2.9v1.5h-2.9V35.2z M25.1,32c0,0.5-0.1,1-0.2,1.5
	c-0.1,0.4-0.4,0.8-0.6,1.1c-0.3,0.3-0.6,0.5-1,0.7c-0.4,0.1-0.8,0.2-1.3,0.2c-0.5,0-0.9-0.1-1.3-0.2c-0.4-0.1-0.7-0.4-1-0.7
	c-0.3-0.3-0.5-0.7-0.7-1.1c-0.2-0.4-0.2-0.9-0.2-1.5c0-0.7,0.1-1.3,0.4-1.8c0.3-0.5,0.6-0.9,1.1-1.1c0.5-0.3,1-0.4,1.7-0.4
	c0.6,0,1.2,0.1,1.6,0.4c0.5,0.3,0.8,0.6,1.1,1.1C25,30.6,25.1,31.2,25.1,32z M20.6,32c0,0.4,0,0.8,0.1,1.1c0.1,0.3,0.2,0.5,0.4,0.7
	c0.2,0.1,0.5,0.2,0.8,0.2c0.3,0,0.6-0.1,0.8-0.2c0.2-0.1,0.3-0.4,0.4-0.7c0.1-0.3,0.1-0.7,0.1-1.1c0-0.4,0-0.8-0.1-1.1
	c-0.1-0.3-0.2-0.5-0.4-0.7C22.5,30.1,22.3,30,22,30c-0.5,0-0.8,0.2-1,0.5C20.7,30.8,20.6,31.3,20.6,32z M29.2,35.4
	c-0.6,0-1.2-0.1-1.7-0.4c-0.5-0.2-0.8-0.6-1-1.1c-0.2-0.5-0.4-1.1-0.4-1.9c0-0.8,0.1-1.5,0.4-2c0.3-0.5,0.7-0.9,1.1-1.1
	c0.5-0.2,1-0.4,1.7-0.4c0.5,0,0.8,0,1.2,0.1c0.3,0.1,0.6,0.2,0.9,0.3l-0.5,1.4c-0.3-0.1-0.5-0.2-0.8-0.3c-0.2-0.1-0.5-0.1-0.7-0.1
	c-0.3,0-0.6,0.1-0.8,0.2c-0.2,0.1-0.4,0.4-0.5,0.7C28,31.2,28,31.6,28,32c0,0.4,0.1,0.8,0.2,1.1c0.1,0.3,0.3,0.5,0.5,0.6
	c0.2,0.1,0.5,0.2,0.8,0.2c0.4,0,0.7,0,1-0.1c0.3-0.1,0.6-0.2,0.8-0.4v1.5c-0.3,0.2-0.6,0.3-0.9,0.4C30,35.3,29.7,35.4,29.2,35.4z
	 M38.7,28.7v6.6h-1.4L37,34.4h-0.1c-0.1,0.2-0.3,0.4-0.5,0.5c-0.2,0.1-0.4,0.2-0.7,0.3c-0.3,0.1-0.5,0.1-0.8,0.1
	c-0.5,0-0.9-0.1-1.2-0.2c-0.3-0.2-0.6-0.4-0.8-0.8c-0.2-0.4-0.3-0.8-0.3-1.4v-4.3h1.8v3.8c0,0.5,0.1,0.8,0.3,1.1
	c0.2,0.2,0.4,0.4,0.8,0.4c0.4,0,0.6-0.1,0.9-0.2c0.2-0.2,0.4-0.4,0.4-0.7c0.1-0.3,0.1-0.7,0.1-1.2v-3.1H38.7z M45,33.3
	c0,0.4-0.1,0.8-0.3,1.1c-0.2,0.3-0.5,0.5-0.9,0.7c-0.4,0.2-0.9,0.2-1.5,0.2c-0.5,0-0.8,0-1.2-0.1c-0.3-0.1-0.7-0.2-1-0.3v-1.5
	c0.4,0.2,0.7,0.3,1.1,0.4c0.4,0.1,0.8,0.2,1.1,0.2c0.3,0,0.6-0.1,0.7-0.2c0.2-0.1,0.2-0.2,0.2-0.4c0-0.1,0-0.2-0.1-0.3
	c-0.1-0.1-0.2-0.2-0.4-0.3c-0.2-0.1-0.5-0.3-0.9-0.4c-0.4-0.2-0.7-0.3-1-0.5c-0.3-0.2-0.5-0.4-0.6-0.6c-0.1-0.2-0.2-0.5-0.2-0.9
	c0-0.6,0.2-1.1,0.7-1.4c0.5-0.3,1.1-0.5,1.9-0.5c0.4,0,0.8,0,1.2,0.1c0.4,0.1,0.8,0.2,1.1,0.4l-0.5,1.3c-0.3-0.1-0.6-0.3-0.9-0.3
	c-0.3-0.1-0.6-0.1-0.9-0.1c-0.3,0-0.5,0-0.6,0.1c-0.1,0.1-0.2,0.2-0.2,0.3c0,0.1,0,0.2,0.1,0.3c0.1,0.1,0.2,0.2,0.4,0.3
	c0.2,0.1,0.5,0.2,0.9,0.4c0.4,0.2,0.7,0.3,1,0.5c0.3,0.2,0.5,0.4,0.6,0.6C45,32.6,45,32.9,45,33.3z M54,33.3c0,0.4-0.1,0.8-0.3,1.1
	c-0.2,0.3-0.5,0.5-0.9,0.7c-0.4,0.2-0.9,0.2-1.5,0.2c-0.5,0-0.8,0-1.2-0.1c-0.3-0.1-0.7-0.2-1-0.3v-1.5c0.4,0.2,0.7,0.3,1.1,0.4
	c0.4,0.1,0.8,0.2,1.1,0.2c0.3,0,0.6-0.1,0.7-0.2c0.2-0.1,0.2-0.2,0.2-0.4c0-0.1,0-0.2-0.1-0.3c-0.1-0.1-0.2-0.2-0.4-0.3
	c-0.2-0.1-0.5-0.3-0.9-0.4c-0.4-0.2-0.7-0.3-1-0.5c-0.3-0.2-0.5-0.4-0.6-0.6c-0.1-0.2-0.2-0.5-0.2-0.9c0-0.6,0.2-1.1,0.7-1.4
	c0.5-0.3,1.1-0.5,1.9-0.5c0.4,0,0.8,0,1.2,0.1c0.4,0.1,0.8,0.2,1.1,0.4l-0.5,1.3c-0.3-0.1-0.6-0.3-0.9-0.3c-0.3-0.1-0.6-0.1-0.9-0.1
	c-0.3,0-0.5,0-0.6,0.1c-0.1,0.1-0.2,0.2-0.2,0.3c0,0.1,0,0.2,0.1,0.3c0.1,0.1,0.2,0.2,0.4,0.3c0.2,0.1,0.5,0.2,0.9,0.4
	c0.4,0.2,0.7,0.3,1,0.5c0.3,0.2,0.5,0.4,0.6,0.6C53.9,32.6,54,32.9,54,33.3z M58,33.9c0.2,0,0.4,0,0.6-0.1c0.2,0,0.4-0.1,0.6-0.1
	v1.3c-0.2,0.1-0.4,0.2-0.7,0.2c-0.3,0.1-0.6,0.1-0.9,0.1c-0.4,0-0.7-0.1-1.1-0.2c-0.3-0.1-0.6-0.3-0.7-0.7c-0.2-0.3-0.3-0.8-0.3-1.3
	V30h-0.9v-0.8l1-0.6l0.5-1.4h1.1v1.4h1.8V30h-1.8v3.2c0,0.2,0.1,0.4,0.2,0.6C57.6,33.9,57.8,33.9,58,33.9z M66.4,32
	c0,0.5-0.1,1-0.2,1.5c-0.1,0.4-0.4,0.8-0.6,1.1c-0.3,0.3-0.6,0.5-1,0.7c-0.4,0.1-0.8,0.2-1.3,0.2c-0.5,0-0.9-0.1-1.3-0.2
	c-0.4-0.1-0.7-0.4-1-0.7c-0.3-0.3-0.5-0.7-0.7-1.1C60.1,33,60,32.5,60,32c0-0.7,0.1-1.3,0.4-1.8c0.3-0.5,0.6-0.9,1.1-1.1
	c0.5-0.3,1-0.4,1.7-0.4c0.6,0,1.2,0.1,1.6,0.4c0.5,0.3,0.8,0.6,1.1,1.1C66.2,30.6,66.4,31.2,66.4,32z M61.9,32c0,0.4,0,0.8,0.1,1.1
	c0.1,0.3,0.2,0.5,0.4,0.7c0.2,0.1,0.5,0.2,0.8,0.2c0.3,0,0.6-0.1,0.8-0.2c0.2-0.1,0.3-0.4,0.4-0.7c0.1-0.3,0.1-0.7,0.1-1.1
	c0-0.4,0-0.8-0.1-1.1c-0.1-0.3-0.2-0.5-0.4-0.7c-0.2-0.1-0.5-0.2-0.8-0.2c-0.5,0-0.8,0.2-1,0.5C62,30.8,61.9,31.3,61.9,32z
	 M69.6,26.1v4.1c0,0.2,0,0.5,0,0.7c0,0.2,0,0.5-0.1,0.7h0c0.1-0.2,0.2-0.3,0.4-0.5c0.1-0.2,0.3-0.3,0.4-0.5l1.8-2h2l-2.6,2.8
	l2.8,3.7h-2.1l-1.9-2.7l-0.8,0.6v2h-1.8v-9.1H69.6z M77.9,28.6c0.6,0,1.1,0.1,1.6,0.4c0.4,0.2,0.8,0.6,1,1c0.2,0.4,0.4,1,0.4,1.6
	v0.9h-4.2c0,0.5,0.2,0.9,0.5,1.2c0.3,0.3,0.7,0.4,1.2,0.4c0.4,0,0.8,0,1.1-0.1c0.3-0.1,0.7-0.2,1.1-0.4v1.4c-0.3,0.2-0.7,0.3-1,0.4
	c-0.4,0.1-0.8,0.1-1.3,0.1c-0.7,0-1.2-0.1-1.7-0.4c-0.5-0.2-0.9-0.6-1.2-1.1c-0.3-0.5-0.4-1.1-0.4-1.9c0-0.8,0.1-1.4,0.4-1.9
	c0.3-0.5,0.6-0.9,1.1-1.1C76.7,28.7,77.2,28.6,77.9,28.6z M77.9,29.8c-0.3,0-0.6,0.1-0.9,0.3c-0.2,0.2-0.4,0.6-0.4,1h2.5
	c0-0.3-0.1-0.5-0.1-0.7c-0.1-0.2-0.2-0.4-0.4-0.5C78.4,29.9,78.2,29.8,77.9,29.8z M93.2,28.7c0,0.4-0.1,0.7-0.2,1
	c-0.1,0.3-0.4,0.5-0.6,0.7c-0.3,0.2-0.6,0.3-0.9,0.4v0c0.7,0.1,1.2,0.3,1.5,0.7c0.3,0.4,0.5,0.8,0.5,1.4c0,0.5-0.1,0.9-0.4,1.3
	c-0.2,0.4-0.6,0.7-1.1,0.9c-0.5,0.2-1.1,0.3-1.8,0.3c-0.5,0-0.9,0-1.3-0.1c-0.4-0.1-0.8-0.2-1.1-0.4V34c0.4,0.2,0.7,0.3,1.2,0.4
	c0.4,0.1,0.8,0.1,1.2,0.1c0.8,0,1.3-0.2,1.7-0.5c0.3-0.3,0.5-0.7,0.5-1.3c0-0.4-0.1-0.7-0.3-0.9c-0.2-0.2-0.5-0.4-0.8-0.5
	c-0.4-0.1-0.8-0.2-1.3-0.2h-0.9v-0.8H90c0.5,0,0.9-0.1,1.2-0.2c0.3-0.1,0.6-0.3,0.7-0.6c0.2-0.2,0.3-0.5,0.3-0.9
	c0-0.4-0.1-0.8-0.4-1c-0.3-0.2-0.7-0.4-1.2-0.4c-0.3,0-0.6,0-0.8,0.1s-0.5,0.1-0.7,0.3c-0.2,0.1-0.4,0.2-0.7,0.4l-0.5-0.7
	c0.3-0.2,0.7-0.5,1.1-0.6c0.4-0.2,1-0.3,1.5-0.3c0.9,0,1.5,0.2,2,0.6C93,27.6,93.2,28.1,93.2,28.7z M97.4,35.4
	c-0.8,0-1.5-0.3-1.9-0.8c-0.5-0.6-0.7-1.4-0.7-2.5c0-1.1,0.2-1.9,0.7-2.5c0.5-0.6,1.1-0.8,1.9-0.8c0.3,0,0.6,0,0.9,0.1
	c0.3,0.1,0.5,0.2,0.7,0.4c0.2,0.1,0.3,0.3,0.5,0.5h0.1c0-0.1,0-0.3,0-0.5c0-0.2,0-0.4,0-0.5v-2.6h1v9.1h-0.8l-0.1-0.9h0
	c-0.1,0.2-0.3,0.4-0.5,0.5c-0.2,0.2-0.4,0.3-0.7,0.4C98.1,35.3,97.8,35.4,97.4,35.4z M97.6,34.6c0.7,0,1.2-0.2,1.5-0.6
	c0.3-0.4,0.4-1,0.4-1.7v-0.2c0-0.8-0.1-1.4-0.4-1.9c-0.3-0.4-0.8-0.7-1.5-0.7c-0.6,0-1,0.2-1.3,0.7c-0.3,0.5-0.4,1.1-0.4,1.9
	c0,0.8,0.1,1.4,0.4,1.8C96.5,34.3,97,34.6,97.6,34.6z M105.4,28.7c0.8,0,1.4,0.3,1.9,0.8c0.5,0.6,0.7,1.4,0.7,2.5
	c0,0.7-0.1,1.3-0.3,1.8c-0.2,0.5-0.5,0.9-0.9,1.1c-0.4,0.3-0.9,0.4-1.4,0.4c-0.3,0-0.6,0-0.9-0.1c-0.3-0.1-0.5-0.2-0.7-0.4
	c-0.2-0.2-0.3-0.3-0.5-0.5h-0.1c0,0.2,0,0.3,0,0.6c0,0.2,0,0.4,0,0.6v2.6h-1v-9.3h0.8l0.1,0.9h0c0.1-0.2,0.3-0.4,0.5-0.5
	c0.2-0.2,0.4-0.3,0.7-0.4C104.8,28.8,105.1,28.7,105.4,28.7z M105.3,29.5c-0.4,0-0.8,0.1-1.1,0.3c-0.3,0.2-0.5,0.4-0.6,0.8
	c-0.1,0.3-0.2,0.8-0.2,1.3V32c0,0.5,0.1,1,0.2,1.4c0.1,0.4,0.3,0.7,0.6,0.9c0.3,0.2,0.6,0.3,1.1,0.3c0.4,0,0.7-0.1,1-0.3
	c0.3-0.2,0.5-0.5,0.6-0.9c0.1-0.4,0.2-0.8,0.2-1.3c0-0.8-0.1-1.4-0.4-1.8C106.3,29.8,105.9,29.5,105.3,29.5z M12.8,46.7h2.7
	c1.1,0,2,0.2,2.6,0.5c0.6,0.3,0.9,0.9,0.9,1.7c0,0.3-0.1,0.6-0.2,0.9c-0.1,0.3-0.2,0.5-0.4,0.6c-0.2,0.2-0.4,0.3-0.7,0.3v0.1
	c0.3,0.1,0.5,0.2,0.8,0.3c0.2,0.1,0.4,0.3,0.6,0.6c0.1,0.3,0.2,0.6,0.2,1.1c0,0.5-0.1,1-0.4,1.3c-0.3,0.4-0.6,0.7-1.1,0.9
	c-0.5,0.2-1,0.3-1.7,0.3h-3.2V46.7z M14.6,50.1h1.1c0.5,0,0.9-0.1,1.1-0.2c0.2-0.2,0.3-0.4,0.3-0.7c0-0.3-0.1-0.6-0.4-0.7
	c-0.2-0.1-0.6-0.2-1.1-0.2h-1V50.1z M14.6,51.5v2.2h1.2c0.5,0,0.9-0.1,1.1-0.3c0.2-0.2,0.3-0.5,0.3-0.8c0-0.2,0-0.4-0.1-0.6
	c-0.1-0.2-0.3-0.3-0.5-0.4c-0.2-0.1-0.5-0.1-0.9-0.1H14.6z M26.6,52c0,0.5-0.1,1-0.2,1.5c-0.1,0.4-0.4,0.8-0.6,1.1
	c-0.3,0.3-0.6,0.5-1,0.7c-0.4,0.1-0.8,0.2-1.3,0.2c-0.5,0-0.9-0.1-1.3-0.2c-0.4-0.1-0.7-0.4-1-0.7c-0.3-0.3-0.5-0.7-0.7-1.1
	c-0.2-0.4-0.2-0.9-0.2-1.5c0-0.7,0.1-1.3,0.4-1.8c0.3-0.5,0.6-0.9,1.1-1.1c0.5-0.3,1-0.4,1.7-0.4c0.6,0,1.2,0.1,1.6,0.4
	c0.5,0.3,0.8,0.6,1.1,1.1C26.5,50.6,26.6,51.2,26.6,52z M22.1,52c0,0.4,0,0.8,0.1,1.1c0.1,0.3,0.2,0.5,0.4,0.7
	c0.2,0.1,0.5,0.2,0.8,0.2c0.3,0,0.6-0.1,0.8-0.2c0.2-0.1,0.3-0.4,0.4-0.7c0.1-0.3,0.1-0.7,0.1-1.1c0-0.4,0-0.8-0.1-1.1
	c-0.1-0.3-0.2-0.5-0.4-0.7C24,50.1,23.7,50,23.4,50c-0.5,0-0.8,0.2-1,0.5C22.2,50.8,22.1,51.3,22.1,52z M31.7,48.6
	c0.1,0,0.2,0,0.3,0c0.1,0,0.2,0,0.3,0l-0.1,1.7c-0.1,0-0.1,0-0.3,0c-0.1,0-0.2,0-0.3,0c-0.2,0-0.5,0-0.7,0.1
	c-0.2,0.1-0.4,0.2-0.6,0.3c-0.2,0.1-0.3,0.3-0.4,0.5c-0.1,0.2-0.1,0.5-0.1,0.8v3.3H28v-6.6h1.4l0.3,1.1h0.1c0.1-0.2,0.3-0.4,0.5-0.6
	c0.2-0.2,0.4-0.3,0.7-0.4C31.1,48.6,31.4,48.6,31.7,48.6z M35.5,55.4c-0.7,0-1.3-0.3-1.8-0.9C33.2,53.9,33,53.1,33,52
	c0-1.1,0.2-2,0.7-2.5c0.5-0.6,1.1-0.9,1.8-0.9c0.3,0,0.6,0,0.8,0.1c0.2,0.1,0.4,0.2,0.6,0.3c0.2,0.1,0.3,0.3,0.4,0.5h0.1
	c0-0.1-0.1-0.3-0.1-0.6c0-0.2,0-0.5,0-0.8v-2.1h1.8v9.1h-1.4l-0.3-0.8h-0.1c-0.1,0.2-0.3,0.3-0.4,0.5c-0.2,0.1-0.4,0.3-0.6,0.3
	C36.1,55.3,35.8,55.4,35.5,55.4z M36.1,53.9c0.5,0,0.8-0.1,1-0.4c0.2-0.3,0.3-0.7,0.3-1.3V52c0-0.6-0.1-1.1-0.3-1.5
	C37,50.2,36.6,50,36.1,50c-0.4,0-0.7,0.2-0.9,0.5c-0.2,0.3-0.3,0.8-0.3,1.5c0,0.6,0.1,1.1,0.3,1.4C35.4,53.8,35.7,53.9,36.1,53.9z
	 M43.6,48.6c0.6,0,1.1,0.1,1.6,0.4c0.4,0.2,0.8,0.6,1,1c0.2,0.4,0.4,1,0.4,1.6v0.9h-4.2c0,0.5,0.2,0.9,0.5,1.2
	c0.3,0.3,0.7,0.4,1.2,0.4c0.4,0,0.8,0,1.1-0.1c0.3-0.1,0.7-0.2,1.1-0.4v1.4c-0.3,0.2-0.7,0.3-1,0.4c-0.4,0.1-0.8,0.1-1.3,0.1
	c-0.7,0-1.2-0.1-1.7-0.4c-0.5-0.2-0.9-0.6-1.2-1.1c-0.3-0.5-0.4-1.1-0.4-1.9c0-0.8,0.1-1.4,0.4-1.9c0.3-0.5,0.6-0.9,1.1-1.1
	C42.5,48.7,43,48.6,43.6,48.6z M43.6,49.8c-0.3,0-0.6,0.1-0.9,0.3c-0.2,0.2-0.4,0.6-0.4,1h2.5c0-0.3-0.1-0.5-0.1-0.7
	c-0.1-0.2-0.2-0.4-0.4-0.5C44.1,49.9,43.9,49.8,43.6,49.8z M51.6,48.6c0.1,0,0.2,0,0.3,0c0.1,0,0.2,0,0.3,0l-0.1,1.7
	c-0.1,0-0.1,0-0.3,0c-0.1,0-0.2,0-0.3,0c-0.2,0-0.5,0-0.7,0.1c-0.2,0.1-0.4,0.2-0.6,0.3c-0.2,0.1-0.3,0.3-0.4,0.5
	c-0.1,0.2-0.1,0.5-0.1,0.8v3.3h-1.8v-6.6h1.4l0.3,1.1h0.1c0.1-0.2,0.3-0.4,0.5-0.6c0.2-0.2,0.4-0.3,0.7-0.4
	C51,48.6,51.3,48.6,51.6,48.6z M52.7,52.8v-1.5h3.1v1.5H52.7z M60.8,48.6c0.1,0,0.2,0,0.3,0c0.1,0,0.2,0,0.3,0l-0.1,1.7
	c-0.1,0-0.1,0-0.3,0c-0.1,0-0.2,0-0.3,0c-0.2,0-0.5,0-0.7,0.1c-0.2,0.1-0.4,0.2-0.6,0.3c-0.2,0.1-0.3,0.3-0.4,0.5
	c-0.1,0.2-0.1,0.5-0.1,0.8v3.3h-1.8v-6.6h1.4l0.3,1.1h0.1c0.1-0.2,0.3-0.4,0.5-0.6c0.2-0.2,0.4-0.3,0.7-0.4
	C60.2,48.6,60.5,48.6,60.8,48.6z M65.2,48.6c0.9,0,1.6,0.2,2,0.6c0.5,0.4,0.7,1,0.7,1.7v4.4h-1.2l-0.3-0.9h0
	c-0.2,0.2-0.4,0.4-0.6,0.6c-0.2,0.1-0.4,0.3-0.7,0.3c-0.3,0.1-0.6,0.1-0.9,0.1c-0.4,0-0.7-0.1-1-0.2c-0.3-0.1-0.5-0.4-0.7-0.7
	c-0.2-0.3-0.3-0.7-0.3-1.2c0-0.7,0.2-1.2,0.7-1.5c0.5-0.3,1.2-0.5,2.2-0.6l1.1,0v-0.3c0-0.3-0.1-0.6-0.3-0.8
	c-0.2-0.2-0.4-0.2-0.8-0.2c-0.3,0-0.6,0-0.9,0.1c-0.3,0.1-0.6,0.2-0.9,0.3l-0.6-1.2c0.3-0.2,0.7-0.3,1.2-0.4
	C64.3,48.6,64.7,48.6,65.2,48.6z M66.1,52.2l-0.7,0c-0.6,0-1,0.1-1.2,0.3c-0.2,0.2-0.3,0.4-0.3,0.8c0,0.3,0.1,0.5,0.2,0.6
	c0.2,0.1,0.4,0.2,0.6,0.2c0.4,0,0.7-0.1,1-0.3c0.3-0.2,0.4-0.5,0.4-1V52.2z M71.7,55.4c-0.7,0-1.3-0.3-1.8-0.9
	c-0.5-0.6-0.7-1.4-0.7-2.5c0-1.1,0.2-2,0.7-2.5c0.5-0.6,1.1-0.9,1.8-0.9c0.3,0,0.6,0,0.8,0.1c0.2,0.1,0.4,0.2,0.6,0.3
	c0.2,0.1,0.3,0.3,0.4,0.5h0.1c0-0.1-0.1-0.3-0.1-0.6c0-0.2,0-0.5,0-0.8v-2.1h1.8v9.1H74l-0.3-0.8h-0.1c-0.1,0.2-0.3,0.3-0.4,0.5
	c-0.2,0.1-0.4,0.3-0.6,0.3C72.3,55.3,72.1,55.4,71.7,55.4z M72.4,53.9c0.5,0,0.8-0.1,1-0.4c0.2-0.3,0.3-0.7,0.3-1.3V52
	c0-0.6-0.1-1.1-0.3-1.5c-0.2-0.3-0.6-0.5-1.1-0.5c-0.4,0-0.7,0.2-0.9,0.5c-0.2,0.3-0.3,0.8-0.3,1.5c0,0.6,0.1,1.1,0.3,1.4
	C71.6,53.8,72,53.9,72.4,53.9z M79,48.7v6.6h-1.8v-6.6H79z M78.1,46.1c0.3,0,0.5,0.1,0.7,0.2c0.2,0.1,0.3,0.3,0.3,0.7
	c0,0.3-0.1,0.6-0.3,0.7c-0.2,0.1-0.4,0.2-0.7,0.2c-0.3,0-0.5-0.1-0.7-0.2c-0.2-0.1-0.3-0.4-0.3-0.7c0-0.3,0.1-0.6,0.3-0.7
	C77.6,46.2,77.8,46.1,78.1,46.1z M86.8,48.7v6.6h-1.4l-0.2-0.8h-0.1c-0.1,0.2-0.3,0.4-0.5,0.5c-0.2,0.1-0.4,0.2-0.7,0.3
	c-0.3,0.1-0.5,0.1-0.8,0.1c-0.5,0-0.9-0.1-1.2-0.2c-0.3-0.2-0.6-0.4-0.8-0.8c-0.2-0.4-0.3-0.8-0.3-1.4v-4.3h1.8v3.8
	c0,0.5,0.1,0.8,0.3,1.1s0.4,0.4,0.8,0.4c0.4,0,0.6-0.1,0.9-0.2c0.2-0.2,0.4-0.4,0.4-0.7c0.1-0.3,0.1-0.7,0.1-1.2v-3.1H86.8z
	 M93.2,53.3c0,0.4-0.1,0.8-0.3,1.1c-0.2,0.3-0.5,0.5-0.9,0.7c-0.4,0.2-0.9,0.2-1.5,0.2c-0.5,0-0.8,0-1.2-0.1c-0.3-0.1-0.7-0.2-1-0.3
	v-1.5c0.4,0.2,0.7,0.3,1.1,0.4c0.4,0.1,0.8,0.2,1.1,0.2c0.3,0,0.6-0.1,0.7-0.2c0.2-0.1,0.2-0.2,0.2-0.4c0-0.1,0-0.2-0.1-0.3
	c-0.1-0.1-0.2-0.2-0.4-0.3c-0.2-0.1-0.5-0.3-0.9-0.4c-0.4-0.2-0.7-0.3-1-0.5c-0.3-0.2-0.5-0.4-0.6-0.6c-0.1-0.2-0.2-0.5-0.2-0.9
	c0-0.6,0.2-1.1,0.7-1.4c0.5-0.3,1.1-0.5,1.9-0.5c0.4,0,0.8,0,1.2,0.1c0.4,0.1,0.8,0.2,1.1,0.4l-0.5,1.3c-0.3-0.1-0.6-0.3-0.9-0.3
	c-0.3-0.1-0.6-0.1-0.9-0.1c-0.3,0-0.5,0-0.6,0.1C90,50.1,90,50.2,90,50.3c0,0.1,0,0.2,0.1,0.3c0.1,0.1,0.2,0.2,0.4,0.3
	c0.2,0.1,0.5,0.2,0.9,0.4c0.4,0.2,0.7,0.3,1,0.5c0.3,0.2,0.5,0.4,0.6,0.6C93.1,52.6,93.2,52.9,93.2,53.3z M94.2,54.4
	c0-0.4,0.1-0.6,0.3-0.8c0.2-0.1,0.4-0.2,0.7-0.2c0.3,0,0.5,0.1,0.7,0.2c0.2,0.1,0.3,0.4,0.3,0.8c0,0.4-0.1,0.6-0.3,0.8
	c-0.2,0.2-0.4,0.2-0.7,0.2c-0.3,0-0.5-0.1-0.7-0.2C94.3,55,94.2,54.8,94.2,54.4z M94.2,49.6c0-0.4,0.1-0.6,0.3-0.8
	c0.2-0.1,0.4-0.2,0.7-0.2c0.3,0,0.5,0.1,0.7,0.2c0.2,0.1,0.3,0.4,0.3,0.8c0,0.4-0.1,0.6-0.3,0.8c-0.2,0.2-0.4,0.2-0.7,0.2
	c-0.3,0-0.5-0.1-0.7-0.2C94.3,50.2,94.2,49.9,94.2,49.6z M104.2,55.2h-0.9v-6.1c0-0.2,0-0.4,0-0.6c0-0.2,0-0.3,0-0.5
	c0-0.1,0-0.3,0-0.4c-0.1,0.1-0.2,0.2-0.3,0.3c-0.1,0.1-0.2,0.2-0.4,0.3l-1,0.8l-0.5-0.7l2.3-1.8h0.8V55.2z M107.4,51.6
	c0-0.5,0-1,0.1-1.5c0.1-0.5,0.2-0.9,0.4-1.4c0.2-0.4,0.4-0.8,0.7-1.1c0.3-0.3,0.7-0.6,1.1-0.8c0.4-0.2,1-0.3,1.6-0.3
	c0.2,0,0.4,0,0.6,0c0.2,0,0.4,0,0.5,0.1v0.8c-0.1-0.1-0.3-0.1-0.5-0.1c-0.2,0-0.4,0-0.6,0c-0.7,0-1.3,0.2-1.7,0.5
	c-0.4,0.3-0.7,0.7-0.9,1.3c-0.2,0.5-0.3,1.1-0.3,1.8h0.1c0.1-0.2,0.3-0.4,0.5-0.5c0.2-0.2,0.4-0.3,0.7-0.4c0.3-0.1,0.6-0.1,0.9-0.1
	c0.5,0,0.9,0.1,1.3,0.3c0.4,0.2,0.7,0.5,0.9,0.9c0.2,0.4,0.3,0.9,0.3,1.4c0,0.6-0.1,1.1-0.3,1.5c-0.2,0.4-0.5,0.8-0.9,1
	c-0.4,0.2-0.9,0.3-1.4,0.3c-0.4,0-0.8-0.1-1.2-0.2c-0.4-0.2-0.7-0.4-0.9-0.7c-0.3-0.3-0.5-0.7-0.6-1.2
	C107.5,52.8,107.4,52.2,107.4,51.6z M110.3,54.5c0.5,0,1-0.2,1.3-0.5c0.3-0.3,0.5-0.9,0.5-1.5c0-0.6-0.1-1-0.4-1.3
	c-0.3-0.3-0.7-0.5-1.3-0.5c-0.4,0-0.7,0.1-1,0.2c-0.3,0.2-0.5,0.4-0.7,0.6c-0.2,0.2-0.2,0.5-0.2,0.8c0,0.3,0,0.5,0.1,0.8
	c0.1,0.3,0.2,0.5,0.4,0.7c0.2,0.2,0.4,0.4,0.6,0.5C109.7,54.5,110,54.5,110.3,54.5z M116.8,55.4c-0.8,0-1.5-0.3-1.9-0.8
	c-0.5-0.6-0.7-1.4-0.7-2.5c0-1.1,0.2-1.9,0.7-2.5c0.5-0.6,1.1-0.8,1.9-0.8c0.3,0,0.6,0,0.9,0.1c0.3,0.1,0.5,0.2,0.7,0.4
	c0.2,0.1,0.3,0.3,0.5,0.5h0.1c0-0.1,0-0.3,0-0.5c0-0.2,0-0.4,0-0.5v-2.6h1v9.1h-0.8l-0.1-0.9h0c-0.1,0.2-0.3,0.4-0.5,0.5
	c-0.2,0.2-0.4,0.3-0.7,0.4C117.5,55.3,117.2,55.4,116.8,55.4z M117,54.6c0.7,0,1.2-0.2,1.5-0.6c0.3-0.4,0.4-1,0.4-1.7v-0.2
	c0-0.8-0.1-1.4-0.4-1.9c-0.3-0.4-0.8-0.7-1.5-0.7c-0.6,0-1,0.2-1.3,0.7c-0.3,0.5-0.4,1.1-0.4,1.9c0,0.8,0.1,1.4,0.4,1.8
	C115.9,54.3,116.4,54.6,117,54.6z M124.9,48.7c0.8,0,1.4,0.3,1.9,0.8c0.5,0.6,0.7,1.4,0.7,2.5c0,0.7-0.1,1.3-0.3,1.8
	c-0.2,0.5-0.5,0.9-0.9,1.1c-0.4,0.3-0.9,0.4-1.4,0.4c-0.3,0-0.6,0-0.9-0.1c-0.3-0.1-0.5-0.2-0.7-0.4c-0.2-0.2-0.3-0.3-0.5-0.5h-0.1
	c0,0.2,0,0.3,0,0.6c0,0.2,0,0.4,0,0.6v2.6h-1v-9.3h0.8l0.1,0.9h0c0.1-0.2,0.3-0.4,0.5-0.5c0.2-0.2,0.4-0.3,0.7-0.4
	C124.2,48.8,124.5,48.7,124.9,48.7z M124.7,49.5c-0.4,0-0.8,0.1-1.1,0.3c-0.3,0.2-0.5,0.4-0.6,0.8c-0.1,0.3-0.2,0.8-0.2,1.3V52
	c0,0.5,0.1,1,0.2,1.4c0.1,0.4,0.3,0.7,0.6,0.9c0.3,0.2,0.6,0.3,1.1,0.3c0.4,0,0.7-0.1,1-0.3c0.3-0.2,0.5-0.5,0.6-0.9
	c0.1-0.4,0.2-0.8,0.2-1.3c0-0.8-0.1-1.4-0.4-1.8C125.7,49.8,125.3,49.5,124.7,49.5z"/>
<path class="st1" d="M1,67.2v-54h134.4v10.5l7,7.9l-7,7.3v28.3H1z"/>
<path class="st0" d="M156.7,61.3h-1.8V44.6h1.8V61.3z M165.1,49.4c1.4,0,2.4,0.3,3.1,0.9c0.7,0.6,1,1.6,1,3v8h-1.3l-0.3-1.7h-0.1
	c-0.3,0.4-0.7,0.8-1,1.1c-0.4,0.3-0.8,0.5-1.2,0.7c-0.5,0.1-1,0.2-1.7,0.2c-0.7,0-1.4-0.1-1.9-0.4c-0.6-0.3-1-0.6-1.3-1.1
	c-0.3-0.5-0.5-1.2-0.5-1.9c0-1.2,0.5-2.1,1.4-2.7s2.3-1,4.3-1l2-0.1v-0.7c0-1-0.2-1.7-0.7-2.1c-0.4-0.4-1.1-0.6-1.8-0.6
	c-0.6,0-1.2,0.1-1.8,0.3c-0.6,0.2-1.1,0.4-1.6,0.6l-0.5-1.4c0.5-0.3,1.1-0.5,1.8-0.7C163.6,49.5,164.3,49.4,165.1,49.4z M167.5,55.5
	l-1.8,0.1c-1.5,0.1-2.5,0.3-3.1,0.7c-0.6,0.4-0.9,1-0.9,1.8c0,0.7,0.2,1.2,0.6,1.5c0.4,0.3,0.9,0.5,1.6,0.5c1,0,1.9-0.3,2.6-0.9
	c0.7-0.6,1-1.5,1-2.6V55.5z M174.9,44.6v4.2c0,0.5,0,0.9,0,1.4c0,0.5,0,0.8-0.1,1.1h0.1c0.3-0.5,0.8-1,1.4-1.3
	c0.6-0.4,1.4-0.5,2.3-0.5c1.5,0,2.7,0.5,3.5,1.5c0.9,1,1.3,2.5,1.3,4.5c0,1.3-0.2,2.4-0.6,3.4c-0.4,0.9-1,1.6-1.7,2.1
	c-0.7,0.5-1.6,0.7-2.6,0.7c-0.9,0-1.7-0.2-2.3-0.5c-0.6-0.4-1.1-0.8-1.4-1.3h-0.1l-0.4,1.6h-1.3V44.6H174.9z M178.4,50.8
	c-0.9,0-1.5,0.2-2,0.5c-0.5,0.3-0.9,0.8-1.1,1.5c-0.2,0.7-0.3,1.5-0.3,2.5v0.1c0,1.5,0.2,2.6,0.7,3.4c0.5,0.8,1.4,1.2,2.7,1.2
	c1.1,0,1.9-0.4,2.5-1.2c0.6-0.8,0.8-1.9,0.8-3.4c0-1.5-0.3-2.7-0.8-3.4C180.3,51.2,179.5,50.8,178.4,50.8z M191.4,49.3
	c1,0,1.9,0.2,2.6,0.7c0.7,0.4,1.3,1.1,1.6,1.9c0.4,0.8,0.6,1.7,0.6,2.8v1.1h-8.1c0,1.4,0.4,2.4,1,3.2c0.7,0.7,1.6,1.1,2.8,1.1
	c0.7,0,1.4-0.1,2-0.2s1.2-0.3,1.8-0.6v1.6c-0.6,0.3-1.2,0.5-1.8,0.6c-0.6,0.1-1.3,0.2-2.1,0.2c-1.1,0-2.1-0.2-3-0.7
	c-0.8-0.5-1.5-1.1-2-2c-0.5-0.9-0.7-2-0.7-3.3c0-1.3,0.2-2.4,0.6-3.3c0.4-0.9,1-1.6,1.8-2.1C189.4,49.6,190.4,49.3,191.4,49.3z
	 M191.4,50.8c-1,0-1.7,0.3-2.3,0.9c-0.6,0.6-0.9,1.5-1,2.6h6.2c0-0.7-0.1-1.3-0.3-1.8c-0.2-0.5-0.5-1-1-1.2
	C192.6,51,192.1,50.8,191.4,50.8z M201.3,61.3h-1.8V44.6h1.8V61.3z"/>
<path class="st2" d="M231.4,44.3h259c4.4,0,8,3.6,8,8l0,0c0,4.4-3.6,8-8,8h-259c-4.4,0-8-3.6-8-8l0,0
	C223.4,47.9,227,44.3,231.4,44.3z"/>
<path class="st3" d="M231.4,44.3h174c4.4,0,8,3.6,8,8l0,0c0,4.4-3.6,8-8,8h-174c-4.4,0-8-3.6-8-8l0,0
	C223.4,47.9,227,44.3,231.4,44.3z"/>
<circle class="st4" cx="393.4" cy="52.3" r="18"/>
<circle class="st5" cx="393.4" cy="52.3" r="24"/>
<path d="M510.4,25.3h48c1.7,0,3,1.3,3,3v48c0,1.7-1.3,3-3,3h-48c-1.7,0-3-1.3-3-3v-48C507.4,26.7,508.8,25.3,510.4,25.3z"/>
<path class="st0" d="M528.4,51.3c1,0,1.8,0.2,2.6,0.5c0.8,0.4,1.3,0.9,1.8,1.6c0.4,0.7,0.6,1.6,0.6,2.6c0,1.1-0.2,2.1-0.7,2.9
	c-0.5,0.8-1.2,1.4-2.1,1.9c-0.9,0.4-2.1,0.7-3.5,0.7c-0.8,0-1.6-0.1-2.3-0.2c-0.7-0.1-1.4-0.3-1.9-0.6v-2.9c0.5,0.3,1.2,0.5,2,0.7
	c0.8,0.2,1.5,0.3,2.2,0.3c0.7,0,1.2-0.1,1.7-0.3c0.5-0.2,0.8-0.5,1-0.8c0.2-0.4,0.4-0.8,0.4-1.4c0-0.8-0.3-1.4-0.8-1.8
	c-0.5-0.4-1.3-0.6-2.4-0.6c-0.4,0-0.8,0-1.3,0.1c-0.4,0.1-0.8,0.2-1.1,0.2l-1.3-0.7l0.6-8h8.5v2.8h-5.6l-0.3,3.1
	c0.2-0.1,0.5-0.1,0.8-0.2C527.5,51.3,527.9,51.3,528.4,51.3z M546.2,53.5c0,1.3-0.1,2.4-0.3,3.4c-0.2,1-0.5,1.8-0.9,2.5
	c-0.4,0.7-1,1.2-1.7,1.6c-0.7,0.4-1.6,0.5-2.6,0.5c-1.3,0-2.3-0.3-3.1-1c-0.8-0.6-1.4-1.6-1.8-2.8c-0.4-1.2-0.6-2.7-0.6-4.3
	c0-1.7,0.2-3.1,0.5-4.4c0.4-1.2,0.9-2.1,1.7-2.8s1.9-1,3.2-1c1.3,0,2.3,0.3,3.1,1c0.8,0.6,1.4,1.6,1.8,2.8
	C546,50.3,546.2,51.8,546.2,53.5z M538.5,53.5c0,1.2,0.1,2.2,0.2,3c0.1,0.8,0.4,1.4,0.7,1.8c0.3,0.4,0.8,0.6,1.3,0.6
	c0.6,0,1-0.2,1.3-0.6c0.3-0.4,0.6-1,0.7-1.8c0.1-0.8,0.2-1.8,0.2-3c0-1.2-0.1-2.2-0.2-3c-0.1-0.8-0.4-1.4-0.7-1.8
	c-0.3-0.4-0.7-0.6-1.3-0.6c-0.6,0-1,0.2-1.3,0.6c-0.3,0.4-0.5,1-0.7,1.8C538.6,51.3,538.5,52.3,538.5,53.5z"/>
<path class="st6" d="M510.4,25.3h48c1.7,0,3,1.3,3,3v48c0,1.7-1.3,3-3,3h-48c-1.7,0-3-1.3-3-3v-48C507.4,26.7,508.8,25.3,510.4,25.3
	z"/>
<path class="st7" d="M569.4,24.3h9v56h-9"/>
<path class="st8" d="M589,50.9c0.5,0,1,0.1,1.4,0.3c0.4,0.2,0.7,0.5,1,0.9c0.2,0.4,0.4,0.9,0.4,1.4c0,0.6-0.1,1.2-0.4,1.6
	c-0.3,0.4-0.6,0.8-1.1,1c-0.5,0.2-1.1,0.4-1.9,0.4c-0.4,0-0.9,0-1.3-0.1c-0.4-0.1-0.7-0.2-1-0.3v-1.6c0.3,0.2,0.7,0.3,1.1,0.4
	c0.4,0.1,0.8,0.2,1.2,0.2c0.4,0,0.7,0,0.9-0.1c0.2-0.1,0.4-0.2,0.6-0.4c0.1-0.2,0.2-0.5,0.2-0.8c0-0.4-0.1-0.7-0.4-1
	c-0.3-0.2-0.7-0.3-1.3-0.3c-0.2,0-0.5,0-0.7,0.1c-0.2,0-0.4,0.1-0.6,0.1l-0.7-0.4l0.3-4.4h4.6v1.5h-3.1l-0.2,1.7
	c0.1,0,0.3-0.1,0.4-0.1C588.5,50.9,588.7,50.9,589,50.9z M592.6,52.7c0-0.5,0-1,0.1-1.5c0.1-0.5,0.2-0.9,0.4-1.4
	c0.2-0.4,0.4-0.8,0.8-1.1c0.3-0.3,0.7-0.6,1.2-0.8c0.5-0.2,1.1-0.3,1.8-0.3c0.2,0,0.4,0,0.6,0c0.2,0,0.4,0,0.6,0.1v1.4
	c-0.2,0-0.3-0.1-0.5-0.1c-0.2,0-0.4,0-0.5,0c-0.7,0-1.3,0.1-1.7,0.3c-0.4,0.2-0.7,0.5-0.8,0.9c-0.2,0.4-0.2,0.9-0.3,1.4h0.1
	c0.1-0.2,0.2-0.4,0.4-0.5c0.2-0.1,0.4-0.3,0.6-0.4c0.2-0.1,0.5-0.1,0.8-0.1c0.5,0,0.9,0.1,1.3,0.3c0.4,0.2,0.6,0.5,0.8,0.9
	c0.2,0.4,0.3,0.9,0.3,1.5c0,0.6-0.1,1.1-0.4,1.6c-0.2,0.4-0.6,0.8-1,1c-0.4,0.2-0.9,0.4-1.5,0.4c-0.4,0-0.8-0.1-1.2-0.2
	c-0.4-0.2-0.7-0.4-1-0.7c-0.3-0.3-0.5-0.7-0.7-1.2C592.7,53.9,592.6,53.3,592.6,52.7z M595.7,55c0.4,0,0.6-0.1,0.9-0.4
	c0.2-0.2,0.3-0.6,0.3-1.1c0-0.4-0.1-0.7-0.3-1c-0.2-0.2-0.5-0.4-0.9-0.4c-0.3,0-0.5,0.1-0.7,0.2c-0.2,0.1-0.4,0.3-0.5,0.5
	c-0.1,0.2-0.2,0.4-0.2,0.6c0,0.2,0,0.4,0.1,0.6c0.1,0.2,0.1,0.4,0.2,0.5c0.1,0.2,0.2,0.3,0.4,0.4C595.3,55,595.5,55,595.7,55z
	 M602,56.5c-0.7,0-1.3-0.3-1.8-0.9c-0.5-0.6-0.7-1.4-0.7-2.5c0-1.1,0.2-2,0.7-2.5c0.5-0.6,1.1-0.9,1.8-0.9c0.3,0,0.6,0,0.8,0.1
	c0.2,0.1,0.4,0.2,0.6,0.3c0.2,0.1,0.3,0.3,0.4,0.5h0.1c0-0.1-0.1-0.3-0.1-0.6c0-0.2,0-0.5,0-0.8v-2.1h1.8v9.1h-1.4l-0.3-0.8h-0.1
	c-0.1,0.2-0.3,0.3-0.4,0.5c-0.2,0.1-0.4,0.3-0.6,0.3C602.6,56.4,602.3,56.5,602,56.5z M602.6,55c0.5,0,0.8-0.1,1-0.4
	c0.2-0.3,0.3-0.7,0.3-1.3v-0.2c0-0.6-0.1-1.1-0.3-1.5c-0.2-0.3-0.6-0.5-1.1-0.5c-0.4,0-0.7,0.2-0.9,0.5c-0.2,0.3-0.3,0.8-0.3,1.5
	c0,0.6,0.1,1.1,0.3,1.4C601.9,54.9,602.2,55,602.6,55z M611.1,49.7c0.7,0,1.3,0.3,1.8,0.9c0.5,0.6,0.7,1.4,0.7,2.5
	c0,0.7-0.1,1.4-0.3,1.9c-0.2,0.5-0.5,0.9-0.9,1.1c-0.4,0.3-0.8,0.4-1.3,0.4c-0.3,0-0.6,0-0.8-0.1c-0.2-0.1-0.4-0.2-0.6-0.3
	c-0.2-0.1-0.3-0.3-0.4-0.4h-0.1c0,0.2,0.1,0.3,0.1,0.5c0,0.2,0,0.3,0,0.5v2.6h-1.8v-9.4h1.5l0.3,0.8h0.1c0.1-0.2,0.3-0.3,0.4-0.5
	c0.2-0.1,0.4-0.3,0.6-0.4C610.5,49.7,610.8,49.7,611.1,49.7z M610.5,51.1c-0.3,0-0.6,0.1-0.7,0.2c-0.2,0.1-0.3,0.3-0.4,0.6
	c-0.1,0.3-0.1,0.6-0.1,1V53c0,0.4,0,0.8,0.1,1.1c0.1,0.3,0.2,0.5,0.4,0.7c0.2,0.2,0.5,0.2,0.8,0.2c0.3,0,0.5-0.1,0.7-0.2
	c0.2-0.2,0.3-0.4,0.4-0.7c0.1-0.3,0.1-0.7,0.1-1.1c0-0.6-0.1-1.1-0.3-1.4C611.3,51.3,610.9,51.1,610.5,51.1z"/>
<rect x="203.4" y="23.3" class="st9" width="20" height="57"/>
<rect x="498.4" y="25.3" class="st9" width="7" height="53"/>
<path class="st10" d="M496.4,10.2c0.6,0,1.1,0.1,1.5,0.3c0.4,0.2,0.8,0.5,1,0.8c0.3,0.4,0.4,0.8,0.4,1.3c0,0.4-0.1,0.8-0.3,1.1
	c-0.2,0.3-0.4,0.6-0.7,0.8c-0.3,0.2-0.6,0.4-1,0.6c0.4,0.2,0.8,0.4,1.2,0.7c0.3,0.2,0.6,0.5,0.8,0.9c0.2,0.3,0.3,0.7,0.3,1.2
	c0,0.6-0.1,1-0.4,1.5c-0.3,0.4-0.6,0.7-1.1,0.9c-0.5,0.2-1.1,0.3-1.7,0.3c-0.7,0-1.3-0.1-1.8-0.3c-0.5-0.2-0.9-0.5-1.1-0.9
	c-0.3-0.4-0.4-0.9-0.4-1.4c0-0.5,0.1-0.9,0.3-1.2c0.2-0.3,0.5-0.6,0.8-0.9c0.3-0.2,0.7-0.5,1.1-0.6c-0.3-0.2-0.6-0.4-0.9-0.6
	c-0.3-0.2-0.5-0.5-0.7-0.8c-0.2-0.3-0.2-0.7-0.2-1.1c0-0.5,0.1-0.9,0.4-1.3c0.3-0.4,0.6-0.6,1.1-0.8
	C495.3,10.3,495.8,10.2,496.4,10.2z M494.2,17.8c0,0.5,0.2,0.9,0.5,1.3c0.4,0.3,0.9,0.5,1.6,0.5c0.7,0,1.2-0.2,1.6-0.5
	c0.4-0.3,0.6-0.8,0.6-1.3c0-0.3-0.1-0.6-0.3-0.9c-0.2-0.3-0.4-0.5-0.7-0.7c-0.3-0.2-0.7-0.4-1.1-0.5l-0.2-0.1
	c-0.4,0.2-0.8,0.4-1.1,0.6c-0.3,0.2-0.5,0.4-0.7,0.7C494.3,17.1,494.2,17.4,494.2,17.8z M496.4,11.1c-0.5,0-1,0.1-1.3,0.4
	c-0.3,0.3-0.5,0.6-0.5,1.1c0,0.3,0.1,0.6,0.2,0.9c0.2,0.2,0.4,0.4,0.7,0.6c0.3,0.2,0.6,0.3,1,0.5c0.3-0.1,0.7-0.3,0.9-0.5
	c0.3-0.2,0.5-0.4,0.6-0.6c0.2-0.2,0.2-0.5,0.2-0.9c0-0.5-0.2-0.9-0.5-1.1C497.4,11.3,497,11.1,496.4,11.1z M504.2,20.5
	c-0.9,0-1.7-0.3-2.3-1c-0.6-0.6-0.8-1.6-0.8-2.9c0-1.3,0.3-2.3,0.8-2.9c0.6-0.7,1.3-1,2.3-1c0.4,0,0.7,0.1,1,0.2
	c0.3,0.1,0.6,0.2,0.8,0.4c0.2,0.2,0.4,0.4,0.5,0.6h0.1c0-0.1,0-0.3-0.1-0.6c0-0.2,0-0.4,0-0.6v-3h1.1v10.6h-0.9l-0.2-1.1h0
	c-0.1,0.2-0.3,0.4-0.5,0.6c-0.2,0.2-0.5,0.3-0.8,0.4C505,20.4,504.6,20.5,504.2,20.5z M504.4,19.5c0.8,0,1.4-0.2,1.7-0.7
	c0.3-0.5,0.5-1.1,0.5-2v-0.2c0-1-0.2-1.7-0.5-2.2c-0.3-0.5-0.9-0.8-1.7-0.8c-0.7,0-1.2,0.3-1.6,0.8c-0.3,0.5-0.5,1.3-0.5,2.2
	c0,0.9,0.2,1.6,0.5,2.1C503.2,19.3,503.7,19.5,504.4,19.5z M513.6,12.7c0.9,0,1.7,0.3,2.2,1c0.6,0.6,0.8,1.6,0.8,2.9
	c0,0.9-0.1,1.6-0.4,2.1c-0.3,0.6-0.6,1-1.1,1.3c-0.5,0.3-1,0.4-1.6,0.4c-0.4,0-0.7-0.1-1-0.2c-0.3-0.1-0.6-0.2-0.8-0.4
	c-0.2-0.2-0.4-0.4-0.5-0.6h-0.1c0,0.2,0,0.4,0,0.6c0,0.3,0,0.5,0,0.7v3.1H510V12.8h0.9l0.2,1.1h0.1c0.1-0.2,0.3-0.4,0.5-0.6
	c0.2-0.2,0.5-0.3,0.8-0.5C512.8,12.8,513.1,12.7,513.6,12.7z M513.4,13.7c-0.5,0-0.9,0.1-1.3,0.3c-0.3,0.2-0.5,0.5-0.7,0.9
	c-0.1,0.4-0.2,0.9-0.2,1.5v0.2c0,0.6,0.1,1.2,0.2,1.6c0.1,0.4,0.4,0.8,0.7,1c0.3,0.2,0.8,0.3,1.3,0.3c0.5,0,0.9-0.1,1.2-0.4
	c0.3-0.3,0.5-0.6,0.7-1c0.2-0.5,0.2-1,0.2-1.6c0-0.9-0.2-1.6-0.5-2.1C514.6,13.9,514.1,13.7,513.4,13.7z"/>
<path class="st10" d="M205.7,15.2h-6.6v-1l2.6-2.6c0.8-0.8,1.3-1.4,1.6-1.7c0.3-0.3,0.4-0.7,0.6-1c0.1-0.3,0.2-0.7,0.2-1.1
	c0-0.5-0.2-1-0.5-1.3c-0.3-0.3-0.8-0.5-1.3-0.5c-0.4,0-0.8,0.1-1.2,0.2c-0.4,0.1-0.8,0.4-1.2,0.7l-0.6-0.8c0.9-0.8,1.9-1.1,3-1.1
	c0.9,0,1.7,0.2,2.2,0.7c0.5,0.5,0.8,1.1,0.8,1.9c0,0.6-0.2,1.3-0.5,1.9c-0.4,0.6-1,1.4-2,2.4l-2.2,2.1v0.1h5.1V15.2z M213.7,10.2
	c0,1.7-0.3,3-0.8,3.9c-0.5,0.9-1.4,1.3-2.5,1.3c-1.1,0-1.9-0.4-2.5-1.3c-0.6-0.9-0.8-2.2-0.8-3.8c0-1.7,0.3-3,0.8-3.9
	c0.5-0.8,1.4-1.3,2.5-1.3c1.1,0,1.9,0.4,2.5,1.3C213.4,7.2,213.7,8.5,213.7,10.2z M208.2,10.2c0,1.5,0.2,2.5,0.5,3.2
	c0.3,0.7,0.9,1,1.6,1c0.8,0,1.3-0.3,1.6-1c0.3-0.7,0.5-1.7,0.5-3.2c0-1.4-0.2-2.5-0.5-3.2c-0.3-0.7-0.9-1-1.6-1
	c-0.7,0-1.3,0.3-1.6,1C208.4,7.6,208.2,8.7,208.2,10.2z M220.6,14.2L220.6,14.2c-0.6,0.8-1.4,1.1-2.4,1.1c-1,0-1.7-0.3-2.3-1
	c-0.5-0.7-0.8-1.6-0.8-2.9c0-1.2,0.3-2.2,0.8-2.9c0.5-0.7,1.3-1,2.3-1c1,0,1.8,0.4,2.3,1.1h0.1l0-0.5l0-0.5v-3h1.1v10.6h-0.9
	L220.6,14.2z M218.4,14.4c0.8,0,1.3-0.2,1.7-0.6c0.4-0.4,0.5-1.1,0.5-2v-0.2c0-1.1-0.2-1.8-0.5-2.3c-0.4-0.5-0.9-0.7-1.7-0.7
	c-0.7,0-1.2,0.3-1.5,0.8c-0.4,0.5-0.5,1.2-0.5,2.2c0,1,0.2,1.7,0.5,2.2C217.2,14.1,217.7,14.4,218.4,14.4z M227.5,15.3
	c-0.5,0-0.9-0.1-1.3-0.3c-0.4-0.2-0.7-0.5-1-0.8h-0.1c0.1,0.4,0.1,0.9,0.1,1.2v3.1H224V7.7h0.9l0.2,1h0.1c0.3-0.4,0.6-0.7,1-0.9
	c0.4-0.2,0.8-0.3,1.3-0.3c1,0,1.8,0.3,2.3,1c0.5,0.7,0.8,1.6,0.8,2.9c0,1.2-0.3,2.2-0.8,2.9C229.2,15,228.5,15.3,227.5,15.3z
	 M227.3,8.5c-0.8,0-1.3,0.2-1.7,0.6c-0.3,0.4-0.5,1.1-0.5,2v0.3c0,1.1,0.2,1.8,0.5,2.3c0.3,0.5,0.9,0.7,1.7,0.7
	c0.6,0,1.2-0.3,1.5-0.8c0.4-0.5,0.6-1.2,0.6-2.2c0-0.9-0.2-1.6-0.6-2.1C228.5,8.8,228,8.5,227.3,8.5z"/>
</svg>
