<svg width="559" height="44" fill="none" xmlns="http://www.w3.org/2000/svg"><path d="M1.64 28.273V16.285h1.394v10.741h5.322v1.247H1.64zm11.763-9.135c1.071 0 1.866.24 2.386.722.519.48.779 1.249.779 2.304v6.108h-.993l-.262-1.328h-.066a4.985 4.985 0 01-.787.828c-.273.219-.59.386-.95.5-.356.11-.793.164-1.313.164-.546 0-1.033-.095-1.46-.287a2.274 2.274 0 01-1-.869c-.24-.388-.36-.88-.36-1.476 0-.896.355-1.585 1.066-2.066.71-.481 1.793-.743 3.247-.787l1.55-.066v-.55c0-.775-.167-1.32-.5-1.63-.334-.313-.804-.468-1.411-.468-.47 0-.919.068-1.345.205-.426.136-.83.298-1.213.483l-.419-1.033a7.49 7.49 0 011.394-.533 6.09 6.09 0 011.657-.221zm1.82 4.707l-1.37.057c-1.12.044-1.91.227-2.37.55-.458.322-.688.778-.688 1.369 0 .514.156.893.467 1.14.312.245.725.369 1.239.369.798 0 1.451-.222 1.96-.665.508-.442.762-1.107.762-1.992v-.828zm5.342-8.331v3.19c0 .366-.01.721-.033 1.065-.016.345-.03.613-.04.804h.073c.246-.405.601-.746 1.066-1.025.465-.279 1.058-.418 1.78-.418 1.126 0 2.022.39 2.689 1.172.672.777 1.009 1.933 1.009 3.469 0 1.011-.154 1.864-.46 2.558-.306.694-.738 1.22-1.295 1.575-.558.355-1.216.532-1.976.532-.71 0-1.296-.13-1.755-.393-.454-.268-.804-.593-1.05-.976h-.106l-.279 1.206h-.984v-12.76h1.361zm2.624 4.756c-.65 0-1.167.128-1.55.385-.382.251-.658.634-.828 1.148-.164.508-.246 1.153-.246 1.935v.074c0 1.131.189 1.998.566 2.6.377.595 1.063.893 2.058.893.837 0 1.462-.306 1.878-.918.42-.613.631-1.487.631-2.624 0-1.16-.207-2.031-.623-2.616-.41-.585-1.039-.877-1.886-.877zm9.59-1.148c.765 0 1.421.169 1.968.508.546.339.965.815 1.254 1.427.29.607.435 1.317.435 2.132v.844h-6.207c.016 1.055.279 1.859.787 2.41.508.553 1.224.83 2.148.83.569 0 1.072-.053 1.509-.157a8.319 8.319 0 001.361-.459v1.197c-.454.203-.905.35-1.353.443-.443.093-.967.14-1.574.14-.864 0-1.618-.175-2.263-.525a3.671 3.671 0 01-1.493-1.558c-.355-.684-.533-1.52-.533-2.51 0-.967.162-1.803.484-2.509.328-.71.787-1.257 1.378-1.64.596-.382 1.295-.573 2.099-.573zm-.017 1.115c-.727 0-1.306.238-1.738.713-.432.476-.689 1.14-.77 1.993h4.755c-.005-.536-.09-1.006-.254-1.41a1.98 1.98 0 00-.73-.952c-.328-.23-.749-.344-1.263-.344zm7.188 8.036h-1.37v-12.76h1.37v12.76zM76.579 22.578a2.9 2.9 0 00-2.9-2.9V8.38l-8.626 8.168H60.32v11.526h4.733l8.625 8.09V25.479a2.9 2.9 0 002.901-2.9z" fill="#252A2E"/><path d="M76.579 22.578a2.9 2.9 0 00-2.9-2.9V8.38l-8.626 8.168H60.32v11.526h4.733l8.625 8.09V25.479a2.9 2.9 0 002.901-2.9zM79.555 16.624l-2.213 2.213c.916.993 1.526 2.29 1.526 3.74 0 1.451-.61 2.749-1.526 3.741l2.213 2.214a8.428 8.428 0 002.443-5.954c0-2.29-.916-4.427-2.443-5.954z" fill="#252A2E"/><rect x="106.746" y="16.166" width="348.836" height="12.213" rx="6.107" fill="#A3A6B1"/><rect x="106.746" y="16.166" width="183.196" height="12" rx="6" fill="#217CBB"/><circle cx="274.677" cy="22.166" r="14.503" fill="#fff" stroke="#004F83" stroke-width="1.527"/><path d="M486.055 22.578a2.9 2.9 0 00-2.901-2.9V8.38l-8.626 8.168h-4.732v11.526h4.732l8.626 8.09V25.479a2.9 2.9 0 002.901-2.9zM496.435 9.22l-2.213 2.213c2.824 2.825 4.58 6.794 4.58 11.145 0 4.35-1.756 8.244-4.58 11.144l2.213 2.214c3.435-3.435 5.573-8.168 5.573-13.358 0-5.19-2.138-9.923-5.573-13.358z" fill="#252A2E"/><path d="M492.771 12.884l-2.29 2.213a10.376 10.376 0 013.054 7.405c0 2.9-1.145 5.572-3.054 7.48l2.214 2.214c2.443-2.443 4.046-5.878 4.046-9.694 0-3.817-1.527-7.1-3.97-9.618z" fill="#252A2E"/><path d="M489.031 16.624l-2.214 2.213c.916.993 1.527 2.29 1.527 3.74 0 1.451-.611 2.749-1.527 3.741l2.214 2.214a8.427 8.427 0 002.443-5.954c0-2.29-.916-4.427-2.443-5.954zM528.98 28.213h-2.533v-6.937a44.237 44.237 0 01.032-1.574c.011-.3.022-.572.033-.812a5.47 5.47 0 01-.369.369c-.18.17-.35.322-.508.46l-1.378 1.106-1.222-1.525 3.863-3.075h2.082v11.988zm11.66-5.994c0 .968-.076 1.831-.229 2.591-.148.76-.388 1.405-.722 1.935a3.29 3.29 0 01-1.295 1.214c-.536.279-1.187.418-1.952.418-.962 0-1.752-.243-2.37-.73-.617-.492-1.074-1.197-1.369-2.115-.295-.924-.443-2.028-.443-3.313 0-1.296.134-2.402.402-3.32.273-.925.716-1.633 1.328-2.125.613-.492 1.43-.738 2.452-.738.957 0 1.744.246 2.362.738.623.487 1.085 1.192 1.385 2.116.301.918.451 2.028.451 3.33zm-5.863 0c0 .913.05 1.676.148 2.288.104.607.276 1.063.517 1.37.24.305.574.458 1 .458.421 0 .752-.15.992-.45.246-.307.421-.763.525-1.37.104-.612.156-1.378.156-2.296 0-.913-.052-1.675-.156-2.288-.104-.612-.279-1.071-.525-1.377-.24-.312-.571-.467-.992-.467-.426 0-.76.155-1 .467-.241.306-.413.765-.517 1.377-.098.613-.148 1.375-.148 2.288zm15.473 0c0 .968-.076 1.831-.229 2.591-.148.76-.388 1.405-.722 1.935a3.29 3.29 0 01-1.295 1.214c-.536.279-1.187.418-1.952.418-.962 0-1.752-.243-2.37-.73-.617-.492-1.074-1.197-1.369-2.115-.295-.924-.443-2.028-.443-3.313 0-1.296.134-2.402.402-3.32.273-.925.716-1.633 1.328-2.125.613-.492 1.43-.738 2.452-.738.957 0 1.744.246 2.362.738.623.487 1.085 1.192 1.385 2.116.301.918.451 2.028.451 3.33zm-5.862 0c0 .913.049 1.676.147 2.288.104.607.276 1.063.517 1.37.24.305.574.458 1 .458.421 0 .752-.15.992-.45.246-.307.421-.763.525-1.37.104-.612.156-1.378.156-2.296 0-.913-.052-1.675-.156-2.288-.104-.612-.279-1.071-.525-1.377-.24-.312-.571-.467-.992-.467-.426 0-.76.155-1 .467-.241.306-.413.765-.517 1.377-.098.613-.147 1.375-.147 2.288z" fill="#252A2E"/></svg>