<svg width="1087" height="167" viewBox="0 0 1087 167" fill="none" xmlns="http://www.w3.org/2000/svg"><rect width="1087" height="167" fill="#6A6E79"/><rect width="542" height="40" transform="translate(1 1.00012)" fill="#464B52"/><path d="M12.2578 26.0001V16.006H14.377V24.2501H18.4307V26.0001H12.2578ZM23.0908 19.6974C22.6487 19.6974 22.3024 19.8387 22.0517 20.1212C21.8011 20.3992 21.6575 20.7957 21.6211 21.3107H24.5469C24.5377 20.7957 24.4033 20.3992 24.1435 20.1212C23.8838 19.8387 23.5329 19.6974 23.0908 19.6974ZM23.3847 26.1368C22.1543 26.1368 21.1927 25.7973 20.5 25.1183C19.8073 24.4392 19.4609 23.4777 19.4609 22.2335C19.4609 20.9529 19.7799 19.964 20.418 19.2667C21.0605 18.5649 21.9469 18.214 23.0771 18.214C24.1572 18.214 24.998 18.5216 25.5996 19.1368C26.2012 19.7521 26.5019 20.602 26.5019 21.6866V22.6984H21.5732C21.596 23.2908 21.7715 23.7534 22.0996 24.0861C22.4277 24.4187 22.888 24.5851 23.4805 24.5851C23.9407 24.5851 24.376 24.5372 24.7861 24.4415C25.1963 24.3458 25.6247 24.1932 26.0713 23.9835V25.5968C25.7067 25.7791 25.317 25.9135 24.9023 26.0001C24.4876 26.0913 23.9818 26.1368 23.3847 26.1368ZM32.3379 19.923H30.5332V26.0001H28.4482V19.923H27.2998V18.9181L28.4482 18.3575V17.797C28.4482 16.9266 28.6624 16.2908 29.0908 15.8898C29.5192 15.4887 30.205 15.2882 31.1484 15.2882C31.8685 15.2882 32.5088 15.3953 33.0693 15.6095L32.5361 17.1407C32.1168 17.0086 31.7295 16.9425 31.374 16.9425C31.0778 16.9425 30.8636 17.0314 30.7314 17.2091C30.5993 17.3823 30.5332 17.6056 30.5332 17.879V18.3575H32.3379V19.923ZM36.6767 24.4757C37.0413 24.4757 37.4788 24.396 37.9892 24.2365V25.7882C37.4697 26.0206 36.8317 26.1368 36.0751 26.1368C35.2412 26.1368 34.6328 25.9272 34.25 25.5079C33.8717 25.0841 33.6826 24.4506 33.6826 23.6075V19.923H32.6845V19.0411L33.833 18.3439L34.4345 16.7306H35.7675V18.3575H37.9072V19.923H35.7675V23.6075C35.7675 23.9038 35.8496 24.1225 36.0136 24.2638C36.1822 24.4051 36.4033 24.4757 36.6767 24.4757ZM43.1737 26.0001V16.006H45.2929V24.2501H49.3466V26.0001H43.1737ZM55.6952 26.0001L55.2919 24.9611H55.2372C54.8863 25.4031 54.524 25.7107 54.1503 25.8839C53.7812 26.0525 53.2981 26.1368 52.7011 26.1368C51.9674 26.1368 51.3886 25.9272 50.9647 25.5079C50.5455 25.0887 50.3358 24.4917 50.3358 23.7169C50.3358 22.9057 50.6184 22.3087 51.1835 21.9259C51.7532 21.5385 52.6099 21.3243 53.7538 21.2833L55.08 21.2423V20.9073C55.08 20.1326 54.6835 19.7452 53.8905 19.7452C53.2799 19.7452 52.5621 19.9298 51.7372 20.299L51.0468 18.8907C51.9263 18.4305 52.9016 18.2003 53.9726 18.2003C54.998 18.2003 55.7841 18.4236 56.331 18.8702C56.8778 19.3169 57.1513 19.9959 57.1513 20.9073V26.0001H55.6952ZM55.08 22.4591L54.2733 22.4865C53.6672 22.5047 53.2161 22.6141 52.9198 22.8146C52.6236 23.0151 52.4755 23.3204 52.4755 23.7306C52.4755 24.3185 52.8127 24.6124 53.4872 24.6124C53.9703 24.6124 54.3554 24.4734 54.6425 24.1954C54.9341 23.9174 55.08 23.5483 55.08 23.088V22.4591ZM63.4725 18.214C64.3749 18.214 65.0813 18.5672 65.5917 19.2736C66.1021 19.9754 66.3573 20.9392 66.3573 22.1652C66.3573 23.4275 66.093 24.4051 65.5643 25.0978C65.0403 25.7905 64.3248 26.1368 63.4179 26.1368C62.5201 26.1368 61.816 25.811 61.3056 25.1593H61.162L60.8134 26.0001H59.2206V15.3634H61.3056V17.838C61.3056 18.1525 61.2782 18.656 61.2235 19.3488H61.3056C61.7932 18.5922 62.5155 18.214 63.4725 18.214ZM62.8026 19.882C62.2876 19.882 61.9117 20.0415 61.6747 20.3605C61.4377 20.6749 61.3147 21.1967 61.3056 21.9259V22.1515C61.3056 22.9718 61.4263 23.5597 61.6679 23.9152C61.914 24.2706 62.3013 24.4484 62.83 24.4484C63.2584 24.4484 63.5979 24.2524 63.8485 23.8605C64.1037 23.464 64.2313 22.8898 64.2313 22.1378C64.2313 21.3859 64.1037 20.823 63.8485 20.4493C63.5933 20.0711 63.2447 19.882 62.8026 19.882ZM71.161 19.6974C70.7189 19.6974 70.3726 19.8387 70.1219 20.1212C69.8713 20.3992 69.7277 20.7957 69.6913 21.3107H72.6171C72.6079 20.7957 72.4735 20.3992 72.2137 20.1212C71.954 19.8387 71.6031 19.6974 71.161 19.6974ZM71.455 26.1368C70.2245 26.1368 69.2629 25.7973 68.5702 25.1183C67.8775 24.4392 67.5311 23.4777 67.5311 22.2335C67.5311 20.9529 67.8501 19.964 68.4882 19.2667C69.1307 18.5649 70.0171 18.214 71.1473 18.214C72.2274 18.214 73.0682 18.5216 73.6698 19.1368C74.2714 19.7521 74.5721 20.602 74.5721 21.6866V22.6984H69.6434C69.6662 23.2908 69.8417 23.7534 70.1698 24.0861C70.4979 24.4187 70.9582 24.5851 71.5507 24.5851C72.0109 24.5851 72.4462 24.5372 72.8563 24.4415C73.2665 24.3458 73.6949 24.1932 74.1415 23.9835V25.5968C73.7769 25.7791 73.3872 25.9135 72.9725 26.0001C72.5578 26.0913 72.052 26.1368 71.455 26.1368ZM78.2684 26.0001H76.1835V15.3634H78.2684V26.0001Z" fill="#fff"/><rect width="542" height="124" transform="translate(1 42.0001)" fill="#353A40"/><path d="M24.9753 111.5V97.8385H26.5638V110.061H32.591V111.5H24.9753ZM40.791 111.5L40.4826 110.042H40.4079C39.897 110.684 39.3862 111.12 38.8754 111.351C38.3708 111.575 37.7385 111.687 36.9784 111.687C35.963 111.687 35.1656 111.425 34.5863 110.902C34.0131 110.379 33.7266 109.634 33.7266 108.669C33.7266 106.601 35.3805 105.517 38.6885 105.417L40.4266 105.361V104.725C40.4266 103.922 40.2521 103.33 39.9033 102.95C39.5606 102.564 39.0093 102.371 38.2493 102.371C37.3958 102.371 36.4302 102.632 35.3525 103.156L34.8759 101.969C35.3805 101.695 35.9319 101.48 36.5299 101.324C37.1342 101.168 37.7385 101.09 38.3427 101.09C39.5638 101.09 40.4671 101.361 41.0526 101.903C41.6445 102.445 41.9404 103.314 41.9404 104.51V111.5H40.791ZM37.2868 110.407C38.2524 110.407 39.0093 110.142 39.5575 109.613C40.112 109.083 40.3892 108.342 40.3892 107.389V106.463L38.838 106.529C37.6045 106.572 36.7137 106.766 36.1655 107.108C35.6235 107.445 35.3525 107.971 35.3525 108.687C35.3525 109.248 35.5207 109.675 35.8571 109.968C36.1997 110.26 36.6763 110.407 37.2868 110.407ZM49.7198 101.09C51.0654 101.09 52.1089 101.551 52.8502 102.473C53.5978 103.389 53.9716 104.688 53.9716 106.37C53.9716 108.052 53.5947 109.36 52.8409 110.295C52.0933 111.223 51.053 111.687 49.7198 111.687C49.0532 111.687 48.4427 111.566 47.8883 111.323C47.3401 111.073 46.8791 110.693 46.5053 110.183H46.3932L46.0661 111.5H44.9541V96.9601H46.5053V100.492C46.5053 101.283 46.4804 101.994 46.4306 102.623H46.5053C47.228 101.601 48.2995 101.09 49.7198 101.09ZM49.4956 102.389C48.4365 102.389 47.6734 102.695 47.2062 103.305C46.7389 103.909 46.5053 104.931 46.5053 106.37C46.5053 107.809 46.7452 108.84 47.2248 109.463C47.7045 110.08 48.4739 110.388 49.5329 110.388C50.4861 110.388 51.1962 110.042 51.6635 109.351C52.1307 108.653 52.3643 107.653 52.3643 106.351C52.3643 105.018 52.1307 104.025 51.6635 103.37C51.1962 102.716 50.4736 102.389 49.4956 102.389ZM60.8259 111.687C59.3121 111.687 58.116 111.226 57.2376 110.304C56.3655 109.382 55.9294 108.102 55.9294 106.463C55.9294 104.813 56.3343 103.501 57.1442 102.529C57.9603 101.558 59.0536 101.072 60.4241 101.072C61.7074 101.072 62.7228 101.495 63.4704 102.343C64.218 103.184 64.5917 104.296 64.5917 105.679V106.66H57.5367C57.5678 107.862 57.8699 108.775 58.4431 109.398C59.0224 110.021 59.8354 110.332 60.882 110.332C61.9846 110.332 63.0748 110.102 64.1525 109.641V111.024C63.6043 111.26 63.0842 111.428 62.592 111.528C62.1061 111.634 61.5174 111.687 60.8259 111.687ZM60.4054 102.371C59.5831 102.371 58.9259 102.638 58.4337 103.174C57.9478 103.71 57.6613 104.451 57.574 105.398H62.9284C62.9284 104.42 62.7104 103.673 62.2743 103.156C61.8382 102.632 61.2153 102.371 60.4054 102.371ZM68.6054 111.5H67.0542V96.9601H68.6054V111.5Z" fill="#fff"/><rect x="87.647" y="97.041" width="371.441" height="13.918" rx="6.959" fill="#A3A6B1"/><rect x="87.647" y="97.041" width="208.773" height="14" rx="7" fill="#019AEB"/><circle cx="279.022" cy="104.041" r="20.877" stroke="#40A3FF" stroke-width="3.48"/><path d="M480.684 111.465H477.796V103.56L477.824 102.261L477.871 100.84C477.391 101.32 477.058 101.635 476.871 101.784L475.301 103.046L473.909 101.307L478.31 97.8033H480.684V111.465ZM493.953 104.634C493.953 107.02 493.56 108.786 492.775 109.932C491.997 111.079 490.794 111.652 489.168 111.652C487.592 111.652 486.402 111.06 485.599 109.876C484.801 108.693 484.403 106.945 484.403 104.634C484.403 102.223 484.792 100.448 485.571 99.3078C486.349 98.1615 487.549 97.5884 489.168 97.5884C490.745 97.5884 491.934 98.1864 492.738 99.3825C493.548 100.579 493.953 102.329 493.953 104.634ZM487.271 104.634C487.271 106.31 487.415 107.512 487.701 108.241C487.994 108.964 488.483 109.325 489.168 109.325C489.841 109.325 490.327 108.958 490.626 108.222C490.925 107.487 491.075 106.291 491.075 104.634C491.075 102.958 490.922 101.756 490.617 101.027C490.318 100.292 489.835 99.9245 489.168 99.9245C488.489 99.9245 488.003 100.292 487.711 101.027C487.418 101.756 487.271 102.958 487.271 104.634ZM504.886 104.634C504.886 107.02 504.493 108.786 503.708 109.932C502.93 111.079 501.727 111.652 500.101 111.652C498.525 111.652 497.335 111.06 496.532 109.876C495.734 108.693 495.336 106.945 495.336 104.634C495.336 102.223 495.725 100.448 496.504 99.3078C497.283 98.1615 498.482 97.5884 500.101 97.5884C501.678 97.5884 502.867 98.1864 503.671 99.3825C504.481 100.579 504.886 102.329 504.886 104.634ZM498.205 104.634C498.205 106.31 498.348 107.512 498.634 108.241C498.927 108.964 499.416 109.325 500.101 109.325C500.774 109.325 501.26 108.958 501.559 108.222C501.858 107.487 502.008 106.291 502.008 104.634C502.008 102.958 501.855 101.756 501.55 101.027C501.251 100.292 500.768 99.9245 500.101 99.9245C499.422 99.9245 498.936 100.292 498.644 101.027C498.351 101.756 498.205 102.958 498.205 104.634Z" fill="#fff"/><path d="M296.007 103.893C296.007 112.854 288.632 120.143 279.504 120.143C270.375 120.143 263 112.854 263 103.893C263 94.9324 270.375 87.6433 279.504 87.6433C288.632 87.6433 296.007 94.9324 296.007 103.893Z" fill="#fff" stroke="#0E416C" stroke-width="2"/><rect width="542" height="40" transform="translate(544 1.00012)" fill="#464B52"/><path d="M555.258 26.0001V16.006H557.377V24.2501H561.431V26.0001H555.258ZM567.779 26.0001L567.376 24.9611H567.321C566.97 25.4031 566.608 25.7107 566.234 25.8839C565.865 26.0525 565.382 26.1368 564.785 26.1368C564.051 26.1368 563.473 25.9272 563.049 25.5079C562.63 25.0887 562.42 24.4917 562.42 23.7169C562.42 22.9057 562.702 22.3087 563.268 21.9259C563.837 21.5385 564.694 21.3243 565.838 21.2833L567.164 21.2423V20.9073C567.164 20.1326 566.768 19.7452 565.975 19.7452C565.364 19.7452 564.646 19.9298 563.821 20.299L563.131 18.8907C564.01 18.4305 564.986 18.2003 566.057 18.2003C567.082 18.2003 567.868 18.4236 568.415 18.8702C568.962 19.3169 569.235 19.9959 569.235 20.9073V26.0001H567.779ZM567.164 22.4591L566.357 22.4865C565.751 22.5047 565.3 22.6141 565.004 22.8146C564.708 23.0151 564.56 23.3204 564.56 23.7306C564.56 24.3185 564.897 24.6124 565.571 24.6124C566.054 24.6124 566.439 24.4734 566.727 24.1954C567.018 23.9174 567.164 23.5483 567.164 23.088V22.4591ZM575.557 18.214C576.459 18.214 577.165 18.5672 577.676 19.2736C578.186 19.9754 578.441 20.9392 578.441 22.1652C578.441 23.4275 578.177 24.4051 577.648 25.0978C577.124 25.7905 576.409 26.1368 575.502 26.1368C574.604 26.1368 573.9 25.811 573.39 25.1593H573.246L572.897 26.0001H571.305V15.3634H573.39V17.838C573.39 18.1525 573.362 18.656 573.308 19.3488H573.39C573.877 18.5922 574.6 18.214 575.557 18.214ZM574.887 19.882C574.372 19.882 573.996 20.0415 573.759 20.3605C573.522 20.6749 573.399 21.1967 573.39 21.9259V22.1515C573.39 22.9718 573.51 23.5597 573.752 23.9152C573.998 24.2706 574.385 24.4484 574.914 24.4484C575.342 24.4484 575.682 24.2524 575.933 23.8605C576.188 23.464 576.315 22.8898 576.315 22.1378C576.315 21.3859 576.188 20.823 575.933 20.4493C575.677 20.0711 575.329 19.882 574.887 19.882ZM583.245 19.6974C582.803 19.6974 582.457 19.8387 582.206 20.1212C581.955 20.3992 581.812 20.7957 581.775 21.3107H584.701C584.692 20.7957 584.558 20.3992 584.298 20.1212C584.038 19.8387 583.687 19.6974 583.245 19.6974ZM583.539 26.1368C582.309 26.1368 581.347 25.7973 580.654 25.1183C579.962 24.4392 579.615 23.4777 579.615 22.2335C579.615 20.9529 579.934 19.964 580.572 19.2667C581.215 18.5649 582.101 18.214 583.231 18.214C584.311 18.214 585.152 18.5216 585.754 19.1368C586.355 19.7521 586.656 20.602 586.656 21.6866V22.6984H581.727C581.75 23.2908 581.926 23.7534 582.254 24.0861C582.582 24.4187 583.042 24.5851 583.635 24.5851C584.095 24.5851 584.53 24.5372 584.94 24.4415C585.351 24.3458 585.779 24.1932 586.226 23.9835V25.5968C585.861 25.7791 585.471 25.9135 585.057 26.0001C584.642 26.0913 584.136 26.1368 583.539 26.1368ZM590.352 26.0001H588.268V15.3634H590.352V26.0001ZM600.869 26.0001L600.466 24.9611H600.411C600.06 25.4031 599.698 25.7107 599.324 25.8839C598.955 26.0525 598.472 26.1368 597.875 26.1368C597.141 26.1368 596.562 25.9272 596.139 25.5079C595.719 25.0887 595.51 24.4917 595.51 23.7169C595.51 22.9057 595.792 22.3087 596.357 21.9259C596.927 21.5385 597.784 21.3243 598.928 21.2833L600.254 21.2423V20.9073C600.254 20.1326 599.857 19.7452 599.064 19.7452C598.454 19.7452 597.736 19.9298 596.911 20.299L596.221 18.8907C597.1 18.4305 598.075 18.2003 599.146 18.2003C600.172 18.2003 600.958 18.4236 601.505 18.8702C602.052 19.3169 602.325 19.9959 602.325 20.9073V26.0001H600.869ZM600.254 22.4591L599.447 22.4865C598.841 22.5047 598.39 22.6141 598.094 22.8146C597.797 23.0151 597.649 23.3204 597.649 23.7306C597.649 24.3185 597.987 24.6124 598.661 24.6124C599.144 24.6124 599.529 24.4734 599.816 24.1954C600.108 23.9174 600.254 23.5483 600.254 23.088V22.4591ZM608.646 18.214C609.549 18.214 610.255 18.5672 610.766 19.2736C611.276 19.9754 611.531 20.9392 611.531 22.1652C611.531 23.4275 611.267 24.4051 610.738 25.0978C610.214 25.7905 609.499 26.1368 608.592 26.1368C607.694 26.1368 606.99 25.811 606.479 25.1593H606.336L605.987 26.0001H604.394V15.3634H606.479V17.838C606.479 18.1525 606.452 18.656 606.397 19.3488H606.479C606.967 18.5922 607.689 18.214 608.646 18.214ZM607.976 19.882C607.461 19.882 607.086 20.0415 606.849 20.3605C606.612 20.6749 606.488 21.1967 606.479 21.9259V22.1515C606.479 22.9718 606.6 23.5597 606.842 23.9152C607.088 24.2706 607.475 24.4484 608.004 24.4484C608.432 24.4484 608.772 24.2524 609.022 23.8605C609.278 23.464 609.405 22.8898 609.405 22.1378C609.405 21.3859 609.278 20.823 609.022 20.4493C608.767 20.0711 608.419 19.882 607.976 19.882ZM614.831 22.1652C614.831 22.9217 614.954 23.4936 615.2 23.881C615.451 24.2684 615.856 24.462 616.417 24.462C616.973 24.462 617.372 24.2706 617.613 23.8878C617.859 23.5004 617.982 22.9262 617.982 22.1652C617.982 21.4087 617.859 20.8413 617.613 20.463C617.367 20.0848 616.964 19.8956 616.403 19.8956C615.847 19.8956 615.446 20.0848 615.2 20.463C614.954 20.8367 614.831 21.4041 614.831 22.1652ZM620.115 22.1652C620.115 23.4093 619.787 24.3823 619.131 25.0841C618.474 25.7859 617.561 26.1368 616.39 26.1368C615.656 26.1368 615.009 25.9773 614.448 25.6583C613.888 25.3348 613.457 24.8722 613.156 24.2706C612.855 23.6691 612.705 22.9672 612.705 22.1652C612.705 20.9165 613.031 19.9458 613.682 19.2531C614.334 18.5603 615.25 18.214 616.431 18.214C617.164 18.214 617.811 18.3735 618.372 18.6925C618.932 19.0115 619.363 19.4695 619.664 20.0665C619.965 20.6635 620.115 21.3631 620.115 22.1652ZM623.572 26.0001L620.66 18.3575H622.841L624.317 22.712C624.481 23.2635 624.584 23.7853 624.625 24.2775H624.666C624.689 23.84 624.791 23.3182 624.973 22.712L626.443 18.3575H628.624L625.712 26.0001H623.572ZM632.806 19.6974C632.363 19.6974 632.017 19.8387 631.766 20.1212C631.516 20.3992 631.372 20.7957 631.336 21.3107H634.262C634.252 20.7957 634.118 20.3992 633.858 20.1212C633.598 19.8387 633.248 19.6974 632.806 19.6974ZM633.099 26.1368C631.869 26.1368 630.907 25.7973 630.215 25.1183C629.522 24.4392 629.176 23.4777 629.176 22.2335C629.176 20.9529 629.495 19.964 630.133 19.2667C630.775 18.5649 631.662 18.214 632.792 18.214C633.872 18.214 634.713 18.5216 635.314 19.1368C635.916 19.7521 636.217 20.602 636.217 21.6866V22.6984H631.288C631.311 23.2908 631.486 23.7534 631.814 24.0861C632.142 24.4187 632.603 24.5851 633.195 24.5851C633.655 24.5851 634.091 24.5372 634.501 24.4415C634.911 24.3458 635.339 24.1932 635.786 23.9835V25.5968C635.421 25.7791 635.032 25.9135 634.617 26.0001C634.202 26.0913 633.696 26.1368 633.099 26.1368Z" fill="#fff"/><rect width="542" height="124" transform="translate(544 42.0001)" fill="#353A40"/><path d="M593.682 83.5242V69.4714H595.316V82.0439H601.516V83.5242H593.682ZM609.951 83.5242L609.633 82.0247H609.556C609.031 82.6847 608.506 83.1333 607.98 83.3704C607.461 83.6011 606.811 83.7164 606.029 83.7164C604.984 83.7164 604.164 83.4473 603.568 82.909C602.979 82.3707 602.684 81.605 602.684 80.6117C602.684 78.4843 604.385 77.3693 607.788 77.2668L609.576 77.2091V76.5555C609.576 75.7288 609.396 75.1201 609.037 74.7292C608.685 74.3319 608.118 74.1332 607.336 74.1332C606.458 74.1332 605.465 74.4024 604.356 74.9407L603.866 73.7199C604.385 73.438 604.952 73.2169 605.567 73.0567C606.189 72.8965 606.811 72.8164 607.432 72.8164C608.688 72.8164 609.617 73.0952 610.22 73.6526C610.828 74.2101 611.133 75.1041 611.133 76.3344V83.5242H609.951ZM606.346 82.3996C607.339 82.3996 608.118 82.1272 608.682 81.5825C609.252 81.0379 609.537 80.2753 609.537 79.2949V78.3433L607.942 78.4106C606.673 78.4554 605.756 78.6541 605.193 79.0065C604.635 79.3526 604.356 79.894 604.356 80.631C604.356 81.2077 604.529 81.6466 604.875 81.9478C605.228 82.249 605.718 82.3996 606.346 82.3996ZM619.135 72.8164C620.519 72.8164 621.592 73.2906 622.355 74.239C623.124 75.181 623.508 76.517 623.508 78.2472C623.508 79.9773 623.121 81.323 622.345 82.2842C621.576 83.239 620.506 83.7164 619.135 83.7164C618.449 83.7164 617.821 83.5915 617.251 83.3415C616.687 83.0852 616.213 82.6943 615.828 82.1689H615.713L615.377 83.5242H614.233V68.5679H615.828V72.2012C615.828 73.0151 615.803 73.7456 615.752 74.3928H615.828C616.572 73.3419 617.674 72.8164 619.135 72.8164ZM618.904 74.1525C617.815 74.1525 617.03 74.4665 616.549 75.0944C616.069 75.716 615.828 76.7669 615.828 78.2472C615.828 79.7274 616.075 80.788 616.569 81.4288C617.062 82.0631 617.853 82.3803 618.943 82.3803C619.923 82.3803 620.654 82.0247 621.134 81.3134C621.615 80.5957 621.855 79.5672 621.855 78.228C621.855 76.8566 621.615 75.8346 621.134 75.1617C620.654 74.4889 619.91 74.1525 618.904 74.1525ZM630.559 83.7164C629.002 83.7164 627.772 83.2422 626.868 82.2938C625.971 81.3455 625.522 80.0286 625.522 78.3433C625.522 76.6452 625.939 75.2963 626.772 74.2967C627.611 73.297 628.736 72.7972 630.146 72.7972C631.466 72.7972 632.51 73.2329 633.279 74.1044C634.048 74.9695 634.433 76.1133 634.433 77.5359V78.5452H627.176C627.208 79.7819 627.518 80.7207 628.108 81.3615C628.704 82.0023 629.54 82.3227 630.617 82.3227C631.751 82.3227 632.872 82.0856 633.981 81.6114V83.034C633.417 83.2775 632.882 83.4505 632.376 83.553C631.876 83.6619 631.27 83.7164 630.559 83.7164ZM630.126 74.1332C629.281 74.1332 628.605 74.4088 628.098 74.9599C627.599 75.511 627.304 76.2735 627.214 77.2475H632.722C632.722 76.2415 632.497 75.4725 632.049 74.9407C631.6 74.4024 630.96 74.1332 630.126 74.1332ZM638.561 83.5242H636.966V68.5679H638.561V83.5242Z" fill="#fff"/><rect x="591.75" y="110.264" width="382.075" height="14.317" rx="7.158" fill="#A3A6B1"/><rect x="591.75" y="110.264" width="214.749" height="14.317" rx="7.158" fill="#019AEB"/><circle cx="788.604" cy="117.422" r="21.475" stroke="#40A3FF" stroke-width="3.579"/><path d="M1003.56 124.895H1000.59V116.763L1000.62 115.427L1000.67 113.966C1000.18 114.459 999.834 114.783 999.642 114.937L998.027 116.234L996.595 114.447L1001.12 110.842H1003.56V124.895ZM1017.21 117.869C1017.21 120.323 1016.81 122.139 1016 123.319C1015.2 124.498 1013.96 125.087 1012.29 125.087C1010.67 125.087 1009.45 124.478 1008.62 123.261C1007.8 122.043 1007.39 120.246 1007.39 117.869C1007.39 115.389 1007.79 113.562 1008.59 112.39C1009.39 111.211 1010.63 110.621 1012.29 110.621C1013.91 110.621 1015.14 111.236 1015.96 112.467C1016.8 113.697 1017.21 115.498 1017.21 117.869ZM1010.34 117.869C1010.34 119.592 1010.49 120.829 1010.78 121.579C1011.08 122.322 1011.59 122.694 1012.29 122.694C1012.98 122.694 1013.48 122.316 1013.79 121.56C1014.1 120.803 1014.25 119.573 1014.25 117.869C1014.25 116.145 1014.1 114.908 1013.78 114.158C1013.47 113.402 1012.98 113.024 1012.29 113.024C1011.59 113.024 1011.09 113.402 1010.79 114.158C1010.49 114.908 1010.34 116.145 1010.34 117.869ZM1028.46 117.869C1028.46 120.323 1028.05 122.139 1027.25 123.319C1026.45 124.498 1025.21 125.087 1023.54 125.087C1021.92 125.087 1020.69 124.478 1019.87 123.261C1019.05 122.043 1018.64 120.246 1018.64 117.869C1018.64 115.389 1019.04 113.562 1019.84 112.39C1020.64 111.211 1021.87 110.621 1023.54 110.621C1025.16 110.621 1026.38 111.236 1027.21 112.467C1028.04 113.697 1028.46 115.498 1028.46 117.869ZM1021.59 117.869C1021.59 119.592 1021.73 120.829 1022.03 121.579C1022.33 122.322 1022.83 122.694 1023.54 122.694C1024.23 122.694 1024.73 122.316 1025.04 121.56C1025.34 120.803 1025.5 119.573 1025.5 117.869C1025.5 116.145 1025.34 114.908 1025.03 114.158C1024.72 113.402 1024.22 113.024 1023.54 113.024C1022.84 113.024 1022.34 113.402 1022.04 114.158C1021.74 114.908 1021.59 116.145 1021.59 117.869Z" fill="#fff"/><path d="M805.418 117.25C805.418 126.211 798.043 133.5 788.915 133.5C779.786 133.5 772.411 126.211 772.411 117.25C772.411 108.289 779.786 101 788.915 101C798.043 101 805.418 108.289 805.418 117.25Z" fill="#fff" stroke="#0E416C" stroke-width="2"/></svg>