<svg width="1087" height="167" viewBox="0 0 1087 167" fill="none" xmlns="http://www.w3.org/2000/svg">
<rect width="1087" height="167" fill="#6A6E79"/>
<rect width="542" height="40" transform="translate(1 1.00012)" fill="#464B52"/>
<path d="M12.2578 26.0001V16.006H14.377V26.0001H12.2578ZM19.748 26.1368C17.3691 26.1368 16.1797 24.8312 16.1797 22.2198C16.1797 20.921 16.5032 19.9298 17.1504 19.2462C17.7975 18.5581 18.7249 18.214 19.9326 18.214C20.8167 18.214 21.6097 18.3872 22.3115 18.7335L21.6963 20.3468C21.3681 20.2146 21.0628 20.1075 20.7803 20.0255C20.4977 19.9389 20.2152 19.8956 19.9326 19.8956C18.848 19.8956 18.3056 20.6658 18.3056 22.2062C18.3056 23.701 18.848 24.4484 19.9326 24.4484C20.3336 24.4484 20.7051 24.396 21.0469 24.2911C21.3887 24.1818 21.7305 24.0131 22.0722 23.7853V25.5695C21.735 25.7837 21.3932 25.9318 21.0469 26.0138C20.7051 26.0958 20.2721 26.1368 19.748 26.1368ZM25.4267 22.1652C25.4267 22.9217 25.5498 23.4936 25.7959 23.881C26.0465 24.2684 26.4521 24.462 27.0127 24.462C27.5687 24.462 27.9674 24.2706 28.209 23.8878C28.455 23.5004 28.5781 22.9262 28.5781 22.1652C28.5781 21.4087 28.455 20.8413 28.209 20.463C27.9629 20.0848 27.5595 19.8956 26.999 19.8956C26.443 19.8956 26.042 20.0848 25.7959 20.463C25.5498 20.8367 25.4267 21.4041 25.4267 22.1652ZM30.7109 22.1652C30.7109 23.4093 30.3828 24.3823 29.7265 25.0841C29.0703 25.7859 28.1565 26.1368 26.9853 26.1368C26.2516 26.1368 25.6045 25.9773 25.0439 25.6583C24.4834 25.3348 24.0527 24.8722 23.7519 24.2706C23.4511 23.6691 23.3007 22.9672 23.3007 22.1652C23.3007 20.9165 23.6266 19.9458 24.2783 19.2531C24.93 18.5603 25.846 18.214 27.0263 18.214C27.7601 18.214 28.4072 18.3735 28.9677 18.6925C29.5283 19.0115 29.959 19.4695 30.2597 20.0665C30.5605 20.6635 30.7109 21.3631 30.7109 22.1652ZM39.4042 26.0001H37.3193V21.5363C37.3193 20.9848 37.2213 20.5724 37.0253 20.299C36.8294 20.021 36.5172 19.882 36.0888 19.882C35.5055 19.882 35.0839 20.0779 34.8242 20.4698C34.5644 20.8572 34.4345 21.5021 34.4345 22.4044V26.0001H32.3496V18.3575H33.9423L34.2226 19.3351H34.3388C34.5712 18.9659 34.8903 18.6879 35.2959 18.5011C35.706 18.3097 36.1709 18.214 36.6904 18.214C37.5791 18.214 38.2535 18.4555 38.7138 18.9386C39.1741 19.4171 39.4042 20.1098 39.4042 21.0167V26.0001ZM46.7988 23.7306C46.7988 24.5144 46.5253 25.1115 45.9785 25.5216C45.4361 25.9318 44.6227 26.1368 43.538 26.1368C42.982 26.1368 42.5081 26.0981 42.1161 26.0206C41.7242 25.9477 41.3574 25.8383 41.0156 25.6925V23.9698C41.4029 24.1521 41.8382 24.3048 42.3212 24.4279C42.8089 24.5509 43.2372 24.6124 43.6064 24.6124C44.3629 24.6124 44.7411 24.3937 44.7411 23.9562C44.7411 23.7921 44.691 23.66 44.5908 23.5597C44.4905 23.4549 44.3173 23.3387 44.0712 23.2111C43.8251 23.0789 43.497 22.9262 43.0869 22.7531C42.499 22.507 42.066 22.2791 41.788 22.0695C41.5146 21.8598 41.3141 21.6206 41.1865 21.3517C41.0634 21.0782 41.0019 20.7433 41.0019 20.3468C41.0019 19.6678 41.2639 19.1437 41.788 18.7745C42.3167 18.4008 43.0641 18.214 44.0302 18.214C44.9508 18.214 45.8463 18.4145 46.7167 18.8156L46.0878 20.3195C45.705 20.1554 45.3473 20.021 45.0146 19.9161C44.6819 19.8113 44.3424 19.7589 43.996 19.7589C43.3808 19.7589 43.0732 19.9253 43.0732 20.2579C43.0732 20.4448 43.1712 20.6066 43.3671 20.7433C43.5676 20.88 44.0029 21.0828 44.6728 21.3517C45.2698 21.5932 45.7073 21.8188 45.9853 22.0284C46.2633 22.2381 46.4684 22.4796 46.6005 22.7531C46.7327 23.0265 46.7988 23.3523 46.7988 23.7306Z" fill="white"/>
<rect width="542" height="124" transform="translate(1 42.0001)" fill="#353A40"/>
<path d="M22.8981 87.1774V75.1895H24.2921V85.9147H29.5809V87.1774H22.8981ZM36.7763 87.1774L36.5057 85.8983H36.4401C35.9919 86.4613 35.5436 86.844 35.0954 87.0462C34.6526 87.243 34.0977 87.3414 33.4308 87.3414C32.5398 87.3414 31.8401 87.1118 31.3317 86.6526C30.8288 86.1935 30.5773 85.5402 30.5773 84.6929C30.5773 82.878 32.0287 81.9269 34.9314 81.8394L36.4565 81.7902V81.2326C36.4565 80.5275 36.3035 80.0082 35.9973 79.6747C35.6967 79.3358 35.2129 79.1663 34.546 79.1663C33.7971 79.1663 32.9498 79.3959 32.0041 79.8551L31.5859 78.8137C32.0287 78.5732 32.5125 78.3846 33.0372 78.2479C33.5675 78.1113 34.0977 78.043 34.628 78.043C35.6994 78.043 36.4921 78.2807 37.0059 78.7563C37.5252 79.2319 37.7849 79.9945 37.7849 81.044V87.1774H36.7763ZM33.7014 86.2181C34.5487 86.2181 35.2129 85.9857 35.6939 85.5211C36.1805 85.0564 36.4237 84.4059 36.4237 83.5696V82.7578L35.0626 82.8152C33.9802 82.8535 33.1985 83.0229 32.7175 83.3236C32.2419 83.6188 32.0041 84.0807 32.0041 84.7093C32.0041 85.2013 32.1517 85.5758 32.4469 85.8327C32.7475 86.0896 33.1657 86.2181 33.7014 86.2181ZM44.6113 78.043C45.7921 78.043 46.7077 78.4475 47.3582 79.2565C48.0142 80.0601 48.3422 81.1998 48.3422 82.6758C48.3422 84.1517 48.0114 85.2997 47.35 86.1197C46.694 86.9342 45.7811 87.3414 44.6113 87.3414C44.0264 87.3414 43.4907 87.2348 43.0042 87.0216C42.5231 86.803 42.1186 86.4695 41.7906 86.0213H41.6922L41.4052 87.1774H40.4294V74.4187H41.7906V77.5182C41.7906 78.2124 41.7687 78.8356 41.725 79.3877H41.7906C42.4247 78.4912 43.3649 78.043 44.6113 78.043ZM44.4145 79.1827C43.4852 79.1827 42.8156 79.4506 42.4056 79.9863C41.9956 80.5165 41.7906 81.413 41.7906 82.6758C41.7906 83.9385 42.0011 84.8432 42.422 85.3899C42.8429 85.9311 43.518 86.2017 44.4473 86.2017C45.2837 86.2017 45.9068 85.8983 46.3168 85.2915C46.7268 84.6793 46.9318 83.8019 46.9318 82.6594C46.9318 81.4896 46.7268 80.6177 46.3168 80.0437C45.9068 79.4697 45.2727 79.1827 44.4145 79.1827ZM54.3568 87.3414C53.0285 87.3414 51.9789 86.9369 51.2081 86.1279C50.4428 85.3188 50.0602 84.1955 50.0602 82.7578C50.0602 81.3092 50.4155 80.1585 51.1261 79.3057C51.8422 78.4529 52.8016 78.0266 54.0042 78.0266C55.1303 78.0266 56.0213 78.3983 56.6773 79.1417C57.3333 79.8797 57.6613 80.8555 57.6613 82.069V82.93H51.4705C51.4978 83.985 51.763 84.7858 52.2659 85.3325C52.7743 85.8791 53.4876 86.1525 54.406 86.1525C55.3736 86.1525 56.3302 85.9502 57.2759 85.5457V86.7592C56.7949 86.967 56.3384 87.1146 55.9066 87.202C55.4802 87.295 54.9636 87.3414 54.3568 87.3414ZM53.9878 79.1663C53.2662 79.1663 52.6895 79.4014 52.2577 79.8715C51.8313 80.3416 51.5798 80.9921 51.5033 81.823H56.2017C56.2017 80.9648 56.0104 80.3088 55.6278 79.8551C55.2451 79.3959 54.6985 79.1663 53.9878 79.1663ZM61.1832 87.1774H59.8221V74.4187H61.1832V87.1774Z" fill="white"/>
<path d="M39.7221 115.755C39.7221 114.152 38.4244 112.855 36.8214 112.855V101.558L28.196 109.725H23.4634V114.992V115.832V121.251H28.196L36.8214 129.342V118.656C38.4244 118.656 39.7221 117.358 39.7221 115.755Z" fill="#252A2E"/>
<path d="M39.7221 115.755C39.7221 114.152 38.4244 112.855 36.8214 112.855V101.558L28.196 109.725H23.4634V114.992V115.832V121.251H28.196L36.8214 129.342V118.656C38.4244 118.656 39.7221 117.358 39.7221 115.755Z" fill="white"/>
<path d="M42.6995 109.801L40.4858 112.015C41.4018 113.007 42.0125 114.305 42.0125 115.755C42.0125 117.206 41.4018 118.503 40.4858 119.495L42.6995 121.709C44.2261 120.182 45.1421 118.045 45.1421 115.755C45.1421 113.465 44.2261 111.328 42.6995 109.801Z" fill="#252A2E"/>
<rect x="69.8892" y="109.343" width="348.836" height="12.2131" rx="6.10654" fill="#A3A6B1"/>
<rect x="69.8892" y="109.343" width="183.196" height="12" rx="6" fill="#019AEB"/>
<circle cx="237.819" cy="115.343" r="14.503" fill="white" stroke="#004F83" stroke-width="1.52664"/>
<circle cx="237.819" cy="115.343" r="18.3196" stroke="#40A3FF" stroke-width="3.05327"/>
<path d="M449.198 115.755C449.198 114.152 447.9 112.855 446.297 112.855V101.558L437.672 109.725H432.939V114.992V115.832V121.251H437.672L446.297 129.342V118.656C447.9 118.656 449.198 117.358 449.198 115.755Z" fill="white"/>
<path d="M459.579 102.397L457.365 104.611C460.19 107.435 461.945 111.404 461.945 115.755C461.945 120.106 460.19 123.999 457.365 126.9L459.579 129.113C463.014 125.678 465.151 120.946 465.151 115.755C465.151 110.565 463.014 105.832 459.579 102.397Z" fill="white"/>
<path d="M455.915 106.061L453.625 108.275C455.533 110.183 456.678 112.778 456.678 115.679C456.678 118.58 455.533 121.251 453.625 123.159L455.839 125.373C458.281 122.93 459.884 119.496 459.884 115.679C459.884 111.862 458.358 108.58 455.915 106.061Z" fill="white"/>
<path d="M452.175 109.801L449.961 112.015C450.877 113.007 451.488 114.305 451.488 115.755C451.488 117.206 450.877 118.503 449.961 119.495L452.175 121.709C453.702 120.182 454.618 118.045 454.618 115.755C454.618 113.465 453.702 111.328 452.175 109.801Z" fill="#252A2E"/>
<path d="M492.148 121.391H489.614V114.454L489.639 113.314L489.68 112.067C489.259 112.488 488.966 112.764 488.802 112.896L487.425 114.003L486.203 112.477L490.065 109.403H492.148V121.391ZM503.792 115.397C503.792 117.49 503.447 119.04 502.758 120.046C502.075 121.052 501.02 121.554 499.593 121.554C498.21 121.554 497.166 121.035 496.461 119.997C495.761 118.958 495.411 117.425 495.411 115.397C495.411 113.281 495.753 111.723 496.436 110.723C497.12 109.717 498.172 109.214 499.593 109.214C500.976 109.214 502.02 109.739 502.726 110.788C503.436 111.838 503.792 113.374 503.792 115.397ZM497.929 115.397C497.929 116.867 498.054 117.922 498.306 118.562C498.563 119.196 498.992 119.513 499.593 119.513C500.184 119.513 500.61 119.19 500.872 118.545C501.135 117.9 501.266 116.851 501.266 115.397C501.266 113.926 501.132 112.871 500.864 112.231C500.602 111.586 500.178 111.264 499.593 111.264C498.997 111.264 498.571 111.586 498.314 112.231C498.057 112.871 497.929 113.926 497.929 115.397ZM513.385 115.397C513.385 117.49 513.041 119.04 512.352 120.046C511.669 121.052 510.614 121.554 509.187 121.554C507.804 121.554 506.76 121.035 506.055 119.997C505.355 118.958 505.005 117.425 505.005 115.397C505.005 113.281 505.347 111.723 506.03 110.723C506.713 109.717 507.766 109.214 509.187 109.214C510.57 109.214 511.614 109.739 512.319 110.788C513.03 111.838 513.385 113.374 513.385 115.397ZM507.522 115.397C507.522 116.867 507.648 117.922 507.9 118.562C508.156 119.196 508.586 119.513 509.187 119.513C509.777 119.513 510.204 119.19 510.466 118.545C510.728 117.9 510.86 116.851 510.86 115.397C510.86 113.926 510.726 112.871 510.458 112.231C510.195 111.586 509.772 111.264 509.187 111.264C508.591 111.264 508.165 111.586 507.908 112.231C507.651 112.871 507.522 113.926 507.522 115.397Z" fill="white"/>
<circle cx="238.032" cy="115.45" r="14.503" fill="white" stroke="#0E416C" stroke-width="1.52664"/>
<rect width="542" height="40" transform="translate(544 1.00012)" fill="#464B52"/>
<path d="M555.258 16.006H558.368C559.785 16.006 560.813 16.2088 561.451 16.6144C562.094 17.0154 562.415 17.6557 562.415 18.5353C562.415 19.1323 562.274 19.6222 561.991 20.005C561.713 20.3878 561.342 20.618 560.877 20.6954V20.7638C561.51 20.9051 561.966 21.1694 562.244 21.5568C562.527 21.9441 562.668 22.4591 562.668 23.1017C562.668 24.0131 562.338 24.7241 561.677 25.2345C561.021 25.7449 560.127 26.0001 558.997 26.0001H555.258V16.006ZM557.377 19.964H558.607C559.182 19.964 559.596 19.8751 559.852 19.6974C560.111 19.5197 560.241 19.2257 560.241 18.8156C560.241 18.4327 560.1 18.1593 559.817 17.9952C559.539 17.8266 559.097 17.7423 558.491 17.7423H557.377V19.964ZM557.377 21.6456V24.2501H558.758C559.341 24.2501 559.772 24.1385 560.05 23.9152C560.328 23.6919 560.467 23.3501 560.467 22.8898C560.467 22.0603 559.874 21.6456 558.689 21.6456H557.377ZM569.83 26.0001L569.55 25.0226H569.44C569.217 25.3781 568.9 25.6538 568.49 25.8497C568.08 26.0411 567.613 26.1368 567.089 26.1368C566.191 26.1368 565.514 25.8976 565.059 25.4191C564.603 24.936 564.375 24.2433 564.375 23.3409V18.3575H566.46V22.8214C566.46 23.3728 566.558 23.7876 566.754 24.0656C566.95 24.339 567.262 24.4757 567.69 24.4757C568.274 24.4757 568.695 24.282 568.955 23.8947C569.215 23.5027 569.345 22.8556 569.345 21.9532V18.3575H571.43V26.0001H569.83ZM576.753 24.4757C577.117 24.4757 577.555 24.396 578.065 24.2365V25.7882C577.546 26.0206 576.908 26.1368 576.151 26.1368C575.317 26.1368 574.709 25.9272 574.326 25.5079C573.948 25.0841 573.759 24.4506 573.759 23.6075V19.923H572.761V19.0411L573.909 18.3439L574.511 16.7306H575.844V18.3575H577.983V19.923H575.844V23.6075C575.844 23.9038 575.926 24.1225 576.09 24.2638C576.258 24.4051 576.479 24.4757 576.753 24.4757ZM582.753 24.4757C583.117 24.4757 583.555 24.396 584.065 24.2365V25.7882C583.546 26.0206 582.908 26.1368 582.151 26.1368C581.317 26.1368 580.709 25.9272 580.326 25.5079C579.948 25.0841 579.759 24.4506 579.759 23.6075V19.923H578.761V19.0411L579.909 18.3439L580.511 16.7306H581.844V18.3575H583.983V19.923H581.844V23.6075C581.844 23.9038 581.926 24.1225 582.09 24.2638C582.258 24.4051 582.479 24.4757 582.753 24.4757ZM587.194 22.1652C587.194 22.9217 587.317 23.4936 587.563 23.881C587.814 24.2684 588.22 24.462 588.78 24.462C589.336 24.462 589.735 24.2706 589.976 23.8878C590.223 23.5004 590.346 22.9262 590.346 22.1652C590.346 21.4087 590.223 20.8413 589.976 20.463C589.73 20.0848 589.327 19.8956 588.767 19.8956C588.211 19.8956 587.81 20.0848 587.563 20.463C587.317 20.8367 587.194 21.4041 587.194 22.1652ZM592.478 22.1652C592.478 23.4093 592.15 24.3823 591.494 25.0841C590.838 25.7859 589.924 26.1368 588.753 26.1368C588.019 26.1368 587.372 25.9773 586.811 25.6583C586.251 25.3348 585.82 24.8722 585.519 24.2706C585.219 23.6691 585.068 22.9672 585.068 22.1652C585.068 20.9165 585.394 19.9458 586.046 19.2531C586.698 18.5603 587.614 18.214 588.794 18.214C589.528 18.214 590.175 18.3735 590.735 18.6925C591.296 19.0115 591.726 19.4695 592.027 20.0665C592.328 20.6635 592.478 21.3631 592.478 22.1652ZM601.172 26.0001H599.087V21.5363C599.087 20.9848 598.989 20.5724 598.793 20.299C598.597 20.021 598.285 19.882 597.856 19.882C597.273 19.882 596.851 20.0779 596.592 20.4698C596.332 20.8572 596.202 21.5021 596.202 22.4044V26.0001H594.117V18.3575H595.71L595.99 19.3351H596.106C596.339 18.9659 596.658 18.6879 597.063 18.5011C597.474 18.3097 597.938 18.214 598.458 18.214C599.347 18.214 600.021 18.4555 600.481 18.9386C600.942 19.4171 601.172 20.1098 601.172 21.0167V26.0001ZM608.566 23.7306C608.566 24.5144 608.293 25.1115 607.746 25.5216C607.204 25.9318 606.39 26.1368 605.306 26.1368C604.75 26.1368 604.276 26.0981 603.884 26.0206C603.492 25.9477 603.125 25.8383 602.783 25.6925V23.9698C603.17 24.1521 603.606 24.3048 604.089 24.4279C604.576 24.5509 605.005 24.6124 605.374 24.6124C606.13 24.6124 606.509 24.3937 606.509 23.9562C606.509 23.7921 606.459 23.66 606.358 23.5597C606.258 23.4549 606.085 23.3387 605.839 23.2111C605.593 23.0789 605.265 22.9262 604.854 22.7531C604.267 22.507 603.834 22.2791 603.556 22.0695C603.282 21.8598 603.082 21.6206 602.954 21.3517C602.831 21.0782 602.769 20.7433 602.769 20.3468C602.769 19.6678 603.031 19.1437 603.556 18.7745C604.084 18.4008 604.832 18.214 605.798 18.214C606.718 18.214 607.614 18.4145 608.484 18.8156L607.855 20.3195C607.473 20.1554 607.115 20.021 606.782 19.9161C606.449 19.8113 606.11 19.7589 605.764 19.7589C605.148 19.7589 604.841 19.9253 604.841 20.2579C604.841 20.4448 604.939 20.6066 605.135 20.7433C605.335 20.88 605.77 21.0828 606.44 21.3517C607.037 21.5932 607.475 21.8188 607.753 22.0284C608.031 22.2381 608.236 22.4796 608.368 22.7531C608.5 23.0265 608.566 23.3523 608.566 23.7306Z" fill="white"/>
<rect width="542" height="124" transform="translate(544 42.0001)" fill="#353A40"/>
<path d="M563.996 85.2217V72.5195H565.473V83.8837H571.077V85.2217H563.996ZM578.701 85.2217L578.415 83.8664H578.345C577.87 84.463 577.395 84.8684 576.92 85.0827C576.451 85.2912 575.863 85.3955 575.157 85.3955C574.212 85.3955 573.471 85.1522 572.932 84.6657C572.4 84.1791 572.133 83.487 572.133 82.5892C572.133 80.6662 573.671 79.6583 576.747 79.5657L578.363 79.5135V78.9227C578.363 78.1755 578.2 77.6253 577.876 77.272C577.557 76.9128 577.045 76.7333 576.338 76.7333C575.545 76.7333 574.647 76.9766 573.645 77.4631L573.202 76.3597C573.671 76.1048 574.184 75.905 574.74 75.7602C575.301 75.6154 575.863 75.543 576.425 75.543C577.56 75.543 578.4 75.795 578.945 76.2989C579.495 76.8028 579.77 77.6108 579.77 78.7229V85.2217H578.701ZM575.443 84.2052C576.341 84.2052 577.045 83.959 577.555 83.4667C578.07 82.9744 578.328 82.2851 578.328 81.3989V80.5388L576.886 80.5996C575.739 80.6401 574.91 80.8197 574.401 81.1382C573.897 81.451 573.645 81.9405 573.645 82.6066C573.645 83.1279 573.801 83.5246 574.114 83.7969C574.433 84.0691 574.876 84.2052 575.443 84.2052ZM587.003 75.543C588.254 75.543 589.225 75.9716 589.914 76.8289C590.609 77.6803 590.956 78.888 590.956 80.4519C590.956 82.0158 590.606 83.2321 589.905 84.101C589.21 84.964 588.243 85.3955 587.003 85.3955C586.383 85.3955 585.816 85.2826 585.3 85.0567C584.791 84.825 584.362 84.4717 584.014 83.9967H583.91L583.606 85.2217H582.572V71.7028H584.014V74.9869C584.014 75.7226 583.991 76.3829 583.945 76.9679H584.014C584.686 76.018 585.683 75.543 587.003 75.543ZM586.795 76.7507C585.81 76.7507 585.101 77.0345 584.666 77.6021C584.232 78.164 584.014 79.1139 584.014 80.4519C584.014 81.7899 584.237 82.7485 584.683 83.3277C585.129 83.9011 585.845 84.1878 586.829 84.1878C587.716 84.1878 588.376 83.8664 588.81 83.2234C589.245 82.5747 589.462 81.6451 589.462 80.4345C589.462 79.195 589.245 78.2711 588.81 77.6629C588.376 77.0548 587.704 76.7507 586.795 76.7507ZM597.329 85.3955C595.922 85.3955 594.81 84.9669 593.993 84.1096C593.182 83.2524 592.777 82.0621 592.777 80.5388C592.777 79.0038 593.153 77.7846 593.906 76.881C594.665 75.9774 595.682 75.5256 596.956 75.5256C598.149 75.5256 599.093 75.9195 599.788 76.7072C600.483 77.4892 600.831 78.5231 600.831 79.8089V80.7212H594.271C594.3 81.8391 594.581 82.6877 595.114 83.2669C595.653 83.8461 596.408 84.1357 597.382 84.1357C598.407 84.1357 599.42 83.9214 600.422 83.4928V84.7786C599.913 84.9987 599.429 85.1551 598.972 85.2478C598.52 85.3463 597.972 85.3955 597.329 85.3955ZM596.938 76.7333C596.174 76.7333 595.563 76.9824 595.105 77.4805C594.653 77.9786 594.387 78.6679 594.306 79.5483H599.284C599.284 78.6389 599.082 77.9439 598.676 77.4631C598.271 76.9766 597.691 76.7333 596.938 76.7333ZM604.563 85.2217H603.12V71.7028H604.563V85.2217Z" fill="#252A2E"/>
<rect x="562.25" y="109.662" width="343.74" height="12.9408" rx="6.4704" fill="#A3A6B1"/>
<rect x="562.25" y="109.662" width="194.112" height="13" rx="6.5" fill="#019AEB"/>
<circle cx="740.186" cy="116.162" r="15.3672" fill="white" stroke="#004F83" stroke-width="1.6176"/>
<circle cx="740.186" cy="116.162" r="19.4112" stroke="#40A3FF" stroke-width="3.2352"/>
<rect x="919.931" y="94.4857" width="43.2928" height="43.2928" rx="2.2352" fill="black"/>
<path d="M934.033 123.163H931.348V115.812L931.374 114.605L931.418 113.284C930.972 113.73 930.662 114.022 930.488 114.161L929.029 115.334L927.734 113.718L931.826 110.46H934.033V123.163ZM946.37 116.811C946.37 119.03 946.006 120.672 945.276 121.738C944.552 122.803 943.434 123.336 941.922 123.336C940.457 123.336 939.35 122.786 938.603 121.686C937.862 120.585 937.491 118.96 937.491 116.811C937.491 114.57 937.853 112.919 938.577 111.859C939.301 110.793 940.416 110.26 941.922 110.26C943.387 110.26 944.494 110.816 945.241 111.929C945.994 113.041 946.37 114.668 946.37 116.811ZM940.158 116.811C940.158 118.37 940.292 119.487 940.558 120.165C940.83 120.837 941.285 121.173 941.922 121.173C942.548 121.173 942.999 120.831 943.277 120.148C943.555 119.464 943.694 118.352 943.694 116.811C943.694 115.253 943.553 114.135 943.269 113.458C942.991 112.774 942.542 112.433 941.922 112.433C941.291 112.433 940.839 112.774 940.567 113.458C940.294 114.135 940.158 115.253 940.158 116.811ZM956.536 116.811C956.536 119.03 956.171 120.672 955.441 121.738C954.717 122.803 953.599 123.336 952.087 123.336C950.622 123.336 949.516 122.786 948.768 121.686C948.027 120.585 947.656 118.96 947.656 116.811C947.656 114.57 948.018 112.919 948.742 111.859C949.466 110.793 950.581 110.26 952.087 110.26C953.553 110.26 954.659 110.816 955.406 111.929C956.159 113.041 956.536 114.668 956.536 116.811ZM950.324 116.811C950.324 118.37 950.457 119.487 950.723 120.165C950.996 120.837 951.45 121.173 952.087 121.173C952.713 121.173 953.165 120.831 953.443 120.148C953.721 119.464 953.86 118.352 953.86 116.811C953.86 115.253 953.718 114.135 953.434 113.458C953.156 112.774 952.707 112.433 952.087 112.433C951.456 112.433 951.004 112.774 950.732 113.458C950.46 114.135 950.324 115.253 950.324 116.811Z" fill="white"/>
<rect x="919.931" y="94.4857" width="43.2928" height="43.2928" rx="2.2352" stroke="#6A6E79" stroke-width="2"/>
<rect x="970.694" y="93.4857" width="45.2928" height="45.2928" rx="3.2352" fill="#6A6E79"/>
<path d="M1002.48 105.756L984.905 116.432L1002.43 127.216L1002.48 105.756Z" fill="white"/>
<rect x="1022.46" y="93.4857" width="45.2928" height="45.2928" rx="3.2352" fill="#6A6E79"/>
<path d="M1036.67 127.216L1054.25 116.54L1036.72 105.756L1036.67 127.216Z" fill="white"/>
</svg>
