<svg width="509" height="100" viewBox="0 0 509 100" fill="none" xmlns="http://www.w3.org/2000/svg">
<path d="M1.6982 23V10.5861H3.14167V21.7094H8.65234V23H1.6982ZM13.8787 13.541C14.9882 13.541 15.8118 13.7901 16.3496 14.2882C16.8874 14.7864 17.1562 15.5817 17.1562 16.6742V23H16.1288L15.8571 21.6245H15.7892C15.5288 21.9641 15.2571 22.25 14.9741 22.482C14.691 22.7085 14.3627 22.8811 13.9891 23C13.6212 23.1132 13.1683 23.1698 12.6305 23.1698C12.0645 23.1698 11.5607 23.0708 11.1191 22.8726C10.6833 22.6745 10.338 22.3745 10.0832 21.9726C9.83417 21.5707 9.70964 21.0612 9.70964 20.4442C9.70964 19.5159 10.0776 18.8026 10.8135 18.3045C11.5494 17.8063 12.6702 17.5346 14.1759 17.4893L15.7807 17.4214V16.8525C15.7807 16.0487 15.6081 15.4855 15.2628 15.1628C14.9175 14.8401 14.4306 14.6788 13.8023 14.6788C13.3155 14.6788 12.8513 14.7496 12.4098 14.8911C11.9682 15.0326 11.5494 15.1996 11.1531 15.3921L10.7201 14.3222C11.139 14.1071 11.6201 13.9231 12.1635 13.7703C12.707 13.6174 13.2787 13.541 13.8787 13.541ZM15.7637 18.4149L14.3457 18.4743C13.1853 18.5196 12.3673 18.7092 11.8918 19.0432C11.4163 19.3772 11.1786 19.8498 11.1786 20.4612C11.1786 20.9933 11.3399 21.3867 11.6626 21.6414C11.9852 21.8962 12.4126 22.0235 12.9447 22.0235C13.7712 22.0235 14.4476 21.7943 14.9741 21.3358C15.5005 20.8772 15.7637 20.1895 15.7637 19.2724V18.4149ZM21.2958 9.78799V13.091C21.2958 13.4703 21.2845 13.8382 21.2618 14.1948C21.2448 14.5514 21.2307 14.8288 21.2194 15.0269H21.2958C21.5505 14.6081 21.9185 14.2543 22.3996 13.9656C22.8808 13.6769 23.495 13.5325 24.2422 13.5325C25.4083 13.5325 26.3366 13.9373 27.0272 14.7467C27.7235 15.5506 28.0716 16.7478 28.0716 18.3384C28.0716 19.3857 27.9131 20.2687 27.5961 20.9876C27.2791 21.7065 26.8319 22.25 26.2545 22.6179C25.6771 22.9858 24.995 23.1698 24.2082 23.1698C23.4723 23.1698 22.8666 23.034 22.3911 22.7623C21.9213 22.4849 21.559 22.1481 21.3043 21.7518H21.1939L20.9052 23H19.8863V9.78799H21.2958ZM24.0129 14.7128C23.3393 14.7128 22.8044 14.8458 22.4081 15.1119C22.0119 15.3722 21.726 15.7685 21.5505 16.3006C21.3807 16.827 21.2958 17.495 21.2958 18.3045V18.3809C21.2958 19.5527 21.4911 20.4499 21.8817 21.0725C22.2722 21.6896 22.9827 21.9981 24.0129 21.9981C24.879 21.9981 25.5271 21.6811 25.9573 21.0471C26.3932 20.4131 26.6112 19.5074 26.6112 18.3299C26.6112 17.1299 26.396 16.227 25.9658 15.6213C25.5413 15.0156 24.8903 14.7128 24.0129 14.7128ZM33.9433 13.524C34.7358 13.524 35.4151 13.6995 35.9812 14.0505C36.5472 14.4014 36.9803 14.8939 37.2803 15.5279C37.5803 16.1562 37.7303 16.8921 37.7303 17.7356V18.6101H31.3026C31.3196 19.7027 31.5913 20.5348 32.1177 21.1065C32.6442 21.6782 33.3857 21.9641 34.3424 21.9641C34.9311 21.9641 35.4519 21.9103 35.9047 21.8028C36.3576 21.6952 36.8274 21.5367 37.3142 21.3273V22.567C36.8444 22.7764 36.3774 22.9292 35.9132 23.0255C35.4547 23.1217 34.9113 23.1698 34.2829 23.1698C33.3886 23.1698 32.6074 22.9887 31.9394 22.6264C31.2771 22.2585 30.762 21.7207 30.3941 21.0131C30.0261 20.3055 29.8422 19.4394 29.8422 18.4149C29.8422 17.4129 30.0091 16.5468 30.3431 15.8166C30.6828 15.0807 31.1583 14.5147 31.7696 14.1184C32.3866 13.7222 33.1112 13.524 33.9433 13.524ZM33.9263 14.6788C33.1735 14.6788 32.5734 14.9251 32.1262 15.4175C31.679 15.91 31.413 16.5978 31.3281 17.4808H36.2529C36.2472 16.9261 36.1595 16.4393 35.9896 16.0204C35.8255 15.5958 35.5736 15.2675 35.2339 15.0354C34.8943 14.7977 34.4584 14.6788 33.9263 14.6788ZM41.3689 23H39.9509V9.78799H41.3689V23Z" fill="white"/>
<rect y="47.4261" width="350.163" height="12.647" rx="6.32348" fill="#A3A6B1"/>
<rect y="47.4261" width="189.705" height="12.647" rx="6.32348" fill="#019AEB"/>
<rect x="363.81" y="32.6174" width="42.2644" height="42.2644" rx="2.16174" fill="black"/>
<path d="M377.198 60.6835H374.575V53.5001C374.575 53.302 374.577 53.0586 374.583 52.7699C374.589 52.4755 374.597 52.1755 374.609 51.8699C374.62 51.5585 374.631 51.2783 374.643 51.0292C374.58 51.1028 374.453 51.2302 374.26 51.4113C374.074 51.5868 373.898 51.7453 373.734 51.8868L372.308 53.0331L371.042 51.4538L375.042 48.2697H377.198V60.6835ZM389.273 54.4766C389.273 55.4785 389.193 56.3729 389.035 57.1597C388.882 57.9466 388.633 58.6145 388.288 59.1636C387.948 59.7127 387.501 60.1316 386.946 60.4203C386.391 60.709 385.718 60.8533 384.925 60.8533C383.929 60.8533 383.111 60.6014 382.471 60.0976C381.832 59.5882 381.359 58.858 381.053 57.907C380.748 56.9503 380.595 55.8068 380.595 54.4766C380.595 53.135 380.733 51.9887 381.011 51.0377C381.294 50.0811 381.752 49.348 382.386 48.8386C383.02 48.3291 383.867 48.0744 384.925 48.0744C385.916 48.0744 386.731 48.3291 387.371 48.8386C388.016 49.3424 388.494 50.0726 388.806 51.0292C389.117 51.9802 389.273 53.1294 389.273 54.4766ZM383.201 54.4766C383.201 55.4219 383.252 56.2116 383.354 56.8456C383.462 57.4739 383.64 57.9466 383.889 58.2636C384.138 58.5806 384.484 58.7391 384.925 58.7391C385.361 58.7391 385.703 58.5834 385.953 58.2721C386.207 57.9551 386.388 57.4824 386.496 56.8541C386.604 56.2201 386.657 55.4276 386.657 54.4766C386.657 53.5313 386.604 52.7416 386.496 52.1076C386.388 51.4736 386.207 50.9981 385.953 50.6811C385.703 50.3585 385.361 50.1971 384.925 50.1971C384.484 50.1971 384.138 50.3585 383.889 50.6811C383.64 50.9981 383.462 51.4736 383.354 52.1076C383.252 52.7416 383.201 53.5313 383.201 54.4766ZM399.224 54.4766C399.224 55.4785 399.145 56.3729 398.986 57.1597C398.833 57.9466 398.584 58.6145 398.239 59.1636C397.899 59.7127 397.452 60.1316 396.897 60.4203C396.343 60.709 395.669 60.8533 394.877 60.8533C393.88 60.8533 393.062 60.6014 392.423 60.0976C391.783 59.5882 391.31 58.858 391.005 57.907C390.699 56.9503 390.546 55.8068 390.546 54.4766C390.546 53.135 390.685 51.9887 390.962 51.0377C391.245 50.0811 391.704 49.348 392.338 48.8386C392.972 48.3291 393.818 48.0744 394.877 48.0744C395.867 48.0744 396.682 48.3291 397.322 48.8386C397.967 49.3424 398.446 50.0726 398.757 51.0292C399.068 51.9802 399.224 53.1294 399.224 54.4766ZM393.153 54.4766C393.153 55.4219 393.204 56.2116 393.306 56.8456C393.413 57.4739 393.592 57.9466 393.841 58.2636C394.09 58.5806 394.435 58.7391 394.877 58.7391C395.312 58.7391 395.655 58.5834 395.904 58.2721C396.159 57.9551 396.34 57.4824 396.447 56.8541C396.555 56.2201 396.609 55.4276 396.609 54.4766C396.609 53.5313 396.555 52.7416 396.447 52.1076C396.34 51.4736 396.159 50.9981 395.904 50.6811C395.655 50.3585 395.312 50.1971 394.877 50.1971C394.435 50.1971 394.09 50.3585 393.841 50.6811C393.592 50.9981 393.413 51.4736 393.306 52.1076C393.204 52.7416 393.153 53.5313 393.153 54.4766Z" fill="white"/>
<rect x="363.81" y="32.6174" width="42.2644" height="42.2644" rx="2.16174" stroke="#6A6E79" stroke-width="2"/>
<rect x="413.398" y="31.6174" width="44.2644" height="44.2644" rx="3.16174" fill="#6A6E79"/>
<path d="M444.119 43.2632L426.94 53.6969L444.067 64.2361L444.119 43.2632Z" fill="white"/>
<rect x="463.986" y="31.6174" width="44.2644" height="44.2644" rx="3.16174" fill="#6A6E79"/>
<path d="M477.528 64.2361L494.707 53.8023L477.581 43.2632L477.528 64.2361Z" fill="white"/>
<g clip-path="url(#clip0_7403_84697)">
<path d="M1.68945 88.1335C1.68945 89.3714 1.92176 90.5971 2.37312 91.7407C2.82447 92.8843 3.48603 93.9234 4.32002 94.7987C5.15401 95.674 6.14411 96.3683 7.23377 96.842C8.32344 97.3157 9.49133 97.5595 10.6708 97.5595C11.8502 97.5595 13.0181 97.3157 14.1078 96.842C15.1974 96.3683 16.1875 95.674 17.0215 94.7987C17.8555 93.9234 18.5171 92.8843 18.9684 91.7407C19.4198 90.5971 19.6521 89.3714 19.6521 88.1335C19.6521 86.8957 19.4198 85.67 18.9684 84.5264C18.5171 83.3828 17.8555 82.3437 17.0215 81.4684C16.1875 80.5931 15.1974 79.8988 14.1078 79.4251C13.0181 78.9514 11.8502 78.7076 10.6708 78.7076C9.49133 78.7076 8.32344 78.9514 7.23377 79.4251C6.14411 79.8988 5.15401 80.5931 4.32002 81.4684C3.48603 82.3437 2.82447 83.3828 2.37312 84.5264C1.92176 85.67 1.68945 86.8957 1.68945 88.1335V88.1335Z" fill="#019AEB"/>
<path d="M10.6705 79.5079C15.428 79.5079 19.2962 83.3761 19.2962 88.1336C19.2962 92.891 15.428 96.7592 10.6705 96.7592C5.9131 96.7592 2.04491 92.891 2.04491 88.1336C2.04491 83.3761 5.9131 79.5079 10.6705 79.5079ZM10.6705 77.9962C5.06833 77.9962 0.533203 82.5313 0.533203 88.1336C0.533203 93.7358 5.06833 98.2709 10.6705 98.2709C16.2727 98.2709 20.8079 93.7358 20.8079 88.1336C20.8079 82.5313 16.2727 77.9962 10.6705 77.9962Z" fill="#0E416C"/>
<path d="M11.6492 91.1125H12.3606V92.4464H8.98145V91.1125H10.0041V88.0002H8.98145V86.6218H11.6492V91.1125V91.1125ZM9.91515 85.7771H11.6492V83.8207H9.91515V85.7771Z" fill="white"/>
</g>
<path d="M37.9812 94.6722H36.5378V88.8219H30.0167V94.6722H28.5732V82.2584H30.0167V87.5483H36.5378V82.2584H37.9812V94.6722ZM44.9632 85.1963C45.7557 85.1963 46.4349 85.3718 47.001 85.7227C47.5671 86.0737 48.0001 86.5662 48.3001 87.2002C48.6001 87.8285 48.7501 88.5644 48.7501 89.4078V90.2824H42.3225C42.3394 91.3749 42.6112 92.207 43.1376 92.7787C43.664 93.3505 44.4056 93.6363 45.3622 93.6363C45.9509 93.6363 46.4717 93.5826 46.9246 93.475C47.3774 93.3675 47.8473 93.209 48.3341 92.9995V94.2392C47.8643 94.4486 47.3972 94.6015 46.9331 94.6977C46.4746 94.7939 45.9311 94.8421 45.3028 94.8421C44.4084 94.8421 43.6272 94.6609 42.9593 94.2986C42.297 93.9307 41.7819 93.3929 41.4139 92.6853C41.046 91.9778 40.862 91.1117 40.862 90.0871C40.862 89.0852 41.029 88.2191 41.363 87.4888C41.7026 86.753 42.1781 86.1869 42.7895 85.7906C43.4065 85.3944 44.131 85.1963 44.9632 85.1963ZM44.9462 86.3511C44.1933 86.3511 43.5933 86.5973 43.1461 87.0898C42.6989 87.5823 42.4328 88.27 42.3479 89.1531H47.2727C47.2671 88.5983 47.1793 88.1115 47.0095 87.6926C46.8453 87.2681 46.5934 86.9398 46.2538 86.7077C45.9142 86.4699 45.4783 86.3511 44.9462 86.3511ZM52.7602 94.6722H51.3422V81.4602H52.7602V94.6722ZM60.311 85.1963C61.4715 85.1963 62.397 85.5954 63.0876 86.3935C63.7782 87.1917 64.1235 88.3917 64.1235 89.9937C64.1235 91.0522 63.965 91.941 63.648 92.6599C63.331 93.3788 62.8838 93.9222 62.3064 94.2901C61.7347 94.6581 61.0582 94.8421 60.2771 94.8421C59.7846 94.8421 59.3516 94.777 58.978 94.6468C58.6043 94.5166 58.2845 94.3411 58.0185 94.1203C57.7524 93.8996 57.5317 93.659 57.3562 93.3986H57.2543C57.2713 93.6194 57.2911 93.8854 57.3137 94.1967C57.342 94.5081 57.3562 94.7798 57.3562 95.0119V98.8328H55.9382V85.3661H57.1014L57.2882 86.7416H57.3562C57.5373 86.4586 57.7581 86.201 58.0185 85.969C58.2789 85.7312 58.5959 85.5444 58.9695 85.4086C59.3487 85.267 59.7959 85.1963 60.311 85.1963ZM60.0648 86.385C59.4195 86.385 58.8987 86.5096 58.5025 86.7586C58.1119 87.0077 57.826 87.3813 57.6449 87.8794C57.4637 88.3719 57.3675 88.9918 57.3562 89.739V90.0107C57.3562 90.7975 57.4411 91.4626 57.6109 92.0061C57.7864 92.5495 58.0722 92.9627 58.4685 93.2458C58.8704 93.5288 59.4082 93.6703 60.0818 93.6703C60.6592 93.6703 61.1403 93.5146 61.5253 93.2033C61.9102 92.892 62.196 92.4589 62.3828 91.9042C62.5753 91.3438 62.6715 90.7013 62.6715 89.9767C62.6715 88.8785 62.4564 88.0068 62.0262 87.3615C61.6017 86.7105 60.9479 86.385 60.0648 86.385ZM70.3667 85.1963C71.1592 85.1963 71.8385 85.3718 72.4045 85.7227C72.9706 86.0737 73.4037 86.5662 73.7037 87.2002C74.0037 87.8285 74.1537 88.5644 74.1537 89.4078V90.2824H67.726C67.743 91.3749 68.0147 92.207 68.5411 92.7787C69.0676 93.3505 69.8091 93.6363 70.7658 93.6363C71.3545 93.6363 71.8753 93.5826 72.3281 93.475C72.781 93.3675 73.2508 93.209 73.7376 92.9995V94.2392C73.2678 94.4486 72.8008 94.6015 72.3366 94.6977C71.8781 94.7939 71.3347 94.8421 70.7063 94.8421C69.812 94.8421 69.0308 94.6609 68.3628 94.2986C67.7005 93.9307 67.1854 93.3929 66.8175 92.6853C66.4495 91.9778 66.2656 91.1117 66.2656 90.0871C66.2656 89.0852 66.4325 88.2191 66.7665 87.4888C67.1062 86.753 67.5817 86.1869 68.193 85.7906C68.81 85.3944 69.5346 85.1963 70.3667 85.1963ZM70.3497 86.3511C69.5969 86.3511 68.9968 86.5973 68.5496 87.0898C68.1024 87.5823 67.8364 88.27 67.7515 89.1531H72.6763C72.6706 88.5983 72.5829 88.1115 72.413 87.6926C72.2489 87.2681 71.997 86.9398 71.6573 86.7077C71.3177 86.4699 70.8818 86.3511 70.3497 86.3511ZM80.9743 85.1963C81.1611 85.1963 81.3564 85.2076 81.5602 85.2302C81.764 85.2472 81.9451 85.2727 82.1036 85.3067L81.9253 86.6143C81.7724 86.5747 81.6026 86.5435 81.4158 86.5209C81.229 86.4982 81.0535 86.4869 80.8894 86.4869C80.5158 86.4869 80.162 86.5633 79.828 86.7162C79.4997 86.8633 79.211 87.0785 78.9619 87.3615C78.7129 87.6389 78.5176 87.9757 78.376 88.3719C78.2345 88.7625 78.1638 89.1984 78.1638 89.6795V94.6722H76.7458V85.3661H77.9175L78.0704 87.0813H78.1298C78.3223 86.736 78.5544 86.4218 78.8261 86.1388C79.0978 85.8501 79.4119 85.6208 79.7686 85.451C80.1309 85.2812 80.5328 85.1963 80.9743 85.1963ZM92.7984 94.6722H91.3464V83.532H87.4406V82.2584H96.6873V83.532H92.7984V94.6722ZM102.132 85.1963C102.925 85.1963 103.604 85.3718 104.17 85.7227C104.736 86.0737 105.169 86.5662 105.469 87.2002C105.769 87.8285 105.919 88.5644 105.919 89.4078V90.2824H99.4916C99.5086 91.3749 99.7803 92.207 100.307 92.7787C100.833 93.3505 101.575 93.6363 102.531 93.6363C103.12 93.6363 103.641 93.5826 104.094 93.475C104.547 93.3675 105.016 93.209 105.503 92.9995V94.2392C105.033 94.4486 104.566 94.6015 104.102 94.6977C103.644 94.7939 103.1 94.8421 102.472 94.8421C101.578 94.8421 100.796 94.6609 100.128 94.2986C99.4662 93.9307 98.951 93.3929 98.5831 92.6853C98.2151 91.9778 98.0312 91.1117 98.0312 90.0871C98.0312 89.0852 98.1982 88.2191 98.5321 87.4888C98.8718 86.753 99.3473 86.1869 99.9586 85.7906C100.576 85.3944 101.3 85.1963 102.132 85.1963ZM102.115 86.3511C101.362 86.3511 100.762 86.5973 100.315 87.0898C99.8681 87.5823 99.602 88.27 99.5171 89.1531H104.442C104.436 88.5983 104.348 88.1115 104.179 87.6926C104.015 87.2681 103.763 86.9398 103.423 86.7077C103.083 86.4699 102.647 86.3511 102.115 86.3511ZM110.728 89.9088L107.509 85.3661H109.123L111.577 88.9493L114.022 85.3661H115.618L112.4 89.9088L115.797 94.6722H114.183L111.577 90.8768L108.953 94.6722H107.357L110.728 89.9088ZM120.817 93.6873C121.049 93.6873 121.287 93.6675 121.53 93.6278C121.774 93.5882 121.972 93.5401 122.125 93.4835V94.5788C121.961 94.6524 121.731 94.7147 121.437 94.7656C121.148 94.8166 120.865 94.8421 120.588 94.8421C120.095 94.8421 119.648 94.7572 119.246 94.5873C118.844 94.4119 118.522 94.1175 118.278 93.7043C118.041 93.291 117.922 92.7193 117.922 91.9891V86.4699H116.597V85.7822L117.93 85.2302L118.491 83.2094H119.34V85.3661H122.065V86.4699H119.34V91.9466C119.34 92.5297 119.473 92.9655 119.739 93.2542C120.011 93.5429 120.37 93.6873 120.817 93.6873Z" fill="white"/>
<circle cx="173.5" cy="53.5" r="14.725" fill="white" stroke="#0E416C" stroke-width="1.55"/>
<defs>
<clipPath id="clip0_7403_84697">
<rect width="21.3418" height="21.3418" fill="white" transform="translate(0 77.4627)"/>
</clipPath>
</defs>
</svg>
