<svg version="1.1" id="prefix__Layer_1" xmlns="http://www.w3.org/2000/svg" x="0" y="0" viewBox="0 0 619 81" xml:space="preserve"><style>.prefix__st1{fill:#252a2e}.prefix__st11{fill:#f0f;fill-opacity:.2}.prefix__st12{fill:#e8178a}</style><path d="M14.6 35.1h-1.8v-8.6h4.9V28h-3.1v2.2h2.9v1.5h-2.9v3.4zm10.5-3.3c0 .5-.1 1-.2 1.5-.1.4-.4.8-.6 1.1-.3.3-.6.5-1 .7-.4.1-.8.2-1.3.2s-.9-.1-1.3-.2-.7-.4-1-.7c-.3-.3-.5-.7-.7-1.1-.2-.4-.2-.9-.2-1.5 0-.7.1-1.3.4-1.8.3-.5.6-.9 1.1-1.1.5-.3 1-.4 1.7-.4.6 0 1.2.1 1.6.4.5.3.8.6 1.1 1.1.3.5.4 1.1.4 1.8zm-4.5 0c0 .4 0 .8.1 1.1.1.3.2.5.4.7.2.1.5.2.8.2.3 0 .6-.1.8-.2.2-.1.3-.4.4-.7.1-.3.1-.7.1-1.1 0-.4 0-.8-.1-1.1-.1-.3-.2-.5-.4-.7-.2-.1-.5-.2-.8-.2-.5 0-.8.2-1 .5-.2.4-.3.8-.3 1.5zm8.6 3.4c-.6 0-1.2-.1-1.7-.4-.5-.2-.8-.6-1-1.1-.2-.5-.4-1.1-.4-1.9 0-.8.1-1.5.4-2 .3-.5.7-.9 1.1-1.1.5-.2 1-.4 1.7-.4.5 0 .8 0 1.2.1l.9.3-.5 1.4c-.3-.1-.5-.2-.8-.3-.2-.1-.5-.1-.7-.1-.3 0-.6.1-.8.2-.2.1-.4.4-.5.7-.1.4-.1.8-.1 1.2 0 .4.1.8.2 1.1.1.3.3.5.5.6.2.1.5.2.8.2.4 0 .7 0 1-.1.3-.1.6-.2.8-.4v1.5c-.3.2-.6.3-.9.4-.4.1-.7.1-1.2.1zm9.5-6.7v6.6h-1.4l-.3-.9h-.1c-.1.2-.3.4-.5.5-.2.1-.4.2-.7.3-.3.1-.5.1-.8.1-.5 0-.9-.1-1.2-.2-.3-.2-.6-.4-.8-.8-.2-.4-.3-.8-.3-1.4v-4.3h1.8v3.8c0 .5.1.8.3 1.1.2.2.4.4.8.4s.6-.1.9-.2c.2-.2.4-.4.4-.7.1-.3.1-.7.1-1.2v-3.1h1.8zm6.3 4.6c0 .4-.1.8-.3 1.1-.2.3-.5.5-.9.7-.4.2-.9.2-1.5.2-.5 0-.8 0-1.2-.1-.3-.1-.7-.2-1-.3v-1.5c.4.2.7.3 1.1.4.4.1.8.2 1.1.2.3 0 .6-.1.7-.2.2-.1.2-.2.2-.4 0-.1 0-.2-.1-.3-.1-.1-.2-.2-.4-.3-.2-.1-.5-.3-.9-.4-.4-.2-.7-.3-1-.5-.3-.2-.5-.4-.6-.6-.1-.2-.2-.5-.2-.9 0-.6.2-1.1.7-1.4.5-.3 1.1-.5 1.9-.5.4 0 .8 0 1.2.1.4.1.8.2 1.1.4l-.5 1.3c-.3-.1-.6-.3-.9-.3-.3-.1-.6-.1-.9-.1-.3 0-.5 0-.6.1-.1.1-.2.2-.2.3 0 .1 0 .2.1.3.1.1.2.2.4.3.2.1.5.2.9.4s.7.3 1 .5c.3.2.5.4.6.6.2.2.2.6.2.9zm9 0c0 .4-.1.8-.3 1.1-.2.3-.5.5-.9.7-.4.2-.9.2-1.5.2-.5 0-.8 0-1.2-.1-.3-.1-.7-.2-1-.3v-1.5c.4.2.7.3 1.1.4.4.1.8.2 1.1.2.3 0 .6-.1.7-.2.2-.1.2-.2.2-.4 0-.1 0-.2-.1-.3-.1-.1-.2-.2-.4-.3-.2-.1-.5-.3-.9-.4-.4-.2-.7-.3-1-.5-.3-.2-.5-.4-.6-.6-.1-.2-.2-.5-.2-.9 0-.6.2-1.1.7-1.4.5-.3 1.1-.5 1.9-.5.4 0 .8 0 1.2.1.4.1.8.2 1.1.4l-.5 1.3c-.3-.1-.6-.3-.9-.3-.3-.1-.6-.1-.9-.1-.3 0-.5 0-.6.1-.1.1-.2.2-.2.3 0 .1 0 .2.1.3.1.1.2.2.4.3.2.1.5.2.9.4s.7.3 1 .5c.3.2.5.4.6.6.1.2.2.6.2.9zm4 .7c.2 0 .4 0 .6-.1.2 0 .4-.1.6-.1v1.3c-.2.1-.4.2-.7.2-.3.1-.6.1-.9.1-.4 0-.7-.1-1.1-.2-.3-.1-.6-.3-.7-.7-.2-.3-.3-.8-.3-1.3v-3.2h-.9V29l1-.6.5-1.4h1.1v1.4H59v1.3h-1.8V33c0 .2.1.4.2.6.2.1.4.2.6.2zm8.4-2c0 .5-.1 1-.2 1.5-.1.4-.4.8-.6 1.1-.3.3-.6.5-1 .7-.4.1-.8.2-1.3.2s-.9-.1-1.3-.2-.7-.4-1-.7c-.3-.3-.5-.7-.7-1.1-.2-.4-.2-.9-.2-1.5 0-.7.1-1.3.4-1.8.3-.5.6-.9 1.1-1.1.5-.3 1-.4 1.7-.4.6 0 1.2.1 1.6.4.5.3.8.6 1.1 1.1.2.5.4 1.1.4 1.8zm-4.5 0c0 .4 0 .8.1 1.1.1.3.2.5.4.7s.5.2.8.2c.3 0 .6-.1.8-.2.2-.1.3-.4.4-.7.1-.3.1-.7.1-1.1 0-.4 0-.8-.1-1.1-.1-.3-.2-.5-.4-.7-.2-.1-.5-.2-.8-.2-.5 0-.8.2-1 .5-.2.4-.3.8-.3 1.5zm7.7-5.8v4.7c0 .2 0 .5-.1.7.1-.2.2-.3.4-.5.1-.2.3-.3.4-.5l1.8-2h2l-2.6 2.8 2.8 3.7h-2.1l-1.9-2.7-.7.8v2h-1.8v-9h1.8zm8.3 2.4c.6 0 1.1.1 1.6.4.4.2.8.6 1 1 .2.4.4 1 .4 1.6v.9h-4.2c0 .5.2.9.5 1.2.3.3.7.4 1.2.4.4 0 .8 0 1.1-.1.3-.1.7-.2 1.1-.4v1.4c-.3.2-.7.3-1 .4-.4.1-.8.1-1.3.1-.7 0-1.2-.1-1.7-.4-.5-.2-.9-.6-1.2-1.1-.3-.5-.4-1.1-.4-1.9 0-.8.1-1.4.4-1.9.3-.5.6-.9 1.1-1.1.2-.4.7-.5 1.4-.5zm0 1.3c-.3 0-.6.1-.9.3-.2.2-.4.6-.4 1h2.5c0-.3-.1-.5-.1-.7-.1-.2-.2-.4-.4-.5-.2-.1-.4-.1-.7-.1zm15.3-1.2c0 .4-.1.7-.2 1-.1.3-.4.5-.6.7-.3.2-.6.3-.9.4.7.1 1.2.3 1.5.7.3.4.5.8.5 1.4 0 .5-.1.9-.4 1.3-.2.4-.6.7-1.1.9-.5.2-1.1.3-1.8.3-.5 0-.9 0-1.3-.1s-.8-.2-1.1-.4v-.9c.4.2.7.3 1.2.4.4.1.8.1 1.2.1.8 0 1.3-.2 1.7-.5.3-.3.5-.7.5-1.3 0-.4-.1-.7-.3-.9-.2-.2-.5-.4-.8-.5-.4-.1-.8-.2-1.3-.2h-.9v-.8h.9c.5 0 .9-.1 1.2-.2.3-.1.6-.3.7-.6.2-.2.3-.5.3-.9s-.1-.8-.4-1c-.3-.2-.7-.4-1.2-.4-.3 0-.6 0-.8.1s-.5.1-.7.3c-.2.1-.4.2-.7.4l-.5-.7c.3-.2.7-.5 1.1-.6.4-.2 1-.3 1.5-.3.9 0 1.5.2 2 .6.5.6.7 1.1.7 1.7zm4.2 6.7c-.8 0-1.5-.3-1.9-.8-.5-.6-.7-1.4-.7-2.5s.2-1.9.7-2.5c.5-.6 1.1-.8 1.9-.8.3 0 .6 0 .9.1.3.1.5.2.7.4.2.1.3.3.5.5h.1v-.5V26h1v9.1h-.8l-.1-.9c-.1.2-.3.4-.5.5-.2.2-.4.3-.7.4-.4.1-.7.1-1.1.1zm.2-.8c.7 0 1.2-.2 1.5-.6.3-.4.4-1 .4-1.7v-.2c0-.8-.1-1.4-.4-1.9-.3-.4-.8-.7-1.5-.7-.6 0-1 .2-1.3.7-.3.5-.4 1.1-.4 1.9 0 .8.1 1.4.4 1.8.2.5.7.7 1.3.7zm7.8-5.9c.8 0 1.4.3 1.9.8.5.6.7 1.4.7 2.5 0 .7-.1 1.3-.3 1.8-.2.5-.5.9-.9 1.1-.4.3-.9.4-1.4.4-.3 0-.6 0-.9-.1-.3-.1-.5-.2-.7-.4l-.5-.5h-.1V38h-1v-9.3h.8l.1.9c.1-.2.3-.4.5-.5.2-.2.4-.3.7-.4.5-.1.8-.2 1.1-.2zm-.1.9c-.4 0-.8.1-1.1.3-.3.2-.5.4-.6.8-.1.3-.2.8-.2 1.3v.2c0 .5.1 1 .2 1.4.1.4.3.7.6.9.3.2.6.3 1.1.3.4 0 .7-.1 1-.3.3-.2.5-.5.6-.9.1-.4.2-.8.2-1.3 0-.8-.1-1.4-.4-1.8-.4-.7-.8-.9-1.4-.9zM12.8 46.5h2.7c1.1 0 2 .2 2.6.5.6.3.9.9.9 1.7 0 .3-.1.6-.2.9-.1.3-.2.5-.4.6-.2.2-.4.3-.7.3v.1c.3.1.5.2.8.3.2.1.4.3.6.6.1.3.2.6.2 1.1 0 .5-.1 1-.4 1.3-.3.4-.6.7-1.1.9-.5.2-1 .3-1.7.3h-3.2v-8.6zm1.8 3.4h1.1c.5 0 .9-.1 1.1-.2.2-.2.3-.4.3-.7 0-.3-.1-.6-.4-.7-.2-.1-.6-.2-1.1-.2h-1v1.8zm0 1.5v2.2h1.2c.5 0 .9-.1 1.1-.3.2-.2.3-.5.3-.8 0-.2 0-.4-.1-.6-.1-.2-.3-.3-.5-.4-.2-.1-.5-.1-.9-.1h-1.1zm12 .4c0 .5-.1 1-.2 1.5-.1.4-.4.8-.6 1.1-.3.3-.6.5-1 .7-.4.1-.8.2-1.3.2s-.9-.1-1.3-.2-.7-.4-1-.7c-.3-.3-.5-.7-.7-1.1-.2-.4-.2-.9-.2-1.5 0-.7.1-1.3.4-1.8.3-.5.6-.9 1.1-1.1.5-.3 1-.4 1.7-.4.6 0 1.2.1 1.6.4.5.3.8.6 1.1 1.1.3.5.4 1.1.4 1.8zm-4.5 0c0 .4 0 .8.1 1.1.1.3.2.5.4.7.2.1.5.2.8.2.3 0 .6-.1.8-.2.2-.1.3-.4.4-.7.1-.3.1-.7.1-1.1 0-.4 0-.8-.1-1.1-.1-.3-.2-.5-.4-.7s-.5-.2-.8-.2c-.5 0-.8.2-1 .5-.2.4-.3.8-.3 1.5zm9.6-3.4h.6l-.1 1.7h-.6c-.2 0-.5 0-.7.1l-.6.3c-.2.1-.3.3-.4.5-.1.2-.1.5-.1.8v3.3H28v-6.6h1.4l.3 1.1h.1c.1-.2.3-.4.5-.6.2-.2.4-.3.7-.4.1-.1.4-.2.7-.2zm3.8 6.8c-.7 0-1.3-.3-1.8-.9-.5-.6-.7-1.4-.7-2.5s.2-2 .7-2.5c.5-.6 1.1-.9 1.8-.9.3 0 .6 0 .8.1l.6.3c.2.1.3.3.4.5h.1c0-.1-.1-.3-.1-.6V46h1.8v9.1h-1.4l-.3-.8h-.1c-.1.2-.3.3-.4.5-.2.1-.4.3-.6.3-.2.1-.5.1-.8.1zm.6-1.4c.5 0 .8-.1 1-.4.2-.3.3-.7.3-1.3v-.2c0-.6-.1-1.1-.3-1.5-.2-.3-.6-.5-1.1-.5-.4 0-.7.2-.9.5-.2.3-.3.8-.3 1.5 0 .6.1 1.1.3 1.4.3.3.6.5 1 .5zm7.5-5.4c.6 0 1.1.1 1.6.4.4.2.8.6 1 1 .2.4.4 1 .4 1.6v.9h-4.2c0 .5.2.9.5 1.2.3.3.7.4 1.2.4.4 0 .8 0 1.1-.1.3-.1.7-.2 1.1-.4v1.4c-.3.2-.7.3-1 .4-.4.1-.8.1-1.3.1-.7 0-1.2-.1-1.7-.4-.5-.2-.9-.6-1.2-1.1-.3-.5-.4-1.1-.4-1.9 0-.8.1-1.4.4-1.9.3-.5.6-.9 1.1-1.1.3-.4.8-.5 1.4-.5zm0 1.3c-.3 0-.6.1-.9.3-.2.2-.4.6-.4 1h2.5c0-.3-.1-.5-.1-.7-.1-.2-.2-.4-.4-.5-.2-.1-.4-.1-.7-.1zm8-1.3h.6l-.1 1.7h-.6c-.2 0-.5 0-.7.1l-.6.3c-.2.1-.3.3-.4.5-.1.2-.1.5-.1.8v3.3h-1.8v-6.6h1.4l.3 1.1h.1c.1-.2.3-.4.5-.6.2-.2.4-.3.7-.4.1-.1.4-.2.7-.2zm1.1 4.2v-1.5h3.1v1.5h-3.1zm8.1-4.2h.6l-.1 1.7h-.6c-.2 0-.5 0-.7.1l-.6.3c-.2.1-.3.3-.4.5-.1.2-.1.5-.1.8v3.3h-1.8v-6.6h1.4l.3 1.1h.1c.1-.2.3-.4.5-.6.2-.2.4-.3.7-.4.1-.1.4-.2.7-.2zm4.4 0c.9 0 1.6.2 2 .6.5.4.7 1 .7 1.7v4.4h-1.2l-.3-.9-.6.6c-.2.2-.5.2-.8.3-.3.1-.6.1-.9.1-.4 0-.7-.1-1-.2-.3-.1-.5-.4-.7-.7-.3-.3-.4-.7-.4-1.2 0-.7.2-1.2.7-1.5.5-.3 1.2-.5 2.2-.6H66v-.3c0-.3-.1-.6-.3-.8-.2-.2-.4-.2-.8-.2-.3 0-.6 0-.9.1l-.9.3-.4-1.1c.3-.2.7-.3 1.2-.4.4-.1.8-.2 1.3-.2zm.9 3.6h-.7c-.6 0-1 .1-1.2.3-.2.2-.3.4-.3.8 0 .3.1.5.2.6.2.1.4.2.6.2.4 0 .7-.1 1-.3.3-.2.4-.5.4-1V52zm5.6 3.2c-.7 0-1.3-.3-1.8-.9-.5-.6-.7-1.4-.7-2.5s.2-2 .7-2.5c.5-.6 1.1-.9 1.8-.9.3 0 .6 0 .8.1l.6.3c.2.1.3.3.4.5h.1c0-.1-.1-.3-.1-.6V46h1.8v9.1H74l-.3-.8h-.1c-.1.2-.3.3-.4.5-.2.1-.4.3-.6.3-.3.1-.5.1-.9.1zm.7-1.4c.5 0 .8-.1 1-.4.2-.3.3-.7.3-1.3v-.2c0-.6-.1-1.1-.3-1.5-.2-.3-.6-.5-1.1-.5-.4 0-.7.2-.9.5-.2.3-.3.8-.3 1.5 0 .6.1 1.1.3 1.4.2.3.6.5 1 .5zm6.6-5.3v6.6h-1.8v-6.6H79zm-.9-2.5c.3 0 .5.1.7.2.2.1.3.3.3.7 0 .3-.1.6-.3.7-.2.1-.4.2-.7.2-.3 0-.5-.1-.7-.2-.2-.1-.3-.4-.3-.7 0-.3.1-.6.3-.7.2-.2.4-.2.7-.2zm8.7 2.5v6.6h-1.4l-.2-.8h-.1c-.1.2-.3.4-.5.5-.2.1-.4.2-.7.3-.3.1-.5.1-.8.1-.5 0-.9-.1-1.2-.2-.3-.2-.6-.4-.8-.8-.2-.4-.3-.8-.3-1.4v-4.3h1.8v3.8c0 .5.1.8.3 1.1.2.2.4.4.8.4s.6-.1.9-.2c.2-.2.4-.4.4-.7.1-.3.1-.7.1-1.2v-3.1h1.7zm6.4 4.6c0 .4-.1.8-.3 1.1-.2.3-.5.5-.9.7-.4.2-.9.2-1.5.2-.5 0-.8 0-1.2-.1-.3-.1-.7-.2-1-.3v-1.5c.4.2.7.3 1.1.4.4.1.8.2 1.1.2.3 0 .6-.1.7-.2.2-.1.2-.2.2-.4 0-.1 0-.2-.1-.3-.1-.1-.2-.2-.4-.3-.2-.1-.5-.3-.9-.4-.4-.2-.7-.3-1-.5-.3-.2-.5-.4-.6-.6-.1-.2-.2-.5-.2-.9 0-.6.2-1.1.7-1.4.5-.3 1.1-.5 1.9-.5.4 0 .8 0 1.2.1.4.1.8.2 1.1.4l-.5 1.3c-.3-.1-.6-.3-.9-.3-.3-.1-.6-.1-.9-.1-.3 0-.5 0-.6.1-.2.1-.2.2-.2.4 0 .1 0 .2.1.3.1.1.2.2.4.3.2.1.5.2.9.4s.7.3 1 .5c.3.2.5.4.6.6.1.1.2.5.2.8zm1 1.1c0-.4.1-.6.3-.8.2-.1.4-.2.7-.2.3 0 .5.1.7.2.2.1.3.4.3.8s-.1.6-.3.8c-.2.2-.4.2-.7.2-.3 0-.5-.1-.7-.2-.2-.1-.3-.4-.3-.8zm0-4.8c0-.4.1-.6.3-.8.2-.1.4-.2.7-.2.3 0 .5.1.7.2.2.1.3.4.3.8s-.1.6-.3.8c-.2.2-.4.2-.7.2-.3 0-.5-.1-.7-.2-.2-.2-.3-.4-.3-.8zm10 5.7h-.9V49v-.6-.5-.4l-.3.3c-.1.1-.2.2-.4.3l-1 .8-.5-.7 2.3-1.8h.8v8.7zm3.2-3.7c0-.5 0-1 .1-1.5s.2-.9.4-1.4c.2-.4.4-.8.7-1.1.3-.3.7-.6 1.1-.8.4-.2 1-.3 1.6-.3h.6c.2 0 .4 0 .5.1v.8c-.1-.1-.3-.1-.5-.1h-.6c-.7 0-1.3.2-1.7.5-.4.3-.7.7-.9 1.3-.2.5-.3 1.1-.3 1.8h.1c.1-.2.3-.4.5-.5.2-.2.4-.3.7-.4.3-.1.6-.1.9-.1.5 0 .9.1 1.3.3.4.2.7.5.9.9.2.4.3.9.3 1.4 0 .6-.1 1.1-.3 1.5s-.5.8-.9 1c-.4.2-.9.3-1.4.3-.4 0-.8-.1-1.2-.2-.4-.2-.7-.4-.9-.7-.3-.3-.5-.7-.6-1.2-.3-.4-.4-1-.4-1.6zm2.9 3c.5 0 1-.2 1.3-.5.3-.3.5-.9.5-1.5s-.1-1-.4-1.3c-.3-.3-.7-.5-1.3-.5-.4 0-.7.1-1 .2-.3.2-.5.4-.7.6-.2.2-.2.5-.2.8 0 .3 0 .5.1.8.1.3.2.5.4.7s.4.4.6.5c.1.1.4.2.7.2zm6.5.8c-.8 0-1.5-.3-1.9-.8-.5-.6-.7-1.4-.7-2.5s.2-1.9.7-2.5c.5-.6 1.1-.8 1.9-.8.3 0 .6 0 .9.1.3.1.5.2.7.4.2.1.3.3.5.5h.1v-.5V46h1v9.1h-.8l-.1-.9c-.1.2-.3.4-.5.5-.2.2-.4.3-.7.4-.4.1-.7.1-1.1.1zm.2-.8c.7 0 1.2-.2 1.5-.6.3-.4.4-1 .4-1.7v-.2c0-.8-.1-1.4-.4-1.9-.3-.4-.8-.7-1.5-.7-.6 0-1 .2-1.3.7-.3.5-.4 1.1-.4 1.9 0 .8.1 1.4.4 1.8.2.5.7.7 1.3.7zm7.9-5.9c.8 0 1.4.3 1.9.8.5.6.7 1.4.7 2.5 0 .7-.1 1.3-.3 1.8-.2.5-.5.9-.9 1.1-.4.3-.9.4-1.4.4-.3 0-.6 0-.9-.1-.3-.1-.5-.2-.7-.4l-.5-.5h-.1V58h-1v-9.3h.8l.1.9c.1-.2.3-.4.5-.5.2-.2.4-.3.7-.4.4-.1.7-.2 1.1-.2zm-.2.9c-.4 0-.8.1-1.1.3-.3.2-.5.4-.6.8-.1.3-.2.8-.2 1.3v.2c0 .5.1 1 .2 1.4.1.4.3.7.6.9.3.2.6.3 1.1.3.4 0 .7-.1 1-.3.3-.2.5-.5.6-.9.1-.4.2-.8.2-1.3 0-.8-.1-1.4-.4-1.8-.4-.7-.8-.9-1.4-.9z"/><path d="M1 67.1v-54h134.4v10.5l7 7.9-7 7.3v28.3H1z" fill="none" stroke="#ccc"/><path class="prefix__st1" d="M156.6 61.2h-1.8V44.5h1.8v16.7zm11.3 0l-.4-1.7h-.1c-.6.7-1.2 1.2-1.8 1.5-.6.3-1.3.4-2.2.4-1.2 0-2.1-.3-2.8-.9-.7-.6-1-1.5-1-2.6 0-2.4 1.9-3.6 5.7-3.7l2-.1v-.7c0-.9-.2-1.6-.6-2-.4-.4-1-.7-1.9-.7-1 0-2.1.3-3.3.9l-.5-1.4c.6-.3 1.2-.6 1.9-.7.7-.2 1.4-.3 2.1-.3 1.4 0 2.4.3 3.1.9.7.6 1 1.6 1 3v8h-1.2zm-4-1.3c1.1 0 2-.3 2.6-.9.6-.6 1-1.5 1-2.6v-1.1l-1.8.1c-1.4.1-2.4.3-3.1.7-.6.4-.9 1-.9 1.8 0 .6.2 1.1.6 1.5.3.3.9.5 1.6.5zm14.7-10.7c1.5 0 2.7.5 3.6 1.6.9 1.1 1.3 2.5 1.3 4.5 0 1.9-.4 3.4-1.3 4.5s-2.1 1.6-3.6 1.6c-.8 0-1.5-.1-2.1-.4-.6-.3-1.2-.7-1.6-1.3h-.1l-.4 1.5h-1.3V44.5h1.8v4.1c0 .9 0 1.7-.1 2.4h.1c.9-1.2 2.1-1.8 3.7-1.8zm-.2 1.5c-1.2 0-2.1.4-2.6 1.1-.5.7-.8 1.9-.8 3.5s.3 2.8.8 3.6c.6.7 1.4 1.1 2.7 1.1 1.1 0 1.9-.4 2.4-1.2.5-.8.8-2 .8-3.4 0-1.5-.3-2.7-.8-3.4-.6-.9-1.4-1.3-2.5-1.3zm13.5 10.7c-1.7 0-3.1-.5-4.1-1.6-1-1.1-1.5-2.5-1.5-4.4 0-1.9.5-3.4 1.4-4.5.9-1.1 2.2-1.7 3.8-1.7 1.5 0 2.6.5 3.5 1.5.9 1 1.3 2.2 1.3 3.8v1.1h-8.1c0 1.4.4 2.4 1 3.1.7.7 1.6 1.1 2.8 1.1 1.3 0 2.5-.3 3.8-.8v1.6c-.6.3-1.2.5-1.8.6-.7.1-1.4.2-2.1.2zm-.5-10.7c-.9 0-1.7.3-2.3.9-.6.6-.9 1.5-1 2.6h6.2c0-1.1-.3-2-.8-2.6-.5-.6-1.2-.9-2.1-.9zm9.9 10.5h-1.8V44.5h1.8v16.7z"/><path d="M231.4 44.2h259c4.4 0 8 3.6 8 8s-3.6 8-8 8h-259c-4.4 0-8-3.6-8-8 0-4.5 3.6-8 8-8z" fill="#a3a6b1"/><path d="M231.4 44.2h174c4.4 0 8 3.6 8 8s-3.6 8-8 8h-174c-4.4 0-8-3.6-8-8 0-4.5 3.6-8 8-8z" fill="#217cbb"/><circle cx="393.4" cy="52.2" r="18" fill="#fff" stroke="#217cbb" stroke-width="4"/><circle cx="393.4" cy="52.2" r="23" opacity=".4" fill="none" stroke="#217cbb" stroke-width="8"/><circle cx="393.4" cy="52.2" r="25.5" fill="none" stroke="#019aeb" stroke-width="3"/><path d="M510.4 25.2h48c1.7 0 3 1.3 3 3v48c0 1.7-1.3 3-3 3h-48c-1.7 0-3-1.3-3-3v-48c0-1.7 1.4-3 3-3z" fill="#fff"/><path class="prefix__st1" d="M528.4 51.1c1.5 0 2.7.4 3.6 1.3.9.9 1.4 2 1.4 3.5 0 1.8-.5 3.1-1.6 4-1.1.9-2.6 1.4-4.6 1.4-1.7 0-3.2-.3-4.2-.8v-2.9c.6.3 1.2.5 2 .7.8.2 1.5.3 2.1.3 2 0 3-.8 3-2.5 0-1.6-1-2.4-3.1-2.4-.4 0-.8 0-1.3.1s-.8.2-1.1.2l-1.3-.7.6-8h8.5v2.8h-5.6l-.3 3.1.4-.1c.3.1.9 0 1.5 0zm17.8 2.2c0 2.7-.5 4.8-1.4 6.1-.9 1.3-2.3 2-4.1 2-1.8 0-3.2-.7-4.1-2-.9-1.4-1.4-3.4-1.4-6 0-2.8.4-4.8 1.3-6.1.9-1.3 2.3-2 4.1-2 1.8 0 3.2.7 4.1 2.1 1 1.3 1.5 3.3 1.5 5.9zm-7.7 0c0 1.9.2 3.3.5 4.1.3.8.9 1.2 1.7 1.2.8 0 1.3-.4 1.7-1.3.3-.8.5-2.2.5-4.1 0-1.9-.2-3.3-.5-4.1-.3-.8-.9-1.3-1.7-1.3-.8 0-1.3.4-1.7 1.3-.3.9-.5 2.3-.5 4.2z"/><path d="M510.4 25.2h48c1.7 0 3 1.3 3 3v48c0 1.7-1.3 3-3 3h-48c-1.7 0-3-1.3-3-3v-48c0-1.7 1.4-3 3-3z" fill="none" stroke="#353a40" stroke-width="2"/><path d="M569.4 24.2h9v56h-9" fill="none" stroke="#4091d2"/><path d="M589 50.7c.5 0 1 .1 1.4.3.4.2.7.5 1 .9.2.4.4.9.4 1.4 0 .6-.1 1.2-.4 1.6-.3.4-.6.8-1.1 1-.5.2-1.1.4-1.9.4-.4 0-.9 0-1.3-.1s-.7-.2-1-.3v-1.6c.3.2.7.3 1.1.4.4.1.8.2 1.2.2.4 0 .7 0 .9-.1.2-.1.4-.2.6-.4.1-.2.2-.5.2-.8 0-.4-.1-.7-.4-1-.3-.2-.7-.3-1.3-.3-.2 0-.5 0-.7.1-.2 0-.4.1-.6.1l-.7-.4.3-4.4h4.6v1.5h-3.1l-.2 1.7c.1 0 .3-.1.4-.1.1-.1.3-.1.6-.1zm3.6 1.8c0-.5 0-1 .1-1.5s.2-.9.4-1.4c.2-.4.4-.8.8-1.1.3-.3.7-.6 1.2-.8.5-.2 1.1-.3 1.8-.3h.6c.2 0 .4 0 .6.1V49c-.2 0-.3-.1-.5-.1h-.5c-.7 0-1.3.1-1.7.3-.4.2-.7.5-.8.9-.2.4-.2.9-.3 1.4h.1c.1-.2.2-.4.4-.5.2-.1.4-.3.6-.4.2-.1.5-.1.8-.1.5 0 .9.1 1.3.3.4.2.6.5.8.9.2.4.3.9.3 1.5s-.1 1.1-.4 1.6c-.2.4-.6.8-1 1-.4.2-.9.4-1.5.4-.4 0-.8-.1-1.2-.2-.4-.2-.7-.4-1-.7-.3-.3-.5-.7-.7-1.2-.1-.4-.2-.9-.2-1.6zm3.1 2.3c.4 0 .6-.1.9-.4.2-.2.3-.6.3-1.1 0-.4-.1-.7-.3-1-.2-.2-.5-.4-.9-.4-.3 0-.5.1-.7.2-.2.1-.4.3-.5.5-.1.2-.2.4-.2.6 0 .2 0 .4.1.6.1.2.1.4.2.5.1.2.2.3.4.4.3.1.5.1.7.1zm6.3 1.5c-.7 0-1.3-.3-1.8-.9-.5-.6-.7-1.4-.7-2.5s.2-2 .7-2.5c.5-.6 1.1-.9 1.8-.9.3 0 .6 0 .8.1l.6.3c.2.1.3.3.4.5h.1c0-.1-.1-.3-.1-.6V47h1.8v9.1h-1.4l-.3-.8h-.1c-.1.2-.3.3-.4.5-.2.1-.4.3-.6.3-.2.1-.5.2-.8.2zm.6-1.4c.5 0 .8-.1 1-.4.2-.3.3-.7.3-1.3V53c0-.6-.1-1.1-.3-1.5-.2-.3-.6-.5-1.1-.5-.4 0-.7.2-.9.5-.2.3-.3.8-.3 1.5 0 .6.1 1.1.3 1.4.3.3.6.5 1 .5zm8.5-5.4c.7 0 1.3.3 1.8.9.5.6.7 1.4.7 2.5 0 .7-.1 1.4-.3 1.9-.2.5-.5.9-.9 1.1-.4.3-.8.4-1.3.4-.3 0-.6 0-.8-.1l-.6-.3c-.2-.1-.3-.3-.4-.4h-.1c0 .2.1.3.1.5v3h-1.8v-9.4h1.5l.3.8h.1c.1-.2.3-.3.4-.5.2-.1.4-.3.6-.4h.7zm-.6 1.4c-.3 0-.6.1-.7.2-.2.1-.3.3-.4.6-.1.3-.1.6-.1 1v.2c0 .4 0 .8.1 1.1.1.3.2.5.4.7.2.2.5.2.8.2.3 0 .5-.1.7-.2.2-.2.3-.4.4-.7.1-.3.1-.7.1-1.1 0-.6-.1-1.1-.3-1.4-.2-.4-.6-.6-1-.6z" fill="#4091d2"/><path class="prefix__st11" d="M203.4 23.2h20v57h-20zM498.4 25.2h7v53h-7z"/><path class="prefix__st12" d="M496.4 10c.6 0 1.1.1 1.5.3.4.2.8.5 1 .8.3.4.4.8.4 1.3 0 .4-.1.8-.3 1.1-.2.3-.4.6-.7.8-.3.2-.6.4-1 .6.4.2.8.4 1.2.7.3.2.6.5.8.9.2.3.3.7.3 1.2 0 .6-.1 1-.4 1.5-.3.4-.6.7-1.1.9-.5.2-1.1.3-1.7.3-.7 0-1.3-.1-1.8-.3-.5-.2-.9-.5-1.1-.9-.3-.4-.4-.9-.4-1.4 0-.5.1-.9.3-1.2.2-.3.5-.6.8-.9.3-.2.7-.5 1.1-.6l-.9-.6c-.3-.2-.5-.5-.7-.8-.2-.3-.2-.7-.2-1.1 0-.5.1-.9.4-1.3.3-.4.6-.6 1.1-.8.3-.4.8-.5 1.4-.5zm-2.2 7.6c0 .5.2.9.5 1.3.4.3.9.5 1.6.5.7 0 1.2-.2 1.6-.5.4-.3.6-.8.6-1.3 0-.3-.1-.6-.3-.9-.2-.3-.4-.5-.7-.7-.3-.2-.7-.4-1.1-.5l-.2-.1c-.4.2-.8.4-1.1.6-.3.2-.5.4-.7.7s-.2.6-.2.9zm2.2-6.6c-.5 0-1 .1-1.3.4-.3.3-.5.6-.5 1.1 0 .3.1.6.2.9.2.2.4.4.7.6.3.2.6.3 1 .5.3-.1.7-.3.9-.5.3-.2.5-.4.6-.6.2-.2.2-.5.2-.9 0-.5-.2-.9-.5-1.1-.3-.3-.7-.4-1.3-.4zm7.8 9.3c-.9 0-1.7-.3-2.3-1-.6-.6-.8-1.6-.8-2.9 0-1.3.3-2.3.8-2.9.6-.7 1.3-1 2.3-1 .4 0 .7.1 1 .2.3.1.6.2.8.4.2.2.4.4.5.6h.1c0-.1 0-.3-.1-.6V9.5h1.1v10.6h-.9l-.2-1.1c-.1.2-.3.4-.5.6-.2.2-.5.3-.8.4-.2.3-.6.3-1 .3zm.2-.9c.8 0 1.4-.2 1.7-.7.3-.5.5-1.1.5-2v-.2c0-1-.2-1.7-.5-2.2-.3-.5-.9-.8-1.7-.8-.7 0-1.2.3-1.6.8-.3.5-.5 1.3-.5 2.2 0 .9.2 1.6.5 2.1.4.5.9.8 1.6.8zm9.2-6.9c.9 0 1.7.3 2.2 1 .6.6.8 1.6.8 2.9 0 .9-.1 1.6-.4 2.1s-.6 1-1.1 1.3c-.5.3-1 .4-1.6.4-.4 0-.7-.1-1-.2-.3-.1-.6-.2-.8-.4-.2-.2-.4-.4-.5-.6h-.1v4.4H510V12.7h.9l.2 1.1h.1c.1-.2.3-.4.5-.6.2-.2.5-.3.8-.5.3-.1.6-.2 1.1-.2zm-.2 1c-.5 0-.9.1-1.3.3-.3.2-.5.5-.7.9-.1.4-.2.9-.2 1.5v.2c0 .6.1 1.2.2 1.6.1.4.4.8.7 1 .3.2.8.3 1.3.3s.9-.1 1.2-.4c.3-.3.5-.6.7-1 .2-.5.2-1 .2-1.6 0-.9-.2-1.6-.5-2.1-.4-.4-.9-.7-1.6-.7zM205.7 15h-6.6v-1l2.6-2.6c.8-.8 1.3-1.4 1.6-1.7.3-.3.4-.7.6-1 .1-.3.2-.7.2-1.1 0-.5-.2-1-.5-1.3-.3-.3-.8-.5-1.3-.5-.4 0-.8.1-1.2.2-.4.1-.8.4-1.2.7l-.6-.7c.9-.8 1.9-1.1 3-1.1.9 0 1.7.2 2.2.7.5.5.8 1.1.8 1.9 0 .6-.2 1.3-.5 1.9-.4.6-1 1.4-2 2.4l-2.2 2.1v.1h5.1v1zm8-5c0 1.7-.3 3-.8 3.9-.5.9-1.4 1.3-2.5 1.3s-1.9-.4-2.5-1.3c-.6-.9-.8-2.2-.8-3.8 0-1.7.3-3 .8-3.9.5-.8 1.4-1.3 2.5-1.3s1.9.4 2.5 1.3c.5.8.8 2.1.8 3.8zm-5.5 0c0 1.5.2 2.5.5 3.2.3.7.9 1 1.6 1 .8 0 1.3-.3 1.6-1 .3-.7.5-1.7.5-3.2 0-1.4-.2-2.5-.5-3.2-.3-.7-.9-1-1.6-1-.7 0-1.3.3-1.6 1-.3.7-.5 1.7-.5 3.2zm12.4 4c-.6.8-1.4 1.1-2.4 1.1s-1.7-.3-2.3-1c-.5-.7-.8-1.6-.8-2.9s.3-2.2.8-2.9c.5-.7 1.3-1 2.3-1 1 0 1.8.4 2.3 1.1h.1v-4h1.1V15h-.9l-.2-1zm-2.2.2c.8 0 1.3-.2 1.7-.6.4-.4.5-1.1.5-2v-.2c0-1.1-.2-1.8-.5-2.3-.4-.5-.9-.7-1.7-.7-.7 0-1.2.3-1.5.8-.4.5-.5 1.2-.5 2.2 0 1 .2 1.7.5 2.2.3.3.8.6 1.5.6zm9.1.9c-.5 0-.9-.1-1.3-.3-.4-.2-.7-.5-1-.8h-.1c.1.4.1.9.1 1.2v3.1H224V7.5h.9l.2 1h.1c.3-.4.6-.7 1-.9.4-.2.8-.3 1.3-.3 1 0 1.8.3 2.3 1 .5.7.8 1.6.8 2.9 0 1.2-.3 2.2-.8 2.9-.6.7-1.3 1-2.3 1zm-.2-6.8c-.8 0-1.3.2-1.7.6-.3.4-.5 1.1-.5 2v.3c0 1.1.2 1.8.5 2.3.3.5.9.7 1.7.7.6 0 1.2-.3 1.5-.8.4-.5.6-1.2.6-2.2 0-.9-.2-1.6-.6-2.1-.3-.5-.8-.8-1.5-.8z"/></svg>