<svg width="559" height="44" viewBox="0 0 559 44" fill="none" xmlns="http://www.w3.org/2000/svg"><path d="M1.63994 28.2725V16.2845H3.03389V27.0261H8.3555V28.2725H1.63994ZM13.4026 19.138C14.474 19.138 15.2694 19.3785 15.7887 19.8596C16.308 20.3406 16.5677 21.1086 16.5677 22.1637V28.2725H15.5755L15.3131 26.9441H15.2475C14.9961 27.2721 14.7337 27.5481 14.4603 27.7723C14.187 27.9909 13.87 28.1577 13.5092 28.2725C13.1539 28.3818 12.7165 28.4364 12.1972 28.4364C11.6506 28.4364 11.1641 28.3408 10.7377 28.1495C10.3168 27.9581 9.98331 27.6684 9.73732 27.2803C9.49679 26.8922 9.37653 26.4002 9.37653 25.8043C9.37653 24.9078 9.73185 24.2191 10.4425 23.738C11.1531 23.257 12.2355 22.9946 13.6896 22.9508L15.2393 22.8852V22.3359C15.2393 21.5596 15.0726 21.0157 14.7391 20.7041C14.4057 20.3925 13.9356 20.2367 13.3288 20.2367C12.8587 20.2367 12.4104 20.3051 11.984 20.4417C11.5577 20.5784 11.1531 20.7397 10.7705 20.9255L10.3523 19.8924C10.7568 19.6846 11.2215 19.507 11.7462 19.3594C12.271 19.2118 12.8231 19.138 13.4026 19.138ZM15.2229 23.8446L13.8536 23.902C12.7329 23.9457 11.943 24.1289 11.4839 24.4514C11.0247 24.7739 10.7951 25.2304 10.7951 25.8207C10.7951 26.3346 10.9509 26.7145 11.2625 26.9605C11.5741 27.2065 11.9868 27.3295 12.5006 27.3295C13.2987 27.3295 13.952 27.1081 14.4603 26.6653C14.9687 26.2225 15.2229 25.5584 15.2229 24.6728V23.8446ZM20.5652 15.5137V18.7034C20.5652 19.0696 20.5543 19.425 20.5324 19.7694C20.516 20.1137 20.5023 20.3816 20.4914 20.5729H20.5652C20.8112 20.1684 21.1665 19.8268 21.6312 19.548C22.0958 19.2692 22.6889 19.1298 23.4105 19.1298C24.5366 19.1298 25.4331 19.5206 26.1 20.3023C26.7724 21.0786 27.1086 22.2347 27.1086 23.7708C27.1086 24.7821 26.9555 25.6349 26.6494 26.3291C26.3433 27.0234 25.9114 27.5481 25.3538 27.9035C24.7962 28.2588 24.1375 28.4364 23.3777 28.4364C22.6671 28.4364 22.0821 28.3053 21.623 28.0429C21.1692 27.775 20.8194 27.4497 20.5734 27.0671H20.4668L20.188 28.2725H19.204V15.5137H20.5652ZM23.1891 20.2695C22.5386 20.2695 22.022 20.398 21.6394 20.6549C21.2567 20.9064 20.9806 21.289 20.8112 21.8029C20.6472 22.3113 20.5652 22.9563 20.5652 23.738V23.8118C20.5652 24.9434 20.7538 25.8098 21.131 26.4111C21.5082 27.007 22.1942 27.3049 23.1891 27.3049C24.0255 27.3049 24.6514 26.9988 25.0668 26.3865C25.4877 25.7743 25.6982 24.8996 25.6982 23.7626C25.6982 22.6037 25.4905 21.7318 25.075 21.1469C24.665 20.562 24.0364 20.2695 23.1891 20.2695ZM32.7788 19.1216C33.5441 19.1216 34.2001 19.291 34.7467 19.63C35.2934 19.9689 35.7116 20.4445 36.0013 21.0567C36.291 21.6635 36.4359 22.3741 36.4359 23.1886V24.0332H30.2287C30.2451 25.0882 30.5075 25.8918 31.0159 26.4439C31.5243 26.996 32.2404 27.2721 33.1642 27.2721C33.7327 27.2721 34.2356 27.2202 34.673 27.1163C35.1103 27.0124 35.564 26.8594 36.0341 26.6571V27.8543C35.5804 28.0565 35.1294 28.2041 34.6812 28.2971C34.2384 28.39 33.7136 28.4364 33.1068 28.4364C32.2431 28.4364 31.4887 28.2615 30.8437 27.9117C30.2041 27.5563 29.7067 27.037 29.3513 26.3537C28.996 25.6704 28.8184 24.834 28.8184 23.8446C28.8184 22.877 28.9796 22.0407 29.3021 21.3355C29.6301 20.6249 30.0893 20.0782 30.6797 19.6956C31.2755 19.3129 31.9752 19.1216 32.7788 19.1216ZM32.7624 20.2367C32.0354 20.2367 31.4559 20.4745 31.0241 20.9501C30.5922 21.4257 30.3353 22.0899 30.2533 22.9426H35.0091C35.0037 22.4069 34.9189 21.9368 34.7549 21.5323C34.5964 21.1223 34.3532 20.8053 34.0252 20.5811C33.6972 20.3515 33.2763 20.2367 32.7624 20.2367ZM39.9496 28.2725H38.5803V15.5137H39.9496V28.2725Z" fill="#252A2E"/><path d="M76.579 22.5778C76.579 20.9748 75.2813 19.6772 73.6784 19.6772V8.3801L65.0529 16.5476H60.3203V21.8145V22.6541V28.0737H65.0529L73.6784 36.1649V25.4784C75.2813 25.4784 76.579 24.1808 76.579 22.5778Z" fill="#252A2E"/><path d="M76.579 22.5778C76.579 20.9748 75.2813 19.6772 73.6784 19.6772V8.3801L65.0529 16.5476H60.3203V21.8145V22.6541V28.0737H65.0529L73.6784 36.1649V25.4784C75.2813 25.4784 76.579 24.1808 76.579 22.5778Z" fill="#252A2E"/><path d="M79.5554 16.6239L77.3418 18.8375C78.2578 19.8298 78.8684 21.1275 78.8684 22.5778C78.8684 24.0281 78.2578 25.3257 77.3418 26.318L79.5554 28.5317C81.0821 27.005 81.998 24.8677 81.998 22.5778C81.998 20.2878 81.0821 18.1505 79.5554 16.6239Z" fill="#252A2E"/><rect x="106.746" y="16.166" width="348.836" height="12.213" rx="6.107" fill="#A3A6B1"/><rect x="106.746" y="16.166" width="183.196" height="12" rx="6" fill="#217CBB"/><circle cx="274.677" cy="22.166" r="14.503" fill="#fff" stroke="#004F83" stroke-width="1.527"/><path d="M486.055 22.5778C486.055 20.9748 484.757 19.6772 483.154 19.6772V8.3801L474.528 16.5476H469.796V21.8145V22.6541V28.0737H474.528L483.154 36.1649V25.4784C484.757 25.4784 486.055 24.1808 486.055 22.5778Z" fill="#252A2E"/><path d="M496.435 9.21982L494.222 11.4334C497.046 14.2577 498.802 18.227 498.802 22.5779C498.802 26.9288 497.046 30.8217 494.222 33.7223L496.435 35.936C499.87 32.501 502.008 27.7684 502.008 22.5779C502.008 17.3873 499.87 12.6547 496.435 9.21982Z" fill="#252A2E"/><path d="M492.771 12.8837L490.481 15.0973C492.39 17.0056 493.535 19.6009 493.535 22.5015C493.535 25.4021 492.39 28.0737 490.481 29.982L492.695 32.1956C495.138 29.753 496.741 26.3181 496.741 22.5015C496.741 18.6849 495.214 15.4026 492.771 12.8837Z" fill="#252A2E"/><path d="M489.031 16.6239L486.817 18.8375C487.733 19.8298 488.344 21.1275 488.344 22.5778C488.344 24.0281 487.733 25.3257 486.817 26.318L489.031 28.5317C490.558 27.005 491.474 24.8677 491.474 22.5778C491.474 20.2878 490.558 18.1505 489.031 16.6239Z" fill="#252A2E"/><path d="M528.98 28.2131H526.447V21.2761C526.447 21.0848 526.449 20.8498 526.455 20.571C526.46 20.2867 526.468 19.997 526.479 19.7018C526.49 19.4011 526.501 19.1305 526.512 18.89C526.452 18.9611 526.329 19.0841 526.143 19.259C525.963 19.4285 525.793 19.5815 525.635 19.7182L524.257 20.8252L523.035 19.3L526.898 16.2251H528.98V28.2131ZM540.64 22.2191C540.64 23.1867 540.564 24.0504 540.411 24.8102C540.263 25.5701 540.023 26.2151 539.689 26.7453C539.361 27.2756 538.929 27.6801 538.394 27.9589C537.858 28.2377 537.207 28.3771 536.442 28.3771C535.48 28.3771 534.69 28.1338 534.072 27.6473C533.455 27.1553 532.998 26.4502 532.703 25.5318C532.408 24.608 532.26 23.5037 532.26 22.2191C532.26 20.9235 532.394 19.8166 532.662 18.8982C532.935 17.9744 533.378 17.2665 533.99 16.7745C534.603 16.2825 535.42 16.0365 536.442 16.0365C537.399 16.0365 538.186 16.2825 538.804 16.7745C539.427 17.261 539.889 17.9662 540.189 18.89C540.49 19.8084 540.64 20.9181 540.64 22.2191ZM534.777 22.2191C534.777 23.132 534.827 23.8946 534.925 24.5068C535.029 25.1136 535.201 25.5701 535.442 25.8762C535.682 26.1823 536.016 26.3354 536.442 26.3354C536.863 26.3354 537.194 26.185 537.434 25.8844C537.68 25.5782 537.855 25.1218 537.959 24.515C538.063 23.9028 538.115 23.1375 538.115 22.2191C538.115 21.3062 538.063 20.5436 537.959 19.9314C537.855 19.3191 537.68 18.86 537.434 18.5538C537.194 18.2422 536.863 18.0865 536.442 18.0865C536.016 18.0865 535.682 18.2422 535.442 18.5538C535.201 18.86 535.029 19.3191 534.925 19.9314C534.827 20.5436 534.777 21.3062 534.777 22.2191ZM550.25 22.2191C550.25 23.1867 550.174 24.0504 550.021 24.8102C549.873 25.5701 549.633 26.2151 549.299 26.7453C548.971 27.2756 548.539 27.6801 548.004 27.9589C547.468 28.2377 546.817 28.3771 546.052 28.3771C545.09 28.3771 544.3 28.1338 543.682 27.6473C543.065 27.1553 542.608 26.4502 542.313 25.5318C542.018 24.608 541.87 23.5037 541.87 22.2191C541.87 20.9235 542.004 19.8166 542.272 18.8982C542.545 17.9744 542.988 17.2665 543.6 16.7745C544.213 16.2825 545.03 16.0365 546.052 16.0365C547.009 16.0365 547.796 16.2825 548.414 16.7745C549.037 17.261 549.499 17.9662 549.799 18.89C550.1 19.8084 550.25 20.9181 550.25 22.2191ZM544.388 22.2191C544.388 23.132 544.437 23.8946 544.535 24.5068C544.639 25.1136 544.811 25.5701 545.052 25.8762C545.292 26.1823 545.626 26.3354 546.052 26.3354C546.473 26.3354 546.804 26.185 547.044 25.8844C547.29 25.5782 547.465 25.1218 547.569 24.515C547.673 23.9028 547.725 23.1375 547.725 22.2191C547.725 21.3062 547.673 20.5436 547.569 19.9314C547.465 19.3191 547.29 18.86 547.044 18.5538C546.804 18.2422 546.473 18.0865 546.052 18.0865C545.626 18.0865 545.292 18.2422 545.052 18.5538C544.811 18.86 544.639 19.3191 544.535 19.9314C544.437 20.5436 544.388 21.3062 544.388 22.2191Z" fill="#252A2E"/></svg>