<svg fill="none" height="143" width="1088" xmlns="http://www.w3.org/2000/svg"><path d="m0 0h1088v142.333h-1088z" fill="#c4c4c4"/><path d="m1 0h99v142.333h-99z" fill="#c4c4c4"/><path d="m1 1h99v40h-99z" fill="#f1f1f6"/><path d="m18.157 23.225c0 .902-.326 1.613-.977 2.132-.647.52-1.55.78-2.707.78-1.067 0-2.01-.2-2.83-.602v-1.969c.674.301 1.244.513 1.709.636.469.123.897.185 1.285.185.465 0 .82-.09 1.066-.267.25-.178.376-.442.376-.793a.86.86 0 0 0 -.164-.52 1.79 1.79 0 0 0 -.485-.444c-.21-.141-.64-.367-1.292-.677-.611-.287-1.069-.562-1.374-.827a3.105 3.105 0 0 1 -.732-.923c-.182-.35-.273-.76-.273-1.23 0-.884.298-1.579.895-2.085.602-.506 1.431-.759 2.489-.759.52 0 1.014.062 1.483.185.474.123.968.296 1.483.52l-.683 1.647a9.891 9.891 0 0 0 -1.326-.458 4.215 4.215 0 0 0 -1.026-.13c-.4 0-.708.093-.923.28a.925.925 0 0 0 -.32.732c0 .186.042.35.129.492.086.137.223.271.41.403.192.128.64.36 1.347.697.934.447 1.574.896 1.92 1.347.347.447.52.996.52 1.648zm4.783 1.25c.365 0 .802-.08 1.313-.239v1.552c-.52.232-1.158.349-1.914.349-.834 0-1.442-.21-1.825-.63-.379-.423-.568-1.056-.568-1.9v-3.684h-.998v-.882l1.149-.697.601-1.614h1.333v1.627h2.14v1.566h-2.14v3.684c0 .297.082.515.246.657.169.14.39.212.663.212zm7.634 1.525-.403-1.04h-.055c-.35.443-.713.75-1.087.924-.369.168-.852.253-1.449.253-.734 0-1.313-.21-1.736-.63-.42-.419-.63-1.016-.63-1.79 0-.811.283-1.408.849-1.791.57-.388 1.426-.602 2.57-.643l1.326-.04v-.336c0-.774-.396-1.162-1.19-1.162-.61 0-1.328.185-2.153.554l-.69-1.408c.88-.46 1.855-.69 2.926-.69 1.025 0 1.811.223 2.358.67.547.446.82 1.125.82 2.036v5.093zm-.615-3.541-.807.027c-.606.019-1.057.128-1.353.328-.296.201-.444.506-.444.916 0 .588.337.882 1.011.882.483 0 .868-.139 1.155-.417.292-.278.438-.647.438-1.107zm7.36 2.017c.365 0 .802-.08 1.313-.24v1.552c-.52.232-1.158.349-1.914.349-.834 0-1.443-.21-1.826-.63-.378-.423-.567-1.056-.567-1.9v-3.684h-.998v-.882l1.148-.697.602-1.614h1.333v1.627h2.14v1.566h-2.14v3.684c0 .297.082.515.246.657.169.14.39.212.663.212zm5.946-4.779c-.443 0-.789.142-1.04.424-.25.278-.394.675-.43 1.19h2.926c-.01-.515-.144-.912-.404-1.19-.26-.282-.61-.424-1.052-.424zm.294 6.44c-1.23 0-2.192-.34-2.885-1.019s-1.04-1.64-1.04-2.885c0-1.28.32-2.27.958-2.966.642-.702 1.529-1.053 2.659-1.053 1.08 0 1.92.308 2.522.923s.903 1.465.903 2.55v1.011h-4.929c.023.593.198 1.055.526 1.388s.789.499 1.381.499c.46 0 .896-.048 1.306-.144.41-.095.838-.248 1.285-.458v1.614a4.792 4.792 0 0 1 -1.169.403c-.415.091-.92.137-1.517.137z" fill="#464b52"/><path d="m1 42h99v99.333h-99z" fill="#fff"/><path d="m20.55 91.574c0 1.645-.47 2.905-1.408 3.78-.935.875-2.286 1.313-4.054 1.313h-2.83v-9.995h3.138c1.631 0 2.898.431 3.8 1.293.903.86 1.354 2.064 1.354 3.609zm-2.201.055c0-2.147-.948-3.22-2.844-3.22h-1.128v6.508h.91c2.04 0 3.062-1.096 3.062-3.288zm7.19-1.265c-.443 0-.79.141-1.04.424-.25.278-.394.674-.43 1.19h2.925c-.009-.516-.143-.912-.403-1.19-.26-.283-.61-.424-1.053-.424zm.293 6.44c-1.23 0-2.192-.34-2.885-1.02-.692-.678-1.039-1.64-1.039-2.884 0-1.28.32-2.27.957-2.967.643-.702 1.53-1.053 2.66-1.053 1.08 0 1.92.308 2.522.923.601.616.902 1.466.902 2.55v1.012h-4.929c.023.592.199 1.055.527 1.388.328.332.788.499 1.38.499.461 0 .896-.048 1.306-.144s.839-.248 1.285-.458v1.613a4.79 4.79 0 0 1 -1.168.404c-.415.09-.921.136-1.518.136zm8.953-6.215h-1.805v6.078h-2.084v-6.078h-1.149v-1.004l1.148-.56v-.562c0-.87.215-1.506.643-1.907.428-.4 1.114-.601 2.058-.601.72 0 1.36.107 1.92.321l-.533 1.531a3.886 3.886 0 0 0 -1.162-.198c-.296 0-.51.089-.642.267-.133.173-.199.396-.199.67v.478h1.805v1.566zm5.973 6.078-.404-1.04h-.054c-.351.443-.713.75-1.087.923-.37.17-.852.253-1.45.253-.733 0-1.312-.21-1.736-.629-.419-.419-.629-1.016-.629-1.79 0-.812.283-1.409.848-1.792.57-.387 1.426-.601 2.57-.642l1.326-.041v-.335c0-.775-.396-1.162-1.189-1.162-.61 0-1.328.184-2.153.553l-.69-1.408c.879-.46 1.854-.69 2.925-.69 1.026 0 1.812.223 2.359.67.546.446.82 1.125.82 2.037v5.093zm-.616-3.541-.806.027c-.606.018-1.057.128-1.354.328-.296.2-.444.506-.444.916 0 .588.337.882 1.012.882.483 0 .868-.139 1.155-.417.292-.278.438-.647.438-1.108v-.628zm9.555 3.54-.28-.977h-.11c-.223.356-.54.631-.95.827-.41.192-.877.287-1.401.287-.898 0-1.575-.239-2.03-.717-.456-.483-.684-1.176-.684-2.079v-4.983h2.085v4.464c0 .551.098.966.294 1.244.196.273.508.41.937.41.583 0 1.004-.193 1.264-.58.26-.393.39-1.04.39-1.942v-3.596h2.085v7.643h-1.6zm5.788 0h-2.085v-10.636h2.085v10.637zm5.33-1.524c.365 0 .802-.08 1.313-.239v1.552c-.52.232-1.158.348-1.914.348-.834 0-1.443-.21-1.825-.629-.379-.423-.568-1.057-.568-1.9v-3.684h-.998v-.882l1.149-.698.601-1.613h1.333v1.627h2.14v1.566h-2.14v3.684c0 .296.082.515.246.656.169.142.39.212.663.212z" fill="#000"/><path d="m101 1h760v40h-760z" fill="#f1f1f6"/><path d="m118.014 26h-5.756v-9.994h5.756v1.736h-3.637v2.194h3.384v1.737h-3.384v2.577h3.637zm3.409-3.903-2.461-3.74h2.365l1.484 2.434 1.497-2.434h2.365l-2.488 3.74 2.604 3.903h-2.372l-1.606-2.618-1.614 2.618h-2.365zm11.298 3.903-.404-1.04h-.054c-.351.443-.714.75-1.087.924-.369.168-.852.253-1.449.253-.734 0-1.313-.21-1.737-.63-.419-.419-.629-1.016-.629-1.79 0-.811.283-1.408.848-1.791.57-.388 1.426-.602 2.57-.643l1.326-.04v-.336c0-.774-.396-1.162-1.189-1.162-.611 0-1.328.185-2.153.554l-.691-1.408c.88-.46 1.855-.69 2.926-.69 1.025 0 1.812.223 2.358.67.547.446.821 1.125.821 2.036v5.093zm-.616-3.541-.806.027c-.606.019-1.057.128-1.354.328-.296.201-.444.506-.444.916 0 .588.337.882 1.012.882.483 0 .868-.139 1.155-.417.292-.278.437-.647.437-1.107zm10.984 3.541h-2.085v-4.464c0-.551-.094-.964-.28-1.237-.183-.278-.472-.417-.869-.417-.533 0-.92.196-1.162.588-.241.392-.362 1.037-.362 1.934v3.596h-2.085v-7.643h1.593l.28.978h.116a2.1 2.1 0 0 1 .889-.82c.387-.2.832-.301 1.333-.301 1.144 0 1.919.374 2.324 1.121h.185a2.07 2.07 0 0 1 .902-.827 3.042 3.042 0 0 1 1.354-.294c.866 0 1.519.223 1.962.67.446.442.669 1.153.669 2.133v4.983h-2.091v-4.464c0-.551-.094-.964-.281-1.237-.182-.278-.471-.417-.868-.417-.51 0-.893.182-1.148.547-.251.364-.376.943-.376 1.736zm11.024.137c-.898 0-1.602-.326-2.112-.978h-.109c.072.638.109 1.007.109 1.108v3.096h-2.085v-11.006h1.695l.294.992h.096c.488-.757 1.21-1.135 2.167-1.135.902 0 1.609.349 2.119 1.046s.766 1.665.766 2.905c0 .816-.121 1.524-.363 2.126-.237.602-.576 1.06-1.018 1.374-.442.315-.962.472-1.559.472zm-.615-6.255c-.515 0-.891.16-1.128.478-.237.315-.36.837-.369 1.566v.225c0 .82.121 1.409.362 1.764.246.355.634.533 1.162.533.935 0 1.402-.77 1.402-2.31 0-.752-.117-1.315-.349-1.689-.228-.378-.588-.567-1.08-.567zm7.278 6.118h-2.085v-10.637h2.085zm5.276-6.303c-.442 0-.789.142-1.039.424-.251.278-.395.675-.431 1.19h2.926c-.009-.515-.144-.912-.404-1.19-.259-.282-.61-.424-1.052-.424zm.294 6.44c-1.231 0-2.192-.34-2.885-1.019s-1.039-1.64-1.039-2.885c0-1.28.319-2.27.957-2.966.642-.702 1.529-1.053 2.659-1.053 1.08 0 1.921.308 2.522.923.602.615.903 1.465.903 2.55v1.011h-4.929c.023.593.198 1.055.526 1.388.329.333.789.499 1.381.499a5.73 5.73 0 0 0 1.306-.144c.41-.095.839-.248 1.285-.458v1.614a4.779 4.779 0 0 1 -1.169.403c-.415.091-.92.137-1.517.137z" fill="#464b52"/><path d="m101 42h760v99.333h-760z" fill="#fff"/><path d="m120.507 82.372c0 1.418-.352 2.507-1.055 3.27-.703.761-1.711 1.142-3.023 1.142-1.313 0-2.321-.381-3.024-1.143s-1.054-1.855-1.054-3.281.351-2.514 1.054-3.264c.707-.754 1.719-1.13 3.035-1.13 1.317 0 2.323.378 3.018 1.136.699.758 1.049 1.848 1.049 3.27zm-6.252 0c0 .957.182 1.677.545 2.162.363.484.906.726 1.629.726 1.449 0 2.174-.963 2.174-2.888 0-1.93-.721-2.895-2.163-2.895-.722 0-1.267.244-1.634.733-.368.484-.551 1.205-.551 2.162zm12.455 4.295-.24-.838h-.094a1.904 1.904 0 0 1 -.814.709 2.811 2.811 0 0 1 -1.201.246c-.77 0-1.35-.205-1.741-.615-.39-.415-.586-1.008-.586-1.782v-4.271h1.788v3.826c0 .473.084.828.252 1.067.167.234.435.351.802.351.5 0 .862-.166 1.084-.498.223-.336.334-.89.334-1.664v-3.082h1.787v6.55h-1.371zm5.934-1.307c.313 0 .688-.068 1.125-.205v1.33c-.445.2-.992.299-1.641.299-.714 0-1.236-.18-1.564-.54-.324-.362-.486-.906-.486-1.628v-3.158h-.856v-.756l.985-.598.515-1.383h1.143v1.395h1.834v1.342h-1.834v3.158c0 .254.07.441.211.562.144.121.334.182.568.182zm4.17 1.307h-1.787v-9.118h1.787zm1.733-8.245c0-.581.324-.873.973-.873.648 0 .972.291.972.873 0 .278-.082.495-.246.65-.16.153-.402.23-.726.23-.649 0-.973-.294-.973-.88zm1.863 8.245h-1.787v-6.551h1.787v6.55zm7.856 0h-1.787v-3.827c0-.473-.084-.827-.252-1.061-.168-.238-.436-.358-.803-.358-.5 0-.861.169-1.084.504-.222.332-.334.885-.334 1.659v3.082h-1.787v-6.551h1.365l.241.838h.099c.199-.317.473-.555.82-.715.352-.164.75-.246 1.196-.246.762 0 1.34.207 1.734.62.395.411.592 1.005.592 1.782v4.272zm4.481-5.403c-.379 0-.676.121-.891.364-.215.238-.338.578-.369 1.02h2.508c-.008-.442-.123-.782-.346-1.02-.223-.243-.523-.364-.902-.364zm.252 5.52c-1.055 0-1.879-.291-2.473-.873s-.891-1.407-.891-2.473c0-1.097.274-1.945.821-2.543.55-.601 1.31-.902 2.279-.902.926 0 1.646.264 2.162.79.516.528.774 1.257.774 2.186v.868h-4.225c.019.507.17.904.451 1.189s.676.428 1.184.428c.394 0 .767-.041 1.119-.123a5.587 5.587 0 0 0 1.101-.393v1.383a4.098 4.098 0 0 1 -1.002.346 6.16 6.16 0 0 1 -1.3.117zm12.377-.117h-5.631v-.838l2.256-2.268c.688-.695 1.141-1.191 1.36-1.488.218-.297.382-.586.492-.867.109-.282.164-.584.164-.909 0-.456-.139-.818-.416-1.084-.278-.269-.662-.404-1.155-.404-.355 0-.693.059-1.013.176-.317.117-.67.33-1.061.639l-.515-.662c.789-.657 1.648-.985 2.578-.985.804 0 1.435.207 1.892.621.457.41.686.963.686 1.659 0 .542-.152 1.08-.457 1.61-.305.532-.875 1.204-1.711 2.016l-1.875 1.834v.047h4.406zm5.981-.862h-.053c-.449.653-1.121.979-2.015.979-.84 0-1.495-.287-1.963-.862-.465-.574-.698-1.39-.698-2.449 0-1.058.235-1.88.703-2.466.469-.586 1.122-.88 1.958-.88.871 0 1.539.317 2.003.95h.077l-.041-.463-.024-.451v-2.614h.973v9.118h-.791zm-1.945.164c.664 0 1.144-.18 1.441-.539.301-.363.451-.947.451-1.752v-.205c0-.91-.152-1.558-.457-1.945-.301-.39-.783-.586-1.447-.586-.57 0-1.008.223-1.313.668-.3.441-.451 1.066-.451 1.875 0 .82.151 1.44.451 1.857.301.418.743.627 1.325.627zm7.849.815c-.418 0-.8-.076-1.148-.229a2.177 2.177 0 0 1 -.867-.715h-.07c.046.376.07.731.07 1.067v2.642h-.973v-9.304h.791l.135.879h.047c.25-.352.541-.606.873-.762a2.653 2.653 0 0 1 1.142-.234c.852 0 1.508.29 1.969.873.465.582.697 1.398.697 2.449 0 1.054-.236 1.875-.709 2.46-.468.583-1.121.874-1.957.874zm-.14-5.83c-.656 0-1.131.181-1.424.545-.293.363-.443.941-.451 1.734v.217c0 .902.15 1.549.451 1.94.301.386.783.58 1.447.58.555 0 .989-.225 1.301-.674.316-.45.475-1.069.475-1.858 0-.8-.159-1.414-.475-1.84-.312-.43-.754-.644-1.324-.644zm-64.39 17.146h2.666c1.215 0 2.096.174 2.643.522.551.344.826.892.826 1.646 0 .512-.121.932-.363 1.26a1.432 1.432 0 0 1 -.955.592v.058c.543.121.933.348 1.172.68.242.332.363.774.363 1.324 0 .782-.283 1.391-.85 1.828-.562.438-1.328.657-2.296.657h-3.206zm1.817 3.393h1.055c.492 0 .847-.076 1.066-.229.223-.152.334-.404.334-.756 0-.328-.121-.562-.363-.703-.239-.144-.618-.217-1.137-.217h-.955zm0 1.441v2.233h1.183c.5 0 .87-.096 1.108-.287.238-.192.357-.485.357-.879 0-.711-.508-1.067-1.523-1.067zm7.457.446c0 .648.106 1.138.317 1.47.214.332.562.498 1.043.498.476 0 .818-.164 1.025-.492.211-.332.316-.824.316-1.476 0-.649-.105-1.135-.316-1.459-.211-.325-.557-.487-1.037-.487-.477 0-.821.162-1.031.487-.211.32-.317.806-.317 1.459zm4.529 0c0 1.066-.281 1.9-.843 2.502-.563.601-1.346.902-2.35.902-.629 0-1.184-.137-1.664-.41a2.767 2.767 0 0 1 -1.107-1.19c-.258-.515-.387-1.117-.387-1.804 0-1.071.279-1.903.838-2.497.558-.593 1.344-.89 2.355-.89.629 0 1.184.137 1.664.41.481.273.85.666 1.108 1.178.258.511.386 1.111.386 1.799zm5.061-3.387c.242 0 .444.017.604.053l-.135 1.675a2.052 2.052 0 0 0 -.527-.058c-.571 0-1.016.146-1.336.439-.317.293-.475.703-.475 1.231v3.334h-1.787v-6.551h1.354l.263 1.101h.088c.203-.367.477-.662.82-.884a2.03 2.03 0 0 1 1.131-.34zm3.795 6.791c-.769 0-1.375-.299-1.816-.897-.437-.597-.656-1.425-.656-2.484 0-1.074.222-1.91.668-2.508.449-.601 1.066-.902 1.851-.902.825 0 1.453.32 1.887.961h.059a7.302 7.302 0 0 1 -.135-1.307v-2.097h1.793v9.118h-1.371l-.346-.85h-.076c-.406.645-1.026.967-1.858.967zm.627-1.424c.457 0 .791-.133 1.002-.398.215-.266.332-.717.352-1.354v-.193c0-.703-.109-1.207-.328-1.512-.215-.305-.567-.457-1.055-.457-.398 0-.709.17-.932.51-.218.336-.328.826-.328 1.47 0 .645.112 1.129.334 1.454.223.32.541.48.955.48zm7.534-4.096c-.379 0-.676.121-.891.364-.215.238-.338.578-.369 1.019h2.508c-.008-.441-.123-.781-.346-1.019-.222-.243-.523-.364-.902-.364zm.252 5.52c-1.055 0-1.879-.291-2.473-.873s-.89-1.406-.89-2.473c0-1.098.273-1.945.82-2.543.551-.601 1.31-.902 2.279-.902.926 0 1.647.264 2.162.791.516.527.774 1.256.774 2.185v.868h-4.225c.02.507.17.904.451 1.189.282.285.676.428 1.184.428a4.92 4.92 0 0 0 1.119-.123 5.578 5.578 0 0 0 1.102-.393v1.383a4.166 4.166 0 0 1 -1.002.346 6.178 6.178 0 0 1 -1.301.117zm7.709-6.791c.242 0 .443.017.604.053l-.135 1.675a2.055 2.055 0 0 0 -.528-.058c-.57 0-1.015.146-1.335.439-.317.293-.475.703-.475 1.231v3.334h-1.787v-6.551h1.353l.264 1.101h.088c.203-.367.476-.662.82-.884a2.03 2.03 0 0 1 1.131-.34zm1.141 4.189v-1.465h3.146v1.465zm8.031-4.19c.243 0 .444.018.604.054l-.135 1.675a2.047 2.047 0 0 0 -.527-.058c-.57 0-1.016.146-1.336.439-.316.293-.475.703-.475 1.231v3.334h-1.787v-6.551h1.354l.263 1.101h.088a2.44 2.44 0 0 1 .821-.884c.347-.227.724-.34 1.13-.34zm5.882 6.675-.346-.891h-.047c-.301.379-.611.643-.932.791-.316.145-.73.217-1.242.217-.629 0-1.125-.18-1.488-.539-.359-.36-.539-.871-.539-1.535 0-.696.242-1.207.726-1.536.489-.332 1.223-.515 2.204-.55l1.136-.035v-.288c0-.664-.34-.996-1.019-.996-.524 0-1.139.159-1.846.475l-.592-1.207c.754-.395 1.59-.592 2.508-.592.879 0 1.553.192 2.022.574.468.383.703.965.703 1.746v4.366zm-.528-3.035-.691.023c-.52.016-.906.109-1.16.281s-.381.434-.381.785c0 .504.289.756.867.756.414 0 .744-.119.99-.357.25-.238.375-.555.375-.949zm5.624 3.152c-.77 0-1.375-.299-1.817-.897-.437-.597-.656-1.425-.656-2.484 0-1.074.223-1.91.668-2.508.449-.601 1.066-.902 1.851-.902.825 0 1.454.32 1.887.961h.059a7.302 7.302 0 0 1 -.135-1.307v-2.097h1.793v9.118h-1.371l-.346-.85h-.076c-.406.645-1.025.967-1.857.967zm.627-1.424c.457 0 .791-.133 1.001-.398.215-.266.333-.717.352-1.354v-.193c0-.703-.109-1.207-.328-1.512-.215-.305-.566-.457-1.055-.457-.398 0-.709.17-.931.51-.219.336-.329.826-.329 1.47 0 .645.112 1.129.334 1.454.223.32.541.48.956.48zm4.744-6.938c0-.581.324-.873.973-.873.648 0 .972.291.972.873 0 .278-.082.495-.246.65-.16.153-.402.23-.726.23-.649 0-.973-.294-.973-.88zm1.863 8.245h-1.787v-6.551h1.787zm6.45 0-.241-.838h-.093a1.912 1.912 0 0 1 -.815.709 2.808 2.808 0 0 1 -1.201.246c-.769 0-1.35-.205-1.74-.615-.391-.414-.586-1.008-.586-1.782v-4.271h1.787v3.826c0 .473.084.828.252 1.066.168.235.436.352.803.352.5 0 .861-.166 1.084-.498.222-.336.334-.891.334-1.664v-3.082h1.787v6.551zm7.744-1.946c0 .672-.234 1.184-.703 1.536-.465.351-1.162.527-2.092.527-.476 0-.883-.033-1.219-.1a4.454 4.454 0 0 1 -.943-.281v-1.477c.332.157.705.288 1.119.393a4.6 4.6 0 0 0 1.102.158c.648 0 .972-.187.972-.562a.462.462 0 0 0 -.128-.34c-.086-.09-.235-.19-.446-.299a10.61 10.61 0 0 0 -.844-.393c-.503-.21-.875-.406-1.113-.585a1.693 1.693 0 0 1 -.515-.616c-.106-.234-.159-.521-.159-.861 0-.582.225-1.031.674-1.348.453-.32 1.094-.48 1.922-.48.789 0 1.557.172 2.303.515l-.539 1.29a9.865 9.865 0 0 0 -.92-.346 2.882 2.882 0 0 0 -.873-.135c-.528 0-.791.143-.791.428 0 .16.084.299.252.416.172.117.545.291 1.119.521.512.207.887.401 1.125.58.238.18.414.387.527.621.113.235.17.514.17.838zm1.071 1.108c0-.328.088-.576.263-.744.176-.168.432-.252.768-.252.324 0 .574.086.75.257.18.172.269.418.269.739 0 .308-.089.553-.269.732-.18.176-.43.264-.75.264-.328 0-.582-.086-.762-.258-.179-.176-.269-.422-.269-.738zm0-4.84c0-.328.088-.576.263-.744.176-.168.432-.252.768-.252.324 0 .574.086.75.258.18.172.269.418.269.738 0 .316-.091.562-.275.738-.18.172-.428.258-.744.258-.328 0-.582-.086-.762-.258-.179-.172-.269-.418-.269-.738zm9.899 5.678h-.95v-6.106c0-.508.016-.988.047-1.441a6.476 6.476 0 0 1 -.275.258c-.102.09-.566.47-1.395 1.142l-.515-.668 2.267-1.752h.821zm3.291-3.662c0-1.684.326-2.942.978-3.774.657-.836 1.625-1.254 2.907-1.254.441 0 .789.037 1.043.111v.838a3.343 3.343 0 0 0 -1.032-.146c-.918 0-1.619.287-2.103.861-.484.571-.75 1.469-.797 2.696h.07c.43-.672 1.11-1.008 2.039-1.008.77 0 1.375.232 1.817.697.445.465.668 1.096.668 1.893 0 .89-.244 1.591-.733 2.103-.484.508-1.14.762-1.968.762-.887 0-1.59-.332-2.11-.996-.519-.668-.779-1.596-.779-2.783zm2.877 2.953c.555 0 .984-.174 1.289-.522.309-.351.463-.857.463-1.517 0-.567-.143-1.012-.428-1.336-.285-.325-.711-.487-1.277-.487-.352 0-.674.073-.967.217a1.817 1.817 0 0 0 -.703.598 1.39 1.39 0 0 0 -.258.791c0 .402.078.777.234 1.125.157.347.377.623.663.826.289.203.617.305.984.305zm8.635-.153h-.053c-.449.653-1.121.979-2.015.979-.84 0-1.495-.287-1.963-.861-.465-.575-.698-1.391-.698-2.45 0-1.058.235-1.881.704-2.466.468-.586 1.121-.879 1.957-.879.871 0 1.539.316 2.003.949h.077l-.041-.463-.024-.451v-2.614h.973v9.118h-.791zm-1.945.164c.664 0 1.144-.179 1.441-.539.301-.363.451-.947.451-1.752v-.205c0-.91-.152-1.558-.457-1.945-.301-.391-.783-.586-1.447-.586-.57 0-1.008.223-1.313.668-.3.441-.451 1.066-.451 1.875 0 .82.151 1.439.451 1.857.301.418.743.627 1.325.627zm7.849.815c-.417 0-.8-.076-1.148-.229a2.17 2.17 0 0 1 -.867-.715h-.07c.046.375.07.731.07 1.067v2.642h-.973v-9.304h.791l.135.879h.047c.25-.352.541-.606.873-.762a2.657 2.657 0 0 1 1.142-.234c.852 0 1.508.291 1.969.873.465.582.697 1.398.697 2.449 0 1.055-.236 1.875-.708 2.461-.469.582-1.122.873-1.958.873zm-.14-5.83c-.656 0-1.131.181-1.424.545-.293.363-.443.941-.451 1.734v.217c0 .902.15 1.549.451 1.939.301.387.783.58 1.447.58.555 0 .989-.224 1.301-.673.316-.45.475-1.069.475-1.858 0-.801-.159-1.414-.475-1.84-.312-.429-.754-.644-1.324-.644z" fill="#000"/><path d="m100.925 118.667v-54h134.412v10.485l6.996 7.864-6.996 7.34v28.311z" stroke="#ccc"/><path d="m304.286 112.833v-15.705h1.826v14.051h6.929v1.654zm18.181 0-.354-1.676h-.086c-.588.738-1.175 1.239-1.762 1.504-.58.258-1.307.387-2.181.387-1.167 0-2.084-.301-2.75-.902-.659-.602-.988-1.458-.988-2.568 0-2.377 1.901-3.623 5.704-3.738l1.998-.064v-.731c0-.924-.2-1.604-.601-2.041-.394-.444-1.028-.666-1.902-.666-.981 0-2.091.301-3.33.902l-.548-1.364a8.399 8.399 0 0 1 1.902-.741 8.317 8.317 0 0 1 2.084-.269c1.403 0 2.442.312 3.115.935.68.623 1.02 1.622 1.02 2.997v8.035zm-4.028-1.257c1.11 0 1.98-.304 2.61-.913.638-.608.956-1.461.956-2.556v-1.064l-1.783.075c-1.418.051-2.442.273-3.072.666-.623.387-.935.992-.935 1.816 0 .644.194 1.135.58 1.472.394.336.942.504 1.644.504zm14.293-10.71c1.546 0 2.746.53 3.598 1.59.86 1.053 1.289 2.546 1.289 4.48 0 1.933-.433 3.437-1.3 4.512-.859 1.067-2.055 1.6-3.587 1.6-.767 0-1.469-.14-2.106-.419a4.002 4.002 0 0 1 -1.59-1.31h-.129l-.376 1.514h-1.278v-16.715h1.783v4.061c0 .909-.028 1.726-.086 2.449h.086c.831-1.174 2.063-1.762 3.696-1.762zm-.258 1.494c-1.218 0-2.095.351-2.632 1.052-.537.695-.806 1.869-.806 3.524 0 1.654.276 2.839.827 3.555.552.709 1.436 1.064 2.654 1.064 1.095 0 1.912-.398 2.449-1.192.537-.803.806-1.952.806-3.449 0-1.532-.269-2.674-.806-3.426s-1.368-1.128-2.492-1.128zm13.025 10.688c-1.74 0-3.115-.53-4.125-1.59-1.003-1.06-1.504-2.531-1.504-4.415 0-1.898.465-3.405 1.396-4.522.939-1.117 2.195-1.676 3.771-1.676 1.475 0 2.642.487 3.502 1.461.859.967 1.289 2.245 1.289 3.835v1.128h-8.11c.035 1.382.383 2.431 1.042 3.147.666.716 1.6 1.074 2.803 1.074 1.268 0 2.521-.264 3.76-.794v1.589a9.012 9.012 0 0 1 -1.794.58c-.559.122-1.235.183-2.03.183zm-.484-10.71c-.945 0-1.7.308-2.266.924-.559.616-.888 1.468-.988 2.557h6.155c0-1.125-.251-1.984-.752-2.579-.501-.601-1.218-.902-2.149-.902zm9.427 10.495h-1.783v-16.715h1.783z" fill="#252a2e"/><rect fill="#cbcdd6" height="15" rx="7.5" width="293" x="378.575" y="94.5"/><rect fill="#217cbb" height="14" rx="7" width="181" x="379.075" y="95"/><rect height="14" rx="7" stroke="#004f83" stroke-width="2" width="181" x="379.075" y="95"/><rect height="15" rx="7.5" stroke="#353a40" width="293" x="378.575" y="94.5"/><path d="m699.31 111h-3.319v-9.088l.032-1.493.054-1.633c-.552.552-.935.913-1.15 1.085l-1.804 1.45-1.601-1.998 5.06-4.028h2.728zm15.254-7.853c0 2.743-.451 4.774-1.354 6.091-.895 1.318-2.277 1.977-4.146 1.977-1.812 0-3.18-.68-4.104-2.041-.916-1.361-1.375-3.37-1.375-6.027 0-2.771.448-4.812 1.343-6.123.895-1.317 2.274-1.976 4.136-1.976 1.812 0 3.18.687 4.103 2.062.931 1.375 1.397 3.388 1.397 6.037zm-7.681 0c0 1.927.165 3.309.494 4.147.337.831.899 1.246 1.687 1.246.773 0 1.332-.422 1.676-1.268.343-.845.515-2.22.515-4.125 0-1.926-.175-3.308-.526-4.146-.344-.845-.899-1.268-1.665-1.268-.781 0-1.339.423-1.676 1.268-.336.838-.505 2.22-.505 4.146zm20.249 0c0 2.743-.451 4.774-1.353 6.091-.895 1.318-2.278 1.977-4.147 1.977-1.812 0-3.179-.68-4.103-2.041-.917-1.361-1.375-3.37-1.375-6.027 0-2.771.447-4.812 1.343-6.123.895-1.317 2.273-1.976 4.135-1.976 1.812 0 3.18.687 4.104 2.062.931 1.375 1.396 3.388 1.396 6.037zm-7.68 0c0 1.927.164 3.309.494 4.147.336.831.899 1.246 1.686 1.246.774 0 1.332-.422 1.676-1.268.344-.845.516-2.22.516-4.125 0-1.926-.176-3.308-.527-4.146-.343-.845-.898-1.268-1.665-1.268-.78 0-1.339.423-1.675 1.268-.337.838-.505 2.22-.505 4.146z" fill="#252a2e"/><circle cx="545.075" cy="102" fill="#fff" r="19" stroke="#004f83" stroke-width="2"/><rect fill="#cbcdd6" height="15" rx="7.5" width="293" x="378.575" y="94.5"/><rect fill="#217cbb" height="14" rx="7" width="181" x="379.075" y="95"/><rect height="14" rx="7" stroke="#004f83" stroke-width="2" width="181" x="379.075" y="95"/><rect height="15" rx="7.5" stroke="#353a40" width="293" x="378.575" y="94.5"/><circle cx="545.075" cy="102" fill="#fff" r="19" stroke="#004f83" stroke-width="2"/><rect fill="#cbcdd6" height="15" rx="7.5" width="293" x="378.575" y="94.5"/><rect fill="#217cbb" height="14" rx="7" width="181" x="379.075" y="95"/><rect height="14" rx="7" stroke="#004f83" stroke-width="2" width="181" x="379.075" y="95"/><rect height="15" rx="7.5" stroke="#353a40" width="293" x="378.575" y="94.5"/><circle cx="545.075" cy="102" fill="#fff" r="19" stroke="#004f83" stroke-width="2"/><path d="m357.518 76.833h20v49h-20zm315.45 2h20v49h-20z" fill="#f0f" fill-opacity=".2"/><circle cx="545.333" cy="102" fill="#fff" r="19" stroke="#0e416c" stroke-width="2"/><path d="m673.953 69.5h-6.57v-.978l2.632-2.645c.802-.811 1.331-1.39 1.586-1.736.255-.347.447-.684.574-1.012a2.89 2.89 0 0 0 .192-1.06c0-.533-.162-.954-.486-1.264-.323-.315-.772-.472-1.346-.472-.415 0-.809.068-1.183.205-.369.137-.781.385-1.237.745l-.602-.772c.921-.766 1.923-1.149 3.008-1.149.939 0 1.675.242 2.208.725.533.478.8 1.123.8 1.934 0 .634-.178 1.26-.533 1.88-.356.62-1.021 1.404-1.996 2.352l-2.188 2.14v.054h5.141zm7.982-5.01c0 1.726-.273 3.016-.82 3.868-.543.853-1.374 1.279-2.495 1.279-1.076 0-1.894-.436-2.454-1.306-.561-.875-.841-2.156-.841-3.842 0-1.74.271-3.033.813-3.876.543-.843 1.37-1.264 2.482-1.264 1.084 0 1.907.44 2.467 1.319.566.88.848 2.153.848 3.821zm-5.462 0c0 1.453.171 2.513.513 3.178.342.66.886.991 1.634.991.756 0 1.303-.335 1.64-1.005.342-.674.513-1.73.513-3.165s-.171-2.486-.513-3.151c-.337-.67-.884-1.005-1.64-1.005-.748 0-1.292.33-1.634.991-.342.656-.513 1.712-.513 3.165zm12.385 4.005h-.062c-.524.761-1.308 1.142-2.351 1.142-.98 0-1.743-.335-2.29-1.005-.543-.67-.814-1.623-.814-2.858s.274-2.194.821-2.877c.547-.684 1.308-1.026 2.283-1.026 1.016 0 1.795.37 2.338 1.107h.089l-.048-.54-.028-.526v-3.049h1.135v10.637h-.923zm-2.27.191c.775 0 1.336-.21 1.682-.628.351-.424.526-1.106.526-2.044v-.24c0-1.061-.177-1.818-.533-2.27-.351-.455-.914-.683-1.688-.683-.666 0-1.176.26-1.532.78-.35.514-.526 1.244-.526 2.187 0 .957.176 1.68.526 2.167.351.488.866.731 1.545.731zm9.159.95a3.3 3.3 0 0 1 -1.34-.266 2.545 2.545 0 0 1 -1.012-.834h-.082c.055.438.082.852.082 1.244v3.083h-1.135v-10.855h.923l.157 1.025h.055c.292-.41.631-.706 1.019-.889.387-.182.831-.273 1.333-.273.993 0 1.759.34 2.296 1.019.543.679.814 1.631.814 2.857 0 1.23-.276 2.188-.827 2.871-.547.68-1.308 1.019-2.283 1.019zm-.164-6.801c-.766 0-1.32.212-1.662.636-.341.424-.517 1.098-.526 2.023v.253c0 1.053.175 1.807.526 2.263.351.45.914.676 1.689.676.647 0 1.153-.262 1.517-.786.37-.524.554-1.246.554-2.167 0-.934-.184-1.65-.554-2.146-.364-.501-.879-.752-1.544-.752zm-335.941 5.498h-6.569v-.977l2.632-2.646c.802-.81 1.33-1.39 1.586-1.736.255-.346.446-.684.574-1.012a2.91 2.91 0 0 0 .191-1.06c0-.532-.162-.954-.485-1.264-.324-.314-.773-.472-1.347-.472-.415 0-.809.069-1.182.205-.37.137-.782.386-1.238.745l-.601-.772c.92-.766 1.923-1.148 3.007-1.148.939 0 1.675.241 2.209.724.533.479.799 1.124.799 1.935 0 .633-.177 1.26-.533 1.88-.355.62-1.021 1.403-1.996 2.351l-2.187 2.14v.055h5.14zm7.983-5.01c0 1.727-.274 3.017-.821 3.869-.542.852-1.374 1.278-2.495 1.278-1.075 0-1.893-.435-2.454-1.306-.561-.875-.841-2.155-.841-3.841 0-1.741.271-3.033.814-3.876.542-.844 1.369-1.265 2.481-1.265 1.085 0 1.907.44 2.468 1.32.565.879.848 2.153.848 3.82zm-5.462 0c0 1.453.171 2.513.512 3.178.342.661.887.992 1.634.992.757 0 1.303-.335 1.641-1.005.342-.675.512-1.73.512-3.165 0-1.436-.17-2.486-.512-3.152-.338-.67-.884-1.005-1.641-1.005-.747 0-1.292.33-1.634.992-.341.656-.512 1.71-.512 3.165zm12.384 4.006h-.061c-.524.76-1.308 1.141-2.352 1.141-.98 0-1.743-.335-2.29-1.005-.542-.67-.813-1.622-.813-2.857s.273-2.195.82-2.878c.547-.684 1.308-1.026 2.283-1.026 1.017 0 1.796.37 2.338 1.108h.089l-.048-.54-.027-.526v-3.05h1.135v10.637h-.923zm-2.269.19c.775 0 1.335-.209 1.681-.628.351-.424.527-1.105.527-2.044v-.24c0-1.061-.178-1.818-.533-2.269-.351-.456-.914-.683-1.689-.683-.665 0-1.176.26-1.531.779-.351.515-.526 1.244-.526 2.187 0 .958.175 1.68.526 2.167.351.488.866.732 1.545.732zm9.158.951c-.488 0-.934-.089-1.34-.266a2.551 2.551 0 0 1 -1.012-.834h-.082c.055.437.082.852.082 1.244v3.083h-1.134v-10.857h.923l.157 1.026h.054c.292-.41.632-.707 1.019-.89.387-.181.832-.273 1.333-.273.994 0 1.759.34 2.297 1.019.542.679.813 1.632.813 2.857 0 1.23-.275 2.188-.827 2.871-.547.68-1.308 1.02-2.283 1.02zm-.164-6.802c-.766 0-1.319.212-1.661.636s-.517 1.098-.527 2.023v.253c0 1.053.176 1.807.527 2.263.351.451.914.677 1.688.677.647 0 1.153-.262 1.518-.786.369-.524.554-1.247.554-2.167 0-.934-.185-1.65-.554-2.147-.365-.501-.88-.752-1.545-.752zm369.747 35.499h-1.107v-7.123c0-.593.018-1.153.054-1.682a6.643 6.643 0 0 1 -.321.3c-.118.106-.661.55-1.627 1.334l-.601-.78 2.645-2.043h.957zm3.84-4.273c0-1.964.38-3.431 1.142-4.402.765-.975 1.895-1.463 3.39-1.463.515 0 .921.043 1.217.13v.977a3.894 3.894 0 0 0 -1.203-.17c-1.071 0-1.889.334-2.454 1.004-.565.666-.875 1.714-.93 3.145h.082c.501-.784 1.294-1.176 2.379-1.176.898 0 1.604.271 2.119.814.52.542.779 1.278.779 2.208 0 1.039-.284 1.857-.854 2.454-.565.592-1.331.888-2.297.888-1.034 0-1.855-.387-2.461-1.162-.606-.779-.909-1.861-.909-3.247zm3.356 3.445c.647 0 1.149-.202 1.504-.608.36-.41.54-1 .54-1.77 0-.661-.166-1.18-.499-1.559-.332-.378-.829-.567-1.49-.567-.41 0-.786.084-1.128.253a2.111 2.111 0 0 0 -.82.697 1.62 1.62 0 0 0 -.301.923c0 .47.091.907.273 1.312.183.406.44.727.773.964.337.237.72.356 1.148.356zm10.075-.177h-.062c-.524.76-1.308 1.141-2.352 1.141-.979 0-1.743-.335-2.29-1.004-.542-.67-.813-1.623-.813-2.858s.273-2.194.82-2.878 1.308-1.025 2.283-1.025c1.017 0 1.796.369 2.338 1.107h.089l-.048-.54-.027-.526v-3.05h1.135v10.638h-.923zm-2.27.191c.775 0 1.335-.21 1.682-.629.351-.424.526-1.105.526-2.044v-.239c0-1.062-.178-1.818-.533-2.27-.351-.455-.914-.683-1.689-.683-.665 0-1.175.26-1.531.78-.351.514-.526 1.243-.526 2.187 0 .957.175 1.68.526 2.167s.866.731 1.545.731zm9.158.95c-.487 0-.934-.088-1.34-.266a2.542 2.542 0 0 1 -1.011-.834h-.082c.054.437.082.852.082 1.244v3.083h-1.135v-10.856h.923l.157 1.026h.055c.291-.41.631-.707 1.018-.889a3.1 3.1 0 0 1 1.333-.273c.994 0 1.759.34 2.297 1.018.542.68.814 1.632.814 2.858 0 1.23-.276 2.187-.828 2.87-.546.68-1.308 1.02-2.283 1.02zm-.164-6.801c-.765 0-1.319.212-1.661.635-.342.424-.517 1.099-.526 2.024v.253c0 1.052.175 1.807.526 2.262.351.452.914.677 1.689.677.647 0 1.152-.262 1.517-.786.369-.524.554-1.246.554-2.167 0-.934-.185-1.65-.554-2.146-.365-.502-.879-.752-1.545-.752z" fill="#e8178a"/><path d="m785.075 84h9v39h-9" stroke="#4091d2"/><path d="m810.737 102.981h-1.031v1.775h-1.77v-1.775h-3.656v-1.26l3.756-5.531h1.67v5.385h1.031zm-2.801-1.406v-1.454c0-.242.01-.593.029-1.054.02-.461.035-.729.047-.803h-.047c-.144.32-.318.633-.521.938l-1.57 2.373zm9.344-1.102c0 1.496-.246 2.604-.738 3.322-.489.719-1.242 1.078-2.262 1.078-.988 0-1.734-.371-2.238-1.113-.5-.742-.75-1.838-.75-3.287 0-1.512.244-2.625.732-3.34.488-.719 1.24-1.078 2.256-1.078.988 0 1.734.375 2.238 1.125.508.75.762 1.848.762 3.293zm-4.189 0c0 1.051.089 1.805.269 2.262.184.453.49.679.92.679.422 0 .727-.23.914-.691.188-.461.281-1.211.281-2.25 0-1.05-.095-1.805-.287-2.262-.187-.46-.49-.691-.908-.691-.426 0-.73.23-.914.691-.184.457-.275 1.211-.275 2.262zm7.562 4.4c-.769 0-1.375-.298-1.816-.896-.438-.598-.656-1.426-.656-2.484 0-1.075.222-1.91.668-2.508.449-.602 1.066-.903 1.851-.903.824 0 1.453.32 1.887.961h.059a7.293 7.293 0 0 1 -.135-1.306v-2.098h1.793v9.117h-1.371l-.346-.849h-.076c-.406.644-1.026.966-1.858.966zm.627-1.423c.457 0 .791-.133 1.002-.399.215-.265.332-.717.352-1.353v-.194c0-.703-.11-1.207-.328-1.511-.215-.305-.567-.457-1.055-.457-.398 0-.709.17-.932.509-.218.336-.328.826-.328 1.471s.112 1.129.334 1.453c.223.32.541.481.955.481zm8.419 1.423c-.77 0-1.373-.279-1.811-.837h-.094c.063.546.094.863.094.949v2.654h-1.787v-9.434h1.453l.252.85h.082c.418-.648 1.037-.973 1.857-.973.774 0 1.379.3 1.817.897.437.597.656 1.428.656 2.49 0 .699-.103 1.307-.31 1.822-.204.516-.495.909-.874 1.178-.378.27-.824.404-1.335.404zm-.528-5.36c-.441 0-.763.136-.967.41-.203.269-.308.716-.316 1.341v.193c0 .704.104 1.207.311 1.512.21.305.543.457.996.457.8 0 1.201-.66 1.201-1.98 0-.645-.1-1.127-.299-1.448-.195-.324-.504-.486-.926-.486z" fill="#4091d2"/><path d="m862 0h88v142.333h-88z" fill="#c4c4c4"/><path d="m862 1h88v40h-88z" fill="#f1f1f6"/><path d="m881.447 26h-2.112v-4.314h-3.958v4.314h-2.119v-9.994h2.119v3.917h3.958v-3.917h2.112zm5.447-6.303c-.443 0-.789.142-1.04.424-.25.278-.394.675-.43 1.19h2.926c-.01-.515-.144-.912-.404-1.19-.259-.282-.61-.424-1.052-.424zm.293 6.44c-1.23 0-2.192-.34-2.884-1.019-.693-.679-1.039-1.64-1.039-2.885 0-1.28.319-2.27.957-2.966.642-.702 1.529-1.053 2.659-1.053 1.08 0 1.921.308 2.522.923.602.615.903 1.465.903 2.55v1.011h-4.929c.023.593.198 1.055.526 1.388s.789.499 1.381.499c.46 0 .896-.048 1.306-.144.41-.095.838-.248 1.285-.458v1.614a4.794 4.794 0 0 1 -1.169.403c-.415.091-.921.137-1.518.137zm4.64-9.755c0-.68.378-1.019 1.135-1.019.756 0 1.135.34 1.135 1.019 0 .323-.096.576-.287.759-.187.177-.47.266-.848.266-.757 0-1.135-.342-1.135-1.025zm2.174 9.618h-2.085v-7.643h2.085zm8.762-7.643v1.06l-1.197.308c.219.341.328.724.328 1.148 0 .82-.287 1.46-.861 1.92-.57.457-1.362.684-2.379.684l-.376-.02-.307-.034c-.215.164-.322.346-.322.547 0 .3.383.45 1.149.45h1.299c.838 0 1.476.18 1.914.54.442.361.663.89.663 1.587 0 .893-.374 1.586-1.121 2.078-.743.492-1.812.738-3.206.738-1.067 0-1.883-.187-2.448-.56-.56-.37-.84-.889-.84-1.559 0-.46.143-.845.43-1.155s.709-.531 1.265-.663a1.412 1.412 0 0 1 -.561-.445 1.08 1.08 0 0 1 -.239-.663c0-.291.084-.533.253-.724.169-.196.412-.388.731-.575a2.07 2.07 0 0 1 -.957-.833c-.232-.383-.348-.834-.348-1.354 0-.834.271-1.479.813-1.934.543-.456 1.317-.684 2.324-.684.215 0 .468.02.759.061.296.037.486.064.568.082zm-5.9 8.723c0 .287.137.513.41.677.278.164.666.246 1.162.246.748 0 1.334-.103 1.757-.308.424-.205.636-.485.636-.84 0-.288-.125-.486-.376-.595-.251-.11-.638-.164-1.162-.164h-1.08c-.383 0-.704.089-.964.266-.255.183-.383.422-.383.718zm.759-6.22c0 .414.093.742.28.984.192.241.481.362.868.362.392 0 .679-.12.862-.362.182-.242.273-.57.273-.985 0-.92-.378-1.38-1.135-1.38-.765 0-1.148.46-1.148 1.38zm13.376 5.14h-2.085v-4.464c0-1.103-.41-1.654-1.23-1.654-.584 0-1.005.198-1.265.595-.26.396-.39 1.039-.39 1.927v3.596h-2.085v-10.637h2.085v2.167c0 .169-.016.565-.048 1.19l-.047.615h.109c.465-.747 1.203-1.121 2.215-1.121.898 0 1.579.241 2.044.725.465.483.697 1.175.697 2.078zm5.282-1.524c.365 0 .802-.08 1.313-.24v1.552c-.52.232-1.158.349-1.914.349-.834 0-1.443-.21-1.826-.63-.378-.423-.567-1.056-.567-1.9v-3.684h-.998v-.882l1.148-.697.602-1.614h1.333v1.627h2.14v1.566h-2.14v3.684c0 .297.082.515.246.657.169.14.39.212.663.212z" fill="#50545b"/><path d="m862 42h88v99.333h-88z" fill="#fff"/><path d="m875.808 90.562c1.052 0 1.88.262 2.481.786.606.52.909 1.233.909 2.14 0 1.034-.33 1.846-.991 2.433-.656.588-1.563.882-2.721.882-1.125 0-1.984-.18-2.577-.54v-1.093c.319.205.716.366 1.19.485.474.114.941.17 1.401.17.802 0 1.424-.188 1.866-.567.447-.378.67-.925.67-1.64 0-1.395-.854-2.092-2.563-2.092-.433 0-1.012.066-1.737.198l-.588-.376.376-4.675h4.97v1.045h-3.999l-.253 3.001a7.968 7.968 0 0 1 1.566-.157zm4.92 1.832c0-1.964.38-3.431 1.141-4.402.766-.975 1.896-1.463 3.391-1.463.515 0 .92.043 1.217.13v.977a3.896 3.896 0 0 0 -1.204-.17c-1.071 0-1.889.334-2.454 1.004-.565.666-.875 1.714-.929 3.145h.082c.501-.784 1.294-1.176 2.379-1.176.897 0 1.604.271 2.119.814.519.542.779 1.278.779 2.208 0 1.039-.285 1.857-.854 2.454-.566.592-1.331.888-2.297.888-1.035 0-1.855-.387-2.461-1.162-.606-.779-.909-1.861-.909-3.247zm3.356 3.445c.647 0 1.148-.202 1.504-.608.36-.41.54-1 .54-1.77 0-.661-.166-1.18-.499-1.559-.333-.378-.83-.567-1.49-.567-.411 0-.786.084-1.128.253a2.114 2.114 0 0 0 -.821.697c-.2.296-.3.604-.3.923 0 .47.091.907.273 1.312.182.406.44.727.773.964.337.237.72.356 1.148.356zm10.074-.177h-.061c-.524.76-1.308 1.141-2.352 1.141-.98 0-1.743-.335-2.29-1.004-.542-.67-.813-1.623-.813-2.858s.273-2.194.82-2.878 1.308-1.025 2.283-1.025c1.016 0 1.796.369 2.338 1.107h.089l-.048-.54-.027-.526v-3.05h1.134v10.638h-.922zm-2.269.191c.774 0 1.335-.21 1.681-.629.351-.424.527-1.105.527-2.044v-.239c0-1.062-.178-1.818-.534-2.27-.35-.455-.913-.683-1.688-.683-.665 0-1.176.26-1.531.78-.351.514-.527 1.243-.527 2.187 0 .957.176 1.68.527 2.167s.866.731 1.545.731zm9.158.95c-.488 0-.934-.088-1.34-.266a2.551 2.551 0 0 1 -1.012-.834h-.082c.055.437.082.852.082 1.244v3.083h-1.135v-10.856h.923l.158 1.026h.054c.292-.41.631-.707 1.019-.889.387-.182.832-.273 1.333-.273.993 0 1.759.34 2.297 1.018.542.68.813 1.632.813 2.858 0 1.23-.276 2.187-.827 2.87-.547.68-1.308 1.02-2.283 1.02zm-.164-6.801c-.766 0-1.32.212-1.661.635-.342.424-.518 1.099-.527 2.024v.253c0 1.052.176 1.807.527 2.262.351.452.913.677 1.688.677.647 0 1.153-.262 1.518-.786.369-.524.553-1.246.553-2.167 0-.934-.184-1.65-.553-2.146-.365-.502-.88-.752-1.545-.752z" fill="#000"/><path d="m951 0h136v142.333h-136z" fill="#c4c4c4"/><path d="m951 1h136v40h-136z" fill="#f1f1f6"/><path d="m970.393 16.006v6.467c0 .738-.167 1.385-.499 1.941-.329.556-.805.982-1.429 1.278-.625.297-1.363.445-2.215.445-1.285 0-2.283-.328-2.994-.985-.711-.66-1.067-1.563-1.067-2.707v-6.44h2.113v6.119c0 .77.155 1.335.465 1.695.309.36.822.54 1.538.54.692 0 1.194-.18 1.504-.54.314-.364.471-.934.471-1.709v-6.104zm7.531 7.724c0 .784-.274 1.381-.82 1.791-.543.41-1.356.616-2.441.616-.556 0-1.03-.039-1.422-.117a5.216 5.216 0 0 1 -1.1-.328v-1.722c.387.182.822.335 1.305.458.488.123.916.184 1.285.184.757 0 1.135-.218 1.135-.656a.537.537 0 0 0 -.15-.396c-.1-.105-.274-.221-.52-.35a12.137 12.137 0 0 0 -.984-.457c-.588-.246-1.021-.474-1.299-.684a1.973 1.973 0 0 1 -.601-.717c-.124-.274-.185-.609-.185-1.005 0-.68.262-1.203.786-1.573.529-.373 1.276-.56 2.242-.56.921 0 1.816.2 2.687.601l-.629 1.504a11.672 11.672 0 0 0 -1.073-.403 3.377 3.377 0 0 0 -1.019-.157c-.615 0-.923.166-.923.499 0 .187.098.348.294.485.201.137.636.34 1.306.609.597.241 1.034.467 1.312.676.278.21.483.452.616.725.132.273.198.6.198.977zm4.708-4.033c-.442 0-.789.142-1.039.424-.251.278-.394.675-.431 1.19h2.926c-.009-.515-.144-.912-.403-1.19-.26-.282-.611-.424-1.053-.424zm.294 6.44c-1.231 0-2.192-.34-2.885-1.019s-1.039-1.64-1.039-2.885c0-1.28.319-2.27.957-2.966.643-.702 1.529-1.053 2.659-1.053 1.08 0 1.921.308 2.523.923.601.615.902 1.465.902 2.55v1.011h-4.929c.023.593.198 1.055.527 1.388.328.333.788.499 1.38.499a5.73 5.73 0 0 0 1.306-.144c.41-.095.839-.248 1.285-.458v1.614a4.779 4.779 0 0 1 -1.169.403c-.414.091-.92.137-1.517.137zm12.69-8.511c-.797 0-1.415.3-1.852.902-.438.597-.657 1.431-.657 2.502 0 2.229.837 3.343 2.509 3.343.702 0 1.552-.175 2.55-.526v1.777c-.82.342-1.736.513-2.748.513-1.454 0-2.566-.44-3.336-1.32-.77-.884-1.155-2.15-1.155-3.8 0-1.04.189-1.949.567-2.728.378-.784.921-1.383 1.627-1.798.711-.42 1.543-.629 2.495-.629.971 0 1.946.235 2.926.704l-.684 1.723a11.171 11.171 0 0 0 -1.128-.465 3.362 3.362 0 0 0 -1.114-.198zm9.284 8.374-.4-1.04h-.05c-.35.443-.72.75-1.09.924-.37.168-.85.253-1.45.253-.73 0-1.31-.21-1.74-.63-.416-.419-.625-1.016-.625-1.79 0-.811.282-1.408.845-1.791.57-.388 1.43-.602 2.57-.643l1.33-.04v-.336c0-.774-.4-1.162-1.19-1.162-.61 0-1.33.185-2.15.554l-.69-1.408c.88-.46 1.85-.69 2.92-.69 1.03 0 1.81.223 2.36.67.55.446.82 1.125.82 2.036v5.093zm-.61-3.541-.81.027c-.6.019-1.05.128-1.35.328-.3.201-.45.506-.45.916 0 .588.34.882 1.02.882.48 0 .86-.139 1.15-.417s.44-.647.44-1.107zm9.47 1.271c0 .784-.27 1.381-.82 1.791-.54.41-1.35.616-2.44.616a7.39 7.39 0 0 1 -1.42-.117 5.234 5.234 0 0 1 -1.1-.328v-1.722c.39.182.82.335 1.3.458.49.123.92.184 1.29.184.76 0 1.13-.218 1.13-.656a.537.537 0 0 0 -.15-.396c-.1-.105-.27-.221-.52-.35-.24-.131-.57-.284-.98-.457-.59-.246-1.02-.474-1.3-.684-.27-.21-.47-.449-.6-.717a2.49 2.49 0 0 1 -.19-1.005c0-.68.27-1.203.79-1.573.53-.373 1.28-.56 2.24-.56.92 0 1.82.2 2.69.601l-.63 1.504c-.38-.164-.74-.298-1.07-.403a3.398 3.398 0 0 0 -1.02-.157c-.62 0-.92.166-.92.499 0 .187.09.348.29.485s.64.34 1.31.609c.59.241 1.03.467 1.31.676.28.21.48.452.61.725.14.273.2.6.2.977zm4.71-4.033c-.44 0-.79.142-1.04.424-.25.278-.39.675-.43 1.19h2.93c-.01-.515-.15-.912-.41-1.19-.26-.282-.61-.424-1.05-.424zm.29 6.44c-1.23 0-2.19-.34-2.88-1.019s-1.04-1.64-1.04-2.885c0-1.28.32-2.27.96-2.966.64-.702 1.53-1.053 2.66-1.053 1.08 0 1.92.308 2.52.923s.9 1.465.9 2.55v1.011h-4.93c.02.593.2 1.055.53 1.388s.79.499 1.38.499c.46 0 .89-.048 1.3-.144a6.43 6.43 0 0 0 1.29-.458v1.614a4.66 4.66 0 0 1 -1.17.403c-.41.091-.92.137-1.52.137z" fill="#50545b"/><path d="m951 42h136v99.333h-136z" fill="#fff"/><path d="m963.536 96.667h-1.162v-9.995h5.571v1.033h-4.409v3.657h4.143v1.032h-4.143zm12.282-3.753c0 1.221-.307 2.176-.923 2.864-.615.684-1.465 1.025-2.549 1.025-.67 0-1.265-.157-1.784-.471-.52-.315-.921-.766-1.204-1.354-.282-.588-.423-1.276-.423-2.064 0-1.222.305-2.172.916-2.85.61-.684 1.458-1.026 2.543-1.026 1.048 0 1.879.348 2.495 1.046.619.697.929 1.64.929 2.83zm-5.708 0c0 .957.192 1.686.575 2.187.382.502.945.752 1.688.752s1.306-.248 1.689-.745c.387-.501.581-1.233.581-2.194 0-.953-.194-1.675-.581-2.167-.383-.497-.951-.745-1.703-.745-.742 0-1.303.243-1.681.731-.379.488-.568 1.215-.568 2.18zm11.038-3.876c.333 0 .632.027.896.082l-.157 1.052a3.876 3.876 0 0 0 -.821-.102c-.606 0-1.125.246-1.558.738-.429.492-.643 1.105-.643 1.84v4.019h-1.135v-7.493h.937l.13 1.388h.055c.278-.487.612-.863 1.004-1.128a2.263 2.263 0 0 1 1.292-.396zm11.763 7.629v-4.874c0-.597-.128-1.044-.383-1.34-.255-.301-.651-.451-1.189-.451-.707 0-1.228.202-1.566.608-.337.406-.505 1.03-.505 1.873v4.184h-1.135v-4.874c0-.597-.128-1.044-.383-1.34-.255-.301-.654-.451-1.196-.451-.711 0-1.233.214-1.566.642-.328.424-.492 1.121-.492 2.092v3.93h-1.135v-7.492h.923l.185 1.026h.054c.215-.365.515-.65.903-.855a2.786 2.786 0 0 1 1.312-.307c1.171 0 1.937.424 2.297 1.271h.055a2.39 2.39 0 0 1 .97-.93 3.014 3.014 0 0 1 1.45-.341c.847 0 1.481.219 1.9.656.424.433.636 1.128.636 2.085v4.888z" fill="#000"/></svg>