<svg width="1088" height="158" fill="none" xmlns="http://www.w3.org/2000/svg"><path fill="#F1F1F6" d="M.5 0h1087v158H.5z"/><path fill-rule="evenodd" clip-rule="evenodd" d="M430 100c11.598 0 21-9.402 21-21 0-10.955-8.388-19.95-19.092-20.914-1.05-.095-1.908.769-1.908 1.823 0 1.054.858 1.898 1.906 2.014 8.592.948 15.276 8.232 15.276 17.077 0 9.49-7.693 17.182-17.182 17.182-8.845 0-16.129-6.684-17.077-15.276-.116-1.048-.96-1.906-2.014-1.906-1.054 0-1.918.858-1.824 1.908C410.049 91.612 419.045 100 430 100zM466 79c0 11.598 9.402 21 21 21 10.955 0 19.951-8.388 20.915-19.092.094-1.05-.77-1.908-1.824-1.908s-1.898.858-2.014 1.906c-.948 8.592-8.232 15.276-17.077 15.276-9.489 0-17.182-7.693-17.182-17.182 0-8.845 6.684-16.129 15.276-17.077 1.048-.116 1.906-.96 1.906-2.014 0-1.054-.858-1.918-1.908-1.823C474.388 59.049 466 68.046 466 79zM544 58c-11.598 0-21 9.402-21 21 0 10.955 8.388 19.95 19.092 20.915 1.05.094 1.908-.77 1.908-1.824s-.858-1.898-1.906-2.014c-8.592-.948-15.276-8.232-15.276-17.077 0-9.49 7.693-17.182 17.182-17.182 8.845 0 16.129 6.684 17.077 15.276.116 1.048.96 1.906 2.014 1.906 1.054 0 1.918-.858 1.824-1.908C563.951 66.388 554.955 58 544 58zM622 79c0-11.598-9.402-21-21-21-10.955 0-19.951 8.388-20.915 19.092-.094 1.05.77 1.908 1.824 1.908s1.898-.858 2.014-1.906c.948-8.592 8.232-15.276 17.077-15.276 9.489 0 17.182 7.693 17.182 17.182 0 8.845-6.684 16.129-15.276 17.077-1.048.116-1.906.96-1.906 2.014 0 1.054.858 1.918 1.908 1.824C613.612 98.95 622 89.954 622 79zM658 58c-11.598 0-21 9.402-21 21 0 10.955 8.388 19.95 19.092 20.915 1.05.094 1.908-.77 1.908-1.824s-.858-1.898-1.906-2.014c-8.592-.948-15.276-8.232-15.276-17.077 0-9.49 7.693-17.182 17.182-17.182 8.845 0 16.129 6.684 17.077 15.276.116 1.048.96 1.906 2.014 1.906 1.054 0 1.918-.858 1.824-1.908C677.951 66.388 668.955 58 658 58z" fill="#0063A3"/></svg>