<svg xmlns="http://www.w3.org/2000/svg" width="428" height="76" fill="none" viewBox="0 0 428 76"><rect width="75" height="72" x="231.5" y=".667" fill="#F1F1F6"/><path stroke="#E8178A" d="M282.5 14.6667H299.5V56.6667H282.5"/><path fill="#E8178A" d="M319.299 34.1003L316.387 42.6667H314.406L311.5 34.1003H313.334L314.945 39.1979C314.973 39.2839 315.018 39.446 315.08 39.6842C315.143 39.9186 315.205 40.1686 315.268 40.4342C315.334 40.696 315.379 40.9128 315.402 41.0846C315.426 40.9128 315.467 40.696 315.525 40.4342C315.588 40.1725 315.648 39.9245 315.707 39.6901C315.77 39.4518 315.814 39.2878 315.842 39.1979L317.465 34.1003H319.299ZM322.854 35.9811C323.733 35.9811 324.407 36.1725 324.875 36.5553C325.344 36.9382 325.578 37.5202 325.578 38.3014V42.6667H324.33L323.985 41.776H323.938C323.75 42.0104 323.559 42.2018 323.364 42.3503C323.168 42.4987 322.944 42.6081 322.69 42.6784C322.436 42.7487 322.127 42.7839 321.764 42.7839C321.377 42.7839 321.03 42.7096 320.721 42.5612C320.416 42.4128 320.176 42.1862 320 41.8815C319.824 41.5729 319.737 41.1823 319.737 40.7096C319.737 40.0143 319.981 39.5026 320.469 39.1745C320.957 38.8424 321.69 38.6589 322.666 38.6237L323.803 38.5885V38.3014C323.803 37.9577 323.713 37.7057 323.533 37.5456C323.354 37.3854 323.104 37.3053 322.783 37.3053C322.467 37.3053 322.157 37.3503 321.852 37.4401C321.547 37.5299 321.242 37.6432 320.938 37.7799L320.346 36.5729C320.694 36.3893 321.082 36.2448 321.512 36.1393C321.946 36.0339 322.393 35.9811 322.854 35.9811ZM323.803 39.6315L323.112 39.6549C322.533 39.6706 322.131 39.7741 321.905 39.9655C321.682 40.1569 321.571 40.4089 321.571 40.7214C321.571 40.9948 321.651 41.1901 321.811 41.3073C321.971 41.4206 322.18 41.4772 322.438 41.4772C322.821 41.4772 323.143 41.3639 323.405 41.1374C323.67 40.9108 323.803 40.5885 323.803 40.1706V39.6315ZM331.008 35.9928C331.098 35.9928 331.202 35.9987 331.319 36.0104C331.44 36.0182 331.538 36.0299 331.612 36.0456L331.477 37.7214C331.418 37.7018 331.335 37.6882 331.225 37.6803C331.12 37.6686 331.028 37.6628 330.95 37.6628C330.719 37.6628 330.495 37.6921 330.276 37.7507C330.061 37.8092 329.868 37.9049 329.696 38.0378C329.524 38.1667 329.387 38.3385 329.286 38.5534C329.188 38.7643 329.139 39.0241 329.139 39.3327V42.6667H327.352V36.1159H328.706L328.969 37.2174H329.057C329.186 36.9948 329.346 36.7917 329.538 36.6081C329.733 36.4206 329.954 36.2721 330.2 36.1628C330.45 36.0495 330.719 35.9928 331.008 35.9928ZM334.516 36.1159V42.6667H332.729V36.1159H334.516ZM333.626 33.5495C333.891 33.5495 334.12 33.612 334.311 33.737C334.503 33.8581 334.598 34.0866 334.598 34.4225C334.598 34.7546 334.503 34.985 334.311 35.1139C334.12 35.2389 333.891 35.3014 333.626 35.3014C333.356 35.3014 333.126 35.2389 332.934 35.1139C332.747 34.985 332.653 34.7546 332.653 34.4225C332.653 34.0866 332.747 33.8581 332.934 33.737C333.126 33.612 333.356 33.5495 333.626 33.5495ZM339.009 35.9811C339.888 35.9811 340.562 36.1725 341.03 36.5553C341.499 36.9382 341.733 37.5202 341.733 38.3014V42.6667H340.485L340.14 41.776H340.093C339.905 42.0104 339.714 42.2018 339.519 42.3503C339.323 42.4987 339.099 42.6081 338.845 42.6784C338.591 42.7487 338.282 42.7839 337.919 42.7839C337.532 42.7839 337.185 42.7096 336.876 42.5612C336.571 42.4128 336.331 42.1862 336.155 41.8815C335.98 41.5729 335.892 41.1823 335.892 40.7096C335.892 40.0143 336.136 39.5026 336.624 39.1745C337.112 38.8424 337.845 38.6589 338.821 38.6237L339.958 38.5885V38.3014C339.958 37.9577 339.868 37.7057 339.689 37.5456C339.509 37.3854 339.259 37.3053 338.939 37.3053C338.622 37.3053 338.312 37.3503 338.007 37.4401C337.702 37.5299 337.398 37.6432 337.093 37.7799L336.501 36.5729C336.849 36.3893 337.237 36.2448 337.667 36.1393C338.101 36.0339 338.548 35.9811 339.009 35.9811ZM339.958 39.6315L339.267 39.6549C338.689 39.6706 338.286 39.7741 338.06 39.9655C337.837 40.1569 337.726 40.4089 337.726 40.7214C337.726 40.9948 337.806 41.1901 337.966 41.3073C338.126 41.4206 338.335 41.4772 338.593 41.4772C338.976 41.4772 339.298 41.3639 339.56 41.1374C339.825 40.9108 339.958 40.5885 339.958 40.1706V39.6315ZM345.294 33.5495V35.6706C345.294 35.9167 345.286 36.1608 345.271 36.403C345.259 36.6452 345.244 36.8327 345.224 36.9655H345.294C345.466 36.696 345.701 36.4674 345.997 36.2799C346.294 36.0885 346.679 35.9928 347.152 35.9928C347.886 35.9928 348.482 36.2799 348.939 36.8542C349.396 37.4284 349.624 38.2702 349.624 39.3796C349.624 40.1257 349.519 40.7526 349.308 41.2604C349.097 41.7643 348.802 42.1452 348.423 42.403C348.044 42.6569 347.605 42.7839 347.105 42.7839C346.624 42.7839 346.245 42.6979 345.968 42.526C345.691 42.3542 345.466 42.1608 345.294 41.946H345.171L344.872 42.6667H343.507V33.5495H345.294ZM346.577 37.4225C346.265 37.4225 346.017 37.487 345.833 37.6159C345.65 37.7448 345.515 37.9382 345.429 38.196C345.347 38.4538 345.302 38.7799 345.294 39.1745V39.3678C345.294 40.0046 345.388 40.4928 345.576 40.8327C345.763 41.1686 346.105 41.3366 346.601 41.3366C346.968 41.3366 347.259 41.1667 347.474 40.8268C347.693 40.487 347.802 39.9967 347.802 39.3561C347.802 38.7155 347.693 38.2331 347.474 37.9089C347.255 37.5846 346.956 37.4225 346.577 37.4225ZM352.816 42.6667H351.029V33.5495H352.816V42.6667ZM357.326 35.9928C357.932 35.9928 358.453 36.11 358.891 36.3444C359.328 36.5749 359.666 36.9108 359.904 37.3522C360.142 37.7936 360.262 38.3327 360.262 38.9694V39.8366H356.037C356.057 40.3405 356.207 40.737 356.488 41.026C356.773 41.3112 357.168 41.4538 357.672 41.4538C358.09 41.4538 358.473 41.4108 358.82 41.3249C359.168 41.2389 359.525 41.11 359.892 40.9382V42.321C359.568 42.4811 359.228 42.5983 358.873 42.6725C358.521 42.7467 358.094 42.7839 357.59 42.7839C356.933 42.7839 356.351 42.6628 355.844 42.4206C355.34 42.1784 354.943 41.8092 354.654 41.3132C354.369 40.8171 354.226 40.1921 354.226 39.4382C354.226 38.6725 354.355 38.0358 354.613 37.528C354.875 37.0163 355.238 36.6335 355.703 36.3796C356.168 36.1217 356.709 35.9928 357.326 35.9928ZM357.338 37.2643C356.99 37.2643 356.701 37.3757 356.471 37.5983C356.244 37.821 356.113 38.1706 356.078 38.6471H358.586C358.582 38.3815 358.533 38.1452 358.439 37.9382C358.35 37.7311 358.213 37.5671 358.029 37.446C357.85 37.3249 357.619 37.2643 357.338 37.2643ZM369.258 40.7214C369.258 41.1667 369.153 41.5436 368.942 41.8522C368.735 42.1569 368.424 42.3893 368.01 42.5495C367.596 42.7057 367.081 42.7839 366.463 42.7839C366.006 42.7839 365.614 42.7546 365.286 42.696C364.961 42.6374 364.633 42.5397 364.301 42.403V40.9264C364.657 41.0866 365.038 41.2194 365.444 41.3249C365.854 41.4264 366.213 41.4772 366.522 41.4772C366.87 41.4772 367.118 41.4264 367.266 41.3249C367.418 41.2194 367.495 41.0827 367.495 40.9147C367.495 40.8053 367.463 40.7077 367.401 40.6217C367.342 40.5319 367.213 40.4323 367.014 40.3229C366.815 40.2096 366.502 40.0632 366.077 39.8835C365.666 39.7116 365.329 39.5378 365.063 39.362C364.801 39.1862 364.606 38.9792 364.477 38.7409C364.352 38.4987 364.29 38.1921 364.29 37.821C364.29 37.2155 364.524 36.7604 364.993 36.4557C365.465 36.1471 366.096 35.9928 366.885 35.9928C367.291 35.9928 367.678 36.0339 368.045 36.1159C368.416 36.1979 368.797 36.3288 369.188 36.5085L368.649 37.7975C368.325 37.6569 368.018 37.5417 367.729 37.4518C367.444 37.362 367.153 37.3171 366.856 37.3171C366.594 37.3171 366.397 37.3522 366.264 37.4225C366.131 37.4928 366.065 37.6003 366.065 37.7448C366.065 37.8503 366.098 37.944 366.165 38.026C366.235 38.1081 366.368 38.1999 366.563 38.3014C366.762 38.3991 367.053 38.526 367.436 38.6823C367.807 38.8346 368.129 38.9948 368.403 39.1628C368.676 39.3268 368.887 39.5319 369.036 39.778C369.184 40.0202 369.258 40.3346 369.258 40.7214ZM372.368 36.1159V42.6667H370.581V36.1159H372.368ZM371.477 33.5495C371.743 33.5495 371.971 33.612 372.163 33.737C372.354 33.8581 372.45 34.0866 372.45 34.4225C372.45 34.7546 372.354 34.985 372.163 35.1139C371.971 35.2389 371.743 35.3014 371.477 35.3014C371.208 35.3014 370.977 35.2389 370.786 35.1139C370.598 34.985 370.505 34.7546 370.505 34.4225C370.505 34.0866 370.598 33.8581 370.786 33.737C370.977 33.612 371.208 33.5495 371.477 33.5495ZM378.735 42.6667H373.562V41.612L376.597 37.4811H373.743V36.1159H378.63V37.276L375.677 41.3014H378.735V42.6667ZM382.665 35.9928C383.271 35.9928 383.792 36.11 384.23 36.3444C384.667 36.5749 385.005 36.9108 385.243 37.3522C385.482 37.7936 385.601 38.3327 385.601 38.9694V39.8366H381.376C381.396 40.3405 381.546 40.737 381.827 41.026C382.113 41.3112 382.507 41.4538 383.011 41.4538C383.429 41.4538 383.812 41.4108 384.159 41.3249C384.507 41.2389 384.865 41.11 385.232 40.9382V42.321C384.907 42.4811 384.568 42.5983 384.212 42.6725C383.861 42.7467 383.433 42.7839 382.929 42.7839C382.273 42.7839 381.691 42.6628 381.183 42.4206C380.679 42.1784 380.282 41.8092 379.993 41.3132C379.708 40.8171 379.566 40.1921 379.566 39.4382C379.566 38.6725 379.695 38.0358 379.952 37.528C380.214 37.0163 380.577 36.6335 381.042 36.3796C381.507 36.1217 382.048 35.9928 382.665 35.9928ZM382.677 37.2643C382.329 37.2643 382.04 37.3757 381.81 37.5983C381.583 37.821 381.452 38.1706 381.417 38.6471H383.925C383.921 38.3815 383.872 38.1452 383.779 37.9382C383.689 37.7311 383.552 37.5671 383.368 37.446C383.189 37.3249 382.958 37.2643 382.677 37.2643ZM391.552 40.7214C391.552 41.1667 391.447 41.5436 391.236 41.8522C391.029 42.1569 390.718 42.3893 390.304 42.5495C389.89 42.7057 389.375 42.7839 388.757 42.7839C388.3 42.7839 387.908 42.7546 387.58 42.696C387.255 42.6374 386.927 42.5397 386.595 42.403V40.9264C386.951 41.0866 387.332 41.2194 387.738 41.3249C388.148 41.4264 388.507 41.4772 388.816 41.4772C389.164 41.4772 389.412 41.4264 389.56 41.3249C389.712 41.2194 389.789 41.0827 389.789 40.9147C389.789 40.8053 389.757 40.7077 389.695 40.6217C389.636 40.5319 389.507 40.4323 389.308 40.3229C389.109 40.2096 388.796 40.0632 388.371 39.8835C387.96 39.7116 387.623 39.5378 387.357 39.362C387.095 39.1862 386.9 38.9792 386.771 38.7409C386.646 38.4987 386.584 38.1921 386.584 37.821C386.584 37.2155 386.818 36.7604 387.287 36.4557C387.759 36.1471 388.39 35.9928 389.179 35.9928C389.585 35.9928 389.972 36.0339 390.339 36.1159C390.71 36.1979 391.091 36.3288 391.482 36.5085L390.943 37.7975C390.619 37.6569 390.312 37.5417 390.023 37.4518C389.738 37.362 389.447 37.3171 389.15 37.3171C388.888 37.3171 388.691 37.3522 388.558 37.4225C388.425 37.4928 388.359 37.6003 388.359 37.7448C388.359 37.8503 388.392 37.944 388.459 38.026C388.529 38.1081 388.662 38.1999 388.857 38.3014C389.056 38.3991 389.347 38.526 389.73 38.6823C390.101 38.8346 390.423 38.9948 390.697 39.1628C390.97 39.3268 391.181 39.5319 391.33 39.778C391.478 40.0202 391.552 40.3346 391.552 40.7214ZM398.58 37.194C399.104 37.194 399.568 37.2936 399.975 37.4928C400.385 37.6921 400.707 37.985 400.941 38.3717C401.176 38.7585 401.293 39.235 401.293 39.8014C401.293 40.4186 401.164 40.9518 400.906 41.401C400.652 41.8464 400.272 42.1882 399.764 42.4264C399.26 42.6647 398.631 42.7839 397.877 42.7839C397.428 42.7839 397.004 42.7448 396.606 42.6667C396.211 42.5924 395.865 42.4772 395.568 42.321V40.7565C395.865 40.9128 396.221 41.0456 396.635 41.1549C397.053 41.2604 397.445 41.3132 397.813 41.3132C398.172 41.3132 398.475 41.2663 398.721 41.1725C398.967 41.0749 399.152 40.9264 399.277 40.7272C399.406 40.5241 399.471 40.2663 399.471 39.9538C399.471 39.5358 399.33 39.2155 399.049 38.9928C398.768 38.7702 398.336 38.6589 397.754 38.6589C397.531 38.6589 397.299 38.6803 397.057 38.7233C396.818 38.7663 396.619 38.8092 396.459 38.8522L395.738 38.4655L396.061 34.1003H400.707V35.6354H397.649L397.49 37.3171C397.623 37.2897 397.768 37.2624 397.924 37.235C398.08 37.2077 398.299 37.194 398.58 37.194ZM408.246 42.6667H402.258V41.4069L404.409 39.2331C404.842 38.7878 405.19 38.4167 405.452 38.1198C405.717 37.819 405.909 37.5456 406.026 37.2995C406.147 37.0534 406.207 36.7897 406.207 36.5085C406.207 36.1686 406.112 35.9147 405.92 35.7467C405.733 35.5749 405.481 35.4889 405.164 35.4889C404.832 35.4889 404.51 35.5651 404.198 35.7174C403.885 35.8698 403.559 36.0866 403.219 36.3678L402.235 35.2018C402.481 34.9909 402.741 34.7917 403.014 34.6042C403.291 34.4167 403.612 34.2663 403.975 34.153C404.342 34.0358 404.782 33.9772 405.293 33.9772C405.856 33.9772 406.338 34.0788 406.741 34.2819C407.147 34.485 407.459 34.7624 407.678 35.1139C407.897 35.4616 408.006 35.8561 408.006 36.2975C408.006 36.7702 407.912 37.2018 407.725 37.5924C407.537 37.9831 407.264 38.3698 406.905 38.7526C406.549 39.1354 406.119 39.5592 405.616 40.0241L404.514 41.0612V41.1432H408.246V42.6667ZM411.585 42.7839C410.854 42.7839 410.258 42.4987 409.797 41.9284C409.34 41.3542 409.112 40.5124 409.112 39.403C409.112 38.2819 409.344 37.4342 409.809 36.86C410.274 36.2819 410.881 35.9928 411.631 35.9928C411.944 35.9928 412.219 36.0358 412.458 36.1217C412.696 36.2077 412.901 36.3229 413.073 36.4674C413.249 36.612 413.397 36.7741 413.518 36.9538H413.577C413.553 36.8288 413.524 36.6452 413.489 36.403C413.458 36.1569 413.442 35.9049 413.442 35.6471V33.5495H415.235V42.6667H413.864L413.518 41.8171H413.442C413.329 41.9967 413.186 42.1608 413.014 42.3092C412.846 42.4538 412.645 42.569 412.411 42.6549C412.176 42.7409 411.901 42.7839 411.585 42.7839ZM412.212 41.36C412.7 41.36 413.044 41.2155 413.243 40.9264C413.446 40.6335 413.553 40.194 413.565 39.6081V39.4147C413.565 38.778 413.467 38.2917 413.272 37.9557C413.077 37.6159 412.714 37.446 412.182 37.446C411.788 37.446 411.479 37.6159 411.256 37.9557C411.034 38.2956 410.922 38.7858 410.922 39.4264C410.922 40.0671 411.034 40.5495 411.256 40.8737C411.483 41.1979 411.801 41.36 412.212 41.36ZM420.677 35.9928C421.415 35.9928 422.011 36.2799 422.464 36.8542C422.921 37.4284 423.149 38.2702 423.149 39.3796C423.149 40.1217 423.042 40.7467 422.827 41.2546C422.612 41.7585 422.315 42.1393 421.936 42.3971C421.558 42.6549 421.122 42.7839 420.63 42.7839C420.313 42.7839 420.042 42.7448 419.815 42.6667C419.589 42.5846 419.395 42.4811 419.235 42.3561C419.075 42.2272 418.936 42.0905 418.819 41.946H418.725C418.757 42.1022 418.78 42.2624 418.796 42.4264C418.811 42.5905 418.819 42.7507 418.819 42.9069V45.5495H417.032V36.1159H418.485L418.737 36.9655H418.819C418.936 36.7897 419.079 36.6276 419.247 36.4792C419.415 36.3307 419.616 36.2135 419.85 36.1276C420.089 36.0378 420.364 35.9928 420.677 35.9928ZM420.102 37.4225C419.79 37.4225 419.542 37.487 419.358 37.6159C419.175 37.7448 419.04 37.9382 418.954 38.196C418.872 38.4538 418.827 38.7799 418.819 39.1745V39.3678C418.819 39.7897 418.858 40.1471 418.936 40.4401C419.018 40.7331 419.153 40.9557 419.341 41.1081C419.532 41.2604 419.794 41.3366 420.126 41.3366C420.399 41.3366 420.624 41.2604 420.8 41.1081C420.975 40.9557 421.106 40.7331 421.192 40.4401C421.282 40.1432 421.327 39.7819 421.327 39.3561C421.327 38.7155 421.227 38.2331 421.028 37.9089C420.829 37.5846 420.52 37.4225 420.102 37.4225Z"/><path fill="#fff" stroke="#CCC" d="M0.5 74.6667V0.666668H214.369V25.8317L225.5 36.6084L214.369 46.6667V74.6667H0.5Z"/><path fill="#000" d="M23.6348 28.2878C23.6348 28.7956 23.5117 29.237 23.2656 29.612C23.0195 29.987 22.6602 30.276 22.1875 30.4792C21.7188 30.6823 21.1484 30.7839 20.4766 30.7839C20.1797 30.7839 19.8887 30.7643 19.6035 30.7253C19.3223 30.6862 19.0508 30.6296 18.7891 30.5553C18.5312 30.4772 18.2852 30.3815 18.0508 30.2682V28.5807C18.457 28.7604 18.8789 28.9225 19.3164 29.0671C19.7539 29.2116 20.1875 29.2839 20.6172 29.2839C20.9141 29.2839 21.1523 29.2448 21.332 29.1667C21.5156 29.0885 21.6484 28.9811 21.7305 28.8444C21.8125 28.7077 21.8535 28.5514 21.8535 28.3757C21.8535 28.1608 21.7812 27.9772 21.6367 27.8249C21.4922 27.6725 21.293 27.5299 21.0391 27.3971C20.7891 27.2643 20.5059 27.1217 20.1895 26.9694C19.9902 26.8757 19.7734 26.7624 19.5391 26.6296C19.3047 26.4928 19.082 26.3268 18.8711 26.1315C18.6602 25.9362 18.4863 25.6999 18.3496 25.4225C18.2168 25.1413 18.1504 24.8053 18.1504 24.4147C18.1504 23.903 18.2676 23.4655 18.502 23.1022C18.7363 22.7389 19.0703 22.4616 19.5039 22.2702C19.9414 22.0749 20.457 21.9772 21.0508 21.9772C21.4961 21.9772 21.9199 22.0299 22.3223 22.1354C22.7285 22.237 23.1523 22.3854 23.5938 22.5807L23.0078 23.9928C22.6133 23.8327 22.2598 23.7096 21.9473 23.6237C21.6348 23.5339 21.3164 23.4889 20.9922 23.4889C20.7656 23.4889 20.5723 23.526 20.4121 23.6003C20.252 23.6706 20.1309 23.7721 20.0488 23.9049C19.9668 24.0339 19.9258 24.1842 19.9258 24.3561C19.9258 24.5592 19.9844 24.7311 20.1016 24.8717C20.2227 25.0085 20.4023 25.1413 20.6406 25.2702C20.8828 25.3991 21.1836 25.5495 21.543 25.7214C21.9805 25.9284 22.3535 26.1452 22.6621 26.3717C22.9746 26.5944 23.2148 26.8581 23.3828 27.1628C23.5508 27.4635 23.6348 27.8385 23.6348 28.2878ZM28.6194 23.9928C29.3577 23.9928 29.9534 24.2799 30.4065 24.8542C30.8635 25.4284 31.0921 26.2702 31.0921 27.3796C31.0921 28.1217 30.9846 28.7467 30.7698 29.2546C30.555 29.7585 30.2581 30.1393 29.8792 30.3971C29.5003 30.6549 29.0647 30.7839 28.5725 30.7839C28.2561 30.7839 27.9846 30.7448 27.7581 30.6667C27.5315 30.5846 27.3382 30.4811 27.178 30.3561C27.0178 30.2272 26.8792 30.0905 26.762 29.946H26.6682C26.6995 30.1022 26.7229 30.2624 26.7385 30.4264C26.7542 30.5905 26.762 30.7507 26.762 30.9069V33.5495H24.9749V24.1159H26.428L26.68 24.9655H26.762C26.8792 24.7897 27.0217 24.6276 27.1897 24.4792C27.3577 24.3307 27.5589 24.2135 27.7932 24.1276C28.0315 24.0378 28.3069 23.9928 28.6194 23.9928ZM28.0452 25.4225C27.7327 25.4225 27.4846 25.487 27.301 25.6159C27.1175 25.7448 26.9827 25.9382 26.8967 26.196C26.8147 26.4538 26.7698 26.7799 26.762 27.1745V27.3678C26.762 27.7897 26.801 28.1471 26.8792 28.4401C26.9612 28.7331 27.096 28.9557 27.2835 29.1081C27.4749 29.2604 27.7366 29.3366 28.0686 29.3366C28.3421 29.3366 28.5667 29.2604 28.7425 29.1081C28.9182 28.9557 29.0491 28.7331 29.135 28.4401C29.2249 28.1432 29.2698 27.7819 29.2698 27.3561C29.2698 26.7155 29.1702 26.2331 28.971 25.9089C28.7717 25.5846 28.4632 25.4225 28.0452 25.4225ZM34.2837 24.1159V30.6667H32.4966V24.1159H34.2837ZM33.3931 21.5495C33.6587 21.5495 33.8872 21.612 34.0787 21.737C34.2701 21.8581 34.3658 22.0866 34.3658 22.4225C34.3658 22.7546 34.2701 22.985 34.0787 23.1139C33.8872 23.2389 33.6587 23.3014 33.3931 23.3014C33.1236 23.3014 32.8931 23.2389 32.7017 23.1139C32.5142 22.985 32.4205 22.7546 32.4205 22.4225C32.4205 22.0866 32.5142 21.8581 32.7017 21.737C32.8931 21.612 33.1236 21.5495 33.3931 21.5495ZM39.8133 23.9928C40.5125 23.9928 41.075 24.1842 41.5008 24.5671C41.9266 24.946 42.1395 25.5553 42.1395 26.3952V30.6667H40.3524V26.8405C40.3524 26.3717 40.2664 26.0182 40.0945 25.7799C39.9266 25.5417 39.661 25.4225 39.2977 25.4225C38.7508 25.4225 38.3778 25.6081 38.1785 25.9792C37.9793 26.3503 37.8797 26.8854 37.8797 27.5846V30.6667H36.0926V24.1159H37.4578L37.6981 24.9538H37.7977C37.9383 24.7272 38.1121 24.5436 38.3192 24.403C38.5301 24.2624 38.7625 24.1589 39.0164 24.0924C39.2742 24.026 39.5399 23.9928 39.8133 23.9928ZM47.628 23.9928C48.3272 23.9928 48.8897 24.1842 49.3155 24.5671C49.7413 24.946 49.9542 25.5553 49.9542 26.3952V30.6667H48.1671V26.8405C48.1671 26.3717 48.0811 26.0182 47.9093 25.7799C47.7413 25.5417 47.4757 25.4225 47.1124 25.4225C46.5655 25.4225 46.1925 25.6081 45.9932 25.9792C45.794 26.3503 45.6944 26.8854 45.6944 27.5846V30.6667H43.9073V24.1159H45.2725L45.5128 24.9538H45.6124C45.753 24.7272 45.9268 24.5436 46.1339 24.403C46.3448 24.2624 46.5772 24.1589 46.8311 24.0924C47.089 24.026 47.3546 23.9928 47.628 23.9928ZM54.4232 23.9928C55.0287 23.9928 55.5502 24.11 55.9877 24.3444C56.4252 24.5749 56.763 24.9108 57.0013 25.3522C57.2396 25.7936 57.3587 26.3327 57.3587 26.9694V27.8366H53.1341C53.1537 28.3405 53.3041 28.737 53.5853 29.026C53.8705 29.3112 54.265 29.4538 54.7689 29.4538C55.1869 29.4538 55.5697 29.4108 55.9173 29.3249C56.265 29.2389 56.6224 29.11 56.9896 28.9382V30.321C56.6654 30.4811 56.3255 30.5983 55.9701 30.6725C55.6185 30.7467 55.1908 30.7839 54.6869 30.7839C54.0306 30.7839 53.4486 30.6628 52.9408 30.4206C52.4369 30.1784 52.0404 29.8092 51.7513 29.3132C51.4662 28.8171 51.3236 28.1921 51.3236 27.4382C51.3236 26.6725 51.4525 26.0358 51.7103 25.528C51.972 25.0163 52.3353 24.6335 52.8002 24.3796C53.265 24.1217 53.806 23.9928 54.4232 23.9928ZM54.4349 25.2643C54.0873 25.2643 53.7982 25.3757 53.5677 25.5983C53.3412 25.821 53.2103 26.1706 53.1752 26.6471H55.683C55.6791 26.3815 55.6302 26.1452 55.5365 25.9382C55.4466 25.7311 55.3099 25.5671 55.1263 25.446C54.9466 25.3249 54.7162 25.2643 54.4349 25.2643ZM62.3961 23.9928C62.486 23.9928 62.5895 23.9987 62.7067 24.0104C62.8278 24.0182 62.9254 24.0299 62.9996 24.0456L62.8649 25.7214C62.8063 25.7018 62.7223 25.6882 62.6129 25.6803C62.5075 25.6686 62.4157 25.6628 62.3375 25.6628C62.1071 25.6628 61.8825 25.6921 61.6637 25.7507C61.4489 25.8092 61.2555 25.9049 61.0836 26.0378C60.9118 26.1667 60.775 26.3385 60.6735 26.5534C60.5758 26.7643 60.527 27.0241 60.527 27.3327V30.6667H58.7399V24.1159H60.0934L60.3571 25.2174H60.445C60.5739 24.9948 60.734 24.7917 60.9254 24.6081C61.1207 24.4206 61.3414 24.2721 61.5875 24.1628C61.8375 24.0495 62.1071 23.9928 62.3961 23.9928ZM64.0585 30.0573C64.0585 29.7839 64.1249 29.5905 64.2577 29.4772C64.3905 29.36 64.5526 29.3014 64.744 29.3014C64.9433 29.3014 65.1112 29.36 65.248 29.4772C65.3847 29.5905 65.453 29.7839 65.453 30.0573C65.453 30.3268 65.3847 30.5241 65.248 30.6491C65.1112 30.7702 64.9433 30.8307 64.744 30.8307C64.5526 30.8307 64.3905 30.7702 64.2577 30.6491C64.1249 30.5241 64.0585 30.3268 64.0585 30.0573ZM64.0585 24.86C64.0585 24.5788 64.1249 24.3815 64.2577 24.2682C64.3905 24.151 64.5526 24.0924 64.744 24.0924C64.9433 24.0924 65.1112 24.151 65.248 24.2682C65.3847 24.3815 65.453 24.5788 65.453 24.86C65.453 25.1257 65.3847 25.319 65.248 25.4401C65.1112 25.5612 64.9433 25.6217 64.744 25.6217C64.5526 25.6217 64.3905 25.5612 64.2577 25.4401C64.1249 25.319 64.0585 25.1257 64.0585 24.86ZM75.0473 25.3991L74.6665 27.3913H76.3247V28.1354H74.52L74.0219 30.6667H73.2309L73.729 28.1354H71.9418L71.4614 30.6667H70.6821L71.145 28.1354H69.6098V27.3913H71.2915L71.684 25.3991H70.0551V24.6667H71.8188L72.3051 22.1003H73.1079L72.6215 24.6667H74.4204L74.9067 22.1003H75.6801L75.1938 24.6667H76.7465V25.3991H75.0473ZM72.0825 27.3913H73.8696L74.2563 25.3991H72.4692L72.0825 27.3913ZM83.2429 26.3717C83.2429 27.0671 83.1902 27.6882 83.0847 28.235C82.9792 28.7819 82.8132 29.2448 82.5866 29.6237C82.3601 30.0026 82.0671 30.2917 81.7077 30.4909C81.3484 30.6862 80.9167 30.7839 80.4128 30.7839C79.7761 30.7839 79.2487 30.61 78.8308 30.2624C78.4167 29.9147 78.1062 29.4128 77.8991 28.7565C77.696 28.0964 77.5945 27.3014 77.5945 26.3717C77.5945 25.4577 77.6862 24.6725 77.8698 24.0163C78.0573 23.3561 78.3581 22.8503 78.7722 22.4987C79.1862 22.1432 79.7331 21.9655 80.4128 21.9655C81.0573 21.9655 81.5886 22.1413 82.0066 22.4928C82.4245 22.8405 82.7351 23.3444 82.9382 24.0046C83.1413 24.6608 83.2429 25.4499 83.2429 26.3717ZM78.573 26.3717C78.573 27.1686 78.6335 27.8327 78.7546 28.3639C78.8757 28.8952 79.071 29.2936 79.3405 29.5592C79.614 29.821 79.9714 29.9518 80.4128 29.9518C80.8542 29.9518 81.2097 29.821 81.4792 29.5592C81.7527 29.2975 81.9499 28.901 82.071 28.3698C82.196 27.8385 82.2585 27.1725 82.2585 26.3717C82.2585 25.5866 82.198 24.9303 82.0769 24.403C81.9558 23.8717 81.7605 23.4733 81.4909 23.2077C81.2214 22.9382 80.862 22.8034 80.4128 22.8034C79.9636 22.8034 79.6042 22.9382 79.3347 23.2077C79.0652 23.4733 78.8698 23.8717 78.7487 24.403C78.6316 24.9303 78.573 25.5866 78.573 26.3717ZM90.0381 26.3717C90.0381 27.0671 89.9853 27.6882 89.8799 28.235C89.7744 28.7819 89.6084 29.2448 89.3818 29.6237C89.1553 30.0026 88.8623 30.2917 88.5029 30.4909C88.1435 30.6862 87.7119 30.7839 87.208 30.7839C86.5713 30.7839 86.0439 30.61 85.626 30.2624C85.2119 29.9147 84.9014 29.4128 84.6943 28.7565C84.4912 28.0964 84.3896 27.3014 84.3896 26.3717C84.3896 25.4577 84.4814 24.6725 84.665 24.0163C84.8525 23.3561 85.1533 22.8503 85.5674 22.4987C85.9814 22.1432 86.5283 21.9655 87.208 21.9655C87.8525 21.9655 88.3838 22.1413 88.8018 22.4928C89.2197 22.8405 89.5303 23.3444 89.7334 24.0046C89.9365 24.6608 90.0381 25.4499 90.0381 26.3717ZM85.3682 26.3717C85.3682 27.1686 85.4287 27.8327 85.5498 28.3639C85.6709 28.8952 85.8662 29.2936 86.1357 29.5592C86.4092 29.821 86.7666 29.9518 87.208 29.9518C87.6494 29.9518 88.0049 29.821 88.2744 29.5592C88.5478 29.2975 88.7451 28.901 88.8662 28.3698C88.9912 27.8385 89.0537 27.1725 89.0537 26.3717C89.0537 25.5866 88.9932 24.9303 88.8721 24.403C88.751 23.8717 88.5557 23.4733 88.2861 23.2077C88.0166 22.9382 87.6572 22.8034 87.208 22.8034C86.7588 22.8034 86.3994 22.9382 86.1299 23.2077C85.8603 23.4733 85.665 23.8717 85.5439 24.403C85.4268 24.9303 85.3682 25.5866 85.3682 26.3717ZM91.261 27.0046C91.261 26.4889 91.2962 25.985 91.3665 25.4928C91.4407 25.0007 91.5637 24.5436 91.7356 24.1217C91.9075 23.696 92.1419 23.3229 92.4387 23.0026C92.7356 22.6823 93.1048 22.4323 93.5462 22.2526C93.9915 22.069 94.5247 21.9772 95.1458 21.9772C95.3215 21.9772 95.511 21.987 95.7141 22.0065C95.9173 22.0221 96.0852 22.0495 96.218 22.0885V22.9264C96.0735 22.8757 95.9075 22.8385 95.72 22.8151C95.5364 22.7917 95.3508 22.7799 95.1633 22.7799C94.4368 22.7799 93.8645 22.9382 93.4465 23.2546C93.0325 23.571 92.7337 24.0007 92.5501 24.5436C92.3665 25.0827 92.261 25.6901 92.2337 26.3659H92.2981C92.4192 26.1706 92.5735 25.9948 92.761 25.8385C92.9485 25.6784 93.1751 25.5514 93.4407 25.4577C93.7102 25.3639 94.0227 25.3171 94.3782 25.3171C94.8782 25.3171 95.3137 25.4186 95.6848 25.6217C96.0598 25.8249 96.3489 26.1198 96.552 26.5065C96.759 26.8932 96.8626 27.362 96.8626 27.9128C96.8626 28.5026 96.7532 29.0124 96.5344 29.4421C96.3157 29.8717 96.0032 30.2038 95.5969 30.4382C95.1946 30.6686 94.7141 30.7839 94.1555 30.7839C93.7376 30.7839 93.3528 30.7038 93.0012 30.5436C92.6497 30.3835 92.343 30.1452 92.0813 29.8288C91.8235 29.5124 91.6223 29.1198 91.4778 28.651C91.3333 28.1784 91.261 27.6296 91.261 27.0046ZM94.1438 29.9635C94.6751 29.9635 95.1008 29.7936 95.4212 29.4538C95.7415 29.1139 95.9016 28.6003 95.9016 27.9128C95.9016 27.3503 95.759 26.9049 95.4739 26.5768C95.1887 26.2487 94.759 26.0846 94.1848 26.0846C93.7942 26.0846 93.4544 26.1667 93.1653 26.3307C92.8762 26.4909 92.6516 26.694 92.4915 26.9401C92.3313 27.1862 92.2512 27.4362 92.2512 27.6901C92.2512 27.9479 92.2883 28.2096 92.3626 28.4753C92.4407 28.7409 92.5579 28.987 92.7141 29.2135C92.8704 29.4401 93.0676 29.6217 93.3059 29.7585C93.5442 29.8952 93.8235 29.9635 94.1438 29.9635ZM103.265 24.0983C103.265 24.4811 103.191 24.8132 103.043 25.0944C102.894 25.3757 102.687 25.6061 102.421 25.7858C102.156 25.9616 101.843 26.0846 101.484 26.1549V26.2018C102.164 26.2878 102.673 26.5065 103.013 26.8581C103.357 27.2096 103.529 27.6706 103.529 28.2409C103.529 28.737 103.412 29.1764 103.177 29.5592C102.947 29.9421 102.591 30.2428 102.111 30.4616C101.634 30.6764 101.023 30.7839 100.277 30.7839C99.8238 30.7839 99.4038 30.7467 99.0171 30.6725C98.6343 30.6022 98.2671 30.4831 97.9156 30.3151V29.401C98.271 29.5768 98.6578 29.7155 99.0757 29.8171C99.4937 29.9147 99.898 29.9635 100.289 29.9635C101.07 29.9635 101.634 29.8092 101.982 29.5007C102.33 29.1882 102.503 28.7624 102.503 28.2233C102.503 27.8522 102.406 27.5534 102.21 27.3268C102.019 27.0964 101.742 26.9284 101.378 26.8229C101.019 26.7135 100.585 26.6589 100.078 26.6589H99.2222V25.8268H100.084C100.548 25.8268 100.943 25.7585 101.267 25.6217C101.591 25.485 101.837 25.2936 102.005 25.0475C102.177 24.7975 102.263 24.5026 102.263 24.1628C102.263 23.7292 102.119 23.3952 101.83 23.1608C101.541 22.9225 101.148 22.8034 100.652 22.8034C100.347 22.8034 100.07 22.8346 99.8199 22.8971C99.5699 22.9596 99.3355 23.0456 99.1167 23.1549C98.898 23.2643 98.6792 23.3913 98.4605 23.5358L97.9683 22.8678C98.2808 22.6257 98.6617 22.4167 99.1109 22.2409C99.5601 22.0651 100.07 21.9772 100.64 21.9772C101.515 21.9772 102.171 22.1764 102.609 22.5749C103.046 22.9733 103.265 23.4811 103.265 24.0983ZM110.717 30.6667L109.662 27.9479H106.228L105.179 30.6667H104.172L107.523 22.0651H108.42L111.748 30.6667H110.717ZM109.363 27.0632L108.361 24.362C108.338 24.2917 108.299 24.1764 108.244 24.0163C108.193 23.8561 108.14 23.6901 108.086 23.5182C108.031 23.3464 107.986 23.2077 107.951 23.1022C107.912 23.2624 107.869 23.4225 107.822 23.5827C107.779 23.7389 107.736 23.8854 107.693 24.0221C107.65 24.1549 107.613 24.2682 107.582 24.362L106.562 27.0632H109.363ZM117.582 24.0983C117.582 24.4811 117.508 24.8132 117.359 25.0944C117.211 25.3757 117.004 25.6061 116.738 25.7858C116.473 25.9616 116.16 26.0846 115.801 26.1549V26.2018C116.481 26.2878 116.99 26.5065 117.33 26.8581C117.674 27.2096 117.846 27.6706 117.846 28.2409C117.846 28.737 117.729 29.1764 117.494 29.5592C117.264 29.9421 116.908 30.2428 116.428 30.4616C115.951 30.6764 115.34 30.7839 114.594 30.7839C114.141 30.7839 113.721 30.7467 113.334 30.6725C112.951 30.6022 112.584 30.4831 112.232 30.3151V29.401C112.588 29.5768 112.975 29.7155 113.393 29.8171C113.811 29.9147 114.215 29.9635 114.606 29.9635C115.387 29.9635 115.951 29.8092 116.299 29.5007C116.647 29.1882 116.82 28.7624 116.82 28.2233C116.82 27.8522 116.723 27.5534 116.527 27.3268C116.336 27.0964 116.059 26.9284 115.695 26.8229C115.336 26.7135 114.902 26.6589 114.395 26.6589H113.539V25.8268H114.4C114.865 25.8268 115.26 25.7585 115.584 25.6217C115.908 25.485 116.154 25.2936 116.322 25.0475C116.494 24.7975 116.58 24.5026 116.58 24.1628C116.58 23.7292 116.436 23.3952 116.147 23.1608C115.857 22.9225 115.465 22.8034 114.969 22.8034C114.664 22.8034 114.387 22.8346 114.137 22.8971C113.887 22.9596 113.652 23.0456 113.434 23.1549C113.215 23.2643 112.996 23.3913 112.777 23.5358L112.285 22.8678C112.598 22.6257 112.979 22.4167 113.428 22.2409C113.877 22.0651 114.387 21.9772 114.957 21.9772C115.832 21.9772 116.488 22.1764 116.926 22.5749C117.363 22.9733 117.582 23.4811 117.582 24.0983ZM18.5781 42.1003H21.2441C22.3848 42.1003 23.248 42.2604 23.834 42.5807C24.4199 42.901 24.7129 43.4635 24.7129 44.2682C24.7129 44.5924 24.6602 44.8854 24.5547 45.1471C24.4531 45.4089 24.3047 45.6237 24.1094 45.7917C23.9141 45.9596 23.6758 46.069 23.3945 46.1198V46.1784C23.6797 46.237 23.9375 46.3385 24.168 46.4831C24.3984 46.6237 24.582 46.8307 24.7188 47.1042C24.8594 47.3737 24.9297 47.7331 24.9297 48.1823C24.9297 48.7018 24.8027 49.1471 24.5488 49.5182C24.2949 49.8893 23.9316 50.1745 23.459 50.3737C22.9902 50.569 22.4316 50.6667 21.7832 50.6667H18.5781V42.1003ZM20.3945 45.4928H21.4492C21.9766 45.4928 22.3418 45.4108 22.5449 45.2467C22.748 45.0788 22.8496 44.8327 22.8496 44.5085C22.8496 44.1803 22.7285 43.946 22.4863 43.8053C22.248 43.6608 21.8691 43.5885 21.3496 43.5885H20.3945V45.4928ZM20.3945 46.9342V49.1667H21.5781C22.125 49.1667 22.5059 49.0612 22.7207 48.8503C22.9355 48.6393 23.043 48.3561 23.043 48.0007C23.043 47.7897 22.9961 47.6042 22.9023 47.444C22.8086 47.2839 22.6504 47.1589 22.4277 47.069C22.209 46.9792 21.9062 46.9342 21.5195 46.9342H20.3945ZM32.3811 47.3796C32.3811 47.9264 32.3069 48.4108 32.1585 48.8327C32.0139 49.2546 31.801 49.612 31.5198 49.9049C31.2425 50.194 30.9065 50.4128 30.512 50.5612C30.1214 50.7096 29.68 50.7839 29.1878 50.7839C28.7268 50.7839 28.303 50.7096 27.9163 50.5612C27.5335 50.4128 27.1995 50.194 26.9143 49.9049C26.6331 49.612 26.4143 49.2546 26.2581 48.8327C26.1057 48.4108 26.0296 47.9264 26.0296 47.3796C26.0296 46.653 26.1585 46.0378 26.4163 45.5339C26.6741 45.0299 27.0413 44.6471 27.5178 44.3854C27.9944 44.1237 28.5628 43.9928 29.2229 43.9928C29.8362 43.9928 30.3792 44.1237 30.8518 44.3854C31.3284 44.6471 31.7014 45.0299 31.971 45.5339C32.2444 46.0378 32.3811 46.653 32.3811 47.3796ZM27.8518 47.3796C27.8518 47.8092 27.8987 48.1706 27.9925 48.4635C28.0862 48.7565 28.2327 48.9772 28.4319 49.1257C28.6311 49.2741 28.8909 49.3483 29.2112 49.3483C29.5276 49.3483 29.7835 49.2741 29.9788 49.1257C30.178 48.9772 30.3225 48.7565 30.4124 48.4635C30.5061 48.1706 30.553 47.8092 30.553 47.3796C30.553 46.946 30.5061 46.5866 30.4124 46.3014C30.3225 46.0124 30.178 45.7956 29.9788 45.651C29.7796 45.5065 29.5198 45.4342 29.1995 45.4342C28.7268 45.4342 28.3831 45.5964 28.1682 45.9206C27.9573 46.2448 27.8518 46.7311 27.8518 47.3796ZM37.4419 43.9928C37.5318 43.9928 37.6353 43.9987 37.7525 44.0104C37.8736 44.0182 37.9712 44.0299 38.0455 44.0456L37.9107 45.7214C37.8521 45.7018 37.7681 45.6882 37.6587 45.6803C37.5533 45.6686 37.4615 45.6628 37.3833 45.6628C37.1529 45.6628 36.9283 45.6921 36.7095 45.7507C36.4947 45.8092 36.3013 45.9049 36.1294 46.0378C35.9576 46.1667 35.8208 46.3385 35.7193 46.5534C35.6216 46.7643 35.5728 47.0241 35.5728 47.3327V50.6667H33.7857V44.1159H35.1392L35.4029 45.2174H35.4908C35.6197 44.9948 35.7798 44.7917 35.9712 44.6081C36.1665 44.4206 36.3872 44.2721 36.6333 44.1628C36.8833 44.0495 37.1529 43.9928 37.4419 43.9928ZM41.2371 50.7839C40.5067 50.7839 39.911 50.4987 39.45 49.9284C38.993 49.3542 38.7645 48.5124 38.7645 47.403C38.7645 46.2819 38.9969 45.4342 39.4617 44.86C39.9266 44.2819 40.534 43.9928 41.284 43.9928C41.5965 43.9928 41.8719 44.0358 42.1102 44.1217C42.3485 44.2077 42.5535 44.3229 42.7254 44.4674C42.9012 44.612 43.0496 44.7741 43.1707 44.9538H43.2293C43.2059 44.8288 43.1766 44.6452 43.1414 44.403C43.1102 44.1569 43.0945 43.9049 43.0945 43.6471V41.5495H44.8875V50.6667H43.5164L43.1707 49.8171H43.0945C42.9813 49.9967 42.8387 50.1608 42.6668 50.3092C42.4988 50.4538 42.2977 50.569 42.0633 50.6549C41.8289 50.7409 41.5535 50.7839 41.2371 50.7839ZM41.8641 49.36C42.3524 49.36 42.6961 49.2155 42.8953 48.9264C43.0985 48.6335 43.2059 48.194 43.2176 47.6081V47.4147C43.2176 46.778 43.1199 46.2917 42.9246 45.9557C42.7293 45.6159 42.366 45.446 41.8348 45.446C41.4403 45.446 41.1317 45.6159 40.909 45.9557C40.6863 46.2956 40.575 46.7858 40.575 47.4264C40.575 48.0671 40.6863 48.5495 40.909 48.8737C41.1356 49.1979 41.4539 49.36 41.8641 49.36ZM49.3858 43.9928C49.9913 43.9928 50.5128 44.11 50.9503 44.3444C51.3878 44.5749 51.7257 44.9108 51.964 45.3522C52.2022 45.7936 52.3214 46.3327 52.3214 46.9694V47.8366H48.0968C48.1163 48.3405 48.2667 48.737 48.5479 49.026C48.8331 49.3112 49.2276 49.4538 49.7315 49.4538C50.1495 49.4538 50.5323 49.4108 50.88 49.3249C51.2276 49.2389 51.585 49.11 51.9522 48.9382V50.321C51.628 50.4811 51.2882 50.5983 50.9327 50.6725C50.5811 50.7467 50.1534 50.7839 49.6495 50.7839C48.9932 50.7839 48.4112 50.6628 47.9034 50.4206C47.3995 50.1784 47.003 49.8092 46.714 49.3132C46.4288 48.8171 46.2862 48.1921 46.2862 47.4382C46.2862 46.6725 46.4151 46.0358 46.6729 45.528C46.9347 45.0163 47.2979 44.6335 47.7628 44.3796C48.2276 44.1217 48.7686 43.9928 49.3858 43.9928ZM49.3975 45.2643C49.0499 45.2643 48.7608 45.3757 48.5304 45.5983C48.3038 45.821 48.1729 46.1706 48.1378 46.6471H50.6456C50.6417 46.3815 50.5929 46.1452 50.4991 45.9382C50.4093 45.7311 50.2725 45.5671 50.089 45.446C49.9093 45.3249 49.6788 45.2643 49.3975 45.2643ZM57.3587 43.9928C57.4486 43.9928 57.5521 43.9987 57.6693 44.0104C57.7904 44.0182 57.888 44.0299 57.9623 44.0456L57.8275 45.7214C57.7689 45.7018 57.6849 45.6882 57.5755 45.6803C57.4701 45.6686 57.3783 45.6628 57.3002 45.6628C57.0697 45.6628 56.8451 45.6921 56.6263 45.7507C56.4115 45.8092 56.2181 45.9049 56.0462 46.0378C55.8744 46.1667 55.7377 46.3385 55.6361 46.5534C55.5384 46.7643 55.4896 47.0241 55.4896 47.3327V50.6667H53.7025V44.1159H55.056L55.3197 45.2174H55.4076C55.5365 44.9948 55.6966 44.7917 55.888 44.6081C56.0834 44.4206 56.3041 44.2721 56.5502 44.1628C56.8002 44.0495 57.0697 43.9928 57.3587 43.9928ZM59.0211 50.0573C59.0211 49.7839 59.0875 49.5905 59.2203 49.4772C59.3532 49.36 59.5153 49.3014 59.7067 49.3014C59.9059 49.3014 60.0739 49.36 60.2106 49.4772C60.3473 49.5905 60.4157 49.7839 60.4157 50.0573C60.4157 50.3268 60.3473 50.5241 60.2106 50.6491C60.0739 50.7702 59.9059 50.8307 59.7067 50.8307C59.5153 50.8307 59.3532 50.7702 59.2203 50.6491C59.0875 50.5241 59.0211 50.3268 59.0211 50.0573ZM59.0211 44.86C59.0211 44.5788 59.0875 44.3815 59.2203 44.2682C59.3532 44.151 59.5153 44.0924 59.7067 44.0924C59.9059 44.0924 60.0739 44.151 60.2106 44.2682C60.3473 44.3815 60.4157 44.5788 60.4157 44.86C60.4157 45.1257 60.3473 45.319 60.2106 45.4401C60.0739 45.5612 59.9059 45.6217 59.7067 45.6217C59.5153 45.6217 59.3532 45.5612 59.2203 45.4401C59.0875 45.319 59.0211 45.1257 59.0211 44.86ZM68.4806 50.6667H67.5314V44.5964C67.5314 44.3659 67.5314 44.1686 67.5314 44.0046C67.5353 43.8366 67.5392 43.6842 67.5431 43.5475C67.551 43.4069 67.5607 43.2643 67.5724 43.1198C67.4513 43.2448 67.3381 43.3522 67.2326 43.4421C67.1271 43.528 66.9963 43.6354 66.84 43.7643L65.8615 44.5495L65.3517 43.8874L67.672 42.1003H68.4806V50.6667ZM74.3618 45.4284C74.9438 45.4284 75.4497 45.528 75.8793 45.7272C76.309 45.9225 76.6411 46.2077 76.8754 46.5827C77.1137 46.9577 77.2329 47.4128 77.2329 47.9479C77.2329 48.5339 77.1059 49.0397 76.852 49.4655C76.5981 49.8874 76.2329 50.2135 75.7563 50.444C75.2797 50.6706 74.7094 50.7839 74.0454 50.7839C73.6 50.7839 73.186 50.7448 72.8032 50.6667C72.4204 50.5885 72.0981 50.4714 71.8364 50.3151V49.3893C72.1215 49.5612 72.4672 49.6979 72.8735 49.7995C73.2797 49.901 73.6743 49.9518 74.0571 49.9518C74.4907 49.9518 74.8696 49.8835 75.1938 49.7467C75.5219 49.6061 75.7758 49.3952 75.9555 49.1139C76.1391 48.8288 76.2309 48.4714 76.2309 48.0417C76.2309 47.4714 76.0551 47.0319 75.7036 46.7233C75.3559 46.4108 74.8051 46.2546 74.0512 46.2546C73.809 46.2546 73.5434 46.2741 73.2543 46.3132C72.9653 46.3522 72.727 46.3952 72.5395 46.4421L72.0473 46.1198L72.3754 42.1003H76.6352V42.9909H73.2075L72.9907 45.5749C73.1391 45.5436 73.3305 45.5124 73.5649 45.4811C73.7993 45.446 74.0649 45.4284 74.3618 45.4284ZM80.196 41.9772C80.782 41.9772 81.2253 42.2116 81.5261 42.6803C81.8308 43.1452 81.9831 43.8034 81.9831 44.6549C81.9831 45.5065 81.8366 46.1706 81.5437 46.6471C81.2507 47.1198 80.8015 47.3561 80.196 47.3561C79.6335 47.3561 79.2019 47.1198 78.9011 46.6471C78.6042 46.1706 78.4558 45.5065 78.4558 44.6549C78.4558 43.8034 78.5984 43.1452 78.8835 42.6803C79.1687 42.2116 79.6062 41.9772 80.196 41.9772ZM80.196 42.6745C79.8796 42.6745 79.6472 42.8405 79.4987 43.1725C79.3503 43.5007 79.2761 43.9948 79.2761 44.6549C79.2761 45.3151 79.3503 45.8132 79.4987 46.1491C79.6472 46.485 79.8796 46.653 80.196 46.653C80.5241 46.653 80.7683 46.485 80.9284 46.1491C81.0886 45.8132 81.1687 45.3151 81.1687 44.6549C81.1687 43.9987 81.0886 43.5046 80.9284 43.1725C80.7722 42.8405 80.528 42.6745 80.196 42.6745ZM85.6218 42.1003L80.8698 50.6667H80.0144L84.7663 42.1003H85.6218ZM85.3933 45.4108C85.9753 45.4108 86.4187 45.6452 86.7234 46.1139C87.028 46.5788 87.1804 47.237 87.1804 48.0885C87.1804 48.9362 87.0339 49.5983 86.7409 50.0749C86.448 50.5475 85.9987 50.7839 85.3933 50.7839C84.8269 50.7839 84.3952 50.5475 84.0984 50.0749C83.8015 49.5983 83.653 48.9362 83.653 48.0885C83.653 47.237 83.7937 46.5788 84.0749 46.1139C84.3601 45.6452 84.7995 45.4108 85.3933 45.4108ZM85.3933 46.1139C85.0769 46.1139 84.8445 46.278 84.696 46.6061C84.5476 46.9342 84.4734 47.4284 84.4734 48.0885C84.4734 48.7487 84.5476 49.2467 84.696 49.5827C84.8445 49.9147 85.0769 50.0807 85.3933 50.0807C85.7214 50.0807 85.9655 49.9167 86.1257 49.5885C86.2859 49.2565 86.3659 48.7565 86.3659 48.0885C86.3659 47.4323 86.2859 46.9401 86.1257 46.612C85.9695 46.2799 85.7253 46.1139 85.3933 46.1139ZM92.7551 44.2448V50.6667H91.7825V44.2448H92.7551ZM92.2805 41.8424C92.4407 41.8424 92.5774 41.8952 92.6907 42.0007C92.8079 42.1022 92.8665 42.2624 92.8665 42.4811C92.8665 42.696 92.8079 42.8561 92.6907 42.9616C92.5774 43.0671 92.4407 43.1198 92.2805 43.1198C92.1126 43.1198 91.9719 43.0671 91.8587 42.9616C91.7493 42.8561 91.6946 42.696 91.6946 42.4811C91.6946 42.2624 91.7493 42.1022 91.8587 42.0007C91.9719 41.8952 92.1126 41.8424 92.2805 41.8424ZM97.7867 44.1276C98.5484 44.1276 99.1245 44.3151 99.5152 44.6901C99.9058 45.0612 100.101 45.6589 100.101 46.4831V50.6667H99.1402V46.5475C99.1402 46.0124 99.0171 45.612 98.771 45.3464C98.5288 45.0807 98.1558 44.9479 97.6519 44.9479C96.941 44.9479 96.441 45.1491 96.1519 45.5514C95.8628 45.9538 95.7183 46.5378 95.7183 47.3034V50.6667H94.7456V44.2448H95.5308L95.6773 45.1706H95.73C95.8667 44.944 96.0406 44.7546 96.2515 44.6022C96.4624 44.446 96.6988 44.3288 96.9605 44.2507C97.2222 44.1686 97.4976 44.1276 97.7867 44.1276ZM106.187 48.9089C106.187 49.319 106.084 49.6647 105.877 49.946C105.674 50.2233 105.381 50.4323 104.998 50.5729C104.619 50.7135 104.166 50.7839 103.638 50.7839C103.189 50.7839 102.801 50.7487 102.472 50.6784C102.144 50.6081 101.857 50.5085 101.611 50.3796V49.4831C101.873 49.612 102.185 49.7292 102.549 49.8346C102.912 49.9401 103.283 49.9928 103.662 49.9928C104.217 49.9928 104.619 49.903 104.869 49.7233C105.119 49.5436 105.244 49.2995 105.244 48.9909C105.244 48.8151 105.193 48.6608 105.092 48.528C104.994 48.3913 104.828 48.2604 104.594 48.1354C104.359 48.0065 104.035 47.8659 103.621 47.7135C103.211 47.5573 102.855 47.403 102.554 47.2507C102.258 47.0944 102.027 46.9049 101.863 46.6823C101.703 46.4596 101.623 46.1706 101.623 45.8151C101.623 45.2721 101.842 44.8561 102.279 44.5671C102.721 44.2741 103.299 44.1276 104.013 44.1276C104.4 44.1276 104.762 44.1667 105.097 44.2448C105.437 44.319 105.754 44.4206 106.047 44.5495L105.719 45.3288C105.453 45.2155 105.17 45.1198 104.869 45.0417C104.568 44.9635 104.262 44.9245 103.949 44.9245C103.5 44.9245 103.154 44.9987 102.912 45.1471C102.674 45.2956 102.554 45.4987 102.554 45.7565C102.554 45.9557 102.609 46.1198 102.719 46.2487C102.832 46.3776 103.012 46.4987 103.258 46.612C103.504 46.7253 103.828 46.8581 104.23 47.0104C104.633 47.1589 104.98 47.3132 105.273 47.4733C105.566 47.6296 105.791 47.821 105.947 48.0475C106.107 48.2702 106.187 48.5573 106.187 48.9089ZM108.652 44.2448V50.6667H107.68V44.2448H108.652ZM108.178 41.8424C108.338 41.8424 108.475 41.8952 108.588 42.0007C108.705 42.1022 108.764 42.2624 108.764 42.4811C108.764 42.696 108.705 42.8561 108.588 42.9616C108.475 43.0671 108.338 43.1198 108.178 43.1198C108.01 43.1198 107.869 43.0671 107.756 42.9616C107.647 42.8561 107.592 42.696 107.592 42.4811C107.592 42.2624 107.647 42.1022 107.756 42.0007C107.869 41.8952 108.01 41.8424 108.178 41.8424ZM112.928 50.7839C112.116 50.7839 111.471 50.5065 110.994 49.9518C110.522 49.3971 110.285 48.5729 110.285 47.4792C110.285 46.3737 110.528 45.5397 111.012 44.9772C111.496 44.4108 112.141 44.1276 112.946 44.1276C113.285 44.1276 113.582 44.1725 113.836 44.2624C114.09 44.3522 114.309 44.4733 114.493 44.6257C114.676 44.7741 114.83 44.944 114.955 45.1354H115.026C115.01 45.0143 114.994 44.8483 114.979 44.6374C114.963 44.4264 114.955 44.2546 114.955 44.1217V41.5495H115.928V50.6667H115.143L114.996 49.7526H114.955C114.834 49.944 114.68 50.1178 114.493 50.2741C114.309 50.4303 114.088 50.5553 113.83 50.6491C113.577 50.7389 113.276 50.7839 112.928 50.7839ZM113.08 49.9753C113.768 49.9753 114.254 49.7799 114.539 49.3893C114.825 48.9987 114.967 48.4186 114.967 47.6491V47.4733C114.967 46.6569 114.83 46.0299 114.557 45.5924C114.287 45.1549 113.795 44.9362 113.08 44.9362C112.483 44.9362 112.035 45.1667 111.739 45.6276C111.442 46.0846 111.293 46.7096 111.293 47.5026C111.293 48.2917 111.44 48.901 111.733 49.3307C112.03 49.7604 112.479 49.9753 113.08 49.9753ZM120.391 44.1276C120.938 44.1276 121.407 44.2487 121.797 44.4909C122.188 44.7331 122.487 45.0729 122.694 45.5104C122.901 45.944 123.005 46.4518 123.005 47.0339V47.6374H118.569C118.581 48.3913 118.768 48.9655 119.131 49.36C119.495 49.7546 120.006 49.9518 120.667 49.9518C121.073 49.9518 121.432 49.9147 121.745 49.8405C122.057 49.7663 122.381 49.6569 122.717 49.5124V50.3678C122.393 50.5124 122.071 50.6178 121.751 50.6842C121.434 50.7507 121.059 50.7839 120.626 50.7839C120.008 50.7839 119.469 50.6589 119.008 50.4089C118.551 50.1549 118.196 49.7839 117.942 49.2956C117.688 48.8073 117.561 48.2096 117.561 47.5026C117.561 46.8112 117.676 46.2135 117.907 45.7096C118.141 45.2018 118.469 44.8112 118.891 44.5378C119.317 44.2643 119.817 44.1276 120.391 44.1276ZM120.38 44.9245C119.86 44.9245 119.446 45.0944 119.137 45.4342C118.829 45.7741 118.645 46.2487 118.587 46.8581H121.985C121.981 46.4753 121.921 46.1393 121.803 45.8503C121.69 45.5573 121.516 45.3307 121.282 45.1706C121.047 45.0065 120.747 44.9245 120.38 44.9245Z"/><path fill="#0063A3" fill-rule="evenodd" d="M276.157 50.3807C284.45 42.0879 284.512 28.7047 276.296 20.4886C268.531 12.7238 256.152 12.3529 247.815 19.3356C247.005 20.0138 247.009 21.2331 247.756 21.9801V21.9801C248.503 22.727 249.709 22.717 250.532 22.0548C257.348 16.5712 267.296 16.9486 273.566 23.2188C280.288 29.941 280.237 40.8909 273.452 47.6759C267.132 53.996 257.199 54.4733 250.434 49.0763C249.601 48.4114 248.384 48.4009 247.63 49.1547V49.1547C246.876 49.9086 246.872 51.1395 247.691 51.8214C255.963 58.7031 268.328 58.2095 276.157 50.3807Z" clip-rule="evenodd"/></svg>