<svg width="78" height="56" viewBox="0 0 78 56" fill="none" xmlns="http://www.w3.org/2000/svg">
<rect width="64" height="32" rx="16" transform="matrix(1 0 0 -1 7 44)" fill="#217CBB"/>
<path d="M68 28C68 35.1797 62.1797 41 55 41C47.8203 41 42 35.1797 42 28C42 20.8203 47.8203 15 55 15C62.1797 15 68 20.8203 68 28Z" fill="white"/>
<path d="M52.6667 34.2084L51.2917 32.8334L49.9583 31.5L48.5833 30.125L47.25 28.7917L47.7917 28.2084L48.375 27.625L48.9583 27.0834L49.5417 26.5L50.2917 27.2917L51.0833 28.0417L51.875 28.8334L52.6667 29.625L54.625 27.6667L56.5833 25.7084L58.5417 23.75L60.4583 21.7917L61.0417 22.375L61.625 22.9584L62.2083 23.5L62.75 24.0834L60.25 26.625L57.7083 29.1667L55.1667 31.6667L52.6667 34.2084Z" fill="#217CBB"/>
</svg>
