<svg fill="none" height="57" viewBox="0 0 144 57" width="144" xmlns="http://www.w3.org/2000/svg"><rect fill="#217cbb" height="32" rx="16" transform="matrix(1 0 0 -1 7 44.6668)" width="64"/><path d="m68 28.6668c0 7.1797-5.8203 13-13 13s-13-5.8203-13-13 5.8203-13 13-13 13 5.8203 13 13z" fill="#fff"/><path d="m88.1592 37.6668v-15.7051h1.8262v14.0508h6.9287v1.6543zm18.6518 0-.355-1.6758h-.086c-.587.7377-1.174 1.239-1.762 1.5039-.58.2578-1.307.3868-2.18.3868-1.168 0-2.084-.3008-2.7503-.9024-.6588-.6016-.9882-1.4573-.9882-2.5674 0-2.3776 1.9015-3.6237 5.7045-3.7383l1.998-.0644v-.7305c0-.9238-.201-1.6041-.602-2.041-.394-.444-1.028-.666-1.901-.666-.981 0-2.091.3008-3.33.9023l-.548-1.3642c.58-.3151 1.214-.5622 1.901-.7412.695-.1791 1.389-.2686 2.084-.2686 1.404 0 2.442.3115 3.115.9346.681.623 1.021 1.6221 1.021 2.9971v8.0351zm-4.029-1.2568c1.11 0 1.98-.3044 2.611-.9131.637-.6087.956-1.461.956-2.5567v-1.0634l-1.784.0752c-1.418.0501-2.442.2721-3.072.666-.623.3867-.934.9918-.934 1.8154 0 .6445.193 1.1351.58 1.4717.394.3366.941.5049 1.643.5049zm14.763-10.71c1.547 0 2.746.53 3.599 1.5899.859 1.0527 1.289 2.5459 1.289 4.4794 0 1.9336-.434 3.4375-1.3 4.5118-.86 1.067-2.056 1.6006-3.588 1.6006-.766 0-1.468-.1397-2.106-.419-.63-.2865-1.16-.7233-1.589-1.3105h-.129l-.376 1.5146h-1.279v-16.7148h1.784v4.0605c0 .9095-.029 1.7259-.086 2.4492h.086c.83-1.1744 2.062-1.7617 3.695-1.7617zm-.258 1.4932c-1.217 0-2.095.3509-2.632 1.0527-.537.6947-.805 1.8692-.805 3.5234 0 1.6543.275 2.8396.827 3.5557.551.709 1.436 1.0635 2.653 1.0635 1.096 0 1.912-.3975 2.449-1.1924.537-.8021.806-1.9515.806-3.4482 0-1.5326-.269-2.6748-.806-3.4268-.537-.7519-1.368-1.1279-2.492-1.1279zm13.495 10.6885c-1.74 0-3.115-.53-4.125-1.5899-1.002-1.0599-1.504-2.5316-1.504-4.415 0-1.8978.466-3.4053 1.397-4.5225.938-1.1172 2.195-1.6758 3.77-1.6758 1.476 0 2.643.487 3.502 1.461.86.9668 1.289 2.2451 1.289 3.8349v1.128h-8.11c.036 1.3821.383 2.4313 1.042 3.1474.666.7162 1.601 1.0742 2.804 1.0742 1.267 0 2.521-.2649 3.759-.7949v1.5899c-.63.2721-1.228.4655-1.794.58-.558.1218-1.235.1827-2.03.1827zm-.483-10.71c-.945 0-1.701.3079-2.267.9238-.558.6159-.888 1.4681-.988 2.5567h6.155c0-1.1244-.25-1.9838-.752-2.5782-.501-.6015-1.217-.9023-2.148-.9023zm9.896 10.4951h-1.783v-16.7148h1.783z" fill="#252a2e"/></svg>