<svg width="1087" height="162" viewBox="0 0 1087 162" fill="none" xmlns="http://www.w3.org/2000/svg">
<rect width="1087" height="162" fill="#353A40"/>
<rect width="64" height="32" rx="16" transform="matrix(1 0 0 -1 291.5 97)" fill="#90939F"/>
<path d="M316.833 81C316.833 86.1547 312.654 90.3334 307.5 90.3334C302.345 90.3334 298.167 86.1547 298.167 81C298.167 75.8454 302.345 71.6667 307.5 71.6667C312.654 71.6667 316.833 75.8454 316.833 81Z" fill="#fff"/>
<g opacity="0.4">
<rect width="64" height="32" rx="16" transform="matrix(1 0 0 -1 379.5 97)" fill="#90939F"/>
<path d="M404.833 81C404.833 86.1547 400.654 90.3334 395.5 90.3334C390.345 90.3334 386.167 86.1547 386.167 81C386.167 75.8454 390.345 71.6667 395.5 71.6667C400.654 71.6667 404.833 75.8454 404.833 81Z" fill="#fff"/>
</g>
<rect width="64" height="32" rx="16" transform="matrix(1 0 0 -1 467.5 97)" fill="#019AEB"/>
<path d="M528.5 81C528.5 88.1797 522.68 94 515.5 94C508.32 94 502.5 88.1797 502.5 81C502.5 73.8203 508.32 68 515.5 68C522.68 68 528.5 73.8203 528.5 81Z" fill="#fff"/>
<g opacity="0.4">
<rect width="64" height="32" rx="16" transform="matrix(1 0 0 -1 555.5 97)" fill="#019AEB"/>
<path d="M616.5 81C616.5 88.1797 610.68 94 603.5 94C596.32 94 590.5 88.1797 590.5 81C590.5 73.8203 596.32 68 603.5 68C610.68 68 616.5 73.8203 616.5 81Z" fill="#fff"/>
</g>
<rect width="64" height="32" rx="16" transform="matrix(1 0 0 -1 643.5 97)" fill="#019AEB"/>
<path d="M704.5 81C704.5 88.1797 698.68 94 691.5 94C684.32 94 678.5 88.1797 678.5 81C678.5 73.8203 684.32 68 691.5 68C698.68 68 704.5 73.8203 704.5 81Z" fill="#fff"/>
<path d="M689.167 87.2084L687.792 85.8334L686.458 84.5L685.083 83.125L683.75 81.7917L684.292 81.2084L684.875 80.625L685.458 80.0834L686.042 79.5L686.792 80.2917L687.583 81.0417L688.375 81.8334L689.167 82.625L691.125 80.6667L693.083 78.7084L695.042 76.75L696.958 74.7917L697.542 75.375L698.125 75.9584L698.708 76.5L699.25 77.0834L696.75 79.625L694.208 82.1667L691.667 84.6667L689.167 87.2084Z" fill="#217CBB"/>
<g opacity="0.4">
<rect width="64" height="32" rx="16" transform="matrix(1 0 0 -1 731.5 97)" fill="#019AEB"/>
<path d="M792.5 81C792.5 88.1797 786.68 94 779.5 94C772.32 94 766.5 88.1797 766.5 81C766.5 73.8203 772.32 68 779.5 68C786.68 68 792.5 73.8203 792.5 81Z" fill="#fff"/>
<path d="M777.167 87.2084L775.792 85.8334L774.458 84.5L773.083 83.125L771.75 81.7917L772.292 81.2084L772.875 80.625L773.458 80.0834L774.042 79.5L774.792 80.2917L775.583 81.0417L776.375 81.8334L777.167 82.625L779.125 80.6667L781.083 78.7084L783.042 76.75L784.958 74.7917L785.542 75.375L786.125 75.9584L786.708 76.5L787.25 77.0834L784.75 79.625L782.208 82.1667L779.667 84.6667L777.167 87.2084Z" fill="#217CBB"/>
</g>
</svg>
