<svg fill="none" height="56" viewBox="0 0 118 56" width="118" xmlns="http://www.w3.org/2000/svg"><g fill="#252a2e"><path d="m8.00008 15.6667c-.5894 0-1.14893.1171-1.65848.3284-.51016.2116-1.09522-.0305-1.30678-.5407-.21155-.5101.03051-1.0952.54067-1.3067.74814-.3103 1.56769-.481 2.42459-.481h2.00002c.5523 0 1 .4477 1 1s-.4477 1-1 1z"/><path d="m13.0001 14.6667c0-.5523.4477-1 1-1h4c.5523 0 1 .4477 1 1s-.4477 1-1 1h-4c-.5523 0-1-.4477-1-1z"/><path d="m21.0001 14.6667c0-.5523.4477-1 1-1h2c.8569 0 1.6764.1707 2.4246.481.5101.2115.7522.7966.5406 1.3067-.2115.5102-.7966.7523-1.3067.5407-.5096-.2113-1.0691-.3284-1.6585-.3284h-2c-.5523 0-1-.4477-1-1z"/><path d="m3.4545 17.0348c.51016.2115.75223.7966.54067 1.3067-.2113.5096-.32842 1.0691-.32842 1.6585v2c0 .5523-.44772 1-1 1-.55229 0-1-.4477-1-1v-2c0-.8569.17073-1.6764.48097-2.4246.21155-.5101.79662-.7522 1.30678-.5406z"/><path d="m28.5457 17.0348c.5101-.2116 1.0952.0305 1.3067.5406.3103.7482.481 1.5677.481 2.4246v2c0 .5523-.4477 1-1 1s-1-.4477-1-1v-2c0-.5894-.1171-1.1489-.3284-1.6585-.2116-.5101.0305-1.0952.5407-1.3067z"/><path d="m2.66675 25c.55228 0 1 .4477 1 1v4c0 .5523-.44772 1-1 1-.55229 0-1-.4477-1-1v-4c0-.5523.44771-1 1-1z"/><path d="m29.3334 25c.5523 0 1 .4477 1 1v4c0 .5523-.4477 1-1 1s-1-.4477-1-1v-4c0-.5523.4477-1 1-1z"/><path d="m2.66675 33c.55228 0 1 .4477 1 1v2c0 .5894.11712 1.149.32842 1.6585.21155.5102-.03051 1.0952-.54067 1.3068-.51016.2115-1.09523-.0305-1.30678-.5407-.31024-.7481-.48097-1.5677-.48097-2.4246v-2c0-.5523.44771-1 1-1z"/><path d="m29.3334 33c.5523 0 1 .4477 1 1v2c0 .8569-.1707 1.6765-.481 2.4246-.2115.5102-.7966.7522-1.3067.5407-.5102-.2116-.7523-.7966-.5407-1.3068.2113-.5095.3284-1.0691.3284-1.6585v-2c0-.5523.4477-1 1-1z"/><path d="m5.03482 40.5456c.21155-.5102.79662-.7522 1.30678-.5407.50955.2113 1.06908.3285 1.65848.3285h2.00002c.5523 0 1 .4477 1 1 0 .5522-.4477 1-1 1h-2.00002c-.8569 0-1.67645-.1708-2.42459-.481-.51016-.2116-.75222-.7966-.54067-1.3068z"/><path d="m26.9653 40.5456c.2116.5102-.0305 1.0952-.5406 1.3068-.7482.3102-1.5677.481-2.4246.481h-2c-.5523 0-1-.4478-1-1 0-.5523.4477-1 1-1h2c.5894 0 1.1489-.1172 1.6585-.3285.5101-.2115 1.0952.0305 1.3067.5407z"/><path d="m13.0001 41.3334c0-.5523.4477-1 1-1h4c.5523 0 1 .4477 1 1 0 .5522-.4477 1-1 1h-4c-.5523 0-1-.4478-1-1z"/><path d="m27.3739 18.1213c.3905-.3905.3905-1.0236 0-1.4142-.3906-.3905-1.0237-.3905-1.4143 0l-1.3282 1.3283c-.3906.3905-.3906 1.0237 0 1.4142.3905.3905 1.0237.3905 1.4142 0z"/><path d="m23.389 22.1062c.3905-.3905.3905-1.0237 0-1.4142-.3905-.3906-1.0237-.3906-1.4142 0l-2.6566 2.6565c-.3905.3905-.3905 1.0237 0 1.4142.3906.3906 1.0237.3906 1.4143 0z"/><path d="m18.0759 27.4193c.3905-.3905.3905-1.0237 0-1.4142s-1.0237-.3905-1.4142 0l-.6616.6616-.6616-.6616c-.3906-.3905-1.0237-.3905-1.4142 0-.3906.3905-.3906 1.0237 0 1.4142l.6616.6616-.5808.5807c-.3905.3906-.3905 1.0237 0 1.4142.3906.3906 1.0237.3906 1.4143 0l.5807-.5807.5807.5807c.3905.3906 1.0237.3906 1.4142 0 .3905-.3905.3905-1.0236 0-1.4142l-.5807-.5807z"/><path d="m12.7628 32.7324c.3905-.3905.3905-1.0237 0-1.4142s-1.0237-.3905-1.4142 0l-2.65658 2.6565c-.39052.3906-.39052 1.0237 0 1.4143.39053.3905 1.02369.3905 1.41418 0z"/><path d="m7.44968 38.0455c.39052-.3905.39052-1.0237 0-1.4142-.39053-.3905-1.02369-.3905-1.41421 0l-1.32828 1.3283c-.39053.3905-.39053 1.0237 0 1.4142.39052.3905 1.02369.3905 1.41421 0z"/><path d="m25.8788 39.3738c.3905.3905 1.0237.3905 1.4142 0s.3905-1.0237 0-1.4142l-1.3283-1.3283c-.3905-.3905-1.0237-.3905-1.4142 0s-.3905 1.0237 0 1.4142z"/><path d="m21.8939 35.389c.3906.3905 1.0237.3905 1.4142 0 .3906-.3906.3906-1.0237 0-1.4143l-2.6565-2.6565c-.3905-.3905-1.0237-.3905-1.4142 0-.3906.3905-.3906 1.0237 0 1.4142z"/><path d="m11.2677 24.7627c.3905.3906 1.0237.3906 1.4142 0 .3905-.3905.3905-1.0237 0-1.4142l-2.6565-2.6565c-.39057-.3906-1.02374-.3906-1.41426 0-.39052.3905-.39052 1.0237 0 1.4142z"/><path d="m5.95458 19.4496c.39053.3905 1.02369.3905 1.41422 0 .39052-.3905.39052-1.0237 0-1.4142l-1.32828-1.3283c-.39053-.3905-1.02369-.3905-1.41421 0-.39053.3906-.39053 1.0237 0 1.4142z"/><path d="m12.0747 21.1854c.3971-.1203.8194-.1854 1.2587-.1854h1c.5523 0 1-.4477 1-1s-.4477-1-1-1h-1c-.6379 0-1.2555.0947-1.8387.2713-.5285.1602-.8272.7185-.667 1.247.1601.5286.7184.8272 1.247.6671z"/><path d="m17.6667 19c-.5522 0-1 .4477-1 1s.4478 1 1 1h1c.4394 0 .8617.0651 1.2588.1854.5286.1601 1.0869-.1385 1.247-.6671.1601-.5285-.1385-1.0868-.6671-1.247-.5831-.1766-1.2007-.2713-1.8387-.2713z"/><path d="m9.18546 24.0746c.16014-.5286-.13853-1.0869-.66709-1.247-.52855-.1601-1.08685.1385-1.24699.6671-.17667.5831-.2713 1.2007-.2713 1.8387v1c0 .5522.44772 1 1 1 .55229 0 1-.4478 1-1v-1c0-.4394.06506-.8617.18538-1.2588z"/><path d="m24.7288 23.4947c-.1602-.5286-.7185-.8272-1.247-.6671-.5286.1601-.8272.7184-.6671 1.247.1203.3971.1854.8194.1854 1.2588v1c0 .5522.4477 1 1 1s1-.4478 1-1v-1c0-.638-.0946-1.2556-.2713-1.8387z"/><path d="m9.00008 29.6667c0-.5523-.44771-1-1-1-.55228 0-1 .4477-1 1v1c0 .6379.09463 1.2555.2713 1.8387.16014.5285.71844.8272 1.24699.667.52856-.1601.82723-.7184.66709-1.247-.12032-.3971-.18538-.8194-.18538-1.2587z"/><path d="m25.0001 29.6667c0-.5523-.4477-1-1-1s-1 .4477-1 1v1c0 .4393-.0651.8616-.1854 1.2587-.1601.5286.1385 1.0869.6671 1.247.5285.1602 1.0868-.1385 1.247-.667.1767-.5832.2713-1.2008.2713-1.8387z"/><path d="m12.0747 34.8146c-.5286-.1601-1.0869.1386-1.247.6671-.1602.5286.1385 1.0869.667 1.247.5832.1767 1.2008.2713 1.8387.2713h1c.5523 0 1-.4477 1-1s-.4477-1-1-1h-1c-.4393 0-.8616-.065-1.2587-.1854z"/><path d="m20.5054 36.7287c.5286-.1601.8272-.7184.6671-1.247-.1601-.5285-.7184-.8272-1.247-.6671-.3971.1204-.8194.1854-1.2588.1854h-1c-.5522 0-1 .4477-1 1s.4478 1 1 1h1c.638 0 1.2556-.0946 1.8387-.2713z"/></g><rect fill="#217cbb" height="32" rx="16" transform="matrix(1 0 0 -1 47 44)" width="64"/><path d="m108 28c0 7.1797-5.82 13-13 13-7.1797 0-13-5.8203-13-13s5.8203-13 13-13c7.18 0 13 5.8203 13 13z" fill="#fff"/></svg>