<svg fill="none" height="317" viewBox="0 0 1088 317" width="1088" xmlns="http://www.w3.org/2000/svg"><path d="m0 .333496h1088v142.333h-1088z" fill="#6a6e79"/><path d="m1 1.3335h270v40h-270z" fill="#464b52"/><path d="m12.2578 26.3335v-9.9941h2.1192v8.2441h4.0537v1.75zm12.5215 0-.4033-1.0391h-.0547c-.3509.4421-.7132.7497-1.0869.9229-.3692.1686-.8523.2529-1.4493.2529-.7337 0-1.3125-.2096-1.7363-.6289-.4193-.4193-.6289-1.0163-.6289-1.791 0-.8112.2826-1.4082.8477-1.791.5696-.3874 1.4264-.6016 2.5703-.6426l1.3261-.041v-.335c0-.7747-.3964-1.1621-1.1894-1.1621-.6107 0-1.3285.1846-2.1533.5537l-.6905-1.4082c.8796-.4603 1.8549-.6904 2.9258-.6904 1.0254 0 1.8115.2233 2.3584.6699s.8203 1.1257.8203 2.0371v5.0928zm-.6153-3.541-.8066.0273c-.6061.0183-1.0573.1276-1.3535.3281-.2962.2006-.4443.5059-.4443.9161 0 .5879.3372.8818 1.0117.8818.483 0 .8681-.139 1.1552-.417.2917-.278.4375-.6471.4375-1.1074zm8.3926-4.2451c.9024 0 1.6087.3532 2.1192 1.0595.5104.7019.7656 1.6657.7656 2.8916 0 1.2624-.2643 2.2399-.793 2.9327-.5241.6927-1.2396 1.039-2.1465 1.039-.8978 0-1.6019-.3258-2.1123-.9775h-.1435l-.3487.8408h-1.5927v-10.6367h2.0849v2.4746c0 .3144-.0273.818-.082 1.5107h.082c.4876-.7565 1.21-1.1347 2.167-1.1347zm-.6699 1.6679c-.515 0-.891.1595-1.1279.4785-.237.3145-.3601.8363-.3692 1.5655v.2256c0 .8203.1208 1.4082.3623 1.7636.2461.3555.6335.5332 1.1621.5332.4284 0 .7679-.1959 1.0186-.5879.2552-.3964.3828-.9707.3828-1.7226 0-.752-.1276-1.3148-.3828-1.6885-.2552-.3782-.6039-.5674-1.0459-.5674zm8.3584-.1845c-.4421 0-.7884.1412-1.0391.4238-.2506.278-.3942.6745-.4307 1.1894h2.9258c-.0091-.5149-.1435-.9114-.4033-1.1894-.2598-.2826-.6107-.4238-1.0527-.4238zm.2939 6.4394c-1.2305 0-2.192-.3395-2.8848-1.0185-.6927-.6791-1.039-1.6407-1.039-2.8848 0-1.2806.319-2.2695.957-2.9668.6426-.7018 1.529-1.0527 2.6592-1.0527 1.0801 0 1.9209.3076 2.5225.9228.6015.6152.9023 1.4652.9023 2.5498v1.0117h-4.9287c.0228.5925.1982 1.0551.5264 1.3877.3281.3327.7884.4991 1.3808.4991.4603 0 .8955-.0479 1.3057-.1436.4101-.0957.8385-.2484 1.2851-.458v1.6133c-.3645.1823-.7542.3167-1.1689.4033-.4147.0911-.9206.1367-1.5176.1367zm6.8135-.1367h-2.085v-10.6367h2.085zm7.9462-5.5576h.6836c.6699 0 1.1644-.1117 1.4834-.335s.4785-.5742.4785-1.0527c0-.474-.164-.8112-.4921-1.0117-.3236-.2006-.8272-.3008-1.5108-.3008h-.6426zm0 1.7226v3.835h-2.1191v-9.9941h2.9121c1.3581 0 2.363.2483 3.0146.7451.6517.4922.9776 1.2418.9776 2.249 0 .5879-.1618 1.112-.4854 1.5723-.3235.4557-.7815.8134-1.374 1.0732 1.5039 2.2467 2.4837 3.6982 2.9395 4.3545h-2.3516l-2.3857-3.835zm6.7862-5.7832c0-.679.3782-1.0185 1.1347-1.0185s1.1348.3395 1.1348 1.0185c0 .3236-.0957.5765-.2871.7588-.1869.1778-.4694.2666-.8477.2666-.7565 0-1.1347-.3418-1.1347-1.0254zm2.1738 9.6182h-2.085v-7.6426h2.085zm8.7617-7.6426v1.0596l-1.1963.3076c.2187.3418.3281.7246.3281 1.1484 0 .8204-.2871 1.4607-.8613 1.9209-.5697.4558-1.3626.6836-2.3789.6836l-.376-.0205-.3076-.0342c-.2142.1641-.3213.3464-.3213.5469 0 .3008.3828.4512 1.1484.4512h1.2989c.8385 0 1.4765.18 1.914.54.4421.3601.6631.8887.6631 1.586 0 .8932-.3737 1.5859-1.1211 2.0781-.7428.4922-1.8115.7383-3.206.7383-1.0664 0-1.8822-.1869-2.4473-.5606-.5605-.3691-.8408-.8886-.8408-1.5586 0-.4602.1435-.8453.4306-1.1552.2872-.3099.7087-.531 1.2647-.6631-.2142-.0912-.401-.2393-.5606-.4444-.1595-.2096-.2392-.4306-.2392-.663 0-.2917.0843-.5332.2529-.7247.1686-.1959.4125-.3873.7315-.5742-.4011-.1731-.7201-.4511-.9571-.834-.2324-.3828-.3486-.8339-.3486-1.3535 0-.834.2712-1.4788.8135-1.9345.5423-.4558 1.317-.6836 2.3242-.6836.2142 0 .4671.0205.7588.0615.2962.0364.4853.0638.5674.082zm-5.8994 8.7227c0 .2871.1367.5127.4101.6767.278.1641.6654.2461 1.1621.2461.7474 0 1.333-.1025 1.7569-.3076.4238-.2051.6357-.4853.6357-.8408 0-.2871-.1253-.4854-.376-.5947-.2506-.1094-.638-.1641-1.1621-.1641h-1.0801c-.3828 0-.7041.0889-.9638.2666-.2552.1823-.3828.4216-.3828.7178zm.7588-6.2207c0 .4147.0934.7428.2802.9843.1914.2416.4808.3624.8682.3624.3919 0 .679-.1208.8613-.3624.1823-.2415.2735-.5696.2735-.9843 0-.9206-.3783-1.3809-1.1348-1.3809-.7656 0-1.1484.4603-1.1484 1.3809zm13.3759 5.1406h-2.0849v-4.4639c0-1.1028-.4102-1.6543-1.2305-1.6543-.5833 0-1.0049.1983-1.2647.5948-.2597.3964-.3896 1.039-.3896 1.9277v3.5957h-2.085v-10.6367h2.085v2.167c0 .1686-.016.5651-.0479 1.1894l-.0478.6153h.1094c.4648-.7474 1.2031-1.1211 2.2148-1.1211.8978 0 1.5791.2415 2.044.7246.4648.483.6972 1.1758.6972 2.0781zm5.2822-1.5244c.3646 0 .8021-.0798 1.3125-.2393v1.5518c-.5195.2324-1.1575.3486-1.914.3486-.834 0-1.4424-.2096-1.8252-.6289-.3783-.4238-.5674-1.0573-.5674-1.9004v-3.6846h-.9981v-.8818l1.1485-.6973.6015-1.6132h1.3331v1.6269h2.1396v1.5654h-2.1396v3.6846c0 .2962.082.515.246.6563.1687.1412.3897.2119.6631.2119z" fill="#fff"/><path d="m1 42.3335h270v99.333h-270z" fill="#171c1e"/><rect fill="#019aeb" height="32" rx="16" transform="matrix(1 0 0 -1 104 108)" width="64"/><path d="m165 92.0002c0 7.1797-5.82 12.9998-13 12.9998s-13-5.8201-13-12.9998 5.82-13 13-13 13 5.8203 13 13z" fill="#fff"/><path d="m272 1.3335h270v40h-270z" fill="#464b52"/><path d="m283.258 26.3335v-9.9941h2.119v8.2441h4.054v1.75zm12.521 0-.403-1.0391h-.055c-.351.4421-.713.7497-1.087.9229-.369.1686-.852.2529-1.449.2529-.734 0-1.312-.2096-1.736-.6289-.419-.4193-.629-1.0163-.629-1.791 0-.8112.282-1.4082.848-1.791.569-.3874 1.426-.6016 2.57-.6426l1.326-.041v-.335c0-.7747-.396-1.1621-1.189-1.1621-.611 0-1.329.1846-2.154.5537l-.69-1.4082c.879-.4603 1.855-.6904 2.926-.6904 1.025 0 1.811.2233 2.358.6699s.82 1.1257.82 2.0371v5.0928zm-.615-3.541-.807.0273c-.606.0183-1.057.1276-1.353.3281-.296.2006-.444.5059-.444.9161 0 .5879.337.8818 1.011.8818.483 0 .868-.139 1.156-.417.291-.278.437-.6471.437-1.1074zm8.393-4.2451c.902 0 1.608.3532 2.119 1.0595.51.7019.765 1.6657.765 2.8916 0 1.2624-.264 2.2399-.793 2.9327-.524.6927-1.239 1.039-2.146 1.039-.898 0-1.602-.3258-2.112-.9775h-.144l-.349.8408h-1.592v-10.6367h2.085v2.4746c0 .3144-.028.818-.082 1.5107h.082c.487-.7565 1.21-1.1347 2.167-1.1347zm-.67 1.6679c-.515 0-.891.1595-1.128.4785-.237.3145-.36.8363-.369 1.5655v.2256c0 .8203.12 1.4082.362 1.7636.246.3555.633.5332 1.162.5332.428 0 .768-.1959 1.019-.5879.255-.3964.382-.9707.382-1.7226 0-.752-.127-1.3148-.382-1.6885-.256-.3782-.604-.5674-1.046-.5674zm8.358-.1845c-.442 0-.788.1412-1.039.4238-.251.278-.394.6745-.431 1.1894h2.926c-.009-.5149-.143-.9114-.403-1.1894-.26-.2826-.611-.4238-1.053-.4238zm.294 6.4394c-1.23 0-2.192-.3395-2.885-1.0185-.692-.6791-1.039-1.6407-1.039-2.8848 0-1.2806.319-2.2695.957-2.9668.643-.7018 1.529-1.0527 2.659-1.0527 1.08 0 1.921.3076 2.523.9228.601.6152.902 1.4652.902 2.5498v1.0117h-4.929c.023.5925.199 1.0551.527 1.3877.328.3327.788.4991 1.381.4991.46 0 .895-.0479 1.305-.1436.411-.0957.839-.2484 1.286-.458v1.6133c-.365.1823-.755.3167-1.169.4033-.415.0911-.921.1367-1.518.1367zm6.813-.1367h-2.084v-10.6367h2.084zm5.828 0v-9.9941h2.119v8.2441h4.053v1.75zm10.833-6.3027c-.442 0-.789.1412-1.039.4238-.251.278-.395.6745-.431 1.1894h2.926c-.009-.5149-.144-.9114-.404-1.1894-.259-.2826-.61-.4238-1.052-.4238zm.294 6.4394c-1.231 0-2.193-.3395-2.885-1.0185-.693-.6791-1.039-1.6407-1.039-2.8848 0-1.2806.319-2.2695.957-2.9668.642-.7018 1.529-1.0527 2.659-1.0527 1.08 0 1.921.3076 2.522.9228.602.6152.903 1.4652.903 2.5498v1.0117h-4.929c.023.5925.198 1.0551.526 1.3877.328.3327.789.4991 1.381.4991.461 0 .896-.0479 1.306-.1436s.838-.2484 1.285-.458v1.6133c-.365.1823-.754.3167-1.169.4033-.415.0911-.92.1367-1.517.1367zm8.953-6.2139h-1.805v6.0772h-2.085v-6.0772h-1.148v-1.0048l1.148-.5606v-.5605c0-.8705.214-1.5062.643-1.9073.428-.401 1.114-.6015 2.057-.6015.72 0 1.361.1071 1.921.3213l-.533 1.5312c-.419-.1321-.807-.1982-1.162-.1982-.296 0-.511.0888-.643.2666-.132.1732-.198.3965-.198.6699v.4785h1.805zm4.338 4.5528c.365 0 .803-.0798 1.313-.2393v1.5518c-.52.2324-1.158.3486-1.914.3486-.834 0-1.442-.2096-1.825-.6289-.379-.4238-.568-1.0573-.568-1.9004v-3.6846h-.998v-.8818l1.149-.6973.601-1.6132h1.333v1.6269h2.14v1.5654h-2.14v3.6846c0 .2962.082.515.246.6563.169.1412.39.2119.663.2119z" fill="#fff"/><path d="m272 42.3335h270v99.333h-270z" fill="#171c1e"/><path d="m337.573 101v-15.7049h1.826v14.0508h6.929v1.6541zm18.652 0-.355-1.6756h-.086c-.587.7376-1.174 1.2386-1.762 1.5036-.58.258-1.307.387-2.18.387-1.168 0-2.084-.301-2.75-.902-.659-.6019-.988-1.4577-.988-2.5677 0-2.3776 1.901-3.6237 5.704-3.7383l1.998-.0644v-.7305c0-.9238-.201-1.6042-.602-2.041-.394-.444-1.028-.666-1.901-.666-.981 0-2.091.3007-3.33.9023l-.548-1.3642c.58-.3152 1.214-.5622 1.901-.7413.695-.179 1.389-.2685 2.084-.2685 1.404 0 2.442.3115 3.115.9346.681.623 1.021 1.622 1.021 2.997v8.035zm-4.029-1.2567c1.11 0 1.98-.3043 2.611-.913.637-.6088.956-1.461.956-2.5567v-1.0635l-1.784.0752c-1.417.0502-2.442.2722-3.072.6661-.623.3867-.934.9918-.934 1.8154 0 .6445.193 1.1351.58 1.4717.394.3366.941.5048 1.643.5048zm14.763-10.7099c1.547 0 2.746.5299 3.599 1.5898.859 1.0528 1.289 2.5459 1.289 4.4795s-.434 3.4375-1.3 4.5117c-.859 1.0666-2.055 1.6006-3.588 1.6006-.766 0-1.468-.14-2.105-.419-.631-.286-1.161-.723-1.59-1.3105h-.129l-.376 1.5145h-1.279v-16.7147h1.784v4.0606c0 .9095-.029 1.7259-.086 2.4492h.086c.83-1.1745 2.062-1.7617 3.695-1.7617zm-.258 1.4932c-1.217 0-2.095.3509-2.632 1.0527-.537.6946-.805 1.8691-.805 3.5234s.275 2.8395.827 3.5557c.551.709 1.436 1.0635 2.653 1.0635 1.096 0 1.912-.3975 2.449-1.1924.537-.8021.806-1.9515.806-3.4483 0-1.5325-.269-2.6748-.806-3.4267-.537-.752-1.367-1.1279-2.492-1.1279zm13.495 10.6884c-1.74 0-3.115-.53-4.125-1.5898-1.002-1.0599-1.504-2.5316-1.504-4.4151 0-1.8977.466-3.4052 1.397-4.5224.938-1.1172 2.195-1.6758 3.77-1.6758 1.476 0 2.643.487 3.502 1.4609.86.9668 1.289 2.2452 1.289 3.835v1.1279h-8.11c.036 1.3822.383 2.4313 1.042 3.1475.666.7161 1.601 1.0742 2.804 1.0742 1.267 0 2.521-.265 3.76-.7949v1.5895c-.631.272-1.229.466-1.794.58-.559.122-1.236.183-2.031.183zm-.483-10.7099c-.945 0-1.701.3079-2.267.9238-.558.6159-.888 1.4681-.988 2.5566h6.155c0-1.1243-.25-1.9837-.752-2.5781-.501-.6016-1.217-.9023-2.148-.9023zm9.896 10.4949h-1.783v-16.7147h1.783z" fill="#fff"/><rect fill="#019aeb" height="32" rx="16" transform="matrix(1 0 0 -1 406.5 108)" width="64"/><path d="m467.5 92.0002c0 7.1797-5.82 12.9998-13 12.9998s-13-5.8201-13-12.9998 5.82-13 13-13 13 5.8203 13 13z" fill="#fff"/><path d="m543 1.3335h270v40h-270z" fill="#464b52"/><path d="m554.258 26.3335v-9.9941h2.119v9.9941zm7.49.1367c-2.379 0-3.568-1.3056-3.568-3.917 0-1.2988.323-2.29.97-2.9736.648-.6882 1.575-1.0322 2.783-1.0322.884 0 1.677.1731 2.379.5195l-.616 1.6133c-.328-.1322-.633-.2393-.916-.3213-.282-.0866-.565-.1299-.847-.1299-1.085 0-1.627.7702-1.627 2.3106 0 1.4947.542 2.2421 1.627 2.2421.401 0 .772-.0524 1.114-.1572.342-.1094.683-.278 1.025-.5058v1.7841c-.337.2142-.679.3623-1.025.4444-.342.082-.775.123-1.299.123zm5.679-3.9717c0 .7565.123 1.3285.369 1.7159.251.3873.656.581 1.217.581.556 0 .954-.1914 1.196-.5742.246-.3874.369-.9616.369-1.7227 0-.7565-.123-1.3239-.369-1.7021-.246-.3783-.649-.5674-1.21-.5674-.556 0-.957.1891-1.203.5674-.246.3737-.369.9411-.369 1.7021zm5.284 0c0 1.2442-.328 2.2172-.984 2.919-.657.7018-1.57 1.0527-2.742 1.0527-.733 0-1.381-.1595-1.941-.4785-.561-.3236-.991-.7861-1.292-1.3877s-.451-1.3034-.451-2.1055c0-1.2487.326-2.2194.977-2.9121.652-.6927 1.568-1.039 2.748-1.039.734 0 1.381.1595 1.942.4785.56.319.991.777 1.292 1.374s.451 1.2966.451 2.0986zm8.693 3.835h-2.085v-4.4639c0-.5514-.098-.9638-.294-1.2373-.196-.278-.508-.417-.936-.417-.584 0-1.005.196-1.265.5879-.26.3874-.389 1.0322-.389 1.9346v3.5957h-2.085v-7.6426h1.592l.281.9776h.116c.232-.3692.551-.6472.957-.834.41-.1914.875-.2871 1.394-.2871.889 0 1.564.2415 2.024.7246.46.4785.69 1.1712.69 2.0781zm7.899-5.5576h.683c.67 0 1.165-.1117 1.484-.335s.478-.5742.478-1.0527c0-.474-.164-.8112-.492-1.0117-.324-.2006-.827-.3008-1.511-.3008h-.642zm0 1.7226v3.835h-2.119v-9.9941h2.912c1.358 0 2.363.2483 3.014.7451.652.4922.978 1.2418.978 2.249 0 .5879-.162 1.112-.486 1.5723-.323.4557-.781.8134-1.374 1.0732 1.504 2.2467 2.484 3.6982 2.94 4.3545h-2.352l-2.385-3.835zm6.786-5.7832c0-.679.378-1.0185 1.135-1.0185.756 0 1.134.3395 1.134 1.0185 0 .3236-.095.5765-.287.7588-.187.1778-.469.2666-.847.2666-.757 0-1.135-.3418-1.135-1.0254zm2.174 9.6182h-2.085v-7.6426h2.085zm8.761-7.6426v1.0596l-1.196.3076c.219.3418.328.7246.328 1.1484 0 .8204-.287 1.4607-.861 1.9209-.57.4558-1.363.6836-2.379.6836l-.376-.0205-.308-.0342c-.214.1641-.321.3464-.321.5469 0 .3008.383.4512 1.148.4512h1.299c.839 0 1.477.18 1.914.54.442.3601.663.8887.663 1.586 0 .8932-.373 1.5859-1.121 2.0781-.742.4922-1.811.7383-3.206.7383-1.066 0-1.882-.1869-2.447-.5606-.561-.3691-.841-.8886-.841-1.5586 0-.4602.144-.8453.431-1.1552s.709-.531 1.265-.6631c-.215-.0912-.402-.2393-.561-.4444-.16-.2096-.239-.4306-.239-.663 0-.2917.084-.5332.253-.7247.168-.1959.412-.3873.731-.5742-.401-.1731-.72-.4511-.957-.834-.232-.3828-.349-.8339-.349-1.3535 0-.834.272-1.4788.814-1.9345.542-.4558 1.317-.6836 2.324-.6836.214 0 .467.0205.759.0615.296.0364.485.0638.567.082zm-5.899 8.7227c0 .2871.137.5127.41.6767.278.1641.665.2461 1.162.2461.748 0 1.333-.1025 1.757-.3076s.636-.4853.636-.8408c0-.2871-.126-.4854-.376-.5947-.251-.1094-.638-.1641-1.162-.1641h-1.08c-.383 0-.705.0889-.964.2666-.256.1823-.383.4216-.383.7178zm.759-6.2207c0 .4147.093.7428.28.9843.191.2416.481.3624.868.3624.392 0 .679-.1208.861-.3624.183-.2415.274-.5696.274-.9843 0-.9206-.378-1.3809-1.135-1.3809-.766 0-1.148.4603-1.148 1.3809zm13.376 5.1406h-2.085v-4.4639c0-1.1028-.41-1.6543-1.231-1.6543-.583 0-1.005.1983-1.264.5948-.26.3964-.39 1.039-.39 1.9277v3.5957h-2.085v-10.6367h2.085v2.167c0 .1686-.016.5651-.048 1.1894l-.048.6153h.11c.464-.7474 1.203-1.1211 2.214-1.1211.898 0 1.58.2415 2.044.7246.465.483.698 1.1758.698 2.0781zm5.282-1.5244c.364 0 .802-.0798 1.312-.2393v1.5518c-.519.2324-1.157.3486-1.914.3486-.834 0-1.442-.2096-1.825-.6289-.378-.4238-.567-1.0573-.567-1.9004v-3.6846h-.998v-.8818l1.148-.6973.602-1.6132h1.333v1.6269h2.139v1.5654h-2.139v3.6846c0 .2962.082.515.246.6563.168.1412.389.2119.663.2119z" fill="#fff"/><path d="m543 42.3335h270v99.333h-270z" fill="#171c1e"/><rect fill="#019aeb" height="32" rx="16" transform="matrix(1 0 0 -1 626 108)" width="64"/><g fill="#fff"><path d="m687 92.0002c0 7.1797-5.82 12.9998-13 12.9998s-13-5.8201-13-12.9998 5.82-13 13-13 13 5.8203 13 13z"/><path d="m713 79.6669c-.59 0-1.149.1171-1.659.3284-.51.2115-1.095-.0305-1.306-.5407-.212-.5101.03-1.0952.54-1.3068.748-.3102 1.568-.4809 2.425-.4809h2c.552 0 1 .4477 1 1s-.448 1-1 1z"/><path d="m718 78.6669c0-.5523.448-1 1-1h4c.552 0 1 .4477 1 1s-.448 1-1 1h-4c-.552 0-1-.4477-1-1z"/><path d="m726 78.6669c0-.5523.448-1 1-1h2c.857 0 1.676.1707 2.424.4809.511.2116.753.7967.541 1.3068-.211.5102-.797.7522-1.307.5407-.509-.2113-1.069-.3284-1.658-.3284h-2c-.552 0-1-.4477-1-1z"/><path d="m708.454 81.0349c.51.2116.752.7967.541 1.3068-.211.5096-.328 1.0691-.328 1.6585v2c0 .5523-.448 1-1 1-.553 0-1-.4477-1-1v-2c0-.8569.17-1.6764.48-2.4246.212-.5101.797-.7522 1.307-.5407z"/><path d="m733.545 81.0349c.511-.2115 1.096.0306 1.307.5407.31.7482.481 1.5677.481 2.4246v2c0 .5523-.448 1-1 1s-1-.4477-1-1v-2c0-.5894-.117-1.1489-.328-1.6585-.212-.5101.03-1.0952.54-1.3068z"/><path d="m707.667 89.0002c.552 0 1 .4477 1 1v4c0 .5523-.448 1-1 1-.553 0-1-.4477-1-1v-4c0-.5523.447-1 1-1z"/><path d="m734.333 89.0002c.552 0 1 .4477 1 1v4c0 .5523-.448 1-1 1s-1-.4477-1-1v-4c0-.5523.448-1 1-1z"/><path d="m707.667 97.0002c.552 0 1 .4477 1 1v1.9998c0 .59.117 1.149.328 1.659s-.031 1.095-.541 1.306c-.51.212-1.095-.03-1.307-.54-.31-.748-.48-1.568-.48-2.425v-1.9998c0-.5523.447-1 1-1z"/><path d="m734.333 97.0002c.552 0 1 .4477 1 1v1.9998c0 .857-.171 1.677-.481 2.425-.211.51-.796.752-1.307.54-.51-.211-.752-.796-.54-1.306.211-.51.328-1.069.328-1.659v-1.9998c0-.5523.448-1 1-1z"/><path d="m710.035 104.546c.211-.51.796-.752 1.306-.541s1.069.329 1.659.329h2c.552 0 1 .447 1 1 0 .552-.448 1-1 1h-2c-.857 0-1.677-.171-2.425-.481-.51-.212-.752-.797-.54-1.307z"/><path d="m731.965 104.546c.212.51-.03 1.095-.541 1.307-.748.31-1.567.481-2.424.481h-2c-.552 0-1-.448-1-1 0-.553.448-1 1-1h2c.589 0 1.149-.118 1.658-.329.51-.211 1.096.031 1.307.541z"/><path d="m718 105.334c0-.553.448-1 1-1h4c.552 0 1 .447 1 1 0 .552-.448 1-1 1h-4c-.552 0-1-.448-1-1z"/><path d="m732.374 82.1215c.39-.3905.39-1.0237 0-1.4142-.391-.3905-1.024-.3905-1.415 0l-1.328 1.3283c-.39.3905-.39 1.0237 0 1.4142.391.3905 1.024.3905 1.414 0z"/><path d="m728.389 86.1064c.39-.3906.39-1.0237 0-1.4143-.391-.3905-1.024-.3905-1.414 0l-2.657 2.6566c-.391.3905-.391 1.0237 0 1.4142s1.024.3905 1.414 0z"/><path d="m723.076 91.4195c.39-.3906.39-1.0237 0-1.4142-.391-.3906-1.024-.3906-1.415 0l-.661.6616-.662-.6616c-.39-.3906-1.023-.3906-1.414 0-.391.3905-.391 1.0236 0 1.4142l.662.6616-.581.5807c-.391.3905-.391 1.0237 0 1.4142.39.3906 1.024.3906 1.414 0l.581-.5807.581.5807c.39.3906 1.023.3906 1.414 0 .39-.3905.39-1.0237 0-1.4142l-.581-.5807z"/><path d="m717.763 96.7326c.39-.3905.39-1.0237 0-1.4142-.391-.3905-1.024-.3906-1.415 0l-2.656 2.6565c-.391.3906-.391 1.0237 0 1.4142.39.3906 1.023.3906 1.414 0z"/><path d="m712.449 102.046c.391-.391.391-1.024 0-1.415-.39-.39-1.023-.39-1.414 0l-1.328 1.329c-.391.39-.391 1.023 0 1.414.39.391 1.024.391 1.414 0z"/><path d="m730.879 103.374c.39.391 1.023.391 1.414 0 .39-.391.39-1.024 0-1.414l-1.329-1.329c-.39-.39-1.023-.39-1.414 0-.39.391-.39 1.024 0 1.415z"/><path d="m726.894 99.3891c.39.3906 1.023.3906 1.414 0 .39-.3905.39-1.0236 0-1.4142l-2.657-2.6565c-.39-.3906-1.023-.3906-1.414 0-.39.3905-.39 1.0237 0 1.4142z"/><path d="m716.267 88.7629c.391.3905 1.024.3905 1.415 0 .39-.3905.39-1.0237 0-1.4142l-2.657-2.6566c-.39-.3905-1.024-.3905-1.414 0-.391.3906-.391 1.0237 0 1.4143z"/><path d="m710.954 83.4498c.391.3905 1.024.3905 1.415 0 .39-.3905.39-1.0237 0-1.4142l-1.329-1.3283c-.39-.3905-1.023-.3905-1.414 0-.39.3905-.39 1.0237 0 1.4142z"/><path d="m717.074 85.1856c.398-.1203.82-.1854 1.259-.1854h1c.552 0 1-.4477 1-1s-.448-1-1-1h-1c-.638 0-1.255.0946-1.838.2713-.529.1601-.828.7184-.668 1.247.161.5286.719.8272 1.247.6671z"/><path d="m722.667 83.0002c-.553 0-1 .4477-1 1s.447 1 1 1h1c.439 0 .861.0651 1.258.1854.529.1601 1.087-.1385 1.247-.6671s-.138-1.0869-.667-1.247c-.583-.1767-1.201-.2713-1.838-.2713z"/><path d="m714.185 88.0748c.16-.5286-.138-1.0869-.667-1.247-.528-.1602-1.087.1385-1.247.6671-.177.5831-.271 1.2007-.271 1.8386v1c0 .5523.448 1 1 1s1-.4477 1-1v-1c0-.4393.065-.8616.185-1.2587z"/><path d="m729.729 87.4949c-.161-.5286-.719-.8272-1.247-.6671-.529.1601-.828.7184-.668 1.247.121.3971.186.8194.186 1.2587v1c0 .5523.448 1 1 1s1-.4477 1-1v-1c0-.6379-.095-1.2555-.271-1.8386z"/><path d="m714 93.6669c0-.5523-.448-1-1-1s-1 .4477-1 1v1c0 .6379.094 1.2555.271 1.8386.16.5286.719.8273 1.247.6671.529-.1601.827-.7184.667-1.247-.12-.3971-.185-.8194-.185-1.2587z"/><path d="m730 93.6669c0-.5523-.448-1-1-1s-1 .4477-1 1v1c0 .4393-.065.8616-.186 1.2587-.16.5286.139 1.0869.668 1.247.528.1602 1.086-.1385 1.247-.6671.176-.5831.271-1.2007.271-1.8386z"/><path d="m717.074 98.8148c-.528-.1601-1.086.1386-1.247.6671-.16.5281.139 1.0871.668 1.2471.583.177 1.2.271 1.838.271h1c.552 0 1-.448 1-1 0-.5521-.448-.9998-1-.9998h-1c-.439 0-.861-.065-1.259-.1854z"/><path d="m725.505 100.729c.529-.16.827-.719.667-1.2471-.16-.5285-.718-.8272-1.247-.6671-.397.1204-.819.1854-1.258.1854h-1c-.553 0-1 .4477-1 .9998 0 .552.447 1 1 1h1c.637 0 1.255-.094 1.838-.271z"/></g><path d="m814 1.3335h273v40h-273z" fill="#464b52"/><path d="m825.258 26.3335v-9.9941h2.119v9.9941zm7.49.1367c-2.379 0-3.568-1.3056-3.568-3.917 0-1.2988.323-2.29.97-2.9736.648-.6882 1.575-1.0322 2.783-1.0322.884 0 1.677.1731 2.379.5195l-.616 1.6133c-.328-.1322-.633-.2393-.916-.3213-.282-.0866-.565-.1299-.847-.1299-1.085 0-1.627.7702-1.627 2.3106 0 1.4947.542 2.2421 1.627 2.2421.401 0 .772-.0524 1.114-.1572.342-.1094.683-.278 1.025-.5058v1.7841c-.337.2142-.679.3623-1.025.4444-.342.082-.775.123-1.299.123zm5.679-3.9717c0 .7565.123 1.3285.369 1.7159.251.3873.656.581 1.217.581.556 0 .954-.1914 1.196-.5742.246-.3874.369-.9616.369-1.7227 0-.7565-.123-1.3239-.369-1.7021-.246-.3783-.649-.5674-1.21-.5674-.556 0-.957.1891-1.203.5674-.246.3737-.369.9411-.369 1.7021zm5.284 0c0 1.2442-.328 2.2172-.984 2.919-.657.7018-1.57 1.0527-2.742 1.0527-.733 0-1.381-.1595-1.941-.4785-.561-.3236-.991-.7861-1.292-1.3877s-.451-1.3034-.451-2.1055c0-1.2487.326-2.2194.977-2.9121.652-.6927 1.568-1.039 2.748-1.039.734 0 1.381.1595 1.942.4785.56.319.991.777 1.292 1.374s.451 1.2966.451 2.0986zm8.693 3.835h-2.085v-4.4639c0-.5514-.098-.9638-.294-1.2373-.196-.278-.508-.417-.936-.417-.584 0-1.005.196-1.265.5879-.26.3874-.389 1.0322-.389 1.9346v3.5957h-2.085v-7.6426h1.592l.281.9776h.116c.232-.3692.551-.6472.957-.834.41-.1914.875-.2871 1.394-.2871.889 0 1.564.2415 2.024.7246.46.4785.69 1.1712.69 2.0781zm5.78 0v-9.9941h2.119v8.2441h4.053v1.75zm10.833-6.3027c-.443 0-.789.1412-1.04.4238-.25.278-.394.6745-.43 1.1894h2.926c-.01-.5149-.144-.9114-.404-1.1894-.26-.2826-.61-.4238-1.052-.4238zm.293 6.4394c-1.23 0-2.192-.3395-2.884-1.0185-.693-.6791-1.039-1.6407-1.039-2.8848 0-1.2806.319-2.2695.957-2.9668.642-.7018 1.529-1.0527 2.659-1.0527 1.08 0 1.921.3076 2.522.9228.602.6152.903 1.4652.903 2.5498v1.0117h-4.929c.023.5925.198 1.0551.526 1.3877.328.3327.789.4991 1.381.4991.46 0 .896-.0479 1.306-.1436s.838-.2484 1.285-.458v1.6133c-.365.1823-.754.3167-1.169.4033-.415.0911-.921.1367-1.518.1367zm8.954-6.2139h-1.805v6.0772h-2.085v-6.0772h-1.149v-1.0048l1.149-.5606v-.5605c0-.8705.214-1.5062.642-1.9073.429-.401 1.115-.6015 2.058-.6015.72 0 1.36.1071 1.921.3213l-.533 1.5312c-.419-.1321-.807-.1982-1.162-.1982-.297 0-.511.0888-.643.2666-.132.1732-.198.3965-.198.6699v.4785h1.805zm4.338 4.5528c.365 0 .802-.0798 1.313-.2393v1.5518c-.52.2324-1.158.3486-1.914.3486-.834 0-1.443-.2096-1.825-.6289-.379-.4238-.568-1.0573-.568-1.9004v-3.6846h-.998v-.8818l1.149-.6973.601-1.6132h1.333v1.6269h2.14v1.5654h-2.14v3.6846c0 .2962.082.515.246.6563.169.1412.39.2119.663.2119z" fill="#fff"/><path d="m814 42.3335h273v99.333h-273z" fill="#171c1e"/><path d="m899.5 79.6669c-.59 0-1.149.1171-1.659.3284-.51.2115-1.095-.0305-1.306-.5407-.212-.5101.03-1.0952.54-1.3068.748-.3102 1.568-.4809 2.425-.4809h2c.552 0 1 .4477 1 1s-.448 1-1 1z" fill="#fff"/><path d="m904.5 78.6669c0-.5523.448-1 1-1h4c.552 0 1 .4477 1 1s-.448 1-1 1h-4c-.552 0-1-.4477-1-1z" fill="#fff"/><path d="m912.5 78.6669c0-.5523.448-1 1-1h2c.857 0 1.676.1707 2.424.4809.511.2116.753.7967.541 1.3068-.211.5102-.797.7522-1.307.5407-.509-.2113-1.069-.3284-1.658-.3284h-2c-.552 0-1-.4477-1-1z" fill="#fff"/><path d="m894.954 81.0349c.51.2116.752.7967.541 1.3068-.211.5096-.328 1.0691-.328 1.6585v2c0 .5523-.448 1-1 1-.553 0-1-.4477-1-1v-2c0-.8569.17-1.6764.48-2.4246.212-.5101.797-.7522 1.307-.5407z" fill="#fff"/><path d="m920.045 81.0349c.511-.2115 1.096.0306 1.307.5407.31.7482.481 1.5677.481 2.4246v2c0 .5523-.448 1-1 1s-1-.4477-1-1v-2c0-.5894-.117-1.1489-.328-1.6585-.212-.5101.03-1.0952.54-1.3068z" fill="#fff"/><path d="m894.167 89.0002c.552 0 1 .4477 1 1v4c0 .5523-.448 1-1 1-.553 0-1-.4477-1-1v-4c0-.5523.447-1 1-1z" fill="#fff"/><path d="m920.833 89.0002c.552 0 1 .4477 1 1v4c0 .5523-.448 1-1 1s-1-.4477-1-1v-4c0-.5523.448-1 1-1z" fill="#fff"/><path d="m894.167 97.0002c.552 0 1 .4477 1 1v1.9998c0 .59.117 1.149.328 1.659s-.031 1.095-.541 1.306c-.51.212-1.095-.03-1.307-.54-.31-.748-.48-1.568-.48-2.425v-1.9998c0-.5523.447-1 1-1z" fill="#fff"/><path d="m920.833 97.0002c.552 0 1 .4477 1 1v1.9998c0 .857-.171 1.677-.481 2.425-.211.51-.796.752-1.307.54-.51-.211-.752-.796-.54-1.306.211-.51.328-1.069.328-1.659v-1.9998c0-.5523.448-1 1-1z" fill="#fff"/><path d="m896.535 104.546c.211-.51.796-.752 1.306-.541s1.069.329 1.659.329h2c.552 0 1 .447 1 1 0 .552-.448 1-1 1h-2c-.857 0-1.677-.171-2.425-.481-.51-.212-.752-.797-.54-1.307z" fill="#fff"/><path d="m918.465 104.546c.212.51-.03 1.095-.541 1.307-.748.31-1.567.481-2.424.481h-2c-.552 0-1-.448-1-1 0-.553.448-1 1-1h2c.589 0 1.149-.118 1.658-.329.51-.211 1.096.031 1.307.541z" fill="#fff"/><path d="m904.5 105.334c0-.553.448-1 1-1h4c.552 0 1 .447 1 1 0 .552-.448 1-1 1h-4c-.552 0-1-.448-1-1z" fill="#fff"/><path d="m918.874 82.1215c.39-.3905.39-1.0237 0-1.4142-.391-.3905-1.024-.3905-1.415 0l-1.328 1.3283c-.39.3905-.39 1.0237 0 1.4142.391.3905 1.024.3905 1.414 0z" fill="#fff"/><path d="m914.889 86.1064c.39-.3906.39-1.0237 0-1.4143-.391-.3905-1.024-.3905-1.414 0l-2.657 2.6566c-.391.3905-.391 1.0237 0 1.4142s1.024.3905 1.414 0z" fill="#fff"/><path d="m909.576 91.4195c.39-.3906.39-1.0237 0-1.4142-.391-.3906-1.024-.3906-1.415 0l-.661.6616-.662-.6616c-.39-.3906-1.023-.3906-1.414 0-.391.3905-.391 1.0236 0 1.4142l.662.6616-.581.5807c-.391.3905-.391 1.0237 0 1.4142.39.3906 1.024.3906 1.414 0l.581-.5807.581.5807c.39.3906 1.023.3906 1.414 0 .39-.3905.39-1.0237 0-1.4142l-.581-.5807z" fill="#fff"/><path d="m904.263 96.7326c.39-.3905.39-1.0237 0-1.4142-.391-.3905-1.024-.3906-1.415 0l-2.656 2.6565c-.391.3906-.391 1.0237 0 1.4142.39.3906 1.023.3906 1.414 0z" fill="#fff"/><path d="m898.949 102.046c.391-.391.391-1.024 0-1.415-.39-.39-1.023-.39-1.414 0l-1.328 1.329c-.391.39-.391 1.023 0 1.414.39.391 1.024.391 1.414 0z" fill="#fff"/><path d="m917.379 103.374c.39.391 1.023.391 1.414 0 .39-.391.39-1.024 0-1.414l-1.329-1.329c-.39-.39-1.023-.39-1.414 0-.39.391-.39 1.024 0 1.415z" fill="#fff"/><path d="m913.394 99.3891c.39.3906 1.023.3906 1.414 0 .39-.3905.39-1.0236 0-1.4142l-2.657-2.6565c-.39-.3906-1.023-.3906-1.414 0-.39.3905-.39 1.0237 0 1.4142z" fill="#fff"/><path d="m902.767 88.7629c.391.3905 1.024.3905 1.415 0 .39-.3905.39-1.0237 0-1.4142l-2.657-2.6566c-.39-.3905-1.024-.3905-1.414 0-.391.3906-.391 1.0237 0 1.4143z" fill="#fff"/><path d="m897.454 83.4498c.391.3905 1.024.3905 1.415 0 .39-.3905.39-1.0237 0-1.4142l-1.329-1.3283c-.39-.3905-1.023-.3905-1.414 0-.39.3905-.39 1.0237 0 1.4142z" fill="#fff"/><path d="m903.574 85.1856c.398-.1203.82-.1854 1.259-.1854h1c.552 0 1-.4477 1-1s-.448-1-1-1h-1c-.638 0-1.255.0946-1.838.2713-.529.1601-.828.7184-.668 1.247.161.5286.719.8272 1.247.6671z" fill="#fff"/><path d="m909.167 83.0002c-.553 0-1 .4477-1 1s.447 1 1 1h1c.439 0 .861.0651 1.258.1854.529.1601 1.087-.1385 1.247-.6671s-.138-1.0869-.667-1.247c-.583-.1767-1.201-.2713-1.838-.2713z" fill="#fff"/><path d="m900.685 88.0748c.16-.5286-.138-1.0869-.667-1.247-.528-.1602-1.087.1385-1.247.6671-.177.5831-.271 1.2007-.271 1.8386v1c0 .5523.448 1 1 1s1-.4477 1-1v-1c0-.4393.065-.8616.185-1.2587z" fill="#fff"/><path d="m916.229 87.4949c-.161-.5286-.719-.8272-1.247-.6671-.529.1601-.828.7184-.668 1.247.121.3971.186.8194.186 1.2587v1c0 .5523.448 1 1 1s1-.4477 1-1v-1c0-.6379-.095-1.2555-.271-1.8386z" fill="#fff"/><path d="m900.5 93.6669c0-.5523-.448-1-1-1s-1 .4477-1 1v1c0 .6379.094 1.2555.271 1.8386.16.5286.719.8273 1.247.6671.529-.1601.827-.7184.667-1.247-.12-.3971-.185-.8194-.185-1.2587z" fill="#fff"/><path d="m916.5 93.6669c0-.5523-.448-1-1-1s-1 .4477-1 1v1c0 .4393-.065.8616-.186 1.2587-.16.5286.139 1.0869.668 1.247.528.1602 1.086-.1385 1.247-.6671.176-.5831.271-1.2007.271-1.8386z" fill="#fff"/><path d="m903.574 98.8148c-.528-.1601-1.086.1386-1.247.6671-.16.5281.139 1.0871.668 1.2471.583.177 1.2.271 1.838.271h1c.552 0 1-.448 1-1 0-.5521-.448-.9998-1-.9998h-1c-.439 0-.861-.065-1.259-.1854z" fill="#fff"/><path d="m912.005 100.729c.529-.16.827-.719.667-1.2471-.16-.5285-.718-.8272-1.247-.6671-.397.1204-.819.1854-1.258.1854h-1c-.553 0-1 .4477-1 .9998 0 .552.447 1 1 1h1c.637 0 1.255-.094 1.838-.271z" fill="#fff"/><rect fill="#019aeb" height="32" rx="16" transform="matrix(1 0 0 -1 938.5 108)" width="64"/><path d="m999.5 92.0002c0 7.1797-5.82 12.9998-13 12.9998s-13-5.8201-13-12.9998 5.82-13 13-13 13 5.8203 13 13z" fill="#fff"/><path d="m0 174.667h272v142.333h-272z" fill="#6a6e79"/><path d="m1 175.667h270v40h-270z" fill="#464b52"/><path d="m12.2578 200.667v-9.994h2.1192v9.994zm7.4902.137c-2.3789 0-3.5683-1.306-3.5683-3.917 0-1.299.3235-2.29.9707-2.974.6471-.688 1.5745-1.032 2.7822-1.032.8841 0 1.6771.173 2.3789.519l-.6152 1.614c-.3282-.133-.6335-.24-.916-.322-.2826-.086-.5651-.13-.8477-.13-1.0846 0-1.627.771-1.627 2.311 0 1.495.5424 2.242 1.627 2.242.401 0 .7725-.052 1.1143-.157.3418-.109.6836-.278 1.0253-.506v1.784c-.3372.214-.679.363-1.0253.445-.3418.082-.7748.123-1.2989.123zm5.6787-3.972c0 .756.1231 1.328.3692 1.716.2506.387.6562.581 1.2168.581.556 0 .9547-.192 1.1963-.574.246-.388.3691-.962.3691-1.723 0-.757-.1231-1.324-.3691-1.702-.2461-.378-.6495-.568-1.21-.568-.556 0-.957.19-1.2031.568-.2461.373-.3692.941-.3692 1.702zm5.2842 0c0 1.244-.3281 2.217-.9844 2.919-.6562.702-1.57 1.053-2.7412 1.053-.7337 0-1.3808-.16-1.9414-.479-.5605-.323-.9912-.786-1.292-1.388-.3008-.601-.4512-1.303-.4512-2.105 0-1.249.3259-2.219.9776-2.912s1.5677-1.039 2.748-1.039c.7338 0 1.3809.159 1.9414.478.5606.319.9913.777 1.292 1.374.3008.597.4512 1.297.4512 2.099zm8.6933 3.835h-2.0849v-4.464c0-.551-.098-.964-.294-1.237-.1959-.278-.5081-.417-.9365-.417-.5833 0-1.0049.196-1.2646.588-.2598.387-.3897 1.032-.3897 1.934v3.596h-2.0849v-7.643h1.5927l.2803.978h.1162c.2324-.369.5515-.647.9571-.834.4101-.192.875-.287 1.3945-.287.8887 0 1.5631.241 2.0234.724.4603.479.6904 1.172.6904 2.078zm5.5264-9.618c0-.679.3782-1.019 1.1348-1.019.7565 0 1.1347.34 1.1347 1.019 0 .323-.0957.576-.2871.758-.1868.178-.4694.267-.8476.267-.7566 0-1.1348-.342-1.1348-1.025zm2.1738 9.618h-2.0849v-7.643h2.0849zm9.165 0h-2.0849v-4.464c0-.551-.098-.964-.294-1.237-.1959-.278-.5081-.417-.9365-.417-.5833 0-1.0049.196-1.2646.588-.2598.387-.3897 1.032-.3897 1.934v3.596h-2.085v-7.643h1.5928l.2803.978h.1162c.2324-.369.5514-.647.957-.834.4102-.192.875-.287 1.3946-.287.8886 0 1.5631.241 2.0234.724.4603.479.6904 1.172.6904 2.078zm13.9688 0h-2.1123v-4.314h-3.9581v4.314h-2.1191v-9.994h2.1191v3.917h3.9581v-3.917h2.1123zm7.1347 0-.4033-1.039h-.0547c-.3509.442-.7132.749-1.0869.923-.3692.168-.8522.253-1.4492.253-.7338 0-1.3125-.21-1.7364-.629-.4192-.42-.6289-1.017-.6289-1.791 0-.812.2826-1.409.8477-1.791.5696-.388 1.4264-.602 2.5703-.643l1.3262-.041v-.335c0-.775-.3965-1.162-1.1895-1.162-.6107 0-1.3284.185-2.1533.554l-.6904-1.409c.8795-.46 1.8548-.69 2.9257-.69 1.0254 0 1.8116.223 2.3584.67.5469.447.8204 1.126.8204 2.037v5.093zm-.6152-3.541-.8067.027c-.6061.018-1.0573.128-1.3535.328-.2962.201-.4443.506-.4443.916 0 .588.3372.882 1.0117.882.4831 0 .8682-.139 1.1553-.417.2916-.278.4375-.647.4375-1.107zm11.1953 3.541h-2.085v-4.464c0-.551-.098-.964-.2939-1.237-.196-.278-.5082-.417-.9366-.417-.5833 0-1.0048.196-1.2646.588-.2598.387-.3897 1.032-.3897 1.934v3.596h-2.0849v-7.643h1.5928l.2802.978h.1162c.2325-.369.5515-.647.9571-.834.4101-.192.875-.287 1.3945-.287.8887 0 1.5632.241 2.0234.724.4603.479.6905 1.172.6905 2.078zm4.4824.137c-.8978 0-1.6042-.349-2.1192-1.046-.5104-.698-.7656-1.664-.7656-2.899 0-1.253.2598-2.228.7793-2.926.5241-.701 1.2441-1.052 2.1602-1.052.9615 0 1.6953.373 2.2011 1.121h.0684c-.1048-.57-.1572-1.078-.1572-1.525v-2.447h2.0918v10.637h-1.5996l-.4034-.991h-.0888c-.474.752-1.1963 1.128-2.167 1.128zm.7314-1.662c.5332 0 .9229-.154 1.169-.464.2506-.31.3873-.837.4101-1.579v-.226c0-.82-.1276-1.408-.3828-1.764-.2506-.355-.6608-.533-1.2305-.533-.4648 0-.8271.198-1.0869.595-.2552.392-.3828.964-.3828 1.716s.1299 1.317.3897 1.695c.2597.374.6311.56 1.1142.56zm7.7092 1.525h-2.0852v-10.637h2.0852zm5.275-6.303c-.442 0-.788.141-1.039.424-.251.278-.394.674-.431 1.189h2.926c-.009-.515-.143-.911-.403-1.189-.26-.283-.611-.424-1.053-.424zm.294 6.44c-1.23 0-2.192-.34-2.885-1.019-.692-.679-1.039-1.641-1.039-2.885 0-1.28.319-2.269.957-2.967.643-.701 1.529-1.052 2.659-1.052 1.081 0 1.921.307 2.523.923.602.615.902 1.465.902 2.549v1.012h-4.928c.022.593.198 1.055.526 1.388.328.332.788.499 1.381.499.46 0 .895-.048 1.305-.144.411-.095.839-.248 1.286-.458v1.614c-.365.182-.755.316-1.169.403-.415.091-.921.137-1.518.137z" fill="#fff"/><path d="m1 216.667h270v99.333h-270z" fill="#171c1e"/><rect fill="#019aeb" height="32" rx="16" transform="matrix(1 0 0 -1 104 282.334)" width="64"/><path d="m165 266.334c0 7.179-5.82 13-13 13s-13-5.821-13-13c0-7.18 5.82-13 13-13s13 5.82 13 13z" fill="#fff"/></svg>