<svg fill="none" height="239" width="1088" xmlns="http://www.w3.org/2000/svg"><path d="m.5 0h1087v239h-1087z" fill="#f1f1f6"/><path d="m201 20h686v199h-686z" fill="#cbcbcb"/><path d="m202 21h684v65h-684z" fill="#fff"/><path d="m220.159 62.5v-15.705h1.826v14.05h6.929v1.655zm13.195 0h-1.784v-11.773h1.784zm-1.934-14.964c0-.408.1-.705.301-.892.2-.193.451-.29.752-.29.286 0 .533.097.741.29.208.194.311.491.311.892s-.103.702-.311.902c-.208.194-.455.29-.741.29a1.04 1.04 0 0 1 -.752-.29c-.201-.2-.301-.5-.301-.902zm13.559 11.752c0 1.096-.408 1.94-1.224 2.535-.817.595-1.962.892-3.438.892-1.561 0-2.778-.247-3.652-.741v-1.655a8.872 8.872 0 0 0 1.815.677 7.674 7.674 0 0 0 1.88.247c.931 0 1.647-.147 2.149-.44.501-.301.752-.756.752-1.364 0-.459-.201-.85-.602-1.171-.394-.33-1.167-.717-2.32-1.16-1.096-.409-1.876-.763-2.342-1.064-.458-.308-.802-.655-1.031-1.042-.222-.387-.333-.849-.333-1.386 0-.96.39-1.715 1.171-2.266.78-.559 1.851-.838 3.212-.838 1.267 0 2.506.258 3.716.773l-.633 1.45c-1.182-.487-2.253-.73-3.212-.73-.845 0-1.483.132-1.912.397-.43.265-.645.63-.645 1.096 0 .315.079.584.236.806.165.222.427.433.785.633.358.201 1.045.491 2.062.87 1.397.51 2.338 1.021 2.825 1.537.494.515.741 1.163.741 1.944zm6.964 1.955c.315 0 .62-.021.913-.064.294-.05.527-.1.699-.15v1.364c-.194.093-.48.168-.86.225a5.974 5.974 0 0 1 -1.009.097c-2.278 0-3.416-1.2-3.416-3.599v-7.004h-1.687v-.86l1.687-.74.751-2.514h1.032v2.729h3.416v1.385h-3.416v6.929c0 .709.168 1.253.505 1.633.336.38.798.57 1.385.57zm10.458 1.257v-15.705h1.827v15.705zm9.929-1.257c.315 0 .62-.021.913-.064.294-.05.527-.1.698-.15v1.364c-.193.093-.479.168-.859.225a5.975 5.975 0 0 1 -1.01.097c-2.277 0-3.416-1.2-3.416-3.599v-7.004h-1.686v-.86l1.686-.74.752-2.514h1.031v2.729h3.416v1.385h-3.416v6.929c0 .709.169 1.253.505 1.633.337.38.799.57 1.386.57zm9.198 1.472c-1.74 0-3.115-.53-4.125-1.59-1.002-1.06-1.504-2.532-1.504-4.415 0-1.898.466-3.405 1.397-4.523.938-1.117 2.195-1.675 3.77-1.675 1.476 0 2.643.487 3.502 1.46.86.968 1.289 2.246 1.289 3.836v1.127h-8.11c.036 1.383.383 2.432 1.042 3.148.666.716 1.601 1.074 2.804 1.074 1.267 0 2.521-.265 3.76-.795v1.59a9.146 9.146 0 0 1 -1.794.58c-.559.122-1.236.183-2.031.183zm-.483-10.71c-.945 0-1.701.308-2.267.924-.558.616-.888 1.468-.988 2.556h6.155c0-1.124-.25-1.983-.752-2.578-.501-.601-1.217-.902-2.148-.902zm23.12 10.495v-7.66c0-.937-.2-1.64-.602-2.105-.401-.472-1.024-.709-1.869-.709-1.11 0-1.93.32-2.46.956-.53.638-.795 1.619-.795 2.944v6.574h-1.783v-7.66c0-.937-.2-1.64-.601-2.105-.401-.472-1.028-.709-1.88-.709-1.117 0-1.937.337-2.46 1.01-.516.666-.774 1.762-.774 3.287v6.177h-1.783v-11.773h1.45l.29 1.61h.086a3.52 3.52 0 0 1 1.418-1.342c.616-.322 1.304-.483 2.063-.483 1.84 0 3.043.666 3.609 1.998h.086c.351-.616.86-1.103 1.526-1.461s1.425-.537 2.277-.537c1.332 0 2.327.343 2.986 1.031.666.68.999 1.772.999 3.276v7.681z" fill="#252a2e"/><rect fill="#217cbb" height="32" rx="16" width="64" x="799" y="37.5"/><path d="m860 53.5c0 7.18-5.82 13-13 13s-13-5.82-13-13 5.82-13 13-13 13 5.82 13 13zm-658 33.5h684v65h-684z" fill="#fff"/><path d="m220.159 128.5v-15.705h1.826v14.051h6.929v1.654zm13.195 0h-1.784v-11.773h1.784zm-1.934-14.964c0-.408.1-.705.301-.891.2-.194.451-.291.752-.291.286 0 .533.097.741.291.208.193.311.49.311.891s-.103.702-.311.902a1.05 1.05 0 0 1 -.741.291c-.301 0-.552-.097-.752-.291-.201-.2-.301-.501-.301-.902zm13.559 11.752c0 1.096-.408 1.941-1.224 2.535-.817.595-1.962.892-3.438.892-1.561 0-2.778-.247-3.652-.741v-1.655a8.861 8.861 0 0 0 1.815.677 7.66 7.66 0 0 0 1.88.247c.931 0 1.647-.147 2.149-.44.501-.301.752-.756.752-1.365 0-.458-.201-.848-.602-1.17-.394-.33-1.167-.717-2.32-1.161-1.096-.408-1.876-.762-2.342-1.063-.458-.308-.802-.655-1.031-1.042-.222-.387-.333-.849-.333-1.386 0-.959.39-1.715 1.171-2.266.78-.559 1.851-.838 3.212-.838 1.267 0 2.506.258 3.716.773l-.633 1.45c-1.182-.487-2.253-.73-3.212-.73-.845 0-1.483.132-1.912.397-.43.265-.645.631-.645 1.096 0 .315.079.584.236.806.165.222.427.433.785.634.358.2 1.045.49 2.062.87 1.397.508 2.338 1.02 2.825 1.536.494.515.741 1.163.741 1.944zm6.964 1.955c.315 0 .62-.021.913-.064.294-.05.527-.101.699-.151v1.365c-.194.093-.48.168-.86.225a5.916 5.916 0 0 1 -1.009.097c-2.278 0-3.416-1.2-3.416-3.599v-7.004h-1.687v-.859l1.687-.741.751-2.514h1.032v2.729h3.416v1.385h-3.416v6.929c0 .709.168 1.253.505 1.633.336.379.798.569 1.385.569zm10.458 1.257v-15.705h1.827v15.705zm9.929-1.257c.315 0 .62-.021.913-.064.294-.05.527-.101.698-.151v1.365c-.193.093-.479.168-.859.225a5.917 5.917 0 0 1 -1.01.097c-2.277 0-3.416-1.2-3.416-3.599v-7.004h-1.686v-.859l1.686-.741.752-2.514h1.031v2.729h3.416v1.385h-3.416v6.929c0 .709.169 1.253.505 1.633.337.379.799.569 1.386.569zm9.198 1.472c-1.74 0-3.115-.53-4.125-1.59-1.002-1.06-1.504-2.532-1.504-4.415 0-1.898.466-3.405 1.397-4.522.938-1.118 2.195-1.676 3.77-1.676 1.476 0 2.643.487 3.502 1.461.86.966 1.289 2.245 1.289 3.835v1.128h-8.11c.036 1.382.383 2.431 1.042 3.147.666.716 1.601 1.074 2.804 1.074 1.267 0 2.521-.265 3.76-.795v1.59a9.12 9.12 0 0 1 -1.794.58c-.559.122-1.236.183-2.031.183zm-.483-10.71c-.945 0-1.701.308-2.267.924-.558.616-.888 1.468-.988 2.556h6.155c0-1.124-.25-1.983-.752-2.578-.501-.601-1.217-.902-2.148-.902zm23.12 10.495v-7.659c0-.938-.2-1.64-.602-2.106-.401-.472-1.024-.709-1.869-.709-1.11 0-1.93.319-2.46.956-.53.638-.795 1.619-.795 2.944v6.574h-1.783v-7.659c0-.938-.2-1.64-.601-2.106-.401-.472-1.028-.709-1.88-.709-1.117 0-1.937.337-2.46 1.01-.516.666-.774 1.762-.774 3.287v6.177h-1.783v-11.773h1.45l.29 1.611h.086a3.518 3.518 0 0 1 1.418-1.343c.616-.322 1.304-.483 2.063-.483 1.84 0 3.043.666 3.609 1.998h.086c.351-.616.86-1.103 1.526-1.461s1.425-.537 2.277-.537c1.332 0 2.327.343 2.986 1.031.666.68.999 1.772.999 3.276v7.681z" fill="#252a2e"/><rect fill="#217cbb" height="32" rx="16" width="64" x="799" y="103.5"/><path d="m860 119.5c0 7.18-5.82 13-13 13s-13-5.82-13-13 5.82-13 13-13 13 5.82 13 13zm-658 33.5h684v65h-684z" fill="#fff"/><path d="m220.159 194.5v-15.705h1.826v14.051h6.929v1.654zm13.195 0h-1.784v-11.773h1.784zm-1.934-14.964c0-.408.1-.705.301-.891.2-.194.451-.291.752-.291.286 0 .533.097.741.291.208.193.311.49.311.891s-.103.702-.311.902a1.05 1.05 0 0 1 -.741.291c-.301 0-.552-.097-.752-.291-.201-.2-.301-.501-.301-.902zm13.559 11.752c0 1.096-.408 1.941-1.224 2.535-.817.595-1.962.892-3.438.892-1.561 0-2.778-.247-3.652-.741v-1.655a8.861 8.861 0 0 0 1.815.677 7.66 7.66 0 0 0 1.88.247c.931 0 1.647-.147 2.149-.44.501-.301.752-.756.752-1.365 0-.458-.201-.848-.602-1.17-.394-.33-1.167-.717-2.32-1.161-1.096-.408-1.876-.762-2.342-1.063-.458-.308-.802-.655-1.031-1.042-.222-.387-.333-.849-.333-1.386 0-.959.39-1.715 1.171-2.266.78-.559 1.851-.838 3.212-.838 1.267 0 2.506.258 3.716.773l-.633 1.45c-1.182-.487-2.253-.73-3.212-.73-.845 0-1.483.132-1.912.397-.43.265-.645.631-.645 1.096 0 .315.079.584.236.806.165.222.427.433.785.634.358.2 1.045.49 2.062.87 1.397.508 2.338 1.02 2.825 1.536.494.515.741 1.163.741 1.944zm6.964 1.955c.315 0 .62-.021.913-.064.294-.05.527-.101.699-.151v1.365c-.194.093-.48.168-.86.225a5.916 5.916 0 0 1 -1.009.097c-2.278 0-3.416-1.2-3.416-3.599v-7.004h-1.687v-.859l1.687-.741.751-2.514h1.032v2.729h3.416v1.385h-3.416v6.929c0 .709.168 1.253.505 1.633.336.379.798.569 1.385.569zm10.458 1.257v-15.705h1.827v15.705zm9.929-1.257c.315 0 .62-.021.913-.064.294-.05.527-.101.698-.151v1.365c-.193.093-.479.168-.859.225a5.917 5.917 0 0 1 -1.01.097c-2.277 0-3.416-1.2-3.416-3.599v-7.004h-1.686v-.859l1.686-.741.752-2.514h1.031v2.729h3.416v1.385h-3.416v6.929c0 .709.169 1.253.505 1.633.337.379.799.569 1.386.569zm9.198 1.472c-1.74 0-3.115-.53-4.125-1.59-1.002-1.06-1.504-2.532-1.504-4.415 0-1.898.466-3.405 1.397-4.522.938-1.118 2.195-1.676 3.77-1.676 1.476 0 2.643.487 3.502 1.461.86.966 1.289 2.245 1.289 3.835v1.128h-8.11c.036 1.382.383 2.431 1.042 3.147.666.716 1.601 1.074 2.804 1.074 1.267 0 2.521-.265 3.76-.795v1.59a9.12 9.12 0 0 1 -1.794.58c-.559.122-1.236.183-2.031.183zm-.483-10.71c-.945 0-1.701.308-2.267.924-.558.616-.888 1.468-.988 2.556h6.155c0-1.124-.25-1.983-.752-2.578-.501-.601-1.217-.902-2.148-.902zm23.12 10.495v-7.659c0-.938-.2-1.64-.602-2.106-.401-.472-1.024-.709-1.869-.709-1.11 0-1.93.319-2.46.956-.53.638-.795 1.619-.795 2.944v6.574h-1.783v-7.659c0-.938-.2-1.64-.601-2.106-.401-.472-1.028-.709-1.88-.709-1.117 0-1.937.337-2.46 1.01-.516.666-.774 1.762-.774 3.287v6.177h-1.783v-11.773h1.45l.29 1.611h.086a3.518 3.518 0 0 1 1.418-1.343c.616-.322 1.304-.483 2.063-.483 1.84 0 3.043.666 3.609 1.998h.086c.351-.616.86-1.103 1.526-1.461s1.425-.537 2.277-.537c1.332 0 2.327.343 2.986 1.031.666.68.999 1.772.999 3.276v7.681z" fill="#252a2e"/><rect fill="#217cbb" height="32" rx="16" width="64" x="799" y="169.5"/><path d="m860 185.5c0 7.18-5.82 13-13 13s-13-5.82-13-13 5.82-13 13-13 13 5.82 13 13z" fill="#fff"/></svg>