<svg width="928" height="114" viewBox="0 0 928 114" fill="none" xmlns="http://www.w3.org/2000/svg">
<path d="M14.3848 48.7554C14.3848 49.5288 14.1055 50.1382 13.5469 50.5835C12.9922 51.0288 12.2188 51.2515 11.2266 51.2515C10.3125 51.2515 9.50391 51.0796 8.80078 50.7358V49.0483C9.37891 49.3062 9.86719 49.4878 10.2656 49.5933C10.668 49.6987 11.0352 49.7515 11.3672 49.7515C11.7656 49.7515 12.0703 49.6753 12.2812 49.5229C12.4961 49.3706 12.6035 49.144 12.6035 48.8433C12.6035 48.6753 12.5566 48.5269 12.4629 48.3979C12.3691 48.2651 12.2305 48.1382 12.0469 48.0171C11.8672 47.896 11.498 47.7026 10.9395 47.437C10.416 47.1909 10.0234 46.9546 9.76172 46.728C9.5 46.5015 9.29102 46.2378 9.13477 45.937C8.97852 45.6362 8.90039 45.2847 8.90039 44.8823C8.90039 44.1245 9.15625 43.5288 9.66797 43.0952C10.1836 42.6616 10.8945 42.4448 11.8008 42.4448C12.2461 42.4448 12.6699 42.4976 13.0723 42.603C13.4785 42.7085 13.9023 42.8569 14.3438 43.0483L13.7578 44.4604C13.3008 44.2729 12.9219 44.1421 12.6211 44.0679C12.3242 43.9937 12.0312 43.9565 11.7422 43.9565C11.3984 43.9565 11.1348 44.0366 10.9512 44.1968C10.7676 44.3569 10.6758 44.5659 10.6758 44.8237C10.6758 44.9839 10.7129 45.1245 10.7871 45.2456C10.8613 45.3628 10.9785 45.478 11.1387 45.5913C11.3027 45.7007 11.6875 45.8999 12.293 46.189C13.0938 46.5718 13.6426 46.9565 13.9395 47.3433C14.2363 47.7261 14.3848 48.1968 14.3848 48.7554ZM18.4846 49.8276C18.7971 49.8276 19.1721 49.7593 19.6096 49.6226V50.9526C19.1643 51.1519 18.6175 51.2515 17.969 51.2515C17.2542 51.2515 16.7327 51.0718 16.4046 50.7124C16.0803 50.3491 15.9182 49.8062 15.9182 49.0835V45.9253H15.0628V45.1694L16.0471 44.5718L16.5628 43.189H17.7053V44.5835H19.5393V45.9253H17.7053V49.0835C17.7053 49.3374 17.7757 49.5249 17.9163 49.646C18.0608 49.7671 18.2503 49.8276 18.4846 49.8276ZM24.524 44.4604C24.7662 44.4604 24.9673 44.478 25.1275 44.5132L24.9927 46.189C24.8482 46.1499 24.6724 46.1304 24.4654 46.1304C23.8951 46.1304 23.4497 46.2769 23.1294 46.5698C22.813 46.8628 22.6548 47.2729 22.6548 47.8003V51.1343H20.8677V44.5835H22.2212L22.4849 45.6851H22.5728C22.7759 45.3179 23.0494 45.0229 23.3931 44.8003C23.7408 44.5737 24.1177 44.4604 24.524 44.4604ZM27.6688 47.8472C27.6688 48.4956 27.7742 48.9858 27.9852 49.3179C28.2 49.6499 28.5477 49.8159 29.0281 49.8159C29.5047 49.8159 29.8465 49.6519 30.0535 49.3237C30.2645 48.9917 30.3699 48.4995 30.3699 47.8472C30.3699 47.1987 30.2645 46.7124 30.0535 46.3882C29.8426 46.064 29.4969 45.9019 29.0164 45.9019C28.5399 45.9019 28.1961 46.064 27.9852 46.3882C27.7742 46.7085 27.6688 47.1948 27.6688 47.8472ZM32.1981 47.8472C32.1981 48.9136 31.9168 49.7476 31.3543 50.3491C30.7918 50.9507 30.0086 51.2515 29.0047 51.2515C28.3758 51.2515 27.8211 51.1147 27.3406 50.8413C26.8602 50.564 26.491 50.1675 26.2332 49.6519C25.9754 49.1362 25.8465 48.5347 25.8465 47.8472C25.8465 46.7769 26.1258 45.9448 26.6844 45.3511C27.243 44.7573 28.0281 44.4604 29.0399 44.4604C29.6688 44.4604 30.2235 44.5972 30.7039 44.8706C31.1844 45.144 31.5535 45.5366 31.8113 46.0483C32.0692 46.5601 32.1981 47.1597 32.1981 47.8472ZM35.3194 47.5718L36.0987 46.5757L37.9327 44.5835H39.9483L37.3468 47.4253L40.1065 51.1343H38.044L36.1573 48.48L35.3897 49.0952V51.1343H33.6026V42.0171H35.3897V46.0835L35.296 47.5718H35.3194ZM43.6849 45.7319C43.306 45.7319 43.0091 45.853 42.7943 46.0952C42.5795 46.3335 42.4564 46.6733 42.4252 47.1147H44.933C44.9252 46.6733 44.8099 46.3335 44.5873 46.0952C44.3646 45.853 44.0638 45.7319 43.6849 45.7319ZM43.9369 51.2515C42.8822 51.2515 42.058 50.9604 41.4642 50.3784C40.8705 49.7964 40.5736 48.9722 40.5736 47.9058C40.5736 46.8081 40.847 45.9604 41.3939 45.3628C41.9447 44.7612 42.7045 44.4604 43.6732 44.4604C44.599 44.4604 45.3197 44.7241 45.8353 45.2515C46.3509 45.7788 46.6087 46.5073 46.6087 47.437V48.3042H42.3841C42.4037 48.812 42.5541 49.2085 42.8353 49.4937C43.1166 49.7788 43.5111 49.9214 44.0189 49.9214C44.4134 49.9214 44.7865 49.8804 45.138 49.7983C45.4896 49.7163 45.8568 49.5854 46.2396 49.4058V50.7886C45.9271 50.9448 45.5931 51.0601 45.2377 51.1343C44.8822 51.2124 44.4486 51.2515 43.9369 51.2515ZM47.943 50.5132C47.943 50.2515 48.0016 50.0542 48.1188 49.9214C48.2399 49.7847 48.4118 49.7163 48.6344 49.7163C48.861 49.7163 49.0368 49.7847 49.1618 49.9214C49.2907 50.0542 49.3551 50.2515 49.3551 50.5132C49.3551 50.7671 49.2907 50.9624 49.1618 51.0991C49.0328 51.2358 48.8571 51.3042 48.6344 51.3042C48.4352 51.3042 48.2692 51.2437 48.1364 51.1226C48.0075 50.9976 47.943 50.7944 47.943 50.5132ZM47.943 45.3394C47.943 44.812 48.1735 44.5483 48.6344 44.5483C49.1149 44.5483 49.3551 44.812 49.3551 45.3394C49.3551 45.5933 49.2907 45.7886 49.1618 45.9253C49.0328 46.062 48.8571 46.1304 48.6344 46.1304C48.4352 46.1304 48.2692 46.0698 48.1364 45.9487C48.0075 45.8237 47.943 45.6206 47.943 45.3394ZM53.9103 47.4722C53.9103 45.7886 54.2365 44.5308 54.8888 43.6987C55.5451 42.8628 56.5138 42.4448 57.7951 42.4448C58.2365 42.4448 58.5842 42.4819 58.8381 42.5562V43.394C58.5373 43.2964 58.1935 43.2476 57.8068 43.2476C56.8888 43.2476 56.1877 43.5347 55.7033 44.1089C55.2189 44.6792 54.9533 45.5776 54.9064 46.8042H54.9767C55.4064 46.1323 56.0861 45.7964 57.0158 45.7964C57.7853 45.7964 58.3908 46.0288 58.8322 46.4937C59.2775 46.9585 59.5002 47.5894 59.5002 48.3862C59.5002 49.2769 59.256 49.978 58.7677 50.4897C58.2834 50.9976 57.6271 51.2515 56.799 51.2515C55.9123 51.2515 55.2092 50.9194 54.6896 50.2554C54.1701 49.5874 53.9103 48.6597 53.9103 47.4722ZM56.7873 50.4253C57.342 50.4253 57.7717 50.2515 58.0763 49.9038C58.3849 49.5522 58.5392 49.0464 58.5392 48.3862C58.5392 47.8198 58.3967 47.3745 58.1115 47.0503C57.8263 46.7261 57.4006 46.564 56.8342 46.564C56.4826 46.564 56.1603 46.6362 55.8674 46.7808C55.5744 46.9253 55.34 47.1245 55.1642 47.3784C54.9924 47.6323 54.9064 47.896 54.9064 48.1694C54.9064 48.5718 54.9845 48.9468 55.1408 49.2944C55.297 49.6421 55.5177 49.9175 55.8029 50.1206C56.092 50.3237 56.4201 50.4253 56.7873 50.4253ZM65.4223 50.2729H65.3696C64.9204 50.9253 64.2485 51.2515 63.354 51.2515C62.5141 51.2515 61.8598 50.9644 61.3911 50.3901C60.9262 49.8159 60.6938 48.9995 60.6938 47.9409C60.6938 46.8823 60.9282 46.0601 61.3969 45.4741C61.8657 44.8882 62.518 44.5952 63.354 44.5952C64.225 44.5952 64.893 44.9116 65.3579 45.5444H65.434L65.393 45.0815L65.3696 44.6304V42.0171H66.3422V51.1343H65.5512L65.4223 50.2729ZM63.477 50.437C64.1411 50.437 64.6215 50.2573 64.9184 49.8979C65.2192 49.5347 65.3696 48.9507 65.3696 48.146V47.9409C65.3696 47.0308 65.2172 46.3823 64.9125 45.9956C64.6118 45.605 64.1293 45.4097 63.4653 45.4097C62.895 45.4097 62.4575 45.6323 62.1528 46.0776C61.852 46.519 61.7016 47.144 61.7016 47.9526C61.7016 48.7729 61.852 49.3921 62.1528 49.8101C62.4536 50.228 62.895 50.437 63.477 50.437ZM71.3269 51.2515C70.9089 51.2515 70.5261 51.1753 70.1784 51.0229C69.8347 50.8667 69.5456 50.6284 69.3112 50.3081H69.2409C69.2878 50.6831 69.3112 51.0386 69.3112 51.3745V54.0171H68.3386V44.7124H69.1296L69.2644 45.5913H69.3112C69.5612 45.2397 69.8523 44.9858 70.1843 44.8296C70.5163 44.6733 70.8972 44.5952 71.3269 44.5952C72.1784 44.5952 72.8347 44.8862 73.2956 45.4683C73.7605 46.0503 73.9929 46.8667 73.9929 47.9175C73.9929 48.9722 73.7566 49.7925 73.2839 50.3784C72.8152 50.9604 72.1628 51.2515 71.3269 51.2515ZM71.1862 45.4214C70.53 45.4214 70.0554 45.603 69.7624 45.9663C69.4695 46.3296 69.3191 46.9077 69.3112 47.7007V47.9175C69.3112 48.8198 69.4616 49.4663 69.7624 49.8569C70.0632 50.2437 70.5456 50.437 71.2097 50.437C71.7644 50.437 72.198 50.2124 72.5105 49.7632C72.8269 49.314 72.9851 48.6948 72.9851 47.9058C72.9851 47.105 72.8269 46.4917 72.5105 46.0659C72.198 45.6362 71.7566 45.4214 71.1862 45.4214ZM11.1152 71.1343H9.32812V62.5679H14.2383V64.0562H11.1152V66.2651H14.0215V67.7476H11.1152V71.1343ZM17.1253 67.8472C17.1253 68.4956 17.2307 68.9858 17.4417 69.3179C17.6565 69.6499 18.0042 69.8159 18.4846 69.8159C18.9612 69.8159 19.303 69.6519 19.51 69.3237C19.721 68.9917 19.8264 68.4995 19.8264 67.8472C19.8264 67.1987 19.721 66.7124 19.51 66.3882C19.2991 66.064 18.9534 65.9019 18.4729 65.9019C17.9964 65.9019 17.6526 66.064 17.4417 66.3882C17.2307 66.7085 17.1253 67.1948 17.1253 67.8472ZM21.6546 67.8472C21.6546 68.9136 21.3733 69.7476 20.8108 70.3491C20.2483 70.9507 19.4651 71.2515 18.4612 71.2515C17.8323 71.2515 17.2776 71.1147 16.7971 70.8413C16.3167 70.564 15.9475 70.1675 15.6897 69.6519C15.4319 69.1362 15.303 68.5347 15.303 67.8472C15.303 66.7769 15.5823 65.9448 16.1409 65.3511C16.6995 64.7573 17.4846 64.4604 18.4964 64.4604C19.1253 64.4604 19.68 64.5972 20.1604 64.8706C20.6409 65.144 21.01 65.5366 21.2678 66.0483C21.5257 66.5601 21.6546 67.1597 21.6546 67.8472ZM29.106 71.1343H27.3189V67.3081C27.3189 66.8354 27.2349 66.4819 27.0669 66.2476C26.899 66.0093 26.6314 65.8901 26.2642 65.8901C25.7642 65.8901 25.4029 66.0581 25.1802 66.394C24.9576 66.7261 24.8462 67.2788 24.8462 68.0522V71.1343H23.0591V64.5835H24.4244L24.6646 65.4214H24.7642C24.9634 65.105 25.2369 64.8667 25.5845 64.7065C25.9361 64.5425 26.3345 64.4604 26.7798 64.4604C27.5415 64.4604 28.1197 64.6675 28.5142 65.0815C28.9087 65.4917 29.106 66.0854 29.106 66.8628V71.1343ZM33.6336 69.8276C33.9461 69.8276 34.3211 69.7593 34.7586 69.6226V70.9526C34.3133 71.1519 33.7664 71.2515 33.118 71.2515C32.4031 71.2515 31.8817 71.0718 31.5535 70.7124C31.2293 70.3491 31.0672 69.8062 31.0672 69.0835V65.9253H30.2117V65.1694L31.1961 64.5718L31.7117 63.189H32.8543V64.5835H34.6883V65.9253H32.8543V69.0835C32.8543 69.3374 32.9246 69.5249 33.0653 69.646C33.2098 69.7671 33.3992 69.8276 33.6336 69.8276ZM43.6322 69.189C43.6322 69.8608 43.3978 70.3726 42.9291 70.7241C42.4642 71.0757 41.767 71.2515 40.8373 71.2515C40.3607 71.2515 39.9545 71.2183 39.6185 71.1519C39.2826 71.0894 38.9681 70.9956 38.6752 70.8706V69.394C39.0072 69.5503 39.3802 69.6812 39.7943 69.7866C40.2123 69.8921 40.5795 69.9448 40.8959 69.9448C41.5443 69.9448 41.8685 69.7573 41.8685 69.3823C41.8685 69.2417 41.8255 69.1284 41.7396 69.0425C41.6537 68.9526 41.5052 68.853 41.2943 68.7437C41.0834 68.6304 40.8021 68.4995 40.4505 68.3511C39.9466 68.1401 39.5755 67.9448 39.3373 67.7651C39.1029 67.5854 38.931 67.3804 38.8216 67.1499C38.7162 66.9155 38.6634 66.6284 38.6634 66.2886C38.6634 65.7065 38.888 65.2573 39.3373 64.9409C39.7904 64.6206 40.431 64.4604 41.2591 64.4604C42.0482 64.4604 42.8158 64.6323 43.5619 64.9761L43.0228 66.2651C42.6947 66.1245 42.388 66.0093 42.1029 65.9194C41.8177 65.8296 41.5267 65.7847 41.2298 65.7847C40.7025 65.7847 40.4388 65.9272 40.4388 66.2124C40.4388 66.3726 40.5228 66.5112 40.6908 66.6284C40.8627 66.7456 41.2357 66.9194 41.8099 67.1499C42.3216 67.3569 42.6966 67.5503 42.9349 67.73C43.1732 67.9097 43.349 68.1167 43.4623 68.3511C43.5755 68.5854 43.6322 68.8647 43.6322 69.189ZM44.8785 62.8901C44.8785 62.3081 45.2028 62.0171 45.8512 62.0171C46.4996 62.0171 46.8239 62.3081 46.8239 62.8901C46.8239 63.1675 46.7418 63.3843 46.5778 63.5405C46.4176 63.6929 46.1754 63.769 45.8512 63.769C45.2028 63.769 44.8785 63.4761 44.8785 62.8901ZM46.7418 71.1343H44.9547V64.5835H46.7418V71.1343ZM53.1093 71.1343H47.9355V70.0796L50.9706 65.9487H48.1171V64.5835H53.0038V65.7437L50.0507 69.769H53.1093V71.1343ZM57.051 65.7319C56.672 65.7319 56.3752 65.853 56.1603 66.0952C55.9455 66.3335 55.8224 66.6733 55.7912 67.1147H58.299C58.2912 66.6733 58.176 66.3335 57.9533 66.0952C57.7306 65.853 57.4299 65.7319 57.051 65.7319ZM57.3029 71.2515C56.2482 71.2515 55.424 70.9604 54.8302 70.3784C54.2365 69.7964 53.9396 68.9722 53.9396 67.9058C53.9396 66.8081 54.2131 65.9604 54.7599 65.3628C55.3107 64.7612 56.0705 64.4604 57.0392 64.4604C57.965 64.4604 58.6857 64.7241 59.2013 65.2515C59.717 65.7788 59.9748 66.5073 59.9748 67.437V68.3042H55.7502C55.7697 68.812 55.9201 69.2085 56.2013 69.4937C56.4826 69.7788 56.8771 69.9214 57.3849 69.9214C57.7795 69.9214 58.1525 69.8804 58.5041 69.7983C58.8556 69.7163 59.2228 69.5854 59.6056 69.4058V70.7886C59.2931 70.9448 58.9592 71.0601 58.6037 71.1343C58.2482 71.2124 57.8146 71.2515 57.3029 71.2515ZM61.104 70.2964C61.104 69.9683 61.1918 69.7202 61.3676 69.5522C61.5434 69.3843 61.7993 69.3003 62.1352 69.3003C62.4594 69.3003 62.7094 69.3862 62.8852 69.5581C63.0649 69.73 63.1547 69.9761 63.1547 70.2964C63.1547 70.605 63.0649 70.8491 62.8852 71.0288C62.7055 71.2046 62.4555 71.2925 62.1352 71.2925C61.8071 71.2925 61.5532 71.2065 61.3735 71.0347C61.1938 70.8589 61.104 70.6128 61.104 70.2964ZM61.104 65.4565C61.104 65.1284 61.1918 64.8804 61.3676 64.7124C61.5434 64.5444 61.7993 64.4604 62.1352 64.4604C62.4594 64.4604 62.7094 64.5464 62.8852 64.7183C63.0649 64.8901 63.1547 65.1362 63.1547 65.4565C63.1547 65.7729 63.0629 66.019 62.8793 66.1948C62.6997 66.3667 62.4516 66.4526 62.1352 66.4526C61.8071 66.4526 61.5532 66.3667 61.3735 66.1948C61.1938 66.0229 61.104 65.7769 61.104 65.4565ZM73.0303 71.1343H67.3994V70.2964L69.6553 68.0288C70.3428 67.3335 70.7959 66.8374 71.0146 66.5405C71.2334 66.2437 71.3975 65.9546 71.5068 65.6733C71.6162 65.3921 71.6709 65.0894 71.6709 64.7651C71.6709 64.3081 71.5322 63.9468 71.2549 63.6812C70.9775 63.4116 70.5928 63.2769 70.1006 63.2769C69.7451 63.2769 69.4072 63.3354 69.0869 63.4526C68.7705 63.5698 68.417 63.7827 68.0264 64.0913L67.5107 63.4292C68.2998 62.7729 69.1592 62.4448 70.0889 62.4448C70.8935 62.4448 71.5244 62.6519 71.9814 63.0659C72.4385 63.4761 72.667 64.0288 72.667 64.7241C72.667 65.2671 72.5146 65.8042 72.21 66.3354C71.9053 66.8667 71.335 67.5386 70.499 68.3511L68.624 70.1851V70.2319H73.0303V71.1343ZM79.8255 71.1343H74.1946V70.2964L76.4505 68.0288C77.138 67.3335 77.5911 66.8374 77.8098 66.5405C78.0286 66.2437 78.1926 65.9546 78.302 65.6733C78.4114 65.3921 78.4661 65.0894 78.4661 64.7651C78.4661 64.3081 78.3274 63.9468 78.0501 63.6812C77.7727 63.4116 77.388 63.2769 76.8958 63.2769C76.5403 63.2769 76.2024 63.3354 75.8821 63.4526C75.5657 63.5698 75.2122 63.7827 74.8215 64.0913L74.3059 63.4292C75.095 62.7729 75.9544 62.4448 76.884 62.4448C77.6887 62.4448 78.3196 62.6519 78.7766 63.0659C79.2337 63.4761 79.4622 64.0288 79.4622 64.7241C79.4622 65.2671 79.3098 65.8042 79.0051 66.3354C78.7005 66.8667 78.1301 67.5386 77.2942 68.3511L75.4192 70.1851V70.2319H79.8255V71.1343ZM85.5777 69.3823C85.5777 69.98 85.355 70.4409 84.9097 70.7651C84.4644 71.0894 83.8394 71.2515 83.0347 71.2515C82.1831 71.2515 81.5191 71.1167 81.0425 70.8472V69.9448C81.3511 70.1011 81.6812 70.2241 82.0328 70.314C82.3882 70.4038 82.73 70.4487 83.0581 70.4487C83.566 70.4487 83.9566 70.3687 84.23 70.2085C84.5035 70.0444 84.6402 69.7964 84.6402 69.4644C84.6402 69.2144 84.5308 69.0015 84.312 68.8257C84.0972 68.646 83.6753 68.4351 83.0464 68.1929C82.4488 67.9702 82.023 67.7769 81.7691 67.6128C81.5191 67.4448 81.3316 67.2554 81.2066 67.0444C81.0855 66.8335 81.0249 66.5815 81.0249 66.2886C81.0249 65.7651 81.2378 65.353 81.6636 65.0522C82.0894 64.7476 82.6734 64.5952 83.4156 64.5952C84.107 64.5952 84.7828 64.7358 85.4429 65.0171L85.0972 65.8081C84.4527 65.5425 83.8687 65.4097 83.3453 65.4097C82.8843 65.4097 82.5367 65.4819 82.3023 65.6265C82.0679 65.771 81.9507 65.9702 81.9507 66.2241C81.9507 66.396 81.9937 66.5425 82.0796 66.6636C82.1695 66.7847 82.312 66.8999 82.5074 67.0093C82.7027 67.1187 83.0777 67.2769 83.6324 67.4839C84.3941 67.7612 84.9078 68.0405 85.1734 68.3218C85.4429 68.603 85.5777 68.9565 85.5777 69.3823ZM90.0818 71.2515C89.6639 71.2515 89.2811 71.1753 88.9334 71.0229C88.5897 70.8667 88.3006 70.6284 88.0662 70.3081H87.9959C88.0428 70.6831 88.0662 71.0386 88.0662 71.3745V74.0171H87.0936V64.7124H87.8846L88.0193 65.5913H88.0662C88.3162 65.2397 88.6072 64.9858 88.9393 64.8296C89.2713 64.6733 89.6522 64.5952 90.0818 64.5952C90.9334 64.5952 91.5897 64.8862 92.0506 65.4683C92.5154 66.0503 92.7479 66.8667 92.7479 67.9175C92.7479 68.9722 92.5115 69.7925 92.0389 70.3784C91.5701 70.9604 90.9178 71.2515 90.0818 71.2515ZM89.9412 65.4214C89.285 65.4214 88.8104 65.603 88.5174 65.9663C88.2244 66.3296 88.074 66.9077 88.0662 67.7007V67.9175C88.0662 68.8198 88.2166 69.4663 88.5174 69.8569C88.8182 70.2437 89.3006 70.437 89.9647 70.437C90.5193 70.437 90.9529 70.2124 91.2654 69.7632C91.5818 69.314 91.74 68.6948 91.74 67.9058C91.74 67.105 91.5818 66.4917 91.2654 66.0659C90.9529 65.6362 90.5115 65.4214 89.9412 65.4214Z" fill="black"/>
<path d="M1.25 85.9998V27.6665H135.275V38.9933L142.25 47.4885L135.275 55.4173V85.9998H1.25Z" stroke="#CCCCCC"/>
<path d="M483.041 33.6021C483.041 34.2401 482.861 34.7619 482.501 35.1675C482.146 35.5731 481.64 35.8442 480.983 35.981V36.0356C481.786 36.1359 482.38 36.3911 482.768 36.8013C483.155 37.2114 483.349 37.7492 483.349 38.4146C483.349 39.367 483.018 40.1007 482.357 40.6157C481.697 41.1261 480.758 41.3813 479.541 41.3813C479.012 41.3813 478.527 41.3403 478.085 41.2583C477.648 41.1808 477.221 41.0418 476.807 40.8413V39.7612C477.24 39.9754 477.7 40.1395 478.188 40.2534C478.68 40.3628 479.145 40.4175 479.582 40.4175C481.309 40.4175 482.173 39.7407 482.173 38.3872C482.173 37.175 481.22 36.5688 479.315 36.5688H478.331V35.5913H479.329C480.108 35.5913 480.726 35.4204 481.182 35.0786C481.637 34.7323 481.865 34.2537 481.865 33.6431C481.865 33.1554 481.697 32.7726 481.359 32.4946C481.027 32.2166 480.573 32.0776 479.999 32.0776C479.562 32.0776 479.149 32.1369 478.762 32.2554C478.374 32.3739 477.932 32.5926 477.436 32.9116L476.861 32.146C477.272 31.8224 477.743 31.5695 478.276 31.3872C478.814 31.2004 479.379 31.1069 479.972 31.1069C480.942 31.1069 481.697 31.3302 482.234 31.7769C482.772 32.2189 483.041 32.8273 483.041 33.6021ZM491.345 41.2446H484.775V40.2671L487.407 37.6216C488.209 36.8104 488.738 36.2316 488.993 35.8853C489.248 35.5389 489.44 35.2017 489.567 34.8735C489.695 34.5454 489.759 34.1922 489.759 33.814C489.759 33.2808 489.597 32.8592 489.273 32.5493C488.95 32.2349 488.501 32.0776 487.927 32.0776C487.512 32.0776 487.118 32.146 486.744 32.2827C486.375 32.4194 485.963 32.6678 485.507 33.0278L484.905 32.2554C485.826 31.4897 486.828 31.1069 487.913 31.1069C488.852 31.1069 489.588 31.3485 490.121 31.8315C490.654 32.3101 490.921 32.9549 490.921 33.7661C490.921 34.3996 490.743 35.0262 490.388 35.646C490.032 36.2658 489.367 37.0496 488.392 37.9976L486.204 40.1372V40.1919H491.345V41.2446ZM498.322 40.2397H498.261C497.737 41.0008 496.953 41.3813 495.909 41.3813C494.929 41.3813 494.166 41.0464 493.619 40.3765C493.077 39.7065 492.806 38.7541 492.806 37.519C492.806 36.284 493.079 35.3247 493.626 34.6411C494.173 33.9575 494.934 33.6157 495.909 33.6157C496.925 33.6157 497.705 33.9849 498.247 34.7231H498.336L498.288 34.1831L498.261 33.6567V30.6079H499.396V41.2446H498.473L498.322 40.2397ZM496.053 40.4312C496.827 40.4312 497.388 40.2215 497.734 39.8022C498.085 39.3784 498.261 38.6971 498.261 37.7583V37.519C498.261 36.4572 498.083 35.7007 497.728 35.2495C497.377 34.7938 496.814 34.5659 496.039 34.5659C495.374 34.5659 494.863 34.8257 494.508 35.3452C494.157 35.8602 493.981 36.5894 493.981 37.5327C493.981 38.4897 494.157 39.2121 494.508 39.6997C494.859 40.1873 495.374 40.4312 496.053 40.4312ZM505.211 41.3813C504.723 41.3813 504.277 41.2925 503.871 41.1147C503.47 40.9325 503.133 40.6545 502.859 40.2808H502.777C502.832 40.7183 502.859 41.133 502.859 41.5249V44.6079H501.725V33.7524H502.647L502.805 34.7778H502.859C503.151 34.3677 503.491 34.0715 503.878 33.8892C504.265 33.7069 504.71 33.6157 505.211 33.6157C506.204 33.6157 506.97 33.9552 507.508 34.6343C508.05 35.3133 508.321 36.2658 508.321 37.4917C508.321 38.7222 508.046 39.6792 507.494 40.3628C506.947 41.0418 506.186 41.3813 505.211 41.3813ZM505.047 34.5796C504.281 34.5796 503.728 34.7915 503.386 35.2153C503.044 35.6392 502.868 36.3136 502.859 37.2388V37.4917C502.859 38.5444 503.035 39.2987 503.386 39.7544C503.737 40.2056 504.299 40.4312 505.074 40.4312C505.721 40.4312 506.227 40.1691 506.592 39.645C506.961 39.1209 507.146 38.3986 507.146 37.478C507.146 36.5438 506.961 35.8283 506.592 35.3315C506.227 34.8302 505.712 34.5796 505.047 34.5796Z" fill="#E8178A"/>
<rect x="230.107" y="40.2839" width="12" height="65.3849" fill="#FF00FF" fill-opacity="0.2"/>
<rect x="395.107" y="39.4609" width="12" height="68.7904" fill="#FF00FF" fill-opacity="0.2"/>
<rect x="408.107" y="39.0354" width="12" height="69.4715" fill="#FF00FF" fill-opacity="0.2"/>
<rect x="571.107" y="38.4109" width="12" height="70.8337" fill="#FF00FF" fill-opacity="0.2"/>
<rect x="584.107" y="38.4109" width="12" height="70.8337" fill="#FF00FF" fill-opacity="0.2"/>
<rect opacity="0.4" x="476.107" y="50.9688" width="32" height="21.795" fill="#EAB7EA"/>
<mask id="path-10-inside-1_8690_185781" fill="white">
<path d="M148.75 29.5364H804.75V109.536H148.75V29.5364Z"/>
</mask>
<path d="M148.75 29.5364H804.75V109.536H148.75V29.5364Z" fill="#E0E1E9"/>
<path d="M247 41.2031C246.411 41.2031 245.851 41.3202 245.342 41.5315C244.831 41.7431 244.246 41.501 244.035 40.9909C243.823 40.4807 244.065 39.8956 244.575 39.6841C245.324 39.3739 246.143 39.2031 247 39.2031H249C249.552 39.2031 250 39.6508 250 40.2031C250 40.7554 249.552 41.2031 249 41.2031H247Z" fill="#217CBB"/>
<path d="M252 40.2031C252 39.6508 252.448 39.2031 253 39.2031H257C257.552 39.2031 258 39.6508 258 40.2031C258 40.7554 257.552 41.2031 257 41.2031H253C252.448 41.2031 252 40.7554 252 40.2031Z" fill="#217CBB"/>
<path d="M260 40.2031C260 39.6508 260.448 39.2031 261 39.2031H263C263.857 39.2031 264.677 39.3739 265.425 39.6841C265.935 39.8957 266.177 40.4807 265.965 40.9909C265.754 41.501 265.169 41.7431 264.659 41.5315C264.149 41.3202 263.589 41.2031 263 41.2031H261C260.448 41.2031 260 40.7554 260 40.2031Z" fill="#217CBB"/>
<path d="M242.454 42.5712C242.965 42.7828 243.207 43.3678 242.995 43.878C242.784 44.3875 242.667 44.9471 242.667 45.5365V47.5365C242.667 48.0887 242.219 48.5365 241.667 48.5365C241.114 48.5365 240.667 48.0887 240.667 47.5365V45.5365C240.667 44.6796 240.837 43.86 241.148 43.1119C241.359 42.6017 241.944 42.3596 242.454 42.5712Z" fill="#217CBB"/>
<path d="M267.546 42.5712C268.056 42.3596 268.641 42.6017 268.852 43.1119C269.163 43.86 269.333 44.6796 269.333 45.5365V47.5365C269.333 48.0887 268.886 48.5365 268.333 48.5365C267.781 48.5365 267.333 48.0887 267.333 47.5365V45.5365C267.333 44.9471 267.216 44.3875 267.005 43.878C266.793 43.3678 267.036 42.7828 267.546 42.5712Z" fill="#217CBB"/>
<path d="M241.667 50.5365C242.219 50.5365 242.667 50.9842 242.667 51.5365V55.5365C242.667 56.0887 242.219 56.5365 241.667 56.5365C241.114 56.5365 240.667 56.0887 240.667 55.5365V51.5365C240.667 50.9842 241.114 50.5365 241.667 50.5365Z" fill="#217CBB"/>
<path d="M268.333 50.5365C268.886 50.5365 269.333 50.9842 269.333 51.5365V55.5365C269.333 56.0887 268.886 56.5365 268.333 56.5365C267.781 56.5365 267.333 56.0887 267.333 55.5365V51.5365C267.333 50.9842 267.781 50.5365 268.333 50.5365Z" fill="#217CBB"/>
<path d="M241.667 58.5365C242.219 58.5365 242.667 58.9842 242.667 59.5365V61.5365C242.667 62.1259 242.784 62.6854 242.995 63.1949C243.207 63.7051 242.965 64.2902 242.454 64.5017C241.944 64.7133 241.359 64.4712 241.148 63.961C240.837 63.2129 240.667 62.3934 240.667 61.5365V59.5365C240.667 58.9842 241.114 58.5365 241.667 58.5365Z" fill="#217CBB"/>
<path d="M268.333 58.5365C268.886 58.5365 269.333 58.9842 269.333 59.5365V61.5365C269.333 62.3934 269.163 63.2129 268.852 63.961C268.641 64.4712 268.056 64.7133 267.546 64.5017C267.036 64.2902 266.793 63.7051 267.005 63.1949C267.216 62.6854 267.333 62.1259 267.333 61.5365V59.5365C267.333 58.9842 267.781 58.5365 268.333 58.5365Z" fill="#217CBB"/>
<path d="M244.035 66.082C244.246 65.5719 244.831 65.3298 245.342 65.5414C245.851 65.7527 246.411 65.8698 247 65.8698H249C249.552 65.8698 250 66.3175 250 66.8698C250 67.4221 249.552 67.8698 249 67.8698H247C246.143 67.8698 245.324 67.6991 244.575 67.3888C244.065 67.1773 243.823 66.5922 244.035 66.082Z" fill="#217CBB"/>
<path d="M265.965 66.082C266.177 66.5922 265.935 67.1773 265.425 67.3888C264.677 67.6991 263.857 67.8698 263 67.8698H261C260.448 67.8698 260 67.4221 260 66.8698C260 66.3175 260.448 65.8698 261 65.8698H263C263.589 65.8698 264.149 65.7527 264.659 65.5414C265.169 65.3298 265.754 65.5719 265.965 66.082Z" fill="#217CBB"/>
<path d="M252 66.8698C252 66.3175 252.448 65.8698 253 65.8698H257C257.552 65.8698 258 66.3175 258 66.8698C258 67.4221 257.552 67.8698 257 67.8698H253C252.448 67.8698 252 67.4221 252 66.8698Z" fill="#217CBB"/>
<path d="M266.374 43.6578C266.764 43.2673 266.764 42.6341 266.374 42.2436C265.983 41.853 265.35 41.853 264.96 42.2436L263.631 43.5718C263.241 43.9624 263.241 44.5955 263.631 44.9861C264.022 45.3766 264.655 45.3766 265.046 44.9861L266.374 43.6578Z" fill="#217CBB"/>
<path d="M262.389 47.6426C262.78 47.2521 262.78 46.6189 262.389 46.2284C261.998 45.8379 261.365 45.8379 260.975 46.2284L258.318 48.885C257.928 49.2755 257.928 49.9086 258.318 50.2992C258.709 50.6897 259.342 50.6897 259.732 50.2992L262.389 47.6426Z" fill="#217CBB"/>
<path d="M257.076 52.9557C257.466 52.5652 257.466 51.932 257.076 51.5415C256.685 51.151 256.052 51.151 255.662 51.5415L255 52.2031L254.338 51.5415C253.948 51.151 253.315 51.151 252.924 51.5415C252.534 51.932 252.534 52.5652 252.924 52.9557L253.586 53.6173L253.005 54.1981C252.615 54.5886 252.615 55.2218 253.005 55.6123C253.396 56.0028 254.029 56.0028 254.419 55.6123L255 55.0316L255.581 55.6123C255.971 56.0028 256.605 56.0028 256.995 55.6123C257.386 55.2218 257.386 54.5886 256.995 54.1981L256.414 53.6173L257.076 52.9557Z" fill="#217CBB"/>
<path d="M251.763 58.2688C252.153 57.8783 252.153 57.2452 251.763 56.8546C251.372 56.4641 250.739 56.4641 250.349 56.8546L247.692 59.5112C247.301 59.9017 247.301 60.5349 247.692 60.9254C248.083 61.3159 248.716 61.3159 249.106 60.9254L251.763 58.2688Z" fill="#217CBB"/>
<path d="M246.45 63.582C246.84 63.1914 246.84 62.5583 246.45 62.1677C246.059 61.7772 245.426 61.7772 245.035 62.1677L243.707 63.496C243.317 63.8865 243.317 64.5197 243.707 64.9102C244.098 65.3008 244.731 65.3008 245.121 64.9102L246.45 63.582Z" fill="#217CBB"/>
<path d="M264.879 64.9102C265.269 65.3008 265.902 65.3008 266.293 64.9102C266.684 64.5197 266.684 63.8865 266.293 63.496L264.965 62.1677C264.574 61.7772 263.941 61.7772 263.55 62.1677C263.16 62.5583 263.16 63.1914 263.55 63.582L264.879 64.9102Z" fill="#217CBB"/>
<path d="M260.894 60.9254C261.284 61.3159 261.918 61.3159 262.308 60.9254C262.699 60.5349 262.699 59.9017 262.308 59.5112L259.652 56.8546C259.261 56.4641 258.628 56.4641 258.237 56.8546C257.847 57.2452 257.847 57.8783 258.237 58.2688L260.894 60.9254Z" fill="#217CBB"/>
<path d="M250.268 50.2992C250.658 50.6897 251.291 50.6897 251.682 50.2992C252.072 49.9086 252.072 49.2755 251.682 48.885L249.025 46.2284C248.635 45.8379 248.002 45.8379 247.611 46.2284C247.221 46.6189 247.221 47.2521 247.611 47.6426L250.268 50.2992Z" fill="#217CBB"/>
<path d="M244.955 44.9861C245.345 45.3766 245.978 45.3766 246.369 44.9861C246.759 44.5955 246.759 43.9624 246.369 43.5718L245.041 42.2436C244.65 41.853 244.017 41.853 243.626 42.2436C243.236 42.6341 243.236 43.2673 243.626 43.6578L244.955 44.9861Z" fill="#217CBB"/>
<path d="M251.075 46.7218C251.472 46.6015 251.894 46.5365 252.333 46.5365H253.333C253.886 46.5365 254.333 46.0887 254.333 45.5365C254.333 44.9842 253.886 44.5365 253.333 44.5365H252.333C251.695 44.5365 251.078 44.6311 250.495 44.8078C249.966 44.9679 249.668 45.5262 249.828 46.0548C249.988 46.5833 250.546 46.882 251.075 46.7218Z" fill="#217CBB"/>
<path d="M256.667 44.5365C256.114 44.5365 255.667 44.9842 255.667 45.5365C255.667 46.0887 256.114 46.5365 256.667 46.5365H257.667C258.106 46.5365 258.528 46.6015 258.926 46.7218C259.454 46.882 260.012 46.5833 260.172 46.0548C260.333 45.5262 260.034 44.9679 259.505 44.8078C258.922 44.6311 258.305 44.5365 257.667 44.5365H256.667Z" fill="#217CBB"/>
<path d="M248.185 49.611C248.346 49.0825 248.047 48.5242 247.518 48.364C246.99 48.2039 246.432 48.5026 246.271 49.0311C246.095 49.6142 246 50.2319 246 50.8698V51.8698C246 52.4221 246.448 52.8698 247 52.8698C247.552 52.8698 248 52.4221 248 51.8698V50.8698C248 50.4305 248.065 50.0082 248.185 49.611Z" fill="#217CBB"/>
<path d="M263.729 49.0311C263.569 48.5026 263.01 48.2039 262.482 48.364C261.953 48.5242 261.655 49.0825 261.815 49.611C261.935 50.0082 262 50.4305 262 50.8698V51.8698C262 52.4221 262.448 52.8698 263 52.8698C263.552 52.8698 264 52.4221 264 51.8698V50.8698C264 50.2319 263.905 49.6142 263.729 49.0311Z" fill="#217CBB"/>
<path d="M248 55.2031C248 54.6508 247.552 54.2031 247 54.2031C246.448 54.2031 246 54.6508 246 55.2031V56.2031C246 56.841 246.095 57.4587 246.271 58.0418C246.432 58.5703 246.99 58.869 247.518 58.7089C248.047 58.5487 248.346 57.9904 248.185 57.4619C248.065 57.0647 248 56.6424 248 56.2031V55.2031Z" fill="#217CBB"/>
<path d="M264 55.2031C264 54.6508 263.552 54.2031 263 54.2031C262.448 54.2031 262 54.6508 262 55.2031V56.2031C262 56.6424 261.935 57.0647 261.815 57.4619C261.655 57.9904 261.953 58.5487 262.482 58.7089C263.01 58.869 263.569 58.5703 263.729 58.0418C263.905 57.4587 264 56.841 264 56.2031V55.2031Z" fill="#217CBB"/>
<path d="M251.075 60.3511C250.546 60.1909 249.988 60.4896 249.828 61.0182C249.668 61.5467 249.966 62.105 250.495 62.2652C251.078 62.4418 251.695 62.5365 252.333 62.5365H253.333C253.886 62.5365 254.333 62.0887 254.333 61.5365C254.333 60.9842 253.886 60.5365 253.333 60.5365H252.333C251.894 60.5365 251.472 60.4714 251.075 60.3511Z" fill="#217CBB"/>
<path d="M259.505 62.2652C260.034 62.105 260.333 61.5467 260.172 61.0182C260.012 60.4896 259.454 60.1909 258.926 60.3511C258.528 60.4714 258.106 60.5365 257.667 60.5365H256.667C256.114 60.5365 255.667 60.9842 255.667 61.5365C255.667 62.0887 256.114 62.5365 256.667 62.5365H257.667C258.305 62.5365 258.922 62.4418 259.505 62.2652Z" fill="#217CBB"/>
<path d="M220.412 88.5334C220.412 90.3023 220.072 91.7812 219.392 92.97C218.718 94.1516 217.741 95.0432 216.459 95.6448C215.177 96.2392 213.634 96.5364 211.829 96.5364H207.382V80.8313H212.312C213.96 80.8313 215.388 81.1249 216.599 81.7122C217.809 82.2922 218.747 83.1552 219.413 84.301C220.079 85.4397 220.412 86.8505 220.412 88.5334ZM216.953 88.6194C216.953 87.4592 216.781 86.5068 216.438 85.762C216.101 85.01 215.6 84.455 214.934 84.0969C214.275 83.7389 213.458 83.5598 212.484 83.5598H210.712V93.7864H212.141C213.766 93.7864 214.973 93.3531 215.761 92.4866C216.556 91.62 216.953 90.331 216.953 88.6194ZM232.962 96.5364H223.917V80.8313H232.962V83.5598H227.247V87.0081H232.564V89.7366H227.247V93.7864H232.962V96.5364ZM239.775 96.5364H236.499V80.8313H245.501V83.5598H239.775V87.6096H245.104V90.3274H239.775V96.5364ZM258.438 96.5364L257.299 92.7981H251.573L250.435 96.5364H246.847L252.39 80.7668H256.461L262.025 96.5364H258.438ZM256.504 90.0051L255.365 86.3528C255.294 86.1093 255.197 85.7978 255.075 85.4182C254.961 85.0315 254.842 84.6412 254.721 84.2473C254.606 83.8463 254.513 83.4989 254.441 83.2053C254.37 83.4989 254.27 83.8642 254.141 84.301C254.019 84.7307 253.901 85.1389 253.786 85.5256C253.672 85.9124 253.589 86.1881 253.539 86.3528L252.411 90.0051H256.504ZM277.046 80.8313V90.9934C277.046 92.0748 276.806 93.0523 276.326 93.926C275.854 94.7926 275.134 95.4801 274.167 95.9885C273.207 96.497 271.997 96.7512 270.536 96.7512C268.459 96.7512 266.877 96.2213 265.788 95.1614C264.7 94.1015 264.155 92.6978 264.155 90.9504V80.8313H267.475V90.4456C267.475 91.7418 267.74 92.6513 268.27 93.1741C268.799 93.6969 269.584 93.9583 270.622 93.9583C271.353 93.9583 271.943 93.8329 272.395 93.5823C272.853 93.3316 273.189 92.9449 273.404 92.4221C273.619 91.8993 273.727 91.2333 273.727 90.4241V80.8313H277.046ZM281.142 96.5364V80.8313H284.472V93.7864H290.842V96.5364H281.142ZM299.89 96.5364H296.56V83.6028H292.295V80.8313H304.154V83.6028H299.89V96.5364Z" fill="#217CBB"/>
<path d="M361.25 105.536H148.75V113.536H361.25V105.536Z" fill="#0063A3" mask="url(#path-12-inside-2_8690_185781)"/>
<path d="M459.5 41.2031C458.911 41.2031 458.351 41.3202 457.842 41.5315C457.331 41.7431 456.746 41.501 456.535 40.9909C456.323 40.4807 456.565 39.8956 457.075 39.6841C457.824 39.3739 458.643 39.2031 459.5 39.2031H461.5C462.052 39.2031 462.5 39.6508 462.5 40.2031C462.5 40.7554 462.052 41.2031 461.5 41.2031H459.5Z" fill="#585C65"/>
<path d="M464.5 40.2031C464.5 39.6508 464.948 39.2031 465.5 39.2031H469.5C470.052 39.2031 470.5 39.6508 470.5 40.2031C470.5 40.7554 470.052 41.2031 469.5 41.2031H465.5C464.948 41.2031 464.5 40.7554 464.5 40.2031Z" fill="#585C65"/>
<path d="M472.5 40.2031C472.5 39.6508 472.948 39.2031 473.5 39.2031H475.5C476.357 39.2031 477.177 39.3739 477.925 39.6841C478.435 39.8957 478.677 40.4807 478.465 40.9909C478.254 41.501 477.669 41.7431 477.159 41.5315C476.649 41.3202 476.089 41.2031 475.5 41.2031H473.5C472.948 41.2031 472.5 40.7554 472.5 40.2031Z" fill="#585C65"/>
<path d="M454.954 42.5712C455.465 42.7828 455.707 43.3678 455.495 43.878C455.284 44.3875 455.167 44.9471 455.167 45.5365V47.5365C455.167 48.0887 454.719 48.5365 454.167 48.5365C453.614 48.5365 453.167 48.0887 453.167 47.5365V45.5365C453.167 44.6796 453.337 43.86 453.648 43.1119C453.859 42.6017 454.444 42.3596 454.954 42.5712Z" fill="#585C65"/>
<path d="M480.046 42.5712C480.556 42.3596 481.141 42.6017 481.352 43.1119C481.663 43.86 481.833 44.6796 481.833 45.5365V47.5365C481.833 48.0887 481.386 48.5365 480.833 48.5365C480.281 48.5365 479.833 48.0887 479.833 47.5365V45.5365C479.833 44.9471 479.716 44.3875 479.505 43.878C479.293 43.3678 479.536 42.7828 480.046 42.5712Z" fill="#585C65"/>
<path d="M454.167 50.5365C454.719 50.5365 455.167 50.9842 455.167 51.5365V55.5365C455.167 56.0887 454.719 56.5365 454.167 56.5365C453.614 56.5365 453.167 56.0887 453.167 55.5365V51.5365C453.167 50.9842 453.614 50.5365 454.167 50.5365Z" fill="#585C65"/>
<path d="M480.833 50.5365C481.386 50.5365 481.833 50.9842 481.833 51.5365V55.5365C481.833 56.0887 481.386 56.5365 480.833 56.5365C480.281 56.5365 479.833 56.0887 479.833 55.5365V51.5365C479.833 50.9842 480.281 50.5365 480.833 50.5365Z" fill="#585C65"/>
<path d="M454.167 58.5365C454.719 58.5365 455.167 58.9842 455.167 59.5365V61.5365C455.167 62.1259 455.284 62.6854 455.495 63.1949C455.707 63.7051 455.465 64.2902 454.954 64.5017C454.444 64.7133 453.859 64.4712 453.648 63.961C453.337 63.2129 453.167 62.3934 453.167 61.5365V59.5365C453.167 58.9842 453.614 58.5365 454.167 58.5365Z" fill="#585C65"/>
<path d="M480.833 58.5365C481.386 58.5365 481.833 58.9842 481.833 59.5365V61.5365C481.833 62.3934 481.663 63.2129 481.352 63.961C481.141 64.4712 480.556 64.7133 480.046 64.5017C479.536 64.2902 479.293 63.7051 479.505 63.1949C479.716 62.6854 479.833 62.1259 479.833 61.5365V59.5365C479.833 58.9842 480.281 58.5365 480.833 58.5365Z" fill="#585C65"/>
<path d="M456.535 66.082C456.746 65.5719 457.331 65.3298 457.842 65.5414C458.351 65.7527 458.911 65.8698 459.5 65.8698H461.5C462.052 65.8698 462.5 66.3175 462.5 66.8698C462.5 67.4221 462.052 67.8698 461.5 67.8698H459.5C458.643 67.8698 457.824 67.6991 457.075 67.3888C456.565 67.1773 456.323 66.5922 456.535 66.082Z" fill="#585C65"/>
<path d="M478.465 66.082C478.677 66.5922 478.435 67.1773 477.925 67.3888C477.177 67.6991 476.357 67.8698 475.5 67.8698H473.5C472.948 67.8698 472.5 67.4221 472.5 66.8698C472.5 66.3175 472.948 65.8698 473.5 65.8698H475.5C476.089 65.8698 476.649 65.7527 477.159 65.5414C477.669 65.3298 478.254 65.5719 478.465 66.082Z" fill="#585C65"/>
<path d="M464.5 66.8698C464.5 66.3175 464.948 65.8698 465.5 65.8698H469.5C470.052 65.8698 470.5 66.3175 470.5 66.8698C470.5 67.4221 470.052 67.8698 469.5 67.8698H465.5C464.948 67.8698 464.5 67.4221 464.5 66.8698Z" fill="#585C65"/>
<path d="M478.874 43.6578C479.264 43.2673 479.264 42.6341 478.874 42.2436C478.483 41.853 477.85 41.853 477.46 42.2436L476.131 43.5718C475.741 43.9624 475.741 44.5955 476.131 44.9861C476.522 45.3766 477.155 45.3766 477.546 44.9861L478.874 43.6578Z" fill="#585C65"/>
<path d="M474.889 47.6426C475.28 47.2521 475.28 46.6189 474.889 46.2284C474.498 45.8379 473.865 45.8379 473.475 46.2284L470.818 48.885C470.428 49.2755 470.428 49.9086 470.818 50.2992C471.209 50.6897 471.842 50.6897 472.232 50.2992L474.889 47.6426Z" fill="#585C65"/>
<path d="M469.576 52.9557C469.966 52.5652 469.966 51.932 469.576 51.5415C469.185 51.151 468.552 51.151 468.162 51.5415L467.5 52.2031L466.838 51.5415C466.448 51.151 465.815 51.151 465.424 51.5415C465.034 51.932 465.034 52.5652 465.424 52.9557L466.086 53.6173L465.505 54.1981C465.115 54.5886 465.115 55.2218 465.505 55.6123C465.896 56.0028 466.529 56.0028 466.919 55.6123L467.5 55.0316L468.081 55.6123C468.471 56.0028 469.105 56.0028 469.495 55.6123C469.886 55.2218 469.886 54.5886 469.495 54.1981L468.914 53.6173L469.576 52.9557Z" fill="#585C65"/>
<path d="M464.263 58.2688C464.653 57.8783 464.653 57.2452 464.263 56.8546C463.872 56.4641 463.239 56.4641 462.849 56.8546L460.192 59.5112C459.801 59.9017 459.801 60.5349 460.192 60.9254C460.583 61.3159 461.216 61.3159 461.606 60.9254L464.263 58.2688Z" fill="#585C65"/>
<path d="M458.95 63.582C459.34 63.1914 459.34 62.5583 458.95 62.1677C458.559 61.7772 457.926 61.7772 457.535 62.1677L456.207 63.496C455.817 63.8865 455.817 64.5197 456.207 64.9102C456.598 65.3008 457.231 65.3008 457.621 64.9102L458.95 63.582Z" fill="#585C65"/>
<path d="M477.379 64.9102C477.769 65.3008 478.402 65.3008 478.793 64.9102C479.184 64.5197 479.184 63.8865 478.793 63.496L477.465 62.1677C477.074 61.7772 476.441 61.7772 476.05 62.1677C475.66 62.5583 475.66 63.1914 476.05 63.582L477.379 64.9102Z" fill="#585C65"/>
<path d="M473.394 60.9254C473.784 61.3159 474.418 61.3159 474.808 60.9254C475.199 60.5349 475.199 59.9017 474.808 59.5112L472.152 56.8546C471.761 56.4641 471.128 56.4641 470.737 56.8546C470.347 57.2452 470.347 57.8783 470.737 58.2688L473.394 60.9254Z" fill="#585C65"/>
<path d="M462.768 50.2992C463.158 50.6897 463.791 50.6897 464.182 50.2992C464.572 49.9086 464.572 49.2755 464.182 48.885L461.525 46.2284C461.135 45.8379 460.502 45.8379 460.111 46.2284C459.721 46.6189 459.721 47.2521 460.111 47.6426L462.768 50.2992Z" fill="#585C65"/>
<path d="M457.455 44.9861C457.845 45.3766 458.478 45.3766 458.869 44.9861C459.259 44.5955 459.259 43.9624 458.869 43.5718L457.541 42.2436C457.15 41.853 456.517 41.853 456.126 42.2436C455.736 42.6341 455.736 43.2673 456.126 43.6578L457.455 44.9861Z" fill="#585C65"/>
<path d="M463.575 46.7218C463.972 46.6015 464.394 46.5365 464.833 46.5365H465.833C466.386 46.5365 466.833 46.0887 466.833 45.5365C466.833 44.9842 466.386 44.5365 465.833 44.5365H464.833C464.195 44.5365 463.578 44.6311 462.995 44.8078C462.466 44.9679 462.168 45.5262 462.328 46.0548C462.488 46.5833 463.046 46.882 463.575 46.7218Z" fill="#585C65"/>
<path d="M469.167 44.5365C468.614 44.5365 468.167 44.9842 468.167 45.5365C468.167 46.0887 468.614 46.5365 469.167 46.5365H470.167C470.606 46.5365 471.028 46.6015 471.426 46.7218C471.954 46.882 472.512 46.5833 472.672 46.0548C472.833 45.5262 472.534 44.9679 472.005 44.8078C471.422 44.6311 470.805 44.5365 470.167 44.5365H469.167Z" fill="#585C65"/>
<path d="M460.685 49.611C460.846 49.0825 460.547 48.5242 460.018 48.364C459.49 48.2039 458.932 48.5026 458.771 49.0311C458.595 49.6142 458.5 50.2319 458.5 50.8698V51.8698C458.5 52.4221 458.948 52.8698 459.5 52.8698C460.052 52.8698 460.5 52.4221 460.5 51.8698V50.8698C460.5 50.4305 460.565 50.0082 460.685 49.611Z" fill="#585C65"/>
<path d="M476.229 49.0311C476.069 48.5026 475.51 48.2039 474.982 48.364C474.453 48.5242 474.155 49.0825 474.315 49.611C474.435 50.0082 474.5 50.4305 474.5 50.8698V51.8698C474.5 52.4221 474.948 52.8698 475.5 52.8698C476.052 52.8698 476.5 52.4221 476.5 51.8698V50.8698C476.5 50.2319 476.405 49.6142 476.229 49.0311Z" fill="#585C65"/>
<path d="M460.5 55.2031C460.5 54.6508 460.052 54.2031 459.5 54.2031C458.948 54.2031 458.5 54.6508 458.5 55.2031V56.2031C458.5 56.841 458.595 57.4587 458.771 58.0418C458.932 58.5703 459.49 58.869 460.018 58.7089C460.547 58.5487 460.846 57.9904 460.685 57.4619C460.565 57.0647 460.5 56.6424 460.5 56.2031V55.2031Z" fill="#585C65"/>
<path d="M476.5 55.2031C476.5 54.6508 476.052 54.2031 475.5 54.2031C474.948 54.2031 474.5 54.6508 474.5 55.2031V56.2031C474.5 56.6424 474.435 57.0647 474.315 57.4619C474.155 57.9904 474.453 58.5487 474.982 58.7089C475.51 58.869 476.069 58.5703 476.229 58.0418C476.405 57.4587 476.5 56.841 476.5 56.2031V55.2031Z" fill="#585C65"/>
<path d="M463.575 60.3511C463.046 60.1909 462.488 60.4896 462.328 61.0182C462.168 61.5467 462.466 62.105 462.995 62.2652C463.578 62.4418 464.195 62.5365 464.833 62.5365H465.833C466.386 62.5365 466.833 62.0887 466.833 61.5365C466.833 60.9842 466.386 60.5365 465.833 60.5365H464.833C464.394 60.5365 463.972 60.4714 463.575 60.3511Z" fill="#585C65"/>
<path d="M472.005 62.2652C472.534 62.105 472.833 61.5467 472.672 61.0182C472.512 60.4896 471.954 60.1909 471.426 60.3511C471.028 60.4714 470.606 60.5365 470.167 60.5365H469.167C468.614 60.5365 468.167 60.9842 468.167 61.5365C468.167 62.0887 468.614 62.5365 469.167 62.5365H470.167C470.805 62.5365 471.422 62.4418 472.005 62.2652Z" fill="#585C65"/>
<path d="M432.912 88.5334C432.912 90.3023 432.572 91.7812 431.892 92.97C431.218 94.1516 430.241 95.0432 428.959 95.6448C427.677 96.2392 426.134 96.5364 424.329 96.5364H419.882V80.8313H424.812C426.46 80.8313 427.888 81.1249 429.099 81.7122C430.309 82.2922 431.247 83.1552 431.913 84.301C432.579 85.4397 432.912 86.8505 432.912 88.5334ZM429.453 88.6194C429.453 87.4592 429.281 86.5068 428.938 85.762C428.601 85.01 428.1 84.455 427.434 84.0969C426.775 83.7389 425.958 83.5598 424.984 83.5598H423.212V93.7864H424.641C426.266 93.7864 427.473 93.3531 428.261 92.4866C429.056 91.62 429.453 90.331 429.453 88.6194ZM445.462 96.5364H436.417V80.8313H445.462V83.5598H439.747V87.0081H445.064V89.7366H439.747V93.7864H445.462V96.5364ZM452.275 96.5364H448.999V80.8313H458.001V83.5598H452.275V87.6096H457.604V90.3274H452.275V96.5364ZM470.938 96.5364L469.799 92.7981H464.073L462.935 96.5364H459.347L464.89 80.7668H468.961L474.525 96.5364H470.938ZM469.004 90.0051L467.865 86.3528C467.794 86.1093 467.697 85.7978 467.575 85.4182C467.461 85.0315 467.342 84.6412 467.221 84.2473C467.106 83.8463 467.013 83.4989 466.941 83.2053C466.87 83.4989 466.77 83.8642 466.641 84.301C466.519 84.7307 466.401 85.1389 466.286 85.5256C466.172 85.9124 466.089 86.1881 466.039 86.3528L464.911 90.0051H469.004ZM489.546 80.8313V90.9934C489.546 92.0748 489.306 93.0523 488.826 93.926C488.354 94.7926 487.634 95.4801 486.667 95.9885C485.707 96.497 484.497 96.7512 483.036 96.7512C480.959 96.7512 479.377 96.2213 478.288 95.1614C477.2 94.1015 476.655 92.6978 476.655 90.9504V80.8313H479.975V90.4456C479.975 91.7418 480.24 92.6513 480.77 93.1741C481.299 93.6969 482.084 93.9583 483.122 93.9583C483.853 93.9583 484.443 93.8329 484.895 93.5823C485.353 93.3316 485.689 92.9449 485.904 92.4221C486.119 91.8993 486.227 91.2333 486.227 90.4241V80.8313H489.546ZM493.642 96.5364V80.8313H496.972V93.7864H503.342V96.5364H493.642ZM512.39 96.5364H509.06V83.6028H504.795V80.8313H516.654V83.6028H512.39V96.5364Z" fill="#585C65"/>
<path d="M681.25 41.2031C680.661 41.2031 680.101 41.3202 679.592 41.5315C679.081 41.7431 678.496 41.501 678.285 40.9909C678.073 40.4807 678.315 39.8956 678.825 39.6841C679.574 39.3739 680.393 39.2031 681.25 39.2031H683.25C683.802 39.2031 684.25 39.6508 684.25 40.2031C684.25 40.7554 683.802 41.2031 683.25 41.2031H681.25Z" fill="#585C65"/>
<path d="M686.25 40.2031C686.25 39.6508 686.698 39.2031 687.25 39.2031H691.25C691.802 39.2031 692.25 39.6508 692.25 40.2031C692.25 40.7554 691.802 41.2031 691.25 41.2031H687.25C686.698 41.2031 686.25 40.7554 686.25 40.2031Z" fill="#585C65"/>
<path d="M694.25 40.2031C694.25 39.6508 694.698 39.2031 695.25 39.2031H697.25C698.107 39.2031 698.927 39.3739 699.675 39.6841C700.185 39.8957 700.427 40.4807 700.215 40.9909C700.004 41.501 699.419 41.7431 698.909 41.5315C698.399 41.3202 697.839 41.2031 697.25 41.2031H695.25C694.698 41.2031 694.25 40.7554 694.25 40.2031Z" fill="#585C65"/>
<path d="M676.704 42.5712C677.215 42.7828 677.457 43.3678 677.245 43.878C677.034 44.3875 676.917 44.9471 676.917 45.5365V47.5365C676.917 48.0887 676.469 48.5365 675.917 48.5365C675.364 48.5365 674.917 48.0887 674.917 47.5365V45.5365C674.917 44.6796 675.087 43.86 675.398 43.1119C675.609 42.6017 676.194 42.3596 676.704 42.5712Z" fill="#585C65"/>
<path d="M701.796 42.5712C702.306 42.3596 702.891 42.6017 703.102 43.1119C703.413 43.86 703.583 44.6796 703.583 45.5365V47.5365C703.583 48.0887 703.136 48.5365 702.583 48.5365C702.031 48.5365 701.583 48.0887 701.583 47.5365V45.5365C701.583 44.9471 701.466 44.3875 701.255 43.878C701.043 43.3678 701.286 42.7828 701.796 42.5712Z" fill="#585C65"/>
<path d="M675.917 50.5365C676.469 50.5365 676.917 50.9842 676.917 51.5365V55.5365C676.917 56.0887 676.469 56.5365 675.917 56.5365C675.364 56.5365 674.917 56.0887 674.917 55.5365V51.5365C674.917 50.9842 675.364 50.5365 675.917 50.5365Z" fill="#585C65"/>
<path d="M702.583 50.5365C703.136 50.5365 703.583 50.9842 703.583 51.5365V55.5365C703.583 56.0887 703.136 56.5365 702.583 56.5365C702.031 56.5365 701.583 56.0887 701.583 55.5365V51.5365C701.583 50.9842 702.031 50.5365 702.583 50.5365Z" fill="#585C65"/>
<path d="M675.917 58.5365C676.469 58.5365 676.917 58.9842 676.917 59.5365V61.5365C676.917 62.1259 677.034 62.6854 677.245 63.1949C677.457 63.7051 677.215 64.2902 676.704 64.5017C676.194 64.7133 675.609 64.4712 675.398 63.961C675.087 63.2129 674.917 62.3934 674.917 61.5365V59.5365C674.917 58.9842 675.364 58.5365 675.917 58.5365Z" fill="#585C65"/>
<path d="M702.583 58.5365C703.136 58.5365 703.583 58.9842 703.583 59.5365V61.5365C703.583 62.3934 703.413 63.2129 703.102 63.961C702.891 64.4712 702.306 64.7133 701.796 64.5017C701.286 64.2902 701.043 63.7051 701.255 63.1949C701.466 62.6854 701.583 62.1259 701.583 61.5365V59.5365C701.583 58.9842 702.031 58.5365 702.583 58.5365Z" fill="#585C65"/>
<path d="M678.285 66.082C678.496 65.5719 679.081 65.3298 679.592 65.5414C680.101 65.7527 680.661 65.8698 681.25 65.8698H683.25C683.802 65.8698 684.25 66.3175 684.25 66.8698C684.25 67.4221 683.802 67.8698 683.25 67.8698H681.25C680.393 67.8698 679.574 67.6991 678.825 67.3888C678.315 67.1773 678.073 66.5922 678.285 66.082Z" fill="#585C65"/>
<path d="M700.215 66.082C700.427 66.5922 700.185 67.1773 699.675 67.3888C698.927 67.6991 698.107 67.8698 697.25 67.8698H695.25C694.698 67.8698 694.25 67.4221 694.25 66.8698C694.25 66.3175 694.698 65.8698 695.25 65.8698H697.25C697.839 65.8698 698.399 65.7527 698.909 65.5414C699.419 65.3298 700.004 65.5719 700.215 66.082Z" fill="#585C65"/>
<path d="M686.25 66.8698C686.25 66.3175 686.698 65.8698 687.25 65.8698H691.25C691.802 65.8698 692.25 66.3175 692.25 66.8698C692.25 67.4221 691.802 67.8698 691.25 67.8698H687.25C686.698 67.8698 686.25 67.4221 686.25 66.8698Z" fill="#585C65"/>
<path d="M700.624 43.6578C701.014 43.2673 701.014 42.6341 700.624 42.2436C700.233 41.853 699.6 41.853 699.21 42.2436L697.881 43.5718C697.491 43.9624 697.491 44.5955 697.881 44.9861C698.272 45.3766 698.905 45.3766 699.296 44.9861L700.624 43.6578Z" fill="#585C65"/>
<path d="M696.639 47.6426C697.03 47.2521 697.03 46.6189 696.639 46.2284C696.248 45.8379 695.615 45.8379 695.225 46.2284L692.568 48.885C692.178 49.2755 692.178 49.9086 692.568 50.2992C692.959 50.6897 693.592 50.6897 693.982 50.2992L696.639 47.6426Z" fill="#585C65"/>
<path d="M691.326 52.9557C691.716 52.5652 691.716 51.932 691.326 51.5415C690.935 51.151 690.302 51.151 689.912 51.5415L689.25 52.2031L688.588 51.5415C688.198 51.151 687.565 51.151 687.174 51.5415C686.784 51.932 686.784 52.5652 687.174 52.9557L687.836 53.6173L687.255 54.1981C686.865 54.5886 686.865 55.2218 687.255 55.6123C687.646 56.0028 688.279 56.0028 688.669 55.6123L689.25 55.0316L689.831 55.6123C690.221 56.0028 690.855 56.0028 691.245 55.6123C691.636 55.2218 691.636 54.5886 691.245 54.1981L690.664 53.6173L691.326 52.9557Z" fill="#585C65"/>
<path d="M686.013 58.2688C686.403 57.8783 686.403 57.2452 686.013 56.8546C685.622 56.4641 684.989 56.4641 684.599 56.8546L681.942 59.5112C681.551 59.9017 681.551 60.5349 681.942 60.9254C682.333 61.3159 682.966 61.3159 683.356 60.9254L686.013 58.2688Z" fill="#585C65"/>
<path d="M680.7 63.582C681.09 63.1914 681.09 62.5583 680.7 62.1677C680.309 61.7772 679.676 61.7772 679.285 62.1677L677.957 63.496C677.567 63.8865 677.567 64.5197 677.957 64.9102C678.348 65.3008 678.981 65.3008 679.371 64.9102L680.7 63.582Z" fill="#585C65"/>
<path d="M699.129 64.9102C699.519 65.3008 700.152 65.3008 700.543 64.9102C700.934 64.5197 700.934 63.8865 700.543 63.496L699.215 62.1677C698.824 61.7772 698.191 61.7772 697.8 62.1677C697.41 62.5583 697.41 63.1914 697.8 63.582L699.129 64.9102Z" fill="#585C65"/>
<path d="M695.144 60.9254C695.534 61.3159 696.168 61.3159 696.558 60.9254C696.949 60.5349 696.949 59.9017 696.558 59.5112L693.902 56.8546C693.511 56.4641 692.878 56.4641 692.487 56.8546C692.097 57.2452 692.097 57.8783 692.487 58.2688L695.144 60.9254Z" fill="#585C65"/>
<path d="M684.518 50.2992C684.908 50.6897 685.541 50.6897 685.932 50.2992C686.322 49.9086 686.322 49.2755 685.932 48.885L683.275 46.2284C682.885 45.8379 682.252 45.8379 681.861 46.2284C681.471 46.6189 681.471 47.2521 681.861 47.6426L684.518 50.2992Z" fill="#585C65"/>
<path d="M679.205 44.9861C679.595 45.3766 680.228 45.3766 680.619 44.9861C681.009 44.5955 681.009 43.9624 680.619 43.5718L679.291 42.2436C678.9 41.853 678.267 41.853 677.876 42.2436C677.486 42.6341 677.486 43.2673 677.876 43.6578L679.205 44.9861Z" fill="#585C65"/>
<path d="M685.325 46.7218C685.722 46.6015 686.144 46.5365 686.583 46.5365H687.583C688.136 46.5365 688.583 46.0887 688.583 45.5365C688.583 44.9842 688.136 44.5365 687.583 44.5365H686.583C685.945 44.5365 685.328 44.6311 684.745 44.8078C684.216 44.9679 683.918 45.5262 684.078 46.0548C684.238 46.5833 684.796 46.882 685.325 46.7218Z" fill="#585C65"/>
<path d="M690.917 44.5365C690.364 44.5365 689.917 44.9842 689.917 45.5365C689.917 46.0887 690.364 46.5365 690.917 46.5365H691.917C692.356 46.5365 692.778 46.6015 693.176 46.7218C693.704 46.882 694.262 46.5833 694.422 46.0548C694.583 45.5262 694.284 44.9679 693.755 44.8078C693.172 44.6311 692.555 44.5365 691.917 44.5365H690.917Z" fill="#585C65"/>
<path d="M682.435 49.611C682.596 49.0825 682.297 48.5242 681.768 48.364C681.24 48.2039 680.682 48.5026 680.521 49.0311C680.345 49.6142 680.25 50.2319 680.25 50.8698V51.8698C680.25 52.4221 680.698 52.8698 681.25 52.8698C681.802 52.8698 682.25 52.4221 682.25 51.8698V50.8698C682.25 50.4305 682.315 50.0082 682.435 49.611Z" fill="#585C65"/>
<path d="M697.979 49.0311C697.819 48.5026 697.26 48.2039 696.732 48.364C696.203 48.5242 695.905 49.0825 696.065 49.611C696.185 50.0082 696.25 50.4305 696.25 50.8698V51.8698C696.25 52.4221 696.698 52.8698 697.25 52.8698C697.802 52.8698 698.25 52.4221 698.25 51.8698V50.8698C698.25 50.2319 698.155 49.6142 697.979 49.0311Z" fill="#585C65"/>
<path d="M682.25 55.2031C682.25 54.6508 681.802 54.2031 681.25 54.2031C680.698 54.2031 680.25 54.6508 680.25 55.2031V56.2031C680.25 56.841 680.345 57.4587 680.521 58.0418C680.682 58.5703 681.24 58.869 681.768 58.7089C682.297 58.5487 682.596 57.9904 682.435 57.4619C682.315 57.0647 682.25 56.6424 682.25 56.2031V55.2031Z" fill="#585C65"/>
<path d="M698.25 55.2031C698.25 54.6508 697.802 54.2031 697.25 54.2031C696.698 54.2031 696.25 54.6508 696.25 55.2031V56.2031C696.25 56.6424 696.185 57.0647 696.065 57.4619C695.905 57.9904 696.203 58.5487 696.732 58.7089C697.26 58.869 697.819 58.5703 697.979 58.0418C698.155 57.4587 698.25 56.841 698.25 56.2031V55.2031Z" fill="#585C65"/>
<path d="M685.325 60.3511C684.796 60.1909 684.238 60.4896 684.078 61.0182C683.918 61.5467 684.216 62.105 684.745 62.2652C685.328 62.4418 685.945 62.5365 686.583 62.5365H687.583C688.136 62.5365 688.583 62.0887 688.583 61.5365C688.583 60.9842 688.136 60.5365 687.583 60.5365H686.583C686.144 60.5365 685.722 60.4714 685.325 60.3511Z" fill="#585C65"/>
<path d="M693.755 62.2652C694.284 62.105 694.583 61.5467 694.422 61.0182C694.262 60.4896 693.704 60.1909 693.176 60.3511C692.778 60.4714 692.356 60.5365 691.917 60.5365H690.917C690.364 60.5365 689.917 60.9842 689.917 61.5365C689.917 62.0887 690.364 62.5365 690.917 62.5365H691.917C692.555 62.5365 693.172 62.4418 693.755 62.2652Z" fill="#585C65"/>
<path d="M654.662 88.5334C654.662 90.3023 654.322 91.7812 653.642 92.97C652.968 94.1516 651.991 95.0432 650.709 95.6448C649.427 96.2392 647.884 96.5364 646.079 96.5364H641.632V80.8313H646.562C648.21 80.8313 649.638 81.1249 650.849 81.7122C652.059 82.2922 652.997 83.1552 653.663 84.301C654.329 85.4397 654.662 86.8505 654.662 88.5334ZM651.203 88.6194C651.203 87.4592 651.031 86.5068 650.688 85.762C650.351 85.01 649.85 84.455 649.184 84.0969C648.525 83.7389 647.708 83.5598 646.734 83.5598H644.962V93.7864H646.391C648.016 93.7864 649.223 93.3531 650.011 92.4866C650.806 91.62 651.203 90.331 651.203 88.6194ZM667.212 96.5364H658.167V80.8313H667.212V83.5598H661.497V87.0081H666.814V89.7366H661.497V93.7864H667.212V96.5364ZM674.025 96.5364H670.749V80.8313H679.751V83.5598H674.025V87.6096H679.354V90.3274H674.025V96.5364ZM692.688 96.5364L691.549 92.7981H685.823L684.685 96.5364H681.097L686.64 80.7668H690.711L696.275 96.5364H692.688ZM690.754 90.0051L689.615 86.3528C689.544 86.1093 689.447 85.7978 689.325 85.4182C689.211 85.0315 689.092 84.6412 688.971 84.2473C688.856 83.8463 688.763 83.4989 688.691 83.2053C688.62 83.4989 688.52 83.8642 688.391 84.301C688.269 84.7307 688.151 85.1389 688.036 85.5256C687.922 85.9124 687.839 86.1881 687.789 86.3528L686.661 90.0051H690.754ZM711.296 80.8313V90.9934C711.296 92.0748 711.056 93.0523 710.576 93.926C710.104 94.7926 709.384 95.4801 708.417 95.9885C707.457 96.497 706.247 96.7512 704.786 96.7512C702.709 96.7512 701.127 96.2213 700.038 95.1614C698.95 94.1015 698.405 92.6978 698.405 90.9504V80.8313H701.725V90.4456C701.725 91.7418 701.99 92.6513 702.52 93.1741C703.049 93.6969 703.834 93.9583 704.872 93.9583C705.603 93.9583 706.193 93.8329 706.645 93.5823C707.103 93.3316 707.439 92.9449 707.654 92.4221C707.869 91.8993 707.977 91.2333 707.977 90.4241V80.8313H711.296ZM715.392 96.5364V80.8313H718.722V93.7864H725.092V96.5364H715.392ZM734.14 96.5364H730.81V83.6028H726.545V80.8313H738.404V83.6028H734.14V96.5364Z" fill="#585C65"/>
<path d="M804.75 108.536H148.75V110.536H804.75V108.536Z" fill="#A3A6B1" mask="url(#path-10-inside-1_8690_185781)"/>
<rect x="792.25" y="27.8801" width="12" height="84" fill="#FF00FF" fill-opacity="0.2"/>
<rect x="587.25" y="28.6719" width="12" height="84" fill="#FF00FF" fill-opacity="0.2"/>
<rect x="574.25" y="28.4426" width="12" height="84" fill="#FF00FF" fill-opacity="0.2"/>
<rect x="355.25" y="27.4426" width="12" height="84" fill="#FF00FF" fill-opacity="0.2"/>
<rect x="148.25" y="29.2239" width="12" height="84" fill="#FF00FF" fill-opacity="0.2"/>
<rect x="451" y="37.5" width="32" height="32" fill="#FF00FF" fill-opacity="0.2"/>
<rect x="368.25" y="27.4426" width="12" height="84" fill="#FF00FF" fill-opacity="0.2"/>
<path d="M460.573 20.4426H454.024V19.4924L456.697 16.7786C457.194 16.2773 457.611 15.8306 457.948 15.4387C458.29 15.0468 458.55 14.6617 458.728 14.2834C458.905 13.9006 458.994 13.4814 458.994 13.0256C458.994 12.4605 458.826 12.0299 458.488 11.7336C458.156 11.4329 457.716 11.2825 457.169 11.2825C456.69 11.2825 456.267 11.3645 455.898 11.5286C455.528 11.6926 455.15 11.925 454.763 12.2258L454.154 11.4602C454.419 11.2369 454.706 11.0387 455.016 10.8655C455.33 10.6923 455.665 10.5556 456.021 10.4553C456.381 10.3551 456.763 10.3049 457.169 10.3049C457.784 10.3049 458.315 10.412 458.762 10.6262C459.208 10.8404 459.552 11.1458 459.794 11.5422C460.04 11.9387 460.163 12.4104 460.163 12.9573C460.163 13.4859 460.058 13.9781 459.849 14.4338C459.639 14.885 459.345 15.3339 458.967 15.7805C458.589 16.2226 458.147 16.692 457.641 17.1887L455.467 19.3557V19.4036H460.573V20.4426ZM465.254 10.3049C465.833 10.3049 466.345 10.3961 466.792 10.5784C467.239 10.7607 467.587 11.0295 467.838 11.385C468.093 11.7359 468.221 12.1689 468.221 12.6838C468.221 13.0894 468.132 13.4449 467.954 13.7502C467.781 14.051 467.546 14.3153 467.25 14.5432C466.954 14.7665 466.626 14.967 466.266 15.1448C466.694 15.3407 467.079 15.5618 467.421 15.8079C467.767 16.054 468.041 16.3433 468.241 16.676C468.442 17.0087 468.542 17.4029 468.542 17.8586C468.542 18.4192 468.405 18.9045 468.132 19.3147C467.863 19.7203 467.485 20.0325 466.997 20.2512C466.509 20.47 465.938 20.5793 465.281 20.5793C464.575 20.5793 463.973 20.4745 463.477 20.2649C462.984 20.0507 462.608 19.7454 462.349 19.3489C462.093 18.9478 461.966 18.467 461.966 17.9065C461.966 17.4462 462.064 17.0474 462.26 16.7102C462.456 16.3684 462.716 16.0745 463.039 15.8284C463.363 15.5823 463.716 15.3749 464.099 15.2063C463.766 15.024 463.461 14.8167 463.183 14.5842C462.909 14.3518 462.69 14.0806 462.526 13.7708C462.367 13.4563 462.287 13.0917 462.287 12.677C462.287 12.1711 462.415 11.7428 462.67 11.3918C462.93 11.0364 463.283 10.7675 463.73 10.5852C464.181 10.3984 464.689 10.3049 465.254 10.3049ZM463.08 17.9133C463.08 18.4237 463.26 18.8453 463.62 19.178C463.98 19.5061 464.525 19.6702 465.254 19.6702C465.947 19.6702 466.482 19.5061 466.86 19.178C467.239 18.8453 467.428 18.4101 467.428 17.8723C467.428 17.5396 467.341 17.248 467.168 16.9973C466.995 16.7421 466.749 16.5142 466.43 16.3137C466.111 16.1132 465.735 15.9309 465.302 15.7668L465.056 15.678C464.636 15.8512 464.279 16.0448 463.982 16.259C463.691 16.4687 463.467 16.7079 463.313 16.9768C463.158 17.2457 463.08 17.5579 463.08 17.9133ZM465.24 11.2346C464.703 11.2346 464.263 11.3645 463.921 11.6243C463.579 11.8795 463.408 12.2486 463.408 12.7317C463.408 13.078 463.49 13.372 463.654 13.6135C463.823 13.8505 464.051 14.0556 464.338 14.2288C464.625 14.3974 464.946 14.5546 465.302 14.7004C465.648 14.5546 465.956 14.3951 466.225 14.2219C466.494 14.0442 466.705 13.8346 466.86 13.593C467.015 13.3515 467.093 13.0621 467.093 12.7249C467.093 12.2418 466.922 11.8726 466.58 11.6174C466.243 11.3622 465.796 11.2346 465.24 11.2346ZM473.052 20.5793C472.104 20.5793 471.352 20.2558 470.796 19.6086C470.244 18.9615 469.969 17.9999 469.969 16.7239C469.969 15.4342 470.251 14.4612 470.816 13.8049C471.382 13.1441 472.133 12.8137 473.072 12.8137C473.469 12.8137 473.815 12.8661 474.111 12.9709C474.408 13.0758 474.663 13.217 474.877 13.3948C475.091 13.568 475.271 13.7662 475.417 13.9895H475.499C475.481 13.8482 475.463 13.6545 475.444 13.4084C475.426 13.1624 475.417 12.9618 475.417 12.8069V9.80591H476.552V20.4426H475.636L475.465 19.3762H475.417C475.276 19.5995 475.096 19.8023 474.877 19.9846C474.663 20.1669 474.405 20.3127 474.105 20.4221C473.808 20.5269 473.457 20.5793 473.052 20.5793ZM473.23 19.636C474.032 19.636 474.599 19.4081 474.932 18.9524C475.264 18.4967 475.431 17.8199 475.431 16.9221V16.717C475.431 15.7646 475.271 15.0331 474.952 14.5227C474.638 14.0123 474.063 13.7571 473.23 13.7571C472.532 13.7571 472.01 14.026 471.664 14.5637C471.318 15.0969 471.145 15.8261 471.145 16.7512C471.145 17.6718 471.315 18.3827 471.657 18.884C472.004 19.3853 472.528 19.636 473.23 19.636ZM482.395 12.8137C483.329 12.8137 484.074 13.135 484.63 13.7776C485.186 14.4202 485.464 15.3863 485.464 16.676C485.464 17.5282 485.336 18.2437 485.081 18.8225C484.826 19.4013 484.466 19.8388 484.001 20.135C483.541 20.4312 482.996 20.5793 482.367 20.5793C481.971 20.5793 481.622 20.5269 481.321 20.4221C481.021 20.3173 480.763 20.176 480.549 19.9983C480.335 19.8206 480.157 19.6269 480.016 19.4172H479.934C479.947 19.595 479.963 19.8092 479.981 20.0598C480.004 20.3105 480.016 20.5292 480.016 20.7161V23.7922H478.874V12.9504H479.811L479.961 14.0579H480.016C480.161 13.83 480.339 13.6226 480.549 13.4358C480.758 13.2444 481.014 13.094 481.314 12.9846C481.62 12.8707 481.98 12.8137 482.395 12.8137ZM482.196 13.7708C481.677 13.7708 481.257 13.871 480.938 14.0715C480.624 14.2721 480.394 14.5728 480.248 14.9739C480.102 15.3704 480.025 15.8694 480.016 16.4709V16.6897C480.016 17.3232 480.084 17.8586 480.221 18.2961C480.362 18.7336 480.592 19.0663 480.911 19.2942C481.235 19.5221 481.668 19.636 482.21 19.636C482.675 19.636 483.062 19.5107 483.372 19.26C483.682 19.0094 483.912 18.6607 484.062 18.2141C484.217 17.7629 484.295 17.2457 484.295 16.6624C484.295 15.7782 484.122 15.0764 483.775 14.5569C483.434 14.0328 482.907 13.7708 482.196 13.7708Z" fill="#E8178A"/>
<path d="M816.666 62.3333H815.559V55.2102C815.559 54.6178 815.577 54.0572 815.613 53.5286C815.518 53.6243 815.411 53.7245 815.292 53.8293C815.174 53.9342 814.631 54.3785 813.665 55.1624L813.063 54.3831L815.709 52.3391H816.666V62.3333ZM826.959 62.3333H820.39V61.3557L823.021 58.7102C823.824 57.899 824.352 57.3202 824.607 56.9739C824.863 56.6275 825.054 56.2903 825.182 55.9622C825.309 55.634 825.373 55.2808 825.373 54.9026C825.373 54.3694 825.211 53.9478 824.888 53.6379C824.564 53.3235 824.115 53.1663 823.541 53.1663C823.126 53.1663 822.732 53.2346 822.358 53.3713C821.989 53.5081 821.577 53.7564 821.121 54.1165L820.52 53.344C821.44 52.5784 822.443 52.1956 823.527 52.1956C824.466 52.1956 825.202 52.4371 825.735 52.9202C826.269 53.3987 826.535 54.0435 826.535 54.8547C826.535 55.4882 826.357 56.1148 826.002 56.7346C825.646 57.3544 824.981 58.1383 824.006 59.0862L821.818 61.2258V61.2805H826.959V62.3333ZM833.937 61.3284H833.875C833.351 62.0894 832.567 62.47 831.523 62.47C830.544 62.47 829.78 62.135 829.233 61.4651C828.691 60.7952 828.42 59.8427 828.42 58.6077C828.42 57.3726 828.693 56.4133 829.24 55.7297C829.787 55.0461 830.548 54.7043 831.523 54.7043C832.54 54.7043 833.319 55.0735 833.861 55.8118H833.95L833.902 55.2717L833.875 54.7454V51.6965H835.01V62.3333H834.087L833.937 61.3284ZM831.667 61.5198C832.442 61.5198 833.002 61.3101 833.349 60.8909C833.7 60.467 833.875 59.7857 833.875 58.8469V58.6077C833.875 57.5458 833.697 56.7893 833.342 56.3381C832.991 55.8824 832.428 55.6545 831.653 55.6545C830.988 55.6545 830.478 55.9143 830.122 56.4338C829.771 56.9488 829.596 57.678 829.596 58.6213C829.596 59.5784 829.771 60.3007 830.122 60.7883C830.473 61.276 830.988 61.5198 831.667 61.5198ZM840.825 62.47C840.338 62.47 839.891 62.3811 839.485 62.2034C839.084 62.0211 838.747 61.7431 838.474 61.3694H838.392C838.446 61.8069 838.474 62.2216 838.474 62.6135V65.6965H837.339V54.8411H838.262L838.419 55.8665H838.474C838.765 55.4563 839.105 55.1601 839.492 54.9778C839.88 54.7955 840.324 54.7043 840.825 54.7043C841.819 54.7043 842.584 55.0439 843.122 55.7229C843.664 56.4019 843.936 57.3544 843.936 58.5803C843.936 59.8108 843.66 60.7678 843.108 61.4514C842.561 62.1305 841.8 62.47 840.825 62.47ZM840.661 55.6682C839.895 55.6682 839.342 55.8801 839 56.304C838.658 56.7278 838.483 57.4023 838.474 58.3274V58.5803C838.474 59.6331 838.649 60.3873 839 60.843C839.351 61.2942 839.914 61.5198 840.688 61.5198C841.336 61.5198 841.841 61.2577 842.206 60.7336C842.575 60.2096 842.76 59.4872 842.76 58.5667C842.76 57.6324 842.575 56.9169 842.206 56.4202C841.841 55.9189 841.326 55.6682 840.661 55.6682Z" fill="#E8178A"/>
<path d="M852 30H861V110H852" stroke="#4091D2"/>
<path d="M871.434 65.3223C872.254 65.3223 872.914 65.5098 873.414 65.8848C873.918 66.2559 874.17 66.7578 874.17 67.3906C874.17 67.8281 874.049 68.2188 873.807 68.5625C873.564 68.9023 873.174 69.207 872.635 69.4766C873.275 69.8203 873.734 70.1797 874.012 70.5547C874.293 70.9258 874.434 71.334 874.434 71.7793C874.434 72.4824 874.158 73.0488 873.607 73.4785C873.057 73.9043 872.332 74.1172 871.434 74.1172C870.496 74.1172 869.76 73.918 869.225 73.5195C868.689 73.1211 868.422 72.5566 868.422 71.8262C868.422 71.3379 868.551 70.9043 868.809 70.5254C869.07 70.1465 869.488 69.8125 870.062 69.5234C869.574 69.2148 869.223 68.8848 869.008 68.5332C868.793 68.1816 868.686 67.7969 868.686 67.3789C868.686 66.7656 868.939 66.2695 869.447 65.8906C869.955 65.5117 870.617 65.3223 871.434 65.3223ZM870.098 71.7207C870.098 72.0566 870.215 72.3184 870.449 72.5059C870.684 72.6934 871.004 72.7871 871.41 72.7871C871.859 72.7871 872.195 72.6914 872.418 72.5C872.641 72.3047 872.752 72.0488 872.752 71.7324C872.752 71.4707 872.641 71.2266 872.418 71C872.199 70.7695 871.842 70.5254 871.346 70.2676C870.514 70.6504 870.098 71.1348 870.098 71.7207ZM871.422 66.6465C871.113 66.6465 870.863 66.7266 870.672 66.8867C870.484 67.043 870.391 67.2539 870.391 67.5195C870.391 67.7539 870.465 67.9648 870.613 68.1523C870.766 68.3359 871.039 68.5254 871.434 68.7207C871.816 68.541 872.084 68.3574 872.236 68.1699C872.389 67.9824 872.465 67.7656 872.465 67.5195C872.465 67.25 872.367 67.0371 872.172 66.8809C871.977 66.7246 871.727 66.6465 871.422 66.6465ZM881.205 69.7168C881.205 71.2129 880.959 72.3203 880.467 73.0391C879.979 73.7578 879.225 74.1172 878.205 74.1172C877.217 74.1172 876.471 73.7461 875.967 73.0039C875.467 72.2617 875.217 71.166 875.217 69.7168C875.217 68.2051 875.461 67.0918 875.949 66.377C876.438 65.6582 877.19 65.2988 878.205 65.2988C879.194 65.2988 879.94 65.6738 880.444 66.4238C880.951 67.1738 881.205 68.2715 881.205 69.7168ZM877.016 69.7168C877.016 70.7676 877.106 71.5215 877.285 71.9785C877.469 72.4316 877.776 72.6582 878.205 72.6582C878.627 72.6582 878.932 72.4277 879.119 71.9668C879.307 71.5059 879.401 70.7559 879.401 69.7168C879.401 68.666 879.305 67.9121 879.114 67.4551C878.926 66.9941 878.623 66.7637 878.205 66.7637C877.78 66.7637 877.475 66.9941 877.291 67.4551C877.108 67.9121 877.016 68.666 877.016 69.7168ZM884.579 74.1172C883.809 74.1172 883.204 73.8184 882.762 73.2207C882.325 72.623 882.106 71.7949 882.106 70.7363C882.106 69.6621 882.329 68.8262 882.774 68.2285C883.223 67.627 883.84 67.3262 884.626 67.3262C885.45 67.3262 886.079 67.6465 886.512 68.2871H886.571C886.481 67.7988 886.436 67.3633 886.436 66.9805V64.8828H888.229V74H886.858L886.512 73.1504H886.436C886.03 73.7949 885.411 74.1172 884.579 74.1172ZM885.206 72.6934C885.663 72.6934 885.997 72.5605 886.208 72.2949C886.422 72.0293 886.54 71.5781 886.559 70.9414V70.748C886.559 70.0449 886.45 69.541 886.231 69.2363C886.016 68.9316 885.665 68.7793 885.176 68.7793C884.778 68.7793 884.467 68.9492 884.245 69.2891C884.026 69.625 883.917 70.1152 883.917 70.7598C883.917 71.4043 884.028 71.8887 884.251 72.2129C884.473 72.5332 884.792 72.6934 885.206 72.6934ZM893.624 74.1172C892.854 74.1172 892.251 73.8379 891.813 73.2793H891.72C891.782 73.8262 891.813 74.1426 891.813 74.2285V76.8828H890.026V67.4492H891.479L891.731 68.2988H891.813C892.231 67.6504 892.85 67.3262 893.671 67.3262C894.444 67.3262 895.05 67.625 895.487 68.2227C895.925 68.8203 896.143 69.6504 896.143 70.7129C896.143 71.4121 896.04 72.0195 895.833 72.5352C895.63 73.0508 895.339 73.4434 894.96 73.7129C894.581 73.9824 894.136 74.1172 893.624 74.1172ZM893.097 68.7559C892.655 68.7559 892.333 68.8926 892.13 69.166C891.927 69.4355 891.821 69.8828 891.813 70.5078V70.7012C891.813 71.4043 891.917 71.9082 892.124 72.2129C892.335 72.5176 892.667 72.6699 893.12 72.6699C893.921 72.6699 894.321 72.0098 894.321 70.6895C894.321 70.0449 894.222 69.5625 894.022 69.2422C893.827 68.918 893.518 68.7559 893.097 68.7559Z" fill="#4091D2"/>
</svg>
