<svg fill="none" height="71" viewBox="0 0 691 71" width="691" xmlns="http://www.w3.org/2000/svg" xmlns:xlink="http://www.w3.org/1999/xlink"><mask id="a" fill="#fff"><path d="m288.039 8.16675h140v51.99995h-140z" fill="#fff"/></mask><mask id="b" fill="#fff"><path d="m428.039 8.16675h140v51.99995h-140z" fill="#fff"/></mask><path d="m14.0723 27.6211c0 .5078-.1231.9492-.3692 1.3242s-.6054.6641-1.0781.8672c-.4688.2031-1.0391.3047-1.7109.3047-.2969 0-.5879-.0195-.8731-.0586-.28123-.0391-.55272-.0957-.81444-.1699-.25781-.0782-.5039-.1739-.73828-.2871v-1.6875c.40625.1797.82813.3418 1.26563.4863.43749.1445.87109.2168 1.30079.2168.2969 0 .5351-.0391.7148-.1172.1836-.0781.3164-.1855.3985-.3223.082-.1367.123-.2929.123-.4687 0-.2149-.0722-.3985-.2168-.5508-.1445-.1523-.3437-.2949-.5976-.4277-.25-.1328-.5332-.2754-.8496-.4278-.1993-.0937-.4161-.207-.65044-.3398-.23437-.1367-.45703-.3027-.66797-.4981-.21093-.1953-.38476-.4316-.52148-.7089-.13281-.2813-.19922-.6172-.19922-1.0079 0-.5117.11719-.9492.35156-1.3125.23438-.3632.56836-.6406 1.00196-.832.43749-.1953.95309-.293 1.54689-.293.4453 0 .8691.0528 1.2715.1583.4062.1015.83.25 1.2714.4453l-.5859 1.4121c-.3945-.1602-.748-.2832-1.0605-.3692-.3125-.0898-.6309-.1347-.9551-.1347-.2266 0-.4199.0371-.5801.1113-.1601.0703-.2812.1719-.3633.3047-.082.1289-.123.2793-.123.4512 0 .2031.0586.375.1758.5156.1211.1367.3007.2695.539.3984.2422.1289.543.2793.9024.4512.4375.207.8105.4238 1.1191.6504.3125.2226.5527.4863.7207.791.168.3008.252.6758.252 1.125zm4.0998 1.0723c.1954 0 .3848-.0196.5684-.0586.1875-.0391.373-.0879.5566-.1465v1.3301c-.1914.0859-.4296.1562-.7148.2109-.2813.0586-.5898.0879-.9258.0879-.3906 0-.7422-.0625-1.0547-.1875-.3086-.1289-.5527-.3496-.7324-.6621-.1758-.3164-.2637-.7559-.2637-1.3184v-3.1582h-.8554v-.7558l.9843-.5977.5157-1.3828h1.1425v1.3945h1.834v1.3418h-1.834v3.1582c0 .25.0704.4375.211.5625.1445.1211.334.1817.5683.1817zm6.0394-5.3672c.0898 0 .1933.0058.3105.0176.1211.0078.2188.0195.293.0351l-.1348 1.6758c-.0586-.0195-.1426-.0332-.2519-.041-.1055-.0117-.1973-.0176-.2754-.0176-.2305 0-.4551.0293-.6739.0879-.2148.0586-.4082.1543-.58.2871-.1719.1289-.3086.3008-.4102.5156-.0976.211-.1465.4707-.1465.7793v3.334h-1.7871v-6.5508h1.3535l.2637 1.1016h.0879c.1289-.2227.2891-.4258.4805-.6094.1953-.1875.416-.3359.6621-.4453.25-.1133.5195-.1699.8086-.1699zm7.6741 3.3867c0 .5469-.0743 1.0312-.2227 1.4531-.1445.4219-.3574.7793-.6387 1.0723-.2773.289-.6132.5078-1.0078.6562-.3906.1485-.832.2227-1.3242.2227-.4609 0-.8848-.0742-1.2715-.2227-.3828-.1484-.7168-.3672-1.0019-.6562-.2813-.293-.5-.6504-.6563-1.0723-.1523-.4219-.2285-.9062-.2285-1.4531 0-.7266.1289-1.3418.3867-1.8457s.625-.8867 1.1016-1.1484c.4765-.2618 1.0449-.3926 1.7051-.3926.6132 0 1.1562.1308 1.6289.3926.4765.2617.8496.6445 1.1191 1.1484.2734.5039.4102 1.1191.4102 1.8457zm-4.5293 0c0 .4297.0468.791.1406 1.084.0937.2929.2402.5136.4394.6621.1993.1484.459.2226.7793.2226.3164 0 .5723-.0742.7676-.2226.1992-.1485.3438-.3692.4336-.6621.0938-.293.1406-.6543.1406-1.084 0-.4336-.0468-.793-.1406-1.0781-.0898-.2891-.2344-.5059-.4336-.6504-.1992-.1446-.459-.2168-.7793-.2168-.4726 0-.8164.1621-1.0312.4863-.211.3242-.3164.8106-.3164 1.459zm7.7209-5.8301v4.0781c0 .2461-.0097.4922-.0293.7383-.0195.2461-.041.4922-.0644.7383h.0234c.1211-.1719.2442-.3418.3692-.5098.1289-.1679.2656-.33.4101-.4863l1.834-1.9922h2.0156l-2.6015 2.8418 2.7597 3.709h-2.0625l-1.8867-2.6543-.7676.6152v2.0391h-1.7871v-9.1172zm8.2835 2.4434c.6055 0 1.127.1172 1.5645.3515.4375.2305.7753.5664 1.0136 1.0078.2383.4415.3574.9805.3574 1.6172v.8672h-4.2246c.0196.5039.17.9004.4512 1.1895.2852.2851.6797.4277 1.1836.4277.418 0 .8008-.043 1.1484-.1289.3477-.0859.7051-.2148 1.0723-.3867v1.3828c-.3242.1602-.6641.2773-1.0195.3516-.3516.0742-.7793.1113-1.2832.1113-.6563 0-1.2383-.1211-1.7461-.3633-.5039-.2422-.9004-.6113-1.1895-1.1074-.2851-.4961-.4277-1.1211-.4277-1.875 0-.7656.1289-1.4024.3867-1.9102.2617-.5117.625-.8945 1.0899-1.1484.4648-.2578 1.0058-.3867 1.623-.3867zm.0117 1.2715c-.3476 0-.6367.1113-.8672.3339-.2265.2227-.3574.5723-.3925 1.0489h2.5078c-.0039-.2657-.0528-.502-.1465-.709-.0899-.207-.2266-.3711-.4102-.4922-.1797-.1211-.4101-.1816-.6914-.1816zm7.0923 1.7402c0-.5156.0352-1.0195.1055-1.5117.0742-.4922.1973-.9492.3692-1.3711.1718-.4258.4062-.7989.7031-1.1192s.666-.5703 1.1074-.75c.4453-.1836.9785-.2754 1.5996-.2754.1758 0 .3652.0098.5684.0293.2031.0157.3711.043.5039.0821v.8379c-.1446-.0508-.3106-.0879-.4981-.1114-.1836-.0234-.3691-.0351-.5566-.0351-.7266 0-1.2988.1582-1.7168.4746-.4141.3164-.7129.7461-.8965 1.2891-.1836.539-.2891 1.1464-.3164 1.8222h.0645c.1211-.1953.2753-.3711.4628-.5273.1875-.1602.4141-.2871.6797-.3809.2696-.0937.5821-.1406.9375-.1406.5 0 .9356.1016 1.3067.3047.375.2031.664.498.8672.8847.207.3868.3105.8555.3105 1.4063 0 .5898-.1094 1.0996-.3281 1.5293-.2188.4297-.5313.7617-.9375.9961-.4024.2305-.8828.3457-1.4414.3457-.418 0-.8028-.0801-1.1543-.2402-.3516-.1602-.6582-.3985-.9199-.7149-.2579-.3164-.459-.709-.6036-1.1777-.1445-.4727-.2168-1.0215-.2168-1.6465zm2.8829 2.959c.5312 0 .957-.1699 1.2773-.5098.3203-.3398.4805-.8535.4805-1.541 0-.5625-.1426-1.0078-.4278-1.3359-.2851-.3282-.7148-.4922-1.289-.4922-.3906 0-.7305.082-1.0196.2461-.289.1601-.5136.3632-.6738.6093-.1601.2461-.2402.4961-.2402.75 0 .2578.0371.5196.1113.7852.0781.2656.1953.5117.3516.7383.1562.2265.3535.4082.5918.5449s.5175.2051.8379.2051zm6.5432.8203c-.8125 0-1.457-.2774-1.9336-.832-.4727-.5547-.709-1.379-.709-2.4727 0-1.1055.2422-1.9395.7266-2.502.4844-.5664 1.1289-.8496 1.9336-.8496.3398 0 .6367.045.8906.1348s.4727.2109.6562.3633c.1836.1484.3379.3183.4629.5098h.0704c-.0157-.1211-.0313-.2872-.0469-.4981s-.0235-.3828-.0235-.5156v-2.5723h.9727v9.1172h-.7852l-.1464-.9141h-.0411c-.1211.1914-.2754.3653-.4629.5215-.1835.1563-.4042.2813-.6621.375-.2539.0899-.5546.1348-.9023.1348zm.1523-.8086c.6875 0 1.1739-.1953 1.459-.5859.2852-.3907.4278-.9707.4278-1.7403v-.1758c0-.8164-.1368-1.4433-.4102-1.8808-.2695-.4375-.7617-.6563-1.4766-.6563-.5976 0-1.0449.2305-1.3418.6914-.2968.4571-.4453 1.0821-.4453 1.875 0 .7891.1465 1.3985.4395 1.8282.2969.4297.7461.6445 1.3476.6445zm7.8558-5.8477c.8008 0 1.4394.2754 1.916.8262s.7148 1.3789.7148 2.4844c0 .7305-.1093 1.3437-.3281 1.8398-.2187.4961-.5273.8711-.9258 1.125-.3945.2539-.8613.3809-1.4004.3809-.3398 0-.6386-.0449-.8964-.1348-.2579-.0898-.4786-.2109-.6622-.3633-.1835-.1523-.3359-.3183-.457-.498h-.0703c.0117.1523.0254.3359.041.5508.0195.2148.0293.4023.0293.5625v2.6367h-.9785v-9.293h.8027l.1289.9492h.0469c.125-.1953.2774-.373.457-.5332.1797-.164.3985-.2929.6563-.3867.2617-.0976.5703-.1465.9258-.1465zm-.1699.8203c-.4454 0-.8047.086-1.0782.2579-.2695.1718-.4668.4297-.5918.7734-.125.3398-.1914.7676-.1992 1.2832v.1875c0 .543.0586 1.002.1758 1.377.1211.375.3184.6601.5918.8554.2773.1953.6484.293 1.1133.293.3984 0 .7304-.1074.9961-.3223.2656-.2148.4629-.5136.5918-.8965.1328-.3867.1992-.83.1992-1.33 0-.7578-.1485-1.3594-.4453-1.8047-.293-.4492-.7442-.6739-1.3535-.6739zm-56.9263 25.7188h-1.78708v-8.5664h4.91018v1.4883h-3.1231v2.209h2.9063v1.4824h-2.9063zm10.5394-3.2871c0 .5469-.0743 1.0312-.2227 1.4531-.1445.4219-.3574.7793-.6387 1.0723-.2773.289-.6132.5078-1.0078.6562-.3906.1485-.832.2227-1.3242.2227-.4609 0-.8848-.0742-1.2715-.2227-.3828-.1484-.7168-.3672-1.0019-.6562-.2813-.293-.5-.6504-.6563-1.0723-.1523-.4219-.2285-.9062-.2285-1.4531 0-.7266.1289-1.3418.3867-1.8457s.625-.8867 1.1016-1.1484c.4765-.2618 1.0449-.3926 1.7051-.3926.6132 0 1.1562.1308 1.6289.3926.4765.2617.8496.6445 1.1191 1.1484.2734.5039.4102 1.1191.4102 1.8457zm-4.5293 0c0 .4297.0468.791.1406 1.084.0937.2929.2402.5136.4394.6621.1993.1484.459.2226.7793.2226.3164 0 .5723-.0742.7676-.2226.1992-.1485.3438-.3692.4336-.6621.0938-.293.1406-.6543.1406-1.084 0-.4336-.0468-.793-.1406-1.0781-.0898-.2891-.2344-.5059-.4336-.6504-.1992-.1446-.459-.2168-.7793-.2168-.4726 0-.8164.1621-1.0312.4863-.211.3242-.3164.8106-.3164 1.459zm9.6545-3.3867c.6992 0 1.2617.1914 1.6875.5742.4258.3789.6387.9883.6387 1.8281v4.2715h-1.7871v-3.8262c0-.4687-.0859-.8222-.2578-1.0605-.168-.2383-.4336-.3574-.7969-.3574-.5469 0-.9199.1855-1.1191.5566-.1993.3711-.2989.9063-.2989 1.6055v3.082h-1.7871v-6.5508h1.3653l.2402.8379h.0996c.1406-.2266.3145-.4101.5215-.5508.2109-.1406.4433-.2441.6973-.3105.2578-.0664.5234-.0996.7968-.0996zm6.8538 5.3672c.1953 0 .3848-.0196.5684-.0586.1875-.0391.373-.0879.5566-.1465v1.3301c-.1914.0859-.4297.1562-.7148.2109-.2813.0586-.5899.0879-.9258.0879-.3906 0-.7422-.0625-1.0547-.1875-.3086-.1289-.5527-.3496-.7324-.6621-.1758-.3164-.2637-.7559-.2637-1.3184v-3.1582h-.8555v-.7558l.9844-.5977.5156-1.3828h1.1426v1.3945h1.834v1.3418h-1.834v3.1582c0 .25.0703.4375.211.5625.1445.1211.3339.1817.5683.1817zm9.9986-.6387c0 .4453-.1055.8223-.3164 1.1308-.2071.3047-.5176.5372-.9317.6973-.414.1563-.9296.2344-1.5468.2344-.4571 0-.8496-.0293-1.1778-.0879-.3242-.0586-.6523-.1563-.9843-.293v-1.4765c.3554.1601.7363.2929 1.1425.3984.4102.1016.7696.1523 1.0782.1523.3476 0 .5957-.0507.7441-.1523.1523-.1055.2285-.2422.2285-.4102 0-.1093-.0312-.207-.0937-.2929-.0586-.0899-.1875-.1895-.3868-.2989-.1992-.1132-.5117-.2597-.9375-.4394-.4101-.1719-.748-.3457-1.0136-.5215-.2617-.1758-.4571-.3828-.586-.6211-.125-.2422-.1875-.5488-.1875-.9199 0-.6055.2344-1.0605.7032-1.3652.4726-.3086 1.1035-.4629 1.8925-.4629.4063 0 .793.041 1.1602.123.3711.082.7519.2129 1.1426.3926l-.5391 1.2891c-.3242-.1407-.6308-.2559-.9199-.3457-.2852-.0899-.5762-.1348-.8731-.1348-.2617 0-.4589.0351-.5918.1055-.1328.0703-.1992.1777-.1992.3222 0 .1055.0332.1992.0996.2813.0703.082.2032.1738.3985.2754.1992.0976.4902.2246.873.3808.3711.1524.6934.3125.9668.4805.2735.1641.4844.3691.6328.6152.1485.2422.2227.5567.2227.9434zm3.1096-4.6055v6.5508h-1.7871v-6.5508zm-.8906-2.5664c.2656 0 .4941.0625.6856.1875.1914.1211.2871.3496.2871.6856 0 .332-.0957.5625-.2871.6914-.1915.125-.42.1875-.6856.1875-.2695 0-.5-.0625-.6914-.1875-.1875-.1289-.2813-.3594-.2813-.6914 0-.336.0938-.5645.2813-.6856.1914-.125.4219-.1875.6914-.1875zm7.2581 9.1172h-5.1738v-1.0547l3.0351-4.1308h-2.8535v-1.3653h4.8867v1.1602l-2.9531 4.0254h3.0586zm3.9299-6.6738c.6055 0 1.127.1172 1.5645.3515.4375.2305.7754.5664 1.0137 1.0078.2382.4415.3574.9805.3574 1.6172v.8672h-4.2246c.0195.5039.1699.9004.4511 1.1895.2852.2851.6797.4277 1.1836.4277.418 0 .8008-.043 1.1485-.1289.3476-.0859.7051-.2148 1.0722-.3867v1.3828c-.3242.1602-.664.2773-1.0195.3516-.3516.0742-.7793.1113-1.2832.1113-.6562 0-1.2383-.1211-1.7461-.3633-.5039-.2422-.9004-.6113-1.1894-1.1074-.2852-.4961-.4278-1.1211-.4278-1.875 0-.7656.1289-1.4024.3867-1.9102.2618-.5117.625-.8945 1.0899-1.1484.4648-.2578 1.0058-.3867 1.623-.3867zm.0118 1.2715c-.3477 0-.6368.1113-.8672.3339-.2266.2227-.3575.5723-.3926 1.0489h2.5078c-.0039-.2657-.0527-.502-.1465-.709-.0898-.207-.2265-.3711-.4101-.4922-.1797-.1211-.4102-.1816-.6914-.1816zm4.053 4.5644c0-.3672.0996-.625.2988-.7734.2031-.1485.4472-.2227.7324-.2227.2773 0 .5156.0742.7148.2227.2032.1484.3047.4062.3047.7734 0 .3516-.1015.6055-.3047.7617-.1992.1563-.4375.2344-.7148.2344-.2852 0-.5293-.0781-.7324-.2344-.1992-.1562-.2988-.4101-.2988-.7617zm0-4.8398c0-.3672.0996-.625.2988-.7735.2031-.1484.4472-.2226.7324-.2226.2773 0 .5156.0742.7148.2226.2032.1485.3047.4063.3047.7735 0 .3554-.1015.6113-.3047.7675-.1992.1524-.4375.2286-.7148.2286-.2852 0-.5293-.0762-.7324-.2286-.1992-.1562-.2988-.4121-.2988-.7675zm11.9145 5.6777h-5.6132v-.8145l2.291-2.3261c.4258-.4297.7832-.8125 1.0722-1.1485.293-.3359.5157-.666.668-.9902.1524-.3281.2285-.6875.2285-1.0781 0-.4844-.1445-.8535-.4336-1.1074-.2851-.2579-.6621-.3868-1.1308-.3868-.4102 0-.7735.0704-1.0899.211s-.6406.3398-.9726.5976l-.5215-.6562c.2266-.1914.4727-.3613.7383-.5098.2695-.1484.5566-.2656.8613-.3515.3086-.086.6367-.129.9844-.129.5273 0 .9824.0918 1.3652.2754s.6777.4453.8848.7852c.2109.3398.3164.7441.3164 1.2129 0 .4531-.0899.875-.2695 1.2656-.1797.3867-.4317.7715-.7559 1.1543-.3242.3789-.7031.7813-1.1367 1.207l-1.8633 1.8575v.041h4.3769zm6.7952 0h-5.6132v-.8145l2.291-2.3261c.4258-.4297.7832-.8125 1.0722-1.1485.293-.3359.5157-.666.668-.9902.1523-.3281.2285-.6875.2285-1.0781 0-.4844-.1445-.8535-.4336-1.1074-.2851-.2579-.6621-.3868-1.1308-.3868-.4102 0-.7735.0704-1.0899.211s-.6406.3398-.9726.5976l-.5215-.6562c.2265-.1914.4726-.3613.7383-.5098.2695-.1484.5566-.2656.8613-.3515.3086-.086.6367-.129.9844-.129.5273 0 .9824.0918 1.3652.2754s.6777.4453.8848.7852c.2109.3398.3164.7441.3164 1.2129 0 .4531-.0899.875-.2696 1.2656-.1796.3867-.4316.7715-.7558 1.1543-.3242.3789-.7031.7813-1.1367 1.207l-1.8633 1.8575v.041h4.3769zm5.7698-1.7578c0 .4101-.1035.7558-.3105 1.0371-.2031.2773-.4961.4863-.8789.6269-.3789.1407-.8321.211-1.3594.211-.4492 0-.8379-.0352-1.166-.1055s-.6152-.1699-.8613-.2988v-.8965c.2617.1289.5742.2461.9375.3516.3632.1054.7343.1582 1.1132.1582.5547 0 .9571-.0899 1.2071-.2696.25-.1796.375-.4238.375-.7324 0-.1758-.0508-.3301-.1524-.4629-.0976-.1367-.2636-.2675-.498-.3925-.2344-.129-.5586-.2696-.9727-.4219-.4101-.1563-.7656-.3106-1.0664-.4629-.2969-.1563-.5273-.3457-.6914-.5684-.1601-.2226-.2402-.5117-.2402-.8672 0-.5429.2187-.9589.6562-1.248.4414-.293 1.0196-.4395 1.7344-.4395.3867 0 .7481.0391 1.084.1172.3398.0742.6562.1758.9492.3047l-.3281.7793c-.2656-.1133-.5488-.209-.8496-.2871s-.6074-.1172-.9199-.1172c-.4493 0-.795.0742-1.0372.2227-.2382.1484-.3574.3515-.3574.6093 0 .1993.0547.3633.1641.4922.1133.1289.293.25.539.3633.2461.1133.5704.2461.9727.3985.4023.1484.75.3027 1.043.4628.2929.1563.5175.3477.6738.5743.1602.2226.2402.5097.2402.8613zm4.5101-4.7813c.8007 0 1.4394.2754 1.916.8262.4765.5508.7148 1.3789.7148 2.4844 0 .7305-.1094 1.3437-.3281 1.8398-.2188.4961-.5274.8711-.9258 1.125-.3945.2539-.8613.3809-1.4004.3809-.3398 0-.6387-.0449-.8965-.1348-.2578-.0898-.4785-.2109-.6621-.3633-.1836-.1523-.3359-.3183-.457-.498h-.0703c.0117.1523.0254.3359.041.5508.0195.2148.0293.4023.0293.5625v2.6367h-.9785v-9.293h.8027l.1289.9492h.0469c.125-.1953.2773-.373.457-.5332.1797-.164.3985-.2929.6563-.3867.2617-.0976.5703-.1465.9258-.1465zm-.17.8203c-.4453 0-.8047.086-1.0781.2579-.2695.1718-.4668.4297-.5918.7734-.125.3398-.1914.7676-.1992 1.2832v.1875c0 .543.0586 1.002.1758 1.377.1211.375.3183.6601.5918.8554.2773.1953.6484.293 1.1133.293.3984 0 .7304-.1074.996-.3223.2657-.2148.4629-.5136.5918-.8965.1329-.3867.1993-.83.1993-1.33 0-.7578-.1485-1.3594-.4453-1.8047-.293-.4492-.7442-.6739-1.3536-.6739z" fill="#fff"/><path d="m.9375 70.1667v-68.99995h134.0245v13.39805l6.976 10.0485-6.976 9.3787v36.1747z" stroke="#ccc"/><path d="m147.688 8h140v52h-140z" fill="#464b52"/><path d="m183.1 34.9971c0 1.7689-.341 3.2477-1.021 4.4365-.673 1.1816-1.651 2.0732-2.933 2.6748-1.281.5944-2.825.8916-4.629.8916h-4.448v-15.7051h4.931c1.647 0 3.076.2936 4.286.8809 1.21.5801 2.149 1.443 2.815 2.5888.666 1.1387.999 2.5495.999 4.2325zm-3.459.0859c0-1.1601-.172-2.1126-.516-2.8574-.337-.752-.838-1.307-1.504-1.6651-.659-.358-1.475-.5371-2.449-.5371h-1.773v10.2266h1.429c1.626 0 2.832-.4333 3.62-1.2998.795-.8665 1.193-2.1556 1.193-3.8672zm16.008 7.917h-9.045v-15.7051h9.045v2.7285h-5.714v3.4483h5.317v2.7285h-5.317v4.0498h5.714zm6.814 0h-3.276v-15.7051h9.001v2.7285h-5.725v4.0498h5.328v2.7178h-5.328zm18.662 0-1.139-3.7383h-5.725l-1.139 3.7383h-3.588l5.543-15.7695h4.071l5.565 15.7695zm-1.934-6.5312-1.138-3.6524c-.072-.2435-.169-.555-.29-.9346-.115-.3867-.233-.777-.355-1.1709-.114-.401-.207-.7483-.279-1.042-.072.2937-.172.6589-.301 1.0957-.122.4297-.24.8379-.354 1.2247-.115.3867-.197.6624-.247.8271l-1.128 3.6524zm20.542-9.1739v10.1621c0 1.0814-.24 2.059-.719 2.9326-.473.8666-1.193 1.5541-2.16 2.0625-.959.5085-2.169.7627-3.63.7627-2.077 0-3.66-.5299-4.748-1.5898-1.089-1.0599-1.633-2.4635-1.633-4.2109v-10.1192h3.319v9.6143c0 1.2962.265 2.2057.795 2.7285s1.314.7842 2.353.7842c.73 0 1.321-.1254 1.772-.376.458-.2507.795-.6374 1.01-1.1602.215-.5227.322-1.1888.322-1.998v-9.5928zm4.096 15.7051v-15.7051h3.33v12.9551h6.37v2.75zm18.748 0h-3.33v-12.9336h-4.265v-2.7715h11.86v2.7715h-4.265z" fill="#019aeb"/><path d="m147.438 58.5h140" stroke="#019aeb" stroke-width="4"/><g opacity=".8"><path d="m288.039 8.16675h140v51.99995h-140z" fill="#464b52"/><path d="m323.451 35.1638c0 1.7689-.34 3.2477-1.02 4.4365-.674 1.1817-1.651 2.0733-2.933 2.6748-1.282.5944-2.825.8916-4.63.8916h-4.447v-15.705h4.931c1.647 0 3.075.2936 4.286.8808 1.21.5801 2.148 1.4431 2.814 2.5889.666 1.1387.999 2.5495.999 4.2324zm-3.459.086c0-1.1602-.172-2.1127-.515-2.8575-.337-.7519-.838-1.3069-1.504-1.665-.659-.3581-1.476-.5371-2.45-.5371h-1.772v10.2265h1.429c1.625 0 2.832-.4332 3.62-1.2998.795-.8665 1.192-2.1556 1.192-3.8671zm16.009 7.9169h-9.045v-15.705h9.045v2.7285h-5.715v3.4482h5.318v2.7285h-5.318v4.0498h5.715zm6.813 0h-3.276v-15.705h9.002v2.7285h-5.726v4.0498h5.329v2.7178h-5.329zm18.663 0-1.139-3.7382h-5.726l-1.138 3.7382h-3.588l5.543-15.7695h4.071l5.564 15.7695zm-1.934-6.5312-1.139-3.6523c-.071-.2435-.168-.5551-.29-.9346-.114-.3867-.232-.777-.354-1.1709-.115-.4011-.208-.7484-.28-1.042-.071.2936-.171.6588-.3 1.0957-.122.4297-.24.8379-.355 1.2246-.114.3867-.197.6624-.247.8272l-1.128 3.6523zm20.542-9.1738v10.1621c0 1.0814-.24 2.0589-.72 2.9326-.472.8665-1.192 1.554-2.159 2.0625-.96.5085-2.17.7627-3.631.7627-2.077 0-3.659-.53-4.748-1.5899-1.088-1.0598-1.633-2.4635-1.633-4.2109v-10.1191h3.32v9.6142c0 1.2963.265 2.2058.795 2.7285.53.5228 1.314.7842 2.352.7842.731 0 1.321-.1253 1.773-.376.458-.2506.795-.6373 1.009-1.1601.215-.5228.323-1.1888.323-1.9981v-9.5927zm4.096 15.705v-15.705h3.33v12.955h6.37v2.75zm18.748 0h-3.33v-12.9335h-4.265v-2.7715h11.859v2.7715h-4.264z" fill="#b7b9c3"/><path d="m289.039 60.1667v-51.99995h-2v51.99995z" fill="#7d808d" mask="url(#a)"/></g><g opacity=".8"><path d="m428.039 8.16675h140v51.99995h-140z" fill="#464b52"/><path d="m463.451 35.1638c0 1.7689-.34 3.2477-1.02 4.4365-.674 1.1817-1.651 2.0733-2.933 2.6748-1.282.5944-2.825.8916-4.63.8916h-4.447v-15.705h4.931c1.647 0 3.075.2936 4.286.8808 1.21.5801 2.148 1.4431 2.814 2.5889.666 1.1387.999 2.5495.999 4.2324zm-3.459.086c0-1.1602-.172-2.1127-.515-2.8575-.337-.7519-.838-1.3069-1.504-1.665-.659-.3581-1.476-.5371-2.45-.5371h-1.772v10.2265h1.429c1.625 0 2.832-.4332 3.62-1.2998.795-.8665 1.192-2.1556 1.192-3.8671zm16.009 7.9169h-9.045v-15.705h9.045v2.7285h-5.715v3.4482h5.318v2.7285h-5.318v4.0498h5.715zm6.813 0h-3.276v-15.705h9.002v2.7285h-5.726v4.0498h5.329v2.7178h-5.329zm18.663 0-1.139-3.7382h-5.726l-1.138 3.7382h-3.588l5.543-15.7695h4.071l5.564 15.7695zm-1.934-6.5312-1.139-3.6523c-.071-.2435-.168-.5551-.29-.9346-.114-.3867-.232-.777-.354-1.1709-.115-.4011-.208-.7484-.28-1.042-.071.2936-.171.6588-.3 1.0957-.122.4297-.24.8379-.355 1.2246-.114.3867-.197.6624-.247.8272l-1.128 3.6523zm20.542-9.1738v10.1621c0 1.0814-.24 2.0589-.72 2.9326-.472.8665-1.192 1.554-2.159 2.0625-.96.5085-2.17.7627-3.631.7627-2.077 0-3.659-.53-4.748-1.5899-1.088-1.0598-1.633-2.4635-1.633-4.2109v-10.1191h3.32v9.6142c0 1.2963.265 2.2058.795 2.7285.53.5228 1.314.7842 2.352.7842.731 0 1.321-.1253 1.773-.376.458-.2506.795-.6373 1.009-1.1601.215-.5228.323-1.1888.323-1.9981v-9.5927zm4.096 15.705v-15.705h3.33v12.955h6.37v2.75zm18.748 0h-3.33v-12.9335h-4.265v-2.7715h11.859v2.7715h-4.264z" fill="#b7b9c3"/><path d="m429.039 60.1667v-51.99995h-2v51.99995z" fill="#7d808d" mask="url(#b)"/></g><g fill="#f0f" fill-opacity=".2"><path d="m147.438 8.5h12v52h-12z"/><path d="m556.438 7.5h12v52h-12z"/><path d="m428.438 7.5h12v52h-12z"/><path d="m415.438 8.5h12v52h-12z"/><path d="m289.438 8.5h12v52h-12z"/><path d="m275.438 8.5h12v52h-12z"/></g><path d="m580.882 41.25h-1.108v-7.123c0-.5925.019-1.153.055-1.6817-.096.0957-.203.196-.321.3008-.119.1048-.661.5491-1.627 1.333l-.602-.7793 2.646-2.0439h.957zm10.293 0h-6.57v-.9775l2.632-2.6455c.802-.8112 1.331-1.39 1.586-1.7364.255-.3463.447-.6836.574-1.0117.128-.3281.192-.6813.192-1.0596 0-.5332-.162-.9547-.485-1.2646-.324-.3145-.773-.4717-1.347-.4717-.415 0-.809.0684-1.183.2051-.369.1367-.781.3851-1.237.7451l-.602-.7725c.921-.7656 1.924-1.1484 3.008-1.1484.939 0 1.675.2415 2.208.7246.533.4785.8 1.1234.8 1.9346 0 .6334-.178 1.2601-.533 1.8799-.356.6198-1.021 1.4036-1.996 2.3515l-2.188 2.1397v.0547h5.141zm6.977-1.0049h-.061c-.524.7611-1.308 1.1416-2.352 1.1416-.98 0-1.743-.3349-2.29-1.0049-.542-.6699-.813-1.6224-.813-2.8574s.273-2.1943.82-2.8779 1.308-1.0254 2.283-1.0254c1.017 0 1.796.3691 2.338 1.1074h.089l-.048-.54-.027-.5264v-3.0488h1.135v10.6367h-.923zm-2.269.1914c.775 0 1.335-.2096 1.681-.6289.351-.4238.527-1.1051.527-2.0439v-.2393c0-1.0618-.178-1.8183-.533-2.2695-.351-.4557-.914-.6836-1.689-.6836-.665 0-1.176.2598-1.531.7793-.351.515-.526 1.2441-.526 2.1875 0 .957.175 1.6793.526 2.167.351.4876.866.7314 1.545.7314zm9.158.9502c-.488 0-.934-.0888-1.34-.2666-.401-.1823-.738-.4603-1.012-.834h-.082c.055.4375.082.8522.082 1.2442v3.083h-1.134v-10.8555h.923l.157 1.0254h.054c.292-.4102.632-.7064 1.019-.8887s.832-.2734 1.333-.2734c.994 0 1.759.3395 2.297 1.0185.542.6791.813 1.6316.813 2.8575 0 1.2304-.275 2.1875-.827 2.8711-.547.679-1.308 1.0185-2.283 1.0185zm-.164-6.8017c-.766 0-1.319.2119-1.661.6357s-.517 1.0983-.527 2.0234v.253c0 1.0527.176 1.8069.527 2.2627.351.4511.914.6767 1.688.6767.647 0 1.153-.262 1.518-.7861.369-.5241.554-1.2464.554-2.167 0-.9342-.185-1.6497-.554-2.1465-.365-.5013-.88-.7519-1.545-.7519z" fill="#e8178a"/><path d="m614.938 9h9v54h-9" stroke="#4091d2"/><path d="m637.128 36.5273c.828 0 1.486.2325 1.975.6973.492.4649.738 1.1016.738 1.9102 0 .957-.295 1.6933-.885 2.209-.59.5156-1.434.7734-2.531.7734-.953 0-1.723-.1543-2.309-.4629v-1.5645c.309.1641.668.2989 1.078.4043.41.1016.799.1524 1.166.1524 1.106 0 1.659-.4531 1.659-1.3594 0-.8633-.573-1.2949-1.717-1.2949-.207 0-.436.0215-.686.0644-.25.0391-.453.0821-.609.1289l-.721-.3867.322-4.3652h4.647v1.5352h-3.059l-.158 1.6816.205-.041c.238-.0547.533-.0821.885-.0821zm3.608 1.834c0-1.6953.357-2.957 1.072-3.7851.719-.8282 1.793-1.2422 3.223-1.2422.488 0 .871.0293 1.148.0879v1.4472c-.348-.0781-.691-.1171-1.031-.1171-.621 0-1.129.0937-1.524.2812-.39.1875-.683.4648-.879.832-.195.3672-.31.8887-.345 1.5645h.076c.387-.6641 1.006-.9961 1.857-.9961.766 0 1.366.2402 1.799.7207.434.4805.65 1.1445.65 1.9922 0 .914-.257 1.6387-.773 2.1738-.516.5313-1.23.7969-2.144.7969-.633 0-1.186-.1465-1.659-.4395-.468-.2929-.832-.7207-1.09-1.2832-.253-.5625-.38-1.2402-.38-2.0332zm3.093 2.3086c.387 0 .684-.1289.891-.3867.207-.2617.311-.6328.311-1.1133 0-.4179-.098-.7461-.293-.9844-.192-.2421-.483-.3632-.873-.3632-.368 0-.682.1191-.944.3574-.258.2383-.387.5156-.387.832 0 .4649.122.8574.364 1.1778.246.3203.556.4804.931.4804zm6.28 1.4473c-.77 0-1.375-.2988-1.816-.8965-.438-.5977-.657-1.4258-.657-2.4844 0-1.0742.223-1.9101.668-2.5078.449-.6015 1.067-.9023 1.852-.9023.824 0 1.453.3203 1.887.9609h.058c-.09-.4883-.135-.9238-.135-1.3066v-2.0977h1.793v9.1172h-1.371l-.345-.8496h-.077c-.406.6445-1.025.9668-1.857.9668zm.627-1.4238c.457 0 .791-.1329 1.002-.3985.215-.2656.332-.7168.351-1.3535v-.1934c0-.7031-.109-1.207-.328-1.5117-.215-.3047-.566-.457-1.054-.457-.399 0-.709.1699-.932.5098-.219.3359-.328.8261-.328 1.4707 0 .6445.111 1.1289.334 1.4531.222.3203.541.4805.955.4805zm8.418 1.4238c-.769 0-1.373-.2793-1.81-.8379h-.094c.062.5469.094.8633.094.9492v2.6543h-1.788v-9.4336h1.454l.252.8496h.082c.418-.6484 1.037-.9726 1.857-.9726.773 0 1.379.2988 1.816.8965.438.5976.657 1.4277.657 2.4902 0 .6992-.104 1.3066-.311 1.8223-.203.5156-.494.9082-.873 1.1777s-.824.4043-1.336.4043zm-.527-5.3613c-.442 0-.764.1367-.967.4101-.203.2695-.309.7168-.316 1.3418v.1934c0 .7031.103 1.207.31 1.5117.211.3047.543.457.996.457.801 0 1.201-.6601 1.201-1.9804 0-.6446-.099-1.127-.298-1.4473-.196-.3242-.504-.4863-.926-.4863z" fill="#4091d2"/></svg>