<svg fill="none" height="32" viewBox="0 0 43 32" width="43" xmlns="http://www.w3.org/2000/svg"><rect fill="#0063a3" height="32" rx="2" width="43"/><path d="m8.92188 13.7891h1.69922c.737 0 1.293.1067 1.668.3203.375.2135.5625.582.5625 1.1054 0 .2188-.0391.4167-.1172.5938-.0755.1745-.1862.319-.3321.4336-.1458.112-.3255.1875-.539.2266v.039c.2213.0391.4179.1081.5898.207.1745.099.3112.2409.4102.4258.1015.1849.1523.4245.1523.7188 0 .3489-.0833.6458-.25.8906-.164.2448-.3997.431-.707.5586-.3047.1276-.6667.1914-1.0859.1914h-2.05082zm.9375 2.3554h.89842c.4245 0 .7188-.069.8828-.207.1641-.138.2461-.3398.2461-.6055 0-.2708-.0976-.4661-.2929-.5859-.1928-.1198-.5-.1797-.9219-.1797h-.81252zm0 .7578v1.8125h.98832c.4375 0 .7447-.0846.9218-.2539.1771-.1692.2657-.3984.2657-.6875 0-.177-.0404-.3307-.1211-.4609-.0782-.1302-.2071-.2305-.3868-.3008-.1796-.0729-.4218-.1094-.7265-.1094zm8.01172-1.7265v4.3242h-.7227l-.125-.582h-.0507c-.0912.1484-.2071.2721-.3477.3711-.1406.0963-.2969.1679-.4688.2148-.1718.0495-.3528.0742-.5429.0742-.3255 0-.6042-.0547-.836-.164-.2291-.112-.4049-.2839-.5273-.5157-.1224-.2317-.1836-.5312-.1836-.8984v-2.8242h.9219v2.6523c0 .336.0677.5873.2031.7539.138.1667.3516.25.6406.25.2787 0 .5-.0573.6641-.1718.1641-.1146.2799-.2839.3477-.5079.0703-.2239.1054-.4987.1054-.8242v-2.1523zm2.9258 3.6601c.1198 0 .2383-.0104.3554-.0312.1172-.0235.224-.0508.3204-.082v.6953c-.1016.0442-.2331.082-.3946.1132-.1614.0313-.3294.0469-.5039.0469-.2448 0-.4648-.0403-.6601-.1211-.1953-.0833-.3503-.2252-.4649-.4258-.1146-.2005-.1719-.4778-.1719-.832v-2.3242h-.5898v-.4102l.6328-.3242.3008-.9258h.5781v.961h1.2383v.6992h-1.2383v2.3125c0 .2187.0547.3815.1641.4883s.2539.1601.4336.1601zm3.164 0c.1198 0 .2383-.0104.3555-.0312.1172-.0235.224-.0508.3203-.082v.6953c-.1015.0442-.2331.082-.3945.1132-.1615.0313-.3294.0469-.5039.0469-.2448 0-.4649-.0403-.6602-.1211-.1953-.0833-.3502-.2252-.4648-.4258-.1146-.2005-.1719-.4778-.1719-.832v-2.3242h-.5898v-.4102l.6328-.3242.3008-.9258h.5781v.961h1.2383v.6992h-1.2383v2.3125c0 .2187.0547.3815.164.4883.1094.1068.2539.1601.4336.1601zm5.3829-1.5078c0 .3594-.0469.6784-.1407.9571-.0937.2786-.2304.5143-.4101.707-.1797.1901-.3959.3359-.6485.4375-.2526.0989-.5377.1484-.8554.1484-.2969 0-.569-.0495-.8164-.1484-.2474-.1016-.4623-.2474-.6446-.4375-.1797-.1927-.319-.4284-.4179-.707-.099-.2787-.1485-.5977-.1485-.9571 0-.4765.0821-.8802.2461-1.2109.1667-.3333.4037-.5873.711-.7617.3072-.1745.6731-.2617 1.0976-.2617.3984 0 .75.0872 1.0547.2617.3047.1744.543.4284.7148.7617.1719.3333.2579.737.2579 1.2109zm-3.1368 0c0 .3151.0378.5847.1133.8086.0781.224.1979.3959.3594.5156.1614.1172.3698.1758.625.1758s.4635-.0586.625-.1758c.1614-.1197.2799-.2916.3555-.5156.0755-.2239.1132-.4935.1132-.8086s-.0377-.582-.1132-.8008c-.0756-.2213-.1941-.3893-.3555-.5039-.1615-.1172-.3711-.1757-.6289-.1757-.3802 0-.6576.1276-.832.3828-.1745.2552-.2618.6211-.2618 1.0976zm6.4453-2.2343c.487 0 .8659.1263 1.1368.3789.2734.25.4101.6523.4101 1.207v2.8203h-.918v-2.6484c0-.336-.069-.5873-.207-.7539-.138-.1693-.3515-.2539-.6406-.2539-.4193 0-.7109.1289-.875.3867-.1615.2578-.2422.6315-.2422 1.1211v2.1484h-.918v-4.3242h.7149l.1289.5859h.0508c.0937-.151.2096-.2747.3476-.3711.1406-.0989.2969-.1732.4688-.2226.1745-.0495.3554-.0742.5429-.0742z" fill="#f1f1f6"/></svg>