<svg fill="none" height="48" viewBox="0 0 56 48" width="56" xmlns="http://www.w3.org/2000/svg"><rect fill="#0063a3" height="48" rx="2" width="56"/><path d="m9.125 20.4336h2.5488c1.1055 0 1.9395.1602 2.502.4805s.8437.873.8437 1.6582c0 .3281-.0586.625-.1757.8906-.1133.2617-.2793.4785-.4981.6504-.2187.1679-.4883.2812-.8086.3398v.0586c.332.0586.627.1621.8848.3106.2617.1484.4668.3613.6152.6386.1524.2774.2285.6368.2285 1.0782 0 .5234-.125.9687-.375 1.3359-.2461.3672-.5996.6465-1.0605.8379-.4571.1914-1 .2871-1.6289.2871h-3.0762zm1.4062 3.5332h1.3477c.6367 0 1.0781-.1035 1.3242-.3106.2461-.207.3692-.5097.3692-.9082 0-.4062-.1465-.6992-.4395-.8789-.289-.1796-.75-.2695-1.3828-.2695h-1.2188zm0 1.1367v2.7188h1.4825c.6562 0 1.1172-.127 1.3828-.3809s.3984-.5976.3984-1.0312c0-.2657-.0605-.4961-.1816-.6914-.1172-.1954-.3106-.3458-.5801-.4512-.2695-.1094-.6328-.1641-1.0898-.1641zm12.0176-2.5898v6.4863h-1.084l-.1875-.873h-.0761c-.1367.2226-.3106.4082-.5215.5566-.2109.1445-.4453.2519-.7031.3223-.2578.0742-.5293.1113-.8145.1113-.4883 0-.9062-.082-1.2539-.2461-.3437-.168-.6074-.4258-.791-.7734-.1836-.3477-.2754-.7969-.2754-1.3477v-4.2363h1.3828v3.9785c0 .5039.1016.8808.3047 1.1308.207.25.5273.375.9609.375.418 0 .75-.0859.9961-.2578.2461-.1718.4199-.4257.5215-.7617.1055-.3359.1582-.748.1582-1.2363v-3.2285zm4.3887 5.4902c.1797 0 .3574-.0156.5332-.0469.1758-.0351.3359-.0761.4805-.123v1.043c-.1524.0664-.3496.123-.5918.1699s-.4942.0703-.7559.0703c-.3672 0-.6973-.0606-.9902-.1817-.293-.125-.5254-.3378-.6973-.6386s-.2578-.7168-.2578-1.2481v-3.4863h-.8848v-.6152l.9493-.4864.4511-1.3886h.8672v1.4414h1.8574v1.0488h-1.8574v3.4687c0 .3282.082.5723.2461.7325.1641.1601.3809.2402.6504.2402zm4.7461 0c.1797 0 .3574-.0156.5332-.0469.1758-.0351.3359-.0761.4805-.123v1.043c-.1524.0664-.3496.123-.5918.1699s-.4942.0703-.7559.0703c-.3672 0-.6973-.0606-.9902-.1817-.293-.125-.5254-.3378-.6973-.6386s-.2578-.7168-.2578-1.2481v-3.4863h-.8848v-.6152l.9493-.4864.4511-1.3886h.8672v1.4414h1.8574v1.0488h-1.8574v3.4687c0 .3282.082.5723.2461.7325.1641.1601.3809.2402.6504.2402zm8.0742-2.2617c0 .539-.0703 1.0176-.2109 1.4355-.1407.418-.3457.7715-.6153 1.0606-.2695.2851-.5937.5039-.9726.6562-.3789.1485-.8067.2227-1.2832.2227-.4453 0-.8535-.0742-1.2246-.2227-.3711-.1523-.6934-.3711-.9668-.6562-.2696-.2891-.4785-.6426-.627-1.0606-.1484-.4179-.2226-.8965-.2226-1.4355 0-.7149.123-1.3203.3691-1.8164.25-.5.6055-.8809 1.0664-1.1426s1.0098-.3926 1.6465-.3926c.5977 0 1.125.1309 1.582.3926.4571.2617.8145.6426 1.0723 1.1426s.3867 1.1054.3867 1.8164zm-4.7051 0c0 .4726.0567.8769.17 1.2129.1171.3359.2968.5937.539.7734.2422.1758.5547.2637.9375.2637s.6953-.0879.9375-.2637c.2422-.1797.4199-.4375.5332-.7734.1133-.336.1699-.7403.1699-1.2129 0-.4727-.0566-.8731-.1699-1.2012-.1133-.332-.291-.584-.5332-.7558-.2422-.1758-.5566-.2637-.9433-.2637-.5704 0-.9864.1914-1.2481.5742s-.3926.9316-.3926 1.6465zm9.668-3.3516c.7305 0 1.2988.1895 1.7051.5684.4101.375.6152.9785.6152 1.8105v4.2305h-1.3769v-3.9727c0-.5039-.1036-.8808-.3106-1.1308-.207-.2539-.5273-.3809-.9609-.3809-.6289 0-1.0664.1934-1.3125.5801-.2422.3867-.3633.9473-.3633 1.6816v3.2227h-1.377v-6.4863h1.0723l.1934.8789h.0761c.1407-.2266.3145-.4121.5215-.5567.211-.1484.4453-.2597.7031-.3339.2618-.0743.5333-.1114.8145-.1114z" fill="#f1f1f6"/></svg>