<svg fill="none" height="128" viewBox="0 0 224 128" width="224" xmlns="http://www.w3.org/2000/svg"><rect fill="#0063a3" height="96" rx="2" width="192" x="16" y="16"/><rect fill="#0063a3" height="32" rx="2" width="192" x="16" y="80"/><path d="m112.117 96.6367c0 .4401-.056.8412-.168 1.2031-.109.3594-.275.6693-.496.9297-.221.2578-.499.4571-.832.5977s-.724.2109-1.172.2109c-.456 0-.851-.0703-1.187-.2109-.334-.1406-.611-.3412-.832-.6016-.219-.2604-.383-.5716-.492-.9336-.11-.3619-.165-.763-.165-1.2031 0-.5885.097-1.1016.289-1.5391.196-.4401.491-.7812.887-1.0234.399-.2448.901-.3672 1.508-.3672.594 0 1.087.1211 1.481.3633.393.2422.687.5833.882 1.0234.198.4375.297.9545.297 1.5508zm-4.359 0c0 .4401.06.8216.18 1.1445.119.3204.303.5678.55.7422.25.1719.571.2578.961.2578.393 0 .714-.0859.961-.2578.248-.1744.43-.4218.547-.7422.117-.3229.176-.7044.176-1.1445 0-.6693-.134-1.1927-.403-1.5703-.265-.3802-.69-.5703-1.273-.5703-.391 0-.712.0859-.965.2578-.25.1719-.435.418-.554.7383-.12.3177-.18.6992-.18 1.1445zm9.941 2.8633h-1.078l-1.777-2.5938-.563.4571v2.1367h-.937v-5.7109h.937v2.7304c.115-.1406.231-.2812.348-.4218.117-.1407.234-.2813.351-.4219l1.61-1.8867h1.058l-2.132 2.5z" fill="#f1f1f6"/><path d="m24.5859 46v-4.2832h.4981v3.8379h1.9014v.4453zm5.8301-1.6113c0 .2636-.0342.499-.1025.706-.0684.2071-.167.3819-.2959.5244-.1289.1426-.2852.252-.4688.3282-.1816.0742-.3877.1113-.6181.1113-.2149 0-.4121-.0371-.5918-.1113-.1778-.0762-.3321-.1856-.4629-.3282-.1289-.1425-.2295-.3173-.3018-.5244-.0703-.207-.1054-.4424-.1054-.706 0-.3516.0595-.6504.1787-.8965.1191-.2481.289-.4365.5097-.5654.2227-.1309.4873-.1963.794-.1963.2929 0 .5488.0654.7676.1963.2207.1308.3916.3203.5126.5683.1231.2461.1846.544.1846.8936zm-2.4433 0c0 .2578.0341.4814.1025.6709.0684.1894.1738.3359.3164.4394s.3262.1553.5508.1553c.2226 0 .4053-.0518.5478-.1553.1446-.1035.251-.25.3194-.4394.0683-.1895.1025-.4131.1025-.6709 0-.2559-.0342-.4766-.1025-.6621-.0684-.1875-.1739-.3321-.3164-.4336-.1426-.1016-.3272-.1524-.5537-.1524-.334 0-.5791.1104-.7354.3311-.1543.2207-.2314.5263-.2314.917zm4.7431-1.6582c.0645 0 .1319.0039.2022.0117.0703.0058.1328.0146.1875.0264l-.0616.4511c-.0527-.0136-.1113-.0244-.1757-.0322-.0645-.0078-.125-.0117-.1817-.0117-.1289 0-.251.0263-.3662.0791-.1133.0508-.2129.125-.2988.2226-.086.0957-.1533.212-.2022.3487-.0488.1347-.0732.2851-.0732.4511v1.7227h-.4893v-3.2109h.4043l.0528.5918h.0205c.0664-.1192.1465-.2276.2402-.3252.0938-.0996.2022-.1787.3252-.2373.125-.0586.2637-.0879.416-.0879zm2.2324 0c.2735 0 .5079.0605.7032.1816s.3447.291.4482.5098c.1035.2168.1553.4707.1553.7617v.3018h-2.2178c.0059.3769.0996.664.2813.8613.1816.1972.4375.2959.7675.2959.2032 0 .3829-.0186.5391-.0557s.3184-.0918.4863-.164v.4277c-.1621.0723-.3232.125-.4834.1582-.1582.0332-.3457.0498-.5625.0498-.3086 0-.5781-.0625-.8086-.1875-.2285-.127-.4062-.3125-.5332-.5566-.1269-.2442-.1904-.543-.1904-.8965 0-.3457.0576-.6446.1729-.8965.1171-.2539.2812-.4492.4921-.586.2129-.1367.4629-.205.75-.205zm-.0058.3984c-.2598 0-.4668.085-.6211.2549s-.2461.4072-.2754.7119h1.6992c-.0019-.1914-.0322-.3594-.0908-.5039-.0566-.1465-.1436-.2598-.2607-.3398-.1172-.0821-.2676-.1231-.4512-.1231zm5.625-.3984c.3535 0 .6201.0927.7998.2783.1797.1836.2695.4795.2695.8877v2.1035h-.4805v-2.0801c0-.2597-.0566-.4541-.1699-.583-.1113-.1308-.2773-.1963-.498-.1963-.3106 0-.5362.0899-.6768.2696-.1406.1796-.2109.4443-.2109.7939v1.7959h-.4834v-2.0801c0-.1738-.0254-.3183-.0762-.4336-.0488-.1152-.123-.2011-.2226-.2578-.0977-.0586-.2217-.0879-.3721-.0879-.2129 0-.3838.044-.5127.1319s-.2227.2187-.2813.3925c-.0566.1719-.0849.3838-.0849.6358v1.6992h-.4863v-3.2109h.3925l.0733.4541h.0263c.0645-.1114.1456-.2051.2432-.2813.0977-.0762.207-.1338.3281-.1728.1211-.0391.25-.0586.3867-.0586.2442 0 .4483.0459.6124.1377.166.0898.2861.2275.3603.413h.0264c.1054-.1855.25-.3232.4336-.413.1836-.0918.3847-.1377.6035-.1377zm4.1133.0586v3.2109h-.4864v-3.2109zm-.2373-1.2012c.08 0 .1484.0264.205.0791.0586.0508.0879.1309.0879.2402 0 .1074-.0293.1875-.0879.2403-.0566.0527-.125.0791-.205.0791-.084 0-.1543-.0264-.211-.0791-.0547-.0528-.082-.1329-.082-.2403 0-.1093.0273-.1894.082-.2402.0567-.0527.127-.0791.211-.0791zm2.7773 1.1426c.4004 0 .7197.1377.958.4131.2383.2753.3574.6894.3574 1.2421 0 .3653-.0547.6719-.164.92-.1094.248-.2637.4355-.4629.5625-.1973.1269-.4307.1904-.7002.1904-.1699 0-.3194-.0225-.4483-.0674s-.2392-.1055-.331-.1816c-.0918-.0762-.168-.1592-.2285-.2491h-.0352c.0059.0762.0127.168.0205.2754.0098.1075.0147.2012.0147.2813v1.3183h-.4893v-4.6464h.4014l.0644.4746h.0235c.0625-.0977.1386-.1866.2285-.2666.0898-.0821.1992-.1465.3281-.1934.1309-.0488.2852-.0732.4629-.0732zm-.085.4101c-.2226 0-.4023.043-.539.1289-.1348.086-.2334.2149-.2959.3867-.0625.17-.0957.3838-.0996.6417v.0937c0 .2715.0293.501.0879.6885.0605.1875.1591.3301.2959.4277.1386.0977.3242.1465.5566.1465.1992 0 .3652-.0537.498-.1611.1329-.1075.2315-.2569.2959-.4483.0665-.1933.0997-.415.0997-.665 0-.3789-.0743-.6797-.2227-.9024-.1465-.2246-.3721-.3369-.6768-.3369zm4.3272 1.9805c0 .2051-.0518.3779-.1553.5185-.1015.1387-.248.2432-.4394.3135-.1895.0703-.4161.1055-.6797.1055-.2246 0-.419-.0176-.583-.0527-.1641-.0352-.3076-.085-.4307-.1495v-.4482c.1309.0645.2871.123.4688.1758.1816.0527.3671.0791.5566.0791.2773 0 .4785-.0449.6035-.1348.125-.0898.1875-.2119.1875-.3662 0-.0879-.0254-.165-.0762-.2314-.0488-.0684-.1318-.1338-.249-.1963-.1172-.0645-.2793-.1348-.4863-.211-.2051-.0781-.3828-.1552-.5332-.2314-.1485-.0781-.2637-.1729-.3457-.2842-.0801-.1113-.1201-.2558-.1201-.4336 0-.2715.1093-.4795.3281-.624.2207-.1465.5098-.2197.8672-.2197.1933 0 .374.0195.542.0586.1699.0371.3281.0879.4746.1523l-.1641.3897c-.1328-.0567-.2744-.1045-.4248-.1436s-.3037-.0586-.4599-.0586c-.2247 0-.3975.0371-.5186.1113-.1191.0743-.1787.1758-.1787.3047 0 .0996.0273.1817.082.2461.0567.0645.1465.125.2695.1817.1231.0566.2852.123.4864.1992.2011.0742.375.1513.5215.2314.1464.0781.2587.1738.3369.2871.0801.1114.1201.2549.1201.4307zm3.4336-2.332v3.2109h-.3985l-.0703-.4512h-.0263c-.0664.1114-.1524.2051-.2578.2813-.1055.0761-.2247.1328-.3575.1699-.1308.0391-.2705.0586-.4189.0586-.2539 0-.4668-.041-.6387-.1231-.1719-.082-.3017-.2089-.3896-.3808-.086-.1719-.1289-.3926-.1289-.6621v-2.1035h.4921v2.0683c0 .2676.0606.4678.1817.6006.1211.1309.3057.1963.5537.1963.2383 0 .4277-.0449.5684-.1348.1425-.0898.2451-.2216.3076-.3955.0625-.1758.0937-.3906.0937-.6445v-1.6904zm4.5146-.0586c.3535 0 .6201.0927.7998.2783.1797.1836.2696.4795.2696.8877v2.1035h-.4805v-2.0801c0-.2597-.0566-.4541-.1699-.583-.1113-.1308-.2774-.1963-.4981-.1963-.3105 0-.5361.0899-.6767.2696-.1407.1796-.211.4443-.211.7939v1.7959h-.4834v-2.0801c0-.1738-.0254-.3183-.0761-.4336-.0489-.1152-.1231-.2011-.2227-.2578-.0976-.0586-.2217-.0879-.3721-.0879-.2129 0-.3838.044-.5127.1319s-.2226.2187-.2812.3925c-.0566.1719-.085.3838-.085.6358v1.6992h-.4863v-3.2109h.3926l.0732.4541h.0264c.0644-.1114.1455-.2051.2432-.2813.0976-.0762.207-.1338.3281-.1728.1211-.0391.25-.0586.3867-.0586.2441 0 .4482.0459.6123.1377.166.0898.2861.2275.3604.413h.0263c.1055-.1855.25-.3232.4336-.413.1836-.0918.3848-.1377.6035-.1377zm4.7696 3.3281c-.4063 0-.7286-.1387-.9668-.416-.2364-.2774-.3545-.6895-.3545-1.2364 0-.5527.1211-.9697.3633-1.2509.2421-.2832.5644-.4248.9668-.4248.1699 0 .3183.0224.4453.0674.1269.0449.2363.1054.3281.1816.0918.0742.1689.1592.2314.2549h.0352c-.0078-.0606-.0156-.1436-.0234-.249-.0079-.1055-.0118-.1915-.0118-.2579v-1.2861h.4864v4.5586h-.3926l-.0733-.457h-.0205c-.0605.0957-.1377.1826-.2314.2607-.0918.0781-.2022.1406-.3311.1875-.1269.0449-.2773.0674-.4511.0674zm.0761-.4043c.3438 0 .587-.0977.7295-.293.1426-.1953.2139-.4853.2139-.8701v-.0879c0-.4082-.0684-.7217-.2051-.9404-.1347-.2188-.3808-.3281-.7383-.3281-.2988 0-.5224.1152-.6709.3457-.1484.2285-.2226.541-.2226.9375 0 .3945.0732.6992.2197.914.1484.2149.3731.3223.6738.3223zm5.2237-1.2656c0 .2636-.0342.499-.1026.706-.0683.2071-.167.3819-.2959.5244-.1289.1426-.2851.252-.4687.3282-.1817.0742-.3877.1113-.6182.1113-.2148 0-.4121-.0371-.5918-.1113-.1777-.0762-.332-.1856-.4629-.3282-.1289-.1425-.2295-.3173-.3017-.5244-.0703-.207-.1055-.4424-.1055-.706 0-.3516.0596-.6504.1787-.8965.1192-.2481.2891-.4365.5098-.5654.2226-.1309.4873-.1963.7939-.1963.293 0 .5489.0654.7676.1963.2207.1308.3916.3203.5127.5683.123.2461.1846.544.1846.8936zm-2.4434 0c0 .2578.0342.4814.1025.6709.0684.1894.1739.3359.3165.4394.1425.1035.3261.1553.5507.1553.2227 0 .4053-.0518.5479-.1553.1445-.1035.251-.25.3193-.4394.0684-.1895.1026-.4131.1026-.6709 0-.2559-.0342-.4766-.1026-.6621-.0683-.1875-.1738-.3321-.3164-.4336-.1426-.1016-.3271-.1524-.5537-.1524-.334 0-.5791.1104-.7353.3311-.1543.2207-.2315.5263-.2315.917zm3.7734 1.6113h-.4892v-4.5586h.4892zm3.7969-1.6113c0 .2636-.0342.499-.1025.706-.0684.2071-.167.3819-.2959.5244-.1289.1426-.2852.252-.4688.3282-.1816.0742-.3877.1113-.6181.1113-.2149 0-.4121-.0371-.5918-.1113-.1778-.0762-.3321-.1856-.4629-.3282-.1289-.1425-.2295-.3173-.3018-.5244-.0703-.207-.1054-.4424-.1054-.706 0-.3516.0595-.6504.1787-.8965.1191-.2481.289-.4365.5097-.5654.2227-.1309.4873-.1963.794-.1963.2929 0 .5488.0654.7676.1963.2207.1308.3916.3203.5127.5683.123.2461.1845.544.1845.8936zm-2.4433 0c0 .2578.0341.4814.1025.6709.0684.1894.1738.3359.3164.4394s.3262.1553.5508.1553c.2226 0 .4053-.0518.5478-.1553.1446-.1035.251-.25.3194-.4394.0683-.1895.1025-.4131.1025-.6709 0-.2559-.0342-.4766-.1025-.6621-.0684-.1875-.1739-.3321-.3164-.4336-.1426-.1016-.3272-.1524-.5537-.1524-.334 0-.5791.1104-.7354.3311-.1543.2207-.2314.5263-.2314.917zm4.7431-1.6582c.0645 0 .1319.0039.2022.0117.0703.0058.1328.0146.1875.0264l-.0615.4511c-.0528-.0136-.1114-.0244-.1758-.0322-.0645-.0078-.125-.0117-.1817-.0117-.1289 0-.2509.0263-.3662.0791-.1133.0508-.2129.125-.2988.2226-.0859.0957-.1533.212-.2022.3487-.0488.1347-.0732.2851-.0732.4511v1.7227h-.4893v-3.2109h.4043l.0528.5918h.0205c.0664-.1192.1465-.2276.2402-.3252.0938-.0996.2022-.1787.3252-.2373.125-.0586.2637-.0879.416-.0879zm4.6319 2.3906c0 .2051-.0518.3779-.1553.5185-.1016.1387-.2481.2432-.4395.3135-.1894.0703-.416.1055-.6797.1055-.2246 0-.4189-.0176-.583-.0527-.164-.0352-.3076-.085-.4306-.1495v-.4482c.1308.0645.2871.123.4687.1758.1817.0527.3672.0791.5567.0791.2773 0 .4785-.0449.6035-.1348.125-.0898.1875-.2119.1875-.3662 0-.0879-.0254-.165-.0762-.2314-.0488-.0684-.1318-.1338-.249-.1963-.1172-.0645-.2793-.1348-.4863-.211-.2051-.0781-.3829-.1552-.5332-.2314-.1485-.0781-.2637-.1729-.3457-.2842-.0801-.1113-.1202-.2558-.1202-.4336 0-.2715.1094-.4795.3282-.624.2207-.1465.5097-.2197.8671-.2197.1934 0 .3741.0195.542.0586.17.0371.3282.0879.4747.1523l-.1641.3897c-.1328-.0567-.2744-.1045-.4248-.1436s-.3037-.0586-.46-.0586c-.2246 0-.3974.0371-.5185.1113-.1192.0743-.1787.1758-.1787.3047 0 .0996.0273.1817.082.2461.0566.0645.1465.125.2695.1817.1231.0566.2852.123.4863.1992.2012.0742.375.1513.5215.2314.1465.0781.2588.1738.3369.2871.0801.1114.1202.2549.1202.4307zm1.2685-2.332v3.2109h-.4863v-3.2109zm-.2373-1.2012c.0801 0 .1485.0264.2051.0791.0586.0508.0879.1309.0879.2402 0 .1074-.0293.1875-.0879.2403-.0566.0527-.125.0791-.2051.0791-.084 0-.1543-.0264-.2109-.0791-.0547-.0528-.0821-.1329-.0821-.2403 0-.1093.0274-.1894.0821-.2402.0566-.0527.1269-.0791.2109-.0791zm2.3057 4.0723c.0801 0 .1621-.0069.2461-.0206.084-.0136.1523-.0302.205-.0498v.378c-.0566.0254-.1357.0468-.2373.0644-.0996.0176-.1972.0264-.2929.0264-.1699 0-.3242-.0293-.4629-.0879-.1387-.0605-.25-.1621-.334-.3047-.082-.1426-.123-.3398-.123-.5918v-1.9043h-.4571v-.2373l.46-.1904.1933-.6973h.293v.7442h.9404v.3808h-.9404v1.8897c0 .2011.0459.3515.1377.4511.0938.0997.2178.1495.3721.1495zm3.8613-2.9239c.3828 0 .667.086.8525.2578.1856.1719.2784.4463.2784.8233v2.1826h-.3545l-.0938-.4746h-.0234c-.0899.1172-.1836.2158-.2813.2959-.0976.0781-.2109.1377-.3398.1787-.127.0391-.2832.0586-.4688.0586-.1953 0-.3691-.0342-.5214-.1025-.1504-.0684-.2696-.1719-.3575-.3106-.0859-.1387-.1289-.3144-.1289-.5273 0-.3203.127-.5664.3809-.7383s.6406-.2656 1.1601-.2813l.5538-.0234v-.1963c0-.2773-.0596-.4717-.1788-.583-.1191-.1113-.2871-.167-.5039-.167-.1679 0-.3281.0244-.4804.0732-.1524.0489-.2969.1065-.4336.1729l-.1494-.3691c.1445-.0743.3105-.1377.498-.1905.1875-.0527.3848-.0791.5918-.0791zm.6504 1.6817-.4893.0205c-.4004.0156-.6826.081-.8466.1963-.1641.1152-.2461.2783-.2461.4892 0 .1836.0556.3194.167.4072.1113.0879.2587.1319.4423.1319.2852 0 .5186-.0791.7002-.2373.1817-.1582.2725-.3955.2725-.7119zm4.9687-1.6875c.3536 0 .6202.0927.7998.2783.1797.1836.2696.4795.2696.8877v2.1035h-.4805v-2.0801c0-.2597-.0566-.4541-.1699-.583-.1113-.1308-.2774-.1963-.4981-.1963-.3105 0-.5361.0899-.6767.2696-.1406.1796-.211.4443-.211.7939v1.7959h-.4834v-2.0801c0-.1738-.0253-.3183-.0761-.4336-.0489-.1152-.1231-.2011-.2227-.2578-.0976-.0586-.2217-.0879-.372-.0879-.2129 0-.3838.044-.5127.1319s-.2227.2187-.2813.3925c-.0566.1719-.085.3838-.085.6358v1.6992h-.4863v-3.2109h.3926l.0732.4541h.0264c.0645-.1114.1455-.2051.2432-.2813.0976-.0762.207-.1338.3281-.1728.1211-.0391.25-.0586.3867-.0586.2442 0 .4483.0459.6123.1377.166.0898.2862.2275.3604.413h.0263c.1055-.1855.25-.3232.4336-.413.1836-.0918.3848-.1377.6035-.1377zm3.3047 0c.2735 0 .5078.0605.7032.1816.1953.1211.3447.291.4482.5098.1035.2168.1553.4707.1553.7617v.3018h-2.2178c.0059.3769.0996.664.2812.8613.1817.1972.4376.2959.7676.2959.2032 0 .3828-.0186.5391-.0557.1562-.0371.3183-.0918.4863-.164v.4277c-.1621.0723-.3232.125-.4834.1582-.1582.0332-.3457.0498-.5625.0498-.3086 0-.5781-.0625-.8086-.1875-.2285-.127-.4062-.3125-.5332-.5566-.1269-.2442-.1904-.543-.1904-.8965 0-.3457.0576-.6446.1728-.8965.1172-.2539.2813-.4492.4922-.586.2129-.1367.4629-.205.75-.205zm-.0058.3984c-.2598 0-.4668.085-.6211.2549s-.2461.4072-.2754.7119h1.6992c-.0019-.1914-.0322-.3594-.0908-.5039-.0567-.1465-.1436-.2598-.2608-.3398-.1171-.0821-.2675-.1231-.4511-.1231zm3.1757 2.5313c.08 0 .162-.0069.246-.0206.084-.0136.152-.0302.205-.0498v.378c-.056.0254-.136.0468-.237.0644-.1.0176-.197.0264-.293.0264-.17 0-.324-.0293-.463-.0879-.139-.0605-.25-.1621-.3339-.3047-.0821-.1426-.1231-.3398-.1231-.5918v-1.9043h-.457v-.2373l.46-.1904.193-.6973h.293v.7442h.941v.3808h-.941v1.8897c0 .2011.046.3515.138.4511.094.0997.218.1495.372.1495zm1.658-.3575.038.0674c-.035.1426-.08.2949-.134.457-.053.1622-.112.3243-.176.4864-.063.164-.126.3174-.191.4599h-.363c.041-.1562.081-.3213.12-.4951.039-.1719.074-.3418.106-.5097.033-.17.059-.3252.079-.4659zm3.841.7559c-.289 0-.544-.0596-.765-.1787-.22-.1192-.392-.3008-.515-.5449-.123-.2442-.185-.5518-.185-.9229 0-.3887.065-.706.194-.9521.13-.2481.31-.4317.539-.5508.228-.1192.488-.1787.779-.1787.16 0 .314.0166.463.0498.15.0312.273.0713.369.1201l-.147.4072c-.097-.039-.21-.0742-.339-.1055-.127-.0312-.246-.0468-.358-.0468-.222 0-.408.0478-.556.1435-.147.0957-.257.2364-.331.4219-.073.1855-.109.4141-.109.6855 0 .2598.035.4815.106.6651.072.1836.178.3242.319.4219.143.0957.32.1435.533.1435.17 0 .323-.0176.46-.0527.137-.0371.261-.0801.372-.1289v.4336c-.107.0547-.227.0967-.36.1259-.131.0293-.287.044-.469.044zm4.359-1.6699c0 .2636-.034.499-.102.706-.068.2071-.167.3819-.296.5244-.129.1426-.285.252-.469.3282-.181.0742-.387.1113-.618.1113-.215 0-.412-.0371-.592-.1113-.177-.0762-.332-.1856-.463-.3282-.128-.1425-.229-.3173-.301-.5244-.071-.207-.106-.4424-.106-.706 0-.3516.06-.6504.179-.8965.119-.2481.289-.4365.51-.5654.222-.1309.487-.1963.794-.1963.293 0 .548.0654.767.1963.221.1308.392.3203.513.5683.123.2461.184.544.184.8936zm-2.443 0c0 .2578.034.4814.103.6709.068.1894.173.3359.316.4394s.326.1553.551.1553c.222 0 .405-.0518.548-.1553.144-.1035.251-.25.319-.4394.068-.1895.103-.4131.103-.6709 0-.2559-.035-.4766-.103-.6621-.068-.1875-.174-.3321-.316-.4336-.143-.1016-.328-.1524-.554-.1524-.334 0-.579.1104-.735.3311-.155.2207-.232.5263-.232.917zm4.805-1.6582c.381 0 .669.0937.864.2812.195.1856.293.4844.293.8965v2.0918h-.48v-2.0596c0-.2675-.062-.4677-.185-.6006-.121-.1328-.308-.1992-.56-.1992-.355 0-.605.1006-.75.3018-.144.2012-.216.4931-.216.876v1.6816h-.487v-3.2109h.393l.073.4629h.026c.069-.1133.156-.2081.261-.2842.106-.0782.224-.1367.355-.1758.131-.041.268-.0615.413-.0615zm4.236 2.3906c0 .2051-.052.3779-.155.5185-.102.1387-.248.2432-.44.3135-.189.0703-.416.1055-.679.1055-.225 0-.419-.0176-.583-.0527-.164-.0352-.308-.085-.431-.1495v-.4482c.131.0645.287.123.469.1758.181.0527.367.0791.556.0791.278 0 .479-.0449.604-.1348.125-.0898.187-.2119.187-.3662 0-.0879-.025-.165-.076-.2314-.049-.0684-.132-.1338-.249-.1963-.117-.0645-.279-.1348-.486-.211-.205-.0781-.383-.1552-.533-.2314-.149-.0781-.264-.1729-.346-.2842-.08-.1113-.12-.2558-.12-.4336 0-.2715.109-.4795.328-.624.221-.1465.51-.2197.867-.2197.194 0 .374.0195.542.0586.17.0371.328.0879.475.1523l-.164.3897c-.133-.0567-.275-.1045-.425-.1436s-.304-.0586-.46-.0586c-.225 0-.397.0371-.519.1113-.119.0743-.178.1758-.178.3047 0 .0996.027.1817.082.2461.056.0645.146.125.269.1817.123.0566.285.123.487.1992.201.0742.375.1513.521.2314.147.0781.259.1738.337.2871.08.1114.12.2549.12.4307zm2.019-2.3906c.273 0 .507.0605.703.1816.195.1211.345.291.448.5098.104.2168.155.4707.155.7617v.3018h-2.217c.005.3769.099.664.281.8613.181.1972.437.2959.767.2959.203 0 .383-.0186.539-.0557.157-.0371.319-.0918.487-.164v.4277c-.162.0723-.323.125-.484.1582-.158.0332-.345.0498-.562.0498-.309 0-.578-.0625-.809-.1875-.228-.127-.406-.3125-.533-.5566-.127-.2442-.19-.543-.19-.8965 0-.3457.057-.6446.172-.8965.118-.2539.282-.4492.493-.586.213-.1367.463-.205.75-.205zm-.006.3984c-.26 0-.467.085-.621.2549-.155.1699-.246.4072-.276.7119h1.7c-.002-.1914-.033-.3594-.091-.5039-.057-.1465-.144-.2598-.261-.3398-.117-.0821-.268-.1231-.451-.1231zm3.425 2.9297c-.289 0-.544-.0596-.765-.1787-.221-.1192-.393-.3008-.516-.5449-.123-.2442-.184-.5518-.184-.9229 0-.3887.064-.706.193-.9521.131-.2481.311-.4317.539-.5508.229-.1192.488-.1787.779-.1787.161 0 .315.0166.463.0498.151.0312.274.0713.37.1201l-.147.4072c-.098-.039-.211-.0742-.34-.1055-.127-.0312-.246-.0468-.357-.0468-.223 0-.408.0478-.557.1435-.146.0957-.257.2364-.331.4219-.072.1855-.108.4141-.108.6855 0 .2598.035.4815.105.6651.072.1836.179.3242.319.4219.143.0957.321.1435.534.1435.17 0 .323-.0176.46-.0527.136-.0371.26-.0801.372-.1289v.4336c-.108.0547-.228.0967-.361.1259-.131.0293-.287.044-.468.044zm2.628-.3984c.08 0 .162-.0069.246-.0206.084-.0136.152-.0302.205-.0498v.378c-.057.0254-.136.0468-.238.0644-.099.0176-.197.0264-.293.0264-.169 0-.324-.0293-.462-.0879-.139-.0605-.25-.1621-.334-.3047-.082-.1426-.123-.3398-.123-.5918v-1.9043h-.458v-.2373l.46-.1904.194-.6973h.293v.7442h.94v.3808h-.94v1.8897c0 .2011.046.3515.137.4511.094.0997.218.1495.373.1495zm2.337-2.9297c.274 0 .508.0605.704.1816.195.1211.344.291.448.5098.103.2168.155.4707.155.7617v.3018h-2.218c.006.3769.1.664.282.8613.181.1972.437.2959.767.2959.203 0 .383-.0186.539-.0557s.319-.0918.487-.164v.4277c-.163.0723-.324.125-.484.1582-.158.0332-.346.0498-.562.0498-.309 0-.579-.0625-.809-.1875-.228-.127-.406-.3125-.533-.5566-.127-.2442-.191-.543-.191-.8965 0-.3457.058-.6446.173-.8965.117-.2539.281-.4492.492-.586.213-.1367.463-.205.75-.205zm-.005.3984c-.26 0-.467.085-.622.2549-.154.1699-.246.4072-.275.7119h1.699c-.002-.1914-.032-.3594-.091-.5039-.056-.1465-.143-.2598-.26-.3398-.117-.0821-.268-.1231-.451-.1231zm3.175 2.5313c.08 0 .162-.0069.246-.0206.084-.0136.153-.0302.206-.0498v.378c-.057.0254-.136.0468-.238.0644-.099.0176-.197.0264-.293.0264-.17 0-.324-.0293-.463-.0879-.138-.0605-.25-.1621-.334-.3047-.082-.1426-.123-.3398-.123-.5918v-1.9043h-.457v-.2373l.46-.1904.194-.6973h.293v.7442h.94v.3808h-.94v1.8897c0 .2011.045.3515.137.4511.094.0997.218.1495.372.1495zm3.753-2.8711v3.2109h-.398l-.07-.4512h-.027c-.066.1114-.152.2051-.258.2813-.105.0761-.224.1328-.357.1699-.131.0391-.271.0586-.419.0586-.254 0-.467-.041-.639-.1231-.172-.082-.301-.2089-.389-.3808-.086-.1719-.129-.3926-.129-.6621v-2.1035h.492v2.0683c0 .2676.06.4678.182.6006.121.1309.305.1963.553.1963.239 0 .428-.0449.569-.1348.142-.0898.245-.2216.307-.3955.063-.1758.094-.3906.094-.6445v-1.6904zm2.488-.0586c.064 0 .131.0039.202.0117.07.0058.133.0146.187.0264l-.061.4511c-.053-.0136-.112-.0244-.176-.0322-.065-.0078-.125-.0117-.182-.0117-.129 0-.251.0263-.366.0791-.113.0508-.213.125-.299.2226-.086.0957-.153.212-.202.3487-.049.1347-.073.2851-.073.4511v1.7227h-.489v-3.2109h.404l.053.5918h.02c.067-.1192.147-.2276.24-.3252.094-.0996.203-.1787.326-.2373.125-.0586.263-.0879.416-.0879zm3.755.0058c.383 0 .667.086.853.2578.186.1719.278.4463.278.8233v2.1826h-.354l-.094-.4746h-.023c-.09.1172-.184.2158-.282.2959-.097.0781-.211.1377-.339.1787-.127.0391-.284.0586-.469.0586-.196 0-.369-.0342-.522-.1025-.15-.0684-.269-.1719-.357-.3106-.086-.1387-.129-.3144-.129-.5273 0-.3203.127-.5664.381-.7383s.64-.2656 1.16-.2813l.554-.0234v-.1963c0-.2773-.06-.4717-.179-.583s-.287-.167-.504-.167c-.168 0-.328.0244-.48.0732-.153.0489-.297.1065-.434.1729l-.149-.3691c.144-.0743.31-.1377.498-.1905.187-.0527.384-.0791.591-.0791zm.651 1.6817-.489.0205c-.401.0156-.683.081-.847.1963-.164.1152-.246.2783-.246.4892 0 .1836.055.3194.167.4072.111.0879.259.1319.442.1319.285 0 .519-.0791.7-.2373.182-.1582.273-.3955.273-.7119zm2.625 1.6406c-.406 0-.729-.1387-.967-.416-.236-.2774-.354-.6895-.354-1.2364 0-.5527.121-.9697.363-1.2509.242-.2832.564-.4248.967-.4248.17 0 .318.0224.445.0674.127.0449.236.1054.328.1816.092.0742.169.1592.232.2549h.035c-.008-.0606-.016-.1436-.024-.249-.008-.1055-.011-.1915-.011-.2579v-1.2861h.486v4.5586h-.393l-.073-.457h-.02c-.061.0957-.138.1826-.232.2607-.092.0781-.202.1406-.331.1875-.127.0449-.277.0674-.451.0674zm.076-.4043c.344 0 .587-.0977.73-.293.142-.1953.213-.4853.213-.8701v-.0879c0-.4082-.068-.7217-.205-.9404-.134-.2188-.381-.3281-.738-.3281-.299 0-.522.1152-.671.3457-.148.2285-.223.541-.223.9375 0 .3945.074.6992.22.914.149.2149.373.3223.674.3223zm2.941-2.8652v3.2109h-.486v-3.2109zm-.237-1.2012c.08 0 .149.0264.205.0791.059.0508.088.1309.088.2402 0 .1074-.029.1875-.088.2403-.056.0527-.125.0791-.205.0791-.084 0-.154-.0264-.211-.0791-.055-.0528-.082-.1329-.082-.2403 0-.1093.027-.1894.082-.2402.057-.0527.127-.0791.211-.0791zm2.777 1.1426c.401 0 .72.1377.958.4131.239.2753.358.6894.358 1.2421 0 .3653-.055.6719-.164.92-.11.248-.264.4355-.463.5625-.197.1269-.431.1904-.7.1904-.17 0-.32-.0225-.449-.0674-.128-.0449-.239-.1055-.331-.1816-.091-.0762-.168-.1592-.228-.2491h-.035c.006.0762.012.168.02.2754.01.1075.015.2012.015.2813v1.3183h-.489v-4.6464h.401l.064.4746h.024c.062-.0977.139-.1866.228-.2666.09-.0821.2-.1465.329-.1934.13-.0488.285-.0732.462-.0732zm-.085.4101c-.222 0-.402.043-.539.1289-.134.086-.233.2149-.295.3867-.063.17-.096.3838-.1.6417v.0937c0 .2715.029.501.088.6885.06.1875.159.3301.296.4277.138.0977.324.1465.556.1465.2 0 .366-.0537.498-.1611.133-.1075.232-.2569.296-.4483.067-.1933.1-.415.1-.665 0-.3789-.074-.6797-.223-.9024-.146-.2246-.372-.3369-.677-.3369zm2.737-.3515v3.2109h-.487v-3.2109zm-.237-1.2012c.08 0 .148.0264.205.0791.058.0508.087.1309.087.2402 0 .1074-.029.1875-.087.2403-.057.0527-.125.0791-.205.0791-.084 0-.155-.0264-.211-.0791-.055-.0528-.082-.1329-.082-.2403 0-.1093.027-.1894.082-.2402.056-.0527.127-.0791.211-.0791zm3.345 3.5332c0 .2051-.052.3779-.155.5185-.102.1387-.248.2432-.44.3135-.189.0703-.416.1055-.679.1055-.225 0-.419-.0176-.583-.0527-.164-.0352-.308-.085-.431-.1495v-.4482c.131.0645.287.123.469.1758.182.0527.367.0791.557.0791.277 0 .478-.0449.603-.1348.125-.0898.188-.2119.188-.3662 0-.0879-.026-.165-.077-.2314-.048-.0684-.131-.1338-.249-.1963-.117-.0645-.279-.1348-.486-.211-.205-.0781-.383-.1552-.533-.2314-.149-.0781-.264-.1729-.346-.2842-.08-.1113-.12-.2558-.12-.4336 0-.2715.109-.4795.328-.624.221-.1465.51-.2197.867-.2197.194 0 .374.0195.542.0586.17.0371.328.0879.475.1523l-.164.3897c-.133-.0567-.275-.1045-.425-.1436s-.304-.0586-.46-.0586c-.225 0-.397.0371-.518.1113-.12.0743-.179.1758-.179.3047 0 .0996.027.1817.082.2461.056.0645.146.125.269.1817.123.0566.286.123.487.1992.201.0742.375.1513.521.2314.147.0781.259.1738.337.2871.08.1114.12.2549.12.4307zm2.069.9375c-.289 0-.544-.0596-.765-.1787-.221-.1192-.393-.3008-.516-.5449-.123-.2442-.184-.5518-.184-.9229 0-.3887.064-.706.193-.9521.131-.2481.311-.4317.539-.5508.229-.1192.488-.1787.779-.1787.161 0 .315.0166.463.0498.151.0312.274.0713.369.1201l-.146.4072c-.098-.039-.211-.0742-.34-.1055-.127-.0312-.246-.0468-.357-.0468-.223 0-.408.0478-.557.1435-.146.0957-.257.2364-.331.4219-.072.1855-.108.4141-.108.6855 0 .2598.035.4815.105.6651.072.1836.179.3242.319.4219.143.0957.321.1435.534.1435.17 0 .323-.0176.46-.0527.136-.0371.26-.0801.372-.1289v.4336c-.108.0547-.228.0967-.361.1259-.131.0293-.287.044-.468.044zm2.077-3.2695v3.2109h-.487v-3.2109zm-.238-1.2012c.081 0 .149.0264.205.0791.059.0508.088.1309.088.2402 0 .1074-.029.1875-.088.2403-.056.0527-.124.0791-.205.0791-.084 0-.154-.0264-.211-.0791-.054-.0528-.082-.1329-.082-.2403 0-.1093.028-.1894.082-.2402.057-.0527.127-.0791.211-.0791zm2.789 1.1426c.381 0 .669.0937.865.2812.195.1856.293.4844.293.8965v2.0918h-.481v-2.0596c0-.2675-.061-.4677-.184-.6006-.121-.1328-.308-.1992-.56-.1992-.355 0-.605.1006-.75.3018-.144.2012-.217.4931-.217.876v1.6816h-.486v-3.2109h.393l.073.4629h.026c.069-.1133.155-.2081.261-.2842.105-.0782.224-.1367.354-.1758.131-.041.269-.0615.413-.0615zm3.056 4.7109c-.422 0-.747-.0791-.975-.2373-.229-.1562-.343-.376-.343-.6592 0-.2011.063-.373.19-.5156.129-.1426.307-.2373.533-.2842-.084-.039-.156-.0976-.216-.1758-.059-.0781-.088-.1679-.088-.2695 0-.1172.032-.2197.096-.3076.067-.0899.167-.1758.302-.2578-.168-.0684-.305-.1836-.41-.3457-.103-.1641-.155-.3545-.155-.5713 0-.2305.048-.4268.143-.5889.096-.164.235-.289.416-.375.182-.0859.402-.1289.659-.1289.057 0 .114.0029.17.0088.059.0039.115.0107.167.0205.053.0078.099.0176.138.0293h1.102v.3135l-.592.0732c.058.0762.107.168.146.2754s.059.2266.059.3574c0 .3203-.108.5752-.325.7647-.217.1875-.515.2812-.894.2812-.09 0-.181-.0078-.275-.0234-.096.0527-.169.1113-.22.1758-.049.0644-.073.1386-.073.2226 0 .0625.018.1123.055.1494.04.0372.095.0645.167.0821.073.0156.16.0234.261.0234h.566c.349 0 .617.0733.802.2197.188.1465.282.3604.282.6416 0 .3555-.145.628-.434.8174-.289.1895-.707.2842-1.254.2842zm.015-.3809c.265 0 .485-.0273.659-.082.176-.0527.307-.1299.393-.2314.087-.0996.131-.2188.131-.3575 0-.1289-.029-.2265-.088-.2929-.058-.0645-.144-.1074-.257-.1289-.114-.0235-.252-.0352-.416-.0352h-.557c-.144 0-.27.0225-.378.0674-.107.0449-.19.1113-.249.1992-.057.0879-.085.1973-.085.3281 0 .1739.073.3057.22.3956.146.0917.355.1376.627.1376zm.126-2.5664c.232 0 .407-.0586.524-.1757.117-.1172.176-.2881.176-.5127 0-.2403-.06-.42-.179-.5391-.119-.1211-.295-.1816-.527-.1816-.223 0-.395.0625-.516.1875-.119.123-.178.3037-.178.542 0 .2187.06.3867.181.5039.121.1171.294.1757.519.1757zm5.015-1.7636c.274 0 .508.0605.704.1816.195.1211.344.291.448.5098.103.2168.155.4707.155.7617v.3018h-2.218c.006.3769.1.664.282.8613.181.1972.437.2959.767.2959.203 0 .383-.0186.539-.0557s.319-.0918.486-.164v.4277c-.162.0723-.323.125-.483.1582-.158.0332-.346.0498-.562.0498-.309 0-.579-.0625-.809-.1875-.229-.127-.406-.3125-.533-.5566-.127-.2442-.191-.543-.191-.8965 0-.3457.058-.6446.173-.8965.117-.2539.281-.4492.492-.586.213-.1367.463-.205.75-.205zm-.005.3984c-.26 0-.467.085-.622.2549-.154.1699-.246.4072-.275.7119h1.699c-.002-.1914-.032-.3594-.091-.5039-.056-.1465-.143-.2598-.26-.3398-.117-.0821-.268-.1231-.451-.1231zm2.627 2.8711h-.489v-4.5586h.489zm1.515-3.2109v3.2109h-.486v-3.2109zm-.237-1.2012c.08 0 .148.0264.205.0791.058.0508.088.1309.088.2402 0 .1074-.03.1875-.088.2403-.057.0527-.125.0791-.205.0791-.084 0-.154-.0264-.211-.0791-.055-.0528-.082-.1329-.082-.2403 0-.1093.027-.1894.082-.2402.057-.0527.127-.0791.211-.0791zm2.305 4.0723c.081 0 .163-.0069.247-.0206.084-.0136.152-.0302.205-.0498v.378c-.057.0254-.136.0468-.238.0644-.099.0176-.197.0264-.293.0264-.17 0-.324-.0293-.463-.0879-.138-.0605-.25-.1621-.333-.3047s-.124-.3398-.124-.5918v-1.9043h-.457v-.2373l.46-.1904.194-.6973h.293v.7442h.94v.3808h-.94v1.8897c0 .2011.046.3515.137.4511.094.0997.218.1495.372.1495zm1.029.0351c0-.1367.033-.2334.099-.29.067-.0586.148-.0879.244-.0879.099 0 .183.0293.252.0879.068.0566.102.1533.102.29 0 .1348-.034.2334-.102.2959-.069.0606-.153.0908-.252.0908-.096 0-.177-.0302-.244-.0908-.066-.0625-.099-.1611-.099-.2959zm-150.0149 4.0215-1.538 4.2832h-.501l-1.5381-4.2832h.5215l1.0019 2.8213c.0411.1133.0772.2217.1084.3252.0332.1035.0625.2031.0879.2988s.0479.1885.0674.2783c.0195-.0898.042-.1826.0674-.2783.0254-.0976.0547-.1982.0879-.3017.0332-.1055.0703-.2159.1113-.3311l.9961-2.8125zm1.002 1.0723v3.2109h-.4863v-3.2109zm-.2373-1.2012c.0801 0 .1484.0264.2051.0791.0586.0508.0879.1309.0879.2402 0 .1074-.0293.1875-.0879.2403-.0567.0527-.125.0791-.2051.0791-.084 0-.1543-.0264-.2109-.0791-.0547-.0528-.0821-.1329-.0821-.2403 0-.1093.0274-.1894.0821-.2402.0566-.0527.1269-.0791.2109-.0791zm1.9746 4.4121-1.2187-3.2109h.5214l.7061 1.9423c.0488.1329.0986.2793.1494.4395s.0859.2891.1055.3867h.0205c.0234-.0976.0625-.2265.1172-.3867.0547-.1621.1045-.3086.1494-.4395l.706-1.9423h.5215l-1.2217 3.2109zm3.4951-3.2637c.3828 0 .667.086.8526.2578.1855.1719.2783.4463.2783.8233v2.1826h-.3545l-.0938-.4746h-.0234c-.0898.1172-.1836.2158-.2812.2959-.0977.0781-.211.1377-.3399.1787-.1269.0391-.2832.0586-.4687.0586-.1954 0-.3692-.0342-.5215-.1025-.1504-.0684-.2696-.1719-.3574-.3106-.086-.1387-.129-.3144-.129-.5273 0-.3203.127-.5664.3809-.7383s.6406-.2656 1.1602-.2813l.5537-.0234v-.1963c0-.2773-.0596-.4717-.1787-.583-.1192-.1113-.2871-.167-.5039-.167-.168 0-.3282.0244-.4805.0732-.1524.0489-.2969.1065-.4336.1729l-.1494-.3691c.1445-.0743.3105-.1377.498-.1905.1875-.0527.3848-.0791.5918-.0791zm.6504 1.6817-.4892.0205c-.4004.0156-.6827.081-.8467.1963-.1641.1152-.2461.2783-.2461.4892 0 .1836.0556.3194.167.4072.1113.0879.2588.1319.4424.1319.2851 0 .5185-.0791.7002-.2373.1816-.1582.2724-.3955.2724-.7119zm4.9688-1.6875c.3535 0 .6201.0927.7998.2783.1797.1836.2695.4795.2695.8877v2.1035h-.4805v-2.0801c0-.2597-.0566-.4541-.1699-.583-.1113-.1308-.2773-.1963-.498-.1963-.3106 0-.5362.0899-.6768.2696-.1406.1796-.2109.4443-.2109.7939v1.7959h-.4834v-2.0801c0-.1738-.0254-.3183-.0762-.4336-.0488-.1152-.1231-.2011-.2227-.2578-.0976-.0586-.2216-.0879-.372-.0879-.2129 0-.3838.044-.5127.1319s-.2227.2187-.2813.3925c-.0566.1719-.0849.3838-.0849.6358v1.6992h-.4864v-3.2109h.3926l.0733.4541h.0263c.0645-.1114.1455-.2051.2432-.2813.0976-.0762.207-.1338.3281-.1728.1211-.0391.25-.0586.3867-.0586.2442 0 .4483.0459.6123.1377.1661.0898.2862.2275.3604.413h.0264c.1054-.1855.25-.3232.4335-.413.1836-.0918.3848-.1377.6036-.1377zm4.7197.0586v3.2109h-.3984l-.0704-.4512h-.0263c-.0664.1114-.1524.2051-.2578.2813-.1055.0761-.2246.1328-.3575.1699-.1308.0391-.2705.0586-.4189.0586-.2539 0-.4668-.041-.6387-.1231-.1719-.082-.3017-.2089-.3896-.3808-.086-.1719-.1289-.3926-.1289-.6621v-2.1035h.4922v2.0683c0 .2676.0605.4678.1816.6006.1211.1309.3057.1963.5537.1963.2383 0 .4277-.0449.5684-.1348.1425-.0898.2451-.2216.3076-.3955.0625-.1758.0937-.3906.0937-.6445v-1.6904zm3.1055 2.332c0 .2051-.0518.3779-.1553.5185-.1016.1387-.2481.2432-.4395.3135-.1894.0703-.416.1055-.6797.1055-.2246 0-.4189-.0176-.583-.0527-.164-.0352-.3076-.085-.4306-.1495v-.4482c.1308.0645.2871.123.4687.1758.1817.0527.3672.0791.5567.0791.2773 0 .4785-.0449.6035-.1348.125-.0898.1875-.2119.1875-.3662 0-.0879-.0254-.165-.0762-.2314-.0488-.0684-.1318-.1338-.249-.1963-.1172-.0645-.2793-.1348-.4863-.211-.2051-.0781-.3829-.1552-.5332-.2314-.1485-.0781-.2637-.1729-.3457-.2842-.0801-.1113-.1202-.2558-.1202-.4336 0-.2715.1094-.4795.3282-.624.2207-.1465.5097-.2197.8671-.2197.1934 0 .3741.0195.542.0586.17.0371.3282.0879.4746.1523l-.164.3897c-.1328-.0567-.2744-.1045-.4248-.1436s-.3037-.0586-.46-.0586c-.2246 0-.3974.0371-.5185.1113-.1192.0743-.1787.1758-.1787.3047 0 .0996.0273.1817.082.2461.0566.0645.1465.125.2695.1817.1231.0566.2852.123.4863.1992.2012.0742.375.1513.5215.2314.1465.0781.2588.1738.3369.2871.0801.1114.1202.2549.1202.4307zm4.4179 0c0 .2051-.0517.3779-.1552.5185-.1016.1387-.2481.2432-.4395.3135-.1895.0703-.416.1055-.6797.1055-.2246 0-.4189-.0176-.583-.0527-.1641-.0352-.3076-.085-.4307-.1495v-.4482c.1309.0645.2872.123.4688.1758.1816.0527.3672.0791.5566.0791.2774 0 .4785-.0449.6035-.1348.125-.0898.1875-.2119.1875-.3662 0-.0879-.0253-.165-.0761-.2314-.0489-.0684-.1319-.1338-.249-.1963-.1172-.0645-.2793-.1348-.4864-.211-.2051-.0781-.3828-.1552-.5332-.2314-.1484-.0781-.2636-.1729-.3457-.2842-.0801-.1113-.1201-.2558-.1201-.4336 0-.2715.1094-.4795.3281-.624.2207-.1465.5098-.2197.8672-.2197.1934 0 .374.0195.542.0586.1699.0371.3281.0879.4746.1523l-.164.3897c-.1329-.0567-.2745-.1045-.4249-.1436-.1503-.0391-.3037-.0586-.4599-.0586-.2246 0-.3975.0371-.5186.1113-.1191.0743-.1787.1758-.1787.3047 0 .0996.0274.1817.0821.2461.0566.0645.1464.125.2695.1817.123.0566.2851.123.4863.1992.2012.0742.375.1513.5215.2314.1465.0781.2588.1738.3369.2871.0801.1114.1201.2549.1201.4307zm3.5508-.7324c0 .2636-.0342.499-.1025.706-.0684.2071-.167.3819-.2959.5244-.1289.1426-.2852.252-.4688.3282-.1816.0742-.3877.1113-.6181.1113-.2149 0-.4122-.0371-.5918-.1113-.1778-.0762-.3321-.1856-.4629-.3282-.1289-.1425-.2295-.3173-.3018-.5244-.0703-.207-.1055-.4424-.1055-.706 0-.3516.0596-.6504.1788-.8965.1191-.2481.289-.4365.5097-.5654.2227-.1309.4873-.1963.794-.1963.2929 0 .5488.0654.7675.1963.2207.1308.3916.3203.5127.5683.1231.2461.1846.544.1846.8936zm-2.4434 0c0 .2578.0342.4814.1026.6709.0683.1894.1738.3359.3164.4394s.3262.1553.5508.1553c.2226 0 .4052-.0518.5478-.1553.1446-.1035.251-.25.3194-.4394.0683-.1895.1025-.4131.1025-.6709 0-.2559-.0342-.4766-.1025-.6621-.0684-.1875-.1739-.3321-.3164-.4336-.1426-.1016-.3272-.1524-.5538-.1524-.3339 0-.5791.1104-.7353.3311-.1543.2207-.2315.5263-.2315.917zm3.7735 1.6113h-.4893v-4.5586h.4893zm1.5176 0h-.4893v-4.5586h.4893zm1.5146-3.2109v3.2109h-.4863v-3.2109zm-.2373-1.2012c.0801 0 .1484.0264.2051.0791.0586.0508.0879.1309.0879.2402 0 .1074-.0293.1875-.0879.2403-.0567.0527-.125.0791-.2051.0791-.084 0-.1543-.0264-.2109-.0791-.0547-.0528-.0821-.1329-.0821-.2403 0-.1093.0274-.1894.0821-.2402.0566-.0527.1269-.0791.2109-.0791zm2.5547 4.4707c-.2891 0-.5439-.0596-.7647-.1787-.2207-.1192-.3925-.3008-.5156-.5449-.123-.2442-.1845-.5518-.1845-.9229 0-.3887.0644-.706.1933-.9521.1309-.2481.3106-.4317.5391-.5508.2285-.1192.4883-.1787.7793-.1787.1601 0 .3144.0166.4629.0498.1504.0312.2734.0713.3691.1201l-.1465.4072c-.0976-.039-.2109-.0742-.3398-.1055-.127-.0312-.2461-.0468-.3574-.0468-.2227 0-.4083.0478-.5567.1435-.1465.0957-.2568.2364-.331.4219-.0723.1855-.1084.4141-.1084.6855 0 .2598.0351.4815.1054.6651.0723.1836.1787.3242.3194.4219.1425.0957.3203.1435.5332.1435.1699 0 .3232-.0176.4599-.0527.1367-.0371.2608-.0801.3721-.1289v.4336c-.1074.0547-.2275.0967-.3604.1259-.1308.0293-.2871.044-.4687.044zm2.0771-3.2695v3.2109h-.4863v-3.2109zm-.2373-1.2012c.0801 0 .1485.0264.2051.0791.0586.0508.0879.1309.0879.2402 0 .1074-.0293.1875-.0879.2403-.0566.0527-.125.0791-.2051.0791-.0839 0-.1543-.0264-.2109-.0791-.0547-.0528-.082-.1329-.082-.2403 0-.1093.0273-.1894.082-.2402.0566-.0527.127-.0791.2109-.0791zm2.3057 4.0723c.0801 0 .1621-.0069.2461-.0206.084-.0136.1523-.0302.2051-.0498v.378c-.0567.0254-.1358.0468-.2373.0644-.0996.0176-.1973.0264-.293.0264-.1699 0-.3242-.0293-.4629-.0879-.1387-.0605-.25-.1621-.334-.3047-.082-.1426-.123-.3398-.123-.5918v-1.9043h-.457v-.2373l.4599-.1904.1934-.6973h.2929v.7442h.9405v.3808h-.9405v1.8897c0 .2011.0459.3515.1377.4511.0938.0997.2178.1495.3721.1495zm3.7529-2.8711v3.2109h-.3984l-.0703-.4512h-.0264c-.0664.1114-.1523.2051-.2578.2813-.1055.0761-.2246.1328-.3574.1699-.1309.0391-.2705.0586-.419.0586-.2539 0-.4668-.041-.6386-.1231-.1719-.082-.3018-.2089-.3897-.3808-.0859-.1719-.1289-.3926-.1289-.6621v-2.1035h.4922v2.0683c0 .2676.0605.4678.1816.6006.1211.1309.3057.1963.5538.1963.2382 0 .4277-.0449.5683-.1348.1426-.0898.2451-.2216.3076-.3955.0625-.1758.0938-.3906.0938-.6445v-1.6904zm2.1709 3.2695c-.4062 0-.7285-.1387-.9668-.416-.2363-.2774-.3545-.6895-.3545-1.2364 0-.5527.1211-.9697.3633-1.2509.2422-.2832.5645-.4248.9668-.4248.1699 0 .3184.0224.4453.0674.127.0449.2364.1054.3282.1816.0918.0742.1689.1592.2314.2549h.0352c-.0079-.0606-.0157-.1436-.0235-.249-.0078-.1055-.0117-.1915-.0117-.2579v-1.2861h.4863v4.5586h-.3925l-.0733-.457h-.0205c-.0605.0957-.1377.1826-.2314.2607-.0918.0781-.2022.1406-.3311.1875-.1269.0449-.2773.0674-.4512.0674zm.0762-.4043c.3438 0 .5869-.0977.7295-.293s.2139-.4853.2139-.8701v-.0879c0-.4082-.0684-.7217-.2051-.9404-.1348-.2188-.3809-.3281-.7383-.3281-.2988 0-.5225.1152-.6709.3457-.1484.2285-.2227.541-.2227.9375 0 .3945.0733.6992.2198.914.1484.2149.373.3223.6738.3223zm2.9414-2.8652v3.2109h-.4863v-3.2109zm-.2373-1.2012c.0801 0 .1484.0264.2051.0791.0586.0508.0879.1309.0879.2402 0 .1074-.0293.1875-.0879.2403-.0567.0527-.125.0791-.2051.0791-.084 0-.1543-.0264-.2109-.0791-.0547-.0528-.0821-.1329-.0821-.2403 0-.1093.0274-.1894.0821-.2402.0566-.0527.1269-.0791.2109-.0791zm2.7891 1.1426c.3808 0 .6689.0937.8642.2812.1953.1856.293.4844.293.8965v2.0918h-.4805v-2.0596c0-.2675-.0615-.4677-.1845-.6006-.1211-.1328-.3077-.1992-.5596-.1992-.3555 0-.6055.1006-.75.3018s-.2168.4931-.2168.876v1.6816h-.4863v-3.2109h.3925l.0733.4629h.0263c.0684-.1133.1553-.2081.2608-.2842.1055-.0782.2236-.1367.3545-.1758.1308-.041.2685-.0615.4131-.0615zm7.2041 0c.3535 0 .6201.0927.7998.2783.1797.1836.2695.4795.2695.8877v2.1035h-.4805v-2.0801c0-.2597-.0566-.4541-.1699-.583-.1113-.1308-.2773-.1963-.498-.1963-.3106 0-.5362.0899-.6768.2696-.1406.1796-.2109.4443-.2109.7939v1.7959h-.4834v-2.0801c0-.1738-.0254-.3183-.0762-.4336-.0488-.1152-.123-.2011-.2227-.2578-.0976-.0586-.2216-.0879-.372-.0879-.2129 0-.3838.044-.5127.1319s-.2227.2187-.2813.3925c-.0566.1719-.0849.3838-.0849.6358v1.6992h-.4864v-3.2109h.3926l.0733.4541h.0263c.0645-.1114.1455-.2051.2432-.2813s.207-.1338.3281-.1728c.1211-.0391.25-.0586.3867-.0586.2442 0 .4483.0459.6123.1377.1661.0898.2862.2275.3604.413h.0264c.1054-.1855.25-.3232.4336-.413.1835-.0918.3847-.1377.6035-.1377zm3.2695.0058c.3828 0 .667.086.8525.2578.1856.1719.2784.4463.2784.8233v2.1826h-.3545l-.0938-.4746h-.0234c-.0899.1172-.1836.2158-.2813.2959-.0976.0781-.2109.1377-.3398.1787-.127.0391-.2832.0586-.4688.0586-.1953 0-.3691-.0342-.5214-.1025-.1504-.0684-.2696-.1719-.3575-.3106-.0859-.1387-.1289-.3144-.1289-.5273 0-.3203.127-.5664.3809-.7383s.6406-.2656 1.1601-.2813l.5538-.0234v-.1963c0-.2773-.0596-.4717-.1788-.583-.1191-.1113-.2871-.167-.5039-.167-.1679 0-.3281.0244-.4804.0732-.1524.0489-.2969.1065-.4336.1729l-.1494-.3691c.1445-.0743.3105-.1377.498-.1905.1875-.0527.3848-.0791.5918-.0791zm.6504 1.6817-.4893.0205c-.4004.0156-.6826.081-.8466.1963-.1641.1152-.2461.2783-.2461.4892 0 .1836.0556.3194.167.4072.1113.0879.2587.1319.4423.1319.2852 0 .5186-.0791.7002-.2373.1817-.1582.2725-.3955.2725-.7119zm2.5195 1.2422c.0801 0 .1621-.0069.2461-.0206.084-.0136.1524-.0302.2051-.0498v.378c-.0566.0254-.1357.0468-.2373.0644-.0996.0176-.1973.0264-.293.0264-.1699 0-.3242-.0293-.4629-.0879-.1386-.0605-.25-.1621-.334-.3047-.082-.1426-.123-.3398-.123-.5918v-1.9043h-.457v-.2373l.4599-.1904.1934-.6973h.293v.7442h.9404v.3808h-.9404v1.8897c0 .2011.0459.3515.1377.4511.0937.0997.2177.1495.372.1495zm2.1387 0c.0801 0 .1621-.0069.2461-.0206.084-.0136.1523-.0302.2051-.0498v.378c-.0567.0254-.1358.0468-.2373.0644-.0996.0176-.1973.0264-.293.0264-.1699 0-.3242-.0293-.4629-.0879-.1387-.0605-.25-.1621-.334-.3047-.082-.1426-.123-.3398-.123-.5918v-1.9043h-.4571v-.2373l.46-.1904.1934-.6973h.2929v.7442h.9405v.3808h-.9405v1.8897c0 .2011.0459.3515.1377.4511.0938.0997.2178.1495.3721.1495zm1.5879-2.8711v3.2109h-.4863v-3.2109zm-.2373-1.2012c.0801 0 .1484.0264.2051.0791.0586.0508.0879.1309.0879.2402 0 .1074-.0293.1875-.0879.2403-.0567.0527-.125.0791-.2051.0791-.084 0-.1543-.0264-.211-.0791-.0546-.0528-.082-.1329-.082-.2403 0-.1093.0274-.1894.082-.2402.0567-.0527.127-.0791.211-.0791zm3.3457 3.5332c0 .2051-.0518.3779-.1553.5185-.1016.1387-.248.2432-.4394.3135-.1895.0703-.4161.1055-.6797.1055-.2246 0-.419-.0176-.583-.0527-.1641-.0352-.3077-.085-.4307-.1495v-.4482c.1309.0645.2871.123.4687.1758.1817.0527.3672.0791.5567.0791.2773 0 .4785-.0449.6035-.1348.125-.0898.1875-.2119.1875-.3662 0-.0879-.0254-.165-.0762-.2314-.0488-.0684-.1318-.1338-.249-.1963-.1172-.0645-.2793-.1348-.4863-.211-.2051-.0781-.3828-.1552-.5332-.2314-.1485-.0781-.2637-.1729-.3457-.2842-.0801-.1113-.1201-.2558-.1201-.4336 0-.2715.1093-.4795.3281-.624.2207-.1465.5097-.2197.8672-.2197.1933 0 .374.0195.542.0586.1699.0371.3281.0879.4746.1523l-.1641.3897c-.1328-.0567-.2744-.1045-.4248-.1436s-.3037-.0586-.46-.0586c-.2246 0-.3974.0371-.5185.1113-.1192.0743-.1787.1758-.1787.3047 0 .0996.0273.1817.082.2461.0567.0645.1465.125.2695.1817.1231.0566.2852.123.4864.1992.2011.0742.375.1513.5215.2314.1464.0781.2587.1738.3369.2871.08.1114.1201.2549.1201.4307zm3.5415-2.3848c.383 0 .667.086.853.2578.186.1719.278.4463.278.8233v2.1826h-.354l-.094-.4746h-.023c-.09.1172-.184.2158-.282.2959-.097.0781-.211.1377-.339.1787-.127.0391-.284.0586-.469.0586-.195 0-.369-.0342-.522-.1025-.15-.0684-.269-.1719-.357-.3106-.086-.1387-.129-.3144-.129-.5273 0-.3203.127-.5664.381-.7383s.64-.2656 1.16-.2813l.554-.0234v-.1963c0-.2773-.06-.4717-.179-.583s-.287-.167-.504-.167c-.168 0-.328.0244-.48.0732-.153.0489-.297.1065-.434.1729l-.149-.3691c.144-.0743.31-.1377.498-.1905.187-.0527.384-.0791.591-.0791zm.651 1.6817-.489.0205c-.401.0156-.683.081-.847.1963-.164.1152-.246.2783-.246.4892 0 .1836.056.3194.167.4072.111.0879.259.1319.442.1319.285 0 .519-.0791.7-.2373.182-.1582.273-.3955.273-.7119zm4.134-1.6289v3.2109h-.399l-.07-.4512h-.026c-.067.1114-.153.2051-.258.2813-.106.0761-.225.1328-.358.1699-.131.0391-.27.0586-.419.0586-.254 0-.466-.041-.638-.1231-.172-.082-.302-.2089-.39-.3808-.086-.1719-.129-.3926-.129-.6621v-2.1035h.492v2.0683c0 .2676.061.4678.182.6006.121.1309.306.1963.554.1963.238 0 .427-.0449.568-.1348.143-.0898.245-.2216.308-.3955.062-.1758.093-.3906.093-.6445v-1.6904zm2.314 3.2695c-.289 0-.544-.0596-.765-.1787-.22-.1192-.392-.3008-.515-.5449-.123-.2442-.185-.5518-.185-.9229 0-.3887.065-.706.194-.9521.13-.2481.31-.4317.539-.5508.228-.1192.488-.1787.779-.1787.16 0 .314.0166.463.0498.15.0312.273.0713.369.1201l-.146.4072c-.098-.039-.211-.0742-.34-.1055-.127-.0312-.246-.0468-.358-.0468-.222 0-.408.0478-.556.1435-.147.0957-.257.2364-.331.4219-.073.1855-.109.4141-.109.6855 0 .2598.035.4815.106.6651.072.1836.178.3242.319.4219.143.0957.32.1435.533.1435.17 0 .323-.0176.46-.0527.137-.0371.261-.0801.372-.1289v.4336c-.107.0547-.227.0967-.36.1259-.131.0293-.287.044-.469.044zm2.628-.3984c.08 0 .162-.0069.246-.0206.084-.0136.152-.0302.205-.0498v.378c-.056.0254-.136.0468-.237.0644-.1.0176-.197.0264-.293.0264-.17 0-.324-.0293-.463-.0879-.139-.0605-.25-.1621-.334-.3047-.082-.1426-.123-.3398-.123-.5918v-1.9043h-.457v-.2373l.46-.1904.193-.6973h.293v.7442h.941v.3808h-.941v1.8897c0 .2011.046.3515.138.4511.094.0997.218.1495.372.1495zm3.87-1.2715c0 .2636-.034.499-.102.706-.069.2071-.167.3819-.296.5244-.129.1426-.285.252-.469.3282-.182.0742-.388.1113-.618.1113-.215 0-.412-.0371-.592-.1113-.178-.0762-.332-.1856-.463-.3282-.129-.1425-.229-.3173-.302-.5244-.07-.207-.105-.4424-.105-.706 0-.3516.059-.6504.179-.8965.119-.2481.289-.4365.509-.5654.223-.1309.488-.1963.794-.1963.293 0 .549.0654.768.1963.221.1308.391.3203.513.5683.123.2461.184.544.184.8936zm-2.443 0c0 .2578.034.4814.102.6709.069.1894.174.3359.317.4394.142.1035.326.1553.551.1553.222 0 .405-.0518.547-.1553.145-.1035.251-.25.32-.4394.068-.1895.102-.4131.102-.6709 0-.2559-.034-.4766-.102-.6621-.069-.1875-.174-.3321-.317-.4336-.142-.1016-.327-.1524-.553-.1524-.334 0-.58.1104-.736.3311-.154.2207-.231.5263-.231.917zm4.743-1.6582c.064 0 .132.0039.202.0117.07.0058.133.0146.188.0264l-.062.4511c-.053-.0136-.111-.0244-.176-.0322-.064-.0078-.125-.0117-.181-.0117-.129 0-.251.0263-.367.0791-.113.0508-.212.125-.298.2226-.086.0957-.154.212-.203.3487-.048.1347-.073.2851-.073.4511v1.7227h-.489v-3.2109h.404l.053.5918h.021c.066-.1192.146-.2276.24-.3252.093-.0996.202-.1787.325-.2373.125-.0586.264-.0879.416-.0879zm.923 2.9648c0-.1367.033-.2334.099-.29.067-.0586.148-.0879.244-.0879.099 0 .183.0293.252.0879.068.0566.102.1533.102.29 0 .1348-.034.2334-.102.2959-.069.0606-.153.0908-.252.0908-.096 0-.177-.0302-.244-.0908-.066-.0625-.099-.1611-.099-.2959zm5.112-3.6006c-.236 0-.449.041-.639.1231-.187.0801-.347.1972-.48.3515-.131.1524-.231.3369-.302.5537-.07.2168-.105.461-.105.7325 0 .3593.055.6718.167.9375.113.2636.281.4677.504.6123.224.1445.505.2168.84.2168.192 0 .372-.0157.54-.0469.169-.0332.334-.0742.495-.1231v.4336c-.157.0586-.321.1016-.493.1289-.171.0293-.376.044-.612.044-.435 0-.8-.0898-1.093-.2695-.291-.1817-.509-.4375-.656-.7676-.144-.3301-.217-.7197-.217-1.169 0-.3242.045-.6201.135-.8877.092-.2695.225-.5019.399-.6972.175-.1953.39-.3457.644-.4512.256-.1074.549-.1611.879-.1611.217 0 .426.0215.627.0644.201.043.383.1045.545.1846l-.199.4219c-.137-.0625-.287-.1162-.452-.1612-.162-.0468-.337-.0703-.527-.0703zm3.334.6358c.065 0 .132.0039.202.0117.071.0058.133.0146.188.0264l-.062.4511c-.053-.0136-.111-.0244-.176-.0322-.064-.0078-.125-.0117-.181-.0117-.129 0-.251.0263-.366.0791-.114.0508-.213.125-.299.2226-.086.0957-.154.212-.202.3487-.049.1347-.074.2851-.074.4511v1.7227h-.489v-3.2109h.404l.053.5918h.021c.066-.1192.146-.2276.24-.3252.094-.0996.202-.1787.325-.2373.125-.0586.264-.0879.416-.0879zm2.197.0058c.383 0 .667.086.853.2578.185.1719.278.4463.278.8233v2.1826h-.354l-.094-.4746h-.023c-.09.1172-.184.2158-.282.2959-.097.0781-.211.1377-.34.1787-.126.0391-.283.0586-.468.0586-.196 0-.369-.0342-.522-.1025-.15-.0684-.269-.1719-.357-.3106-.086-.1387-.129-.3144-.129-.5273 0-.3203.127-.5664.381-.7383s.64-.2656 1.16-.2813l.554-.0234v-.1963c0-.2773-.06-.4717-.179-.583s-.287-.167-.504-.167c-.168 0-.328.0244-.48.0732-.153.0489-.297.1065-.434.1729l-.149-.3691c.144-.0743.31-.1377.498-.1905.187-.0527.384-.0791.591-.0791zm.651 1.6817-.489.0205c-.401.0156-.683.081-.847.1963-.164.1152-.246.2783-.246.4892 0 .1836.055.3194.167.4072.111.0879.259.1319.442.1319.285 0 .519-.0791.7-.2373.182-.1582.273-.3955.273-.7119zm3.559.7031c0 .2051-.051.3779-.155.5185-.102.1387-.248.2432-.439.3135-.19.0703-.416.1055-.68.1055-.225 0-.419-.0176-.583-.0527-.164-.0352-.308-.085-.431-.1495v-.4482c.131.0645.287.123.469.1758.182.0527.367.0791.557.0791.277 0 .478-.0449.603-.1348.125-.0898.188-.2119.188-.3662 0-.0879-.026-.165-.077-.2314-.048-.0684-.131-.1338-.249-.1963-.117-.0645-.279-.1348-.486-.211-.205-.0781-.383-.1552-.533-.2314-.149-.0781-.264-.1729-.346-.2842-.08-.1113-.12-.2558-.12-.4336 0-.2715.109-.4795.328-.624.221-.1465.51-.2197.867-.2197.194 0 .374.0195.542.0586.17.0371.329.0879.475.1523l-.164.3897c-.133-.0567-.274-.1045-.425-.1436-.15-.0391-.304-.0586-.46-.0586-.224 0-.397.0371-.518.1113-.12.0743-.179.1758-.179.3047 0 .0996.027.1817.082.2461.057.0645.146.125.269.1817.124.0566.286.123.487.1992.201.0742.375.1513.521.2314.147.0781.259.1738.337.2871.08.1114.12.2549.12.4307zm3.542-2.3848c.383 0 .667.086.853.2578.185.1719.278.4463.278.8233v2.1826h-.354l-.094-.4746h-.023c-.09.1172-.184.2158-.282.2959-.097.0781-.211.1377-.34.1787-.127.0391-.283.0586-.468.0586-.196 0-.369-.0342-.522-.1025-.15-.0684-.269-.1719-.357-.3106-.086-.1387-.129-.3144-.129-.5273 0-.3203.127-.5664.381-.7383s.64-.2656 1.16-.2813l.554-.0234v-.1963c0-.2773-.06-.4717-.179-.583s-.287-.167-.504-.167c-.168 0-.328.0244-.481.0732-.152.0489-.296.1065-.433.1729l-.15-.3691c.145-.0743.311-.1377.499-.1905.187-.0527.384-.0791.591-.0791zm.651 1.6817-.49.0205c-.4.0156-.682.081-.846.1963-.164.1152-.246.2783-.246.4892 0 .1836.055.3194.167.4072.111.0879.258.1319.442.1319.285 0 .519-.0791.7-.2373.182-.1582.273-.3955.273-.7119zm4.242-1.6817c.383 0 .667.086.852.2578.186.1719.279.4463.279.8233v2.1826h-.355l-.093-.4746h-.024c-.09.1172-.184.2158-.281.2959-.098.0781-.211.1377-.34.1787-.127.0391-.283.0586-.469.0586-.195 0-.369-.0342-.521-.1025-.151-.0684-.27-.1719-.358-.3106-.086-.1387-.129-.3144-.129-.5273 0-.3203.127-.5664.381-.7383s.641-.2656 1.16-.2813l.554-.0234v-.1963c0-.2773-.059-.4717-.179-.583-.119-.1113-.287-.167-.503-.167-.168 0-.329.0244-.481.0732-.152.0489-.297.1065-.434.1729l-.149-.3691c.145-.0743.311-.1377.498-.1905.188-.0527.385-.0791.592-.0791zm.65 1.6817-.489.0205c-.4.0156-.683.081-.847.1963-.164.1152-.246.2783-.246.4892 0 .1836.056.3194.167.4072.112.0879.259.1319.443.1319.285 0 .518-.0791.7-.2373.181-.1582.272-.3955.272-.7119zm2.942-1.6875c.064 0 .132.0039.202.0117.07.0058.133.0146.187.0264l-.061.4511c-.053-.0136-.112-.0244-.176-.0322s-.125-.0117-.182-.0117c-.129 0-.251.0263-.366.0791-.113.0508-.213.125-.299.2226-.086.0957-.153.212-.202.3487-.049.1347-.073.2851-.073.4511v1.7227h-.489v-3.2109h.404l.053.5918h.02c.067-.1192.147-.2276.24-.3252.094-.0996.203-.1787.326-.2373.125-.0586.263-.0879.416-.0879zm2.282 3.3281c-.289 0-.544-.0596-.765-.1787-.22-.1192-.392-.3008-.515-.5449-.123-.2442-.185-.5518-.185-.9229 0-.3887.065-.706.193-.9521.131-.2481.311-.4317.539-.5508.229-.1192.489-.1787.78-.1787.16 0 .314.0166.463.0498.15.0312.273.0713.369.1201l-.147.4072c-.097-.039-.211-.0742-.339-.1055-.127-.0312-.247-.0468-.358-.0468-.223 0-.408.0478-.557.1435-.146.0957-.256.2364-.331.4219-.072.1855-.108.4141-.108.6855 0 .2598.035.4815.105.6651.073.1836.179.3242.32.4219.142.0957.32.1435.533.1435.17 0 .323-.0176.46-.0527.137-.0371.261-.0801.372-.1289v.4336c-.107.0547-.228.0967-.36.1259-.131.0293-.287.044-.469.044zm4.242-3.2695v3.2109h-.398l-.071-.4512h-.026c-.066.1114-.152.2051-.258.2813-.105.0761-.224.1328-.357.1699-.131.0391-.271.0586-.419.0586-.254 0-.467-.041-.639-.1231-.172-.082-.302-.2089-.39-.3808-.085-.1719-.128-.3926-.128-.6621v-2.1035h.492v2.0683c0 .2676.06.4678.181.6006.122.1309.306.1963.554.1963.238 0 .428-.0449.568-.1348.143-.0898.246-.2216.308-.3955.063-.1758.094-.3906.094-.6445v-1.6904zm3.788-.0528c.383 0 .667.086.853.2578.185.1719.278.4463.278.8233v2.1826h-.354l-.094-.4746h-.024c-.089.1172-.183.2158-.281.2959-.098.0781-.211.1377-.34.1787-.127.0391-.283.0586-.468.0586-.196 0-.37-.0342-.522-.1025-.15-.0684-.269-.1719-.357-.3106-.086-.1387-.129-.3144-.129-.5273 0-.3203.127-.5664.381-.7383.253-.1719.64-.2656 1.16-.2813l.553-.0234v-.1963c0-.2773-.059-.4717-.178-.583s-.287-.167-.504-.167c-.168 0-.328.0244-.481.0732-.152.0489-.297.1065-.433.1729l-.15-.3691c.145-.0743.311-.1377.498-.1905.188-.0527.385-.0791.592-.0791zm.651 1.6817-.49.0205c-.4.0156-.682.081-.846.1963-.164.1152-.246.2783-.246.4892 0 .1836.055.3194.167.4072.111.0879.258.1319.442.1319.285 0 .518-.0791.7-.2373s.273-.3955.273-.7119zm4.183 1.6406c-.406 0-.728-.1387-.967-.416-.236-.2774-.354-.6895-.354-1.2364 0-.5527.121-.9697.363-1.2509.242-.2832.565-.4248.967-.4248.17 0 .318.0224.445.0674.127.0449.237.1054.328.1816.092.0742.169.1592.232.2549h.035c-.008-.0606-.016-.1436-.023-.249-.008-.1055-.012-.1915-.012-.2579v-1.2861h.486v4.5586h-.392l-.074-.457h-.02c-.061.0957-.138.1826-.232.2607-.091.0781-.202.1406-.331.1875-.127.0449-.277.0674-.451.0674zm.076-.4043c.344 0 .587-.0977.73-.293.142-.1953.214-.4853.214-.8701v-.0879c0-.4082-.069-.7217-.205-.9404-.135-.2188-.381-.3281-.739-.3281-.298 0-.522.1152-.671.3457-.148.2285-.222.541-.222.9375 0 .3945.073.6992.22.914.148.2149.373.3223.673.3223zm2.942-2.8652v3.2109h-.487v-3.2109zm-.238-1.2012c.081 0 .149.0264.206.0791.058.0508.087.1309.087.2402 0 .1074-.029.1875-.087.2403-.057.0527-.125.0791-.206.0791-.084 0-.154-.0264-.21-.0791-.055-.0528-.083-.1329-.083-.2403 0-.1093.028-.1894.083-.2402.056-.0527.126-.0791.21-.0791zm2.47 1.1484c.383 0 .667.086.853.2578.185.1719.278.4463.278.8233v2.1826h-.354l-.094-.4746h-.024c-.089.1172-.183.2158-.281.2959-.098.0781-.211.1377-.34.1787-.127.0391-.283.0586-.468.0586-.196 0-.37-.0342-.522-.1025-.15-.0684-.269-.1719-.357-.3106-.086-.1387-.129-.3144-.129-.5273 0-.3203.127-.5664.381-.7383.253-.1719.64-.2656 1.16-.2813l.553-.0234v-.1963c0-.2773-.059-.4717-.178-.583s-.287-.167-.504-.167c-.168 0-.328.0244-.481.0732-.152.0489-.297.1065-.433.1729l-.15-.3691c.145-.0743.311-.1377.498-.1905.188-.0527.385-.0791.592-.0791zm.651 1.6817-.49.0205c-.4.0156-.682.081-.846.1963-.164.1152-.246.2783-.246.4892 0 .1836.055.3194.167.4072.111.0879.258.1319.442.1319.285 0 .518-.0791.7-.2373s.273-.3955.273-.7119zm4.968-1.6875c.354 0 .62.0927.8.2783.18.1836.27.4795.27.8877v2.1035h-.481v-2.0801c0-.2597-.056-.4541-.17-.583-.111-.1308-.277-.1963-.498-.1963-.31 0-.536.0899-.677.2696-.14.1796-.21.4443-.21.7939v1.7959h-.484v-2.0801c0-.1738-.025-.3183-.076-.4336-.049-.1152-.123-.2011-.223-.2578-.097-.0586-.221-.0879-.372-.0879-.213 0-.384.044-.512.1319-.129.0879-.223.2187-.282.3925-.056.1719-.085.3838-.085.6358v1.6992h-.486v-3.2109h.393l.073.4541h.026c.065-.1114.146-.2051.243-.2813.098-.0762.207-.1338.328-.1728.122-.0391.25-.0586.387-.0586.244 0 .448.0459.612.1377.167.0898.287.2275.361.413h.026c.106-.1855.25-.3232.434-.413.183-.0918.385-.1377.603-.1377zm7.114 0c.353 0 .62.0927.799.2783.18.1836.27.4795.27.8877v2.1035h-.481v-2.0801c0-.2597-.056-.4541-.169-.583-.112-.1308-.278-.1963-.499-.1963-.31 0-.536.0899-.676.2696-.141.1796-.211.4443-.211.7939v1.7959h-.484v-2.0801c0-.1738-.025-.3183-.076-.4336-.049-.1152-.123-.2011-.222-.2578-.098-.0586-.222-.0879-.372-.0879-.213 0-.384.044-.513.1319s-.223.2187-.281.3925c-.057.1719-.085.3838-.085.6358v1.6992h-.487v-3.2109h.393l.073.4541h.026c.065-.1114.146-.2051.244-.2813.097-.0762.207-.1338.328-.1728.121-.0391.25-.0586.386-.0586.245 0 .449.0459.613.1377.166.0898.286.2275.36.413h.026c.106-.1855.25-.3232.434-.413.184-.0918.385-.1377.604-.1377zm4.837 1.6582c0 .2636-.035.499-.103.706-.068.2071-.167.3819-.296.5244-.129.1426-.285.252-.469.3282-.181.0742-.387.1113-.618.1113-.215 0-.412-.0371-.592-.1113-.177-.0762-.332-.1856-.463-.3282-.128-.1425-.229-.3173-.301-.5244-.071-.207-.106-.4424-.106-.706 0-.3516.06-.6504.179-.8965.119-.2481.289-.4365.51-.5654.222-.1309.487-.1963.794-.1963.293 0 .548.0654.767.1963.221.1308.392.3203.513.5683.123.2461.185.544.185.8936zm-2.444 0c0 .2578.034.4814.103.6709.068.1894.174.3359.316.4394.143.1035.326.1553.551.1553.223 0 .405-.0518.548-.1553.144-.1035.251-.25.319-.4394.068-.1895.103-.4131.103-.6709 0-.2559-.035-.4766-.103-.6621-.068-.1875-.174-.3321-.316-.4336-.143-.1016-.327-.1524-.554-.1524-.334 0-.579.1104-.735.3311-.155.2207-.232.5263-.232.917zm3.774 1.6113h-.49v-4.5586h.49zm1.517 0h-.489v-4.5586h.489zm1.515-3.2109v3.2109h-.487v-3.2109zm-.237-1.2012c.08 0 .148.0264.205.0791.058.0508.087.1309.087.2402 0 .1074-.029.1875-.087.2403-.057.0527-.125.0791-.205.0791-.084 0-.155-.0264-.211-.0791-.055-.0528-.082-.1329-.082-.2403 0-.1093.027-.1894.082-.2402.056-.0527.127-.0791.211-.0791zm3.345 3.5332c0 .2051-.052.3779-.155.5185-.102.1387-.248.2432-.44.3135-.189.0703-.416.1055-.679.1055-.225 0-.419-.0176-.583-.0527-.164-.0352-.308-.085-.431-.1495v-.4482c.131.0645.287.123.469.1758.182.0527.367.0791.557.0791.277 0 .478-.0449.603-.1348.125-.0898.188-.2119.188-.3662 0-.0879-.026-.165-.077-.2314-.048-.0684-.131-.1338-.249-.1963-.117-.0645-.279-.1348-.486-.211-.205-.0781-.383-.1552-.533-.2314-.149-.0781-.264-.1729-.346-.2842-.08-.1113-.12-.2558-.12-.4336 0-.2715.109-.4795.328-.624.221-.1465.51-.2197.867-.2197.194 0 .374.0195.542.0586.17.0371.328.0879.475.1523l-.164.3897c-.133-.0567-.275-.1045-.425-.1436s-.304-.0586-.46-.0586c-.225 0-.397.0371-.518.1113-.12.0743-.179.1758-.179.3047 0 .0996.027.1817.082.2461.056.0645.146.125.269.1817.123.0566.286.123.487.1992.201.0742.375.1513.521.2314.147.0781.259.1738.337.2871.08.1114.12.2549.12.4307zm-165.0437 8.9375c-.4063 0-.7285-.1387-.9668-.416-.2364-.2774-.3545-.6895-.3545-1.2364 0-.5527.1211-.9697.3633-1.2509.2422-.2832.5644-.4248.9668-.4248.1699 0 .3183.0224.4453.0674.1269.0449.2363.1054.3281.1816.0918.0742.1689.1592.2314.2549h.0352c-.0078-.0606-.0156-.1436-.0234-.249-.0078-.1055-.0118-.1915-.0118-.2579v-1.2861h.4864v4.5586h-.3926l-.0732-.457h-.0206c-.0605.0957-.1377.1826-.2314.2607-.0918.0781-.2021.1406-.3311.1875-.1269.0449-.2773.0674-.4511.0674zm.0761-.4043c.3438 0 .587-.0977.7295-.293.1426-.1953.2139-.4853.2139-.8701v-.0879c0-.4082-.0684-.7217-.2051-.9404-.1347-.2188-.3808-.3281-.7383-.3281-.2988 0-.5224.1152-.6709.3457-.1484.2285-.2226.541-.2226.9375 0 .3945.0732.6992.2197.914.1485.2149.3731.3223.6738.3223zm2.9415-2.8652v3.2109h-.4864v-3.2109zm-.2374-1.2012c.0801 0 .1485.0264.2051.0791.0586.0508.0879.1309.0879.2402 0 .1074-.0293.1875-.0879.2403-.0566.0527-.125.0791-.2051.0791-.0839 0-.1543-.0264-.2109-.0791-.0547-.0528-.082-.1329-.082-.2403 0-.1093.0273-.1894.082-.2402.0566-.0527.127-.0791.2109-.0791zm2.5547 4.4707c-.289 0-.5439-.0596-.7646-.1787-.2207-.1192-.3926-.3008-.5156-.5449-.1231-.2442-.1846-.5518-.1846-.9229 0-.3887.0644-.706.1934-.9521.1308-.2481.3105-.4317.539-.5508.2285-.1192.4883-.1787.7793-.1787.1602 0 .3145.0166.4629.0498.1504.0312.2734.0713.3691.1201l-.1464.4072c-.0977-.039-.211-.0742-.3399-.1055-.1269-.0312-.2461-.0468-.3574-.0468-.2227 0-.4082.0478-.5566.1435-.1465.0957-.2569.2364-.3311.4219-.0723.1855-.1084.4141-.1084.6855 0 .2598.0352.4815.1055.6651.0722.1836.1787.3242.3193.4219.1426.0957.3203.1435.5332.1435.1699 0 .3232-.0176.46-.0527.1367-.0371.2607-.0801.372-.1289v.4336c-.1074.0547-.2275.0967-.3603.1259-.1309.0293-.2871.044-.4688.044zm2.628-.3984c.08 0 .1621-.0069.2461-.0206.0839-.0136.1523-.0302.205-.0498v.378c-.0566.0254-.1357.0468-.2373.0644-.0996.0176-.1972.0264-.2929.0264-.17 0-.3243-.0293-.4629-.0879-.1387-.0605-.25-.1621-.334-.3047-.082-.1426-.1231-.3398-.1231-.5918v-1.9043h-.457v-.2373l.46-.1904.1933-.6973h.293v.7442h.9404v.3808h-.9404v1.8897c0 .2011.0459.3515.1377.4511.0937.0997.2178.1495.3721.1495zm3.7529-2.8711v3.2109h-.3984l-.0704-.4512h-.0263c-.0664.1114-.1524.2051-.2578.2813-.1055.0761-.2246.1328-.3575.1699-.1308.0391-.2705.0586-.4189.0586-.2539 0-.4668-.041-.6387-.1231-.1719-.082-.3017-.2089-.3896-.3808-.086-.1719-.1289-.3926-.1289-.6621v-2.1035h.4922v2.0683c0 .2676.0605.4678.1816.6006.1211.1309.3057.1963.5537.1963.2383 0 .4277-.0449.5684-.1348.1425-.0898.2451-.2216.3076-.3955.0625-.1758.0937-.3906.0937-.6445v-1.6904zm4.5146-.0586c.3536 0 .6202.0927.7998.2783.1797.1836.2696.4795.2696.8877v2.1035h-.4805v-2.0801c0-.2597-.0566-.4541-.1699-.583-.1113-.1308-.2774-.1963-.4981-.1963-.3105 0-.5361.0899-.6767.2696-.1406.1796-.211.4443-.211.7939v1.7959h-.4834v-2.0801c0-.1738-.0253-.3183-.0761-.4336-.0489-.1152-.1231-.2011-.2227-.2578-.0976-.0586-.2217-.0879-.3721-.0879-.2128 0-.3837.044-.5126.1319-.129.0879-.2227.2187-.2813.3925-.0566.1719-.085.3838-.085.6358v1.6992h-.4863v-3.2109h.3926l.0732.4541h.0264c.0645-.1114.1455-.2051.2432-.2813.0976-.0762.207-.1338.3281-.1728.1211-.0391.25-.0586.3867-.0586.2442 0 .4483.0459.6123.1377.166.0898.2861.2275.3604.413h.0263c.1055-.1855.25-.3232.4336-.413.1836-.0918.3848-.1377.6035-.1377zm1.9952 2.9648c0-.1367.0332-.2334.0996-.29.0664-.0586.1474-.0879.2431-.0879.0996 0 .1836.0293.252.0879.0683.0566.1025.1533.1025.29 0 .1348-.0342.2334-.1025.2959-.0684.0606-.1524.0908-.252.0908-.0957 0-.1767-.0302-.2431-.0908-.0664-.0625-.0996-.1611-.0996-.2959zm5.9677.3047-.5273-1.3594h-1.7168l-.5244 1.3594h-.5039l1.6758-4.3008h.4482l1.6641 4.3008zm-.6767-1.8018-.501-1.3505c-.0117-.0352-.0313-.0928-.0586-.1729-.0254-.0801-.0518-.1631-.0791-.249-.0273-.086-.0498-.1553-.0674-.208-.0195.0801-.041.1601-.0644.2402-.0215.0781-.043.1514-.0645.2197-.0215.0664-.04.1231-.0557.17l-.5097 1.3505zm2.9502-1.4677c.2734 0 .5078.0605.7031.1816s.3447.291.4482.5098c.1036.2168.1553.4707.1553.7617v.3018h-2.2178c.0059.3769.0996.664.2813.8613.1816.1972.4375.2959.7676.2959.2031 0 .3828-.0186.539-.0557.1563-.0371.3184-.0918.4864-.164v.4277c-.1622.0723-.3233.125-.4834.1582-.1582.0332-.3457.0498-.5625.0498-.3086 0-.5782-.0625-.8086-.1875-.2286-.127-.4063-.3125-.5332-.5566-.127-.2442-.1905-.543-.1905-.8965 0-.3457.0576-.6446.1729-.8965.1172-.2539.2812-.4492.4922-.586.2129-.1367.4629-.205.75-.205zm-.0059.3984c-.2598 0-.4668.085-.6211.2549s-.2461.4072-.2754.7119h1.6992c-.0019-.1914-.0322-.3594-.0908-.5039-.0566-.1465-.1435-.2598-.2607-.3398-.1172-.0821-.2676-.1231-.4512-.1231zm3.6592-.3984c.3808 0 .6689.0937.8642.2812.1954.1856.293.4844.293.8965v2.0918h-.4805v-2.0596c0-.2675-.0615-.4677-.1845-.6006-.1211-.1328-.3076-.1992-.5596-.1992-.3555 0-.6055.1006-.75.3018s-.2168.4931-.2168.876v1.6816h-.4863v-3.2109h.3926l.0732.4629h.0264c.0683-.1133.1552-.2081.2607-.2842.1055-.0782.2236-.1367.3545-.1758.1309-.041.2686-.0615.4131-.0615zm3.3955 0c.2734 0 .5078.0605.7031.1816s.3448.291.4483.5098c.1035.2168.1552.4707.1552.7617v.3018h-2.2177c.0058.3769.0996.664.2812.8613.1817.1972.4375.2959.7676.2959.2031 0 .3828-.0186.5391-.0557.1562-.0371.3183-.0918.4863-.164v.4277c-.1621.0723-.3233.125-.4834.1582-.1582.0332-.3457.0498-.5625.0498-.3086 0-.5781-.0625-.8086-.1875-.2285-.127-.4063-.3125-.5332-.5566-.127-.2442-.1904-.543-.1904-.8965 0-.3457.0576-.6446.1728-.8965.1172-.2539.2813-.4492.4922-.586.2129-.1367.4629-.205.75-.205zm-.0059.3984c-.2597 0-.4668.085-.6211.2549s-.246.4072-.2753.7119h1.6992c-.002-.1914-.0323-.3594-.0908-.5039-.0567-.1465-.1436-.2598-.2608-.3398-.1172-.0821-.2676-.1231-.4512-.1231zm3.3399-.3926c.3828 0 .667.086.8525.2578.1856.1719.2783.4463.2783.8233v2.1826h-.3545l-.0937-.4746h-.0234c-.0899.1172-.1836.2158-.2813.2959-.0976.0781-.2109.1377-.3398.1787-.127.0391-.2832.0586-.4688.0586-.1953 0-.3691-.0342-.5215-.1025-.1504-.0684-.2695-.1719-.3574-.3106-.0859-.1387-.1289-.3144-.1289-.5273 0-.3203.127-.5664.3809-.7383s.6406-.2656 1.1601-.2813l.5537-.0234v-.1963c0-.2773-.0595-.4717-.1787-.583-.1191-.1113-.2871-.167-.5039-.167-.168 0-.3281.0244-.4805.0732-.1523.0489-.2968.1065-.4335.1729l-.1495-.3691c.1446-.0743.3106-.1377.4981-.1905.1875-.0527.3848-.0791.5918-.0791zm.6504 1.6817-.4893.0205c-.4004.0156-.6826.081-.8467.1963-.164.1152-.2461.2783-.2461.4892 0 .1836.0557.3194.167.4072.1114.0879.2588.1319.4424.1319.2852 0 .5186-.0791.7002-.2373.1817-.1582.2725-.3955.2725-.7119zm3.0029-1.6875c.3809 0 .6689.0937.8643.2812.1953.1856.2929.4844.2929.8965v2.0918h-.4804v-2.0596c0-.2675-.0616-.4677-.1846-.6006-.1211-.1328-.3076-.1992-.5596-.1992-.3554 0-.6054.1006-.75.3018-.1445.2012-.2168.4931-.2168.876v1.6816h-.4863v-3.2109h.3926l.0732.4629h.0264c.0683-.1133.1553-.2081.2607-.2842.1055-.0782.2237-.1367.3545-.1758.1309-.041.2686-.0615.4131-.0615zm4.9541 0c.2734 0 .5078.0605.7031.1816s.3448.291.4483.5098c.1035.2168.1552.4707.1552.7617v.3018h-2.2177c.0058.3769.0996.664.2812.8613.1817.1972.4375.2959.7676.2959.2031 0 .3828-.0186.5391-.0557.1562-.0371.3183-.0918.4863-.164v.4277c-.1621.0723-.3233.125-.4834.1582-.1582.0332-.3457.0498-.5625.0498-.3086 0-.5781-.0625-.8086-.1875-.2285-.127-.4063-.3125-.5332-.5566-.127-.2442-.1904-.543-.1904-.8965 0-.3457.0576-.6446.1728-.8965.1172-.2539.2813-.4492.4922-.586.2129-.1367.4629-.205.75-.205zm-.0059.3984c-.2597 0-.4668.085-.621.2549-.1543.1699-.2461.4072-.2754.7119h1.6992c-.002-.1914-.0322-.3594-.0908-.5039-.0567-.1465-.1436-.2598-.2608-.3398-.1172-.0821-.2676-.1231-.4512-.1231zm3.5684.041h-.7998v2.8301h-.4863v-2.8301h-.5684v-.2344l.5684-.1611v-.2139c0-.2695.04-.4882.1201-.6562.0801-.1699.1963-.2949.3486-.375.1524-.0801.3379-.1201.5567-.1201.123 0 .2353.0107.3369.0322.1035.0215.1943.0459.2724.0732l-.1259.3838c-.0664-.0214-.1416-.041-.2256-.0586-.0821-.0195-.166-.0293-.252-.0293-.1855 0-.3232.0606-.4131.1817-.0879.1191-.1318.3066-.1318.5625v.2344h.7998zm2.0186 0h-.7998v2.8301h-.4864v-2.8301h-.5683v-.2344l.5683-.1611v-.2139c0-.2695.0401-.4882.1201-.6562.0801-.1699.1963-.2949.3487-.375.1523-.0801.3379-.1201.5566-.1201.1231 0 .2354.0107.3369.0322.1035.0215.1944.0459.2725.0732l-.126.3838c-.0664-.0214-.1416-.041-.2256-.0586-.082-.0195-.166-.0293-.2519-.0293-.1856 0-.3233.0606-.4131.1817-.0879.1191-.1318.3066-.1318.5625v.2344h.7998zm1.0752-.3808v3.2109h-.4864v-3.2109zm-.2374-1.2012c.0801 0 .1485.0264.2051.0791.0586.0508.0879.1309.0879.2402 0 .1074-.0293.1875-.0879.2403-.0566.0527-.125.0791-.2051.0791-.0839 0-.1542-.0264-.2109-.0791-.0547-.0528-.082-.1329-.082-.2403 0-.1093.0273-.1894.082-.2402.0567-.0527.127-.0791.2109-.0791zm2.5489 4.4707c-.2891 0-.544-.0596-.7647-.1787-.2207-.1192-.3925-.3008-.5156-.5449-.123-.2442-.1846-.5518-.1846-.9229 0-.3887.0645-.706.1934-.9521.1309-.2481.3105-.4317.5391-.5508.2285-.1192.4882-.1787.7793-.1787.1601 0 .3144.0166.4628.0498.1504.0312.2735.0713.3692.1201l-.1465.4072c-.0977-.039-.2109-.0742-.3398-.1055-.127-.0312-.2461-.0468-.3575-.0468-.2226 0-.4082.0478-.5566.1435-.1465.0957-.2568.2364-.3311.4219-.0722.1855-.1084.4141-.1084.6855 0 .2598.0352.4815.1055.6651.0723.1836.1787.3242.3193.4219.1426.0957.3204.1435.5332.1435.17 0 .3233-.0176.46-.0527.1367-.0371.2608-.0801.3721-.1289v.4336c-.1074.0547-.2276.0967-.3604.1259-.1308.0293-.2871.044-.4687.044zm2.0771-3.2695v3.2109h-.4863v-3.2109zm-.2373-1.2012c.0801 0 .1485.0264.2051.0791.0586.0508.0879.1309.0879.2402 0 .1074-.0293.1875-.0879.2403-.0566.0527-.125.0791-.2051.0791-.084 0-.1543-.0264-.2109-.0791-.0547-.0528-.082-.1329-.082-.2403 0-.1093.0273-.1894.082-.2402.0566-.0527.1269-.0791.2109-.0791zm2.3057 4.0723c.0801 0 .1621-.0069.2461-.0206.084-.0136.1523-.0302.2051-.0498v.378c-.0567.0254-.1358.0468-.2373.0644-.0997.0176-.1973.0264-.293.0264-.1699 0-.3242-.0293-.4629-.0879-.1387-.0605-.25-.1621-.334-.3047-.082-.1426-.123-.3398-.123-.5918v-1.9043h-.4571v-.2373l.46-.1904.1934-.6973h.2929v.7442h.9404v.3808h-.9404v1.8897c0 .2011.0459.3515.1377.4511.0938.0997.2178.1495.3721.1495zm3.7529-2.8711v3.2109h-.3984l-.0703-.4512h-.0264c-.0664.1114-.1523.2051-.2578.2813-.1055.0761-.2246.1328-.3574.1699-.1309.0391-.2705.0586-.419.0586-.2539 0-.4668-.041-.6387-.1231-.1718-.082-.3017-.2089-.3896-.3808-.0859-.1719-.1289-.3926-.1289-.6621v-2.1035h.4922v2.0683c0 .2676.0605.4678.1816.6006.1211.1309.3057.1963.5537.1963.2383 0 .4278-.0449.5684-.1348.1426-.0898.2451-.2216.3076-.3955.0625-.1758.0938-.3906.0938-.6445v-1.6904zm2.4873-.0586c.0645 0 .1319.0039.2022.0117.0703.0058.1328.0146.1875.0264l-.0616.4511c-.0527-.0136-.1113-.0244-.1757-.0322-.0645-.0078-.125-.0117-.1817-.0117-.1289 0-.251.0263-.3662.0791-.1133.0508-.2129.125-.2988.2226-.086.0957-.1533.212-.2022.3487-.0488.1347-.0732.2851-.0732.4511v1.7227h-.4893v-3.2109h.4043l.0528.5918h.0205c.0664-.1192.1465-.2276.2402-.3252.0938-.0996.2022-.1787.3252-.2373.125-.0586.2637-.0879.416-.0879zm3.2608 3.2695-1.2188-3.2109h.5215l.7061 1.9423c.0488.1329.0986.2793.1494.4395.0507.1602.0859.2891.1054.3867h.0205c.0235-.0976.0625-.2265.1172-.3867.0547-.1621.1045-.3086.1494-.4395l.7061-1.9423h.5215l-1.2217 3.2109zm3.5302-3.2695c.2735 0 .5078.0605.7032.1816.1953.1211.3447.291.4482.5098.1035.2168.1553.4707.1553.7617v.3018h-2.2178c.0059.3769.0996.664.2813.8613.1816.1972.4375.2959.7675.2959.2032 0 .3828-.0186.5391-.0557.1562-.0371.3184-.0918.4863-.164v.4277c-.1621.0723-.3232.125-.4834.1582-.1582.0332-.3457.0498-.5625.0498-.3086 0-.5781-.0625-.8086-.1875-.2285-.127-.4062-.3125-.5332-.5566-.1269-.2442-.1904-.543-.1904-.8965 0-.3457.0576-.6446.1728-.8965.1172-.2539.2813-.4492.4922-.586.2129-.1367.4629-.205.75-.205zm-.0058.3984c-.2598 0-.4668.085-.6211.2549s-.2461.4072-.2754.7119h1.6992c-.0019-.1914-.0322-.3594-.0908-.5039-.0567-.1465-.1436-.2598-.2608-.3398-.1171-.0821-.2675-.1231-.4511-.1231zm4.216 1.9922c0 .2051-.052.3779-.155.5185-.102.1387-.249.2432-.44.3135-.189.0703-.416.1055-.68.1055-.2242 0-.4186-.0176-.5826-.0527-.1641-.0352-.3076-.085-.4307-.1495v-.4482c.1309.0645.2871.123.4688.1758.1816.0527.3675.0791.5565.0791.277 0 .479-.0449.604-.1348.125-.0898.187-.2119.187-.3662 0-.0879-.025-.165-.076-.2314-.049-.0684-.132-.1338-.249-.1963-.117-.0645-.279-.1348-.486-.211-.2055-.0781-.3832-.1552-.5336-.2314-.1484-.0781-.2637-.1729-.3457-.2842-.0801-.1113-.1201-.2558-.1201-.4336 0-.2715.1093-.4795.3281-.624.2207-.1465.5093-.2197.8673-.2197.193 0 .374.0195.542.0586.17.0371.328.0879.474.1523l-.164.3897c-.132-.0567-.274-.1045-.424-.1436-.151-.0391-.304-.0586-.46-.0586-.225 0-.3978.0371-.5189.1113-.1191.0743-.1787.1758-.1787.3047 0 .0996.0273.1817.082.2461.0567.0645.1465.125.2696.1817.123.0566.285.123.486.1992.201.0742.375.1513.522.2314.146.0781.259.1738.337.2871.08.1114.12.2549.12.4307zm1.819.5391c.08 0 .162-.0069.246-.0206.084-.0136.153-.0302.205-.0498v.378c-.056.0254-.135.0468-.237.0644-.1.0176-.197.0264-.293.0264-.17 0-.324-.0293-.463-.0879-.139-.0605-.25-.1621-.334-.3047-.082-.1426-.123-.3398-.123-.5918v-1.9043h-.457v-.2373l.46-.1904.193-.6973h.293v.7442h.941v.3808h-.941v1.8897c0 .2011.046.3515.138.4511.094.0997.218.1495.372.1495zm1.588-2.8711v3.2109h-.486v-3.2109zm-.237-1.2012c.08 0 .148.0264.205.0791.058.0508.088.1309.088.2402 0 .1074-.03.1875-.088.2403-.057.0527-.125.0791-.205.0791-.084 0-.155-.0264-.211-.0791-.055-.0528-.082-.1329-.082-.2403 0-.1093.027-.1894.082-.2402.056-.0527.127-.0791.211-.0791zm1.755-.1465v1.1397c0 .1308-.004.2578-.012.3808-.006.1231-.011.2188-.015.2871h.027c.087-.1445.214-.2666.38-.3662s.378-.1494.636-.1494c.403 0 .723.1396.961.4189.24.2774.36.6905.36 1.2393 0 .3613-.054.666-.164.9141-.109.248-.263.4355-.462.5625-.2.1269-.435.1904-.707.1904-.253 0-.462-.0469-.626-.1406-.163-.0957-.288-.2119-.375-.3487h-.039l-.099.4307h-.352v-4.5586zm.937 1.6992c-.232 0-.417.0459-.554.1377-.136.0899-.235.2266-.296.4102-.058.1816-.087.4121-.087.6914v.0263c0 .4043.067.7139.202.9288.135.2129.38.3193.735.3193.299 0 .523-.1094.671-.3281.15-.2188.226-.5313.226-.9375 0-.4141-.075-.7256-.223-.9346-.147-.209-.371-.3135-.674-.3135zm4.901-.3515v3.2109h-.398l-.07-.4512h-.027c-.066.1114-.152.2051-.257.2813-.106.0761-.225.1328-.358.1699-.131.0391-.27.0586-.419.0586-.254 0-.467-.041-.639-.1231-.171-.082-.301-.2089-.389-.3808-.086-.1719-.129-.3926-.129-.6621v-2.1035h.492v2.0683c0 .2676.061.4678.182.6006.121.1309.305.1963.553.1963.239 0 .428-.0449.569-.1348.142-.0898.245-.2216.307-.3955.063-.1758.094-.3906.094-.6445v-1.6904zm1.518 3.2109h-.489v-4.5586h.489zm3.68-3.2109v3.2109h-.399l-.07-.4512h-.026c-.067.1114-.153.2051-.258.2813-.106.0761-.225.1328-.358.1699-.13.0391-.27.0586-.419.0586-.253 0-.466-.041-.638-.1231-.172-.082-.302-.2089-.39-.3808-.086-.1719-.129-.3926-.129-.6621v-2.1035h.492v2.0683c0 .2676.061.4678.182.6006.121.1309.306.1963.554.1963.238 0 .427-.0449.568-.1348.143-.0898.245-.2216.308-.3955.062-.1758.093-.3906.093-.6445v-1.6904zm4.514-.0586c.354 0 .62.0927.8.2783.18.1836.27.4795.27.8877v2.1035h-.481v-2.0801c0-.2597-.056-.4541-.17-.583-.111-.1308-.277-.1963-.498-.1963-.31 0-.536.0899-.676.2696-.141.1796-.211.4443-.211.7939v1.7959h-.484v-2.0801c0-.1738-.025-.3183-.076-.4336-.049-.1152-.123-.2011-.223-.2578-.097-.0586-.221-.0879-.372-.0879-.213 0-.383.044-.512.1319s-.223.2187-.282.3925c-.056.1719-.085.3838-.085.6358v1.6992h-.486v-3.2109h.393l.073.4541h.026c.065-.1114.146-.2051.243-.2813.098-.0762.207-.1338.329-.1728.121-.0391.25-.0586.386-.0586.244 0 .448.0459.613.1377.166.0898.286.2275.36.413h.026c.106-.1855.25-.3232.434-.413.183-.0918.385-.1377.603-.1377zm7.114 0c.353 0 .62.0927.799.2783.18.1836.27.4795.27.8877v2.1035h-.48v-2.0801c0-.2597-.057-.4541-.17-.583-.112-.1308-.278-.1963-.498-.1963-.311 0-.537.0899-.677.2696-.141.1796-.211.4443-.211.7939v1.7959h-.484v-2.0801c0-.1738-.025-.3183-.076-.4336-.049-.1152-.123-.2011-.222-.2578-.098-.0586-.222-.0879-.372-.0879-.213 0-.384.044-.513.1319s-.223.2187-.281.3925c-.057.1719-.085.3838-.085.6358v1.6992h-.487v-3.2109h.393l.073.4541h.027c.064-.1114.145-.2051.243-.2813.097-.0762.207-.1338.328-.1728.121-.0391.25-.0586.387-.0586.244 0 .448.0459.612.1377.166.0898.286.2275.36.413h.027c.105-.1855.25-.3232.433-.413.184-.0918.385-.1377.604-.1377zm3.269.0058c.383 0 .667.086.853.2578.185.1719.278.4463.278.8233v2.1826h-.354l-.094-.4746h-.024c-.089.1172-.183.2158-.281.2959-.098.0781-.211.1377-.34.1787-.127.0391-.283.0586-.468.0586-.196 0-.37-.0342-.522-.1025-.15-.0684-.269-.1719-.357-.3106-.086-.1387-.129-.3144-.129-.5273 0-.3203.127-.5664.381-.7383.253-.1719.64-.2656 1.16-.2813l.553-.0234v-.1963c0-.2773-.059-.4717-.178-.583s-.287-.167-.504-.167c-.168 0-.328.0244-.481.0732-.152.0489-.297.1065-.433.1729l-.15-.3691c.145-.0743.311-.1377.498-.1905.188-.0527.385-.0791.592-.0791zm.651 1.6817-.49.0205c-.4.0156-.682.081-.846.1963-.164.1152-.246.2783-.246.4892 0 .1836.055.3194.167.4072.111.0879.258.1319.442.1319.285 0 .518-.0791.7-.2373s.273-.3955.273-.7119zm2.378 3.0234c-.421 0-.747-.0791-.975-.2373-.229-.1562-.343-.376-.343-.6592 0-.2011.064-.373.191-.5156.128-.1426.306-.2373.533-.2842-.084-.039-.156-.0976-.217-.1758-.059-.0781-.088-.1679-.088-.2695 0-.1172.032-.2197.097-.3076.066-.0899.167-.1758.302-.2578-.168-.0684-.305-.1836-.411-.3457-.103-.1641-.155-.3545-.155-.5713 0-.2305.048-.4268.144-.5889.095-.164.234-.289.416-.375.181-.0859.401-.1289.659-.1289.056 0 .113.0029.17.0088.058.0039.114.0107.167.0205.052.0078.098.0176.137.0293h1.102v.3135l-.592.0732c.059.0762.108.168.147.2754s.058.2266.058.3574c0 .3203-.108.5752-.325.7647-.217.1875-.515.2812-.893.2812-.09 0-.182-.0078-.276-.0234-.096.0527-.169.1113-.22.1758-.048.0644-.073.1386-.073.2226 0 .0625.019.1123.056.1494.039.0372.095.0645.167.0821.072.0156.159.0234.261.0234h.565c.35 0 .617.0733.803.2197.187.1465.281.3604.281.6416 0 .3555-.145.628-.434.8174-.289.1895-.707.2842-1.254.2842zm.015-.3809c.266 0 .485-.0273.659-.082.176-.0527.307-.1299.393-.2314.088-.0996.132-.2188.132-.3575 0-.1289-.03-.2265-.088-.2929-.059-.0645-.145-.1074-.258-.1289-.113-.0235-.252-.0352-.416-.0352h-.557c-.144 0-.27.0225-.378.0674-.107.0449-.19.1113-.249.1992-.056.0879-.085.1973-.085.3281 0 .1739.074.3057.22.3956.147.0917.356.1376.627.1376zm.126-2.5664c.233 0 .407-.0586.525-.1757.117-.1172.175-.2881.175-.5127 0-.2403-.059-.42-.178-.5391-.12-.1211-.295-.1816-.528-.1816-.222 0-.394.0625-.515.1875-.12.123-.179.3037-.179.542 0 .2187.06.3867.182.5039.121.1171.294.1757.518.1757zm3.741-1.7636c.381 0 .669.0937.865.2812.195.1856.293.4844.293.8965v2.0918h-.481v-2.0596c0-.2675-.061-.4677-.184-.6006-.122-.1328-.308-.1992-.56-.1992-.356 0-.606.1006-.75.3018-.145.2012-.217.4931-.217.876v1.6816h-.486v-3.2109h.392l.074.4629h.026c.068-.1133.155-.2081.261-.2842.105-.0782.223-.1367.354-.1758.131-.041.269-.0615.413-.0615zm3.361.0058c.382 0 .667.086.852.2578.186.1719.279.4463.279.8233v2.1826h-.355l-.094-.4746h-.023c-.09.1172-.184.2158-.281.2959-.098.0781-.211.1377-.34.1787-.127.0391-.283.0586-.469.0586-.195 0-.369-.0342-.521-.1025-.151-.0684-.27-.1719-.358-.3106-.086-.1387-.129-.3144-.129-.5273 0-.3203.127-.5664.381-.7383s.641-.2656 1.16-.2813l.554-.0234v-.1963c0-.2773-.06-.4717-.179-.583s-.287-.167-.504-.167c-.168 0-.328.0244-.48.0732-.152.0489-.297.1065-.434.1729l-.149-.3691c.144-.0743.31-.1377.498-.1905.187-.0527.385-.0791.592-.0791zm.65 1.6817-.489.0205c-.401.0156-.683.081-.847.1963-.164.1152-.246.2783-.246.4892 0 .1836.056.3194.167.4072.111.0879.259.1319.442.1319.286 0 .519-.0791.701-.2373.181-.1582.272-.3955.272-.7119zm2.039.8847.038.0674c-.035.1426-.08.2949-.135.457-.052.1622-.111.3243-.175.4864-.063.164-.126.3174-.191.4599h-.363c.041-.1562.081-.3213.12-.4951.039-.1719.074-.3418.106-.5097.033-.17.059-.3252.079-.4659zm3.791-2.5722c.274 0 .508.0605.703.1816.196.1211.345.291.449.5098.103.2168.155.4707.155.7617v.3018h-2.218c.006.3769.1.664.281.8613.182.1972.438.2959.768.2959.203 0 .383-.0186.539-.0557s.318-.0918.486-.164v.4277c-.162.0723-.323.125-.483.1582-.158.0332-.346.0498-.563.0498-.308 0-.578-.0625-.808-.1875-.229-.127-.407-.3125-.533-.5566-.127-.2442-.191-.543-.191-.8965 0-.3457.058-.6446.173-.8965.117-.2539.281-.4492.492-.586.213-.1367.463-.205.75-.205zm-.006.3984c-.259 0-.467.085-.621.2549s-.246.4072-.275.7119h1.699c-.002-.1914-.032-.3594-.091-.5039-.056-.1465-.143-.2598-.261-.3398-.117-.0821-.267-.1231-.451-.1231zm3.176 2.5313c.08 0 .162-.0069.246-.0206.084-.0136.153-.0302.205-.0498v.378c-.056.0254-.136.0468-.237.0644-.1.0176-.197.0264-.293.0264-.17 0-.324-.0293-.463-.0879-.139-.0605-.25-.1621-.334-.3047-.082-.1426-.123-.3398-.123-.5918v-1.9043h-.457v-.2373l.46-.1904.193-.6973h.293v.7442h.941v.3808h-.941v1.8897c0 .2011.046.3515.138.4511.094.0997.218.1495.372.1495zm4.09-2.4903h-.8v2.8301h-.486v-2.8301h-.569v-.2344l.569-.1611v-.2139c0-.2695.04-.4882.12-.6562.08-.1699.196-.2949.349-.375.152-.0801.337-.1201.556-.1201.123 0 .236.0107.337.0322.104.0215.194.0459.273.0732l-.126.3838c-.067-.0214-.142-.041-.226-.0586-.082-.0195-.166-.0293-.252-.0293-.186 0-.323.0606-.413.1817-.088.1191-.132.3066-.132.5625v.2344h.8zm1.828-.4394c.273 0 .508.0605.703.1816s.345.291.448.5098c.104.2168.156.4707.156.7617v.3018h-2.218c.006.3769.1.664.281.8613.182.1972.438.2959.768.2959.203 0 .383-.0186.539-.0557s.318-.0918.486-.164v.4277c-.162.0723-.323.125-.483.1582-.158.0332-.346.0498-.563.0498-.308 0-.578-.0625-.808-.1875-.229-.127-.407-.3125-.534-.5566-.127-.2442-.19-.543-.19-.8965 0-.3457.058-.6446.173-.8965.117-.2539.281-.4492.492-.586.213-.1367.463-.205.75-.205zm-.006.3984c-.26 0-.467.085-.621.2549s-.246.4072-.275.7119h1.699c-.002-.1914-.032-.3594-.091-.5039-.057-.1465-.143-.2598-.261-.3398-.117-.0821-.267-.1231-.451-.1231zm3.598-.3984c.064 0 .132.0039.202.0117.07.0058.133.0146.187.0264l-.061.4511c-.053-.0136-.111-.0244-.176-.0322-.064-.0078-.125-.0117-.181-.0117-.129 0-.251.0263-.367.0791-.113.0508-.213.125-.299.2226-.085.0957-.153.212-.202.3487-.048.1347-.073.2851-.073.4511v1.7227h-.489v-3.2109h.404l.053.5918h.02c.067-.1192.147-.2276.241-.3252.093-.0996.202-.1787.325-.2373.125-.0586.263-.0879.416-.0879zm4.482 0c.354 0 .62.0927.8.2783.18.1836.27.4795.27.8877v2.1035h-.481v-2.0801c0-.2597-.057-.4541-.17-.583-.111-.1308-.277-.1963-.498-.1963-.31 0-.536.0899-.677.2696-.14.1796-.211.4443-.211.7939v1.7959h-.483v-2.0801c0-.1738-.025-.3183-.076-.4336-.049-.1152-.123-.2011-.223-.2578-.097-.0586-.221-.0879-.372-.0879-.213 0-.384.044-.513.1319-.128.0879-.222.2187-.281.3925-.056.1719-.085.3838-.085.6358v1.6992h-.486v-3.2109h.393l.073.4541h.026c.065-.1114.146-.2051.243-.2813.098-.0762.207-.1338.328-.1728.122-.0391.25-.0586.387-.0586.244 0 .448.0459.612.1377.166.0898.287.2275.361.413h.026c.106-.1855.25-.3232.434-.413.183-.0918.385-.1377.603-.1377zm3.305 0c.273 0 .508.0605.703.1816s.345.291.448.5098c.104.2168.156.4707.156.7617v.3018h-2.218c.006.3769.099.664.281.8613.182.1972.438.2959.768.2959.203 0 .382-.0186.539-.0557.156-.0371.318-.0918.486-.164v.4277c-.162.0723-.323.125-.483.1582-.159.0332-.346.0498-.563.0498-.308 0-.578-.0625-.808-.1875-.229-.127-.407-.3125-.534-.5566-.127-.2442-.19-.543-.19-.8965 0-.3457.058-.6446.173-.8965.117-.2539.281-.4492.492-.586.213-.1367.463-.205.75-.205zm-.006.3984c-.26 0-.467.085-.621.2549s-.246.4072-.275.7119h1.699c-.002-.1914-.032-.3594-.091-.5039-.057-.1465-.144-.2598-.261-.3398-.117-.0821-.267-.1231-.451-.1231zm3.659-.3984c.381 0 .669.0937.865.2812.195.1856.292.4844.292.8965v2.0918h-.48v-2.0596c0-.2675-.062-.4677-.185-.6006-.121-.1328-.307-.1992-.559-.1992-.356 0-.606.1006-.75.3018-.145.2012-.217.4931-.217.876v1.6816h-.486v-3.2109h.392l.074.4629h.026c.068-.1133.155-.2081.261-.2842.105-.0782.223-.1367.354-.1758.131-.041.269-.0615.413-.0615zm3.197 2.9297c.08 0 .162-.0069.246-.0206.084-.0136.152-.0302.205-.0498v.378c-.057.0254-.136.0468-.238.0644-.099.0176-.197.0264-.293.0264-.169 0-.324-.0293-.462-.0879-.139-.0605-.25-.1621-.334-.3047-.082-.1426-.123-.3398-.123-.5918v-1.9043h-.457v-.2373l.459-.1904.194-.6973h.293v.7442h.94v.3808h-.94v1.8897c0 .2011.046.3515.137.4511.094.0997.218.1495.373.1495zm3.752-2.8711v3.2109h-.398l-.07-.4512h-.027c-.066.1114-.152.2051-.257.2813-.106.0761-.225.1328-.358.1699-.131.0391-.27.0586-.419.0586-.254 0-.467-.041-.638-.1231-.172-.082-.302-.2089-.39-.3808-.086-.1719-.129-.3926-.129-.6621v-2.1035h.492v2.0683c0 .2676.061.4678.182.6006.121.1309.305.1963.554.1963.238 0 .427-.0449.568-.1348.142-.0898.245-.2216.307-.3955.063-.1758.094-.3906.094-.6445v-1.6904zm4.515-.0586c.354 0 .62.0927.8.2783.18.1836.269.4795.269.8877v2.1035h-.48v-2.0801c0-.2597-.057-.4541-.17-.583-.111-.1308-.277-.1963-.498-.1963-.311 0-.536.0899-.677.2696-.14.1796-.211.4443-.211.7939v1.7959h-.483v-2.0801c0-.1738-.025-.3183-.076-.4336-.049-.1152-.123-.2011-.223-.2578-.098-.0586-.222-.0879-.372-.0879-.213 0-.384.044-.513.1319s-.222.2187-.281.3925c-.057.1719-.085.3838-.085.6358v1.6992h-.486v-3.2109h.392l.074.4541h.026c.064-.1114.145-.2051.243-.2813s.207-.1338.328-.1728c.121-.0391.25-.0586.387-.0586.244 0 .448.0459.612.1377.166.0898.286.2275.361.413h.026c.105-.1855.25-.3232.434-.413.183-.0918.384-.1377.603-.1377zm4.863 0c.274 0 .508.0605.704.1816.195.1211.344.291.448.5098.103.2168.155.4707.155.7617v.3018h-2.218c.006.3769.1.664.282.8613.181.1972.437.2959.767.2959.203 0 .383-.0186.539-.0557s.319-.0918.487-.164v.4277c-.163.0723-.324.125-.484.1582-.158.0332-.346.0498-.562.0498-.309 0-.579-.0625-.809-.1875-.229-.127-.406-.3125-.533-.5566-.127-.2442-.191-.543-.191-.8965 0-.3457.058-.6446.173-.8965.117-.2539.281-.4492.492-.586.213-.1367.463-.205.75-.205zm-.005.3984c-.26 0-.467.085-.622.2549-.154.1699-.246.4072-.275.7119h1.699c-.002-.1914-.032-.3594-.091-.5039-.056-.1465-.143-.2598-.26-.3398-.117-.0821-.268-.1231-.451-.1231zm3.597-.3984c.065 0 .132.0039.202.0117.071.0058.133.0146.188.0264l-.062.4511c-.052-.0136-.111-.0244-.175-.0322-.065-.0078-.125-.0117-.182-.0117-.129 0-.251.0263-.366.0791-.114.0508-.213.125-.299.2226-.086.0957-.153.212-.202.3487-.049.1347-.074.2851-.074.4511v1.7227h-.489v-3.2109h.405l.052.5918h.021c.066-.1192.146-.2276.24-.3252.094-.0996.202-.1787.325-.2373.125-.0586.264-.0879.416-.0879zm2.197.0058c.383 0 .667.086.853.2578.186.1719.278.4463.278.8233v2.1826h-.354l-.094-.4746h-.023c-.09.1172-.184.2158-.282.2959-.097.0781-.211.1377-.339.1787-.127.0391-.284.0586-.469.0586-.195 0-.369-.0342-.522-.1025-.15-.0684-.269-.1719-.357-.3106-.086-.1387-.129-.3144-.129-.5273 0-.3203.127-.5664.381-.7383s.64-.2656 1.16-.2813l.554-.0234v-.1963c0-.2773-.06-.4717-.179-.583s-.287-.167-.504-.167c-.168 0-.328.0244-.48.0732-.153.0489-.297.1065-.434.1729l-.149-.3691c.144-.0743.31-.1377.498-.1905.187-.0527.384-.0791.591-.0791zm.651 1.6817-.489.0205c-.401.0156-.683.081-.847.1963-.164.1152-.246.2783-.246.4892 0 .1836.056.3194.167.4072.111.0879.259.1319.442.1319.285 0 .519-.0791.7-.2373.182-.1582.273-.3955.273-.7119zm2.519 1.2422c.08 0 .163-.0069.246-.0206.084-.0136.153-.0302.206-.0498v.378c-.057.0254-.136.0468-.238.0644-.099.0176-.197.0264-.293.0264-.17 0-.324-.0293-.463-.0879-.138-.0605-.25-.1621-.334-.3047-.082-.1426-.123-.3398-.123-.5918v-1.9043h-.457v-.2373l.46-.1904.194-.6973h.293v.7442h.94v.3808h-.94v1.8897c0 .2011.046.3515.137.4511.094.0997.218.1495.372.1495zm-172.9332 8c.0801 0 .1621-.0069.2461-.0206.084-.0136.1523-.0302.2051-.0498v.378c-.0567.0254-.1358.0468-.2373.0644-.0996.0176-.1973.0264-.293.0264-.1699 0-.3242-.0293-.4629-.0879-.1387-.0605-.25-.1621-.334-.3047-.082-.1426-.123-.3398-.123-.5918v-1.9043h-.457v-.2373l.4599-.1904.1934-.6973h.2929v.7442h.9405v.3808h-.9405v1.8897c0 .2011.0459.3515.1377.4511.0938.0997.2178.1495.3721.1495zm1.5879-2.8711v3.2109h-.4863v-3.2109zm-.2373-1.2012c.0801 0 .1484.0264.2051.0791.0586.0508.0879.1309.0879.2402 0 .1074-.0293.1875-.0879.2403-.0567.0527-.125.0791-.2051.0791-.084 0-.1543-.0264-.2109-.0791-.0547-.0528-.0821-.1329-.0821-.2403 0-.1093.0274-.1894.0821-.2402.0566-.0527.1269-.0791.2109-.0791zm2.7891 1.1426c.3808 0 .6689.0937.8642.2812.1953.1856.293.4844.293.8965v2.0918h-.4805v-2.0596c0-.2675-.0615-.4677-.1846-.6006-.1211-.1328-.3076-.1992-.5595-.1992-.3555 0-.6055.1006-.75.3018-.1446.2012-.2168.4931-.2168.876v1.6816h-.4864v-3.2109h.3926l.0733.4629h.0263c.0684-.1133.1553-.2081.2608-.2842.1054-.0782.2236-.1367.3545-.1758.1308-.041.2685-.0615.4131-.0615zm3.4453 3.3281c-.2891 0-.544-.0596-.7647-.1787-.2207-.1192-.3926-.3008-.5156-.5449-.1231-.2442-.1846-.5518-.1846-.9229 0-.3887.0645-.706.1934-.9521.1308-.2481.3105-.4317.539-.5508.2286-.1192.4883-.1787.7793-.1787.1602 0 .3145.0166.4629.0498.1504.0312.2735.0713.3692.1201l-.1465.4072c-.0977-.039-.211-.0742-.3399-.1055-.1269-.0312-.2461-.0468-.3574-.0468-.2226 0-.4082.0478-.5566.1435-.1465.0957-.2569.2364-.3311.4219-.0722.1855-.1084.4141-.1084.6855 0 .2598.0352.4815.1055.6651.0723.1836.1787.3242.3193.4219.1426.0957.3203.1435.5332.1435.17 0 .3233-.0176.46-.0527.1367-.0371.2607-.0801.3721-.1289v.4336c-.1075.0547-.2276.0967-.3604.1259-.1308.0293-.2871.044-.4687.044zm2.0771-3.2695v3.2109h-.4863v-3.2109zm-.2373-1.2012c.0801 0 .1484.0264.2051.0791.0586.0508.0879.1309.0879.2402 0 .1074-.0293.1875-.0879.2403-.0567.0527-.125.0791-.2051.0791-.084 0-.1543-.0264-.2109-.0791-.0547-.0528-.0821-.1329-.0821-.2403 0-.1093.0274-.1894.0821-.2402.0566-.0527.1269-.0791.2109-.0791zm2.4111 4.4707c-.4062 0-.7285-.1387-.9668-.416-.2363-.2774-.3544-.6895-.3544-1.2364 0-.5527.121-.9697.3632-1.2509.2422-.2832.5645-.4248.9668-.4248.17 0 .3184.0224.4453.0674.127.0449.2364.1054.3282.1816.0918.0742.1689.1592.2314.2549h.0352c-.0078-.0606-.0157-.1436-.0235-.249-.0078-.1055-.0117-.1915-.0117-.2579v-1.2861h.4863v4.5586h-.3925l-.0733-.457h-.0205c-.0605.0957-.1377.1826-.2314.2607-.0918.0781-.2022.1406-.3311.1875-.1269.0449-.2773.0674-.4512.0674zm.0762-.4043c.3438 0 .5869-.0977.7295-.293s.2139-.4853.2139-.8701v-.0879c0-.4082-.0684-.7217-.2051-.9404-.1348-.2188-.3809-.3281-.7383-.3281-.2988 0-.5224.1152-.6709.3457-.1484.2285-.2226.541-.2226.9375 0 .3945.0732.6992.2197.914.1484.2149.373.3223.6738.3223zm5.1065-2.8652v3.2109h-.3985l-.0703-.4512h-.0264c-.0664.1114-.1523.2051-.2578.2813-.1054.0761-.2246.1328-.3574.1699-.1309.0391-.2705.0586-.4189.0586-.2539 0-.4668-.041-.6387-.1231-.1719-.082-.3018-.2089-.3897-.3808-.0859-.1719-.1289-.3926-.1289-.6621v-2.1035h.4922v2.0683c0 .2676.0606.4678.1817.6006.1211.1309.3056.1963.5537.1963.2383 0 .4277-.0449.5683-.1348.1426-.0898.2452-.2216.3077-.3955.0625-.1758.0937-.3906.0937-.6445v-1.6904zm2.5488-.0586c.3808 0 .6689.0937.8642.2812.1954.1856.293.4844.293.8965v2.0918h-.4805v-2.0596c0-.2675-.0615-.4677-.1845-.6006-.1211-.1328-.3076-.1992-.5596-.1992-.3555 0-.6055.1006-.75.3018s-.2168.4931-.2168.876v1.6816h-.4863v-3.2109h.3926l.0732.4629h.0264c.0683-.1133.1552-.2081.2607-.2842.1055-.0782.2236-.1367.3545-.1758.1309-.041.2686-.0615.4131-.0615zm3.1963 2.9297c.0801 0 .1621-.0069.2461-.0206.084-.0136.1523-.0302.205-.0498v.378c-.0566.0254-.1357.0468-.2373.0644-.0996.0176-.1972.0264-.2929.0264-.1699 0-.3242-.0293-.4629-.0879-.1387-.0605-.25-.1621-.334-.3047-.082-.1426-.123-.3398-.123-.5918v-1.9043h-.4571v-.2373l.46-.1904.1933-.6973h.293v.7442h.9404v.3808h-.9404v1.8897c0 .2011.0459.3515.1377.4511.0938.0997.2178.1495.3721.1495zm1.0283.0351c0-.1367.0332-.2334.0996-.29.0664-.0586.1475-.0879.2432-.0879.0996 0 .1836.0293.2519.0879.0684.0566.1026.1533.1026.29 0 .1348-.0342.2334-.1026.2959-.0683.0606-.1523.0908-.2519.0908-.0957 0-.1768-.0302-.2432-.0908-.0664-.0625-.0996-.1611-.0996-.2959z" fill="#f1f1f6"/><path d="m27.6523 34h-1.5136v-5.8789h-1.9385v-1.2598h5.3906v1.2598h-1.9385zm7.959 0h-1.4892v-3.1885c0-.7877-.293-1.1816-.8789-1.1816-.4167 0-.7178.1416-.9034.4248-.1855.2832-.2783.7422-.2783 1.3769v2.5684h-1.4892v-7.5977h1.4892v1.5479c0 .1204-.0114.4036-.0342.8496l-.0341.4395h.0781c.332-.5339.8594-.8008 1.582-.8008.6413 0 1.1279.1725 1.46.5176.332.345.498.8398.498 1.4843zm1.4698-6.8701c0-.485.2701-.7276.8105-.7276s.8105.2426.8105.7276c0 .2311-.0683.4118-.205.542-.1335.1269-.3353.1904-.6055.1904-.5404 0-.8105-.2441-.8105-.7324zm1.5527 6.8701h-1.4893v-5.459h1.4893zm5.376-1.6211c0 .5599-.1953.9863-.586 1.2793-.3873.293-.9684.4395-1.7431.4395-.3972 0-.7357-.0277-1.0157-.0831-.2799-.052-.542-.1302-.7861-.2343v-1.2305c.2767.1302.5876.2393.9326.3272.3483.0878.6543.1318.918.1318.5404 0 .8105-.1563.8105-.4688 0-.1171-.0358-.2115-.1074-.2832-.0716-.0748-.1953-.1578-.3711-.249-.1758-.0944-.4101-.2034-.7031-.3271-.4199-.1758-.7292-.3386-.9277-.4883-.1953-.1498-.3386-.3207-.4297-.5127-.0879-.1953-.1319-.4346-.1319-.7178 0-.485.1872-.8594.5616-1.123.3776-.267.9114-.4004 1.6015-.4004.6576 0 1.2972.1432 1.919.4297l-.4492 1.0742c-.2735-.1172-.529-.2132-.7666-.2881-.2377-.0749-.4802-.1123-.7276-.1123-.4394 0-.6592.1188-.6592.3564 0 .1335.07.2491.21.3467.1432.0977.4541.2425.9326.4346.4264.1725.7389.3336.9375.4834.1986.1497.3451.3223.4395.5176s.1416.428.1416.6982zm5.3906-2.3486h.4883c.4785 0 .8317-.0798 1.0595-.2393.2279-.1595.3418-.4101.3418-.7519 0-.3386-.1171-.5795-.3515-.7227-.2311-.1432-.5908-.2148-1.0791-.2148h-.459zm0 1.2304v2.7393h-1.5137v-7.1387h2.0801c.97 0 1.6878.1774 2.1533.5323.4655.3515.6983.887.6983 1.6064 0 .4199-.1156.7943-.3467 1.123-.2311.3256-.5583.5811-.9815.7666 1.0743 1.6049 1.7741 2.6416 2.0996 3.1104h-1.6796l-1.7041-2.7393zm7.2314-1.7627c-.3157 0-.5631.101-.7422.3028-.179.1985-.2815.4818-.3076.8496h2.0899c-.0065-.3678-.1026-.6511-.2881-.8496-.1856-.2018-.4362-.3028-.752-.3028zm.21 4.5997c-.8789 0-1.5658-.2426-2.0606-.7276-.4947-.485-.7421-1.1719-.7421-2.0605 0-.9147.2278-1.6211.6836-2.1192.4589-.5013 1.0921-.7519 1.8994-.7519.7715 0 1.372.2197 1.8017.6592.4297.4394.6446 1.0465.6446 1.8212v.7227h-3.5205c.0162.4232.1416.7536.3759.9912.2344.2376.5632.3565.9864.3565.3287 0 .6396-.0342.9326-.1026.2929-.0683.5989-.1774.9179-.3271v1.1523c-.2604.1302-.5387.2263-.8349.2881-.2962.0651-.6576.0977-1.084.0977zm6.4355 0c-.6412 0-1.1442-.2328-1.5087-.6983h-.0782c.0521.4557.0782.7194.0782.791v2.2119h-1.4893v-7.8613h1.2109l.21.708h.0684c.3483-.5403.8642-.8105 1.5478-.8105.6445 0 1.1491.249 1.5137.747.3646.4981.5469 1.1898.5469 2.0752 0 .5827-.0863 1.0889-.2588 1.5186-.1693.4297-.4118.7568-.7276.9814-.3157.2247-.6868.337-1.1133.337zm-.4394-4.4678c-.3678 0-.6364.1139-.8057.3418-.1692.2246-.2571.5973-.2636 1.1181v.1612c0 .5859.0862 1.0058.2587 1.2597.1758.2539.4525.3809.8301.3809.6673 0 1.001-.5501 1.001-1.6504 0-.5371-.083-.9391-.249-1.206-.1628-.2702-.4199-.4053-.7715-.4053zm6.8164-1.1914c.2018 0 .3695.0146.5029.0439l-.1123 1.3965c-.1204-.0325-.2669-.0488-.4394-.0488-.4753 0-.8464.122-1.1133.3662-.2637.2441-.3955.5859-.3955 1.0254v2.7783h-1.4893v-5.459h1.128l.2197.918h.0732c.1693-.306.3972-.5518.6836-.7373.2897-.1888.6039-.2832.9424-.2832zm3.7549 1.0595c-.3158 0-.5632.101-.7422.3028-.179.1985-.2816.4818-.3076.8496h2.0898c-.0065-.3678-.1025-.6511-.2881-.8496-.1855-.2018-.4362-.3028-.7519-.3028zm.2099 4.5997c-.8789 0-1.5657-.2426-2.0605-.7276s-.7422-1.1719-.7422-2.0605c0-.9147.2279-1.6211.6836-2.1192.459-.5013 1.0921-.7519 1.8994-.7519.7715 0 1.3721.2197 1.8018.6592.4297.4394.6445 1.0465.6445 1.8212v.7227h-3.5205c.0163.4232.1416.7536.376.9912.2343.2376.5631.3565.9863.3565.3288 0 .6396-.0342.9326-.1026.293-.0683.599-.1774.918-.3271v1.1523c-.2604.1302-.5388.2263-.835.2881-.2962.0651-.6575.0977-1.084.0977zm7.2461-1.7188c0 .5599-.1953.9863-.5859 1.2793-.3874.293-.9684.4395-1.7432.4395-.3971 0-.7356-.0277-1.0156-.0831-.2799-.052-.542-.1302-.7861-.2343v-1.2305c.2767.1302.5875.2393.9326.3272.3483.0878.6543.1318.918.1318.5403 0 .8105-.1563.8105-.4688 0-.1171-.0358-.2115-.1074-.2832-.0716-.0748-.1953-.1578-.3711-.249-.1758-.0944-.4102-.2034-.7031-.3271-.42-.1758-.7292-.3386-.9278-.4883-.1953-.1498-.3385-.3207-.4297-.5127-.0878-.1953-.1318-.4346-.1318-.7178 0-.485.1872-.8594.5615-1.123.3776-.267.9115-.4004 1.6016-.4004.6575 0 1.2972.1432 1.9189.4297l-.4492 1.0742c-.2734-.1172-.5289-.2132-.7666-.2881-.2376-.0749-.4801-.1123-.7275-.1123-.4395 0-.6592.1188-.6592.3564 0 .1335.07.2491.21.3467.1432.0977.4541.2425.9326.4346.4264.1725.7389.3336.9375.4834.1985.1497.345.3223.4394.5176s.1416.428.1416.6982zm3.4229-2.8809c-.3158 0-.5632.101-.7422.3028-.179.1985-.2816.4818-.3076.8496h2.0898c-.0065-.3678-.1025-.6511-.2881-.8496-.1855-.2018-.4362-.3028-.7519-.3028zm.2099 4.5997c-.8789 0-1.5657-.2426-2.0605-.7276s-.7422-1.1719-.7422-2.0605c0-.9147.2279-1.6211.6836-2.1192.459-.5013 1.0921-.7519 1.8994-.7519.7715 0 1.3721.2197 1.8018.6592.4297.4394.6445 1.0465.6445 1.8212v.7227h-3.5205c.0163.4232.1416.7536.376.9912s.5631.3565.9863.3565c.3288 0 .6397-.0342.9326-.1026.293-.0683.599-.1774.918-.3271v1.1523c-.2604.1302-.5387.2263-.835.2881-.2962.0651-.6575.0977-1.084.0977zm8.4766-.0977h-1.4892v-3.1885c0-.3939-.07-.6885-.21-.8838-.14-.1985-.363-.2978-.669-.2978-.4166 0-.7177.14-.9033.4199-.1855.2767-.2783.7373-.2783 1.3818v2.5684h-1.4893v-5.459h1.1377l.2002.6983h.083c.1661-.2637.3939-.4623.6836-.5957.293-.1368.625-.2051.9961-.2051.6348 0 1.1166.1725 1.4453.5176.3288.3418.4932.8365.4932 1.4843zm3.833-1.0889c.2604 0 .5729-.0569.9375-.1709v1.1084c-.3711.166-.8268.2491-1.3672.2491-.5957 0-1.0302-.1498-1.3037-.4493-.2702-.3027-.4053-.7552-.4053-1.3574v-2.6318h-.7128v-.6299l.8203-.4981.4297-1.1523h.9521v1.1621h1.5283v1.1182h-1.5283v2.6318c0 .2116.0586.3679.1758.4688.1204.1009.2783.1513.4736.1513zm5.8544-.5322c0 .5599-.195.9863-.586 1.2793-.387.293-.968.4395-1.743.4395-.3971 0-.7357-.0277-1.0156-.0831-.28-.052-.542-.1302-.7862-.2343v-1.2305c.2767.1302.5876.2393.9327.3272.3483.0878.6541.1318.9181.1318.54 0 .81-.1563.81-.4688 0-.1171-.035-.2115-.107-.2832-.072-.0748-.195-.1578-.371-.249-.176-.0944-.41-.2034-.703-.3271-.4202-.1758-.7294-.3386-.928-.4883-.1953-.1498-.3385-.3207-.4297-.5127-.0879-.1953-.1318-.4346-.1318-.7178 0-.485.1872-.8594.5615-1.123.3776-.267.9115-.4004 1.602-.4004.657 0 1.297.1432 1.919.4297l-.45 1.0742c-.273-.1172-.529-.2132-.766-.2881-.238-.0749-.48-.1123-.728-.1123-.439 0-.659.1188-.659.3564 0 .1335.07.2491.21.3467.143.0977.454.2425.933.4346.426.1725.738.3336.937.4834.199.1497.345.3223.44.5176.094.1953.141.428.141.6982zm7.227 1.6211-.288-.7422h-.039c-.251.3158-.51.5355-.777.6592-.264.1204-.609.1807-1.035.1807-.524 0-.938-.1498-1.24-.4493-.3-.2994-.449-.7259-.449-1.2793 0-.5794.201-1.0058.605-1.2793.407-.2766 1.019-.4296 1.836-.4589l.947-.0293v-.2393c0-.5534-.283-.8301-.849-.8301-.437 0-.949.1319-1.538.3955l-.494-1.0058c.629-.3288 1.325-.4932 2.09-.4932.733 0 1.294.1595 1.685.4785.39.319.586.8041.586 1.4551v3.6377zm-.44-2.5293-.576.0195c-.433.0131-.755.0912-.967.2344-.211.1432-.317.3613-.317.6543 0 .4199.241.6299.723.6299.345 0 .62-.0993.825-.2979.208-.1985.312-.4622.312-.791zm8.487 2.5293h-1.514v-5.8789h-1.939v-1.2598h5.391v1.2598h-1.938zm2.856-6.8701c0-.485.27-.7276.811-.7276.54 0 .81.2426.81.7276 0 .2311-.068.4118-.205.542-.133.1269-.335.1904-.605.1904-.541 0-.811-.2441-.811-.7324zm1.553 6.8701h-1.49v-5.459h1.49zm3.867-1.0889c.26 0 .573-.0569.937-.1709v1.1084c-.371.166-.826.2491-1.367.2491-.595 0-1.03-.1498-1.303-.4493-.271-.3027-.406-.7552-.406-1.3574v-2.6318h-.713v-.6299l.821-.4981.429-1.1523h.952v1.1621h1.529v1.1182h-1.529v2.6318c0 .2116.059.3679.176.4688.121.1009.279.1513.474.1513zm3.535 1.0889h-1.489v-7.5977h1.489zm3.828-4.502c-.316 0-.563.101-.742.3028-.179.1985-.282.4818-.308.8496h2.09c-.006-.3678-.102-.6511-.288-.8496-.185-.2018-.436-.3028-.752-.3028zm.21 4.5997c-.879 0-1.566-.2426-2.06-.7276-.495-.485-.743-1.1719-.743-2.0605 0-.9147.228-1.6211.684-2.1192.459-.5013 1.092-.7519 1.899-.7519.772 0 1.373.2197 1.802.6592.43.4394.645 1.0465.645 1.8212v.7227h-3.521c.016.4232.142.7536.376.9912.235.2376.563.3565.987.3565.328 0 .639-.0342.932-.1026.293-.0683.599-.1774.918-.3271v1.1523c-.26.1302-.539.2263-.835.2881-.296.0651-.657.0977-1.084.0977z" fill="#f1f1f6"/><g fill-opacity=".5"><path d="m24.25 24.25h175.5v47.5h-175.5z" fill="#89c6ed" stroke="#fff" stroke-width=".5"/><path d="m16.25 80.25h191.5v31.5h-191.5z" fill="#89c6ed" stroke="#fff" stroke-width=".5"/><path d="m0 16h16v224h-16z" fill="#ff95f8" transform="matrix(0 -1 1 0 -16 16)"/><path d="m16 112h16v96h-16z" fill="#ff95f8" transform="matrix(-1 0 0 -1 32 224)"/><path d="m224 112h16v96h-16z" fill="#ff95f8" transform="matrix(-1 0 0 -1 448 224)"/><path d="m0 128h16v224h-16z" fill="#ff95f8" transform="matrix(0 -1 1 0 -128 128)"/></g></svg>