<svg fill="none" height="52" viewBox="0 0 200 52" width="200" xmlns="http://www.w3.org/2000/svg"><rect fill="#89c6ed" height="2" rx="1" width="144" x="28" y="23"/><rect fill="#cbcdd6" height="24" rx="8" width="20" x="90" y="12"/><path d="m101.607 25.4267c-.067-.58-.2-1.1533-.414-1.6933-.465.1834-.973.2332-1.4652.1437-.4923-.0895-.9499-.3148-1.3211-.6504-.5533.5733-1.0467 1.2067-1.48 1.8733 1.2733 1.04 3.3663 1.3134 4.6803.3267zm-3.187-3.0733c.3934-.3667.82-.7067 1.2667-1.0067-.4055-.3728-.8815-.6607-1.4-.8467-.3733.58-.32 1.34.1333 1.86m1.727-1.3466c.306-.2267.633-.4067.986-.5467-.308-.3-.7-.4984-1.125-.5688-.4239-.0703-.8595-.0091-1.248.1755.5134.2266.9867.5466 1.393.94m-4.173-.6467c-.8933 1.2667-.4733 3.1133.56 4.2733.4433-.6758.9477-1.3096 1.5067-1.8933-.5733-.6667-.6867-1.6133-.2667-2.3933-.5933-.1467-1.2133-.14-1.8.0133zm1.8-.0133 3.66 2.4733c.44-.56.447-1.3467.02-1.9133-.333.1333-.64.32-.92.54.353.42.66.88.9 1.3733m-3.2866-3.0467c.3933-.28.86-.4333 1.34-.4466-.9867-.1667-2-.0534-2.9267.3333.5333-.06 1.0733-.02 1.5867.1133zm2.8466 3.3934c-.24-.5067-.547-.9734-.907-1.3934-.453.3-.8796.64-1.2796 1.0067.6.5267 1.4466.68 2.1866.3867zm1.3-1.4067c.087.6133-.153 1.2267-.627 1.6333.194.4934.34 1 .427 1.52.31-.4605.492-.9953.528-1.5495.035-.5542-.078-1.1078-.328-1.6038zm-.113 3.94c.013.38 0 .7667-.054 1.1467.702-.8996 1.04-2.0298.947-3.1667-.067.7533-.38 1.46-.893 2.02zm3.833-1.6933-2.647-1.5334c.314 1 .307 2.0667-.013 3.0667zm-9.36 1.66c-.3866.6333-.6733 1.3266-.84 2.0533.8087.6094 1.7981.9306 2.8106.9125 1.0124-.0181 1.9894-.3746 2.7764-1.0125.18-.4667.266-.9667.253-1.4667-.792.409-1.6848.5806-2.5718.4943-.8869-.0863-1.7301-.427-2.4282-.9809zm-.4133-.48c-.5242-.5337-.9048-1.1914-1.1065-1.9117-.2016-.7204-.2178-1.4801-.0468-2.2083-.7368.869-1.1185 1.984-1.0691 3.1222s.5264 2.2159 1.3357 3.0178c.2067-.7134.5067-1.3934.8934-2.02m1.2066-6.3267-2.6333-1.5133v3.0333c.7014-.7631 1.6209-1.2915 2.6333-1.5133zm-2.6333 11.8067 2.6533-1.5334c-1.0199-.2212-1.9466-.752-2.6533-1.52z" fill="#252a2e"/><g fill="#89c6ed"><circle cx="29" cy="41" r="1"/><circle cx="39.1428" cy="41" r="1"/><circle cx="49.2858" cy="41" r="1"/><circle cx="59.4286" cy="41" r="1"/><circle cx="69.5714" cy="41" r="1"/><circle cx="79.7142" cy="41" r="1"/><circle cx="89.8572" cy="41" r="1"/><circle cx="100" cy="41" r="1"/><circle cx="110.143" cy="41" r="1"/><circle cx="120.286" cy="41" r="1"/><circle cx="130.429" cy="41" r="1"/><circle cx="140.571" cy="41" r="1"/><circle cx="150.714" cy="41" r="1"/><circle cx="160.857" cy="41" r="1"/><circle cx="171" cy="41" r="1"/><path d="m16.25 8.25h73.5v35.5h-73.5z" fill-opacity=".5" stroke="#fff" stroke-width=".5"/><path d="m110.25 8.25h73.5v35.5h-73.5z" fill-opacity=".5" stroke="#fff" stroke-width=".5"/><path d="m90.25 12.25h19.5v23.5h-19.5z" fill-opacity=".5" stroke="#fff" stroke-width=".5"/></g><path d="m0 8h7.99999v200h-7.99999z" fill="#ff95f8" fill-opacity=".5" transform="matrix(0 -1 1 0 -8 8)"/><path d="m16 44h16v36h-16z" fill="#ff95f8" fill-opacity=".5" transform="matrix(-1 0 0 -1 32 88)"/><path d="m200 44h16v36h-16z" fill="#ff95f8" fill-opacity=".5" transform="matrix(-1 0 0 -1 400 88)"/><path d="m0 52h7.99999v200h-7.99999z" fill="#ff95f8" fill-opacity=".5" transform="matrix(0 -1 1 0 -52 52)"/></svg>