<?xml version="1.0" encoding="utf-8"?>
<!-- Generator: Adobe Illustrator 23.0.6, SVG Export Plug-In . SVG Version: 6.00 Build 0)  -->
<svg version="1.1" id="Layer_1" xmlns="http://www.w3.org/2000/svg" xmlns:xlink="http://www.w3.org/1999/xlink" x="0px" y="0px"
	 viewBox="0 0 26 26" style="enable-background:new 0 0 26 26;" xml:space="preserve">
<path d="M13,25.2c-0.2,0-0.5-0.1-0.6-0.2l-11-7.3c-0.1-0.1-0.2-0.2-0.3-0.3c0,0,0,0,0,0l0,0c0,0,0,0,0-0.1c-0.1-0.2-0.2-0.4-0.2-0.6
	V9.3c0-0.2,0.1-0.4,0.2-0.6c0,0,0,0,0,0c0.1-0.1,0.2-0.2,0.3-0.3l11-7.3c0.4-0.3,0.9-0.3,1.3,0l11,7.3c0.1,0.1,0.2,0.2,0.3,0.3
	c0,0,0,0,0,0c0.1,0.2,0.2,0.4,0.2,0.6v7.4c0,0.2-0.1,0.4-0.2,0.6c0,0,0,0,0,0.1c-0.1,0.1-0.2,0.2-0.3,0.3l-11,7.3
	C13.5,25.1,13.2,25.2,13,25.2z M14.2,17.2v4.6l7.8-5.2l-3.5-2.3L14.2,17.2z M4.1,16.7l7.8,5.2v-4.6l-4.3-2.9L4.1,16.7z M9.6,13
	l3.4,2.3l3.4-2.3L13,10.7L9.6,13z M20.5,13l2.3,1.6v-3.1L20.5,13z M3.1,11.4v3.1L5.5,13L3.1,11.4z M14.2,8.7l4.3,2.9l3.5-2.3
	l-7.8-5.2V8.7z M4.1,9.3l3.5,2.3l4.3-2.9V4.1L4.1,9.3z"/>
</svg>
