<svg xmlns="http://www.w3.org/2000/svg" width="70" height="70" viewBox="0 0 70 70">
  <path fill="#009AD9" d="M40.2920307,14.3916503 C44.2848502,22.8782302 41.1749918,32.9186783 32.9442542,35.7681838 L32.9276172,35.8037711 C32.8265397,36.01831 32.5470889,36.6032577 32.3412186,37.0350664 C32.4005681,37.0823527 32.4577584,37.1332314 32.5126137,37.18757 C32.6716099,37.3450683 32.8017977,37.5191039 32.9043567,37.7057243 C33.4292182,37.7684816 33.926366,38.0445532 34.4327807,38.5461972 C34.7423434,38.8528437 34.9506735,39.2177229 35.0061572,39.629031 C35.2798871,39.7387649 35.535277,39.9100329 35.8043286,40.1765498 C36.7931545,41.1560606 36.6383665,41.9877495 35.7391102,44.1610146 L35.6361494,44.4080851 L35.5759727,44.5512452 C35.3946942,44.9817546 35.3642688,45.0545408 35.2943039,45.2278052 C34.3918165,47.4627689 33.3890793,49.4493509 32.5126137,50.3175598 C32.3453428,50.4832549 32.148233,50.6623104 31.8579204,50.9153085 L31.7047038,51.04825 L31.2411114,51.4474728 C31.0529003,51.6096982 30.905924,51.7374486 30.7644295,51.8622319 C30.5437152,52.0568788 30.3513668,52.2313016 30.177292,52.3955254 C29.6541119,52.8890982 29.3164004,53.2776937 29.2111477,53.486216 C28.9217199,54.0596186 27.4454822,58.5068607 24.9365548,66.4006893 L52.650165,66.4002665 C53.540945,66.4002665 54.2423309,66.2630462 54.761125,66.0093019 C54.905872,65.9385055 55.0666667,65.5452789 55.0677476,64.6552697 C54.7104779,55.5686821 54.1706648,49.9361525 53.5058481,47.9851653 C53.0866292,46.7549151 51.8000515,45.5321968 49.5671508,44.0934896 C49.3701075,43.9665302 46.4648527,42.1987416 45.8246592,41.7290597 C45.3918431,41.4115215 43.1228299,39.8407507 42.5201125,39.406986 C41.5566006,38.7135641 40.7640226,38.1015804 40.0815956,37.5098833 C38.9856691,36.5596622 38.2115635,35.6950564 37.7732073,34.8374492 C37.421301,34.148974 37.6941441,33.3055781 38.3826193,32.9536719 C39.0710945,32.6017656 39.9144904,32.8746086 40.2663966,33.5630839 C40.5054761,34.0308228 41.0684209,34.6595812 41.915862,35.3943534 C42.5246637,35.9222139 43.2549856,36.4861269 44.1556894,37.134347 C44.7263593,37.5450477 47.0097027,39.1257388 47.4809514,39.4714733 C48.0059415,39.8566356 50.7945662,41.5534571 51.083711,41.7397595 C53.8149986,43.4995884 55.4720879,45.0744279 56.1561981,47.0820345 C56.9452868,49.3977138 57.4959027,55.142962 57.8666667,64.6002665 C57.8666667,66.4996986 57.3005086,67.8842497 55.9913503,68.5245645 C55.1412491,68.9403525 54.1416565,69.1585937 52.9976833,69.1948377 L52.650165,69.2002665 L5.76171617,69.2002665 C3.97027967,69.2002665 2.5298188,68.7305763 1.51144414,67.7343938 C0.73200814,66.9719431 0.346034496,65.7973039 0.147595768,64.2443887 C0.028950046,63.315907 0,62.5229701 0,61.4002665 L0.000462167561,61.0383687 C0.000969752819,60.8573482 0.00196021684,60.6687355 0.00374012906,60.4388491 C0.00819844446,59.8630308 0.0165737798,59.2487515 0.0298817036,58.6020866 C0.0662271065,56.8359735 0.133482884,55.0910729 0.239621673,53.4556002 C0.521585363,49.1108744 0.986019615,46.3059581 1.92461679,45.0817668 C2.40459997,44.4557355 3.10726473,43.820527 4.02658609,43.1410652 C4.76997864,42.5916307 5.64387528,42.0217288 6.67532522,41.4008224 C7.55488921,40.8713475 10.6129591,39.1429662 10.9943299,38.8942595 C12.0626546,38.1975635 14.5993789,36.4251031 18.5805087,33.5928311 C19.2105379,33.1446131 20.08463,33.2920002 20.532848,33.9220294 C20.981066,34.5520586 20.8336789,35.4261506 20.2036497,35.8743686 C16.1882998,38.7309855 13.6363554,40.5140806 12.5238219,41.2396069 C12.0532951,41.5464557 8.9312344,43.3110037 8.11939426,43.7997106 C7.1574036,44.3788043 6.35306179,44.9033468 5.69082315,45.3928012 C4.9638135,45.9301272 4.43798959,46.4054717 4.14667034,46.7854329 C3.70801171,47.3575655 3.26931697,50.0070299 3.0337438,53.6369329 C2.93057045,55.2267118 2.86484643,56.9318719 2.82928898,58.6596965 C2.81623838,59.2938577 2.80802524,59.8962405 2.80365621,60.4605277 C2.80191503,60.6854112 2.80094703,60.8696033 2.80045122,61.0464579 L2.8,61.4002665 C2.8,62.4108963 2.82557141,63.1112927 2.92501149,63.8894776 C3.04874498,64.8577746 3.27320291,65.5408706 3.46941394,65.7328059 C3.87144231,66.1260733 4.53323858,66.3620324 5.51073312,66.3960068 L5.76171617,66.4002665 L21.9988157,66.4004307 C24.0356683,59.9795785 25.3920973,55.8126264 26.1347079,53.7149307 C24.8413974,53.0404941 23.8090872,52.5090903 23.0382517,52.121324 L22.6465478,51.9254638 C22.5157744,51.8605264 22.3951673,51.8011556 22.2848554,51.7474059 C20.9526327,53.5088442 18.1148042,57.1239326 13.6967387,62.6924587 C13.2161671,63.2981707 12.3355602,63.3996171 11.7298481,62.9190455 C11.1241361,62.4384739 11.0226897,61.557867 11.5032613,60.9521549 C17.1732107,53.8057555 20.3136462,49.7799481 20.7521523,49.1042535 C21.0025347,48.7184389 21.0888287,48.3337738 21.091986,47.6822379 C21.0926578,47.5436208 21.0906576,47.427556 21.0840373,47.1580798 C21.0774113,46.8883698 21.0751445,46.7651594 21.0751445,46.605682 C21.0751445,46.225575 20.9964122,44.9347631 20.843397,42.7166253 L20.8220713,42.4084025 L20.8042156,42.1515154 C20.7798066,41.8009193 20.7528269,41.4155203 20.7035238,40.7116052 C20.6645708,40.1546813 20.6383336,39.7764068 20.6154781,39.4405776 C20.5536013,38.531385 20.5265253,38.085009 20.5265253,37.9104679 C20.5265253,36.6457188 21.3121551,35.2485505 22.6575778,34.6436677 C19.3716451,32.8980944 16.5486726,29.9271722 14.7879616,26.1854724 C10.9349501,17.9959812 13.3459867,8.6900829 20.3560396,5.45031477 C27.409845,2.19063554 36.4725502,6.27448974 40.2920307,14.3916503 Z M30.0438276,31.2967788 C29.9089231,31.4304124 28.9480205,33.7148536 27.6297234,37.3060183 C27.2077386,38.4555445 25.617449,38.5475837 25.0656665,37.4544149 C24.9634477,37.2519031 24.7307783,37.1366643 24.1210019,37.1366643 C23.6788927,37.1366643 23.3265253,37.6253314 23.3265253,37.9104679 L23.3267914,37.979915 C23.329919,38.1148957 23.3576696,38.5130238 23.5780856,41.678853 L23.5974542,41.9570463 L23.6153554,42.2145884 C23.7913558,44.7511378 23.8751445,46.1072606 23.8751445,46.605682 C23.8751445,46.73463 23.8771285,46.8424713 23.8831927,47.0893121 C23.8904881,47.3862668 23.8928024,47.5205606 23.8919532,47.6958064 C23.8890629,48.2922397 23.8332789,48.8194903 23.6969911,49.3159244 C24.4916713,49.7023702 25.6548792,50.3041922 27.4116001,51.2229989 C27.6484452,50.9519807 27.9290715,50.6671323 28.2558609,50.3588362 C28.3886326,50.2335781 28.5283663,50.1052468 28.6786479,49.9702211 L28.9042178,49.7696264 C28.9214215,49.7567383 30.3342321,48.5342295 30.5421067,48.3283131 C31.037189,47.8378948 31.9546188,46.0203205 32.6979888,44.1794027 C32.7668308,44.008919 32.7997024,43.929637 32.9382377,43.6004524 L32.995418,43.4646277 L33.0539868,43.325294 C33.2683241,42.8141579 33.4042772,42.465015 33.490412,42.191495 C33.3177562,42.1551839 33.1586506,42.0969125 32.9673505,41.995731 C32.7832436,41.8983541 32.614699,41.773335 32.4622737,41.6223456 C32.2099057,41.372355 32.0311248,41.0675893 31.9650838,40.7219684 C31.4867086,40.7399178 31.0136867,40.5359663 30.7074522,40.1188607 C30.5658316,39.9259667 30.4896559,39.7432712 30.4479327,39.5538608 C30.3783612,39.5509269 30.304795,39.5427729 30.2250119,39.5285832 C29.6027963,39.41792 29.154687,38.9414467 29.0406761,38.3572837 C28.9882138,38.0884803 29.0070653,37.8637147 29.0626646,37.6103674 C29.1269263,37.3175484 29.2674114,36.9880528 29.5861282,36.3091214 C29.6998527,36.066865 30.2490109,34.9195458 30.3946615,34.6103995 C30.454363,34.4836818 30.5107639,34.3631488 30.56475,34.2468301 C31.1429385,33.0010646 31.4989081,32.0726329 31.4989081,31.9325081 C31.4989081,31.048821 31.5606085,31.201619 31.1803026,31.0132574 C30.8356194,30.8425393 30.3690939,30.9745766 30.0438276,31.2967788 Z M44.8,30.4669332 C46.0886644,30.4669332 47.1333333,31.5116021 47.1333333,32.8002665 C47.1333333,34.0889309 46.0886644,35.1335999 44.8,35.1335999 C43.5113356,35.1335999 42.4666667,34.0889309 42.4666667,32.8002665 C42.4666667,31.5116021 43.5113356,30.4669332 44.8,30.4669332 Z M44.8,32.3335999 C44.5422671,32.3335999 44.3333333,32.5425336 44.3333333,32.8002665 C44.3333333,33.0579994 44.5422671,33.2669332 44.8,33.2669332 C45.0577329,33.2669332 45.2666667,33.0579994 45.2666667,32.8002665 C45.2666667,32.5425336 45.0577329,32.3335999 44.8,32.3335999 Z M21.5306891,7.99208441 C16.050991,10.5245226 14.0847477,18.1136484 17.3216287,24.9933346 C19.2270204,29.0427122 22.5596756,32.0006726 26.2200425,33.1055333 C27.087876,30.8920724 27.6491546,29.7277024 28.0733206,29.3075321 C29.1744641,28.216762 30.8724905,27.7361819 32.423037,28.5041517 C33.9628981,29.2668292 34.2989081,30.0989408 34.2989081,31.9325081 C34.2989081,31.9544295 34.2985828,31.9765568 34.2979308,31.9989033 C39.1012466,28.8123578 40.6715281,21.7754006 37.7583668,15.5837758 C34.5580708,8.78228971 27.0965315,5.41995608 21.5306891,7.99208441 Z M49.4666667,23.0002665 C51.7862626,23.0002665 53.6666667,24.8806706 53.6666667,27.2002665 C53.6666667,29.5198625 51.7862626,31.4002665 49.4666667,31.4002665 C47.1470707,31.4002665 45.2666667,29.5198625 45.2666667,27.2002665 C45.2666667,24.8806706 47.1470707,23.0002665 49.4666667,23.0002665 Z M49.4666667,25.8002665 C48.693468,25.8002665 48.0666667,26.4270679 48.0666667,27.2002665 C48.0666667,27.9734652 48.693468,28.6002665 49.4666667,28.6002665 C50.2398653,28.6002665 50.8666667,27.9734652 50.8666667,27.2002665 C50.8666667,26.4270679 50.2398653,25.8002665 49.4666667,25.8002665 Z M58.7196938,1.75553165 C60.6817851,1.43241387 62.447499,1.89005305 63.9079381,3.13433192 C65.269361,4.29425 66.0656819,5.6639558 66.2343809,7.1937644 C67.782402,8.41679775 68.6,10.0193114 68.6,11.9162123 C68.6,13.765997 67.9443224,15.342005 66.6666966,16.5594913 C66.3945369,18.3241134 65.3932627,19.7613684 63.7387824,20.7892016 C62.0599898,21.8321388 60.2354864,22.0873529 58.3649538,21.5485856 C56.844455,22.0678226 55.3490104,22.1322915 53.9117348,21.7241103 C52.5876219,21.3480668 51.5309561,20.6414108 50.7880498,19.6268914 C48.8945743,19.6012078 47.3519005,18.8473969 46.2925215,17.3731831 C45.172328,15.814341 44.9812184,13.9521695 45.662399,11.9184644 C44.9571971,9.87314342 45.0219755,8.10127205 45.9706313,6.68684356 C46.7940214,5.4591841 48.0722517,4.57112876 49.7604761,4.0035045 C50.4210354,2.39611533 51.8418242,1.36148349 53.8603585,0.960203786 C55.7929604,0.576007241 57.4470069,0.825951609 58.7196938,1.75553165 Z M54.4063081,3.70646288 C53.086368,3.96886377 52.4456942,4.51801271 52.2307385,5.44846501 L52.0406325,6.27135362 L51.2240515,6.48694925 C49.7731462,6.8700207 48.8194584,7.46607559 48.2960353,8.24648977 C47.8590711,8.8979954 47.8639746,9.91299482 48.4554765,11.3982197 L48.6628481,11.9189169 L48.4536101,12.438867 C47.8898253,13.8398551 47.9516047,14.8837912 48.5663195,15.7392179 C49.1745014,16.5855534 50.0544775,16.9354276 51.4098153,16.8007087 L52.3668067,16.7055849 L52.7989727,17.5647203 C53.1674916,18.297327 53.7635367,18.7712962 54.6766753,19.0306244 C55.6470214,19.3061993 56.6758541,19.2270587 57.8082187,18.7688783 L58.3065225,18.5672533 L58.8117159,18.7509349 C60.0565715,19.2035478 61.1632929,19.0928757 62.2612176,18.4107984 C63.3482787,17.7354699 63.8715115,16.8982975 63.9356557,15.7860606 L63.9715668,15.1633765 L64.4585258,14.7736379 C65.3683597,14.0454507 65.8,13.131964 65.8,11.9162123 C65.8,10.7700778 65.274507,9.87308852 64.1002455,9.10491287 L63.4464851,8.67723743 L63.4671569,7.89628825 C63.4922875,6.94689106 63.0669904,6.09629695 62.0920619,5.26566808 C61.1696784,4.47980693 60.0842134,4.26271394 58.6813299,4.62272654 L57.900243,4.82317166 L57.3349401,4.24809975 C56.7298105,3.63251293 55.8083416,3.42774205 54.4063081,3.70646288 Z" transform="translate(1)"/>
</svg>
