<svg xmlns="http://www.w3.org/2000/svg" width="70" height="70" viewBox="0 0 70 70"><path fill="#009AD9" d="M41.292 14.392c3.993 8.486.883 18.527-7.348 21.376l-.016.036c-.101.214-.38.8-.587 1.231a2.259 2.259 0 01.563.67c.525.063 1.022.34 1.529.841.31.307.518.672.573 1.083.274.11.53.281.798.548.99.98.834 1.81-.065 3.984l-.103.247-.06.143c-.181.43-.212.504-.282.677-.902 2.235-1.905 4.221-2.781 5.09a15.03 15.03 0 01-.655.597l-.153.133-.464.4-.477.414c-.22.195-.413.37-.587.534-.523.493-.86.882-.966 1.09-.29.574-1.766 5.02-4.274 12.915H53.65c.89 0 1.592-.138 2.111-.392.145-.07.306-.464.307-1.354-.358-9.086-.897-14.719-1.562-16.67-.42-1.23-1.706-2.453-3.939-3.892-.197-.126-3.102-1.894-3.742-2.364-.433-.317-2.702-1.888-3.305-2.322a34.323 34.323 0 01-2.438-1.897c-1.096-.95-1.87-1.815-2.309-2.673a1.4 1.4 0 112.493-1.274c.24.468.802 1.097 1.65 1.831a31.6 31.6 0 002.24 1.74c.57.411 2.854 1.992 3.325 2.337.525.386 3.314 2.082 3.603 2.269 2.731 1.76 4.388 3.334 5.072 5.342.79 2.316 1.34 8.061 1.71 17.518 0 1.9-.565 3.284-1.875 3.925-.85.415-1.85.634-2.993.67l-.348.005H6.762c-1.792 0-3.232-.47-4.25-1.466-.78-.762-1.166-1.937-1.364-3.49C1.029 63.316 1 62.523 1 61.4v-.362l.004-.6c.004-.575.013-1.19.026-1.836a117.8 117.8 0 01.21-5.146c.282-4.345.746-7.15 1.685-8.374.48-.626 1.182-1.261 2.102-1.94.743-.55 1.617-1.12 2.648-1.741.88-.53 3.938-2.258 4.32-2.507 1.068-.696 3.604-2.469 7.586-5.301a1.4 1.4 0 011.623 2.281c-4.016 2.857-6.568 4.64-7.68 5.366-.47.306-3.593 2.071-4.405 2.56a31.26 31.26 0 00-2.428 1.593c-.727.537-1.253 1.012-1.544 1.392-.439.573-.878 3.222-1.113 6.852a115.08 115.08 0 00-.205 5.023 140.552 140.552 0 00-.029 2.386v.354c0 1.01.026 1.711.125 2.49.124.968.348 1.65.544 1.843.402.393 1.064.629 2.042.663l.25.004H23c2.037-6.42 3.393-10.587 4.136-12.685a251.56 251.56 0 00-3.097-1.594l-.391-.196a54.07 54.07 0 00-.362-.178c-1.332 1.762-4.17 5.377-8.588 10.945a1.4 1.4 0 01-2.194-1.74c5.67-7.146 8.81-11.172 9.25-11.848.25-.386.336-.77.339-1.422 0-.138-.001-.254-.008-.524s-.009-.393-.009-.552c0-.38-.079-1.671-.232-3.89l-.02-.308-.019-.256a3601.132 3601.132 0 00-.189-2.711c-.061-.91-.088-1.356-.088-1.53 0-1.265.785-2.662 2.13-3.267-3.285-1.746-6.108-4.717-7.869-8.459-3.853-8.189-1.442-17.495 5.568-20.735 7.054-3.26 16.117.824 19.936 8.942zM31.044 31.297c-.135.133-1.096 2.418-2.414 6.009-.422 1.15-2.013 1.242-2.564.148-.103-.202-.335-.317-.945-.317-.442 0-.794.488-.794.773v.07c.003.135.03.533.251 3.699l.02.278.017.258c.176 2.536.26 3.892.26 4.39 0 .13.002.237.008.484.007.297.01.432.009.607-.003.596-.059 1.123-.195 1.62.795.386 1.958.988 3.715 1.907.236-.271.517-.556.844-.864.133-.125.272-.254.423-.389l.225-.2c.017-.013 1.43-1.236 1.638-1.442.495-.49 1.413-2.308 2.156-4.149.069-.17.102-.25.24-.579l.057-.135.059-.14c.214-.51.35-.86.436-1.134a2.134 2.134 0 01-1.028-.57 1.724 1.724 0 01-.497-.899 1.477 1.477 0 01-1.258-.603 1.455 1.455 0 01-.26-.565 1.672 1.672 0 01-.222-.025 1.463 1.463 0 01-1.184-1.172 1.736 1.736 0 01.022-.747c.064-.292.204-.622.523-1.3.114-.243.663-1.39.809-1.7l.17-.363c.578-1.246.934-2.174.934-2.314 0-.884.062-.731-.319-.92-.344-.17-.81-.038-1.136.284zm14.756-.83a2.333 2.333 0 110 4.667 2.333 2.333 0 010-4.667zm0 1.867a.467.467 0 100 .933.467.467 0 000-.933zM22.53 7.992c-5.479 2.533-7.445 10.122-4.208 17.001 1.905 4.05 5.238 7.008 8.898 8.113.868-2.214 1.43-3.378 1.853-3.798 1.101-1.091 2.8-1.572 4.35-.804 1.54.763 1.876 1.595 1.876 3.429l-.001.066c4.803-3.187 6.374-10.224 3.46-16.415-3.2-6.802-10.661-10.164-16.227-7.592zM50.468 23a4.2 4.2 0 110 8.4 4.2 4.2 0 010-8.4zm0 2.8a1.4 1.4 0 100 2.8 1.4 1.4 0 000-2.8zM59.72 1.756c1.962-.324 3.727.134 5.188 1.378 1.361 1.16 2.158 2.53 2.326 4.06 1.548 1.223 2.366 2.825 2.366 4.722 0 1.85-.656 3.426-1.933 4.643-.272 1.765-1.274 3.202-2.928 4.23-1.679 1.043-3.504 1.298-5.374.76-1.52.519-3.016.583-4.453.175-1.324-.376-2.381-1.083-3.124-2.097-1.893-.026-3.436-.78-4.495-2.254-1.12-1.559-1.312-3.42-.63-5.455-.706-2.045-.641-3.817.308-5.231.823-1.228 2.101-2.116 3.79-2.683.66-1.608 2.08-2.643 4.1-3.044 1.932-.384 3.586-.134 4.859.796zm-4.314 1.95c-1.32.263-1.96.812-2.175 1.742l-.19.823-.817.216c-1.45.383-2.405.98-2.928 1.76-.437.651-.432 1.666.16 3.151l.207.52-.21.52c-.563 1.402-.501 2.446.113 3.301.609.847 1.488 1.196 2.844 1.062l.957-.095.432.859c.368.732.965 1.206 1.878 1.466.97.275 1.999.196 3.131-.262l.499-.202.505.184c1.245.453 2.351.342 3.45-.34 1.086-.676 1.61-1.513 1.674-2.625l.036-.623.487-.39c.91-.728 1.341-1.641 1.341-2.857 0-1.146-.525-2.043-1.7-2.811l-.654-.428.021-.78c.025-.95-.4-1.8-1.375-2.631-.922-.786-2.008-1.003-3.41-.643l-.782.2-.565-.575c-.605-.615-1.527-.82-2.929-.542z"/></svg>