<svg xmlns="http://www.w3.org/2000/svg" width="240" height="240" viewBox="0 0 240 240"><title>route</title><path d="M30 214.453v-11.25c54.844 0 54.844-17.344 54.844-32.344 0-17.813-5.156-25.313-11.25-33.75-8.906-11.25-18.75-23.906-18.75-62.813 0-42.188 17.813-66.094 50.156-66.094 40.313 0 47.813 19.688 54.844 36.094C165.938 61.64 171.563 75.702 210 75.702v11.25c-45.938 0-53.906-20.156-60.938-38.438-6.563-16.406-11.25-29.063-44.063-29.063-32.344 0-39.844 29.063-39.844 54.844 0 35.156 8.438 46.406 16.406 56.719 7.031 9.375 13.594 18.75 13.594 40.781.938 26.25-10.313 42.656-65.156 42.656zM232.5 81.797c0 12.188-9.844 22.5-22.5 22.5s-22.5-10.313-22.5-22.5c0-12.656 9.844-22.5 22.5-22.5s22.5 9.844 22.5 22.5zm-150-15c0 12.188-9.844 22.5-22.5 22.5s-22.5-10.313-22.5-22.5c0-12.656 9.844-22.5 22.5-22.5s22.5 9.844 22.5 22.5zm-30 142.5c0 12.188-9.844 22.5-22.5 22.5s-22.5-10.313-22.5-22.5c0-12.656 9.844-22.5 22.5-22.5s22.5 9.844 22.5 22.5z"/></svg>