<svg fill="none" height="244" width="1104" xmlns="http://www.w3.org/2000/svg" xmlns:xlink="http://www.w3.org/1999/xlink"><clipPath id="a"><path d="m0 0h1104v244h-1104z"/></clipPath><clipPath id="b"><path d="m0 0h650v154h-650z" transform="translate(227 40)"/></clipPath><g clip-path="url(#a)"><path d="m0 0h1104v244h-1104z" fill="#252a2e"/><g clip-path="url(#b)"><circle cx="251" cy="60" fill="#89c6ed" r="8"/><circle cx="251" cy="99" fill="#368fc7" r="8"/><circle cx="251" cy="138" fill="#0e416c" r="8"/><circle cx="251" cy="175" fill="#0063a3" r="8"/><path d="m268.319 65v-9.994h1.634v9.994zm7.075-1.162c.392 0 .784-.062 1.176-.185v1.21a3.128 3.128 0 0 1 -.691.192 4.485 4.485 0 0 1 -.868.082c-1.522 0-2.283-.802-2.283-2.407v-4.074h-1.032v-.71l1.107-.589.547-1.6h.991v1.683h2.154v1.216h-2.154v4.047c0 .387.096.675.288.861.195.183.451.274.765.274zm6.145 1.299c-1.176 0-2.096-.342-2.761-1.026-.661-.688-.992-1.634-.992-2.837 0-1.235.308-2.205.923-2.912.615-.706 1.461-1.06 2.536-1.06.998 0 1.787.304 2.366.91.578.606.868 1.44.868 2.502v.868h-5.038c.022.734.221 1.299.594 1.695.374.392.9.588 1.579.588.447 0 .862-.04 1.245-.123a6.715 6.715 0 0 0 1.244-.424v1.306a4.937 4.937 0 0 1 -1.19.397 7.29 7.29 0 0 1 -1.374.116zm-.294-6.617c-.51 0-.92.161-1.23.485-.305.323-.488.795-.547 1.415h3.432c-.01-.624-.16-1.096-.452-1.415-.291-.324-.692-.486-1.203-.486zm11.58 6.48h-1.613v-4.662c0-.579-.11-1.01-.328-1.292-.219-.287-.561-.43-1.026-.43-.62 0-1.075.202-1.367.608-.287.4-.431 1.07-.431 2.01v3.766h-1.606v-7.56h1.258l.225.99h.082c.21-.36.513-.637.91-.833a2.96 2.96 0 0 1 1.319-.294c1.162 0 1.932.396 2.31 1.19h.11c.223-.375.538-.666.943-.876.406-.21.871-.314 1.395-.314.902 0 1.558.228 1.968.683.415.456.622 1.151.622 2.085v4.929h-1.606v-4.662c0-.579-.112-1.01-.335-1.292-.219-.287-.56-.43-1.025-.43-.625 0-1.083.195-1.374.587-.287.387-.431.984-.431 1.791zm17.192 0h-6.775v-1.217l2.577-2.59c.761-.78 1.265-1.331 1.511-1.655.251-.328.433-.636.547-.923s.171-.595.171-.923c0-.45-.137-.806-.41-1.066-.269-.26-.643-.39-1.121-.39-.383 0-.755.071-1.115.212-.355.142-.768.397-1.237.766l-.868-1.06c.556-.47 1.096-.802 1.62-.998a4.743 4.743 0 0 1 1.675-.294c.929 0 1.675.244 2.235.732.561.483.841 1.134.841 1.955 0 .451-.082.88-.246 1.285-.16.406-.408.825-.745 1.258-.333.428-.889 1.01-1.668 1.743l-1.737 1.682v.068h4.745zm505.728-2.18h-1.347v2.18h-1.565v-2.18h-4.566v-1.238l4.566-6.604h1.565v6.508h1.347v1.333zm-2.912-1.334v-2.508c0-.894.023-1.625.068-2.195h-.054c-.128.301-.328.666-.602 1.094l-2.481 3.61h3.069zm3.958-.745c0-3.91 1.592-5.865 4.778-5.865.501 0 .925.039 1.271.116v1.34c-.346-.1-.747-.15-1.203-.15-1.071 0-1.875.287-2.413.861s-.829 1.495-.875 2.762h.082c.214-.37.515-.654.903-.855.387-.205.843-.307 1.367-.307.907 0 1.613.278 2.119.834s.759 1.31.759 2.262c0 1.048-.294 1.878-.882 2.489-.583.606-1.381.909-2.393.909-.715 0-1.337-.171-1.866-.513-.529-.346-.936-.848-1.224-1.504-.282-.66-.423-1.454-.423-2.379zm3.486 3.07c.551 0 .975-.178 1.271-.534.301-.355.452-.863.452-1.524 0-.574-.142-1.026-.424-1.354-.278-.328-.697-.492-1.258-.492-.346 0-.665.075-.957.226a1.715 1.715 0 0 0 -.69.608 1.407 1.407 0 0 0 -.253.786c0 .643.173 1.185.519 1.627.351.438.798.656 1.34.656zm5.769 1.189 3.951-8.565h-5.195v-1.416h6.911v1.122l-3.931 8.859zm9.215-1.47c-.219.848-.62 1.94-1.204 3.275h-1.182c.314-1.23.549-2.375.704-3.432h1.579zm5.071-8.654c.948 0 1.698.219 2.249.656.552.433.828 1.014.828 1.743 0 1.026-.616 1.842-1.846 2.448.784.392 1.34.804 1.668 1.237.333.433.499.916.499 1.45 0 .824-.303 1.485-.909 1.982-.606.496-1.427.745-2.461.745-1.085 0-1.926-.233-2.523-.698-.597-.464-.895-1.123-.895-1.975 0-.556.155-1.055.465-1.497.314-.447.827-.843 1.538-1.19-.611-.364-1.046-.75-1.306-1.155a2.48 2.48 0 0 1 -.39-1.367c0-.725.285-1.301.855-1.73.57-.433 1.312-.649 2.228-.649zm-1.852 7.533c0 .474.166.843.499 1.108.333.26.784.39 1.353.39.588 0 1.044-.135 1.368-.404.328-.273.492-.643.492-1.108 0-.369-.151-.706-.451-1.011-.301-.306-.757-.588-1.368-.848l-.198-.089c-.601.265-1.034.556-1.299.875a1.64 1.64 0 0 0 -.396 1.087zm1.839-6.296c-.456 0-.823.114-1.101.342-.278.223-.417.529-.417.916 0 .237.05.449.151.636.1.187.246.358.437.513.191.15.515.332.971.546.547-.241.932-.494 1.155-.758.228-.27.342-.581.342-.937 0-.387-.141-.693-.424-.916-.278-.228-.649-.342-1.114-.342zm11.559 8.887h-6.774v-1.217l2.577-2.59c.761-.78 1.264-1.331 1.51-1.655.251-.328.433-.636.547-.923s.171-.595.171-.923c0-.45-.137-.806-.41-1.066-.269-.26-.643-.39-1.121-.39-.383 0-.754.071-1.114.212-.356.142-.768.397-1.238.766l-.868-1.06c.556-.47 1.096-.802 1.62-.998a4.747 4.747 0 0 1 1.675-.294c.93 0 1.675.244 2.235.732.561.483.841 1.134.841 1.955 0 .451-.082.88-.246 1.285a5.125 5.125 0 0 1 -.745 1.258c-.333.428-.889 1.01-1.668 1.743l-1.736 1.682v.068h4.744zm8.134-5.728c0 1.968-.396 3.438-1.189 4.409-.793.97-1.987 1.456-3.582 1.456-.606 0-1.042-.037-1.306-.11v-1.346c.406.114.814.17 1.224.17 1.084 0 1.893-.291 2.427-.874.533-.584.824-1.5.875-2.748h-.082c-.269.41-.595.706-.978.888-.378.183-.823.274-1.333.274-.884 0-1.579-.276-2.085-.828-.506-.551-.759-1.308-.759-2.27 0-1.043.292-1.872.875-2.487.588-.62 1.388-.93 2.4-.93.711 0 1.33.173 1.859.52.529.346.937.85 1.224 1.51.287.657.43 1.445.43 2.366zm-3.486-3.063c-.556 0-.982.182-1.278.547-.297.36-.445.868-.445 1.524 0 .57.137 1.019.41 1.347.278.323.698.485 1.258.485.543 0 .998-.162 1.367-.485.37-.324.554-.702.554-1.135 0-.405-.08-.784-.239-1.135a2.003 2.003 0 0 0 -.656-.84 1.61 1.61 0 0 0 -.971-.308zm-40.781 45.61h-1.347v2.181h-1.565v-2.181h-4.566v-1.237l4.566-6.603h1.565v6.507h1.347zm-2.912-1.333v-2.508c0-.894.023-1.625.068-2.195h-.054c-.128.301-.328.666-.602 1.094l-2.481 3.609zm8.647 3.514h-1.606v-6.453c0-.77.018-1.381.054-1.832-.104.11-.234.23-.389.362-.151.132-.661.552-1.532 1.258l-.806-1.019 2.939-2.31h1.34zm10.206-4.997c0 1.736-.281 3.026-.841 3.869-.556.843-1.408 1.265-2.557 1.265-1.112 0-1.955-.436-2.529-1.306s-.861-2.146-.861-3.828c0-1.764.278-3.063.834-3.897.56-.838 1.412-1.257 2.556-1.257 1.117 0 1.962.437 2.536 1.312.575.875.862 2.156.862 3.842zm-5.161 0c0 1.363.139 2.336.417 2.919.282.583.731.875 1.346.875.616 0 1.064-.296 1.347-.889.287-.592.431-1.561.431-2.905 0-1.34-.144-2.308-.431-2.905-.283-.602-.731-.903-1.347-.903-.615 0-1.064.294-1.346.882-.278.588-.417 1.563-.417 2.926zm8.736 3.527c-.219.848-.62 1.939-1.204 3.275h-1.182a33.83 33.83 0 0 0 .704-3.432h1.579zm8.093-6.227c0 .633-.185 1.162-.554 1.586-.369.419-.888.702-1.558.847v.055c.802.1 1.403.35 1.804.752.401.396.602.925.602 1.586 0 .961-.34 1.704-1.019 2.228-.679.52-1.645.78-2.898.78-1.108 0-2.042-.18-2.803-.54v-1.429c.424.21.873.371 1.347.485s.929.171 1.367.171c.775 0 1.354-.143 1.736-.43.383-.288.575-.732.575-1.333 0-.534-.212-.926-.636-1.176s-1.089-.376-1.996-.376h-.868v-1.306h.881c1.595 0 2.393-.551 2.393-1.654 0-.429-.139-.759-.417-.991-.278-.233-.688-.349-1.231-.349-.378 0-.742.055-1.093.164-.351.105-.766.312-1.244.622l-.787-1.121c.916-.674 1.981-1.012 3.193-1.012 1.007 0 1.793.217 2.358.65s.848 1.03.848 1.79zm8.524 2.7c0 1.736-.28 3.026-.841 3.869-.556.843-1.408 1.265-2.557 1.265-1.112 0-1.955-.436-2.529-1.306s-.861-2.146-.861-3.828c0-1.764.278-3.063.834-3.897.56-.838 1.413-1.257 2.556-1.257 1.117 0 1.962.437 2.537 1.312.574.875.861 2.156.861 3.842zm-5.161 0c0 1.363.139 2.336.417 2.919.282.583.731.875 1.346.875.616 0 1.065-.296 1.347-.889.287-.592.431-1.561.431-2.905 0-1.34-.144-2.308-.431-2.905-.282-.602-.731-.903-1.347-.903-.615 0-1.064.294-1.346.882-.278.588-.417 1.563-.417 2.926zm12.933-2.7c0 .633-.185 1.162-.554 1.586-.369.419-.888.702-1.558.847v.055c.802.1 1.403.35 1.804.752.401.396.602.925.602 1.586 0 .961-.34 1.704-1.019 2.228-.679.52-1.645.78-2.898.78-1.107 0-2.042-.18-2.803-.54v-1.429c.424.21.873.371 1.347.485s.93.171 1.367.171c.775 0 1.354-.143 1.736-.43.383-.288.575-.732.575-1.333 0-.534-.212-.926-.636-1.176s-1.089-.376-1.996-.376h-.868v-1.306h.881c1.596 0 2.393-.551 2.393-1.654 0-.429-.139-.759-.417-.991-.278-.233-.688-.349-1.23-.349-.379 0-.743.055-1.094.164-.351.105-.766.312-1.244.622l-.786-1.121c.916-.674 1.98-1.012 3.192-1.012 1.007 0 1.793.217 2.358.65s.848 1.03.848 1.79zm-44.26 45.697h-6.775v-1.217l2.577-2.591c.761-.779 1.265-1.33 1.511-1.654.251-.328.433-.636.547-.923s.171-.594.171-.923c0-.451-.137-.806-.41-1.066-.269-.26-.643-.39-1.121-.39-.383 0-.755.071-1.115.212-.355.142-.768.397-1.237.766l-.868-1.06c.556-.469 1.096-.802 1.62-.998a4.74 4.74 0 0 1 1.675-.294c.93 0 1.675.244 2.235.732.561.483.841 1.135.841 1.955 0 .451-.082.879-.246 1.285-.16.406-.408.825-.745 1.258-.333.428-.889 1.009-1.668 1.743l-1.736 1.682v.068h4.744zm8.134-5.729c0 1.969-.396 3.439-1.189 4.41-.793.97-1.987 1.456-3.582 1.456-.607 0-1.042-.037-1.306-.11v-1.346c.405.114.813.171 1.224.171 1.084 0 1.893-.292 2.426-.875.533-.584.825-1.5.875-2.748h-.082c-.269.41-.594.706-.977.888-.379.182-.823.274-1.333.274-.884 0-1.579-.276-2.085-.828-.506-.551-.759-1.307-.759-2.269 0-1.044.292-1.873.875-2.488.588-.62 1.388-.93 2.399-.93.711 0 1.331.173 1.86.52.528.346.936.849 1.223 1.51.287.656.431 1.445.431 2.365zm-3.486-3.062c-.556 0-.982.182-1.279.547-.296.36-.444.868-.444 1.524 0 .57.137 1.019.41 1.347.278.324.697.485 1.258.485.542 0 .998-.161 1.367-.485s.554-.702.554-1.135c0-.405-.08-.784-.239-1.135a1.997 1.997 0 0 0 -.657-.84 1.609 1.609 0 0 0 -.97-.308zm4.901 4.532c0-3.91 1.592-5.865 4.778-5.865.501 0 .925.039 1.271.116v1.34c-.346-.1-.747-.15-1.203-.15-1.071 0-1.875.287-2.413.861-.537.574-.829 1.495-.875 2.762h.082c.214-.369.515-.654.903-.855.387-.205.843-.307 1.367-.307.907 0 1.613.278 2.119.834s.759 1.31.759 2.262c0 1.048-.294 1.878-.882 2.489-.583.606-1.381.909-2.393.909-.715 0-1.337-.171-1.866-.513-.529-.346-.936-.848-1.224-1.504-.282-.661-.423-1.454-.423-2.379zm3.486 3.07c.551 0 .975-.178 1.271-.534.301-.355.452-.863.452-1.524 0-.574-.142-1.025-.424-1.354-.278-.328-.697-.492-1.258-.492-.346 0-.665.075-.957.226a1.714 1.714 0 0 0 -.69.608 1.405 1.405 0 0 0 -.253.786c0 .643.173 1.185.519 1.627.351.438.798.657 1.34.657zm6.836-.281c-.219.848-.62 1.939-1.204 3.275h-1.182a33.83 33.83 0 0 0 .704-3.432h1.579zm8.455-4.259c0 1.969-.396 3.439-1.189 4.41-.793.97-1.987 1.456-3.582 1.456-.606 0-1.042-.037-1.306-.11v-1.346c.406.114.814.171 1.224.171 1.084 0 1.893-.292 2.426-.875.534-.584.825-1.5.875-2.748h-.082c-.268.41-.594.706-.977.888-.378.182-.823.274-1.333.274-.884 0-1.579-.276-2.085-.828-.506-.551-.759-1.307-.759-2.269 0-1.044.292-1.873.875-2.488.588-.62 1.388-.93 2.4-.93.71 0 1.33.173 1.859.52.529.346.936.849 1.224 1.51.287.656.43 1.445.43 2.365zm-3.486-3.062c-.556 0-.982.182-1.278.547-.297.36-.445.868-.445 1.524 0 .57.137 1.019.41 1.347.278.324.698.485 1.258.485.543 0 .998-.161 1.367-.485.37-.324.554-.702.554-1.135 0-.405-.08-.784-.239-1.135a2.002 2.002 0 0 0 -.656-.84 1.614 1.614 0 0 0 -.971-.308zm12.003 6.61h-1.346v2.181h-1.566v-2.181h-4.566v-1.237l4.566-6.603h1.566v6.507h1.346zm-2.912-1.333v-2.508c0-.894.023-1.625.069-2.195h-.055a7.714 7.714 0 0 1 -.602 1.094l-2.481 3.609zm11.06 1.333h-1.346v2.181h-1.566v-2.181h-4.566v-1.237l4.566-6.603h1.566v6.507h1.346zm-2.912-1.333v-2.508c0-.894.023-1.625.069-2.195h-.055a7.714 7.714 0 0 1 -.602 1.094l-2.481 3.609zm-44.137 41.514h-1.606v-6.453c0-.77.018-1.381.054-1.832-.105.109-.234.23-.389.362a86.45 86.45 0 0 1 -1.532 1.258l-.806-1.019 2.939-2.31h1.34zm10.206 0h-6.775v-1.217l2.577-2.591c.761-.779 1.265-1.33 1.511-1.654.251-.328.433-.636.547-.923s.171-.594.171-.923c0-.451-.137-.806-.41-1.066-.269-.26-.643-.39-1.121-.39-.383 0-.755.071-1.115.212-.355.142-.767.397-1.237.766l-.868-1.06c.556-.469 1.096-.802 1.62-.998a4.74 4.74 0 0 1 1.675-.294c.93 0 1.675.244 2.235.732.561.483.841 1.135.841 1.955 0 .451-.082.879-.246 1.285-.16.406-.408.825-.745 1.258-.333.428-.889 1.009-1.668 1.743l-1.736 1.682v.068h4.744zm7.772-7.697c0 .633-.185 1.162-.554 1.586-.369.419-.889.701-1.559.847v.055c.803.1 1.404.351 1.805.752.401.396.602.925.602 1.586 0 .961-.34 1.704-1.019 2.228-.679.52-1.645.78-2.898.78-1.108 0-2.042-.18-2.803-.54v-1.429c.424.21.873.371 1.347.485s.929.171 1.367.171c.775 0 1.353-.143 1.736-.43.383-.288.574-.732.574-1.333 0-.534-.212-.926-.635-1.176-.424-.251-1.09-.376-1.996-.376h-.869v-1.306h.882c1.595 0 2.393-.551 2.393-1.654 0-.429-.139-.759-.417-.991-.278-.233-.688-.349-1.231-.349-.378 0-.742.055-1.093.164-.351.105-.766.312-1.245.622l-.786-1.121c.916-.674 1.98-1.012 3.193-1.012 1.007 0 1.793.217 2.358.65s.848 1.03.848 1.791zm3.951 6.227c-.219.848-.62 1.939-1.204 3.275h-1.182a33.83 33.83 0 0 0 .704-3.432h1.579zm8.824-.711h-1.346v2.181h-1.566v-2.181h-4.566v-1.237l4.566-6.603h1.566v6.507h1.346zm-2.912-1.333v-2.508c0-.894.023-1.625.069-2.195h-.055a7.714 7.714 0 0 1 -.602 1.094l-2.481 3.609zm7.307-6.61c.948 0 1.698.219 2.249.656.552.433.828 1.014.828 1.743 0 1.026-.616 1.842-1.846 2.448.784.392 1.34.804 1.668 1.237.333.433.499.916.499 1.449 0 .825-.303 1.486-.909 1.983-.606.496-1.427.745-2.461.745-1.085 0-1.926-.233-2.523-.698-.597-.464-.895-1.123-.895-1.975 0-.556.155-1.055.465-1.497.314-.447.827-.843 1.538-1.19-.611-.364-1.046-.749-1.306-1.155a2.48 2.48 0 0 1 -.39-1.367c0-.725.285-1.301.855-1.73.57-.433 1.312-.649 2.228-.649zm-1.852 7.533c0 .474.166.843.499 1.108.333.259.784.389 1.353.389.588 0 1.044-.134 1.368-.403.328-.274.492-.643.492-1.107 0-.37-.151-.707-.451-1.012-.301-.306-.757-.588-1.368-.848l-.198-.089c-.601.265-1.034.556-1.299.875a1.643 1.643 0 0 0 -.396 1.087zm1.839-6.296c-.456 0-.823.114-1.101.342-.278.223-.417.529-.417.916 0 .237.05.449.151.636.1.187.246.358.437.513.192.15.515.332.971.546.547-.241.932-.494 1.155-.758.228-.269.342-.581.342-.937 0-.387-.141-.693-.424-.916-.278-.228-.649-.342-1.114-.342zm8.175 2.646c1.007 0 1.805.266 2.393.8.588.533.882 1.26.882 2.18 0 1.067-.335 1.901-1.005 2.502-.666.597-1.614.896-2.844.896-1.117 0-1.994-.18-2.632-.54v-1.456c.369.209.793.371 1.272.485.478.114.922.171 1.333.171.724 0 1.276-.162 1.654-.485.378-.324.567-.798.567-1.422 0-1.194-.761-1.791-2.283-1.791-.214 0-.478.022-.793.068-.314.041-.59.089-.827.144l-.718-.424.383-4.881h5.195v1.429h-3.78l-.226 2.474.582-.096c.232-.036.515-.054.847-.054zm-588.323-69.759v-9.994h1.634v9.994zm7.075-1.162a3.91 3.91 0 0 0 1.176-.185v1.21a3.093 3.093 0 0 1 -.691.192 4.54 4.54 0 0 1 -.868.082c-1.522 0-2.283-.802-2.283-2.407v-4.074h-1.032v-.71l1.107-.589.547-1.6h.991v1.682h2.154v1.217h-2.154v4.047c0 .387.096.675.288.861.195.183.451.274.765.274zm6.145 1.299c-1.176 0-2.096-.342-2.761-1.026-.661-.688-.992-1.633-.992-2.837 0-1.235.308-2.205.923-2.912.615-.706 1.461-1.06 2.536-1.06.998 0 1.787.304 2.366.91.578.606.868 1.44.868 2.502v.868h-5.038c.022.734.221 1.299.594 1.695.374.392.9.588 1.579.588.447 0 .862-.041 1.245-.123a6.666 6.666 0 0 0 1.244-.424v1.306a4.956 4.956 0 0 1 -1.19.397 7.334 7.334 0 0 1 -1.374.116zm-.294-6.618c-.51 0-.92.162-1.23.486-.305.324-.488.795-.547 1.415h3.432c-.01-.624-.16-1.096-.452-1.415-.291-.324-.692-.486-1.203-.486zm11.58 6.481h-1.613v-4.662c0-.579-.11-1.01-.328-1.292-.219-.287-.561-.43-1.026-.43-.62 0-1.075.202-1.367.608-.287.4-.431 1.07-.431 2.009v3.767h-1.606v-7.56h1.258l.225.99h.082c.21-.36.513-.637.91-.833a2.96 2.96 0 0 1 1.319-.294c1.162 0 1.932.396 2.31 1.19h.11c.223-.374.538-.666.943-.876.406-.21.871-.314 1.395-.314.902 0 1.558.228 1.968.683.415.456.622 1.151.622 2.085v4.929h-1.606v-4.662c0-.579-.112-1.01-.335-1.292-.219-.287-.56-.43-1.025-.43-.625 0-1.083.195-1.374.587-.287.388-.431.984-.431 1.791zm16.816-7.697c0 .633-.185 1.162-.554 1.586-.369.419-.889.702-1.559.847v.055c.802.1 1.404.35 1.805.752.401.396.602.925.602 1.586 0 .961-.34 1.704-1.019 2.228-.679.52-1.645.78-2.898.78-1.108 0-2.042-.18-2.803-.54v-1.429c.424.21.873.371 1.347.485.473.114.929.171 1.367.171.774 0 1.353-.143 1.736-.43.383-.288.574-.732.574-1.333 0-.534-.212-.926-.635-1.176-.424-.25-1.09-.376-1.997-.376h-.868v-1.306h.882c1.595 0 2.393-.551 2.393-1.654 0-.429-.139-.759-.417-.991-.278-.233-.688-.349-1.231-.349a3.66 3.66 0 0 0 -1.094.164c-.35.105-.765.312-1.244.622l-.786-1.121c.916-.674 1.98-1.012 3.193-1.012 1.007 0 1.793.217 2.358.65s.848 1.03.848 1.79zm-41.322 45.697v-9.994h1.634v9.994zm7.075-1.162a3.91 3.91 0 0 0 1.176-.185v1.21a3.093 3.093 0 0 1 -.691.192 4.54 4.54 0 0 1 -.868.082c-1.522 0-2.283-.802-2.283-2.407v-4.074h-1.032v-.711l1.107-.588.547-1.599h.991v1.681h2.154v1.217h-2.154v4.047c0 .387.096.675.288.861.195.183.451.274.765.274zm6.145 1.299c-1.176 0-2.096-.342-2.761-1.026-.661-.688-.992-1.633-.992-2.837 0-1.235.308-2.205.923-2.912.615-.706 1.461-1.059 2.536-1.059.998 0 1.787.303 2.366.909.578.606.868 1.44.868 2.502v.868h-5.038c.022.734.221 1.299.594 1.695.374.392.9.588 1.579.588.447 0 .862-.041 1.245-.123a6.666 6.666 0 0 0 1.244-.424v1.306a4.956 4.956 0 0 1 -1.19.397 7.334 7.334 0 0 1 -1.374.116zm-.294-6.617c-.51 0-.92.161-1.23.485-.305.323-.488.795-.547 1.415h3.432c-.01-.624-.16-1.096-.452-1.415-.291-.324-.692-.485-1.203-.485zm11.58 6.48h-1.613v-4.662c0-.579-.11-1.01-.328-1.292-.219-.287-.561-.431-1.026-.431-.62 0-1.075.203-1.367.609-.287.401-.431 1.071-.431 2.009v3.767h-1.606v-7.561h1.258l.225.992h.082a2.1 2.1 0 0 1 .91-.834 2.96 2.96 0 0 1 1.319-.294c1.162 0 1.932.396 2.31 1.189h.11c.223-.374.538-.665.943-.875.406-.209.871-.314 1.395-.314.902 0 1.558.228 1.968.683.415.456.622 1.151.622 2.085v4.929h-1.606v-4.662c0-.579-.112-1.01-.335-1.292-.219-.287-.56-.431-1.025-.431-.625 0-1.083.196-1.374.588-.287.387-.431.985-.431 1.791zm17.547-2.181h-1.347v2.181h-1.565v-2.181h-4.566v-1.237l4.566-6.603h1.565v6.507h1.347zm-2.912-1.333v-2.508c0-.894.023-1.625.068-2.195h-.054a7.714 7.714 0 0 1 -.602 1.094l-2.481 3.609zm-39.141 41.514v-9.994h1.634v9.994zm7.075-1.162a3.91 3.91 0 0 0 1.176-.185v1.21a3.093 3.093 0 0 1 -.691.192 4.54 4.54 0 0 1 -.868.082c-1.522 0-2.283-.802-2.283-2.407v-4.074h-1.032v-.711l1.107-.588.547-1.599h.991v1.681h2.154v1.217h-2.154v4.047c0 .387.096.675.288.861.195.183.451.274.765.274zm6.145 1.299c-1.176 0-2.096-.342-2.761-1.026-.661-.688-.992-1.633-.992-2.837 0-1.235.308-2.205.923-2.912.615-.706 1.461-1.059 2.536-1.059.998 0 1.787.303 2.366.909.578.606.868 1.44.868 2.502v.868h-5.038c.022.734.221 1.299.594 1.695.374.392.9.588 1.579.588.447 0 .862-.041 1.245-.123a6.666 6.666 0 0 0 1.244-.424v1.306a4.956 4.956 0 0 1 -1.19.397 7.334 7.334 0 0 1 -1.374.116zm-.294-6.617c-.51 0-.92.161-1.23.485-.305.323-.488.795-.547 1.415h3.432c-.01-.624-.16-1.096-.452-1.415-.291-.324-.692-.485-1.203-.485zm11.58 6.48h-1.613v-4.662c0-.579-.11-1.01-.328-1.292-.219-.287-.561-.431-1.026-.431-.62 0-1.075.203-1.367.609-.287.401-.431 1.071-.431 2.009v3.767h-1.606v-7.561h1.258l.225.992h.082a2.1 2.1 0 0 1 .91-.834 2.96 2.96 0 0 1 1.319-.294c1.162 0 1.932.396 2.31 1.189h.11c.223-.374.538-.665.943-.875.406-.209.871-.314 1.395-.314.902 0 1.558.228 1.968.683.415.456.622 1.151.622 2.085v4.929h-1.606v-4.662c0-.579-.112-1.01-.335-1.292-.219-.287-.56-.431-1.025-.431-.625 0-1.083.196-1.374.588-.287.387-.431.985-.431 1.791zm15.134 0h-1.606v-6.453c0-.77.018-1.381.054-1.832-.105.109-.234.23-.389.362a86.45 86.45 0 0 1 -1.532 1.258l-.806-1.019 2.939-2.31h1.34z" fill="#fff"/><path d="m227 40.5h650m-650 38h650m-650 39h650m-650 38h650m-650 38h650" stroke="#fff" stroke-linecap="square"/></g><path d="m227 118h15v37h-15z" stroke="#ff60bd" stroke-width=".5"/><path d="m316 72.5h21.5m447.5-1h21.5m-491-24h22m470-1h-22m-448 1v25m447-26v25" stroke="#ff60bd" stroke-linecap="square"/><path d="m810.259 53.215h-3.124v-12.21h3.124v.965h-1.976v10.274h1.976v.97zm0 24h-3.124v-12.21h3.124v.965h-1.976v10.274h1.976v.97z" fill="#ff60bd"/><path d="m636.5 60.5 148-1" stroke="#ff60bd" stroke-linecap="square"/><path d="m312.741 54.215h3.124v-12.21h-3.124v.965h1.976v10.274h-1.976v.97zm0 23h3.124v-12.21h-3.124v.965h1.976v10.274h-1.976v.97z" fill="#ff60bd"/><path d="m338 59.5 142.5 1m-288-2h45m-45 79h33" stroke="#ff60bd" stroke-linecap="square"/><path d="m58.5 42.5h134v32h-134zm-37 79h171v32h-171z" fill="#252a2e" stroke="#979797"/><path d="m68.888 64h-1.108v-7.123c0-.593.019-1.153.055-1.682a7.214 7.214 0 0 1 -.321.301c-.119.105-.661.55-1.627 1.333l-.602-.78 2.646-2.043h.957zm4.073-4.273c0-1.964.381-3.431 1.142-4.402.766-.975 1.896-1.463 3.39-1.463.516 0 .921.044 1.218.13v.978a3.893 3.893 0 0 0 -1.204-.171c-1.07 0-1.889.335-2.454 1.005-.565.665-.875 1.713-.93 3.144h.083c.501-.784 1.294-1.175 2.379-1.175.897 0 1.604.27 2.119.813.52.542.779 1.278.779 2.208 0 1.039-.285 1.857-.855 2.454-.565.593-1.33.889-2.296.889-1.035 0-1.855-.388-2.461-1.162-.606-.78-.91-1.862-.91-3.248zm3.357 3.446c.647 0 1.148-.203 1.504-.608.36-.41.54-1 .54-1.771 0-.66-.166-1.18-.5-1.559-.332-.378-.828-.567-1.49-.567-.41 0-.785.084-1.127.253a2.114 2.114 0 0 0 -.82.697c-.201.296-.301.604-.301.923 0 .47.09.907.273 1.313.182.405.44.726.772.963.338.237.72.356 1.149.356zm8.695.964c-.488 0-.934-.09-1.34-.267a2.547 2.547 0 0 1 -1.012-.834h-.082c.055.438.082.852.082 1.244v3.083h-1.134v-10.855h.922l.158 1.025h.054c.292-.41.632-.706 1.019-.889.387-.182.832-.273 1.333-.273.993 0 1.759.34 2.297 1.019.542.679.813 1.631.813 2.857 0 1.23-.276 2.188-.827 2.871-.547.68-1.308 1.019-2.283 1.019zm-.164-6.802c-.766 0-1.32.212-1.661.636-.342.424-.518 1.098-.527 2.023v.253c0 1.053.176 1.807.527 2.263.35.45.913.677 1.688.677.647 0 1.153-.262 1.518-.787.369-.524.553-1.246.553-2.167 0-.934-.184-1.65-.553-2.146-.365-.501-.88-.752-1.545-.752zm7.218 2.83-2.604-3.657h1.292l1.975 2.87 1.969-2.87h1.278l-2.604 3.657 2.741 3.835h-1.284l-2.099-3.035-2.12 3.035h-1.285zm12.96-3.78c.985 0 1.748.337 2.29 1.012.547.67.821 1.62.821 2.85s-.276 2.188-.827 2.871c-.547.68-1.308 1.019-2.284 1.019-.487 0-.934-.09-1.339-.267a2.538 2.538 0 0 1 -1.012-.834h-.082l-.24.964h-.813v-10.637h1.135v2.584c0 .579-.018 1.099-.055 1.559h.055c.528-.748 1.312-1.121 2.351-1.121zm-.164.95c-.774 0-1.333.223-1.675.67-.341.442-.512 1.19-.512 2.242 0 1.053.175 1.807.526 2.263.351.45.914.677 1.689.677.697 0 1.216-.253 1.558-.76.342-.51.513-1.241.513-2.194 0-.975-.171-1.702-.513-2.18-.342-.479-.87-.718-1.586-.718zm4.225-.827h1.216l1.641 4.272c.36.975.583 1.68.67 2.113h.055c.059-.233.182-.63.369-1.19.191-.565.811-2.297 1.859-5.195h1.217l-3.22 8.531c-.319.843-.693 1.44-1.121 1.791-.424.356-.946.533-1.565.533-.347 0-.689-.038-1.026-.116v-.91c.251.056.531.083.841.083.779 0 1.335-.438 1.668-1.313l.417-1.066zm15.865 7.492h-1.107v-7.123c0-.593.018-1.153.054-1.682a7.667 7.667 0 0 1 -.321.301c-.119.105-.661.55-1.627 1.333l-.602-.78 2.646-2.043h.957zm4.074-4.273c0-1.964.38-3.431 1.141-4.402.766-.975 1.896-1.463 3.391-1.463.515 0 .921.044 1.217.13v.978a3.894 3.894 0 0 0 -1.203-.171c-1.071 0-1.889.335-2.454 1.005-.566.665-.875 1.713-.93 3.144h.082c.501-.784 1.294-1.175 2.379-1.175.898 0 1.604.27 2.119.813.519.542.779 1.278.779 2.208 0 1.039-.285 1.857-.854 2.454-.565.593-1.331.889-2.297.889-1.035 0-1.855-.388-2.461-1.162-.606-.78-.909-1.862-.909-3.248zm3.356 3.446c.647 0 1.149-.203 1.504-.608.36-.41.54-1 .54-1.771 0-.66-.166-1.18-.499-1.559-.333-.378-.829-.567-1.49-.567-.41 0-.786.084-1.128.253a2.11 2.11 0 0 0 -.82.697 1.62 1.62 0 0 0 -.301.923c0 .47.091.907.273 1.313.183.405.44.726.773.963.337.237.72.356 1.148.356zm8.695.964c-.488 0-.934-.09-1.34-.267a2.542 2.542 0 0 1 -1.011-.834h-.082c.054.438.082.852.082 1.244v3.083h-1.135v-10.855h.923l.157 1.025h.055c.291-.41.631-.706 1.018-.889.387-.182.832-.273 1.333-.273.994 0 1.759.34 2.297 1.019.542.679.813 1.631.813 2.857 0 1.23-.275 2.188-.827 2.871-.547.68-1.308 1.019-2.283 1.019zm-.164-6.802c-.766 0-1.319.212-1.661.636s-.517 1.098-.526 2.023v.253c0 1.053.175 1.807.526 2.263.351.45.914.677 1.688.677.648 0 1.153-.262 1.518-.787.369-.524.554-1.246.554-2.167 0-.934-.185-1.65-.554-2.146-.365-.501-.88-.752-1.545-.752zm7.218 2.83-2.604-3.657h1.292l1.976 2.87 1.968-2.87h1.279l-2.605 3.657 2.741 3.835h-1.285l-2.098-3.035-2.12 3.035h-1.285zm10.609 3.835h-1.135v-7.492h1.135zm-1.23-9.523c0-.26.063-.448.191-.567a.662.662 0 0 1 .478-.184c.183 0 .34.061.472.184s.198.312.198.568c0 .255-.066.446-.198.574a.668.668 0 0 1 -.472.184.662.662 0 0 1 -.478-.184c-.128-.128-.191-.32-.191-.575zm6.78 9.66c-1.084 0-1.925-.333-2.522-.998-.593-.67-.889-1.616-.889-2.837 0-1.254.301-2.222.903-2.905.606-.684 1.467-1.026 2.584-1.026.36 0 .72.039 1.08.116.36.078.642.169.847.274l-.348.964a5.088 5.088 0 0 0 -.821-.247 3.546 3.546 0 0 0 -.786-.102c-1.522 0-2.283.97-2.283 2.912 0 .92.185 1.627.554 2.12.373.491.925.737 1.654.737.624 0 1.265-.134 1.921-.403v1.005c-.501.26-1.133.39-1.894.39zm10.295-3.89c0 1.221-.308 2.176-.923 2.864-.615.684-1.465 1.026-2.55 1.026-.67 0-1.264-.157-1.784-.472-.519-.314-.92-.766-1.203-1.353-.283-.588-.424-1.276-.424-2.065 0-1.221.305-2.172.916-2.85.611-.684 1.458-1.026 2.543-1.026 1.048 0 1.88.349 2.495 1.046.62.697.93 1.64.93 2.83zm-5.708 0c0 .957.191 1.686.574 2.188.383.5.946.752 1.689.752.742 0 1.305-.249 1.688-.746.387-.5.581-1.232.581-2.194 0-.952-.194-1.675-.581-2.167-.383-.497-.95-.745-1.702-.745-.743 0-1.303.244-1.682.731-.378.488-.567 1.215-.567 2.181zm12.981 3.753v-4.847c0-.61-.139-1.066-.417-1.367-.278-.3-.713-.451-1.306-.451-.784 0-1.358.212-1.722.636-.365.424-.547 1.123-.547 2.098v3.931h-1.135v-7.492h.923l.184 1.025h.055c.233-.369.558-.654.978-.854a3.144 3.144 0 0 1 1.401-.308c.902 0 1.581.219 2.037.656.456.433.684 1.128.684 2.085v4.888zm-152.971 79h-1.108v-7.123c0-.592.018-1.153.055-1.682a7.154 7.154 0 0 1 -.321.301c-.119.105-.661.549-1.627 1.333l-.602-.779 2.646-2.044h.957zm4.073-4.272c0-1.965.381-3.432 1.142-4.403.766-.975 1.896-1.463 3.39-1.463.516 0 .921.044 1.218.13v.978a3.89 3.89 0 0 0 -1.204-.171c-1.07 0-1.889.335-2.454 1.005-.565.665-.875 1.713-.93 3.144h.083c.501-.784 1.294-1.176 2.379-1.176.897 0 1.604.272 2.119.814.52.542.779 1.278.779 2.208 0 1.039-.285 1.857-.854 2.454-.566.592-1.331.889-2.297.889-1.035 0-1.855-.388-2.461-1.162-.606-.78-.91-1.862-.91-3.247zm3.357 3.445c.647 0 1.148-.203 1.504-.609.36-.41.54-1 .54-1.77 0-.661-.166-1.18-.5-1.559-.332-.378-.829-.567-1.49-.567-.41 0-.785.084-1.127.253a2.119 2.119 0 0 0 -.82.697c-.201.296-.301.604-.301.923 0 .469.09.907.273 1.313.182.405.44.726.773.963.337.237.72.356 1.148.356zm8.695.964c-.488 0-.934-.089-1.34-.267a2.542 2.542 0 0 1 -1.012-.834h-.082c.055.438.082.852.082 1.244v3.083h-1.134v-10.855h.922l.158 1.025h.054c.292-.41.631-.706 1.019-.888.387-.183.832-.274 1.333-.274.993 0 1.759.34 2.297 1.019.542.679.813 1.631.813 2.857 0 1.231-.276 2.188-.827 2.871-.547.679-1.308 1.019-2.283 1.019zm-.164-6.802c-.766 0-1.32.212-1.661.636-.342.424-.518 1.098-.527 2.023v.253c0 1.053.176 1.807.527 2.263.35.451.913.677 1.688.677.647 0 1.153-.263 1.518-.787.369-.524.553-1.246.553-2.167 0-.934-.184-1.649-.553-2.146-.365-.501-.88-.752-1.545-.752zm7.218 2.83-2.604-3.657h1.292l1.975 2.871 1.969-2.871h1.278l-2.604 3.657 2.741 3.835h-1.284l-2.099-3.035-2.12 3.035h-1.285zm14.601 3.835v-4.847c0-.61-.139-1.066-.417-1.367s-.713-.451-1.306-.451c-.788 0-1.365.214-1.73.643-.36.428-.54 1.13-.54 2.105v3.917h-1.134v-10.637h1.135v3.22c0 .387-.018.709-.055.964h.069c.223-.36.54-.643.95-.848a3.102 3.102 0 0 1 1.415-.314c.916 0 1.602.219 2.057.656.46.433.69 1.123.69 2.071v4.888zm10.09-3.753c0 1.221-.308 2.176-.923 2.864-.616.684-1.466 1.026-2.55 1.026-.67 0-1.265-.158-1.784-.472-.52-.314-.921-.766-1.204-1.353-.282-.588-.423-1.277-.423-2.065 0-1.221.305-2.171.916-2.851.61-.683 1.458-1.025 2.543-1.025 1.048 0 1.88.349 2.495 1.046.62.697.93 1.641.93 2.83zm-5.709 0c0 .957.192 1.686.575 2.188.382.501.945.752 1.688.752s1.306-.249 1.689-.746c.387-.501.58-1.232.58-2.194 0-.952-.193-1.675-.58-2.167-.383-.497-.95-.745-1.703-.745-.742 0-1.303.244-1.681.731-.379.488-.568 1.215-.568 2.181zm11.272-3.876c.333 0 .632.027.896.082l-.157 1.053a3.893 3.893 0 0 0 -.82-.103c-.607 0-1.126.246-1.56.739-.428.492-.642 1.105-.642 1.838v4.02h-1.135v-7.492h.937l.13 1.388h.055c.278-.488.613-.864 1.004-1.128a2.258 2.258 0 0 1 1.293-.397zm3.582 7.629h-1.135v-7.492h1.135zm-1.23-9.522c0-.26.064-.449.191-.568a.662.662 0 0 1 .479-.184c.182 0 .34.061.471.184.132.123.199.312.199.568 0 .255-.067.446-.199.574a.668.668 0 0 1 -.471.184.662.662 0 0 1 -.479-.184c-.127-.128-.191-.319-.191-.574zm8.577 9.522h-5.434v-.772l4.088-5.838h-3.834v-.882h5.079v.882l-4.033 5.728h4.135v.882zm8.374-3.753c0 1.221-.308 2.176-.923 2.864-.615.684-1.465 1.026-2.55 1.026-.67 0-1.264-.158-1.784-.472s-.92-.766-1.203-1.353c-.283-.588-.424-1.277-.424-2.065 0-1.221.305-2.171.916-2.851.61-.683 1.459-1.025 2.543-1.025 1.048 0 1.88.349 2.495 1.046.62.697.93 1.641.93 2.83zm-5.708 0c0 .957.191 1.686.574 2.188.383.501.946.752 1.689.752.742 0 1.305-.249 1.688-.746.388-.501.581-1.232.581-2.194 0-.952-.193-1.675-.58-2.167-.384-.497-.951-.745-1.703-.745-.743 0-1.303.244-1.682.731-.378.488-.567 1.215-.567 2.181zm12.982 3.753v-4.847c0-.61-.139-1.066-.417-1.367s-.713-.451-1.306-.451c-.783 0-1.358.212-1.722.636-.365.424-.547 1.123-.547 2.098v3.931h-1.135v-7.492h.923l.185 1.025h.054c.233-.369.558-.654.978-.854a3.145 3.145 0 0 1 1.401-.308c.902 0 1.581.219 2.037.656.456.433.684 1.128.684 2.085v4.888zm6.043-.8c.2 0 .394-.013.581-.041a4.11 4.11 0 0 0 .444-.096v.869a2.003 2.003 0 0 1 -.547.143 3.805 3.805 0 0 1 -.642.062c-1.45 0-2.174-.764-2.174-2.29v-4.457h-1.074v-.547l1.074-.472.478-1.6h.657v1.737h2.173v.882h-2.173v4.409c0 .451.107.797.321 1.039.214.241.508.362.882.362zm7.286.8-.225-1.066h-.055c-.374.469-.747.788-1.121.957-.369.164-.832.246-1.388.246-.743 0-1.326-.192-1.75-.575-.419-.382-.629-.927-.629-1.633 0-1.513 1.21-2.306 3.63-2.379l1.272-.041v-.465c0-.588-.128-1.021-.383-1.299-.251-.282-.654-.424-1.21-.424-.624 0-1.331.192-2.119.575l-.349-.869a5.38 5.38 0 0 1 1.21-.471 5.29 5.29 0 0 1 1.326-.171c.894 0 1.554.198 1.983.594.433.397.649 1.033.649 1.908v5.113zm-2.563-.8c.706 0 1.26-.193 1.661-.581.406-.387.608-.93.608-1.627v-.677l-1.134.048c-.903.032-1.554.173-1.955.424-.397.246-.595.631-.595 1.155 0 .411.123.723.369.937.251.214.599.321 1.046.321zm7.034.8h-1.135v-10.637h1.135zm9.829.137c-.488 0-.934-.089-1.34-.267a2.546 2.546 0 0 1 -1.012-.834h-.082c.055.438.082.852.082 1.244v3.083h-1.134v-10.855h.922l.158 1.025h.054c.292-.41.632-.706 1.019-.888.387-.183.832-.274 1.333-.274.993 0 1.759.34 2.297 1.019.542.679.813 1.631.813 2.857 0 1.231-.275 2.188-.827 2.871-.547.679-1.308 1.019-2.283 1.019zm-.164-6.802c-.766 0-1.319.212-1.661.636s-.517 1.098-.527 2.023v.253c0 1.053.176 1.807.527 2.263.351.451.913.677 1.688.677.647 0 1.153-.263 1.518-.787.369-.524.554-1.246.554-2.167 0-.934-.185-1.649-.554-2.146-.365-.501-.88-.752-1.545-.752zm10.021 6.665-.226-1.066h-.054c-.374.469-.748.788-1.121.957-.37.164-.832.246-1.388.246-.743 0-1.326-.192-1.75-.575-.419-.382-.629-.927-.629-1.633 0-1.513 1.21-2.306 3.63-2.379l1.271-.041v-.465c0-.588-.127-1.021-.382-1.299-.251-.282-.654-.424-1.21-.424-.625 0-1.331.192-2.12.575l-.348-.869c.369-.2.772-.357 1.21-.471a5.29 5.29 0 0 1 1.326-.171c.893 0 1.554.198 1.982.594.433.397.65 1.033.65 1.908v5.113zm-2.563-.8c.706 0 1.26-.193 1.661-.581.405-.387.608-.93.608-1.627v-.677l-1.135.048c-.902.032-1.554.173-1.955.424-.396.246-.595.631-.595 1.155 0 .411.124.723.37.937.25.214.599.321 1.046.321zm10.998-.205h-.061c-.524.761-1.308 1.142-2.352 1.142-.98 0-1.743-.335-2.29-1.005-.542-.67-.813-1.623-.813-2.858s.273-2.194.82-2.878c.547-.683 1.308-1.025 2.283-1.025 1.016 0 1.796.369 2.338 1.108h.089l-.048-.541-.027-.526v-3.049h1.134v10.637h-.922zm-2.269.192c.774 0 1.335-.21 1.681-.629.351-.424.527-1.106.527-2.044v-.24c0-1.061-.178-1.818-.534-2.269-.351-.456-.913-.684-1.688-.684-.665 0-1.176.26-1.531.78-.351.515-.527 1.244-.527 2.187 0 .957.176 1.679.527 2.167s.866.732 1.545.732zm11.005-.192h-.061c-.525.761-1.308 1.142-2.352 1.142-.98 0-1.743-.335-2.29-1.005-.542-.67-.814-1.623-.814-2.858s.274-2.194.821-2.878c.547-.683 1.308-1.025 2.283-1.025 1.016 0 1.796.369 2.338 1.108h.089l-.048-.541-.027-.526v-3.049h1.134v10.637h-.923zm-2.269.192c.774 0 1.335-.21 1.681-.629.351-.424.527-1.106.527-2.044v-.24c0-1.061-.178-1.818-.534-2.269-.351-.456-.913-.684-1.688-.684-.665 0-1.176.26-1.531.78-.351.515-.527 1.244-.527 2.187 0 .957.176 1.679.527 2.167s.866.732 1.545.732zm7.04.813h-1.135v-7.492h1.135zm-1.23-9.522c0-.26.064-.449.191-.568a.663.663 0 0 1 .479-.184c.182 0 .339.061.471.184s.199.312.199.568c0 .255-.067.446-.199.574a.667.667 0 0 1 -.471.184.663.663 0 0 1 -.479-.184c-.127-.128-.191-.319-.191-.574zm8.913 9.522v-4.847c0-.61-.139-1.066-.417-1.367s-.713-.451-1.305-.451c-.784 0-1.358.212-1.723.636s-.547 1.123-.547 2.098v3.931h-1.135v-7.492h.923l.185 1.025h.055c.232-.369.558-.654.977-.854a3.145 3.145 0 0 1 1.401-.308c.903 0 1.582.219 2.038.656.455.433.683 1.128.683 2.085v4.888zm9.755-7.492v.718l-1.388.164c.128.159.242.369.342.629.1.255.15.544.15.868 0 .733-.25 1.319-.752 1.757-.501.437-1.189.656-2.064.656-.223 0-.433-.018-.629-.055-.483.255-.725.577-.725.964 0 .205.085.358.253.458.169.096.458.144.869.144h1.326c.811 0 1.433.17 1.866.512.437.342.656.839.656 1.49 0 .83-.333 1.461-.998 1.894-.665.438-1.636.656-2.912.656-.98 0-1.736-.182-2.27-.547-.528-.364-.792-.879-.792-1.545 0-.455.145-.849.437-1.182s.702-.558 1.23-.677a1.209 1.209 0 0 1 -.485-.403 1.086 1.086 0 0 1 -.191-.636c0-.273.073-.513.218-.718.146-.205.376-.403.691-.594a2.046 2.046 0 0 1 -.95-.814 2.403 2.403 0 0 1 -.363-1.312c0-.821.246-1.452.739-1.894.492-.447 1.189-.67 2.091-.67.392 0 .746.046 1.06.137zm-5.975 8.75c0 .405.171.713.513.923.342.209.832.314 1.47.314.952 0 1.656-.143 2.112-.431.46-.282.69-.667.69-1.155 0-.405-.125-.688-.376-.847-.25-.155-.722-.233-1.415-.233h-1.36c-.515 0-.916.123-1.203.369s-.431.6-.431 1.06zm.615-6.351c0 .524.149.921.445 1.19s.708.403 1.237.403c1.108 0 1.661-.538 1.661-1.613 0-1.126-.56-1.689-1.681-1.689-.534 0-.944.144-1.231.431s-.431.713-.431 1.278z" fill="#fff"/><path d="m925.5 96.5h162v93h-162z" fill="#252a2e" stroke="#979797"/><path d="m935.58 110.39h-1.907v6.61h-1.135v-6.61h-1.34v-.513l1.34-.41v-.417c0-1.841.804-2.762 2.413-2.762.397 0 .861.08 1.395.239l-.294.91c-.438-.142-.811-.212-1.121-.212-.429 0-.745.143-.951.43-.205.283-.307.739-.307 1.367v.486h1.907zm7.984 2.857c0 1.221-.308 2.176-.923 2.864-.615.684-1.465 1.026-2.55 1.026-.67 0-1.264-.158-1.784-.472-.519-.314-.92-.766-1.203-1.353-.282-.588-.424-1.277-.424-2.065 0-1.221.306-2.171.916-2.851.611-.683 1.459-1.025 2.543-1.025 1.048 0 1.88.349 2.495 1.046.62.697.93 1.641.93 2.83zm-5.708 0c0 .957.191 1.686.574 2.188.383.501.946.752 1.689.752s1.305-.249 1.688-.746c.388-.501.581-1.232.581-2.194 0-.952-.193-1.675-.581-2.167-.383-.497-.95-.745-1.702-.745-.743 0-1.303.244-1.682.731-.378.488-.567 1.215-.567 2.181zm12.981 3.753v-4.847c0-.61-.139-1.066-.417-1.367s-.713-.451-1.306-.451c-.783 0-1.358.212-1.722.636-.365.424-.547 1.123-.547 2.098v3.931h-1.135v-7.492h.923l.185 1.025h.054c.233-.369.559-.654.978-.854a3.145 3.145 0 0 1 1.401-.308c.903 0 1.582.219 2.037.656.456.433.684 1.128.684 2.085v4.888zm6.043-.8c.2 0 .394-.013.581-.041a4.11 4.11 0 0 0 .444-.096v.869a2.003 2.003 0 0 1 -.547.143 3.805 3.805 0 0 1 -.642.062c-1.45 0-2.174-.764-2.174-2.29v-4.457h-1.073v-.547l1.073-.472.478-1.6h.657v1.737h2.173v.882h-2.173v4.409c0 .451.107.797.321 1.039.214.241.508.362.882.362zm2.05-2.433v-1.039h3.357v1.039zm8.668-3.377h-1.908v6.61h-1.134v-6.61h-1.34v-.513l1.34-.41v-.417c0-1.841.804-2.762 2.413-2.762.396 0 .861.08 1.394.239l-.294.91c-.437-.142-.811-.212-1.121-.212-.428 0-.745.143-.95.43-.205.283-.308.739-.308 1.367v.486h1.908zm6.124 6.61-.225-1.066h-.055c-.374.469-.747.788-1.121.957-.369.164-.832.246-1.388.246-.743 0-1.326-.192-1.75-.575-.419-.382-.629-.927-.629-1.633 0-1.513 1.21-2.306 3.63-2.379l1.272-.041v-.465c0-.588-.128-1.021-.383-1.299-.251-.282-.654-.424-1.21-.424-.624 0-1.331.192-2.119.575l-.349-.869a5.38 5.38 0 0 1 1.21-.471 5.29 5.29 0 0 1 1.326-.171c.893 0 1.554.198 1.983.594.433.397.649 1.033.649 1.908v5.113zm-2.563-.8c.706 0 1.26-.193 1.661-.581.406-.387.608-.93.608-1.627v-.677l-1.134.048c-.903.032-1.554.173-1.956.424-.396.246-.594.631-.594 1.155 0 .411.123.723.369.937.251.214.599.321 1.046.321zm15.449.8v-4.874c0-.597-.128-1.044-.383-1.34-.255-.301-.652-.451-1.19-.451-.706 0-1.228.203-1.565.608-.337.406-.506 1.03-.506 1.873v4.184h-1.135v-4.874c0-.597-.127-1.044-.383-1.34-.255-.301-.653-.451-1.196-.451-.711 0-1.233.214-1.565.643-.328.423-.492 1.121-.492 2.091v3.931h-1.135v-7.492h.923l.184 1.025h.055c.214-.364.515-.649.902-.854.392-.205.83-.308 1.313-.308 1.171 0 1.937.424 2.297 1.272h.054c.224-.392.547-.702.971-.93a3.011 3.011 0 0 1 1.449-.342c.848 0 1.481.219 1.901.656.423.433.635 1.128.635 2.085v4.888zm4.764 0h-1.135v-7.492h1.135zm-1.231-9.522c0-.26.064-.449.192-.568a.66.66 0 0 1 .478-.184c.183 0 .34.061.472.184s.198.312.198.568c0 .255-.066.446-.198.574a.668.668 0 0 1 -.472.184.66.66 0 0 1 -.478-.184c-.128-.128-.192-.319-.192-.574zm4.922 9.522h-1.135v-10.637h1.135zm1.367-7.492h1.216l1.641 4.272c.36.976.583 1.68.67 2.113h.053c.06-.233.18-.629.37-1.19.19-.565.81-2.297 1.86-5.195h1.22l-3.22 8.531c-.322.843-.695 1.44-1.124 1.791-.424.356-.945.533-1.565.533a4.54 4.54 0 0 1 -1.026-.116v-.909c.251.055.531.082.841.082.78 0 1.335-.438 1.668-1.313l.417-1.066zm8.23 6.767c0-.305.07-.535.2-.69.15-.16.35-.239.61-.239s.47.079.61.239c.15.155.23.385.23.69 0 .297-.08.524-.23.684-.15.159-.35.239-.61.239-.24 0-.43-.07-.58-.212-.16-.146-.23-.382-.23-.711zm0-6.036c0-.615.27-.923.81-.923.56 0 .84.308.84.923 0 .296-.08.524-.23.684-.15.159-.35.239-.61.239a.808.808 0 0 1 -.58-.212c-.16-.146-.23-.383-.23-.711zm16.68 1.75c0 1.6-.41 2.858-1.22 3.774-.8.916-1.93 1.374-3.37 1.374-1.47 0-2.61-.449-3.41-1.347-.8-.902-1.2-2.174-1.2-3.814 0-1.627.41-2.887 1.21-3.781.8-.897 1.94-1.346 3.42-1.346 1.43 0 2.55.455 3.36 1.367.81.911 1.21 2.169 1.21 3.773zm-7.97 0c0 1.354.29 2.381.87 3.083.57.698 1.41 1.046 2.51 1.046 1.11 0 1.95-.348 2.51-1.046.57-.697.85-1.725.85-3.083 0-1.344-.28-2.363-.85-3.055-.56-.698-1.39-1.046-2.49-1.046-1.11 0-1.96.351-2.53 1.052-.58.698-.87 1.714-.87 3.049zm13.67 5.148c-.49 0-.93-.089-1.34-.267a2.52 2.52 0 0 1 -1.01-.834h-.08c.05.438.08.852.08 1.244v3.083h-1.14v-10.855h.93l.15 1.025h.06c.29-.41.63-.706 1.02-.888.38-.183.83-.274 1.33-.274.99 0 1.76.34 2.3 1.019s.81 1.631.81 2.857c0 1.231-.28 2.188-.83 2.871-.54.679-1.31 1.019-2.28 1.019zm-.16-6.802c-.77 0-1.32.212-1.67.636-.34.424-.51 1.098-.52 2.023v.253c0 1.053.17 1.807.52 2.263.36.451.92.677 1.69.677.65 0 1.16-.263 1.52-.787.37-.524.55-1.246.55-2.167 0-.934-.18-1.649-.55-2.146-.36-.501-.88-.752-1.54-.752zm8.57 6.802c-1.1 0-1.98-.338-2.62-1.012s-.96-1.611-.96-2.81c0-1.207.3-2.167.89-2.877.6-.711 1.4-1.067 2.4-1.067.94 0 1.68.31 2.23.93.55.615.82 1.428.82 2.44v.718h-5.16c.02.88.24 1.547.66 2.003s1.02.684 1.79.684c.8 0 1.6-.169 2.39-.506v1.011c-.4.174-.78.297-1.14.37-.36.077-.79.116-1.3.116zm-.3-6.816c-.61 0-1.09.196-1.45.588-.35.392-.56.934-.62 1.627h3.91c0-.715-.16-1.262-.48-1.64-.32-.383-.77-.575-1.36-.575zm10.28 6.679v-4.847c0-.61-.14-1.066-.42-1.367s-.71-.451-1.31-.451c-.78 0-1.35.212-1.72.636-.36.424-.54 1.123-.54 2.098v3.931h-1.14v-7.492h.92l.19 1.025h.05c.23-.369.56-.654.98-.854a3.16 3.16 0 0 1 1.4-.308c.9 0 1.58.219 2.04.656.45.433.68 1.128.68 2.085v4.888zm13.22-2.659c0 .879-.32 1.565-.96 2.057-.64.493-1.5.739-2.6.739-1.18 0-2.09-.153-2.73-.458v-1.121c.41.173.85.31 1.34.41.48.1.96.15 1.43.15.78 0 1.36-.146 1.75-.437.4-.297.59-.707.59-1.231 0-.346-.07-.629-.21-.847-.14-.224-.37-.429-.7-.616-.32-.187-.82-.398-1.48-.635-.93-.333-1.6-.727-2-1.183-.39-.456-.59-1.051-.59-1.784 0-.77.29-1.383.87-1.839s1.34-.684 2.29-.684c1 0 1.91.183 2.74.547l-.36 1.012c-.82-.346-1.62-.52-2.4-.52-.62 0-1.1.133-1.45.397-.34.264-.52.631-.52 1.1 0 .347.07.632.2.855.12.219.34.421.64.608.3.183.77.385 1.39.609 1.05.373 1.77.774 2.16 1.203.4.428.6.984.6 1.668zm6.63 2.659-.23-1.066h-.05c-.38.469-.75.788-1.12.957-.37.164-.84.246-1.39.246-.74 0-1.33-.192-1.75-.575-.42-.382-.63-.927-.63-1.633 0-1.513 1.21-2.306 3.63-2.379l1.27-.041v-.465c0-.588-.13-1.021-.38-1.299-.25-.282-.66-.424-1.21-.424-.63 0-1.33.192-2.12.575l-.35-.869c.37-.2.77-.357 1.21-.471s.88-.171 1.33-.171c.89 0 1.55.198 1.98.594.43.397.65 1.033.65 1.908v5.113zm-2.57-.8c.71 0 1.26-.193 1.67-.581.4-.387.6-.93.6-1.627v-.677l-1.13.048c-.9.032-1.56.173-1.96.424-.39.246-.59.631-.59 1.155 0 .411.12.723.37.937s.6.321 1.04.321zm11.03.8v-4.847c0-.61-.14-1.066-.42-1.367-.27-.301-.71-.451-1.3-.451-.79 0-1.36.212-1.73.636-.36.424-.54 1.123-.54 2.098v3.931h-1.14v-7.492h.93l.18 1.025h.06c.23-.369.55-.654.97-.854a3.16 3.16 0 0 1 1.4-.308c.91 0 1.59.219 2.04.656.46.433.69 1.128.69 2.085v4.888zm8.46-2.044c0 .697-.26 1.235-.78 1.613-.52.379-1.25.568-2.19.568-.99 0-1.77-.158-2.33-.472v-1.053c.36.183.75.326 1.16.431s.81.157 1.2.157c.59 0 1.04-.093 1.36-.28.32-.191.48-.481.48-.868 0-.292-.13-.54-.38-.745-.25-.21-.74-.456-1.48-.739-.69-.259-1.19-.485-1.49-.676-.29-.196-.51-.417-.65-.663a1.763 1.763 0 0 1 -.22-.882c0-.611.25-1.092.75-1.443.5-.355 1.18-.533 2.04-.533.81 0 1.6.164 2.37.492l-.4.923c-.76-.31-1.44-.465-2.05-.465-.54 0-.94.085-1.22.253-.27.169-.41.401-.41.697 0 .201.05.372.15.513.11.141.28.276.5.404.23.127.67.312 1.32.553.89.324 1.48.65 1.79.978.32.328.48.74.48 1.237zm-146.62 16.434h-1.907v6.61h-1.135v-6.61h-1.34v-.513l1.34-.41v-.417c0-1.841.804-2.762 2.413-2.762.397 0 .861.08 1.395.239l-.294.91c-.438-.142-.811-.212-1.121-.212-.429 0-.745.143-.951.43-.205.283-.307.739-.307 1.367v.486h1.907zm7.984 2.857c0 1.221-.308 2.176-.923 2.864-.615.684-1.465 1.026-2.55 1.026-.67 0-1.264-.158-1.784-.472-.519-.314-.92-.766-1.203-1.353-.282-.588-.424-1.277-.424-2.065 0-1.221.306-2.171.916-2.851.611-.683 1.459-1.025 2.543-1.025 1.048 0 1.88.349 2.495 1.046.62.697.93 1.641.93 2.83zm-5.708 0c0 .957.191 1.686.574 2.188.383.501.946.752 1.689.752s1.305-.249 1.688-.746c.388-.501.581-1.232.581-2.194 0-.952-.193-1.675-.581-2.167-.383-.497-.95-.745-1.702-.745-.743 0-1.303.244-1.682.731-.378.488-.567 1.215-.567 2.181zm12.981 3.753v-4.847c0-.61-.139-1.066-.417-1.367s-.713-.451-1.306-.451c-.783 0-1.358.212-1.722.636-.365.424-.547 1.123-.547 2.098v3.931h-1.135v-7.492h.923l.185 1.025h.054c.233-.369.559-.654.978-.854a3.145 3.145 0 0 1 1.401-.308c.903 0 1.582.219 2.037.656.456.433.684 1.128.684 2.085v4.888zm6.043-.8c.2 0 .394-.013.581-.041a4.11 4.11 0 0 0 .444-.096v.869a2.003 2.003 0 0 1 -.547.143 3.805 3.805 0 0 1 -.642.062c-1.45 0-2.174-.764-2.174-2.29v-4.457h-1.073v-.547l1.073-.472.478-1.6h.657v1.737h2.173v.882h-2.173v4.409c0 .451.107.797.321 1.039.214.241.508.362.882.362zm2.05-2.433v-1.039h3.357v1.039zm11.409 3.233-1.374-4.396c-.087-.268-.249-.879-.486-1.832h-.054a24.688 24.688 0 0 1 -.479 1.846l-1.415 4.382h-1.312l-2.044-7.492h1.189c.483 1.882.85 3.315 1.101 4.3.255.984.401 1.647.437 1.989h.055a18.058 18.058 0 0 1 .533-1.989l1.374-4.3h1.231l1.34 4.3c.255.783.428 1.442.519 1.975h.055c.018-.164.066-.417.143-.759.082-.341.559-2.18 1.429-5.516h1.176l-2.071 7.492zm8.093.137c-1.107 0-1.982-.338-2.625-1.012-.638-.674-.957-1.611-.957-2.81 0-1.207.296-2.167.889-2.877.597-.711 1.397-1.067 2.399-1.067.939 0 1.682.31 2.229.93.547.615.82 1.428.82 2.44v.718h-5.161c.023.88.244 1.547.663 2.003.424.456 1.019.684 1.784.684.807 0 1.604-.169 2.393-.506v1.011a5.761 5.761 0 0 1 -1.142.37 6.193 6.193 0 0 1 -1.292.116zm-.307-6.816c-.602 0-1.083.196-1.443.588-.355.392-.565.934-.629 1.627h3.917c0-.715-.159-1.262-.478-1.64-.319-.383-.775-.575-1.367-.575zm6.288 6.679h-1.134v-7.492h1.134zm-1.23-9.522c0-.26.064-.449.191-.568a.663.663 0 0 1 .479-.184c.182 0 .339.061.471.184.133.123.199.312.199.568 0 .255-.066.446-.199.574a.667.667 0 0 1 -.471.184.663.663 0 0 1 -.479-.184c-.127-.128-.191-.319-.191-.574zm9.918 2.03v.718l-1.387.164c.127.159.241.369.341.629.101.255.151.544.151.868 0 .733-.251 1.319-.752 1.757-.501.437-1.19.656-2.065.656-.223 0-.432-.018-.628-.055-.484.255-.725.577-.725.964 0 .205.084.358.253.458.168.096.458.144.868.144h1.326c.811 0 1.433.17 1.866.512.438.342.657.839.657 1.49 0 .83-.333 1.461-.998 1.894-.666.438-1.636.656-2.912.656-.98 0-1.737-.182-2.27-.547-.529-.364-.793-.879-.793-1.545 0-.455.146-.849.438-1.182.291-.333.701-.558 1.23-.677a1.209 1.209 0 0 1 -.485-.403 1.08 1.08 0 0 1 -.192-.636c0-.273.073-.513.219-.718s.376-.403.69-.594a2.046 2.046 0 0 1 -.95-.814 2.41 2.41 0 0 1 -.362-1.312c0-.821.246-1.452.738-1.894.492-.447 1.19-.67 2.092-.67.392 0 .745.046 1.06.137zm-5.974 8.75c0 .405.171.713.512.923.342.209.832.314 1.47.314.953 0 1.657-.143 2.112-.431.461-.282.691-.667.691-1.155 0-.405-.125-.688-.376-.847-.251-.155-.722-.233-1.415-.233h-1.36c-.515 0-.916.123-1.204.369-.287.246-.43.6-.43 1.06zm.615-6.351c0 .524.148.921.444 1.19.297.269.709.403 1.238.403 1.107 0 1.661-.538 1.661-1.613 0-1.126-.561-1.689-1.682-1.689-.533 0-.943.144-1.23.431s-.431.713-.431 1.278zm12.174 5.093v-4.847c0-.61-.139-1.066-.417-1.367s-.713-.451-1.305-.451c-.789 0-1.365.214-1.73.643-.36.428-.54 1.13-.54 2.105v3.917h-1.135v-10.637h1.135v3.22c0 .387-.018.709-.054.964h.068c.223-.36.54-.643.95-.848a3.1 3.1 0 0 1 1.415-.314c.916 0 1.602.219 2.057.656.46.433.69 1.123.69 2.071v4.888zm6.044-.8c.2 0 .39-.013.58-.041.19-.032.34-.064.44-.096v.869c-.12.059-.3.107-.54.143-.24.041-.45.062-.65.062-1.44 0-2.17-.764-2.17-2.29v-4.457h-1.07v-.547l1.07-.472.48-1.6h.66v1.737h2.17v.882h-2.17v4.409c0 .451.1.797.32 1.039.21.241.51.362.88.362zm2.51.075c0-.305.07-.535.21-.69.14-.16.34-.239.6-.239.27 0 .47.079.62.239.15.155.22.385.22.69 0 .297-.07.524-.22.684-.15.159-.36.239-.62.239a.82.82 0 0 1 -.58-.212c-.15-.146-.23-.382-.23-.711zm0-6.036c0-.615.27-.923.81-.923.56 0 .84.308.84.923 0 .296-.07.524-.22.684-.15.159-.36.239-.62.239a.824.824 0 0 1 -.58-.212c-.15-.146-.23-.383-.23-.711zm12.67 4.717c0 .697-.26 1.235-.78 1.613-.52.379-1.25.568-2.19.568-.99 0-1.76-.158-2.32-.472v-1.053c.36.183.74.326 1.15.431.42.105.82.157 1.2.157.59 0 1.05-.093 1.37-.28.32-.191.48-.481.48-.868 0-.292-.13-.54-.39-.745-.25-.21-.74-.456-1.47-.739-.7-.259-1.2-.485-1.49-.676a2.189 2.189 0 0 1 -.66-.663 1.76 1.76 0 0 1 -.21-.882c0-.611.25-1.092.74-1.443.5-.355 1.18-.533 2.05-.533.8 0 1.59.164 2.36.492l-.4.923c-.75-.31-1.43-.465-2.04-.465-.54 0-.95.085-1.22.253-.27.169-.41.401-.41.697 0 .201.05.372.15.513s.27.276.5.404c.23.127.66.312 1.31.553.89.324 1.49.65 1.8.978s.47.74.47 1.237zm5.17 2.181c-1.11 0-1.98-.338-2.63-1.012-.64-.674-.95-1.611-.95-2.81 0-1.207.29-2.167.88-2.877.6-.711 1.4-1.067 2.4-1.067.94 0 1.69.31 2.23.93.55.615.82 1.428.82 2.44v.718h-5.16c.02.88.25 1.547.66 2.003.43.456 1.02.684 1.79.684.81 0 1.6-.169 2.39-.506v1.011c-.4.174-.78.297-1.14.37-.36.077-.79.116-1.29.116zm-.31-6.816c-.6 0-1.08.196-1.44.588s-.57.934-.63 1.627h3.92c0-.715-.16-1.262-.48-1.64-.32-.383-.78-.575-1.37-.575zm14.7 6.679v-4.874c0-.597-.12-1.044-.38-1.34-.25-.301-.65-.451-1.19-.451-.7 0-1.23.203-1.56.608-.34.406-.51 1.03-.51 1.873v4.184h-1.13v-4.874c0-.597-.13-1.044-.39-1.34-.25-.301-.65-.451-1.19-.451-.71 0-1.24.214-1.57.643-.33.423-.49 1.121-.49 2.091v3.931h-1.14v-7.492h.93l.18 1.025h.06c.21-.364.51-.649.9-.854s.83-.308 1.31-.308c1.17 0 1.94.424 2.3 1.272h.05c.23-.392.55-.702.97-.93.43-.228.91-.342 1.45-.342.85 0 1.48.219 1.9.656.43.433.64 1.128.64 2.085v4.888zm4.77 0h-1.14v-7.492h1.14zm-1.23-9.522c0-.26.06-.449.19-.568a.672.672 0 0 1 .48-.184c.18 0 .34.061.47.184s.2.312.2.568c0 .255-.07.446-.2.574a.665.665 0 0 1 -.47.184.672.672 0 0 1 -.48-.184c-.13-.128-.19-.319-.19-.574zm7.27 1.907c.99 0 1.75.337 2.29 1.011.55.67.82 1.621.82 2.851 0 1.231-.27 2.188-.83 2.871-.54.679-1.3 1.019-2.28 1.019-.49 0-.93-.089-1.34-.267a2.52 2.52 0 0 1 -1.01-.834h-.08l-.24.964h-.82v-10.637h1.14v2.584c0 .579-.02 1.099-.06 1.559h.06c.53-.748 1.31-1.121 2.35-1.121zm-.16.95c-.78 0-1.34.223-1.68.67-.34.442-.51 1.189-.51 2.242s.17 1.807.53 2.263c.35.451.91.677 1.68.677.7 0 1.22-.253 1.56-.759.34-.511.52-1.242.52-2.195 0-.975-.18-1.702-.52-2.18-.34-.479-.87-.718-1.58-.718zm11.88 2.912c0 1.221-.31 2.176-.93 2.864-.61.684-1.46 1.026-2.55 1.026-.67 0-1.26-.158-1.78-.472a3.09 3.09 0 0 1 -1.2-1.353c-.29-.588-.43-1.277-.43-2.065 0-1.221.31-2.171.92-2.851.61-.683 1.46-1.025 2.54-1.025 1.05 0 1.88.349 2.5 1.046s.93 1.641.93 2.83zm-5.71 0c0 .957.19 1.686.57 2.188.39.501.95.752 1.69.752s1.31-.249 1.69-.746c.39-.501.58-1.232.58-2.194 0-.952-.19-1.675-.58-2.167-.38-.497-.95-.745-1.7-.745-.74 0-1.31.244-1.68.731-.38.488-.57 1.215-.57 2.181zm8.99 3.753h-1.14v-10.637h1.14zm7.65-1.005h-.06c-.52.761-1.31 1.142-2.35 1.142-.98 0-1.74-.335-2.29-1.005-.54-.67-.81-1.623-.81-2.858s.27-2.194.82-2.878c.54-.683 1.31-1.025 2.28-1.025 1.02 0 1.8.369 2.34 1.108h.09l-.05-.541-.03-.526v-3.049h1.14v10.637h-.93zm-2.27.192c.78 0 1.34-.21 1.69-.629.35-.424.52-1.106.52-2.044v-.24c0-1.061-.18-1.818-.53-2.269-.35-.456-.91-.684-1.69-.684-.66 0-1.17.26-1.53.78-.35.515-.53 1.244-.53 2.187 0 .957.18 1.679.53 2.167s.87.732 1.54.732zm-136.31 15.203h-1.907v6.61h-1.135v-6.61h-1.34v-.513l1.34-.41v-.417c0-1.841.804-2.762 2.413-2.762.397 0 .861.08 1.395.239l-.294.91c-.438-.142-.811-.212-1.121-.212-.429 0-.745.143-.951.43-.205.283-.307.739-.307 1.367v.486h1.907zm7.984 2.857c0 1.221-.308 2.176-.923 2.864-.615.684-1.465 1.026-2.55 1.026-.67 0-1.264-.158-1.784-.472-.519-.314-.92-.766-1.203-1.353-.282-.588-.424-1.277-.424-2.065 0-1.221.306-2.171.916-2.851.611-.683 1.459-1.025 2.543-1.025 1.048 0 1.88.349 2.495 1.046.62.697.93 1.641.93 2.83zm-5.708 0c0 .957.191 1.686.574 2.188.383.501.946.752 1.689.752s1.305-.249 1.688-.746c.388-.501.581-1.232.581-2.194 0-.952-.193-1.675-.581-2.167-.383-.497-.95-.745-1.702-.745-.743 0-1.303.244-1.682.731-.378.488-.567 1.215-.567 2.181zm12.981 3.753v-4.847c0-.61-.139-1.066-.417-1.367s-.713-.451-1.306-.451c-.783 0-1.358.212-1.722.636-.365.424-.547 1.123-.547 2.098v3.931h-1.135v-7.492h.923l.185 1.025h.054c.233-.369.559-.654.978-.854a3.145 3.145 0 0 1 1.401-.308c.903 0 1.582.219 2.037.656.456.433.684 1.128.684 2.085v4.888zm6.043-.8c.2 0 .394-.013.581-.041a4.11 4.11 0 0 0 .444-.096v.869a2.003 2.003 0 0 1 -.547.143 3.805 3.805 0 0 1 -.642.062c-1.45 0-2.174-.764-2.174-2.29v-4.457h-1.073v-.547l1.073-.472.478-1.6h.657v1.737h2.173v.882h-2.173v4.409c0 .451.107.797.321 1.039.214.241.508.362.882.362zm2.05-2.433v-1.039h3.357v1.039zm10.124 1.189c0 .697-.26 1.235-.78 1.613-.519.379-1.248.568-2.187.568-.994 0-1.768-.158-2.324-.472v-1.053c.36.183.745.326 1.155.431.415.105.813.157 1.196.157.593 0 1.048-.093 1.367-.28.319-.191.479-.481.479-.868 0-.292-.128-.54-.383-.745-.251-.21-.743-.456-1.476-.739-.698-.259-1.194-.485-1.491-.676a2.118 2.118 0 0 1 -.656-.663 1.75 1.75 0 0 1 -.212-.882c0-.611.249-1.092.745-1.443.497-.355 1.178-.533 2.044-.533a5.98 5.98 0 0 1 2.365.492l-.403.923c-.752-.31-1.433-.465-2.044-.465-.538 0-.943.085-1.217.253-.273.169-.41.401-.41.697 0 .201.05.372.151.513.104.141.271.276.499.404.228.127.665.312 1.312.553.889.324 1.488.65 1.798.978.314.328.472.74.472 1.237zm3.137 2.044h-1.135v-7.492h1.135zm-1.23-9.522c0-.26.063-.449.191-.568a.662.662 0 0 1 .478-.184c.183 0 .34.061.472.184s.198.312.198.568c0 .255-.066.446-.198.574a.668.668 0 0 1 -.472.184.662.662 0 0 1 -.478-.184c-.128-.128-.191-.319-.191-.574zm8.578 9.522h-5.434v-.772l4.088-5.838h-3.835v-.882h5.079v.882l-4.033 5.728h4.135zm5.072.137c-1.107 0-1.982-.338-2.625-1.012-.638-.674-.957-1.611-.957-2.81 0-1.207.296-2.167.889-2.877.597-.711 1.397-1.067 2.399-1.067.939 0 1.682.31 2.229.93.547.615.82 1.428.82 2.44v.718h-5.161c.023.88.244 1.547.663 2.003.424.456 1.019.684 1.784.684.807 0 1.604-.169 2.393-.506v1.011a5.761 5.761 0 0 1 -1.142.37 6.193 6.193 0 0 1 -1.292.116zm-.307-6.816c-.602 0-1.083.196-1.443.588-.355.392-.565.934-.629 1.627h3.917c0-.715-.159-1.262-.478-1.64-.319-.383-.775-.575-1.367-.575zm4.989 5.954c0-.305.069-.535.205-.69.142-.16.342-.239.602-.239.264 0 .469.079.615.239.151.155.226.385.226.69 0 .297-.075.524-.226.684-.15.159-.355.239-.615.239a.827.827 0 0 1 -.581-.212c-.15-.146-.226-.382-.226-.711zm0-6.036c0-.615.269-.923.807-.923.561 0 .841.308.841.923 0 .296-.075.524-.226.684-.15.159-.355.239-.615.239a.832.832 0 0 1 -.581-.212c-.15-.146-.226-.383-.226-.711zm11.517 6.761h-1.106v-7.123c0-.592.018-1.153.054-1.682a6.543 6.543 0 0 1 -.321.301c-.118.105-.661.549-1.627 1.333l-.601-.779 2.645-2.044h.956zm11-2.297h-1.48v2.297h-1.09v-2.297h-4.86v-.991l4.74-6.761h1.21v6.72h1.48zm-2.57-1.032v-3.322c0-.652.02-1.388.07-2.208h-.06c-.22.437-.42.799-.61 1.087l-3.13 4.443zm7.7 3.466c-.49 0-.94-.089-1.34-.267-.4-.182-.74-.46-1.02-.834h-.08c.06.438.08.852.08 1.244v3.083h-1.13v-10.855h.92l.16 1.025h.05c.3-.41.64-.706 1.02-.888a3.13 3.13 0 0 1 1.34-.274c.99 0 1.76.34 2.29 1.019.55.679.82 1.631.82 2.857 0 1.231-.28 2.188-.83 2.871-.55.679-1.31 1.019-2.28 1.019zm-.17-6.802c-.76 0-1.32.212-1.66.636s-.52 1.098-.53 2.023v.253c0 1.053.18 1.807.53 2.263.35.451.91.677 1.69.677.65 0 1.15-.263 1.52-.787s.55-1.246.55-2.167c0-.934-.18-1.649-.55-2.146-.37-.501-.88-.752-1.55-.752zm7.22 2.83-2.6-3.657h1.29l1.97 2.871 1.97-2.871h1.28l-2.6 3.657 2.74 3.835h-1.29l-2.1-3.035-2.12 3.035h-1.28zm-88.793 24.972c-1.084 0-1.925-.333-2.522-.998-.593-.67-.889-1.616-.889-2.837 0-1.253.301-2.222.902-2.906.607-.683 1.468-1.025 2.584-1.025.36 0 .721.039 1.081.116.36.078.642.169.847.274l-.348.964a4.97 4.97 0 0 0 -.821-.246 3.509 3.509 0 0 0 -.786-.103c-1.522 0-2.283.971-2.283 2.912 0 .921.184 1.627.554 2.119.373.492.925.739 1.654.739.624 0 1.265-.135 1.921-.404v1.005c-.501.26-1.133.39-1.894.39zm10.295-3.89c0 1.221-.308 2.176-.923 2.864-.615.684-1.465 1.026-2.55 1.026-.67 0-1.265-.158-1.784-.472-.52-.314-.921-.766-1.203-1.353-.283-.588-.424-1.277-.424-2.065 0-1.221.305-2.171.916-2.851.611-.683 1.458-1.025 2.543-1.025 1.048 0 1.88.349 2.495 1.046.62.697.93 1.641.93 2.83zm-5.708 0c0 .957.191 1.686.574 2.188.383.501.946.752 1.688.752.743 0 1.306-.249 1.689-.746.387-.501.581-1.232.581-2.194 0-.952-.194-1.675-.581-2.167-.383-.497-.95-.745-1.702-.745-.743 0-1.304.244-1.682.731-.378.488-.567 1.215-.567 2.181zm8.989 3.753h-1.135v-10.637h1.135zm9.023-3.753c0 1.221-.308 2.176-.923 2.864-.615.684-1.465 1.026-2.55 1.026-.67 0-1.265-.158-1.784-.472-.52-.314-.921-.766-1.203-1.353-.283-.588-.424-1.277-.424-2.065 0-1.221.305-2.171.916-2.851.611-.683 1.458-1.025 2.543-1.025 1.048 0 1.88.349 2.495 1.046.62.697.93 1.641.93 2.83zm-5.708 0c0 .957.191 1.686.574 2.188.383.501.946.752 1.688.752.743 0 1.306-.249 1.689-.746.387-.501.581-1.232.581-2.194 0-.952-.194-1.675-.581-2.167-.383-.497-.95-.745-1.702-.745-.743 0-1.304.244-1.682.731-.378.488-.567 1.215-.567 2.181zm11.272-3.876c.332 0 .631.027.895.082l-.157 1.053a3.89 3.89 0 0 0 -.82-.103c-.606 0-1.126.246-1.559.739-.428.492-.642 1.105-.642 1.838v4.02h-1.135v-7.492h.936l.13 1.388h.055c.278-.488.613-.864 1.005-1.128a2.256 2.256 0 0 1 1.292-.397zm2.283 6.904c0-.305.068-.535.205-.69.141-.16.341-.239.601-.239.265 0 .47.079.615.239.151.155.226.385.226.69 0 .297-.075.524-.226.684-.15.159-.355.239-.615.239a.827.827 0 0 1 -.581-.212c-.15-.146-.225-.382-.225-.711zm0-6.036c0-.615.268-.923.806-.923.561 0 .841.308.841.923 0 .296-.075.524-.226.684-.15.159-.355.239-.615.239a.832.832 0 0 1 -.581-.212c-.15-.146-.225-.383-.225-.711zm13.336.615-.451 2.325h1.934v.882h-2.099l-.574 2.939h-.936l.574-2.939h-2.071l-.561 2.939h-.93l.547-2.939h-1.791v-.882h1.962l.465-2.325h-1.894v-.868h2.044l.561-2.98h.95l-.56 2.98h2.085l.574-2.98h.916l-.574 2.98h1.804v.868zm-3.459 2.325h2.071l.451-2.325h-2.071zm13.206 3.821h-6.569v-.978l2.632-2.645c.802-.811 1.331-1.39 1.586-1.736a4.47 4.47 0 0 0 .574-1.012c.128-.328.191-.681.191-1.06 0-.533-.161-.954-.485-1.264-.323-.315-.772-.472-1.347-.472-.414 0-.809.068-1.182.205-.369.137-.782.385-1.238.745l-.601-.772c.92-.766 1.923-1.149 3.008-1.149.939 0 1.675.242 2.208.725.533.478.8 1.123.8 1.934 0 .634-.178 1.261-.534 1.88-.355.62-1.02 1.404-1.996 2.352l-2.187 2.14v.054h5.14zm4.717-6.104c1.053 0 1.88.262 2.481.786.606.519.909 1.232.909 2.139 0 1.035-.33 1.846-.991 2.434-.656.588-1.563.882-2.721.882-1.125 0-1.984-.18-2.577-.54v-1.094c.319.205.716.367 1.19.485.474.114.941.171 1.401.171.802 0 1.424-.189 1.866-.567.447-.378.67-.925.67-1.641 0-1.394-.854-2.092-2.563-2.092-.433 0-1.012.066-1.737.199l-.587-.376.376-4.676h4.969v1.046h-3.999l-.253 3.001a7.952 7.952 0 0 1 1.566-.157zm11.607 6.104h-6.57v-.978l2.63-2.645c.8-.811 1.33-1.39 1.59-1.736.25-.347.44-.684.57-1.012s.19-.681.19-1.06c0-.533-.16-.954-.48-1.264-.33-.315-.77-.472-1.35-.472-.41 0-.81.068-1.18.205s-.782.385-1.238.745l-.602-.772c.921-.766 1.92-1.149 3.01-1.149.94 0 1.67.242 2.21.725.53.478.8 1.123.8 1.934 0 .634-.18 1.261-.54 1.88-.35.62-1.02 1.404-1.99 2.352l-2.191 2.14v.054h5.141zm6.72 0-.23-1.066h-.05c-.37.469-.75.788-1.12.957-.37.164-.83.246-1.39.246-.74 0-1.33-.192-1.75-.575-.42-.382-.63-.927-.63-1.633 0-1.513 1.21-2.306 3.63-2.379l1.27-.041v-.465c0-.588-.13-1.021-.38-1.299-.25-.282-.65-.424-1.21-.424-.62 0-1.33.192-2.12.575l-.35-.869c.37-.2.77-.357 1.21-.471s.89-.171 1.33-.171c.89 0 1.55.198 1.98.594.43.397.65 1.033.65 1.908v5.113zm-2.56-.8c.7 0 1.26-.193 1.66-.581.4-.387.61-.93.61-1.627v-.677l-1.14.048c-.9.032-1.55.173-1.95.424-.4.246-.6.631-.6 1.155 0 .411.12.723.37.937s.6.321 1.05.321zm11.94.8h-6.56v-.978l2.63-2.645c.8-.811 1.33-1.39 1.58-1.736.26-.347.45-.684.58-1.012.12-.328.19-.681.19-1.06 0-.533-.16-.954-.49-1.264-.32-.315-.77-.472-1.34-.472-.42 0-.81.068-1.19.205-.37.137-.78.385-1.23.745l-.6-.772c.92-.766 1.92-1.149 3-1.149.94 0 1.68.242 2.21.725.53.478.8 1.123.8 1.934 0 .634-.18 1.261-.53 1.88-.36.62-1.02 1.404-2 2.352l-2.19 2.14v.054h5.14zm5.28.137c-1.11 0-1.98-.338-2.62-1.012s-.96-1.611-.96-2.81c0-1.207.3-2.167.89-2.877.6-.711 1.39-1.067 2.4-1.067.94 0 1.68.31 2.23.93.54.615.82 1.428.82 2.44v.718h-5.16c.02.88.24 1.547.66 2.003s1.02.684 1.78.684c.81 0 1.61-.169 2.4-.506v1.011a6.02 6.02 0 0 1 -1.15.37c-.35.077-.78.116-1.29.116zm-.31-6.816c-.6 0-1.08.196-1.44.588-.35.392-.56.934-.63 1.627h3.92c0-.715-.16-1.262-.48-1.64-.32-.383-.77-.575-1.37-.575z" fill="#fff"/><path d="m939.5 14.5h148v55h-148zm-459 29h156v32h-156z" fill="#252a2e" stroke="#979797"/><path d="m881.5 40.5h58m-73 96h58" stroke="#ff60bd" stroke-linecap="square"/><path d="m954.888 35h-1.108v-7.123c0-.592.019-1.153.055-1.682a7.667 7.667 0 0 1 -.321.301c-.119.105-.661.55-1.627 1.333l-.602-.78 2.646-2.043h.957zm7.963.137c-.487 0-.934-.09-1.34-.267a2.542 2.542 0 0 1 -1.011-.834h-.082c.054.438.082.852.082 1.244v3.083h-1.135v-10.855h.923l.157 1.025h.055c.291-.41.631-.706 1.018-.889a3.1 3.1 0 0 1 1.333-.273c.994 0 1.759.34 2.297 1.019.542.679.814 1.631.814 2.857 0 1.23-.276 2.188-.828 2.871-.547.68-1.308 1.019-2.283 1.019zm-.164-6.802c-.766 0-1.319.212-1.661.636s-.517 1.098-.526 2.023v.253c0 1.053.175 1.807.526 2.263.351.45.914.677 1.688.677.648 0 1.153-.262 1.518-.787.369-.524.554-1.246.554-2.167 0-.934-.185-1.65-.554-2.146-.365-.501-.88-.752-1.545-.752zm7.218 2.83-2.604-3.657h1.292l1.976 2.87 1.968-2.87h1.279l-2.605 3.657 2.741 3.835h-1.285l-2.098-3.035-2.12 3.035h-1.285zm15.592 3.835-1.374-4.395c-.086-.27-.248-.88-.485-1.832h-.055a24.828 24.828 0 0 1 -.478 1.845l-1.415 4.382h-1.313l-2.044-7.492h1.19c.483 1.882.85 3.315 1.1 4.3.256.984.401 1.647.438 1.989h.055a18.34 18.34 0 0 1 .533-1.99l1.374-4.3h1.23l1.34 4.3c.255.785.429 1.443.52 1.976h.054c.019-.164.066-.417.144-.759.082-.341.558-2.18 1.429-5.516h1.175l-2.071 7.492zm6.064 0h-1.135v-7.492h1.135zm-1.231-9.523c0-.26.064-.448.191-.567a.664.664 0 0 1 .479-.184.67.67 0 0 1 .472.184c.132.123.198.312.198.567 0 .256-.066.447-.198.575a.67.67 0 0 1 -.472.184.665.665 0 0 1 -.479-.184c-.127-.128-.191-.32-.191-.575zm8.886 8.518h-.061c-.524.761-1.308 1.142-2.352 1.142-.979 0-1.743-.335-2.29-1.005-.542-.67-.813-1.623-.813-2.858s.273-2.194.82-2.878c.547-.683 1.308-1.025 2.283-1.025 1.017 0 1.796.37 2.338 1.108h.089l-.048-.54-.027-.527v-3.049h1.135v10.637h-.923zm-2.269.192c.775 0 1.335-.21 1.682-.63.35-.423.526-1.105.526-2.043v-.24c0-1.061-.178-1.818-.533-2.27-.351-.455-.914-.683-1.689-.683-.665 0-1.176.26-1.531.78-.351.515-.526 1.244-.526 2.187 0 .957.175 1.68.526 2.167.351.488.866.732 1.545.732zm9.073.95c-1.11 0-1.98-.337-2.63-1.012-.64-.675-.95-1.611-.95-2.81 0-1.207.29-2.167.88-2.878.6-.71 1.4-1.066 2.4-1.066.94 0 1.69.31 2.23.93.55.615.82 1.429.82 2.44v.718h-5.16c.02.88.25 1.547.66 2.003.43.456 1.02.683 1.79.683.81 0 1.6-.168 2.39-.505v1.011c-.4.173-.78.297-1.14.37-.36.077-.79.116-1.29.116zm-.31-6.816c-.6 0-1.08.196-1.44.588s-.57.934-.63 1.627h3.92c0-.715-.16-1.262-.48-1.64-.32-.383-.78-.575-1.37-.575zm15.07-.813v.718l-1.39.164c.13.16.25.369.35.629.1.255.15.544.15.868 0 .733-.25 1.32-.75 1.757-.51.437-1.19.656-2.07.656-.22 0-.43-.018-.63-.055-.48.255-.72.577-.72.964 0 .205.08.358.25.458.17.096.46.143.87.143h1.32c.82 0 1.44.171 1.87.513.44.342.66.839.66 1.49 0 .83-.34 1.461-1 1.894-.67.438-1.64.656-2.91.656-.98 0-1.74-.182-2.27-.547-.53-.364-.8-.88-.8-1.544 0-.456.15-.85.44-1.183s.7-.558 1.23-.677a1.192 1.192 0 0 1 -.48-.403 1.063 1.063 0 0 1 -.19-.636c0-.273.07-.513.21-.718.15-.205.38-.403.69-.595-.38-.159-.7-.43-.95-.813-.24-.383-.36-.82-.36-1.312 0-.82.25-1.452.74-1.894.49-.447 1.19-.67 2.09-.67.39 0 .75.046 1.06.137zm-5.97 8.75c0 .405.17.713.51.923s.83.314 1.47.314c.95 0 1.66-.143 2.11-.43.46-.283.69-.668.69-1.156 0-.405-.12-.688-.37-.847-.25-.155-.73-.233-1.42-.233h-1.36c-.51 0-.91.123-1.2.37-.29.245-.43.599-.43 1.059zm.61-6.35c0 .523.15.92.45 1.189.29.269.71.403 1.23.403 1.11 0 1.67-.538 1.67-1.613 0-1.126-.56-1.689-1.69-1.689-.53 0-.94.144-1.23.43-.28.288-.43.714-.43 1.28zm10.47-2.537c.33 0 .63.027.89.082l-.15 1.053a3.915 3.915 0 0 0 -.82-.103c-.61 0-1.13.246-1.56.739-.43.492-.64 1.105-.64 1.838v4.02h-1.14v-7.492h.94l.13 1.387h.05c.28-.487.61-.863 1.01-1.127a2.25 2.25 0 0 1 1.29-.397zm3.58 7.629h-1.13v-7.492h1.13zm-1.23-9.523c0-.26.06-.448.19-.567a.672.672 0 0 1 .48-.184c.18 0 .34.061.47.184s.2.312.2.567c0 .256-.07.447-.2.575a.665.665 0 0 1 -.47.184.672.672 0 0 1 -.48-.184c-.13-.128-.19-.32-.19-.575zm8.89 8.518h-.07c-.52.761-1.3 1.142-2.35 1.142-.98 0-1.74-.335-2.29-1.005-.54-.67-.81-1.623-.81-2.858s.27-2.194.82-2.878c.55-.683 1.31-1.025 2.28-1.025 1.02 0 1.8.37 2.34 1.108h.09l-.05-.54-.03-.527v-3.049h1.14v10.637h-.92zm-2.27.192c.77 0 1.33-.21 1.68-.63.35-.423.52-1.105.52-2.043v-.24c0-1.061-.17-1.818-.53-2.27-.35-.455-.91-.683-1.69-.683-.66 0-1.17.26-1.53.78-.35.515-.52 1.244-.52 2.187 0 .957.17 1.68.52 2.167.35.488.87.732 1.55.732zm10.82.813h-1.13v-10.637h1.13zm3.7 0h-1.14v-7.492h1.14zm-1.24-9.523c0-.26.07-.448.2-.567a.632.632 0 0 1 .47-.184c.19 0 .34.061.48.184.13.123.19.312.19.567 0 .256-.06.447-.19.575a.689.689 0 0 1 -.48.184.632.632 0 0 1 -.47-.184c-.13-.128-.2-.32-.2-.575zm8.92 9.523v-4.847c0-.61-.14-1.066-.42-1.367-.28-.3-.71-.451-1.3-.451-.79 0-1.36.212-1.73.636-.36.424-.54 1.123-.54 2.098v3.931h-1.14v-7.492h.92l.19 1.025h.05c.24-.369.56-.654.98-.854.42-.205.89-.308 1.4-.308.9 0 1.58.219 2.04.656.46.433.68 1.128.68 2.085v4.888zm6.79.137c-1.11 0-1.99-.337-2.63-1.012s-.96-1.611-.96-2.81c0-1.207.3-2.167.89-2.878.6-.71 1.4-1.066 2.4-1.066.94 0 1.68.31 2.23.93.55.615.82 1.429.82 2.44v.718h-5.16c.02.88.24 1.547.66 2.003.43.456 1.02.683 1.79.683.8 0 1.6-.168 2.39-.505v1.011c-.4.173-.78.297-1.14.37-.36.077-.79.116-1.29.116zm-.31-6.816c-.6 0-1.08.196-1.44.588s-.57.934-.63 1.627h3.91c0-.715-.16-1.262-.47-1.64-.32-.383-.78-.575-1.37-.575zm9.99 4.635c0 .697-.26 1.235-.78 1.613-.52.379-1.25.568-2.19.568-1 0-1.77-.157-2.33-.472v-1.053c.36.183.75.326 1.16.431s.81.157 1.2.157c.59 0 1.04-.093 1.36-.28.32-.192.48-.48.48-.868 0-.292-.13-.54-.38-.745-.25-.21-.74-.456-1.48-.739-.7-.26-1.19-.485-1.49-.676-.29-.196-.51-.417-.65-.663-.15-.247-.22-.54-.22-.882 0-.611.25-1.092.75-1.443.5-.355 1.18-.533 2.04-.533.81 0 1.6.164 2.37.492l-.41.923c-.75-.31-1.43-.465-2.04-.465-.54 0-.94.085-1.22.253-.27.169-.41.401-.41.697 0 .201.05.372.15.513.11.142.28.276.5.404.23.127.67.312 1.32.553.88.324 1.48.65 1.79.978.32.328.48.74.48 1.237zm-116.824 16.898-.451 2.325h1.934v.881h-2.098l-.574 2.94h-.937l.574-2.94h-2.071l-.561 2.94h-.929l.547-2.94h-1.791v-.881h1.962l.464-2.325h-1.893v-.868h2.044l.56-2.98h.951l-.561 2.98h2.085l.574-2.98h.916l-.574 2.98h1.805v.869h-1.976zm-3.459 2.325h2.071l.452-2.325h-2.072zm6.754-.452c0-1.964.38-3.431 1.141-4.402.766-.975 1.896-1.463 3.391-1.463.515 0 .92.044 1.217.13v.978a3.896 3.896 0 0 0 -1.204-.171c-1.07 0-1.889.335-2.454 1.005-.565.665-.875 1.713-.929 3.144h.082c.501-.784 1.294-1.175 2.379-1.175.897 0 1.604.27 2.119.813.519.542.779 1.278.779 2.208 0 1.039-.285 1.857-.854 2.454-.566.593-1.331.889-2.297.889-1.035 0-1.855-.388-2.461-1.162-.606-.78-.909-1.862-.909-3.248zm3.356 3.446c.647 0 1.148-.203 1.504-.608.36-.41.54-1 .54-1.771 0-.66-.166-1.18-.499-1.559-.333-.378-.829-.567-1.49-.567-.41 0-.786.084-1.128.253a2.12 2.12 0 0 0 -.821.697c-.2.296-.3.604-.3.923 0 .47.091.907.273 1.313.182.405.44.726.773.963.337.237.72.356 1.148.356zm9.816.827-.226-1.066h-.054c-.374.469-.748.788-1.121.957-.369.164-.832.246-1.388.246-.743 0-1.326-.192-1.75-.575-.419-.382-.629-.927-.629-1.633 0-1.513 1.21-2.306 3.63-2.38l1.271-.04v-.465c0-.588-.127-1.02-.382-1.299-.251-.282-.654-.424-1.21-.424-.625 0-1.331.192-2.119.575l-.349-.869c.369-.2.772-.357 1.21-.471a5.29 5.29 0 0 1 1.326-.171c.893 0 1.554.198 1.982.595.433.396.65 1.032.65 1.907v5.113zm-2.563-.8c.706 0 1.26-.194 1.661-.58.405-.388.608-.93.608-1.628v-.677l-1.135.048c-.902.032-1.554.173-1.955.424-.396.246-.594.631-.594 1.155 0 .41.123.723.369.937.25.214.599.321 1.046.321zm5.495-3.473c0-1.964.381-3.431 1.142-4.402.766-.975 1.896-1.463 3.391-1.463.514 0 .92.044 1.216.13v.978a3.894 3.894 0 0 0 -1.203-.171c-1.071 0-1.889.335-2.454 1.005-.565.665-.875 1.713-.93 3.144h.082c.502-.784 1.295-1.175 2.379-1.175.898 0 1.604.27 2.119.813.52.542.78 1.278.78 2.208 0 1.039-.285 1.857-.855 2.454-.565.593-1.33.889-2.297.889-1.034 0-1.854-.388-2.461-1.162-.606-.78-.909-1.862-.909-3.248zm3.357 3.446c.647 0 1.148-.203 1.504-.608.36-.41.54-1 .54-1.771 0-.66-.167-1.18-.499-1.559-.333-.378-.83-.567-1.491-.567-.41 0-.786.084-1.128.253a2.118 2.118 0 0 0 -.82.697c-.2.296-.301.604-.301.923 0 .47.092.907.274 1.313.182.405.44.726.772.963.338.237.72.356 1.149.356zm8.373.964c-1.107 0-1.982-.337-2.625-1.012-.638-.675-.957-1.611-.957-2.81 0-1.207.297-2.167.889-2.877.597-.711 1.397-1.067 2.399-1.067.939 0 1.682.31 2.229.93.547.615.82 1.428.82 2.44v.718h-5.161c.023.88.244 1.547.663 2.003.424.456 1.019.683 1.784.683.807 0 1.605-.168 2.393-.505v1.011a5.808 5.808 0 0 1 -1.142.37 6.158 6.158 0 0 1 -1.292.116zm-.307-6.816c-.602 0-1.083.196-1.443.588-.355.392-.565.934-.629 1.627h3.917c0-.715-.159-1.262-.478-1.64-.319-.383-.775-.575-1.367-.575zm5.899 6.679 4.142-8.948h-5.448v-1.046h6.651v.909l-4.087 9.085zm13.463-5.728c0 3.91-1.51 5.865-4.54 5.865-.52 0-.94-.046-1.25-.137v-.977c.36.118.78.177 1.24.177 1.09 0 1.92-.337 2.48-1.012.56-.679.86-1.718.91-3.117h-.08c-.25.379-.58.668-1 .869-.41.195-.88.293-1.4.293-.88 0-1.59-.264-2.11-.793-.52-.528-.78-1.267-.78-2.214 0-1.04.29-1.86.87-2.461.59-.602 1.35-.903 2.3-.903.68 0 1.27.176 1.78.527.51.346.9.854 1.17 1.524.28.666.41 1.452.41 2.359zm-3.36-3.439c-.65 0-1.16.21-1.51.629-.36.42-.53 1.002-.53 1.75 0 .656.16 1.173.49 1.552.33.373.83.56 1.5.56.41 0 .79-.084 1.14-.253.35-.168.62-.398.82-.69s.3-.597.3-.916c0-.479-.09-.92-.28-1.326a2.22 2.22 0 0 0 -.78-.957 1.961 1.961 0 0 0 -1.15-.349zm-513.642 18.167h-1.108v-7.123c0-.593.019-1.153.055-1.682a7.667 7.667 0 0 1 -.321.301c-.119.105-.661.55-1.627 1.333l-.602-.78 2.646-2.043h.957zm4.074-4.273c0-1.964.38-3.431 1.141-4.402.766-.975 1.896-1.463 3.391-1.463.515 0 .92.044 1.217.13v.978a3.896 3.896 0 0 0 -1.204-.171c-1.071 0-1.889.335-2.454 1.005-.565.665-.875 1.713-.929 3.144h.082c.501-.784 1.294-1.175 2.379-1.175.897 0 1.604.27 2.119.813.519.542.779 1.278.779 2.208 0 1.039-.285 1.857-.854 2.454-.566.593-1.331.889-2.297.889-1.035 0-1.855-.388-2.461-1.162-.606-.78-.909-1.862-.909-3.248zm3.356 3.446c.647 0 1.148-.203 1.504-.608.36-.41.54-1 .54-1.771 0-.66-.166-1.18-.499-1.559-.333-.378-.83-.567-1.49-.567-.411 0-.786.084-1.128.253a2.114 2.114 0 0 0 -.821.697c-.2.296-.3.604-.3.923 0 .47.091.907.273 1.313.182.405.44.726.773.963.337.237.72.356 1.148.356zm8.695.964c-.488 0-.934-.09-1.34-.267a2.551 2.551 0 0 1 -1.012-.834h-.082c.055.438.082.852.082 1.244v3.083h-1.134v-10.855h.922l.158 1.025h.054c.292-.41.632-.706 1.019-.889.387-.182.832-.273 1.333-.273.993 0 1.759.34 2.297 1.019.542.679.813 1.631.813 2.857 0 1.23-.275 2.188-.827 2.871-.547.68-1.308 1.019-2.283 1.019zm-.164-6.802c-.766 0-1.32.212-1.661.636-.342.424-.518 1.098-.527 2.023v.253c0 1.053.176 1.807.527 2.263.351.45.913.676 1.688.676.647 0 1.153-.262 1.518-.786.369-.524.553-1.246.553-2.167 0-.934-.184-1.65-.553-2.146-.365-.501-.88-.752-1.545-.752zm7.218 2.83-2.604-3.657h1.292l1.975 2.87 1.969-2.87h1.278l-2.604 3.657 2.741 3.835h-1.285l-2.099-3.035-2.119 3.035h-1.285zm11.115 3.835-2.844-7.492h1.217l1.613 4.443c.365 1.04.579 1.714.643 2.024h.054c.05-.242.208-.741.472-1.498.269-.76.868-2.417 1.798-4.97h1.217l-2.844 7.493zm8.688.137c-1.108 0-1.983-.338-2.625-1.012-.638-.675-.957-1.611-.957-2.81 0-1.207.296-2.167.888-2.877.597-.711 1.397-1.067 2.4-1.067.939 0 1.681.31 2.228.93.547.615.821 1.428.821 2.44v.718h-5.162c.023.88.244 1.547.664 2.003.423.456 1.018.683 1.784.683.806 0 1.604-.168 2.392-.505v1.011a5.8 5.8 0 0 1 -1.141.37 6.165 6.165 0 0 1 -1.292.116zm-.308-6.816c-.601 0-1.082.196-1.442.588-.356.392-.565.934-.629 1.627h3.917c0-.715-.16-1.262-.479-1.64-.319-.383-.774-.575-1.367-.575zm8.572-.95c.333 0 .631.027.895.082l-.157 1.053a3.861 3.861 0 0 0 -.82-.103c-.606 0-1.126.246-1.559.739-.428.492-.642 1.105-.642 1.838v4.02h-1.135v-7.492h.937l.129 1.387h.055c.278-.487.613-.863 1.005-1.127a2.263 2.263 0 0 1 1.292-.397zm4.867 6.83c.2 0 .394-.014.581-.042.187-.032.335-.064.444-.096v.869c-.123.059-.305.107-.547.143a3.8 3.8 0 0 1 -.642.062c-1.449 0-2.174-.764-2.174-2.29v-4.457h-1.073v-.547l1.073-.472.478-1.6h.657v1.737h2.173v.882h-2.173v4.409c0 .451.107.797.321 1.039.214.241.508.362.882.362zm3.814.799h-1.135v-7.492h1.135zm-1.231-9.523c0-.26.064-.448.192-.567a.66.66 0 0 1 .478-.184c.183 0 .34.061.472.184s.198.312.198.568c0 .255-.066.446-.198.574a.668.668 0 0 1 -.472.184.66.66 0 0 1 -.478-.184c-.128-.128-.192-.32-.192-.575zm6.781 9.66c-1.084 0-1.925-.333-2.522-.998-.593-.67-.889-1.616-.889-2.837 0-1.254.301-2.222.902-2.905.607-.684 1.468-1.026 2.584-1.026.36 0 .72.039 1.081.116.36.078.642.169.847.274l-.348.964a5.119 5.119 0 0 0 -.821-.247 3.546 3.546 0 0 0 -.786-.102c-1.522 0-2.283.97-2.283 2.912 0 .92.184 1.627.554 2.12.373.491.925.737 1.654.737.624 0 1.265-.134 1.921-.403v1.005c-.502.26-1.133.39-1.894.39zm8.435-.137-.225-1.066h-.055c-.374.469-.747.788-1.121.957-.369.164-.832.246-1.388.246-.743 0-1.326-.192-1.75-.575-.419-.382-.629-.927-.629-1.633 0-1.513 1.21-2.306 3.63-2.38l1.272-.04v-.465c0-.588-.128-1.02-.383-1.299-.251-.282-.654-.424-1.21-.424-.624 0-1.331.192-2.119.575l-.349-.869c.369-.2.773-.357 1.21-.471a5.29 5.29 0 0 1 1.326-.171c.894 0 1.554.198 1.983.595.433.396.649 1.032.649 1.907v5.113zm-2.563-.8c.706 0 1.26-.194 1.661-.58.406-.388.608-.93.608-1.628v-.677l-1.134.048c-.903.032-1.554.173-1.955.424-.397.246-.595.631-.595 1.155 0 .41.123.723.369.937.251.214.599.321 1.046.321zm7.034.8h-1.135v-10.637h1.135zm9.829.137c-.488 0-.934-.09-1.34-.267a2.551 2.551 0 0 1 -1.012-.834h-.082c.055.438.082.852.082 1.244v3.083h-1.134v-10.855h.923l.157 1.025h.054c.292-.41.632-.706 1.019-.889.387-.182.832-.273 1.333-.273.993 0 1.759.34 2.297 1.019.542.679.813 1.631.813 2.857 0 1.23-.275 2.188-.827 2.871-.547.68-1.308 1.019-2.283 1.019zm-.164-6.802c-.766 0-1.319.212-1.661.636s-.517 1.098-.527 2.023v.253c0 1.053.176 1.807.527 2.263.351.45.914.676 1.688.676.647 0 1.153-.262 1.518-.786.369-.524.554-1.246.554-2.167 0-.934-.185-1.65-.554-2.146-.365-.501-.88-.752-1.545-.752zm10.021 6.665-.226-1.066h-.054c-.374.469-.748.788-1.121.957-.369.164-.832.246-1.388.246-.743 0-1.326-.192-1.75-.575-.419-.382-.629-.927-.629-1.633 0-1.513 1.21-2.306 3.63-2.38l1.271-.04v-.465c0-.588-.127-1.02-.382-1.299-.251-.282-.654-.424-1.21-.424-.625 0-1.331.192-2.119.575l-.349-.869c.369-.2.772-.357 1.21-.471a5.29 5.29 0 0 1 1.326-.171c.893 0 1.554.198 1.982.595.433.396.65 1.032.65 1.907v5.113zm-2.563-.8c.706 0 1.26-.194 1.661-.58.405-.388.608-.93.608-1.628v-.677l-1.135.048c-.902.032-1.554.173-1.955.424-.396.246-.594.631-.594 1.155 0 .41.123.723.369.937.25.214.599.321 1.046.321zm10.998-.205h-.061c-.524.761-1.308 1.142-2.352 1.142-.98 0-1.743-.335-2.29-1.005-.542-.67-.813-1.623-.813-2.858s.273-2.194.82-2.877c.547-.684 1.308-1.026 2.283-1.026 1.016 0 1.796.37 2.338 1.107h.089l-.048-.54-.027-.526v-3.049h1.134v10.637h-.922zm-2.269.191c.774 0 1.335-.21 1.681-.628.351-.424.527-1.105.527-2.044v-.24c0-1.061-.178-1.818-.534-2.27-.35-.455-.913-.683-1.688-.683-.665 0-1.176.26-1.531.78-.351.515-.527 1.244-.527 2.187 0 .957.176 1.68.527 2.167.351.488.866.731 1.545.731zm11.005-.19h-.061c-.524.76-1.308 1.14-2.352 1.14-.98 0-1.743-.334-2.29-1.004-.542-.67-.813-1.623-.813-2.858s.273-2.194.82-2.877c.547-.684 1.308-1.026 2.283-1.026 1.016 0 1.796.37 2.338 1.107h.089l-.048-.54-.027-.526v-3.049h1.134v10.637h-.922l-.151-1.005zm-2.269.19c.774 0 1.335-.21 1.681-.628.351-.424.527-1.105.527-2.044v-.24c0-1.061-.178-1.818-.534-2.27-.351-.455-.913-.683-1.688-.683-.665 0-1.176.26-1.531.78-.351.515-.527 1.244-.527 2.187 0 .957.176 1.68.527 2.167.351.488.866.731 1.545.731zm7.04.814h-1.135v-7.492h1.135zm-1.23-9.523c0-.26.064-.448.191-.567a.663.663 0 0 1 .479-.184c.182 0 .339.061.471.184.133.123.199.312.199.568 0 .255-.066.446-.199.574a.667.667 0 0 1 -.471.184.663.663 0 0 1 -.479-.184c-.127-.128-.191-.32-.191-.575zm8.913 9.523v-4.847c0-.61-.139-1.066-.417-1.367-.278-.3-.713-.451-1.305-.451-.784 0-1.358.212-1.723.636-.364.424-.547 1.123-.547 2.098v3.931h-1.135v-7.492h.923l.185 1.025h.055c.232-.369.558-.654.977-.854a3.147 3.147 0 0 1 1.401-.308c.903 0 1.582.219 2.038.656.455.433.683 1.128.683 2.085v4.888zm9.755-7.492v.718l-1.388.164c.128.16.242.369.342.629.1.255.15.544.15.868 0 .733-.25 1.32-.752 1.757-.501.437-1.189.656-2.064.656-.223 0-.433-.018-.629-.055-.483.255-.725.577-.725.964 0 .205.085.358.253.458.169.096.458.143.869.143h1.326c.811 0 1.433.171 1.866.513.437.342.656.839.656 1.49 0 .83-.332 1.461-.998 1.894-.665.438-1.636.656-2.912.656-.98 0-1.736-.182-2.269-.547-.529-.364-.793-.88-.793-1.544 0-.456.145-.85.437-1.183s.702-.558 1.231-.677a1.208 1.208 0 0 1 -.486-.403 1.085 1.085 0 0 1 -.191-.636c0-.273.073-.513.219-.718.145-.205.375-.403.69-.595a2.043 2.043 0 0 1 -.95-.813 2.404 2.404 0 0 1 -.363-1.312c0-.82.247-1.452.739-1.894.492-.447 1.189-.67 2.092-.67.391 0 .745.046 1.059.137zm-5.975 8.75c0 .405.171.713.513.923s.832.314 1.47.314c.952 0 1.656-.143 2.112-.43.46-.283.69-.668.69-1.156 0-.405-.125-.688-.376-.848-.25-.154-.722-.232-1.415-.232h-1.36c-.515 0-.916.123-1.203.37-.287.245-.431.599-.431 1.059zm.616-6.35c0 .523.148.92.444 1.189s.709.403 1.237.403c1.108 0 1.661-.538 1.661-1.613 0-1.126-.56-1.689-1.681-1.689-.534 0-.944.144-1.231.43-.287.288-.43.714-.43 1.28z" fill="#fff"/></g></svg>