<svg fill="none" height="270" width="600" xmlns="http://www.w3.org/2000/svg"><path d="m0 0h600v270h-600z" fill="#fff"/><path d="m270 70h210v200h-210z" fill="#0063a3"/><path d="m0 0h270v270h-270z" fill="#f1f1f6"/><path d="m270 0h210v70h-210z" fill="#004f83"/><path d="m480 0h60v270h-60z" fill="#252a2e"/><path d="m540 0h60v270h-60z" fill="#fbad26"/><path d="m96.156 135.52h4.854v6.943c-.756.241-1.5239.423-2.3052.547-.7812.123-1.6862.185-2.7148.185-2.1615 0-3.8444-.641-5.0488-1.924-1.2045-1.289-1.8067-3.092-1.8067-5.41 0-1.484.2963-2.783.8887-3.896.599-1.12 1.4583-1.973 2.5781-2.559 1.1198-.592 2.4317-.888 3.9356-.888 1.5234 0 2.9427.28 4.2581.839l-.645 1.465c-1.2889-.547-2.5291-.82-3.7205-.82-1.7383 0-3.0957.518-4.0723 1.553s-1.4649 2.47-1.4649 4.306c0 1.927.4688 3.389 1.4063 4.385.944.996 2.3275 1.494 4.1504 1.494.9896 0 1.9564-.114 2.9004-.342v-4.394h-3.1934zm12.96-3.418c.475 0 .901.039 1.279.117l-.225 1.504c-.442-.098-.833-.147-1.171-.147-.866 0-1.609.352-2.227 1.055-.612.703-.918 1.579-.918 2.627v5.742h-1.621v-10.703h1.338l.185 1.982h.078c.398-.696.876-1.233 1.436-1.611s1.175-.566 1.846-.566zm9.893 10.898-.322-1.523h-.078c-.534.67-1.068 1.126-1.602 1.367-.527.234-1.188.351-1.982.351-1.062 0-1.895-.273-2.5-.82-.599-.547-.899-1.325-.899-2.334 0-2.161 1.729-3.294 5.186-3.398l1.816-.059v-.664c0-.84-.182-1.458-.547-1.856-.358-.403-.934-.605-1.728-.605-.892 0-1.901.273-3.028.82l-.498-1.24c.528-.286 1.104-.511 1.729-.674.631-.163 1.263-.244 1.894-.244 1.276 0 2.22.283 2.832.85.619.566.928 1.474.928 2.724v7.305zm-3.662-1.143c1.009 0 1.8-.276 2.373-.83.579-.553.869-1.328.869-2.324v-.967l-1.621.069c-1.289.045-2.22.247-2.793.605-.566.352-.85.902-.85 1.651 0 .585.176 1.031.528 1.337.358.306.856.459 1.494.459zm6.544-9.56h1.738l2.344 6.103c.514 1.394.833 2.399.957 3.018h.078c.084-.332.26-.898.527-1.699.274-.808 1.159-3.281 2.656-7.422h1.739l-4.6 12.187c-.456 1.205-.99 2.058-1.602 2.559-.605.508-1.35.762-2.236.762-.495 0-.983-.056-1.465-.166v-1.299c.358.078.759.117 1.201.117 1.114 0 1.908-.625 2.383-1.875l.596-1.523zm17.276 10.703v-14.277h1.661v12.773h6.298v1.504zm11.798 0h-1.621v-10.703h1.621zm-1.758-13.604c0-.371.091-.641.274-.81.182-.176.41-.264.683-.264.261 0 .485.088.674.264s.283.446.283.81c0 .365-.094.639-.283.821-.189.176-.413.263-.674.263-.273 0-.501-.087-.683-.263-.183-.182-.274-.456-.274-.821zm13.985 2.901v1.025l-1.982.235c.182.228.345.527.488.898.143.365.215.778.215 1.24 0 1.048-.358 1.885-1.074 2.51s-1.7.938-2.95.938c-.319 0-.618-.026-.898-.079-.69.365-1.035.824-1.035 1.377 0 .293.12.511.361.655.241.136.654.205 1.24.205h1.895c1.159 0 2.047.244 2.666.732.625.488.937 1.198.937 2.129 0 1.185-.475 2.087-1.425 2.705-.951.625-2.338.938-4.16.938-1.4 0-2.481-.261-3.243-.782-.755-.52-1.132-1.256-1.132-2.207 0-.651.208-1.214.625-1.689.416-.475 1.002-.798 1.757-.967-.273-.124-.504-.316-.693-.576-.182-.26-.273-.563-.273-.908 0-.391.104-.733.312-1.026s.537-.576.986-.849c-.553-.228-1.005-.615-1.357-1.162-.345-.547-.518-1.172-.518-1.875 0-1.172.352-2.074 1.055-2.705.703-.638 1.699-.957 2.988-.957.56 0 1.065.065 1.514.195zm-8.535 12.5c0 .579.244 1.019.732 1.318.489.3 1.189.449 2.1.449 1.361 0 2.367-.205 3.018-.615.657-.403.986-.954.986-1.65 0-.58-.179-.983-.537-1.211-.358-.221-1.032-.332-2.022-.332h-1.943c-.736 0-1.309.176-1.719.527-.41.352-.615.856-.615 1.514zm.879-9.072c0 .748.212 1.315.635 1.699s1.012.576 1.767.576c1.582 0 2.373-.768 2.373-2.305 0-1.608-.8-2.412-2.402-2.412-.762 0-1.348.205-1.758.615-.41.411-.615 1.019-.615 1.827zm17.208 7.275v-6.924c0-.872-.199-1.523-.596-1.953s-1.019-.644-1.865-.644c-1.127 0-1.95.306-2.471.917-.514.612-.771 1.615-.771 3.008v5.596h-1.622v-15.195h1.622v4.599c0 .554-.026 1.013-.079 1.377h.098c.319-.514.772-.918 1.357-1.211.593-.299 1.267-.449 2.022-.449 1.309 0 2.288.313 2.939.938.658.618.987 1.604.987 2.959v6.982zm8.448-1.143c.286 0 .563-.019.83-.058.267-.046.478-.091.634-.137v1.24c-.175.085-.436.153-.781.205-.338.059-.644.088-.918.088-2.07 0-3.105-1.09-3.105-3.271v-6.367h-1.533v-.782l1.533-.673.683-2.286h.938v2.481h3.105v1.26h-3.105v6.298c0 .645.153 1.14.459 1.485s.726.517 1.26.517z" fill="#252a2e"/><path d="m321.357 177h-1.66v-12.803h-4.521v-1.474h10.703v1.474h-4.522zm11.349-10.898c.475 0 .901.039 1.279.117l-.225 1.504c-.442-.098-.833-.147-1.171-.147-.866 0-1.608.352-2.227 1.055-.612.703-.918 1.579-.918 2.627v5.742h-1.621v-10.703h1.338l.185 1.982h.079c.397-.696.875-1.233 1.435-1.611s1.175-.566 1.846-.566zm4.932 10.898h-1.621v-10.703h1.621zm-1.758-13.604c0-.371.091-.641.274-.81.182-.176.41-.264.683-.264.261 0 .485.088.674.264s.283.446.283.81c0 .365-.094.639-.283.821-.189.176-.413.263-.674.263-.273 0-.501-.087-.683-.263-.183-.182-.274-.456-.274-.821zm18.868 13.604v-6.963c0-.853-.182-1.491-.547-1.914-.364-.43-.931-.644-1.699-.644-1.009 0-1.754.289-2.236.869-.482.579-.723 1.471-.723 2.675v5.977h-1.621v-6.963c0-.853-.182-1.491-.547-1.914-.364-.43-.934-.644-1.709-.644-1.015 0-1.761.306-2.236.917-.469.606-.703 1.602-.703 2.989v5.615h-1.621v-10.703h1.318l.264 1.465h.078c.306-.521.735-.928 1.289-1.221.56-.293 1.185-.439 1.875-.439 1.673 0 2.767.605 3.281 1.816h.078c.319-.56.781-1.003 1.387-1.328.605-.326 1.296-.488 2.07-.488 1.211 0 2.116.312 2.715.937.606.619.908 1.611.908 2.979v6.982zm9.981-10.879c1.407 0 2.497.482 3.272 1.445.781.957 1.172 2.315 1.172 4.073 0 1.757-.394 3.125-1.182 4.101-.781.97-1.868 1.455-3.262 1.455-.696 0-1.334-.127-1.914-.381-.573-.26-1.054-.657-1.445-1.191h-.117l-.342 1.377h-1.162v-15.195h1.621v3.691c0 .827-.026 1.569-.078 2.227h.078c.755-1.068 1.875-1.602 3.359-1.602zm-.234 1.358c-1.107 0-1.904.319-2.393.957-.488.631-.732 1.699-.732 3.203s.251 2.581.752 3.232c.501.645 1.305.967 2.412.967.996 0 1.738-.361 2.227-1.084.488-.729.732-1.774.732-3.135 0-1.393-.244-2.431-.732-3.115-.489-.684-1.244-1.025-2.266-1.025zm9.171 9.521h-1.621v-15.195h1.621zm7.989.195c-1.582 0-2.832-.481-3.75-1.445-.912-.964-1.368-2.301-1.368-4.014 0-1.725.424-3.095 1.27-4.111.853-1.016 1.995-1.523 3.428-1.523 1.341 0 2.402.442 3.183 1.328.782.879 1.172 2.041 1.172 3.486v1.025h-7.373c.033 1.257.348 2.211.947 2.862.606.651 1.455.976 2.549.976 1.153 0 2.292-.241 3.418-.722v1.445c-.573.247-1.116.423-1.631.527-.507.111-1.123.166-1.845.166zm-.44-9.736c-.859 0-1.546.28-2.06.84-.508.56-.808 1.334-.899 2.324h5.596c0-1.022-.228-1.803-.684-2.344-.455-.547-1.106-.82-1.953-.82zm12.648-4.736h4.033c1.895 0 3.265.283 4.112.849.846.567 1.269 1.462 1.269 2.686 0 .846-.238 1.546-.713 2.099-.469.547-1.155.902-2.06 1.065v.098c2.168.371 3.252 1.51 3.252 3.418 0 1.276-.433 2.272-1.299 2.988-.86.716-2.064 1.074-3.613 1.074h-4.981zm1.66 6.113h2.735c1.171 0 2.015-.182 2.529-.547.514-.371.771-.993.771-1.865 0-.801-.286-1.377-.859-1.729-.573-.358-1.484-.537-2.734-.537h-2.442zm0 1.406v5.342h2.979c1.152 0 2.018-.221 2.597-.664.586-.449.879-1.149.879-2.1 0-.885-.299-1.536-.898-1.953-.593-.416-1.498-.625-2.715-.625zm12.716 6.758h-1.621v-15.195h1.621zm4.991-10.703v6.943c0 .873.198 1.524.595 1.953.398.43 1.019.645 1.866.645 1.119 0 1.936-.306 2.451-.918.521-.612.781-1.611.781-2.998v-5.625h1.621v10.703h-1.338l-.234-1.436h-.088c-.332.528-.794.931-1.387 1.211-.586.28-1.256.42-2.011.42-1.303 0-2.279-.309-2.93-.927-.645-.619-.967-1.608-.967-2.969v-7.002zm15.313 10.898c-1.582 0-2.832-.481-3.75-1.445-.912-.964-1.367-2.301-1.367-4.014 0-1.725.423-3.095 1.269-4.111.853-1.016 1.996-1.523 3.428-1.523 1.341 0 2.402.442 3.184 1.328.781.879 1.171 2.041 1.171 3.486v1.025h-7.373c.033 1.257.349 2.211.948 2.862.605.651 1.455.976 2.548.976 1.153 0 2.292-.241 3.418-.722v1.445c-.572.247-1.116.423-1.63.527-.508.111-1.123.166-1.846.166zm-.44-9.736c-.859 0-1.546.28-2.06.84-.508.56-.807 1.334-.899 2.324h5.596c0-1.022-.228-1.803-.683-2.344-.456-.547-1.107-.82-1.954-.82zm-130.882-124.459h-1.66v-12.8027h-4.522v-1.4746h10.703v1.4746h-4.521zm11.348-10.8984c.476 0 .902.039 1.28.1172l-.225 1.5039c-.443-.0977-.833-.1465-1.172-.1465-.866 0-1.608.3515-2.226 1.0547-.612.7031-.918 1.5787-.918 2.6269v5.7422h-1.622v-10.7031h1.338l.186 1.9824h.078c.397-.6966.876-1.2337 1.436-1.6113.559-.3776 1.175-.5664 1.845-.5664zm4.933 10.8984h-1.621v-10.7031h1.621zm-1.758-13.6035c0-.3711.091-.6413.273-.8106.183-.1757.41-.2636.684-.2636.26 0 .485.0879.674.2636.188.1758.283.446.283.8106s-.095.638-.283.8203c-.189.1758-.414.2637-.674.2637-.274 0-.501-.0879-.684-.2637-.182-.1823-.273-.4557-.273-.8203zm18.868 13.6035v-6.9629c0-.8529-.183-1.4909-.547-1.9141-.365-.4296-.931-.6445-1.699-.6445-1.009 0-1.755.2897-2.237.8692-.481.5794-.722 1.4713-.722 2.6757v5.9766h-1.621v-6.9629c0-.8529-.183-1.4909-.547-1.9141-.365-.4296-.935-.6445-1.709-.6445-1.016 0-1.761.306-2.237.918-.468.6055-.703 1.6015-.703 2.9883v5.6152h-1.621v-10.7031h1.319l.263 1.4648h.078c.306-.5208.736-.9277 1.289-1.2207.56-.293 1.185-.4394 1.875-.4394 1.674 0 2.767.6054 3.282 1.8164h.078c.319-.5599.781-1.0026 1.386-1.3282.606-.3255 1.296-.4882 2.071-.4882 1.211 0 2.116.3125 2.715.9375.605.6185.908 1.6113.908 2.9785v6.9824zm9.981-10.8789c1.406 0 2.497.4818 3.271 1.4453.782.957 1.172 2.3145 1.172 4.0723s-.394 3.125-1.181 4.1015c-.782.9701-1.869 1.4551-3.262 1.4551-.697 0-1.335-.1269-1.914-.3808-.573-.2605-1.055-.6576-1.445-1.1915h-.118l-.341 1.377h-1.163v-15.1953h1.622v3.6914c0 .8268-.027 1.569-.079 2.2266h.079c.755-1.0678 1.875-1.6016 3.359-1.6016zm-.234 1.3574c-1.107 0-1.905.319-2.393.957-.488.6316-.732 1.6993-.732 3.2032s.25 2.5814.751 3.2324c.502.6445 1.306.9668 2.413.9668.996 0 1.738-.3613 2.226-1.084.488-.7292.733-1.7741.733-3.1348 0-1.3932-.245-2.4316-.733-3.1152s-1.243-1.0254-2.265-1.0254zm9.17 9.5215h-1.621v-15.1953h1.621zm7.989.1953c-1.582 0-2.832-.4818-3.75-1.4453-.911-.9635-1.367-2.3014-1.367-4.0137 0-1.7252.423-3.0957 1.269-4.1113.853-1.0156 1.996-1.5234 3.428-1.5234 1.341 0 2.403.4427 3.184 1.3281.781.8789 1.172 2.041 1.172 3.4863v1.0254h-7.373c.032 1.2565.348 2.2103.947 2.8613.605.6511 1.455.9766 2.549.9766 1.152 0 2.291-.2409 3.418-.7227v1.4454c-.573.2473-1.117.4231-1.631.5273-.508.1107-1.123.166-1.846.166zm-.439-9.7363c-.86 0-1.547.2799-2.061.8398-.508.5599-.807 1.3347-.898 2.3242h5.595c0-1.0221-.227-1.8033-.683-2.3437-.456-.5469-1.107-.8203-1.953-.8203zm12.648-4.7363h4.033c1.894 0 3.265.2832 4.111.8496s1.27 1.4616 1.27 2.6855c0 .8464-.238 1.5462-.713 2.0996-.469.5469-1.156.9017-2.061 1.0645v.0976c2.168.3711 3.252 1.5104 3.252 3.418 0 1.276-.433 2.2721-1.299 2.9883-.859.7161-2.063 1.0742-3.613 1.0742h-4.98zm1.66 6.1132h2.734c1.172 0 2.015-.1823 2.529-.5468.515-.3711.772-.9929.772-1.8653 0-.8008-.287-1.3769-.86-1.7285-.572-.3581-1.484-.5371-2.734-.5371h-2.441zm0 1.4063v5.3418h2.978c1.153 0 2.018-.2214 2.598-.6641.586-.4492.879-1.1491.879-2.0996 0-.8854-.3-1.5364-.899-1.9531-.592-.4167-1.497-.625-2.714-.625zm12.715 6.7578h-1.621v-15.1953h1.621zm4.991-10.7031v6.9433c0 .8724.199 1.5235.596 1.9532.397.4296 1.019.6445 1.865.6445 1.12 0 1.937-.306 2.451-.918.521-.612.782-1.6113.782-2.998v-5.625h1.621v10.7031h-1.338l-.235-1.4355h-.087c-.333.5273-.795.9309-1.387 1.2109-.586.2799-1.257.4199-2.012.4199-1.302 0-2.279-.3092-2.93-.9277-.644-.6185-.966-1.6081-.966-2.9688v-7.0019zm15.313 10.8984c-1.582 0-2.832-.4818-3.75-1.4453-.911-.9635-1.367-2.3014-1.367-4.0137 0-1.7252.423-3.0957 1.27-4.1113.853-1.0156 1.995-1.5234 3.427-1.5234 1.342 0 2.403.4427 3.184 1.3281.781.8789 1.172 2.041 1.172 3.4863v1.0254h-7.373c.032 1.2565.348 2.2103.947 2.8613.606.6511 1.455.9766 2.549.9766 1.152 0 2.292-.2409 3.418-.7227v1.4454c-.573.2473-1.117.4231-1.631.5273-.508.1107-1.123.166-1.846.166zm-.439-9.7363c-.859 0-1.546.2799-2.061.8398-.507.5599-.807 1.3347-.898 2.3242h5.596c0-1.0221-.228-1.8033-.684-2.3437-.456-.5469-1.107-.8203-1.953-.8203zm24.044 2.2656c0 2.3568-.641 4.1602-1.923 5.4102-1.277 1.2435-3.116 1.8652-5.518 1.8652h-3.955v-14.2773h4.375c2.22 0 3.945.6152 5.176 1.8457 1.23 1.2304 1.845 2.9492 1.845 5.1562zm-1.757.0586c0-1.862-.469-3.265-1.407-4.209-.931-.944-2.317-1.416-4.16-1.416h-2.412v11.4063h2.021c1.98 0 3.467-.4851 4.463-1.4551.996-.9766 1.495-2.4186 1.495-4.3262zm11.319 7.2168-.323-1.5234h-.078c-.534.6705-1.068 1.1263-1.601 1.3672-.528.2343-1.189.3515-1.983.3515-1.061 0-1.894-.2734-2.5-.8203-.599-.5469-.898-1.3249-.898-2.334 0-2.1614 1.728-3.2943 5.185-3.3984l1.817-.0586v-.6641c0-.8398-.183-1.4583-.547-1.8554-.358-.4037-.934-.6055-1.729-.6055-.892 0-1.901.2734-3.027.8203l-.498-1.2402c.527-.2865 1.103-.5111 1.728-.6739.632-.1627 1.263-.2441 1.895-.2441 1.276 0 2.22.2832 2.832.8496.618.5664.928 1.4746.928 2.7246v7.3047zm-3.663-1.1426c1.01 0 1.801-.2767 2.374-.8301.579-.5533.869-1.3281.869-2.3242v-.9668l-1.621.0684c-1.29.0456-2.22.2474-2.793.6055-.567.3515-.85.9016-.85 1.6503 0 .586.176 1.0319.527 1.3379.358.306.856.459 1.494.459zm13.126-9.7558c.475 0 .902.039 1.279.1172l-.224 1.5039c-.443-.0977-.833-.1465-1.172-.1465-.866 0-1.608.3515-2.227 1.0547-.612.7031-.918 1.5787-.918 2.6269v5.7422h-1.621v-10.7031h1.338l.186 1.9824h.078c.397-.6966.876-1.2337 1.435-1.6113.56-.3776 1.176-.5664 1.846-.5664zm4.913 5.4199c.28-.3972.706-.918 1.279-1.5625l3.457-3.6621h1.924l-4.336 4.5605 4.639 6.1426h-1.963l-3.779-5.0586-1.221 1.0547v4.0039h-1.602v-15.1953h1.602v8.0566c0 .3581-.026.9115-.078 1.6602zm66.051 151.5885v1.66h-12.803v4.522h-1.474v-10.703h1.474v4.521zm-10.898-11.348c0-.475.039-.902.117-1.279l1.504.224c-.098.443-.147.834-.147 1.172 0 .866.352 1.608 1.055 2.227.703.612 1.579.918 2.627.918h5.742v1.621h-10.703v-1.338l1.982-.186v-.078c-.696-.397-1.233-.875-1.611-1.435s-.566-1.175-.566-1.846zm10.898-4.932v1.621h-10.703v-1.621zm-13.604 1.757c-.371 0-.641-.091-.81-.273-.176-.182-.264-.41-.264-.684 0-.26.088-.485.264-.673.176-.189.446-.284.81-.284.365 0 .639.095.821.284.176.188.263.413.263.673 0 .274-.087.502-.263.684-.182.182-.456.273-.821.273zm13.604-18.867h-6.963c-.853 0-1.491.182-1.914.546-.43.365-.644.931-.644 1.7 0 1.009.289 1.754.869 2.236.579.482 1.471.723 2.675.723h5.977v1.621h-6.963c-.853 0-1.491.182-1.914.547-.43.364-.644.934-.644 1.709 0 1.015.306 1.761.917 2.236.606.469 1.602.703 2.989.703h5.615v1.621h-10.703v-1.318l1.465-.264v-.078c-.521-.306-.928-.736-1.221-1.289-.293-.56-.439-1.185-.439-1.875 0-1.673.605-2.767 1.816-3.281v-.078c-.56-.319-1.003-.782-1.328-1.387-.326-.606-.488-1.296-.488-2.071 0-1.21.312-2.115.937-2.714.619-.606 1.611-.909 2.979-.909h6.982zm-10.879-9.982c0-1.406.482-2.496 1.445-3.271.957-.781 2.315-1.172 4.073-1.172 1.757 0 3.125.394 4.101 1.182.97.781 1.455 1.868 1.455 3.261 0 .697-.127 1.335-.381 1.914-.26.573-.657 1.055-1.191 1.446v.117l1.377.342v1.162h-15.195v-1.621h3.691c.827 0 1.569.026 2.227.078v-.078c-1.068-.755-1.602-1.875-1.602-3.36zm1.358.235c0 1.107.319 1.904.957 2.392.631.489 1.699.733 3.203.733s2.581-.251 3.232-.752c.645-.502.967-1.306.967-2.412 0-.996-.361-1.739-1.084-2.227-.729-.488-1.774-.732-3.135-.732-1.393 0-2.431.244-3.115.732s-1.025 1.244-1.025 2.266zm9.521-9.171v1.621h-15.195v-1.621zm.195-7.989c0 1.582-.481 2.832-1.445 3.75-.964.912-2.301 1.367-4.014 1.367-1.725 0-3.095-.423-4.111-1.269-1.016-.853-1.523-1.996-1.523-3.428 0-1.341.442-2.402 1.328-3.184.879-.781 2.041-1.171 3.486-1.171h1.025v7.373c1.257-.033 2.211-.349 2.862-.948.651-.605.976-1.455.976-2.548 0-1.153-.241-2.292-.722-3.418h1.445c.247.572.423 1.116.527 1.63.111.508.166 1.123.166 1.846zm-9.736.44c0 .859.28 1.546.84 2.06.56.508 1.334.807 2.324.899v-5.596c-1.022 0-1.803.228-2.344.683-.547.456-.82 1.107-.82 1.954zm2.061-18.928v-4.853h6.943c.241.755.423 1.523.547 2.305.123.781.185 1.686.185 2.714 0 2.162-.641 3.845-1.924 5.049-1.289 1.205-3.092 1.807-5.41 1.807-1.484 0-2.783-.296-3.896-.889-1.12-.599-1.973-1.458-2.559-2.578-.592-1.12-.888-2.432-.888-3.935 0-1.524.28-2.943.839-4.258l1.465.644c-.547 1.289-.82 2.53-.82 3.721 0 1.738.518 3.096 1.553 4.072 1.035.977 2.47 1.465 4.306 1.465 1.927 0 3.389-.469 4.385-1.406.996-.944 1.494-2.328 1.494-4.151 0-.989-.114-1.956-.342-2.9h-4.394v3.193zm-3.418-12.9593c0-.4753.039-.9017.117-1.2793l1.504.2246c-.098.4427-.147.8334-.147 1.1719 0 .8659.352 1.6081 1.055 2.2266.703.6115 1.579.9175 2.627.9175h5.742v1.622h-10.703v-1.338l1.982-.186v-.078c-.696-.397-1.233-.8757-1.611-1.4356s-.566-1.1751-.566-1.8457zm10.898-9.8933-1.523.3223v.0781c.67.5339 1.126 1.0677 1.367 1.6016.234.5273.351 1.1881.351 1.9824 0 1.0612-.273 1.8945-.82 2.5-.547.599-1.325.8984-2.334.8984-2.161 0-3.294-1.7285-3.398-5.1855l-.059-1.8164h-.664c-.84 0-1.458.1823-1.856.5469-.403.358-.605.9342-.605 1.7285 0 .8919.273 1.901.82 3.0273l-1.24.4981c-.286-.5274-.511-1.1036-.674-1.7286-.163-.6315-.244-1.263-.244-1.8945 0-1.276.283-2.22.85-2.832.566-.6185 1.474-.9278 2.724-.9278h7.305zm-1.143 3.6621c0-1.0091-.276-1.8001-.83-2.373-.553-.5794-1.328-.8692-2.324-.8692h-.967l.069 1.6211c.045 1.2891.247 2.2201.605 2.793.352.5664.902.8496 1.651.8496.585 0 1.031-.1758 1.337-.5273.306-.3581.459-.8562.459-1.4942zm-9.56-6.5436v-1.7383l6.103-2.3438c1.394-.5143 2.399-.8333 3.018-.957v-.0781c-.332-.0847-.898-.2605-1.699-.5274-.808-.2734-3.281-1.1588-7.422-2.6562v-1.7383l12.187 4.5996c1.205.4557 2.058.9896 2.559 1.6016.508.6054.762 1.3509.762 2.2363 0 .4948-.056.9831-.166 1.4648h-1.299c.078-.358.117-.7584.117-1.2011 0-1.1133-.625-1.9076-1.875-2.3829l-1.523-.5957z" fill="#fff"/><path d="m578 197.275v1.66h-12.803v4.522h-1.474v-10.703h1.474v4.521zm-10.898-11.348c0-.476.039-.902.117-1.28l1.504.225c-.098.443-.147.833-.147 1.172 0 .866.352 1.608 1.055 2.226.703.612 1.579.918 2.627.918h5.742v1.622h-10.703v-1.338l1.982-.186v-.078c-.696-.397-1.233-.876-1.611-1.436-.378-.559-.566-1.175-.566-1.845zm10.898-4.933v1.621h-10.703v-1.621zm-13.604 1.758c-.371 0-.641-.091-.81-.273-.176-.183-.264-.41-.264-.684 0-.26.088-.485.264-.674.176-.188.446-.283.81-.283.365 0 .639.095.821.283.176.189.263.414.263.674 0 .274-.087.501-.263.684-.182.182-.456.273-.821.273zm13.604-18.868h-6.963c-.853 0-1.491.183-1.914.547-.43.365-.644.931-.644 1.699 0 1.01.289 1.755.869 2.237.579.481 1.471.722 2.675.722h5.977v1.621h-6.963c-.853 0-1.491.183-1.914.547-.43.365-.644.935-.644 1.709 0 1.016.306 1.761.917 2.237.606.468 1.602.703 2.989.703h5.615v1.621h-10.703v-1.318l1.465-.264v-.078c-.521-.306-.928-.736-1.221-1.289-.293-.56-.439-1.185-.439-1.875 0-1.674.605-2.767 1.816-3.282v-.078c-.56-.319-1.003-.781-1.328-1.386-.326-.606-.488-1.296-.488-2.071 0-1.211.312-2.116.937-2.715.619-.605 1.611-.908 2.979-.908h6.982zm-10.879-9.981c0-1.406.482-2.497 1.445-3.271.957-.782 2.315-1.172 4.073-1.172 1.757 0 3.125.394 4.101 1.181.97.782 1.455 1.869 1.455 3.262 0 .697-.127 1.335-.381 1.914-.26.573-.657 1.055-1.191 1.446v.117l1.377.341v1.163h-15.195v-1.621h3.691c.827 0 1.569.026 2.227.078v-.078c-1.068-.756-1.602-1.875-1.602-3.36zm1.358.235c0 1.106.319 1.904.957 2.392.631.488 1.699.733 3.203.733s2.581-.251 3.232-.752c.645-.502.967-1.306.967-2.413 0-.996-.361-1.738-1.084-2.226-.729-.488-1.774-.733-3.135-.733-1.393 0-2.431.245-3.115.733s-1.025 1.243-1.025 2.266zm9.521-9.171v1.621h-15.195v-1.621zm.195-7.989c0 1.582-.481 2.832-1.445 3.75-.964.911-2.301 1.367-4.014 1.367-1.725 0-3.095-.423-4.111-1.269-1.016-.853-1.523-1.996-1.523-3.428 0-1.341.442-2.403 1.328-3.184.879-.781 2.041-1.172 3.486-1.172h1.025v7.373c1.257-.032 2.211-.348 2.862-.947.651-.605.976-1.455.976-2.549 0-1.152-.241-2.291-.722-3.418h1.445c.247.573.423 1.117.527 1.631.111.508.166 1.123.166 1.846zm-9.736.439c0 .86.28 1.547.84 2.061.56.508 1.334.807 2.324.898v-5.595c-1.022 0-1.803.227-2.344.683-.547.456-.82 1.107-.82 1.953zm2.402-16.28-7.138-3.809v-1.797l8.74 4.766h5.537v1.679h-5.459l-8.818 4.756v-1.816zm7.334-11.886c0 1.582-.481 2.832-1.445 3.75-.964.912-2.301 1.367-4.014 1.367-1.725 0-3.095-.423-4.111-1.269-1.016-.853-1.523-1.996-1.523-3.428 0-1.341.442-2.402 1.328-3.183.879-.782 2.041-1.172 3.486-1.172h1.025v7.373c1.257-.033 2.211-.349 2.862-.948.651-.605.976-1.455.976-2.548 0-1.153-.241-2.292-.722-3.418h1.445c.247.573.423 1.116.527 1.63.111.508.166 1.124.166 1.846zm-9.736.44c0 .859.28 1.546.84 2.06.56.508 1.334.807 2.324.899v-5.596c-1.022 0-1.803.228-2.344.684-.547.455-.82 1.106-.82 1.953zm9.541-8.8v1.621h-15.195v-1.621zm0-5.0885v1.6211h-15.195v-1.6211zm-5.361-12.7058c1.744 0 3.108.4395 4.091 1.3184.977.8789 1.465 2.0931 1.465 3.6426 0 .957-.224 1.8066-.674 2.5488-.449.7422-1.093 1.3151-1.933 1.7187-.84.4037-1.823.6055-2.949.6055-1.745 0-3.103-.4362-4.073-1.3086-.976-.8724-1.464-2.0833-1.464-3.6328 0-1.4974.498-2.6856 1.494-3.5645.996-.8854 2.343-1.3281 4.043-1.3281zm0 8.1543c1.367 0 2.409-.2734 3.125-.8203s1.074-1.3509 1.074-2.4121-.355-1.8652-1.065-2.4121c-.716-.5534-1.761-.8301-3.134-.8301-1.361 0-2.393.2767-3.096.8301-.71.5469-1.064 1.3574-1.064 2.4316 0 1.0612.348 1.862 1.044 2.4024.697.5403 1.735.8105 3.116.8105zm5.361-19.7761-6.279 1.9629c-.384.1237-1.257.3548-2.617.6934v.0781c1.139.2604 2.018.4883 2.636.6836l6.26 2.0215v1.875l-10.703 2.9199v-1.6992c2.689-.6901 4.736-1.2142 6.142-1.5723 1.407-.3646 2.354-.5729 2.842-.625v-.0781c-.371-.0716-.849-.1856-1.435-.3418-.593-.1628-1.061-.3028-1.407-.4199l-6.142-1.9629v-1.7578l6.142-1.9141c1.12-.3646 2.061-.612 2.823-.7422v-.0781c-.235-.0261-.596-.0944-1.084-.2051-.489-.1172-3.116-.7975-7.881-2.041v-1.6797l10.703 2.959z" fill="#252a2e"/></svg>