<svg fill="none" height="790" width="1455" xmlns="http://www.w3.org/2000/svg" xmlns:xlink="http://www.w3.org/1999/xlink"><clipPath id="a"><path d="m0 0h650v154h-650z" transform="translate(25 592)"/></clipPath><path d="m0 0h1455v790h-1455z" fill="#fff"/><path d="m0 0h700v790h-700z" fill="#fff"/><path d="m242.739 183.195a199.996 199.996 0 0 1 106.965-31.195l.296 200z" fill="#0063a3"/><path d="m350 152a200.003 200.003 0 0 1 184.776 123.463 200.006 200.006 0 0 1 -43.355 217.958l-141.421-141.421z" fill="#89c6ed"/><path d="m499.078 485.326a199.984 199.984 0 0 1 -74.568 52.276 199.987 199.987 0 0 1 -90.015 13.796 200.016 200.016 0 0 1 -86.802-27.545 200.02 200.02 0 0 1 -65.59-63.176l167.897-108.677z" fill="#368fc7"/><path d="m182.409 461.147a199.993 199.993 0 0 1 -27.822-151.733 199.991 199.991 0 0 1 88.434-126.398l106.979 168.984z" fill="#0e416c"/><path d="m287.696 239v-12.85h2.101v12.85zm9.072-1.494a5.03 5.03 0 0 0 1.512-.237v1.555a3.96 3.96 0 0 1 -.888.246 5.71 5.71 0 0 1 -1.116.106c-1.957 0-2.935-1.031-2.935-3.094v-5.238h-1.328v-.914l1.424-.756.703-2.057h1.275v2.162h2.768v1.565h-2.768v5.203c0 .498.123.867.369 1.107.252.235.58.352.984.352zm7.877 1.67c-1.512 0-2.695-.44-3.551-1.319-.849-.884-1.274-2.1-1.274-3.647 0-1.588.395-2.836 1.186-3.744s1.878-1.362 3.261-1.362c1.283 0 2.297.389 3.041 1.168.744.78 1.116 1.852 1.116 3.217v1.116h-6.477c.029.944.284 1.67.765 2.18.48.504 1.157.756 2.03.756.574 0 1.107-.053 1.599-.158a8.66 8.66 0 0 0 1.6-.545v1.679a6.33 6.33 0 0 1 -1.529.509 9.35 9.35 0 0 1 -1.767.15zm-.378-8.508c-.656 0-1.183.208-1.582.624-.392.416-.627 1.022-.703 1.819h4.412c-.012-.802-.205-1.409-.58-1.819-.375-.416-.891-.624-1.547-.624zm14.864 8.332h-2.074v-5.994c0-.744-.141-1.298-.422-1.661-.281-.369-.721-.554-1.318-.554-.797 0-1.383.261-1.758.782-.369.516-.554 1.377-.554 2.584v4.843h-2.065v-9.721h1.617l.29 1.275h.106a2.698 2.698 0 0 1 1.168-1.073 3.815 3.815 0 0 1 1.697-.377c1.494 0 2.484.509 2.97 1.529h.141a2.959 2.959 0 0 1 1.213-1.125c.521-.27 1.119-.404 1.793-.404 1.16 0 2.004.292 2.531.878.533.586.8 1.48.8 2.681v6.337h-2.065v-5.994c0-.744-.144-1.298-.431-1.661-.281-.369-.721-.554-1.318-.554-.803 0-1.392.252-1.767.756-.369.498-.554 1.265-.554 2.303zm19.41 0h-2.065v-8.297c0-.99.023-1.775.07-2.355-.135.14-.302.296-.501.465-.193.17-.85.709-1.969 1.618l-1.037-1.31 3.779-2.971h1.723zm-18.845 192v-12.85h2.101v12.85zm9.072-1.494a5.03 5.03 0 0 0 1.512-.237v1.555a3.96 3.96 0 0 1 -.888.246 5.71 5.71 0 0 1 -1.116.106c-1.957 0-2.935-1.031-2.935-3.094v-5.238h-1.328v-.914l1.424-.756.703-2.057h1.275v2.162h2.768v1.565h-2.768v5.203c0 .498.123.867.369 1.107.252.235.58.352.984.352zm7.877 1.67c-1.512 0-2.695-.44-3.551-1.319-.849-.884-1.274-2.1-1.274-3.647 0-1.588.395-2.836 1.186-3.744s1.878-1.362 3.261-1.362c1.283 0 2.297.389 3.041 1.168.744.78 1.116 1.852 1.116 3.217v1.116h-6.477c.029.944.284 1.67.765 2.18.48.504 1.157.756 2.03.756.574 0 1.107-.053 1.599-.158a8.66 8.66 0 0 0 1.6-.545v1.679a6.33 6.33 0 0 1 -1.529.509 9.35 9.35 0 0 1 -1.767.15zm-.378-8.508c-.656 0-1.183.208-1.582.624-.392.416-.627 1.022-.703 1.819h4.412c-.012-.802-.205-1.409-.58-1.819-.375-.416-.891-.624-1.547-.624zm14.864 8.332h-2.074v-5.994c0-.744-.141-1.298-.422-1.661-.281-.369-.721-.554-1.318-.554-.797 0-1.383.261-1.758.782-.369.516-.554 1.377-.554 2.584v4.843h-2.065v-9.721h1.617l.29 1.275h.106a2.698 2.698 0 0 1 1.168-1.073 3.815 3.815 0 0 1 1.697-.377c1.494 0 2.484.509 2.97 1.529h.141a2.959 2.959 0 0 1 1.213-1.125c.521-.27 1.119-.404 1.793-.404 1.16 0 2.004.292 2.531.878.533.586.8 1.48.8 2.681v6.337h-2.065v-5.994c0-.744-.144-1.298-.431-1.661-.281-.369-.721-.554-1.318-.554-.803 0-1.392.252-1.767.756-.369.498-.554 1.265-.554 2.303zm21.572-9.896c0 .814-.237 1.494-.712 2.039-.474.539-1.142.902-2.004 1.089v.071c1.032.129 1.805.451 2.321.967.515.509.773 1.189.773 2.039 0 1.236-.436 2.191-1.31 2.865-.873.668-2.115 1.002-3.726 1.002-1.424 0-2.625-.232-3.604-.695v-1.836a8.283 8.283 0 0 0 1.732.624 7.537 7.537 0 0 0 1.758.219c.996 0 1.74-.184 2.232-.553.492-.37.738-.941.738-1.714 0-.686-.272-1.19-.817-1.512s-1.4-.483-2.566-.483h-1.117v-1.679h1.134c2.051 0 3.076-.709 3.076-2.127 0-.551-.178-.976-.536-1.274-.357-.299-.885-.449-1.582-.449-.486 0-.955.071-1.406.211-.451.135-.984.402-1.6.8l-1.01-1.441c1.177-.868 2.545-1.301 4.104-1.301 1.295 0 2.306.278 3.032.835.727.556 1.09 1.324 1.09 2.303zm-149.007-76.104v-12.85h2.101v12.85zm9.072-1.494a5.03 5.03 0 0 0 1.512-.237v1.555a3.96 3.96 0 0 1 -.888.246 5.71 5.71 0 0 1 -1.116.106c-1.957 0-2.935-1.031-2.935-3.094v-5.238h-1.328v-.914l1.424-.756.703-2.057h1.275v2.162h2.768v1.565h-2.768v5.203c0 .498.123.867.369 1.107.252.235.58.352.984.352zm7.877 1.67c-1.512 0-2.695-.44-3.551-1.319-.849-.884-1.274-2.1-1.274-3.647 0-1.588.395-2.836 1.186-3.744s1.878-1.362 3.261-1.362c1.283 0 2.297.389 3.041 1.168.744.78 1.116 1.852 1.116 3.217v1.116h-6.477c.029.944.284 1.67.765 2.18.48.504 1.157.756 2.03.756.574 0 1.107-.053 1.599-.158a8.66 8.66 0 0 0 1.6-.545v1.679a6.33 6.33 0 0 1 -1.529.509 9.35 9.35 0 0 1 -1.767.15zm-.378-8.508c-.656 0-1.183.208-1.582.624-.392.416-.627 1.022-.703 1.819h4.412c-.012-.802-.205-1.409-.58-1.819-.375-.416-.891-.624-1.547-.624zm14.864 8.332h-2.074v-5.994c0-.744-.141-1.298-.422-1.661-.281-.369-.721-.554-1.318-.554-.797 0-1.383.261-1.758.782-.369.516-.554 1.377-.554 2.584v4.843h-2.065v-9.721h1.617l.29 1.275h.106a2.698 2.698 0 0 1 1.168-1.073 3.815 3.815 0 0 1 1.697-.377c1.494 0 2.484.509 2.97 1.529h.141a2.959 2.959 0 0 1 1.213-1.125c.521-.27 1.119-.404 1.793-.404 1.16 0 2.004.292 2.531.878.533.586.8 1.48.8 2.681v6.337h-2.065v-5.994c0-.744-.144-1.298-.431-1.661-.281-.369-.721-.554-1.318-.554-.803 0-1.392.252-1.767.756-.369.498-.554 1.265-.554 2.303zm22.513-2.804h-1.732v2.804h-2.013v-2.804h-5.871v-1.591l5.871-8.49h2.013v8.367h1.732zm-3.745-1.714v-3.225c0-1.149.03-2.089.088-2.821h-.07c-.164.386-.422.855-.773 1.406l-3.191 4.64zm131.797-16.482v-12.85h2.101v12.85zm9.072-1.494a5.03 5.03 0 0 0 1.512-.237v1.555a3.96 3.96 0 0 1 -.888.246 5.71 5.71 0 0 1 -1.116.106c-1.957 0-2.935-1.031-2.935-3.094v-5.238h-1.328v-.914l1.424-.756.703-2.057h1.275v2.162h2.768v1.565h-2.768v5.203c0 .498.123.867.369 1.107.252.235.58.352.984.352zm7.877 1.67c-1.512 0-2.695-.44-3.551-1.319-.849-.884-1.274-2.1-1.274-3.647 0-1.588.395-2.836 1.186-3.744s1.878-1.362 3.261-1.362c1.283 0 2.297.389 3.041 1.168.744.78 1.116 1.852 1.116 3.217v1.116h-6.477c.029.944.284 1.67.765 2.18.48.504 1.157.756 2.03.756.574 0 1.107-.053 1.599-.158a8.66 8.66 0 0 0 1.6-.545v1.679a6.33 6.33 0 0 1 -1.529.509 9.35 9.35 0 0 1 -1.767.15zm-.378-8.508c-.656 0-1.183.208-1.582.624-.392.416-.627 1.022-.703 1.819h4.412c-.012-.802-.205-1.409-.58-1.819-.375-.416-.891-.624-1.547-.624zm14.864 8.332h-2.074v-5.994c0-.744-.141-1.298-.422-1.661-.281-.369-.721-.554-1.318-.554-.797 0-1.383.261-1.758.782-.369.516-.554 1.377-.554 2.584v4.843h-2.065v-9.721h1.617l.29 1.275h.106a2.698 2.698 0 0 1 1.168-1.073 3.815 3.815 0 0 1 1.697-.377c1.494 0 2.484.509 2.97 1.529h.141a2.959 2.959 0 0 1 1.213-1.125c.521-.27 1.119-.404 1.793-.404 1.16 0 2.004.292 2.531.878.533.586.8 1.48.8 2.681v6.337h-2.065v-5.994c0-.744-.144-1.298-.431-1.661-.281-.369-.721-.554-1.318-.554-.803 0-1.392.252-1.767.756-.369.498-.554 1.265-.554 2.303zm22.056 0h-8.71v-1.564l3.313-3.332c.979-1.001 1.626-1.71 1.942-2.126.323-.422.557-.818.704-1.187.146-.369.219-.765.219-1.187 0-.58-.176-1.037-.527-1.371-.346-.334-.826-.501-1.441-.501-.493 0-.97.091-1.433.273-.457.182-.987.51-1.591.984l-1.116-1.362c.715-.604 1.409-1.031 2.083-1.283a6.095 6.095 0 0 1 2.153-.378c1.196 0 2.154.313 2.874.94.721.621 1.081 1.459 1.081 2.514a4.36 4.36 0 0 1 -.316 1.652c-.205.522-.525 1.061-.958 1.617-.428.551-1.143 1.298-2.145 2.242l-2.232 2.162v.088h6.1z" fill="#fff"/><path d="m325.688 100h-4.844v-18.813h-6.203v-4.03h17.25v4.03h-6.203zm9.423-21.984c0-1.553.865-2.329 2.594-2.329s2.594.776 2.594 2.329c0 .74-.219 1.317-.657 1.734-.427.406-1.073.61-1.937.61-1.729 0-2.594-.782-2.594-2.344zm4.969 21.984h-4.766v-17.469h4.766zm12.658-3.484c.833 0 1.833-.183 3-.547v3.547c-1.188.531-2.646.796-4.375.796-1.906 0-3.297-.479-4.172-1.437-.865-.969-1.297-2.417-1.297-4.344v-8.421h-2.281v-2.015l2.625-1.594 1.375-3.688h3.047v3.72h4.89v3.577h-4.89v8.422c0 .677.187 1.177.562 1.5.386.323.891.485 1.516.485zm11.595 3.484h-4.765v-24.313h4.765zm12.533-14.406c-1.01 0-1.802.323-2.375.969-.573.635-.901 1.541-.984 2.718h6.687c-.02-1.177-.328-2.083-.921-2.719-.594-.645-1.396-.968-2.407-.968zm.672 14.718c-2.812 0-5.01-.775-6.594-2.328-1.583-1.552-2.375-3.75-2.375-6.593 0-2.928.73-5.188 2.188-6.782 1.469-1.604 3.495-2.406 6.078-2.406 2.469 0 4.391.703 5.766 2.11 1.375 1.406 2.062 3.349 2.062 5.828v2.312h-11.265c.052 1.354.453 2.412 1.203 3.172s1.802 1.14 3.156 1.14a13.1 13.1 0 0 0 2.984-.328c.938-.218 1.917-.567 2.938-1.046v3.687c-.833.417-1.724.724-2.672.922-.948.208-2.104.312-3.469.312z" fill="#252a2e"/><g clip-path="url(#a)"><circle cx="49" cy="612" fill="#89c6ed" r="8"/><circle cx="49" cy="651" fill="#368fc7" r="8"/><circle cx="49" cy="690" fill="#0e416c" r="8"/><circle cx="49" cy="727" fill="#0063a3" r="8"/><path d="m66.32 617v-9.994h1.633v9.994zm7.074-1.162c.392 0 .784-.062 1.176-.185v1.21a3.09 3.09 0 0 1 -.69.192 4.544 4.544 0 0 1 -.869.082c-1.522 0-2.283-.802-2.283-2.407v-4.074h-1.032v-.711l1.107-.588.547-1.599h.991v1.681h2.154v1.217h-2.155v4.047c0 .387.096.675.288.861.195.183.45.274.765.274zm6.145 1.299c-1.175 0-2.096-.342-2.761-1.026-.661-.688-.992-1.633-.992-2.837 0-1.235.308-2.205.923-2.912.615-.706 1.46-1.059 2.536-1.059.998 0 1.787.303 2.365.909.58.606.869 1.44.869 2.502v.868h-5.039c.022.734.22 1.299.594 1.695.374.392.9.588 1.58.588.446 0 .86-.041 1.244-.123a6.657 6.657 0 0 0 1.244-.424v1.306a4.95 4.95 0 0 1 -1.19.397c-.4.077-.859.116-1.374.116zm-.294-6.617c-.51 0-.92.161-1.23.485-.305.323-.488.795-.547 1.415h3.432c-.01-.624-.16-1.096-.452-1.415-.291-.324-.692-.485-1.203-.485zm11.58 6.48h-1.613v-4.662c0-.579-.11-1.01-.328-1.292-.22-.287-.561-.431-1.026-.431-.62 0-1.075.203-1.367.609-.287.401-.43 1.071-.43 2.009v3.767h-1.607v-7.561h1.258l.225.992h.082c.21-.36.513-.638.91-.834.4-.196.84-.294 1.319-.294 1.162 0 1.932.396 2.31 1.189h.11c.223-.374.537-.665.943-.875.406-.209.87-.314 1.395-.314.902 0 1.558.228 1.968.683.415.456.623 1.151.623 2.085v4.929h-1.607v-4.662c0-.579-.112-1.01-.335-1.292-.219-.287-.56-.431-1.025-.431-.625 0-1.083.196-1.374.588-.287.387-.431.985-.431 1.791zm17.192 0h-6.775v-1.217l2.577-2.591c.761-.779 1.265-1.33 1.511-1.654.251-.328.433-.636.547-.923s.171-.594.171-.923c0-.451-.137-.806-.41-1.066-.269-.26-.643-.39-1.121-.39-.383 0-.755.071-1.115.212-.355.142-.768.397-1.237.766l-.868-1.06c.556-.469 1.096-.802 1.62-.998a4.74 4.74 0 0 1 1.675-.294c.929 0 1.675.244 2.235.732.561.483.841 1.135.841 1.955 0 .451-.082.879-.246 1.285-.16.406-.408.825-.745 1.258-.333.428-.889 1.009-1.668 1.743l-1.737 1.682v.068h4.745zm505.728-2.181h-1.347v2.181h-1.565v-2.181h-4.566v-1.237l4.566-6.603h1.565v6.507h1.347zm-2.912-1.333v-2.508c0-.894.023-1.625.068-2.195h-.054a7.714 7.714 0 0 1 -.602 1.094l-2.481 3.609zm3.958-.745c0-3.91 1.592-5.865 4.778-5.865.501 0 .925.039 1.271.116v1.34c-.346-.1-.747-.15-1.203-.15-1.071 0-1.875.287-2.413.861s-.829 1.495-.875 2.762h.082c.214-.369.515-.654.903-.855.387-.205.843-.307 1.367-.307.907 0 1.613.278 2.119.834s.759 1.31.759 2.262c0 1.048-.294 1.878-.882 2.489-.583.606-1.381.909-2.393.909-.715 0-1.337-.171-1.866-.513-.529-.346-.936-.848-1.224-1.504-.282-.661-.423-1.454-.423-2.379zm3.486 3.07c.551 0 .975-.178 1.271-.534.301-.355.452-.863.452-1.524 0-.574-.142-1.025-.424-1.354-.278-.328-.697-.492-1.258-.492-.346 0-.665.075-.957.226a1.714 1.714 0 0 0 -.69.608 1.405 1.405 0 0 0 -.253.786c0 .643.173 1.185.519 1.627.351.438.798.657 1.34.657zm5.769 1.189 3.951-8.565h-5.195v-1.415h6.911v1.121l-3.931 8.859zm9.215-1.47c-.219.848-.62 1.939-1.204 3.275h-1.182a33.83 33.83 0 0 0 .704-3.432h1.579zm5.071-8.654c.948 0 1.698.219 2.249.656.552.433.828 1.014.828 1.743 0 1.026-.616 1.842-1.846 2.448.784.392 1.34.804 1.668 1.237.333.433.499.916.499 1.449 0 .825-.303 1.486-.909 1.983-.606.496-1.427.745-2.461.745-1.085 0-1.926-.233-2.523-.698-.597-.464-.895-1.123-.895-1.975 0-.556.155-1.055.465-1.497.314-.447.827-.843 1.538-1.19-.611-.364-1.046-.749-1.306-1.155a2.48 2.48 0 0 1 -.39-1.367c0-.725.285-1.301.855-1.73.57-.433 1.312-.649 2.228-.649zm-1.852 7.533c0 .474.166.843.499 1.108.333.259.784.389 1.353.389.588 0 1.044-.134 1.368-.403.328-.274.492-.643.492-1.107 0-.37-.151-.707-.451-1.012-.301-.306-.757-.588-1.368-.848l-.198-.089c-.601.265-1.034.556-1.299.875a1.643 1.643 0 0 0 -.396 1.087zm1.839-6.296c-.456 0-.823.114-1.101.342-.278.223-.417.529-.417.916 0 .237.05.449.151.636.1.187.246.358.437.513.191.15.515.332.971.546.547-.241.932-.494 1.155-.758.228-.269.342-.581.342-.937 0-.387-.141-.693-.424-.916-.278-.228-.649-.342-1.114-.342zm11.559 8.887h-6.774v-1.217l2.577-2.591c.761-.779 1.264-1.33 1.51-1.654.251-.328.433-.636.547-.923s.171-.594.171-.923c0-.451-.137-.806-.41-1.066-.269-.26-.643-.39-1.121-.39-.383 0-.754.071-1.114.212-.356.142-.768.397-1.238.766l-.868-1.06c.556-.469 1.096-.802 1.62-.998a4.744 4.744 0 0 1 1.675-.294c.93 0 1.675.244 2.235.732.561.483.841 1.135.841 1.955 0 .451-.082.879-.246 1.285a5.12 5.12 0 0 1 -.745 1.258c-.333.428-.889 1.009-1.668 1.743l-1.736 1.682v.068h4.744zm8.134-5.729c0 1.969-.396 3.439-1.189 4.41-.793.97-1.987 1.456-3.582 1.456-.606 0-1.042-.037-1.306-.11v-1.346c.406.114.814.171 1.224.171 1.084 0 1.893-.292 2.427-.875.533-.584.824-1.5.875-2.748h-.082c-.269.41-.595.706-.978.888-.378.182-.823.274-1.333.274-.884 0-1.579-.276-2.085-.828-.506-.551-.759-1.307-.759-2.269 0-1.044.292-1.873.875-2.488.588-.62 1.388-.93 2.4-.93.711 0 1.33.173 1.859.52.529.346.937.849 1.224 1.51.287.656.43 1.445.43 2.365zm-3.486-3.062c-.556 0-.982.182-1.278.547-.297.36-.445.868-.445 1.524 0 .57.137 1.019.41 1.347.278.324.698.485 1.258.485.543 0 .998-.161 1.367-.485.37-.324.554-.702.554-1.135 0-.405-.08-.784-.239-1.135a2.002 2.002 0 0 0 -.656-.84 1.612 1.612 0 0 0 -.971-.308zm-40.781 45.61h-1.347v2.181h-1.565v-2.181h-4.566v-1.237l4.566-6.603h1.565v6.507h1.347zm-2.912-1.333v-2.508c0-.894.023-1.625.068-2.195h-.054a7.714 7.714 0 0 1 -.602 1.094l-2.481 3.609zm8.647 3.514h-1.606v-6.453c0-.77.018-1.381.054-1.832a5.23 5.23 0 0 1 -.389.362 86.45 86.45 0 0 1 -1.532 1.258l-.806-1.019 2.939-2.31h1.34zm10.206-4.997c0 1.736-.281 3.026-.841 3.869-.556.843-1.408 1.265-2.557 1.265-1.112 0-1.955-.436-2.529-1.306s-.861-2.146-.861-3.828c0-1.764.278-3.063.834-3.897.56-.838 1.412-1.257 2.556-1.257 1.117 0 1.962.437 2.536 1.312.575.875.862 2.156.862 3.842zm-5.161 0c0 1.363.139 2.336.417 2.919.282.583.731.875 1.346.875.616 0 1.064-.296 1.347-.889.287-.592.431-1.561.431-2.905 0-1.34-.144-2.308-.431-2.905-.283-.602-.731-.903-1.347-.903-.615 0-1.064.294-1.346.882-.278.588-.417 1.563-.417 2.926zm8.736 3.527c-.219.848-.62 1.939-1.204 3.275h-1.182a33.83 33.83 0 0 0 .704-3.432h1.579zm8.093-6.227c0 .633-.185 1.162-.554 1.586-.369.419-.888.701-1.558.847v.055c.802.1 1.403.351 1.804.752.401.396.602.925.602 1.586 0 .961-.34 1.704-1.019 2.228-.679.52-1.645.78-2.898.78-1.108 0-2.042-.18-2.803-.54v-1.429c.424.21.873.371 1.347.485s.929.171 1.367.171c.775 0 1.354-.143 1.736-.43.383-.288.575-.732.575-1.333 0-.534-.212-.926-.636-1.176-.424-.251-1.089-.376-1.996-.376h-.868v-1.306h.881c1.595 0 2.393-.551 2.393-1.654 0-.429-.139-.759-.417-.991-.278-.233-.688-.349-1.231-.349-.378 0-.742.055-1.093.164-.351.105-.766.312-1.244.622l-.787-1.121c.916-.674 1.981-1.012 3.193-1.012 1.007 0 1.793.217 2.358.65s.848 1.03.848 1.791zm8.524 2.7c0 1.736-.28 3.026-.841 3.869-.556.843-1.408 1.265-2.557 1.265-1.112 0-1.955-.436-2.529-1.306s-.861-2.146-.861-3.828c0-1.764.278-3.063.834-3.897.56-.838 1.413-1.257 2.556-1.257 1.117 0 1.962.437 2.537 1.312.574.875.861 2.156.861 3.842zm-5.161 0c0 1.363.139 2.336.417 2.919.282.583.731.875 1.346.875.616 0 1.065-.296 1.347-.889.287-.592.431-1.561.431-2.905 0-1.34-.144-2.308-.431-2.905-.282-.602-.731-.903-1.347-.903-.615 0-1.064.294-1.346.882-.278.588-.417 1.563-.417 2.926zm12.933-2.7c0 .633-.185 1.162-.554 1.586-.369.419-.888.701-1.558.847v.055c.802.1 1.403.351 1.804.752.401.396.602.925.602 1.586 0 .961-.34 1.704-1.019 2.228-.679.52-1.645.78-2.898.78-1.107 0-2.042-.18-2.803-.54v-1.429c.424.21.873.371 1.347.485s.93.171 1.367.171c.775 0 1.354-.143 1.736-.43.383-.288.575-.732.575-1.333 0-.534-.212-.926-.636-1.176-.424-.251-1.089-.376-1.996-.376h-.868v-1.306h.881c1.596 0 2.393-.551 2.393-1.654 0-.429-.139-.759-.417-.991-.278-.233-.688-.349-1.23-.349-.379 0-.743.055-1.094.164-.351.105-.766.312-1.244.622l-.786-1.121c.916-.674 1.98-1.012 3.192-1.012 1.007 0 1.793.217 2.358.65s.848 1.03.848 1.791zm-44.26 45.697h-6.775v-1.217l2.577-2.591c.761-.779 1.265-1.33 1.511-1.654.251-.328.433-.636.547-.923s.171-.594.171-.923c0-.451-.137-.806-.41-1.066-.269-.26-.643-.39-1.121-.39-.383 0-.755.071-1.115.212-.355.142-.768.397-1.237.766l-.868-1.06c.556-.469 1.096-.802 1.62-.998a4.74 4.74 0 0 1 1.675-.294c.93 0 1.675.244 2.235.732.561.483.841 1.135.841 1.955 0 .451-.082.879-.246 1.285-.16.406-.408.825-.745 1.258-.333.428-.889 1.009-1.668 1.743l-1.736 1.682v.068h4.744zm8.134-5.729c0 1.969-.396 3.439-1.189 4.41-.793.97-1.987 1.456-3.582 1.456-.607 0-1.042-.037-1.306-.11v-1.346c.405.114.813.171 1.224.171 1.084 0 1.893-.292 2.426-.875.533-.584.825-1.5.875-2.748h-.082c-.269.41-.594.706-.977.888-.379.182-.823.274-1.333.274-.884 0-1.579-.276-2.085-.828-.506-.551-.759-1.307-.759-2.269 0-1.044.292-1.873.875-2.488.588-.62 1.388-.93 2.399-.93.711 0 1.331.173 1.86.52.528.346.936.849 1.223 1.51.287.656.431 1.445.431 2.365zm-3.486-3.062c-.556 0-.982.182-1.279.547-.296.36-.444.868-.444 1.524 0 .57.137 1.019.41 1.347.278.324.697.485 1.258.485.542 0 .998-.161 1.367-.485s.554-.702.554-1.135c0-.405-.08-.784-.239-1.135a1.997 1.997 0 0 0 -.657-.84 1.609 1.609 0 0 0 -.97-.308zm4.901 4.532c0-3.91 1.592-5.865 4.778-5.865.501 0 .925.039 1.271.116v1.34c-.346-.1-.747-.15-1.203-.15-1.071 0-1.875.287-2.413.861-.537.574-.829 1.495-.875 2.762h.082c.214-.369.515-.654.903-.855.387-.205.843-.307 1.367-.307.907 0 1.613.278 2.119.834s.759 1.31.759 2.262c0 1.048-.294 1.878-.882 2.489-.583.606-1.381.909-2.393.909-.715 0-1.337-.171-1.866-.513-.529-.346-.936-.848-1.224-1.504-.282-.661-.423-1.454-.423-2.379zm3.486 3.07c.551 0 .975-.178 1.271-.534.301-.355.452-.863.452-1.524 0-.574-.142-1.025-.424-1.354-.278-.328-.697-.492-1.258-.492-.346 0-.665.075-.957.226a1.714 1.714 0 0 0 -.69.608 1.405 1.405 0 0 0 -.253.786c0 .643.173 1.185.519 1.627.351.438.798.657 1.34.657zm6.836-.281c-.219.848-.62 1.939-1.204 3.275h-1.182a33.83 33.83 0 0 0 .704-3.432h1.579zm8.455-4.259c0 1.969-.396 3.439-1.189 4.41-.793.97-1.987 1.456-3.582 1.456-.606 0-1.042-.037-1.306-.11v-1.346c.406.114.814.171 1.224.171 1.084 0 1.893-.292 2.426-.875.534-.584.825-1.5.875-2.748h-.082c-.268.41-.594.706-.977.888-.378.182-.823.274-1.333.274-.884 0-1.579-.276-2.085-.828-.506-.551-.759-1.307-.759-2.269 0-1.044.292-1.873.875-2.488.588-.62 1.388-.93 2.4-.93.71 0 1.33.173 1.859.52.529.346.936.849 1.224 1.51.287.656.43 1.445.43 2.365zm-3.486-3.062c-.556 0-.982.182-1.278.547-.297.36-.445.868-.445 1.524 0 .57.137 1.019.41 1.347.278.324.698.485 1.258.485.543 0 .998-.161 1.367-.485.37-.324.554-.702.554-1.135 0-.405-.08-.784-.239-1.135a2.002 2.002 0 0 0 -.656-.84 1.614 1.614 0 0 0 -.971-.308zm12.003 6.61h-1.346v2.181h-1.566v-2.181h-4.566v-1.237l4.566-6.603h1.566v6.507h1.346zm-2.912-1.333v-2.508c0-.894.023-1.625.069-2.195h-.055a7.714 7.714 0 0 1 -.602 1.094l-2.481 3.609zm11.06 1.333h-1.346v2.181h-1.566v-2.181h-4.566v-1.237l4.566-6.603h1.566v6.507h1.346zm-2.912-1.333v-2.508c0-.894.023-1.625.069-2.195h-.055a7.714 7.714 0 0 1 -.602 1.094l-2.481 3.609zm-44.137 41.514h-1.606v-6.453c0-.77.018-1.381.054-1.832-.105.109-.234.23-.389.362a86.45 86.45 0 0 1 -1.532 1.258l-.806-1.019 2.939-2.31h1.34zm10.206 0h-6.775v-1.217l2.577-2.591c.761-.779 1.265-1.33 1.511-1.654.251-.328.433-.636.547-.923s.171-.594.171-.923c0-.451-.137-.806-.41-1.066-.269-.26-.643-.39-1.121-.39-.383 0-.755.071-1.115.212-.355.142-.767.397-1.237.766l-.868-1.06c.556-.469 1.096-.802 1.62-.998a4.74 4.74 0 0 1 1.675-.294c.93 0 1.675.244 2.235.732.561.483.841 1.135.841 1.955 0 .451-.082.879-.246 1.285-.16.406-.408.825-.745 1.258-.333.428-.889 1.009-1.668 1.743l-1.736 1.682v.068h4.744zm7.772-7.697c0 .633-.185 1.162-.554 1.586-.369.419-.889.701-1.559.847v.055c.803.1 1.404.351 1.805.752.401.396.602.925.602 1.586 0 .961-.34 1.704-1.019 2.228-.679.52-1.645.78-2.898.78-1.108 0-2.042-.18-2.803-.54v-1.429c.424.21.873.371 1.347.485s.929.171 1.367.171c.775 0 1.353-.143 1.736-.43.383-.288.574-.732.574-1.333 0-.534-.212-.926-.635-1.176-.424-.251-1.09-.376-1.996-.376h-.869v-1.306h.882c1.595 0 2.393-.551 2.393-1.654 0-.429-.139-.759-.417-.991-.278-.233-.688-.349-1.231-.349-.378 0-.742.055-1.093.164-.351.105-.766.312-1.245.622l-.786-1.121c.916-.674 1.98-1.012 3.193-1.012 1.007 0 1.793.217 2.358.65s.848 1.03.848 1.791zm3.951 6.227c-.219.848-.62 1.939-1.204 3.275h-1.182a33.83 33.83 0 0 0 .704-3.432h1.579zm8.824-.711h-1.346v2.181h-1.566v-2.181h-4.566v-1.237l4.566-6.603h1.566v6.507h1.346zm-2.912-1.333v-2.508c0-.894.023-1.625.069-2.195h-.055a7.714 7.714 0 0 1 -.602 1.094l-2.481 3.609zm7.307-6.61c.948 0 1.698.219 2.249.656.552.433.828 1.014.828 1.743 0 1.026-.616 1.842-1.846 2.448.784.392 1.34.804 1.668 1.237.333.433.499.916.499 1.449 0 .825-.303 1.486-.909 1.983-.606.496-1.427.745-2.461.745-1.085 0-1.926-.233-2.523-.698-.597-.464-.895-1.123-.895-1.975 0-.556.155-1.055.465-1.497.314-.447.827-.843 1.538-1.19-.611-.364-1.046-.749-1.306-1.155a2.48 2.48 0 0 1 -.39-1.367c0-.725.285-1.301.855-1.73.57-.433 1.312-.649 2.228-.649zm-1.852 7.533c0 .474.166.843.499 1.108.333.259.784.389 1.353.389.588 0 1.044-.134 1.368-.403.328-.274.492-.643.492-1.107 0-.37-.151-.707-.451-1.012-.301-.306-.757-.588-1.368-.848l-.198-.089c-.601.265-1.034.556-1.299.875a1.643 1.643 0 0 0 -.396 1.087zm1.839-6.296c-.456 0-.823.114-1.101.342-.278.223-.417.529-.417.916 0 .237.05.449.151.636.1.187.246.358.437.513.192.15.515.332.971.546.547-.241.932-.494 1.155-.758.228-.269.342-.581.342-.937 0-.387-.141-.693-.424-.916-.278-.228-.649-.342-1.114-.342zm8.175 2.646c1.007 0 1.805.266 2.393.8.588.533.882 1.26.882 2.18 0 1.067-.335 1.901-1.005 2.502-.666.597-1.614.896-2.844.896-1.117 0-1.994-.18-2.632-.54v-1.456c.369.209.793.371 1.272.485.478.114.922.171 1.333.171.724 0 1.276-.162 1.654-.485.378-.324.567-.798.567-1.422 0-1.194-.761-1.791-2.283-1.791-.214 0-.478.022-.793.068-.314.041-.59.089-.827.144l-.718-.424.383-4.881h5.195v1.429h-3.78l-.226 2.474.582-.096c.232-.036.515-.054.847-.054zm-588.322-69.759v-9.994h1.633v9.994zm7.074-1.162c.392 0 .784-.062 1.176-.185v1.21a3.09 3.09 0 0 1 -.69.192 4.544 4.544 0 0 1 -.869.082c-1.522 0-2.283-.802-2.283-2.407v-4.074h-1.032v-.711l1.107-.588.547-1.599h.991v1.681h2.154v1.217h-2.155v4.047c0 .387.096.675.288.861.195.183.45.274.765.274zm6.145 1.299c-1.175 0-2.096-.342-2.761-1.026-.661-.688-.992-1.633-.992-2.837 0-1.235.308-2.205.923-2.912.615-.706 1.46-1.059 2.536-1.059.998 0 1.787.303 2.365.909.58.606.869 1.44.869 2.502v.868h-5.039c.022.734.22 1.299.594 1.695.374.392.9.588 1.58.588.446 0 .86-.041 1.244-.123a6.657 6.657 0 0 0 1.244-.424v1.306a4.95 4.95 0 0 1 -1.19.397c-.4.077-.859.116-1.374.116zm-.294-6.617c-.51 0-.92.161-1.23.485-.305.323-.488.795-.547 1.415h3.432c-.01-.624-.16-1.096-.452-1.415-.291-.324-.692-.485-1.203-.485zm11.58 6.48h-1.613v-4.662c0-.579-.11-1.01-.328-1.292-.22-.287-.561-.431-1.026-.431-.62 0-1.075.203-1.367.609-.287.401-.43 1.071-.43 2.009v3.767h-1.607v-7.561h1.258l.225.992h.082c.21-.36.513-.638.91-.834.4-.196.84-.294 1.319-.294 1.162 0 1.932.396 2.31 1.189h.11c.223-.374.537-.665.943-.875.406-.209.87-.314 1.395-.314.902 0 1.558.228 1.968.683.415.456.623 1.151.623 2.085v4.929h-1.607v-4.662c0-.579-.112-1.01-.335-1.292-.219-.287-.56-.431-1.025-.431-.625 0-1.083.196-1.374.588-.287.387-.431.985-.431 1.791zm16.816-7.697c0 .633-.185 1.162-.554 1.586-.369.419-.889.701-1.559.847v.055c.802.1 1.404.351 1.805.752.401.396.602.925.602 1.586 0 .961-.34 1.704-1.019 2.228-.679.52-1.645.78-2.898.78-1.108 0-2.042-.18-2.803-.54v-1.429c.424.21.873.371 1.347.485.473.114.929.171 1.367.171.774 0 1.353-.143 1.736-.43.383-.288.574-.732.574-1.333 0-.534-.212-.926-.635-1.176-.424-.251-1.09-.376-1.997-.376h-.868v-1.306h.882c1.595 0 2.393-.551 2.393-1.654 0-.429-.139-.759-.417-.991-.278-.233-.688-.349-1.231-.349a3.67 3.67 0 0 0 -1.094.164c-.35.105-.765.312-1.244.622l-.786-1.121c.916-.674 1.98-1.012 3.193-1.012 1.007 0 1.793.217 2.358.65s.848 1.03.848 1.791zm-41.321 45.697v-9.994h1.633v9.994zm7.074-1.162c.392 0 .784-.062 1.176-.185v1.21a3.09 3.09 0 0 1 -.69.192 4.544 4.544 0 0 1 -.869.082c-1.522 0-2.283-.802-2.283-2.407v-4.074h-1.032v-.711l1.107-.588.547-1.599h.991v1.681h2.154v1.217h-2.155v4.047c0 .387.096.675.288.861.195.183.45.274.765.274zm6.145 1.299c-1.175 0-2.096-.342-2.761-1.026-.661-.688-.992-1.633-.992-2.837 0-1.235.308-2.205.923-2.912.615-.706 1.46-1.059 2.536-1.059.998 0 1.787.303 2.365.909.58.606.869 1.44.869 2.502v.868h-5.039c.022.734.22 1.299.594 1.695.374.392.9.588 1.58.588.446 0 .86-.041 1.244-.123a6.657 6.657 0 0 0 1.244-.424v1.306a4.95 4.95 0 0 1 -1.19.397c-.4.077-.859.116-1.374.116zm-.294-6.617c-.51 0-.92.161-1.23.485-.305.323-.488.795-.547 1.415h3.432c-.01-.624-.16-1.096-.452-1.415-.291-.324-.692-.485-1.203-.485zm11.58 6.48h-1.613v-4.662c0-.579-.11-1.01-.328-1.292-.22-.287-.561-.431-1.026-.431-.62 0-1.075.203-1.367.609-.287.401-.43 1.071-.43 2.009v3.767h-1.607v-7.561h1.258l.225.992h.082c.21-.36.513-.638.91-.834.4-.196.84-.294 1.319-.294 1.162 0 1.932.396 2.31 1.189h.11c.223-.374.537-.665.943-.875.406-.209.87-.314 1.395-.314.902 0 1.558.228 1.968.683.415.456.623 1.151.623 2.085v4.929h-1.607v-4.662c0-.579-.112-1.01-.335-1.292-.219-.287-.56-.431-1.025-.431-.625 0-1.083.196-1.374.588-.287.387-.431.985-.431 1.791zm17.547-2.181h-1.347v2.181h-1.565v-2.181h-4.566v-1.237l4.566-6.603h1.565v6.507h1.347zm-2.912-1.333v-2.508c0-.894.023-1.625.068-2.195h-.054a7.714 7.714 0 0 1 -.602 1.094l-2.481 3.609zm-39.14 41.514v-9.994h1.633v9.994zm7.074-1.162c.392 0 .784-.062 1.176-.185v1.21a3.09 3.09 0 0 1 -.69.192 4.544 4.544 0 0 1 -.869.082c-1.522 0-2.283-.802-2.283-2.407v-4.074h-1.032v-.711l1.107-.588.547-1.599h.991v1.681h2.154v1.217h-2.155v4.047c0 .387.096.675.288.861.195.183.45.274.765.274zm6.145 1.299c-1.175 0-2.096-.342-2.761-1.026-.661-.688-.992-1.633-.992-2.837 0-1.235.308-2.205.923-2.912.615-.706 1.46-1.059 2.536-1.059.998 0 1.787.303 2.365.909.58.606.869 1.44.869 2.502v.868h-5.039c.022.734.22 1.299.594 1.695.374.392.9.588 1.58.588.446 0 .86-.041 1.244-.123a6.657 6.657 0 0 0 1.244-.424v1.306a4.95 4.95 0 0 1 -1.19.397c-.4.077-.859.116-1.374.116zm-.294-6.617c-.51 0-.92.161-1.23.485-.305.323-.488.795-.547 1.415h3.432c-.01-.624-.16-1.096-.452-1.415-.291-.324-.692-.485-1.203-.485zm11.58 6.48h-1.613v-4.662c0-.579-.11-1.01-.328-1.292-.22-.287-.561-.431-1.026-.431-.62 0-1.075.203-1.367.609-.287.401-.43 1.071-.43 2.009v3.767h-1.607v-7.561h1.258l.225.992h.082c.21-.36.513-.638.91-.834.4-.196.84-.294 1.319-.294 1.162 0 1.932.396 2.31 1.189h.11c.223-.374.537-.665.943-.875.406-.209.87-.314 1.395-.314.902 0 1.558.228 1.968.683.415.456.623 1.151.623 2.085v4.929h-1.607v-4.662c0-.579-.112-1.01-.335-1.292-.219-.287-.56-.431-1.025-.431-.625 0-1.083.196-1.374.588-.287.387-.431.985-.431 1.791zm15.134 0h-1.606v-6.453c0-.77.018-1.381.054-1.832-.105.109-.234.23-.389.362a86.45 86.45 0 0 1 -1.532 1.258l-.806-1.019 2.939-2.31h1.34z" fill="#252a2e"/><path d="m25 592.5h650m-650 38h650m-650 39h650m-650 38h650m-650 38h650" stroke="#6a6e79" stroke-linecap="square"/></g><path d="m755 0h700v790h-700z" fill="#fff"/><circle cx="1269" cy="604" fill="#ffce74" r="8"/><circle cx="1143" cy="604" fill="#fbad26" r="8"/><circle cx="891" cy="641" fill="#e86363" r="8"/><circle cx="1017" cy="641" fill="#a4d069" r="8"/><circle cx="1017" cy="604" fill="#368fc7" r="8"/><circle cx="891" cy="604" fill="#0063a3" r="8"/><path d="m1160.32 608v-9.994h1.63v9.994zm7.07-1.162c.4 0 .79-.062 1.18-.185v1.21c-.18.078-.41.142-.69.192-.28.054-.57.082-.87.082-1.52 0-2.28-.802-2.28-2.407v-4.074h-1.03v-.711l1.1-.588.55-1.599h.99v1.681h2.15v1.217h-2.15v4.047c0 .387.1.675.29.861.19.183.45.274.76.274zm6.15 1.299c-1.18 0-2.1-.342-2.76-1.026-.66-.688-.99-1.633-.99-2.837 0-1.235.3-2.205.92-2.912.61-.706 1.46-1.059 2.54-1.059.99 0 1.78.303 2.36.909s.87 1.44.87 2.502v.868h-5.04c.02.734.22 1.299.6 1.695.37.392.9.588 1.57.588.45 0 .87-.041 1.25-.123.39-.086.8-.228 1.24-.424v1.306c-.39.187-.79.319-1.19.397-.4.077-.86.116-1.37.116zm-.29-6.617c-.52 0-.93.161-1.24.485-.3.323-.48.795-.54 1.415h3.43c-.01-.624-.16-1.096-.45-1.415-.29-.324-.69-.485-1.2-.485zm11.58 6.48h-1.62v-4.662c0-.579-.11-1.01-.33-1.292-.22-.287-.56-.431-1.02-.431-.62 0-1.08.203-1.37.609-.29.401-.43 1.071-.43 2.009v3.767h-1.61v-7.561h1.26l.23.992h.08c.21-.36.51-.638.91-.834s.84-.294 1.32-.294c1.16 0 1.93.396 2.31 1.189h.11c.22-.374.54-.665.94-.875a3.02 3.02 0 0 1 1.4-.314c.9 0 1.55.228 1.96.683.42.456.63 1.151.63 2.085v4.929h-1.61v-4.662c0-.579-.11-1.01-.33-1.292-.22-.287-.57-.431-1.03-.431-.62 0-1.08.196-1.37.588-.29.387-.43.985-.43 1.791zm10.44-4.259c0-3.91 1.59-5.865 4.78-5.865.5 0 .92.039 1.27.116v1.34c-.35-.1-.75-.15-1.2-.15-1.07 0-1.88.287-2.42.861-.53.574-.83 1.495-.87 2.762h.08c.21-.369.52-.654.9-.855.39-.205.85-.307 1.37-.307.91 0 1.61.278 2.12.834.5.556.76 1.31.76 2.262 0 1.048-.3 1.878-.88 2.489-.59.606-1.39.909-2.4.909-.71 0-1.33-.171-1.86-.513-.53-.346-.94-.848-1.23-1.504-.28-.661-.42-1.454-.42-2.379zm3.49 3.07c.55 0 .97-.178 1.27-.534.3-.355.45-.863.45-1.524 0-.574-.14-1.025-.43-1.354-.27-.328-.69-.492-1.25-.492-.35 0-.67.075-.96.226a1.74 1.74 0 0 0 -.69.608c-.17.255-.25.517-.25.786 0 .643.17 1.185.52 1.627.35.438.79.657 1.34.657zm87.56 1.189v-9.994h1.63v9.994zm7.07-1.162c.4 0 .79-.062 1.18-.185v1.21c-.18.078-.41.142-.69.192-.28.054-.57.082-.87.082-1.52 0-2.28-.802-2.28-2.407v-4.074h-1.03v-.711l1.1-.588.55-1.599h.99v1.681h2.15v1.217h-2.15v4.047c0 .387.1.675.29.861.19.183.45.274.76.274zm6.15 1.299c-1.18 0-2.1-.342-2.76-1.026-.66-.688-.99-1.633-.99-2.837 0-1.235.3-2.205.92-2.912.61-.706 1.46-1.059 2.54-1.059.99 0 1.78.303 2.36.909s.87 1.44.87 2.502v.868h-5.04c.02.734.22 1.299.6 1.695.37.392.9.588 1.57.588.45 0 .87-.041 1.25-.123.39-.086.8-.228 1.24-.424v1.306c-.39.187-.79.319-1.19.397-.4.077-.86.116-1.37.116zm-.29-6.617c-.52 0-.93.161-1.24.485-.3.323-.48.795-.54 1.415h3.43c-.01-.624-.16-1.096-.45-1.415-.29-.324-.69-.485-1.2-.485zm11.58 6.48h-1.62v-4.662c0-.579-.11-1.01-.33-1.292-.22-.287-.56-.431-1.02-.431-.62 0-1.08.203-1.37.609-.29.401-.43 1.071-.43 2.009v3.767h-1.61v-7.561h1.26l.23.992h.08c.21-.36.51-.638.91-.834s.84-.294 1.32-.294c1.16 0 1.93.396 2.31 1.189h.11c.22-.374.54-.665.94-.875a3.02 3.02 0 0 1 1.4-.314c.9 0 1.55.228 1.96.683.42.456.63 1.151.63 2.085v4.929h-1.61v-4.662c0-.579-.11-1.01-.33-1.292-.22-.287-.57-.431-1.03-.431-.62 0-1.08.196-1.37.588-.29.387-.43.985-.43 1.791zm17.54-2.181h-1.34v2.181h-1.57v-2.181h-4.57v-1.237l4.57-6.603h1.57v6.507h1.34zm-2.91-1.333v-2.508c0-.894.02-1.625.07-2.195h-.06c-.12.301-.32.666-.6 1.094l-2.48 3.609zm-417.141 40.514v-9.994h1.634v9.994zm7.075-1.162a3.91 3.91 0 0 0 1.176-.185v1.21a3.093 3.093 0 0 1 -.691.192 4.54 4.54 0 0 1 -.868.082c-1.522 0-2.283-.802-2.283-2.407v-4.074h-1.032v-.711l1.107-.588.547-1.599h.991v1.681h2.154v1.217h-2.154v4.047c0 .387.096.675.288.861.195.183.451.274.765.274zm6.145 1.299c-1.176 0-2.096-.342-2.761-1.026-.661-.688-.992-1.633-.992-2.837 0-1.235.308-2.205.923-2.912.615-.706 1.461-1.059 2.536-1.059.998 0 1.787.303 2.366.909.578.606.868 1.44.868 2.502v.868h-5.038c.022.734.221 1.299.594 1.695.374.392.9.588 1.579.588.447 0 .862-.041 1.245-.123a6.666 6.666 0 0 0 1.244-.424v1.306a4.956 4.956 0 0 1 -1.19.397 7.334 7.334 0 0 1 -1.374.116zm-.294-6.617c-.51 0-.92.161-1.23.485-.305.323-.488.795-.547 1.415h3.432c-.01-.624-.16-1.096-.452-1.415-.291-.324-.692-.485-1.203-.485zm11.58 6.48h-1.613v-4.662c0-.579-.11-1.01-.328-1.292-.219-.287-.561-.431-1.026-.431-.62 0-1.075.203-1.367.609-.287.401-.431 1.071-.431 2.009v3.767h-1.606v-7.561h1.258l.225.992h.082a2.1 2.1 0 0 1 .91-.834 2.96 2.96 0 0 1 1.319-.294c1.162 0 1.932.396 2.31 1.189h.11c.223-.374.538-.665.943-.875.406-.209.871-.314 1.395-.314.902 0 1.558.228 1.968.683.415.456.622 1.151.622 2.085v4.929h-1.606v-4.662c0-.579-.112-1.01-.335-1.292-.219-.287-.56-.431-1.025-.431-.625 0-1.083.196-1.374.588-.287.387-.431.985-.431 1.791zm15.134 0h-1.606v-6.453c0-.77.018-1.381.054-1.832-.105.109-.234.23-.389.362a86.45 86.45 0 0 1 -1.532 1.258l-.806-1.019 2.939-2.31h1.34zm86.361 0v-9.994h1.63v9.994zm7.07-1.162c.4 0 .79-.062 1.18-.185v1.21c-.18.078-.41.142-.69.192-.28.054-.57.082-.87.082-1.52 0-2.28-.802-2.28-2.407v-4.074h-1.03v-.711l1.1-.588.55-1.599h.99v1.681h2.15v1.217h-2.15v4.047c0 .387.1.675.29.861.19.183.45.274.76.274zm6.15 1.299c-1.18 0-2.1-.342-2.76-1.026-.66-.688-.99-1.633-.99-2.837 0-1.235.3-2.205.92-2.912.61-.706 1.46-1.059 2.54-1.059.99 0 1.78.303 2.36.909s.87 1.44.87 2.502v.868h-5.04c.02.734.22 1.299.6 1.695.37.392.9.588 1.57.588.45 0 .87-.041 1.25-.123.39-.086.8-.228 1.24-.424v1.306c-.39.187-.79.319-1.19.397-.4.077-.86.116-1.37.116zm-.29-6.617c-.52 0-.93.161-1.24.485-.3.323-.48.795-.54 1.415h3.43c-.01-.624-.16-1.096-.45-1.415-.29-.324-.69-.485-1.2-.485zm11.58 6.48h-1.62v-4.662c0-.579-.11-1.01-.33-1.292-.22-.287-.56-.431-1.02-.431-.62 0-1.08.203-1.37.609-.29.401-.43 1.071-.43 2.009v3.767h-1.61v-7.561h1.26l.23.992h.08c.21-.36.51-.638.91-.834s.84-.294 1.32-.294c1.16 0 1.93.396 2.31 1.189h.11c.22-.374.54-.665.94-.875a3.02 3.02 0 0 1 1.4-.314c.9 0 1.55.228 1.96.683.42.456.63 1.151.63 2.085v4.929h-1.61v-4.662c0-.579-.11-1.01-.33-1.292-.22-.287-.57-.431-1.03-.431-.62 0-1.08.196-1.37.588-.29.387-.43.985-.43 1.791zm13.8-6.241c1.01 0 1.81.266 2.4.8.58.533.88 1.26.88 2.18 0 1.067-.34 1.901-1.01 2.502-.66.597-1.61.896-2.84.896-1.12 0-2-.18-2.63-.54v-1.456c.37.209.79.371 1.27.485s.92.171 1.33.171c.73 0 1.28-.162 1.66-.485.37-.324.56-.798.56-1.422 0-1.194-.76-1.791-2.28-1.791-.21 0-.48.022-.79.068-.32.041-.59.089-.83.144l-.72-.424.38-4.881h5.2v1.429h-3.78l-.23 2.474.59-.096c.23-.036.51-.054.84-.054zm-38.31-30.759v-9.994h1.63v9.994zm7.07-1.162c.4 0 .79-.062 1.18-.185v1.21c-.18.078-.41.142-.69.192-.28.054-.57.082-.87.082-1.52 0-2.28-.802-2.28-2.407v-4.074h-1.03v-.711l1.1-.588.55-1.599h.99v1.681h2.15v1.217h-2.15v4.047c0 .387.1.675.29.861.19.183.45.274.76.274zm6.15 1.299c-1.18 0-2.1-.342-2.76-1.026-.66-.688-.99-1.633-.99-2.837 0-1.235.3-2.205.92-2.912.61-.706 1.46-1.059 2.54-1.059.99 0 1.78.303 2.36.909s.87 1.44.87 2.502v.868h-5.04c.02.734.22 1.299.6 1.695.37.392.9.588 1.57.588.45 0 .87-.041 1.25-.123.39-.086.8-.228 1.24-.424v1.306c-.39.187-.79.319-1.19.397-.4.077-.86.116-1.37.116zm-.29-6.617c-.52 0-.93.161-1.24.485-.3.323-.48.795-.54 1.415h3.43c-.01-.624-.16-1.096-.45-1.415-.29-.324-.69-.485-1.2-.485zm11.58 6.48h-1.62v-4.662c0-.579-.11-1.01-.33-1.292-.22-.287-.56-.431-1.02-.431-.62 0-1.08.203-1.37.609-.29.401-.43 1.071-.43 2.009v3.767h-1.61v-7.561h1.26l.23.992h.08c.21-.36.51-.638.91-.834s.84-.294 1.32-.294c1.16 0 1.93.396 2.31 1.189h.11c.22-.374.54-.665.94-.875a3.02 3.02 0 0 1 1.4-.314c.9 0 1.55.228 1.96.683.42.456.63 1.151.63 2.085v4.929h-1.61v-4.662c0-.579-.11-1.01-.33-1.292-.22-.287-.57-.431-1.03-.431-.62 0-1.08.196-1.37.588-.29.387-.43.985-.43 1.791zm16.81-7.697c0 .633-.18 1.162-.55 1.586-.37.419-.89.701-1.56.847v.055c.8.1 1.4.351 1.8.752.4.396.6.925.6 1.586 0 .961-.33 1.704-1.01 2.228-.68.52-1.65.78-2.9.78-1.11 0-2.04-.18-2.81-.54v-1.429c.43.21.88.371 1.35.485.48.114.93.171 1.37.171.77 0 1.35-.143 1.74-.43.38-.288.57-.732.57-1.333 0-.534-.21-.926-.64-1.176-.42-.251-1.09-.376-1.99-.376h-.87v-1.306h.88c1.6 0 2.39-.551 2.39-1.654 0-.429-.14-.759-.41-.991-.28-.233-.69-.349-1.23-.349-.38 0-.75.055-1.1.164-.35.105-.76.312-1.24.622l-.79-1.121c.92-.674 1.98-1.012 3.19-1.012 1.01 0 1.8.217 2.36.65.57.433.85 1.03.85 1.791zm-167.321 7.697v-9.994h1.634v9.994zm7.075-1.162a3.91 3.91 0 0 0 1.176-.185v1.21a3.093 3.093 0 0 1 -.691.192 4.54 4.54 0 0 1 -.868.082c-1.522 0-2.283-.802-2.283-2.407v-4.074h-1.032v-.711l1.107-.588.547-1.599h.991v1.681h2.154v1.217h-2.154v4.047c0 .387.096.675.288.861.195.183.451.274.765.274zm6.145 1.299c-1.176 0-2.096-.342-2.761-1.026-.661-.688-.992-1.633-.992-2.837 0-1.235.308-2.205.923-2.912.615-.706 1.461-1.059 2.536-1.059.998 0 1.787.303 2.366.909.578.606.868 1.44.868 2.502v.868h-5.038c.022.734.221 1.299.594 1.695.374.392.9.588 1.579.588.447 0 .862-.041 1.245-.123a6.666 6.666 0 0 0 1.244-.424v1.306a4.956 4.956 0 0 1 -1.19.397 7.334 7.334 0 0 1 -1.374.116zm-.294-6.617c-.51 0-.92.161-1.23.485-.305.323-.488.795-.547 1.415h3.432c-.01-.624-.16-1.096-.452-1.415-.291-.324-.692-.485-1.203-.485zm11.58 6.48h-1.613v-4.662c0-.579-.11-1.01-.328-1.292-.219-.287-.561-.431-1.026-.431-.62 0-1.075.203-1.367.609-.287.401-.431 1.071-.431 2.009v3.767h-1.606v-7.561h1.258l.225.992h.082a2.1 2.1 0 0 1 .91-.834 2.96 2.96 0 0 1 1.319-.294c1.162 0 1.932.396 2.31 1.189h.11c.223-.374.538-.665.943-.875.406-.209.871-.314 1.395-.314.902 0 1.558.228 1.968.683.415.456.622 1.151.622 2.085v4.929h-1.606v-4.662c0-.579-.112-1.01-.335-1.292-.219-.287-.56-.431-1.025-.431-.625 0-1.083.196-1.374.588-.287.387-.431.985-.431 1.791zm17.192 0h-6.775v-1.217l2.577-2.591c.761-.779 1.265-1.33 1.511-1.654.251-.328.433-.636.547-.923s.171-.594.171-.923c0-.451-.137-.806-.41-1.066-.269-.26-.643-.39-1.121-.39-.383 0-.755.071-1.115.212-.355.142-.768.397-1.237.766l-.868-1.06c.556-.469 1.096-.802 1.62-.998a4.74 4.74 0 0 1 1.675-.294c.929 0 1.675.244 2.235.732.561.483.841 1.135.841 1.955 0 .451-.082.879-.246 1.285-.16.406-.408.825-.745 1.258-.333.428-.889 1.009-1.668 1.743l-1.737 1.682v.068h4.745z" fill="#252a2e"/><path d="m929.273 256.502a199.998 199.998 0 0 1 111.477-93.902l64.25 189.4z" fill="#e86363"/><path d="m1105 152c47.07 0 92.64 16.603 128.67 46.888a199.958 199.958 0 0 1 68.34 118.678l-197.01 34.434z" fill="#0063a3"/><path d="m1301.77 316.183a200.046 200.046 0 0 1 -16.73 122.919 200.028 200.028 0 0 1 -86 89.409l-94.04-176.511z" fill="#368fc7"/><path d="m951.907 480.695a199.998 199.998 0 0 1 -21.95-225.441l175.043 96.746z" fill="#ffce74"/><path d="m1039.88 162.898a200.022 200.022 0 0 1 66.43-10.894l-1.31 199.996z" fill="#a4d069"/><path d="m1199.54 528.243a200 200 0 0 1 -249.886-50.276l155.346-125.967z" fill="#fbad26"/><path d="m1014.51 285v-11.422h1.87v11.422zm8.06-1.328c.45 0 .9-.07 1.35-.211v1.383c-.21.088-.47.161-.79.218-.32.063-.65.094-1 .094-1.74 0-2.6-.916-2.6-2.75v-4.656h-1.18v-.812l1.26-.672.63-1.828h1.13v1.921h2.46v1.391h-2.46v4.625c0 .443.11.771.33.984.22.209.51.313.87.313zm7 1.484c-1.34 0-2.39-.39-3.15-1.172-.76-.786-1.14-1.867-1.14-3.242 0-1.411.36-2.521 1.06-3.328s1.67-1.211 2.9-1.211c1.14 0 2.04.346 2.7 1.039s.99 1.646.99 2.86v.992h-5.75c.02.838.25 1.484.67 1.937.43.448 1.03.672 1.81.672.51 0 .98-.047 1.42-.141.44-.098.92-.26 1.42-.484v1.492c-.44.214-.9.365-1.36.453a8.22 8.22 0 0 1 -1.57.133zm-.33-7.562c-.59 0-1.05.185-1.41.554-.35.37-.56.909-.62 1.618h3.92c-.01-.714-.18-1.253-.52-1.618-.33-.369-.79-.554-1.37-.554zm13.21 7.406h-1.84v-5.328c0-.662-.13-1.154-.38-1.477-.25-.328-.64-.492-1.17-.492-.71 0-1.23.232-1.56.695-.33.459-.5 1.224-.5 2.297v4.305h-1.83v-8.641h1.44l.25 1.133h.1c.24-.411.58-.729 1.04-.953a3.38 3.38 0 0 1 1.5-.336c1.33 0 2.21.453 2.65 1.359h.12c.26-.427.61-.76 1.08-1 .46-.239.99-.359 1.59-.359 1.03 0 1.78.261 2.25.781.48.521.71 1.315.71 2.383v5.633h-1.83v-5.328c0-.662-.13-1.154-.39-1.477-.25-.328-.64-.492-1.17-.492-.71 0-1.23.224-1.57.672-.33.443-.49 1.125-.49 2.047zm17.25 0h-1.83v-7.375c0-.88.02-1.578.06-2.094a5.77 5.77 0 0 1 -.45.414c-.17.151-.75.631-1.75 1.438l-.92-1.164 3.36-2.641h1.53zm111.81 107v-11.422h1.87v11.422zm8.06-1.328c.45 0 .9-.07 1.35-.211v1.383c-.21.088-.47.161-.79.218-.32.063-.65.094-1 .094-1.74 0-2.6-.916-2.6-2.75v-4.656h-1.18v-.812l1.26-.672.63-1.828h1.13v1.921h2.46v1.391h-2.46v4.625c0 .443.11.771.33.984.22.209.51.313.87.313zm7 1.484c-1.34 0-2.39-.39-3.15-1.172-.76-.786-1.14-1.867-1.14-3.242 0-1.411.36-2.521 1.06-3.328s1.67-1.211 2.9-1.211c1.14 0 2.04.346 2.7 1.039s.99 1.646.99 2.86v.992h-5.75c.02.838.25 1.484.67 1.937.43.448 1.03.672 1.81.672.51 0 .98-.047 1.42-.141.44-.098.92-.26 1.42-.484v1.492c-.44.214-.9.365-1.36.453a8.22 8.22 0 0 1 -1.57.133zm-.33-7.562c-.59 0-1.05.185-1.41.554-.35.37-.56.909-.62 1.618h3.92c-.01-.714-.18-1.253-.52-1.618-.33-.369-.79-.554-1.37-.554zm13.21 7.406h-1.84v-5.328c0-.662-.13-1.154-.38-1.477-.25-.328-.64-.492-1.17-.492-.71 0-1.23.232-1.56.695-.33.459-.5 1.224-.5 2.297v4.305h-1.83v-8.641h1.44l.25 1.133h.1c.24-.411.58-.729 1.04-.953a3.38 3.38 0 0 1 1.5-.336c1.33 0 2.21.453 2.65 1.359h.12c.26-.427.61-.76 1.08-1 .46-.239.99-.359 1.59-.359 1.03 0 1.78.261 2.25.781.48.521.71 1.315.71 2.383v5.633h-1.83v-5.328c0-.662-.13-1.154-.39-1.477-.25-.328-.64-.492-1.17-.492-.71 0-1.23.224-1.57.672-.33.443-.49 1.125-.49 2.047zm19.17-8.797c0 .724-.21 1.328-.63 1.813-.42.479-1.01.802-1.78.968v.063c.92.114 1.61.401 2.06.859.46.453.69 1.058.69 1.813 0 1.099-.39 1.948-1.16 2.547-.78.593-1.88.89-3.32.89-1.26 0-2.33-.205-3.2-.617v-1.633c.49.24 1 .425 1.54.555s1.06.195 1.56.195c.89 0 1.55-.164 1.99-.492.43-.328.65-.836.65-1.523 0-.61-.24-1.058-.72-1.344-.49-.287-1.25-.43-2.28-.43h-1v-1.492h1.01c1.82 0 2.74-.63 2.74-1.891 0-.489-.16-.867-.48-1.132-.32-.266-.79-.399-1.41-.399-.43 0-.85.063-1.25.188-.4.119-.87.356-1.42.711l-.9-1.282c1.05-.771 2.27-1.156 3.65-1.156 1.15 0 2.05.247 2.7.742.64.495.96 1.177.96 2.047zm-149.11 64.797v-11.422h1.87v11.422zm8.06-1.328c.45 0 .9-.07 1.35-.211v1.383c-.21.088-.47.161-.79.218-.32.063-.65.094-1 .094-1.74 0-2.6-.916-2.6-2.75v-4.656h-1.18v-.812l1.26-.672.63-1.828h1.13v1.921h2.46v1.391h-2.46v4.625c0 .443.11.771.33.984.22.209.51.313.87.313zm7 1.484c-1.34 0-2.39-.39-3.15-1.172-.76-.786-1.14-1.867-1.14-3.242 0-1.411.36-2.521 1.06-3.328s1.67-1.211 2.9-1.211c1.14 0 2.04.346 2.7 1.039s.99 1.646.99 2.86v.992h-5.75c.02.838.25 1.484.67 1.937.43.448 1.03.672 1.81.672.51 0 .98-.047 1.42-.141.44-.098.92-.26 1.42-.484v1.492c-.44.214-.9.365-1.36.453a8.22 8.22 0 0 1 -1.57.133zm-.33-7.562c-.59 0-1.05.185-1.41.554-.35.37-.56.909-.62 1.618h3.92c-.01-.714-.18-1.253-.52-1.618-.33-.369-.79-.554-1.37-.554zm13.21 7.406h-1.84v-5.328c0-.662-.13-1.154-.38-1.477-.25-.328-.64-.492-1.17-.492-.71 0-1.23.232-1.56.695-.33.459-.5 1.224-.5 2.297v4.305h-1.83v-8.641h1.44l.25 1.133h.1c.24-.411.58-.729 1.04-.953a3.38 3.38 0 0 1 1.5-.336c1.33 0 2.21.453 2.65 1.359h.12c.26-.427.61-.76 1.08-1 .46-.239.99-.359 1.59-.359 1.03 0 1.78.261 2.25.781.48.521.71 1.315.71 2.383v5.633h-1.83v-5.328c0-.662-.13-1.154-.39-1.477-.25-.328-.64-.492-1.17-.492-.71 0-1.23.224-1.57.672-.33.443-.49 1.125-.49 2.047zm11.89-4.867c0-4.469 1.82-6.703 5.46-6.703.58 0 1.06.044 1.46.132v1.532c-.4-.115-.86-.172-1.38-.172-1.22 0-2.14.328-2.76.984-.61.656-.94 1.709-1 3.156h.1c.24-.421.59-.747 1.03-.976.44-.234.96-.352 1.56-.352 1.04 0 1.85.318 2.42.954.58.635.87 1.497.87 2.585 0 1.198-.33 2.146-1.01 2.844-.66.693-1.57 1.039-2.73 1.039-.82 0-1.53-.195-2.13-.586-.61-.396-1.07-.968-1.4-1.718-.32-.756-.49-1.662-.49-2.719zm3.99 3.508c.63 0 1.11-.203 1.45-.61.34-.406.52-.987.52-1.742 0-.656-.16-1.172-.49-1.547-.32-.375-.79-.562-1.43-.562-.4 0-.77.086-1.1.258-.33.166-.6.398-.79.695-.19.291-.29.591-.29.898 0 .735.2 1.354.6 1.86.4.5.91.75 1.53.75zm-135.822-81.641v-11.422h1.867v11.422zm8.064-1.328c.448 0 .896-.07 1.344-.211v1.383a3.605 3.605 0 0 1 -.789.218 5.1 5.1 0 0 1 -.993.094c-1.739 0-2.609-.916-2.609-2.75v-4.656h-1.18v-.812l1.266-.672.625-1.828h1.133v1.921h2.461v1.391h-2.461v4.625c0 .443.109.771.328.984.224.209.516.313.875.313zm7.001 1.484c-1.343 0-2.395-.39-3.156-1.172-.755-.786-1.133-1.867-1.133-3.242 0-1.411.352-2.521 1.055-3.328s1.669-1.211 2.899-1.211c1.14 0 2.041.346 2.703 1.039.661.693.992 1.646.992 2.86v.992h-5.758c.026.838.253 1.484.68 1.937.427.448 1.028.672 1.804.672a6.76 6.76 0 0 0 1.422-.141c.443-.098.917-.26 1.422-.484v1.492a5.597 5.597 0 0 1 -1.359.453 8.306 8.306 0 0 1 -1.571.133zm-.335-7.562c-.584 0-1.053.185-1.407.554-.349.37-.557.909-.625 1.618h3.922c-.01-.714-.182-1.253-.515-1.618-.334-.369-.792-.554-1.375-.554zm13.212 7.406h-1.84v-5.328c0-.662-.13-1.154-.38-1.477-.25-.328-.64-.492-1.17-.492-.71 0-1.23.232-1.56.695-.33.459-.5 1.224-.5 2.297v4.305h-1.831v-8.641h1.437l.258 1.133h.094a2.384 2.384 0 0 1 1.042-.953 3.38 3.38 0 0 1 1.5-.336c1.33 0 2.21.453 2.65 1.359h.12c.26-.427.61-.76 1.08-1 .46-.239.99-.359 1.59-.359 1.03 0 1.78.261 2.25.781.48.521.71 1.315.71 2.383v5.633h-1.83v-5.328c0-.662-.13-1.154-.39-1.477-.25-.328-.64-.492-1.17-.492-.71 0-1.23.224-1.57.672-.33.443-.49 1.125-.49 2.047zm20.01-2.492h-1.54v2.492h-1.79v-2.492h-5.22v-1.414l5.22-7.547h1.79v7.437h1.54zm-3.33-1.524v-2.867c0-1.021.03-1.857.08-2.508h-.06c-.15.344-.38.761-.69 1.25l-2.84 4.125zm120.38-81.984v-11.422h1.87v11.422zm8.06-1.328c.45 0 .9-.07 1.35-.211v1.383c-.21.088-.47.161-.79.218-.32.063-.65.094-1 .094-1.74 0-2.6-.916-2.6-2.75v-4.656h-1.18v-.812l1.26-.672.63-1.828h1.13v1.921h2.46v1.391h-2.46v4.625c0 .443.11.771.33.984.22.209.51.313.87.313zm7 1.484c-1.34 0-2.39-.39-3.15-1.172-.76-.786-1.14-1.867-1.14-3.242 0-1.411.36-2.521 1.06-3.328s1.67-1.211 2.9-1.211c1.14 0 2.04.346 2.7 1.039s.99 1.646.99 2.86v.992h-5.75c.02.838.25 1.484.67 1.937.43.448 1.03.672 1.81.672.51 0 .98-.047 1.42-.141.44-.098.92-.26 1.42-.484v1.492c-.44.214-.9.365-1.36.453a8.22 8.22 0 0 1 -1.57.133zm-.33-7.562c-.59 0-1.05.185-1.41.554-.35.37-.56.909-.62 1.618h3.92c-.01-.714-.18-1.253-.52-1.618-.33-.369-.79-.554-1.37-.554zm13.21 7.406h-1.84v-5.328c0-.662-.13-1.154-.38-1.477-.25-.328-.64-.492-1.17-.492-.71 0-1.23.232-1.56.695-.33.459-.5 1.224-.5 2.297v4.305h-1.83v-8.641h1.44l.25 1.133h.1c.24-.411.58-.729 1.04-.953a3.38 3.38 0 0 1 1.5-.336c1.33 0 2.21.453 2.65 1.359h.12c.26-.427.61-.76 1.08-1 .46-.239.99-.359 1.59-.359 1.03 0 1.78.261 2.25.781.48.521.71 1.315.71 2.383v5.633h-1.83v-5.328c0-.662-.13-1.154-.39-1.477-.25-.328-.64-.492-1.17-.492-.71 0-1.23.224-1.57.672-.33.443-.49 1.125-.49 2.047zm19.6 0h-7.74v-1.391l2.95-2.961c.87-.89 1.44-1.52 1.72-1.89.29-.375.5-.727.63-1.055s.19-.68.19-1.055c0-.515-.15-.921-.46-1.218s-.74-.446-1.29-.446c-.43 0-.86.081-1.27.243-.4.161-.88.453-1.41.875l-.99-1.211c.63-.537 1.25-.917 1.85-1.141a5.39 5.39 0 0 1 1.91-.336c1.06 0 1.91.279 2.56.836.64.552.96 1.297.96 2.234 0 .516-.1 1.006-.28 1.469-.19.464-.47.943-.86 1.438-.38.489-1.01 1.153-1.9 1.992l-1.99 1.922v.078h5.42zm-123.62-58v-11.422h1.87v11.422zm8.07-1.328c.44 0 .89-.07 1.34-.211v1.383a3.6 3.6 0 0 1 -.79.218c-.32.063-.65.094-.99.094-1.74 0-2.61-.916-2.61-2.75v-4.656h-1.18v-.812l1.26-.672.63-1.828h1.13v1.921h2.46v1.391h-2.46v4.625c0 .443.11.771.33.984.22.209.52.313.88.313zm7 1.484c-1.35 0-2.4-.39-3.16-1.172-.75-.786-1.13-1.867-1.13-3.242 0-1.411.35-2.521 1.05-3.328.71-.807 1.67-1.211 2.9-1.211 1.14 0 2.04.346 2.7 1.039.67.693 1 1.646 1 2.86v.992h-5.76c.02.838.25 1.484.68 1.937.43.448 1.03.672 1.8.672a6.7 6.7 0 0 0 1.42-.141c.45-.098.92-.26 1.43-.484v1.492c-.45.214-.9.365-1.36.453-.46.089-.98.133-1.57.133zm-.34-7.562c-.58 0-1.05.185-1.41.554-.34.37-.55.909-.62 1.618h3.92c-.01-.714-.18-1.253-.51-1.618-.34-.369-.8-.554-1.38-.554zm13.21 7.406h-1.84v-5.328c0-.662-.13-1.154-.38-1.477-.25-.328-.64-.492-1.17-.492-.71 0-1.23.232-1.56.695-.33.459-.49 1.224-.49 2.297v4.305h-1.84v-8.641h1.44l.26 1.133h.09c.24-.411.59-.729 1.04-.953.46-.224.96-.336 1.51-.336 1.33 0 2.21.453 2.64 1.359h.12c.26-.427.62-.76 1.08-1 .47-.239 1-.359 1.6-.359 1.03 0 1.78.261 2.25.781.47.521.71 1.315.71 2.383v5.633h-1.84v-5.328c0-.662-.13-1.154-.38-1.477-.25-.328-.64-.492-1.17-.492-.72 0-1.24.224-1.57.672-.33.443-.5 1.125-.5 2.047zm-11.36 19.867c1.15 0 2.06.305 2.73.914.67.61 1.01 1.44 1.01 2.492 0 1.219-.38 2.172-1.15 2.86-.76.682-1.84 1.023-3.25 1.023-1.27 0-2.28-.205-3.01-.617v-1.664c.43.24.91.424 1.46.555.54.13 1.05.195 1.52.195.83 0 1.46-.185 1.89-.555.43-.369.65-.911.65-1.625 0-1.364-.87-2.047-2.61-2.047-.24 0-.55.026-.91.079-.36.046-.67.101-.94.164l-.82-.485.44-5.578h5.93v1.633h-4.32l-.25 2.828c.18-.031.4-.068.66-.109.26-.042.59-.063.97-.063z" fill="#fff"/><path d="m1080.69 100h-4.85v-18.813h-6.2v-4.03h17.25v4.03h-6.2zm9.42-21.984c0-1.553.87-2.329 2.59-2.329 1.73 0 2.6.776 2.6 2.329 0 .74-.22 1.317-.66 1.734-.42.406-1.07.61-1.94.61-1.72 0-2.59-.782-2.59-2.344zm4.97 21.984h-4.77v-17.469h4.77zm12.66-3.484c.83 0 1.83-.183 3-.547v3.547c-1.19.531-2.65.796-4.38.796-1.9 0-3.29-.479-4.17-1.437-.86-.969-1.3-2.417-1.3-4.344v-8.421h-2.28v-2.015l2.63-1.594 1.37-3.688h3.05v3.72h4.89v3.577h-4.89v8.422c0 .677.19 1.177.56 1.5.39.323.89.485 1.52.485zm11.59 3.484h-4.76v-24.313h4.76zm12.54-14.406c-1.01 0-1.81.323-2.38.969-.57.635-.9 1.541-.98 2.718h6.68c-.02-1.177-.32-2.083-.92-2.719-.59-.645-1.39-.968-2.4-.968zm.67 14.718c-2.81 0-5.01-.775-6.6-2.328-1.58-1.552-2.37-3.75-2.37-6.593 0-2.928.73-5.188 2.19-6.782 1.47-1.604 3.49-2.406 6.08-2.406 2.46 0 4.39.703 5.76 2.11 1.38 1.406 2.06 3.349 2.06 5.828v2.312h-11.26c.05 1.354.45 2.412 1.2 3.172s1.8 1.14 3.16 1.14c1.05 0 2.04-.109 2.98-.328.94-.218 1.92-.567 2.94-1.046v3.687c-.83.417-1.73.724-2.67.922-.95.208-2.11.312-3.47.312z" fill="#252a2e"/></svg>