<svg width="1464" height="971" fill="none" xmlns="http://www.w3.org/2000/svg"><path fill="#fff" d="M0 0h1464v971H0z"/><path d="M143.75 829.528l-2.668-1.257-2.702 2.702 1.271 2.654-1.218 1.218-4.452-9.74 1.257-1.257 9.74 4.452-1.228 1.228zm-3.968-1.948l-2.586-1.262c-.177-.08-.448-.216-.812-.406a19.552 19.552 0 01-.783-.435c.309.484.615 1.044.918 1.682l1.204 2.48 2.059-2.059zm10.818-4.901l-1.141 1.14-3.287-3.286c-.413-.413-.804-.637-1.175-.672-.367-.039-.731.122-1.092.483-.48.48-.69.973-.629 1.479.062.506.426 1.093 1.093 1.76l2.663 2.663-1.136 1.136-5.346-5.346.89-.89.86.542.058-.058a2.24 2.24 0 01.097-1.276c.158-.435.417-.833.778-1.194 1.283-1.283 2.576-1.272 3.881.034l3.486 3.485zm3.939-3.746c-.809.809-1.66 1.189-2.552 1.141-.893-.055-1.781-.524-2.664-1.407-.899-.899-1.371-1.809-1.416-2.731-.042-.925.353-1.803 1.184-2.634.564-.564 1.176-.967 1.837-1.209l.57 1.257c-.667.293-1.156.596-1.469.909-.925.924-.773 2.001.454 3.229.6.599 1.165.936 1.697 1.01.532.067 1.02-.121 1.465-.566a4.12 4.12 0 001.058-1.812l.991.991a3.177 3.177 0 01-.396.908 5.53 5.53 0 01-.759.914zm7.458-7.652l-1.141 1.141-3.287-3.287c-.412-.412-.804-.636-1.174-.672-.368-.038-.732.123-1.093.484-.477.477-.685.971-.623 1.484.061.506.427 1.094 1.097 1.764l2.654 2.654-1.136 1.136-7.522-7.522 1.136-1.136 1.91 1.91c.306.306.614.652.923 1.039l.072-.073a2.237 2.237 0 01.044-1.242c.135-.419.387-.812.754-1.179 1.295-1.296 2.596-1.291 3.901.014l3.485 3.485zm3.746-9.111c.873.873 1.331 1.779 1.373 2.717.042.937-.337 1.806-1.136 2.605-.5.499-1.054.828-1.663.986a3.157 3.157 0 01-1.856-.087c-.629-.216-1.222-.603-1.779-1.16-.867-.867-1.321-1.766-1.363-2.697-.042-.932.341-1.802 1.15-2.611.774-.773 1.636-1.135 2.586-1.087.948.045 1.844.49 2.688 1.334zm-3.891 3.891c1.234 1.234 2.307 1.395 3.219.484.902-.903.736-1.971-.498-3.205-1.221-1.222-2.286-1.378-3.195-.469-.477.477-.665.981-.566 1.513.104.528.45 1.087 1.04 1.677zm5.259-10.779c.228-.229.433-.401.613-.517l.948 1.17c-.2.122-.387.27-.561.444-.454.455-.675.972-.662 1.552.016.577.261 1.102.735 1.576l2.794 2.794-1.136 1.136-5.347-5.346.89-.89 1.092.793.058-.058a3.012 3.012 0 01-.067-1.45c.1-.474.314-.875.643-1.204zm10.455.431l-.972-.518-.039.039c.068.583.031 1.065-.111 1.445-.145.377-.422.771-.831 1.18-.525.525-1.078.794-1.658.807-.577.01-1.125-.245-1.644-.764-.551-.551-.762-1.171-.633-1.861.129-.689.6-1.466 1.412-2.329l.894-.953-.285-.285c-.342-.342-.677-.516-1.006-.522-.328-.013-.66.148-.996.483a3.657 3.657 0 00-.667.909 8.5 8.5 0 00-.439 1.01l-1.18-.444c.139-.442.342-.874.609-1.296.264-.425.55-.791.856-1.097.68-.68 1.34-1.044 1.982-1.092.644-.052 1.284.24 1.919.874l3.601 3.602-.812.812zm-2.466.918c.413-.412.629-.857.648-1.334.019-.483-.179-.933-.594-1.349l-.464-.464-.658.716c-.515.554-.815 1.034-.899 1.44-.084.4.039.764.367 1.093.239.238.495.352.769.343.271-.013.548-.161.831-.445zm4.138-13.283l.623.624-.744 1.083c.197.029.404.098.624.207.219.11.42.257.604.44.551.551.794 1.175.73 1.871-.065.696-.431 1.378-1.098 2.045-.17.17-.338.312-.502.425-.094.396-.039.696.164.899a.417.417 0 00.445.106c.177-.054.419-.235.725-.541l.933-.933c.589-.59 1.163-.912 1.721-.967.557-.054 1.073.155 1.546.629.606.606.824 1.323.653 2.151-.171.828-.728 1.714-1.673 2.658-.728.729-1.413 1.156-2.054 1.281-.641.126-1.2-.05-1.677-.527-.329-.328-.503-.709-.522-1.14-.013-.432.124-.879.411-1.339a1.237 1.237 0 01-.687.067 1.136 1.136 0 01-.599-.309 1.1 1.1 0 01-.339-.677c-.025-.251.005-.556.092-.913-.396.158-.815.19-1.257.096-.441-.1-.842-.33-1.203-.691-.58-.58-.848-1.212-.803-1.895.049-.686.411-1.368 1.088-2.044.152-.152.321-.298.508-.44.187-.148.333-.253.439-.314l1.852-1.852zm1.977 10.378c.245.245.543.324.894.237.355-.09.732-.335 1.131-.735.619-.618.991-1.168 1.117-1.648.125-.48.042-.867-.252-1.16-.232-.232-.481-.314-.749-.247-.261.068-.617.328-1.068.779l-.861.86c-.325.326-.509.661-.551 1.006-.035.344.078.647.339.908zm-3.959-4.935c.335.335.678.508 1.03.517.354.007.692-.151 1.015-.473.657-.658.634-1.338-.068-2.04-.348-.348-.698-.534-1.049-.556-.351-.029-.693.122-1.025.454-.328.329-.485.672-.469 1.03.02.354.208.71.566 1.068zm10.861-3.436c-.831.831-1.724 1.24-2.678 1.227-.954-.019-1.856-.454-2.707-1.305-.873-.873-1.342-1.777-1.406-2.712-.065-.934.283-1.782 1.044-2.542.706-.706 1.477-1.049 2.315-1.03.838.02 1.632.405 2.383 1.156l.614.613-3.562 3.563c.535.503 1.074.762 1.619.778.541.013 1.052-.221 1.532-.701.316-.316.58-.638.793-.966.213-.336.406-.729.58-1.18l.923.923c-.145.41-.332.783-.56 1.122a7.39 7.39 0 01-.89 1.054zm-4.887-4.472c-.361.361-.536.766-.527 1.214.013.444.218.907.614 1.387l2.427-2.427c-.448-.435-.888-.662-1.32-.681-.435-.023-.833.146-1.194.507zM239.421 818.857l-7.951-3.852-.039.038c.931.822 1.78 1.616 2.547 2.383l3.437 3.437-1.049 1.049-7.067-7.067 1.629-1.629 7.584 3.659.029-.029-3.601-7.642 1.634-1.634 7.067 7.067-1.112 1.112-3.495-3.495a71.85 71.85 0 01-1.348-1.397c-.545-.583-.87-.941-.977-1.073l-.038.039 3.77 8.014-1.02 1.02zm8.125-13.491c.874.874 1.331 1.779 1.373 2.717.042.938-.337 1.806-1.136 2.605-.499.5-1.053.829-1.663.986a3.157 3.157 0 01-1.856-.087c-.628-.215-1.221-.602-1.779-1.16-.866-.866-1.321-1.766-1.363-2.697-.042-.931.342-1.801 1.151-2.61.773-.773 1.635-1.136 2.586-1.088.947.045 1.843.49 2.687 1.334zm-3.891 3.892c1.234 1.234 2.308 1.395 3.22.483.902-.902.736-1.971-.498-3.205-1.222-1.221-2.287-1.377-3.195-.469-.477.477-.666.982-.566 1.513.103.529.45 1.088 1.039 1.678zm10.059-7.739c.522.522.733 1.113.633 1.774-.103.657-.509 1.341-1.218 2.05-.712.712-1.392 1.176-2.04 1.392l-.981-.982c.918-.338 1.648-.778 2.19-1.319.699-.699.838-1.26.415-1.682a.705.705 0 00-.454-.223c-.168-.013-.388.021-.662.102-.274.08-.63.217-1.068.411-.854.377-1.51.556-1.968.536-.454-.022-.871-.224-1.252-.604-.457-.458-.628-.996-.512-1.614.116-.626.491-1.256 1.126-1.89a6.023 6.023 0 012.166-1.402l.488 1.223c-.815.338-1.42.704-1.813 1.097-.599.599-.728 1.07-.386 1.411.167.168.386.232.657.194.274-.042.775-.224 1.503-.546.612-.271 1.089-.435 1.431-.493.342-.058.654-.042.938.048.28.087.549.259.807.517zm5.114-1.875c-.809.809-1.66 1.189-2.552 1.141-.893-.055-1.781-.524-2.664-1.407-.899-.899-1.371-1.809-1.416-2.731-.042-.925.353-1.803 1.184-2.634.564-.564 1.176-.967 1.837-1.209l.57 1.257c-.667.293-1.156.596-1.469.909-.925.924-.773 2.001.454 3.229.6.599 1.165.936 1.697 1.01.532.067 1.02-.121 1.465-.566a4.12 4.12 0 001.058-1.812l.991.991a3.177 3.177 0 01-.396.908 5.53 5.53 0 01-.759.914zm4.814-10.373c.873.873 1.331 1.779 1.373 2.716.042.938-.337 1.807-1.136 2.606-.5.499-1.054.828-1.663.986a3.157 3.157 0 01-1.856-.087c-.629-.216-1.222-.603-1.779-1.16-.867-.867-1.321-1.766-1.363-2.697-.042-.932.341-1.802 1.15-2.611.774-.773 1.636-1.136 2.586-1.087.948.045 1.844.49 2.688 1.334zm-3.891 3.891c1.234 1.234 2.307 1.395 3.219.483.902-.902.736-1.97-.498-3.204-1.221-1.222-2.286-1.378-3.195-.469-.477.477-.665.981-.565 1.513.103.528.449 1.087 1.039 1.677zm12.374-7.009l-3.186-1.803c-.348-.18-1.113-.642-2.296-1.387l-.043.044c.683 1.057 1.152 1.822 1.407 2.296l1.773 3.195-1.256 1.257-6.845-3.848 1.16-1.16 3.316 1.953c.806.496 1.473.944 2.001 1.343l.029-.029a15.88 15.88 0 01-.662-.952c-.238-.374-.409-.66-.512-.86l-2.001-3.626 1.247-1.247 3.601 2.026c.206.109.507.291.904.546.399.251.696.461.889.628l.039-.038c-.348-.445-.79-1.112-1.325-2.002l-1.943-3.325 1.141-1.141 3.838 6.854-1.276 1.276zM331.421 813.857l-7.951-3.852-.039.038c.931.822 1.78 1.616 2.547 2.383l3.437 3.437-1.049 1.049-7.067-7.067 1.629-1.629 7.584 3.659.029-.029-3.601-7.642 1.634-1.634 7.067 7.067-1.112 1.112-3.495-3.495a71.85 71.85 0 01-1.348-1.397c-.545-.583-.87-.941-.977-1.073l-.038.039 3.77 8.014-1.02 1.02zm9.411-9.411l-.971-.517-.039.039c.068.583.031 1.065-.111 1.445-.145.377-.422.77-.832 1.179-.525.526-1.078.795-1.658.808-.576.009-1.124-.245-1.643-.764-.551-.551-.762-1.172-.633-1.861.129-.69.599-1.466 1.411-2.33l.894-.952-.285-.285c-.341-.342-.677-.516-1.005-.523-.329-.012-.661.149-.996.484a3.632 3.632 0 00-.667.909 8.368 8.368 0 00-.44 1.01l-1.179-.445c.138-.441.341-.873.609-1.295.264-.426.549-.791.855-1.098.68-.68 1.341-1.044 1.982-1.092.645-.052 1.284.24 1.919.875l3.601 3.601-.812.812zm-2.465.919c.412-.413.628-.858.648-1.335.019-.483-.179-.932-.595-1.348l-.464-.464-.657.715c-.516.554-.816 1.035-.899 1.441-.084.399.038.763.367 1.092.238.238.495.353.769.343.27-.013.547-.161.831-.444zm6.868-5.129c-.667.667-1.429.946-2.286.836-.857-.109-1.722-.601-2.596-1.474-.876-.876-1.369-1.746-1.479-2.61-.109-.87.171-1.64.841-2.311.703-.702 1.497-.978 2.383-.826l.058-.058a9.682 9.682 0 01-.991-.827l-1.948-1.948 1.141-1.14 7.521 7.521-.889.889-.899-.503-.053.054c.167.896-.1 1.695-.803 2.397zm-.613-1.223c.467-.467.676-.937.628-1.411-.052-.477-.369-1.014-.952-1.61l-.16-.159c-.673-.674-1.261-1.043-1.764-1.107-.503-.065-.988.137-1.455.604-.4.4-.545.87-.435 1.411.106.539.459 1.107 1.058 1.707.593.593 1.151.941 1.673 1.044.519.1.988-.06 1.407-.479zm2.257-11.499c.228-.229.433-.401.614-.517l.947 1.17c-.2.122-.387.27-.561.444-.454.455-.675.972-.662 1.552.016.577.261 1.102.735 1.576l2.794 2.794-1.136 1.136-5.346-5.347.889-.889 1.092.793.058-.058a3.012 3.012 0 01-.067-1.45c.1-.474.314-.875.643-1.204zm8.246 2.64l-1.136 1.136-5.346-5.347 1.136-1.136 5.346 5.347zm-7.966-5.559c-.203-.203-.305-.414-.305-.633.003-.223.108-.437.314-.643.2-.2.41-.3.629-.3.222-.003.435.097.638.3.193.193.29.402.29.628 0 .219-.1.429-.3.628-.206.207-.42.311-.643.315-.222-.004-.43-.102-.623-.295zm11.6 2.117c-.667.667-1.429.946-2.286.836-.857-.109-1.722-.601-2.596-1.474-.876-.876-1.369-1.746-1.479-2.61-.109-.87.171-1.64.841-2.311.703-.702 1.497-.978 2.383-.826l.058-.058a9.682 9.682 0 01-.991-.827l-1.948-1.948 1.141-1.14 7.521 7.521-.889.889-.899-.502-.053.053c.167.896-.1 1.695-.803 2.397zm-.613-1.223c.467-.467.676-.937.628-1.411-.052-.477-.369-1.014-.952-1.61l-.16-.159c-.673-.674-1.261-1.043-1.764-1.107-.503-.065-.988.137-1.455.604-.4.4-.545.87-.435 1.411.106.539.459 1.107 1.058 1.707.593.593 1.151.941 1.673 1.044.519.1.988-.06 1.407-.479zM409.75 821.528l-2.668-1.257-2.702 2.702 1.271 2.654-1.218 1.218-4.452-9.74 1.257-1.257 9.74 4.452-1.228 1.228zm-3.968-1.948l-2.586-1.262c-.177-.08-.448-.216-.812-.406a19.552 19.552 0 01-.783-.435c.309.484.615 1.044.918 1.682l1.204 2.48 2.059-2.059zm8.367-2.257c-.809.809-1.66 1.189-2.552 1.141-.893-.055-1.781-.524-2.664-1.407-.899-.899-1.371-1.81-1.416-2.731-.042-.925.353-1.803 1.184-2.635.564-.563 1.176-.966 1.837-1.208l.57 1.257c-.667.293-1.156.596-1.469.909-.925.924-.773 2.001.454 3.228.6.6 1.165.937 1.697 1.011.532.067 1.02-.121 1.465-.566a4.11 4.11 0 001.058-1.812l.991.99a3.17 3.17 0 01-.396.909c-.177.281-.43.585-.759.914zm6.1-6.293l-.972-.518-.038.039c.067.583.03 1.065-.112 1.445-.145.377-.422.77-.831 1.18-.525.525-1.078.794-1.658.807-.577.01-1.125-.245-1.643-.764-.552-.551-.763-1.171-.634-1.861.129-.689.6-1.466 1.412-2.33l.894-.952-.285-.285c-.342-.342-.677-.516-1.006-.522-.328-.013-.66.148-.995.483a3.608 3.608 0 00-.667.909 8.347 8.347 0 00-.44 1.01l-1.18-.444c.139-.442.342-.874.609-1.296.265-.425.55-.791.856-1.097.68-.68 1.34-1.044 1.982-1.093.644-.051 1.284.24 1.919.875l3.601 3.601-.812.813zm-2.465.918c.412-.413.628-.857.647-1.334.02-.484-.179-.933-.594-1.349l-.464-.464-.658.716c-.515.554-.815 1.034-.899 1.44-.084.4.039.764.368 1.092.238.239.494.353.768.344.271-.013.548-.161.832-.445zm7.777-6.037c-.677.677-1.446.959-2.306.846l-.068.067c.497.406.793.658.89.755l2.19 2.189-1.136 1.136-7.725-7.724.919-.919c.125.075.417.26.875.556l.058-.058c-.187-.896.074-1.698.783-2.407.667-.667 1.427-.944 2.281-.831.857.109 1.723.601 2.596 1.474s1.365 1.745 1.474 2.615c.113.867-.164 1.634-.831 2.301zm-4.887-4.336c-.451.451-.649.914-.595 1.387.058.471.377.996.957 1.576l.17.169c.651.651 1.226 1.02 1.725 1.107.496.084.978-.108 1.446-.575.393-.393.534-.857.425-1.392-.11-.535-.463-1.101-1.059-1.697-.599-.599-1.158-.946-1.677-1.039-.519-.1-.983.055-1.392.464zm12.123-3.093l-.861-.542-.058.058c.09.406.06.827-.092 1.262-.148.432-.409.835-.783 1.208-.647.648-1.292.97-1.933.967-.641-.003-1.289-.332-1.943-.986l-3.495-3.495 1.145-1.145 3.297 3.296c.409.41.801.633 1.175.672.37.036.734-.126 1.092-.483.477-.477.685-.969.624-1.475-.062-.512-.427-1.103-1.098-1.774l-2.663-2.663 1.141-1.141 5.346 5.346-.894.895zm3.755-3.756l-1.136 1.136-7.521-7.521 1.136-1.136 7.521 7.521zm3.988-3.794c-.809.809-1.66 1.189-2.553 1.141-.892-.055-1.78-.524-2.663-1.407-.899-.899-1.371-1.809-1.416-2.731-.042-.925.353-1.803 1.184-2.634.564-.564 1.176-.967 1.837-1.209l.57 1.257c-.667.293-1.157.596-1.469.909-.925.925-.774 2.001.454 3.229.6.599 1.165.936 1.697 1.01.532.068 1.02-.121 1.464-.566a4.112 4.112 0 001.059-1.812l.991.991a3.177 3.177 0 01-.396.908 5.53 5.53 0 01-.759.914zm4.814-10.373c.873.873 1.331 1.779 1.373 2.717.042.937-.337 1.806-1.136 2.605-.5.499-1.054.828-1.663.986a3.157 3.157 0 01-1.856-.087c-.629-.216-1.222-.603-1.779-1.16-.867-.867-1.321-1.766-1.363-2.697-.042-.932.341-1.802 1.15-2.611.774-.773 1.636-1.135 2.586-1.087.948.045 1.844.49 2.688 1.334zm-3.891 3.891c1.234 1.234 2.307 1.396 3.219.484.902-.903.736-1.971-.498-3.205-1.221-1.222-2.286-1.378-3.195-.469-.477.477-.665.981-.566 1.513.104.528.45 1.087 1.04 1.677zM483.75 833.528l-2.668-1.257-2.702 2.702 1.271 2.654-1.218 1.218-4.452-9.74 1.257-1.257 9.74 4.452-1.228 1.228zm-3.968-1.948l-2.586-1.262c-.177-.08-.448-.216-.812-.406a19.552 19.552 0 01-.783-.435c.309.484.615 1.044.918 1.682l1.204 2.48 2.059-2.059zm10.619-4.703l-1.14 1.141-3.297-3.297c-.409-.409-.791-.636-1.146-.682-.357-.048-.7.092-1.029.421-.438.438-.617.904-.537 1.397.081.487.453 1.062 1.117 1.726l2.663 2.663-1.136 1.136-5.346-5.346.89-.89.86.542.058-.058a2.1 2.1 0 01.053-1.233c.145-.422.387-.802.725-1.141.822-.821 1.647-1.086 2.475-.792l.078-.078a2.292 2.292 0 01.048-1.285c.138-.435.393-.838.764-1.209.638-.638 1.263-.941 1.875-.909.616.029 1.254.374 1.914 1.035l3.485 3.485-1.136 1.136-3.296-3.297c-.409-.409-.793-.635-1.151-.676-.357-.049-.701.091-1.029.42-.442.442-.627.904-.556 1.387.071.477.391 1.001.962 1.571l2.832 2.833zm7.135-10.18c.522.522.733 1.114.633 1.774-.103.658-.509 1.341-1.218 2.05-.712.712-1.392 1.176-2.04 1.392l-.981-.981c.918-.339 1.648-.779 2.189-1.32.7-.699.838-1.26.416-1.682a.706.706 0 00-.454-.222c-.168-.013-.389.021-.662.101-.274.081-.63.218-1.069.411-.854.377-1.509.556-1.967.536-.454-.022-.872-.223-1.252-.604-.458-.457-.628-.995-.512-1.614.116-.625.491-1.255 1.126-1.89a6.019 6.019 0 012.165-1.402l.489 1.223c-.816.338-1.42.704-1.813 1.097-.599.6-.728 1.07-.387 1.412.168.167.387.232.658.193.274-.042.775-.224 1.503-.546.612-.271 1.089-.435 1.431-.493.341-.058.654-.042.937.048.281.087.55.26.808.517zm4.031-2.629c.277-.277.511-.598.701-.962l.855.856c-.071.18-.188.388-.353.623a4.505 4.505 0 01-.556.672c-1.076 1.076-2.181 1.047-3.315-.087l-2.881-2.881-.73.73-.503-.503.367-1.198-.744-1.518.701-.701 1.189 1.189 1.523-1.523.86.861-1.523 1.522 2.862 2.862c.274.274.545.409.812.406.268-.01.512-.126.735-.348zm5.263-3.427c-.831.832-1.724 1.241-2.677 1.228-.954-.019-1.857-.454-2.707-1.305-.874-.873-1.343-1.777-1.407-2.712-.064-.934.284-1.782 1.044-2.542.706-.706 1.478-1.049 2.315-1.03.838.019 1.633.404 2.384 1.155l.613.614-3.562 3.563c.535.502 1.075.762 1.619.778.542.013 1.052-.221 1.533-.701.315-.316.58-.638.792-.967.213-.335.406-.728.58-1.179l.924.923a4.919 4.919 0 01-.561 1.121c-.229.339-.525.69-.89 1.054zm-4.886-4.471c-.361.361-.537.765-.527 1.213.013.445.217.907.614 1.388l2.426-2.427c-.448-.435-.888-.662-1.32-.682-.435-.022-.833.147-1.193.508zm5.534-7.255c.229-.229.433-.401.614-.517l.947 1.169c-.2.123-.387.271-.561.445-.454.454-.675.972-.662 1.552.016.577.261 1.102.735 1.576l2.794 2.793-1.136 1.136-5.346-5.346.889-.889 1.093.793.058-.058a3.005 3.005 0 01-.068-1.451c.1-.473.314-.874.643-1.203zm9.01 2.069c-.667.667-1.429.946-2.287.836-.857-.109-1.722-.601-2.595-1.474-.877-.877-1.37-1.747-1.48-2.61-.109-.87.171-1.641.842-2.311.702-.702 1.496-.978 2.383-.826l.058-.058a9.591 9.591 0 01-.991-.827l-1.948-1.948 1.14-1.141 7.522 7.522-.89.889-.899-.503-.053.053c.168.896-.1 1.695-.802 2.398zm-.614-1.223c.467-.467.677-.938.628-1.411-.051-.477-.369-1.014-.952-1.61l-.16-.16c-.673-.673-1.261-1.042-1.764-1.107-.503-.064-.988.137-1.455.605-.399.399-.544.87-.435 1.411.106.538.459 1.107 1.059 1.706.593.593 1.15.941 1.672 1.045.519.099.988-.06 1.407-.479zm8.333-6.69l-.972-.517-.038.039c.067.583.03 1.065-.112 1.445-.145.377-.422.77-.831 1.18-.525.525-1.078.794-1.658.807-.577.009-1.125-.245-1.643-.764-.551-.551-.762-1.171-.634-1.861.129-.69.6-1.466 1.412-2.33l.894-.952-.285-.285c-.342-.342-.677-.516-1.006-.522-.328-.013-.66.148-.995.483a3.608 3.608 0 00-.667.909 8.347 8.347 0 00-.44 1.01l-1.18-.445a5.53 5.53 0 01.609-1.295c.265-.425.55-.791.856-1.097.68-.68 1.341-1.044 1.982-1.093.644-.051 1.284.24 1.919.875l3.601 3.601-.812.812zm-2.465.919c.412-.413.628-.857.647-1.334.02-.484-.178-.933-.594-1.349l-.464-.464-.658.715c-.515.555-.815 1.035-.899 1.441-.083.399.039.764.368 1.092.238.239.494.353.768.344.271-.013.548-.162.832-.445zm9.474-7.927l-1.141 1.141-3.297-3.297c-.409-.409-.791-.637-1.145-.682-.358-.048-.701.092-1.03.421-.438.438-.617.904-.537 1.397.081.486.453 1.062 1.117 1.725l2.663 2.664-1.136 1.136-5.346-5.346.89-.89.86.542.058-.058a2.109 2.109 0 01.053-1.233c.145-.422.387-.802.725-1.141.822-.821 1.647-1.086 2.475-.792l.078-.078a2.296 2.296 0 01.048-1.286c.139-.435.393-.837.764-1.208.638-.638 1.263-.941 1.875-.909.616.029 1.254.374 1.914 1.035l3.485 3.485-1.135 1.136-3.297-3.297c-.409-.409-.793-.635-1.15-.677-.358-.048-.701.092-1.03.421-.442.441-.627.904-.556 1.387.071.477.392 1.001.962 1.571l2.833 2.833zM571.522 823.918c.628.629.894 1.349.798 2.161-.097.812-.545 1.618-1.344 2.417-.799.799-1.578 1.329-2.335 1.59l-1.092-1.092a7.66 7.66 0 001.382-.667 6.245 6.245 0 001.146-.885c.457-.458.707-.881.749-1.271.045-.393-.079-.737-.372-1.03a1.243 1.243 0 00-.972-.372c-.383.016-1.013.211-1.89.585-.905.383-1.658.54-2.257.469-.599-.071-1.134-.342-1.605-.812-.59-.59-.844-1.264-.764-2.021.081-.757.474-1.489 1.18-2.194.677-.677 1.498-1.202 2.465-1.576l.575 1.31c-.892.364-1.585.792-2.078 1.286-.374.373-.575.739-.604 1.097-.033.354.085.665.352.933.184.183.381.303.59.357.206.052.456.047.749-.014.294-.061.766-.227 1.417-.498.734-.303 1.316-.482 1.745-.537.428-.054.816-.02 1.165.102.348.122.681.343 1 .662zm6.617-2.779l-.971-.517-.039.039c.068.583.031 1.065-.111 1.445-.145.377-.422.77-.832 1.179-.525.526-1.078.795-1.658.808-.576.009-1.124-.245-1.643-.764-.551-.551-.762-1.172-.633-1.861.129-.69.599-1.466 1.411-2.33l.894-.952-.285-.286c-.341-.341-.677-.515-1.005-.522-.329-.012-.661.149-.996.484a3.632 3.632 0 00-.667.909 8.368 8.368 0 00-.44 1.01l-1.179-.445c.138-.441.341-.873.609-1.295.264-.426.549-.791.855-1.098.68-.68 1.341-1.044 1.982-1.092.645-.052 1.284.24 1.919.875l3.601 3.601-.812.812zm-2.465.918c.412-.412.628-.857.648-1.334.019-.483-.179-.933-.595-1.348l-.464-.464-.657.715c-.516.554-.816 1.035-.899 1.441-.084.399.038.763.367 1.092.238.238.495.353.769.343.27-.013.547-.161.831-.445zm7.028-10.846c.873.873 1.331 1.779 1.373 2.716.042.938-.337 1.807-1.136 2.606-.5.499-1.054.828-1.663.986a3.157 3.157 0 01-1.856-.087c-.629-.216-1.221-.603-1.779-1.16-.867-.867-1.321-1.766-1.363-2.697-.042-.932.342-1.802 1.15-2.611.774-.773 1.636-1.136 2.586-1.087.948.045 1.844.49 2.688 1.334zm-3.891 3.891c1.234 1.234 2.307 1.395 3.219.483.902-.902.736-1.97-.498-3.204-1.221-1.222-2.286-1.378-3.195-.469-.477.477-.665.981-.565 1.513.103.528.449 1.087 1.039 1.677zm10.537-15.032c.738.738 1.062 1.545.971 2.421-.09.877-.581 1.761-1.474 2.654l-.735.735 2.644 2.644-1.155 1.155-7.067-7.067 2.035-2.035c.883-.883 1.724-1.363 2.523-1.44.803-.081 1.555.23 2.258.933zm-2.209 4.838l.614-.614c.593-.593.925-1.131.995-1.614.071-.484-.112-.944-.551-1.383-.406-.406-.833-.584-1.281-.536-.447.048-.934.335-1.459.86l-.803.803 2.485 2.484zm11.881-4.65l-.972-.517-.038.039c.067.583.03 1.065-.112 1.445-.145.377-.422.77-.831 1.18-.525.525-1.078.794-1.658.807-.577.01-1.125-.245-1.643-.764-.551-.551-.763-1.171-.634-1.861.129-.689.6-1.466 1.412-2.33l.894-.952-.285-.285c-.342-.342-.677-.516-1.006-.522-.328-.013-.66.148-.995.483a3.608 3.608 0 00-.667.909 8.347 8.347 0 00-.44 1.01l-1.18-.445a5.53 5.53 0 01.609-1.295c.265-.425.55-.791.856-1.097.68-.68 1.341-1.044 1.982-1.093.644-.051 1.284.24 1.919.875l3.601 3.601-.812.812zm-2.465.919c.412-.413.628-.857.647-1.334.02-.484-.178-.933-.594-1.349l-.464-.464-.658.715c-.515.555-.815 1.035-.899 1.441-.083.4.039.764.368 1.092.238.239.494.353.768.344.271-.013.548-.162.832-.445zm8.739-7.192l-.861-.542-.058.058c.091.406.06.827-.091 1.262-.149.432-.41.834-.784 1.208-.647.648-1.292.97-1.933.967-.641-.003-1.289-.332-1.943-.986l-3.495-3.495 1.146-1.146 3.296 3.297c.409.409.801.633 1.175.672.37.035.735-.126 1.092-.483.477-.477.685-.969.624-1.475-.061-.512-.427-1.103-1.097-1.774l-2.664-2.663 1.141-1.141 5.346 5.346-.894.895zm3.755-3.756l-1.136 1.136-7.521-7.521 1.136-1.136 7.521 7.521zm3.795-9.16c.873.874 1.33 1.779 1.372 2.717.042.938-.336 1.806-1.136 2.605-.499.5-1.053.828-1.662.986a3.16 3.16 0 01-1.857-.087c-.628-.216-1.221-.602-1.778-1.16-.867-.867-1.322-1.766-1.364-2.697-.041-.931.342-1.801 1.151-2.61.773-.774 1.635-1.136 2.586-1.088.947.045 1.843.49 2.688 1.334zm-3.892 3.891c1.235 1.235 2.308 1.396 3.22.484.902-.902.736-1.971-.498-3.205-1.222-1.221-2.287-1.378-3.195-.469-.477.477-.666.981-.566 1.513.103.529.45 1.088 1.039 1.677zM666.807 818.471l-1.155 1.155-6.076-6.076-2.078 2.079-.991-.991 5.312-5.312.991.99-2.079 2.079 6.076 6.076zm5.211-10.576c.873.873 1.331 1.779 1.373 2.717.041.937-.337 1.806-1.136 2.605-.5.499-1.054.828-1.663.986a3.157 3.157 0 01-1.856-.087c-.629-.216-1.222-.603-1.779-1.16-.867-.867-1.321-1.766-1.363-2.697-.042-.932.341-1.802 1.15-2.61.774-.774 1.636-1.136 2.586-1.088.948.045 1.843.49 2.688 1.334zm-3.891 3.891c1.234 1.234 2.307 1.396 3.219.484.902-.903.736-1.971-.498-3.205-1.221-1.221-2.286-1.378-3.195-.469-.477.477-.666.981-.566 1.513.103.528.45 1.088 1.04 1.677zm5.258-10.779c.229-.229.434-.401.614-.517l.948 1.17c-.2.122-.387.271-.561.445-.454.454-.675.971-.662 1.551.016.577.261 1.102.735 1.576l2.793 2.794-1.135 1.136-5.347-5.346.89-.89 1.092.793.058-.058a3 3 0 01-.067-1.45c.099-.474.314-.875.642-1.204zm9.17-3.649c.873.873 1.331 1.779 1.373 2.717.041.937-.337 1.806-1.136 2.605-.5.5-1.054.828-1.663.986a3.157 3.157 0 01-1.856-.087c-.629-.216-1.222-.603-1.779-1.16-.867-.867-1.321-1.766-1.363-2.697-.042-.932.341-1.802 1.15-2.61.774-.774 1.636-1.136 2.586-1.088.948.045 1.843.49 2.688 1.334zm-3.891 3.891c1.234 1.234 2.307 1.396 3.219.484.902-.903.736-1.971-.498-3.205-1.221-1.221-2.286-1.378-3.195-.469-.477.477-.666.981-.566 1.513.103.528.45 1.088 1.04 1.677zm12.693-7.327l-1.141 1.14-3.287-3.287c-.412-.412-.804-.636-1.175-.672-.367-.038-.731.123-1.092.484-.48.48-.69.973-.628 1.479.061.506.425 1.092 1.092 1.759l2.663 2.664-1.135 1.136-5.347-5.346.89-.89.86.542.058-.058a2.24 2.24 0 01.097-1.276c.158-.436.417-.833.778-1.194 1.283-1.283 2.577-1.272 3.882.033l3.485 3.486zm2.856-4.5c.277-.278.511-.598.701-.962l.856.855a3.133 3.133 0 01-.353.624 4.505 4.505 0 01-.556.672c-1.076 1.076-2.182 1.047-3.316-.087l-2.881-2.881-.73.73-.503-.503.368-1.199-.745-1.518.701-.7 1.189 1.189 1.523-1.523.86.86-1.522 1.523 2.861 2.862c.274.274.545.409.812.406.268-.01.513-.126.735-.348zm4.892-8.614c.873.873 1.331 1.779 1.372 2.717.042.937-.336 1.806-1.135 2.605-.5.5-1.054.828-1.663.986a3.157 3.157 0 01-1.856-.087c-.629-.216-1.222-.602-1.779-1.16-.867-.867-1.321-1.766-1.363-2.697-.042-.931.341-1.801 1.15-2.61.773-.774 1.635-1.136 2.586-1.088.948.045 1.843.49 2.688 1.334zm-3.891 3.891c1.234 1.235 2.307 1.396 3.219.484.902-.903.736-1.971-.498-3.205-1.221-1.221-2.286-1.378-3.195-.469-.477.477-.666.981-.566 1.513.103.529.45 1.088 1.04 1.677zM718.299 834.845l2.098-2.098c.973-.973 1.818-1.534 2.533-1.682.719-.151 1.384.079 1.996.691.413.413.65.862.711 1.349.061.487-.073.965-.401 1.436l.048.048c.59-.403 1.139-.582 1.648-.537.51.039.999.294 1.47.764.635.635.91 1.355.826 2.161-.083.799-.52 1.593-1.31 2.383l-2.552 2.552-7.067-7.067zm4.075 1.764l1.112-1.111c.483-.484.76-.912.831-1.286.068-.377-.082-.749-.449-1.117-.332-.332-.693-.451-1.083-.357-.387.09-.841.396-1.363.918l-1.001 1.001 1.953 1.952zm.938.938l2.238 2.238 1.228-1.228c.483-.483.755-.939.817-1.368.061-.435-.108-.852-.508-1.251-.367-.368-.765-.514-1.194-.44-.428.074-.899.367-1.411.879l-1.17 1.17zm12.345-5.926l-.86-.541-.058.058c.09.406.059.826-.092 1.262-.148.431-.41.834-.783 1.208-.648.648-1.293.97-1.934.967-.641-.004-1.289-.332-1.943-.986l-3.495-3.495 1.146-1.146 3.296 3.297c.41.409.801.633 1.175.672.371.035.735-.126 1.092-.484.477-.477.685-.968.624-1.474-.061-.512-.427-1.104-1.097-1.774l-2.664-2.663 1.141-1.141 5.346 5.346-.894.894zm5.051-4.857c-.831.831-1.724 1.24-2.678 1.227-.954-.019-1.856-.454-2.707-1.305-.873-.873-1.342-1.777-1.406-2.711-.065-.935.283-1.782 1.044-2.543.705-.706 1.477-1.049 2.315-1.03.838.02 1.632.405 2.383 1.156l.614.614-3.563 3.562c.535.503 1.075.762 1.62.778.541.013 1.052-.22 1.532-.701.316-.315.58-.638.793-.966.212-.335.406-.729.58-1.18l.923.923c-.145.41-.332.784-.561 1.122a7.26 7.26 0 01-.889 1.054zm-4.887-4.472c-.361.361-.536.766-.527 1.214.013.444.218.907.614 1.387l2.427-2.427c-.448-.435-.888-.662-1.32-.681-.435-.023-.833.147-1.194.507zm12.969-3.803l-1.141 1.14-3.287-3.287c-.412-.412-.804-.636-1.175-.671-.367-.039-.731.122-1.092.483-.48.48-.69.973-.628 1.479.061.506.425 1.092 1.092 1.759l2.663 2.664-1.136 1.136-5.346-5.346.89-.89.86.542.058-.058a2.24 2.24 0 01.097-1.276c.158-.435.417-.833.778-1.194 1.283-1.283 2.576-1.272 3.882.033l3.485 3.486zm3.746-9.112c.873.874 1.33 1.779 1.372 2.717.042.938-.336 1.806-1.136 2.605-.499.5-1.053.828-1.662.986a3.16 3.16 0 01-1.857-.087c-.628-.216-1.221-.602-1.778-1.16-.867-.867-1.322-1.766-1.363-2.697-.042-.931.341-1.801 1.15-2.61.773-.774 1.635-1.136 2.586-1.088.947.045 1.843.49 2.688 1.334zm-3.892 3.891c1.235 1.235 2.308 1.396 3.22.484.902-.903.736-1.971-.498-3.205-1.222-1.221-2.287-1.378-3.195-.469-.477.477-.666.981-.566 1.513.103.529.45 1.088 1.039 1.677zm10.059-7.738c.522.522.733 1.113.633 1.774-.103.657-.509 1.34-1.218 2.049-.712.713-1.392 1.177-2.04 1.392l-.981-.981c.919-.338 1.648-.778 2.19-1.319.699-.7.838-1.26.416-1.683a.713.713 0 00-.455-.222c-.167-.013-.388.021-.662.102-.274.08-.63.217-1.068.411-.854.377-1.51.555-1.968.536-.454-.023-.871-.224-1.252-.604-.457-.458-.628-.996-.512-1.615.116-.625.492-1.255 1.126-1.89a6.042 6.042 0 012.166-1.401l.488 1.223c-.815.338-1.419.704-1.813 1.097-.599.599-.728 1.07-.386 1.411.167.168.386.232.657.194.274-.042.775-.224 1.503-.547.613-.27 1.09-.435 1.431-.493.342-.058.654-.042.938.049.28.087.549.259.807.517zm10.044-6.999l-2.668-1.257-2.702 2.702 1.271 2.654-1.218 1.218-4.452-9.74 1.257-1.256 9.74 4.451-1.228 1.228zm-3.968-1.948l-2.586-1.261a19.081 19.081 0 01-.813-.406c-.36-.194-.621-.339-.783-.435.31.483.616 1.044.919 1.682l1.203 2.479 2.06-2.059zm7.25-1.334l-1.136 1.136-5.346-5.346 1.136-1.136 5.346 5.346zm-7.966-5.558c-.203-.203-.305-.415-.305-.634.004-.222.108-.436.315-.643.199-.199.409-.299.628-.299.222-.003.435.096.638.299.193.194.29.403.29.629 0 .219-.1.428-.3.628-.206.206-.42.311-.643.314-.222-.003-.43-.101-.623-.294zm6.97-4.331c.229-.229.433-.401.614-.517l.947 1.169a3.09 3.09 0 00-.561.445c-.454.454-.675.972-.662 1.552.016.577.261 1.102.735 1.575l2.794 2.794-1.136 1.136-5.346-5.346.889-.889 1.093.793.058-.058a3.005 3.005 0 01-.068-1.451c.1-.473.314-.875.643-1.203zm9.541 1.537c-.831.832-1.724 1.241-2.677 1.228-.954-.019-1.857-.454-2.707-1.305-.874-.873-1.343-1.777-1.407-2.712-.064-.934.284-1.782 1.044-2.542.706-.706 1.478-1.049 2.315-1.03.838.019 1.633.404 2.384 1.155l.613.614-3.562 3.563c.535.502 1.075.762 1.619.778.542.013 1.052-.221 1.533-.701.315-.316.58-.638.792-.967.213-.335.406-.728.58-1.179l.924.923a4.919 4.919 0 01-.561 1.121c-.229.339-.525.69-.89 1.054zm-4.886-4.471c-.361.361-.537.765-.527 1.213.013.445.217.907.614 1.388l2.426-2.427c-.448-.435-.888-.662-1.32-.682-.435-.022-.833.147-1.193.508zm10.334-4.215c.522.522.733 1.114.633 1.774-.103.658-.509 1.341-1.218 2.05-.712.712-1.392 1.176-2.04 1.392l-.981-.981c.918-.339 1.648-.779 2.19-1.32.699-.699.837-1.26.415-1.682a.706.706 0 00-.454-.222c-.168-.013-.388.02-.662.101s-.63.218-1.069.411c-.854.377-1.509.556-1.967.536-.454-.022-.872-.224-1.252-.604-.458-.457-.628-.996-.512-1.614.116-.625.491-1.255 1.126-1.89a6.019 6.019 0 012.165-1.402l.489 1.223c-.816.338-1.42.704-1.813 1.097-.599.6-.728 1.07-.387 1.412.168.167.387.232.658.193.274-.042.775-.224 1.503-.546.612-.271 1.089-.435 1.431-.493.341-.058.654-.042.938.048.28.087.549.259.807.517zM809.522 840.918c.628.629.894 1.349.798 2.161-.097.812-.545 1.618-1.344 2.417-.799.799-1.578 1.329-2.335 1.59l-1.092-1.092a7.66 7.66 0 001.382-.667 6.245 6.245 0 001.146-.885c.457-.458.707-.881.749-1.271.045-.393-.079-.737-.372-1.03a1.243 1.243 0 00-.972-.372c-.383.016-1.013.211-1.89.585-.905.383-1.658.54-2.257.469-.599-.071-1.134-.342-1.605-.812-.59-.59-.844-1.264-.764-2.021.081-.757.474-1.489 1.18-2.194.677-.677 1.498-1.202 2.465-1.576l.575 1.31c-.892.364-1.585.792-2.078 1.286-.374.373-.575.739-.604 1.097-.033.354.085.665.352.933.184.183.381.303.59.357.206.052.456.047.749-.014.294-.061.766-.227 1.417-.498.734-.303 1.316-.482 1.745-.537.428-.054.816-.02 1.165.102.348.122.681.343 1 .662zm6.617-2.779l-.971-.517-.039.039c.068.583.031 1.065-.111 1.445-.145.377-.422.77-.832 1.179-.525.526-1.078.795-1.658.808-.576.009-1.124-.245-1.643-.764-.551-.551-.762-1.172-.633-1.861.129-.69.599-1.466 1.411-2.33l.894-.952-.285-.286c-.341-.341-.677-.515-1.005-.522-.329-.012-.661.149-.996.484a3.632 3.632 0 00-.667.909 8.368 8.368 0 00-.44 1.01l-1.179-.445c.138-.441.341-.873.609-1.295.264-.426.549-.791.855-1.098.68-.68 1.341-1.044 1.982-1.092.645-.052 1.284.24 1.919.875l3.601 3.601-.812.812zm-2.465.918c.412-.412.628-.857.648-1.334.019-.483-.179-.933-.595-1.348l-.464-.464-.657.715c-.516.554-.816 1.035-.899 1.441-.084.399.038.763.367 1.092.238.238.495.353.769.343.27-.013.547-.161.831-.445zm9.672-8.125l-1.141 1.141-3.287-3.287c-.412-.412-.804-.636-1.174-.672-.368-.038-.732.123-1.093.484-.48.48-.689.973-.628 1.479.061.506.425 1.092 1.092 1.759l2.664 2.664-1.136 1.135-5.346-5.346.889-.889.861.541.058-.058a2.23 2.23 0 01.096-1.276c.158-.435.417-.833.778-1.194 1.283-1.282 2.577-1.271 3.882.034l3.485 3.485zm5.631-5.63l-1.146 1.145-7.067-7.067 3.988-3.988.977.977-2.843 2.842 2.209 2.209 2.664-2.663.981.981-2.663 2.663 2.9 2.901zm1.377-12.263c.229-.229.434-.402.614-.518l.947 1.17a3.084 3.084 0 00-.56.445c-.455.454-.675.971-.663 1.551.017.577.262 1.103.735 1.576l2.794 2.794-1.136 1.136-5.346-5.346.889-.889 1.093.792.058-.058a3.012 3.012 0 01-.068-1.45c.1-.474.314-.875.643-1.203zm10.455.43l-.971-.517-.039.039c.068.583.031 1.065-.111 1.445-.145.377-.422.77-.832 1.179-.525.526-1.078.795-1.658.807-.576.01-1.124-.244-1.643-.763-.551-.551-.762-1.172-.633-1.861.129-.69.599-1.466 1.411-2.33l.894-.952-.285-.286c-.341-.341-.676-.515-1.005-.522-.329-.012-.661.149-.996.484a3.632 3.632 0 00-.667.909 8.368 8.368 0 00-.44 1.01l-1.179-.445c.138-.441.341-.873.609-1.295.264-.426.549-.791.855-1.098.68-.68 1.341-1.044 1.982-1.092.645-.052 1.284.24 1.919.875l3.601 3.601-.812.812zm-2.465.918c.412-.412.628-.857.648-1.334.019-.483-.179-.933-.595-1.348l-.464-.464-.657.715c-.516.554-.816 1.035-.899 1.441-.084.399.038.763.367 1.092.239.238.495.353.769.343.27-.013.547-.161.831-.445zm9.672-8.125l-1.141 1.141-3.287-3.287c-.412-.412-.804-.636-1.174-.672-.368-.038-.732.123-1.093.484-.48.48-.689.973-.628 1.479.061.506.425 1.092 1.092 1.759l2.664 2.664-1.136 1.135-5.346-5.346.889-.889.861.541.058-.058a2.23 2.23 0 01.096-1.276c.158-.435.418-.833.778-1.194 1.283-1.282 2.577-1.271 3.882.034l3.485 3.485zm3.939-3.746c-.809.809-1.659 1.189-2.552 1.141-.893-.055-1.78-.524-2.663-1.406-.899-.9-1.372-1.81-1.417-2.732-.042-.924.353-1.803 1.185-2.634.564-.564 1.176-.967 1.836-1.208l.571 1.256c-.667.294-1.157.597-1.47.909-.924.925-.773 2.001.455 3.229.599.599 1.165.936 1.696 1.01.532.068 1.02-.121 1.465-.565a4.11 4.11 0 001.059-1.813l.991.991a3.17 3.17 0 01-.397.909c-.177.28-.43.585-.759.913zm3.891-4.084l-1.136 1.136-5.346-5.346 1.136-1.136 5.346 5.346zm-7.966-5.559c-.203-.203-.304-.414-.304-.633.003-.222.108-.437.314-.643.2-.2.409-.299.628-.299.223-.004.435.096.638.299.194.194.29.403.29.629 0 .219-.1.428-.299.628-.207.206-.421.311-.643.314-.223-.003-.43-.101-.624-.295zm11.77-1.29c.522.522.733 1.113.633 1.774-.103.657-.509 1.341-1.218 2.05-.712.712-1.392 1.176-2.04 1.392l-.981-.982c.918-.338 1.648-.778 2.19-1.319.699-.7.838-1.26.415-1.682a.705.705 0 00-.454-.223c-.167-.013-.388.021-.662.102-.274.08-.63.217-1.068.411-.854.377-1.51.556-1.968.536-.454-.022-.871-.224-1.252-.604-.457-.458-.628-.996-.512-1.614.116-.626.491-1.256 1.126-1.89a6.023 6.023 0 012.166-1.402l.488 1.223c-.815.338-1.42.704-1.813 1.097-.599.599-.728 1.07-.386 1.411.167.168.386.232.657.194.274-.042.775-.224 1.503-.546.613-.271 1.089-.436 1.431-.494.342-.058.654-.041.938.049.28.087.549.259.807.517zm5.114-1.875c-.809.809-1.66 1.189-2.552 1.141-.893-.055-1.781-.524-2.664-1.407-.899-.899-1.371-1.809-1.416-2.731-.042-.925.353-1.803 1.184-2.635.564-.563 1.176-.966 1.837-1.208l.57 1.257c-.667.293-1.156.596-1.469.909-.925.924-.773 2.001.454 3.229.6.599 1.165.936 1.697 1.01.532.067 1.02-.121 1.465-.566a4.11 4.11 0 001.058-1.812l.991.99a3.17 3.17 0 01-.396.909c-.177.281-.43.585-.759.914zm4.814-10.373c.873.873 1.331 1.779 1.373 2.716.042.938-.337 1.807-1.136 2.606-.5.499-1.054.828-1.663.986a3.157 3.157 0 01-1.856-.087c-.629-.216-1.221-.603-1.779-1.16-.867-.867-1.321-1.766-1.363-2.697-.042-.932.342-1.802 1.15-2.611.774-.773 1.636-1.136 2.586-1.087.948.045 1.844.49 2.688 1.334zm-3.891 3.891c1.234 1.234 2.307 1.395 3.219.483.902-.902.736-1.97-.498-3.204-1.221-1.222-2.286-1.378-3.195-.469-.477.477-.665.981-.565 1.513.103.528.449 1.087 1.039 1.677zM917.522 817.918c.628.629.894 1.349.798 2.161-.097.812-.545 1.618-1.344 2.417-.799.799-1.578 1.329-2.335 1.59l-1.092-1.092a7.66 7.66 0 001.382-.667 6.245 6.245 0 001.146-.885c.457-.458.707-.881.749-1.271.045-.393-.079-.737-.372-1.03a1.243 1.243 0 00-.972-.372c-.383.016-1.013.211-1.89.585-.905.383-1.658.54-2.257.469-.599-.071-1.134-.342-1.605-.812-.59-.59-.844-1.264-.764-2.021.081-.757.474-1.489 1.18-2.194.677-.677 1.498-1.202 2.465-1.576l.575 1.31c-.892.364-1.585.792-2.078 1.286-.374.373-.575.739-.604 1.097-.033.354.085.665.352.933.184.183.381.303.59.357.206.052.456.047.749-.014.294-.061.766-.227 1.417-.498.734-.303 1.316-.482 1.745-.537.428-.054.816-.02 1.165.102.348.122.681.343 1 .662zm6.617-2.779l-.971-.517-.039.039c.068.583.031 1.065-.111 1.445-.145.377-.422.77-.832 1.179-.525.526-1.078.795-1.658.808-.576.009-1.124-.245-1.643-.764-.551-.551-.762-1.172-.633-1.861.129-.69.599-1.466 1.411-2.33l.894-.952-.285-.286c-.341-.341-.677-.515-1.005-.522-.329-.012-.661.149-.996.484a3.632 3.632 0 00-.667.909 8.368 8.368 0 00-.44 1.01l-1.179-.445c.138-.441.341-.873.609-1.295.264-.426.549-.791.855-1.098.68-.68 1.341-1.044 1.982-1.092.645-.052 1.284.24 1.919.875l3.601 3.601-.812.812zm-2.465.918c.412-.412.628-.857.648-1.334.019-.483-.179-.933-.595-1.348l-.464-.464-.657.715c-.516.554-.816 1.035-.899 1.441-.084.399.038.763.367 1.092.238.238.495.353.769.343.27-.013.547-.161.831-.445zm9.672-8.125l-1.141 1.141-3.287-3.287c-.412-.412-.804-.636-1.174-.672-.368-.038-.732.123-1.093.484-.48.48-.689.973-.628 1.479.061.506.425 1.092 1.092 1.759l2.664 2.664-1.136 1.135-5.346-5.346.889-.889.861.541.058-.058a2.23 2.23 0 01.096-1.276c.158-.435.417-.833.778-1.194 1.283-1.282 2.577-1.271 3.882.034l3.485 3.485zm2.856-4.5c.278-.277.511-.597.701-.962l.856.856c-.071.18-.189.388-.353.624a4.449 4.449 0 01-.556.671c-1.076 1.077-2.181 1.048-3.316-.087l-2.881-2.88-.73.729-.502-.502.367-1.199-.744-1.518.701-.701 1.189 1.189 1.522-1.522.861.86-1.523 1.523 2.862 2.861c.274.274.544.41.812.406.267-.009.512-.125.734-.348zm3.969-2.324l-1.136 1.136-5.346-5.347 1.136-1.136 5.346 5.347zm-7.966-5.559c-.203-.203-.305-.414-.305-.633.003-.223.108-.437.314-.643.2-.2.41-.3.629-.3.222-.003.435.097.638.3.193.193.29.402.29.628 0 .219-.1.429-.3.628-.206.207-.42.311-.643.315-.222-.004-.43-.102-.623-.295zm13.046.479l-.972-.518-.039.039c.068.583.031 1.065-.111 1.445-.145.377-.422.771-.831 1.18-.525.525-1.078.794-1.658.807-.577.01-1.125-.245-1.644-.764-.551-.551-.762-1.171-.633-1.861.129-.689.6-1.466 1.412-2.33l.894-.952-.285-.285c-.342-.342-.677-.516-1.006-.522-.328-.013-.66.148-.995.483a3.636 3.636 0 00-.668.909 8.5 8.5 0 00-.439 1.01l-1.18-.444c.139-.442.342-.874.609-1.296.264-.425.55-.791.856-1.097.68-.68 1.34-1.044 1.982-1.093.644-.051 1.284.241 1.919.875l3.601 3.602-.812.812zm-2.466.918c.413-.412.629-.857.648-1.334.02-.483-.179-.933-.594-1.349l-.464-.464-.658.716c-.515.554-.815 1.034-.899 1.44-.084.4.039.764.368 1.093.238.238.494.352.768.343.271-.013.548-.161.831-.445zm4.138-13.283l.623.624-.744 1.082c.197.029.404.099.624.208.219.11.42.257.604.44.551.551.794 1.175.73 1.871-.065.696-.43 1.377-1.098 2.045-.17.17-.338.312-.502.425-.094.396-.039.696.164.899a.42.42 0 00.445.106c.177-.054.419-.235.725-.541l.933-.933c.589-.59 1.163-.912 1.721-.967.557-.055 1.073.155 1.546.629.606.605.824 1.322.653 2.151-.171.828-.728 1.714-1.673 2.658-.728.729-1.413 1.155-2.054 1.281-.641.126-1.2-.05-1.677-.527-.329-.328-.503-.709-.522-1.14-.013-.432.124-.879.411-1.339a1.237 1.237 0 01-.687.067 1.14 1.14 0 01-.599-.309c-.2-.2-.313-.425-.338-.677-.026-.251.004-.556.091-.913-.396.158-.815.19-1.256.096-.442-.1-.843-.33-1.204-.691-.58-.58-.848-1.212-.802-1.895.048-.686.41-1.368 1.087-2.044.152-.152.321-.299.508-.44a3.94 3.94 0 01.44-.315l1.851-1.851zm1.977 10.378c.245.245.543.324.894.237.355-.09.732-.335 1.131-.735.619-.618.991-1.168 1.117-1.648s.042-.867-.252-1.16c-.232-.232-.481-.314-.749-.247-.261.068-.617.327-1.068.779l-.86.86c-.326.326-.51.661-.551 1.005-.036.345.077.648.338.909zm-3.959-4.935c.335.335.678.508 1.03.517.354.007.692-.151 1.015-.474.657-.657.635-1.337-.068-2.039-.348-.348-.698-.534-1.049-.556-.351-.029-.693.122-1.025.454-.328.329-.485.672-.468 1.03.019.354.207.71.565 1.068zm10.489-8.623c.873.873 1.331 1.779 1.373 2.716.042.938-.337 1.807-1.136 2.606-.5.499-1.054.828-1.663.986a3.157 3.157 0 01-1.856-.087c-.628-.216-1.221-.603-1.779-1.16-.867-.867-1.321-1.766-1.363-2.697-.042-.932.342-1.802 1.15-2.611.774-.773 1.636-1.136 2.586-1.087.948.045 1.844.49 2.688 1.334zm-3.891 3.891c1.234 1.234 2.307 1.395 3.219.483.902-.902.736-1.97-.498-3.204-1.221-1.222-2.286-1.378-3.195-.469-.477.477-.665.981-.565 1.513.103.528.449 1.087 1.039 1.677zM1002.25 822.025l-1.41 1.416-9.109-2.156-.039.039.338.29a31.3 31.3 0 011.712 1.575l3.673 3.674-1.049 1.049-7.067-7.067 1.402-1.402 9.068 2.137.029-.029c-.08-.068-.362-.324-.846-.769-.486-.448-.86-.802-1.121-1.063l-3.703-3.703 1.059-1.058 7.063 7.067zm4.29-4.09c-.84.832-1.73 1.241-2.68 1.228-.96-.019-1.86-.454-2.71-1.305-.87-.873-1.341-1.777-1.405-2.712-.065-.934.285-1.782 1.045-2.542.7-.706 1.48-1.049 2.31-1.03.84.02 1.64.405 2.39 1.156l.61.613-3.56 3.563c.53.503 1.07.762 1.62.778.54.013 1.05-.221 1.53-.701.32-.316.58-.638.79-.967.22-.335.41-.728.58-1.179l.93.923c-.15.41-.34.783-.56 1.122-.23.338-.53.689-.89 1.053zm-4.89-4.471c-.36.361-.54.766-.53 1.214.02.444.22.907.62 1.387l2.42-2.427c-.45-.435-.89-.662-1.32-.681-.43-.023-.83.146-1.19.507zm12.65-3.485l-3.19-1.803c-.34-.18-1.11-.642-2.29-1.387l-.05.044c.69 1.057 1.16 1.822 1.41 2.296l1.77 3.195-1.25 1.257-6.85-3.848 1.16-1.16 3.32 1.953c.8.496 1.47.944 2 1.343l.03-.029a18.05 18.05 0 01-1.18-1.812l-2-3.626 1.25-1.247 3.6 2.026c.21.109.51.291.91.546.4.251.69.461.89.628l.03-.038c-.34-.445-.79-1.112-1.32-2.002l-1.94-3.325 1.14-1.141 3.83 6.854-1.27 1.276zm4.76-12.451l-1.55-4.896 1.26-1.257 1.97 6.68 2.74 2.741-1.16 1.16-2.7-2.702-6.71-2.021 1.26-1.256 4.89 1.551zm9.75-7.429c.88.873 1.33 1.779 1.38 2.717.04.937-.34 1.806-1.14 2.605-.5.5-1.05.828-1.66.986a3.17 3.17 0 01-1.86-.087c-.63-.216-1.22-.602-1.78-1.16-.86-.867-1.32-1.766-1.36-2.697-.04-.932.34-1.802 1.15-2.61.77-.774 1.64-1.136 2.59-1.088.94.045 1.84.49 2.68 1.334zm-3.89 3.891c1.24 1.234 2.31 1.396 3.22.484.9-.903.74-1.971-.5-3.205-1.22-1.221-2.28-1.378-3.19-.469-.48.477-.67.981-.57 1.513.11.528.45 1.088 1.04 1.677zm5.26-10.779c.23-.228.43-.401.62-.517l.94 1.17c-.2.122-.38.271-.56.445-.45.454-.67.971-.66 1.551.02.577.26 1.102.73 1.576l2.8 2.794-1.14 1.136-5.34-5.346.89-.89 1.09.793.06-.058c-.15-.496-.17-.98-.07-1.45.1-.474.31-.875.64-1.204zm5.39-.144l-.16-1.446-.11-3.335 1.31-1.31.15 4.447 5.33.764-1.33 1.334-4.06-.628-.11 1.135 1.83 1.832-1.13 1.127-7.52-7.522 1.13-1.126 3.67 3.669.97 1.088.03-.029zM1083.42 816.188l2.6-2.6 3.55 3.548c-.28.564-.6 1.071-.93 1.522-.33.448-.73.899-1.18 1.354-1.07 1.07-2.21 1.579-3.42 1.527-1.22-.055-2.4-.659-3.56-1.812-1.13-1.138-1.7-2.354-1.68-3.65.01-1.299.59-2.521 1.73-3.669a7.43 7.43 0 012.53-1.672l.55 1.368c-.84.309-1.54.751-2.11 1.324-.76.754-1.12 1.587-1.08 2.499.03.912.46 1.779 1.28 2.601.87.863 1.72 1.324 2.56 1.382.85.052 1.64-.293 2.38-1.034.38-.374.73-.82 1.06-1.339l-1.82-1.822-1.47 1.464-.99-.991zm9.26-1.59l-1.14 1.136-7.52-7.521 1.14-1.136 7.52 7.521zm5.08-5.08l-.97-.517-.04.039c.07.583.03 1.065-.11 1.445-.15.377-.42.77-.83 1.179-.53.526-1.08.795-1.66.808-.58.009-1.13-.245-1.64-.764-.56-.551-.77-1.171-.64-1.861s.6-1.466 1.41-2.33l.9-.952-.29-.285c-.34-.342-.67-.516-1-.522-.33-.013-.66.148-1 .483-.27.274-.49.577-.67.909-.17.332-.31.668-.44 1.01l-1.17-.445c.13-.441.34-.873.6-1.295.27-.425.55-.791.86-1.097.68-.68 1.34-1.044 1.98-1.093.65-.051 1.29.24 1.92.875l3.6 3.601-.81.812zm-2.47.919c.42-.413.63-.857.65-1.334.02-.484-.18-.933-.59-1.349l-.47-.464-.65.715c-.52.555-.82 1.035-.9 1.441-.09.399.04.764.36 1.092.24.239.5.353.77.343.27-.012.55-.161.83-.444zm7.04-8.536c.52.522.74 1.113.64 1.774-.11.657-.51 1.34-1.22 2.049-.71.712-1.39 1.176-2.04 1.392l-.98-.981c.91-.338 1.64-.778 2.19-1.32.7-.699.83-1.26.41-1.682a.684.684 0 00-.45-.222c-.17-.013-.39.021-.66.101-.28.081-.63.218-1.07.411-.86.377-1.51.556-1.97.537-.45-.023-.87-.224-1.25-.604-.46-.458-.63-.996-.51-1.615.11-.625.49-1.255 1.12-1.89a6.026 6.026 0 012.17-1.402l.49 1.223c-.82.339-1.42.704-1.82 1.098-.6.599-.73 1.069-.38 1.411.16.168.38.232.65.193.28-.042.78-.224 1.51-.546.61-.271 1.09-.435 1.43-.493.34-.058.65-.042.94.048.28.087.54.26.8.518zm2.03-9.677l.63.623-.75 1.083c.2.029.41.098.63.208.21.109.42.256.6.44.55.551.79 1.174.73 1.87-.07.696-.43 1.378-1.1 2.045-.17.171-.34.313-.5.425-.09.397-.04.697.16.9a.43.43 0 00.45.106c.18-.055.42-.235.72-.541l.94-.933c.59-.59 1.16-.912 1.72-.967.55-.055 1.07.155 1.54.628.61.606.83 1.323.66 2.151-.17.828-.73 1.715-1.68 2.659-.72.728-1.41 1.155-2.05 1.281-.64.125-1.2-.05-1.68-.527-.33-.329-.5-.709-.52-1.141-.01-.432.12-.878.41-1.339-.21.087-.44.11-.69.068a1.088 1.088 0 01-.59-.31c-.2-.199-.32-.425-.34-.676-.03-.252 0-.556.09-.914-.4.158-.82.19-1.26.097-.44-.1-.84-.33-1.2-.691-.58-.58-.85-1.212-.8-1.895.04-.687.41-1.368 1.08-2.045.16-.151.32-.298.51-.44.19-.148.33-.253.44-.314l1.85-1.851zm1.98 10.378c.24.245.54.324.89.237.36-.091.74-.336 1.13-.735.62-.619 1-1.168 1.12-1.648.13-.481.04-.867-.25-1.16-.23-.233-.48-.315-.75-.247-.26.068-.62.327-1.07.778l-.86.861c-.32.325-.51.66-.55 1.005-.03.345.08.648.34.909zm-3.96-4.935c.34.335.68.507 1.03.517.35.006.69-.152 1.02-.474.65-.657.63-1.337-.07-2.04-.35-.348-.7-.533-1.05-.556-.35-.029-.69.123-1.03.455-.32.328-.48.672-.47 1.029.02.355.21.711.57 1.069zm10.49-8.624c.87.874 1.33 1.779 1.37 2.717.04.938-.33 1.806-1.13 2.605-.5.5-1.06.829-1.67.986-.61.158-1.22.129-1.85-.087-.63-.215-1.22-.602-1.78-1.16-.87-.866-1.32-1.766-1.36-2.697-.05-.931.34-1.801 1.15-2.61.77-.773 1.63-1.136 2.58-1.088.95.045 1.85.49 2.69 1.334zm-3.89 3.892c1.23 1.234 2.31 1.395 3.22.483.9-.902.73-1.971-.5-3.205-1.22-1.221-2.29-1.377-3.2-.469-.47.477-.66.982-.56 1.513.1.529.45 1.088 1.04 1.678zm12.37-7.009l-3.18-1.803c-.35-.181-1.12-.643-2.3-1.387l-.04.043c.68 1.057 1.15 1.822 1.4 2.296l1.78 3.195-1.26 1.257-6.84-3.848 1.16-1.16 3.31 1.953a23.4 23.4 0 012 1.344l.03-.029c-.2-.268-.42-.585-.66-.952-.24-.374-.41-.661-.51-.861l-2-3.625 1.24-1.247 3.61 2.025c.2.11.5.292.9.546.4.252.7.461.89.629l.04-.039c-.35-.445-.79-1.112-1.33-2.001l-1.94-3.326 1.14-1.14 3.84 6.854-1.28 1.276zM1186.51 802.564c1.17 1.166 1.74 2.383 1.71 3.649-.03 1.263-.66 2.504-1.88 3.722l-1.97 1.977-7.07-7.067 2.18-2.185c1.13-1.124 2.31-1.696 3.54-1.716 1.23-.019 2.39.521 3.49 1.62zm-1.18 1.256c-1.69-1.691-3.33-1.746-4.91-.164l-1 1.001 5.13 5.128.82-.822c1.7-1.701 1.69-3.415-.04-5.143zm9.64-2.508l-.98-.517-.03.038c.06.584.03 1.065-.12 1.446-.14.377-.42.77-.83 1.179-.52.525-1.07.794-1.65.807-.58.01-1.13-.245-1.65-.763-.55-.551-.76-1.172-.63-1.861.13-.69.6-1.467 1.41-2.33l.89-.952-.28-.286c-.34-.341-.68-.515-1.01-.522-.32-.013-.66.149-.99.484-.28.274-.5.576-.67.908a8.14 8.14 0 00-.44 1.011l-1.18-.445c.14-.442.34-.873.61-1.295.27-.426.55-.792.86-1.098.68-.68 1.34-1.044 1.98-1.092.64-.052 1.28.24 1.92.875l3.6 3.601-.81.812zm-2.47.918c.41-.412.63-.857.65-1.334.02-.483-.18-.933-.6-1.348l-.46-.464-.66.715c-.51.554-.81 1.034-.9 1.44-.08.4.04.764.37 1.093.24.238.5.353.77.343.27-.013.55-.161.83-.445zm6.11-4.558l-1.14 1.136-7.52-7.521 1.13-1.136 7.53 7.521zm2.87-2.871l-1.14 1.136-7.52-7.521 1.14-1.136 7.52 7.521zm5.08-5.08l-.97-.517-.04.039c.06.583.03 1.065-.11 1.445-.15.377-.43.77-.84 1.18-.52.525-1.07.794-1.65.807-.58.01-1.13-.245-1.65-.764-.55-.551-.76-1.171-.63-1.861.13-.689.6-1.466 1.41-2.33l.9-.952-.29-.285c-.34-.342-.68-.516-1.01-.522-.32-.013-.66.148-.99.483-.28.274-.5.577-.67.909-.17.332-.32.669-.44 1.01l-1.18-.445c.14-.441.34-.873.61-1.295.27-.425.55-.791.86-1.097.68-.68 1.34-1.044 1.98-1.093.64-.051 1.28.24 1.92.875l3.6 3.601-.81.812zm-2.47.919c.41-.413.63-.857.65-1.334.02-.484-.18-.933-.6-1.349l-.46-.464-.66.716c-.51.554-.81 1.034-.9 1.44-.08.4.04.764.37 1.092.24.239.5.353.77.344.27-.013.55-.162.83-.445zm7.04-8.536c.52.522.73 1.113.63 1.774-.1.657-.51 1.34-1.22 2.049-.71.712-1.39 1.176-2.04 1.392l-.98-.981c.92-.338 1.65-.778 2.19-1.319.7-.7.84-1.26.42-1.683a.73.73 0 00-.46-.222c-.16-.013-.38.021-.66.102-.27.08-.63.217-1.07.41-.85.377-1.51.556-1.96.537-.46-.023-.88-.224-1.26-.604-.45-.458-.62-.996-.51-1.615.12-.625.49-1.255 1.13-1.89a6.087 6.087 0 012.16-1.402l.49 1.223c-.81.339-1.42.705-1.81 1.098-.6.599-.73 1.07-.39 1.411.17.168.39.232.66.193.27-.041.78-.223 1.5-.546.62-.27 1.09-.435 1.43-.493.35-.058.66-.042.94.049.28.087.55.259.81.517zM1275.81 808.471l-1.16 1.155-6.07-6.076-2.08 2.079-.99-.991 5.31-5.312.99.99-2.08 2.079 6.08 6.076zm5.21-10.576c.87.873 1.33 1.779 1.37 2.717.04.937-.34 1.806-1.14 2.605-.49.499-1.05.828-1.66.986-.61.158-1.23.129-1.85-.087-.63-.216-1.23-.603-1.78-1.16-.87-.867-1.32-1.766-1.37-2.697-.04-.932.35-1.802 1.15-2.61.78-.774 1.64-1.136 2.59-1.088.95.045 1.84.49 2.69 1.334zm-3.89 3.891c1.23 1.234 2.3 1.396 3.22.484.9-.903.73-1.971-.5-3.205-1.22-1.221-2.29-1.378-3.2-.469-.47.477-.66.981-.56 1.513.1.528.45 1.088 1.04 1.677zm6.26-6.544l-.16-1.446-.1-3.335 1.3-1.31.15 4.447 5.34.764-1.34 1.334-4.06-.628-.11 1.136 1.83 1.832-1.12 1.126-7.52-7.522 1.12-1.126 3.67 3.669.97 1.088.03-.029zm1.34-6.385l1.24-1.238 4.12 1.943c.59.268 1.11.564 1.54.89l.04-.039a6.355 6.355 0 01-.48-.802c-.18-.332-.97-1.944-2.38-4.834l1.23-1.228 3.77 8.343c.69 1.528.56 2.776-.41 3.746-.25.252-.53.469-.82.653l-.9-.899c.21-.132.42-.308.64-.527.55-.548.62-1.25.21-2.108l-.31-.701-7.49-3.199zm13.63-8.305c.87.874 1.33 1.779 1.37 2.717.05.938-.33 1.806-1.13 2.605-.5.5-1.06.829-1.67.986a3.14 3.14 0 01-1.85-.087c-.63-.215-1.22-.602-1.78-1.16-.87-.866-1.32-1.766-1.36-2.697-.05-.931.34-1.801 1.15-2.61.77-.773 1.63-1.136 2.58-1.088.95.045 1.85.49 2.69 1.334zm-3.89 3.892c1.23 1.234 2.31 1.395 3.22.483.9-.902.73-1.971-.5-3.205-1.22-1.221-2.29-1.377-3.19-.469-.48.477-.67.982-.57 1.513.1.529.45 1.088 1.04 1.678z" fill="#252A2E"/><g clip-path="url(#prefix__clip0_110_475)"><path d="M125.5 151.5h1215" stroke="#6A6E79" stroke-linecap="square"/><path d="M108.39 750.003c0 1.736-.281 3.026-.841 3.869-.556.843-1.408 1.265-2.557 1.265-1.112 0-1.955-.436-2.529-1.306-.574-.87-.861-2.146-.861-3.828 0-1.764.278-3.063.834-3.897.56-.838 1.412-1.257 2.556-1.257 1.117 0 1.962.437 2.536 1.312.575.875.862 2.156.862 3.842zm-5.161 0c0 1.363.139 2.336.417 2.919.282.583.731.875 1.346.875.615 0 1.064-.296 1.347-.889.287-.592.431-1.561.431-2.905 0-1.34-.144-2.308-.431-2.905-.283-.602-.732-.903-1.347-.903s-1.064.294-1.346.882c-.278.588-.417 1.563-.417 2.926z" fill="#252A2E"/><path d="M124.5 351.5h1216" stroke="#6A6E79" stroke-linecap="square"/><path d="M89.006 548.759c1.007 0 1.805.266 2.392.8.588.533.882 1.26.882 2.18 0 1.067-.335 1.901-1.005 2.502-.665.597-1.613.896-2.843.896-1.117 0-1.994-.18-2.632-.54v-1.456c.369.209.793.371 1.271.485.479.114.923.171 1.333.171.725 0 1.276-.162 1.655-.485.378-.324.567-.798.567-1.422 0-1.194-.761-1.791-2.283-1.791a5.62 5.62 0 00-.793.068c-.315.041-.59.089-.827.144l-.718-.424.383-4.881h5.195v1.429h-3.78l-.226 2.474.581-.096a5.65 5.65 0 01.848-.054zm11.532 1.244c0 1.736-.281 3.026-.841 3.869-.556.843-1.408 1.265-2.557 1.265-1.112 0-1.955-.436-2.53-1.306-.573-.87-.86-2.146-.86-3.828 0-1.764.278-3.063.834-3.897.56-.838 1.412-1.257 2.556-1.257 1.117 0 1.962.437 2.536 1.312.575.875.862 2.156.862 3.842zm-5.161 0c0 1.363.139 2.336.417 2.919.282.583.731.875 1.346.875.615 0 1.064-.296 1.347-.889.287-.592.43-1.561.43-2.905 0-1.34-.143-2.308-.43-2.905-.283-.602-.731-.903-1.347-.903-.615 0-1.064.294-1.346.882-.278.588-.417 1.563-.417 2.926zm8.619 1.005l.909-1.135 2.284-2.434h1.852l-3.042 3.248 3.234 4.313h-1.887l-2.427-3.315-.882.724V555h-1.592v-10.637h1.592v5.189l-.082 1.456h.041z" fill="#252A2E"/><path d="M125.5 551.5h1215" stroke="#6A6E79" stroke-linecap="square"/><path d="M82.332 355h-1.606v-6.453c0-.77.018-1.381.054-1.832a5.42 5.42 0 01-.39.362c-.15.132-.66.552-1.53 1.258l-.807-1.019 2.94-2.31h1.339V355zm10.206-4.997c0 1.736-.28 3.026-.841 3.869-.556.843-1.408 1.265-2.557 1.265-1.112 0-1.955-.436-2.53-1.306-.573-.87-.86-2.146-.86-3.828 0-1.764.278-3.063.834-3.897.56-.838 1.412-1.257 2.556-1.257 1.117 0 1.962.437 2.536 1.312.575.875.862 2.156.862 3.842zm-5.161 0c0 1.363.139 2.336.417 2.919.282.583.731.875 1.346.875.615 0 1.064-.296 1.347-.889.287-.592.43-1.561.43-2.905 0-1.34-.143-2.308-.43-2.905-.283-.602-.731-.903-1.347-.903-.615 0-1.064.294-1.346.882-.278.588-.417 1.563-.417 2.926zm13.309 0c0 1.736-.281 3.026-.841 3.869-.556.843-1.408 1.265-2.557 1.265-1.112 0-1.955-.436-2.529-1.306-.574-.87-.861-2.146-.861-3.828 0-1.764.278-3.063.834-3.897.56-.838 1.412-1.257 2.556-1.257 1.117 0 1.962.437 2.536 1.312.575.875.862 2.156.862 3.842zm-5.161 0c0 1.363.139 2.336.417 2.919.282.583.731.875 1.346.875.615 0 1.064-.296 1.347-.889.287-.592.43-1.561.43-2.905 0-1.34-.143-2.308-.43-2.905-.283-.602-.732-.903-1.347-.903s-1.064.294-1.346.882c-.278.588-.417 1.563-.417 2.926zm8.619 1.005l.91-1.135 2.283-2.434h1.852l-3.042 3.248 3.234 4.313h-1.887l-2.427-3.315-.882.724V355h-1.592v-10.637h1.592v5.189l-.082 1.456h.041z" fill="#252A2E"/><path d="M125.5 751.5h1215" stroke="#6A6E79" stroke-linecap="square"/><path d="M82.332 155h-1.606v-6.453c0-.77.018-1.381.054-1.832a5.42 5.42 0 01-.39.362c-.15.132-.66.552-1.53 1.258l-.807-1.019 2.94-2.31h1.339V155zm6.822-6.241c1.007 0 1.805.266 2.392.8.588.533.882 1.26.882 2.18 0 1.067-.335 1.901-1.005 2.502-.665.597-1.613.896-2.843.896-1.117 0-1.994-.18-2.632-.54v-1.456c.369.209.793.371 1.271.485.479.114.923.171 1.333.171.725 0 1.276-.162 1.655-.485.378-.324.567-.798.567-1.422 0-1.194-.761-1.791-2.283-1.791-.214 0-.479.022-.793.068-.315.041-.59.089-.827.144l-.718-.424.383-4.881h5.195v1.429h-3.78l-.226 2.474.581-.096c.233-.036.515-.054.848-.054zm11.532 1.244c0 1.736-.281 3.026-.841 3.869-.556.843-1.408 1.265-2.557 1.265-1.112 0-1.955-.436-2.529-1.306-.574-.87-.861-2.146-.861-3.828 0-1.764.278-3.063.834-3.897.56-.838 1.412-1.257 2.556-1.257 1.117 0 1.962.437 2.536 1.312.575.875.862 2.156.862 3.842zm-5.161 0c0 1.363.139 2.336.417 2.919.282.583.731.875 1.346.875.615 0 1.064-.296 1.347-.889.287-.592.43-1.561.43-2.905 0-1.34-.143-2.308-.43-2.905-.283-.602-.732-.903-1.347-.903s-1.064.294-1.346.882c-.278.588-.417 1.563-.417 2.926zm8.619 1.005l.91-1.135 2.283-2.434h1.852l-3.042 3.248 3.234 4.313h-1.887l-2.427-3.315-.882.724V155h-1.592v-10.637h1.592v5.189l-.082 1.456h.041zM1362.27 753.903c0 .661-.24 1.206-.73 1.634-.48.428-1.18.693-2.09.793v1.483h-.91v-1.442c-1.13-.018-2.06-.191-2.78-.519v-1.443c.39.192.85.353 1.37.486.53.127 1 .193 1.41.198v-2.557l-.57-.212c-.75-.287-1.3-.629-1.64-1.025-.35-.401-.52-.896-.52-1.484 0-.628.25-1.146.73-1.551.5-.406 1.16-.652 2-.739v-1.148h.91v1.128c.93.032 1.8.219 2.63.56l-.5 1.251a7.24 7.24 0 00-2.13-.505v2.488l.52.198c.87.333 1.46.684 1.8 1.053.33.369.5.82.5 1.353zm-1.62.103a.827.827 0 00-.28-.65c-.18-.173-.49-.339-.92-.499v2.181c.8-.123 1.2-.467 1.2-1.032zm-3.23-4.204c0 .26.08.476.24.649.16.173.46.344.88.513v-2.126c-.36.055-.64.166-.83.335a.81.81 0 00-.29.629zm13.12 2.201c0 1.736-.28 3.026-.84 3.869-.56.843-1.41 1.265-2.56 1.265-1.11 0-1.95-.436-2.53-1.306-.57-.87-.86-2.146-.86-3.828 0-1.764.28-3.063.83-3.897.56-.838 1.42-1.257 2.56-1.257 1.12 0 1.96.437 2.54 1.312.57.875.86 2.156.86 3.842zm-5.16 0c0 1.363.14 2.336.41 2.919.29.583.73.875 1.35.875.62 0 1.06-.296 1.35-.889.28-.592.43-1.561.43-2.905 0-1.34-.15-2.308-.43-2.905-.29-.602-.73-.903-1.35-.903-.62 0-1.06.294-1.35.882-.27.588-.41 1.563-.41 2.926zm6.83 4.143c0-.333.08-.588.26-.766.17-.178.42-.267.75-.267s.58.094.76.281c.17.182.26.432.26.752 0 .323-.09.581-.27.772-.17.187-.42.28-.75.28s-.58-.093-.75-.28c-.18-.187-.26-.444-.26-.772zm10.48-4.143c0 1.736-.28 3.026-.84 3.869-.56.843-1.41 1.265-2.56 1.265-1.11 0-1.95-.436-2.53-1.306-.57-.87-.86-2.146-.86-3.828 0-1.764.28-3.063.84-3.897.56-.838 1.41-1.257 2.55-1.257 1.12 0 1.97.437 2.54 1.312.57.875.86 2.156.86 3.842zm-5.16 0c0 1.363.14 2.336.42 2.919.28.583.73.875 1.34.875.62 0 1.07-.296 1.35-.889.29-.592.43-1.561.43-2.905 0-1.34-.14-2.308-.43-2.905-.28-.602-.73-.903-1.35-.903-.61 0-1.06.294-1.34.882-.28.588-.42 1.563-.42 2.926zm13.31 0c0 1.736-.28 3.026-.84 3.869-.56.843-1.41 1.265-2.56 1.265-1.11 0-1.95-.436-2.53-1.306-.57-.87-.86-2.146-.86-3.828 0-1.764.28-3.063.84-3.897.56-.838 1.41-1.257 2.55-1.257 1.12 0 1.96.437 2.54 1.312.57.875.86 2.156.86 3.842zm-5.16 0c0 1.363.14 2.336.42 2.919.28.583.73.875 1.34.875.62 0 1.07-.296 1.35-.889.29-.592.43-1.561.43-2.905 0-1.34-.14-2.308-.43-2.905-.28-.602-.73-.903-1.35-.903-.61 0-1.06.294-1.34.882-.28.588-.42 1.563-.42 2.926zM1362.27 553.903c0 .661-.24 1.206-.73 1.634-.48.428-1.18.693-2.09.793v1.483h-.91v-1.442c-1.13-.018-2.06-.191-2.78-.519v-1.443c.39.192.85.353 1.37.486.53.127 1 .193 1.41.198v-2.557l-.57-.212c-.75-.287-1.3-.629-1.64-1.025-.35-.401-.52-.896-.52-1.484 0-.628.25-1.146.73-1.551.5-.406 1.16-.652 2-.739v-1.148h.91v1.128c.93.032 1.8.219 2.63.56l-.5 1.251a7.24 7.24 0 00-2.13-.505v2.488l.52.198c.87.333 1.46.684 1.8 1.053.33.369.5.82.5 1.353zm-1.62.103a.827.827 0 00-.28-.65c-.18-.173-.49-.339-.92-.499v2.181c.8-.123 1.2-.467 1.2-1.032zm-3.23-4.204c0 .26.08.476.24.649.16.173.46.344.88.513v-2.126c-.36.055-.64.166-.83.335a.81.81 0 00-.29.629zm9.72-2.926c.95 0 1.7.219 2.25.656.55.433.83 1.014.83 1.743 0 1.026-.62 1.842-1.85 2.448.78.392 1.34.804 1.67 1.237.33.433.5.916.5 1.449 0 .825-.31 1.486-.91 1.983-.61.496-1.43.745-2.46.745-1.09 0-1.93-.233-2.52-.698-.6-.464-.9-1.123-.9-1.975 0-.556.15-1.055.46-1.497.32-.447.83-.843 1.54-1.19-.61-.364-1.04-.749-1.3-1.155a2.48 2.48 0 01-.39-1.367c0-.725.28-1.301.85-1.73.57-.433 1.31-.649 2.23-.649zm-1.85 7.533c0 .474.16.843.5 1.108.33.259.78.389 1.35.389.59 0 1.04-.134 1.37-.403.33-.274.49-.643.49-1.107 0-.37-.15-.707-.45-1.012-.3-.306-.76-.588-1.37-.848l-.2-.089c-.6.265-1.03.556-1.3.875-.26.315-.39.677-.39 1.087zm1.84-6.296c-.46 0-.83.114-1.1.342-.28.223-.42.529-.42.916 0 .237.05.449.15.636.1.187.25.358.44.513.19.15.51.332.97.546.54-.241.93-.494 1.15-.758.23-.269.34-.581.34-.937 0-.387-.14-.693-.42-.916-.28-.228-.65-.342-1.11-.342zm11.56 3.89c0 1.736-.28 3.026-.85 3.869-.55.843-1.4 1.265-2.55 1.265-1.11 0-1.96-.436-2.53-1.306-.58-.87-.86-2.146-.86-3.828 0-1.764.28-3.063.83-3.897.56-.838 1.41-1.257 2.56-1.257 1.11 0 1.96.437 2.53 1.312.58.875.87 2.156.87 3.842zm-5.17 0c0 1.363.14 2.336.42 2.919.28.583.73.875 1.35.875.61 0 1.06-.296 1.34-.889.29-.592.44-1.561.44-2.905 0-1.34-.15-2.308-.44-2.905-.28-.602-.73-.903-1.34-.903-.62 0-1.07.294-1.35.882-.28.588-.42 1.563-.42 2.926zm6.83 4.143c0-.333.09-.588.26-.766.18-.178.43-.267.76-.267s.58.094.75.281c.18.182.26.432.26.752 0 .323-.09.581-.26.772-.18.187-.43.28-.75.28-.33 0-.58-.093-.76-.28-.17-.187-.26-.444-.26-.772zm10.49-4.143c0 1.736-.28 3.026-.84 3.869-.56.843-1.41 1.265-2.56 1.265-1.11 0-1.95-.436-2.53-1.306-.57-.87-.86-2.146-.86-3.828 0-1.764.28-3.063.84-3.897.56-.838 1.41-1.257 2.55-1.257 1.12 0 1.96.437 2.54 1.312.57.875.86 2.156.86 3.842zm-5.16 0c0 1.363.14 2.336.42 2.919.28.583.73.875 1.34.875.62 0 1.07-.296 1.35-.889.29-.592.43-1.561.43-2.905 0-1.34-.14-2.308-.43-2.905-.28-.602-.73-.903-1.35-.903-.61 0-1.06.294-1.34.882-.28.588-.42 1.563-.42 2.926zm13.31 0c0 1.736-.28 3.026-.84 3.869-.56.843-1.41 1.265-2.56 1.265-1.11 0-1.96-.436-2.53-1.306-.57-.87-.86-2.146-.86-3.828 0-1.764.28-3.063.83-3.897.56-.838 1.42-1.257 2.56-1.257 1.12 0 1.96.437 2.54 1.312.57.875.86 2.156.86 3.842zm-5.16 0c0 1.363.14 2.336.41 2.919.29.583.73.875 1.35.875.62 0 1.06-.296 1.35-.889.28-.592.43-1.561.43-2.905 0-1.34-.15-2.308-.43-2.905-.29-.602-.73-.903-1.35-.903-.62 0-1.06.294-1.35.882-.27.588-.41 1.563-.41 2.926zm14.86 4.997h-1.89l-3.14-4.525-.96.786V557h-1.63v-9.994h1.63v4.771a75.7 75.7 0 011.33-1.579l2.7-3.192h1.86c-1.74 2.051-3 3.511-3.75 4.382l3.85 5.612zM1362.27 353.903c0 .661-.24 1.206-.73 1.634-.48.428-1.18.693-2.09.793v1.483h-.91v-1.442c-1.13-.018-2.06-.191-2.78-.519v-1.443c.39.192.85.353 1.37.486.53.127 1 .193 1.41.198v-2.557l-.57-.212c-.75-.287-1.3-.629-1.64-1.025-.35-.401-.52-.896-.52-1.484 0-.628.25-1.146.73-1.551.5-.406 1.16-.652 2-.739v-1.148h.91v1.128c.93.032 1.8.219 2.63.56l-.5 1.251a7.24 7.24 0 00-2.13-.505v2.488l.52.198c.87.333 1.46.684 1.8 1.053.33.369.5.82.5 1.353zm-1.62.103a.827.827 0 00-.28-.65c-.18-.173-.49-.339-.92-.499v2.181c.8-.123 1.2-.467 1.2-1.032zm-3.23-4.204c0 .26.08.476.24.649.16.173.46.344.88.513v-2.126c-.36.055-.64.166-.83.335a.81.81 0 00-.29.629zm11.06 7.198h-1.61v-6.453c0-.77.02-1.381.06-1.832-.11.109-.24.23-.39.362-.15.132-.66.552-1.53 1.258l-.81-1.019 2.94-2.31h1.34V357zm3.46-4.259c0-3.91 1.59-5.865 4.78-5.865.5 0 .92.039 1.27.116v1.34c-.35-.1-.75-.15-1.2-.15-1.08 0-1.88.287-2.42.861-.54.574-.83 1.495-.87 2.762h.08c.21-.369.51-.654.9-.855.39-.205.84-.307 1.37-.307.91 0 1.61.278 2.12.834.5.556.76 1.31.76 2.262 0 1.048-.3 1.878-.89 2.489-.58.606-1.38.909-2.39.909-.71 0-1.34-.171-1.86-.513-.53-.346-.94-.848-1.23-1.504-.28-.661-.42-1.454-.42-2.379zm3.48 3.07c.56 0 .98-.178 1.28-.534.3-.355.45-.863.45-1.524 0-.574-.14-1.025-.43-1.354-.27-.328-.69-.492-1.25-.492-.35 0-.67.075-.96.226a1.74 1.74 0 00-.69.608c-.17.255-.25.517-.25.786 0 .643.17 1.185.52 1.627.35.438.79.657 1.33.657zm11.41-3.808c0 1.736-.28 3.026-.84 3.869-.55.843-1.41 1.265-2.55 1.265-1.12 0-1.96-.436-2.53-1.306-.58-.87-.86-2.146-.86-3.828 0-1.764.27-3.063.83-3.897.56-.838 1.41-1.257 2.56-1.257 1.11 0 1.96.437 2.53 1.312.58.875.86 2.156.86 3.842zm-5.16 0c0 1.363.14 2.336.42 2.919.28.583.73.875 1.35.875.61 0 1.06-.296 1.34-.889.29-.592.43-1.561.43-2.905 0-1.34-.14-2.308-.43-2.905-.28-.602-.73-.903-1.34-.903-.62 0-1.07.294-1.35.882-.28.588-.42 1.563-.42 2.926zm6.83 4.143c0-.333.09-.588.26-.766.17-.178.42-.267.75-.267.34 0 .59.094.76.281.18.182.26.432.26.752 0 .323-.09.581-.26.772-.18.187-.43.28-.76.28s-.58-.093-.75-.28c-.17-.187-.26-.444-.26-.772zm10.49-4.143c0 1.736-.28 3.026-.84 3.869-.56.843-1.41 1.265-2.56 1.265-1.11 0-1.96-.436-2.53-1.306-.57-.87-.86-2.146-.86-3.828 0-1.764.28-3.063.83-3.897.56-.838 1.42-1.257 2.56-1.257 1.12 0 1.96.437 2.54 1.312.57.875.86 2.156.86 3.842zm-5.16 0c0 1.363.14 2.336.41 2.919.29.583.73.875 1.35.875.62 0 1.06-.296 1.35-.889.28-.592.43-1.561.43-2.905 0-1.34-.15-2.308-.43-2.905-.29-.602-.73-.903-1.35-.903-.62 0-1.06.294-1.35.882-.27.588-.41 1.563-.41 2.926zm13.31 0c0 1.736-.28 3.026-.85 3.869-.55.843-1.4 1.265-2.55 1.265-1.11 0-1.96-.436-2.53-1.306-.58-.87-.86-2.146-.86-3.828 0-1.764.28-3.063.83-3.897.56-.838 1.41-1.257 2.56-1.257 1.11 0 1.96.437 2.53 1.312.58.875.87 2.156.87 3.842zm-5.17 0c0 1.363.14 2.336.42 2.919.28.583.73.875 1.35.875.61 0 1.06-.296 1.34-.889.29-.592.44-1.561.44-2.905 0-1.34-.15-2.308-.44-2.905-.28-.602-.73-.903-1.34-.903-.62 0-1.07.294-1.35.882-.28.588-.42 1.563-.42 2.926zm14.87 4.997h-1.89l-3.14-4.525-.96.786V357h-1.64v-9.994h1.64v4.771c.44-.547.89-1.073 1.33-1.579l2.7-3.192h1.86c-1.75 2.051-3 3.511-3.75 4.382l3.85 5.612zM1362.27 153.903c0 .661-.24 1.206-.73 1.634-.48.428-1.18.693-2.09.793v1.483h-.91v-1.442c-1.13-.018-2.06-.191-2.78-.519v-1.443c.39.192.85.353 1.37.486.53.127 1 .193 1.41.198v-2.557l-.57-.212c-.75-.287-1.3-.629-1.64-1.025-.35-.401-.52-.896-.52-1.484 0-.628.25-1.146.73-1.551.5-.406 1.16-.652 2-.739v-1.148h.91v1.128c.93.032 1.8.219 2.63.56l-.5 1.251a7.24 7.24 0 00-2.13-.505v2.488l.52.198c.87.333 1.46.684 1.8 1.053.33.369.5.82.5 1.353zm-1.62.103a.827.827 0 00-.28-.65c-.18-.173-.49-.339-.92-.499v2.181c.8-.123 1.2-.467 1.2-1.032zm-3.23-4.204c0 .26.08.476.24.649.16.173.46.344.88.513v-2.126c-.36.055-.64.166-.83.335a.81.81 0 00-.29.629zm13.12 7.198h-6.78v-1.217l2.58-2.591c.76-.779 1.27-1.33 1.51-1.654.25-.328.43-.636.55-.923.11-.287.17-.594.17-.923 0-.451-.14-.806-.41-1.066-.27-.26-.64-.39-1.12-.39-.39 0-.76.071-1.12.212-.35.142-.76.397-1.23.766l-.87-1.06c.55-.469 1.09-.802 1.62-.998a4.709 4.709 0 011.67-.294c.93 0 1.68.244 2.24.732.56.483.84 1.135.84 1.955 0 .451-.08.879-.25 1.285-.16.406-.4.825-.74 1.258-.33.428-.89 1.009-1.67 1.743l-1.74 1.682v.068h4.75V157zm8.5-2.181h-1.35V157h-1.56v-2.181h-4.57v-1.237l4.57-6.603h1.56v6.507h1.35v1.333zm-2.91-1.333v-2.508c0-.894.02-1.625.07-2.195h-.06c-.12.301-.33.666-.6 1.094l-2.48 3.609h3.07zm10.7-1.483c0 1.736-.28 3.026-.84 3.869-.55.843-1.41 1.265-2.55 1.265-1.12 0-1.96-.436-2.53-1.306-.58-.87-.86-2.146-.86-3.828 0-1.764.27-3.063.83-3.897.56-.838 1.41-1.257 2.56-1.257 1.11 0 1.96.437 2.53 1.312.58.875.86 2.156.86 3.842zm-5.16 0c0 1.363.14 2.336.42 2.919.28.583.73.875 1.35.875.61 0 1.06-.296 1.34-.889.29-.592.43-1.561.43-2.905 0-1.34-.14-2.308-.43-2.905-.28-.602-.73-.903-1.34-.903-.62 0-1.07.294-1.35.882-.28.588-.42 1.563-.42 2.926zm6.83 4.143c0-.333.09-.588.26-.766.17-.178.42-.267.75-.267.34 0 .59.094.76.281.18.182.26.432.26.752 0 .323-.09.581-.26.772-.18.187-.43.28-.76.28s-.58-.093-.75-.28c-.17-.187-.26-.444-.26-.772zm10.49-4.143c0 1.736-.28 3.026-.84 3.869-.56.843-1.41 1.265-2.56 1.265-1.11 0-1.96-.436-2.53-1.306-.57-.87-.86-2.146-.86-3.828 0-1.764.28-3.063.83-3.897.56-.838 1.42-1.257 2.56-1.257 1.12 0 1.96.437 2.54 1.312.57.875.86 2.156.86 3.842zm-5.16 0c0 1.363.14 2.336.41 2.919.29.583.73.875 1.35.875.62 0 1.06-.296 1.35-.889.28-.592.43-1.561.43-2.905 0-1.34-.15-2.308-.43-2.905-.29-.602-.73-.903-1.35-.903-.62 0-1.06.294-1.35.882-.27.588-.41 1.563-.41 2.926zm13.31 0c0 1.736-.28 3.026-.85 3.869-.55.843-1.4 1.265-2.55 1.265-1.11 0-1.96-.436-2.53-1.306-.58-.87-.86-2.146-.86-3.828 0-1.764.28-3.063.83-3.897.56-.838 1.41-1.257 2.56-1.257 1.11 0 1.96.437 2.53 1.312.58.875.87 2.156.87 3.842zm-5.17 0c0 1.363.14 2.336.42 2.919.28.583.73.875 1.35.875.61 0 1.06-.296 1.34-.889.29-.592.44-1.561.44-2.905 0-1.34-.15-2.308-.44-2.905-.28-.602-.73-.903-1.34-.903-.62 0-1.07.294-1.35.882-.28.588-.42 1.563-.42 2.926zm14.87 4.997h-1.89l-3.14-4.525-.96.786V157h-1.64v-9.994h1.64v4.771c.44-.547.89-1.073 1.33-1.579l2.7-3.192h1.86c-1.75 2.051-3 3.511-3.75 4.382l3.85 5.612z" fill="#252A2E"/></g><path fill="#89C6ED" d="M150 713h30v39h-30zM235 580h30v172h-30zM320 620h30v132h-30zM405 737h30v15h-30zM490 601h30v151h-30zM575 558h30v194h-30zM660 591h30v161h-30zM745 607h30v145h-30zM830 662h30v90h-30zM915 640h30v112h-30zM1000 508h30v244h-30zM1085 630h30v122h-30zM1170 525h30v227h-30zM1255 454h30v298h-30z"/><path fill="#368FC7" d="M180 640h30v112h-30zM265 673h30v79h-30zM350 723h30v29h-30zM435 221h30v531h-30zM520 567h30v185h-30zM605 646h30v106h-30zM690 573h30v179h-30zM775 567h30v185h-30zM860 396h30v356h-30zM945 662h30v90h-30zM1030 465h30v287h-30zM1115 608h30v144h-30zM1200 607h30v145h-30zM1285 284h30v468h-30z"/><path d="M709.688 99h-4.844V80.187h-6.203v-4.03h17.25v4.03h-6.203V99zm9.423-21.984c0-1.553.865-2.329 2.594-2.329 1.729 0 2.594.776 2.594 2.329 0 .74-.219 1.317-.657 1.734-.427.406-1.073.61-1.937.61-1.729 0-2.594-.782-2.594-2.344zM724.08 99h-4.766V81.531h4.766V99zm12.658-3.484c.833 0 1.833-.183 3-.547v3.547c-1.188.53-2.646.796-4.375.796-1.906 0-3.297-.479-4.172-1.437-.865-.969-1.297-2.417-1.297-4.344V85.11h-2.281v-2.015l2.625-1.594 1.375-3.688h3.047v3.72h4.89v3.577h-4.89v8.422c0 .677.187 1.177.562 1.5.386.323.891.485 1.516.485zM748.333 99h-4.765V74.687h4.765V99zm12.533-14.406c-1.01 0-1.802.323-2.375.969-.573.635-.901 1.541-.984 2.718h6.687c-.02-1.177-.328-2.083-.921-2.719-.594-.645-1.396-.968-2.407-.968zm.672 14.719c-2.812 0-5.01-.776-6.594-2.329-1.583-1.552-2.375-3.75-2.375-6.593 0-2.928.73-5.188 2.188-6.782 1.469-1.604 3.495-2.406 6.078-2.406 2.469 0 4.391.703 5.766 2.11 1.375 1.406 2.062 3.349 2.062 5.828v2.312h-11.265c.052 1.354.453 2.412 1.203 3.172.75.76 1.802 1.14 3.156 1.14a13.1 13.1 0 002.984-.328c.938-.218 1.917-.567 2.938-1.046v3.687c-.833.417-1.724.724-2.672.922-.948.208-2.104.313-3.469.313z" fill="#252A2E"/><path d="M195 671.5L265 567l86 24 99 116 70-220.5 85 21.95L690 539l85-355.277L875 452l83.981 219.5 71.019-320 85-39.756L1200 558l100-217" stroke="#0063A3" stroke-width="2"/><circle cx="195" cy="671" r="8" fill="#fff" stroke="#0063A3" stroke-width="2"/><circle cx="266" cy="568" r="8" fill="#fff" stroke="#0063A3" stroke-width="2"/><circle cx="349" cy="591" r="8" fill="#fff" stroke="#0063A3" stroke-width="2"/><circle cx="451" cy="707" r="8" fill="#fff" stroke="#0063A3" stroke-width="2"/><circle cx="521" cy="486" r="8" fill="#fff" stroke="#0063A3" stroke-width="2"/><circle cx="689" cy="539" r="8" fill="#fff" stroke="#0063A3" stroke-width="2"/><circle cx="776" cy="185" r="8" fill="#fff" stroke="#0063A3" stroke-width="2"/><circle cx="875" cy="451" r="8" fill="#fff" stroke="#0063A3" stroke-width="2"/><circle cx="959" cy="672" r="8" fill="#fff" stroke="#0063A3" stroke-width="2"/><circle cx="1031" cy="351" r="8" fill="#fff" stroke="#0063A3" stroke-width="2"/><circle cx="1116" cy="313" r="8" fill="#fff" stroke="#0063A3" stroke-width="2"/><circle cx="1201" cy="557" r="8" fill="#fff" stroke="#0063A3" stroke-width="2"/><circle cx="1300" cy="343" r="8" fill="#fff" stroke="#0063A3" stroke-width="2"/><g clip-path="url(#prefix__clip1_110_475)"><path fill="#89C6ED" d="M631 895h16v16h-16z"/><path fill="#368FC7" d="M745 895h16v16h-16z"/><path fill="#0E416C" d="M881 895h16v16h-16z"/><circle cx="517" cy="903" r="8" fill="#fff" stroke="#0063A3" stroke-width="2"/><path d="M774.407 902.579h3.678v5.018c-.602.196-1.18.335-1.736.417-.552.082-1.149.123-1.791.123-1.513 0-2.68-.447-3.5-1.34-.821-.898-1.231-2.163-1.231-3.794 0-1.609.463-2.867 1.388-3.774.925-.911 2.199-1.367 3.821-1.367 1.044 0 2.033.201 2.967.602l-.574 1.36c-.811-.373-1.623-.56-2.434-.56-1.066 0-1.909.335-2.529 1.005-.62.669-.93 1.585-.93 2.748 0 1.221.278 2.151.834 2.789.561.633 1.365.95 2.413.95.529 0 1.094-.066 1.696-.198v-2.578h-2.072v-1.401zM785.201 908l-.322-1.053h-.054c-.365.461-.732.775-1.101.944-.369.164-.843.246-1.422.246-.742 0-1.324-.201-1.743-.602-.415-.401-.622-.968-.622-1.702 0-.779.289-1.367.868-1.764.579-.396 1.461-.613 2.646-.649l1.305-.041v-.403c0-.483-.113-.844-.341-1.08-.224-.242-.572-.363-1.046-.363a3.63 3.63 0 00-1.115.171 8.426 8.426 0 00-1.025.403l-.519-1.148c.41-.214.859-.376 1.346-.485a6.08 6.08 0 011.381-.171c.962 0 1.686.209 2.174.629.492.419.738 1.077.738 1.975V908h-1.148zm-2.393-1.094c.584 0 1.051-.162 1.402-.485.355-.328.533-.786.533-1.374v-.656l-.971.041c-.756.027-1.308.155-1.654.382-.342.224-.513.568-.513 1.033 0 .337.1.599.301.786.2.182.501.273.902.273zM795.112 908h-1.613v-4.662c0-.579-.109-1.01-.328-1.292-.219-.287-.56-.431-1.025-.431-.62 0-1.076.203-1.367.609-.288.401-.431 1.071-.431 2.009V908h-1.607v-7.561h1.258l.226.992h.082c.209-.36.513-.638.909-.834a2.964 2.964 0 011.319-.294c1.162 0 1.933.396 2.311 1.189h.109c.224-.374.538-.665.944-.875.405-.209.87-.314 1.394-.314.903 0 1.559.228 1.969.683.415.456.622 1.151.622 2.085V908h-1.606v-4.662c0-.579-.112-1.01-.335-1.292-.219-.287-.561-.431-1.026-.431-.624 0-1.082.196-1.374.588-.287.387-.431.985-.431 1.791V908zm13.535 0h-1.613v-4.662c0-.579-.109-1.01-.328-1.292-.219-.287-.561-.431-1.026-.431-.619 0-1.075.203-1.367.609-.287.401-.43 1.071-.43 2.009V908h-1.607v-7.561h1.258l.226.992h.082c.209-.36.512-.638.909-.834a2.964 2.964 0 011.319-.294c1.162 0 1.932.396 2.311 1.189h.109c.223-.374.538-.665.943-.875.406-.209.871-.314 1.395-.314.902 0 1.559.228 1.969.683.414.456.622 1.151.622 2.085V908h-1.607v-4.662c0-.579-.111-1.01-.335-1.292-.218-.287-.56-.431-1.025-.431-.624 0-1.082.196-1.374.588-.287.387-.431.985-.431 1.791V908zm11.894 0l-.321-1.053h-.055c-.364.461-.731.775-1.1.944-.369.164-.843.246-1.422.246-.743 0-1.324-.201-1.743-.602-.415-.401-.622-.968-.622-1.702 0-.779.289-1.367.868-1.764.579-.396 1.461-.613 2.645-.649l1.306-.041v-.403c0-.483-.114-.844-.342-1.08-.223-.242-.572-.363-1.046-.363-.387 0-.758.057-1.114.171a8.426 8.426 0 00-1.025.403l-.52-1.148c.41-.214.859-.376 1.347-.485a6.08 6.08 0 011.381-.171c.961 0 1.686.209 2.174.629.492.419.738 1.077.738 1.975V908h-1.149zm-2.392-1.094c.583 0 1.05-.162 1.401-.485.356-.328.533-.786.533-1.374v-.656l-.97.041c-.757.027-1.308.155-1.655.382-.341.224-.512.568-.512 1.033 0 .337.1.599.3.786.201.182.502.273.903.273zM912.937 901.027c0 1.044-.342 1.844-1.026 2.4-.683.556-1.656.834-2.919.834h-1.039V908h-1.634v-9.994h2.878c1.249 0 2.183.255 2.803.765.624.511.937 1.263.937 2.256zm-4.984 1.86h.868c.839 0 1.454-.146 1.846-.438.392-.291.588-.747.588-1.367 0-.574-.176-1.003-.526-1.285-.351-.283-.898-.424-1.641-.424h-1.135v3.514zm10.26 5.25c-1.175 0-2.096-.342-2.761-1.026-.661-.688-.991-1.633-.991-2.837 0-1.235.307-2.205.922-2.912.616-.706 1.461-1.059 2.537-1.059.998 0 1.786.303 2.365.909.579.606.868 1.44.868 2.502v.868h-5.038c.023.734.221 1.299.595 1.695.373.392.9.588 1.579.588.446 0 .861-.041 1.244-.123a6.666 6.666 0 001.244-.424v1.306a4.942 4.942 0 01-1.19.397 7.334 7.334 0 01-1.374.116zm-.293-6.617c-.511 0-.921.161-1.231.485-.305.323-.488.795-.547 1.415h3.432c-.009-.624-.16-1.096-.451-1.415-.292-.324-.693-.485-1.203-.485zm9.043-1.217c.324 0 .59.023.8.068l-.157 1.497a3.022 3.022 0 00-.711-.082c-.643 0-1.165.21-1.566.629-.396.419-.594.964-.594 1.634V908h-1.607v-7.561h1.258l.212 1.333h.082c.251-.451.576-.808.977-1.073a2.352 2.352 0 011.306-.396zm5.407 7.834c-1.144 0-2.014-.333-2.611-.998-.593-.67-.889-1.63-.889-2.878 0-1.272.31-2.249.93-2.933.624-.683 1.524-1.025 2.7-1.025.797 0 1.515.148 2.153.444l-.485 1.292c-.679-.264-1.24-.396-1.682-.396-1.308 0-1.962.868-1.962 2.604 0 .848.162 1.486.486 1.914.328.424.806.636 1.435.636.716 0 1.392-.178 2.03-.533v1.401a3.154 3.154 0 01-.922.362c-.324.073-.718.11-1.183.11zm7.334 0c-1.175 0-2.096-.342-2.761-1.026-.661-.688-.991-1.633-.991-2.837 0-1.235.307-2.205.922-2.912.616-.706 1.461-1.059 2.537-1.059.998 0 1.786.303 2.365.909.579.606.868 1.44.868 2.502v.868h-5.038c.023.734.221 1.299.595 1.695.373.392.9.588 1.579.588.446 0 .861-.041 1.244-.123a6.666 6.666 0 001.244-.424v1.306a4.949 4.949 0 01-1.189.397c-.402.077-.86.116-1.375.116zm-.293-6.617c-.511 0-.921.161-1.231.485-.305.323-.488.795-.547 1.415h3.432c-.009-.624-.16-1.096-.451-1.415-.292-.324-.693-.485-1.203-.485zm11.86 6.48h-1.614v-4.648c0-.584-.118-1.019-.355-1.306-.233-.287-.604-.431-1.114-.431-.68 0-1.176.201-1.491.602-.314.401-.471 1.073-.471 2.016V908h-1.607v-7.561h1.258l.226.992h.082c.227-.36.551-.638.97-.834.42-.196.884-.294 1.395-.294 1.814 0 2.721.923 2.721 2.768V908zm5.201-1.162a3.91 3.91 0 001.176-.185v1.21a3.098 3.098 0 01-.69.192 4.55 4.55 0 01-.869.082c-1.522 0-2.283-.802-2.283-2.407v-4.074h-1.032v-.711l1.107-.588.547-1.599h.992v1.681h2.153v1.217h-2.153v4.047c0 .387.095.675.287.861.196.183.451.274.765.274zM656.319 898.006h2.967c1.376 0 2.37.2 2.981.601.615.401.922 1.035.922 1.901 0 .583-.15 1.068-.451 1.456-.3.387-.733.631-1.299.731v.069c.702.132 1.217.394 1.545.786.333.387.499.914.499 1.579 0 .898-.314 1.602-.943 2.112-.624.506-1.495.759-2.611.759h-3.61v-9.994zm1.634 4.129h1.572c.684 0 1.183-.107 1.497-.322.315-.218.472-.587.472-1.107 0-.469-.171-.809-.513-1.018-.337-.21-.875-.315-1.613-.315h-1.415v2.762zm0 1.326v3.165h1.736c.684 0 1.199-.13 1.545-.39.351-.264.527-.679.527-1.244 0-.519-.178-.904-.533-1.155-.356-.251-.896-.376-1.621-.376h-1.654zm10.889 4.676c-1.175 0-2.096-.342-2.761-1.026-.661-.688-.992-1.633-.992-2.837 0-1.235.308-2.205.923-2.912.616-.706 1.461-1.059 2.536-1.059.998 0 1.787.303 2.366.909.578.606.868 1.44.868 2.502v.868h-5.038c.023.734.221 1.299.594 1.695.374.392.901.588 1.58.588.446 0 .861-.041 1.244-.123a6.666 6.666 0 001.244-.424v1.306a4.956 4.956 0 01-1.19.397 7.334 7.334 0 01-1.374.116zm-.294-6.617c-.51 0-.92.161-1.23.485-.305.323-.488.795-.547 1.415h3.432c-.009-.624-.16-1.096-.451-1.415-.292-.324-.693-.485-1.204-.485zm8.025 5.318a3.91 3.91 0 001.176-.185v1.21a3.098 3.098 0 01-.69.192 4.548 4.548 0 01-.868.082c-1.523 0-2.284-.802-2.284-2.407v-4.074h-1.032v-.711l1.108-.588.546-1.599h.992v1.681h2.153v1.217h-2.153v4.047c0 .387.095.675.287.861.196.183.451.274.765.274zm7.574 1.162l-.321-1.053h-.055c-.364.461-.731.775-1.1.944-.369.164-.843.246-1.422.246-.743 0-1.324-.201-1.743-.602-.415-.401-.622-.968-.622-1.702 0-.779.289-1.367.868-1.764.579-.396 1.46-.613 2.645-.649l1.306-.041v-.403c0-.483-.114-.844-.342-1.08-.223-.242-.572-.363-1.046-.363-.387 0-.759.057-1.114.171a8.426 8.426 0 00-1.025.403l-.52-1.148c.41-.214.859-.376 1.347-.485a6.073 6.073 0 011.381-.171c.961 0 1.686.209 2.173.629.493.419.739 1.077.739 1.975V908h-1.149zm-2.392-1.094c.583 0 1.05-.162 1.401-.485.356-.328.533-.786.533-1.374v-.656l-.97.041c-.757.027-1.308.155-1.655.382-.342.224-.512.568-.512 1.033 0 .337.1.599.3.786.201.182.502.273.903.273zM540.52 908l-.999-2.775H535.7l-.977 2.775H533l3.739-10.035h1.778L542.256 908h-1.736zm-1.429-4.184l-.937-2.72c-.068-.183-.164-.47-.287-.862-.118-.392-.2-.679-.246-.861a15.265 15.265 0 01-.54 1.839l-.902 2.604h2.912zm6.07 4.184h-1.607v-10.637h1.607V908zm6.288.137c-.957 0-1.699-.344-2.228-1.033h-.096c.064.639.096 1.026.096 1.163v3.096h-1.607v-10.924h1.299c.037.142.112.479.226 1.012h.082c.501-.765 1.253-1.148 2.256-1.148.943 0 1.677.342 2.201 1.025.529.684.793 1.643.793 2.878s-.269 2.199-.807 2.892c-.533.692-1.271 1.039-2.215 1.039zm-.389-6.522c-.638 0-1.105.187-1.402.561-.291.373-.437.97-.437 1.791v.239c0 .921.146 1.588.437 2.003.292.41.768.615 1.429.615.556 0 .984-.228 1.285-.683.301-.456.451-1.106.451-1.949 0-.847-.15-1.488-.451-1.921-.296-.437-.733-.656-1.312-.656zM563.138 908h-1.613v-4.648c0-.584-.118-1.019-.355-1.306-.233-.287-.604-.431-1.115-.431-.674 0-1.171.203-1.49.609-.314.401-.471 1.075-.471 2.023V908h-1.607v-10.637h1.607v2.7c0 .433-.028.896-.082 1.388h.102c.219-.364.522-.647.909-.847.392-.201.848-.301 1.367-.301 1.832 0 2.748.923 2.748 2.768V908zm7.116 0l-.321-1.053h-.055c-.364.461-.731.775-1.1.944-.369.164-.843.246-1.422.246-.743 0-1.324-.201-1.743-.602-.415-.401-.622-.968-.622-1.702 0-.779.289-1.367.868-1.764.579-.396 1.46-.613 2.645-.649l1.306-.041v-.403c0-.483-.114-.844-.342-1.08-.223-.242-.572-.363-1.046-.363-.387 0-.759.057-1.114.171a8.426 8.426 0 00-1.025.403l-.52-1.148c.41-.214.859-.376 1.347-.485a6.073 6.073 0 011.381-.171c.961 0 1.686.209 2.173.629.493.419.739 1.077.739 1.975V908h-1.149zm-2.392-1.094c.583 0 1.05-.162 1.401-.485.356-.328.533-.786.533-1.374v-.656l-.97.041c-.757.027-1.308.155-1.655.382-.342.224-.512.568-.512 1.033 0 .337.1.599.3.786.201.182.502.273.903.273z" fill="#252A2E"/></g><defs><clipPath id="prefix__clip0_110_475"><path fill="#fff" transform="translate(77 139)" d="M0 0h1340v623H0z"/></clipPath><clipPath id="prefix__clip1_110_475"><path fill="#fff" transform="translate(506 892)" d="M0 0h452v21H0z"/></clipPath></defs></svg>