<svg width="700" height="790" fill="none" xmlns="http://www.w3.org/2000/svg"><path fill="#fff" d="M0 0h700v790H0z"/><path fill-rule="evenodd" clip-rule="evenodd" d="M283.099 152.487l25.916 96.716C218.217 268.113 150 348.59 150 445c0 45.074 14.91 86.664 40.068 120.11l-71.181 71.18C75.862 584.365 50 517.703 50 445c0-142.689 99.617-262.111 233.099-292.513z" fill="#A4D069"/><path fill-rule="evenodd" clip-rule="evenodd" d="M349 145c165.685 0 300 134.315 300 300 0 69.872-23.887 134.165-63.941 185.158l-71.484-71.482C535.914 526.397 549 487.226 549 445c0-110.457-89.543-200-200-200a200.894 200.894 0 00-40.494 4.102l-25.919-96.726C303.95 147.549 326.177 145 349 145z" fill="#E0E1E9"/><path fill="#6A6E79" d="M511.62 157.769l1.714 1.03-66.955 111.432-1.714-1.03z"/><path d="M513.938 622h-11.977v-2.52l4.301-4.347a64.823 64.823 0 002.086-2.227c.531-.601.914-1.148 1.148-1.64.242-.493.363-1.02.363-1.582 0-.68-.191-1.188-.574-1.524-.375-.344-.879-.515-1.512-.515-.664 0-1.308.152-1.933.457-.625.304-1.278.738-1.957 1.3l-1.969-2.332c.492-.422 1.012-.82 1.559-1.195a7.242 7.242 0 011.922-.902c.734-.235 1.613-.352 2.636-.352 1.125 0 2.09.203 2.895.609.812.407 1.437.961 1.875 1.665.437.695.656 1.484.656 2.367 0 .945-.187 1.808-.562 2.59-.375.781-.922 1.554-1.641 2.32a47.406 47.406 0 01-2.578 2.543l-2.203 2.074v.164h7.465V622zm10.464 0l-4.125-13.441h-.106l.071 1.453c.039.64.074 1.324.105 2.05.031.727.047 1.383.047 1.969V622h-3.246v-17.133h4.945l4.055 13.102h.07l4.301-13.102h4.945V622h-3.387v-8.109c0-.539.008-1.161.024-1.864.023-.703.051-1.371.082-2.004l.07-1.441h-.105L527.73 622h-3.328zM323.914 378h-3.621v-9.914a60.213 60.213 0 01.047-2.25c.015-.43.031-.816.047-1.16a8.085 8.085 0 01-.528.527c-.257.242-.5.461-.726.656l-1.969 1.582-1.746-2.179 5.52-4.395h2.976V378zm5.449-1.676c0-.734.199-1.25.597-1.547.407-.297.895-.445 1.465-.445.555 0 1.031.148 1.43.445.406.297.609.813.609 1.547 0 .703-.203 1.211-.609 1.524-.399.312-.875.468-1.43.468-.57 0-1.058-.156-1.465-.468-.398-.313-.597-.821-.597-1.524zM345.006 378h-3.621v-9.914a78.6 78.6 0 01.047-2.25c.016-.43.032-.816.047-1.16a8.257 8.257 0 01-.527.527c-.258.242-.5.461-.727.656l-1.969 1.582-1.746-2.179 5.52-4.395h2.976V378zm11.273-10.945c1.047 0 1.977.199 2.789.597a4.53 4.53 0 011.934 1.758c.469.774.703 1.727.703 2.86 0 1.234-.258 2.3-.773 3.199-.508.89-1.27 1.574-2.286 2.051-1.007.476-2.265.714-3.773.714a13.23 13.23 0 01-2.543-.234c-.789-.148-1.48-.379-2.074-.691v-3.129c.594.312 1.304.578 2.133.797a9.644 9.644 0 002.355.316c.719 0 1.324-.094 1.816-.281.493-.196.864-.492 1.114-.891.258-.406.386-.922.386-1.547 0-.836-.281-1.476-.843-1.922-.563-.445-1.426-.668-2.59-.668-.445 0-.91.043-1.395.129-.476.086-.875.172-1.195.258l-1.441-.773.644-8.731h9.293v3.071h-6.117l-.316 3.363c.265-.055.554-.11.867-.164.312-.055.75-.082 1.312-.082zM372.486 378l-4.125-13.441h-.106l.07 1.453c.04.64.075 1.324.106 2.05.031.727.047 1.383.047 1.969V378h-3.246v-17.133h4.945l4.055 13.102h.07l4.301-13.102h4.945V378h-3.387v-8.109c0-.539.008-1.161.024-1.864.023-.703.051-1.371.082-2.004l.07-1.441h-.105L375.814 378h-3.328z" fill="#252A2E"/><path d="M284.602 419.934c2.953 0 5.671.457 8.156 1.371 2.508.914 4.512 2.297 6.012 4.148 1.5 1.828 2.25 4.125 2.25 6.891 0 2.062-.411 3.867-1.231 5.414-.797 1.547-1.887 2.906-3.269 4.078-1.383 1.148-2.954 2.156-4.711 3.023a34.083 34.083 0 015.203 3.375 16.145 16.145 0 014.008 4.465c1.054 1.711 1.582 3.703 1.582 5.977 0 2.859-.762 5.344-2.286 7.453-1.523 2.086-3.632 3.703-6.328 4.851-2.695 1.149-5.824 1.723-9.386 1.723-3.844 0-7.114-.551-9.809-1.652-2.695-1.102-4.746-2.672-6.152-4.711-1.407-2.063-2.11-4.524-2.11-7.383 0-2.344.434-4.383 1.301-6.117a14.099 14.099 0 013.586-4.465 24.337 24.337 0 014.957-3.234 26.066 26.066 0 01-4.184-3.27 14.688 14.688 0 01-2.988-4.183c-.726-1.571-1.09-3.376-1.09-5.415 0-2.718.762-4.992 2.285-6.82 1.547-1.828 3.575-3.199 6.082-4.113 2.508-.938 5.215-1.406 8.122-1.406zm-8.016 38.39c0 1.852.656 3.387 1.969 4.606 1.336 1.195 3.304 1.793 5.906 1.793 2.695 0 4.711-.575 6.047-1.723 1.336-1.172 2.004-2.707 2.004-4.605 0-1.313-.387-2.461-1.16-3.446-.75-.984-1.7-1.863-2.848-2.637a51.095 51.095 0 00-3.481-2.214l-.949-.493c-1.5.68-2.812 1.442-3.937 2.286-1.102.843-1.969 1.793-2.602 2.847-.633 1.055-.949 2.25-.949 3.586zm7.945-30.445c-1.781 0-3.258.457-4.429 1.371-1.172.914-1.758 2.203-1.758 3.867 0 1.172.281 2.203.844 3.094.585.867 1.347 1.629 2.285 2.285a26.73 26.73 0 003.129 1.828 23.56 23.56 0 003.023-1.722 8.165 8.165 0 002.285-2.286c.586-.89.879-1.957.879-3.199 0-1.664-.598-2.953-1.793-3.867-1.172-.914-2.66-1.371-4.465-1.371zm60.045 14.66c0 2.953-.223 5.883-.668 8.789-.422 2.906-1.172 5.649-2.25 8.227a21.836 21.836 0 01-4.535 6.82c-1.945 1.969-4.418 3.516-7.418 4.641s-6.633 1.687-10.898 1.687c-1.008 0-2.192-.047-3.551-.141-1.36-.07-2.485-.187-3.375-.351v-8.719c.937.235 1.933.422 2.988.563 1.055.117 2.121.175 3.199.175 4.289 0 7.594-.679 9.914-2.039 2.344-1.359 3.985-3.246 4.922-5.66.961-2.414 1.512-5.203 1.653-8.367h-.422a15.345 15.345 0 01-2.426 3.059c-.914.89-2.086 1.605-3.516 2.144-1.429.516-3.246.774-5.449.774-2.93 0-5.484-.633-7.664-1.899-2.156-1.289-3.832-3.14-5.027-5.554-1.172-2.438-1.758-5.379-1.758-8.825 0-3.726.703-6.914 2.109-9.562 1.43-2.672 3.457-4.723 6.082-6.153 2.625-1.429 5.719-2.144 9.282-2.144 2.625 0 5.074.457 7.347 1.371 2.274.891 4.266 2.262 5.977 4.113 1.734 1.852 3.082 4.196 4.043 7.032.961 2.835 1.441 6.175 1.441 10.019zm-18.598-13.816c-2.109 0-3.832.726-5.168 2.179-1.335 1.453-2.003 3.727-2.003 6.821 0 2.484.574 4.453 1.722 5.906 1.149 1.453 2.895 2.18 5.239 2.18 1.617 0 3.023-.352 4.218-1.055 1.196-.727 2.121-1.629 2.778-2.707.679-1.102 1.019-2.227 1.019-3.375a13.12 13.12 0 00-.492-3.551 10.76 10.76 0 00-1.477-3.199 7.742 7.742 0 00-2.461-2.32c-.96-.586-2.085-.879-3.375-.879zM355.93 472l19.3-42.258h-25.347v-9.14h36.879v6.82L367.32 472h-11.39zm81.806 0h-12.375l-13.465-21.656-4.605 3.304V472h-10.899v-51.398h10.899v23.519a251.81 251.81 0 002.144-3.023 244.24 244.24 0 012.145-3.024l13.922-17.472h12.094l-17.93 22.746L437.736 472z" fill="#A4D069"/><path d="M325.688 99h-4.844V80.187h-6.203v-4.03h17.25v4.03h-6.203V99zm9.423-21.984c0-1.553.865-2.329 2.594-2.329 1.729 0 2.594.776 2.594 2.329 0 .74-.219 1.317-.657 1.734-.427.406-1.073.61-1.937.61-1.729 0-2.594-.782-2.594-2.344zM340.08 99h-4.766V81.531h4.766V99zm12.658-3.484c.833 0 1.833-.183 3-.547v3.547c-1.188.53-2.646.796-4.375.796-1.906 0-3.297-.479-4.172-1.437-.865-.969-1.297-2.417-1.297-4.344V85.11h-2.281v-2.015l2.625-1.594 1.375-3.688h3.047v3.72h4.89v3.577h-4.89v8.422c0 .677.187 1.177.562 1.5.386.323.891.485 1.516.485zM364.333 99h-4.765V74.687h4.765V99zm12.533-14.406c-1.01 0-1.802.323-2.375.969-.573.635-.901 1.541-.984 2.718h6.687c-.02-1.177-.328-2.083-.921-2.719-.594-.645-1.396-.968-2.407-.968zm.672 14.719c-2.812 0-5.01-.776-6.594-2.329-1.583-1.552-2.375-3.75-2.375-6.593 0-2.928.73-5.188 2.188-6.782 1.469-1.604 3.495-2.406 6.078-2.406 2.469 0 4.391.703 5.766 2.11 1.375 1.406 2.062 3.349 2.062 5.828v2.312h-11.265c.052 1.354.453 2.412 1.203 3.172.75.76 1.802 1.14 3.156 1.14a13.1 13.1 0 002.984-.328c.938-.218 1.917-.567 2.938-1.046v3.687c-.833.417-1.724.724-2.672.922-.948.208-2.104.313-3.469.313z" fill="#252A2E"/></svg>