<svg width="452" height="409" viewBox="0 0 452 409" fill="none" xmlns="http://www.w3.org/2000/svg">
<path d="M26.9219 52H23.1562V32.3438H16.4688V29.1562H33.5938V32.3438H26.9219V52ZM51.8874 34.7031V52H48.9968L48.4968 49.6719H48.2937C47.9291 50.2656 47.4656 50.7604 46.9031 51.1562C46.3406 51.5417 45.7156 51.8281 45.0281 52.0156C44.3406 52.2135 43.6166 52.3125 42.8562 52.3125C41.5541 52.3125 40.4395 52.0938 39.5124 51.6562C38.5958 51.2083 37.8926 50.5208 37.4031 49.5938C36.9135 48.6667 36.6687 47.4688 36.6687 46V34.7031H40.3562V45.3125C40.3562 46.6562 40.627 47.6615 41.1687 48.3281C41.7208 48.9948 42.5749 49.3281 43.7312 49.3281C44.8458 49.3281 45.7312 49.099 46.3874 48.6406C47.0437 48.1823 47.5072 47.5052 47.7781 46.6094C48.0593 45.7135 48.1999 44.6146 48.1999 43.3125V34.7031H51.8874ZM63.6811 49.3438C64.1603 49.3438 64.6342 49.3021 65.103 49.2188C65.5717 49.125 65.9988 49.0156 66.3842 48.8906V51.6719C65.978 51.849 65.452 52 64.8061 52.125C64.1603 52.25 63.4884 52.3125 62.7905 52.3125C61.8113 52.3125 60.9311 52.151 60.1499 51.8281C59.3686 51.4948 58.7488 50.9271 58.2905 50.125C57.8322 49.3229 57.603 48.2135 57.603 46.7969V37.5H55.2436V35.8594L57.7749 34.5625L58.978 30.8594H61.2905V34.7031H66.2436V37.5H61.2905V46.75C61.2905 47.625 61.5092 48.276 61.9467 48.7031C62.3842 49.1302 62.9624 49.3438 63.6811 49.3438ZM85.3029 43.3125C85.3029 44.75 85.1154 46.026 84.7404 47.1406C84.3654 48.2552 83.8186 49.1979 83.0998 49.9688C82.3811 50.7292 81.5165 51.3125 80.5061 51.7188C79.4956 52.1146 78.355 52.3125 77.0842 52.3125C75.8967 52.3125 74.8081 52.1146 73.8186 51.7188C72.829 51.3125 71.9696 50.7292 71.2404 49.9688C70.5217 49.1979 69.9644 48.2552 69.5686 47.1406C69.1727 46.026 68.9748 44.75 68.9748 43.3125C68.9748 41.4062 69.3029 39.7917 69.9592 38.4688C70.6258 37.1354 71.5738 36.1198 72.8029 35.4219C74.0321 34.724 75.4956 34.375 77.1936 34.375C78.7873 34.375 80.1936 34.724 81.4123 35.4219C82.6311 36.1198 83.5842 37.1354 84.2717 38.4688C84.9592 39.8021 85.3029 41.4167 85.3029 43.3125ZM72.7561 43.3125C72.7561 44.5729 72.9071 45.651 73.2092 46.5469C73.5217 47.4427 74.0008 48.1302 74.6467 48.6094C75.2925 49.0781 76.1258 49.3125 77.1467 49.3125C78.1675 49.3125 79.0008 49.0781 79.6467 48.6094C80.2925 48.1302 80.7665 47.4427 81.0686 46.5469C81.3706 45.651 81.5217 44.5729 81.5217 43.3125C81.5217 42.0521 81.3706 40.9844 81.0686 40.1094C80.7665 39.224 80.2925 38.5521 79.6467 38.0938C79.0008 37.625 78.1623 37.3906 77.1311 37.3906C75.6102 37.3906 74.5008 37.901 73.8029 38.9219C73.105 39.9427 72.7561 41.4062 72.7561 43.3125ZM98.3779 34.375C98.6695 34.375 98.9872 34.3906 99.331 34.4219C99.6747 34.4531 99.9716 34.4948 100.222 34.5469L99.8779 37.9844C99.6591 37.9219 99.3883 37.875 99.0654 37.8438C98.7529 37.8125 98.4716 37.7969 98.2216 37.7969C97.5654 37.7969 96.9404 37.9062 96.3466 38.125C95.7529 38.3333 95.2268 38.6562 94.7685 39.0938C94.3102 39.5208 93.9508 40.0573 93.6904 40.7031C93.43 41.349 93.2997 42.099 93.2997 42.9531V52H89.6122V34.7031H92.4872L92.9872 37.75H93.1591C93.5029 37.1354 93.93 36.5729 94.4404 36.0625C94.9508 35.5521 95.5341 35.1458 96.1904 34.8438C96.857 34.5312 97.5862 34.375 98.3779 34.375ZM107.187 34.7031V52H103.515V34.7031H107.187ZM105.375 28.0781C105.937 28.0781 106.422 28.2292 106.828 28.5312C107.244 28.8333 107.453 29.3542 107.453 30.0938C107.453 30.8229 107.244 31.3438 106.828 31.6562C106.422 31.9583 105.937 32.1094 105.375 32.1094C104.791 32.1094 104.297 31.9583 103.89 31.6562C103.494 31.3438 103.297 30.8229 103.297 30.0938C103.297 29.3542 103.494 28.8333 103.89 28.5312C104.297 28.2292 104.791 28.0781 105.375 28.0781ZM119.325 34.375C121.512 34.375 123.163 34.8594 124.278 35.8281C125.403 36.7969 125.965 38.3073 125.965 40.3594V52H123.356L122.653 49.5469H122.528C122.038 50.1719 121.533 50.6875 121.012 51.0938C120.491 51.5 119.887 51.8021 119.2 52C118.523 52.2083 117.694 52.3125 116.715 52.3125C115.684 52.3125 114.762 52.125 113.95 51.75C113.137 51.3646 112.496 50.7812 112.028 50C111.559 49.2188 111.325 48.2292 111.325 47.0312C111.325 45.25 111.986 43.9115 113.309 43.0156C114.642 42.1198 116.653 41.625 119.34 41.5312L122.34 41.4219V40.5156C122.34 39.3177 122.059 38.4635 121.496 37.9531C120.944 37.4427 120.163 37.1875 119.153 37.1875C118.288 37.1875 117.45 37.3125 116.637 37.5625C115.825 37.8125 115.033 38.1198 114.262 38.4844L113.075 35.8906C113.918 35.4427 114.877 35.0781 115.95 34.7969C117.033 34.5156 118.158 34.375 119.325 34.375ZM122.325 43.7344L120.09 43.8125C118.257 43.875 116.97 44.1875 116.231 44.75C115.491 45.3125 115.121 46.0833 115.121 47.0625C115.121 47.9167 115.377 48.5417 115.887 48.9375C116.398 49.3229 117.069 49.5156 117.903 49.5156C119.174 49.5156 120.226 49.1562 121.059 48.4375C121.903 47.7083 122.325 46.6406 122.325 45.2344V43.7344ZM134.884 52H131.196V27.6875H134.884V52Z" fill="#252A2E"/>
<path d="M18.3555 234V216.867H20.3477V232.195H27.9062V234H18.3555ZM36.077 234.234C34.1786 234.234 32.6786 233.656 31.577 232.5C30.4833 231.344 29.9364 229.738 29.9364 227.684C29.9364 225.613 30.4442 223.969 31.4598 222.75C32.4833 221.531 33.8544 220.922 35.5731 220.922C37.1825 220.922 38.4559 221.453 39.3934 222.516C40.3309 223.57 40.7997 224.965 40.7997 226.699V227.93H31.952C31.9911 229.438 32.37 230.582 33.0887 231.363C33.8153 232.145 34.8348 232.535 36.1473 232.535C37.5302 232.535 38.8973 232.246 40.2489 231.668V233.402C39.5614 233.699 38.9091 233.91 38.2919 234.035C37.6825 234.168 36.9442 234.234 36.077 234.234ZM35.5497 222.551C34.5184 222.551 33.6942 222.887 33.077 223.559C32.4677 224.23 32.1083 225.16 31.9989 226.348H38.7137C38.7137 225.121 38.4403 224.184 37.8934 223.535C37.3466 222.879 36.5653 222.551 35.5497 222.551ZM53.0369 234V225.691C53.0369 224.645 52.7986 223.863 52.322 223.348C51.8455 222.832 51.0994 222.574 50.0837 222.574C48.74 222.574 47.7556 222.938 47.1306 223.664C46.5056 224.391 46.1931 225.59 46.1931 227.262V234H44.2478V221.156H45.8298L46.1462 222.914H46.24C46.6384 222.281 47.197 221.793 47.9158 221.449C48.6345 221.098 49.4353 220.922 50.3181 220.922C51.865 220.922 53.0291 221.297 53.8103 222.047C54.5916 222.789 54.9822 223.98 54.9822 225.621V234H53.0369ZM69.6217 221.156V222.387L67.2428 222.668C67.4616 222.941 67.6569 223.301 67.8288 223.746C68.0006 224.184 68.0866 224.68 68.0866 225.234C68.0866 226.492 67.6569 227.496 66.7975 228.246C65.9381 228.996 64.7584 229.371 63.2584 229.371C62.8756 229.371 62.5163 229.34 62.1803 229.277C61.3522 229.715 60.9381 230.266 60.9381 230.93C60.9381 231.281 61.0827 231.543 61.3717 231.715C61.6608 231.879 62.1569 231.961 62.86 231.961H65.1334C66.5241 231.961 67.5905 232.254 68.3327 232.84C69.0827 233.426 69.4577 234.277 69.4577 235.395C69.4577 236.816 68.8873 237.898 67.7467 238.641C66.6061 239.391 64.942 239.766 62.7545 239.766C61.0748 239.766 59.778 239.453 58.8639 238.828C57.9577 238.203 57.5045 237.32 57.5045 236.18C57.5045 235.398 57.7545 234.723 58.2545 234.152C58.7545 233.582 59.4577 233.195 60.3639 232.992C60.0358 232.844 59.7584 232.613 59.5319 232.301C59.3131 231.988 59.2038 231.625 59.2038 231.211C59.2038 230.742 59.3288 230.332 59.5788 229.98C59.8288 229.629 60.2233 229.289 60.7623 228.961C60.0983 228.688 59.5553 228.223 59.1334 227.566C58.7194 226.91 58.5123 226.16 58.5123 225.316C58.5123 223.91 58.9342 222.828 59.778 222.07C60.6217 221.305 61.817 220.922 63.3639 220.922C64.0358 220.922 64.6413 221 65.1803 221.156H69.6217ZM59.3795 236.156C59.3795 236.852 59.6725 237.379 60.2584 237.738C60.8444 238.098 61.6842 238.277 62.778 238.277C64.4108 238.277 65.6178 238.031 66.3991 237.539C67.1881 237.055 67.5827 236.395 67.5827 235.559C67.5827 234.863 67.3678 234.379 66.9381 234.105C66.5084 233.84 65.6998 233.707 64.5123 233.707H62.1803C61.2975 233.707 60.61 233.918 60.1178 234.34C59.6256 234.762 59.3795 235.367 59.3795 236.156ZM60.4342 225.27C60.4342 226.168 60.6881 226.848 61.1959 227.309C61.7038 227.77 62.4108 228 63.317 228C65.2155 228 66.1647 227.078 66.1647 225.234C66.1647 223.305 65.2038 222.34 63.2819 222.34C62.3678 222.34 61.6647 222.586 61.1725 223.078C60.6803 223.57 60.4342 224.301 60.4342 225.27ZM76.5269 232.629C76.8706 232.629 77.2027 232.605 77.523 232.559C77.8433 232.504 78.0972 232.449 78.2847 232.395V233.883C78.0737 233.984 77.7612 234.066 77.3472 234.129C76.9409 234.199 76.5737 234.234 76.2456 234.234C73.7612 234.234 72.5191 232.926 72.5191 230.309V222.668H70.6792V221.73L72.5191 220.922L73.3394 218.18H74.4644V221.156H78.1909V222.668H74.4644V230.227C74.4644 231 74.648 231.594 75.0152 232.008C75.3823 232.422 75.8862 232.629 76.5269 232.629ZM89.7719 234V225.691C89.7719 224.645 89.5336 223.863 89.057 223.348C88.5805 222.832 87.8344 222.574 86.8187 222.574C85.4672 222.574 84.4789 222.941 83.8539 223.676C83.2367 224.41 82.9281 225.613 82.9281 227.285V234H80.9828V215.766H82.9281V221.285C82.9281 221.949 82.8969 222.5 82.8344 222.938H82.9516C83.3344 222.32 83.8773 221.836 84.5805 221.484C85.2914 221.125 86.1 220.945 87.0062 220.945C88.5766 220.945 89.7523 221.32 90.5336 222.07C91.3227 222.812 91.7172 223.996 91.7172 225.621V234H89.7719Z" fill="#252A2E"/>
<line x1="16" y1="255.5" x2="436" y2="255.5" stroke="#252A2E"/>
<path d="M23.6562 282L22.4121 278.821H18.4062L17.1758 282H16L19.9512 271.965H20.9287L24.8594 282H23.6562ZM22.0498 277.775L20.8877 274.679C20.7373 274.287 20.5824 273.806 20.4229 273.236C20.3226 273.674 20.179 274.155 19.9922 274.679L18.8164 277.775H22.0498ZM33.1182 275.39H31.2109V282H30.0762V275.39H28.7363V274.877L30.0762 274.467V274.05C30.0762 272.209 30.8805 271.288 32.4893 271.288C32.8857 271.288 33.3506 271.368 33.8838 271.527L33.5899 272.437C33.1524 272.295 32.7787 272.225 32.4688 272.225C32.0404 272.225 31.7236 272.368 31.5186 272.655C31.3135 272.938 31.2109 273.394 31.2109 274.022V274.508H33.1182V275.39ZM37.6714 282.137C36.564 282.137 35.689 281.799 35.0464 281.125C34.4084 280.451 34.0894 279.514 34.0894 278.315C34.0894 277.108 34.3856 276.148 34.978 275.438C35.575 274.727 36.3748 274.371 37.3775 274.371C38.3163 274.371 39.0591 274.681 39.606 275.301C40.1528 275.916 40.4263 276.729 40.4263 277.741V278.459H35.2651C35.2879 279.339 35.509 280.006 35.9282 280.462C36.3521 280.918 36.9468 281.146 37.7124 281.146C38.5191 281.146 39.3166 280.977 40.105 280.64V281.651C39.704 281.825 39.3234 281.948 38.9634 282.021C38.6079 282.098 38.1773 282.137 37.6714 282.137ZM37.3638 275.321C36.7622 275.321 36.2814 275.517 35.9214 275.909C35.5659 276.301 35.3563 276.843 35.2925 277.536H39.2095C39.2095 276.821 39.05 276.274 38.731 275.896C38.412 275.513 37.9562 275.321 37.3638 275.321ZM48.5069 282L47.1328 277.604C47.0462 277.336 46.8845 276.725 46.6475 275.772H46.5928C46.4105 276.57 46.251 277.185 46.1143 277.618L44.6992 282H43.3867L41.3428 274.508H42.5322C43.0153 276.39 43.3822 277.823 43.6328 278.808C43.888 279.792 44.0339 280.455 44.0703 280.797H44.125C44.1751 280.537 44.2549 280.202 44.3643 279.792C44.4782 279.377 44.5762 279.049 44.6582 278.808L46.0322 274.508H47.2627L48.6026 278.808C48.8578 279.591 49.0309 280.25 49.1221 280.783H49.1768C49.195 280.619 49.2429 280.366 49.3203 280.024C49.4024 279.683 49.8786 277.844 50.749 274.508H51.9248L49.8535 282H48.5069ZM66.5137 282V277.126C66.5137 276.529 66.3861 276.082 66.1309 275.786C65.8757 275.485 65.4792 275.335 64.9414 275.335C64.235 275.335 63.7132 275.538 63.376 275.943C63.0388 276.349 62.8701 276.973 62.8701 277.816V282H61.7354V277.126C61.7354 276.529 61.6078 276.082 61.3526 275.786C61.0974 275.485 60.6986 275.335 60.1563 275.335C59.4453 275.335 58.9235 275.549 58.5908 275.978C58.2627 276.401 58.0987 277.099 58.0987 278.069V282H56.9639V274.508H57.8867L58.0713 275.533H58.126C58.3402 275.169 58.641 274.884 59.0283 274.679C59.4203 274.474 59.8578 274.371 60.3408 274.371C61.5121 274.371 62.2777 274.795 62.6377 275.643H62.6924C62.9157 275.251 63.2393 274.941 63.6631 274.713C64.0869 274.485 64.57 274.371 65.1123 274.371C65.96 274.371 66.5934 274.59 67.0127 275.027C67.4365 275.46 67.6485 276.155 67.6485 277.112V282H66.5137ZM71.149 282H70.0142V274.508H71.149V282ZM69.9185 272.478C69.9185 272.218 69.9823 272.029 70.1099 271.91C70.2375 271.787 70.397 271.726 70.5884 271.726C70.7707 271.726 70.9279 271.787 71.0601 271.91C71.1922 272.033 71.2583 272.222 71.2583 272.478C71.2583 272.733 71.1922 272.924 71.0601 273.052C70.9279 273.175 70.7707 273.236 70.5884 273.236C70.397 273.236 70.2375 273.175 70.1099 273.052C69.9823 272.924 69.9185 272.733 69.9185 272.478ZM78.7032 282V277.153C78.7032 276.543 78.5642 276.087 78.2862 275.786C78.0082 275.485 77.5729 275.335 76.9805 275.335C76.1966 275.335 75.6224 275.547 75.2578 275.971C74.8933 276.395 74.711 277.094 74.711 278.069V282H73.5762V274.508H74.4991L74.6836 275.533H74.7383C74.9707 275.164 75.2966 274.879 75.7159 274.679C76.1351 274.474 76.6022 274.371 77.1172 274.371C78.0196 274.371 78.6986 274.59 79.1543 275.027C79.6101 275.46 79.8379 276.155 79.8379 277.112V282H78.7032ZM83.2632 274.508V279.368C83.2632 279.979 83.4022 280.435 83.6802 280.735C83.9582 281.036 84.3934 281.187 84.9859 281.187C85.7697 281.187 86.3417 280.972 86.7017 280.544C87.0663 280.116 87.2486 279.416 87.2486 278.445V274.508H88.3833V282H87.4468L87.2828 280.995H87.2212C86.9888 281.364 86.6652 281.647 86.2505 281.843C85.8404 282.039 85.371 282.137 84.8423 282.137C83.9309 282.137 83.2473 281.92 82.7915 281.487C82.3404 281.054 82.1148 280.362 82.1148 279.409V274.508H83.2632ZM93.2373 281.2C93.4379 281.2 93.6315 281.187 93.8184 281.159C94.0052 281.127 94.1534 281.095 94.2627 281.063V281.932C94.1397 281.991 93.9574 282.039 93.7159 282.075C93.4789 282.116 93.2647 282.137 93.0733 282.137C91.6241 282.137 90.8995 281.373 90.8995 279.847V275.39H89.8262V274.843L90.8995 274.371L91.378 272.771H92.0342V274.508H94.208V275.39H92.0342V279.799C92.0342 280.25 92.1413 280.596 92.3555 280.838C92.5697 281.079 92.8636 281.2 93.2373 281.2ZM98.9527 282.137C97.8453 282.137 96.9703 281.799 96.3277 281.125C95.6897 280.451 95.3707 279.514 95.3707 278.315C95.3707 277.108 95.6669 276.148 96.2593 275.438C96.8563 274.727 97.6561 274.371 98.6587 274.371C99.5975 274.371 100.34 274.681 100.887 275.301C101.434 275.916 101.708 276.729 101.708 277.741V278.459H96.5464C96.5692 279.339 96.7902 280.006 97.2095 280.462C97.6333 280.918 98.2281 281.146 98.9937 281.146C99.8003 281.146 100.598 280.977 101.386 280.64V281.651C100.985 281.825 100.605 281.948 100.245 282.021C99.8892 282.098 99.4585 282.137 98.9527 282.137ZM98.6451 275.321C98.0435 275.321 97.5627 275.517 97.2027 275.909C96.8472 276.301 96.6376 276.843 96.5738 277.536H100.491C100.491 276.821 100.331 276.274 100.012 275.896C99.6932 275.513 99.2375 275.321 98.6451 275.321ZM108.503 279.956C108.503 280.653 108.243 281.191 107.724 281.569C107.204 281.948 106.475 282.137 105.536 282.137C104.543 282.137 103.768 281.979 103.212 281.665V280.612C103.572 280.795 103.957 280.938 104.367 281.043C104.782 281.148 105.181 281.2 105.564 281.2C106.156 281.2 106.612 281.107 106.931 280.92C107.25 280.729 107.409 280.439 107.409 280.052C107.409 279.76 107.282 279.512 107.026 279.307C106.776 279.097 106.284 278.851 105.55 278.568C104.853 278.309 104.356 278.083 104.06 277.892C103.768 277.696 103.549 277.475 103.403 277.229C103.262 276.982 103.191 276.688 103.191 276.347C103.191 275.736 103.44 275.255 103.937 274.904C104.433 274.549 105.115 274.371 105.981 274.371C106.787 274.371 107.576 274.535 108.346 274.863L107.942 275.786C107.19 275.476 106.509 275.321 105.898 275.321C105.361 275.321 104.955 275.406 104.682 275.574C104.408 275.743 104.272 275.975 104.272 276.271C104.272 276.472 104.322 276.643 104.422 276.784C104.527 276.925 104.693 277.06 104.921 277.188C105.149 277.315 105.586 277.5 106.233 277.741C107.122 278.065 107.721 278.391 108.031 278.719C108.346 279.047 108.503 279.459 108.503 279.956Z" fill="#252A2E"/>
<path d="M373.713 282L372.469 278.821H368.463L367.233 282H366.057L370.008 271.965H370.986L374.916 282H373.713ZM372.107 277.775L370.945 274.679C370.794 274.287 370.639 273.806 370.48 273.236C370.38 273.674 370.236 274.155 370.049 274.679L368.873 277.775H372.107ZM383.175 275.39H381.268V282H380.133V275.39H378.793V274.877L380.133 274.467V274.05C380.133 272.209 380.938 271.288 382.546 271.288C382.943 271.288 383.408 271.368 383.941 271.527L383.647 272.437C383.209 272.295 382.836 272.225 382.526 272.225C382.097 272.225 381.781 272.368 381.576 272.655C381.371 272.938 381.268 273.394 381.268 274.022V274.508H383.175V275.39ZM387.728 282.137C386.621 282.137 385.746 281.799 385.103 281.125C384.465 280.451 384.146 279.514 384.146 278.315C384.146 277.108 384.443 276.148 385.035 275.438C385.632 274.727 386.432 274.371 387.435 274.371C388.373 274.371 389.116 274.681 389.663 275.301C390.21 275.916 390.483 276.729 390.483 277.741V278.459H385.322C385.345 279.339 385.566 280.006 385.985 280.462C386.409 280.918 387.004 281.146 387.77 281.146C388.576 281.146 389.374 280.977 390.162 280.64V281.651C389.761 281.825 389.381 281.948 389.02 282.021C388.665 282.098 388.234 282.137 387.728 282.137ZM387.421 275.321C386.819 275.321 386.339 275.517 385.978 275.909C385.623 276.301 385.413 276.843 385.35 277.536H389.267C389.267 276.821 389.107 276.274 388.788 275.896C388.469 275.513 388.013 275.321 387.421 275.321ZM398.564 282L397.19 277.604C397.103 277.336 396.942 276.725 396.705 275.772H396.65C396.468 276.57 396.308 277.185 396.171 277.618L394.756 282H393.444L391.4 274.508H392.589C393.072 276.39 393.439 277.823 393.69 278.808C393.945 279.792 394.091 280.455 394.127 280.797H394.182C394.232 280.537 394.312 280.202 394.421 279.792C394.535 279.377 394.633 279.049 394.715 278.808L396.089 274.508H397.32L398.66 278.808C398.915 279.591 399.088 280.25 399.179 280.783H399.234C399.252 280.619 399.3 280.366 399.377 280.024C399.459 279.683 399.936 277.844 400.806 274.508H401.982L399.911 282H398.564ZM412.121 280.995H412.059C411.535 281.756 410.751 282.137 409.708 282.137C408.728 282.137 407.964 281.802 407.417 281.132C406.875 280.462 406.604 279.509 406.604 278.274C406.604 277.039 406.877 276.08 407.424 275.396C407.971 274.713 408.732 274.371 409.708 274.371C410.724 274.371 411.503 274.74 412.045 275.479H412.134L412.086 274.938L412.059 274.412V271.363H413.194V282H412.271L412.121 280.995ZM409.851 281.187C410.626 281.187 411.186 280.977 411.533 280.558C411.884 280.134 412.059 279.452 412.059 278.514V278.274C412.059 277.213 411.881 276.456 411.526 276.005C411.175 275.549 410.612 275.321 409.837 275.321C409.172 275.321 408.662 275.581 408.306 276.101C407.955 276.616 407.78 277.345 407.78 278.288C407.78 279.245 407.955 279.967 408.306 280.455C408.657 280.943 409.172 281.187 409.851 281.187ZM420.235 282L420.01 280.934H419.955C419.581 281.403 419.208 281.722 418.834 281.891C418.465 282.055 418.002 282.137 417.446 282.137C416.703 282.137 416.12 281.945 415.696 281.562C415.277 281.18 415.067 280.635 415.067 279.929C415.067 278.416 416.277 277.623 418.697 277.55L419.969 277.509V277.044C419.969 276.456 419.841 276.023 419.586 275.745C419.335 275.463 418.932 275.321 418.376 275.321C417.752 275.321 417.045 275.513 416.257 275.896L415.908 275.027C416.277 274.827 416.681 274.67 417.118 274.556C417.56 274.442 418.002 274.385 418.444 274.385C419.338 274.385 419.998 274.583 420.427 274.979C420.86 275.376 421.076 276.012 421.076 276.887V282H420.235ZM417.672 281.2C418.378 281.2 418.932 281.007 419.333 280.619C419.739 280.232 419.941 279.689 419.941 278.992V278.315L418.807 278.363C417.904 278.395 417.253 278.536 416.852 278.787C416.455 279.033 416.257 279.418 416.257 279.942C416.257 280.353 416.38 280.665 416.626 280.879C416.877 281.093 417.225 281.2 417.672 281.2ZM422.252 274.508H423.469L425.11 278.78C425.47 279.756 425.693 280.46 425.78 280.893H425.834C425.894 280.66 426.017 280.264 426.204 279.703C426.395 279.138 427.015 277.406 428.063 274.508H429.28L426.06 283.039C425.741 283.882 425.367 284.479 424.939 284.83C424.515 285.186 423.993 285.363 423.374 285.363C423.027 285.363 422.685 285.325 422.348 285.247V284.338C422.599 284.393 422.879 284.42 423.189 284.42C423.968 284.42 424.524 283.982 424.857 283.107L425.274 282.041L422.252 274.508ZM435.351 279.956C435.351 280.653 435.091 281.191 434.571 281.569C434.052 281.948 433.323 282.137 432.384 282.137C431.39 282.137 430.616 281.979 430.06 281.665V280.612C430.42 280.795 430.805 280.938 431.215 281.043C431.63 281.148 432.028 281.2 432.411 281.2C433.004 281.2 433.459 281.107 433.778 280.92C434.097 280.729 434.257 280.439 434.257 280.052C434.257 279.76 434.129 279.512 433.874 279.307C433.623 279.097 433.131 278.851 432.397 278.568C431.7 278.309 431.203 278.083 430.907 277.892C430.616 277.696 430.397 277.475 430.251 277.229C430.11 276.982 430.039 276.688 430.039 276.347C430.039 275.736 430.287 275.255 430.784 274.904C431.281 274.549 431.962 274.371 432.828 274.371C433.635 274.371 434.423 274.535 435.193 274.863L434.79 275.786C434.038 275.476 433.357 275.321 432.746 275.321C432.208 275.321 431.803 275.406 431.529 275.574C431.256 275.743 431.119 275.975 431.119 276.271C431.119 276.472 431.169 276.643 431.27 276.784C431.374 276.925 431.541 277.06 431.769 277.188C431.996 277.315 432.434 277.5 433.081 277.741C433.97 278.065 434.569 278.391 434.879 278.719C435.193 279.047 435.351 279.459 435.351 279.956Z" fill="#252A2E"/>
<circle cx="224" cy="256" r="12" fill="#FBAD26"/>
<path d="M28.0234 346.441C28.0234 347.949 27.4766 349.125 26.3828 349.969C25.2891 350.812 23.8047 351.234 21.9297 351.234C19.8984 351.234 18.3359 350.973 17.2422 350.449V348.527C17.9453 348.824 18.7109 349.059 19.5391 349.23C20.3672 349.402 21.1875 349.488 22 349.488C23.3281 349.488 24.3281 349.238 25 348.738C25.6719 348.23 26.0078 347.527 26.0078 346.629C26.0078 346.035 25.8867 345.551 25.6445 345.176C25.4102 344.793 25.0117 344.441 24.4492 344.121C23.8945 343.801 23.0469 343.438 21.9062 343.031C20.3125 342.461 19.1719 341.785 18.4844 341.004C17.8047 340.223 17.4648 339.203 17.4648 337.945C17.4648 336.625 17.9609 335.574 18.9531 334.793C19.9453 334.012 21.2578 333.621 22.8906 333.621C24.5938 333.621 26.1602 333.934 27.5898 334.559L26.9688 336.293C25.5547 335.699 24.1797 335.402 22.8438 335.402C21.7891 335.402 20.9648 335.629 20.3711 336.082C19.7773 336.535 19.4805 337.164 19.4805 337.969C19.4805 338.562 19.5898 339.051 19.8086 339.434C20.0273 339.809 20.3945 340.156 20.9102 340.477C21.4336 340.789 22.2305 341.137 23.3008 341.52C25.0977 342.16 26.332 342.848 27.0039 343.582C27.6836 344.316 28.0234 345.27 28.0234 346.441ZM36.4872 351.234C34.6278 351.234 33.1864 350.664 32.163 349.523C31.1473 348.375 30.6395 346.754 30.6395 344.66C30.6395 342.512 31.1552 340.852 32.1864 339.68C33.2255 338.508 34.702 337.922 36.6161 337.922C37.2333 337.922 37.8505 337.988 38.4677 338.121C39.0848 338.254 39.5692 338.41 39.9208 338.59L39.3231 340.242C38.8934 340.07 38.4247 339.93 37.9169 339.82C37.4091 339.703 36.9598 339.645 36.5692 339.645C33.9598 339.645 32.6552 341.309 32.6552 344.637C32.6552 346.215 32.9716 347.426 33.6044 348.27C34.245 349.113 35.1903 349.535 36.4403 349.535C37.5106 349.535 38.6083 349.305 39.7333 348.844V350.566C38.8739 351.012 37.7919 351.234 36.4872 351.234ZM53.9978 344.566C53.9978 346.66 53.4705 348.297 52.4158 349.477C51.3611 350.648 49.9041 351.234 48.0447 351.234C46.8962 351.234 45.8767 350.965 44.9861 350.426C44.0955 349.887 43.408 349.113 42.9236 348.105C42.4392 347.098 42.197 345.918 42.197 344.566C42.197 342.473 42.7205 340.844 43.7673 339.68C44.8142 338.508 46.2673 337.922 48.1267 337.922C49.9236 337.922 51.3494 338.52 52.4041 339.715C53.4666 340.91 53.9978 342.527 53.9978 344.566ZM44.2127 344.566C44.2127 346.207 44.5408 347.457 45.197 348.316C45.8533 349.176 46.8181 349.605 48.0916 349.605C49.365 349.605 50.3298 349.18 50.9861 348.328C51.6502 347.469 51.9822 346.215 51.9822 344.566C51.9822 342.934 51.6502 341.695 50.9861 340.852C50.3298 340 49.3572 339.574 48.0681 339.574C46.7947 339.574 45.8337 339.992 45.1853 340.828C44.5369 341.664 44.2127 342.91 44.2127 344.566ZM63.5163 351.234C62.6803 351.234 61.9147 351.082 61.2194 350.777C60.5319 350.465 59.9538 349.988 59.485 349.348H59.3444C59.4381 350.098 59.485 350.809 59.485 351.48V356.766H57.5397V338.156H59.1217L59.3913 339.914H59.485C59.985 339.211 60.567 338.703 61.2311 338.391C61.8952 338.078 62.6569 337.922 63.5163 337.922C65.2194 337.922 66.5319 338.504 67.4538 339.668C68.3834 340.832 68.8483 342.465 68.8483 344.566C68.8483 346.676 68.3756 348.316 67.4303 349.488C66.4928 350.652 65.1881 351.234 63.5163 351.234ZM63.235 339.574C61.9225 339.574 60.9733 339.938 60.3873 340.664C59.8014 341.391 59.5006 342.547 59.485 344.133V344.566C59.485 346.371 59.7858 347.664 60.3873 348.445C60.9889 349.219 61.9538 349.605 63.2819 349.605C64.3913 349.605 65.2584 349.156 65.8834 348.258C66.5163 347.359 66.8327 346.121 66.8327 344.543C66.8327 342.941 66.5163 341.715 65.8834 340.863C65.2584 340.004 64.3756 339.574 63.235 339.574ZM77.8042 351.234C75.9058 351.234 74.4058 350.656 73.3042 349.5C72.2105 348.344 71.6636 346.738 71.6636 344.684C71.6636 342.613 72.1714 340.969 73.187 339.75C74.2105 338.531 75.5816 337.922 77.3003 337.922C78.9097 337.922 80.1831 338.453 81.1206 339.516C82.0581 340.57 82.5269 341.965 82.5269 343.699V344.93H73.6792C73.7183 346.438 74.0972 347.582 74.8159 348.363C75.5425 349.145 76.562 349.535 77.8745 349.535C79.2573 349.535 80.6245 349.246 81.9761 348.668V350.402C81.2886 350.699 80.6362 350.91 80.0191 351.035C79.4097 351.168 78.6714 351.234 77.8042 351.234ZM77.2769 339.551C76.2456 339.551 75.4214 339.887 74.8042 340.559C74.1948 341.23 73.8355 342.16 73.7261 343.348H80.4409C80.4409 342.121 80.1675 341.184 79.6206 340.535C79.0737 339.879 78.2925 339.551 77.2769 339.551Z" fill="#252A2E"/>
<line x1="16" y1="372.5" x2="436" y2="372.5" stroke="#252A2E"/>
<path d="M20.4502 399H19.2881V390.038H16.123V389.006H23.6152V390.038H20.4502V399ZM29.5835 399L29.3579 397.934H29.3032C28.9295 398.403 28.5558 398.722 28.1821 398.891C27.813 399.055 27.3504 399.137 26.7944 399.137C26.0516 399.137 25.4683 398.945 25.0444 398.562C24.6252 398.18 24.4155 397.635 24.4155 396.929C24.4155 395.416 25.6255 394.623 28.0454 394.55L29.3169 394.509V394.044C29.3169 393.456 29.1893 393.023 28.9341 392.745C28.6834 392.463 28.2801 392.321 27.7241 392.321C27.0998 392.321 26.3934 392.513 25.605 392.896L25.2564 392.027C25.6255 391.827 26.0288 391.67 26.4663 391.556C26.9084 391.442 27.3504 391.385 27.7925 391.385C28.6857 391.385 29.3465 391.583 29.7749 391.979C30.2078 392.376 30.4243 393.012 30.4243 393.887V399H29.5835ZM27.02 398.2C27.7264 398.2 28.2801 398.007 28.6812 397.619C29.0868 397.232 29.2896 396.689 29.2896 395.992V395.315L28.1548 395.363C27.2524 395.395 26.6008 395.536 26.1997 395.787C25.8032 396.033 25.605 396.418 25.605 396.942C25.605 397.353 25.728 397.665 25.9741 397.879C26.2248 398.093 26.5734 398.2 27.02 398.2ZM37.6231 396.956C37.6231 397.653 37.3633 398.191 36.8438 398.569C36.3242 398.948 35.5951 399.137 34.6563 399.137C33.6628 399.137 32.888 398.979 32.332 398.665V397.612C32.6921 397.795 33.0772 397.938 33.4873 398.043C33.902 398.148 34.3008 398.2 34.6836 398.2C35.276 398.2 35.7318 398.107 36.0508 397.92C36.3698 397.729 36.5293 397.439 36.5293 397.052C36.5293 396.76 36.4017 396.512 36.1465 396.307C35.8958 396.097 35.4037 395.851 34.6699 395.568C33.9727 395.309 33.4759 395.083 33.1797 394.892C32.888 394.696 32.6693 394.475 32.5234 394.229C32.3822 393.982 32.3115 393.688 32.3115 393.347C32.3115 392.736 32.5599 392.255 33.0566 391.904C33.5534 391.549 34.2347 391.371 35.1006 391.371C35.9072 391.371 36.6956 391.535 37.4658 391.863L37.0625 392.786C36.3106 392.476 35.6292 392.321 35.0186 392.321C34.4808 392.321 34.0752 392.406 33.8018 392.574C33.5283 392.743 33.3916 392.975 33.3916 393.271C33.3916 393.472 33.4417 393.643 33.542 393.784C33.6468 393.925 33.8132 394.06 34.041 394.188C34.2689 394.315 34.7064 394.5 35.3535 394.741C36.2422 395.065 36.8415 395.391 37.1514 395.719C37.4658 396.047 37.6231 396.459 37.6231 396.956ZM40.6177 395.165C40.8137 394.887 41.1122 394.522 41.5132 394.071L43.9331 391.508H45.2798L42.2446 394.7L45.4917 399H44.1177L41.4722 395.459L40.6177 396.197V399H39.4966V388.363H40.6177V394.003C40.6177 394.254 40.5995 394.641 40.563 395.165H40.6177ZM54.0171 391.385C55.0015 391.385 55.7648 391.722 56.3071 392.396C56.854 393.066 57.1275 394.017 57.1275 395.247C57.1275 396.478 56.8517 397.435 56.3003 398.118C55.7534 398.797 54.9924 399.137 54.0171 399.137C53.5295 399.137 53.0829 399.048 52.6773 398.87C52.2762 398.688 51.939 398.41 51.6655 398.036H51.5835L51.3443 399H50.5308V388.363H51.6655V390.947C51.6655 391.526 51.6473 392.046 51.6109 392.506H51.6655C52.1942 391.758 52.978 391.385 54.0171 391.385ZM53.853 392.335C53.0783 392.335 52.52 392.558 52.1782 393.005C51.8364 393.447 51.6655 394.194 51.6655 395.247C51.6655 396.3 51.841 397.054 52.1919 397.51C52.5428 397.961 53.1057 398.187 53.8804 398.187C54.5777 398.187 55.0972 397.934 55.439 397.428C55.7808 396.917 55.9517 396.186 55.9517 395.233C55.9517 394.258 55.7808 393.531 55.439 393.053C55.0972 392.574 54.5685 392.335 53.853 392.335ZM63.7451 399L63.5196 397.934H63.4649C63.0912 398.403 62.7175 398.722 62.3438 398.891C61.9746 399.055 61.5121 399.137 60.9561 399.137C60.2132 399.137 59.6299 398.945 59.2061 398.562C58.7868 398.18 58.5772 397.635 58.5772 396.929C58.5772 395.416 59.7871 394.623 62.2071 394.55L63.4785 394.509V394.044C63.4785 393.456 63.3509 393.023 63.0957 392.745C62.8451 392.463 62.4418 392.321 61.8858 392.321C61.2614 392.321 60.555 392.513 59.7666 392.896L59.418 392.027C59.7871 391.827 60.1905 391.67 60.628 391.556C61.07 391.442 61.5121 391.385 61.9541 391.385C62.8474 391.385 63.5082 391.583 63.9365 391.979C64.3695 392.376 64.586 393.012 64.586 393.887V399H63.7451ZM61.1817 398.2C61.888 398.2 62.4418 398.007 62.8428 397.619C63.2484 397.232 63.4512 396.689 63.4512 395.992V395.315L62.3164 395.363C61.4141 395.395 60.7624 395.536 60.3614 395.787C59.9649 396.033 59.7666 396.418 59.7666 396.942C59.7666 397.353 59.8897 397.665 60.1358 397.879C60.3864 398.093 60.735 398.2 61.1817 398.2ZM71.7847 396.956C71.7847 397.653 71.5249 398.191 71.0054 398.569C70.4859 398.948 69.7567 399.137 68.8179 399.137C67.8244 399.137 67.0497 398.979 66.4937 398.665V397.612C66.8537 397.795 67.2388 397.938 67.649 398.043C68.0637 398.148 68.4624 398.2 68.8452 398.2C69.4377 398.2 69.8934 398.107 70.2124 397.92C70.5314 397.729 70.6909 397.439 70.6909 397.052C70.6909 396.76 70.5633 396.512 70.3081 396.307C70.0575 396.097 69.5653 395.851 68.8316 395.568C68.1343 395.309 67.6376 395.083 67.3413 394.892C67.0497 394.696 66.8309 394.475 66.6851 394.229C66.5438 393.982 66.4732 393.688 66.4732 393.347C66.4732 392.736 66.7215 392.255 67.2183 391.904C67.715 391.549 68.3963 391.371 69.2622 391.371C70.0689 391.371 70.8573 391.535 71.6275 391.863L71.2241 392.786C70.4722 392.476 69.7909 392.321 69.1802 392.321C68.6424 392.321 68.2368 392.406 67.9634 392.574C67.69 392.743 67.5532 392.975 67.5532 393.271C67.5532 393.472 67.6034 393.643 67.7036 393.784C67.8085 393.925 67.9748 394.06 68.2027 394.188C68.4305 394.315 68.868 394.5 69.5152 394.741C70.4038 395.065 71.0031 395.391 71.313 395.719C71.6275 396.047 71.7847 396.459 71.7847 396.956ZM76.8233 399.137C75.7159 399.137 74.8409 398.799 74.1983 398.125C73.5603 397.451 73.2412 396.514 73.2412 395.315C73.2412 394.108 73.5375 393.148 74.1299 392.438C74.7269 391.727 75.5267 391.371 76.5293 391.371C77.4681 391.371 78.211 391.681 78.7578 392.301C79.3047 392.916 79.5782 393.729 79.5782 394.741V395.459H74.417C74.4398 396.339 74.6608 397.006 75.0801 397.462C75.5039 397.918 76.0987 398.146 76.8643 398.146C77.6709 398.146 78.4685 397.977 79.2569 397.64V398.651C78.8558 398.825 78.4753 398.948 78.1153 399.021C77.7598 399.098 77.3291 399.137 76.8233 399.137ZM76.5157 392.321C75.9141 392.321 75.4333 392.517 75.0733 392.909C74.7178 393.301 74.5082 393.843 74.4444 394.536H78.3614C78.3614 393.821 78.2019 393.274 77.8828 392.896C77.5638 392.513 77.1081 392.321 76.5157 392.321ZM86.6402 397.995H86.5787C86.0546 398.756 85.2707 399.137 84.2271 399.137C83.2473 399.137 82.4839 398.802 81.937 398.132C81.3947 397.462 81.1236 396.509 81.1236 395.274C81.1236 394.039 81.397 393.08 81.9439 392.396C82.4908 391.713 83.2518 391.371 84.2271 391.371C85.2434 391.371 86.0227 391.74 86.565 392.479H86.6538L86.606 391.938L86.5787 391.412V388.363H87.7134V399H86.7906L86.6402 397.995ZM84.3706 398.187C85.1454 398.187 85.7059 397.977 86.0523 397.558C86.4032 397.134 86.5787 396.452 86.5787 395.514V395.274C86.5787 394.213 86.4009 393.456 86.0454 393.005C85.6945 392.549 85.1317 392.321 84.357 392.321C83.6916 392.321 83.1812 392.581 82.8257 393.101C82.4748 393.616 82.2994 394.345 82.2994 395.288C82.2994 396.245 82.4748 396.967 82.8257 397.455C83.1766 397.943 83.6916 398.187 84.3706 398.187Z" fill="#252A2E"/>
<path d="M335.867 391.357C335.867 391.995 335.687 392.517 335.327 392.923C334.971 393.328 334.465 393.6 333.809 393.736V393.791C334.611 393.891 335.206 394.146 335.593 394.557C335.981 394.967 336.174 395.505 336.174 396.17C336.174 397.122 335.844 397.856 335.183 398.371C334.522 398.882 333.583 399.137 332.367 399.137C331.838 399.137 331.353 399.096 330.911 399.014C330.473 398.936 330.047 398.797 329.632 398.597V397.517C330.065 397.731 330.525 397.895 331.013 398.009C331.505 398.118 331.97 398.173 332.408 398.173C334.135 398.173 334.998 397.496 334.998 396.143C334.998 394.93 334.046 394.324 332.141 394.324H331.157V393.347H332.155C332.934 393.347 333.552 393.176 334.007 392.834C334.463 392.488 334.691 392.009 334.691 391.398C334.691 390.911 334.522 390.528 334.185 390.25C333.852 389.972 333.399 389.833 332.825 389.833C332.387 389.833 331.975 389.892 331.587 390.011C331.2 390.129 330.758 390.348 330.261 390.667L329.687 389.901C330.097 389.578 330.569 389.325 331.102 389.143C331.64 388.956 332.205 388.862 332.797 388.862C333.768 388.862 334.522 389.086 335.06 389.532C335.598 389.974 335.867 390.583 335.867 391.357ZM344.33 393.989C344.33 395.716 344.057 397.006 343.51 397.858C342.967 398.711 342.136 399.137 341.015 399.137C339.939 399.137 339.121 398.701 338.56 397.831C338 396.956 337.72 395.675 337.72 393.989C337.72 392.248 337.991 390.956 338.533 390.113C339.075 389.27 339.903 388.849 341.015 388.849C342.099 388.849 342.922 389.288 343.482 390.168C344.047 391.048 344.33 392.321 344.33 393.989ZM338.868 393.989C338.868 395.443 339.039 396.503 339.381 397.168C339.723 397.829 340.267 398.159 341.015 398.159C341.771 398.159 342.318 397.824 342.655 397.154C342.997 396.48 343.168 395.425 343.168 393.989C343.168 392.554 342.997 391.503 342.655 390.838C342.318 390.168 341.771 389.833 341.015 389.833C340.267 389.833 339.723 390.163 339.381 390.824C339.039 391.48 338.868 392.535 338.868 393.989ZM347.448 397.373L347.55 397.53C347.432 397.986 347.261 398.515 347.038 399.116C346.814 399.722 346.582 400.285 346.34 400.805H345.486C345.609 400.331 345.743 399.745 345.889 399.048C346.039 398.351 346.144 397.792 346.204 397.373H347.448ZM355.815 393.989C355.815 395.716 355.542 397.006 354.995 397.858C354.453 398.711 353.621 399.137 352.5 399.137C351.424 399.137 350.606 398.701 350.046 397.831C349.485 396.956 349.205 395.675 349.205 393.989C349.205 392.248 349.476 390.956 350.019 390.113C350.561 389.27 351.388 388.849 352.5 388.849C353.585 388.849 354.407 389.288 354.968 390.168C355.533 391.048 355.815 392.321 355.815 393.989ZM350.353 393.989C350.353 395.443 350.524 396.503 350.866 397.168C351.208 397.829 351.753 398.159 352.5 398.159C353.256 398.159 353.803 397.824 354.141 397.154C354.482 396.48 354.653 395.425 354.653 393.989C354.653 392.554 354.482 391.503 354.141 390.838C353.803 390.168 353.256 389.833 352.5 389.833C351.753 389.833 351.208 390.163 350.866 390.824C350.524 391.48 350.353 392.535 350.353 393.989ZM363.848 393.989C363.848 395.716 363.575 397.006 363.028 397.858C362.485 398.711 361.654 399.137 360.533 399.137C359.457 399.137 358.639 398.701 358.079 397.831C357.518 396.956 357.238 395.675 357.238 393.989C357.238 392.248 357.509 390.956 358.051 390.113C358.594 389.27 359.421 388.849 360.533 388.849C361.617 388.849 362.44 389.288 363 390.168C363.566 391.048 363.848 392.321 363.848 393.989ZM358.386 393.989C358.386 395.443 358.557 396.503 358.899 397.168C359.241 397.829 359.785 398.159 360.533 398.159C361.289 398.159 361.836 397.824 362.173 397.154C362.515 396.48 362.686 395.425 362.686 393.989C362.686 392.554 362.515 391.503 362.173 390.838C361.836 390.168 361.289 389.833 360.533 389.833C359.785 389.833 359.241 390.163 358.899 390.824C358.557 391.48 358.386 392.535 358.386 393.989ZM371.881 393.989C371.881 395.716 371.607 397.006 371.061 397.858C370.518 398.711 369.686 399.137 368.565 399.137C367.49 399.137 366.672 398.701 366.111 397.831C365.551 396.956 365.27 395.675 365.27 393.989C365.27 392.248 365.542 390.956 366.084 390.113C366.626 389.27 367.453 388.849 368.565 388.849C369.65 388.849 370.473 389.288 371.033 390.168C371.598 391.048 371.881 392.321 371.881 393.989ZM366.419 393.989C366.419 395.443 366.59 396.503 366.932 397.168C367.273 397.829 367.818 398.159 368.565 398.159C369.322 398.159 369.869 397.824 370.206 397.154C370.548 396.48 370.719 395.425 370.719 393.989C370.719 392.554 370.548 391.503 370.206 390.838C369.869 390.168 369.322 389.833 368.565 389.833C367.818 389.833 367.273 390.163 366.932 390.824C366.59 391.48 366.419 392.535 366.419 393.989ZM380.844 392.39H378.936V399H377.802V392.39H376.462V391.877L377.802 391.467V391.05C377.802 389.209 378.606 388.288 380.215 388.288C380.611 388.288 381.076 388.368 381.609 388.527L381.315 389.437C380.878 389.295 380.504 389.225 380.194 389.225C379.766 389.225 379.449 389.368 379.244 389.655C379.039 389.938 378.936 390.394 378.936 391.022V391.508H380.844V392.39ZM388.699 395.247C388.699 396.468 388.391 397.423 387.776 398.111C387.161 398.795 386.311 399.137 385.226 399.137C384.556 399.137 383.961 398.979 383.442 398.665C382.922 398.351 382.521 397.899 382.239 397.312C381.956 396.724 381.815 396.035 381.815 395.247C381.815 394.026 382.12 393.076 382.731 392.396C383.342 391.713 384.189 391.371 385.274 391.371C386.322 391.371 387.154 391.72 387.769 392.417C388.389 393.114 388.699 394.058 388.699 395.247ZM382.991 395.247C382.991 396.204 383.182 396.933 383.565 397.435C383.948 397.936 384.511 398.187 385.253 398.187C385.996 398.187 386.559 397.938 386.942 397.441C387.329 396.94 387.523 396.209 387.523 395.247C387.523 394.295 387.329 393.572 386.942 393.08C386.559 392.583 385.992 392.335 385.24 392.335C384.497 392.335 383.936 392.579 383.558 393.066C383.18 393.554 382.991 394.281 382.991 395.247ZM397.183 395.247C397.183 396.468 396.875 397.423 396.26 398.111C395.645 398.795 394.795 399.137 393.71 399.137C393.04 399.137 392.445 398.979 391.926 398.665C391.406 398.351 391.005 397.899 390.723 397.312C390.44 396.724 390.299 396.035 390.299 395.247C390.299 394.026 390.604 393.076 391.215 392.396C391.825 391.713 392.673 391.371 393.758 391.371C394.806 391.371 395.638 391.72 396.253 392.417C396.873 393.114 397.183 394.058 397.183 395.247ZM391.475 395.247C391.475 396.204 391.666 396.933 392.049 397.435C392.432 397.936 392.994 398.187 393.737 398.187C394.48 398.187 395.043 397.938 395.426 397.441C395.813 396.94 396.007 396.209 396.007 395.247C396.007 394.295 395.813 393.572 395.426 393.08C395.043 392.583 394.476 392.335 393.724 392.335C392.981 392.335 392.42 392.579 392.042 393.066C391.664 393.554 391.475 394.281 391.475 395.247ZM401.62 398.2C401.82 398.2 402.014 398.187 402.201 398.159C402.388 398.127 402.536 398.095 402.645 398.063V398.932C402.522 398.991 402.34 399.039 402.098 399.075C401.861 399.116 401.647 399.137 401.456 399.137C400.006 399.137 399.282 398.373 399.282 396.847V392.39H398.208V391.843L399.282 391.371L399.76 389.771H400.416V391.508H402.59V392.39H400.416V396.799C400.416 397.25 400.524 397.596 400.738 397.838C400.952 398.079 401.246 398.2 401.62 398.2ZM409.468 399L406.624 391.508H407.841L409.455 395.951C409.819 396.99 410.033 397.665 410.097 397.975H410.152C410.202 397.733 410.359 397.234 410.624 396.478C410.892 395.716 411.492 394.06 412.421 391.508H413.638L410.794 399H409.468ZM415.997 399H414.862V391.508H415.997V399ZM414.767 389.478C414.767 389.218 414.83 389.029 414.958 388.91C415.086 388.787 415.245 388.726 415.437 388.726C415.619 388.726 415.776 388.787 415.908 388.91C416.04 389.033 416.106 389.222 416.106 389.478C416.106 389.733 416.04 389.924 415.908 390.052C415.776 390.175 415.619 390.236 415.437 390.236C415.245 390.236 415.086 390.175 414.958 390.052C414.83 389.924 414.767 389.733 414.767 389.478ZM421.589 399.137C420.482 399.137 419.607 398.799 418.964 398.125C418.326 397.451 418.007 396.514 418.007 395.315C418.007 394.108 418.304 393.148 418.896 392.438C419.493 391.727 420.293 391.371 421.295 391.371C422.234 391.371 422.977 391.681 423.524 392.301C424.071 392.916 424.344 393.729 424.344 394.741V395.459H419.183C419.206 396.339 419.427 397.006 419.846 397.462C420.27 397.918 420.865 398.146 421.63 398.146C422.437 398.146 423.235 397.977 424.023 397.64V398.651C423.622 398.825 423.241 398.948 422.881 399.021C422.526 399.098 422.095 399.137 421.589 399.137ZM421.282 392.321C420.68 392.321 420.199 392.517 419.839 392.909C419.484 393.301 419.274 393.843 419.21 394.536H423.127C423.127 393.821 422.968 393.274 422.649 392.896C422.33 392.513 421.874 392.321 421.282 392.321ZM432.425 399L431.051 394.604C430.964 394.336 430.802 393.725 430.565 392.772H430.511C430.328 393.57 430.169 394.185 430.032 394.618L428.617 399H427.305L425.261 391.508H426.45C426.933 393.39 427.3 394.823 427.551 395.808C427.806 396.792 427.952 397.455 427.988 397.797H428.043C428.093 397.537 428.173 397.202 428.282 396.792C428.396 396.377 428.494 396.049 428.576 395.808L429.95 391.508H431.181L432.521 395.808C432.776 396.591 432.949 397.25 433.04 397.783H433.095C433.113 397.619 433.161 397.366 433.238 397.024C433.32 396.683 433.797 394.844 434.667 391.508H435.843L433.771 399H432.425Z" fill="#252A2E"/>
<circle cx="113" cy="373" r="12" fill="#FBAD26"/>
<path d="M20.3477 107H18.3555V89.8672H27.9062V91.6367H20.3477V97.9062H27.4492V99.6758H20.3477V107ZM41.6669 100.566C41.6669 102.66 41.1395 104.297 40.0848 105.477C39.0302 106.648 37.5731 107.234 35.7137 107.234C34.5653 107.234 33.5458 106.965 32.6552 106.426C31.7645 105.887 31.077 105.113 30.5927 104.105C30.1083 103.098 29.8661 101.918 29.8661 100.566C29.8661 98.4727 30.3895 96.8438 31.4364 95.6797C32.4833 94.5078 33.9364 93.9219 35.7958 93.9219C37.5927 93.9219 39.0184 94.5195 40.0731 95.7148C41.1356 96.9102 41.6669 98.5273 41.6669 100.566ZM31.8817 100.566C31.8817 102.207 32.2098 103.457 32.8661 104.316C33.5223 105.176 34.4872 105.605 35.7606 105.605C37.0341 105.605 37.9989 105.18 38.6552 104.328C39.3192 103.469 39.6512 102.215 39.6512 100.566C39.6512 98.9336 39.3192 97.6953 38.6552 96.8516C37.9989 96 37.0262 95.5742 35.7372 95.5742C34.4637 95.5742 33.5028 95.9922 32.8544 96.8281C32.2059 97.6641 31.8817 98.9102 31.8817 100.566ZM51.0681 93.9219C51.6384 93.9219 52.1502 93.9688 52.6033 94.0625L52.3337 95.8672C51.8025 95.75 51.3337 95.6914 50.9275 95.6914C49.8884 95.6914 48.9978 96.1133 48.2556 96.957C47.5212 97.8008 47.1541 98.8516 47.1541 100.109V107H45.2087V94.1562H46.8142L47.0369 96.5352H47.1306C47.6072 95.6992 48.1814 95.0547 48.8533 94.6016C49.5252 94.1484 50.2634 93.9219 51.0681 93.9219ZM71.4967 107V98.6445C71.4967 97.6211 71.278 96.8555 70.8405 96.3477C70.403 95.832 69.7233 95.5742 68.8014 95.5742C67.5905 95.5742 66.6959 95.9219 66.1178 96.6172C65.5397 97.3125 65.2506 98.3828 65.2506 99.8281V107H63.3053V98.6445C63.3053 97.6211 63.0866 96.8555 62.6491 96.3477C62.2116 95.832 61.528 95.5742 60.5983 95.5742C59.3795 95.5742 58.485 95.9414 57.9147 96.6758C57.3522 97.4023 57.0709 98.5977 57.0709 100.262V107H55.1256V94.1562H56.7077L57.0241 95.9141H57.1178C57.485 95.2891 58.0006 94.8008 58.6647 94.4492C59.3366 94.0977 60.0866 93.9219 60.9147 93.9219C62.9225 93.9219 64.235 94.6484 64.8522 96.1016H64.9459C65.3288 95.4297 65.8834 94.8984 66.61 94.5078C67.3366 94.1172 68.1647 93.9219 69.0944 93.9219C70.5475 93.9219 71.6334 94.2969 72.3522 95.0469C73.0788 95.7891 73.442 96.9805 73.442 98.6211V107H71.4967ZM85.48 107L85.0933 105.172H84.9995C84.3589 105.977 83.7183 106.523 83.0777 106.812C82.4448 107.094 81.6519 107.234 80.6987 107.234C79.4253 107.234 78.4253 106.906 77.6987 106.25C76.98 105.594 76.6206 104.66 76.6206 103.449C76.6206 100.855 78.6948 99.4961 82.8433 99.3711L85.023 99.3008V98.5039C85.023 97.4961 84.8042 96.7539 84.3667 96.2773C83.937 95.793 83.2456 95.5508 82.2925 95.5508C81.2222 95.5508 80.0112 95.8789 78.6597 96.5352L78.062 95.0469C78.6948 94.7031 79.3862 94.4336 80.1362 94.2383C80.8941 94.043 81.6519 93.9453 82.4097 93.9453C83.9409 93.9453 85.0737 94.2852 85.8081 94.9648C86.5503 95.6445 86.9214 96.7344 86.9214 98.2344V107H85.48ZM81.0855 105.629C82.2964 105.629 83.2456 105.297 83.9331 104.633C84.6284 103.969 84.9761 103.039 84.9761 101.844V100.684L83.0308 100.766C81.4839 100.82 80.3667 101.062 79.6792 101.492C78.9995 101.914 78.6597 102.574 78.6597 103.473C78.6597 104.176 78.8706 104.711 79.2925 105.078C79.7222 105.445 80.3198 105.629 81.0855 105.629ZM95.2094 105.629C95.5531 105.629 95.8852 105.605 96.2055 105.559C96.5258 105.504 96.7797 105.449 96.9672 105.395V106.883C96.7562 106.984 96.4437 107.066 96.0297 107.129C95.6234 107.199 95.2562 107.234 94.9281 107.234C92.4437 107.234 91.2016 105.926 91.2016 103.309V95.668H89.3617V94.7305L91.2016 93.9219L92.0219 91.1797H93.1469V94.1562H96.8734V95.668H93.1469V103.227C93.1469 104 93.3305 104.594 93.6977 105.008C94.0648 105.422 94.5687 105.629 95.2094 105.629Z" fill="#252A2E"/>
<line x1="16" y1="128.5" x2="436" y2="128.5" stroke="#252A2E"/>
<circle cx="36" cy="129" r="12" fill="#FBAD26"/>
<path d="M23.082 155.006H24.333L20.7305 165H19.582L16 155.006H17.2305L19.5273 161.473C19.7917 162.215 20.0013 162.938 20.1562 163.64C20.3203 162.901 20.5345 162.165 20.7988 161.432L23.082 155.006ZM26.6987 165H25.564V157.508H26.6987V165ZM25.4683 155.478C25.4683 155.218 25.5321 155.029 25.6597 154.91C25.7873 154.787 25.9468 154.726 26.1382 154.726C26.3205 154.726 26.4777 154.787 26.6099 154.91C26.742 155.033 26.8081 155.222 26.8081 155.478C26.8081 155.733 26.742 155.924 26.6099 156.052C26.4777 156.175 26.3205 156.236 26.1382 156.236C25.9468 156.236 25.7873 156.175 25.6597 156.052C25.5321 155.924 25.4683 155.733 25.4683 155.478ZM33.959 162.956C33.959 163.653 33.6992 164.191 33.1797 164.569C32.6602 164.948 31.931 165.137 30.9922 165.137C29.9987 165.137 29.224 164.979 28.668 164.665V163.612C29.028 163.795 29.4131 163.938 29.8232 164.043C30.238 164.148 30.6367 164.2 31.0195 164.2C31.612 164.2 32.0677 164.107 32.3867 163.92C32.7057 163.729 32.8652 163.439 32.8652 163.052C32.8652 162.76 32.7376 162.512 32.4824 162.307C32.2318 162.097 31.7396 161.851 31.0059 161.568C30.3086 161.309 29.8119 161.083 29.5156 160.892C29.224 160.696 29.0052 160.475 28.8594 160.229C28.7181 159.982 28.6475 159.688 28.6475 159.347C28.6475 158.736 28.8958 158.255 29.3926 157.904C29.8893 157.549 30.5706 157.371 31.4365 157.371C32.2432 157.371 33.0316 157.535 33.8018 157.863L33.3984 158.786C32.6465 158.476 31.9652 158.321 31.3545 158.321C30.8167 158.321 30.4111 158.406 30.1377 158.574C29.8643 158.743 29.7275 158.975 29.7275 159.271C29.7275 159.472 29.7777 159.643 29.8779 159.784C29.9828 159.925 30.1491 160.06 30.377 160.188C30.6048 160.315 31.0423 160.5 31.6895 160.741C32.5781 161.065 33.1774 161.391 33.4873 161.719C33.8018 162.047 33.959 162.459 33.959 162.956ZM36.8989 157.508V162.368C36.8989 162.979 37.0379 163.435 37.3159 163.735C37.5939 164.036 38.0291 164.187 38.6216 164.187C39.4054 164.187 39.9774 163.972 40.3374 163.544C40.702 163.116 40.8843 162.416 40.8843 161.445V157.508H42.0191V165H41.0825L40.9185 163.995H40.8569C40.6245 164.364 40.301 164.647 39.8862 164.843C39.4761 165.039 39.0067 165.137 38.478 165.137C37.5666 165.137 36.883 164.92 36.4273 164.487C35.9761 164.054 35.7505 163.362 35.7505 162.409V157.508H36.8989ZM49.0606 165L48.835 163.934H48.7803C48.4066 164.403 48.0329 164.722 47.6592 164.891C47.2901 165.055 46.8275 165.137 46.2715 165.137C45.5287 165.137 44.9453 164.945 44.5215 164.562C44.1022 164.18 43.8926 163.635 43.8926 162.929C43.8926 161.416 45.1026 160.623 47.5225 160.55L48.794 160.509V160.044C48.794 159.456 48.6664 159.023 48.4111 158.745C48.1605 158.463 47.7572 158.321 47.2012 158.321C46.5768 158.321 45.8705 158.513 45.082 158.896L44.7334 158.027C45.1026 157.827 45.5059 157.67 45.9434 157.556C46.3854 157.442 46.8275 157.385 47.2695 157.385C48.1628 157.385 48.8236 157.583 49.252 157.979C49.6849 158.376 49.9014 159.012 49.9014 159.887V165H49.0606ZM46.4971 164.2C47.2035 164.2 47.7572 164.007 48.1582 163.619C48.5638 163.232 48.7666 162.689 48.7666 161.992V161.315L47.6319 161.363C46.7295 161.395 46.0778 161.536 45.6768 161.787C45.2803 162.033 45.082 162.418 45.082 162.942C45.082 163.353 45.2051 163.665 45.4512 163.879C45.7018 164.093 46.0505 164.2 46.4971 164.2ZM53.4019 165H52.2671V154.363H53.4019V165Z" fill="#252A2E"/>
<path d="M368.716 165H367.554V156.038H364.389V155.006H371.881V156.038H368.716V165ZM376.407 165.137C375.3 165.137 374.425 164.799 373.782 164.125C373.144 163.451 372.825 162.514 372.825 161.315C372.825 160.108 373.121 159.148 373.714 158.438C374.311 157.727 375.111 157.371 376.113 157.371C377.052 157.371 377.795 157.681 378.342 158.301C378.889 158.916 379.162 159.729 379.162 160.741V161.459H374.001C374.024 162.339 374.245 163.006 374.664 163.462C375.088 163.918 375.683 164.146 376.448 164.146C377.255 164.146 378.052 163.977 378.841 163.64V164.651C378.44 164.825 378.059 164.948 377.699 165.021C377.344 165.098 376.913 165.137 376.407 165.137ZM376.1 158.321C375.498 158.321 375.017 158.517 374.657 158.909C374.302 159.301 374.092 159.843 374.028 160.536H377.945C377.945 159.821 377.786 159.274 377.467 158.896C377.148 158.513 376.692 158.321 376.1 158.321ZM382.929 161.165L380.325 157.508H381.617L383.592 160.379L385.561 157.508H386.839L384.235 161.165L386.976 165H385.691L383.592 161.965L381.473 165H380.188L382.929 161.165ZM390.907 164.2C391.108 164.2 391.301 164.187 391.488 164.159C391.675 164.127 391.823 164.095 391.933 164.063V164.932C391.81 164.991 391.627 165.039 391.386 165.075C391.149 165.116 390.935 165.137 390.743 165.137C389.294 165.137 388.569 164.373 388.569 162.847V158.39H387.496V157.843L388.569 157.371L389.048 155.771H389.704V157.508H391.878V158.39H389.704V162.799C389.704 163.25 389.811 163.596 390.025 163.838C390.24 164.079 390.534 164.2 390.907 164.2ZM397.286 155.006H400.109C401.436 155.006 402.395 155.204 402.987 155.601C403.58 155.997 403.876 156.624 403.876 157.48C403.876 158.073 403.71 158.563 403.377 158.95C403.049 159.333 402.568 159.581 401.935 159.695V159.764C403.452 160.023 404.211 160.821 404.211 162.156C404.211 163.049 403.908 163.747 403.302 164.248C402.7 164.749 401.857 165 400.772 165H397.286V155.006ZM398.448 159.285H400.362C401.183 159.285 401.773 159.158 402.133 158.902C402.493 158.643 402.673 158.207 402.673 157.597C402.673 157.036 402.472 156.633 402.071 156.387C401.67 156.136 401.032 156.011 400.157 156.011H398.448V159.285ZM398.448 160.27V164.009H400.533C401.34 164.009 401.946 163.854 402.352 163.544C402.762 163.229 402.967 162.74 402.967 162.074C402.967 161.454 402.757 160.999 402.338 160.707C401.923 160.415 401.29 160.27 400.437 160.27H398.448ZM410.822 165L410.596 163.934H410.541C410.168 164.403 409.794 164.722 409.42 164.891C409.051 165.055 408.589 165.137 408.033 165.137C407.29 165.137 406.707 164.945 406.283 164.562C405.863 164.18 405.654 163.635 405.654 162.929C405.654 161.416 406.864 160.623 409.284 160.55L410.555 160.509V160.044C410.555 159.456 410.428 159.023 410.172 158.745C409.922 158.463 409.518 158.321 408.962 158.321C408.338 158.321 407.632 158.513 406.843 158.896L406.495 158.027C406.864 157.827 407.267 157.67 407.705 157.556C408.147 157.442 408.589 157.385 409.031 157.385C409.924 157.385 410.585 157.583 411.013 157.979C411.446 158.376 411.663 159.012 411.663 159.887V165H410.822ZM408.258 164.2C408.965 164.2 409.518 164.007 409.919 163.619C410.325 163.232 410.528 162.689 410.528 161.992V161.315L409.393 161.363C408.491 161.395 407.839 161.536 407.438 161.787C407.041 162.033 406.843 162.418 406.843 162.942C406.843 163.353 406.966 163.665 407.212 163.879C407.463 164.093 407.812 164.2 408.258 164.2ZM418.861 162.956C418.861 163.653 418.602 164.191 418.082 164.569C417.562 164.948 416.833 165.137 415.895 165.137C414.901 165.137 414.126 164.979 413.57 164.665V163.612C413.93 163.795 414.315 163.938 414.726 164.043C415.14 164.148 415.539 164.2 415.922 164.2C416.514 164.2 416.97 164.107 417.289 163.92C417.608 163.729 417.768 163.439 417.768 163.052C417.768 162.76 417.64 162.512 417.385 162.307C417.134 162.097 416.642 161.851 415.908 161.568C415.211 161.309 414.714 161.083 414.418 160.892C414.126 160.696 413.908 160.475 413.762 160.229C413.62 159.982 413.55 159.688 413.55 159.347C413.55 158.736 413.798 158.255 414.295 157.904C414.792 157.549 415.473 157.371 416.339 157.371C417.145 157.371 417.934 157.535 418.704 157.863L418.301 158.786C417.549 158.476 416.867 158.321 416.257 158.321C415.719 158.321 415.313 158.406 415.04 158.574C414.767 158.743 414.63 158.975 414.63 159.271C414.63 159.472 414.68 159.643 414.78 159.784C414.885 159.925 415.051 160.06 415.279 160.188C415.507 160.315 415.945 160.5 416.592 160.741C417.48 161.065 418.08 161.391 418.39 161.719C418.704 162.047 418.861 162.459 418.861 162.956ZM423.9 165.137C422.792 165.137 421.917 164.799 421.275 164.125C420.637 163.451 420.318 162.514 420.318 161.315C420.318 160.108 420.614 159.148 421.207 158.438C421.804 157.727 422.603 157.371 423.606 157.371C424.545 157.371 425.288 157.681 425.834 158.301C426.381 158.916 426.655 159.729 426.655 160.741V161.459H421.494C421.516 162.339 421.737 163.006 422.157 163.462C422.581 163.918 423.175 164.146 423.941 164.146C424.748 164.146 425.545 163.977 426.333 163.64V164.651C425.932 164.825 425.552 164.948 425.192 165.021C424.836 165.098 424.406 165.137 423.9 165.137ZM423.592 158.321C422.991 158.321 422.51 158.517 422.15 158.909C421.794 159.301 421.585 159.843 421.521 160.536H425.438C425.438 159.821 425.278 159.274 424.959 158.896C424.64 158.513 424.185 158.321 423.592 158.321ZM433.717 163.995H433.655C433.131 164.756 432.347 165.137 431.304 165.137C430.324 165.137 429.561 164.802 429.014 164.132C428.471 163.462 428.2 162.509 428.2 161.274C428.2 160.039 428.474 159.08 429.021 158.396C429.567 157.713 430.328 157.371 431.304 157.371C432.32 157.371 433.099 157.74 433.642 158.479H433.73L433.683 157.938L433.655 157.412V154.363H434.79V165H433.867L433.717 163.995ZM431.447 164.187C432.222 164.187 432.783 163.977 433.129 163.558C433.48 163.134 433.655 162.452 433.655 161.514V161.274C433.655 160.213 433.478 159.456 433.122 159.005C432.771 158.549 432.208 158.321 431.434 158.321C430.768 158.321 430.258 158.581 429.902 159.101C429.551 159.616 429.376 160.345 429.376 161.288C429.376 162.245 429.551 162.967 429.902 163.455C430.253 163.943 430.768 164.187 431.447 164.187Z" fill="#252A2E"/>
<rect x="0.5" y="0.5" width="451" height="408" stroke="#252A2E"/>
</svg>
