<svg fill="none" height="1026" width="770" xmlns="http://www.w3.org/2000/svg" xmlns:xlink="http://www.w3.org/1999/xlink"><filter id="a" color-interpolation-filters="sRGB" filterUnits="userSpaceOnUse" height="808" width="512" x="129" y="49"><feFlood flood-opacity="0" result="BackgroundImageFix"/><feColorMatrix in="SourceAlpha" result="hardAlpha" values="0 0 0 0 0 0 0 0 0 0 0 0 0 0 0 0 0 0 127 0"/><feMorphology in="SourceAlpha" operator="dilate" radius="4" result="effect1_dropShadow_718_16108"/><feOffset dy="12"/><feGaussianBlur stdDeviation="8"/><feColorMatrix values="0 0 0 0 0.211765 0 0 0 0 0.207843 0 0 0 0 0.270588 0 0 0 0.05 0"/><feBlend in2="BackgroundImageFix" result="effect1_dropShadow_718_16108"/><feColorMatrix in="SourceAlpha" result="hardAlpha" values="0 0 0 0 0 0 0 0 0 0 0 0 0 0 0 0 0 0 127 0"/><feOffset dy="4"/><feGaussianBlur stdDeviation="6"/><feColorMatrix values="0 0 0 0 0.211765 0 0 0 0 0.207843 0 0 0 0 0.270588 0 0 0 0.1 0"/><feBlend in2="effect1_dropShadow_718_16108" result="effect2_dropShadow_718_16108"/><feBlend in="SourceGraphic" in2="effect2_dropShadow_718_16108" result="shape"/></filter><filter id="b" color-interpolation-filters="sRGB" filterUnits="userSpaceOnUse" height="56" width="408" x="181" y="567"><feFlood flood-opacity="0" result="BackgroundImageFix"/><feColorMatrix in="SourceAlpha" result="hardAlpha" values="0 0 0 0 0 0 0 0 0 0 0 0 0 0 0 0 0 0 127 0"/><feOffset dy="4"/><feGaussianBlur stdDeviation="4"/><feColorMatrix values="0 0 0 0 0.211765 0 0 0 0 0.207843 0 0 0 0 0.270588 0 0 0 0.1 0"/><feBlend in2="BackgroundImageFix" result="effect1_dropShadow_718_16108"/><feColorMatrix in="SourceAlpha" result="hardAlpha" values="0 0 0 0 0 0 0 0 0 0 0 0 0 0 0 0 0 0 127 0"/><feOffset dy="4"/><feGaussianBlur stdDeviation="4"/><feColorMatrix values="0 0 0 0 0.211765 0 0 0 0 0.207843 0 0 0 0 0.270588 0 0 0 0.1 0"/><feBlend in2="effect1_dropShadow_718_16108" result="effect2_dropShadow_718_16108"/><feBlend in="SourceGraphic" in2="effect2_dropShadow_718_16108" result="shape"/></filter><filter id="c" color-interpolation-filters="sRGB" filterUnits="userSpaceOnUse" height="56" width="408" x="181" y="511"><feFlood flood-opacity="0" result="BackgroundImageFix"/><feColorMatrix in="SourceAlpha" result="hardAlpha" values="0 0 0 0 0 0 0 0 0 0 0 0 0 0 0 0 0 0 127 0"/><feOffset dy="4"/><feGaussianBlur stdDeviation="4"/><feColorMatrix values="0 0 0 0 0.211765 0 0 0 0 0.207843 0 0 0 0 0.270588 0 0 0 0.1 0"/><feBlend in2="BackgroundImageFix" result="effect1_dropShadow_718_16108"/><feColorMatrix in="SourceAlpha" result="hardAlpha" values="0 0 0 0 0 0 0 0 0 0 0 0 0 0 0 0 0 0 127 0"/><feOffset dy="4"/><feGaussianBlur stdDeviation="4"/><feColorMatrix values="0 0 0 0 0.211765 0 0 0 0 0.207843 0 0 0 0 0.270588 0 0 0 0.1 0"/><feBlend in2="effect1_dropShadow_718_16108" result="effect2_dropShadow_718_16108"/><feBlend in="SourceGraphic" in2="effect2_dropShadow_718_16108" result="shape"/></filter><clipPath id="d"><path d="m0 0h142v32h-142z" transform="translate(189 145)"/></clipPath><mask id="e" height="640" maskUnits="userSpaceOnUse" width="768" x="1" y="1"><path d="m1 1h768v640h-768z" fill="#c4c4c4"/></mask><path d="m.5.5h769v1025h-769z" fill="#fff"/><g mask="url(#e)"><path d="m-13.24 308.893v118.614l103.2-59.52a196.53 196.53 0 0 1 -103.2-59.094zm102.4-325.12-102.4-59.04v117.92a196.888 196.888 0 0 1 102.4-58.88zm333.067 192.374-103.147-59.574a197.012 197.012 0 0 1 -.32 119.254zm-367.574-161.334c14.774-3.253 45.494 0 61.76 4.48 15.254-10.826 33.44-16.906 52.16-17.333-38.453-6.56-77.92-2.08-113.92 12.853zm196.534 215.787c-2.56-22.613-7.947-44.8-16.16-66.027-35.2 16-79.04 5.707-108.267-19.626a484.064 484.064 0 0 0 -57.493 72.96c49.6 40.426 131.04 51.04 181.92 12.693zm-208.96-8.747c-43.627-44.8-58.88-109.973-44.854-160.106-59.466 69.973-55.093 173.92 10.027 238.666 8-27.626 19.733-54.08 34.827-78.56zm184.906-76.213a238.65 238.65 0 0 0 -35.2-54.187 404.38 404.38 0 0 0 -50.293 39.094c26.453 21.92 61.067 26.293 85.493 15.093zm-32.853-81.547a185.536 185.536 0 0 1 38.293-21.28c-27.946-28.266-72.906-27.52-92.48-15.093 20.107 8.853 38.4 21.173 54.187 36.373z" fill="#0063a3" opacity=".1"/><path d="m58.173 236.467c-21.706 37.546-29.653 65.333-32.587 79.786 64.747 48.694 154.347 46.88 217.121-4.373a151.763 151.763 0 0 0 10.08-56.96c-60.16 35.787-142.987 22.133-194.614-18.453zm186.027-103.307c19.253-20.107 15.36-54.507.747-74.293a148.373 148.373 0 0 0 -35.84 21.013 262.287 262.287 0 0 1 35.093 53.28zm33.227-43.253c3.146 23.84-6.027 47.68-24.32 63.306 7.68 19.04 13.28 38.88 16.746 59.147 26.347-34.347 25.547-83.307 7.574-122.453zm-150.08 25.386a412.409 412.409 0 0 1 49.493-39.146c-15.84-14.454-34.293-25.707-54.4-33.12-16.373 21.92-11.36 50.293 4.907 72.266zm145.653 124.64a244.889 244.889 0 0 1 -2.187 44.64c27.2-35.04 40.267-78.986 36.747-123.2a135.006 135.006 0 0 1 -34.56 78.56zm-171.093-203.2a142.763 142.763 0 0 0 -69.867.427c-34.667 49.174-18.56 121.12 21.76 165.973a509.682 509.682 0 0 1 58.56-73.333c-20.48-25.493-28.64-64.853-10.453-93.067z" fill="#0063a3" opacity=".1"/><path d="m513.747 521.64c9.425 0 17.066-7.641 17.066-17.067 0-9.425-7.641-17.066-17.066-17.066-9.426 0-17.067 7.641-17.067 17.066 0 9.426 7.641 17.067 17.067 17.067zm132.853-343.467h-34.133v34.134h34.133z" fill="#f1f1f6"/><path d="m210.92 380.093v17.067m-8.533-8.533h17.066" stroke="#fbad26" stroke-miterlimit="10" stroke-width="2"/><path d="m446.44 94.813v6.4h-6.4v-6.4zm1.067-1.066h-8.534v8.533h8.534z" fill="#fbad26"/><path d="m141.267 478.493c4.106 0 7.466 3.36 7.466 7.467s-3.36 7.467-7.466 7.467c-4.107 0-7.467-3.36-7.467-7.467s3.36-7.467 7.467-7.467zm0-1.066c-4.694 0-8.534 3.84-8.534 8.533s3.84 8.533 8.534 8.533c4.693 0 8.533-3.84 8.533-8.533a8.524 8.524 0 0 0 -8.533-8.533z" fill="#e0e1e9"/><path d="m94.707 17.587c1.76 0 3.2 1.44 3.2 3.2s-1.44 3.2-3.2 3.2a3.21 3.21 0 0 1 -3.2-3.2c0-1.76 1.44-3.2 3.2-3.2zm0-1.067a4.28 4.28 0 0 0 -4.267 4.267 4.28 4.28 0 0 0 4.267 4.266 4.28 4.28 0 0 0 4.266-4.266 4.28 4.28 0 0 0 -4.266-4.267z" fill="#b7b9c3"/><path d="m722.387 100.573v34.134m-17.067-17.067h34.133" stroke="#e0e1e9" stroke-miterlimit="10" stroke-width="2"/><path d="m117.32 367.827c.907 0 1.6.693 1.6 1.6 0 .906-.693 1.6-1.6 1.6s-1.6-.694-1.6-1.6c0-.907.693-1.6 1.6-1.6zm0-.534a2.14 2.14 0 0 0 -2.133 2.134 2.14 2.14 0 0 0 2.133 2.133 2.14 2.14 0 0 0 2.133-2.133 2.14 2.14 0 0 0 -2.133-2.134zm139.733-290.666c.907 0 1.6.693 1.6 1.6 0 .906-.693 1.6-1.6 1.6-.906 0-1.6-.694-1.6-1.6 0-.907.747-1.6 1.6-1.6zm0-.534a2.14 2.14 0 0 0 -2.133 2.134 2.14 2.14 0 0 0 2.133 2.133 2.14 2.14 0 0 0 2.134-2.133 2.14 2.14 0 0 0 -2.134-2.134z" fill="#e0e1e9"/><path d="m280.2 307.987c1.76 0 3.2 1.44 3.2 3.2s-1.44 3.2-3.2 3.2a3.21 3.21 0 0 1 -3.2-3.2c0-1.76 1.44-3.2 3.2-3.2zm0-1.067a4.28 4.28 0 0 0 -4.267 4.267 4.28 4.28 0 0 0 4.267 4.266 4.28 4.28 0 0 0 4.267-4.266 4.28 4.28 0 0 0 -4.267-4.267z" fill="#b7b9c3"/><path d="m120.36 191.667v6.4h-6.4v-6.4zm1.067-1.067h-8.534v8.533h8.534z" fill="#0063a3"/><path d="m707.133 226.173v14.934h-14.933v-14.934zm1.067-1.066h-17.067v17.066h17.067z" fill="#b7b9c3"/><path d="m656.147 172.147v6.4h-6.4v-6.4zm1.066-1.067h-8.533v8.533h8.533z" fill="#fbad26"/><path d="m489.427 210.653c1.76 0 3.2 1.44 3.2 3.2s-1.44 3.2-3.2 3.2a3.21 3.21 0 0 1 -3.2-3.2c0-1.76 1.44-3.2 3.2-3.2zm0-1.066a4.28 4.28 0 0 0 -4.267 4.266 4.28 4.28 0 0 0 4.267 4.267 4.28 4.28 0 0 0 4.266-4.267 4.279 4.279 0 0 0 -4.266-4.266z" fill="#0063a3"/><path d="m350.067 251.08v4.267m-2.134-2.134h4.267" stroke="#b7b9c3" stroke-miterlimit="10"/><path d="m536.307 508.573c8.8 0 16 7.2 16 16s-7.2 16-16 16-16-7.2-16-16 7.2-16 16-16zm0-1.066c-9.44 0-17.067 7.626-17.067 17.066s7.627 17.067 17.067 17.067 17.066-7.627 17.066-17.067-7.626-17.066-17.066-17.066z" fill="#0063a3"/><path d="m373.053 50.867v17.066m-8.533-8.533h17.067" stroke="#b7b9c3" stroke-miterlimit="10" stroke-width="2"/><path d="m404.413 70.6h-17.066v17.067h17.066zm43.2 275.2h-8.533v8.533h8.533zm-372.48 58.08h-8.533v8.533h8.533zm484.907-356.32a8.533 8.533 0 0 0 8.533-8.533 8.533 8.533 0 1 0 -17.066 0 8.533 8.533 0 0 0 8.533 8.533zm22.933 345.653a4.266 4.266 0 1 0 .001-8.533 4.266 4.266 0 0 0 -.001 8.533z" fill="#f1f1f6"/></g><g filter="url(#a)"><rect fill="#fff" height="768" rx="2" width="472" x="149" y="57"/></g><path d="m306.321 767.795c-.488 0-.865.17-1.131.51-.261.34-.392.81-.392 1.412 0 .656.123 1.142.369 1.459.25.316.631.474 1.143.474.336 0 .748-.088 1.236-.263v.726a4.776 4.776 0 0 1 -.58.199c-.195.055-.43.083-.703.083-.758 0-1.34-.235-1.746-.704-.407-.472-.61-1.13-.61-1.974 0-.817.215-1.465.645-1.946.433-.48 1.023-.72 1.769-.72.5 0 .981.117 1.442.351l-.34.692c-.422-.199-.789-.299-1.102-.299zm-4.646 1.922c0-.781.195-1.514.586-2.197a4.3 4.3 0 0 1 1.611-1.618 4.351 4.351 0 0 1 2.209-.591 4.36 4.36 0 0 1 2.197.585 4.302 4.302 0 0 1 1.618 1.612c.394.683.591 1.42.591 2.209 0 .769-.189 1.492-.568 2.168a4.317 4.317 0 0 1 -1.594 1.623 4.311 4.311 0 0 1 -2.244.609 4.336 4.336 0 0 1 -2.238-.603 4.377 4.377 0 0 1 -2.168-3.797zm.615 0c0 .676.17 1.308.51 1.898.34.586.803 1.049 1.389 1.389.589.336 1.22.504 1.892.504.68 0 1.311-.17 1.893-.51a3.804 3.804 0 0 0 1.383-1.377 3.684 3.684 0 0 0 .515-1.904c0-.68-.17-1.311-.51-1.893a3.78 3.78 0 0 0 -1.382-1.383 3.656 3.656 0 0 0 -1.899-.515c-.68 0-1.31.17-1.892.51-.582.339-1.045.8-1.389 1.382a3.678 3.678 0 0 0 -.51 1.899zm16.746-3.516c-.941 0-1.685.315-2.232.944-.543.625-.815 1.482-.815 2.572 0 1.121.262 1.988.785 2.601.528.61 1.278.914 2.25.914.598 0 1.28-.107 2.045-.322v.873c-.593.223-1.326.334-2.197.334-1.262 0-2.236-.383-2.924-1.148-.683-.766-1.025-1.854-1.025-3.264 0-.883.164-1.656.492-2.32a3.577 3.577 0 0 1 1.43-1.535c.625-.36 1.359-.539 2.203-.539.898 0 1.684.164 2.355.492l-.421.855c-.649-.304-1.297-.457-1.946-.457zm9.299 4.582c0 1.047-.264 1.865-.791 2.455-.527.586-1.256.879-2.186.879-.574 0-1.084-.135-1.529-.404a2.67 2.67 0 0 1 -1.031-1.16c-.242-.504-.363-1.094-.363-1.77 0-1.047.261-1.861.785-2.443.523-.586 1.25-.879 2.179-.879.899 0 1.612.299 2.139.896.531.598.797 1.407.797 2.426zm-4.893 0c0 .821.165 1.446.493 1.875.328.43.81.645 1.447.645s1.119-.213 1.447-.639c.332-.43.498-1.057.498-1.881 0-.816-.166-1.435-.498-1.857-.328-.426-.814-.639-1.459-.639-.637 0-1.117.209-1.441.627s-.487 1.041-.487 1.869zm9.592 3.334c-.418 0-.801-.076-1.148-.228a2.187 2.187 0 0 1 -.867-.715h-.071c.047.375.071.73.071 1.066v2.643h-.973v-9.305h.791l.135.879h.047c.25-.352.541-.605.873-.762a2.657 2.657 0 0 1 1.142-.234c.852 0 1.508.291 1.969.873.465.582.697 1.398.697 2.449 0 1.055-.236 1.875-.709 2.461-.468.582-1.121.873-1.957.873zm-.14-5.83c-.657 0-1.131.182-1.424.545s-.444.941-.451 1.734v.217c0 .903.15 1.549.451 1.94.301.386.783.58 1.447.58.555 0 .988-.225 1.301-.674.316-.449.474-1.068.474-1.858 0-.8-.158-1.414-.474-1.839-.313-.43-.754-.645-1.324-.645zm3.492-.709h1.043l1.406 3.662c.309.836.5 1.44.574 1.811h.047c.051-.199.156-.539.317-1.02.164-.484.695-1.969 1.593-4.453h1.043l-2.76 7.313c-.273.722-.593 1.234-.96 1.535-.364.304-.811.457-1.342.457-.297 0-.59-.033-.879-.1v-.779c.215.047.455.07.721.07.668 0 1.144-.375 1.429-1.125l.358-.914zm9.996-.117c.285 0 .541.023.767.07l-.134.903a3.29 3.29 0 0 0 -.703-.088c-.52 0-.965.211-1.336.633-.368.421-.551.947-.551 1.576v3.445h-.973v-6.422h.803l.111 1.19h.047c.238-.418.526-.741.861-.967.336-.227.706-.34 1.108-.34zm2.941 6.539h-.972v-6.422h.972zm-1.054-8.162c0-.223.054-.385.164-.486a.565.565 0 0 1 .41-.159.57.57 0 0 1 .404.159c.113.105.17.267.17.486s-.057.383-.17.492a.57.57 0 0 1 -.404.158.564.564 0 0 1 -.41-.158c-.11-.109-.164-.273-.164-.492zm8.373 1.74v.615l-1.19.141c.11.137.207.316.293.539.086.219.129.467.129.744 0 .629-.215 1.131-.644 1.506-.43.375-1.02.563-1.77.563-.191 0-.371-.016-.539-.047-.414.218-.621.494-.621.826 0 .176.072.306.217.392.144.082.392.123.744.123h1.137c.695 0 1.228.147 1.599.44.375.293.563.719.563 1.277 0 .711-.286 1.252-.856 1.623-.57.375-1.402.563-2.496.563-.84 0-1.488-.156-1.945-.469-.453-.312-.68-.754-.68-1.324 0-.391.125-.729.375-1.014s.602-.478 1.055-.58a1.03 1.03 0 0 1 -.416-.346.922.922 0 0 1 -.164-.545c0-.234.062-.439.187-.615s.322-.345.592-.51a1.741 1.741 0 0 1 -.814-.697 2.055 2.055 0 0 1 -.311-1.125c0-.703.211-1.244.633-1.623.422-.383 1.019-.574 1.793-.574.336 0 .638.039.908.117zm-5.121 7.5c0 .348.146.611.439.791s.713.27 1.26.27c.816 0 1.42-.123 1.81-.369.395-.243.592-.573.592-.991 0-.347-.107-.59-.322-.726-.215-.133-.619-.199-1.213-.199h-1.166c-.441 0-.785.105-1.031.316s-.369.514-.369.908zm.527-5.443c0 .449.127.789.381 1.019.254.231.607.346 1.06.346.95 0 1.424-.461 1.424-1.383 0-.965-.48-1.447-1.441-1.447-.457 0-.809.123-1.055.369s-.369.611-.369 1.096zm10.307 4.365v-4.154c0-.524-.12-.914-.358-1.172s-.611-.387-1.119-.387c-.676 0-1.17.184-1.482.551-.309.367-.463.969-.463 1.805v3.357h-.973v-9.117h.973v2.76c0 .332-.016.607-.047.826h.058a1.97 1.97 0 0 1 .815-.727c.355-.18.76-.269 1.213-.269.785 0 1.373.187 1.763.562.395.371.592.963.592 1.776v4.189zm5.05-.686c.172 0 .338-.011.498-.035.161-.027.287-.054.381-.082v.744a1.695 1.695 0 0 1 -.469.123 3.167 3.167 0 0 1 -.55.053c-1.242 0-1.864-.654-1.864-1.963v-3.82h-.919v-.469l.919-.404.411-1.371h.562v1.488h1.863v.756h-1.863v3.779c0 .387.092.684.275.891.184.207.436.31.756.31zm10.471.686h-5.631v-.838l2.256-2.267c.688-.696 1.141-1.192 1.359-1.489.219-.297.383-.586.493-.867a2.49 2.49 0 0 0 .164-.908c0-.457-.139-.819-.416-1.084-.278-.27-.662-.404-1.155-.404-.355 0-.693.058-1.013.175-.317.118-.67.33-1.061.639l-.515-.662c.789-.656 1.648-.984 2.578-.984.804 0 1.435.207 1.892.621.457.41.686.963.686 1.658 0 .543-.153 1.08-.457 1.611-.305.531-.875 1.203-1.711 2.016l-1.875 1.834v.047h4.406zm6.914-4.295c0 1.481-.234 2.586-.703 3.316-.465.731-1.178 1.096-2.139 1.096-.922 0-1.623-.373-2.103-1.119-.481-.75-.721-1.848-.721-3.293 0-1.492.233-2.6.697-3.322.465-.723 1.174-1.084 2.127-1.084.93 0 1.635.377 2.116 1.131.484.754.726 1.845.726 3.275zm-4.682 0c0 1.246.147 2.154.44 2.725.293.566.76.849 1.4.849.649 0 1.117-.287 1.407-.861.293-.578.439-1.482.439-2.713 0-1.23-.146-2.131-.439-2.701-.29-.574-.758-.861-1.407-.861-.64 0-1.107.283-1.4.849-.293.563-.44 1.467-.44 2.713zm11.502 4.295h-5.63v-.838l2.255-2.267c.688-.696 1.141-1.192 1.36-1.489a3.78 3.78 0 0 0 .492-.867 2.49 2.49 0 0 0 .164-.908c0-.457-.139-.819-.416-1.084-.277-.27-.662-.404-1.154-.404a2.93 2.93 0 0 0 -1.014.175c-.316.118-.67.33-1.06.639l-.516-.662c.789-.656 1.648-.984 2.578-.984.805 0 1.436.207 1.893.621.457.41.685.963.685 1.658 0 .543-.152 1.08-.457 1.611s-.875 1.203-1.711 2.016l-1.875 1.834v.047h4.406zm6.868 0h-5.631v-.838l2.256-2.267c.687-.696 1.14-1.192 1.359-1.489a3.78 3.78 0 0 0 .492-.867 2.47 2.47 0 0 0 .164-.908c0-.457-.138-.819-.416-1.084-.277-.27-.662-.404-1.154-.404-.356 0-.693.058-1.014.175-.316.118-.67.33-1.06.639l-.516-.662c.789-.656 1.649-.984 2.578-.984.805 0 1.436.207 1.893.621.457.41.685.963.685 1.658 0 .543-.152 1.08-.457 1.611-.304.531-.875 1.203-1.711 2.016l-1.875 1.834v.047h4.407zm2.701-1.395.088.135c-.102.391-.248.844-.44 1.36a18.98 18.98 0 0 1 -.597 1.447h-.733c.106-.406.221-.908.346-1.506.129-.598.219-1.076.269-1.436zm7.822 1.395h-.996v-7.682h-2.713v-.884h6.422v.884h-2.713zm6.791-6.539c.285 0 .541.023.768.07l-.135.903a3.29 3.29 0 0 0 -.703-.088c-.52 0-.965.211-1.336.633-.367.421-.551.947-.551 1.576v3.445h-.973v-6.422h.803l.111 1.19h.047c.239-.418.526-.741.862-.967.336-.227.705-.34 1.107-.34zm2.941 6.539h-.972v-6.422h.972zm-1.054-8.162c0-.223.054-.385.164-.486a.565.565 0 0 1 .41-.159.57.57 0 0 1 .404.159c.114.105.17.267.17.486s-.056.383-.17.492a.57.57 0 0 1 -.404.158.564.564 0 0 1 -.41-.158c-.11-.109-.164-.273-.164-.492zm11.303 8.162v-4.178c0-.511-.11-.894-.329-1.148-.218-.258-.558-.387-1.019-.387-.606 0-1.053.174-1.342.522-.289.347-.434.882-.434 1.605v3.586h-.972v-4.178c0-.511-.11-.894-.328-1.148-.219-.258-.561-.387-1.026-.387-.609 0-1.056.184-1.342.551-.281.363-.421.961-.421 1.793v3.369h-.973v-6.422h.791l.158.879h.047c.184-.312.441-.557.773-.732a2.387 2.387 0 0 1 1.125-.264c1.004 0 1.661.363 1.969 1.09h.047c.192-.336.469-.602.832-.797a2.583 2.583 0 0 1 1.242-.293c.727 0 1.27.187 1.629.562.364.372.545.967.545 1.788v4.189zm5.97-6.527c.844 0 1.498.289 1.963.867.469.574.703 1.389.703 2.443 0 1.055-.236 1.875-.709 2.461-.469.582-1.121.873-1.957.873-.418 0-.801-.076-1.148-.228a2.187 2.187 0 0 1 -.867-.715h-.071l-.205.826h-.697v-9.117h.973v2.215c0 .496-.016.941-.047 1.336h.047c.453-.641 1.125-.961 2.015-.961zm-.14.814c-.664 0-1.143.192-1.436.574-.293.379-.439 1.02-.439 1.922 0 .903.15 1.549.451 1.94.301.386.783.58 1.447.58.598 0 1.043-.217 1.336-.651.293-.437.439-1.064.439-1.881 0-.835-.146-1.459-.439-1.869s-.746-.615-1.359-.615zm5.484 5.713h-.973v-9.117h.973zm4.775.117c-.949 0-1.699-.289-2.25-.867-.547-.578-.82-1.381-.82-2.408 0-1.035.254-1.858.762-2.467.511-.609 1.197-.914 2.056-.914.805 0 1.442.266 1.911.797.468.527.703 1.224.703 2.092v.615h-4.424c.019.754.209 1.326.568 1.717.363.39.873.586 1.53.586a5.17 5.17 0 0 0 2.05-.434v.867c-.343.149-.67.254-.978.317a5.32 5.32 0 0 1 -1.108.099zm-.263-5.842c-.516 0-.928.168-1.237.504-.304.336-.484.801-.539 1.395h3.358c0-.613-.137-1.082-.41-1.406-.274-.329-.665-.493-1.172-.493zm7.552 5.725v-8.566h.997v8.566zm7.6 0v-4.154c0-.524-.119-.914-.357-1.172-.239-.258-.612-.387-1.12-.387-.671 0-1.164.182-1.476.545-.313.363-.469.963-.469 1.799v3.369h-.973v-6.422h.792l.158.879h.047c.199-.316.478-.561.837-.732.36-.176.76-.264 1.202-.264.773 0 1.355.187 1.746.562.39.372.586.967.586 1.788v4.189zm5.543.117c-.93 0-1.65-.285-2.162-.855-.508-.574-.762-1.385-.762-2.432 0-1.074.258-1.904.774-2.49.519-.586 1.257-.879 2.214-.879.309 0 .618.033.926.1.309.066.551.144.727.234l-.299.826a4.394 4.394 0 0 0 -.703-.211 3.081 3.081 0 0 0 -.674-.088c-1.305 0-1.957.832-1.957 2.496 0 .789.158 1.395.475 1.817.32.422.793.633 1.418.633.535 0 1.084-.116 1.646-.346v.861c-.43.223-.971.334-1.623.334zm3.012-.738c0-.262.058-.459.175-.592.122-.137.293-.205.516-.205.227 0 .402.068.527.205.129.133.194.33.194.592 0 .254-.065.449-.194.586-.128.137-.304.205-.527.205a.713.713 0 0 1 -.498-.182c-.129-.125-.193-.328-.193-.609z" fill="#6a6976"/><path d="m290.992 746.635c0 1.414-.385 2.496-1.154 3.246-.766.746-1.869 1.119-3.311 1.119h-2.373v-8.566h2.625c1.332 0 2.367.369 3.106 1.107.738.738 1.107 1.77 1.107 3.094zm-1.054.035c0-1.117-.282-1.959-.844-2.525-.559-.567-1.391-.85-2.496-.85h-1.448v6.844h1.213c1.188 0 2.08-.291 2.678-.873.598-.586.897-1.452.897-2.596zm8.367 1.113c0 1.047-.264 1.865-.791 2.455-.528.586-1.256.879-2.186.879-.574 0-1.084-.135-1.529-.404a2.67 2.67 0 0 1 -1.031-1.16c-.243-.504-.364-1.094-.364-1.77 0-1.047.262-1.861.785-2.443.524-.586 1.25-.879 2.18-.879.899 0 1.611.299 2.139.896.531.598.797 1.407.797 2.426zm-4.893 0c0 .821.164 1.446.492 1.875.328.43.811.645 1.448.645.636 0 1.119-.213 1.447-.639.332-.43.498-1.057.498-1.881 0-.816-.166-1.435-.498-1.857-.328-.426-.815-.639-1.459-.639-.637 0-1.117.209-1.442.627-.324.418-.486 1.041-.486 1.869zm16.559 3.217h-1.137l-4.682-7.189h-.047c.063.843.094 1.617.094 2.32v4.869h-.92v-8.566h1.125l4.67 7.16h.047a71.405 71.405 0 0 1 -.053-1.014 17.773 17.773 0 0 1 -.029-1.23v-4.916h.932zm7.752-3.217c0 1.047-.264 1.865-.791 2.455-.528.586-1.256.879-2.186.879-.574 0-1.084-.135-1.529-.404a2.664 2.664 0 0 1 -1.031-1.16c-.243-.504-.364-1.094-.364-1.77 0-1.047.262-1.861.785-2.443.524-.586 1.25-.879 2.18-.879.899 0 1.611.299 2.139.896.531.598.797 1.407.797 2.426zm-4.893 0c0 .821.164 1.446.492 1.875.328.43.811.645 1.448.645.636 0 1.119-.213 1.447-.639.332-.43.498-1.057.498-1.881 0-.816-.166-1.435-.498-1.857-.328-.426-.815-.639-1.459-.639-.637 0-1.117.209-1.442.627-.324.418-.486 1.041-.486 1.869zm8.678 2.531c.172 0 .338-.011.498-.035.16-.027.287-.054.381-.082v.744a1.716 1.716 0 0 1 -.469.123 3.177 3.177 0 0 1 -.551.053c-1.242 0-1.863-.654-1.863-1.963v-3.82h-.92v-.469l.92-.404.41-1.371h.563v1.488h1.863v.756h-1.863v3.779c0 .387.091.684.275.891s.436.31.756.31zm10.265-1.593c0 .754-.273 1.341-.82 1.763s-1.289.633-2.226.633c-1.016 0-1.797-.131-2.344-.392v-.961c.351.148.734.265 1.148.351s.824.129 1.231.129c.664 0 1.164-.125 1.5-.375.336-.254.504-.605.504-1.055 0-.296-.061-.539-.182-.726-.117-.192-.316-.367-.598-.527-.277-.161-.701-.342-1.271-.545-.797-.286-1.367-.623-1.711-1.014-.34-.391-.51-.9-.51-1.529 0-.661.248-1.186.744-1.577.496-.39 1.153-.585 1.969-.585.852 0 1.635.156 2.35.468l-.311.867c-.707-.296-1.394-.445-2.062-.445-.528 0-.94.113-1.237.34s-.445.541-.445.943c0 .297.055.541.164.733.109.187.293.361.551.521.262.157.66.33 1.195.522.899.32 1.516.664 1.852 1.031.34.367.509.844.509 1.43zm4.319 2.396c-.949 0-1.699-.289-2.25-.867-.547-.578-.821-1.381-.821-2.408 0-1.035.254-1.858.762-2.467.512-.609 1.197-.914 2.057-.914.805 0 1.441.266 1.91.797.469.527.703 1.224.703 2.092v.615h-4.424c.02.754.209 1.326.569 1.717.363.39.873.586 1.529.586.691 0 1.375-.145 2.051-.434v.867c-.344.149-.67.254-.979.317a5.31 5.31 0 0 1 -1.107.099zm-.264-5.842c-.516 0-.928.168-1.236.504-.305.336-.485.801-.539 1.395h3.357c0-.613-.137-1.082-.41-1.406-.273-.329-.664-.493-1.172-.493zm5.262 5.725h-.973v-9.117h.973zm3.035 0h-.973v-9.117h.973zm9.117 0-2.906-7.594h-.047c.055.602.082 1.317.082 2.145v5.449h-.92v-8.566h1.5l2.713 7.066h.047l2.736-7.066h1.489v8.566h-.997v-5.52c0-.632.028-1.32.082-2.062h-.046l-2.93 7.582zm5.883-6.422h1.043l1.406 3.662c.309.836.5 1.44.574 1.811h.047c.051-.199.157-.539.317-1.02.164-.484.695-1.969 1.593-4.453h1.043l-2.759 7.313c-.274.722-.594 1.234-.961 1.535-.364.304-.811.457-1.342.457-.297 0-.59-.033-.879-.1v-.779c.215.047.455.07.721.07.668 0 1.144-.375 1.429-1.125l.358-.914zm15.762.352c0 .867-.297 1.535-.891 2.004-.59.464-1.435.697-2.537.697h-1.008v3.369h-.996v-8.566h2.221c2.14 0 3.211.832 3.211 2.496zm-4.436 1.845h.897c.882 0 1.521-.142 1.916-.427.394-.286.591-.743.591-1.371 0-.567-.185-.989-.556-1.266s-.949-.416-1.735-.416h-1.113zm8.801 4.342c-.949 0-1.699-.289-2.25-.867-.547-.578-.82-1.381-.82-2.408 0-1.035.254-1.858.761-2.467.512-.609 1.198-.914 2.057-.914.805 0 1.441.266 1.91.797.469.527.703 1.224.703 2.092v.615h-4.424c.02.754.209 1.326.569 1.717.363.39.873.586 1.529.586.692 0 1.375-.145 2.051-.434v.867c-.344.149-.67.254-.979.317a5.303 5.303 0 0 1 -1.107.099zm-.264-5.842c-.515 0-.927.168-1.236.504-.305.336-.484.801-.539 1.395h3.357c0-.613-.136-1.082-.41-1.406-.273-.329-.664-.493-1.172-.493zm7.219-.814c.285 0 .541.023.768.07l-.135.903a3.29 3.29 0 0 0 -.703-.088c-.52 0-.965.211-1.336.633-.367.421-.551.947-.551 1.576v3.445h-.973v-6.422h.803l.111 1.19h.047c.239-.418.526-.741.862-.967.336-.227.705-.34 1.107-.34zm6.111 4.787c0 .598-.222 1.059-.668 1.383-.445.324-1.07.486-1.875.486-.851 0-1.515-.135-1.992-.404v-.902c.309.156.639.279.99.369.356.09.698.134 1.026.134.508 0 .898-.08 1.172-.24.273-.164.41-.412.41-.744 0-.25-.11-.463-.328-.639-.215-.179-.637-.39-1.266-.632-.598-.223-1.023-.416-1.277-.58a1.81 1.81 0 0 1 -.563-.569 1.495 1.495 0 0 1 -.181-.756c0-.523.213-.935.638-1.236.426-.305 1.01-.457 1.752-.457.692 0 1.367.141 2.028.422l-.346.791c-.645-.266-1.229-.399-1.752-.399-.461 0-.809.073-1.043.217-.234.145-.352.344-.352.598 0 .172.043.318.129.439.09.121.233.237.428.346s.57.268 1.125.475c.762.277 1.275.556 1.541.838.27.281.404.634.404 1.06zm7.131-1.465c0 1.047-.263 1.865-.791 2.455-.527.586-1.256.879-2.185.879a2.902 2.902 0 0 1 -1.53-.404 2.67 2.67 0 0 1 -1.031-1.16c-.242-.504-.363-1.094-.363-1.77 0-1.047.262-1.861.785-2.443.523-.586 1.25-.879 2.18-.879.898 0 1.611.299 2.138.896.532.598.797 1.407.797 2.426zm-4.892 0c0 .821.164 1.446.492 1.875.328.43.81.645 1.447.645s1.119-.213 1.447-.639c.332-.43.498-1.057.498-1.881 0-.816-.166-1.435-.498-1.857-.328-.426-.814-.639-1.459-.639-.636 0-1.117.209-1.441.627s-.486 1.041-.486 1.869zm10.998 3.217v-4.154c0-.524-.119-.914-.358-1.172-.238-.258-.611-.387-1.119-.387-.672 0-1.164.182-1.476.545-.313.363-.469.963-.469 1.799v3.369h-.973v-6.422h.791l.158.879h.047c.199-.316.479-.561.838-.732.36-.176.76-.264 1.201-.264.774 0 1.356.187 1.746.562.391.372.586.967.586 1.788v4.189zm6.925 0-.193-.914h-.047c-.32.402-.64.676-.961.82-.316.141-.713.211-1.189.211-.637 0-1.137-.164-1.5-.492-.36-.328-.539-.795-.539-1.4 0-1.297 1.037-1.977 3.111-2.039l1.09-.036v-.398c0-.504-.109-.875-.328-1.113-.215-.243-.561-.364-1.037-.364-.535 0-1.141.164-1.817.493l-.299-.745a4.658 4.658 0 0 1 2.174-.55c.766 0 1.332.17 1.7.509.371.34.556.885.556 1.635v4.383zm-2.197-.686c.606 0 1.08-.166 1.424-.498.348-.332.522-.796.522-1.394v-.58l-.973.041c-.774.027-1.332.148-1.676.363-.34.211-.51.541-.51.99 0 .352.106.619.317.803.215.184.513.275.896.275zm5.901.686h-.973v-9.117h.973zm5.326 0v-8.566h.996v8.566zm7.599 0v-4.154c0-.524-.119-.914-.357-1.172s-.611-.387-1.119-.387c-.672 0-1.164.182-1.477.545-.312.363-.468.963-.468 1.799v3.369h-.973v-6.422h.791l.158.879h.047c.199-.316.478-.561.838-.732.359-.176.76-.264 1.201-.264.773 0 1.355.187 1.746.562.391.372.586.967.586 1.788v4.189zm5.871-5.666h-1.634v5.666h-.973v-5.666h-1.148v-.439l1.148-.352v-.357c0-1.579.689-2.368 2.068-2.368.34 0 .739.069 1.196.205l-.252.78c-.375-.121-.696-.182-.961-.182-.367 0-.639.123-.815.369-.175.242-.263.633-.263 1.172v.416h1.634zm6.715 2.449c0 1.047-.263 1.865-.791 2.455-.527.586-1.256.879-2.185.879a2.904 2.904 0 0 1 -1.53-.404 2.67 2.67 0 0 1 -1.031-1.16c-.242-.504-.363-1.094-.363-1.77 0-1.047.262-1.861.785-2.443.524-.586 1.25-.879 2.18-.879.898 0 1.611.299 2.138.896.532.598.797 1.407.797 2.426zm-4.892 0c0 .821.164 1.446.492 1.875.328.43.81.645 1.447.645s1.119-.213 1.447-.639c.332-.43.499-1.057.499-1.881 0-.816-.167-1.435-.499-1.857-.328-.426-.814-.639-1.459-.639-.636 0-1.117.209-1.441.627s-.486 1.041-.486 1.869zm9.533-3.322c.285 0 .541.023.768.07l-.135.903a3.29 3.29 0 0 0 -.703-.088c-.52 0-.965.211-1.336.633-.368.421-.551.947-.551 1.576v3.445h-.973v-6.422h.803l.111 1.19h.047c.238-.418.526-.741.862-.967.335-.227.705-.34 1.107-.34zm10.154 6.539v-4.178c0-.511-.109-.894-.328-1.148-.219-.258-.558-.387-1.019-.387-.606 0-1.053.174-1.342.522-.289.347-.434.882-.434 1.605v3.586h-.972v-4.178c0-.511-.11-.894-.329-1.148-.218-.258-.56-.387-1.025-.387-.609 0-1.057.184-1.342.551-.281.363-.422.961-.422 1.793v3.369h-.972v-6.422h.791l.158.879h.047c.183-.312.441-.557.773-.732a2.387 2.387 0 0 1 1.125-.264c1.004 0 1.66.363 1.969 1.09h.047c.191-.336.469-.602.832-.797a2.583 2.583 0 0 1 1.242-.293c.727 0 1.27.187 1.629.562.363.372.545.967.545 1.788v4.189zm6.932 0-.193-.914h-.047c-.321.402-.641.676-.961.82-.317.141-.713.211-1.19.211-.636 0-1.136-.164-1.5-.492-.359-.328-.539-.795-.539-1.4 0-1.297 1.037-1.977 3.112-2.039l1.089-.036v-.398c0-.504-.109-.875-.328-1.113-.215-.243-.56-.364-1.037-.364-.535 0-1.14.164-1.816.493l-.299-.745a4.631 4.631 0 0 1 2.174-.55c.765 0 1.332.17 1.699.509.371.34.557.885.557 1.635v4.383zm-2.197-.686c.605 0 1.08-.166 1.423-.498.348-.332.522-.796.522-1.394v-.58l-.973.041c-.773.027-1.332.148-1.676.363-.339.211-.509.541-.509.99 0 .352.105.619.316.803.215.184.514.275.897.275zm7.002 0c.171 0 .337-.011.498-.035.16-.027.287-.054.38-.082v.744a1.697 1.697 0 0 1 -.468.123 3.177 3.177 0 0 1 -.551.053c-1.242 0-1.863-.654-1.863-1.963v-3.82h-.92v-.469l.92-.404.41-1.371h.562v1.488h1.864v.756h-1.864v3.779c0 .387.092.684.276.891.183.207.435.31.756.31zm3.14.686h-.972v-6.422h.972zm-1.055-8.162c0-.223.055-.385.165-.486a.565.565 0 0 1 .41-.159.57.57 0 0 1 .404.159c.113.105.17.267.17.486s-.057.383-.17.492a.57.57 0 0 1 -.404.158.564.564 0 0 1 -.41-.158c-.11-.109-.165-.273-.165-.492zm8.661 4.945c0 1.047-.264 1.865-.791 2.455-.528.586-1.256.879-2.186.879-.574 0-1.084-.135-1.529-.404a2.664 2.664 0 0 1 -1.031-1.16c-.243-.504-.364-1.094-.364-1.77 0-1.047.262-1.861.785-2.443.524-.586 1.25-.879 2.18-.879.899 0 1.611.299 2.139.896.531.598.797 1.407.797 2.426zm-4.893 0c0 .821.164 1.446.492 1.875.328.43.811.645 1.448.645.636 0 1.119-.213 1.447-.639.332-.43.498-1.057.498-1.881 0-.816-.166-1.435-.498-1.857-.328-.426-.815-.639-1.459-.639-.637 0-1.117.209-1.442.627-.324.418-.486 1.041-.486 1.869zm10.998 3.217v-4.154c0-.524-.119-.914-.357-1.172-.239-.258-.612-.387-1.119-.387-.672 0-1.164.182-1.477.545s-.469.963-.469 1.799v3.369h-.972v-6.422h.791l.158.879h.047c.199-.316.478-.561.838-.732a2.69 2.69 0 0 1 1.201-.264c.773 0 1.355.187 1.746.562.39.372.586.967.586 1.788v4.189zm-175.974-23h-.997v-4.031h-4.511v4.031h-.996v-8.566h.996v3.644h4.511v-3.644h.997zm4.921.117c-.949 0-1.699-.289-2.25-.867-.546-.578-.82-1.381-.82-2.408 0-1.035.254-1.858.762-2.467.512-.609 1.197-.914 2.056-.914.805 0 1.442.266 1.911.797.468.527.703 1.224.703 2.092v.615h-4.424c.019.754.209 1.326.568 1.717.364.39.873.586 1.53.586a5.17 5.17 0 0 0 2.05-.434v.867c-.343.149-.67.254-.978.317a5.32 5.32 0 0 1 -1.108.099zm-.263-5.842c-.516 0-.928.168-1.237.504-.304.336-.484.801-.539 1.395h3.358c0-.613-.137-1.082-.41-1.406-.274-.329-.664-.493-1.172-.493zm5.261 5.725h-.972v-9.117h.972zm5.051.117c-.418 0-.801-.076-1.148-.228a2.187 2.187 0 0 1 -.867-.715h-.071c.047.375.071.73.071 1.066v2.643h-.973v-9.305h.791l.135.879h.047c.25-.352.541-.605.873-.762a2.657 2.657 0 0 1 1.142-.234c.852 0 1.508.291 1.969.873.465.582.697 1.398.697 2.449 0 1.055-.236 1.875-.709 2.461-.468.582-1.121.873-1.957.873zm-.14-5.83c-.657 0-1.131.182-1.424.545s-.444.941-.451 1.734v.217c0 .903.15 1.549.451 1.94.301.386.783.58 1.447.58.555 0 .988-.225 1.301-.674.316-.449.474-1.068.474-1.858 0-.8-.158-1.414-.474-1.839-.313-.43-.754-.645-1.324-.645zm11.443-2.086c-.941 0-1.686.315-2.232.944-.543.625-.815 1.482-.815 2.572 0 1.121.262 1.988.785 2.601.528.61 1.278.914 2.25.914.598 0 1.28-.107 2.045-.322v.873c-.594.223-1.326.334-2.197.334-1.262 0-2.236-.383-2.924-1.148-.684-.766-1.025-1.854-1.025-3.264 0-.883.164-1.656.492-2.32a3.57 3.57 0 0 1 1.43-1.535c.625-.36 1.359-.539 2.203-.539.898 0 1.683.164 2.355.492l-.422.855a4.549 4.549 0 0 0 -1.945-.457zm6.469 7.916c-.95 0-1.7-.289-2.25-.867-.547-.578-.821-1.381-.821-2.408 0-1.035.254-1.858.762-2.467.512-.609 1.197-.914 2.057-.914.804 0 1.441.266 1.91.797.469.527.703 1.224.703 2.092v.615h-4.424c.02.754.209 1.326.569 1.717.363.39.873.586 1.529.586.691 0 1.375-.145 2.051-.434v.867c-.344.149-.67.254-.979.317a5.316 5.316 0 0 1 -1.107.099zm-.264-5.842c-.516 0-.928.168-1.236.504-.305.336-.485.801-.539 1.395h3.357c0-.613-.137-1.082-.41-1.406-.274-.329-.664-.493-1.172-.493zm8.684 5.725v-4.154c0-.524-.12-.914-.358-1.172s-.611-.387-1.119-.387c-.672 0-1.164.182-1.476.545-.313.363-.469.963-.469 1.799v3.369h-.973v-6.422h.791l.158.879h.047c.199-.316.479-.561.838-.732.359-.176.76-.264 1.201-.264.774 0 1.356.187 1.746.562.391.372.586.967.586 1.788v4.189zm5.05-.686c.172 0 .338-.011.498-.035.161-.027.288-.054.381-.082v.744a1.697 1.697 0 0 1 -.468.123 3.186 3.186 0 0 1 -.551.053c-1.242 0-1.863-.654-1.863-1.963v-3.82h-.92v-.469l.92-.404.41-1.371h.562v1.488h1.863v.756h-1.863v3.779c0 .387.092.684.276.891.183.207.435.31.755.31zm4.881.803c-.949 0-1.699-.289-2.25-.867-.547-.578-.82-1.381-.82-2.408 0-1.035.254-1.858.762-2.467.511-.609 1.197-.914 2.056-.914.805 0 1.442.266 1.91.797.469.527.704 1.224.704 2.092v.615h-4.424c.019.754.209 1.326.568 1.717.363.39.873.586 1.529.586.692 0 1.375-.145 2.051-.434v.867c-.344.149-.67.254-.978.317a5.32 5.32 0 0 1 -1.108.099zm-.263-5.842c-.516 0-.928.168-1.237.504-.304.336-.484.801-.539 1.395h3.358c0-.613-.137-1.082-.411-1.406-.273-.329-.664-.493-1.171-.493zm7.218-.814a3.8 3.8 0 0 1 .768.07l-.135.903a3.283 3.283 0 0 0 -.703-.088c-.519 0-.965.211-1.336.633-.367.421-.551.947-.551 1.576v3.445h-.972v-6.422h.802l.112 1.19h.047c.238-.418.525-.741.861-.967.336-.227.705-.34 1.107-.34zm20.391.469c0 .867-.297 1.535-.891 2.004-.589.464-1.435.697-2.537.697h-1.008v3.369h-.996v-8.566h2.221c2.141 0 3.211.832 3.211 2.496zm-4.436 1.845h.897c.883 0 1.521-.142 1.916-.427.394-.286.592-.743.592-1.371 0-.567-.186-.989-.557-1.266s-.949-.416-1.734-.416h-1.114zm9.018-2.314c.285 0 .541.023.768.07l-.135.903a3.29 3.29 0 0 0 -.703-.088c-.52 0-.965.211-1.336.633-.367.421-.551.947-.551 1.576v3.445h-.973v-6.422h.803l.111 1.19h.047c.239-.418.526-.741.862-.967.336-.227.705-.34 1.107-.34zm2.941 6.539h-.972v-6.422h.972zm-1.054-8.162c0-.223.054-.385.164-.486a.565.565 0 0 1 .41-.159.57.57 0 0 1 .404.159c.114.105.17.267.17.486s-.056.383-.17.492a.57.57 0 0 1 -.404.158.564.564 0 0 1 -.41-.158c-.11-.109-.164-.273-.164-.492zm4.523 8.162-2.437-6.422h1.043l1.382 3.809c.313.89.497 1.468.551 1.734h.047c.043-.207.178-.635.404-1.283.231-.652.745-2.072 1.541-4.26h1.043l-2.437 6.422zm8.555 0-.194-.914h-.046c-.321.402-.641.676-.961.82-.317.141-.713.211-1.19.211-.636 0-1.136-.164-1.5-.492-.359-.328-.539-.795-.539-1.4 0-1.297 1.037-1.977 3.111-2.039l1.09-.036v-.398c0-.504-.109-.875-.328-1.113-.215-.243-.56-.364-1.037-.364-.535 0-1.141.164-1.816.493l-.299-.745a4.631 4.631 0 0 1 2.174-.55c.765 0 1.332.17 1.699.509.371.34.557.885.557 1.635v4.383zm-2.197-.686c.605 0 1.08-.166 1.423-.498.348-.332.522-.796.522-1.394v-.58l-.973.041c-.773.027-1.332.148-1.676.363-.339.211-.509.541-.509.99 0 .352.105.619.316.803.215.184.514.275.897.275zm7.494.803c-.93 0-1.651-.285-2.162-.855-.508-.574-.762-1.385-.762-2.432 0-1.074.258-1.904.773-2.49.52-.586 1.258-.879 2.215-.879.309 0 .617.033.926.1.309.066.551.144.727.234l-.299.826a4.426 4.426 0 0 0 -.703-.211 3.081 3.081 0 0 0 -.674-.088c-1.305 0-1.957.832-1.957 2.496 0 .789.158 1.395.474 1.817.321.422.793.633 1.418.633.535 0 1.084-.116 1.647-.346v.861c-.43.223-.971.334-1.623.334zm2.133-6.539h1.043l1.406 3.662c.308.836.5 1.44.574 1.811h.047c.051-.199.156-.539.316-1.02.164-.484.696-1.969 1.594-4.453h1.043l-2.76 7.313c-.273.722-.594 1.234-.961 1.535-.363.304-.81.457-1.342.457-.296 0-.589-.033-.878-.1v-.779c.214.047.455.07.72.07.668 0 1.145-.375 1.43-1.125l.357-.914zm22.693 6.422h-.996v-7.682h-2.713v-.884h6.422v.884h-2.713zm6.574.117c-.949 0-1.699-.289-2.25-.867-.547-.578-.82-1.381-.82-2.408 0-1.035.254-1.858.762-2.467.511-.609 1.197-.914 2.056-.914.805 0 1.442.266 1.91.797.469.527.703 1.224.703 2.092v.615h-4.423c.019.754.209 1.326.568 1.717.363.39.873.586 1.529.586.692 0 1.375-.145 2.051-.434v.867c-.344.149-.67.254-.978.317a5.32 5.32 0 0 1 -1.108.099zm-.264-5.842c-.515 0-.927.168-1.236.504-.305.336-.484.801-.539 1.395h3.357c0-.613-.136-1.082-.41-1.406-.273-.329-.664-.493-1.172-.493zm7.219-.814c.285 0 .541.023.768.07l-.135.903a3.29 3.29 0 0 0 -.703-.088c-.52 0-.965.211-1.336.633-.367.421-.551.947-.551 1.576v3.445h-.972v-6.422h.802l.112 1.19h.046c.239-.418.526-.741.862-.967.336-.227.705-.34 1.107-.34zm10.154 6.539v-4.178c0-.511-.109-.894-.328-1.148-.218-.258-.558-.387-1.019-.387-.606 0-1.053.174-1.342.522-.289.347-.434.882-.434 1.605v3.586h-.972v-4.178c0-.511-.11-.894-.328-1.148-.219-.258-.561-.387-1.026-.387-.609 0-1.056.184-1.342.551-.281.363-.421.961-.421 1.793v3.369h-.973v-6.422h.791l.158.879h.047c.184-.312.441-.557.773-.732a2.387 2.387 0 0 1 1.125-.264c1.004 0 1.661.363 1.969 1.09h.047c.192-.336.469-.602.832-.797a2.583 2.583 0 0 1 1.242-.293c.727 0 1.27.187 1.629.562.364.372.545.967.545 1.788v4.189zm7.125-1.752c0 .598-.222 1.059-.667 1.383-.446.324-1.071.486-1.875.486-.852 0-1.516-.135-1.993-.404v-.902c.309.156.639.279.991.369.355.09.697.134 1.025.134.508 0 .898-.08 1.172-.24.273-.164.41-.412.41-.744 0-.25-.109-.463-.328-.639-.215-.179-.637-.39-1.266-.632-.597-.223-1.023-.416-1.277-.58a1.81 1.81 0 0 1 -.563-.569 1.495 1.495 0 0 1 -.181-.756c0-.523.213-.935.638-1.236.426-.305 1.01-.457 1.752-.457.692 0 1.368.141 2.028.422l-.346.791c-.645-.266-1.228-.399-1.752-.399-.461 0-.809.073-1.043.217-.234.145-.351.344-.351.598 0 .172.043.318.128.439.09.121.233.237.428.346s.57.268 1.125.475c.762.277 1.276.556 1.541.838.27.281.404.634.404 1.06z" fill="#005f9e"/><path d="m374.102 718.883h.826v12.023h-.826zm52.464 0h.827v12.023h-.827z" fill="#363545"/><g filter="url(#b)"><rect fill="#000" height="40" rx="2" width="392" x="189" y="571"/></g><path d="m351.139 592.76c.032.569.166 1.032.403 1.387.451.666 1.246.999 2.386.999.51 0 .975-.073 1.394-.219.811-.283 1.217-.789 1.217-1.518 0-.547-.171-.936-.513-1.169-.346-.228-.888-.426-1.627-.594l-1.36-.308c-.889-.201-1.518-.422-1.887-.663-.638-.419-.957-1.046-.957-1.88 0-.902.312-1.643.937-2.222.624-.579 1.508-.868 2.652-.868 1.053 0 1.946.255 2.68.766.738.506 1.107 1.317 1.107 2.433h-1.278c-.068-.537-.214-.95-.438-1.237-.414-.524-1.118-.786-2.112-.786-.802 0-1.378.168-1.729.506-.351.337-.527.729-.527 1.175 0 .493.205.853.616 1.081.268.145.877.328 1.825.546l1.408.322c.679.155 1.203.367 1.572.635.638.47.957 1.151.957 2.044 0 1.112-.405 1.908-1.217 2.386-.806.479-1.745.718-2.816.718-1.249 0-2.226-.319-2.933-.957-.706-.634-1.052-1.493-1.039-2.577zm8.285-4.047h1.251v7.287h-1.251zm0-2.755h1.251v1.395h-1.251zm5.701 2.591c.574 0 1.076.141 1.504.424.232.159.469.392.711.697v-.923h1.135v6.658c0 .93-.137 1.664-.411 2.201-.51.994-1.474 1.491-2.891 1.491-.789 0-1.452-.178-1.989-.534-.538-.35-.839-.902-.903-1.654h1.251c.059.328.178.581.356.759.278.273.715.41 1.312.41.944 0 1.561-.333 1.853-.998.173-.392.253-1.091.239-2.099a2.405 2.405 0 0 1 -.889.834c-.346.183-.804.274-1.374.274-.793 0-1.488-.28-2.085-.841-.592-.565-.888-1.497-.888-2.796 0-1.226.298-2.183.895-2.871.602-.688 1.326-1.032 2.174-1.032zm2.215 3.76c0-.907-.187-1.58-.561-2.017a1.793 1.793 0 0 0 -1.428-.656c-.866 0-1.459.405-1.778 1.217-.168.432-.253 1-.253 1.702 0 .825.167 1.453.499 1.886.338.429.789.643 1.354.643.884 0 1.506-.399 1.866-1.196.201-.451.301-.978.301-1.579zm2.994-3.63h1.169v1.039c.346-.429.713-.736 1.101-.923.387-.187.818-.28 1.292-.28 1.039 0 1.74.362 2.105 1.087.2.396.301.963.301 1.702v4.696h-1.251v-4.614c0-.447-.066-.807-.198-1.08-.219-.456-.616-.684-1.19-.684-.292 0-.531.03-.718.089a1.85 1.85 0 0 0 -.888.601c-.205.242-.34.493-.404.752-.059.256-.089.623-.089 1.101v3.835h-1.23zm11.689.034h1.251v7.287h-1.251zm0-2.755h1.251v1.395h-1.251zm3.118 2.721h1.169v1.039c.346-.429.713-.736 1.1-.923.388-.187.818-.28 1.292-.28 1.039 0 1.741.362 2.106 1.087.2.396.3.963.3 1.702v4.696h-1.251v-4.614c0-.447-.066-.807-.198-1.08-.219-.456-.615-.684-1.189-.684-.292 0-.531.03-.718.089-.337.1-.634.301-.889.601a1.855 1.855 0 0 0 -.403.752c-.059.256-.089.623-.089 1.101v3.835h-1.23zm12.256 0 1.409 5.769 1.428-5.769h1.381l1.436 5.735 1.497-5.735h1.23l-2.126 7.321h-1.278l-1.49-5.667-1.443 5.667h-1.278l-2.112-7.321zm9.55.034h1.251v7.287h-1.251zm0-2.755h1.251v1.395h-1.251zm3.364.677h1.244v2.044h1.169v1.005h-1.169v4.778c0 .255.086.426.259.513.096.05.256.075.479.075h.191a9.72 9.72 0 0 0 .24-.021v.971c-.142.041-.29.071-.445.089-.15.018-.314.027-.492.027-.574 0-.964-.146-1.169-.437-.205-.297-.307-.679-.307-1.149v-4.846h-.992v-1.005h.992zm3.65-.711h1.23v3.746c.292-.369.554-.629.787-.779.396-.26.89-.39 1.483-.39 1.062 0 1.782.371 2.16 1.114.205.406.308.969.308 1.689v4.696h-1.265v-4.614c0-.538-.068-.932-.205-1.183-.223-.401-.643-.601-1.258-.601-.51 0-.973.175-1.388.526-.414.351-.622 1.014-.622 1.989v3.883h-1.23zm16.242 5.961-1.524-4.437-1.62 4.437zm-2.235-5.927h1.538l3.643 10.042h-1.49l-1.018-3.008h-3.972l-1.087 3.008h-1.394zm9.344 9.215c.575 0 1.051-.239 1.429-.718.383-.483.574-1.203.574-2.16 0-.583-.084-1.085-.253-1.504-.319-.807-.902-1.21-1.75-1.21-.852 0-1.435.426-1.75 1.278-.168.456-.252 1.035-.252 1.737 0 .565.084 1.046.252 1.442.32.757.903 1.135 1.75 1.135zm-3.185-6.46h1.196v.971c.246-.333.515-.591.807-.773.415-.273.902-.41 1.463-.41.829 0 1.533.319 2.112.957.579.633.868 1.54.868 2.721 0 1.595-.417 2.734-1.251 3.418a2.824 2.824 0 0 1 -1.845.649c-.552 0-1.014-.121-1.388-.362-.219-.137-.463-.372-.732-.704v3.739h-1.23zm10.978 6.46c.575 0 1.051-.239 1.429-.718.383-.483.574-1.203.574-2.16 0-.583-.084-1.085-.253-1.504-.319-.807-.902-1.21-1.75-1.21-.852 0-1.435.426-1.75 1.278-.168.456-.252 1.035-.252 1.737 0 .565.084 1.046.252 1.442.319.757.903 1.135 1.75 1.135zm-3.185-6.46h1.196v.971c.246-.333.515-.591.807-.773.415-.273.902-.41 1.463-.41.829 0 1.533.319 2.112.957.579.633.868 1.54.868 2.721 0 1.595-.417 2.734-1.251 3.418a2.824 2.824 0 0 1 -1.845.649c-.552 0-1.014-.121-1.388-.362-.219-.137-.463-.372-.732-.704v3.739h-1.23zm7.923-2.755h1.23v10.042h-1.23zm6.132 2.557c.519 0 1.023.123 1.51.369.488.241.859.556 1.115.943.246.369.41.8.492 1.292.073.337.109.875.109 1.613h-5.366c.023.743.198 1.34.526 1.791.328.447.837.67 1.525.67.642 0 1.155-.212 1.538-.635.219-.246.374-.531.465-.855h1.21c-.032.269-.139.57-.322.902a3.138 3.138 0 0 1 -.601.807 2.858 2.858 0 0 1 -1.388.738c-.296.073-.631.11-1.005.11a3.09 3.09 0 0 1 -2.317-.991c-.634-.666-.95-1.595-.95-2.79 0-1.175.319-2.13.957-2.864.638-.733 1.472-1.1 2.502-1.1zm1.962 3.24c-.051-.533-.167-.959-.349-1.278-.337-.593-.9-.889-1.689-.889-.565 0-1.039.205-1.421.615-.383.406-.586.923-.609 1.552z" fill="#fff"/><path d="m228 572h-38v38h38z" fill="#000"/><path d="m208.96 586.385c.858 0 1.933-.58 2.573-1.353.58-.701 1.002-1.679 1.002-2.658 0-.132-.012-.265-.036-.374-.954.036-2.102.64-2.79 1.449-.544.616-1.039 1.583-1.039 2.573 0 .145.024.29.036.338.061.013.157.025.254.025zm-3.02 14.615c1.172 0 1.691-.785 3.153-.785 1.486 0 1.812.761 3.116.761 1.281 0 2.138-1.184 2.947-2.343.906-1.329 1.281-2.634 1.305-2.694-.085-.024-2.537-1.027-2.537-3.841 0-2.44 1.933-3.539 2.042-3.624-1.281-1.836-3.225-1.884-3.757-1.884-1.437 0-2.609.87-3.346.87-.797 0-1.848-.822-3.092-.822-2.367 0-4.771 1.957-4.771 5.653 0 2.295.894 4.723 1.993 6.293.942 1.329 1.764 2.416 2.947 2.416z" fill="#fff"/><g filter="url(#c)"><rect fill="#4285f4" height="40" rx="2" width="392" x="189" y="515"/></g><path d="m350.523 537.437c0-.206-.031-.388-.095-.547a1.073 1.073 0 0 0 -.322-.438 2.645 2.645 0 0 0 -.656-.383 8.787 8.787 0 0 0 -1.066-.389 11.804 11.804 0 0 1 -1.313-.486 4.987 4.987 0 0 1 -1.039-.629 2.683 2.683 0 0 1 -.69-.827 2.313 2.313 0 0 1 -.246-1.087c0-.405.084-.774.253-1.107.173-.333.417-.62.731-.861a3.499 3.499 0 0 1 1.128-.568 4.772 4.772 0 0 1 1.436-.205c.738 0 1.374.137 1.907.41.538.274.95.641 1.237 1.101.292.46.438.968.438 1.524h-1.703c0-.328-.07-.617-.211-.868a1.437 1.437 0 0 0 -.629-.601c-.278-.146-.632-.219-1.06-.219-.406 0-.743.061-1.012.184a1.35 1.35 0 0 0 -.601.499c-.132.21-.198.447-.198.711 0 .187.043.358.129.513.087.15.219.292.397.424.178.127.401.248.67.362s.585.224.95.328a9.46 9.46 0 0 1 1.442.547 4.15 4.15 0 0 1 1.026.67c.273.251.478.536.615.855.137.314.205.672.205 1.073 0 .419-.084.797-.253 1.135a2.45 2.45 0 0 1 -.724.854c-.31.233-.684.413-1.122.54a5.292 5.292 0 0 1 -1.449.185 5.31 5.31 0 0 1 -1.415-.192 4.166 4.166 0 0 1 -1.258-.581 2.996 2.996 0 0 1 -.902-.984c-.223-.397-.335-.859-.335-1.388h1.716c0 .324.055.599.164.827.114.228.271.415.472.561.2.141.433.246.697.314.269.069.556.103.861.103.401 0 .736-.057 1.005-.171.274-.114.479-.273.615-.479.137-.205.205-.442.205-.71zm4.84-4.833v7.396h-1.654v-7.396zm-1.763-1.942c0-.251.082-.458.246-.622.168-.169.401-.253.697-.253.292 0 .522.084.69.253a.83.83 0 0 1 .253.622.821.821 0 0 1 -.253.615c-.168.164-.398.246-.69.246-.296 0-.529-.082-.697-.246a.834.834 0 0 1 -.246-.615zm8.305 1.942h1.497v7.191c0 .665-.141 1.23-.423 1.695a2.73 2.73 0 0 1 -1.183 1.06c-.506.246-1.092.369-1.757.369-.282 0-.597-.041-.943-.123a3.83 3.83 0 0 1 -.998-.397 2.46 2.46 0 0 1 -.8-.704l.772-.97c.265.314.556.544.875.69s.654.219 1.005.219c.378 0 .7-.071.964-.212.269-.137.476-.34.622-.609.146-.268.219-.597.219-.984v-5.551zm-5.024 3.78v-.144c0-.56.068-1.071.205-1.531.137-.465.333-.864.588-1.196.255-.338.565-.595.93-.773a2.73 2.73 0 0 1 1.237-.273c.478 0 .886.086 1.223.26.342.173.627.421.855.745.228.319.406.702.533 1.148.132.442.23.934.294 1.477v.458a7.341 7.341 0 0 1 -.301 1.449 4.01 4.01 0 0 1 -.56 1.135c-.233.319-.52.565-.862.738-.337.173-.736.26-1.196.26-.451 0-.859-.094-1.223-.281a2.76 2.76 0 0 1 -.93-.786 3.726 3.726 0 0 1 -.588-1.189 5.224 5.224 0 0 1 -.205-1.497zm1.647-.144v.144c0 .337.032.651.096.943a2.6 2.6 0 0 0 .308.773c.141.218.319.392.533.519.219.123.476.185.772.185.388 0 .704-.082.951-.246.25-.164.442-.385.574-.663.136-.283.232-.597.287-.944v-1.237a3.027 3.027 0 0 0 -.171-.752 2.006 2.006 0 0 0 -.335-.608 1.4 1.4 0 0 0 -.533-.411c-.214-.1-.467-.15-.759-.15-.296 0-.554.064-.772.191a1.575 1.575 0 0 0 -.541.527 2.609 2.609 0 0 0 -.307.779 4.18 4.18 0 0 0 -.103.95zm8.217-2.057v5.817h-1.647v-7.396h1.551zm-.294 1.845-.533-.007a4.802 4.802 0 0 1 .219-1.442 3.57 3.57 0 0 1 .601-1.128c.26-.314.57-.556.93-.724.36-.174.761-.26 1.203-.26.356 0 .677.05.964.15.292.096.54.253.745.472.21.219.369.503.479.854.109.347.164.773.164 1.279v4.778h-1.655v-4.785c0-.356-.052-.636-.157-.841a.874.874 0 0 0 -.444-.444 1.672 1.672 0 0 0 -.718-.137 1.59 1.59 0 0 0 -.759.178c-.223.118-.412.28-.567.485a2.335 2.335 0 0 0 -.349.711 2.938 2.938 0 0 0 -.123.861zm11.703-3.424v7.396h-1.654v-7.396zm-1.763-1.942c0-.251.082-.458.246-.622.168-.169.401-.253.697-.253.292 0 .522.084.69.253a.83.83 0 0 1 .253.622.821.821 0 0 1 -.253.615c-.168.164-.398.246-.69.246-.296 0-.529-.082-.697-.246a.834.834 0 0 1 -.246-.615zm5.202 3.521v5.817h-1.648v-7.396h1.552zm-.294 1.845-.533-.007a4.803 4.803 0 0 1 .218-1.442c.146-.437.347-.813.602-1.128.26-.314.57-.556.93-.724.36-.174.761-.26 1.203-.26.355 0 .677.05.964.15.291.096.54.253.745.472.209.219.369.503.478.854.11.347.164.773.164 1.279v4.778h-1.654v-4.785c0-.356-.052-.636-.157-.841a.875.875 0 0 0 -.445-.444 1.664 1.664 0 0 0 -.717-.137c-.283 0-.536.059-.759.178-.223.118-.413.28-.567.485a2.335 2.335 0 0 0 -.349.711 2.938 2.938 0 0 0 -.123.861zm11.949 2.331 1.709-5.755h1.053l-.287 1.722-1.723 5.674h-.943zm-1.005-5.755 1.333 5.783.11 1.613h-1.053l-2.003-7.396zm5.366 5.714 1.292-5.714h1.607l-1.996 7.396h-1.053zm-1.421-5.714 1.688 5.687.212 1.709h-.943l-1.744-5.681-.287-1.715zm7.205 0v7.396h-1.655v-7.396zm-1.764-1.942c0-.251.082-.458.246-.622.169-.169.401-.253.697-.253.292 0 .522.084.691.253a.833.833 0 0 1 .253.622.825.825 0 0 1 -.253.615c-.169.164-.399.246-.691.246-.296 0-.528-.082-.697-.246a.834.834 0 0 1 -.246-.615zm6.959 1.942v1.203h-4.17v-1.203zm-2.967-1.812h1.648v7.164c0 .228.031.403.095.526a.513.513 0 0 0 .281.24c.118.041.257.061.417.061a2.675 2.675 0 0 0 .581-.061l.006 1.257a3.984 3.984 0 0 1 -.478.11 3.506 3.506 0 0 1 -.615.048c-.379 0-.714-.066-1.005-.199a1.471 1.471 0 0 1 -.684-.663c-.164-.305-.246-.711-.246-1.216zm5.865-1.292v10.5h-1.64v-10.5zm-.287 6.528-.533-.007a4.83 4.83 0 0 1 .212-1.415 3.62 3.62 0 0 1 .588-1.127 2.617 2.617 0 0 1 2.098-1.012c.365 0 .693.05.985.15.296.1.551.262.765.486.215.218.376.505.486.861.114.351.171.779.171 1.285v4.751h-1.655v-4.765c0-.355-.052-.638-.157-.847a.907.907 0 0 0 -.444-.451 1.62 1.62 0 0 0 -.718-.144c-.296 0-.558.059-.786.178-.223.118-.41.28-.561.485-.15.205-.264.442-.341.711-.073.269-.11.556-.11.861zm17.733-1.114v3.801c-.142.187-.363.392-.663.615-.297.219-.691.408-1.183.567-.492.16-1.105.24-1.839.24a4.542 4.542 0 0 1 -1.716-.315 3.756 3.756 0 0 1 -1.346-.936 4.28 4.28 0 0 1 -.869-1.497c-.205-.593-.307-1.267-.307-2.024v-.69c0-.752.093-1.422.28-2.01a4.27 4.27 0 0 1 .82-1.504c.356-.41.784-.72 1.286-.93.505-.214 1.077-.321 1.715-.321.816 0 1.491.137 2.024.41a2.98 2.98 0 0 1 1.244 1.121c.292.479.476 1.026.554 1.641h-1.682a2.67 2.67 0 0 0 -.321-.93 1.634 1.634 0 0 0 -.67-.642c-.287-.16-.661-.239-1.121-.239-.397 0-.745.075-1.046.225s-.552.372-.752.663a3.248 3.248 0 0 0 -.444 1.067 6.15 6.15 0 0 0 -.151 1.435v.704c0 .547.057 1.032.171 1.456.119.424.287.782.506 1.074a2.2 2.2 0 0 0 .813.663c.319.145.679.218 1.08.218.392 0 .714-.032.964-.095.251-.069.449-.148.595-.24.15-.095.267-.186.349-.273v-1.976h-2.072v-1.278zm1.422 1.47v-.157c0-.534.077-1.028.232-1.484a3.52 3.52 0 0 1 .67-1.196 3.02 3.02 0 0 1 1.08-.793 3.503 3.503 0 0 1 1.449-.287c.542 0 1.026.095 1.449.287.429.187.791.451 1.087.793.297.337.522.736.677 1.196.155.456.232.95.232 1.484v.157c0 .533-.077 1.027-.232 1.483s-.38.855-.677 1.196a3.117 3.117 0 0 1 -1.08.793 3.537 3.537 0 0 1 -1.442.281 3.605 3.605 0 0 1 -1.456-.281 3.117 3.117 0 0 1 -1.08-.793 3.526 3.526 0 0 1 -.677-1.196 4.579 4.579 0 0 1 -.232-1.483zm1.647-.157v.157c0 .332.034.647.103.943.068.296.175.556.321.779.146.224.332.399.56.527.228.127.499.191.814.191.305 0 .569-.064.793-.191.228-.128.415-.303.56-.527.146-.223.253-.483.322-.779.073-.296.109-.611.109-.943v-.157c0-.329-.036-.638-.109-.93a2.413 2.413 0 0 0 -.328-.786 1.563 1.563 0 0 0 -.561-.533 1.534 1.534 0 0 0 -.8-.199c-.31 0-.579.066-.806.199a1.576 1.576 0 0 0 -.554.533 2.47 2.47 0 0 0 -.321.786 4.028 4.028 0 0 0 -.103.93zm6.296.157v-.157c0-.534.077-1.028.232-1.484.155-.46.379-.859.67-1.196a3.02 3.02 0 0 1 1.08-.793 3.511 3.511 0 0 1 1.45-.287c.542 0 1.025.095 1.449.287.428.187.79.451 1.087.793.296.337.521.736.676 1.196.155.456.233.95.233 1.484v.157c0 .533-.078 1.027-.233 1.483a3.54 3.54 0 0 1 -.676 1.196 3.136 3.136 0 0 1 -1.08.793 3.542 3.542 0 0 1 -1.443.281 3.608 3.608 0 0 1 -1.456-.281 3.117 3.117 0 0 1 -1.08-.793 3.543 3.543 0 0 1 -.677-1.196 4.579 4.579 0 0 1 -.232-1.483zm1.647-.157v.157c0 .332.035.647.103.943s.175.556.321.779c.146.224.333.399.561.527.228.127.499.191.813.191.306 0 .57-.064.793-.191a1.59 1.59 0 0 0 .561-.527c.146-.223.253-.483.321-.779.073-.296.109-.611.109-.943v-.157c0-.329-.036-.638-.109-.93a2.391 2.391 0 0 0 -.328-.786 1.563 1.563 0 0 0 -.561-.533 1.533 1.533 0 0 0 -.799-.199c-.31 0-.579.066-.807.199a1.585 1.585 0 0 0 -.554.533 2.47 2.47 0 0 0 -.321.786 4.084 4.084 0 0 0 -.103.93zm11.348-3.623h1.497v7.191c0 .665-.141 1.23-.424 1.695a2.727 2.727 0 0 1 -1.182 1.06c-.506.246-1.092.369-1.757.369-.283 0-.597-.041-.944-.123a3.858 3.858 0 0 1 -.998-.397 2.457 2.457 0 0 1 -.799-.704l.772-.97c.264.314.556.544.875.69s.654.219 1.005.219c.378 0 .699-.071.964-.212.269-.137.476-.34.622-.609.146-.268.219-.597.219-.984v-5.551zm-5.024 3.78v-.144c0-.56.068-1.071.205-1.531.136-.465.332-.864.588-1.196.255-.338.565-.595.929-.773a2.735 2.735 0 0 1 1.238-.273c.478 0 .886.086 1.223.26.342.173.627.421.855.745.228.319.405.702.533 1.148.132.442.23.934.294 1.477v.458a7.414 7.414 0 0 1 -.301 1.449 3.984 3.984 0 0 1 -.561 1.135 2.384 2.384 0 0 1 -.861.738c-.337.173-.736.26-1.196.26-.451 0-.859-.094-1.224-.281a2.757 2.757 0 0 1 -.929-.786 3.685 3.685 0 0 1 -.588-1.189 5.224 5.224 0 0 1 -.205-1.497zm1.647-.144v.144c0 .337.032.651.096.943.068.292.171.549.307.773.142.218.319.392.534.519.218.123.476.185.772.185.387 0 .704-.082.95-.246.251-.164.442-.385.574-.663a3.36 3.36 0 0 0 .288-.944v-1.237a3.072 3.072 0 0 0 -.171-.752 2.006 2.006 0 0 0 -.335-.608 1.403 1.403 0 0 0 -.534-.411c-.214-.1-.467-.15-.758-.15-.297 0-.554.064-.773.191a1.564 1.564 0 0 0 -.54.527 2.583 2.583 0 0 0 -.307.779 4.18 4.18 0 0 0 -.103.95zm8.347-6.74v10.5h-1.655v-10.5zm5.065 10.637a3.937 3.937 0 0 1 -1.483-.267 3.261 3.261 0 0 1 -1.121-.759 3.349 3.349 0 0 1 -.704-1.141 3.978 3.978 0 0 1 -.247-1.415v-.274c0-.579.085-1.103.253-1.572.169-.469.404-.87.704-1.203a3.039 3.039 0 0 1 1.067-.773c.41-.177.854-.266 1.333-.266.529 0 .991.089 1.388.266.396.178.724.429.984.752.264.319.46.7.588 1.142a5.1 5.1 0 0 1 .198 1.463v.704h-5.715v-1.183h4.088v-.13a2.3 2.3 0 0 0 -.178-.834 1.408 1.408 0 0 0 -.485-.628c-.219-.16-.51-.24-.875-.24-.273 0-.517.06-.731.178a1.45 1.45 0 0 0 -.527.499 2.65 2.65 0 0 0 -.328.793 4.447 4.447 0 0 0 -.109 1.032v.274c0 .323.043.624.13.902.091.273.223.513.396.718s.383.367.629.485c.246.114.526.171.841.171.396 0 .75-.08 1.059-.239.31-.16.579-.385.807-.677l.868.841a3.382 3.382 0 0 1 -.622.67 3.12 3.12 0 0 1 -.936.512c-.365.133-.789.199-1.272.199z" fill="#fff"/><rect fill="#fff" height="38" rx="1" width="38" x="190" y="516"/><path d="m217.447 535.693c0-.603-.054-1.182-.153-1.738h-7.903v3.288h4.516a3.914 3.914 0 0 1 -1.674 2.565v2.133h2.711c1.587-1.48 2.503-3.659 2.503-6.248z" fill="#4285f4"/><path d="m209.391 544c2.266 0 4.165-.761 5.553-2.059l-2.711-2.133c-.752.51-1.713.811-2.842.811-2.185 0-4.035-1.495-4.695-3.504h-2.804v2.202c1.381 2.778 4.219 4.683 7.499 4.683z" fill="#34a853"/><path d="m204.696 537.115a5.166 5.166 0 0 1 -.263-1.615c0-.56.095-1.105.263-1.615v-2.202h-2.803a8.574 8.574 0 0 0 -.893 3.817c0 1.372.324 2.67.893 3.817z" fill="#fbbc05"/><path d="m209.391 530.381c1.232 0 2.338.429 3.208 1.271l2.406-2.438c-1.453-1.372-3.352-2.214-5.614-2.214-3.28 0-6.118 1.905-7.499 4.683l2.804 2.202c.66-2.009 2.51-3.504 4.695-3.504z" fill="#ea4335"/><path d="m189 486h168v1h-168zm224 0h168v1h-168z" fill="#aeaeb6"/><path d="m385.117 487.705c0 1.418-.351 2.508-1.055 3.27-.703.761-1.71 1.142-3.023 1.142-1.312 0-2.32-.381-3.023-1.142-.704-.762-1.055-1.856-1.055-3.282 0-1.425.351-2.513 1.055-3.263.707-.754 1.718-1.131 3.035-1.131 1.316 0 2.322.379 3.017 1.137.7.757 1.049 1.847 1.049 3.269zm-6.252 0c0 .957.182 1.678.545 2.162.363.485.906.727 1.629.727 1.449 0 2.174-.963 2.174-2.889 0-1.93-.721-2.894-2.162-2.894-.723 0-1.268.244-1.635.732-.367.484-.551 1.205-.551 2.162zm9.844-.469h.586c.574 0 .998-.095 1.271-.287.274-.191.411-.492.411-.902 0-.406-.141-.695-.422-.867-.278-.172-.709-.258-1.295-.258h-.551zm0 1.477v3.287h-1.816v-8.566h2.496c1.164 0 2.025.212 2.584.638.558.422.838 1.065.838 1.928 0 .504-.139.953-.416 1.348-.278.39-.67.697-1.178.92a359.727 359.727 0 0 0 2.519 3.732h-2.015l-2.045-3.287z" fill="#8c8b96"/><rect fill="#bbd0e3" height="40" rx="2" width="96" x="485" y="411"/><path d="m526.52 436h-2.003l-4.915-7.964h-.055l.034.444c.064.848.096 1.623.096 2.325v5.195h-1.484v-9.994h1.983l4.901 7.923h.041a50.313 50.313 0 0 1 -.055-1.142 40.545 40.545 0 0 1 -.041-1.545v-5.236h1.498zm5.769.137c-1.176 0-2.096-.342-2.762-1.026-.66-.688-.991-1.633-.991-2.837 0-1.235.308-2.205.923-2.912.615-.706 1.461-1.059 2.536-1.059.998 0 1.787.303 2.365.909.579.606.869 1.44.869 2.502v.868h-5.039c.023.734.221 1.299.595 1.695.374.392.9.588 1.579.588.447 0 .862-.041 1.244-.123a6.674 6.674 0 0 0 1.245-.424v1.306a4.956 4.956 0 0 1 -1.19.397 7.334 7.334 0 0 1 -1.374.116zm-.294-6.617c-.51 0-.92.161-1.23.485-.306.323-.488.795-.547 1.415h3.431c-.009-.624-.159-1.096-.451-1.415-.291-.324-.692-.485-1.203-.485zm6.74 2.618-2.536-3.699h1.832l1.723 2.646 1.736-2.646h1.819l-2.543 3.699 2.672 3.862h-1.818l-1.866-2.83-1.859 2.83h-1.819zm8.846 2.7a3.91 3.91 0 0 0 1.176-.185v1.21a3.093 3.093 0 0 1 -.691.192 4.54 4.54 0 0 1 -.868.082c-1.522 0-2.283-.802-2.283-2.407v-4.074h-1.032v-.711l1.107-.588.547-1.599h.991v1.681h2.154v1.217h-2.154v4.047c0 .387.096.675.287.861.196.183.452.274.766.274z" fill="#fff"/><path d="m191.174 388h-.996v-8.566h4.775v.884h-3.779v3.135h3.551v.885h-3.551zm10.599-3.217c0 1.047-.263 1.865-.791 2.455-.527.586-1.255.879-2.185.879-.574 0-1.084-.135-1.529-.404a2.672 2.672 0 0 1 -1.032-1.16c-.242-.504-.363-1.094-.363-1.77 0-1.047.262-1.861.785-2.443.524-.586 1.25-.879 2.18-.879.898 0 1.611.299 2.139.896.531.598.796 1.407.796 2.426zm-4.892 0c0 .821.164 1.446.492 1.875.328.43.811.645 1.447.645.637 0 1.119-.213 1.448-.639.332-.43.498-1.057.498-1.881 0-.816-.166-1.435-.498-1.857-.329-.426-.815-.639-1.459-.639-.637 0-1.118.209-1.442.627s-.486 1.041-.486 1.869zm9.533-3.322c.285 0 .541.023.768.07l-.135.903a3.29 3.29 0 0 0 -.703-.088c-.52 0-.965.211-1.336.633-.367.421-.551.947-.551 1.576v3.445h-.973v-6.422h.803l.111 1.19h.047c.239-.418.526-.741.862-.967.336-.227.705-.34 1.107-.34zm7.225.117v.615l-1.19.141c.11.137.207.316.293.539.086.219.129.467.129.744 0 .629-.215 1.131-.644 1.506-.43.375-1.02.563-1.77.563-.191 0-.371-.016-.539-.047-.414.218-.621.494-.621.826 0 .176.072.306.217.392.144.082.392.123.744.123h1.137c.695 0 1.228.147 1.599.44.375.293.563.719.563 1.277 0 .711-.286 1.252-.856 1.623-.57.375-1.402.563-2.496.563-.84 0-1.488-.156-1.945-.469-.453-.312-.68-.754-.68-1.324 0-.391.125-.729.375-1.014s.602-.478 1.055-.58a1.03 1.03 0 0 1 -.416-.346.922.922 0 0 1 -.164-.545c0-.234.062-.439.187-.615s.322-.345.592-.51a1.741 1.741 0 0 1 -.814-.697 2.063 2.063 0 0 1 -.311-1.125c0-.703.211-1.244.633-1.623.422-.383 1.019-.574 1.793-.574.336 0 .638.039.908.117zm-5.121 7.5c0 .348.146.611.439.791s.713.27 1.26.27c.816 0 1.42-.123 1.81-.369.395-.243.592-.573.592-.991 0-.347-.107-.59-.322-.726-.215-.133-.619-.199-1.213-.199h-1.166c-.441 0-.785.105-1.031.316s-.369.514-.369.908zm.527-5.443c0 .449.127.789.381 1.019.254.231.607.346 1.06.346.95 0 1.424-.461 1.424-1.383 0-.965-.48-1.447-1.441-1.447-.457 0-.809.123-1.055.369s-.369.611-.369 1.096zm11.455 1.148c0 1.047-.264 1.865-.791 2.455-.527.586-1.256.879-2.186.879-.574 0-1.084-.135-1.529-.404a2.67 2.67 0 0 1 -1.031-1.16c-.242-.504-.363-1.094-.363-1.77 0-1.047.261-1.861.785-2.443.523-.586 1.25-.879 2.179-.879.899 0 1.612.299 2.139.896.531.598.797 1.407.797 2.426zm-4.893 0c0 .821.164 1.446.493 1.875.328.43.81.645 1.447.645s1.119-.213 1.447-.639c.332-.43.498-1.057.498-1.881 0-.816-.166-1.435-.498-1.857-.328-.426-.814-.639-1.459-.639-.637 0-1.117.209-1.441.627s-.487 1.041-.487 1.869zm8.678 2.531c.172 0 .338-.011.498-.035.16-.027.287-.054.381-.082v.744a1.705 1.705 0 0 1 -.469.123 3.167 3.167 0 0 1 -.55.053c-1.243 0-1.864-.654-1.864-1.963v-3.82h-.92v-.469l.92-.404.41-1.371h.563v1.488h1.863v.756h-1.863v3.779c0 .387.092.684.275.891.184.207.436.31.756.31zm6.199-5.736v4.166c0 .524.12.914.358 1.172s.611.387 1.119.387c.672 0 1.162-.184 1.471-.551.312-.367.468-.967.468-1.799v-3.375h.973v6.422h-.803l-.14-.861h-.053a1.938 1.938 0 0 1 -.832.726 2.769 2.769 0 0 1 -1.207.252c-.781 0-1.367-.185-1.758-.556-.387-.372-.58-.965-.58-1.782v-4.201zm10.6 4.67c0 .598-.223 1.059-.668 1.383s-1.07.486-1.875.486c-.852 0-1.516-.135-1.992-.404v-.902c.308.156.639.279.99.369.356.09.697.134 1.025.134.508 0 .899-.08 1.172-.24.274-.164.41-.412.41-.744 0-.25-.109-.463-.328-.639-.214-.179-.636-.39-1.265-.632-.598-.223-1.024-.416-1.278-.58a1.807 1.807 0 0 1 -.562-.569 1.495 1.495 0 0 1 -.182-.756c0-.523.213-.935.639-1.236.426-.305 1.01-.457 1.752-.457a5.13 5.13 0 0 1 2.027.422l-.345.791c-.645-.266-1.229-.399-1.752-.399-.461 0-.809.073-1.043.217-.235.145-.352.344-.352.598 0 .172.043.318.129.439.09.121.232.237.428.346.195.109.57.268 1.125.475.761.277 1.275.556 1.541.838.269.281.404.634.404 1.06zm4.301 1.869c-.949 0-1.699-.289-2.25-.867-.547-.578-.821-1.381-.821-2.408 0-1.035.254-1.858.762-2.467.512-.609 1.197-.914 2.057-.914.805 0 1.441.266 1.91.797.469.527.703 1.224.703 2.092v.615h-4.424c.02.754.209 1.326.569 1.717.363.39.873.586 1.529.586.691 0 1.375-.145 2.051-.434v.867c-.344.149-.67.254-.979.317a5.31 5.31 0 0 1 -1.107.099zm-.264-5.842c-.516 0-.928.168-1.236.504-.305.336-.485.801-.539 1.395h3.357c0-.613-.137-1.082-.41-1.406-.273-.329-.664-.493-1.172-.493zm7.219-.814c.285 0 .541.023.767.07l-.134.903a3.29 3.29 0 0 0 -.703-.088c-.52 0-.965.211-1.336.633-.368.421-.551.947-.551 1.576v3.445h-.973v-6.422h.803l.111 1.19h.047c.238-.418.525-.741.861-.967.336-.227.706-.34 1.108-.34zm6.363 6.539v-4.154c0-.524-.119-.914-.357-1.172-.239-.258-.612-.387-1.119-.387-.672 0-1.165.182-1.477.545s-.469.963-.469 1.799v3.369h-.972v-6.422h.791l.158.879h.047c.199-.316.478-.561.838-.732a2.69 2.69 0 0 1 1.201-.264c.773 0 1.355.187 1.746.562.39.372.586.967.586 1.788v4.189zm6.926 0-.193-.914h-.047c-.321.402-.641.676-.961.82-.317.141-.713.211-1.19.211-.636 0-1.136-.164-1.5-.492-.359-.328-.539-.795-.539-1.4 0-1.297 1.037-1.977 3.112-2.039l1.089-.036v-.398c0-.504-.109-.875-.328-1.113-.215-.243-.56-.364-1.037-.364-.535 0-1.14.164-1.816.493l-.299-.745a4.631 4.631 0 0 1 2.174-.55c.765 0 1.332.17 1.699.509.371.34.557.885.557 1.635v4.383zm-2.197-.686c.605 0 1.08-.166 1.423-.498.348-.332.522-.796.522-1.394v-.58l-.973.041c-.773.027-1.332.148-1.675.363-.34.211-.51.541-.51.99 0 .352.105.619.316.803.215.184.514.275.897.275zm13.113.686v-4.178c0-.511-.109-.894-.328-1.148-.219-.258-.559-.387-1.02-.387-.605 0-1.052.174-1.342.522-.289.347-.433.882-.433 1.605v3.586h-.973v-4.178c0-.511-.109-.894-.328-1.148-.219-.258-.56-.387-1.025-.387-.61 0-1.057.184-1.342.551-.281.363-.422.961-.422 1.793v3.369h-.973v-6.422h.791l.159.879h.046c.184-.312.442-.557.774-.732a2.387 2.387 0 0 1 1.125-.264c1.004 0 1.66.363 1.969 1.09h.047c.191-.336.468-.602.832-.797a2.583 2.583 0 0 1 1.242-.293c.726 0 1.269.187 1.629.562.363.372.545.967.545 1.788v4.189zm5.695.117c-.949 0-1.699-.289-2.25-.867-.547-.578-.82-1.381-.82-2.408 0-1.035.254-1.858.762-2.467.511-.609 1.197-.914 2.056-.914.805 0 1.442.266 1.91.797.469.527.704 1.224.704 2.092v.615h-4.424c.019.754.209 1.326.568 1.717.363.39.873.586 1.529.586.692 0 1.375-.145 2.051-.434v.867c-.344.149-.67.254-.978.317a5.32 5.32 0 0 1 -1.108.099zm-.263-5.842c-.516 0-.928.168-1.237.504-.304.336-.484.801-.539 1.395h3.358c0-.613-.137-1.082-.411-1.406-.273-.329-.664-.493-1.171-.493zm4.951 3.364v-.317c0-.457.07-.832.211-1.125.14-.297.402-.609.785-.937.531-.449.865-.787 1.002-1.014.14-.226.211-.5.211-.82 0-.399-.129-.705-.387-.92-.254-.219-.621-.328-1.102-.328-.308 0-.609.037-.902.111-.293.07-.629.201-1.008.393l-.345-.791a4.916 4.916 0 0 1 2.314-.58c.746 0 1.326.183 1.74.55.414.368.621.885.621 1.553 0 .285-.039.537-.117.756-.074.215-.185.42-.334.615-.148.192-.469.502-.961.932-.394.336-.656.615-.785.838-.125.222-.187.519-.187.89v.194zm-.287 1.74c0-.531.234-.797.703-.797.226 0 .4.068.521.205.125.137.188.334.188.592 0 .25-.063.445-.188.586-.125.137-.299.205-.521.205a.72.72 0 0 1 -.504-.182c-.133-.125-.199-.328-.199-.609z" fill="#363545"/><path d="m189 389.201h101.385v.598h-101.385z" fill="#363545"/><rect height="39" rx="1.5" stroke="#eaeaef" width="391" x="189.5" y="323.5"/><path d="m189 362h392v1h-392z" fill="#8c8b96"/><path d="m211.33 348v-4.847c0-.61-.139-1.066-.417-1.367s-.713-.451-1.306-.451c-.783 0-1.358.212-1.722.636-.365.424-.547 1.123-.547 2.098v3.931h-1.135v-7.492h.923l.185 1.025h.054c.233-.369.559-.654.978-.854a3.145 3.145 0 0 1 1.401-.308c.902 0 1.582.219 2.037.656.456.433.684 1.128.684 2.085v4.888zm8.08 0-.225-1.066h-.055c-.374.469-.748.788-1.121.957-.369.164-.832.246-1.388.246-.743 0-1.326-.192-1.75-.575-.419-.382-.629-.927-.629-1.633 0-1.513 1.21-2.306 3.63-2.379l1.272-.041v-.465c0-.588-.128-1.021-.383-1.299-.251-.282-.654-.424-1.21-.424-.625 0-1.331.192-2.119.575l-.349-.869c.369-.2.772-.357 1.21-.471a5.29 5.29 0 0 1 1.326-.171c.893 0 1.554.198 1.983.594.433.397.649 1.033.649 1.908v5.113zm-2.563-.8c.706 0 1.26-.193 1.661-.581.405-.387.608-.93.608-1.627v-.677l-1.135.048c-.902.032-1.554.173-1.955.424-.396.246-.594.631-.594 1.155 0 .411.123.723.369.937.25.214.599.321 1.046.321zm15.299.8v-4.874c0-.597-.128-1.044-.383-1.34-.256-.301-.652-.451-1.19-.451-.706 0-1.228.203-1.565.608-.337.406-.506 1.03-.506 1.873v4.184h-1.135v-4.874c0-.597-.127-1.044-.383-1.34-.255-.301-.654-.451-1.196-.451-.711 0-1.233.214-1.565.643-.328.423-.493 1.121-.493 2.091v3.931h-1.134v-7.492h.923l.184 1.025h.055c.214-.364.515-.649.902-.854.392-.205.83-.308 1.313-.308 1.171 0 1.937.424 2.297 1.272h.054c.224-.392.547-.702.971-.93a3.011 3.011 0 0 1 1.449-.342c.848 0 1.481.219 1.901.656.423.433.635 1.128.635 2.085v4.888zm6.644.137c-1.107 0-1.982-.338-2.625-1.012-.638-.674-.957-1.611-.957-2.81 0-1.207.296-2.167.889-2.877.597-.711 1.396-1.067 2.399-1.067.939 0 1.682.31 2.229.93.546.615.82 1.428.82 2.44v.718h-5.161c.023.88.244 1.547.663 2.003.424.456 1.018.684 1.784.684.807 0 1.604-.169 2.393-.506v1.011a5.761 5.761 0 0 1 -1.142.37 6.193 6.193 0 0 1 -1.292.116zm-.308-6.816c-.601 0-1.082.196-1.442.588-.355.392-.565.934-.629 1.627h3.917c0-.715-.159-1.262-.478-1.64-.319-.383-.775-.575-1.368-.575zm15.559 1.696c0 .647-.1 1.239-.301 1.777-.2.538-.483.955-.847 1.251a1.94 1.94 0 0 1 -1.258.444c-.392 0-.723-.118-.991-.355a1.426 1.426 0 0 1 -.479-.909h-.055a2.154 2.154 0 0 1 -.786.929c-.337.224-.738.335-1.203.335-.683 0-1.219-.232-1.606-.697-.383-.469-.575-1.105-.575-1.907 0-.93.269-1.684.807-2.263.538-.583 1.244-.875 2.119-.875.31 0 .661.03 1.053.089.392.055.745.132 1.06.232l-.171 3.213v.151c0 .811.303 1.216.909 1.216.415 0 .752-.243 1.012-.731.259-.492.389-1.13.389-1.914 0-.825-.168-1.547-.506-2.167a3.46 3.46 0 0 0 -1.442-1.429c-.62-.337-1.333-.506-2.14-.506-1.016 0-1.9.212-2.652.636a4.175 4.175 0 0 0 -1.723 1.805c-.396.779-.594 1.681-.594 2.707 0 1.39.366 2.458 1.1 3.206.734.747 1.791 1.121 3.172 1.121.957 0 1.951-.196 2.98-.588v.909c-.875.383-1.868.574-2.98.574-1.654 0-2.939-.453-3.855-1.36-.912-.911-1.368-2.183-1.368-3.814 0-1.185.244-2.24.732-3.165a5.168 5.168 0 0 1 2.085-2.147c.902-.51 1.937-.765 3.103-.765.98 0 1.851.207 2.612.622.765.41 1.355.995 1.77 1.756.419.757.629 1.63.629 2.619zm-7.068.895c0 1.158.444 1.736 1.333 1.736.943 0 1.456-.713 1.538-2.139l.095-1.784a3.96 3.96 0 0 0 -1.073-.137c-.592 0-1.057.205-1.394.615-.333.41-.499.98-.499 1.709zm12.27 4.225c-1.107 0-1.982-.338-2.625-1.012-.638-.674-.957-1.611-.957-2.81 0-1.207.296-2.167.889-2.877.597-.711 1.397-1.067 2.399-1.067.939 0 1.682.31 2.229.93.547.615.82 1.428.82 2.44v.718h-5.161c.023.88.244 1.547.663 2.003.424.456 1.019.684 1.784.684.807 0 1.604-.169 2.393-.506v1.011a5.761 5.761 0 0 1 -1.142.37 6.193 6.193 0 0 1 -1.292.116zm-.307-6.816c-.602 0-1.083.196-1.443.588-.355.392-.565.934-.629 1.627h3.917c0-.715-.159-1.262-.478-1.64-.319-.383-.775-.575-1.367-.575zm14.553 6.679v-4.874c0-.597-.127-1.044-.383-1.34-.255-.301-.651-.451-1.189-.451-.706 0-1.228.203-1.565.608-.338.406-.506 1.03-.506 1.873v4.184h-1.135v-4.874c0-.597-.128-1.044-.383-1.34-.255-.301-.654-.451-1.196-.451-.711 0-1.233.214-1.566.643-.328.423-.492 1.121-.492 2.091v3.931h-1.135v-7.492h.923l.185 1.025h.055c.214-.364.515-.649.902-.854a2.787 2.787 0 0 1 1.312-.308c1.172 0 1.937.424 2.297 1.272h.055c.223-.392.547-.702.971-.93.423-.228.907-.342 1.449-.342.848 0 1.481.219 1.9.656.424.433.636 1.128.636 2.085v4.888zm8.087 0-.225-1.066h-.055c-.374.469-.747.788-1.121.957-.369.164-.832.246-1.388.246-.743 0-1.326-.192-1.75-.575-.419-.382-.629-.927-.629-1.633 0-1.513 1.21-2.306 3.63-2.379l1.272-.041v-.465c0-.588-.128-1.021-.383-1.299-.251-.282-.654-.424-1.21-.424-.625 0-1.331.192-2.119.575l-.349-.869c.369-.2.772-.357 1.21-.471a5.29 5.29 0 0 1 1.326-.171c.893 0 1.554.198 1.983.594.433.397.649 1.033.649 1.908v5.113zm-2.563-.8c.706 0 1.26-.193 1.661-.581.405-.387.608-.93.608-1.627v-.677l-1.135.048c-.902.032-1.554.173-1.955.424-.396.246-.594.631-.594 1.155 0 .411.123.723.369.937.25.214.599.321 1.046.321zm6.883.8h-1.134v-7.492h1.134zm-1.23-9.522c0-.26.064-.449.191-.568a.664.664 0 0 1 .479-.184c.182 0 .339.061.472.184.132.123.198.312.198.568 0 .255-.066.446-.198.574a.671.671 0 0 1 -.472.184.664.664 0 0 1 -.479-.184c-.127-.128-.191-.319-.191-.574zm4.772 9.522h-1.135v-10.637h1.135zm2.242-.725c0-.305.068-.535.205-.69.141-.16.342-.239.601-.239.265 0 .47.079.616.239.15.155.225.385.225.69 0 .297-.075.524-.225.684-.151.159-.356.239-.616.239a.827.827 0 0 1 -.581-.212c-.15-.146-.225-.382-.225-.711zm6.89.862c-1.084 0-1.925-.333-2.522-.998-.593-.67-.889-1.616-.889-2.837 0-1.253.301-2.222.903-2.906.606-.683 1.467-1.025 2.584-1.025.36 0 .72.039 1.08.116.36.078.642.169.847.274l-.348.964a4.941 4.941 0 0 0 -.821-.246 3.509 3.509 0 0 0 -.786-.103c-1.522 0-2.283.971-2.283 2.912 0 .921.185 1.627.554 2.119.373.492.925.739 1.654.739.624 0 1.265-.135 1.921-.404v1.005c-.501.26-1.133.39-1.894.39zm10.145-3.89c0 1.221-.308 2.176-.923 2.864-.615.684-1.465 1.026-2.55 1.026-.67 0-1.264-.158-1.784-.472s-.921-.766-1.203-1.353c-.283-.588-.424-1.277-.424-2.065 0-1.221.305-2.171.916-2.851.611-.683 1.458-1.025 2.543-1.025 1.048 0 1.88.349 2.495 1.046.62.697.93 1.641.93 2.83zm-5.708 0c0 .957.191 1.686.574 2.188.383.501.946.752 1.689.752.742 0 1.305-.249 1.688-.746.387-.501.581-1.232.581-2.194 0-.952-.194-1.675-.581-2.167-.383-.497-.95-.745-1.702-.745-.743 0-1.304.244-1.682.731-.378.488-.567 1.215-.567 2.181zm17.254 3.753v-4.874c0-.597-.128-1.044-.383-1.34-.255-.301-.652-.451-1.19-.451-.706 0-1.228.203-1.565.608-.337.406-.506 1.03-.506 1.873v4.184h-1.135v-4.874c0-.597-.127-1.044-.382-1.34-.256-.301-.654-.451-1.197-.451-.711 0-1.232.214-1.565.643-.328.423-.492 1.121-.492 2.091v3.931h-1.135v-7.492h.923l.184 1.025h.055c.214-.364.515-.649.902-.854.392-.205.83-.308 1.313-.308 1.171 0 1.937.424 2.297 1.272h.054c.224-.392.547-.702.971-.93a3.011 3.011 0 0 1 1.449-.342c.848 0 1.481.219 1.901.656.424.433.636 1.128.636 2.085v4.888z" fill="#aeaeb6"/><path d="m196.646 302.434v5.543c0 .976-.294 1.744-.884 2.302-.59.559-1.401.838-2.432.838s-1.83-.281-2.396-.844c-.563-.562-.844-1.335-.844-2.32v-5.519h.996v5.589c0 .715.195 1.264.586 1.647.39.383.965.574 1.723.574.722 0 1.279-.191 1.669-.574.391-.387.586-.94.586-1.658v-5.578zm6.27 6.814c0 .598-.223 1.059-.668 1.383s-1.07.486-1.875.486c-.852 0-1.516-.135-1.992-.404v-.902c.308.156.639.279.99.369.356.09.697.134 1.025.134.508 0 .899-.08 1.172-.24.274-.164.411-.412.411-.744 0-.25-.11-.463-.329-.639-.214-.179-.636-.39-1.265-.632-.598-.223-1.024-.416-1.278-.58a1.807 1.807 0 0 1 -.562-.569 1.495 1.495 0 0 1 -.182-.756c0-.523.213-.935.639-1.236.426-.305 1.01-.457 1.752-.457a5.13 5.13 0 0 1 2.027.422l-.345.791c-.645-.266-1.229-.399-1.752-.399-.461 0-.809.073-1.043.217-.235.145-.352.344-.352.598 0 .172.043.318.129.439.09.121.232.237.428.346.195.109.57.268 1.125.475.761.277 1.275.556 1.541.838.269.281.404.634.404 1.06zm4.301 1.869c-.949 0-1.699-.289-2.25-.867-.547-.578-.821-1.381-.821-2.408 0-1.035.254-1.858.762-2.467.512-.609 1.197-.914 2.057-.914.805 0 1.441.266 1.91.797.469.527.703 1.224.703 2.092v.615h-4.424c.02.754.209 1.326.569 1.717.363.39.873.586 1.529.586.691 0 1.375-.145 2.051-.434v.867c-.344.149-.67.254-.979.317a5.31 5.31 0 0 1 -1.107.099zm-.264-5.842c-.515 0-.928.168-1.236.504-.305.336-.485.801-.539 1.395h3.357c0-.613-.137-1.082-.41-1.406-.273-.329-.664-.493-1.172-.493zm7.219-.814c.285 0 .541.023.767.07l-.134.903a3.29 3.29 0 0 0 -.703-.088c-.52 0-.965.211-1.336.633-.368.421-.551.947-.551 1.576v3.445h-.973v-6.422h.803l.111 1.19h.047c.238-.418.526-.741.861-.967.336-.227.706-.34 1.108-.34zm6.363 6.539v-4.154c0-.524-.119-.914-.357-1.172-.239-.258-.612-.387-1.119-.387-.672 0-1.164.182-1.477.545-.312.363-.469.963-.469 1.799v3.369h-.972v-6.422h.791l.158.879h.047c.199-.316.478-.561.838-.732a2.69 2.69 0 0 1 1.201-.264c.773 0 1.355.187 1.746.562.39.372.586.967.586 1.788v4.189zm6.926 0-.193-.914h-.047c-.321.402-.641.676-.961.82-.317.141-.713.211-1.19.211-.636 0-1.136-.164-1.5-.492-.359-.328-.539-.795-.539-1.4 0-1.297 1.037-1.977 3.112-2.039l1.089-.036v-.398c0-.504-.109-.875-.328-1.113-.215-.243-.56-.364-1.037-.364-.535 0-1.14.164-1.816.493l-.299-.745a4.631 4.631 0 0 1 2.174-.55c.765 0 1.332.17 1.699.509.371.34.557.885.557 1.635v4.383zm-2.197-.686c.605 0 1.08-.166 1.424-.498.347-.332.521-.796.521-1.394v-.58l-.973.041c-.773.027-1.332.148-1.675.363-.34.211-.51.541-.51.99 0 .352.105.619.316.803.215.184.514.275.897.275zm13.113.686v-4.178c0-.511-.109-.894-.328-1.148-.219-.258-.559-.387-1.02-.387-.605 0-1.052.174-1.341.522-.29.347-.434.882-.434 1.605v3.586h-.973v-4.178c0-.511-.109-.894-.328-1.148-.219-.258-.56-.387-1.025-.387-.61 0-1.057.184-1.342.551-.281.363-.422.961-.422 1.793v3.369h-.973v-6.422h.791l.159.879h.047c.183-.312.441-.557.773-.732a2.387 2.387 0 0 1 1.125-.264c1.004 0 1.66.363 1.969 1.09h.047c.191-.336.468-.602.832-.797a2.583 2.583 0 0 1 1.242-.293c.726 0 1.269.187 1.629.562.363.372.545.967.545 1.788v4.189h-.973zm5.695.117c-.949 0-1.699-.289-2.25-.867-.547-.578-.82-1.381-.82-2.408 0-1.035.254-1.858.762-2.467.511-.609 1.197-.914 2.056-.914.805 0 1.442.266 1.91.797.469.527.704 1.224.704 2.092v.615h-4.424c.019.754.209 1.326.568 1.717.363.39.873.586 1.529.586.692 0 1.375-.145 2.051-.434v.867c-.344.149-.67.254-.978.317a5.32 5.32 0 0 1 -1.108.099zm-.263-5.842c-.516 0-.928.168-1.237.504-.304.336-.484.801-.539 1.395h3.358c0-.613-.137-1.082-.411-1.406-.273-.329-.664-.493-1.171-.493z" fill="#6a6976"/><path d="m198.181 274h-1.327l-5.461-8.388h-.055c.073.985.109 1.887.109 2.707v5.681h-1.073v-9.994h1.313l5.448 8.353h.054a82.943 82.943 0 0 1 -.061-1.182 20.685 20.685 0 0 1 -.034-1.436v-5.735h1.087zm5.742.137c-1.108 0-1.983-.338-2.625-1.012-.638-.674-.957-1.611-.957-2.81 0-1.207.296-2.167.888-2.877.597-.711 1.397-1.067 2.4-1.067.939 0 1.682.31 2.228.93.547.615.821 1.428.821 2.44v.718h-5.161c.022.88.243 1.547.663 2.003.424.456 1.018.684 1.784.684.807 0 1.604-.169 2.392-.506v1.011a5.753 5.753 0 0 1 -1.141.37 6.2 6.2 0 0 1 -1.292.116zm-.308-6.816c-.601 0-1.082.196-1.442.588-.356.392-.565.934-.629 1.627h3.917c0-.715-.16-1.262-.479-1.64-.319-.383-.774-.575-1.367-.575zm11.122 6.679-1.374-4.396c-.086-.268-.248-.879-.485-1.832h-.055a25.286 25.286 0 0 1 -.478 1.846l-1.415 4.382h-1.313l-2.044-7.492h1.19c.483 1.882.85 3.315 1.1 4.3.255.984.401 1.647.438 1.989h.054a18.058 18.058 0 0 1 .534-1.989l1.374-4.3h1.23l1.34 4.3c.255.783.428 1.442.52 1.975h.054c.018-.164.066-.417.144-.759.082-.341.558-2.18 1.428-5.516h1.176l-2.071 7.492zm9.482-7.492v4.86c0 .611.139 1.067.417 1.367.278.301.713.452 1.305.452.784 0 1.356-.215 1.716-.643.365-.428.547-1.128.547-2.099v-3.937h1.135v7.492h-.937l-.164-1.005h-.061a2.262 2.262 0 0 1 -.971.848c-.41.196-.88.294-1.408.294-.912 0-1.595-.217-2.051-.65-.451-.433-.677-1.125-.677-2.078v-4.901zm12.366 5.448c0 .697-.26 1.235-.779 1.613-.52.379-1.249.568-2.188.568-.993 0-1.768-.158-2.324-.472v-1.053c.36.183.745.326 1.155.431.415.105.814.157 1.197.157.592 0 1.048-.093 1.367-.28.319-.191.478-.481.478-.868 0-.292-.127-.54-.383-.745-.25-.21-.742-.456-1.476-.739-.697-.259-1.194-.485-1.49-.676a2.11 2.11 0 0 1 -.657-.663 1.75 1.75 0 0 1 -.212-.882c0-.611.249-1.092.746-1.443.496-.355 1.178-.533 2.043-.533.807 0 1.596.164 2.366.492l-.404.923c-.752-.31-1.433-.465-2.044-.465-.537 0-.943.085-1.216.253-.274.169-.41.401-.41.697 0 .201.05.372.15.513.105.141.271.276.499.404.228.127.665.312 1.312.553.889.324 1.488.65 1.798.978.315.328.472.74.472 1.237zm5.018 2.181c-1.108 0-1.983-.338-2.625-1.012-.638-.674-.957-1.611-.957-2.81 0-1.207.296-2.167.888-2.877.597-.711 1.397-1.067 2.4-1.067.938 0 1.681.31 2.228.93.547.615.82 1.428.82 2.44v.718h-5.161c.023.88.244 1.547.663 2.003.424.456 1.019.684 1.785.684.806 0 1.604-.169 2.392-.506v1.011a5.753 5.753 0 0 1 -1.141.37 6.207 6.207 0 0 1 -1.292.116zm-.308-6.816c-.602 0-1.082.196-1.442.588-.356.392-.566.934-.629 1.627h3.917c0-.715-.16-1.262-.479-1.64-.319-.383-.775-.575-1.367-.575zm8.422-.95c.332 0 .631.027.895.082l-.157 1.053a3.89 3.89 0 0 0 -.82-.103c-.606 0-1.126.246-1.559.739-.428.492-.642 1.105-.642 1.838v4.02h-1.135v-7.492h.936l.13 1.388h.055c.278-.488.613-.864 1.005-1.128a2.256 2.256 0 0 1 1.292-.397zm3.069 4.874v-.369c0-.533.082-.971.246-1.313.164-.346.47-.71.916-1.093.62-.524 1.01-.919 1.169-1.183.164-.264.246-.583.246-.957 0-.465-.15-.823-.451-1.073-.296-.255-.724-.383-1.285-.383-.36 0-.711.043-1.053.13a5.56 5.56 0 0 0 -1.176.458l-.403-.923a5.747 5.747 0 0 1 2.7-.677c.871 0 1.548.214 2.031.643.483.428.724 1.032.724 1.811 0 .333-.045.627-.137.882-.086.251-.216.49-.389.718-.173.223-.547.586-1.121 1.087-.461.392-.766.718-.916.977-.146.26-.219.607-.219 1.04v.225zm-.335 2.03c0-.619.274-.929.82-.929.265 0 .468.079.609.239.146.159.219.39.219.69 0 .292-.073.52-.219.684-.146.159-.349.239-.609.239a.835.835 0 0 1 -.587-.212c-.155-.146-.233-.382-.233-.711z" fill="#363545"/><path d="m266.034 265.264c-.939 0-1.677.332-2.215.998-.537.665-.806 1.583-.806 2.755 0 1.226.257 2.153.772 2.782.52.629 1.269.943 2.249.943.424 0 .834-.041 1.231-.123.396-.086.809-.196 1.237-.328v1.401c-.784.297-1.673.445-2.666.445-1.463 0-2.586-.442-3.37-1.326-.784-.889-1.176-2.158-1.176-3.808 0-1.039.189-1.948.567-2.728a4.1 4.1 0 0 1 1.655-1.791c.72-.414 1.565-.622 2.536-.622 1.021 0 1.964.214 2.83.643l-.588 1.36a8.48 8.48 0 0 0 -1.073-.417 3.76 3.76 0 0 0 -1.183-.184zm8.285 1.039c.324 0 .591.023.8.068l-.157 1.497a3.022 3.022 0 0 0 -.711-.082c-.643 0-1.164.21-1.565.629-.397.419-.595.964-.595 1.634v3.951h-1.607v-7.561h1.258l.212 1.333h.082c.251-.451.577-.808.978-1.073.405-.264.84-.396 1.305-.396zm5.51 7.834c-1.176 0-2.096-.342-2.762-1.026-.66-.688-.991-1.633-.991-2.837 0-1.235.308-2.205.923-2.912.615-.706 1.461-1.059 2.536-1.059.998 0 1.787.303 2.365.909.579.606.869 1.44.869 2.502v.868h-5.039c.023.734.221 1.299.595 1.695.374.392.9.588 1.579.588.447 0 .862-.041 1.244-.123a6.65 6.65 0 0 0 1.245-.424v1.306a4.956 4.956 0 0 1 -1.19.397 7.334 7.334 0 0 1 -1.374.116zm-.294-6.617c-.51 0-.92.161-1.23.485-.306.323-.488.795-.547 1.415h3.431c-.009-.624-.159-1.096-.451-1.415-.291-.324-.692-.485-1.203-.485zm9.789 6.48-.321-1.053h-.055c-.364.461-.731.775-1.1.944-.369.164-.843.246-1.422.246-.743 0-1.324-.201-1.743-.602-.415-.401-.622-.968-.622-1.702 0-.779.289-1.367.868-1.764.578-.396 1.46-.613 2.645-.649l1.306-.041v-.403c0-.483-.114-.844-.342-1.08-.223-.242-.572-.363-1.046-.363-.387 0-.759.057-1.114.171a8.362 8.362 0 0 0 -1.025.403l-.52-1.148c.41-.214.859-.376 1.347-.485a6.073 6.073 0 0 1 1.381-.171c.961 0 1.686.209 2.173.629.493.419.739 1.077.739 1.975v5.093zm-2.392-1.094c.583 0 1.05-.162 1.401-.485.355-.328.533-.786.533-1.374v-.656l-.97.041c-.757.027-1.308.155-1.655.382-.342.224-.512.568-.512 1.033 0 .337.1.599.3.786.201.182.502.273.903.273zm8.599-.068a3.91 3.91 0 0 0 1.176-.185v1.21a3.098 3.098 0 0 1 -.69.192 4.55 4.55 0 0 1 -.869.082c-1.522 0-2.283-.802-2.283-2.407v-4.074h-1.032v-.711l1.107-.588.547-1.599h.992v1.681h2.153v1.217h-2.153v4.047c0 .387.095.675.287.861.196.183.451.274.765.274zm5.995 1.299c-1.175 0-2.096-.342-2.761-1.026-.661-.688-.992-1.633-.992-2.837 0-1.235.308-2.205.923-2.912.616-.706 1.461-1.059 2.536-1.059.998 0 1.787.303 2.366.909.578.606.868 1.44.868 2.502v.868h-5.038c.023.734.221 1.299.594 1.695.374.392.901.588 1.58.588.446 0 .861-.041 1.244-.123a6.666 6.666 0 0 0 1.244-.424v1.306a4.956 4.956 0 0 1 -1.19.397 7.334 7.334 0 0 1 -1.374.116zm-.294-6.617c-.51 0-.92.161-1.23.485-.305.323-.488.795-.547 1.415h3.432c-.009-.624-.16-1.096-.451-1.415-.292-.324-.693-.485-1.204-.485zm13.426 6.48-.321-1.053h-.055c-.364.461-.731.775-1.1.944-.37.164-.843.246-1.422.246-.743 0-1.324-.201-1.743-.602-.415-.401-.622-.968-.622-1.702 0-.779.289-1.367.868-1.764.578-.396 1.46-.613 2.645-.649l1.306-.041v-.403c0-.483-.114-.844-.342-1.08-.223-.242-.572-.363-1.046-.363-.387 0-.759.057-1.114.171a8.362 8.362 0 0 0 -1.025.403l-.52-1.148c.41-.214.859-.376 1.347-.485a6.073 6.073 0 0 1 1.381-.171c.961 0 1.686.209 2.173.629.493.419.739 1.077.739 1.975v5.093zm-2.392-1.094c.583 0 1.05-.162 1.401-.485.355-.328.533-.786.533-1.374v-.656l-.971.041c-.756.027-1.307.155-1.654.382-.342.224-.513.568-.513 1.033 0 .337.101.599.301.786.201.182.502.273.903.273zm12.434 1.094h-1.613v-4.648c0-.584-.119-1.019-.356-1.306-.232-.287-.603-.431-1.114-.431-.679 0-1.176.201-1.49.602-.315.401-.472 1.073-.472 2.016v3.767h-1.606v-7.561h1.258l.225.992h.082a2.24 2.24 0 0 1 .971-.834 3.25 3.25 0 0 1 1.394-.294c1.814 0 2.721.923 2.721 2.768zm10.603 0-.322-1.053h-.054c-.365.461-.732.775-1.101.944-.369.164-.843.246-1.422.246-.743 0-1.324-.201-1.743-.602-.415-.401-.622-.968-.622-1.702 0-.779.289-1.367.868-1.764.579-.396 1.461-.613 2.646-.649l1.305-.041v-.403c0-.483-.114-.844-.341-1.08-.224-.242-.572-.363-1.046-.363a3.63 3.63 0 0 0 -1.115.171 8.426 8.426 0 0 0 -1.025.403l-.519-1.148c.41-.214.859-.376 1.346-.485a6.08 6.08 0 0 1 1.381-.171c.962 0 1.686.209 2.174.629.492.419.738 1.077.738 1.975v5.093zm-2.393-1.094c.583 0 1.051-.162 1.402-.485.355-.328.533-.786.533-1.374v-.656l-.971.041c-.756.027-1.308.155-1.654.382-.342.224-.513.568-.513 1.033 0 .337.1.599.301.786.2.182.501.273.902.273zm8.832 1.231c-1.144 0-2.014-.333-2.611-.998-.593-.67-.889-1.63-.889-2.878 0-1.272.31-2.249.93-2.933.624-.683 1.524-1.025 2.7-1.025.798 0 1.515.148 2.153.444l-.485 1.292c-.679-.264-1.24-.396-1.682-.396-1.308 0-1.962.868-1.962 2.604 0 .848.162 1.486.486 1.914.328.424.806.636 1.435.636.716 0 1.393-.178 2.031-.533v1.401a3.16 3.16 0 0 1 -.923.362c-.324.073-.718.11-1.183.11zm6.932 0c-1.144 0-2.014-.333-2.612-.998-.592-.67-.888-1.63-.888-2.878 0-1.272.31-2.249.93-2.933.624-.683 1.524-1.025 2.7-1.025.797 0 1.515.148 2.153.444l-.485 1.292c-.679-.264-1.24-.396-1.682-.396-1.308 0-1.962.868-1.962 2.604 0 .848.162 1.486.485 1.914.329.424.807.636 1.436.636.716 0 1.392-.178 2.03-.533v1.401a3.149 3.149 0 0 1 -.923.362c-.323.073-.717.11-1.182.11zm10.589-3.931c0 1.235-.317 2.199-.951 2.892-.633.692-1.515 1.039-2.645 1.039-.706 0-1.331-.16-1.873-.479a3.163 3.163 0 0 1 -1.251-1.374c-.292-.597-.438-1.29-.438-2.078 0-1.226.315-2.183.944-2.871s1.515-1.032 2.659-1.032c1.094 0 1.96.353 2.598 1.059.638.702.957 1.65.957 2.844zm-5.503 0c0 1.745.645 2.618 1.934 2.618 1.276 0 1.914-.873 1.914-2.618 0-1.727-.642-2.591-1.927-2.591-.675 0-1.165.224-1.47.67-.301.447-.451 1.087-.451 1.921zm12.687 3.794-.225-.991h-.082a2.286 2.286 0 0 1 -.957.827c-.411.2-.88.301-1.409.301-.916 0-1.599-.228-2.05-.684-.452-.456-.677-1.146-.677-2.071v-4.943h1.62v4.663c0 .578.118 1.014.355 1.305.237.287.609.431 1.115.431.674 0 1.169-.201 1.483-.602.319-.405.479-1.082.479-2.03v-3.767h1.613v7.561zm10.206 0h-1.613v-4.648c0-.584-.118-1.019-.355-1.306-.233-.287-.604-.431-1.115-.431-.679 0-1.175.201-1.49.602-.314.401-.472 1.073-.472 2.016v3.767h-1.606v-7.561h1.258l.225.992h.082a2.24 2.24 0 0 1 .971-.834 3.252 3.252 0 0 1 1.395-.294c1.813 0 2.72.923 2.72 2.768zm5.052-1.162a3.91 3.91 0 0 0 1.176-.185v1.21a3.093 3.093 0 0 1 -.691.192 4.54 4.54 0 0 1 -.868.082c-1.522 0-2.283-.802-2.283-2.407v-4.074h-1.032v-.711l1.107-.588.547-1.599h.991v1.681h2.154v1.217h-2.154v4.047c0 .387.096.675.287.861.196.183.452.274.766.274zm2.454.308c0-.333.087-.588.26-.766s.424-.267.752-.267c.333 0 .586.094.759.281.173.182.259.432.259.752 0 .323-.088.581-.266.772-.173.187-.424.28-.752.28s-.579-.093-.752-.28-.26-.444-.26-.772z" fill="#005f9e"/><path d="m199.879 236.664c0 .885-.225 1.673-.674 2.363-.449.684-1.097 1.218-1.943 1.602-.847.378-1.839.566-2.979.566-.95 0-1.748-.065-2.392-.195a9.087 9.087 0 0 1 -2.012-.703v-3.438c.736.378 1.501.674 2.295.889.794.208 1.523.313 2.187.313.573 0 .993-.098 1.26-.293.267-.202.4-.459.4-.772a.807.807 0 0 0 -.166-.508c-.104-.149-.276-.299-.517-.449-.234-.15-.866-.456-1.895-.918-.931-.423-1.631-.833-2.099-1.23a3.849 3.849 0 0 1 -1.035-1.368c-.222-.514-.332-1.123-.332-1.826 0-1.315.478-2.34 1.435-3.076s2.272-1.103 3.945-1.103c1.478 0 2.985.341 4.522 1.025l-1.182 2.978c-1.334-.611-2.487-.917-3.457-.917-.501 0-.866.087-1.094.263-.227.176-.341.394-.341.654 0 .28.143.531.429.752.293.222 1.081.625 2.364 1.211 1.23.554 2.083 1.149 2.558 1.787.482.632.723 1.43.723 2.393zm5.82 4.336h-3.818v-11.064h3.818zm-3.916-13.818c0-.573.16-1 .479-1.28s.833-.42 1.543-.42c.709 0 1.227.144 1.552.43.326.287.489.71.489 1.27 0 1.119-.681 1.679-2.041 1.679-1.348 0-2.022-.56-2.022-1.679zm17.022 2.754v1.845l-1.514.557c.208.377.313.817.313 1.318 0 1.192-.42 2.116-1.26 2.774-.834.657-2.08.986-3.74.986-.411 0-.736-.026-.977-.078a1.017 1.017 0 0 0 -.137.478c0 .189.153.336.459.44.306.098.707.146 1.201.146h1.836c2.481 0 3.721 1.045 3.721 3.135 0 1.348-.576 2.396-1.728 3.145-1.146.748-2.758 1.123-4.834 1.123-1.569 0-2.78-.264-3.633-.791-.847-.521-1.27-1.273-1.27-2.256 0-1.322.82-2.175 2.461-2.559a2.258 2.258 0 0 1 -.889-.693c-.247-.319-.371-.635-.371-.947 0-.345.095-.648.284-.909.188-.267.582-.582 1.181-.947a2.976 2.976 0 0 1 -1.357-1.191c-.326-.541-.489-1.198-.489-1.973 0-1.204.411-2.139 1.231-2.803s1.992-.996 3.516-.996c.201 0 .55.023 1.045.069.494.045.859.087 1.093.127zm-8.34 12.441c0 .312.169.563.508.752.338.195.791.293 1.357.293.925 0 1.663-.117 2.217-.352.56-.228.84-.524.84-.888 0-.293-.17-.502-.508-.625-.339-.118-.824-.176-1.455-.176h-1.494c-.41 0-.759.094-1.045.283-.28.195-.42.433-.42.713zm1.201-8.818c0 1.132.394 1.699 1.182 1.699.364 0 .644-.14.84-.42.201-.28.302-.7.302-1.26 0-1.146-.381-1.719-1.142-1.719-.788 0-1.182.567-1.182 1.7zm15.811 7.441v-6.035c0-.736-.108-1.289-.323-1.66-.208-.378-.547-.567-1.015-.567-.645 0-1.11.257-1.397.772-.286.514-.43 1.396-.43 2.646v4.844h-3.818v-11.064h2.881l.479 1.367h.224a3.03 3.03 0 0 1 1.348-1.172c.579-.261 1.243-.391 1.992-.391 1.224 0 2.174.355 2.852 1.065.683.709 1.025 1.709 1.025 2.998v7.197zm11.835 0v-14.277h3.877v14.277zm13.731 0v-6.035c0-.736-.107-1.289-.322-1.66-.209-.378-.547-.567-1.016-.567-.644 0-1.11.257-1.396.772-.287.514-.43 1.396-.43 2.646v4.844h-3.818v-11.064h2.88l.479 1.367h.225a3.022 3.022 0 0 1 1.347-1.172c.58-.261 1.244-.391 1.992-.391 1.224 0 2.175.355 2.852 1.065.684.709 1.025 1.709 1.025 2.998v7.197z" fill="#363545"/><g clip-path="url(#d)" fill="#005f9e"><path d="m225.994 172.882v-19.84h-7.296v-4.455h19.98v4.48h-7.344v19.84z"/><path d="m234.313 172.882v-17.405h5.275v2.829h.032c.958-1.479 2.622-3.284 5.898-3.284h.163v4.698a15.756 15.756 0 0 0 -1.44-.099 5.821 5.821 0 0 0 -4.653 2.397v10.88zm13.035-19.882v-4.25h5.307v4.25zm.035 19.894v-17.513h5.24v17.501zm7.303-.012v-17.501h5.272v2.758c1.051-1.379 2.983-3.117 5.748-3.117 2.916 0 4.292 1.213 4.79 3.117 1.048-1.344 3.015-3.117 5.748-3.117 3.539 0 5.11 2.24 5.11 5.351v12.509h-5.276v-11.098c0-1.574-.361-2.397-1.9-2.397-1.309 0-2.36.723-3.512 1.741v11.754h-5.266v-11.098c0-1.574-.361-2.397-1.916-2.397-1.309 0-2.357.723-3.538 1.741v11.754zm33.945-2.071v2.071h-5.285v-24.295h5.285v9.488c1.147-1.6 2.785-3.053 5.371-3.053 3.966 0 6.706 3.053 6.706 9.092 0 6.038-2.781 9.046-6.779 9.046-2.36 0-3.998-.87-5.298-2.349zm6.815-6.662c0-2.922-1.016-4.762-3.376-4.762-1.344 0-2.554.823-3.439 1.709v6.467c1.147 1.082 2.095 1.6 3.513 1.6 2.178.007 3.292-1.83 3.292-5.014zm6.897 8.733v-24.295h5.24v24.295zm6.875-8.733c0-6.797 5.177-9.127 8.779-9.127s8.028 1.818 8.028 9.751v.787h-11.566c.265 2.88 1.868 4.003 4.065 4.003a8.026 8.026 0 0 0 5.176-2.099l2.031 3.152c-2.031 1.741-4.554 2.627-7.6 2.627-4.557 0-8.913-2.323-8.913-9.094zm12.09-1.709c-.262-2.461-1.376-3.645-3.343-3.645-1.638 0-3.047 1.085-3.439 3.645zm5.713 8.48a1.99 1.99 0 0 1 .579-1.423 1.975 1.975 0 0 1 1.42-.58 1.997 1.997 0 0 1 1.847 1.236 2.012 2.012 0 0 1 -.433 2.183 2 2 0 0 1 -2.179.435 2.009 2.009 0 0 1 -1.234-1.851zm3.634 0a1.65 1.65 0 0 0 -1.034-1.5 1.64 1.64 0 0 0 -1.78.378 1.651 1.651 0 0 0 .269 2.523 1.636 1.636 0 0 0 2.079-.22 1.64 1.64 0 0 0 .466-1.181zm-2.411-1.139h.818c.517 0 .817.224.817.672a.588.588 0 0 1 -.428.621l.473.899h-.457l-.44-.839h-.345v.839h-.438zm.792 1.017c.268 0 .415-.086.415-.32 0-.233-.147-.32-.424-.32h-.345v.64zm-138.059-1.347v7.549l6.552-3.789a12.472 12.472 0 0 1 -6.552-3.76zm6.504-20.694-6.504-3.757v7.504a12.553 12.553 0 0 1 6.504-3.747zm21.153 12.243-6.55-3.789a12.59 12.59 0 0 1 -.019 7.591zm-23.343-10.266c.939-.208 2.89 0 3.921.285a5.962 5.962 0 0 1 3.312-1.104 13.115 13.115 0 0 0 -7.233.819zm12.482 13.735a16.984 16.984 0 0 0 -1.025-4.202c-2.235 1.018-5.019.362-6.875-1.248a30.757 30.757 0 0 0 -3.65 4.643c3.146 2.57 8.319 3.245 11.55.807zm-13.271-.56c-2.772-2.848-3.739-6.999-2.852-10.189a11.211 11.211 0 0 0 -2.646 7.72 11.207 11.207 0 0 0 3.285 7.47 20.3 20.3 0 0 1 2.213-5.001zm11.742-4.848a15.117 15.117 0 0 0 -2.236-3.45 25.818 25.818 0 0 0 -3.193 2.487c1.68 1.398 3.877 1.673 5.429.963zm-2.085-5.191a11.586 11.586 0 0 1 2.433-1.353c-1.776-1.799-4.63-1.751-5.873-.96a11.879 11.879 0 0 1 3.44 2.313zm-8.645 10.97c-1.379 2.39-1.884 4.16-2.069 5.078a11.163 11.163 0 0 0 6.942 2.247c2.5-.051 4.911-.94 6.847-2.525a9.615 9.615 0 0 0 .638-3.626c-3.819 2.279-9.081 1.408-12.358-1.174zm11.816-6.576c1.223-1.28.977-3.469.048-4.73a9.441 9.441 0 0 0 -2.277 1.338 16.926 16.926 0 0 1 2.229 3.392zm2.107-2.752a4.521 4.521 0 0 1 -1.545 4.029 18.412 18.412 0 0 1 1.063 3.763c1.676-2.182 1.625-5.299.482-7.792zm-9.529 1.616a26.665 26.665 0 0 1 3.143-2.493 10.585 10.585 0 0 0 -3.456-2.109c-1.041 1.399-.721 3.204.313 4.602zm9.248 7.933c.04.949-.006 1.9-.137 2.841a11.334 11.334 0 0 0 2.334-7.84 8.593 8.593 0 0 1 -2.197 4.999z"/><path d="m198.293 152.13a9.062 9.062 0 0 0 -4.439.028c-2.2 3.127-1.179 7.706 1.383 10.56a32.144 32.144 0 0 1 3.72-4.665c-1.303-1.623-1.82-4.128-.664-5.923z"/></g><path d="m225.5 849.5h319v159h-319z" fill="#e0e1e9" stroke="#2700ed" stroke-dasharray="8 8"/><path d="m294.021 926.186c0-.749-.198-1.283-.595-1.602-.391-.319-.941-.479-1.651-.479h-2.802v4.239h2.802c.71 0 1.26-.173 1.651-.518.397-.345.595-.892.595-1.64zm2.979-.02c0 1.699-.43 2.9-1.289 3.604-.859.703-2.087 1.054-3.682 1.054h-3.056v5.176h-2.989v-14.395h6.27c1.445 0 2.598.372 3.457 1.114s1.289 1.891 1.289 3.447zm7.812-1.064c.053 0 .095.003.127.009.04 0 .121.004.245.01v2.852a6.86 6.86 0 0 0 -.801-.049c-1.12 0-1.872.364-2.256 1.094-.215.41-.322 1.041-.322 1.894v5.088h-2.803v-10.645h2.656v1.856c.43-.71.804-1.195 1.123-1.455.521-.436 1.198-.654 2.031-.654zm6.788 8.935c.813 0 1.438-.29 1.875-.869.436-.579.654-1.403.654-2.471 0-1.067-.218-1.888-.654-2.461-.437-.579-1.062-.869-1.875-.869-.814 0-1.442.29-1.885.869-.436.573-.654 1.394-.654 2.461 0 1.068.218 1.892.654 2.471.443.579 1.071.869 1.885.869zm5.449-3.34c0 1.563-.449 2.901-1.348 4.014-.898 1.107-2.262 1.66-4.092 1.66-1.829 0-3.193-.553-4.091-1.66-.899-1.113-1.348-2.451-1.348-4.014 0-1.536.449-2.868 1.348-3.994.898-1.126 2.262-1.689 4.091-1.689 1.83 0 3.194.563 4.092 1.689.899 1.126 1.348 2.458 1.348 3.994zm5.928-5.595c.644 0 1.217.143 1.718.429.502.28.909.671 1.221 1.172v-5.078h2.822v14.375h-2.705v-1.475c-.397.632-.849 1.091-1.357 1.377-.508.287-1.14.43-1.895.43-1.243 0-2.291-.501-3.144-1.504-.847-1.009-1.27-2.301-1.27-3.877 0-1.816.417-3.245 1.25-4.287.84-1.042 1.96-1.562 3.36-1.562zm.605 8.886c.788 0 1.387-.293 1.797-.879s.615-1.344.615-2.275c0-1.302-.329-2.233-.986-2.793a2.122 2.122 0 0 0 -1.406-.508c-.814 0-1.413.309-1.797.928-.378.612-.567 1.374-.567 2.285 0 .983.192 1.771.576 2.363.391.586.98.879 1.768.879zm10.469-8.633v6.416c0 .606.071 1.062.215 1.368.254.54.752.81 1.494.81.95 0 1.601-.384 1.953-1.152.182-.417.273-.967.273-1.651v-5.791h2.823v10.645h-2.705v-1.504c-.027.033-.092.13-.196.293a1.965 1.965 0 0 1 -.371.43c-.436.39-.859.657-1.269.801-.404.143-.879.214-1.426.214-1.576 0-2.637-.566-3.184-1.699-.306-.625-.459-1.546-.459-2.764v-6.416zm15.81 3.819a2.466 2.466 0 0 0 -.4-1.074c-.313-.43-.798-.645-1.455-.645-.938 0-1.579.466-1.924 1.397-.182.494-.273 1.152-.273 1.972 0 .781.091 1.41.273 1.885.332.885.957 1.328 1.875 1.328.651 0 1.113-.176 1.387-.527.273-.352.439-.808.498-1.367h2.842c-.066.846-.372 1.647-.918 2.402-.873 1.217-2.165 1.826-3.877 1.826-1.713 0-2.972-.508-3.78-1.523-.807-1.016-1.211-2.334-1.211-3.955 0-1.83.446-3.252 1.338-4.268s2.123-1.523 3.692-1.523c1.334 0 2.425.299 3.271.898.853.599 1.358 1.657 1.514 3.174zm3.682-1.738v-1.983h1.484v-2.969h2.754v2.969h1.729v1.983h-1.729v5.625c0 .436.056.709.166.82.111.104.449.156 1.016.156h.264l.283-.019v2.08l-1.319.048c-1.315.046-2.213-.182-2.695-.683-.312-.319-.469-.811-.469-1.475v-6.552zm13.496-5.831h3.154l5.733 10.049v-10.049h2.803v14.395h-3.008l-5.879-10.225v10.225h-2.803zm20.147 9.219a3.21 3.21 0 0 1 -.538.274 4.607 4.607 0 0 1 -.732.185l-.625.117c-.586.105-1.006.232-1.26.381-.429.254-.644.648-.644 1.182 0 .475.13.82.39 1.035.267.208.59.313.967.313.599 0 1.149-.176 1.651-.528.507-.351.771-.993.791-1.924zm-1.69-1.299c.514-.065.882-.146 1.104-.244.397-.169.595-.433.595-.791 0-.436-.153-.735-.459-.898-.299-.169-.742-.254-1.328-.254-.657 0-1.123.163-1.396.488-.196.241-.326.567-.391.977h-2.685c.058-.931.319-1.696.781-2.295.735-.938 1.998-1.406 3.789-1.406 1.165 0 2.2.231 3.105.693s1.358 1.335 1.358 2.617v4.883c0 .338.006.749.019 1.23.02.365.075.612.166.743.091.13.228.237.41.322v.41h-3.027a3.123 3.123 0 0 1 -.176-.605 7.727 7.727 0 0 1 -.078-.645 5.712 5.712 0 0 1 -1.328 1.064c-.599.346-1.276.518-2.031.518-.964 0-1.761-.273-2.393-.82-.625-.554-.937-1.335-.937-2.344 0-1.309.504-2.256 1.513-2.842.554-.319 1.368-.547 2.442-.683zm18.848-4.404c.468 0 .931.091 1.386.274.456.182.87.501 1.241.957.299.371.501.826.605 1.367.065.358.098.882.098 1.572l-.02 6.709h-2.851v-6.777c0-.404-.065-.736-.196-.996-.247-.495-.703-.743-1.367-.743-.768 0-1.299.319-1.592.957-.149.339-.224.746-.224 1.221v6.338h-2.803v-6.338c0-.631-.065-1.09-.195-1.377-.235-.514-.694-.771-1.377-.771-.794 0-1.328.257-1.602.771-.149.293-.224.729-.224 1.309v6.406h-2.823v-10.625h2.705v1.553c.346-.554.671-.948.977-1.182.54-.417 1.24-.625 2.1-.625.813 0 1.471.179 1.972.537.404.332.71.759.918 1.28.365-.626.817-1.084 1.358-1.377a4.143 4.143 0 0 1 1.914-.44zm10.097 2.246c-.644 0-1.145.202-1.503.606-.352.403-.573.95-.665 1.64h4.327c-.046-.735-.271-1.292-.674-1.67-.397-.384-.892-.576-1.485-.576zm0-2.295c.886 0 1.683.166 2.393.498s1.296.856 1.758 1.573c.416.631.687 1.364.81 2.197.072.488.101 1.191.088 2.109h-7.285c.039 1.068.374 1.817 1.006 2.246.384.267.846.401 1.387.401.573 0 1.038-.163 1.396-.489.195-.175.368-.419.518-.732h2.842c-.072.632-.401 1.273-.987 1.924-.911 1.035-2.187 1.553-3.828 1.553a5.4 5.4 0 0 1 -3.584-1.309c-1.035-.872-1.553-2.292-1.553-4.258 0-1.842.466-3.255 1.397-4.238.937-.983 2.152-1.475 3.642-1.475zm14.903 6.485c.091.657.27 1.149.537 1.474.488.593 1.325.889 2.51.889.709 0 1.285-.078 1.728-.234.84-.3 1.26-.857 1.26-1.67 0-.476-.208-.843-.625-1.104-.417-.254-1.071-.478-1.963-.674l-1.523-.342c-1.498-.338-2.533-.706-3.106-1.103-.97-.664-1.455-1.703-1.455-3.115 0-1.289.469-2.36 1.406-3.213.938-.853 2.315-1.279 4.131-1.279 1.517 0 2.809.403 3.877 1.21 1.074.801 1.637 1.967 1.69 3.497h-2.891c-.052-.866-.43-1.482-1.133-1.846-.469-.241-1.051-.361-1.748-.361-.775 0-1.393.156-1.855.468-.463.313-.694.749-.694 1.309 0 .514.228.898.684 1.152.293.17.918.368 1.875.596l2.48.596c1.088.26 1.908.608 2.461 1.045.86.677 1.289 1.656 1.289 2.939 0 1.315-.504 2.409-1.513 3.281-1.003.866-2.422 1.299-4.258 1.299-1.875 0-3.35-.426-4.424-1.279-1.074-.86-1.611-2.038-1.611-3.535zm18.271-.879c0-.821-.189-1.546-.566-2.178-.371-.632-.977-.947-1.817-.947-1.009 0-1.702.478-2.08 1.435-.195.508-.293 1.153-.293 1.934 0 1.237.329 2.106.987 2.607.39.293.853.44 1.386.44.775 0 1.364-.3 1.768-.899.41-.599.615-1.396.615-2.392zm-1.582-5.557c1.244 0 2.295.459 3.155 1.377.865.918 1.298 2.266 1.298 4.043 0 1.875-.423 3.304-1.269 4.287-.84.983-1.924 1.475-3.252 1.475-.847 0-1.55-.212-2.11-.635-.306-.234-.605-.576-.898-1.025v5.546h-2.754v-14.834h2.666v1.573c.3-.463.619-.827.957-1.094.619-.475 1.354-.713 2.207-.713zm12.344 5.703a3.24 3.24 0 0 1 -.537.274c-.176.065-.42.127-.733.185l-.625.117c-.586.105-1.005.232-1.259.381-.43.254-.645.648-.645 1.182 0 .475.13.82.391 1.035.267.208.589.313.967.313.599 0 1.149-.176 1.65-.528.508-.351.771-.993.791-1.924zm-1.689-1.299c.514-.065.882-.146 1.103-.244.397-.169.596-.433.596-.791 0-.436-.153-.735-.459-.898-.3-.169-.742-.254-1.328-.254-.658 0-1.123.163-1.397.488-.195.241-.325.567-.391.977h-2.685c.059-.931.319-1.696.781-2.295.736-.938 1.999-1.406 3.789-1.406 1.166 0 2.201.231 3.106.693s1.357 1.335 1.357 2.617v4.883c0 .338.007.749.02 1.23.019.365.075.612.166.743.091.13.228.237.41.322v.41h-3.027a3.054 3.054 0 0 1 -.176-.605 6.966 6.966 0 0 1 -.078-.645 5.717 5.717 0 0 1 -1.329 1.064c-.598.346-1.276.518-2.031.518-.963 0-1.761-.273-2.392-.82-.625-.554-.938-1.335-.938-2.344 0-1.309.505-2.256 1.514-2.842.553-.319 1.367-.547 2.441-.683zm13.31-.351a2.479 2.479 0 0 0 -.4-1.074c-.313-.43-.798-.645-1.455-.645-.938 0-1.579.466-1.924 1.397-.183.494-.274 1.152-.274 1.972 0 .781.091 1.41.274 1.885.332.885.957 1.328 1.875 1.328.651 0 1.113-.176 1.386-.527.274-.352.44-.808.499-1.367h2.841c-.065.846-.371 1.647-.918 2.402-.872 1.217-2.164 1.826-3.877 1.826-1.712 0-2.972-.508-3.779-1.523-.807-1.016-1.211-2.334-1.211-3.955 0-1.83.446-3.252 1.338-4.268s2.122-1.523 3.691-1.523c1.335 0 2.426.299 3.272.898.853.599 1.357 1.657 1.514 3.174zm8.975-1.807c-.645 0-1.146.202-1.504.606-.352.403-.573.95-.664 1.64h4.326c-.046-.735-.27-1.292-.674-1.67-.397-.384-.892-.576-1.484-.576zm0-2.295c.885 0 1.683.166 2.392.498.71.332 1.296.856 1.758 1.573.417.631.687 1.364.811 2.197.071.488.101 1.191.087 2.109h-7.285c.039 1.068.375 1.817 1.006 2.246.384.267.847.401 1.387.401.573 0 1.038-.163 1.396-.489.196-.175.368-.419.518-.732h2.842c-.072.632-.401 1.273-.987 1.924-.911 1.035-2.187 1.553-3.828 1.553a5.4 5.4 0 0 1 -3.584-1.309c-1.035-.872-1.552-2.292-1.552-4.258 0-1.842.465-3.255 1.396-4.238.938-.983 2.152-1.475 3.643-1.475z" fill="#171c1e"/><path d="m.5.5h769v1025h-769z" stroke="#252a2e"/></svg>