<svg xmlns="http://www.w3.org/2000/svg" fill="#363545" viewBox="0 0 32 32"><g><path d="M29.47,29H2.64a1.63,1.63,0,0,1-1.58-1.67V4.67A1.63,1.63,0,0,1,2.64,3H29.47a1.63,1.63,0,0,1,1.59,1.67V27.33A1.63,1.63,0,0,1,29.47,29ZM3.06,27h26V5h-26ZM29.47,5h0Z"/><path d="M30,9H2A1,1,0,0,1,2,7H30a1,1,0,0,1,0,2Z"/><path d="M20.32,16h-4a1,1,0,0,1,0-2h4a1,1,0,0,1,0,2Z"/><path d="M24.32,13h-8a1,1,0,0,1,0-2h8a1,1,0,0,1,0,2Z"/><path d="M13.06,17h-6a1,1,0,0,1-1-1V11a1,1,0,0,1,1-1h6a1,1,0,0,1,1,1v5A1,1,0,0,1,13.06,17Zm-5-2h4V12h-4Z"/><path d="M25.06,25h-18a1,1,0,0,1-1-1V19a1,1,0,0,1,1-1h18a1,1,0,0,1,1,1v5A1,1,0,0,1,25.06,25Zm-17-2h16V20h-16Z"/></g></svg>