<svg xmlns="http://www.w3.org/2000/svg" viewBox="0 0 198.37 178.35"><defs><style>.cls-1{fill:#fff}</style></defs><path d="M133.87 108.76c-1.34 2.62-2.75 5.24-4.26 7.9s-3.11 5.24-4.72 7.76c4.69-.69 9.21-1.57 13.51-2.62-1.25-4.26-2.76-8.65-4.53-13.04zM76.26 124.42q-2.4-3.73-4.71-7.67c-1.55-2.62-3-5.24-4.3-7.86-1.7 4.36-3.21 8.72-4.42 12.94 4.29 1.05 8.78 1.9 13.43 2.59zM100.58 66.48c3 0 6.06.1 9 .23a131.48 131.48 0 00-9.11-10.48 128.26 128.26 0 00-9 10.48c2.98-.16 6.06-.23 9.11-.23zM140.17 71c.72-3.31 1.31-6.56 1.67-9.64 1.5-12.52-.43-22.25-4.89-24.8a7.55 7.55 0 00-3.73-.86c-6.82 0-16.83 5.46-27.5 15.37a160.46 160.46 0 0113.64 16.38A159.62 159.62 0 01140.17 71zM85.83 125.57c4.85.39 9.77.62 14.75.62s9.93-.23 14.81-.65c2.72-3.9 5.34-8.1 7.9-12.52s4.72-8.69 6.78-13.08q-3.07-6.6-6.81-13-3.86-6.6-7.93-12.45c-4.85-.4-9.77-.63-14.75-.63s-9.93.23-14.81.66c-2.72 3.9-5.34 8.09-7.9 12.52s-4.75 8.68-6.78 13.07q3.07 6.63 6.81 13.05 3.86 6.56 7.93 12.41zM100.58 85a15 15 0 11-15 15 15 15 0 0115-15zM76.23 75.53c-4.68.69-9.21 1.57-13.5 2.59 1.25 4.26 2.75 8.65 4.52 13C68.6 88.54 70 86 71.51 83.3s3.12-5.25 4.72-7.77zM60.93 71a153.13 153.13 0 0120.84-3.61A155.48 155.48 0 0195.3 51.08c-10.68-9.86-20.74-15.27-27.52-15.27a7.28 7.28 0 00-3.78.89c-4.42 2.59-6.32 12.3-4.78 24.84.4 3.04.95 6.22 1.71 9.46zM124.86 75.53q2.42 3.73 4.72 7.67c1.54 2.62 2.95 5.24 4.29 7.86 1.71-4.36 3.22-8.71 4.43-12.94-4.3-1.05-8.78-1.9-13.44-2.59zM140.23 128.88a153.11 153.11 0 01-20.84 3.6 154.57 154.57 0 01-13.53 16.36c10.68 9.86 20.74 15.27 27.52 15.27a7.28 7.28 0 003.77-.86c4.42-2.58 6.33-12.32 4.79-24.84a91 91 0 00-1.71-9.53zM154.58 83.39c-2.88-1.21-6-2.32-9.2-3.34a155.76 155.76 0 01-7.28 19.86 156.08 156.08 0 017.37 20c3.18-1 6.26-2.1 9.08-3.31 11.6-4.92 19.14-11.44 19.14-16.58s-7.5-11.68-19.11-16.63zM55.65 80.08c-3.18 1-6.26 2.1-9.08 3.31C35 88.31 27.47 94.83 27.47 100s7.5 11.63 19.1 16.58c2.86 1.21 5.94 2.32 9.18 3.34A155.71 155.71 0 0163 100a158.58 158.58 0 01-7.35-19.92z" class="cls-1" transform="translate(-.81 -10.82)"/><path d="M199.19 99.68c0-14.63-14.66-27.29-37.41-35.13 5.09-24.89.78-43.13-12.37-50.71-12.68-7.31-31-.94-49.12 14.86C81.41 11.93 63.3 6.81 50.16 14.42c-12.66 7.33-16.27 26.35-11.65 50C16.22 72.16.81 85.1.81 99.68c0 15 14.63 29 37.7 36.85-4.61 23.18-.83 41.87 11.8 49.15C63.28 193.17 82.62 188 101 172c17.89 15.39 36 21.45 48.58 14.15 13-7.51 16.91-27.47 12.18-51.37 23.99-8 37.43-19.92 37.43-35.1zM147.38 127c4.75 20.77 2.68 37.32-6.53 42.63a14.49 14.49 0 01-7.4 1.83c-9 0-20.81-6.35-32.74-17.43C88.78 165.12 77 171.55 68 171.55a14.36 14.36 0 01-7.37-1.84C51.36 164.4 49.26 147.82 54 127c-20.45-6.26-33.79-16.39-33.79-27s13.26-20.7 33.64-27c-4.75-20.78-2.69-37.33 6.52-42.64a14.53 14.53 0 017.41-1.83c9 0 20.81 6.36 32.73 17.44 11.93-11.14 23.73-17.57 32.74-17.57a14.36 14.36 0 017.31 1.83c9.24 5.31 11.34 21.89 6.62 42.73C167.63 79.23 181 89.33 181 100s-13.31 20.69-33.62 27z" class="cls-1" transform="translate(-.81 -10.82)"/><path d="M61 128.94c-.72 3.31-1.31 6.56-1.67 9.64-1.51 12.52.43 22.25 4.88 24.81a7.86 7.86 0 003.71.88c6.81 0 16.84-5.44 27.52-15.37a160.58 160.58 0 01-13.64-16.38 157.67 157.67 0 01-20.8-3.58zM100.55 133.47c-3 0-6.07-.1-9-.23a135.66 135.66 0 009.11 10.48 128.38 128.38 0 009-10.48c-2.99.16-6.07.23-9.11.23z" class="cls-1" transform="translate(-.81 -10.82)"/></svg>