<svg xmlns="http://www.w3.org/2000/svg" xmlns:xlink="http://www.w3.org/1999/xlink" width="824" height="260" viewBox="0 0 824 260"><defs><clipPath id="a"><rect width="824" height="260" transform="translate(271.071 189.143)" fill="none"/></clipPath></defs><g transform="translate(0)"><g transform="translate(-271.072 -189.143)"><rect width="824" height="260" transform="translate(271.071 189.143)" fill="#f1f1f6"/><g clip-path="url(#a)"><rect width="274" height="312" transform="translate(360.071 266.143)" fill="#fff"/><rect width="266" height="303.568" transform="translate(364.071 270.36)" fill="none"/><rect width="274" height="42.162" transform="translate(360.071 266.143)" fill="#0063a3"/><g opacity="0"><rect width="20" height="20" transform="translate(588.073 275.143)" fill="none"/><rect width="19" height="19" transform="translate(588.573 275.643)" fill="none" stroke="#000" stroke-miterlimit="10" stroke-width="1"/></g><path d="M594.073,290.477l5.267-5.333-5.267-5.334,1.333-1.333,6.667,6.667-6.667,6.666Z" fill="#fff"/><g style="isolation:isolate"><g style="isolation:isolate"><path d="M448.222,287.19a2.517,2.517,0,0,1-.964,2.092,4.2,4.2,0,0,1-2.659.759,6.359,6.359,0,0,1-2.776-.526V287.97a7.549,7.549,0,0,0,1.452.506,6.169,6.169,0,0,0,1.433.184,2.281,2.281,0,0,0,1.432-.369,1.205,1.205,0,0,0,.462-.991,1.242,1.242,0,0,0-.424-.95,6.369,6.369,0,0,0-1.75-.923,4.621,4.621,0,0,1-1.928-1.265,2.675,2.675,0,0,1-.561-1.709,2.393,2.393,0,0,1,.889-1.969,3.689,3.689,0,0,1,2.386-.717,7.013,7.013,0,0,1,2.857.629l-.519,1.333a6.223,6.223,0,0,0-2.379-.561,1.819,1.819,0,0,0-1.2.346,1.13,1.13,0,0,0-.41.912,1.275,1.275,0,0,0,.164.666,1.663,1.663,0,0,0,.54.523,9.078,9.078,0,0,0,1.353.65,7.336,7.336,0,0,1,1.613.854,2.521,2.521,0,0,1,.752.9A2.684,2.684,0,0,1,448.222,287.19Z" fill="#fff"/><path d="M453.287,290.041a3.658,3.658,0,0,1-2.759-1.029,3.9,3.9,0,0,1-.994-2.833,4.283,4.283,0,0,1,.923-2.912,3.188,3.188,0,0,1,2.536-1.06,3.116,3.116,0,0,1,2.365.909,3.476,3.476,0,0,1,.869,2.5v.868h-5.039a2.482,2.482,0,0,0,.6,1.692,2.071,2.071,0,0,0,1.579.592,5.77,5.77,0,0,0,1.247-.127,6.524,6.524,0,0,0,1.242-.42v1.305a4.927,4.927,0,0,1-1.19.4A7.332,7.332,0,0,1,453.287,290.041Zm-.294-6.617a1.614,1.614,0,0,0-1.227.485,2.3,2.3,0,0,0-.55,1.415h3.431a2.094,2.094,0,0,0-.451-1.418A1.542,1.542,0,0,0,452.993,283.424Z" fill="#fff"/><path d="M461.887,290.041a2.65,2.65,0,0,1-2.229-1.032h-.1q.1.955.1,1.162v3.1h-1.606V282.344h1.3q.054.211.225,1.011h.082a2.517,2.517,0,0,1,2.256-1.148,2.624,2.624,0,0,1,2.2,1.025A5.62,5.62,0,0,1,464.1,289,2.647,2.647,0,0,1,461.887,290.041Zm-.39-6.521a1.668,1.668,0,0,0-1.4.56,2.906,2.906,0,0,0-.441,1.791v.239a3.529,3.529,0,0,0,.438,2,1.624,1.624,0,0,0,1.428.62,1.452,1.452,0,0,0,1.286-.684,3.54,3.54,0,0,0,.451-1.948,3.4,3.4,0,0,0-.449-1.925A1.491,1.491,0,0,0,461.5,283.52Z" fill="#fff"/><path d="M469.591,288.742a3.919,3.919,0,0,0,1.176-.184v1.21a3.328,3.328,0,0,1-.688.2,4.759,4.759,0,0,1-.871.078q-2.283,0-2.283-2.406v-4.074h-1.032v-.711l1.107-.588.547-1.6h.991v1.682h2.153v1.217h-2.153v4.046a1.136,1.136,0,0,0,.29.858A1.059,1.059,0,0,0,469.591,288.742Z" fill="#fff"/><path d="M475.579,290.041a3.658,3.658,0,0,1-2.759-1.029,3.9,3.9,0,0,1-.994-2.833,4.283,4.283,0,0,1,.923-2.912,3.188,3.188,0,0,1,2.536-1.06,3.116,3.116,0,0,1,2.365.909,3.476,3.476,0,0,1,.869,2.5v.868H473.48a2.482,2.482,0,0,0,.6,1.692,2.071,2.071,0,0,0,1.579.592,5.77,5.77,0,0,0,1.247-.127,6.523,6.523,0,0,0,1.242-.42v1.305a4.927,4.927,0,0,1-1.19.4A7.332,7.332,0,0,1,475.579,290.041Zm-.294-6.617a1.614,1.614,0,0,0-1.227.485,2.3,2.3,0,0,0-.55,1.415h3.431a2.094,2.094,0,0,0-.451-1.418A1.542,1.542,0,0,0,475.285,283.424Z" fill="#fff"/><path d="M486.715,289.9H485.1v-4.662a2.109,2.109,0,0,0-.329-1.3,1.208,1.208,0,0,0-1.025-.427,1.563,1.563,0,0,0-1.364.605,3.549,3.549,0,0,0-.434,2.013V289.9h-1.606v-7.56H481.6l.225.991h.082a2.094,2.094,0,0,1,.912-.834,2.949,2.949,0,0,1,1.317-.294,2.3,2.3,0,0,1,2.31,1.189h.11a2.294,2.294,0,0,1,.943-.875,3,3,0,0,1,1.395-.314,2.536,2.536,0,0,1,1.971.684,3.024,3.024,0,0,1,.619,2.085V289.9H489.88v-4.662a2.088,2.088,0,0,0-.332-1.3,1.22,1.22,0,0,0-1.028-.427,1.6,1.6,0,0,0-1.372.584,3.017,3.017,0,0,0-.433,1.794Z" fill="#fff"/><path d="M497.591,282.207a2.624,2.624,0,0,1,2.2,1.025,5.64,5.64,0,0,1-.01,5.774,2.912,2.912,0,0,1-4.45,0h-.109l-.294.895h-1.2V279.268h1.606V281.8c0,.186-.01.465-.027.834s-.033.6-.041.7h.068A2.55,2.55,0,0,1,497.591,282.207Zm-.417,1.313a1.636,1.636,0,0,0-1.4.57,3.328,3.328,0,0,0-.44,1.911v.109a3.53,3.53,0,0,0,.437,2,1.626,1.626,0,0,0,1.429.62,1.448,1.448,0,0,0,1.3-.677,3.589,3.589,0,0,0,.441-1.955Q498.937,283.52,497.174,283.52Z" fill="#fff"/><path d="M505.753,290.041a3.658,3.658,0,0,1-2.759-1.029,3.9,3.9,0,0,1-.994-2.833,4.283,4.283,0,0,1,.923-2.912,3.188,3.188,0,0,1,2.536-1.06,3.116,3.116,0,0,1,2.365.909,3.48,3.48,0,0,1,.868,2.5v.868h-5.038a2.482,2.482,0,0,0,.6,1.692,2.07,2.07,0,0,0,1.579.592,5.784,5.784,0,0,0,1.247-.127,6.492,6.492,0,0,0,1.241-.42v1.305a4.92,4.92,0,0,1-1.189.4A7.332,7.332,0,0,1,505.753,290.041Zm-.294-6.617a1.618,1.618,0,0,0-1.228.485,2.307,2.307,0,0,0-.549,1.415h3.431a2.094,2.094,0,0,0-.451-1.418A1.542,1.542,0,0,0,505.459,283.424Z" fill="#fff"/><path d="M514.353,282.207a3.838,3.838,0,0,1,.8.068l-.157,1.5a3.074,3.074,0,0,0-.711-.082,2.06,2.06,0,0,0-1.562.629,2.272,2.272,0,0,0-.6,1.634V289.9h-1.606v-7.56h1.257l.212,1.333h.082a2.982,2.982,0,0,1,.981-1.073A2.328,2.328,0,0,1,514.353,282.207Z" fill="#fff"/><path d="M526.432,289.9h-6.775v-1.216l2.577-2.591a21.931,21.931,0,0,0,1.514-1.658,3.944,3.944,0,0,0,.544-.919,2.5,2.5,0,0,0,.171-.923,1.41,1.41,0,0,0-.407-1.067,1.561,1.561,0,0,0-1.124-.389,2.994,2.994,0,0,0-1.112.212,5.193,5.193,0,0,0-1.24.765l-.868-1.059a5.59,5.59,0,0,1,1.62-1,4.715,4.715,0,0,1,1.675-.294,3.3,3.3,0,0,1,2.235.727,2.46,2.46,0,0,1,.841,1.959,3.43,3.43,0,0,1-.243,1.285,5.155,5.155,0,0,1-.745,1.254,16.83,16.83,0,0,1-1.671,1.747l-1.737,1.682v.068h4.745Z" fill="#fff"/><path d="M534.423,284.907a7.1,7.1,0,0,1-.838,3.869,3.161,3.161,0,0,1-5.089-.041,6.982,6.982,0,0,1-.861-3.828,7.149,7.149,0,0,1,.837-3.9,3.165,3.165,0,0,1,5.09.057A7.037,7.037,0,0,1,534.423,284.907Zm-5.161,0a7.268,7.268,0,0,0,.42,2.919,1.469,1.469,0,0,0,2.693-.013,10.09,10.09,0,0,0,0-5.815,1.464,1.464,0,0,0-2.693-.017A7.328,7.328,0,0,0,529.262,284.907Z" fill="#fff"/><path d="M542.414,289.9H535.64v-1.216l2.577-2.591a21.838,21.838,0,0,0,1.513-1.658,3.944,3.944,0,0,0,.544-.919,2.482,2.482,0,0,0,.171-.923,1.406,1.406,0,0,0-.407-1.067,1.558,1.558,0,0,0-1.124-.389,2.985,2.985,0,0,0-1.111.212,5.178,5.178,0,0,0-1.241.765l-.868-1.059a5.589,5.589,0,0,1,1.62-1,4.718,4.718,0,0,1,1.675-.294,3.3,3.3,0,0,1,2.236.727,2.463,2.463,0,0,1,.84,1.959,3.43,3.43,0,0,1-.243,1.285,5.156,5.156,0,0,1-.745,1.254,16.733,16.733,0,0,1-1.671,1.747l-1.736,1.682v.068h4.744Z" fill="#fff"/><path d="M550.405,289.9h-6.774v-1.216l2.577-2.591a21.931,21.931,0,0,0,1.514-1.658,3.979,3.979,0,0,0,.544-.919,2.5,2.5,0,0,0,.171-.923,1.407,1.407,0,0,0-.408-1.067,1.558,1.558,0,0,0-1.124-.389,2.985,2.985,0,0,0-1.111.212,5.173,5.173,0,0,0-1.24.765l-.868-1.059a5.564,5.564,0,0,1,1.62-1,4.712,4.712,0,0,1,1.674-.294,3.3,3.3,0,0,1,2.236.727,2.463,2.463,0,0,1,.841,1.959,3.411,3.411,0,0,1-.244,1.285,5.155,5.155,0,0,1-.745,1.254,16.726,16.726,0,0,1-1.671,1.747l-1.736,1.682v.068h4.744Z" fill="#fff"/></g></g><g opacity="0"><rect width="20" height="20" transform="translate(384.073 275.143)" fill="none"/><rect width="19" height="19" transform="translate(384.573 275.643)" fill="none" stroke="#000" stroke-miterlimit="10" stroke-width="1"/></g><path d="M398.073,279.809l-5.267,5.333,5.267,5.334-1.333,1.333-6.667-6.667,6.667-6.666Z" fill="#fff"/><g opacity="0.3"><path d="M594.071,522.143h0a16,16,0,0,1,16,16h0a16,16,0,0,1-16,16h0a16,16,0,0,1-16-16h0A16,16,0,0,1,594.071,522.143Z" fill="#fff"/><g style="isolation:isolate"><g style="isolation:isolate"><path d="M594.062,534.005a3.39,3.39,0,0,1,2.167.636,2.118,2.118,0,0,1,.8,1.756,2.187,2.187,0,0,1-.458,1.347,4.054,4.054,0,0,1-1.463,1.108,4.921,4.921,0,0,1,1.73,1.22,2.3,2.3,0,0,1,.513,1.48,2.478,2.478,0,0,1-.869,1.985,3.538,3.538,0,0,1-2.378.742,3.8,3.8,0,0,1-2.461-.7,2.412,2.412,0,0,1-.862-1.985q0-1.716,2.092-2.673a3.853,3.853,0,0,1-1.353-1.152,2.446,2.446,0,0,1-.411-1.384,2.112,2.112,0,0,1,.8-1.734A3.339,3.339,0,0,1,594.062,534.005ZM591.9,541.62a1.547,1.547,0,0,0,.571,1.278,2.5,2.5,0,0,0,1.6.458,2.388,2.388,0,0,0,1.586-.478,1.625,1.625,0,0,0,.568-1.313,1.594,1.594,0,0,0-.534-1.178,5.408,5.408,0,0,0-1.859-1,4.061,4.061,0,0,0-1.477.967A1.876,1.876,0,0,0,591.9,541.62Zm2.147-6.692a2.01,2.01,0,0,0-1.34.41,1.358,1.358,0,0,0-.485,1.094,1.565,1.565,0,0,0,.4,1.08,4.219,4.219,0,0,0,1.49.9,3.715,3.715,0,0,0,1.384-.882,1.632,1.632,0,0,0,.407-1.1,1.348,1.348,0,0,0-.495-1.1A2.093,2.093,0,0,0,594.048,534.928Z" fill="#363545"/></g></g><path d="M562.071,522.143h0a16,16,0,0,1,16,16h0a16,16,0,0,1-16,16h0a16,16,0,0,1-16-16h0A16,16,0,0,1,562.071,522.143Z" fill="#fff"/><g style="isolation:isolate"><g style="isolation:isolate"><path d="M560.018,544.143l4.142-8.949h-5.448v-1.046h6.651v.91l-4.088,9.085Z" fill="#363545"/></g></g><path d="M530.071,522.143h0a16,16,0,0,1,16,16h0a16,16,0,0,1-16,16h0a16,16,0,0,1-16-16h0A16,16,0,0,1,530.071,522.143Z" fill="#fff"/><g style="isolation:isolate"><g style="isolation:isolate"><path d="M526.869,539.87a7.07,7.07,0,0,1,1.145-4.4,4.041,4.041,0,0,1,3.387-1.46,4.489,4.489,0,0,1,1.217.13v.977a3.89,3.89,0,0,0-1.2-.171,3.035,3.035,0,0,0-2.454,1,5.135,5.135,0,0,0-.93,3.148h.082a2.619,2.619,0,0,1,2.379-1.176,2.8,2.8,0,0,1,2.123.814,3.067,3.067,0,0,1,.776,2.208,3.4,3.4,0,0,1-.851,2.45,3.029,3.029,0,0,1-2.3.892,2.955,2.955,0,0,1-2.461-1.166A5.152,5.152,0,0,1,526.869,539.87Zm3.357,3.445a1.9,1.9,0,0,0,1.507-.612,2.6,2.6,0,0,0,.537-1.766,2.281,2.281,0,0,0-.5-1.559,1.882,1.882,0,0,0-1.491-.567,2.524,2.524,0,0,0-1.128.252,2.1,2.1,0,0,0-.817.7,1.615,1.615,0,0,0-.3.923A3.166,3.166,0,0,0,528.3,542a2.315,2.315,0,0,0,.776.964A1.932,1.932,0,0,0,530.226,543.315Z" fill="#363545"/></g></g><path d="M498.071,522.143h0a16,16,0,0,1,16,16h0a16,16,0,0,1-16,16h0a16,16,0,0,1-16-16h0A16,16,0,0,1,498.071,522.143Z" fill="#fff"/><g style="isolation:isolate"><g style="isolation:isolate"><path d="M497.877,538.038a3.679,3.679,0,0,1,2.485.782,2.687,2.687,0,0,1,.906,2.144,3.1,3.1,0,0,1-.988,2.433,3.946,3.946,0,0,1-2.724.882,5,5,0,0,1-2.577-.54v-1.093a3.873,3.873,0,0,0,1.189.481,5.83,5.83,0,0,0,1.4.175,2.8,2.8,0,0,0,1.87-.568,2.034,2.034,0,0,0,.666-1.64q0-2.093-2.563-2.092a10.206,10.206,0,0,0-1.736.2l-.588-.376.376-4.676h4.969v1.046h-4l-.252,3A8.01,8.01,0,0,1,497.877,538.038Z" fill="#363545"/></g></g><path d="M466.071,522.143h0a16,16,0,0,1,16,16h0a16,16,0,0,1-16,16h0a16,16,0,0,1-16-16h0A16,16,0,0,1,466.071,522.143Z" fill="#fff"/><g style="isolation:isolate"><g style="isolation:isolate"><path d="M469.794,541.846h-1.483v2.3h-1.087v-2.3h-4.861v-.992l4.744-6.76h1.2v6.719h1.483Zm-2.57-1.033v-3.322q0-.977.068-2.208h-.055a10.157,10.157,0,0,1-.615,1.087l-3.124,4.443Z" fill="#363545"/></g></g><path d="M434.071,522.143h0a16,16,0,0,1,16,16h0a16,16,0,0,1-16,16h0a16,16,0,0,1-16-16h0A16,16,0,0,1,434.071,522.143Z" fill="#fff"/><g style="isolation:isolate"><g style="isolation:isolate"><path d="M436.946,536.5a2.275,2.275,0,0,1-.536,1.565,2.688,2.688,0,0,1-1.521.814v.055a2.858,2.858,0,0,1,1.784.765,2.256,2.256,0,0,1,.581,1.614,2.618,2.618,0,0,1-.991,2.2,4.508,4.508,0,0,1-2.817.769,8.224,8.224,0,0,1-1.452-.119,4.99,4.99,0,0,1-1.282-.421v-1.08a6.529,6.529,0,0,0,2.775.656q2.59,0,2.591-2.03,0-1.818-2.857-1.818h-.985v-.978h1a3.006,3.006,0,0,0,1.853-.516,1.7,1.7,0,0,0,.684-1.432,1.412,1.412,0,0,0-.5-1.148,2.064,2.064,0,0,0-1.364-.417,4.221,4.221,0,0,0-1.237.177,5.479,5.479,0,0,0-1.326.657l-.574-.766a4.823,4.823,0,0,1,1.418-.763,5.2,5.2,0,0,1,1.692-.276,3.454,3.454,0,0,1,2.263.667A2.244,2.244,0,0,1,436.946,536.5Z" fill="#363545"/></g></g><path d="M402.071,522.143h0a16,16,0,0,1,16,16h0a16,16,0,0,1-16,16h0a16,16,0,0,1-16-16h0A16,16,0,0,1,402.071,522.143Z" fill="#fff"/><g style="isolation:isolate"><g style="isolation:isolate"><path d="M405.322,544.143h-6.569v-.978l2.632-2.645a19.532,19.532,0,0,0,1.586-1.737,4.43,4.43,0,0,0,.574-1.012,2.908,2.908,0,0,0,.191-1.059,1.682,1.682,0,0,0-.485-1.269,1.864,1.864,0,0,0-1.347-.467,3.383,3.383,0,0,0-1.179.205,4.665,4.665,0,0,0-1.241.745l-.6-.773a4.609,4.609,0,0,1,3.008-1.148,3.173,3.173,0,0,1,2.208.722,2.478,2.478,0,0,1,.8,1.937,3.737,3.737,0,0,1-.533,1.88,11.95,11.95,0,0,1-2,2.352l-2.187,2.139v.055h5.14Z" fill="#363545"/></g></g></g><g opacity="0.3"><path d="M594.071,490.143h0a16,16,0,0,1,16,16h0a16,16,0,0,1-16,16h0a16,16,0,0,1-16-16h0A16,16,0,0,1,594.071,490.143Z" fill="#fff"/><g style="isolation:isolate"><g style="isolation:isolate"><path d="M594.957,512.143H593.85V505.02q0-.889.054-1.682-.142.144-.321.3t-1.627,1.333l-.6-.78L594,502.148h.957Z" fill="#363545"/></g></g></g><path d="M562.071,490.143h0a16,16,0,0,1,16,16h0a16,16,0,0,1-16,16h0a16,16,0,0,1-16-16h0A16,16,0,0,1,562.071,490.143Z" fill="#fff"/><g style="isolation:isolate"><g style="isolation:isolate"><path d="M560.943,504.5a2.275,2.275,0,0,1-.536,1.565,2.688,2.688,0,0,1-1.521.814v.055a2.858,2.858,0,0,1,1.784.765,2.255,2.255,0,0,1,.581,1.614,2.618,2.618,0,0,1-.991,2.2,4.508,4.508,0,0,1-2.817.769,8.231,8.231,0,0,1-1.452-.119,5,5,0,0,1-1.282-.421v-1.08a6.529,6.529,0,0,0,2.775.656q2.59,0,2.591-2.03,0-1.818-2.857-1.818h-.985v-.978h1a3.006,3.006,0,0,0,1.853-.516,1.694,1.694,0,0,0,.684-1.432,1.412,1.412,0,0,0-.5-1.148,2.064,2.064,0,0,0-1.364-.417,4.223,4.223,0,0,0-1.237.177,5.478,5.478,0,0,0-1.326.657l-.574-.766a4.825,4.825,0,0,1,1.418-.763,5.2,5.2,0,0,1,1.692-.276,3.454,3.454,0,0,1,2.263.667A2.244,2.244,0,0,1,560.943,504.5Z" fill="#363545"/><path d="M569.379,507.132a7.306,7.306,0,0,1-.817,3.869,3.018,3.018,0,0,1-4.953-.03,7.163,7.163,0,0,1-.84-3.839,7.3,7.3,0,0,1,.813-3.876,3.019,3.019,0,0,1,4.953.055A7.119,7.119,0,0,1,569.379,507.132Zm-5.462,0a7.31,7.31,0,0,0,.513,3.175,1.842,1.842,0,0,0,3.278-.014,10.052,10.052,0,0,0,0-6.316,1.848,1.848,0,0,0-3.278-.014A7.271,7.271,0,0,0,563.917,507.132Z" fill="#363545"/></g></g><path d="M530.071,490.143h0a16,16,0,0,1,16,16h0a16,16,0,0,1-16,16h0a16,16,0,0,1-16-16h0A16,16,0,0,1,530.071,490.143Z" fill="#fff"/><g style="isolation:isolate"><g style="isolation:isolate"><path d="M529.319,512.143H522.75v-.978l2.632-2.645a19.528,19.528,0,0,0,1.586-1.737,4.391,4.391,0,0,0,.574-1.012,2.907,2.907,0,0,0,.191-1.059,1.682,1.682,0,0,0-.485-1.269,1.864,1.864,0,0,0-1.347-.467,3.384,3.384,0,0,0-1.179.2,4.666,4.666,0,0,0-1.241.745l-.6-.773a4.609,4.609,0,0,1,3.008-1.148,3.173,3.173,0,0,1,2.208.722,2.478,2.478,0,0,1,.8,1.937,3.738,3.738,0,0,1-.534,1.88,11.952,11.952,0,0,1-2,2.352l-2.187,2.139v.055h5.14Z" fill="#363545"/><path d="M537.324,506.414q0,5.865-4.539,5.865a4.674,4.674,0,0,1-1.258-.136v-.978a4.04,4.04,0,0,0,1.244.178,3.031,3.031,0,0,0,2.479-1.015,5.137,5.137,0,0,0,.912-3.114h-.082a2.418,2.418,0,0,1-1,.864,3.2,3.2,0,0,1-1.4.3,2.821,2.821,0,0,1-2.106-.793,3.026,3.026,0,0,1-.779-2.215,3.394,3.394,0,0,1,.871-2.461,3.048,3.048,0,0,1,2.294-.9,3.084,3.084,0,0,1,1.781.522,3.313,3.313,0,0,1,1.172,1.526A6.21,6.21,0,0,1,537.324,506.414Zm-3.363-3.438a1.876,1.876,0,0,0-1.511.628,2.627,2.627,0,0,0-.533,1.75,2.272,2.272,0,0,0,.492,1.548,1.879,1.879,0,0,0,1.5.565,2.587,2.587,0,0,0,1.145-.253,2.07,2.07,0,0,0,.824-.691,1.588,1.588,0,0,0,.3-.916,3.131,3.131,0,0,0-.28-1.326,2.329,2.329,0,0,0-.783-.957A1.974,1.974,0,0,0,533.961,502.976Z" fill="#363545"/></g></g><path d="M498.071,490.143h0a16,16,0,0,1,16,16h0a16,16,0,0,1-16,16h0a16,16,0,0,1-16-16h0A16,16,0,0,1,498.071,490.143Z" fill="#fff"/><g style="isolation:isolate"><g style="isolation:isolate"><path d="M497.319,512.143H490.75v-.978l2.632-2.645a19.518,19.518,0,0,0,1.586-1.737,4.39,4.39,0,0,0,.574-1.012,2.907,2.907,0,0,0,.191-1.059,1.682,1.682,0,0,0-.485-1.269,1.864,1.864,0,0,0-1.347-.467,3.384,3.384,0,0,0-1.179.2,4.666,4.666,0,0,0-1.241.745l-.6-.773a4.609,4.609,0,0,1,3.008-1.148,3.173,3.173,0,0,1,2.208.722,2.478,2.478,0,0,1,.8,1.937,3.738,3.738,0,0,1-.534,1.88,11.952,11.952,0,0,1-2,2.352l-2.187,2.139v.055h5.14Z" fill="#363545"/><path d="M502.063,502.005a3.386,3.386,0,0,1,2.167.636,2.116,2.116,0,0,1,.8,1.756,2.187,2.187,0,0,1-.458,1.347,4.053,4.053,0,0,1-1.463,1.108,4.921,4.921,0,0,1,1.73,1.22,2.3,2.3,0,0,1,.513,1.48,2.478,2.478,0,0,1-.869,1.985,3.539,3.539,0,0,1-2.379.742,3.8,3.8,0,0,1-2.46-.7,2.412,2.412,0,0,1-.862-1.985q0-1.716,2.092-2.673a3.854,3.854,0,0,1-1.353-1.152,2.446,2.446,0,0,1-.411-1.384,2.112,2.112,0,0,1,.8-1.734A3.338,3.338,0,0,1,502.063,502.005Zm-2.16,7.615a1.547,1.547,0,0,0,.571,1.278,2.5,2.5,0,0,0,1.6.458,2.388,2.388,0,0,0,1.586-.478,1.624,1.624,0,0,0,.567-1.313,1.593,1.593,0,0,0-.533-1.178,5.408,5.408,0,0,0-1.859-1,4.061,4.061,0,0,0-1.477.967A1.876,1.876,0,0,0,499.9,509.62Zm2.147-6.692a2.01,2.01,0,0,0-1.34.41,1.358,1.358,0,0,0-.485,1.094,1.565,1.565,0,0,0,.4,1.08,4.218,4.218,0,0,0,1.49.9,3.716,3.716,0,0,0,1.384-.882,1.632,1.632,0,0,0,.407-1.1,1.348,1.348,0,0,0-.495-1.1A2.093,2.093,0,0,0,502.05,502.928Z" fill="#363545"/></g></g><path d="M466.071,490.143h0a16,16,0,0,1,16,16h0a16,16,0,0,1-16,16h0a16,16,0,0,1-16-16h0A16,16,0,0,1,466.071,490.143Z" fill="#fff"/><g style="isolation:isolate"><g style="isolation:isolate"><path d="M465.319,512.143H458.75v-.978l2.632-2.645a19.518,19.518,0,0,0,1.586-1.737,4.39,4.39,0,0,0,.574-1.012,2.907,2.907,0,0,0,.191-1.059,1.682,1.682,0,0,0-.485-1.269,1.864,1.864,0,0,0-1.347-.467,3.384,3.384,0,0,0-1.179.2,4.666,4.666,0,0,0-1.241.745l-.6-.773a4.609,4.609,0,0,1,3.008-1.148,3.173,3.173,0,0,1,2.208.722,2.478,2.478,0,0,1,.8,1.937,3.738,3.738,0,0,1-.534,1.88,11.952,11.952,0,0,1-2,2.352l-2.187,2.139v.055h5.14Z" fill="#363545"/><path d="M468.02,512.143l4.142-8.949h-5.448v-1.046h6.651v.91l-4.088,9.085Z" fill="#363545"/></g></g><path d="M434.071,490.143h0a16,16,0,0,1,16,16h0a16,16,0,0,1-16,16h0a16,16,0,0,1-16-16h0A16,16,0,0,1,434.071,490.143Z" fill="#fff"/><g style="isolation:isolate"><g style="isolation:isolate"><path d="M433.319,512.143H426.75v-.978l2.632-2.645a19.518,19.518,0,0,0,1.586-1.737,4.39,4.39,0,0,0,.574-1.012,2.907,2.907,0,0,0,.191-1.059,1.682,1.682,0,0,0-.485-1.269,1.864,1.864,0,0,0-1.347-.467,3.384,3.384,0,0,0-1.179.2,4.666,4.666,0,0,0-1.241.745l-.6-.773a4.609,4.609,0,0,1,3.008-1.148,3.173,3.173,0,0,1,2.208.722,2.478,2.478,0,0,1,.8,1.937,3.738,3.738,0,0,1-.534,1.88,11.952,11.952,0,0,1-2,2.352l-2.187,2.139v.055h5.14Z" fill="#363545"/><path d="M434.871,507.87a7.07,7.07,0,0,1,1.145-4.4,4.041,4.041,0,0,1,3.387-1.46,4.5,4.5,0,0,1,1.217.13v.977a3.89,3.89,0,0,0-1.2-.171,3.035,3.035,0,0,0-2.454,1,5.136,5.136,0,0,0-.93,3.148h.082a2.619,2.619,0,0,1,2.379-1.176,2.8,2.8,0,0,1,2.123.814,3.067,3.067,0,0,1,.776,2.208,3.4,3.4,0,0,1-.851,2.45,3.029,3.029,0,0,1-2.3.892,2.955,2.955,0,0,1-2.461-1.166A5.152,5.152,0,0,1,434.871,507.87Zm3.357,3.445a1.9,1.9,0,0,0,1.507-.612,2.6,2.6,0,0,0,.536-1.766,2.276,2.276,0,0,0-.5-1.559,1.879,1.879,0,0,0-1.49-.567,2.523,2.523,0,0,0-1.128.252,2.1,2.1,0,0,0-.817.7,1.615,1.615,0,0,0-.3.923,3.166,3.166,0,0,0,.274,1.312,2.315,2.315,0,0,0,.776.964A1.93,1.93,0,0,0,438.228,511.315Z" fill="#363545"/></g></g><path d="M402.071,490.143h0a16,16,0,0,1,16,16h0a16,16,0,0,1-16,16h0a16,16,0,0,1-16-16h0A16,16,0,0,1,402.071,490.143Z" fill="#fff"/><g style="isolation:isolate"><g style="isolation:isolate"><path d="M401.319,512.143H394.75v-.978l2.632-2.645a19.518,19.518,0,0,0,1.586-1.737,4.39,4.39,0,0,0,.574-1.012,2.907,2.907,0,0,0,.191-1.059,1.682,1.682,0,0,0-.485-1.269,1.864,1.864,0,0,0-1.347-.467,3.384,3.384,0,0,0-1.179.2,4.666,4.666,0,0,0-1.241.745l-.6-.773a4.609,4.609,0,0,1,3.008-1.148,3.173,3.173,0,0,1,2.208.722,2.478,2.478,0,0,1,.8,1.937,3.738,3.738,0,0,1-.534,1.88,11.952,11.952,0,0,1-2,2.352l-2.187,2.139v.055h5.14Z" fill="#363545"/><path d="M405.879,506.038a3.679,3.679,0,0,1,2.485.782,2.687,2.687,0,0,1,.906,2.144,3.1,3.1,0,0,1-.988,2.433,3.946,3.946,0,0,1-2.724.882,5.008,5.008,0,0,1-2.578-.54v-1.093a3.891,3.891,0,0,0,1.19.481,5.832,5.832,0,0,0,1.4.175,2.8,2.8,0,0,0,1.87-.568,2.034,2.034,0,0,0,.666-1.64q0-2.092-2.563-2.092a10.206,10.206,0,0,0-1.736.2l-.588-.376.376-4.676h4.969v1.046h-4l-.253,3A8.029,8.029,0,0,1,405.879,506.038Z" fill="#363545"/></g></g><path d="M594.071,458.143h0a16,16,0,0,1,16,16h0a16,16,0,0,1-16,16h0a16,16,0,0,1-16-16h0A16,16,0,0,1,594.071,458.143Z" fill="#fff"/><g style="isolation:isolate"><g style="isolation:isolate"><path d="M593.319,480.143H586.75v-.978l2.632-2.645a19.528,19.528,0,0,0,1.586-1.737,4.391,4.391,0,0,0,.574-1.012,2.907,2.907,0,0,0,.191-1.059,1.682,1.682,0,0,0-.485-1.269,1.864,1.864,0,0,0-1.347-.467,3.384,3.384,0,0,0-1.179.2,4.666,4.666,0,0,0-1.241.745l-.6-.773a4.609,4.609,0,0,1,3.008-1.148,3.173,3.173,0,0,1,2.208.722,2.478,2.478,0,0,1,.8,1.937,3.738,3.738,0,0,1-.534,1.88,11.952,11.952,0,0,1-2,2.352l-2.187,2.139v.055h5.14Z" fill="#252a2e"/><path d="M601.8,477.846h-1.484v2.3h-1.086v-2.3h-4.861v-.992l4.744-6.76h1.2v6.719H601.8Zm-2.57-1.033v-3.322q0-.977.068-2.208h-.055a10.16,10.16,0,0,1-.615,1.087l-3.124,4.443Z" fill="#252a2e"/></g></g><path d="M546.071,458.143h16a16,16,0,0,1,16,16h0a16,16,0,0,1-16,16h-16v-32Z" fill="#dcedf9"/><path d="M562.071,458.143h0a16,16,0,0,1,16,16h0a16,16,0,0,1-16,16h0a16,16,0,0,1-16-16h0A16,16,0,0,1,562.071,458.143Z" fill="#217cbb"/><g style="isolation:isolate"><g style="isolation:isolate"><path d="M561.319,480.143H554.75v-.978l2.632-2.645a19.528,19.528,0,0,0,1.586-1.737,4.391,4.391,0,0,0,.574-1.012,2.907,2.907,0,0,0,.191-1.059,1.682,1.682,0,0,0-.485-1.269,1.864,1.864,0,0,0-1.347-.467,3.384,3.384,0,0,0-1.179.2,4.666,4.666,0,0,0-1.241.745l-.6-.773a4.609,4.609,0,0,1,3.008-1.148,3.173,3.173,0,0,1,2.208.722,2.478,2.478,0,0,1,.8,1.937,3.738,3.738,0,0,1-.534,1.88,11.952,11.952,0,0,1-2,2.352l-2.187,2.139v.055h5.14Z" fill="#fff"/><path d="M568.948,472.5a2.275,2.275,0,0,1-.536,1.565,2.688,2.688,0,0,1-1.521.814v.055a2.858,2.858,0,0,1,1.784.765,2.255,2.255,0,0,1,.581,1.614,2.618,2.618,0,0,1-.991,2.2,4.508,4.508,0,0,1-2.817.769A8.227,8.227,0,0,1,564,480.16a4.994,4.994,0,0,1-1.282-.421v-1.08a6.529,6.529,0,0,0,2.775.656q2.59,0,2.591-2.03,0-1.818-2.857-1.818h-.985v-.978h1a3.006,3.006,0,0,0,1.853-.516,1.7,1.7,0,0,0,.683-1.432,1.411,1.411,0,0,0-.5-1.148,2.066,2.066,0,0,0-1.364-.417,4.223,4.223,0,0,0-1.237.177,5.478,5.478,0,0,0-1.326.657l-.574-.766a4.825,4.825,0,0,1,1.418-.763,5.2,5.2,0,0,1,1.692-.276,3.454,3.454,0,0,1,2.263.667A2.244,2.244,0,0,1,568.948,472.5Z" fill="#fff"/></g></g><rect width="32" height="32" transform="translate(514.071 458.143)" fill="#dcedf9"/><g style="isolation:isolate"><g style="isolation:isolate"><path d="M529.319,480.143H522.75v-.978l2.632-2.645a19.528,19.528,0,0,0,1.586-1.737,4.391,4.391,0,0,0,.574-1.012,2.907,2.907,0,0,0,.191-1.059,1.682,1.682,0,0,0-.485-1.269,1.864,1.864,0,0,0-1.347-.467,3.384,3.384,0,0,0-1.179.2,4.666,4.666,0,0,0-1.241.745l-.6-.773a4.609,4.609,0,0,1,3.008-1.148,3.173,3.173,0,0,1,2.208.722,2.478,2.478,0,0,1,.8,1.937,3.738,3.738,0,0,1-.534,1.88,11.952,11.952,0,0,1-2,2.352l-2.187,2.139v.055h5.14Z" fill="#363545"/><path d="M537.324,480.143h-6.569v-.978l2.632-2.645a19.528,19.528,0,0,0,1.586-1.737,4.427,4.427,0,0,0,.574-1.012,2.907,2.907,0,0,0,.191-1.059,1.682,1.682,0,0,0-.485-1.269,1.865,1.865,0,0,0-1.347-.467,3.384,3.384,0,0,0-1.179.2,4.65,4.65,0,0,0-1.241.745l-.6-.773a4.609,4.609,0,0,1,3.008-1.148,3.173,3.173,0,0,1,2.208.722,2.478,2.478,0,0,1,.8,1.937,3.736,3.736,0,0,1-.533,1.88,11.951,11.951,0,0,1-2,2.352l-2.187,2.139v.055h5.14Z" fill="#363545"/></g></g><rect width="32" height="32" transform="translate(482.071 458.143)" fill="#dcedf9"/><g style="isolation:isolate"><g style="isolation:isolate"><path d="M497.319,480.143H490.75v-.978l2.632-2.645a19.518,19.518,0,0,0,1.586-1.737,4.39,4.39,0,0,0,.574-1.012,2.907,2.907,0,0,0,.191-1.059,1.682,1.682,0,0,0-.485-1.269,1.864,1.864,0,0,0-1.347-.467,3.384,3.384,0,0,0-1.179.2,4.666,4.666,0,0,0-1.241.745l-.6-.773a4.609,4.609,0,0,1,3.008-1.148,3.173,3.173,0,0,1,2.208.722,2.478,2.478,0,0,1,.8,1.937,3.738,3.738,0,0,1-.534,1.88,11.952,11.952,0,0,1-2,2.352l-2.187,2.139v.055h5.14Z" fill="#363545"/><path d="M502.959,480.143h-1.107V473.02q0-.889.054-1.682-.143.144-.321.3t-1.627,1.333l-.6-.78L502,470.148h.957Z" fill="#363545"/></g></g><rect width="32" height="32" transform="translate(450.071 458.143)" fill="#dcedf9"/><g style="isolation:isolate"><g style="isolation:isolate"><path d="M465.319,480.143H458.75v-.978l2.632-2.645a19.518,19.518,0,0,0,1.586-1.737,4.39,4.39,0,0,0,.574-1.012,2.907,2.907,0,0,0,.191-1.059,1.682,1.682,0,0,0-.485-1.269,1.864,1.864,0,0,0-1.347-.467,3.384,3.384,0,0,0-1.179.2,4.666,4.666,0,0,0-1.241.745l-.6-.773a4.609,4.609,0,0,1,3.008-1.148,3.173,3.173,0,0,1,2.208.722,2.478,2.478,0,0,1,.8,1.937,3.738,3.738,0,0,1-.534,1.88,11.952,11.952,0,0,1-2,2.352l-2.187,2.139v.055h5.14Z" fill="#363545"/><path d="M473.379,475.132a7.306,7.306,0,0,1-.817,3.869,3.018,3.018,0,0,1-4.953-.03,7.163,7.163,0,0,1-.84-3.839,7.3,7.3,0,0,1,.813-3.876,3.019,3.019,0,0,1,4.953.055A7.119,7.119,0,0,1,473.379,475.132Zm-5.462,0a7.31,7.31,0,0,0,.513,3.175,1.842,1.842,0,0,0,3.278-.014,10.051,10.051,0,0,0,0-6.316,1.848,1.848,0,0,0-3.278-.014A7.271,7.271,0,0,0,467.917,475.132Z" fill="#363545"/></g></g><rect width="32" height="32" transform="translate(418.071 458.143)" fill="#dcedf9"/><g style="isolation:isolate"><g style="isolation:isolate"><path d="M430.954,480.143h-1.107V473.02q0-.889.054-1.682-.143.144-.321.3t-1.627,1.333l-.6-.78L430,470.148h.957Z" fill="#363545"/><path d="M441.324,474.414q0,5.865-4.539,5.865a4.672,4.672,0,0,1-1.258-.136v-.978a4.039,4.039,0,0,0,1.244.178,3.031,3.031,0,0,0,2.479-1.015,5.137,5.137,0,0,0,.912-3.114h-.082a2.418,2.418,0,0,1-1,.864,3.2,3.2,0,0,1-1.4.3,2.821,2.821,0,0,1-2.106-.793,3.026,3.026,0,0,1-.779-2.215,3.394,3.394,0,0,1,.871-2.461,3.048,3.048,0,0,1,2.294-.9,3.084,3.084,0,0,1,1.781.522,3.313,3.313,0,0,1,1.172,1.526A6.21,6.21,0,0,1,441.324,474.414Zm-3.363-3.438a1.876,1.876,0,0,0-1.511.628,2.627,2.627,0,0,0-.533,1.75,2.272,2.272,0,0,0,.492,1.548,1.879,1.879,0,0,0,1.5.565,2.586,2.586,0,0,0,1.145-.253,2.07,2.07,0,0,0,.824-.691,1.588,1.588,0,0,0,.3-.916,3.13,3.13,0,0,0-.28-1.326,2.329,2.329,0,0,0-.783-.957A1.974,1.974,0,0,0,437.961,470.976Z" fill="#363545"/></g></g><rect width="32" height="32" transform="translate(386.071 458.143)" fill="#dcedf9"/><g style="isolation:isolate"><g style="isolation:isolate"><path d="M398.954,480.143h-1.107V473.02q0-.889.054-1.682-.143.144-.321.3t-1.627,1.333l-.6-.78L398,470.148h.957Z" fill="#363545"/><path d="M406.063,470.005a3.386,3.386,0,0,1,2.167.636,2.116,2.116,0,0,1,.8,1.756,2.187,2.187,0,0,1-.458,1.347,4.053,4.053,0,0,1-1.463,1.108,4.921,4.921,0,0,1,1.73,1.22,2.3,2.3,0,0,1,.513,1.48,2.478,2.478,0,0,1-.869,1.985,3.539,3.539,0,0,1-2.379.742,3.8,3.8,0,0,1-2.46-.7,2.412,2.412,0,0,1-.862-1.985q0-1.716,2.092-2.673a3.854,3.854,0,0,1-1.353-1.152,2.446,2.446,0,0,1-.411-1.384,2.112,2.112,0,0,1,.8-1.734A3.338,3.338,0,0,1,406.063,470.005Zm-2.16,7.615a1.547,1.547,0,0,0,.571,1.278,2.5,2.5,0,0,0,1.6.458,2.388,2.388,0,0,0,1.586-.478,1.624,1.624,0,0,0,.567-1.313,1.593,1.593,0,0,0-.533-1.178,5.408,5.408,0,0,0-1.859-1,4.061,4.061,0,0,0-1.477.967A1.876,1.876,0,0,0,403.9,477.62Zm2.147-6.692a2.01,2.01,0,0,0-1.34.41,1.358,1.358,0,0,0-.485,1.094,1.565,1.565,0,0,0,.4,1.08,4.218,4.218,0,0,0,1.49.9,3.716,3.716,0,0,0,1.384-.882,1.632,1.632,0,0,0,.407-1.1,1.348,1.348,0,0,0-.495-1.1A2.093,2.093,0,0,0,406.05,470.928Z" fill="#363545"/></g></g><rect width="32" height="32" transform="translate(576.071 426.143)" fill="#dcedf9"/><g style="isolation:isolate"><g style="isolation:isolate"><path d="M588.954,448.143h-1.107V441.02q0-.889.054-1.682-.142.144-.321.3t-1.627,1.333l-.6-.78L588,438.148h.957Z" fill="#363545"/><path d="M594.02,448.143l4.142-8.949h-5.448v-1.046h6.651v.91l-4.088,9.085Z" fill="#363545"/></g></g><rect width="32" height="32" transform="translate(544.071 426.143)" fill="#dcedf9"/><g style="isolation:isolate"><g style="isolation:isolate"><path d="M556.954,448.143h-1.107V441.02q0-.889.054-1.682-.142.144-.321.3t-1.627,1.333l-.6-.78L556,438.148h.957Z" fill="#363545"/><path d="M560.871,443.87a7.07,7.07,0,0,1,1.145-4.4,4.041,4.041,0,0,1,3.387-1.46,4.5,4.5,0,0,1,1.217.13v.977a3.891,3.891,0,0,0-1.2-.171,3.035,3.035,0,0,0-2.454,1,5.135,5.135,0,0,0-.93,3.148h.082a2.619,2.619,0,0,1,2.379-1.176,2.8,2.8,0,0,1,2.123.814,3.067,3.067,0,0,1,.776,2.208,3.4,3.4,0,0,1-.851,2.45,3.029,3.029,0,0,1-2.3.892,2.955,2.955,0,0,1-2.461-1.166A5.152,5.152,0,0,1,560.871,443.87Zm3.357,3.445a1.9,1.9,0,0,0,1.507-.612,2.6,2.6,0,0,0,.536-1.766,2.276,2.276,0,0,0-.5-1.559,1.879,1.879,0,0,0-1.49-.567,2.523,2.523,0,0,0-1.128.252,2.1,2.1,0,0,0-.817.7,1.615,1.615,0,0,0-.3.923,3.166,3.166,0,0,0,.274,1.312,2.315,2.315,0,0,0,.776.964A1.93,1.93,0,0,0,564.228,447.315Z" fill="#363545"/></g></g><path d="M528.071,426.143h16v32h-16a16,16,0,0,1-16-16h0A16,16,0,0,1,528.071,426.143Z" fill="#dcedf9"/><path d="M528.071,426.143h0a16,16,0,0,1,16,16h0a16,16,0,0,1-16,16h0a16,16,0,0,1-16-16h0A16,16,0,0,1,528.071,426.143Z" fill="#217cbb"/><g style="isolation:isolate"><g style="isolation:isolate"><path d="M524.954,448.143h-1.107V441.02q0-.889.054-1.682-.142.144-.321.3t-1.627,1.333l-.6-.78L524,438.148h.957Z" fill="#fff"/><path d="M531.879,442.038a3.679,3.679,0,0,1,2.485.782,2.687,2.687,0,0,1,.906,2.144,3.1,3.1,0,0,1-.988,2.433,3.946,3.946,0,0,1-2.724.882,5.008,5.008,0,0,1-2.578-.54v-1.093a3.891,3.891,0,0,0,1.19.481,5.832,5.832,0,0,0,1.4.175,2.8,2.8,0,0,0,1.87-.568,2.034,2.034,0,0,0,.666-1.64q0-2.092-2.563-2.092a10.207,10.207,0,0,0-1.736.2l-.588-.376.376-4.676h4.969v1.046h-4l-.253,3A8.029,8.029,0,0,1,531.879,442.038Z" fill="#fff"/></g></g><path d="M496.071,426.143h0a16,16,0,0,1,16,16h0a16,16,0,0,1-16,16h0a16,16,0,0,1-16-16h0A16,16,0,0,1,496.071,426.143Z" fill="#fff"/><path d="M496.071,427.143h0a15,15,0,0,1,15,15h0a15,15,0,0,1-15,15h0a15,15,0,0,1-15-15h0A15,15,0,0,1,496.071,427.143Z" fill="none" stroke="#217cbb" stroke-width="2"/><g style="isolation:isolate"><g style="isolation:isolate"><path d="M492.954,448.143h-1.107V441.02q0-.889.054-1.682-.143.144-.321.3t-1.627,1.333l-.6-.78L492,438.148h.957Z" fill="#363545"/><path d="M503.8,445.846h-1.484v2.3h-1.086v-2.3h-4.861v-.992l4.744-6.76h1.2v6.719H503.8Zm-2.57-1.033v-3.322q0-.977.068-2.208h-.055a10.154,10.154,0,0,1-.615,1.087l-3.124,4.443Z" fill="#363545"/></g></g><path d="M464.071,426.143h0a16,16,0,0,1,16,16h0a16,16,0,0,1-16,16h0a16,16,0,0,1-16-16h0A16,16,0,0,1,464.071,426.143Z" fill="#fff"/><g style="isolation:isolate"><g style="isolation:isolate"><path d="M460.954,448.143h-1.107V441.02q0-.889.054-1.682-.143.144-.321.3t-1.627,1.333l-.6-.78L460,438.148h.957Z" fill="#363545"/><path d="M470.948,440.5a2.275,2.275,0,0,1-.536,1.565,2.688,2.688,0,0,1-1.521.814v.055a2.858,2.858,0,0,1,1.784.765,2.255,2.255,0,0,1,.581,1.614,2.618,2.618,0,0,1-.991,2.2,4.508,4.508,0,0,1-2.817.769A8.227,8.227,0,0,1,466,448.16a4.994,4.994,0,0,1-1.282-.421v-1.08a6.529,6.529,0,0,0,2.775.656q2.59,0,2.591-2.03,0-1.818-2.857-1.818h-.985v-.978h1a3.006,3.006,0,0,0,1.853-.516,1.7,1.7,0,0,0,.683-1.432,1.411,1.411,0,0,0-.5-1.148,2.066,2.066,0,0,0-1.364-.417,4.222,4.222,0,0,0-1.237.177,5.48,5.48,0,0,0-1.326.657l-.574-.766a4.824,4.824,0,0,1,1.418-.763,5.2,5.2,0,0,1,1.692-.276,3.454,3.454,0,0,1,2.263.667A2.244,2.244,0,0,1,470.948,440.5Z" fill="#363545"/></g></g><path d="M432.071,426.143h0a16,16,0,0,1,16,16h0a16,16,0,0,1-16,16h0a16,16,0,0,1-16-16h0A16,16,0,0,1,432.071,426.143Z" fill="#fff"/><g style="isolation:isolate"><g style="isolation:isolate"><path d="M428.954,448.143h-1.107V441.02q0-.889.054-1.682-.143.144-.321.3t-1.627,1.333l-.6-.78L428,438.148h.957Z" fill="#363545"/><path d="M439.324,448.143h-6.569v-.978l2.632-2.645a19.518,19.518,0,0,0,1.586-1.737,4.427,4.427,0,0,0,.574-1.012,2.907,2.907,0,0,0,.191-1.059,1.682,1.682,0,0,0-.485-1.269,1.865,1.865,0,0,0-1.347-.467,3.384,3.384,0,0,0-1.179.2,4.65,4.65,0,0,0-1.241.745l-.6-.773a4.609,4.609,0,0,1,3.008-1.148,3.173,3.173,0,0,1,2.208.722,2.478,2.478,0,0,1,.8,1.937,3.737,3.737,0,0,1-.533,1.88,11.952,11.952,0,0,1-2,2.352l-2.187,2.139v.055h5.14Z" fill="#363545"/></g></g><path d="M400.071,426.143h0a16,16,0,0,1,16,16h0a16,16,0,0,1-16,16h0a16,16,0,0,1-16-16h0A16,16,0,0,1,400.071,426.143Z" fill="#fff"/><g style="isolation:isolate"><g style="isolation:isolate"><path d="M396.954,448.143h-1.107V441.02q0-.889.054-1.682-.143.144-.321.3t-1.627,1.333l-.6-.78L396,438.148h.957Z" fill="#363545"/><path d="M404.959,448.143h-1.107V441.02q0-.889.054-1.682-.143.144-.321.3t-1.627,1.333l-.6-.78L404,438.148h.957Z" fill="#363545"/></g></g><path d="M592.071,394.143h0a16,16,0,0,1,16,16h0a16,16,0,0,1-16,16h0a16,16,0,0,1-16-16h0A16,16,0,0,1,592.071,394.143Z" fill="#fff"/><g style="isolation:isolate"><g style="isolation:isolate"><path d="M588.954,416.143h-1.107V409.02q0-.889.054-1.682-.142.144-.321.3t-1.627,1.333l-.6-.78L588,406.148h.957Z" fill="#363545"/><path d="M599.379,411.132a7.306,7.306,0,0,1-.817,3.869,3.018,3.018,0,0,1-4.953-.03,7.163,7.163,0,0,1-.84-3.839,7.3,7.3,0,0,1,.813-3.876,3.019,3.019,0,0,1,4.953.055A7.119,7.119,0,0,1,599.379,411.132Zm-5.462,0a7.31,7.31,0,0,0,.513,3.175,1.842,1.842,0,0,0,3.278-.014,10.052,10.052,0,0,0,0-6.316,1.848,1.848,0,0,0-3.278-.014A7.271,7.271,0,0,0,593.917,411.132Z" fill="#363545"/></g></g><path d="M560.071,394.143h0a16,16,0,0,1,16,16h0a16,16,0,0,1-16,16h0a16,16,0,0,1-16-16h0A16,16,0,0,1,560.071,394.143Z" fill="#fff"/><g style="isolation:isolate"><g style="isolation:isolate"><path d="M563.322,410.414q0,5.865-4.539,5.865a4.672,4.672,0,0,1-1.258-.136v-.978a4.041,4.041,0,0,0,1.245.178,3.031,3.031,0,0,0,2.478-1.015,5.136,5.136,0,0,0,.912-3.114h-.082a2.418,2.418,0,0,1-1,.864,3.2,3.2,0,0,1-1.4.3,2.821,2.821,0,0,1-2.106-.793,3.026,3.026,0,0,1-.779-2.215,3.39,3.39,0,0,1,.872-2.461,3.044,3.044,0,0,1,2.293-.9,3.084,3.084,0,0,1,1.781.522,3.313,3.313,0,0,1,1.172,1.526A6.192,6.192,0,0,1,563.322,410.414Zm-3.363-3.438a1.876,1.876,0,0,0-1.511.628,2.627,2.627,0,0,0-.533,1.75,2.272,2.272,0,0,0,.492,1.548,1.879,1.879,0,0,0,1.5.565,2.587,2.587,0,0,0,1.145-.253,2.07,2.07,0,0,0,.824-.691,1.588,1.588,0,0,0,.3-.916,3.131,3.131,0,0,0-.28-1.326,2.322,2.322,0,0,0-.783-.957A1.974,1.974,0,0,0,559.959,406.976Z" fill="#363545"/></g></g><path d="M528.071,394.143h0a16,16,0,0,1,16,16h0a16,16,0,0,1-16,16h0a16,16,0,0,1-16-16h0A16,16,0,0,1,528.071,394.143Z" fill="#fff"/><g style="isolation:isolate"><g style="isolation:isolate"><path d="M528.062,406.005a3.39,3.39,0,0,1,2.167.636,2.118,2.118,0,0,1,.8,1.756,2.187,2.187,0,0,1-.458,1.347,4.054,4.054,0,0,1-1.463,1.108,4.921,4.921,0,0,1,1.73,1.22,2.3,2.3,0,0,1,.513,1.48,2.478,2.478,0,0,1-.869,1.985,3.538,3.538,0,0,1-2.378.742,3.8,3.8,0,0,1-2.461-.7,2.412,2.412,0,0,1-.862-1.985q0-1.716,2.092-2.673a3.854,3.854,0,0,1-1.353-1.152,2.446,2.446,0,0,1-.411-1.384,2.112,2.112,0,0,1,.8-1.734A3.339,3.339,0,0,1,528.062,406.005ZM525.9,413.62a1.547,1.547,0,0,0,.571,1.278,2.5,2.5,0,0,0,1.6.458,2.388,2.388,0,0,0,1.586-.478,1.625,1.625,0,0,0,.568-1.313,1.594,1.594,0,0,0-.534-1.178,5.408,5.408,0,0,0-1.859-1,4.06,4.06,0,0,0-1.477.967A1.876,1.876,0,0,0,525.9,413.62Zm2.147-6.692a2.01,2.01,0,0,0-1.34.41,1.358,1.358,0,0,0-.485,1.094,1.565,1.565,0,0,0,.4,1.08,4.218,4.218,0,0,0,1.49.9,3.716,3.716,0,0,0,1.384-.882,1.632,1.632,0,0,0,.407-1.1,1.348,1.348,0,0,0-.495-1.1A2.093,2.093,0,0,0,528.048,406.928Z" fill="#363545"/></g></g><path d="M496.071,394.143h0a16,16,0,0,1,16,16h0a16,16,0,0,1-16,16h0a16,16,0,0,1-16-16h0A16,16,0,0,1,496.071,394.143Z" fill="#fff"/><g style="isolation:isolate"><g style="isolation:isolate"><path d="M494.018,416.143l4.142-8.949h-5.448v-1.046h6.651v.91l-4.088,9.085Z" fill="#363545"/></g></g><path d="M464.071,394.143h0a16,16,0,0,1,16,16h0a16,16,0,0,1-16,16h0a16,16,0,0,1-16-16h0A16,16,0,0,1,464.071,394.143Z" fill="#fff"/><g style="isolation:isolate"><g style="isolation:isolate"><path d="M460.869,411.87a7.07,7.07,0,0,1,1.145-4.4,4.041,4.041,0,0,1,3.387-1.46,4.491,4.491,0,0,1,1.217.13v.977a3.891,3.891,0,0,0-1.2-.171,3.035,3.035,0,0,0-2.454,1,5.135,5.135,0,0,0-.93,3.148h.082a2.618,2.618,0,0,1,2.379-1.176,2.8,2.8,0,0,1,2.123.814,3.067,3.067,0,0,1,.776,2.208,3.4,3.4,0,0,1-.851,2.45,3.029,3.029,0,0,1-2.3.892,2.955,2.955,0,0,1-2.461-1.166A5.152,5.152,0,0,1,460.869,411.87Zm3.357,3.445a1.9,1.9,0,0,0,1.507-.612,2.6,2.6,0,0,0,.537-1.766,2.281,2.281,0,0,0-.5-1.559,1.882,1.882,0,0,0-1.491-.567,2.523,2.523,0,0,0-1.128.252,2.1,2.1,0,0,0-.817.7,1.615,1.615,0,0,0-.3.923A3.166,3.166,0,0,0,462.3,414a2.315,2.315,0,0,0,.776.964A1.932,1.932,0,0,0,464.226,415.315Z" fill="#363545"/></g></g><path d="M432.071,394.143h0a16,16,0,0,1,16,16h0a16,16,0,0,1-16,16h0a16,16,0,0,1-16-16h0A16,16,0,0,1,432.071,394.143Z" fill="#fff"/><g style="isolation:isolate"><g style="isolation:isolate"><path d="M431.877,410.038a3.679,3.679,0,0,1,2.485.782,2.687,2.687,0,0,1,.906,2.144,3.1,3.1,0,0,1-.988,2.433,3.946,3.946,0,0,1-2.724.882,5,5,0,0,1-2.577-.54v-1.093a3.874,3.874,0,0,0,1.189.481,5.832,5.832,0,0,0,1.4.175,2.8,2.8,0,0,0,1.87-.568,2.034,2.034,0,0,0,.666-1.64q0-2.092-2.563-2.092a10.206,10.206,0,0,0-1.736.2l-.588-.376.376-4.676h4.969v1.046h-4l-.252,3A8.01,8.01,0,0,1,431.877,410.038Z" fill="#363545"/></g></g><path d="M400.071,394.143h0a16,16,0,0,1,16,16h0a16,16,0,0,1-16,16h0a16,16,0,0,1-16-16h0A16,16,0,0,1,400.071,394.143Z" fill="#fff"/><g style="isolation:isolate"><g style="isolation:isolate"><path d="M403.794,413.846h-1.483v2.3h-1.087v-2.3h-4.861v-.992l4.744-6.76h1.2v6.719h1.483Zm-2.57-1.033v-3.322q0-.977.068-2.208h-.055a10.154,10.154,0,0,1-.615,1.087l-3.124,4.443Z" fill="#363545"/></g></g><path d="M592.071,362.143h0a16,16,0,0,1,16,16h0a16,16,0,0,1-16,16h0a16,16,0,0,1-16-16h0A16,16,0,0,1,592.071,362.143Z" fill="#fff"/><g style="isolation:isolate"><g style="isolation:isolate"><path d="M594.946,376.5a2.275,2.275,0,0,1-.536,1.565,2.688,2.688,0,0,1-1.521.814v.055a2.858,2.858,0,0,1,1.784.765,2.255,2.255,0,0,1,.581,1.614,2.618,2.618,0,0,1-.991,2.2,4.508,4.508,0,0,1-2.817.769,8.226,8.226,0,0,1-1.452-.119,4.994,4.994,0,0,1-1.282-.421v-1.08a6.529,6.529,0,0,0,2.775.656q2.59,0,2.591-2.03,0-1.818-2.857-1.818h-.985v-.978h1a3.006,3.006,0,0,0,1.853-.516,1.7,1.7,0,0,0,.684-1.432,1.412,1.412,0,0,0-.5-1.148,2.064,2.064,0,0,0-1.364-.417,4.223,4.223,0,0,0-1.237.177,5.479,5.479,0,0,0-1.326.657l-.574-.766a4.824,4.824,0,0,1,1.418-.763,5.2,5.2,0,0,1,1.692-.276,3.454,3.454,0,0,1,2.263.667A2.244,2.244,0,0,1,594.946,376.5Z" fill="#363545"/></g></g><path d="M560.071,362.143h0a16,16,0,0,1,16,16h0a16,16,0,0,1-16,16h0a16,16,0,0,1-16-16h0A16,16,0,0,1,560.071,362.143Z" fill="#fff"/><g style="isolation:isolate"><g style="isolation:isolate"><path d="M563.322,384.143h-6.569v-.978l2.632-2.645a19.518,19.518,0,0,0,1.586-1.737,4.427,4.427,0,0,0,.574-1.012,2.907,2.907,0,0,0,.191-1.059,1.682,1.682,0,0,0-.485-1.269,1.864,1.864,0,0,0-1.347-.467,3.384,3.384,0,0,0-1.179.2,4.666,4.666,0,0,0-1.241.745l-.6-.773a4.609,4.609,0,0,1,3.008-1.148,3.173,3.173,0,0,1,2.208.722,2.478,2.478,0,0,1,.8,1.937,3.736,3.736,0,0,1-.533,1.88,11.952,11.952,0,0,1-2,2.352l-2.187,2.139v.055h5.14Z" fill="#363545"/></g></g><path d="M528.071,362.143h0a16,16,0,0,1,16,16h0a16,16,0,0,1-16,16h0a16,16,0,0,1-16-16h0A16,16,0,0,1,528.071,362.143Z" fill="#fff"/><g style="isolation:isolate"><g style="isolation:isolate"><path d="M528.957,384.143H527.85V377.02q0-.889.054-1.682-.142.144-.321.3t-1.627,1.333l-.6-.78L528,374.148h.957Z" fill="#363545"/></g></g><path d="M496.071,362.143h0a16,16,0,0,1,16,16h0a16,16,0,0,1-16,16h0a16,16,0,0,1-16-16h0A16,16,0,0,1,496.071,362.143Z" fill="#fff"/><g style="isolation:isolate"><g style="isolation:isolate"><path d="M494.943,376.5a2.275,2.275,0,0,1-.536,1.565,2.688,2.688,0,0,1-1.521.814v.055a2.858,2.858,0,0,1,1.784.765,2.256,2.256,0,0,1,.581,1.614,2.618,2.618,0,0,1-.991,2.2,4.508,4.508,0,0,1-2.817.769,8.235,8.235,0,0,1-1.452-.119,5.006,5.006,0,0,1-1.282-.421v-1.08a6.528,6.528,0,0,0,2.775.656q2.59,0,2.591-2.03,0-1.818-2.857-1.818h-.985v-.978h1a3.006,3.006,0,0,0,1.853-.516,1.694,1.694,0,0,0,.684-1.432,1.412,1.412,0,0,0-.5-1.148,2.064,2.064,0,0,0-1.364-.417,4.222,4.222,0,0,0-1.237.177,5.479,5.479,0,0,0-1.326.657l-.574-.766a4.824,4.824,0,0,1,1.418-.763,5.2,5.2,0,0,1,1.692-.276,3.454,3.454,0,0,1,2.263.667A2.244,2.244,0,0,1,494.943,376.5Z" fill="#363545"/><path d="M500.959,384.143h-1.107V377.02q0-.889.054-1.682-.143.144-.321.3t-1.627,1.333l-.6-.78L500,374.148h.957Z" fill="#363545"/></g></g><path d="M464.071,362.143h0a16,16,0,0,1,16,16h0a16,16,0,0,1-16,16h0a16,16,0,0,1-16-16h0A16,16,0,0,1,464.071,362.143Z" fill="#fff"/><g style="isolation:isolate"><g style="isolation:isolate"><path d="M462.943,376.5a2.275,2.275,0,0,1-.536,1.565,2.688,2.688,0,0,1-1.521.814v.055a2.858,2.858,0,0,1,1.784.765,2.256,2.256,0,0,1,.581,1.614,2.618,2.618,0,0,1-.991,2.2,4.508,4.508,0,0,1-2.817.769,8.235,8.235,0,0,1-1.452-.119,5.006,5.006,0,0,1-1.282-.421v-1.08a6.528,6.528,0,0,0,2.775.656q2.59,0,2.591-2.03,0-1.818-2.857-1.818h-.985v-.978h1a3.006,3.006,0,0,0,1.853-.516,1.694,1.694,0,0,0,.684-1.432,1.412,1.412,0,0,0-.5-1.148,2.064,2.064,0,0,0-1.364-.417,4.222,4.222,0,0,0-1.237.177,5.479,5.479,0,0,0-1.326.657l-.574-.766a4.824,4.824,0,0,1,1.418-.763,5.2,5.2,0,0,1,1.692-.276,3.454,3.454,0,0,1,2.263.667A2.244,2.244,0,0,1,462.943,376.5Z" fill="#363545"/><path d="M471.379,379.132a7.306,7.306,0,0,1-.817,3.869,3.018,3.018,0,0,1-4.953-.03,7.163,7.163,0,0,1-.84-3.839,7.3,7.3,0,0,1,.813-3.876,3.019,3.019,0,0,1,4.953.055A7.119,7.119,0,0,1,471.379,379.132Zm-5.462,0a7.31,7.31,0,0,0,.513,3.175,1.842,1.842,0,0,0,3.278-.014,10.051,10.051,0,0,0,0-6.316,1.848,1.848,0,0,0-3.278-.014A7.271,7.271,0,0,0,465.917,379.132Z" fill="#363545"/></g></g><path d="M432.071,362.143h0a16,16,0,0,1,16,16h0a16,16,0,0,1-16,16h0a16,16,0,0,1-16-16h0A16,16,0,0,1,432.071,362.143Z" fill="#fff"/><g style="isolation:isolate"><g style="isolation:isolate"><path d="M431.319,384.143H424.75v-.978l2.632-2.645a19.518,19.518,0,0,0,1.586-1.737,4.39,4.39,0,0,0,.574-1.012,2.907,2.907,0,0,0,.191-1.059,1.682,1.682,0,0,0-.485-1.269,1.864,1.864,0,0,0-1.347-.467,3.384,3.384,0,0,0-1.179.2,4.666,4.666,0,0,0-1.241.745l-.6-.773a4.609,4.609,0,0,1,3.008-1.148,3.173,3.173,0,0,1,2.208.722,2.478,2.478,0,0,1,.8,1.937,3.738,3.738,0,0,1-.534,1.88,11.952,11.952,0,0,1-2,2.352l-2.187,2.139v.055h5.14Z" fill="#363545"/><path d="M439.324,378.414q0,5.865-4.539,5.865a4.672,4.672,0,0,1-1.258-.136v-.978a4.039,4.039,0,0,0,1.244.178,3.031,3.031,0,0,0,2.479-1.015,5.137,5.137,0,0,0,.912-3.114h-.082a2.418,2.418,0,0,1-1,.864,3.2,3.2,0,0,1-1.4.3,2.821,2.821,0,0,1-2.106-.793,3.026,3.026,0,0,1-.779-2.215,3.394,3.394,0,0,1,.871-2.461,3.048,3.048,0,0,1,2.294-.9,3.084,3.084,0,0,1,1.781.522,3.313,3.313,0,0,1,1.172,1.526A6.21,6.21,0,0,1,439.324,378.414Zm-3.363-3.438a1.876,1.876,0,0,0-1.511.628,2.627,2.627,0,0,0-.533,1.75,2.272,2.272,0,0,0,.492,1.548,1.879,1.879,0,0,0,1.5.565,2.586,2.586,0,0,0,1.145-.253,2.07,2.07,0,0,0,.824-.691,1.588,1.588,0,0,0,.3-.916,3.13,3.13,0,0,0-.28-1.326,2.329,2.329,0,0,0-.783-.957A1.974,1.974,0,0,0,435.961,374.976Z" fill="#363545"/></g></g><path d="M400.071,362.143h0a16,16,0,0,1,16,16h0a16,16,0,0,1-16,16h0a16,16,0,0,1-16-16h0A16,16,0,0,1,400.071,362.143Z" fill="#fff"/><g style="isolation:isolate"><g style="isolation:isolate"><path d="M399.319,384.143H392.75v-.978l2.632-2.645a19.518,19.518,0,0,0,1.586-1.737,4.39,4.39,0,0,0,.574-1.012,2.907,2.907,0,0,0,.191-1.059,1.682,1.682,0,0,0-.485-1.269,1.864,1.864,0,0,0-1.347-.467,3.384,3.384,0,0,0-1.179.2,4.666,4.666,0,0,0-1.241.745l-.6-.773a4.609,4.609,0,0,1,3.008-1.148,3.173,3.173,0,0,1,2.208.722,2.478,2.478,0,0,1,.8,1.937,3.738,3.738,0,0,1-.534,1.88,11.952,11.952,0,0,1-2,2.352l-2.187,2.139v.055h5.14Z" fill="#363545"/><path d="M404.063,374.005a3.386,3.386,0,0,1,2.167.636,2.116,2.116,0,0,1,.8,1.756,2.187,2.187,0,0,1-.458,1.347,4.053,4.053,0,0,1-1.463,1.108,4.921,4.921,0,0,1,1.73,1.22,2.3,2.3,0,0,1,.513,1.48,2.478,2.478,0,0,1-.869,1.985,3.539,3.539,0,0,1-2.379.742,3.8,3.8,0,0,1-2.46-.7,2.412,2.412,0,0,1-.862-1.985q0-1.716,2.092-2.673a3.854,3.854,0,0,1-1.353-1.152,2.446,2.446,0,0,1-.411-1.384,2.112,2.112,0,0,1,.8-1.734A3.338,3.338,0,0,1,404.063,374.005Zm-2.16,7.615a1.547,1.547,0,0,0,.571,1.278,2.5,2.5,0,0,0,1.6.458,2.388,2.388,0,0,0,1.586-.478,1.624,1.624,0,0,0,.567-1.313,1.593,1.593,0,0,0-.533-1.178,5.408,5.408,0,0,0-1.859-1,4.061,4.061,0,0,0-1.477.967A1.876,1.876,0,0,0,401.9,381.62Zm2.147-6.692a2.01,2.01,0,0,0-1.34.41,1.358,1.358,0,0,0-.485,1.094,1.565,1.565,0,0,0,.4,1.08,4.218,4.218,0,0,0,1.49.9,3.716,3.716,0,0,0,1.384-.882,1.632,1.632,0,0,0,.407-1.1,1.348,1.348,0,0,0-.495-1.1A2.093,2.093,0,0,0,404.05,374.928Z" fill="#363545"/></g></g><rect width="32" height="32" transform="translate(576.071 330.143)" fill="#fff"/><g style="isolation:isolate"><g style="isolation:isolate"><path d="M588.106,348.367a2.582,2.582,0,0,1-.974,2.133,4.226,4.226,0,0,1-2.71.779,6.363,6.363,0,0,1-2.83-.6v-1.969a11.621,11.621,0,0,0,1.712.636,5.07,5.07,0,0,0,1.282.184,1.83,1.83,0,0,0,1.07-.266.914.914,0,0,0,.372-.793.87.87,0,0,0-.164-.523,1.819,1.819,0,0,0-.482-.441,12.217,12.217,0,0,0-1.3-.677,6.1,6.1,0,0,1-1.374-.827,3.132,3.132,0,0,1-.732-.923,2.634,2.634,0,0,1-.273-1.23,2.584,2.584,0,0,1,.9-2.085,3.735,3.735,0,0,1,2.485-.759,5.877,5.877,0,0,1,1.487.184,10.324,10.324,0,0,1,1.48.52l-.684,1.647a10.146,10.146,0,0,0-1.323-.458,4.278,4.278,0,0,0-1.029-.129,1.36,1.36,0,0,0-.922.28.99.99,0,0,0-.192,1.221,1.435,1.435,0,0,0,.414.4,12.4,12.4,0,0,0,1.343.7,5.335,5.335,0,0,1,1.921,1.344A2.62,2.62,0,0,1,588.106,348.367Z" fill="#363545"/><path d="M594.607,351.143l-.4-1.039h-.055a3.083,3.083,0,0,1-1.083.919,3.52,3.52,0,0,1-1.453.256,2.351,2.351,0,0,1-1.733-.629,2.416,2.416,0,0,1-.632-1.791,2.02,2.02,0,0,1,.851-1.8,4.945,4.945,0,0,1,2.567-.638l1.326-.041v-.335a1.039,1.039,0,0,0-1.189-1.162,5.422,5.422,0,0,0-2.154.553l-.69-1.408a6.216,6.216,0,0,1,2.926-.69,3.642,3.642,0,0,1,2.358.67,2.475,2.475,0,0,1,.82,2.037v5.093Zm-.615-3.541-.806.027a2.588,2.588,0,0,0-1.354.328,1.03,1.03,0,0,0-.444.916q0,.882,1.011.882a1.6,1.6,0,0,0,1.159-.417,1.464,1.464,0,0,0,.434-1.108Z" fill="#363545"/><path d="M601.43,349.618a4.534,4.534,0,0,0,1.312-.239v1.552a4.687,4.687,0,0,1-1.914.348,2.343,2.343,0,0,1-1.822-.633,2.75,2.75,0,0,1-.57-1.9v-3.685h-1v-.881l1.149-.7.6-1.613h1.334V343.5h2.139v1.565h-2.139v3.685a.814.814,0,0,0,.249.656A.982.982,0,0,0,601.43,349.618Z" fill="#363545"/></g></g><rect width="32" height="32" transform="translate(544.071 330.143)" fill="#fff"/><g style="isolation:isolate"><g style="isolation:isolate"><path d="M556.393,351.143h-2.085v-9.995h5.729v1.737h-3.644v2.577h3.391v1.729h-3.391Z" fill="#363545"/><path d="M566.093,343.356a3.358,3.358,0,0,1,.7.062l-.157,1.955a2.364,2.364,0,0,0-.615-.068,2.212,2.212,0,0,0-1.555.512,1.853,1.853,0,0,0-.557,1.436v3.89h-2.085V343.5h1.579l.307,1.285h.1a2.868,2.868,0,0,1,.96-1.035A2.364,2.364,0,0,1,566.093,343.356Z" fill="#363545"/></g></g><rect width="32" height="32" transform="translate(512.071 330.143)" fill="#fff"/><g style="isolation:isolate"><g style="isolation:isolate"><path d="M524.531,351.143h-2.119v-8.231H519.7v-1.764h7.547v1.764h-2.714Z" fill="#363545"/><path d="M535.673,351.143h-2.085v-4.464q0-1.654-1.23-1.655a1.4,1.4,0,0,0-1.265.6,3.632,3.632,0,0,0-.389,1.928v3.6h-2.085V340.506H530.7v2.167c0,.169-.017.565-.048,1.189l-.048.616h.109a2.415,2.415,0,0,1,2.215-1.122,2.708,2.708,0,0,1,2.044.725,2.878,2.878,0,0,1,.7,2.078Z" fill="#363545"/></g></g><rect width="32" height="32" transform="translate(480.071 330.143)" fill="#fff"/><g style="isolation:isolate"><g style="isolation:isolate"><path d="M496.161,351.143h-2.413l-1.354-5.25q-.075-.281-.256-1.159t-.209-1.179q-.04.369-.2,1.185t-.253,1.166l-1.346,5.237h-2.407l-2.55-9.995h2.085l1.279,5.456q.334,1.509.485,2.618.041-.39.188-1.206t.277-1.269l1.456-5.6h2l1.456,5.6q.1.376.239,1.149c.1.514.169.957.219,1.326.045-.356.119-.8.219-1.329s.191-.961.273-1.289l1.272-5.456H498.7Z" fill="#363545"/><path d="M503.256,351.279a3.946,3.946,0,0,1-2.884-1.018,3.856,3.856,0,0,1-1.039-2.885,4.243,4.243,0,0,1,.96-2.97,3.418,3.418,0,0,1,2.656-1.05,3.365,3.365,0,0,1,2.522.923,3.491,3.491,0,0,1,.9,2.55v1.012h-4.929a2.009,2.009,0,0,0,.526,1.388,1.852,1.852,0,0,0,1.381.5,5.72,5.72,0,0,0,1.306-.144,6.541,6.541,0,0,0,1.285-.458v1.613a4.889,4.889,0,0,1-1.169.407A7.432,7.432,0,0,1,503.256,351.279Zm-.294-6.439a1.325,1.325,0,0,0-1.039.42,1.949,1.949,0,0,0-.43,1.193h2.925a1.738,1.738,0,0,0-.4-1.193A1.367,1.367,0,0,0,502.962,344.84Z" fill="#363545"/></g></g><rect width="32" height="32" transform="translate(448.071 330.143)" fill="#fff"/><g style="isolation:isolate"><g style="isolation:isolate"><path d="M460.531,351.143h-2.119v-8.231H455.7v-1.764h7.547v1.764h-2.714Z" fill="#363545"/><path d="M470.033,351.143l-.281-.978h-.109a2.189,2.189,0,0,1-.95.823,3.226,3.226,0,0,1-1.4.291,2.673,2.673,0,0,1-2.031-.72,2.909,2.909,0,0,1-.683-2.076V343.5h2.085v4.464a2.144,2.144,0,0,0,.294,1.241,1.069,1.069,0,0,0,.936.413,1.405,1.405,0,0,0,1.265-.585,3.626,3.626,0,0,0,.389-1.937v-3.6h2.085v7.643Z" fill="#363545"/></g></g><rect width="32" height="32" transform="translate(416.071 330.143)" fill="#fff"/><g style="isolation:isolate"><g style="isolation:isolate"><path d="M426.627,351.143l-2.406-7.841h-.062q.129,2.391.13,3.192v4.649H422.4v-9.995h2.884l2.366,7.643h.041l2.508-7.643h2.885v9.995H431.1v-4.731c0-.224,0-.48.01-.772s.038-1.067.093-2.325h-.061l-2.578,7.828Z" fill="#363545"/><path d="M442.377,347.308a4.11,4.11,0,0,1-.984,2.919,3.571,3.571,0,0,1-2.742,1.052,3.827,3.827,0,0,1-1.941-.482,3.2,3.2,0,0,1-1.292-1.384,4.648,4.648,0,0,1-.451-2.1,4.081,4.081,0,0,1,.977-2.912,3.59,3.59,0,0,1,2.748-1.04,3.859,3.859,0,0,1,1.942.479,3.2,3.2,0,0,1,1.292,1.374A4.607,4.607,0,0,1,442.377,347.308Zm-5.284,0a3.209,3.209,0,0,0,.372,1.715,1.332,1.332,0,0,0,1.214.581,1.31,1.31,0,0,0,1.2-.577,3.253,3.253,0,0,0,.366-1.719,3.159,3.159,0,0,0-.369-1.7,1.57,1.57,0,0,0-2.413,0A3.159,3.159,0,0,0,437.093,347.308Z" fill="#363545"/></g></g><rect width="32" height="32" transform="translate(384.071 330.143)" fill="#fff"/><g style="isolation:isolate"><g style="isolation:isolate"><path d="M398.772,348.367a2.582,2.582,0,0,1-.974,2.133,4.226,4.226,0,0,1-2.71.779,6.363,6.363,0,0,1-2.83-.6v-1.969a11.622,11.622,0,0,0,1.712.636,5.071,5.071,0,0,0,1.282.184,1.83,1.83,0,0,0,1.07-.266.914.914,0,0,0,.372-.793.87.87,0,0,0-.164-.523,1.819,1.819,0,0,0-.482-.441,12.215,12.215,0,0,0-1.3-.677,6.1,6.1,0,0,1-1.374-.827,3.132,3.132,0,0,1-.732-.923,2.634,2.634,0,0,1-.273-1.23,2.584,2.584,0,0,1,.9-2.085,3.735,3.735,0,0,1,2.485-.759,5.877,5.877,0,0,1,1.487.184,10.324,10.324,0,0,1,1.48.52l-.684,1.647a10.144,10.144,0,0,0-1.323-.458,4.278,4.278,0,0,0-1.029-.129,1.361,1.361,0,0,0-.922.28.99.99,0,0,0-.192,1.221,1.435,1.435,0,0,0,.414.4,12.4,12.4,0,0,0,1.343.7,5.336,5.336,0,0,1,1.921,1.344A2.62,2.62,0,0,1,398.772,348.367Z" fill="#363545"/><path d="M405.834,351.143l-.28-.978h-.11a2.189,2.189,0,0,1-.95.823,3.223,3.223,0,0,1-1.4.291,2.673,2.673,0,0,1-2.031-.72,2.909,2.909,0,0,1-.683-2.076V343.5h2.085v4.464a2.144,2.144,0,0,0,.294,1.241,1.07,1.07,0,0,0,.936.413,1.405,1.405,0,0,0,1.265-.585,3.615,3.615,0,0,0,.39-1.937v-3.6h2.085v7.643Z" fill="#363545"/></g></g><path d="M362.071,232.143h129a2,2,0,0,1,2,2v30h-133v-30A2,2,0,0,1,362.071,232.143Z" fill="#fff"/><path d="M362.071,232.643h129a1.5,1.5,0,0,1,1.5,1.5v29.5h-132v-29.5A1.5,1.5,0,0,1,362.071,232.643Z" fill="none" stroke="#e0e1e9" stroke-width="1"/><rect width="133" height="1" transform="translate(360.071 263.143)" fill="#6a6e79"/><g opacity="0"><rect width="20" height="20" transform="translate(465.071 238.143)" fill="none"/><rect width="19" height="19" transform="translate(465.571 238.643)" fill="none" stroke="#000" stroke-miterlimit="10" stroke-width="1"/></g><path d="M472.738,247.343h-1.556v1.6h1.556Zm3.111,0h-1.556v1.6h1.556Zm3.111,0H477.4v1.6h1.556Zm1.556-5.6h-.778v-1.6h-1.556v1.6H471.96v-1.6H470.4v1.6h-.778a1.583,1.583,0,0,0-1.555,1.6v11.2a1.584,1.584,0,0,0,1.556,1.6h10.889a1.583,1.583,0,0,0,1.555-1.6v-11.2a1.582,1.582,0,0,0-1.556-1.6Zm0,12.8H469.627v-8.8h10.889Z" fill="#6a6e79"/><g style="isolation:isolate"><g style="isolation:isolate"><path d="M366.142,218.816a2.155,2.155,0,0,1-.827,1.793,3.59,3.59,0,0,1-2.279.651,5.449,5.449,0,0,1-2.379-.451v-1.325a6.426,6.426,0,0,0,1.245.434,5.311,5.311,0,0,0,1.228.158,1.949,1.949,0,0,0,1.227-.316,1.031,1.031,0,0,0,.4-.85,1.064,1.064,0,0,0-.363-.814,5.467,5.467,0,0,0-1.5-.791,3.979,3.979,0,0,1-1.653-1.084,2.3,2.3,0,0,1-.48-1.465,2.053,2.053,0,0,1,.762-1.688,3.157,3.157,0,0,1,2.044-.615,6.017,6.017,0,0,1,2.45.539l-.446,1.143a5.335,5.335,0,0,0-2.039-.481,1.565,1.565,0,0,0-1.031.3.972.972,0,0,0-.351.782,1.1,1.1,0,0,0,.14.572,1.443,1.443,0,0,0,.463.448,7.873,7.873,0,0,0,1.16.557,6.3,6.3,0,0,1,1.383.732,2.156,2.156,0,0,1,.645.768A2.317,2.317,0,0,1,366.142,218.816Z" fill="#464b52"/><path d="M370.483,221.26a3.135,3.135,0,0,1-2.364-.882,3.35,3.35,0,0,1-.852-2.429,3.671,3.671,0,0,1,.791-2.5,2.733,2.733,0,0,1,2.173-.908,2.673,2.673,0,0,1,2.028.779,2.98,2.98,0,0,1,.744,2.145v.744h-4.318a2.127,2.127,0,0,0,.509,1.45,1.777,1.777,0,0,0,1.354.507,5.009,5.009,0,0,0,1.069-.108,5.669,5.669,0,0,0,1.064-.361v1.119a4.219,4.219,0,0,1-1.02.34A6.2,6.2,0,0,1,370.483,221.26Zm-.252-5.672a1.383,1.383,0,0,0-1.051.416,1.982,1.982,0,0,0-.472,1.213h2.941a1.79,1.79,0,0,0-.386-1.216A1.325,1.325,0,0,0,370.231,215.588Z" fill="#464b52"/><path d="M375.944,221.143h-1.377v-9.118h1.377Z" fill="#464b52"/><path d="M380.743,221.26a3.133,3.133,0,0,1-2.364-.882,3.351,3.351,0,0,1-.853-2.429,3.676,3.676,0,0,1,.791-2.5,2.735,2.735,0,0,1,2.174-.908,2.674,2.674,0,0,1,2.028.779,2.98,2.98,0,0,1,.744,2.145v.744h-4.319a2.132,2.132,0,0,0,.51,1.45,1.776,1.776,0,0,0,1.354.507,5.016,5.016,0,0,0,1.069-.108,5.637,5.637,0,0,0,1.063-.361v1.119a4.212,4.212,0,0,1-1.019.34A6.2,6.2,0,0,1,380.743,221.26Zm-.252-5.672a1.386,1.386,0,0,0-1.052.416,1.988,1.988,0,0,0-.471,1.213h2.941a1.8,1.8,0,0,0-.387-1.216A1.323,1.323,0,0,0,380.491,215.588Z" fill="#464b52"/><path d="M387.44,221.26a2.835,2.835,0,0,1-2.235-.859,4.349,4.349,0,0,1,.035-4.977,2.967,2.967,0,0,1,2.312-.879,4.327,4.327,0,0,1,1.845.381l-.416,1.107a4.182,4.182,0,0,0-1.441-.34q-1.682,0-1.682,2.233a2.674,2.674,0,0,0,.419,1.637,1.45,1.45,0,0,0,1.228.548,3.519,3.519,0,0,0,1.74-.457v1.2a2.7,2.7,0,0,1-.788.311A4.694,4.694,0,0,1,387.44,221.26Z" fill="#464b52"/><path d="M393.183,220.146a3.327,3.327,0,0,0,1.007-.158v1.037a2.738,2.738,0,0,1-.588.167,4.065,4.065,0,0,1-.748.068q-1.956,0-1.957-2.063v-3.492h-.884V215.1l.949-.5.469-1.371h.849v1.441h1.846v1.043H392.28v3.469a.972.972,0,0,0,.249.735A.909.909,0,0,0,393.183,220.146Z" fill="#464b52"/><path d="M405.716,216.777a4.273,4.273,0,0,1-1.178,3.244,4.73,4.73,0,0,1-3.392,1.122h-2.4v-8.567H401.4a4.38,4.38,0,0,1,3.182,1.1A4.114,4.114,0,0,1,405.716,216.777Zm-1.477.047q0-3.077-2.877-3.076h-1.213v6.217h1Q404.239,219.965,404.239,216.824Z" fill="#464b52"/><path d="M411.464,221.143l-.276-.9h-.046a2.656,2.656,0,0,1-.944.806,2.99,2.99,0,0,1-1.219.214,2.063,2.063,0,0,1-1.491-.516,1.931,1.931,0,0,1-.536-1.459,1.714,1.714,0,0,1,.744-1.512,4.3,4.3,0,0,1,2.268-.556l1.119-.035v-.346a1.313,1.313,0,0,0-.29-.929,1.182,1.182,0,0,0-.9-.307,3.107,3.107,0,0,0-.956.146,7.249,7.249,0,0,0-.878.346l-.446-.985a4.842,4.842,0,0,1,1.155-.419,5.347,5.347,0,0,1,1.183-.143,2.805,2.805,0,0,1,1.866.539,2.11,2.11,0,0,1,.63,1.693v4.366Zm-2.051-.938a1.707,1.707,0,0,0,1.2-.419,1.518,1.518,0,0,0,.454-1.175v-.562l-.832.035a2.848,2.848,0,0,0-1.415.325.988.988,0,0,0-.442.888.866.866,0,0,0,.258.671A1.107,1.107,0,0,0,409.413,220.205Z" fill="#464b52"/><path d="M416.784,220.146a3.333,3.333,0,0,0,1.008-.158v1.037a2.748,2.748,0,0,1-.589.167,4.046,4.046,0,0,1-.747.068q-1.957,0-1.957-2.063v-3.492h-.885V215.1l.949-.5.469-1.371h.85v1.441h1.846v1.043h-1.846v3.469a.972.972,0,0,0,.249.735A.908.908,0,0,0,416.784,220.146Z" fill="#464b52"/><path d="M421.917,221.26a3.133,3.133,0,0,1-2.364-.882,3.346,3.346,0,0,1-.853-2.429,3.676,3.676,0,0,1,.791-2.5,2.735,2.735,0,0,1,2.174-.908,2.67,2.67,0,0,1,2.027.779,2.981,2.981,0,0,1,.745,2.145v.744h-4.319a2.132,2.132,0,0,0,.51,1.45,1.774,1.774,0,0,0,1.353.507,5.018,5.018,0,0,0,1.07-.108,5.661,5.661,0,0,0,1.063-.361v1.119a4.226,4.226,0,0,1-1.019.34A6.208,6.208,0,0,1,421.917,221.26Zm-.252-5.672a1.386,1.386,0,0,0-1.052.416,1.982,1.982,0,0,0-.471,1.213h2.941A1.8,1.8,0,0,0,422.7,216,1.323,1.323,0,0,0,421.665,215.588Z" fill="#464b52"/><path d="M430.665,217.721v3.422h-1.4v-8.567h2.42a3.979,3.979,0,0,1,2.455.621,2.231,2.231,0,0,1,.8,1.875,2.345,2.345,0,0,1-1.665,2.28l2.42,3.791H434.1l-2.051-3.422Zm0-1.16h.973a2.223,2.223,0,0,0,1.418-.364,1.317,1.317,0,0,0,.439-1.078,1.161,1.161,0,0,0-.474-1.043,2.6,2.6,0,0,0-1.43-.316h-.926Z" fill="#464b52"/><path d="M440.843,221.143l-.276-.9h-.046a2.656,2.656,0,0,1-.944.806,2.993,2.993,0,0,1-1.219.214,2.063,2.063,0,0,1-1.491-.516,1.931,1.931,0,0,1-.536-1.459,1.714,1.714,0,0,1,.744-1.512,4.3,4.3,0,0,1,2.268-.556l1.119-.035v-.346a1.313,1.313,0,0,0-.29-.929,1.183,1.183,0,0,0-.9-.307,3.1,3.1,0,0,0-.955.146,7.33,7.33,0,0,0-.879.346l-.445-.985a4.834,4.834,0,0,1,1.154-.419,5.356,5.356,0,0,1,1.184-.143,2.805,2.805,0,0,1,1.866.539,2.11,2.11,0,0,1,.63,1.693v4.366Zm-2.051-.938a1.707,1.707,0,0,0,1.2-.419,1.518,1.518,0,0,0,.454-1.175v-.562l-.832.035a2.848,2.848,0,0,0-1.415.325.988.988,0,0,0-.442.888.866.866,0,0,0,.258.671A1.105,1.105,0,0,0,438.792,220.205Z" fill="#464b52"/><path d="M449.45,221.143h-1.383v-3.985a1.744,1.744,0,0,0-.3-1.119,1.168,1.168,0,0,0-.958-.369,1.525,1.525,0,0,0-1.278.516,2.847,2.847,0,0,0-.4,1.728v3.229h-1.377v-6.481h1.078l.194.85h.07a1.91,1.91,0,0,1,.832-.715,2.787,2.787,0,0,1,1.2-.252,2.079,2.079,0,0,1,2.332,2.373Z" fill="#464b52"/><path d="M456.839,214.662v.756l-1.108.205a1.772,1.772,0,0,1,.252.5,1.971,1.971,0,0,1,.1.633,1.938,1.938,0,0,1-.691,1.576,2.894,2.894,0,0,1-1.9.574,3.017,3.017,0,0,1-.562-.047.778.778,0,0,0-.446.645.359.359,0,0,0,.208.334,1.807,1.807,0,0,0,.765.111h1.131a2.512,2.512,0,0,1,1.629.457,1.609,1.609,0,0,1,.557,1.319,1.917,1.917,0,0,1-.909,1.7,4.784,4.784,0,0,1-2.625.6,3.628,3.628,0,0,1-2.021-.468,1.515,1.515,0,0,1-.7-1.336,1.42,1.42,0,0,1,.378-1,2.021,2.021,0,0,1,1.057-.566,1.035,1.035,0,0,1-.454-.378.977.977,0,0,1,.026-1.163,2.366,2.366,0,0,1,.61-.5,1.8,1.8,0,0,1-.818-.706,2.306,2.306,0,0,1,.352-2.78,2.793,2.793,0,0,1,1.895-.58,4.708,4.708,0,0,1,.578.038,3.646,3.646,0,0,1,.454.079Zm-5.092,7.488a.758.758,0,0,0,.4.686,2.21,2.21,0,0,0,1.128.24,3.407,3.407,0,0,0,1.676-.322.967.967,0,0,0,.551-.856.641.641,0,0,0-.3-.6,2.423,2.423,0,0,0-1.122-.179h-1.043a1.468,1.468,0,0,0-.94.278A.913.913,0,0,0,451.747,222.15Zm.592-5.39a1.3,1.3,0,0,0,.313.937,1.185,1.185,0,0,0,.9.328q1.2,0,1.2-1.277a1.452,1.452,0,0,0-.3-.976,1.125,1.125,0,0,0-.9-.342,1.16,1.16,0,0,0-.906.34A1.427,1.427,0,0,0,452.339,216.76Z" fill="#464b52"/><path d="M460.87,221.26a3.133,3.133,0,0,1-2.364-.882,3.346,3.346,0,0,1-.853-2.429,3.676,3.676,0,0,1,.791-2.5,2.735,2.735,0,0,1,2.174-.908,2.674,2.674,0,0,1,2.028.779,2.98,2.98,0,0,1,.744,2.145v.744h-4.319a2.132,2.132,0,0,0,.51,1.45,1.776,1.776,0,0,0,1.354.507,5.016,5.016,0,0,0,1.069-.108,5.66,5.66,0,0,0,1.063-.361v1.119a4.212,4.212,0,0,1-1.019.34A6.2,6.2,0,0,1,460.87,221.26Zm-.252-5.672a1.386,1.386,0,0,0-1.052.416,1.988,1.988,0,0,0-.471,1.213h2.941a1.8,1.8,0,0,0-.387-1.216A1.323,1.323,0,0,0,460.618,215.588Z" fill="#464b52"/></g></g><g style="isolation:isolate"><g style="isolation:isolate"><path d="M374.083,249.863a2.1,2.1,0,0,1-.82,1.764,3.557,3.557,0,0,1-2.227.633,5.575,5.575,0,0,1-2.344-.393v-.961a6.152,6.152,0,0,0,1.149.352,6.035,6.035,0,0,0,1.23.129,2.483,2.483,0,0,0,1.5-.378,1.241,1.241,0,0,0,.5-1.052,1.339,1.339,0,0,0-.179-.729,1.653,1.653,0,0,0-.6-.525,8.33,8.33,0,0,0-1.275-.545,4.079,4.079,0,0,1-1.708-1.013,2.244,2.244,0,0,1-.512-1.53,1.9,1.9,0,0,1,.744-1.576,3.09,3.09,0,0,1,1.969-.586,5.793,5.793,0,0,1,2.349.469l-.31.867a5.309,5.309,0,0,0-2.063-.445,1.993,1.993,0,0,0-1.236.34,1.118,1.118,0,0,0-.445.943,1.436,1.436,0,0,0,.164.729,1.54,1.54,0,0,0,.553.522,6.9,6.9,0,0,0,1.193.524,4.72,4.72,0,0,1,1.854,1.032A2.026,2.026,0,0,1,374.083,249.863Z" fill="#252a2e"/><path d="M378.4,252.26a2.951,2.951,0,0,1-2.247-.867,3.359,3.359,0,0,1-.823-2.409,3.719,3.719,0,0,1,.765-2.466,2.536,2.536,0,0,1,2.053-.914,2.424,2.424,0,0,1,1.911.793,3.049,3.049,0,0,1,.7,2.1v.615h-4.424a2.544,2.544,0,0,0,.571,1.717,1.974,1.974,0,0,0,1.527.586,5.168,5.168,0,0,0,2.05-.433v.867a5.135,5.135,0,0,1-.975.319A5.447,5.447,0,0,1,378.4,252.26Zm-.263-5.842a1.59,1.59,0,0,0-1.234.5,2.329,2.329,0,0,0-.542,1.394h3.358a2.141,2.141,0,0,0-.41-1.409A1.445,1.445,0,0,0,378.138,246.418Z" fill="#252a2e"/><path d="M385.409,252.26a2.763,2.763,0,0,1-1.145-.232,2.142,2.142,0,0,1-.87-.712h-.071a8.6,8.6,0,0,1,.071,1.067v2.642h-.973v-9.3h.791l.135.879h.047a2.254,2.254,0,0,1,.873-.762,2.654,2.654,0,0,1,1.142-.234,2.374,2.374,0,0,1,1.972.873,4.65,4.65,0,0,1-.012,4.907A2.378,2.378,0,0,1,385.409,252.26Zm-.14-5.83a1.721,1.721,0,0,0-1.424.545,2.8,2.8,0,0,0-.451,1.734v.217a3.21,3.21,0,0,0,.451,1.936,1.715,1.715,0,0,0,1.447.583,1.5,1.5,0,0,0,1.3-.674,3.2,3.2,0,0,0,.471-1.857,3.08,3.08,0,0,0-.471-1.843A1.554,1.554,0,0,0,385.269,246.43Z" fill="#252a2e"/><path d="M391.849,251.457a3.465,3.465,0,0,0,.879-.117v.744a1.77,1.77,0,0,1-.466.126,3.528,3.528,0,0,1-.554.05q-1.863,0-1.863-1.963v-3.82h-.92v-.469l.92-.4.41-1.372h.562v1.489h1.864v.756h-1.864v3.779a1.3,1.3,0,0,0,.276.89A.954.954,0,0,0,391.849,251.457Z" fill="#252a2e"/><path d="M400.286,252.143h-.949v-6.106q0-.762.047-1.441-.123.123-.276.258T397.714,246l-.516-.668,2.268-1.752h.82Z" fill="#252a2e"/><path d="M406.222,246.91a3.153,3.153,0,0,1,2.13.671,2.3,2.3,0,0,1,.776,1.837,2.651,2.651,0,0,1-.847,2.086,3.381,3.381,0,0,1-2.335.756,4.3,4.3,0,0,1-2.209-.463v-.938a3.348,3.348,0,0,0,1.02.413,5.007,5.007,0,0,0,1.2.15,2.4,2.4,0,0,0,1.6-.486,1.749,1.749,0,0,0,.571-1.407q0-1.793-2.2-1.793a8.774,8.774,0,0,0-1.489.17l-.5-.322.323-4.008h4.259v.9H405.1l-.217,2.572A6.811,6.811,0,0,1,406.222,246.91Z" fill="#252a2e"/><path d="M411.87,250.748l.088.135c-.1.39-.248.845-.439,1.362s-.391,1-.6,1.444h-.733q.159-.609.349-1.5t.267-1.436Z" fill="#252a2e"/><path d="M422.1,252.143h-5.631V251.3l2.256-2.268a16.66,16.66,0,0,0,1.359-1.488,3.781,3.781,0,0,0,.492-.867,2.475,2.475,0,0,0,.164-.909,1.435,1.435,0,0,0-.416-1.086,1.591,1.591,0,0,0-1.154-.4,2.913,2.913,0,0,0-1.011.176,4.009,4.009,0,0,0-1.063.639l-.516-.662a3.947,3.947,0,0,1,2.578-.985,2.725,2.725,0,0,1,1.893.618,2.126,2.126,0,0,1,.685,1.661,3.206,3.206,0,0,1-.457,1.612,10.2,10.2,0,0,1-1.711,2.015l-1.875,1.834v.047H422.1Z" fill="#252a2e"/><path d="M429,247.848a6.253,6.253,0,0,1-.7,3.316,2.586,2.586,0,0,1-4.245-.026,6.127,6.127,0,0,1-.721-3.29,6.254,6.254,0,0,1,.7-3.323,2.588,2.588,0,0,1,4.245.047A6.1,6.1,0,0,1,429,247.848Zm-4.682,0a6.268,6.268,0,0,0,.44,2.721,1.578,1.578,0,0,0,2.809-.011,8.6,8.6,0,0,0,0-5.414,1.583,1.583,0,0,0-2.809-.012A6.23,6.23,0,0,0,424.321,247.848Z" fill="#252a2e"/><path d="M435.817,252.143h-5.63V251.3l2.255-2.268a16.554,16.554,0,0,0,1.36-1.488,3.781,3.781,0,0,0,.492-.867,2.5,2.5,0,0,0,.164-.909,1.438,1.438,0,0,0-.416-1.086,1.591,1.591,0,0,0-1.154-.4,2.9,2.9,0,0,0-1.011.176,4.029,4.029,0,0,0-1.064.639l-.515-.662a3.945,3.945,0,0,1,2.578-.985,2.725,2.725,0,0,1,1.893.618,2.126,2.126,0,0,1,.685,1.661,3.206,3.206,0,0,1-.457,1.612,10.233,10.233,0,0,1-1.711,2.015l-1.875,1.834v.047h4.406Z" fill="#252a2e"/><path d="M442.679,252.143h-5.631V251.3l2.256-2.268a16.655,16.655,0,0,0,1.359-1.488,3.781,3.781,0,0,0,.492-.867,2.475,2.475,0,0,0,.164-.909,1.435,1.435,0,0,0-.416-1.086,1.591,1.591,0,0,0-1.154-.4,2.913,2.913,0,0,0-1.011.176,4.01,4.01,0,0,0-1.063.639l-.516-.662a3.947,3.947,0,0,1,2.578-.985,2.725,2.725,0,0,1,1.893.618,2.126,2.126,0,0,1,.685,1.661,3.206,3.206,0,0,1-.457,1.612,10.2,10.2,0,0,1-1.711,2.015l-1.875,1.834v.047h4.407Z" fill="#252a2e"/></g></g><path d="M503.071,232.143h128a2,2,0,0,1,2,2v30h-132v-30A2,2,0,0,1,503.071,232.143Z" fill="#fff"/><path d="M503.071,232.643h128a1.5,1.5,0,0,1,1.5,1.5v29.5h-131v-29.5A1.5,1.5,0,0,1,503.071,232.643Z" fill="none" stroke="#e0e1e9" stroke-width="1"/><rect width="132" height="2" transform="translate(501.071 262.143)" fill="#217cbb"/><g opacity="0"><rect width="20" height="20" transform="translate(605.071 238.143)" fill="none"/><rect width="19" height="19" transform="translate(605.571 238.643)" fill="none" stroke="#000" stroke-miterlimit="10" stroke-width="1"/></g><path d="M612.738,247.343h-1.556v1.6h1.556Zm3.111,0h-1.556v1.6h1.556Zm3.111,0H617.4v1.6h1.556Zm1.556-5.6h-.778v-1.6h-1.556v1.6H611.96v-1.6H610.4v1.6h-.778a1.583,1.583,0,0,0-1.555,1.6v11.2a1.584,1.584,0,0,0,1.556,1.6h10.889a1.583,1.583,0,0,0,1.555-1.6v-11.2a1.582,1.582,0,0,0-1.556-1.6Zm0,12.8H609.627v-8.8h10.889Z" fill="#217cbb"/><g style="isolation:isolate"><g style="isolation:isolate"><path d="M515.083,249.863a2.1,2.1,0,0,1-.82,1.764,3.557,3.557,0,0,1-2.227.633,5.575,5.575,0,0,1-2.344-.393v-.961a6.152,6.152,0,0,0,1.149.352,6.035,6.035,0,0,0,1.23.129,2.483,2.483,0,0,0,1.5-.378,1.241,1.241,0,0,0,.5-1.052,1.339,1.339,0,0,0-.179-.729,1.653,1.653,0,0,0-.6-.525,8.33,8.33,0,0,0-1.275-.545,4.079,4.079,0,0,1-1.708-1.013,2.244,2.244,0,0,1-.512-1.53,1.9,1.9,0,0,1,.744-1.576,3.09,3.09,0,0,1,1.969-.586,5.794,5.794,0,0,1,2.349.469l-.31.867a5.31,5.31,0,0,0-2.063-.445,1.993,1.993,0,0,0-1.236.34,1.118,1.118,0,0,0-.445.943,1.436,1.436,0,0,0,.164.729,1.54,1.54,0,0,0,.553.522,6.9,6.9,0,0,0,1.193.524,4.72,4.72,0,0,1,1.854,1.032A2.026,2.026,0,0,1,515.083,249.863Z" fill="#252a2e"/><path d="M519.4,252.26a2.951,2.951,0,0,1-2.247-.867,3.359,3.359,0,0,1-.823-2.409,3.719,3.719,0,0,1,.765-2.466,2.536,2.536,0,0,1,2.053-.914,2.424,2.424,0,0,1,1.911.793,3.049,3.049,0,0,1,.7,2.1v.615h-4.424a2.544,2.544,0,0,0,.571,1.717,1.975,1.975,0,0,0,1.527.586,5.168,5.168,0,0,0,2.05-.433v.867a5.136,5.136,0,0,1-.975.319A5.448,5.448,0,0,1,519.4,252.26Zm-.263-5.842a1.59,1.59,0,0,0-1.234.5,2.329,2.329,0,0,0-.542,1.394h3.358a2.141,2.141,0,0,0-.41-1.409A1.445,1.445,0,0,0,519.138,246.418Z" fill="#252a2e"/><path d="M526.409,252.26a2.764,2.764,0,0,1-1.145-.232,2.142,2.142,0,0,1-.87-.712h-.071a8.6,8.6,0,0,1,.071,1.067v2.642h-.973v-9.3h.791l.135.879h.047a2.254,2.254,0,0,1,.873-.762,2.654,2.654,0,0,1,1.142-.234,2.374,2.374,0,0,1,1.972.873,4.65,4.65,0,0,1-.012,4.907A2.378,2.378,0,0,1,526.409,252.26Zm-.14-5.83a1.721,1.721,0,0,0-1.424.545,2.8,2.8,0,0,0-.451,1.734v.217a3.21,3.21,0,0,0,.451,1.936,1.715,1.715,0,0,0,1.447.583,1.5,1.5,0,0,0,1.3-.674,3.2,3.2,0,0,0,.471-1.857,3.08,3.08,0,0,0-.471-1.843A1.554,1.554,0,0,0,526.269,246.43Z" fill="#252a2e"/><path d="M532.849,251.457a3.465,3.465,0,0,0,.879-.117v.744a1.771,1.771,0,0,1-.466.126,3.529,3.529,0,0,1-.554.05q-1.863,0-1.863-1.963v-3.82h-.92v-.469l.92-.4.41-1.372h.562v1.489h1.864v.756h-1.864v3.779a1.3,1.3,0,0,0,.276.89A.954.954,0,0,0,532.849,251.457Z" fill="#252a2e"/><path d="M543.313,252.143h-5.63V251.3l2.255-2.268a16.557,16.557,0,0,0,1.36-1.488,3.777,3.777,0,0,0,.492-.867,2.5,2.5,0,0,0,.164-.909,1.438,1.438,0,0,0-.416-1.086,1.591,1.591,0,0,0-1.154-.4,2.9,2.9,0,0,0-1.011.176,4.01,4.01,0,0,0-1.063.639l-.516-.662a3.945,3.945,0,0,1,2.578-.985,2.725,2.725,0,0,1,1.893.618,2.126,2.126,0,0,1,.685,1.661,3.207,3.207,0,0,1-.457,1.612,10.232,10.232,0,0,1-1.711,2.015l-1.875,1.834v.047h4.406Z" fill="#252a2e"/><path d="M549.853,245.592a1.958,1.958,0,0,1-.46,1.342,2.309,2.309,0,0,1-1.3.7v.047a2.45,2.45,0,0,1,1.529.656,1.932,1.932,0,0,1,.5,1.383,2.246,2.246,0,0,1-.849,1.884,3.868,3.868,0,0,1-2.414.659,6.939,6.939,0,0,1-1.246-.1,4.231,4.231,0,0,1-1.1-.36v-.926a5.615,5.615,0,0,0,2.379.563q2.22,0,2.22-1.741,0-1.558-2.449-1.558h-.844V247.3h.856a2.576,2.576,0,0,0,1.588-.443,1.452,1.452,0,0,0,.586-1.227,1.209,1.209,0,0,0-.431-.984,1.771,1.771,0,0,0-1.169-.358,3.589,3.589,0,0,0-1.06.153,4.744,4.744,0,0,0-1.137.562l-.492-.656a4.1,4.1,0,0,1,1.215-.654,4.428,4.428,0,0,1,1.451-.237,2.967,2.967,0,0,1,1.939.571A1.926,1.926,0,0,1,549.853,245.592Z" fill="#252a2e"/><path d="M552.87,250.748l.088.135c-.1.39-.248.845-.439,1.362s-.391,1-.6,1.444h-.733q.159-.609.349-1.5t.267-1.436Z" fill="#252a2e"/><path d="M563.095,252.143h-5.631V251.3l2.256-2.268a16.655,16.655,0,0,0,1.359-1.488,3.781,3.781,0,0,0,.492-.867,2.474,2.474,0,0,0,.164-.909,1.434,1.434,0,0,0-.416-1.086,1.591,1.591,0,0,0-1.154-.4,2.913,2.913,0,0,0-1.011.176,4.01,4.01,0,0,0-1.063.639l-.516-.662a3.947,3.947,0,0,1,2.578-.985,2.725,2.725,0,0,1,1.893.618,2.126,2.126,0,0,1,.685,1.661,3.207,3.207,0,0,1-.457,1.612,10.2,10.2,0,0,1-1.711,2.015l-1.875,1.834v.047h4.407Z" fill="#252a2e"/><path d="M570,247.848a6.252,6.252,0,0,1-.7,3.316,2.586,2.586,0,0,1-4.245-.026,6.127,6.127,0,0,1-.721-3.29,6.254,6.254,0,0,1,.7-3.323,2.588,2.588,0,0,1,4.245.047A6.1,6.1,0,0,1,570,247.848Zm-4.682,0a6.268,6.268,0,0,0,.44,2.721,1.578,1.578,0,0,0,2.809-.011,8.6,8.6,0,0,0,0-5.414,1.583,1.583,0,0,0-2.809-.012A6.23,6.23,0,0,0,565.321,247.848Z" fill="#252a2e"/><path d="M576.817,252.143h-5.63V251.3l2.255-2.268a16.557,16.557,0,0,0,1.36-1.488,3.781,3.781,0,0,0,.492-.867,2.5,2.5,0,0,0,.164-.909,1.438,1.438,0,0,0-.416-1.086,1.591,1.591,0,0,0-1.154-.4,2.9,2.9,0,0,0-1.011.176,4.029,4.029,0,0,0-1.064.639l-.515-.662a3.945,3.945,0,0,1,2.578-.985,2.725,2.725,0,0,1,1.893.618,2.126,2.126,0,0,1,.685,1.661,3.206,3.206,0,0,1-.457,1.612,10.232,10.232,0,0,1-1.711,2.015l-1.875,1.834v.047h4.406Z" fill="#252a2e"/><path d="M583.679,252.143h-5.631V251.3l2.256-2.268a16.665,16.665,0,0,0,1.359-1.488,3.781,3.781,0,0,0,.492-.867,2.475,2.475,0,0,0,.164-.909,1.434,1.434,0,0,0-.416-1.086,1.591,1.591,0,0,0-1.154-.4,2.913,2.913,0,0,0-1.011.176,4.01,4.01,0,0,0-1.063.639l-.516-.662a3.947,3.947,0,0,1,2.578-.985,2.725,2.725,0,0,1,1.893.618,2.126,2.126,0,0,1,.685,1.661,3.206,3.206,0,0,1-.457,1.612,10.2,10.2,0,0,1-1.711,2.015l-1.875,1.834v.047h4.407Z" fill="#252a2e"/></g></g></g></g><g transform="translate(-319 -170.643)"><rect width="257" height="12" transform="translate(697 344.643)" fill="#cbcdd6"/><rect width="373" height="12" transform="translate(697 323.643)" fill="#cbcdd6"/><rect width="378" height="12" transform="translate(697 302.643)" fill="#cbcdd6"/><rect width="364" height="12" transform="translate(697 281.643)" fill="#cbcdd6"/><rect width="395" height="12" transform="translate(697 260.643)" fill="#cbcdd6"/></g><g transform="translate(377 19)"><g transform="translate(0 24)"><g fill="#fff" stroke="#e0e1e9" stroke-width="1"><path d="M2,0H138a2,2,0,0,1,2,2V32a0,0,0,0,1,0,0H0a0,0,0,0,1,0,0V2A2,2,0,0,1,2,0Z" stroke="none"/><path d="M2,.5H138A1.5,1.5,0,0,1,139.5,2V31.5a0,0,0,0,1,0,0H.5a0,0,0,0,1,0,0V2A1.5,1.5,0,0,1,2,.5Z" fill="none"/></g><rect width="140" height="1" transform="translate(0 31)" fill="#6a6e79"/></g><text transform="translate(8 45)" fill="#a3a6b1" font-size="12" font-family="OpenSans, Open Sans"><tspan x="0" y="0">12:39 PM</tspan></text><text transform="translate(0 13)" fill="#464b52" font-size="12" font-family="OpenSans-Semibold, Open Sans" font-weight="600"><tspan x="0" y="0">Time</tspan></text></g></g></svg>